0, 0, Header, 1, 3, 240
1, 0, Start_track
1, 0, Time_signature, 4, 2, 24, 8
1, 0, Tempo, 500000
1, 0, End_track
2, 0, Start_track
2, 0, Text_t, "Piano (Left & Right)"
2, 338, Note_on_c, 0, 72, 35
2, 530, Control_c, 0, 64, 127
2, 534, Note_off_c, 0, 72, 64
2, 637, Control_c, 0, 64, 0
2, 653, Note_on_c, 0, 72, 39
2, 764, Control_c, 0, 64, 127
2, 789, Note_off_c, 0, 72, 64
2, 916, Control_c, 0, 64, 0
2, 933, Note_on_c, 0, 72, 48
2, 1002, Control_c, 0, 64, 127
2, 1040, Note_off_c, 0, 72, 64
2, 1235, Note_on_c, 0, 72, 64
2, 1235, Control_c, 0, 64, 0
2, 1238, Note_on_c, 0, 60, 35
2, 1250, Note_on_c, 0, 53, 35
2, 1250, Note_on_c, 0, 57, 35
2, 1320, Control_c, 0, 64, 127
2, 1396, Note_off_c, 0, 72, 64
2, 1406, Note_on_c, 0, 74, 62
2, 1436, Note_off_c, 0, 74, 64
2, 1454, Note_on_c, 0, 72, 63
2, 1477, Note_off_c, 0, 72, 64
2, 1487, Note_on_c, 0, 71, 65
2, 1494, Control_c, 0, 64, 0
2, 1517, Note_off_c, 0, 71, 64
2, 1529, Note_on_c, 0, 72, 67
2, 1649, Control_c, 0, 64, 127
2, 1665, Note_on_c, 0, 77, 65
2, 1669, Note_off_c, 0, 72, 64
2, 1728, Note_off_c, 0, 77, 64
2, 1781, Control_c, 0, 64, 0
2, 1839, Note_on_c, 0, 72, 42
2, 1960, Control_c, 0, 64, 127
2, 1973, Note_off_c, 0, 72, 64
2, 2112, Control_c, 0, 64, 0
2, 2153, Note_on_c, 0, 69, 57
2, 2195, Control_c, 0, 64, 127
2, 2234, Note_off_c, 0, 60, 64
2, 2249, Note_off_c, 0, 57, 64
2, 2254, Note_off_c, 0, 53, 64
2, 2452, Control_c, 0, 64, 0
2, 2461, Note_on_c, 0, 72, 61
2, 2478, Note_on_c, 0, 55, 35
2, 2478, Note_on_c, 0, 58, 36
2, 2490, Note_on_c, 0, 48, 35
2, 2544, Note_off_c, 0, 69, 64
2, 2779, Note_on_c, 0, 64, 57
2, 2808, Note_off_c, 0, 72, 64
2, 2893, Control_c, 0, 64, 127
2, 2991, Note_off_c, 0, 58, 64
2, 3006, Note_off_c, 0, 55, 64
2, 3118, Control_c, 0, 64, 0
2, 3140, Note_on_c, 0, 67, 56
2, 3152, Note_on_c, 0, 58, 35
2, 3154, Note_on_c, 0, 50, 35
2, 3181, Note_off_c, 0, 48, 64
2, 3205, Note_off_c, 0, 64, 64
2, 3504, Control_c, 0, 64, 127
2, 3614, Note_off_c, 0, 58, 64
2, 3817, Control_c, 0, 64, 0
2, 3820, Note_on_c, 0, 65, 36
2, 3822, Note_on_c, 0, 57, 35
2, 3872, Note_off_c, 0, 67, 64
2, 3968, Control_c, 0, 64, 127
2, 3984, Note_off_c, 0, 65, 64
2, 3985, Note_off_c, 0, 50, 64
2, 4042, Note_off_c, 0, 57, 64
2, 4150, Control_c, 0, 64, 0
2, 4167, Note_on_c, 0, 65, 61
2, 4177, Note_on_c, 0, 60, 49
2, 4178, Note_on_c, 0, 57, 45
2, 4188, Note_on_c, 0, 45, 39
2, 4266, Control_c, 0, 64, 127
2, 4297, Note_off_c, 0, 45, 64
2, 4323, Note_off_c, 0, 57, 64
2, 4457, Note_on_c, 0, 64, 64
2, 4460, Note_on_c, 0, 67, 68
2, 4467, Note_on_c, 0, 55, 46
2, 4467, Note_on_c, 0, 43, 43
2, 4470, Control_c, 0, 64, 0
2, 4471, Note_off_c, 0, 65, 64
2, 4554, Note_off_c, 0, 60, 64
2, 4558, Control_c, 0, 64, 127
2, 4585, Note_off_c, 0, 64, 64
2, 4590, Note_off_c, 0, 43, 64
2, 4597, Note_off_c, 0, 55, 64
2, 4661, Note_off_c, 0, 67, 64
2, 4738, Note_on_c, 0, 69, 74
2, 4740, Note_on_c, 0, 65, 58
2, 4744, Note_on_c, 0, 60, 47
2, 4749, Note_on_c, 0, 41, 51
2, 4750, Note_on_c, 0, 53, 49
2, 4753, Control_c, 0, 64, 0
2, 4817, Note_off_c, 0, 65, 64
2, 4819, Note_off_c, 0, 60, 64
2, 4824, Control_c, 0, 64, 127
2, 4826, Note_off_c, 0, 41, 64
2, 4854, Note_off_c, 0, 53, 64
2, 4860, Note_off_c, 0, 69, 64
2, 5060, Note_on_c, 0, 70, 77
2, 5066, Note_on_c, 0, 65, 59
2, 5070, Control_c, 0, 64, 0
2, 5070, Note_on_c, 0, 62, 38
2, 5071, Note_on_c, 0, 50, 35
2, 5214, Control_c, 0, 64, 127
2, 5216, Note_off_c, 0, 62, 64
2, 5236, Note_off_c, 0, 50, 64
2, 5410, Note_on_c, 0, 58, 51
2, 5420, Note_on_c, 0, 46, 44
2, 5575, Note_on_c, 0, 72, 68
2, 5590, Note_off_c, 0, 58, 64
2, 5606, Note_off_c, 0, 70, 64
2, 5643, Note_on_c, 0, 74, 65
2, 5648, Note_off_c, 0, 72, 64
2, 5675, Control_c, 0, 64, 0
2, 5705, Note_off_c, 0, 74, 64
2, 5721, Note_off_c, 0, 46, 64
2, 5722, Note_on_c, 0, 72, 60
2, 5739, Note_on_c, 0, 45, 35
2, 5739, Note_on_c, 0, 57, 37
2, 5845, Control_c, 0, 67, 127
2, 5892, Note_off_c, 0, 72, 64
2, 5917, Note_off_c, 0, 65, 64
2, 6005, Note_off_c, 0, 45, 64
2, 6018, Note_off_c, 0, 57, 64
2, 6105, Note_on_c, 0, 65, 45
2, 6234, Control_c, 0, 64, 127
2, 6418, Control_c, 0, 64, 0
2, 6423, Note_on_c, 0, 64, 48
2, 6429, Note_on_c, 0, 59, 39
2, 6434, Note_on_c, 0, 50, 35
2, 6539, Note_off_c, 0, 65, 64
2, 6567, Control_c, 0, 64, 127
2, 6720, Note_on_c, 0, 65, 55
2, 6848, Note_off_c, 0, 64, 64
2, 6851, Note_off_c, 0, 59, 64
2, 6864, Note_off_c, 0, 65, 64
2, 7077, Control_c, 0, 64, 0
2, 7102, Note_on_c, 0, 69, 59
2, 7107, Note_on_c, 0, 60, 35
2, 7107, Note_on_c, 0, 65, 35
2, 7115, Note_on_c, 0, 48, 36
2, 7196, Note_off_c, 0, 50, 64
2, 7441, Control_c, 0, 64, 127
2, 7480, Note_off_c, 0, 65, 64
2, 7630, Note_off_c, 0, 69, 64
2, 7818, Note_on_c, 0, 67, 36
2, 7822, Note_on_c, 0, 64, 35
2, 7822, Control_c, 0, 64, 0
2, 8036, Note_off_c, 0, 60, 64
2, 8040, Control_c, 0, 64, 127
2, 8043, Note_off_c, 0, 64, 64
2, 8056, Note_off_c, 0, 67, 64
2, 8064, Note_off_c, 0, 48, 64
2, 8237, Note_on_c, 0, 67, 53
2, 8240, Control_c, 0, 64, 0
2, 8403, Control_c, 0, 64, 127
2, 8419, Note_off_c, 0, 67, 64
2, 8552, Note_on_c, 0, 67, 61
2, 8556, Note_on_c, 0, 64, 46
2, 8559, Note_on_c, 0, 60, 41
2, 8703, Note_off_c, 0, 67, 64
2, 8709, Control_c, 0, 67, 0
2, 8714, Note_off_c, 0, 64, 64
2, 8720, Note_off_c, 0, 60, 64
2, 8847, Note_on_c, 0, 67, 68
2, 8992, Note_off_c, 0, 67, 64
2, 9153, Note_on_c, 0, 67, 59
2, 9202, Note_on_c, 0, 79, 75
2, 9210, Note_on_c, 0, 59, 37
2, 9211, Note_on_c, 0, 62, 42
2, 9211, Note_on_c, 0, 65, 42
2, 9216, Control_c, 0, 64, 0
2, 9391, Note_off_c, 0, 67, 64
2, 9465, Control_c, 0, 67, 127
2, 9519, Control_c, 0, 64, 127
2, 9768, Control_c, 0, 64, 0
2, 9783, Note_on_c, 0, 74, 51
2, 9799, Note_off_c, 0, 79, 64
2, 9835, Note_off_c, 0, 74, 64
2, 9835, Note_on_c, 0, 71, 55
2, 9889, Note_off_c, 0, 71, 64
2, 9922, Note_on_c, 0, 67, 50
2, 10060, Note_off_c, 0, 67, 64
2, 10093, Control_c, 0, 64, 127
2, 10204, Note_on_c, 0, 67, 57
2, 10352, Note_off_c, 0, 67, 64
2, 10405, Note_off_c, 0, 62, 64
2, 10479, Control_c, 0, 64, 0
2, 10486, Note_on_c, 0, 67, 65
2, 10498, Note_on_c, 0, 60, 45
2, 10500, Note_off_c, 0, 65, 64
2, 10500, Note_on_c, 0, 64, 48
2, 10505, Note_off_c, 0, 59, 64
2, 10589, Control_c, 0, 64, 127
2, 10632, Note_off_c, 0, 67, 64
2, 10636, Note_off_c, 0, 64, 64
2, 10656, Note_off_c, 0, 60, 64
2, 10738, Control_c, 0, 67, 0
2, 10762, Note_on_c, 0, 67, 71
2, 10840, Note_off_c, 0, 67, 64
2, 11041, Note_on_c, 0, 67, 70
2, 11100, Note_on_c, 0, 79, 81
2, 11107, Note_on_c, 0, 59, 50
2, 11110, Note_on_c, 0, 53, 42
2, 11115, Note_on_c, 0, 50, 43
2, 11125, Control_c, 0, 64, 0
2, 11184, Note_off_c, 0, 67, 64
2, 11320, Control_c, 0, 64, 127
2, 11497, Note_off_c, 0, 59, 64
2, 11537, Note_off_c, 0, 53, 64
2, 11805, Note_on_c, 0, 52, 35
2, 11807, Note_on_c, 0, 60, 35
2, 11813, Note_on_c, 0, 55, 35
2, 11838, Control_c, 0, 64, 0
2, 11953, Note_off_c, 0, 50, 64
2, 11986, Note_off_c, 0, 79, 64
2, 11993, Note_on_c, 0, 81, 56
2, 12046, Note_on_c, 0, 83, 66
2, 12064, Control_c, 0, 67, 127
2, 12066, Note_off_c, 0, 81, 64
2, 12109, Note_off_c, 0, 83, 64
2, 12123, Note_on_c, 0, 84, 50
2, 12165, Note_off_c, 0, 84, 64
2, 12265, Note_off_c, 0, 55, 64
2, 12265, Note_off_c, 0, 60, 64
2, 12267, Note_off_c, 0, 52, 64
2, 12267, Note_on_c, 0, 83, 54
2, 12295, Note_off_c, 0, 83, 64
2, 12408, Note_on_c, 0, 81, 43
2, 12434, Note_off_c, 0, 81, 64
2, 12544, Note_on_c, 0, 79, 45
2, 12588, Note_off_c, 0, 79, 64
2, 12690, Note_on_c, 0, 77, 43
2, 12716, Note_off_c, 0, 77, 64
2, 12831, Note_on_c, 0, 76, 44
2, 12853, Note_off_c, 0, 76, 64
2, 12987, Note_on_c, 0, 73, 40
2, 13125, Note_on_c, 0, 74, 49
2, 13165, Note_off_c, 0, 73, 64
2, 13257, Note_on_c, 0, 77, 55
2, 13269, Note_on_c, 0, 62, 35
2, 13274, Note_on_c, 0, 57, 35
2, 13279, Note_on_c, 0, 53, 35
2, 13317, Control_c, 0, 64, 127
2, 13402, Note_on_c, 0, 81, 59
2, 13408, Note_off_c, 0, 57, 64
2, 13410, Note_off_c, 0, 53, 64
2, 13431, Note_off_c, 0, 74, 64
2, 13465, Note_off_c, 0, 62, 64
2, 13536, Note_off_c, 0, 77, 64
2, 13559, Control_c, 0, 64, 0
2, 13576, Note_on_c, 0, 72, 56
2, 13588, Note_on_c, 0, 55, 35
2, 13588, Note_on_c, 0, 64, 38
2, 13597, Note_on_c, 0, 60, 36
2, 13626, Note_off_c, 0, 81, 64
2, 13840, Control_c, 0, 64, 127
2, 13948, Note_off_c, 0, 64, 64
2, 14180, Note_on_c, 0, 65, 35
2, 14183, Note_on_c, 0, 62, 35
2, 14190, Control_c, 0, 64, 0
2, 14264, Note_off_c, 0, 60, 64
2, 14407, Control_c, 0, 64, 127
2, 14503, Note_off_c, 0, 72, 64
2, 14503, Note_off_c, 0, 65, 64
2, 14505, Note_on_c, 0, 76, 54
2, 14510, Note_on_c, 0, 71, 45
2, 14535, Note_off_c, 0, 62, 64
2, 14666, Note_on_c, 0, 74, 54
2, 14724, Note_off_c, 0, 71, 64
2, 14726, Note_off_c, 0, 76, 64
2, 14772, Note_off_c, 0, 74, 64
2, 14837, Control_c, 0, 64, 0
2, 14857, Note_on_c, 0, 72, 39
2, 14870, Note_on_c, 0, 60, 35
2, 14876, Note_on_c, 0, 64, 35
2, 14956, Note_off_c, 0, 55, 64
2, 15083, Control_c, 0, 64, 127
2, 15109, Note_off_c, 0, 64, 64
2, 15115, Note_off_c, 0, 60, 64
2, 15255, Note_off_c, 0, 72, 64
2, 15510, Control_c, 0, 64, 0
2, 15573, Note_on_c, 0, 48, 35
2, 15985, Note_on_c, 0, 72, 45
2, 16068, Note_off_c, 0, 48, 64
2, 16137, Control_c, 0, 64, 127
2, 16152, Note_off_c, 0, 72, 64
2, 16289, Control_c, 0, 64, 0
2, 16302, Note_on_c, 0, 72, 48
2, 16408, Control_c, 0, 64, 127
2, 16426, Note_off_c, 0, 72, 64
2, 16568, Control_c, 0, 64, 0
2, 16584, Note_on_c, 0, 72, 60
2, 16630, Control_c, 0, 64, 127
2, 16692, Note_off_c, 0, 72, 64
2, 16887, Control_c, 0, 64, 0
2, 16900, Note_on_c, 0, 72, 60
2, 16908, Note_on_c, 0, 60, 35
2, 16914, Note_on_c, 0, 57, 35
2, 16917, Note_on_c, 0, 53, 35
2, 17000, Control_c, 0, 64, 127
2, 17048, Note_off_c, 0, 72, 64
2, 17062, Note_on_c, 0, 74, 61
2, 17113, Note_off_c, 0, 74, 64
2, 17113, Note_on_c, 0, 72, 61
2, 17138, Note_off_c, 0, 72, 64
2, 17144, Control_c, 0, 64, 0
2, 17149, Note_on_c, 0, 71, 62
2, 17179, Note_off_c, 0, 71, 64
2, 17198, Note_on_c, 0, 72, 62
2, 17324, Note_off_c, 0, 72, 64
2, 17340, Note_on_c, 0, 77, 63
2, 17445, Note_off_c, 0, 77, 64
2, 17513, Note_on_c, 0, 72, 44
2, 17657, Note_off_c, 0, 72, 64
2, 17688, Control_c, 0, 64, 127
2, 17815, Note_on_c, 0, 69, 61
2, 17889, Note_off_c, 0, 60, 64
2, 17889, Note_off_c, 0, 53, 64
2, 17904, Note_off_c, 0, 57, 64
2, 18124, Control_c, 0, 64, 0
2, 18133, Note_on_c, 0, 72, 59
2, 18144, Note_on_c, 0, 55, 35
2, 18144, Note_on_c, 0, 58, 42
2, 18151, Note_on_c, 0, 48, 38
2, 18213, Note_off_c, 0, 69, 64
2, 18337, Control_c, 0, 64, 127
2, 18468, Note_on_c, 0, 64, 61
2, 18535, Note_off_c, 0, 72, 64
2, 18628, Note_off_c, 0, 58, 64
2, 18628, Note_off_c, 0, 55, 64
2, 18870, Note_off_c, 0, 48, 64
2, 18896, Note_on_c, 0, 67, 56
2, 18909, Note_on_c, 0, 58, 43
2, 18913, Note_on_c, 0, 50, 37
2, 18916, Control_c, 0, 64, 0
2, 18976, Note_off_c, 0, 64, 64
2, 19273, Control_c, 0, 64, 127
2, 19411, Note_off_c, 0, 58, 64
2, 19628, Control_c, 0, 64, 0
2, 19630, Note_on_c, 0, 65, 35
2, 19637, Note_on_c, 0, 57, 35
2, 19679, Note_off_c, 0, 67, 64
2, 19796, Control_c, 0, 64, 127
2, 19809, Note_off_c, 0, 50, 64
2, 19814, Note_off_c, 0, 65, 64
2, 19856, Note_off_c, 0, 57, 64
2, 19983, Control_c, 0, 64, 0
2, 20002, Note_on_c, 0, 65, 60
2, 20012, Note_on_c, 0, 57, 39
2, 20012, Note_on_c, 0, 60, 40
2, 20021, Note_on_c, 0, 45, 35
2, 20104, Control_c, 0, 64, 127
2, 20156, Note_off_c, 0, 45, 64
2, 20164, Note_off_c, 0, 57, 64
2, 20232, Control_c, 0, 67, 0
2, 20300, Note_on_c, 0, 67, 68
2, 20302, Note_on_c, 0, 64, 58
2, 20313, Note_on_c, 0, 43, 45
2, 20314, Control_c, 0, 64, 0
2, 20317, Note_on_c, 0, 55, 38
2, 20325, Note_off_c, 0, 65, 64
2, 20381, Control_c, 0, 64, 127
2, 20393, Note_off_c, 0, 64, 64
2, 20439, Note_off_c, 0, 43, 64
2, 20453, Note_off_c, 0, 60, 64
2, 20456, Note_off_c, 0, 55, 64
2, 20511, Note_off_c, 0, 67, 64
2, 20580, Note_on_c, 0, 69, 75
2, 20588, Control_c, 0, 64, 0
2, 20591, Note_on_c, 0, 65, 45
2, 20592, Note_on_c, 0, 41, 47
2, 20592, Note_on_c, 0, 53, 41
2, 20593, Note_on_c, 0, 60, 49
2, 20661, Control_c, 0, 64, 127
2, 20665, Note_off_c, 0, 60, 64
2, 20666, Note_off_c, 0, 41, 64
2, 20677, Note_off_c, 0, 65, 64
2, 20692, Note_off_c, 0, 53, 64
2, 20695, Note_off_c, 0, 69, 64
2, 20878, Note_on_c, 0, 70, 74
2, 20887, Note_on_c, 0, 65, 59
2, 20889, Note_on_c, 0, 62, 46
2, 20894, Note_on_c, 0, 50, 44
2, 20898, Control_c, 0, 64, 0
2, 21012, Control_c, 0, 64, 127
2, 21018, Note_off_c, 0, 62, 64
2, 21033, Note_off_c, 0, 50, 64
2, 21216, Note_on_c, 0, 58, 52
2, 21228, Note_on_c, 0, 46, 46
2, 21372, Note_on_c, 0, 72, 63
2, 21384, Note_off_c, 0, 70, 64
2, 21387, Note_off_c, 0, 58, 64
2, 21438, Note_on_c, 0, 74, 63
2, 21442, Note_off_c, 0, 72, 64
2, 21465, Note_off_c, 0, 46, 64
2, 21468, Control_c, 0, 64, 0
2, 21507, Note_off_c, 0, 74, 64
2, 21533, Note_on_c, 0, 72, 59
2, 21533, Note_on_c, 0, 57, 35
2, 21539, Note_on_c, 0, 45, 35
2, 21547, Control_c, 0, 67, 127
2, 21696, Note_off_c, 0, 72, 64
2, 21699, Note_off_c, 0, 65, 64
2, 21720, Control_c, 0, 64, 127
2, 21745, Note_off_c, 0, 57, 64
2, 21752, Note_off_c, 0, 45, 64
2, 21820, Control_c, 0, 64, 0
2, 21908, Note_on_c, 0, 65, 48
2, 22061, Control_c, 0, 64, 127
2, 22225, Note_on_c, 0, 64, 48
2, 22228, Note_on_c, 0, 59, 35
2, 22238, Note_on_c, 0, 50, 35
2, 22259, Control_c, 0, 64, 0
2, 22260, Note_off_c, 0, 65, 64
2, 22353, Control_c, 0, 64, 127
2, 22525, Note_on_c, 0, 65, 59
2, 22578, Note_off_c, 0, 64, 64
2, 22661, Note_off_c, 0, 59, 64
2, 22721, Note_off_c, 0, 65, 64
2, 22903, Control_c, 0, 64, 0
2, 22905, Note_on_c, 0, 69, 57
2, 22919, Note_on_c, 0, 48, 35
2, 22919, Note_on_c, 0, 60, 36
2, 22925, Note_on_c, 0, 65, 35
2, 22992, Note_off_c, 0, 50, 64
2, 23245, Control_c, 0, 64, 127
2, 23255, Note_off_c, 0, 65, 64
2, 23360, Note_off_c, 0, 69, 64
2, 23640, Control_c, 0, 64, 0
2, 23645, Note_on_c, 0, 67, 36
2, 23652, Note_on_c, 0, 64, 35
2, 23902, Note_off_c, 0, 60, 64
2, 23903, Control_c, 0, 64, 127
2, 23942, Note_off_c, 0, 64, 64
2, 23952, Note_off_c, 0, 48, 64
2, 23953, Note_off_c, 0, 67, 64
2, 24004, Control_c, 0, 64, 0
2, 24025, Note_on_c, 0, 67, 57
2, 24097, Control_c, 0, 64, 127
2, 24184, Note_off_c, 0, 67, 64
2, 24315, Control_c, 0, 64, 0
2, 24328, Note_on_c, 0, 67, 66
2, 24332, Note_on_c, 0, 64, 48
2, 24338, Note_on_c, 0, 60, 42
2, 24432, Control_c, 0, 64, 127
2, 24480, Note_off_c, 0, 67, 64
2, 24552, Control_c, 0, 67, 0
2, 24607, Note_on_c, 0, 67, 68
2, 24611, Note_off_c, 0, 64, 64
2, 24713, Note_off_c, 0, 67, 64
2, 24713, Note_off_c, 0, 60, 64
2, 24880, Note_on_c, 0, 67, 64
2, 24900, Control_c, 0, 64, 0
2, 24924, Note_on_c, 0, 65, 41
2, 24924, Note_on_c, 0, 79, 75
2, 24928, Note_on_c, 0, 62, 35
2, 24928, Note_on_c, 0, 59, 35
2, 25087, Note_off_c, 0, 67, 64
2, 25129, Control_c, 0, 67, 127
2, 25157, Control_c, 0, 64, 127
2, 25505, Note_on_c, 0, 74, 48
2, 25540, Control_c, 0, 64, 0
2, 25550, Note_off_c, 0, 79, 64
2, 25564, Note_on_c, 0, 71, 50
2, 25584, Note_off_c, 0, 74, 64
2, 25612, Note_off_c, 0, 71, 64
2, 25629, Note_on_c, 0, 67, 50
2, 25804, Note_off_c, 0, 67, 64
2, 25807, Control_c, 0, 64, 127
2, 25918, Note_on_c, 0, 67, 53
2, 26059, Note_off_c, 0, 67, 64
2, 26116, Note_off_c, 0, 65, 64
2, 26144, Note_off_c, 0, 62, 64
2, 26191, Note_on_c, 0, 67, 70
2, 26196, Control_c, 0, 64, 0
2, 26204, Note_off_c, 0, 59, 64
2, 26208, Note_on_c, 0, 60, 50
2, 26213, Note_on_c, 0, 64, 52
2, 26320, Control_c, 0, 64, 127
2, 26359, Note_off_c, 0, 67, 64
2, 26362, Note_off_c, 0, 64, 64
2, 26379, Note_off_c, 0, 60, 64
2, 26435, Control_c, 0, 67, 0
2, 26483, Note_on_c, 0, 67, 75
2, 26563, Note_off_c, 0, 67, 64
2, 26736, Note_on_c, 0, 67, 75
2, 26794, Note_on_c, 0, 79, 83
2, 26802, Note_on_c, 0, 50, 35
2, 26804, Note_on_c, 0, 59, 41
2, 26804, Note_on_c, 0, 53, 46
2, 26825, Control_c, 0, 64, 0
2, 26844, Note_off_c, 0, 67, 64
2, 27016, Control_c, 0, 64, 127
2, 27177, Note_off_c, 0, 53, 64
2, 27197, Note_off_c, 0, 59, 64
2, 27411, Note_on_c, 0, 60, 41
2, 27414, Note_on_c, 0, 52, 42
2, 27415, Note_on_c, 0, 55, 38
2, 27415, Control_c, 0, 64, 0
2, 27521, Note_off_c, 0, 50, 64
2, 27524, Note_off_c, 0, 79, 64
2, 27569, Note_on_c, 0, 81, 64
2, 27623, Note_on_c, 0, 83, 77
2, 27624, Note_off_c, 0, 81, 64
2, 27657, Note_off_c, 0, 83, 64
2, 27715, Note_on_c, 0, 84, 67
2, 27718, Control_c, 0, 67, 127
2, 27743, Note_off_c, 0, 84, 64
2, 27780, Note_off_c, 0, 52, 64
2, 27786, Note_off_c, 0, 60, 64
2, 27787, Note_off_c, 0, 55, 64
2, 27854, Note_on_c, 0, 83, 55
2, 27886, Note_off_c, 0, 83, 64
2, 27997, Note_on_c, 0, 81, 41
2, 28023, Note_off_c, 0, 81, 64
2, 28135, Note_on_c, 0, 79, 54
2, 28176, Note_off_c, 0, 79, 64
2, 28279, Note_on_c, 0, 77, 49
2, 28320, Note_off_c, 0, 77, 64
2, 28423, Note_on_c, 0, 76, 55
2, 28447, Note_off_c, 0, 76, 64
2, 28576, Note_on_c, 0, 73, 49
2, 28720, Note_on_c, 0, 74, 56
2, 28754, Note_off_c, 0, 73, 64
2, 28856, Note_on_c, 0, 77, 55
2, 28868, Note_on_c, 0, 62, 35
2, 28868, Note_on_c, 0, 57, 35
2, 28870, Note_on_c, 0, 53, 35
2, 28939, Control_c, 0, 64, 127
2, 29012, Note_on_c, 0, 81, 62
2, 29014, Note_off_c, 0, 53, 64
2, 29015, Note_off_c, 0, 74, 64
2, 29022, Note_off_c, 0, 57, 64
2, 29064, Note_off_c, 0, 62, 64
2, 29196, Control_c, 0, 64, 0
2, 29207, Note_off_c, 0, 77, 64
2, 29207, Note_on_c, 0, 72, 59
2, 29213, Note_on_c, 0, 64, 39
2, 29219, Note_on_c, 0, 55, 35
2, 29220, Note_on_c, 0, 60, 37
2, 29264, Note_off_c, 0, 81, 64
2, 29496, Control_c, 0, 64, 127
2, 29595, Note_off_c, 0, 64, 64
2, 29815, Note_off_c, 0, 60, 64
2, 29873, Note_on_c, 0, 65, 35
2, 29875, Note_on_c, 0, 62, 35
2, 29888, Control_c, 0, 64, 0
2, 30092, Control_c, 0, 64, 127
2, 30157, Note_off_c, 0, 72, 64
2, 30197, Note_on_c, 0, 76, 55
2, 30209, Note_on_c, 0, 71, 40
2, 30323, Note_off_c, 0, 65, 64
2, 30328, Note_off_c, 0, 62, 64
2, 30364, Note_on_c, 0, 74, 57
2, 30423, Note_off_c, 0, 76, 64
2, 30433, Note_off_c, 0, 71, 64
2, 30446, Note_off_c, 0, 74, 64
2, 30540, Control_c, 0, 64, 0
2, 30560, Note_on_c, 0, 72, 40
2, 30575, Note_on_c, 0, 64, 35
2, 30578, Note_on_c, 0, 60, 35
2, 30666, Note_off_c, 0, 55, 64
2, 30780, Control_c, 0, 64, 127
2, 30836, Note_off_c, 0, 64, 64
2, 30840, Note_off_c, 0, 60, 64
2, 31161, Note_off_c, 0, 72, 64
2, 31251, Note_on_c, 0, 48, 35
2, 31297, Control_c, 0, 64, 0
2, 31682, Note_on_c, 0, 72, 54
2, 31688, Note_off_c, 0, 48, 64
2, 31846, Control_c, 0, 64, 127
2, 31882, Note_off_c, 0, 72, 64
2, 31992, Control_c, 0, 64, 0
2, 32002, Note_on_c, 0, 74, 66
2, 32125, Note_on_c, 0, 72, 57
2, 32166, Note_off_c, 0, 74, 64
2, 32216, Note_off_c, 0, 72, 64
2, 32314, Note_on_c, 0, 70, 67
2, 32436, Note_on_c, 0, 69, 60
2, 32457, Note_off_c, 0, 70, 64
2, 32559, Control_c, 0, 64, 127
2, 32565, Note_off_c, 0, 69, 64
2, 32676, Control_c, 0, 64, 0
2, 32690, Note_on_c, 0, 67, 59
2, 32700, Note_on_c, 0, 63, 38
2, 32706, Note_on_c, 0, 60, 39
2, 33034, Control_c, 0, 64, 127
2, 33318, Control_c, 0, 64, 0
2, 33376, Note_on_c, 0, 66, 35
2, 33420, Note_off_c, 0, 67, 64
2, 33505, Note_off_c, 0, 60, 64
2, 33509, Note_off_c, 0, 63, 64
2, 33523, Control_c, 0, 64, 127
2, 33598, Note_off_c, 0, 66, 64
2, 33704, Note_on_c, 0, 66, 51
2, 33708, Note_on_c, 0, 63, 39
2, 33729, Note_on_c, 0, 60, 35
2, 33921, Note_off_c, 0, 63, 64
2, 33995, Note_on_c, 0, 67, 64
2, 33998, Note_on_c, 0, 62, 44
2, 34004, Note_off_c, 0, 60, 64
2, 34014, Note_on_c, 0, 58, 53
2, 34045, Note_off_c, 0, 66, 64
2, 34197, Note_off_c, 0, 67, 64
2, 34214, Control_c, 0, 64, 0
2, 34245, Note_off_c, 0, 62, 64
2, 34278, Note_on_c, 0, 69, 71
2, 34282, Note_on_c, 0, 62, 50
2, 34285, Note_on_c, 0, 66, 61
2, 34296, Note_on_c, 0, 57, 45
2, 34298, Note_off_c, 0, 58, 64
2, 34299, Note_on_c, 0, 60, 47
2, 34371, Note_off_c, 0, 66, 64
2, 34424, Control_c, 0, 64, 127
2, 34428, Note_off_c, 0, 69, 64
2, 34509, Note_off_c, 0, 60, 64
2, 34530, Note_off_c, 0, 62, 64
2, 34620, Control_c, 0, 64, 0
2, 34627, Note_on_c, 0, 69, 71
2, 34648, Note_on_c, 0, 62, 35
2, 34648, Note_on_c, 0, 66, 53
2, 34653, Note_on_c, 0, 55, 36
2, 34655, Note_on_c, 0, 60, 35
2, 34696, Note_off_c, 0, 57, 64
2, 34988, Control_c, 0, 64, 127
2, 35051, Note_off_c, 0, 66, 64
2, 35245, Note_off_c, 0, 69, 64
2, 35346, Note_on_c, 0, 70, 45
2, 35353, Note_off_c, 0, 60, 64
2, 35356, Note_on_c, 0, 58, 35
2, 35360, Note_on_c, 0, 67, 38
2, 35360, Control_c, 0, 64, 0
2, 35511, Control_c, 0, 64, 127
2, 35530, Note_off_c, 0, 62, 64
2, 35542, Note_off_c, 0, 55, 64
2, 35559, Note_off_c, 0, 58, 64
2, 35619, Note_off_c, 0, 70, 64
2, 35630, Note_off_c, 0, 67, 64
2, 35708, Control_c, 0, 64, 0
2, 35722, Note_on_c, 0, 64, 46
2, 35725, Note_on_c, 0, 61, 42
2, 35728, Note_on_c, 0, 58, 35
2, 35818, Control_c, 0, 64, 127
2, 35882, Note_off_c, 0, 61, 64
2, 36006, Note_off_c, 0, 58, 64
2, 36009, Control_c, 0, 64, 0
2, 36025, Note_on_c, 0, 65, 58
2, 36025, Note_on_c, 0, 60, 35
2, 36032, Note_on_c, 0, 57, 39
2, 36096, Note_off_c, 0, 64, 64
2, 36097, Control_c, 0, 64, 127
2, 36133, Note_off_c, 0, 65, 64
2, 36164, Note_off_c, 0, 57, 64
2, 36179, Note_off_c, 0, 60, 64
2, 36279, Control_c, 0, 64, 0
2, 36307, Note_on_c, 0, 67, 74
2, 36317, Note_on_c, 0, 60, 40
2, 36320, Note_on_c, 0, 58, 46
2, 36320, Note_on_c, 0, 55, 41
2, 36320, Note_on_c, 0, 64, 51
2, 36357, Note_off_c, 0, 64, 64
2, 36384, Control_c, 0, 64, 127
2, 36388, Note_off_c, 0, 67, 64
2, 36397, Note_off_c, 0, 55, 64
2, 36411, Note_off_c, 0, 58, 64
2, 36591, Note_off_c, 0, 60, 64
2, 36591, Note_on_c, 0, 60, 35
2, 36591, Note_on_c, 0, 69, 74
2, 36592, Control_c, 0, 64, 0
2, 36595, Note_on_c, 0, 65, 64
2, 36599, Note_on_c, 0, 57, 48
2, 36609, Note_on_c, 0, 53, 35
2, 36732, Control_c, 0, 64, 127
2, 36745, Control_c, 0, 67, 0
2, 36874, Note_on_c, 0, 70, 76
2, 36880, Note_off_c, 0, 57, 64
2, 36883, Control_c, 0, 64, 0
2, 36889, Note_on_c, 0, 50, 49
2, 36900, Note_off_c, 0, 53, 64
2, 36959, Note_off_c, 0, 69, 64
2, 36960, Note_off_c, 0, 60, 64
2, 36967, Control_c, 0, 64, 127
2, 37178, Note_on_c, 0, 72, 75
2, 37178, Control_c, 0, 64, 0
2, 37186, Note_on_c, 0, 45, 51
2, 37193, Note_off_c, 0, 50, 64
2, 37214, Note_off_c, 0, 70, 64
2, 37367, Control_c, 0, 64, 127
2, 37480, Note_on_c, 0, 73, 77
2, 37556, Note_off_c, 0, 72, 64
2, 37833, Note_on_c, 0, 46, 43
2, 37833, Note_on_c, 0, 76, 66
2, 37856, Control_c, 0, 64, 0
2, 37858, Note_off_c, 0, 73, 64
2, 37864, Note_off_c, 0, 45, 64
2, 37933, Note_on_c, 0, 74, 71
2, 37963, Note_off_c, 0, 76, 64
2, 37992, Note_off_c, 0, 74, 64
2, 38007, Control_c, 0, 67, 127
2, 38011, Control_c, 0, 64, 127
2, 38064, Note_off_c, 0, 65, 64
2, 38123, Control_c, 0, 64, 0
2, 38162, Note_on_c, 0, 72, 51
2, 38171, Note_on_c, 0, 43, 37
2, 38172, Note_on_c, 0, 67, 42
2, 38220, Note_off_c, 0, 46, 64
2, 38250, Note_off_c, 0, 72, 64
2, 38257, Note_on_c, 0, 70, 55
2, 38353, Note_off_c, 0, 70, 64
2, 38436, Note_off_c, 0, 67, 64
2, 38532, Note_on_c, 0, 69, 47
2, 38535, Note_on_c, 0, 65, 38
2, 38543, Note_on_c, 0, 48, 35
2, 38638, Note_off_c, 0, 43, 64
2, 38870, Control_c, 0, 64, 127
2, 39111, Note_off_c, 0, 65, 64
2, 39259, Note_on_c, 0, 67, 37
2, 39264, Note_on_c, 0, 64, 39
2, 39305, Control_c, 0, 64, 0
2, 39325, Note_off_c, 0, 69, 64
2, 39452, Control_c, 0, 64, 127
2, 39465, Note_off_c, 0, 64, 64
2, 39489, Note_off_c, 0, 67, 64
2, 39678, Note_off_c, 0, 48, 64
2, 39700, Control_c, 0, 64, 0
2, 39708, Note_on_c, 0, 72, 50
2, 39852, Note_off_c, 0, 72, 64
2, 39852, Control_c, 0, 64, 127
2, 40024, Note_on_c, 0, 72, 74
2, 40113, Note_off_c, 0, 72, 64
2, 40278, Control_c, 0, 64, 0
2, 40311, Note_on_c, 0, 72, 84
2, 40327, Control_c, 0, 64, 127
2, 40365, Control_c, 0, 67, 0
2, 40380, Note_off_c, 0, 72, 64
2, 40671, Note_on_c, 0, 72, 75
2, 40671, Note_on_c, 0, 82, 86
2, 40677, Note_on_c, 0, 36, 60
2, 40680, Note_on_c, 0, 48, 60
2, 40703, Control_c, 0, 64, 0
2, 40863, Control_c, 0, 64, 127
2, 40997, Note_off_c, 0, 36, 64
2, 41045, Note_off_c, 0, 48, 64
2, 41171, Note_on_c, 0, 50, 71
2, 41173, Note_on_c, 0, 38, 70
2, 41229, Note_off_c, 0, 38, 64
2, 41236, Note_off_c, 0, 50, 64
2, 41313, Note_on_c, 0, 52, 74
2, 41317, Note_on_c, 0, 40, 58
2, 41330, Control_c, 0, 64, 0
2, 41429, Control_c, 0, 64, 127
2, 41438, Note_off_c, 0, 40, 64
2, 41447, Note_off_c, 0, 52, 64
2, 41509, Note_off_c, 0, 82, 64
2, 41580, Control_c, 0, 64, 0
2, 41610, Note_on_c, 0, 81, 79
2, 41616, Note_on_c, 0, 53, 64
2, 41619, Note_on_c, 0, 41, 61
2, 41697, Note_off_c, 0, 41, 64
2, 41705, Control_c, 0, 64, 127
2, 41711, Note_off_c, 0, 53, 64
2, 41845, Control_c, 0, 64, 0
2, 41897, Note_on_c, 0, 79, 79
2, 41905, Note_on_c, 0, 55, 68
2, 41905, Note_on_c, 0, 43, 65
2, 41916, Note_off_c, 0, 81, 64
2, 41974, Note_off_c, 0, 43, 64
2, 41975, Control_c, 0, 64, 127
2, 41983, Note_off_c, 0, 55, 64
2, 42175, Note_off_c, 0, 79, 64
2, 42192, Control_c, 0, 64, 0
2, 42210, Note_on_c, 0, 77, 80
2, 42213, Note_on_c, 0, 69, 63
2, 42218, Note_on_c, 0, 57, 64
2, 42219, Note_on_c, 0, 45, 65
2, 42302, Control_c, 0, 64, 127
2, 42311, Note_off_c, 0, 45, 64
2, 42316, Note_off_c, 0, 57, 64
2, 42459, Note_off_c, 0, 77, 64
2, 42502, Note_off_c, 0, 69, 64
2, 42615, Note_on_c, 0, 77, 84
2, 42620, Note_on_c, 0, 67, 67
2, 42625, Note_on_c, 0, 46, 57
2, 42630, Note_on_c, 0, 58, 56
2, 42632, Control_c, 0, 64, 0
2, 42990, Control_c, 0, 64, 127
2, 43360, Note_on_c, 0, 76, 55
2, 43379, Control_c, 0, 64, 0
2, 43453, Note_off_c, 0, 77, 64
2, 43522, Control_c, 0, 64, 127
2, 43619, Note_off_c, 0, 72, 64
2, 43634, Control_c, 0, 67, 127
2, 43639, Note_off_c, 0, 67, 64
2, 43657, Note_off_c, 0, 76, 64
2, 43800, Note_off_c, 0, 58, 64
2, 43816, Control_c, 0, 64, 0
2, 43846, Note_on_c, 0, 75, 40
2, 43883, Note_off_c, 0, 46, 64
2, 44096, Control_c, 0, 64, 127
2, 44105, Note_off_c, 0, 75, 64
2, 44188, Note_on_c, 0, 75, 52
2, 44394, Note_off_c, 0, 75, 64
2, 44508, Note_on_c, 0, 75, 59
2, 44701, Note_off_c, 0, 75, 64
2, 44820, Note_on_c, 0, 65, 35
2, 44831, Note_on_c, 0, 57, 35
2, 44836, Note_on_c, 0, 60, 35
2, 44866, Note_on_c, 0, 75, 56
2, 44886, Note_off_c, 0, 75, 64
2, 44906, Note_on_c, 0, 77, 56
2, 44926, Note_off_c, 0, 77, 64
2, 44940, Note_on_c, 0, 75, 56
2, 44963, Note_off_c, 0, 75, 64
2, 44983, Note_on_c, 0, 77, 56
2, 45004, Note_on_c, 0, 75, 56
2, 45005, Note_off_c, 0, 77, 64
2, 45024, Note_off_c, 0, 75, 64
2, 45034, Note_on_c, 0, 77, 56
2, 45055, Note_off_c, 0, 77, 64
2, 45056, Note_on_c, 0, 75, 57
2, 45086, Control_c, 0, 64, 0
2, 45090, Note_on_c, 0, 77, 35
2, 45117, Note_off_c, 0, 77, 64
2, 45319, Note_on_c, 0, 77, 64
2, 45332, Control_c, 0, 64, 127
2, 45434, Note_off_c, 0, 65, 64
2, 45434, Note_off_c, 0, 60, 64
2, 45442, Note_off_c, 0, 57, 64
2, 45513, Control_c, 0, 64, 0
2, 45528, Note_off_c, 0, 75, 64
2, 45528, Note_on_c, 0, 79, 67
2, 45551, Note_on_c, 0, 65, 35
2, 45553, Note_on_c, 0, 60, 35
2, 45555, Note_on_c, 0, 57, 35
2, 45605, Note_off_c, 0, 77, 64
2, 45847, Control_c, 0, 64, 127
2, 45941, Note_on_c, 0, 77, 49
2, 46003, Note_off_c, 0, 79, 64
2, 46104, Note_on_c, 0, 75, 62
2, 46115, Note_off_c, 0, 60, 64
2, 46116, Note_off_c, 0, 57, 64
2, 46137, Note_off_c, 0, 65, 64
2, 46171, Note_off_c, 0, 77, 64
2, 46182, Note_off_c, 0, 75, 64
2, 46248, Control_c, 0, 64, 0
2, 46258, Note_on_c, 0, 75, 60
2, 46271, Note_on_c, 0, 57, 35
2, 46271, Note_on_c, 0, 65, 35
2, 46277, Note_on_c, 0, 63, 35
2, 46413, Note_on_c, 0, 74, 67
2, 46450, Control_c, 0, 64, 127
2, 46474, Note_off_c, 0, 75, 64
2, 46482, Note_off_c, 0, 74, 64
2, 46554, Control_c, 0, 64, 0
2, 46570, Note_on_c, 0, 74, 68
2, 46602, Control_c, 0, 64, 127
2, 46728, Note_on_c, 0, 73, 69
2, 46766, Note_off_c, 0, 74, 64
2, 46781, Note_off_c, 0, 65, 64
2, 46784, Note_off_c, 0, 63, 64
2, 46857, Note_off_c, 0, 73, 64
2, 46960, Control_c, 0, 64, 0
2, 46972, Note_on_c, 0, 73, 65
2, 46992, Note_on_c, 0, 65, 35
2, 46994, Note_on_c, 0, 62, 35
2, 47000, Note_on_c, 0, 58, 35
2, 47086, Note_off_c, 0, 57, 64
2, 47368, Control_c, 0, 64, 127
2, 47723, Control_c, 0, 64, 0
2, 47727, Note_on_c, 0, 74, 35
2, 47777, Note_off_c, 0, 73, 64
2, 47998, Control_c, 0, 64, 127
2, 48180, Note_off_c, 0, 74, 64
2, 48204, Note_on_c, 0, 77, 35
2, 48367, Note_on_c, 0, 76, 52
2, 48380, Note_off_c, 0, 77, 64
2, 48415, Control_c, 0, 64, 0
2, 48427, Note_off_c, 0, 62, 64
2, 48453, Note_off_c, 0, 65, 64
2, 48460, Note_off_c, 0, 58, 64
2, 48516, Note_on_c, 0, 79, 55
2, 48543, Note_off_c, 0, 76, 64
2, 48673, Note_on_c, 0, 77, 55
2, 48704, Note_off_c, 0, 79, 64
2, 48813, Note_on_c, 0, 76, 58
2, 48863, Note_off_c, 0, 77, 64
2, 48953, Control_c, 0, 64, 127
2, 48967, Note_on_c, 0, 74, 60
2, 48989, Note_off_c, 0, 76, 64
2, 49128, Note_off_c, 0, 74, 64
2, 49178, Control_c, 0, 64, 0
2, 49200, Note_on_c, 0, 74, 61
2, 49218, Note_on_c, 0, 53, 35
2, 49222, Note_on_c, 0, 58, 35
2, 49224, Note_on_c, 0, 62, 35
2, 49548, Control_c, 0, 64, 127
2, 49553, Note_off_c, 0, 62, 64
2, 49910, Control_c, 0, 64, 0
2, 49932, Note_on_c, 0, 72, 36
2, 49944, Note_on_c, 0, 57, 35
2, 49946, Note_on_c, 0, 60, 35
2, 49972, Note_off_c, 0, 74, 64
2, 49985, Note_off_c, 0, 58, 64
2, 50232, Note_off_c, 0, 72, 64
2, 50244, Note_on_c, 0, 77, 62
2, 50368, Note_off_c, 0, 53, 64
2, 50373, Note_off_c, 0, 60, 64
2, 50382, Control_c, 0, 64, 127
2, 50496, Note_on_c, 0, 72, 64
2, 50517, Control_c, 0, 64, 0
2, 50521, Note_off_c, 0, 57, 64
2, 50544, Note_on_c, 0, 81, 69
2, 50559, Note_off_c, 0, 77, 64
2, 50569, Note_off_c, 0, 72, 64
2, 50690, Control_c, 0, 64, 127
2, 50756, Note_off_c, 0, 81, 64
2, 50772, Note_on_c, 0, 77, 73
2, 50772, Control_c, 0, 64, 0
2, 50829, Note_on_c, 0, 72, 74
2, 50849, Note_off_c, 0, 77, 64
2, 50947, Control_c, 0, 64, 127
2, 51060, Note_off_c, 0, 72, 64
2, 51073, Note_on_c, 0, 69, 72
2, 51126, Control_c, 0, 64, 0
2, 51136, Note_on_c, 0, 60, 49
2, 51136, Note_on_c, 0, 72, 71
2, 51138, Note_on_c, 0, 55, 44
2, 51138, Note_on_c, 0, 52, 45
2, 51156, Note_off_c, 0, 69, 64
2, 51460, Control_c, 0, 64, 127
2, 51476, Control_c, 0, 67, 0
2, 51573, Control_c, 0, 67, 127
2, 51645, Note_on_c, 0, 71, 51
2, 51712, Note_off_c, 0, 72, 64
2, 51809, Control_c, 0, 64, 0
2, 51846, Note_on_c, 0, 70, 40
2, 51850, Note_off_c, 0, 71, 64
2, 51944, Control_c, 0, 64, 127
2, 51982, Note_off_c, 0, 70, 64
2, 52009, Note_off_c, 0, 60, 64
2, 52030, Note_off_c, 0, 55, 64
2, 52035, Note_off_c, 0, 52, 64
2, 52185, Control_c, 0, 64, 0
2, 52190, Note_on_c, 0, 67, 66
2, 52190, Note_on_c, 0, 64, 59
2, 52201, Note_on_c, 0, 58, 41
2, 52203, Note_on_c, 0, 46, 36
2, 52286, Control_c, 0, 64, 127
2, 52410, Note_off_c, 0, 58, 64
2, 52420, Note_off_c, 0, 67, 64
2, 52425, Note_off_c, 0, 64, 64
2, 52430, Note_on_c, 0, 60, 78
2, 52469, Control_c, 0, 64, 0
2, 52479, Note_on_c, 0, 69, 77
2, 52483, Note_off_c, 0, 46, 64
2, 52485, Note_on_c, 0, 57, 61
2, 52491, Note_on_c, 0, 65, 66
2, 52493, Note_off_c, 0, 60, 64
2, 52493, Note_on_c, 0, 45, 48
2, 52590, Control_c, 0, 64, 127
2, 52656, Note_off_c, 0, 57, 64
2, 52674, Note_off_c, 0, 45, 64
2, 52681, Note_off_c, 0, 65, 64
2, 52692, Note_off_c, 0, 69, 64
2, 52704, Note_on_c, 0, 60, 75
2, 52752, Control_c, 0, 64, 0
2, 52763, Note_on_c, 0, 70, 85
2, 52770, Note_on_c, 0, 67, 66
2, 52772, Note_on_c, 0, 55, 56
2, 52775, Note_on_c, 0, 43, 56
2, 52792, Note_off_c, 0, 60, 64
2, 52871, Control_c, 0, 64, 127
2, 52930, Note_off_c, 0, 55, 64
2, 52966, Note_on_c, 0, 60, 69
2, 52975, Note_off_c, 0, 67, 64
2, 52981, Note_off_c, 0, 70, 64
2, 53002, Control_c, 0, 64, 0
2, 53019, Note_off_c, 0, 60, 64
2, 53021, Note_off_c, 0, 43, 64
2, 53031, Note_on_c, 0, 69, 67
2, 53037, Note_on_c, 0, 72, 82
2, 53037, Note_on_c, 0, 53, 50
2, 53039, Note_on_c, 0, 41, 48
2, 53069, Note_off_c, 0, 69, 64
2, 53087, Note_off_c, 0, 72, 64
2, 53203, Note_on_c, 0, 74, 75
2, 53248, Note_off_c, 0, 41, 64
2, 53256, Note_off_c, 0, 74, 64
2, 53260, Note_off_c, 0, 53, 64
2, 53359, Note_on_c, 0, 76, 75
2, 53401, Note_off_c, 0, 76, 64
2, 53522, Note_on_c, 0, 77, 66
2, 53568, Note_off_c, 0, 77, 64
2, 53801, Note_on_c, 0, 65, 41
2, 53808, Note_on_c, 0, 60, 35
2, 53819, Note_on_c, 0, 48, 35
2, 53822, Note_on_c, 0, 57, 35
2, 54008, Control_c, 0, 64, 127
2, 54124, Note_off_c, 0, 57, 64
2, 54496, Note_on_c, 0, 58, 35
2, 54502, Control_c, 0, 64, 0
2, 54633, Control_c, 0, 64, 127
2, 54727, Note_off_c, 0, 60, 64
2, 54872, Note_off_c, 0, 65, 64
2, 54878, Note_on_c, 0, 69, 41
2, 54887, Note_on_c, 0, 64, 35
2, 54944, Note_off_c, 0, 58, 64
2, 55060, Note_on_c, 0, 67, 44
2, 55261, Note_off_c, 0, 69, 64
2, 55268, Note_on_c, 0, 65, 40
2, 55284, Control_c, 0, 64, 0
2, 55290, Note_on_c, 0, 53, 35
2, 55292, Note_on_c, 0, 57, 35
2, 55307, Note_off_c, 0, 64, 64
2, 55352, Note_off_c, 0, 67, 64
2, 55440, Note_off_c, 0, 48, 64
2, 55493, Control_c, 0, 64, 127
2, 55506, Note_off_c, 0, 57, 64
2, 56046, Note_on_c, 0, 41, 35
2, 56145, Note_off_c, 0, 53, 64
2, 56182, Note_off_c, 0, 65, 64
2, 56462, Note_on_c, 0, 72, 39
2, 56479, Control_c, 0, 64, 0
2, 56644, Note_off_c, 0, 41, 64
2, 56651, Control_c, 0, 64, 127
2, 56679, Note_off_c, 0, 72, 64
2, 56789, Control_c, 0, 64, 0
2, 56800, Note_on_c, 0, 74, 49
2, 56898, Note_on_c, 0, 72, 60
2, 56984, Note_off_c, 0, 74, 64
2, 57003, Note_off_c, 0, 72, 64
2, 57094, Note_on_c, 0, 70, 58
2, 57187, Note_on_c, 0, 69, 59
2, 57223, Note_off_c, 0, 70, 64
2, 57283, Control_c, 0, 64, 127
2, 57321, Note_off_c, 0, 69, 64
2, 57399, Control_c, 0, 64, 0
2, 57436, Note_on_c, 0, 67, 57
2, 57452, Note_on_c, 0, 60, 36
2, 57452, Note_on_c, 0, 63, 40
2, 58073, Note_on_c, 0, 66, 42
2, 58154, Note_off_c, 0, 67, 64
2, 58192, Note_off_c, 0, 60, 64
2, 58203, Control_c, 0, 64, 127
2, 58270, Note_off_c, 0, 63, 64
2, 58274, Note_off_c, 0, 66, 64
2, 58380, Note_on_c, 0, 66, 55
2, 58393, Note_on_c, 0, 60, 37
2, 58393, Note_on_c, 0, 63, 37
2, 58572, Note_off_c, 0, 63, 64
2, 58642, Control_c, 0, 64, 0
2, 58668, Note_on_c, 0, 67, 61
2, 58672, Note_on_c, 0, 62, 47
2, 58675, Note_off_c, 0, 60, 64
2, 58685, Note_on_c, 0, 58, 42
2, 58703, Note_off_c, 0, 66, 64
2, 58747, Note_off_c, 0, 67, 64
2, 58752, Control_c, 0, 64, 127
2, 58896, Control_c, 0, 64, 0
2, 58902, Note_off_c, 0, 62, 64
2, 58932, Note_off_c, 0, 58, 64
2, 58951, Note_on_c, 0, 69, 72
2, 58956, Note_on_c, 0, 62, 45
2, 58961, Note_on_c, 0, 57, 42
2, 58961, Note_on_c, 0, 66, 56
2, 58971, Note_on_c, 0, 60, 46
2, 59038, Note_off_c, 0, 66, 64
2, 59042, Note_off_c, 0, 69, 64
2, 59082, Control_c, 0, 64, 127
2, 59180, Note_off_c, 0, 60, 64
2, 59189, Note_off_c, 0, 62, 64
2, 59299, Note_on_c, 0, 69, 77
2, 59314, Note_on_c, 0, 66, 55
2, 59320, Control_c, 0, 64, 0
2, 59322, Note_on_c, 0, 60, 36
2, 59322, Note_on_c, 0, 62, 36
2, 59332, Note_on_c, 0, 55, 38
2, 59350, Note_off_c, 0, 66, 64
2, 59351, Note_on_c, 0, 66, 35
2, 59392, Note_off_c, 0, 57, 64
2, 59588, Control_c, 0, 64, 127
2, 59631, Note_off_c, 0, 60, 64
2, 59809, Note_off_c, 0, 66, 64
2, 59988, Control_c, 0, 64, 0
2, 59992, Note_off_c, 0, 69, 64
2, 59993, Note_on_c, 0, 70, 44
2, 59998, Note_on_c, 0, 58, 35
2, 60007, Note_on_c, 0, 67, 35
2, 60086, Note_off_c, 0, 62, 64
2, 60137, Control_c, 0, 64, 127
2, 60157, Note_off_c, 0, 55, 64
2, 60208, Note_off_c, 0, 58, 64
2, 60218, Note_off_c, 0, 67, 64
2, 60222, Note_off_c, 0, 70, 64
2, 60336, Control_c, 0, 64, 0
2, 60354, Note_on_c, 0, 64, 45
2, 60361, Note_on_c, 0, 61, 35
2, 60369, Note_on_c, 0, 58, 35
2, 60454, Control_c, 0, 64, 127
2, 60580, Note_off_c, 0, 61, 64
2, 60655, Note_on_c, 0, 65, 61
2, 60673, Note_on_c, 0, 60, 42
2, 60680, Note_on_c, 0, 57, 39
2, 60680, Control_c, 0, 64, 0
2, 60707, Note_off_c, 0, 58, 64
2, 60772, Control_c, 0, 64, 127
2, 60827, Note_off_c, 0, 64, 64
2, 60890, Note_off_c, 0, 57, 64
2, 60894, Note_off_c, 0, 60, 64
2, 60945, Note_on_c, 0, 67, 71
2, 60958, Control_c, 0, 64, 0
2, 60961, Note_on_c, 0, 64, 45
2, 60968, Note_on_c, 0, 60, 37
2, 60975, Note_off_c, 0, 65, 64
2, 60976, Note_on_c, 0, 55, 35
2, 60978, Note_on_c, 0, 58, 39
2, 61033, Control_c, 0, 64, 127
2, 61088, Note_off_c, 0, 67, 64
2, 61119, Note_off_c, 0, 55, 64
2, 61129, Note_off_c, 0, 58, 64
2, 61134, Note_off_c, 0, 64, 64
2, 61222, Note_off_c, 0, 60, 64
2, 61222, Note_on_c, 0, 60, 35
2, 61224, Note_on_c, 0, 69, 74
2, 61234, Note_on_c, 0, 65, 60
2, 61234, Control_c, 0, 64, 0
2, 61242, Note_on_c, 0, 53, 40
2, 61243, Note_on_c, 0, 57, 39
2, 61335, Control_c, 0, 64, 127
2, 61416, Control_c, 0, 67, 0
2, 61456, Note_off_c, 0, 57, 64
2, 61497, Note_on_c, 0, 70, 76
2, 61510, Note_off_c, 0, 53, 64
2, 61517, Note_on_c, 0, 50, 43
2, 61524, Control_c, 0, 64, 0
2, 61562, Note_off_c, 0, 60, 64
2, 61565, Note_off_c, 0, 69, 64
2, 61582, Control_c, 0, 64, 127
2, 61794, Note_on_c, 0, 72, 74
2, 61800, Note_on_c, 0, 45, 46
2, 61804, Control_c, 0, 64, 0
2, 61839, Note_off_c, 0, 50, 64
2, 61846, Note_off_c, 0, 70, 64
2, 61943, Control_c, 0, 64, 127
2, 62076, Note_on_c, 0, 73, 76
2, 62140, Note_off_c, 0, 72, 64
2, 62403, Note_on_c, 0, 76, 68
2, 62410, Note_on_c, 0, 46, 46
2, 62423, Control_c, 0, 64, 0
2, 62434, Note_off_c, 0, 73, 64
2, 62458, Note_off_c, 0, 45, 64
2, 62510, Note_on_c, 0, 74, 71
2, 62547, Note_off_c, 0, 76, 64
2, 62547, Control_c, 0, 64, 127
2, 62556, Note_off_c, 0, 65, 64
2, 62563, Note_off_c, 0, 74, 64
2, 62670, Control_c, 0, 67, 127
2, 62731, Control_c, 0, 64, 0
2, 62736, Note_on_c, 0, 72, 56
2, 62743, Note_on_c, 0, 67, 48
2, 62745, Note_on_c, 0, 43, 44
2, 62767, Note_off_c, 0, 46, 64
2, 62826, Note_on_c, 0, 70, 57
2, 62856, Note_off_c, 0, 72, 64
2, 62954, Note_off_c, 0, 70, 64
2, 62957, Control_c, 0, 64, 127
2, 63015, Note_off_c, 0, 67, 64
2, 63125, Control_c, 0, 64, 0
2, 63128, Note_on_c, 0, 69, 48
2, 63130, Note_on_c, 0, 65, 44
2, 63135, Note_on_c, 0, 48, 35
2, 63205, Note_off_c, 0, 43, 64
2, 63548, Control_c, 0, 64, 127
2, 63631, Note_off_c, 0, 65, 64
2, 63848, Note_on_c, 0, 67, 35
2, 63860, Note_on_c, 0, 64, 35
2, 63865, Control_c, 0, 64, 0
2, 63911, Note_off_c, 0, 69, 64
2, 64057, Control_c, 0, 64, 127
2, 64080, Note_off_c, 0, 64, 64
2, 64107, Note_off_c, 0, 67, 64
2, 64283, Note_off_c, 0, 48, 64
2, 64298, Note_on_c, 0, 72, 60
2, 64316, Control_c, 0, 64, 0
2, 64455, Control_c, 0, 64, 127
2, 64500, Note_off_c, 0, 72, 64
2, 64501, Control_c, 0, 67, 0
2, 64600, Note_on_c, 0, 72, 67
2, 64791, Note_off_c, 0, 72, 64
2, 64900, Note_on_c, 0, 72, 75
2, 65053, Note_off_c, 0, 72, 64
2, 65252, Note_on_c, 0, 82, 86
2, 65254, Note_on_c, 0, 72, 77
2, 65256, Note_on_c, 0, 36, 64
2, 65256, Note_on_c, 0, 48, 67
2, 65281, Control_c, 0, 64, 0
2, 65464, Control_c, 0, 64, 127
2, 65585, Note_off_c, 0, 36, 64
2, 65622, Note_off_c, 0, 48, 64
2, 65758, Note_on_c, 0, 38, 67
2, 65760, Note_on_c, 0, 50, 68
2, 65806, Note_off_c, 0, 38, 64
2, 65821, Note_off_c, 0, 50, 64
2, 65898, Note_on_c, 0, 52, 71
2, 65898, Note_on_c, 0, 40, 60
2, 65903, Control_c, 0, 64, 0
2, 65988, Note_off_c, 0, 40, 64
2, 65997, Note_off_c, 0, 52, 64
2, 66013, Control_c, 0, 64, 127
2, 66068, Note_off_c, 0, 82, 64
2, 66165, Control_c, 0, 64, 0
2, 66177, Note_on_c, 0, 81, 81
2, 66186, Note_on_c, 0, 41, 61
2, 66189, Note_on_c, 0, 53, 63
2, 66241, Note_off_c, 0, 41, 64
2, 66252, Note_off_c, 0, 53, 64
2, 66260, Control_c, 0, 64, 127
2, 66438, Control_c, 0, 64, 0
2, 66458, Note_on_c, 0, 79, 81
2, 66472, Note_on_c, 0, 55, 68
2, 66473, Note_on_c, 0, 43, 63
2, 66478, Note_off_c, 0, 81, 64
2, 66508, Note_off_c, 0, 43, 64
2, 66515, Note_off_c, 0, 55, 64
2, 66527, Control_c, 0, 64, 127
2, 66750, Note_on_c, 0, 77, 80
2, 66756, Note_on_c, 0, 69, 72
2, 66760, Note_on_c, 0, 45, 61
2, 66763, Note_on_c, 0, 57, 63
2, 66763, Control_c, 0, 64, 0
2, 66771, Note_off_c, 0, 79, 64
2, 66836, Control_c, 0, 64, 127
2, 66840, Note_off_c, 0, 57, 64
2, 66840, Note_off_c, 0, 45, 64
2, 66925, Note_off_c, 0, 77, 64
2, 66963, Note_off_c, 0, 69, 64
2, 67151, Note_on_c, 0, 67, 67
2, 67151, Note_on_c, 0, 77, 80
2, 67158, Note_on_c, 0, 58, 53
2, 67158, Note_on_c, 0, 46, 51
2, 67179, Control_c, 0, 64, 0
2, 67594, Control_c, 0, 64, 127
2, 67898, Note_on_c, 0, 76, 58
2, 67913, Control_c, 0, 64, 0
2, 67996, Note_off_c, 0, 77, 64
2, 68037, Control_c, 0, 67, 127
2, 68103, Control_c, 0, 64, 127
2, 68161, Note_off_c, 0, 72, 64
2, 68173, Note_off_c, 0, 76, 64
2, 68187, Note_off_c, 0, 67, 64
2, 68412, Note_on_c, 0, 75, 46
2, 68414, Control_c, 0, 64, 0
2, 68491, Note_off_c, 0, 58, 64
2, 68534, Note_off_c, 0, 46, 64
2, 68608, Control_c, 0, 64, 127
2, 68643, Note_off_c, 0, 75, 64
2, 68744, Note_on_c, 0, 75, 55
2, 68952, Note_off_c, 0, 75, 64
2, 69069, Note_on_c, 0, 75, 60
2, 69297, Note_off_c, 0, 75, 64
2, 69406, Note_on_c, 0, 65, 35
2, 69408, Note_on_c, 0, 60, 35
2, 69410, Note_on_c, 0, 57, 35
2, 69483, Note_on_c, 0, 75, 56
2, 69506, Note_off_c, 0, 75, 64
2, 69527, Note_on_c, 0, 77, 56
2, 69547, Note_off_c, 0, 77, 64
2, 69559, Note_on_c, 0, 75, 56
2, 69582, Note_off_c, 0, 75, 64
2, 69602, Note_on_c, 0, 77, 56
2, 69622, Note_off_c, 0, 77, 64
2, 69626, Note_on_c, 0, 75, 56
2, 69639, Note_off_c, 0, 75, 64
2, 69655, Note_on_c, 0, 77, 56
2, 69675, Note_off_c, 0, 77, 64
2, 69681, Note_on_c, 0, 75, 65
2, 69681, Control_c, 0, 64, 0
2, 69876, Control_c, 0, 64, 127
2, 69905, Note_on_c, 0, 77, 70
2, 69966, Note_off_c, 0, 65, 64
2, 69974, Note_off_c, 0, 57, 64
2, 69986, Note_off_c, 0, 60, 64
2, 70050, Note_off_c, 0, 75, 64
2, 70088, Control_c, 0, 64, 0
2, 70104, Note_on_c, 0, 79, 72
2, 70120, Note_on_c, 0, 57, 35
2, 70122, Note_on_c, 0, 60, 35
2, 70126, Note_on_c, 0, 65, 35
2, 70170, Note_off_c, 0, 77, 64
2, 70328, Control_c, 0, 64, 127
2, 70535, Note_on_c, 0, 77, 57
2, 70644, Note_off_c, 0, 60, 64
2, 70664, Note_off_c, 0, 57, 64
2, 70671, Note_off_c, 0, 65, 64
2, 70693, Note_on_c, 0, 75, 68
2, 70738, Note_off_c, 0, 77, 64
2, 70744, Note_off_c, 0, 79, 64
2, 70765, Note_off_c, 0, 75, 64
2, 70835, Control_c, 0, 64, 0
2, 70848, Note_on_c, 0, 75, 58
2, 70856, Note_on_c, 0, 57, 35
2, 70858, Note_on_c, 0, 65, 35
2, 70863, Note_on_c, 0, 63, 37
2, 71004, Note_on_c, 0, 74, 62
2, 71047, Control_c, 0, 64, 127
2, 71058, Note_off_c, 0, 75, 64
2, 71082, Note_off_c, 0, 74, 64
2, 71150, Control_c, 0, 64, 0
2, 71158, Note_on_c, 0, 74, 54
2, 71228, Control_c, 0, 64, 127
2, 71316, Note_on_c, 0, 73, 62
2, 71367, Note_off_c, 0, 74, 64
2, 71374, Note_off_c, 0, 65, 64
2, 71384, Note_off_c, 0, 63, 64
2, 71407, Note_off_c, 0, 73, 64
2, 71417, Note_off_c, 0, 57, 64
2, 71543, Note_on_c, 0, 73, 54
2, 71544, Control_c, 0, 64, 0
2, 71558, Note_on_c, 0, 62, 35
2, 71558, Note_on_c, 0, 65, 35
2, 71560, Note_on_c, 0, 58, 35
2, 72028, Control_c, 0, 64, 127
2, 72287, Note_on_c, 0, 74, 35
2, 72297, Control_c, 0, 64, 0
2, 72359, Note_off_c, 0, 73, 64
2, 72529, Control_c, 0, 64, 127
2, 72667, Note_off_c, 0, 74, 64
2, 72696, Note_on_c, 0, 77, 45
2, 72853, Note_off_c, 0, 65, 64
2, 72859, Note_on_c, 0, 76, 51
2, 72871, Note_off_c, 0, 77, 64
2, 72924, Note_off_c, 0, 62, 64
2, 72952, Note_off_c, 0, 58, 64
2, 73008, Note_on_c, 0, 79, 54
2, 73010, Control_c, 0, 64, 0
2, 73035, Note_off_c, 0, 76, 64
2, 73149, Note_on_c, 0, 77, 58
2, 73197, Note_off_c, 0, 79, 64
2, 73292, Note_on_c, 0, 76, 60
2, 73325, Note_off_c, 0, 77, 64
2, 73451, Note_on_c, 0, 74, 57
2, 73466, Control_c, 0, 64, 127
2, 73480, Note_off_c, 0, 76, 64
2, 73647, Note_off_c, 0, 74, 64
2, 73672, Control_c, 0, 64, 0
2, 73688, Note_on_c, 0, 74, 58
2, 73703, Note_on_c, 0, 58, 35
2, 73703, Note_on_c, 0, 62, 35
2, 73705, Note_on_c, 0, 53, 35
2, 73992, Control_c, 0, 64, 127
2, 74037, Note_off_c, 0, 62, 64
2, 74208, Note_off_c, 0, 58, 64
2, 74463, Control_c, 0, 64, 0
2, 74464, Note_on_c, 0, 72, 35
2, 74473, Note_on_c, 0, 57, 35
2, 74474, Note_on_c, 0, 60, 35
2, 74503, Note_off_c, 0, 74, 64
2, 74789, Note_on_c, 0, 77, 51
2, 74792, Note_off_c, 0, 72, 64
2, 75047, Note_on_c, 0, 72, 63
2, 75083, Note_off_c, 0, 53, 64
2, 75083, Note_off_c, 0, 60, 64
2, 75093, Note_off_c, 0, 57, 64
2, 75093, Note_on_c, 0, 81, 70
2, 75121, Note_off_c, 0, 72, 64
2, 75137, Note_off_c, 0, 77, 64
2, 75253, Control_c, 0, 64, 127
2, 75325, Note_on_c, 0, 77, 72
2, 75336, Control_c, 0, 64, 0
2, 75354, Note_off_c, 0, 81, 64
2, 75384, Note_on_c, 0, 72, 77
2, 75409, Note_off_c, 0, 77, 64
2, 75510, Control_c, 0, 64, 127
2, 75625, Note_off_c, 0, 72, 64
2, 75637, Note_on_c, 0, 69, 72
2, 75679, Control_c, 0, 64, 0
2, 75690, Note_on_c, 0, 72, 78
2, 75696, Note_on_c, 0, 52, 46
2, 75696, Note_on_c, 0, 60, 52
2, 75697, Note_on_c, 0, 55, 47
2, 75726, Note_off_c, 0, 69, 64
2, 75972, Control_c, 0, 67, 0
2, 76030, Control_c, 0, 64, 127
2, 76194, Note_on_c, 0, 71, 65
2, 76222, Note_off_c, 0, 72, 64
2, 76368, Control_c, 0, 64, 0
2, 76390, Note_on_c, 0, 70, 60
2, 76421, Note_off_c, 0, 71, 64
2, 76502, Control_c, 0, 64, 127
2, 76510, Note_off_c, 0, 60, 64
2, 76514, Note_off_c, 0, 70, 64
2, 76524, Note_off_c, 0, 52, 64
2, 76524, Note_off_c, 0, 55, 64
2, 76677, Note_on_c, 0, 67, 65
2, 76682, Note_on_c, 0, 64, 57
2, 76683, Control_c, 0, 64, 0
2, 76695, Note_on_c, 0, 46, 42
2, 76707, Note_on_c, 0, 58, 40
2, 76770, Control_c, 0, 64, 127
2, 76876, Note_off_c, 0, 58, 64
2, 76877, Note_off_c, 0, 67, 64
2, 76882, Note_off_c, 0, 64, 64
2, 76904, Note_on_c, 0, 60, 75
2, 76945, Control_c, 0, 64, 0
2, 76951, Note_off_c, 0, 46, 64
2, 76956, Note_on_c, 0, 69, 75
2, 76965, Note_on_c, 0, 57, 55
2, 76968, Note_off_c, 0, 60, 64
2, 76968, Note_on_c, 0, 65, 61
2, 76968, Note_on_c, 0, 45, 46
2, 77048, Control_c, 0, 64, 127
2, 77126, Note_off_c, 0, 57, 64
2, 77138, Note_off_c, 0, 45, 64
2, 77138, Note_off_c, 0, 65, 64
2, 77156, Note_off_c, 0, 69, 64
2, 77175, Note_on_c, 0, 60, 65
2, 77211, Control_c, 0, 64, 0
2, 77227, Note_on_c, 0, 70, 79
2, 77233, Note_on_c, 0, 43, 56
2, 77237, Note_on_c, 0, 67, 63
2, 77237, Note_on_c, 0, 55, 53
2, 77244, Note_off_c, 0, 60, 64
2, 77303, Control_c, 0, 64, 127
2, 77373, Note_off_c, 0, 67, 64
2, 77398, Note_off_c, 0, 55, 64
2, 77435, Note_on_c, 0, 60, 65
2, 77448, Note_off_c, 0, 70, 64
2, 77463, Note_off_c, 0, 43, 64
2, 77479, Control_c, 0, 64, 0
2, 77485, Note_on_c, 0, 69, 67
2, 77494, Note_on_c, 0, 72, 75
2, 77495, Note_on_c, 0, 53, 58
2, 77498, Note_on_c, 0, 41, 58
2, 77504, Note_off_c, 0, 60, 64
2, 77521, Note_off_c, 0, 69, 64
2, 77543, Note_off_c, 0, 72, 64
2, 77658, Note_on_c, 0, 74, 65
2, 77672, Note_off_c, 0, 41, 64
2, 77689, Note_off_c, 0, 53, 64
2, 77760, Note_off_c, 0, 74, 64
2, 77811, Note_on_c, 0, 76, 65
2, 77838, Note_off_c, 0, 76, 64
2, 77971, Note_on_c, 0, 77, 62
2, 78019, Note_off_c, 0, 77, 64
2, 78217, Control_c, 0, 67, 127
2, 78249, Note_on_c, 0, 65, 48
2, 78253, Note_on_c, 0, 60, 35
2, 78261, Note_on_c, 0, 48, 35
2, 78265, Note_on_c, 0, 57, 35
2, 78456, Control_c, 0, 64, 127
2, 78644, Note_off_c, 0, 57, 64
2, 78955, Note_on_c, 0, 58, 36
2, 78990, Control_c, 0, 64, 0
2, 79164, Control_c, 0, 64, 127
2, 79212, Note_off_c, 0, 60, 64
2, 79368, Note_off_c, 0, 65, 64
2, 79368, Note_on_c, 0, 69, 46
2, 79381, Control_c, 0, 64, 0
2, 79389, Note_on_c, 0, 64, 35
2, 79518, Control_c, 0, 64, 127
2, 79565, Note_on_c, 0, 67, 46
2, 79603, Note_off_c, 0, 58, 64
2, 79710, Note_off_c, 0, 69, 64
2, 79771, Control_c, 0, 64, 0
2, 79781, Note_on_c, 0, 65, 39
2, 79797, Note_on_c, 0, 53, 35
2, 79802, Note_on_c, 0, 57, 35
2, 79819, Note_off_c, 0, 64, 64
2, 79864, Note_off_c, 0, 67, 64
2, 79962, Note_off_c, 0, 48, 64
2, 80029, Control_c, 0, 64, 127
2, 80054, Note_off_c, 0, 57, 64
2, 80279, Note_off_c, 0, 53, 64
2, 80582, Note_off_c, 0, 65, 64
2, 80615, Note_on_c, 0, 41, 35
2, 80867, Note_off_c, 0, 41, 64
2, 80989, Control_c, 0, 64, 0
2, 81191, Note_on_c, 0, 68, 37
2, 81195, Note_on_c, 0, 60, 35
2, 81369, Control_c, 0, 64, 127
2, 81412, Note_off_c, 0, 60, 64
2, 81418, Note_off_c, 0, 68, 64
2, 81564, Control_c, 0, 64, 0
2, 81568, Note_on_c, 0, 60, 35
2, 81571, Note_on_c, 0, 68, 35
2, 81709, Control_c, 0, 64, 127
2, 81797, Note_off_c, 0, 60, 64
2, 81825, Note_off_c, 0, 68, 64
2, 81934, Note_on_c, 0, 68, 35
2, 81934, Note_on_c, 0, 60, 35
2, 82162, Note_off_c, 0, 60, 64
2, 82178, Note_off_c, 0, 68, 64
2, 82359, Note_on_c, 0, 41, 35
2, 82361, Note_on_c, 0, 68, 40
2, 82364, Note_on_c, 0, 60, 35
2, 82371, Control_c, 0, 64, 0
2, 82563, Note_on_c, 0, 53, 35
2, 82649, Note_off_c, 0, 53, 64
2, 82649, Control_c, 0, 64, 127
2, 82729, Note_on_c, 0, 53, 35
2, 82814, Note_off_c, 0, 53, 64
2, 82890, Note_on_c, 0, 53, 35
2, 82980, Note_off_c, 0, 53, 64
2, 83054, Note_on_c, 0, 53, 35
2, 83073, Note_off_c, 0, 60, 64
2, 83109, Note_off_c, 0, 53, 64
2, 83207, Note_on_c, 0, 53, 36
2, 83232, Note_off_c, 0, 68, 64
2, 83288, Note_off_c, 0, 53, 64
2, 83360, Note_on_c, 0, 67, 44
2, 83366, Note_on_c, 0, 58, 35
2, 83366, Note_on_c, 0, 53, 35
2, 83373, Control_c, 0, 64, 0
2, 83456, Note_off_c, 0, 53, 64
2, 83479, Control_c, 0, 64, 127
2, 83524, Note_on_c, 0, 53, 35
2, 83619, Note_off_c, 0, 53, 64
2, 83673, Note_on_c, 0, 61, 44
2, 83676, Note_on_c, 0, 70, 47
2, 83676, Control_c, 0, 64, 0
2, 83688, Note_off_c, 0, 58, 64
2, 83688, Note_on_c, 0, 53, 35
2, 83763, Control_c, 0, 64, 127
2, 83769, Note_off_c, 0, 53, 64
2, 83773, Note_off_c, 0, 67, 64
2, 83796, Note_off_c, 0, 70, 64
2, 83839, Note_on_c, 0, 53, 35
2, 83935, Note_off_c, 0, 53, 64
2, 83963, Note_off_c, 0, 61, 64
2, 83985, Note_on_c, 0, 64, 46
2, 83997, Note_on_c, 0, 55, 39
2, 84008, Note_on_c, 0, 53, 37
2, 84009, Control_c, 0, 64, 0
2, 84052, Note_off_c, 0, 53, 64
2, 84081, Control_c, 0, 64, 127
2, 84128, Note_off_c, 0, 55, 64
2, 84144, Note_on_c, 0, 53, 38
2, 84199, Note_off_c, 0, 41, 64
2, 84289, Note_off_c, 0, 53, 64
2, 84317, Note_on_c, 0, 65, 42
2, 84323, Note_on_c, 0, 41, 36
2, 84325, Note_on_c, 0, 56, 35
2, 84325, Control_c, 0, 64, 0
2, 84410, Note_off_c, 0, 64, 64
2, 84468, Note_on_c, 0, 53, 36
2, 84554, Note_off_c, 0, 53, 64
2, 84622, Note_on_c, 0, 53, 37
2, 84692, Note_off_c, 0, 53, 64
2, 84758, Control_c, 0, 64, 127
2, 84768, Note_on_c, 0, 53, 35
2, 84861, Note_off_c, 0, 56, 64
2, 84914, Note_off_c, 0, 65, 64
2, 84918, Note_off_c, 0, 53, 64
2, 84920, Note_on_c, 0, 53, 35
2, 84995, Note_off_c, 0, 53, 64
2, 85072, Note_on_c, 0, 53, 35
2, 85166, Note_off_c, 0, 53, 64
2, 85218, Note_on_c, 0, 68, 43
2, 85218, Note_on_c, 0, 72, 51
2, 85234, Note_on_c, 0, 53, 35
2, 85240, Control_c, 0, 64, 0
2, 85320, Note_off_c, 0, 53, 64
2, 85324, Control_c, 0, 64, 127
2, 85377, Note_on_c, 0, 53, 40
2, 85402, Note_off_c, 0, 68, 64
2, 85407, Note_off_c, 0, 72, 64
2, 85453, Note_off_c, 0, 53, 64
2, 85524, Note_on_c, 0, 68, 51
2, 85524, Control_c, 0, 64, 0
2, 85524, Note_on_c, 0, 72, 58
2, 85528, Note_on_c, 0, 53, 39
2, 85606, Note_off_c, 0, 53, 64
2, 85639, Control_c, 0, 64, 127
2, 85681, Note_on_c, 0, 53, 44
2, 85697, Note_off_c, 0, 68, 64
2, 85715, Note_off_c, 0, 72, 64
2, 85754, Note_off_c, 0, 53, 64
2, 85824, Note_on_c, 0, 72, 60
2, 85835, Note_on_c, 0, 68, 52
2, 85835, Note_on_c, 0, 53, 46
2, 85877, Note_off_c, 0, 53, 64
2, 85948, Note_off_c, 0, 41, 64
2, 85979, Note_on_c, 0, 53, 45
2, 85999, Note_off_c, 0, 72, 64
2, 86037, Note_off_c, 0, 53, 64
2, 86089, Note_off_c, 0, 68, 64
2, 86170, Note_on_c, 0, 72, 58
2, 86170, Note_on_c, 0, 40, 55
2, 86171, Note_on_c, 0, 67, 48
2, 86198, Control_c, 0, 64, 0
2, 86340, Note_on_c, 0, 52, 41
2, 86361, Note_off_c, 0, 40, 64
2, 86376, Control_c, 0, 64, 127
2, 86427, Note_off_c, 0, 52, 64
2, 86489, Control_c, 0, 64, 0
2, 86496, Note_on_c, 0, 52, 49
2, 86580, Note_off_c, 0, 52, 64
2, 86595, Control_c, 0, 64, 127
2, 86660, Note_on_c, 0, 52, 46
2, 86713, Note_off_c, 0, 52, 64
2, 86806, Note_on_c, 0, 52, 40
2, 86882, Note_off_c, 0, 52, 64
2, 86970, Note_on_c, 0, 52, 39
2, 87046, Note_off_c, 0, 52, 64
2, 87109, Note_on_c, 0, 73, 56
2, 87131, Note_on_c, 0, 52, 35
2, 87215, Note_off_c, 0, 52, 64
2, 87235, Note_off_c, 0, 72, 64
2, 87272, Note_on_c, 0, 52, 38
2, 87356, Note_off_c, 0, 52, 64
2, 87408, Note_on_c, 0, 72, 61
2, 87432, Note_on_c, 0, 52, 38
2, 87507, Note_off_c, 0, 52, 64
2, 87588, Note_on_c, 0, 52, 41
2, 87662, Note_off_c, 0, 52, 64
2, 87738, Note_on_c, 0, 70, 63
2, 87761, Note_on_c, 0, 52, 41
2, 87829, Note_off_c, 0, 52, 64
2, 87849, Note_off_c, 0, 73, 64
2, 87856, Note_off_c, 0, 72, 64
2, 87904, Note_on_c, 0, 52, 45
2, 87935, Note_off_c, 0, 67, 64
2, 88000, Note_off_c, 0, 70, 64
2, 88114, Note_on_c, 0, 72, 64
2, 88118, Note_off_c, 0, 52, 64
2, 88118, Note_on_c, 0, 41, 35
2, 88120, Note_on_c, 0, 67, 52
2, 88123, Control_c, 0, 64, 0
2, 88216, Note_on_c, 0, 70, 59
2, 88256, Note_off_c, 0, 72, 64
2, 88315, Note_on_c, 0, 53, 36
2, 88393, Control_c, 0, 64, 127
2, 88395, Note_off_c, 0, 53, 64
2, 88412, Note_off_c, 0, 67, 64
2, 88423, Note_off_c, 0, 41, 64
2, 88506, Control_c, 0, 64, 0
2, 88519, Note_on_c, 0, 53, 35
2, 88521, Note_on_c, 0, 68, 43
2, 88526, Note_on_c, 0, 65, 39
2, 88584, Note_off_c, 0, 70, 64
2, 88622, Note_off_c, 0, 53, 64
2, 88699, Note_on_c, 0, 53, 35
2, 88707, Control_c, 0, 64, 127
2, 88805, Note_off_c, 0, 53, 64
2, 88900, Note_on_c, 0, 53, 35
2, 89037, Control_c, 0, 64, 0
2, 89045, Note_off_c, 0, 65, 64
2, 89057, Note_off_c, 0, 68, 64
2, 89377, Note_on_c, 0, 68, 35
2, 89535, Note_off_c, 0, 53, 64
2, 89697, Note_on_c, 0, 70, 50
2, 89797, Note_off_c, 0, 68, 64
2, 89988, Note_on_c, 0, 72, 60
2, 90077, Note_off_c, 0, 70, 64
2, 90105, Control_c, 0, 64, 127
2, 90229, Note_off_c, 0, 72, 64
2, 90316, Note_on_c, 0, 75, 62
2, 90351, Control_c, 0, 64, 0
2, 90716, Note_on_c, 0, 73, 41
2, 90719, Note_on_c, 0, 56, 35
2, 90720, Note_on_c, 0, 61, 35
2, 90723, Note_on_c, 0, 53, 35
2, 90792, Note_off_c, 0, 75, 64
2, 90859, Control_c, 0, 64, 127
2, 90925, Note_off_c, 0, 53, 64
2, 90929, Note_off_c, 0, 61, 64
2, 90931, Note_off_c, 0, 56, 64
2, 91060, Note_on_c, 0, 61, 35
2, 91068, Note_on_c, 0, 53, 35
2, 91070, Note_on_c, 0, 56, 35
2, 91207, Note_off_c, 0, 56, 64
2, 91219, Note_off_c, 0, 61, 64
2, 91219, Note_off_c, 0, 53, 64
2, 91312, Note_off_c, 0, 73, 64
2, 91352, Control_c, 0, 64, 0
2, 91368, Note_on_c, 0, 72, 59
2, 91376, Note_on_c, 0, 61, 35
2, 91383, Note_on_c, 0, 53, 35
2, 91384, Note_on_c, 0, 56, 36
2, 91428, Note_on_c, 0, 73, 62
2, 91476, Control_c, 0, 67, 0
2, 91479, Control_c, 0, 64, 127
2, 91496, Note_off_c, 0, 72, 64
2, 91574, Note_off_c, 0, 61, 64
2, 91582, Note_off_c, 0, 73, 64
2, 91586, Note_off_c, 0, 56, 64
2, 91589, Note_off_c, 0, 53, 64
2, 91685, Control_c, 0, 64, 0
2, 91688, Note_on_c, 0, 61, 46
2, 91690, Note_on_c, 0, 72, 67
2, 91690, Note_on_c, 0, 56, 39
2, 91690, Note_on_c, 0, 53, 36
2, 91755, Note_on_c, 0, 73, 69
2, 91781, Note_off_c, 0, 72, 64
2, 91803, Control_c, 0, 64, 127
2, 91882, Note_off_c, 0, 73, 64
2, 91882, Note_off_c, 0, 61, 64
2, 91887, Note_off_c, 0, 53, 64
2, 91887, Note_off_c, 0, 56, 64
2, 91994, Note_on_c, 0, 72, 74
2, 92002, Note_on_c, 0, 61, 47
2, 92005, Control_c, 0, 64, 0
2, 92007, Note_on_c, 0, 53, 38
2, 92007, Note_on_c, 0, 56, 44
2, 92063, Note_on_c, 0, 73, 79
2, 92090, Note_off_c, 0, 72, 64
2, 92100, Control_c, 0, 64, 127
2, 92163, Note_off_c, 0, 53, 64
2, 92184, Note_off_c, 0, 56, 64
2, 92188, Note_off_c, 0, 73, 64
2, 92246, Note_off_c, 0, 61, 64
2, 92427, Note_on_c, 0, 73, 77
2, 92432, Note_on_c, 0, 63, 49
2, 92438, Note_on_c, 0, 58, 46
2, 92438, Note_on_c, 0, 61, 49
2, 92442, Note_on_c, 0, 55, 41
2, 92442, Control_c, 0, 64, 0
2, 92608, Control_c, 0, 64, 127
2, 92651, Note_off_c, 0, 73, 64
2, 92667, Note_on_c, 0, 75, 61
2, 92710, Note_off_c, 0, 75, 64
2, 92714, Note_on_c, 0, 73, 69
2, 92740, Note_off_c, 0, 73, 64
2, 92744, Note_on_c, 0, 72, 74
2, 92753, Control_c, 0, 64, 0
2, 92807, Note_on_c, 0, 73, 74
2, 92830, Note_off_c, 0, 72, 64
2, 92974, Note_on_c, 0, 75, 78
2, 93013, Note_off_c, 0, 73, 64
2, 93240, Note_on_c, 0, 77, 70
2, 93288, Note_off_c, 0, 75, 64
2, 94150, Note_off_c, 0, 55, 64
2, 94185, Note_off_c, 0, 61, 64
2, 94190, Note_off_c, 0, 58, 64
2, 94207, Note_off_c, 0, 63, 64
2, 94713, Control_c, 0, 67, 127
2, 94758, Note_on_c, 0, 75, 40
2, 94844, Control_c, 0, 64, 127
2, 94952, Note_on_c, 0, 73, 48
2, 95093, Control_c, 0, 64, 0
2, 95123, Note_on_c, 0, 72, 52
2, 95133, Note_on_c, 0, 56, 35
2, 95159, Note_off_c, 0, 77, 64
2, 95161, Note_off_c, 0, 75, 64
2, 95184, Note_off_c, 0, 73, 64
2, 95240, Control_c, 0, 64, 127
2, 95269, Note_on_c, 0, 75, 56
2, 95317, Note_off_c, 0, 72, 64
2, 95408, Control_c, 0, 64, 0
2, 95421, Note_on_c, 0, 73, 56
2, 95428, Note_on_c, 0, 58, 38
2, 95438, Note_on_c, 0, 49, 35
2, 95451, Note_off_c, 0, 56, 64
2, 95465, Note_off_c, 0, 75, 64
2, 95544, Control_c, 0, 64, 127
2, 95574, Note_on_c, 0, 70, 60
2, 95584, Note_off_c, 0, 49, 64
2, 95602, Note_off_c, 0, 73, 64
2, 95649, Note_off_c, 0, 58, 64
2, 95776, Control_c, 0, 64, 0
2, 95781, Note_on_c, 0, 68, 55
2, 95793, Note_on_c, 0, 51, 35
2, 95795, Note_on_c, 0, 60, 35
2, 95821, Note_off_c, 0, 70, 64
2, 96014, Control_c, 0, 64, 127
2, 96153, Note_off_c, 0, 60, 64
2, 96457, Note_on_c, 0, 61, 35
2, 96457, Control_c, 0, 64, 0
2, 96697, Control_c, 0, 64, 127
2, 96727, Note_off_c, 0, 68, 64
2, 96790, Control_c, 0, 64, 0
2, 96800, Note_on_c, 0, 72, 46
2, 96807, Note_on_c, 0, 67, 36
2, 96946, Control_c, 0, 64, 127
2, 96989, Note_on_c, 0, 70, 48
2, 97037, Note_off_c, 0, 61, 64
2, 97064, Note_off_c, 0, 72, 64
2, 97112, Note_off_c, 0, 67, 64
2, 97185, Control_c, 0, 64, 0
2, 97213, Note_on_c, 0, 68, 40
2, 97215, Note_off_c, 0, 70, 64
2, 97230, Note_on_c, 0, 56, 35
2, 97233, Note_on_c, 0, 60, 35
2, 97311, Note_off_c, 0, 51, 64
2, 97452, Control_c, 0, 64, 127
2, 97495, Note_off_c, 0, 60, 64
2, 97752, Note_off_c, 0, 56, 64
2, 98010, Note_on_c, 0, 44, 35
2, 98069, Control_c, 0, 64, 0
2, 98187, Note_off_c, 0, 68, 64
2, 98459, Note_on_c, 0, 68, 35
2, 98460, Note_on_c, 0, 60, 35
2, 98524, Note_off_c, 0, 44, 64
2, 98605, Control_c, 0, 64, 127
2, 98668, Note_off_c, 0, 60, 64
2, 98676, Note_off_c, 0, 68, 64
2, 98824, Note_on_c, 0, 60, 35
2, 98824, Note_on_c, 0, 68, 35
2, 98824, Control_c, 0, 64, 0
2, 98900, Control_c, 0, 64, 127
2, 99037, Note_off_c, 0, 60, 64
2, 99053, Note_off_c, 0, 68, 64
2, 99186, Note_on_c, 0, 68, 35
2, 99191, Note_on_c, 0, 60, 35
2, 99388, Note_off_c, 0, 68, 64
2, 99390, Note_off_c, 0, 60, 64
2, 99574, Note_on_c, 0, 60, 35
2, 99579, Note_on_c, 0, 41, 35
2, 99584, Note_on_c, 0, 68, 38
2, 99602, Control_c, 0, 64, 0
2, 99780, Note_on_c, 0, 53, 35
2, 99831, Control_c, 0, 64, 127
2, 99868, Note_off_c, 0, 53, 64
2, 99948, Note_on_c, 0, 53, 35
2, 100032, Note_off_c, 0, 53, 64
2, 100107, Note_on_c, 0, 53, 35
2, 100191, Note_off_c, 0, 53, 64
2, 100274, Note_on_c, 0, 53, 35
2, 100359, Note_off_c, 0, 60, 64
2, 100365, Note_off_c, 0, 53, 64
2, 100432, Note_off_c, 0, 68, 64
2, 100432, Note_on_c, 0, 53, 35
2, 100489, Note_off_c, 0, 53, 64
2, 100594, Note_on_c, 0, 67, 39
2, 100594, Note_on_c, 0, 53, 36
2, 100595, Note_on_c, 0, 58, 35
2, 100672, Note_off_c, 0, 53, 64
2, 100753, Note_on_c, 0, 53, 35
2, 100839, Note_off_c, 0, 53, 64
2, 100903, Note_off_c, 0, 58, 64
2, 100913, Note_on_c, 0, 70, 43
2, 100918, Control_c, 0, 64, 0
2, 100920, Note_on_c, 0, 53, 38
2, 100920, Note_on_c, 0, 61, 35
2, 100981, Note_off_c, 0, 53, 64
2, 100991, Note_off_c, 0, 67, 64
2, 101014, Control_c, 0, 64, 127
2, 101043, Note_off_c, 0, 70, 64
2, 101082, Note_on_c, 0, 53, 35
2, 101142, Note_off_c, 0, 53, 64
2, 101179, Note_off_c, 0, 61, 64
2, 101240, Note_on_c, 0, 64, 39
2, 101250, Note_on_c, 0, 53, 35
2, 101252, Control_c, 0, 64, 0
2, 101252, Note_on_c, 0, 55, 35
2, 101311, Note_off_c, 0, 53, 64
2, 101321, Control_c, 0, 64, 127
2, 101381, Note_off_c, 0, 55, 64
2, 101419, Note_on_c, 0, 53, 35
2, 101434, Note_off_c, 0, 41, 64
2, 101540, Note_off_c, 0, 53, 64
2, 101592, Note_on_c, 0, 65, 39
2, 101602, Note_on_c, 0, 56, 35
2, 101602, Note_on_c, 0, 41, 39
2, 101605, Control_c, 0, 64, 0
2, 101718, Note_off_c, 0, 64, 64
2, 101772, Note_on_c, 0, 53, 35
2, 101859, Note_off_c, 0, 53, 64
2, 101928, Note_on_c, 0, 53, 35
2, 101940, Control_c, 0, 64, 127
2, 102016, Note_off_c, 0, 53, 64
2, 102075, Note_on_c, 0, 53, 36
2, 102091, Note_off_c, 0, 56, 64
2, 102164, Note_off_c, 0, 53, 64
2, 102168, Note_off_c, 0, 65, 64
2, 102232, Note_on_c, 0, 53, 35
2, 102321, Note_off_c, 0, 53, 64
2, 102384, Note_on_c, 0, 53, 35
2, 102466, Note_off_c, 0, 53, 64
2, 102537, Note_on_c, 0, 68, 40
2, 102537, Note_on_c, 0, 72, 49
2, 102544, Note_on_c, 0, 53, 35
2, 102554, Control_c, 0, 64, 0
2, 102560, Note_off_c, 0, 41, 64
2, 102637, Note_off_c, 0, 53, 64
2, 102667, Control_c, 0, 64, 127
2, 102693, Note_on_c, 0, 53, 35
2, 102741, Note_off_c, 0, 68, 64
2, 102751, Note_off_c, 0, 72, 64
2, 102788, Note_off_c, 0, 53, 64
2, 102846, Note_on_c, 0, 72, 48
2, 102852, Note_on_c, 0, 68, 36
2, 102852, Control_c, 0, 64, 0
2, 102857, Note_on_c, 0, 53, 37
2, 102941, Control_c, 0, 64, 127
2, 102947, Note_off_c, 0, 53, 64
2, 103014, Note_on_c, 0, 53, 41
2, 103023, Note_off_c, 0, 72, 64
2, 103032, Note_off_c, 0, 68, 64
2, 103080, Note_off_c, 0, 53, 64
2, 103169, Note_on_c, 0, 72, 50
2, 103174, Note_on_c, 0, 68, 49
2, 103176, Note_on_c, 0, 53, 39
2, 103219, Note_off_c, 0, 53, 64
2, 103337, Note_on_c, 0, 53, 43
2, 103388, Note_off_c, 0, 72, 64
2, 103400, Note_off_c, 0, 53, 64
2, 103473, Note_off_c, 0, 68, 64
2, 103559, Note_on_c, 0, 72, 56
2, 103560, Note_on_c, 0, 40, 53
2, 103563, Note_on_c, 0, 67, 46
2, 103574, Control_c, 0, 64, 0
2, 103770, Note_on_c, 0, 52, 35
2, 103823, Control_c, 0, 64, 127
2, 103846, Note_off_c, 0, 52, 64
2, 103850, Note_off_c, 0, 40, 64
2, 103929, Note_on_c, 0, 52, 41
2, 104009, Note_off_c, 0, 52, 64
2, 104087, Note_on_c, 0, 52, 38
2, 104168, Note_off_c, 0, 52, 64
2, 104233, Note_on_c, 0, 52, 35
2, 104321, Note_off_c, 0, 52, 64
2, 104389, Note_on_c, 0, 52, 35
2, 104467, Note_off_c, 0, 52, 64
2, 104553, Note_on_c, 0, 73, 56
2, 104557, Note_on_c, 0, 52, 35
2, 104639, Note_off_c, 0, 52, 64
2, 104663, Note_off_c, 0, 72, 64
2, 104757, Note_on_c, 0, 52, 35
2, 104838, Note_off_c, 0, 52, 64
2, 104893, Note_on_c, 0, 72, 57
2, 104908, Note_on_c, 0, 52, 35
2, 104950, Control_c, 0, 64, 0
2, 104988, Note_off_c, 0, 52, 64
2, 104998, Control_c, 0, 64, 127
2, 105048, Note_off_c, 0, 73, 64
2, 105059, Note_on_c, 0, 52, 35
2, 105134, Note_off_c, 0, 52, 64
2, 105219, Note_on_c, 0, 70, 55
2, 105229, Note_on_c, 0, 52, 39
2, 105306, Note_off_c, 0, 52, 64
2, 105318, Note_off_c, 0, 72, 64
2, 105373, Note_off_c, 0, 67, 64
2, 105384, Note_on_c, 0, 52, 40
2, 105438, Note_off_c, 0, 70, 64
2, 105577, Note_on_c, 0, 72, 53
2, 105588, Note_on_c, 0, 41, 37
2, 105588, Control_c, 0, 64, 0
2, 105590, Note_off_c, 0, 52, 64
2, 105602, Note_on_c, 0, 67, 35
2, 105666, Note_on_c, 0, 70, 42
2, 105716, Note_off_c, 0, 72, 64
2, 105802, Note_on_c, 0, 53, 35
2, 105804, Control_c, 0, 64, 127
2, 105850, Note_off_c, 0, 67, 64
2, 105891, Note_off_c, 0, 53, 64
2, 105984, Control_c, 0, 64, 0
2, 105991, Note_on_c, 0, 53, 35
2, 105995, Note_on_c, 0, 65, 35
2, 106003, Note_on_c, 0, 68, 35
2, 106043, Note_off_c, 0, 70, 64
2, 106058, Note_off_c, 0, 53, 64
2, 106147, Control_c, 0, 64, 127
2, 106178, Note_on_c, 0, 53, 35
2, 106231, Note_off_c, 0, 53, 64
2, 106393, Note_on_c, 0, 53, 35
2, 106435, Control_c, 0, 64, 0
2, 106571, Note_off_c, 0, 41, 64
2, 106599, Control_c, 0, 64, 127
2, 106803, Note_off_c, 0, 65, 64
2, 106809, Note_off_c, 0, 68, 64
2, 106944, Note_on_c, 0, 68, 35
2, 106962, Control_c, 0, 64, 0
2, 107053, Note_off_c, 0, 53, 64
2, 107289, Note_on_c, 0, 70, 47
2, 107400, Note_off_c, 0, 68, 64
2, 107449, Control_c, 0, 64, 127
2, 107586, Note_on_c, 0, 72, 54
2, 107641, Note_off_c, 0, 70, 64
2, 107892, Control_c, 0, 64, 0
2, 107900, Note_on_c, 0, 75, 59
2, 107939, Note_off_c, 0, 72, 64
2, 108112, Control_c, 0, 64, 127
2, 108225, Control_c, 0, 64, 0
2, 108265, Note_on_c, 0, 73, 41
2, 108276, Note_on_c, 0, 61, 35
2, 108278, Note_on_c, 0, 53, 35
2, 108278, Note_on_c, 0, 56, 35
2, 108336, Note_off_c, 0, 75, 64
2, 108414, Control_c, 0, 64, 127
2, 108455, Note_off_c, 0, 56, 64
2, 108457, Note_off_c, 0, 61, 64
2, 108468, Note_off_c, 0, 53, 64
2, 108616, Control_c, 0, 64, 0
2, 108620, Note_on_c, 0, 61, 35
2, 108624, Note_on_c, 0, 53, 35
2, 108630, Note_on_c, 0, 56, 35
2, 108716, Control_c, 0, 64, 127
2, 108840, Note_off_c, 0, 56, 64
2, 108840, Note_off_c, 0, 61, 64
2, 108852, Note_off_c, 0, 53, 64
2, 108948, Note_on_c, 0, 72, 56
2, 108953, Control_c, 0, 64, 0
2, 108956, Note_off_c, 0, 73, 64
2, 108958, Note_on_c, 0, 61, 35
2, 108961, Note_on_c, 0, 53, 35
2, 108966, Note_on_c, 0, 56, 35
2, 109008, Note_on_c, 0, 73, 65
2, 109045, Note_off_c, 0, 72, 64
2, 109126, Control_c, 0, 64, 127
2, 109188, Note_off_c, 0, 56, 64
2, 109188, Note_off_c, 0, 61, 64
2, 109194, Note_off_c, 0, 53, 64
2, 109214, Note_off_c, 0, 73, 64
2, 109272, Note_on_c, 0, 72, 67
2, 109278, Control_c, 0, 64, 0
2, 109285, Note_on_c, 0, 61, 38
2, 109292, Note_on_c, 0, 53, 35
2, 109293, Note_on_c, 0, 56, 35
2, 109335, Note_on_c, 0, 73, 70
2, 109375, Note_off_c, 0, 72, 64
2, 109424, Control_c, 0, 64, 127
2, 109517, Note_off_c, 0, 61, 64
2, 109517, Note_off_c, 0, 56, 64
2, 109530, Note_off_c, 0, 53, 64
2, 109554, Note_off_c, 0, 73, 64
2, 109600, Note_on_c, 0, 72, 74
2, 109608, Note_on_c, 0, 61, 43
2, 109608, Note_on_c, 0, 53, 36
2, 109608, Control_c, 0, 64, 0
2, 109615, Note_on_c, 0, 56, 39
2, 109665, Note_on_c, 0, 73, 77
2, 109691, Note_off_c, 0, 72, 64
2, 109738, Control_c, 0, 64, 127
2, 109739, Control_c, 0, 67, 0
2, 109768, Note_off_c, 0, 53, 64
2, 109778, Note_off_c, 0, 56, 64
2, 109832, Note_off_c, 0, 73, 64
2, 109871, Note_off_c, 0, 61, 64
2, 110040, Note_on_c, 0, 73, 74
2, 110054, Control_c, 0, 64, 0
2, 110056, Note_on_c, 0, 63, 35
2, 110059, Note_on_c, 0, 61, 39
2, 110062, Note_on_c, 0, 58, 35
2, 110062, Note_on_c, 0, 55, 35
2, 110217, Control_c, 0, 64, 127
2, 110283, Note_off_c, 0, 73, 64
2, 110301, Note_on_c, 0, 75, 60
2, 110350, Note_off_c, 0, 75, 64
2, 110350, Note_on_c, 0, 73, 67
2, 110381, Note_off_c, 0, 73, 64
2, 110388, Note_on_c, 0, 72, 68
2, 110433, Control_c, 0, 64, 0
2, 110451, Note_on_c, 0, 73, 74
2, 110459, Note_off_c, 0, 72, 64
2, 110642, Note_on_c, 0, 75, 72
2, 110804, Note_off_c, 0, 73, 64
2, 110993, Note_on_c, 0, 77, 64
2, 111084, Note_off_c, 0, 75, 64
2, 111478, Control_c, 0, 67, 127
2, 111967, Note_off_c, 0, 55, 64
2, 112011, Note_off_c, 0, 58, 64
2, 112017, Note_off_c, 0, 63, 64
2, 112034, Note_off_c, 0, 61, 64
2, 112586, Note_on_c, 0, 75, 36
2, 112639, Control_c, 0, 64, 127
2, 112807, Note_on_c, 0, 73, 45
2, 112908, Note_off_c, 0, 77, 64
2, 112928, Note_off_c, 0, 75, 64
2, 112971, Control_c, 0, 64, 0
2, 112993, Note_on_c, 0, 56, 35
2, 112993, Note_on_c, 0, 72, 50
2, 113033, Note_off_c, 0, 73, 64
2, 113092, Control_c, 0, 64, 127
2, 113165, Note_on_c, 0, 75, 59
2, 113220, Note_off_c, 0, 72, 64
2, 113308, Control_c, 0, 64, 0
2, 113323, Note_on_c, 0, 73, 53
2, 113326, Note_off_c, 0, 56, 64
2, 113328, Note_on_c, 0, 58, 36
2, 113333, Note_on_c, 0, 49, 35
2, 113444, Control_c, 0, 64, 127
2, 113446, Note_off_c, 0, 49, 64
2, 113476, Note_off_c, 0, 75, 64
2, 113486, Note_on_c, 0, 70, 59
2, 113616, Note_off_c, 0, 58, 64
2, 113647, Note_off_c, 0, 73, 64
2, 113718, Control_c, 0, 64, 0
2, 113751, Note_on_c, 0, 68, 49
2, 113763, Note_on_c, 0, 51, 35
2, 113777, Note_on_c, 0, 60, 35
2, 113834, Note_off_c, 0, 70, 64
2, 114053, Control_c, 0, 64, 127
2, 114206, Note_off_c, 0, 60, 64
2, 114528, Note_on_c, 0, 61, 35
2, 114549, Control_c, 0, 64, 0
2, 114757, Control_c, 0, 64, 127
2, 114851, Note_off_c, 0, 68, 64
2, 114877, Note_on_c, 0, 72, 48
2, 114888, Note_on_c, 0, 67, 35
2, 114901, Control_c, 0, 64, 0
2, 115073, Control_c, 0, 64, 127
2, 115100, Note_on_c, 0, 70, 45
2, 115146, Note_off_c, 0, 61, 64
2, 115178, Note_off_c, 0, 72, 64
2, 115226, Note_off_c, 0, 67, 64
2, 115337, Control_c, 0, 64, 0
2, 115347, Note_on_c, 0, 68, 36
2, 115363, Note_on_c, 0, 60, 35
2, 115364, Note_on_c, 0, 56, 35
2, 115418, Note_off_c, 0, 70, 64
2, 115498, Note_off_c, 0, 51, 64
2, 115607, Control_c, 0, 64, 127
2, 115639, Note_off_c, 0, 60, 64
2, 115894, Note_off_c, 0, 56, 64
2, 116269, Note_on_c, 0, 44, 35
2, 116286, Control_c, 0, 64, 0
2, 116556, Note_off_c, 0, 68, 64
2, 116562, Control_c, 0, 64, 127
2, 116818, Control_c, 0, 64, 0
2, 116893, Note_on_c, 0, 63, 40
2, 116951, Note_off_c, 0, 44, 64
2, 117250, Note_on_c, 0, 68, 45
2, 117296, Note_off_c, 0, 63, 64
2, 117559, Note_on_c, 0, 72, 55
2, 117695, Note_off_c, 0, 68, 64
2, 117701, Control_c, 0, 64, 127
2, 117864, Control_c, 0, 64, 0
2, 117887, Note_on_c, 0, 75, 64
2, 117919, Note_off_c, 0, 72, 64
2, 118202, Note_on_c, 0, 56, 35
2, 118395, Control_c, 0, 64, 127
2, 118508, Note_on_c, 0, 60, 35
2, 118791, Note_on_c, 0, 73, 45
2, 118813, Note_on_c, 0, 63, 35
2, 118931, Note_on_c, 0, 72, 57
2, 119038, Note_off_c, 0, 63, 64
2, 119063, Control_c, 0, 64, 0
2, 119093, Note_on_c, 0, 70, 55
2, 119103, Note_off_c, 0, 60, 64
2, 119111, Note_on_c, 0, 53, 35
2, 119121, Note_off_c, 0, 75, 64
2, 119131, Note_off_c, 0, 72, 64
2, 119170, Note_off_c, 0, 73, 64
2, 119269, Note_off_c, 0, 70, 64
2, 119304, Note_off_c, 0, 56, 64
2, 119420, Note_on_c, 0, 68, 50
2, 119433, Note_on_c, 0, 62, 35
2, 119609, Note_off_c, 0, 68, 64
2, 119623, Note_off_c, 0, 62, 64
2, 119639, Note_off_c, 0, 53, 64
2, 119767, Note_on_c, 0, 72, 57
2, 120034, Control_c, 0, 64, 127
2, 120086, Note_on_c, 0, 51, 35
2, 120434, Control_c, 0, 64, 0
2, 120449, Note_on_c, 0, 70, 36
2, 120449, Note_on_c, 0, 55, 35
2, 120545, Note_off_c, 0, 72, 64
2, 120631, Control_c, 0, 64, 127
2, 120739, Note_off_c, 0, 51, 64
2, 120850, Control_c, 0, 64, 0
2, 120863, Note_on_c, 0, 60, 60
2, 120867, Note_on_c, 0, 52, 35
2, 120869, Note_on_c, 0, 58, 35
2, 120971, Control_c, 0, 64, 127
2, 120998, Note_off_c, 0, 55, 64
2, 121043, Note_off_c, 0, 52, 64
2, 121192, Note_on_c, 0, 65, 65
2, 121207, Note_on_c, 0, 53, 35
2, 121212, Note_on_c, 0, 56, 43
2, 121225, Control_c, 0, 64, 0
2, 121240, Note_off_c, 0, 60, 64
2, 121282, Note_off_c, 0, 58, 64
2, 121345, Note_off_c, 0, 70, 64
2, 121388, Control_c, 0, 67, 0
2, 121401, Control_c, 0, 64, 127
2, 121492, Note_on_c, 0, 68, 70
2, 121520, Note_off_c, 0, 65, 64
2, 121605, Note_off_c, 0, 68, 64
2, 121647, Note_off_c, 0, 53, 64
2, 121650, Note_off_c, 0, 56, 64
2, 121808, Note_on_c, 0, 72, 84
2, 121822, Control_c, 0, 64, 0
2, 121953, Control_c, 0, 64, 127
2, 122124, Note_on_c, 0, 49, 77
2, 122160, Control_c, 0, 64, 0
2, 122489, Note_on_c, 0, 53, 56
2, 122813, Note_on_c, 0, 56, 44
2, 122816, Note_on_c, 0, 70, 64
2, 122949, Note_on_c, 0, 68, 70
2, 123097, Note_on_c, 0, 67, 68
2, 123116, Note_on_c, 0, 58, 53
2, 123135, Note_off_c, 0, 68, 64
2, 123163, Note_off_c, 0, 56, 64
2, 123170, Note_off_c, 0, 70, 64
2, 123178, Note_off_c, 0, 53, 64
2, 123241, Note_off_c, 0, 72, 64
2, 123273, Note_off_c, 0, 67, 64
2, 123417, Note_off_c, 0, 58, 64
2, 123430, Note_on_c, 0, 65, 62
2, 123439, Note_on_c, 0, 59, 46
2, 123593, Note_off_c, 0, 65, 64
2, 123689, Control_c, 0, 64, 127
2, 123717, Note_off_c, 0, 59, 64
2, 123870, Control_c, 0, 64, 0
2, 123888, Note_on_c, 0, 68, 57
2, 123895, Note_on_c, 0, 65, 48
2, 123896, Note_on_c, 0, 60, 35
2, 123902, Note_on_c, 0, 48, 35
2, 124001, Note_off_c, 0, 49, 64
2, 124427, Control_c, 0, 67, 127
2, 124575, Note_off_c, 0, 65, 64
2, 124664, Note_on_c, 0, 67, 37
2, 124673, Note_on_c, 0, 64, 35
2, 124731, Note_off_c, 0, 68, 64
2, 124841, Control_c, 0, 64, 127
2, 124885, Note_off_c, 0, 64, 64
2, 124893, Note_off_c, 0, 67, 64
2, 125033, Note_off_c, 0, 60, 64
2, 125154, Control_c, 0, 64, 0
2, 125157, Note_on_c, 0, 72, 39
2, 125181, Note_off_c, 0, 48, 64
2, 125507, Note_on_c, 0, 77, 46
2, 125534, Note_off_c, 0, 72, 64
2, 125808, Control_c, 0, 64, 127
2, 125810, Note_off_c, 0, 77, 64
2, 125816, Note_on_c, 0, 80, 52
2, 125829, Note_on_c, 0, 44, 35
2, 125988, Note_off_c, 0, 80, 64
2, 126130, Control_c, 0, 64, 0
2, 126153, Note_on_c, 0, 79, 63
2, 126170, Note_on_c, 0, 46, 38
2, 126287, Note_off_c, 0, 44, 64
2, 126435, Control_c, 0, 64, 127
2, 126473, Note_on_c, 0, 77, 53
2, 126483, Note_on_c, 0, 58, 48
2, 126515, Control_c, 0, 67, 0
2, 126546, Note_off_c, 0, 79, 64
2, 126547, Note_off_c, 0, 46, 64
2, 126589, Note_off_c, 0, 58, 64
2, 126718, Control_c, 0, 64, 0
2, 126798, Note_on_c, 0, 59, 59
2, 126959, Control_c, 0, 64, 127
2, 127133, Note_on_c, 0, 72, 57
2, 127145, Note_on_c, 0, 60, 46
2, 127175, Control_c, 0, 64, 0
2, 127195, Note_off_c, 0, 59, 64
2, 127212, Note_off_c, 0, 77, 64
2, 127357, Control_c, 0, 64, 127
2, 127387, Note_off_c, 0, 60, 64
2, 127422, Note_on_c, 0, 77, 72
2, 127536, Note_off_c, 0, 72, 64
2, 127699, Note_off_c, 0, 77, 64
2, 127722, Control_c, 0, 64, 0
2, 127727, Note_on_c, 0, 80, 75
2, 127727, Note_on_c, 0, 48, 50
2, 127817, Control_c, 0, 64, 127
2, 127837, Note_off_c, 0, 80, 64
2, 127994, Control_c, 0, 64, 0
2, 128037, Note_on_c, 0, 79, 81
2, 128044, Note_on_c, 0, 49, 59
2, 128071, Note_off_c, 0, 48, 64
2, 128341, Note_on_c, 0, 77, 72
2, 128359, Note_on_c, 0, 61, 63
2, 128384, Note_off_c, 0, 79, 64
2, 128408, Note_off_c, 0, 49, 64
2, 128409, Control_c, 0, 64, 127
2, 128527, Note_off_c, 0, 77, 64
2, 128661, Note_off_c, 0, 61, 64
2, 128686, Note_on_c, 0, 63, 79
2, 128703, Control_c, 0, 64, 0
2, 128802, Control_c, 0, 64, 127
2, 128821, Note_off_c, 0, 63, 64
2, 128993, Control_c, 0, 64, 0
2, 128997, Note_on_c, 0, 77, 84
2, 129003, Note_on_c, 0, 69, 71
2, 129003, Note_on_c, 0, 72, 68
2, 129004, Note_on_c, 0, 75, 73
2, 129010, Note_on_c, 0, 48, 63
2, 129013, Note_on_c, 0, 60, 65
2, 129061, Control_c, 0, 64, 127
2, 129063, Note_off_c, 0, 60, 64
2, 129064, Note_off_c, 0, 48, 64
2, 129167, Note_off_c, 0, 69, 64
2, 129174, Note_off_c, 0, 72, 64
2, 129194, Note_off_c, 0, 77, 64
2, 129252, Note_off_c, 0, 75, 64
2, 129302, Control_c, 0, 64, 0
2, 129308, Note_on_c, 0, 77, 86
2, 129310, Note_on_c, 0, 75, 78
2, 129310, Note_on_c, 0, 72, 78
2, 129310, Note_on_c, 0, 45, 72
2, 129310, Note_on_c, 0, 69, 77
2, 129313, Note_on_c, 0, 57, 70
2, 129338, Note_off_c, 0, 57, 64
2, 129340, Note_off_c, 0, 45, 64
2, 129377, Control_c, 0, 64, 127
2, 129433, Control_c, 0, 64, 0
2, 129450, Control_c, 0, 64, 127
2, 129533, Note_off_c, 0, 69, 64
2, 129539, Note_off_c, 0, 72, 64
2, 129549, Note_off_c, 0, 77, 64
2, 129569, Note_off_c, 0, 75, 64
2, 129604, Note_on_c, 0, 77, 89
2, 129605, Note_on_c, 0, 69, 77
2, 129606, Note_on_c, 0, 72, 82
2, 129606, Note_on_c, 0, 75, 69
2, 129612, Note_on_c, 0, 41, 75
2, 129612, Note_on_c, 0, 53, 70
2, 129614, Control_c, 0, 64, 0
2, 129636, Note_off_c, 0, 53, 64
2, 129647, Note_off_c, 0, 41, 64
2, 129760, Control_c, 0, 64, 127
2, 129838, Note_off_c, 0, 72, 64
2, 129856, Note_off_c, 0, 77, 64
2, 129869, Note_off_c, 0, 69, 64
2, 129893, Note_off_c, 0, 75, 64
2, 129911, Control_c, 0, 64, 0
2, 129919, Note_on_c, 0, 77, 80
2, 129927, Note_on_c, 0, 73, 67
2, 129934, Note_on_c, 0, 58, 45
2, 129937, Note_on_c, 0, 46, 42
2, 129962, Note_off_c, 0, 73, 64
2, 129985, Control_c, 0, 64, 127
2, 130095, Note_on_c, 0, 73, 71
2, 130103, Note_on_c, 0, 70, 70
2, 130131, Note_off_c, 0, 77, 64
2, 130146, Note_off_c, 0, 70, 64
2, 130156, Note_off_c, 0, 73, 64
2, 130219, Control_c, 0, 64, 0
2, 130247, Note_on_c, 0, 73, 70
2, 130251, Note_on_c, 0, 70, 69
2, 130307, Control_c, 0, 64, 127
2, 130326, Note_off_c, 0, 70, 64
2, 130385, Note_off_c, 0, 46, 64
2, 130415, Note_on_c, 0, 70, 69
2, 130429, Note_on_c, 0, 67, 49
2, 130455, Note_off_c, 0, 58, 64
2, 130480, Note_off_c, 0, 73, 64
2, 130501, Note_off_c, 0, 70, 64
2, 130518, Note_off_c, 0, 67, 64
2, 130623, Control_c, 0, 64, 0
2, 130639, Note_on_c, 0, 68, 59
2, 130644, Note_on_c, 0, 65, 44
2, 130649, Note_on_c, 0, 48, 35
2, 130657, Note_on_c, 0, 60, 35
2, 130918, Control_c, 0, 64, 127
2, 131129, Note_off_c, 0, 68, 64
2, 131170, Control_c, 0, 67, 127
2, 131311, Note_off_c, 0, 65, 64
2, 131316, Note_off_c, 0, 48, 64
2, 131397, Note_on_c, 0, 68, 54
2, 131402, Note_on_c, 0, 48, 38
2, 131406, Note_on_c, 0, 64, 45
2, 131409, Control_c, 0, 64, 0
2, 131412, Note_off_c, 0, 60, 64
2, 131593, Note_on_c, 0, 67, 56
2, 131742, Note_on_c, 0, 65, 58
2, 131810, Note_off_c, 0, 67, 64
2, 131847, Note_off_c, 0, 68, 64
2, 131882, Note_on_c, 0, 67, 57
2, 131948, Note_off_c, 0, 65, 64
2, 132078, Note_on_c, 0, 65, 48
2, 132084, Note_off_c, 0, 67, 64
2, 132099, Note_on_c, 0, 53, 35
2, 132130, Note_off_c, 0, 64, 64
2, 132195, Note_off_c, 0, 48, 64
2, 132436, Control_c, 0, 64, 127
2, 132598, Note_off_c, 0, 53, 64
2, 132804, Control_c, 0, 64, 0
2, 132834, Note_on_c, 0, 41, 35
2, 133073, Control_c, 0, 64, 127
2, 133104, Note_off_c, 0, 65, 64
2, 133317, Control_c, 0, 64, 0
2, 133343, Note_on_c, 0, 63, 43
2, 133380, Note_off_c, 0, 41, 64
2, 133670, Note_off_c, 0, 63, 64
2, 133695, Note_on_c, 0, 68, 55
2, 133946, Note_off_c, 0, 68, 64
2, 134019, Control_c, 0, 67, 0
2, 134019, Note_on_c, 0, 72, 57
2, 134069, Control_c, 0, 64, 127
2, 134168, Note_off_c, 0, 72, 64
2, 134419, Note_on_c, 0, 75, 61
2, 134422, Control_c, 0, 64, 0
2, 134815, Note_on_c, 0, 56, 35
2, 134848, Control_c, 0, 67, 127
2, 135044, Control_c, 0, 64, 127
2, 135140, Note_on_c, 0, 60, 40
2, 135316, Note_off_c, 0, 56, 64
2, 135427, Note_on_c, 0, 73, 58
2, 135449, Note_on_c, 0, 63, 37
2, 135540, Note_on_c, 0, 72, 64
2, 135636, Note_off_c, 0, 75, 64
2, 135663, Control_c, 0, 64, 0
2, 135704, Note_on_c, 0, 70, 52
2, 135708, Note_on_c, 0, 53, 35
2, 135720, Note_off_c, 0, 63, 64
2, 135746, Note_off_c, 0, 72, 64
2, 135769, Note_off_c, 0, 73, 64
2, 135801, Note_off_c, 0, 60, 64
2, 135847, Note_off_c, 0, 70, 64
2, 136015, Note_on_c, 0, 68, 50
2, 136019, Note_on_c, 0, 62, 35
2, 136134, Note_off_c, 0, 68, 64
2, 136200, Note_off_c, 0, 62, 64
2, 136219, Note_off_c, 0, 53, 64
2, 136341, Note_on_c, 0, 72, 56
2, 136648, Note_on_c, 0, 51, 35
2, 136992, Note_on_c, 0, 55, 35
2, 136992, Note_on_c, 0, 70, 38
2, 137100, Note_off_c, 0, 72, 64
2, 137168, Control_c, 0, 64, 127
2, 137234, Note_off_c, 0, 51, 64
2, 137349, Control_c, 0, 64, 0
2, 137358, Note_on_c, 0, 60, 46
2, 137365, Note_on_c, 0, 52, 36
2, 137368, Note_on_c, 0, 58, 35
2, 137438, Control_c, 0, 64, 127
2, 137468, Note_off_c, 0, 55, 64
2, 137516, Note_off_c, 0, 52, 64
2, 137637, Control_c, 0, 67, 0
2, 137677, Note_on_c, 0, 65, 66
2, 137685, Note_on_c, 0, 56, 48
2, 137688, Note_on_c, 0, 53, 35
2, 137708, Control_c, 0, 64, 0
2, 137722, Note_off_c, 0, 70, 64
2, 137729, Note_off_c, 0, 58, 64
2, 137875, Control_c, 0, 64, 127
2, 137975, Note_on_c, 0, 68, 74
2, 138007, Note_off_c, 0, 60, 64
2, 138045, Note_off_c, 0, 53, 64
2, 138055, Note_off_c, 0, 56, 64
2, 138058, Note_off_c, 0, 65, 64
2, 138092, Note_off_c, 0, 68, 64
2, 138298, Control_c, 0, 64, 0
2, 138318, Note_on_c, 0, 72, 82
2, 138634, Note_on_c, 0, 49, 67
2, 139009, Note_on_c, 0, 53, 46
2, 139194, Control_c, 0, 64, 127
2, 139344, Note_on_c, 0, 70, 56
2, 139344, Note_on_c, 0, 56, 46
2, 139426, Control_c, 0, 64, 0
2, 139475, Note_on_c, 0, 68, 65
2, 139631, Note_on_c, 0, 67, 60
2, 139638, Note_on_c, 0, 58, 46
2, 139663, Note_off_c, 0, 68, 64
2, 139708, Note_off_c, 0, 72, 64
2, 139716, Note_off_c, 0, 70, 64
2, 139723, Note_off_c, 0, 56, 64
2, 139728, Note_off_c, 0, 53, 64
2, 139784, Control_c, 0, 67, 127
2, 139803, Note_off_c, 0, 67, 64
2, 139960, Note_on_c, 0, 65, 50
2, 139967, Note_on_c, 0, 59, 44
2, 139970, Note_off_c, 0, 58, 64
2, 140122, Note_off_c, 0, 65, 64
2, 140147, Control_c, 0, 64, 127
2, 140242, Note_off_c, 0, 59, 64
2, 140337, Control_c, 0, 64, 0
2, 140388, Note_on_c, 0, 68, 53
2, 140393, Note_on_c, 0, 65, 42
2, 140400, Note_on_c, 0, 60, 35
2, 140406, Note_on_c, 0, 48, 35
2, 140490, Note_off_c, 0, 49, 64
2, 140675, Note_off_c, 0, 65, 64
2, 140705, Control_c, 0, 64, 127
2, 141206, Control_c, 0, 64, 0
2, 141211, Note_on_c, 0, 67, 38
2, 141212, Note_on_c, 0, 64, 35
2, 141279, Note_off_c, 0, 68, 64
2, 141405, Control_c, 0, 64, 127
2, 141450, Note_off_c, 0, 64, 64
2, 141481, Note_off_c, 0, 67, 64
2, 141531, Note_off_c, 0, 60, 64
2, 141812, Note_off_c, 0, 48, 64
2, 141830, Note_on_c, 0, 72, 40
2, 141838, Control_c, 0, 64, 0
2, 142180, Note_on_c, 0, 77, 46
2, 142208, Note_off_c, 0, 72, 64
2, 142510, Note_on_c, 0, 80, 51
2, 142525, Note_on_c, 0, 44, 35
2, 142557, Note_off_c, 0, 77, 64
2, 142650, Note_off_c, 0, 80, 64
2, 142878, Note_on_c, 0, 79, 60
2, 142893, Note_on_c, 0, 46, 35
2, 143026, Note_off_c, 0, 44, 64
2, 143220, Note_on_c, 0, 77, 54
2, 143232, Note_on_c, 0, 58, 44
2, 143275, Note_off_c, 0, 79, 64
2, 143318, Note_off_c, 0, 46, 64
2, 143378, Note_off_c, 0, 58, 64
2, 143584, Note_on_c, 0, 59, 54
2, 143677, Control_c, 0, 64, 127
2, 143934, Note_on_c, 0, 72, 54
2, 143942, Note_on_c, 0, 60, 35
2, 143947, Control_c, 0, 64, 0
2, 143969, Note_off_c, 0, 59, 64
2, 143985, Note_off_c, 0, 77, 64
2, 144206, Note_off_c, 0, 60, 64
2, 144246, Note_on_c, 0, 77, 70
2, 144312, Control_c, 0, 67, 0
2, 144335, Control_c, 0, 64, 127
2, 144552, Control_c, 0, 64, 0
2, 144553, Note_on_c, 0, 48, 39
2, 144559, Note_on_c, 0, 80, 68
2, 144572, Note_off_c, 0, 72, 64
2, 144619, Note_off_c, 0, 77, 64
2, 144662, Note_off_c, 0, 80, 64
2, 144695, Control_c, 0, 64, 127
2, 144745, Control_c, 0, 67, 127
2, 144771, Control_c, 0, 64, 0
2, 144871, Note_on_c, 0, 49, 59
2, 144876, Note_on_c, 0, 79, 75
2, 144906, Note_off_c, 0, 48, 64
2, 145055, Control_c, 0, 64, 127
2, 145163, Control_c, 0, 64, 0
2, 145183, Note_on_c, 0, 61, 69
2, 145188, Note_on_c, 0, 77, 76
2, 145219, Note_off_c, 0, 49, 64
2, 145244, Note_off_c, 0, 79, 64
2, 145294, Control_c, 0, 64, 127
2, 145362, Note_off_c, 0, 77, 64
2, 145392, Control_c, 0, 67, 0
2, 145518, Note_on_c, 0, 63, 79
2, 145526, Control_c, 0, 64, 0
2, 145548, Note_off_c, 0, 61, 64
2, 145614, Control_c, 0, 64, 127
2, 145654, Note_off_c, 0, 63, 64
2, 145830, Note_on_c, 0, 77, 78
2, 145831, Note_on_c, 0, 69, 74
2, 145836, Note_on_c, 0, 75, 69
2, 145836, Note_on_c, 0, 72, 71
2, 145836, Control_c, 0, 64, 0
2, 145837, Note_on_c, 0, 60, 76
2, 145838, Note_on_c, 0, 48, 75
2, 145905, Control_c, 0, 64, 127
2, 145910, Note_off_c, 0, 60, 64
2, 145918, Note_off_c, 0, 48, 64
2, 145994, Note_off_c, 0, 72, 64
2, 145999, Note_off_c, 0, 69, 64
2, 145999, Note_off_c, 0, 75, 64
2, 146012, Note_off_c, 0, 77, 64
2, 146061, Control_c, 0, 64, 0
2, 146100, Control_c, 0, 64, 127
2, 146130, Control_c, 0, 64, 0
2, 146170, Note_on_c, 0, 77, 86
2, 146170, Note_on_c, 0, 69, 80
2, 146170, Note_on_c, 0, 72, 80
2, 146170, Note_on_c, 0, 45, 74
2, 146170, Note_on_c, 0, 57, 80
2, 146175, Note_on_c, 0, 75, 78
2, 146235, Control_c, 0, 64, 127
2, 146241, Note_off_c, 0, 57, 64
2, 146247, Note_off_c, 0, 45, 64
2, 146416, Note_off_c, 0, 75, 64
2, 146427, Note_off_c, 0, 69, 64
2, 146447, Note_off_c, 0, 72, 64
2, 146452, Note_off_c, 0, 77, 64
2, 146477, Control_c, 0, 64, 0
2, 146497, Note_on_c, 0, 69, 75
2, 146497, Note_on_c, 0, 72, 71
2, 146498, Note_on_c, 0, 77, 86
2, 146499, Note_on_c, 0, 75, 75
2, 146504, Note_on_c, 0, 41, 82
2, 146508, Note_on_c, 0, 53, 72
2, 146525, Note_off_c, 0, 53, 64
2, 146528, Note_off_c, 0, 41, 64
2, 146557, Control_c, 0, 64, 127
2, 146731, Note_off_c, 0, 72, 64
2, 146733, Note_off_c, 0, 75, 64
2, 146753, Note_off_c, 0, 77, 64
2, 146814, Note_off_c, 0, 69, 64
2, 146860, Control_c, 0, 64, 0
2, 146865, Note_on_c, 0, 73, 70
2, 146865, Note_on_c, 0, 77, 80
2, 146869, Note_on_c, 0, 46, 42
2, 146877, Note_on_c, 0, 58, 39
2, 146973, Control_c, 0, 64, 127
2, 146980, Note_off_c, 0, 73, 64
2, 147099, Note_on_c, 0, 73, 81
2, 147103, Note_on_c, 0, 70, 71
2, 147133, Note_off_c, 0, 77, 64
2, 147175, Note_off_c, 0, 70, 64
2, 147175, Note_off_c, 0, 73, 64
2, 147272, Control_c, 0, 64, 0
2, 147279, Note_on_c, 0, 73, 71
2, 147288, Note_on_c, 0, 70, 67
2, 147341, Control_c, 0, 64, 127
2, 147366, Note_off_c, 0, 70, 64
2, 147443, Note_off_c, 0, 46, 64
2, 147456, Note_on_c, 0, 70, 71
2, 147463, Note_on_c, 0, 67, 59
2, 147492, Note_off_c, 0, 58, 64
2, 147554, Note_off_c, 0, 70, 64
2, 147554, Note_off_c, 0, 73, 64
2, 147580, Note_off_c, 0, 67, 64
2, 147711, Note_on_c, 0, 68, 65
2, 147712, Control_c, 0, 64, 0
2, 147714, Note_on_c, 0, 48, 37
2, 147715, Note_on_c, 0, 65, 54
2, 147728, Note_on_c, 0, 60, 37
2, 148020, Control_c, 0, 64, 127
2, 148269, Note_off_c, 0, 68, 64
2, 148321, Note_off_c, 0, 65, 64
2, 148388, Control_c, 0, 67, 127
2, 148418, Note_off_c, 0, 48, 64
2, 148667, Note_on_c, 0, 68, 61
2, 148675, Note_off_c, 0, 60, 64
2, 148678, Note_on_c, 0, 64, 48
2, 148690, Note_on_c, 0, 48, 38
2, 148695, Control_c, 0, 64, 0
2, 148874, Note_on_c, 0, 67, 64
2, 149027, Note_on_c, 0, 65, 57
2, 149110, Note_off_c, 0, 67, 64
2, 149146, Note_off_c, 0, 68, 64
2, 149148, Control_c, 0, 64, 127
2, 149211, Note_on_c, 0, 67, 54
2, 149264, Note_off_c, 0, 65, 64
2, 149360, Control_c, 0, 64, 0
2, 149420, Note_on_c, 0, 65, 45
2, 149434, Note_on_c, 0, 53, 35
2, 149465, Note_off_c, 0, 64, 64
2, 149505, Note_off_c, 0, 67, 64
2, 149563, Note_off_c, 0, 48, 64
2, 149786, Control_c, 0, 64, 127
2, 149911, Note_off_c, 0, 53, 64
2, 150243, Note_on_c, 0, 41, 35
2, 150389, Note_off_c, 0, 65, 64
2, 150527, Control_c, 0, 64, 0
2, 150822, Note_on_c, 0, 68, 36
2, 150825, Note_on_c, 0, 60, 35
2, 150864, Note_off_c, 0, 41, 64
2, 150933, Control_c, 0, 64, 127
2, 151011, Note_off_c, 0, 60, 64
2, 151022, Note_off_c, 0, 68, 64
2, 151154, Note_on_c, 0, 68, 39
2, 151162, Note_on_c, 0, 60, 35
2, 151362, Note_off_c, 0, 60, 64
2, 151378, Note_off_c, 0, 68, 64
2, 151499, Note_on_c, 0, 68, 38
2, 151501, Note_on_c, 0, 60, 35
2, 151682, Note_off_c, 0, 60, 64
2, 151703, Note_off_c, 0, 68, 64
2, 151876, Note_on_c, 0, 68, 44
2, 151876, Note_on_c, 0, 60, 35
2, 151884, Note_on_c, 0, 41, 35
2, 151886, Control_c, 0, 64, 0
2, 152070, Note_on_c, 0, 53, 35
2, 152145, Control_c, 0, 64, 127
2, 152164, Note_off_c, 0, 53, 64
2, 152241, Note_on_c, 0, 53, 35
2, 152314, Note_off_c, 0, 53, 64
2, 152417, Note_on_c, 0, 53, 35
2, 152491, Note_off_c, 0, 53, 64
2, 152584, Note_on_c, 0, 53, 35
2, 152606, Note_off_c, 0, 60, 64
2, 152649, Note_off_c, 0, 53, 64
2, 152737, Note_on_c, 0, 53, 35
2, 152738, Note_off_c, 0, 68, 64
2, 152798, Note_off_c, 0, 53, 64
2, 152904, Note_on_c, 0, 53, 35
2, 152904, Note_on_c, 0, 67, 46
2, 152908, Note_on_c, 0, 58, 37
2, 152916, Control_c, 0, 64, 0
2, 152984, Note_off_c, 0, 53, 64
2, 153003, Control_c, 0, 64, 127
2, 153061, Note_on_c, 0, 53, 39
2, 153118, Note_off_c, 0, 53, 64
2, 153215, Note_off_c, 0, 58, 64
2, 153223, Note_on_c, 0, 70, 49
2, 153223, Control_c, 0, 64, 0
2, 153223, Note_on_c, 0, 61, 44
2, 153236, Note_on_c, 0, 53, 35
2, 153311, Note_off_c, 0, 53, 64
2, 153329, Control_c, 0, 64, 127
2, 153334, Note_off_c, 0, 67, 64
2, 153359, Note_off_c, 0, 70, 64
2, 153396, Note_on_c, 0, 53, 37
2, 153467, Note_off_c, 0, 53, 64
2, 153480, Note_off_c, 0, 61, 64
2, 153555, Control_c, 0, 64, 0
2, 153557, Note_on_c, 0, 64, 42
2, 153566, Note_on_c, 0, 55, 35
2, 153571, Note_on_c, 0, 53, 35
2, 153639, Control_c, 0, 64, 127
2, 153646, Note_off_c, 0, 53, 64
2, 153713, Note_off_c, 0, 55, 64
2, 153739, Note_on_c, 0, 53, 37
2, 153827, Note_off_c, 0, 41, 64
2, 153848, Note_off_c, 0, 53, 64
2, 153918, Note_on_c, 0, 65, 43
2, 153925, Note_on_c, 0, 41, 36
2, 153930, Note_on_c, 0, 56, 38
2, 153930, Control_c, 0, 64, 0
2, 154008, Note_off_c, 0, 64, 64
2, 154089, Note_on_c, 0, 53, 35
2, 154170, Note_off_c, 0, 53, 64
2, 154170, Control_c, 0, 64, 127
2, 154245, Note_on_c, 0, 53, 37
2, 154319, Note_off_c, 0, 53, 64
2, 154343, Note_off_c, 0, 56, 64
2, 154371, Note_off_c, 0, 65, 64
2, 154409, Note_on_c, 0, 53, 41
2, 154449, Note_off_c, 0, 53, 64
2, 154572, Note_on_c, 0, 53, 35
2, 154638, Note_off_c, 0, 53, 64
2, 154731, Note_on_c, 0, 53, 35
2, 154812, Note_off_c, 0, 53, 64
2, 154889, Note_on_c, 0, 72, 51
2, 154895, Note_on_c, 0, 68, 43
2, 154905, Control_c, 0, 64, 0
2, 154912, Note_on_c, 0, 53, 35
2, 154949, Note_off_c, 0, 53, 64
2, 155000, Control_c, 0, 64, 127
2, 155052, Note_on_c, 0, 53, 37
2, 155095, Note_off_c, 0, 53, 64
2, 155111, Note_off_c, 0, 68, 64
2, 155125, Note_off_c, 0, 72, 64
2, 155222, Note_on_c, 0, 72, 51
2, 155230, Note_on_c, 0, 68, 49
2, 155244, Note_on_c, 0, 53, 36
2, 155292, Note_off_c, 0, 53, 64
2, 155408, Note_on_c, 0, 53, 35
2, 155425, Note_off_c, 0, 68, 64
2, 155448, Note_off_c, 0, 72, 64
2, 155508, Note_off_c, 0, 53, 64
2, 155576, Note_on_c, 0, 72, 49
2, 155579, Note_on_c, 0, 68, 50
2, 155599, Note_on_c, 0, 53, 35
2, 155682, Note_off_c, 0, 53, 64
2, 155804, Note_on_c, 0, 53, 35
2, 155846, Note_off_c, 0, 68, 64
2, 155904, Note_off_c, 0, 41, 64
2, 155916, Note_off_c, 0, 72, 64
2, 155927, Note_off_c, 0, 53, 64
2, 156084, Note_on_c, 0, 72, 46
2, 156088, Note_on_c, 0, 68, 48
2, 156092, Note_on_c, 0, 64, 56
2, 156102, Note_on_c, 0, 41, 40
2, 156136, Control_c, 0, 64, 0
2, 156355, Note_on_c, 0, 53, 35
2, 156370, Control_c, 0, 64, 127
2, 156444, Note_off_c, 0, 53, 64
2, 156539, Note_on_c, 0, 53, 35
2, 156608, Note_off_c, 0, 53, 64
2, 156717, Note_on_c, 0, 53, 35
2, 156803, Note_off_c, 0, 53, 64
2, 156893, Note_on_c, 0, 53, 35
2, 156991, Note_off_c, 0, 53, 64
2, 157012, Note_off_c, 0, 68, 64
2, 157080, Note_on_c, 0, 53, 35
2, 157160, Note_off_c, 0, 53, 64
2, 157261, Note_on_c, 0, 70, 47
2, 157266, Note_on_c, 0, 67, 42
2, 157266, Note_on_c, 0, 53, 35
2, 157278, Control_c, 0, 64, 0
2, 157336, Note_off_c, 0, 72, 64
2, 157349, Control_c, 0, 64, 127
2, 157361, Note_off_c, 0, 53, 64
2, 157442, Note_on_c, 0, 53, 36
2, 157480, Note_off_c, 0, 67, 64
2, 157502, Note_off_c, 0, 70, 64
2, 157539, Note_off_c, 0, 53, 64
2, 157646, Note_on_c, 0, 73, 44
2, 157646, Note_on_c, 0, 70, 40
2, 157647, Note_on_c, 0, 53, 35
2, 157648, Control_c, 0, 64, 0
2, 157752, Control_c, 0, 64, 127
2, 157764, Note_off_c, 0, 53, 64
2, 157804, Note_off_c, 0, 73, 64
2, 157822, Note_off_c, 0, 70, 64
2, 157847, Note_off_c, 0, 64, 64
2, 157859, Note_on_c, 0, 53, 35
2, 157940, Note_off_c, 0, 53, 64
2, 158088, Note_on_c, 0, 64, 39
2, 158101, Note_on_c, 0, 58, 36
2, 158104, Note_on_c, 0, 60, 35
2, 158105, Control_c, 0, 64, 0
2, 158109, Note_on_c, 0, 53, 35
2, 158215, Note_off_c, 0, 53, 64
2, 158232, Control_c, 0, 64, 127
2, 158298, Note_off_c, 0, 64, 64
2, 158338, Note_off_c, 0, 60, 64
2, 158366, Note_on_c, 0, 53, 35
2, 158391, Note_off_c, 0, 58, 64
2, 158488, Note_off_c, 0, 53, 64
2, 158869, Note_on_c, 0, 65, 38
2, 158876, Note_on_c, 0, 60, 35
2, 158880, Note_on_c, 0, 56, 35
2, 158894, Note_on_c, 0, 53, 35
2, 158897, Control_c, 0, 64, 0
2, 159093, Note_off_c, 0, 41, 64
2, 159297, Control_c, 0, 64, 127
2, 159491, Note_off_c, 0, 56, 64
2, 159520, Note_off_c, 0, 60, 64
2, 159552, Note_off_c, 0, 65, 64
2, 159722, Note_off_c, 0, 53, 64
2, 160024, Control_c, 0, 64, 0
2, 160573, Note_on_c, 0, 72, 35
2, 160794, Note_off_c, 0, 72, 64
2, 160812, Control_c, 0, 64, 127
2, 160900, Note_on_c, 0, 72, 37
2, 161023, Note_off_c, 0, 72, 64
2, 161218, Note_on_c, 0, 72, 51
2, 161339, Note_off_c, 0, 72, 64
2, 161522, Control_c, 0, 64, 0
2, 161537, Note_on_c, 0, 72, 48
2, 161549, Note_on_c, 0, 53, 35
2, 161556, Note_on_c, 0, 60, 35
2, 161557, Note_on_c, 0, 57, 35
2, 161636, Control_c, 0, 64, 127
2, 161671, Note_off_c, 0, 72, 64
2, 161691, Note_on_c, 0, 74, 55
2, 161715, Note_off_c, 0, 74, 64
2, 161741, Note_on_c, 0, 72, 57
2, 161766, Note_off_c, 0, 72, 64
2, 161772, Note_on_c, 0, 71, 60
2, 161777, Control_c, 0, 64, 0
2, 161798, Note_off_c, 0, 71, 64
2, 161819, Note_on_c, 0, 72, 60
2, 161856, Note_off_c, 0, 72, 64
2, 161990, Note_on_c, 0, 77, 59
2, 162174, Note_on_c, 0, 72, 37
2, 162180, Note_off_c, 0, 77, 64
2, 162308, Note_off_c, 0, 72, 64
2, 162355, Control_c, 0, 64, 127
2, 162481, Note_off_c, 0, 60, 64
2, 162482, Note_off_c, 0, 57, 64
2, 162488, Note_on_c, 0, 69, 53
2, 162490, Note_off_c, 0, 53, 64
2, 162791, Control_c, 0, 64, 0
2, 162814, Note_on_c, 0, 72, 57
2, 162826, Note_on_c, 0, 55, 35
2, 162834, Note_on_c, 0, 58, 35
2, 162834, Note_on_c, 0, 48, 35
2, 162924, Note_off_c, 0, 69, 64
2, 163139, Note_on_c, 0, 64, 48
2, 163209, Note_off_c, 0, 72, 64
2, 163263, Control_c, 0, 64, 127
2, 163357, Note_off_c, 0, 58, 64
2, 163378, Note_off_c, 0, 55, 64
2, 163509, Control_c, 0, 64, 0
2, 163524, Note_on_c, 0, 67, 48
2, 163539, Note_on_c, 0, 50, 35
2, 163539, Note_on_c, 0, 58, 36
2, 163604, Note_off_c, 0, 64, 64
2, 163629, Note_off_c, 0, 48, 64
2, 163858, Control_c, 0, 64, 127
2, 164004, Note_off_c, 0, 58, 64
2, 164241, Control_c, 0, 64, 0
2, 164250, Note_on_c, 0, 65, 35
2, 164259, Note_on_c, 0, 57, 35
2, 164303, Note_off_c, 0, 67, 64
2, 164400, Control_c, 0, 64, 127
2, 164440, Note_off_c, 0, 50, 64
2, 164442, Note_off_c, 0, 65, 64
2, 164541, Note_off_c, 0, 57, 64
2, 164616, Control_c, 0, 64, 0
2, 164628, Note_on_c, 0, 65, 59
2, 164631, Note_on_c, 0, 60, 46
2, 164639, Note_on_c, 0, 57, 35
2, 164646, Note_on_c, 0, 45, 36
2, 164719, Control_c, 0, 64, 127
2, 164818, Note_off_c, 0, 45, 64
2, 164818, Note_off_c, 0, 57, 64
2, 164832, Control_c, 0, 67, 0
2, 164938, Note_on_c, 0, 67, 65
2, 164939, Note_on_c, 0, 64, 57
2, 164948, Note_on_c, 0, 43, 44
2, 164948, Control_c, 0, 64, 0
2, 164951, Note_on_c, 0, 55, 37
2, 164986, Note_off_c, 0, 65, 64
2, 165033, Control_c, 0, 64, 127
2, 165105, Note_off_c, 0, 55, 64
2, 165106, Note_off_c, 0, 64, 64
2, 165122, Note_off_c, 0, 43, 64
2, 165147, Note_off_c, 0, 60, 64
2, 165218, Note_off_c, 0, 67, 64
2, 165238, Note_on_c, 0, 69, 72
2, 165240, Note_on_c, 0, 65, 53
2, 165245, Control_c, 0, 64, 0
2, 165255, Note_on_c, 0, 41, 43
2, 165256, Note_on_c, 0, 53, 37
2, 165260, Note_on_c, 0, 60, 37
2, 165351, Note_off_c, 0, 41, 64
2, 165351, Control_c, 0, 64, 127
2, 165368, Note_off_c, 0, 65, 64
2, 165371, Note_off_c, 0, 53, 64
2, 165372, Note_off_c, 0, 60, 64
2, 165391, Note_off_c, 0, 69, 64
2, 165560, Note_on_c, 0, 70, 76
2, 165560, Note_on_c, 0, 50, 41
2, 165563, Control_c, 0, 64, 0
2, 165565, Note_on_c, 0, 65, 58
2, 165566, Note_on_c, 0, 62, 44
2, 165671, Control_c, 0, 64, 127
2, 165698, Note_off_c, 0, 62, 64
2, 165721, Note_off_c, 0, 50, 64
2, 165933, Note_on_c, 0, 58, 44
2, 165937, Note_on_c, 0, 46, 40
2, 166096, Note_on_c, 0, 72, 63
2, 166124, Note_off_c, 0, 70, 64
2, 166134, Control_c, 0, 67, 127
2, 166144, Note_off_c, 0, 58, 64
2, 166162, Note_off_c, 0, 72, 64
2, 166164, Note_on_c, 0, 74, 62
2, 166201, Control_c, 0, 64, 0
2, 166227, Note_off_c, 0, 74, 64
2, 166247, Note_on_c, 0, 72, 56
2, 166272, Note_on_c, 0, 57, 35
2, 166273, Note_on_c, 0, 45, 35
2, 166343, Note_off_c, 0, 46, 64
2, 166441, Note_off_c, 0, 72, 64
2, 166458, Control_c, 0, 64, 127
2, 166517, Note_off_c, 0, 65, 64
2, 166614, Note_off_c, 0, 57, 64
2, 166652, Control_c, 0, 64, 0
2, 166698, Note_on_c, 0, 65, 47
2, 166848, Control_c, 0, 64, 127
2, 166994, Control_c, 0, 64, 0
2, 167014, Note_on_c, 0, 64, 45
2, 167020, Note_on_c, 0, 59, 39
2, 167024, Note_on_c, 0, 50, 35
2, 167113, Note_off_c, 0, 65, 64
2, 167122, Note_off_c, 0, 45, 64
2, 167329, Note_on_c, 0, 65, 51
2, 167362, Control_c, 0, 64, 127
2, 167455, Note_off_c, 0, 64, 64
2, 167455, Note_off_c, 0, 59, 64
2, 167510, Note_off_c, 0, 65, 64
2, 167694, Control_c, 0, 64, 0
2, 167714, Note_on_c, 0, 69, 54
2, 167725, Note_on_c, 0, 60, 35
2, 167729, Note_on_c, 0, 65, 38
2, 167730, Note_on_c, 0, 48, 35
2, 167856, Note_off_c, 0, 50, 64
2, 168036, Control_c, 0, 64, 127
2, 168200, Note_off_c, 0, 65, 64
2, 168437, Note_off_c, 0, 69, 64
2, 168489, Note_on_c, 0, 67, 36
2, 168500, Note_on_c, 0, 64, 35
2, 168508, Control_c, 0, 64, 0
2, 168766, Control_c, 0, 64, 127
2, 168768, Note_off_c, 0, 60, 64
2, 168789, Note_off_c, 0, 48, 64
2, 168828, Note_off_c, 0, 67, 64
2, 168855, Note_off_c, 0, 64, 64
2, 168912, Note_on_c, 0, 67, 59
2, 168932, Control_c, 0, 64, 0
2, 168972, Control_c, 0, 64, 127
2, 169077, Note_off_c, 0, 67, 64
2, 169205, Control_c, 0, 64, 0
2, 169222, Note_on_c, 0, 67, 68
2, 169229, Note_on_c, 0, 64, 44
2, 169232, Note_on_c, 0, 60, 39
2, 169242, Control_c, 0, 67, 0
2, 169312, Control_c, 0, 64, 127
2, 169404, Note_off_c, 0, 67, 64
2, 169524, Note_on_c, 0, 67, 65
2, 169600, Note_off_c, 0, 67, 64
2, 169608, Note_off_c, 0, 64, 64
2, 169656, Note_off_c, 0, 60, 64
2, 169844, Note_on_c, 0, 67, 54
2, 169877, Note_on_c, 0, 79, 78
2, 169879, Note_on_c, 0, 59, 38
2, 169884, Note_on_c, 0, 62, 44
2, 169884, Note_on_c, 0, 65, 46
2, 169884, Control_c, 0, 64, 0
2, 169970, Note_off_c, 0, 67, 64
2, 170174, Control_c, 0, 64, 127
2, 170412, Control_c, 0, 64, 0
2, 170427, Note_off_c, 0, 79, 64
2, 170431, Note_on_c, 0, 74, 55
2, 170486, Note_on_c, 0, 71, 57
2, 170493, Note_off_c, 0, 74, 64
2, 170576, Note_off_c, 0, 71, 64
2, 170577, Note_on_c, 0, 67, 35
2, 170692, Control_c, 0, 64, 127
2, 170727, Control_c, 0, 67, 127
2, 170767, Note_off_c, 0, 67, 64
2, 170876, Note_on_c, 0, 67, 58
2, 171025, Note_off_c, 0, 67, 64
2, 171057, Note_off_c, 0, 65, 64
2, 171098, Note_off_c, 0, 62, 64
2, 171143, Control_c, 0, 64, 0
2, 171156, Note_on_c, 0, 67, 67
2, 171156, Note_on_c, 0, 60, 53
2, 171161, Note_on_c, 0, 64, 54
2, 171170, Note_off_c, 0, 59, 64
2, 171218, Control_c, 0, 67, 0
2, 171274, Control_c, 0, 64, 127
2, 171324, Note_off_c, 0, 67, 64
2, 171329, Note_off_c, 0, 64, 64
2, 171345, Note_off_c, 0, 60, 64
2, 171455, Note_on_c, 0, 67, 74
2, 171574, Note_off_c, 0, 67, 64
2, 171726, Note_on_c, 0, 67, 72
2, 171789, Note_on_c, 0, 79, 83
2, 171795, Note_off_c, 0, 67, 64
2, 171795, Note_on_c, 0, 59, 51
2, 171800, Note_on_c, 0, 50, 42
2, 171801, Note_on_c, 0, 53, 48
2, 171801, Control_c, 0, 64, 0
2, 172038, Control_c, 0, 64, 127
2, 172200, Note_off_c, 0, 53, 64
2, 172278, Note_off_c, 0, 59, 64
2, 172454, Note_on_c, 0, 60, 47
2, 172456, Note_on_c, 0, 52, 48
2, 172459, Note_on_c, 0, 55, 43
2, 172477, Control_c, 0, 64, 0
2, 172564, Control_c, 0, 64, 127
2, 172575, Note_off_c, 0, 50, 64
2, 172595, Note_off_c, 0, 79, 64
2, 172605, Note_on_c, 0, 81, 63
2, 172648, Control_c, 0, 64, 0
2, 172658, Note_off_c, 0, 81, 64
2, 172658, Note_on_c, 0, 83, 74
2, 172693, Note_off_c, 0, 83, 64
2, 172746, Control_c, 0, 67, 127
2, 172759, Note_on_c, 0, 84, 59
2, 172784, Note_off_c, 0, 84, 64
2, 172849, Note_off_c, 0, 60, 64
2, 172861, Note_off_c, 0, 55, 64
2, 172865, Note_off_c, 0, 52, 64
2, 172918, Note_on_c, 0, 83, 57
2, 172949, Note_off_c, 0, 83, 64
2, 173066, Note_on_c, 0, 81, 43
2, 173094, Note_off_c, 0, 81, 64
2, 173217, Note_on_c, 0, 79, 44
2, 173260, Note_off_c, 0, 79, 64
2, 173360, Note_on_c, 0, 77, 46
2, 173420, Note_off_c, 0, 77, 64
2, 173514, Note_on_c, 0, 76, 52
2, 173551, Note_off_c, 0, 76, 64
2, 173675, Note_on_c, 0, 73, 47
2, 173818, Control_c, 0, 64, 127
2, 173826, Note_off_c, 0, 73, 64
2, 173832, Note_on_c, 0, 74, 57
2, 173965, Control_c, 0, 64, 0
2, 173974, Note_on_c, 0, 77, 61
2, 173982, Note_off_c, 0, 74, 64
2, 173990, Note_on_c, 0, 62, 36
2, 173990, Note_on_c, 0, 57, 37
2, 173997, Note_on_c, 0, 53, 35
2, 174070, Control_c, 0, 64, 127
2, 174126, Note_off_c, 0, 53, 64
2, 174126, Note_off_c, 0, 77, 64
2, 174130, Note_on_c, 0, 81, 67
2, 174136, Note_off_c, 0, 57, 64
2, 174202, Note_off_c, 0, 62, 64
2, 174326, Control_c, 0, 64, 0
2, 174332, Note_off_c, 0, 81, 64
2, 174342, Note_on_c, 0, 72, 59
2, 174354, Note_on_c, 0, 64, 35
2, 174358, Note_on_c, 0, 55, 35
2, 174364, Note_on_c, 0, 60, 35
2, 174597, Control_c, 0, 64, 127
2, 174778, Note_off_c, 0, 64, 64
2, 175047, Note_on_c, 0, 65, 35
2, 175052, Note_on_c, 0, 62, 35
2, 175065, Control_c, 0, 64, 0
2, 175200, Note_off_c, 0, 60, 64
2, 175255, Control_c, 0, 64, 127
2, 175389, Note_off_c, 0, 72, 64
2, 175389, Note_on_c, 0, 76, 51
2, 175394, Note_on_c, 0, 71, 41
2, 175515, Note_off_c, 0, 65, 64
2, 175571, Note_on_c, 0, 74, 49
2, 175578, Note_off_c, 0, 71, 64
2, 175615, Note_off_c, 0, 76, 64
2, 175669, Note_off_c, 0, 74, 64
2, 175734, Note_off_c, 0, 62, 64
2, 175784, Control_c, 0, 64, 0
2, 175787, Note_on_c, 0, 72, 41
2, 175792, Note_on_c, 0, 60, 35
2, 175798, Note_on_c, 0, 64, 35
2, 175933, Note_off_c, 0, 55, 64
2, 176030, Control_c, 0, 64, 127
2, 176036, Note_off_c, 0, 64, 64
2, 176317, Note_off_c, 0, 60, 64
2, 176525, Note_on_c, 0, 48, 35
2, 176568, Control_c, 0, 64, 0
2, 176736, Note_off_c, 0, 72, 64
2, 176938, Note_on_c, 0, 72, 53
2, 176980, Note_off_c, 0, 48, 64
2, 177100, Control_c, 0, 64, 127
2, 177167, Note_off_c, 0, 72, 64
2, 177303, Note_on_c, 0, 74, 60
2, 177312, Control_c, 0, 64, 0
2, 177396, Note_on_c, 0, 72, 66
2, 177474, Note_off_c, 0, 74, 64
2, 177474, Control_c, 0, 64, 127
2, 177523, Note_off_c, 0, 72, 64
2, 177605, Control_c, 0, 64, 0
2, 177629, Note_on_c, 0, 70, 66
2, 177740, Note_on_c, 0, 69, 59
2, 177778, Note_off_c, 0, 70, 64
2, 177876, Control_c, 0, 64, 127
2, 177911, Note_off_c, 0, 69, 64
2, 178098, Control_c, 0, 64, 0
2, 178105, Note_on_c, 0, 67, 61
2, 178117, Note_on_c, 0, 63, 37
2, 178120, Note_on_c, 0, 60, 36
2, 178445, Control_c, 0, 64, 127
2, 178780, Control_c, 0, 64, 0
2, 178843, Note_on_c, 0, 66, 37
2, 178894, Note_off_c, 0, 67, 64
2, 178959, Control_c, 0, 64, 127
2, 179008, Note_off_c, 0, 60, 64
2, 179066, Note_off_c, 0, 63, 64
2, 179075, Note_off_c, 0, 66, 64
2, 179200, Note_on_c, 0, 66, 55
2, 179202, Note_on_c, 0, 63, 42
2, 179211, Note_on_c, 0, 60, 35
2, 179402, Note_off_c, 0, 63, 64
2, 179508, Control_c, 0, 64, 0
2, 179512, Note_on_c, 0, 67, 59
2, 179522, Note_off_c, 0, 60, 64
2, 179522, Note_on_c, 0, 62, 38
2, 179528, Note_on_c, 0, 58, 39
2, 179582, Note_off_c, 0, 66, 64
2, 179617, Control_c, 0, 64, 127
2, 179651, Note_off_c, 0, 67, 64
2, 179656, Note_off_c, 0, 62, 64
2, 179658, Note_off_c, 0, 58, 64
2, 179769, Control_c, 0, 64, 0
2, 179827, Note_on_c, 0, 69, 67
2, 179832, Note_on_c, 0, 62, 43
2, 179832, Note_on_c, 0, 57, 46
2, 179835, Note_on_c, 0, 60, 48
2, 179837, Note_on_c, 0, 66, 55
2, 179937, Note_off_c, 0, 66, 64
2, 179945, Note_off_c, 0, 69, 64
2, 179971, Control_c, 0, 64, 127
2, 180084, Note_off_c, 0, 57, 64
2, 180124, Note_off_c, 0, 60, 64
2, 180131, Note_off_c, 0, 62, 64
2, 180240, Control_c, 0, 64, 0
2, 180242, Note_on_c, 0, 69, 67
2, 180252, Note_on_c, 0, 66, 52
2, 180263, Note_on_c, 0, 55, 36
2, 180268, Note_on_c, 0, 60, 35
2, 180268, Note_on_c, 0, 62, 35
2, 180593, Note_off_c, 0, 60, 64
2, 180630, Control_c, 0, 64, 127
2, 180819, Note_off_c, 0, 66, 64
2, 180974, Note_off_c, 0, 69, 64
2, 180992, Note_on_c, 0, 70, 44
2, 180997, Note_on_c, 0, 58, 35
2, 180997, Control_c, 0, 64, 0
2, 181006, Note_on_c, 0, 67, 35
2, 181171, Control_c, 0, 64, 127
2, 181179, Note_off_c, 0, 62, 64
2, 181224, Note_off_c, 0, 55, 64
2, 181269, Note_off_c, 0, 58, 64
2, 181284, Note_off_c, 0, 70, 64
2, 181290, Note_off_c, 0, 67, 64
2, 181428, Control_c, 0, 64, 0
2, 181442, Note_on_c, 0, 64, 46
2, 181453, Note_on_c, 0, 61, 36
2, 181461, Note_on_c, 0, 58, 35
2, 181569, Control_c, 0, 64, 127
2, 181662, Note_off_c, 0, 61, 64
2, 181765, Control_c, 0, 64, 0
2, 181773, Note_on_c, 0, 65, 59
2, 181776, Note_on_c, 0, 60, 35
2, 181781, Note_on_c, 0, 57, 43
2, 181788, Note_off_c, 0, 58, 64
2, 181834, Note_off_c, 0, 64, 64
2, 181865, Control_c, 0, 64, 127
2, 181916, Note_off_c, 0, 65, 64
2, 182055, Note_off_c, 0, 57, 64
2, 182088, Note_on_c, 0, 67, 66
2, 182092, Note_on_c, 0, 64, 55
2, 182092, Control_c, 0, 64, 0
2, 182098, Note_on_c, 0, 55, 35
2, 182102, Note_on_c, 0, 58, 42
2, 182181, Control_c, 0, 64, 127
2, 182225, Note_off_c, 0, 55, 64
2, 182234, Note_off_c, 0, 67, 64
2, 182245, Note_off_c, 0, 58, 64
2, 182253, Note_off_c, 0, 64, 64
2, 182385, Note_on_c, 0, 69, 68
2, 182385, Control_c, 0, 64, 0
2, 182389, Note_off_c, 0, 60, 64
2, 182389, Note_on_c, 0, 60, 35
2, 182393, Note_on_c, 0, 65, 58
2, 182397, Note_on_c, 0, 57, 43
2, 182405, Note_on_c, 0, 53, 42
2, 182523, Control_c, 0, 64, 127
2, 182563, Control_c, 0, 67, 0
2, 182678, Note_on_c, 0, 70, 73
2, 182700, Note_on_c, 0, 50, 51
2, 182700, Control_c, 0, 64, 0
2, 182701, Note_off_c, 0, 57, 64
2, 182706, Note_off_c, 0, 53, 64
2, 182757, Note_off_c, 0, 60, 64
2, 182774, Note_off_c, 0, 69, 64
2, 182780, Control_c, 0, 64, 127
2, 183009, Note_on_c, 0, 72, 70
2, 183009, Control_c, 0, 64, 0
2, 183018, Note_on_c, 0, 45, 44
2, 183026, Note_off_c, 0, 50, 64
2, 183060, Note_off_c, 0, 70, 64
2, 183235, Control_c, 0, 64, 127
2, 183320, Note_on_c, 0, 73, 69
2, 183417, Note_off_c, 0, 72, 64
2, 183683, Control_c, 0, 64, 0
2, 183690, Note_on_c, 0, 76, 62
2, 183699, Note_on_c, 0, 46, 37
2, 183723, Note_off_c, 0, 73, 64
2, 183732, Control_c, 0, 67, 127
2, 183761, Note_off_c, 0, 45, 64
2, 183801, Note_on_c, 0, 74, 64
2, 183844, Note_off_c, 0, 76, 64
2, 183870, Note_off_c, 0, 74, 64
2, 183882, Control_c, 0, 64, 127
2, 183920, Note_off_c, 0, 65, 64
2, 184010, Control_c, 0, 64, 0
2, 184060, Note_on_c, 0, 72, 46
2, 184066, Note_on_c, 0, 43, 35
2, 184067, Note_on_c, 0, 67, 38
2, 184119, Note_off_c, 0, 46, 64
2, 184169, Note_on_c, 0, 70, 49
2, 184179, Note_off_c, 0, 72, 64
2, 184245, Note_off_c, 0, 70, 64
2, 184264, Control_c, 0, 64, 127
2, 184348, Note_off_c, 0, 67, 64
2, 184459, Control_c, 0, 64, 0
2, 184472, Note_on_c, 0, 69, 42
2, 184476, Note_on_c, 0, 65, 38
2, 184482, Note_on_c, 0, 48, 35
2, 184556, Note_off_c, 0, 43, 64
2, 184902, Control_c, 0, 64, 127
2, 184987, Note_off_c, 0, 65, 64
2, 185229, Note_on_c, 0, 67, 35
2, 185242, Note_on_c, 0, 64, 35
2, 185252, Control_c, 0, 64, 0
2, 185304, Note_off_c, 0, 69, 64
2, 185430, Control_c, 0, 64, 127
2, 185484, Note_off_c, 0, 64, 64
2, 185513, Note_off_c, 0, 67, 64
2, 185642, Note_off_c, 0, 48, 64
2, 185730, Note_on_c, 0, 72, 51
2, 185755, Control_c, 0, 64, 0
2, 185817, Control_c, 0, 67, 0
2, 185896, Control_c, 0, 64, 127
2, 185948, Note_off_c, 0, 72, 64
2, 186050, Note_on_c, 0, 72, 70
2, 186221, Note_off_c, 0, 72, 64
2, 186387, Note_on_c, 0, 72, 77
2, 186634, Note_off_c, 0, 72, 64
2, 186797, Note_on_c, 0, 82, 86
2, 186804, Note_on_c, 0, 72, 75
2, 186813, Note_on_c, 0, 36, 74
2, 186813, Note_on_c, 0, 48, 75
2, 186824, Control_c, 0, 64, 0
2, 187038, Control_c, 0, 64, 127
2, 187257, Note_off_c, 0, 36, 64
2, 187283, Note_off_c, 0, 48, 64
2, 187370, Note_on_c, 0, 50, 71
2, 187371, Note_on_c, 0, 38, 71
2, 187429, Note_off_c, 0, 38, 64
2, 187439, Note_off_c, 0, 50, 64
2, 187495, Note_on_c, 0, 52, 75
2, 187500, Note_on_c, 0, 40, 69
2, 187524, Control_c, 0, 64, 0
2, 187633, Note_off_c, 0, 40, 64
2, 187645, Note_off_c, 0, 52, 64
2, 187648, Control_c, 0, 64, 127
2, 187700, Note_off_c, 0, 82, 64
2, 187791, Control_c, 0, 64, 0
2, 187801, Note_on_c, 0, 81, 83
2, 187807, Note_on_c, 0, 53, 68
2, 187809, Note_on_c, 0, 41, 69
2, 187886, Note_off_c, 0, 41, 64
2, 187900, Note_off_c, 0, 53, 64
2, 187905, Control_c, 0, 64, 127
2, 188088, Control_c, 0, 64, 0
2, 188099, Note_on_c, 0, 79, 83
2, 188103, Note_on_c, 0, 43, 71
2, 188103, Note_on_c, 0, 55, 72
2, 188116, Note_off_c, 0, 81, 64
2, 188169, Note_off_c, 0, 43, 64
2, 188169, Control_c, 0, 64, 127
2, 188172, Note_off_c, 0, 55, 64
2, 188337, Control_c, 0, 64, 0
2, 188391, Note_on_c, 0, 77, 80
2, 188398, Note_on_c, 0, 69, 70
2, 188401, Note_on_c, 0, 45, 74
2, 188401, Note_on_c, 0, 57, 76
2, 188412, Note_off_c, 0, 79, 64
2, 188475, Control_c, 0, 64, 127
2, 188491, Note_off_c, 0, 57, 64
2, 188492, Note_off_c, 0, 45, 64
2, 188617, Note_off_c, 0, 77, 64
2, 188625, Note_off_c, 0, 69, 64
2, 188798, Note_on_c, 0, 77, 84
2, 188805, Note_on_c, 0, 67, 68
2, 188811, Note_on_c, 0, 58, 57
2, 188816, Note_on_c, 0, 46, 52
2, 188818, Control_c, 0, 64, 0
2, 189177, Control_c, 0, 64, 127
2, 189641, Note_on_c, 0, 76, 59
2, 189671, Control_c, 0, 64, 0
2, 189804, Control_c, 0, 64, 127
2, 189813, Note_off_c, 0, 77, 64
2, 189915, Control_c, 0, 67, 127
2, 189989, Note_off_c, 0, 76, 64
2, 189994, Note_off_c, 0, 72, 64
2, 190243, Note_on_c, 0, 75, 49
2, 190248, Control_c, 0, 64, 0
2, 190410, Note_off_c, 0, 67, 64
2, 190412, Control_c, 0, 64, 127
2, 190447, Note_off_c, 0, 75, 64
2, 190525, Note_off_c, 0, 58, 64
2, 190533, Note_off_c, 0, 46, 64
2, 190585, Note_on_c, 0, 75, 60
2, 190626, Control_c, 0, 64, 0
2, 190767, Control_c, 0, 64, 127
2, 190836, Note_off_c, 0, 75, 64
2, 190923, Note_on_c, 0, 75, 59
2, 191179, Note_off_c, 0, 75, 64
2, 191295, Note_on_c, 0, 65, 35
2, 191300, Note_on_c, 0, 57, 35
2, 191301, Note_on_c, 0, 60, 35
2, 191348, Note_on_c, 0, 75, 49
2, 191366, Note_off_c, 0, 75, 64
2, 191386, Note_on_c, 0, 77, 50
2, 191403, Note_off_c, 0, 77, 64
2, 191413, Note_on_c, 0, 75, 56
2, 191433, Note_off_c, 0, 75, 64
2, 191447, Note_on_c, 0, 77, 56
2, 191467, Note_off_c, 0, 77, 64
2, 191489, Note_on_c, 0, 75, 53
2, 191505, Note_off_c, 0, 75, 64
2, 191512, Note_on_c, 0, 77, 57
2, 191532, Note_off_c, 0, 77, 64
2, 191552, Note_on_c, 0, 75, 56
2, 191565, Note_off_c, 0, 75, 64
2, 191572, Control_c, 0, 64, 0
2, 191573, Note_on_c, 0, 77, 56
2, 191592, Note_off_c, 0, 77, 64
2, 191609, Note_on_c, 0, 75, 68
2, 191803, Note_on_c, 0, 77, 70
2, 191814, Control_c, 0, 64, 127
2, 191886, Note_off_c, 0, 75, 64
2, 191915, Note_off_c, 0, 65, 64
2, 191922, Note_off_c, 0, 57, 64
2, 191928, Note_off_c, 0, 60, 64
2, 192008, Control_c, 0, 64, 0
2, 192021, Note_on_c, 0, 79, 67
2, 192040, Note_on_c, 0, 57, 35
2, 192041, Note_on_c, 0, 60, 35
2, 192046, Note_on_c, 0, 65, 35
2, 192148, Note_off_c, 0, 77, 64
2, 192402, Control_c, 0, 64, 127
2, 192441, Note_on_c, 0, 77, 46
2, 192463, Note_off_c, 0, 79, 64
2, 192604, Note_on_c, 0, 75, 61
2, 192612, Note_off_c, 0, 57, 64
2, 192627, Note_off_c, 0, 65, 64
2, 192667, Note_off_c, 0, 77, 64
2, 192670, Note_off_c, 0, 60, 64
2, 192682, Note_off_c, 0, 75, 64
2, 192760, Control_c, 0, 64, 0
2, 192766, Note_on_c, 0, 75, 55
2, 192785, Note_on_c, 0, 65, 35
2, 192785, Note_on_c, 0, 57, 35
2, 192787, Note_on_c, 0, 63, 35
2, 192944, Note_on_c, 0, 74, 58
2, 192974, Control_c, 0, 64, 127
2, 192982, Note_off_c, 0, 75, 64
2, 193017, Note_off_c, 0, 74, 64
2, 193092, Control_c, 0, 64, 0
2, 193110, Note_on_c, 0, 74, 53
2, 193156, Control_c, 0, 64, 127
2, 193277, Note_on_c, 0, 73, 55
2, 193286, Note_off_c, 0, 65, 64
2, 193299, Note_off_c, 0, 63, 64
2, 193306, Note_off_c, 0, 74, 64
2, 193385, Note_off_c, 0, 73, 64
2, 193525, Note_on_c, 0, 73, 49
2, 193531, Control_c, 0, 64, 0
2, 193537, Note_on_c, 0, 58, 35
2, 193539, Note_on_c, 0, 65, 35
2, 193540, Note_on_c, 0, 62, 35
2, 193594, Note_off_c, 0, 57, 64
2, 193857, Control_c, 0, 64, 127
2, 194336, Note_on_c, 0, 74, 37
2, 194361, Control_c, 0, 64, 0
2, 194424, Note_off_c, 0, 73, 64
2, 194520, Control_c, 0, 64, 127
2, 194686, Note_off_c, 0, 74, 64
2, 194796, Note_on_c, 0, 77, 40
2, 194928, Note_off_c, 0, 65, 64
2, 194963, Note_on_c, 0, 76, 58
2, 194988, Note_off_c, 0, 58, 64
2, 194988, Note_off_c, 0, 62, 64
2, 194999, Note_off_c, 0, 77, 64
2, 195051, Control_c, 0, 64, 0
2, 195116, Note_on_c, 0, 79, 58
2, 195159, Note_off_c, 0, 76, 64
2, 195277, Note_on_c, 0, 77, 58
2, 195318, Note_off_c, 0, 79, 64
2, 195432, Note_on_c, 0, 76, 59
2, 195479, Note_off_c, 0, 77, 64
2, 195527, Control_c, 0, 64, 127
2, 195599, Note_on_c, 0, 74, 61
2, 195665, Note_off_c, 0, 76, 64
2, 195788, Note_off_c, 0, 74, 64
2, 195854, Control_c, 0, 64, 0
2, 195859, Note_on_c, 0, 74, 59
2, 195884, Note_on_c, 0, 58, 35
2, 195888, Note_on_c, 0, 62, 35
2, 195889, Note_on_c, 0, 53, 35
2, 196174, Control_c, 0, 64, 127
2, 196201, Note_off_c, 0, 62, 64
2, 196390, Note_off_c, 0, 58, 64
2, 196667, Control_c, 0, 64, 0
2, 196677, Note_on_c, 0, 72, 35
2, 196687, Note_on_c, 0, 57, 35
2, 196689, Note_on_c, 0, 60, 35
2, 196707, Note_off_c, 0, 74, 64
2, 197024, Note_off_c, 0, 72, 64
2, 197024, Note_on_c, 0, 77, 51
2, 197108, Note_off_c, 0, 60, 64
2, 197112, Note_off_c, 0, 53, 64
2, 197129, Note_off_c, 0, 57, 64
2, 197177, Control_c, 0, 64, 127
2, 197304, Note_on_c, 0, 72, 60
2, 197327, Control_c, 0, 64, 0
2, 197361, Note_off_c, 0, 77, 64
2, 197362, Note_on_c, 0, 81, 70
2, 197392, Note_off_c, 0, 72, 64
2, 197531, Control_c, 0, 64, 127
2, 197606, Note_on_c, 0, 77, 66
2, 197619, Control_c, 0, 64, 0
2, 197646, Note_off_c, 0, 81, 64
2, 197664, Note_on_c, 0, 72, 74
2, 197699, Note_off_c, 0, 77, 64
2, 197749, Control_c, 0, 67, 0
2, 197782, Control_c, 0, 64, 127
2, 197898, Note_off_c, 0, 72, 64
2, 197900, Control_c, 0, 67, 127
2, 197923, Note_on_c, 0, 69, 66
2, 197976, Control_c, 0, 64, 0
2, 197990, Note_on_c, 0, 72, 66
2, 197999, Note_off_c, 0, 69, 64
2, 198001, Note_on_c, 0, 52, 39
2, 198001, Note_on_c, 0, 55, 35
2, 198006, Note_on_c, 0, 60, 42
2, 198373, Control_c, 0, 64, 127
2, 198502, Note_on_c, 0, 71, 54
2, 198559, Note_off_c, 0, 72, 64
2, 198645, Control_c, 0, 64, 0
2, 198723, Note_off_c, 0, 71, 64
2, 198726, Note_on_c, 0, 70, 38
2, 198824, Control_c, 0, 64, 127
2, 198862, Note_off_c, 0, 70, 64
2, 198864, Note_off_c, 0, 60, 64
2, 198897, Note_off_c, 0, 55, 64
2, 198897, Note_off_c, 0, 52, 64
2, 199044, Control_c, 0, 64, 0
2, 199061, Note_on_c, 0, 67, 61
2, 199066, Note_on_c, 0, 64, 50
2, 199075, Note_on_c, 0, 58, 41
2, 199084, Note_on_c, 0, 46, 35
2, 199156, Control_c, 0, 64, 127
2, 199262, Note_off_c, 0, 58, 64
2, 199293, Note_off_c, 0, 67, 64
2, 199298, Note_off_c, 0, 64, 64
2, 199313, Note_on_c, 0, 60, 72
2, 199345, Control_c, 0, 64, 0
2, 199365, Control_c, 0, 67, 0
2, 199368, Note_off_c, 0, 46, 64
2, 199368, Note_on_c, 0, 69, 72
2, 199372, Note_on_c, 0, 65, 62
2, 199376, Note_on_c, 0, 57, 48
2, 199381, Note_off_c, 0, 60, 64
2, 199381, Note_on_c, 0, 45, 47
2, 199474, Control_c, 0, 64, 127
2, 199494, Note_off_c, 0, 57, 64
2, 199577, Note_off_c, 0, 65, 64
2, 199582, Note_off_c, 0, 69, 64
2, 199607, Note_on_c, 0, 60, 70
2, 199652, Control_c, 0, 64, 0
2, 199659, Note_off_c, 0, 45, 64
2, 199659, Note_on_c, 0, 55, 57
2, 199659, Note_on_c, 0, 70, 76
2, 199665, Note_on_c, 0, 43, 52
2, 199666, Note_on_c, 0, 67, 71
2, 199682, Note_off_c, 0, 60, 64
2, 199755, Control_c, 0, 64, 127
2, 199809, Note_off_c, 0, 55, 64
2, 199878, Note_off_c, 0, 67, 64
2, 199886, Note_on_c, 0, 60, 69
2, 199894, Note_off_c, 0, 70, 64
2, 199937, Control_c, 0, 64, 0
2, 199941, Note_off_c, 0, 60, 64
2, 199947, Note_off_c, 0, 43, 64
2, 199954, Note_on_c, 0, 69, 67
2, 199955, Note_on_c, 0, 72, 74
2, 199960, Note_on_c, 0, 53, 54
2, 199961, Note_on_c, 0, 41, 48
2, 200010, Note_off_c, 0, 69, 64
2, 200027, Note_off_c, 0, 72, 64
2, 200137, Note_on_c, 0, 74, 76
2, 200196, Note_off_c, 0, 41, 64
2, 200198, Note_off_c, 0, 53, 64
2, 200244, Note_off_c, 0, 74, 64
2, 200321, Note_on_c, 0, 76, 72
2, 200390, Note_off_c, 0, 76, 64
2, 200535, Note_on_c, 0, 77, 59
2, 200621, Note_off_c, 0, 77, 64
2, 200785, Control_c, 0, 67, 127
2, 200873, Note_on_c, 0, 65, 41
2, 200881, Note_on_c, 0, 60, 35
2, 200881, Note_on_c, 0, 57, 35
2, 200882, Note_on_c, 0, 48, 35
2, 201072, Control_c, 0, 64, 127
2, 201280, Note_off_c, 0, 57, 64
2, 201605, Control_c, 0, 64, 0
2, 201618, Note_on_c, 0, 58, 35
2, 201701, Control_c, 0, 64, 127
2, 201799, Note_off_c, 0, 60, 64
2, 201936, Note_off_c, 0, 58, 64
2, 201952, Note_off_c, 0, 65, 64
2, 202004, Note_on_c, 0, 69, 47
2, 202010, Note_on_c, 0, 64, 37
2, 202207, Note_on_c, 0, 67, 55
2, 202358, Note_off_c, 0, 64, 64
2, 202395, Note_off_c, 0, 69, 64
2, 202447, Note_on_c, 0, 65, 46
2, 202452, Control_c, 0, 64, 0
2, 202455, Note_on_c, 0, 53, 35
2, 202459, Note_on_c, 0, 57, 35
2, 202507, Note_off_c, 0, 67, 64
2, 202578, Note_off_c, 0, 48, 64
2, 202701, Control_c, 0, 64, 127
2, 202714, Note_off_c, 0, 57, 64
2, 202954, Note_off_c, 0, 53, 64
2, 203335, Note_on_c, 0, 41, 35
2, 203376, Control_c, 0, 64, 0
2, 203448, Note_off_c, 0, 65, 64
2, 203455, Control_c, 0, 64, 127
2, 203787, Control_c, 0, 64, 0
2, 203899, Note_on_c, 0, 69, 35
2, 203899, Note_on_c, 0, 60, 35
2, 203911, Note_off_c, 0, 41, 64
2, 204117, Control_c, 0, 64, 127
2, 204163, Note_off_c, 0, 60, 64
2, 204178, Note_off_c, 0, 69, 64
2, 204296, Note_on_c, 0, 69, 35
2, 204302, Note_on_c, 0, 60, 35
2, 204545, Note_off_c, 0, 60, 64
2, 204576, Note_off_c, 0, 69, 64
2, 204694, Note_on_c, 0, 69, 35
2, 204699, Note_on_c, 0, 60, 35
2, 204912, Note_off_c, 0, 60, 64
2, 204946, Note_off_c, 0, 69, 64
2, 205099, Note_on_c, 0, 41, 35
2, 205104, Note_on_c, 0, 60, 35
2, 205104, Note_on_c, 0, 69, 35
2, 205120, Control_c, 0, 64, 0
2, 205301, Note_on_c, 0, 53, 35
2, 205345, Control_c, 0, 64, 127
2, 205381, Note_off_c, 0, 53, 64
2, 205470, Note_on_c, 0, 53, 35
2, 205555, Note_off_c, 0, 53, 64
2, 205638, Note_on_c, 0, 53, 35
2, 205721, Note_off_c, 0, 53, 64
2, 205806, Note_on_c, 0, 53, 35
2, 205832, Note_off_c, 0, 60, 64
2, 205889, Note_off_c, 0, 53, 64
2, 205912, Note_off_c, 0, 69, 64
2, 205968, Note_on_c, 0, 53, 35
2, 206051, Note_off_c, 0, 53, 64
2, 206138, Note_on_c, 0, 53, 35
2, 206140, Note_on_c, 0, 65, 36
2, 206152, Note_on_c, 0, 57, 35
2, 206222, Note_off_c, 0, 53, 64
2, 206278, Note_off_c, 0, 57, 64
2, 206280, Note_off_c, 0, 65, 64
2, 206302, Note_on_c, 0, 53, 35
2, 206377, Note_off_c, 0, 53, 64
2, 206474, Control_c, 0, 64, 0
2, 206478, Note_on_c, 0, 70, 48
2, 206479, Note_on_c, 0, 53, 35
2, 206482, Note_on_c, 0, 67, 38
2, 206551, Control_c, 0, 64, 127
2, 206555, Note_off_c, 0, 53, 64
2, 206702, Note_on_c, 0, 53, 35
2, 206718, Note_off_c, 0, 67, 64
2, 206786, Note_off_c, 0, 53, 64
2, 206846, Note_on_c, 0, 67, 36
2, 206854, Note_on_c, 0, 64, 39
2, 206867, Note_on_c, 0, 53, 35
2, 206915, Note_off_c, 0, 70, 64
2, 206941, Note_off_c, 0, 53, 64
2, 207018, Note_on_c, 0, 53, 35
2, 207045, Note_off_c, 0, 41, 64
2, 207052, Note_off_c, 0, 67, 64
2, 207093, Note_off_c, 0, 53, 64
2, 207206, Note_on_c, 0, 72, 47
2, 207207, Note_on_c, 0, 41, 35
2, 207211, Control_c, 0, 64, 0
2, 207219, Note_on_c, 0, 69, 40
2, 207294, Note_off_c, 0, 64, 64
2, 207382, Note_on_c, 0, 53, 35
2, 207463, Note_off_c, 0, 53, 64
2, 207473, Control_c, 0, 64, 127
2, 207556, Note_on_c, 0, 53, 35
2, 207624, Note_off_c, 0, 53, 64
2, 207660, Note_off_c, 0, 41, 64
2, 207725, Note_on_c, 0, 53, 39
2, 207756, Note_off_c, 0, 53, 64
2, 207891, Note_off_c, 0, 72, 64
2, 207913, Control_c, 0, 64, 0
2, 207926, Note_on_c, 0, 38, 35
2, 208044, Control_c, 0, 64, 127
2, 208075, Note_off_c, 0, 69, 64
2, 208136, Note_on_c, 0, 50, 35
2, 208203, Note_off_c, 0, 50, 64
2, 208276, Control_c, 0, 64, 0
2, 208299, Note_on_c, 0, 77, 45
2, 208309, Note_on_c, 0, 50, 35
2, 208309, Note_on_c, 0, 69, 35
2, 208362, Control_c, 0, 64, 127
2, 208374, Note_off_c, 0, 50, 64
2, 208479, Note_off_c, 0, 69, 64
2, 208482, Note_on_c, 0, 50, 39
2, 208511, Note_off_c, 0, 77, 64
2, 208515, Note_off_c, 0, 50, 64
2, 208523, Note_off_c, 0, 38, 64
2, 208684, Note_on_c, 0, 77, 54
2, 208692, Note_on_c, 0, 69, 35
2, 208699, Note_on_c, 0, 35, 35
2, 208700, Control_c, 0, 64, 0
2, 208872, Control_c, 0, 64, 127
2, 208895, Note_on_c, 0, 47, 35
2, 208925, Note_off_c, 0, 69, 64
2, 208979, Note_off_c, 0, 47, 64
2, 208983, Note_off_c, 0, 77, 64
2, 209084, Note_on_c, 0, 77, 54
2, 209092, Note_on_c, 0, 47, 35
2, 209096, Note_on_c, 0, 69, 35
2, 209109, Control_c, 0, 64, 0
2, 209155, Note_off_c, 0, 35, 64
2, 209195, Note_off_c, 0, 47, 64
2, 209197, Control_c, 0, 64, 127
2, 209316, Note_on_c, 0, 47, 35
2, 209331, Note_off_c, 0, 77, 64
2, 209371, Note_off_c, 0, 69, 64
2, 209480, Note_off_c, 0, 47, 64
2, 209625, Note_on_c, 0, 69, 44
2, 209633, Note_on_c, 0, 65, 39
2, 209636, Note_on_c, 0, 36, 35
2, 209636, Control_c, 0, 64, 0
2, 209867, Note_on_c, 0, 48, 35
2, 209934, Control_c, 0, 64, 127
2, 209968, Note_off_c, 0, 48, 64
2, 210045, Note_on_c, 0, 48, 35
2, 210138, Note_off_c, 0, 48, 64
2, 210224, Note_on_c, 0, 48, 35
2, 210314, Note_off_c, 0, 48, 64
2, 210410, Note_on_c, 0, 48, 35
2, 210511, Note_off_c, 0, 48, 64
2, 210590, Note_on_c, 0, 48, 35
2, 210607, Note_off_c, 0, 69, 64
2, 210642, Note_off_c, 0, 65, 64
2, 210689, Note_off_c, 0, 48, 64
2, 210768, Note_on_c, 0, 72, 46
2, 210773, Control_c, 0, 64, 0
2, 210775, Note_on_c, 0, 69, 38
2, 210781, Note_on_c, 0, 48, 35
2, 210848, Control_c, 0, 64, 127
2, 210866, Note_off_c, 0, 48, 64
2, 210970, Note_on_c, 0, 48, 35
2, 211057, Note_off_c, 0, 48, 64
2, 211083, Note_off_c, 0, 72, 64
2, 211128, Note_off_c, 0, 69, 64
2, 211163, Note_on_c, 0, 70, 43
2, 211174, Note_on_c, 0, 67, 41
2, 211176, Note_on_c, 0, 48, 35
2, 211179, Control_c, 0, 64, 0
2, 211251, Note_off_c, 0, 48, 64
2, 211299, Control_c, 0, 64, 127
2, 211378, Note_off_c, 0, 70, 64
2, 211387, Note_off_c, 0, 67, 64
2, 211387, Note_on_c, 0, 48, 35
2, 211488, Note_off_c, 0, 48, 64
2, 211619, Note_on_c, 0, 67, 40
2, 211619, Note_on_c, 0, 48, 35
2, 211627, Note_on_c, 0, 58, 35
2, 211644, Control_c, 0, 64, 0
2, 211759, Control_c, 0, 64, 127
2, 211764, Note_off_c, 0, 48, 64
2, 211926, Note_on_c, 0, 48, 35
2, 212029, Note_off_c, 0, 48, 64
2, 212075, Note_off_c, 0, 67, 64
2, 212076, Note_off_c, 0, 36, 64
2, 212112, Note_off_c, 0, 58, 64
2, 212611, Note_on_c, 0, 65, 35
2, 212621, Note_on_c, 0, 57, 35
2, 212628, Note_on_c, 0, 41, 35
2, 212650, Control_c, 0, 64, 0
2, 214480, Note_off_c, 0, 57, 64
2, 214499, Note_off_c, 0, 41, 64
2, 214504, Note_off_c, 0, 65, 64
2, 214504, End_track
3, 0, Start_track
3, 0, Text_t, "Piano (Pedal)"
3, 354, Control_c, 2, 64, 8
3, 366, Control_c, 2, 64, 16
3, 375, Control_c, 2, 64, 24
3, 389, Control_c, 2, 64, 44
3, 419, Control_c, 2, 64, 56
3, 444, Control_c, 2, 64, 60
3, 456, Control_c, 2, 64, 64
3, 481, Control_c, 2, 64, 72
3, 507, Control_c, 2, 64, 80
3, 548, Control_c, 2, 64, 88
3, 563, Control_c, 2, 64, 92
3, 628, Control_c, 2, 64, 88
3, 631, Control_c, 2, 64, 84
3, 637, Control_c, 2, 64, 80
3, 643, Control_c, 2, 64, 76
3, 653, Control_c, 2, 64, 72
3, 728, Control_c, 2, 64, 76
3, 744, Control_c, 2, 64, 80
3, 764, Control_c, 2, 64, 84
3, 774, Control_c, 2, 64, 88
3, 784, Control_c, 2, 64, 92
3, 793, Control_c, 2, 64, 100
3, 811, Control_c, 2, 64, 112
3, 867, Control_c, 2, 64, 127
3, 884, Control_c, 2, 64, 112
3, 898, Control_c, 2, 64, 100
3, 905, Control_c, 2, 64, 92
3, 907, Control_c, 2, 64, 88
3, 910, Control_c, 2, 64, 84
3, 915, Control_c, 2, 64, 80
3, 916, Control_c, 2, 64, 76
3, 920, Control_c, 2, 64, 72
3, 925, Control_c, 2, 64, 68
3, 963, Control_c, 2, 64, 72
3, 982, Control_c, 2, 64, 76
3, 987, Control_c, 2, 64, 80
3, 1002, Control_c, 2, 64, 84
3, 1013, Control_c, 2, 64, 88
3, 1020, Control_c, 2, 64, 92
3, 1030, Control_c, 2, 64, 100
3, 1046, Control_c, 2, 64, 112
3, 1059, Control_c, 2, 64, 127
3, 1201, Control_c, 2, 64, 112
3, 1216, Control_c, 2, 64, 100
3, 1226, Control_c, 2, 64, 92
3, 1229, Control_c, 2, 64, 88
3, 1229, Control_c, 2, 64, 84
3, 1235, Control_c, 2, 64, 80
3, 1238, Control_c, 2, 64, 76
3, 1239, Control_c, 2, 64, 72
3, 1247, Control_c, 2, 64, 68
3, 1284, Control_c, 2, 64, 72
3, 1300, Control_c, 2, 64, 76
3, 1307, Control_c, 2, 64, 80
3, 1320, Control_c, 2, 64, 84
3, 1328, Control_c, 2, 64, 88
3, 1335, Control_c, 2, 64, 92
3, 1343, Control_c, 2, 64, 100
3, 1353, Control_c, 2, 64, 112
3, 1363, Control_c, 2, 64, 127
3, 1420, Control_c, 2, 67, 112
3, 1466, Control_c, 2, 64, 112
3, 1476, Control_c, 2, 64, 100
3, 1481, Control_c, 2, 67, 104
3, 1483, Control_c, 2, 64, 92
3, 1489, Control_c, 2, 64, 88
3, 1489, Control_c, 2, 64, 84
3, 1493, Control_c, 2, 64, 80
3, 1499, Control_c, 2, 64, 76
3, 1501, Control_c, 2, 64, 72
3, 1509, Control_c, 2, 64, 68
3, 1517, Control_c, 2, 64, 64
3, 1542, Control_c, 2, 64, 60
3, 1549, Control_c, 2, 67, 96
3, 1586, Control_c, 2, 64, 64
3, 1600, Control_c, 2, 64, 68
3, 1609, Control_c, 2, 64, 72
3, 1625, Control_c, 2, 64, 76
3, 1635, Control_c, 2, 64, 80
3, 1649, Control_c, 2, 64, 84
3, 1655, Control_c, 2, 64, 88
3, 1662, Control_c, 2, 64, 92
3, 1669, Control_c, 2, 64, 100
3, 1682, Control_c, 2, 64, 112
3, 1697, Control_c, 2, 64, 127
3, 1751, Control_c, 2, 64, 112
3, 1766, Control_c, 2, 64, 100
3, 1773, Control_c, 2, 64, 92
3, 1776, Control_c, 2, 64, 88
3, 1778, Control_c, 2, 64, 84
3, 1781, Control_c, 2, 64, 80
3, 1783, Control_c, 2, 64, 76
3, 1788, Control_c, 2, 64, 72
3, 1791, Control_c, 2, 64, 68
3, 1796, Control_c, 2, 64, 64
3, 1816, Control_c, 2, 64, 60
3, 1823, Control_c, 2, 64, 44
3, 1836, Control_c, 2, 64, 28
3, 1912, Control_c, 2, 64, 44
3, 1920, Control_c, 2, 64, 60
3, 1924, Control_c, 2, 64, 64
3, 1930, Control_c, 2, 64, 68
3, 1932, Control_c, 2, 64, 72
3, 1932, Control_c, 2, 67, 104
3, 1942, Control_c, 2, 64, 76
3, 1952, Control_c, 2, 64, 80
3, 1960, Control_c, 2, 64, 84
3, 1968, Control_c, 2, 64, 88
3, 1972, Control_c, 2, 64, 92
3, 1979, Control_c, 2, 64, 100
3, 1988, Control_c, 2, 64, 112
3, 1995, Control_c, 2, 64, 127
3, 2095, Control_c, 2, 64, 112
3, 2100, Control_c, 2, 64, 100
3, 2108, Control_c, 2, 64, 92
3, 2109, Control_c, 2, 64, 88
3, 2110, Control_c, 2, 64, 84
3, 2112, Control_c, 2, 64, 80
3, 2116, Control_c, 2, 64, 76
3, 2116, Control_c, 2, 64, 72
3, 2118, Control_c, 2, 64, 68
3, 2123, Control_c, 2, 64, 64
3, 2128, Control_c, 2, 64, 60
3, 2159, Control_c, 2, 64, 64
3, 2165, Control_c, 2, 64, 68
3, 2173, Control_c, 2, 64, 72
3, 2178, Control_c, 2, 64, 76
3, 2185, Control_c, 2, 64, 80
3, 2194, Control_c, 2, 64, 84
3, 2201, Control_c, 2, 64, 88
3, 2206, Control_c, 2, 64, 92
3, 2211, Control_c, 2, 64, 100
3, 2217, Control_c, 2, 64, 112
3, 2221, Control_c, 2, 64, 127
3, 2400, Control_c, 2, 64, 112
3, 2421, Control_c, 2, 64, 100
3, 2435, Control_c, 2, 64, 92
3, 2442, Control_c, 2, 64, 88
3, 2448, Control_c, 2, 64, 84
3, 2452, Control_c, 2, 64, 80
3, 2458, Control_c, 2, 64, 76
3, 2462, Control_c, 2, 64, 72
3, 2472, Control_c, 2, 64, 68
3, 2478, Control_c, 2, 64, 64
3, 2488, Control_c, 2, 64, 60
3, 2496, Control_c, 2, 64, 44
3, 2511, Control_c, 2, 64, 28
3, 2525, Control_c, 2, 64, 12
3, 2637, Control_c, 2, 64, 28
3, 2654, Control_c, 2, 64, 44
3, 2662, Control_c, 2, 64, 60
3, 2669, Control_c, 2, 64, 64
3, 2675, Control_c, 2, 64, 68
3, 2682, Control_c, 2, 64, 72
3, 2709, Control_c, 2, 64, 76
3, 2773, Control_c, 2, 64, 72
3, 2778, Control_c, 2, 64, 68
3, 2782, Control_c, 2, 64, 64
3, 2790, Control_c, 2, 64, 60
3, 2801, Control_c, 2, 64, 44
3, 2843, Control_c, 2, 64, 60
3, 2848, Control_c, 2, 64, 64
3, 2854, Control_c, 2, 64, 68
3, 2861, Control_c, 2, 64, 72
3, 2873, Control_c, 2, 64, 76
3, 2881, Control_c, 2, 64, 80
3, 2893, Control_c, 2, 64, 84
3, 2901, Control_c, 2, 64, 88
3, 2909, Control_c, 2, 64, 92
3, 2916, Control_c, 2, 64, 100
3, 2926, Control_c, 2, 64, 112
3, 2937, Control_c, 2, 64, 127
3, 3072, Control_c, 2, 64, 112
3, 3087, Control_c, 2, 64, 100
3, 3103, Control_c, 2, 64, 92
3, 3108, Control_c, 2, 64, 88
3, 3112, Control_c, 2, 64, 84
3, 3118, Control_c, 2, 64, 80
3, 3128, Control_c, 2, 64, 76
3, 3137, Control_c, 2, 64, 72
3, 3147, Control_c, 2, 64, 68
3, 3155, Control_c, 2, 64, 64
3, 3168, Control_c, 2, 64, 60
3, 3180, Control_c, 2, 64, 44
3, 3198, Control_c, 2, 64, 28
3, 3215, Control_c, 2, 64, 12
3, 3384, Control_c, 2, 64, 28
3, 3401, Control_c, 2, 64, 44
3, 3409, Control_c, 2, 64, 60
3, 3415, Control_c, 2, 64, 64
3, 3421, Control_c, 2, 64, 68
3, 3437, Control_c, 2, 64, 72
3, 3463, Control_c, 2, 64, 76
3, 3484, Control_c, 2, 64, 80
3, 3503, Control_c, 2, 64, 84
3, 3516, Control_c, 2, 64, 88
3, 3522, Control_c, 2, 64, 92
3, 3535, Control_c, 2, 64, 100
3, 3553, Control_c, 2, 64, 112
3, 3784, Control_c, 2, 64, 100
3, 3802, Control_c, 2, 64, 92
3, 3807, Control_c, 2, 64, 88
3, 3813, Control_c, 2, 64, 84
3, 3817, Control_c, 2, 64, 80
3, 3820, Control_c, 2, 64, 76
3, 3828, Control_c, 2, 64, 72
3, 3830, Control_c, 2, 64, 68
3, 3838, Control_c, 2, 64, 64
3, 3848, Control_c, 2, 64, 60
3, 3858, Control_c, 2, 64, 44
3, 3917, Control_c, 2, 64, 60
3, 3923, Control_c, 2, 64, 64
3, 3927, Control_c, 2, 64, 68
3, 3933, Control_c, 2, 64, 72
3, 3943, Control_c, 2, 64, 76
3, 3955, Control_c, 2, 64, 80
3, 3968, Control_c, 2, 64, 84
3, 3976, Control_c, 2, 64, 88
3, 3980, Control_c, 2, 64, 92
3, 3988, Control_c, 2, 64, 100
3, 4003, Control_c, 2, 64, 112
3, 4013, Control_c, 2, 64, 127
3, 4124, Control_c, 2, 64, 112
3, 4134, Control_c, 2, 64, 100
3, 4142, Control_c, 2, 64, 92
3, 4144, Control_c, 2, 64, 84
3, 4150, Control_c, 2, 64, 80
3, 4152, Control_c, 2, 64, 76
3, 4154, Control_c, 2, 64, 72
3, 4157, Control_c, 2, 64, 68
3, 4160, Control_c, 2, 64, 64
3, 4166, Control_c, 2, 64, 60
3, 4215, Control_c, 2, 64, 64
3, 4216, Control_c, 2, 67, 96
3, 4223, Control_c, 2, 64, 68
3, 4229, Control_c, 2, 64, 72
3, 4240, Control_c, 2, 64, 76
3, 4253, Control_c, 2, 64, 80
3, 4266, Control_c, 2, 64, 84
3, 4271, Control_c, 2, 64, 88
3, 4271, Control_c, 2, 67, 88
3, 4281, Control_c, 2, 64, 92
3, 4287, Control_c, 2, 64, 100
3, 4295, Control_c, 2, 67, 80
3, 4301, Control_c, 2, 64, 112
3, 4308, Control_c, 2, 67, 72
3, 4311, Control_c, 2, 64, 127
3, 4323, Control_c, 2, 67, 64
3, 4340, Control_c, 2, 67, 48
3, 4453, Control_c, 2, 64, 112
3, 4455, Control_c, 2, 67, 40
3, 4459, Control_c, 2, 64, 100
3, 4462, Control_c, 2, 64, 92
3, 4466, Control_c, 2, 64, 84
3, 4469, Control_c, 2, 64, 80
3, 4472, Control_c, 2, 64, 76
3, 4472, Control_c, 2, 64, 72
3, 4474, Control_c, 2, 64, 68
3, 4477, Control_c, 2, 64, 64
3, 4482, Control_c, 2, 67, 32
3, 4500, Control_c, 2, 64, 60
3, 4512, Control_c, 2, 64, 64
3, 4523, Control_c, 2, 64, 68
3, 4524, Control_c, 2, 67, 24
3, 4530, Control_c, 2, 64, 72
3, 4539, Control_c, 2, 64, 76
3, 4550, Control_c, 2, 64, 80
3, 4550, Control_c, 2, 67, 16
3, 4557, Control_c, 2, 64, 84
3, 4565, Control_c, 2, 64, 88
3, 4570, Control_c, 2, 64, 92
3, 4577, Control_c, 2, 64, 100
3, 4587, Control_c, 2, 64, 112
3, 4593, Control_c, 2, 64, 127
3, 4593, Control_c, 2, 67, 8
3, 4714, Control_c, 2, 67, 0
3, 4740, Control_c, 2, 64, 112
3, 4744, Control_c, 2, 64, 100
3, 4749, Control_c, 2, 64, 92
3, 4752, Control_c, 2, 64, 88
3, 4752, Control_c, 2, 64, 84
3, 4753, Control_c, 2, 64, 80
3, 4756, Control_c, 2, 64, 76
3, 4757, Control_c, 2, 64, 72
3, 4759, Control_c, 2, 64, 68
3, 4759, Control_c, 2, 64, 64
3, 4763, Control_c, 2, 64, 60
3, 4793, Control_c, 2, 64, 64
3, 4801, Control_c, 2, 64, 68
3, 4803, Control_c, 2, 64, 72
3, 4812, Control_c, 2, 64, 76
3, 4817, Control_c, 2, 64, 80
3, 4824, Control_c, 2, 64, 84
3, 4829, Control_c, 2, 64, 88
3, 4831, Control_c, 2, 64, 92
3, 4837, Control_c, 2, 64, 100
3, 4844, Control_c, 2, 64, 112
3, 4849, Control_c, 2, 64, 127
3, 5049, Control_c, 2, 64, 112
3, 5055, Control_c, 2, 64, 100
3, 5064, Control_c, 2, 64, 92
3, 5065, Control_c, 2, 64, 88
3, 5069, Control_c, 2, 64, 84
3, 5069, Control_c, 2, 64, 80
3, 5071, Control_c, 2, 64, 76
3, 5073, Control_c, 2, 64, 72
3, 5076, Control_c, 2, 64, 68
3, 5076, Control_c, 2, 64, 64
3, 5080, Control_c, 2, 64, 60
3, 5083, Control_c, 2, 64, 44
3, 5091, Control_c, 2, 64, 28
3, 5099, Control_c, 2, 64, 12
3, 5106, Control_c, 2, 64, 0
3, 5136, Control_c, 2, 67, 8
3, 5159, Control_c, 2, 64, 12
3, 5167, Control_c, 2, 64, 28
3, 5171, Control_c, 2, 64, 44
3, 5176, Control_c, 2, 64, 60
3, 5179, Control_c, 2, 64, 64
3, 5182, Control_c, 2, 64, 68
3, 5187, Control_c, 2, 64, 72
3, 5189, Control_c, 2, 64, 76
3, 5195, Control_c, 2, 64, 80
3, 5214, Control_c, 2, 64, 84
3, 5222, Control_c, 2, 64, 88
3, 5226, Control_c, 2, 64, 92
3, 5234, Control_c, 2, 64, 100
3, 5244, Control_c, 2, 64, 112
3, 5250, Control_c, 2, 64, 127
3, 5635, Control_c, 2, 64, 112
3, 5642, Control_c, 2, 67, 16
3, 5649, Control_c, 2, 64, 100
3, 5663, Control_c, 2, 64, 92
3, 5669, Control_c, 2, 64, 88
3, 5670, Control_c, 2, 64, 84
3, 5675, Control_c, 2, 64, 80
3, 5677, Control_c, 2, 64, 76
3, 5683, Control_c, 2, 64, 72
3, 5688, Control_c, 2, 64, 68
3, 5689, Control_c, 2, 64, 64
3, 5698, Control_c, 2, 64, 60
3, 5698, Control_c, 2, 67, 24
3, 5705, Control_c, 2, 64, 44
3, 5712, Control_c, 2, 64, 28
3, 5721, Control_c, 2, 64, 12
3, 5728, Control_c, 2, 64, 0
3, 5738, Control_c, 2, 67, 32
3, 5755, Control_c, 2, 67, 40
3, 5772, Control_c, 2, 67, 48
3, 5798, Control_c, 2, 67, 56
3, 5844, Control_c, 2, 64, 12
3, 5845, Control_c, 2, 67, 64
3, 5856, Control_c, 2, 64, 28
3, 5866, Control_c, 2, 64, 44
3, 5871, Control_c, 2, 64, 60
3, 5876, Control_c, 2, 64, 64
3, 5879, Control_c, 2, 64, 68
3, 5880, Control_c, 2, 67, 72
3, 5883, Control_c, 2, 64, 72
3, 5902, Control_c, 2, 64, 76
3, 5906, Control_c, 2, 67, 80
3, 5937, Control_c, 2, 67, 88
3, 5957, Control_c, 2, 64, 80
3, 5962, Control_c, 2, 67, 96
3, 6018, Control_c, 2, 64, 76
3, 6023, Control_c, 2, 67, 104
3, 6055, Control_c, 2, 64, 72
3, 6071, Control_c, 2, 64, 68
3, 6082, Control_c, 2, 67, 112
3, 6088, Control_c, 2, 64, 64
3, 6154, Control_c, 2, 64, 68
3, 6168, Control_c, 2, 64, 72
3, 6184, Control_c, 2, 64, 76
3, 6205, Control_c, 2, 64, 80
3, 6234, Control_c, 2, 64, 84
3, 6254, Control_c, 2, 64, 88
3, 6267, Control_c, 2, 64, 92
3, 6400, Control_c, 2, 64, 88
3, 6405, Control_c, 2, 64, 84
3, 6418, Control_c, 2, 64, 80
3, 6428, Control_c, 2, 64, 76
3, 6434, Control_c, 2, 64, 72
3, 6447, Control_c, 2, 64, 68
3, 6518, Control_c, 2, 64, 72
3, 6539, Control_c, 2, 64, 76
3, 6551, Control_c, 2, 64, 80
3, 6566, Control_c, 2, 64, 84
3, 6579, Control_c, 2, 64, 88
3, 6588, Control_c, 2, 64, 92
3, 6598, Control_c, 2, 64, 100
3, 6619, Control_c, 2, 64, 112
3, 6999, Control_c, 2, 64, 100
3, 7027, Control_c, 2, 64, 92
3, 7057, Control_c, 2, 64, 88
3, 7061, Control_c, 2, 64, 84
3, 7077, Control_c, 2, 64, 80
3, 7087, Control_c, 2, 64, 76
3, 7100, Control_c, 2, 64, 72
3, 7117, Control_c, 2, 64, 68
3, 7132, Control_c, 2, 64, 64
3, 7147, Control_c, 2, 64, 60
3, 7160, Control_c, 2, 64, 44
3, 7190, Control_c, 2, 64, 28
3, 7317, Control_c, 2, 64, 44
3, 7336, Control_c, 2, 64, 60
3, 7349, Control_c, 2, 64, 64
3, 7361, Control_c, 2, 64, 68
3, 7383, Control_c, 2, 64, 72
3, 7407, Control_c, 2, 64, 76
3, 7427, Control_c, 2, 64, 80
3, 7441, Control_c, 2, 64, 84
3, 7457, Control_c, 2, 64, 88
3, 7463, Control_c, 2, 64, 92
3, 7474, Control_c, 2, 64, 100
3, 7492, Control_c, 2, 64, 112
3, 7518, Control_c, 2, 64, 127
3, 7761, Control_c, 2, 64, 112
3, 7794, Control_c, 2, 64, 100
3, 7810, Control_c, 2, 64, 92
3, 7814, Control_c, 2, 64, 88
3, 7817, Control_c, 2, 64, 84
3, 7822, Control_c, 2, 64, 80
3, 7824, Control_c, 2, 64, 76
3, 7834, Control_c, 2, 64, 72
3, 7840, Control_c, 2, 64, 68
3, 7852, Control_c, 2, 64, 64
3, 7865, Control_c, 2, 64, 60
3, 7872, Control_c, 2, 64, 44
3, 7880, Control_c, 2, 64, 28
3, 7890, Control_c, 2, 64, 12
3, 7900, Control_c, 2, 64, 0
3, 7966, Control_c, 2, 64, 12
3, 7976, Control_c, 2, 64, 28
3, 7980, Control_c, 2, 64, 44
3, 7989, Control_c, 2, 64, 60
3, 7990, Control_c, 2, 64, 64
3, 7993, Control_c, 2, 64, 68
3, 7999, Control_c, 2, 64, 72
3, 8006, Control_c, 2, 64, 76
3, 8026, Control_c, 2, 64, 80
3, 8040, Control_c, 2, 64, 84
3, 8056, Control_c, 2, 64, 88
3, 8064, Control_c, 2, 64, 92
3, 8079, Control_c, 2, 64, 100
3, 8212, Control_c, 2, 64, 92
3, 8230, Control_c, 2, 64, 88
3, 8234, Control_c, 2, 64, 84
3, 8240, Control_c, 2, 64, 80
3, 8244, Control_c, 2, 64, 76
3, 8247, Control_c, 2, 64, 72
3, 8253, Control_c, 2, 64, 68
3, 8253, Control_c, 2, 64, 64
3, 8260, Control_c, 2, 64, 60
3, 8263, Control_c, 2, 64, 44
3, 8273, Control_c, 2, 64, 28
3, 8285, Control_c, 2, 64, 12
3, 8333, Control_c, 2, 64, 28
3, 8343, Control_c, 2, 64, 44
3, 8348, Control_c, 2, 64, 60
3, 8350, Control_c, 2, 64, 64
3, 8356, Control_c, 2, 64, 68
3, 8359, Control_c, 2, 64, 72
3, 8366, Control_c, 2, 64, 76
3, 8389, Control_c, 2, 64, 80
3, 8403, Control_c, 2, 64, 84
3, 8422, Control_c, 2, 64, 88
3, 8441, Control_c, 2, 67, 104
3, 8449, Control_c, 2, 64, 92
3, 8499, Control_c, 2, 64, 100
3, 8552, Control_c, 2, 64, 112
3, 8572, Control_c, 2, 64, 127
3, 8605, Control_c, 2, 67, 96
3, 8640, Control_c, 2, 67, 88
3, 8671, Control_c, 2, 67, 80
3, 8686, Control_c, 2, 67, 72
3, 8696, Control_c, 2, 67, 64
3, 8709, Control_c, 2, 67, 56
3, 8713, Control_c, 2, 67, 48
3, 8726, Control_c, 2, 67, 40
3, 9179, Control_c, 2, 64, 112
3, 9192, Control_c, 2, 64, 100
3, 9202, Control_c, 2, 64, 92
3, 9209, Control_c, 2, 64, 88
3, 9209, Control_c, 2, 64, 84
3, 9216, Control_c, 2, 64, 80
3, 9219, Control_c, 2, 64, 76
3, 9225, Control_c, 2, 64, 72
3, 9226, Control_c, 2, 64, 68
3, 9232, Control_c, 2, 64, 64
3, 9242, Control_c, 2, 64, 60
3, 9250, Control_c, 2, 64, 44
3, 9262, Control_c, 2, 64, 28
3, 9269, Control_c, 2, 64, 12
3, 9275, Control_c, 2, 64, 0
3, 9406, Control_c, 2, 64, 12
3, 9406, Control_c, 2, 67, 48
3, 9420, Control_c, 2, 64, 28
3, 9436, Control_c, 2, 64, 44
3, 9438, Control_c, 2, 67, 56
3, 9443, Control_c, 2, 64, 60
3, 9446, Control_c, 2, 64, 64
3, 9451, Control_c, 2, 64, 68
3, 9458, Control_c, 2, 64, 72
3, 9465, Control_c, 2, 67, 64
3, 9473, Control_c, 2, 64, 76
3, 9495, Control_c, 2, 64, 80
3, 9503, Control_c, 2, 67, 72
3, 9519, Control_c, 2, 64, 84
3, 9529, Control_c, 2, 67, 80
3, 9531, Control_c, 2, 64, 88
3, 9541, Control_c, 2, 64, 92
3, 9558, Control_c, 2, 64, 100
3, 9578, Control_c, 2, 67, 88
3, 9622, Control_c, 2, 67, 96
3, 9740, Control_c, 2, 64, 92
3, 9756, Control_c, 2, 64, 88
3, 9761, Control_c, 2, 64, 84
3, 9768, Control_c, 2, 64, 80
3, 9775, Control_c, 2, 64, 76
3, 9783, Control_c, 2, 64, 72
3, 9791, Control_c, 2, 64, 68
3, 9798, Control_c, 2, 64, 64
3, 9805, Control_c, 2, 64, 60
3, 9815, Control_c, 2, 64, 44
3, 9828, Control_c, 2, 64, 28
3, 9841, Control_c, 2, 64, 12
3, 9982, Control_c, 2, 64, 28
3, 9992, Control_c, 2, 64, 44
3, 10000, Control_c, 2, 64, 60
3, 10004, Control_c, 2, 64, 64
3, 10010, Control_c, 2, 64, 68
3, 10017, Control_c, 2, 64, 72
3, 10037, Control_c, 2, 64, 76
3, 10063, Control_c, 2, 64, 80
3, 10093, Control_c, 2, 64, 84
3, 10107, Control_c, 2, 64, 88
3, 10117, Control_c, 2, 64, 92
3, 10130, Control_c, 2, 64, 100
3, 10161, Control_c, 2, 64, 112
3, 10204, Control_c, 2, 64, 127
3, 10443, Control_c, 2, 64, 112
3, 10463, Control_c, 2, 64, 100
3, 10470, Control_c, 2, 64, 92
3, 10476, Control_c, 2, 64, 88
3, 10476, Control_c, 2, 64, 84
3, 10478, Control_c, 2, 64, 80
3, 10478, Control_c, 2, 64, 76
3, 10480, Control_c, 2, 64, 72
3, 10482, Control_c, 2, 64, 64
3, 10486, Control_c, 2, 64, 60
3, 10488, Control_c, 2, 64, 44
3, 10492, Control_c, 2, 64, 28
3, 10495, Control_c, 2, 64, 12
3, 10500, Control_c, 2, 64, 0
3, 10546, Control_c, 2, 64, 12
3, 10553, Control_c, 2, 64, 28
3, 10558, Control_c, 2, 64, 44
3, 10563, Control_c, 2, 64, 60
3, 10564, Control_c, 2, 64, 64
3, 10566, Control_c, 2, 64, 68
3, 10568, Control_c, 2, 64, 72
3, 10573, Control_c, 2, 64, 76
3, 10578, Control_c, 2, 64, 80
3, 10588, Control_c, 2, 64, 84
3, 10598, Control_c, 2, 64, 88
3, 10607, Control_c, 2, 64, 92
3, 10614, Control_c, 2, 64, 100
3, 10614, Control_c, 2, 67, 88
3, 10623, Control_c, 2, 64, 112
3, 10632, Control_c, 2, 64, 127
3, 10674, Control_c, 2, 67, 80
3, 10704, Control_c, 2, 67, 72
3, 10721, Control_c, 2, 67, 64
3, 10737, Control_c, 2, 67, 56
3, 10750, Control_c, 2, 67, 48
3, 10788, Control_c, 2, 67, 40
3, 10830, Control_c, 2, 67, 32
3, 10873, Control_c, 2, 67, 24
3, 10928, Control_c, 2, 67, 16
3, 11094, Control_c, 2, 64, 112
3, 11104, Control_c, 2, 64, 100
3, 11115, Control_c, 2, 64, 92
3, 11120, Control_c, 2, 64, 88
3, 11122, Control_c, 2, 64, 84
3, 11125, Control_c, 2, 64, 80
3, 11130, Control_c, 2, 64, 76
3, 11132, Control_c, 2, 64, 72
3, 11137, Control_c, 2, 64, 68
3, 11137, Control_c, 2, 64, 64
3, 11143, Control_c, 2, 64, 60
3, 11144, Control_c, 2, 64, 44
3, 11153, Control_c, 2, 64, 28
3, 11158, Control_c, 2, 64, 12
3, 11162, Control_c, 2, 64, 0
3, 11247, Control_c, 2, 64, 12
3, 11260, Control_c, 2, 64, 28
3, 11266, Control_c, 2, 64, 44
3, 11271, Control_c, 2, 64, 60
3, 11273, Control_c, 2, 64, 64
3, 11276, Control_c, 2, 64, 68
3, 11280, Control_c, 2, 64, 72
3, 11283, Control_c, 2, 64, 76
3, 11293, Control_c, 2, 64, 80
3, 11320, Control_c, 2, 64, 84
3, 11330, Control_c, 2, 64, 88
3, 11340, Control_c, 2, 64, 92
3, 11356, Control_c, 2, 64, 100
3, 11493, Control_c, 2, 67, 24
3, 11812, Control_c, 2, 64, 92
3, 11826, Control_c, 2, 64, 88
3, 11829, Control_c, 2, 64, 84
3, 11836, Control_c, 2, 64, 80
3, 11836, Control_c, 2, 67, 32
3, 11845, Control_c, 2, 64, 76
3, 11849, Control_c, 2, 64, 72
3, 11859, Control_c, 2, 64, 68
3, 11890, Control_c, 2, 67, 40
3, 11952, Control_c, 2, 67, 48
3, 12015, Control_c, 2, 67, 56
3, 12063, Control_c, 2, 67, 64
3, 12099, Control_c, 2, 64, 64
3, 12101, Control_c, 2, 67, 72
3, 12107, Control_c, 2, 64, 60
3, 12111, Control_c, 2, 64, 44
3, 12119, Control_c, 2, 64, 28
3, 12120, Control_c, 2, 67, 80
3, 12123, Control_c, 2, 64, 12
3, 12129, Control_c, 2, 64, 0
3, 12134, Control_c, 2, 67, 88
3, 12144, Control_c, 2, 67, 96
3, 12152, Control_c, 2, 67, 104
3, 12169, Control_c, 2, 67, 112
3, 12204, Control_c, 2, 67, 127
3, 13194, Control_c, 2, 64, 12
3, 13216, Control_c, 2, 64, 28
3, 13228, Control_c, 2, 64, 44
3, 13238, Control_c, 2, 64, 60
3, 13242, Control_c, 2, 64, 64
3, 13246, Control_c, 2, 64, 68
3, 13261, Control_c, 2, 64, 72
3, 13287, Control_c, 2, 64, 76
3, 13302, Control_c, 2, 64, 80
3, 13316, Control_c, 2, 64, 84
3, 13324, Control_c, 2, 64, 88
3, 13330, Control_c, 2, 64, 92
3, 13340, Control_c, 2, 64, 100
3, 13350, Control_c, 2, 64, 112
3, 13357, Control_c, 2, 64, 127
3, 13524, Control_c, 2, 64, 112
3, 13536, Control_c, 2, 64, 100
3, 13546, Control_c, 2, 64, 92
3, 13551, Control_c, 2, 64, 88
3, 13552, Control_c, 2, 64, 84
3, 13558, Control_c, 2, 64, 80
3, 13561, Control_c, 2, 64, 76
3, 13566, Control_c, 2, 64, 72
3, 13568, Control_c, 2, 64, 68
3, 13574, Control_c, 2, 64, 64
3, 13581, Control_c, 2, 64, 60
3, 13592, Control_c, 2, 64, 44
3, 13604, Control_c, 2, 64, 28
3, 13612, Control_c, 2, 64, 12
3, 13747, Control_c, 2, 64, 28
3, 13757, Control_c, 2, 64, 44
3, 13767, Control_c, 2, 64, 60
3, 13773, Control_c, 2, 64, 64
3, 13775, Control_c, 2, 64, 68
3, 13782, Control_c, 2, 64, 72
3, 13798, Control_c, 2, 64, 76
3, 13821, Control_c, 2, 64, 80
3, 13840, Control_c, 2, 64, 84
3, 13851, Control_c, 2, 64, 88
3, 13858, Control_c, 2, 64, 92
3, 13868, Control_c, 2, 64, 100
3, 13885, Control_c, 2, 64, 112
3, 13906, Control_c, 2, 64, 127
3, 14120, Control_c, 2, 64, 112
3, 14145, Control_c, 2, 64, 100
3, 14167, Control_c, 2, 64, 92
3, 14177, Control_c, 2, 64, 88
3, 14180, Control_c, 2, 64, 84
3, 14190, Control_c, 2, 64, 80
3, 14196, Control_c, 2, 64, 76
3, 14203, Control_c, 2, 64, 72
3, 14211, Control_c, 2, 64, 68
3, 14219, Control_c, 2, 64, 64
3, 14229, Control_c, 2, 64, 60
3, 14240, Control_c, 2, 64, 44
3, 14328, Control_c, 2, 64, 60
3, 14337, Control_c, 2, 64, 64
3, 14344, Control_c, 2, 64, 68
3, 14357, Control_c, 2, 64, 72
3, 14375, Control_c, 2, 64, 76
3, 14387, Control_c, 2, 64, 80
3, 14407, Control_c, 2, 64, 84
3, 14417, Control_c, 2, 64, 88
3, 14427, Control_c, 2, 64, 92
3, 14437, Control_c, 2, 64, 100
3, 14462, Control_c, 2, 64, 112
3, 14787, Control_c, 2, 64, 100
3, 14815, Control_c, 2, 64, 92
3, 14825, Control_c, 2, 64, 88
3, 14830, Control_c, 2, 64, 84
3, 14837, Control_c, 2, 64, 80
3, 14845, Control_c, 2, 64, 76
3, 14853, Control_c, 2, 64, 72
3, 14860, Control_c, 2, 64, 68
3, 14865, Control_c, 2, 64, 64
3, 14876, Control_c, 2, 64, 60
3, 14886, Control_c, 2, 64, 44
3, 14901, Control_c, 2, 64, 28
3, 14920, Control_c, 2, 64, 12
3, 14996, Control_c, 2, 64, 28
3, 15009, Control_c, 2, 64, 44
3, 15019, Control_c, 2, 64, 60
3, 15023, Control_c, 2, 64, 64
3, 15029, Control_c, 2, 64, 68
3, 15036, Control_c, 2, 64, 72
3, 15052, Control_c, 2, 64, 76
3, 15069, Control_c, 2, 64, 80
3, 15070, Control_c, 2, 67, 112
3, 15082, Control_c, 2, 64, 84
3, 15091, Control_c, 2, 64, 88
3, 15099, Control_c, 2, 64, 92
3, 15107, Control_c, 2, 64, 100
3, 15122, Control_c, 2, 64, 112
3, 15132, Control_c, 2, 64, 127
3, 15135, Control_c, 2, 67, 104
3, 15180, Control_c, 2, 67, 96
3, 15286, Control_c, 2, 64, 112
3, 15329, Control_c, 2, 64, 100
3, 15334, Control_c, 2, 67, 104
3, 15396, Control_c, 2, 64, 92
3, 15455, Control_c, 2, 64, 88
3, 15474, Control_c, 2, 64, 84
3, 15479, Control_c, 2, 67, 112
3, 15510, Control_c, 2, 64, 80
3, 15540, Control_c, 2, 64, 76
3, 15569, Control_c, 2, 64, 72
3, 15595, Control_c, 2, 64, 68
3, 15615, Control_c, 2, 64, 64
3, 15658, Control_c, 2, 64, 60
3, 15794, Control_c, 2, 64, 44
3, 16053, Control_c, 2, 64, 60
3, 16068, Control_c, 2, 64, 64
3, 16083, Control_c, 2, 64, 68
3, 16095, Control_c, 2, 64, 72
3, 16108, Control_c, 2, 64, 76
3, 16121, Control_c, 2, 64, 80
3, 16136, Control_c, 2, 64, 84
3, 16149, Control_c, 2, 64, 88
3, 16159, Control_c, 2, 64, 92
3, 16169, Control_c, 2, 64, 100
3, 16188, Control_c, 2, 64, 112
3, 16267, Control_c, 2, 64, 100
3, 16278, Control_c, 2, 64, 92
3, 16285, Control_c, 2, 64, 88
3, 16286, Control_c, 2, 64, 84
3, 16289, Control_c, 2, 64, 80
3, 16295, Control_c, 2, 64, 76
3, 16302, Control_c, 2, 64, 72
3, 16378, Control_c, 2, 64, 76
3, 16392, Control_c, 2, 64, 80
3, 16408, Control_c, 2, 64, 84
3, 16418, Control_c, 2, 64, 88
3, 16428, Control_c, 2, 64, 92
3, 16438, Control_c, 2, 64, 100
3, 16459, Control_c, 2, 64, 112
3, 16551, Control_c, 2, 64, 100
3, 16559, Control_c, 2, 64, 92
3, 16561, Control_c, 2, 64, 88
3, 16564, Control_c, 2, 64, 84
3, 16567, Control_c, 2, 64, 80
3, 16572, Control_c, 2, 64, 76
3, 16576, Control_c, 2, 64, 72
3, 16597, Control_c, 2, 64, 76
3, 16618, Control_c, 2, 64, 80
3, 16630, Control_c, 2, 64, 84
3, 16640, Control_c, 2, 64, 88
3, 16647, Control_c, 2, 64, 92
3, 16657, Control_c, 2, 64, 100
3, 16672, Control_c, 2, 64, 112
3, 16692, Control_c, 2, 64, 127
3, 16838, Control_c, 2, 64, 112
3, 16864, Control_c, 2, 64, 100
3, 16876, Control_c, 2, 64, 92
3, 16878, Control_c, 2, 64, 88
3, 16882, Control_c, 2, 64, 84
3, 16886, Control_c, 2, 64, 80
3, 16891, Control_c, 2, 64, 76
3, 16894, Control_c, 2, 64, 72
3, 16898, Control_c, 2, 64, 68
3, 16950, Control_c, 2, 64, 72
3, 16967, Control_c, 2, 64, 76
3, 16980, Control_c, 2, 64, 80
3, 17000, Control_c, 2, 64, 84
3, 17015, Control_c, 2, 64, 88
3, 17022, Control_c, 2, 64, 92
3, 17038, Control_c, 2, 64, 100
3, 17128, Control_c, 2, 64, 92
3, 17135, Control_c, 2, 64, 88
3, 17138, Control_c, 2, 64, 84
3, 17144, Control_c, 2, 64, 80
3, 17148, Control_c, 2, 64, 76
3, 17154, Control_c, 2, 64, 72
3, 17159, Control_c, 2, 64, 68
3, 17163, Control_c, 2, 64, 64
3, 17181, Control_c, 2, 64, 60
3, 17193, Control_c, 2, 64, 44
3, 17234, Control_c, 2, 64, 28
3, 17544, Control_c, 2, 64, 12
3, 17621, Control_c, 2, 64, 28
3, 17631, Control_c, 2, 64, 44
3, 17634, Control_c, 2, 64, 60
3, 17639, Control_c, 2, 64, 64
3, 17641, Control_c, 2, 64, 68
3, 17647, Control_c, 2, 64, 72
3, 17657, Control_c, 2, 64, 76
3, 17671, Control_c, 2, 64, 80
3, 17687, Control_c, 2, 64, 84
3, 17695, Control_c, 2, 64, 88
3, 17700, Control_c, 2, 64, 92
3, 17707, Control_c, 2, 64, 100
3, 17720, Control_c, 2, 64, 112
3, 17734, Control_c, 2, 64, 127
3, 17780, Control_c, 2, 64, 112
3, 17788, Control_c, 2, 64, 100
3, 17793, Control_c, 2, 64, 92
3, 17798, Control_c, 2, 64, 88
3, 17800, Control_c, 2, 64, 84
3, 17823, Control_c, 2, 64, 88
3, 17833, Control_c, 2, 64, 92
3, 17845, Control_c, 2, 64, 100
3, 17858, Control_c, 2, 64, 112
3, 17868, Control_c, 2, 64, 127
3, 18080, Control_c, 2, 64, 112
3, 18100, Control_c, 2, 64, 100
3, 18113, Control_c, 2, 64, 92
3, 18118, Control_c, 2, 64, 88
3, 18120, Control_c, 2, 64, 84
3, 18124, Control_c, 2, 64, 80
3, 18127, Control_c, 2, 64, 76
3, 18133, Control_c, 2, 64, 72
3, 18135, Control_c, 2, 64, 68
3, 18140, Control_c, 2, 64, 64
3, 18150, Control_c, 2, 64, 60
3, 18165, Control_c, 2, 64, 44
3, 18183, Control_c, 2, 64, 28
3, 18256, Control_c, 2, 64, 44
3, 18263, Control_c, 2, 64, 60
3, 18269, Control_c, 2, 64, 64
3, 18276, Control_c, 2, 64, 68
3, 18284, Control_c, 2, 64, 72
3, 18306, Control_c, 2, 64, 76
3, 18319, Control_c, 2, 64, 80
3, 18336, Control_c, 2, 64, 84
3, 18349, Control_c, 2, 64, 88
3, 18357, Control_c, 2, 64, 92
3, 18372, Control_c, 2, 64, 100
3, 18462, Control_c, 2, 64, 112
3, 18865, Control_c, 2, 64, 100
3, 18889, Control_c, 2, 64, 92
3, 18900, Control_c, 2, 64, 88
3, 18908, Control_c, 2, 64, 84
3, 18915, Control_c, 2, 64, 80
3, 18923, Control_c, 2, 64, 76
3, 18936, Control_c, 2, 64, 72
3, 18943, Control_c, 2, 64, 68
3, 18953, Control_c, 2, 64, 64
3, 18968, Control_c, 2, 64, 60
3, 18981, Control_c, 2, 64, 44
3, 19008, Control_c, 2, 64, 28
3, 19160, Control_c, 2, 64, 44
3, 19172, Control_c, 2, 64, 60
3, 19180, Control_c, 2, 64, 64
3, 19185, Control_c, 2, 64, 68
3, 19205, Control_c, 2, 64, 72
3, 19227, Control_c, 2, 64, 76
3, 19247, Control_c, 2, 64, 80
3, 19273, Control_c, 2, 64, 84
3, 19288, Control_c, 2, 64, 88
3, 19295, Control_c, 2, 64, 92
3, 19308, Control_c, 2, 64, 100
3, 19328, Control_c, 2, 64, 112
3, 19567, Control_c, 2, 64, 100
3, 19599, Control_c, 2, 64, 92
3, 19615, Control_c, 2, 64, 88
3, 19618, Control_c, 2, 64, 84
3, 19628, Control_c, 2, 64, 80
3, 19635, Control_c, 2, 64, 76
3, 19640, Control_c, 2, 64, 72
3, 19644, Control_c, 2, 64, 68
3, 19652, Control_c, 2, 64, 64
3, 19658, Control_c, 2, 64, 60
3, 19666, Control_c, 2, 64, 44
3, 19678, Control_c, 2, 64, 28
3, 19741, Control_c, 2, 64, 44
3, 19748, Control_c, 2, 64, 60
3, 19754, Control_c, 2, 64, 64
3, 19755, Control_c, 2, 64, 68
3, 19761, Control_c, 2, 64, 72
3, 19769, Control_c, 2, 64, 76
3, 19781, Control_c, 2, 64, 80
3, 19796, Control_c, 2, 64, 84
3, 19806, Control_c, 2, 64, 88
3, 19814, Control_c, 2, 64, 92
3, 19827, Control_c, 2, 64, 100
3, 19843, Control_c, 2, 64, 112
3, 19861, Control_c, 2, 64, 127
3, 19918, Control_c, 2, 67, 104
3, 19947, Control_c, 2, 64, 112
3, 19963, Control_c, 2, 64, 100
3, 19970, Control_c, 2, 64, 92
3, 19975, Control_c, 2, 64, 88
3, 19975, Control_c, 2, 64, 84
3, 19982, Control_c, 2, 64, 80
3, 19983, Control_c, 2, 64, 76
3, 19985, Control_c, 2, 64, 72
3, 19991, Control_c, 2, 64, 68
3, 19991, Control_c, 2, 64, 64
3, 19998, Control_c, 2, 64, 60
3, 20053, Control_c, 2, 64, 64
3, 20058, Control_c, 2, 64, 68
3, 20065, Control_c, 2, 64, 72
3, 20073, Control_c, 2, 67, 96
3, 20078, Control_c, 2, 64, 76
3, 20091, Control_c, 2, 64, 80
3, 20103, Control_c, 2, 64, 84
3, 20109, Control_c, 2, 64, 88
3, 20113, Control_c, 2, 64, 92
3, 20121, Control_c, 2, 67, 88
3, 20123, Control_c, 2, 64, 100
3, 20136, Control_c, 2, 64, 112
3, 20148, Control_c, 2, 64, 127
3, 20164, Control_c, 2, 67, 80
3, 20188, Control_c, 2, 67, 72
3, 20211, Control_c, 2, 67, 64
3, 20232, Control_c, 2, 67, 56
3, 20274, Control_c, 2, 67, 48
3, 20294, Control_c, 2, 64, 112
3, 20300, Control_c, 2, 64, 100
3, 20304, Control_c, 2, 64, 92
3, 20307, Control_c, 2, 64, 88
3, 20309, Control_c, 2, 64, 84
3, 20312, Control_c, 2, 64, 80
3, 20312, Control_c, 2, 64, 76
3, 20319, Control_c, 2, 64, 72
3, 20351, Control_c, 2, 64, 76
3, 20362, Control_c, 2, 67, 40
3, 20371, Control_c, 2, 64, 80
3, 20380, Control_c, 2, 64, 84
3, 20388, Control_c, 2, 64, 88
3, 20393, Control_c, 2, 64, 92
3, 20405, Control_c, 2, 64, 100
3, 20415, Control_c, 2, 67, 32
3, 20421, Control_c, 2, 64, 112
3, 20438, Control_c, 2, 64, 127
3, 20476, Control_c, 2, 67, 24
3, 20504, Control_c, 2, 67, 16
3, 20538, Control_c, 2, 67, 8
3, 20574, Control_c, 2, 64, 112
3, 20580, Control_c, 2, 64, 100
3, 20582, Control_c, 2, 64, 92
3, 20582, Control_c, 2, 64, 88
3, 20587, Control_c, 2, 64, 84
3, 20587, Control_c, 2, 64, 80
3, 20590, Control_c, 2, 64, 76
3, 20590, Control_c, 2, 64, 72
3, 20591, Control_c, 2, 64, 68
3, 20593, Control_c, 2, 64, 64
3, 20597, Control_c, 2, 64, 60
3, 20619, Control_c, 2, 64, 64
3, 20631, Control_c, 2, 64, 68
3, 20639, Control_c, 2, 64, 72
3, 20647, Control_c, 2, 64, 76
3, 20652, Control_c, 2, 64, 80
3, 20660, Control_c, 2, 64, 84
3, 20660, Control_c, 2, 67, 0
3, 20665, Control_c, 2, 64, 88
3, 20668, Control_c, 2, 64, 92
3, 20674, Control_c, 2, 64, 100
3, 20680, Control_c, 2, 64, 112
3, 20687, Control_c, 2, 64, 127
3, 20880, Control_c, 2, 64, 112
3, 20887, Control_c, 2, 64, 100
3, 20892, Control_c, 2, 64, 92
3, 20897, Control_c, 2, 64, 84
3, 20897, Control_c, 2, 64, 80
3, 20902, Control_c, 2, 64, 76
3, 20904, Control_c, 2, 64, 72
3, 20904, Control_c, 2, 64, 68
3, 20906, Control_c, 2, 64, 64
3, 20912, Control_c, 2, 64, 60
3, 20914, Control_c, 2, 64, 44
3, 20915, Control_c, 2, 67, 8
3, 20924, Control_c, 2, 64, 28
3, 20967, Control_c, 2, 64, 44
3, 20975, Control_c, 2, 64, 60
3, 20979, Control_c, 2, 64, 64
3, 20979, Control_c, 2, 64, 68
3, 20985, Control_c, 2, 64, 72
3, 20990, Control_c, 2, 64, 76
3, 20997, Control_c, 2, 64, 80
3, 21012, Control_c, 2, 64, 84
3, 21017, Control_c, 2, 64, 88
3, 21024, Control_c, 2, 64, 92
3, 21033, Control_c, 2, 64, 100
3, 21040, Control_c, 2, 64, 112
3, 21048, Control_c, 2, 64, 127
3, 21080, Control_c, 2, 67, 16
3, 21440, Control_c, 2, 64, 112
3, 21450, Control_c, 2, 64, 100
3, 21460, Control_c, 2, 64, 92
3, 21463, Control_c, 2, 64, 88
3, 21463, Control_c, 2, 67, 24
3, 21463, Control_c, 2, 64, 84
3, 21467, Control_c, 2, 64, 80
3, 21473, Control_c, 2, 64, 76
3, 21477, Control_c, 2, 64, 72
3, 21483, Control_c, 2, 64, 68
3, 21491, Control_c, 2, 64, 64
3, 21495, Control_c, 2, 67, 32
3, 21503, Control_c, 2, 64, 60
3, 21511, Control_c, 2, 67, 40
3, 21513, Control_c, 2, 64, 44
3, 21521, Control_c, 2, 67, 48
3, 21523, Control_c, 2, 64, 28
3, 21531, Control_c, 2, 67, 56
3, 21533, Control_c, 2, 64, 12
3, 21546, Control_c, 2, 67, 64
3, 21566, Control_c, 2, 64, 0
3, 21568, Control_c, 2, 67, 72
3, 21586, Control_c, 2, 67, 80
3, 21616, Control_c, 2, 67, 88
3, 21626, Control_c, 2, 64, 12
3, 21636, Control_c, 2, 64, 28
3, 21636, Control_c, 2, 67, 96
3, 21643, Control_c, 2, 64, 44
3, 21649, Control_c, 2, 64, 60
3, 21653, Control_c, 2, 64, 64
3, 21653, Control_c, 2, 64, 68
3, 21659, Control_c, 2, 64, 72
3, 21669, Control_c, 2, 64, 76
3, 21669, Control_c, 2, 67, 104
3, 21692, Control_c, 2, 64, 80
3, 21707, Control_c, 2, 67, 112
3, 21720, Control_c, 2, 64, 84
3, 21754, Control_c, 2, 67, 127
3, 21820, Control_c, 2, 64, 80
3, 21878, Control_c, 2, 64, 76
3, 22021, Control_c, 2, 64, 80
3, 22061, Control_c, 2, 64, 84
3, 22096, Control_c, 2, 64, 88
3, 22138, Control_c, 2, 64, 92
3, 22228, Control_c, 2, 64, 88
3, 22243, Control_c, 2, 64, 84
3, 22258, Control_c, 2, 64, 80
3, 22269, Control_c, 2, 64, 76
3, 22331, Control_c, 2, 64, 80
3, 22353, Control_c, 2, 64, 84
3, 22369, Control_c, 2, 64, 88
3, 22382, Control_c, 2, 64, 92
3, 22399, Control_c, 2, 64, 100
3, 22426, Control_c, 2, 64, 112
3, 22830, Control_c, 2, 64, 100
3, 22875, Control_c, 2, 64, 92
3, 22887, Control_c, 2, 64, 88
3, 22895, Control_c, 2, 64, 84
3, 22903, Control_c, 2, 64, 80
3, 22909, Control_c, 2, 64, 76
3, 22918, Control_c, 2, 64, 72
3, 22928, Control_c, 2, 64, 68
3, 22941, Control_c, 2, 64, 64
3, 22952, Control_c, 2, 64, 60
3, 22962, Control_c, 2, 64, 44
3, 22975, Control_c, 2, 64, 28
3, 22982, Control_c, 2, 64, 12
3, 23016, Control_c, 2, 64, 0
3, 23113, Control_c, 2, 64, 12
3, 23132, Control_c, 2, 64, 28
3, 23142, Control_c, 2, 64, 44
3, 23148, Control_c, 2, 64, 60
3, 23157, Control_c, 2, 64, 64
3, 23162, Control_c, 2, 64, 68
3, 23169, Control_c, 2, 64, 72
3, 23192, Control_c, 2, 64, 76
3, 23217, Control_c, 2, 64, 80
3, 23245, Control_c, 2, 64, 84
3, 23262, Control_c, 2, 64, 88
3, 23272, Control_c, 2, 64, 92
3, 23288, Control_c, 2, 64, 100
3, 23308, Control_c, 2, 64, 112
3, 23332, Control_c, 2, 64, 127
3, 23526, Control_c, 2, 64, 112
3, 23587, Control_c, 2, 64, 100
3, 23615, Control_c, 2, 64, 92
3, 23625, Control_c, 2, 64, 88
3, 23633, Control_c, 2, 64, 84
3, 23640, Control_c, 2, 64, 80
3, 23648, Control_c, 2, 64, 76
3, 23655, Control_c, 2, 64, 72
3, 23662, Control_c, 2, 64, 68
3, 23671, Control_c, 2, 64, 64
3, 23680, Control_c, 2, 64, 60
3, 23690, Control_c, 2, 64, 44
3, 23703, Control_c, 2, 64, 28
3, 23713, Control_c, 2, 64, 12
3, 23724, Control_c, 2, 64, 0
3, 23808, Control_c, 2, 64, 12
3, 23824, Control_c, 2, 64, 28
3, 23832, Control_c, 2, 64, 44
3, 23836, Control_c, 2, 64, 60
3, 23841, Control_c, 2, 64, 64
3, 23844, Control_c, 2, 64, 68
3, 23849, Control_c, 2, 64, 72
3, 23859, Control_c, 2, 64, 76
3, 23884, Control_c, 2, 64, 80
3, 23902, Control_c, 2, 64, 84
3, 23924, Control_c, 2, 64, 88
3, 24000, Control_c, 2, 64, 84
3, 24004, Control_c, 2, 64, 80
3, 24013, Control_c, 2, 64, 76
3, 24017, Control_c, 2, 64, 72
3, 24028, Control_c, 2, 64, 68
3, 24060, Control_c, 2, 64, 72
3, 24075, Control_c, 2, 64, 76
3, 24075, Control_c, 2, 67, 112
3, 24083, Control_c, 2, 64, 80
3, 24097, Control_c, 2, 64, 84
3, 24108, Control_c, 2, 64, 88
3, 24116, Control_c, 2, 64, 92
3, 24126, Control_c, 2, 64, 100
3, 24138, Control_c, 2, 64, 112
3, 24151, Control_c, 2, 64, 127
3, 24291, Control_c, 2, 64, 112
3, 24302, Control_c, 2, 64, 100
3, 24312, Control_c, 2, 64, 92
3, 24312, Control_c, 2, 64, 88
3, 24315, Control_c, 2, 64, 84
3, 24315, Control_c, 2, 64, 80
3, 24320, Control_c, 2, 64, 76
3, 24322, Control_c, 2, 64, 72
3, 24324, Control_c, 2, 64, 68
3, 24324, Control_c, 2, 64, 64
3, 24327, Control_c, 2, 64, 60
3, 24337, Control_c, 2, 64, 44
3, 24368, Control_c, 2, 64, 60
3, 24380, Control_c, 2, 64, 64
3, 24385, Control_c, 2, 64, 68
3, 24392, Control_c, 2, 64, 72
3, 24395, Control_c, 2, 67, 104
3, 24408, Control_c, 2, 64, 76
3, 24420, Control_c, 2, 64, 80
3, 24431, Control_c, 2, 64, 84
3, 24437, Control_c, 2, 64, 88
3, 24443, Control_c, 2, 67, 96
3, 24445, Control_c, 2, 64, 92
3, 24453, Control_c, 2, 64, 100
3, 24466, Control_c, 2, 64, 112
3, 24476, Control_c, 2, 64, 127
3, 24485, Control_c, 2, 67, 88
3, 24514, Control_c, 2, 67, 80
3, 24528, Control_c, 2, 67, 72
3, 24540, Control_c, 2, 67, 64
3, 24552, Control_c, 2, 67, 56
3, 24556, Control_c, 2, 67, 48
3, 24609, Control_c, 2, 67, 40
3, 24850, Control_c, 2, 64, 112
3, 24873, Control_c, 2, 64, 100
3, 24886, Control_c, 2, 67, 48
3, 24889, Control_c, 2, 64, 92
3, 24893, Control_c, 2, 64, 88
3, 24896, Control_c, 2, 64, 84
3, 24900, Control_c, 2, 64, 80
3, 24904, Control_c, 2, 64, 76
3, 24908, Control_c, 2, 64, 72
3, 24911, Control_c, 2, 64, 68
3, 24918, Control_c, 2, 64, 64
3, 24928, Control_c, 2, 64, 60
3, 24941, Control_c, 2, 64, 44
3, 24951, Control_c, 2, 64, 28
3, 24957, Control_c, 2, 64, 12
3, 24961, Control_c, 2, 64, 0
3, 25068, Control_c, 2, 64, 12
3, 25080, Control_c, 2, 64, 28
3, 25080, Control_c, 2, 67, 56
3, 25087, Control_c, 2, 64, 44
3, 25097, Control_c, 2, 64, 60
3, 25103, Control_c, 2, 64, 64
3, 25107, Control_c, 2, 64, 68
3, 25110, Control_c, 2, 64, 72
3, 25125, Control_c, 2, 64, 76
3, 25129, Control_c, 2, 67, 64
3, 25143, Control_c, 2, 64, 80
3, 25157, Control_c, 2, 64, 84
3, 25171, Control_c, 2, 64, 88
3, 25180, Control_c, 2, 64, 92
3, 25196, Control_c, 2, 67, 72
3, 25203, Control_c, 2, 64, 100
3, 25400, Control_c, 2, 64, 112
3, 25460, Control_c, 2, 64, 100
3, 25513, Control_c, 2, 64, 92
3, 25528, Control_c, 2, 64, 88
3, 25533, Control_c, 2, 64, 84
3, 25540, Control_c, 2, 64, 80
3, 25548, Control_c, 2, 64, 76
3, 25553, Control_c, 2, 64, 72
3, 25558, Control_c, 2, 64, 68
3, 25563, Control_c, 2, 64, 64
3, 25578, Control_c, 2, 64, 60
3, 25586, Control_c, 2, 64, 44
3, 25598, Control_c, 2, 64, 28
3, 25611, Control_c, 2, 64, 12
3, 25716, Control_c, 2, 64, 28
3, 25726, Control_c, 2, 64, 44
3, 25737, Control_c, 2, 64, 60
3, 25742, Control_c, 2, 64, 64
3, 25746, Control_c, 2, 64, 68
3, 25752, Control_c, 2, 64, 72
3, 25770, Control_c, 2, 64, 76
3, 25788, Control_c, 2, 64, 80
3, 25807, Control_c, 2, 64, 84
3, 25819, Control_c, 2, 64, 88
3, 25829, Control_c, 2, 64, 92
3, 25839, Control_c, 2, 64, 100
3, 25860, Control_c, 2, 64, 112
3, 25877, Control_c, 2, 64, 127
3, 26159, Control_c, 2, 64, 112
3, 26178, Control_c, 2, 64, 100
3, 26187, Control_c, 2, 64, 92
3, 26189, Control_c, 2, 64, 88
3, 26190, Control_c, 2, 64, 84
3, 26195, Control_c, 2, 64, 80
3, 26196, Control_c, 2, 64, 76
3, 26197, Control_c, 2, 64, 72
3, 26198, Control_c, 2, 64, 68
3, 26203, Control_c, 2, 64, 64
3, 26203, Control_c, 2, 64, 60
3, 26206, Control_c, 2, 64, 44
3, 26213, Control_c, 2, 64, 28
3, 26223, Control_c, 2, 64, 12
3, 26266, Control_c, 2, 64, 28
3, 26272, Control_c, 2, 64, 44
3, 26278, Control_c, 2, 64, 60
3, 26282, Control_c, 2, 64, 64
3, 26285, Control_c, 2, 64, 68
3, 26291, Control_c, 2, 64, 72
3, 26295, Control_c, 2, 64, 76
3, 26308, Control_c, 2, 64, 80
3, 26320, Control_c, 2, 64, 84
3, 26326, Control_c, 2, 64, 88
3, 26330, Control_c, 2, 64, 92
3, 26341, Control_c, 2, 64, 100
3, 26351, Control_c, 2, 64, 112
3, 26359, Control_c, 2, 64, 127
3, 26362, Control_c, 2, 67, 64
3, 26434, Control_c, 2, 67, 56
3, 26482, Control_c, 2, 67, 48
3, 26555, Control_c, 2, 67, 40
3, 26580, Control_c, 2, 67, 32
3, 26605, Control_c, 2, 67, 24
3, 26632, Control_c, 2, 67, 16
3, 26661, Control_c, 2, 67, 8
3, 26746, Control_c, 2, 67, 0
3, 26798, Control_c, 2, 64, 112
3, 26808, Control_c, 2, 64, 100
3, 26814, Control_c, 2, 64, 92
3, 26819, Control_c, 2, 64, 88
3, 26822, Control_c, 2, 64, 84
3, 26824, Control_c, 2, 64, 80
3, 26829, Control_c, 2, 64, 76
3, 26832, Control_c, 2, 64, 72
3, 26834, Control_c, 2, 64, 68
3, 26835, Control_c, 2, 64, 64
3, 26840, Control_c, 2, 64, 60
3, 26844, Control_c, 2, 64, 44
3, 26852, Control_c, 2, 64, 28
3, 26860, Control_c, 2, 64, 12
3, 26867, Control_c, 2, 64, 0
3, 26935, Control_c, 2, 64, 12
3, 26948, Control_c, 2, 64, 28
3, 26953, Control_c, 2, 64, 44
3, 26958, Control_c, 2, 64, 60
3, 26963, Control_c, 2, 64, 64
3, 26965, Control_c, 2, 64, 68
3, 26972, Control_c, 2, 64, 72
3, 26982, Control_c, 2, 64, 76
3, 27000, Control_c, 2, 64, 80
3, 27015, Control_c, 2, 64, 84
3, 27025, Control_c, 2, 64, 88
3, 27033, Control_c, 2, 64, 92
3, 27047, Control_c, 2, 64, 100
3, 27075, Control_c, 2, 64, 112
3, 27383, Control_c, 2, 67, 8
3, 27395, Control_c, 2, 64, 100
3, 27408, Control_c, 2, 64, 92
3, 27411, Control_c, 2, 64, 84
3, 27414, Control_c, 2, 64, 80
3, 27419, Control_c, 2, 64, 76
3, 27419, Control_c, 2, 64, 72
3, 27423, Control_c, 2, 64, 68
3, 27428, Control_c, 2, 64, 64
3, 27458, Control_c, 2, 64, 68
3, 27474, Control_c, 2, 64, 72
3, 27488, Control_c, 2, 64, 76
3, 27511, Control_c, 2, 64, 80
3, 27622, Control_c, 2, 67, 16
3, 27634, Control_c, 2, 64, 76
3, 27644, Control_c, 2, 64, 72
3, 27653, Control_c, 2, 64, 68
3, 27657, Control_c, 2, 67, 24
3, 27660, Control_c, 2, 64, 64
3, 27667, Control_c, 2, 64, 60
3, 27672, Control_c, 2, 64, 44
3, 27677, Control_c, 2, 67, 32
3, 27683, Control_c, 2, 64, 28
3, 27687, Control_c, 2, 67, 40
3, 27687, Control_c, 2, 64, 12
3, 27695, Control_c, 2, 67, 48
3, 27697, Control_c, 2, 64, 0
3, 27705, Control_c, 2, 67, 56
3, 27718, Control_c, 2, 67, 64
3, 27735, Control_c, 2, 67, 72
3, 27751, Control_c, 2, 67, 80
3, 27768, Control_c, 2, 67, 88
3, 27786, Control_c, 2, 67, 96
3, 27824, Control_c, 2, 67, 104
3, 27876, Control_c, 2, 67, 112
3, 27950, Control_c, 2, 67, 127
3, 28806, Control_c, 2, 64, 12
3, 28838, Control_c, 2, 64, 28
3, 28858, Control_c, 2, 64, 44
3, 28868, Control_c, 2, 64, 60
3, 28873, Control_c, 2, 64, 64
3, 28880, Control_c, 2, 64, 68
3, 28894, Control_c, 2, 64, 72
3, 28910, Control_c, 2, 64, 76
3, 28924, Control_c, 2, 64, 80
3, 28939, Control_c, 2, 64, 84
3, 28943, Control_c, 2, 64, 88
3, 28952, Control_c, 2, 64, 92
3, 28959, Control_c, 2, 64, 100
3, 28969, Control_c, 2, 64, 112
3, 28977, Control_c, 2, 64, 127
3, 29158, Control_c, 2, 64, 112
3, 29172, Control_c, 2, 64, 100
3, 29183, Control_c, 2, 64, 92
3, 29187, Control_c, 2, 64, 88
3, 29193, Control_c, 2, 64, 84
3, 29196, Control_c, 2, 64, 80
3, 29201, Control_c, 2, 64, 76
3, 29203, Control_c, 2, 64, 72
3, 29206, Control_c, 2, 64, 68
3, 29213, Control_c, 2, 64, 64
3, 29220, Control_c, 2, 64, 60
3, 29233, Control_c, 2, 64, 44
3, 29245, Control_c, 2, 64, 28
3, 29258, Control_c, 2, 64, 12
3, 29369, Control_c, 2, 64, 28
3, 29384, Control_c, 2, 64, 44
3, 29395, Control_c, 2, 64, 60
3, 29401, Control_c, 2, 64, 64
3, 29406, Control_c, 2, 64, 68
3, 29424, Control_c, 2, 64, 72
3, 29447, Control_c, 2, 64, 76
3, 29469, Control_c, 2, 64, 80
3, 29495, Control_c, 2, 64, 84
3, 29509, Control_c, 2, 64, 88
3, 29523, Control_c, 2, 64, 92
3, 29540, Control_c, 2, 64, 100
3, 29571, Control_c, 2, 64, 112
3, 29628, Control_c, 2, 64, 127
3, 29752, Control_c, 2, 64, 112
3, 29825, Control_c, 2, 64, 100
3, 29857, Control_c, 2, 64, 92
3, 29873, Control_c, 2, 64, 88
3, 29875, Control_c, 2, 64, 84
3, 29888, Control_c, 2, 64, 80
3, 29895, Control_c, 2, 64, 76
3, 29902, Control_c, 2, 64, 72
3, 29910, Control_c, 2, 64, 68
3, 29918, Control_c, 2, 64, 64
3, 29932, Control_c, 2, 64, 60
3, 30014, Control_c, 2, 64, 64
3, 30025, Control_c, 2, 64, 68
3, 30041, Control_c, 2, 64, 72
3, 30061, Control_c, 2, 64, 76
3, 30073, Control_c, 2, 64, 80
3, 30092, Control_c, 2, 64, 84
3, 30104, Control_c, 2, 64, 88
3, 30112, Control_c, 2, 64, 92
3, 30122, Control_c, 2, 64, 100
3, 30144, Control_c, 2, 64, 112
3, 30484, Control_c, 2, 64, 100
3, 30519, Control_c, 2, 64, 92
3, 30529, Control_c, 2, 64, 88
3, 30534, Control_c, 2, 64, 84
3, 30540, Control_c, 2, 64, 80
3, 30544, Control_c, 2, 64, 76
3, 30550, Control_c, 2, 64, 72
3, 30552, Control_c, 2, 64, 68
3, 30560, Control_c, 2, 64, 64
3, 30567, Control_c, 2, 64, 60
3, 30579, Control_c, 2, 64, 44
3, 30598, Control_c, 2, 64, 28
3, 30721, Control_c, 2, 64, 44
3, 30729, Control_c, 2, 64, 60
3, 30731, Control_c, 2, 64, 64
3, 30739, Control_c, 2, 64, 68
3, 30744, Control_c, 2, 64, 72
3, 30754, Control_c, 2, 64, 76
3, 30766, Control_c, 2, 64, 80
3, 30778, Control_c, 2, 64, 84
3, 30786, Control_c, 2, 64, 88
3, 30796, Control_c, 2, 64, 92
3, 30806, Control_c, 2, 64, 100
3, 30821, Control_c, 2, 64, 112
3, 31018, Control_c, 2, 64, 100
3, 31156, Control_c, 2, 64, 92
3, 31239, Control_c, 2, 64, 88
3, 31255, Control_c, 2, 64, 84
3, 31297, Control_c, 2, 64, 80
3, 31320, Control_c, 2, 64, 76
3, 31334, Control_c, 2, 64, 72
3, 31350, Control_c, 2, 64, 68
3, 31365, Control_c, 2, 64, 64
3, 31426, Control_c, 2, 64, 68
3, 31443, Control_c, 2, 64, 72
3, 31470, Control_c, 2, 64, 76
3, 31504, Control_c, 2, 64, 80
3, 31652, Control_c, 2, 64, 76
3, 31688, Control_c, 2, 64, 72
3, 31704, Control_c, 2, 64, 68
3, 31788, Control_c, 2, 64, 72
3, 31810, Control_c, 2, 64, 76
3, 31826, Control_c, 2, 64, 80
3, 31846, Control_c, 2, 64, 84
3, 31859, Control_c, 2, 64, 88
3, 31868, Control_c, 2, 64, 92
3, 31888, Control_c, 2, 64, 100
3, 31980, Control_c, 2, 64, 92
3, 31984, Control_c, 2, 64, 88
3, 31987, Control_c, 2, 64, 84
3, 31992, Control_c, 2, 64, 80
3, 31997, Control_c, 2, 64, 76
3, 32002, Control_c, 2, 64, 72
3, 32007, Control_c, 2, 64, 68
3, 32017, Control_c, 2, 64, 64
3, 32087, Control_c, 2, 64, 68
3, 32103, Control_c, 2, 64, 72
3, 32131, Control_c, 2, 64, 76
3, 32168, Control_c, 2, 64, 80
3, 32266, Control_c, 2, 64, 76
3, 32282, Control_c, 2, 64, 72
3, 32293, Control_c, 2, 64, 68
3, 32302, Control_c, 2, 64, 64
3, 32317, Control_c, 2, 64, 60
3, 32337, Control_c, 2, 64, 44
3, 32407, Control_c, 2, 64, 60
3, 32457, Control_c, 2, 64, 44
3, 32516, Control_c, 2, 64, 60
3, 32521, Control_c, 2, 64, 64
3, 32523, Control_c, 2, 64, 68
3, 32528, Control_c, 2, 64, 72
3, 32533, Control_c, 2, 64, 76
3, 32544, Control_c, 2, 64, 80
3, 32559, Control_c, 2, 64, 84
3, 32571, Control_c, 2, 64, 88
3, 32581, Control_c, 2, 64, 92
3, 32667, Control_c, 2, 64, 88
3, 32669, Control_c, 2, 64, 84
3, 32676, Control_c, 2, 64, 80
3, 32682, Control_c, 2, 64, 76
3, 32689, Control_c, 2, 64, 72
3, 32694, Control_c, 2, 64, 68
3, 32702, Control_c, 2, 64, 64
3, 32712, Control_c, 2, 64, 60
3, 32719, Control_c, 2, 64, 44
3, 32734, Control_c, 2, 64, 28
3, 32757, Control_c, 2, 64, 12
3, 32885, Control_c, 2, 64, 28
3, 32892, Control_c, 2, 67, 112
3, 32905, Control_c, 2, 64, 44
3, 32913, Control_c, 2, 64, 60
3, 32918, Control_c, 2, 64, 64
3, 32923, Control_c, 2, 64, 68
3, 32936, Control_c, 2, 64, 72
3, 32966, Control_c, 2, 64, 76
3, 32973, Control_c, 2, 67, 104
3, 32994, Control_c, 2, 64, 80
3, 33019, Control_c, 2, 67, 96
3, 33034, Control_c, 2, 64, 84
3, 33056, Control_c, 2, 64, 88
3, 33082, Control_c, 2, 64, 92
3, 33203, Control_c, 2, 64, 88
3, 33258, Control_c, 2, 64, 84
3, 33318, Control_c, 2, 64, 80
3, 33348, Control_c, 2, 64, 76
3, 33369, Control_c, 2, 64, 72
3, 33382, Control_c, 2, 64, 68
3, 33389, Control_c, 2, 64, 64
3, 33399, Control_c, 2, 64, 60
3, 33409, Control_c, 2, 64, 44
3, 33477, Control_c, 2, 64, 60
3, 33485, Control_c, 2, 64, 64
3, 33487, Control_c, 2, 64, 68
3, 33492, Control_c, 2, 64, 72
3, 33497, Control_c, 2, 64, 76
3, 33507, Control_c, 2, 64, 80
3, 33523, Control_c, 2, 64, 84
3, 33530, Control_c, 2, 64, 88
3, 33538, Control_c, 2, 64, 92
3, 33550, Control_c, 2, 64, 100
3, 33568, Control_c, 2, 64, 112
3, 34185, Control_c, 2, 64, 100
3, 34201, Control_c, 2, 64, 92
3, 34207, Control_c, 2, 64, 88
3, 34208, Control_c, 2, 64, 84
3, 34214, Control_c, 2, 64, 80
3, 34220, Control_c, 2, 64, 76
3, 34222, Control_c, 2, 64, 72
3, 34226, Control_c, 2, 64, 68
3, 34233, Control_c, 2, 64, 64
3, 34237, Control_c, 2, 64, 60
3, 34245, Control_c, 2, 64, 44
3, 34252, Control_c, 2, 64, 28
3, 34262, Control_c, 2, 64, 12
3, 34272, Control_c, 2, 64, 0
3, 34358, Control_c, 2, 64, 12
3, 34371, Control_c, 2, 64, 28
3, 34379, Control_c, 2, 64, 44
3, 34383, Control_c, 2, 64, 60
3, 34386, Control_c, 2, 64, 64
3, 34389, Control_c, 2, 64, 68
3, 34393, Control_c, 2, 64, 72
3, 34398, Control_c, 2, 64, 76
3, 34406, Control_c, 2, 64, 80
3, 34424, Control_c, 2, 64, 84
3, 34431, Control_c, 2, 64, 88
3, 34436, Control_c, 2, 64, 92
3, 34446, Control_c, 2, 64, 100
3, 34456, Control_c, 2, 64, 112
3, 34464, Control_c, 2, 64, 127
3, 34590, Control_c, 2, 64, 112
3, 34602, Control_c, 2, 64, 100
3, 34610, Control_c, 2, 64, 92
3, 34614, Control_c, 2, 64, 88
3, 34618, Control_c, 2, 64, 84
3, 34620, Control_c, 2, 64, 80
3, 34624, Control_c, 2, 64, 76
3, 34627, Control_c, 2, 64, 72
3, 34633, Control_c, 2, 64, 68
3, 34637, Control_c, 2, 64, 64
3, 34648, Control_c, 2, 64, 60
3, 34653, Control_c, 2, 64, 44
3, 34662, Control_c, 2, 64, 28
3, 34670, Control_c, 2, 64, 12
3, 34680, Control_c, 2, 64, 0
3, 34812, Control_c, 2, 67, 104
3, 34879, Control_c, 2, 64, 12
3, 34894, Control_c, 2, 64, 28
3, 34905, Control_c, 2, 64, 44
3, 34911, Control_c, 2, 64, 60
3, 34917, Control_c, 2, 64, 64
3, 34921, Control_c, 2, 64, 68
3, 34927, Control_c, 2, 64, 72
3, 34944, Control_c, 2, 64, 76
3, 34947, Control_c, 2, 67, 112
3, 34963, Control_c, 2, 64, 80
3, 34988, Control_c, 2, 64, 84
3, 35004, Control_c, 2, 64, 88
3, 35015, Control_c, 2, 64, 92
3, 35033, Control_c, 2, 64, 100
3, 35061, Control_c, 2, 64, 112
3, 35320, Control_c, 2, 64, 100
3, 35346, Control_c, 2, 64, 92
3, 35352, Control_c, 2, 64, 88
3, 35352, Control_c, 2, 64, 84
3, 35360, Control_c, 2, 64, 80
3, 35364, Control_c, 2, 64, 76
3, 35368, Control_c, 2, 64, 72
3, 35371, Control_c, 2, 64, 68
3, 35376, Control_c, 2, 64, 64
3, 35383, Control_c, 2, 64, 60
3, 35391, Control_c, 2, 64, 44
3, 35411, Control_c, 2, 64, 28
3, 35459, Control_c, 2, 64, 44
3, 35469, Control_c, 2, 64, 60
3, 35474, Control_c, 2, 64, 64
3, 35479, Control_c, 2, 64, 68
3, 35482, Control_c, 2, 64, 72
3, 35488, Control_c, 2, 64, 76
3, 35498, Control_c, 2, 64, 80
3, 35511, Control_c, 2, 64, 84
3, 35524, Control_c, 2, 64, 88
3, 35529, Control_c, 2, 64, 92
3, 35539, Control_c, 2, 64, 100
3, 35555, Control_c, 2, 64, 112
3, 35690, Control_c, 2, 64, 100
3, 35700, Control_c, 2, 64, 92
3, 35706, Control_c, 2, 64, 88
3, 35706, Control_c, 2, 64, 84
3, 35708, Control_c, 2, 64, 80
3, 35713, Control_c, 2, 64, 76
3, 35713, Control_c, 2, 64, 72
3, 35718, Control_c, 2, 64, 68
3, 35721, Control_c, 2, 64, 64
3, 35725, Control_c, 2, 64, 60
3, 35769, Control_c, 2, 64, 64
3, 35775, Control_c, 2, 64, 68
3, 35784, Control_c, 2, 64, 72
3, 35794, Control_c, 2, 64, 76
3, 35804, Control_c, 2, 64, 80
3, 35818, Control_c, 2, 64, 84
3, 35827, Control_c, 2, 64, 88
3, 35832, Control_c, 2, 64, 92
3, 35841, Control_c, 2, 64, 100
3, 35854, Control_c, 2, 64, 112
3, 35864, Control_c, 2, 64, 127
3, 35988, Control_c, 2, 64, 112
3, 35995, Control_c, 2, 64, 100
3, 36002, Control_c, 2, 64, 92
3, 36005, Control_c, 2, 64, 88
3, 36006, Control_c, 2, 64, 84
3, 36008, Control_c, 2, 64, 80
3, 36008, Control_c, 2, 64, 76
3, 36012, Control_c, 2, 64, 72
3, 36017, Control_c, 2, 64, 68
3, 36020, Control_c, 2, 64, 64
3, 36058, Control_c, 2, 64, 68
3, 36071, Control_c, 2, 64, 72
3, 36078, Control_c, 2, 64, 76
3, 36086, Control_c, 2, 64, 80
3, 36095, Control_c, 2, 64, 84
3, 36103, Control_c, 2, 64, 88
3, 36111, Control_c, 2, 64, 92
3, 36119, Control_c, 2, 64, 100
3, 36131, Control_c, 2, 64, 112
3, 36141, Control_c, 2, 64, 127
3, 36261, Control_c, 2, 64, 112
3, 36270, Control_c, 2, 64, 100
3, 36274, Control_c, 2, 64, 92
3, 36277, Control_c, 2, 64, 88
3, 36277, Control_c, 2, 64, 84
3, 36279, Control_c, 2, 64, 80
3, 36281, Control_c, 2, 64, 76
3, 36284, Control_c, 2, 64, 72
3, 36284, Control_c, 2, 64, 68
3, 36289, Control_c, 2, 64, 64
3, 36291, Control_c, 2, 64, 60
3, 36293, Control_c, 2, 64, 44
3, 36350, Control_c, 2, 64, 60
3, 36353, Control_c, 2, 64, 64
3, 36357, Control_c, 2, 64, 68
3, 36362, Control_c, 2, 64, 72
3, 36364, Control_c, 2, 64, 76
3, 36372, Control_c, 2, 64, 80
3, 36383, Control_c, 2, 64, 84
3, 36387, Control_c, 2, 64, 88
3, 36392, Control_c, 2, 64, 92
3, 36402, Control_c, 2, 64, 100
3, 36410, Control_c, 2, 64, 112
3, 36415, Control_c, 2, 64, 127
3, 36547, Control_c, 2, 67, 104
3, 36572, Control_c, 2, 64, 112
3, 36579, Control_c, 2, 64, 100
3, 36587, Control_c, 2, 64, 92
3, 36589, Control_c, 2, 64, 88
3, 36590, Control_c, 2, 64, 84
3, 36590, Control_c, 2, 64, 80
3, 36594, Control_c, 2, 64, 76
3, 36594, Control_c, 2, 64, 72
3, 36597, Control_c, 2, 64, 68
3, 36597, Control_c, 2, 64, 64
3, 36599, Control_c, 2, 64, 60
3, 36601, Control_c, 2, 64, 44
3, 36609, Control_c, 2, 64, 28
3, 36614, Control_c, 2, 64, 12
3, 36639, Control_c, 2, 67, 96
3, 36682, Control_c, 2, 64, 28
3, 36684, Control_c, 2, 67, 88
3, 36687, Control_c, 2, 64, 44
3, 36692, Control_c, 2, 64, 60
3, 36694, Control_c, 2, 64, 64
3, 36700, Control_c, 2, 64, 68
3, 36703, Control_c, 2, 64, 72
3, 36707, Control_c, 2, 64, 76
3, 36707, Control_c, 2, 67, 80
3, 36722, Control_c, 2, 64, 80
3, 36725, Control_c, 2, 67, 72
3, 36732, Control_c, 2, 64, 84
3, 36738, Control_c, 2, 67, 64
3, 36740, Control_c, 2, 64, 88
3, 36744, Control_c, 2, 64, 92
3, 36744, Control_c, 2, 67, 56
3, 36753, Control_c, 2, 64, 100
3, 36755, Control_c, 2, 67, 48
3, 36763, Control_c, 2, 64, 112
3, 36768, Control_c, 2, 64, 127
3, 36858, Control_c, 2, 67, 40
3, 36868, Control_c, 2, 64, 112
3, 36870, Control_c, 2, 64, 100
3, 36878, Control_c, 2, 64, 92
3, 36878, Control_c, 2, 64, 84
3, 36883, Control_c, 2, 64, 80
3, 36886, Control_c, 2, 64, 76
3, 36889, Control_c, 2, 64, 72
3, 36889, Control_c, 2, 64, 68
3, 36894, Control_c, 2, 64, 64
3, 36911, Control_c, 2, 67, 32
3, 36921, Control_c, 2, 64, 68
3, 36936, Control_c, 2, 64, 72
3, 36948, Control_c, 2, 64, 76
3, 36957, Control_c, 2, 64, 80
3, 36959, Control_c, 2, 67, 24
3, 36967, Control_c, 2, 64, 84
3, 36974, Control_c, 2, 64, 88
3, 36979, Control_c, 2, 64, 92
3, 36990, Control_c, 2, 64, 100
3, 36990, Control_c, 2, 67, 16
3, 37001, Control_c, 2, 64, 112
3, 37017, Control_c, 2, 64, 127
3, 37040, Control_c, 2, 67, 8
3, 37136, Control_c, 2, 64, 112
3, 37153, Control_c, 2, 64, 100
3, 37167, Control_c, 2, 64, 92
3, 37173, Control_c, 2, 64, 88
3, 37173, Control_c, 2, 64, 84
3, 37177, Control_c, 2, 64, 80
3, 37183, Control_c, 2, 64, 76
3, 37186, Control_c, 2, 64, 72
3, 37188, Control_c, 2, 64, 68
3, 37193, Control_c, 2, 64, 64
3, 37203, Control_c, 2, 64, 60
3, 37213, Control_c, 2, 64, 44
3, 37223, Control_c, 2, 64, 28
3, 37233, Control_c, 2, 64, 12
3, 37268, Control_c, 2, 67, 0
3, 37303, Control_c, 2, 64, 28
3, 37311, Control_c, 2, 64, 44
3, 37316, Control_c, 2, 64, 60
3, 37322, Control_c, 2, 64, 64
3, 37322, Control_c, 2, 64, 68
3, 37329, Control_c, 2, 64, 72
3, 37336, Control_c, 2, 64, 76
3, 37354, Control_c, 2, 64, 80
3, 37367, Control_c, 2, 64, 84
3, 37380, Control_c, 2, 64, 88
3, 37387, Control_c, 2, 64, 92
3, 37400, Control_c, 2, 64, 100
3, 37634, Control_c, 2, 67, 8
3, 37838, Control_c, 2, 64, 92
3, 37842, Control_c, 2, 67, 16
3, 37848, Control_c, 2, 64, 88
3, 37849, Control_c, 2, 64, 84
3, 37855, Control_c, 2, 64, 80
3, 37858, Control_c, 2, 64, 76
3, 37863, Control_c, 2, 64, 72
3, 37863, Control_c, 2, 64, 68
3, 37865, Control_c, 2, 64, 64
3, 37870, Control_c, 2, 64, 60
3, 37875, Control_c, 2, 64, 44
3, 37885, Control_c, 2, 64, 28
3, 37896, Control_c, 2, 64, 12
3, 37930, Control_c, 2, 67, 24
3, 37938, Control_c, 2, 64, 28
3, 37946, Control_c, 2, 64, 44
3, 37951, Control_c, 2, 64, 60
3, 37953, Control_c, 2, 64, 64
3, 37956, Control_c, 2, 64, 68
3, 37958, Control_c, 2, 67, 32
3, 37961, Control_c, 2, 64, 72
3, 37963, Control_c, 2, 64, 76
3, 37968, Control_c, 2, 67, 40
3, 37979, Control_c, 2, 67, 48
3, 37992, Control_c, 2, 67, 56
3, 37992, Control_c, 2, 64, 80
3, 38006, Control_c, 2, 67, 64
3, 38011, Control_c, 2, 64, 84
3, 38043, Control_c, 2, 67, 72
3, 38059, Control_c, 2, 64, 88
3, 38072, Control_c, 2, 67, 80
3, 38082, Control_c, 2, 64, 84
3, 38095, Control_c, 2, 67, 88
3, 38112, Control_c, 2, 67, 96
3, 38122, Control_c, 2, 64, 80
3, 38132, Control_c, 2, 67, 104
3, 38136, Control_c, 2, 64, 76
3, 38147, Control_c, 2, 64, 72
3, 38155, Control_c, 2, 64, 68
3, 38157, Control_c, 2, 64, 64
3, 38165, Control_c, 2, 64, 60
3, 38169, Control_c, 2, 64, 44
3, 38169, Control_c, 2, 67, 112
3, 38182, Control_c, 2, 64, 28
3, 38199, Control_c, 2, 64, 12
3, 38223, Control_c, 2, 67, 127
3, 38308, Control_c, 2, 64, 28
3, 38318, Control_c, 2, 64, 44
3, 38323, Control_c, 2, 64, 60
3, 38328, Control_c, 2, 64, 64
3, 38330, Control_c, 2, 64, 68
3, 38336, Control_c, 2, 64, 72
3, 38346, Control_c, 2, 64, 76
3, 38376, Control_c, 2, 64, 80
3, 38518, Control_c, 2, 64, 76
3, 38535, Control_c, 2, 64, 72
3, 38545, Control_c, 2, 64, 68
3, 38555, Control_c, 2, 64, 64
3, 38565, Control_c, 2, 64, 60
3, 38578, Control_c, 2, 64, 44
3, 38601, Control_c, 2, 64, 28
3, 38721, Control_c, 2, 64, 44
3, 38736, Control_c, 2, 64, 60
3, 38744, Control_c, 2, 64, 64
3, 38757, Control_c, 2, 64, 68
3, 38776, Control_c, 2, 64, 72
3, 38807, Control_c, 2, 64, 76
3, 38839, Control_c, 2, 64, 80
3, 38870, Control_c, 2, 64, 84
3, 38895, Control_c, 2, 64, 88
3, 38910, Control_c, 2, 64, 92
3, 38935, Control_c, 2, 64, 100
3, 39279, Control_c, 2, 64, 92
3, 39293, Control_c, 2, 64, 88
3, 39295, Control_c, 2, 64, 84
3, 39305, Control_c, 2, 64, 80
3, 39308, Control_c, 2, 64, 76
3, 39310, Control_c, 2, 64, 72
3, 39315, Control_c, 2, 64, 68
3, 39318, Control_c, 2, 64, 64
3, 39322, Control_c, 2, 64, 60
3, 39328, Control_c, 2, 64, 44
3, 39340, Control_c, 2, 64, 28
3, 39395, Control_c, 2, 64, 44
3, 39401, Control_c, 2, 64, 60
3, 39405, Control_c, 2, 64, 64
3, 39411, Control_c, 2, 64, 68
3, 39415, Control_c, 2, 64, 72
3, 39423, Control_c, 2, 64, 76
3, 39435, Control_c, 2, 64, 80
3, 39451, Control_c, 2, 64, 84
3, 39464, Control_c, 2, 64, 88
3, 39474, Control_c, 2, 64, 92
3, 39484, Control_c, 2, 64, 100
3, 39595, Control_c, 2, 64, 112
3, 39642, Control_c, 2, 64, 100
3, 39678, Control_c, 2, 64, 92
3, 39690, Control_c, 2, 64, 88
3, 39695, Control_c, 2, 64, 84
3, 39700, Control_c, 2, 64, 80
3, 39705, Control_c, 2, 64, 76
3, 39708, Control_c, 2, 64, 72
3, 39710, Control_c, 2, 64, 68
3, 39712, Control_c, 2, 64, 64
3, 39718, Control_c, 2, 64, 60
3, 39726, Control_c, 2, 64, 44
3, 39793, Control_c, 2, 64, 60
3, 39798, Control_c, 2, 64, 64
3, 39801, Control_c, 2, 64, 68
3, 39808, Control_c, 2, 64, 72
3, 39816, Control_c, 2, 64, 76
3, 39834, Control_c, 2, 64, 80
3, 39852, Control_c, 2, 64, 84
3, 39864, Control_c, 2, 64, 88
3, 39874, Control_c, 2, 64, 92
3, 39877, Control_c, 2, 67, 112
3, 39901, Control_c, 2, 64, 100
3, 40140, Control_c, 2, 64, 112
3, 40238, Control_c, 2, 67, 104
3, 40258, Control_c, 2, 64, 100
3, 40267, Control_c, 2, 64, 92
3, 40271, Control_c, 2, 64, 88
3, 40274, Control_c, 2, 64, 84
3, 40277, Control_c, 2, 64, 80
3, 40282, Control_c, 2, 64, 76
3, 40287, Control_c, 2, 64, 72
3, 40295, Control_c, 2, 67, 96
3, 40307, Control_c, 2, 64, 76
3, 40317, Control_c, 2, 64, 80
3, 40320, Control_c, 2, 67, 88
3, 40327, Control_c, 2, 64, 84
3, 40337, Control_c, 2, 64, 88
3, 40343, Control_c, 2, 64, 92
3, 40343, Control_c, 2, 67, 80
3, 40350, Control_c, 2, 64, 100
3, 40350, Control_c, 2, 67, 72
3, 40357, Control_c, 2, 64, 112
3, 40358, Control_c, 2, 67, 64
3, 40362, Control_c, 2, 64, 127
3, 40365, Control_c, 2, 67, 56
3, 40368, Control_c, 2, 67, 48
3, 40378, Control_c, 2, 67, 40
3, 40390, Control_c, 2, 67, 32
3, 40437, Control_c, 2, 67, 24
3, 40468, Control_c, 2, 67, 16
3, 40498, Control_c, 2, 67, 8
3, 40690, Control_c, 2, 64, 112
3, 40694, Control_c, 2, 64, 100
3, 40700, Control_c, 2, 64, 92
3, 40702, Control_c, 2, 64, 84
3, 40703, Control_c, 2, 64, 80
3, 40704, Control_c, 2, 64, 76
3, 40707, Control_c, 2, 64, 72
3, 40707, Control_c, 2, 64, 68
3, 40710, Control_c, 2, 64, 64
3, 40713, Control_c, 2, 64, 60
3, 40713, Control_c, 2, 64, 44
3, 40717, Control_c, 2, 64, 28
3, 40723, Control_c, 2, 64, 12
3, 40728, Control_c, 2, 64, 0
3, 40792, Control_c, 2, 64, 12
3, 40800, Control_c, 2, 64, 28
3, 40807, Control_c, 2, 64, 44
3, 40813, Control_c, 2, 64, 60
3, 40815, Control_c, 2, 64, 64
3, 40821, Control_c, 2, 64, 68
3, 40823, Control_c, 2, 64, 72
3, 40836, Control_c, 2, 64, 76
3, 40850, Control_c, 2, 64, 80
3, 40863, Control_c, 2, 64, 84
3, 40870, Control_c, 2, 64, 88
3, 40876, Control_c, 2, 64, 92
3, 40886, Control_c, 2, 64, 100
3, 40898, Control_c, 2, 64, 112
3, 40906, Control_c, 2, 64, 127
3, 41316, Control_c, 2, 64, 112
3, 41321, Control_c, 2, 64, 100
3, 41327, Control_c, 2, 64, 92
3, 41327, Control_c, 2, 64, 88
3, 41329, Control_c, 2, 64, 84
3, 41329, Control_c, 2, 64, 76
3, 41333, Control_c, 2, 64, 72
3, 41333, Control_c, 2, 64, 68
3, 41337, Control_c, 2, 64, 64
3, 41339, Control_c, 2, 64, 60
3, 41341, Control_c, 2, 64, 44
3, 41349, Control_c, 2, 64, 28
3, 41399, Control_c, 2, 64, 44
3, 41405, Control_c, 2, 64, 60
3, 41409, Control_c, 2, 64, 64
3, 41409, Control_c, 2, 64, 68
3, 41415, Control_c, 2, 64, 72
3, 41416, Control_c, 2, 64, 76
3, 41422, Control_c, 2, 64, 80
3, 41429, Control_c, 2, 64, 84
3, 41436, Control_c, 2, 64, 88
3, 41442, Control_c, 2, 64, 92
3, 41450, Control_c, 2, 64, 100
3, 41457, Control_c, 2, 64, 112
3, 41465, Control_c, 2, 64, 127
3, 41568, Control_c, 2, 64, 112
3, 41573, Control_c, 2, 64, 100
3, 41578, Control_c, 2, 64, 92
3, 41579, Control_c, 2, 64, 84
3, 41580, Control_c, 2, 64, 80
3, 41580, Control_c, 2, 64, 76
3, 41583, Control_c, 2, 64, 72
3, 41584, Control_c, 2, 64, 68
3, 41586, Control_c, 2, 64, 64
3, 41589, Control_c, 2, 64, 60
3, 41591, Control_c, 2, 64, 44
3, 41598, Control_c, 2, 64, 28
3, 41603, Control_c, 2, 64, 12
3, 41669, Control_c, 2, 64, 28
3, 41673, Control_c, 2, 64, 44
3, 41679, Control_c, 2, 64, 60
3, 41681, Control_c, 2, 64, 64
3, 41683, Control_c, 2, 64, 68
3, 41687, Control_c, 2, 64, 72
3, 41688, Control_c, 2, 64, 76
3, 41694, Control_c, 2, 64, 80
3, 41704, Control_c, 2, 64, 84
3, 41709, Control_c, 2, 64, 88
3, 41716, Control_c, 2, 64, 92
3, 41724, Control_c, 2, 64, 100
3, 41735, Control_c, 2, 64, 112
3, 41739, Control_c, 2, 64, 127
3, 41829, Control_c, 2, 64, 112
3, 41835, Control_c, 2, 64, 100
3, 41839, Control_c, 2, 64, 92
3, 41841, Control_c, 2, 64, 88
3, 41842, Control_c, 2, 64, 84
3, 41845, Control_c, 2, 64, 80
3, 41847, Control_c, 2, 64, 76
3, 41847, Control_c, 2, 64, 72
3, 41849, Control_c, 2, 64, 68
3, 41853, Control_c, 2, 64, 64
3, 41853, Control_c, 2, 64, 60
3, 41855, Control_c, 2, 64, 44
3, 41865, Control_c, 2, 64, 28
3, 41877, Control_c, 2, 64, 12
3, 41931, Control_c, 2, 64, 28
3, 41935, Control_c, 2, 64, 44
3, 41940, Control_c, 2, 64, 60
3, 41942, Control_c, 2, 64, 64
3, 41945, Control_c, 2, 64, 68
3, 41948, Control_c, 2, 64, 72
3, 41951, Control_c, 2, 64, 76
3, 41958, Control_c, 2, 64, 80
3, 41974, Control_c, 2, 64, 84
3, 41980, Control_c, 2, 64, 88
3, 41988, Control_c, 2, 64, 92
3, 41996, Control_c, 2, 64, 100
3, 42009, Control_c, 2, 64, 112
3, 42127, Control_c, 2, 64, 100
3, 42149, Control_c, 2, 64, 92
3, 42180, Control_c, 2, 64, 88
3, 42185, Control_c, 2, 64, 84
3, 42192, Control_c, 2, 64, 80
3, 42195, Control_c, 2, 64, 76
3, 42197, Control_c, 2, 64, 72
3, 42203, Control_c, 2, 64, 68
3, 42203, Control_c, 2, 64, 64
3, 42208, Control_c, 2, 64, 60
3, 42209, Control_c, 2, 64, 44
3, 42218, Control_c, 2, 64, 28
3, 42225, Control_c, 2, 64, 12
3, 42275, Control_c, 2, 64, 28
3, 42281, Control_c, 2, 64, 44
3, 42286, Control_c, 2, 64, 60
3, 42286, Control_c, 2, 64, 64
3, 42288, Control_c, 2, 64, 68
3, 42293, Control_c, 2, 64, 72
3, 42293, Control_c, 2, 64, 76
3, 42300, Control_c, 2, 64, 80
3, 42302, Control_c, 2, 64, 84
3, 42308, Control_c, 2, 64, 88
3, 42316, Control_c, 2, 64, 92
3, 42323, Control_c, 2, 64, 100
3, 42336, Control_c, 2, 64, 112
3, 42343, Control_c, 2, 64, 127
3, 42610, Control_c, 2, 64, 112
3, 42620, Control_c, 2, 64, 100
3, 42625, Control_c, 2, 64, 92
3, 42630, Control_c, 2, 64, 88
3, 42632, Control_c, 2, 64, 84
3, 42632, Control_c, 2, 64, 80
3, 42638, Control_c, 2, 64, 76
3, 42641, Control_c, 2, 64, 72
3, 42646, Control_c, 2, 64, 68
3, 42648, Control_c, 2, 64, 64
3, 42656, Control_c, 2, 64, 60
3, 42666, Control_c, 2, 64, 44
3, 42681, Control_c, 2, 64, 28
3, 42691, Control_c, 2, 64, 12
3, 42715, Control_c, 2, 64, 0
3, 42867, Control_c, 2, 64, 12
3, 42885, Control_c, 2, 64, 28
3, 42894, Control_c, 2, 64, 44
3, 42901, Control_c, 2, 64, 60
3, 42907, Control_c, 2, 64, 64
3, 42912, Control_c, 2, 64, 68
3, 42922, Control_c, 2, 64, 72
3, 42949, Control_c, 2, 64, 76
3, 42952, Control_c, 2, 67, 16
3, 42968, Control_c, 2, 64, 80
3, 42990, Control_c, 2, 64, 84
3, 43003, Control_c, 2, 64, 88
3, 43015, Control_c, 2, 64, 92
3, 43032, Control_c, 2, 64, 100
3, 43141, Control_c, 2, 67, 24
3, 43350, Control_c, 2, 64, 92
3, 43366, Control_c, 2, 64, 88
3, 43370, Control_c, 2, 64, 84
3, 43378, Control_c, 2, 64, 80
3, 43385, Control_c, 2, 64, 76
3, 43388, Control_c, 2, 64, 72
3, 43393, Control_c, 2, 64, 68
3, 43398, Control_c, 2, 64, 64
3, 43404, Control_c, 2, 64, 60
3, 43407, Control_c, 2, 64, 44
3, 43417, Control_c, 2, 64, 28
3, 43474, Control_c, 2, 64, 44
3, 43479, Control_c, 2, 67, 32
3, 43480, Control_c, 2, 64, 60
3, 43484, Control_c, 2, 64, 64
3, 43486, Control_c, 2, 64, 68
3, 43488, Control_c, 2, 64, 72
3, 43497, Control_c, 2, 64, 76
3, 43504, Control_c, 2, 64, 80
3, 43522, Control_c, 2, 64, 84
3, 43522, Control_c, 2, 67, 40
3, 43529, Control_c, 2, 64, 88
3, 43534, Control_c, 2, 64, 92
3, 43544, Control_c, 2, 64, 100
3, 43569, Control_c, 2, 67, 48
3, 43599, Control_c, 2, 67, 56
3, 43634, Control_c, 2, 67, 64
3, 43678, Control_c, 2, 67, 72
3, 43718, Control_c, 2, 67, 80
3, 43743, Control_c, 2, 64, 92
3, 43783, Control_c, 2, 64, 88
3, 43795, Control_c, 2, 64, 84
3, 43816, Control_c, 2, 64, 80
3, 43824, Control_c, 2, 67, 88
3, 43833, Control_c, 2, 64, 76
3, 43850, Control_c, 2, 64, 72
3, 43860, Control_c, 2, 64, 68
3, 43872, Control_c, 2, 64, 64
3, 43881, Control_c, 2, 64, 60
3, 43882, Control_c, 2, 67, 96
3, 43886, Control_c, 2, 64, 44
3, 43907, Control_c, 2, 64, 28
3, 43980, Control_c, 2, 64, 44
3, 43987, Control_c, 2, 64, 60
3, 43994, Control_c, 2, 64, 64
3, 44000, Control_c, 2, 64, 68
3, 44007, Control_c, 2, 64, 72
3, 44030, Control_c, 2, 64, 76
3, 44033, Control_c, 2, 67, 104
3, 44055, Control_c, 2, 64, 80
3, 44096, Control_c, 2, 64, 84
3, 44123, Control_c, 2, 64, 88
3, 44137, Control_c, 2, 64, 92
3, 44156, Control_c, 2, 64, 100
3, 44166, Control_c, 2, 67, 112
3, 45066, Control_c, 2, 64, 92
3, 45076, Control_c, 2, 64, 88
3, 45082, Control_c, 2, 64, 84
3, 45086, Control_c, 2, 64, 80
3, 45090, Control_c, 2, 64, 76
3, 45094, Control_c, 2, 64, 72
3, 45100, Control_c, 2, 64, 68
3, 45110, Control_c, 2, 64, 64
3, 45122, Control_c, 2, 64, 60
3, 45135, Control_c, 2, 64, 44
3, 45159, Control_c, 2, 64, 28
3, 45246, Control_c, 2, 64, 44
3, 45252, Control_c, 2, 64, 60
3, 45258, Control_c, 2, 64, 64
3, 45265, Control_c, 2, 64, 68
3, 45278, Control_c, 2, 64, 72
3, 45296, Control_c, 2, 64, 76
3, 45309, Control_c, 2, 64, 80
3, 45332, Control_c, 2, 64, 84
3, 45344, Control_c, 2, 64, 88
3, 45351, Control_c, 2, 64, 92
3, 45364, Control_c, 2, 64, 100
3, 45495, Control_c, 2, 64, 92
3, 45503, Control_c, 2, 64, 88
3, 45507, Control_c, 2, 64, 84
3, 45513, Control_c, 2, 64, 80
3, 45519, Control_c, 2, 64, 76
3, 45525, Control_c, 2, 64, 72
3, 45533, Control_c, 2, 64, 68
3, 45540, Control_c, 2, 64, 64
3, 45551, Control_c, 2, 64, 60
3, 45555, Control_c, 2, 64, 44
3, 45571, Control_c, 2, 64, 28
3, 45638, Control_c, 2, 64, 12
3, 45655, Control_c, 2, 64, 28
3, 45673, Control_c, 2, 64, 44
3, 45681, Control_c, 2, 64, 60
3, 45688, Control_c, 2, 64, 64
3, 45696, Control_c, 2, 64, 68
3, 45719, Control_c, 2, 64, 72
3, 45744, Control_c, 2, 64, 76
3, 45779, Control_c, 2, 64, 80
3, 45847, Control_c, 2, 64, 84
3, 45890, Control_c, 2, 64, 88
3, 45912, Control_c, 2, 64, 92
3, 45968, Control_c, 2, 64, 100
3, 46018, Control_c, 2, 64, 112
3, 46190, Control_c, 2, 64, 100
3, 46220, Control_c, 2, 64, 92
3, 46235, Control_c, 2, 64, 88
3, 46240, Control_c, 2, 64, 84
3, 46248, Control_c, 2, 64, 80
3, 46258, Control_c, 2, 64, 76
3, 46264, Control_c, 2, 64, 72
3, 46268, Control_c, 2, 64, 68
3, 46275, Control_c, 2, 64, 64
3, 46282, Control_c, 2, 64, 60
3, 46297, Control_c, 2, 64, 44
3, 46391, Control_c, 2, 64, 60
3, 46395, Control_c, 2, 64, 64
3, 46401, Control_c, 2, 64, 68
3, 46409, Control_c, 2, 64, 72
3, 46421, Control_c, 2, 64, 76
3, 46434, Control_c, 2, 64, 80
3, 46448, Control_c, 2, 64, 84
3, 46461, Control_c, 2, 64, 88
3, 46471, Control_c, 2, 64, 92
3, 46547, Control_c, 2, 64, 88
3, 46548, Control_c, 2, 64, 84
3, 46554, Control_c, 2, 64, 80
3, 46561, Control_c, 2, 64, 76
3, 46579, Control_c, 2, 64, 80
3, 46602, Control_c, 2, 64, 84
3, 46617, Control_c, 2, 64, 88
3, 46624, Control_c, 2, 64, 92
3, 46644, Control_c, 2, 64, 100
3, 46930, Control_c, 2, 64, 92
3, 46945, Control_c, 2, 64, 88
3, 46953, Control_c, 2, 64, 84
3, 46960, Control_c, 2, 64, 80
3, 46970, Control_c, 2, 64, 76
3, 46977, Control_c, 2, 64, 72
3, 46984, Control_c, 2, 64, 68
3, 46992, Control_c, 2, 64, 64
3, 47008, Control_c, 2, 64, 60
3, 47020, Control_c, 2, 64, 44
3, 47045, Control_c, 2, 64, 28
3, 47211, Control_c, 2, 64, 44
3, 47231, Control_c, 2, 64, 60
3, 47241, Control_c, 2, 64, 64
3, 47251, Control_c, 2, 64, 68
3, 47274, Control_c, 2, 64, 72
3, 47300, Control_c, 2, 64, 76
3, 47332, Control_c, 2, 64, 80
3, 47368, Control_c, 2, 64, 84
3, 47397, Control_c, 2, 64, 88
3, 47425, Control_c, 2, 64, 92
3, 47667, Control_c, 2, 64, 88
3, 47689, Control_c, 2, 64, 84
3, 47723, Control_c, 2, 64, 80
3, 47740, Control_c, 2, 64, 76
3, 47750, Control_c, 2, 64, 72
3, 47757, Control_c, 2, 64, 68
3, 47767, Control_c, 2, 64, 64
3, 47783, Control_c, 2, 64, 60
3, 47878, Control_c, 2, 64, 64
3, 47894, Control_c, 2, 64, 68
3, 47912, Control_c, 2, 64, 72
3, 47933, Control_c, 2, 64, 76
3, 47962, Control_c, 2, 64, 80
3, 47997, Control_c, 2, 64, 84
3, 48414, Control_c, 2, 64, 80
3, 48468, Control_c, 2, 64, 76
3, 48505, Control_c, 2, 64, 72
3, 48528, Control_c, 2, 64, 68
3, 48546, Control_c, 2, 64, 64
3, 48571, Control_c, 2, 64, 60
3, 48626, Control_c, 2, 64, 44
3, 48745, Control_c, 2, 64, 60
3, 48768, Control_c, 2, 64, 64
3, 48789, Control_c, 2, 64, 68
3, 48819, Control_c, 2, 64, 72
3, 48855, Control_c, 2, 64, 76
3, 48895, Control_c, 2, 64, 80
3, 48940, Control_c, 2, 64, 84
3, 48966, Control_c, 2, 64, 88
3, 48975, Control_c, 2, 64, 92
3, 48998, Control_c, 2, 64, 100
3, 49142, Control_c, 2, 64, 92
3, 49157, Control_c, 2, 64, 88
3, 49163, Control_c, 2, 64, 84
3, 49178, Control_c, 2, 64, 80
3, 49185, Control_c, 2, 64, 76
3, 49198, Control_c, 2, 64, 72
3, 49210, Control_c, 2, 64, 68
3, 49222, Control_c, 2, 64, 64
3, 49241, Control_c, 2, 64, 60
3, 49253, Control_c, 2, 64, 44
3, 49272, Control_c, 2, 64, 28
3, 49407, Control_c, 2, 64, 44
3, 49417, Control_c, 2, 64, 60
3, 49422, Control_c, 2, 64, 64
3, 49428, Control_c, 2, 64, 68
3, 49449, Control_c, 2, 64, 72
3, 49475, Control_c, 2, 64, 76
3, 49508, Control_c, 2, 64, 80
3, 49548, Control_c, 2, 64, 84
3, 49578, Control_c, 2, 64, 88
3, 49598, Control_c, 2, 64, 92
3, 49633, Control_c, 2, 64, 100
3, 49861, Control_c, 2, 64, 92
3, 49889, Control_c, 2, 64, 88
3, 49897, Control_c, 2, 64, 84
3, 49909, Control_c, 2, 64, 80
3, 49920, Control_c, 2, 64, 76
3, 49928, Control_c, 2, 64, 72
3, 49935, Control_c, 2, 64, 68
3, 49944, Control_c, 2, 64, 64
3, 49970, Control_c, 2, 64, 60
3, 50056, Control_c, 2, 64, 64
3, 50068, Control_c, 2, 64, 68
3, 50084, Control_c, 2, 64, 72
3, 50104, Control_c, 2, 64, 76
3, 50138, Control_c, 2, 64, 80
3, 50232, Control_c, 2, 64, 76
3, 50242, Control_c, 2, 64, 72
3, 50250, Control_c, 2, 64, 68
3, 50268, Control_c, 2, 64, 64
3, 50308, Control_c, 2, 64, 68
3, 50320, Control_c, 2, 64, 72
3, 50337, Control_c, 2, 64, 76
3, 50355, Control_c, 2, 64, 80
3, 50381, Control_c, 2, 64, 84
3, 50400, Control_c, 2, 64, 88
3, 50421, Control_c, 2, 64, 92
3, 50507, Control_c, 2, 64, 88
3, 50511, Control_c, 2, 64, 84
3, 50517, Control_c, 2, 64, 80
3, 50521, Control_c, 2, 64, 76
3, 50524, Control_c, 2, 64, 72
3, 50530, Control_c, 2, 64, 68
3, 50531, Control_c, 2, 64, 64
3, 50537, Control_c, 2, 64, 60
3, 50544, Control_c, 2, 64, 44
3, 50595, Control_c, 2, 64, 60
3, 50604, Control_c, 2, 64, 64
3, 50607, Control_c, 2, 64, 68
3, 50614, Control_c, 2, 64, 72
3, 50630, Control_c, 2, 64, 76
3, 50652, Control_c, 2, 64, 80
3, 50690, Control_c, 2, 64, 84
3, 50770, Control_c, 2, 64, 80
3, 50780, Control_c, 2, 64, 76
3, 50785, Control_c, 2, 64, 72
3, 50790, Control_c, 2, 64, 68
3, 50794, Control_c, 2, 64, 64
3, 50806, Control_c, 2, 64, 60
3, 50807, Control_c, 2, 64, 44
3, 50814, Control_c, 2, 64, 28
3, 50829, Control_c, 2, 64, 12
3, 50877, Control_c, 2, 64, 28
3, 50887, Control_c, 2, 64, 44
3, 50894, Control_c, 2, 64, 60
3, 50897, Control_c, 2, 64, 64
3, 50900, Control_c, 2, 64, 68
3, 50904, Control_c, 2, 64, 72
3, 50915, Control_c, 2, 64, 76
3, 50931, Control_c, 2, 64, 80
3, 50947, Control_c, 2, 64, 84
3, 50957, Control_c, 2, 64, 88
3, 50967, Control_c, 2, 64, 92
3, 50984, Control_c, 2, 64, 100
3, 51111, Control_c, 2, 64, 92
3, 51118, Control_c, 2, 64, 88
3, 51121, Control_c, 2, 64, 84
3, 51126, Control_c, 2, 64, 80
3, 51129, Control_c, 2, 64, 76
3, 51136, Control_c, 2, 64, 72
3, 51143, Control_c, 2, 64, 68
3, 51150, Control_c, 2, 64, 64
3, 51159, Control_c, 2, 64, 60
3, 51166, Control_c, 2, 64, 44
3, 51176, Control_c, 2, 64, 28
3, 51186, Control_c, 2, 64, 12
3, 51216, Control_c, 2, 64, 0
3, 51329, Control_c, 2, 64, 12
3, 51347, Control_c, 2, 64, 28
3, 51357, Control_c, 2, 64, 44
3, 51365, Control_c, 2, 64, 60
3, 51372, Control_c, 2, 64, 64
3, 51372, Control_c, 2, 67, 104
3, 51377, Control_c, 2, 64, 68
3, 51387, Control_c, 2, 64, 72
3, 51403, Control_c, 2, 67, 96
3, 51408, Control_c, 2, 64, 76
3, 51420, Control_c, 2, 67, 88
3, 51431, Control_c, 2, 64, 80
3, 51437, Control_c, 2, 67, 80
3, 51450, Control_c, 2, 67, 72
3, 51460, Control_c, 2, 64, 84
3, 51460, Control_c, 2, 67, 64
3, 51476, Control_c, 2, 67, 56
3, 51479, Control_c, 2, 64, 88
3, 51496, Control_c, 2, 64, 92
3, 51573, Control_c, 2, 67, 64
3, 51685, Control_c, 2, 67, 72
3, 51776, Control_c, 2, 64, 88
3, 51790, Control_c, 2, 64, 84
3, 51808, Control_c, 2, 64, 80
3, 51813, Control_c, 2, 64, 76
3, 51820, Control_c, 2, 64, 72
3, 51823, Control_c, 2, 64, 68
3, 51828, Control_c, 2, 64, 64
3, 51833, Control_c, 2, 64, 60
3, 51840, Control_c, 2, 64, 44
3, 51899, Control_c, 2, 67, 80
3, 51903, Control_c, 2, 64, 60
3, 51909, Control_c, 2, 64, 64
3, 51913, Control_c, 2, 64, 68
3, 51919, Control_c, 2, 64, 72
3, 51923, Control_c, 2, 64, 76
3, 51932, Control_c, 2, 64, 80
3, 51943, Control_c, 2, 64, 84
3, 51949, Control_c, 2, 64, 88
3, 51953, Control_c, 2, 64, 92
3, 51961, Control_c, 2, 64, 100
3, 51969, Control_c, 2, 64, 112
3, 51977, Control_c, 2, 64, 127
3, 52170, Control_c, 2, 64, 112
3, 52176, Control_c, 2, 64, 100
3, 52178, Control_c, 2, 64, 92
3, 52180, Control_c, 2, 64, 88
3, 52180, Control_c, 2, 64, 84
3, 52183, Control_c, 2, 64, 80
3, 52184, Control_c, 2, 64, 76
3, 52188, Control_c, 2, 64, 72
3, 52188, Control_c, 2, 64, 68
3, 52189, Control_c, 2, 64, 64
3, 52192, Control_c, 2, 64, 60
3, 52236, Control_c, 2, 64, 64
3, 52243, Control_c, 2, 64, 68
3, 52250, Control_c, 2, 64, 72
3, 52260, Control_c, 2, 64, 76
3, 52272, Control_c, 2, 64, 80
3, 52286, Control_c, 2, 64, 84
3, 52298, Control_c, 2, 64, 88
3, 52307, Control_c, 2, 64, 92
3, 52319, Control_c, 2, 64, 100
3, 52334, Control_c, 2, 64, 112
3, 52457, Control_c, 2, 64, 100
3, 52463, Control_c, 2, 64, 92
3, 52467, Control_c, 2, 64, 84
3, 52469, Control_c, 2, 64, 80
3, 52473, Control_c, 2, 64, 76
3, 52475, Control_c, 2, 64, 72
3, 52477, Control_c, 2, 64, 68
3, 52478, Control_c, 2, 64, 64
3, 52483, Control_c, 2, 64, 60
3, 52489, Control_c, 2, 64, 44
3, 52532, Control_c, 2, 64, 60
3, 52538, Control_c, 2, 64, 64
3, 52542, Control_c, 2, 64, 68
3, 52551, Control_c, 2, 64, 72
3, 52562, Control_c, 2, 64, 76
3, 52580, Control_c, 2, 64, 80
3, 52580, Control_c, 2, 67, 72
3, 52590, Control_c, 2, 64, 84
3, 52598, Control_c, 2, 64, 88
3, 52613, Control_c, 2, 64, 92
3, 52613, Control_c, 2, 64, 100
3, 52629, Control_c, 2, 64, 112
3, 52639, Control_c, 2, 64, 127
3, 52732, Control_c, 2, 64, 112
3, 52742, Control_c, 2, 64, 100
3, 52747, Control_c, 2, 64, 92
3, 52749, Control_c, 2, 64, 88
3, 52749, Control_c, 2, 64, 84
3, 52752, Control_c, 2, 64, 80
3, 52754, Control_c, 2, 64, 76
3, 52757, Control_c, 2, 64, 72
3, 52759, Control_c, 2, 64, 68
3, 52762, Control_c, 2, 64, 64
3, 52767, Control_c, 2, 64, 60
3, 52812, Control_c, 2, 64, 64
3, 52819, Control_c, 2, 64, 68
3, 52824, Control_c, 2, 64, 72
3, 52838, Control_c, 2, 64, 76
3, 52852, Control_c, 2, 64, 80
3, 52871, Control_c, 2, 64, 84
3, 52880, Control_c, 2, 64, 88
3, 52888, Control_c, 2, 64, 92
3, 52900, Control_c, 2, 64, 100
3, 52916, Control_c, 2, 64, 112
3, 52991, Control_c, 2, 64, 100
3, 52995, Control_c, 2, 64, 92
3, 52999, Control_c, 2, 64, 84
3, 53001, Control_c, 2, 64, 80
3, 53005, Control_c, 2, 64, 76
3, 53006, Control_c, 2, 64, 72
3, 53011, Control_c, 2, 64, 68
3, 53011, Control_c, 2, 64, 64
3, 53013, Control_c, 2, 64, 60
3, 53019, Control_c, 2, 64, 44
3, 53062, Control_c, 2, 64, 60
3, 53067, Control_c, 2, 64, 64
3, 53072, Control_c, 2, 64, 68
3, 53078, Control_c, 2, 64, 72
3, 53170, Control_c, 2, 64, 68
3, 53177, Control_c, 2, 64, 64
3, 53184, Control_c, 2, 64, 60
3, 53190, Control_c, 2, 64, 44
3, 53202, Control_c, 2, 64, 28
3, 53212, Control_c, 2, 64, 12
3, 53549, Control_c, 2, 67, 80
3, 53557, Control_c, 2, 64, 28
3, 53565, Control_c, 2, 64, 44
3, 53572, Control_c, 2, 64, 60
3, 53575, Control_c, 2, 64, 64
3, 53580, Control_c, 2, 64, 68
3, 53584, Control_c, 2, 64, 72
3, 53607, Control_c, 2, 67, 88
3, 53613, Control_c, 2, 64, 76
3, 53646, Control_c, 2, 67, 96
3, 53683, Control_c, 2, 67, 104
3, 53738, Control_c, 2, 67, 112
3, 53744, Control_c, 2, 64, 72
3, 53788, Control_c, 2, 64, 68
3, 53933, Control_c, 2, 64, 72
3, 53963, Control_c, 2, 64, 76
3, 53985, Control_c, 2, 64, 80
3, 54008, Control_c, 2, 64, 84
3, 54021, Control_c, 2, 64, 88
3, 54027, Control_c, 2, 64, 92
3, 54036, Control_c, 2, 64, 100
3, 54055, Control_c, 2, 64, 112
3, 54075, Control_c, 2, 64, 127
3, 54333, Control_c, 2, 64, 112
3, 54449, Control_c, 2, 64, 100
3, 54480, Control_c, 2, 64, 92
3, 54494, Control_c, 2, 64, 88
3, 54494, Control_c, 2, 64, 84
3, 54501, Control_c, 2, 64, 80
3, 54506, Control_c, 2, 64, 76
3, 54512, Control_c, 2, 64, 72
3, 54524, Control_c, 2, 64, 68
3, 54584, Control_c, 2, 64, 72
3, 54604, Control_c, 2, 64, 76
3, 54617, Control_c, 2, 64, 80
3, 54633, Control_c, 2, 64, 84
3, 54644, Control_c, 2, 64, 88
3, 54652, Control_c, 2, 64, 92
3, 54663, Control_c, 2, 64, 100
3, 54675, Control_c, 2, 64, 112
3, 54685, Control_c, 2, 64, 127
3, 55213, Control_c, 2, 64, 112
3, 55247, Control_c, 2, 64, 100
3, 55267, Control_c, 2, 64, 92
3, 55277, Control_c, 2, 64, 88
3, 55279, Control_c, 2, 64, 84
3, 55284, Control_c, 2, 64, 80
3, 55289, Control_c, 2, 64, 76
3, 55296, Control_c, 2, 64, 72
3, 55302, Control_c, 2, 64, 68
3, 55312, Control_c, 2, 64, 64
3, 55326, Control_c, 2, 64, 60
3, 55339, Control_c, 2, 64, 44
3, 55428, Control_c, 2, 64, 60
3, 55438, Control_c, 2, 64, 64
3, 55442, Control_c, 2, 64, 68
3, 55455, Control_c, 2, 64, 72
3, 55467, Control_c, 2, 64, 76
3, 55480, Control_c, 2, 64, 80
3, 55493, Control_c, 2, 64, 84
3, 55502, Control_c, 2, 64, 88
3, 55510, Control_c, 2, 64, 92
3, 55523, Control_c, 2, 64, 100
3, 55538, Control_c, 2, 64, 112
3, 55546, Control_c, 2, 64, 127
3, 55807, Control_c, 2, 64, 112
3, 56255, Control_c, 2, 64, 100
3, 56378, Control_c, 2, 64, 92
3, 56450, Control_c, 2, 64, 88
3, 56462, Control_c, 2, 64, 84
3, 56479, Control_c, 2, 64, 80
3, 56490, Control_c, 2, 64, 76
3, 56497, Control_c, 2, 64, 72
3, 56508, Control_c, 2, 64, 68
3, 56586, Control_c, 2, 64, 72
3, 56611, Control_c, 2, 64, 76
3, 56633, Control_c, 2, 64, 80
3, 56651, Control_c, 2, 64, 84
3, 56665, Control_c, 2, 64, 88
3, 56676, Control_c, 2, 64, 92
3, 56697, Control_c, 2, 64, 100
3, 56771, Control_c, 2, 64, 92
3, 56779, Control_c, 2, 64, 88
3, 56782, Control_c, 2, 64, 84
3, 56789, Control_c, 2, 64, 80
3, 56797, Control_c, 2, 64, 76
3, 56800, Control_c, 2, 64, 72
3, 56807, Control_c, 2, 64, 68
3, 56814, Control_c, 2, 64, 64
3, 56892, Control_c, 2, 64, 68
3, 56913, Control_c, 2, 64, 72
3, 57058, Control_c, 2, 64, 68
3, 57076, Control_c, 2, 64, 64
3, 57098, Control_c, 2, 64, 60
3, 57115, Control_c, 2, 64, 44
3, 57223, Control_c, 2, 64, 60
3, 57224, Control_c, 2, 64, 64
3, 57227, Control_c, 2, 64, 68
3, 57234, Control_c, 2, 64, 72
3, 57244, Control_c, 2, 64, 76
3, 57263, Control_c, 2, 64, 80
3, 57282, Control_c, 2, 64, 84
3, 57399, Control_c, 2, 64, 80
3, 57420, Control_c, 2, 64, 76
3, 57442, Control_c, 2, 64, 72
3, 57459, Control_c, 2, 64, 68
3, 57474, Control_c, 2, 64, 64
3, 57489, Control_c, 2, 64, 60
3, 57501, Control_c, 2, 64, 44
3, 57522, Control_c, 2, 64, 28
3, 57550, Control_c, 2, 64, 12
3, 57602, Control_c, 2, 64, 0
3, 58126, Control_c, 2, 64, 12
3, 58138, Control_c, 2, 64, 28
3, 58148, Control_c, 2, 64, 44
3, 58154, Control_c, 2, 64, 60
3, 58156, Control_c, 2, 64, 64
3, 58161, Control_c, 2, 64, 68
3, 58164, Control_c, 2, 64, 72
3, 58176, Control_c, 2, 64, 76
3, 58192, Control_c, 2, 64, 80
3, 58203, Control_c, 2, 64, 84
3, 58212, Control_c, 2, 64, 88
3, 58216, Control_c, 2, 64, 92
3, 58227, Control_c, 2, 64, 100
3, 58239, Control_c, 2, 64, 112
3, 58255, Control_c, 2, 64, 127
3, 58597, Control_c, 2, 64, 112
3, 58625, Control_c, 2, 64, 100
3, 58634, Control_c, 2, 64, 92
3, 58636, Control_c, 2, 64, 88
3, 58639, Control_c, 2, 64, 84
3, 58642, Control_c, 2, 64, 80
3, 58645, Control_c, 2, 64, 76
3, 58649, Control_c, 2, 64, 72
3, 58652, Control_c, 2, 64, 68
3, 58656, Control_c, 2, 64, 64
3, 58697, Control_c, 2, 64, 68
3, 58707, Control_c, 2, 64, 72
3, 58723, Control_c, 2, 64, 76
3, 58733, Control_c, 2, 64, 80
3, 58752, Control_c, 2, 64, 84
3, 58765, Control_c, 2, 64, 88
3, 58773, Control_c, 2, 64, 92
3, 58790, Control_c, 2, 64, 100
3, 58876, Control_c, 2, 64, 92
3, 58889, Control_c, 2, 64, 88
3, 58891, Control_c, 2, 64, 84
3, 58896, Control_c, 2, 64, 80
3, 58903, Control_c, 2, 64, 76
3, 58909, Control_c, 2, 64, 72
3, 58913, Control_c, 2, 64, 68
3, 58919, Control_c, 2, 64, 64
3, 58923, Control_c, 2, 64, 60
3, 58929, Control_c, 2, 64, 44
3, 58939, Control_c, 2, 64, 28
3, 58949, Control_c, 2, 64, 12
3, 58956, Control_c, 2, 64, 0
3, 59022, Control_c, 2, 64, 12
3, 59030, Control_c, 2, 64, 28
3, 59035, Control_c, 2, 64, 44
3, 59042, Control_c, 2, 64, 60
3, 59048, Control_c, 2, 64, 64
3, 59048, Control_c, 2, 64, 68
3, 59052, Control_c, 2, 64, 72
3, 59058, Control_c, 2, 64, 76
3, 59069, Control_c, 2, 64, 80
3, 59082, Control_c, 2, 64, 84
3, 59088, Control_c, 2, 64, 88
3, 59093, Control_c, 2, 64, 92
3, 59103, Control_c, 2, 64, 100
3, 59113, Control_c, 2, 64, 112
3, 59120, Control_c, 2, 64, 127
3, 59286, Control_c, 2, 64, 112
3, 59296, Control_c, 2, 64, 100
3, 59306, Control_c, 2, 64, 92
3, 59312, Control_c, 2, 64, 88
3, 59314, Control_c, 2, 64, 84
3, 59319, Control_c, 2, 64, 80
3, 59322, Control_c, 2, 64, 76
3, 59327, Control_c, 2, 64, 72
3, 59332, Control_c, 2, 64, 68
3, 59336, Control_c, 2, 64, 64
3, 59350, Control_c, 2, 64, 60
3, 59356, Control_c, 2, 64, 44
3, 59375, Control_c, 2, 64, 28
3, 59395, Control_c, 2, 64, 12
3, 59492, Control_c, 2, 64, 28
3, 59508, Control_c, 2, 64, 44
3, 59516, Control_c, 2, 64, 60
3, 59522, Control_c, 2, 64, 64
3, 59528, Control_c, 2, 64, 68
3, 59538, Control_c, 2, 64, 72
3, 59558, Control_c, 2, 64, 76
3, 59573, Control_c, 2, 64, 80
3, 59588, Control_c, 2, 64, 84
3, 59601, Control_c, 2, 64, 88
3, 59611, Control_c, 2, 64, 92
3, 59618, Control_c, 2, 64, 100
3, 59634, Control_c, 2, 64, 112
3, 59646, Control_c, 2, 64, 127
3, 59955, Control_c, 2, 64, 112
3, 59969, Control_c, 2, 64, 100
3, 59981, Control_c, 2, 64, 92
3, 59984, Control_c, 2, 64, 88
3, 59984, Control_c, 2, 64, 84
3, 59988, Control_c, 2, 64, 80
3, 59991, Control_c, 2, 64, 76
3, 59996, Control_c, 2, 64, 72
3, 59998, Control_c, 2, 64, 68
3, 60004, Control_c, 2, 64, 64
3, 60008, Control_c, 2, 64, 60
3, 60028, Control_c, 2, 64, 44
3, 60086, Control_c, 2, 64, 60
3, 60092, Control_c, 2, 64, 64
3, 60099, Control_c, 2, 64, 68
3, 60108, Control_c, 2, 64, 72
3, 60115, Control_c, 2, 64, 76
3, 60125, Control_c, 2, 64, 80
3, 60137, Control_c, 2, 64, 84
3, 60144, Control_c, 2, 64, 88
3, 60150, Control_c, 2, 64, 92
3, 60159, Control_c, 2, 64, 100
3, 60173, Control_c, 2, 64, 112
3, 60180, Control_c, 2, 64, 127
3, 60304, Control_c, 2, 64, 112
3, 60315, Control_c, 2, 64, 100
3, 60326, Control_c, 2, 64, 92
3, 60329, Control_c, 2, 64, 88
3, 60331, Control_c, 2, 64, 84
3, 60336, Control_c, 2, 64, 80
3, 60338, Control_c, 2, 64, 76
3, 60341, Control_c, 2, 64, 72
3, 60344, Control_c, 2, 64, 68
3, 60348, Control_c, 2, 64, 64
3, 60354, Control_c, 2, 64, 60
3, 60407, Control_c, 2, 64, 64
3, 60412, Control_c, 2, 64, 68
3, 60419, Control_c, 2, 64, 72
3, 60429, Control_c, 2, 64, 76
3, 60440, Control_c, 2, 64, 80
3, 60454, Control_c, 2, 64, 84
3, 60459, Control_c, 2, 64, 88
3, 60464, Control_c, 2, 64, 92
3, 60474, Control_c, 2, 64, 100
3, 60485, Control_c, 2, 64, 112
3, 60492, Control_c, 2, 64, 127
3, 60658, Control_c, 2, 64, 112
3, 60666, Control_c, 2, 64, 100
3, 60673, Control_c, 2, 64, 92
3, 60673, Control_c, 2, 64, 88
3, 60678, Control_c, 2, 64, 84
3, 60678, Control_c, 2, 64, 80
3, 60684, Control_c, 2, 64, 76
3, 60684, Control_c, 2, 64, 72
3, 60691, Control_c, 2, 64, 68
3, 60694, Control_c, 2, 64, 64
3, 60728, Control_c, 2, 64, 68
3, 60742, Control_c, 2, 64, 72
3, 60752, Control_c, 2, 64, 76
3, 60762, Control_c, 2, 64, 80
3, 60772, Control_c, 2, 64, 84
3, 60780, Control_c, 2, 64, 88
3, 60787, Control_c, 2, 64, 92
3, 60794, Control_c, 2, 64, 100
3, 60807, Control_c, 2, 64, 112
3, 60811, Control_c, 2, 64, 127
3, 60942, Control_c, 2, 64, 112
3, 60948, Control_c, 2, 64, 100
3, 60953, Control_c, 2, 64, 92
3, 60953, Control_c, 2, 64, 84
3, 60958, Control_c, 2, 64, 80
3, 60960, Control_c, 2, 64, 76
3, 60961, Control_c, 2, 64, 72
3, 60963, Control_c, 2, 64, 68
3, 60973, Control_c, 2, 64, 64
3, 60983, Control_c, 2, 64, 68
3, 60997, Control_c, 2, 64, 72
3, 61013, Control_c, 2, 64, 76
3, 61023, Control_c, 2, 64, 80
3, 61033, Control_c, 2, 64, 84
3, 61038, Control_c, 2, 64, 88
3, 61044, Control_c, 2, 64, 92
3, 61050, Control_c, 2, 64, 100
3, 61060, Control_c, 2, 64, 112
3, 61066, Control_c, 2, 64, 127
3, 61217, Control_c, 2, 64, 112
3, 61222, Control_c, 2, 64, 100
3, 61225, Control_c, 2, 64, 92
3, 61227, Control_c, 2, 64, 88
3, 61230, Control_c, 2, 64, 84
3, 61232, Control_c, 2, 64, 80
3, 61233, Control_c, 2, 64, 76
3, 61237, Control_c, 2, 64, 72
3, 61238, Control_c, 2, 64, 68
3, 61240, Control_c, 2, 64, 64
3, 61242, Control_c, 2, 64, 60
3, 61270, Control_c, 2, 67, 104
3, 61293, Control_c, 2, 64, 64
3, 61300, Control_c, 2, 64, 68
3, 61308, Control_c, 2, 64, 72
3, 61316, Control_c, 2, 64, 76
3, 61326, Control_c, 2, 64, 80
3, 61333, Control_c, 2, 67, 96
3, 61335, Control_c, 2, 64, 84
3, 61341, Control_c, 2, 64, 88
3, 61348, Control_c, 2, 64, 92
3, 61355, Control_c, 2, 64, 100
3, 61357, Control_c, 2, 67, 88
3, 61363, Control_c, 2, 64, 112
3, 61371, Control_c, 2, 64, 127
3, 61378, Control_c, 2, 67, 80
3, 61393, Control_c, 2, 67, 72
3, 61406, Control_c, 2, 67, 64
3, 61416, Control_c, 2, 67, 56
3, 61426, Control_c, 2, 67, 48
3, 61509, Control_c, 2, 64, 112
3, 61513, Control_c, 2, 64, 100
3, 61517, Control_c, 2, 64, 92
3, 61521, Control_c, 2, 64, 84
3, 61524, Control_c, 2, 64, 80
3, 61526, Control_c, 2, 64, 76
3, 61529, Control_c, 2, 64, 72
3, 61530, Control_c, 2, 67, 40
3, 61562, Control_c, 2, 64, 76
3, 61572, Control_c, 2, 64, 80
3, 61582, Control_c, 2, 64, 84
3, 61587, Control_c, 2, 64, 88
3, 61594, Control_c, 2, 64, 92
3, 61603, Control_c, 2, 64, 100
3, 61609, Control_c, 2, 67, 32
3, 61609, Control_c, 2, 64, 112
3, 61617, Control_c, 2, 64, 127
3, 61670, Control_c, 2, 67, 24
3, 61707, Control_c, 2, 67, 16
3, 61755, Control_c, 2, 67, 8
3, 61786, Control_c, 2, 64, 112
3, 61794, Control_c, 2, 64, 100
3, 61798, Control_c, 2, 64, 92
3, 61800, Control_c, 2, 64, 88
3, 61800, Control_c, 2, 64, 84
3, 61804, Control_c, 2, 64, 80
3, 61806, Control_c, 2, 64, 76
3, 61808, Control_c, 2, 64, 72
3, 61811, Control_c, 2, 64, 68
3, 61814, Control_c, 2, 64, 64
3, 61823, Control_c, 2, 64, 60
3, 61839, Control_c, 2, 64, 44
3, 61897, Control_c, 2, 64, 60
3, 61901, Control_c, 2, 64, 64
3, 61907, Control_c, 2, 64, 68
3, 61911, Control_c, 2, 64, 72
3, 61921, Control_c, 2, 64, 76
3, 61929, Control_c, 2, 64, 80
3, 61942, Control_c, 2, 64, 84
3, 61949, Control_c, 2, 64, 88
3, 61952, Control_c, 2, 64, 92
3, 61959, Control_c, 2, 64, 100
3, 61967, Control_c, 2, 67, 0
3, 61969, Control_c, 2, 64, 112
3, 61977, Control_c, 2, 64, 127
3, 62294, Control_c, 2, 67, 8
3, 62388, Control_c, 2, 64, 112
3, 62403, Control_c, 2, 64, 100
3, 62413, Control_c, 2, 64, 92
3, 62417, Control_c, 2, 64, 88
3, 62421, Control_c, 2, 64, 84
3, 62423, Control_c, 2, 64, 80
3, 62427, Control_c, 2, 64, 76
3, 62433, Control_c, 2, 64, 72
3, 62433, Control_c, 2, 64, 68
3, 62440, Control_c, 2, 64, 64
3, 62446, Control_c, 2, 64, 60
3, 62453, Control_c, 2, 64, 44
3, 62462, Control_c, 2, 64, 28
3, 62471, Control_c, 2, 64, 12
3, 62481, Control_c, 2, 67, 16
3, 62516, Control_c, 2, 64, 28
3, 62520, Control_c, 2, 64, 44
3, 62529, Control_c, 2, 64, 60
3, 62529, Control_c, 2, 64, 64
3, 62531, Control_c, 2, 64, 68
3, 62531, Control_c, 2, 64, 72
3, 62536, Control_c, 2, 64, 76
3, 62536, Control_c, 2, 64, 80
3, 62537, Control_c, 2, 67, 24
3, 62546, Control_c, 2, 64, 84
3, 62563, Control_c, 2, 64, 88
3, 62569, Control_c, 2, 67, 32
3, 62576, Control_c, 2, 64, 92
3, 62592, Control_c, 2, 64, 100
3, 62592, Control_c, 2, 67, 40
3, 62615, Control_c, 2, 67, 48
3, 62644, Control_c, 2, 67, 56
3, 62670, Control_c, 2, 67, 64
3, 62695, Control_c, 2, 67, 72
3, 62718, Control_c, 2, 64, 92
3, 62722, Control_c, 2, 64, 88
3, 62725, Control_c, 2, 64, 84
3, 62725, Control_c, 2, 67, 80
3, 62729, Control_c, 2, 64, 80
3, 62733, Control_c, 2, 64, 76
3, 62735, Control_c, 2, 64, 72
3, 62739, Control_c, 2, 64, 68
3, 62743, Control_c, 2, 64, 64
3, 62753, Control_c, 2, 64, 60
3, 62753, Control_c, 2, 67, 88
3, 62763, Control_c, 2, 64, 44
3, 62770, Control_c, 2, 67, 96
3, 62773, Control_c, 2, 64, 28
3, 62782, Control_c, 2, 64, 12
3, 62791, Control_c, 2, 67, 104
3, 62800, Control_c, 2, 64, 0
3, 62876, Control_c, 2, 67, 112
3, 62881, Control_c, 2, 64, 12
3, 62888, Control_c, 2, 64, 28
3, 62895, Control_c, 2, 64, 44
3, 62902, Control_c, 2, 64, 60
3, 62904, Control_c, 2, 64, 64
3, 62905, Control_c, 2, 64, 68
3, 62911, Control_c, 2, 64, 72
3, 62918, Control_c, 2, 64, 76
3, 62941, Control_c, 2, 64, 80
3, 62957, Control_c, 2, 64, 84
3, 62969, Control_c, 2, 64, 88
3, 62982, Control_c, 2, 64, 92
3, 63004, Control_c, 2, 64, 100
3, 63069, Control_c, 2, 64, 92
3, 63099, Control_c, 2, 64, 88
3, 63109, Control_c, 2, 64, 84
3, 63125, Control_c, 2, 64, 80
3, 63132, Control_c, 2, 64, 76
3, 63141, Control_c, 2, 64, 72
3, 63148, Control_c, 2, 64, 68
3, 63156, Control_c, 2, 64, 64
3, 63163, Control_c, 2, 64, 60
3, 63172, Control_c, 2, 64, 44
3, 63182, Control_c, 2, 64, 28
3, 63192, Control_c, 2, 64, 12
3, 63215, Control_c, 2, 64, 0
3, 63415, Control_c, 2, 64, 12
3, 63450, Control_c, 2, 64, 28
3, 63462, Control_c, 2, 64, 44
3, 63470, Control_c, 2, 64, 60
3, 63478, Control_c, 2, 64, 64
3, 63483, Control_c, 2, 64, 68
3, 63490, Control_c, 2, 64, 72
3, 63510, Control_c, 2, 64, 76
3, 63531, Control_c, 2, 64, 80
3, 63548, Control_c, 2, 64, 84
3, 63558, Control_c, 2, 64, 88
3, 63565, Control_c, 2, 64, 92
3, 63574, Control_c, 2, 64, 100
3, 63588, Control_c, 2, 64, 112
3, 63599, Control_c, 2, 64, 127
3, 63795, Control_c, 2, 64, 112
3, 63828, Control_c, 2, 64, 100
3, 63845, Control_c, 2, 64, 92
3, 63852, Control_c, 2, 64, 88
3, 63857, Control_c, 2, 64, 84
3, 63865, Control_c, 2, 64, 80
3, 63870, Control_c, 2, 64, 76
3, 63877, Control_c, 2, 64, 72
3, 63888, Control_c, 2, 64, 68
3, 63898, Control_c, 2, 64, 64
3, 63911, Control_c, 2, 64, 60
3, 63921, Control_c, 2, 64, 44
3, 63981, Control_c, 2, 64, 60
3, 63988, Control_c, 2, 64, 64
3, 63994, Control_c, 2, 64, 68
3, 64007, Control_c, 2, 64, 72
3, 64026, Control_c, 2, 64, 76
3, 64038, Control_c, 2, 64, 80
3, 64057, Control_c, 2, 64, 84
3, 64068, Control_c, 2, 64, 88
3, 64080, Control_c, 2, 64, 92
3, 64092, Control_c, 2, 64, 100
3, 64129, Control_c, 2, 64, 112
3, 64273, Control_c, 2, 64, 100
3, 64301, Control_c, 2, 64, 92
3, 64308, Control_c, 2, 64, 88
3, 64310, Control_c, 2, 64, 84
3, 64316, Control_c, 2, 64, 80
3, 64318, Control_c, 2, 64, 76
3, 64323, Control_c, 2, 64, 72
3, 64324, Control_c, 2, 64, 68
3, 64328, Control_c, 2, 64, 64
3, 64331, Control_c, 2, 67, 104
3, 64332, Control_c, 2, 64, 60
3, 64335, Control_c, 2, 64, 44
3, 64349, Control_c, 2, 64, 28
3, 64387, Control_c, 2, 67, 96
3, 64406, Control_c, 2, 64, 44
3, 64414, Control_c, 2, 64, 60
3, 64416, Control_c, 2, 64, 64
3, 64419, Control_c, 2, 64, 68
3, 64421, Control_c, 2, 64, 72
3, 64429, Control_c, 2, 64, 76
3, 64432, Control_c, 2, 67, 88
3, 64441, Control_c, 2, 64, 80
3, 64454, Control_c, 2, 64, 84
3, 64454, Control_c, 2, 67, 80
3, 64461, Control_c, 2, 64, 88
3, 64469, Control_c, 2, 64, 92
3, 64475, Control_c, 2, 67, 72
3, 64477, Control_c, 2, 64, 100
3, 64485, Control_c, 2, 64, 112
3, 64487, Control_c, 2, 67, 64
3, 64491, Control_c, 2, 64, 127
3, 64500, Control_c, 2, 67, 56
3, 64510, Control_c, 2, 67, 48
3, 64555, Control_c, 2, 67, 40
3, 64605, Control_c, 2, 67, 32
3, 64640, Control_c, 2, 67, 24
3, 64668, Control_c, 2, 67, 16
3, 64710, Control_c, 2, 67, 8
3, 64817, Control_c, 2, 67, 0
3, 65260, Control_c, 2, 64, 112
3, 65267, Control_c, 2, 64, 100
3, 65275, Control_c, 2, 64, 92
3, 65277, Control_c, 2, 64, 88
3, 65280, Control_c, 2, 64, 84
3, 65280, Control_c, 2, 64, 80
3, 65282, Control_c, 2, 64, 76
3, 65287, Control_c, 2, 64, 72
3, 65288, Control_c, 2, 64, 68
3, 65290, Control_c, 2, 64, 64
3, 65292, Control_c, 2, 64, 60
3, 65294, Control_c, 2, 64, 44
3, 65303, Control_c, 2, 64, 28
3, 65313, Control_c, 2, 64, 12
3, 65380, Control_c, 2, 64, 28
3, 65388, Control_c, 2, 64, 44
3, 65396, Control_c, 2, 64, 60
3, 65400, Control_c, 2, 64, 64
3, 65403, Control_c, 2, 64, 68
3, 65410, Control_c, 2, 64, 72
3, 65426, Control_c, 2, 64, 76
3, 65446, Control_c, 2, 64, 80
3, 65464, Control_c, 2, 64, 84
3, 65473, Control_c, 2, 64, 88
3, 65483, Control_c, 2, 64, 92
3, 65496, Control_c, 2, 64, 100
3, 65532, Control_c, 2, 64, 112
3, 65594, Control_c, 2, 64, 127
3, 65883, Control_c, 2, 64, 112
3, 65892, Control_c, 2, 64, 100
3, 65897, Control_c, 2, 64, 92
3, 65897, Control_c, 2, 64, 88
3, 65898, Control_c, 2, 64, 84
3, 65902, Control_c, 2, 64, 80
3, 65902, Control_c, 2, 64, 76
3, 65904, Control_c, 2, 64, 72
3, 65905, Control_c, 2, 64, 68
3, 65906, Control_c, 2, 64, 64
3, 65909, Control_c, 2, 64, 60
3, 65909, Control_c, 2, 64, 44
3, 65919, Control_c, 2, 64, 28
3, 65970, Control_c, 2, 64, 44
3, 65975, Control_c, 2, 64, 60
3, 65980, Control_c, 2, 64, 64
3, 65982, Control_c, 2, 64, 68
3, 65983, Control_c, 2, 64, 72
3, 65990, Control_c, 2, 64, 76
3, 65997, Control_c, 2, 64, 80
3, 66012, Control_c, 2, 64, 84
3, 66019, Control_c, 2, 64, 88
3, 66028, Control_c, 2, 64, 92
3, 66037, Control_c, 2, 64, 100
3, 66053, Control_c, 2, 64, 112
3, 66143, Control_c, 2, 64, 100
3, 66156, Control_c, 2, 64, 92
3, 66158, Control_c, 2, 64, 88
3, 66159, Control_c, 2, 64, 84
3, 66164, Control_c, 2, 64, 80
3, 66164, Control_c, 2, 64, 76
3, 66166, Control_c, 2, 64, 72
3, 66168, Control_c, 2, 64, 68
3, 66170, Control_c, 2, 64, 64
3, 66170, Control_c, 2, 64, 60
3, 66176, Control_c, 2, 64, 44
3, 66228, Control_c, 2, 64, 60
3, 66234, Control_c, 2, 64, 64
3, 66236, Control_c, 2, 64, 68
3, 66241, Control_c, 2, 64, 72
3, 66244, Control_c, 2, 64, 76
3, 66249, Control_c, 2, 64, 80
3, 66259, Control_c, 2, 64, 84
3, 66267, Control_c, 2, 64, 88
3, 66274, Control_c, 2, 64, 92
3, 66282, Control_c, 2, 64, 100
3, 66289, Control_c, 2, 64, 112
3, 66294, Control_c, 2, 64, 127
3, 66422, Control_c, 2, 64, 112
3, 66428, Control_c, 2, 64, 100
3, 66435, Control_c, 2, 64, 92
3, 66438, Control_c, 2, 64, 84
3, 66438, Control_c, 2, 64, 80
3, 66442, Control_c, 2, 64, 76
3, 66445, Control_c, 2, 64, 72
3, 66448, Control_c, 2, 64, 68
3, 66450, Control_c, 2, 64, 64
3, 66451, Control_c, 2, 64, 60
3, 66455, Control_c, 2, 64, 44
3, 66465, Control_c, 2, 64, 28
3, 66504, Control_c, 2, 64, 44
3, 66508, Control_c, 2, 64, 60
3, 66513, Control_c, 2, 64, 64
3, 66513, Control_c, 2, 64, 68
3, 66516, Control_c, 2, 64, 72
3, 66518, Control_c, 2, 64, 76
3, 66521, Control_c, 2, 64, 80
3, 66526, Control_c, 2, 64, 84
3, 66528, Control_c, 2, 64, 88
3, 66532, Control_c, 2, 64, 92
3, 66539, Control_c, 2, 64, 100
3, 66544, Control_c, 2, 64, 112
3, 66549, Control_c, 2, 64, 127
3, 66750, Control_c, 2, 64, 112
3, 66755, Control_c, 2, 64, 100
3, 66760, Control_c, 2, 64, 92
3, 66760, Control_c, 2, 64, 84
3, 66760, Control_c, 2, 64, 80
3, 66765, Control_c, 2, 64, 72
3, 66768, Control_c, 2, 64, 68
3, 66768, Control_c, 2, 64, 64
3, 66770, Control_c, 2, 64, 60
3, 66771, Control_c, 2, 64, 44
3, 66810, Control_c, 2, 64, 60
3, 66812, Control_c, 2, 64, 64
3, 66818, Control_c, 2, 64, 68
3, 66820, Control_c, 2, 64, 72
3, 66826, Control_c, 2, 64, 76
3, 66828, Control_c, 2, 64, 80
3, 66832, Control_c, 2, 67, 8
3, 66836, Control_c, 2, 64, 84
3, 66838, Control_c, 2, 64, 88
3, 66840, Control_c, 2, 64, 92
3, 66846, Control_c, 2, 64, 100
3, 66852, Control_c, 2, 64, 112
3, 66858, Control_c, 2, 64, 127
3, 67152, Control_c, 2, 64, 112
3, 67161, Control_c, 2, 64, 100
3, 67168, Control_c, 2, 64, 92
3, 67172, Control_c, 2, 64, 88
3, 67172, Control_c, 2, 64, 84
3, 67178, Control_c, 2, 64, 80
3, 67178, Control_c, 2, 64, 76
3, 67186, Control_c, 2, 64, 72
3, 67188, Control_c, 2, 64, 68
3, 67195, Control_c, 2, 64, 64
3, 67213, Control_c, 2, 64, 60
3, 67224, Control_c, 2, 64, 44
3, 67236, Control_c, 2, 64, 28
3, 67248, Control_c, 2, 64, 12
3, 67286, Control_c, 2, 64, 0
3, 67435, Control_c, 2, 64, 12
3, 67457, Control_c, 2, 64, 28
3, 67469, Control_c, 2, 64, 44
3, 67480, Control_c, 2, 64, 60
3, 67480, Control_c, 2, 67, 16
3, 67485, Control_c, 2, 64, 64
3, 67490, Control_c, 2, 64, 68
3, 67500, Control_c, 2, 64, 72
3, 67533, Control_c, 2, 64, 76
3, 67562, Control_c, 2, 64, 80
3, 67594, Control_c, 2, 64, 84
3, 67603, Control_c, 2, 64, 88
3, 67611, Control_c, 2, 64, 92
3, 67619, Control_c, 2, 67, 24
3, 67621, Control_c, 2, 64, 100
3, 67644, Control_c, 2, 64, 112
3, 67676, Control_c, 2, 67, 32
3, 67704, Control_c, 2, 67, 40
3, 67727, Control_c, 2, 67, 48
3, 67830, Control_c, 2, 64, 100
3, 67872, Control_c, 2, 64, 92
3, 67892, Control_c, 2, 64, 88
3, 67900, Control_c, 2, 64, 84
3, 67913, Control_c, 2, 64, 80
3, 67917, Control_c, 2, 64, 76
3, 67923, Control_c, 2, 64, 72
3, 67927, Control_c, 2, 64, 68
3, 67933, Control_c, 2, 64, 64
3, 67937, Control_c, 2, 64, 60
3, 67943, Control_c, 2, 64, 44
3, 67960, Control_c, 2, 64, 28
3, 67998, Control_c, 2, 67, 56
3, 68030, Control_c, 2, 64, 44
3, 68036, Control_c, 2, 67, 64
3, 68039, Control_c, 2, 64, 60
3, 68040, Control_c, 2, 64, 64
3, 68044, Control_c, 2, 64, 68
3, 68049, Control_c, 2, 64, 72
3, 68062, Control_c, 2, 64, 76
3, 68082, Control_c, 2, 67, 72
3, 68082, Control_c, 2, 64, 80
3, 68102, Control_c, 2, 64, 84
3, 68102, Control_c, 2, 67, 80
3, 68119, Control_c, 2, 64, 88
3, 68127, Control_c, 2, 67, 88
3, 68130, Control_c, 2, 64, 92
3, 68141, Control_c, 2, 67, 96
3, 68172, Control_c, 2, 67, 104
3, 68378, Control_c, 2, 64, 88
3, 68390, Control_c, 2, 64, 84
3, 68414, Control_c, 2, 64, 80
3, 68428, Control_c, 2, 64, 76
3, 68439, Control_c, 2, 64, 72
3, 68447, Control_c, 2, 64, 68
3, 68451, Control_c, 2, 64, 64
3, 68456, Control_c, 2, 64, 60
3, 68461, Control_c, 2, 64, 44
3, 68467, Control_c, 2, 64, 28
3, 68469, Control_c, 2, 64, 12
3, 68476, Control_c, 2, 64, 0
3, 68532, Control_c, 2, 64, 12
3, 68544, Control_c, 2, 64, 28
3, 68550, Control_c, 2, 64, 44
3, 68553, Control_c, 2, 64, 60
3, 68559, Control_c, 2, 64, 64
3, 68563, Control_c, 2, 64, 68
3, 68563, Control_c, 2, 64, 72
3, 68572, Control_c, 2, 64, 76
3, 68592, Control_c, 2, 64, 80
3, 68607, Control_c, 2, 64, 84
3, 68625, Control_c, 2, 64, 88
3, 68637, Control_c, 2, 64, 92
3, 68779, Control_c, 2, 64, 100
3, 68844, Control_c, 2, 64, 112
3, 69650, Control_c, 2, 64, 100
3, 69669, Control_c, 2, 64, 92
3, 69675, Control_c, 2, 64, 88
3, 69678, Control_c, 2, 64, 84
3, 69679, Control_c, 2, 64, 80
3, 69682, Control_c, 2, 64, 76
3, 69685, Control_c, 2, 64, 72
3, 69689, Control_c, 2, 64, 68
3, 69690, Control_c, 2, 64, 64
3, 69695, Control_c, 2, 64, 60
3, 69699, Control_c, 2, 64, 44
3, 69725, Control_c, 2, 64, 28
3, 69796, Control_c, 2, 64, 44
3, 69800, Control_c, 2, 64, 60
3, 69806, Control_c, 2, 64, 64
3, 69808, Control_c, 2, 64, 68
3, 69816, Control_c, 2, 64, 72
3, 69831, Control_c, 2, 64, 76
3, 69854, Control_c, 2, 64, 80
3, 69876, Control_c, 2, 64, 84
3, 69894, Control_c, 2, 64, 88
3, 69904, Control_c, 2, 64, 92
3, 69917, Control_c, 2, 64, 100
3, 69942, Control_c, 2, 64, 112
3, 70055, Control_c, 2, 64, 100
3, 70072, Control_c, 2, 64, 92
3, 70080, Control_c, 2, 64, 88
3, 70080, Control_c, 2, 64, 84
3, 70088, Control_c, 2, 64, 80
3, 70095, Control_c, 2, 64, 76
3, 70102, Control_c, 2, 64, 72
3, 70110, Control_c, 2, 64, 68
3, 70115, Control_c, 2, 64, 64
3, 70120, Control_c, 2, 64, 60
3, 70126, Control_c, 2, 64, 44
3, 70136, Control_c, 2, 64, 28
3, 70146, Control_c, 2, 64, 12
3, 70229, Control_c, 2, 64, 28
3, 70239, Control_c, 2, 64, 44
3, 70249, Control_c, 2, 64, 60
3, 70251, Control_c, 2, 64, 64
3, 70259, Control_c, 2, 64, 68
3, 70266, Control_c, 2, 64, 72
3, 70288, Control_c, 2, 64, 76
3, 70304, Control_c, 2, 64, 80
3, 70327, Control_c, 2, 64, 84
3, 70342, Control_c, 2, 64, 88
3, 70350, Control_c, 2, 64, 92
3, 70365, Control_c, 2, 64, 100
3, 70394, Control_c, 2, 64, 112
3, 70798, Control_c, 2, 64, 100
3, 70814, Control_c, 2, 64, 92
3, 70824, Control_c, 2, 64, 88
3, 70828, Control_c, 2, 64, 84
3, 70835, Control_c, 2, 64, 80
3, 70843, Control_c, 2, 64, 76
3, 70853, Control_c, 2, 64, 72
3, 70863, Control_c, 2, 64, 68
3, 70871, Control_c, 2, 64, 64
3, 70881, Control_c, 2, 64, 60
3, 70891, Control_c, 2, 64, 44
3, 70911, Control_c, 2, 64, 28
3, 70988, Control_c, 2, 64, 44
3, 70996, Control_c, 2, 64, 60
3, 71001, Control_c, 2, 64, 64
3, 71004, Control_c, 2, 64, 68
3, 71012, Control_c, 2, 64, 72
3, 71018, Control_c, 2, 64, 76
3, 71034, Control_c, 2, 64, 80
3, 71047, Control_c, 2, 64, 84
3, 71057, Control_c, 2, 64, 88
3, 71061, Control_c, 2, 64, 92
3, 71071, Control_c, 2, 64, 100
3, 71095, Control_c, 2, 64, 112
3, 71137, Control_c, 2, 64, 100
3, 71144, Control_c, 2, 64, 92
3, 71148, Control_c, 2, 64, 88
3, 71150, Control_c, 2, 64, 84
3, 71150, Control_c, 2, 64, 80
3, 71154, Control_c, 2, 64, 76
3, 71156, Control_c, 2, 64, 72
3, 71158, Control_c, 2, 64, 68
3, 71188, Control_c, 2, 64, 72
3, 71202, Control_c, 2, 64, 76
3, 71215, Control_c, 2, 64, 80
3, 71228, Control_c, 2, 64, 84
3, 71237, Control_c, 2, 64, 88
3, 71247, Control_c, 2, 64, 92
3, 71260, Control_c, 2, 64, 100
3, 71308, Control_c, 2, 64, 112
3, 71503, Control_c, 2, 64, 100
3, 71528, Control_c, 2, 64, 92
3, 71534, Control_c, 2, 64, 88
3, 71538, Control_c, 2, 64, 84
3, 71544, Control_c, 2, 64, 80
3, 71550, Control_c, 2, 64, 76
3, 71555, Control_c, 2, 64, 72
3, 71560, Control_c, 2, 64, 68
3, 71570, Control_c, 2, 64, 64
3, 71585, Control_c, 2, 64, 60
3, 71597, Control_c, 2, 64, 44
3, 71864, Control_c, 2, 64, 60
3, 71874, Control_c, 2, 64, 64
3, 71890, Control_c, 2, 64, 68
3, 71916, Control_c, 2, 64, 72
3, 71961, Control_c, 2, 64, 76
3, 71991, Control_c, 2, 64, 80
3, 72028, Control_c, 2, 64, 84
3, 72050, Control_c, 2, 64, 88
3, 72066, Control_c, 2, 64, 92
3, 72242, Control_c, 2, 64, 88
3, 72275, Control_c, 2, 64, 84
3, 72297, Control_c, 2, 64, 80
3, 72307, Control_c, 2, 64, 76
3, 72318, Control_c, 2, 64, 72
3, 72328, Control_c, 2, 64, 68
3, 72340, Control_c, 2, 64, 64
3, 72376, Control_c, 2, 64, 60
3, 72442, Control_c, 2, 64, 64
3, 72453, Control_c, 2, 64, 68
3, 72466, Control_c, 2, 64, 72
3, 72484, Control_c, 2, 64, 76
3, 72502, Control_c, 2, 64, 80
3, 72529, Control_c, 2, 64, 84
3, 72544, Control_c, 2, 64, 88
3, 72555, Control_c, 2, 64, 92
3, 72579, Control_c, 2, 64, 100
3, 72789, Control_c, 2, 64, 92
3, 72924, Control_c, 2, 64, 88
3, 72952, Control_c, 2, 64, 84
3, 73009, Control_c, 2, 64, 80
3, 73037, Control_c, 2, 64, 76
3, 73060, Control_c, 2, 64, 72
3, 73082, Control_c, 2, 64, 68
3, 73105, Control_c, 2, 64, 64
3, 73136, Control_c, 2, 64, 60
3, 73168, Control_c, 2, 64, 44
3, 73308, Control_c, 2, 64, 60
3, 73337, Control_c, 2, 64, 64
3, 73359, Control_c, 2, 64, 68
3, 73380, Control_c, 2, 64, 72
3, 73402, Control_c, 2, 64, 76
3, 73428, Control_c, 2, 64, 80
3, 73466, Control_c, 2, 64, 84
3, 73488, Control_c, 2, 64, 88
3, 73644, Control_c, 2, 64, 84
3, 73672, Control_c, 2, 64, 80
3, 73688, Control_c, 2, 64, 76
3, 73699, Control_c, 2, 64, 72
3, 73707, Control_c, 2, 64, 68
3, 73720, Control_c, 2, 64, 64
3, 73735, Control_c, 2, 64, 60
3, 73752, Control_c, 2, 64, 44
3, 73871, Control_c, 2, 64, 60
3, 73884, Control_c, 2, 64, 64
3, 73904, Control_c, 2, 64, 68
3, 73921, Control_c, 2, 64, 72
3, 73944, Control_c, 2, 64, 76
3, 73963, Control_c, 2, 64, 80
3, 73992, Control_c, 2, 64, 84
3, 74012, Control_c, 2, 64, 88
3, 74024, Control_c, 2, 64, 92
3, 74045, Control_c, 2, 64, 100
3, 74381, Control_c, 2, 64, 92
3, 74442, Control_c, 2, 64, 88
3, 74450, Control_c, 2, 64, 84
3, 74463, Control_c, 2, 64, 80
3, 74473, Control_c, 2, 64, 76
3, 74480, Control_c, 2, 64, 72
3, 74490, Control_c, 2, 64, 68
3, 74497, Control_c, 2, 64, 64
3, 74517, Control_c, 2, 64, 60
3, 74578, Control_c, 2, 64, 64
3, 74596, Control_c, 2, 64, 68
3, 74614, Control_c, 2, 64, 72
3, 74646, Control_c, 2, 64, 76
3, 74759, Control_c, 2, 64, 72
3, 74772, Control_c, 2, 64, 68
3, 74783, Control_c, 2, 64, 64
3, 74858, Control_c, 2, 64, 68
3, 74878, Control_c, 2, 64, 72
3, 74897, Control_c, 2, 64, 76
3, 74926, Control_c, 2, 64, 80
3, 75069, Control_c, 2, 64, 76
3, 75074, Control_c, 2, 64, 72
3, 75081, Control_c, 2, 64, 68
3, 75084, Control_c, 2, 64, 64
3, 75091, Control_c, 2, 64, 60
3, 75100, Control_c, 2, 64, 44
3, 75117, Control_c, 2, 64, 28
3, 75160, Control_c, 2, 64, 44
3, 75170, Control_c, 2, 64, 60
3, 75174, Control_c, 2, 64, 64
3, 75180, Control_c, 2, 64, 68
3, 75188, Control_c, 2, 64, 72
3, 75203, Control_c, 2, 64, 76
3, 75223, Control_c, 2, 64, 80
3, 75253, Control_c, 2, 64, 84
3, 75336, Control_c, 2, 64, 80
3, 75343, Control_c, 2, 64, 76
3, 75349, Control_c, 2, 64, 72
3, 75353, Control_c, 2, 64, 68
3, 75360, Control_c, 2, 64, 64
3, 75368, Control_c, 2, 64, 60
3, 75376, Control_c, 2, 64, 44
3, 75441, Control_c, 2, 64, 60
3, 75446, Control_c, 2, 64, 64
3, 75451, Control_c, 2, 64, 68
3, 75459, Control_c, 2, 64, 72
3, 75474, Control_c, 2, 64, 76
3, 75490, Control_c, 2, 64, 80
3, 75510, Control_c, 2, 64, 84
3, 75528, Control_c, 2, 64, 88
3, 75537, Control_c, 2, 64, 92
3, 75563, Control_c, 2, 64, 100
3, 75660, Control_c, 2, 64, 92
3, 75670, Control_c, 2, 64, 88
3, 75673, Control_c, 2, 64, 84
3, 75679, Control_c, 2, 64, 80
3, 75683, Control_c, 2, 64, 76
3, 75686, Control_c, 2, 64, 72
3, 75690, Control_c, 2, 64, 68
3, 75700, Control_c, 2, 64, 64
3, 75714, Control_c, 2, 64, 60
3, 75724, Control_c, 2, 64, 44
3, 75734, Control_c, 2, 64, 28
3, 75743, Control_c, 2, 64, 12
3, 75812, Control_c, 2, 64, 0
3, 75895, Control_c, 2, 64, 12
3, 75897, Control_c, 2, 67, 96
3, 75910, Control_c, 2, 64, 28
3, 75920, Control_c, 2, 64, 44
3, 75927, Control_c, 2, 64, 60
3, 75930, Control_c, 2, 67, 88
3, 75930, Control_c, 2, 64, 64
3, 75936, Control_c, 2, 64, 68
3, 75940, Control_c, 2, 64, 72
3, 75945, Control_c, 2, 67, 80
3, 75955, Control_c, 2, 67, 72
3, 75963, Control_c, 2, 67, 64
3, 75967, Control_c, 2, 64, 76
3, 75972, Control_c, 2, 67, 56
3, 75978, Control_c, 2, 67, 48
3, 75990, Control_c, 2, 67, 40
3, 75996, Control_c, 2, 64, 80
3, 76030, Control_c, 2, 64, 84
3, 76061, Control_c, 2, 64, 88
3, 76076, Control_c, 2, 67, 48
3, 76083, Control_c, 2, 64, 92
3, 76357, Control_c, 2, 64, 88
3, 76360, Control_c, 2, 64, 84
3, 76368, Control_c, 2, 64, 80
3, 76370, Control_c, 2, 64, 76
3, 76376, Control_c, 2, 64, 72
3, 76376, Control_c, 2, 64, 68
3, 76380, Control_c, 2, 64, 64
3, 76382, Control_c, 2, 64, 60
3, 76389, Control_c, 2, 64, 44
3, 76395, Control_c, 2, 64, 28
3, 76454, Control_c, 2, 64, 44
3, 76461, Control_c, 2, 64, 60
3, 76466, Control_c, 2, 64, 64
3, 76468, Control_c, 2, 64, 68
3, 76472, Control_c, 2, 64, 72
3, 76479, Control_c, 2, 64, 76
3, 76492, Control_c, 2, 64, 80
3, 76501, Control_c, 2, 64, 84
3, 76509, Control_c, 2, 64, 88
3, 76514, Control_c, 2, 64, 92
3, 76522, Control_c, 2, 64, 100
3, 76529, Control_c, 2, 64, 112
3, 76536, Control_c, 2, 64, 127
3, 76665, Control_c, 2, 64, 112
3, 76670, Control_c, 2, 64, 100
3, 76675, Control_c, 2, 64, 92
3, 76676, Control_c, 2, 64, 88
3, 76680, Control_c, 2, 64, 84
3, 76681, Control_c, 2, 64, 80
3, 76681, Control_c, 2, 64, 76
3, 76685, Control_c, 2, 64, 72
3, 76685, Control_c, 2, 64, 68
3, 76688, Control_c, 2, 64, 64
3, 76693, Control_c, 2, 64, 60
3, 76722, Control_c, 2, 64, 64
3, 76735, Control_c, 2, 64, 68
3, 76742, Control_c, 2, 64, 72
3, 76751, Control_c, 2, 64, 76
3, 76761, Control_c, 2, 64, 80
3, 76770, Control_c, 2, 64, 84
3, 76778, Control_c, 2, 64, 88
3, 76788, Control_c, 2, 64, 92
3, 76796, Control_c, 2, 64, 100
3, 76811, Control_c, 2, 64, 112
3, 76819, Control_c, 2, 64, 127
3, 76929, Control_c, 2, 64, 112
3, 76934, Control_c, 2, 64, 100
3, 76939, Control_c, 2, 64, 92
3, 76939, Control_c, 2, 64, 88
3, 76942, Control_c, 2, 64, 84
3, 76944, Control_c, 2, 64, 80
3, 76945, Control_c, 2, 64, 76
3, 76949, Control_c, 2, 64, 72
3, 76949, Control_c, 2, 64, 68
3, 76952, Control_c, 2, 64, 64
3, 76952, Control_c, 2, 64, 60
3, 76955, Control_c, 2, 64, 44
3, 76999, Control_c, 2, 64, 60
3, 77005, Control_c, 2, 64, 64
3, 77013, Control_c, 2, 64, 68
3, 77018, Control_c, 2, 64, 72
3, 77025, Control_c, 2, 64, 76
3, 77035, Control_c, 2, 64, 80
3, 77048, Control_c, 2, 64, 84
3, 77058, Control_c, 2, 64, 88
3, 77065, Control_c, 2, 64, 92
3, 77072, Control_c, 2, 64, 100
3, 77082, Control_c, 2, 64, 112
3, 77093, Control_c, 2, 64, 127
3, 77196, Control_c, 2, 64, 112
3, 77201, Control_c, 2, 64, 100
3, 77207, Control_c, 2, 64, 92
3, 77208, Control_c, 2, 64, 88
3, 77208, Control_c, 2, 64, 84
3, 77211, Control_c, 2, 64, 76
3, 77211, Control_c, 2, 64, 72
3, 77216, Control_c, 2, 64, 68
3, 77216, Control_c, 2, 64, 64
3, 77221, Control_c, 2, 64, 60
3, 77226, Control_c, 2, 67, 40
3, 77256, Control_c, 2, 64, 64
3, 77264, Control_c, 2, 64, 68
3, 77274, Control_c, 2, 64, 72
3, 77284, Control_c, 2, 64, 76
3, 77292, Control_c, 2, 64, 80
3, 77302, Control_c, 2, 64, 84
3, 77312, Control_c, 2, 64, 88
3, 77316, Control_c, 2, 64, 92
3, 77329, Control_c, 2, 64, 100
3, 77342, Control_c, 2, 64, 112
3, 77352, Control_c, 2, 64, 127
3, 77463, Control_c, 2, 64, 112
3, 77468, Control_c, 2, 64, 100
3, 77472, Control_c, 2, 64, 92
3, 77473, Control_c, 2, 64, 88
3, 77475, Control_c, 2, 64, 84
3, 77475, Control_c, 2, 67, 32
3, 77478, Control_c, 2, 64, 80
3, 77478, Control_c, 2, 64, 76
3, 77481, Control_c, 2, 64, 68
3, 77481, Control_c, 2, 64, 64
3, 77483, Control_c, 2, 64, 60
3, 77485, Control_c, 2, 64, 44
3, 77494, Control_c, 2, 64, 28
3, 77521, Control_c, 2, 64, 44
3, 77523, Control_c, 2, 67, 24
3, 77529, Control_c, 2, 64, 60
3, 77533, Control_c, 2, 64, 64
3, 77535, Control_c, 2, 64, 68
3, 77541, Control_c, 2, 64, 72
3, 77549, Control_c, 2, 64, 76
3, 77559, Control_c, 2, 64, 80
3, 77588, Control_c, 2, 67, 16
3, 77614, Control_c, 2, 64, 76
3, 77622, Control_c, 2, 64, 72
3, 77624, Control_c, 2, 64, 68
3, 77628, Control_c, 2, 64, 64
3, 77634, Control_c, 2, 64, 60
3, 77636, Control_c, 2, 64, 44
3, 77646, Control_c, 2, 64, 28
3, 77652, Control_c, 2, 67, 8
3, 77657, Control_c, 2, 64, 12
3, 77758, Control_c, 2, 67, 0
3, 78031, Control_c, 2, 67, 8
3, 78075, Control_c, 2, 67, 16
3, 78108, Control_c, 2, 67, 24
3, 78134, Control_c, 2, 67, 32
3, 78156, Control_c, 2, 67, 40
3, 78176, Control_c, 2, 67, 48
3, 78195, Control_c, 2, 67, 56
3, 78217, Control_c, 2, 67, 64
3, 78240, Control_c, 2, 67, 72
3, 78251, Control_c, 2, 67, 80
3, 78265, Control_c, 2, 67, 88
3, 78280, Control_c, 2, 67, 96
3, 78294, Control_c, 2, 67, 104
3, 78354, Control_c, 2, 67, 112
3, 78361, Control_c, 2, 64, 28
3, 78377, Control_c, 2, 64, 44
3, 78384, Control_c, 2, 64, 60
3, 78389, Control_c, 2, 64, 64
3, 78395, Control_c, 2, 64, 68
3, 78407, Control_c, 2, 64, 72
3, 78427, Control_c, 2, 64, 76
3, 78440, Control_c, 2, 64, 80
3, 78454, Control_c, 2, 64, 84
3, 78463, Control_c, 2, 64, 88
3, 78470, Control_c, 2, 64, 92
3, 78480, Control_c, 2, 64, 100
3, 78492, Control_c, 2, 64, 112
3, 78500, Control_c, 2, 64, 127
3, 78887, Control_c, 2, 64, 112
3, 78953, Control_c, 2, 64, 100
3, 78978, Control_c, 2, 64, 92
3, 78986, Control_c, 2, 64, 88
3, 78986, Control_c, 2, 64, 84
3, 78990, Control_c, 2, 64, 80
3, 78996, Control_c, 2, 64, 76
3, 79000, Control_c, 2, 64, 72
3, 79006, Control_c, 2, 64, 68
3, 79014, Control_c, 2, 64, 64
3, 79093, Control_c, 2, 64, 68
3, 79109, Control_c, 2, 64, 72
3, 79125, Control_c, 2, 64, 76
3, 79144, Control_c, 2, 64, 80
3, 79164, Control_c, 2, 64, 84
3, 79176, Control_c, 2, 64, 88
3, 79190, Control_c, 2, 64, 92
3, 79205, Control_c, 2, 64, 100
3, 79247, Control_c, 2, 64, 112
3, 79360, Control_c, 2, 64, 100
3, 79370, Control_c, 2, 64, 92
3, 79374, Control_c, 2, 64, 88
3, 79376, Control_c, 2, 64, 84
3, 79381, Control_c, 2, 64, 80
3, 79384, Control_c, 2, 64, 76
3, 79389, Control_c, 2, 64, 72
3, 79392, Control_c, 2, 64, 68
3, 79402, Control_c, 2, 64, 64
3, 79452, Control_c, 2, 64, 68
3, 79467, Control_c, 2, 64, 72
3, 79481, Control_c, 2, 64, 76
3, 79494, Control_c, 2, 64, 80
3, 79516, Control_c, 2, 64, 84
3, 79535, Control_c, 2, 64, 88
3, 79544, Control_c, 2, 64, 92
3, 79567, Control_c, 2, 64, 100
3, 79741, Control_c, 2, 64, 92
3, 79759, Control_c, 2, 64, 88
3, 79761, Control_c, 2, 64, 84
3, 79771, Control_c, 2, 64, 80
3, 79779, Control_c, 2, 64, 76
3, 79787, Control_c, 2, 64, 72
3, 79797, Control_c, 2, 64, 68
3, 79807, Control_c, 2, 64, 64
3, 79822, Control_c, 2, 64, 60
3, 79832, Control_c, 2, 64, 44
3, 79849, Control_c, 2, 64, 28
3, 79948, Control_c, 2, 64, 44
3, 79957, Control_c, 2, 64, 60
3, 79965, Control_c, 2, 64, 64
3, 79970, Control_c, 2, 64, 68
3, 79977, Control_c, 2, 64, 72
3, 79993, Control_c, 2, 64, 76
3, 80008, Control_c, 2, 64, 80
3, 80028, Control_c, 2, 64, 84
3, 80041, Control_c, 2, 64, 88
3, 80052, Control_c, 2, 64, 92
3, 80065, Control_c, 2, 64, 100
3, 80568, Control_c, 2, 64, 92
3, 80649, Control_c, 2, 64, 88
3, 80667, Control_c, 2, 64, 84
3, 80695, Control_c, 2, 64, 80
3, 80712, Control_c, 2, 64, 76
3, 80722, Control_c, 2, 64, 72
3, 80736, Control_c, 2, 64, 68
3, 80748, Control_c, 2, 64, 64
3, 80771, Control_c, 2, 64, 60
3, 80778, Control_c, 2, 64, 72
3, 80851, Control_c, 2, 64, 76
3, 80874, Control_c, 2, 64, 80
3, 81194, Control_c, 2, 64, 76
3, 81206, Control_c, 2, 64, 72
3, 81218, Control_c, 2, 64, 68
3, 81234, Control_c, 2, 64, 64
3, 81287, Control_c, 2, 64, 68
3, 81302, Control_c, 2, 64, 72
3, 81320, Control_c, 2, 64, 76
3, 81341, Control_c, 2, 64, 80
3, 81370, Control_c, 2, 64, 84
3, 81389, Control_c, 2, 64, 88
3, 81402, Control_c, 2, 64, 92
3, 81433, Control_c, 2, 64, 100
3, 81540, Control_c, 2, 64, 92
3, 81556, Control_c, 2, 64, 88
3, 81558, Control_c, 2, 64, 84
3, 81564, Control_c, 2, 64, 80
3, 81572, Control_c, 2, 64, 76
3, 81576, Control_c, 2, 64, 72
3, 81649, Control_c, 2, 64, 76
3, 81677, Control_c, 2, 64, 80
3, 81709, Control_c, 2, 64, 84
3, 81732, Control_c, 2, 64, 88
3, 81747, Control_c, 2, 64, 92
3, 81780, Control_c, 2, 64, 100
3, 81924, Control_c, 2, 64, 92
3, 81986, Control_c, 2, 64, 88
3, 81999, Control_c, 2, 64, 92
3, 82344, Control_c, 2, 64, 88
3, 82356, Control_c, 2, 64, 84
3, 82372, Control_c, 2, 64, 80
3, 82381, Control_c, 2, 64, 76
3, 82397, Control_c, 2, 64, 72
3, 82416, Control_c, 2, 64, 68
3, 82537, Control_c, 2, 64, 72
3, 82567, Control_c, 2, 64, 76
3, 82598, Control_c, 2, 64, 80
3, 82650, Control_c, 2, 64, 84
3, 82729, Control_c, 2, 64, 88
3, 82757, Control_c, 2, 64, 92
3, 83169, Control_c, 2, 64, 100
3, 83356, Control_c, 2, 64, 92
3, 83360, Control_c, 2, 64, 88
3, 83367, Control_c, 2, 64, 84
3, 83373, Control_c, 2, 64, 80
3, 83376, Control_c, 2, 64, 76
3, 83381, Control_c, 2, 64, 72
3, 83441, Control_c, 2, 64, 76
3, 83456, Control_c, 2, 64, 80
3, 83479, Control_c, 2, 64, 84
3, 83496, Control_c, 2, 64, 88
3, 83508, Control_c, 2, 64, 92
3, 83530, Control_c, 2, 64, 100
3, 83663, Control_c, 2, 64, 92
3, 83667, Control_c, 2, 64, 88
3, 83673, Control_c, 2, 64, 84
3, 83676, Control_c, 2, 64, 80
3, 83678, Control_c, 2, 64, 76
3, 83682, Control_c, 2, 64, 72
3, 83734, Control_c, 2, 64, 76
3, 83746, Control_c, 2, 64, 80
3, 83763, Control_c, 2, 64, 84
3, 83778, Control_c, 2, 64, 88
3, 83789, Control_c, 2, 64, 92
3, 83806, Control_c, 2, 64, 100
3, 83842, Control_c, 2, 64, 112
3, 83990, Control_c, 2, 64, 100
3, 84000, Control_c, 2, 64, 92
3, 84002, Control_c, 2, 64, 88
3, 84005, Control_c, 2, 64, 84
3, 84009, Control_c, 2, 64, 80
3, 84012, Control_c, 2, 64, 76
3, 84060, Control_c, 2, 64, 80
3, 84081, Control_c, 2, 64, 84
3, 84093, Control_c, 2, 64, 88
3, 84105, Control_c, 2, 64, 92
3, 84135, Control_c, 2, 64, 100
3, 84302, Control_c, 2, 64, 92
3, 84315, Control_c, 2, 64, 88
3, 84320, Control_c, 2, 64, 84
3, 84325, Control_c, 2, 64, 80
3, 84332, Control_c, 2, 64, 76
3, 84337, Control_c, 2, 64, 72
3, 84342, Control_c, 2, 64, 68
3, 84352, Control_c, 2, 64, 64
3, 84373, Control_c, 2, 64, 60
3, 84382, Control_c, 2, 64, 44
3, 84481, Control_c, 2, 64, 60
3, 84489, Control_c, 2, 64, 64
3, 84493, Control_c, 2, 64, 68
3, 84503, Control_c, 2, 64, 72
3, 84519, Control_c, 2, 64, 76
3, 84534, Control_c, 2, 64, 80
3, 84616, Control_c, 2, 64, 76
3, 84634, Control_c, 2, 64, 72
3, 84677, Control_c, 2, 64, 76
3, 84705, Control_c, 2, 64, 80
3, 84758, Control_c, 2, 64, 84
3, 84780, Control_c, 2, 64, 88
3, 84805, Control_c, 2, 64, 92
3, 85007, Control_c, 2, 64, 100
3, 85220, Control_c, 2, 64, 92
3, 85230, Control_c, 2, 64, 88
3, 85234, Control_c, 2, 64, 84
3, 85241, Control_c, 2, 64, 80
3, 85248, Control_c, 2, 64, 76
3, 85309, Control_c, 2, 64, 80
3, 85325, Control_c, 2, 64, 84
3, 85339, Control_c, 2, 64, 88
3, 85349, Control_c, 2, 64, 92
3, 85370, Control_c, 2, 64, 100
3, 85427, Control_c, 2, 64, 112
3, 85497, Control_c, 2, 64, 100
3, 85513, Control_c, 2, 64, 92
3, 85517, Control_c, 2, 64, 88
3, 85520, Control_c, 2, 64, 84
3, 85524, Control_c, 2, 64, 80
3, 85528, Control_c, 2, 64, 76
3, 85533, Control_c, 2, 64, 72
3, 85600, Control_c, 2, 64, 76
3, 85620, Control_c, 2, 64, 80
3, 85640, Control_c, 2, 64, 84
3, 85656, Control_c, 2, 64, 88
3, 85668, Control_c, 2, 64, 92
3, 85689, Control_c, 2, 64, 100
3, 85939, Control_c, 2, 64, 112
3, 86160, Control_c, 2, 64, 100
3, 86183, Control_c, 2, 64, 92
3, 86190, Control_c, 2, 64, 88
3, 86193, Control_c, 2, 64, 84
3, 86199, Control_c, 2, 64, 80
3, 86203, Control_c, 2, 64, 76
3, 86205, Control_c, 2, 64, 72
3, 86213, Control_c, 2, 64, 68
3, 86240, Control_c, 2, 64, 64
3, 86296, Control_c, 2, 64, 68
3, 86316, Control_c, 2, 64, 72
3, 86339, Control_c, 2, 64, 76
3, 86353, Control_c, 2, 64, 80
3, 86376, Control_c, 2, 64, 84
3, 86397, Control_c, 2, 64, 88
3, 86409, Control_c, 2, 64, 92
3, 86482, Control_c, 2, 64, 88
3, 86485, Control_c, 2, 64, 84
3, 86489, Control_c, 2, 64, 80
3, 86496, Control_c, 2, 64, 76
3, 86502, Control_c, 2, 64, 72
3, 86556, Control_c, 2, 64, 76
3, 86569, Control_c, 2, 64, 80
3, 86596, Control_c, 2, 64, 84
3, 86623, Control_c, 2, 64, 88
3, 86643, Control_c, 2, 64, 92
3, 86701, Control_c, 2, 64, 100
3, 86892, Control_c, 2, 64, 112
3, 88091, Control_c, 2, 64, 100
3, 88114, Control_c, 2, 64, 92
3, 88120, Control_c, 2, 64, 88
3, 88120, Control_c, 2, 64, 84
3, 88123, Control_c, 2, 64, 80
3, 88128, Control_c, 2, 64, 76
3, 88131, Control_c, 2, 64, 72
3, 88135, Control_c, 2, 64, 68
3, 88153, Control_c, 2, 64, 64
3, 88224, Control_c, 2, 64, 68
3, 88267, Control_c, 2, 64, 64
3, 88294, Control_c, 2, 64, 60
3, 88332, Control_c, 2, 64, 64
3, 88339, Control_c, 2, 64, 68
3, 88347, Control_c, 2, 64, 72
3, 88357, Control_c, 2, 64, 76
3, 88374, Control_c, 2, 64, 80
3, 88393, Control_c, 2, 64, 84
3, 88408, Control_c, 2, 64, 88
3, 88415, Control_c, 2, 64, 92
3, 88498, Control_c, 2, 64, 88
3, 88501, Control_c, 2, 64, 84
3, 88507, Control_c, 2, 64, 80
3, 88511, Control_c, 2, 64, 76
3, 88516, Control_c, 2, 64, 72
3, 88527, Control_c, 2, 64, 68
3, 88536, Control_c, 2, 64, 64
3, 88559, Control_c, 2, 64, 60
3, 88617, Control_c, 2, 64, 64
3, 88624, Control_c, 2, 64, 68
3, 88631, Control_c, 2, 64, 72
3, 88661, Control_c, 2, 64, 76
3, 88685, Control_c, 2, 64, 80
3, 88708, Control_c, 2, 64, 84
3, 88724, Control_c, 2, 64, 88
3, 88737, Control_c, 2, 64, 92
3, 88840, Control_c, 2, 64, 100
3, 88884, Control_c, 2, 64, 92
3, 88971, Control_c, 2, 64, 88
3, 88991, Control_c, 2, 64, 84
3, 89038, Control_c, 2, 64, 80
3, 89288, Control_c, 2, 64, 76
3, 89394, Control_c, 2, 64, 72
3, 89437, Control_c, 2, 64, 68
3, 89477, Control_c, 2, 64, 64
3, 89599, Control_c, 2, 64, 60
3, 89749, Control_c, 2, 64, 64
3, 89772, Control_c, 2, 64, 68
3, 89797, Control_c, 2, 64, 72
3, 89832, Control_c, 2, 64, 76
3, 89877, Control_c, 2, 64, 80
3, 89989, Control_c, 2, 64, 76
3, 90003, Control_c, 2, 64, 72
3, 90063, Control_c, 2, 64, 76
3, 90087, Control_c, 2, 64, 80
3, 90105, Control_c, 2, 64, 84
3, 90119, Control_c, 2, 64, 88
3, 90129, Control_c, 2, 64, 92
3, 90144, Control_c, 2, 64, 100
3, 90300, Control_c, 2, 67, 96
3, 90333, Control_c, 2, 64, 92
3, 90343, Control_c, 2, 64, 88
3, 90344, Control_c, 2, 64, 84
3, 90352, Control_c, 2, 64, 80
3, 90356, Control_c, 2, 64, 76
3, 90360, Control_c, 2, 64, 72
3, 90366, Control_c, 2, 64, 68
3, 90371, Control_c, 2, 64, 64
3, 90391, Control_c, 2, 64, 60
3, 90403, Control_c, 2, 67, 88
3, 90452, Control_c, 2, 64, 64
3, 90464, Control_c, 2, 64, 68
3, 90480, Control_c, 2, 64, 72
3, 90494, Control_c, 2, 64, 76
3, 90519, Control_c, 2, 64, 80
3, 90542, Control_c, 2, 67, 96
3, 90671, Control_c, 2, 64, 76
3, 90688, Control_c, 2, 64, 72
3, 90700, Control_c, 2, 64, 68
3, 90708, Control_c, 2, 64, 64
3, 90726, Control_c, 2, 64, 60
3, 90744, Control_c, 2, 64, 44
3, 90809, Control_c, 2, 64, 60
3, 90814, Control_c, 2, 64, 64
3, 90819, Control_c, 2, 64, 68
3, 90826, Control_c, 2, 64, 72
3, 90839, Control_c, 2, 64, 76
3, 90849, Control_c, 2, 64, 80
3, 90860, Control_c, 2, 64, 84
3, 90867, Control_c, 2, 64, 88
3, 90872, Control_c, 2, 64, 92
3, 90882, Control_c, 2, 64, 100
3, 90900, Control_c, 2, 64, 112
3, 91330, Control_c, 2, 64, 100
3, 91345, Control_c, 2, 64, 92
3, 91350, Control_c, 2, 64, 88
3, 91352, Control_c, 2, 64, 84
3, 91352, Control_c, 2, 64, 80
3, 91358, Control_c, 2, 64, 76
3, 91361, Control_c, 2, 64, 72
3, 91362, Control_c, 2, 64, 68
3, 91368, Control_c, 2, 64, 64
3, 91376, Control_c, 2, 64, 60
3, 91413, Control_c, 2, 67, 88
3, 91425, Control_c, 2, 64, 64
3, 91433, Control_c, 2, 64, 68
3, 91441, Control_c, 2, 64, 72
3, 91445, Control_c, 2, 67, 80
3, 91453, Control_c, 2, 64, 76
3, 91459, Control_c, 2, 67, 72
3, 91464, Control_c, 2, 64, 80
3, 91465, Control_c, 2, 67, 64
3, 91476, Control_c, 2, 67, 56
3, 91479, Control_c, 2, 64, 84
3, 91481, Control_c, 2, 67, 48
3, 91488, Control_c, 2, 64, 88
3, 91494, Control_c, 2, 64, 92
3, 91504, Control_c, 2, 64, 100
3, 91517, Control_c, 2, 64, 112
3, 91528, Control_c, 2, 64, 127
3, 91665, Control_c, 2, 67, 40
3, 91665, Control_c, 2, 64, 112
3, 91675, Control_c, 2, 64, 100
3, 91680, Control_c, 2, 64, 92
3, 91683, Control_c, 2, 64, 88
3, 91684, Control_c, 2, 64, 84
3, 91686, Control_c, 2, 64, 80
3, 91688, Control_c, 2, 64, 76
3, 91690, Control_c, 2, 64, 72
3, 91690, Control_c, 2, 64, 68
3, 91695, Control_c, 2, 64, 64
3, 91758, Control_c, 2, 64, 68
3, 91766, Control_c, 2, 64, 72
3, 91771, Control_c, 2, 67, 32
3, 91778, Control_c, 2, 64, 76
3, 91791, Control_c, 2, 64, 80
3, 91804, Control_c, 2, 64, 84
3, 91813, Control_c, 2, 64, 88
3, 91819, Control_c, 2, 64, 92
3, 91828, Control_c, 2, 64, 100
3, 91831, Control_c, 2, 67, 24
3, 91836, Control_c, 2, 64, 112
3, 91844, Control_c, 2, 64, 127
3, 91883, Control_c, 2, 67, 16
3, 91944, Control_c, 2, 67, 8
3, 91989, Control_c, 2, 64, 112
3, 91994, Control_c, 2, 64, 100
3, 92000, Control_c, 2, 64, 92
3, 92003, Control_c, 2, 64, 84
3, 92005, Control_c, 2, 64, 80
3, 92007, Control_c, 2, 64, 76
3, 92007, Control_c, 2, 64, 72
3, 92009, Control_c, 2, 64, 68
3, 92012, Control_c, 2, 64, 64
3, 92024, Control_c, 2, 67, 0
3, 92068, Control_c, 2, 64, 68
3, 92076, Control_c, 2, 64, 72
3, 92082, Control_c, 2, 64, 76
3, 92091, Control_c, 2, 64, 80
3, 92100, Control_c, 2, 64, 84
3, 92108, Control_c, 2, 64, 88
3, 92113, Control_c, 2, 64, 92
3, 92121, Control_c, 2, 64, 100
3, 92131, Control_c, 2, 64, 112
3, 92137, Control_c, 2, 64, 127
3, 92420, Control_c, 2, 64, 112
3, 92430, Control_c, 2, 64, 100
3, 92438, Control_c, 2, 64, 92
3, 92438, Control_c, 2, 64, 88
3, 92438, Control_c, 2, 64, 84
3, 92444, Control_c, 2, 64, 80
3, 92446, Control_c, 2, 64, 76
3, 92447, Control_c, 2, 64, 72
3, 92453, Control_c, 2, 64, 68
3, 92454, Control_c, 2, 64, 64
3, 92460, Control_c, 2, 64, 60
3, 92475, Control_c, 2, 64, 44
3, 92528, Control_c, 2, 64, 60
3, 92538, Control_c, 2, 64, 64
3, 92546, Control_c, 2, 64, 68
3, 92556, Control_c, 2, 64, 72
3, 92573, Control_c, 2, 64, 76
3, 92586, Control_c, 2, 64, 80
3, 92609, Control_c, 2, 64, 84
3, 92627, Control_c, 2, 64, 88
3, 92637, Control_c, 2, 64, 92
3, 92740, Control_c, 2, 64, 88
3, 92745, Control_c, 2, 64, 84
3, 92753, Control_c, 2, 64, 80
3, 92760, Control_c, 2, 64, 76
3, 92764, Control_c, 2, 64, 72
3, 92775, Control_c, 2, 64, 68
3, 92790, Control_c, 2, 64, 64
3, 92807, Control_c, 2, 64, 60
3, 92820, Control_c, 2, 64, 44
3, 92843, Control_c, 2, 64, 28
3, 92879, Control_c, 2, 64, 12
3, 93452, Control_c, 2, 67, 8
3, 93583, Control_c, 2, 64, 28
3, 93598, Control_c, 2, 64, 44
3, 93608, Control_c, 2, 64, 60
3, 93618, Control_c, 2, 64, 64
3, 93625, Control_c, 2, 67, 16
3, 93633, Control_c, 2, 64, 68
3, 93656, Control_c, 2, 64, 72
3, 93689, Control_c, 2, 64, 76
3, 93736, Control_c, 2, 64, 80
3, 93849, Control_c, 2, 64, 76
3, 93975, Control_c, 2, 64, 72
3, 94140, Control_c, 2, 64, 68
3, 94208, Control_c, 2, 64, 64
3, 94288, Control_c, 2, 64, 60
3, 94375, Control_c, 2, 64, 64
3, 94418, Control_c, 2, 67, 24
3, 94424, Control_c, 2, 64, 68
3, 94472, Control_c, 2, 67, 32
3, 94479, Control_c, 2, 64, 72
3, 94527, Control_c, 2, 67, 40
3, 94583, Control_c, 2, 64, 76
3, 94587, Control_c, 2, 67, 48
3, 94656, Control_c, 2, 67, 56
3, 94713, Control_c, 2, 67, 64
3, 94758, Control_c, 2, 64, 80
3, 94758, Control_c, 2, 67, 72
3, 94786, Control_c, 2, 67, 80
3, 94824, Control_c, 2, 67, 88
3, 94844, Control_c, 2, 64, 84
3, 94908, Control_c, 2, 67, 96
3, 94912, Control_c, 2, 64, 88
3, 94960, Control_c, 2, 64, 92
3, 95081, Control_c, 2, 64, 88
3, 95085, Control_c, 2, 64, 84
3, 95094, Control_c, 2, 64, 80
3, 95101, Control_c, 2, 64, 76
3, 95105, Control_c, 2, 64, 72
3, 95112, Control_c, 2, 64, 68
3, 95119, Control_c, 2, 64, 64
3, 95172, Control_c, 2, 64, 68
3, 95184, Control_c, 2, 64, 72
3, 95196, Control_c, 2, 64, 76
3, 95220, Control_c, 2, 64, 80
3, 95240, Control_c, 2, 64, 84
3, 95254, Control_c, 2, 64, 88
3, 95264, Control_c, 2, 64, 92
3, 95279, Control_c, 2, 64, 100
3, 95402, Control_c, 2, 64, 92
3, 95406, Control_c, 2, 64, 88
3, 95408, Control_c, 2, 64, 84
3, 95409, Control_c, 2, 64, 80
3, 95412, Control_c, 2, 64, 76
3, 95413, Control_c, 2, 64, 72
3, 95415, Control_c, 2, 64, 68
3, 95421, Control_c, 2, 64, 64
3, 95481, Control_c, 2, 64, 68
3, 95491, Control_c, 2, 64, 72
3, 95509, Control_c, 2, 64, 76
3, 95526, Control_c, 2, 64, 80
3, 95544, Control_c, 2, 64, 84
3, 95557, Control_c, 2, 64, 88
3, 95567, Control_c, 2, 64, 92
3, 95577, Control_c, 2, 64, 100
3, 95602, Control_c, 2, 64, 112
3, 95732, Control_c, 2, 64, 100
3, 95758, Control_c, 2, 64, 92
3, 95765, Control_c, 2, 64, 88
3, 95767, Control_c, 2, 64, 84
3, 95776, Control_c, 2, 64, 80
3, 95777, Control_c, 2, 64, 76
3, 95783, Control_c, 2, 64, 72
3, 95785, Control_c, 2, 64, 68
3, 95791, Control_c, 2, 64, 64
3, 95797, Control_c, 2, 64, 60
3, 95806, Control_c, 2, 64, 44
3, 95818, Control_c, 2, 64, 28
3, 95830, Control_c, 2, 64, 12
3, 95919, Control_c, 2, 64, 28
3, 95927, Control_c, 2, 64, 44
3, 95937, Control_c, 2, 64, 60
3, 95941, Control_c, 2, 64, 64
3, 95947, Control_c, 2, 64, 68
3, 95951, Control_c, 2, 64, 72
3, 95972, Control_c, 2, 64, 76
3, 95991, Control_c, 2, 64, 80
3, 96014, Control_c, 2, 64, 84
3, 96027, Control_c, 2, 64, 88
3, 96034, Control_c, 2, 64, 92
3, 96048, Control_c, 2, 64, 100
3, 96073, Control_c, 2, 64, 112
3, 96080, Control_c, 2, 67, 104
3, 96336, Control_c, 2, 64, 100
3, 96440, Control_c, 2, 64, 92
3, 96450, Control_c, 2, 64, 88
3, 96453, Control_c, 2, 64, 84
3, 96459, Control_c, 2, 64, 80
3, 96463, Control_c, 2, 64, 76
3, 96468, Control_c, 2, 64, 72
3, 96473, Control_c, 2, 64, 68
3, 96485, Control_c, 2, 64, 64
3, 96553, Control_c, 2, 64, 68
3, 96576, Control_c, 2, 64, 72
3, 96604, Control_c, 2, 64, 76
3, 96636, Control_c, 2, 64, 80
3, 96697, Control_c, 2, 64, 84
3, 96791, Control_c, 2, 64, 80
3, 96804, Control_c, 2, 64, 76
3, 96908, Control_c, 2, 64, 80
3, 96946, Control_c, 2, 64, 84
3, 96989, Control_c, 2, 64, 88
3, 97152, Control_c, 2, 64, 84
3, 97185, Control_c, 2, 64, 80
3, 97198, Control_c, 2, 64, 76
3, 97207, Control_c, 2, 64, 72
3, 97215, Control_c, 2, 64, 68
3, 97223, Control_c, 2, 64, 64
3, 97236, Control_c, 2, 64, 60
3, 97243, Control_c, 2, 64, 44
3, 97258, Control_c, 2, 64, 28
3, 97336, Control_c, 2, 64, 12
3, 97356, Control_c, 2, 64, 28
3, 97374, Control_c, 2, 64, 44
3, 97384, Control_c, 2, 64, 60
3, 97389, Control_c, 2, 64, 64
3, 97394, Control_c, 2, 64, 68
3, 97402, Control_c, 2, 64, 72
3, 97416, Control_c, 2, 64, 76
3, 97434, Control_c, 2, 64, 80
3, 97452, Control_c, 2, 64, 84
3, 97465, Control_c, 2, 64, 88
3, 97470, Control_c, 2, 64, 92
3, 97484, Control_c, 2, 64, 100
3, 97570, Control_c, 2, 64, 112
3, 97792, Control_c, 2, 64, 100
3, 98003, Control_c, 2, 64, 92
3, 98045, Control_c, 2, 64, 88
3, 98058, Control_c, 2, 64, 84
3, 98069, Control_c, 2, 64, 80
3, 98076, Control_c, 2, 64, 76
3, 98081, Control_c, 2, 64, 72
3, 98087, Control_c, 2, 64, 68
3, 98093, Control_c, 2, 64, 64
3, 98161, Control_c, 2, 64, 68
3, 98176, Control_c, 2, 64, 72
3, 98192, Control_c, 2, 64, 76
3, 98222, Control_c, 2, 64, 80
3, 98441, Control_c, 2, 64, 76
3, 98460, Control_c, 2, 64, 72
3, 98547, Control_c, 2, 64, 76
3, 98574, Control_c, 2, 64, 80
3, 98605, Control_c, 2, 64, 84
3, 98622, Control_c, 2, 64, 88
3, 98635, Control_c, 2, 64, 92
3, 98658, Control_c, 2, 64, 100
3, 98808, Control_c, 2, 64, 92
3, 98814, Control_c, 2, 64, 88
3, 98816, Control_c, 2, 64, 84
3, 98824, Control_c, 2, 64, 80
3, 98900, Control_c, 2, 64, 84
3, 98937, Control_c, 2, 64, 88
3, 98962, Control_c, 2, 64, 92
3, 98994, Control_c, 2, 64, 100
3, 99158, Control_c, 2, 64, 92
3, 99267, Control_c, 2, 64, 100
3, 99553, Control_c, 2, 64, 92
3, 99584, Control_c, 2, 64, 88
3, 99588, Control_c, 2, 64, 84
3, 99602, Control_c, 2, 64, 80
3, 99609, Control_c, 2, 64, 76
3, 99624, Control_c, 2, 64, 72
3, 99763, Control_c, 2, 64, 76
3, 99793, Control_c, 2, 64, 80
3, 99831, Control_c, 2, 64, 84
3, 100173, Control_c, 2, 64, 88
3, 100209, Control_c, 2, 64, 92
3, 100236, Control_c, 2, 64, 100
3, 100541, Control_c, 2, 64, 112
3, 100579, Control_c, 2, 64, 100
3, 100594, Control_c, 2, 64, 92
3, 100689, Control_c, 2, 64, 100
3, 100760, Control_c, 2, 64, 112
3, 100896, Control_c, 2, 64, 100
3, 100905, Control_c, 2, 64, 92
3, 100913, Control_c, 2, 64, 88
3, 100913, Control_c, 2, 64, 84
3, 100919, Control_c, 2, 64, 80
3, 100920, Control_c, 2, 64, 76
3, 100928, Control_c, 2, 64, 72
3, 100989, Control_c, 2, 64, 76
3, 100996, Control_c, 2, 64, 80
3, 101015, Control_c, 2, 64, 84
3, 101026, Control_c, 2, 64, 88
3, 101034, Control_c, 2, 64, 92
3, 101046, Control_c, 2, 64, 100
3, 101072, Control_c, 2, 64, 112
3, 101225, Control_c, 2, 64, 100
3, 101238, Control_c, 2, 64, 92
3, 101245, Control_c, 2, 64, 88
3, 101248, Control_c, 2, 64, 84
3, 101252, Control_c, 2, 64, 80
3, 101321, Control_c, 2, 64, 84
3, 101341, Control_c, 2, 64, 88
3, 101355, Control_c, 2, 64, 92
3, 101391, Control_c, 2, 64, 100
3, 101572, Control_c, 2, 64, 92
3, 101588, Control_c, 2, 64, 88
3, 101595, Control_c, 2, 64, 84
3, 101606, Control_c, 2, 64, 80
3, 101616, Control_c, 2, 64, 76
3, 101622, Control_c, 2, 64, 72
3, 101632, Control_c, 2, 64, 68
3, 101646, Control_c, 2, 64, 64
3, 101663, Control_c, 2, 64, 60
3, 101685, Control_c, 2, 64, 44
3, 101802, Control_c, 2, 64, 60
3, 101814, Control_c, 2, 64, 64
3, 101830, Control_c, 2, 64, 68
3, 101844, Control_c, 2, 64, 72
3, 101868, Control_c, 2, 64, 76
3, 101902, Control_c, 2, 64, 80
3, 101940, Control_c, 2, 64, 84
3, 101995, Control_c, 2, 64, 88
3, 102005, Control_c, 2, 64, 84
3, 102018, Control_c, 2, 64, 88
3, 102111, Control_c, 2, 64, 92
3, 102539, Control_c, 2, 64, 88
3, 102544, Control_c, 2, 64, 84
3, 102554, Control_c, 2, 64, 80
3, 102560, Control_c, 2, 64, 76
3, 102640, Control_c, 2, 64, 80
3, 102667, Control_c, 2, 64, 84
3, 102688, Control_c, 2, 64, 88
3, 102698, Control_c, 2, 64, 92
3, 102720, Control_c, 2, 64, 100
3, 102839, Control_c, 2, 64, 92
3, 102844, Control_c, 2, 64, 88
3, 102849, Control_c, 2, 64, 84
3, 102852, Control_c, 2, 64, 80
3, 102859, Control_c, 2, 64, 76
3, 102919, Control_c, 2, 64, 80
3, 102941, Control_c, 2, 64, 84
3, 102957, Control_c, 2, 64, 88
3, 102970, Control_c, 2, 64, 92
3, 102997, Control_c, 2, 64, 100
3, 103554, Control_c, 2, 64, 92
3, 103563, Control_c, 2, 64, 88
3, 103569, Control_c, 2, 64, 84
3, 103574, Control_c, 2, 64, 80
3, 103581, Control_c, 2, 64, 76
3, 103589, Control_c, 2, 64, 72
3, 103596, Control_c, 2, 64, 68
3, 103613, Control_c, 2, 64, 64
3, 103725, Control_c, 2, 64, 68
3, 103740, Control_c, 2, 64, 72
3, 103759, Control_c, 2, 64, 76
3, 103786, Control_c, 2, 64, 80
3, 103823, Control_c, 2, 64, 84
3, 103848, Control_c, 2, 64, 88
3, 103873, Control_c, 2, 64, 92
3, 103943, Control_c, 2, 64, 100
3, 104908, Control_c, 2, 64, 92
3, 104915, Control_c, 2, 64, 88
3, 104915, Control_c, 2, 64, 84
3, 104922, Control_c, 2, 64, 80
3, 104998, Control_c, 2, 64, 84
3, 105013, Control_c, 2, 64, 88
3, 105029, Control_c, 2, 64, 92
3, 105048, Control_c, 2, 64, 100
3, 105117, Control_c, 2, 64, 112
3, 105562, Control_c, 2, 64, 100
3, 105578, Control_c, 2, 64, 92
3, 105583, Control_c, 2, 64, 88
3, 105583, Control_c, 2, 64, 84
3, 105588, Control_c, 2, 64, 80
3, 105591, Control_c, 2, 64, 76
3, 105595, Control_c, 2, 64, 72
3, 105603, Control_c, 2, 64, 68
3, 105624, Control_c, 2, 64, 64
3, 105725, Control_c, 2, 64, 68
3, 105744, Control_c, 2, 64, 72
3, 105764, Control_c, 2, 64, 76
3, 105781, Control_c, 2, 64, 80
3, 105804, Control_c, 2, 64, 84
3, 105817, Control_c, 2, 64, 88
3, 105824, Control_c, 2, 64, 92
3, 105840, Control_c, 2, 64, 100
3, 105974, Control_c, 2, 64, 92
3, 105980, Control_c, 2, 64, 88
3, 105983, Control_c, 2, 64, 84
3, 105985, Control_c, 2, 64, 80
3, 105991, Control_c, 2, 64, 76
3, 105995, Control_c, 2, 64, 72
3, 106063, Control_c, 2, 64, 76
3, 106116, Control_c, 2, 64, 80
3, 106147, Control_c, 2, 64, 84
3, 106178, Control_c, 2, 64, 88
3, 106194, Control_c, 2, 64, 92
3, 106397, Control_c, 2, 64, 88
3, 106413, Control_c, 2, 64, 84
3, 106436, Control_c, 2, 64, 80
3, 106453, Control_c, 2, 64, 76
3, 106474, Control_c, 2, 64, 72
3, 106531, Control_c, 2, 64, 76
3, 106564, Control_c, 2, 64, 80
3, 106600, Control_c, 2, 64, 84
3, 106963, Control_c, 2, 64, 80
3, 106981, Control_c, 2, 64, 76
3, 107004, Control_c, 2, 64, 72
3, 107045, Control_c, 2, 64, 68
3, 107362, Control_c, 2, 64, 72
3, 107392, Control_c, 2, 64, 76
3, 107417, Control_c, 2, 64, 80
3, 107449, Control_c, 2, 64, 84
3, 107488, Control_c, 2, 64, 88
3, 107805, Control_c, 2, 67, 112
3, 107863, Control_c, 2, 64, 84
3, 107892, Control_c, 2, 64, 80
3, 107911, Control_c, 2, 64, 76
3, 107920, Control_c, 2, 64, 72
3, 107930, Control_c, 2, 64, 68
3, 107949, Control_c, 2, 64, 64
3, 108024, Control_c, 2, 64, 68
3, 108039, Control_c, 2, 64, 72
3, 108056, Control_c, 2, 64, 76
3, 108080, Control_c, 2, 64, 80
3, 108112, Control_c, 2, 64, 84
3, 108225, Control_c, 2, 64, 80
3, 108235, Control_c, 2, 64, 76
3, 108246, Control_c, 2, 64, 72
3, 108258, Control_c, 2, 64, 68
3, 108281, Control_c, 2, 64, 64
3, 108351, Control_c, 2, 64, 68
3, 108363, Control_c, 2, 64, 72
3, 108382, Control_c, 2, 64, 76
3, 108396, Control_c, 2, 64, 80
3, 108415, Control_c, 2, 64, 84
3, 108427, Control_c, 2, 64, 88
3, 108434, Control_c, 2, 64, 92
3, 108449, Control_c, 2, 64, 100
3, 108477, Control_c, 2, 64, 112
3, 108590, Control_c, 2, 64, 100
3, 108602, Control_c, 2, 64, 92
3, 108608, Control_c, 2, 64, 88
3, 108611, Control_c, 2, 64, 84
3, 108616, Control_c, 2, 64, 80
3, 108620, Control_c, 2, 64, 76
3, 108630, Control_c, 2, 64, 72
3, 108679, Control_c, 2, 64, 76
3, 108696, Control_c, 2, 64, 80
3, 108716, Control_c, 2, 64, 84
3, 108734, Control_c, 2, 64, 88
3, 108743, Control_c, 2, 64, 92
3, 108764, Control_c, 2, 64, 100
3, 108838, Control_c, 2, 64, 112
3, 108928, Control_c, 2, 64, 100
3, 108941, Control_c, 2, 64, 92
3, 108945, Control_c, 2, 64, 88
3, 108948, Control_c, 2, 64, 84
3, 108954, Control_c, 2, 64, 80
3, 108956, Control_c, 2, 64, 76
3, 108961, Control_c, 2, 64, 72
3, 108968, Control_c, 2, 64, 68
3, 108988, Control_c, 2, 64, 64
3, 109067, Control_c, 2, 64, 68
3, 109077, Control_c, 2, 64, 72
3, 109096, Control_c, 2, 64, 76
3, 109108, Control_c, 2, 64, 80
3, 109126, Control_c, 2, 64, 84
3, 109139, Control_c, 2, 64, 88
3, 109147, Control_c, 2, 64, 92
3, 109157, Control_c, 2, 64, 100
3, 109182, Control_c, 2, 64, 112
3, 109260, Control_c, 2, 64, 100
3, 109270, Control_c, 2, 64, 92
3, 109272, Control_c, 2, 64, 88
3, 109274, Control_c, 2, 64, 84
3, 109278, Control_c, 2, 64, 80
3, 109283, Control_c, 2, 64, 76
3, 109285, Control_c, 2, 64, 72
3, 109293, Control_c, 2, 64, 68
3, 109364, Control_c, 2, 64, 72
3, 109381, Control_c, 2, 64, 76
3, 109401, Control_c, 2, 64, 80
3, 109424, Control_c, 2, 64, 84
3, 109436, Control_c, 2, 64, 88
3, 109444, Control_c, 2, 64, 92
3, 109454, Control_c, 2, 64, 100
3, 109468, Control_c, 2, 64, 112
3, 109487, Control_c, 2, 64, 127
3, 109524, Control_c, 2, 67, 104
3, 109590, Control_c, 2, 64, 112
3, 109597, Control_c, 2, 64, 100
3, 109597, Control_c, 2, 67, 96
3, 109602, Control_c, 2, 64, 92
3, 109604, Control_c, 2, 64, 88
3, 109604, Control_c, 2, 64, 84
3, 109608, Control_c, 2, 64, 80
3, 109610, Control_c, 2, 64, 76
3, 109613, Control_c, 2, 64, 72
3, 109616, Control_c, 2, 64, 68
3, 109620, Control_c, 2, 64, 64
3, 109634, Control_c, 2, 67, 88
3, 109678, Control_c, 2, 67, 80
3, 109679, Control_c, 2, 64, 68
3, 109691, Control_c, 2, 64, 72
3, 109703, Control_c, 2, 64, 76
3, 109707, Control_c, 2, 67, 72
3, 109723, Control_c, 2, 67, 64
3, 109724, Control_c, 2, 64, 80
3, 109740, Control_c, 2, 64, 84
3, 109740, Control_c, 2, 67, 56
3, 109748, Control_c, 2, 64, 88
3, 109753, Control_c, 2, 64, 92
3, 109754, Control_c, 2, 67, 48
3, 109760, Control_c, 2, 64, 100
3, 109776, Control_c, 2, 64, 112
3, 109784, Control_c, 2, 64, 127
3, 109832, Control_c, 2, 67, 40
3, 109882, Control_c, 2, 67, 32
3, 109917, Control_c, 2, 67, 24
3, 109942, Control_c, 2, 67, 16
3, 109980, Control_c, 2, 67, 8
3, 110031, Control_c, 2, 64, 112
3, 110038, Control_c, 2, 64, 100
3, 110045, Control_c, 2, 64, 92
3, 110049, Control_c, 2, 64, 88
3, 110051, Control_c, 2, 64, 84
3, 110054, Control_c, 2, 64, 80
3, 110056, Control_c, 2, 64, 76
3, 110063, Control_c, 2, 64, 72
3, 110064, Control_c, 2, 64, 68
3, 110078, Control_c, 2, 64, 64
3, 110099, Control_c, 2, 64, 60
3, 110113, Control_c, 2, 67, 0
3, 110157, Control_c, 2, 64, 64
3, 110162, Control_c, 2, 64, 68
3, 110172, Control_c, 2, 64, 72
3, 110189, Control_c, 2, 64, 76
3, 110202, Control_c, 2, 64, 80
3, 110218, Control_c, 2, 64, 84
3, 110228, Control_c, 2, 64, 88
3, 110238, Control_c, 2, 64, 92
3, 110253, Control_c, 2, 64, 100
3, 110381, Control_c, 2, 64, 92
3, 110409, Control_c, 2, 64, 88
3, 110415, Control_c, 2, 64, 84
3, 110434, Control_c, 2, 64, 80
3, 110446, Control_c, 2, 64, 76
3, 110467, Control_c, 2, 64, 72
3, 110488, Control_c, 2, 64, 68
3, 110555, Control_c, 2, 64, 64
3, 110648, Control_c, 2, 64, 60
3, 110698, Control_c, 2, 64, 44
3, 110718, Control_c, 2, 67, 8
3, 110741, Control_c, 2, 64, 28
3, 110761, Control_c, 2, 64, 12
3, 110814, Control_c, 2, 64, 0
3, 111184, Control_c, 2, 67, 16
3, 111289, Control_c, 2, 67, 24
3, 111340, Control_c, 2, 67, 32
3, 111370, Control_c, 2, 67, 40
3, 111402, Control_c, 2, 67, 48
3, 111437, Control_c, 2, 67, 56
3, 111479, Control_c, 2, 67, 64
3, 111516, Control_c, 2, 67, 72
3, 111538, Control_c, 2, 67, 80
3, 111579, Control_c, 2, 67, 88
3, 111614, Control_c, 2, 67, 96
3, 111672, Control_c, 2, 67, 104
3, 111755, Control_c, 2, 67, 112
3, 112254, Control_c, 2, 64, 12
3, 112322, Control_c, 2, 64, 28
3, 112367, Control_c, 2, 64, 44
3, 112392, Control_c, 2, 64, 60
3, 112416, Control_c, 2, 64, 64
3, 112470, Control_c, 2, 64, 68
3, 112523, Control_c, 2, 64, 72
3, 112578, Control_c, 2, 64, 76
3, 112610, Control_c, 2, 64, 80
3, 112639, Control_c, 2, 64, 84
3, 112653, Control_c, 2, 64, 88
3, 112667, Control_c, 2, 64, 92
3, 112681, Control_c, 2, 64, 100
3, 112724, Control_c, 2, 64, 112
3, 112946, Control_c, 2, 64, 100
3, 112961, Control_c, 2, 64, 92
3, 112966, Control_c, 2, 64, 88
3, 112966, Control_c, 2, 64, 84
3, 112972, Control_c, 2, 64, 80
3, 112973, Control_c, 2, 64, 76
3, 112976, Control_c, 2, 64, 72
3, 112986, Control_c, 2, 64, 68
3, 113028, Control_c, 2, 64, 72
3, 113049, Control_c, 2, 64, 76
3, 113069, Control_c, 2, 64, 80
3, 113092, Control_c, 2, 64, 84
3, 113112, Control_c, 2, 64, 88
3, 113126, Control_c, 2, 64, 92
3, 113147, Control_c, 2, 64, 100
3, 113291, Control_c, 2, 64, 92
3, 113301, Control_c, 2, 64, 88
3, 113304, Control_c, 2, 64, 84
3, 113309, Control_c, 2, 64, 80
3, 113310, Control_c, 2, 64, 76
3, 113318, Control_c, 2, 64, 72
3, 113324, Control_c, 2, 64, 68
3, 113329, Control_c, 2, 64, 64
3, 113396, Control_c, 2, 64, 68
3, 113406, Control_c, 2, 64, 72
3, 113422, Control_c, 2, 64, 76
3, 113432, Control_c, 2, 64, 80
3, 113445, Control_c, 2, 64, 84
3, 113452, Control_c, 2, 64, 88
3, 113460, Control_c, 2, 64, 92
3, 113469, Control_c, 2, 64, 100
3, 113484, Control_c, 2, 64, 112
3, 113499, Control_c, 2, 64, 127
3, 113620, Control_c, 2, 64, 112
3, 113675, Control_c, 2, 64, 100
3, 113694, Control_c, 2, 64, 92
3, 113705, Control_c, 2, 64, 88
3, 113711, Control_c, 2, 64, 84
3, 113718, Control_c, 2, 64, 80
3, 113728, Control_c, 2, 64, 76
3, 113739, Control_c, 2, 64, 72
3, 113746, Control_c, 2, 64, 68
3, 113756, Control_c, 2, 64, 64
3, 113772, Control_c, 2, 64, 60
3, 113784, Control_c, 2, 64, 44
3, 113824, Control_c, 2, 64, 28
3, 113920, Control_c, 2, 64, 44
3, 113935, Control_c, 2, 64, 60
3, 113948, Control_c, 2, 64, 64
3, 113962, Control_c, 2, 64, 68
3, 113980, Control_c, 2, 64, 72
3, 114003, Control_c, 2, 64, 76
3, 114031, Control_c, 2, 64, 80
3, 114054, Control_c, 2, 64, 84
3, 114063, Control_c, 2, 64, 88
3, 114071, Control_c, 2, 64, 92
3, 114085, Control_c, 2, 64, 100
3, 114101, Control_c, 2, 64, 112
3, 114124, Control_c, 2, 64, 127
3, 114451, Control_c, 2, 64, 112
3, 114502, Control_c, 2, 64, 100
3, 114528, Control_c, 2, 64, 92
3, 114540, Control_c, 2, 64, 88
3, 114545, Control_c, 2, 64, 84
3, 114549, Control_c, 2, 64, 80
3, 114557, Control_c, 2, 64, 76
3, 114561, Control_c, 2, 64, 72
3, 114571, Control_c, 2, 64, 68
3, 114591, Control_c, 2, 64, 64
3, 114667, Control_c, 2, 64, 68
3, 114683, Control_c, 2, 64, 72
3, 114706, Control_c, 2, 64, 76
3, 114731, Control_c, 2, 64, 80
3, 114757, Control_c, 2, 64, 84
3, 114776, Control_c, 2, 64, 88
3, 114783, Control_c, 2, 64, 92
3, 114805, Control_c, 2, 64, 100
3, 114888, Control_c, 2, 64, 92
3, 114897, Control_c, 2, 64, 88
3, 114897, Control_c, 2, 64, 84
3, 114902, Control_c, 2, 64, 80
3, 114909, Control_c, 2, 64, 76
3, 114911, Control_c, 2, 64, 72
3, 114921, Control_c, 2, 64, 68
3, 114984, Control_c, 2, 64, 72
3, 115008, Control_c, 2, 64, 76
3, 115032, Control_c, 2, 64, 80
3, 115073, Control_c, 2, 64, 84
3, 115097, Control_c, 2, 64, 88
3, 115113, Control_c, 2, 64, 92
3, 115143, Control_c, 2, 64, 100
3, 115304, Control_c, 2, 64, 92
3, 115324, Control_c, 2, 64, 88
3, 115327, Control_c, 2, 64, 84
3, 115338, Control_c, 2, 64, 80
3, 115348, Control_c, 2, 64, 76
3, 115357, Control_c, 2, 64, 72
3, 115365, Control_c, 2, 64, 68
3, 115378, Control_c, 2, 64, 64
3, 115390, Control_c, 2, 64, 60
3, 115407, Control_c, 2, 64, 44
3, 115539, Control_c, 2, 64, 60
3, 115546, Control_c, 2, 64, 64
3, 115550, Control_c, 2, 64, 68
3, 115558, Control_c, 2, 64, 72
3, 115576, Control_c, 2, 64, 76
3, 115589, Control_c, 2, 64, 80
3, 115607, Control_c, 2, 64, 84
3, 115616, Control_c, 2, 64, 88
3, 115626, Control_c, 2, 64, 92
3, 115640, Control_c, 2, 64, 100
3, 115662, Control_c, 2, 64, 112
3, 115876, Control_c, 2, 64, 100
3, 116149, Control_c, 2, 64, 92
3, 116208, Control_c, 2, 64, 88
3, 116251, Control_c, 2, 64, 84
3, 116286, Control_c, 2, 64, 80
3, 116316, Control_c, 2, 64, 76
3, 116351, Control_c, 2, 64, 72
3, 116385, Control_c, 2, 64, 68
3, 116470, Control_c, 2, 64, 72
3, 116497, Control_c, 2, 64, 76
3, 116523, Control_c, 2, 64, 80
3, 116562, Control_c, 2, 64, 84
3, 116818, Control_c, 2, 64, 80
3, 116883, Control_c, 2, 64, 76
3, 116911, Control_c, 2, 64, 72
3, 116938, Control_c, 2, 64, 68
3, 116966, Control_c, 2, 64, 64
3, 117610, Control_c, 2, 64, 68
3, 117632, Control_c, 2, 64, 72
3, 117653, Control_c, 2, 64, 76
3, 117675, Control_c, 2, 64, 80
3, 117701, Control_c, 2, 64, 84
3, 117721, Control_c, 2, 64, 88
3, 117734, Control_c, 2, 64, 92
3, 117839, Control_c, 2, 64, 88
3, 117849, Control_c, 2, 64, 84
3, 117865, Control_c, 2, 64, 80
3, 117877, Control_c, 2, 64, 76
3, 117894, Control_c, 2, 64, 72
3, 117907, Control_c, 2, 64, 68
3, 117922, Control_c, 2, 64, 64
3, 117940, Control_c, 2, 64, 60
3, 117954, Control_c, 2, 64, 44
3, 118018, Control_c, 2, 64, 28
3, 118179, Control_c, 2, 64, 44
3, 118204, Control_c, 2, 64, 60
3, 118219, Control_c, 2, 64, 64
3, 118235, Control_c, 2, 64, 68
3, 118261, Control_c, 2, 64, 72
3, 118293, Control_c, 2, 64, 76
3, 118340, Control_c, 2, 64, 80
3, 118348, Control_c, 2, 67, 104
3, 118396, Control_c, 2, 64, 84
3, 118397, Control_c, 2, 67, 96
3, 118428, Control_c, 2, 67, 88
3, 118433, Control_c, 2, 64, 88
3, 118450, Control_c, 2, 64, 92
3, 118476, Control_c, 2, 64, 100
3, 119004, Control_c, 2, 64, 92
3, 119040, Control_c, 2, 64, 88
3, 119047, Control_c, 2, 64, 84
3, 119063, Control_c, 2, 64, 80
3, 119077, Control_c, 2, 64, 76
3, 119085, Control_c, 2, 64, 72
3, 119097, Control_c, 2, 64, 68
3, 119107, Control_c, 2, 64, 64
3, 119123, Control_c, 2, 64, 60
3, 119216, Control_c, 2, 64, 64
3, 119224, Control_c, 2, 64, 68
3, 119236, Control_c, 2, 64, 72
3, 119262, Control_c, 2, 64, 76
3, 119372, Control_c, 2, 64, 72
3, 119373, Control_c, 2, 67, 96
3, 119385, Control_c, 2, 64, 68
3, 119400, Control_c, 2, 64, 64
3, 119417, Control_c, 2, 64, 60
3, 119437, Control_c, 2, 64, 44
3, 119511, Control_c, 2, 64, 60
3, 119518, Control_c, 2, 64, 64
3, 119526, Control_c, 2, 64, 68
3, 119540, Control_c, 2, 64, 72
3, 119558, Control_c, 2, 64, 76
3, 119586, Control_c, 2, 64, 80
3, 119679, Control_c, 2, 64, 76
3, 119702, Control_c, 2, 64, 72
3, 119712, Control_c, 2, 64, 68
3, 119730, Control_c, 2, 64, 64
3, 119750, Control_c, 2, 64, 60
3, 119769, Control_c, 2, 64, 44
3, 119866, Control_c, 2, 64, 60
3, 119882, Control_c, 2, 64, 64
3, 119901, Control_c, 2, 64, 68
3, 119931, Control_c, 2, 64, 72
3, 119959, Control_c, 2, 64, 76
3, 119973, Control_c, 2, 67, 104
3, 119988, Control_c, 2, 64, 80
3, 120035, Control_c, 2, 64, 84
3, 120056, Control_c, 2, 64, 88
3, 120072, Control_c, 2, 64, 92
3, 120092, Control_c, 2, 64, 100
3, 120373, Control_c, 2, 64, 92
3, 120406, Control_c, 2, 64, 88
3, 120416, Control_c, 2, 64, 84
3, 120435, Control_c, 2, 64, 80
3, 120444, Control_c, 2, 64, 76
3, 120452, Control_c, 2, 64, 72
3, 120459, Control_c, 2, 64, 68
3, 120472, Control_c, 2, 64, 64
3, 120495, Control_c, 2, 64, 60
3, 120561, Control_c, 2, 64, 64
3, 120570, Control_c, 2, 64, 68
3, 120580, Control_c, 2, 64, 72
3, 120596, Control_c, 2, 64, 76
3, 120611, Control_c, 2, 64, 80
3, 120632, Control_c, 2, 64, 84
3, 120644, Control_c, 2, 64, 88
3, 120654, Control_c, 2, 64, 92
3, 120665, Control_c, 2, 64, 100
3, 120829, Control_c, 2, 64, 92
3, 120840, Control_c, 2, 64, 88
3, 120844, Control_c, 2, 64, 84
3, 120850, Control_c, 2, 64, 80
3, 120860, Control_c, 2, 64, 76
3, 120869, Control_c, 2, 64, 72
3, 120925, Control_c, 2, 64, 76
3, 120948, Control_c, 2, 64, 80
3, 120971, Control_c, 2, 64, 84
3, 120985, Control_c, 2, 64, 88
3, 120995, Control_c, 2, 64, 92
3, 121015, Control_c, 2, 64, 100
3, 121172, Control_c, 2, 67, 96
3, 121212, Control_c, 2, 64, 92
3, 121219, Control_c, 2, 64, 88
3, 121220, Control_c, 2, 64, 84
3, 121225, Control_c, 2, 64, 80
3, 121227, Control_c, 2, 64, 76
3, 121233, Control_c, 2, 64, 72
3, 121235, Control_c, 2, 64, 68
3, 121245, Control_c, 2, 64, 64
3, 121265, Control_c, 2, 67, 88
3, 121315, Control_c, 2, 67, 80
3, 121332, Control_c, 2, 64, 68
3, 121343, Control_c, 2, 64, 72
3, 121351, Control_c, 2, 67, 72
3, 121361, Control_c, 2, 64, 76
3, 121374, Control_c, 2, 67, 64
3, 121381, Control_c, 2, 64, 80
3, 121388, Control_c, 2, 67, 56
3, 121396, Control_c, 2, 67, 48
3, 121402, Control_c, 2, 64, 84
3, 121416, Control_c, 2, 64, 88
3, 121428, Control_c, 2, 64, 92
3, 121429, Control_c, 2, 67, 40
3, 121440, Control_c, 2, 64, 100
3, 121476, Control_c, 2, 67, 32
3, 121489, Control_c, 2, 64, 112
3, 121517, Control_c, 2, 64, 127
3, 121521, Control_c, 2, 67, 24
3, 121555, Control_c, 2, 67, 16
3, 121597, Control_c, 2, 67, 8
3, 121670, Control_c, 2, 67, 0
3, 121806, Control_c, 2, 64, 112
3, 121812, Control_c, 2, 64, 100
3, 121816, Control_c, 2, 64, 92
3, 121823, Control_c, 2, 64, 84
3, 121823, Control_c, 2, 64, 80
3, 121826, Control_c, 2, 64, 76
3, 121829, Control_c, 2, 64, 72
3, 121829, Control_c, 2, 64, 68
3, 121831, Control_c, 2, 64, 64
3, 121841, Control_c, 2, 64, 60
3, 121900, Control_c, 2, 64, 64
3, 121907, Control_c, 2, 64, 68
3, 121914, Control_c, 2, 64, 72
3, 121923, Control_c, 2, 64, 76
3, 121937, Control_c, 2, 64, 80
3, 121953, Control_c, 2, 64, 84
3, 121960, Control_c, 2, 64, 88
3, 121968, Control_c, 2, 64, 92
3, 121974, Control_c, 2, 64, 100
3, 121984, Control_c, 2, 64, 112
3, 121994, Control_c, 2, 64, 127
3, 122129, Control_c, 2, 64, 112
3, 122140, Control_c, 2, 64, 100
3, 122150, Control_c, 2, 64, 92
3, 122153, Control_c, 2, 64, 88
3, 122156, Control_c, 2, 64, 84
3, 122160, Control_c, 2, 64, 80
3, 122166, Control_c, 2, 64, 76
3, 122172, Control_c, 2, 64, 72
3, 122184, Control_c, 2, 64, 68
3, 122194, Control_c, 2, 64, 64
3, 122202, Control_c, 2, 64, 60
3, 122214, Control_c, 2, 64, 44
3, 122226, Control_c, 2, 64, 28
3, 122247, Control_c, 2, 64, 12
3, 122307, Control_c, 2, 64, 0
3, 122463, Control_c, 2, 64, 12
3, 122494, Control_c, 2, 64, 28
3, 122516, Control_c, 2, 64, 44
3, 122534, Control_c, 2, 64, 60
3, 122543, Control_c, 2, 64, 64
3, 122556, Control_c, 2, 64, 68
3, 122586, Control_c, 2, 64, 72
3, 122640, Control_c, 2, 64, 76
3, 122818, Control_c, 2, 64, 72
3, 122947, Control_c, 2, 64, 68
3, 123044, Control_c, 2, 64, 64
3, 123065, Control_c, 2, 64, 60
3, 123077, Control_c, 2, 64, 44
3, 123097, Control_c, 2, 64, 28
3, 123109, Control_c, 2, 64, 12
3, 123190, Control_c, 2, 64, 28
3, 123199, Control_c, 2, 64, 44
3, 123206, Control_c, 2, 64, 60
3, 123211, Control_c, 2, 64, 64
3, 123213, Control_c, 2, 64, 68
3, 123223, Control_c, 2, 64, 72
3, 123266, Control_c, 2, 64, 76
3, 123336, Control_c, 2, 64, 72
3, 123346, Control_c, 2, 64, 68
3, 123356, Control_c, 2, 64, 64
3, 123366, Control_c, 2, 64, 60
3, 123366, Control_c, 2, 67, 8
3, 123376, Control_c, 2, 64, 44
3, 123404, Control_c, 2, 64, 28
3, 123425, Control_c, 2, 64, 12
3, 123453, Control_c, 2, 64, 0
3, 123532, Control_c, 2, 64, 12
3, 123542, Control_c, 2, 64, 28
3, 123552, Control_c, 2, 64, 44
3, 123558, Control_c, 2, 64, 60
3, 123563, Control_c, 2, 64, 64
3, 123566, Control_c, 2, 64, 68
3, 123570, Control_c, 2, 64, 72
3, 123588, Control_c, 2, 64, 76
3, 123611, Control_c, 2, 64, 80
3, 123690, Control_c, 2, 64, 84
3, 123717, Control_c, 2, 64, 88
3, 123732, Control_c, 2, 64, 92
3, 123757, Control_c, 2, 64, 100
3, 123842, Control_c, 2, 64, 92
3, 123858, Control_c, 2, 64, 88
3, 123862, Control_c, 2, 64, 84
3, 123870, Control_c, 2, 64, 80
3, 123880, Control_c, 2, 64, 76
3, 123888, Control_c, 2, 64, 72
3, 123897, Control_c, 2, 64, 68
3, 123905, Control_c, 2, 64, 64
3, 123916, Control_c, 2, 64, 60
3, 123921, Control_c, 2, 64, 44
3, 123933, Control_c, 2, 64, 28
3, 123944, Control_c, 2, 64, 12
3, 123971, Control_c, 2, 64, 0
3, 124067, Control_c, 2, 67, 16
3, 124120, Control_c, 2, 64, 12
3, 124142, Control_c, 2, 64, 28
3, 124162, Control_c, 2, 64, 44
3, 124172, Control_c, 2, 64, 60
3, 124180, Control_c, 2, 64, 64
3, 124181, Control_c, 2, 67, 24
3, 124190, Control_c, 2, 64, 68
3, 124220, Control_c, 2, 64, 72
3, 124252, Control_c, 2, 64, 76
3, 124275, Control_c, 2, 67, 32
3, 124291, Control_c, 2, 64, 80
3, 124321, Control_c, 2, 67, 40
3, 124356, Control_c, 2, 67, 48
3, 124388, Control_c, 2, 67, 56
3, 124428, Control_c, 2, 67, 64
3, 124462, Control_c, 2, 67, 72
3, 124488, Control_c, 2, 67, 80
3, 124517, Control_c, 2, 67, 88
3, 124548, Control_c, 2, 67, 96
3, 124610, Control_c, 2, 67, 104
3, 124631, Control_c, 2, 64, 76
3, 124668, Control_c, 2, 64, 72
3, 124686, Control_c, 2, 64, 68
3, 124696, Control_c, 2, 64, 64
3, 124708, Control_c, 2, 64, 60
3, 124716, Control_c, 2, 64, 44
3, 124732, Control_c, 2, 64, 28
3, 124746, Control_c, 2, 64, 12
3, 124784, Control_c, 2, 64, 28
3, 124792, Control_c, 2, 64, 44
3, 124800, Control_c, 2, 64, 60
3, 124800, Control_c, 2, 64, 64
3, 124804, Control_c, 2, 64, 68
3, 124807, Control_c, 2, 64, 72
3, 124814, Control_c, 2, 64, 76
3, 124824, Control_c, 2, 64, 80
3, 124843, Control_c, 2, 64, 84
3, 124851, Control_c, 2, 64, 88
3, 124857, Control_c, 2, 64, 92
3, 124872, Control_c, 2, 64, 100
3, 125070, Control_c, 2, 64, 92
3, 125116, Control_c, 2, 64, 88
3, 125132, Control_c, 2, 64, 84
3, 125154, Control_c, 2, 64, 80
3, 125167, Control_c, 2, 64, 76
3, 125177, Control_c, 2, 64, 72
3, 125191, Control_c, 2, 64, 68
3, 125210, Control_c, 2, 64, 64
3, 125221, Control_c, 2, 64, 60
3, 125232, Control_c, 2, 64, 44
3, 125426, Control_c, 2, 64, 60
3, 125459, Control_c, 2, 64, 64
3, 125488, Control_c, 2, 64, 68
3, 125521, Control_c, 2, 64, 72
3, 125557, Control_c, 2, 64, 76
3, 125597, Control_c, 2, 64, 80
3, 125809, Control_c, 2, 64, 84
3, 125851, Control_c, 2, 64, 88
3, 125879, Control_c, 2, 64, 92
3, 125937, Control_c, 2, 64, 100
3, 126108, Control_c, 2, 64, 92
3, 126119, Control_c, 2, 64, 88
3, 126120, Control_c, 2, 64, 84
3, 126130, Control_c, 2, 64, 80
3, 126138, Control_c, 2, 64, 76
3, 126146, Control_c, 2, 64, 72
3, 126150, Control_c, 2, 64, 68
3, 126159, Control_c, 2, 64, 64
3, 126168, Control_c, 2, 64, 60
3, 126176, Control_c, 2, 64, 44
3, 126196, Control_c, 2, 64, 28
3, 126291, Control_c, 2, 64, 44
3, 126302, Control_c, 2, 64, 60
3, 126305, Control_c, 2, 64, 64
3, 126309, Control_c, 2, 64, 68
3, 126319, Control_c, 2, 64, 72
3, 126345, Control_c, 2, 64, 76
3, 126347, Control_c, 2, 67, 96
3, 126374, Control_c, 2, 64, 80
3, 126415, Control_c, 2, 67, 88
3, 126436, Control_c, 2, 64, 84
3, 126457, Control_c, 2, 67, 80
3, 126473, Control_c, 2, 64, 88
3, 126486, Control_c, 2, 67, 72
3, 126488, Control_c, 2, 64, 92
3, 126503, Control_c, 2, 67, 64
3, 126509, Control_c, 2, 64, 100
3, 126515, Control_c, 2, 67, 56
3, 126523, Control_c, 2, 67, 48
3, 126547, Control_c, 2, 67, 40
3, 126603, Control_c, 2, 67, 32
3, 126649, Control_c, 2, 67, 24
3, 126680, Control_c, 2, 67, 16
3, 126707, Control_c, 2, 64, 92
3, 126707, Control_c, 2, 67, 8
3, 126712, Control_c, 2, 64, 88
3, 126715, Control_c, 2, 64, 84
3, 126718, Control_c, 2, 64, 80
3, 126722, Control_c, 2, 64, 76
3, 126729, Control_c, 2, 64, 72
3, 126732, Control_c, 2, 64, 68
3, 126737, Control_c, 2, 64, 64
3, 126748, Control_c, 2, 64, 60
3, 126762, Control_c, 2, 64, 44
3, 126783, Control_c, 2, 64, 28
3, 126799, Control_c, 2, 67, 0
3, 126874, Control_c, 2, 64, 44
3, 126886, Control_c, 2, 64, 60
3, 126894, Control_c, 2, 64, 64
3, 126900, Control_c, 2, 64, 68
3, 126911, Control_c, 2, 64, 72
3, 126928, Control_c, 2, 64, 76
3, 126941, Control_c, 2, 64, 80
3, 126959, Control_c, 2, 64, 84
3, 126972, Control_c, 2, 64, 88
3, 126982, Control_c, 2, 64, 92
3, 126992, Control_c, 2, 64, 100
3, 127020, Control_c, 2, 64, 112
3, 127145, Control_c, 2, 64, 100
3, 127162, Control_c, 2, 64, 92
3, 127168, Control_c, 2, 64, 88
3, 127170, Control_c, 2, 64, 84
3, 127175, Control_c, 2, 64, 80
3, 127181, Control_c, 2, 64, 76
3, 127182, Control_c, 2, 64, 72
3, 127188, Control_c, 2, 64, 68
3, 127190, Control_c, 2, 64, 64
3, 127198, Control_c, 2, 64, 60
3, 127210, Control_c, 2, 64, 44
3, 127288, Control_c, 2, 64, 60
3, 127296, Control_c, 2, 64, 64
3, 127301, Control_c, 2, 64, 68
3, 127311, Control_c, 2, 64, 72
3, 127327, Control_c, 2, 64, 76
3, 127342, Control_c, 2, 64, 80
3, 127357, Control_c, 2, 64, 84
3, 127368, Control_c, 2, 64, 88
3, 127379, Control_c, 2, 64, 92
3, 127394, Control_c, 2, 64, 100
3, 127701, Control_c, 2, 64, 92
3, 127712, Control_c, 2, 64, 88
3, 127714, Control_c, 2, 64, 84
3, 127722, Control_c, 2, 64, 80
3, 127727, Control_c, 2, 64, 76
3, 127728, Control_c, 2, 64, 72
3, 127734, Control_c, 2, 64, 68
3, 127740, Control_c, 2, 64, 64
3, 127782, Control_c, 2, 64, 68
3, 127792, Control_c, 2, 64, 72
3, 127800, Control_c, 2, 64, 76
3, 127807, Control_c, 2, 64, 80
3, 127818, Control_c, 2, 64, 84
3, 127827, Control_c, 2, 64, 88
3, 127834, Control_c, 2, 64, 92
3, 127845, Control_c, 2, 64, 100
3, 127868, Control_c, 2, 64, 112
3, 127963, Control_c, 2, 64, 100
3, 127981, Control_c, 2, 64, 92
3, 127989, Control_c, 2, 64, 88
3, 127991, Control_c, 2, 64, 84
3, 127994, Control_c, 2, 64, 80
3, 127995, Control_c, 2, 64, 76
3, 127999, Control_c, 2, 64, 72
3, 128001, Control_c, 2, 64, 68
3, 128004, Control_c, 2, 64, 64
3, 128006, Control_c, 2, 64, 60
3, 128008, Control_c, 2, 64, 44
3, 128014, Control_c, 2, 64, 28
3, 128021, Control_c, 2, 64, 12
3, 128044, Control_c, 2, 64, 0
3, 128179, Control_c, 2, 64, 12
3, 128192, Control_c, 2, 64, 28
3, 128200, Control_c, 2, 64, 44
3, 128207, Control_c, 2, 64, 60
3, 128214, Control_c, 2, 64, 64
3, 128220, Control_c, 2, 64, 68
3, 128244, Control_c, 2, 64, 72
3, 128270, Control_c, 2, 64, 76
3, 128379, Control_c, 2, 64, 80
3, 128409, Control_c, 2, 64, 84
3, 128418, Control_c, 2, 64, 88
3, 128424, Control_c, 2, 64, 92
3, 128436, Control_c, 2, 64, 100
3, 128452, Control_c, 2, 64, 112
3, 128461, Control_c, 2, 64, 127
3, 128691, Control_c, 2, 64, 112
3, 128693, Control_c, 2, 64, 100
3, 128699, Control_c, 2, 64, 92
3, 128701, Control_c, 2, 64, 84
3, 128703, Control_c, 2, 64, 80
3, 128705, Control_c, 2, 64, 76
3, 128706, Control_c, 2, 64, 72
3, 128709, Control_c, 2, 64, 68
3, 128709, Control_c, 2, 64, 64
3, 128713, Control_c, 2, 64, 60
3, 128715, Control_c, 2, 64, 44
3, 128718, Control_c, 2, 64, 28
3, 128724, Control_c, 2, 64, 12
3, 128730, Control_c, 2, 64, 0
3, 128773, Control_c, 2, 64, 12
3, 128781, Control_c, 2, 64, 28
3, 128786, Control_c, 2, 64, 44
3, 128789, Control_c, 2, 64, 60
3, 128789, Control_c, 2, 64, 64
3, 128791, Control_c, 2, 64, 68
3, 128794, Control_c, 2, 64, 72
3, 128796, Control_c, 2, 64, 76
3, 128797, Control_c, 2, 64, 80
3, 128802, Control_c, 2, 64, 84
3, 128804, Control_c, 2, 64, 88
3, 128807, Control_c, 2, 64, 92
3, 128811, Control_c, 2, 64, 100
3, 128819, Control_c, 2, 64, 112
3, 128822, Control_c, 2, 64, 127
3, 128980, Control_c, 2, 64, 112
3, 128983, Control_c, 2, 64, 100
3, 128987, Control_c, 2, 64, 92
3, 128987, Control_c, 2, 64, 88
3, 128990, Control_c, 2, 64, 84
3, 128993, Control_c, 2, 64, 76
3, 128993, Control_c, 2, 64, 72
3, 128996, Control_c, 2, 64, 68
3, 128997, Control_c, 2, 64, 64
3, 128999, Control_c, 2, 64, 60
3, 129000, Control_c, 2, 64, 44
3, 129006, Control_c, 2, 64, 28
3, 129043, Control_c, 2, 64, 44
3, 129048, Control_c, 2, 64, 60
3, 129048, Control_c, 2, 64, 64
3, 129051, Control_c, 2, 64, 68
3, 129053, Control_c, 2, 64, 72
3, 129056, Control_c, 2, 64, 76
3, 129058, Control_c, 2, 64, 80
3, 129061, Control_c, 2, 64, 84
3, 129064, Control_c, 2, 64, 88
3, 129066, Control_c, 2, 64, 92
3, 129070, Control_c, 2, 64, 100
3, 129079, Control_c, 2, 64, 112
3, 129086, Control_c, 2, 64, 127
3, 129292, Control_c, 2, 64, 112
3, 129295, Control_c, 2, 64, 100
3, 129300, Control_c, 2, 64, 92
3, 129303, Control_c, 2, 64, 84
3, 129303, Control_c, 2, 64, 80
3, 129308, Control_c, 2, 64, 72
3, 129308, Control_c, 2, 64, 68
3, 129320, Control_c, 2, 64, 0
3, 129350, Control_c, 2, 64, 12
3, 129360, Control_c, 2, 64, 28
3, 129364, Control_c, 2, 64, 44
3, 129364, Control_c, 2, 64, 60
3, 129367, Control_c, 2, 64, 64
3, 129367, Control_c, 2, 64, 68
3, 129371, Control_c, 2, 64, 76
3, 129372, Control_c, 2, 64, 80
3, 129378, Control_c, 2, 64, 84
3, 129378, Control_c, 2, 64, 88
3, 129379, Control_c, 2, 64, 92
3, 129385, Control_c, 2, 64, 100
3, 129391, Control_c, 2, 64, 112
3, 129393, Control_c, 2, 64, 127
3, 129418, Control_c, 2, 64, 112
3, 129423, Control_c, 2, 64, 100
3, 129429, Control_c, 2, 64, 92
3, 129430, Control_c, 2, 64, 88
3, 129430, Control_c, 2, 64, 84
3, 129434, Control_c, 2, 64, 80
3, 129439, Control_c, 2, 64, 76
3, 129446, Control_c, 2, 64, 80
3, 129450, Control_c, 2, 64, 84
3, 129454, Control_c, 2, 64, 88
3, 129456, Control_c, 2, 64, 92
3, 129460, Control_c, 2, 64, 100
3, 129468, Control_c, 2, 64, 112
3, 129474, Control_c, 2, 64, 127
3, 129606, Control_c, 2, 64, 112
3, 129607, Control_c, 2, 64, 100
3, 129614, Control_c, 2, 64, 88
3, 129616, Control_c, 2, 64, 84
3, 129616, Control_c, 2, 64, 76
3, 129616, Control_c, 2, 64, 72
3, 129616, Control_c, 2, 64, 68
3, 129620, Control_c, 2, 64, 64
3, 129620, Control_c, 2, 64, 60
3, 129626, Control_c, 2, 64, 44
3, 129639, Control_c, 2, 64, 60
3, 129645, Control_c, 2, 64, 64
3, 129647, Control_c, 2, 64, 68
3, 129654, Control_c, 2, 64, 72
3, 129662, Control_c, 2, 64, 76
3, 129670, Control_c, 2, 64, 80
3, 129699, Control_c, 2, 64, 76
3, 129702, Control_c, 2, 64, 72
3, 129708, Control_c, 2, 64, 68
3, 129708, Control_c, 2, 64, 64
3, 129715, Control_c, 2, 64, 60
3, 129730, Control_c, 2, 64, 64
3, 129738, Control_c, 2, 64, 68
3, 129745, Control_c, 2, 64, 72
3, 129750, Control_c, 2, 64, 76
3, 129753, Control_c, 2, 64, 80
3, 129760, Control_c, 2, 64, 84
3, 129763, Control_c, 2, 64, 88
3, 129768, Control_c, 2, 64, 92
3, 129770, Control_c, 2, 64, 100
3, 129778, Control_c, 2, 64, 112
3, 129783, Control_c, 2, 64, 127
3, 129901, Control_c, 2, 64, 112
3, 129903, Control_c, 2, 64, 100
3, 129909, Control_c, 2, 64, 92
3, 129910, Control_c, 2, 64, 88
3, 129912, Control_c, 2, 64, 80
3, 129913, Control_c, 2, 64, 76
3, 129917, Control_c, 2, 64, 72
3, 129917, Control_c, 2, 64, 68
3, 129920, Control_c, 2, 64, 64
3, 129920, Control_c, 2, 64, 60
3, 129924, Control_c, 2, 64, 44
3, 129949, Control_c, 2, 64, 60
3, 129955, Control_c, 2, 64, 64
3, 129962, Control_c, 2, 64, 68
3, 129965, Control_c, 2, 64, 72
3, 129972, Control_c, 2, 64, 76
3, 129976, Control_c, 2, 64, 80
3, 129985, Control_c, 2, 64, 84
3, 129990, Control_c, 2, 64, 88
3, 129992, Control_c, 2, 64, 92
3, 130000, Control_c, 2, 64, 100
3, 130010, Control_c, 2, 64, 112
3, 130017, Control_c, 2, 64, 127
3, 130173, Control_c, 2, 67, 8
3, 130206, Control_c, 2, 64, 112
3, 130211, Control_c, 2, 64, 100
3, 130216, Control_c, 2, 64, 92
3, 130216, Control_c, 2, 64, 84
3, 130219, Control_c, 2, 64, 80
3, 130219, Control_c, 2, 64, 76
3, 130221, Control_c, 2, 64, 72
3, 130221, Control_c, 2, 64, 68
3, 130223, Control_c, 2, 64, 64
3, 130226, Control_c, 2, 64, 60
3, 130229, Control_c, 2, 64, 44
3, 130266, Control_c, 2, 64, 60
3, 130274, Control_c, 2, 64, 64
3, 130275, Control_c, 2, 67, 16
3, 130276, Control_c, 2, 64, 68
3, 130282, Control_c, 2, 64, 72
3, 130289, Control_c, 2, 64, 76
3, 130296, Control_c, 2, 64, 80
3, 130307, Control_c, 2, 64, 84
3, 130314, Control_c, 2, 64, 88
3, 130322, Control_c, 2, 64, 92
3, 130330, Control_c, 2, 64, 100
3, 130342, Control_c, 2, 64, 112
3, 130352, Control_c, 2, 64, 127
3, 130538, Control_c, 2, 64, 112
3, 130578, Control_c, 2, 64, 100
3, 130604, Control_c, 2, 64, 92
3, 130611, Control_c, 2, 64, 88
3, 130617, Control_c, 2, 64, 84
3, 130624, Control_c, 2, 64, 80
3, 130626, Control_c, 2, 64, 76
3, 130633, Control_c, 2, 64, 72
3, 130642, Control_c, 2, 64, 68
3, 130650, Control_c, 2, 64, 64
3, 130662, Control_c, 2, 64, 60
3, 130672, Control_c, 2, 64, 44
3, 130679, Control_c, 2, 64, 28
3, 130687, Control_c, 2, 64, 12
3, 130694, Control_c, 2, 64, 0
3, 130800, Control_c, 2, 64, 12
3, 130812, Control_c, 2, 64, 28
3, 130815, Control_c, 2, 67, 24
3, 130822, Control_c, 2, 64, 44
3, 130833, Control_c, 2, 64, 60
3, 130838, Control_c, 2, 64, 64
3, 130842, Control_c, 2, 64, 68
3, 130852, Control_c, 2, 64, 72
3, 130876, Control_c, 2, 64, 76
3, 130895, Control_c, 2, 64, 80
3, 130918, Control_c, 2, 64, 84
3, 130933, Control_c, 2, 64, 88
3, 130943, Control_c, 2, 64, 92
3, 130949, Control_c, 2, 67, 32
3, 130956, Control_c, 2, 64, 100
3, 130979, Control_c, 2, 64, 112
3, 131002, Control_c, 2, 67, 40
3, 131002, Control_c, 2, 64, 127
3, 131052, Control_c, 2, 67, 48
3, 131120, Control_c, 2, 67, 56
3, 131170, Control_c, 2, 67, 64
3, 131225, Control_c, 2, 67, 72
3, 131273, Control_c, 2, 67, 80
3, 131364, Control_c, 2, 64, 112
3, 131388, Control_c, 2, 64, 100
3, 131399, Control_c, 2, 64, 92
3, 131404, Control_c, 2, 64, 88
3, 131407, Control_c, 2, 64, 84
3, 131409, Control_c, 2, 64, 80
3, 131412, Control_c, 2, 64, 76
3, 131417, Control_c, 2, 64, 72
3, 131421, Control_c, 2, 64, 68
3, 131427, Control_c, 2, 64, 64
3, 131446, Control_c, 2, 64, 60
3, 131623, Control_c, 2, 64, 64
3, 131825, Control_c, 2, 64, 68
3, 131840, Control_c, 2, 64, 72
3, 131864, Control_c, 2, 64, 76
3, 132034, Control_c, 2, 64, 72
3, 132048, Control_c, 2, 64, 68
3, 132058, Control_c, 2, 64, 64
3, 132072, Control_c, 2, 64, 60
3, 132084, Control_c, 2, 64, 44
3, 132099, Control_c, 2, 64, 28
3, 132124, Control_c, 2, 64, 12
3, 132345, Control_c, 2, 64, 28
3, 132353, Control_c, 2, 64, 44
3, 132361, Control_c, 2, 64, 60
3, 132368, Control_c, 2, 64, 64
3, 132370, Control_c, 2, 64, 68
3, 132379, Control_c, 2, 64, 72
3, 132394, Control_c, 2, 67, 88
3, 132395, Control_c, 2, 64, 76
3, 132413, Control_c, 2, 64, 80
3, 132437, Control_c, 2, 64, 84
3, 132446, Control_c, 2, 67, 96
3, 132452, Control_c, 2, 64, 88
3, 132464, Control_c, 2, 64, 92
3, 132550, Control_c, 2, 67, 104
3, 132687, Control_c, 2, 64, 88
3, 132750, Control_c, 2, 64, 84
3, 132804, Control_c, 2, 64, 80
3, 132841, Control_c, 2, 64, 76
3, 132857, Control_c, 2, 64, 72
3, 132869, Control_c, 2, 64, 68
3, 132881, Control_c, 2, 64, 64
3, 132901, Control_c, 2, 64, 60
3, 132984, Control_c, 2, 64, 64
3, 132993, Control_c, 2, 64, 68
3, 133006, Control_c, 2, 64, 72
3, 133025, Control_c, 2, 64, 76
3, 133045, Control_c, 2, 64, 80
3, 133074, Control_c, 2, 64, 84
3, 133116, Control_c, 2, 64, 88
3, 133266, Control_c, 2, 64, 84
3, 133317, Control_c, 2, 64, 80
3, 133343, Control_c, 2, 64, 76
3, 133357, Control_c, 2, 64, 72
3, 133368, Control_c, 2, 64, 68
3, 133380, Control_c, 2, 64, 64
3, 133403, Control_c, 2, 64, 60
3, 133426, Control_c, 2, 64, 44
3, 133765, Control_c, 2, 67, 96
3, 133782, Control_c, 2, 64, 60
3, 133802, Control_c, 2, 64, 64
3, 133818, Control_c, 2, 64, 68
3, 133834, Control_c, 2, 64, 72
3, 133859, Control_c, 2, 64, 76
3, 133869, Control_c, 2, 67, 88
3, 133906, Control_c, 2, 64, 80
3, 133929, Control_c, 2, 67, 80
3, 133972, Control_c, 2, 67, 72
3, 133997, Control_c, 2, 67, 64
3, 134021, Control_c, 2, 67, 56
3, 134035, Control_c, 2, 67, 48
3, 134069, Control_c, 2, 64, 84
3, 134083, Control_c, 2, 64, 88
3, 134088, Control_c, 2, 67, 40
3, 134092, Control_c, 2, 64, 92
3, 134102, Control_c, 2, 64, 100
3, 134118, Control_c, 2, 64, 112
3, 134130, Control_c, 2, 67, 32
3, 134130, Control_c, 2, 64, 127
3, 134158, Control_c, 2, 67, 24
3, 134191, Control_c, 2, 67, 16
3, 134251, Control_c, 2, 67, 8
3, 134331, Control_c, 2, 64, 112
3, 134370, Control_c, 2, 64, 100
3, 134395, Control_c, 2, 64, 92
3, 134410, Control_c, 2, 64, 88
3, 134412, Control_c, 2, 64, 84
3, 134422, Control_c, 2, 64, 80
3, 134430, Control_c, 2, 64, 76
3, 134445, Control_c, 2, 64, 72
3, 134458, Control_c, 2, 64, 68
3, 134470, Control_c, 2, 64, 64
3, 134485, Control_c, 2, 64, 60
3, 134502, Control_c, 2, 64, 44
3, 134568, Control_c, 2, 64, 28
3, 134583, Control_c, 2, 67, 16
3, 134646, Control_c, 2, 67, 24
3, 134691, Control_c, 2, 67, 32
3, 134722, Control_c, 2, 67, 40
3, 134760, Control_c, 2, 67, 48
3, 134803, Control_c, 2, 67, 56
3, 134822, Control_c, 2, 64, 44
3, 134848, Control_c, 2, 67, 64
3, 134853, Control_c, 2, 64, 60
3, 134868, Control_c, 2, 64, 64
3, 134891, Control_c, 2, 64, 68
3, 134892, Control_c, 2, 67, 72
3, 134918, Control_c, 2, 64, 72
3, 134956, Control_c, 2, 64, 76
3, 134991, Control_c, 2, 64, 80
3, 135044, Control_c, 2, 64, 84
3, 135099, Control_c, 2, 64, 88
3, 135129, Control_c, 2, 64, 92
3, 135636, Control_c, 2, 64, 88
3, 135648, Control_c, 2, 64, 84
3, 135663, Control_c, 2, 64, 80
3, 135680, Control_c, 2, 64, 76
3, 135699, Control_c, 2, 64, 72
3, 135713, Control_c, 2, 64, 68
3, 135726, Control_c, 2, 64, 64
3, 135736, Control_c, 2, 64, 60
3, 135747, Control_c, 2, 64, 44
3, 135767, Control_c, 2, 64, 28
3, 135787, Control_c, 2, 67, 80
3, 135973, Control_c, 2, 67, 88
3, 136092, Control_c, 2, 64, 44
3, 136098, Control_c, 2, 64, 60
3, 136106, Control_c, 2, 64, 64
3, 136111, Control_c, 2, 64, 68
3, 136119, Control_c, 2, 64, 72
3, 136139, Control_c, 2, 64, 76
3, 136166, Control_c, 2, 64, 80
3, 136242, Control_c, 2, 64, 76
3, 136272, Control_c, 2, 64, 72
3, 136295, Control_c, 2, 64, 68
3, 136306, Control_c, 2, 64, 64
3, 136326, Control_c, 2, 64, 60
3, 136348, Control_c, 2, 64, 44
3, 136463, Control_c, 2, 64, 60
3, 136479, Control_c, 2, 64, 64
3, 136501, Control_c, 2, 64, 68
3, 136527, Control_c, 2, 64, 72
3, 136572, Control_c, 2, 64, 76
3, 136617, Control_c, 2, 64, 80
3, 136922, Control_c, 2, 64, 76
3, 136967, Control_c, 2, 64, 72
3, 136985, Control_c, 2, 64, 68
3, 136998, Control_c, 2, 64, 64
3, 137008, Control_c, 2, 64, 60
3, 137023, Control_c, 2, 64, 44
3, 137096, Control_c, 2, 64, 60
3, 137102, Control_c, 2, 64, 64
3, 137108, Control_c, 2, 64, 68
3, 137115, Control_c, 2, 64, 72
3, 137130, Control_c, 2, 64, 76
3, 137146, Control_c, 2, 64, 80
3, 137169, Control_c, 2, 64, 84
3, 137183, Control_c, 2, 64, 88
3, 137194, Control_c, 2, 64, 92
3, 137211, Control_c, 2, 64, 100
3, 137339, Control_c, 2, 64, 92
3, 137345, Control_c, 2, 64, 88
3, 137345, Control_c, 2, 64, 84
3, 137350, Control_c, 2, 64, 80
3, 137355, Control_c, 2, 64, 76
3, 137358, Control_c, 2, 64, 72
3, 137363, Control_c, 2, 64, 68
3, 137403, Control_c, 2, 64, 72
3, 137415, Control_c, 2, 64, 76
3, 137425, Control_c, 2, 64, 80
3, 137438, Control_c, 2, 64, 84
3, 137446, Control_c, 2, 64, 88
3, 137452, Control_c, 2, 64, 92
3, 137462, Control_c, 2, 64, 100
3, 137486, Control_c, 2, 64, 112
3, 137551, Control_c, 2, 67, 80
3, 137599, Control_c, 2, 67, 72
3, 137622, Control_c, 2, 67, 64
3, 137637, Control_c, 2, 67, 56
3, 137652, Control_c, 2, 67, 48
3, 137678, Control_c, 2, 67, 40
3, 137680, Control_c, 2, 64, 100
3, 137695, Control_c, 2, 64, 92
3, 137699, Control_c, 2, 64, 88
3, 137699, Control_c, 2, 64, 84
3, 137708, Control_c, 2, 64, 80
3, 137709, Control_c, 2, 64, 76
3, 137715, Control_c, 2, 64, 72
3, 137715, Control_c, 2, 64, 68
3, 137718, Control_c, 2, 64, 64
3, 137722, Control_c, 2, 64, 60
3, 137727, Control_c, 2, 64, 44
3, 137742, Control_c, 2, 64, 28
3, 137742, Control_c, 2, 67, 32
3, 137796, Control_c, 2, 67, 24
3, 137808, Control_c, 2, 64, 44
3, 137816, Control_c, 2, 64, 60
3, 137820, Control_c, 2, 64, 64
3, 137826, Control_c, 2, 64, 68
3, 137826, Control_c, 2, 67, 16
3, 137831, Control_c, 2, 64, 72
3, 137845, Control_c, 2, 64, 76
3, 137864, Control_c, 2, 64, 80
3, 137864, Control_c, 2, 67, 8
3, 137876, Control_c, 2, 64, 84
3, 137886, Control_c, 2, 64, 88
3, 137893, Control_c, 2, 64, 92
3, 137903, Control_c, 2, 64, 100
3, 137924, Control_c, 2, 64, 112
3, 137968, Control_c, 2, 64, 127
3, 137992, Control_c, 2, 67, 0
3, 138278, Control_c, 2, 64, 112
3, 138286, Control_c, 2, 64, 100
3, 138291, Control_c, 2, 64, 92
3, 138294, Control_c, 2, 64, 88
3, 138297, Control_c, 2, 64, 84
3, 138299, Control_c, 2, 64, 80
3, 138299, Control_c, 2, 64, 76
3, 138301, Control_c, 2, 64, 72
3, 138301, Control_c, 2, 64, 68
3, 138306, Control_c, 2, 64, 64
3, 138311, Control_c, 2, 64, 60
3, 138321, Control_c, 2, 64, 44
3, 138336, Control_c, 2, 64, 28
3, 138344, Control_c, 2, 64, 12
3, 138352, Control_c, 2, 64, 0
3, 138906, Control_c, 2, 64, 12
3, 138906, Control_c, 2, 67, 8
3, 138933, Control_c, 2, 64, 28
3, 138953, Control_c, 2, 64, 44
3, 138969, Control_c, 2, 64, 60
3, 138978, Control_c, 2, 64, 64
3, 139000, Control_c, 2, 64, 68
3, 139039, Control_c, 2, 64, 72
3, 139074, Control_c, 2, 64, 76
3, 139101, Control_c, 2, 64, 80
3, 139194, Control_c, 2, 64, 84
3, 139424, Control_c, 2, 67, 16
3, 139426, Control_c, 2, 64, 80
3, 139512, Control_c, 2, 64, 76
3, 139524, Control_c, 2, 67, 24
3, 139565, Control_c, 2, 64, 72
3, 139595, Control_c, 2, 67, 32
3, 139617, Control_c, 2, 64, 68
3, 139631, Control_c, 2, 64, 64
3, 139632, Control_c, 2, 67, 40
3, 139643, Control_c, 2, 64, 60
3, 139653, Control_c, 2, 64, 44
3, 139668, Control_c, 2, 67, 48
3, 139679, Control_c, 2, 64, 28
3, 139729, Control_c, 2, 67, 56
3, 139784, Control_c, 2, 67, 64
3, 139867, Control_c, 2, 67, 72
3, 139895, Control_c, 2, 64, 12
3, 139934, Control_c, 2, 67, 80
3, 139983, Control_c, 2, 67, 88
3, 139992, Control_c, 2, 64, 0
3, 140028, Control_c, 2, 67, 96
3, 140083, Control_c, 2, 64, 12
3, 140093, Control_c, 2, 64, 28
3, 140099, Control_c, 2, 64, 44
3, 140103, Control_c, 2, 64, 60
3, 140106, Control_c, 2, 64, 64
3, 140111, Control_c, 2, 64, 68
3, 140113, Control_c, 2, 64, 72
3, 140114, Control_c, 2, 67, 104
3, 140119, Control_c, 2, 64, 76
3, 140134, Control_c, 2, 64, 80
3, 140147, Control_c, 2, 64, 84
3, 140151, Control_c, 2, 64, 88
3, 140157, Control_c, 2, 64, 92
3, 140167, Control_c, 2, 64, 100
3, 140179, Control_c, 2, 64, 112
3, 140270, Control_c, 2, 64, 100
3, 140299, Control_c, 2, 64, 92
3, 140319, Control_c, 2, 64, 88
3, 140325, Control_c, 2, 64, 84
3, 140338, Control_c, 2, 64, 80
3, 140351, Control_c, 2, 64, 76
3, 140363, Control_c, 2, 64, 72
3, 140376, Control_c, 2, 64, 68
3, 140389, Control_c, 2, 64, 64
3, 140399, Control_c, 2, 64, 60
3, 140408, Control_c, 2, 64, 44
3, 140421, Control_c, 2, 64, 28
3, 140433, Control_c, 2, 64, 12
3, 140469, Control_c, 2, 64, 0
3, 140586, Control_c, 2, 64, 12
3, 140605, Control_c, 2, 64, 28
3, 140617, Control_c, 2, 64, 44
3, 140627, Control_c, 2, 64, 60
3, 140632, Control_c, 2, 64, 64
3, 140639, Control_c, 2, 64, 68
3, 140652, Control_c, 2, 64, 72
3, 140673, Control_c, 2, 64, 76
3, 140685, Control_c, 2, 64, 80
3, 140705, Control_c, 2, 64, 84
3, 140718, Control_c, 2, 64, 88
3, 140725, Control_c, 2, 64, 92
3, 140735, Control_c, 2, 64, 100
3, 140752, Control_c, 2, 64, 112
3, 141110, Control_c, 2, 64, 100
3, 141178, Control_c, 2, 64, 92
3, 141193, Control_c, 2, 64, 88
3, 141199, Control_c, 2, 64, 84
3, 141206, Control_c, 2, 64, 80
3, 141216, Control_c, 2, 64, 76
3, 141221, Control_c, 2, 64, 72
3, 141226, Control_c, 2, 64, 68
3, 141234, Control_c, 2, 64, 64
3, 141244, Control_c, 2, 64, 60
3, 141252, Control_c, 2, 64, 44
3, 141268, Control_c, 2, 64, 28
3, 141347, Control_c, 2, 64, 44
3, 141354, Control_c, 2, 64, 60
3, 141360, Control_c, 2, 64, 64
3, 141362, Control_c, 2, 64, 68
3, 141370, Control_c, 2, 64, 72
3, 141380, Control_c, 2, 64, 76
3, 141392, Control_c, 2, 64, 80
3, 141406, Control_c, 2, 64, 84
3, 141412, Control_c, 2, 64, 88
3, 141420, Control_c, 2, 64, 92
3, 141428, Control_c, 2, 64, 100
3, 141442, Control_c, 2, 64, 112
3, 141628, Control_c, 2, 64, 100
3, 141760, Control_c, 2, 64, 92
3, 141800, Control_c, 2, 64, 88
3, 141817, Control_c, 2, 64, 84
3, 141839, Control_c, 2, 64, 80
3, 141851, Control_c, 2, 64, 76
3, 141865, Control_c, 2, 64, 72
3, 141884, Control_c, 2, 64, 68
3, 141896, Control_c, 2, 64, 64
3, 141908, Control_c, 2, 64, 60
3, 141921, Control_c, 2, 64, 44
3, 141972, Control_c, 2, 64, 28
3, 142160, Control_c, 2, 64, 44
3, 142181, Control_c, 2, 64, 60
3, 142193, Control_c, 2, 64, 64
3, 142212, Control_c, 2, 64, 68
3, 142233, Control_c, 2, 64, 72
3, 142263, Control_c, 2, 64, 76
3, 142300, Control_c, 2, 64, 80
3, 142771, Control_c, 2, 64, 76
3, 142860, Control_c, 2, 64, 72
3, 142983, Control_c, 2, 64, 76
3, 143018, Control_c, 2, 64, 80
3, 143207, Control_c, 2, 64, 76
3, 143230, Control_c, 2, 64, 72
3, 143323, Control_c, 2, 64, 76
3, 143350, Control_c, 2, 64, 80
3, 143391, Control_c, 2, 67, 96
3, 143419, Control_c, 2, 67, 88
3, 143447, Control_c, 2, 67, 80
3, 143469, Control_c, 2, 64, 76
3, 143484, Control_c, 2, 64, 72
3, 143502, Control_c, 2, 64, 68
3, 143546, Control_c, 2, 67, 88
3, 143585, Control_c, 2, 64, 72
3, 143625, Control_c, 2, 64, 76
3, 143654, Control_c, 2, 64, 80
3, 143678, Control_c, 2, 64, 84
3, 143698, Control_c, 2, 64, 88
3, 143707, Control_c, 2, 64, 92
3, 143723, Control_c, 2, 64, 100
3, 143920, Control_c, 2, 64, 92
3, 143935, Control_c, 2, 64, 88
3, 143939, Control_c, 2, 64, 84
3, 143947, Control_c, 2, 64, 80
3, 143955, Control_c, 2, 64, 76
3, 143962, Control_c, 2, 64, 72
3, 143969, Control_c, 2, 64, 68
3, 143977, Control_c, 2, 64, 64
3, 143989, Control_c, 2, 64, 60
3, 144000, Control_c, 2, 64, 44
3, 144018, Control_c, 2, 64, 28
3, 144032, Control_c, 2, 64, 12
3, 144161, Control_c, 2, 64, 28
3, 144168, Control_c, 2, 64, 44
3, 144176, Control_c, 2, 64, 60
3, 144183, Control_c, 2, 64, 64
3, 144186, Control_c, 2, 64, 68
3, 144192, Control_c, 2, 64, 72
3, 144229, Control_c, 2, 64, 76
3, 144232, Control_c, 2, 67, 80
3, 144259, Control_c, 2, 64, 80
3, 144285, Control_c, 2, 67, 72
3, 144302, Control_c, 2, 67, 64
3, 144312, Control_c, 2, 67, 56
3, 144323, Control_c, 2, 67, 48
3, 144335, Control_c, 2, 64, 84
3, 144358, Control_c, 2, 67, 40
3, 144443, Control_c, 2, 67, 48
3, 144552, Control_c, 2, 64, 80
3, 144567, Control_c, 2, 64, 76
3, 144582, Control_c, 2, 64, 72
3, 144587, Control_c, 2, 67, 56
3, 144624, Control_c, 2, 64, 76
3, 144649, Control_c, 2, 64, 80
3, 144695, Control_c, 2, 64, 84
3, 144745, Control_c, 2, 67, 64
3, 144771, Control_c, 2, 64, 80
3, 144859, Control_c, 2, 64, 76
3, 144871, Control_c, 2, 64, 72
3, 144879, Control_c, 2, 64, 68
3, 144884, Control_c, 2, 64, 64
3, 144894, Control_c, 2, 64, 60
3, 144898, Control_c, 2, 64, 44
3, 144916, Control_c, 2, 64, 28
3, 144977, Control_c, 2, 64, 44
3, 144984, Control_c, 2, 64, 60
3, 144989, Control_c, 2, 64, 64
3, 144992, Control_c, 2, 64, 68
3, 144997, Control_c, 2, 64, 72
3, 145007, Control_c, 2, 64, 76
3, 145030, Control_c, 2, 64, 80
3, 145055, Control_c, 2, 64, 84
3, 145094, Control_c, 2, 64, 88
3, 145152, Control_c, 2, 64, 84
3, 145164, Control_c, 2, 64, 80
3, 145171, Control_c, 2, 64, 76
3, 145175, Control_c, 2, 64, 72
3, 145184, Control_c, 2, 64, 68
3, 145226, Control_c, 2, 64, 72
3, 145244, Control_c, 2, 64, 76
3, 145259, Control_c, 2, 64, 80
3, 145295, Control_c, 2, 64, 84
3, 145314, Control_c, 2, 64, 88
3, 145324, Control_c, 2, 64, 92
3, 145340, Control_c, 2, 64, 100
3, 145365, Control_c, 2, 64, 112
3, 145392, Control_c, 2, 67, 56
3, 145422, Control_c, 2, 64, 127
3, 145508, Control_c, 2, 64, 112
3, 145515, Control_c, 2, 64, 100
3, 145521, Control_c, 2, 64, 92
3, 145524, Control_c, 2, 64, 88
3, 145524, Control_c, 2, 64, 84
3, 145526, Control_c, 2, 64, 80
3, 145527, Control_c, 2, 64, 76
3, 145530, Control_c, 2, 64, 72
3, 145530, Control_c, 2, 64, 68
3, 145533, Control_c, 2, 64, 64
3, 145537, Control_c, 2, 64, 60
3, 145566, Control_c, 2, 67, 48
3, 145578, Control_c, 2, 64, 64
3, 145585, Control_c, 2, 64, 68
3, 145590, Control_c, 2, 64, 72
3, 145596, Control_c, 2, 64, 76
3, 145608, Control_c, 2, 64, 80
3, 145614, Control_c, 2, 64, 84
3, 145618, Control_c, 2, 64, 88
3, 145624, Control_c, 2, 64, 92
3, 145632, Control_c, 2, 64, 100
3, 145639, Control_c, 2, 64, 112
3, 145644, Control_c, 2, 64, 127
3, 145656, Control_c, 2, 67, 40
3, 145741, Control_c, 2, 67, 32
3, 145820, Control_c, 2, 64, 112
3, 145828, Control_c, 2, 64, 100
3, 145832, Control_c, 2, 64, 92
3, 145832, Control_c, 2, 64, 88
3, 145833, Control_c, 2, 64, 84
3, 145838, Control_c, 2, 64, 80
3, 145838, Control_c, 2, 64, 76
3, 145838, Control_c, 2, 64, 72
3, 145839, Control_c, 2, 64, 68
3, 145841, Control_c, 2, 64, 64
3, 145841, Control_c, 2, 64, 60
3, 145843, Control_c, 2, 64, 44
3, 145856, Control_c, 2, 64, 28
3, 145867, Control_c, 2, 67, 24
3, 145880, Control_c, 2, 64, 44
3, 145886, Control_c, 2, 64, 60
3, 145887, Control_c, 2, 64, 64
3, 145890, Control_c, 2, 64, 68
3, 145895, Control_c, 2, 64, 72
3, 145897, Control_c, 2, 64, 76
3, 145900, Control_c, 2, 64, 80
3, 145903, Control_c, 2, 67, 16
3, 145906, Control_c, 2, 64, 84
3, 145910, Control_c, 2, 64, 88
3, 145910, Control_c, 2, 64, 92
3, 145919, Control_c, 2, 64, 100
3, 145926, Control_c, 2, 64, 112
3, 145927, Control_c, 2, 67, 8
3, 145930, Control_c, 2, 64, 127
3, 146028, Control_c, 2, 67, 0
3, 146041, Control_c, 2, 64, 112
3, 146047, Control_c, 2, 64, 100
3, 146053, Control_c, 2, 64, 92
3, 146056, Control_c, 2, 64, 84
3, 146061, Control_c, 2, 64, 80
3, 146100, Control_c, 2, 64, 84
3, 146130, Control_c, 2, 64, 80
3, 146134, Control_c, 2, 64, 76
3, 146137, Control_c, 2, 64, 72
3, 146143, Control_c, 2, 64, 68
3, 146148, Control_c, 2, 64, 64
3, 146150, Control_c, 2, 64, 60
3, 146150, Control_c, 2, 64, 44
3, 146158, Control_c, 2, 64, 28
3, 146163, Control_c, 2, 64, 12
3, 146168, Control_c, 2, 64, 0
3, 146215, Control_c, 2, 64, 12
3, 146220, Control_c, 2, 64, 28
3, 146223, Control_c, 2, 64, 44
3, 146227, Control_c, 2, 64, 60
3, 146227, Control_c, 2, 64, 68
3, 146231, Control_c, 2, 64, 72
3, 146233, Control_c, 2, 64, 76
3, 146233, Control_c, 2, 64, 80
3, 146236, Control_c, 2, 64, 88
3, 146237, Control_c, 2, 64, 92
3, 146243, Control_c, 2, 64, 100
3, 146251, Control_c, 2, 64, 112
3, 146253, Control_c, 2, 64, 127
3, 146467, Control_c, 2, 64, 112
3, 146472, Control_c, 2, 64, 100
3, 146473, Control_c, 2, 64, 92
3, 146478, Control_c, 2, 64, 88
3, 146478, Control_c, 2, 64, 80
3, 146480, Control_c, 2, 64, 76
3, 146483, Control_c, 2, 64, 68
3, 146483, Control_c, 2, 64, 60
3, 146485, Control_c, 2, 64, 44
3, 146485, Control_c, 2, 64, 28
3, 146490, Control_c, 2, 64, 12
3, 146490, Control_c, 2, 64, 0
3, 146534, Control_c, 2, 64, 12
3, 146543, Control_c, 2, 64, 28
3, 146544, Control_c, 2, 64, 44
3, 146547, Control_c, 2, 64, 60
3, 146550, Control_c, 2, 64, 64
3, 146550, Control_c, 2, 64, 68
3, 146553, Control_c, 2, 64, 72
3, 146555, Control_c, 2, 64, 76
3, 146557, Control_c, 2, 64, 80
3, 146557, Control_c, 2, 64, 84
3, 146560, Control_c, 2, 64, 88
3, 146565, Control_c, 2, 64, 92
3, 146567, Control_c, 2, 64, 100
3, 146576, Control_c, 2, 64, 112
3, 146580, Control_c, 2, 64, 127
3, 146668, Control_c, 2, 64, 112
3, 146674, Control_c, 2, 64, 100
3, 146686, Control_c, 2, 64, 92
3, 146694, Control_c, 2, 64, 100
3, 146704, Control_c, 2, 64, 112
3, 146709, Control_c, 2, 64, 127
3, 146845, Control_c, 2, 64, 112
3, 146849, Control_c, 2, 64, 100
3, 146852, Control_c, 2, 64, 92
3, 146860, Control_c, 2, 64, 84
3, 146861, Control_c, 2, 64, 80
3, 146862, Control_c, 2, 64, 76
3, 146865, Control_c, 2, 64, 72
3, 146866, Control_c, 2, 64, 68
3, 146867, Control_c, 2, 64, 64
3, 146869, Control_c, 2, 64, 60
3, 146871, Control_c, 2, 64, 44
3, 146878, Control_c, 2, 64, 28
3, 146884, Control_c, 2, 64, 12
3, 146919, Control_c, 2, 64, 28
3, 146928, Control_c, 2, 64, 44
3, 146932, Control_c, 2, 64, 60
3, 146935, Control_c, 2, 64, 64
3, 146938, Control_c, 2, 64, 68
3, 146940, Control_c, 2, 64, 72
3, 146942, Control_c, 2, 64, 76
3, 146950, Control_c, 2, 64, 80
3, 146973, Control_c, 2, 64, 84
3, 146986, Control_c, 2, 64, 88
3, 146993, Control_c, 2, 64, 92
3, 147003, Control_c, 2, 64, 100
3, 147021, Control_c, 2, 64, 112
3, 147036, Control_c, 2, 64, 127
3, 147258, Control_c, 2, 64, 112
3, 147262, Control_c, 2, 64, 100
3, 147265, Control_c, 2, 64, 92
3, 147267, Control_c, 2, 64, 88
3, 147269, Control_c, 2, 64, 84
3, 147272, Control_c, 2, 64, 80
3, 147272, Control_c, 2, 64, 76
3, 147275, Control_c, 2, 64, 72
3, 147278, Control_c, 2, 64, 68
3, 147283, Control_c, 2, 64, 64
3, 147303, Control_c, 2, 64, 68
3, 147315, Control_c, 2, 64, 72
3, 147323, Control_c, 2, 64, 76
3, 147332, Control_c, 2, 64, 80
3, 147341, Control_c, 2, 64, 84
3, 147348, Control_c, 2, 64, 88
3, 147352, Control_c, 2, 64, 92
3, 147358, Control_c, 2, 64, 100
3, 147371, Control_c, 2, 64, 112
3, 147375, Control_c, 2, 64, 127
3, 147536, Control_c, 2, 67, 8
3, 147658, Control_c, 2, 64, 112
3, 147663, Control_c, 2, 67, 16
3, 147691, Control_c, 2, 64, 100
3, 147702, Control_c, 2, 64, 92
3, 147708, Control_c, 2, 64, 88
3, 147708, Control_c, 2, 64, 84
3, 147714, Control_c, 2, 64, 80
3, 147715, Control_c, 2, 64, 76
3, 147720, Control_c, 2, 64, 72
3, 147729, Control_c, 2, 64, 68
3, 147736, Control_c, 2, 64, 64
3, 147748, Control_c, 2, 64, 60
3, 147758, Control_c, 2, 64, 44
3, 147769, Control_c, 2, 64, 28
3, 147784, Control_c, 2, 64, 12
3, 147811, Control_c, 2, 64, 0
3, 147922, Control_c, 2, 64, 12
3, 147936, Control_c, 2, 64, 28
3, 147942, Control_c, 2, 67, 24
3, 147950, Control_c, 2, 64, 44
3, 147958, Control_c, 2, 64, 60
3, 147959, Control_c, 2, 64, 64
3, 147965, Control_c, 2, 64, 68
3, 147969, Control_c, 2, 64, 72
3, 147990, Control_c, 2, 64, 76
3, 148005, Control_c, 2, 64, 80
3, 148020, Control_c, 2, 64, 84
3, 148028, Control_c, 2, 64, 88
3, 148035, Control_c, 2, 64, 92
3, 148043, Control_c, 2, 64, 100
3, 148045, Control_c, 2, 67, 32
3, 148058, Control_c, 2, 64, 112
3, 148068, Control_c, 2, 64, 127
3, 148101, Control_c, 2, 67, 40
3, 148189, Control_c, 2, 67, 48
3, 148297, Control_c, 2, 67, 56
3, 148388, Control_c, 2, 67, 64
3, 148494, Control_c, 2, 67, 72
3, 148624, Control_c, 2, 64, 112
3, 148668, Control_c, 2, 64, 100
3, 148681, Control_c, 2, 64, 92
3, 148687, Control_c, 2, 64, 88
3, 148691, Control_c, 2, 64, 84
3, 148695, Control_c, 2, 64, 80
3, 148697, Control_c, 2, 64, 76
3, 148702, Control_c, 2, 64, 72
3, 148705, Control_c, 2, 64, 68
3, 148717, Control_c, 2, 64, 64
3, 148740, Control_c, 2, 67, 80
3, 148764, Control_c, 2, 64, 60
3, 148884, Control_c, 2, 67, 88
3, 149007, Control_c, 2, 67, 96
3, 149084, Control_c, 2, 64, 64
3, 149094, Control_c, 2, 64, 68
3, 149104, Control_c, 2, 64, 72
3, 149114, Control_c, 2, 64, 76
3, 149128, Control_c, 2, 64, 80
3, 149148, Control_c, 2, 64, 84
3, 149166, Control_c, 2, 64, 88
3, 149177, Control_c, 2, 64, 92
3, 149233, Control_c, 2, 67, 104
3, 149324, Control_c, 2, 67, 112
3, 149325, Control_c, 2, 64, 88
3, 149337, Control_c, 2, 64, 84
3, 149360, Control_c, 2, 64, 80
3, 149374, Control_c, 2, 64, 76
3, 149389, Control_c, 2, 64, 72
3, 149402, Control_c, 2, 64, 68
3, 149412, Control_c, 2, 64, 64
3, 149427, Control_c, 2, 64, 60
3, 149440, Control_c, 2, 64, 44
3, 149460, Control_c, 2, 64, 28
3, 149513, Control_c, 2, 64, 12
3, 149648, Control_c, 2, 64, 28
3, 149669, Control_c, 2, 64, 44
3, 149679, Control_c, 2, 64, 60
3, 149684, Control_c, 2, 64, 64
3, 149692, Control_c, 2, 64, 68
3, 149709, Control_c, 2, 64, 72
3, 149732, Control_c, 2, 64, 76
3, 149755, Control_c, 2, 64, 80
3, 149786, Control_c, 2, 64, 84
3, 149877, Control_c, 2, 64, 88
3, 149897, Control_c, 2, 64, 92
3, 149913, Control_c, 2, 64, 100
3, 149936, Control_c, 2, 64, 112
3, 150129, Control_c, 2, 64, 100
3, 150276, Control_c, 2, 64, 92
3, 150427, Control_c, 2, 64, 88
3, 150628, Control_c, 2, 64, 60
3, 150796, Control_c, 2, 64, 64
3, 150817, Control_c, 2, 64, 68
3, 150845, Control_c, 2, 64, 72
3, 150875, Control_c, 2, 64, 76
3, 150905, Control_c, 2, 64, 80
3, 150933, Control_c, 2, 64, 84
3, 150949, Control_c, 2, 64, 88
3, 150958, Control_c, 2, 64, 92
3, 150972, Control_c, 2, 64, 100
3, 150998, Control_c, 2, 64, 112
3, 151826, Control_c, 2, 64, 100
3, 151864, Control_c, 2, 64, 92
3, 151876, Control_c, 2, 64, 88
3, 151877, Control_c, 2, 64, 84
3, 151887, Control_c, 2, 64, 80
3, 151891, Control_c, 2, 64, 76
3, 151896, Control_c, 2, 64, 72
3, 151902, Control_c, 2, 64, 68
3, 151919, Control_c, 2, 64, 64
3, 152005, Control_c, 2, 64, 68
3, 152028, Control_c, 2, 64, 72
3, 152054, Control_c, 2, 64, 76
3, 152092, Control_c, 2, 64, 80
3, 152145, Control_c, 2, 64, 84
3, 152178, Control_c, 2, 64, 88
3, 152254, Control_c, 2, 64, 92
3, 152486, Control_c, 2, 64, 100
3, 152906, Control_c, 2, 64, 92
3, 152908, Control_c, 2, 64, 88
3, 152911, Control_c, 2, 64, 84
3, 152916, Control_c, 2, 64, 80
3, 152920, Control_c, 2, 64, 76
3, 152985, Control_c, 2, 64, 80
3, 153003, Control_c, 2, 64, 84
3, 153021, Control_c, 2, 64, 88
3, 153029, Control_c, 2, 64, 92
3, 153049, Control_c, 2, 64, 100
3, 153210, Control_c, 2, 64, 92
3, 153216, Control_c, 2, 64, 88
3, 153218, Control_c, 2, 64, 84
3, 153223, Control_c, 2, 64, 80
3, 153226, Control_c, 2, 64, 76
3, 153230, Control_c, 2, 64, 72
3, 153233, Control_c, 2, 64, 68
3, 153243, Control_c, 2, 64, 64
3, 153286, Control_c, 2, 64, 68
3, 153296, Control_c, 2, 64, 72
3, 153309, Control_c, 2, 64, 76
3, 153316, Control_c, 2, 64, 80
3, 153329, Control_c, 2, 64, 84
3, 153336, Control_c, 2, 64, 88
3, 153342, Control_c, 2, 64, 92
3, 153346, Control_c, 2, 64, 100
3, 153361, Control_c, 2, 64, 112
3, 153373, Control_c, 2, 64, 127
3, 153530, Control_c, 2, 64, 112
3, 153543, Control_c, 2, 64, 100
3, 153550, Control_c, 2, 64, 92
3, 153553, Control_c, 2, 64, 88
3, 153555, Control_c, 2, 64, 84
3, 153557, Control_c, 2, 64, 80
3, 153557, Control_c, 2, 64, 76
3, 153566, Control_c, 2, 64, 72
3, 153603, Control_c, 2, 64, 76
3, 153624, Control_c, 2, 64, 80
3, 153639, Control_c, 2, 64, 84
3, 153649, Control_c, 2, 64, 88
3, 153659, Control_c, 2, 64, 92
3, 153676, Control_c, 2, 64, 100
3, 153911, Control_c, 2, 64, 92
3, 153919, Control_c, 2, 64, 88
3, 153923, Control_c, 2, 64, 84
3, 153930, Control_c, 2, 64, 80
3, 153936, Control_c, 2, 64, 76
3, 153939, Control_c, 2, 64, 72
3, 153943, Control_c, 2, 64, 68
3, 153948, Control_c, 2, 64, 64
3, 153961, Control_c, 2, 64, 60
3, 153981, Control_c, 2, 64, 44
3, 154001, Control_c, 2, 64, 28
3, 154089, Control_c, 2, 64, 44
3, 154099, Control_c, 2, 64, 60
3, 154104, Control_c, 2, 64, 64
3, 154112, Control_c, 2, 64, 68
3, 154119, Control_c, 2, 64, 72
3, 154132, Control_c, 2, 64, 76
3, 154146, Control_c, 2, 64, 80
3, 154170, Control_c, 2, 64, 84
3, 154182, Control_c, 2, 64, 88
3, 154197, Control_c, 2, 64, 92
3, 154325, Control_c, 2, 64, 100
3, 154895, Control_c, 2, 64, 92
3, 154899, Control_c, 2, 64, 88
3, 154902, Control_c, 2, 64, 84
3, 154906, Control_c, 2, 64, 80
3, 154909, Control_c, 2, 64, 76
3, 154914, Control_c, 2, 64, 72
3, 154937, Control_c, 2, 64, 68
3, 154957, Control_c, 2, 64, 72
3, 154972, Control_c, 2, 64, 76
3, 154985, Control_c, 2, 64, 80
3, 155000, Control_c, 2, 64, 84
3, 155012, Control_c, 2, 64, 88
3, 155020, Control_c, 2, 64, 92
3, 155031, Control_c, 2, 64, 100
3, 155045, Control_c, 2, 64, 112
3, 155065, Control_c, 2, 64, 127
3, 156088, Control_c, 2, 64, 112
3, 156115, Control_c, 2, 64, 100
3, 156126, Control_c, 2, 64, 92
3, 156130, Control_c, 2, 64, 88
3, 156133, Control_c, 2, 64, 84
3, 156136, Control_c, 2, 64, 80
3, 156141, Control_c, 2, 64, 76
3, 156143, Control_c, 2, 64, 72
3, 156147, Control_c, 2, 64, 68
3, 156155, Control_c, 2, 64, 64
3, 156240, Control_c, 2, 64, 68
3, 156261, Control_c, 2, 64, 72
3, 156284, Control_c, 2, 64, 76
3, 156316, Control_c, 2, 64, 80
3, 156370, Control_c, 2, 64, 84
3, 156392, Control_c, 2, 64, 88
3, 156409, Control_c, 2, 64, 92
3, 156440, Control_c, 2, 64, 100
3, 157267, Control_c, 2, 64, 92
3, 157270, Control_c, 2, 64, 88
3, 157272, Control_c, 2, 64, 84
3, 157279, Control_c, 2, 64, 80
3, 157281, Control_c, 2, 64, 76
3, 157288, Control_c, 2, 64, 72
3, 157319, Control_c, 2, 64, 76
3, 157336, Control_c, 2, 64, 80
3, 157349, Control_c, 2, 64, 84
3, 157361, Control_c, 2, 64, 88
3, 157369, Control_c, 2, 64, 92
3, 157384, Control_c, 2, 64, 100
3, 157429, Control_c, 2, 64, 112
3, 157628, Control_c, 2, 64, 100
3, 157641, Control_c, 2, 64, 92
3, 157647, Control_c, 2, 64, 88
3, 157647, Control_c, 2, 64, 84
3, 157648, Control_c, 2, 64, 80
3, 157651, Control_c, 2, 64, 76
3, 157656, Control_c, 2, 64, 72
3, 157658, Control_c, 2, 64, 68
3, 157660, Control_c, 2, 64, 64
3, 157693, Control_c, 2, 64, 60
3, 157701, Control_c, 2, 64, 64
3, 157711, Control_c, 2, 64, 68
3, 157718, Control_c, 2, 64, 72
3, 157726, Control_c, 2, 64, 76
3, 157736, Control_c, 2, 64, 80
3, 157752, Control_c, 2, 64, 84
3, 157759, Control_c, 2, 64, 88
3, 157767, Control_c, 2, 64, 92
3, 157776, Control_c, 2, 64, 100
3, 157796, Control_c, 2, 64, 112
3, 158055, Control_c, 2, 64, 100
3, 158083, Control_c, 2, 64, 92
3, 158093, Control_c, 2, 64, 88
3, 158099, Control_c, 2, 64, 84
3, 158105, Control_c, 2, 64, 80
3, 158109, Control_c, 2, 64, 76
3, 158114, Control_c, 2, 64, 72
3, 158119, Control_c, 2, 64, 68
3, 158184, Control_c, 2, 64, 72
3, 158199, Control_c, 2, 64, 76
3, 158215, Control_c, 2, 64, 80
3, 158233, Control_c, 2, 64, 84
3, 158245, Control_c, 2, 64, 88
3, 158255, Control_c, 2, 64, 92
3, 158268, Control_c, 2, 64, 100
3, 158288, Control_c, 2, 64, 112
3, 158834, Control_c, 2, 64, 100
3, 158874, Control_c, 2, 64, 92
3, 158887, Control_c, 2, 64, 88
3, 158890, Control_c, 2, 64, 84
3, 158897, Control_c, 2, 64, 80
3, 158904, Control_c, 2, 64, 76
3, 158910, Control_c, 2, 64, 72
3, 158921, Control_c, 2, 64, 68
3, 158939, Control_c, 2, 64, 64
3, 158965, Control_c, 2, 64, 60
3, 159012, Control_c, 2, 64, 44
3, 159123, Control_c, 2, 64, 60
3, 159145, Control_c, 2, 64, 64
3, 159170, Control_c, 2, 64, 68
3, 159199, Control_c, 2, 64, 72
3, 159237, Control_c, 2, 64, 76
3, 159267, Control_c, 2, 64, 80
3, 159297, Control_c, 2, 64, 84
3, 159315, Control_c, 2, 64, 88
3, 159327, Control_c, 2, 64, 92
3, 159348, Control_c, 2, 64, 100
3, 159403, Control_c, 2, 64, 112
3, 159732, Control_c, 2, 64, 100
3, 159860, Control_c, 2, 64, 92
3, 159921, Control_c, 2, 64, 88
3, 159939, Control_c, 2, 64, 84
3, 160024, Control_c, 2, 64, 80
3, 160115, Control_c, 2, 64, 76
3, 160264, Control_c, 2, 64, 72
3, 160374, Control_c, 2, 64, 68
3, 160696, Control_c, 2, 64, 72
3, 160735, Control_c, 2, 64, 76
3, 160764, Control_c, 2, 64, 80
3, 160812, Control_c, 2, 64, 84
3, 160877, Control_c, 2, 64, 88
3, 161003, Control_c, 2, 64, 92
3, 161046, Control_c, 2, 64, 100
3, 161502, Control_c, 2, 64, 92
3, 161512, Control_c, 2, 64, 88
3, 161515, Control_c, 2, 64, 84
3, 161523, Control_c, 2, 64, 80
3, 161527, Control_c, 2, 64, 76
3, 161529, Control_c, 2, 64, 72
3, 161538, Control_c, 2, 64, 68
3, 161580, Control_c, 2, 64, 72
3, 161595, Control_c, 2, 64, 76
3, 161610, Control_c, 2, 64, 80
3, 161636, Control_c, 2, 64, 84
3, 161658, Control_c, 2, 64, 88
3, 161756, Control_c, 2, 64, 84
3, 161777, Control_c, 2, 64, 80
3, 161788, Control_c, 2, 64, 76
3, 161798, Control_c, 2, 64, 72
3, 161808, Control_c, 2, 64, 68
3, 161821, Control_c, 2, 64, 64
3, 161842, Control_c, 2, 64, 60
3, 161864, Control_c, 2, 64, 44
3, 161912, Control_c, 2, 64, 28
3, 162084, Control_c, 2, 64, 12
3, 162182, Control_c, 2, 64, 0
3, 162272, Control_c, 2, 64, 12
3, 162282, Control_c, 2, 64, 28
3, 162290, Control_c, 2, 64, 44
3, 162294, Control_c, 2, 64, 60
3, 162297, Control_c, 2, 64, 64
3, 162300, Control_c, 2, 64, 68
3, 162304, Control_c, 2, 64, 72
3, 162320, Control_c, 2, 64, 76
3, 162340, Control_c, 2, 64, 80
3, 162356, Control_c, 2, 64, 84
3, 162371, Control_c, 2, 64, 88
3, 162378, Control_c, 2, 64, 92
3, 162391, Control_c, 2, 64, 100
3, 162413, Control_c, 2, 64, 112
3, 162662, Control_c, 2, 64, 100
3, 162756, Control_c, 2, 64, 92
3, 162773, Control_c, 2, 64, 88
3, 162778, Control_c, 2, 64, 84
3, 162792, Control_c, 2, 64, 80
3, 162800, Control_c, 2, 64, 76
3, 162818, Control_c, 2, 64, 72
3, 162827, Control_c, 2, 64, 68
3, 162836, Control_c, 2, 64, 64
3, 162843, Control_c, 2, 64, 60
3, 162851, Control_c, 2, 64, 44
3, 162869, Control_c, 2, 64, 28
3, 162881, Control_c, 2, 64, 12
3, 162967, Control_c, 2, 64, 28
3, 162977, Control_c, 2, 64, 44
3, 162987, Control_c, 2, 64, 60
3, 162992, Control_c, 2, 64, 64
3, 162997, Control_c, 2, 64, 68
3, 163008, Control_c, 2, 64, 72
3, 163032, Control_c, 2, 64, 76
3, 163063, Control_c, 2, 64, 80
3, 163131, Control_c, 2, 64, 76
3, 163139, Control_c, 2, 64, 72
3, 163146, Control_c, 2, 64, 68
3, 163153, Control_c, 2, 64, 64
3, 163160, Control_c, 2, 64, 60
3, 163174, Control_c, 2, 64, 44
3, 163216, Control_c, 2, 64, 60
3, 163221, Control_c, 2, 64, 64
3, 163226, Control_c, 2, 64, 68
3, 163232, Control_c, 2, 64, 72
3, 163236, Control_c, 2, 64, 76
3, 163249, Control_c, 2, 64, 80
3, 163263, Control_c, 2, 64, 84
3, 163273, Control_c, 2, 64, 88
3, 163279, Control_c, 2, 64, 92
3, 163289, Control_c, 2, 64, 100
3, 163309, Control_c, 2, 64, 112
3, 163440, Control_c, 2, 64, 100
3, 163486, Control_c, 2, 64, 92
3, 163499, Control_c, 2, 64, 88
3, 163500, Control_c, 2, 64, 84
3, 163509, Control_c, 2, 64, 80
3, 163516, Control_c, 2, 64, 76
3, 163524, Control_c, 2, 64, 72
3, 163530, Control_c, 2, 64, 68
3, 163540, Control_c, 2, 64, 64
3, 163556, Control_c, 2, 64, 60
3, 163564, Control_c, 2, 64, 44
3, 163579, Control_c, 2, 64, 28
3, 163592, Control_c, 2, 64, 12
3, 163722, Control_c, 2, 64, 28
3, 163742, Control_c, 2, 64, 44
3, 163752, Control_c, 2, 64, 60
3, 163757, Control_c, 2, 64, 64
3, 163764, Control_c, 2, 64, 68
3, 163776, Control_c, 2, 64, 72
3, 163803, Control_c, 2, 64, 76
3, 163823, Control_c, 2, 64, 80
3, 163859, Control_c, 2, 64, 84
3, 164241, Control_c, 2, 64, 80
3, 164259, Control_c, 2, 64, 76
3, 164266, Control_c, 2, 64, 72
3, 164273, Control_c, 2, 64, 68
3, 164280, Control_c, 2, 64, 64
3, 164291, Control_c, 2, 64, 60
3, 164346, Control_c, 2, 64, 64
3, 164353, Control_c, 2, 64, 68
3, 164362, Control_c, 2, 64, 72
3, 164372, Control_c, 2, 64, 76
3, 164384, Control_c, 2, 64, 80
3, 164400, Control_c, 2, 64, 84
3, 164410, Control_c, 2, 64, 88
3, 164416, Control_c, 2, 64, 92
3, 164426, Control_c, 2, 64, 100
3, 164440, Control_c, 2, 64, 112
3, 164459, Control_c, 2, 64, 127
3, 164585, Control_c, 2, 64, 112
3, 164596, Control_c, 2, 67, 104
3, 164600, Control_c, 2, 64, 100
3, 164608, Control_c, 2, 64, 92
3, 164610, Control_c, 2, 64, 88
3, 164610, Control_c, 2, 64, 84
3, 164616, Control_c, 2, 64, 80
3, 164618, Control_c, 2, 64, 76
3, 164618, Control_c, 2, 64, 72
3, 164626, Control_c, 2, 64, 68
3, 164629, Control_c, 2, 64, 64
3, 164681, Control_c, 2, 64, 68
3, 164686, Control_c, 2, 67, 96
3, 164688, Control_c, 2, 64, 72
3, 164696, Control_c, 2, 64, 76
3, 164703, Control_c, 2, 64, 80
3, 164719, Control_c, 2, 64, 84
3, 164735, Control_c, 2, 64, 88
3, 164736, Control_c, 2, 67, 88
3, 164739, Control_c, 2, 64, 92
3, 164748, Control_c, 2, 64, 100
3, 164764, Control_c, 2, 64, 112
3, 164772, Control_c, 2, 67, 80
3, 164799, Control_c, 2, 67, 72
3, 164819, Control_c, 2, 64, 127
3, 164819, Control_c, 2, 67, 64
3, 164832, Control_c, 2, 67, 56
3, 164849, Control_c, 2, 67, 48
3, 164920, Control_c, 2, 64, 112
3, 164926, Control_c, 2, 67, 40
3, 164930, Control_c, 2, 64, 100
3, 164939, Control_c, 2, 64, 92
3, 164940, Control_c, 2, 64, 84
3, 164948, Control_c, 2, 64, 80
3, 164948, Control_c, 2, 64, 76
3, 164952, Control_c, 2, 64, 72
3, 164956, Control_c, 2, 64, 68
3, 164971, Control_c, 2, 67, 32
3, 165004, Control_c, 2, 64, 72
3, 165011, Control_c, 2, 67, 24
3, 165015, Control_c, 2, 64, 76
3, 165024, Control_c, 2, 64, 80
3, 165034, Control_c, 2, 64, 84
3, 165041, Control_c, 2, 64, 88
3, 165041, Control_c, 2, 67, 16
3, 165049, Control_c, 2, 64, 92
3, 165059, Control_c, 2, 64, 100
3, 165069, Control_c, 2, 64, 112
3, 165076, Control_c, 2, 64, 127
3, 165092, Control_c, 2, 67, 8
3, 165230, Control_c, 2, 64, 112
3, 165235, Control_c, 2, 64, 100
3, 165241, Control_c, 2, 64, 92
3, 165242, Control_c, 2, 64, 84
3, 165246, Control_c, 2, 64, 80
3, 165248, Control_c, 2, 64, 76
3, 165248, Control_c, 2, 64, 72
3, 165250, Control_c, 2, 64, 68
3, 165253, Control_c, 2, 64, 64
3, 165256, Control_c, 2, 64, 60
3, 165262, Control_c, 2, 64, 44
3, 165300, Control_c, 2, 64, 60
3, 165305, Control_c, 2, 64, 64
3, 165311, Control_c, 2, 64, 68
3, 165318, Control_c, 2, 64, 72
3, 165325, Control_c, 2, 64, 76
3, 165338, Control_c, 2, 64, 80
3, 165351, Control_c, 2, 64, 84
3, 165356, Control_c, 2, 64, 88
3, 165361, Control_c, 2, 64, 92
3, 165368, Control_c, 2, 64, 100
3, 165376, Control_c, 2, 64, 112
3, 165383, Control_c, 2, 64, 127
3, 165444, Control_c, 2, 67, 16
3, 165544, Control_c, 2, 64, 112
3, 165552, Control_c, 2, 64, 100
3, 165557, Control_c, 2, 64, 92
3, 165560, Control_c, 2, 64, 88
3, 165562, Control_c, 2, 64, 84
3, 165563, Control_c, 2, 64, 80
3, 165565, Control_c, 2, 64, 76
3, 165568, Control_c, 2, 64, 72
3, 165568, Control_c, 2, 64, 68
3, 165569, Control_c, 2, 64, 64
3, 165573, Control_c, 2, 64, 60
3, 165577, Control_c, 2, 64, 44
3, 165628, Control_c, 2, 64, 60
3, 165633, Control_c, 2, 64, 64
3, 165635, Control_c, 2, 67, 24
3, 165638, Control_c, 2, 64, 68
3, 165640, Control_c, 2, 64, 72
3, 165648, Control_c, 2, 64, 76
3, 165658, Control_c, 2, 64, 80
3, 165671, Control_c, 2, 64, 84
3, 165678, Control_c, 2, 64, 88
3, 165686, Control_c, 2, 64, 92
3, 165693, Control_c, 2, 64, 100
3, 165711, Control_c, 2, 64, 112
3, 165758, Control_c, 2, 64, 127
3, 165796, Control_c, 2, 67, 32
3, 165842, Control_c, 2, 67, 40
3, 165881, Control_c, 2, 67, 48
3, 165933, Control_c, 2, 67, 56
3, 166134, Control_c, 2, 67, 64
3, 166138, Control_c, 2, 64, 112
3, 166169, Control_c, 2, 64, 100
3, 166184, Control_c, 2, 64, 92
3, 166191, Control_c, 2, 64, 88
3, 166197, Control_c, 2, 64, 84
3, 166199, Control_c, 2, 67, 72
3, 166202, Control_c, 2, 64, 80
3, 166207, Control_c, 2, 64, 76
3, 166214, Control_c, 2, 64, 72
3, 166221, Control_c, 2, 64, 68
3, 166229, Control_c, 2, 64, 64
3, 166235, Control_c, 2, 67, 80
3, 166240, Control_c, 2, 64, 60
3, 166248, Control_c, 2, 64, 44
3, 166257, Control_c, 2, 64, 28
3, 166264, Control_c, 2, 64, 12
3, 166273, Control_c, 2, 67, 88
3, 166274, Control_c, 2, 64, 0
3, 166300, Control_c, 2, 67, 96
3, 166370, Control_c, 2, 64, 12
3, 166371, Control_c, 2, 67, 104
3, 166380, Control_c, 2, 64, 28
3, 166387, Control_c, 2, 64, 44
3, 166393, Control_c, 2, 64, 60
3, 166395, Control_c, 2, 64, 64
3, 166397, Control_c, 2, 64, 68
3, 166403, Control_c, 2, 64, 72
3, 166407, Control_c, 2, 64, 76
3, 166416, Control_c, 2, 67, 112
3, 166435, Control_c, 2, 64, 80
3, 166458, Control_c, 2, 64, 84
3, 166476, Control_c, 2, 64, 88
3, 166624, Control_c, 2, 64, 84
3, 166653, Control_c, 2, 64, 80
3, 166673, Control_c, 2, 64, 76
3, 166692, Control_c, 2, 64, 72
3, 166698, Control_c, 2, 64, 68
3, 166707, Control_c, 2, 64, 64
3, 166720, Control_c, 2, 64, 60
3, 166735, Control_c, 2, 64, 44
3, 166783, Control_c, 2, 64, 60
3, 166791, Control_c, 2, 64, 64
3, 166793, Control_c, 2, 64, 68
3, 166800, Control_c, 2, 64, 72
3, 166816, Control_c, 2, 64, 76
3, 166829, Control_c, 2, 64, 80
3, 166849, Control_c, 2, 64, 84
3, 166876, Control_c, 2, 64, 88
3, 166939, Control_c, 2, 64, 84
3, 166994, Control_c, 2, 64, 80
3, 167014, Control_c, 2, 64, 76
3, 167027, Control_c, 2, 64, 72
3, 167037, Control_c, 2, 64, 68
3, 167045, Control_c, 2, 64, 64
3, 167054, Control_c, 2, 64, 60
3, 167064, Control_c, 2, 64, 44
3, 167093, Control_c, 2, 64, 28
3, 167188, Control_c, 2, 64, 44
3, 167204, Control_c, 2, 64, 60
3, 167210, Control_c, 2, 64, 64
3, 167223, Control_c, 2, 64, 68
3, 167253, Control_c, 2, 64, 72
3, 167309, Control_c, 2, 64, 76
3, 167336, Control_c, 2, 64, 80
3, 167363, Control_c, 2, 64, 84
3, 167376, Control_c, 2, 64, 88
3, 167384, Control_c, 2, 64, 92
3, 167397, Control_c, 2, 64, 100
3, 167417, Control_c, 2, 64, 112
3, 167603, Control_c, 2, 64, 100
3, 167654, Control_c, 2, 64, 92
3, 167674, Control_c, 2, 64, 88
3, 167682, Control_c, 2, 64, 84
3, 167694, Control_c, 2, 64, 80
3, 167710, Control_c, 2, 64, 76
3, 167725, Control_c, 2, 64, 72
3, 167732, Control_c, 2, 64, 68
3, 167742, Control_c, 2, 64, 64
3, 167758, Control_c, 2, 64, 60
3, 167765, Control_c, 2, 64, 44
3, 167788, Control_c, 2, 64, 28
3, 167898, Control_c, 2, 64, 44
3, 167914, Control_c, 2, 64, 60
3, 167924, Control_c, 2, 64, 64
3, 167928, Control_c, 2, 64, 68
3, 167952, Control_c, 2, 64, 72
3, 167976, Control_c, 2, 64, 76
3, 168012, Control_c, 2, 64, 80
3, 168036, Control_c, 2, 64, 84
3, 168049, Control_c, 2, 64, 88
3, 168060, Control_c, 2, 64, 92
3, 168079, Control_c, 2, 64, 100
3, 168472, Control_c, 2, 64, 92
3, 168489, Control_c, 2, 64, 88
3, 168495, Control_c, 2, 64, 84
3, 168508, Control_c, 2, 64, 80
3, 168517, Control_c, 2, 64, 76
3, 168525, Control_c, 2, 64, 72
3, 168532, Control_c, 2, 64, 68
3, 168540, Control_c, 2, 64, 64
3, 168548, Control_c, 2, 64, 60
3, 168552, Control_c, 2, 64, 44
3, 168565, Control_c, 2, 64, 28
3, 168570, Control_c, 2, 64, 12
3, 168581, Control_c, 2, 64, 0
3, 168678, Control_c, 2, 64, 12
3, 168691, Control_c, 2, 64, 28
3, 168696, Control_c, 2, 64, 44
3, 168701, Control_c, 2, 64, 60
3, 168708, Control_c, 2, 64, 64
3, 168708, Control_c, 2, 64, 68
3, 168714, Control_c, 2, 64, 72
3, 168721, Control_c, 2, 64, 76
3, 168747, Control_c, 2, 64, 80
3, 168767, Control_c, 2, 64, 84
3, 168781, Control_c, 2, 64, 88
3, 168794, Control_c, 2, 64, 92
3, 168817, Control_c, 2, 64, 100
3, 168905, Control_c, 2, 64, 92
3, 168917, Control_c, 2, 64, 88
3, 168923, Control_c, 2, 64, 84
3, 168932, Control_c, 2, 64, 80
3, 168974, Control_c, 2, 64, 84
3, 168986, Control_c, 2, 64, 88
3, 168993, Control_c, 2, 64, 92
3, 169001, Control_c, 2, 67, 104
3, 169008, Control_c, 2, 64, 100
3, 169024, Control_c, 2, 64, 112
3, 169033, Control_c, 2, 64, 127
3, 169080, Control_c, 2, 67, 96
3, 169137, Control_c, 2, 67, 88
3, 169181, Control_c, 2, 67, 80
3, 169185, Control_c, 2, 64, 112
3, 169191, Control_c, 2, 64, 100
3, 169197, Control_c, 2, 64, 92
3, 169199, Control_c, 2, 64, 88
3, 169201, Control_c, 2, 64, 84
3, 169205, Control_c, 2, 64, 80
3, 169206, Control_c, 2, 64, 76
3, 169207, Control_c, 2, 64, 72
3, 169209, Control_c, 2, 64, 68
3, 169210, Control_c, 2, 67, 72
3, 169210, Control_c, 2, 64, 64
3, 169212, Control_c, 2, 64, 60
3, 169223, Control_c, 2, 64, 44
3, 169230, Control_c, 2, 67, 64
3, 169242, Control_c, 2, 67, 56
3, 169253, Control_c, 2, 67, 48
3, 169264, Control_c, 2, 64, 60
3, 169270, Control_c, 2, 64, 64
3, 169277, Control_c, 2, 64, 68
3, 169283, Control_c, 2, 64, 72
3, 169284, Control_c, 2, 67, 40
3, 169290, Control_c, 2, 64, 76
3, 169298, Control_c, 2, 64, 80
3, 169313, Control_c, 2, 64, 84
3, 169318, Control_c, 2, 64, 88
3, 169319, Control_c, 2, 67, 32
3, 169325, Control_c, 2, 64, 92
3, 169335, Control_c, 2, 64, 100
3, 169343, Control_c, 2, 64, 112
3, 169351, Control_c, 2, 64, 127
3, 169380, Control_c, 2, 67, 24
3, 169438, Control_c, 2, 67, 16
3, 169500, Control_c, 2, 67, 8
3, 169547, Control_c, 2, 67, 0
3, 169864, Control_c, 2, 64, 112
3, 169871, Control_c, 2, 64, 100
3, 169880, Control_c, 2, 64, 92
3, 169885, Control_c, 2, 64, 88
3, 169885, Control_c, 2, 64, 84
3, 169885, Control_c, 2, 64, 80
3, 169891, Control_c, 2, 64, 76
3, 169894, Control_c, 2, 64, 72
3, 169899, Control_c, 2, 64, 68
3, 169904, Control_c, 2, 64, 64
3, 169917, Control_c, 2, 64, 60
3, 169920, Control_c, 2, 67, 8
3, 169924, Control_c, 2, 64, 44
3, 169934, Control_c, 2, 64, 28
3, 169942, Control_c, 2, 64, 12
3, 169947, Control_c, 2, 64, 0
3, 170091, Control_c, 2, 64, 12
3, 170108, Control_c, 2, 64, 28
3, 170116, Control_c, 2, 64, 44
3, 170120, Control_c, 2, 64, 60
3, 170126, Control_c, 2, 64, 64
3, 170129, Control_c, 2, 64, 68
3, 170130, Control_c, 2, 64, 72
3, 170144, Control_c, 2, 64, 76
3, 170150, Control_c, 2, 64, 80
3, 170174, Control_c, 2, 64, 84
3, 170184, Control_c, 2, 64, 88
3, 170191, Control_c, 2, 64, 92
3, 170201, Control_c, 2, 64, 100
3, 170217, Control_c, 2, 64, 112
3, 170339, Control_c, 2, 64, 100
3, 170390, Control_c, 2, 64, 92
3, 170403, Control_c, 2, 64, 88
3, 170407, Control_c, 2, 64, 84
3, 170412, Control_c, 2, 64, 80
3, 170417, Control_c, 2, 64, 76
3, 170421, Control_c, 2, 64, 72
3, 170423, Control_c, 2, 64, 68
3, 170427, Control_c, 2, 64, 64
3, 170436, Control_c, 2, 64, 60
3, 170440, Control_c, 2, 64, 44
3, 170450, Control_c, 2, 64, 28
3, 170460, Control_c, 2, 64, 12
3, 170466, Control_c, 2, 67, 16
3, 170486, Control_c, 2, 64, 0
3, 170510, Control_c, 2, 67, 24
3, 170579, Control_c, 2, 67, 32
3, 170601, Control_c, 2, 64, 12
3, 170617, Control_c, 2, 64, 28
3, 170617, Control_c, 2, 67, 40
3, 170632, Control_c, 2, 64, 44
3, 170632, Control_c, 2, 64, 60
3, 170636, Control_c, 2, 64, 64
3, 170640, Control_c, 2, 64, 68
3, 170646, Control_c, 2, 64, 72
3, 170650, Control_c, 2, 67, 48
3, 170662, Control_c, 2, 64, 76
3, 170682, Control_c, 2, 64, 80
3, 170683, Control_c, 2, 67, 56
3, 170692, Control_c, 2, 64, 84
3, 170702, Control_c, 2, 64, 88
3, 170710, Control_c, 2, 64, 92
3, 170717, Control_c, 2, 64, 100
3, 170727, Control_c, 2, 67, 64
3, 170730, Control_c, 2, 64, 112
3, 170738, Control_c, 2, 64, 127
3, 170783, Control_c, 2, 67, 72
3, 171127, Control_c, 2, 64, 112
3, 171133, Control_c, 2, 64, 100
3, 171137, Control_c, 2, 64, 92
3, 171140, Control_c, 2, 64, 88
3, 171140, Control_c, 2, 64, 84
3, 171143, Control_c, 2, 64, 80
3, 171147, Control_c, 2, 64, 76
3, 171148, Control_c, 2, 64, 72
3, 171150, Control_c, 2, 64, 64
3, 171156, Control_c, 2, 64, 60
3, 171156, Control_c, 2, 64, 44
3, 171162, Control_c, 2, 64, 28
3, 171178, Control_c, 2, 67, 64
3, 171218, Control_c, 2, 67, 56
3, 171218, Control_c, 2, 64, 44
3, 171226, Control_c, 2, 64, 60
3, 171228, Control_c, 2, 64, 64
3, 171230, Control_c, 2, 67, 48
3, 171234, Control_c, 2, 64, 68
3, 171239, Control_c, 2, 64, 72
3, 171243, Control_c, 2, 67, 40
3, 171246, Control_c, 2, 64, 76
3, 171259, Control_c, 2, 64, 80
3, 171259, Control_c, 2, 67, 32
3, 171275, Control_c, 2, 64, 84
3, 171278, Control_c, 2, 64, 88
3, 171281, Control_c, 2, 64, 92
3, 171284, Control_c, 2, 67, 24
3, 171289, Control_c, 2, 64, 100
3, 171296, Control_c, 2, 64, 112
3, 171304, Control_c, 2, 64, 127
3, 171316, Control_c, 2, 67, 16
3, 171345, Control_c, 2, 67, 8
3, 171399, Control_c, 2, 67, 0
3, 171777, Control_c, 2, 64, 112
3, 171788, Control_c, 2, 64, 100
3, 171795, Control_c, 2, 64, 92
3, 171802, Control_c, 2, 64, 88
3, 171802, Control_c, 2, 64, 84
3, 171802, Control_c, 2, 64, 80
3, 171805, Control_c, 2, 64, 76
3, 171810, Control_c, 2, 64, 72
3, 171815, Control_c, 2, 64, 68
3, 171817, Control_c, 2, 64, 64
3, 171822, Control_c, 2, 64, 60
3, 171828, Control_c, 2, 64, 44
3, 171840, Control_c, 2, 64, 28
3, 171848, Control_c, 2, 64, 12
3, 171855, Control_c, 2, 64, 0
3, 171953, Control_c, 2, 64, 12
3, 171966, Control_c, 2, 64, 28
3, 171975, Control_c, 2, 64, 44
3, 171981, Control_c, 2, 64, 60
3, 171985, Control_c, 2, 64, 64
3, 171991, Control_c, 2, 64, 68
3, 171999, Control_c, 2, 64, 72
3, 172011, Control_c, 2, 64, 76
3, 172024, Control_c, 2, 64, 80
3, 172040, Control_c, 2, 64, 84
3, 172047, Control_c, 2, 64, 88
3, 172053, Control_c, 2, 64, 92
3, 172062, Control_c, 2, 64, 100
3, 172080, Control_c, 2, 64, 112
3, 172211, Control_c, 2, 64, 127
3, 172404, Control_c, 2, 67, 8
3, 172432, Control_c, 2, 64, 112
3, 172454, Control_c, 2, 64, 100
3, 172470, Control_c, 2, 64, 92
3, 172471, Control_c, 2, 64, 88
3, 172471, Control_c, 2, 64, 84
3, 172477, Control_c, 2, 64, 80
3, 172481, Control_c, 2, 64, 76
3, 172484, Control_c, 2, 64, 72
3, 172489, Control_c, 2, 64, 68
3, 172519, Control_c, 2, 64, 72
3, 172540, Control_c, 2, 64, 76
3, 172550, Control_c, 2, 64, 80
3, 172564, Control_c, 2, 64, 84
3, 172580, Control_c, 2, 64, 88
3, 172632, Control_c, 2, 64, 84
3, 172635, Control_c, 2, 67, 16
3, 172649, Control_c, 2, 64, 80
3, 172655, Control_c, 2, 64, 76
3, 172663, Control_c, 2, 64, 72
3, 172666, Control_c, 2, 67, 24
3, 172671, Control_c, 2, 64, 68
3, 172678, Control_c, 2, 64, 64
3, 172683, Control_c, 2, 64, 60
3, 172691, Control_c, 2, 64, 44
3, 172694, Control_c, 2, 67, 32
3, 172698, Control_c, 2, 64, 28
3, 172701, Control_c, 2, 64, 12
3, 172706, Control_c, 2, 64, 0
3, 172707, Control_c, 2, 67, 40
3, 172720, Control_c, 2, 67, 48
3, 172730, Control_c, 2, 67, 56
3, 172747, Control_c, 2, 67, 64
3, 172759, Control_c, 2, 67, 72
3, 172772, Control_c, 2, 67, 80
3, 172784, Control_c, 2, 67, 88
3, 172797, Control_c, 2, 67, 96
3, 172811, Control_c, 2, 67, 104
3, 172857, Control_c, 2, 67, 112
3, 172904, Control_c, 2, 67, 127
3, 173711, Control_c, 2, 64, 12
3, 173725, Control_c, 2, 64, 28
3, 173740, Control_c, 2, 64, 44
3, 173748, Control_c, 2, 64, 60
3, 173753, Control_c, 2, 64, 64
3, 173756, Control_c, 2, 64, 68
3, 173766, Control_c, 2, 64, 72
3, 173788, Control_c, 2, 64, 76
3, 173800, Control_c, 2, 64, 80
3, 173819, Control_c, 2, 64, 84
3, 173832, Control_c, 2, 64, 88
3, 173843, Control_c, 2, 64, 92
3, 173859, Control_c, 2, 64, 100
3, 173955, Control_c, 2, 64, 92
3, 173959, Control_c, 2, 64, 88
3, 173959, Control_c, 2, 64, 84
3, 173965, Control_c, 2, 64, 80
3, 173966, Control_c, 2, 64, 76
3, 173969, Control_c, 2, 64, 72
3, 173972, Control_c, 2, 64, 68
3, 173976, Control_c, 2, 64, 64
3, 174002, Control_c, 2, 64, 60
3, 174020, Control_c, 2, 64, 64
3, 174027, Control_c, 2, 64, 68
3, 174037, Control_c, 2, 64, 72
3, 174048, Control_c, 2, 64, 76
3, 174057, Control_c, 2, 64, 80
3, 174070, Control_c, 2, 64, 84
3, 174080, Control_c, 2, 64, 88
3, 174088, Control_c, 2, 64, 92
3, 174096, Control_c, 2, 64, 100
3, 174108, Control_c, 2, 64, 112
3, 174120, Control_c, 2, 64, 127
3, 174289, Control_c, 2, 64, 112
3, 174302, Control_c, 2, 64, 100
3, 174314, Control_c, 2, 64, 92
3, 174320, Control_c, 2, 64, 88
3, 174322, Control_c, 2, 64, 84
3, 174326, Control_c, 2, 64, 80
3, 174332, Control_c, 2, 64, 76
3, 174336, Control_c, 2, 64, 72
3, 174343, Control_c, 2, 64, 68
3, 174345, Control_c, 2, 64, 64
3, 174355, Control_c, 2, 64, 60
3, 174364, Control_c, 2, 64, 44
3, 174378, Control_c, 2, 64, 28
3, 174387, Control_c, 2, 64, 12
3, 174492, Control_c, 2, 64, 28
3, 174505, Control_c, 2, 64, 44
3, 174516, Control_c, 2, 64, 60
3, 174521, Control_c, 2, 64, 64
3, 174526, Control_c, 2, 64, 68
3, 174527, Control_c, 2, 67, 112
3, 174534, Control_c, 2, 64, 72
3, 174558, Control_c, 2, 64, 76
3, 174572, Control_c, 2, 67, 104
3, 174576, Control_c, 2, 64, 80
3, 174597, Control_c, 2, 64, 84
3, 174601, Control_c, 2, 67, 96
3, 174609, Control_c, 2, 64, 88
3, 174616, Control_c, 2, 64, 92
3, 174624, Control_c, 2, 67, 88
3, 174629, Control_c, 2, 64, 100
3, 174642, Control_c, 2, 64, 112
3, 174654, Control_c, 2, 64, 127
3, 174816, Control_c, 2, 67, 96
3, 174944, Control_c, 2, 64, 112
3, 174995, Control_c, 2, 64, 100
3, 175032, Control_c, 2, 64, 92
3, 175048, Control_c, 2, 64, 88
3, 175052, Control_c, 2, 64, 84
3, 175065, Control_c, 2, 64, 80
3, 175072, Control_c, 2, 64, 76
3, 175079, Control_c, 2, 64, 72
3, 175087, Control_c, 2, 64, 68
3, 175092, Control_c, 2, 64, 64
3, 175108, Control_c, 2, 64, 60
3, 175155, Control_c, 2, 67, 104
3, 175192, Control_c, 2, 64, 64
3, 175200, Control_c, 2, 64, 68
3, 175211, Control_c, 2, 64, 72
3, 175228, Control_c, 2, 64, 76
3, 175241, Control_c, 2, 64, 80
3, 175255, Control_c, 2, 64, 84
3, 175265, Control_c, 2, 64, 88
3, 175276, Control_c, 2, 64, 92
3, 175286, Control_c, 2, 64, 100
3, 175299, Control_c, 2, 64, 112
3, 175301, Control_c, 2, 67, 112
3, 175309, Control_c, 2, 64, 127
3, 175391, Control_c, 2, 67, 127
3, 175694, Control_c, 2, 64, 112
3, 175749, Control_c, 2, 64, 100
3, 175769, Control_c, 2, 64, 92
3, 175777, Control_c, 2, 64, 88
3, 175779, Control_c, 2, 64, 84
3, 175784, Control_c, 2, 64, 80
3, 175793, Control_c, 2, 64, 76
3, 175798, Control_c, 2, 64, 72
3, 175801, Control_c, 2, 64, 68
3, 175807, Control_c, 2, 64, 64
3, 175817, Control_c, 2, 64, 60
3, 175829, Control_c, 2, 64, 44
3, 175848, Control_c, 2, 64, 28
3, 175951, Control_c, 2, 64, 44
3, 175965, Control_c, 2, 64, 60
3, 175971, Control_c, 2, 64, 64
3, 175976, Control_c, 2, 64, 68
3, 175988, Control_c, 2, 64, 72
3, 176001, Control_c, 2, 64, 76
3, 176016, Control_c, 2, 64, 80
3, 176032, Control_c, 2, 64, 84
3, 176044, Control_c, 2, 64, 88
3, 176051, Control_c, 2, 64, 92
3, 176062, Control_c, 2, 64, 100
3, 176077, Control_c, 2, 64, 112
3, 176286, Control_c, 2, 64, 100
3, 176384, Control_c, 2, 64, 92
3, 176490, Control_c, 2, 64, 88
3, 176527, Control_c, 2, 64, 84
3, 176568, Control_c, 2, 64, 80
3, 176574, Control_c, 2, 64, 76
3, 176582, Control_c, 2, 64, 72
3, 176590, Control_c, 2, 64, 68
3, 176656, Control_c, 2, 64, 64
3, 176667, Control_c, 2, 64, 68
3, 176688, Control_c, 2, 64, 72
3, 176710, Control_c, 2, 64, 76
3, 176743, Control_c, 2, 64, 80
3, 176917, Control_c, 2, 64, 76
3, 176932, Control_c, 2, 64, 72
3, 176947, Control_c, 2, 64, 68
3, 177017, Control_c, 2, 64, 72
3, 177041, Control_c, 2, 64, 76
3, 177073, Control_c, 2, 64, 80
3, 177100, Control_c, 2, 64, 84
3, 177106, Control_c, 2, 67, 112
3, 177118, Control_c, 2, 64, 88
3, 177129, Control_c, 2, 64, 92
3, 177143, Control_c, 2, 64, 100
3, 177159, Control_c, 2, 67, 104
3, 177183, Control_c, 2, 64, 112
3, 177193, Control_c, 2, 67, 96
3, 177217, Control_c, 2, 67, 88
3, 177255, Control_c, 2, 67, 80
3, 177287, Control_c, 2, 64, 100
3, 177303, Control_c, 2, 64, 92
3, 177304, Control_c, 2, 64, 88
3, 177310, Control_c, 2, 64, 84
3, 177313, Control_c, 2, 64, 80
3, 177314, Control_c, 2, 64, 76
3, 177320, Control_c, 2, 64, 72
3, 177327, Control_c, 2, 64, 68
3, 177413, Control_c, 2, 64, 72
3, 177433, Control_c, 2, 64, 76
3, 177449, Control_c, 2, 64, 80
3, 177474, Control_c, 2, 64, 84
3, 177496, Control_c, 2, 64, 88
3, 177523, Control_c, 2, 64, 92
3, 177529, Control_c, 2, 67, 88
3, 177582, Control_c, 2, 64, 88
3, 177592, Control_c, 2, 64, 84
3, 177605, Control_c, 2, 64, 80
3, 177612, Control_c, 2, 64, 76
3, 177620, Control_c, 2, 64, 72
3, 177629, Control_c, 2, 64, 68
3, 177642, Control_c, 2, 64, 64
3, 177654, Control_c, 2, 64, 60
3, 177665, Control_c, 2, 64, 44
3, 177682, Control_c, 2, 64, 28
3, 177718, Control_c, 2, 64, 12
3, 177813, Control_c, 2, 64, 28
3, 177821, Control_c, 2, 64, 44
3, 177826, Control_c, 2, 64, 60
3, 177830, Control_c, 2, 64, 64
3, 177833, Control_c, 2, 64, 68
3, 177836, Control_c, 2, 64, 72
3, 177840, Control_c, 2, 64, 76
3, 177856, Control_c, 2, 64, 80
3, 177877, Control_c, 2, 64, 84
3, 177887, Control_c, 2, 64, 88
3, 177896, Control_c, 2, 64, 92
3, 177912, Control_c, 2, 64, 100
3, 178059, Control_c, 2, 64, 92
3, 178078, Control_c, 2, 64, 88
3, 178083, Control_c, 2, 64, 84
3, 178099, Control_c, 2, 64, 80
3, 178108, Control_c, 2, 64, 76
3, 178117, Control_c, 2, 64, 72
3, 178128, Control_c, 2, 64, 68
3, 178135, Control_c, 2, 64, 64
3, 178148, Control_c, 2, 64, 60
3, 178158, Control_c, 2, 64, 44
3, 178183, Control_c, 2, 64, 28
3, 178319, Control_c, 2, 64, 44
3, 178334, Control_c, 2, 64, 60
3, 178342, Control_c, 2, 64, 64
3, 178352, Control_c, 2, 64, 68
3, 178372, Control_c, 2, 64, 72
3, 178389, Control_c, 2, 64, 76
3, 178415, Control_c, 2, 64, 80
3, 178445, Control_c, 2, 64, 84
3, 178551, Control_c, 2, 64, 88
3, 178591, Control_c, 2, 67, 96
3, 178679, Control_c, 2, 64, 84
3, 178781, Control_c, 2, 64, 80
3, 178810, Control_c, 2, 64, 76
3, 178825, Control_c, 2, 64, 72
3, 178836, Control_c, 2, 64, 68
3, 178843, Control_c, 2, 64, 64
3, 178855, Control_c, 2, 64, 60
3, 178871, Control_c, 2, 64, 44
3, 178911, Control_c, 2, 64, 60
3, 178919, Control_c, 2, 64, 64
3, 178923, Control_c, 2, 64, 68
3, 178929, Control_c, 2, 64, 72
3, 178939, Control_c, 2, 64, 76
3, 178945, Control_c, 2, 64, 80
3, 178959, Control_c, 2, 64, 84
3, 178964, Control_c, 2, 64, 88
3, 178968, Control_c, 2, 64, 92
3, 178976, Control_c, 2, 64, 100
3, 178986, Control_c, 2, 64, 112
3, 178994, Control_c, 2, 64, 127
3, 179467, Control_c, 2, 64, 112
3, 179485, Control_c, 2, 64, 100
3, 179494, Control_c, 2, 64, 92
3, 179503, Control_c, 2, 64, 88
3, 179503, Control_c, 2, 64, 84
3, 179508, Control_c, 2, 64, 80
3, 179508, Control_c, 2, 64, 76
3, 179512, Control_c, 2, 64, 72
3, 179517, Control_c, 2, 64, 68
3, 179520, Control_c, 2, 64, 64
3, 179578, Control_c, 2, 64, 68
3, 179583, Control_c, 2, 64, 72
3, 179593, Control_c, 2, 64, 76
3, 179603, Control_c, 2, 64, 80
3, 179619, Control_c, 2, 64, 84
3, 179630, Control_c, 2, 64, 88
3, 179638, Control_c, 2, 64, 92
3, 179648, Control_c, 2, 64, 100
3, 179670, Control_c, 2, 64, 112
3, 179744, Control_c, 2, 64, 100
3, 179757, Control_c, 2, 64, 92
3, 179761, Control_c, 2, 64, 88
3, 179764, Control_c, 2, 64, 84
3, 179770, Control_c, 2, 64, 80
3, 179777, Control_c, 2, 64, 76
3, 179779, Control_c, 2, 64, 72
3, 179781, Control_c, 2, 67, 88
3, 179784, Control_c, 2, 64, 68
3, 179789, Control_c, 2, 64, 64
3, 179795, Control_c, 2, 64, 60
3, 179801, Control_c, 2, 64, 44
3, 179814, Control_c, 2, 64, 28
3, 179820, Control_c, 2, 64, 12
3, 179832, Control_c, 2, 64, 0
3, 179903, Control_c, 2, 64, 12
3, 179913, Control_c, 2, 64, 28
3, 179920, Control_c, 2, 64, 44
3, 179926, Control_c, 2, 64, 60
3, 179930, Control_c, 2, 64, 64
3, 179935, Control_c, 2, 64, 68
3, 179937, Control_c, 2, 64, 72
3, 179945, Control_c, 2, 64, 76
3, 179957, Control_c, 2, 64, 80
3, 179971, Control_c, 2, 64, 84
3, 179978, Control_c, 2, 64, 88
3, 179983, Control_c, 2, 64, 92
3, 179993, Control_c, 2, 64, 100
3, 180003, Control_c, 2, 64, 112
3, 180008, Control_c, 2, 67, 80
3, 180013, Control_c, 2, 64, 127
3, 180026, Control_c, 2, 67, 72
3, 180046, Control_c, 2, 67, 64
3, 180187, Control_c, 2, 64, 112
3, 180207, Control_c, 2, 64, 100
3, 180223, Control_c, 2, 64, 92
3, 180230, Control_c, 2, 64, 88
3, 180233, Control_c, 2, 64, 84
3, 180240, Control_c, 2, 64, 80
3, 180245, Control_c, 2, 64, 76
3, 180250, Control_c, 2, 64, 72
3, 180257, Control_c, 2, 64, 68
3, 180269, Control_c, 2, 64, 64
3, 180277, Control_c, 2, 64, 60
3, 180287, Control_c, 2, 64, 44
3, 180300, Control_c, 2, 64, 28
3, 180315, Control_c, 2, 64, 12
3, 180416, Control_c, 2, 67, 72
3, 180489, Control_c, 2, 64, 28
3, 180504, Control_c, 2, 64, 44
3, 180512, Control_c, 2, 64, 60
3, 180517, Control_c, 2, 67, 80
3, 180522, Control_c, 2, 64, 64
3, 180529, Control_c, 2, 64, 68
3, 180554, Control_c, 2, 64, 72
3, 180576, Control_c, 2, 64, 76
3, 180602, Control_c, 2, 64, 80
3, 180607, Control_c, 2, 67, 88
3, 180630, Control_c, 2, 64, 84
3, 180643, Control_c, 2, 64, 88
3, 180656, Control_c, 2, 64, 92
3, 180668, Control_c, 2, 64, 100
3, 180690, Control_c, 2, 64, 112
3, 180716, Control_c, 2, 64, 127
3, 180726, Control_c, 2, 67, 96
3, 180944, Control_c, 2, 64, 112
3, 180970, Control_c, 2, 64, 100
3, 180985, Control_c, 2, 64, 92
3, 180989, Control_c, 2, 64, 88
3, 180993, Control_c, 2, 64, 84
3, 180997, Control_c, 2, 64, 80
3, 181003, Control_c, 2, 64, 76
3, 181006, Control_c, 2, 64, 72
3, 181009, Control_c, 2, 64, 68
3, 181015, Control_c, 2, 64, 64
3, 181022, Control_c, 2, 64, 60
3, 181030, Control_c, 2, 67, 104
3, 181032, Control_c, 2, 64, 44
3, 181057, Control_c, 2, 64, 28
3, 181113, Control_c, 2, 64, 44
3, 181121, Control_c, 2, 64, 60
3, 181123, Control_c, 2, 64, 64
3, 181128, Control_c, 2, 64, 68
3, 181133, Control_c, 2, 64, 72
3, 181141, Control_c, 2, 64, 76
3, 181156, Control_c, 2, 64, 80
3, 181171, Control_c, 2, 64, 84
3, 181181, Control_c, 2, 64, 88
3, 181189, Control_c, 2, 64, 92
3, 181202, Control_c, 2, 64, 100
3, 181216, Control_c, 2, 64, 112
3, 181405, Control_c, 2, 64, 100
3, 181418, Control_c, 2, 64, 92
3, 181422, Control_c, 2, 64, 88
3, 181422, Control_c, 2, 64, 84
3, 181428, Control_c, 2, 64, 80
3, 181429, Control_c, 2, 64, 76
3, 181432, Control_c, 2, 64, 72
3, 181438, Control_c, 2, 64, 68
3, 181439, Control_c, 2, 64, 64
3, 181442, Control_c, 2, 64, 60
3, 181448, Control_c, 2, 64, 44
3, 181512, Control_c, 2, 64, 60
3, 181518, Control_c, 2, 64, 64
3, 181521, Control_c, 2, 64, 68
3, 181529, Control_c, 2, 64, 72
3, 181538, Control_c, 2, 64, 76
3, 181554, Control_c, 2, 64, 80
3, 181570, Control_c, 2, 64, 84
3, 181579, Control_c, 2, 64, 88
3, 181589, Control_c, 2, 64, 92
3, 181602, Control_c, 2, 64, 100
3, 181627, Control_c, 2, 64, 112
3, 181750, Control_c, 2, 64, 100
3, 181758, Control_c, 2, 64, 92
3, 181762, Control_c, 2, 64, 88
3, 181765, Control_c, 2, 64, 84
3, 181765, Control_c, 2, 64, 80
3, 181770, Control_c, 2, 64, 76
3, 181773, Control_c, 2, 64, 72
3, 181776, Control_c, 2, 64, 68
3, 181778, Control_c, 2, 64, 64
3, 181831, Control_c, 2, 64, 68
3, 181838, Control_c, 2, 64, 72
3, 181845, Control_c, 2, 64, 76
3, 181854, Control_c, 2, 64, 80
3, 181867, Control_c, 2, 64, 84
3, 181875, Control_c, 2, 64, 88
3, 181881, Control_c, 2, 64, 92
3, 181889, Control_c, 2, 64, 100
3, 181901, Control_c, 2, 64, 112
3, 181907, Control_c, 2, 64, 127
3, 182077, Control_c, 2, 64, 112
3, 182082, Control_c, 2, 64, 100
3, 182088, Control_c, 2, 64, 92
3, 182090, Control_c, 2, 64, 84
3, 182092, Control_c, 2, 64, 80
3, 182092, Control_c, 2, 64, 76
3, 182095, Control_c, 2, 64, 72
3, 182098, Control_c, 2, 64, 68
3, 182100, Control_c, 2, 64, 64
3, 182102, Control_c, 2, 64, 60
3, 182146, Control_c, 2, 64, 64
3, 182151, Control_c, 2, 64, 68
3, 182156, Control_c, 2, 64, 72
3, 182162, Control_c, 2, 64, 76
3, 182171, Control_c, 2, 64, 80
3, 182181, Control_c, 2, 64, 84
3, 182185, Control_c, 2, 64, 88
3, 182191, Control_c, 2, 64, 92
3, 182198, Control_c, 2, 64, 100
3, 182205, Control_c, 2, 64, 112
3, 182211, Control_c, 2, 64, 127
3, 182369, Control_c, 2, 64, 112
3, 182375, Control_c, 2, 64, 100
3, 182377, Control_c, 2, 64, 92
3, 182380, Control_c, 2, 64, 88
3, 182382, Control_c, 2, 64, 84
3, 182386, Control_c, 2, 64, 80
3, 182387, Control_c, 2, 64, 76
3, 182387, Control_c, 2, 64, 72
3, 182390, Control_c, 2, 64, 68
3, 182390, Control_c, 2, 64, 64
3, 182393, Control_c, 2, 64, 60
3, 182393, Control_c, 2, 67, 96
3, 182395, Control_c, 2, 64, 44
3, 182472, Control_c, 2, 64, 60
3, 182477, Control_c, 2, 64, 64
3, 182478, Control_c, 2, 67, 88
3, 182481, Control_c, 2, 64, 68
3, 182484, Control_c, 2, 64, 72
3, 182495, Control_c, 2, 64, 76
3, 182508, Control_c, 2, 64, 80
3, 182524, Control_c, 2, 67, 80
3, 182524, Control_c, 2, 64, 84
3, 182531, Control_c, 2, 64, 88
3, 182535, Control_c, 2, 64, 92
3, 182538, Control_c, 2, 67, 72
3, 182543, Control_c, 2, 64, 100
3, 182551, Control_c, 2, 67, 64
3, 182555, Control_c, 2, 64, 112
3, 182563, Control_c, 2, 67, 56
3, 182568, Control_c, 2, 64, 127
3, 182574, Control_c, 2, 67, 48
3, 182641, Control_c, 2, 67, 40
3, 182684, Control_c, 2, 64, 112
3, 182688, Control_c, 2, 64, 100
3, 182694, Control_c, 2, 64, 92
3, 182697, Control_c, 2, 64, 88
3, 182700, Control_c, 2, 64, 84
3, 182701, Control_c, 2, 64, 80
3, 182701, Control_c, 2, 64, 76
3, 182706, Control_c, 2, 64, 72
3, 182706, Control_c, 2, 67, 32
3, 182706, Control_c, 2, 64, 68
3, 182712, Control_c, 2, 64, 64
3, 182737, Control_c, 2, 64, 68
3, 182749, Control_c, 2, 64, 72
3, 182759, Control_c, 2, 64, 76
3, 182761, Control_c, 2, 67, 24
3, 182769, Control_c, 2, 64, 80
3, 182780, Control_c, 2, 64, 84
3, 182785, Control_c, 2, 64, 88
3, 182792, Control_c, 2, 64, 92
3, 182792, Control_c, 2, 67, 16
3, 182803, Control_c, 2, 64, 100
3, 182812, Control_c, 2, 64, 112
3, 182823, Control_c, 2, 64, 127
3, 182824, Control_c, 2, 67, 8
3, 182956, Control_c, 2, 67, 0
3, 182976, Control_c, 2, 64, 112
3, 182989, Control_c, 2, 64, 100
3, 182998, Control_c, 2, 64, 92
3, 183007, Control_c, 2, 64, 88
3, 183007, Control_c, 2, 64, 84
3, 183009, Control_c, 2, 64, 80
3, 183013, Control_c, 2, 64, 76
3, 183018, Control_c, 2, 64, 72
3, 183019, Control_c, 2, 64, 68
3, 183024, Control_c, 2, 64, 64
3, 183029, Control_c, 2, 64, 60
3, 183034, Control_c, 2, 64, 44
3, 183042, Control_c, 2, 64, 28
3, 183048, Control_c, 2, 64, 12
3, 183060, Control_c, 2, 64, 0
3, 183134, Control_c, 2, 64, 12
3, 183147, Control_c, 2, 64, 28
3, 183154, Control_c, 2, 64, 44
3, 183163, Control_c, 2, 64, 60
3, 183170, Control_c, 2, 64, 64
3, 183175, Control_c, 2, 64, 68
3, 183180, Control_c, 2, 64, 72
3, 183200, Control_c, 2, 64, 76
3, 183213, Control_c, 2, 64, 80
3, 183235, Control_c, 2, 64, 84
3, 183251, Control_c, 2, 64, 88
3, 183257, Control_c, 2, 64, 92
3, 183271, Control_c, 2, 64, 100
3, 183301, Control_c, 2, 64, 112
3, 183366, Control_c, 2, 64, 127
3, 183524, Control_c, 2, 67, 8
3, 183586, Control_c, 2, 67, 16
3, 183633, Control_c, 2, 64, 112
3, 183636, Control_c, 2, 67, 24
3, 183653, Control_c, 2, 64, 100
3, 183666, Control_c, 2, 67, 32
3, 183666, Control_c, 2, 64, 92
3, 183676, Control_c, 2, 64, 88
3, 183680, Control_c, 2, 64, 84
3, 183683, Control_c, 2, 64, 80
3, 183683, Control_c, 2, 67, 40
3, 183689, Control_c, 2, 64, 76
3, 183693, Control_c, 2, 64, 72
3, 183699, Control_c, 2, 64, 68
3, 183699, Control_c, 2, 67, 48
3, 183704, Control_c, 2, 64, 64
3, 183708, Control_c, 2, 64, 60
3, 183714, Control_c, 2, 67, 56
3, 183718, Control_c, 2, 64, 44
3, 183732, Control_c, 2, 64, 28
3, 183732, Control_c, 2, 67, 64
3, 183744, Control_c, 2, 64, 12
3, 183751, Control_c, 2, 67, 72
3, 183767, Control_c, 2, 67, 80
3, 183786, Control_c, 2, 67, 88
3, 183804, Control_c, 2, 67, 96
3, 183822, Control_c, 2, 64, 28
3, 183832, Control_c, 2, 64, 44
3, 183837, Control_c, 2, 64, 60
3, 183837, Control_c, 2, 67, 104
3, 183840, Control_c, 2, 64, 64
3, 183845, Control_c, 2, 64, 68
3, 183847, Control_c, 2, 64, 72
3, 183854, Control_c, 2, 64, 76
3, 183864, Control_c, 2, 64, 80
3, 183883, Control_c, 2, 64, 84
3, 183883, Control_c, 2, 67, 112
3, 183895, Control_c, 2, 64, 88
3, 183902, Control_c, 2, 64, 92
3, 183998, Control_c, 2, 64, 88
3, 184000, Control_c, 2, 64, 84
3, 184011, Control_c, 2, 64, 80
3, 184019, Control_c, 2, 64, 76
3, 184028, Control_c, 2, 64, 72
3, 184036, Control_c, 2, 64, 68
3, 184048, Control_c, 2, 64, 64
3, 184058, Control_c, 2, 64, 60
3, 184067, Control_c, 2, 64, 44
3, 184079, Control_c, 2, 64, 28
3, 184096, Control_c, 2, 64, 12
3, 184196, Control_c, 2, 64, 28
3, 184206, Control_c, 2, 64, 44
3, 184215, Control_c, 2, 64, 60
3, 184216, Control_c, 2, 64, 64
3, 184222, Control_c, 2, 64, 68
3, 184226, Control_c, 2, 64, 72
3, 184236, Control_c, 2, 64, 76
3, 184250, Control_c, 2, 64, 80
3, 184265, Control_c, 2, 64, 84
3, 184272, Control_c, 2, 64, 88
3, 184280, Control_c, 2, 64, 92
3, 184290, Control_c, 2, 64, 100
3, 184309, Control_c, 2, 64, 112
3, 184423, Control_c, 2, 64, 100
3, 184446, Control_c, 2, 64, 92
3, 184451, Control_c, 2, 64, 88
3, 184453, Control_c, 2, 64, 84
3, 184459, Control_c, 2, 64, 80
3, 184466, Control_c, 2, 64, 76
3, 184472, Control_c, 2, 64, 72
3, 184476, Control_c, 2, 64, 68
3, 184482, Control_c, 2, 64, 64
3, 184497, Control_c, 2, 64, 60
3, 184509, Control_c, 2, 64, 44
3, 184532, Control_c, 2, 64, 28
3, 184761, Control_c, 2, 64, 44
3, 184773, Control_c, 2, 64, 60
3, 184784, Control_c, 2, 64, 64
3, 184790, Control_c, 2, 64, 68
3, 184809, Control_c, 2, 64, 72
3, 184832, Control_c, 2, 64, 76
3, 184873, Control_c, 2, 64, 80
3, 184902, Control_c, 2, 64, 84
3, 184916, Control_c, 2, 64, 88
3, 184930, Control_c, 2, 64, 92
3, 184942, Control_c, 2, 64, 100
3, 184967, Control_c, 2, 64, 112
3, 185206, Control_c, 2, 64, 100
3, 185232, Control_c, 2, 64, 92
3, 185242, Control_c, 2, 64, 88
3, 185244, Control_c, 2, 64, 84
3, 185252, Control_c, 2, 64, 80
3, 185259, Control_c, 2, 64, 76
3, 185265, Control_c, 2, 64, 72
3, 185272, Control_c, 2, 64, 68
3, 185277, Control_c, 2, 64, 64
3, 185284, Control_c, 2, 64, 60
3, 185297, Control_c, 2, 64, 44
3, 185372, Control_c, 2, 64, 60
3, 185377, Control_c, 2, 64, 64
3, 185382, Control_c, 2, 64, 68
3, 185390, Control_c, 2, 64, 72
3, 185405, Control_c, 2, 64, 76
3, 185418, Control_c, 2, 64, 80
3, 185430, Control_c, 2, 64, 84
3, 185440, Control_c, 2, 64, 88
3, 185446, Control_c, 2, 64, 92
3, 185458, Control_c, 2, 64, 100
3, 185476, Control_c, 2, 64, 112
3, 185495, Control_c, 2, 64, 127
3, 185536, Control_c, 2, 67, 104
3, 185667, Control_c, 2, 64, 112
3, 185672, Control_c, 2, 67, 96
3, 185730, Control_c, 2, 64, 100
3, 185737, Control_c, 2, 67, 88
3, 185745, Control_c, 2, 64, 92
3, 185749, Control_c, 2, 64, 88
3, 185750, Control_c, 2, 64, 84
3, 185755, Control_c, 2, 64, 80
3, 185758, Control_c, 2, 64, 76
3, 185759, Control_c, 2, 64, 72
3, 185762, Control_c, 2, 64, 68
3, 185764, Control_c, 2, 64, 64
3, 185764, Control_c, 2, 64, 60
3, 185771, Control_c, 2, 64, 44
3, 185771, Control_c, 2, 67, 80
3, 185775, Control_c, 2, 64, 28
3, 185782, Control_c, 2, 64, 12
3, 185791, Control_c, 2, 67, 72
3, 185806, Control_c, 2, 67, 64
3, 185817, Control_c, 2, 67, 56
3, 185825, Control_c, 2, 67, 48
3, 185841, Control_c, 2, 64, 28
3, 185845, Control_c, 2, 67, 40
3, 185848, Control_c, 2, 64, 44
3, 185851, Control_c, 2, 64, 60
3, 185855, Control_c, 2, 64, 64
3, 185861, Control_c, 2, 64, 68
3, 185863, Control_c, 2, 64, 72
3, 185870, Control_c, 2, 64, 76
3, 185884, Control_c, 2, 67, 32
3, 185884, Control_c, 2, 64, 80
3, 185896, Control_c, 2, 64, 84
3, 185904, Control_c, 2, 64, 88
3, 185911, Control_c, 2, 64, 92
3, 185912, Control_c, 2, 67, 24
3, 185918, Control_c, 2, 64, 100
3, 185928, Control_c, 2, 64, 112
3, 185938, Control_c, 2, 64, 127
3, 185940, Control_c, 2, 67, 16
3, 185972, Control_c, 2, 67, 8
3, 186030, Control_c, 2, 67, 0
3, 186802, Control_c, 2, 64, 112
3, 186810, Control_c, 2, 64, 100
3, 186817, Control_c, 2, 64, 92
3, 186820, Control_c, 2, 64, 88
3, 186822, Control_c, 2, 64, 84
3, 186824, Control_c, 2, 64, 80
3, 186824, Control_c, 2, 64, 76
3, 186830, Control_c, 2, 64, 72
3, 186833, Control_c, 2, 64, 68
3, 186834, Control_c, 2, 64, 64
3, 186840, Control_c, 2, 64, 60
3, 186844, Control_c, 2, 64, 44
3, 186855, Control_c, 2, 64, 28
3, 186863, Control_c, 2, 64, 12
3, 186943, Control_c, 2, 64, 28
3, 186951, Control_c, 2, 64, 44
3, 186959, Control_c, 2, 64, 60
3, 186966, Control_c, 2, 64, 64
3, 186970, Control_c, 2, 64, 68
3, 186979, Control_c, 2, 64, 72
3, 186999, Control_c, 2, 64, 76
3, 187016, Control_c, 2, 64, 80
3, 187039, Control_c, 2, 64, 84
3, 187054, Control_c, 2, 64, 88
3, 187064, Control_c, 2, 64, 92
3, 187082, Control_c, 2, 64, 100
3, 187109, Control_c, 2, 64, 112
3, 187154, Control_c, 2, 64, 127
3, 187510, Control_c, 2, 64, 112
3, 187515, Control_c, 2, 64, 100
3, 187522, Control_c, 2, 64, 92
3, 187522, Control_c, 2, 64, 88
3, 187524, Control_c, 2, 64, 84
3, 187524, Control_c, 2, 64, 80
3, 187526, Control_c, 2, 64, 76
3, 187529, Control_c, 2, 64, 72
3, 187529, Control_c, 2, 64, 68
3, 187531, Control_c, 2, 64, 64
3, 187535, Control_c, 2, 64, 60
3, 187536, Control_c, 2, 64, 44
3, 187547, Control_c, 2, 64, 28
3, 187609, Control_c, 2, 64, 44
3, 187615, Control_c, 2, 64, 60
3, 187618, Control_c, 2, 64, 64
3, 187620, Control_c, 2, 64, 68
3, 187622, Control_c, 2, 64, 72
3, 187628, Control_c, 2, 64, 76
3, 187635, Control_c, 2, 64, 80
3, 187648, Control_c, 2, 64, 84
3, 187653, Control_c, 2, 64, 88
3, 187657, Control_c, 2, 64, 92
3, 187668, Control_c, 2, 64, 100
3, 187678, Control_c, 2, 64, 112
3, 187683, Control_c, 2, 64, 127
3, 187776, Control_c, 2, 64, 112
3, 187783, Control_c, 2, 64, 100
3, 187787, Control_c, 2, 64, 92
3, 187789, Control_c, 2, 64, 88
3, 187791, Control_c, 2, 64, 84
3, 187791, Control_c, 2, 64, 80
3, 187793, Control_c, 2, 64, 76
3, 187797, Control_c, 2, 64, 72
3, 187799, Control_c, 2, 64, 68
3, 187799, Control_c, 2, 64, 64
3, 187801, Control_c, 2, 64, 60
3, 187803, Control_c, 2, 64, 44
3, 187810, Control_c, 2, 64, 28
3, 187865, Control_c, 2, 64, 44
3, 187870, Control_c, 2, 64, 60
3, 187872, Control_c, 2, 64, 64
3, 187877, Control_c, 2, 64, 68
3, 187880, Control_c, 2, 64, 72
3, 187888, Control_c, 2, 64, 76
3, 187894, Control_c, 2, 64, 80
3, 187906, Control_c, 2, 64, 84
3, 187912, Control_c, 2, 64, 88
3, 187915, Control_c, 2, 64, 92
3, 187922, Control_c, 2, 64, 100
3, 187932, Control_c, 2, 64, 112
3, 187939, Control_c, 2, 64, 127
3, 188076, Control_c, 2, 64, 112
3, 188078, Control_c, 2, 64, 100
3, 188083, Control_c, 2, 64, 92
3, 188084, Control_c, 2, 64, 88
3, 188086, Control_c, 2, 64, 84
3, 188089, Control_c, 2, 64, 80
3, 188090, Control_c, 2, 64, 76
3, 188090, Control_c, 2, 64, 68
3, 188094, Control_c, 2, 64, 64
3, 188099, Control_c, 2, 64, 60
3, 188099, Control_c, 2, 64, 44
3, 188105, Control_c, 2, 64, 28
3, 188138, Control_c, 2, 64, 44
3, 188143, Control_c, 2, 64, 60
3, 188148, Control_c, 2, 64, 64
3, 188154, Control_c, 2, 64, 68
3, 188155, Control_c, 2, 64, 72
3, 188159, Control_c, 2, 64, 76
3, 188164, Control_c, 2, 64, 80
3, 188172, Control_c, 2, 64, 84
3, 188174, Control_c, 2, 64, 88
3, 188179, Control_c, 2, 64, 92
3, 188186, Control_c, 2, 64, 100
3, 188197, Control_c, 2, 64, 112
3, 188206, Control_c, 2, 64, 127
3, 188309, Control_c, 2, 64, 112
3, 188319, Control_c, 2, 64, 100
3, 188329, Control_c, 2, 64, 92
3, 188333, Control_c, 2, 64, 88
3, 188335, Control_c, 2, 64, 84
3, 188338, Control_c, 2, 64, 80
3, 188340, Control_c, 2, 64, 76
3, 188345, Control_c, 2, 64, 72
3, 188358, Control_c, 2, 64, 68
3, 188372, Control_c, 2, 64, 64
3, 188376, Control_c, 2, 64, 60
3, 188380, Control_c, 2, 64, 44
3, 188385, Control_c, 2, 64, 28
3, 188388, Control_c, 2, 64, 12
3, 188396, Control_c, 2, 64, 0
3, 188441, Control_c, 2, 64, 12
3, 188448, Control_c, 2, 64, 28
3, 188453, Control_c, 2, 64, 44
3, 188455, Control_c, 2, 64, 60
3, 188458, Control_c, 2, 64, 64
3, 188461, Control_c, 2, 64, 68
3, 188464, Control_c, 2, 64, 72
3, 188465, Control_c, 2, 64, 76
3, 188471, Control_c, 2, 64, 80
3, 188477, Control_c, 2, 64, 84
3, 188480, Control_c, 2, 64, 88
3, 188485, Control_c, 2, 64, 92
3, 188492, Control_c, 2, 64, 100
3, 188501, Control_c, 2, 64, 112
3, 188504, Control_c, 2, 64, 127
3, 188791, Control_c, 2, 64, 112
3, 188801, Control_c, 2, 64, 100
3, 188811, Control_c, 2, 64, 92
3, 188814, Control_c, 2, 64, 88
3, 188816, Control_c, 2, 64, 84
3, 188818, Control_c, 2, 64, 80
3, 188821, Control_c, 2, 64, 76
3, 188825, Control_c, 2, 64, 72
3, 188829, Control_c, 2, 64, 68
3, 188833, Control_c, 2, 64, 64
3, 188843, Control_c, 2, 64, 60
3, 188851, Control_c, 2, 64, 44
3, 188864, Control_c, 2, 64, 28
3, 188871, Control_c, 2, 64, 12
3, 188879, Control_c, 2, 64, 0
3, 189055, Control_c, 2, 64, 12
3, 189072, Control_c, 2, 64, 28
3, 189085, Control_c, 2, 64, 44
3, 189096, Control_c, 2, 64, 60
3, 189100, Control_c, 2, 64, 64
3, 189108, Control_c, 2, 64, 68
3, 189120, Control_c, 2, 64, 72
3, 189144, Control_c, 2, 64, 76
3, 189158, Control_c, 2, 64, 80
3, 189177, Control_c, 2, 64, 84
3, 189191, Control_c, 2, 64, 88
3, 189201, Control_c, 2, 64, 92
3, 189214, Control_c, 2, 64, 100
3, 189247, Control_c, 2, 64, 112
3, 189344, Control_c, 2, 67, 8
3, 189414, Control_c, 2, 67, 16
3, 189551, Control_c, 2, 67, 24
3, 189584, Control_c, 2, 64, 100
3, 189652, Control_c, 2, 64, 92
3, 189664, Control_c, 2, 64, 88
3, 189664, Control_c, 2, 64, 84
3, 189671, Control_c, 2, 64, 80
3, 189674, Control_c, 2, 64, 76
3, 189677, Control_c, 2, 64, 72
3, 189679, Control_c, 2, 64, 68
3, 189684, Control_c, 2, 64, 64
3, 189689, Control_c, 2, 64, 60
3, 189697, Control_c, 2, 64, 44
3, 189752, Control_c, 2, 67, 32
3, 189757, Control_c, 2, 64, 60
3, 189762, Control_c, 2, 64, 64
3, 189764, Control_c, 2, 64, 68
3, 189770, Control_c, 2, 64, 72
3, 189780, Control_c, 2, 64, 76
3, 189792, Control_c, 2, 64, 80
3, 189798, Control_c, 2, 67, 40
3, 189804, Control_c, 2, 64, 84
3, 189815, Control_c, 2, 64, 88
3, 189822, Control_c, 2, 64, 92
3, 189830, Control_c, 2, 67, 48
3, 189833, Control_c, 2, 64, 100
3, 189855, Control_c, 2, 64, 112
3, 189883, Control_c, 2, 67, 56
3, 189916, Control_c, 2, 67, 64
3, 189950, Control_c, 2, 67, 72
3, 189973, Control_c, 2, 67, 80
3, 189996, Control_c, 2, 67, 88
3, 190019, Control_c, 2, 67, 96
3, 190067, Control_c, 2, 64, 100
3, 190068, Control_c, 2, 67, 104
3, 190173, Control_c, 2, 64, 92
3, 190213, Control_c, 2, 64, 88
3, 190227, Control_c, 2, 64, 84
3, 190248, Control_c, 2, 64, 80
3, 190253, Control_c, 2, 67, 112
3, 190261, Control_c, 2, 64, 76
3, 190268, Control_c, 2, 64, 72
3, 190273, Control_c, 2, 64, 68
3, 190279, Control_c, 2, 64, 64
3, 190284, Control_c, 2, 64, 60
3, 190290, Control_c, 2, 64, 44
3, 190351, Control_c, 2, 64, 60
3, 190359, Control_c, 2, 64, 64
3, 190361, Control_c, 2, 64, 68
3, 190367, Control_c, 2, 64, 72
3, 190374, Control_c, 2, 64, 76
3, 190391, Control_c, 2, 64, 80
3, 190413, Control_c, 2, 64, 84
3, 190424, Control_c, 2, 64, 88
3, 190437, Control_c, 2, 64, 92
3, 190457, Control_c, 2, 64, 100
3, 190598, Control_c, 2, 64, 92
3, 190610, Control_c, 2, 64, 88
3, 190619, Control_c, 2, 64, 84
3, 190626, Control_c, 2, 64, 80
3, 190630, Control_c, 2, 64, 76
3, 190636, Control_c, 2, 64, 72
3, 190638, Control_c, 2, 64, 68
3, 190640, Control_c, 2, 64, 64
3, 190646, Control_c, 2, 64, 60
3, 190648, Control_c, 2, 64, 44
3, 190654, Control_c, 2, 64, 28
3, 190658, Control_c, 2, 64, 12
3, 190712, Control_c, 2, 64, 28
3, 190716, Control_c, 2, 64, 44
3, 190723, Control_c, 2, 64, 60
3, 190723, Control_c, 2, 64, 64
3, 190729, Control_c, 2, 64, 68
3, 190731, Control_c, 2, 64, 72
3, 190736, Control_c, 2, 64, 76
3, 190748, Control_c, 2, 64, 80
3, 190767, Control_c, 2, 64, 84
3, 190774, Control_c, 2, 64, 88
3, 190784, Control_c, 2, 64, 92
3, 190794, Control_c, 2, 64, 100
3, 190812, Control_c, 2, 64, 112
3, 191514, Control_c, 2, 64, 100
3, 191559, Control_c, 2, 64, 92
3, 191567, Control_c, 2, 64, 88
3, 191569, Control_c, 2, 64, 84
3, 191572, Control_c, 2, 64, 80
3, 191577, Control_c, 2, 64, 76
3, 191579, Control_c, 2, 64, 72
3, 191582, Control_c, 2, 64, 68
3, 191585, Control_c, 2, 64, 64
3, 191589, Control_c, 2, 64, 60
3, 191592, Control_c, 2, 64, 44
3, 191605, Control_c, 2, 64, 28
3, 191706, Control_c, 2, 64, 44
3, 191713, Control_c, 2, 64, 60
3, 191718, Control_c, 2, 64, 64
3, 191726, Control_c, 2, 64, 68
3, 191736, Control_c, 2, 64, 72
3, 191763, Control_c, 2, 64, 76
3, 191785, Control_c, 2, 64, 80
3, 191815, Control_c, 2, 64, 84
3, 191829, Control_c, 2, 64, 88
3, 191839, Control_c, 2, 64, 92
3, 191855, Control_c, 2, 64, 100
3, 191985, Control_c, 2, 64, 92
3, 191998, Control_c, 2, 64, 88
3, 192002, Control_c, 2, 64, 84
3, 192008, Control_c, 2, 64, 80
3, 192015, Control_c, 2, 64, 76
3, 192022, Control_c, 2, 64, 72
3, 192030, Control_c, 2, 64, 68
3, 192036, Control_c, 2, 64, 64
3, 192042, Control_c, 2, 64, 60
3, 192048, Control_c, 2, 64, 44
3, 192058, Control_c, 2, 64, 28
3, 192066, Control_c, 2, 64, 12
3, 192176, Control_c, 2, 64, 28
3, 192192, Control_c, 2, 64, 44
3, 192198, Control_c, 2, 64, 60
3, 192208, Control_c, 2, 64, 64
3, 192224, Control_c, 2, 64, 68
3, 192251, Control_c, 2, 64, 72
3, 192282, Control_c, 2, 64, 76
3, 192322, Control_c, 2, 64, 80
3, 192402, Control_c, 2, 64, 84
3, 192448, Control_c, 2, 64, 88
3, 192465, Control_c, 2, 64, 92
3, 192489, Control_c, 2, 64, 100
3, 192521, Control_c, 2, 64, 112
3, 192724, Control_c, 2, 64, 100
3, 192738, Control_c, 2, 64, 92
3, 192744, Control_c, 2, 64, 88
3, 192750, Control_c, 2, 64, 84
3, 192761, Control_c, 2, 64, 80
3, 192773, Control_c, 2, 64, 76
3, 192782, Control_c, 2, 64, 72
3, 192791, Control_c, 2, 64, 68
3, 192795, Control_c, 2, 64, 64
3, 192805, Control_c, 2, 64, 60
3, 192820, Control_c, 2, 64, 44
3, 192838, Control_c, 2, 64, 28
3, 192924, Control_c, 2, 64, 44
3, 192931, Control_c, 2, 64, 60
3, 192936, Control_c, 2, 64, 64
3, 192939, Control_c, 2, 64, 68
3, 192945, Control_c, 2, 64, 72
3, 192952, Control_c, 2, 64, 76
3, 192962, Control_c, 2, 64, 80
3, 192974, Control_c, 2, 64, 84
3, 192983, Control_c, 2, 64, 88
3, 192989, Control_c, 2, 64, 92
3, 192999, Control_c, 2, 64, 100
3, 193009, Control_c, 2, 64, 112
3, 193022, Control_c, 2, 64, 127
3, 193074, Control_c, 2, 64, 112
3, 193082, Control_c, 2, 64, 100
3, 193090, Control_c, 2, 64, 92
3, 193091, Control_c, 2, 64, 88
3, 193093, Control_c, 2, 64, 84
3, 193093, Control_c, 2, 64, 80
3, 193098, Control_c, 2, 64, 76
3, 193100, Control_c, 2, 64, 72
3, 193112, Control_c, 2, 64, 68
3, 193120, Control_c, 2, 64, 72
3, 193133, Control_c, 2, 64, 76
3, 193146, Control_c, 2, 64, 80
3, 193156, Control_c, 2, 64, 84
3, 193165, Control_c, 2, 64, 88
3, 193173, Control_c, 2, 64, 92
3, 193180, Control_c, 2, 64, 100
3, 193510, Control_c, 2, 64, 92
3, 193521, Control_c, 2, 64, 88
3, 193521, Control_c, 2, 64, 84
3, 193531, Control_c, 2, 64, 80
3, 193535, Control_c, 2, 64, 76
3, 193540, Control_c, 2, 64, 72
3, 193546, Control_c, 2, 64, 68
3, 193553, Control_c, 2, 64, 64
3, 193561, Control_c, 2, 64, 60
3, 193570, Control_c, 2, 64, 44
3, 193732, Control_c, 2, 64, 60
3, 193750, Control_c, 2, 64, 64
3, 193767, Control_c, 2, 64, 68
3, 193788, Control_c, 2, 64, 72
3, 193812, Control_c, 2, 64, 76
3, 193833, Control_c, 2, 64, 80
3, 193857, Control_c, 2, 64, 84
3, 193875, Control_c, 2, 64, 88
3, 193886, Control_c, 2, 64, 92
3, 193908, Control_c, 2, 64, 100
3, 194253, Control_c, 2, 64, 92
3, 194336, Control_c, 2, 64, 88
3, 194343, Control_c, 2, 64, 84
3, 194361, Control_c, 2, 64, 80
3, 194371, Control_c, 2, 64, 76
3, 194381, Control_c, 2, 64, 72
3, 194391, Control_c, 2, 64, 68
3, 194407, Control_c, 2, 64, 64
3, 194459, Control_c, 2, 64, 68
3, 194469, Control_c, 2, 64, 72
3, 194484, Control_c, 2, 64, 76
3, 194496, Control_c, 2, 64, 80
3, 194520, Control_c, 2, 64, 84
3, 194535, Control_c, 2, 64, 88
3, 194549, Control_c, 2, 64, 92
3, 194580, Control_c, 2, 64, 100
3, 194948, Control_c, 2, 64, 92
3, 194995, Control_c, 2, 64, 88
3, 195016, Control_c, 2, 64, 84
3, 195051, Control_c, 2, 64, 80
3, 195068, Control_c, 2, 64, 76
3, 195085, Control_c, 2, 64, 72
3, 195098, Control_c, 2, 64, 68
3, 195106, Control_c, 2, 64, 64
3, 195116, Control_c, 2, 64, 60
3, 195126, Control_c, 2, 64, 44
3, 195142, Control_c, 2, 64, 28
3, 195156, Control_c, 2, 64, 12
3, 195300, Control_c, 2, 64, 28
3, 195328, Control_c, 2, 64, 44
3, 195356, Control_c, 2, 64, 60
3, 195383, Control_c, 2, 64, 64
3, 195411, Control_c, 2, 64, 68
3, 195439, Control_c, 2, 64, 72
3, 195466, Control_c, 2, 64, 76
3, 195481, Control_c, 2, 64, 80
3, 195528, Control_c, 2, 64, 84
3, 195620, Control_c, 2, 64, 88
3, 195678, Control_c, 2, 64, 92
3, 195735, Control_c, 2, 64, 100
3, 195824, Control_c, 2, 64, 92
3, 195838, Control_c, 2, 64, 88
3, 195846, Control_c, 2, 64, 84
3, 195854, Control_c, 2, 64, 80
3, 195862, Control_c, 2, 64, 76
3, 195868, Control_c, 2, 64, 72
3, 195885, Control_c, 2, 64, 68
3, 195896, Control_c, 2, 64, 64
3, 195909, Control_c, 2, 64, 60
3, 195917, Control_c, 2, 64, 44
3, 195934, Control_c, 2, 64, 28
3, 196060, Control_c, 2, 64, 44
3, 196070, Control_c, 2, 64, 60
3, 196078, Control_c, 2, 64, 64
3, 196088, Control_c, 2, 64, 68
3, 196105, Control_c, 2, 64, 72
3, 196128, Control_c, 2, 64, 76
3, 196148, Control_c, 2, 64, 80
3, 196174, Control_c, 2, 64, 84
3, 196187, Control_c, 2, 64, 88
3, 196197, Control_c, 2, 64, 92
3, 196211, Control_c, 2, 64, 100
3, 196629, Control_c, 2, 64, 92
3, 196649, Control_c, 2, 64, 88
3, 196655, Control_c, 2, 64, 84
3, 196667, Control_c, 2, 64, 80
3, 196675, Control_c, 2, 64, 76
3, 196680, Control_c, 2, 64, 72
3, 196684, Control_c, 2, 64, 68
3, 196690, Control_c, 2, 64, 64
3, 196700, Control_c, 2, 64, 60
3, 196773, Control_c, 2, 64, 64
3, 196783, Control_c, 2, 64, 68
3, 196803, Control_c, 2, 64, 72
3, 196848, Control_c, 2, 64, 76
3, 196991, Control_c, 2, 64, 72
3, 197011, Control_c, 2, 64, 68
3, 197026, Control_c, 2, 64, 64
3, 197105, Control_c, 2, 64, 68
3, 197120, Control_c, 2, 64, 72
3, 197136, Control_c, 2, 64, 76
3, 197153, Control_c, 2, 64, 80
3, 197177, Control_c, 2, 64, 84
3, 197193, Control_c, 2, 64, 88
3, 197206, Control_c, 2, 64, 92
3, 197316, Control_c, 2, 64, 88
3, 197319, Control_c, 2, 64, 84
3, 197327, Control_c, 2, 64, 80
3, 197332, Control_c, 2, 64, 76
3, 197336, Control_c, 2, 64, 72
3, 197339, Control_c, 2, 64, 68
3, 197343, Control_c, 2, 64, 64
3, 197352, Control_c, 2, 64, 60
3, 197359, Control_c, 2, 64, 44
3, 197440, Control_c, 2, 64, 60
3, 197447, Control_c, 2, 64, 64
3, 197452, Control_c, 2, 64, 68
3, 197462, Control_c, 2, 64, 72
3, 197483, Control_c, 2, 64, 76
3, 197503, Control_c, 2, 64, 80
3, 197531, Control_c, 2, 64, 84
3, 197593, Control_c, 2, 64, 88
3, 197604, Control_c, 2, 64, 84
3, 197619, Control_c, 2, 64, 80
3, 197626, Control_c, 2, 64, 76
3, 197634, Control_c, 2, 64, 72
3, 197636, Control_c, 2, 64, 68
3, 197641, Control_c, 2, 64, 64
3, 197646, Control_c, 2, 64, 60
3, 197659, Control_c, 2, 64, 44
3, 197673, Control_c, 2, 67, 104
3, 197691, Control_c, 2, 67, 96
3, 197712, Control_c, 2, 67, 88
3, 197712, Control_c, 2, 64, 60
3, 197719, Control_c, 2, 64, 64
3, 197724, Control_c, 2, 64, 68
3, 197727, Control_c, 2, 67, 80
3, 197734, Control_c, 2, 64, 72
3, 197734, Control_c, 2, 67, 72
3, 197741, Control_c, 2, 67, 64
3, 197750, Control_c, 2, 64, 76
3, 197750, Control_c, 2, 67, 56
3, 197754, Control_c, 2, 67, 48
3, 197766, Control_c, 2, 64, 80
3, 197783, Control_c, 2, 64, 84
3, 197794, Control_c, 2, 64, 88
3, 197802, Control_c, 2, 64, 92
3, 197817, Control_c, 2, 64, 100
3, 197832, Control_c, 2, 67, 56
3, 197845, Control_c, 2, 64, 112
3, 197900, Control_c, 2, 67, 64
3, 197950, Control_c, 2, 64, 100
3, 197964, Control_c, 2, 64, 92
3, 197968, Control_c, 2, 64, 88
3, 197973, Control_c, 2, 64, 84
3, 197976, Control_c, 2, 64, 80
3, 197981, Control_c, 2, 64, 76
3, 197986, Control_c, 2, 64, 72
3, 197990, Control_c, 2, 64, 68
3, 197996, Control_c, 2, 64, 64
3, 198007, Control_c, 2, 64, 60
3, 198019, Control_c, 2, 64, 44
3, 198036, Control_c, 2, 64, 28
3, 198043, Control_c, 2, 64, 12
3, 198095, Control_c, 2, 64, 0
3, 198199, Control_c, 2, 64, 12
3, 198217, Control_c, 2, 64, 28
3, 198230, Control_c, 2, 64, 44
3, 198240, Control_c, 2, 64, 60
3, 198250, Control_c, 2, 64, 64
3, 198263, Control_c, 2, 64, 68
3, 198281, Control_c, 2, 64, 72
3, 198302, Control_c, 2, 64, 76
3, 198333, Control_c, 2, 64, 80
3, 198373, Control_c, 2, 64, 84
3, 198645, Control_c, 2, 64, 80
3, 198668, Control_c, 2, 64, 76
3, 198684, Control_c, 2, 64, 72
3, 198688, Control_c, 2, 64, 68
3, 198690, Control_c, 2, 64, 64
3, 198698, Control_c, 2, 64, 60
3, 198706, Control_c, 2, 64, 44
3, 198719, Control_c, 2, 64, 28
3, 198776, Control_c, 2, 64, 44
3, 198781, Control_c, 2, 64, 60
3, 198786, Control_c, 2, 64, 64
3, 198789, Control_c, 2, 64, 68
3, 198794, Control_c, 2, 64, 72
3, 198804, Control_c, 2, 64, 76
3, 198815, Control_c, 2, 64, 80
3, 198825, Control_c, 2, 64, 84
3, 198832, Control_c, 2, 64, 88
3, 198837, Control_c, 2, 64, 92
3, 198844, Control_c, 2, 64, 100
3, 198854, Control_c, 2, 64, 112
3, 198863, Control_c, 2, 64, 127
3, 199026, Control_c, 2, 64, 112
3, 199033, Control_c, 2, 64, 100
3, 199038, Control_c, 2, 64, 92
3, 199041, Control_c, 2, 64, 88
3, 199042, Control_c, 2, 64, 84
3, 199044, Control_c, 2, 64, 80
3, 199045, Control_c, 2, 64, 76
3, 199048, Control_c, 2, 64, 72
3, 199051, Control_c, 2, 64, 68
3, 199053, Control_c, 2, 64, 64
3, 199058, Control_c, 2, 64, 60
3, 199095, Control_c, 2, 64, 64
3, 199105, Control_c, 2, 64, 68
3, 199114, Control_c, 2, 64, 72
3, 199124, Control_c, 2, 64, 76
3, 199141, Control_c, 2, 64, 80
3, 199157, Control_c, 2, 64, 84
3, 199167, Control_c, 2, 64, 88
3, 199174, Control_c, 2, 64, 92
3, 199189, Control_c, 2, 64, 100
3, 199260, Control_c, 2, 64, 112
3, 199328, Control_c, 2, 64, 100
3, 199338, Control_c, 2, 64, 92
3, 199342, Control_c, 2, 64, 84
3, 199345, Control_c, 2, 64, 80
3, 199347, Control_c, 2, 64, 76
3, 199350, Control_c, 2, 64, 72
3, 199355, Control_c, 2, 64, 68
3, 199355, Control_c, 2, 64, 64
3, 199360, Control_c, 2, 64, 60
3, 199365, Control_c, 2, 67, 56
3, 199367, Control_c, 2, 64, 44
3, 199418, Control_c, 2, 64, 60
3, 199423, Control_c, 2, 64, 64
3, 199428, Control_c, 2, 64, 68
3, 199434, Control_c, 2, 64, 72
3, 199434, Control_c, 2, 67, 48
3, 199444, Control_c, 2, 64, 76
3, 199459, Control_c, 2, 64, 80
3, 199474, Control_c, 2, 64, 84
3, 199481, Control_c, 2, 64, 88
3, 199488, Control_c, 2, 64, 92
3, 199489, Control_c, 2, 67, 40
3, 199494, Control_c, 2, 64, 100
3, 199509, Control_c, 2, 64, 112
3, 199518, Control_c, 2, 64, 127
3, 199607, Control_c, 2, 67, 32
3, 199637, Control_c, 2, 64, 112
3, 199639, Control_c, 2, 64, 100
3, 199645, Control_c, 2, 64, 92
3, 199647, Control_c, 2, 64, 84
3, 199647, Control_c, 2, 67, 24
3, 199652, Control_c, 2, 64, 80
3, 199652, Control_c, 2, 64, 76
3, 199655, Control_c, 2, 64, 72
3, 199657, Control_c, 2, 64, 68
3, 199660, Control_c, 2, 64, 64
3, 199667, Control_c, 2, 64, 60
3, 199694, Control_c, 2, 64, 64
3, 199704, Control_c, 2, 64, 68
3, 199718, Control_c, 2, 64, 72
3, 199718, Control_c, 2, 67, 16
3, 199726, Control_c, 2, 64, 76
3, 199738, Control_c, 2, 64, 80
3, 199755, Control_c, 2, 64, 84
3, 199768, Control_c, 2, 64, 88
3, 199776, Control_c, 2, 64, 92
3, 199786, Control_c, 2, 64, 100
3, 199803, Control_c, 2, 64, 112
3, 199818, Control_c, 2, 67, 8
3, 199819, Control_c, 2, 64, 127
3, 199919, Control_c, 2, 64, 112
3, 199924, Control_c, 2, 64, 100
3, 199931, Control_c, 2, 64, 92
3, 199932, Control_c, 2, 64, 88
3, 199934, Control_c, 2, 64, 84
3, 199937, Control_c, 2, 64, 80
3, 199939, Control_c, 2, 64, 76
3, 199940, Control_c, 2, 64, 72
3, 199941, Control_c, 2, 64, 68
3, 199944, Control_c, 2, 64, 64
3, 199947, Control_c, 2, 64, 60
3, 199949, Control_c, 2, 64, 44
3, 199981, Control_c, 2, 67, 0
3, 199992, Control_c, 2, 64, 60
3, 200000, Control_c, 2, 64, 64
3, 200007, Control_c, 2, 64, 68
3, 200022, Control_c, 2, 64, 72
3, 200090, Control_c, 2, 64, 68
3, 200103, Control_c, 2, 64, 64
3, 200117, Control_c, 2, 64, 60
3, 200130, Control_c, 2, 64, 44
3, 200151, Control_c, 2, 64, 28
3, 200168, Control_c, 2, 64, 12
3, 200496, Control_c, 2, 67, 8
3, 200569, Control_c, 2, 64, 28
3, 200576, Control_c, 2, 64, 44
3, 200580, Control_c, 2, 64, 60
3, 200584, Control_c, 2, 64, 64
3, 200586, Control_c, 2, 64, 68
3, 200592, Control_c, 2, 64, 72
3, 200594, Control_c, 2, 67, 16
3, 200594, Control_c, 2, 64, 76
3, 200608, Control_c, 2, 64, 80
3, 200631, Control_c, 2, 67, 24
3, 200669, Control_c, 2, 67, 32
3, 200697, Control_c, 2, 67, 40
3, 200714, Control_c, 2, 67, 48
3, 200719, Control_c, 2, 64, 76
3, 200748, Control_c, 2, 67, 56
3, 200762, Control_c, 2, 64, 72
3, 200785, Control_c, 2, 67, 64
3, 200810, Control_c, 2, 67, 72
3, 200835, Control_c, 2, 67, 80
3, 200858, Control_c, 2, 67, 88
3, 200860, Control_c, 2, 64, 68
3, 200876, Control_c, 2, 67, 96
3, 200890, Control_c, 2, 67, 104
3, 200936, Control_c, 2, 67, 112
3, 201003, Control_c, 2, 64, 72
3, 201027, Control_c, 2, 64, 76
3, 201054, Control_c, 2, 64, 80
3, 201073, Control_c, 2, 64, 84
3, 201084, Control_c, 2, 64, 88
3, 201095, Control_c, 2, 64, 92
3, 201102, Control_c, 2, 64, 100
3, 201120, Control_c, 2, 64, 112
3, 201137, Control_c, 2, 64, 127
3, 201464, Control_c, 2, 64, 112
3, 201565, Control_c, 2, 64, 100
3, 201590, Control_c, 2, 64, 92
3, 201599, Control_c, 2, 64, 88
3, 201599, Control_c, 2, 64, 84
3, 201602, Control_c, 2, 67, 104
3, 201605, Control_c, 2, 64, 80
3, 201611, Control_c, 2, 64, 76
3, 201615, Control_c, 2, 64, 72
3, 201619, Control_c, 2, 64, 68
3, 201643, Control_c, 2, 67, 96
3, 201666, Control_c, 2, 67, 88
3, 201674, Control_c, 2, 64, 72
3, 201683, Control_c, 2, 64, 76
3, 201683, Control_c, 2, 67, 80
3, 201692, Control_c, 2, 64, 80
3, 201699, Control_c, 2, 67, 72
3, 201702, Control_c, 2, 64, 84
3, 201711, Control_c, 2, 64, 88
3, 201719, Control_c, 2, 64, 92
3, 201729, Control_c, 2, 64, 100
3, 201742, Control_c, 2, 64, 112
3, 201754, Control_c, 2, 64, 127
3, 201848, Control_c, 2, 67, 80
3, 201928, Control_c, 2, 67, 88
3, 202409, Control_c, 2, 64, 112
3, 202424, Control_c, 2, 64, 100
3, 202438, Control_c, 2, 64, 92
3, 202444, Control_c, 2, 64, 88
3, 202447, Control_c, 2, 64, 84
3, 202452, Control_c, 2, 64, 80
3, 202454, Control_c, 2, 64, 76
3, 202460, Control_c, 2, 64, 72
3, 202464, Control_c, 2, 64, 68
3, 202468, Control_c, 2, 64, 64
3, 202478, Control_c, 2, 64, 60
3, 202487, Control_c, 2, 64, 44
3, 202497, Control_c, 2, 64, 28
3, 202504, Control_c, 2, 64, 12
3, 202515, Control_c, 2, 64, 0
3, 202600, Control_c, 2, 64, 12
3, 202615, Control_c, 2, 64, 28
3, 202623, Control_c, 2, 64, 44
3, 202630, Control_c, 2, 64, 60
3, 202635, Control_c, 2, 64, 64
3, 202638, Control_c, 2, 64, 68
3, 202643, Control_c, 2, 64, 72
3, 202663, Control_c, 2, 64, 76
3, 202678, Control_c, 2, 64, 80
3, 202701, Control_c, 2, 64, 84
3, 202714, Control_c, 2, 64, 88
3, 202725, Control_c, 2, 64, 92
3, 202741, Control_c, 2, 64, 100
3, 202794, Control_c, 2, 67, 96
3, 202935, Control_c, 2, 67, 104
3, 203101, Control_c, 2, 67, 112
3, 203292, Control_c, 2, 64, 92
3, 203353, Control_c, 2, 64, 88
3, 203360, Control_c, 2, 64, 84
3, 203376, Control_c, 2, 64, 80
3, 203455, Control_c, 2, 64, 84
3, 203788, Control_c, 2, 64, 80
3, 203888, Control_c, 2, 64, 76
3, 203906, Control_c, 2, 64, 72
3, 203911, Control_c, 2, 64, 68
3, 203921, Control_c, 2, 64, 64
3, 203931, Control_c, 2, 64, 60
3, 203939, Control_c, 2, 64, 44
3, 204037, Control_c, 2, 64, 60
3, 204045, Control_c, 2, 64, 64
3, 204052, Control_c, 2, 64, 68
3, 204064, Control_c, 2, 64, 72
3, 204080, Control_c, 2, 64, 76
3, 204097, Control_c, 2, 64, 80
3, 204117, Control_c, 2, 64, 84
3, 204130, Control_c, 2, 64, 88
3, 204137, Control_c, 2, 64, 92
3, 204153, Control_c, 2, 64, 100
3, 205094, Control_c, 2, 64, 92
3, 205106, Control_c, 2, 64, 88
3, 205112, Control_c, 2, 64, 84
3, 205120, Control_c, 2, 64, 80
3, 205128, Control_c, 2, 64, 76
3, 205270, Control_c, 2, 64, 80
3, 205345, Control_c, 2, 64, 84
3, 205396, Control_c, 2, 64, 88
3, 205459, Control_c, 2, 64, 92
3, 205572, Control_c, 2, 64, 100
3, 206126, Control_c, 2, 64, 92
3, 206140, Control_c, 2, 64, 88
3, 206182, Control_c, 2, 64, 92
3, 206217, Control_c, 2, 64, 100
3, 206460, Control_c, 2, 64, 92
3, 206466, Control_c, 2, 64, 88
3, 206472, Control_c, 2, 64, 84
3, 206474, Control_c, 2, 64, 80
3, 206482, Control_c, 2, 64, 76
3, 206529, Control_c, 2, 64, 80
3, 206551, Control_c, 2, 64, 84
3, 206567, Control_c, 2, 64, 88
3, 206579, Control_c, 2, 64, 92
3, 206605, Control_c, 2, 64, 100
3, 207186, Control_c, 2, 64, 92
3, 207201, Control_c, 2, 64, 88
3, 207204, Control_c, 2, 64, 84
3, 207212, Control_c, 2, 64, 80
3, 207220, Control_c, 2, 64, 76
3, 207224, Control_c, 2, 64, 72
3, 207231, Control_c, 2, 64, 68
3, 207239, Control_c, 2, 64, 64
3, 207252, Control_c, 2, 64, 60
3, 207271, Control_c, 2, 64, 44
3, 207349, Control_c, 2, 64, 60
3, 207360, Control_c, 2, 64, 64
3, 207370, Control_c, 2, 64, 68
3, 207393, Control_c, 2, 64, 72
3, 207415, Control_c, 2, 64, 76
3, 207443, Control_c, 2, 64, 80
3, 207473, Control_c, 2, 64, 84
3, 207538, Control_c, 2, 64, 88
3, 207572, Control_c, 2, 64, 92
3, 207622, Control_c, 2, 64, 100
3, 207876, Control_c, 2, 64, 92
3, 207903, Control_c, 2, 64, 88
3, 207906, Control_c, 2, 64, 84
3, 207915, Control_c, 2, 64, 80
3, 207919, Control_c, 2, 64, 76
3, 207923, Control_c, 2, 64, 72
3, 207969, Control_c, 2, 64, 68
3, 207984, Control_c, 2, 64, 72
3, 208001, Control_c, 2, 64, 76
3, 208020, Control_c, 2, 64, 80
3, 208044, Control_c, 2, 64, 84
3, 208067, Control_c, 2, 64, 88
3, 208095, Control_c, 2, 64, 92
3, 208266, Control_c, 2, 64, 88
3, 208271, Control_c, 2, 64, 84
3, 208277, Control_c, 2, 64, 80
3, 208281, Control_c, 2, 64, 76
3, 208338, Control_c, 2, 64, 80
3, 208362, Control_c, 2, 64, 84
3, 208376, Control_c, 2, 64, 88
3, 208392, Control_c, 2, 64, 92
3, 208419, Control_c, 2, 64, 100
3, 208676, Control_c, 2, 64, 92
3, 208692, Control_c, 2, 64, 88
3, 208693, Control_c, 2, 64, 84
3, 208700, Control_c, 2, 64, 80
3, 208706, Control_c, 2, 64, 76
3, 208712, Control_c, 2, 64, 72
3, 208717, Control_c, 2, 64, 68
3, 208726, Control_c, 2, 64, 64
3, 208789, Control_c, 2, 64, 68
3, 208802, Control_c, 2, 64, 72
3, 208822, Control_c, 2, 64, 76
3, 208843, Control_c, 2, 64, 80
3, 208872, Control_c, 2, 64, 84
3, 208891, Control_c, 2, 64, 88
3, 208906, Control_c, 2, 64, 92
3, 208943, Control_c, 2, 64, 100
3, 209096, Control_c, 2, 64, 92
3, 209104, Control_c, 2, 64, 88
3, 209104, Control_c, 2, 64, 84
3, 209110, Control_c, 2, 64, 80
3, 209114, Control_c, 2, 64, 76
3, 209119, Control_c, 2, 64, 72
3, 209170, Control_c, 2, 64, 76
3, 209182, Control_c, 2, 64, 80
3, 209198, Control_c, 2, 64, 84
3, 209208, Control_c, 2, 64, 88
3, 209218, Control_c, 2, 64, 92
3, 209230, Control_c, 2, 64, 100
3, 209260, Control_c, 2, 64, 112
3, 209597, Control_c, 2, 64, 100
3, 209617, Control_c, 2, 64, 92
3, 209628, Control_c, 2, 64, 88
3, 209630, Control_c, 2, 64, 84
3, 209637, Control_c, 2, 64, 80
3, 209640, Control_c, 2, 64, 76
3, 209650, Control_c, 2, 64, 72
3, 209658, Control_c, 2, 64, 68
3, 209671, Control_c, 2, 64, 64
3, 209696, Control_c, 2, 64, 60
3, 209788, Control_c, 2, 64, 64
3, 209814, Control_c, 2, 64, 68
3, 209831, Control_c, 2, 64, 72
3, 209856, Control_c, 2, 64, 76
3, 209885, Control_c, 2, 64, 80
3, 209934, Control_c, 2, 64, 84
3, 210144, Control_c, 2, 64, 88
3, 210254, Control_c, 2, 64, 92
3, 210313, Control_c, 2, 64, 100
3, 210756, Control_c, 2, 64, 92
3, 210763, Control_c, 2, 64, 88
3, 210768, Control_c, 2, 64, 84
3, 210773, Control_c, 2, 64, 80
3, 210778, Control_c, 2, 64, 76
3, 210828, Control_c, 2, 64, 80
3, 210848, Control_c, 2, 64, 84
3, 210863, Control_c, 2, 64, 88
3, 210873, Control_c, 2, 64, 92
3, 210892, Control_c, 2, 64, 100
3, 210977, Control_c, 2, 64, 112
3, 211150, Control_c, 2, 64, 100
3, 211166, Control_c, 2, 64, 92
3, 211174, Control_c, 2, 64, 88
3, 211176, Control_c, 2, 64, 84
3, 211179, Control_c, 2, 64, 80
3, 211183, Control_c, 2, 64, 76
3, 211188, Control_c, 2, 64, 72
3, 211190, Control_c, 2, 64, 68
3, 211199, Control_c, 2, 64, 64
3, 211221, Control_c, 2, 64, 60
3, 211257, Control_c, 2, 64, 64
3, 211263, Control_c, 2, 64, 68
3, 211271, Control_c, 2, 64, 72
3, 211279, Control_c, 2, 64, 76
3, 211287, Control_c, 2, 64, 80
3, 211299, Control_c, 2, 64, 84
3, 211309, Control_c, 2, 64, 88
3, 211314, Control_c, 2, 64, 92
3, 211321, Control_c, 2, 64, 100
3, 211335, Control_c, 2, 64, 112
3, 211349, Control_c, 2, 64, 127
3, 211593, Control_c, 2, 64, 112
3, 211619, Control_c, 2, 64, 100
3, 211634, Control_c, 2, 64, 92
3, 211638, Control_c, 2, 64, 88
3, 211642, Control_c, 2, 64, 84
3, 211645, Control_c, 2, 64, 80
3, 211646, Control_c, 2, 64, 76
3, 211651, Control_c, 2, 64, 72
3, 211664, Control_c, 2, 64, 68
3, 211716, Control_c, 2, 64, 72
3, 211735, Control_c, 2, 64, 76
3, 211745, Control_c, 2, 64, 80
3, 211761, Control_c, 2, 64, 84
3, 211776, Control_c, 2, 64, 88
3, 211783, Control_c, 2, 64, 92
3, 211803, Control_c, 2, 64, 100
3, 212092, Control_c, 2, 64, 112
3, 212436, Control_c, 2, 64, 100
3, 212612, Control_c, 2, 64, 92
3, 212636, Control_c, 2, 64, 88
3, 212641, Control_c, 2, 64, 84
3, 212652, Control_c, 2, 64, 80
3, 212660, Control_c, 2, 64, 76
3, 212674, Control_c, 2, 64, 72
3, 212686, Control_c, 2, 64, 68
3, 212708, Control_c, 2, 64, 64
3, 212748, Control_c, 2, 64, 60
3, 212817, Control_c, 2, 64, 44
3, 212968, Control_c, 2, 64, 28
3, 213103, Control_c, 2, 64, 12
3, 213276, Control_c, 2, 64, 0
3, 213276, End_track
0, 0, End_of_file
