0, 0, Header, 1, 3, 240
1, 0, Start_track
1, 0, Time_signature, 4, 2, 24, 8
1, 0, Tempo, 500000
1, 0, End_track
2, 0, Start_track
2, 0, Text_t, "Piano (Left & Right)"
2, 559, Note_on_c, 0, 76, 60
2, 699, Control_c, 0, 67, 127
2, 748, Note_on_c, 0, 48, 52
2, 768, Note_off_c, 0, 48, 64
2, 850, Note_on_c, 0, 77, 56
2, 896, Note_off_c, 0, 76, 64
2, 899, Note_on_c, 0, 79, 62
2, 916, Note_off_c, 0, 77, 64
2, 921, Note_on_c, 0, 72, 68
2, 926, Note_on_c, 0, 52, 57
2, 932, Note_off_c, 0, 79, 64
2, 939, Note_off_c, 0, 72, 64
2, 948, Note_off_c, 0, 52, 64
2, 1102, Note_on_c, 0, 74, 67
2, 1108, Note_on_c, 0, 71, 56
2, 1115, Note_on_c, 0, 55, 53
2, 1120, Note_off_c, 0, 74, 64
2, 1125, Note_off_c, 0, 71, 64
2, 1135, Note_off_c, 0, 55, 64
2, 1291, Note_on_c, 0, 74, 69
2, 1298, Note_on_c, 0, 71, 60
2, 1301, Note_on_c, 0, 60, 52
2, 1332, Note_off_c, 0, 60, 64
2, 1380, Note_off_c, 0, 71, 64
2, 1463, Note_off_c, 0, 74, 64
2, 1478, Note_on_c, 0, 77, 68
2, 1483, Note_on_c, 0, 48, 42
2, 1492, Note_on_c, 0, 72, 48
2, 1531, Note_on_c, 0, 76, 65
2, 1536, Note_off_c, 0, 48, 64
2, 1558, Note_off_c, 0, 77, 64
2, 1568, Note_off_c, 0, 72, 64
2, 1601, Note_off_c, 0, 76, 64
2, 1671, Note_on_c, 0, 74, 53
2, 1671, Note_on_c, 0, 55, 47
2, 1673, Note_on_c, 0, 71, 49
2, 1704, Note_off_c, 0, 55, 64
2, 1862, Note_on_c, 0, 43, 56
2, 1880, Note_off_c, 0, 74, 64
2, 1885, Note_off_c, 0, 43, 64
2, 1961, Note_off_c, 0, 71, 64
2, 2076, Note_on_c, 0, 76, 58
2, 2265, Note_on_c, 0, 48, 51
2, 2285, Note_off_c, 0, 48, 64
2, 2364, Note_on_c, 0, 77, 50
2, 2412, Note_off_c, 0, 76, 64
2, 2412, Note_on_c, 0, 79, 60
2, 2426, Note_off_c, 0, 77, 64
2, 2438, Note_on_c, 0, 72, 67
2, 2442, Note_on_c, 0, 52, 63
2, 2448, Note_off_c, 0, 79, 64
2, 2457, Note_off_c, 0, 72, 64
2, 2464, Note_off_c, 0, 52, 64
2, 2625, Note_on_c, 0, 74, 71
2, 2630, Note_on_c, 0, 71, 59
2, 2630, Note_on_c, 0, 55, 62
2, 2642, Note_off_c, 0, 74, 64
2, 2645, Note_off_c, 0, 71, 64
2, 2653, Note_off_c, 0, 55, 64
2, 2814, Note_on_c, 0, 77, 75
2, 2815, Note_on_c, 0, 74, 65
2, 2819, Note_on_c, 0, 60, 61
2, 2841, Note_off_c, 0, 60, 64
2, 2864, Note_off_c, 0, 74, 64
2, 2922, Control_c, 0, 64, 127
2, 2964, Note_off_c, 0, 77, 64
2, 3003, Note_on_c, 0, 76, 65
2, 3005, Note_on_c, 0, 48, 55
2, 3005, Note_on_c, 0, 72, 58
2, 3011, Control_c, 0, 64, 0
2, 3023, Note_off_c, 0, 76, 64
2, 3030, Note_on_c, 0, 77, 65
2, 3043, Note_off_c, 0, 48, 64
2, 3058, Note_off_c, 0, 72, 64
2, 3073, Note_on_c, 0, 76, 69
2, 3089, Note_off_c, 0, 77, 64
2, 3110, Note_off_c, 0, 76, 64
2, 3110, Note_on_c, 0, 74, 64
2, 3146, Note_off_c, 0, 74, 64
2, 3156, Note_on_c, 0, 76, 61
2, 3187, Note_on_c, 0, 55, 50
2, 3197, Note_on_c, 0, 71, 49
2, 3199, Note_off_c, 0, 76, 64
2, 3204, Note_on_c, 0, 74, 58
2, 3214, Note_off_c, 0, 55, 64
2, 3386, Note_on_c, 0, 43, 56
2, 3393, Note_off_c, 0, 74, 64
2, 3397, Note_off_c, 0, 71, 64
2, 3408, Note_off_c, 0, 43, 64
2, 3616, Note_on_c, 0, 77, 54
2, 3625, Note_on_c, 0, 57, 37
2, 3820, Note_on_c, 0, 60, 38
2, 3833, Control_c, 0, 64, 127
2, 3876, Note_off_c, 0, 57, 64
2, 3889, Control_c, 0, 64, 0
2, 3899, Note_off_c, 0, 77, 64
2, 3929, Note_on_c, 0, 79, 54
2, 3960, Note_on_c, 0, 77, 68
2, 3982, Note_off_c, 0, 60, 64
2, 3984, Note_off_c, 0, 79, 64
2, 3996, Note_on_c, 0, 55, 40
2, 4000, Note_on_c, 0, 76, 58
2, 4002, Note_off_c, 0, 77, 64
2, 4014, Note_off_c, 0, 76, 64
2, 4186, Note_on_c, 0, 76, 62
2, 4199, Note_on_c, 0, 60, 36
2, 4207, Note_off_c, 0, 76, 64
2, 4346, Note_off_c, 0, 60, 64
2, 4379, Note_on_c, 0, 81, 73
2, 4398, Note_on_c, 0, 53, 39
2, 4435, Note_off_c, 0, 55, 64
2, 4563, Note_on_c, 0, 60, 41
2, 4563, Control_c, 0, 64, 127
2, 4659, Note_on_c, 0, 83, 63
2, 4669, Note_off_c, 0, 81, 64
2, 4702, Note_on_c, 0, 84, 67
2, 4702, Control_c, 0, 64, 0
2, 4715, Note_off_c, 0, 83, 64
2, 4732, Note_off_c, 0, 60, 64
2, 4735, Note_on_c, 0, 79, 63
2, 4742, Note_on_c, 0, 52, 44
2, 4747, Note_off_c, 0, 84, 64
2, 4755, Note_off_c, 0, 79, 64
2, 4798, Note_off_c, 0, 53, 64
2, 4921, Note_on_c, 0, 79, 63
2, 4938, Note_on_c, 0, 60, 39
2, 4941, Note_off_c, 0, 79, 64
2, 4973, Note_off_c, 0, 60, 64
2, 4973, Note_off_c, 0, 52, 64
2, 5099, Note_on_c, 0, 79, 69
2, 5188, Note_on_c, 0, 77, 69
2, 5200, Note_off_c, 0, 79, 64
2, 5211, Note_off_c, 0, 77, 64
2, 5275, Note_on_c, 0, 77, 70
2, 5285, Note_on_c, 0, 67, 39
2, 5291, Note_on_c, 0, 59, 38
2, 5344, Note_off_c, 0, 59, 64
2, 5345, Note_off_c, 0, 67, 64
2, 5348, Note_off_c, 0, 77, 64
2, 5366, Note_on_c, 0, 74, 67
2, 5384, Note_off_c, 0, 74, 64
2, 5464, Note_on_c, 0, 77, 76
2, 5547, Note_on_c, 0, 76, 66
2, 5570, Note_off_c, 0, 76, 64
2, 5575, Note_off_c, 0, 77, 64
2, 5641, Note_on_c, 0, 76, 66
2, 5641, Note_on_c, 0, 60, 58
2, 5645, Note_on_c, 0, 67, 51
2, 5666, Note_off_c, 0, 67, 64
2, 5668, Note_off_c, 0, 60, 64
2, 5698, Note_off_c, 0, 76, 64
2, 5728, Note_on_c, 0, 72, 68
2, 5815, Note_off_c, 0, 72, 64
2, 5817, Note_on_c, 0, 73, 74
2, 5819, Note_on_c, 0, 55, 48
2, 5825, Note_on_c, 0, 59, 45
2, 5908, Note_on_c, 0, 74, 73
2, 5916, Note_off_c, 0, 73, 64
2, 5973, Note_off_c, 0, 74, 64
2, 5998, Note_on_c, 0, 76, 73
2, 6044, Note_off_c, 0, 76, 64
2, 6086, Note_on_c, 0, 74, 64
2, 6117, Note_off_c, 0, 74, 64
2, 6167, Note_on_c, 0, 72, 70
2, 6197, Note_off_c, 0, 72, 64
2, 6258, Note_on_c, 0, 71, 69
2, 6263, Note_off_c, 0, 59, 64
2, 6275, Note_off_c, 0, 71, 64
2, 6280, Note_off_c, 0, 55, 64
2, 6338, Note_on_c, 0, 69, 68
2, 6363, Note_off_c, 0, 69, 64
2, 6431, Note_on_c, 0, 67, 64
2, 6452, Note_off_c, 0, 67, 64
2, 6521, Note_on_c, 0, 76, 85
2, 6526, Note_on_c, 0, 36, 68
2, 6547, Control_c, 0, 67, 0
2, 6555, Note_off_c, 0, 36, 64
2, 6625, Note_on_c, 0, 40, 59
2, 6647, Note_off_c, 0, 40, 64
2, 6697, Note_on_c, 0, 43, 66
2, 6718, Note_off_c, 0, 43, 64
2, 6788, Note_on_c, 0, 77, 61
2, 6796, Note_on_c, 0, 48, 64
2, 6799, Note_off_c, 0, 76, 64
2, 6822, Note_off_c, 0, 48, 64
2, 6826, Note_on_c, 0, 79, 69
2, 6849, Note_on_c, 0, 72, 75
2, 6859, Note_off_c, 0, 77, 64
2, 6862, Note_off_c, 0, 79, 64
2, 6867, Note_off_c, 0, 72, 64
2, 6867, Note_on_c, 0, 40, 70
2, 6887, Note_off_c, 0, 40, 64
2, 6950, Note_on_c, 0, 52, 71
2, 6972, Note_off_c, 0, 52, 64
2, 7027, Note_on_c, 0, 74, 73
2, 7033, Note_on_c, 0, 43, 67
2, 7033, Note_on_c, 0, 71, 70
2, 7048, Note_off_c, 0, 74, 64
2, 7050, Note_off_c, 0, 71, 64
2, 7050, Note_off_c, 0, 43, 64
2, 7119, Note_on_c, 0, 55, 69
2, 7136, Note_off_c, 0, 55, 64
2, 7199, Note_on_c, 0, 74, 79
2, 7203, Note_on_c, 0, 71, 73
2, 7212, Note_on_c, 0, 48, 70
2, 7239, Note_off_c, 0, 48, 64
2, 7292, Note_off_c, 0, 71, 64
2, 7300, Note_on_c, 0, 52, 65
2, 7330, Note_off_c, 0, 74, 64
2, 7337, Note_off_c, 0, 52, 64
2, 7368, Note_on_c, 0, 77, 76
2, 7382, Note_on_c, 0, 55, 69
2, 7388, Note_on_c, 0, 72, 64
2, 7403, Note_on_c, 0, 76, 75
2, 7420, Note_off_c, 0, 77, 64
2, 7423, Note_off_c, 0, 55, 64
2, 7459, Note_on_c, 0, 60, 62
2, 7473, Note_off_c, 0, 72, 64
2, 7478, Note_off_c, 0, 60, 64
2, 7478, Control_c, 0, 64, 127
2, 7512, Control_c, 0, 64, 0
2, 7547, Note_off_c, 0, 76, 64
2, 7553, Note_on_c, 0, 74, 72
2, 7554, Note_on_c, 0, 71, 70
2, 7554, Note_on_c, 0, 43, 62
2, 7586, Note_off_c, 0, 43, 64
2, 7646, Note_on_c, 0, 47, 70
2, 7675, Note_off_c, 0, 47, 64
2, 7733, Note_on_c, 0, 50, 63
2, 7745, Note_off_c, 0, 71, 64
2, 7763, Note_off_c, 0, 50, 64
2, 7793, Note_off_c, 0, 74, 64
2, 7821, Note_on_c, 0, 55, 62
2, 7840, Note_off_c, 0, 55, 64
2, 7908, Note_on_c, 0, 76, 87
2, 7916, Note_on_c, 0, 36, 78
2, 7937, Note_off_c, 0, 36, 64
2, 8004, Note_on_c, 0, 40, 64
2, 8028, Note_off_c, 0, 40, 64
2, 8089, Note_on_c, 0, 43, 66
2, 8112, Note_off_c, 0, 43, 64
2, 8183, Note_on_c, 0, 77, 58
2, 8184, Note_on_c, 0, 48, 57
2, 8201, Note_off_c, 0, 76, 64
2, 8204, Note_off_c, 0, 48, 64
2, 8224, Note_on_c, 0, 79, 72
2, 8251, Note_on_c, 0, 40, 69
2, 8252, Note_on_c, 0, 72, 72
2, 8263, Note_off_c, 0, 79, 64
2, 8271, Note_off_c, 0, 72, 64
2, 8271, Note_off_c, 0, 77, 64
2, 8273, Note_off_c, 0, 40, 64
2, 8332, Note_on_c, 0, 52, 63
2, 8354, Note_off_c, 0, 52, 64
2, 8420, Note_on_c, 0, 43, 70
2, 8420, Note_on_c, 0, 74, 68
2, 8423, Note_on_c, 0, 71, 69
2, 8440, Note_off_c, 0, 43, 64
2, 8445, Note_off_c, 0, 74, 64
2, 8450, Note_off_c, 0, 71, 64
2, 8498, Note_on_c, 0, 55, 62
2, 8518, Note_off_c, 0, 55, 64
2, 8591, Note_on_c, 0, 77, 80
2, 8592, Note_on_c, 0, 74, 76
2, 8595, Note_on_c, 0, 48, 74
2, 8626, Note_off_c, 0, 48, 64
2, 8668, Note_on_c, 0, 52, 71
2, 8684, Note_off_c, 0, 74, 64
2, 8684, Control_c, 0, 64, 127
2, 8715, Note_off_c, 0, 77, 64
2, 8744, Note_on_c, 0, 55, 72
2, 8760, Note_off_c, 0, 52, 64
2, 8760, Note_on_c, 0, 76, 66
2, 8760, Note_on_c, 0, 72, 67
2, 8780, Note_off_c, 0, 76, 64
2, 8787, Note_on_c, 0, 77, 63
2, 8788, Note_off_c, 0, 55, 64
2, 8812, Note_off_c, 0, 72, 64
2, 8813, Note_on_c, 0, 60, 63
2, 8820, Control_c, 0, 64, 0
2, 8822, Note_on_c, 0, 76, 68
2, 8828, Note_off_c, 0, 60, 64
2, 8845, Note_off_c, 0, 77, 64
2, 8858, Note_on_c, 0, 74, 73
2, 8860, Note_off_c, 0, 76, 64
2, 8879, Note_on_c, 0, 71, 50
2, 8895, Note_off_c, 0, 74, 64
2, 8896, Note_off_c, 0, 71, 64
2, 8901, Note_on_c, 0, 76, 65
2, 8923, Note_on_c, 0, 43, 59
2, 8923, Note_on_c, 0, 77, 35
2, 8931, Note_on_c, 0, 74, 67
2, 8933, Note_on_c, 0, 71, 65
2, 8946, Note_off_c, 0, 76, 64
2, 8949, Note_off_c, 0, 77, 64
2, 8949, Note_off_c, 0, 43, 64
2, 9011, Note_on_c, 0, 47, 66
2, 9032, Note_off_c, 0, 47, 64
2, 9107, Note_on_c, 0, 50, 48
2, 9129, Note_off_c, 0, 50, 64
2, 9129, Note_off_c, 0, 74, 64
2, 9174, Note_off_c, 0, 71, 64
2, 9193, Note_on_c, 0, 55, 59
2, 9213, Note_off_c, 0, 55, 64
2, 9286, Note_on_c, 0, 77, 72
2, 9288, Note_on_c, 0, 57, 64
2, 9301, Control_c, 0, 67, 127
2, 9320, Note_off_c, 0, 57, 64
2, 9384, Note_on_c, 0, 60, 57
2, 9407, Note_off_c, 0, 60, 64
2, 9469, Note_on_c, 0, 57, 61
2, 9500, Note_off_c, 0, 57, 64
2, 9532, Note_off_c, 0, 77, 64
2, 9554, Note_on_c, 0, 60, 55
2, 9558, Note_on_c, 0, 79, 58
2, 9580, Note_off_c, 0, 60, 64
2, 9587, Note_on_c, 0, 77, 73
2, 9603, Note_off_c, 0, 79, 64
2, 9616, Note_on_c, 0, 76, 78
2, 9630, Note_off_c, 0, 77, 64
2, 9630, Note_on_c, 0, 55, 60
2, 9643, Note_off_c, 0, 76, 64
2, 9659, Note_off_c, 0, 55, 64
2, 9716, Note_on_c, 0, 60, 58
2, 9748, Note_off_c, 0, 60, 64
2, 9800, Note_on_c, 0, 76, 73
2, 9806, Note_on_c, 0, 55, 61
2, 9814, Note_off_c, 0, 76, 64
2, 9829, Note_off_c, 0, 55, 64
2, 9883, Note_on_c, 0, 60, 61
2, 9910, Note_off_c, 0, 60, 64
2, 9973, Note_on_c, 0, 81, 83
2, 9981, Note_on_c, 0, 53, 60
2, 10001, Note_off_c, 0, 53, 64
2, 10060, Note_on_c, 0, 60, 69
2, 10087, Note_off_c, 0, 60, 64
2, 10149, Note_on_c, 0, 53, 77
2, 10179, Note_off_c, 0, 53, 64
2, 10240, Note_on_c, 0, 83, 74
2, 10240, Note_on_c, 0, 60, 69
2, 10252, Note_off_c, 0, 81, 64
2, 10265, Note_off_c, 0, 60, 64
2, 10272, Note_on_c, 0, 84, 67
2, 10290, Note_off_c, 0, 83, 64
2, 10310, Note_on_c, 0, 79, 79
2, 10323, Note_on_c, 0, 52, 79
2, 10345, Note_off_c, 0, 84, 64
2, 10346, Note_off_c, 0, 79, 64
2, 10347, Note_off_c, 0, 52, 64
2, 10406, Note_on_c, 0, 60, 76
2, 10424, Note_off_c, 0, 60, 64
2, 10489, Note_on_c, 0, 79, 77
2, 10493, Note_on_c, 0, 52, 72
2, 10517, Note_off_c, 0, 79, 64
2, 10519, Note_off_c, 0, 52, 64
2, 10576, Note_on_c, 0, 60, 72
2, 10594, Note_off_c, 0, 60, 64
2, 10669, Note_on_c, 0, 80, 87
2, 10750, Note_on_c, 0, 81, 77
2, 10798, Note_off_c, 0, 80, 64
2, 10829, Note_off_c, 0, 81, 64
2, 10833, Note_on_c, 0, 77, 78
2, 10836, Note_on_c, 0, 53, 48
2, 10836, Note_on_c, 0, 62, 57
2, 10857, Note_off_c, 0, 62, 64
2, 10857, Note_off_c, 0, 53, 64
2, 10895, Note_off_c, 0, 77, 64
2, 10909, Note_on_c, 0, 74, 75
2, 10970, Note_off_c, 0, 74, 64
2, 11008, Note_on_c, 0, 72, 74
2, 11018, Note_on_c, 0, 64, 59
2, 11019, Note_on_c, 0, 55, 50
2, 11193, Note_off_c, 0, 64, 64
2, 11196, Note_off_c, 0, 72, 64
2, 11196, Note_on_c, 0, 71, 66
2, 11206, Note_on_c, 0, 62, 52
2, 11342, Note_off_c, 0, 71, 64
2, 11357, Note_off_c, 0, 62, 64
2, 11388, Note_on_c, 0, 72, 72
2, 11398, Note_off_c, 0, 55, 64
2, 11400, Note_on_c, 0, 64, 44
2, 11404, Note_on_c, 0, 60, 38
2, 11435, Note_off_c, 0, 72, 64
2, 11448, Note_on_c, 0, 67, 67
2, 11466, Note_off_c, 0, 67, 64
2, 11514, Note_on_c, 0, 76, 73
2, 11528, Note_off_c, 0, 76, 64
2, 11563, Note_on_c, 0, 72, 70
2, 11581, Note_off_c, 0, 72, 64
2, 11627, Note_on_c, 0, 79, 72
2, 11644, Note_off_c, 0, 79, 64
2, 11679, Note_on_c, 0, 76, 60
2, 11695, Note_off_c, 0, 76, 64
2, 11735, Note_on_c, 0, 84, 86
2, 11760, Note_off_c, 0, 64, 64
2, 11765, Note_off_c, 0, 60, 64
2, 11792, Note_on_c, 0, 83, 80
2, 11806, Note_off_c, 0, 84, 64
2, 11851, Note_on_c, 0, 81, 76
2, 11858, Note_off_c, 0, 83, 64
2, 11909, Note_off_c, 0, 81, 64
2, 11909, Note_on_c, 0, 79, 72
2, 11954, Note_off_c, 0, 79, 64
2, 11967, Note_on_c, 0, 77, 66
2, 11991, Note_off_c, 0, 77, 64
2, 12022, Note_on_c, 0, 76, 59
2, 12070, Note_off_c, 0, 76, 64
2, 12074, Note_on_c, 0, 73, 77
2, 12109, Note_off_c, 0, 73, 64
2, 12132, Note_on_c, 0, 74, 68
2, 12175, Note_off_c, 0, 74, 64
2, 12193, Note_on_c, 0, 77, 58
2, 12223, Note_off_c, 0, 77, 64
2, 12241, Note_on_c, 0, 62, 58
2, 12241, Note_on_c, 0, 57, 51
2, 12241, Note_on_c, 0, 81, 76
2, 12243, Note_on_c, 0, 53, 41
2, 12261, Note_off_c, 0, 62, 64
2, 12264, Note_off_c, 0, 57, 64
2, 12268, Note_off_c, 0, 53, 64
2, 12301, Note_on_c, 0, 77, 68
2, 12307, Note_off_c, 0, 81, 64
2, 12353, Note_off_c, 0, 77, 64
2, 12359, Note_on_c, 0, 74, 60
2, 12410, Note_on_c, 0, 55, 59
2, 12410, Note_on_c, 0, 79, 77
2, 12411, Note_on_c, 0, 64, 64
2, 12415, Note_on_c, 0, 60, 48
2, 12421, Note_off_c, 0, 74, 64
2, 12440, Note_off_c, 0, 60, 64
2, 12441, Note_off_c, 0, 64, 64
2, 12467, Note_on_c, 0, 76, 66
2, 12473, Note_off_c, 0, 79, 64
2, 12522, Note_off_c, 0, 76, 64
2, 12522, Note_on_c, 0, 72, 61
2, 12581, Note_on_c, 0, 65, 66
2, 12583, Note_on_c, 0, 77, 72
2, 12586, Note_on_c, 0, 62, 55
2, 12588, Note_off_c, 0, 72, 64
2, 12618, Note_off_c, 0, 65, 64
2, 12636, Note_on_c, 0, 74, 62
2, 12654, Note_off_c, 0, 77, 64
2, 12692, Note_off_c, 0, 74, 64
2, 12694, Note_on_c, 0, 71, 65
2, 12712, Note_off_c, 0, 62, 64
2, 12720, Note_off_c, 0, 71, 64
2, 12744, Note_on_c, 0, 72, 77
2, 12747, Note_on_c, 0, 64, 64
2, 12749, Note_on_c, 0, 60, 61
2, 12770, Note_off_c, 0, 55, 64
2, 12780, Note_off_c, 0, 64, 64
2, 12797, Note_off_c, 0, 60, 64
2, 12800, Note_off_c, 0, 72, 64
2, 12802, Note_on_c, 0, 67, 75
2, 12820, Control_c, 0, 67, 0
2, 12832, Note_off_c, 0, 67, 64
2, 12864, Note_on_c, 0, 76, 81
2, 12886, Note_off_c, 0, 76, 64
2, 12913, Note_on_c, 0, 72, 78
2, 12941, Note_off_c, 0, 72, 64
2, 12978, Note_on_c, 0, 79, 61
2, 12996, Note_off_c, 0, 79, 64
2, 13020, Note_on_c, 0, 76, 73
2, 13039, Note_off_c, 0, 76, 64
2, 13084, Note_on_c, 0, 84, 88
2, 13137, Note_on_c, 0, 83, 84
2, 13192, Note_on_c, 0, 81, 77
2, 13215, Note_off_c, 0, 84, 64
2, 13228, Note_off_c, 0, 83, 64
2, 13246, Note_on_c, 0, 79, 79
2, 13263, Note_off_c, 0, 81, 64
2, 13287, Note_off_c, 0, 79, 64
2, 13295, Note_on_c, 0, 77, 72
2, 13323, Note_off_c, 0, 77, 64
2, 13346, Note_on_c, 0, 76, 67
2, 13401, Note_off_c, 0, 76, 64
2, 13402, Note_on_c, 0, 73, 85
2, 13439, Note_off_c, 0, 73, 64
2, 13453, Note_on_c, 0, 74, 72
2, 13507, Note_on_c, 0, 77, 76
2, 13514, Note_off_c, 0, 74, 64
2, 13547, Note_off_c, 0, 77, 64
2, 13557, Note_on_c, 0, 81, 85
2, 13570, Note_on_c, 0, 57, 54
2, 13575, Note_on_c, 0, 62, 62
2, 13575, Note_on_c, 0, 53, 39
2, 13593, Note_off_c, 0, 57, 64
2, 13598, Note_off_c, 0, 62, 64
2, 13603, Note_off_c, 0, 53, 64
2, 13617, Note_on_c, 0, 77, 73
2, 13633, Note_off_c, 0, 81, 64
2, 13673, Note_on_c, 0, 74, 65
2, 13676, Note_off_c, 0, 77, 64
2, 13710, Note_off_c, 0, 74, 64
2, 13724, Note_on_c, 0, 60, 66
2, 13724, Note_on_c, 0, 64, 72
2, 13725, Note_on_c, 0, 79, 75
2, 13725, Note_on_c, 0, 55, 60
2, 13766, Note_off_c, 0, 60, 64
2, 13769, Note_off_c, 0, 64, 64
2, 13783, Note_on_c, 0, 76, 73
2, 13801, Note_off_c, 0, 79, 64
2, 13847, Note_off_c, 0, 76, 64
2, 13847, Note_on_c, 0, 72, 72
2, 13880, Note_off_c, 0, 72, 64
2, 13902, Note_on_c, 0, 65, 71
2, 13903, Note_on_c, 0, 77, 80
2, 13909, Note_on_c, 0, 62, 59
2, 13924, Note_off_c, 0, 65, 64
2, 13937, Note_off_c, 0, 62, 64
2, 13952, Note_on_c, 0, 74, 79
2, 13970, Note_off_c, 0, 77, 64
2, 14013, Note_on_c, 0, 71, 79
2, 14017, Note_off_c, 0, 74, 64
2, 14064, Note_on_c, 0, 72, 91
2, 14072, Note_on_c, 0, 60, 66
2, 14076, Note_on_c, 0, 64, 68
2, 14083, Note_off_c, 0, 55, 64
2, 14086, Note_off_c, 0, 72, 64
2, 14088, Note_off_c, 0, 60, 64
2, 14093, Note_off_c, 0, 64, 64
2, 14116, Note_off_c, 0, 71, 64
2, 14260, Note_on_c, 0, 67, 91
2, 14265, Note_on_c, 0, 55, 73
2, 14279, Note_off_c, 0, 55, 64
2, 14279, Note_off_c, 0, 67, 64
2, 14453, Note_on_c, 0, 60, 91
2, 14460, Note_on_c, 0, 36, 78
2, 14460, Note_on_c, 0, 48, 75
2, 14479, Note_off_c, 0, 48, 64
2, 14479, Note_off_c, 0, 36, 64
2, 14484, Note_off_c, 0, 60, 64
2, 14513, Control_c, 0, 64, 127
2, 14645, Control_c, 0, 64, 0
2, 14871, Note_on_c, 0, 76, 69
2, 14881, Note_on_c, 0, 60, 35
2, 14969, Note_on_c, 0, 67, 42
2, 15030, Control_c, 0, 67, 127
2, 15062, Note_on_c, 0, 66, 41
2, 15064, Note_off_c, 0, 67, 64
2, 15112, Note_off_c, 0, 60, 64
2, 15120, Control_c, 0, 64, 127
2, 15133, Note_on_c, 0, 67, 44
2, 15209, Note_off_c, 0, 66, 64
2, 15216, Note_off_c, 0, 76, 64
2, 15217, Note_on_c, 0, 60, 43
2, 15221, Note_off_c, 0, 67, 64
2, 15247, Note_on_c, 0, 77, 61
2, 15251, Control_c, 0, 64, 0
2, 15282, Note_on_c, 0, 76, 67
2, 15284, Note_off_c, 0, 77, 64
2, 15300, Note_on_c, 0, 67, 41
2, 15301, Note_off_c, 0, 76, 64
2, 15309, Note_on_c, 0, 74, 71
2, 15337, Note_off_c, 0, 60, 64
2, 15344, Note_on_c, 0, 76, 78
2, 15355, Note_off_c, 0, 74, 64
2, 15360, Note_off_c, 0, 67, 64
2, 15390, Note_on_c, 0, 79, 75
2, 15399, Note_on_c, 0, 62, 41
2, 15412, Note_off_c, 0, 76, 64
2, 15482, Note_on_c, 0, 77, 76
2, 15483, Note_on_c, 0, 67, 41
2, 15535, Note_off_c, 0, 62, 64
2, 15551, Note_off_c, 0, 79, 64
2, 15566, Note_off_c, 0, 67, 64
2, 15568, Note_on_c, 0, 64, 46
2, 15568, Note_on_c, 0, 76, 75
2, 15596, Note_off_c, 0, 77, 64
2, 15652, Note_off_c, 0, 64, 64
2, 15652, Note_on_c, 0, 67, 38
2, 15654, Note_on_c, 0, 74, 68
2, 15670, Note_off_c, 0, 76, 64
2, 15725, Note_off_c, 0, 74, 64
2, 15739, Note_on_c, 0, 72, 60
2, 15745, Note_off_c, 0, 67, 64
2, 15750, Note_on_c, 0, 65, 43
2, 15810, Note_off_c, 0, 72, 64
2, 15820, Note_off_c, 0, 65, 64
2, 15820, Note_on_c, 0, 71, 59
2, 15828, Note_on_c, 0, 67, 42
2, 15906, Note_off_c, 0, 71, 64
2, 15916, Note_on_c, 0, 72, 55
2, 15918, Note_off_c, 0, 67, 64
2, 15929, Note_on_c, 0, 64, 48
2, 15972, Note_off_c, 0, 64, 64
2, 16002, Note_off_c, 0, 72, 64
2, 16024, Note_on_c, 0, 67, 39
2, 16100, Note_off_c, 0, 67, 64
2, 16101, Note_on_c, 0, 73, 76
2, 16120, Note_on_c, 0, 58, 48
2, 16122, Note_off_c, 0, 73, 64
2, 16164, Note_off_c, 0, 58, 64
2, 16193, Note_on_c, 0, 67, 47
2, 16270, Note_off_c, 0, 67, 64
2, 16283, Note_on_c, 0, 74, 71
2, 16294, Note_on_c, 0, 59, 48
2, 16299, Note_off_c, 0, 74, 64
2, 16329, Note_off_c, 0, 59, 64
2, 16364, Note_on_c, 0, 67, 47
2, 16450, Note_off_c, 0, 67, 64
2, 16464, Note_on_c, 0, 75, 72
2, 16470, Note_on_c, 0, 59, 44
2, 16480, Note_off_c, 0, 75, 64
2, 16512, Note_off_c, 0, 59, 64
2, 16540, Note_on_c, 0, 67, 45
2, 16587, Note_off_c, 0, 67, 64
2, 16640, Note_on_c, 0, 76, 68
2, 16650, Note_on_c, 0, 60, 43
2, 16660, Note_off_c, 0, 76, 64
2, 16733, Note_on_c, 0, 67, 47
2, 16784, Note_off_c, 0, 60, 64
2, 16812, Note_on_c, 0, 79, 74
2, 16814, Note_off_c, 0, 67, 64
2, 16837, Note_on_c, 0, 62, 43
2, 16890, Note_off_c, 0, 62, 64
2, 16898, Note_on_c, 0, 77, 76
2, 16915, Note_on_c, 0, 67, 43
2, 16925, Note_off_c, 0, 79, 64
2, 16946, Note_off_c, 0, 77, 64
2, 16983, Note_off_c, 0, 67, 64
2, 17000, Note_on_c, 0, 76, 76
2, 17008, Note_on_c, 0, 60, 42
2, 17092, Note_on_c, 0, 67, 42
2, 17184, Note_on_c, 0, 66, 40
2, 17189, Note_off_c, 0, 67, 64
2, 17237, Note_off_c, 0, 60, 64
2, 17258, Note_off_c, 0, 76, 64
2, 17273, Note_on_c, 0, 67, 35
2, 17280, Note_on_c, 0, 77, 55
2, 17281, Note_off_c, 0, 66, 64
2, 17320, Note_on_c, 0, 76, 60
2, 17323, Note_off_c, 0, 77, 64
2, 17338, Note_off_c, 0, 67, 64
2, 17360, Note_off_c, 0, 76, 64
2, 17360, Note_on_c, 0, 74, 54
2, 17369, Note_on_c, 0, 59, 46
2, 17457, Note_on_c, 0, 67, 44
2, 17467, Note_off_c, 0, 74, 64
2, 17534, Note_off_c, 0, 67, 64
2, 17540, Note_on_c, 0, 66, 39
2, 17589, Note_off_c, 0, 59, 64
2, 17625, Note_on_c, 0, 67, 44
2, 17640, Note_off_c, 0, 66, 64
2, 17705, Note_off_c, 0, 67, 64
2, 17712, Note_on_c, 0, 77, 72
2, 17740, Note_on_c, 0, 59, 35
2, 17814, Note_on_c, 0, 67, 37
2, 17902, Note_on_c, 0, 66, 37
2, 17905, Note_off_c, 0, 67, 64
2, 17907, Control_c, 0, 64, 127
2, 17970, Note_off_c, 0, 59, 64
2, 17970, Note_on_c, 0, 67, 51
2, 18020, Note_off_c, 0, 66, 64
2, 18038, Note_off_c, 0, 77, 64
2, 18051, Note_on_c, 0, 59, 46
2, 18061, Note_off_c, 0, 67, 64
2, 18076, Note_on_c, 0, 79, 61
2, 18103, Note_on_c, 0, 77, 66
2, 18115, Note_off_c, 0, 79, 64
2, 18131, Note_off_c, 0, 77, 64
2, 18138, Note_on_c, 0, 67, 51
2, 18139, Note_on_c, 0, 76, 69
2, 18143, Control_c, 0, 64, 0
2, 18161, Note_off_c, 0, 59, 64
2, 18169, Note_on_c, 0, 77, 76
2, 18186, Note_off_c, 0, 76, 64
2, 18222, Note_off_c, 0, 67, 64
2, 18224, Note_on_c, 0, 81, 73
2, 18242, Note_on_c, 0, 60, 42
2, 18247, Note_off_c, 0, 77, 64
2, 18319, Note_on_c, 0, 79, 75
2, 18328, Note_on_c, 0, 67, 43
2, 18348, Note_off_c, 0, 60, 64
2, 18348, Note_off_c, 0, 81, 64
2, 18398, Note_on_c, 0, 77, 73
2, 18412, Note_off_c, 0, 67, 64
2, 18420, Note_off_c, 0, 79, 64
2, 18420, Note_on_c, 0, 62, 41
2, 18468, Note_off_c, 0, 62, 64
2, 18481, Note_on_c, 0, 76, 71
2, 18495, Note_on_c, 0, 67, 46
2, 18503, Note_off_c, 0, 77, 64
2, 18546, Note_off_c, 0, 76, 64
2, 18566, Note_on_c, 0, 74, 64
2, 18578, Note_off_c, 0, 67, 64
2, 18582, Note_on_c, 0, 64, 51
2, 18622, Note_off_c, 0, 64, 64
2, 18642, Note_off_c, 0, 74, 64
2, 18645, Note_on_c, 0, 72, 66
2, 18654, Note_on_c, 0, 67, 47
2, 18730, Note_off_c, 0, 67, 64
2, 18738, Note_off_c, 0, 72, 64
2, 18738, Note_on_c, 0, 71, 66
2, 18748, Note_on_c, 0, 65, 45
2, 18753, Note_off_c, 0, 71, 64
2, 18775, Note_off_c, 0, 65, 64
2, 18818, Note_on_c, 0, 72, 68
2, 18828, Note_on_c, 0, 67, 44
2, 18839, Note_off_c, 0, 72, 64
2, 18861, Note_off_c, 0, 67, 64
2, 18904, Note_on_c, 0, 74, 72
2, 18914, Note_on_c, 0, 62, 50
2, 18916, Note_off_c, 0, 74, 64
2, 18934, Note_off_c, 0, 62, 64
2, 18987, Note_on_c, 0, 76, 67
2, 19004, Note_off_c, 0, 76, 64
2, 19005, Note_on_c, 0, 67, 44
2, 19032, Note_off_c, 0, 67, 64
2, 19070, Note_on_c, 0, 77, 72
2, 19080, Note_on_c, 0, 59, 53
2, 19088, Note_off_c, 0, 77, 64
2, 19103, Note_off_c, 0, 59, 64
2, 19153, Note_on_c, 0, 79, 71
2, 19165, Note_on_c, 0, 67, 56
2, 19168, Note_off_c, 0, 79, 64
2, 19184, Note_off_c, 0, 67, 64
2, 19234, Note_on_c, 0, 81, 71
2, 19244, Note_on_c, 0, 62, 56
2, 19248, Note_off_c, 0, 81, 64
2, 19264, Note_off_c, 0, 62, 64
2, 19317, Note_on_c, 0, 83, 74
2, 19331, Note_off_c, 0, 83, 64
2, 19331, Note_on_c, 0, 67, 54
2, 19351, Note_off_c, 0, 67, 64
2, 19397, Note_on_c, 0, 84, 75
2, 19413, Note_off_c, 0, 84, 64
2, 19414, Note_on_c, 0, 59, 43
2, 19438, Note_off_c, 0, 59, 64
2, 19480, Note_on_c, 0, 86, 79
2, 19483, Note_on_c, 0, 67, 53
2, 19493, Note_off_c, 0, 86, 64
2, 19507, Note_off_c, 0, 67, 64
2, 19561, Note_on_c, 0, 88, 75
2, 19569, Note_on_c, 0, 55, 43
2, 19578, Note_off_c, 0, 88, 64
2, 19590, Note_off_c, 0, 55, 64
2, 19639, Note_on_c, 0, 89, 76
2, 19646, Note_on_c, 0, 67, 50
2, 19654, Note_off_c, 0, 89, 64
2, 19697, Note_off_c, 0, 67, 64
2, 19731, Note_on_c, 0, 87, 82
2, 19742, Note_on_c, 0, 60, 48
2, 19767, Note_off_c, 0, 60, 64
2, 19825, Note_on_c, 0, 67, 60
2, 19847, Note_off_c, 0, 67, 64
2, 19911, Note_on_c, 0, 64, 60
2, 19933, Note_off_c, 0, 64, 64
2, 19996, Note_on_c, 0, 67, 61
2, 20026, Note_off_c, 0, 67, 64
2, 20082, Note_on_c, 0, 88, 60
2, 20097, Note_on_c, 0, 60, 42
2, 20104, Note_off_c, 0, 87, 64
2, 20133, Note_off_c, 0, 60, 64
2, 20180, Note_off_c, 0, 88, 64
2, 20185, Note_on_c, 0, 67, 38
2, 20207, Note_off_c, 0, 67, 64
2, 20279, Note_on_c, 0, 64, 35
2, 20330, Note_off_c, 0, 64, 64
2, 20363, Note_on_c, 0, 67, 42
2, 20472, Note_off_c, 0, 67, 64
2, 20496, Note_on_c, 0, 76, 62
2, 20514, Note_on_c, 0, 60, 35
2, 20592, Note_on_c, 0, 64, 45
2, 20595, Note_off_c, 0, 60, 64
2, 20658, Note_off_c, 0, 64, 64
2, 20671, Control_c, 0, 64, 127
2, 20674, Note_on_c, 0, 69, 46
2, 20738, Note_on_c, 0, 72, 51
2, 20782, Note_on_c, 0, 81, 62
2, 20826, Note_off_c, 0, 72, 64
2, 20834, Note_off_c, 0, 69, 64
2, 20844, Note_on_c, 0, 84, 61
2, 20889, Note_off_c, 0, 84, 64
2, 20889, Note_off_c, 0, 81, 64
2, 20891, Note_on_c, 0, 88, 78
2, 20905, Note_off_c, 0, 76, 64
2, 20945, Note_on_c, 0, 84, 77
2, 20963, Note_off_c, 0, 88, 64
2, 20995, Note_off_c, 0, 84, 64
2, 20995, Note_on_c, 0, 81, 77
2, 21025, Note_off_c, 0, 81, 64
2, 21036, Note_on_c, 0, 84, 75
2, 21089, Note_on_c, 0, 81, 79
2, 21108, Note_off_c, 0, 84, 64
2, 21139, Note_on_c, 0, 76, 72
2, 21144, Note_off_c, 0, 81, 64
2, 21158, Control_c, 0, 64, 0
2, 21160, Note_off_c, 0, 76, 64
2, 21202, Note_on_c, 0, 74, 72
2, 21215, Note_on_c, 0, 59, 46
2, 21269, Note_off_c, 0, 59, 64
2, 21277, Note_on_c, 0, 62, 54
2, 21335, Note_off_c, 0, 62, 64
2, 21342, Note_on_c, 0, 67, 56
2, 21406, Note_on_c, 0, 71, 52
2, 21418, Note_off_c, 0, 67, 64
2, 21423, Control_c, 0, 64, 127
2, 21463, Note_on_c, 0, 79, 62
2, 21504, Note_off_c, 0, 71, 64
2, 21527, Note_on_c, 0, 83, 60
2, 21567, Note_off_c, 0, 83, 64
2, 21579, Note_on_c, 0, 86, 67
2, 21592, Note_off_c, 0, 79, 64
2, 21627, Note_on_c, 0, 83, 77
2, 21633, Note_off_c, 0, 74, 64
2, 21642, Note_off_c, 0, 86, 64
2, 21682, Note_on_c, 0, 79, 75
2, 21684, Note_off_c, 0, 83, 64
2, 21696, Control_c, 0, 64, 0
2, 21718, Note_off_c, 0, 79, 64
2, 21731, Note_on_c, 0, 83, 80
2, 21781, Note_on_c, 0, 79, 79
2, 21793, Note_off_c, 0, 83, 64
2, 21834, Note_off_c, 0, 79, 64
2, 21834, Note_on_c, 0, 74, 67
2, 21892, Note_off_c, 0, 74, 64
2, 21892, Note_on_c, 0, 62, 50
2, 21894, Note_on_c, 0, 54, 45
2, 21899, Note_on_c, 0, 57, 44
2, 21951, Note_on_c, 0, 74, 71
2, 21967, Note_off_c, 0, 62, 64
2, 21982, Note_off_c, 0, 57, 64
2, 21983, Note_off_c, 0, 54, 64
2, 21997, Note_on_c, 0, 81, 74
2, 22018, Note_off_c, 0, 74, 64
2, 22045, Note_off_c, 0, 81, 64
2, 22052, Note_on_c, 0, 84, 72
2, 22101, Note_on_c, 0, 81, 70
2, 22110, Note_off_c, 0, 84, 64
2, 22154, Note_off_c, 0, 81, 64
2, 22166, Note_on_c, 0, 74, 56
2, 22204, Note_off_c, 0, 74, 64
2, 22234, Note_on_c, 0, 59, 40
2, 22238, Note_on_c, 0, 62, 40
2, 22242, Note_on_c, 0, 55, 35
2, 22277, Note_on_c, 0, 74, 61
2, 22307, Note_off_c, 0, 62, 64
2, 22321, Note_on_c, 0, 79, 69
2, 22335, Note_off_c, 0, 59, 64
2, 22339, Note_off_c, 0, 74, 64
2, 22342, Note_off_c, 0, 55, 64
2, 22362, Note_off_c, 0, 79, 64
2, 22370, Note_on_c, 0, 83, 75
2, 22425, Note_on_c, 0, 79, 75
2, 22448, Note_off_c, 0, 83, 64
2, 22464, Note_off_c, 0, 79, 64
2, 22468, Note_on_c, 0, 74, 69
2, 22538, Note_on_c, 0, 81, 73
2, 22540, Note_on_c, 0, 50, 51
2, 22574, Note_off_c, 0, 74, 64
2, 22604, Control_c, 0, 67, 0
2, 22605, Note_off_c, 0, 50, 64
2, 22624, Note_on_c, 0, 62, 47
2, 22667, Note_off_c, 0, 81, 64
2, 22672, Note_on_c, 0, 78, 59
2, 22690, Note_off_c, 0, 62, 64
2, 22693, Control_c, 0, 67, 127
2, 22704, Note_off_c, 0, 78, 64
2, 22704, Note_on_c, 0, 74, 69
2, 22710, Note_on_c, 0, 61, 58
2, 22803, Note_on_c, 0, 62, 56
2, 22811, Note_off_c, 0, 61, 64
2, 22855, Note_off_c, 0, 74, 64
2, 22888, Note_on_c, 0, 61, 57
2, 22913, Note_off_c, 0, 62, 64
2, 22977, Note_on_c, 0, 62, 60
2, 22981, Note_off_c, 0, 61, 64
2, 23077, Note_on_c, 0, 60, 63
2, 23098, Note_off_c, 0, 62, 64
2, 23163, Note_on_c, 0, 62, 59
2, 23213, Note_on_c, 0, 67, 56
2, 23218, Note_off_c, 0, 60, 64
2, 23260, Note_on_c, 0, 79, 79
2, 23273, Note_on_c, 0, 59, 38
2, 23276, Note_off_c, 0, 62, 64
2, 23314, Note_off_c, 0, 67, 64
2, 23366, Note_on_c, 0, 62, 38
2, 23464, Note_off_c, 0, 59, 64
2, 23464, Note_on_c, 0, 55, 40
2, 23470, Note_off_c, 0, 62, 64
2, 23547, Note_on_c, 0, 62, 40
2, 23599, Control_c, 0, 64, 127
2, 23651, Note_on_c, 0, 59, 36
2, 23665, Note_off_c, 0, 62, 64
2, 23687, Note_off_c, 0, 55, 64
2, 23732, Note_on_c, 0, 78, 59
2, 23741, Note_on_c, 0, 62, 35
2, 23820, Note_on_c, 0, 76, 60
2, 23822, Note_off_c, 0, 59, 64
2, 23830, Note_on_c, 0, 55, 43
2, 23832, Note_off_c, 0, 62, 64
2, 23908, Note_on_c, 0, 74, 72
2, 23910, Note_on_c, 0, 62, 42
2, 23920, Note_off_c, 0, 55, 64
2, 23923, Note_off_c, 0, 76, 64
2, 23928, Note_off_c, 0, 79, 64
2, 23938, Note_off_c, 0, 74, 64
2, 23938, Note_off_c, 0, 78, 64
2, 23999, Note_on_c, 0, 74, 75
2, 24009, Note_on_c, 0, 57, 42
2, 24016, Note_off_c, 0, 62, 64
2, 24079, Note_on_c, 0, 72, 66
2, 24087, Note_on_c, 0, 62, 48
2, 24089, Note_off_c, 0, 57, 64
2, 24090, Control_c, 0, 64, 0
2, 24102, Note_off_c, 0, 74, 64
2, 24165, Note_on_c, 0, 71, 70
2, 24177, Note_on_c, 0, 55, 44
2, 24180, Note_off_c, 0, 62, 64
2, 24182, Note_off_c, 0, 72, 64
2, 24232, Note_off_c, 0, 55, 64
2, 24235, Note_off_c, 0, 71, 64
2, 24238, Note_on_c, 0, 69, 65
2, 24277, Note_on_c, 0, 62, 41
2, 24295, Note_off_c, 0, 69, 64
2, 24346, Note_on_c, 0, 74, 64
2, 24360, Note_on_c, 0, 54, 41
2, 24366, Note_off_c, 0, 74, 64
2, 24366, Note_off_c, 0, 62, 64
2, 24411, Note_off_c, 0, 54, 64
2, 24439, Note_on_c, 0, 62, 47
2, 24529, Note_off_c, 0, 62, 64
2, 24538, Note_on_c, 0, 72, 61
2, 24542, Note_on_c, 0, 50, 43
2, 24559, Note_off_c, 0, 72, 64
2, 24573, Note_off_c, 0, 50, 64
2, 24632, Note_on_c, 0, 62, 41
2, 24725, Note_off_c, 0, 62, 64
2, 24731, Note_on_c, 0, 55, 41
2, 24732, Note_on_c, 0, 70, 49
2, 24806, Note_on_c, 0, 62, 42
2, 24902, Note_on_c, 0, 71, 54
2, 24912, Note_on_c, 0, 61, 43
2, 24915, Note_off_c, 0, 70, 64
2, 24918, Note_off_c, 0, 62, 64
2, 24988, Note_on_c, 0, 62, 54
2, 25008, Note_off_c, 0, 61, 64
2, 25008, Control_c, 0, 64, 127
2, 25016, Note_off_c, 0, 55, 64
2, 25085, Note_on_c, 0, 61, 61
2, 25091, Note_off_c, 0, 62, 64
2, 25168, Note_off_c, 0, 71, 64
2, 25168, Note_on_c, 0, 62, 62
2, 25174, Note_off_c, 0, 61, 64
2, 25270, Note_on_c, 0, 64, 68
2, 25299, Note_off_c, 0, 62, 64
2, 25348, Note_off_c, 0, 64, 64
2, 25356, Note_on_c, 0, 62, 69
2, 25360, Control_c, 0, 64, 0
2, 25445, Note_on_c, 0, 60, 63
2, 25476, Note_off_c, 0, 62, 64
2, 25524, Note_on_c, 0, 62, 56
2, 25572, Note_off_c, 0, 60, 64
2, 25618, Note_on_c, 0, 59, 55
2, 25637, Note_off_c, 0, 62, 64
2, 25703, Note_on_c, 0, 62, 50
2, 25730, Note_off_c, 0, 59, 64
2, 25801, Note_on_c, 0, 60, 45
2, 25824, Note_off_c, 0, 62, 64
2, 25886, Note_on_c, 0, 62, 43
2, 25940, Note_off_c, 0, 60, 64
2, 25987, Note_on_c, 0, 57, 42
2, 26000, Note_off_c, 0, 62, 64
2, 26068, Note_on_c, 0, 62, 44
2, 26097, Note_on_c, 0, 67, 51
2, 26117, Note_off_c, 0, 57, 64
2, 26149, Note_on_c, 0, 79, 75
2, 26166, Note_on_c, 0, 59, 43
2, 26175, Note_off_c, 0, 62, 64
2, 26226, Note_off_c, 0, 67, 64
2, 26259, Note_on_c, 0, 62, 39
2, 26337, Note_off_c, 0, 59, 64
2, 26352, Note_on_c, 0, 55, 38
2, 26357, Note_off_c, 0, 62, 64
2, 26437, Note_on_c, 0, 62, 39
2, 26463, Control_c, 0, 64, 127
2, 26540, Note_off_c, 0, 62, 64
2, 26544, Note_on_c, 0, 59, 35
2, 26560, Note_off_c, 0, 55, 64
2, 26614, Note_on_c, 0, 62, 35
2, 26618, Note_on_c, 0, 78, 58
2, 26714, Note_on_c, 0, 55, 44
2, 26717, Note_on_c, 0, 76, 64
2, 26723, Note_off_c, 0, 62, 64
2, 26745, Note_off_c, 0, 59, 64
2, 26793, Note_on_c, 0, 62, 53
2, 26794, Note_on_c, 0, 74, 72
2, 26798, Note_off_c, 0, 79, 64
2, 26807, Note_off_c, 0, 55, 64
2, 26810, Note_off_c, 0, 76, 64
2, 26827, Note_off_c, 0, 74, 64
2, 26830, Note_off_c, 0, 78, 64
2, 26890, Note_on_c, 0, 74, 75
2, 26898, Note_on_c, 0, 57, 49
2, 26908, Note_off_c, 0, 62, 64
2, 26926, Control_c, 0, 64, 0
2, 26966, Note_off_c, 0, 57, 64
2, 26976, Note_on_c, 0, 72, 68
2, 26977, Note_on_c, 0, 62, 51
2, 26993, Note_off_c, 0, 74, 64
2, 27059, Note_on_c, 0, 71, 67
2, 27059, Note_on_c, 0, 55, 52
2, 27065, Note_off_c, 0, 62, 64
2, 27066, Note_off_c, 0, 72, 64
2, 27107, Note_off_c, 0, 55, 64
2, 27122, Note_off_c, 0, 71, 64
2, 27134, Note_on_c, 0, 69, 65
2, 27153, Note_on_c, 0, 62, 44
2, 27191, Note_off_c, 0, 69, 64
2, 27233, Note_on_c, 0, 74, 68
2, 27246, Note_off_c, 0, 62, 64
2, 27246, Note_on_c, 0, 54, 40
2, 27250, Note_off_c, 0, 74, 64
2, 27291, Note_off_c, 0, 54, 64
2, 27322, Note_on_c, 0, 62, 43
2, 27422, Note_on_c, 0, 72, 64
2, 27423, Note_off_c, 0, 62, 64
2, 27423, Note_on_c, 0, 50, 48
2, 27442, Note_off_c, 0, 72, 64
2, 27456, Note_off_c, 0, 50, 64
2, 27505, Note_on_c, 0, 62, 43
2, 27596, Note_off_c, 0, 62, 64
2, 27602, Note_on_c, 0, 71, 59
2, 27616, Note_on_c, 0, 55, 41
2, 27698, Note_on_c, 0, 62, 38
2, 27719, Note_off_c, 0, 71, 64
2, 27769, Note_off_c, 0, 55, 64
2, 27776, Note_off_c, 0, 62, 64
2, 27782, Note_on_c, 0, 59, 48
2, 27837, Note_off_c, 0, 59, 64
2, 27873, Note_on_c, 0, 62, 43
2, 27905, Note_on_c, 0, 76, 72
2, 27925, Note_off_c, 0, 62, 64
2, 27930, Note_off_c, 0, 76, 64
2, 27936, Note_on_c, 0, 78, 69
2, 27950, Note_on_c, 0, 55, 49
2, 27961, Note_on_c, 0, 76, 69
2, 27966, Note_off_c, 0, 78, 64
2, 28011, Note_off_c, 0, 76, 64
2, 28045, Note_on_c, 0, 64, 46
2, 28051, Note_on_c, 0, 78, 69
2, 28081, Note_off_c, 0, 78, 64
2, 28083, Note_off_c, 0, 64, 64
2, 28099, Note_off_c, 0, 55, 64
2, 28114, Note_on_c, 0, 79, 74
2, 28114, Note_on_c, 0, 60, 50
2, 28134, Note_off_c, 0, 79, 64
2, 28179, Note_off_c, 0, 60, 64
2, 28205, Note_on_c, 0, 64, 51
2, 28212, Note_on_c, 0, 79, 74
2, 28230, Note_off_c, 0, 79, 64
2, 28250, Note_off_c, 0, 64, 64
2, 28302, Note_on_c, 0, 79, 71
2, 28306, Note_on_c, 0, 55, 46
2, 28378, Note_off_c, 0, 79, 64
2, 28385, Note_on_c, 0, 62, 44
2, 28431, Note_off_c, 0, 62, 64
2, 28458, Note_off_c, 0, 55, 64
2, 28466, Control_c, 0, 67, 0
2, 28468, Note_on_c, 0, 59, 41
2, 28506, Note_off_c, 0, 59, 64
2, 28548, Note_on_c, 0, 62, 41
2, 28575, Control_c, 0, 67, 127
2, 28582, Note_on_c, 0, 81, 65
2, 28587, Note_off_c, 0, 62, 64
2, 28608, Note_on_c, 0, 83, 68
2, 28610, Note_off_c, 0, 81, 64
2, 28632, Note_on_c, 0, 81, 68
2, 28635, Note_off_c, 0, 83, 64
2, 28638, Note_on_c, 0, 53, 50
2, 28661, Note_off_c, 0, 81, 64
2, 28728, Note_on_c, 0, 60, 35
2, 28765, Note_on_c, 0, 83, 68
2, 28781, Note_off_c, 0, 60, 64
2, 28788, Note_off_c, 0, 53, 64
2, 28801, Note_on_c, 0, 57, 46
2, 28807, Note_on_c, 0, 84, 72
2, 28811, Note_off_c, 0, 83, 64
2, 28824, Note_off_c, 0, 84, 64
2, 28848, Note_off_c, 0, 57, 64
2, 28892, Note_on_c, 0, 60, 46
2, 28897, Note_on_c, 0, 84, 70
2, 28911, Note_off_c, 0, 84, 64
2, 28937, Note_off_c, 0, 60, 64
2, 28991, Note_on_c, 0, 84, 78
2, 28992, Note_on_c, 0, 52, 48
2, 29040, Note_off_c, 0, 84, 64
2, 29088, Note_on_c, 0, 60, 42
2, 29113, Control_c, 0, 64, 127
2, 29149, Note_off_c, 0, 52, 64
2, 29156, Note_on_c, 0, 55, 50
2, 29160, Note_off_c, 0, 60, 64
2, 29188, Note_off_c, 0, 55, 64
2, 29231, Note_on_c, 0, 60, 49
2, 29255, Note_on_c, 0, 84, 80
2, 29267, Control_c, 0, 64, 0
2, 29275, Note_off_c, 0, 84, 64
2, 29276, Note_on_c, 0, 86, 78
2, 29294, Note_off_c, 0, 86, 64
2, 29305, Note_off_c, 0, 60, 64
2, 29305, Note_on_c, 0, 84, 80
2, 29317, Note_on_c, 0, 48, 43
2, 29324, Note_off_c, 0, 84, 64
2, 29413, Note_on_c, 0, 55, 52
2, 29440, Note_on_c, 0, 86, 78
2, 29465, Note_off_c, 0, 86, 64
2, 29470, Note_off_c, 0, 48, 64
2, 29480, Note_off_c, 0, 55, 64
2, 29482, Note_on_c, 0, 88, 82
2, 29490, Note_on_c, 0, 52, 51
2, 29509, Note_off_c, 0, 88, 64
2, 29549, Note_off_c, 0, 52, 64
2, 29568, Note_on_c, 0, 88, 88
2, 29568, Note_on_c, 0, 55, 54
2, 29594, Note_off_c, 0, 88, 64
2, 29644, Note_off_c, 0, 55, 64
2, 29652, Note_on_c, 0, 88, 91
2, 29660, Note_on_c, 0, 50, 54
2, 29698, Note_off_c, 0, 88, 64
2, 29733, Note_on_c, 0, 86, 80
2, 29738, Note_on_c, 0, 59, 51
2, 29763, Note_off_c, 0, 86, 64
2, 29764, Note_off_c, 0, 50, 64
2, 29771, Note_off_c, 0, 59, 64
2, 29816, Note_on_c, 0, 84, 80
2, 29817, Note_on_c, 0, 55, 57
2, 29839, Note_off_c, 0, 84, 64
2, 29846, Note_off_c, 0, 55, 64
2, 29898, Note_on_c, 0, 83, 78
2, 29904, Note_on_c, 0, 59, 52
2, 29914, Note_off_c, 0, 83, 64
2, 29934, Note_off_c, 0, 59, 64
2, 29989, Note_on_c, 0, 81, 67
2, 29990, Note_on_c, 0, 50, 55
2, 30004, Note_off_c, 0, 81, 64
2, 30024, Note_off_c, 0, 50, 64
2, 30075, Note_on_c, 0, 60, 52
2, 30117, Note_off_c, 0, 60, 64
2, 30163, Note_on_c, 0, 86, 77
2, 30176, Note_off_c, 0, 86, 64
2, 30176, Note_on_c, 0, 54, 56
2, 30218, Note_off_c, 0, 54, 64
2, 30259, Note_on_c, 0, 60, 50
2, 30289, Note_off_c, 0, 60, 64
2, 30347, Note_on_c, 0, 84, 74
2, 30354, Note_on_c, 0, 55, 43
2, 30445, Note_on_c, 0, 62, 37
2, 30517, Note_off_c, 0, 62, 64
2, 30523, Note_off_c, 0, 55, 64
2, 30533, Note_on_c, 0, 83, 66
2, 30536, Note_on_c, 0, 59, 42
2, 30553, Note_off_c, 0, 84, 64
2, 30568, Note_off_c, 0, 83, 64
2, 30576, Note_off_c, 0, 59, 64
2, 30613, Note_on_c, 0, 62, 41
2, 30651, Note_off_c, 0, 62, 64
2, 30651, Note_on_c, 0, 76, 67
2, 30669, Note_off_c, 0, 76, 64
2, 30671, Note_on_c, 0, 78, 69
2, 30707, Note_on_c, 0, 76, 81
2, 30708, Note_on_c, 0, 55, 44
2, 30715, Note_off_c, 0, 78, 64
2, 30799, Note_on_c, 0, 64, 45
2, 30837, Note_on_c, 0, 78, 65
2, 30845, Note_off_c, 0, 64, 64
2, 30850, Note_off_c, 0, 76, 64
2, 30876, Note_on_c, 0, 79, 75
2, 30888, Note_off_c, 0, 55, 64
2, 30890, Note_off_c, 0, 78, 64
2, 30890, Note_on_c, 0, 60, 40
2, 30895, Note_off_c, 0, 79, 64
2, 30931, Note_off_c, 0, 60, 64
2, 30974, Note_on_c, 0, 79, 69
2, 30982, Note_on_c, 0, 64, 47
2, 30989, Note_off_c, 0, 79, 64
2, 31014, Note_off_c, 0, 64, 64
2, 31059, Note_on_c, 0, 79, 59
2, 31069, Note_on_c, 0, 55, 44
2, 31127, Note_off_c, 0, 79, 64
2, 31154, Note_on_c, 0, 62, 43
2, 31205, Note_off_c, 0, 62, 64
2, 31221, Note_off_c, 0, 55, 64
2, 31231, Note_on_c, 0, 59, 46
2, 31261, Note_off_c, 0, 59, 64
2, 31309, Note_on_c, 0, 62, 44
2, 31335, Note_on_c, 0, 81, 63
2, 31349, Note_off_c, 0, 62, 64
2, 31349, Note_on_c, 0, 83, 75
2, 31351, Note_off_c, 0, 81, 64
2, 31381, Note_on_c, 0, 81, 79
2, 31392, Note_off_c, 0, 83, 64
2, 31397, Note_on_c, 0, 53, 55
2, 31476, Note_off_c, 0, 53, 64
2, 31487, Note_on_c, 0, 60, 42
2, 31518, Note_on_c, 0, 83, 70
2, 31540, Note_off_c, 0, 81, 64
2, 31549, Note_off_c, 0, 60, 64
2, 31555, Note_on_c, 0, 57, 49
2, 31556, Note_on_c, 0, 84, 72
2, 31562, Note_off_c, 0, 83, 64
2, 31575, Note_off_c, 0, 84, 64
2, 31602, Note_off_c, 0, 57, 64
2, 31641, Note_on_c, 0, 60, 45
2, 31644, Note_on_c, 0, 84, 74
2, 31664, Note_off_c, 0, 84, 64
2, 31699, Note_off_c, 0, 60, 64
2, 31729, Note_on_c, 0, 84, 74
2, 31739, Note_on_c, 0, 52, 48
2, 31766, Note_off_c, 0, 84, 64
2, 31832, Note_on_c, 0, 60, 48
2, 31867, Control_c, 0, 64, 127
2, 31890, Note_off_c, 0, 52, 64
2, 31913, Note_on_c, 0, 55, 52
2, 31935, Note_off_c, 0, 60, 64
2, 31948, Note_off_c, 0, 55, 64
2, 31998, Note_on_c, 0, 60, 54
2, 32008, Control_c, 0, 64, 0
2, 32021, Note_on_c, 0, 84, 67
2, 32028, Note_on_c, 0, 86, 79
2, 32029, Note_off_c, 0, 84, 64
2, 32041, Note_off_c, 0, 60, 64
2, 32059, Note_on_c, 0, 48, 59
2, 32061, Note_on_c, 0, 84, 88
2, 32076, Note_off_c, 0, 86, 64
2, 32159, Note_on_c, 0, 55, 59
2, 32192, Note_on_c, 0, 86, 73
2, 32214, Note_off_c, 0, 48, 64
2, 32224, Note_off_c, 0, 84, 64
2, 32229, Note_on_c, 0, 88, 80
2, 32237, Note_off_c, 0, 55, 64
2, 32243, Note_off_c, 0, 86, 64
2, 32243, Note_on_c, 0, 52, 54
2, 32257, Note_off_c, 0, 88, 64
2, 32310, Note_off_c, 0, 52, 64
2, 32317, Note_on_c, 0, 88, 91
2, 32318, Note_on_c, 0, 55, 55
2, 32348, Note_off_c, 0, 88, 64
2, 32371, Note_off_c, 0, 55, 64
2, 32404, Note_on_c, 0, 88, 93
2, 32408, Note_on_c, 0, 50, 59
2, 32451, Note_off_c, 0, 88, 64
2, 32488, Note_on_c, 0, 86, 80
2, 32497, Note_on_c, 0, 59, 54
2, 32517, Note_off_c, 0, 50, 64
2, 32518, Note_off_c, 0, 86, 64
2, 32524, Note_off_c, 0, 59, 64
2, 32569, Note_on_c, 0, 84, 82
2, 32577, Note_on_c, 0, 55, 59
2, 32597, Note_off_c, 0, 84, 64
2, 32603, Note_off_c, 0, 55, 64
2, 32654, Note_on_c, 0, 83, 78
2, 32664, Note_on_c, 0, 59, 52
2, 32672, Note_off_c, 0, 83, 64
2, 32693, Note_off_c, 0, 59, 64
2, 32746, Note_on_c, 0, 50, 61
2, 32748, Note_on_c, 0, 83, 84
2, 32785, Note_off_c, 0, 83, 64
2, 32834, Note_on_c, 0, 81, 79
2, 32834, Note_on_c, 0, 60, 65
2, 32851, Note_off_c, 0, 50, 64
2, 32854, Note_off_c, 0, 81, 64
2, 32874, Note_off_c, 0, 60, 64
2, 32920, Note_on_c, 0, 57, 70
2, 32920, Note_on_c, 0, 79, 79
2, 32940, Note_off_c, 0, 79, 64
2, 32960, Note_off_c, 0, 57, 64
2, 33003, Note_on_c, 0, 78, 84
2, 33008, Note_on_c, 0, 60, 66
2, 33018, Note_off_c, 0, 78, 64
2, 33025, Note_off_c, 0, 60, 64
2, 33101, Note_on_c, 0, 86, 86
2, 33282, Note_on_c, 0, 59, 56
2, 33295, Note_on_c, 0, 55, 35
2, 33334, Note_on_c, 0, 83, 64
2, 33340, Note_off_c, 0, 86, 64
2, 33390, Note_off_c, 0, 83, 64
2, 33398, Note_on_c, 0, 79, 69
2, 33433, Note_off_c, 0, 59, 64
2, 33453, Note_off_c, 0, 79, 64
2, 33453, Note_on_c, 0, 78, 73
2, 33460, Note_on_c, 0, 57, 55
2, 33466, Note_on_c, 0, 60, 54
2, 33473, Note_off_c, 0, 55, 64
2, 33508, Note_off_c, 0, 78, 64
2, 33508, Note_on_c, 0, 81, 74
2, 33533, Control_c, 0, 64, 127
2, 33562, Note_off_c, 0, 81, 64
2, 33562, Note_on_c, 0, 74, 75
2, 33569, Control_c, 0, 64, 0
2, 33596, Note_off_c, 0, 60, 64
2, 33602, Note_off_c, 0, 57, 64
2, 33617, Note_on_c, 0, 79, 81
2, 33629, Note_on_c, 0, 59, 44
2, 33632, Note_on_c, 0, 62, 53
2, 33637, Note_off_c, 0, 74, 64
2, 33675, Note_on_c, 0, 83, 82
2, 33680, Note_off_c, 0, 79, 64
2, 33689, Note_off_c, 0, 62, 64
2, 33717, Note_on_c, 0, 74, 72
2, 33718, Note_off_c, 0, 59, 64
2, 33724, Note_off_c, 0, 83, 64
2, 33757, Note_off_c, 0, 74, 64
2, 33790, Note_on_c, 0, 81, 85
2, 33967, Note_on_c, 0, 54, 60
2, 33971, Note_on_c, 0, 50, 48
2, 34016, Note_off_c, 0, 81, 64
2, 34019, Note_on_c, 0, 78, 66
2, 34070, Note_off_c, 0, 78, 64
2, 34077, Note_on_c, 0, 74, 71
2, 34099, Note_off_c, 0, 54, 64
2, 34129, Note_on_c, 0, 73, 77
2, 34135, Note_off_c, 0, 74, 64
2, 34140, Note_on_c, 0, 55, 65
2, 34145, Note_on_c, 0, 52, 57
2, 34147, Note_off_c, 0, 50, 64
2, 34183, Note_off_c, 0, 73, 64
2, 34183, Note_on_c, 0, 74, 78
2, 34233, Note_off_c, 0, 74, 64
2, 34238, Note_on_c, 0, 69, 77
2, 34293, Note_on_c, 0, 72, 77
2, 34296, Note_off_c, 0, 52, 64
2, 34306, Note_off_c, 0, 69, 64
2, 34306, Note_on_c, 0, 54, 64
2, 34308, Note_off_c, 0, 55, 64
2, 34308, Note_on_c, 0, 57, 57
2, 34326, Note_off_c, 0, 54, 64
2, 34328, Note_off_c, 0, 57, 64
2, 34344, Note_on_c, 0, 74, 79
2, 34356, Control_c, 0, 64, 127
2, 34359, Note_off_c, 0, 72, 64
2, 34390, Note_off_c, 0, 74, 64
2, 34392, Note_on_c, 0, 69, 75
2, 34417, Note_off_c, 0, 69, 64
2, 34432, Control_c, 0, 64, 0
2, 34500, Note_on_c, 0, 86, 79
2, 34695, Note_on_c, 0, 59, 49
2, 34706, Note_on_c, 0, 55, 40
2, 34734, Note_on_c, 0, 83, 68
2, 34756, Note_off_c, 0, 86, 64
2, 34792, Note_off_c, 0, 83, 64
2, 34799, Note_on_c, 0, 79, 71
2, 34850, Note_on_c, 0, 60, 58
2, 34852, Note_on_c, 0, 78, 78
2, 34855, Note_off_c, 0, 79, 64
2, 34855, Note_on_c, 0, 57, 51
2, 34860, Note_off_c, 0, 59, 64
2, 34871, Note_off_c, 0, 55, 64
2, 34908, Note_off_c, 0, 78, 64
2, 34908, Note_on_c, 0, 81, 76
2, 34964, Note_off_c, 0, 81, 64
2, 34964, Note_on_c, 0, 74, 72
2, 34971, Note_off_c, 0, 60, 64
2, 35005, Note_off_c, 0, 57, 64
2, 35013, Note_on_c, 0, 79, 75
2, 35016, Note_on_c, 0, 59, 51
2, 35019, Note_on_c, 0, 62, 47
2, 35034, Note_off_c, 0, 74, 64
2, 35062, Note_off_c, 0, 62, 64
2, 35066, Note_on_c, 0, 83, 78
2, 35074, Note_off_c, 0, 79, 64
2, 35084, Note_off_c, 0, 59, 64
2, 35112, Note_off_c, 0, 83, 64
2, 35112, Note_on_c, 0, 74, 66
2, 35148, Note_off_c, 0, 74, 64
2, 35187, Note_on_c, 0, 81, 63
2, 35359, Note_on_c, 0, 54, 46
2, 35371, Note_on_c, 0, 50, 36
2, 35414, Note_on_c, 0, 78, 68
2, 35421, Note_off_c, 0, 81, 64
2, 35462, Note_off_c, 0, 78, 64
2, 35472, Note_on_c, 0, 74, 65
2, 35507, Note_off_c, 0, 54, 64
2, 35519, Note_off_c, 0, 74, 64
2, 35527, Note_on_c, 0, 73, 73
2, 35529, Note_on_c, 0, 52, 54
2, 35529, Note_on_c, 0, 55, 53
2, 35547, Note_off_c, 0, 50, 64
2, 35568, Note_off_c, 0, 73, 64
2, 35575, Note_on_c, 0, 74, 68
2, 35630, Note_off_c, 0, 74, 64
2, 35632, Note_on_c, 0, 69, 66
2, 35655, Note_off_c, 0, 55, 64
2, 35656, Note_off_c, 0, 52, 64
2, 35683, Note_on_c, 0, 54, 49
2, 35685, Note_on_c, 0, 57, 59
2, 35688, Note_on_c, 0, 72, 67
2, 35706, Note_off_c, 0, 69, 64
2, 35736, Note_off_c, 0, 72, 64
2, 35736, Note_on_c, 0, 74, 68
2, 35794, Note_off_c, 0, 74, 64
2, 35802, Note_on_c, 0, 69, 65
2, 35817, Note_off_c, 0, 54, 64
2, 35818, Note_off_c, 0, 57, 64
2, 35821, Note_off_c, 0, 69, 64
2, 35867, Note_on_c, 0, 55, 58
2, 35868, Note_on_c, 0, 71, 75
2, 35890, Note_off_c, 0, 71, 64
2, 35927, Note_on_c, 0, 67, 70
2, 35952, Note_off_c, 0, 67, 64
2, 35970, Note_on_c, 0, 71, 70
2, 35995, Note_off_c, 0, 71, 64
2, 36032, Note_on_c, 0, 74, 66
2, 36061, Note_off_c, 0, 74, 64
2, 36096, Note_on_c, 0, 71, 65
2, 36124, Note_off_c, 0, 71, 64
2, 36139, Note_on_c, 0, 74, 68
2, 36174, Note_off_c, 0, 74, 64
2, 36197, Note_off_c, 0, 55, 64
2, 36200, Note_on_c, 0, 79, 81
2, 36229, Note_off_c, 0, 79, 64
2, 36257, Note_on_c, 0, 74, 63
2, 36304, Note_off_c, 0, 74, 64
2, 36308, Note_on_c, 0, 79, 79
2, 36343, Note_off_c, 0, 79, 64
2, 36366, Note_on_c, 0, 83, 78
2, 36397, Note_off_c, 0, 83, 64
2, 36416, Note_on_c, 0, 79, 75
2, 36463, Note_on_c, 0, 83, 84
2, 36466, Note_off_c, 0, 79, 64
2, 36496, Note_off_c, 0, 83, 64
2, 36511, Control_c, 0, 67, 0
2, 36521, Note_on_c, 0, 86, 84
2, 36543, Note_on_c, 0, 55, 50
2, 36543, Note_on_c, 0, 47, 53
2, 36550, Note_on_c, 0, 50, 44
2, 36553, Note_off_c, 0, 86, 64
2, 36569, Note_on_c, 0, 43, 35
2, 36570, Note_on_c, 0, 83, 88
2, 36607, Note_off_c, 0, 83, 64
2, 36630, Note_on_c, 0, 86, 86
2, 36672, Note_off_c, 0, 86, 64
2, 36685, Note_on_c, 0, 89, 89
2, 36736, Note_off_c, 0, 89, 64
2, 36737, Note_on_c, 0, 86, 84
2, 36789, Note_off_c, 0, 86, 64
2, 36790, Note_on_c, 0, 83, 88
2, 36814, Control_c, 0, 64, 127
2, 36836, Note_off_c, 0, 83, 64
2, 36854, Note_on_c, 0, 79, 78
2, 36883, Control_c, 0, 64, 0
2, 36890, Note_off_c, 0, 79, 64
2, 36903, Note_on_c, 0, 77, 78
2, 36941, Note_on_c, 0, 74, 73
2, 36943, Note_off_c, 0, 77, 64
2, 36966, Note_off_c, 0, 47, 64
2, 36976, Note_off_c, 0, 74, 64
2, 36989, Note_on_c, 0, 71, 71
2, 37024, Note_off_c, 0, 71, 64
2, 37053, Note_on_c, 0, 67, 65
2, 37090, Note_off_c, 0, 67, 64
2, 37108, Note_on_c, 0, 65, 64
2, 37143, Note_off_c, 0, 65, 64
2, 37156, Note_off_c, 0, 50, 64
2, 37166, Note_on_c, 0, 48, 50
2, 37166, Note_on_c, 0, 64, 74
2, 37201, Note_off_c, 0, 64, 64
2, 37206, Note_off_c, 0, 43, 64
2, 37271, Note_on_c, 0, 76, 61
2, 37354, Note_on_c, 0, 75, 60
2, 37367, Note_off_c, 0, 76, 64
2, 37447, Note_on_c, 0, 76, 67
2, 37470, Note_off_c, 0, 75, 64
2, 37528, Note_on_c, 0, 75, 73
2, 37538, Note_off_c, 0, 76, 64
2, 37551, Control_c, 0, 64, 127
2, 37554, Note_off_c, 0, 55, 64
2, 37566, Note_off_c, 0, 48, 64
2, 37616, Note_on_c, 0, 76, 68
2, 37636, Note_off_c, 0, 75, 64
2, 37668, Control_c, 0, 64, 0
2, 37702, Note_on_c, 0, 75, 78
2, 37712, Note_off_c, 0, 76, 64
2, 37788, Note_on_c, 0, 76, 69
2, 37811, Note_off_c, 0, 75, 64
2, 37906, Note_on_c, 0, 67, 52
2, 37908, Note_off_c, 0, 76, 64
2, 38088, Control_c, 0, 64, 127
2, 38089, Note_on_c, 0, 58, 51
2, 38089, Note_on_c, 0, 49, 45
2, 38105, Control_c, 0, 67, 127
2, 38155, Note_off_c, 0, 49, 64
2, 38188, Note_off_c, 0, 58, 64
2, 38233, Control_c, 0, 64, 0
2, 38275, Note_on_c, 0, 59, 51
2, 38281, Note_on_c, 0, 50, 41
2, 38388, Note_off_c, 0, 59, 64
2, 38419, Note_off_c, 0, 67, 64
2, 38431, Control_c, 0, 64, 127
2, 38460, Note_on_c, 0, 71, 62
2, 38462, Note_on_c, 0, 60, 49
2, 38462, Note_on_c, 0, 66, 55
2, 38541, Note_off_c, 0, 66, 64
2, 38550, Note_on_c, 0, 69, 60
2, 38583, Note_off_c, 0, 69, 64
2, 38598, Note_off_c, 0, 60, 64
2, 38606, Note_off_c, 0, 71, 64
2, 38611, Control_c, 0, 64, 0
2, 38641, Note_on_c, 0, 71, 73
2, 38651, Note_on_c, 0, 55, 38
2, 38655, Note_on_c, 0, 59, 39
2, 38659, Note_off_c, 0, 50, 64
2, 38666, Note_off_c, 0, 71, 64
2, 38704, Note_on_c, 0, 67, 68
2, 38754, Note_off_c, 0, 67, 64
2, 38762, Note_on_c, 0, 71, 73
2, 38787, Note_off_c, 0, 71, 64
2, 38820, Note_on_c, 0, 74, 78
2, 38852, Note_off_c, 0, 74, 64
2, 38874, Note_on_c, 0, 71, 73
2, 38928, Note_off_c, 0, 71, 64
2, 38928, Note_on_c, 0, 74, 67
2, 38968, Note_off_c, 0, 74, 64
2, 38990, Note_on_c, 0, 79, 75
2, 39018, Note_off_c, 0, 79, 64
2, 39044, Note_on_c, 0, 74, 73
2, 39099, Note_on_c, 0, 79, 79
2, 39112, Note_off_c, 0, 74, 64
2, 39117, Note_off_c, 0, 59, 64
2, 39127, Note_off_c, 0, 55, 64
2, 39147, Note_off_c, 0, 79, 64
2, 39155, Note_on_c, 0, 83, 77
2, 39167, Control_c, 0, 67, 0
2, 39187, Note_off_c, 0, 83, 64
2, 39204, Note_on_c, 0, 79, 77
2, 39224, Note_off_c, 0, 79, 64
2, 39254, Note_on_c, 0, 83, 86
2, 39280, Note_off_c, 0, 83, 64
2, 39316, Note_on_c, 0, 55, 67
2, 39316, Note_on_c, 0, 50, 59
2, 39318, Note_on_c, 0, 47, 62
2, 39318, Note_on_c, 0, 86, 79
2, 39323, Note_on_c, 0, 43, 56
2, 39350, Note_off_c, 0, 86, 64
2, 39355, Note_on_c, 0, 83, 86
2, 39406, Note_off_c, 0, 83, 64
2, 39424, Note_on_c, 0, 86, 84
2, 39464, Note_off_c, 0, 86, 64
2, 39481, Note_on_c, 0, 89, 92
2, 39534, Note_on_c, 0, 86, 84
2, 39552, Note_off_c, 0, 89, 64
2, 39588, Control_c, 0, 64, 127
2, 39588, Note_on_c, 0, 83, 88
2, 39610, Note_off_c, 0, 86, 64
2, 39647, Note_off_c, 0, 83, 64
2, 39650, Note_on_c, 0, 79, 75
2, 39666, Note_off_c, 0, 79, 64
2, 39696, Control_c, 0, 64, 0
2, 39697, Note_on_c, 0, 77, 76
2, 39728, Note_off_c, 0, 77, 64
2, 39760, Note_on_c, 0, 74, 68
2, 39801, Note_off_c, 0, 74, 64
2, 39808, Note_on_c, 0, 71, 79
2, 39828, Note_off_c, 0, 47, 64
2, 39834, Note_off_c, 0, 71, 64
2, 39865, Note_on_c, 0, 67, 64
2, 39889, Note_off_c, 0, 67, 64
2, 39918, Note_on_c, 0, 65, 74
2, 39959, Note_off_c, 0, 65, 64
2, 39984, Note_on_c, 0, 64, 64
2, 39986, Note_on_c, 0, 48, 46
2, 39995, Note_off_c, 0, 50, 64
2, 40047, Note_off_c, 0, 64, 64
2, 40050, Note_off_c, 0, 43, 64
2, 40100, Note_on_c, 0, 76, 56
2, 40175, Note_off_c, 0, 76, 64
2, 40196, Note_on_c, 0, 75, 49
2, 40282, Note_on_c, 0, 76, 55
2, 40297, Note_off_c, 0, 75, 64
2, 40326, Note_off_c, 0, 55, 64
2, 40352, Note_off_c, 0, 48, 64
2, 40369, Note_on_c, 0, 75, 64
2, 40389, Note_off_c, 0, 76, 64
2, 40458, Control_c, 0, 64, 127
2, 40462, Note_on_c, 0, 76, 69
2, 40473, Note_off_c, 0, 75, 64
2, 40545, Note_on_c, 0, 75, 68
2, 40568, Note_off_c, 0, 76, 64
2, 40636, Note_on_c, 0, 76, 75
2, 40648, Note_off_c, 0, 75, 64
2, 40667, Note_off_c, 0, 76, 64
2, 40725, Note_on_c, 0, 58, 61
2, 40725, Note_on_c, 0, 49, 52
2, 40741, Control_c, 0, 64, 0
2, 40807, Note_on_c, 0, 79, 71
2, 40896, Note_on_c, 0, 78, 76
2, 40920, Note_off_c, 0, 79, 64
2, 40980, Note_on_c, 0, 79, 79
2, 41002, Note_off_c, 0, 78, 64
2, 41067, Note_on_c, 0, 78, 82
2, 41081, Note_off_c, 0, 58, 64
2, 41090, Note_off_c, 0, 79, 64
2, 41115, Note_off_c, 0, 49, 64
2, 41132, Control_c, 0, 64, 127
2, 41148, Note_off_c, 0, 78, 64
2, 41150, Note_on_c, 0, 79, 81
2, 41226, Note_on_c, 0, 78, 76
2, 41237, Note_off_c, 0, 79, 64
2, 41308, Note_on_c, 0, 79, 75
2, 41318, Note_off_c, 0, 78, 64
2, 41340, Note_off_c, 0, 79, 64
2, 41399, Note_on_c, 0, 79, 79
2, 41402, Control_c, 0, 64, 0
2, 41407, Note_on_c, 0, 50, 45
2, 41482, Note_off_c, 0, 79, 64
2, 41482, Note_on_c, 0, 74, 69
2, 41490, Note_on_c, 0, 59, 48
2, 41500, Note_off_c, 0, 74, 64
2, 41510, Note_off_c, 0, 59, 64
2, 41530, Note_off_c, 0, 50, 64
2, 41560, Note_on_c, 0, 74, 67
2, 41569, Note_on_c, 0, 55, 53
2, 41583, Note_off_c, 0, 74, 64
2, 41593, Note_off_c, 0, 55, 64
2, 41646, Note_on_c, 0, 74, 83
2, 41658, Note_on_c, 0, 59, 52
2, 41670, Note_off_c, 0, 74, 64
2, 41680, Note_off_c, 0, 59, 64
2, 41733, Note_on_c, 0, 76, 83
2, 41743, Note_on_c, 0, 50, 53
2, 41782, Note_off_c, 0, 50, 64
2, 41784, Note_off_c, 0, 76, 64
2, 41807, Note_on_c, 0, 74, 78
2, 41821, Note_on_c, 0, 59, 51
2, 41839, Note_off_c, 0, 74, 64
2, 41856, Note_off_c, 0, 59, 64
2, 41892, Control_c, 0, 67, 127
2, 41894, Note_on_c, 0, 72, 70
2, 41907, Note_on_c, 0, 55, 35
2, 41913, Note_off_c, 0, 72, 64
2, 41939, Note_off_c, 0, 55, 64
2, 41976, Note_on_c, 0, 71, 71
2, 41990, Note_on_c, 0, 59, 50
2, 42000, Note_off_c, 0, 71, 64
2, 42016, Note_off_c, 0, 59, 64
2, 42066, Note_on_c, 0, 71, 76
2, 42079, Note_on_c, 0, 50, 48
2, 42161, Note_on_c, 0, 62, 52
2, 42245, Note_off_c, 0, 62, 64
2, 42250, Note_on_c, 0, 55, 48
2, 42279, Control_c, 0, 64, 127
2, 42283, Note_off_c, 0, 50, 64
2, 42310, Note_off_c, 0, 55, 64
2, 42333, Note_on_c, 0, 62, 56
2, 42365, Note_off_c, 0, 71, 64
2, 42378, Note_off_c, 0, 62, 64
2, 42390, Control_c, 0, 64, 0
2, 42413, Note_on_c, 0, 69, 67
2, 42413, Note_on_c, 0, 50, 52
2, 42436, Note_off_c, 0, 69, 64
2, 42449, Note_on_c, 0, 71, 58
2, 42468, Control_c, 0, 64, 127
2, 42470, Note_off_c, 0, 71, 64
2, 42481, Note_on_c, 0, 69, 71
2, 42499, Note_on_c, 0, 60, 50
2, 42504, Note_off_c, 0, 69, 64
2, 42516, Note_off_c, 0, 50, 64
2, 42525, Note_on_c, 0, 71, 60
2, 42532, Note_off_c, 0, 60, 64
2, 42544, Note_off_c, 0, 71, 64
2, 42560, Note_on_c, 0, 69, 54
2, 42570, Note_on_c, 0, 54, 50
2, 42575, Note_off_c, 0, 69, 64
2, 42592, Note_on_c, 0, 71, 64
2, 42597, Note_off_c, 0, 54, 64
2, 42607, Note_on_c, 0, 69, 71
2, 42612, Control_c, 0, 64, 0
2, 42624, Note_off_c, 0, 71, 64
2, 42635, Note_on_c, 0, 60, 42
2, 42645, Note_off_c, 0, 69, 64
2, 42653, Note_on_c, 0, 67, 61
2, 42677, Note_off_c, 0, 67, 64
2, 42695, Note_off_c, 0, 60, 64
2, 42695, Note_on_c, 0, 69, 57
2, 42738, Note_off_c, 0, 69, 64
2, 42746, Note_on_c, 0, 67, 64
2, 42748, Note_on_c, 0, 55, 38
2, 42846, Note_on_c, 0, 59, 44
2, 42849, Note_off_c, 0, 67, 64
2, 42866, Control_c, 0, 64, 127
2, 42932, Note_off_c, 0, 59, 64
2, 42933, Note_on_c, 0, 67, 50
2, 43025, Note_off_c, 0, 55, 64
2, 43028, Note_on_c, 0, 59, 41
2, 43048, Control_c, 0, 64, 0
2, 43098, Note_off_c, 0, 67, 64
2, 43102, Note_off_c, 0, 59, 64
2, 43139, Note_on_c, 0, 55, 35
2, 43143, Note_on_c, 0, 74, 51
2, 43248, Note_on_c, 0, 59, 35
2, 43254, Control_c, 0, 64, 127
2, 43307, Note_off_c, 0, 59, 64
2, 43332, Note_on_c, 0, 67, 41
2, 43370, Note_off_c, 0, 74, 64
2, 43378, Note_off_c, 0, 55, 64
2, 43385, Note_on_c, 0, 78, 59
2, 43398, Control_c, 0, 64, 0
2, 43408, Note_on_c, 0, 59, 41
2, 43418, Note_off_c, 0, 67, 64
2, 43422, Note_off_c, 0, 78, 64
2, 43425, Note_on_c, 0, 76, 60
2, 43445, Note_off_c, 0, 76, 64
2, 43445, Note_on_c, 0, 74, 75
2, 43464, Note_off_c, 0, 59, 64
2, 43481, Note_off_c, 0, 74, 64
2, 43496, Note_on_c, 0, 86, 80
2, 43505, Note_on_c, 0, 55, 35
2, 43511, Note_off_c, 0, 86, 64
2, 43541, Note_off_c, 0, 55, 64
2, 43557, Note_on_c, 0, 57, 42
2, 43655, Note_off_c, 0, 57, 64
2, 43662, Note_on_c, 0, 66, 49
2, 43681, Note_on_c, 0, 84, 78
2, 43709, Note_off_c, 0, 84, 64
2, 43773, Note_on_c, 0, 57, 46
2, 43811, Note_off_c, 0, 66, 64
2, 43851, Note_off_c, 0, 57, 64
2, 43854, Note_on_c, 0, 83, 74
2, 43876, Note_off_c, 0, 83, 64
2, 43876, Note_on_c, 0, 55, 35
2, 43948, Note_on_c, 0, 60, 44
2, 44027, Note_off_c, 0, 60, 64
2, 44039, Note_on_c, 0, 66, 46
2, 44039, Note_on_c, 0, 81, 66
2, 44052, Note_off_c, 0, 55, 64
2, 44057, Note_off_c, 0, 81, 64
2, 44128, Note_on_c, 0, 60, 37
2, 44135, Note_off_c, 0, 66, 64
2, 44213, Note_off_c, 0, 60, 64
2, 44218, Note_on_c, 0, 79, 62
2, 44240, Note_on_c, 0, 55, 35
2, 44321, Note_on_c, 0, 59, 42
2, 44329, Note_off_c, 0, 79, 64
2, 44359, Note_off_c, 0, 55, 64
2, 44385, Note_off_c, 0, 59, 64
2, 44420, Note_on_c, 0, 67, 44
2, 44506, Note_on_c, 0, 59, 35
2, 44553, Note_off_c, 0, 67, 64
2, 44581, Note_off_c, 0, 59, 64
2, 44604, Note_on_c, 0, 55, 37
2, 44604, Note_on_c, 0, 74, 59
2, 44702, Control_c, 0, 64, 127
2, 44707, Note_on_c, 0, 59, 42
2, 44711, Note_off_c, 0, 55, 64
2, 44777, Note_off_c, 0, 59, 64
2, 44785, Note_on_c, 0, 67, 48
2, 44814, Note_off_c, 0, 74, 64
2, 44847, Note_on_c, 0, 78, 55
2, 44854, Note_on_c, 0, 59, 47
2, 44865, Control_c, 0, 64, 0
2, 44870, Note_off_c, 0, 67, 64
2, 44880, Note_on_c, 0, 76, 60
2, 44885, Note_off_c, 0, 78, 64
2, 44903, Note_off_c, 0, 76, 64
2, 44906, Note_on_c, 0, 74, 72
2, 44936, Note_off_c, 0, 59, 64
2, 44940, Note_off_c, 0, 74, 64
2, 44953, Note_on_c, 0, 86, 84
2, 44960, Note_on_c, 0, 55, 41
2, 44968, Note_off_c, 0, 86, 64
2, 45019, Note_off_c, 0, 55, 64
2, 45042, Note_on_c, 0, 57, 48
2, 45136, Note_off_c, 0, 57, 64
2, 45136, Note_on_c, 0, 84, 77
2, 45145, Note_on_c, 0, 66, 51
2, 45160, Note_off_c, 0, 84, 64
2, 45237, Note_on_c, 0, 57, 42
2, 45268, Note_off_c, 0, 66, 64
2, 45318, Note_off_c, 0, 57, 64
2, 45318, Note_on_c, 0, 83, 67
2, 45329, Note_on_c, 0, 55, 36
2, 45336, Note_off_c, 0, 83, 64
2, 45411, Note_on_c, 0, 60, 42
2, 45451, Note_off_c, 0, 55, 64
2, 45486, Note_off_c, 0, 60, 64
2, 45499, Note_on_c, 0, 66, 48
2, 45499, Note_on_c, 0, 81, 59
2, 45520, Note_off_c, 0, 81, 64
2, 45583, Note_on_c, 0, 60, 38
2, 45600, Note_off_c, 0, 66, 64
2, 45681, Note_off_c, 0, 60, 64
2, 45685, Note_on_c, 0, 79, 53
2, 45698, Note_on_c, 0, 55, 35
2, 45777, Note_off_c, 0, 79, 64
2, 45784, Note_on_c, 0, 59, 36
2, 45788, Control_c, 0, 64, 127
2, 45864, Note_off_c, 0, 59, 64
2, 45880, Note_off_c, 0, 55, 64
2, 45882, Note_on_c, 0, 67, 48
2, 45965, Note_on_c, 0, 59, 41
2, 45985, Control_c, 0, 64, 0
2, 45992, Note_on_c, 0, 74, 60
2, 45998, Note_off_c, 0, 67, 64
2, 46020, Note_off_c, 0, 59, 64
2, 46031, Note_on_c, 0, 86, 84
2, 46038, Note_off_c, 0, 74, 64
2, 46051, Note_on_c, 0, 55, 46
2, 46162, Note_on_c, 0, 60, 35
2, 46187, Control_c, 0, 64, 127
2, 46222, Note_off_c, 0, 60, 64
2, 46245, Note_on_c, 0, 66, 52
2, 46246, Note_off_c, 0, 86, 64
2, 46246, Note_off_c, 0, 55, 64
2, 46312, Control_c, 0, 64, 0
2, 46315, Note_on_c, 0, 84, 56
2, 46320, Note_off_c, 0, 66, 64
2, 46335, Note_off_c, 0, 84, 64
2, 46340, Note_on_c, 0, 60, 35
2, 46342, Note_on_c, 0, 83, 66
2, 46368, Note_on_c, 0, 81, 62
2, 46388, Note_off_c, 0, 83, 64
2, 46425, Note_off_c, 0, 81, 64
2, 46425, Note_on_c, 0, 79, 62
2, 46433, Note_off_c, 0, 60, 64
2, 46433, Note_on_c, 0, 55, 35
2, 46491, Note_off_c, 0, 79, 64
2, 46522, Note_on_c, 0, 59, 39
2, 46538, Note_off_c, 0, 55, 64
2, 46584, Note_off_c, 0, 59, 64
2, 46619, Note_on_c, 0, 67, 48
2, 46680, Control_c, 0, 64, 127
2, 46710, Note_on_c, 0, 59, 38
2, 46748, Note_on_c, 0, 74, 57
2, 46749, Note_off_c, 0, 67, 64
2, 46771, Control_c, 0, 64, 0
2, 46778, Note_off_c, 0, 59, 64
2, 46801, Note_on_c, 0, 86, 77
2, 46805, Note_on_c, 0, 55, 39
2, 46829, Note_off_c, 0, 74, 64
2, 46909, Note_on_c, 0, 60, 39
2, 46964, Control_c, 0, 64, 127
2, 46992, Note_off_c, 0, 60, 64
2, 47004, Note_on_c, 0, 66, 48
2, 47007, Note_off_c, 0, 86, 64
2, 47088, Note_off_c, 0, 66, 64
2, 47088, Note_on_c, 0, 84, 60
2, 47093, Note_on_c, 0, 60, 39
2, 47115, Control_c, 0, 64, 0
2, 47123, Note_off_c, 0, 84, 64
2, 47123, Note_on_c, 0, 83, 66
2, 47145, Note_on_c, 0, 81, 60
2, 47166, Note_off_c, 0, 60, 64
2, 47169, Note_off_c, 0, 55, 64
2, 47191, Note_off_c, 0, 83, 64
2, 47194, Note_on_c, 0, 59, 36
2, 47196, Note_on_c, 0, 79, 69
2, 47198, Note_on_c, 0, 67, 41
2, 47204, Note_off_c, 0, 81, 64
2, 47218, Note_off_c, 0, 79, 64
2, 47267, Control_c, 0, 64, 127
2, 47272, Note_off_c, 0, 67, 64
2, 47322, Control_c, 0, 64, 0
2, 47347, Note_off_c, 0, 59, 64
2, 47402, Note_on_c, 0, 62, 70
2, 47548, Note_on_c, 0, 67, 63
2, 47564, Note_off_c, 0, 62, 64
2, 47597, Note_on_c, 0, 71, 73
2, 47604, Note_off_c, 0, 67, 64
2, 47624, Note_off_c, 0, 71, 64
2, 47790, Note_on_c, 0, 69, 55
2, 47795, Note_on_c, 0, 60, 46
2, 47813, Note_on_c, 0, 50, 35
2, 47823, Note_off_c, 0, 69, 64
2, 47827, Note_off_c, 0, 60, 64
2, 47840, Note_off_c, 0, 50, 64
2, 48011, Note_on_c, 0, 60, 35
2, 48017, Note_on_c, 0, 69, 48
2, 48024, Note_on_c, 0, 55, 40
2, 48052, Note_off_c, 0, 55, 64
2, 48250, Note_on_c, 0, 50, 42
2, 48286, Note_off_c, 0, 50, 64
2, 48343, Note_off_c, 0, 60, 64
2, 48513, Note_on_c, 0, 67, 37
2, 48527, Note_on_c, 0, 43, 35
2, 48536, Note_on_c, 0, 59, 35
2, 48606, Note_off_c, 0, 69, 64
2, 48696, Note_off_c, 0, 43, 64
2, 48699, Note_off_c, 0, 59, 64
2, 48722, Control_c, 0, 64, 127
2, 48784, Note_off_c, 0, 67, 64
2, 48985, Control_c, 0, 64, 0
2, 49063, Note_on_c, 0, 76, 41
2, 49263, Note_on_c, 0, 48, 46
2, 49290, Note_off_c, 0, 48, 64
2, 49376, Note_on_c, 0, 77, 55
2, 49402, Note_off_c, 0, 76, 64
2, 49412, Note_on_c, 0, 79, 56
2, 49446, Note_on_c, 0, 72, 61
2, 49452, Note_on_c, 0, 52, 45
2, 49462, Note_off_c, 0, 77, 64
2, 49463, Note_off_c, 0, 72, 64
2, 49473, Note_off_c, 0, 52, 64
2, 49473, Note_off_c, 0, 79, 64
2, 49628, Note_on_c, 0, 74, 60
2, 49631, Note_on_c, 0, 71, 56
2, 49635, Note_on_c, 0, 55, 43
2, 49650, Note_off_c, 0, 71, 64
2, 49650, Note_off_c, 0, 74, 64
2, 49658, Note_off_c, 0, 55, 64
2, 49822, Note_on_c, 0, 74, 65
2, 49823, Note_on_c, 0, 60, 51
2, 49827, Note_on_c, 0, 71, 56
2, 49860, Note_off_c, 0, 60, 64
2, 49905, Control_c, 0, 64, 127
2, 49943, Note_off_c, 0, 71, 64
2, 49988, Control_c, 0, 64, 0
2, 49996, Note_off_c, 0, 74, 64
2, 50004, Note_on_c, 0, 77, 66
2, 50010, Note_on_c, 0, 48, 49
2, 50026, Note_on_c, 0, 72, 50
2, 50038, Note_off_c, 0, 48, 64
2, 50048, Note_on_c, 0, 76, 58
2, 50060, Note_off_c, 0, 77, 64
2, 50096, Note_off_c, 0, 72, 64
2, 50175, Note_off_c, 0, 76, 64
2, 50196, Note_on_c, 0, 74, 45
2, 50207, Note_on_c, 0, 55, 48
2, 50207, Note_on_c, 0, 71, 45
2, 50234, Note_off_c, 0, 55, 64
2, 50394, Note_on_c, 0, 43, 40
2, 50423, Note_off_c, 0, 43, 64
2, 50491, Note_off_c, 0, 71, 64
2, 50602, Note_on_c, 0, 76, 75
2, 50667, Note_off_c, 0, 74, 64
2, 50789, Note_on_c, 0, 48, 52
2, 50824, Note_off_c, 0, 48, 64
2, 50902, Note_on_c, 0, 77, 58
2, 50929, Note_off_c, 0, 76, 64
2, 50939, Note_on_c, 0, 79, 63
2, 50965, Note_on_c, 0, 52, 64
2, 50972, Note_on_c, 0, 72, 68
2, 50980, Note_off_c, 0, 79, 64
2, 50987, Note_off_c, 0, 52, 64
2, 50989, Note_off_c, 0, 77, 64
2, 50991, Note_off_c, 0, 72, 64
2, 51148, Note_on_c, 0, 74, 71
2, 51151, Note_on_c, 0, 55, 67
2, 51161, Note_on_c, 0, 71, 42
2, 51166, Note_off_c, 0, 74, 64
2, 51168, Note_off_c, 0, 55, 64
2, 51181, Note_off_c, 0, 71, 64
2, 51335, Note_on_c, 0, 60, 61
2, 51337, Note_on_c, 0, 74, 66
2, 51337, Note_on_c, 0, 77, 75
2, 51358, Note_off_c, 0, 60, 64
2, 51418, Note_off_c, 0, 74, 64
2, 51435, Control_c, 0, 64, 127
2, 51479, Note_off_c, 0, 77, 64
2, 51510, Note_on_c, 0, 48, 57
2, 51519, Note_on_c, 0, 76, 58
2, 51523, Note_on_c, 0, 72, 57
2, 51523, Control_c, 0, 64, 0
2, 51532, Note_off_c, 0, 76, 64
2, 51536, Note_on_c, 0, 77, 65
2, 51562, Note_off_c, 0, 72, 64
2, 51578, Note_off_c, 0, 48, 64
2, 51578, Note_on_c, 0, 76, 71
2, 51594, Note_off_c, 0, 77, 64
2, 51624, Note_off_c, 0, 76, 64
2, 51624, Note_on_c, 0, 74, 67
2, 51652, Note_off_c, 0, 74, 64
2, 51662, Note_on_c, 0, 76, 64
2, 51690, Note_on_c, 0, 55, 41
2, 51702, Note_on_c, 0, 71, 35
2, 51708, Note_off_c, 0, 76, 64
2, 51710, Note_on_c, 0, 74, 65
2, 51712, Note_off_c, 0, 55, 64
2, 51879, Note_on_c, 0, 43, 53
2, 51887, Note_off_c, 0, 74, 64
2, 51887, Note_off_c, 0, 71, 64
2, 51901, Note_off_c, 0, 43, 64
2, 52101, Note_on_c, 0, 77, 62
2, 52101, Note_on_c, 0, 57, 44
2, 52294, Note_on_c, 0, 60, 38
2, 52304, Control_c, 0, 64, 127
2, 52355, Control_c, 0, 67, 0
2, 52367, Note_off_c, 0, 77, 64
2, 52387, Control_c, 0, 64, 0
2, 52397, Note_on_c, 0, 79, 61
2, 52431, Note_on_c, 0, 77, 66
2, 52444, Note_off_c, 0, 60, 64
2, 52447, Note_off_c, 0, 79, 64
2, 52464, Note_on_c, 0, 76, 73
2, 52468, Note_on_c, 0, 55, 40
2, 52470, Note_off_c, 0, 77, 64
2, 52480, Note_off_c, 0, 76, 64
2, 52492, Note_off_c, 0, 57, 64
2, 52516, Control_c, 0, 67, 127
2, 52656, Note_on_c, 0, 76, 68
2, 52667, Note_on_c, 0, 60, 42
2, 52674, Note_off_c, 0, 76, 64
2, 52830, Note_off_c, 0, 60, 64
2, 52847, Note_on_c, 0, 81, 76
2, 52860, Note_on_c, 0, 53, 39
2, 52881, Note_off_c, 0, 55, 64
2, 53004, Control_c, 0, 64, 127
2, 53032, Note_on_c, 0, 60, 44
2, 53125, Note_on_c, 0, 83, 65
2, 53153, Note_off_c, 0, 81, 64
2, 53165, Control_c, 0, 64, 0
2, 53170, Note_on_c, 0, 84, 61
2, 53178, Note_off_c, 0, 83, 64
2, 53180, Note_off_c, 0, 60, 64
2, 53196, Note_on_c, 0, 79, 64
2, 53203, Note_on_c, 0, 52, 35
2, 53207, Note_off_c, 0, 84, 64
2, 53213, Note_off_c, 0, 79, 64
2, 53241, Note_off_c, 0, 53, 64
2, 53383, Note_on_c, 0, 79, 58
2, 53393, Note_on_c, 0, 60, 39
2, 53401, Note_off_c, 0, 79, 64
2, 53424, Note_off_c, 0, 60, 64
2, 53425, Note_off_c, 0, 52, 64
2, 53570, Note_on_c, 0, 79, 64
2, 53656, Note_on_c, 0, 77, 58
2, 53680, Note_off_c, 0, 77, 64
2, 53680, Note_off_c, 0, 79, 64
2, 53751, Note_on_c, 0, 77, 61
2, 53767, Note_on_c, 0, 59, 35
2, 53767, Note_on_c, 0, 67, 36
2, 53815, Note_off_c, 0, 77, 64
2, 53819, Note_off_c, 0, 67, 64
2, 53819, Note_off_c, 0, 59, 64
2, 53835, Note_on_c, 0, 74, 59
2, 53870, Note_off_c, 0, 74, 64
2, 53933, Note_on_c, 0, 77, 66
2, 54009, Note_on_c, 0, 76, 51
2, 54041, Note_off_c, 0, 76, 64
2, 54041, Note_off_c, 0, 77, 64
2, 54101, Note_on_c, 0, 76, 64
2, 54109, Note_on_c, 0, 60, 42
2, 54112, Note_on_c, 0, 67, 42
2, 54132, Note_off_c, 0, 67, 64
2, 54132, Note_off_c, 0, 60, 64
2, 54159, Note_off_c, 0, 76, 64
2, 54182, Note_on_c, 0, 72, 65
2, 54265, Note_off_c, 0, 72, 64
2, 54275, Note_on_c, 0, 73, 70
2, 54279, Note_on_c, 0, 59, 40
2, 54287, Note_on_c, 0, 55, 35
2, 54362, Note_on_c, 0, 74, 72
2, 54385, Note_off_c, 0, 73, 64
2, 54445, Note_on_c, 0, 76, 79
2, 54469, Note_off_c, 0, 74, 64
2, 54499, Note_off_c, 0, 76, 64
2, 54536, Note_on_c, 0, 74, 73
2, 54572, Note_off_c, 0, 74, 64
2, 54617, Note_on_c, 0, 72, 74
2, 54653, Note_off_c, 0, 72, 64
2, 54691, Note_off_c, 0, 59, 64
2, 54702, Note_on_c, 0, 71, 73
2, 54708, Note_off_c, 0, 55, 64
2, 54718, Note_off_c, 0, 71, 64
2, 54783, Note_on_c, 0, 69, 68
2, 54804, Note_off_c, 0, 69, 64
2, 54882, Note_on_c, 0, 67, 47
2, 54899, Note_off_c, 0, 67, 64
2, 54968, Note_on_c, 0, 76, 83
2, 54969, Note_on_c, 0, 36, 67
2, 54995, Note_off_c, 0, 36, 64
2, 55055, Control_c, 0, 67, 0
2, 55058, Note_on_c, 0, 40, 63
2, 55076, Note_off_c, 0, 40, 64
2, 55135, Note_on_c, 0, 43, 69
2, 55155, Note_off_c, 0, 43, 64
2, 55218, Note_on_c, 0, 77, 57
2, 55224, Note_on_c, 0, 48, 60
2, 55234, Note_off_c, 0, 76, 64
2, 55246, Note_off_c, 0, 48, 64
2, 55264, Note_on_c, 0, 79, 74
2, 55289, Note_off_c, 0, 77, 64
2, 55292, Note_on_c, 0, 72, 68
2, 55297, Note_on_c, 0, 40, 71
2, 55305, Note_off_c, 0, 79, 64
2, 55307, Note_off_c, 0, 72, 64
2, 55315, Note_off_c, 0, 40, 64
2, 55391, Note_on_c, 0, 52, 61
2, 55410, Note_off_c, 0, 52, 64
2, 55471, Note_on_c, 0, 74, 67
2, 55471, Note_on_c, 0, 43, 69
2, 55472, Note_on_c, 0, 71, 67
2, 55491, Note_off_c, 0, 43, 64
2, 55491, Note_off_c, 0, 74, 64
2, 55493, Note_off_c, 0, 71, 64
2, 55558, Note_on_c, 0, 55, 66
2, 55578, Note_off_c, 0, 55, 64
2, 55641, Note_on_c, 0, 74, 78
2, 55647, Note_on_c, 0, 71, 70
2, 55657, Note_on_c, 0, 48, 71
2, 55671, Note_off_c, 0, 48, 64
2, 55722, Note_on_c, 0, 52, 72
2, 55733, Note_off_c, 0, 71, 64
2, 55744, Note_off_c, 0, 52, 64
2, 55746, Control_c, 0, 64, 127
2, 55770, Note_off_c, 0, 74, 64
2, 55788, Control_c, 0, 64, 0
2, 55806, Note_on_c, 0, 77, 76
2, 55811, Note_on_c, 0, 55, 68
2, 55825, Note_on_c, 0, 72, 58
2, 55841, Note_off_c, 0, 55, 64
2, 55841, Note_on_c, 0, 76, 71
2, 55860, Note_off_c, 0, 77, 64
2, 55880, Note_on_c, 0, 60, 64
2, 55890, Note_off_c, 0, 72, 64
2, 55900, Note_off_c, 0, 60, 64
2, 55980, Note_on_c, 0, 43, 67
2, 55984, Note_on_c, 0, 74, 72
2, 55985, Note_off_c, 0, 76, 64
2, 55987, Note_on_c, 0, 71, 64
2, 55997, Note_off_c, 0, 43, 64
2, 56064, Note_on_c, 0, 47, 64
2, 56088, Note_off_c, 0, 47, 64
2, 56157, Note_on_c, 0, 50, 58
2, 56184, Note_off_c, 0, 50, 64
2, 56240, Note_on_c, 0, 55, 59
2, 56259, Note_off_c, 0, 55, 64
2, 56280, Note_off_c, 0, 74, 64
2, 56293, Note_off_c, 0, 71, 64
2, 56329, Note_on_c, 0, 76, 83
2, 56339, Note_on_c, 0, 36, 71
2, 56360, Note_off_c, 0, 36, 64
2, 56424, Note_on_c, 0, 40, 69
2, 56448, Note_off_c, 0, 40, 64
2, 56507, Note_on_c, 0, 43, 77
2, 56531, Note_off_c, 0, 43, 64
2, 56596, Note_on_c, 0, 48, 59
2, 56606, Note_on_c, 0, 77, 64
2, 56616, Note_off_c, 0, 48, 64
2, 56617, Note_off_c, 0, 76, 64
2, 56636, Note_on_c, 0, 79, 72
2, 56669, Note_on_c, 0, 40, 71
2, 56679, Note_on_c, 0, 72, 65
2, 56680, Note_off_c, 0, 77, 64
2, 56683, Note_off_c, 0, 79, 64
2, 56686, Note_off_c, 0, 40, 64
2, 56697, Note_off_c, 0, 72, 64
2, 56755, Note_on_c, 0, 52, 65
2, 56774, Note_off_c, 0, 52, 64
2, 56844, Note_on_c, 0, 74, 69
2, 56848, Note_on_c, 0, 71, 70
2, 56850, Note_on_c, 0, 43, 64
2, 56867, Note_off_c, 0, 43, 64
2, 56876, Note_off_c, 0, 71, 64
2, 56876, Note_off_c, 0, 74, 64
2, 56933, Note_on_c, 0, 55, 62
2, 56956, Note_off_c, 0, 55, 64
2, 57019, Note_on_c, 0, 77, 78
2, 57019, Note_on_c, 0, 74, 76
2, 57026, Note_on_c, 0, 48, 75
2, 57043, Note_off_c, 0, 48, 64
2, 57106, Note_on_c, 0, 52, 75
2, 57126, Note_off_c, 0, 52, 64
2, 57128, Note_off_c, 0, 74, 64
2, 57155, Note_off_c, 0, 77, 64
2, 57195, Note_on_c, 0, 76, 75
2, 57196, Note_on_c, 0, 55, 72
2, 57197, Note_on_c, 0, 72, 66
2, 57216, Note_off_c, 0, 55, 64
2, 57216, Note_off_c, 0, 76, 64
2, 57222, Note_on_c, 0, 77, 66
2, 57242, Note_off_c, 0, 72, 64
2, 57265, Note_on_c, 0, 76, 69
2, 57271, Note_on_c, 0, 60, 55
2, 57276, Note_off_c, 0, 77, 64
2, 57288, Note_off_c, 0, 60, 64
2, 57296, Note_on_c, 0, 74, 72
2, 57297, Note_off_c, 0, 76, 64
2, 57319, Note_off_c, 0, 74, 64
2, 57329, Note_on_c, 0, 76, 53
2, 57359, Note_on_c, 0, 71, 47
2, 57361, Note_on_c, 0, 74, 78
2, 57361, Note_on_c, 0, 43, 73
2, 57381, Note_off_c, 0, 76, 64
2, 57386, Note_off_c, 0, 43, 64
2, 57449, Note_on_c, 0, 47, 73
2, 57472, Note_off_c, 0, 47, 64
2, 57537, Note_on_c, 0, 50, 68
2, 57543, Note_off_c, 0, 71, 64
2, 57548, Note_off_c, 0, 74, 64
2, 57558, Note_off_c, 0, 50, 64
2, 57625, Note_on_c, 0, 55, 59
2, 57651, Note_off_c, 0, 55, 64
2, 57718, Control_c, 0, 67, 127
2, 57726, Note_on_c, 0, 77, 70
2, 57732, Note_on_c, 0, 57, 50
2, 57786, Note_off_c, 0, 57, 64
2, 57824, Note_on_c, 0, 60, 54
2, 57846, Note_off_c, 0, 60, 64
2, 57899, Note_on_c, 0, 57, 57
2, 57925, Note_off_c, 0, 57, 64
2, 57958, Note_off_c, 0, 77, 64
2, 57988, Note_on_c, 0, 79, 60
2, 57989, Note_on_c, 0, 60, 62
2, 58013, Note_off_c, 0, 60, 64
2, 58021, Note_on_c, 0, 77, 75
2, 58040, Note_off_c, 0, 79, 64
2, 58056, Note_on_c, 0, 76, 81
2, 58066, Note_off_c, 0, 77, 64
2, 58066, Note_on_c, 0, 55, 65
2, 58079, Note_off_c, 0, 76, 64
2, 58085, Note_off_c, 0, 55, 64
2, 58152, Note_on_c, 0, 60, 70
2, 58178, Note_off_c, 0, 60, 64
2, 58242, Note_on_c, 0, 76, 79
2, 58245, Note_on_c, 0, 55, 68
2, 58262, Note_off_c, 0, 76, 64
2, 58265, Note_off_c, 0, 55, 64
2, 58322, Note_on_c, 0, 60, 75
2, 58345, Note_off_c, 0, 60, 64
2, 58411, Note_on_c, 0, 81, 83
2, 58424, Note_on_c, 0, 53, 70
2, 58443, Note_off_c, 0, 53, 64
2, 58506, Note_on_c, 0, 60, 76
2, 58532, Note_off_c, 0, 60, 64
2, 58589, Note_on_c, 0, 53, 75
2, 58617, Note_off_c, 0, 53, 64
2, 58678, Note_on_c, 0, 83, 75
2, 58680, Note_on_c, 0, 60, 72
2, 58690, Note_off_c, 0, 81, 64
2, 58698, Note_off_c, 0, 60, 64
2, 58704, Note_on_c, 0, 84, 70
2, 58725, Note_off_c, 0, 83, 64
2, 58753, Note_on_c, 0, 79, 79
2, 58758, Note_on_c, 0, 52, 79
2, 58775, Note_off_c, 0, 84, 64
2, 58778, Note_off_c, 0, 52, 64
2, 58784, Note_off_c, 0, 79, 64
2, 58844, Note_on_c, 0, 60, 76
2, 58867, Note_off_c, 0, 60, 64
2, 58932, Note_on_c, 0, 79, 75
2, 58937, Note_on_c, 0, 52, 79
2, 58954, Note_off_c, 0, 79, 64
2, 58967, Note_off_c, 0, 52, 64
2, 59015, Note_on_c, 0, 60, 70
2, 59034, Note_off_c, 0, 60, 64
2, 59113, Note_on_c, 0, 80, 87
2, 59190, Note_on_c, 0, 81, 79
2, 59211, Note_off_c, 0, 80, 64
2, 59224, Note_off_c, 0, 81, 64
2, 59274, Note_on_c, 0, 77, 84
2, 59287, Note_on_c, 0, 62, 71
2, 59287, Note_on_c, 0, 53, 53
2, 59307, Note_off_c, 0, 62, 64
2, 59308, Note_off_c, 0, 53, 64
2, 59309, Note_off_c, 0, 77, 64
2, 59360, Note_on_c, 0, 74, 73
2, 59392, Note_off_c, 0, 74, 64
2, 59456, Note_on_c, 0, 64, 70
2, 59456, Note_on_c, 0, 72, 78
2, 59463, Note_on_c, 0, 55, 60
2, 59647, Note_off_c, 0, 64, 64
2, 59648, Note_on_c, 0, 71, 69
2, 59651, Note_on_c, 0, 62, 62
2, 59657, Note_off_c, 0, 72, 64
2, 59777, Note_off_c, 0, 71, 64
2, 59810, Note_off_c, 0, 62, 64
2, 59817, Note_off_c, 0, 55, 64
2, 59828, Note_on_c, 0, 72, 70
2, 59837, Note_on_c, 0, 60, 46
2, 59839, Note_on_c, 0, 64, 48
2, 59873, Note_off_c, 0, 72, 64
2, 59880, Note_on_c, 0, 67, 70
2, 59903, Note_off_c, 0, 67, 64
2, 59946, Note_on_c, 0, 76, 69
2, 59964, Note_off_c, 0, 76, 64
2, 59996, Note_on_c, 0, 72, 78
2, 60027, Note_off_c, 0, 72, 64
2, 60054, Note_off_c, 0, 64, 64
2, 60054, Note_on_c, 0, 79, 72
2, 60074, Note_off_c, 0, 79, 64
2, 60074, Note_off_c, 0, 60, 64
2, 60115, Note_on_c, 0, 76, 71
2, 60132, Note_off_c, 0, 76, 64
2, 60175, Note_on_c, 0, 84, 82
2, 60226, Note_on_c, 0, 83, 78
2, 60264, Note_off_c, 0, 84, 64
2, 60279, Note_on_c, 0, 81, 77
2, 60301, Note_off_c, 0, 83, 64
2, 60336, Note_on_c, 0, 79, 79
2, 60346, Note_off_c, 0, 81, 64
2, 60379, Note_off_c, 0, 79, 64
2, 60387, Note_on_c, 0, 77, 73
2, 60412, Note_off_c, 0, 77, 64
2, 60449, Note_on_c, 0, 76, 57
2, 60492, Note_off_c, 0, 76, 64
2, 60497, Note_on_c, 0, 73, 81
2, 60535, Note_off_c, 0, 73, 64
2, 60558, Note_on_c, 0, 74, 71
2, 60603, Note_off_c, 0, 74, 64
2, 60618, Note_on_c, 0, 77, 68
2, 60651, Note_off_c, 0, 77, 64
2, 60663, Note_on_c, 0, 81, 77
2, 60669, Note_on_c, 0, 53, 57
2, 60670, Note_on_c, 0, 62, 65
2, 60670, Note_on_c, 0, 57, 53
2, 60689, Note_off_c, 0, 57, 64
2, 60689, Note_off_c, 0, 62, 64
2, 60691, Note_off_c, 0, 53, 64
2, 60723, Note_on_c, 0, 77, 72
2, 60732, Note_off_c, 0, 81, 64
2, 60769, Note_on_c, 0, 74, 59
2, 60776, Note_off_c, 0, 77, 64
2, 60830, Note_on_c, 0, 79, 75
2, 60832, Note_on_c, 0, 64, 75
2, 60833, Note_on_c, 0, 55, 67
2, 60833, Note_on_c, 0, 60, 70
2, 60845, Note_off_c, 0, 74, 64
2, 60855, Note_off_c, 0, 64, 64
2, 60883, Note_on_c, 0, 76, 73
2, 60895, Note_off_c, 0, 79, 64
2, 60910, Note_off_c, 0, 60, 64
2, 60953, Note_on_c, 0, 72, 68
2, 60954, Note_off_c, 0, 76, 64
2, 61008, Note_on_c, 0, 65, 69
2, 61008, Note_on_c, 0, 77, 75
2, 61016, Note_on_c, 0, 62, 60
2, 61017, Note_off_c, 0, 72, 64
2, 61033, Note_off_c, 0, 55, 64
2, 61066, Note_on_c, 0, 74, 69
2, 61069, Note_off_c, 0, 65, 64
2, 61076, Note_off_c, 0, 77, 64
2, 61122, Note_on_c, 0, 71, 71
2, 61123, Note_off_c, 0, 74, 64
2, 61145, Note_off_c, 0, 71, 64
2, 61145, Note_off_c, 0, 62, 64
2, 61182, Note_on_c, 0, 72, 80
2, 61188, Note_on_c, 0, 60, 66
2, 61189, Note_on_c, 0, 64, 65
2, 61209, Note_off_c, 0, 64, 64
2, 61238, Note_off_c, 0, 72, 64
2, 61243, Note_on_c, 0, 67, 75
2, 61245, Control_c, 0, 67, 0
2, 61248, Note_off_c, 0, 60, 64
2, 61263, Note_off_c, 0, 67, 64
2, 61302, Note_on_c, 0, 76, 83
2, 61326, Note_off_c, 0, 76, 64
2, 61351, Note_on_c, 0, 72, 78
2, 61376, Note_off_c, 0, 72, 64
2, 61416, Note_on_c, 0, 79, 75
2, 61439, Note_off_c, 0, 79, 64
2, 61466, Note_on_c, 0, 76, 79
2, 61482, Note_off_c, 0, 76, 64
2, 61529, Note_on_c, 0, 84, 91
2, 61579, Note_on_c, 0, 83, 86
2, 61602, Note_off_c, 0, 84, 64
2, 61635, Note_on_c, 0, 81, 79
2, 61658, Note_off_c, 0, 83, 64
2, 61688, Note_on_c, 0, 79, 83
2, 61701, Note_off_c, 0, 81, 64
2, 61733, Note_off_c, 0, 79, 64
2, 61741, Note_on_c, 0, 77, 75
2, 61769, Note_off_c, 0, 77, 64
2, 61796, Note_on_c, 0, 76, 62
2, 61841, Note_off_c, 0, 76, 64
2, 61846, Note_on_c, 0, 73, 85
2, 61884, Note_off_c, 0, 73, 64
2, 61904, Note_on_c, 0, 74, 72
2, 61959, Note_off_c, 0, 74, 64
2, 61959, Note_on_c, 0, 77, 75
2, 61995, Note_off_c, 0, 77, 64
2, 62012, Note_on_c, 0, 81, 81
2, 62020, Note_on_c, 0, 57, 65
2, 62023, Note_on_c, 0, 62, 71
2, 62025, Note_on_c, 0, 53, 56
2, 62043, Note_off_c, 0, 62, 64
2, 62043, Note_off_c, 0, 57, 64
2, 62045, Note_off_c, 0, 53, 64
2, 62075, Note_on_c, 0, 77, 73
2, 62083, Note_off_c, 0, 81, 64
2, 62124, Note_on_c, 0, 74, 61
2, 62131, Note_off_c, 0, 77, 64
2, 62181, Note_on_c, 0, 55, 73
2, 62182, Note_on_c, 0, 60, 72
2, 62182, Note_on_c, 0, 64, 74
2, 62183, Note_off_c, 0, 74, 64
2, 62185, Note_on_c, 0, 79, 75
2, 62202, Note_off_c, 0, 64, 64
2, 62202, Note_off_c, 0, 60, 64
2, 62241, Note_on_c, 0, 76, 79
2, 62251, Note_off_c, 0, 79, 64
2, 62305, Note_off_c, 0, 76, 64
2, 62305, Note_on_c, 0, 72, 71
2, 62338, Note_off_c, 0, 72, 64
2, 62354, Note_on_c, 0, 65, 78
2, 62360, Note_on_c, 0, 77, 78
2, 62363, Note_on_c, 0, 62, 65
2, 62382, Note_off_c, 0, 55, 64
2, 62392, Note_off_c, 0, 65, 64
2, 62408, Note_on_c, 0, 74, 79
2, 62428, Note_off_c, 0, 77, 64
2, 62463, Note_on_c, 0, 71, 81
2, 62478, Note_off_c, 0, 74, 64
2, 62479, Note_off_c, 0, 62, 64
2, 62514, Note_off_c, 0, 71, 64
2, 62518, Note_on_c, 0, 72, 93
2, 62532, Note_on_c, 0, 60, 72
2, 62532, Note_on_c, 0, 64, 74
2, 62541, Note_off_c, 0, 72, 64
2, 62546, Note_off_c, 0, 64, 64
2, 62547, Note_off_c, 0, 60, 64
2, 62720, Note_on_c, 0, 67, 91
2, 62724, Note_on_c, 0, 55, 79
2, 62740, Note_off_c, 0, 55, 64
2, 62740, Note_off_c, 0, 67, 64
2, 62916, Note_on_c, 0, 60, 89
2, 62917, Note_on_c, 0, 36, 78
2, 62921, Note_on_c, 0, 48, 74
2, 62939, Note_off_c, 0, 48, 64
2, 62939, Note_off_c, 0, 36, 64
2, 62940, Note_off_c, 0, 60, 64
2, 62962, Control_c, 0, 64, 127
2, 63100, Control_c, 0, 64, 0
2, 63349, Note_on_c, 0, 76, 68
2, 63364, Note_on_c, 0, 60, 35
2, 63453, Note_on_c, 0, 67, 44
2, 63536, Control_c, 0, 64, 127
2, 63543, Note_off_c, 0, 67, 64
2, 63553, Note_on_c, 0, 66, 35
2, 63623, Note_on_c, 0, 67, 39
2, 63624, Note_off_c, 0, 60, 64
2, 63706, Note_on_c, 0, 60, 48
2, 63712, Note_off_c, 0, 76, 64
2, 63716, Note_off_c, 0, 66, 64
2, 63719, Note_off_c, 0, 67, 64
2, 63742, Note_on_c, 0, 77, 64
2, 63778, Note_on_c, 0, 76, 68
2, 63780, Note_off_c, 0, 77, 64
2, 63788, Control_c, 0, 64, 0
2, 63792, Note_on_c, 0, 67, 40
2, 63796, Note_off_c, 0, 76, 64
2, 63797, Note_on_c, 0, 74, 76
2, 63815, Note_off_c, 0, 60, 64
2, 63828, Note_off_c, 0, 67, 64
2, 63828, Note_on_c, 0, 76, 78
2, 63845, Note_off_c, 0, 74, 64
2, 63876, Note_on_c, 0, 79, 75
2, 63881, Note_on_c, 0, 62, 40
2, 63898, Note_off_c, 0, 76, 64
2, 63966, Note_on_c, 0, 77, 75
2, 63967, Note_on_c, 0, 67, 42
2, 64022, Note_off_c, 0, 62, 64
2, 64023, Note_off_c, 0, 79, 64
2, 64052, Note_on_c, 0, 64, 48
2, 64055, Note_off_c, 0, 67, 64
2, 64056, Note_on_c, 0, 76, 72
2, 64106, Note_off_c, 0, 77, 64
2, 64130, Note_on_c, 0, 67, 43
2, 64139, Note_off_c, 0, 64, 64
2, 64142, Note_on_c, 0, 74, 68
2, 64148, Control_c, 0, 67, 127
2, 64162, Note_off_c, 0, 76, 64
2, 64205, Note_off_c, 0, 74, 64
2, 64220, Note_on_c, 0, 72, 59
2, 64223, Note_off_c, 0, 67, 64
2, 64230, Note_on_c, 0, 65, 41
2, 64285, Note_off_c, 0, 65, 64
2, 64296, Note_off_c, 0, 72, 64
2, 64300, Note_on_c, 0, 67, 48
2, 64306, Note_on_c, 0, 71, 60
2, 64392, Note_off_c, 0, 71, 64
2, 64399, Note_off_c, 0, 67, 64
2, 64404, Note_on_c, 0, 72, 61
2, 64406, Note_on_c, 0, 64, 46
2, 64457, Note_off_c, 0, 64, 64
2, 64492, Note_on_c, 0, 67, 46
2, 64515, Note_off_c, 0, 72, 64
2, 64581, Note_on_c, 0, 73, 77
2, 64582, Note_off_c, 0, 67, 64
2, 64595, Note_on_c, 0, 58, 46
2, 64598, Note_off_c, 0, 73, 64
2, 64622, Note_off_c, 0, 58, 64
2, 64671, Note_on_c, 0, 67, 45
2, 64762, Note_off_c, 0, 67, 64
2, 64762, Note_on_c, 0, 74, 67
2, 64769, Note_on_c, 0, 59, 41
2, 64778, Note_off_c, 0, 74, 64
2, 64804, Note_off_c, 0, 59, 64
2, 64847, Note_on_c, 0, 67, 43
2, 64932, Note_off_c, 0, 67, 64
2, 64938, Note_on_c, 0, 75, 64
2, 64948, Note_on_c, 0, 59, 36
2, 64958, Note_off_c, 0, 75, 64
2, 64986, Note_off_c, 0, 59, 64
2, 65018, Note_on_c, 0, 67, 41
2, 65079, Note_off_c, 0, 67, 64
2, 65122, Note_on_c, 0, 76, 64
2, 65131, Note_on_c, 0, 60, 40
2, 65142, Note_off_c, 0, 76, 64
2, 65215, Note_on_c, 0, 67, 43
2, 65268, Note_off_c, 0, 60, 64
2, 65300, Note_on_c, 0, 79, 67
2, 65308, Note_off_c, 0, 67, 64
2, 65321, Note_on_c, 0, 62, 37
2, 65366, Note_off_c, 0, 62, 64
2, 65385, Note_on_c, 0, 77, 72
2, 65395, Note_on_c, 0, 67, 41
2, 65409, Note_off_c, 0, 79, 64
2, 65431, Note_off_c, 0, 77, 64
2, 65461, Note_off_c, 0, 67, 64
2, 65484, Note_on_c, 0, 76, 72
2, 65498, Note_on_c, 0, 60, 41
2, 65577, Note_on_c, 0, 67, 35
2, 65650, Control_c, 0, 64, 127
2, 65657, Note_on_c, 0, 66, 40
2, 65658, Note_off_c, 0, 67, 64
2, 65718, Note_off_c, 0, 60, 64
2, 65734, Note_off_c, 0, 76, 64
2, 65740, Note_on_c, 0, 67, 37
2, 65748, Note_off_c, 0, 66, 64
2, 65760, Note_on_c, 0, 77, 54
2, 65784, Control_c, 0, 64, 0
2, 65800, Note_on_c, 0, 76, 61
2, 65817, Note_off_c, 0, 67, 64
2, 65828, Note_off_c, 0, 77, 64
2, 65842, Note_off_c, 0, 76, 64
2, 65844, Note_on_c, 0, 74, 56
2, 65854, Note_on_c, 0, 59, 39
2, 65940, Note_on_c, 0, 67, 39
2, 65960, Note_off_c, 0, 74, 64
2, 65963, Control_c, 0, 64, 127
2, 66018, Note_off_c, 0, 67, 64
2, 66024, Note_on_c, 0, 66, 36
2, 66110, Note_on_c, 0, 67, 41
2, 66113, Note_off_c, 0, 59, 64
2, 66176, Note_off_c, 0, 66, 64
2, 66192, Control_c, 0, 64, 0
2, 66204, Note_on_c, 0, 77, 62
2, 66211, Note_off_c, 0, 67, 64
2, 66224, Note_on_c, 0, 59, 35
2, 66297, Note_on_c, 0, 67, 35
2, 66380, Note_off_c, 0, 67, 64
2, 66383, Note_on_c, 0, 66, 35
2, 66393, Control_c, 0, 64, 127
2, 66445, Note_off_c, 0, 59, 64
2, 66455, Note_on_c, 0, 67, 47
2, 66523, Note_off_c, 0, 77, 64
2, 66530, Note_off_c, 0, 66, 64
2, 66546, Note_on_c, 0, 59, 41
2, 66554, Note_off_c, 0, 67, 64
2, 66554, Note_on_c, 0, 79, 61
2, 66587, Note_on_c, 0, 77, 66
2, 66592, Note_off_c, 0, 79, 64
2, 66607, Note_off_c, 0, 77, 64
2, 66617, Note_on_c, 0, 76, 68
2, 66629, Note_on_c, 0, 67, 46
2, 66647, Control_c, 0, 64, 0
2, 66648, Note_on_c, 0, 77, 69
2, 66661, Note_off_c, 0, 76, 64
2, 66670, Note_off_c, 0, 59, 64
2, 66709, Note_on_c, 0, 81, 67
2, 66720, Note_off_c, 0, 67, 64
2, 66725, Note_off_c, 0, 77, 64
2, 66732, Note_on_c, 0, 60, 40
2, 66801, Note_on_c, 0, 79, 71
2, 66803, Note_on_c, 0, 67, 43
2, 66836, Note_off_c, 0, 81, 64
2, 66849, Note_off_c, 0, 60, 64
2, 66889, Note_on_c, 0, 77, 69
2, 66894, Note_off_c, 0, 67, 64
2, 66899, Note_on_c, 0, 62, 41
2, 66929, Note_off_c, 0, 79, 64
2, 66953, Note_off_c, 0, 62, 64
2, 66969, Note_on_c, 0, 76, 71
2, 66977, Note_on_c, 0, 67, 42
2, 66997, Note_off_c, 0, 77, 64
2, 67036, Note_off_c, 0, 76, 64
2, 67052, Note_on_c, 0, 74, 65
2, 67067, Note_on_c, 0, 64, 48
2, 67069, Note_off_c, 0, 67, 64
2, 67119, Note_off_c, 0, 64, 64
2, 67129, Note_off_c, 0, 74, 64
2, 67135, Note_on_c, 0, 72, 65
2, 67143, Note_on_c, 0, 67, 51
2, 67224, Note_off_c, 0, 72, 64
2, 67224, Note_on_c, 0, 71, 69
2, 67229, Note_off_c, 0, 67, 64
2, 67231, Note_on_c, 0, 65, 51
2, 67243, Note_off_c, 0, 71, 64
2, 67266, Note_off_c, 0, 65, 64
2, 67309, Note_on_c, 0, 72, 71
2, 67319, Note_on_c, 0, 67, 51
2, 67327, Note_off_c, 0, 72, 64
2, 67352, Note_off_c, 0, 67, 64
2, 67394, Note_on_c, 0, 74, 75
2, 67407, Note_on_c, 0, 62, 47
2, 67414, Note_off_c, 0, 74, 64
2, 67439, Note_off_c, 0, 62, 64
2, 67479, Note_on_c, 0, 76, 78
2, 67489, Note_on_c, 0, 67, 48
2, 67500, Note_off_c, 0, 76, 64
2, 67520, Note_off_c, 0, 67, 64
2, 67565, Note_on_c, 0, 77, 72
2, 67578, Note_on_c, 0, 59, 42
2, 67579, Note_off_c, 0, 77, 64
2, 67606, Note_off_c, 0, 59, 64
2, 67643, Note_on_c, 0, 79, 74
2, 67651, Note_on_c, 0, 67, 53
2, 67658, Note_off_c, 0, 79, 64
2, 67681, Note_off_c, 0, 67, 64
2, 67727, Note_on_c, 0, 81, 74
2, 67734, Note_on_c, 0, 62, 53
2, 67750, Note_off_c, 0, 81, 64
2, 67756, Note_off_c, 0, 62, 64
2, 67809, Note_on_c, 0, 83, 77
2, 67817, Note_on_c, 0, 67, 53
2, 67833, Note_off_c, 0, 83, 64
2, 67849, Note_off_c, 0, 67, 64
2, 67890, Note_on_c, 0, 84, 74
2, 67910, Note_off_c, 0, 84, 64
2, 67910, Note_on_c, 0, 59, 49
2, 67938, Note_off_c, 0, 59, 64
2, 67975, Note_on_c, 0, 86, 79
2, 67992, Note_off_c, 0, 86, 64
2, 67992, Note_on_c, 0, 67, 39
2, 68019, Note_off_c, 0, 67, 64
2, 68057, Note_on_c, 0, 88, 72
2, 68076, Note_off_c, 0, 88, 64
2, 68076, Note_on_c, 0, 55, 48
2, 68100, Note_off_c, 0, 55, 64
2, 68139, Note_on_c, 0, 89, 72
2, 68157, Note_off_c, 0, 89, 64
2, 68159, Note_on_c, 0, 67, 48
2, 68188, Note_off_c, 0, 67, 64
2, 68228, Note_on_c, 0, 87, 72
2, 68248, Note_on_c, 0, 60, 57
2, 68272, Note_off_c, 0, 60, 64
2, 68318, Note_on_c, 0, 67, 60
2, 68344, Note_off_c, 0, 67, 64
2, 68396, Note_on_c, 0, 64, 58
2, 68418, Note_off_c, 0, 64, 64
2, 68486, Note_on_c, 0, 67, 59
2, 68522, Note_off_c, 0, 67, 64
2, 68575, Note_on_c, 0, 88, 55
2, 68588, Note_on_c, 0, 60, 46
2, 68605, Note_off_c, 0, 87, 64
2, 68612, Note_off_c, 0, 60, 64
2, 68676, Note_on_c, 0, 67, 39
2, 68701, Note_off_c, 0, 67, 64
2, 68729, Note_off_c, 0, 88, 64
2, 68758, Note_on_c, 0, 64, 44
2, 68786, Note_off_c, 0, 64, 64
2, 68797, Control_c, 0, 64, 127
2, 68849, Note_on_c, 0, 67, 44
2, 68909, Note_off_c, 0, 67, 64
2, 68924, Control_c, 0, 64, 0
2, 68963, Note_on_c, 0, 76, 66
2, 68973, Note_on_c, 0, 60, 40
2, 69034, Note_off_c, 0, 60, 64
2, 69038, Note_on_c, 0, 64, 57
2, 69091, Note_off_c, 0, 64, 64
2, 69114, Note_on_c, 0, 69, 48
2, 69144, Control_c, 0, 64, 127
2, 69159, Note_off_c, 0, 69, 64
2, 69167, Note_on_c, 0, 72, 53
2, 69184, Note_off_c, 0, 72, 64
2, 69211, Note_on_c, 0, 81, 65
2, 69273, Note_on_c, 0, 84, 67
2, 69322, Note_off_c, 0, 84, 64
2, 69324, Note_on_c, 0, 88, 75
2, 69335, Note_off_c, 0, 81, 64
2, 69363, Note_off_c, 0, 76, 64
2, 69377, Note_on_c, 0, 84, 84
2, 69387, Note_off_c, 0, 88, 64
2, 69425, Note_off_c, 0, 84, 64
2, 69425, Note_on_c, 0, 81, 74
2, 69467, Note_off_c, 0, 81, 64
2, 69470, Note_on_c, 0, 84, 78
2, 69489, Control_c, 0, 64, 0
2, 69523, Note_on_c, 0, 81, 77
2, 69544, Note_off_c, 0, 84, 64
2, 69571, Note_on_c, 0, 76, 75
2, 69576, Note_off_c, 0, 81, 64
2, 69607, Note_off_c, 0, 76, 64
2, 69645, Note_on_c, 0, 59, 52
2, 69646, Note_on_c, 0, 74, 63
2, 69700, Note_off_c, 0, 59, 64
2, 69713, Note_on_c, 0, 62, 55
2, 69727, Note_off_c, 0, 74, 64
2, 69761, Note_on_c, 0, 67, 60
2, 69776, Note_off_c, 0, 62, 64
2, 69829, Note_on_c, 0, 71, 64
2, 69854, Note_off_c, 0, 67, 64
2, 69872, Note_off_c, 0, 71, 64
2, 69876, Note_on_c, 0, 79, 72
2, 69936, Note_on_c, 0, 83, 77
2, 69944, Note_off_c, 0, 79, 64
2, 69982, Note_off_c, 0, 83, 64
2, 69982, Note_on_c, 0, 86, 80
2, 70043, Note_on_c, 0, 83, 78
2, 70063, Note_off_c, 0, 86, 64
2, 70095, Note_on_c, 0, 79, 79
2, 70100, Note_off_c, 0, 83, 64
2, 70138, Note_off_c, 0, 79, 64
2, 70152, Note_on_c, 0, 83, 78
2, 70196, Note_on_c, 0, 79, 77
2, 70204, Note_off_c, 0, 83, 64
2, 70247, Note_off_c, 0, 79, 64
2, 70247, Note_on_c, 0, 74, 58
2, 70297, Note_off_c, 0, 74, 64
2, 70311, Note_on_c, 0, 62, 59
2, 70320, Note_on_c, 0, 57, 46
2, 70320, Note_on_c, 0, 54, 54
2, 70359, Note_off_c, 0, 54, 64
2, 70360, Note_off_c, 0, 62, 64
2, 70367, Note_on_c, 0, 74, 69
2, 70368, Note_off_c, 0, 57, 64
2, 70417, Note_on_c, 0, 81, 74
2, 70448, Note_off_c, 0, 74, 64
2, 70457, Control_c, 0, 64, 127
2, 70465, Note_off_c, 0, 81, 64
2, 70470, Note_on_c, 0, 84, 72
2, 70524, Note_on_c, 0, 81, 69
2, 70546, Control_c, 0, 64, 0
2, 70556, Note_off_c, 0, 84, 64
2, 70573, Note_off_c, 0, 81, 64
2, 70586, Note_on_c, 0, 74, 58
2, 70627, Note_off_c, 0, 74, 64
2, 70659, Note_on_c, 0, 62, 42
2, 70660, Note_on_c, 0, 55, 44
2, 70662, Note_on_c, 0, 59, 35
2, 70706, Note_on_c, 0, 74, 55
2, 70716, Note_off_c, 0, 62, 64
2, 70732, Note_off_c, 0, 59, 64
2, 70740, Note_off_c, 0, 55, 64
2, 70747, Note_on_c, 0, 79, 69
2, 70785, Note_off_c, 0, 79, 64
2, 70801, Note_on_c, 0, 83, 72
2, 70821, Note_off_c, 0, 74, 64
2, 70853, Note_on_c, 0, 79, 75
2, 70868, Note_off_c, 0, 83, 64
2, 70899, Note_off_c, 0, 79, 64
2, 70899, Note_on_c, 0, 74, 65
2, 70969, Note_on_c, 0, 81, 70
2, 70969, Note_on_c, 0, 50, 50
2, 70992, Note_off_c, 0, 74, 64
2, 71012, Note_off_c, 0, 50, 64
2, 71105, Note_on_c, 0, 62, 36
2, 71117, Note_off_c, 0, 81, 64
2, 71122, Note_on_c, 0, 78, 63
2, 71149, Note_off_c, 0, 62, 64
2, 71163, Note_on_c, 0, 74, 65
2, 71167, Note_on_c, 0, 61, 49
2, 71170, Note_off_c, 0, 78, 64
2, 71236, Note_off_c, 0, 61, 64
2, 71250, Note_on_c, 0, 62, 47
2, 71324, Note_off_c, 0, 74, 64
2, 71331, Note_on_c, 0, 61, 49
2, 71341, Note_off_c, 0, 62, 64
2, 71407, Note_off_c, 0, 61, 64
2, 71422, Note_on_c, 0, 62, 48
2, 71436, Control_c, 0, 64, 127
2, 71525, Note_on_c, 0, 60, 44
2, 71532, Note_off_c, 0, 62, 64
2, 71595, Control_c, 0, 64, 0
2, 71608, Note_on_c, 0, 62, 43
2, 71645, Note_off_c, 0, 60, 64
2, 71659, Note_on_c, 0, 67, 48
2, 71704, Note_on_c, 0, 79, 74
2, 71712, Note_off_c, 0, 62, 64
2, 71714, Note_on_c, 0, 59, 38
2, 71769, Note_off_c, 0, 67, 64
2, 71802, Note_on_c, 0, 62, 42
2, 71888, Note_off_c, 0, 59, 64
2, 71898, Note_off_c, 0, 62, 64
2, 71902, Note_on_c, 0, 55, 36
2, 71978, Control_c, 0, 64, 127
2, 71981, Note_on_c, 0, 62, 36
2, 72071, Note_on_c, 0, 59, 37
2, 72078, Note_off_c, 0, 62, 64
2, 72101, Note_off_c, 0, 55, 64
2, 72152, Note_on_c, 0, 62, 37
2, 72155, Note_on_c, 0, 78, 63
2, 72240, Note_on_c, 0, 76, 64
2, 72240, Note_on_c, 0, 55, 43
2, 72247, Note_off_c, 0, 59, 64
2, 72254, Note_off_c, 0, 62, 64
2, 72278, Note_off_c, 0, 79, 64
2, 72321, Note_on_c, 0, 74, 72
2, 72331, Note_off_c, 0, 76, 64
2, 72331, Note_on_c, 0, 62, 43
2, 72335, Note_off_c, 0, 55, 64
2, 72341, Note_off_c, 0, 78, 64
2, 72354, Note_off_c, 0, 74, 64
2, 72398, Control_c, 0, 64, 0
2, 72418, Note_on_c, 0, 74, 71
2, 72420, Note_off_c, 0, 62, 64
2, 72426, Note_on_c, 0, 57, 37
2, 72484, Note_off_c, 0, 57, 64
2, 72491, Note_on_c, 0, 72, 64
2, 72500, Note_on_c, 0, 62, 45
2, 72507, Note_off_c, 0, 74, 64
2, 72577, Note_on_c, 0, 71, 66
2, 72594, Note_on_c, 0, 55, 41
2, 72597, Note_off_c, 0, 62, 64
2, 72600, Note_off_c, 0, 72, 64
2, 72638, Note_off_c, 0, 55, 64
2, 72650, Note_off_c, 0, 71, 64
2, 72655, Note_on_c, 0, 69, 60
2, 72687, Note_on_c, 0, 62, 38
2, 72710, Note_off_c, 0, 69, 64
2, 72754, Note_on_c, 0, 74, 64
2, 72774, Note_off_c, 0, 62, 64
2, 72780, Note_off_c, 0, 74, 64
2, 72780, Note_on_c, 0, 54, 35
2, 72824, Note_off_c, 0, 54, 64
2, 72854, Note_on_c, 0, 62, 39
2, 72944, Note_off_c, 0, 62, 64
2, 72952, Note_on_c, 0, 72, 59
2, 72954, Note_on_c, 0, 50, 40
2, 72980, Note_off_c, 0, 72, 64
2, 72990, Note_off_c, 0, 50, 64
2, 73047, Note_on_c, 0, 62, 36
2, 73140, Note_off_c, 0, 62, 64
2, 73149, Note_on_c, 0, 70, 50
2, 73151, Note_on_c, 0, 55, 38
2, 73234, Note_on_c, 0, 62, 36
2, 73310, Note_off_c, 0, 62, 64
2, 73327, Note_on_c, 0, 71, 49
2, 73327, Note_on_c, 0, 61, 35
2, 73347, Note_off_c, 0, 70, 64
2, 73393, Note_off_c, 0, 55, 64
2, 73393, Control_c, 0, 64, 127
2, 73401, Note_on_c, 0, 62, 43
2, 73411, Note_off_c, 0, 61, 64
2, 73488, Note_off_c, 0, 62, 64
2, 73494, Note_on_c, 0, 61, 49
2, 73582, Note_off_c, 0, 61, 64
2, 73587, Note_on_c, 0, 62, 50
2, 73592, Note_off_c, 0, 71, 64
2, 73677, Note_off_c, 0, 62, 64
2, 73680, Note_on_c, 0, 64, 54
2, 73697, Control_c, 0, 64, 0
2, 73755, Note_off_c, 0, 64, 64
2, 73763, Note_on_c, 0, 62, 55
2, 73859, Note_on_c, 0, 60, 55
2, 73929, Note_off_c, 0, 62, 64
2, 73931, Note_on_c, 0, 62, 41
2, 73980, Note_off_c, 0, 60, 64
2, 74038, Note_on_c, 0, 59, 41
2, 74044, Note_off_c, 0, 62, 64
2, 74117, Note_on_c, 0, 62, 46
2, 74168, Note_off_c, 0, 59, 64
2, 74208, Note_on_c, 0, 60, 43
2, 74236, Note_off_c, 0, 62, 64
2, 74289, Control_c, 0, 64, 127
2, 74292, Note_on_c, 0, 62, 35
2, 74377, Control_c, 0, 64, 0
2, 74387, Note_on_c, 0, 57, 37
2, 74397, Note_off_c, 0, 62, 64
2, 74443, Note_off_c, 0, 60, 64
2, 74465, Note_on_c, 0, 62, 35
2, 74525, Note_on_c, 0, 67, 44
2, 74532, Note_off_c, 0, 57, 64
2, 74570, Note_on_c, 0, 79, 72
2, 74570, Note_on_c, 0, 59, 35
2, 74573, Note_off_c, 0, 62, 64
2, 74662, Note_on_c, 0, 62, 38
2, 74688, Note_off_c, 0, 67, 64
2, 74759, Note_on_c, 0, 55, 35
2, 74783, Note_off_c, 0, 62, 64
2, 74812, Note_off_c, 0, 59, 64
2, 74848, Note_on_c, 0, 62, 35
2, 74881, Control_c, 0, 64, 127
2, 74945, Note_on_c, 0, 59, 35
2, 74954, Note_off_c, 0, 62, 64
2, 74978, Note_off_c, 0, 55, 64
2, 75031, Note_on_c, 0, 78, 58
2, 75032, Note_on_c, 0, 62, 38
2, 75115, Note_on_c, 0, 55, 40
2, 75118, Note_on_c, 0, 76, 64
2, 75132, Note_off_c, 0, 62, 64
2, 75140, Note_off_c, 0, 59, 64
2, 75162, Note_off_c, 0, 79, 64
2, 75200, Note_on_c, 0, 62, 48
2, 75205, Note_on_c, 0, 74, 72
2, 75210, Note_off_c, 0, 55, 64
2, 75222, Note_off_c, 0, 76, 64
2, 75228, Note_off_c, 0, 78, 64
2, 75238, Note_off_c, 0, 74, 64
2, 75268, Control_c, 0, 64, 0
2, 75299, Note_on_c, 0, 74, 68
2, 75303, Note_off_c, 0, 62, 64
2, 75303, Note_on_c, 0, 57, 44
2, 75351, Note_off_c, 0, 57, 64
2, 75377, Note_on_c, 0, 72, 61
2, 75382, Note_off_c, 0, 74, 64
2, 75384, Note_on_c, 0, 62, 44
2, 75467, Note_on_c, 0, 71, 64
2, 75472, Note_off_c, 0, 72, 64
2, 75472, Note_on_c, 0, 55, 40
2, 75474, Note_off_c, 0, 62, 64
2, 75528, Note_off_c, 0, 71, 64
2, 75540, Note_off_c, 0, 55, 64
2, 75551, Note_on_c, 0, 69, 57
2, 75564, Note_on_c, 0, 62, 42
2, 75603, Note_off_c, 0, 69, 64
2, 75637, Note_on_c, 0, 74, 64
2, 75654, Note_off_c, 0, 62, 64
2, 75659, Note_off_c, 0, 74, 64
2, 75659, Note_on_c, 0, 54, 35
2, 75708, Note_off_c, 0, 54, 64
2, 75736, Note_on_c, 0, 62, 35
2, 75827, Note_on_c, 0, 72, 64
2, 75829, Note_off_c, 0, 62, 64
2, 75831, Note_on_c, 0, 50, 44
2, 75845, Note_off_c, 0, 72, 64
2, 75867, Note_off_c, 0, 50, 64
2, 75917, Note_on_c, 0, 62, 41
2, 76003, Note_off_c, 0, 62, 64
2, 76013, Note_on_c, 0, 71, 58
2, 76028, Note_on_c, 0, 55, 37
2, 76102, Note_on_c, 0, 62, 35
2, 76150, Control_c, 0, 64, 127
2, 76177, Note_off_c, 0, 71, 64
2, 76181, Note_on_c, 0, 59, 44
2, 76183, Note_off_c, 0, 62, 64
2, 76183, Note_off_c, 0, 55, 64
2, 76224, Note_off_c, 0, 59, 64
2, 76244, Control_c, 0, 64, 0
2, 76262, Note_on_c, 0, 62, 45
2, 76282, Note_on_c, 0, 76, 68
2, 76300, Note_off_c, 0, 76, 64
2, 76301, Note_off_c, 0, 62, 64
2, 76303, Note_on_c, 0, 78, 68
2, 76323, Note_off_c, 0, 78, 64
2, 76333, Note_on_c, 0, 76, 73
2, 76346, Note_on_c, 0, 55, 52
2, 76383, Note_off_c, 0, 76, 64
2, 76439, Note_on_c, 0, 64, 48
2, 76472, Note_on_c, 0, 78, 69
2, 76481, Note_off_c, 0, 55, 64
2, 76499, Note_off_c, 0, 64, 64
2, 76510, Note_off_c, 0, 78, 64
2, 76513, Note_on_c, 0, 79, 72
2, 76517, Note_on_c, 0, 60, 42
2, 76531, Note_off_c, 0, 79, 64
2, 76567, Note_off_c, 0, 60, 64
2, 76604, Note_on_c, 0, 64, 48
2, 76613, Note_on_c, 0, 79, 72
2, 76628, Note_off_c, 0, 79, 64
2, 76653, Note_off_c, 0, 64, 64
2, 76695, Note_on_c, 0, 79, 69
2, 76705, Note_on_c, 0, 55, 40
2, 76770, Note_off_c, 0, 79, 64
2, 76784, Note_on_c, 0, 62, 40
2, 76829, Note_off_c, 0, 62, 64
2, 76853, Note_off_c, 0, 55, 64
2, 76853, Note_on_c, 0, 59, 45
2, 76884, Note_off_c, 0, 59, 64
2, 76927, Note_on_c, 0, 62, 47
2, 76949, Note_on_c, 0, 81, 70
2, 76967, Note_off_c, 0, 81, 64
2, 76975, Note_off_c, 0, 62, 64
2, 76977, Note_on_c, 0, 83, 69
2, 77003, Note_off_c, 0, 83, 64
2, 77004, Note_on_c, 0, 81, 75
2, 77020, Note_on_c, 0, 53, 52
2, 77055, Note_off_c, 0, 81, 64
2, 77109, Note_on_c, 0, 60, 46
2, 77146, Note_on_c, 0, 83, 69
2, 77160, Note_off_c, 0, 60, 64
2, 77172, Note_off_c, 0, 53, 64
2, 77173, Note_on_c, 0, 57, 49
2, 77176, Note_off_c, 0, 83, 64
2, 77183, Note_on_c, 0, 84, 75
2, 77206, Note_off_c, 0, 84, 64
2, 77227, Note_off_c, 0, 57, 64
2, 77264, Note_on_c, 0, 60, 45
2, 77276, Note_on_c, 0, 84, 78
2, 77306, Note_off_c, 0, 84, 64
2, 77337, Note_off_c, 0, 60, 64
2, 77367, Note_on_c, 0, 52, 51
2, 77369, Note_on_c, 0, 84, 74
2, 77466, Note_on_c, 0, 60, 46
2, 77470, Note_off_c, 0, 84, 64
2, 77529, Note_off_c, 0, 52, 64
2, 77530, Note_off_c, 0, 60, 64
2, 77545, Note_on_c, 0, 55, 44
2, 77590, Note_off_c, 0, 55, 64
2, 77625, Note_on_c, 0, 60, 55
2, 77640, Note_on_c, 0, 84, 74
2, 77660, Note_off_c, 0, 84, 64
2, 77664, Note_off_c, 0, 60, 64
2, 77664, Note_on_c, 0, 86, 73
2, 77696, Note_off_c, 0, 86, 64
2, 77699, Note_on_c, 0, 84, 75
2, 77708, Note_on_c, 0, 48, 58
2, 77800, Note_off_c, 0, 84, 64
2, 77804, Note_on_c, 0, 55, 58
2, 77831, Note_off_c, 0, 48, 64
2, 77831, Note_on_c, 0, 86, 77
2, 77860, Note_off_c, 0, 86, 64
2, 77864, Note_off_c, 0, 55, 64
2, 77870, Note_on_c, 0, 52, 56
2, 77873, Note_on_c, 0, 88, 86
2, 77904, Note_off_c, 0, 88, 64
2, 77934, Note_off_c, 0, 52, 64
2, 77956, Note_on_c, 0, 55, 50
2, 77959, Note_on_c, 0, 88, 93
2, 77986, Note_off_c, 0, 88, 64
2, 77989, Note_off_c, 0, 55, 64
2, 78048, Note_on_c, 0, 50, 60
2, 78048, Note_on_c, 0, 88, 91
2, 78095, Note_off_c, 0, 88, 64
2, 78131, Note_on_c, 0, 86, 80
2, 78132, Note_on_c, 0, 59, 52
2, 78151, Note_off_c, 0, 86, 64
2, 78158, Note_off_c, 0, 50, 64
2, 78162, Note_off_c, 0, 59, 64
2, 78211, Note_on_c, 0, 84, 82
2, 78218, Note_on_c, 0, 55, 54
2, 78228, Note_off_c, 0, 84, 64
2, 78245, Note_off_c, 0, 55, 64
2, 78293, Note_on_c, 0, 59, 53
2, 78293, Note_on_c, 0, 83, 82
2, 78309, Note_off_c, 0, 83, 64
2, 78319, Note_off_c, 0, 59, 64
2, 78382, Note_on_c, 0, 81, 76
2, 78383, Note_on_c, 0, 50, 58
2, 78396, Note_off_c, 0, 81, 64
2, 78442, Note_off_c, 0, 50, 64
2, 78470, Note_on_c, 0, 60, 53
2, 78498, Note_off_c, 0, 60, 64
2, 78558, Note_on_c, 0, 86, 84
2, 78563, Note_on_c, 0, 54, 63
2, 78581, Note_off_c, 0, 86, 64
2, 78595, Note_off_c, 0, 54, 64
2, 78649, Note_on_c, 0, 60, 53
2, 78701, Note_off_c, 0, 60, 64
2, 78742, Note_on_c, 0, 84, 84
2, 78744, Note_on_c, 0, 55, 57
2, 78840, Note_on_c, 0, 62, 51
2, 78873, Note_off_c, 0, 62, 64
2, 78890, Note_off_c, 0, 55, 64
2, 78926, Note_on_c, 0, 83, 67
2, 78933, Note_on_c, 0, 59, 48
2, 78945, Note_off_c, 0, 84, 64
2, 78959, Note_off_c, 0, 83, 64
2, 78978, Note_off_c, 0, 59, 64
2, 79024, Note_on_c, 0, 62, 35
2, 79041, Note_on_c, 0, 76, 72
2, 79057, Note_off_c, 0, 76, 64
2, 79058, Note_off_c, 0, 62, 64
2, 79068, Note_on_c, 0, 78, 57
2, 79089, Note_on_c, 0, 76, 81
2, 79094, Note_on_c, 0, 55, 53
2, 79110, Note_off_c, 0, 78, 64
2, 79184, Note_on_c, 0, 64, 37
2, 79212, Note_off_c, 0, 55, 64
2, 79214, Note_on_c, 0, 78, 66
2, 79223, Note_off_c, 0, 76, 64
2, 79238, Note_off_c, 0, 64, 64
2, 79252, Note_on_c, 0, 60, 46
2, 79255, Note_on_c, 0, 79, 74
2, 79268, Note_off_c, 0, 78, 64
2, 79278, Note_off_c, 0, 79, 64
2, 79333, Note_off_c, 0, 60, 64
2, 79348, Note_on_c, 0, 79, 74
2, 79356, Note_on_c, 0, 64, 45
2, 79370, Note_off_c, 0, 79, 64
2, 79392, Note_off_c, 0, 64, 64
2, 79437, Note_on_c, 0, 79, 67
2, 79449, Note_on_c, 0, 55, 39
2, 79501, Note_off_c, 0, 79, 64
2, 79530, Note_on_c, 0, 62, 41
2, 79555, Note_off_c, 0, 55, 64
2, 79580, Note_off_c, 0, 62, 64
2, 79605, Note_on_c, 0, 59, 44
2, 79657, Note_off_c, 0, 59, 64
2, 79690, Note_on_c, 0, 62, 37
2, 79714, Note_on_c, 0, 81, 59
2, 79728, Note_off_c, 0, 62, 64
2, 79730, Note_off_c, 0, 81, 64
2, 79739, Note_on_c, 0, 83, 59
2, 79766, Note_on_c, 0, 81, 69
2, 79776, Note_on_c, 0, 53, 39
2, 79782, Note_off_c, 0, 83, 64
2, 79862, Note_on_c, 0, 60, 36
2, 79902, Note_on_c, 0, 83, 63
2, 79925, Note_off_c, 0, 60, 64
2, 79925, Note_off_c, 0, 81, 64
2, 79930, Note_on_c, 0, 57, 44
2, 79932, Note_off_c, 0, 53, 64
2, 79940, Note_on_c, 0, 84, 67
2, 79945, Note_off_c, 0, 83, 64
2, 79960, Note_off_c, 0, 84, 64
2, 79983, Note_off_c, 0, 57, 64
2, 80017, Note_on_c, 0, 60, 36
2, 80031, Note_on_c, 0, 84, 64
2, 80050, Note_off_c, 0, 84, 64
2, 80088, Note_off_c, 0, 60, 64
2, 80121, Note_on_c, 0, 84, 48
2, 80124, Note_on_c, 0, 52, 41
2, 80187, Note_off_c, 0, 84, 64
2, 80220, Note_on_c, 0, 60, 35
2, 80290, Note_off_c, 0, 52, 64
2, 80292, Note_off_c, 0, 60, 64
2, 80297, Note_on_c, 0, 55, 35
2, 80337, Note_off_c, 0, 55, 64
2, 80367, Note_on_c, 0, 60, 49
2, 80396, Note_off_c, 0, 60, 64
2, 80408, Note_on_c, 0, 84, 59
2, 80426, Note_off_c, 0, 84, 64
2, 80428, Note_on_c, 0, 86, 66
2, 80454, Note_on_c, 0, 84, 82
2, 80454, Note_on_c, 0, 48, 53
2, 80466, Note_off_c, 0, 86, 64
2, 80551, Note_on_c, 0, 55, 50
2, 80586, Note_on_c, 0, 86, 70
2, 80615, Note_off_c, 0, 55, 64
2, 80620, Note_off_c, 0, 48, 64
2, 80620, Note_off_c, 0, 84, 64
2, 80624, Note_on_c, 0, 88, 74
2, 80632, Note_on_c, 0, 52, 46
2, 80634, Note_off_c, 0, 86, 64
2, 80647, Note_off_c, 0, 88, 64
2, 80679, Note_off_c, 0, 52, 64
2, 80700, Note_on_c, 0, 55, 49
2, 80702, Note_on_c, 0, 88, 84
2, 80727, Note_off_c, 0, 88, 64
2, 80736, Note_off_c, 0, 55, 64
2, 80789, Note_on_c, 0, 88, 91
2, 80796, Note_on_c, 0, 50, 51
2, 80841, Note_off_c, 0, 88, 64
2, 80877, Note_on_c, 0, 86, 79
2, 80879, Note_on_c, 0, 59, 54
2, 80904, Note_off_c, 0, 86, 64
2, 80914, Note_off_c, 0, 59, 64
2, 80922, Note_off_c, 0, 50, 64
2, 80960, Note_on_c, 0, 84, 82
2, 80964, Note_on_c, 0, 55, 53
2, 80987, Note_off_c, 0, 84, 64
2, 80999, Note_off_c, 0, 55, 64
2, 81039, Note_on_c, 0, 83, 86
2, 81041, Note_on_c, 0, 59, 58
2, 81060, Note_off_c, 0, 83, 64
2, 81075, Note_off_c, 0, 59, 64
2, 81128, Note_on_c, 0, 83, 91
2, 81135, Note_on_c, 0, 50, 63
2, 81173, Note_off_c, 0, 83, 64
2, 81218, Note_on_c, 0, 60, 65
2, 81218, Note_on_c, 0, 81, 79
2, 81234, Note_off_c, 0, 81, 64
2, 81259, Note_off_c, 0, 60, 64
2, 81266, Note_off_c, 0, 50, 64
2, 81302, Note_on_c, 0, 79, 83
2, 81306, Note_on_c, 0, 57, 66
2, 81322, Note_off_c, 0, 79, 64
2, 81342, Note_off_c, 0, 57, 64
2, 81383, Note_on_c, 0, 78, 89
2, 81387, Note_on_c, 0, 60, 66
2, 81405, Note_off_c, 0, 60, 64
2, 81405, Note_off_c, 0, 78, 64
2, 81482, Note_on_c, 0, 86, 80
2, 81667, Note_on_c, 0, 59, 46
2, 81672, Note_on_c, 0, 55, 39
2, 81719, Note_on_c, 0, 83, 56
2, 81738, Note_off_c, 0, 86, 64
2, 81772, Note_off_c, 0, 83, 64
2, 81785, Note_on_c, 0, 79, 62
2, 81822, Note_off_c, 0, 59, 64
2, 81838, Note_off_c, 0, 79, 64
2, 81842, Note_on_c, 0, 78, 68
2, 81842, Note_on_c, 0, 60, 46
2, 81844, Note_off_c, 0, 55, 64
2, 81848, Note_on_c, 0, 57, 40
2, 81858, Control_c, 0, 64, 127
2, 81888, Note_off_c, 0, 78, 64
2, 81894, Note_on_c, 0, 81, 71
2, 81944, Note_on_c, 0, 74, 72
2, 81946, Note_off_c, 0, 81, 64
2, 81966, Control_c, 0, 64, 0
2, 81977, Note_off_c, 0, 60, 64
2, 81994, Note_off_c, 0, 57, 64
2, 81997, Note_on_c, 0, 79, 77
2, 82004, Note_on_c, 0, 59, 41
2, 82004, Note_on_c, 0, 62, 46
2, 82016, Note_off_c, 0, 74, 64
2, 82055, Note_on_c, 0, 83, 75
2, 82060, Note_off_c, 0, 79, 64
2, 82080, Note_off_c, 0, 62, 64
2, 82102, Note_off_c, 0, 59, 64
2, 82103, Note_on_c, 0, 74, 68
2, 82105, Note_off_c, 0, 83, 64
2, 82147, Note_off_c, 0, 74, 64
2, 82177, Note_on_c, 0, 81, 81
2, 82358, Note_on_c, 0, 54, 55
2, 82367, Note_on_c, 0, 50, 45
2, 82401, Note_off_c, 0, 81, 64
2, 82401, Note_on_c, 0, 78, 61
2, 82452, Note_off_c, 0, 78, 64
2, 82465, Note_on_c, 0, 74, 68
2, 82493, Note_off_c, 0, 54, 64
2, 82524, Note_off_c, 0, 50, 64
2, 82526, Note_off_c, 0, 74, 64
2, 82527, Note_on_c, 0, 55, 58
2, 82528, Note_on_c, 0, 73, 69
2, 82530, Note_on_c, 0, 52, 51
2, 82553, Control_c, 0, 64, 127
2, 82572, Note_off_c, 0, 73, 64
2, 82578, Note_on_c, 0, 74, 68
2, 82628, Note_off_c, 0, 74, 64
2, 82638, Control_c, 0, 64, 0
2, 82644, Note_on_c, 0, 69, 71
2, 82698, Note_on_c, 0, 72, 71
2, 82702, Note_on_c, 0, 54, 57
2, 82704, Note_on_c, 0, 57, 55
2, 82709, Note_off_c, 0, 69, 64
2, 82716, Note_off_c, 0, 55, 64
2, 82722, Note_off_c, 0, 52, 64
2, 82737, Note_off_c, 0, 57, 64
2, 82741, Note_off_c, 0, 54, 64
2, 82742, Note_on_c, 0, 74, 76
2, 82750, Note_off_c, 0, 72, 64
2, 82761, Control_c, 0, 64, 127
2, 82790, Note_off_c, 0, 74, 64
2, 82791, Note_on_c, 0, 69, 72
2, 82804, Control_c, 0, 64, 0
2, 82807, Note_off_c, 0, 69, 64
2, 82890, Note_on_c, 0, 86, 59
2, 83076, Note_on_c, 0, 59, 53
2, 83083, Note_on_c, 0, 55, 48
2, 83134, Note_on_c, 0, 83, 68
2, 83141, Note_off_c, 0, 86, 64
2, 83177, Note_off_c, 0, 83, 64
2, 83182, Note_on_c, 0, 79, 67
2, 83218, Note_off_c, 0, 59, 64
2, 83233, Note_off_c, 0, 55, 64
2, 83235, Note_on_c, 0, 78, 73
2, 83238, Note_off_c, 0, 79, 64
2, 83247, Note_on_c, 0, 60, 53
2, 83247, Note_on_c, 0, 57, 45
2, 83291, Note_off_c, 0, 78, 64
2, 83295, Note_on_c, 0, 81, 73
2, 83350, Note_off_c, 0, 81, 64
2, 83352, Note_on_c, 0, 74, 67
2, 83373, Note_off_c, 0, 60, 64
2, 83396, Note_off_c, 0, 57, 64
2, 83400, Note_on_c, 0, 79, 74
2, 83404, Note_on_c, 0, 59, 51
2, 83408, Note_on_c, 0, 62, 51
2, 83424, Note_off_c, 0, 74, 64
2, 83441, Note_off_c, 0, 62, 64
2, 83459, Note_on_c, 0, 83, 75
2, 83462, Note_off_c, 0, 79, 64
2, 83473, Note_off_c, 0, 59, 64
2, 83502, Note_off_c, 0, 83, 64
2, 83502, Note_on_c, 0, 74, 60
2, 83546, Note_off_c, 0, 74, 64
2, 83585, Note_on_c, 0, 81, 69
2, 83764, Note_on_c, 0, 54, 50
2, 83769, Note_on_c, 0, 50, 42
2, 83802, Note_off_c, 0, 81, 64
2, 83802, Note_on_c, 0, 78, 64
2, 83861, Note_on_c, 0, 74, 68
2, 83864, Note_off_c, 0, 78, 64
2, 83886, Note_off_c, 0, 54, 64
2, 83924, Note_off_c, 0, 74, 64
2, 83927, Note_on_c, 0, 73, 70
2, 83934, Note_off_c, 0, 50, 64
2, 83934, Note_on_c, 0, 55, 56
2, 83934, Note_on_c, 0, 52, 52
2, 83978, Note_off_c, 0, 73, 64
2, 83989, Note_on_c, 0, 74, 72
2, 84040, Note_off_c, 0, 74, 64
2, 84048, Note_on_c, 0, 69, 68
2, 84051, Note_off_c, 0, 55, 64
2, 84068, Note_off_c, 0, 52, 64
2, 84088, Note_on_c, 0, 54, 52
2, 84096, Note_on_c, 0, 57, 59
2, 84108, Note_on_c, 0, 72, 65
2, 84119, Note_off_c, 0, 69, 64
2, 84149, Note_off_c, 0, 72, 64
2, 84151, Note_on_c, 0, 74, 61
2, 84214, Note_on_c, 0, 69, 65
2, 84222, Note_off_c, 0, 74, 64
2, 84229, Note_off_c, 0, 57, 64
2, 84244, Note_off_c, 0, 69, 64
2, 84250, Note_off_c, 0, 54, 64
2, 84276, Note_on_c, 0, 55, 57
2, 84282, Note_on_c, 0, 71, 74
2, 84315, Note_off_c, 0, 71, 64
2, 84332, Note_on_c, 0, 67, 66
2, 84385, Note_on_c, 0, 71, 73
2, 84390, Note_off_c, 0, 67, 64
2, 84419, Control_c, 0, 67, 0
2, 84435, Note_off_c, 0, 71, 64
2, 84441, Note_on_c, 0, 74, 71
2, 84479, Note_off_c, 0, 74, 64
2, 84499, Note_on_c, 0, 71, 65
2, 84523, Note_off_c, 0, 71, 64
2, 84556, Note_on_c, 0, 74, 69
2, 84592, Note_off_c, 0, 74, 64
2, 84592, Note_off_c, 0, 55, 64
2, 84614, Note_on_c, 0, 79, 74
2, 84645, Note_off_c, 0, 79, 64
2, 84665, Note_on_c, 0, 74, 67
2, 84720, Note_on_c, 0, 79, 79
2, 84725, Note_off_c, 0, 74, 64
2, 84752, Note_off_c, 0, 79, 64
2, 84778, Note_on_c, 0, 83, 80
2, 84806, Note_off_c, 0, 83, 64
2, 84831, Note_on_c, 0, 79, 71
2, 84878, Note_on_c, 0, 83, 82
2, 84897, Note_off_c, 0, 79, 64
2, 84909, Note_off_c, 0, 83, 64
2, 84935, Note_on_c, 0, 86, 84
2, 84948, Note_on_c, 0, 50, 65
2, 84948, Note_on_c, 0, 55, 70
2, 84950, Note_on_c, 0, 47, 65
2, 84959, Note_on_c, 0, 43, 50
2, 84974, Note_off_c, 0, 86, 64
2, 84984, Note_on_c, 0, 83, 86
2, 85045, Note_on_c, 0, 86, 84
2, 85080, Note_off_c, 0, 86, 64
2, 85091, Note_off_c, 0, 83, 64
2, 85100, Note_on_c, 0, 89, 92
2, 85156, Note_on_c, 0, 86, 86
2, 85166, Note_off_c, 0, 89, 64
2, 85211, Note_on_c, 0, 83, 91
2, 85215, Control_c, 0, 64, 127
2, 85231, Note_off_c, 0, 86, 64
2, 85261, Note_off_c, 0, 83, 64
2, 85272, Note_on_c, 0, 79, 57
2, 85289, Note_off_c, 0, 79, 64
2, 85298, Control_c, 0, 64, 0
2, 85314, Note_on_c, 0, 77, 80
2, 85334, Note_off_c, 0, 77, 64
2, 85367, Note_on_c, 0, 74, 79
2, 85392, Note_off_c, 0, 74, 64
2, 85419, Note_on_c, 0, 71, 83
2, 85423, Note_off_c, 0, 47, 64
2, 85440, Note_off_c, 0, 71, 64
2, 85473, Note_on_c, 0, 67, 71
2, 85490, Note_off_c, 0, 67, 64
2, 85523, Note_on_c, 0, 65, 80
2, 85548, Note_off_c, 0, 65, 64
2, 85581, Note_off_c, 0, 50, 64
2, 85586, Note_on_c, 0, 64, 66
2, 85598, Note_off_c, 0, 43, 64
2, 85604, Note_off_c, 0, 64, 64
2, 85604, Note_on_c, 0, 48, 48
2, 85699, Note_on_c, 0, 76, 64
2, 85764, Control_c, 0, 67, 127
2, 85802, Note_off_c, 0, 76, 64
2, 85804, Note_on_c, 0, 75, 59
2, 85897, Note_on_c, 0, 76, 58
2, 85908, Note_off_c, 0, 75, 64
2, 85918, Control_c, 0, 64, 127
2, 85969, Note_off_c, 0, 55, 64
2, 85984, Note_on_c, 0, 75, 66
2, 85988, Note_off_c, 0, 48, 64
2, 86016, Note_off_c, 0, 76, 64
2, 86077, Note_on_c, 0, 76, 78
2, 86095, Note_off_c, 0, 75, 64
2, 86160, Note_on_c, 0, 75, 76
2, 86174, Note_off_c, 0, 76, 64
2, 86180, Control_c, 0, 64, 0
2, 86246, Note_on_c, 0, 76, 73
2, 86273, Note_off_c, 0, 75, 64
2, 86343, Note_on_c, 0, 67, 67
2, 86411, Note_off_c, 0, 76, 64
2, 86530, Note_on_c, 0, 49, 50
2, 86537, Note_on_c, 0, 58, 48
2, 86573, Control_c, 0, 64, 127
2, 86608, Note_off_c, 0, 49, 64
2, 86623, Note_off_c, 0, 58, 64
2, 86699, Control_c, 0, 64, 0
2, 86718, Note_on_c, 0, 59, 52
2, 86724, Note_on_c, 0, 50, 42
2, 86826, Control_c, 0, 64, 127
2, 86877, Note_off_c, 0, 67, 64
2, 86877, Control_c, 0, 64, 0
2, 86903, Note_on_c, 0, 71, 63
2, 86904, Note_off_c, 0, 59, 64
2, 86907, Note_on_c, 0, 66, 53
2, 86907, Note_on_c, 0, 60, 46
2, 86963, Control_c, 0, 64, 127
2, 86980, Note_off_c, 0, 66, 64
2, 86988, Note_on_c, 0, 69, 67
2, 87016, Note_off_c, 0, 69, 64
2, 87036, Note_off_c, 0, 60, 64
2, 87040, Note_off_c, 0, 71, 64
2, 87056, Control_c, 0, 64, 0
2, 87082, Note_on_c, 0, 59, 50
2, 87086, Note_on_c, 0, 71, 74
2, 87092, Note_on_c, 0, 55, 39
2, 87102, Note_off_c, 0, 71, 64
2, 87144, Note_on_c, 0, 67, 68
2, 87154, Note_off_c, 0, 50, 64
2, 87196, Note_on_c, 0, 71, 74
2, 87198, Note_off_c, 0, 67, 64
2, 87234, Note_off_c, 0, 71, 64
2, 87254, Note_on_c, 0, 74, 75
2, 87287, Note_off_c, 0, 74, 64
2, 87303, Note_on_c, 0, 71, 74
2, 87360, Note_off_c, 0, 71, 64
2, 87360, Note_on_c, 0, 74, 73
2, 87396, Note_off_c, 0, 74, 64
2, 87423, Note_on_c, 0, 79, 79
2, 87446, Note_off_c, 0, 79, 64
2, 87473, Note_on_c, 0, 74, 73
2, 87512, Note_off_c, 0, 74, 64
2, 87529, Note_on_c, 0, 79, 79
2, 87532, Note_off_c, 0, 59, 64
2, 87538, Note_off_c, 0, 55, 64
2, 87560, Note_off_c, 0, 79, 64
2, 87587, Note_on_c, 0, 83, 82
2, 87609, Note_off_c, 0, 83, 64
2, 87639, Note_on_c, 0, 79, 74
2, 87671, Note_off_c, 0, 79, 64
2, 87690, Note_on_c, 0, 83, 86
2, 87715, Note_off_c, 0, 83, 64
2, 87745, Note_on_c, 0, 86, 90
2, 87748, Note_on_c, 0, 55, 68
2, 87749, Note_on_c, 0, 47, 63
2, 87753, Note_on_c, 0, 50, 57
2, 87758, Control_c, 0, 67, 0
2, 87763, Note_on_c, 0, 43, 51
2, 87776, Note_off_c, 0, 86, 64
2, 87799, Note_on_c, 0, 83, 88
2, 87854, Note_off_c, 0, 83, 64
2, 87854, Note_on_c, 0, 86, 88
2, 87904, Note_off_c, 0, 86, 64
2, 87910, Note_on_c, 0, 89, 92
2, 87960, Note_off_c, 0, 89, 64
2, 87965, Note_on_c, 0, 86, 88
2, 88003, Control_c, 0, 64, 127
2, 88015, Note_off_c, 0, 86, 64
2, 88015, Note_on_c, 0, 83, 91
2, 88061, Note_off_c, 0, 83, 64
2, 88075, Note_on_c, 0, 79, 85
2, 88105, Note_off_c, 0, 79, 64
2, 88113, Note_on_c, 0, 77, 81
2, 88118, Control_c, 0, 64, 0
2, 88141, Note_off_c, 0, 77, 64
2, 88174, Note_on_c, 0, 74, 80
2, 88212, Note_off_c, 0, 74, 64
2, 88215, Note_on_c, 0, 71, 83
2, 88242, Note_off_c, 0, 47, 64
2, 88247, Note_off_c, 0, 71, 64
2, 88279, Note_on_c, 0, 67, 75
2, 88299, Note_off_c, 0, 67, 64
2, 88335, Note_on_c, 0, 65, 78
2, 88355, Note_off_c, 0, 65, 64
2, 88395, Note_off_c, 0, 50, 64
2, 88400, Note_on_c, 0, 48, 39
2, 88400, Note_on_c, 0, 64, 72
2, 88418, Note_off_c, 0, 43, 64
2, 88428, Note_off_c, 0, 64, 64
2, 88495, Note_on_c, 0, 76, 61
2, 88576, Control_c, 0, 67, 127
2, 88594, Note_off_c, 0, 76, 64
2, 88602, Note_on_c, 0, 75, 59
2, 88687, Note_on_c, 0, 76, 61
2, 88694, Note_off_c, 0, 75, 64
2, 88702, Note_off_c, 0, 55, 64
2, 88703, Note_off_c, 0, 48, 64
2, 88722, Control_c, 0, 64, 127
2, 88768, Note_on_c, 0, 75, 69
2, 88790, Note_off_c, 0, 76, 64
2, 88863, Note_on_c, 0, 76, 73
2, 88876, Note_off_c, 0, 75, 64
2, 88946, Note_on_c, 0, 75, 72
2, 88968, Note_off_c, 0, 76, 64
2, 89039, Note_on_c, 0, 76, 69
2, 89052, Note_off_c, 0, 75, 64
2, 89077, Note_off_c, 0, 76, 64
2, 89120, Control_c, 0, 64, 0
2, 89133, Note_on_c, 0, 49, 53
2, 89133, Note_on_c, 0, 58, 60
2, 89221, Note_on_c, 0, 79, 74
2, 89312, Note_on_c, 0, 78, 76
2, 89341, Note_off_c, 0, 79, 64
2, 89395, Note_on_c, 0, 79, 83
2, 89410, Note_off_c, 0, 78, 64
2, 89470, Control_c, 0, 64, 127
2, 89475, Note_on_c, 0, 78, 82
2, 89500, Note_off_c, 0, 79, 64
2, 89540, Note_off_c, 0, 58, 64
2, 89556, Note_off_c, 0, 49, 64
2, 89557, Note_on_c, 0, 79, 83
2, 89560, Note_off_c, 0, 78, 64
2, 89639, Note_on_c, 0, 78, 80
2, 89656, Note_off_c, 0, 79, 64
2, 89713, Control_c, 0, 67, 0
2, 89724, Note_on_c, 0, 79, 81
2, 89736, Note_off_c, 0, 78, 64
2, 89757, Note_off_c, 0, 79, 64
2, 89810, Control_c, 0, 64, 0
2, 89815, Note_on_c, 0, 79, 83
2, 89825, Note_on_c, 0, 50, 43
2, 89898, Note_on_c, 0, 74, 69
2, 89907, Note_on_c, 0, 59, 57
2, 89913, Note_off_c, 0, 79, 64
2, 89915, Note_off_c, 0, 74, 64
2, 89923, Control_c, 0, 67, 127
2, 89936, Note_off_c, 0, 59, 64
2, 89943, Note_off_c, 0, 50, 64
2, 89980, Note_on_c, 0, 74, 67
2, 89989, Note_on_c, 0, 55, 66
2, 90004, Note_off_c, 0, 74, 64
2, 90006, Note_off_c, 0, 55, 64
2, 90067, Note_on_c, 0, 74, 83
2, 90071, Note_on_c, 0, 59, 65
2, 90089, Note_off_c, 0, 74, 64
2, 90097, Note_off_c, 0, 59, 64
2, 90156, Note_on_c, 0, 76, 83
2, 90165, Note_on_c, 0, 50, 59
2, 90195, Note_off_c, 0, 50, 64
2, 90233, Note_on_c, 0, 74, 79
2, 90246, Note_on_c, 0, 59, 59
2, 90247, Note_off_c, 0, 76, 64
2, 90268, Note_off_c, 0, 74, 64
2, 90270, Note_off_c, 0, 59, 64
2, 90323, Note_on_c, 0, 72, 75
2, 90330, Note_on_c, 0, 55, 58
2, 90340, Note_off_c, 0, 72, 64
2, 90346, Note_off_c, 0, 55, 64
2, 90409, Note_on_c, 0, 71, 73
2, 90413, Note_on_c, 0, 59, 57
2, 90429, Note_off_c, 0, 71, 64
2, 90439, Note_off_c, 0, 59, 64
2, 90492, Note_on_c, 0, 71, 74
2, 90512, Note_on_c, 0, 50, 46
2, 90547, Note_off_c, 0, 50, 64
2, 90589, Note_on_c, 0, 62, 48
2, 90666, Note_on_c, 0, 55, 41
2, 90679, Note_off_c, 0, 62, 64
2, 90706, Control_c, 0, 64, 127
2, 90729, Note_off_c, 0, 55, 64
2, 90756, Note_on_c, 0, 62, 56
2, 90797, Note_off_c, 0, 62, 64
2, 90809, Note_off_c, 0, 71, 64
2, 90832, Control_c, 0, 64, 0
2, 90846, Note_on_c, 0, 69, 65
2, 90848, Note_on_c, 0, 50, 47
2, 90866, Note_off_c, 0, 69, 64
2, 90880, Note_on_c, 0, 71, 59
2, 90897, Note_off_c, 0, 71, 64
2, 90912, Note_on_c, 0, 69, 68
2, 90913, Control_c, 0, 64, 127
2, 90933, Note_on_c, 0, 60, 44
2, 90934, Note_off_c, 0, 69, 64
2, 90945, Note_on_c, 0, 71, 65
2, 90949, Note_off_c, 0, 50, 64
2, 90965, Note_off_c, 0, 71, 64
2, 90980, Note_off_c, 0, 60, 64
2, 90987, Note_on_c, 0, 69, 57
2, 91000, Note_off_c, 0, 69, 64
2, 91003, Note_on_c, 0, 54, 47
2, 91010, Note_on_c, 0, 71, 70
2, 91032, Note_off_c, 0, 54, 64
2, 91041, Note_on_c, 0, 69, 64
2, 91053, Note_off_c, 0, 71, 64
2, 91070, Note_on_c, 0, 60, 46
2, 91079, Control_c, 0, 64, 0
2, 91080, Note_off_c, 0, 69, 64
2, 91080, Note_on_c, 0, 67, 66
2, 91102, Note_off_c, 0, 67, 64
2, 91131, Note_on_c, 0, 69, 45
2, 91149, Note_off_c, 0, 60, 64
2, 91166, Note_off_c, 0, 69, 64
2, 91167, Note_on_c, 0, 67, 57
2, 91186, Note_on_c, 0, 55, 38
2, 91262, Note_off_c, 0, 67, 64
2, 91267, Note_on_c, 0, 59, 44
2, 91288, Control_c, 0, 64, 127
2, 91348, Note_off_c, 0, 59, 64
2, 91348, Note_on_c, 0, 67, 46
2, 91413, Note_off_c, 0, 55, 64
2, 91435, Control_c, 0, 67, 0
2, 91441, Note_on_c, 0, 59, 39
2, 91494, Control_c, 0, 64, 0
2, 91529, Note_off_c, 0, 67, 64
2, 91532, Note_off_c, 0, 59, 64
2, 91538, Note_on_c, 0, 74, 61
2, 91552, Note_on_c, 0, 55, 35
2, 91647, Control_c, 0, 67, 127
2, 91649, Note_on_c, 0, 59, 44
2, 91649, Control_c, 0, 64, 127
2, 91688, Note_off_c, 0, 55, 64
2, 91720, Note_off_c, 0, 59, 64
2, 91736, Note_on_c, 0, 67, 51
2, 91752, Note_off_c, 0, 74, 64
2, 91788, Note_on_c, 0, 78, 48
2, 91804, Note_on_c, 0, 59, 50
2, 91815, Note_off_c, 0, 78, 64
2, 91819, Note_on_c, 0, 76, 58
2, 91823, Note_off_c, 0, 67, 64
2, 91829, Control_c, 0, 64, 0
2, 91833, Note_off_c, 0, 76, 64
2, 91844, Note_on_c, 0, 74, 72
2, 91861, Note_off_c, 0, 59, 64
2, 91872, Note_off_c, 0, 74, 64
2, 91882, Note_on_c, 0, 86, 86
2, 91898, Note_on_c, 0, 55, 41
2, 91902, Note_off_c, 0, 86, 64
2, 91936, Note_off_c, 0, 55, 64
2, 91970, Note_on_c, 0, 57, 43
2, 92029, Note_off_c, 0, 57, 64
2, 92064, Note_on_c, 0, 66, 49
2, 92068, Note_on_c, 0, 84, 78
2, 92091, Note_off_c, 0, 84, 64
2, 92153, Note_on_c, 0, 57, 42
2, 92206, Note_off_c, 0, 66, 64
2, 92223, Note_off_c, 0, 57, 64
2, 92251, Note_on_c, 0, 83, 71
2, 92256, Note_on_c, 0, 55, 37
2, 92274, Note_off_c, 0, 83, 64
2, 92345, Note_on_c, 0, 60, 40
2, 92393, Note_off_c, 0, 55, 64
2, 92424, Note_off_c, 0, 60, 64
2, 92435, Note_on_c, 0, 81, 70
2, 92437, Note_on_c, 0, 66, 46
2, 92450, Note_off_c, 0, 81, 64
2, 92531, Note_on_c, 0, 60, 41
2, 92536, Note_off_c, 0, 66, 64
2, 92608, Note_off_c, 0, 60, 64
2, 92622, Note_on_c, 0, 79, 58
2, 92634, Note_on_c, 0, 55, 35
2, 92732, Note_on_c, 0, 59, 37
2, 92773, Control_c, 0, 64, 127
2, 92826, Note_off_c, 0, 59, 64
2, 92837, Note_on_c, 0, 67, 42
2, 92906, Note_off_c, 0, 55, 64
2, 92928, Note_on_c, 0, 59, 35
2, 92991, Control_c, 0, 64, 0
2, 92997, Note_off_c, 0, 67, 64
2, 93007, Note_on_c, 0, 74, 54
2, 93010, Note_on_c, 0, 55, 35
2, 93029, Note_off_c, 0, 59, 64
2, 93062, Note_off_c, 0, 79, 64
2, 93110, Control_c, 0, 64, 127
2, 93118, Note_on_c, 0, 59, 37
2, 93157, Note_off_c, 0, 55, 64
2, 93166, Note_off_c, 0, 59, 64
2, 93187, Note_on_c, 0, 67, 37
2, 93231, Note_off_c, 0, 74, 64
2, 93241, Note_on_c, 0, 78, 57
2, 93266, Note_on_c, 0, 59, 44
2, 93276, Note_off_c, 0, 67, 64
2, 93280, Control_c, 0, 64, 0
2, 93283, Note_off_c, 0, 78, 64
2, 93284, Note_on_c, 0, 76, 53
2, 93298, Note_off_c, 0, 76, 64
2, 93308, Note_on_c, 0, 74, 65
2, 93324, Note_off_c, 0, 59, 64
2, 93330, Note_off_c, 0, 74, 64
2, 93349, Note_on_c, 0, 86, 79
2, 93353, Note_on_c, 0, 55, 35
2, 93373, Note_off_c, 0, 86, 64
2, 93427, Note_off_c, 0, 55, 64
2, 93430, Note_on_c, 0, 57, 44
2, 93520, Note_off_c, 0, 57, 64
2, 93527, Note_on_c, 0, 84, 74
2, 93535, Note_on_c, 0, 66, 42
2, 93551, Note_off_c, 0, 84, 64
2, 93610, Note_on_c, 0, 57, 42
2, 93613, Note_off_c, 0, 66, 64
2, 93699, Note_off_c, 0, 57, 64
2, 93703, Note_on_c, 0, 83, 71
2, 93705, Note_on_c, 0, 55, 41
2, 93721, Note_off_c, 0, 83, 64
2, 93776, Note_off_c, 0, 55, 64
2, 93796, Note_on_c, 0, 60, 44
2, 93865, Note_off_c, 0, 60, 64
2, 93887, Note_on_c, 0, 81, 67
2, 93887, Note_on_c, 0, 66, 46
2, 93908, Note_off_c, 0, 81, 64
2, 93980, Note_on_c, 0, 60, 35
2, 93986, Note_off_c, 0, 66, 64
2, 94056, Note_off_c, 0, 60, 64
2, 94071, Note_on_c, 0, 79, 60
2, 94083, Note_on_c, 0, 55, 35
2, 94166, Note_on_c, 0, 59, 45
2, 94187, Note_off_c, 0, 79, 64
2, 94188, Note_off_c, 0, 55, 64
2, 94205, Control_c, 0, 64, 127
2, 94227, Note_off_c, 0, 59, 64
2, 94273, Note_on_c, 0, 67, 51
2, 94311, Control_c, 0, 64, 0
2, 94353, Note_on_c, 0, 59, 39
2, 94373, Note_off_c, 0, 67, 64
2, 94399, Note_on_c, 0, 74, 58
2, 94429, Note_off_c, 0, 59, 64
2, 94444, Note_on_c, 0, 86, 84
2, 94446, Note_on_c, 0, 55, 46
2, 94449, Note_off_c, 0, 74, 64
2, 94552, Note_on_c, 0, 60, 40
2, 94562, Control_c, 0, 64, 127
2, 94620, Note_off_c, 0, 55, 64
2, 94621, Note_off_c, 0, 60, 64
2, 94641, Note_on_c, 0, 66, 47
2, 94642, Note_off_c, 0, 86, 64
2, 94706, Note_on_c, 0, 84, 59
2, 94708, Control_c, 0, 64, 0
2, 94718, Note_on_c, 0, 60, 35
2, 94721, Note_off_c, 0, 66, 64
2, 94738, Note_off_c, 0, 84, 64
2, 94743, Note_on_c, 0, 83, 61
2, 94764, Note_on_c, 0, 81, 64
2, 94788, Note_off_c, 0, 83, 64
2, 94816, Note_on_c, 0, 79, 58
2, 94819, Note_on_c, 0, 55, 35
2, 94822, Note_off_c, 0, 81, 64
2, 94822, Note_off_c, 0, 60, 64
2, 94862, Note_off_c, 0, 79, 64
2, 94910, Note_on_c, 0, 59, 41
2, 94929, Note_off_c, 0, 55, 64
2, 94937, Control_c, 0, 64, 127
2, 94970, Note_off_c, 0, 59, 64
2, 95010, Note_on_c, 0, 67, 48
2, 95088, Note_on_c, 0, 59, 41
2, 95131, Note_off_c, 0, 67, 64
2, 95161, Note_on_c, 0, 74, 60
2, 95174, Note_off_c, 0, 59, 64
2, 95182, Control_c, 0, 64, 0
2, 95192, Note_on_c, 0, 86, 79
2, 95192, Note_on_c, 0, 55, 40
2, 95207, Note_off_c, 0, 74, 64
2, 95284, Note_on_c, 0, 60, 46
2, 95365, Note_off_c, 0, 60, 64
2, 95370, Control_c, 0, 64, 127
2, 95380, Note_on_c, 0, 66, 46
2, 95443, Note_off_c, 0, 86, 64
2, 95453, Note_on_c, 0, 84, 57
2, 95461, Note_off_c, 0, 66, 64
2, 95471, Note_on_c, 0, 60, 35
2, 95484, Note_off_c, 0, 84, 64
2, 95484, Note_on_c, 0, 83, 59
2, 95486, Control_c, 0, 64, 0
2, 95527, Note_off_c, 0, 83, 64
2, 95532, Note_on_c, 0, 81, 56
2, 95534, Note_off_c, 0, 60, 64
2, 95572, Note_on_c, 0, 79, 62
2, 95574, Note_off_c, 0, 81, 64
2, 95579, Note_on_c, 0, 67, 42
2, 95587, Note_on_c, 0, 59, 35
2, 95607, Note_off_c, 0, 79, 64
2, 95615, Note_off_c, 0, 55, 64
2, 95621, Control_c, 0, 64, 127
2, 95652, Note_off_c, 0, 67, 64
2, 95724, Control_c, 0, 64, 0
2, 95743, Note_off_c, 0, 59, 64
2, 95776, Note_on_c, 0, 62, 67
2, 95908, Note_on_c, 0, 67, 59
2, 95961, Note_on_c, 0, 71, 71
2, 95975, Note_off_c, 0, 67, 64
2, 95987, Note_off_c, 0, 71, 64
2, 95995, Note_off_c, 0, 62, 64
2, 96157, Note_on_c, 0, 69, 60
2, 96159, Note_on_c, 0, 60, 47
2, 96166, Note_on_c, 0, 50, 37
2, 96193, Note_off_c, 0, 69, 64
2, 96195, Note_off_c, 0, 50, 64
2, 96208, Note_off_c, 0, 60, 64
2, 96377, Note_on_c, 0, 60, 47
2, 96377, Note_on_c, 0, 55, 37
2, 96379, Note_on_c, 0, 69, 51
2, 96414, Note_off_c, 0, 55, 64
2, 96600, Note_on_c, 0, 50, 37
2, 96654, Note_off_c, 0, 50, 64
2, 96661, Note_off_c, 0, 60, 64
2, 96857, Note_on_c, 0, 67, 38
2, 96865, Note_on_c, 0, 43, 35
2, 96873, Note_on_c, 0, 59, 35
2, 96899, Note_off_c, 0, 69, 64
2, 97022, Note_off_c, 0, 59, 64
2, 97023, Note_off_c, 0, 43, 64
2, 97057, Note_off_c, 0, 67, 64
2, 97323, Note_on_c, 0, 74, 78
2, 97336, Note_on_c, 0, 59, 40
2, 97336, Note_on_c, 0, 62, 40
2, 97523, Note_on_c, 0, 71, 76
2, 97539, Note_on_c, 0, 55, 47
2, 97542, Note_off_c, 0, 71, 64
2, 97542, Note_off_c, 0, 74, 64
2, 97558, Note_off_c, 0, 55, 64
2, 97565, Note_off_c, 0, 59, 64
2, 97709, Note_on_c, 0, 71, 71
2, 97719, Note_on_c, 0, 55, 48
2, 97734, Note_off_c, 0, 71, 64
2, 97736, Note_off_c, 0, 55, 64
2, 97754, Note_off_c, 0, 62, 64
2, 97893, Note_on_c, 0, 71, 67
2, 97897, Note_on_c, 0, 55, 50
2, 97909, Note_off_c, 0, 71, 64
2, 97915, Note_off_c, 0, 55, 64
2, 97915, Note_on_c, 0, 72, 71
2, 97950, Note_on_c, 0, 71, 73
2, 97966, Note_off_c, 0, 72, 64
2, 97978, Note_off_c, 0, 71, 64
2, 97985, Note_on_c, 0, 69, 72
2, 98016, Note_on_c, 0, 71, 70
2, 98031, Note_off_c, 0, 69, 64
2, 98065, Note_on_c, 0, 74, 78
2, 98069, Note_off_c, 0, 71, 64
2, 98076, Note_on_c, 0, 59, 46
2, 98081, Note_on_c, 0, 62, 37
2, 98275, Note_on_c, 0, 72, 59
2, 98282, Note_off_c, 0, 74, 64
2, 98283, Note_off_c, 0, 59, 64
2, 98288, Note_on_c, 0, 57, 39
2, 98310, Note_off_c, 0, 72, 64
2, 98313, Note_off_c, 0, 57, 64
2, 98320, Note_off_c, 0, 62, 64
2, 98488, Note_on_c, 0, 69, 52
2, 98501, Note_on_c, 0, 62, 35
2, 98507, Note_on_c, 0, 54, 36
2, 98723, Control_c, 0, 64, 127
2, 98753, Note_off_c, 0, 62, 64
2, 98765, Note_off_c, 0, 69, 64
2, 98769, Note_off_c, 0, 54, 64
2, 98810, Control_c, 0, 64, 0
2, 98871, Note_on_c, 0, 72, 74
2, 98874, Note_on_c, 0, 62, 64
2, 98886, Note_on_c, 0, 57, 49
2, 99081, Note_off_c, 0, 57, 64
2, 99083, Note_on_c, 0, 71, 59
2, 99083, Note_on_c, 0, 55, 45
2, 99104, Note_off_c, 0, 72, 64
2, 99110, Note_off_c, 0, 55, 64
2, 99116, Note_off_c, 0, 71, 64
2, 99116, Note_off_c, 0, 62, 64
2, 99269, Note_on_c, 0, 62, 67
2, 99269, Note_on_c, 0, 74, 73
2, 99277, Note_on_c, 0, 59, 59
2, 99466, Note_on_c, 0, 72, 64
2, 99468, Note_on_c, 0, 57, 55
2, 99489, Note_off_c, 0, 59, 64
2, 99493, Note_off_c, 0, 74, 64
2, 99495, Note_off_c, 0, 57, 64
2, 99504, Note_off_c, 0, 72, 64
2, 99509, Note_off_c, 0, 62, 64
2, 99694, Note_on_c, 0, 76, 75
2, 99700, Note_on_c, 0, 62, 65
2, 99710, Note_on_c, 0, 60, 57
2, 100166, Note_on_c, 0, 74, 45
2, 100176, Note_on_c, 0, 59, 36
2, 100209, Note_off_c, 0, 76, 64
2, 100209, Note_off_c, 0, 60, 64
2, 100440, Note_off_c, 0, 74, 64
2, 100536, Note_off_c, 0, 62, 64
2, 100550, Note_off_c, 0, 59, 64
2, 100589, Note_on_c, 0, 74, 69
2, 100784, Note_off_c, 0, 74, 64
2, 100784, Note_on_c, 0, 67, 72
2, 100802, Note_off_c, 0, 67, 64
2, 100968, Note_on_c, 0, 67, 71
2, 100979, Note_on_c, 0, 50, 42
2, 100980, Note_on_c, 0, 47, 44
2, 101052, Note_off_c, 0, 67, 64
2, 101137, Control_c, 0, 64, 127
2, 101148, Note_on_c, 0, 68, 70
2, 101161, Note_off_c, 0, 68, 64
2, 101169, Note_off_c, 0, 50, 64
2, 101169, Note_on_c, 0, 69, 63
2, 101205, Note_on_c, 0, 68, 72
2, 101214, Note_off_c, 0, 69, 64
2, 101235, Note_off_c, 0, 68, 64
2, 101235, Note_on_c, 0, 67, 74
2, 101256, Note_off_c, 0, 67, 64
2, 101256, Control_c, 0, 67, 0
2, 101273, Control_c, 0, 64, 0
2, 101278, Note_on_c, 0, 68, 74
2, 101310, Note_off_c, 0, 47, 64
2, 101314, Note_on_c, 0, 48, 43
2, 101314, Note_on_c, 0, 52, 51
2, 101326, Note_on_c, 0, 69, 80
2, 101327, Note_off_c, 0, 68, 64
2, 101532, Note_on_c, 0, 72, 82
2, 101545, Note_off_c, 0, 69, 64
2, 101560, Note_off_c, 0, 72, 64
2, 101774, Note_on_c, 0, 76, 72
2, 101782, Note_on_c, 0, 55, 45
2, 101794, Note_on_c, 0, 49, 39
2, 101855, Note_off_c, 0, 48, 64
2, 101857, Note_off_c, 0, 52, 64
2, 101980, Control_c, 0, 64, 127
2, 101993, Note_off_c, 0, 76, 64
2, 102152, Control_c, 0, 67, 127
2, 102184, Control_c, 0, 64, 0
2, 102192, Note_off_c, 0, 49, 64
2, 102207, Note_on_c, 0, 74, 54
2, 102222, Note_on_c, 0, 59, 39
2, 102229, Note_on_c, 0, 50, 35
2, 102337, Note_off_c, 0, 55, 64
2, 102405, Note_on_c, 0, 67, 52
2, 102420, Note_off_c, 0, 74, 64
2, 102435, Note_off_c, 0, 67, 64
2, 102601, Note_on_c, 0, 72, 51
2, 102607, Note_on_c, 0, 57, 35
2, 102660, Note_off_c, 0, 59, 64
2, 102805, Note_on_c, 0, 66, 42
2, 102833, Note_off_c, 0, 66, 64
2, 102871, Note_off_c, 0, 72, 64
2, 103020, Note_on_c, 0, 69, 50
2, 103034, Note_on_c, 0, 55, 35
2, 103036, Note_on_c, 0, 60, 35
2, 103097, Note_off_c, 0, 57, 64
2, 103123, Note_off_c, 0, 50, 64
2, 103455, Note_on_c, 0, 67, 41
2, 103457, Note_on_c, 0, 59, 35
2, 103488, Note_off_c, 0, 69, 64
2, 103524, Note_off_c, 0, 60, 64
2, 103647, Note_off_c, 0, 55, 64
2, 103649, Note_off_c, 0, 59, 64
2, 103719, Note_off_c, 0, 67, 64
2, 103843, Note_on_c, 0, 74, 71
2, 103848, Note_on_c, 0, 59, 44
2, 103919, Note_off_c, 0, 59, 64
2, 103939, Note_on_c, 0, 62, 54
2, 103967, Note_off_c, 0, 62, 64
2, 104026, Note_on_c, 0, 71, 69
2, 104029, Note_off_c, 0, 74, 64
2, 104037, Note_on_c, 0, 55, 48
2, 104042, Note_off_c, 0, 71, 64
2, 104059, Note_off_c, 0, 55, 64
2, 104107, Note_on_c, 0, 62, 50
2, 104142, Note_off_c, 0, 62, 64
2, 104203, Note_on_c, 0, 71, 70
2, 104204, Note_on_c, 0, 55, 55
2, 104225, Note_off_c, 0, 71, 64
2, 104236, Note_off_c, 0, 55, 64
2, 104296, Note_on_c, 0, 62, 50
2, 104316, Note_off_c, 0, 62, 64
2, 104372, Note_on_c, 0, 71, 74
2, 104384, Note_on_c, 0, 56, 63
2, 104386, Note_off_c, 0, 71, 64
2, 104394, Note_off_c, 0, 56, 64
2, 104394, Note_on_c, 0, 72, 59
2, 104426, Note_on_c, 0, 71, 77
2, 104430, Note_off_c, 0, 72, 64
2, 104449, Note_off_c, 0, 71, 64
2, 104455, Note_on_c, 0, 69, 77
2, 104457, Note_on_c, 0, 62, 50
2, 104487, Note_off_c, 0, 62, 64
2, 104493, Note_on_c, 0, 71, 74
2, 104507, Note_off_c, 0, 69, 64
2, 104540, Note_on_c, 0, 74, 78
2, 104545, Note_off_c, 0, 71, 64
2, 104550, Note_on_c, 0, 57, 51
2, 104575, Note_off_c, 0, 57, 64
2, 104641, Note_on_c, 0, 62, 63
2, 104669, Note_off_c, 0, 62, 64
2, 104722, Note_on_c, 0, 72, 67
2, 104735, Note_on_c, 0, 55, 53
2, 104745, Note_off_c, 0, 74, 64
2, 104754, Note_off_c, 0, 55, 64
2, 104795, Note_off_c, 0, 72, 64
2, 104825, Note_on_c, 0, 62, 56
2, 104849, Note_off_c, 0, 62, 64
2, 104902, Note_on_c, 0, 69, 64
2, 104920, Note_on_c, 0, 54, 55
2, 104946, Note_off_c, 0, 54, 64
2, 105001, Note_on_c, 0, 62, 62
2, 105029, Note_off_c, 0, 62, 64
2, 105104, Note_on_c, 0, 50, 60
2, 105134, Note_off_c, 0, 50, 64
2, 105146, Note_off_c, 0, 69, 64
2, 105179, Note_on_c, 0, 62, 59
2, 105204, Note_off_c, 0, 62, 64
2, 105286, Note_on_c, 0, 72, 74
2, 105291, Note_on_c, 0, 55, 46
2, 105381, Note_on_c, 0, 67, 38
2, 105428, Note_off_c, 0, 67, 64
2, 105461, Note_off_c, 0, 55, 64
2, 105462, Note_off_c, 0, 72, 64
2, 105462, Note_on_c, 0, 71, 63
2, 105476, Note_on_c, 0, 59, 42
2, 105482, Note_off_c, 0, 71, 64
2, 105504, Note_off_c, 0, 59, 64
2, 105559, Note_on_c, 0, 67, 55
2, 105600, Note_off_c, 0, 67, 64
2, 105640, Note_on_c, 0, 74, 73
2, 105653, Note_on_c, 0, 57, 57
2, 105681, Note_off_c, 0, 57, 64
2, 105738, Note_on_c, 0, 67, 57
2, 105778, Note_off_c, 0, 67, 64
2, 105824, Note_on_c, 0, 72, 60
2, 105829, Note_on_c, 0, 60, 42
2, 105842, Note_off_c, 0, 74, 64
2, 105847, Note_off_c, 0, 72, 64
2, 105854, Note_off_c, 0, 60, 64
2, 105907, Note_on_c, 0, 67, 53
2, 105937, Note_off_c, 0, 67, 64
2, 106010, Note_on_c, 0, 76, 73
2, 106013, Note_on_c, 0, 60, 42
2, 106095, Note_on_c, 0, 67, 37
2, 106191, Note_on_c, 0, 64, 44
2, 106192, Note_off_c, 0, 67, 64
2, 106224, Note_off_c, 0, 60, 64
2, 106270, Note_off_c, 0, 64, 64
2, 106274, Note_on_c, 0, 67, 43
2, 106318, Note_off_c, 0, 67, 64
2, 106367, Note_on_c, 0, 74, 51
2, 106383, Note_on_c, 0, 59, 41
2, 106415, Note_off_c, 0, 59, 64
2, 106415, Note_off_c, 0, 76, 64
2, 106468, Note_on_c, 0, 67, 41
2, 106526, Note_off_c, 0, 67, 64
2, 106554, Note_on_c, 0, 62, 41
2, 106599, Note_off_c, 0, 62, 64
2, 106642, Note_on_c, 0, 67, 46
2, 106665, Note_off_c, 0, 74, 64
2, 106680, Note_off_c, 0, 67, 64
2, 106725, Note_on_c, 0, 74, 67
2, 106740, Note_on_c, 0, 57, 37
2, 106830, Note_on_c, 0, 67, 35
2, 106840, Note_off_c, 0, 57, 64
2, 106869, Note_off_c, 0, 67, 64
2, 106909, Note_on_c, 0, 72, 58
2, 106919, Note_on_c, 0, 60, 35
2, 106926, Note_off_c, 0, 74, 64
2, 106954, Note_off_c, 0, 72, 64
2, 106957, Note_off_c, 0, 60, 64
2, 107000, Note_on_c, 0, 67, 48
2, 107037, Note_off_c, 0, 67, 64
2, 107100, Note_on_c, 0, 76, 69
2, 107111, Note_on_c, 0, 59, 42
2, 107148, Note_off_c, 0, 59, 64
2, 107189, Note_on_c, 0, 67, 43
2, 107223, Note_off_c, 0, 67, 64
2, 107281, Note_on_c, 0, 74, 65
2, 107287, Note_on_c, 0, 62, 43
2, 107287, Control_c, 0, 64, 127
2, 107291, Note_off_c, 0, 76, 64
2, 107307, Note_off_c, 0, 74, 64
2, 107332, Note_off_c, 0, 62, 64
2, 107370, Note_on_c, 0, 67, 39
2, 107382, Control_c, 0, 64, 0
2, 107443, Note_off_c, 0, 67, 64
2, 107470, Note_on_c, 0, 77, 73
2, 107490, Note_on_c, 0, 62, 35
2, 107571, Note_on_c, 0, 67, 43
2, 107662, Note_on_c, 0, 65, 45
2, 107666, Note_off_c, 0, 67, 64
2, 107679, Note_off_c, 0, 62, 64
2, 107737, Note_off_c, 0, 65, 64
2, 107752, Note_on_c, 0, 67, 51
2, 107787, Note_off_c, 0, 67, 64
2, 107840, Note_on_c, 0, 76, 56
2, 107848, Note_on_c, 0, 60, 42
2, 107885, Note_off_c, 0, 60, 64
2, 107896, Note_off_c, 0, 77, 64
2, 107936, Note_on_c, 0, 67, 40
2, 107983, Note_off_c, 0, 67, 64
2, 108022, Note_on_c, 0, 64, 42
2, 108067, Note_off_c, 0, 64, 64
2, 108109, Note_on_c, 0, 67, 46
2, 108117, Note_off_c, 0, 76, 64
2, 108145, Note_off_c, 0, 67, 64
2, 108192, Note_on_c, 0, 76, 64
2, 108201, Note_on_c, 0, 59, 47
2, 108232, Note_off_c, 0, 59, 64
2, 108298, Note_on_c, 0, 67, 35
2, 108331, Note_off_c, 0, 67, 64
2, 108372, Note_on_c, 0, 74, 56
2, 108378, Note_on_c, 0, 62, 42
2, 108384, Note_off_c, 0, 76, 64
2, 108417, Note_off_c, 0, 62, 64
2, 108426, Note_off_c, 0, 74, 64
2, 108465, Note_on_c, 0, 67, 51
2, 108500, Note_off_c, 0, 67, 64
2, 108552, Note_on_c, 0, 77, 69
2, 108560, Note_on_c, 0, 60, 52
2, 108588, Note_off_c, 0, 60, 64
2, 108635, Note_on_c, 0, 67, 57
2, 108674, Note_off_c, 0, 67, 64
2, 108727, Note_on_c, 0, 76, 68
2, 108737, Note_on_c, 0, 64, 56
2, 108749, Note_off_c, 0, 77, 64
2, 108772, Note_off_c, 0, 76, 64
2, 108774, Note_off_c, 0, 64, 64
2, 108815, Note_on_c, 0, 67, 59
2, 108859, Note_off_c, 0, 67, 64
2, 108912, Note_on_c, 0, 79, 75
2, 108920, Note_on_c, 0, 64, 58
2, 108948, Note_off_c, 0, 64, 64
2, 109005, Note_on_c, 0, 67, 61
2, 109036, Note_off_c, 0, 67, 64
2, 109096, Note_on_c, 0, 66, 65
2, 109124, Note_off_c, 0, 66, 64
2, 109181, Note_on_c, 0, 67, 59
2, 109212, Note_off_c, 0, 67, 64
2, 109272, Note_on_c, 0, 77, 56
2, 109277, Note_on_c, 0, 62, 52
2, 109298, Note_off_c, 0, 79, 64
2, 109309, Note_off_c, 0, 62, 64
2, 109373, Note_on_c, 0, 67, 42
2, 109416, Note_off_c, 0, 67, 64
2, 109479, Note_on_c, 0, 66, 35
2, 109564, Note_off_c, 0, 66, 64
2, 109564, Note_on_c, 0, 67, 35
2, 109653, Note_off_c, 0, 67, 64
2, 109657, Note_off_c, 0, 77, 64
2, 109680, Note_on_c, 0, 76, 53
2, 109687, Note_on_c, 0, 60, 35
2, 109799, Note_on_c, 0, 67, 39
2, 109808, Note_off_c, 0, 60, 64
2, 109863, Control_c, 0, 64, 127
2, 109899, Note_on_c, 0, 66, 40
2, 109902, Note_off_c, 0, 67, 64
2, 109954, Note_off_c, 0, 66, 64
2, 109972, Note_on_c, 0, 77, 49
2, 109982, Note_on_c, 0, 67, 35
2, 109992, Note_off_c, 0, 76, 64
2, 110003, Note_off_c, 0, 77, 64
2, 110015, Control_c, 0, 64, 0
2, 110017, Note_on_c, 0, 79, 54
2, 110045, Note_off_c, 0, 67, 64
2, 110057, Note_on_c, 0, 77, 58
2, 110063, Note_on_c, 0, 59, 41
2, 110074, Note_off_c, 0, 79, 64
2, 110100, Note_off_c, 0, 77, 64
2, 110110, Note_off_c, 0, 59, 64
2, 110158, Note_on_c, 0, 67, 42
2, 110257, Note_off_c, 0, 67, 64
2, 110262, Note_on_c, 0, 76, 58
2, 110269, Note_on_c, 0, 60, 35
2, 110295, Note_off_c, 0, 76, 64
2, 110340, Note_off_c, 0, 60, 64
2, 110368, Note_on_c, 0, 67, 42
2, 110448, Note_off_c, 0, 67, 64
2, 110470, Note_on_c, 0, 74, 47
2, 110488, Note_on_c, 0, 55, 35
2, 110572, Note_off_c, 0, 55, 64
2, 110574, Note_on_c, 0, 67, 35
2, 110607, Note_off_c, 0, 67, 64
2, 110662, Note_on_c, 0, 59, 42
2, 110697, Note_off_c, 0, 59, 64
2, 110765, Note_on_c, 0, 67, 49
2, 110797, Note_off_c, 0, 67, 64
2, 110853, Note_on_c, 0, 55, 38
2, 110886, Note_off_c, 0, 74, 64
2, 110889, Note_off_c, 0, 55, 64
2, 110942, Note_on_c, 0, 67, 36
2, 110976, Note_off_c, 0, 67, 64
2, 111026, Note_on_c, 0, 79, 63
2, 111035, Note_on_c, 0, 59, 36
2, 111068, Note_off_c, 0, 79, 64
2, 111078, Note_off_c, 0, 59, 64
2, 111123, Note_on_c, 0, 67, 48
2, 111168, Note_off_c, 0, 67, 64
2, 111228, Note_on_c, 0, 77, 68
2, 111233, Note_on_c, 0, 55, 45
2, 111322, Note_off_c, 0, 55, 64
2, 111322, Note_on_c, 0, 67, 37
2, 111402, Note_off_c, 0, 67, 64
2, 111429, Note_on_c, 0, 75, 49
2, 111431, Note_on_c, 0, 60, 35
2, 111470, Note_off_c, 0, 77, 64
2, 111485, Note_off_c, 0, 60, 64
2, 111512, Note_on_c, 0, 67, 38
2, 111566, Note_off_c, 0, 67, 64
2, 111568, Note_off_c, 0, 75, 64
2, 111608, Note_on_c, 0, 55, 43
2, 111647, Note_off_c, 0, 55, 64
2, 111714, Note_on_c, 0, 67, 36
2, 111769, Note_off_c, 0, 67, 64
2, 111805, Note_on_c, 0, 72, 58
2, 111810, Note_on_c, 0, 63, 54
2, 111830, Note_off_c, 0, 72, 64
2, 111840, Note_off_c, 0, 63, 64
2, 111893, Note_on_c, 0, 67, 51
2, 111953, Note_off_c, 0, 67, 64
2, 111984, Note_on_c, 0, 55, 50
2, 111994, Note_on_c, 0, 71, 64
2, 112028, Note_off_c, 0, 55, 64
2, 112071, Note_on_c, 0, 67, 49
2, 112112, Note_off_c, 0, 67, 64
2, 112177, Note_on_c, 0, 74, 49
2, 112182, Note_on_c, 0, 62, 35
2, 112202, Note_off_c, 0, 71, 64
2, 112237, Note_off_c, 0, 62, 64
2, 112268, Note_on_c, 0, 67, 52
2, 112285, Note_off_c, 0, 74, 64
2, 112308, Note_off_c, 0, 67, 64
2, 112356, Note_on_c, 0, 55, 54
2, 112386, Note_off_c, 0, 55, 64
2, 112440, Note_on_c, 0, 67, 50
2, 112474, Note_off_c, 0, 67, 64
2, 112537, Note_on_c, 0, 79, 64
2, 112540, Note_on_c, 0, 59, 50
2, 112574, Note_off_c, 0, 59, 64
2, 112627, Note_off_c, 0, 79, 64
2, 112631, Note_on_c, 0, 67, 46
2, 112665, Note_off_c, 0, 67, 64
2, 112718, Note_on_c, 0, 55, 51
2, 112762, Note_off_c, 0, 55, 64
2, 112814, Note_on_c, 0, 67, 39
2, 112850, Note_off_c, 0, 67, 64
2, 112902, Note_on_c, 0, 77, 62
2, 112918, Note_on_c, 0, 60, 35
2, 112973, Note_off_c, 0, 60, 64
2, 112996, Note_on_c, 0, 75, 57
2, 113005, Note_on_c, 0, 67, 42
2, 113038, Note_off_c, 0, 67, 64
2, 113039, Note_off_c, 0, 77, 64
2, 113076, Note_off_c, 0, 75, 64
2, 113086, Note_on_c, 0, 55, 42
2, 113149, Note_off_c, 0, 55, 64
2, 113184, Note_on_c, 0, 67, 48
2, 113227, Note_off_c, 0, 67, 64
2, 113264, Note_on_c, 0, 74, 62
2, 113282, Note_on_c, 0, 63, 35
2, 113333, Note_off_c, 0, 63, 64
2, 113353, Note_on_c, 0, 72, 71
2, 113355, Note_off_c, 0, 74, 64
2, 113355, Note_on_c, 0, 67, 45
2, 113383, Note_off_c, 0, 67, 64
2, 113388, Note_off_c, 0, 72, 64
2, 113434, Note_on_c, 0, 55, 44
2, 113440, Note_on_c, 0, 71, 65
2, 113502, Note_off_c, 0, 55, 64
2, 113523, Note_on_c, 0, 67, 35
2, 113559, Note_off_c, 0, 67, 64
2, 113612, Note_on_c, 0, 62, 40
2, 113622, Note_on_c, 0, 74, 53
2, 113630, Note_off_c, 0, 71, 64
2, 113708, Note_off_c, 0, 62, 64
2, 113715, Note_on_c, 0, 67, 49
2, 113761, Note_off_c, 0, 67, 64
2, 113766, Note_off_c, 0, 74, 64
2, 113806, Note_on_c, 0, 55, 47
2, 113849, Note_off_c, 0, 55, 64
2, 113882, Note_on_c, 0, 79, 67
2, 113887, Note_on_c, 0, 67, 39
2, 113946, Note_off_c, 0, 79, 64
2, 113966, Note_off_c, 0, 67, 64
2, 113972, Note_on_c, 0, 59, 44
2, 113976, Note_on_c, 0, 78, 58
2, 114007, Note_off_c, 0, 59, 64
2, 114038, Note_off_c, 0, 78, 64
2, 114048, Note_on_c, 0, 67, 45
2, 114058, Note_on_c, 0, 79, 60
2, 114125, Note_off_c, 0, 79, 64
2, 114141, Note_off_c, 0, 67, 64
2, 114158, Note_on_c, 0, 56, 41
2, 114259, Note_on_c, 0, 67, 35
2, 114264, Note_on_c, 0, 75, 54
2, 114276, Control_c, 0, 64, 127
2, 114296, Note_off_c, 0, 56, 64
2, 114357, Note_off_c, 0, 75, 64
2, 114359, Note_on_c, 0, 74, 49
2, 114365, Note_off_c, 0, 67, 64
2, 114365, Note_on_c, 0, 60, 35
2, 114442, Note_on_c, 0, 67, 42
2, 114442, Note_on_c, 0, 75, 46
2, 114458, Note_off_c, 0, 74, 64
2, 114466, Note_off_c, 0, 60, 64
2, 114488, Control_c, 0, 64, 0
2, 114510, Note_off_c, 0, 67, 64
2, 114518, Note_off_c, 0, 75, 64
2, 114559, Note_on_c, 0, 56, 35
2, 114662, Note_on_c, 0, 72, 42
2, 114663, Note_on_c, 0, 66, 37
2, 114745, Note_off_c, 0, 72, 64
2, 114755, Note_on_c, 0, 71, 43
2, 114763, Note_off_c, 0, 66, 64
2, 114763, Note_on_c, 0, 60, 35
2, 114816, Note_off_c, 0, 71, 64
2, 114840, Note_off_c, 0, 56, 64
2, 114846, Note_on_c, 0, 66, 35
2, 114846, Note_on_c, 0, 72, 47
2, 114873, Note_off_c, 0, 66, 64
2, 114913, Note_off_c, 0, 60, 64
2, 114951, Note_off_c, 0, 72, 64
2, 114959, Note_on_c, 0, 71, 52
2, 114961, Note_on_c, 0, 67, 39
2, 114969, Note_on_c, 0, 55, 35
2, 115140, Note_off_c, 0, 55, 64
2, 115140, Note_off_c, 0, 67, 64
2, 115142, Note_on_c, 0, 74, 44
2, 115165, Note_off_c, 0, 71, 64
2, 115178, Note_off_c, 0, 74, 64
2, 115337, Note_on_c, 0, 71, 50
2, 115347, Note_on_c, 0, 67, 35
2, 115348, Note_on_c, 0, 55, 35
2, 115507, Note_off_c, 0, 55, 64
2, 115514, Note_off_c, 0, 67, 64
2, 115528, Note_on_c, 0, 74, 38
2, 115560, Note_off_c, 0, 74, 64
2, 115561, Note_off_c, 0, 71, 64
2, 115734, Note_on_c, 0, 71, 51
2, 115747, Note_on_c, 0, 55, 35
2, 115751, Note_on_c, 0, 67, 36
2, 115915, Note_off_c, 0, 55, 64
2, 115925, Note_off_c, 0, 71, 64
2, 115925, Note_on_c, 0, 74, 35
2, 115937, Note_off_c, 0, 67, 64
2, 116037, Note_off_c, 0, 74, 64
2, 116564, Note_on_c, 0, 74, 47
2, 116568, Note_on_c, 0, 65, 38
2, 116573, Note_on_c, 0, 59, 35
2, 116573, Note_on_c, 0, 55, 35
2, 116574, Note_on_c, 0, 62, 35
2, 116710, Note_off_c, 0, 55, 64
2, 116734, Note_off_c, 0, 62, 64
2, 116734, Note_off_c, 0, 65, 64
2, 116740, Note_off_c, 0, 59, 64
2, 116754, Note_on_c, 0, 77, 45
2, 116784, Note_off_c, 0, 74, 64
2, 116806, Note_off_c, 0, 77, 64
2, 116954, Note_on_c, 0, 74, 49
2, 116968, Note_on_c, 0, 59, 35
2, 116968, Note_on_c, 0, 65, 35
2, 116969, Note_on_c, 0, 55, 35
2, 116970, Note_on_c, 0, 62, 35
2, 117139, Note_off_c, 0, 55, 64
2, 117146, Note_on_c, 0, 77, 44
2, 117153, Note_off_c, 0, 65, 64
2, 117166, Note_off_c, 0, 62, 64
2, 117167, Note_off_c, 0, 59, 64
2, 117191, Note_off_c, 0, 74, 64
2, 117214, Note_off_c, 0, 77, 64
2, 117365, Note_on_c, 0, 74, 48
2, 117377, Note_on_c, 0, 65, 35
2, 117377, Note_on_c, 0, 55, 35
2, 117383, Note_on_c, 0, 62, 35
2, 117384, Note_on_c, 0, 59, 35
2, 117559, Note_off_c, 0, 65, 64
2, 117582, Note_off_c, 0, 62, 64
2, 117590, Note_on_c, 0, 77, 35
2, 117597, Note_off_c, 0, 55, 64
2, 117598, Note_off_c, 0, 74, 64
2, 117610, Note_off_c, 0, 59, 64
2, 117800, Note_off_c, 0, 77, 64
2, 118511, Note_on_c, 0, 76, 58
2, 118720, Note_on_c, 0, 48, 45
2, 118795, Note_off_c, 0, 48, 64
2, 118812, Note_on_c, 0, 77, 51
2, 118835, Note_off_c, 0, 76, 64
2, 118858, Note_on_c, 0, 79, 58
2, 118878, Note_off_c, 0, 77, 64
2, 118878, Note_on_c, 0, 72, 70
2, 118886, Note_on_c, 0, 52, 60
2, 118893, Note_off_c, 0, 79, 64
2, 118898, Note_off_c, 0, 72, 64
2, 118908, Note_off_c, 0, 52, 64
2, 119070, Note_on_c, 0, 74, 68
2, 119074, Note_on_c, 0, 71, 63
2, 119075, Note_on_c, 0, 55, 54
2, 119091, Note_off_c, 0, 71, 64
2, 119097, Note_off_c, 0, 74, 64
2, 119099, Note_off_c, 0, 55, 64
2, 119257, Note_on_c, 0, 74, 73
2, 119259, Note_on_c, 0, 60, 61
2, 119261, Note_on_c, 0, 71, 65
2, 119288, Note_off_c, 0, 60, 64
2, 119324, Note_off_c, 0, 71, 64
2, 119414, Note_off_c, 0, 74, 64
2, 119437, Note_on_c, 0, 48, 57
2, 119438, Note_on_c, 0, 77, 73
2, 119449, Note_on_c, 0, 72, 56
2, 119480, Note_off_c, 0, 72, 64
2, 119483, Note_off_c, 0, 48, 64
2, 119490, Note_on_c, 0, 76, 66
2, 119494, Note_off_c, 0, 77, 64
2, 119593, Note_off_c, 0, 76, 64
2, 119623, Note_on_c, 0, 74, 59
2, 119628, Note_on_c, 0, 71, 56
2, 119629, Note_on_c, 0, 55, 49
2, 119656, Note_off_c, 0, 55, 64
2, 119809, Note_on_c, 0, 43, 55
2, 119832, Note_off_c, 0, 43, 64
2, 119887, Note_off_c, 0, 74, 64
2, 119943, Note_off_c, 0, 71, 64
2, 119991, Note_on_c, 0, 76, 78
2, 120177, Note_on_c, 0, 48, 64
2, 120194, Note_off_c, 0, 48, 64
2, 120254, Note_on_c, 0, 77, 58
2, 120290, Note_off_c, 0, 76, 64
2, 120321, Note_on_c, 0, 79, 64
2, 120328, Note_off_c, 0, 77, 64
2, 120338, Note_on_c, 0, 72, 67
2, 120343, Note_on_c, 0, 52, 71
2, 120350, Note_off_c, 0, 79, 64
2, 120353, Note_off_c, 0, 72, 64
2, 120358, Note_off_c, 0, 52, 64
2, 120529, Note_on_c, 0, 74, 72
2, 120532, Note_on_c, 0, 55, 60
2, 120540, Note_on_c, 0, 71, 54
2, 120554, Note_off_c, 0, 71, 64
2, 120554, Note_off_c, 0, 55, 64
2, 120554, Note_off_c, 0, 74, 64
2, 120716, Note_on_c, 0, 77, 68
2, 120716, Note_on_c, 0, 60, 56
2, 120719, Note_on_c, 0, 74, 57
2, 120746, Note_off_c, 0, 60, 64
2, 120809, Note_off_c, 0, 74, 64
2, 120810, Control_c, 0, 64, 127
2, 120843, Note_off_c, 0, 77, 64
2, 120894, Note_on_c, 0, 48, 60
2, 120896, Note_on_c, 0, 72, 63
2, 120900, Note_on_c, 0, 76, 55
2, 120905, Control_c, 0, 64, 0
2, 120910, Note_on_c, 0, 77, 61
2, 120912, Note_off_c, 0, 48, 64
2, 120915, Note_off_c, 0, 76, 64
2, 120950, Note_off_c, 0, 72, 64
2, 120955, Note_on_c, 0, 76, 73
2, 120968, Note_off_c, 0, 77, 64
2, 120995, Note_off_c, 0, 76, 64
2, 120999, Note_on_c, 0, 74, 65
2, 121028, Note_off_c, 0, 74, 64
2, 121035, Note_on_c, 0, 76, 55
2, 121061, Note_on_c, 0, 55, 47
2, 121072, Note_on_c, 0, 71, 49
2, 121076, Note_on_c, 0, 74, 54
2, 121081, Note_off_c, 0, 76, 64
2, 121085, Note_off_c, 0, 55, 64
2, 121242, Note_off_c, 0, 71, 64
2, 121246, Note_off_c, 0, 74, 64
2, 121255, Note_on_c, 0, 43, 52
2, 121277, Note_off_c, 0, 43, 64
2, 121459, Note_on_c, 0, 77, 52
2, 121468, Note_on_c, 0, 57, 35
2, 121644, Control_c, 0, 64, 127
2, 121646, Note_on_c, 0, 60, 35
2, 121722, Note_off_c, 0, 77, 64
2, 121742, Control_c, 0, 64, 0
2, 121753, Note_on_c, 0, 79, 54
2, 121788, Note_on_c, 0, 77, 66
2, 121806, Note_off_c, 0, 60, 64
2, 121811, Note_off_c, 0, 79, 64
2, 121825, Note_on_c, 0, 55, 40
2, 121828, Note_on_c, 0, 76, 56
2, 121829, Note_off_c, 0, 77, 64
2, 121843, Note_off_c, 0, 76, 64
2, 121843, Note_off_c, 0, 57, 64
2, 122014, Note_on_c, 0, 76, 64
2, 122015, Note_on_c, 0, 60, 35
2, 122034, Note_off_c, 0, 76, 64
2, 122165, Note_off_c, 0, 60, 64
2, 122211, Note_on_c, 0, 81, 70
2, 122224, Note_on_c, 0, 53, 36
2, 122268, Note_off_c, 0, 55, 64
2, 122381, Note_on_c, 0, 60, 35
2, 122496, Note_on_c, 0, 83, 57
2, 122502, Note_off_c, 0, 81, 64
2, 122538, Note_on_c, 0, 84, 60
2, 122547, Note_off_c, 0, 83, 64
2, 122561, Note_off_c, 0, 60, 64
2, 122561, Note_on_c, 0, 79, 71
2, 122576, Note_off_c, 0, 79, 64
2, 122578, Note_on_c, 0, 52, 37
2, 122579, Note_off_c, 0, 84, 64
2, 122627, Note_off_c, 0, 53, 64
2, 122747, Note_on_c, 0, 79, 65
2, 122760, Note_on_c, 0, 60, 48
2, 122764, Note_off_c, 0, 79, 64
2, 122810, Note_off_c, 0, 60, 64
2, 122810, Note_off_c, 0, 52, 64
2, 122935, Note_on_c, 0, 79, 74
2, 123009, Note_on_c, 0, 77, 68
2, 123016, Note_off_c, 0, 79, 64
2, 123032, Note_off_c, 0, 77, 64
2, 123097, Note_on_c, 0, 77, 72
2, 123109, Note_on_c, 0, 67, 46
2, 123109, Note_on_c, 0, 59, 38
2, 123142, Note_off_c, 0, 59, 64
2, 123142, Note_off_c, 0, 67, 64
2, 123147, Note_off_c, 0, 77, 64
2, 123188, Note_on_c, 0, 74, 67
2, 123210, Note_off_c, 0, 74, 64
2, 123283, Note_on_c, 0, 77, 76
2, 123360, Note_on_c, 0, 76, 71
2, 123381, Note_off_c, 0, 77, 64
2, 123386, Note_off_c, 0, 76, 64
2, 123452, Note_on_c, 0, 76, 73
2, 123457, Note_on_c, 0, 60, 50
2, 123462, Note_on_c, 0, 67, 44
2, 123481, Note_off_c, 0, 67, 64
2, 123481, Note_off_c, 0, 60, 64
2, 123499, Note_off_c, 0, 76, 64
2, 123537, Note_on_c, 0, 72, 71
2, 123583, Note_off_c, 0, 72, 64
2, 123625, Note_on_c, 0, 73, 77
2, 123633, Note_on_c, 0, 55, 48
2, 123638, Note_on_c, 0, 59, 46
2, 123708, Note_on_c, 0, 74, 72
2, 123714, Note_off_c, 0, 73, 64
2, 123763, Note_off_c, 0, 74, 64
2, 123799, Note_on_c, 0, 76, 73
2, 123835, Note_off_c, 0, 76, 64
2, 123880, Note_on_c, 0, 74, 78
2, 123912, Note_off_c, 0, 74, 64
2, 123970, Note_on_c, 0, 72, 72
2, 123987, Note_off_c, 0, 72, 64
2, 123990, Note_off_c, 0, 59, 64
2, 124019, Note_off_c, 0, 55, 64
2, 124051, Note_on_c, 0, 71, 71
2, 124068, Note_off_c, 0, 71, 64
2, 124132, Note_on_c, 0, 69, 71
2, 124149, Note_off_c, 0, 69, 64
2, 124212, Note_on_c, 0, 67, 75
2, 124232, Note_off_c, 0, 67, 64
2, 124309, Note_on_c, 0, 76, 89
2, 124317, Note_on_c, 0, 36, 70
2, 124343, Note_off_c, 0, 36, 64
2, 124406, Note_on_c, 0, 40, 62
2, 124418, Control_c, 0, 67, 0
2, 124428, Note_off_c, 0, 40, 64
2, 124484, Note_on_c, 0, 43, 70
2, 124506, Note_off_c, 0, 43, 64
2, 124579, Note_on_c, 0, 48, 67
2, 124579, Note_on_c, 0, 77, 64
2, 124584, Note_off_c, 0, 76, 64
2, 124602, Note_off_c, 0, 48, 64
2, 124619, Note_on_c, 0, 79, 75
2, 124643, Note_on_c, 0, 72, 74
2, 124643, Note_on_c, 0, 40, 77
2, 124647, Note_off_c, 0, 77, 64
2, 124649, Note_off_c, 0, 79, 64
2, 124665, Note_off_c, 0, 40, 64
2, 124665, Note_off_c, 0, 72, 64
2, 124668, Control_c, 0, 67, 127
2, 124738, Note_on_c, 0, 52, 68
2, 124756, Note_off_c, 0, 52, 64
2, 124818, Note_on_c, 0, 43, 79
2, 124821, Note_on_c, 0, 74, 73
2, 124824, Note_on_c, 0, 71, 73
2, 124840, Note_off_c, 0, 43, 64
2, 124841, Note_off_c, 0, 74, 64
2, 124843, Note_off_c, 0, 71, 64
2, 124912, Note_on_c, 0, 55, 68
2, 124929, Note_off_c, 0, 55, 64
2, 124998, Note_on_c, 0, 74, 85
2, 124999, Note_on_c, 0, 71, 73
2, 125004, Note_on_c, 0, 48, 80
2, 125022, Note_off_c, 0, 48, 64
2, 125086, Note_on_c, 0, 52, 72
2, 125088, Note_off_c, 0, 71, 64
2, 125098, Control_c, 0, 64, 127
2, 125121, Note_off_c, 0, 52, 64
2, 125135, Note_off_c, 0, 74, 64
2, 125151, Control_c, 0, 64, 0
2, 125173, Note_on_c, 0, 77, 78
2, 125175, Note_on_c, 0, 55, 70
2, 125189, Note_on_c, 0, 72, 63
2, 125199, Note_on_c, 0, 76, 73
2, 125204, Note_off_c, 0, 55, 64
2, 125224, Note_off_c, 0, 77, 64
2, 125244, Note_off_c, 0, 72, 64
2, 125252, Note_on_c, 0, 60, 65
2, 125272, Note_off_c, 0, 60, 64
2, 125352, Note_on_c, 0, 74, 78
2, 125354, Note_off_c, 0, 76, 64
2, 125354, Note_on_c, 0, 43, 69
2, 125357, Note_on_c, 0, 71, 69
2, 125373, Note_off_c, 0, 43, 64
2, 125443, Note_on_c, 0, 47, 75
2, 125460, Note_off_c, 0, 47, 64
2, 125531, Note_on_c, 0, 50, 74
2, 125548, Note_off_c, 0, 50, 64
2, 125578, Note_off_c, 0, 71, 64
2, 125616, Note_off_c, 0, 74, 64
2, 125616, Note_on_c, 0, 55, 70
2, 125634, Note_off_c, 0, 55, 64
2, 125699, Note_on_c, 0, 76, 87
2, 125709, Note_on_c, 0, 36, 80
2, 125727, Note_off_c, 0, 36, 64
2, 125800, Note_on_c, 0, 40, 59
2, 125825, Note_off_c, 0, 40, 64
2, 125880, Note_on_c, 0, 43, 71
2, 125898, Note_off_c, 0, 43, 64
2, 125976, Note_on_c, 0, 48, 65
2, 125982, Note_on_c, 0, 77, 64
2, 125992, Note_off_c, 0, 76, 64
2, 126000, Note_off_c, 0, 48, 64
2, 126014, Note_on_c, 0, 79, 72
2, 126020, Note_off_c, 0, 77, 64
2, 126045, Note_on_c, 0, 72, 75
2, 126050, Note_on_c, 0, 40, 79
2, 126055, Note_off_c, 0, 79, 64
2, 126070, Note_off_c, 0, 40, 64
2, 126070, Note_off_c, 0, 72, 64
2, 126138, Note_on_c, 0, 52, 71
2, 126158, Note_off_c, 0, 52, 64
2, 126217, Note_on_c, 0, 43, 83
2, 126221, Note_on_c, 0, 74, 73
2, 126225, Note_on_c, 0, 71, 67
2, 126235, Note_off_c, 0, 43, 64
2, 126243, Note_off_c, 0, 71, 64
2, 126243, Note_off_c, 0, 74, 64
2, 126309, Note_on_c, 0, 55, 73
2, 126324, Note_off_c, 0, 55, 64
2, 126396, Note_on_c, 0, 77, 80
2, 126396, Note_on_c, 0, 74, 70
2, 126399, Note_on_c, 0, 48, 78
2, 126420, Note_off_c, 0, 48, 64
2, 126447, Note_off_c, 0, 74, 64
2, 126483, Note_on_c, 0, 52, 71
2, 126502, Control_c, 0, 64, 127
2, 126507, Note_off_c, 0, 52, 64
2, 126526, Note_off_c, 0, 77, 64
2, 126563, Note_on_c, 0, 55, 76
2, 126564, Note_on_c, 0, 76, 68
2, 126564, Note_on_c, 0, 72, 65
2, 126588, Note_off_c, 0, 55, 64
2, 126591, Note_off_c, 0, 72, 64
2, 126596, Note_on_c, 0, 77, 69
2, 126600, Note_off_c, 0, 76, 64
2, 126620, Note_off_c, 0, 77, 64
2, 126633, Note_on_c, 0, 60, 62
2, 126644, Control_c, 0, 64, 0
2, 126646, Note_on_c, 0, 76, 69
2, 126648, Note_off_c, 0, 60, 64
2, 126671, Note_off_c, 0, 76, 64
2, 126732, Note_on_c, 0, 71, 63
2, 126733, Note_on_c, 0, 74, 78
2, 126742, Note_on_c, 0, 43, 54
2, 126774, Note_off_c, 0, 43, 64
2, 126827, Note_on_c, 0, 47, 69
2, 126855, Note_off_c, 0, 47, 64
2, 126918, Note_on_c, 0, 50, 65
2, 126940, Note_off_c, 0, 50, 64
2, 126959, Note_off_c, 0, 74, 64
2, 126973, Note_off_c, 0, 71, 64
2, 127006, Note_on_c, 0, 55, 62
2, 127029, Note_off_c, 0, 55, 64
2, 127097, Note_on_c, 0, 77, 75
2, 127099, Note_on_c, 0, 57, 65
2, 127119, Note_off_c, 0, 57, 64
2, 127194, Note_on_c, 0, 60, 61
2, 127220, Note_off_c, 0, 60, 64
2, 127272, Note_on_c, 0, 57, 65
2, 127303, Note_off_c, 0, 57, 64
2, 127339, Note_off_c, 0, 77, 64
2, 127366, Note_on_c, 0, 60, 61
2, 127367, Note_on_c, 0, 79, 61
2, 127391, Note_off_c, 0, 60, 64
2, 127399, Note_on_c, 0, 77, 72
2, 127411, Note_off_c, 0, 79, 64
2, 127429, Note_on_c, 0, 76, 81
2, 127439, Note_off_c, 0, 77, 64
2, 127443, Note_on_c, 0, 55, 61
2, 127454, Note_off_c, 0, 76, 64
2, 127472, Note_off_c, 0, 55, 64
2, 127540, Note_on_c, 0, 60, 57
2, 127565, Note_off_c, 0, 60, 64
2, 127607, Note_on_c, 0, 76, 69
2, 127617, Note_on_c, 0, 55, 65
2, 127627, Note_off_c, 0, 76, 64
2, 127645, Note_off_c, 0, 55, 64
2, 127708, Note_on_c, 0, 60, 64
2, 127736, Note_off_c, 0, 60, 64
2, 127794, Note_on_c, 0, 81, 81
2, 127799, Note_on_c, 0, 53, 71
2, 127819, Note_off_c, 0, 53, 64
2, 127885, Note_on_c, 0, 60, 70
2, 127906, Note_off_c, 0, 60, 64
2, 127969, Note_on_c, 0, 53, 68
2, 127991, Note_off_c, 0, 53, 64
2, 128057, Note_on_c, 0, 83, 71
2, 128063, Note_on_c, 0, 60, 57
2, 128069, Note_off_c, 0, 81, 64
2, 128085, Note_off_c, 0, 60, 64
2, 128091, Note_on_c, 0, 84, 70
2, 128104, Note_off_c, 0, 83, 64
2, 128125, Note_on_c, 0, 79, 79
2, 128131, Note_on_c, 0, 52, 69
2, 128141, Note_off_c, 0, 84, 64
2, 128148, Note_off_c, 0, 79, 64
2, 128153, Note_off_c, 0, 52, 64
2, 128227, Note_on_c, 0, 60, 59
2, 128252, Note_off_c, 0, 60, 64
2, 128299, Note_on_c, 0, 79, 79
2, 128303, Note_on_c, 0, 52, 68
2, 128335, Note_off_c, 0, 79, 64
2, 128345, Note_off_c, 0, 52, 64
2, 128401, Note_on_c, 0, 60, 68
2, 128415, Note_off_c, 0, 60, 64
2, 128483, Note_on_c, 0, 80, 87
2, 128558, Note_on_c, 0, 81, 79
2, 128580, Note_off_c, 0, 80, 64
2, 128594, Note_off_c, 0, 81, 64
2, 128645, Note_on_c, 0, 77, 82
2, 128654, Note_on_c, 0, 53, 51
2, 128657, Note_on_c, 0, 62, 60
2, 128675, Note_off_c, 0, 53, 64
2, 128676, Note_off_c, 0, 77, 64
2, 128679, Note_off_c, 0, 62, 64
2, 128727, Note_on_c, 0, 74, 76
2, 128758, Note_off_c, 0, 74, 64
2, 128829, Note_on_c, 0, 72, 78
2, 128841, Note_on_c, 0, 64, 64
2, 128846, Note_on_c, 0, 55, 53
2, 128997, Note_off_c, 0, 64, 64
2, 129022, Note_on_c, 0, 71, 69
2, 129030, Note_on_c, 0, 62, 47
2, 129037, Note_off_c, 0, 72, 64
2, 129064, Control_c, 0, 64, 127
2, 129157, Note_off_c, 0, 71, 64
2, 129181, Control_c, 0, 64, 0
2, 129201, Note_off_c, 0, 55, 64
2, 129202, Note_off_c, 0, 62, 64
2, 129204, Note_on_c, 0, 72, 72
2, 129214, Note_on_c, 0, 60, 46
2, 129218, Note_on_c, 0, 64, 42
2, 129252, Note_off_c, 0, 72, 64
2, 129264, Note_on_c, 0, 67, 74
2, 129297, Note_off_c, 0, 67, 64
2, 129329, Note_on_c, 0, 76, 73
2, 129345, Note_off_c, 0, 76, 64
2, 129380, Note_on_c, 0, 72, 75
2, 129397, Control_c, 0, 67, 0
2, 129398, Note_off_c, 0, 72, 64
2, 129440, Note_on_c, 0, 79, 74
2, 129460, Note_off_c, 0, 79, 64
2, 129500, Note_on_c, 0, 76, 69
2, 129517, Note_off_c, 0, 76, 64
2, 129556, Note_on_c, 0, 84, 82
2, 129576, Note_off_c, 0, 64, 64
2, 129600, Note_off_c, 0, 60, 64
2, 129609, Note_on_c, 0, 83, 82
2, 129624, Note_off_c, 0, 84, 64
2, 129664, Note_on_c, 0, 81, 77
2, 129673, Note_off_c, 0, 83, 64
2, 129721, Note_off_c, 0, 81, 64
2, 129721, Note_on_c, 0, 79, 71
2, 129764, Note_off_c, 0, 79, 64
2, 129772, Note_on_c, 0, 77, 70
2, 129795, Note_off_c, 0, 77, 64
2, 129833, Note_on_c, 0, 76, 56
2, 129876, Note_off_c, 0, 76, 64
2, 129886, Note_on_c, 0, 73, 79
2, 129916, Note_off_c, 0, 73, 64
2, 129943, Note_on_c, 0, 74, 71
2, 129972, Note_off_c, 0, 74, 64
2, 130001, Note_on_c, 0, 77, 68
2, 130033, Note_off_c, 0, 77, 64
2, 130052, Note_on_c, 0, 81, 77
2, 130057, Note_on_c, 0, 57, 50
2, 130059, Note_on_c, 0, 62, 63
2, 130064, Note_on_c, 0, 53, 42
2, 130077, Note_off_c, 0, 57, 64
2, 130080, Note_off_c, 0, 62, 64
2, 130087, Note_off_c, 0, 53, 64
2, 130116, Note_off_c, 0, 81, 64
2, 130116, Note_on_c, 0, 77, 63
2, 130170, Note_off_c, 0, 77, 64
2, 130171, Note_on_c, 0, 74, 60
2, 130207, Note_off_c, 0, 74, 64
2, 130223, Note_on_c, 0, 64, 68
2, 130226, Note_on_c, 0, 79, 72
2, 130228, Note_on_c, 0, 60, 59
2, 130230, Note_on_c, 0, 55, 53
2, 130263, Note_off_c, 0, 64, 64
2, 130280, Note_on_c, 0, 76, 66
2, 130284, Note_off_c, 0, 79, 64
2, 130326, Note_off_c, 0, 60, 64
2, 130342, Note_off_c, 0, 76, 64
2, 130342, Note_on_c, 0, 72, 65
2, 130402, Note_off_c, 0, 72, 64
2, 130402, Note_on_c, 0, 77, 72
2, 130403, Note_on_c, 0, 65, 66
2, 130409, Note_on_c, 0, 62, 58
2, 130442, Note_off_c, 0, 65, 64
2, 130452, Note_on_c, 0, 74, 67
2, 130466, Note_off_c, 0, 77, 64
2, 130510, Note_on_c, 0, 71, 69
2, 130514, Note_off_c, 0, 74, 64
2, 130525, Note_off_c, 0, 62, 64
2, 130533, Note_off_c, 0, 71, 64
2, 130570, Note_on_c, 0, 72, 80
2, 130572, Note_on_c, 0, 60, 64
2, 130573, Note_on_c, 0, 64, 63
2, 130578, Note_off_c, 0, 55, 64
2, 130596, Note_off_c, 0, 64, 64
2, 130626, Note_off_c, 0, 72, 64
2, 130628, Note_on_c, 0, 67, 75
2, 130653, Note_off_c, 0, 67, 64
2, 130653, Note_off_c, 0, 60, 64
2, 130686, Note_on_c, 0, 76, 81
2, 130713, Note_off_c, 0, 76, 64
2, 130739, Note_on_c, 0, 72, 78
2, 130769, Note_off_c, 0, 72, 64
2, 130804, Note_on_c, 0, 79, 75
2, 130824, Note_off_c, 0, 79, 64
2, 130852, Note_on_c, 0, 76, 78
2, 130868, Note_off_c, 0, 76, 64
2, 130920, Note_on_c, 0, 84, 93
2, 130975, Note_on_c, 0, 83, 86
2, 130996, Note_off_c, 0, 84, 64
2, 131036, Note_on_c, 0, 81, 81
2, 131059, Note_off_c, 0, 83, 64
2, 131086, Note_on_c, 0, 79, 83
2, 131101, Note_off_c, 0, 81, 64
2, 131139, Note_off_c, 0, 79, 64
2, 131144, Note_on_c, 0, 77, 75
2, 131172, Note_off_c, 0, 77, 64
2, 131197, Note_on_c, 0, 76, 66
2, 131243, Note_off_c, 0, 76, 64
2, 131245, Note_on_c, 0, 73, 90
2, 131283, Note_off_c, 0, 73, 64
2, 131298, Note_on_c, 0, 74, 76
2, 131358, Note_off_c, 0, 74, 64
2, 131358, Note_on_c, 0, 77, 76
2, 131393, Note_off_c, 0, 77, 64
2, 131409, Note_on_c, 0, 81, 81
2, 131418, Note_on_c, 0, 53, 61
2, 131418, Note_on_c, 0, 62, 71
2, 131420, Note_on_c, 0, 57, 59
2, 131439, Note_off_c, 0, 57, 64
2, 131439, Note_off_c, 0, 62, 64
2, 131439, Note_off_c, 0, 53, 64
2, 131469, Note_on_c, 0, 77, 76
2, 131482, Note_off_c, 0, 81, 64
2, 131524, Note_on_c, 0, 74, 61
2, 131525, Note_off_c, 0, 77, 64
2, 131562, Note_off_c, 0, 74, 64
2, 131580, Note_on_c, 0, 60, 73
2, 131580, Note_on_c, 0, 64, 75
2, 131581, Note_on_c, 0, 79, 81
2, 131581, Note_on_c, 0, 55, 70
2, 131603, Note_off_c, 0, 64, 64
2, 131607, Note_off_c, 0, 60, 64
2, 131638, Note_on_c, 0, 76, 75
2, 131651, Note_off_c, 0, 79, 64
2, 131681, Control_c, 0, 64, 127
2, 131696, Note_off_c, 0, 76, 64
2, 131696, Note_on_c, 0, 72, 68
2, 131731, Note_off_c, 0, 72, 64
2, 131732, Control_c, 0, 64, 0
2, 131753, Note_on_c, 0, 65, 76
2, 131753, Note_on_c, 0, 77, 75
2, 131754, Note_on_c, 0, 62, 69
2, 131779, Note_off_c, 0, 65, 64
2, 131811, Note_on_c, 0, 74, 81
2, 131818, Note_off_c, 0, 77, 64
2, 131832, Note_off_c, 0, 62, 64
2, 131867, Note_on_c, 0, 71, 81
2, 131868, Note_off_c, 0, 74, 64
2, 131899, Note_off_c, 0, 55, 64
2, 131919, Note_on_c, 0, 72, 93
2, 131925, Note_on_c, 0, 60, 72
2, 131928, Note_on_c, 0, 64, 72
2, 131945, Note_off_c, 0, 60, 64
2, 131945, Note_off_c, 0, 72, 64
2, 131946, Note_off_c, 0, 64, 64
2, 131952, Note_off_c, 0, 71, 64
2, 132115, Note_on_c, 0, 67, 91
2, 132121, Note_on_c, 0, 55, 72
2, 132135, Note_off_c, 0, 67, 64
2, 132139, Note_off_c, 0, 55, 64
2, 132312, Note_on_c, 0, 60, 89
2, 132315, Note_on_c, 0, 36, 74
2, 132317, Note_on_c, 0, 48, 74
2, 132332, Note_off_c, 0, 60, 64
2, 132333, Note_off_c, 0, 36, 64
2, 132334, Note_off_c, 0, 48, 64
2, 132354, Control_c, 0, 64, 127
2, 132571, Control_c, 0, 64, 0
2, 132752, Note_on_c, 0, 76, 69
2, 132758, Note_on_c, 0, 60, 35
2, 132860, Note_on_c, 0, 67, 39
2, 132947, Note_on_c, 0, 66, 40
2, 132954, Note_off_c, 0, 67, 64
2, 132963, Control_c, 0, 64, 127
2, 133011, Note_off_c, 0, 60, 64
2, 133024, Note_on_c, 0, 67, 48
2, 133044, Control_c, 0, 67, 127
2, 133088, Note_off_c, 0, 67, 64
2, 133093, Note_on_c, 0, 60, 50
2, 133094, Note_off_c, 0, 66, 64
2, 133094, Note_off_c, 0, 76, 64
2, 133130, Note_on_c, 0, 77, 57
2, 133161, Note_on_c, 0, 76, 72
2, 133161, Control_c, 0, 64, 0
2, 133163, Note_off_c, 0, 77, 64
2, 133177, Note_off_c, 0, 76, 64
2, 133181, Note_on_c, 0, 67, 41
2, 133188, Note_on_c, 0, 74, 69
2, 133198, Note_off_c, 0, 60, 64
2, 133224, Note_off_c, 0, 74, 64
2, 133226, Note_on_c, 0, 76, 75
2, 133236, Note_off_c, 0, 67, 64
2, 133266, Note_on_c, 0, 79, 72
2, 133271, Note_on_c, 0, 62, 40
2, 133286, Note_off_c, 0, 76, 64
2, 133359, Note_on_c, 0, 77, 75
2, 133362, Note_on_c, 0, 67, 39
2, 133384, Note_off_c, 0, 62, 64
2, 133407, Note_off_c, 0, 79, 64
2, 133445, Note_off_c, 0, 67, 64
2, 133450, Note_on_c, 0, 76, 76
2, 133457, Note_on_c, 0, 64, 38
2, 133480, Note_off_c, 0, 77, 64
2, 133511, Note_off_c, 0, 64, 64
2, 133531, Note_on_c, 0, 74, 68
2, 133536, Note_on_c, 0, 67, 40
2, 133550, Note_off_c, 0, 76, 64
2, 133604, Note_off_c, 0, 74, 64
2, 133616, Note_off_c, 0, 67, 64
2, 133616, Note_on_c, 0, 72, 59
2, 133624, Note_on_c, 0, 65, 43
2, 133694, Note_off_c, 0, 72, 64
2, 133702, Note_off_c, 0, 65, 64
2, 133702, Note_on_c, 0, 71, 56
2, 133707, Note_on_c, 0, 67, 37
2, 133789, Note_off_c, 0, 71, 64
2, 133792, Note_on_c, 0, 72, 52
2, 133794, Note_off_c, 0, 67, 64
2, 133802, Note_on_c, 0, 64, 45
2, 133856, Note_off_c, 0, 64, 64
2, 133888, Note_on_c, 0, 67, 41
2, 133944, Note_off_c, 0, 72, 64
2, 133969, Note_on_c, 0, 73, 77
2, 133976, Note_off_c, 0, 67, 64
2, 133981, Note_on_c, 0, 58, 51
2, 133986, Note_off_c, 0, 73, 64
2, 134019, Note_off_c, 0, 58, 64
2, 134059, Note_on_c, 0, 67, 44
2, 134064, Control_c, 0, 67, 0
2, 134140, Note_off_c, 0, 67, 64
2, 134144, Note_on_c, 0, 74, 79
2, 134157, Note_on_c, 0, 59, 45
2, 134165, Note_off_c, 0, 74, 64
2, 134192, Note_off_c, 0, 59, 64
2, 134231, Note_on_c, 0, 67, 46
2, 134280, Note_off_c, 0, 67, 64
2, 134323, Note_on_c, 0, 75, 78
2, 134326, Note_on_c, 0, 59, 43
2, 134340, Note_off_c, 0, 75, 64
2, 134369, Note_off_c, 0, 59, 64
2, 134404, Note_on_c, 0, 67, 44
2, 134490, Note_off_c, 0, 67, 64
2, 134502, Note_on_c, 0, 76, 75
2, 134512, Note_on_c, 0, 60, 40
2, 134525, Note_off_c, 0, 76, 64
2, 134602, Note_on_c, 0, 67, 47
2, 134648, Note_off_c, 0, 60, 64
2, 134676, Note_on_c, 0, 79, 71
2, 134683, Note_off_c, 0, 67, 64
2, 134703, Note_on_c, 0, 62, 43
2, 134736, Note_off_c, 0, 62, 64
2, 134761, Note_on_c, 0, 77, 73
2, 134773, Note_off_c, 0, 79, 64
2, 134777, Note_on_c, 0, 67, 44
2, 134844, Note_off_c, 0, 67, 64
2, 134869, Note_on_c, 0, 76, 66
2, 134882, Note_off_c, 0, 77, 64
2, 134883, Note_on_c, 0, 60, 40
2, 134958, Note_on_c, 0, 67, 35
2, 135031, Note_on_c, 0, 66, 45
2, 135035, Note_off_c, 0, 67, 64
2, 135035, Control_c, 0, 64, 127
2, 135065, Control_c, 0, 67, 127
2, 135101, Note_off_c, 0, 60, 64
2, 135113, Note_on_c, 0, 67, 42
2, 135126, Note_off_c, 0, 76, 64
2, 135132, Note_off_c, 0, 66, 64
2, 135148, Note_on_c, 0, 77, 58
2, 135168, Control_c, 0, 64, 0
2, 135186, Note_on_c, 0, 76, 62
2, 135192, Note_off_c, 0, 77, 64
2, 135194, Note_off_c, 0, 67, 64
2, 135225, Note_off_c, 0, 76, 64
2, 135225, Note_on_c, 0, 59, 39
2, 135229, Note_on_c, 0, 74, 55
2, 135310, Note_on_c, 0, 67, 35
2, 135356, Note_off_c, 0, 74, 64
2, 135371, Control_c, 0, 64, 127
2, 135387, Note_off_c, 0, 67, 64
2, 135387, Note_on_c, 0, 66, 37
2, 135481, Note_on_c, 0, 67, 39
2, 135487, Note_off_c, 0, 59, 64
2, 135498, Note_off_c, 0, 66, 64
2, 135578, Note_off_c, 0, 67, 64
2, 135578, Control_c, 0, 64, 0
2, 135581, Note_on_c, 0, 77, 69
2, 135593, Note_on_c, 0, 59, 35
2, 135670, Note_on_c, 0, 67, 36
2, 135750, Control_c, 0, 64, 127
2, 135758, Note_on_c, 0, 66, 39
2, 135765, Note_off_c, 0, 67, 64
2, 135828, Note_off_c, 0, 59, 64
2, 135836, Note_on_c, 0, 67, 46
2, 135910, Note_off_c, 0, 77, 64
2, 135914, Note_off_c, 0, 66, 64
2, 135927, Note_on_c, 0, 59, 44
2, 135929, Note_off_c, 0, 67, 64
2, 135941, Note_on_c, 0, 79, 64
2, 135975, Note_on_c, 0, 77, 64
2, 135982, Note_off_c, 0, 79, 64
2, 135994, Note_off_c, 0, 77, 64
2, 136004, Note_on_c, 0, 76, 72
2, 136014, Note_on_c, 0, 67, 45
2, 136038, Note_on_c, 0, 77, 75
2, 136047, Note_off_c, 0, 59, 64
2, 136053, Control_c, 0, 64, 0
2, 136054, Note_off_c, 0, 76, 64
2, 136096, Note_on_c, 0, 81, 70
2, 136107, Note_off_c, 0, 77, 64
2, 136109, Note_off_c, 0, 67, 64
2, 136116, Note_on_c, 0, 60, 41
2, 136187, Note_on_c, 0, 67, 48
2, 136187, Note_on_c, 0, 79, 72
2, 136199, Note_off_c, 0, 60, 64
2, 136226, Note_off_c, 0, 81, 64
2, 136274, Note_off_c, 0, 67, 64
2, 136275, Note_on_c, 0, 77, 65
2, 136284, Note_on_c, 0, 62, 41
2, 136299, Note_off_c, 0, 79, 64
2, 136340, Note_off_c, 0, 62, 64
2, 136357, Note_on_c, 0, 76, 60
2, 136360, Note_on_c, 0, 67, 41
2, 136388, Note_off_c, 0, 77, 64
2, 136417, Note_off_c, 0, 76, 64
2, 136437, Note_on_c, 0, 74, 55
2, 136450, Note_off_c, 0, 67, 64
2, 136455, Note_on_c, 0, 64, 40
2, 136498, Note_off_c, 0, 64, 64
2, 136506, Note_off_c, 0, 74, 64
2, 136518, Note_on_c, 0, 72, 57
2, 136523, Note_on_c, 0, 67, 44
2, 136594, Note_off_c, 0, 72, 64
2, 136601, Note_on_c, 0, 71, 64
2, 136607, Note_off_c, 0, 67, 64
2, 136620, Note_on_c, 0, 65, 44
2, 136621, Note_off_c, 0, 71, 64
2, 136659, Note_off_c, 0, 65, 64
2, 136697, Note_on_c, 0, 72, 66
2, 136704, Note_on_c, 0, 67, 43
2, 136713, Note_off_c, 0, 72, 64
2, 136747, Note_off_c, 0, 67, 64
2, 136777, Note_on_c, 0, 74, 73
2, 136795, Note_on_c, 0, 62, 44
2, 136800, Note_off_c, 0, 74, 64
2, 136827, Note_off_c, 0, 62, 64
2, 136858, Note_on_c, 0, 76, 72
2, 136868, Note_on_c, 0, 67, 46
2, 136873, Note_off_c, 0, 76, 64
2, 136900, Note_off_c, 0, 67, 64
2, 136939, Note_on_c, 0, 77, 75
2, 136953, Note_off_c, 0, 77, 64
2, 137019, Note_on_c, 0, 79, 71
2, 137027, Note_on_c, 0, 67, 50
2, 137034, Note_off_c, 0, 79, 64
2, 137059, Note_off_c, 0, 67, 64
2, 137092, Note_on_c, 0, 81, 74
2, 137104, Note_on_c, 0, 62, 49
2, 137120, Note_off_c, 0, 81, 64
2, 137133, Note_off_c, 0, 62, 64
2, 137178, Note_on_c, 0, 83, 72
2, 137185, Note_on_c, 0, 67, 50
2, 137198, Note_off_c, 0, 83, 64
2, 137213, Note_off_c, 0, 67, 64
2, 137259, Note_on_c, 0, 84, 77
2, 137271, Note_on_c, 0, 59, 52
2, 137280, Note_off_c, 0, 84, 64
2, 137319, Note_off_c, 0, 59, 64
2, 137337, Note_on_c, 0, 86, 82
2, 137341, Note_on_c, 0, 67, 54
2, 137353, Note_off_c, 0, 86, 64
2, 137379, Note_off_c, 0, 67, 64
2, 137420, Note_on_c, 0, 88, 75
2, 137442, Note_off_c, 0, 88, 64
2, 137442, Note_on_c, 0, 55, 51
2, 137462, Note_off_c, 0, 55, 64
2, 137497, Note_on_c, 0, 89, 75
2, 137512, Note_off_c, 0, 89, 64
2, 137522, Note_on_c, 0, 67, 48
2, 137592, Note_off_c, 0, 67, 64
2, 137592, Note_on_c, 0, 87, 80
2, 137613, Note_on_c, 0, 60, 46
2, 137699, Note_on_c, 0, 67, 38
2, 137766, Note_off_c, 0, 60, 64
2, 137774, Note_off_c, 0, 67, 64
2, 137774, Note_on_c, 0, 64, 44
2, 137802, Control_c, 0, 64, 127
2, 137858, Note_off_c, 0, 64, 64
2, 137863, Note_on_c, 0, 67, 44
2, 137958, Control_c, 0, 64, 0
2, 137963, Note_on_c, 0, 88, 50
2, 137970, Note_off_c, 0, 67, 64
2, 137980, Note_on_c, 0, 60, 35
2, 137999, Note_off_c, 0, 87, 64
2, 138051, Note_on_c, 0, 67, 38
2, 138094, Control_c, 0, 64, 127
2, 138102, Note_off_c, 0, 88, 64
2, 138142, Note_off_c, 0, 67, 64
2, 138144, Note_on_c, 0, 64, 41
2, 138228, Note_on_c, 0, 67, 53
2, 138232, Note_off_c, 0, 60, 64
2, 138242, Note_off_c, 0, 64, 64
2, 138245, Note_off_c, 0, 67, 64
2, 138391, Control_c, 0, 64, 0
2, 138399, Note_on_c, 0, 70, 65
2, 138403, Note_on_c, 0, 48, 42
2, 138494, Note_on_c, 0, 52, 52
2, 138519, Note_off_c, 0, 48, 64
2, 138577, Note_on_c, 0, 55, 50
2, 138592, Note_off_c, 0, 52, 64
2, 138646, Note_on_c, 0, 60, 49
2, 138651, Note_off_c, 0, 55, 64
2, 138675, Note_on_c, 0, 76, 61
2, 138711, Note_off_c, 0, 70, 64
2, 138744, Note_on_c, 0, 79, 64
2, 138769, Note_off_c, 0, 76, 64
2, 138792, Note_on_c, 0, 82, 77
2, 138797, Note_off_c, 0, 60, 64
2, 138804, Note_off_c, 0, 79, 64
2, 138862, Note_on_c, 0, 79, 79
2, 138872, Note_off_c, 0, 82, 64
2, 138912, Note_on_c, 0, 76, 67
2, 138913, Note_off_c, 0, 79, 64
2, 138943, Control_c, 0, 64, 127
2, 138962, Note_on_c, 0, 79, 69
2, 138963, Note_off_c, 0, 76, 64
2, 139013, Note_on_c, 0, 76, 75
2, 139041, Note_off_c, 0, 79, 64
2, 139058, Note_on_c, 0, 70, 73
2, 139075, Note_off_c, 0, 76, 64
2, 139093, Control_c, 0, 64, 0
2, 139116, Note_off_c, 0, 70, 64
2, 139131, Note_on_c, 0, 69, 68
2, 139132, Note_on_c, 0, 41, 46
2, 139184, Note_off_c, 0, 41, 64
2, 139204, Note_on_c, 0, 45, 47
2, 139255, Note_off_c, 0, 45, 64
2, 139267, Note_on_c, 0, 48, 44
2, 139323, Note_off_c, 0, 48, 64
2, 139327, Note_on_c, 0, 53, 46
2, 139388, Note_on_c, 0, 72, 66
2, 139440, Note_off_c, 0, 69, 64
2, 139464, Note_off_c, 0, 53, 64
2, 139470, Note_on_c, 0, 77, 59
2, 139490, Note_off_c, 0, 72, 64
2, 139500, Note_on_c, 0, 81, 59
2, 139507, Note_off_c, 0, 77, 64
2, 139564, Note_on_c, 0, 77, 76
2, 139579, Note_off_c, 0, 81, 64
2, 139609, Control_c, 0, 64, 127
2, 139617, Note_on_c, 0, 72, 77
2, 139624, Note_off_c, 0, 77, 64
2, 139652, Note_off_c, 0, 72, 64
2, 139662, Note_on_c, 0, 77, 72
2, 139715, Note_on_c, 0, 72, 77
2, 139743, Note_off_c, 0, 77, 64
2, 139753, Note_on_c, 0, 69, 68
2, 139765, Control_c, 0, 64, 0
2, 139766, Note_off_c, 0, 72, 64
2, 139781, Note_off_c, 0, 69, 64
2, 139818, Note_on_c, 0, 67, 77
2, 139826, Note_on_c, 0, 45, 48
2, 139881, Note_off_c, 0, 45, 64
2, 139884, Note_on_c, 0, 49, 58
2, 139946, Note_off_c, 0, 49, 64
2, 139946, Note_on_c, 0, 52, 60
2, 139994, Note_on_c, 0, 57, 69
2, 139995, Note_off_c, 0, 52, 64
2, 140024, Note_off_c, 0, 57, 64
2, 140060, Note_on_c, 0, 73, 74
2, 140123, Note_on_c, 0, 76, 72
2, 140131, Note_off_c, 0, 67, 64
2, 140133, Note_off_c, 0, 73, 64
2, 140160, Note_off_c, 0, 76, 64
2, 140171, Note_on_c, 0, 79, 83
2, 140224, Note_on_c, 0, 76, 83
2, 140229, Note_off_c, 0, 79, 64
2, 140231, Control_c, 0, 64, 127
2, 140266, Note_off_c, 0, 76, 64
2, 140269, Note_on_c, 0, 73, 79
2, 140309, Note_off_c, 0, 73, 64
2, 140318, Note_on_c, 0, 76, 79
2, 140372, Note_off_c, 0, 76, 64
2, 140372, Note_on_c, 0, 73, 85
2, 140417, Note_on_c, 0, 67, 67
2, 140423, Note_off_c, 0, 73, 64
2, 140438, Note_off_c, 0, 67, 64
2, 140442, Control_c, 0, 64, 0
2, 140488, Note_on_c, 0, 50, 57
2, 140488, Note_on_c, 0, 66, 72
2, 140540, Note_off_c, 0, 50, 64
2, 140556, Note_on_c, 0, 54, 56
2, 140599, Note_on_c, 0, 57, 61
2, 140601, Note_off_c, 0, 54, 64
2, 140644, Note_off_c, 0, 57, 64
2, 140653, Note_on_c, 0, 62, 58
2, 140679, Note_off_c, 0, 62, 64
2, 140716, Note_on_c, 0, 69, 59
2, 140722, Note_off_c, 0, 66, 64
2, 140778, Note_on_c, 0, 74, 62
2, 140803, Note_off_c, 0, 69, 64
2, 140825, Note_off_c, 0, 74, 64
2, 140825, Note_on_c, 0, 78, 72
2, 140886, Note_on_c, 0, 74, 72
2, 140895, Note_off_c, 0, 78, 64
2, 140936, Note_on_c, 0, 69, 68
2, 140937, Note_off_c, 0, 74, 64
2, 140969, Control_c, 0, 64, 127
2, 140973, Note_off_c, 0, 69, 64
2, 140989, Note_on_c, 0, 74, 69
2, 141042, Note_on_c, 0, 69, 68
2, 141090, Note_on_c, 0, 66, 69
2, 141092, Note_off_c, 0, 74, 64
2, 141097, Control_c, 0, 64, 0
2, 141110, Note_off_c, 0, 69, 64
2, 141129, Note_off_c, 0, 66, 64
2, 141156, Note_on_c, 0, 47, 64
2, 141158, Note_on_c, 0, 65, 71
2, 141198, Note_off_c, 0, 47, 64
2, 141222, Note_on_c, 0, 50, 46
2, 141270, Note_off_c, 0, 50, 64
2, 141270, Note_on_c, 0, 55, 59
2, 141319, Note_off_c, 0, 55, 64
2, 141334, Note_on_c, 0, 59, 51
2, 141384, Note_off_c, 0, 59, 64
2, 141392, Note_on_c, 0, 71, 63
2, 141452, Note_on_c, 0, 74, 56
2, 141489, Note_off_c, 0, 71, 64
2, 141497, Note_off_c, 0, 74, 64
2, 141503, Note_on_c, 0, 77, 68
2, 141518, Note_off_c, 0, 65, 64
2, 141562, Note_on_c, 0, 74, 75
2, 141562, Control_c, 0, 64, 127
2, 141581, Note_off_c, 0, 77, 64
2, 141610, Note_off_c, 0, 74, 64
2, 141616, Note_on_c, 0, 71, 63
2, 141636, Note_off_c, 0, 71, 64
2, 141651, Note_on_c, 0, 74, 65
2, 141707, Note_on_c, 0, 71, 67
2, 141726, Note_off_c, 0, 74, 64
2, 141748, Note_off_c, 0, 71, 64
2, 141748, Note_on_c, 0, 65, 65
2, 141758, Control_c, 0, 64, 0
2, 141779, Note_off_c, 0, 65, 64
2, 141812, Note_on_c, 0, 48, 52
2, 141812, Note_on_c, 0, 64, 66
2, 141852, Note_off_c, 0, 48, 64
2, 141873, Note_on_c, 0, 52, 56
2, 141927, Note_off_c, 0, 52, 64
2, 141928, Note_on_c, 0, 55, 53
2, 141962, Note_off_c, 0, 55, 64
2, 141994, Note_on_c, 0, 60, 53
2, 142014, Note_off_c, 0, 60, 64
2, 142051, Note_on_c, 0, 67, 65
2, 142056, Note_off_c, 0, 64, 64
2, 142116, Note_on_c, 0, 72, 59
2, 142165, Note_off_c, 0, 72, 64
2, 142167, Note_on_c, 0, 76, 68
2, 142168, Note_off_c, 0, 67, 64
2, 142224, Note_on_c, 0, 72, 78
2, 142248, Note_off_c, 0, 76, 64
2, 142275, Note_off_c, 0, 72, 64
2, 142278, Note_on_c, 0, 67, 70
2, 142302, Note_off_c, 0, 67, 64
2, 142333, Note_on_c, 0, 72, 68
2, 142393, Note_on_c, 0, 67, 61
2, 142408, Note_off_c, 0, 72, 64
2, 142438, Note_off_c, 0, 67, 64
2, 142446, Note_on_c, 0, 64, 58
2, 142474, Note_off_c, 0, 64, 64
2, 142502, Note_on_c, 0, 57, 54
2, 142507, Note_on_c, 0, 53, 42
2, 142565, Note_on_c, 0, 62, 70
2, 142624, Note_on_c, 0, 69, 66
2, 142663, Note_off_c, 0, 57, 64
2, 142665, Note_off_c, 0, 69, 64
2, 142668, Note_off_c, 0, 53, 64
2, 142672, Note_on_c, 0, 74, 73
2, 142680, Note_off_c, 0, 62, 64
2, 142731, Note_on_c, 0, 69, 67
2, 142768, Note_off_c, 0, 69, 64
2, 142779, Note_on_c, 0, 62, 63
2, 142831, Note_off_c, 0, 62, 64
2, 142839, Note_off_c, 0, 74, 64
2, 142854, Note_on_c, 0, 57, 44
2, 142860, Note_on_c, 0, 54, 47
2, 142909, Note_on_c, 0, 62, 59
2, 142970, Note_off_c, 0, 57, 64
2, 142973, Note_on_c, 0, 69, 65
2, 142980, Note_off_c, 0, 54, 64
2, 143004, Note_off_c, 0, 69, 64
2, 143020, Note_on_c, 0, 72, 68
2, 143025, Note_off_c, 0, 62, 64
2, 143066, Note_on_c, 0, 69, 66
2, 143093, Note_off_c, 0, 72, 64
2, 143113, Note_on_c, 0, 62, 57
2, 143116, Note_off_c, 0, 69, 64
2, 143154, Note_off_c, 0, 62, 64
2, 143194, Note_on_c, 0, 71, 51
2, 143204, Note_on_c, 0, 55, 38
2, 143241, Note_off_c, 0, 55, 64
2, 143310, Note_on_c, 0, 67, 46
2, 143357, Control_c, 0, 64, 127
2, 143393, Note_off_c, 0, 67, 64
2, 143408, Note_on_c, 0, 66, 44
2, 143446, Note_off_c, 0, 71, 64
2, 143493, Note_off_c, 0, 66, 64
2, 143493, Note_on_c, 0, 67, 40
2, 143587, Note_on_c, 0, 66, 46
2, 143592, Note_off_c, 0, 67, 64
2, 143645, Control_c, 0, 64, 0
2, 143663, Note_off_c, 0, 66, 64
2, 143663, Note_on_c, 0, 67, 51
2, 143667, Note_on_c, 0, 79, 71
2, 143685, Note_off_c, 0, 79, 64
2, 143723, Note_off_c, 0, 67, 64
2, 143747, Note_on_c, 0, 81, 79
2, 143765, Note_off_c, 0, 81, 64
2, 143766, Note_on_c, 0, 65, 45
2, 143800, Note_off_c, 0, 65, 64
2, 143830, Note_on_c, 0, 83, 86
2, 143838, Note_on_c, 0, 67, 41
2, 143854, Note_off_c, 0, 83, 64
2, 143884, Note_off_c, 0, 67, 64
2, 143926, Note_on_c, 0, 84, 86
2, 143933, Note_on_c, 0, 64, 44
2, 144016, Note_on_c, 0, 67, 42
2, 144120, Note_off_c, 0, 64, 64
2, 144120, Note_on_c, 0, 60, 35
2, 144125, Note_off_c, 0, 67, 64
2, 144179, Control_c, 0, 64, 127
2, 144200, Note_on_c, 0, 67, 36
2, 144281, Note_off_c, 0, 60, 64
2, 144293, Note_on_c, 0, 64, 38
2, 144295, Note_off_c, 0, 67, 64
2, 144380, Note_on_c, 0, 83, 70
2, 144380, Note_on_c, 0, 67, 37
2, 144468, Note_on_c, 0, 81, 70
2, 144468, Note_on_c, 0, 60, 45
2, 144473, Note_off_c, 0, 67, 64
2, 144480, Note_off_c, 0, 64, 64
2, 144485, Note_off_c, 0, 84, 64
2, 144538, Note_on_c, 0, 79, 77
2, 144550, Note_on_c, 0, 67, 47
2, 144563, Note_off_c, 0, 81, 64
2, 144563, Note_off_c, 0, 83, 64
2, 144573, Note_off_c, 0, 79, 64
2, 144578, Note_off_c, 0, 60, 64
2, 144618, Control_c, 0, 64, 0
2, 144628, Note_on_c, 0, 79, 77
2, 144643, Note_off_c, 0, 67, 64
2, 144644, Note_on_c, 0, 62, 40
2, 144714, Note_on_c, 0, 67, 46
2, 144714, Note_on_c, 0, 77, 70
2, 144740, Note_off_c, 0, 79, 64
2, 144789, Note_on_c, 0, 76, 71
2, 144797, Note_off_c, 0, 62, 64
2, 144799, Note_off_c, 0, 67, 64
2, 144815, Note_on_c, 0, 60, 41
2, 144817, Note_off_c, 0, 77, 64
2, 144872, Note_on_c, 0, 74, 73
2, 144878, Note_off_c, 0, 60, 64
2, 144891, Note_off_c, 0, 76, 64
2, 144910, Note_on_c, 0, 67, 37
2, 144941, Note_off_c, 0, 74, 64
2, 144971, Note_on_c, 0, 79, 79
2, 144978, Note_off_c, 0, 67, 64
2, 144991, Note_off_c, 0, 79, 64
2, 144993, Note_on_c, 0, 59, 41
2, 145032, Note_off_c, 0, 59, 64
2, 145067, Note_on_c, 0, 67, 45
2, 145149, Note_off_c, 0, 67, 64
2, 145159, Note_on_c, 0, 77, 75
2, 145172, Note_on_c, 0, 55, 41
2, 145188, Note_off_c, 0, 77, 64
2, 145201, Note_off_c, 0, 55, 64
2, 145262, Note_on_c, 0, 67, 38
2, 145364, Note_on_c, 0, 75, 65
2, 145366, Note_off_c, 0, 67, 64
2, 145374, Note_on_c, 0, 60, 44
2, 145459, Note_on_c, 0, 67, 40
2, 145490, Note_off_c, 0, 75, 64
2, 145555, Note_off_c, 0, 67, 64
2, 145555, Note_on_c, 0, 66, 42
2, 145563, Note_on_c, 0, 76, 65
2, 145628, Note_off_c, 0, 66, 64
2, 145635, Note_on_c, 0, 67, 46
2, 145696, Control_c, 0, 64, 127
2, 145724, Note_off_c, 0, 60, 64
2, 145726, Note_on_c, 0, 66, 49
2, 145741, Note_off_c, 0, 67, 64
2, 145814, Note_off_c, 0, 66, 64
2, 145815, Note_on_c, 0, 67, 59
2, 145912, Note_on_c, 0, 69, 67
2, 145928, Note_off_c, 0, 67, 64
2, 145988, Note_off_c, 0, 76, 64
2, 145992, Note_off_c, 0, 69, 64
2, 145992, Note_on_c, 0, 67, 70
2, 146070, Control_c, 0, 64, 0
2, 146089, Note_on_c, 0, 65, 66
2, 146122, Note_off_c, 0, 67, 64
2, 146161, Note_on_c, 0, 67, 57
2, 146202, Note_off_c, 0, 65, 64
2, 146253, Note_on_c, 0, 64, 60
2, 146257, Note_off_c, 0, 67, 64
2, 146323, Note_off_c, 0, 64, 64
2, 146330, Note_on_c, 0, 67, 59
2, 146345, Note_on_c, 0, 79, 67
2, 146363, Note_off_c, 0, 79, 64
2, 146409, Note_off_c, 0, 67, 64
2, 146421, Note_on_c, 0, 80, 76
2, 146436, Note_off_c, 0, 80, 64
2, 146437, Note_on_c, 0, 65, 44
2, 146472, Note_off_c, 0, 65, 64
2, 146496, Note_on_c, 0, 67, 47
2, 146499, Note_on_c, 0, 81, 70
2, 146514, Note_off_c, 0, 81, 64
2, 146581, Note_on_c, 0, 82, 75
2, 146592, Note_on_c, 0, 62, 39
2, 146593, Note_off_c, 0, 67, 64
2, 146600, Note_off_c, 0, 82, 64
2, 146663, Note_off_c, 0, 62, 64
2, 146668, Note_on_c, 0, 83, 67
2, 146668, Note_on_c, 0, 67, 45
2, 146683, Note_off_c, 0, 83, 64
2, 146743, Note_off_c, 0, 67, 64
2, 146763, Note_on_c, 0, 84, 58
2, 146763, Note_on_c, 0, 64, 35
2, 146854, Note_on_c, 0, 67, 38
2, 146934, Note_on_c, 0, 60, 36
2, 146947, Note_off_c, 0, 67, 64
2, 146962, Note_off_c, 0, 64, 64
2, 147023, Note_on_c, 0, 67, 37
2, 147116, Note_off_c, 0, 67, 64
2, 147126, Note_on_c, 0, 64, 35
2, 147144, Control_c, 0, 64, 127
2, 147158, Note_off_c, 0, 60, 64
2, 147189, Note_on_c, 0, 83, 57
2, 147201, Note_on_c, 0, 67, 39
2, 147284, Note_off_c, 0, 67, 64
2, 147284, Note_off_c, 0, 64, 64
2, 147287, Note_on_c, 0, 81, 56
2, 147288, Note_off_c, 0, 84, 64
2, 147288, Note_on_c, 0, 60, 42
2, 147349, Note_off_c, 0, 83, 64
2, 147357, Note_on_c, 0, 79, 65
2, 147368, Note_on_c, 0, 67, 44
2, 147372, Note_off_c, 0, 81, 64
2, 147377, Note_off_c, 0, 60, 64
2, 147390, Note_off_c, 0, 79, 64
2, 147432, Control_c, 0, 64, 0
2, 147453, Note_on_c, 0, 79, 65
2, 147456, Note_off_c, 0, 67, 64
2, 147460, Note_on_c, 0, 62, 35
2, 147523, Note_off_c, 0, 79, 64
2, 147526, Note_off_c, 0, 62, 64
2, 147528, Note_on_c, 0, 67, 44
2, 147533, Note_on_c, 0, 77, 56
2, 147613, Note_off_c, 0, 67, 64
2, 147621, Note_on_c, 0, 60, 39
2, 147621, Note_on_c, 0, 76, 55
2, 147629, Note_off_c, 0, 77, 64
2, 147690, Note_off_c, 0, 76, 64
2, 147699, Note_on_c, 0, 67, 39
2, 147700, Note_on_c, 0, 74, 54
2, 147705, Note_off_c, 0, 60, 64
2, 147745, Note_off_c, 0, 74, 64
2, 147780, Note_on_c, 0, 79, 64
2, 147787, Note_off_c, 0, 67, 64
2, 147800, Note_on_c, 0, 59, 35
2, 147805, Note_off_c, 0, 79, 64
2, 147838, Note_off_c, 0, 59, 64
2, 147868, Note_on_c, 0, 67, 38
2, 147959, Note_off_c, 0, 67, 64
2, 147964, Note_on_c, 0, 77, 59
2, 147971, Note_on_c, 0, 55, 50
2, 147982, Note_off_c, 0, 77, 64
2, 147999, Note_off_c, 0, 55, 64
2, 148055, Note_on_c, 0, 67, 40
2, 148138, Note_off_c, 0, 67, 64
2, 148148, Note_on_c, 0, 76, 58
2, 148163, Note_on_c, 0, 60, 35
2, 148233, Note_on_c, 0, 67, 42
2, 148313, Note_off_c, 0, 60, 64
2, 148319, Control_c, 0, 64, 127
2, 148327, Note_off_c, 0, 67, 64
2, 148328, Note_on_c, 0, 64, 39
2, 148349, Note_off_c, 0, 76, 64
2, 148377, Note_off_c, 0, 64, 64
2, 148422, Note_on_c, 0, 67, 41
2, 148432, Note_on_c, 0, 81, 67
2, 148432, Control_c, 0, 64, 0
2, 148449, Note_off_c, 0, 81, 64
2, 148457, Note_off_c, 0, 67, 64
2, 148459, Note_on_c, 0, 83, 56
2, 148488, Note_on_c, 0, 81, 77
2, 148493, Note_off_c, 0, 83, 64
2, 148498, Note_on_c, 0, 60, 48
2, 148599, Note_on_c, 0, 69, 35
2, 148625, Note_on_c, 0, 83, 66
2, 148638, Note_off_c, 0, 69, 64
2, 148649, Note_off_c, 0, 81, 64
2, 148659, Note_on_c, 0, 65, 49
2, 148666, Note_on_c, 0, 84, 74
2, 148674, Note_off_c, 0, 83, 64
2, 148684, Note_off_c, 0, 84, 64
2, 148694, Note_off_c, 0, 60, 64
2, 148721, Note_off_c, 0, 65, 64
2, 148749, Note_on_c, 0, 69, 49
2, 148755, Note_on_c, 0, 84, 70
2, 148772, Note_off_c, 0, 84, 64
2, 148804, Note_off_c, 0, 69, 64
2, 148837, Note_on_c, 0, 84, 58
2, 148848, Note_on_c, 0, 60, 42
2, 148925, Note_on_c, 0, 67, 40
2, 148941, Note_off_c, 0, 84, 64
2, 148980, Control_c, 0, 64, 127
2, 148984, Note_off_c, 0, 67, 64
2, 148999, Note_off_c, 0, 60, 64
2, 149014, Note_on_c, 0, 64, 35
2, 149048, Note_off_c, 0, 64, 64
2, 149056, Control_c, 0, 67, 0
2, 149078, Note_on_c, 0, 67, 38
2, 149112, Note_off_c, 0, 67, 64
2, 149112, Note_on_c, 0, 86, 76
2, 149120, Control_c, 0, 67, 127
2, 149120, Control_c, 0, 64, 0
2, 149131, Note_off_c, 0, 86, 64
2, 149137, Note_on_c, 0, 88, 67
2, 149165, Note_on_c, 0, 58, 50
2, 149166, Note_on_c, 0, 86, 79
2, 149183, Note_off_c, 0, 88, 64
2, 149255, Note_on_c, 0, 65, 42
2, 149303, Note_on_c, 0, 88, 71
2, 149315, Note_off_c, 0, 65, 64
2, 149323, Note_off_c, 0, 86, 64
2, 149341, Note_on_c, 0, 62, 43
2, 149343, Note_on_c, 0, 89, 72
2, 149348, Note_off_c, 0, 88, 64
2, 149358, Note_off_c, 0, 89, 64
2, 149381, Note_off_c, 0, 58, 64
2, 149382, Note_off_c, 0, 62, 64
2, 149412, Note_on_c, 0, 65, 40
2, 149434, Note_on_c, 0, 89, 67
2, 149449, Note_off_c, 0, 89, 64
2, 149480, Note_off_c, 0, 65, 64
2, 149525, Note_on_c, 0, 57, 40
2, 149527, Note_on_c, 0, 89, 69
2, 149602, Note_on_c, 0, 65, 40
2, 149620, Note_off_c, 0, 89, 64
2, 149625, Control_c, 0, 64, 127
2, 149690, Note_off_c, 0, 65, 64
2, 149696, Note_on_c, 0, 60, 39
2, 149730, Note_off_c, 0, 57, 64
2, 149734, Note_off_c, 0, 60, 64
2, 149763, Note_on_c, 0, 65, 51
2, 149794, Note_off_c, 0, 65, 64
2, 149811, Note_on_c, 0, 77, 73
2, 149821, Control_c, 0, 64, 0
2, 149824, Note_off_c, 0, 77, 64
2, 149839, Note_on_c, 0, 79, 53
2, 149850, Note_on_c, 0, 53, 52
2, 149861, Note_on_c, 0, 77, 86
2, 149880, Note_off_c, 0, 79, 64
2, 149944, Note_on_c, 0, 62, 49
2, 149990, Note_on_c, 0, 79, 71
2, 150021, Note_off_c, 0, 62, 64
2, 150022, Note_on_c, 0, 81, 77
2, 150031, Note_off_c, 0, 77, 64
2, 150032, Note_off_c, 0, 53, 64
2, 150038, Note_on_c, 0, 57, 37
2, 150039, Note_off_c, 0, 79, 64
2, 150051, Note_off_c, 0, 81, 64
2, 150099, Note_off_c, 0, 57, 64
2, 150119, Note_on_c, 0, 81, 81
2, 150129, Note_on_c, 0, 62, 47
2, 150142, Note_off_c, 0, 81, 64
2, 150169, Note_off_c, 0, 62, 64
2, 150201, Note_on_c, 0, 81, 81
2, 150211, Note_on_c, 0, 55, 52
2, 150245, Note_off_c, 0, 81, 64
2, 150290, Note_on_c, 0, 79, 68
2, 150298, Note_on_c, 0, 64, 43
2, 150310, Note_off_c, 0, 79, 64
2, 150327, Note_off_c, 0, 64, 64
2, 150333, Note_off_c, 0, 55, 64
2, 150373, Note_on_c, 0, 77, 75
2, 150381, Note_on_c, 0, 60, 47
2, 150391, Note_off_c, 0, 77, 64
2, 150418, Note_off_c, 0, 60, 64
2, 150454, Note_on_c, 0, 76, 78
2, 150472, Note_off_c, 0, 76, 64
2, 150472, Note_on_c, 0, 64, 44
2, 150496, Note_off_c, 0, 64, 64
2, 150543, Note_on_c, 0, 74, 73
2, 150543, Note_on_c, 0, 55, 50
2, 150557, Note_off_c, 0, 74, 64
2, 150630, Note_on_c, 0, 65, 51
2, 150670, Note_off_c, 0, 65, 64
2, 150697, Note_off_c, 0, 55, 64
2, 150720, Note_on_c, 0, 79, 72
2, 150730, Note_on_c, 0, 59, 45
2, 150736, Note_off_c, 0, 79, 64
2, 150773, Note_off_c, 0, 59, 64
2, 150804, Note_on_c, 0, 65, 61
2, 150823, Control_c, 0, 64, 127
2, 150824, Note_off_c, 0, 65, 64
2, 150863, Control_c, 0, 64, 0
2, 150899, Note_on_c, 0, 77, 73
2, 150911, Note_on_c, 0, 48, 42
2, 150992, Note_on_c, 0, 55, 43
2, 151069, Note_off_c, 0, 55, 64
2, 151098, Note_on_c, 0, 52, 37
2, 151098, Note_on_c, 0, 76, 58
2, 151117, Note_off_c, 0, 48, 64
2, 151128, Note_off_c, 0, 77, 64
2, 151149, Note_off_c, 0, 76, 64
2, 151191, Note_off_c, 0, 52, 64
2, 151191, Note_on_c, 0, 55, 39
2, 151216, Note_on_c, 0, 69, 72
2, 151219, Note_off_c, 0, 55, 64
2, 151236, Note_off_c, 0, 69, 64
2, 151251, Note_on_c, 0, 71, 66
2, 151264, Note_on_c, 0, 48, 48
2, 151272, Note_on_c, 0, 69, 77
2, 151292, Note_off_c, 0, 71, 64
2, 151355, Note_on_c, 0, 57, 37
2, 151389, Note_on_c, 0, 71, 69
2, 151413, Note_off_c, 0, 57, 64
2, 151429, Note_on_c, 0, 53, 44
2, 151431, Note_off_c, 0, 69, 64
2, 151433, Note_on_c, 0, 72, 78
2, 151443, Note_off_c, 0, 71, 64
2, 151458, Note_off_c, 0, 72, 64
2, 151470, Note_off_c, 0, 48, 64
2, 151515, Note_on_c, 0, 57, 49
2, 151523, Note_on_c, 0, 72, 78
2, 151540, Note_off_c, 0, 72, 64
2, 151553, Note_off_c, 0, 53, 64
2, 151574, Note_off_c, 0, 57, 64
2, 151604, Note_on_c, 0, 72, 72
2, 151623, Note_on_c, 0, 48, 40
2, 151697, Note_on_c, 0, 55, 42
2, 151769, Note_off_c, 0, 55, 64
2, 151779, Note_on_c, 0, 52, 43
2, 151808, Note_off_c, 0, 72, 64
2, 151820, Note_off_c, 0, 48, 64
2, 151825, Note_off_c, 0, 52, 64
2, 151848, Note_on_c, 0, 55, 47
2, 151876, Note_on_c, 0, 74, 60
2, 151881, Note_off_c, 0, 55, 64
2, 151891, Note_off_c, 0, 74, 64
2, 151893, Note_on_c, 0, 76, 68
2, 151921, Note_on_c, 0, 74, 87
2, 151928, Note_on_c, 0, 46, 56
2, 151935, Note_off_c, 0, 76, 64
2, 152018, Note_on_c, 0, 53, 46
2, 152052, Note_on_c, 0, 76, 72
2, 152079, Note_off_c, 0, 53, 64
2, 152095, Note_on_c, 0, 77, 78
2, 152102, Note_on_c, 0, 50, 50
2, 152103, Note_off_c, 0, 76, 64
2, 152107, Note_off_c, 0, 74, 64
2, 152117, Note_off_c, 0, 77, 64
2, 152130, Note_off_c, 0, 46, 64
2, 152163, Note_off_c, 0, 50, 64
2, 152180, Note_on_c, 0, 77, 84
2, 152188, Note_on_c, 0, 53, 46
2, 152206, Note_off_c, 0, 77, 64
2, 152241, Note_off_c, 0, 53, 64
2, 152271, Note_on_c, 0, 77, 75
2, 152283, Note_on_c, 0, 45, 51
2, 152367, Note_on_c, 0, 53, 41
2, 152445, Note_on_c, 0, 48, 46
2, 152445, Control_c, 0, 64, 127
2, 152449, Note_off_c, 0, 53, 64
2, 152460, Note_off_c, 0, 45, 64
2, 152485, Note_off_c, 0, 77, 64
2, 152489, Note_off_c, 0, 48, 64
2, 152518, Note_on_c, 0, 53, 46
2, 152538, Note_off_c, 0, 53, 64
2, 152553, Note_on_c, 0, 77, 68
2, 152560, Control_c, 0, 64, 0
2, 152565, Note_on_c, 0, 79, 79
2, 152568, Note_off_c, 0, 77, 64
2, 152592, Note_on_c, 0, 41, 58
2, 152592, Note_on_c, 0, 77, 84
2, 152611, Note_off_c, 0, 79, 64
2, 152684, Note_on_c, 0, 50, 61
2, 152716, Note_on_c, 0, 79, 77
2, 152747, Note_off_c, 0, 77, 64
2, 152749, Note_off_c, 0, 41, 64
2, 152767, Note_off_c, 0, 50, 64
2, 152767, Note_on_c, 0, 81, 79
2, 152767, Note_on_c, 0, 45, 59
2, 152777, Note_off_c, 0, 79, 64
2, 152795, Note_off_c, 0, 81, 64
2, 152811, Note_off_c, 0, 45, 64
2, 152850, Note_on_c, 0, 50, 55
2, 152852, Note_on_c, 0, 81, 87
2, 152874, Note_off_c, 0, 81, 64
2, 152894, Note_off_c, 0, 50, 64
2, 152938, Note_on_c, 0, 81, 90
2, 152943, Note_on_c, 0, 43, 67
2, 152980, Note_off_c, 0, 81, 64
2, 153003, Note_off_c, 0, 43, 64
2, 153021, Note_on_c, 0, 79, 81
2, 153022, Note_on_c, 0, 52, 67
2, 153049, Note_off_c, 0, 79, 64
2, 153054, Note_off_c, 0, 52, 64
2, 153104, Note_on_c, 0, 77, 82
2, 153105, Note_on_c, 0, 48, 68
2, 153131, Note_off_c, 0, 77, 64
2, 153133, Note_off_c, 0, 48, 64
2, 153186, Note_on_c, 0, 76, 83
2, 153186, Note_on_c, 0, 52, 65
2, 153203, Note_off_c, 0, 76, 64
2, 153214, Note_off_c, 0, 52, 64
2, 153270, Note_on_c, 0, 76, 83
2, 153270, Note_on_c, 0, 43, 70
2, 153310, Note_off_c, 0, 76, 64
2, 153323, Note_off_c, 0, 43, 64
2, 153351, Note_on_c, 0, 74, 79
2, 153355, Note_on_c, 0, 53, 67
2, 153376, Note_off_c, 0, 74, 64
2, 153386, Note_off_c, 0, 53, 64
2, 153439, Note_on_c, 0, 50, 71
2, 153440, Note_on_c, 0, 72, 84
2, 153456, Note_off_c, 0, 72, 64
2, 153481, Note_off_c, 0, 50, 64
2, 153517, Note_on_c, 0, 53, 72
2, 153517, Note_on_c, 0, 71, 83
2, 153537, Note_off_c, 0, 53, 64
2, 153542, Note_off_c, 0, 71, 64
2, 153617, Note_on_c, 0, 79, 90
2, 153738, Control_c, 0, 67, 0
2, 153801, Note_on_c, 0, 52, 60
2, 153809, Note_on_c, 0, 48, 51
2, 153846, Note_off_c, 0, 79, 64
2, 153852, Note_on_c, 0, 76, 71
2, 153907, Note_off_c, 0, 76, 64
2, 153914, Note_off_c, 0, 52, 64
2, 153920, Note_on_c, 0, 72, 77
2, 153952, Note_off_c, 0, 72, 64
2, 153953, Note_off_c, 0, 48, 64
2, 153975, Note_on_c, 0, 71, 81
2, 153976, Note_on_c, 0, 53, 54
2, 153976, Note_on_c, 0, 50, 50
2, 154031, Note_off_c, 0, 71, 64
2, 154038, Note_on_c, 0, 74, 76
2, 154043, Control_c, 0, 67, 127
2, 154090, Note_on_c, 0, 67, 70
2, 154096, Note_off_c, 0, 74, 64
2, 154098, Note_off_c, 0, 53, 64
2, 154128, Note_off_c, 0, 50, 64
2, 154146, Note_on_c, 0, 52, 53
2, 154147, Note_on_c, 0, 55, 58
2, 154152, Note_on_c, 0, 72, 71
2, 154166, Note_off_c, 0, 67, 64
2, 154199, Note_off_c, 0, 55, 64
2, 154207, Note_on_c, 0, 76, 75
2, 154213, Note_off_c, 0, 72, 64
2, 154231, Note_off_c, 0, 52, 64
2, 154255, Note_off_c, 0, 76, 64
2, 154257, Note_on_c, 0, 67, 67
2, 154280, Note_off_c, 0, 67, 64
2, 154324, Note_on_c, 0, 74, 79
2, 154506, Note_on_c, 0, 47, 58
2, 154507, Note_on_c, 0, 43, 49
2, 154551, Note_off_c, 0, 74, 64
2, 154557, Note_on_c, 0, 71, 58
2, 154599, Note_off_c, 0, 71, 64
2, 154612, Note_on_c, 0, 67, 67
2, 154642, Note_off_c, 0, 47, 64
2, 154665, Note_off_c, 0, 43, 64
2, 154670, Note_off_c, 0, 67, 64
2, 154670, Note_on_c, 0, 66, 73
2, 154680, Note_on_c, 0, 45, 51
2, 154680, Note_on_c, 0, 48, 57
2, 154717, Note_off_c, 0, 66, 64
2, 154725, Note_on_c, 0, 67, 72
2, 154775, Note_off_c, 0, 67, 64
2, 154778, Note_on_c, 0, 62, 70
2, 154825, Note_off_c, 0, 48, 64
2, 154833, Note_off_c, 0, 45, 64
2, 154834, Note_on_c, 0, 65, 76
2, 154840, Note_off_c, 0, 62, 64
2, 154844, Note_on_c, 0, 47, 55
2, 154846, Note_on_c, 0, 50, 55
2, 154881, Note_on_c, 0, 67, 80
2, 154883, Note_off_c, 0, 47, 64
2, 154889, Note_off_c, 0, 50, 64
2, 154891, Note_off_c, 0, 65, 64
2, 154903, Control_c, 0, 64, 127
2, 154924, Note_off_c, 0, 67, 64
2, 154927, Note_on_c, 0, 62, 71
2, 154934, Control_c, 0, 64, 0
2, 154944, Note_off_c, 0, 62, 64
2, 155019, Note_on_c, 0, 79, 83
2, 155211, Note_on_c, 0, 52, 60
2, 155219, Note_on_c, 0, 48, 48
2, 155269, Note_off_c, 0, 79, 64
2, 155269, Note_on_c, 0, 76, 68
2, 155322, Note_off_c, 0, 76, 64
2, 155324, Note_on_c, 0, 72, 74
2, 155328, Note_off_c, 0, 52, 64
2, 155339, Note_off_c, 0, 48, 64
2, 155375, Note_on_c, 0, 53, 57
2, 155376, Note_on_c, 0, 71, 76
2, 155380, Note_off_c, 0, 72, 64
2, 155380, Note_on_c, 0, 50, 48
2, 155430, Note_off_c, 0, 71, 64
2, 155437, Note_on_c, 0, 74, 71
2, 155485, Note_off_c, 0, 74, 64
2, 155490, Note_on_c, 0, 67, 67
2, 155500, Note_off_c, 0, 53, 64
2, 155522, Note_off_c, 0, 50, 64
2, 155538, Note_on_c, 0, 72, 71
2, 155548, Note_on_c, 0, 52, 42
2, 155548, Note_on_c, 0, 55, 48
2, 155550, Note_off_c, 0, 67, 64
2, 155581, Note_off_c, 0, 55, 64
2, 155583, Note_off_c, 0, 72, 64
2, 155591, Note_on_c, 0, 76, 71
2, 155614, Note_off_c, 0, 52, 64
2, 155631, Note_off_c, 0, 76, 64
2, 155636, Note_on_c, 0, 67, 51
2, 155674, Note_off_c, 0, 67, 64
2, 155706, Note_on_c, 0, 74, 64
2, 155887, Note_on_c, 0, 47, 56
2, 155893, Note_on_c, 0, 43, 47
2, 155931, Note_off_c, 0, 74, 64
2, 155934, Note_on_c, 0, 71, 60
2, 155984, Note_off_c, 0, 71, 64
2, 155994, Note_on_c, 0, 67, 66
2, 156016, Note_off_c, 0, 47, 64
2, 156052, Note_off_c, 0, 67, 64
2, 156052, Note_on_c, 0, 66, 69
2, 156053, Note_off_c, 0, 43, 64
2, 156057, Note_on_c, 0, 48, 51
2, 156058, Note_on_c, 0, 45, 46
2, 156097, Note_off_c, 0, 66, 64
2, 156107, Note_on_c, 0, 67, 68
2, 156164, Note_on_c, 0, 62, 65
2, 156174, Note_off_c, 0, 67, 64
2, 156184, Note_off_c, 0, 48, 64
2, 156190, Note_off_c, 0, 45, 64
2, 156213, Note_on_c, 0, 47, 54
2, 156215, Note_on_c, 0, 50, 53
2, 156223, Note_on_c, 0, 65, 64
2, 156236, Note_off_c, 0, 62, 64
2, 156265, Note_off_c, 0, 65, 64
2, 156265, Note_on_c, 0, 67, 60
2, 156331, Note_on_c, 0, 62, 64
2, 156339, Note_off_c, 0, 50, 64
2, 156354, Note_off_c, 0, 67, 64
2, 156360, Note_off_c, 0, 62, 64
2, 156379, Note_off_c, 0, 47, 64
2, 156402, Note_on_c, 0, 48, 58
2, 156402, Note_on_c, 0, 64, 72
2, 156444, Note_off_c, 0, 64, 64
2, 156469, Note_on_c, 0, 60, 63
2, 156514, Note_on_c, 0, 64, 72
2, 156520, Note_off_c, 0, 60, 64
2, 156573, Note_on_c, 0, 67, 71
2, 156574, Note_off_c, 0, 64, 64
2, 156613, Note_off_c, 0, 67, 64
2, 156626, Note_on_c, 0, 64, 72
2, 156646, Note_off_c, 0, 64, 64
2, 156680, Note_on_c, 0, 67, 74
2, 156731, Note_off_c, 0, 67, 64
2, 156739, Note_on_c, 0, 72, 74
2, 156774, Note_off_c, 0, 72, 64
2, 156783, Control_c, 0, 67, 0
2, 156789, Note_on_c, 0, 67, 77
2, 156802, Note_off_c, 0, 48, 64
2, 156842, Note_on_c, 0, 72, 72
2, 156850, Control_c, 0, 64, 127
2, 156864, Note_off_c, 0, 67, 64
2, 156893, Note_on_c, 0, 76, 73
2, 156902, Note_off_c, 0, 72, 64
2, 156925, Note_off_c, 0, 76, 64
2, 156947, Note_on_c, 0, 72, 80
2, 157001, Note_on_c, 0, 76, 73
2, 157006, Control_c, 0, 64, 0
2, 157021, Note_off_c, 0, 72, 64
2, 157046, Note_off_c, 0, 76, 64
2, 157053, Note_on_c, 0, 60, 65
2, 157054, Note_on_c, 0, 79, 77
2, 157055, Note_on_c, 0, 55, 55
2, 157058, Note_on_c, 0, 52, 50
2, 157094, Note_off_c, 0, 79, 64
2, 157104, Note_on_c, 0, 76, 83
2, 157132, Note_off_c, 0, 76, 64
2, 157156, Note_on_c, 0, 79, 83
2, 157201, Note_off_c, 0, 79, 64
2, 157212, Note_on_c, 0, 82, 88
2, 157260, Note_off_c, 0, 82, 64
2, 157270, Note_on_c, 0, 79, 88
2, 157299, Control_c, 0, 64, 127
2, 157327, Note_off_c, 0, 79, 64
2, 157331, Note_on_c, 0, 76, 81
2, 157366, Note_off_c, 0, 76, 64
2, 157383, Note_on_c, 0, 72, 71
2, 157420, Note_off_c, 0, 72, 64
2, 157430, Note_on_c, 0, 70, 79
2, 157469, Note_off_c, 0, 70, 64
2, 157483, Note_on_c, 0, 67, 74
2, 157493, Control_c, 0, 64, 0
2, 157519, Note_off_c, 0, 67, 64
2, 157552, Note_off_c, 0, 55, 64
2, 157553, Note_on_c, 0, 58, 56
2, 157553, Note_on_c, 0, 72, 75
2, 157584, Note_off_c, 0, 52, 64
2, 157589, Note_off_c, 0, 72, 64
2, 157595, Note_on_c, 0, 70, 66
2, 157635, Note_off_c, 0, 70, 64
2, 157650, Note_on_c, 0, 68, 65
2, 157666, Note_off_c, 0, 58, 64
2, 157682, Note_off_c, 0, 68, 64
2, 157716, Note_on_c, 0, 53, 38
2, 157716, Note_on_c, 0, 69, 60
2, 157723, Note_on_c, 0, 57, 37
2, 157791, Note_off_c, 0, 69, 64
2, 157833, Note_on_c, 0, 81, 62
2, 157920, Note_on_c, 0, 80, 68
2, 157924, Note_off_c, 0, 81, 64
2, 157952, Note_off_c, 0, 53, 64
2, 157978, Note_off_c, 0, 60, 64
2, 157999, Note_on_c, 0, 81, 64
2, 158030, Note_off_c, 0, 80, 64
2, 158032, Note_off_c, 0, 57, 64
2, 158078, Control_c, 0, 64, 127
2, 158093, Note_off_c, 0, 81, 64
2, 158093, Note_on_c, 0, 80, 83
2, 158171, Note_on_c, 0, 81, 70
2, 158192, Note_off_c, 0, 80, 64
2, 158236, Note_off_c, 0, 81, 64
2, 158259, Note_on_c, 0, 80, 67
2, 158332, Note_on_c, 0, 81, 71
2, 158348, Note_off_c, 0, 80, 64
2, 158400, Control_c, 0, 64, 0
2, 158430, Note_off_c, 0, 81, 64
2, 158430, Note_on_c, 0, 72, 72
2, 158615, Note_on_c, 0, 54, 49
2, 158616, Note_on_c, 0, 63, 51
2, 158634, Control_c, 0, 64, 127
2, 158687, Note_off_c, 0, 54, 64
2, 158720, Note_off_c, 0, 63, 64
2, 158785, Control_c, 0, 64, 0
2, 158800, Note_on_c, 0, 64, 59
2, 158816, Note_on_c, 0, 55, 41
2, 158895, Control_c, 0, 64, 127
2, 158966, Control_c, 0, 64, 0
2, 158985, Note_off_c, 0, 72, 64
2, 158988, Note_on_c, 0, 76, 65
2, 159004, Note_on_c, 0, 71, 36
2, 159005, Note_on_c, 0, 65, 45
2, 159037, Note_off_c, 0, 64, 64
2, 159039, Note_off_c, 0, 71, 64
2, 159090, Note_on_c, 0, 74, 68
2, 159128, Note_off_c, 0, 76, 64
2, 159134, Note_off_c, 0, 65, 64
2, 159175, Note_off_c, 0, 74, 64
2, 159182, Note_on_c, 0, 72, 68
2, 159191, Note_on_c, 0, 64, 46
2, 159198, Note_on_c, 0, 60, 40
2, 159221, Note_off_c, 0, 72, 64
2, 159225, Note_off_c, 0, 55, 64
2, 159241, Note_on_c, 0, 67, 60
2, 159288, Note_off_c, 0, 67, 64
2, 159298, Note_on_c, 0, 72, 65
2, 159359, Note_off_c, 0, 72, 64
2, 159362, Note_on_c, 0, 76, 72
2, 159397, Note_off_c, 0, 76, 64
2, 159415, Note_on_c, 0, 72, 75
2, 159472, Note_on_c, 0, 76, 76
2, 159483, Note_off_c, 0, 72, 64
2, 159515, Note_off_c, 0, 76, 64
2, 159532, Note_on_c, 0, 79, 63
2, 159561, Note_off_c, 0, 79, 64
2, 159586, Note_on_c, 0, 76, 76
2, 159636, Note_on_c, 0, 79, 79
2, 159644, Note_off_c, 0, 64, 64
2, 159648, Note_off_c, 0, 76, 64
2, 159654, Note_off_c, 0, 60, 64
2, 159694, Note_on_c, 0, 84, 86
2, 159695, Control_c, 0, 64, 127
2, 159702, Note_off_c, 0, 79, 64
2, 159751, Note_off_c, 0, 84, 64
2, 159751, Note_on_c, 0, 86, 88
2, 159804, Note_on_c, 0, 84, 91
2, 159824, Note_off_c, 0, 86, 64
2, 159838, Control_c, 0, 64, 0
2, 159858, Note_on_c, 0, 52, 51
2, 159858, Note_on_c, 0, 60, 49
2, 159861, Note_on_c, 0, 55, 43
2, 159862, Note_on_c, 0, 82, 88
2, 159883, Note_off_c, 0, 84, 64
2, 159916, Note_on_c, 0, 81, 85
2, 159941, Note_off_c, 0, 82, 64
2, 159973, Note_on_c, 0, 79, 77
2, 159976, Note_off_c, 0, 81, 64
2, 159998, Note_off_c, 0, 79, 64
2, 160026, Note_on_c, 0, 77, 73
2, 160087, Note_on_c, 0, 76, 83
2, 160114, Note_off_c, 0, 77, 64
2, 160142, Note_on_c, 0, 74, 79
2, 160154, Note_off_c, 0, 76, 64
2, 160184, Note_off_c, 0, 74, 64
2, 160193, Note_on_c, 0, 72, 74
2, 160245, Note_on_c, 0, 74, 76
2, 160247, Note_off_c, 0, 72, 64
2, 160285, Note_off_c, 0, 74, 64
2, 160308, Note_on_c, 0, 72, 63
2, 160323, Note_off_c, 0, 55, 64
2, 160330, Note_off_c, 0, 72, 64
2, 160356, Note_on_c, 0, 70, 69
2, 160363, Note_on_c, 0, 58, 42
2, 160368, Note_off_c, 0, 52, 64
2, 160401, Note_off_c, 0, 70, 64
2, 160416, Note_on_c, 0, 69, 60
2, 160439, Note_off_c, 0, 69, 64
2, 160441, Note_off_c, 0, 58, 64
2, 160462, Note_on_c, 0, 68, 65
2, 160501, Note_off_c, 0, 68, 64
2, 160523, Note_on_c, 0, 69, 57
2, 160533, Note_on_c, 0, 53, 38
2, 160536, Note_on_c, 0, 57, 35
2, 160580, Note_off_c, 0, 69, 64
2, 160632, Note_on_c, 0, 81, 64
2, 160724, Note_on_c, 0, 80, 69
2, 160739, Note_off_c, 0, 81, 64
2, 160739, Note_off_c, 0, 53, 64
2, 160776, Note_off_c, 0, 60, 64
2, 160803, Note_on_c, 0, 81, 70
2, 160817, Note_off_c, 0, 57, 64
2, 160819, Note_off_c, 0, 80, 64
2, 160860, Control_c, 0, 64, 127
2, 160892, Note_on_c, 0, 80, 66
2, 160907, Note_off_c, 0, 81, 64
2, 160983, Note_off_c, 0, 80, 64
2, 160983, Note_on_c, 0, 81, 57
2, 161068, Note_off_c, 0, 81, 64
2, 161073, Note_on_c, 0, 80, 60
2, 161161, Note_on_c, 0, 81, 42
2, 161167, Note_off_c, 0, 80, 64
2, 161189, Note_off_c, 0, 81, 64
2, 161226, Control_c, 0, 64, 0
2, 161249, Note_on_c, 0, 63, 53
2, 161256, Note_on_c, 0, 54, 38
2, 161333, Note_on_c, 0, 84, 65
2, 161423, Note_on_c, 0, 83, 71
2, 161444, Note_off_c, 0, 84, 64
2, 161511, Note_on_c, 0, 84, 74
2, 161519, Control_c, 0, 64, 127
2, 161536, Note_off_c, 0, 83, 64
2, 161546, Note_off_c, 0, 63, 64
2, 161552, Note_off_c, 0, 54, 64
2, 161596, Note_on_c, 0, 83, 77
2, 161615, Note_off_c, 0, 84, 64
2, 161679, Note_on_c, 0, 84, 84
2, 161700, Note_off_c, 0, 83, 64
2, 161768, Note_on_c, 0, 83, 78
2, 161789, Note_off_c, 0, 84, 64
2, 161838, Note_on_c, 0, 84, 80
2, 161851, Note_off_c, 0, 83, 64
2, 161878, Note_off_c, 0, 84, 64
2, 161928, Note_on_c, 0, 84, 88
2, 161945, Note_on_c, 0, 55, 53
2, 161946, Control_c, 0, 64, 0
2, 162012, Note_on_c, 0, 79, 75
2, 162024, Note_on_c, 0, 64, 56
2, 162025, Note_off_c, 0, 84, 64
2, 162035, Note_off_c, 0, 55, 64
2, 162036, Note_off_c, 0, 79, 64
2, 162044, Note_off_c, 0, 64, 64
2, 162096, Note_on_c, 0, 79, 79
2, 162098, Note_on_c, 0, 60, 59
2, 162118, Note_off_c, 0, 79, 64
2, 162121, Note_off_c, 0, 60, 64
2, 162174, Note_on_c, 0, 79, 88
2, 162181, Note_on_c, 0, 64, 64
2, 162203, Note_off_c, 0, 79, 64
2, 162209, Note_off_c, 0, 64, 64
2, 162258, Note_on_c, 0, 81, 81
2, 162268, Note_on_c, 0, 55, 63
2, 162304, Note_off_c, 0, 55, 64
2, 162342, Note_on_c, 0, 79, 77
2, 162347, Note_off_c, 0, 81, 64
2, 162347, Note_on_c, 0, 64, 60
2, 162372, Note_off_c, 0, 64, 64
2, 162372, Note_off_c, 0, 79, 64
2, 162425, Note_on_c, 0, 77, 75
2, 162426, Note_on_c, 0, 60, 58
2, 162443, Note_off_c, 0, 77, 64
2, 162445, Note_off_c, 0, 60, 64
2, 162501, Note_on_c, 0, 76, 81
2, 162511, Note_on_c, 0, 64, 57
2, 162519, Note_off_c, 0, 76, 64
2, 162531, Note_off_c, 0, 64, 64
2, 162591, Note_on_c, 0, 76, 79
2, 162609, Note_on_c, 0, 55, 48
2, 162687, Note_on_c, 0, 67, 52
2, 162750, Note_off_c, 0, 55, 64
2, 162754, Control_c, 0, 64, 127
2, 162762, Note_on_c, 0, 60, 46
2, 162764, Note_off_c, 0, 67, 64
2, 162825, Note_off_c, 0, 60, 64
2, 162840, Note_on_c, 0, 67, 58
2, 162883, Note_off_c, 0, 67, 64
2, 162884, Note_off_c, 0, 76, 64
2, 162890, Control_c, 0, 64, 0
2, 162924, Note_on_c, 0, 74, 67
2, 162939, Note_on_c, 0, 55, 36
2, 162940, Note_off_c, 0, 74, 64
2, 162956, Note_on_c, 0, 76, 65
2, 162974, Note_off_c, 0, 76, 64
2, 162984, Control_c, 0, 64, 127
2, 162987, Note_on_c, 0, 74, 73
2, 163002, Note_on_c, 0, 65, 38
2, 163011, Note_off_c, 0, 74, 64
2, 163020, Note_on_c, 0, 76, 60
2, 163039, Note_off_c, 0, 76, 64
2, 163047, Note_on_c, 0, 74, 61
2, 163057, Note_off_c, 0, 65, 64
2, 163067, Note_off_c, 0, 74, 64
2, 163071, Note_on_c, 0, 59, 47
2, 163077, Note_on_c, 0, 76, 73
2, 163080, Note_off_c, 0, 55, 64
2, 163107, Note_off_c, 0, 59, 64
2, 163108, Note_on_c, 0, 74, 69
2, 163120, Note_off_c, 0, 76, 64
2, 163124, Note_on_c, 0, 65, 46
2, 163140, Note_off_c, 0, 74, 64
2, 163142, Note_off_c, 0, 65, 64
2, 163148, Note_on_c, 0, 72, 66
2, 163178, Note_off_c, 0, 72, 64
2, 163190, Note_on_c, 0, 74, 61
2, 163200, Control_c, 0, 64, 0
2, 163236, Note_on_c, 0, 48, 46
2, 163243, Note_on_c, 0, 72, 66
2, 163244, Note_off_c, 0, 74, 64
2, 163332, Note_on_c, 0, 52, 47
2, 163356, Note_off_c, 0, 48, 64
2, 163361, Note_off_c, 0, 72, 64
2, 163391, Control_c, 0, 64, 127
2, 163415, Note_on_c, 0, 60, 53
2, 163419, Note_off_c, 0, 52, 64
2, 163427, Control_c, 0, 67, 127
2, 163500, Note_on_c, 0, 52, 52
2, 163520, Control_c, 0, 64, 0
2, 163524, Note_off_c, 0, 60, 64
2, 163577, Note_off_c, 0, 52, 64
2, 163606, Note_on_c, 0, 67, 71
2, 163608, Note_on_c, 0, 48, 42
2, 163716, Note_on_c, 0, 53, 44
2, 163719, Control_c, 0, 64, 127
2, 163731, Note_off_c, 0, 48, 64
2, 163777, Note_off_c, 0, 53, 64
2, 163792, Note_on_c, 0, 59, 57
2, 163800, Note_off_c, 0, 67, 64
2, 163806, Control_c, 0, 64, 0
2, 163832, Note_on_c, 0, 71, 66
2, 163857, Note_off_c, 0, 71, 64
2, 163857, Note_off_c, 0, 59, 64
2, 163875, Note_on_c, 0, 53, 46
2, 163875, Note_on_c, 0, 69, 63
2, 163892, Note_off_c, 0, 69, 64
2, 163903, Note_on_c, 0, 67, 71
2, 163905, Note_off_c, 0, 53, 64
2, 163931, Note_off_c, 0, 67, 64
2, 163950, Note_on_c, 0, 48, 57
2, 163950, Note_on_c, 0, 79, 83
2, 163963, Note_off_c, 0, 79, 64
2, 164046, Note_on_c, 0, 50, 50
2, 164049, Note_off_c, 0, 48, 64
2, 164131, Note_on_c, 0, 77, 80
2, 164137, Note_on_c, 0, 59, 52
2, 164144, Note_off_c, 0, 50, 64
2, 164159, Note_off_c, 0, 77, 64
2, 164202, Note_off_c, 0, 59, 64
2, 164218, Note_on_c, 0, 50, 57
2, 164298, Note_off_c, 0, 50, 64
2, 164310, Note_on_c, 0, 48, 57
2, 164311, Note_on_c, 0, 76, 73
2, 164326, Note_off_c, 0, 76, 64
2, 164399, Note_on_c, 0, 53, 51
2, 164423, Note_off_c, 0, 48, 64
2, 164452, Note_off_c, 0, 53, 64
2, 164484, Note_on_c, 0, 74, 73
2, 164492, Note_on_c, 0, 59, 47
2, 164505, Note_off_c, 0, 74, 64
2, 164560, Note_off_c, 0, 59, 64
2, 164562, Note_on_c, 0, 53, 43
2, 164609, Note_off_c, 0, 53, 64
2, 164671, Note_on_c, 0, 72, 58
2, 164671, Note_on_c, 0, 48, 35
2, 164759, Note_on_c, 0, 52, 40
2, 164801, Control_c, 0, 64, 127
2, 164854, Note_off_c, 0, 52, 64
2, 164859, Note_on_c, 0, 60, 42
2, 164942, Note_off_c, 0, 48, 64
2, 164945, Note_on_c, 0, 52, 38
2, 164996, Note_off_c, 0, 60, 64
2, 165011, Control_c, 0, 64, 0
2, 165025, Note_off_c, 0, 52, 64
2, 165042, Note_on_c, 0, 67, 51
2, 165045, Note_on_c, 0, 48, 35
2, 165138, Note_on_c, 0, 52, 35
2, 165173, Note_off_c, 0, 48, 64
2, 165196, Note_off_c, 0, 52, 64
2, 165218, Note_on_c, 0, 60, 35
2, 165237, Note_off_c, 0, 72, 64
2, 165254, Note_off_c, 0, 67, 64
2, 165259, Note_off_c, 0, 60, 64
2, 165272, Note_on_c, 0, 71, 55
2, 165292, Note_on_c, 0, 52, 45
2, 165297, Note_off_c, 0, 71, 64
2, 165307, Note_on_c, 0, 69, 53
2, 165327, Note_off_c, 0, 69, 64
2, 165330, Note_on_c, 0, 67, 67
2, 165360, Note_off_c, 0, 67, 64
2, 165372, Note_off_c, 0, 52, 64
2, 165381, Note_on_c, 0, 79, 75
2, 165386, Note_on_c, 0, 48, 41
2, 165395, Note_off_c, 0, 79, 64
2, 165465, Note_on_c, 0, 50, 39
2, 165468, Note_off_c, 0, 48, 64
2, 165558, Note_on_c, 0, 77, 68
2, 165559, Note_on_c, 0, 59, 44
2, 165564, Note_off_c, 0, 50, 64
2, 165585, Note_off_c, 0, 77, 64
2, 165635, Note_off_c, 0, 59, 64
2, 165641, Note_on_c, 0, 50, 44
2, 165745, Note_on_c, 0, 48, 35
2, 165745, Note_on_c, 0, 76, 58
2, 165768, Note_off_c, 0, 76, 64
2, 165818, Note_on_c, 0, 53, 48
2, 165839, Note_off_c, 0, 50, 64
2, 165871, Note_off_c, 0, 53, 64
2, 165916, Note_on_c, 0, 59, 39
2, 165921, Note_on_c, 0, 74, 61
2, 165924, Note_off_c, 0, 48, 64
2, 165948, Note_off_c, 0, 74, 64
2, 165995, Note_on_c, 0, 53, 37
2, 165997, Note_off_c, 0, 59, 64
2, 166094, Note_off_c, 0, 53, 64
2, 166103, Note_on_c, 0, 72, 50
2, 166104, Note_on_c, 0, 48, 35
2, 166180, Note_off_c, 0, 48, 64
2, 166190, Note_on_c, 0, 52, 35
2, 166244, Note_off_c, 0, 72, 64
2, 166274, Note_off_c, 0, 52, 64
2, 166299, Note_on_c, 0, 60, 36
2, 166371, Note_on_c, 0, 52, 44
2, 166403, Note_off_c, 0, 60, 64
2, 166412, Note_on_c, 0, 67, 52
2, 166449, Note_on_c, 0, 79, 79
2, 166460, Note_off_c, 0, 67, 64
2, 166464, Note_off_c, 0, 52, 64
2, 166476, Note_on_c, 0, 48, 42
2, 166570, Note_on_c, 0, 53, 37
2, 166639, Note_off_c, 0, 53, 64
2, 166649, Note_off_c, 0, 48, 64
2, 166654, Note_on_c, 0, 59, 39
2, 166710, Note_off_c, 0, 79, 64
2, 166721, Note_on_c, 0, 77, 55
2, 166734, Note_off_c, 0, 59, 64
2, 166741, Note_on_c, 0, 53, 35
2, 166744, Note_off_c, 0, 77, 64
2, 166750, Note_on_c, 0, 76, 62
2, 166775, Note_off_c, 0, 76, 64
2, 166784, Note_on_c, 0, 74, 61
2, 166800, Note_off_c, 0, 53, 64
2, 166828, Note_off_c, 0, 74, 64
2, 166828, Note_on_c, 0, 72, 59
2, 166835, Note_on_c, 0, 48, 35
2, 166883, Note_off_c, 0, 72, 64
2, 166916, Note_on_c, 0, 52, 38
2, 166918, Note_off_c, 0, 48, 64
2, 167002, Note_off_c, 0, 52, 64
2, 167006, Note_on_c, 0, 60, 44
2, 167086, Note_on_c, 0, 52, 43
2, 167120, Note_off_c, 0, 60, 64
2, 167152, Note_on_c, 0, 67, 44
2, 167165, Note_off_c, 0, 52, 64
2, 167195, Note_on_c, 0, 79, 67
2, 167195, Note_on_c, 0, 48, 38
2, 167196, Note_off_c, 0, 67, 64
2, 167299, Note_on_c, 0, 53, 35
2, 167349, Control_c, 0, 64, 127
2, 167354, Note_off_c, 0, 79, 64
2, 167391, Note_on_c, 0, 59, 35
2, 167393, Note_off_c, 0, 53, 64
2, 167454, Note_off_c, 0, 48, 64
2, 167469, Control_c, 0, 64, 0
2, 167476, Note_on_c, 0, 53, 41
2, 167489, Note_off_c, 0, 59, 64
2, 167490, Note_on_c, 0, 81, 52
2, 167520, Note_on_c, 0, 83, 57
2, 167530, Note_off_c, 0, 81, 64
2, 167537, Note_off_c, 0, 53, 64
2, 167572, Note_on_c, 0, 84, 55
2, 167578, Note_off_c, 0, 83, 64
2, 167580, Note_on_c, 0, 48, 36
2, 167631, Note_off_c, 0, 84, 64
2, 167640, Note_off_c, 0, 48, 64
2, 167659, Note_on_c, 0, 52, 35
2, 167743, Note_off_c, 0, 52, 64
2, 167747, Note_on_c, 0, 60, 36
2, 167836, Note_on_c, 0, 52, 38
2, 167888, Note_off_c, 0, 60, 64
2, 167947, Note_on_c, 0, 48, 41
2, 167950, Note_off_c, 0, 52, 64
2, 167953, Note_on_c, 0, 79, 68
2, 167998, Note_off_c, 0, 79, 64
2, 168001, Note_on_c, 0, 81, 74
2, 168036, Note_on_c, 0, 53, 44
2, 168048, Note_on_c, 0, 79, 75
2, 168056, Note_off_c, 0, 81, 64
2, 168071, Note_off_c, 0, 48, 64
2, 168093, Note_off_c, 0, 53, 64
2, 168102, Note_on_c, 0, 77, 70
2, 168106, Note_off_c, 0, 79, 64
2, 168114, Note_on_c, 0, 59, 44
2, 168149, Note_off_c, 0, 77, 64
2, 168152, Note_on_c, 0, 76, 69
2, 168174, Note_off_c, 0, 59, 64
2, 168182, Note_off_c, 0, 76, 64
2, 168186, Note_on_c, 0, 53, 35
2, 168200, Note_on_c, 0, 74, 65
2, 168252, Note_off_c, 0, 74, 64
2, 168258, Note_off_c, 0, 53, 64
2, 168267, Note_on_c, 0, 72, 51
2, 168277, Note_on_c, 0, 48, 35
2, 168356, Note_on_c, 0, 52, 35
2, 168361, Note_off_c, 0, 72, 64
2, 168371, Note_off_c, 0, 48, 64
2, 168456, Note_on_c, 0, 60, 37
2, 168461, Note_off_c, 0, 52, 64
2, 168549, Note_on_c, 0, 52, 38
2, 168595, Note_off_c, 0, 60, 64
2, 168643, Note_on_c, 0, 78, 59
2, 168648, Note_off_c, 0, 52, 64
2, 168648, Note_on_c, 0, 48, 42
2, 168688, Note_off_c, 0, 78, 64
2, 168706, Note_on_c, 0, 79, 61
2, 168732, Note_on_c, 0, 53, 36
2, 168736, Note_off_c, 0, 79, 64
2, 168753, Note_on_c, 0, 80, 64
2, 168781, Note_off_c, 0, 80, 64
2, 168785, Note_off_c, 0, 53, 64
2, 168799, Note_off_c, 0, 48, 64
2, 168806, Note_on_c, 0, 81, 65
2, 168809, Note_on_c, 0, 59, 42
2, 168841, Note_off_c, 0, 81, 64
2, 168858, Note_on_c, 0, 82, 64
2, 168887, Note_on_c, 0, 53, 35
2, 168888, Note_off_c, 0, 59, 64
2, 168922, Note_off_c, 0, 82, 64
2, 168926, Note_on_c, 0, 83, 53
2, 168962, Note_off_c, 0, 53, 64
2, 168980, Note_off_c, 0, 83, 64
2, 168985, Note_on_c, 0, 84, 55
2, 168987, Note_on_c, 0, 52, 35
2, 169002, Note_on_c, 0, 48, 35
2, 169041, Note_off_c, 0, 84, 64
2, 169214, Note_on_c, 0, 67, 63
2, 169273, Control_c, 0, 64, 127
2, 169347, Note_off_c, 0, 48, 64
2, 169357, Note_off_c, 0, 67, 64
2, 169363, Control_c, 0, 64, 0
2, 169365, Note_off_c, 0, 52, 64
2, 169368, Note_on_c, 0, 72, 57
2, 169415, Note_on_c, 0, 76, 68
2, 169423, Note_off_c, 0, 72, 64
2, 169456, Note_off_c, 0, 76, 64
2, 169617, Note_on_c, 0, 74, 66
2, 169618, Note_on_c, 0, 65, 55
2, 169624, Note_on_c, 0, 56, 44
2, 169647, Note_off_c, 0, 65, 64
2, 169659, Note_off_c, 0, 74, 64
2, 169865, Note_on_c, 0, 65, 46
2, 169865, Note_on_c, 0, 74, 58
2, 169870, Note_on_c, 0, 57, 36
2, 169875, Note_off_c, 0, 56, 64
2, 170047, Control_c, 0, 64, 127
2, 170118, Note_off_c, 0, 65, 64
2, 170286, Control_c, 0, 64, 0
2, 170324, Note_on_c, 0, 72, 38
2, 170334, Note_on_c, 0, 64, 35
2, 170369, Note_off_c, 0, 74, 64
2, 170496, Note_off_c, 0, 57, 64
2, 170511, Note_off_c, 0, 64, 64
2, 170531, Note_off_c, 0, 72, 64
2, 170586, Control_c, 0, 67, 0
2, 170735, Note_on_c, 0, 81, 87
2, 170735, Note_on_c, 0, 77, 82
2, 170736, Note_on_c, 0, 69, 80
2, 170736, Note_on_c, 0, 74, 76
2, 170737, Note_on_c, 0, 41, 80
2, 170737, Note_on_c, 0, 53, 77
2, 170786, Note_off_c, 0, 41, 64
2, 170790, Note_off_c, 0, 53, 64
2, 170794, Control_c, 0, 64, 127
2, 170809, Note_off_c, 0, 69, 64
2, 170814, Note_off_c, 0, 81, 64
2, 170822, Note_off_c, 0, 74, 64
2, 170830, Note_off_c, 0, 77, 64
2, 170847, Control_c, 0, 64, 0
2, 171119, Note_on_c, 0, 71, 87
2, 171122, Note_on_c, 0, 62, 81
2, 171122, Note_on_c, 0, 65, 82
2, 171123, Note_on_c, 0, 43, 73
2, 171124, Note_on_c, 0, 67, 80
2, 171124, Note_on_c, 0, 55, 80
2, 171165, Note_off_c, 0, 55, 64
2, 171172, Note_off_c, 0, 43, 64
2, 171182, Note_off_c, 0, 62, 64
2, 171183, Control_c, 0, 64, 127
2, 171187, Note_off_c, 0, 65, 64
2, 171195, Note_off_c, 0, 71, 64
2, 171197, Note_off_c, 0, 67, 64
2, 171255, Control_c, 0, 64, 0
2, 171548, Note_on_c, 0, 72, 91
2, 171548, Note_on_c, 0, 60, 82
2, 171549, Note_on_c, 0, 64, 77
2, 171549, Note_on_c, 0, 67, 78
2, 171550, Note_on_c, 0, 36, 80
2, 171552, Note_on_c, 0, 48, 80
2, 171559, Note_on_c, 0, 40, 67
2, 171559, Note_on_c, 0, 43, 67
2, 171595, Control_c, 0, 64, 127
2, 171603, Note_off_c, 0, 48, 64
2, 171607, Note_off_c, 0, 36, 64
2, 171622, Note_off_c, 0, 43, 64
2, 171622, Note_off_c, 0, 40, 64
2, 171622, Note_off_c, 0, 64, 64
2, 171625, Note_off_c, 0, 60, 64
2, 171631, Note_off_c, 0, 67, 64
2, 171648, Note_off_c, 0, 72, 64
2, 171796, Control_c, 0, 64, 0
2, 173533, Control_c, 0, 120, 0
2, 173534, Control_c, 1, 120, 0
2, 173534, Control_c, 3, 120, 0
2, 173535, Control_c, 4, 120, 0
2, 173535, Control_c, 5, 120, 0
2, 173535, Control_c, 6, 120, 0
2, 173535, Control_c, 7, 120, 0
2, 173535, Control_c, 8, 120, 0
2, 173535, Control_c, 9, 120, 0
2, 173535, Control_c, 10, 120, 0
2, 173538, Control_c, 11, 120, 0
2, 173539, Control_c, 12, 120, 0
2, 173539, Control_c, 13, 120, 0
2, 173540, Control_c, 14, 120, 0
2, 173540, Control_c, 15, 120, 0
2, 173540, End_track
3, 0, Start_track
3, 0, Text_t, "Piano (Pedal)"
3, 505, Control_c, 2, 67, 16
3, 597, Control_c, 2, 67, 24
3, 642, Control_c, 2, 67, 32
3, 656, Control_c, 2, 67, 40
3, 670, Control_c, 2, 67, 48
3, 682, Control_c, 2, 67, 56
3, 699, Control_c, 2, 67, 64
3, 722, Control_c, 2, 67, 72
3, 735, Control_c, 2, 67, 80
3, 748, Control_c, 2, 67, 88
3, 759, Control_c, 2, 67, 96
3, 803, Control_c, 2, 67, 104
3, 1321, Control_c, 2, 64, 28
3, 1329, Control_c, 2, 64, 44
3, 1336, Control_c, 2, 64, 60
3, 1344, Control_c, 2, 64, 64
3, 1348, Control_c, 2, 64, 68
3, 1356, Control_c, 2, 64, 72
3, 1389, Control_c, 2, 64, 76
3, 1428, Control_c, 2, 64, 80
3, 1460, Control_c, 2, 64, 76
3, 1467, Control_c, 2, 64, 72
3, 1475, Control_c, 2, 64, 68
3, 1478, Control_c, 2, 64, 64
3, 1483, Control_c, 2, 64, 60
3, 1488, Control_c, 2, 64, 44
3, 1495, Control_c, 2, 64, 28
3, 1508, Control_c, 2, 64, 12
3, 1780, Control_c, 2, 64, 28
3, 1804, Control_c, 2, 64, 44
3, 1817, Control_c, 2, 64, 60
3, 1825, Control_c, 2, 64, 64
3, 1837, Control_c, 2, 64, 68
3, 1855, Control_c, 2, 64, 72
3, 1874, Control_c, 2, 64, 76
3, 1941, Control_c, 2, 64, 72
3, 1951, Control_c, 2, 64, 68
3, 1955, Control_c, 2, 64, 64
3, 1968, Control_c, 2, 64, 60
3, 1979, Control_c, 2, 64, 44
3, 2082, Control_c, 2, 64, 28
3, 2864, Control_c, 2, 64, 44
3, 2869, Control_c, 2, 64, 60
3, 2877, Control_c, 2, 64, 64
3, 2880, Control_c, 2, 64, 68
3, 2884, Control_c, 2, 64, 72
3, 2895, Control_c, 2, 64, 76
3, 2907, Control_c, 2, 64, 80
3, 2923, Control_c, 2, 64, 84
3, 2930, Control_c, 2, 64, 88
3, 2940, Control_c, 2, 64, 92
3, 2952, Control_c, 2, 64, 100
3, 3000, Control_c, 2, 64, 92
3, 3005, Control_c, 2, 64, 88
3, 3005, Control_c, 2, 64, 84
3, 3011, Control_c, 2, 64, 80
3, 3013, Control_c, 2, 64, 76
3, 3015, Control_c, 2, 64, 72
3, 3015, Control_c, 2, 64, 68
3, 3021, Control_c, 2, 64, 64
3, 3024, Control_c, 2, 64, 60
3, 3024, Control_c, 2, 64, 44
3, 3030, Control_c, 2, 64, 28
3, 3036, Control_c, 2, 64, 12
3, 3370, Control_c, 2, 64, 28
3, 3378, Control_c, 2, 64, 44
3, 3385, Control_c, 2, 64, 60
3, 3390, Control_c, 2, 64, 64
3, 3394, Control_c, 2, 64, 68
3, 3406, Control_c, 2, 64, 72
3, 3503, Control_c, 2, 64, 68
3, 3551, Control_c, 2, 64, 64
3, 3596, Control_c, 2, 64, 60
3, 3699, Control_c, 2, 64, 64
3, 3725, Control_c, 2, 64, 68
3, 3745, Control_c, 2, 64, 72
3, 3766, Control_c, 2, 64, 76
3, 3789, Control_c, 2, 64, 80
3, 3833, Control_c, 2, 64, 84
3, 3889, Control_c, 2, 64, 80
3, 3924, Control_c, 2, 64, 76
3, 3936, Control_c, 2, 64, 72
3, 3945, Control_c, 2, 64, 68
3, 3952, Control_c, 2, 64, 64
3, 3960, Control_c, 2, 64, 60
3, 3964, Control_c, 2, 64, 44
3, 3985, Control_c, 2, 64, 28
3, 4478, Control_c, 2, 64, 44
3, 4490, Control_c, 2, 64, 60
3, 4498, Control_c, 2, 64, 64
3, 4502, Control_c, 2, 64, 68
3, 4512, Control_c, 2, 64, 72
3, 4531, Control_c, 2, 64, 76
3, 4543, Control_c, 2, 64, 80
3, 4563, Control_c, 2, 64, 84
3, 4571, Control_c, 2, 64, 88
3, 4584, Control_c, 2, 64, 92
3, 4609, Control_c, 2, 64, 100
3, 4679, Control_c, 2, 64, 92
3, 4694, Control_c, 2, 64, 88
3, 4699, Control_c, 2, 64, 84
3, 4704, Control_c, 2, 64, 80
3, 4710, Control_c, 2, 64, 76
3, 4712, Control_c, 2, 64, 72
3, 4715, Control_c, 2, 64, 68
3, 4716, Control_c, 2, 64, 64
3, 4722, Control_c, 2, 64, 60
3, 4727, Control_c, 2, 64, 44
3, 4738, Control_c, 2, 64, 28
3, 6514, Control_c, 2, 67, 96
3, 6521, Control_c, 2, 67, 88
3, 6529, Control_c, 2, 67, 80
3, 6537, Control_c, 2, 67, 72
3, 6541, Control_c, 2, 67, 64
3, 6547, Control_c, 2, 67, 56
3, 6550, Control_c, 2, 67, 48
3, 6557, Control_c, 2, 67, 40
3, 6565, Control_c, 2, 67, 32
3, 6585, Control_c, 2, 67, 24
3, 6853, Control_c, 2, 64, 12
3, 6884, Control_c, 2, 67, 32
3, 7252, Control_c, 2, 64, 28
3, 7262, Control_c, 2, 64, 44
3, 7270, Control_c, 2, 64, 60
3, 7274, Control_c, 2, 64, 64
3, 7280, Control_c, 2, 64, 68
3, 7286, Control_c, 2, 64, 72
3, 7307, Control_c, 2, 64, 76
3, 7358, Control_c, 2, 64, 72
3, 7365, Control_c, 2, 64, 68
3, 7368, Control_c, 2, 64, 64
3, 7377, Control_c, 2, 64, 60
3, 7389, Control_c, 2, 64, 44
3, 7413, Control_c, 2, 64, 60
3, 7424, Control_c, 2, 64, 64
3, 7428, Control_c, 2, 64, 68
3, 7435, Control_c, 2, 64, 72
3, 7445, Control_c, 2, 64, 76
3, 7458, Control_c, 2, 64, 80
3, 7478, Control_c, 2, 64, 84
3, 7512, Control_c, 2, 64, 80
3, 7523, Control_c, 2, 64, 76
3, 7529, Control_c, 2, 64, 72
3, 7531, Control_c, 2, 64, 68
3, 7539, Control_c, 2, 64, 64
3, 7541, Control_c, 2, 64, 60
3, 7547, Control_c, 2, 64, 44
3, 7554, Control_c, 2, 64, 28
3, 7559, Control_c, 2, 64, 12
3, 7898, Control_c, 2, 64, 0
3, 7957, Control_c, 2, 64, 12
3, 7967, Control_c, 2, 64, 28
3, 7974, Control_c, 2, 64, 44
3, 7981, Control_c, 2, 64, 60
3, 7987, Control_c, 2, 64, 64
3, 7989, Control_c, 2, 64, 68
3, 7997, Control_c, 2, 64, 72
3, 8025, Control_c, 2, 64, 76
3, 8221, Control_c, 2, 64, 72
3, 8225, Control_c, 2, 64, 68
3, 8233, Control_c, 2, 64, 64
3, 8239, Control_c, 2, 64, 60
3, 8240, Control_c, 2, 64, 44
3, 8249, Control_c, 2, 64, 28
3, 8256, Control_c, 2, 64, 12
3, 8634, Control_c, 2, 64, 28
3, 8638, Control_c, 2, 64, 44
3, 8646, Control_c, 2, 64, 60
3, 8651, Control_c, 2, 64, 64
3, 8651, Control_c, 2, 64, 68
3, 8656, Control_c, 2, 64, 72
3, 8661, Control_c, 2, 64, 76
3, 8672, Control_c, 2, 64, 80
3, 8684, Control_c, 2, 64, 84
3, 8694, Control_c, 2, 64, 88
3, 8702, Control_c, 2, 64, 92
3, 8714, Control_c, 2, 64, 100
3, 8802, Control_c, 2, 64, 92
3, 8812, Control_c, 2, 64, 88
3, 8814, Control_c, 2, 64, 84
3, 8820, Control_c, 2, 64, 80
3, 8822, Control_c, 2, 64, 76
3, 8829, Control_c, 2, 64, 72
3, 8834, Control_c, 2, 64, 68
3, 8843, Control_c, 2, 64, 64
3, 8855, Control_c, 2, 64, 60
3, 8866, Control_c, 2, 64, 44
3, 8878, Control_c, 2, 64, 28
3, 8885, Control_c, 2, 64, 12
3, 8926, Control_c, 2, 64, 0
3, 9182, Control_c, 2, 67, 40
3, 9208, Control_c, 2, 67, 48
3, 9250, Control_c, 2, 67, 56
3, 9301, Control_c, 2, 67, 64
3, 11209, Control_c, 2, 64, 12
3, 11221, Control_c, 2, 64, 28
3, 11229, Control_c, 2, 64, 44
3, 11236, Control_c, 2, 64, 60
3, 11239, Control_c, 2, 64, 64
3, 11244, Control_c, 2, 64, 68
3, 11252, Control_c, 2, 64, 72
3, 11281, Control_c, 2, 64, 76
3, 11342, Control_c, 2, 64, 72
3, 11349, Control_c, 2, 64, 68
3, 11358, Control_c, 2, 64, 64
3, 11363, Control_c, 2, 64, 60
3, 11367, Control_c, 2, 64, 44
3, 11378, Control_c, 2, 64, 28
3, 11388, Control_c, 2, 64, 12
3, 11485, Control_c, 2, 67, 72
3, 11491, Control_c, 2, 64, 0
3, 11501, Control_c, 2, 67, 80
3, 11531, Control_c, 2, 67, 88
3, 12620, Control_c, 2, 64, 12
3, 12644, Control_c, 2, 64, 28
3, 12663, Control_c, 2, 64, 44
3, 12724, Control_c, 2, 64, 28
3, 12756, Control_c, 2, 67, 80
3, 12770, Control_c, 2, 64, 44
3, 12774, Control_c, 2, 64, 60
3, 12782, Control_c, 2, 64, 64
3, 12787, Control_c, 2, 64, 68
3, 12794, Control_c, 2, 64, 72
3, 12798, Control_c, 2, 67, 72
3, 12812, Control_c, 2, 67, 64
3, 12820, Control_c, 2, 67, 56
3, 12828, Control_c, 2, 67, 48
3, 12834, Control_c, 2, 67, 40
3, 12848, Control_c, 2, 67, 32
3, 12850, Control_c, 2, 64, 68
3, 12857, Control_c, 2, 64, 64
3, 12864, Control_c, 2, 64, 60
3, 12873, Control_c, 2, 64, 44
3, 12886, Control_c, 2, 64, 28
3, 12903, Control_c, 2, 64, 12
3, 12905, Control_c, 2, 67, 24
3, 12931, Control_c, 2, 67, 16
3, 12960, Control_c, 2, 67, 8
3, 13056, Control_c, 2, 67, 0
3, 13160, Control_c, 2, 64, 28
3, 13172, Control_c, 2, 64, 44
3, 13182, Control_c, 2, 64, 60
3, 13187, Control_c, 2, 64, 64
3, 13197, Control_c, 2, 64, 68
3, 13273, Control_c, 2, 64, 72
3, 13439, Control_c, 2, 64, 68
3, 13507, Control_c, 2, 64, 64
3, 13577, Control_c, 2, 64, 60
3, 13752, Control_c, 2, 64, 64
3, 13771, Control_c, 2, 64, 68
3, 13799, Control_c, 2, 64, 72
3, 13880, Control_c, 2, 64, 68
3, 13894, Control_c, 2, 64, 64
3, 13995, Control_c, 2, 64, 60
3, 14061, Control_c, 2, 64, 44
3, 14071, Control_c, 2, 64, 28
3, 14076, Control_c, 2, 64, 12
3, 14475, Control_c, 2, 64, 28
3, 14480, Control_c, 2, 64, 44
3, 14484, Control_c, 2, 64, 60
3, 14485, Control_c, 2, 64, 64
3, 14488, Control_c, 2, 64, 68
3, 14491, Control_c, 2, 64, 72
3, 14494, Control_c, 2, 64, 76
3, 14498, Control_c, 2, 64, 80
3, 14514, Control_c, 2, 64, 84
3, 14523, Control_c, 2, 64, 88
3, 14532, Control_c, 2, 64, 92
3, 14539, Control_c, 2, 64, 100
3, 14549, Control_c, 2, 64, 112
3, 14562, Control_c, 2, 64, 127
3, 14625, Control_c, 2, 64, 112
3, 14632, Control_c, 2, 64, 100
3, 14638, Control_c, 2, 64, 92
3, 14639, Control_c, 2, 64, 88
3, 14642, Control_c, 2, 64, 84
3, 14645, Control_c, 2, 64, 80
3, 14645, Control_c, 2, 64, 76
3, 14648, Control_c, 2, 64, 68
3, 14649, Control_c, 2, 64, 64
3, 14652, Control_c, 2, 64, 60
3, 14652, Control_c, 2, 64, 44
3, 14659, Control_c, 2, 64, 28
3, 14664, Control_c, 2, 64, 12
3, 14690, Control_c, 2, 67, 8
3, 14775, Control_c, 2, 67, 16
3, 14864, Control_c, 2, 64, 0
3, 14931, Control_c, 2, 67, 24
3, 14975, Control_c, 2, 67, 32
3, 14979, Control_c, 2, 64, 12
3, 14988, Control_c, 2, 67, 40
3, 14992, Control_c, 2, 64, 28
3, 15000, Control_c, 2, 67, 48
3, 15002, Control_c, 2, 64, 44
3, 15012, Control_c, 2, 64, 60
3, 15014, Control_c, 2, 64, 64
3, 15014, Control_c, 2, 67, 56
3, 15020, Control_c, 2, 64, 68
3, 15027, Control_c, 2, 64, 72
3, 15031, Control_c, 2, 67, 64
3, 15049, Control_c, 2, 64, 76
3, 15050, Control_c, 2, 67, 72
3, 15063, Control_c, 2, 67, 80
3, 15078, Control_c, 2, 64, 80
3, 15078, Control_c, 2, 67, 88
3, 15093, Control_c, 2, 67, 96
3, 15121, Control_c, 2, 64, 84
3, 15125, Control_c, 2, 67, 104
3, 15191, Control_c, 2, 64, 88
3, 15217, Control_c, 2, 67, 112
3, 15231, Control_c, 2, 64, 84
3, 15251, Control_c, 2, 64, 80
3, 15258, Control_c, 2, 64, 76
3, 15266, Control_c, 2, 64, 72
3, 15274, Control_c, 2, 64, 68
3, 15282, Control_c, 2, 64, 64
3, 15288, Control_c, 2, 64, 60
3, 15297, Control_c, 2, 64, 44
3, 15312, Control_c, 2, 64, 28
3, 15327, Control_c, 2, 64, 12
3, 15379, Control_c, 2, 64, 0
3, 15949, Control_c, 2, 64, 12
3, 16860, Control_c, 2, 64, 28
3, 16867, Control_c, 2, 64, 44
3, 16874, Control_c, 2, 64, 60
3, 16883, Control_c, 2, 64, 64
3, 16887, Control_c, 2, 64, 68
3, 16913, Control_c, 2, 64, 72
3, 16963, Control_c, 2, 64, 68
3, 16973, Control_c, 2, 64, 64
3, 16984, Control_c, 2, 64, 60
3, 16990, Control_c, 2, 64, 44
3, 17000, Control_c, 2, 64, 28
3, 17013, Control_c, 2, 64, 12
3, 17114, Control_c, 2, 64, 28
3, 17126, Control_c, 2, 64, 44
3, 17134, Control_c, 2, 64, 60
3, 17136, Control_c, 2, 64, 64
3, 17142, Control_c, 2, 64, 68
3, 17149, Control_c, 2, 64, 72
3, 17164, Control_c, 2, 64, 76
3, 17182, Control_c, 2, 64, 80
3, 17281, Control_c, 2, 64, 76
3, 17287, Control_c, 2, 64, 72
3, 17295, Control_c, 2, 64, 68
3, 17297, Control_c, 2, 64, 64
3, 17308, Control_c, 2, 64, 60
3, 17313, Control_c, 2, 64, 44
3, 17323, Control_c, 2, 64, 28
3, 17333, Control_c, 2, 64, 12
3, 17428, Control_c, 2, 64, 28
3, 17438, Control_c, 2, 64, 44
3, 17443, Control_c, 2, 64, 60
3, 17446, Control_c, 2, 64, 64
3, 17451, Control_c, 2, 64, 68
3, 17454, Control_c, 2, 64, 72
3, 17461, Control_c, 2, 64, 76
3, 17494, Control_c, 2, 64, 80
3, 17628, Control_c, 2, 64, 76
3, 17682, Control_c, 2, 64, 72
3, 17701, Control_c, 2, 64, 68
3, 17708, Control_c, 2, 64, 64
3, 17716, Control_c, 2, 64, 60
3, 17724, Control_c, 2, 64, 44
3, 17730, Control_c, 2, 64, 28
3, 17740, Control_c, 2, 64, 12
3, 17829, Control_c, 2, 64, 28
3, 17838, Control_c, 2, 64, 44
3, 17846, Control_c, 2, 64, 60
3, 17849, Control_c, 2, 64, 64
3, 17854, Control_c, 2, 64, 68
3, 17862, Control_c, 2, 64, 72
3, 17868, Control_c, 2, 64, 76
3, 17874, Control_c, 2, 67, 104
3, 17891, Control_c, 2, 64, 80
3, 17908, Control_c, 2, 64, 84
3, 17922, Control_c, 2, 67, 96
3, 17925, Control_c, 2, 64, 88
3, 17935, Control_c, 2, 64, 92
3, 18131, Control_c, 2, 64, 88
3, 18136, Control_c, 2, 64, 84
3, 18144, Control_c, 2, 64, 80
3, 18145, Control_c, 2, 64, 76
3, 18151, Control_c, 2, 64, 72
3, 18156, Control_c, 2, 64, 68
3, 18159, Control_c, 2, 64, 64
3, 18164, Control_c, 2, 64, 60
3, 18169, Control_c, 2, 64, 44
3, 18176, Control_c, 2, 64, 28
3, 18188, Control_c, 2, 64, 12
3, 18295, Control_c, 2, 67, 104
3, 18335, Control_c, 2, 67, 112
3, 18378, Control_c, 2, 67, 127
3, 20162, Control_c, 2, 64, 28
3, 20174, Control_c, 2, 64, 44
3, 20180, Control_c, 2, 64, 60
3, 20185, Control_c, 2, 64, 64
3, 20190, Control_c, 2, 64, 68
3, 20199, Control_c, 2, 64, 72
3, 20225, Control_c, 2, 64, 76
3, 20248, Control_c, 2, 64, 80
3, 20455, Control_c, 2, 64, 76
3, 20490, Control_c, 2, 64, 72
3, 20501, Control_c, 2, 64, 68
3, 20510, Control_c, 2, 64, 64
3, 20528, Control_c, 2, 64, 60
3, 20572, Control_c, 2, 64, 64
3, 20585, Control_c, 2, 64, 68
3, 20600, Control_c, 2, 64, 72
3, 20626, Control_c, 2, 64, 76
3, 20642, Control_c, 2, 64, 80
3, 20671, Control_c, 2, 64, 84
3, 20704, Control_c, 2, 64, 88
3, 20772, Control_c, 2, 64, 92
3, 21142, Control_c, 2, 64, 88
3, 21147, Control_c, 2, 64, 84
3, 21158, Control_c, 2, 64, 80
3, 21165, Control_c, 2, 64, 76
3, 21169, Control_c, 2, 64, 72
3, 21174, Control_c, 2, 64, 68
3, 21177, Control_c, 2, 64, 64
3, 21182, Control_c, 2, 64, 60
3, 21187, Control_c, 2, 64, 44
3, 21194, Control_c, 2, 64, 28
3, 21202, Control_c, 2, 64, 12
3, 21216, Control_c, 2, 64, 0
3, 21282, Control_c, 2, 64, 12
3, 21300, Control_c, 2, 64, 28
3, 21312, Control_c, 2, 64, 44
3, 21320, Control_c, 2, 64, 60
3, 21328, Control_c, 2, 64, 64
3, 21330, Control_c, 2, 64, 68
3, 21340, Control_c, 2, 64, 72
3, 21371, Control_c, 2, 64, 76
3, 21395, Control_c, 2, 64, 80
3, 21423, Control_c, 2, 64, 84
3, 21452, Control_c, 2, 64, 88
3, 21467, Control_c, 2, 64, 92
3, 21492, Control_c, 2, 64, 100
3, 21685, Control_c, 2, 64, 92
3, 21691, Control_c, 2, 64, 88
3, 21691, Control_c, 2, 64, 84
3, 21696, Control_c, 2, 64, 80
3, 21696, Control_c, 2, 64, 76
3, 21697, Control_c, 2, 64, 72
3, 21703, Control_c, 2, 64, 68
3, 21704, Control_c, 2, 64, 64
3, 21708, Control_c, 2, 64, 60
3, 21710, Control_c, 2, 64, 44
3, 21718, Control_c, 2, 64, 28
3, 21723, Control_c, 2, 64, 12
3, 22308, Control_c, 2, 64, 28
3, 22321, Control_c, 2, 64, 44
3, 22332, Control_c, 2, 64, 60
3, 22335, Control_c, 2, 64, 64
3, 22342, Control_c, 2, 64, 68
3, 22488, Control_c, 2, 64, 64
3, 22496, Control_c, 2, 64, 60
3, 22503, Control_c, 2, 64, 44
3, 22513, Control_c, 2, 64, 28
3, 22528, Control_c, 2, 64, 12
3, 22539, Control_c, 2, 67, 112
3, 22558, Control_c, 2, 67, 104
3, 22569, Control_c, 2, 64, 28
3, 22569, Control_c, 2, 67, 96
3, 22579, Control_c, 2, 64, 44
3, 22580, Control_c, 2, 67, 88
3, 22586, Control_c, 2, 64, 60
3, 22586, Control_c, 2, 67, 80
3, 22589, Control_c, 2, 64, 64
3, 22594, Control_c, 2, 64, 68
3, 22595, Control_c, 2, 67, 72
3, 22596, Control_c, 2, 64, 72
3, 22601, Control_c, 2, 67, 64
3, 22605, Control_c, 2, 67, 56
3, 22608, Control_c, 2, 64, 76
3, 22609, Control_c, 2, 67, 48
3, 22617, Control_c, 2, 67, 40
3, 22655, Control_c, 2, 67, 48
3, 22660, Control_c, 2, 64, 72
3, 22664, Control_c, 2, 64, 68
3, 22669, Control_c, 2, 64, 64
3, 22675, Control_c, 2, 64, 60
3, 22675, Control_c, 2, 67, 56
3, 22680, Control_c, 2, 64, 44
3, 22692, Control_c, 2, 64, 28
3, 22693, Control_c, 2, 67, 64
3, 22720, Control_c, 2, 67, 72
3, 22744, Control_c, 2, 64, 44
3, 22758, Control_c, 2, 64, 60
3, 22768, Control_c, 2, 64, 64
3, 22787, Control_c, 2, 67, 80
3, 22807, Control_c, 2, 64, 60
3, 22825, Control_c, 2, 64, 44
3, 22856, Control_c, 2, 64, 60
3, 22870, Control_c, 2, 64, 64
3, 22888, Control_c, 2, 64, 68
3, 22916, Control_c, 2, 64, 72
3, 22967, Control_c, 2, 64, 76
3, 23011, Control_c, 2, 67, 88
3, 23185, Control_c, 2, 64, 72
3, 23213, Control_c, 2, 64, 68
3, 23226, Control_c, 2, 64, 64
3, 23233, Control_c, 2, 64, 60
3, 23244, Control_c, 2, 64, 44
3, 23250, Control_c, 2, 64, 28
3, 23256, Control_c, 2, 64, 12
3, 23260, Control_c, 2, 64, 0
3, 23372, Control_c, 2, 67, 96
3, 23396, Control_c, 2, 64, 12
3, 23414, Control_c, 2, 67, 104
3, 23422, Control_c, 2, 64, 28
3, 23439, Control_c, 2, 64, 44
3, 23450, Control_c, 2, 64, 60
3, 23454, Control_c, 2, 64, 64
3, 23464, Control_c, 2, 64, 68
3, 23464, Control_c, 2, 67, 112
3, 23487, Control_c, 2, 64, 72
3, 23518, Control_c, 2, 64, 76
3, 23533, Control_c, 2, 67, 127
3, 23566, Control_c, 2, 64, 80
3, 23599, Control_c, 2, 64, 84
3, 23613, Control_c, 2, 64, 88
3, 23623, Control_c, 2, 64, 92
3, 23639, Control_c, 2, 64, 100
3, 24016, Control_c, 2, 64, 92
3, 24072, Control_c, 2, 64, 88
3, 24080, Control_c, 2, 64, 84
3, 24091, Control_c, 2, 64, 80
3, 24096, Control_c, 2, 64, 76
3, 24104, Control_c, 2, 64, 72
3, 24109, Control_c, 2, 64, 68
3, 24116, Control_c, 2, 64, 64
3, 24122, Control_c, 2, 64, 60
3, 24126, Control_c, 2, 64, 44
3, 24140, Control_c, 2, 64, 28
3, 24150, Control_c, 2, 64, 12
3, 24827, Control_c, 2, 64, 28
3, 24852, Control_c, 2, 64, 44
3, 24864, Control_c, 2, 64, 60
3, 24875, Control_c, 2, 64, 64
3, 24885, Control_c, 2, 64, 68
3, 24910, Control_c, 2, 64, 72
3, 24940, Control_c, 2, 64, 76
3, 24975, Control_c, 2, 64, 80
3, 25008, Control_c, 2, 64, 84
3, 25028, Control_c, 2, 64, 88
3, 25054, Control_c, 2, 64, 92
3, 25277, Control_c, 2, 64, 88
3, 25279, Control_c, 2, 64, 84
3, 25361, Control_c, 2, 64, 80
3, 25403, Control_c, 2, 64, 76
3, 25414, Control_c, 2, 64, 72
3, 25421, Control_c, 2, 64, 68
3, 25425, Control_c, 2, 64, 64
3, 25432, Control_c, 2, 64, 60
3, 25438, Control_c, 2, 64, 44
3, 25451, Control_c, 2, 64, 28
3, 25518, Control_c, 2, 64, 44
3, 25524, Control_c, 2, 64, 60
3, 25527, Control_c, 2, 64, 64
3, 25532, Control_c, 2, 64, 68
3, 25534, Control_c, 2, 64, 72
3, 25544, Control_c, 2, 64, 76
3, 25567, Control_c, 2, 64, 80
3, 25611, Control_c, 2, 64, 76
3, 25619, Control_c, 2, 64, 72
3, 25627, Control_c, 2, 64, 68
3, 25635, Control_c, 2, 64, 64
3, 25647, Control_c, 2, 64, 60
3, 25725, Control_c, 2, 64, 64
3, 25746, Control_c, 2, 64, 68
3, 25780, Control_c, 2, 64, 72
3, 25813, Control_c, 2, 64, 76
3, 25847, Control_c, 2, 64, 80
3, 26103, Control_c, 2, 64, 76
3, 26125, Control_c, 2, 64, 72
3, 26148, Control_c, 2, 64, 68
3, 26158, Control_c, 2, 64, 64
3, 26168, Control_c, 2, 64, 60
3, 26179, Control_c, 2, 64, 44
3, 26327, Control_c, 2, 64, 60
3, 26342, Control_c, 2, 64, 64
3, 26354, Control_c, 2, 64, 68
3, 26374, Control_c, 2, 64, 72
3, 26397, Control_c, 2, 64, 76
3, 26430, Control_c, 2, 64, 80
3, 26463, Control_c, 2, 64, 84
3, 26529, Control_c, 2, 64, 88
3, 26684, Control_c, 2, 64, 92
3, 26858, Control_c, 2, 64, 88
3, 26900, Control_c, 2, 64, 84
3, 26926, Control_c, 2, 64, 80
3, 26953, Control_c, 2, 64, 76
3, 26977, Control_c, 2, 64, 72
3, 26991, Control_c, 2, 64, 68
3, 26999, Control_c, 2, 64, 64
3, 27017, Control_c, 2, 64, 60
3, 27042, Control_c, 2, 64, 44
3, 27580, Control_c, 2, 64, 28
3, 27665, Control_c, 2, 64, 44
3, 27674, Control_c, 2, 64, 60
3, 27679, Control_c, 2, 64, 64
3, 27684, Control_c, 2, 64, 68
3, 27694, Control_c, 2, 64, 72
3, 27733, Control_c, 2, 64, 76
3, 27766, Control_c, 2, 64, 72
3, 27776, Control_c, 2, 64, 68
3, 27782, Control_c, 2, 64, 64
3, 27792, Control_c, 2, 64, 60
3, 27802, Control_c, 2, 64, 44
3, 27830, Control_c, 2, 64, 28
3, 27932, Control_c, 2, 64, 12
3, 28368, Control_c, 2, 64, 28
3, 28373, Control_c, 2, 67, 112
3, 28381, Control_c, 2, 64, 44
3, 28391, Control_c, 2, 64, 60
3, 28395, Control_c, 2, 64, 64
3, 28404, Control_c, 2, 67, 104
3, 28409, Control_c, 2, 64, 68
3, 28416, Control_c, 2, 67, 96
3, 28428, Control_c, 2, 67, 88
3, 28438, Control_c, 2, 67, 80
3, 28448, Control_c, 2, 67, 72
3, 28458, Control_c, 2, 67, 64
3, 28467, Control_c, 2, 67, 56
3, 28474, Control_c, 2, 67, 48
3, 28522, Control_c, 2, 67, 56
3, 28575, Control_c, 2, 67, 64
3, 28585, Control_c, 2, 64, 64
3, 28592, Control_c, 2, 64, 60
3, 28600, Control_c, 2, 64, 44
3, 28600, Control_c, 2, 67, 72
3, 28610, Control_c, 2, 64, 28
3, 28620, Control_c, 2, 64, 12
3, 28644, Control_c, 2, 67, 80
3, 28698, Control_c, 2, 67, 88
3, 28705, Control_c, 2, 64, 28
3, 28715, Control_c, 2, 64, 44
3, 28726, Control_c, 2, 64, 60
3, 28728, Control_c, 2, 64, 64
3, 28739, Control_c, 2, 64, 68
3, 28788, Control_c, 2, 64, 64
3, 28799, Control_c, 2, 64, 60
3, 28808, Control_c, 2, 64, 44
3, 28827, Control_c, 2, 64, 28
3, 28892, Control_c, 2, 64, 12
3, 29035, Control_c, 2, 64, 28
3, 29043, Control_c, 2, 64, 44
3, 29051, Control_c, 2, 64, 60
3, 29056, Control_c, 2, 64, 64
3, 29057, Control_c, 2, 64, 68
3, 29063, Control_c, 2, 64, 72
3, 29081, Control_c, 2, 64, 76
3, 29096, Control_c, 2, 64, 80
3, 29114, Control_c, 2, 64, 84
3, 29125, Control_c, 2, 64, 88
3, 29134, Control_c, 2, 64, 92
3, 29154, Control_c, 2, 64, 100
3, 29255, Control_c, 2, 64, 92
3, 29261, Control_c, 2, 64, 88
3, 29265, Control_c, 2, 64, 84
3, 29267, Control_c, 2, 64, 80
3, 29271, Control_c, 2, 64, 76
3, 29275, Control_c, 2, 64, 72
3, 29280, Control_c, 2, 64, 68
3, 29280, Control_c, 2, 64, 64
3, 29284, Control_c, 2, 64, 60
3, 29287, Control_c, 2, 64, 44
3, 29294, Control_c, 2, 64, 28
3, 29300, Control_c, 2, 64, 12
3, 30507, Control_c, 2, 64, 28
3, 30516, Control_c, 2, 64, 44
3, 30519, Control_c, 2, 64, 60
3, 30524, Control_c, 2, 64, 64
3, 30526, Control_c, 2, 64, 68
3, 30528, Control_c, 2, 64, 72
3, 30533, Control_c, 2, 64, 76
3, 30558, Control_c, 2, 67, 96
3, 30563, Control_c, 2, 64, 80
3, 30621, Control_c, 2, 64, 76
3, 30629, Control_c, 2, 64, 72
3, 30636, Control_c, 2, 64, 68
3, 30642, Control_c, 2, 64, 64
3, 30647, Control_c, 2, 64, 60
3, 30651, Control_c, 2, 64, 44
3, 30659, Control_c, 2, 64, 28
3, 30666, Control_c, 2, 64, 12
3, 30676, Control_c, 2, 64, 0
3, 30817, Control_c, 2, 67, 104
3, 30892, Control_c, 2, 67, 112
3, 31104, Control_c, 2, 64, 12
3, 31119, Control_c, 2, 64, 28
3, 31127, Control_c, 2, 64, 44
3, 31132, Control_c, 2, 64, 60
3, 31137, Control_c, 2, 64, 64
3, 31142, Control_c, 2, 64, 68
3, 31147, Control_c, 2, 64, 72
3, 31185, Control_c, 2, 64, 76
3, 31288, Control_c, 2, 64, 72
3, 31298, Control_c, 2, 64, 68
3, 31308, Control_c, 2, 64, 64
3, 31318, Control_c, 2, 64, 60
3, 31325, Control_c, 2, 64, 44
3, 31333, Control_c, 2, 64, 28
3, 31341, Control_c, 2, 64, 12
3, 31353, Control_c, 2, 64, 0
3, 31778, Control_c, 2, 64, 12
3, 31794, Control_c, 2, 64, 28
3, 31804, Control_c, 2, 64, 44
3, 31809, Control_c, 2, 64, 60
3, 31813, Control_c, 2, 64, 64
3, 31817, Control_c, 2, 64, 68
3, 31822, Control_c, 2, 64, 72
3, 31833, Control_c, 2, 64, 76
3, 31849, Control_c, 2, 64, 80
3, 31867, Control_c, 2, 64, 84
3, 31879, Control_c, 2, 64, 88
3, 31892, Control_c, 2, 64, 92
3, 31998, Control_c, 2, 64, 88
3, 32003, Control_c, 2, 64, 84
3, 32008, Control_c, 2, 64, 80
3, 32011, Control_c, 2, 64, 76
3, 32015, Control_c, 2, 64, 72
3, 32021, Control_c, 2, 64, 68
3, 32024, Control_c, 2, 64, 64
3, 32025, Control_c, 2, 64, 60
3, 32028, Control_c, 2, 64, 44
3, 32036, Control_c, 2, 64, 28
3, 32043, Control_c, 2, 64, 12
3, 32071, Control_c, 2, 64, 0
3, 33166, Control_c, 2, 67, 104
3, 33189, Control_c, 2, 67, 96
3, 33189, Control_c, 2, 64, 12
3, 33199, Control_c, 2, 64, 28
3, 33206, Control_c, 2, 64, 44
3, 33207, Control_c, 2, 67, 88
3, 33211, Control_c, 2, 64, 60
3, 33216, Control_c, 2, 64, 64
3, 33219, Control_c, 2, 64, 68
3, 33223, Control_c, 2, 64, 72
3, 33233, Control_c, 2, 67, 80
3, 33254, Control_c, 2, 64, 76
3, 33372, Control_c, 2, 67, 88
3, 33407, Control_c, 2, 64, 72
3, 33426, Control_c, 2, 64, 68
3, 33453, Control_c, 2, 64, 72
3, 33478, Control_c, 2, 64, 76
3, 33500, Control_c, 2, 64, 80
3, 33533, Control_c, 2, 64, 84
3, 33569, Control_c, 2, 64, 80
3, 33581, Control_c, 2, 64, 76
3, 33587, Control_c, 2, 64, 72
3, 33593, Control_c, 2, 64, 68
3, 33599, Control_c, 2, 64, 64
3, 33607, Control_c, 2, 64, 60
3, 33617, Control_c, 2, 64, 44
3, 33656, Control_c, 2, 64, 60
3, 33666, Control_c, 2, 64, 64
3, 33675, Control_c, 2, 64, 68
3, 33684, Control_c, 2, 64, 72
3, 33707, Control_c, 2, 64, 76
3, 33765, Control_c, 2, 64, 72
3, 33772, Control_c, 2, 64, 68
3, 33780, Control_c, 2, 64, 64
3, 33785, Control_c, 2, 64, 60
3, 33791, Control_c, 2, 64, 44
3, 33800, Control_c, 2, 64, 28
3, 33810, Control_c, 2, 64, 12
3, 33936, Control_c, 2, 64, 28
3, 33943, Control_c, 2, 64, 44
3, 33948, Control_c, 2, 64, 60
3, 33956, Control_c, 2, 64, 64
3, 33959, Control_c, 2, 64, 68
3, 33964, Control_c, 2, 64, 72
3, 33976, Control_c, 2, 64, 76
3, 34007, Control_c, 2, 64, 80
3, 34113, Control_c, 2, 64, 76
3, 34241, Control_c, 2, 64, 72
3, 34248, Control_c, 2, 64, 68
3, 34253, Control_c, 2, 64, 64
3, 34259, Control_c, 2, 64, 60
3, 34264, Control_c, 2, 64, 44
3, 34274, Control_c, 2, 64, 28
3, 34284, Control_c, 2, 64, 12
3, 34285, Control_c, 2, 67, 96
3, 34318, Control_c, 2, 64, 28
3, 34326, Control_c, 2, 64, 44
3, 34332, Control_c, 2, 64, 60
3, 34332, Control_c, 2, 64, 64
3, 34336, Control_c, 2, 64, 68
3, 34339, Control_c, 2, 64, 72
3, 34345, Control_c, 2, 64, 76
3, 34346, Control_c, 2, 64, 80
3, 34356, Control_c, 2, 64, 84
3, 34366, Control_c, 2, 64, 88
3, 34375, Control_c, 2, 64, 92
3, 34387, Control_c, 2, 64, 100
3, 34424, Control_c, 2, 64, 92
3, 34428, Control_c, 2, 64, 88
3, 34429, Control_c, 2, 64, 84
3, 34432, Control_c, 2, 64, 80
3, 34433, Control_c, 2, 64, 76
3, 34437, Control_c, 2, 64, 72
3, 34439, Control_c, 2, 64, 68
3, 34439, Control_c, 2, 64, 64
3, 34445, Control_c, 2, 64, 60
3, 34447, Control_c, 2, 64, 44
3, 34455, Control_c, 2, 64, 28
3, 34502, Control_c, 2, 64, 12
3, 34621, Control_c, 2, 64, 28
3, 34631, Control_c, 2, 64, 44
3, 34635, Control_c, 2, 64, 60
3, 34641, Control_c, 2, 64, 64
3, 34643, Control_c, 2, 64, 68
3, 34649, Control_c, 2, 67, 104
3, 34651, Control_c, 2, 64, 72
3, 34664, Control_c, 2, 64, 76
3, 34695, Control_c, 2, 64, 80
3, 34782, Control_c, 2, 64, 76
3, 34817, Control_c, 2, 64, 72
3, 34931, Control_c, 2, 64, 68
3, 34956, Control_c, 2, 64, 64
3, 35114, Control_c, 2, 64, 60
3, 35124, Control_c, 2, 64, 44
3, 35139, Control_c, 2, 64, 28
3, 35167, Control_c, 2, 64, 12
3, 35295, Control_c, 2, 64, 28
3, 35315, Control_c, 2, 64, 44
3, 35324, Control_c, 2, 64, 60
3, 35330, Control_c, 2, 64, 64
3, 35344, Control_c, 2, 64, 68
3, 35528, Control_c, 2, 64, 64
3, 35580, Control_c, 2, 64, 60
3, 35598, Control_c, 2, 64, 44
3, 35640, Control_c, 2, 64, 28
3, 35740, Control_c, 2, 64, 44
3, 35840, Control_c, 2, 64, 28
3, 35859, Control_c, 2, 64, 12
3, 36416, Control_c, 2, 67, 96
3, 36446, Control_c, 2, 67, 88
3, 36476, Control_c, 2, 67, 80
3, 36491, Control_c, 2, 67, 72
3, 36501, Control_c, 2, 67, 64
3, 36511, Control_c, 2, 67, 56
3, 36521, Control_c, 2, 67, 48
3, 36541, Control_c, 2, 67, 40
3, 36605, Control_c, 2, 67, 32
3, 36657, Control_c, 2, 67, 24
3, 36686, Control_c, 2, 67, 16
3, 36723, Control_c, 2, 67, 8
3, 36745, Control_c, 2, 64, 28
3, 36756, Control_c, 2, 64, 44
3, 36760, Control_c, 2, 64, 60
3, 36766, Control_c, 2, 64, 64
3, 36768, Control_c, 2, 64, 68
3, 36773, Control_c, 2, 64, 72
3, 36780, Control_c, 2, 64, 76
3, 36798, Control_c, 2, 64, 80
3, 36814, Control_c, 2, 64, 84
3, 36821, Control_c, 2, 64, 88
3, 36828, Control_c, 2, 64, 92
3, 36849, Control_c, 2, 64, 100
3, 36871, Control_c, 2, 64, 92
3, 36877, Control_c, 2, 64, 88
3, 36879, Control_c, 2, 64, 84
3, 36883, Control_c, 2, 64, 80
3, 36884, Control_c, 2, 64, 76
3, 36889, Control_c, 2, 64, 72
3, 36889, Control_c, 2, 64, 68
3, 36893, Control_c, 2, 64, 64
3, 36897, Control_c, 2, 64, 60
3, 36899, Control_c, 2, 64, 44
3, 36911, Control_c, 2, 64, 28
3, 36942, Control_c, 2, 64, 12
3, 37417, Control_c, 2, 64, 28
3, 37433, Control_c, 2, 64, 44
3, 37435, Control_c, 2, 67, 16
3, 37443, Control_c, 2, 64, 60
3, 37453, Control_c, 2, 64, 64
3, 37458, Control_c, 2, 64, 68
3, 37470, Control_c, 2, 64, 72
3, 37492, Control_c, 2, 64, 76
3, 37524, Control_c, 2, 64, 80
3, 37543, Control_c, 2, 67, 24
3, 37551, Control_c, 2, 64, 84
3, 37668, Control_c, 2, 64, 80
3, 37689, Control_c, 2, 64, 76
3, 37709, Control_c, 2, 64, 72
3, 37722, Control_c, 2, 64, 68
3, 37735, Control_c, 2, 64, 64
3, 37745, Control_c, 2, 64, 60
3, 37758, Control_c, 2, 64, 44
3, 37780, Control_c, 2, 64, 28
3, 37798, Control_c, 2, 64, 12
3, 37840, Control_c, 2, 64, 0
3, 37924, Control_c, 2, 67, 32
3, 37984, Control_c, 2, 67, 40
3, 37998, Control_c, 2, 64, 12
3, 38012, Control_c, 2, 64, 28
3, 38018, Control_c, 2, 64, 44
3, 38027, Control_c, 2, 64, 60
3, 38028, Control_c, 2, 67, 48
3, 38028, Control_c, 2, 64, 64
3, 38034, Control_c, 2, 64, 68
3, 38036, Control_c, 2, 64, 72
3, 38050, Control_c, 2, 64, 76
3, 38064, Control_c, 2, 67, 56
3, 38069, Control_c, 2, 64, 80
3, 38088, Control_c, 2, 64, 84
3, 38102, Control_c, 2, 64, 88
3, 38105, Control_c, 2, 67, 64
3, 38120, Control_c, 2, 64, 92
3, 38228, Control_c, 2, 64, 88
3, 38228, Control_c, 2, 64, 84
3, 38233, Control_c, 2, 64, 80
3, 38235, Control_c, 2, 64, 76
3, 38241, Control_c, 2, 64, 72
3, 38243, Control_c, 2, 64, 68
3, 38245, Control_c, 2, 64, 64
3, 38251, Control_c, 2, 64, 60
3, 38253, Control_c, 2, 67, 72
3, 38256, Control_c, 2, 64, 44
3, 38273, Control_c, 2, 67, 80
3, 38318, Control_c, 2, 64, 60
3, 38318, Control_c, 2, 67, 88
3, 38324, Control_c, 2, 64, 64
3, 38328, Control_c, 2, 64, 68
3, 38334, Control_c, 2, 64, 72
3, 38348, Control_c, 2, 64, 76
3, 38366, Control_c, 2, 64, 80
3, 38386, Control_c, 2, 67, 96
3, 38431, Control_c, 2, 64, 84
3, 38485, Control_c, 2, 64, 88
3, 38500, Control_c, 2, 64, 92
3, 38553, Control_c, 2, 64, 100
3, 38598, Control_c, 2, 64, 92
3, 38605, Control_c, 2, 64, 88
3, 38606, Control_c, 2, 64, 84
3, 38611, Control_c, 2, 64, 80
3, 38614, Control_c, 2, 64, 76
3, 38615, Control_c, 2, 64, 72
3, 38617, Control_c, 2, 64, 68
3, 38621, Control_c, 2, 64, 64
3, 38625, Control_c, 2, 64, 60
3, 38631, Control_c, 2, 64, 44
3, 38638, Control_c, 2, 64, 28
3, 39013, Control_c, 2, 64, 44
3, 39025, Control_c, 2, 64, 60
3, 39036, Control_c, 2, 64, 64
3, 39046, Control_c, 2, 67, 88
3, 39048, Control_c, 2, 64, 68
3, 39074, Control_c, 2, 64, 72
3, 39129, Control_c, 2, 67, 80
3, 39134, Control_c, 2, 64, 76
3, 39147, Control_c, 2, 67, 72
3, 39160, Control_c, 2, 67, 64
3, 39168, Control_c, 2, 67, 56
3, 39171, Control_c, 2, 67, 48
3, 39181, Control_c, 2, 67, 40
3, 39188, Control_c, 2, 64, 80
3, 39194, Control_c, 2, 67, 32
3, 39273, Control_c, 2, 67, 24
3, 39283, Control_c, 2, 64, 76
3, 39290, Control_c, 2, 64, 72
3, 39290, Control_c, 2, 67, 16
3, 39293, Control_c, 2, 64, 68
3, 39296, Control_c, 2, 64, 64
3, 39300, Control_c, 2, 64, 60
3, 39307, Control_c, 2, 64, 44
3, 39316, Control_c, 2, 64, 28
3, 39316, Control_c, 2, 67, 8
3, 39323, Control_c, 2, 64, 12
3, 39404, Control_c, 2, 67, 0
3, 39532, Control_c, 2, 64, 28
3, 39542, Control_c, 2, 64, 44
3, 39550, Control_c, 2, 64, 60
3, 39553, Control_c, 2, 64, 64
3, 39554, Control_c, 2, 64, 68
3, 39560, Control_c, 2, 64, 72
3, 39564, Control_c, 2, 64, 76
3, 39573, Control_c, 2, 64, 80
3, 39588, Control_c, 2, 64, 84
3, 39595, Control_c, 2, 64, 88
3, 39600, Control_c, 2, 64, 92
3, 39607, Control_c, 2, 64, 100
3, 39623, Control_c, 2, 64, 112
3, 39645, Control_c, 2, 64, 127
3, 39666, Control_c, 2, 64, 112
3, 39681, Control_c, 2, 64, 100
3, 39691, Control_c, 2, 64, 92
3, 39693, Control_c, 2, 64, 88
3, 39694, Control_c, 2, 64, 84
3, 39696, Control_c, 2, 64, 80
3, 39697, Control_c, 2, 64, 76
3, 39703, Control_c, 2, 64, 72
3, 39704, Control_c, 2, 64, 68
3, 39709, Control_c, 2, 64, 64
3, 39711, Control_c, 2, 64, 60
3, 39716, Control_c, 2, 64, 44
3, 39735, Control_c, 2, 64, 28
3, 39898, Control_c, 2, 64, 12
3, 39918, Control_c, 2, 64, 0
3, 39987, Control_c, 2, 64, 12
3, 39997, Control_c, 2, 64, 28
3, 40007, Control_c, 2, 64, 44
3, 40017, Control_c, 2, 64, 60
3, 40024, Control_c, 2, 64, 64
3, 40091, Control_c, 2, 64, 60
3, 40118, Control_c, 2, 64, 44
3, 40221, Control_c, 2, 64, 60
3, 40248, Control_c, 2, 64, 64
3, 40268, Control_c, 2, 64, 68
3, 40284, Control_c, 2, 64, 72
3, 40308, Control_c, 2, 64, 76
3, 40347, Control_c, 2, 64, 80
3, 40458, Control_c, 2, 64, 84
3, 40474, Control_c, 2, 64, 88
3, 40480, Control_c, 2, 64, 92
3, 40490, Control_c, 2, 64, 100
3, 40505, Control_c, 2, 64, 112
3, 40517, Control_c, 2, 64, 127
3, 40710, Control_c, 2, 64, 112
3, 40719, Control_c, 2, 64, 100
3, 40730, Control_c, 2, 64, 92
3, 40737, Control_c, 2, 64, 88
3, 40737, Control_c, 2, 64, 84
3, 40741, Control_c, 2, 64, 80
3, 40744, Control_c, 2, 64, 76
3, 40747, Control_c, 2, 64, 72
3, 40750, Control_c, 2, 64, 68
3, 40754, Control_c, 2, 64, 64
3, 40760, Control_c, 2, 64, 60
3, 40764, Control_c, 2, 64, 44
3, 40785, Control_c, 2, 64, 28
3, 40795, Control_c, 2, 64, 12
3, 41041, Control_c, 2, 64, 28
3, 41051, Control_c, 2, 64, 44
3, 41061, Control_c, 2, 64, 60
3, 41068, Control_c, 2, 64, 64
3, 41071, Control_c, 2, 64, 68
3, 41076, Control_c, 2, 64, 72
3, 41097, Control_c, 2, 64, 76
3, 41115, Control_c, 2, 64, 80
3, 41133, Control_c, 2, 64, 84
3, 41140, Control_c, 2, 64, 88
3, 41148, Control_c, 2, 64, 92
3, 41157, Control_c, 2, 64, 100
3, 41168, Control_c, 2, 64, 112
3, 41175, Control_c, 2, 64, 127
3, 41387, Control_c, 2, 64, 112
3, 41391, Control_c, 2, 64, 100
3, 41396, Control_c, 2, 64, 92
3, 41396, Control_c, 2, 64, 88
3, 41398, Control_c, 2, 67, 8
3, 41399, Control_c, 2, 64, 84
3, 41402, Control_c, 2, 64, 80
3, 41403, Control_c, 2, 64, 76
3, 41403, Control_c, 2, 64, 72
3, 41407, Control_c, 2, 64, 68
3, 41408, Control_c, 2, 64, 64
3, 41409, Control_c, 2, 64, 60
3, 41411, Control_c, 2, 64, 44
3, 41424, Control_c, 2, 64, 28
3, 41460, Control_c, 2, 67, 16
3, 41517, Control_c, 2, 67, 24
3, 41653, Control_c, 2, 67, 32
3, 41675, Control_c, 2, 67, 40
3, 41719, Control_c, 2, 67, 48
3, 41771, Control_c, 2, 67, 56
3, 41830, Control_c, 2, 64, 12
3, 41893, Control_c, 2, 67, 64
3, 42036, Control_c, 2, 67, 72
3, 42074, Control_c, 2, 67, 80
3, 42121, Control_c, 2, 67, 88
3, 42180, Control_c, 2, 67, 96
3, 42222, Control_c, 2, 64, 28
3, 42230, Control_c, 2, 64, 44
3, 42235, Control_c, 2, 64, 60
3, 42237, Control_c, 2, 64, 64
3, 42239, Control_c, 2, 64, 68
3, 42242, Control_c, 2, 64, 72
3, 42251, Control_c, 2, 64, 76
3, 42265, Control_c, 2, 64, 80
3, 42280, Control_c, 2, 64, 84
3, 42287, Control_c, 2, 64, 88
3, 42295, Control_c, 2, 64, 92
3, 42303, Control_c, 2, 64, 100
3, 42325, Control_c, 2, 64, 112
3, 42372, Control_c, 2, 64, 100
3, 42380, Control_c, 2, 64, 92
3, 42386, Control_c, 2, 64, 88
3, 42386, Control_c, 2, 64, 84
3, 42390, Control_c, 2, 64, 80
3, 42390, Control_c, 2, 64, 76
3, 42396, Control_c, 2, 64, 72
3, 42398, Control_c, 2, 64, 68
3, 42436, Control_c, 2, 64, 72
3, 42450, Control_c, 2, 64, 76
3, 42459, Control_c, 2, 64, 80
3, 42468, Control_c, 2, 64, 84
3, 42474, Control_c, 2, 64, 88
3, 42482, Control_c, 2, 64, 92
3, 42493, Control_c, 2, 64, 100
3, 42525, Control_c, 2, 64, 112
3, 42575, Control_c, 2, 64, 100
3, 42597, Control_c, 2, 64, 92
3, 42605, Control_c, 2, 64, 88
3, 42607, Control_c, 2, 64, 84
3, 42612, Control_c, 2, 64, 80
3, 42617, Control_c, 2, 64, 76
3, 42625, Control_c, 2, 64, 72
3, 42629, Control_c, 2, 64, 68
3, 42636, Control_c, 2, 64, 64
3, 42646, Control_c, 2, 64, 60
3, 42653, Control_c, 2, 64, 44
3, 42662, Control_c, 2, 64, 28
3, 42670, Control_c, 2, 64, 12
3, 42681, Control_c, 2, 64, 0
3, 42795, Control_c, 2, 64, 12
3, 42805, Control_c, 2, 64, 28
3, 42814, Control_c, 2, 64, 44
3, 42819, Control_c, 2, 64, 60
3, 42821, Control_c, 2, 64, 64
3, 42823, Control_c, 2, 64, 68
3, 42829, Control_c, 2, 64, 72
3, 42831, Control_c, 2, 64, 76
3, 42839, Control_c, 2, 64, 80
3, 42866, Control_c, 2, 64, 84
3, 42882, Control_c, 2, 64, 88
3, 42894, Control_c, 2, 64, 92
3, 42972, Control_c, 2, 64, 88
3, 43000, Control_c, 2, 64, 84
3, 43048, Control_c, 2, 64, 80
3, 43066, Control_c, 2, 64, 76
3, 43080, Control_c, 2, 64, 72
3, 43093, Control_c, 2, 64, 68
3, 43101, Control_c, 2, 64, 64
3, 43108, Control_c, 2, 64, 60
3, 43115, Control_c, 2, 64, 44
3, 43194, Control_c, 2, 64, 60
3, 43201, Control_c, 2, 64, 64
3, 43208, Control_c, 2, 64, 68
3, 43218, Control_c, 2, 64, 72
3, 43231, Control_c, 2, 64, 76
3, 43241, Control_c, 2, 64, 80
3, 43255, Control_c, 2, 64, 84
3, 43260, Control_c, 2, 64, 88
3, 43264, Control_c, 2, 64, 92
3, 43274, Control_c, 2, 64, 100
3, 43292, Control_c, 2, 64, 112
3, 43363, Control_c, 2, 64, 100
3, 43382, Control_c, 2, 64, 92
3, 43390, Control_c, 2, 64, 88
3, 43392, Control_c, 2, 64, 84
3, 43398, Control_c, 2, 64, 80
3, 43403, Control_c, 2, 64, 76
3, 43403, Control_c, 2, 64, 72
3, 43408, Control_c, 2, 64, 68
3, 43413, Control_c, 2, 64, 64
3, 43413, Control_c, 2, 64, 60
3, 43418, Control_c, 2, 64, 44
3, 43425, Control_c, 2, 64, 28
3, 43433, Control_c, 2, 64, 12
3, 43481, Control_c, 2, 67, 104
3, 43521, Control_c, 2, 67, 112
3, 44266, Control_c, 2, 64, 28
3, 44277, Control_c, 2, 64, 44
3, 44283, Control_c, 2, 64, 60
3, 44289, Control_c, 2, 64, 64
3, 44292, Control_c, 2, 64, 68
3, 44298, Control_c, 2, 64, 72
3, 44327, Control_c, 2, 64, 76
3, 44360, Control_c, 2, 64, 80
3, 44568, Control_c, 2, 64, 76
3, 44581, Control_c, 2, 64, 72
3, 44588, Control_c, 2, 64, 68
3, 44599, Control_c, 2, 64, 64
3, 44651, Control_c, 2, 64, 68
3, 44661, Control_c, 2, 64, 72
3, 44673, Control_c, 2, 64, 76
3, 44687, Control_c, 2, 64, 80
3, 44702, Control_c, 2, 64, 84
3, 44711, Control_c, 2, 64, 88
3, 44722, Control_c, 2, 64, 92
3, 44737, Control_c, 2, 64, 100
3, 44832, Control_c, 2, 64, 92
3, 44853, Control_c, 2, 64, 88
3, 44855, Control_c, 2, 64, 84
3, 44865, Control_c, 2, 64, 80
3, 44871, Control_c, 2, 64, 76
3, 44877, Control_c, 2, 64, 72
3, 44880, Control_c, 2, 64, 68
3, 44887, Control_c, 2, 64, 64
3, 44892, Control_c, 2, 64, 60
3, 44898, Control_c, 2, 64, 44
3, 44908, Control_c, 2, 64, 28
3, 44923, Control_c, 2, 64, 12
3, 45706, Control_c, 2, 64, 28
3, 45719, Control_c, 2, 64, 44
3, 45726, Control_c, 2, 64, 60
3, 45732, Control_c, 2, 64, 64
3, 45733, Control_c, 2, 64, 68
3, 45741, Control_c, 2, 64, 72
3, 45761, Control_c, 2, 64, 76
3, 45774, Control_c, 2, 64, 80
3, 45788, Control_c, 2, 64, 84
3, 45804, Control_c, 2, 64, 88
3, 45814, Control_c, 2, 64, 92
3, 45834, Control_c, 2, 64, 100
3, 45935, Control_c, 2, 64, 92
3, 45962, Control_c, 2, 64, 88
3, 45972, Control_c, 2, 64, 84
3, 45985, Control_c, 2, 64, 80
3, 45995, Control_c, 2, 64, 76
3, 46005, Control_c, 2, 64, 72
3, 46012, Control_c, 2, 64, 68
3, 46018, Control_c, 2, 64, 64
3, 46022, Control_c, 2, 64, 60
3, 46031, Control_c, 2, 64, 44
3, 46039, Control_c, 2, 64, 28
3, 46048, Control_c, 2, 64, 12
3, 46123, Control_c, 2, 64, 28
3, 46133, Control_c, 2, 64, 44
3, 46139, Control_c, 2, 64, 60
3, 46141, Control_c, 2, 64, 64
3, 46147, Control_c, 2, 64, 68
3, 46149, Control_c, 2, 64, 72
3, 46154, Control_c, 2, 64, 76
3, 46168, Control_c, 2, 64, 80
3, 46187, Control_c, 2, 64, 84
3, 46194, Control_c, 2, 64, 88
3, 46201, Control_c, 2, 64, 92
3, 46212, Control_c, 2, 64, 100
3, 46230, Control_c, 2, 64, 112
3, 46277, Control_c, 2, 64, 100
3, 46295, Control_c, 2, 64, 92
3, 46302, Control_c, 2, 64, 88
3, 46305, Control_c, 2, 64, 84
3, 46313, Control_c, 2, 64, 80
3, 46315, Control_c, 2, 64, 76
3, 46320, Control_c, 2, 64, 72
3, 46320, Control_c, 2, 64, 68
3, 46325, Control_c, 2, 64, 64
3, 46328, Control_c, 2, 64, 60
3, 46330, Control_c, 2, 64, 44
3, 46341, Control_c, 2, 64, 28
3, 46356, Control_c, 2, 64, 12
3, 46455, Control_c, 2, 64, 28
3, 46469, Control_c, 2, 64, 44
3, 46474, Control_c, 2, 64, 60
3, 46479, Control_c, 2, 64, 64
3, 46481, Control_c, 2, 64, 68
3, 46486, Control_c, 2, 64, 72
3, 46497, Control_c, 2, 64, 76
3, 46524, Control_c, 2, 64, 80
3, 46680, Control_c, 2, 64, 84
3, 46771, Control_c, 2, 64, 80
3, 46783, Control_c, 2, 64, 76
3, 46790, Control_c, 2, 64, 72
3, 46801, Control_c, 2, 64, 68
3, 46805, Control_c, 2, 64, 64
3, 46811, Control_c, 2, 64, 60
3, 46818, Control_c, 2, 64, 44
3, 46892, Control_c, 2, 64, 60
3, 46898, Control_c, 2, 64, 64
3, 46907, Control_c, 2, 64, 68
3, 46919, Control_c, 2, 64, 72
3, 46937, Control_c, 2, 64, 76
3, 46949, Control_c, 2, 64, 80
3, 46964, Control_c, 2, 64, 84
3, 46977, Control_c, 2, 64, 88
3, 46987, Control_c, 2, 64, 92
3, 47004, Control_c, 2, 64, 100
3, 47098, Control_c, 2, 64, 92
3, 47111, Control_c, 2, 64, 88
3, 47113, Control_c, 2, 64, 84
3, 47115, Control_c, 2, 64, 80
3, 47123, Control_c, 2, 64, 76
3, 47123, Control_c, 2, 64, 72
3, 47127, Control_c, 2, 64, 68
3, 47130, Control_c, 2, 64, 64
3, 47136, Control_c, 2, 64, 60
3, 47137, Control_c, 2, 64, 44
3, 47145, Control_c, 2, 64, 28
3, 47198, Control_c, 2, 64, 44
3, 47206, Control_c, 2, 64, 60
3, 47210, Control_c, 2, 64, 64
3, 47214, Control_c, 2, 64, 68
3, 47216, Control_c, 2, 64, 72
3, 47220, Control_c, 2, 64, 76
3, 47242, Control_c, 2, 64, 80
3, 47267, Control_c, 2, 64, 84
3, 47322, Control_c, 2, 64, 80
3, 47335, Control_c, 2, 64, 76
3, 47341, Control_c, 2, 64, 72
3, 47347, Control_c, 2, 64, 68
3, 47350, Control_c, 2, 64, 64
3, 47357, Control_c, 2, 64, 60
3, 47360, Control_c, 2, 64, 44
3, 47370, Control_c, 2, 64, 28
3, 47380, Control_c, 2, 64, 12
3, 47423, Control_c, 2, 64, 28
3, 47433, Control_c, 2, 64, 44
3, 47438, Control_c, 2, 64, 60
3, 47440, Control_c, 2, 64, 64
3, 47446, Control_c, 2, 64, 68
3, 47449, Control_c, 2, 64, 72
3, 47546, Control_c, 2, 64, 68
3, 47556, Control_c, 2, 64, 64
3, 47576, Control_c, 2, 64, 60
3, 47591, Control_c, 2, 64, 44
3, 48304, Control_c, 2, 64, 60
3, 48312, Control_c, 2, 64, 64
3, 48319, Control_c, 2, 64, 68
3, 48332, Control_c, 2, 64, 72
3, 48357, Control_c, 2, 64, 76
3, 48462, Control_c, 2, 64, 72
3, 48484, Control_c, 2, 64, 68
3, 48497, Control_c, 2, 64, 64
3, 48513, Control_c, 2, 64, 60
3, 48519, Control_c, 2, 64, 44
3, 48529, Control_c, 2, 64, 28
3, 48538, Control_c, 2, 64, 12
3, 48545, Control_c, 2, 64, 0
3, 48636, Control_c, 2, 64, 12
3, 48651, Control_c, 2, 64, 28
3, 48659, Control_c, 2, 64, 44
3, 48666, Control_c, 2, 64, 60
3, 48671, Control_c, 2, 64, 64
3, 48673, Control_c, 2, 64, 68
3, 48679, Control_c, 2, 64, 72
3, 48686, Control_c, 2, 64, 76
3, 48701, Control_c, 2, 64, 80
3, 48707, Control_c, 2, 67, 104
3, 48722, Control_c, 2, 64, 84
3, 48732, Control_c, 2, 64, 88
3, 48739, Control_c, 2, 64, 92
3, 48749, Control_c, 2, 67, 96
3, 48752, Control_c, 2, 64, 100
3, 48769, Control_c, 2, 64, 112
3, 48776, Control_c, 2, 67, 88
3, 48867, Control_c, 2, 64, 100
3, 48913, Control_c, 2, 64, 92
3, 48942, Control_c, 2, 64, 88
3, 48958, Control_c, 2, 64, 84
3, 48985, Control_c, 2, 64, 80
3, 49008, Control_c, 2, 64, 76
3, 49026, Control_c, 2, 64, 72
3, 49043, Control_c, 2, 64, 68
3, 49056, Control_c, 2, 64, 64
3, 49071, Control_c, 2, 64, 60
3, 49079, Control_c, 2, 64, 44
3, 49094, Control_c, 2, 64, 28
3, 49104, Control_c, 2, 64, 12
3, 49175, Control_c, 2, 67, 96
3, 49235, Control_c, 2, 67, 104
3, 49260, Control_c, 2, 67, 112
3, 49316, Control_c, 2, 67, 127
3, 49472, Control_c, 2, 64, 0
3, 49801, Control_c, 2, 64, 12
3, 49823, Control_c, 2, 64, 28
3, 49830, Control_c, 2, 64, 44
3, 49835, Control_c, 2, 64, 60
3, 49839, Control_c, 2, 64, 64
3, 49842, Control_c, 2, 64, 68
3, 49849, Control_c, 2, 64, 72
3, 49862, Control_c, 2, 64, 76
3, 49883, Control_c, 2, 64, 80
3, 49906, Control_c, 2, 64, 84
3, 49938, Control_c, 2, 64, 88
3, 49973, Control_c, 2, 64, 84
3, 49989, Control_c, 2, 64, 80
3, 49996, Control_c, 2, 64, 76
3, 49998, Control_c, 2, 64, 72
3, 50004, Control_c, 2, 64, 68
3, 50006, Control_c, 2, 64, 64
3, 50010, Control_c, 2, 64, 60
3, 50014, Control_c, 2, 64, 44
3, 50020, Control_c, 2, 64, 28
3, 50029, Control_c, 2, 64, 12
3, 50300, Control_c, 2, 64, 28
3, 50316, Control_c, 2, 64, 44
3, 50323, Control_c, 2, 64, 60
3, 50328, Control_c, 2, 64, 64
3, 50336, Control_c, 2, 64, 68
3, 50352, Control_c, 2, 64, 72
3, 50383, Control_c, 2, 64, 76
3, 50505, Control_c, 2, 64, 72
3, 50532, Control_c, 2, 64, 68
3, 50552, Control_c, 2, 64, 64
3, 50561, Control_c, 2, 64, 60
3, 50569, Control_c, 2, 64, 44
3, 50585, Control_c, 2, 64, 28
3, 50959, Control_c, 2, 64, 12
3, 51378, Control_c, 2, 64, 28
3, 51388, Control_c, 2, 64, 44
3, 51392, Control_c, 2, 64, 60
3, 51396, Control_c, 2, 64, 64
3, 51398, Control_c, 2, 64, 68
3, 51401, Control_c, 2, 64, 72
3, 51405, Control_c, 2, 64, 76
3, 51419, Control_c, 2, 64, 80
3, 51435, Control_c, 2, 64, 84
3, 51444, Control_c, 2, 64, 88
3, 51454, Control_c, 2, 64, 92
3, 51471, Control_c, 2, 64, 100
3, 51509, Control_c, 2, 64, 92
3, 51519, Control_c, 2, 64, 88
3, 51520, Control_c, 2, 64, 84
3, 51523, Control_c, 2, 64, 80
3, 51526, Control_c, 2, 64, 76
3, 51531, Control_c, 2, 64, 72
3, 51533, Control_c, 2, 64, 68
3, 51533, Control_c, 2, 64, 64
3, 51536, Control_c, 2, 64, 60
3, 51541, Control_c, 2, 64, 44
3, 51548, Control_c, 2, 64, 28
3, 51558, Control_c, 2, 64, 12
3, 51672, Control_c, 2, 64, 0
3, 51861, Control_c, 2, 64, 12
3, 51868, Control_c, 2, 64, 28
3, 51876, Control_c, 2, 64, 44
3, 51881, Control_c, 2, 64, 60
3, 51884, Control_c, 2, 64, 64
3, 51888, Control_c, 2, 64, 68
3, 51891, Control_c, 2, 64, 72
3, 51898, Control_c, 2, 64, 76
3, 52032, Control_c, 2, 64, 72
3, 52055, Control_c, 2, 64, 68
3, 52064, Control_c, 2, 64, 64
3, 52078, Control_c, 2, 64, 60
3, 52084, Control_c, 2, 64, 44
3, 52097, Control_c, 2, 64, 28
3, 52110, Control_c, 2, 64, 12
3, 52165, Control_c, 2, 67, 112
3, 52203, Control_c, 2, 64, 28
3, 52213, Control_c, 2, 64, 44
3, 52221, Control_c, 2, 64, 60
3, 52224, Control_c, 2, 64, 64
3, 52229, Control_c, 2, 64, 68
3, 52236, Control_c, 2, 64, 72
3, 52260, Control_c, 2, 64, 76
3, 52272, Control_c, 2, 67, 104
3, 52279, Control_c, 2, 64, 80
3, 52299, Control_c, 2, 67, 96
3, 52305, Control_c, 2, 64, 84
3, 52312, Control_c, 2, 67, 88
3, 52327, Control_c, 2, 67, 80
3, 52337, Control_c, 2, 67, 72
3, 52347, Control_c, 2, 67, 64
3, 52355, Control_c, 2, 67, 56
3, 52360, Control_c, 2, 67, 48
3, 52387, Control_c, 2, 64, 80
3, 52397, Control_c, 2, 64, 76
3, 52404, Control_c, 2, 64, 72
3, 52410, Control_c, 2, 64, 68
3, 52414, Control_c, 2, 64, 64
3, 52422, Control_c, 2, 64, 60
3, 52430, Control_c, 2, 64, 44
3, 52442, Control_c, 2, 64, 28
3, 52447, Control_c, 2, 67, 56
3, 52458, Control_c, 2, 64, 12
3, 52516, Control_c, 2, 67, 64
3, 52658, Control_c, 2, 67, 72
3, 52926, Control_c, 2, 64, 28
3, 52939, Control_c, 2, 64, 44
3, 52948, Control_c, 2, 64, 60
3, 52953, Control_c, 2, 64, 64
3, 52956, Control_c, 2, 64, 68
3, 52963, Control_c, 2, 64, 72
3, 52976, Control_c, 2, 64, 76
3, 52988, Control_c, 2, 64, 80
3, 53004, Control_c, 2, 64, 84
3, 53011, Control_c, 2, 64, 88
3, 53019, Control_c, 2, 64, 92
3, 53029, Control_c, 2, 64, 100
3, 53033, Control_c, 2, 67, 80
3, 53043, Control_c, 2, 64, 112
3, 53140, Control_c, 2, 64, 100
3, 53155, Control_c, 2, 64, 92
3, 53160, Control_c, 2, 64, 88
3, 53162, Control_c, 2, 64, 84
3, 53166, Control_c, 2, 64, 80
3, 53170, Control_c, 2, 64, 76
3, 53174, Control_c, 2, 64, 72
3, 53175, Control_c, 2, 64, 68
3, 53177, Control_c, 2, 64, 64
3, 53180, Control_c, 2, 64, 60
3, 53183, Control_c, 2, 64, 44
3, 53190, Control_c, 2, 67, 88
3, 53190, Control_c, 2, 64, 28
3, 53227, Control_c, 2, 64, 12
3, 53268, Control_c, 2, 67, 96
3, 53417, Control_c, 2, 67, 104
3, 53753, Control_c, 2, 64, 28
3, 53763, Control_c, 2, 64, 44
3, 53774, Control_c, 2, 64, 60
3, 53779, Control_c, 2, 64, 64
3, 53784, Control_c, 2, 64, 68
3, 53792, Control_c, 2, 64, 72
3, 53832, Control_c, 2, 64, 76
3, 53872, Control_c, 2, 64, 72
3, 53882, Control_c, 2, 64, 68
3, 53889, Control_c, 2, 64, 64
3, 53899, Control_c, 2, 64, 60
3, 53909, Control_c, 2, 64, 44
3, 53980, Control_c, 2, 64, 60
3, 53992, Control_c, 2, 64, 64
3, 54023, Control_c, 2, 64, 68
3, 54046, Control_c, 2, 64, 72
3, 54069, Control_c, 2, 64, 76
3, 54099, Control_c, 2, 64, 80
3, 54228, Control_c, 2, 64, 76
3, 54238, Control_c, 2, 64, 72
3, 54245, Control_c, 2, 64, 68
3, 54252, Control_c, 2, 64, 64
3, 54260, Control_c, 2, 64, 60
3, 54267, Control_c, 2, 64, 44
3, 54285, Control_c, 2, 64, 28
3, 54391, Control_c, 2, 64, 44
3, 54400, Control_c, 2, 64, 60
3, 54408, Control_c, 2, 64, 64
3, 54418, Control_c, 2, 64, 68
3, 54434, Control_c, 2, 64, 72
3, 54451, Control_c, 2, 64, 76
3, 54473, Control_c, 2, 64, 80
3, 54625, Control_c, 2, 64, 76
3, 54645, Control_c, 2, 64, 72
3, 54653, Control_c, 2, 64, 68
3, 54658, Control_c, 2, 64, 64
3, 54665, Control_c, 2, 64, 60
3, 54672, Control_c, 2, 64, 44
3, 54688, Control_c, 2, 64, 28
3, 54716, Control_c, 2, 64, 12
3, 54960, Control_c, 2, 67, 96
3, 54984, Control_c, 2, 67, 88
3, 55005, Control_c, 2, 67, 80
3, 55025, Control_c, 2, 67, 72
3, 55042, Control_c, 2, 67, 64
3, 55055, Control_c, 2, 67, 56
3, 55065, Control_c, 2, 67, 48
3, 55159, Control_c, 2, 67, 40
3, 55297, Control_c, 2, 67, 32
3, 55692, Control_c, 2, 64, 28
3, 55697, Control_c, 2, 64, 44
3, 55704, Control_c, 2, 64, 60
3, 55707, Control_c, 2, 64, 64
3, 55710, Control_c, 2, 64, 68
3, 55714, Control_c, 2, 64, 72
3, 55720, Control_c, 2, 64, 76
3, 55734, Control_c, 2, 64, 80
3, 55746, Control_c, 2, 64, 84
3, 55760, Control_c, 2, 64, 88
3, 55782, Control_c, 2, 64, 84
3, 55788, Control_c, 2, 64, 80
3, 55793, Control_c, 2, 64, 76
3, 55793, Control_c, 2, 64, 72
3, 55800, Control_c, 2, 64, 68
3, 55803, Control_c, 2, 64, 64
3, 55806, Control_c, 2, 64, 60
3, 55807, Control_c, 2, 64, 44
3, 55815, Control_c, 2, 64, 28
3, 55824, Control_c, 2, 64, 12
3, 55870, Control_c, 2, 64, 28
3, 55878, Control_c, 2, 64, 44
3, 55886, Control_c, 2, 64, 60
3, 55894, Control_c, 2, 64, 64
3, 55902, Control_c, 2, 64, 68
3, 55946, Control_c, 2, 64, 64
3, 55954, Control_c, 2, 64, 60
3, 55962, Control_c, 2, 64, 44
3, 55969, Control_c, 2, 64, 28
3, 55980, Control_c, 2, 64, 12
3, 55991, Control_c, 2, 64, 0
3, 56183, Control_c, 2, 64, 12
3, 56329, Control_c, 2, 64, 0
3, 56388, Control_c, 2, 64, 12
3, 56404, Control_c, 2, 64, 28
3, 56414, Control_c, 2, 64, 44
3, 56423, Control_c, 2, 64, 60
3, 56425, Control_c, 2, 64, 64
3, 56433, Control_c, 2, 64, 68
3, 56440, Control_c, 2, 64, 72
3, 56477, Control_c, 2, 64, 76
3, 56586, Control_c, 2, 64, 72
3, 56617, Control_c, 2, 64, 68
3, 56624, Control_c, 2, 64, 64
3, 56630, Control_c, 2, 64, 60
3, 56639, Control_c, 2, 64, 44
3, 56649, Control_c, 2, 64, 28
3, 56663, Control_c, 2, 64, 12
3, 56988, Control_c, 2, 64, 0
3, 57079, Control_c, 2, 64, 12
3, 57092, Control_c, 2, 64, 28
3, 57096, Control_c, 2, 64, 44
3, 57102, Control_c, 2, 64, 60
3, 57106, Control_c, 2, 64, 64
3, 57112, Control_c, 2, 64, 68
3, 57116, Control_c, 2, 64, 72
3, 57126, Control_c, 2, 64, 76
3, 57146, Control_c, 2, 64, 80
3, 57205, Control_c, 2, 64, 76
3, 57216, Control_c, 2, 64, 72
3, 57219, Control_c, 2, 64, 68
3, 57222, Control_c, 2, 64, 64
3, 57229, Control_c, 2, 64, 60
3, 57237, Control_c, 2, 64, 44
3, 57253, Control_c, 2, 64, 28
3, 57271, Control_c, 2, 64, 12
3, 57346, Control_c, 2, 64, 0
3, 57509, Control_c, 2, 64, 12
3, 57522, Control_c, 2, 64, 28
3, 57532, Control_c, 2, 64, 44
3, 57542, Control_c, 2, 64, 60
3, 57548, Control_c, 2, 64, 64
3, 57552, Control_c, 2, 64, 68
3, 57658, Control_c, 2, 64, 64
3, 57668, Control_c, 2, 64, 60
3, 57670, Control_c, 2, 67, 40
3, 57676, Control_c, 2, 64, 44
3, 57690, Control_c, 2, 64, 28
3, 57690, Control_c, 2, 67, 48
3, 57698, Control_c, 2, 64, 12
3, 57703, Control_c, 2, 67, 56
3, 57718, Control_c, 2, 64, 0
3, 57720, Control_c, 2, 67, 64
3, 57744, Control_c, 2, 67, 72
3, 57794, Control_c, 2, 64, 12
3, 57809, Control_c, 2, 64, 28
3, 57818, Control_c, 2, 64, 44
3, 57824, Control_c, 2, 64, 60
3, 57827, Control_c, 2, 64, 64
3, 57834, Control_c, 2, 64, 68
3, 57839, Control_c, 2, 64, 72
3, 57887, Control_c, 2, 64, 76
3, 57962, Control_c, 2, 64, 72
3, 57971, Control_c, 2, 64, 68
3, 57978, Control_c, 2, 64, 64
3, 57989, Control_c, 2, 64, 60
3, 57992, Control_c, 2, 64, 44
3, 58002, Control_c, 2, 64, 28
3, 58010, Control_c, 2, 64, 12
3, 58061, Control_c, 2, 64, 0
3, 58524, Control_c, 2, 64, 12
3, 58538, Control_c, 2, 64, 28
3, 58548, Control_c, 2, 64, 44
3, 58554, Control_c, 2, 64, 60
3, 58559, Control_c, 2, 64, 64
3, 58567, Control_c, 2, 64, 68
3, 58657, Control_c, 2, 64, 64
3, 58667, Control_c, 2, 64, 60
3, 58674, Control_c, 2, 64, 44
3, 58693, Control_c, 2, 64, 28
3, 58720, Control_c, 2, 64, 12
3, 59533, Control_c, 2, 64, 0
3, 59636, Control_c, 2, 64, 12
3, 59648, Control_c, 2, 64, 28
3, 59653, Control_c, 2, 64, 44
3, 59658, Control_c, 2, 64, 60
3, 59662, Control_c, 2, 64, 64
3, 59664, Control_c, 2, 64, 68
3, 59669, Control_c, 2, 64, 72
3, 59677, Control_c, 2, 64, 76
3, 59702, Control_c, 2, 64, 80
3, 59717, Control_c, 2, 67, 64
3, 59775, Control_c, 2, 64, 76
3, 59783, Control_c, 2, 64, 72
3, 59784, Control_c, 2, 64, 68
3, 59790, Control_c, 2, 64, 64
3, 59798, Control_c, 2, 64, 60
3, 59803, Control_c, 2, 64, 44
3, 59810, Control_c, 2, 64, 28
3, 59818, Control_c, 2, 64, 12
3, 61073, Control_c, 2, 64, 28
3, 61175, Control_c, 2, 64, 12
3, 61212, Control_c, 2, 64, 28
3, 61224, Control_c, 2, 64, 44
3, 61230, Control_c, 2, 64, 60
3, 61238, Control_c, 2, 64, 64
3, 61240, Control_c, 2, 64, 68
3, 61246, Control_c, 2, 67, 56
3, 61250, Control_c, 2, 64, 72
3, 61260, Control_c, 2, 67, 48
3, 61280, Control_c, 2, 67, 40
3, 61288, Control_c, 2, 64, 68
3, 61296, Control_c, 2, 64, 64
3, 61304, Control_c, 2, 64, 60
3, 61311, Control_c, 2, 67, 32
3, 61312, Control_c, 2, 64, 44
3, 61333, Control_c, 2, 64, 28
3, 61364, Control_c, 2, 67, 24
3, 61401, Control_c, 2, 67, 16
3, 61468, Control_c, 2, 67, 8
3, 61500, Control_c, 2, 64, 12
3, 61539, Control_c, 2, 67, 0
3, 61582, Control_c, 2, 64, 28
3, 61592, Control_c, 2, 64, 44
3, 61599, Control_c, 2, 64, 60
3, 61605, Control_c, 2, 64, 64
3, 61609, Control_c, 2, 64, 68
3, 61632, Control_c, 2, 64, 72
3, 61854, Control_c, 2, 64, 68
3, 62184, Control_c, 2, 64, 72
3, 62202, Control_c, 2, 64, 76
3, 62231, Control_c, 2, 64, 80
3, 62338, Control_c, 2, 64, 76
3, 62342, Control_c, 2, 64, 72
3, 62348, Control_c, 2, 64, 68
3, 62352, Control_c, 2, 64, 64
3, 62358, Control_c, 2, 64, 60
3, 62361, Control_c, 2, 64, 44
3, 62375, Control_c, 2, 64, 28
3, 62541, Control_c, 2, 64, 12
3, 62929, Control_c, 2, 64, 28
3, 62933, Control_c, 2, 64, 44
3, 62939, Control_c, 2, 64, 60
3, 62939, Control_c, 2, 64, 64
3, 62943, Control_c, 2, 64, 68
3, 62946, Control_c, 2, 64, 72
3, 62949, Control_c, 2, 64, 76
3, 62953, Control_c, 2, 64, 80
3, 62962, Control_c, 2, 64, 84
3, 62972, Control_c, 2, 64, 88
3, 62982, Control_c, 2, 64, 92
3, 62992, Control_c, 2, 64, 100
3, 63004, Control_c, 2, 64, 112
3, 63014, Control_c, 2, 64, 127
3, 63085, Control_c, 2, 64, 112
3, 63090, Control_c, 2, 64, 100
3, 63095, Control_c, 2, 64, 92
3, 63098, Control_c, 2, 64, 84
3, 63100, Control_c, 2, 64, 80
3, 63103, Control_c, 2, 64, 76
3, 63103, Control_c, 2, 64, 72
3, 63105, Control_c, 2, 64, 68
3, 63107, Control_c, 2, 64, 64
3, 63110, Control_c, 2, 64, 60
3, 63111, Control_c, 2, 64, 44
3, 63111, Control_c, 2, 67, 8
3, 63117, Control_c, 2, 64, 28
3, 63218, Control_c, 2, 64, 12
3, 63307, Control_c, 2, 64, 0
3, 63322, Control_c, 2, 67, 16
3, 63386, Control_c, 2, 67, 24
3, 63443, Control_c, 2, 67, 32
3, 63447, Control_c, 2, 64, 12
3, 63459, Control_c, 2, 64, 28
3, 63473, Control_c, 2, 64, 44
3, 63478, Control_c, 2, 67, 40
3, 63479, Control_c, 2, 64, 60
3, 63483, Control_c, 2, 64, 64
3, 63485, Control_c, 2, 64, 68
3, 63492, Control_c, 2, 64, 72
3, 63510, Control_c, 2, 64, 76
3, 63523, Control_c, 2, 64, 80
3, 63536, Control_c, 2, 64, 84
3, 63537, Control_c, 2, 67, 48
3, 63544, Control_c, 2, 64, 88
3, 63549, Control_c, 2, 64, 92
3, 63554, Control_c, 2, 64, 100
3, 63565, Control_c, 2, 64, 112
3, 63571, Control_c, 2, 64, 127
3, 63588, Control_c, 2, 67, 56
3, 63765, Control_c, 2, 64, 112
3, 63775, Control_c, 2, 64, 100
3, 63780, Control_c, 2, 64, 92
3, 63782, Control_c, 2, 64, 84
3, 63788, Control_c, 2, 64, 80
3, 63789, Control_c, 2, 64, 76
3, 63793, Control_c, 2, 64, 72
3, 63795, Control_c, 2, 64, 68
3, 63796, Control_c, 2, 64, 64
3, 63797, Control_c, 2, 64, 60
3, 63803, Control_c, 2, 64, 44
3, 63809, Control_c, 2, 64, 28
3, 63816, Control_c, 2, 64, 12
3, 63835, Control_c, 2, 64, 0
3, 64148, Control_c, 2, 67, 64
3, 64208, Control_c, 2, 67, 72
3, 64278, Control_c, 2, 67, 80
3, 64377, Control_c, 2, 67, 88
3, 65321, Control_c, 2, 64, 12
3, 65340, Control_c, 2, 64, 28
3, 65346, Control_c, 2, 64, 44
3, 65353, Control_c, 2, 64, 60
3, 65358, Control_c, 2, 64, 64
3, 65361, Control_c, 2, 64, 68
3, 65366, Control_c, 2, 64, 72
3, 65385, Control_c, 2, 64, 76
3, 65458, Control_c, 2, 64, 72
3, 65468, Control_c, 2, 64, 68
3, 65474, Control_c, 2, 64, 64
3, 65482, Control_c, 2, 64, 60
3, 65485, Control_c, 2, 64, 44
3, 65498, Control_c, 2, 64, 28
3, 65507, Control_c, 2, 64, 12
3, 65587, Control_c, 2, 64, 28
3, 65597, Control_c, 2, 64, 44
3, 65603, Control_c, 2, 64, 60
3, 65604, Control_c, 2, 64, 64
3, 65607, Control_c, 2, 64, 68
3, 65612, Control_c, 2, 64, 72
3, 65617, Control_c, 2, 64, 76
3, 65633, Control_c, 2, 64, 80
3, 65650, Control_c, 2, 64, 84
3, 65659, Control_c, 2, 64, 88
3, 65662, Control_c, 2, 67, 96
3, 65668, Control_c, 2, 64, 92
3, 65685, Control_c, 2, 64, 100
3, 65755, Control_c, 2, 64, 92
3, 65773, Control_c, 2, 64, 88
3, 65778, Control_c, 2, 64, 84
3, 65784, Control_c, 2, 64, 80
3, 65786, Control_c, 2, 64, 76
3, 65794, Control_c, 2, 64, 72
3, 65796, Control_c, 2, 64, 68
3, 65802, Control_c, 2, 64, 64
3, 65804, Control_c, 2, 64, 60
3, 65808, Control_c, 2, 64, 44
3, 65817, Control_c, 2, 64, 28
3, 65828, Control_c, 2, 64, 12
3, 65904, Control_c, 2, 64, 28
3, 65911, Control_c, 2, 64, 44
3, 65917, Control_c, 2, 64, 60
3, 65920, Control_c, 2, 64, 64
3, 65920, Control_c, 2, 64, 68
3, 65927, Control_c, 2, 64, 72
3, 65931, Control_c, 2, 64, 76
3, 65950, Control_c, 2, 64, 80
3, 65963, Control_c, 2, 64, 84
3, 65970, Control_c, 2, 64, 88
3, 65977, Control_c, 2, 64, 92
3, 65990, Control_c, 2, 64, 100
3, 66146, Control_c, 2, 64, 92
3, 66179, Control_c, 2, 64, 88
3, 66184, Control_c, 2, 64, 84
3, 66192, Control_c, 2, 64, 80
3, 66196, Control_c, 2, 64, 76
3, 66201, Control_c, 2, 64, 72
3, 66204, Control_c, 2, 64, 68
3, 66208, Control_c, 2, 64, 64
3, 66214, Control_c, 2, 64, 60
3, 66221, Control_c, 2, 64, 44
3, 66237, Control_c, 2, 64, 28
3, 66307, Control_c, 2, 64, 44
3, 66317, Control_c, 2, 64, 60
3, 66324, Control_c, 2, 64, 64
3, 66330, Control_c, 2, 64, 68
3, 66339, Control_c, 2, 64, 72
3, 66355, Control_c, 2, 64, 76
3, 66375, Control_c, 2, 64, 80
3, 66393, Control_c, 2, 64, 84
3, 66403, Control_c, 2, 64, 88
3, 66413, Control_c, 2, 64, 92
3, 66425, Control_c, 2, 64, 100
3, 66453, Control_c, 2, 64, 112
3, 66493, Control_c, 2, 67, 104
3, 66603, Control_c, 2, 64, 100
3, 66624, Control_c, 2, 64, 92
3, 66634, Control_c, 2, 64, 88
3, 66634, Control_c, 2, 67, 112
3, 66637, Control_c, 2, 64, 84
3, 66648, Control_c, 2, 64, 80
3, 66649, Control_c, 2, 64, 76
3, 66654, Control_c, 2, 64, 72
3, 66660, Control_c, 2, 64, 68
3, 66662, Control_c, 2, 64, 64
3, 66666, Control_c, 2, 64, 60
3, 66675, Control_c, 2, 64, 44
3, 66689, Control_c, 2, 64, 28
3, 66705, Control_c, 2, 64, 12
3, 66941, Control_c, 2, 64, 28
3, 66951, Control_c, 2, 64, 44
3, 66959, Control_c, 2, 64, 60
3, 66961, Control_c, 2, 64, 64
3, 66969, Control_c, 2, 64, 68
3, 66973, Control_c, 2, 64, 72
3, 66999, Control_c, 2, 64, 76
3, 67218, Control_c, 2, 64, 72
3, 67229, Control_c, 2, 64, 68
3, 67236, Control_c, 2, 64, 64
3, 67243, Control_c, 2, 64, 60
3, 67250, Control_c, 2, 64, 44
3, 67263, Control_c, 2, 64, 28
3, 67273, Control_c, 2, 64, 12
3, 67311, Control_c, 2, 67, 127
3, 68668, Control_c, 2, 64, 28
3, 68681, Control_c, 2, 64, 44
3, 68690, Control_c, 2, 64, 60
3, 68694, Control_c, 2, 64, 64
3, 68698, Control_c, 2, 64, 68
3, 68713, Control_c, 2, 64, 72
3, 68736, Control_c, 2, 64, 76
3, 68754, Control_c, 2, 64, 80
3, 68797, Control_c, 2, 64, 84
3, 68924, Control_c, 2, 64, 80
3, 68940, Control_c, 2, 64, 76
3, 68944, Control_c, 2, 64, 72
3, 68950, Control_c, 2, 64, 68
3, 68954, Control_c, 2, 64, 64
3, 68960, Control_c, 2, 64, 60
3, 68964, Control_c, 2, 64, 44
3, 68980, Control_c, 2, 64, 28
3, 69023, Control_c, 2, 64, 44
3, 69034, Control_c, 2, 64, 60
3, 69036, Control_c, 2, 64, 64
3, 69043, Control_c, 2, 64, 68
3, 69050, Control_c, 2, 64, 72
3, 69070, Control_c, 2, 64, 76
3, 69088, Control_c, 2, 64, 80
3, 69144, Control_c, 2, 64, 84
3, 69209, Control_c, 2, 64, 88
3, 69234, Control_c, 2, 64, 92
3, 69270, Control_c, 2, 64, 100
3, 69376, Control_c, 2, 64, 92
3, 69393, Control_c, 2, 64, 88
3, 69470, Control_c, 2, 64, 84
3, 69489, Control_c, 2, 64, 80
3, 69502, Control_c, 2, 64, 76
3, 69518, Control_c, 2, 64, 72
3, 69569, Control_c, 2, 64, 68
3, 69587, Control_c, 2, 64, 64
3, 69597, Control_c, 2, 64, 60
3, 69607, Control_c, 2, 64, 44
3, 69614, Control_c, 2, 64, 28
3, 69622, Control_c, 2, 64, 12
3, 69630, Control_c, 2, 64, 0
3, 69745, Control_c, 2, 64, 12
3, 69761, Control_c, 2, 64, 28
3, 69770, Control_c, 2, 64, 44
3, 69776, Control_c, 2, 64, 60
3, 69783, Control_c, 2, 64, 64
3, 69786, Control_c, 2, 64, 68
3, 69793, Control_c, 2, 64, 72
3, 69829, Control_c, 2, 64, 76
3, 69896, Control_c, 2, 64, 80
3, 70133, Control_c, 2, 64, 76
3, 70146, Control_c, 2, 64, 72
3, 70152, Control_c, 2, 64, 68
3, 70158, Control_c, 2, 64, 64
3, 70166, Control_c, 2, 64, 60
3, 70174, Control_c, 2, 64, 44
3, 70189, Control_c, 2, 64, 28
3, 70229, Control_c, 2, 64, 12
3, 70368, Control_c, 2, 64, 28
3, 70380, Control_c, 2, 64, 44
3, 70387, Control_c, 2, 64, 60
3, 70392, Control_c, 2, 64, 64
3, 70397, Control_c, 2, 64, 68
3, 70405, Control_c, 2, 64, 72
3, 70419, Control_c, 2, 64, 76
3, 70435, Control_c, 2, 64, 80
3, 70458, Control_c, 2, 64, 84
3, 70546, Control_c, 2, 64, 80
3, 70563, Control_c, 2, 64, 76
3, 70579, Control_c, 2, 64, 72
3, 70596, Control_c, 2, 64, 68
3, 70607, Control_c, 2, 64, 64
3, 70613, Control_c, 2, 64, 60
3, 70619, Control_c, 2, 64, 44
3, 70627, Control_c, 2, 64, 28
3, 70636, Control_c, 2, 64, 12
3, 70716, Control_c, 2, 64, 28
3, 70728, Control_c, 2, 64, 44
3, 70735, Control_c, 2, 64, 60
3, 70739, Control_c, 2, 64, 64
3, 70745, Control_c, 2, 64, 68
3, 70749, Control_c, 2, 64, 72
3, 70770, Control_c, 2, 64, 76
3, 70800, Control_c, 2, 64, 80
3, 70875, Control_c, 2, 64, 76
3, 70910, Control_c, 2, 64, 72
3, 70929, Control_c, 2, 64, 68
3, 70935, Control_c, 2, 64, 64
3, 70941, Control_c, 2, 64, 60
3, 70944, Control_c, 2, 64, 44
3, 70951, Control_c, 2, 64, 28
3, 70956, Control_c, 2, 64, 12
3, 70964, Control_c, 2, 64, 0
3, 71014, Control_c, 2, 64, 12
3, 71026, Control_c, 2, 64, 28
3, 71036, Control_c, 2, 64, 44
3, 71042, Control_c, 2, 64, 60
3, 71044, Control_c, 2, 64, 64
3, 71047, Control_c, 2, 64, 68
3, 71052, Control_c, 2, 64, 72
3, 71115, Control_c, 2, 64, 68
3, 71119, Control_c, 2, 64, 64
3, 71125, Control_c, 2, 64, 60
3, 71129, Control_c, 2, 64, 44
3, 71139, Control_c, 2, 64, 28
3, 71149, Control_c, 2, 64, 12
3, 71208, Control_c, 2, 64, 28
3, 71216, Control_c, 2, 64, 44
3, 71222, Control_c, 2, 64, 60
3, 71226, Control_c, 2, 64, 64
3, 71231, Control_c, 2, 64, 68
3, 71236, Control_c, 2, 64, 72
3, 71378, Control_c, 2, 64, 76
3, 71407, Control_c, 2, 64, 80
3, 71437, Control_c, 2, 64, 84
3, 71462, Control_c, 2, 64, 88
3, 71550, Control_c, 2, 64, 84
3, 71595, Control_c, 2, 64, 80
3, 71618, Control_c, 2, 64, 76
3, 71639, Control_c, 2, 64, 72
3, 71649, Control_c, 2, 64, 68
3, 71655, Control_c, 2, 64, 64
3, 71664, Control_c, 2, 64, 60
3, 71669, Control_c, 2, 64, 44
3, 71679, Control_c, 2, 64, 28
3, 71688, Control_c, 2, 64, 12
3, 71697, Control_c, 2, 64, 0
3, 71741, Control_c, 2, 67, 112
3, 71821, Control_c, 2, 64, 12
3, 71837, Control_c, 2, 64, 28
3, 71847, Control_c, 2, 64, 44
3, 71855, Control_c, 2, 64, 60
3, 71855, Control_c, 2, 67, 104
3, 71859, Control_c, 2, 64, 64
3, 71865, Control_c, 2, 64, 68
3, 71875, Control_c, 2, 64, 72
3, 71902, Control_c, 2, 64, 76
3, 71945, Control_c, 2, 64, 80
3, 71978, Control_c, 2, 64, 84
3, 71999, Control_c, 2, 64, 88
3, 72011, Control_c, 2, 64, 92
3, 72036, Control_c, 2, 64, 100
3, 72048, Control_c, 2, 67, 112
3, 72105, Control_c, 2, 67, 127
3, 72354, Control_c, 2, 64, 92
3, 72384, Control_c, 2, 64, 88
3, 72385, Control_c, 2, 64, 84
3, 72398, Control_c, 2, 64, 80
3, 72408, Control_c, 2, 64, 76
3, 72416, Control_c, 2, 64, 72
3, 72424, Control_c, 2, 64, 68
3, 72444, Control_c, 2, 64, 64
3, 72527, Control_c, 2, 64, 60
3, 72578, Control_c, 2, 64, 44
3, 72604, Control_c, 2, 64, 28
3, 72638, Control_c, 2, 64, 12
3, 73189, Control_c, 2, 64, 28
3, 73202, Control_c, 2, 64, 44
3, 73213, Control_c, 2, 64, 60
3, 73222, Control_c, 2, 64, 64
3, 73232, Control_c, 2, 64, 68
3, 73264, Control_c, 2, 64, 72
3, 73305, Control_c, 2, 64, 76
3, 73343, Control_c, 2, 64, 80
3, 73394, Control_c, 2, 64, 84
3, 73697, Control_c, 2, 64, 80
3, 73819, Control_c, 2, 64, 76
3, 73841, Control_c, 2, 64, 72
3, 73848, Control_c, 2, 64, 68
3, 73853, Control_c, 2, 64, 64
3, 73860, Control_c, 2, 64, 60
3, 73866, Control_c, 2, 64, 44
3, 73883, Control_c, 2, 64, 28
3, 73944, Control_c, 2, 64, 44
3, 73952, Control_c, 2, 64, 60
3, 73959, Control_c, 2, 64, 64
3, 73966, Control_c, 2, 64, 68
3, 73976, Control_c, 2, 64, 72
3, 74079, Control_c, 2, 64, 68
3, 74123, Control_c, 2, 64, 64
3, 74196, Control_c, 2, 64, 68
3, 74221, Control_c, 2, 64, 72
3, 74242, Control_c, 2, 64, 76
3, 74261, Control_c, 2, 64, 80
3, 74290, Control_c, 2, 64, 84
3, 74309, Control_c, 2, 64, 88
3, 74364, Control_c, 2, 64, 84
3, 74378, Control_c, 2, 64, 80
3, 74387, Control_c, 2, 64, 76
3, 74433, Control_c, 2, 64, 80
3, 74548, Control_c, 2, 64, 76
3, 74564, Control_c, 2, 64, 72
3, 74570, Control_c, 2, 64, 68
3, 74581, Control_c, 2, 64, 64
3, 74594, Control_c, 2, 64, 60
3, 74605, Control_c, 2, 64, 44
3, 74627, Control_c, 2, 64, 28
3, 74717, Control_c, 2, 64, 44
3, 74732, Control_c, 2, 64, 60
3, 74740, Control_c, 2, 64, 64
3, 74749, Control_c, 2, 64, 68
3, 74772, Control_c, 2, 64, 72
3, 74795, Control_c, 2, 64, 76
3, 74828, Control_c, 2, 64, 80
3, 74881, Control_c, 2, 64, 84
3, 74935, Control_c, 2, 64, 88
3, 74964, Control_c, 2, 64, 92
3, 75008, Control_c, 2, 64, 100
3, 75240, Control_c, 2, 64, 92
3, 75255, Control_c, 2, 64, 88
3, 75261, Control_c, 2, 64, 84
3, 75269, Control_c, 2, 64, 80
3, 75275, Control_c, 2, 64, 76
3, 75278, Control_c, 2, 64, 72
3, 75283, Control_c, 2, 64, 68
3, 75291, Control_c, 2, 64, 64
3, 75299, Control_c, 2, 64, 60
3, 75414, Control_c, 2, 64, 64
3, 75625, Control_c, 2, 64, 60
3, 75663, Control_c, 2, 64, 44
3, 75967, Control_c, 2, 64, 28
3, 76076, Control_c, 2, 64, 44
3, 76083, Control_c, 2, 64, 60
3, 76091, Control_c, 2, 64, 64
3, 76096, Control_c, 2, 64, 68
3, 76102, Control_c, 2, 64, 72
3, 76116, Control_c, 2, 64, 76
3, 76131, Control_c, 2, 64, 80
3, 76150, Control_c, 2, 64, 84
3, 76161, Control_c, 2, 64, 88
3, 76174, Control_c, 2, 64, 92
3, 76234, Control_c, 2, 64, 88
3, 76240, Control_c, 2, 64, 84
3, 76245, Control_c, 2, 64, 80
3, 76253, Control_c, 2, 64, 76
3, 76254, Control_c, 2, 64, 72
3, 76260, Control_c, 2, 64, 68
3, 76264, Control_c, 2, 64, 64
3, 76273, Control_c, 2, 64, 60
3, 76280, Control_c, 2, 64, 44
3, 76293, Control_c, 2, 64, 28
3, 76304, Control_c, 2, 64, 12
3, 76639, Control_c, 2, 64, 0
3, 76743, Control_c, 2, 64, 12
3, 76758, Control_c, 2, 64, 28
3, 76766, Control_c, 2, 64, 44
3, 76774, Control_c, 2, 64, 60
3, 76776, Control_c, 2, 64, 64
3, 76784, Control_c, 2, 64, 68
3, 76796, Control_c, 2, 64, 72
3, 76884, Control_c, 2, 64, 68
3, 76899, Control_c, 2, 64, 64
3, 76912, Control_c, 2, 64, 60
3, 76924, Control_c, 2, 64, 44
3, 76936, Control_c, 2, 64, 28
3, 76949, Control_c, 2, 64, 12
3, 76992, Control_c, 2, 64, 0
3, 77093, Control_c, 2, 64, 12
3, 77316, Control_c, 2, 64, 0
3, 77418, Control_c, 2, 64, 12
3, 77428, Control_c, 2, 64, 28
3, 77436, Control_c, 2, 64, 44
3, 77441, Control_c, 2, 64, 60
3, 77446, Control_c, 2, 64, 64
3, 77448, Control_c, 2, 64, 68
3, 77452, Control_c, 2, 64, 72
3, 77472, Control_c, 2, 64, 76
3, 77545, Control_c, 2, 64, 72
3, 77551, Control_c, 2, 64, 68
3, 77556, Control_c, 2, 64, 64
3, 77569, Control_c, 2, 64, 60
3, 77590, Control_c, 2, 64, 44
3, 77662, Control_c, 2, 64, 28
3, 77675, Control_c, 2, 64, 12
3, 77694, Control_c, 2, 64, 0
3, 77760, Control_c, 2, 64, 12
3, 77772, Control_c, 2, 64, 28
3, 77782, Control_c, 2, 64, 44
3, 77790, Control_c, 2, 64, 60
3, 77795, Control_c, 2, 64, 64
3, 77802, Control_c, 2, 64, 68
3, 77856, Control_c, 2, 64, 64
3, 77866, Control_c, 2, 64, 60
3, 77873, Control_c, 2, 64, 44
3, 77891, Control_c, 2, 64, 28
3, 77935, Control_c, 2, 64, 12
3, 78842, Control_c, 2, 64, 0
3, 78905, Control_c, 2, 64, 12
3, 78915, Control_c, 2, 64, 28
3, 78921, Control_c, 2, 64, 44
3, 78926, Control_c, 2, 64, 60
3, 78927, Control_c, 2, 64, 64
3, 78933, Control_c, 2, 64, 68
3, 78936, Control_c, 2, 64, 72
3, 78941, Control_c, 2, 64, 76
3, 78963, Control_c, 2, 64, 80
3, 79024, Control_c, 2, 64, 76
3, 79037, Control_c, 2, 64, 72
3, 79041, Control_c, 2, 64, 68
3, 79046, Control_c, 2, 64, 64
3, 79052, Control_c, 2, 64, 60
3, 79057, Control_c, 2, 64, 44
3, 79062, Control_c, 2, 64, 28
3, 79067, Control_c, 2, 64, 12
3, 79074, Control_c, 2, 64, 0
3, 79487, Control_c, 2, 64, 12
3, 79500, Control_c, 2, 64, 28
3, 79512, Control_c, 2, 64, 44
3, 79560, Control_c, 2, 64, 60
3, 79578, Control_c, 2, 64, 44
3, 79692, Control_c, 2, 64, 28
3, 79740, Control_c, 2, 64, 12
3, 80046, Control_c, 2, 64, 0
3, 80167, Control_c, 2, 64, 12
3, 80184, Control_c, 2, 64, 28
3, 80197, Control_c, 2, 64, 44
3, 80206, Control_c, 2, 64, 60
3, 80209, Control_c, 2, 64, 64
3, 80216, Control_c, 2, 64, 68
3, 80245, Control_c, 2, 64, 72
3, 80424, Control_c, 2, 64, 68
3, 80431, Control_c, 2, 64, 64
3, 80436, Control_c, 2, 64, 60
3, 80443, Control_c, 2, 64, 44
3, 80455, Control_c, 2, 64, 28
3, 80464, Control_c, 2, 64, 12
3, 80539, Control_c, 2, 64, 28
3, 80546, Control_c, 2, 64, 44
3, 80554, Control_c, 2, 64, 60
3, 80562, Control_c, 2, 64, 64
3, 80569, Control_c, 2, 64, 68
3, 80616, Control_c, 2, 64, 64
3, 80625, Control_c, 2, 64, 60
3, 80632, Control_c, 2, 64, 44
3, 80647, Control_c, 2, 64, 28
3, 80659, Control_c, 2, 64, 12
3, 81468, Control_c, 2, 64, 0
3, 81601, Control_c, 2, 64, 12
3, 81614, Control_c, 2, 64, 28
3, 81624, Control_c, 2, 64, 44
3, 81628, Control_c, 2, 64, 60
3, 81632, Control_c, 2, 64, 64
3, 81638, Control_c, 2, 64, 68
3, 81644, Control_c, 2, 64, 72
3, 81682, Control_c, 2, 64, 76
3, 81840, Control_c, 2, 64, 80
3, 81858, Control_c, 2, 64, 84
3, 81873, Control_c, 2, 64, 88
3, 81881, Control_c, 2, 64, 92
3, 81894, Control_c, 2, 64, 100
3, 81899, Control_c, 2, 67, 112
3, 81941, Control_c, 2, 67, 104
3, 81957, Control_c, 2, 64, 92
3, 81961, Control_c, 2, 64, 88
3, 81964, Control_c, 2, 64, 84
3, 81966, Control_c, 2, 64, 80
3, 81968, Control_c, 2, 64, 76
3, 81974, Control_c, 2, 64, 72
3, 81977, Control_c, 2, 64, 68
3, 81978, Control_c, 2, 64, 64
3, 81986, Control_c, 2, 67, 96
3, 82019, Control_c, 2, 67, 88
3, 82024, Control_c, 2, 64, 68
3, 82037, Control_c, 2, 64, 72
3, 82056, Control_c, 2, 64, 76
3, 82060, Control_c, 2, 67, 80
3, 82077, Control_c, 2, 64, 80
3, 82138, Control_c, 2, 64, 76
3, 82147, Control_c, 2, 64, 72
3, 82153, Control_c, 2, 64, 68
3, 82158, Control_c, 2, 64, 64
3, 82163, Control_c, 2, 64, 60
3, 82170, Control_c, 2, 64, 44
3, 82180, Control_c, 2, 64, 28
3, 82188, Control_c, 2, 64, 12
3, 82246, Control_c, 2, 67, 88
3, 82294, Control_c, 2, 64, 28
3, 82300, Control_c, 2, 64, 44
3, 82308, Control_c, 2, 64, 60
3, 82314, Control_c, 2, 64, 64
3, 82316, Control_c, 2, 64, 68
3, 82320, Control_c, 2, 64, 72
3, 82344, Control_c, 2, 64, 76
3, 82380, Control_c, 2, 64, 80
3, 82553, Control_c, 2, 64, 84
3, 82638, Control_c, 2, 64, 80
3, 82648, Control_c, 2, 64, 76
3, 82654, Control_c, 2, 64, 72
3, 82656, Control_c, 2, 64, 68
3, 82660, Control_c, 2, 64, 64
3, 82668, Control_c, 2, 64, 60
3, 82670, Control_c, 2, 64, 44
3, 82679, Control_c, 2, 64, 28
3, 82721, Control_c, 2, 64, 44
3, 82727, Control_c, 2, 64, 60
3, 82731, Control_c, 2, 64, 64
3, 82735, Control_c, 2, 64, 68
3, 82737, Control_c, 2, 64, 72
3, 82743, Control_c, 2, 64, 76
3, 82750, Control_c, 2, 64, 80
3, 82761, Control_c, 2, 64, 84
3, 82771, Control_c, 2, 64, 88
3, 82779, Control_c, 2, 64, 92
3, 82800, Control_c, 2, 64, 88
3, 82802, Control_c, 2, 64, 84
3, 82804, Control_c, 2, 64, 80
3, 82807, Control_c, 2, 64, 76
3, 82808, Control_c, 2, 64, 72
3, 82810, Control_c, 2, 64, 68
3, 82812, Control_c, 2, 64, 64
3, 82814, Control_c, 2, 64, 60
3, 82817, Control_c, 2, 64, 44
3, 82820, Control_c, 2, 64, 28
3, 82824, Control_c, 2, 64, 12
3, 82830, Control_c, 2, 64, 0
3, 82891, Control_c, 2, 67, 96
3, 82951, Control_c, 2, 67, 104
3, 82989, Control_c, 2, 67, 112
3, 83030, Control_c, 2, 67, 127
3, 83054, Control_c, 2, 64, 12
3, 83066, Control_c, 2, 64, 28
3, 83073, Control_c, 2, 64, 44
3, 83079, Control_c, 2, 64, 60
3, 83083, Control_c, 2, 64, 64
3, 83085, Control_c, 2, 64, 68
3, 83091, Control_c, 2, 64, 72
3, 83113, Control_c, 2, 64, 76
3, 83126, Control_c, 2, 64, 80
3, 83218, Control_c, 2, 64, 76
3, 83233, Control_c, 2, 64, 72
3, 83244, Control_c, 2, 64, 68
3, 83267, Control_c, 2, 64, 64
3, 83303, Control_c, 2, 64, 60
3, 83336, Control_c, 2, 64, 44
3, 83358, Control_c, 2, 64, 28
3, 83368, Control_c, 2, 64, 12
3, 83433, Control_c, 2, 64, 28
3, 83441, Control_c, 2, 64, 44
3, 83446, Control_c, 2, 64, 60
3, 83449, Control_c, 2, 64, 64
3, 83452, Control_c, 2, 64, 68
3, 83453, Control_c, 2, 64, 72
3, 83463, Control_c, 2, 64, 76
3, 83549, Control_c, 2, 64, 72
3, 83556, Control_c, 2, 64, 68
3, 83565, Control_c, 2, 64, 64
3, 83578, Control_c, 2, 64, 60
3, 83587, Control_c, 2, 64, 44
3, 83603, Control_c, 2, 64, 28
3, 83613, Control_c, 2, 64, 12
3, 83633, Control_c, 2, 64, 0
3, 83726, Control_c, 2, 64, 12
3, 83739, Control_c, 2, 64, 28
3, 83748, Control_c, 2, 64, 44
3, 83756, Control_c, 2, 64, 60
3, 83761, Control_c, 2, 64, 64
3, 83764, Control_c, 2, 64, 68
3, 83776, Control_c, 2, 64, 72
3, 83823, Control_c, 2, 64, 76
3, 83932, Control_c, 2, 64, 72
3, 83987, Control_c, 2, 64, 68
3, 84015, Control_c, 2, 64, 64
3, 84030, Control_c, 2, 64, 60
3, 84038, Control_c, 2, 64, 44
3, 84052, Control_c, 2, 64, 28
3, 84103, Control_c, 2, 64, 44
3, 84114, Control_c, 2, 64, 60
3, 84119, Control_c, 2, 64, 64
3, 84126, Control_c, 2, 64, 68
3, 84156, Control_c, 2, 64, 72
3, 84234, Control_c, 2, 64, 68
3, 84245, Control_c, 2, 64, 64
3, 84255, Control_c, 2, 64, 60
3, 84264, Control_c, 2, 64, 44
3, 84279, Control_c, 2, 67, 112
3, 84337, Control_c, 2, 67, 104
3, 84368, Control_c, 2, 67, 96
3, 84381, Control_c, 2, 67, 88
3, 84390, Control_c, 2, 67, 80
3, 84401, Control_c, 2, 67, 72
3, 84411, Control_c, 2, 67, 64
3, 84419, Control_c, 2, 67, 56
3, 84423, Control_c, 2, 67, 48
3, 84901, Control_c, 2, 67, 56
3, 84976, Control_c, 2, 64, 28
3, 85165, Control_c, 2, 64, 44
3, 85173, Control_c, 2, 64, 60
3, 85178, Control_c, 2, 64, 64
3, 85181, Control_c, 2, 64, 68
3, 85185, Control_c, 2, 64, 72
3, 85194, Control_c, 2, 64, 76
3, 85204, Control_c, 2, 64, 80
3, 85215, Control_c, 2, 64, 84
3, 85221, Control_c, 2, 64, 88
3, 85226, Control_c, 2, 64, 92
3, 85238, Control_c, 2, 64, 100
3, 85289, Control_c, 2, 64, 92
3, 85294, Control_c, 2, 64, 88
3, 85295, Control_c, 2, 64, 84
3, 85298, Control_c, 2, 64, 80
3, 85298, Control_c, 2, 64, 76
3, 85302, Control_c, 2, 64, 72
3, 85304, Control_c, 2, 64, 68
3, 85305, Control_c, 2, 64, 64
3, 85308, Control_c, 2, 64, 60
3, 85312, Control_c, 2, 64, 44
3, 85324, Control_c, 2, 64, 28
3, 85347, Control_c, 2, 64, 12
3, 85540, Control_c, 2, 64, 0
3, 85604, Control_c, 2, 64, 12
3, 85616, Control_c, 2, 64, 28
3, 85626, Control_c, 2, 64, 44
3, 85634, Control_c, 2, 64, 60
3, 85647, Control_c, 2, 64, 64
3, 85683, Control_c, 2, 64, 60
3, 85697, Control_c, 2, 64, 44
3, 85764, Control_c, 2, 67, 64
3, 85835, Control_c, 2, 64, 60
3, 85843, Control_c, 2, 67, 72
3, 85848, Control_c, 2, 64, 64
3, 85860, Control_c, 2, 64, 68
3, 85871, Control_c, 2, 64, 72
3, 85887, Control_c, 2, 67, 80
3, 85890, Control_c, 2, 64, 76
3, 85903, Control_c, 2, 64, 80
3, 85919, Control_c, 2, 64, 84
3, 85928, Control_c, 2, 64, 88
3, 85938, Control_c, 2, 64, 92
3, 85950, Control_c, 2, 64, 100
3, 86100, Control_c, 2, 64, 92
3, 86144, Control_c, 2, 64, 88
3, 86158, Control_c, 2, 64, 84
3, 86180, Control_c, 2, 64, 80
3, 86203, Control_c, 2, 64, 76
3, 86237, Control_c, 2, 64, 72
3, 86263, Control_c, 2, 64, 68
3, 86289, Control_c, 2, 64, 64
3, 86304, Control_c, 2, 64, 60
3, 86313, Control_c, 2, 64, 44
3, 86328, Control_c, 2, 64, 28
3, 86336, Control_c, 2, 64, 12
3, 86351, Control_c, 2, 64, 0
3, 86474, Control_c, 2, 64, 12
3, 86492, Control_c, 2, 64, 28
3, 86502, Control_c, 2, 64, 44
3, 86510, Control_c, 2, 64, 60
3, 86512, Control_c, 2, 64, 64
3, 86515, Control_c, 2, 64, 68
3, 86522, Control_c, 2, 64, 72
3, 86537, Control_c, 2, 64, 76
3, 86558, Control_c, 2, 64, 80
3, 86573, Control_c, 2, 64, 84
3, 86587, Control_c, 2, 64, 88
3, 86597, Control_c, 2, 64, 92
3, 86616, Control_c, 2, 64, 100
3, 86689, Control_c, 2, 64, 92
3, 86694, Control_c, 2, 64, 88
3, 86696, Control_c, 2, 64, 84
3, 86699, Control_c, 2, 64, 80
3, 86700, Control_c, 2, 64, 76
3, 86704, Control_c, 2, 64, 72
3, 86709, Control_c, 2, 64, 68
3, 86710, Control_c, 2, 64, 64
3, 86716, Control_c, 2, 64, 60
3, 86729, Control_c, 2, 64, 44
3, 86749, Control_c, 2, 67, 88
3, 86761, Control_c, 2, 64, 60
3, 86772, Control_c, 2, 64, 64
3, 86777, Control_c, 2, 64, 68
3, 86784, Control_c, 2, 64, 72
3, 86794, Control_c, 2, 64, 76
3, 86807, Control_c, 2, 64, 80
3, 86822, Control_c, 2, 67, 96
3, 86826, Control_c, 2, 64, 84
3, 86879, Control_c, 2, 64, 80
3, 86882, Control_c, 2, 64, 76
3, 86884, Control_c, 2, 64, 72
3, 86888, Control_c, 2, 64, 68
3, 86892, Control_c, 2, 64, 64
3, 86897, Control_c, 2, 64, 60
3, 86932, Control_c, 2, 64, 64
3, 86938, Control_c, 2, 64, 68
3, 86942, Control_c, 2, 64, 72
3, 86951, Control_c, 2, 64, 76
3, 86955, Control_c, 2, 64, 80
3, 86963, Control_c, 2, 64, 84
3, 86968, Control_c, 2, 64, 88
3, 86976, Control_c, 2, 64, 92
3, 86981, Control_c, 2, 64, 100
3, 86996, Control_c, 2, 64, 112
3, 87013, Control_c, 2, 64, 127
3, 87033, Control_c, 2, 64, 112
3, 87040, Control_c, 2, 64, 100
3, 87048, Control_c, 2, 64, 92
3, 87051, Control_c, 2, 64, 84
3, 87057, Control_c, 2, 64, 80
3, 87057, Control_c, 2, 64, 76
3, 87060, Control_c, 2, 64, 72
3, 87061, Control_c, 2, 64, 64
3, 87063, Control_c, 2, 64, 60
3, 87066, Control_c, 2, 64, 44
3, 87072, Control_c, 2, 64, 28
3, 87082, Control_c, 2, 64, 12
3, 87685, Control_c, 2, 67, 88
3, 87722, Control_c, 2, 67, 80
3, 87736, Control_c, 2, 67, 72
3, 87749, Control_c, 2, 67, 64
3, 87759, Control_c, 2, 67, 56
3, 87766, Control_c, 2, 67, 48
3, 87791, Control_c, 2, 67, 40
3, 87836, Control_c, 2, 67, 32
3, 87876, Control_c, 2, 67, 24
3, 87910, Control_c, 2, 67, 16
3, 87932, Control_c, 2, 64, 28
3, 87947, Control_c, 2, 64, 44
3, 87955, Control_c, 2, 64, 60
3, 87957, Control_c, 2, 67, 8
3, 87959, Control_c, 2, 64, 64
3, 87965, Control_c, 2, 64, 68
3, 87972, Control_c, 2, 64, 72
3, 87983, Control_c, 2, 64, 76
3, 87993, Control_c, 2, 64, 80
3, 88003, Control_c, 2, 64, 84
3, 88010, Control_c, 2, 64, 88
3, 88012, Control_c, 2, 64, 92
3, 88022, Control_c, 2, 64, 100
3, 88035, Control_c, 2, 64, 112
3, 88048, Control_c, 2, 64, 127
3, 88096, Control_c, 2, 64, 112
3, 88105, Control_c, 2, 64, 100
3, 88111, Control_c, 2, 64, 92
3, 88115, Control_c, 2, 64, 88
3, 88115, Control_c, 2, 64, 84
3, 88118, Control_c, 2, 64, 80
3, 88121, Control_c, 2, 64, 76
3, 88123, Control_c, 2, 64, 72
3, 88125, Control_c, 2, 64, 68
3, 88127, Control_c, 2, 64, 64
3, 88131, Control_c, 2, 64, 60
3, 88135, Control_c, 2, 64, 44
3, 88161, Control_c, 2, 64, 28
3, 88337, Control_c, 2, 64, 12
3, 88418, Control_c, 2, 64, 28
3, 88423, Control_c, 2, 67, 16
3, 88440, Control_c, 2, 64, 44
3, 88465, Control_c, 2, 67, 24
3, 88488, Control_c, 2, 64, 28
3, 88499, Control_c, 2, 67, 32
3, 88521, Control_c, 2, 67, 40
3, 88536, Control_c, 2, 67, 48
3, 88554, Control_c, 2, 67, 56
3, 88577, Control_c, 2, 67, 64
3, 88598, Control_c, 2, 67, 72
3, 88624, Control_c, 2, 64, 44
3, 88624, Control_c, 2, 67, 80
3, 88637, Control_c, 2, 64, 60
3, 88642, Control_c, 2, 64, 64
3, 88650, Control_c, 2, 64, 68
3, 88650, Control_c, 2, 67, 88
3, 88661, Control_c, 2, 64, 72
3, 88671, Control_c, 2, 67, 96
3, 88681, Control_c, 2, 64, 76
3, 88694, Control_c, 2, 64, 80
3, 88722, Control_c, 2, 64, 84
3, 88739, Control_c, 2, 64, 88
3, 88750, Control_c, 2, 64, 92
3, 88768, Control_c, 2, 64, 100
3, 89097, Control_c, 2, 64, 92
3, 89110, Control_c, 2, 64, 88
3, 89115, Control_c, 2, 64, 84
3, 89120, Control_c, 2, 64, 80
3, 89125, Control_c, 2, 64, 76
3, 89130, Control_c, 2, 64, 72
3, 89135, Control_c, 2, 64, 68
3, 89138, Control_c, 2, 64, 64
3, 89143, Control_c, 2, 64, 60
3, 89150, Control_c, 2, 64, 44
3, 89165, Control_c, 2, 64, 28
3, 89175, Control_c, 2, 64, 12
3, 89206, Control_c, 2, 64, 0
3, 89364, Control_c, 2, 64, 12
3, 89385, Control_c, 2, 64, 28
3, 89395, Control_c, 2, 64, 44
3, 89400, Control_c, 2, 67, 88
3, 89401, Control_c, 2, 64, 60
3, 89404, Control_c, 2, 64, 64
3, 89410, Control_c, 2, 64, 68
3, 89417, Control_c, 2, 64, 72
3, 89442, Control_c, 2, 64, 76
3, 89454, Control_c, 2, 64, 80
3, 89470, Control_c, 2, 64, 84
3, 89478, Control_c, 2, 64, 88
3, 89483, Control_c, 2, 64, 92
3, 89493, Control_c, 2, 64, 100
3, 89503, Control_c, 2, 64, 112
3, 89510, Control_c, 2, 64, 127
3, 89654, Control_c, 2, 67, 80
3, 89684, Control_c, 2, 67, 72
3, 89700, Control_c, 2, 67, 64
3, 89713, Control_c, 2, 67, 56
3, 89721, Control_c, 2, 67, 48
3, 89734, Control_c, 2, 67, 40
3, 89797, Control_c, 2, 64, 112
3, 89803, Control_c, 2, 64, 100
3, 89805, Control_c, 2, 64, 92
3, 89808, Control_c, 2, 64, 84
3, 89810, Control_c, 2, 64, 80
3, 89811, Control_c, 2, 64, 76
3, 89815, Control_c, 2, 64, 68
3, 89815, Control_c, 2, 64, 64
3, 89817, Control_c, 2, 64, 44
3, 89822, Control_c, 2, 64, 28
3, 89825, Control_c, 2, 64, 12
3, 89830, Control_c, 2, 64, 0
3, 89853, Control_c, 2, 67, 48
3, 89897, Control_c, 2, 67, 56
3, 89924, Control_c, 2, 67, 64
3, 90073, Control_c, 2, 67, 72
3, 90152, Control_c, 2, 67, 80
3, 90486, Control_c, 2, 67, 88
3, 90600, Control_c, 2, 67, 96
3, 90623, Control_c, 2, 64, 12
3, 90636, Control_c, 2, 64, 28
3, 90643, Control_c, 2, 64, 44
3, 90648, Control_c, 2, 64, 60
3, 90651, Control_c, 2, 64, 64
3, 90655, Control_c, 2, 64, 68
3, 90658, Control_c, 2, 64, 72
3, 90667, Control_c, 2, 64, 76
3, 90685, Control_c, 2, 64, 80
3, 90706, Control_c, 2, 64, 84
3, 90719, Control_c, 2, 64, 88
3, 90726, Control_c, 2, 64, 92
3, 90739, Control_c, 2, 64, 100
3, 90762, Control_c, 2, 64, 112
3, 90771, Control_c, 2, 67, 104
3, 90819, Control_c, 2, 64, 100
3, 90826, Control_c, 2, 64, 92
3, 90829, Control_c, 2, 64, 88
3, 90832, Control_c, 2, 64, 84
3, 90833, Control_c, 2, 64, 80
3, 90834, Control_c, 2, 64, 76
3, 90840, Control_c, 2, 64, 72
3, 90840, Control_c, 2, 64, 68
3, 90844, Control_c, 2, 64, 64
3, 90877, Control_c, 2, 64, 68
3, 90887, Control_c, 2, 64, 72
3, 90895, Control_c, 2, 64, 76
3, 90902, Control_c, 2, 64, 80
3, 90913, Control_c, 2, 64, 84
3, 90917, Control_c, 2, 64, 88
3, 90925, Control_c, 2, 64, 92
3, 90933, Control_c, 2, 64, 100
3, 90945, Control_c, 2, 64, 112
3, 90958, Control_c, 2, 64, 127
3, 91026, Control_c, 2, 64, 112
3, 91050, Control_c, 2, 64, 100
3, 91066, Control_c, 2, 64, 92
3, 91070, Control_c, 2, 64, 88
3, 91073, Control_c, 2, 64, 84
3, 91079, Control_c, 2, 64, 80
3, 91085, Control_c, 2, 64, 76
3, 91088, Control_c, 2, 64, 72
3, 91093, Control_c, 2, 64, 68
3, 91102, Control_c, 2, 64, 64
3, 91108, Control_c, 2, 64, 60
3, 91116, Control_c, 2, 64, 44
3, 91126, Control_c, 2, 64, 28
3, 91136, Control_c, 2, 64, 12
3, 91143, Control_c, 2, 64, 0
3, 91219, Control_c, 2, 64, 12
3, 91232, Control_c, 2, 64, 28
3, 91236, Control_c, 2, 64, 44
3, 91242, Control_c, 2, 64, 60
3, 91243, Control_c, 2, 64, 64
3, 91247, Control_c, 2, 64, 68
3, 91252, Control_c, 2, 64, 72
3, 91255, Control_c, 2, 64, 76
3, 91267, Control_c, 2, 64, 80
3, 91288, Control_c, 2, 64, 84
3, 91302, Control_c, 2, 64, 88
3, 91312, Control_c, 2, 64, 92
3, 91322, Control_c, 2, 67, 96
3, 91378, Control_c, 2, 67, 88
3, 91401, Control_c, 2, 64, 88
3, 91402, Control_c, 2, 67, 80
3, 91418, Control_c, 2, 67, 72
3, 91421, Control_c, 2, 64, 84
3, 91428, Control_c, 2, 67, 64
3, 91437, Control_c, 2, 67, 56
3, 91444, Control_c, 2, 67, 48
3, 91494, Control_c, 2, 64, 80
3, 91504, Control_c, 2, 64, 76
3, 91514, Control_c, 2, 64, 72
3, 91517, Control_c, 2, 64, 68
3, 91522, Control_c, 2, 64, 64
3, 91526, Control_c, 2, 64, 60
3, 91532, Control_c, 2, 64, 44
3, 91589, Control_c, 2, 64, 60
3, 91595, Control_c, 2, 64, 64
3, 91595, Control_c, 2, 67, 56
3, 91599, Control_c, 2, 64, 68
3, 91608, Control_c, 2, 64, 72
3, 91624, Control_c, 2, 64, 76
3, 91637, Control_c, 2, 64, 80
3, 91648, Control_c, 2, 67, 64
3, 91649, Control_c, 2, 64, 84
3, 91657, Control_c, 2, 64, 88
3, 91665, Control_c, 2, 64, 92
3, 91675, Control_c, 2, 64, 100
3, 91695, Control_c, 2, 64, 112
3, 91711, Control_c, 2, 67, 72
3, 91773, Control_c, 2, 67, 80
3, 91809, Control_c, 2, 64, 100
3, 91819, Control_c, 2, 64, 92
3, 91824, Control_c, 2, 64, 88
3, 91824, Control_c, 2, 64, 84
3, 91829, Control_c, 2, 64, 80
3, 91831, Control_c, 2, 64, 76
3, 91834, Control_c, 2, 64, 72
3, 91836, Control_c, 2, 64, 68
3, 91836, Control_c, 2, 64, 64
3, 91838, Control_c, 2, 64, 60
3, 91838, Control_c, 2, 67, 88
3, 91844, Control_c, 2, 64, 44
3, 91847, Control_c, 2, 64, 28
3, 91854, Control_c, 2, 64, 12
3, 91868, Control_c, 2, 67, 96
3, 91886, Control_c, 2, 67, 104
3, 91965, Control_c, 2, 67, 112
3, 92639, Control_c, 2, 67, 104
3, 92697, Control_c, 2, 64, 28
3, 92707, Control_c, 2, 64, 44
3, 92714, Control_c, 2, 64, 60
3, 92717, Control_c, 2, 64, 64
3, 92723, Control_c, 2, 64, 68
3, 92727, Control_c, 2, 64, 72
3, 92742, Control_c, 2, 64, 76
3, 92754, Control_c, 2, 64, 80
3, 92773, Control_c, 2, 64, 84
3, 92780, Control_c, 2, 64, 88
3, 92785, Control_c, 2, 64, 92
3, 92797, Control_c, 2, 64, 100
3, 92815, Control_c, 2, 64, 112
3, 92962, Control_c, 2, 64, 100
3, 92976, Control_c, 2, 64, 92
3, 92981, Control_c, 2, 64, 88
3, 92987, Control_c, 2, 64, 84
3, 92991, Control_c, 2, 64, 80
3, 92993, Control_c, 2, 64, 76
3, 93000, Control_c, 2, 64, 72
3, 93001, Control_c, 2, 64, 68
3, 93009, Control_c, 2, 64, 64
3, 93067, Control_c, 2, 64, 68
3, 93077, Control_c, 2, 64, 72
3, 93087, Control_c, 2, 64, 76
3, 93099, Control_c, 2, 64, 80
3, 93110, Control_c, 2, 64, 84
3, 93118, Control_c, 2, 64, 88
3, 93120, Control_c, 2, 64, 92
3, 93127, Control_c, 2, 64, 100
3, 93140, Control_c, 2, 64, 112
3, 93155, Control_c, 2, 64, 127
3, 93236, Control_c, 2, 64, 112
3, 93256, Control_c, 2, 64, 100
3, 93268, Control_c, 2, 64, 92
3, 93276, Control_c, 2, 64, 88
3, 93277, Control_c, 2, 64, 84
3, 93280, Control_c, 2, 64, 80
3, 93285, Control_c, 2, 64, 76
3, 93288, Control_c, 2, 64, 72
3, 93289, Control_c, 2, 64, 68
3, 93294, Control_c, 2, 64, 64
3, 93296, Control_c, 2, 64, 60
3, 93304, Control_c, 2, 64, 44
3, 93314, Control_c, 2, 64, 28
3, 93326, Control_c, 2, 64, 12
3, 93430, Control_c, 2, 67, 112
3, 94112, Control_c, 2, 64, 28
3, 94122, Control_c, 2, 64, 44
3, 94126, Control_c, 2, 64, 60
3, 94129, Control_c, 2, 64, 64
3, 94134, Control_c, 2, 64, 68
3, 94142, Control_c, 2, 64, 72
3, 94152, Control_c, 2, 64, 76
3, 94172, Control_c, 2, 64, 80
3, 94205, Control_c, 2, 64, 84
3, 94311, Control_c, 2, 64, 80
3, 94366, Control_c, 2, 64, 76
3, 94391, Control_c, 2, 64, 72
3, 94405, Control_c, 2, 64, 68
3, 94414, Control_c, 2, 64, 64
3, 94421, Control_c, 2, 64, 60
3, 94428, Control_c, 2, 64, 44
3, 94437, Control_c, 2, 64, 28
3, 94452, Control_c, 2, 64, 12
3, 94512, Control_c, 2, 67, 104
3, 94514, Control_c, 2, 64, 28
3, 94524, Control_c, 2, 64, 44
3, 94529, Control_c, 2, 64, 60
3, 94532, Control_c, 2, 64, 64
3, 94535, Control_c, 2, 64, 68
3, 94537, Control_c, 2, 64, 72
3, 94542, Control_c, 2, 64, 76
3, 94543, Control_c, 2, 67, 96
3, 94547, Control_c, 2, 64, 80
3, 94562, Control_c, 2, 64, 84
3, 94569, Control_c, 2, 64, 88
3, 94577, Control_c, 2, 64, 92
3, 94585, Control_c, 2, 64, 100
3, 94595, Control_c, 2, 64, 112
3, 94600, Control_c, 2, 64, 127
3, 94676, Control_c, 2, 64, 112
3, 94691, Control_c, 2, 64, 100
3, 94698, Control_c, 2, 64, 92
3, 94704, Control_c, 2, 64, 88
3, 94706, Control_c, 2, 64, 84
3, 94708, Control_c, 2, 64, 80
3, 94711, Control_c, 2, 64, 76
3, 94714, Control_c, 2, 64, 72
3, 94715, Control_c, 2, 64, 68
3, 94719, Control_c, 2, 64, 64
3, 94724, Control_c, 2, 64, 60
3, 94724, Control_c, 2, 67, 104
3, 94731, Control_c, 2, 64, 44
3, 94748, Control_c, 2, 64, 28
3, 94758, Control_c, 2, 64, 12
3, 94771, Control_c, 2, 64, 0
3, 94819, Control_c, 2, 67, 112
3, 94851, Control_c, 2, 64, 12
3, 94864, Control_c, 2, 64, 28
3, 94872, Control_c, 2, 64, 44
3, 94876, Control_c, 2, 64, 60
3, 94882, Control_c, 2, 64, 64
3, 94884, Control_c, 2, 64, 68
3, 94889, Control_c, 2, 64, 72
3, 94899, Control_c, 2, 64, 76
3, 94922, Control_c, 2, 64, 80
3, 94937, Control_c, 2, 64, 84
3, 94947, Control_c, 2, 64, 88
3, 94957, Control_c, 2, 64, 92
3, 94975, Control_c, 2, 64, 100
3, 95164, Control_c, 2, 64, 92
3, 95174, Control_c, 2, 64, 88
3, 95178, Control_c, 2, 64, 84
3, 95182, Control_c, 2, 64, 80
3, 95186, Control_c, 2, 64, 76
3, 95189, Control_c, 2, 64, 72
3, 95192, Control_c, 2, 64, 68
3, 95196, Control_c, 2, 64, 64
3, 95198, Control_c, 2, 64, 60
3, 95204, Control_c, 2, 64, 44
3, 95212, Control_c, 2, 64, 28
3, 95299, Control_c, 2, 64, 44
3, 95307, Control_c, 2, 64, 60
3, 95312, Control_c, 2, 64, 64
3, 95315, Control_c, 2, 64, 68
3, 95322, Control_c, 2, 64, 72
3, 95338, Control_c, 2, 64, 76
3, 95353, Control_c, 2, 64, 80
3, 95370, Control_c, 2, 64, 84
3, 95387, Control_c, 2, 64, 88
3, 95448, Control_c, 2, 64, 84
3, 95487, Control_c, 2, 64, 80
3, 95498, Control_c, 2, 64, 76
3, 95504, Control_c, 2, 64, 72
3, 95509, Control_c, 2, 64, 68
3, 95511, Control_c, 2, 64, 64
3, 95516, Control_c, 2, 64, 60
3, 95518, Control_c, 2, 64, 44
3, 95527, Control_c, 2, 64, 28
3, 95528, Control_c, 2, 64, 12
3, 95534, Control_c, 2, 64, 0
3, 95587, Control_c, 2, 64, 12
3, 95591, Control_c, 2, 64, 28
3, 95597, Control_c, 2, 64, 44
3, 95601, Control_c, 2, 64, 60
3, 95603, Control_c, 2, 64, 64
3, 95604, Control_c, 2, 64, 68
3, 95607, Control_c, 2, 64, 72
3, 95609, Control_c, 2, 64, 76
3, 95615, Control_c, 2, 64, 80
3, 95623, Control_c, 2, 64, 84
3, 95629, Control_c, 2, 64, 88
3, 95639, Control_c, 2, 64, 92
3, 95655, Control_c, 2, 64, 100
3, 95704, Control_c, 2, 64, 92
3, 95717, Control_c, 2, 64, 88
3, 95717, Control_c, 2, 64, 84
3, 95725, Control_c, 2, 64, 80
3, 95730, Control_c, 2, 64, 76
3, 95732, Control_c, 2, 64, 72
3, 95738, Control_c, 2, 64, 68
3, 95738, Control_c, 2, 64, 64
3, 95744, Control_c, 2, 64, 60
3, 95744, Control_c, 2, 64, 44
3, 95750, Control_c, 2, 64, 28
3, 95758, Control_c, 2, 64, 12
3, 95800, Control_c, 2, 64, 28
3, 95808, Control_c, 2, 64, 44
3, 95816, Control_c, 2, 64, 60
3, 95818, Control_c, 2, 64, 64
3, 95823, Control_c, 2, 64, 68
3, 95830, Control_c, 2, 64, 72
3, 95899, Control_c, 2, 64, 68
3, 95914, Control_c, 2, 64, 64
3, 96062, Control_c, 2, 64, 60
3, 96274, Control_c, 2, 64, 44
3, 96303, Control_c, 2, 64, 28
3, 96313, Control_c, 2, 64, 12
3, 96327, Control_c, 2, 64, 0
3, 96616, Control_c, 2, 64, 12
3, 96646, Control_c, 2, 64, 28
3, 96672, Control_c, 2, 64, 44
3, 96684, Control_c, 2, 64, 60
3, 96695, Control_c, 2, 64, 64
3, 96714, Control_c, 2, 64, 68
3, 96734, Control_c, 2, 64, 72
3, 96848, Control_c, 2, 64, 68
3, 96855, Control_c, 2, 64, 64
3, 96866, Control_c, 2, 64, 60
3, 96870, Control_c, 2, 64, 44
3, 96880, Control_c, 2, 64, 28
3, 96890, Control_c, 2, 64, 12
3, 96961, Control_c, 2, 64, 28
3, 96969, Control_c, 2, 64, 44
3, 96976, Control_c, 2, 64, 60
3, 96981, Control_c, 2, 64, 64
3, 96983, Control_c, 2, 64, 68
3, 96992, Control_c, 2, 64, 72
3, 97007, Control_c, 2, 64, 76
3, 97027, Control_c, 2, 64, 80
3, 97112, Control_c, 2, 64, 76
3, 97117, Control_c, 2, 64, 72
3, 97122, Control_c, 2, 64, 68
3, 97127, Control_c, 2, 64, 64
3, 97132, Control_c, 2, 64, 60
3, 97140, Control_c, 2, 64, 44
3, 97159, Control_c, 2, 64, 28
3, 97362, Control_c, 2, 64, 12
3, 98474, Control_c, 2, 64, 0
3, 98613, Control_c, 2, 64, 12
3, 98628, Control_c, 2, 64, 28
3, 98642, Control_c, 2, 64, 44
3, 98650, Control_c, 2, 64, 60
3, 98654, Control_c, 2, 64, 64
3, 98657, Control_c, 2, 64, 68
3, 98668, Control_c, 2, 64, 72
3, 98693, Control_c, 2, 64, 76
3, 98706, Control_c, 2, 64, 80
3, 98724, Control_c, 2, 64, 84
3, 98744, Control_c, 2, 64, 88
3, 98796, Control_c, 2, 64, 84
3, 98812, Control_c, 2, 64, 80
3, 98826, Control_c, 2, 64, 76
3, 98834, Control_c, 2, 64, 72
3, 98841, Control_c, 2, 64, 68
3, 98848, Control_c, 2, 64, 64
3, 98858, Control_c, 2, 64, 60
3, 98864, Control_c, 2, 64, 44
3, 98875, Control_c, 2, 64, 28
3, 98882, Control_c, 2, 64, 12
3, 98941, Control_c, 2, 64, 0
3, 99060, Control_c, 2, 64, 12
3, 99091, Control_c, 2, 64, 28
3, 99110, Control_c, 2, 64, 44
3, 99125, Control_c, 2, 64, 60
3, 99247, Control_c, 2, 64, 44
3, 99267, Control_c, 2, 64, 28
3, 99280, Control_c, 2, 64, 12
3, 99307, Control_c, 2, 64, 0
3, 99327, Control_c, 2, 67, 104
3, 99441, Control_c, 2, 64, 12
3, 99455, Control_c, 2, 64, 28
3, 99467, Control_c, 2, 64, 44
3, 99473, Control_c, 2, 64, 60
3, 99481, Control_c, 2, 64, 64
3, 99485, Control_c, 2, 64, 68
3, 99572, Control_c, 2, 64, 64
3, 99587, Control_c, 2, 64, 60
3, 99601, Control_c, 2, 64, 44
3, 99632, Control_c, 2, 64, 28
3, 99667, Control_c, 2, 64, 12
3, 99740, Control_c, 2, 64, 0
3, 99969, Control_c, 2, 67, 112
3, 100311, Control_c, 2, 64, 12
3, 100329, Control_c, 2, 64, 28
3, 100341, Control_c, 2, 64, 44
3, 100349, Control_c, 2, 64, 60
3, 100355, Control_c, 2, 64, 64
3, 100362, Control_c, 2, 64, 68
3, 100389, Control_c, 2, 64, 72
3, 100565, Control_c, 2, 64, 68
3, 100572, Control_c, 2, 64, 64
3, 100581, Control_c, 2, 64, 60
3, 100589, Control_c, 2, 64, 44
3, 100601, Control_c, 2, 64, 28
3, 100639, Control_c, 2, 64, 12
3, 101005, Control_c, 2, 67, 104
3, 101016, Control_c, 2, 64, 28
3, 101024, Control_c, 2, 64, 44
3, 101031, Control_c, 2, 64, 60
3, 101034, Control_c, 2, 64, 64
3, 101039, Control_c, 2, 64, 68
3, 101047, Control_c, 2, 64, 72
3, 101066, Control_c, 2, 67, 96
3, 101074, Control_c, 2, 64, 76
3, 101109, Control_c, 2, 64, 80
3, 101138, Control_c, 2, 64, 84
3, 101152, Control_c, 2, 67, 88
3, 101155, Control_c, 2, 64, 88
3, 101177, Control_c, 2, 64, 92
3, 101189, Control_c, 2, 67, 80
3, 101214, Control_c, 2, 67, 72
3, 101235, Control_c, 2, 67, 64
3, 101256, Control_c, 2, 67, 56
3, 101263, Control_c, 2, 64, 88
3, 101266, Control_c, 2, 64, 84
3, 101273, Control_c, 2, 64, 80
3, 101279, Control_c, 2, 64, 76
3, 101279, Control_c, 2, 67, 48
3, 101282, Control_c, 2, 64, 72
3, 101286, Control_c, 2, 64, 68
3, 101291, Control_c, 2, 64, 64
3, 101298, Control_c, 2, 64, 60
3, 101306, Control_c, 2, 64, 44
3, 101328, Control_c, 2, 64, 28
3, 101353, Control_c, 2, 64, 12
3, 101409, Control_c, 2, 67, 40
3, 101444, Control_c, 2, 67, 32
3, 101482, Control_c, 2, 67, 24
3, 101512, Control_c, 2, 67, 16
3, 101545, Control_c, 2, 67, 8
3, 101593, Control_c, 2, 67, 0
3, 101774, Control_c, 2, 64, 0
3, 101880, Control_c, 2, 67, 8
3, 101912, Control_c, 2, 64, 12
3, 101922, Control_c, 2, 64, 28
3, 101932, Control_c, 2, 64, 44
3, 101935, Control_c, 2, 64, 60
3, 101940, Control_c, 2, 64, 64
3, 101940, Control_c, 2, 64, 68
3, 101944, Control_c, 2, 64, 72
3, 101948, Control_c, 2, 67, 16
3, 101951, Control_c, 2, 64, 76
3, 101963, Control_c, 2, 64, 80
3, 101981, Control_c, 2, 64, 84
3, 101990, Control_c, 2, 64, 88
3, 101993, Control_c, 2, 67, 24
3, 101994, Control_c, 2, 64, 92
3, 102005, Control_c, 2, 64, 100
3, 102023, Control_c, 2, 64, 112
3, 102031, Control_c, 2, 67, 32
3, 102051, Control_c, 2, 67, 40
3, 102071, Control_c, 2, 67, 48
3, 102101, Control_c, 2, 67, 56
3, 102134, Control_c, 2, 64, 100
3, 102152, Control_c, 2, 67, 64
3, 102164, Control_c, 2, 64, 92
3, 102177, Control_c, 2, 64, 88
3, 102180, Control_c, 2, 64, 84
3, 102184, Control_c, 2, 64, 80
3, 102190, Control_c, 2, 64, 76
3, 102194, Control_c, 2, 64, 72
3, 102197, Control_c, 2, 64, 68
3, 102204, Control_c, 2, 64, 64
3, 102207, Control_c, 2, 64, 60
3, 102215, Control_c, 2, 64, 44
3, 102235, Control_c, 2, 67, 72
3, 102237, Control_c, 2, 64, 28
3, 102262, Control_c, 2, 64, 12
3, 102304, Control_c, 2, 67, 80
3, 102380, Control_c, 2, 67, 88
3, 102435, Control_c, 2, 67, 96
3, 102640, Control_c, 2, 67, 104
3, 102901, Control_c, 2, 67, 112
3, 103603, Control_c, 2, 64, 28
3, 103614, Control_c, 2, 64, 44
3, 103619, Control_c, 2, 64, 60
3, 103621, Control_c, 2, 64, 64
3, 103629, Control_c, 2, 64, 68
3, 103637, Control_c, 2, 64, 72
3, 103672, Control_c, 2, 64, 76
3, 103815, Control_c, 2, 64, 72
3, 103826, Control_c, 2, 64, 68
3, 103836, Control_c, 2, 64, 64
3, 103846, Control_c, 2, 64, 60
3, 103856, Control_c, 2, 64, 44
3, 104016, Control_c, 2, 64, 28
3, 104029, Control_c, 2, 64, 12
3, 104109, Control_c, 2, 64, 0
3, 105404, Control_c, 2, 64, 12
3, 105426, Control_c, 2, 64, 28
3, 105436, Control_c, 2, 64, 44
3, 105444, Control_c, 2, 64, 60
3, 105448, Control_c, 2, 64, 64
3, 105452, Control_c, 2, 64, 68
3, 105477, Control_c, 2, 64, 72
3, 105557, Control_c, 2, 64, 68
3, 105590, Control_c, 2, 64, 64
3, 105600, Control_c, 2, 64, 60
3, 105610, Control_c, 2, 64, 44
3, 105622, Control_c, 2, 64, 28
3, 105632, Control_c, 2, 64, 12
3, 105660, Control_c, 2, 64, 0
3, 105796, Control_c, 2, 64, 12
3, 105809, Control_c, 2, 64, 28
3, 105816, Control_c, 2, 64, 44
3, 105821, Control_c, 2, 64, 60
3, 105824, Control_c, 2, 64, 64
3, 105830, Control_c, 2, 64, 68
3, 105831, Control_c, 2, 64, 72
3, 105859, Control_c, 2, 64, 76
3, 105940, Control_c, 2, 64, 80
3, 105954, Control_c, 2, 64, 76
3, 105970, Control_c, 2, 64, 72
3, 105980, Control_c, 2, 64, 68
3, 105987, Control_c, 2, 64, 64
3, 105998, Control_c, 2, 64, 60
3, 106006, Control_c, 2, 64, 44
3, 106020, Control_c, 2, 64, 28
3, 106033, Control_c, 2, 64, 12
3, 106139, Control_c, 2, 64, 28
3, 106149, Control_c, 2, 64, 44
3, 106156, Control_c, 2, 64, 60
3, 106161, Control_c, 2, 64, 64
3, 106164, Control_c, 2, 64, 68
3, 106174, Control_c, 2, 64, 72
3, 106199, Control_c, 2, 64, 76
3, 106310, Control_c, 2, 64, 72
3, 106323, Control_c, 2, 64, 68
3, 106332, Control_c, 2, 64, 64
3, 106343, Control_c, 2, 64, 60
3, 106350, Control_c, 2, 64, 44
3, 106360, Control_c, 2, 64, 28
3, 106373, Control_c, 2, 64, 12
3, 106490, Control_c, 2, 64, 28
3, 106504, Control_c, 2, 64, 44
3, 106509, Control_c, 2, 64, 60
3, 106511, Control_c, 2, 64, 64
3, 106514, Control_c, 2, 64, 68
3, 106519, Control_c, 2, 64, 72
3, 106536, Control_c, 2, 64, 76
3, 106559, Control_c, 2, 64, 80
3, 106675, Control_c, 2, 64, 76
3, 106690, Control_c, 2, 64, 72
3, 106699, Control_c, 2, 64, 68
3, 106704, Control_c, 2, 64, 64
3, 106713, Control_c, 2, 64, 60
3, 106720, Control_c, 2, 64, 44
3, 106730, Control_c, 2, 64, 28
3, 106742, Control_c, 2, 64, 12
3, 106840, Control_c, 2, 64, 28
3, 106851, Control_c, 2, 64, 44
3, 106861, Control_c, 2, 64, 60
3, 106864, Control_c, 2, 64, 64
3, 106866, Control_c, 2, 64, 68
3, 106873, Control_c, 2, 64, 72
3, 106901, Control_c, 2, 64, 76
3, 106917, Control_c, 2, 64, 80
3, 106985, Control_c, 2, 64, 76
3, 106992, Control_c, 2, 64, 72
3, 107000, Control_c, 2, 64, 68
3, 107004, Control_c, 2, 64, 64
3, 107010, Control_c, 2, 64, 60
3, 107016, Control_c, 2, 64, 44
3, 107030, Control_c, 2, 64, 28
3, 107044, Control_c, 2, 64, 12
3, 107220, Control_c, 2, 64, 28
3, 107229, Control_c, 2, 64, 44
3, 107236, Control_c, 2, 64, 60
3, 107239, Control_c, 2, 64, 64
3, 107243, Control_c, 2, 64, 68
3, 107246, Control_c, 2, 64, 72
3, 107256, Control_c, 2, 64, 76
3, 107274, Control_c, 2, 64, 80
3, 107287, Control_c, 2, 64, 84
3, 107299, Control_c, 2, 64, 88
3, 107307, Control_c, 2, 64, 92
3, 107370, Control_c, 2, 64, 88
3, 107375, Control_c, 2, 64, 84
3, 107383, Control_c, 2, 64, 80
3, 107390, Control_c, 2, 64, 76
3, 107398, Control_c, 2, 64, 72
3, 107405, Control_c, 2, 64, 68
3, 107415, Control_c, 2, 64, 64
3, 107429, Control_c, 2, 64, 60
3, 107437, Control_c, 2, 64, 44
3, 107449, Control_c, 2, 64, 28
3, 107468, Control_c, 2, 64, 12
3, 107550, Control_c, 2, 64, 28
3, 107563, Control_c, 2, 64, 44
3, 107573, Control_c, 2, 64, 60
3, 107576, Control_c, 2, 64, 64
3, 107583, Control_c, 2, 64, 68
3, 107591, Control_c, 2, 64, 72
3, 107614, Control_c, 2, 64, 76
3, 107722, Control_c, 2, 64, 72
3, 107745, Control_c, 2, 64, 68
3, 107760, Control_c, 2, 64, 64
3, 107775, Control_c, 2, 64, 60
3, 107779, Control_c, 2, 64, 44
3, 107793, Control_c, 2, 64, 28
3, 107807, Control_c, 2, 64, 12
3, 107924, Control_c, 2, 64, 28
3, 107936, Control_c, 2, 64, 44
3, 107943, Control_c, 2, 64, 60
3, 107948, Control_c, 2, 64, 64
3, 107951, Control_c, 2, 64, 68
3, 107954, Control_c, 2, 64, 72
3, 107983, Control_c, 2, 64, 76
3, 108009, Control_c, 2, 64, 80
3, 108122, Control_c, 2, 64, 76
3, 108134, Control_c, 2, 64, 72
3, 108145, Control_c, 2, 64, 68
3, 108152, Control_c, 2, 64, 64
3, 108165, Control_c, 2, 64, 60
3, 108172, Control_c, 2, 64, 44
3, 108185, Control_c, 2, 64, 28
3, 108195, Control_c, 2, 64, 12
3, 108305, Control_c, 2, 64, 28
3, 108313, Control_c, 2, 64, 44
3, 108321, Control_c, 2, 64, 60
3, 108325, Control_c, 2, 64, 64
3, 108332, Control_c, 2, 64, 68
3, 108336, Control_c, 2, 64, 72
3, 108364, Control_c, 2, 64, 76
3, 108384, Control_c, 2, 64, 80
3, 108465, Control_c, 2, 64, 76
3, 108481, Control_c, 2, 64, 72
3, 108495, Control_c, 2, 64, 68
3, 108505, Control_c, 2, 64, 64
3, 108515, Control_c, 2, 64, 60
3, 108523, Control_c, 2, 64, 44
3, 108530, Control_c, 2, 64, 28
3, 108538, Control_c, 2, 64, 12
3, 108545, Control_c, 2, 64, 0
3, 108638, Control_c, 2, 64, 12
3, 108654, Control_c, 2, 64, 28
3, 108660, Control_c, 2, 64, 44
3, 108668, Control_c, 2, 64, 60
3, 108674, Control_c, 2, 64, 64
3, 108675, Control_c, 2, 64, 68
3, 108681, Control_c, 2, 64, 72
3, 108701, Control_c, 2, 64, 76
3, 108727, Control_c, 2, 64, 80
3, 108845, Control_c, 2, 64, 76
3, 108865, Control_c, 2, 64, 72
3, 108877, Control_c, 2, 64, 68
3, 108884, Control_c, 2, 64, 64
3, 108890, Control_c, 2, 64, 60
3, 108897, Control_c, 2, 64, 44
3, 108907, Control_c, 2, 64, 28
3, 108914, Control_c, 2, 64, 12
3, 109134, Control_c, 2, 67, 127
3, 109202, Control_c, 2, 64, 0
3, 109430, Control_c, 2, 64, 12
3, 109451, Control_c, 2, 64, 28
3, 109464, Control_c, 2, 64, 44
3, 109474, Control_c, 2, 64, 60
3, 109482, Control_c, 2, 64, 64
3, 109492, Control_c, 2, 64, 68
3, 109511, Control_c, 2, 64, 72
3, 109542, Control_c, 2, 64, 76
3, 109667, Control_c, 2, 64, 72
3, 109678, Control_c, 2, 64, 68
3, 109685, Control_c, 2, 64, 64
3, 109703, Control_c, 2, 64, 60
3, 109758, Control_c, 2, 64, 64
3, 109778, Control_c, 2, 64, 68
3, 109800, Control_c, 2, 64, 72
3, 109821, Control_c, 2, 64, 76
3, 109843, Control_c, 2, 64, 80
3, 109863, Control_c, 2, 64, 84
3, 109882, Control_c, 2, 64, 88
3, 109897, Control_c, 2, 64, 92
3, 109927, Control_c, 2, 64, 100
3, 109992, Control_c, 2, 64, 92
3, 110004, Control_c, 2, 64, 88
3, 110010, Control_c, 2, 64, 84
3, 110016, Control_c, 2, 64, 80
3, 110018, Control_c, 2, 64, 76
3, 110026, Control_c, 2, 64, 72
3, 110027, Control_c, 2, 64, 68
3, 110033, Control_c, 2, 64, 64
3, 110036, Control_c, 2, 64, 60
3, 110040, Control_c, 2, 64, 44
3, 110055, Control_c, 2, 64, 28
3, 110073, Control_c, 2, 64, 12
3, 110314, Control_c, 2, 64, 28
3, 110330, Control_c, 2, 64, 44
3, 110337, Control_c, 2, 64, 60
3, 110345, Control_c, 2, 64, 64
3, 110355, Control_c, 2, 64, 68
3, 110443, Control_c, 2, 64, 64
3, 110465, Control_c, 2, 64, 60
3, 110489, Control_c, 2, 64, 44
3, 110996, Control_c, 2, 64, 60
3, 111014, Control_c, 2, 64, 64
3, 111029, Control_c, 2, 64, 68
3, 111055, Control_c, 2, 64, 72
3, 111211, Control_c, 2, 64, 68
3, 111224, Control_c, 2, 64, 64
3, 111238, Control_c, 2, 64, 60
3, 111322, Control_c, 2, 64, 64
3, 111348, Control_c, 2, 64, 68
3, 111488, Control_c, 2, 64, 64
3, 111538, Control_c, 2, 64, 60
3, 111564, Control_c, 2, 64, 44
3, 112504, Control_c, 2, 64, 60
3, 112522, Control_c, 2, 64, 64
3, 112540, Control_c, 2, 64, 68
3, 112562, Control_c, 2, 64, 72
3, 112665, Control_c, 2, 64, 68
3, 112683, Control_c, 2, 64, 64
3, 112700, Control_c, 2, 64, 60
3, 112718, Control_c, 2, 64, 44
3, 112787, Control_c, 2, 64, 60
3, 112810, Control_c, 2, 64, 64
3, 112839, Control_c, 2, 64, 68
3, 113026, Control_c, 2, 64, 64
3, 113043, Control_c, 2, 64, 60
3, 113066, Control_c, 2, 64, 44
3, 113131, Control_c, 2, 64, 60
3, 113149, Control_c, 2, 64, 64
3, 113173, Control_c, 2, 64, 68
3, 113214, Control_c, 2, 64, 72
3, 113358, Control_c, 2, 64, 68
3, 113380, Control_c, 2, 64, 64
3, 113390, Control_c, 2, 64, 60
3, 113401, Control_c, 2, 64, 44
3, 113413, Control_c, 2, 64, 28
3, 113444, Control_c, 2, 64, 12
3, 113503, Control_c, 2, 64, 28
3, 113525, Control_c, 2, 64, 44
3, 113539, Control_c, 2, 64, 60
3, 113549, Control_c, 2, 64, 64
3, 113574, Control_c, 2, 64, 68
3, 113695, Control_c, 2, 64, 64
3, 113725, Control_c, 2, 64, 60
3, 113740, Control_c, 2, 64, 44
3, 113869, Control_c, 2, 64, 60
3, 113881, Control_c, 2, 64, 64
3, 113902, Control_c, 2, 64, 68
3, 113926, Control_c, 2, 64, 72
3, 113992, Control_c, 2, 64, 76
3, 114112, Control_c, 2, 64, 72
3, 114121, Control_c, 2, 64, 68
3, 114125, Control_c, 2, 64, 64
3, 114132, Control_c, 2, 64, 60
3, 114164, Control_c, 2, 64, 44
3, 114183, Control_c, 2, 64, 60
3, 114195, Control_c, 2, 64, 64
3, 114205, Control_c, 2, 64, 68
3, 114218, Control_c, 2, 64, 72
3, 114236, Control_c, 2, 64, 76
3, 114256, Control_c, 2, 64, 80
3, 114276, Control_c, 2, 64, 84
3, 114292, Control_c, 2, 64, 88
3, 114305, Control_c, 2, 64, 92
3, 114365, Control_c, 2, 64, 100
3, 114444, Control_c, 2, 64, 92
3, 114470, Control_c, 2, 64, 88
3, 114473, Control_c, 2, 64, 84
3, 114489, Control_c, 2, 64, 80
3, 114496, Control_c, 2, 64, 76
3, 114503, Control_c, 2, 64, 72
3, 114510, Control_c, 2, 64, 68
3, 114513, Control_c, 2, 64, 64
3, 114524, Control_c, 2, 64, 60
3, 114601, Control_c, 2, 64, 64
3, 114624, Control_c, 2, 64, 68
3, 114644, Control_c, 2, 64, 72
3, 114672, Control_c, 2, 64, 76
3, 114719, Control_c, 2, 64, 80
3, 114925, Control_c, 2, 64, 76
3, 114944, Control_c, 2, 64, 72
3, 114954, Control_c, 2, 64, 68
3, 114962, Control_c, 2, 64, 64
3, 114976, Control_c, 2, 64, 60
3, 115065, Control_c, 2, 64, 64
3, 115135, Control_c, 2, 64, 68
3, 115276, Control_c, 2, 64, 64
3, 115425, Control_c, 2, 64, 68
3, 115494, Control_c, 2, 64, 72
3, 115613, Control_c, 2, 64, 68
3, 115719, Control_c, 2, 64, 64
3, 116620, Control_c, 2, 64, 68
3, 116696, Control_c, 2, 64, 72
3, 116806, Control_c, 2, 64, 68
3, 116819, Control_c, 2, 64, 64
3, 116847, Control_c, 2, 64, 60
3, 116998, Control_c, 2, 64, 64
3, 117043, Control_c, 2, 64, 68
3, 117121, Control_c, 2, 64, 72
3, 117209, Control_c, 2, 64, 68
3, 117229, Control_c, 2, 64, 64
3, 117256, Control_c, 2, 64, 60
3, 117289, Control_c, 2, 64, 44
3, 118859, Control_c, 2, 64, 28
3, 118868, Control_c, 2, 64, 12
3, 118886, Control_c, 2, 64, 0
3, 119257, Control_c, 2, 64, 12
3, 119271, Control_c, 2, 64, 28
3, 119281, Control_c, 2, 64, 44
3, 119286, Control_c, 2, 64, 60
3, 119290, Control_c, 2, 64, 64
3, 119296, Control_c, 2, 64, 68
3, 119306, Control_c, 2, 64, 72
3, 119351, Control_c, 2, 64, 76
3, 119427, Control_c, 2, 64, 72
3, 119438, Control_c, 2, 64, 68
3, 119442, Control_c, 2, 64, 64
3, 119450, Control_c, 2, 64, 60
3, 119460, Control_c, 2, 64, 44
3, 119472, Control_c, 2, 64, 28
3, 119492, Control_c, 2, 64, 12
3, 119593, Control_c, 2, 64, 0
3, 119690, Control_c, 2, 64, 12
3, 119700, Control_c, 2, 64, 28
3, 119711, Control_c, 2, 64, 44
3, 119719, Control_c, 2, 64, 60
3, 119721, Control_c, 2, 64, 64
3, 119726, Control_c, 2, 64, 68
3, 119742, Control_c, 2, 64, 72
3, 119772, Control_c, 2, 64, 76
3, 119802, Control_c, 2, 64, 80
3, 119927, Control_c, 2, 64, 76
3, 119943, Control_c, 2, 64, 72
3, 119948, Control_c, 2, 64, 68
3, 119953, Control_c, 2, 64, 64
3, 119958, Control_c, 2, 64, 60
3, 119961, Control_c, 2, 64, 44
3, 119968, Control_c, 2, 64, 28
3, 119973, Control_c, 2, 64, 12
3, 120741, Control_c, 2, 64, 28
3, 120748, Control_c, 2, 64, 44
3, 120754, Control_c, 2, 64, 60
3, 120756, Control_c, 2, 64, 64
3, 120758, Control_c, 2, 64, 68
3, 120764, Control_c, 2, 64, 72
3, 120776, Control_c, 2, 64, 76
3, 120793, Control_c, 2, 64, 80
3, 120810, Control_c, 2, 64, 84
3, 120819, Control_c, 2, 64, 88
3, 120831, Control_c, 2, 64, 92
3, 120897, Control_c, 2, 64, 88
3, 120900, Control_c, 2, 64, 84
3, 120905, Control_c, 2, 64, 80
3, 120906, Control_c, 2, 64, 76
3, 120912, Control_c, 2, 64, 72
3, 120915, Control_c, 2, 64, 68
3, 120917, Control_c, 2, 64, 64
3, 120922, Control_c, 2, 64, 60
3, 120927, Control_c, 2, 64, 44
3, 120947, Control_c, 2, 64, 28
3, 120962, Control_c, 2, 64, 12
3, 121066, Control_c, 2, 64, 0
3, 121201, Control_c, 2, 64, 12
3, 121216, Control_c, 2, 64, 28
3, 121224, Control_c, 2, 64, 44
3, 121229, Control_c, 2, 64, 60
3, 121232, Control_c, 2, 64, 64
3, 121237, Control_c, 2, 64, 68
3, 121242, Control_c, 2, 64, 72
3, 121257, Control_c, 2, 64, 76
3, 121277, Control_c, 2, 67, 112
3, 121284, Control_c, 2, 64, 80
3, 121322, Control_c, 2, 67, 104
3, 121382, Control_c, 2, 64, 76
3, 121421, Control_c, 2, 64, 72
3, 121436, Control_c, 2, 64, 68
3, 121445, Control_c, 2, 64, 64
3, 121458, Control_c, 2, 64, 60
3, 121531, Control_c, 2, 64, 64
3, 121547, Control_c, 2, 64, 68
3, 121561, Control_c, 2, 64, 72
3, 121584, Control_c, 2, 64, 76
3, 121606, Control_c, 2, 64, 80
3, 121645, Control_c, 2, 64, 84
3, 121742, Control_c, 2, 64, 80
3, 121757, Control_c, 2, 64, 76
3, 121770, Control_c, 2, 64, 72
3, 121777, Control_c, 2, 64, 68
3, 121788, Control_c, 2, 64, 64
3, 121798, Control_c, 2, 64, 60
3, 121805, Control_c, 2, 64, 44
3, 121815, Control_c, 2, 64, 28
3, 121829, Control_c, 2, 64, 12
3, 122293, Control_c, 2, 64, 28
3, 122306, Control_c, 2, 64, 44
3, 122316, Control_c, 2, 64, 60
3, 122322, Control_c, 2, 64, 64
3, 122329, Control_c, 2, 64, 68
3, 122341, Control_c, 2, 64, 72
3, 122366, Control_c, 2, 64, 76
3, 122390, Control_c, 2, 64, 80
3, 122500, Control_c, 2, 64, 76
3, 122516, Control_c, 2, 64, 72
3, 122521, Control_c, 2, 64, 68
3, 122525, Control_c, 2, 64, 64
3, 122531, Control_c, 2, 64, 60
3, 122538, Control_c, 2, 64, 44
3, 122543, Control_c, 2, 64, 28
3, 122547, Control_c, 2, 64, 12
3, 122557, Control_c, 2, 64, 0
3, 124362, Control_c, 2, 64, 12
3, 124364, Control_c, 2, 67, 96
3, 124376, Control_c, 2, 64, 28
3, 124383, Control_c, 2, 64, 44
3, 124383, Control_c, 2, 67, 88
3, 124390, Control_c, 2, 64, 60
3, 124398, Control_c, 2, 64, 64
3, 124398, Control_c, 2, 67, 80
3, 124406, Control_c, 2, 64, 68
3, 124407, Control_c, 2, 67, 72
3, 124413, Control_c, 2, 67, 64
3, 124418, Control_c, 2, 67, 56
3, 124423, Control_c, 2, 67, 48
3, 124431, Control_c, 2, 67, 40
3, 124564, Control_c, 2, 67, 48
3, 124592, Control_c, 2, 67, 56
3, 124600, Control_c, 2, 64, 64
3, 124612, Control_c, 2, 64, 60
3, 124619, Control_c, 2, 64, 44
3, 124627, Control_c, 2, 64, 28
3, 124635, Control_c, 2, 64, 12
3, 124648, Control_c, 2, 64, 0
3, 124668, Control_c, 2, 67, 64
3, 124778, Control_c, 2, 67, 72
3, 125038, Control_c, 2, 64, 12
3, 125042, Control_c, 2, 64, 28
3, 125048, Control_c, 2, 64, 44
3, 125052, Control_c, 2, 64, 60
3, 125055, Control_c, 2, 64, 64
3, 125055, Control_c, 2, 64, 68
3, 125061, Control_c, 2, 64, 72
3, 125064, Control_c, 2, 64, 76
3, 125073, Control_c, 2, 64, 80
3, 125098, Control_c, 2, 64, 84
3, 125113, Control_c, 2, 64, 88
3, 125143, Control_c, 2, 64, 84
3, 125151, Control_c, 2, 64, 80
3, 125153, Control_c, 2, 64, 76
3, 125159, Control_c, 2, 64, 72
3, 125159, Control_c, 2, 64, 68
3, 125164, Control_c, 2, 64, 64
3, 125164, Control_c, 2, 64, 60
3, 125169, Control_c, 2, 64, 44
3, 125175, Control_c, 2, 64, 28
3, 125181, Control_c, 2, 64, 12
3, 125241, Control_c, 2, 64, 28
3, 125252, Control_c, 2, 64, 44
3, 125262, Control_c, 2, 64, 60
3, 125282, Control_c, 2, 64, 64
3, 125314, Control_c, 2, 64, 60
3, 125324, Control_c, 2, 64, 44
3, 125335, Control_c, 2, 64, 28
3, 125345, Control_c, 2, 64, 12
3, 125369, Control_c, 2, 64, 0
3, 125754, Control_c, 2, 64, 12
3, 125768, Control_c, 2, 64, 28
3, 125772, Control_c, 2, 64, 44
3, 125780, Control_c, 2, 64, 60
3, 125784, Control_c, 2, 64, 64
3, 125791, Control_c, 2, 64, 68
3, 125817, Control_c, 2, 64, 72
3, 125987, Control_c, 2, 64, 68
3, 125992, Control_c, 2, 64, 64
3, 125997, Control_c, 2, 64, 60
3, 126004, Control_c, 2, 64, 44
3, 126011, Control_c, 2, 64, 28
3, 126020, Control_c, 2, 64, 12
3, 126316, Control_c, 2, 67, 80
3, 126353, Control_c, 2, 64, 0
3, 126437, Control_c, 2, 64, 12
3, 126444, Control_c, 2, 64, 28
3, 126453, Control_c, 2, 64, 44
3, 126455, Control_c, 2, 64, 60
3, 126459, Control_c, 2, 64, 64
3, 126459, Control_c, 2, 64, 68
3, 126465, Control_c, 2, 64, 72
3, 126470, Control_c, 2, 64, 76
3, 126490, Control_c, 2, 64, 80
3, 126503, Control_c, 2, 64, 84
3, 126513, Control_c, 2, 64, 88
3, 126523, Control_c, 2, 64, 92
3, 126618, Control_c, 2, 64, 88
3, 126628, Control_c, 2, 64, 84
3, 126644, Control_c, 2, 64, 80
3, 126660, Control_c, 2, 64, 76
3, 126679, Control_c, 2, 64, 72
3, 126689, Control_c, 2, 64, 68
3, 126696, Control_c, 2, 64, 64
3, 126702, Control_c, 2, 64, 60
3, 126709, Control_c, 2, 64, 44
3, 126717, Control_c, 2, 64, 28
3, 126721, Control_c, 2, 64, 12
3, 126732, Control_c, 2, 64, 0
3, 126910, Control_c, 2, 64, 12
3, 126918, Control_c, 2, 64, 28
3, 126928, Control_c, 2, 64, 44
3, 126933, Control_c, 2, 64, 60
3, 126936, Control_c, 2, 64, 64
3, 126940, Control_c, 2, 64, 68
3, 126943, Control_c, 2, 64, 72
3, 127046, Control_c, 2, 64, 68
3, 127053, Control_c, 2, 64, 64
3, 127059, Control_c, 2, 64, 60
3, 127063, Control_c, 2, 64, 44
3, 127071, Control_c, 2, 64, 28
3, 127079, Control_c, 2, 64, 12
3, 127089, Control_c, 2, 64, 0
3, 127160, Control_c, 2, 64, 12
3, 127167, Control_c, 2, 64, 28
3, 127174, Control_c, 2, 64, 44
3, 127180, Control_c, 2, 64, 60
3, 127182, Control_c, 2, 64, 64
3, 127187, Control_c, 2, 64, 68
3, 127192, Control_c, 2, 64, 72
3, 127212, Control_c, 2, 64, 76
3, 127232, Control_c, 2, 64, 80
3, 127310, Control_c, 2, 64, 76
3, 127341, Control_c, 2, 64, 72
3, 127348, Control_c, 2, 64, 68
3, 127358, Control_c, 2, 64, 64
3, 127364, Control_c, 2, 64, 60
3, 127368, Control_c, 2, 64, 44
3, 127374, Control_c, 2, 64, 28
3, 127379, Control_c, 2, 64, 12
3, 127389, Control_c, 2, 64, 0
3, 127879, Control_c, 2, 64, 12
3, 127889, Control_c, 2, 64, 28
3, 127896, Control_c, 2, 64, 44
3, 127905, Control_c, 2, 64, 60
3, 127906, Control_c, 2, 64, 64
3, 127910, Control_c, 2, 64, 68
3, 127917, Control_c, 2, 64, 72
3, 127948, Control_c, 2, 64, 76
3, 128055, Control_c, 2, 64, 72
3, 128063, Control_c, 2, 64, 68
3, 128068, Control_c, 2, 64, 64
3, 128073, Control_c, 2, 64, 60
3, 128078, Control_c, 2, 64, 44
3, 128085, Control_c, 2, 64, 28
3, 128092, Control_c, 2, 64, 12
3, 128095, Control_c, 2, 64, 0
3, 128527, Control_c, 2, 67, 88
3, 129030, Control_c, 2, 64, 12
3, 129038, Control_c, 2, 64, 28
3, 129043, Control_c, 2, 64, 44
3, 129044, Control_c, 2, 64, 60
3, 129048, Control_c, 2, 64, 64
3, 129050, Control_c, 2, 64, 68
3, 129050, Control_c, 2, 64, 72
3, 129054, Control_c, 2, 64, 76
3, 129057, Control_c, 2, 64, 80
3, 129065, Control_c, 2, 64, 84
3, 129070, Control_c, 2, 64, 88
3, 129078, Control_c, 2, 64, 92
3, 129088, Control_c, 2, 64, 100
3, 129168, Control_c, 2, 64, 92
3, 129175, Control_c, 2, 64, 88
3, 129176, Control_c, 2, 64, 84
3, 129181, Control_c, 2, 64, 80
3, 129183, Control_c, 2, 64, 76
3, 129185, Control_c, 2, 64, 72
3, 129189, Control_c, 2, 64, 68
3, 129190, Control_c, 2, 64, 64
3, 129191, Control_c, 2, 64, 60
3, 129195, Control_c, 2, 64, 44
3, 129202, Control_c, 2, 64, 28
3, 129204, Control_c, 2, 64, 12
3, 129314, Control_c, 2, 67, 80
3, 129357, Control_c, 2, 67, 72
3, 129380, Control_c, 2, 67, 64
3, 129398, Control_c, 2, 67, 56
3, 129412, Control_c, 2, 67, 48
3, 129466, Control_c, 2, 67, 40
3, 129505, Control_c, 2, 67, 32
3, 129519, Control_c, 2, 64, 0
3, 129533, Control_c, 2, 67, 24
3, 129556, Control_c, 2, 67, 16
3, 129747, Control_c, 2, 67, 24
3, 130248, Control_c, 2, 64, 12
3, 130263, Control_c, 2, 64, 28
3, 130270, Control_c, 2, 64, 44
3, 130279, Control_c, 2, 64, 60
3, 130284, Control_c, 2, 64, 64
3, 130286, Control_c, 2, 64, 68
3, 130294, Control_c, 2, 64, 72
3, 130379, Control_c, 2, 64, 68
3, 130387, Control_c, 2, 64, 64
3, 130422, Control_c, 2, 64, 60
3, 130436, Control_c, 2, 64, 64
3, 130457, Control_c, 2, 64, 68
3, 130482, Control_c, 2, 64, 72
3, 130535, Control_c, 2, 64, 68
3, 130545, Control_c, 2, 64, 64
3, 130552, Control_c, 2, 64, 60
3, 130557, Control_c, 2, 64, 44
3, 130567, Control_c, 2, 64, 28
3, 130622, Control_c, 2, 64, 44
3, 130638, Control_c, 2, 64, 60
3, 130699, Control_c, 2, 64, 44
3, 130720, Control_c, 2, 64, 28
3, 130759, Control_c, 2, 67, 16
3, 130830, Control_c, 2, 67, 8
3, 130885, Control_c, 2, 64, 12
3, 130897, Control_c, 2, 64, 0
3, 130935, Control_c, 2, 67, 0
3, 130958, Control_c, 2, 64, 12
3, 130968, Control_c, 2, 64, 28
3, 130975, Control_c, 2, 64, 44
3, 130982, Control_c, 2, 64, 60
3, 130985, Control_c, 2, 64, 64
3, 130990, Control_c, 2, 64, 68
3, 130996, Control_c, 2, 64, 72
3, 131026, Control_c, 2, 64, 76
3, 131124, Control_c, 2, 64, 80
3, 131225, Control_c, 2, 64, 76
3, 131232, Control_c, 2, 64, 72
3, 131243, Control_c, 2, 64, 68
3, 131245, Control_c, 2, 64, 64
3, 131258, Control_c, 2, 64, 60
3, 131270, Control_c, 2, 64, 44
3, 131595, Control_c, 2, 64, 60
3, 131604, Control_c, 2, 64, 64
3, 131615, Control_c, 2, 64, 68
3, 131628, Control_c, 2, 64, 72
3, 131643, Control_c, 2, 64, 76
3, 131658, Control_c, 2, 64, 80
3, 131681, Control_c, 2, 64, 84
3, 131732, Control_c, 2, 64, 80
3, 131738, Control_c, 2, 64, 76
3, 131743, Control_c, 2, 64, 72
3, 131745, Control_c, 2, 64, 68
3, 131751, Control_c, 2, 64, 64
3, 131754, Control_c, 2, 64, 60
3, 131759, Control_c, 2, 64, 44
3, 131774, Control_c, 2, 64, 28
3, 131934, Control_c, 2, 64, 12
3, 132315, Control_c, 2, 64, 28
3, 132320, Control_c, 2, 64, 44
3, 132323, Control_c, 2, 64, 60
3, 132324, Control_c, 2, 64, 64
3, 132324, Control_c, 2, 67, 8
3, 132327, Control_c, 2, 64, 68
3, 132329, Control_c, 2, 64, 72
3, 132334, Control_c, 2, 64, 76
3, 132337, Control_c, 2, 64, 80
3, 132356, Control_c, 2, 64, 84
3, 132363, Control_c, 2, 64, 88
3, 132370, Control_c, 2, 64, 92
3, 132382, Control_c, 2, 64, 100
3, 132400, Control_c, 2, 64, 112
3, 132413, Control_c, 2, 64, 127
3, 132528, Control_c, 2, 64, 112
3, 132544, Control_c, 2, 64, 100
3, 132556, Control_c, 2, 64, 92
3, 132564, Control_c, 2, 64, 88
3, 132564, Control_c, 2, 64, 84
3, 132572, Control_c, 2, 64, 80
3, 132576, Control_c, 2, 64, 76
3, 132584, Control_c, 2, 64, 72
3, 132591, Control_c, 2, 64, 68
3, 132602, Control_c, 2, 64, 64
3, 132617, Control_c, 2, 64, 60
3, 132630, Control_c, 2, 64, 44
3, 132647, Control_c, 2, 64, 28
3, 132672, Control_c, 2, 64, 12
3, 132740, Control_c, 2, 64, 0
3, 132783, Control_c, 2, 67, 16
3, 132850, Control_c, 2, 64, 12
3, 132870, Control_c, 2, 64, 28
3, 132870, Control_c, 2, 67, 24
3, 132886, Control_c, 2, 64, 44
3, 132893, Control_c, 2, 64, 60
3, 132900, Control_c, 2, 64, 64
3, 132906, Control_c, 2, 64, 68
3, 132914, Control_c, 2, 64, 72
3, 132914, Control_c, 2, 67, 32
3, 132928, Control_c, 2, 67, 40
3, 132934, Control_c, 2, 64, 76
3, 132947, Control_c, 2, 64, 80
3, 132954, Control_c, 2, 67, 48
3, 132963, Control_c, 2, 64, 84
3, 132980, Control_c, 2, 64, 88
3, 132986, Control_c, 2, 64, 92
3, 132994, Control_c, 2, 67, 56
3, 132999, Control_c, 2, 64, 100
3, 133017, Control_c, 2, 64, 112
3, 133040, Control_c, 2, 64, 127
3, 133044, Control_c, 2, 67, 64
3, 133085, Control_c, 2, 67, 72
3, 133121, Control_c, 2, 67, 80
3, 133128, Control_c, 2, 64, 112
3, 133140, Control_c, 2, 64, 100
3, 133151, Control_c, 2, 64, 92
3, 133153, Control_c, 2, 64, 88
3, 133156, Control_c, 2, 64, 84
3, 133162, Control_c, 2, 64, 80
3, 133163, Control_c, 2, 64, 76
3, 133167, Control_c, 2, 64, 72
3, 133173, Control_c, 2, 64, 68
3, 133175, Control_c, 2, 64, 64
3, 133181, Control_c, 2, 64, 60
3, 133186, Control_c, 2, 64, 44
3, 133196, Control_c, 2, 64, 28
3, 133203, Control_c, 2, 64, 12
3, 133219, Control_c, 2, 64, 0
3, 133810, Control_c, 2, 64, 12
3, 133845, Control_c, 2, 64, 28
3, 133875, Control_c, 2, 64, 44
3, 133913, Control_c, 2, 64, 60
3, 133961, Control_c, 2, 64, 44
3, 133982, Control_c, 2, 64, 28
3, 134012, Control_c, 2, 67, 72
3, 134049, Control_c, 2, 67, 64
3, 134065, Control_c, 2, 67, 56
3, 134072, Control_c, 2, 67, 48
3, 134087, Control_c, 2, 67, 40
3, 134169, Control_c, 2, 67, 32
3, 134235, Control_c, 2, 67, 24
3, 134310, Control_c, 2, 67, 16
3, 134369, Control_c, 2, 67, 8
3, 134472, Control_c, 2, 67, 0
3, 134491, Control_c, 2, 64, 44
3, 134503, Control_c, 2, 64, 60
3, 134507, Control_c, 2, 64, 64
3, 134513, Control_c, 2, 64, 68
3, 134522, Control_c, 2, 64, 72
3, 134549, Control_c, 2, 64, 76
3, 134580, Control_c, 2, 64, 80
3, 134648, Control_c, 2, 64, 76
3, 134652, Control_c, 2, 67, 8
3, 134656, Control_c, 2, 64, 72
3, 134661, Control_c, 2, 64, 68
3, 134666, Control_c, 2, 64, 64
3, 134671, Control_c, 2, 64, 60
3, 134676, Control_c, 2, 64, 44
3, 134714, Control_c, 2, 67, 16
3, 134715, Control_c, 2, 64, 60
3, 134725, Control_c, 2, 64, 64
3, 134733, Control_c, 2, 64, 68
3, 134741, Control_c, 2, 64, 72
3, 134762, Control_c, 2, 64, 76
3, 134826, Control_c, 2, 67, 24
3, 134829, Control_c, 2, 64, 72
3, 134836, Control_c, 2, 64, 68
3, 134844, Control_c, 2, 64, 64
3, 134852, Control_c, 2, 64, 60
3, 134865, Control_c, 2, 64, 44
3, 134894, Control_c, 2, 67, 32
3, 134925, Control_c, 2, 67, 40
3, 134950, Control_c, 2, 64, 60
3, 134955, Control_c, 2, 67, 48
3, 134958, Control_c, 2, 64, 64
3, 134971, Control_c, 2, 64, 68
3, 134986, Control_c, 2, 64, 72
3, 134998, Control_c, 2, 67, 56
3, 135000, Control_c, 2, 64, 76
3, 135013, Control_c, 2, 64, 80
3, 135037, Control_c, 2, 64, 84
3, 135051, Control_c, 2, 64, 88
3, 135065, Control_c, 2, 64, 92
3, 135065, Control_c, 2, 67, 64
3, 135156, Control_c, 2, 64, 88
3, 135161, Control_c, 2, 64, 84
3, 135169, Control_c, 2, 64, 80
3, 135174, Control_c, 2, 64, 76
3, 135179, Control_c, 2, 64, 72
3, 135184, Control_c, 2, 64, 68
3, 135188, Control_c, 2, 64, 64
3, 135194, Control_c, 2, 64, 60
3, 135199, Control_c, 2, 64, 44
3, 135207, Control_c, 2, 64, 28
3, 135219, Control_c, 2, 64, 12
3, 135275, Control_c, 2, 64, 28
3, 135285, Control_c, 2, 64, 44
3, 135295, Control_c, 2, 64, 60
3, 135298, Control_c, 2, 64, 64
3, 135302, Control_c, 2, 64, 68
3, 135308, Control_c, 2, 64, 72
3, 135323, Control_c, 2, 64, 76
3, 135343, Control_c, 2, 64, 80
3, 135371, Control_c, 2, 64, 84
3, 135393, Control_c, 2, 64, 88
3, 135559, Control_c, 2, 64, 84
3, 135579, Control_c, 2, 64, 80
3, 135585, Control_c, 2, 64, 76
3, 135591, Control_c, 2, 64, 72
3, 135595, Control_c, 2, 64, 68
3, 135600, Control_c, 2, 64, 64
3, 135612, Control_c, 2, 64, 60
3, 135684, Control_c, 2, 64, 64
3, 135698, Control_c, 2, 64, 68
3, 135708, Control_c, 2, 64, 72
3, 135720, Control_c, 2, 64, 76
3, 135736, Control_c, 2, 64, 80
3, 135736, Control_c, 2, 67, 72
3, 135750, Control_c, 2, 64, 84
3, 135759, Control_c, 2, 64, 88
3, 135765, Control_c, 2, 64, 92
3, 135770, Control_c, 2, 64, 100
3, 135783, Control_c, 2, 64, 112
3, 135793, Control_c, 2, 64, 127
3, 135824, Control_c, 2, 67, 80
3, 136014, Control_c, 2, 64, 112
3, 136030, Control_c, 2, 64, 100
3, 136038, Control_c, 2, 64, 92
3, 136044, Control_c, 2, 64, 88
3, 136044, Control_c, 2, 64, 84
3, 136053, Control_c, 2, 64, 80
3, 136056, Control_c, 2, 64, 76
3, 136058, Control_c, 2, 64, 72
3, 136063, Control_c, 2, 64, 68
3, 136066, Control_c, 2, 64, 64
3, 136070, Control_c, 2, 64, 60
3, 136075, Control_c, 2, 64, 44
3, 136087, Control_c, 2, 64, 28
3, 136103, Control_c, 2, 64, 12
3, 136257, Control_c, 2, 67, 88
3, 136322, Control_c, 2, 67, 96
3, 136378, Control_c, 2, 67, 104
3, 136453, Control_c, 2, 67, 112
3, 137694, Control_c, 2, 64, 28
3, 137713, Control_c, 2, 64, 44
3, 137722, Control_c, 2, 64, 60
3, 137726, Control_c, 2, 64, 64
3, 137734, Control_c, 2, 64, 68
3, 137749, Control_c, 2, 64, 72
3, 137769, Control_c, 2, 64, 76
3, 137784, Control_c, 2, 64, 80
3, 137802, Control_c, 2, 64, 84
3, 137819, Control_c, 2, 64, 88
3, 137832, Control_c, 2, 64, 92
3, 137847, Control_c, 2, 64, 100
3, 137950, Control_c, 2, 64, 92
3, 137952, Control_c, 2, 64, 88
3, 137956, Control_c, 2, 64, 84
3, 137958, Control_c, 2, 64, 80
3, 137961, Control_c, 2, 64, 76
3, 137964, Control_c, 2, 64, 72
3, 137966, Control_c, 2, 64, 68
3, 137968, Control_c, 2, 64, 64
3, 137970, Control_c, 2, 64, 60
3, 137978, Control_c, 2, 64, 44
3, 138024, Control_c, 2, 64, 60
3, 138033, Control_c, 2, 64, 64
3, 138041, Control_c, 2, 64, 68
3, 138052, Control_c, 2, 64, 72
3, 138066, Control_c, 2, 64, 76
3, 138076, Control_c, 2, 64, 80
3, 138095, Control_c, 2, 64, 84
3, 138102, Control_c, 2, 64, 88
3, 138112, Control_c, 2, 64, 92
3, 138119, Control_c, 2, 64, 100
3, 138143, Control_c, 2, 64, 112
3, 138348, Control_c, 2, 64, 100
3, 138371, Control_c, 2, 64, 92
3, 138381, Control_c, 2, 64, 88
3, 138384, Control_c, 2, 64, 84
3, 138392, Control_c, 2, 64, 80
3, 138399, Control_c, 2, 64, 76
3, 138404, Control_c, 2, 64, 72
3, 138408, Control_c, 2, 64, 68
3, 138414, Control_c, 2, 64, 64
3, 138424, Control_c, 2, 64, 60
3, 138432, Control_c, 2, 64, 44
3, 138522, Control_c, 2, 64, 60
3, 138534, Control_c, 2, 64, 64
3, 138544, Control_c, 2, 64, 68
3, 138565, Control_c, 2, 64, 72
3, 138592, Control_c, 2, 64, 76
3, 138646, Control_c, 2, 64, 80
3, 138768, Control_c, 2, 64, 76
3, 138784, Control_c, 2, 64, 72
3, 138792, Control_c, 2, 64, 68
3, 138807, Control_c, 2, 64, 64
3, 138877, Control_c, 2, 64, 68
3, 138887, Control_c, 2, 64, 72
3, 138907, Control_c, 2, 64, 76
3, 138922, Control_c, 2, 64, 80
3, 138943, Control_c, 2, 64, 84
3, 138957, Control_c, 2, 64, 88
3, 138970, Control_c, 2, 64, 92
3, 139002, Control_c, 2, 64, 100
3, 139066, Control_c, 2, 64, 92
3, 139083, Control_c, 2, 64, 88
3, 139088, Control_c, 2, 64, 84
3, 139094, Control_c, 2, 64, 80
3, 139098, Control_c, 2, 64, 76
3, 139104, Control_c, 2, 64, 72
3, 139108, Control_c, 2, 64, 68
3, 139114, Control_c, 2, 64, 64
3, 139116, Control_c, 2, 64, 60
3, 139120, Control_c, 2, 64, 44
3, 139132, Control_c, 2, 64, 28
3, 139140, Control_c, 2, 64, 12
3, 139147, Control_c, 2, 64, 0
3, 139268, Control_c, 2, 64, 12
3, 139287, Control_c, 2, 64, 28
3, 139304, Control_c, 2, 64, 44
3, 139317, Control_c, 2, 64, 60
3, 139324, Control_c, 2, 64, 64
3, 139338, Control_c, 2, 64, 68
3, 139363, Control_c, 2, 64, 72
3, 139397, Control_c, 2, 64, 76
3, 139559, Control_c, 2, 64, 80
3, 139609, Control_c, 2, 64, 84
3, 139642, Control_c, 2, 64, 88
3, 139737, Control_c, 2, 64, 84
3, 139766, Control_c, 2, 64, 80
3, 139776, Control_c, 2, 64, 76
3, 139783, Control_c, 2, 64, 72
3, 139793, Control_c, 2, 64, 68
3, 139796, Control_c, 2, 64, 64
3, 139800, Control_c, 2, 64, 60
3, 139809, Control_c, 2, 64, 44
3, 139813, Control_c, 2, 64, 28
3, 139819, Control_c, 2, 64, 12
3, 139823, Control_c, 2, 64, 0
3, 139957, Control_c, 2, 64, 12
3, 139980, Control_c, 2, 64, 28
3, 139990, Control_c, 2, 64, 44
3, 139997, Control_c, 2, 64, 60
3, 140000, Control_c, 2, 64, 64
3, 140006, Control_c, 2, 64, 68
3, 140015, Control_c, 2, 64, 72
3, 140067, Control_c, 2, 64, 76
3, 140163, Control_c, 2, 64, 80
3, 140232, Control_c, 2, 64, 84
3, 140262, Control_c, 2, 64, 88
3, 140282, Control_c, 2, 64, 92
3, 140433, Control_c, 2, 64, 88
3, 140438, Control_c, 2, 64, 84
3, 140442, Control_c, 2, 64, 80
3, 140448, Control_c, 2, 64, 76
3, 140449, Control_c, 2, 64, 72
3, 140449, Control_c, 2, 64, 68
3, 140455, Control_c, 2, 64, 64
3, 140458, Control_c, 2, 64, 60
3, 140463, Control_c, 2, 64, 44
3, 140468, Control_c, 2, 64, 28
3, 140472, Control_c, 2, 64, 12
3, 140480, Control_c, 2, 64, 0
3, 140659, Control_c, 2, 64, 12
3, 140686, Control_c, 2, 64, 28
3, 140707, Control_c, 2, 64, 44
3, 140718, Control_c, 2, 64, 60
3, 140723, Control_c, 2, 64, 64
3, 140742, Control_c, 2, 64, 68
3, 140782, Control_c, 2, 64, 72
3, 140886, Control_c, 2, 64, 76
3, 140925, Control_c, 2, 64, 80
3, 140969, Control_c, 2, 64, 84
3, 141098, Control_c, 2, 64, 80
3, 141110, Control_c, 2, 64, 76
3, 141118, Control_c, 2, 64, 72
3, 141122, Control_c, 2, 64, 68
3, 141127, Control_c, 2, 64, 64
3, 141132, Control_c, 2, 64, 60
3, 141137, Control_c, 2, 64, 44
3, 141145, Control_c, 2, 64, 28
3, 141153, Control_c, 2, 64, 12
3, 141168, Control_c, 2, 64, 0
3, 141315, Control_c, 2, 64, 12
3, 141349, Control_c, 2, 64, 28
3, 141366, Control_c, 2, 64, 44
3, 141376, Control_c, 2, 64, 60
3, 141384, Control_c, 2, 64, 64
3, 141392, Control_c, 2, 64, 68
3, 141419, Control_c, 2, 64, 72
3, 141455, Control_c, 2, 64, 76
3, 141499, Control_c, 2, 64, 80
3, 141563, Control_c, 2, 64, 84
3, 141601, Control_c, 2, 64, 88
3, 141734, Control_c, 2, 64, 84
3, 141759, Control_c, 2, 64, 80
3, 141771, Control_c, 2, 64, 76
3, 141776, Control_c, 2, 64, 72
3, 141781, Control_c, 2, 64, 68
3, 141786, Control_c, 2, 64, 64
3, 141792, Control_c, 2, 64, 60
3, 141794, Control_c, 2, 64, 44
3, 141802, Control_c, 2, 64, 28
3, 141807, Control_c, 2, 64, 12
3, 141819, Control_c, 2, 64, 0
3, 141928, Control_c, 2, 64, 12
3, 141955, Control_c, 2, 64, 28
3, 141978, Control_c, 2, 64, 44
3, 141991, Control_c, 2, 64, 60
3, 142001, Control_c, 2, 64, 64
3, 142011, Control_c, 2, 64, 68
3, 142039, Control_c, 2, 64, 72
3, 142078, Control_c, 2, 64, 76
3, 142142, Control_c, 2, 64, 80
3, 142355, Control_c, 2, 64, 76
3, 142388, Control_c, 2, 64, 72
3, 142416, Control_c, 2, 64, 68
3, 142434, Control_c, 2, 64, 64
3, 142440, Control_c, 2, 64, 60
3, 142448, Control_c, 2, 64, 44
3, 142457, Control_c, 2, 64, 28
3, 142466, Control_c, 2, 64, 12
3, 142604, Control_c, 2, 64, 28
3, 142612, Control_c, 2, 64, 44
3, 142620, Control_c, 2, 64, 60
3, 142622, Control_c, 2, 64, 64
3, 142624, Control_c, 2, 67, 104
3, 142627, Control_c, 2, 64, 68
3, 142630, Control_c, 2, 64, 72
3, 142640, Control_c, 2, 64, 76
3, 142659, Control_c, 2, 67, 96
3, 142665, Control_c, 2, 64, 80
3, 142701, Control_c, 2, 67, 88
3, 142753, Control_c, 2, 64, 76
3, 142770, Control_c, 2, 64, 72
3, 142779, Control_c, 2, 64, 68
3, 142786, Control_c, 2, 64, 64
3, 142790, Control_c, 2, 64, 60
3, 142796, Control_c, 2, 64, 44
3, 142809, Control_c, 2, 64, 28
3, 142816, Control_c, 2, 64, 12
3, 142911, Control_c, 2, 64, 28
3, 142920, Control_c, 2, 64, 44
3, 142927, Control_c, 2, 64, 60
3, 142930, Control_c, 2, 64, 64
3, 142934, Control_c, 2, 64, 68
3, 142940, Control_c, 2, 64, 72
3, 142952, Control_c, 2, 64, 76
3, 143016, Control_c, 2, 67, 96
3, 143027, Control_c, 2, 64, 72
3, 143035, Control_c, 2, 64, 68
3, 143040, Control_c, 2, 64, 64
3, 143051, Control_c, 2, 64, 60
3, 143063, Control_c, 2, 64, 44
3, 143080, Control_c, 2, 64, 28
3, 143098, Control_c, 2, 64, 12
3, 143128, Control_c, 2, 64, 0
3, 143177, Control_c, 2, 67, 104
3, 143219, Control_c, 2, 67, 112
3, 143241, Control_c, 2, 64, 12
3, 143257, Control_c, 2, 64, 28
3, 143264, Control_c, 2, 64, 44
3, 143271, Control_c, 2, 64, 60
3, 143275, Control_c, 2, 64, 64
3, 143280, Control_c, 2, 64, 68
3, 143287, Control_c, 2, 64, 72
3, 143312, Control_c, 2, 64, 76
3, 143330, Control_c, 2, 64, 80
3, 143358, Control_c, 2, 64, 84
3, 143380, Control_c, 2, 64, 88
3, 143393, Control_c, 2, 64, 92
3, 143417, Control_c, 2, 64, 100
3, 143631, Control_c, 2, 64, 92
3, 143639, Control_c, 2, 64, 88
3, 143639, Control_c, 2, 64, 84
3, 143645, Control_c, 2, 64, 80
3, 143646, Control_c, 2, 64, 76
3, 143650, Control_c, 2, 64, 72
3, 143652, Control_c, 2, 64, 68
3, 143652, Control_c, 2, 64, 64
3, 143656, Control_c, 2, 64, 60
3, 143659, Control_c, 2, 64, 44
3, 143665, Control_c, 2, 64, 28
3, 143674, Control_c, 2, 64, 12
3, 143986, Control_c, 2, 67, 104
3, 144009, Control_c, 2, 67, 96
3, 144024, Control_c, 2, 67, 88
3, 144026, Control_c, 2, 64, 28
3, 144042, Control_c, 2, 67, 80
3, 144045, Control_c, 2, 64, 44
3, 144057, Control_c, 2, 64, 60
3, 144057, Control_c, 2, 67, 72
3, 144062, Control_c, 2, 64, 64
3, 144069, Control_c, 2, 64, 68
3, 144092, Control_c, 2, 64, 72
3, 144118, Control_c, 2, 64, 76
3, 144150, Control_c, 2, 64, 80
3, 144179, Control_c, 2, 64, 84
3, 144192, Control_c, 2, 64, 88
3, 144203, Control_c, 2, 64, 92
3, 144208, Control_c, 2, 67, 80
3, 144218, Control_c, 2, 64, 100
3, 144390, Control_c, 2, 64, 112
3, 144593, Control_c, 2, 64, 100
3, 144605, Control_c, 2, 64, 92
3, 144613, Control_c, 2, 64, 88
3, 144613, Control_c, 2, 64, 84
3, 144618, Control_c, 2, 64, 80
3, 144621, Control_c, 2, 64, 76
3, 144624, Control_c, 2, 64, 72
3, 144628, Control_c, 2, 64, 68
3, 144634, Control_c, 2, 64, 64
3, 144973, Control_c, 2, 64, 60
3, 145139, Control_c, 2, 67, 88
3, 145365, Control_c, 2, 67, 96
3, 145408, Control_c, 2, 64, 64
3, 145424, Control_c, 2, 64, 68
3, 145437, Control_c, 2, 64, 72
3, 145444, Control_c, 2, 67, 104
3, 145452, Control_c, 2, 64, 76
3, 145471, Control_c, 2, 64, 80
3, 145500, Control_c, 2, 67, 112
3, 145584, Control_c, 2, 64, 76
3, 145655, Control_c, 2, 64, 80
3, 145697, Control_c, 2, 64, 84
3, 145718, Control_c, 2, 64, 88
3, 145731, Control_c, 2, 64, 92
3, 145748, Control_c, 2, 64, 100
3, 146031, Control_c, 2, 64, 92
3, 146055, Control_c, 2, 64, 88
3, 146060, Control_c, 2, 64, 84
3, 146072, Control_c, 2, 64, 80
3, 146078, Control_c, 2, 64, 76
3, 146087, Control_c, 2, 64, 72
3, 146094, Control_c, 2, 64, 68
3, 146100, Control_c, 2, 64, 64
3, 146129, Control_c, 2, 64, 60
3, 146375, Control_c, 2, 64, 44
3, 146391, Control_c, 2, 64, 28
3, 146410, Control_c, 2, 64, 12
3, 146889, Control_c, 2, 64, 28
3, 146907, Control_c, 2, 64, 44
3, 146919, Control_c, 2, 64, 60
3, 146929, Control_c, 2, 64, 64
3, 146940, Control_c, 2, 64, 68
3, 146964, Control_c, 2, 64, 72
3, 146994, Control_c, 2, 64, 76
3, 147037, Control_c, 2, 64, 80
3, 147144, Control_c, 2, 64, 84
3, 147199, Control_c, 2, 64, 88
3, 147213, Control_c, 2, 64, 92
3, 147418, Control_c, 2, 64, 88
3, 147420, Control_c, 2, 64, 84
3, 147432, Control_c, 2, 64, 80
3, 147437, Control_c, 2, 64, 76
3, 147443, Control_c, 2, 64, 72
3, 147448, Control_c, 2, 64, 68
3, 147450, Control_c, 2, 64, 64
3, 147456, Control_c, 2, 64, 60
3, 147463, Control_c, 2, 64, 44
3, 148228, Control_c, 2, 64, 60
3, 148241, Control_c, 2, 64, 64
3, 148251, Control_c, 2, 64, 68
3, 148264, Control_c, 2, 64, 72
3, 148278, Control_c, 2, 64, 76
3, 148296, Control_c, 2, 64, 80
3, 148319, Control_c, 2, 64, 84
3, 148342, Control_c, 2, 64, 88
3, 148422, Control_c, 2, 64, 84
3, 148432, Control_c, 2, 64, 80
3, 148439, Control_c, 2, 64, 76
3, 148445, Control_c, 2, 64, 72
3, 148452, Control_c, 2, 64, 68
3, 148458, Control_c, 2, 64, 64
3, 148464, Control_c, 2, 64, 60
3, 148470, Control_c, 2, 64, 44
3, 148480, Control_c, 2, 64, 28
3, 148492, Control_c, 2, 64, 12
3, 148893, Control_c, 2, 64, 28
3, 148903, Control_c, 2, 64, 44
3, 148910, Control_c, 2, 64, 60
3, 148915, Control_c, 2, 64, 64
3, 148918, Control_c, 2, 64, 68
3, 148920, Control_c, 2, 67, 104
3, 148922, Control_c, 2, 64, 72
3, 148942, Control_c, 2, 64, 76
3, 148955, Control_c, 2, 67, 96
3, 148961, Control_c, 2, 64, 80
3, 148980, Control_c, 2, 64, 84
3, 148981, Control_c, 2, 67, 88
3, 148998, Control_c, 2, 64, 88
3, 149004, Control_c, 2, 67, 80
3, 149014, Control_c, 2, 64, 92
3, 149021, Control_c, 2, 67, 72
3, 149036, Control_c, 2, 67, 64
3, 149057, Control_c, 2, 67, 56
3, 149117, Control_c, 2, 64, 88
3, 149117, Control_c, 2, 64, 84
3, 149120, Control_c, 2, 67, 64
3, 149120, Control_c, 2, 64, 80
3, 149124, Control_c, 2, 64, 76
3, 149129, Control_c, 2, 64, 72
3, 149131, Control_c, 2, 64, 68
3, 149137, Control_c, 2, 64, 64
3, 149139, Control_c, 2, 64, 60
3, 149145, Control_c, 2, 64, 44
3, 149151, Control_c, 2, 64, 28
3, 149165, Control_c, 2, 64, 12
3, 149272, Control_c, 2, 64, 28
3, 149469, Control_c, 2, 64, 12
3, 149563, Control_c, 2, 64, 28
3, 149574, Control_c, 2, 64, 44
3, 149580, Control_c, 2, 64, 60
3, 149582, Control_c, 2, 64, 64
3, 149584, Control_c, 2, 64, 68
3, 149588, Control_c, 2, 64, 72
3, 149595, Control_c, 2, 64, 76
3, 149608, Control_c, 2, 64, 80
3, 149625, Control_c, 2, 64, 84
3, 149633, Control_c, 2, 64, 88
3, 149640, Control_c, 2, 64, 92
3, 149653, Control_c, 2, 64, 100
3, 149798, Control_c, 2, 64, 92
3, 149809, Control_c, 2, 64, 88
3, 149811, Control_c, 2, 64, 84
3, 149821, Control_c, 2, 64, 80
3, 149824, Control_c, 2, 64, 76
3, 149831, Control_c, 2, 64, 72
3, 149837, Control_c, 2, 64, 68
3, 149840, Control_c, 2, 64, 64
3, 149846, Control_c, 2, 64, 60
3, 149851, Control_c, 2, 64, 44
3, 149859, Control_c, 2, 64, 28
3, 149874, Control_c, 2, 64, 12
3, 149929, Control_c, 2, 64, 28
3, 149940, Control_c, 2, 64, 44
3, 149944, Control_c, 2, 64, 60
3, 149950, Control_c, 2, 64, 64
3, 149954, Control_c, 2, 64, 68
3, 150021, Control_c, 2, 64, 64
3, 150031, Control_c, 2, 64, 60
3, 150039, Control_c, 2, 64, 44
3, 150153, Control_c, 2, 67, 72
3, 150179, Control_c, 2, 64, 28
3, 150355, Control_c, 2, 67, 80
3, 150742, Control_c, 2, 64, 44
3, 150753, Control_c, 2, 64, 60
3, 150757, Control_c, 2, 64, 64
3, 150761, Control_c, 2, 64, 68
3, 150768, Control_c, 2, 64, 72
3, 150780, Control_c, 2, 64, 76
3, 150796, Control_c, 2, 64, 80
3, 150824, Control_c, 2, 64, 84
3, 150863, Control_c, 2, 64, 80
3, 150873, Control_c, 2, 64, 76
3, 150882, Control_c, 2, 64, 72
3, 150887, Control_c, 2, 64, 68
3, 150894, Control_c, 2, 64, 64
3, 150900, Control_c, 2, 64, 60
3, 150909, Control_c, 2, 64, 44
3, 150922, Control_c, 2, 64, 28
3, 150934, Control_c, 2, 64, 12
3, 151080, Control_c, 2, 64, 28
3, 151085, Control_c, 2, 64, 44
3, 151090, Control_c, 2, 64, 60
3, 151095, Control_c, 2, 64, 64
3, 151098, Control_c, 2, 64, 68
3, 151102, Control_c, 2, 64, 72
3, 151110, Control_c, 2, 64, 76
3, 151201, Control_c, 2, 64, 72
3, 151209, Control_c, 2, 64, 68
3, 151213, Control_c, 2, 64, 64
3, 151221, Control_c, 2, 64, 60
3, 151225, Control_c, 2, 64, 44
3, 151239, Control_c, 2, 64, 28
3, 151248, Control_c, 2, 64, 12
3, 151546, Control_c, 2, 64, 0
3, 151668, Control_c, 2, 64, 12
3, 151677, Control_c, 2, 64, 28
3, 151683, Control_c, 2, 64, 44
3, 151689, Control_c, 2, 64, 60
3, 151694, Control_c, 2, 64, 64
3, 151698, Control_c, 2, 64, 68
3, 151699, Control_c, 2, 64, 72
3, 151712, Control_c, 2, 64, 76
3, 151738, Control_c, 2, 64, 80
3, 151792, Control_c, 2, 64, 76
3, 151800, Control_c, 2, 64, 72
3, 151805, Control_c, 2, 64, 68
3, 151810, Control_c, 2, 64, 64
3, 151818, Control_c, 2, 64, 60
3, 151823, Control_c, 2, 64, 44
3, 151836, Control_c, 2, 64, 28
3, 151848, Control_c, 2, 64, 12
3, 151869, Control_c, 2, 67, 88
3, 151885, Control_c, 2, 64, 0
3, 152022, Control_c, 2, 67, 96
3, 152354, Control_c, 2, 64, 12
3, 152367, Control_c, 2, 64, 28
3, 152372, Control_c, 2, 64, 44
3, 152378, Control_c, 2, 64, 60
3, 152382, Control_c, 2, 64, 64
3, 152387, Control_c, 2, 64, 68
3, 152392, Control_c, 2, 64, 72
3, 152404, Control_c, 2, 64, 76
3, 152424, Control_c, 2, 64, 80
3, 152446, Control_c, 2, 64, 84
3, 152460, Control_c, 2, 64, 88
3, 152475, Control_c, 2, 64, 92
3, 152553, Control_c, 2, 64, 88
3, 152555, Control_c, 2, 64, 84
3, 152561, Control_c, 2, 64, 80
3, 152566, Control_c, 2, 64, 76
3, 152568, Control_c, 2, 64, 72
3, 152572, Control_c, 2, 64, 68
3, 152575, Control_c, 2, 64, 64
3, 152578, Control_c, 2, 64, 60
3, 152583, Control_c, 2, 64, 44
3, 152588, Control_c, 2, 64, 28
3, 152595, Control_c, 2, 64, 12
3, 153645, Control_c, 2, 64, 0
3, 153673, Control_c, 2, 67, 88
3, 153703, Control_c, 2, 67, 80
3, 153703, Control_c, 2, 64, 12
3, 153716, Control_c, 2, 67, 72
3, 153716, Control_c, 2, 64, 28
3, 153722, Control_c, 2, 64, 44
3, 153726, Control_c, 2, 67, 64
3, 153730, Control_c, 2, 64, 60
3, 153733, Control_c, 2, 64, 64
3, 153738, Control_c, 2, 64, 68
3, 153738, Control_c, 2, 67, 56
3, 153740, Control_c, 2, 64, 72
3, 153756, Control_c, 2, 64, 76
3, 153779, Control_c, 2, 64, 80
3, 153929, Control_c, 2, 64, 76
3, 153942, Control_c, 2, 64, 72
3, 153950, Control_c, 2, 64, 68
3, 153958, Control_c, 2, 64, 64
3, 153965, Control_c, 2, 64, 60
3, 153976, Control_c, 2, 64, 44
3, 154008, Control_c, 2, 64, 28
3, 154043, Control_c, 2, 67, 64
3, 154276, Control_c, 2, 64, 12
3, 154312, Control_c, 2, 64, 0
3, 154445, Control_c, 2, 64, 12
3, 154458, Control_c, 2, 64, 28
3, 154459, Control_c, 2, 67, 72
3, 154468, Control_c, 2, 64, 44
3, 154476, Control_c, 2, 64, 60
3, 154480, Control_c, 2, 64, 64
3, 154486, Control_c, 2, 64, 68
3, 154503, Control_c, 2, 64, 72
3, 154780, Control_c, 2, 64, 68
3, 154786, Control_c, 2, 64, 64
3, 154792, Control_c, 2, 64, 60
3, 154796, Control_c, 2, 64, 44
3, 154806, Control_c, 2, 64, 28
3, 154810, Control_c, 2, 64, 12
3, 154861, Control_c, 2, 64, 28
3, 154865, Control_c, 2, 64, 44
3, 154871, Control_c, 2, 64, 60
3, 154872, Control_c, 2, 64, 64
3, 154874, Control_c, 2, 64, 68
3, 154875, Control_c, 2, 64, 72
3, 154882, Control_c, 2, 64, 76
3, 154884, Control_c, 2, 64, 80
3, 154904, Control_c, 2, 64, 84
3, 154934, Control_c, 2, 64, 80
3, 154936, Control_c, 2, 64, 76
3, 154942, Control_c, 2, 64, 72
3, 154945, Control_c, 2, 64, 68
3, 154945, Control_c, 2, 64, 64
3, 154948, Control_c, 2, 64, 60
3, 154952, Control_c, 2, 64, 44
3, 154958, Control_c, 2, 64, 28
3, 154965, Control_c, 2, 64, 12
3, 154972, Control_c, 2, 64, 0
3, 155027, Control_c, 2, 67, 80
3, 155241, Control_c, 2, 64, 12
3, 155251, Control_c, 2, 64, 28
3, 155259, Control_c, 2, 64, 44
3, 155266, Control_c, 2, 64, 60
3, 155270, Control_c, 2, 64, 64
3, 155274, Control_c, 2, 64, 68
3, 155278, Control_c, 2, 64, 72
3, 155344, Control_c, 2, 64, 68
3, 155352, Control_c, 2, 64, 64
3, 155359, Control_c, 2, 64, 60
3, 155367, Control_c, 2, 64, 44
3, 155381, Control_c, 2, 64, 28
3, 155392, Control_c, 2, 64, 12
3, 155595, Control_c, 2, 67, 88
3, 155699, Control_c, 2, 67, 96
3, 155796, Control_c, 2, 67, 104
3, 156574, Control_c, 2, 64, 28
3, 156587, Control_c, 2, 64, 44
3, 156596, Control_c, 2, 67, 96
3, 156596, Control_c, 2, 64, 60
3, 156607, Control_c, 2, 64, 64
3, 156643, Control_c, 2, 67, 88
3, 156694, Control_c, 2, 64, 68
3, 156708, Control_c, 2, 67, 80
3, 156716, Control_c, 2, 64, 72
3, 156746, Control_c, 2, 67, 72
3, 156751, Control_c, 2, 64, 76
3, 156767, Control_c, 2, 67, 64
3, 156783, Control_c, 2, 67, 56
3, 156789, Control_c, 2, 64, 80
3, 156802, Control_c, 2, 67, 48
3, 156851, Control_c, 2, 64, 84
3, 156873, Control_c, 2, 67, 40
3, 156899, Control_c, 2, 64, 88
3, 156926, Control_c, 2, 67, 32
3, 156973, Control_c, 2, 67, 24
3, 156990, Control_c, 2, 64, 84
3, 157006, Control_c, 2, 64, 80
3, 157016, Control_c, 2, 64, 76
3, 157016, Control_c, 2, 67, 16
3, 157021, Control_c, 2, 64, 72
3, 157029, Control_c, 2, 64, 68
3, 157030, Control_c, 2, 64, 64
3, 157038, Control_c, 2, 64, 60
3, 157044, Control_c, 2, 64, 44
3, 157050, Control_c, 2, 67, 8
3, 157050, Control_c, 2, 64, 28
3, 157058, Control_c, 2, 64, 12
3, 157112, Control_c, 2, 67, 0
3, 157189, Control_c, 2, 64, 28
3, 157202, Control_c, 2, 64, 44
3, 157212, Control_c, 2, 64, 60
3, 157222, Control_c, 2, 64, 64
3, 157229, Control_c, 2, 64, 68
3, 157245, Control_c, 2, 64, 72
3, 157262, Control_c, 2, 64, 76
3, 157280, Control_c, 2, 64, 80
3, 157299, Control_c, 2, 64, 84
3, 157320, Control_c, 2, 64, 88
3, 157335, Control_c, 2, 64, 92
3, 157476, Control_c, 2, 64, 88
3, 157483, Control_c, 2, 64, 84
3, 157493, Control_c, 2, 64, 80
3, 157499, Control_c, 2, 64, 76
3, 157507, Control_c, 2, 64, 72
3, 157509, Control_c, 2, 64, 68
3, 157514, Control_c, 2, 64, 64
3, 157516, Control_c, 2, 64, 60
3, 157522, Control_c, 2, 64, 44
3, 157532, Control_c, 2, 64, 28
3, 157544, Control_c, 2, 64, 12
3, 157584, Control_c, 2, 64, 0
3, 157969, Control_c, 2, 64, 12
3, 157982, Control_c, 2, 64, 28
3, 157992, Control_c, 2, 64, 44
3, 157997, Control_c, 2, 64, 60
3, 158001, Control_c, 2, 64, 64
3, 158005, Control_c, 2, 64, 68
3, 158012, Control_c, 2, 64, 72
3, 158033, Control_c, 2, 64, 76
3, 158055, Control_c, 2, 64, 80
3, 158078, Control_c, 2, 64, 84
3, 158090, Control_c, 2, 64, 88
3, 158098, Control_c, 2, 64, 92
3, 158108, Control_c, 2, 64, 100
3, 158128, Control_c, 2, 64, 112
3, 158254, Control_c, 2, 67, 8
3, 158327, Control_c, 2, 64, 100
3, 158367, Control_c, 2, 64, 92
3, 158385, Control_c, 2, 64, 88
3, 158390, Control_c, 2, 64, 84
3, 158401, Control_c, 2, 64, 80
3, 158410, Control_c, 2, 64, 76
3, 158418, Control_c, 2, 64, 72
3, 158422, Control_c, 2, 64, 68
3, 158428, Control_c, 2, 64, 64
3, 158436, Control_c, 2, 64, 60
3, 158440, Control_c, 2, 64, 44
3, 158451, Control_c, 2, 64, 28
3, 158461, Control_c, 2, 64, 12
3, 158566, Control_c, 2, 64, 28
3, 158577, Control_c, 2, 64, 44
3, 158584, Control_c, 2, 64, 60
3, 158587, Control_c, 2, 64, 64
3, 158592, Control_c, 2, 64, 68
3, 158594, Control_c, 2, 64, 72
3, 158607, Control_c, 2, 64, 76
3, 158624, Control_c, 2, 64, 80
3, 158635, Control_c, 2, 64, 84
3, 158641, Control_c, 2, 64, 88
3, 158646, Control_c, 2, 64, 92
3, 158654, Control_c, 2, 64, 100
3, 158667, Control_c, 2, 64, 112
3, 158677, Control_c, 2, 64, 127
3, 158762, Control_c, 2, 64, 112
3, 158772, Control_c, 2, 64, 100
3, 158781, Control_c, 2, 64, 92
3, 158782, Control_c, 2, 64, 88
3, 158785, Control_c, 2, 64, 84
3, 158785, Control_c, 2, 64, 80
3, 158791, Control_c, 2, 64, 76
3, 158791, Control_c, 2, 64, 72
3, 158793, Control_c, 2, 64, 68
3, 158797, Control_c, 2, 64, 64
3, 158797, Control_c, 2, 64, 60
3, 158803, Control_c, 2, 64, 44
3, 158858, Control_c, 2, 64, 60
3, 158863, Control_c, 2, 64, 64
3, 158865, Control_c, 2, 64, 68
3, 158871, Control_c, 2, 64, 72
3, 158875, Control_c, 2, 64, 76
3, 158883, Control_c, 2, 64, 80
3, 158895, Control_c, 2, 64, 84
3, 158900, Control_c, 2, 64, 88
3, 158906, Control_c, 2, 64, 92
3, 158916, Control_c, 2, 64, 100
3, 158959, Control_c, 2, 64, 92
3, 158961, Control_c, 2, 64, 84
3, 158966, Control_c, 2, 64, 80
3, 158968, Control_c, 2, 64, 76
3, 158971, Control_c, 2, 64, 72
3, 158974, Control_c, 2, 67, 16
3, 158976, Control_c, 2, 64, 68
3, 158994, Control_c, 2, 64, 72
3, 159012, Control_c, 2, 64, 76
3, 159030, Control_c, 2, 64, 80
3, 159059, Control_c, 2, 67, 24
3, 159143, Control_c, 2, 64, 76
3, 159147, Control_c, 2, 67, 32
3, 159152, Control_c, 2, 64, 72
3, 159158, Control_c, 2, 64, 68
3, 159162, Control_c, 2, 64, 64
3, 159168, Control_c, 2, 64, 60
3, 159172, Control_c, 2, 64, 44
3, 159182, Control_c, 2, 64, 28
3, 159182, Control_c, 2, 67, 40
3, 159192, Control_c, 2, 64, 12
3, 159215, Control_c, 2, 67, 48
3, 159523, Control_c, 2, 64, 28
3, 159528, Control_c, 2, 67, 40
3, 159537, Control_c, 2, 64, 44
3, 159555, Control_c, 2, 64, 60
3, 159555, Control_c, 2, 67, 32
3, 159573, Control_c, 2, 64, 64
3, 159594, Control_c, 2, 64, 68
3, 159595, Control_c, 2, 67, 24
3, 159608, Control_c, 2, 64, 72
3, 159640, Control_c, 2, 64, 76
3, 159666, Control_c, 2, 64, 80
3, 159666, Control_c, 2, 67, 16
3, 159695, Control_c, 2, 64, 84
3, 159708, Control_c, 2, 64, 88
3, 159722, Control_c, 2, 64, 92
3, 159730, Control_c, 2, 67, 8
3, 159741, Control_c, 2, 64, 100
3, 159826, Control_c, 2, 64, 92
3, 159833, Control_c, 2, 64, 88
3, 159833, Control_c, 2, 64, 84
3, 159838, Control_c, 2, 64, 80
3, 159840, Control_c, 2, 64, 76
3, 159843, Control_c, 2, 64, 72
3, 159844, Control_c, 2, 64, 68
3, 159848, Control_c, 2, 64, 64
3, 159853, Control_c, 2, 64, 60
3, 159861, Control_c, 2, 64, 44
3, 160417, Control_c, 2, 64, 28
3, 160452, Control_c, 2, 64, 12
3, 160618, Control_c, 2, 64, 0
3, 160776, Control_c, 2, 64, 12
3, 160793, Control_c, 2, 64, 28
3, 160801, Control_c, 2, 64, 44
3, 160807, Control_c, 2, 64, 60
3, 160811, Control_c, 2, 64, 64
3, 160817, Control_c, 2, 64, 68
3, 160818, Control_c, 2, 64, 72
3, 160824, Control_c, 2, 64, 76
3, 160846, Control_c, 2, 64, 80
3, 160860, Control_c, 2, 64, 84
3, 160867, Control_c, 2, 64, 88
3, 160872, Control_c, 2, 64, 92
3, 160880, Control_c, 2, 64, 100
3, 160890, Control_c, 2, 64, 112
3, 160896, Control_c, 2, 64, 127
3, 161052, Control_c, 2, 64, 112
3, 161131, Control_c, 2, 64, 100
3, 161194, Control_c, 2, 64, 92
3, 161216, Control_c, 2, 64, 88
3, 161220, Control_c, 2, 64, 84
3, 161226, Control_c, 2, 64, 80
3, 161232, Control_c, 2, 64, 76
3, 161235, Control_c, 2, 64, 72
3, 161240, Control_c, 2, 64, 68
3, 161243, Control_c, 2, 64, 64
3, 161249, Control_c, 2, 64, 60
3, 161256, Control_c, 2, 64, 44
3, 161382, Control_c, 2, 64, 60
3, 161398, Control_c, 2, 64, 64
3, 161423, Control_c, 2, 64, 68
3, 161445, Control_c, 2, 64, 72
3, 161474, Control_c, 2, 64, 76
3, 161496, Control_c, 2, 64, 80
3, 161520, Control_c, 2, 64, 84
3, 161532, Control_c, 2, 64, 88
3, 161542, Control_c, 2, 64, 92
3, 161555, Control_c, 2, 64, 100
3, 161616, Control_c, 2, 64, 112
3, 161658, Control_c, 2, 64, 127
3, 161934, Control_c, 2, 64, 112
3, 161936, Control_c, 2, 64, 100
3, 161942, Control_c, 2, 64, 92
3, 161942, Control_c, 2, 64, 88
3, 161945, Control_c, 2, 64, 84
3, 161947, Control_c, 2, 64, 80
3, 161950, Control_c, 2, 64, 76
3, 161950, Control_c, 2, 64, 68
3, 161952, Control_c, 2, 64, 64
3, 161954, Control_c, 2, 64, 60
3, 161957, Control_c, 2, 64, 44
3, 161964, Control_c, 2, 64, 28
3, 161989, Control_c, 2, 64, 12
3, 162025, Control_c, 2, 67, 16
3, 162283, Control_c, 2, 67, 24
3, 162518, Control_c, 2, 67, 32
3, 162589, Control_c, 2, 67, 40
3, 162634, Control_c, 2, 67, 48
3, 162684, Control_c, 2, 64, 28
3, 162691, Control_c, 2, 64, 44
3, 162697, Control_c, 2, 67, 56
3, 162699, Control_c, 2, 64, 60
3, 162701, Control_c, 2, 64, 64
3, 162707, Control_c, 2, 64, 68
3, 162711, Control_c, 2, 64, 72
3, 162725, Control_c, 2, 64, 76
3, 162740, Control_c, 2, 64, 80
3, 162754, Control_c, 2, 64, 84
3, 162767, Control_c, 2, 64, 88
3, 162777, Control_c, 2, 64, 92
3, 162797, Control_c, 2, 64, 100
3, 162885, Control_c, 2, 64, 92
3, 162888, Control_c, 2, 64, 88
3, 162889, Control_c, 2, 64, 84
3, 162890, Control_c, 2, 64, 80
3, 162893, Control_c, 2, 64, 76
3, 162896, Control_c, 2, 64, 72
3, 162899, Control_c, 2, 64, 68
3, 162903, Control_c, 2, 64, 64
3, 162905, Control_c, 2, 64, 60
3, 162950, Control_c, 2, 64, 64
3, 162956, Control_c, 2, 64, 68
3, 162964, Control_c, 2, 64, 72
3, 162969, Control_c, 2, 64, 76
3, 162976, Control_c, 2, 64, 80
3, 162984, Control_c, 2, 64, 84
3, 162991, Control_c, 2, 64, 88
3, 162996, Control_c, 2, 64, 92
3, 163007, Control_c, 2, 64, 100
3, 163017, Control_c, 2, 64, 112
3, 163024, Control_c, 2, 64, 127
3, 163148, Control_c, 2, 64, 112
3, 163178, Control_c, 2, 64, 100
3, 163191, Control_c, 2, 64, 92
3, 163196, Control_c, 2, 64, 88
3, 163197, Control_c, 2, 64, 84
3, 163200, Control_c, 2, 64, 80
3, 163203, Control_c, 2, 64, 76
3, 163205, Control_c, 2, 64, 72
3, 163211, Control_c, 2, 64, 68
3, 163213, Control_c, 2, 64, 64
3, 163218, Control_c, 2, 64, 60
3, 163220, Control_c, 2, 64, 44
3, 163227, Control_c, 2, 64, 28
3, 163236, Control_c, 2, 64, 12
3, 163246, Control_c, 2, 64, 0
3, 163306, Control_c, 2, 64, 12
3, 163316, Control_c, 2, 64, 28
3, 163326, Control_c, 2, 64, 44
3, 163329, Control_c, 2, 64, 60
3, 163332, Control_c, 2, 64, 64
3, 163336, Control_c, 2, 64, 68
3, 163338, Control_c, 2, 64, 72
3, 163346, Control_c, 2, 64, 76
3, 163369, Control_c, 2, 64, 80
3, 163391, Control_c, 2, 64, 84
3, 163416, Control_c, 2, 64, 88
3, 163427, Control_c, 2, 67, 64
3, 163464, Control_c, 2, 64, 84
3, 163520, Control_c, 2, 64, 80
3, 163545, Control_c, 2, 64, 76
3, 163563, Control_c, 2, 64, 72
3, 163573, Control_c, 2, 64, 68
3, 163581, Control_c, 2, 64, 64
3, 163586, Control_c, 2, 64, 60
3, 163593, Control_c, 2, 64, 44
3, 163600, Control_c, 2, 64, 28
3, 163606, Control_c, 2, 64, 12
3, 163669, Control_c, 2, 64, 28
3, 163676, Control_c, 2, 64, 44
3, 163680, Control_c, 2, 64, 60
3, 163680, Control_c, 2, 64, 64
3, 163686, Control_c, 2, 64, 68
3, 163689, Control_c, 2, 64, 72
3, 163693, Control_c, 2, 64, 76
3, 163699, Control_c, 2, 64, 80
3, 163719, Control_c, 2, 64, 84
3, 163723, Control_c, 2, 64, 88
3, 163734, Control_c, 2, 64, 92
3, 163746, Control_c, 2, 64, 100
3, 163794, Control_c, 2, 64, 92
3, 163802, Control_c, 2, 64, 88
3, 163805, Control_c, 2, 64, 84
3, 163806, Control_c, 2, 64, 80
3, 163809, Control_c, 2, 64, 76
3, 163815, Control_c, 2, 64, 72
3, 163815, Control_c, 2, 64, 68
3, 163820, Control_c, 2, 64, 64
3, 163822, Control_c, 2, 64, 60
3, 163823, Control_c, 2, 64, 44
3, 163829, Control_c, 2, 64, 28
3, 163833, Control_c, 2, 64, 12
3, 163842, Control_c, 2, 64, 0
3, 163981, Control_c, 2, 67, 72
3, 164069, Control_c, 2, 67, 80
3, 164716, Control_c, 2, 64, 12
3, 164730, Control_c, 2, 64, 28
3, 164738, Control_c, 2, 64, 44
3, 164748, Control_c, 2, 64, 60
3, 164748, Control_c, 2, 67, 88
3, 164751, Control_c, 2, 64, 64
3, 164751, Control_c, 2, 64, 68
3, 164759, Control_c, 2, 64, 72
3, 164772, Control_c, 2, 64, 76
3, 164785, Control_c, 2, 64, 80
3, 164801, Control_c, 2, 64, 84
3, 164811, Control_c, 2, 64, 88
3, 164817, Control_c, 2, 67, 96
3, 164819, Control_c, 2, 64, 92
3, 164829, Control_c, 2, 64, 100
3, 164844, Control_c, 2, 64, 112
3, 164855, Control_c, 2, 64, 127
3, 164930, Control_c, 2, 67, 104
3, 164980, Control_c, 2, 64, 112
3, 164992, Control_c, 2, 64, 100
3, 164999, Control_c, 2, 64, 92
3, 165005, Control_c, 2, 64, 88
3, 165008, Control_c, 2, 64, 84
3, 165011, Control_c, 2, 64, 80
3, 165012, Control_c, 2, 64, 76
3, 165013, Control_c, 2, 67, 112
3, 165018, Control_c, 2, 64, 72
3, 165023, Control_c, 2, 64, 68
3, 165025, Control_c, 2, 64, 64
3, 165030, Control_c, 2, 64, 60
3, 165038, Control_c, 2, 64, 44
3, 165113, Control_c, 2, 64, 60
3, 165118, Control_c, 2, 64, 64
3, 165121, Control_c, 2, 64, 68
3, 165131, Control_c, 2, 64, 72
3, 165141, Control_c, 2, 64, 76
3, 165159, Control_c, 2, 64, 80
3, 165260, Control_c, 2, 64, 76
3, 165285, Control_c, 2, 64, 72
3, 165305, Control_c, 2, 64, 68
3, 165312, Control_c, 2, 64, 64
3, 165320, Control_c, 2, 64, 60
3, 165324, Control_c, 2, 64, 44
3, 165335, Control_c, 2, 64, 28
3, 165342, Control_c, 2, 64, 12
3, 165385, Control_c, 2, 64, 0
3, 165421, Control_c, 2, 67, 127
3, 166134, Control_c, 2, 64, 12
3, 166147, Control_c, 2, 64, 28
3, 166157, Control_c, 2, 64, 44
3, 166163, Control_c, 2, 64, 60
3, 166167, Control_c, 2, 64, 64
3, 166173, Control_c, 2, 64, 68
3, 166183, Control_c, 2, 64, 72
3, 166213, Control_c, 2, 64, 76
3, 166364, Control_c, 2, 64, 72
3, 166390, Control_c, 2, 64, 68
3, 166404, Control_c, 2, 64, 64
3, 166417, Control_c, 2, 64, 60
3, 166428, Control_c, 2, 64, 44
3, 166440, Control_c, 2, 64, 28
3, 166451, Control_c, 2, 64, 12
3, 166555, Control_c, 2, 64, 28
3, 166566, Control_c, 2, 64, 44
3, 166574, Control_c, 2, 64, 60
3, 166578, Control_c, 2, 64, 64
3, 166584, Control_c, 2, 64, 68
3, 166590, Control_c, 2, 64, 72
3, 166610, Control_c, 2, 64, 76
3, 166640, Control_c, 2, 64, 80
3, 166697, Control_c, 2, 64, 76
3, 166710, Control_c, 2, 64, 72
3, 166716, Control_c, 2, 64, 68
3, 166721, Control_c, 2, 64, 64
3, 166727, Control_c, 2, 64, 60
3, 166732, Control_c, 2, 64, 44
3, 166741, Control_c, 2, 64, 28
3, 166744, Control_c, 2, 64, 12
3, 166752, Control_c, 2, 64, 0
3, 166850, Control_c, 2, 64, 12
3, 166863, Control_c, 2, 64, 28
3, 166871, Control_c, 2, 64, 44
3, 166881, Control_c, 2, 64, 60
3, 166884, Control_c, 2, 64, 64
3, 166887, Control_c, 2, 64, 68
3, 166896, Control_c, 2, 64, 72
3, 167007, Control_c, 2, 64, 68
3, 167056, Control_c, 2, 64, 64
3, 167132, Control_c, 2, 64, 60
3, 167142, Control_c, 2, 64, 44
3, 167153, Control_c, 2, 64, 28
3, 167166, Control_c, 2, 64, 12
3, 167245, Control_c, 2, 64, 28
3, 167258, Control_c, 2, 64, 44
3, 167268, Control_c, 2, 64, 60
3, 167273, Control_c, 2, 64, 64
3, 167278, Control_c, 2, 64, 68
3, 167288, Control_c, 2, 64, 72
3, 167306, Control_c, 2, 64, 76
3, 167324, Control_c, 2, 64, 80
3, 167349, Control_c, 2, 64, 84
3, 167366, Control_c, 2, 64, 88
3, 167439, Control_c, 2, 64, 84
3, 167469, Control_c, 2, 64, 80
3, 167479, Control_c, 2, 64, 76
3, 167491, Control_c, 2, 64, 72
3, 167492, Control_c, 2, 64, 68
3, 167496, Control_c, 2, 64, 64
3, 167502, Control_c, 2, 64, 60
3, 167507, Control_c, 2, 64, 44
3, 167515, Control_c, 2, 64, 28
3, 167527, Control_c, 2, 64, 12
3, 167601, Control_c, 2, 64, 28
3, 167607, Control_c, 2, 64, 44
3, 167613, Control_c, 2, 64, 60
3, 167618, Control_c, 2, 64, 64
3, 167620, Control_c, 2, 64, 68
3, 167626, Control_c, 2, 64, 72
3, 167642, Control_c, 2, 64, 76
3, 167804, Control_c, 2, 64, 72
3, 167968, Control_c, 2, 64, 68
3, 168057, Control_c, 2, 64, 64
3, 168063, Control_c, 2, 64, 60
3, 168074, Control_c, 2, 64, 44
3, 168089, Control_c, 2, 64, 28
3, 168102, Control_c, 2, 64, 12
3, 168162, Control_c, 2, 64, 0
3, 168312, Control_c, 2, 64, 12
3, 168328, Control_c, 2, 64, 28
3, 168336, Control_c, 2, 64, 44
3, 168343, Control_c, 2, 64, 60
3, 168348, Control_c, 2, 64, 64
3, 168350, Control_c, 2, 64, 68
3, 168366, Control_c, 2, 64, 72
3, 168608, Control_c, 2, 64, 68
3, 168652, Control_c, 2, 64, 64
3, 168692, Control_c, 2, 64, 60
3, 168773, Control_c, 2, 64, 44
3, 168846, Control_c, 2, 64, 28
3, 168896, Control_c, 2, 64, 12
3, 169038, Control_c, 2, 64, 28
3, 169044, Control_c, 2, 64, 44
3, 169050, Control_c, 2, 64, 60
3, 169053, Control_c, 2, 64, 64
3, 169061, Control_c, 2, 64, 68
3, 169065, Control_c, 2, 64, 72
3, 169095, Control_c, 2, 64, 76
3, 169128, Control_c, 2, 64, 80
3, 169275, Control_c, 2, 64, 84
3, 169363, Control_c, 2, 64, 80
3, 169368, Control_c, 2, 64, 76
3, 169372, Control_c, 2, 64, 72
3, 169378, Control_c, 2, 64, 68
3, 169380, Control_c, 2, 64, 64
3, 169384, Control_c, 2, 64, 60
3, 169387, Control_c, 2, 64, 44
3, 169398, Control_c, 2, 64, 28
3, 169404, Control_c, 2, 64, 12
3, 169641, Control_c, 2, 64, 28
3, 169655, Control_c, 2, 64, 44
3, 169665, Control_c, 2, 64, 60
3, 169677, Control_c, 2, 64, 64
3, 169805, Control_c, 2, 64, 60
3, 169821, Control_c, 2, 64, 44
3, 169981, Control_c, 2, 64, 60
3, 169999, Control_c, 2, 64, 64
3, 170011, Control_c, 2, 64, 68
3, 170021, Control_c, 2, 64, 72
3, 170032, Control_c, 2, 64, 76
3, 170040, Control_c, 2, 64, 80
3, 170048, Control_c, 2, 64, 84
3, 170055, Control_c, 2, 64, 88
3, 170060, Control_c, 2, 64, 92
3, 170067, Control_c, 2, 64, 100
3, 170077, Control_c, 2, 64, 112
3, 170085, Control_c, 2, 64, 127
3, 170171, Control_c, 2, 64, 112
3, 170231, Control_c, 2, 64, 100
3, 170263, Control_c, 2, 64, 92
3, 170273, Control_c, 2, 64, 88
3, 170278, Control_c, 2, 64, 84
3, 170287, Control_c, 2, 64, 80
3, 170294, Control_c, 2, 64, 76
3, 170301, Control_c, 2, 64, 72
3, 170309, Control_c, 2, 64, 68
3, 170313, Control_c, 2, 64, 64
3, 170322, Control_c, 2, 64, 60
3, 170326, Control_c, 2, 64, 44
3, 170339, Control_c, 2, 64, 28
3, 170349, Control_c, 2, 64, 12
3, 170419, Control_c, 2, 64, 28
3, 170426, Control_c, 2, 64, 44
3, 170435, Control_c, 2, 64, 60
3, 170439, Control_c, 2, 64, 64
3, 170445, Control_c, 2, 64, 68
3, 170449, Control_c, 2, 64, 72
3, 170449, Control_c, 2, 67, 112
3, 170464, Control_c, 2, 64, 76
3, 170483, Control_c, 2, 64, 80
3, 170507, Control_c, 2, 67, 104
3, 170531, Control_c, 2, 67, 96
3, 170543, Control_c, 2, 64, 76
3, 170545, Control_c, 2, 67, 88
3, 170550, Control_c, 2, 64, 72
3, 170556, Control_c, 2, 64, 68
3, 170560, Control_c, 2, 67, 80
3, 170561, Control_c, 2, 64, 64
3, 170570, Control_c, 2, 64, 60
3, 170570, Control_c, 2, 67, 72
3, 170578, Control_c, 2, 67, 64
3, 170583, Control_c, 2, 64, 44
3, 170586, Control_c, 2, 67, 56
3, 170590, Control_c, 2, 67, 48
3, 170600, Control_c, 2, 67, 40
3, 170676, Control_c, 2, 67, 32
3, 170703, Control_c, 2, 64, 28
3, 170731, Control_c, 2, 67, 24
3, 170745, Control_c, 2, 67, 16
3, 170756, Control_c, 2, 67, 8
3, 170760, Control_c, 2, 64, 44
3, 170765, Control_c, 2, 64, 60
3, 170769, Control_c, 2, 64, 64
3, 170769, Control_c, 2, 64, 68
3, 170774, Control_c, 2, 64, 72
3, 170779, Control_c, 2, 64, 76
3, 170782, Control_c, 2, 64, 80
3, 170795, Control_c, 2, 64, 84
3, 170804, Control_c, 2, 64, 88
3, 170815, Control_c, 2, 64, 92
3, 170843, Control_c, 2, 64, 88
3, 170843, Control_c, 2, 64, 84
3, 170847, Control_c, 2, 64, 80
3, 170849, Control_c, 2, 64, 76
3, 170853, Control_c, 2, 64, 72
3, 170855, Control_c, 2, 64, 68
3, 170858, Control_c, 2, 64, 64
3, 170859, Control_c, 2, 64, 60
3, 170865, Control_c, 2, 64, 44
3, 170869, Control_c, 2, 64, 28
3, 170880, Control_c, 2, 64, 12
3, 171096, Control_c, 2, 64, 0
3, 171140, Control_c, 2, 64, 12
3, 171150, Control_c, 2, 64, 28
3, 171155, Control_c, 2, 64, 44
3, 171156, Control_c, 2, 64, 60
3, 171156, Control_c, 2, 64, 64
3, 171166, Control_c, 2, 64, 68
3, 171166, Control_c, 2, 64, 72
3, 171169, Control_c, 2, 64, 76
3, 171173, Control_c, 2, 64, 80
3, 171183, Control_c, 2, 64, 84
3, 171189, Control_c, 2, 64, 88
3, 171195, Control_c, 2, 64, 92
3, 171207, Control_c, 2, 64, 100
3, 171247, Control_c, 2, 64, 92
3, 171253, Control_c, 2, 64, 88
3, 171255, Control_c, 2, 64, 84
3, 171256, Control_c, 2, 64, 80
3, 171260, Control_c, 2, 64, 76
3, 171260, Control_c, 2, 64, 72
3, 171262, Control_c, 2, 64, 68
3, 171262, Control_c, 2, 64, 64
3, 171265, Control_c, 2, 64, 60
3, 171268, Control_c, 2, 64, 44
3, 171272, Control_c, 2, 64, 28
3, 171278, Control_c, 2, 64, 12
3, 171338, Control_c, 2, 64, 0
3, 171553, Control_c, 2, 64, 12
3, 171563, Control_c, 2, 64, 28
3, 171568, Control_c, 2, 64, 44
3, 171573, Control_c, 2, 64, 60
3, 171575, Control_c, 2, 64, 64
3, 171578, Control_c, 2, 64, 68
3, 171579, Control_c, 2, 64, 72
3, 171583, Control_c, 2, 64, 76
3, 171585, Control_c, 2, 64, 80
3, 171595, Control_c, 2, 64, 84
3, 171600, Control_c, 2, 64, 88
3, 171603, Control_c, 2, 64, 92
3, 171611, Control_c, 2, 64, 100
3, 171620, Control_c, 2, 64, 112
3, 171625, Control_c, 2, 64, 127
3, 171759, Control_c, 2, 64, 112
3, 171766, Control_c, 2, 64, 100
3, 171779, Control_c, 2, 64, 92
3, 171786, Control_c, 2, 64, 88
3, 171786, Control_c, 2, 64, 84
3, 171796, Control_c, 2, 64, 80
3, 171808, Control_c, 2, 64, 76
3, 171818, Control_c, 2, 64, 72
3, 171824, Control_c, 2, 64, 68
3, 171828, Control_c, 2, 64, 64
3, 171835, Control_c, 2, 64, 60
3, 171837, Control_c, 2, 64, 44
3, 171844, Control_c, 2, 64, 28
3, 171851, Control_c, 2, 64, 12
3, 171862, Control_c, 2, 64, 0
3, 173531, Control_c, 2, 67, 0
3, 173534, Control_c, 2, 120, 0
3, 173534, End_track
0, 0, End_of_file
