0, 0, Header, 1, 17, 384
1, 0, Start_track
1, 0, Time_signature, 2, 2, 96, 8
1, 0, Sequencer_specific, 3, 0, 0, 65
1, 0, Tempo, 500000
1, 0, End_track
2, 0, Start_track
2, 0, Title_t, "Rondo'"
2, 0, Key_signature, 0, "major"
2, 384, Note_on_c, 0, 76, 100
2, 384, Note_on_c, 0, 79, 100
2, 448, Note_off_c, 0, 76, 64
2, 448, Note_off_c, 0, 79, 64
2, 576, Note_on_c, 0, 76, 100
2, 576, Note_on_c, 0, 79, 100
2, 640, Note_off_c, 0, 76, 64
2, 640, Note_off_c, 0, 79, 64
2, 768, Note_on_c, 0, 72, 100
2, 768, Note_on_c, 0, 76, 100
2, 832, Note_off_c, 0, 72, 64
2, 832, Note_off_c, 0, 76, 64
2, 1152, Note_on_c, 0, 74, 100
2, 1152, Note_on_c, 0, 77, 100
2, 1216, Note_off_c, 0, 74, 64
2, 1216, Note_off_c, 0, 77, 64
2, 1344, Note_on_c, 0, 74, 100
2, 1344, Note_on_c, 0, 77, 100
2, 1408, Note_off_c, 0, 74, 64
2, 1408, Note_off_c, 0, 77, 64
2, 1536, Note_on_c, 0, 71, 100
2, 1536, Note_on_c, 0, 74, 100
2, 1600, Note_off_c, 0, 71, 64
2, 1600, Note_off_c, 0, 74, 64
2, 1920, Note_on_c, 0, 72, 100
2, 1984, Note_off_c, 0, 72, 64
2, 2016, Note_on_c, 0, 74, 100
2, 2080, Note_off_c, 0, 74, 64
2, 2112, Note_on_c, 0, 76, 100
2, 2176, Note_off_c, 0, 76, 64
2, 2208, Note_on_c, 0, 72, 100
2, 2272, Note_off_c, 0, 72, 64
2, 2304, Note_on_c, 0, 69, 100
2, 2368, Note_off_c, 0, 69, 64
2, 2400, Note_on_c, 0, 71, 100
2, 2464, Note_off_c, 0, 71, 64
2, 2496, Note_on_c, 0, 72, 100
2, 2560, Note_off_c, 0, 72, 64
2, 2592, Note_on_c, 0, 73, 100
2, 2656, Note_off_c, 0, 73, 64
2, 2688, Note_on_c, 0, 74, 100
2, 2752, Note_off_c, 0, 74, 64
2, 2784, Note_on_c, 0, 76, 100
2, 2848, Note_off_c, 0, 76, 64
2, 2880, Note_on_c, 0, 77, 100
2, 2944, Note_off_c, 0, 77, 64
2, 2976, Note_on_c, 0, 74, 100
2, 3040, Note_off_c, 0, 74, 64
2, 3072, Note_on_c, 0, 72, 100
2, 3136, Note_off_c, 0, 72, 64
2, 3168, Note_on_c, 0, 71, 100
2, 3232, Note_off_c, 0, 71, 64
2, 3264, Note_on_c, 0, 69, 100
2, 3328, Note_off_c, 0, 69, 64
2, 3360, Note_on_c, 0, 67, 100
2, 3424, Note_off_c, 0, 67, 64
2, 3456, Note_on_c, 0, 76, 100
2, 3456, Note_on_c, 0, 79, 100
2, 3520, Note_off_c, 0, 76, 64
2, 3520, Note_off_c, 0, 79, 64
2, 3648, Note_on_c, 0, 76, 100
2, 3648, Note_on_c, 0, 79, 100
2, 3712, Note_off_c, 0, 76, 64
2, 3712, Note_off_c, 0, 79, 64
2, 3840, Note_on_c, 0, 72, 100
2, 3840, Note_on_c, 0, 76, 100
2, 3904, Note_off_c, 0, 72, 64
2, 3904, Note_off_c, 0, 76, 64
2, 4224, Note_on_c, 0, 77, 100
2, 4224, Note_on_c, 0, 81, 100
2, 4288, Note_off_c, 0, 77, 64
2, 4288, Note_off_c, 0, 81, 64
2, 4416, Note_on_c, 0, 77, 100
2, 4416, Note_on_c, 0, 81, 100
2, 4480, Note_off_c, 0, 77, 64
2, 4480, Note_off_c, 0, 81, 64
2, 4608, Note_on_c, 0, 71, 100
2, 4608, Note_on_c, 0, 74, 100
2, 4672, Note_off_c, 0, 71, 64
2, 4672, Note_off_c, 0, 74, 64
2, 4992, Note_on_c, 0, 81, 100
2, 5056, Note_off_c, 0, 81, 64
2, 5088, Note_on_c, 0, 79, 100
2, 5152, Note_off_c, 0, 79, 64
2, 5184, Note_on_c, 0, 77, 100
2, 5248, Note_off_c, 0, 77, 64
2, 5280, Note_on_c, 0, 76, 100
2, 5344, Note_off_c, 0, 76, 64
2, 5376, Note_on_c, 0, 73, 100
2, 5440, Note_off_c, 0, 73, 64
2, 5472, Note_on_c, 0, 74, 100
2, 5536, Note_off_c, 0, 74, 64
2, 5568, Note_on_c, 0, 76, 100
2, 5632, Note_off_c, 0, 76, 64
2, 5664, Note_on_c, 0, 77, 100
2, 5728, Note_off_c, 0, 77, 64
2, 5760, Note_on_c, 0, 69, 100
2, 5824, Note_off_c, 0, 69, 64
2, 5856, Note_on_c, 0, 72, 100
2, 5920, Note_off_c, 0, 72, 64
2, 5952, Note_on_c, 0, 71, 100
2, 6016, Note_off_c, 0, 71, 64
2, 6048, Note_on_c, 0, 74, 100
2, 6112, Note_off_c, 0, 74, 64
2, 6144, Note_on_c, 0, 72, 100
2, 6208, Note_off_c, 0, 72, 64
2, 6528, Note_on_c, 0, 76, 100
2, 6528, Note_on_c, 0, 79, 100
2, 6592, Note_off_c, 0, 76, 64
2, 6592, Note_off_c, 0, 79, 64
2, 6720, Note_on_c, 0, 76, 100
2, 6720, Note_on_c, 0, 79, 100
2, 6784, Note_off_c, 0, 76, 64
2, 6784, Note_off_c, 0, 79, 64
2, 6912, Note_on_c, 0, 72, 100
2, 6912, Note_on_c, 0, 76, 100
2, 6976, Note_off_c, 0, 72, 64
2, 6976, Note_off_c, 0, 76, 64
2, 7296, Note_on_c, 0, 74, 100
2, 7296, Note_on_c, 0, 77, 100
2, 7360, Note_off_c, 0, 74, 64
2, 7360, Note_off_c, 0, 77, 64
2, 7488, Note_on_c, 0, 74, 100
2, 7488, Note_on_c, 0, 77, 100
2, 7552, Note_off_c, 0, 74, 64
2, 7552, Note_off_c, 0, 77, 64
2, 7680, Note_on_c, 0, 71, 100
2, 7680, Note_on_c, 0, 74, 100
2, 7744, Note_off_c, 0, 71, 64
2, 7744, Note_off_c, 0, 74, 64
2, 8064, Note_on_c, 0, 72, 100
2, 8128, Note_off_c, 0, 72, 64
2, 8160, Note_on_c, 0, 74, 100
2, 8224, Note_off_c, 0, 74, 64
2, 8256, Note_on_c, 0, 76, 100
2, 8320, Note_off_c, 0, 76, 64
2, 8352, Note_on_c, 0, 72, 100
2, 8416, Note_off_c, 0, 72, 64
2, 8448, Note_on_c, 0, 69, 100
2, 8512, Note_off_c, 0, 69, 64
2, 8544, Note_on_c, 0, 71, 100
2, 8608, Note_off_c, 0, 71, 64
2, 8640, Note_on_c, 0, 72, 100
2, 8704, Note_off_c, 0, 72, 64
2, 8736, Note_on_c, 0, 73, 100
2, 8800, Note_off_c, 0, 73, 64
2, 8832, Note_on_c, 0, 74, 100
2, 8896, Note_off_c, 0, 74, 64
2, 8928, Note_on_c, 0, 76, 100
2, 8992, Note_off_c, 0, 76, 64
2, 9024, Note_on_c, 0, 77, 100
2, 9088, Note_off_c, 0, 77, 64
2, 9120, Note_on_c, 0, 74, 100
2, 9184, Note_off_c, 0, 74, 64
2, 9216, Note_on_c, 0, 72, 100
2, 9280, Note_off_c, 0, 72, 64
2, 9312, Note_on_c, 0, 71, 100
2, 9376, Note_off_c, 0, 71, 64
2, 9408, Note_on_c, 0, 69, 100
2, 9472, Note_off_c, 0, 69, 64
2, 9504, Note_on_c, 0, 67, 100
2, 9568, Note_off_c, 0, 67, 64
2, 9600, Note_on_c, 0, 76, 100
2, 9600, Note_on_c, 0, 79, 100
2, 9664, Note_off_c, 0, 76, 64
2, 9664, Note_off_c, 0, 79, 64
2, 9792, Note_on_c, 0, 76, 100
2, 9792, Note_on_c, 0, 79, 100
2, 9856, Note_off_c, 0, 76, 64
2, 9856, Note_off_c, 0, 79, 64
2, 9984, Note_on_c, 0, 72, 100
2, 9984, Note_on_c, 0, 76, 100
2, 10048, Note_off_c, 0, 72, 64
2, 10048, Note_off_c, 0, 76, 64
2, 10368, Note_on_c, 0, 77, 100
2, 10368, Note_on_c, 0, 81, 100
2, 10432, Note_off_c, 0, 77, 64
2, 10432, Note_off_c, 0, 81, 64
2, 10560, Note_on_c, 0, 77, 100
2, 10560, Note_on_c, 0, 81, 100
2, 10624, Note_off_c, 0, 77, 64
2, 10624, Note_off_c, 0, 81, 64
2, 10752, Note_on_c, 0, 71, 100
2, 10752, Note_on_c, 0, 74, 100
2, 10816, Note_off_c, 0, 71, 64
2, 10816, Note_off_c, 0, 74, 64
2, 11136, Note_on_c, 0, 81, 100
2, 11200, Note_off_c, 0, 81, 64
2, 11232, Note_on_c, 0, 79, 100
2, 11296, Note_off_c, 0, 79, 64
2, 11328, Note_on_c, 0, 77, 100
2, 11392, Note_off_c, 0, 77, 64
2, 11424, Note_on_c, 0, 76, 100
2, 11488, Note_off_c, 0, 76, 64
2, 11520, Note_on_c, 0, 73, 100
2, 11584, Note_off_c, 0, 73, 64
2, 11616, Note_on_c, 0, 74, 100
2, 11680, Note_off_c, 0, 74, 64
2, 11712, Note_on_c, 0, 76, 100
2, 11776, Note_off_c, 0, 76, 64
2, 11808, Note_on_c, 0, 77, 100
2, 11872, Note_off_c, 0, 77, 64
2, 11904, Note_on_c, 0, 69, 100
2, 11968, Note_off_c, 0, 69, 64
2, 12000, Note_on_c, 0, 72, 100
2, 12064, Note_off_c, 0, 72, 64
2, 12096, Note_on_c, 0, 71, 100
2, 12160, Note_off_c, 0, 71, 64
2, 12192, Note_on_c, 0, 74, 100
2, 12256, Note_off_c, 0, 74, 64
2, 12288, Note_on_c, 0, 72, 100
2, 12352, Note_off_c, 0, 72, 64
2, 12672, Note_on_c, 0, 76, 100
2, 12736, Note_off_c, 0, 76, 64
2, 12768, Note_on_c, 0, 78, 100
2, 12768, Note_on_c, 0, 67, 100
2, 12832, Note_off_c, 0, 78, 64
2, 12832, Note_off_c, 0, 67, 64
2, 12864, Note_on_c, 0, 79, 100
2, 12928, Note_off_c, 0, 79, 64
2, 12960, Note_on_c, 0, 79, 100
2, 12960, Note_on_c, 0, 67, 100
2, 13024, Note_off_c, 0, 79, 64
2, 13024, Note_off_c, 0, 67, 64
2, 13056, Note_on_c, 0, 81, 100
2, 13120, Note_off_c, 0, 81, 64
2, 13152, Note_on_c, 0, 79, 100
2, 13152, Note_on_c, 0, 67, 100
2, 13216, Note_off_c, 0, 79, 64
2, 13216, Note_off_c, 0, 67, 64
2, 13248, Note_on_c, 0, 78, 100
2, 13312, Note_off_c, 0, 78, 64
2, 13344, Note_on_c, 0, 76, 100
2, 13344, Note_on_c, 0, 67, 100
2, 13408, Note_off_c, 0, 76, 64
2, 13408, Note_off_c, 0, 67, 64
2, 13440, Note_on_c, 0, 74, 100
2, 13504, Note_off_c, 0, 74, 64
2, 13536, Note_on_c, 0, 74, 100
2, 13600, Note_off_c, 0, 74, 64
2, 13632, Note_on_c, 0, 74, 100
2, 13696, Note_off_c, 0, 74, 64
2, 13728, Note_on_c, 0, 74, 100
2, 13792, Note_off_c, 0, 74, 64
2, 13824, Note_on_c, 0, 76, 100
2, 13888, Note_off_c, 0, 76, 64
2, 13920, Note_on_c, 0, 74, 100
2, 13984, Note_off_c, 0, 74, 64
2, 14016, Note_on_c, 0, 72, 100
2, 14080, Note_off_c, 0, 72, 64
2, 14112, Note_on_c, 0, 71, 100
2, 14176, Note_off_c, 0, 71, 64
2, 14208, Note_on_c, 0, 88, 100
2, 14272, Note_off_c, 0, 88, 64
2, 14304, Note_on_c, 0, 86, 100
2, 14368, Note_off_c, 0, 86, 64
2, 14400, Note_on_c, 0, 84, 100
2, 14464, Note_off_c, 0, 84, 64
2, 14496, Note_on_c, 0, 83, 100
2, 14560, Note_off_c, 0, 83, 64
2, 14592, Note_on_c, 0, 80, 100
2, 14656, Note_off_c, 0, 80, 64
2, 14688, Note_on_c, 0, 81, 100
2, 14752, Note_off_c, 0, 81, 64
2, 14784, Note_on_c, 0, 83, 100
2, 14848, Note_off_c, 0, 83, 64
2, 14880, Note_on_c, 0, 84, 100
2, 14944, Note_off_c, 0, 84, 64
2, 14976, Note_on_c, 0, 76, 100
2, 15040, Note_off_c, 0, 76, 64
2, 15072, Note_on_c, 0, 78, 100
2, 15136, Note_off_c, 0, 78, 64
2, 15168, Note_on_c, 0, 79, 100
2, 15232, Note_off_c, 0, 79, 64
2, 15264, Note_on_c, 0, 81, 100
2, 15328, Note_off_c, 0, 81, 64
2, 15360, Note_on_c, 0, 79, 100
2, 15424, Note_off_c, 0, 79, 64
2, 15456, Note_on_c, 0, 78, 100
2, 15520, Note_off_c, 0, 78, 64
2, 15552, Note_on_c, 0, 76, 100
2, 15616, Note_off_c, 0, 76, 64
2, 15648, Note_on_c, 0, 74, 100
2, 15712, Note_off_c, 0, 74, 64
2, 15744, Note_on_c, 0, 83, 100
2, 15744, Note_on_c, 0, 86, 100
2, 15808, Note_off_c, 0, 83, 64
2, 15808, Note_off_c, 0, 86, 64
2, 15936, Note_on_c, 0, 83, 100
2, 15936, Note_on_c, 0, 86, 100
2, 16000, Note_off_c, 0, 83, 64
2, 16000, Note_off_c, 0, 86, 64
2, 16128, Note_on_c, 0, 79, 100
2, 16128, Note_on_c, 0, 83, 100
2, 16192, Note_off_c, 0, 79, 64
2, 16192, Note_off_c, 0, 83, 64
2, 16512, Note_on_c, 0, 81, 100
2, 16512, Note_on_c, 0, 84, 100
2, 16576, Note_off_c, 0, 81, 64
2, 16576, Note_off_c, 0, 84, 64
2, 16704, Note_on_c, 0, 81, 100
2, 16704, Note_on_c, 0, 84, 100
2, 16768, Note_off_c, 0, 81, 64
2, 16768, Note_off_c, 0, 84, 64
2, 16896, Note_on_c, 0, 78, 100
2, 16896, Note_on_c, 0, 81, 100
2, 16960, Note_off_c, 0, 78, 64
2, 16960, Note_off_c, 0, 81, 64
2, 17280, Note_on_c, 0, 79, 100
2, 17344, Note_off_c, 0, 79, 64
2, 17376, Note_on_c, 0, 81, 100
2, 17440, Note_off_c, 0, 81, 64
2, 17472, Note_on_c, 0, 83, 100
2, 17536, Note_off_c, 0, 83, 64
2, 17568, Note_on_c, 0, 79, 100
2, 17632, Note_off_c, 0, 79, 64
2, 17664, Note_on_c, 0, 75, 100
2, 17728, Note_off_c, 0, 75, 64
2, 17760, Note_on_c, 0, 76, 100
2, 17824, Note_off_c, 0, 76, 64
2, 17856, Note_on_c, 0, 79, 100
2, 17920, Note_off_c, 0, 79, 64
2, 17952, Note_on_c, 0, 76, 100
2, 18016, Note_off_c, 0, 76, 64
2, 18048, Note_on_c, 0, 74, 100
2, 18112, Note_off_c, 0, 74, 64
2, 18144, Note_on_c, 0, 71, 100
2, 18208, Note_off_c, 0, 71, 64
2, 18240, Note_on_c, 0, 72, 100
2, 18304, Note_off_c, 0, 72, 64
2, 18336, Note_on_c, 0, 69, 100
2, 18400, Note_off_c, 0, 69, 64
2, 18432, Note_on_c, 0, 67, 100
2, 18560, Note_off_c, 0, 67, 64
2, 18816, Note_on_c, 0, 67, 100
2, 18880, Note_off_c, 0, 67, 64
2, 18912, Note_on_c, 0, 69, 100
2, 18976, Note_off_c, 0, 69, 64
2, 19008, Note_on_c, 0, 71, 100
2, 19072, Note_off_c, 0, 71, 64
2, 19104, Note_on_c, 0, 72, 100
2, 19168, Note_off_c, 0, 72, 64
2, 19200, Note_on_c, 0, 74, 100
2, 19264, Note_off_c, 0, 74, 64
2, 19584, Note_on_c, 0, 71, 100
2, 19648, Note_off_c, 0, 71, 64
2, 19680, Note_on_c, 0, 72, 100
2, 19744, Note_off_c, 0, 72, 64
2, 19776, Note_on_c, 0, 74, 100
2, 19840, Note_off_c, 0, 74, 64
2, 19872, Note_on_c, 0, 76, 100
2, 19936, Note_off_c, 0, 76, 64
2, 19968, Note_on_c, 0, 77, 100
2, 20032, Note_off_c, 0, 77, 64
2, 20352, Note_on_c, 0, 74, 100
2, 20416, Note_off_c, 0, 74, 64
2, 20448, Note_on_c, 0, 76, 100
2, 20512, Note_off_c, 0, 76, 64
2, 20544, Note_on_c, 0, 77, 100
2, 20608, Note_off_c, 0, 77, 64
2, 20640, Note_on_c, 0, 79, 100
2, 20704, Note_off_c, 0, 79, 64
2, 20736, Note_on_c, 0, 81, 100
2, 20864, Note_off_c, 0, 81, 64
2, 20928, Note_on_c, 0, 80, 100
2, 20992, Note_off_c, 0, 80, 64
2, 21120, Note_on_c, 0, 79, 100
2, 21184, Note_off_c, 0, 79, 64
2, 21312, Note_on_c, 0, 78, 100
2, 21376, Note_off_c, 0, 78, 64
2, 21504, Note_on_c, 0, 77, 100
2, 21568, Note_off_c, 0, 77, 64
2, 21888, Note_on_c, 0, 76, 100
2, 21888, Note_on_c, 0, 79, 100
2, 21952, Note_off_c, 0, 76, 64
2, 21952, Note_off_c, 0, 79, 64
2, 22080, Note_on_c, 0, 76, 100
2, 22080, Note_on_c, 0, 79, 100
2, 22144, Note_off_c, 0, 76, 64
2, 22144, Note_off_c, 0, 79, 64
2, 22272, Note_on_c, 0, 72, 100
2, 22272, Note_on_c, 0, 76, 100
2, 22336, Note_off_c, 0, 72, 64
2, 22336, Note_off_c, 0, 76, 64
2, 22656, Note_on_c, 0, 74, 100
2, 22656, Note_on_c, 0, 77, 100
2, 22720, Note_off_c, 0, 74, 64
2, 22720, Note_off_c, 0, 77, 64
2, 22848, Note_on_c, 0, 74, 100
2, 22848, Note_on_c, 0, 77, 100
2, 22912, Note_off_c, 0, 74, 64
2, 22912, Note_off_c, 0, 77, 64
2, 23040, Note_on_c, 0, 71, 100
2, 23040, Note_on_c, 0, 74, 100
2, 23104, Note_off_c, 0, 71, 64
2, 23104, Note_off_c, 0, 74, 64
2, 23424, Note_on_c, 0, 72, 100
2, 23488, Note_off_c, 0, 72, 64
2, 23520, Note_on_c, 0, 74, 100
2, 23584, Note_off_c, 0, 74, 64
2, 23616, Note_on_c, 0, 76, 100
2, 23680, Note_off_c, 0, 76, 64
2, 23712, Note_on_c, 0, 72, 100
2, 23776, Note_off_c, 0, 72, 64
2, 23808, Note_on_c, 0, 69, 100
2, 23872, Note_off_c, 0, 69, 64
2, 23904, Note_on_c, 0, 71, 100
2, 23968, Note_off_c, 0, 71, 64
2, 24000, Note_on_c, 0, 72, 100
2, 24064, Note_off_c, 0, 72, 64
2, 24096, Note_on_c, 0, 73, 100
2, 24160, Note_off_c, 0, 73, 64
2, 24192, Note_on_c, 0, 74, 100
2, 24256, Note_off_c, 0, 74, 64
2, 24288, Note_on_c, 0, 76, 100
2, 24352, Note_off_c, 0, 76, 64
2, 24384, Note_on_c, 0, 77, 100
2, 24448, Note_off_c, 0, 77, 64
2, 24480, Note_on_c, 0, 74, 100
2, 24544, Note_off_c, 0, 74, 64
2, 24576, Note_on_c, 0, 72, 100
2, 24640, Note_off_c, 0, 72, 64
2, 24672, Note_on_c, 0, 71, 100
2, 24736, Note_off_c, 0, 71, 64
2, 24768, Note_on_c, 0, 69, 100
2, 24832, Note_off_c, 0, 69, 64
2, 24864, Note_on_c, 0, 67, 100
2, 24928, Note_off_c, 0, 67, 64
2, 24960, Note_on_c, 0, 76, 100
2, 24960, Note_on_c, 0, 79, 100
2, 25024, Note_off_c, 0, 76, 64
2, 25024, Note_off_c, 0, 79, 64
2, 25152, Note_on_c, 0, 76, 100
2, 25152, Note_on_c, 0, 79, 100
2, 25216, Note_off_c, 0, 76, 64
2, 25216, Note_off_c, 0, 79, 64
2, 25344, Note_on_c, 0, 72, 100
2, 25344, Note_on_c, 0, 76, 100
2, 25408, Note_off_c, 0, 72, 64
2, 25408, Note_off_c, 0, 76, 64
2, 25728, Note_on_c, 0, 77, 100
2, 25728, Note_on_c, 0, 81, 100
2, 25792, Note_off_c, 0, 77, 64
2, 25792, Note_off_c, 0, 81, 64
2, 25920, Note_on_c, 0, 77, 100
2, 25920, Note_on_c, 0, 81, 100
2, 25984, Note_off_c, 0, 77, 64
2, 25984, Note_off_c, 0, 81, 64
2, 26112, Note_on_c, 0, 71, 100
2, 26112, Note_on_c, 0, 74, 100
2, 26176, Note_off_c, 0, 71, 64
2, 26176, Note_off_c, 0, 74, 64
2, 26496, Note_on_c, 0, 81, 100
2, 26560, Note_off_c, 0, 81, 64
2, 26592, Note_on_c, 0, 79, 100
2, 26656, Note_off_c, 0, 79, 64
2, 26688, Note_on_c, 0, 77, 100
2, 26752, Note_off_c, 0, 77, 64
2, 26784, Note_on_c, 0, 76, 100
2, 26848, Note_off_c, 0, 76, 64
2, 26880, Note_on_c, 0, 73, 100
2, 26944, Note_off_c, 0, 73, 64
2, 26976, Note_on_c, 0, 74, 100
2, 27040, Note_off_c, 0, 74, 64
2, 27072, Note_on_c, 0, 76, 100
2, 27136, Note_off_c, 0, 76, 64
2, 27168, Note_on_c, 0, 77, 100
2, 27232, Note_off_c, 0, 77, 64
2, 27264, Note_on_c, 0, 69, 100
2, 27328, Note_off_c, 0, 69, 64
2, 27360, Note_on_c, 0, 72, 100
2, 27424, Note_off_c, 0, 72, 64
2, 27456, Note_on_c, 0, 71, 100
2, 27520, Note_off_c, 0, 71, 64
2, 27552, Note_on_c, 0, 74, 100
2, 27616, Note_off_c, 0, 74, 64
2, 27648, Note_on_c, 0, 72, 100
2, 27712, Note_off_c, 0, 72, 64
2, 28416, Note_on_c, 0, 76, 100
2, 28480, Note_off_c, 0, 76, 64
2, 28512, Note_on_c, 0, 75, 100
2, 28576, Note_off_c, 0, 75, 64
2, 28608, Note_on_c, 0, 77, 100
2, 28672, Note_off_c, 0, 77, 64
2, 28704, Note_on_c, 0, 76, 100
2, 28768, Note_off_c, 0, 76, 64
2, 29184, Note_on_c, 0, 76, 100
2, 29248, Note_off_c, 0, 76, 64
2, 29280, Note_on_c, 0, 75, 100
2, 29344, Note_off_c, 0, 75, 64
2, 29376, Note_on_c, 0, 77, 100
2, 29440, Note_off_c, 0, 77, 64
2, 29472, Note_on_c, 0, 76, 100
2, 29536, Note_off_c, 0, 76, 64
2, 29568, Note_on_c, 0, 76, 100
2, 29568, Note_on_c, 0, 84, 100
2, 29632, Note_off_c, 0, 76, 64
2, 29632, Note_off_c, 0, 84, 64
2, 29760, Note_on_c, 0, 76, 100
2, 29760, Note_on_c, 0, 84, 100
2, 29824, Note_off_c, 0, 76, 64
2, 29824, Note_off_c, 0, 84, 64
2, 29952, Note_on_c, 0, 72, 100
2, 29952, Note_on_c, 0, 81, 100
2, 30016, Note_off_c, 0, 72, 64
2, 30016, Note_off_c, 0, 81, 64
2, 30336, Note_on_c, 0, 74, 100
2, 30336, Note_on_c, 0, 83, 100
2, 30400, Note_off_c, 0, 74, 64
2, 30400, Note_off_c, 0, 83, 64
2, 30528, Note_on_c, 0, 74, 100
2, 30528, Note_on_c, 0, 83, 100
2, 30592, Note_off_c, 0, 74, 64
2, 30592, Note_off_c, 0, 83, 64
2, 30720, Note_on_c, 0, 71, 100
2, 30720, Note_on_c, 0, 80, 100
2, 30784, Note_off_c, 0, 71, 64
2, 30784, Note_off_c, 0, 80, 64
2, 31104, Note_on_c, 0, 81, 100
2, 31168, Note_off_c, 0, 81, 64
2, 31200, Note_on_c, 0, 76, 100
2, 31264, Note_off_c, 0, 76, 64
2, 31296, Note_on_c, 0, 72, 100
2, 31360, Note_off_c, 0, 72, 64
2, 31392, Note_on_c, 0, 69, 100
2, 31456, Note_off_c, 0, 69, 64
2, 31488, Note_on_c, 0, 72, 100
2, 31552, Note_off_c, 0, 72, 64
2, 31584, Note_on_c, 0, 70, 100
2, 31648, Note_off_c, 0, 70, 64
2, 31680, Note_on_c, 0, 70, 100
2, 31744, Note_off_c, 0, 70, 64
2, 31776, Note_on_c, 0, 70, 100
2, 31840, Note_off_c, 0, 70, 64
2, 31872, Note_on_c, 0, 74, 100
2, 31936, Note_off_c, 0, 74, 64
2, 31968, Note_on_c, 0, 73, 100
2, 32032, Note_off_c, 0, 73, 64
2, 32064, Note_on_c, 0, 73, 100
2, 32128, Note_off_c, 0, 73, 64
2, 32160, Note_on_c, 0, 73, 100
2, 32224, Note_off_c, 0, 73, 64
2, 32256, Note_on_c, 0, 76, 100
2, 32320, Note_off_c, 0, 76, 64
2, 32352, Note_on_c, 0, 74, 100
2, 32416, Note_off_c, 0, 74, 64
2, 32448, Note_on_c, 0, 77, 100
2, 32512, Note_off_c, 0, 77, 64
2, 32544, Note_on_c, 0, 76, 100
2, 32608, Note_off_c, 0, 76, 64
2, 32640, Note_on_c, 0, 79, 100
2, 32704, Note_off_c, 0, 79, 64
2, 32736, Note_on_c, 0, 77, 100
2, 32800, Note_off_c, 0, 77, 64
2, 32832, Note_on_c, 0, 77, 100
2, 32896, Note_off_c, 0, 77, 64
2, 32928, Note_on_c, 0, 76, 100
2, 32992, Note_off_c, 0, 76, 64
2, 33024, Note_on_c, 0, 76, 100
2, 33088, Note_off_c, 0, 76, 64
2, 33120, Note_on_c, 0, 75, 100
2, 33184, Note_off_c, 0, 75, 64
2, 33216, Note_on_c, 0, 84, 100
2, 33472, Note_off_c, 0, 84, 64
2, 33600, Note_on_c, 0, 75, 100
2, 33728, Note_off_c, 0, 75, 64
2, 33792, Note_on_c, 0, 76, 100
2, 33920, Note_off_c, 0, 76, 64
2, 34176, Note_on_c, 0, 83, 100
2, 34240, Note_off_c, 0, 83, 64
2, 34272, Note_on_c, 0, 80, 100
2, 34336, Note_off_c, 0, 80, 64
2, 34368, Note_on_c, 0, 76, 100
2, 34432, Note_off_c, 0, 76, 64
2, 34464, Note_on_c, 0, 74, 100
2, 34528, Note_off_c, 0, 74, 64
2, 34560, Note_on_c, 0, 72, 100
2, 34624, Note_off_c, 0, 72, 64
2, 34656, Note_on_c, 0, 76, 100
2, 34720, Note_off_c, 0, 76, 64
2, 34752, Note_on_c, 0, 81, 100
2, 34816, Note_off_c, 0, 81, 64
2, 34848, Note_on_c, 0, 80, 100
2, 34912, Note_off_c, 0, 80, 64
2, 34944, Note_on_c, 0, 81, 100
2, 35008, Note_off_c, 0, 81, 64
2, 35040, Note_on_c, 0, 76, 100
2, 35104, Note_off_c, 0, 76, 64
2, 35136, Note_on_c, 0, 72, 100
2, 35200, Note_off_c, 0, 72, 64
2, 35232, Note_on_c, 0, 69, 100
2, 35296, Note_off_c, 0, 69, 64
2, 35328, Note_on_c, 0, 68, 100
2, 35392, Note_off_c, 0, 68, 64
2, 35424, Note_on_c, 0, 71, 100
2, 35488, Note_off_c, 0, 71, 64
2, 35520, Note_on_c, 0, 76, 100
2, 35584, Note_off_c, 0, 76, 64
2, 35616, Note_on_c, 0, 80, 100
2, 35680, Note_off_c, 0, 80, 64
2, 35712, Note_on_c, 0, 83, 100
2, 35776, Note_off_c, 0, 83, 64
2, 35808, Note_on_c, 0, 80, 100
2, 35872, Note_off_c, 0, 80, 64
2, 35904, Note_on_c, 0, 76, 100
2, 35968, Note_off_c, 0, 76, 64
2, 36000, Note_on_c, 0, 74, 100
2, 36064, Note_off_c, 0, 74, 64
2, 36096, Note_on_c, 0, 72, 100
2, 36160, Note_off_c, 0, 72, 64
2, 36192, Note_on_c, 0, 76, 100
2, 36256, Note_off_c, 0, 76, 64
2, 36288, Note_on_c, 0, 81, 100
2, 36352, Note_off_c, 0, 81, 64
2, 36384, Note_on_c, 0, 80, 100
2, 36448, Note_off_c, 0, 80, 64
2, 36480, Note_on_c, 0, 81, 100
2, 36544, Note_off_c, 0, 81, 64
2, 36576, Note_on_c, 0, 76, 100
2, 36640, Note_off_c, 0, 76, 64
2, 36672, Note_on_c, 0, 72, 100
2, 36736, Note_off_c, 0, 72, 64
2, 36768, Note_on_c, 0, 69, 100
2, 36832, Note_off_c, 0, 69, 64
2, 36864, Note_on_c, 0, 64, 100
2, 36992, Note_off_c, 0, 64, 64
2, 37248, Note_on_c, 0, 72, 100
2, 37248, Note_on_c, 0, 76, 100
2, 37312, Note_off_c, 0, 72, 64
2, 37312, Note_off_c, 0, 76, 64
2, 37440, Note_on_c, 0, 72, 100
2, 37440, Note_on_c, 0, 76, 100
2, 37504, Note_off_c, 0, 72, 64
2, 37504, Note_off_c, 0, 76, 64
2, 37632, Note_on_c, 0, 69, 100
2, 37632, Note_on_c, 0, 72, 100
2, 37696, Note_off_c, 0, 69, 64
2, 37696, Note_off_c, 0, 72, 64
2, 38016, Note_on_c, 0, 71, 100
2, 38016, Note_on_c, 0, 74, 100
2, 38080, Note_off_c, 0, 71, 64
2, 38080, Note_off_c, 0, 74, 64
2, 38208, Note_on_c, 0, 71, 100
2, 38208, Note_on_c, 0, 74, 100
2, 38272, Note_off_c, 0, 71, 64
2, 38272, Note_off_c, 0, 74, 64
2, 38400, Note_on_c, 0, 68, 100
2, 38400, Note_on_c, 0, 71, 100
2, 38464, Note_off_c, 0, 68, 64
2, 38464, Note_off_c, 0, 71, 64
2, 39168, Note_on_c, 0, 64, 100
2, 39232, Note_off_c, 0, 64, 64
2, 39264, Note_on_c, 0, 63, 100
2, 39328, Note_off_c, 0, 63, 64
2, 39360, Note_on_c, 0, 65, 100
2, 39424, Note_off_c, 0, 65, 64
2, 39456, Note_on_c, 0, 64, 100
2, 39520, Note_off_c, 0, 64, 64
2, 39936, Note_on_c, 0, 88, 100
2, 40000, Note_off_c, 0, 88, 64
2, 40032, Note_on_c, 0, 87, 100
2, 40096, Note_off_c, 0, 87, 64
2, 40128, Note_on_c, 0, 89, 100
2, 40192, Note_off_c, 0, 89, 64
2, 40224, Note_on_c, 0, 88, 100
2, 40288, Note_off_c, 0, 88, 64
2, 40320, Note_on_c, 0, 86, 100
2, 40384, Note_off_c, 0, 86, 64
2, 40416, Note_on_c, 0, 85, 100
2, 40480, Note_off_c, 0, 85, 64
2, 40512, Note_on_c, 0, 88, 100
2, 40576, Note_off_c, 0, 88, 64
2, 40608, Note_on_c, 0, 86, 100
2, 40672, Note_off_c, 0, 86, 64
2, 40704, Note_on_c, 0, 86, 100
2, 40768, Note_off_c, 0, 86, 64
2, 40800, Note_on_c, 0, 84, 100
2, 40864, Note_off_c, 0, 84, 64
2, 40896, Note_on_c, 0, 84, 100
2, 40960, Note_off_c, 0, 84, 64
2, 40992, Note_on_c, 0, 83, 100
2, 41056, Note_off_c, 0, 83, 64
2, 41088, Note_on_c, 0, 83, 100
2, 41152, Note_off_c, 0, 83, 64
2, 41184, Note_on_c, 0, 81, 100
2, 41248, Note_off_c, 0, 81, 64
2, 41280, Note_on_c, 0, 81, 100
2, 41344, Note_off_c, 0, 81, 64
2, 41376, Note_on_c, 0, 79, 100
2, 41440, Note_off_c, 0, 79, 64
2, 41472, Note_on_c, 0, 79, 100
2, 41472, Note_on_c, 0, 69, 100
2, 41536, Note_off_c, 0, 79, 64
2, 41568, Note_on_c, 0, 77, 100
2, 41600, Note_off_c, 0, 69, 64
2, 41632, Note_off_c, 0, 77, 64
2, 41664, Note_on_c, 0, 77, 100
2, 41728, Note_off_c, 0, 77, 64
2, 41760, Note_on_c, 0, 76, 100
2, 41824, Note_off_c, 0, 76, 64
2, 41856, Note_on_c, 0, 76, 100
2, 41920, Note_off_c, 0, 76, 64
2, 41952, Note_on_c, 0, 74, 100
2, 42016, Note_off_c, 0, 74, 64
2, 42048, Note_on_c, 0, 74, 100
2, 42112, Note_off_c, 0, 74, 64
2, 42144, Note_on_c, 0, 72, 100
2, 42208, Note_off_c, 0, 72, 64
2, 42240, Note_on_c, 0, 70, 100
2, 42304, Note_off_c, 0, 70, 64
2, 42336, Note_on_c, 0, 77, 100
2, 42400, Note_off_c, 0, 77, 64
2, 42432, Note_on_c, 0, 74, 100
2, 42496, Note_off_c, 0, 74, 64
2, 42528, Note_on_c, 0, 70, 100
2, 42592, Note_off_c, 0, 70, 64
2, 42624, Note_on_c, 0, 69, 100
2, 42752, Note_off_c, 0, 69, 64
2, 42816, Note_on_c, 0, 68, 100
2, 42944, Note_off_c, 0, 68, 64
2, 43008, Note_on_c, 0, 69, 100
2, 43136, Note_off_c, 0, 69, 64
2, 43392, Note_on_c, 0, 68, 100
2, 43456, Note_off_c, 0, 68, 64
2, 43488, Note_on_c, 0, 74, 100
2, 43552, Note_off_c, 0, 74, 64
2, 43584, Note_on_c, 0, 71, 100
2, 43648, Note_off_c, 0, 71, 64
2, 43680, Note_on_c, 0, 68, 100
2, 43744, Note_off_c, 0, 68, 64
2, 43776, Note_on_c, 0, 69, 100
2, 43904, Note_off_c, 0, 69, 64
2, 44160, Note_on_c, 0, 68, 100
2, 44224, Note_off_c, 0, 68, 64
2, 44256, Note_on_c, 0, 74, 100
2, 44320, Note_off_c, 0, 74, 64
2, 44352, Note_on_c, 0, 71, 100
2, 44416, Note_off_c, 0, 71, 64
2, 44448, Note_on_c, 0, 68, 100
2, 44512, Note_off_c, 0, 68, 64
2, 44544, Note_on_c, 0, 69, 100
2, 44672, Note_off_c, 0, 69, 64
2, 44928, Note_on_c, 0, 68, 100
2, 44992, Note_off_c, 0, 68, 64
2, 45024, Note_on_c, 0, 74, 100
2, 45088, Note_off_c, 0, 74, 64
2, 45120, Note_on_c, 0, 71, 100
2, 45184, Note_off_c, 0, 71, 64
2, 45216, Note_on_c, 0, 68, 100
2, 45280, Note_off_c, 0, 68, 64
2, 45312, Note_on_c, 0, 69, 100
2, 45376, Note_off_c, 0, 69, 64
2, 45408, Note_on_c, 0, 76, 100
2, 45472, Note_off_c, 0, 76, 64
2, 45504, Note_on_c, 0, 72, 100
2, 45568, Note_off_c, 0, 72, 64
2, 45600, Note_on_c, 0, 69, 100
2, 45664, Note_off_c, 0, 69, 64
2, 45696, Note_on_c, 0, 71, 100
2, 45760, Note_off_c, 0, 71, 64
2, 45792, Note_on_c, 0, 77, 100
2, 45856, Note_off_c, 0, 77, 64
2, 45888, Note_on_c, 0, 74, 100
2, 45952, Note_off_c, 0, 74, 64
2, 45984, Note_on_c, 0, 71, 100
2, 46048, Note_off_c, 0, 71, 64
2, 46464, Note_on_c, 0, 76, 100
2, 46464, Note_on_c, 0, 79, 100
2, 46528, Note_off_c, 0, 76, 64
2, 46528, Note_off_c, 0, 79, 64
2, 46656, Note_on_c, 0, 76, 100
2, 46656, Note_on_c, 0, 79, 100
2, 46720, Note_off_c, 0, 76, 64
2, 46720, Note_off_c, 0, 79, 64
2, 46848, Note_on_c, 0, 72, 100
2, 46848, Note_on_c, 0, 76, 100
2, 46912, Note_off_c, 0, 72, 64
2, 46912, Note_off_c, 0, 76, 64
2, 47232, Note_on_c, 0, 74, 100
2, 47232, Note_on_c, 0, 77, 100
2, 47296, Note_off_c, 0, 74, 64
2, 47296, Note_off_c, 0, 77, 64
2, 47424, Note_on_c, 0, 74, 100
2, 47424, Note_on_c, 0, 77, 100
2, 47488, Note_off_c, 0, 74, 64
2, 47488, Note_off_c, 0, 77, 64
2, 47616, Note_on_c, 0, 71, 100
2, 47616, Note_on_c, 0, 74, 100
2, 47680, Note_off_c, 0, 71, 64
2, 47680, Note_off_c, 0, 74, 64
2, 48000, Note_on_c, 0, 72, 100
2, 48064, Note_off_c, 0, 72, 64
2, 48096, Note_on_c, 0, 74, 100
2, 48160, Note_off_c, 0, 74, 64
2, 48192, Note_on_c, 0, 76, 100
2, 48256, Note_off_c, 0, 76, 64
2, 48288, Note_on_c, 0, 72, 100
2, 48352, Note_off_c, 0, 72, 64
2, 48384, Note_on_c, 0, 69, 100
2, 48448, Note_off_c, 0, 69, 64
2, 48480, Note_on_c, 0, 71, 100
2, 48544, Note_off_c, 0, 71, 64
2, 48576, Note_on_c, 0, 72, 100
2, 48640, Note_off_c, 0, 72, 64
2, 48672, Note_on_c, 0, 73, 100
2, 48736, Note_off_c, 0, 73, 64
2, 48768, Note_on_c, 0, 74, 100
2, 48832, Note_off_c, 0, 74, 64
2, 48864, Note_on_c, 0, 76, 100
2, 48928, Note_off_c, 0, 76, 64
2, 48960, Note_on_c, 0, 77, 100
2, 49024, Note_off_c, 0, 77, 64
2, 49056, Note_on_c, 0, 74, 100
2, 49120, Note_off_c, 0, 74, 64
2, 49152, Note_on_c, 0, 72, 100
2, 49216, Note_off_c, 0, 72, 64
2, 49248, Note_on_c, 0, 71, 100
2, 49312, Note_off_c, 0, 71, 64
2, 49344, Note_on_c, 0, 69, 100
2, 49408, Note_off_c, 0, 69, 64
2, 49440, Note_on_c, 0, 67, 100
2, 49504, Note_off_c, 0, 67, 64
2, 49536, Note_on_c, 0, 76, 100
2, 49536, Note_on_c, 0, 79, 100
2, 49600, Note_off_c, 0, 76, 64
2, 49600, Note_off_c, 0, 79, 64
2, 49728, Note_on_c, 0, 76, 100
2, 49728, Note_on_c, 0, 79, 100
2, 49792, Note_off_c, 0, 76, 64
2, 49792, Note_off_c, 0, 79, 64
2, 49920, Note_on_c, 0, 72, 100
2, 49920, Note_on_c, 0, 76, 100
2, 49984, Note_off_c, 0, 72, 64
2, 49984, Note_off_c, 0, 76, 64
2, 50304, Note_on_c, 0, 77, 100
2, 50304, Note_on_c, 0, 81, 100
2, 50368, Note_off_c, 0, 77, 64
2, 50368, Note_off_c, 0, 81, 64
2, 50496, Note_on_c, 0, 77, 100
2, 50496, Note_on_c, 0, 81, 100
2, 50560, Note_off_c, 0, 77, 64
2, 50560, Note_off_c, 0, 81, 64
2, 50688, Note_on_c, 0, 71, 100
2, 50688, Note_on_c, 0, 74, 100
2, 50752, Note_off_c, 0, 71, 64
2, 50752, Note_off_c, 0, 74, 64
2, 51072, Note_on_c, 0, 81, 100
2, 51136, Note_off_c, 0, 81, 64
2, 51168, Note_on_c, 0, 79, 100
2, 51232, Note_off_c, 0, 79, 64
2, 51264, Note_on_c, 0, 77, 100
2, 51328, Note_off_c, 0, 77, 64
2, 51360, Note_on_c, 0, 76, 100
2, 51424, Note_off_c, 0, 76, 64
2, 51456, Note_on_c, 0, 73, 100
2, 51520, Note_off_c, 0, 73, 64
2, 51552, Note_on_c, 0, 74, 100
2, 51616, Note_off_c, 0, 74, 64
2, 51648, Note_on_c, 0, 76, 100
2, 51712, Note_off_c, 0, 76, 64
2, 51744, Note_on_c, 0, 77, 100
2, 51808, Note_off_c, 0, 77, 64
2, 51840, Note_on_c, 0, 69, 100
2, 51904, Note_off_c, 0, 69, 64
2, 51936, Note_on_c, 0, 72, 100
2, 52000, Note_off_c, 0, 72, 64
2, 52032, Note_on_c, 0, 71, 100
2, 52096, Note_off_c, 0, 71, 64
2, 52128, Note_on_c, 0, 74, 100
2, 52192, Note_off_c, 0, 74, 64
2, 52224, Note_on_c, 0, 72, 100
2, 52288, Note_off_c, 0, 72, 64
2, 52608, Note_on_c, 0, 71, 100
2, 52672, Note_off_c, 0, 71, 64
2, 52704, Note_on_c, 0, 77, 100
2, 52768, Note_off_c, 0, 77, 64
2, 52800, Note_on_c, 0, 74, 100
2, 52864, Note_off_c, 0, 74, 64
2, 52896, Note_on_c, 0, 71, 100
2, 52960, Note_off_c, 0, 71, 64
2, 52992, Note_on_c, 0, 81, 100
2, 53056, Note_off_c, 0, 81, 64
2, 53088, Note_on_c, 0, 79, 100
2, 53152, Note_off_c, 0, 79, 64
2, 53184, Note_on_c, 0, 77, 100
2, 53248, Note_off_c, 0, 77, 64
2, 53280, Note_on_c, 0, 76, 100
2, 53344, Note_off_c, 0, 76, 64
2, 53376, Note_on_c, 0, 74, 100
2, 53440, Note_off_c, 0, 74, 64
2, 53472, Note_on_c, 0, 77, 100
2, 53536, Note_off_c, 0, 77, 64
2, 53568, Note_on_c, 0, 74, 100
2, 53632, Note_off_c, 0, 74, 64
2, 53664, Note_on_c, 0, 71, 100
2, 53728, Note_off_c, 0, 71, 64
2, 53760, Note_on_c, 0, 81, 100
2, 53824, Note_off_c, 0, 81, 64
2, 53856, Note_on_c, 0, 79, 100
2, 53920, Note_off_c, 0, 79, 64
2, 53952, Note_on_c, 0, 77, 100
2, 54016, Note_off_c, 0, 77, 64
2, 54048, Note_on_c, 0, 76, 100
2, 54112, Note_off_c, 0, 76, 64
2, 54144, Note_on_c, 0, 86, 100
2, 54208, Note_off_c, 0, 86, 64
2, 54240, Note_on_c, 0, 84, 100
2, 54304, Note_off_c, 0, 84, 64
2, 54336, Note_on_c, 0, 83, 100
2, 54400, Note_off_c, 0, 83, 64
2, 54432, Note_on_c, 0, 81, 100
2, 54496, Note_off_c, 0, 81, 64
2, 54528, Note_on_c, 0, 81, 100
2, 54592, Note_off_c, 0, 81, 64
2, 54624, Note_on_c, 0, 79, 100
2, 54688, Note_off_c, 0, 79, 64
2, 54720, Note_on_c, 0, 77, 100
2, 54784, Note_off_c, 0, 77, 64
2, 54816, Note_on_c, 0, 76, 100
2, 54880, Note_off_c, 0, 76, 64
2, 54912, Note_on_c, 0, 76, 100
2, 54976, Note_off_c, 0, 76, 64
2, 55008, Note_on_c, 0, 74, 100
2, 55072, Note_off_c, 0, 74, 64
2, 55104, Note_on_c, 0, 72, 100
2, 55168, Note_off_c, 0, 72, 64
2, 55200, Note_on_c, 0, 71, 100
2, 55264, Note_off_c, 0, 71, 64
2, 55296, Note_on_c, 0, 74, 100
2, 55392, Note_on_c, 0, 67, 100
2, 55424, Note_off_c, 0, 74, 64
2, 55456, Note_off_c, 0, 67, 64
2, 55488, Note_on_c, 0, 72, 100
2, 55584, Note_on_c, 0, 67, 100
2, 55616, Note_off_c, 0, 72, 64
2, 55648, Note_off_c, 0, 67, 64
2, 55680, Note_on_c, 0, 71, 100
2, 55744, Note_off_c, 0, 71, 64
2, 55776, Note_on_c, 0, 77, 100
2, 55840, Note_off_c, 0, 77, 64
2, 55872, Note_on_c, 0, 74, 100
2, 55936, Note_off_c, 0, 74, 64
2, 55968, Note_on_c, 0, 71, 100
2, 56032, Note_off_c, 0, 71, 64
2, 56064, Note_on_c, 0, 81, 100
2, 56128, Note_off_c, 0, 81, 64
2, 56160, Note_on_c, 0, 79, 100
2, 56224, Note_off_c, 0, 79, 64
2, 56256, Note_on_c, 0, 77, 100
2, 56320, Note_off_c, 0, 77, 64
2, 56352, Note_on_c, 0, 76, 100
2, 56416, Note_off_c, 0, 76, 64
2, 56448, Note_on_c, 0, 74, 100
2, 56512, Note_off_c, 0, 74, 64
2, 56544, Note_on_c, 0, 77, 100
2, 56608, Note_off_c, 0, 77, 64
2, 56640, Note_on_c, 0, 74, 100
2, 56704, Note_off_c, 0, 74, 64
2, 56736, Note_on_c, 0, 71, 100
2, 56800, Note_off_c, 0, 71, 64
2, 56832, Note_on_c, 0, 81, 100
2, 56896, Note_off_c, 0, 81, 64
2, 56928, Note_on_c, 0, 79, 100
2, 56992, Note_off_c, 0, 79, 64
2, 57024, Note_on_c, 0, 77, 100
2, 57088, Note_off_c, 0, 77, 64
2, 57120, Note_on_c, 0, 76, 100
2, 57184, Note_off_c, 0, 76, 64
2, 57216, Note_on_c, 0, 86, 100
2, 57280, Note_off_c, 0, 86, 64
2, 57312, Note_on_c, 0, 84, 100
2, 57376, Note_off_c, 0, 84, 64
2, 57408, Note_on_c, 0, 83, 100
2, 57472, Note_off_c, 0, 83, 64
2, 57504, Note_on_c, 0, 81, 100
2, 57568, Note_off_c, 0, 81, 64
2, 57600, Note_on_c, 0, 81, 100
2, 57664, Note_off_c, 0, 81, 64
2, 57696, Note_on_c, 0, 79, 100
2, 57760, Note_off_c, 0, 79, 64
2, 57792, Note_on_c, 0, 77, 100
2, 57856, Note_off_c, 0, 77, 64
2, 57888, Note_on_c, 0, 76, 100
2, 57952, Note_off_c, 0, 76, 64
2, 57984, Note_on_c, 0, 76, 100
2, 58048, Note_off_c, 0, 76, 64
2, 58080, Note_on_c, 0, 74, 100
2, 58144, Note_off_c, 0, 74, 64
2, 58176, Note_on_c, 0, 72, 100
2, 58240, Note_off_c, 0, 72, 64
2, 58272, Note_on_c, 0, 71, 100
2, 58336, Note_off_c, 0, 71, 64
2, 58368, Note_on_c, 0, 72, 100
2, 58432, Note_off_c, 0, 72, 64
2, 58464, Note_on_c, 0, 76, 100
2, 58528, Note_off_c, 0, 76, 64
2, 58560, Note_on_c, 0, 67, 100
2, 58624, Note_off_c, 0, 67, 64
2, 58656, Note_on_c, 0, 72, 100
2, 58720, Note_off_c, 0, 72, 64
2, 58752, Note_on_c, 0, 64, 100
2, 58816, Note_off_c, 0, 64, 64
2, 58848, Note_on_c, 0, 67, 100
2, 58912, Note_off_c, 0, 67, 64
2, 58944, Note_on_c, 0, 60, 100
2, 59008, Note_off_c, 0, 60, 64
2, 59040, Note_on_c, 0, 64, 100
2, 59104, Note_off_c, 0, 64, 64
2, 59136, Note_on_c, 0, 67, 100
2, 59200, Note_off_c, 0, 67, 64
2, 59232, Note_on_c, 0, 72, 100
2, 59296, Note_off_c, 0, 72, 64
2, 59328, Note_on_c, 0, 72, 100
2, 59328, Note_on_c, 0, 76, 100
2, 59392, Note_off_c, 0, 72, 64
2, 59392, Note_off_c, 0, 76, 64
2, 59424, Note_on_c, 0, 76, 100
2, 59424, Note_on_c, 0, 79, 100
2, 59488, Note_off_c, 0, 76, 64
2, 59488, Note_off_c, 0, 79, 64
2, 59520, Note_on_c, 0, 76, 100
2, 59520, Note_on_c, 0, 79, 100
2, 59584, Note_off_c, 0, 76, 64
2, 59584, Note_off_c, 0, 79, 64
2, 59616, Note_on_c, 0, 74, 100
2, 59616, Note_on_c, 0, 77, 100
2, 59680, Note_off_c, 0, 74, 64
2, 59680, Note_off_c, 0, 77, 64
2, 59712, Note_on_c, 0, 72, 100
2, 59712, Note_on_c, 0, 76, 100
2, 59776, Note_off_c, 0, 72, 64
2, 59776, Note_off_c, 0, 76, 64
2, 59808, Note_on_c, 0, 71, 100
2, 59808, Note_on_c, 0, 74, 100
2, 59872, Note_off_c, 0, 71, 64
2, 59872, Note_off_c, 0, 74, 64
2, 59904, Note_on_c, 0, 72, 100
2, 59968, Note_off_c, 0, 72, 64
2, 60000, Note_on_c, 0, 76, 100
2, 60064, Note_off_c, 0, 76, 64
2, 60096, Note_on_c, 0, 67, 100
2, 60160, Note_off_c, 0, 67, 64
2, 60192, Note_on_c, 0, 72, 100
2, 60256, Note_off_c, 0, 72, 64
2, 60288, Note_on_c, 0, 64, 100
2, 60352, Note_off_c, 0, 64, 64
2, 60384, Note_on_c, 0, 67, 100
2, 60448, Note_off_c, 0, 67, 64
2, 60480, Note_on_c, 0, 60, 100
2, 60544, Note_off_c, 0, 60, 64
2, 60576, Note_on_c, 0, 64, 100
2, 60640, Note_off_c, 0, 64, 64
2, 60672, Note_on_c, 0, 67, 100
2, 60736, Note_off_c, 0, 67, 64
2, 60768, Note_on_c, 0, 72, 100
2, 60832, Note_off_c, 0, 72, 64
2, 60864, Note_on_c, 0, 72, 100
2, 60864, Note_on_c, 0, 76, 100
2, 60928, Note_off_c, 0, 72, 64
2, 60928, Note_off_c, 0, 76, 64
2, 60960, Note_on_c, 0, 76, 100
2, 60960, Note_on_c, 0, 79, 100
2, 61024, Note_off_c, 0, 76, 64
2, 61024, Note_off_c, 0, 79, 64
2, 61056, Note_on_c, 0, 76, 100
2, 61056, Note_on_c, 0, 79, 100
2, 61120, Note_off_c, 0, 76, 64
2, 61120, Note_off_c, 0, 79, 64
2, 61152, Note_on_c, 0, 74, 100
2, 61152, Note_on_c, 0, 77, 100
2, 61216, Note_off_c, 0, 74, 64
2, 61216, Note_off_c, 0, 77, 64
2, 61248, Note_on_c, 0, 72, 100
2, 61248, Note_on_c, 0, 76, 100
2, 61312, Note_off_c, 0, 72, 64
2, 61312, Note_off_c, 0, 76, 64
2, 61344, Note_on_c, 0, 71, 100
2, 61344, Note_on_c, 0, 74, 100
2, 61408, Note_off_c, 0, 71, 64
2, 61408, Note_off_c, 0, 74, 64
2, 61440, Note_on_c, 0, 72, 100
2, 61504, Note_off_c, 0, 72, 64
2, 61632, Note_on_c, 0, 76, 100
2, 61632, Note_on_c, 0, 79, 100
2, 61632, Note_on_c, 0, 84, 100
2, 61696, Note_off_c, 0, 76, 64
2, 61696, Note_off_c, 0, 79, 64
2, 61696, Note_off_c, 0, 84, 64
2, 61824, Note_on_c, 0, 64, 100
2, 61824, Note_on_c, 0, 72, 100
2, 61888, Note_off_c, 0, 64, 64
2, 61888, Note_off_c, 0, 72, 64
2, 62016, Note_on_c, 0, 64, 100
2, 62016, Note_on_c, 0, 72, 100
2, 62080, Note_off_c, 0, 64, 64
2, 62080, Note_off_c, 0, 72, 64
2, 62208, Note_on_c, 0, 64, 100
2, 62208, Note_on_c, 0, 72, 100
2, 62720, Note_off_c, 0, 64, 64
2, 62720, Note_off_c, 0, 72, 64
2, 62720, End_track
3, 0, Start_track
3, 0, Key_signature, 0, "major"
3, 768, Note_on_c, 1, 57, 100
3, 768, Note_on_c, 1, 60, 100
3, 832, Note_off_c, 1, 57, 64
3, 832, Note_off_c, 1, 60, 64
3, 960, Note_on_c, 1, 57, 100
3, 960, Note_on_c, 1, 60, 100
3, 1024, Note_off_c, 1, 57, 64
3, 1024, Note_off_c, 1, 60, 64
3, 1152, Note_on_c, 1, 53, 100
3, 1152, Note_on_c, 1, 57, 100
3, 1216, Note_off_c, 1, 53, 64
3, 1216, Note_off_c, 1, 57, 64
3, 1536, Note_on_c, 1, 55, 100
3, 1536, Note_on_c, 1, 59, 100
3, 1600, Note_off_c, 1, 55, 64
3, 1600, Note_off_c, 1, 59, 64
3, 1728, Note_on_c, 1, 55, 100
3, 1728, Note_on_c, 1, 59, 100
3, 1792, Note_off_c, 1, 55, 64
3, 1792, Note_off_c, 1, 59, 64
3, 1920, Note_on_c, 1, 52, 100
3, 1920, Note_on_c, 1, 55, 100
3, 1984, Note_off_c, 1, 52, 64
3, 1984, Note_off_c, 1, 55, 64
3, 2304, Note_on_c, 1, 53, 100
3, 2688, Note_off_c, 1, 53, 64
3, 2880, Note_on_c, 1, 50, 100
3, 3008, Note_off_c, 1, 50, 64
3, 3072, Note_on_c, 1, 55, 100
3, 3200, Note_off_c, 1, 55, 64
3, 3840, Note_on_c, 1, 57, 100
3, 3840, Note_on_c, 1, 60, 100
3, 3904, Note_off_c, 1, 57, 64
3, 3904, Note_off_c, 1, 60, 64
3, 4032, Note_on_c, 1, 57, 100
3, 4032, Note_on_c, 1, 60, 100
3, 4096, Note_off_c, 1, 57, 64
3, 4096, Note_off_c, 1, 60, 64
3, 4224, Note_on_c, 1, 50, 100
3, 4224, Note_on_c, 1, 53, 100
3, 4288, Note_off_c, 1, 50, 64
3, 4288, Note_off_c, 1, 53, 64
3, 4608, Note_on_c, 1, 55, 100
3, 4608, Note_on_c, 1, 59, 100
3, 4672, Note_off_c, 1, 55, 64
3, 4672, Note_off_c, 1, 59, 64
3, 4800, Note_on_c, 1, 55, 100
3, 4800, Note_on_c, 1, 59, 100
3, 4864, Note_off_c, 1, 55, 64
3, 4864, Note_off_c, 1, 59, 64
3, 4992, Note_on_c, 1, 48, 100
3, 4992, Note_on_c, 1, 52, 100
3, 5056, Note_off_c, 1, 48, 64
3, 5056, Note_off_c, 1, 52, 64
3, 5376, Note_on_c, 1, 53, 100
3, 5376, Note_on_c, 1, 57, 100
3, 5760, Note_off_c, 1, 53, 64
3, 5760, Note_off_c, 1, 57, 64
3, 5952, Note_on_c, 1, 55, 100
3, 5952, Note_on_c, 1, 65, 100
3, 6080, Note_off_c, 1, 55, 64
3, 6080, Note_off_c, 1, 65, 64
3, 6144, Note_on_c, 1, 60, 100
3, 6144, Note_on_c, 1, 64, 100
3, 6208, Note_off_c, 1, 60, 64
3, 6208, Note_off_c, 1, 64, 64
3, 6336, Note_on_c, 1, 48, 100
3, 6400, Note_off_c, 1, 48, 64
3, 6912, Note_on_c, 1, 57, 100
3, 6912, Note_on_c, 1, 60, 100
3, 6976, Note_off_c, 1, 57, 64
3, 6976, Note_off_c, 1, 60, 64
3, 7104, Note_on_c, 1, 57, 100
3, 7104, Note_on_c, 1, 60, 100
3, 7168, Note_off_c, 1, 57, 64
3, 7168, Note_off_c, 1, 60, 64
3, 7296, Note_on_c, 1, 53, 100
3, 7296, Note_on_c, 1, 57, 100
3, 7360, Note_off_c, 1, 53, 64
3, 7360, Note_off_c, 1, 57, 64
3, 7680, Note_on_c, 1, 55, 100
3, 7680, Note_on_c, 1, 59, 100
3, 7744, Note_off_c, 1, 55, 64
3, 7744, Note_off_c, 1, 59, 64
3, 7872, Note_on_c, 1, 55, 100
3, 7872, Note_on_c, 1, 59, 100
3, 7936, Note_off_c, 1, 55, 64
3, 7936, Note_off_c, 1, 59, 64
3, 8064, Note_on_c, 1, 52, 100
3, 8064, Note_on_c, 1, 55, 100
3, 8128, Note_off_c, 1, 52, 64
3, 8128, Note_off_c, 1, 55, 64
3, 8448, Note_on_c, 1, 53, 100
3, 8832, Note_off_c, 1, 53, 64
3, 9024, Note_on_c, 1, 50, 100
3, 9152, Note_off_c, 1, 50, 64
3, 9216, Note_on_c, 1, 55, 100
3, 9344, Note_off_c, 1, 55, 64
3, 9984, Note_on_c, 1, 57, 100
3, 9984, Note_on_c, 1, 60, 100
3, 10048, Note_off_c, 1, 57, 64
3, 10048, Note_off_c, 1, 60, 64
3, 10176, Note_on_c, 1, 57, 100
3, 10176, Note_on_c, 1, 60, 100
3, 10240, Note_off_c, 1, 57, 64
3, 10240, Note_off_c, 1, 60, 64
3, 10368, Note_on_c, 1, 50, 100
3, 10368, Note_on_c, 1, 53, 100
3, 10432, Note_off_c, 1, 50, 64
3, 10432, Note_off_c, 1, 53, 64
3, 10752, Note_on_c, 1, 55, 100
3, 10752, Note_on_c, 1, 59, 100
3, 10816, Note_off_c, 1, 55, 64
3, 10816, Note_off_c, 1, 59, 64
3, 10944, Note_on_c, 1, 55, 100
3, 10944, Note_on_c, 1, 59, 100
3, 11008, Note_off_c, 1, 55, 64
3, 11008, Note_off_c, 1, 59, 64
3, 11136, Note_on_c, 1, 48, 100
3, 11136, Note_on_c, 1, 52, 100
3, 11200, Note_off_c, 1, 48, 64
3, 11200, Note_off_c, 1, 52, 64
3, 11520, Note_on_c, 1, 53, 100
3, 11520, Note_on_c, 1, 57, 100
3, 11904, Note_off_c, 1, 53, 64
3, 11904, Note_off_c, 1, 57, 64
3, 12096, Note_on_c, 1, 55, 100
3, 12096, Note_on_c, 1, 65, 100
3, 12224, Note_off_c, 1, 55, 64
3, 12224, Note_off_c, 1, 65, 64
3, 12288, Note_on_c, 1, 64, 100
3, 12288, Note_on_c, 1, 60, 100
3, 12352, Note_off_c, 1, 64, 64
3, 12352, Note_off_c, 1, 60, 64
3, 12480, Note_on_c, 1, 48, 100
3, 12544, Note_off_c, 1, 48, 64
3, 12672, Note_on_c, 1, 60, 100
3, 12736, Note_off_c, 1, 60, 64
3, 12864, Note_on_c, 1, 64, 100
3, 12928, Note_off_c, 1, 64, 64
3, 13056, Note_on_c, 1, 59, 100
3, 13120, Note_off_c, 1, 59, 64
3, 13248, Note_on_c, 1, 62, 100
3, 13312, Note_off_c, 1, 62, 64
3, 13440, Note_on_c, 1, 54, 100
3, 13504, Note_off_c, 1, 54, 64
3, 13536, Note_on_c, 1, 62, 100
3, 13600, Note_off_c, 1, 62, 64
3, 13632, Note_on_c, 1, 57, 100
3, 13696, Note_off_c, 1, 57, 64
3, 13728, Note_on_c, 1, 62, 100
3, 13792, Note_off_c, 1, 62, 64
3, 13824, Note_on_c, 1, 55, 100
3, 13888, Note_off_c, 1, 55, 64
3, 13920, Note_on_c, 1, 62, 100
3, 13984, Note_off_c, 1, 62, 64
3, 14016, Note_on_c, 1, 59, 100
3, 14080, Note_off_c, 1, 59, 64
3, 14112, Note_on_c, 1, 62, 100
3, 14176, Note_off_c, 1, 62, 64
3, 14208, Note_on_c, 1, 47, 100
3, 14272, Note_off_c, 1, 47, 64
3, 14304, Note_on_c, 1, 55, 100
3, 14368, Note_off_c, 1, 55, 64
3, 14400, Note_on_c, 1, 50, 100
3, 14464, Note_off_c, 1, 50, 64
3, 14496, Note_on_c, 1, 55, 100
3, 14560, Note_off_c, 1, 55, 64
3, 14592, Note_on_c, 1, 48, 100
3, 14656, Note_off_c, 1, 48, 64
3, 14688, Note_on_c, 1, 57, 100
3, 14752, Note_off_c, 1, 57, 64
3, 14784, Note_on_c, 1, 52, 100
3, 14848, Note_off_c, 1, 52, 64
3, 14880, Note_on_c, 1, 57, 100
3, 14944, Note_off_c, 1, 57, 64
3, 14976, Note_on_c, 1, 49, 100
3, 15040, Note_off_c, 1, 49, 64
3, 15072, Note_on_c, 1, 57, 100
3, 15136, Note_off_c, 1, 57, 64
3, 15168, Note_on_c, 1, 52, 100
3, 15232, Note_off_c, 1, 52, 64
3, 15264, Note_on_c, 1, 57, 100
3, 15328, Note_off_c, 1, 57, 64
3, 15360, Note_on_c, 1, 50, 100
3, 15488, Note_off_c, 1, 50, 64
3, 16128, Note_on_c, 1, 64, 100
3, 16128, Note_on_c, 1, 67, 100
3, 16192, Note_off_c, 1, 64, 64
3, 16192, Note_off_c, 1, 67, 64
3, 16320, Note_on_c, 1, 64, 100
3, 16320, Note_on_c, 1, 67, 100
3, 16384, Note_off_c, 1, 64, 64
3, 16384, Note_off_c, 1, 67, 64
3, 16512, Note_on_c, 1, 60, 100
3, 16512, Note_on_c, 1, 64, 100
3, 16576, Note_off_c, 1, 60, 64
3, 16576, Note_off_c, 1, 64, 64
3, 16896, Note_on_c, 1, 62, 100
3, 16896, Note_on_c, 1, 66, 100
3, 16960, Note_off_c, 1, 62, 64
3, 16960, Note_off_c, 1, 66, 64
3, 17088, Note_on_c, 1, 62, 100
3, 17088, Note_on_c, 1, 66, 100
3, 17152, Note_off_c, 1, 62, 64
3, 17152, Note_off_c, 1, 66, 64
3, 17280, Note_on_c, 1, 59, 100
3, 17280, Note_on_c, 1, 62, 100
3, 17344, Note_off_c, 1, 59, 64
3, 17344, Note_off_c, 1, 62, 64
3, 17664, Note_on_c, 1, 48, 100
3, 17664, Note_on_c, 1, 55, 100
3, 17920, Note_off_c, 1, 48, 64
3, 17920, Note_off_c, 1, 55, 64
3, 18048, Note_on_c, 1, 50, 100
3, 18176, Note_off_c, 1, 50, 64
3, 18240, Note_on_c, 1, 54, 100
3, 18368, Note_off_c, 1, 54, 64
3, 18432, Note_on_c, 1, 55, 100
3, 18496, Note_off_c, 1, 55, 64
3, 18624, Note_on_c, 1, 43, 100
3, 18688, Note_off_c, 1, 43, 64
3, 19200, Note_on_c, 1, 55, 100
3, 19200, Note_on_c, 1, 59, 100
3, 19264, Note_off_c, 1, 55, 64
3, 19264, Note_off_c, 1, 59, 64
3, 19392, Note_on_c, 1, 43, 100
3, 19456, Note_off_c, 1, 43, 64
3, 19968, Note_on_c, 1, 55, 100
3, 19968, Note_on_c, 1, 59, 100
3, 20032, Note_off_c, 1, 55, 64
3, 20032, Note_off_c, 1, 59, 64
3, 20160, Note_on_c, 1, 43, 100
3, 20224, Note_off_c, 1, 43, 64
3, 22272, Note_on_c, 1, 57, 100
3, 22272, Note_on_c, 1, 60, 100
3, 22336, Note_off_c, 1, 57, 64
3, 22336, Note_off_c, 1, 60, 64
3, 22464, Note_on_c, 1, 57, 100
3, 22464, Note_on_c, 1, 60, 100
3, 22528, Note_off_c, 1, 57, 64
3, 22528, Note_off_c, 1, 60, 64
3, 22656, Note_on_c, 1, 53, 100
3, 22656, Note_on_c, 1, 57, 100
3, 22720, Note_off_c, 1, 53, 64
3, 22720, Note_off_c, 1, 57, 64
3, 23040, Note_on_c, 1, 55, 100
3, 23040, Note_on_c, 1, 59, 100
3, 23104, Note_off_c, 1, 55, 64
3, 23104, Note_off_c, 1, 59, 64
3, 23232, Note_on_c, 1, 55, 100
3, 23232, Note_on_c, 1, 59, 100
3, 23296, Note_off_c, 1, 55, 64
3, 23296, Note_off_c, 1, 59, 64
3, 23424, Note_on_c, 1, 52, 100
3, 23424, Note_on_c, 1, 55, 100
3, 23488, Note_off_c, 1, 52, 64
3, 23488, Note_off_c, 1, 55, 64
3, 23808, Note_on_c, 1, 53, 100
3, 24192, Note_off_c, 1, 53, 64
3, 24384, Note_on_c, 1, 50, 100
3, 24512, Note_off_c, 1, 50, 64
3, 24576, Note_on_c, 1, 55, 100
3, 24704, Note_off_c, 1, 55, 64
3, 25344, Note_on_c, 1, 57, 100
3, 25344, Note_on_c, 1, 60, 100
3, 25408, Note_off_c, 1, 57, 64
3, 25408, Note_off_c, 1, 60, 64
3, 25536, Note_on_c, 1, 57, 100
3, 25536, Note_on_c, 1, 60, 100
3, 25600, Note_off_c, 1, 57, 64
3, 25600, Note_off_c, 1, 60, 64
3, 25728, Note_on_c, 1, 50, 100
3, 25728, Note_on_c, 1, 53, 100
3, 25792, Note_off_c, 1, 50, 64
3, 25792, Note_off_c, 1, 53, 64
3, 26112, Note_on_c, 1, 55, 100
3, 26112, Note_on_c, 1, 59, 100
3, 26176, Note_off_c, 1, 55, 64
3, 26176, Note_off_c, 1, 59, 64
3, 26304, Note_on_c, 1, 55, 100
3, 26304, Note_on_c, 1, 59, 100
3, 26368, Note_off_c, 1, 55, 64
3, 26368, Note_off_c, 1, 59, 64
3, 26496, Note_on_c, 1, 48, 100
3, 26496, Note_on_c, 1, 52, 100
3, 26560, Note_off_c, 1, 48, 64
3, 26560, Note_off_c, 1, 52, 64
3, 26880, Note_on_c, 1, 53, 100
3, 26880, Note_on_c, 1, 57, 100
3, 27264, Note_off_c, 1, 53, 64
3, 27264, Note_off_c, 1, 57, 64
3, 27456, Note_on_c, 1, 55, 100
3, 27456, Note_on_c, 1, 65, 100
3, 27584, Note_off_c, 1, 55, 64
3, 27584, Note_off_c, 1, 65, 64
3, 27648, Note_on_c, 1, 60, 100
3, 27648, Note_on_c, 1, 64, 100
3, 27712, Note_off_c, 1, 60, 64
3, 27712, Note_off_c, 1, 64, 64
3, 27840, Note_on_c, 1, 48, 100
3, 27904, Note_off_c, 1, 48, 64
3, 28032, Note_on_c, 1, 60, 100
3, 28032, Note_on_c, 1, 64, 100
3, 28096, Note_off_c, 1, 60, 64
3, 28096, Note_off_c, 1, 64, 64
3, 28224, Note_on_c, 1, 60, 100
3, 28224, Note_on_c, 1, 64, 100
3, 28288, Note_off_c, 1, 60, 64
3, 28288, Note_off_c, 1, 64, 64
3, 28416, Note_on_c, 1, 57, 100
3, 28416, Note_on_c, 1, 60, 100
3, 28480, Note_off_c, 1, 57, 64
3, 28480, Note_off_c, 1, 60, 64
3, 28800, Note_on_c, 1, 59, 100
3, 28800, Note_on_c, 1, 62, 100
3, 28864, Note_off_c, 1, 59, 64
3, 28864, Note_off_c, 1, 62, 64
3, 28992, Note_on_c, 1, 59, 100
3, 28992, Note_on_c, 1, 62, 100
3, 29056, Note_off_c, 1, 59, 64
3, 29056, Note_off_c, 1, 62, 64
3, 29184, Note_on_c, 1, 56, 100
3, 29184, Note_on_c, 1, 59, 100
3, 29248, Note_off_c, 1, 56, 64
3, 29248, Note_off_c, 1, 59, 64
3, 29952, Note_on_c, 1, 64, 100
3, 30016, Note_off_c, 1, 64, 64
3, 30048, Note_on_c, 1, 63, 100
3, 30112, Note_off_c, 1, 63, 64
3, 30144, Note_on_c, 1, 65, 100
3, 30208, Note_off_c, 1, 65, 64
3, 30240, Note_on_c, 1, 64, 100
3, 30304, Note_off_c, 1, 64, 64
3, 30720, Note_on_c, 1, 64, 100
3, 30784, Note_off_c, 1, 64, 64
3, 30816, Note_on_c, 1, 63, 100
3, 30880, Note_off_c, 1, 63, 64
3, 30912, Note_on_c, 1, 65, 100
3, 30976, Note_off_c, 1, 65, 64
3, 31008, Note_on_c, 1, 64, 100
3, 31072, Note_off_c, 1, 64, 64
3, 31104, Note_on_c, 1, 60, 100
3, 31104, Note_on_c, 1, 64, 100
3, 31360, Note_off_c, 1, 60, 64
3, 31360, Note_off_c, 1, 64, 64
3, 31488, Note_on_c, 1, 62, 100
3, 31488, Note_on_c, 1, 65, 100
3, 31744, Note_off_c, 1, 62, 64
3, 31744, Note_off_c, 1, 65, 64
3, 31872, Note_on_c, 1, 64, 100
3, 31872, Note_on_c, 1, 67, 100
3, 32128, Note_off_c, 1, 64, 64
3, 32128, Note_off_c, 1, 67, 64
3, 32256, Note_on_c, 1, 65, 100
3, 32256, Note_on_c, 1, 69, 100
3, 32384, Note_off_c, 1, 65, 64
3, 32384, Note_off_c, 1, 69, 64
3, 32448, Note_on_c, 1, 61, 100
3, 32576, Note_off_c, 1, 61, 64
3, 32640, Note_on_c, 1, 62, 100
3, 32768, Note_off_c, 1, 62, 64
3, 32832, Note_on_c, 1, 64, 100
3, 32960, Note_off_c, 1, 64, 64
3, 33024, Note_on_c, 1, 65, 100
3, 33024, Note_on_c, 1, 69, 100
3, 33152, Note_off_c, 1, 65, 64
3, 33152, Note_off_c, 1, 69, 64
3, 33408, Note_on_c, 1, 65, 100
3, 33408, Note_on_c, 1, 69, 100
3, 33536, Note_off_c, 1, 65, 64
3, 33536, Note_off_c, 1, 69, 64
3, 33792, Note_on_c, 1, 52, 100
3, 33856, Note_off_c, 1, 52, 64
3, 33888, Note_on_c, 1, 64, 100
3, 33952, Note_off_c, 1, 64, 64
3, 33984, Note_on_c, 1, 56, 100
3, 34048, Note_off_c, 1, 56, 64
3, 34080, Note_on_c, 1, 64, 100
3, 34144, Note_off_c, 1, 64, 64
3, 34176, Note_on_c, 1, 59, 100
3, 34240, Note_off_c, 1, 59, 64
3, 34272, Note_on_c, 1, 64, 100
3, 34336, Note_off_c, 1, 64, 64
3, 34368, Note_on_c, 1, 56, 100
3, 34432, Note_off_c, 1, 56, 64
3, 34464, Note_on_c, 1, 64, 100
3, 34528, Note_off_c, 1, 64, 64
3, 34560, Note_on_c, 1, 52, 100
3, 34624, Note_off_c, 1, 52, 64
3, 34656, Note_on_c, 1, 64, 100
3, 34720, Note_off_c, 1, 64, 64
3, 34752, Note_on_c, 1, 57, 100
3, 34816, Note_off_c, 1, 57, 64
3, 34848, Note_on_c, 1, 64, 100
3, 34912, Note_off_c, 1, 64, 64
3, 34944, Note_on_c, 1, 60, 100
3, 35008, Note_off_c, 1, 60, 64
3, 35040, Note_on_c, 1, 64, 100
3, 35104, Note_off_c, 1, 64, 64
3, 35136, Note_on_c, 1, 57, 100
3, 35200, Note_off_c, 1, 57, 64
3, 35232, Note_on_c, 1, 64, 100
3, 35296, Note_off_c, 1, 64, 64
3, 35328, Note_on_c, 1, 52, 100
3, 35392, Note_off_c, 1, 52, 64
3, 35424, Note_on_c, 1, 64, 100
3, 35488, Note_off_c, 1, 64, 64
3, 35520, Note_on_c, 1, 56, 100
3, 35584, Note_off_c, 1, 56, 64
3, 35616, Note_on_c, 1, 64, 100
3, 35680, Note_off_c, 1, 64, 64
3, 35712, Note_on_c, 1, 59, 100
3, 35776, Note_off_c, 1, 59, 64
3, 35808, Note_on_c, 1, 64, 100
3, 35872, Note_off_c, 1, 64, 64
3, 35904, Note_on_c, 1, 56, 100
3, 35968, Note_off_c, 1, 56, 64
3, 36000, Note_on_c, 1, 64, 100
3, 36064, Note_off_c, 1, 64, 64
3, 36096, Note_on_c, 1, 52, 100
3, 36160, Note_off_c, 1, 52, 64
3, 36192, Note_on_c, 1, 64, 100
3, 36256, Note_off_c, 1, 64, 64
3, 36288, Note_on_c, 1, 57, 100
3, 36352, Note_off_c, 1, 57, 64
3, 36384, Note_on_c, 1, 64, 100
3, 36448, Note_off_c, 1, 64, 64
3, 36480, Note_on_c, 1, 60, 100
3, 36544, Note_off_c, 1, 60, 64
3, 36576, Note_on_c, 1, 64, 100
3, 36640, Note_off_c, 1, 64, 64
3, 36672, Note_on_c, 1, 57, 100
3, 36736, Note_off_c, 1, 57, 64
3, 36768, Note_on_c, 1, 64, 100
3, 36832, Note_off_c, 1, 64, 64
3, 36864, Note_on_c, 1, 52, 100
3, 36992, Note_off_c, 1, 52, 64
3, 37632, Note_on_c, 1, 64, 100
3, 37696, Note_off_c, 1, 64, 64
3, 37728, Note_on_c, 1, 63, 100
3, 37792, Note_off_c, 1, 63, 64
3, 37824, Note_on_c, 1, 65, 100
3, 37888, Note_off_c, 1, 65, 64
3, 37920, Note_on_c, 1, 64, 100
3, 37984, Note_off_c, 1, 64, 64
3, 38400, Note_on_c, 1, 64, 100
3, 38464, Note_off_c, 1, 64, 64
3, 38496, Note_on_c, 1, 63, 100
3, 38560, Note_off_c, 1, 63, 64
3, 38592, Note_on_c, 1, 65, 100
3, 38656, Note_off_c, 1, 65, 64
3, 38688, Note_on_c, 1, 64, 100
3, 38752, Note_off_c, 1, 64, 64
3, 38784, Note_on_c, 1, 52, 100
3, 38784, Note_on_c, 1, 60, 100
3, 38848, Note_off_c, 1, 52, 64
3, 38848, Note_off_c, 1, 60, 64
3, 38976, Note_on_c, 1, 52, 100
3, 38976, Note_on_c, 1, 60, 100
3, 39040, Note_off_c, 1, 52, 64
3, 39040, Note_off_c, 1, 60, 64
3, 39168, Note_on_c, 1, 48, 100
3, 39168, Note_on_c, 1, 57, 100
3, 39232, Note_off_c, 1, 48, 64
3, 39232, Note_off_c, 1, 57, 64
3, 39552, Note_on_c, 1, 50, 100
3, 39552, Note_on_c, 1, 59, 100
3, 39616, Note_off_c, 1, 50, 64
3, 39616, Note_off_c, 1, 59, 64
3, 39744, Note_on_c, 1, 50, 100
3, 39744, Note_on_c, 1, 59, 100
3, 39808, Note_off_c, 1, 50, 64
3, 39808, Note_off_c, 1, 59, 64
3, 39936, Note_on_c, 1, 47, 100
3, 39936, Note_on_c, 1, 56, 100
3, 40000, Note_off_c, 1, 47, 64
3, 40000, Note_off_c, 1, 56, 64
3, 40320, Note_on_c, 1, 56, 100
3, 40320, Note_on_c, 1, 59, 100
3, 40576, Note_off_c, 1, 56, 64
3, 40576, Note_off_c, 1, 59, 64
3, 40704, Note_on_c, 1, 57, 100
3, 40704, Note_on_c, 1, 60, 100
3, 40832, Note_off_c, 1, 57, 64
3, 40832, Note_off_c, 1, 60, 64
3, 40896, Note_on_c, 1, 59, 100
3, 40896, Note_on_c, 1, 62, 100
3, 41024, Note_off_c, 1, 59, 64
3, 41024, Note_off_c, 1, 62, 64
3, 41088, Note_on_c, 1, 60, 100
3, 41088, Note_on_c, 1, 64, 100
3, 41216, Note_off_c, 1, 60, 64
3, 41216, Note_off_c, 1, 64, 64
3, 41280, Note_on_c, 1, 61, 100
3, 41408, Note_off_c, 1, 61, 64
3, 41472, Note_on_c, 1, 62, 100
3, 41600, Note_off_c, 1, 62, 64
3, 41664, Note_on_c, 1, 64, 100
3, 41792, Note_off_c, 1, 64, 64
3, 41856, Note_on_c, 1, 65, 100
3, 41984, Note_off_c, 1, 65, 64
3, 42048, Note_on_c, 1, 64, 100
3, 42176, Note_off_c, 1, 64, 64
3, 42240, Note_on_c, 1, 62, 100
3, 42240, Note_on_c, 1, 65, 100
3, 42496, Note_off_c, 1, 62, 64
3, 42496, Note_off_c, 1, 65, 64
3, 42624, Note_on_c, 1, 52, 100
3, 42624, Note_on_c, 1, 60, 100
3, 42816, Note_on_c, 1, 59, 100
3, 42880, Note_off_c, 1, 52, 64
3, 42880, Note_off_c, 1, 60, 64
3, 42944, Note_off_c, 1, 59, 64
3, 43008, Note_on_c, 1, 57, 100
3, 43072, Note_off_c, 1, 57, 64
3, 43104, Note_on_c, 1, 60, 100
3, 43168, Note_off_c, 1, 60, 64
3, 43200, Note_on_c, 1, 64, 100
3, 43264, Note_off_c, 1, 64, 64
3, 43296, Note_on_c, 1, 60, 100
3, 43360, Note_off_c, 1, 60, 64
3, 43392, Note_on_c, 1, 52, 100
3, 43456, Note_off_c, 1, 52, 64
3, 43488, Note_on_c, 1, 59, 100
3, 43552, Note_off_c, 1, 59, 64
3, 43584, Note_on_c, 1, 62, 100
3, 43648, Note_off_c, 1, 62, 64
3, 43680, Note_on_c, 1, 59, 100
3, 43744, Note_off_c, 1, 59, 64
3, 43776, Note_on_c, 1, 57, 100
3, 43840, Note_off_c, 1, 57, 64
3, 43872, Note_on_c, 1, 60, 100
3, 43936, Note_off_c, 1, 60, 64
3, 43968, Note_on_c, 1, 64, 100
3, 44032, Note_off_c, 1, 64, 64
3, 44064, Note_on_c, 1, 60, 100
3, 44128, Note_off_c, 1, 60, 64
3, 44160, Note_on_c, 1, 52, 100
3, 44224, Note_off_c, 1, 52, 64
3, 44256, Note_on_c, 1, 59, 100
3, 44320, Note_off_c, 1, 59, 64
3, 44352, Note_on_c, 1, 62, 100
3, 44416, Note_off_c, 1, 62, 64
3, 44448, Note_on_c, 1, 59, 100
3, 44512, Note_off_c, 1, 59, 64
3, 44544, Note_on_c, 1, 57, 100
3, 44608, Note_off_c, 1, 57, 64
3, 44640, Note_on_c, 1, 60, 100
3, 44704, Note_off_c, 1, 60, 64
3, 44736, Note_on_c, 1, 64, 100
3, 44800, Note_off_c, 1, 64, 64
3, 44832, Note_on_c, 1, 60, 100
3, 44896, Note_off_c, 1, 60, 64
3, 44928, Note_on_c, 1, 52, 100
3, 44992, Note_off_c, 1, 52, 64
3, 45024, Note_on_c, 1, 59, 100
3, 45088, Note_off_c, 1, 59, 64
3, 45120, Note_on_c, 1, 62, 100
3, 45184, Note_off_c, 1, 62, 64
3, 45216, Note_on_c, 1, 59, 100
3, 45280, Note_off_c, 1, 59, 64
3, 45312, Note_on_c, 1, 57, 100
3, 45376, Note_off_c, 1, 57, 64
3, 45408, Note_on_c, 1, 60, 100
3, 45472, Note_off_c, 1, 60, 64
3, 45504, Note_on_c, 1, 64, 100
3, 45568, Note_off_c, 1, 64, 64
3, 45600, Note_on_c, 1, 60, 100
3, 45664, Note_off_c, 1, 60, 64
3, 45696, Note_on_c, 1, 55, 100
3, 45760, Note_off_c, 1, 55, 64
3, 45792, Note_on_c, 1, 62, 100
3, 45856, Note_off_c, 1, 62, 64
3, 45888, Note_on_c, 1, 65, 100
3, 45952, Note_off_c, 1, 65, 64
3, 45984, Note_on_c, 1, 62, 100
3, 46048, Note_off_c, 1, 62, 64
3, 46848, Note_on_c, 1, 57, 100
3, 46848, Note_on_c, 1, 60, 100
3, 46912, Note_off_c, 1, 57, 64
3, 46912, Note_off_c, 1, 60, 64
3, 47040, Note_on_c, 1, 57, 100
3, 47040, Note_on_c, 1, 60, 100
3, 47104, Note_off_c, 1, 57, 64
3, 47104, Note_off_c, 1, 60, 64
3, 47232, Note_on_c, 1, 53, 100
3, 47232, Note_on_c, 1, 57, 100
3, 47296, Note_off_c, 1, 53, 64
3, 47296, Note_off_c, 1, 57, 64
3, 47616, Note_on_c, 1, 55, 100
3, 47616, Note_on_c, 1, 59, 100
3, 47680, Note_off_c, 1, 55, 64
3, 47680, Note_off_c, 1, 59, 64
3, 47808, Note_on_c, 1, 55, 100
3, 47808, Note_on_c, 1, 59, 100
3, 47872, Note_off_c, 1, 55, 64
3, 47872, Note_off_c, 1, 59, 64
3, 48000, Note_on_c, 1, 52, 100
3, 48000, Note_on_c, 1, 55, 100
3, 48064, Note_off_c, 1, 52, 64
3, 48064, Note_off_c, 1, 55, 64
3, 48384, Note_on_c, 1, 53, 100
3, 48768, Note_off_c, 1, 53, 64
3, 48960, Note_on_c, 1, 50, 100
3, 49088, Note_off_c, 1, 50, 64
3, 49152, Note_on_c, 1, 55, 100
3, 49280, Note_off_c, 1, 55, 64
3, 49920, Note_on_c, 1, 57, 100
3, 49920, Note_on_c, 1, 60, 100
3, 49984, Note_off_c, 1, 57, 64
3, 49984, Note_off_c, 1, 60, 64
3, 50112, Note_on_c, 1, 57, 100
3, 50112, Note_on_c, 1, 60, 100
3, 50176, Note_off_c, 1, 57, 64
3, 50176, Note_off_c, 1, 60, 64
3, 50304, Note_on_c, 1, 50, 100
3, 50304, Note_on_c, 1, 53, 100
3, 50368, Note_off_c, 1, 50, 64
3, 50368, Note_off_c, 1, 53, 64
3, 50688, Note_on_c, 1, 55, 100
3, 50688, Note_on_c, 1, 59, 100
3, 50752, Note_off_c, 1, 55, 64
3, 50752, Note_off_c, 1, 59, 64
3, 50880, Note_on_c, 1, 55, 100
3, 50880, Note_on_c, 1, 59, 100
3, 50944, Note_off_c, 1, 55, 64
3, 50944, Note_off_c, 1, 59, 64
3, 51072, Note_on_c, 1, 48, 100
3, 51072, Note_on_c, 1, 52, 100
3, 51136, Note_off_c, 1, 48, 64
3, 51136, Note_off_c, 1, 52, 64
3, 51456, Note_on_c, 1, 53, 100
3, 51456, Note_on_c, 1, 57, 100
3, 51840, Note_off_c, 1, 53, 64
3, 51840, Note_off_c, 1, 57, 64
3, 52032, Note_on_c, 1, 55, 100
3, 52032, Note_on_c, 1, 65, 100
3, 52160, Note_off_c, 1, 55, 64
3, 52160, Note_off_c, 1, 65, 64
3, 52224, Note_on_c, 1, 60, 100
3, 52224, Note_on_c, 1, 64, 100
3, 52288, Note_off_c, 1, 60, 64
3, 52288, Note_off_c, 1, 64, 64
3, 52416, Note_on_c, 1, 48, 100
3, 52480, Note_off_c, 1, 48, 64
3, 52608, Note_on_c, 1, 53, 100
3, 52672, Note_off_c, 1, 53, 64
3, 52704, Note_on_c, 1, 59, 100
3, 52768, Note_off_c, 1, 59, 64
3, 52800, Note_on_c, 1, 55, 100
3, 52864, Note_off_c, 1, 55, 64
3, 52896, Note_on_c, 1, 59, 100
3, 52960, Note_off_c, 1, 59, 64
3, 52992, Note_on_c, 1, 52, 100
3, 53056, Note_off_c, 1, 52, 64
3, 53088, Note_on_c, 1, 60, 100
3, 53152, Note_off_c, 1, 60, 64
3, 53184, Note_on_c, 1, 55, 100
3, 53248, Note_off_c, 1, 55, 64
3, 53280, Note_on_c, 1, 60, 100
3, 53344, Note_off_c, 1, 60, 64
3, 53376, Note_on_c, 1, 53, 100
3, 53440, Note_off_c, 1, 53, 64
3, 53472, Note_on_c, 1, 59, 100
3, 53536, Note_off_c, 1, 59, 64
3, 53568, Note_on_c, 1, 55, 100
3, 53632, Note_off_c, 1, 55, 64
3, 53664, Note_on_c, 1, 59, 100
3, 53728, Note_off_c, 1, 59, 64
3, 53760, Note_on_c, 1, 52, 100
3, 53824, Note_off_c, 1, 52, 64
3, 53856, Note_on_c, 1, 60, 100
3, 53920, Note_off_c, 1, 60, 64
3, 53952, Note_on_c, 1, 55, 100
3, 54016, Note_off_c, 1, 55, 64
3, 54048, Note_on_c, 1, 60, 100
3, 54112, Note_off_c, 1, 60, 64
3, 54144, Note_on_c, 1, 53, 100
3, 54208, Note_off_c, 1, 53, 64
3, 54240, Note_on_c, 1, 62, 100
3, 54304, Note_off_c, 1, 62, 64
3, 54336, Note_on_c, 1, 57, 100
3, 54400, Note_off_c, 1, 57, 64
3, 54432, Note_on_c, 1, 62, 100
3, 54496, Note_off_c, 1, 62, 64
3, 54528, Note_on_c, 1, 55, 100
3, 54592, Note_off_c, 1, 55, 64
3, 54624, Note_on_c, 1, 64, 100
3, 54688, Note_off_c, 1, 64, 64
3, 54720, Note_on_c, 1, 60, 100
3, 54784, Note_off_c, 1, 60, 64
3, 54816, Note_on_c, 1, 64, 100
3, 54880, Note_off_c, 1, 64, 64
3, 54912, Note_on_c, 1, 55, 100
3, 54976, Note_off_c, 1, 55, 64
3, 55008, Note_on_c, 1, 65, 100
3, 55072, Note_off_c, 1, 65, 64
3, 55104, Note_on_c, 1, 62, 100
3, 55168, Note_off_c, 1, 62, 64
3, 55200, Note_on_c, 1, 65, 100
3, 55264, Note_off_c, 1, 65, 64
3, 55296, Note_on_c, 1, 60, 100
3, 55360, Note_off_c, 1, 60, 64
3, 55488, Note_on_c, 1, 64, 100
3, 55552, Note_off_c, 1, 64, 64
3, 55680, Note_on_c, 1, 53, 100
3, 55744, Note_off_c, 1, 53, 64
3, 55776, Note_on_c, 1, 59, 100
3, 55840, Note_off_c, 1, 59, 64
3, 55872, Note_on_c, 1, 55, 100
3, 55936, Note_off_c, 1, 55, 64
3, 55968, Note_on_c, 1, 59, 100
3, 56032, Note_off_c, 1, 59, 64
3, 56064, Note_on_c, 1, 52, 100
3, 56128, Note_off_c, 1, 52, 64
3, 56160, Note_on_c, 1, 60, 100
3, 56224, Note_off_c, 1, 60, 64
3, 56256, Note_on_c, 1, 55, 100
3, 56320, Note_off_c, 1, 55, 64
3, 56352, Note_on_c, 1, 60, 100
3, 56416, Note_off_c, 1, 60, 64
3, 56448, Note_on_c, 1, 53, 100
3, 56512, Note_off_c, 1, 53, 64
3, 56544, Note_on_c, 1, 59, 100
3, 56608, Note_off_c, 1, 59, 64
3, 56640, Note_on_c, 1, 55, 100
3, 56704, Note_off_c, 1, 55, 64
3, 56736, Note_on_c, 1, 59, 100
3, 56800, Note_off_c, 1, 59, 64
3, 56832, Note_on_c, 1, 52, 100
3, 56896, Note_off_c, 1, 52, 64
3, 56928, Note_on_c, 1, 60, 100
3, 56992, Note_off_c, 1, 60, 64
3, 57024, Note_on_c, 1, 55, 100
3, 57088, Note_off_c, 1, 55, 64
3, 57120, Note_on_c, 1, 60, 100
3, 57184, Note_off_c, 1, 60, 64
3, 57216, Note_on_c, 1, 53, 100
3, 57280, Note_off_c, 1, 53, 64
3, 57312, Note_on_c, 1, 62, 100
3, 57376, Note_off_c, 1, 62, 64
3, 57408, Note_on_c, 1, 57, 100
3, 57472, Note_off_c, 1, 57, 64
3, 57504, Note_on_c, 1, 62, 100
3, 57568, Note_off_c, 1, 62, 64
3, 57600, Note_on_c, 1, 55, 100
3, 57664, Note_off_c, 1, 55, 64
3, 57696, Note_on_c, 1, 64, 100
3, 57760, Note_off_c, 1, 64, 64
3, 57792, Note_on_c, 1, 60, 100
3, 57856, Note_off_c, 1, 60, 64
3, 57888, Note_on_c, 1, 64, 100
3, 57952, Note_off_c, 1, 64, 64
3, 57984, Note_on_c, 1, 55, 100
3, 58048, Note_off_c, 1, 55, 64
3, 58080, Note_on_c, 1, 65, 100
3, 58144, Note_off_c, 1, 65, 64
3, 58176, Note_on_c, 1, 62, 100
3, 58240, Note_off_c, 1, 62, 64
3, 58272, Note_on_c, 1, 65, 100
3, 58336, Note_off_c, 1, 65, 64
3, 58368, Note_on_c, 1, 60, 100
3, 58432, Note_off_c, 1, 60, 64
3, 58464, Note_on_c, 1, 64, 100
3, 58528, Note_off_c, 1, 64, 64
3, 58560, Note_on_c, 1, 55, 100
3, 58624, Note_off_c, 1, 55, 64
3, 58656, Note_on_c, 1, 60, 100
3, 58720, Note_off_c, 1, 60, 64
3, 58752, Note_on_c, 1, 52, 100
3, 58816, Note_off_c, 1, 52, 64
3, 58848, Note_on_c, 1, 55, 100
3, 58912, Note_off_c, 1, 55, 64
3, 58944, Note_on_c, 1, 48, 100
3, 59008, Note_off_c, 1, 48, 64
3, 59040, Note_on_c, 1, 52, 100
3, 59104, Note_off_c, 1, 52, 64
3, 59136, Note_on_c, 1, 55, 100
3, 59264, Note_off_c, 1, 55, 64
3, 59520, Note_on_c, 1, 43, 100
3, 59648, Note_off_c, 1, 43, 64
3, 59904, Note_on_c, 1, 60, 100
3, 59968, Note_off_c, 1, 60, 64
3, 60000, Note_on_c, 1, 64, 100
3, 60064, Note_off_c, 1, 64, 64
3, 60096, Note_on_c, 1, 55, 100
3, 60160, Note_off_c, 1, 55, 64
3, 60192, Note_on_c, 1, 60, 100
3, 60256, Note_off_c, 1, 60, 64
3, 60288, Note_on_c, 1, 52, 100
3, 60352, Note_off_c, 1, 52, 64
3, 60384, Note_on_c, 1, 55, 100
3, 60448, Note_off_c, 1, 55, 64
3, 60480, Note_on_c, 1, 48, 100
3, 60544, Note_off_c, 1, 48, 64
3, 60576, Note_on_c, 1, 52, 100
3, 60640, Note_off_c, 1, 52, 64
3, 60672, Note_on_c, 1, 55, 100
3, 60800, Note_off_c, 1, 55, 64
3, 61056, Note_on_c, 1, 43, 100
3, 61184, Note_off_c, 1, 43, 64
3, 61440, Note_on_c, 1, 36, 100
3, 61440, Note_on_c, 1, 48, 100
3, 61504, Note_off_c, 1, 36, 64
3, 61504, Note_off_c, 1, 48, 64
3, 61632, Note_on_c, 1, 40, 100
3, 61632, Note_on_c, 1, 52, 100
3, 61696, Note_off_c, 1, 40, 64
3, 61696, Note_off_c, 1, 52, 64
3, 61824, Note_on_c, 1, 43, 100
3, 61824, Note_on_c, 1, 55, 100
3, 61888, Note_off_c, 1, 43, 64
3, 61888, Note_off_c, 1, 55, 64
3, 62016, Note_on_c, 1, 40, 100
3, 62016, Note_on_c, 1, 52, 100
3, 62080, Note_off_c, 1, 40, 64
3, 62080, Note_off_c, 1, 52, 64
3, 62208, Note_on_c, 1, 48, 100
3, 62208, Note_on_c, 1, 36, 100
3, 62720, Note_off_c, 1, 48, 64
3, 62720, Note_off_c, 1, 36, 64
3, 62720, End_track
4, 0, Start_track
4, 0, Key_signature, 0, "major"
4, 0, End_track
5, 0, Start_track
5, 0, Key_signature, 0, "major"
5, 0, End_track
6, 0, Start_track
6, 0, Key_signature, 0, "major"
6, 0, End_track
7, 0, Start_track
7, 0, Key_signature, 0, "major"
7, 0, End_track
8, 0, Start_track
8, 0, Key_signature, 0, "major"
8, 0, End_track
9, 0, Start_track
9, 0, Key_signature, 0, "major"
9, 0, End_track
10, 0, Start_track
10, 0, Key_signature, 0, "major"
10, 0, End_track
11, 0, Start_track
11, 0, Key_signature, 0, "major"
11, 0, End_track
12, 0, Start_track
12, 0, Key_signature, 0, "major"
12, 0, End_track
13, 0, Start_track
13, 0, Key_signature, 0, "major"
13, 0, End_track
14, 0, Start_track
14, 0, Key_signature, 0, "major"
14, 0, End_track
15, 0, Start_track
15, 0, Key_signature, 0, "major"
15, 0, End_track
16, 0, Start_track
16, 0, Key_signature, 0, "major"
16, 0, End_track
17, 0, Start_track
17, 0, Key_signature, 0, "major"
17, 0, End_track
0, 0, End_of_file
