0, 0, Header, 1, 5, 480
1, 0, Start_track
1, 0, Title_t, "Piano Sonata in Bb, K281"
1, 0, Copyright_t, "copyright performance by Larry Ellis 7-27-99"
1, 0, SMPTE_offset, 0, 0, 0, 0, 0
1, 0, Tempo, 483870
1, 0, Time_signature, 2, 2, 24, 8
1, 0, Key_signature, -2, "minor"
1, 75810, Tempo, 1500000
1, 75851, Tempo, 571428
1, 76800, Tempo, 483870
1, 152610, Tempo, 1500000
1, 152651, Tempo, 571428
1, 154560, Tempo, 483870
1, 206387, Tempo, 645161
1, 206400, Tempo, 540540
1, 208320, Tempo, 500000
1, 210240, Tempo, 483870
1, 240000, Tempo, 517241
1, 241564, Tempo, 491803
1, 241920, Tempo, 483870
1, 283855, Tempo, 521739
1, 284640, Tempo, 625000
1, 285110, Tempo, 1200000
1, 285120, Tempo, 674157
1, 285120, End_track
2, 0, Start_track
2, 0, Title_t, "new"
2, 0, MIDI_port, 0
2, 0, Channel_prefix, 1
2, 0, Control_c, 1, 7, 119
2, 0, Control_c, 1, 10, 64
2, 0, Control_c, 1, 91, 65
2, 0, Program_c, 1, 0
2, 960, Note_on_c, 1, 70, 60
2, 1070, Control_c, 1, 64, 127
2, 1070, Control_c, 1, 64, 127
2, 1070, Control_c, 1, 64, 127
2, 1097, Note_on_c, 1, 72, 63
2, 1110, Note_off_c, 1, 70, 64
2, 1160, Note_on_c, 1, 70, 54
2, 1167, Note_off_c, 1, 72, 64
2, 1215, Note_off_c, 1, 70, 64
2, 1215, Note_on_c, 1, 72, 57
2, 1265, Note_on_c, 1, 70, 59
2, 1275, Note_off_c, 1, 72, 64
2, 1325, Note_off_c, 1, 70, 64
2, 1325, Note_on_c, 1, 72, 74
2, 1415, Note_on_c, 1, 70, 83
2, 1420, Control_c, 1, 64, 0
2, 1425, Control_c, 1, 64, 0
2, 1425, Control_c, 1, 64, 0
2, 1435, Note_off_c, 1, 72, 64
2, 1590, Note_on_c, 1, 72, 55
2, 1642, Note_off_c, 1, 70, 64
2, 1750, Note_on_c, 1, 74, 68
2, 1795, Note_off_c, 1, 72, 64
2, 1915, Note_on_c, 1, 70, 61
2, 1940, Note_off_c, 1, 74, 64
2, 2077, Note_on_c, 1, 69, 62
2, 2102, Note_off_c, 1, 70, 64
2, 2230, Note_on_c, 1, 72, 66
2, 2265, Note_off_c, 1, 69, 64
2, 2395, Note_on_c, 1, 70, 63
2, 2462, Note_off_c, 1, 72, 64
2, 2557, Note_on_c, 1, 69, 61
2, 2595, Note_off_c, 1, 70, 64
2, 2710, Note_on_c, 1, 75, 66
2, 2720, Note_off_c, 1, 69, 64
2, 2882, Note_off_c, 1, 75, 64
2, 2882, Note_on_c, 1, 72, 73
2, 3037, Note_on_c, 1, 70, 53
2, 3057, Note_off_c, 1, 72, 64
2, 3190, Note_on_c, 1, 74, 52
2, 3245, Note_off_c, 1, 70, 64
2, 3355, Note_on_c, 1, 72, 68
2, 3382, Note_off_c, 1, 74, 64
2, 3515, Note_on_c, 1, 70, 53
2, 3657, Note_off_c, 1, 72, 64
2, 3667, Note_on_c, 1, 77, 64
2, 3672, Note_off_c, 1, 70, 64
2, 3855, Note_on_c, 1, 74, 54
2, 3885, Note_off_c, 1, 77, 64
2, 4342, Note_off_c, 1, 74, 64
2, 4800, Note_on_c, 1, 70, 86
2, 4800, Note_on_c, 1, 79, 94
2, 4800, Note_on_c, 1, 75, 99
2, 5045, Note_off_c, 1, 75, 64
2, 5060, Note_off_c, 1, 79, 64
2, 5062, Note_off_c, 1, 70, 64
2, 5287, Note_on_c, 1, 77, 83
2, 5287, Note_on_c, 1, 74, 84
2, 5287, Note_on_c, 1, 70, 73
2, 5457, Note_off_c, 1, 74, 64
2, 5460, Note_off_c, 1, 70, 64
2, 5485, Note_off_c, 1, 77, 64
2, 5765, Note_on_c, 1, 77, 97
2, 5875, Note_on_c, 1, 82, 77
2, 5897, Note_off_c, 1, 77, 64
2, 6002, Note_on_c, 1, 81, 79
2, 6042, Note_off_c, 1, 82, 64
2, 6107, Note_on_c, 1, 82, 74
2, 6135, Note_off_c, 1, 81, 64
2, 6235, Note_on_c, 1, 84, 97
2, 6260, Note_off_c, 1, 82, 64
2, 6347, Note_on_c, 1, 82, 81
2, 6402, Note_off_c, 1, 84, 64
2, 6475, Note_on_c, 1, 81, 70
2, 6487, Note_off_c, 1, 82, 64
2, 6567, Note_on_c, 1, 82, 54
2, 6590, Note_off_c, 1, 81, 64
2, 6602, Note_off_c, 1, 82, 64
2, 6725, Note_on_c, 1, 74, 90
2, 6727, Note_on_c, 1, 77, 90
2, 6845, Note_on_c, 1, 75, 83
2, 6847, Note_on_c, 1, 72, 70
2, 6862, Note_off_c, 1, 74, 64
2, 6872, Note_off_c, 1, 77, 64
2, 7137, Note_off_c, 1, 75, 64
2, 7157, Note_off_c, 1, 72, 64
2, 7207, Note_on_c, 1, 74, 62
2, 7207, Note_on_c, 1, 70, 59
2, 7415, Note_off_c, 1, 70, 64
2, 7425, Note_off_c, 1, 74, 64
2, 8660, Note_on_c, 1, 58, 42
2, 8777, Note_on_c, 1, 60, 51
2, 8787, Note_off_c, 1, 58, 64
2, 8865, Note_on_c, 1, 58, 53
2, 8875, Note_off_c, 1, 60, 64
2, 8925, Note_off_c, 1, 58, 64
2, 8927, Note_on_c, 1, 60, 57
2, 8980, Note_on_c, 1, 58, 53
2, 8995, Note_off_c, 1, 60, 64
2, 9040, Note_on_c, 1, 60, 63
2, 9052, Note_off_c, 1, 58, 64
2, 9125, Note_on_c, 1, 58, 49
2, 9147, Note_off_c, 1, 60, 64
2, 9280, Note_on_c, 1, 60, 59
2, 9322, Note_off_c, 1, 58, 64
2, 9427, Note_on_c, 1, 62, 55
2, 9465, Note_off_c, 1, 60, 64
2, 9595, Note_on_c, 1, 58, 57
2, 9622, Note_off_c, 1, 62, 64
2, 9745, Note_on_c, 1, 57, 49
2, 9785, Note_off_c, 1, 58, 64
2, 9895, Note_on_c, 1, 60, 52
2, 9977, Note_off_c, 1, 57, 64
2, 10075, Note_on_c, 1, 58, 59
2, 10117, Note_off_c, 1, 60, 64
2, 10232, Note_on_c, 1, 57, 59
2, 10272, Note_off_c, 1, 58, 64
2, 10387, Note_on_c, 1, 63, 55
2, 10520, Note_off_c, 1, 57, 64
2, 10545, Note_on_c, 1, 60, 70
2, 10555, Note_off_c, 1, 63, 64
2, 10700, Note_on_c, 1, 58, 40
2, 10722, Note_off_c, 1, 60, 64
2, 10862, Note_on_c, 1, 62, 47
2, 10925, Note_off_c, 1, 58, 64
2, 11040, Note_on_c, 1, 60, 68
2, 11050, Note_off_c, 1, 62, 64
2, 11197, Note_on_c, 1, 58, 48
2, 11220, Note_off_c, 1, 60, 64
2, 11352, Note_on_c, 1, 65, 45
2, 11370, Note_off_c, 1, 58, 64
2, 11525, Note_on_c, 1, 62, 45
2, 11545, Note_off_c, 1, 65, 64
2, 12005, Note_off_c, 1, 62, 64
2, 12465, Note_on_c, 1, 67, 81
2, 12635, Note_on_c, 1, 72, 77
2, 12657, Note_off_c, 1, 67, 64
2, 12787, Note_on_c, 1, 75, 92
2, 12810, Note_off_c, 1, 72, 64
2, 12945, Note_off_c, 1, 75, 64
2, 12955, Note_on_c, 1, 72, 97
2, 13107, Note_on_c, 1, 75, 97
2, 13140, Note_off_c, 1, 72, 64
2, 13265, Note_on_c, 1, 79, 86
2, 13310, Note_off_c, 1, 75, 64
2, 13342, Note_off_c, 1, 79, 64
2, 13440, Note_on_c, 1, 79, 94
2, 13555, Note_on_c, 1, 77, 83
2, 13575, Note_off_c, 1, 79, 64
2, 13680, Note_on_c, 1, 75, 90
2, 13707, Note_off_c, 1, 77, 64
2, 13785, Note_on_c, 1, 74, 102
2, 13815, Note_off_c, 1, 75, 64
2, 13857, Note_off_c, 1, 74, 64
2, 13915, Note_on_c, 1, 74, 97
2, 14030, Note_on_c, 1, 72, 83
2, 14050, Note_off_c, 1, 74, 64
2, 14160, Note_on_c, 1, 70, 88
2, 14170, Note_off_c, 1, 72, 64
2, 14275, Note_on_c, 1, 69, 73
2, 14290, Note_off_c, 1, 70, 64
2, 14407, Note_on_c, 1, 70, 91
2, 14425, Note_off_c, 1, 69, 64
2, 15355, Note_off_c, 1, 70, 64
2, 15605, Note_on_c, 1, 70, 86
2, 15845, Note_on_c, 1, 69, 77
2, 15867, Note_off_c, 1, 70, 64
2, 16080, Note_on_c, 1, 68, 67
2, 16102, Note_off_c, 1, 69, 64
2, 16320, Note_on_c, 1, 67, 72
2, 16340, Note_off_c, 1, 68, 64
2, 16567, Note_on_c, 1, 69, 66
2, 16592, Note_off_c, 1, 67, 64
2, 16675, Note_on_c, 1, 70, 55
2, 16710, Note_off_c, 1, 69, 64
2, 16805, Note_off_c, 1, 70, 64
2, 16812, Note_on_c, 1, 72, 64
2, 16922, Note_on_c, 1, 74, 65
2, 16947, Note_off_c, 1, 72, 64
2, 17035, Note_on_c, 1, 75, 86
2, 17067, Note_off_c, 1, 74, 64
2, 17155, Note_on_c, 1, 77, 73
2, 17160, Note_off_c, 1, 75, 64
2, 17297, Note_off_c, 1, 77, 64
2, 17297, Note_on_c, 1, 79, 94
2, 17400, Note_on_c, 1, 81, 90
2, 17435, Note_off_c, 1, 79, 64
2, 17530, Note_on_c, 1, 82, 90
2, 17552, Note_off_c, 1, 81, 64
2, 17637, Note_on_c, 1, 81, 90
2, 17675, Note_off_c, 1, 82, 64
2, 17770, Note_on_c, 1, 82, 97
2, 17797, Note_off_c, 1, 81, 64
2, 17880, Note_on_c, 1, 81, 86
2, 17907, Note_off_c, 1, 82, 64
2, 18000, Note_on_c, 1, 82, 75
2, 18050, Note_off_c, 1, 81, 64
2, 18090, Note_on_c, 1, 79, 68
2, 18202, Note_off_c, 1, 82, 64
2, 18240, Note_on_c, 1, 77, 53
2, 18247, Note_off_c, 1, 79, 64
2, 18902, Note_off_c, 1, 77, 64
2, 19452, Note_on_c, 1, 70, 79
2, 19682, Note_on_c, 1, 69, 73
2, 19725, Note_off_c, 1, 70, 64
2, 19920, Note_on_c, 1, 68, 70
2, 19940, Note_off_c, 1, 69, 64
2, 20165, Note_on_c, 1, 67, 79
2, 20172, Note_off_c, 1, 68, 64
2, 20400, Note_on_c, 1, 69, 77
2, 20422, Note_off_c, 1, 67, 64
2, 20510, Note_on_c, 1, 70, 94
2, 20542, Note_off_c, 1, 69, 64
2, 20635, Note_off_c, 1, 70, 64
2, 20637, Note_on_c, 1, 72, 69
2, 20745, Note_on_c, 1, 74, 67
2, 20765, Note_off_c, 1, 72, 64
2, 20875, Note_on_c, 1, 75, 74
2, 20912, Note_off_c, 1, 74, 64
2, 20985, Note_on_c, 1, 77, 68
2, 21000, Note_off_c, 1, 75, 64
2, 21112, Note_on_c, 1, 79, 90
2, 21132, Note_off_c, 1, 77, 64
2, 21225, Note_on_c, 1, 81, 83
2, 21267, Note_off_c, 1, 79, 64
2, 21357, Note_on_c, 1, 82, 92
2, 21392, Note_off_c, 1, 81, 64
2, 21472, Note_on_c, 1, 81, 83
2, 21505, Note_off_c, 1, 82, 64
2, 21592, Note_on_c, 1, 82, 84
2, 21630, Note_off_c, 1, 81, 64
2, 21707, Note_on_c, 1, 81, 86
2, 21745, Note_off_c, 1, 82, 64
2, 21835, Note_on_c, 1, 82, 73
2, 21877, Note_off_c, 1, 81, 64
2, 21940, Note_on_c, 1, 79, 79
2, 22020, Note_off_c, 1, 82, 64
2, 22080, Note_on_c, 1, 77, 72
2, 22105, Note_off_c, 1, 79, 64
2, 22510, Note_off_c, 1, 77, 64
2, 22680, Note_on_c, 1, 82, 73
2, 22777, Note_off_c, 1, 82, 64
2, 22810, Note_on_c, 1, 84, 97
2, 22900, Note_off_c, 1, 84, 64
2, 22910, Note_on_c, 1, 82, 78
2, 22967, Note_off_c, 1, 82, 64
2, 23035, Note_on_c, 1, 86, 102
2, 23102, Note_off_c, 1, 86, 64
2, 23150, Note_on_c, 1, 84, 77
2, 23200, Note_off_c, 1, 84, 64
2, 23270, Note_on_c, 1, 82, 102
2, 23317, Note_off_c, 1, 82, 64
2, 23380, Note_on_c, 1, 81, 86
2, 23437, Note_off_c, 1, 81, 64
2, 23510, Note_on_c, 1, 79, 94
2, 23557, Note_off_c, 1, 79, 64
2, 23620, Note_on_c, 1, 77, 86
2, 23667, Note_off_c, 1, 77, 64
2, 23740, Note_on_c, 1, 75, 90
2, 23787, Note_off_c, 1, 75, 64
2, 23855, Note_on_c, 1, 74, 79
2, 23905, Note_off_c, 1, 74, 64
2, 24000, Note_on_c, 1, 75, 97
2, 24332, Note_off_c, 1, 75, 64
2, 24595, Note_on_c, 1, 81, 59
2, 24710, Note_on_c, 1, 82, 47
2, 24715, Note_off_c, 1, 81, 64
2, 24820, Note_on_c, 1, 81, 51
2, 24842, Note_off_c, 1, 82, 64
2, 24897, Note_off_c, 1, 81, 64
2, 24935, Note_on_c, 1, 84, 62
2, 24987, Note_off_c, 1, 84, 64
2, 25055, Note_on_c, 1, 82, 57
2, 25102, Note_off_c, 1, 82, 64
2, 25167, Note_on_c, 1, 81, 51
2, 25215, Note_off_c, 1, 81, 64
2, 25275, Note_on_c, 1, 79, 56
2, 25332, Note_off_c, 1, 79, 64
2, 25400, Note_on_c, 1, 77, 64
2, 25452, Note_off_c, 1, 77, 64
2, 25522, Note_on_c, 1, 75, 54
2, 25560, Note_off_c, 1, 75, 64
2, 25645, Note_on_c, 1, 74, 61
2, 25692, Note_off_c, 1, 74, 64
2, 25760, Note_on_c, 1, 72, 65
2, 25802, Note_off_c, 1, 72, 64
2, 25915, Note_on_c, 1, 74, 64
2, 26240, Note_off_c, 1, 74, 64
2, 26515, Note_on_c, 1, 77, 97
2, 26630, Note_on_c, 1, 79, 86
2, 26652, Note_off_c, 1, 77, 64
2, 26740, Note_on_c, 1, 77, 83
2, 26755, Note_off_c, 1, 79, 64
2, 26830, Note_off_c, 1, 77, 64
2, 26860, Note_on_c, 1, 82, 90
2, 26922, Note_off_c, 1, 82, 64
2, 26980, Note_on_c, 1, 81, 69
2, 27037, Note_off_c, 1, 81, 64
2, 27105, Note_on_c, 1, 79, 83
2, 27175, Note_off_c, 1, 79, 64
2, 27225, Note_on_c, 1, 77, 73
2, 27280, Note_off_c, 1, 77, 64
2, 27352, Note_on_c, 1, 75, 90
2, 27405, Note_off_c, 1, 75, 64
2, 27465, Note_on_c, 1, 74, 86
2, 27522, Note_off_c, 1, 74, 64
2, 27595, Note_on_c, 1, 72, 78
2, 27642, Note_off_c, 1, 72, 64
2, 27710, Note_on_c, 1, 70, 88
2, 27747, Note_off_c, 1, 70, 64
2, 27840, Note_on_c, 1, 74, 94
2, 27945, Note_on_c, 1, 72, 60
2, 27965, Note_off_c, 1, 74, 64
2, 28075, Note_on_c, 1, 75, 45
2, 28132, Note_off_c, 1, 72, 64
2, 28182, Note_on_c, 1, 74, 66
2, 28210, Note_off_c, 1, 75, 64
2, 28320, Note_on_c, 1, 77, 59
2, 28342, Note_off_c, 1, 74, 64
2, 28435, Note_on_c, 1, 75, 54
2, 28462, Note_off_c, 1, 77, 64
2, 28562, Note_on_c, 1, 79, 75
2, 28575, Note_off_c, 1, 75, 64
2, 28665, Note_on_c, 1, 78, 66
2, 28680, Note_off_c, 1, 79, 64
2, 28800, Note_on_c, 1, 79, 105
2, 28815, Note_off_c, 1, 78, 64
2, 28857, Note_off_c, 1, 79, 64
2, 28912, Note_on_c, 1, 77, 92
2, 28962, Note_off_c, 1, 77, 64
2, 29032, Note_on_c, 1, 75, 90
2, 29082, Note_off_c, 1, 75, 64
2, 29145, Note_on_c, 1, 74, 94
2, 29205, Note_off_c, 1, 74, 64
2, 29275, Note_on_c, 1, 72, 83
2, 29332, Note_off_c, 1, 72, 64
2, 29392, Note_on_c, 1, 70, 73
2, 29450, Note_off_c, 1, 70, 64
2, 29510, Note_on_c, 1, 69, 62
2, 29592, Note_off_c, 1, 69, 64
2, 29635, Note_on_c, 1, 70, 54
2, 29687, Note_off_c, 1, 70, 64
2, 29765, Note_on_c, 1, 69, 69
2, 29832, Note_off_c, 1, 69, 64
2, 29877, Note_on_c, 1, 70, 68
2, 29932, Note_off_c, 1, 70, 64
2, 30007, Note_on_c, 1, 72, 62
2, 30060, Note_off_c, 1, 72, 64
2, 30120, Note_on_c, 1, 74, 45
2, 30172, Note_off_c, 1, 74, 64
2, 30265, Note_on_c, 1, 76, 57
2, 30370, Note_on_c, 1, 77, 58
2, 30385, Note_off_c, 1, 76, 64
2, 30492, Note_on_c, 1, 76, 58
2, 30500, Note_off_c, 1, 77, 64
2, 30605, Note_on_c, 1, 77, 55
2, 30635, Note_off_c, 1, 76, 64
2, 30732, Note_off_c, 1, 77, 64
2, 30762, Note_on_c, 1, 65, 45
2, 31522, Note_off_c, 1, 65, 64
2, 32400, Note_on_c, 1, 84, 59
2, 32457, Note_off_c, 1, 84, 64
2, 32640, Note_on_c, 1, 84, 49
2, 32690, Note_off_c, 1, 84, 64
2, 32880, Note_on_c, 1, 84, 61
2, 32922, Note_off_c, 1, 84, 64
2, 33120, Note_on_c, 1, 84, 55
2, 33162, Note_off_c, 1, 84, 64
2, 33360, Note_on_c, 1, 84, 59
2, 33397, Note_off_c, 1, 84, 64
2, 33612, Note_on_c, 1, 84, 79
2, 34325, Note_on_c, 1, 82, 60
2, 34350, Note_off_c, 1, 84, 64
2, 34425, Note_on_c, 1, 81, 63
2, 34457, Note_off_c, 1, 82, 64
2, 34542, Note_off_c, 1, 81, 64
2, 34570, Note_on_c, 1, 79, 65
2, 34645, Note_off_c, 1, 79, 64
2, 34785, Note_on_c, 1, 77, 59
2, 34857, Note_off_c, 1, 77, 64
2, 35040, Note_on_c, 1, 76, 63
2, 35102, Note_off_c, 1, 76, 64
2, 35275, Note_on_c, 1, 79, 66
2, 35332, Note_off_c, 1, 79, 64
2, 35520, Note_on_c, 1, 77, 59
2, 36023, Note_off_c, 1, 77, 64
2, 36240, Note_on_c, 1, 84, 69
2, 36283, Note_off_c, 1, 84, 64
2, 36480, Note_on_c, 1, 84, 57
2, 36527, Note_off_c, 1, 84, 64
2, 36720, Note_on_c, 1, 84, 61
2, 36757, Note_off_c, 1, 84, 64
2, 36960, Note_on_c, 1, 84, 66
2, 37020, Note_off_c, 1, 84, 64
2, 37200, Note_on_c, 1, 84, 64
2, 37237, Note_off_c, 1, 84, 64
2, 37440, Note_on_c, 1, 84, 77
2, 38165, Note_on_c, 1, 82, 60
2, 38187, Note_off_c, 1, 84, 64
2, 38265, Note_on_c, 1, 81, 53
2, 38305, Note_off_c, 1, 82, 64
2, 38367, Note_off_c, 1, 81, 64
2, 38402, Note_on_c, 1, 79, 68
2, 38515, Note_off_c, 1, 79, 64
2, 38640, Note_on_c, 1, 81, 65
2, 38735, Note_off_c, 1, 81, 64
2, 38875, Note_on_c, 1, 82, 62
2, 38962, Note_off_c, 1, 82, 64
2, 39112, Note_on_c, 1, 79, 64
2, 39180, Note_off_c, 1, 79, 64
2, 39360, Note_on_c, 1, 81, 78
2, 39877, Note_off_c, 1, 81, 64
2, 40080, Note_on_c, 1, 84, 66
2, 40122, Note_off_c, 1, 84, 64
2, 40320, Note_on_c, 1, 84, 66
2, 40370, Note_off_c, 1, 84, 64
2, 40560, Note_on_c, 1, 84, 73
2, 40612, Note_off_c, 1, 84, 64
2, 40800, Note_on_c, 1, 84, 68
2, 40847, Note_off_c, 1, 84, 64
2, 41040, Note_on_c, 1, 85, 68
2, 41102, Note_off_c, 1, 85, 64
2, 41295, Note_on_c, 1, 86, 83
2, 41422, Note_on_c, 1, 74, 54
2, 41442, Note_off_c, 1, 86, 64
2, 41542, Note_on_c, 1, 73, 84
2, 41555, Note_off_c, 1, 74, 64
2, 41647, Note_on_c, 1, 74, 75
2, 41652, Note_off_c, 1, 73, 64
2, 41772, Note_on_c, 1, 75, 86
2, 41787, Note_off_c, 1, 74, 64
2, 41875, Note_on_c, 1, 74, 73
2, 41890, Note_off_c, 1, 75, 64
2, 42000, Note_on_c, 1, 76, 83
2, 42015, Note_off_c, 1, 74, 64
2, 42102, Note_on_c, 1, 74, 73
2, 42125, Note_off_c, 1, 76, 64
2, 42227, Note_on_c, 1, 77, 90
2, 42252, Note_off_c, 1, 74, 64
2, 42345, Note_on_c, 1, 74, 64
2, 42375, Note_off_c, 1, 77, 64
2, 42475, Note_on_c, 1, 78, 72
2, 42497, Note_off_c, 1, 74, 64
2, 42580, Note_on_c, 1, 74, 72
2, 42602, Note_off_c, 1, 78, 64
2, 42715, Note_on_c, 1, 79, 99
2, 42735, Note_off_c, 1, 74, 64
2, 42807, Note_on_c, 1, 74, 67
2, 42840, Note_off_c, 1, 79, 64
2, 42935, Note_on_c, 1, 81, 102
2, 42957, Note_off_c, 1, 74, 64
2, 43045, Note_on_c, 1, 74, 73
2, 43065, Note_off_c, 1, 81, 64
2, 43185, Note_on_c, 1, 82, 108
2, 43205, Note_off_c, 1, 74, 64
2, 44145, Note_off_c, 1, 82, 64
2, 44500, Note_on_c, 1, 82, 90
2, 44550, Note_off_c, 1, 82, 64
2, 44630, Note_on_c, 1, 82, 108
2, 44680, Note_off_c, 1, 82, 64
2, 44680, Note_on_c, 1, 84, 99
2, 44715, Note_off_c, 1, 84, 64
2, 44715, Note_on_c, 1, 82, 75
2, 44762, Note_on_c, 1, 84, 102
2, 44765, Note_off_c, 1, 82, 64
2, 44802, Note_on_c, 1, 82, 86
2, 44812, Note_off_c, 1, 84, 64
2, 44850, Note_on_c, 1, 81, 86
2, 44857, Note_off_c, 1, 82, 64
2, 44927, Note_off_c, 1, 81, 64
2, 44975, Note_on_c, 1, 82, 102
2, 45017, Note_off_c, 1, 82, 64
2, 45120, Note_on_c, 1, 84, 108
2, 45225, Note_on_c, 1, 72, 83
2, 45345, Note_on_c, 1, 71, 83
2, 45352, Note_off_c, 1, 84, 64
2, 45367, Note_off_c, 1, 72, 64
2, 45460, Note_on_c, 1, 72, 92
2, 45477, Note_off_c, 1, 71, 64
2, 45585, Note_off_c, 1, 72, 64
2, 45585, Note_on_c, 1, 73, 75
2, 45690, Note_on_c, 1, 72, 73
2, 45705, Note_off_c, 1, 73, 64
2, 45840, Note_on_c, 1, 74, 97
2, 45865, Note_off_c, 1, 72, 64
2, 45955, Note_on_c, 1, 72, 66
2, 45975, Note_off_c, 1, 74, 64
2, 46090, Note_on_c, 1, 75, 102
2, 46110, Note_off_c, 1, 72, 64
2, 46197, Note_on_c, 1, 72, 62
2, 46222, Note_off_c, 1, 75, 64
2, 46325, Note_on_c, 1, 76, 78
2, 46350, Note_off_c, 1, 72, 64
2, 46432, Note_on_c, 1, 72, 61
2, 46465, Note_off_c, 1, 76, 64
2, 46570, Note_on_c, 1, 77, 97
2, 46587, Note_off_c, 1, 72, 64
2, 46680, Note_on_c, 1, 72, 67
2, 46710, Note_off_c, 1, 77, 64
2, 46807, Note_on_c, 1, 79, 74
2, 46815, Note_off_c, 1, 72, 64
2, 46920, Note_on_c, 1, 72, 68
2, 46940, Note_off_c, 1, 79, 64
2, 47050, Note_on_c, 1, 81, 105
2, 47060, Note_off_c, 1, 72, 64
2, 47995, Note_off_c, 1, 81, 64
2, 48355, Note_on_c, 1, 81, 90
2, 48397, Note_off_c, 1, 81, 64
2, 48477, Note_on_c, 1, 81, 97
2, 48517, Note_off_c, 1, 81, 64
2, 48522, Note_on_c, 1, 82, 83
2, 48565, Note_off_c, 1, 82, 64
2, 48565, Note_on_c, 1, 81, 74
2, 48605, Note_off_c, 1, 81, 64
2, 48605, Note_on_c, 1, 82, 99
2, 48645, Note_on_c, 1, 81, 88
2, 48657, Note_off_c, 1, 82, 64
2, 48695, Note_on_c, 1, 79, 90
2, 48707, Note_off_c, 1, 81, 64
2, 48772, Note_off_c, 1, 79, 64
2, 48830, Note_on_c, 1, 81, 97
2, 48877, Note_off_c, 1, 81, 64
2, 48960, Note_on_c, 1, 82, 108
2, 49085, Note_on_c, 1, 70, 88
2, 49152, Note_off_c, 1, 82, 64
2, 49195, Note_on_c, 1, 69, 72
2, 49215, Note_off_c, 1, 70, 64
2, 49332, Note_on_c, 1, 70, 94
2, 49352, Note_off_c, 1, 69, 64
2, 49445, Note_on_c, 1, 72, 90
2, 49467, Note_off_c, 1, 70, 64
2, 49560, Note_on_c, 1, 70, 57
2, 49572, Note_off_c, 1, 72, 64
2, 49685, Note_on_c, 1, 73, 99
2, 49705, Note_off_c, 1, 70, 64
2, 49790, Note_on_c, 1, 70, 83
2, 49827, Note_off_c, 1, 73, 64
2, 49925, Note_on_c, 1, 74, 83
2, 49960, Note_off_c, 1, 70, 64
2, 50032, Note_on_c, 1, 70, 83
2, 50057, Note_off_c, 1, 74, 64
2, 50150, Note_on_c, 1, 76, 79
2, 50192, Note_off_c, 1, 70, 64
2, 50262, Note_on_c, 1, 70, 74
2, 50305, Note_off_c, 1, 76, 64
2, 50385, Note_on_c, 1, 77, 83
2, 50412, Note_off_c, 1, 70, 64
2, 50500, Note_on_c, 1, 70, 65
2, 50520, Note_off_c, 1, 77, 64
2, 50640, Note_on_c, 1, 78, 86
2, 50672, Note_off_c, 1, 70, 64
2, 50752, Note_on_c, 1, 70, 86
2, 50762, Note_off_c, 1, 78, 64
2, 50835, Note_off_c, 1, 70, 64
2, 50892, Note_on_c, 1, 79, 90
2, 51412, Note_off_c, 1, 79, 64
2, 51600, Note_on_c, 1, 82, 86
2, 51762, Note_off_c, 1, 82, 64
2, 51835, Note_on_c, 1, 81, 77
2, 52077, Note_on_c, 1, 79, 54
2, 52102, Note_off_c, 1, 81, 64
2, 52167, Note_off_c, 1, 79, 64
2, 52327, Note_on_c, 1, 77, 75
2, 52562, Note_on_c, 1, 76, 53
2, 52592, Note_off_c, 1, 77, 64
2, 52645, Note_off_c, 1, 76, 64
2, 52805, Note_on_c, 1, 79, 83
2, 53050, Note_on_c, 1, 77, 55
2, 53067, Note_off_c, 1, 79, 64
2, 53180, Note_off_c, 1, 77, 64
2, 53530, Note_on_c, 1, 84, 66
2, 53600, Note_off_c, 1, 84, 64
2, 53765, Note_on_c, 1, 82, 77
2, 54002, Note_on_c, 1, 81, 55
2, 54027, Note_off_c, 1, 82, 64
2, 54072, Note_off_c, 1, 81, 64
2, 54240, Note_on_c, 1, 79, 73
2, 54475, Note_on_c, 1, 78, 51
2, 54505, Note_off_c, 1, 79, 64
2, 54577, Note_off_c, 1, 78, 64
2, 54720, Note_on_c, 1, 79, 79
2, 55075, Note_on_c, 1, 81, 77
2, 55095, Note_off_c, 1, 79, 64
2, 55205, Note_on_c, 1, 84, 83
2, 55217, Note_off_c, 1, 81, 64
2, 55315, Note_on_c, 1, 82, 83
2, 55375, Note_off_c, 1, 84, 64
2, 55435, Note_on_c, 1, 81, 81
2, 55477, Note_off_c, 1, 82, 64
2, 55540, Note_on_c, 1, 79, 73
2, 55560, Note_off_c, 1, 81, 64
2, 55675, Note_on_c, 1, 77, 94
2, 55695, Note_off_c, 1, 79, 64
2, 56155, Note_on_c, 1, 76, 66
2, 56195, Note_off_c, 1, 77, 64
2, 56452, Note_off_c, 1, 76, 64
2, 56772, Note_on_c, 1, 77, 90
2, 56890, Note_on_c, 1, 76, 86
2, 56915, Note_off_c, 1, 77, 64
2, 57000, Note_on_c, 1, 77, 75
2, 57032, Note_off_c, 1, 76, 64
2, 57062, Note_off_c, 1, 77, 64
2, 57240, Note_on_c, 1, 72, 90
2, 57365, Note_on_c, 1, 71, 73
2, 57370, Note_off_c, 1, 72, 64
2, 57470, Note_on_c, 1, 72, 88
2, 57492, Note_off_c, 1, 71, 64
2, 57547, Note_off_c, 1, 72, 64
2, 57725, Note_on_c, 1, 69, 86
2, 57837, Note_on_c, 1, 68, 59
2, 57862, Note_off_c, 1, 69, 64
2, 57955, Note_on_c, 1, 69, 74
2, 57967, Note_off_c, 1, 68, 64
2, 58022, Note_off_c, 1, 69, 64
2, 58195, Note_on_c, 1, 65, 74
2, 58315, Note_on_c, 1, 64, 78
2, 58337, Note_off_c, 1, 65, 64
2, 58437, Note_on_c, 1, 65, 94
2, 58460, Note_off_c, 1, 64, 64
2, 58482, Note_off_c, 1, 65, 64
2, 58545, Note_on_c, 1, 70, 62
2, 58602, Note_on_c, 1, 72, 68
2, 58627, Note_off_c, 1, 70, 64
2, 58670, Note_on_c, 1, 76, 81
2, 58680, Note_off_c, 1, 72, 64
2, 59257, Note_on_c, 1, 82, 57
2, 59280, Note_off_c, 1, 76, 64
2, 59365, Note_off_c, 1, 82, 64
2, 59505, Note_on_c, 1, 81, 68
2, 59755, Note_on_c, 1, 79, 55
2, 59775, Note_off_c, 1, 81, 64
2, 59837, Note_off_c, 1, 79, 64
2, 59985, Note_on_c, 1, 77, 74
2, 60227, Note_on_c, 1, 76, 43
2, 60245, Note_off_c, 1, 77, 64
2, 60290, Note_off_c, 1, 76, 64
2, 60475, Note_on_c, 1, 79, 74
2, 60720, Note_on_c, 1, 77, 41
2, 60725, Note_off_c, 1, 79, 64
2, 60867, Note_off_c, 1, 77, 64
2, 61195, Note_on_c, 1, 84, 78
2, 61260, Note_off_c, 1, 84, 64
2, 61435, Note_on_c, 1, 82, 67
2, 61670, Note_on_c, 1, 81, 53
2, 61712, Note_off_c, 1, 82, 64
2, 61745, Note_off_c, 1, 81, 64
2, 61922, Note_on_c, 1, 79, 70
2, 62155, Note_on_c, 1, 78, 50
2, 62170, Note_off_c, 1, 79, 64
2, 62327, Note_off_c, 1, 78, 64
2, 62397, Note_on_c, 1, 79, 68
2, 62755, Note_on_c, 1, 81, 67
2, 62765, Note_off_c, 1, 79, 64
2, 62802, Note_off_c, 1, 81, 64
2, 62892, Note_on_c, 1, 81, 97
2, 62995, Note_on_c, 1, 82, 66
2, 63010, Note_off_c, 1, 81, 64
2, 63115, Note_on_c, 1, 84, 62
2, 63150, Note_off_c, 1, 82, 64
2, 63225, Note_on_c, 1, 86, 77
2, 63260, Note_off_c, 1, 84, 64
2, 63282, Note_off_c, 1, 86, 64
2, 63332, Note_on_c, 1, 86, 88
2, 63412, Note_on_c, 1, 77, 90
2, 63442, Note_off_c, 1, 86, 64
2, 63780, Note_on_c, 1, 81, 83
2, 63792, Note_off_c, 1, 77, 64
2, 63835, Note_off_c, 1, 81, 64
2, 63840, Note_on_c, 1, 79, 99
2, 63882, Note_off_c, 1, 79, 64
2, 63882, Note_on_c, 1, 81, 77
2, 63915, Note_off_c, 1, 81, 64
2, 63922, Note_on_c, 1, 79, 73
2, 63955, Note_off_c, 1, 79, 64
2, 63955, Note_on_c, 1, 81, 92
2, 63987, Note_off_c, 1, 81, 64
2, 63997, Note_on_c, 1, 79, 79
2, 64017, Note_on_c, 1, 81, 88
2, 64032, Note_off_c, 1, 79, 64
2, 64060, Note_off_c, 1, 81, 64
2, 64060, Note_on_c, 1, 79, 86
2, 64112, Note_on_c, 1, 77, 86
2, 64117, Note_off_c, 1, 79, 64
2, 64182, Note_on_c, 1, 79, 90
2, 64192, Note_off_c, 1, 77, 64
2, 64217, Note_off_c, 1, 79, 64
2, 64545, Note_on_c, 1, 84, 94
2, 64652, Note_on_c, 1, 81, 75
2, 64680, Note_off_c, 1, 84, 64
2, 64780, Note_on_c, 1, 77, 94
2, 64810, Note_off_c, 1, 81, 64
2, 64890, Note_on_c, 1, 72, 84
2, 64897, Note_off_c, 1, 77, 64
2, 64937, Note_off_c, 1, 72, 64
2, 65022, Note_on_c, 1, 69, 86
2, 65140, Note_off_c, 1, 69, 64
2, 65140, Note_on_c, 1, 65, 86
2, 65265, Note_on_c, 1, 63, 79
2, 65267, Note_on_c, 1, 60, 75
2, 65280, Note_off_c, 1, 65, 64
2, 66480, Note_on_c, 1, 62, 62
2, 66542, Note_off_c, 1, 60, 64
2, 66550, Note_off_c, 1, 63, 64
2, 66640, Note_off_c, 1, 62, 64
2, 66949, Note_on_c, 1, 70, 51
2, 66949, Note_on_c, 1, 74, 57
2, 67206, Note_off_c, 1, 74, 64
2, 67206, Note_off_c, 1, 70, 64
2, 67420, Note_on_c, 1, 72, 50
2, 67420, Note_on_c, 1, 69, 44
2, 67675, Note_off_c, 1, 69, 64
2, 67702, Note_off_c, 1, 72, 64
2, 67885, Note_on_c, 1, 58, 51
2, 67885, Note_on_c, 1, 64, 42
2, 68097, Note_off_c, 1, 64, 64
2, 68097, Note_off_c, 1, 58, 64
2, 68390, Note_on_c, 1, 84, 90
2, 68505, Note_on_c, 1, 81, 79
2, 68597, Note_off_c, 1, 84, 64
2, 68625, Note_on_c, 1, 77, 86
2, 68662, Note_off_c, 1, 81, 64
2, 68740, Note_on_c, 1, 72, 77
2, 68750, Note_off_c, 1, 77, 64
2, 68800, Note_off_c, 1, 72, 64
2, 68862, Note_on_c, 1, 69, 79
2, 68977, Note_on_c, 1, 65, 83
2, 68980, Note_off_c, 1, 69, 64
2, 69120, Note_on_c, 1, 60, 77
2, 69120, Note_on_c, 1, 63, 70
2, 69127, Note_off_c, 1, 65, 64
2, 70325, Note_on_c, 1, 62, 57
2, 70405, Note_off_c, 1, 63, 64
2, 70412, Note_off_c, 1, 60, 64
2, 70462, Note_off_c, 1, 62, 64
2, 70790, Note_on_c, 1, 74, 55
2, 70790, Note_on_c, 1, 70, 52
2, 70982, Note_off_c, 1, 70, 64
2, 70987, Note_off_c, 1, 74, 64
2, 71285, Note_on_c, 1, 72, 50
2, 71285, Note_on_c, 1, 69, 36
2, 71485, Note_off_c, 1, 69, 64
2, 71502, Note_off_c, 1, 72, 64
2, 71755, Note_on_c, 1, 64, 44
2, 71755, Note_on_c, 1, 58, 41
2, 72000, Note_on_c, 1, 65, 59
2, 72000, Note_on_c, 1, 57, 37
2, 72017, Note_off_c, 1, 58, 64
2, 72022, Note_off_c, 1, 64, 64
2, 72423, Note_off_c, 1, 57, 64
2, 72450, Note_off_c, 1, 65, 64
2, 72705, Note_on_c, 1, 69, 59
2, 72705, Note_on_c, 1, 65, 55
2, 72772, Note_off_c, 1, 65, 64
2, 72772, Note_off_c, 1, 69, 64
2, 72960, Note_on_c, 1, 67, 60
2, 72960, Note_on_c, 1, 64, 64
2, 73015, Note_off_c, 1, 64, 64
2, 73023, Note_off_c, 1, 67, 64
2, 73200, Note_on_c, 1, 64, 66
2, 73200, Note_on_c, 1, 67, 63
2, 73250, Note_off_c, 1, 64, 64
2, 73255, Note_off_c, 1, 67, 64
2, 73680, Note_on_c, 1, 70, 86
2, 73680, Note_on_c, 1, 67, 86
2, 73770, Note_off_c, 1, 67, 64
2, 73770, Note_off_c, 1, 70, 64
2, 73920, Note_on_c, 1, 69, 92
2, 73920, Note_on_c, 1, 65, 92
2, 74010, Note_off_c, 1, 65, 64
2, 74010, Note_off_c, 1, 69, 64
2, 74170, Note_on_c, 1, 65, 86
2, 74170, Note_on_c, 1, 69, 86
2, 74260, Note_off_c, 1, 69, 64
2, 74260, Note_off_c, 1, 65, 64
2, 74640, Note_on_c, 1, 81, 93
2, 74640, Note_on_c, 1, 77, 91
2, 74730, Note_off_c, 1, 77, 64
2, 74730, Note_off_c, 1, 81, 64
2, 74892, Note_on_c, 1, 79, 90
2, 74892, Note_on_c, 1, 76, 92
2, 74982, Note_off_c, 1, 76, 64
2, 74982, Note_off_c, 1, 79, 64
2, 75137, Note_on_c, 1, 79, 94
2, 75137, Note_on_c, 1, 76, 89
2, 75252, Note_off_c, 1, 79, 64
2, 75287, Note_off_c, 1, 76, 64
2, 75610, Note_on_c, 1, 82, 97
2, 75610, Note_on_c, 1, 76, 77
2, 75610, Note_on_c, 1, 79, 86
2, 75662, Note_off_c, 1, 79, 64
2, 75677, Note_off_c, 1, 82, 64
2, 75687, Note_off_c, 1, 76, 64
2, 75840, Note_on_c, 1, 76, 88
2, 75840, Note_on_c, 1, 79, 94
2, 75840, Note_on_c, 1, 82, 99
2, 76435, Control_c, 1, 64, 127
2, 76435, Control_c, 1, 64, 127
2, 76435, Control_c, 1, 64, 127
2, 76542, Note_off_c, 1, 76, 64
2, 76577, Note_off_c, 1, 79, 64
2, 76597, Note_off_c, 1, 82, 64
2, 76775, Note_on_c, 1, 77, 43
2, 76780, Note_on_c, 1, 81, 49
2, 76785, Control_c, 1, 64, 0
2, 76785, Control_c, 1, 64, 0
2, 76785, Control_c, 1, 64, 0
2, 77142, Note_off_c, 1, 81, 64
2, 77150, Note_off_c, 1, 77, 64
2, 77760, Note_on_c, 1, 70, 60
2, 77870, Control_c, 1, 64, 127
2, 77870, Control_c, 1, 64, 127
2, 77870, Control_c, 1, 64, 127
2, 77897, Note_on_c, 1, 72, 63
2, 77910, Note_off_c, 1, 70, 64
2, 77960, Note_on_c, 1, 70, 54
2, 77967, Note_off_c, 1, 72, 64
2, 78015, Note_off_c, 1, 70, 64
2, 78015, Note_on_c, 1, 72, 57
2, 78065, Note_on_c, 1, 70, 59
2, 78075, Note_off_c, 1, 72, 64
2, 78125, Note_off_c, 1, 70, 64
2, 78125, Note_on_c, 1, 72, 74
2, 78215, Note_on_c, 1, 70, 83
2, 78220, Control_c, 1, 64, 0
2, 78225, Control_c, 1, 64, 0
2, 78225, Control_c, 1, 64, 0
2, 78235, Note_off_c, 1, 72, 64
2, 78390, Note_on_c, 1, 72, 55
2, 78442, Note_off_c, 1, 70, 64
2, 78550, Note_on_c, 1, 74, 68
2, 78595, Note_off_c, 1, 72, 64
2, 78715, Note_on_c, 1, 70, 61
2, 78740, Note_off_c, 1, 74, 64
2, 78877, Note_on_c, 1, 69, 62
2, 78902, Note_off_c, 1, 70, 64
2, 79030, Note_on_c, 1, 72, 66
2, 79065, Note_off_c, 1, 69, 64
2, 79195, Note_on_c, 1, 70, 63
2, 79262, Note_off_c, 1, 72, 64
2, 79357, Note_on_c, 1, 69, 61
2, 79395, Note_off_c, 1, 70, 64
2, 79510, Note_on_c, 1, 75, 66
2, 79520, Note_off_c, 1, 69, 64
2, 79682, Note_off_c, 1, 75, 64
2, 79682, Note_on_c, 1, 72, 73
2, 79837, Note_on_c, 1, 70, 53
2, 79857, Note_off_c, 1, 72, 64
2, 79990, Note_on_c, 1, 74, 52
2, 80045, Note_off_c, 1, 70, 64
2, 80155, Note_on_c, 1, 72, 68
2, 80182, Note_off_c, 1, 74, 64
2, 80315, Note_on_c, 1, 70, 53
2, 80457, Note_off_c, 1, 72, 64
2, 80467, Note_on_c, 1, 77, 64
2, 80472, Note_off_c, 1, 70, 64
2, 80655, Note_on_c, 1, 74, 54
2, 80685, Note_off_c, 1, 77, 64
2, 81142, Note_off_c, 1, 74, 64
2, 81600, Note_on_c, 1, 70, 86
2, 81600, Note_on_c, 1, 79, 94
2, 81600, Note_on_c, 1, 75, 99
2, 81845, Note_off_c, 1, 75, 64
2, 81860, Note_off_c, 1, 79, 64
2, 81862, Note_off_c, 1, 70, 64
2, 82087, Note_on_c, 1, 77, 83
2, 82087, Note_on_c, 1, 74, 84
2, 82087, Note_on_c, 1, 70, 73
2, 82257, Note_off_c, 1, 74, 64
2, 82260, Note_off_c, 1, 70, 64
2, 82285, Note_off_c, 1, 77, 64
2, 82565, Note_on_c, 1, 77, 97
2, 82675, Note_on_c, 1, 82, 77
2, 82697, Note_off_c, 1, 77, 64
2, 82802, Note_on_c, 1, 81, 79
2, 82842, Note_off_c, 1, 82, 64
2, 82907, Note_on_c, 1, 82, 74
2, 82935, Note_off_c, 1, 81, 64
2, 83035, Note_on_c, 1, 84, 97
2, 83060, Note_off_c, 1, 82, 64
2, 83147, Note_on_c, 1, 82, 81
2, 83202, Note_off_c, 1, 84, 64
2, 83275, Note_on_c, 1, 81, 70
2, 83287, Note_off_c, 1, 82, 64
2, 83367, Note_on_c, 1, 82, 54
2, 83390, Note_off_c, 1, 81, 64
2, 83402, Note_off_c, 1, 82, 64
2, 83525, Note_on_c, 1, 74, 90
2, 83527, Note_on_c, 1, 77, 90
2, 83645, Note_on_c, 1, 75, 83
2, 83647, Note_on_c, 1, 72, 70
2, 83662, Note_off_c, 1, 74, 64
2, 83672, Note_off_c, 1, 77, 64
2, 83937, Note_off_c, 1, 75, 64
2, 83957, Note_off_c, 1, 72, 64
2, 84007, Note_on_c, 1, 74, 62
2, 84007, Note_on_c, 1, 70, 59
2, 84215, Note_off_c, 1, 70, 64
2, 84225, Note_off_c, 1, 74, 64
2, 85460, Note_on_c, 1, 58, 42
2, 85577, Note_on_c, 1, 60, 51
2, 85587, Note_off_c, 1, 58, 64
2, 85665, Note_on_c, 1, 58, 53
2, 85675, Note_off_c, 1, 60, 64
2, 85725, Note_off_c, 1, 58, 64
2, 85727, Note_on_c, 1, 60, 57
2, 85780, Note_on_c, 1, 58, 53
2, 85795, Note_off_c, 1, 60, 64
2, 85840, Note_on_c, 1, 60, 63
2, 85852, Note_off_c, 1, 58, 64
2, 85925, Note_on_c, 1, 58, 49
2, 85947, Note_off_c, 1, 60, 64
2, 86080, Note_on_c, 1, 60, 59
2, 86122, Note_off_c, 1, 58, 64
2, 86227, Note_on_c, 1, 62, 55
2, 86265, Note_off_c, 1, 60, 64
2, 86395, Note_on_c, 1, 58, 57
2, 86422, Note_off_c, 1, 62, 64
2, 86545, Note_on_c, 1, 57, 49
2, 86585, Note_off_c, 1, 58, 64
2, 86695, Note_on_c, 1, 60, 52
2, 86777, Note_off_c, 1, 57, 64
2, 86875, Note_on_c, 1, 58, 59
2, 86917, Note_off_c, 1, 60, 64
2, 87032, Note_on_c, 1, 57, 59
2, 87072, Note_off_c, 1, 58, 64
2, 87187, Note_on_c, 1, 63, 55
2, 87320, Note_off_c, 1, 57, 64
2, 87345, Note_on_c, 1, 60, 70
2, 87355, Note_off_c, 1, 63, 64
2, 87500, Note_on_c, 1, 58, 40
2, 87522, Note_off_c, 1, 60, 64
2, 87662, Note_on_c, 1, 62, 47
2, 87725, Note_off_c, 1, 58, 64
2, 87840, Note_on_c, 1, 60, 68
2, 87850, Note_off_c, 1, 62, 64
2, 87997, Note_on_c, 1, 58, 48
2, 88020, Note_off_c, 1, 60, 64
2, 88152, Note_on_c, 1, 65, 45
2, 88170, Note_off_c, 1, 58, 64
2, 88325, Note_on_c, 1, 62, 45
2, 88345, Note_off_c, 1, 65, 64
2, 88805, Note_off_c, 1, 62, 64
2, 89265, Note_on_c, 1, 67, 81
2, 89435, Note_on_c, 1, 72, 77
2, 89457, Note_off_c, 1, 67, 64
2, 89587, Note_on_c, 1, 75, 92
2, 89610, Note_off_c, 1, 72, 64
2, 89745, Note_off_c, 1, 75, 64
2, 89755, Note_on_c, 1, 72, 97
2, 89907, Note_on_c, 1, 75, 97
2, 89940, Note_off_c, 1, 72, 64
2, 90065, Note_on_c, 1, 79, 86
2, 90110, Note_off_c, 1, 75, 64
2, 90142, Note_off_c, 1, 79, 64
2, 90240, Note_on_c, 1, 79, 94
2, 90355, Note_on_c, 1, 77, 83
2, 90375, Note_off_c, 1, 79, 64
2, 90480, Note_on_c, 1, 75, 90
2, 90507, Note_off_c, 1, 77, 64
2, 90585, Note_on_c, 1, 74, 102
2, 90615, Note_off_c, 1, 75, 64
2, 90657, Note_off_c, 1, 74, 64
2, 90715, Note_on_c, 1, 74, 97
2, 90830, Note_on_c, 1, 72, 83
2, 90850, Note_off_c, 1, 74, 64
2, 90960, Note_on_c, 1, 70, 88
2, 90970, Note_off_c, 1, 72, 64
2, 91075, Note_on_c, 1, 69, 73
2, 91090, Note_off_c, 1, 70, 64
2, 91207, Note_on_c, 1, 70, 91
2, 91225, Note_off_c, 1, 69, 64
2, 92155, Note_off_c, 1, 70, 64
2, 92405, Note_on_c, 1, 70, 86
2, 92645, Note_on_c, 1, 69, 77
2, 92667, Note_off_c, 1, 70, 64
2, 92880, Note_on_c, 1, 68, 67
2, 92902, Note_off_c, 1, 69, 64
2, 93120, Note_on_c, 1, 67, 72
2, 93140, Note_off_c, 1, 68, 64
2, 93367, Note_on_c, 1, 69, 66
2, 93392, Note_off_c, 1, 67, 64
2, 93475, Note_on_c, 1, 70, 55
2, 93510, Note_off_c, 1, 69, 64
2, 93605, Note_off_c, 1, 70, 64
2, 93612, Note_on_c, 1, 72, 64
2, 93722, Note_on_c, 1, 74, 65
2, 93747, Note_off_c, 1, 72, 64
2, 93835, Note_on_c, 1, 75, 86
2, 93867, Note_off_c, 1, 74, 64
2, 93955, Note_on_c, 1, 77, 73
2, 93960, Note_off_c, 1, 75, 64
2, 94097, Note_off_c, 1, 77, 64
2, 94097, Note_on_c, 1, 79, 94
2, 94200, Note_on_c, 1, 81, 90
2, 94235, Note_off_c, 1, 79, 64
2, 94330, Note_on_c, 1, 82, 90
2, 94352, Note_off_c, 1, 81, 64
2, 94437, Note_on_c, 1, 81, 90
2, 94475, Note_off_c, 1, 82, 64
2, 94570, Note_on_c, 1, 82, 97
2, 94597, Note_off_c, 1, 81, 64
2, 94680, Note_on_c, 1, 81, 86
2, 94707, Note_off_c, 1, 82, 64
2, 94800, Note_on_c, 1, 82, 75
2, 94850, Note_off_c, 1, 81, 64
2, 94890, Note_on_c, 1, 79, 68
2, 95002, Note_off_c, 1, 82, 64
2, 95040, Note_on_c, 1, 77, 53
2, 95047, Note_off_c, 1, 79, 64
2, 95702, Note_off_c, 1, 77, 64
2, 96252, Note_on_c, 1, 70, 79
2, 96482, Note_on_c, 1, 69, 73
2, 96525, Note_off_c, 1, 70, 64
2, 96720, Note_on_c, 1, 68, 70
2, 96740, Note_off_c, 1, 69, 64
2, 96965, Note_on_c, 1, 67, 79
2, 96972, Note_off_c, 1, 68, 64
2, 97200, Note_on_c, 1, 69, 77
2, 97222, Note_off_c, 1, 67, 64
2, 97310, Note_on_c, 1, 70, 94
2, 97342, Note_off_c, 1, 69, 64
2, 97435, Note_off_c, 1, 70, 64
2, 97437, Note_on_c, 1, 72, 69
2, 97545, Note_on_c, 1, 74, 67
2, 97565, Note_off_c, 1, 72, 64
2, 97675, Note_on_c, 1, 75, 74
2, 97712, Note_off_c, 1, 74, 64
2, 97785, Note_on_c, 1, 77, 68
2, 97800, Note_off_c, 1, 75, 64
2, 97912, Note_on_c, 1, 79, 90
2, 97932, Note_off_c, 1, 77, 64
2, 98025, Note_on_c, 1, 81, 83
2, 98067, Note_off_c, 1, 79, 64
2, 98157, Note_on_c, 1, 82, 92
2, 98192, Note_off_c, 1, 81, 64
2, 98272, Note_on_c, 1, 81, 83
2, 98305, Note_off_c, 1, 82, 64
2, 98392, Note_on_c, 1, 82, 84
2, 98430, Note_off_c, 1, 81, 64
2, 98507, Note_on_c, 1, 81, 86
2, 98545, Note_off_c, 1, 82, 64
2, 98635, Note_on_c, 1, 82, 73
2, 98677, Note_off_c, 1, 81, 64
2, 98740, Note_on_c, 1, 79, 79
2, 98820, Note_off_c, 1, 82, 64
2, 98880, Note_on_c, 1, 77, 72
2, 98905, Note_off_c, 1, 79, 64
2, 99310, Note_off_c, 1, 77, 64
2, 99480, Note_on_c, 1, 82, 73
2, 99577, Note_off_c, 1, 82, 64
2, 99610, Note_on_c, 1, 84, 97
2, 99700, Note_off_c, 1, 84, 64
2, 99710, Note_on_c, 1, 82, 78
2, 99767, Note_off_c, 1, 82, 64
2, 99835, Note_on_c, 1, 86, 102
2, 99902, Note_off_c, 1, 86, 64
2, 99950, Note_on_c, 1, 84, 77
2, 100000, Note_off_c, 1, 84, 64
2, 100070, Note_on_c, 1, 82, 102
2, 100117, Note_off_c, 1, 82, 64
2, 100180, Note_on_c, 1, 81, 86
2, 100237, Note_off_c, 1, 81, 64
2, 100310, Note_on_c, 1, 79, 94
2, 100357, Note_off_c, 1, 79, 64
2, 100420, Note_on_c, 1, 77, 86
2, 100467, Note_off_c, 1, 77, 64
2, 100540, Note_on_c, 1, 75, 90
2, 100587, Note_off_c, 1, 75, 64
2, 100655, Note_on_c, 1, 74, 79
2, 100705, Note_off_c, 1, 74, 64
2, 100800, Note_on_c, 1, 75, 97
2, 101132, Note_off_c, 1, 75, 64
2, 101395, Note_on_c, 1, 81, 59
2, 101510, Note_on_c, 1, 82, 47
2, 101515, Note_off_c, 1, 81, 64
2, 101620, Note_on_c, 1, 81, 51
2, 101642, Note_off_c, 1, 82, 64
2, 101697, Note_off_c, 1, 81, 64
2, 101735, Note_on_c, 1, 84, 62
2, 101787, Note_off_c, 1, 84, 64
2, 101855, Note_on_c, 1, 82, 57
2, 101902, Note_off_c, 1, 82, 64
2, 101967, Note_on_c, 1, 81, 51
2, 102015, Note_off_c, 1, 81, 64
2, 102075, Note_on_c, 1, 79, 56
2, 102132, Note_off_c, 1, 79, 64
2, 102200, Note_on_c, 1, 77, 64
2, 102252, Note_off_c, 1, 77, 64
2, 102322, Note_on_c, 1, 75, 54
2, 102360, Note_off_c, 1, 75, 64
2, 102445, Note_on_c, 1, 74, 61
2, 102492, Note_off_c, 1, 74, 64
2, 102560, Note_on_c, 1, 72, 65
2, 102602, Note_off_c, 1, 72, 64
2, 102715, Note_on_c, 1, 74, 64
2, 103040, Note_off_c, 1, 74, 64
2, 103315, Note_on_c, 1, 77, 97
2, 103430, Note_on_c, 1, 79, 86
2, 103452, Note_off_c, 1, 77, 64
2, 103540, Note_on_c, 1, 77, 83
2, 103555, Note_off_c, 1, 79, 64
2, 103630, Note_off_c, 1, 77, 64
2, 103660, Note_on_c, 1, 82, 90
2, 103722, Note_off_c, 1, 82, 64
2, 103780, Note_on_c, 1, 81, 69
2, 103837, Note_off_c, 1, 81, 64
2, 103905, Note_on_c, 1, 79, 83
2, 103975, Note_off_c, 1, 79, 64
2, 104025, Note_on_c, 1, 77, 73
2, 104080, Note_off_c, 1, 77, 64
2, 104152, Note_on_c, 1, 75, 90
2, 104205, Note_off_c, 1, 75, 64
2, 104265, Note_on_c, 1, 74, 86
2, 104322, Note_off_c, 1, 74, 64
2, 104395, Note_on_c, 1, 72, 78
2, 104442, Note_off_c, 1, 72, 64
2, 104510, Note_on_c, 1, 70, 88
2, 104547, Note_off_c, 1, 70, 64
2, 104640, Note_on_c, 1, 74, 94
2, 104745, Note_on_c, 1, 72, 60
2, 104765, Note_off_c, 1, 74, 64
2, 104875, Note_on_c, 1, 75, 45
2, 104932, Note_off_c, 1, 72, 64
2, 104982, Note_on_c, 1, 74, 66
2, 105010, Note_off_c, 1, 75, 64
2, 105120, Note_on_c, 1, 77, 59
2, 105142, Note_off_c, 1, 74, 64
2, 105235, Note_on_c, 1, 75, 54
2, 105262, Note_off_c, 1, 77, 64
2, 105362, Note_on_c, 1, 79, 75
2, 105375, Note_off_c, 1, 75, 64
2, 105465, Note_on_c, 1, 78, 66
2, 105480, Note_off_c, 1, 79, 64
2, 105600, Note_on_c, 1, 79, 105
2, 105615, Note_off_c, 1, 78, 64
2, 105657, Note_off_c, 1, 79, 64
2, 105712, Note_on_c, 1, 77, 92
2, 105762, Note_off_c, 1, 77, 64
2, 105832, Note_on_c, 1, 75, 90
2, 105882, Note_off_c, 1, 75, 64
2, 105945, Note_on_c, 1, 74, 94
2, 106005, Note_off_c, 1, 74, 64
2, 106075, Note_on_c, 1, 72, 83
2, 106132, Note_off_c, 1, 72, 64
2, 106192, Note_on_c, 1, 70, 73
2, 106250, Note_off_c, 1, 70, 64
2, 106310, Note_on_c, 1, 69, 62
2, 106392, Note_off_c, 1, 69, 64
2, 106435, Note_on_c, 1, 70, 54
2, 106487, Note_off_c, 1, 70, 64
2, 106565, Note_on_c, 1, 69, 69
2, 106632, Note_off_c, 1, 69, 64
2, 106677, Note_on_c, 1, 70, 68
2, 106732, Note_off_c, 1, 70, 64
2, 106807, Note_on_c, 1, 72, 62
2, 106860, Note_off_c, 1, 72, 64
2, 106920, Note_on_c, 1, 74, 45
2, 106972, Note_off_c, 1, 74, 64
2, 107065, Note_on_c, 1, 76, 57
2, 107170, Note_on_c, 1, 77, 58
2, 107185, Note_off_c, 1, 76, 64
2, 107292, Note_on_c, 1, 76, 58
2, 107300, Note_off_c, 1, 77, 64
2, 107405, Note_on_c, 1, 77, 55
2, 107435, Note_off_c, 1, 76, 64
2, 107532, Note_off_c, 1, 77, 64
2, 107562, Note_on_c, 1, 65, 45
2, 108322, Note_off_c, 1, 65, 64
2, 109200, Note_on_c, 1, 84, 59
2, 109257, Note_off_c, 1, 84, 64
2, 109440, Note_on_c, 1, 84, 49
2, 109490, Note_off_c, 1, 84, 64
2, 109680, Note_on_c, 1, 84, 61
2, 109722, Note_off_c, 1, 84, 64
2, 109920, Note_on_c, 1, 84, 55
2, 109962, Note_off_c, 1, 84, 64
2, 110160, Note_on_c, 1, 84, 59
2, 110197, Note_off_c, 1, 84, 64
2, 110412, Note_on_c, 1, 84, 79
2, 111125, Note_on_c, 1, 82, 60
2, 111150, Note_off_c, 1, 84, 64
2, 111225, Note_on_c, 1, 81, 63
2, 111257, Note_off_c, 1, 82, 64
2, 111342, Note_off_c, 1, 81, 64
2, 111370, Note_on_c, 1, 79, 65
2, 111445, Note_off_c, 1, 79, 64
2, 111585, Note_on_c, 1, 77, 59
2, 111657, Note_off_c, 1, 77, 64
2, 111840, Note_on_c, 1, 76, 63
2, 111902, Note_off_c, 1, 76, 64
2, 112075, Note_on_c, 1, 79, 66
2, 112132, Note_off_c, 1, 79, 64
2, 112320, Note_on_c, 1, 77, 59
2, 112823, Note_off_c, 1, 77, 64
2, 113040, Note_on_c, 1, 84, 69
2, 113083, Note_off_c, 1, 84, 64
2, 113280, Note_on_c, 1, 84, 57
2, 113327, Note_off_c, 1, 84, 64
2, 113520, Note_on_c, 1, 84, 61
2, 113557, Note_off_c, 1, 84, 64
2, 113760, Note_on_c, 1, 84, 66
2, 113820, Note_off_c, 1, 84, 64
2, 114000, Note_on_c, 1, 84, 64
2, 114037, Note_off_c, 1, 84, 64
2, 114240, Note_on_c, 1, 84, 77
2, 114965, Note_on_c, 1, 82, 60
2, 114987, Note_off_c, 1, 84, 64
2, 115065, Note_on_c, 1, 81, 53
2, 115105, Note_off_c, 1, 82, 64
2, 115167, Note_off_c, 1, 81, 64
2, 115202, Note_on_c, 1, 79, 68
2, 115315, Note_off_c, 1, 79, 64
2, 115440, Note_on_c, 1, 81, 65
2, 115535, Note_off_c, 1, 81, 64
2, 115675, Note_on_c, 1, 82, 62
2, 115762, Note_off_c, 1, 82, 64
2, 115912, Note_on_c, 1, 79, 64
2, 115980, Note_off_c, 1, 79, 64
2, 116160, Note_on_c, 1, 81, 78
2, 116677, Note_off_c, 1, 81, 64
2, 116880, Note_on_c, 1, 84, 66
2, 116922, Note_off_c, 1, 84, 64
2, 117120, Note_on_c, 1, 84, 66
2, 117170, Note_off_c, 1, 84, 64
2, 117360, Note_on_c, 1, 84, 73
2, 117412, Note_off_c, 1, 84, 64
2, 117600, Note_on_c, 1, 84, 68
2, 117647, Note_off_c, 1, 84, 64
2, 117840, Note_on_c, 1, 85, 68
2, 117902, Note_off_c, 1, 85, 64
2, 118095, Note_on_c, 1, 86, 83
2, 118222, Note_on_c, 1, 74, 54
2, 118242, Note_off_c, 1, 86, 64
2, 118342, Note_on_c, 1, 73, 84
2, 118355, Note_off_c, 1, 74, 64
2, 118447, Note_on_c, 1, 74, 75
2, 118452, Note_off_c, 1, 73, 64
2, 118572, Note_on_c, 1, 75, 86
2, 118587, Note_off_c, 1, 74, 64
2, 118675, Note_on_c, 1, 74, 73
2, 118690, Note_off_c, 1, 75, 64
2, 118800, Note_on_c, 1, 76, 83
2, 118815, Note_off_c, 1, 74, 64
2, 118902, Note_on_c, 1, 74, 73
2, 118925, Note_off_c, 1, 76, 64
2, 119027, Note_on_c, 1, 77, 90
2, 119052, Note_off_c, 1, 74, 64
2, 119145, Note_on_c, 1, 74, 64
2, 119175, Note_off_c, 1, 77, 64
2, 119275, Note_on_c, 1, 78, 72
2, 119297, Note_off_c, 1, 74, 64
2, 119380, Note_on_c, 1, 74, 72
2, 119402, Note_off_c, 1, 78, 64
2, 119515, Note_on_c, 1, 79, 99
2, 119535, Note_off_c, 1, 74, 64
2, 119607, Note_on_c, 1, 74, 67
2, 119640, Note_off_c, 1, 79, 64
2, 119735, Note_on_c, 1, 81, 102
2, 119757, Note_off_c, 1, 74, 64
2, 119845, Note_on_c, 1, 74, 73
2, 119865, Note_off_c, 1, 81, 64
2, 119985, Note_on_c, 1, 82, 108
2, 120005, Note_off_c, 1, 74, 64
2, 120945, Note_off_c, 1, 82, 64
2, 121300, Note_on_c, 1, 82, 90
2, 121350, Note_off_c, 1, 82, 64
2, 121430, Note_on_c, 1, 82, 108
2, 121480, Note_off_c, 1, 82, 64
2, 121480, Note_on_c, 1, 84, 99
2, 121515, Note_off_c, 1, 84, 64
2, 121515, Note_on_c, 1, 82, 75
2, 121562, Note_on_c, 1, 84, 102
2, 121565, Note_off_c, 1, 82, 64
2, 121602, Note_on_c, 1, 82, 86
2, 121612, Note_off_c, 1, 84, 64
2, 121650, Note_on_c, 1, 81, 86
2, 121657, Note_off_c, 1, 82, 64
2, 121727, Note_off_c, 1, 81, 64
2, 121775, Note_on_c, 1, 82, 102
2, 121817, Note_off_c, 1, 82, 64
2, 121920, Note_on_c, 1, 84, 108
2, 122025, Note_on_c, 1, 72, 83
2, 122145, Note_on_c, 1, 71, 83
2, 122152, Note_off_c, 1, 84, 64
2, 122167, Note_off_c, 1, 72, 64
2, 122260, Note_on_c, 1, 72, 92
2, 122277, Note_off_c, 1, 71, 64
2, 122385, Note_off_c, 1, 72, 64
2, 122385, Note_on_c, 1, 73, 75
2, 122490, Note_on_c, 1, 72, 73
2, 122505, Note_off_c, 1, 73, 64
2, 122640, Note_on_c, 1, 74, 97
2, 122665, Note_off_c, 1, 72, 64
2, 122755, Note_on_c, 1, 72, 66
2, 122775, Note_off_c, 1, 74, 64
2, 122890, Note_on_c, 1, 75, 102
2, 122910, Note_off_c, 1, 72, 64
2, 122997, Note_on_c, 1, 72, 62
2, 123022, Note_off_c, 1, 75, 64
2, 123125, Note_on_c, 1, 76, 78
2, 123150, Note_off_c, 1, 72, 64
2, 123232, Note_on_c, 1, 72, 61
2, 123265, Note_off_c, 1, 76, 64
2, 123370, Note_on_c, 1, 77, 97
2, 123387, Note_off_c, 1, 72, 64
2, 123480, Note_on_c, 1, 72, 67
2, 123510, Note_off_c, 1, 77, 64
2, 123607, Note_on_c, 1, 79, 74
2, 123615, Note_off_c, 1, 72, 64
2, 123720, Note_on_c, 1, 72, 68
2, 123740, Note_off_c, 1, 79, 64
2, 123850, Note_on_c, 1, 81, 105
2, 123860, Note_off_c, 1, 72, 64
2, 124795, Note_off_c, 1, 81, 64
2, 125155, Note_on_c, 1, 81, 90
2, 125197, Note_off_c, 1, 81, 64
2, 125277, Note_on_c, 1, 81, 97
2, 125317, Note_off_c, 1, 81, 64
2, 125322, Note_on_c, 1, 82, 83
2, 125365, Note_off_c, 1, 82, 64
2, 125365, Note_on_c, 1, 81, 74
2, 125405, Note_off_c, 1, 81, 64
2, 125405, Note_on_c, 1, 82, 99
2, 125445, Note_on_c, 1, 81, 88
2, 125457, Note_off_c, 1, 82, 64
2, 125495, Note_on_c, 1, 79, 90
2, 125507, Note_off_c, 1, 81, 64
2, 125572, Note_off_c, 1, 79, 64
2, 125630, Note_on_c, 1, 81, 97
2, 125677, Note_off_c, 1, 81, 64
2, 125760, Note_on_c, 1, 82, 108
2, 125885, Note_on_c, 1, 70, 88
2, 125952, Note_off_c, 1, 82, 64
2, 125995, Note_on_c, 1, 69, 72
2, 126015, Note_off_c, 1, 70, 64
2, 126132, Note_on_c, 1, 70, 94
2, 126152, Note_off_c, 1, 69, 64
2, 126245, Note_on_c, 1, 72, 90
2, 126267, Note_off_c, 1, 70, 64
2, 126360, Note_on_c, 1, 70, 57
2, 126372, Note_off_c, 1, 72, 64
2, 126485, Note_on_c, 1, 73, 99
2, 126505, Note_off_c, 1, 70, 64
2, 126590, Note_on_c, 1, 70, 83
2, 126627, Note_off_c, 1, 73, 64
2, 126725, Note_on_c, 1, 74, 83
2, 126760, Note_off_c, 1, 70, 64
2, 126832, Note_on_c, 1, 70, 83
2, 126857, Note_off_c, 1, 74, 64
2, 126950, Note_on_c, 1, 76, 79
2, 126992, Note_off_c, 1, 70, 64
2, 127062, Note_on_c, 1, 70, 74
2, 127105, Note_off_c, 1, 76, 64
2, 127185, Note_on_c, 1, 77, 83
2, 127212, Note_off_c, 1, 70, 64
2, 127300, Note_on_c, 1, 70, 65
2, 127320, Note_off_c, 1, 77, 64
2, 127440, Note_on_c, 1, 78, 86
2, 127472, Note_off_c, 1, 70, 64
2, 127552, Note_on_c, 1, 70, 86
2, 127562, Note_off_c, 1, 78, 64
2, 127635, Note_off_c, 1, 70, 64
2, 127692, Note_on_c, 1, 79, 90
2, 128212, Note_off_c, 1, 79, 64
2, 128400, Note_on_c, 1, 82, 86
2, 128562, Note_off_c, 1, 82, 64
2, 128635, Note_on_c, 1, 81, 77
2, 128877, Note_on_c, 1, 79, 54
2, 128902, Note_off_c, 1, 81, 64
2, 128967, Note_off_c, 1, 79, 64
2, 129127, Note_on_c, 1, 77, 75
2, 129362, Note_on_c, 1, 76, 53
2, 129392, Note_off_c, 1, 77, 64
2, 129445, Note_off_c, 1, 76, 64
2, 129605, Note_on_c, 1, 79, 83
2, 129850, Note_on_c, 1, 77, 55
2, 129867, Note_off_c, 1, 79, 64
2, 129980, Note_off_c, 1, 77, 64
2, 130330, Note_on_c, 1, 84, 66
2, 130400, Note_off_c, 1, 84, 64
2, 130565, Note_on_c, 1, 82, 77
2, 130802, Note_on_c, 1, 81, 55
2, 130827, Note_off_c, 1, 82, 64
2, 130872, Note_off_c, 1, 81, 64
2, 131040, Note_on_c, 1, 79, 73
2, 131275, Note_on_c, 1, 78, 51
2, 131305, Note_off_c, 1, 79, 64
2, 131377, Note_off_c, 1, 78, 64
2, 131520, Note_on_c, 1, 79, 79
2, 131875, Note_on_c, 1, 81, 77
2, 131895, Note_off_c, 1, 79, 64
2, 132005, Note_on_c, 1, 84, 83
2, 132017, Note_off_c, 1, 81, 64
2, 132115, Note_on_c, 1, 82, 83
2, 132175, Note_off_c, 1, 84, 64
2, 132235, Note_on_c, 1, 81, 81
2, 132277, Note_off_c, 1, 82, 64
2, 132340, Note_on_c, 1, 79, 73
2, 132360, Note_off_c, 1, 81, 64
2, 132475, Note_on_c, 1, 77, 94
2, 132495, Note_off_c, 1, 79, 64
2, 132955, Note_on_c, 1, 76, 66
2, 132995, Note_off_c, 1, 77, 64
2, 133252, Note_off_c, 1, 76, 64
2, 133572, Note_on_c, 1, 77, 90
2, 133690, Note_on_c, 1, 76, 86
2, 133715, Note_off_c, 1, 77, 64
2, 133800, Note_on_c, 1, 77, 75
2, 133832, Note_off_c, 1, 76, 64
2, 133862, Note_off_c, 1, 77, 64
2, 134040, Note_on_c, 1, 72, 90
2, 134165, Note_on_c, 1, 71, 73
2, 134170, Note_off_c, 1, 72, 64
2, 134270, Note_on_c, 1, 72, 88
2, 134292, Note_off_c, 1, 71, 64
2, 134347, Note_off_c, 1, 72, 64
2, 134525, Note_on_c, 1, 69, 86
2, 134637, Note_on_c, 1, 68, 59
2, 134662, Note_off_c, 1, 69, 64
2, 134755, Note_on_c, 1, 69, 74
2, 134767, Note_off_c, 1, 68, 64
2, 134822, Note_off_c, 1, 69, 64
2, 134995, Note_on_c, 1, 65, 74
2, 135115, Note_on_c, 1, 64, 78
2, 135137, Note_off_c, 1, 65, 64
2, 135237, Note_on_c, 1, 65, 94
2, 135260, Note_off_c, 1, 64, 64
2, 135282, Note_off_c, 1, 65, 64
2, 135345, Note_on_c, 1, 70, 62
2, 135402, Note_on_c, 1, 72, 68
2, 135427, Note_off_c, 1, 70, 64
2, 135470, Note_on_c, 1, 76, 81
2, 135480, Note_off_c, 1, 72, 64
2, 136057, Note_on_c, 1, 82, 57
2, 136080, Note_off_c, 1, 76, 64
2, 136165, Note_off_c, 1, 82, 64
2, 136305, Note_on_c, 1, 81, 68
2, 136555, Note_on_c, 1, 79, 55
2, 136575, Note_off_c, 1, 81, 64
2, 136637, Note_off_c, 1, 79, 64
2, 136785, Note_on_c, 1, 77, 74
2, 137027, Note_on_c, 1, 76, 43
2, 137045, Note_off_c, 1, 77, 64
2, 137090, Note_off_c, 1, 76, 64
2, 137275, Note_on_c, 1, 79, 74
2, 137520, Note_on_c, 1, 77, 41
2, 137525, Note_off_c, 1, 79, 64
2, 137667, Note_off_c, 1, 77, 64
2, 137995, Note_on_c, 1, 84, 78
2, 138060, Note_off_c, 1, 84, 64
2, 138235, Note_on_c, 1, 82, 67
2, 138470, Note_on_c, 1, 81, 53
2, 138512, Note_off_c, 1, 82, 64
2, 138545, Note_off_c, 1, 81, 64
2, 138722, Note_on_c, 1, 79, 70
2, 138955, Note_on_c, 1, 78, 50
2, 138970, Note_off_c, 1, 79, 64
2, 139127, Note_off_c, 1, 78, 64
2, 139197, Note_on_c, 1, 79, 68
2, 139555, Note_on_c, 1, 81, 67
2, 139565, Note_off_c, 1, 79, 64
2, 139602, Note_off_c, 1, 81, 64
2, 139692, Note_on_c, 1, 81, 97
2, 139795, Note_on_c, 1, 82, 66
2, 139810, Note_off_c, 1, 81, 64
2, 139915, Note_on_c, 1, 84, 62
2, 139950, Note_off_c, 1, 82, 64
2, 140025, Note_on_c, 1, 86, 77
2, 140060, Note_off_c, 1, 84, 64
2, 140082, Note_off_c, 1, 86, 64
2, 140132, Note_on_c, 1, 86, 88
2, 140212, Note_on_c, 1, 77, 90
2, 140242, Note_off_c, 1, 86, 64
2, 140580, Note_on_c, 1, 81, 83
2, 140592, Note_off_c, 1, 77, 64
2, 140635, Note_off_c, 1, 81, 64
2, 140640, Note_on_c, 1, 79, 99
2, 140682, Note_off_c, 1, 79, 64
2, 140682, Note_on_c, 1, 81, 77
2, 140715, Note_off_c, 1, 81, 64
2, 140722, Note_on_c, 1, 79, 73
2, 140755, Note_off_c, 1, 79, 64
2, 140755, Note_on_c, 1, 81, 92
2, 140787, Note_off_c, 1, 81, 64
2, 140797, Note_on_c, 1, 79, 79
2, 140817, Note_on_c, 1, 81, 88
2, 140832, Note_off_c, 1, 79, 64
2, 140860, Note_off_c, 1, 81, 64
2, 140860, Note_on_c, 1, 79, 86
2, 140912, Note_on_c, 1, 77, 86
2, 140917, Note_off_c, 1, 79, 64
2, 140982, Note_on_c, 1, 79, 90
2, 140992, Note_off_c, 1, 77, 64
2, 141017, Note_off_c, 1, 79, 64
2, 141345, Note_on_c, 1, 84, 94
2, 141452, Note_on_c, 1, 81, 75
2, 141480, Note_off_c, 1, 84, 64
2, 141580, Note_on_c, 1, 77, 94
2, 141610, Note_off_c, 1, 81, 64
2, 141690, Note_on_c, 1, 72, 84
2, 141697, Note_off_c, 1, 77, 64
2, 141737, Note_off_c, 1, 72, 64
2, 141822, Note_on_c, 1, 69, 86
2, 141940, Note_off_c, 1, 69, 64
2, 141940, Note_on_c, 1, 65, 86
2, 142065, Note_on_c, 1, 63, 79
2, 142067, Note_on_c, 1, 60, 75
2, 142080, Note_off_c, 1, 65, 64
2, 143280, Note_on_c, 1, 62, 62
2, 143342, Note_off_c, 1, 60, 64
2, 143350, Note_off_c, 1, 63, 64
2, 143440, Note_off_c, 1, 62, 64
2, 143749, Note_on_c, 1, 70, 51
2, 143749, Note_on_c, 1, 74, 57
2, 144006, Note_off_c, 1, 74, 64
2, 144006, Note_off_c, 1, 70, 64
2, 144220, Note_on_c, 1, 72, 50
2, 144220, Note_on_c, 1, 69, 44
2, 144475, Note_off_c, 1, 69, 64
2, 144502, Note_off_c, 1, 72, 64
2, 144685, Note_on_c, 1, 58, 51
2, 144685, Note_on_c, 1, 64, 42
2, 144897, Note_off_c, 1, 64, 64
2, 144897, Note_off_c, 1, 58, 64
2, 145190, Note_on_c, 1, 84, 90
2, 145305, Note_on_c, 1, 81, 79
2, 145397, Note_off_c, 1, 84, 64
2, 145425, Note_on_c, 1, 77, 86
2, 145462, Note_off_c, 1, 81, 64
2, 145540, Note_on_c, 1, 72, 77
2, 145550, Note_off_c, 1, 77, 64
2, 145600, Note_off_c, 1, 72, 64
2, 145662, Note_on_c, 1, 69, 79
2, 145777, Note_on_c, 1, 65, 83
2, 145780, Note_off_c, 1, 69, 64
2, 145920, Note_on_c, 1, 60, 77
2, 145920, Note_on_c, 1, 63, 70
2, 145927, Note_off_c, 1, 65, 64
2, 147125, Note_on_c, 1, 62, 57
2, 147205, Note_off_c, 1, 63, 64
2, 147212, Note_off_c, 1, 60, 64
2, 147262, Note_off_c, 1, 62, 64
2, 147590, Note_on_c, 1, 74, 55
2, 147590, Note_on_c, 1, 70, 52
2, 147782, Note_off_c, 1, 70, 64
2, 147787, Note_off_c, 1, 74, 64
2, 148085, Note_on_c, 1, 72, 50
2, 148085, Note_on_c, 1, 69, 36
2, 148285, Note_off_c, 1, 69, 64
2, 148302, Note_off_c, 1, 72, 64
2, 148555, Note_on_c, 1, 64, 44
2, 148555, Note_on_c, 1, 58, 41
2, 148800, Note_on_c, 1, 65, 59
2, 148800, Note_on_c, 1, 57, 37
2, 148817, Note_off_c, 1, 58, 64
2, 148822, Note_off_c, 1, 64, 64
2, 149223, Note_off_c, 1, 57, 64
2, 149250, Note_off_c, 1, 65, 64
2, 149505, Note_on_c, 1, 69, 59
2, 149505, Note_on_c, 1, 65, 55
2, 149572, Note_off_c, 1, 65, 64
2, 149572, Note_off_c, 1, 69, 64
2, 149760, Note_on_c, 1, 67, 60
2, 149760, Note_on_c, 1, 64, 64
2, 149815, Note_off_c, 1, 64, 64
2, 149823, Note_off_c, 1, 67, 64
2, 150000, Note_on_c, 1, 64, 66
2, 150000, Note_on_c, 1, 67, 63
2, 150050, Note_off_c, 1, 64, 64
2, 150055, Note_off_c, 1, 67, 64
2, 150480, Note_on_c, 1, 70, 86
2, 150480, Note_on_c, 1, 67, 86
2, 150570, Note_off_c, 1, 67, 64
2, 150570, Note_off_c, 1, 70, 64
2, 150720, Note_on_c, 1, 69, 92
2, 150720, Note_on_c, 1, 65, 92
2, 150810, Note_off_c, 1, 65, 64
2, 150810, Note_off_c, 1, 69, 64
2, 150970, Note_on_c, 1, 65, 86
2, 150970, Note_on_c, 1, 69, 86
2, 151060, Note_off_c, 1, 69, 64
2, 151060, Note_off_c, 1, 65, 64
2, 151440, Note_on_c, 1, 81, 93
2, 151440, Note_on_c, 1, 77, 91
2, 151530, Note_off_c, 1, 77, 64
2, 151530, Note_off_c, 1, 81, 64
2, 151692, Note_on_c, 1, 79, 90
2, 151692, Note_on_c, 1, 76, 92
2, 151782, Note_off_c, 1, 76, 64
2, 151782, Note_off_c, 1, 79, 64
2, 151937, Note_on_c, 1, 79, 94
2, 151937, Note_on_c, 1, 76, 89
2, 152052, Note_off_c, 1, 79, 64
2, 152087, Note_off_c, 1, 76, 64
2, 152410, Note_on_c, 1, 82, 97
2, 152410, Note_on_c, 1, 76, 77
2, 152410, Note_on_c, 1, 79, 86
2, 152462, Note_off_c, 1, 79, 64
2, 152477, Note_off_c, 1, 82, 64
2, 152487, Note_off_c, 1, 76, 64
2, 152640, Note_on_c, 1, 76, 88
2, 152640, Note_on_c, 1, 79, 94
2, 152640, Note_on_c, 1, 82, 99
2, 153235, Control_c, 1, 64, 127
2, 153235, Control_c, 1, 64, 127
2, 153235, Control_c, 1, 64, 127
2, 153342, Note_off_c, 1, 76, 64
2, 153377, Note_off_c, 1, 79, 64
2, 153397, Note_off_c, 1, 82, 64
2, 153575, Note_on_c, 1, 77, 43
2, 153580, Note_on_c, 1, 81, 49
2, 153585, Control_c, 1, 64, 0
2, 153585, Control_c, 1, 64, 0
2, 153585, Control_c, 1, 64, 0
2, 153942, Note_off_c, 1, 81, 64
2, 153950, Note_off_c, 1, 77, 64
2, 153950, End_track
3, 0, Start_track
3, 0, Title_t, "new"
3, 0, MIDI_port, 0
3, 0, Channel_prefix, 2
3, 0, Control_c, 2, 7, 99
3, 0, Control_c, 2, 10, 64
3, 0, Control_c, 2, 91, 40
3, 0, Program_c, 2, 0
3, 960, Note_on_c, 2, 58, 46
3, 960, Note_on_c, 2, 62, 46
3, 1910, Note_on_c, 2, 63, 54
3, 1910, Note_on_c, 2, 60, 61
3, 1943, Note_off_c, 2, 62, 64
3, 1952, Note_off_c, 2, 58, 64
3, 2880, Note_on_c, 2, 65, 63
3, 2880, Note_on_c, 2, 62, 49
3, 2900, Note_off_c, 2, 63, 64
3, 2910, Note_off_c, 2, 60, 64
3, 3877, Note_off_c, 2, 62, 64
3, 3900, Note_off_c, 2, 65, 64
3, 4800, Note_on_c, 2, 63, 115
3, 4800, Note_on_c, 2, 51, 94
3, 5053, Note_off_c, 2, 51, 64
3, 5060, Note_off_c, 2, 63, 64
3, 5280, Note_on_c, 2, 58, 108
3, 5280, Note_on_c, 2, 46, 119
3, 5475, Note_off_c, 2, 46, 64
3, 5502, Note_off_c, 2, 58, 64
3, 6710, Note_on_c, 2, 53, 83
3, 6715, Note_on_c, 2, 41, 83
3, 6950, Note_off_c, 2, 41, 64
3, 6960, Note_off_c, 2, 53, 64
3, 7197, Note_on_c, 2, 58, 86
3, 7207, Note_on_c, 2, 46, 83
3, 7420, Note_off_c, 2, 58, 64
3, 7427, Note_off_c, 2, 46, 64
3, 8630, Note_on_c, 2, 46, 54
3, 8630, Note_on_c, 2, 50, 54
3, 9580, Note_on_c, 2, 51, 68
3, 9592, Note_on_c, 2, 48, 61
3, 9637, Note_off_c, 2, 50, 64
3, 9642, Note_off_c, 2, 46, 64
3, 10572, Note_on_c, 2, 53, 57
3, 10572, Note_on_c, 2, 50, 47
3, 10602, Note_off_c, 2, 51, 64
3, 10617, Note_off_c, 2, 48, 64
3, 11735, Note_off_c, 2, 50, 64
3, 11755, Note_off_c, 2, 53, 64
3, 12295, Note_on_c, 2, 51, 79
3, 12370, Note_on_c, 2, 55, 97
3, 12465, Note_on_c, 2, 60, 102
3, 13430, Note_on_c, 2, 62, 99
3, 13430, Note_on_c, 2, 53, 77
3, 13457, Note_off_c, 2, 60, 64
3, 13457, Note_off_c, 2, 51, 64
3, 13487, Note_off_c, 2, 55, 64
3, 13905, Note_on_c, 2, 63, 97
3, 13937, Note_off_c, 2, 62, 64
3, 14315, Note_off_c, 2, 63, 64
3, 14385, Note_off_c, 2, 53, 64
3, 14395, Note_on_c, 2, 62, 69
3, 14400, Note_on_c, 2, 58, 73
3, 14475, Note_off_c, 2, 58, 64
3, 14480, Note_off_c, 2, 62, 64
3, 14637, Note_on_c, 2, 62, 69
3, 14637, Note_on_c, 2, 58, 62
3, 14685, Note_off_c, 2, 58, 64
3, 14692, Note_off_c, 2, 62, 64
3, 14880, Note_on_c, 2, 58, 43
3, 14880, Note_on_c, 2, 62, 60
3, 14927, Note_off_c, 2, 58, 64
3, 14942, Note_off_c, 2, 62, 64
3, 15115, Note_on_c, 2, 62, 61
3, 15120, Note_on_c, 2, 58, 45
3, 15167, Note_off_c, 2, 58, 64
3, 15180, Note_off_c, 2, 62, 64
3, 15352, Note_on_c, 2, 62, 57
3, 15352, Note_on_c, 2, 58, 46
3, 15417, Note_off_c, 2, 58, 64
3, 15427, Note_off_c, 2, 62, 64
3, 15597, Note_on_c, 2, 58, 37
3, 15597, Note_on_c, 2, 62, 55
3, 15647, Note_off_c, 2, 58, 64
3, 15660, Note_off_c, 2, 62, 64
3, 15835, Note_on_c, 2, 62, 61
3, 15837, Note_on_c, 2, 58, 45
3, 15892, Note_off_c, 2, 58, 64
3, 15905, Note_off_c, 2, 62, 64
3, 16092, Note_on_c, 2, 62, 55
3, 16100, Note_on_c, 2, 58, 45
3, 16145, Note_off_c, 2, 58, 64
3, 16162, Note_off_c, 2, 62, 64
3, 16337, Note_on_c, 2, 63, 86
3, 16337, Note_on_c, 2, 58, 67
3, 16405, Note_off_c, 2, 58, 64
3, 16425, Note_off_c, 2, 63, 64
3, 16577, Note_on_c, 2, 63, 45
3, 16592, Note_on_c, 2, 58, 45
3, 16650, Note_off_c, 2, 58, 64
3, 16650, Note_off_c, 2, 63, 64
3, 16802, Note_on_c, 2, 63, 61
3, 16810, Note_on_c, 2, 58, 52
3, 16865, Note_off_c, 2, 58, 64
3, 16877, Note_off_c, 2, 63, 64
3, 17042, Note_on_c, 2, 63, 66
3, 17042, Note_on_c, 2, 58, 50
3, 17102, Note_off_c, 2, 58, 64
3, 17112, Note_off_c, 2, 63, 64
3, 17277, Note_on_c, 2, 63, 77
3, 17277, Note_on_c, 2, 58, 57
3, 17332, Note_off_c, 2, 58, 64
3, 17342, Note_off_c, 2, 63, 64
3, 17520, Note_on_c, 2, 63, 75
3, 17522, Note_on_c, 2, 58, 48
3, 17590, Note_off_c, 2, 63, 64
3, 17595, Note_off_c, 2, 58, 64
3, 17767, Note_on_c, 2, 63, 66
3, 17772, Note_on_c, 2, 58, 53
3, 17835, Note_off_c, 2, 58, 64
3, 17845, Note_off_c, 2, 63, 64
3, 18005, Note_on_c, 2, 63, 59
3, 18007, Note_on_c, 2, 58, 51
3, 18070, Note_off_c, 2, 58, 64
3, 18075, Note_off_c, 2, 63, 64
3, 18240, Note_on_c, 2, 62, 70
3, 18240, Note_on_c, 2, 58, 53
3, 18312, Note_off_c, 2, 62, 64
3, 18315, Note_off_c, 2, 58, 64
3, 18480, Note_on_c, 2, 58, 31
3, 18482, Note_on_c, 2, 62, 44
3, 18545, Note_off_c, 2, 62, 64
3, 18550, Note_off_c, 2, 58, 64
3, 18715, Note_on_c, 2, 58, 36
3, 18720, Note_on_c, 2, 62, 49
3, 18787, Note_off_c, 2, 62, 64
3, 18790, Note_off_c, 2, 58, 64
3, 18960, Note_on_c, 2, 58, 32
3, 18965, Note_on_c, 2, 62, 50
3, 19020, Note_off_c, 2, 62, 64
3, 19040, Note_off_c, 2, 58, 64
3, 19195, Note_on_c, 2, 58, 34
3, 19197, Note_on_c, 2, 62, 51
3, 19277, Note_off_c, 2, 62, 64
3, 19280, Note_off_c, 2, 58, 64
3, 19435, Note_on_c, 2, 58, 38
3, 19437, Note_on_c, 2, 62, 50
3, 19500, Note_off_c, 2, 58, 64
3, 19510, Note_off_c, 2, 62, 64
3, 19700, Note_on_c, 2, 62, 53
3, 19702, Note_on_c, 2, 58, 35
3, 19775, Note_off_c, 2, 58, 64
3, 19775, Note_off_c, 2, 62, 64
3, 19940, Note_on_c, 2, 62, 55
3, 19942, Note_on_c, 2, 58, 33
3, 20005, Note_off_c, 2, 62, 64
3, 20012, Note_off_c, 2, 58, 64
3, 20170, Note_on_c, 2, 58, 63
3, 20170, Note_on_c, 2, 63, 77
3, 20275, Note_off_c, 2, 63, 64
3, 20275, Note_off_c, 2, 58, 64
3, 20427, Note_on_c, 2, 58, 36
3, 20427, Note_on_c, 2, 63, 42
3, 20490, Note_off_c, 2, 58, 64
3, 20500, Note_off_c, 2, 63, 64
3, 20647, Note_on_c, 2, 63, 45
3, 20655, Note_on_c, 2, 58, 36
3, 20730, Note_off_c, 2, 58, 64
3, 20730, Note_off_c, 2, 63, 64
3, 20875, Note_on_c, 2, 58, 37
3, 20875, Note_on_c, 2, 63, 45
3, 20955, Note_off_c, 2, 63, 64
3, 20955, Note_off_c, 2, 58, 64
3, 21115, Note_on_c, 2, 58, 37
3, 21115, Note_on_c, 2, 63, 43
3, 21190, Note_off_c, 2, 63, 64
3, 21195, Note_off_c, 2, 58, 64
3, 21345, Note_on_c, 2, 63, 42
3, 21347, Note_on_c, 2, 58, 41
3, 21420, Note_off_c, 2, 58, 64
3, 21425, Note_off_c, 2, 63, 64
3, 21582, Note_on_c, 2, 58, 39
3, 21582, Note_on_c, 2, 63, 46
3, 21670, Note_off_c, 2, 63, 64
3, 21677, Note_off_c, 2, 58, 64
3, 21827, Note_on_c, 2, 58, 30
3, 21832, Note_on_c, 2, 63, 39
3, 21900, Note_off_c, 2, 63, 64
3, 21907, Note_off_c, 2, 58, 64
3, 22075, Note_on_c, 2, 58, 56
3, 22075, Note_on_c, 2, 62, 74
3, 22202, Note_off_c, 2, 62, 64
3, 22202, Note_off_c, 2, 58, 64
3, 22320, Note_on_c, 2, 58, 51
3, 22437, Note_off_c, 2, 58, 64
3, 22545, Note_on_c, 2, 62, 75
3, 22622, Note_off_c, 2, 62, 64
3, 22780, Note_on_c, 2, 65, 77
3, 22880, Note_off_c, 2, 65, 64
3, 23047, Note_on_c, 2, 58, 66
3, 23380, Note_off_c, 2, 58, 64
3, 24227, Note_on_c, 2, 53, 68
3, 24362, Note_off_c, 2, 53, 64
3, 24467, Note_on_c, 2, 57, 69
3, 24600, Note_off_c, 2, 57, 64
3, 24717, Note_on_c, 2, 60, 69
3, 24857, Note_off_c, 2, 60, 64
3, 24957, Note_on_c, 2, 53, 65
3, 25147, Note_off_c, 2, 53, 64
3, 26147, Note_on_c, 2, 46, 84
3, 26147, Note_on_c, 2, 34, 94
3, 26265, Note_off_c, 2, 34, 64
3, 26287, Note_off_c, 2, 46, 64
3, 26385, Note_on_c, 2, 50, 83
3, 26390, Note_on_c, 2, 38, 81
3, 26455, Note_off_c, 2, 50, 64
3, 26480, Note_off_c, 2, 38, 64
3, 26615, Note_on_c, 2, 53, 79
3, 26615, Note_on_c, 2, 41, 86
3, 26702, Note_off_c, 2, 53, 64
3, 26715, Note_off_c, 2, 41, 64
3, 26870, Note_on_c, 2, 38, 92
3, 26875, Note_on_c, 2, 50, 84
3, 27132, Note_off_c, 2, 50, 64
3, 27132, Note_off_c, 2, 38, 64
3, 27587, Note_on_c, 2, 65, 70
3, 27587, Note_on_c, 2, 62, 66
3, 27837, Note_on_c, 2, 63, 66
3, 27837, Note_on_c, 2, 67, 75
3, 27860, Note_off_c, 2, 62, 64
3, 27872, Note_off_c, 2, 65, 64
3, 28800, Note_off_c, 2, 63, 64
3, 28807, Note_off_c, 2, 67, 64
3, 29520, Note_on_c, 2, 64, 72
3, 29520, Note_on_c, 2, 67, 68
3, 29775, Note_on_c, 2, 65, 61
3, 29797, Note_off_c, 2, 64, 64
3, 29807, Note_off_c, 2, 67, 64
3, 30147, Note_off_c, 2, 65, 64
3, 30737, Note_on_c, 2, 45, 79
3, 30800, Note_off_c, 2, 45, 64
3, 30850, Note_on_c, 2, 46, 94
3, 30895, Note_off_c, 2, 46, 64
3, 30967, Note_on_c, 2, 48, 70
3, 31025, Note_off_c, 2, 48, 64
3, 31085, Note_on_c, 2, 50, 77
3, 31142, Note_off_c, 2, 50, 64
3, 31210, Note_on_c, 2, 52, 57
3, 31315, Note_on_c, 2, 53, 61
3, 31337, Note_off_c, 2, 52, 64
3, 31442, Note_off_c, 2, 53, 64
3, 31442, Note_on_c, 2, 52, 54
3, 31537, Note_on_c, 2, 53, 59
3, 31557, Note_off_c, 2, 52, 64
3, 31690, Note_on_c, 2, 41, 54
3, 31692, Note_off_c, 2, 53, 64
3, 32120, Note_off_c, 2, 41, 64
3, 33597, Note_on_c, 2, 65, 45
3, 33835, Note_on_c, 2, 72, 49
3, 33887, Note_off_c, 2, 65, 64
3, 34092, Note_on_c, 2, 69, 37
3, 34127, Note_off_c, 2, 72, 64
3, 34320, Note_on_c, 2, 72, 54
3, 34342, Note_off_c, 2, 69, 64
3, 34577, Note_on_c, 2, 67, 42
3, 34592, Note_off_c, 2, 72, 64
3, 34795, Note_on_c, 2, 72, 46
3, 34827, Note_off_c, 2, 67, 64
3, 35042, Note_on_c, 2, 70, 42
3, 35070, Note_off_c, 2, 72, 64
3, 35260, Note_on_c, 2, 72, 58
3, 35285, Note_off_c, 2, 70, 64
3, 35520, Note_on_c, 2, 69, 43
3, 35552, Note_off_c, 2, 72, 64
3, 35752, Note_off_c, 2, 69, 64
3, 35752, Note_on_c, 2, 65, 31
3, 35980, Note_on_c, 2, 72, 47
3, 36022, Note_off_c, 2, 65, 64
3, 36212, Note_off_c, 2, 72, 64
3, 37447, Note_on_c, 2, 65, 37
3, 37680, Note_on_c, 2, 72, 36
3, 37740, Note_off_c, 2, 65, 64
3, 37932, Note_on_c, 2, 69, 40
3, 37960, Note_off_c, 2, 72, 64
3, 38162, Note_on_c, 2, 72, 52
3, 38177, Note_off_c, 2, 69, 64
3, 38410, Note_on_c, 2, 64, 38
3, 38437, Note_off_c, 2, 72, 64
3, 38667, Note_on_c, 2, 72, 37
3, 38682, Note_off_c, 2, 64, 64
3, 38895, Note_on_c, 2, 67, 44
3, 38927, Note_off_c, 2, 72, 64
3, 39142, Note_on_c, 2, 72, 39
3, 39152, Note_off_c, 2, 67, 64
3, 39382, Note_on_c, 2, 65, 34
3, 39390, Note_off_c, 2, 72, 64
3, 39612, Note_on_c, 2, 69, 45
3, 39642, Note_off_c, 2, 65, 64
3, 39852, Note_on_c, 2, 72, 44
3, 39877, Note_off_c, 2, 69, 64
3, 40077, Note_off_c, 2, 72, 64
3, 41270, Note_on_c, 2, 58, 105
3, 41270, Note_on_c, 2, 46, 108
3, 42257, Note_off_c, 2, 46, 64
3, 42330, Note_off_c, 2, 58, 64
3, 43185, Note_on_c, 2, 67, 108
3, 43300, Note_on_c, 2, 69, 77
3, 43325, Note_off_c, 2, 67, 64
3, 43420, Note_on_c, 2, 70, 86
3, 43442, Note_off_c, 2, 69, 64
3, 43535, Note_on_c, 2, 69, 81
3, 43597, Note_off_c, 2, 70, 64
3, 43655, Note_on_c, 2, 67, 105
3, 43687, Note_off_c, 2, 69, 64
3, 43770, Note_on_c, 2, 69, 74
3, 43790, Note_off_c, 2, 67, 64
3, 43882, Note_on_c, 2, 65, 68
3, 43905, Note_off_c, 2, 69, 64
3, 43990, Note_on_c, 2, 67, 70
3, 44010, Note_off_c, 2, 65, 64
3, 44122, Note_on_c, 2, 64, 86
3, 44130, Note_off_c, 2, 67, 64
3, 44242, Note_on_c, 2, 65, 60
3, 44260, Note_off_c, 2, 64, 64
3, 44365, Note_on_c, 2, 62, 73
3, 44387, Note_off_c, 2, 65, 64
3, 44492, Note_on_c, 2, 64, 51
3, 44502, Note_off_c, 2, 62, 64
3, 44625, Note_on_c, 2, 60, 78
3, 44627, Note_off_c, 2, 64, 64
3, 44730, Note_on_c, 2, 62, 57
3, 44740, Note_off_c, 2, 60, 64
3, 44862, Note_on_c, 2, 58, 75
3, 44875, Note_off_c, 2, 62, 64
3, 44975, Note_on_c, 2, 60, 56
3, 44992, Note_off_c, 2, 58, 64
3, 45090, Note_off_c, 2, 60, 64
3, 45110, Note_on_c, 2, 57, 97
3, 45117, Note_on_c, 2, 45, 108
3, 46227, Note_off_c, 2, 45, 64
3, 46232, Note_off_c, 2, 57, 64
3, 47047, Note_on_c, 2, 65, 94
3, 47167, Note_on_c, 2, 67, 74
3, 47207, Note_off_c, 2, 65, 64
3, 47292, Note_on_c, 2, 69, 94
3, 47317, Note_off_c, 2, 67, 64
3, 47397, Note_on_c, 2, 67, 56
3, 47447, Note_off_c, 2, 69, 64
3, 47530, Note_on_c, 2, 65, 90
3, 47565, Note_off_c, 2, 67, 64
3, 47640, Note_on_c, 2, 67, 83
3, 47680, Note_off_c, 2, 65, 64
3, 47757, Note_on_c, 2, 64, 83
3, 47860, Note_on_c, 2, 65, 88
3, 47872, Note_off_c, 2, 67, 64
3, 47882, Note_off_c, 2, 64, 64
3, 47987, Note_on_c, 2, 62, 83
3, 48010, Note_off_c, 2, 65, 64
3, 48115, Note_on_c, 2, 64, 64
3, 48132, Note_off_c, 2, 62, 64
3, 48240, Note_on_c, 2, 60, 69
3, 48250, Note_off_c, 2, 64, 64
3, 48345, Note_off_c, 2, 60, 64
3, 48347, Note_on_c, 2, 62, 59
3, 48437, Note_off_c, 2, 62, 64
3, 48477, Note_on_c, 2, 58, 92
3, 48575, Note_on_c, 2, 60, 54
3, 48625, Note_off_c, 2, 58, 64
3, 48695, Note_on_c, 2, 57, 64
3, 48810, Note_off_c, 2, 60, 64
3, 48810, Note_on_c, 2, 58, 45
3, 48820, Note_off_c, 2, 57, 64
3, 48945, Note_off_c, 2, 58, 64
3, 48957, Note_on_c, 2, 55, 97
3, 48957, Note_on_c, 2, 43, 102
3, 50032, Note_off_c, 2, 43, 64
3, 50032, Note_off_c, 2, 55, 64
3, 50887, Note_on_c, 2, 60, 36
3, 50955, Control_c, 2, 64, 127
3, 50955, Control_c, 2, 64, 127
3, 50955, Control_c, 2, 64, 127
3, 50995, Note_on_c, 2, 64, 54
3, 51100, Note_off_c, 2, 64, 64
3, 51117, Note_off_c, 2, 60, 64
3, 51122, Note_on_c, 2, 67, 41
3, 51195, Note_off_c, 2, 67, 64
3, 51225, Note_on_c, 2, 64, 47
3, 51300, Note_off_c, 2, 64, 64
3, 51345, Note_on_c, 2, 60, 45
3, 51367, Control_c, 2, 64, 0
3, 51367, Control_c, 2, 64, 0
3, 51367, Control_c, 2, 64, 0
3, 51445, Note_on_c, 2, 64, 52
3, 51540, Control_c, 2, 64, 127
3, 51540, Control_c, 2, 64, 127
3, 51540, Control_c, 2, 64, 127
3, 51585, Note_off_c, 2, 64, 64
3, 51592, Note_on_c, 2, 67, 34
3, 51622, Note_off_c, 2, 60, 64
3, 51700, Note_on_c, 2, 64, 59
3, 51705, Note_off_c, 2, 67, 64
3, 51757, Note_off_c, 2, 64, 64
3, 51835, Note_on_c, 2, 60, 45
3, 51865, Control_c, 2, 64, 0
3, 51867, Control_c, 2, 64, 0
3, 51867, Control_c, 2, 64, 0
3, 51940, Note_on_c, 2, 67, 46
3, 52012, Control_c, 2, 64, 127
3, 52012, Control_c, 2, 64, 127
3, 52012, Control_c, 2, 64, 127
3, 52055, Note_off_c, 2, 67, 64
3, 52070, Note_on_c, 2, 70, 42
3, 52117, Note_off_c, 2, 60, 64
3, 52187, Note_off_c, 2, 70, 64
3, 52187, Note_on_c, 2, 67, 43
3, 52250, Note_off_c, 2, 67, 64
3, 52305, Control_c, 2, 64, 0
3, 52305, Control_c, 2, 64, 0
3, 52305, Control_c, 2, 64, 0
3, 52307, Note_on_c, 2, 60, 41
3, 52425, Note_on_c, 2, 67, 45
3, 52540, Control_c, 2, 64, 127
3, 52540, Control_c, 2, 64, 127
3, 52540, Control_c, 2, 64, 127
3, 52545, Note_off_c, 2, 67, 64
3, 52545, Note_on_c, 2, 70, 44
3, 52597, Note_off_c, 2, 60, 64
3, 52675, Note_on_c, 2, 67, 44
3, 52685, Note_off_c, 2, 70, 64
3, 52717, Note_off_c, 2, 67, 64
3, 52802, Note_on_c, 2, 60, 38
3, 52802, Control_c, 2, 64, 0
3, 52802, Control_c, 2, 64, 0
3, 52802, Control_c, 2, 64, 0
3, 52922, Note_on_c, 2, 65, 42
3, 53022, Note_off_c, 2, 65, 64
3, 53035, Control_c, 2, 64, 127
3, 53035, Control_c, 2, 64, 127
3, 53035, Control_c, 2, 64, 127
3, 53050, Note_on_c, 2, 69, 39
3, 53110, Note_off_c, 2, 60, 64
3, 53157, Note_off_c, 2, 69, 64
3, 53157, Note_on_c, 2, 65, 57
3, 53232, Note_off_c, 2, 65, 64
3, 53275, Control_c, 2, 64, 0
3, 53275, Control_c, 2, 64, 0
3, 53275, Control_c, 2, 64, 0
3, 53290, Note_on_c, 2, 60, 43
3, 53397, Note_on_c, 2, 65, 44
3, 53447, Control_c, 2, 64, 127
3, 53447, Control_c, 2, 64, 127
3, 53450, Control_c, 2, 64, 127
3, 53520, Note_off_c, 2, 65, 64
3, 53532, Note_on_c, 2, 69, 49
3, 53585, Note_off_c, 2, 60, 64
3, 53637, Note_off_c, 2, 69, 64
3, 53657, Note_on_c, 2, 65, 43
3, 53697, Note_off_c, 2, 65, 64
3, 53772, Control_c, 2, 64, 0
3, 53772, Control_c, 2, 64, 0
3, 53772, Control_c, 2, 64, 0
3, 53772, Note_on_c, 2, 60, 45
3, 53890, Note_on_c, 2, 63, 34
3, 53942, Control_c, 2, 64, 127
3, 53942, Control_c, 2, 64, 127
3, 53942, Control_c, 2, 64, 127
3, 54005, Note_on_c, 2, 66, 43
3, 54027, Note_off_c, 2, 63, 64
3, 54070, Note_off_c, 2, 60, 64
3, 54115, Note_off_c, 2, 66, 64
3, 54125, Note_on_c, 2, 63, 47
3, 54217, Note_off_c, 2, 63, 64
3, 54267, Note_on_c, 2, 60, 34
3, 54267, Control_c, 2, 64, 0
3, 54267, Control_c, 2, 64, 0
3, 54267, Control_c, 2, 64, 0
3, 54352, Note_on_c, 2, 63, 34
3, 54445, Control_c, 2, 64, 127
3, 54445, Control_c, 2, 64, 127
3, 54445, Control_c, 2, 64, 127
3, 54482, Note_on_c, 2, 69, 39
3, 54490, Note_off_c, 2, 63, 64
3, 54547, Note_off_c, 2, 60, 64
3, 54585, Note_off_c, 2, 69, 64
3, 54590, Note_on_c, 2, 63, 52
3, 54660, Note_off_c, 2, 63, 64
3, 54725, Note_on_c, 2, 58, 41
3, 54732, Control_c, 2, 64, 0
3, 54732, Control_c, 2, 64, 0
3, 54732, Control_c, 2, 64, 0
3, 54837, Note_on_c, 2, 62, 42
3, 54915, Control_c, 2, 64, 127
3, 54915, Control_c, 2, 64, 127
3, 54915, Control_c, 2, 64, 127
3, 54962, Note_off_c, 2, 62, 64
3, 54970, Note_on_c, 2, 67, 32
3, 55005, Note_off_c, 2, 58, 64
3, 55075, Note_off_c, 2, 67, 64
3, 55085, Note_on_c, 2, 62, 37
3, 55162, Note_off_c, 2, 62, 64
3, 55202, Note_on_c, 2, 58, 37
3, 55237, Control_c, 2, 64, 0
3, 55237, Control_c, 2, 64, 0
3, 55237, Control_c, 2, 64, 0
3, 55310, Note_on_c, 2, 62, 53
3, 55435, Note_on_c, 2, 67, 53
3, 55435, Control_c, 2, 64, 127
3, 55435, Control_c, 2, 64, 127
3, 55435, Control_c, 2, 64, 127
3, 55445, Note_off_c, 2, 62, 64
3, 55487, Note_off_c, 2, 58, 64
3, 55540, Note_off_c, 2, 67, 64
3, 55540, Note_on_c, 2, 62, 53
3, 55642, Note_off_c, 2, 62, 64
3, 55675, Note_on_c, 2, 60, 42
3, 55677, Control_c, 2, 64, 0
3, 55677, Control_c, 2, 64, 0
3, 55677, Control_c, 2, 64, 0
3, 55785, Note_on_c, 2, 65, 46
3, 55900, Note_on_c, 2, 69, 55
3, 55907, Note_off_c, 2, 65, 64
3, 55942, Control_c, 2, 64, 127
3, 55942, Control_c, 2, 64, 127
3, 55942, Control_c, 2, 64, 127
3, 55992, Note_off_c, 2, 60, 64
3, 56015, Note_on_c, 2, 65, 66
3, 56025, Note_off_c, 2, 69, 64
3, 56067, Note_off_c, 2, 65, 64
3, 56140, Note_on_c, 2, 60, 43
3, 56147, Control_c, 2, 64, 0
3, 56147, Control_c, 2, 64, 0
3, 56147, Control_c, 2, 64, 0
3, 56255, Note_on_c, 2, 67, 47
3, 56337, Note_off_c, 2, 60, 64
3, 56370, Note_on_c, 2, 70, 51
3, 56380, Note_off_c, 2, 67, 64
3, 56472, Note_on_c, 2, 67, 65
3, 56477, Note_off_c, 2, 70, 64
3, 56515, Note_off_c, 2, 67, 64
3, 56625, Note_on_c, 2, 53, 86
3, 56627, Note_on_c, 2, 65, 99
3, 56710, Note_off_c, 2, 65, 64
3, 56752, Note_off_c, 2, 53, 64
3, 57132, Note_on_c, 2, 60, 97
3, 57132, Note_on_c, 2, 48, 119
3, 57257, Note_off_c, 2, 60, 64
3, 57262, Note_off_c, 2, 48, 64
3, 57600, Note_on_c, 2, 57, 90
3, 57602, Note_on_c, 2, 45, 97
3, 57695, Note_off_c, 2, 45, 64
3, 57697, Note_off_c, 2, 57, 64
3, 58087, Note_on_c, 2, 53, 92
3, 58092, Note_on_c, 2, 41, 90
3, 58137, Control_c, 2, 64, 127
3, 58137, Control_c, 2, 64, 127
3, 58137, Control_c, 2, 64, 127
3, 58170, Note_off_c, 2, 41, 64
3, 58170, Note_off_c, 2, 53, 64
3, 58315, Control_c, 2, 64, 0
3, 58317, Control_c, 2, 64, 0
3, 58317, Control_c, 2, 64, 0
3, 58575, Note_on_c, 2, 60, 46
3, 58640, Control_c, 2, 64, 127
3, 58640, Control_c, 2, 64, 127
3, 58640, Control_c, 2, 64, 127
3, 58695, Note_on_c, 2, 67, 37
3, 58810, Note_off_c, 2, 67, 64
3, 58812, Note_on_c, 2, 70, 39
3, 58827, Note_off_c, 2, 60, 64
3, 58915, Note_off_c, 2, 70, 64
3, 58915, Note_on_c, 2, 67, 47
3, 58997, Note_off_c, 2, 67, 64
3, 59040, Note_on_c, 2, 60, 40
3, 59077, Control_c, 2, 64, 0
3, 59080, Control_c, 2, 64, 0
3, 59080, Control_c, 2, 64, 0
3, 59165, Note_on_c, 2, 67, 30
3, 59252, Control_c, 2, 64, 127
3, 59252, Control_c, 2, 64, 127
3, 59252, Control_c, 2, 64, 127
3, 59270, Note_off_c, 2, 67, 64
3, 59287, Note_on_c, 2, 70, 31
3, 59337, Note_off_c, 2, 60, 64
3, 59387, Note_off_c, 2, 70, 64
3, 59387, Note_on_c, 2, 67, 44
3, 59490, Note_off_c, 2, 67, 64
3, 59502, Note_on_c, 2, 60, 44
3, 59517, Control_c, 2, 64, 0
3, 59517, Control_c, 2, 64, 0
3, 59517, Control_c, 2, 64, 0
3, 59620, Note_on_c, 2, 67, 47
3, 59662, Control_c, 2, 64, 127
3, 59667, Control_c, 2, 64, 127
3, 59667, Control_c, 2, 64, 127
3, 59745, Note_off_c, 2, 67, 64
3, 59755, Note_on_c, 2, 70, 37
3, 59790, Note_off_c, 2, 60, 64
3, 59855, Note_on_c, 2, 67, 49
3, 59880, Note_off_c, 2, 70, 64
3, 59927, Note_off_c, 2, 67, 64
3, 59985, Note_on_c, 2, 60, 37
3, 59990, Control_c, 2, 64, 0
3, 59990, Control_c, 2, 64, 0
3, 59990, Control_c, 2, 64, 0
3, 60095, Note_on_c, 2, 67, 33
3, 60222, Note_off_c, 2, 67, 64
3, 60222, Note_on_c, 2, 70, 43
3, 60310, Control_c, 2, 64, 127
3, 60310, Control_c, 2, 64, 127
3, 60310, Control_c, 2, 64, 127
3, 60345, Note_on_c, 2, 67, 53
3, 60360, Note_off_c, 2, 60, 64
3, 60360, Note_off_c, 2, 70, 64
3, 60392, Note_off_c, 2, 67, 64
3, 60472, Note_on_c, 2, 60, 43
3, 60487, Control_c, 2, 64, 0
3, 60487, Control_c, 2, 64, 0
3, 60487, Control_c, 2, 64, 0
3, 60587, Note_on_c, 2, 65, 49
3, 60715, Note_on_c, 2, 69, 48
3, 60717, Note_off_c, 2, 65, 64
3, 60832, Note_on_c, 2, 65, 42
3, 60837, Note_off_c, 2, 69, 64
3, 60837, Control_c, 2, 64, 127
3, 60837, Control_c, 2, 64, 127
3, 60837, Control_c, 2, 64, 127
3, 60870, Note_off_c, 2, 60, 64
3, 60910, Note_off_c, 2, 65, 64
3, 60955, Control_c, 2, 64, 0
3, 60955, Control_c, 2, 64, 0
3, 60957, Control_c, 2, 64, 0
3, 60957, Note_on_c, 2, 60, 50
3, 61097, Note_on_c, 2, 65, 46
3, 61160, Control_c, 2, 64, 127
3, 61160, Control_c, 2, 64, 127
3, 61160, Control_c, 2, 64, 127
3, 61210, Note_off_c, 2, 65, 64
3, 61210, Note_on_c, 2, 69, 52
3, 61272, Note_off_c, 2, 60, 64
3, 61302, Note_off_c, 2, 69, 64
3, 61307, Note_on_c, 2, 65, 55
3, 61355, Note_off_c, 2, 65, 64
3, 61425, Note_on_c, 2, 60, 46
3, 61425, Control_c, 2, 64, 0
3, 61427, Control_c, 2, 64, 0
3, 61427, Control_c, 2, 64, 0
3, 61537, Note_on_c, 2, 63, 46
3, 61662, Note_on_c, 2, 66, 59
3, 61685, Note_off_c, 2, 63, 64
3, 61717, Control_c, 2, 64, 127
3, 61717, Control_c, 2, 64, 127
3, 61717, Control_c, 2, 64, 127
3, 61780, Note_on_c, 2, 63, 53
3, 61817, Note_off_c, 2, 60, 64
3, 61827, Note_off_c, 2, 66, 64
3, 61865, Note_off_c, 2, 63, 64
3, 61890, Control_c, 2, 64, 0
3, 61890, Control_c, 2, 64, 0
3, 61890, Control_c, 2, 64, 0
3, 61920, Note_on_c, 2, 60, 39
3, 62040, Note_on_c, 2, 63, 43
3, 62165, Note_on_c, 2, 69, 53
3, 62197, Note_off_c, 2, 63, 64
3, 62217, Control_c, 2, 64, 127
3, 62217, Control_c, 2, 64, 127
3, 62217, Control_c, 2, 64, 127
3, 62240, Note_off_c, 2, 60, 64
3, 62277, Note_on_c, 2, 63, 42
3, 62287, Note_off_c, 2, 69, 64
3, 62345, Note_off_c, 2, 63, 64
3, 62417, Control_c, 2, 64, 0
3, 62417, Control_c, 2, 64, 0
3, 62417, Control_c, 2, 64, 0
3, 62437, Note_on_c, 2, 58, 25
3, 62535, Note_on_c, 2, 62, 37
3, 62657, Note_off_c, 2, 62, 64
3, 62657, Control_c, 2, 64, 127
3, 62657, Control_c, 2, 64, 127
3, 62657, Control_c, 2, 64, 127
3, 62657, Note_on_c, 2, 67, 45
3, 62722, Note_off_c, 2, 58, 64
3, 62745, Note_off_c, 2, 67, 64
3, 62765, Note_on_c, 2, 62, 50
3, 62880, Note_off_c, 2, 62, 64
3, 62882, Note_on_c, 2, 58, 39
3, 62892, Control_c, 2, 64, 0
3, 62892, Control_c, 2, 64, 0
3, 62892, Control_c, 2, 64, 0
3, 62985, Note_on_c, 2, 62, 55
3, 63115, Note_on_c, 2, 67, 56
3, 63125, Note_off_c, 2, 62, 64
3, 63185, Control_c, 2, 64, 127
3, 63185, Control_c, 2, 64, 127
3, 63185, Control_c, 2, 64, 127
3, 63195, Note_off_c, 2, 58, 64
3, 63207, Note_off_c, 2, 67, 64
3, 63220, Note_on_c, 2, 62, 48
3, 63292, Note_off_c, 2, 62, 64
3, 63325, Control_c, 2, 64, 0
3, 63325, Control_c, 2, 64, 0
3, 63325, Control_c, 2, 64, 0
3, 63345, Note_on_c, 2, 60, 51
3, 63462, Note_on_c, 2, 65, 57
3, 63535, Control_c, 2, 64, 127
3, 63535, Control_c, 2, 64, 127
3, 63535, Control_c, 2, 64, 127
3, 63575, Note_on_c, 2, 69, 54
3, 63577, Note_off_c, 2, 65, 64
3, 63662, Note_off_c, 2, 60, 64
3, 63692, Note_off_c, 2, 69, 64
3, 63700, Note_on_c, 2, 65, 52
3, 63745, Note_off_c, 2, 65, 64
3, 63810, Note_on_c, 2, 60, 41
3, 63830, Control_c, 2, 64, 0
3, 63830, Control_c, 2, 64, 0
3, 63830, Control_c, 2, 64, 0
3, 63912, Note_on_c, 2, 64, 57
3, 64030, Note_on_c, 2, 70, 53
3, 64057, Note_off_c, 2, 64, 64
3, 64062, Control_c, 2, 64, 127
3, 64062, Control_c, 2, 64, 127
3, 64062, Control_c, 2, 64, 127
3, 64087, Note_off_c, 2, 60, 64
3, 64152, Note_on_c, 2, 64, 58
3, 64155, Note_off_c, 2, 70, 64
3, 64212, Note_off_c, 2, 64, 64
3, 64277, Note_on_c, 2, 69, 69
3, 64280, Note_on_c, 2, 65, 64
3, 64300, Control_c, 2, 64, 0
3, 64300, Control_c, 2, 64, 0
3, 64300, Control_c, 2, 64, 0
3, 64505, Note_off_c, 2, 65, 64
3, 64510, Note_off_c, 2, 69, 64
3, 65510, Note_on_c, 2, 53, 83
3, 65510, Note_on_c, 2, 41, 102
3, 65610, Note_off_c, 2, 53, 64
3, 65617, Note_off_c, 2, 41, 64
3, 65747, Note_on_c, 2, 57, 75
3, 65757, Note_on_c, 2, 45, 67
3, 65840, Note_off_c, 2, 45, 64
3, 65847, Note_off_c, 2, 57, 64
3, 65987, Note_on_c, 2, 53, 67
3, 65987, Note_on_c, 2, 41, 70
3, 66090, Note_off_c, 2, 41, 64
3, 66097, Note_off_c, 2, 53, 64
3, 66230, Note_on_c, 2, 58, 86
3, 66230, Note_on_c, 2, 46, 64
3, 66397, Note_off_c, 2, 46, 64
3, 66410, Note_off_c, 2, 58, 64
3, 66720, Note_on_c, 2, 55, 69
3, 66860, Note_off_c, 2, 55, 64
3, 67200, Note_on_c, 2, 60, 67
3, 67345, Note_off_c, 2, 60, 64
3, 67665, Note_on_c, 2, 48, 58
3, 67890, Note_off_c, 2, 48, 64
3, 68125, Note_on_c, 2, 57, 66
3, 68125, Note_on_c, 2, 53, 68
3, 68358, Note_off_c, 2, 53, 64
3, 68380, Note_off_c, 2, 57, 64
3, 69372, Note_on_c, 2, 41, 74
3, 69372, Note_on_c, 2, 53, 61
3, 69502, Note_off_c, 2, 41, 64
3, 69512, Note_off_c, 2, 53, 64
3, 69625, Note_on_c, 2, 45, 69
3, 69625, Note_on_c, 2, 57, 64
3, 69720, Note_off_c, 2, 45, 64
3, 69750, Note_off_c, 2, 57, 64
3, 69855, Note_on_c, 2, 41, 64
3, 69855, Note_on_c, 2, 53, 67
3, 69992, Note_off_c, 2, 41, 64
3, 70045, Note_off_c, 2, 53, 64
3, 70089, Note_on_c, 2, 46, 75
3, 70089, Note_on_c, 2, 58, 77
3, 70219, Note_off_c, 2, 58, 64
3, 70229, Note_off_c, 2, 46, 64
3, 70560, Note_on_c, 2, 55, 54
3, 70693, Note_off_c, 2, 55, 64
3, 71040, Note_on_c, 2, 60, 64
3, 71190, Note_off_c, 2, 60, 64
3, 71520, Note_on_c, 2, 48, 64
3, 71710, Note_off_c, 2, 48, 64
3, 72000, Note_on_c, 2, 41, 73
3, 72098, Note_off_c, 2, 41, 64
3, 72117, Note_on_c, 2, 53, 66
3, 72182, Note_off_c, 2, 53, 64
3, 72230, Note_on_c, 2, 52, 79
3, 72285, Note_off_c, 2, 52, 64
3, 72345, Note_on_c, 2, 53, 83
3, 72402, Note_off_c, 2, 53, 64
3, 72467, Note_on_c, 2, 41, 79
3, 72550, Note_off_c, 2, 41, 64
3, 72590, Note_on_c, 2, 53, 66
3, 72640, Note_off_c, 2, 53, 64
3, 72720, Note_on_c, 2, 52, 81
3, 72772, Note_off_c, 2, 52, 64
3, 72835, Note_on_c, 2, 53, 79
3, 72882, Note_off_c, 2, 53, 64
3, 72960, Note_on_c, 2, 41, 94
3, 73030, Note_off_c, 2, 41, 64
3, 73075, Note_on_c, 2, 53, 69
3, 73127, Note_off_c, 2, 53, 64
3, 73195, Note_on_c, 2, 52, 90
3, 73242, Note_off_c, 2, 52, 64
3, 73325, Note_on_c, 2, 53, 81
3, 73372, Note_off_c, 2, 53, 64
3, 73452, Note_on_c, 2, 41, 94
3, 73525, Note_off_c, 2, 41, 64
3, 73577, Note_on_c, 2, 53, 83
3, 73625, Note_off_c, 2, 53, 64
3, 73702, Note_on_c, 2, 52, 92
3, 73755, Note_off_c, 2, 52, 64
3, 73810, Note_on_c, 2, 53, 94
3, 73862, Note_off_c, 2, 53, 64
3, 73927, Note_on_c, 2, 41, 102
3, 74020, Note_off_c, 2, 41, 64
3, 74045, Note_on_c, 2, 53, 90
3, 74097, Note_off_c, 2, 53, 64
3, 74165, Note_on_c, 2, 52, 102
3, 74230, Note_off_c, 2, 52, 64
3, 74285, Note_on_c, 2, 53, 105
3, 74337, Note_off_c, 2, 53, 64
3, 74412, Note_on_c, 2, 41, 108
3, 74525, Note_on_c, 2, 53, 88
3, 74542, Note_off_c, 2, 41, 64
3, 74582, Note_off_c, 2, 53, 64
3, 74640, Note_on_c, 2, 52, 83
3, 74710, Note_off_c, 2, 52, 64
3, 74755, Note_on_c, 2, 53, 83
3, 74812, Note_off_c, 2, 53, 64
3, 74875, Note_on_c, 2, 41, 97
3, 74965, Note_off_c, 2, 41, 64
3, 74990, Note_on_c, 2, 53, 75
3, 75055, Note_off_c, 2, 53, 64
3, 75120, Note_on_c, 2, 52, 70
3, 75180, Note_off_c, 2, 52, 64
3, 75242, Note_on_c, 2, 53, 67
3, 75312, Note_off_c, 2, 53, 64
3, 75377, Note_on_c, 2, 41, 99
3, 75482, Note_on_c, 2, 53, 94
3, 75512, Note_off_c, 2, 41, 64
3, 75547, Note_off_c, 2, 53, 64
3, 75617, Note_on_c, 2, 52, 99
3, 75677, Note_off_c, 2, 52, 64
3, 75727, Note_on_c, 2, 53, 97
3, 75780, Note_off_c, 2, 53, 64
3, 75840, Note_on_c, 2, 53, 108
3, 75840, Note_on_c, 2, 41, 108
3, 77225, Note_off_c, 2, 41, 64
3, 77225, Note_off_c, 2, 53, 64
3, 77760, Note_on_c, 2, 58, 46
3, 77760, Note_on_c, 2, 62, 46
3, 78710, Note_on_c, 2, 63, 54
3, 78710, Note_on_c, 2, 60, 61
3, 78743, Note_off_c, 2, 62, 64
3, 78752, Note_off_c, 2, 58, 64
3, 79680, Note_on_c, 2, 65, 63
3, 79680, Note_on_c, 2, 62, 49
3, 79700, Note_off_c, 2, 63, 64
3, 79710, Note_off_c, 2, 60, 64
3, 80677, Note_off_c, 2, 62, 64
3, 80700, Note_off_c, 2, 65, 64
3, 81600, Note_on_c, 2, 63, 115
3, 81600, Note_on_c, 2, 51, 94
3, 81853, Note_off_c, 2, 51, 64
3, 81860, Note_off_c, 2, 63, 64
3, 82080, Note_on_c, 2, 58, 108
3, 82080, Note_on_c, 2, 46, 119
3, 82275, Note_off_c, 2, 46, 64
3, 82302, Note_off_c, 2, 58, 64
3, 83510, Note_on_c, 2, 53, 83
3, 83515, Note_on_c, 2, 41, 83
3, 83750, Note_off_c, 2, 41, 64
3, 83760, Note_off_c, 2, 53, 64
3, 83997, Note_on_c, 2, 58, 86
3, 84007, Note_on_c, 2, 46, 83
3, 84220, Note_off_c, 2, 58, 64
3, 84227, Note_off_c, 2, 46, 64
3, 85430, Note_on_c, 2, 46, 54
3, 85430, Note_on_c, 2, 50, 54
3, 86380, Note_on_c, 2, 51, 68
3, 86392, Note_on_c, 2, 48, 61
3, 86437, Note_off_c, 2, 50, 64
3, 86442, Note_off_c, 2, 46, 64
3, 87372, Note_on_c, 2, 53, 57
3, 87372, Note_on_c, 2, 50, 47
3, 87402, Note_off_c, 2, 51, 64
3, 87417, Note_off_c, 2, 48, 64
3, 88535, Note_off_c, 2, 50, 64
3, 88555, Note_off_c, 2, 53, 64
3, 89095, Note_on_c, 2, 51, 79
3, 89170, Note_on_c, 2, 55, 97
3, 89265, Note_on_c, 2, 60, 102
3, 90230, Note_on_c, 2, 62, 99
3, 90230, Note_on_c, 2, 53, 77
3, 90257, Note_off_c, 2, 60, 64
3, 90257, Note_off_c, 2, 51, 64
3, 90287, Note_off_c, 2, 55, 64
3, 90705, Note_on_c, 2, 63, 97
3, 90737, Note_off_c, 2, 62, 64
3, 91115, Note_off_c, 2, 63, 64
3, 91185, Note_off_c, 2, 53, 64
3, 91195, Note_on_c, 2, 62, 69
3, 91200, Note_on_c, 2, 58, 73
3, 91275, Note_off_c, 2, 58, 64
3, 91280, Note_off_c, 2, 62, 64
3, 91437, Note_on_c, 2, 62, 69
3, 91437, Note_on_c, 2, 58, 62
3, 91485, Note_off_c, 2, 58, 64
3, 91492, Note_off_c, 2, 62, 64
3, 91680, Note_on_c, 2, 58, 43
3, 91680, Note_on_c, 2, 62, 60
3, 91727, Note_off_c, 2, 58, 64
3, 91742, Note_off_c, 2, 62, 64
3, 91915, Note_on_c, 2, 62, 61
3, 91920, Note_on_c, 2, 58, 45
3, 91967, Note_off_c, 2, 58, 64
3, 91980, Note_off_c, 2, 62, 64
3, 92152, Note_on_c, 2, 62, 57
3, 92152, Note_on_c, 2, 58, 46
3, 92217, Note_off_c, 2, 58, 64
3, 92227, Note_off_c, 2, 62, 64
3, 92397, Note_on_c, 2, 58, 37
3, 92397, Note_on_c, 2, 62, 55
3, 92447, Note_off_c, 2, 58, 64
3, 92460, Note_off_c, 2, 62, 64
3, 92635, Note_on_c, 2, 62, 61
3, 92637, Note_on_c, 2, 58, 45
3, 92692, Note_off_c, 2, 58, 64
3, 92705, Note_off_c, 2, 62, 64
3, 92892, Note_on_c, 2, 62, 55
3, 92900, Note_on_c, 2, 58, 45
3, 92945, Note_off_c, 2, 58, 64
3, 92962, Note_off_c, 2, 62, 64
3, 93137, Note_on_c, 2, 63, 86
3, 93137, Note_on_c, 2, 58, 67
3, 93205, Note_off_c, 2, 58, 64
3, 93225, Note_off_c, 2, 63, 64
3, 93377, Note_on_c, 2, 63, 45
3, 93392, Note_on_c, 2, 58, 45
3, 93450, Note_off_c, 2, 58, 64
3, 93450, Note_off_c, 2, 63, 64
3, 93602, Note_on_c, 2, 63, 61
3, 93610, Note_on_c, 2, 58, 52
3, 93665, Note_off_c, 2, 58, 64
3, 93677, Note_off_c, 2, 63, 64
3, 93842, Note_on_c, 2, 63, 66
3, 93842, Note_on_c, 2, 58, 50
3, 93902, Note_off_c, 2, 58, 64
3, 93912, Note_off_c, 2, 63, 64
3, 94077, Note_on_c, 2, 63, 77
3, 94077, Note_on_c, 2, 58, 57
3, 94132, Note_off_c, 2, 58, 64
3, 94142, Note_off_c, 2, 63, 64
3, 94320, Note_on_c, 2, 63, 75
3, 94322, Note_on_c, 2, 58, 48
3, 94390, Note_off_c, 2, 63, 64
3, 94395, Note_off_c, 2, 58, 64
3, 94567, Note_on_c, 2, 63, 66
3, 94572, Note_on_c, 2, 58, 53
3, 94635, Note_off_c, 2, 58, 64
3, 94645, Note_off_c, 2, 63, 64
3, 94805, Note_on_c, 2, 63, 59
3, 94807, Note_on_c, 2, 58, 51
3, 94870, Note_off_c, 2, 58, 64
3, 94875, Note_off_c, 2, 63, 64
3, 95040, Note_on_c, 2, 62, 70
3, 95040, Note_on_c, 2, 58, 53
3, 95112, Note_off_c, 2, 62, 64
3, 95115, Note_off_c, 2, 58, 64
3, 95280, Note_on_c, 2, 58, 31
3, 95282, Note_on_c, 2, 62, 44
3, 95345, Note_off_c, 2, 62, 64
3, 95350, Note_off_c, 2, 58, 64
3, 95515, Note_on_c, 2, 58, 36
3, 95520, Note_on_c, 2, 62, 49
3, 95587, Note_off_c, 2, 62, 64
3, 95590, Note_off_c, 2, 58, 64
3, 95760, Note_on_c, 2, 58, 32
3, 95765, Note_on_c, 2, 62, 50
3, 95820, Note_off_c, 2, 62, 64
3, 95840, Note_off_c, 2, 58, 64
3, 95995, Note_on_c, 2, 58, 34
3, 95997, Note_on_c, 2, 62, 51
3, 96077, Note_off_c, 2, 62, 64
3, 96080, Note_off_c, 2, 58, 64
3, 96235, Note_on_c, 2, 58, 38
3, 96237, Note_on_c, 2, 62, 50
3, 96300, Note_off_c, 2, 58, 64
3, 96310, Note_off_c, 2, 62, 64
3, 96500, Note_on_c, 2, 62, 53
3, 96502, Note_on_c, 2, 58, 35
3, 96575, Note_off_c, 2, 58, 64
3, 96575, Note_off_c, 2, 62, 64
3, 96740, Note_on_c, 2, 62, 55
3, 96742, Note_on_c, 2, 58, 33
3, 96805, Note_off_c, 2, 62, 64
3, 96812, Note_off_c, 2, 58, 64
3, 96970, Note_on_c, 2, 58, 63
3, 96970, Note_on_c, 2, 63, 77
3, 97075, Note_off_c, 2, 63, 64
3, 97075, Note_off_c, 2, 58, 64
3, 97227, Note_on_c, 2, 58, 36
3, 97227, Note_on_c, 2, 63, 42
3, 97290, Note_off_c, 2, 58, 64
3, 97300, Note_off_c, 2, 63, 64
3, 97447, Note_on_c, 2, 63, 45
3, 97455, Note_on_c, 2, 58, 36
3, 97530, Note_off_c, 2, 58, 64
3, 97530, Note_off_c, 2, 63, 64
3, 97675, Note_on_c, 2, 58, 37
3, 97675, Note_on_c, 2, 63, 45
3, 97755, Note_off_c, 2, 63, 64
3, 97755, Note_off_c, 2, 58, 64
3, 97915, Note_on_c, 2, 58, 37
3, 97915, Note_on_c, 2, 63, 43
3, 97990, Note_off_c, 2, 63, 64
3, 97995, Note_off_c, 2, 58, 64
3, 98145, Note_on_c, 2, 63, 42
3, 98147, Note_on_c, 2, 58, 41
3, 98220, Note_off_c, 2, 58, 64
3, 98225, Note_off_c, 2, 63, 64
3, 98382, Note_on_c, 2, 58, 39
3, 98382, Note_on_c, 2, 63, 46
3, 98470, Note_off_c, 2, 63, 64
3, 98477, Note_off_c, 2, 58, 64
3, 98627, Note_on_c, 2, 58, 30
3, 98632, Note_on_c, 2, 63, 39
3, 98700, Note_off_c, 2, 63, 64
3, 98707, Note_off_c, 2, 58, 64
3, 98875, Note_on_c, 2, 58, 56
3, 98875, Note_on_c, 2, 62, 74
3, 99002, Note_off_c, 2, 62, 64
3, 99002, Note_off_c, 2, 58, 64
3, 99120, Note_on_c, 2, 58, 51
3, 99237, Note_off_c, 2, 58, 64
3, 99345, Note_on_c, 2, 62, 75
3, 99422, Note_off_c, 2, 62, 64
3, 99580, Note_on_c, 2, 65, 77
3, 99680, Note_off_c, 2, 65, 64
3, 99847, Note_on_c, 2, 58, 66
3, 100180, Note_off_c, 2, 58, 64
3, 101027, Note_on_c, 2, 53, 68
3, 101162, Note_off_c, 2, 53, 64
3, 101267, Note_on_c, 2, 57, 69
3, 101400, Note_off_c, 2, 57, 64
3, 101517, Note_on_c, 2, 60, 69
3, 101657, Note_off_c, 2, 60, 64
3, 101757, Note_on_c, 2, 53, 65
3, 101947, Note_off_c, 2, 53, 64
3, 102947, Note_on_c, 2, 46, 84
3, 102947, Note_on_c, 2, 34, 94
3, 103065, Note_off_c, 2, 34, 64
3, 103087, Note_off_c, 2, 46, 64
3, 103185, Note_on_c, 2, 50, 83
3, 103190, Note_on_c, 2, 38, 81
3, 103255, Note_off_c, 2, 50, 64
3, 103280, Note_off_c, 2, 38, 64
3, 103415, Note_on_c, 2, 53, 79
3, 103415, Note_on_c, 2, 41, 86
3, 103502, Note_off_c, 2, 53, 64
3, 103515, Note_off_c, 2, 41, 64
3, 103670, Note_on_c, 2, 38, 92
3, 103675, Note_on_c, 2, 50, 84
3, 103932, Note_off_c, 2, 50, 64
3, 103932, Note_off_c, 2, 38, 64
3, 104387, Note_on_c, 2, 65, 70
3, 104387, Note_on_c, 2, 62, 66
3, 104637, Note_on_c, 2, 63, 66
3, 104637, Note_on_c, 2, 67, 75
3, 104660, Note_off_c, 2, 62, 64
3, 104672, Note_off_c, 2, 65, 64
3, 105600, Note_off_c, 2, 63, 64
3, 105607, Note_off_c, 2, 67, 64
3, 106320, Note_on_c, 2, 64, 72
3, 106320, Note_on_c, 2, 67, 68
3, 106575, Note_on_c, 2, 65, 61
3, 106597, Note_off_c, 2, 64, 64
3, 106607, Note_off_c, 2, 67, 64
3, 106947, Note_off_c, 2, 65, 64
3, 107537, Note_on_c, 2, 45, 79
3, 107600, Note_off_c, 2, 45, 64
3, 107650, Note_on_c, 2, 46, 94
3, 107695, Note_off_c, 2, 46, 64
3, 107767, Note_on_c, 2, 48, 70
3, 107825, Note_off_c, 2, 48, 64
3, 107885, Note_on_c, 2, 50, 77
3, 107942, Note_off_c, 2, 50, 64
3, 108010, Note_on_c, 2, 52, 57
3, 108115, Note_on_c, 2, 53, 61
3, 108137, Note_off_c, 2, 52, 64
3, 108242, Note_off_c, 2, 53, 64
3, 108242, Note_on_c, 2, 52, 54
3, 108337, Note_on_c, 2, 53, 59
3, 108357, Note_off_c, 2, 52, 64
3, 108490, Note_on_c, 2, 41, 54
3, 108492, Note_off_c, 2, 53, 64
3, 108920, Note_off_c, 2, 41, 64
3, 110397, Note_on_c, 2, 65, 45
3, 110635, Note_on_c, 2, 72, 49
3, 110687, Note_off_c, 2, 65, 64
3, 110892, Note_on_c, 2, 69, 37
3, 110927, Note_off_c, 2, 72, 64
3, 111120, Note_on_c, 2, 72, 54
3, 111142, Note_off_c, 2, 69, 64
3, 111377, Note_on_c, 2, 67, 42
3, 111392, Note_off_c, 2, 72, 64
3, 111595, Note_on_c, 2, 72, 46
3, 111627, Note_off_c, 2, 67, 64
3, 111842, Note_on_c, 2, 70, 42
3, 111870, Note_off_c, 2, 72, 64
3, 112060, Note_on_c, 2, 72, 58
3, 112085, Note_off_c, 2, 70, 64
3, 112320, Note_on_c, 2, 69, 43
3, 112352, Note_off_c, 2, 72, 64
3, 112552, Note_off_c, 2, 69, 64
3, 112552, Note_on_c, 2, 65, 31
3, 112780, Note_on_c, 2, 72, 47
3, 112822, Note_off_c, 2, 65, 64
3, 113012, Note_off_c, 2, 72, 64
3, 114247, Note_on_c, 2, 65, 37
3, 114480, Note_on_c, 2, 72, 36
3, 114540, Note_off_c, 2, 65, 64
3, 114732, Note_on_c, 2, 69, 40
3, 114760, Note_off_c, 2, 72, 64
3, 114962, Note_on_c, 2, 72, 52
3, 114977, Note_off_c, 2, 69, 64
3, 115210, Note_on_c, 2, 64, 38
3, 115237, Note_off_c, 2, 72, 64
3, 115467, Note_on_c, 2, 72, 37
3, 115482, Note_off_c, 2, 64, 64
3, 115695, Note_on_c, 2, 67, 44
3, 115727, Note_off_c, 2, 72, 64
3, 115942, Note_on_c, 2, 72, 39
3, 115952, Note_off_c, 2, 67, 64
3, 116182, Note_on_c, 2, 65, 34
3, 116190, Note_off_c, 2, 72, 64
3, 116412, Note_on_c, 2, 69, 45
3, 116442, Note_off_c, 2, 65, 64
3, 116652, Note_on_c, 2, 72, 44
3, 116677, Note_off_c, 2, 69, 64
3, 116877, Note_off_c, 2, 72, 64
3, 118070, Note_on_c, 2, 58, 105
3, 118070, Note_on_c, 2, 46, 108
3, 119057, Note_off_c, 2, 46, 64
3, 119130, Note_off_c, 2, 58, 64
3, 119985, Note_on_c, 2, 67, 108
3, 120100, Note_on_c, 2, 69, 77
3, 120125, Note_off_c, 2, 67, 64
3, 120220, Note_on_c, 2, 70, 86
3, 120242, Note_off_c, 2, 69, 64
3, 120335, Note_on_c, 2, 69, 81
3, 120397, Note_off_c, 2, 70, 64
3, 120455, Note_on_c, 2, 67, 105
3, 120487, Note_off_c, 2, 69, 64
3, 120570, Note_on_c, 2, 69, 74
3, 120590, Note_off_c, 2, 67, 64
3, 120682, Note_on_c, 2, 65, 68
3, 120705, Note_off_c, 2, 69, 64
3, 120790, Note_on_c, 2, 67, 70
3, 120810, Note_off_c, 2, 65, 64
3, 120922, Note_on_c, 2, 64, 86
3, 120930, Note_off_c, 2, 67, 64
3, 121042, Note_on_c, 2, 65, 60
3, 121060, Note_off_c, 2, 64, 64
3, 121165, Note_on_c, 2, 62, 73
3, 121187, Note_off_c, 2, 65, 64
3, 121292, Note_on_c, 2, 64, 51
3, 121302, Note_off_c, 2, 62, 64
3, 121425, Note_on_c, 2, 60, 78
3, 121427, Note_off_c, 2, 64, 64
3, 121530, Note_on_c, 2, 62, 57
3, 121540, Note_off_c, 2, 60, 64
3, 121662, Note_on_c, 2, 58, 75
3, 121675, Note_off_c, 2, 62, 64
3, 121775, Note_on_c, 2, 60, 56
3, 121792, Note_off_c, 2, 58, 64
3, 121890, Note_off_c, 2, 60, 64
3, 121910, Note_on_c, 2, 57, 97
3, 121917, Note_on_c, 2, 45, 108
3, 123027, Note_off_c, 2, 45, 64
3, 123032, Note_off_c, 2, 57, 64
3, 123847, Note_on_c, 2, 65, 94
3, 123967, Note_on_c, 2, 67, 74
3, 124007, Note_off_c, 2, 65, 64
3, 124092, Note_on_c, 2, 69, 94
3, 124117, Note_off_c, 2, 67, 64
3, 124197, Note_on_c, 2, 67, 56
3, 124247, Note_off_c, 2, 69, 64
3, 124330, Note_on_c, 2, 65, 90
3, 124365, Note_off_c, 2, 67, 64
3, 124440, Note_on_c, 2, 67, 83
3, 124480, Note_off_c, 2, 65, 64
3, 124557, Note_on_c, 2, 64, 83
3, 124660, Note_on_c, 2, 65, 88
3, 124672, Note_off_c, 2, 67, 64
3, 124682, Note_off_c, 2, 64, 64
3, 124787, Note_on_c, 2, 62, 83
3, 124810, Note_off_c, 2, 65, 64
3, 124915, Note_on_c, 2, 64, 64
3, 124932, Note_off_c, 2, 62, 64
3, 125040, Note_on_c, 2, 60, 69
3, 125050, Note_off_c, 2, 64, 64
3, 125145, Note_off_c, 2, 60, 64
3, 125147, Note_on_c, 2, 62, 59
3, 125237, Note_off_c, 2, 62, 64
3, 125277, Note_on_c, 2, 58, 92
3, 125375, Note_on_c, 2, 60, 54
3, 125425, Note_off_c, 2, 58, 64
3, 125495, Note_on_c, 2, 57, 64
3, 125610, Note_off_c, 2, 60, 64
3, 125610, Note_on_c, 2, 58, 45
3, 125620, Note_off_c, 2, 57, 64
3, 125745, Note_off_c, 2, 58, 64
3, 125757, Note_on_c, 2, 55, 97
3, 125757, Note_on_c, 2, 43, 102
3, 126832, Note_off_c, 2, 43, 64
3, 126832, Note_off_c, 2, 55, 64
3, 127687, Note_on_c, 2, 60, 36
3, 127755, Control_c, 2, 64, 127
3, 127755, Control_c, 2, 64, 127
3, 127755, Control_c, 2, 64, 127
3, 127795, Note_on_c, 2, 64, 54
3, 127900, Note_off_c, 2, 64, 64
3, 127917, Note_off_c, 2, 60, 64
3, 127922, Note_on_c, 2, 67, 41
3, 127995, Note_off_c, 2, 67, 64
3, 128025, Note_on_c, 2, 64, 47
3, 128100, Note_off_c, 2, 64, 64
3, 128145, Note_on_c, 2, 60, 45
3, 128167, Control_c, 2, 64, 0
3, 128167, Control_c, 2, 64, 0
3, 128167, Control_c, 2, 64, 0
3, 128245, Note_on_c, 2, 64, 52
3, 128340, Control_c, 2, 64, 127
3, 128340, Control_c, 2, 64, 127
3, 128340, Control_c, 2, 64, 127
3, 128385, Note_off_c, 2, 64, 64
3, 128392, Note_on_c, 2, 67, 34
3, 128422, Note_off_c, 2, 60, 64
3, 128500, Note_on_c, 2, 64, 59
3, 128505, Note_off_c, 2, 67, 64
3, 128557, Note_off_c, 2, 64, 64
3, 128635, Note_on_c, 2, 60, 45
3, 128665, Control_c, 2, 64, 0
3, 128667, Control_c, 2, 64, 0
3, 128667, Control_c, 2, 64, 0
3, 128740, Note_on_c, 2, 67, 46
3, 128812, Control_c, 2, 64, 127
3, 128812, Control_c, 2, 64, 127
3, 128812, Control_c, 2, 64, 127
3, 128855, Note_off_c, 2, 67, 64
3, 128870, Note_on_c, 2, 70, 42
3, 128917, Note_off_c, 2, 60, 64
3, 128987, Note_off_c, 2, 70, 64
3, 128987, Note_on_c, 2, 67, 43
3, 129050, Note_off_c, 2, 67, 64
3, 129105, Control_c, 2, 64, 0
3, 129105, Control_c, 2, 64, 0
3, 129105, Control_c, 2, 64, 0
3, 129107, Note_on_c, 2, 60, 41
3, 129225, Note_on_c, 2, 67, 45
3, 129340, Control_c, 2, 64, 127
3, 129340, Control_c, 2, 64, 127
3, 129340, Control_c, 2, 64, 127
3, 129345, Note_off_c, 2, 67, 64
3, 129345, Note_on_c, 2, 70, 44
3, 129397, Note_off_c, 2, 60, 64
3, 129475, Note_on_c, 2, 67, 44
3, 129485, Note_off_c, 2, 70, 64
3, 129517, Note_off_c, 2, 67, 64
3, 129602, Note_on_c, 2, 60, 38
3, 129602, Control_c, 2, 64, 0
3, 129602, Control_c, 2, 64, 0
3, 129602, Control_c, 2, 64, 0
3, 129722, Note_on_c, 2, 65, 42
3, 129822, Note_off_c, 2, 65, 64
3, 129835, Control_c, 2, 64, 127
3, 129835, Control_c, 2, 64, 127
3, 129835, Control_c, 2, 64, 127
3, 129850, Note_on_c, 2, 69, 39
3, 129910, Note_off_c, 2, 60, 64
3, 129957, Note_off_c, 2, 69, 64
3, 129957, Note_on_c, 2, 65, 57
3, 130032, Note_off_c, 2, 65, 64
3, 130075, Control_c, 2, 64, 0
3, 130075, Control_c, 2, 64, 0
3, 130075, Control_c, 2, 64, 0
3, 130090, Note_on_c, 2, 60, 43
3, 130197, Note_on_c, 2, 65, 44
3, 130247, Control_c, 2, 64, 127
3, 130247, Control_c, 2, 64, 127
3, 130250, Control_c, 2, 64, 127
3, 130320, Note_off_c, 2, 65, 64
3, 130332, Note_on_c, 2, 69, 49
3, 130385, Note_off_c, 2, 60, 64
3, 130437, Note_off_c, 2, 69, 64
3, 130457, Note_on_c, 2, 65, 43
3, 130497, Note_off_c, 2, 65, 64
3, 130572, Control_c, 2, 64, 0
3, 130572, Control_c, 2, 64, 0
3, 130572, Control_c, 2, 64, 0
3, 130572, Note_on_c, 2, 60, 45
3, 130690, Note_on_c, 2, 63, 34
3, 130742, Control_c, 2, 64, 127
3, 130742, Control_c, 2, 64, 127
3, 130742, Control_c, 2, 64, 127
3, 130805, Note_on_c, 2, 66, 43
3, 130827, Note_off_c, 2, 63, 64
3, 130870, Note_off_c, 2, 60, 64
3, 130915, Note_off_c, 2, 66, 64
3, 130925, Note_on_c, 2, 63, 47
3, 131017, Note_off_c, 2, 63, 64
3, 131067, Note_on_c, 2, 60, 34
3, 131067, Control_c, 2, 64, 0
3, 131067, Control_c, 2, 64, 0
3, 131067, Control_c, 2, 64, 0
3, 131152, Note_on_c, 2, 63, 34
3, 131245, Control_c, 2, 64, 127
3, 131245, Control_c, 2, 64, 127
3, 131245, Control_c, 2, 64, 127
3, 131282, Note_on_c, 2, 69, 39
3, 131290, Note_off_c, 2, 63, 64
3, 131347, Note_off_c, 2, 60, 64
3, 131385, Note_off_c, 2, 69, 64
3, 131390, Note_on_c, 2, 63, 52
3, 131460, Note_off_c, 2, 63, 64
3, 131525, Note_on_c, 2, 58, 41
3, 131532, Control_c, 2, 64, 0
3, 131532, Control_c, 2, 64, 0
3, 131532, Control_c, 2, 64, 0
3, 131637, Note_on_c, 2, 62, 42
3, 131715, Control_c, 2, 64, 127
3, 131715, Control_c, 2, 64, 127
3, 131715, Control_c, 2, 64, 127
3, 131762, Note_off_c, 2, 62, 64
3, 131770, Note_on_c, 2, 67, 32
3, 131805, Note_off_c, 2, 58, 64
3, 131875, Note_off_c, 2, 67, 64
3, 131885, Note_on_c, 2, 62, 37
3, 131962, Note_off_c, 2, 62, 64
3, 132002, Note_on_c, 2, 58, 37
3, 132037, Control_c, 2, 64, 0
3, 132037, Control_c, 2, 64, 0
3, 132037, Control_c, 2, 64, 0
3, 132110, Note_on_c, 2, 62, 53
3, 132235, Note_on_c, 2, 67, 53
3, 132235, Control_c, 2, 64, 127
3, 132235, Control_c, 2, 64, 127
3, 132235, Control_c, 2, 64, 127
3, 132245, Note_off_c, 2, 62, 64
3, 132287, Note_off_c, 2, 58, 64
3, 132340, Note_off_c, 2, 67, 64
3, 132340, Note_on_c, 2, 62, 53
3, 132442, Note_off_c, 2, 62, 64
3, 132475, Note_on_c, 2, 60, 42
3, 132477, Control_c, 2, 64, 0
3, 132477, Control_c, 2, 64, 0
3, 132477, Control_c, 2, 64, 0
3, 132585, Note_on_c, 2, 65, 46
3, 132700, Note_on_c, 2, 69, 55
3, 132707, Note_off_c, 2, 65, 64
3, 132742, Control_c, 2, 64, 127
3, 132742, Control_c, 2, 64, 127
3, 132742, Control_c, 2, 64, 127
3, 132792, Note_off_c, 2, 60, 64
3, 132815, Note_on_c, 2, 65, 66
3, 132825, Note_off_c, 2, 69, 64
3, 132867, Note_off_c, 2, 65, 64
3, 132940, Note_on_c, 2, 60, 43
3, 132947, Control_c, 2, 64, 0
3, 132947, Control_c, 2, 64, 0
3, 132947, Control_c, 2, 64, 0
3, 133055, Note_on_c, 2, 67, 47
3, 133137, Note_off_c, 2, 60, 64
3, 133170, Note_on_c, 2, 70, 51
3, 133180, Note_off_c, 2, 67, 64
3, 133272, Note_on_c, 2, 67, 65
3, 133277, Note_off_c, 2, 70, 64
3, 133315, Note_off_c, 2, 67, 64
3, 133425, Note_on_c, 2, 53, 86
3, 133427, Note_on_c, 2, 65, 99
3, 133510, Note_off_c, 2, 65, 64
3, 133552, Note_off_c, 2, 53, 64
3, 133932, Note_on_c, 2, 60, 97
3, 133932, Note_on_c, 2, 48, 119
3, 134057, Note_off_c, 2, 60, 64
3, 134062, Note_off_c, 2, 48, 64
3, 134400, Note_on_c, 2, 57, 90
3, 134402, Note_on_c, 2, 45, 97
3, 134495, Note_off_c, 2, 45, 64
3, 134497, Note_off_c, 2, 57, 64
3, 134887, Note_on_c, 2, 53, 92
3, 134892, Note_on_c, 2, 41, 90
3, 134937, Control_c, 2, 64, 127
3, 134937, Control_c, 2, 64, 127
3, 134937, Control_c, 2, 64, 127
3, 134970, Note_off_c, 2, 41, 64
3, 134970, Note_off_c, 2, 53, 64
3, 135115, Control_c, 2, 64, 0
3, 135117, Control_c, 2, 64, 0
3, 135117, Control_c, 2, 64, 0
3, 135375, Note_on_c, 2, 60, 46
3, 135440, Control_c, 2, 64, 127
3, 135440, Control_c, 2, 64, 127
3, 135440, Control_c, 2, 64, 127
3, 135495, Note_on_c, 2, 67, 37
3, 135610, Note_off_c, 2, 67, 64
3, 135612, Note_on_c, 2, 70, 39
3, 135627, Note_off_c, 2, 60, 64
3, 135715, Note_off_c, 2, 70, 64
3, 135715, Note_on_c, 2, 67, 47
3, 135797, Note_off_c, 2, 67, 64
3, 135840, Note_on_c, 2, 60, 40
3, 135877, Control_c, 2, 64, 0
3, 135880, Control_c, 2, 64, 0
3, 135880, Control_c, 2, 64, 0
3, 135965, Note_on_c, 2, 67, 30
3, 136052, Control_c, 2, 64, 127
3, 136052, Control_c, 2, 64, 127
3, 136052, Control_c, 2, 64, 127
3, 136070, Note_off_c, 2, 67, 64
3, 136087, Note_on_c, 2, 70, 31
3, 136137, Note_off_c, 2, 60, 64
3, 136187, Note_off_c, 2, 70, 64
3, 136187, Note_on_c, 2, 67, 44
3, 136290, Note_off_c, 2, 67, 64
3, 136302, Note_on_c, 2, 60, 44
3, 136317, Control_c, 2, 64, 0
3, 136317, Control_c, 2, 64, 0
3, 136317, Control_c, 2, 64, 0
3, 136420, Note_on_c, 2, 67, 47
3, 136462, Control_c, 2, 64, 127
3, 136467, Control_c, 2, 64, 127
3, 136467, Control_c, 2, 64, 127
3, 136545, Note_off_c, 2, 67, 64
3, 136555, Note_on_c, 2, 70, 37
3, 136590, Note_off_c, 2, 60, 64
3, 136655, Note_on_c, 2, 67, 49
3, 136680, Note_off_c, 2, 70, 64
3, 136727, Note_off_c, 2, 67, 64
3, 136785, Note_on_c, 2, 60, 37
3, 136790, Control_c, 2, 64, 0
3, 136790, Control_c, 2, 64, 0
3, 136790, Control_c, 2, 64, 0
3, 136895, Note_on_c, 2, 67, 33
3, 137022, Note_off_c, 2, 67, 64
3, 137022, Note_on_c, 2, 70, 43
3, 137110, Control_c, 2, 64, 127
3, 137110, Control_c, 2, 64, 127
3, 137110, Control_c, 2, 64, 127
3, 137145, Note_on_c, 2, 67, 53
3, 137160, Note_off_c, 2, 60, 64
3, 137160, Note_off_c, 2, 70, 64
3, 137192, Note_off_c, 2, 67, 64
3, 137272, Note_on_c, 2, 60, 43
3, 137287, Control_c, 2, 64, 0
3, 137287, Control_c, 2, 64, 0
3, 137287, Control_c, 2, 64, 0
3, 137387, Note_on_c, 2, 65, 49
3, 137515, Note_on_c, 2, 69, 48
3, 137517, Note_off_c, 2, 65, 64
3, 137632, Note_on_c, 2, 65, 42
3, 137637, Note_off_c, 2, 69, 64
3, 137637, Control_c, 2, 64, 127
3, 137637, Control_c, 2, 64, 127
3, 137637, Control_c, 2, 64, 127
3, 137670, Note_off_c, 2, 60, 64
3, 137710, Note_off_c, 2, 65, 64
3, 137755, Control_c, 2, 64, 0
3, 137755, Control_c, 2, 64, 0
3, 137757, Control_c, 2, 64, 0
3, 137757, Note_on_c, 2, 60, 50
3, 137897, Note_on_c, 2, 65, 46
3, 137960, Control_c, 2, 64, 127
3, 137960, Control_c, 2, 64, 127
3, 137960, Control_c, 2, 64, 127
3, 138010, Note_off_c, 2, 65, 64
3, 138010, Note_on_c, 2, 69, 52
3, 138072, Note_off_c, 2, 60, 64
3, 138102, Note_off_c, 2, 69, 64
3, 138107, Note_on_c, 2, 65, 55
3, 138155, Note_off_c, 2, 65, 64
3, 138225, Note_on_c, 2, 60, 46
3, 138225, Control_c, 2, 64, 0
3, 138227, Control_c, 2, 64, 0
3, 138227, Control_c, 2, 64, 0
3, 138337, Note_on_c, 2, 63, 46
3, 138462, Note_on_c, 2, 66, 59
3, 138485, Note_off_c, 2, 63, 64
3, 138517, Control_c, 2, 64, 127
3, 138517, Control_c, 2, 64, 127
3, 138517, Control_c, 2, 64, 127
3, 138580, Note_on_c, 2, 63, 53
3, 138617, Note_off_c, 2, 60, 64
3, 138627, Note_off_c, 2, 66, 64
3, 138665, Note_off_c, 2, 63, 64
3, 138690, Control_c, 2, 64, 0
3, 138690, Control_c, 2, 64, 0
3, 138690, Control_c, 2, 64, 0
3, 138720, Note_on_c, 2, 60, 39
3, 138840, Note_on_c, 2, 63, 43
3, 138965, Note_on_c, 2, 69, 53
3, 138997, Note_off_c, 2, 63, 64
3, 139017, Control_c, 2, 64, 127
3, 139017, Control_c, 2, 64, 127
3, 139017, Control_c, 2, 64, 127
3, 139040, Note_off_c, 2, 60, 64
3, 139077, Note_on_c, 2, 63, 42
3, 139087, Note_off_c, 2, 69, 64
3, 139145, Note_off_c, 2, 63, 64
3, 139217, Control_c, 2, 64, 0
3, 139217, Control_c, 2, 64, 0
3, 139217, Control_c, 2, 64, 0
3, 139237, Note_on_c, 2, 58, 25
3, 139335, Note_on_c, 2, 62, 37
3, 139457, Note_off_c, 2, 62, 64
3, 139457, Control_c, 2, 64, 127
3, 139457, Control_c, 2, 64, 127
3, 139457, Control_c, 2, 64, 127
3, 139457, Note_on_c, 2, 67, 45
3, 139522, Note_off_c, 2, 58, 64
3, 139545, Note_off_c, 2, 67, 64
3, 139565, Note_on_c, 2, 62, 50
3, 139680, Note_off_c, 2, 62, 64
3, 139682, Note_on_c, 2, 58, 39
3, 139692, Control_c, 2, 64, 0
3, 139692, Control_c, 2, 64, 0
3, 139692, Control_c, 2, 64, 0
3, 139785, Note_on_c, 2, 62, 55
3, 139915, Note_on_c, 2, 67, 56
3, 139925, Note_off_c, 2, 62, 64
3, 139985, Control_c, 2, 64, 127
3, 139985, Control_c, 2, 64, 127
3, 139985, Control_c, 2, 64, 127
3, 139995, Note_off_c, 2, 58, 64
3, 140007, Note_off_c, 2, 67, 64
3, 140020, Note_on_c, 2, 62, 48
3, 140092, Note_off_c, 2, 62, 64
3, 140125, Control_c, 2, 64, 0
3, 140125, Control_c, 2, 64, 0
3, 140125, Control_c, 2, 64, 0
3, 140145, Note_on_c, 2, 60, 51
3, 140262, Note_on_c, 2, 65, 57
3, 140335, Control_c, 2, 64, 127
3, 140335, Control_c, 2, 64, 127
3, 140335, Control_c, 2, 64, 127
3, 140375, Note_on_c, 2, 69, 54
3, 140377, Note_off_c, 2, 65, 64
3, 140462, Note_off_c, 2, 60, 64
3, 140492, Note_off_c, 2, 69, 64
3, 140500, Note_on_c, 2, 65, 52
3, 140545, Note_off_c, 2, 65, 64
3, 140610, Note_on_c, 2, 60, 41
3, 140630, Control_c, 2, 64, 0
3, 140630, Control_c, 2, 64, 0
3, 140630, Control_c, 2, 64, 0
3, 140712, Note_on_c, 2, 64, 57
3, 140830, Note_on_c, 2, 70, 53
3, 140857, Note_off_c, 2, 64, 64
3, 140862, Control_c, 2, 64, 127
3, 140862, Control_c, 2, 64, 127
3, 140862, Control_c, 2, 64, 127
3, 140887, Note_off_c, 2, 60, 64
3, 140952, Note_on_c, 2, 64, 58
3, 140955, Note_off_c, 2, 70, 64
3, 141012, Note_off_c, 2, 64, 64
3, 141077, Note_on_c, 2, 69, 69
3, 141080, Note_on_c, 2, 65, 64
3, 141100, Control_c, 2, 64, 0
3, 141100, Control_c, 2, 64, 0
3, 141100, Control_c, 2, 64, 0
3, 141305, Note_off_c, 2, 65, 64
3, 141310, Note_off_c, 2, 69, 64
3, 142310, Note_on_c, 2, 53, 83
3, 142310, Note_on_c, 2, 41, 102
3, 142410, Note_off_c, 2, 53, 64
3, 142417, Note_off_c, 2, 41, 64
3, 142547, Note_on_c, 2, 57, 75
3, 142557, Note_on_c, 2, 45, 67
3, 142640, Note_off_c, 2, 45, 64
3, 142647, Note_off_c, 2, 57, 64
3, 142787, Note_on_c, 2, 53, 67
3, 142787, Note_on_c, 2, 41, 70
3, 142890, Note_off_c, 2, 41, 64
3, 142897, Note_off_c, 2, 53, 64
3, 143030, Note_on_c, 2, 58, 86
3, 143030, Note_on_c, 2, 46, 64
3, 143197, Note_off_c, 2, 46, 64
3, 143210, Note_off_c, 2, 58, 64
3, 143520, Note_on_c, 2, 55, 69
3, 143660, Note_off_c, 2, 55, 64
3, 144000, Note_on_c, 2, 60, 67
3, 144145, Note_off_c, 2, 60, 64
3, 144465, Note_on_c, 2, 48, 58
3, 144690, Note_off_c, 2, 48, 64
3, 144925, Note_on_c, 2, 57, 66
3, 144925, Note_on_c, 2, 53, 68
3, 145158, Note_off_c, 2, 53, 64
3, 145180, Note_off_c, 2, 57, 64
3, 146172, Note_on_c, 2, 41, 74
3, 146172, Note_on_c, 2, 53, 61
3, 146302, Note_off_c, 2, 41, 64
3, 146312, Note_off_c, 2, 53, 64
3, 146425, Note_on_c, 2, 45, 69
3, 146425, Note_on_c, 2, 57, 64
3, 146520, Note_off_c, 2, 45, 64
3, 146550, Note_off_c, 2, 57, 64
3, 146655, Note_on_c, 2, 41, 64
3, 146655, Note_on_c, 2, 53, 67
3, 146792, Note_off_c, 2, 41, 64
3, 146845, Note_off_c, 2, 53, 64
3, 146889, Note_on_c, 2, 46, 75
3, 146889, Note_on_c, 2, 58, 77
3, 147019, Note_off_c, 2, 58, 64
3, 147029, Note_off_c, 2, 46, 64
3, 147360, Note_on_c, 2, 55, 54
3, 147493, Note_off_c, 2, 55, 64
3, 147840, Note_on_c, 2, 60, 64
3, 147990, Note_off_c, 2, 60, 64
3, 148320, Note_on_c, 2, 48, 64
3, 148510, Note_off_c, 2, 48, 64
3, 148800, Note_on_c, 2, 41, 73
3, 148898, Note_off_c, 2, 41, 64
3, 148917, Note_on_c, 2, 53, 66
3, 148982, Note_off_c, 2, 53, 64
3, 149030, Note_on_c, 2, 52, 79
3, 149085, Note_off_c, 2, 52, 64
3, 149145, Note_on_c, 2, 53, 83
3, 149202, Note_off_c, 2, 53, 64
3, 149267, Note_on_c, 2, 41, 79
3, 149350, Note_off_c, 2, 41, 64
3, 149390, Note_on_c, 2, 53, 66
3, 149440, Note_off_c, 2, 53, 64
3, 149520, Note_on_c, 2, 52, 81
3, 149572, Note_off_c, 2, 52, 64
3, 149635, Note_on_c, 2, 53, 79
3, 149682, Note_off_c, 2, 53, 64
3, 149760, Note_on_c, 2, 41, 94
3, 149830, Note_off_c, 2, 41, 64
3, 149875, Note_on_c, 2, 53, 69
3, 149927, Note_off_c, 2, 53, 64
3, 149995, Note_on_c, 2, 52, 90
3, 150042, Note_off_c, 2, 52, 64
3, 150125, Note_on_c, 2, 53, 81
3, 150172, Note_off_c, 2, 53, 64
3, 150252, Note_on_c, 2, 41, 94
3, 150325, Note_off_c, 2, 41, 64
3, 150377, Note_on_c, 2, 53, 83
3, 150425, Note_off_c, 2, 53, 64
3, 150502, Note_on_c, 2, 52, 92
3, 150555, Note_off_c, 2, 52, 64
3, 150610, Note_on_c, 2, 53, 94
3, 150662, Note_off_c, 2, 53, 64
3, 150727, Note_on_c, 2, 41, 102
3, 150820, Note_off_c, 2, 41, 64
3, 150845, Note_on_c, 2, 53, 90
3, 150897, Note_off_c, 2, 53, 64
3, 150965, Note_on_c, 2, 52, 102
3, 151030, Note_off_c, 2, 52, 64
3, 151085, Note_on_c, 2, 53, 105
3, 151137, Note_off_c, 2, 53, 64
3, 151212, Note_on_c, 2, 41, 108
3, 151325, Note_on_c, 2, 53, 88
3, 151342, Note_off_c, 2, 41, 64
3, 151382, Note_off_c, 2, 53, 64
3, 151440, Note_on_c, 2, 52, 83
3, 151510, Note_off_c, 2, 52, 64
3, 151555, Note_on_c, 2, 53, 83
3, 151612, Note_off_c, 2, 53, 64
3, 151675, Note_on_c, 2, 41, 97
3, 151765, Note_off_c, 2, 41, 64
3, 151790, Note_on_c, 2, 53, 75
3, 151855, Note_off_c, 2, 53, 64
3, 151920, Note_on_c, 2, 52, 70
3, 151980, Note_off_c, 2, 52, 64
3, 152042, Note_on_c, 2, 53, 67
3, 152112, Note_off_c, 2, 53, 64
3, 152177, Note_on_c, 2, 41, 99
3, 152282, Note_on_c, 2, 53, 94
3, 152312, Note_off_c, 2, 41, 64
3, 152347, Note_off_c, 2, 53, 64
3, 152417, Note_on_c, 2, 52, 99
3, 152477, Note_off_c, 2, 52, 64
3, 152527, Note_on_c, 2, 53, 97
3, 152580, Note_off_c, 2, 53, 64
3, 152640, Note_on_c, 2, 53, 108
3, 152640, Note_on_c, 2, 41, 108
3, 154025, Note_off_c, 2, 41, 64
3, 154025, Note_off_c, 2, 53, 64
3, 154025, End_track
4, 0, Start_track
4, 0, Title_t, "new"
4, 0, MIDI_port, 0
4, 0, Channel_prefix, 3
4, 0, Control_c, 3, 7, 91
4, 0, Control_c, 3, 10, 64
4, 0, Control_c, 3, 91, 38
4, 0, Program_c, 3, 0
4, 154565, Note_on_c, 3, 65, 45
4, 154617, Control_c, 3, 64, 127
4, 154617, Control_c, 3, 64, 127
4, 154617, Control_c, 3, 64, 127
4, 154667, Note_on_c, 3, 69, 66
4, 154690, Note_off_c, 3, 65, 64
4, 154802, Note_off_c, 3, 69, 64
4, 154802, Note_on_c, 3, 68, 54
4, 154915, Note_on_c, 3, 69, 52
4, 154940, Note_off_c, 3, 68, 64
4, 154992, Note_off_c, 3, 69, 64
4, 155055, Note_on_c, 3, 65, 43
4, 155055, Control_c, 3, 64, 0
4, 155055, Control_c, 3, 64, 0
4, 155060, Control_c, 3, 64, 0
4, 155160, Note_on_c, 3, 69, 46
4, 155185, Note_off_c, 3, 65, 64
4, 155205, Control_c, 3, 64, 127
4, 155205, Control_c, 3, 64, 127
4, 155205, Control_c, 3, 64, 127
4, 155300, Note_on_c, 3, 68, 38
4, 155322, Note_off_c, 3, 69, 64
4, 155410, Note_on_c, 3, 69, 55
4, 155432, Note_off_c, 3, 68, 64
4, 155535, Note_off_c, 3, 69, 64
4, 155535, Note_on_c, 3, 65, 58
4, 155555, Control_c, 3, 64, 0
4, 155555, Control_c, 3, 64, 0
4, 155555, Control_c, 3, 64, 0
4, 155660, Note_on_c, 3, 69, 47
4, 155672, Control_c, 3, 64, 127
4, 155672, Control_c, 3, 64, 127
4, 155672, Control_c, 3, 64, 127
4, 155752, Note_off_c, 3, 65, 64
4, 155790, Note_on_c, 3, 68, 40
4, 155792, Note_off_c, 3, 69, 64
4, 155907, Note_on_c, 3, 69, 41
4, 155920, Note_off_c, 3, 68, 64
4, 156020, Note_off_c, 3, 69, 64
4, 156020, Note_on_c, 3, 65, 64
4, 156055, Control_c, 3, 64, 0
4, 156055, Control_c, 3, 64, 0
4, 156057, Control_c, 3, 64, 0
4, 156135, Note_on_c, 3, 69, 46
4, 156162, Note_off_c, 3, 65, 64
4, 156162, Control_c, 3, 64, 127
4, 156162, Control_c, 3, 64, 127
4, 156162, Control_c, 3, 64, 127
4, 156255, Note_on_c, 3, 68, 49
4, 156275, Note_off_c, 3, 69, 64
4, 156372, Note_on_c, 3, 69, 52
4, 156395, Note_off_c, 3, 68, 64
4, 156472, Note_off_c, 3, 69, 64
4, 156490, Note_on_c, 3, 64, 57
4, 156525, Control_c, 3, 64, 0
4, 156525, Control_c, 3, 64, 0
4, 156525, Control_c, 3, 64, 0
4, 156600, Note_on_c, 3, 67, 50
4, 156682, Note_off_c, 3, 64, 64
4, 156725, Note_on_c, 3, 66, 33
4, 156737, Note_off_c, 3, 67, 64
4, 156757, Control_c, 3, 64, 127
4, 156757, Control_c, 3, 64, 127
4, 156757, Control_c, 3, 64, 127
4, 156840, Note_on_c, 3, 67, 49
4, 156862, Note_off_c, 3, 66, 64
4, 156960, Note_off_c, 3, 67, 64
4, 156975, Note_on_c, 3, 64, 53
4, 156987, Control_c, 3, 64, 0
4, 156995, Control_c, 3, 64, 0
4, 156995, Control_c, 3, 64, 0
4, 157087, Note_on_c, 3, 67, 50
4, 157110, Note_off_c, 3, 64, 64
4, 157137, Control_c, 3, 64, 127
4, 157137, Control_c, 3, 64, 127
4, 157137, Control_c, 3, 64, 127
4, 157215, Note_on_c, 3, 66, 36
4, 157225, Note_off_c, 3, 67, 64
4, 157330, Note_off_c, 3, 66, 64
4, 157337, Note_on_c, 3, 67, 36
4, 157445, Note_off_c, 3, 67, 64
4, 157455, Note_on_c, 3, 64, 53
4, 157460, Control_c, 3, 64, 0
4, 157460, Control_c, 3, 64, 0
4, 157465, Control_c, 3, 64, 0
4, 157580, Note_on_c, 3, 67, 44
4, 157607, Note_off_c, 3, 64, 64
4, 157637, Control_c, 3, 64, 127
4, 157637, Control_c, 3, 64, 127
4, 157637, Control_c, 3, 64, 127
4, 157710, Note_on_c, 3, 66, 40
4, 157722, Note_off_c, 3, 67, 64
4, 157825, Note_on_c, 3, 67, 55
4, 157850, Note_off_c, 3, 66, 64
4, 157940, Note_off_c, 3, 67, 64
4, 157950, Note_on_c, 3, 64, 55
4, 157955, Control_c, 3, 64, 0
4, 157955, Control_c, 3, 64, 0
4, 157955, Control_c, 3, 64, 0
4, 158065, Note_on_c, 3, 67, 48
4, 158167, Note_off_c, 3, 64, 64
4, 158167, Control_c, 3, 64, 127
4, 158167, Control_c, 3, 64, 127
4, 158167, Control_c, 3, 64, 127
4, 158177, Note_on_c, 3, 66, 40
4, 158195, Note_off_c, 3, 67, 64
4, 158295, Note_on_c, 3, 67, 51
4, 158320, Note_off_c, 3, 66, 64
4, 158382, Note_off_c, 3, 67, 64
4, 158415, Note_on_c, 3, 62, 52
4, 158430, Control_c, 3, 64, 0
4, 158430, Control_c, 3, 64, 0
4, 158430, Control_c, 3, 64, 0
4, 158525, Note_on_c, 3, 65, 46
4, 158620, Note_off_c, 3, 62, 64
4, 158635, Control_c, 3, 64, 127
4, 158635, Control_c, 3, 64, 127
4, 158635, Control_c, 3, 64, 127
4, 158645, Note_on_c, 3, 64, 55
4, 158655, Note_off_c, 3, 65, 64
4, 158750, Note_on_c, 3, 65, 49
4, 158767, Note_off_c, 3, 64, 64
4, 158872, Note_off_c, 3, 65, 64
4, 158882, Note_on_c, 3, 62, 52
4, 158900, Control_c, 3, 64, 0
4, 158900, Control_c, 3, 64, 0
4, 158900, Control_c, 3, 64, 0
4, 158990, Note_on_c, 3, 65, 46
4, 159040, Note_off_c, 3, 62, 64
4, 159075, Control_c, 3, 64, 127
4, 159075, Control_c, 3, 64, 127
4, 159075, Control_c, 3, 64, 127
4, 159130, Note_on_c, 3, 64, 44
4, 159140, Note_off_c, 3, 65, 64
4, 159232, Note_on_c, 3, 65, 55
4, 159245, Note_off_c, 3, 64, 64
4, 159322, Note_off_c, 3, 65, 64
4, 159357, Note_on_c, 3, 60, 51
4, 159395, Control_c, 3, 64, 0
4, 159397, Control_c, 3, 64, 0
4, 159397, Control_c, 3, 64, 0
4, 159470, Note_on_c, 3, 64, 50
4, 159545, Control_c, 3, 64, 127
4, 159545, Control_c, 3, 64, 127
4, 159545, Control_c, 3, 64, 127
4, 159587, Note_on_c, 3, 62, 40
4, 159600, Note_off_c, 3, 60, 64
4, 159610, Note_off_c, 3, 64, 64
4, 159712, Note_on_c, 3, 64, 46
4, 159725, Note_off_c, 3, 62, 64
4, 159845, Note_off_c, 3, 64, 64
4, 159852, Note_on_c, 3, 60, 55
4, 159865, Control_c, 3, 64, 0
4, 159865, Control_c, 3, 64, 0
4, 159870, Control_c, 3, 64, 0
4, 159970, Note_on_c, 3, 64, 44
4, 160070, Control_c, 3, 64, 127
4, 160070, Control_c, 3, 64, 127
4, 160070, Control_c, 3, 64, 127
4, 160085, Note_off_c, 3, 60, 64
4, 160105, Note_on_c, 3, 62, 39
4, 160132, Note_off_c, 3, 64, 64
4, 160215, Note_on_c, 3, 64, 59
4, 160230, Note_off_c, 3, 62, 64
4, 160252, Note_off_c, 3, 64, 64
4, 160340, Note_on_c, 3, 58, 60
4, 160360, Control_c, 3, 64, 0
4, 160360, Control_c, 3, 64, 0
4, 160360, Control_c, 3, 64, 0
4, 160445, Note_on_c, 3, 62, 53
4, 160567, Control_c, 3, 64, 127
4, 160567, Control_c, 3, 64, 127
4, 160567, Control_c, 3, 64, 127
4, 160580, Note_off_c, 3, 58, 64
4, 160580, Note_on_c, 3, 60, 47
4, 160585, Note_off_c, 3, 62, 64
4, 160695, Note_on_c, 3, 62, 66
4, 160700, Note_off_c, 3, 60, 64
4, 160807, Note_off_c, 3, 62, 64
4, 160825, Note_on_c, 3, 58, 57
4, 160860, Control_c, 3, 64, 0
4, 160860, Control_c, 3, 64, 0
4, 160860, Control_c, 3, 64, 0
4, 160945, Note_on_c, 3, 62, 51
4, 160950, Control_c, 3, 64, 127
4, 160950, Control_c, 3, 64, 127
4, 160952, Control_c, 3, 64, 127
4, 161065, Note_off_c, 3, 62, 64
4, 161065, Note_on_c, 3, 60, 59
4, 161122, Note_off_c, 3, 58, 64
4, 161177, Note_on_c, 3, 62, 63
4, 161182, Note_off_c, 3, 60, 64
4, 161227, Note_off_c, 3, 62, 64
4, 161302, Control_c, 3, 64, 0
4, 161302, Control_c, 3, 64, 0
4, 161302, Control_c, 3, 64, 0
4, 161315, Note_on_c, 3, 57, 56
4, 161417, Note_on_c, 3, 60, 47
4, 161477, Control_c, 3, 64, 127
4, 161477, Control_c, 3, 64, 127
4, 161477, Control_c, 3, 64, 127
4, 161520, Note_off_c, 3, 57, 64
4, 161540, Note_on_c, 3, 58, 37
4, 161567, Note_off_c, 3, 60, 64
4, 161655, Note_on_c, 3, 60, 57
4, 161675, Note_off_c, 3, 58, 64
4, 161770, Note_off_c, 3, 60, 64
4, 161787, Note_on_c, 3, 57, 52
4, 161800, Control_c, 3, 64, 0
4, 161805, Control_c, 3, 64, 0
4, 161805, Control_c, 3, 64, 0
4, 161885, Note_on_c, 3, 60, 55
4, 161987, Note_off_c, 3, 57, 64
4, 162000, Control_c, 3, 64, 127
4, 162000, Control_c, 3, 64, 127
4, 162000, Control_c, 3, 64, 127
4, 162017, Note_on_c, 3, 58, 55
4, 162040, Note_off_c, 3, 60, 64
4, 162125, Note_on_c, 3, 60, 57
4, 162140, Note_off_c, 3, 58, 64
4, 162162, Note_off_c, 3, 60, 64
4, 162182, Control_c, 3, 64, 0
4, 162182, Control_c, 3, 64, 0
4, 162182, Control_c, 3, 64, 0
4, 162285, Note_on_c, 3, 60, 83
4, 162287, Note_on_c, 3, 57, 62
4, 163190, Note_on_c, 3, 58, 52
4, 163210, Note_off_c, 3, 57, 64
4, 164030, Control_c, 3, 64, 127
4, 164030, Control_c, 3, 64, 127
4, 164030, Control_c, 3, 64, 127
4, 164147, Control_c, 3, 64, 0
4, 164147, Control_c, 3, 64, 0
4, 164147, Control_c, 3, 64, 0
4, 164157, Note_on_c, 3, 57, 38
4, 164190, Note_off_c, 3, 58, 64
4, 165372, Note_off_c, 3, 57, 64
4, 165405, Note_off_c, 3, 60, 64
4, 165910, Note_on_c, 3, 46, 79
4, 165992, Note_on_c, 3, 50, 61
4, 166080, Note_on_c, 3, 55, 94
4, 167040, Note_on_c, 3, 57, 97
4, 167050, Note_on_c, 3, 48, 79
4, 167065, Note_off_c, 3, 55, 64
4, 167065, Note_off_c, 3, 50, 64
4, 167065, Note_off_c, 3, 46, 64
4, 167545, Note_on_c, 3, 58, 102
4, 167667, Note_off_c, 3, 57, 64
4, 167915, Note_off_c, 3, 48, 64
4, 167915, Note_off_c, 3, 58, 64
4, 168027, Note_on_c, 3, 53, 79
4, 168135, Note_off_c, 3, 53, 64
4, 168187, Note_on_c, 3, 55, 77
4, 168255, Note_off_c, 3, 55, 64
4, 168340, Note_on_c, 3, 57, 70
4, 168405, Note_off_c, 3, 57, 64
4, 168510, Note_on_c, 3, 58, 105
4, 168572, Note_off_c, 3, 58, 64
4, 168667, Note_on_c, 3, 60, 70
4, 168730, Note_off_c, 3, 60, 64
4, 168807, Note_on_c, 3, 62, 68
4, 168885, Note_off_c, 3, 62, 64
4, 168982, Note_on_c, 3, 63, 102
4, 169057, Note_off_c, 3, 63, 64
4, 169135, Note_on_c, 3, 62, 59
4, 169192, Note_off_c, 3, 62, 64
4, 169277, Note_on_c, 3, 60, 58
4, 169335, Note_off_c, 3, 60, 64
4, 169450, Note_on_c, 3, 58, 90
4, 169500, Note_off_c, 3, 58, 64
4, 169600, Note_on_c, 3, 57, 59
4, 169652, Note_off_c, 3, 57, 64
4, 169747, Note_on_c, 3, 55, 54
4, 169802, Note_off_c, 3, 55, 64
4, 169922, Note_on_c, 3, 54, 66
4, 170772, Note_off_c, 3, 54, 64
4, 171837, Note_on_c, 3, 55, 83
4, 171907, Note_off_c, 3, 55, 64
4, 171990, Note_on_c, 3, 58, 56
4, 172057, Note_off_c, 3, 58, 64
4, 172137, Note_on_c, 3, 60, 66
4, 172185, Note_off_c, 3, 60, 64
4, 172300, Note_on_c, 3, 62, 88
4, 172350, Note_off_c, 3, 62, 64
4, 172465, Note_on_c, 3, 65, 65
4, 172512, Note_off_c, 3, 65, 64
4, 172610, Note_on_c, 3, 67, 68
4, 172660, Note_off_c, 3, 67, 64
4, 172770, Note_on_c, 3, 68, 97
4, 172877, Note_off_c, 3, 68, 64
4, 172930, Note_on_c, 3, 67, 55
4, 172990, Note_off_c, 3, 67, 64
4, 173075, Note_on_c, 3, 65, 68
4, 173127, Note_off_c, 3, 65, 64
4, 173242, Note_on_c, 3, 63, 86
4, 173302, Note_off_c, 3, 63, 64
4, 173390, Note_on_c, 3, 62, 63
4, 173445, Note_off_c, 3, 62, 64
4, 173545, Note_on_c, 3, 60, 55
4, 173592, Note_off_c, 3, 60, 64
4, 173737, Note_on_c, 3, 59, 68
4, 174900, Note_off_c, 3, 59, 64
4, 175662, Note_on_c, 3, 48, 81
4, 175740, Note_off_c, 3, 48, 64
4, 175825, Note_on_c, 3, 50, 63
4, 175877, Note_off_c, 3, 50, 64
4, 175967, Note_on_c, 3, 52, 63
4, 176022, Note_off_c, 3, 52, 64
4, 176135, Note_on_c, 3, 53, 65
4, 176207, Note_off_c, 3, 53, 64
4, 176285, Note_on_c, 3, 55, 64
4, 176347, Note_off_c, 3, 55, 64
4, 176457, Note_on_c, 3, 57, 67
4, 176517, Note_off_c, 3, 57, 64
4, 176640, Note_on_c, 3, 58, 90
4, 176735, Note_off_c, 3, 58, 64
4, 176797, Note_on_c, 3, 57, 54
4, 176855, Note_off_c, 3, 57, 64
4, 176947, Note_on_c, 3, 55, 51
4, 177005, Note_off_c, 3, 55, 64
4, 177112, Note_on_c, 3, 53, 66
4, 177175, Note_off_c, 3, 53, 64
4, 177260, Note_on_c, 3, 52, 63
4, 177322, Note_off_c, 3, 52, 64
4, 177417, Note_on_c, 3, 50, 54
4, 177465, Note_off_c, 3, 50, 64
4, 177607, Note_on_c, 3, 49, 38
4, 178177, Note_off_c, 3, 49, 64
4, 178555, Note_on_c, 3, 61, 46
4, 179055, Note_off_c, 3, 61, 64
4, 179525, Note_on_c, 3, 50, 83
4, 179530, Note_on_c, 3, 62, 90
4, 179685, Note_off_c, 3, 62, 64
4, 179695, Note_off_c, 3, 50, 64
4, 179990, Note_on_c, 3, 48, 86
4, 179990, Note_on_c, 3, 60, 97
4, 180617, Note_off_c, 3, 48, 64
4, 180627, Note_off_c, 3, 60, 64
4, 181430, Note_on_c, 3, 58, 119
4, 181445, Note_on_c, 3, 46, 102
4, 182460, Note_off_c, 3, 46, 64
4, 182480, Note_off_c, 3, 58, 64
4, 182867, Note_on_c, 3, 60, 99
4, 182875, Note_on_c, 3, 48, 77
4, 183067, Note_off_c, 3, 60, 64
4, 183082, Note_off_c, 3, 48, 64
4, 183375, Note_on_c, 3, 58, 108
4, 183382, Note_on_c, 3, 46, 105
4, 184460, Note_off_c, 3, 46, 64
4, 184480, Note_off_c, 3, 58, 64
4, 184815, Note_on_c, 3, 51, 69
4, 184815, Note_on_c, 3, 63, 108
4, 185017, Note_off_c, 3, 63, 64
4, 185035, Note_off_c, 3, 51, 64
4, 185315, Note_on_c, 3, 62, 51
4, 185405, Control_c, 3, 64, 127
4, 185405, Control_c, 3, 64, 127
4, 185410, Control_c, 3, 64, 127
4, 185425, Note_on_c, 3, 67, 42
4, 185462, Note_off_c, 3, 62, 64
4, 185527, Note_off_c, 3, 67, 64
4, 185540, Note_on_c, 3, 66, 47
4, 185615, Note_off_c, 3, 66, 64
4, 185650, Note_on_c, 3, 67, 53
4, 185690, Note_off_c, 3, 67, 64
4, 185730, Control_c, 3, 64, 0
4, 185730, Control_c, 3, 64, 0
4, 185730, Control_c, 3, 64, 0
4, 185835, Note_on_c, 3, 62, 16
4, 185870, Note_on_c, 3, 67, 55
4, 185962, Control_c, 3, 64, 127
4, 185967, Control_c, 3, 64, 127
4, 185967, Control_c, 3, 64, 127
4, 186000, Note_off_c, 3, 67, 64
4, 186000, Note_on_c, 3, 66, 57
4, 186110, Note_on_c, 3, 67, 54
4, 186130, Note_off_c, 3, 62, 64
4, 186130, Note_off_c, 3, 66, 64
4, 186187, Note_off_c, 3, 67, 64
4, 186227, Control_c, 3, 64, 0
4, 186230, Control_c, 3, 64, 0
4, 186230, Control_c, 3, 64, 0
4, 186235, Note_on_c, 3, 60, 54
4, 186362, Note_on_c, 3, 67, 51
4, 186397, Control_c, 3, 64, 127
4, 186397, Control_c, 3, 64, 127
4, 186397, Control_c, 3, 64, 127
4, 186480, Note_on_c, 3, 66, 46
4, 186485, Note_off_c, 3, 67, 64
4, 186602, Note_off_c, 3, 66, 64
4, 186602, Note_on_c, 3, 67, 41
4, 186610, Note_off_c, 3, 60, 64
4, 186675, Note_off_c, 3, 67, 64
4, 186715, Note_on_c, 3, 59, 58
4, 186727, Control_c, 3, 64, 0
4, 186730, Control_c, 3, 64, 0
4, 186730, Control_c, 3, 64, 0
4, 186832, Note_on_c, 3, 67, 58
4, 186952, Note_on_c, 3, 66, 65
4, 186957, Note_off_c, 3, 67, 64
4, 186957, Control_c, 3, 64, 127
4, 186957, Control_c, 3, 64, 127
4, 186957, Control_c, 3, 64, 127
4, 186997, Note_off_c, 3, 59, 64
4, 187055, Note_off_c, 3, 66, 64
4, 187065, Note_on_c, 3, 67, 59
4, 187130, Note_off_c, 3, 67, 64
4, 187167, Control_c, 3, 64, 0
4, 187167, Control_c, 3, 64, 0
4, 187167, Control_c, 3, 64, 0
4, 187185, Note_on_c, 3, 60, 60
4, 187307, Note_on_c, 3, 67, 52
4, 187402, Control_c, 3, 64, 127
4, 187402, Control_c, 3, 64, 127
4, 187402, Control_c, 3, 64, 127
4, 187422, Note_on_c, 3, 66, 61
4, 187427, Note_off_c, 3, 67, 64
4, 187480, Note_off_c, 3, 60, 64
4, 187542, Note_on_c, 3, 67, 53
4, 187555, Note_off_c, 3, 66, 64
4, 187585, Note_off_c, 3, 67, 64
4, 187667, Control_c, 3, 64, 0
4, 187667, Control_c, 3, 64, 0
4, 187667, Control_c, 3, 64, 0
4, 187675, Note_on_c, 3, 60, 48
4, 187782, Note_on_c, 3, 69, 59
4, 187900, Note_on_c, 3, 70, 73
4, 187925, Note_off_c, 3, 69, 64
4, 187930, Control_c, 3, 64, 127
4, 187930, Control_c, 3, 64, 127
4, 187930, Control_c, 3, 64, 127
4, 187992, Note_off_c, 3, 70, 64
4, 188012, Note_on_c, 3, 69, 79
4, 188040, Note_off_c, 3, 60, 64
4, 188070, Note_off_c, 3, 69, 64
4, 188132, Control_c, 3, 64, 0
4, 188137, Control_c, 3, 64, 0
4, 188137, Control_c, 3, 64, 0
4, 188165, Note_on_c, 3, 62, 48
4, 188272, Note_on_c, 3, 67, 64
4, 188370, Control_c, 3, 64, 127
4, 188370, Control_c, 3, 64, 127
4, 188370, Control_c, 3, 64, 127
4, 188405, Note_on_c, 3, 66, 50
4, 188412, Note_off_c, 3, 67, 64
4, 188452, Note_off_c, 3, 62, 64
4, 188527, Note_on_c, 3, 67, 51
4, 188540, Note_off_c, 3, 66, 64
4, 188592, Note_off_c, 3, 67, 64
4, 188632, Control_c, 3, 64, 0
4, 188635, Control_c, 3, 64, 0
4, 188635, Control_c, 3, 64, 0
4, 188665, Note_on_c, 3, 62, 31
4, 188752, Note_on_c, 3, 66, 49
4, 188867, Control_c, 3, 64, 127
4, 188867, Control_c, 3, 64, 127
4, 188870, Control_c, 3, 64, 127
4, 188870, Note_on_c, 3, 64, 60
4, 188877, Note_off_c, 3, 66, 64
4, 188880, Note_off_c, 3, 62, 64
4, 188962, Note_off_c, 3, 64, 64
4, 188992, Note_on_c, 3, 66, 57
4, 189045, Note_off_c, 3, 66, 64
4, 189100, Control_c, 3, 64, 0
4, 189100, Control_c, 3, 64, 0
4, 189100, Control_c, 3, 64, 0
4, 189120, Note_on_c, 3, 55, 60
4, 189235, Note_on_c, 3, 67, 66
4, 189300, Note_off_c, 3, 55, 64
4, 189307, Control_c, 3, 64, 127
4, 189307, Control_c, 3, 64, 127
4, 189307, Control_c, 3, 64, 127
4, 189355, Note_on_c, 3, 66, 77
4, 189375, Note_off_c, 3, 67, 64
4, 189452, Note_off_c, 3, 66, 64
4, 189470, Note_on_c, 3, 67, 72
4, 189525, Note_off_c, 3, 67, 64
4, 189572, Control_c, 3, 64, 0
4, 189572, Control_c, 3, 64, 0
4, 189572, Control_c, 3, 64, 0
4, 189582, Note_on_c, 3, 62, 55
4, 189707, Note_on_c, 3, 67, 52
4, 189777, Control_c, 3, 64, 127
4, 189777, Control_c, 3, 64, 127
4, 189777, Control_c, 3, 64, 127
4, 189825, Note_off_c, 3, 67, 64
4, 189845, Note_on_c, 3, 66, 42
4, 189937, Note_off_c, 3, 62, 64
4, 189947, Note_on_c, 3, 67, 49
4, 189955, Note_off_c, 3, 66, 64
4, 190032, Note_off_c, 3, 67, 64
4, 190065, Control_c, 3, 64, 0
4, 190065, Control_c, 3, 64, 0
4, 190065, Control_c, 3, 64, 0
4, 190065, Note_on_c, 3, 60, 60
4, 190197, Note_on_c, 3, 67, 45
4, 190275, Control_c, 3, 64, 127
4, 190277, Control_c, 3, 64, 127
4, 190277, Control_c, 3, 64, 127
4, 190330, Note_on_c, 3, 66, 46
4, 190340, Note_off_c, 3, 67, 64
4, 190430, Note_off_c, 3, 66, 64
4, 190440, Note_on_c, 3, 67, 49
4, 190445, Note_off_c, 3, 60, 64
4, 190515, Note_off_c, 3, 67, 64
4, 190560, Note_on_c, 3, 59, 48
4, 190567, Control_c, 3, 64, 0
4, 190570, Control_c, 3, 64, 0
4, 190570, Control_c, 3, 64, 0
4, 190677, Note_on_c, 3, 67, 55
4, 190745, Control_c, 3, 64, 127
4, 190745, Control_c, 3, 64, 127
4, 190747, Control_c, 3, 64, 127
4, 190805, Note_on_c, 3, 66, 39
4, 190815, Note_off_c, 3, 67, 64
4, 190887, Note_off_c, 3, 59, 64
4, 190907, Note_on_c, 3, 67, 64
4, 190920, Note_off_c, 3, 66, 64
4, 190987, Note_off_c, 3, 67, 64
4, 191027, Note_on_c, 3, 60, 53
4, 191035, Control_c, 3, 64, 0
4, 191035, Control_c, 3, 64, 0
4, 191040, Control_c, 3, 64, 0
4, 191152, Note_on_c, 3, 67, 47
4, 191210, Control_c, 3, 64, 127
4, 191210, Control_c, 3, 64, 127
4, 191210, Control_c, 3, 64, 127
4, 191270, Note_off_c, 3, 67, 64
4, 191270, Note_on_c, 3, 66, 40
4, 191382, Note_off_c, 3, 66, 64
4, 191382, Note_on_c, 3, 67, 52
4, 191392, Note_off_c, 3, 60, 64
4, 191420, Note_off_c, 3, 67, 64
4, 191505, Control_c, 3, 64, 0
4, 191505, Control_c, 3, 64, 0
4, 191505, Control_c, 3, 64, 0
4, 191505, Note_on_c, 3, 60, 51
4, 191617, Note_on_c, 3, 69, 55
4, 191740, Control_c, 3, 64, 127
4, 191740, Control_c, 3, 64, 127
4, 191740, Control_c, 3, 64, 127
4, 191740, Note_on_c, 3, 70, 83
4, 191770, Note_off_c, 3, 69, 64
4, 191855, Note_on_c, 3, 69, 74
4, 191870, Note_off_c, 3, 70, 64
4, 191915, Note_off_c, 3, 69, 64
4, 191927, Note_off_c, 3, 60, 64
4, 191977, Note_on_c, 3, 62, 45
4, 191977, Control_c, 3, 64, 0
4, 191977, Control_c, 3, 64, 0
4, 191977, Control_c, 3, 64, 0
4, 192100, Note_on_c, 3, 67, 65
4, 192155, Control_c, 3, 64, 127
4, 192155, Control_c, 3, 64, 127
4, 192155, Control_c, 3, 64, 127
4, 192225, Note_off_c, 3, 67, 64
4, 192225, Note_on_c, 3, 66, 39
4, 192305, Note_off_c, 3, 62, 64
4, 192332, Note_on_c, 3, 67, 61
4, 192340, Note_off_c, 3, 66, 64
4, 192390, Note_off_c, 3, 67, 64
4, 192445, Control_c, 3, 64, 0
4, 192445, Control_c, 3, 64, 0
4, 192445, Control_c, 3, 64, 0
4, 192470, Note_on_c, 3, 62, 44
4, 192597, Note_on_c, 3, 66, 48
4, 192677, Control_c, 3, 64, 127
4, 192677, Control_c, 3, 64, 127
4, 192677, Control_c, 3, 64, 127
4, 192702, Note_on_c, 3, 64, 59
4, 192717, Note_off_c, 3, 66, 64
4, 192720, Note_off_c, 3, 62, 64
4, 192802, Note_off_c, 3, 64, 64
4, 192815, Note_on_c, 3, 66, 65
4, 192860, Note_off_c, 3, 66, 64
4, 192912, Control_c, 3, 64, 0
4, 192917, Control_c, 3, 64, 0
4, 192917, Control_c, 3, 64, 0
4, 193200, Note_on_c, 3, 55, 54
4, 193200, Note_on_c, 3, 58, 55
4, 193267, Control_c, 3, 64, 127
4, 193267, Control_c, 3, 64, 127
4, 193267, Control_c, 3, 64, 127
4, 193340, Note_off_c, 3, 55, 64
4, 193360, Note_off_c, 3, 58, 64
4, 193440, Control_c, 3, 64, 0
4, 193440, Control_c, 3, 64, 0
4, 193445, Control_c, 3, 64, 0
4, 193445, Note_on_c, 3, 58, 90
4, 193455, Note_on_c, 3, 62, 66
4, 193665, Note_off_c, 3, 58, 64
4, 193692, Note_off_c, 3, 62, 64
4, 194160, Note_on_c, 3, 55, 68
4, 194167, Note_on_c, 3, 58, 51
4, 194177, Control_c, 3, 64, 127
4, 194177, Control_c, 3, 64, 127
4, 194177, Control_c, 3, 64, 127
4, 194267, Note_off_c, 3, 55, 64
4, 194310, Note_off_c, 3, 58, 64
4, 194410, Note_on_c, 3, 58, 57
4, 194415, Note_on_c, 3, 62, 64
4, 194440, Control_c, 3, 64, 0
4, 194440, Control_c, 3, 64, 0
4, 194440, Control_c, 3, 64, 0
4, 194685, Note_off_c, 3, 62, 64
4, 194697, Note_off_c, 3, 58, 64
4, 195125, Note_on_c, 3, 58, 78
4, 195130, Note_on_c, 3, 55, 66
4, 195172, Control_c, 3, 64, 127
4, 195172, Control_c, 3, 64, 127
4, 195172, Control_c, 3, 64, 127
4, 195212, Note_off_c, 3, 55, 64
4, 195247, Note_off_c, 3, 58, 64
4, 195347, Control_c, 3, 64, 0
4, 195350, Control_c, 3, 64, 0
4, 195350, Control_c, 3, 64, 0
4, 195380, Note_on_c, 3, 63, 105
4, 195385, Note_on_c, 3, 58, 66
4, 195647, Note_off_c, 3, 58, 64
4, 195647, Note_off_c, 3, 63, 64
4, 196080, Note_on_c, 3, 58, 81
4, 196080, Note_on_c, 3, 55, 68
4, 196167, Control_c, 3, 64, 127
4, 196172, Control_c, 3, 64, 127
4, 196172, Control_c, 3, 64, 127
4, 196230, Note_off_c, 3, 55, 64
4, 196250, Note_off_c, 3, 58, 64
4, 196315, Control_c, 3, 64, 0
4, 196315, Control_c, 3, 64, 0
4, 196315, Control_c, 3, 64, 0
4, 196325, Note_on_c, 3, 63, 102
4, 196325, Note_on_c, 3, 58, 84
4, 196522, Control_c, 3, 64, 127
4, 196522, Control_c, 3, 64, 127
4, 196522, Control_c, 3, 64, 127
4, 196547, Note_off_c, 3, 58, 64
4, 196550, Note_off_c, 3, 63, 64
4, 196580, Control_c, 3, 64, 0
4, 196580, Control_c, 3, 64, 0
4, 196580, Control_c, 3, 64, 0
4, 196790, Note_on_c, 3, 56, 97
4, 196795, Note_on_c, 3, 62, 92
4, 196795, Note_on_c, 3, 58, 102
4, 196800, Note_on_c, 3, 53, 83
4, 198390, Note_off_c, 3, 62, 64
4, 198397, Note_off_c, 3, 56, 64
4, 198397, Note_off_c, 3, 53, 64
4, 198405, Note_off_c, 3, 58, 64
4, 198722, Note_on_c, 3, 51, 75
4, 198812, Note_off_c, 3, 51, 64
4, 199220, Note_on_c, 3, 55, 66
4, 199310, Note_off_c, 3, 55, 64
4, 199685, Note_on_c, 3, 58, 66
4, 199820, Note_off_c, 3, 58, 64
4, 200172, Note_on_c, 3, 63, 84
4, 200310, Note_off_c, 3, 63, 64
4, 200665, Note_on_c, 3, 53, 77
4, 200665, Note_on_c, 3, 56, 97
4, 200665, Note_on_c, 3, 58, 99
4, 200665, Note_on_c, 3, 62, 88
4, 201917, Control_c, 3, 64, 127
4, 201917, Control_c, 3, 64, 127
4, 201917, Control_c, 3, 64, 127
4, 202080, Note_off_c, 3, 53, 64
4, 202090, Note_off_c, 3, 56, 64
4, 202090, Note_off_c, 3, 58, 64
4, 202110, Note_off_c, 3, 62, 64
4, 202267, Control_c, 3, 64, 0
4, 202267, Control_c, 3, 64, 0
4, 202267, Control_c, 3, 64, 0
4, 202550, Note_on_c, 3, 58, 57
4, 202550, Note_on_c, 3, 63, 65
4, 202550, Note_on_c, 3, 51, 65
4, 202562, Note_on_c, 3, 55, 48
4, 203195, Note_off_c, 3, 58, 64
4, 203210, Note_off_c, 3, 55, 64
4, 203217, Note_off_c, 3, 63, 64
4, 203227, Note_off_c, 3, 51, 64
4, 205917, Note_on_c, 3, 55, 97
4, 205920, Note_on_c, 3, 43, 90
4, 206112, Note_off_c, 3, 43, 64
4, 206112, Note_off_c, 3, 55, 64
4, 206400, Note_on_c, 3, 53, 84
4, 206400, Note_on_c, 3, 41, 90
4, 206620, Note_off_c, 3, 41, 64
4, 206632, Note_off_c, 3, 53, 64
4, 207140, Note_on_c, 3, 70, 60
4, 207140, Note_on_c, 3, 72, 56
4, 207297, Note_off_c, 3, 72, 64
4, 207297, Note_off_c, 3, 70, 64
4, 207390, Note_on_c, 3, 72, 55
4, 207390, Note_on_c, 3, 69, 57
4, 207552, Note_off_c, 3, 69, 64
4, 207552, Note_off_c, 3, 72, 64
4, 208080, Note_on_c, 3, 70, 52
4, 208085, Note_on_c, 3, 72, 55
4, 208205, Note_off_c, 3, 70, 64
4, 208210, Note_off_c, 3, 72, 64
4, 208330, Note_on_c, 3, 72, 64
4, 208330, Note_on_c, 3, 69, 61
4, 208522, Note_off_c, 3, 72, 64
4, 208532, Note_off_c, 3, 69, 64
4, 210242, Note_on_c, 3, 62, 83
4, 210245, Note_on_c, 3, 58, 75
4, 211217, Note_on_c, 3, 63, 90
4, 211230, Note_on_c, 3, 60, 64
4, 211240, Note_off_c, 3, 62, 64
4, 211257, Note_off_c, 3, 58, 64
4, 212182, Note_on_c, 3, 65, 77
4, 212195, Note_on_c, 3, 62, 63
4, 212220, Note_off_c, 3, 60, 64
4, 212230, Note_off_c, 3, 63, 64
4, 213222, Note_off_c, 3, 62, 64
4, 213227, Note_off_c, 3, 65, 64
4, 214092, Note_on_c, 3, 63, 108
4, 214095, Note_on_c, 3, 51, 108
4, 214265, Note_off_c, 3, 51, 64
4, 214270, Note_off_c, 3, 63, 64
4, 214565, Note_on_c, 3, 58, 108
4, 214575, Note_on_c, 3, 46, 112
4, 214762, Note_off_c, 3, 46, 64
4, 214805, Note_off_c, 3, 58, 64
4, 216015, Note_on_c, 3, 53, 73
4, 216015, Note_on_c, 3, 41, 79
4, 216085, Note_off_c, 3, 41, 64
4, 216097, Note_off_c, 3, 53, 64
4, 216490, Note_on_c, 3, 46, 55
4, 216490, Note_on_c, 3, 58, 61
4, 216652, Note_off_c, 3, 46, 64
4, 216665, Note_off_c, 3, 58, 64
4, 217917, Note_on_c, 3, 46, 77
4, 217920, Note_on_c, 3, 50, 74
4, 218870, Note_on_c, 3, 51, 58
4, 218875, Note_on_c, 3, 48, 61
4, 218910, Note_off_c, 3, 50, 64
4, 218915, Note_off_c, 3, 46, 64
4, 219860, Note_on_c, 3, 50, 70
4, 219860, Note_on_c, 3, 53, 66
4, 219890, Note_off_c, 3, 51, 64
4, 219890, Note_off_c, 3, 48, 64
4, 221262, Note_off_c, 3, 50, 64
4, 221277, Note_off_c, 3, 53, 64
4, 221655, Note_on_c, 3, 51, 108
4, 221722, Note_on_c, 3, 55, 86
4, 221815, Note_on_c, 3, 60, 99
4, 222210, Control_c, 3, 64, 127
4, 222210, Control_c, 3, 64, 127
4, 222210, Control_c, 3, 64, 127
4, 222475, Note_off_c, 3, 60, 64
4, 222475, Note_off_c, 3, 55, 64
4, 222475, Note_off_c, 3, 51, 64
4, 222717, Note_on_c, 3, 62, 97
4, 222730, Note_on_c, 3, 53, 83
4, 222732, Control_c, 3, 64, 0
4, 222732, Control_c, 3, 64, 0
4, 222732, Control_c, 3, 64, 0
4, 223192, Note_on_c, 3, 63, 102
4, 223220, Note_off_c, 3, 62, 64
4, 223442, Control_c, 3, 64, 127
4, 223442, Control_c, 3, 64, 127
4, 223442, Control_c, 3, 64, 127
4, 223485, Note_off_c, 3, 63, 64
4, 223487, Note_off_c, 3, 53, 64
4, 223642, Control_c, 3, 64, 0
4, 223642, Control_c, 3, 64, 0
4, 223642, Control_c, 3, 64, 0
4, 223682, Note_on_c, 3, 62, 68
4, 223682, Note_on_c, 3, 58, 53
4, 223747, Note_off_c, 3, 58, 64
4, 223747, Note_off_c, 3, 62, 64
4, 223937, Note_on_c, 3, 58, 55
4, 223940, Note_on_c, 3, 62, 66
4, 223982, Note_off_c, 3, 58, 64
4, 223992, Note_off_c, 3, 62, 64
4, 224150, Note_on_c, 3, 58, 52
4, 224157, Note_on_c, 3, 62, 62
4, 224205, Note_off_c, 3, 58, 64
4, 224212, Note_off_c, 3, 62, 64
4, 224390, Note_on_c, 3, 62, 53
4, 224390, Note_on_c, 3, 58, 40
4, 224440, Note_off_c, 3, 58, 64
4, 224445, Note_off_c, 3, 62, 64
4, 224652, Note_on_c, 3, 62, 46
4, 224655, Note_on_c, 3, 58, 37
4, 224692, Note_off_c, 3, 58, 64
4, 224695, Note_off_c, 3, 62, 64
4, 224872, Note_on_c, 3, 62, 51
4, 224875, Note_on_c, 3, 58, 36
4, 224925, Note_off_c, 3, 58, 64
4, 224925, Note_off_c, 3, 62, 64
4, 225105, Note_on_c, 3, 58, 47
4, 225105, Note_on_c, 3, 62, 56
4, 225160, Note_off_c, 3, 58, 64
4, 225175, Note_off_c, 3, 62, 64
4, 225347, Note_on_c, 3, 62, 64
4, 225347, Note_on_c, 3, 58, 53
4, 225402, Control_c, 3, 64, 127
4, 225402, Control_c, 3, 64, 127
4, 225407, Control_c, 3, 64, 127
4, 225447, Note_off_c, 3, 58, 64
4, 225447, Note_off_c, 3, 62, 64
4, 225587, Note_on_c, 3, 63, 90
4, 225590, Note_on_c, 3, 58, 83
4, 225607, Control_c, 3, 64, 0
4, 225607, Control_c, 3, 64, 0
4, 225607, Control_c, 3, 64, 0
4, 225640, Note_off_c, 3, 58, 64
4, 225650, Note_off_c, 3, 63, 64
4, 225835, Note_on_c, 3, 63, 52
4, 225845, Note_on_c, 3, 58, 43
4, 225887, Note_off_c, 3, 58, 64
4, 225887, Note_off_c, 3, 63, 64
4, 226062, Note_on_c, 3, 63, 50
4, 226062, Note_on_c, 3, 58, 41
4, 226122, Note_off_c, 3, 58, 64
4, 226135, Note_off_c, 3, 63, 64
4, 226312, Note_on_c, 3, 63, 49
4, 226322, Note_on_c, 3, 58, 40
4, 226367, Note_off_c, 3, 58, 64
4, 226380, Note_off_c, 3, 63, 64
4, 226545, Note_on_c, 3, 58, 48
4, 226545, Note_on_c, 3, 63, 49
4, 226590, Note_off_c, 3, 58, 64
4, 226607, Note_off_c, 3, 63, 64
4, 226777, Note_on_c, 3, 63, 49
4, 226777, Note_on_c, 3, 58, 41
4, 226835, Note_off_c, 3, 58, 64
4, 226840, Note_off_c, 3, 63, 64
4, 227020, Note_on_c, 3, 58, 40
4, 227020, Note_on_c, 3, 63, 41
4, 227070, Note_off_c, 3, 58, 64
4, 227077, Note_off_c, 3, 63, 64
4, 227280, Note_on_c, 3, 58, 45
4, 227280, Note_on_c, 3, 63, 51
4, 227337, Note_off_c, 3, 63, 64
4, 227337, Note_off_c, 3, 58, 64
4, 227535, Note_on_c, 3, 58, 38
4, 227535, Note_on_c, 3, 62, 40
4, 227592, Note_off_c, 3, 62, 64
4, 227592, Note_off_c, 3, 58, 64
4, 227785, Note_on_c, 3, 58, 33
4, 227785, Note_on_c, 3, 62, 38
4, 227842, Note_off_c, 3, 58, 64
4, 227847, Note_off_c, 3, 62, 64
4, 228017, Note_on_c, 3, 62, 38
4, 228025, Note_on_c, 3, 58, 35
4, 228077, Note_off_c, 3, 58, 64
4, 228077, Note_off_c, 3, 62, 64
4, 228250, Note_on_c, 3, 62, 39
4, 228255, Note_on_c, 3, 58, 34
4, 228307, Note_off_c, 3, 58, 64
4, 228307, Note_off_c, 3, 62, 64
4, 228485, Note_on_c, 3, 58, 33
4, 228485, Note_on_c, 3, 62, 45
4, 228547, Note_off_c, 3, 58, 64
4, 228552, Note_off_c, 3, 62, 64
4, 228715, Note_on_c, 3, 58, 42
4, 228720, Note_on_c, 3, 62, 57
4, 228775, Note_off_c, 3, 62, 64
4, 228775, Note_off_c, 3, 58, 64
4, 228950, Note_on_c, 3, 62, 46
4, 228955, Note_on_c, 3, 58, 40
4, 229015, Note_off_c, 3, 62, 64
4, 229017, Note_off_c, 3, 58, 64
4, 229200, Note_on_c, 3, 62, 70
4, 229200, Note_on_c, 3, 58, 55
4, 229247, Control_c, 3, 64, 127
4, 229247, Control_c, 3, 64, 127
4, 229247, Control_c, 3, 64, 127
4, 229292, Note_off_c, 3, 58, 64
4, 229292, Note_off_c, 3, 62, 64
4, 229450, Note_on_c, 3, 63, 97
4, 229457, Note_on_c, 3, 58, 90
4, 229507, Note_off_c, 3, 58, 64
4, 229512, Control_c, 3, 64, 0
4, 229512, Control_c, 3, 64, 0
4, 229512, Control_c, 3, 64, 0
4, 229520, Note_off_c, 3, 63, 64
4, 229710, Note_on_c, 3, 63, 45
4, 229717, Note_on_c, 3, 58, 36
4, 229767, Note_off_c, 3, 58, 64
4, 229777, Note_off_c, 3, 63, 64
4, 229955, Note_on_c, 3, 58, 40
4, 229957, Note_on_c, 3, 63, 46
4, 230020, Note_off_c, 3, 63, 64
4, 230020, Note_off_c, 3, 58, 64
4, 230185, Note_on_c, 3, 63, 48
4, 230207, Note_on_c, 3, 58, 33
4, 230262, Note_off_c, 3, 58, 64
4, 230270, Note_off_c, 3, 63, 64
4, 230435, Note_on_c, 3, 63, 38
4, 230435, Note_on_c, 3, 58, 33
4, 230500, Note_off_c, 3, 58, 64
4, 230500, Note_off_c, 3, 63, 64
4, 230650, Note_on_c, 3, 63, 48
4, 230662, Note_on_c, 3, 58, 42
4, 230722, Note_off_c, 3, 58, 64
4, 230722, Note_off_c, 3, 63, 64
4, 230890, Note_on_c, 3, 63, 55
4, 230900, Note_on_c, 3, 58, 40
4, 230940, Note_off_c, 3, 58, 64
4, 230947, Note_off_c, 3, 63, 64
4, 231107, Note_on_c, 3, 63, 66
4, 231115, Note_on_c, 3, 58, 43
4, 231192, Note_off_c, 3, 58, 64
4, 231212, Control_c, 3, 64, 127
4, 231212, Control_c, 3, 64, 127
4, 231212, Control_c, 3, 64, 127
4, 231240, Note_off_c, 3, 63, 64
4, 231355, Control_c, 3, 64, 0
4, 231360, Control_c, 3, 64, 0
4, 231360, Control_c, 3, 64, 0
4, 231360, Note_on_c, 3, 62, 78
4, 231360, Note_on_c, 3, 58, 55
4, 231442, Note_off_c, 3, 62, 64
4, 231452, Note_off_c, 3, 58, 64
4, 231597, Note_on_c, 3, 58, 64
4, 231670, Note_off_c, 3, 58, 64
4, 231830, Note_on_c, 3, 62, 73
4, 231897, Note_off_c, 3, 62, 64
4, 232080, Note_on_c, 3, 65, 73
4, 232157, Note_off_c, 3, 65, 64
4, 232307, Note_on_c, 3, 58, 68
4, 232605, Note_off_c, 3, 58, 64
4, 233505, Note_on_c, 3, 53, 66
4, 233592, Note_off_c, 3, 53, 64
4, 233737, Note_on_c, 3, 57, 56
4, 233815, Note_off_c, 3, 57, 64
4, 233975, Note_on_c, 3, 60, 55
4, 234072, Note_off_c, 3, 60, 64
4, 234222, Note_on_c, 3, 53, 69
4, 234405, Note_off_c, 3, 53, 64
4, 235402, Note_on_c, 3, 46, 94
4, 235407, Note_on_c, 3, 34, 99
4, 235502, Note_off_c, 3, 34, 64
4, 235512, Note_off_c, 3, 46, 64
4, 235630, Note_on_c, 3, 50, 83
4, 235635, Note_on_c, 3, 38, 77
4, 235722, Note_off_c, 3, 50, 64
4, 235732, Note_off_c, 3, 38, 64
4, 235872, Note_on_c, 3, 41, 83
4, 235877, Note_on_c, 3, 53, 77
4, 235970, Note_off_c, 3, 41, 64
4, 235977, Note_off_c, 3, 53, 64
4, 236145, Note_on_c, 3, 50, 83
4, 236152, Note_on_c, 3, 38, 90
4, 236402, Control_c, 3, 64, 127
4, 236402, Control_c, 3, 64, 127
4, 236405, Control_c, 3, 64, 127
4, 236457, Note_off_c, 3, 50, 64
4, 236472, Note_off_c, 3, 38, 64
4, 236605, Control_c, 3, 64, 0
4, 236605, Control_c, 3, 64, 0
4, 236605, Control_c, 3, 64, 0
4, 236867, Note_on_c, 3, 65, 59
4, 236870, Note_on_c, 3, 62, 60
4, 237110, Note_off_c, 3, 62, 64
4, 237120, Note_on_c, 3, 63, 44
4, 237120, Note_on_c, 3, 67, 59
4, 237152, Note_off_c, 3, 65, 64
4, 237437, Note_off_c, 3, 67, 64
4, 237440, Note_off_c, 3, 63, 64
4, 238820, Note_on_c, 3, 67, 65
4, 238820, Note_on_c, 3, 64, 59
4, 239040, Note_on_c, 3, 65, 59
4, 239060, Note_off_c, 3, 64, 64
4, 239072, Note_off_c, 3, 67, 64
4, 239285, Note_off_c, 3, 65, 64
4, 240030, Note_on_c, 3, 45, 79
4, 240097, Note_off_c, 3, 45, 64
4, 240137, Note_on_c, 3, 46, 72
4, 240192, Note_off_c, 3, 46, 64
4, 240272, Note_on_c, 3, 48, 66
4, 240325, Note_off_c, 3, 48, 64
4, 240380, Note_on_c, 3, 50, 70
4, 240432, Note_off_c, 3, 50, 64
4, 240510, Note_on_c, 3, 52, 64
4, 240625, Note_on_c, 3, 53, 64
4, 240645, Note_off_c, 3, 52, 64
4, 240712, Note_off_c, 3, 53, 64
4, 240760, Note_on_c, 3, 52, 47
4, 240872, Note_on_c, 3, 53, 54
4, 240897, Note_off_c, 3, 52, 64
4, 240995, Note_off_c, 3, 53, 64
4, 241032, Note_on_c, 3, 41, 39
4, 241377, Note_off_c, 3, 41, 64
4, 242896, Note_on_c, 3, 58, 40
4, 243027, Control_c, 3, 64, 127
4, 243027, Control_c, 3, 64, 127
4, 243027, Control_c, 3, 64, 127
4, 243140, Note_on_c, 3, 65, 42
4, 243145, Control_c, 3, 64, 0
4, 243150, Control_c, 3, 64, 0
4, 243150, Control_c, 3, 64, 0
4, 243179, Note_off_c, 3, 58, 64
4, 243260, Control_c, 3, 64, 127
4, 243260, Control_c, 3, 64, 127
4, 243260, Control_c, 3, 64, 127
4, 243395, Note_on_c, 3, 62, 44
4, 243400, Note_off_c, 3, 65, 64
4, 243572, Note_off_c, 3, 62, 64
4, 243617, Note_on_c, 3, 65, 54
4, 243812, Note_off_c, 3, 65, 64
4, 243845, Note_on_c, 3, 60, 48
4, 243845, Control_c, 3, 64, 0
4, 243845, Control_c, 3, 64, 0
4, 243845, Control_c, 3, 64, 0
4, 244062, Note_on_c, 3, 65, 56
4, 244305, Note_on_c, 3, 63, 51
4, 244320, Note_off_c, 3, 65, 64
4, 244345, Note_off_c, 3, 60, 64
4, 244545, Note_on_c, 3, 65, 50
4, 244575, Note_off_c, 3, 63, 64
4, 244585, Control_c, 3, 64, 127
4, 244585, Control_c, 3, 64, 127
4, 244585, Control_c, 3, 64, 127
4, 244632, Note_off_c, 3, 65, 64
4, 244787, Control_c, 3, 64, 0
4, 244787, Control_c, 3, 64, 0
4, 244787, Control_c, 3, 64, 0
4, 244800, Note_on_c, 3, 62, 49
4, 245050, Note_on_c, 3, 65, 42
4, 245122, Note_off_c, 3, 62, 64
4, 245302, Note_on_c, 3, 70, 33
4, 245332, Note_off_c, 3, 65, 64
4, 245585, Note_off_c, 3, 70, 64
4, 246755, Note_on_c, 3, 58, 51
4, 246857, Control_c, 3, 64, 127
4, 246857, Control_c, 3, 64, 127
4, 246860, Control_c, 3, 64, 127
4, 246990, Note_on_c, 3, 65, 55
4, 247005, Note_off_c, 3, 58, 64
4, 247195, Note_off_c, 3, 65, 64
4, 247230, Note_on_c, 3, 62, 42
4, 247427, Note_off_c, 3, 62, 64
4, 247450, Note_on_c, 3, 65, 59
4, 247535, Note_off_c, 3, 65, 64
4, 247687, Note_on_c, 3, 57, 51
4, 247720, Control_c, 3, 64, 0
4, 247722, Control_c, 3, 64, 0
4, 247722, Control_c, 3, 64, 0
4, 247925, Note_on_c, 3, 65, 52
4, 248075, Control_c, 3, 64, 127
4, 248075, Control_c, 3, 64, 127
4, 248075, Control_c, 3, 64, 127
4, 248135, Note_off_c, 3, 65, 64
4, 248162, Control_c, 3, 64, 0
4, 248162, Control_c, 3, 64, 0
4, 248165, Control_c, 3, 64, 0
4, 248165, Note_on_c, 3, 60, 43
4, 248175, Note_off_c, 3, 57, 64
4, 248367, Control_c, 3, 64, 127
4, 248367, Control_c, 3, 64, 127
4, 248367, Control_c, 3, 64, 127
4, 248400, Note_on_c, 3, 65, 68
4, 248405, Note_off_c, 3, 60, 64
4, 248420, Control_c, 3, 64, 0
4, 248420, Control_c, 3, 64, 0
4, 248420, Control_c, 3, 64, 0
4, 248450, Note_off_c, 3, 65, 64
4, 248450, Control_c, 3, 64, 127
4, 248450, Control_c, 3, 64, 127
4, 248450, Control_c, 3, 64, 127
4, 248630, Control_c, 3, 64, 0
4, 248630, Control_c, 3, 64, 0
4, 248630, Control_c, 3, 64, 0
4, 248640, Note_on_c, 3, 58, 43
4, 248880, Note_on_c, 3, 62, 41
4, 249110, Note_off_c, 3, 62, 64
4, 249120, Note_on_c, 3, 65, 50
4, 249349, Note_off_c, 3, 65, 64
4, 249365, Note_off_c, 3, 58, 64
4, 249532, Control_c, 3, 64, 0
4, 249532, Control_c, 3, 64, 0
4, 249532, Control_c, 3, 64, 0
4, 250560, Note_on_c, 3, 63, 115
4, 250560, Note_on_c, 3, 51, 108
4, 251673, Note_off_c, 3, 51, 64
4, 251698, Note_off_c, 3, 63, 64
4, 252480, Note_on_c, 3, 60, 94
4, 252585, Note_on_c, 3, 62, 88
4, 252618, Note_off_c, 3, 60, 64
4, 252700, Note_on_c, 3, 63, 97
4, 252727, Note_off_c, 3, 62, 64
4, 252805, Note_on_c, 3, 62, 88
4, 252870, Note_off_c, 3, 63, 64
4, 252932, Note_on_c, 3, 60, 72
4, 252947, Note_off_c, 3, 62, 64
4, 252967, Control_c, 3, 64, 127
4, 252967, Control_c, 3, 64, 127
4, 252967, Control_c, 3, 64, 127
4, 253032, Note_on_c, 3, 62, 88
4, 253052, Note_off_c, 3, 60, 64
4, 253067, Note_off_c, 3, 62, 64
4, 253170, Note_on_c, 3, 58, 97
4, 253205, Control_c, 3, 64, 0
4, 253205, Control_c, 3, 64, 0
4, 253205, Control_c, 3, 64, 0
4, 253295, Note_on_c, 3, 60, 77
4, 253320, Note_off_c, 3, 58, 64
4, 253412, Note_on_c, 3, 57, 90
4, 253435, Note_off_c, 3, 60, 64
4, 253542, Note_on_c, 3, 58, 83
4, 253580, Note_off_c, 3, 57, 64
4, 253665, Note_on_c, 3, 55, 64
4, 253682, Note_off_c, 3, 58, 64
4, 253790, Note_on_c, 3, 57, 48
4, 253810, Note_off_c, 3, 55, 64
4, 253847, Note_off_c, 3, 57, 64
4, 253920, Note_on_c, 3, 53, 84
4, 254025, Control_c, 3, 64, 127
4, 254025, Control_c, 3, 64, 127
4, 254025, Control_c, 3, 64, 127
4, 254027, Note_on_c, 3, 55, 61
4, 254052, Note_off_c, 3, 53, 64
4, 254080, Note_off_c, 3, 55, 64
4, 254157, Note_on_c, 3, 51, 108
4, 254285, Note_on_c, 3, 53, 77
4, 254300, Note_off_c, 3, 51, 64
4, 254372, Note_off_c, 3, 53, 64
4, 254405, Control_c, 3, 64, 0
4, 254410, Control_c, 3, 64, 0
4, 254410, Control_c, 3, 64, 0
4, 254425, Note_on_c, 3, 50, 108
4, 254435, Note_on_c, 3, 38, 108
4, 255567, Note_off_c, 3, 38, 64
4, 255567, Note_off_c, 3, 50, 64
4, 256307, Note_on_c, 3, 58, 102
4, 256422, Note_on_c, 3, 60, 73
4, 256465, Note_off_c, 3, 58, 64
4, 256565, Note_on_c, 3, 62, 90
4, 256590, Note_off_c, 3, 60, 64
4, 256662, Note_off_c, 3, 62, 64
4, 256667, Note_on_c, 3, 60, 83
4, 256797, Note_on_c, 3, 58, 102
4, 256810, Note_off_c, 3, 60, 64
4, 256917, Note_on_c, 3, 60, 86
4, 256950, Note_off_c, 3, 58, 64
4, 257035, Note_on_c, 3, 57, 83
4, 257075, Note_off_c, 3, 60, 64
4, 257165, Note_on_c, 3, 58, 86
4, 257207, Note_off_c, 3, 57, 64
4, 257285, Note_off_c, 3, 58, 64
4, 257292, Note_on_c, 3, 55, 88
4, 257410, Note_on_c, 3, 57, 61
4, 257430, Note_off_c, 3, 55, 64
4, 257430, Control_c, 3, 64, 127
4, 257430, Control_c, 3, 64, 127
4, 257430, Control_c, 3, 64, 127
4, 257457, Control_c, 3, 64, 0
4, 257457, Control_c, 3, 64, 0
4, 257457, Control_c, 3, 64, 0
4, 257502, Note_off_c, 3, 57, 64
4, 257550, Note_on_c, 3, 53, 81
4, 257602, Control_c, 3, 64, 127
4, 257602, Control_c, 3, 64, 127
4, 257607, Control_c, 3, 64, 127
4, 257645, Note_on_c, 3, 55, 65
4, 257662, Note_off_c, 3, 53, 64
4, 257687, Note_off_c, 3, 55, 64
4, 257785, Note_on_c, 3, 51, 108
4, 257802, Control_c, 3, 64, 0
4, 257802, Control_c, 3, 64, 0
4, 257802, Control_c, 3, 64, 0
4, 257882, Note_on_c, 3, 53, 78
4, 257910, Note_off_c, 3, 51, 64
4, 258000, Note_on_c, 3, 50, 74
4, 258030, Note_off_c, 3, 53, 64
4, 258120, Note_on_c, 3, 51, 79
4, 258152, Note_off_c, 3, 50, 64
4, 258202, Note_off_c, 3, 51, 64
4, 258260, Note_on_c, 3, 48, 97
4, 258262, Note_on_c, 3, 36, 108
4, 259012, Control_c, 3, 64, 127
4, 259012, Control_c, 3, 64, 127
4, 259012, Control_c, 3, 64, 127
4, 259167, Note_off_c, 3, 36, 64
4, 259210, Note_off_c, 3, 48, 64
4, 259365, Control_c, 3, 64, 0
4, 259365, Control_c, 3, 64, 0
4, 259365, Control_c, 3, 64, 0
4, 260160, Note_on_c, 3, 65, 52
4, 260212, Control_c, 3, 64, 127
4, 260212, Control_c, 3, 64, 127
4, 260212, Control_c, 3, 64, 127
4, 260275, Note_on_c, 3, 69, 49
4, 260347, Note_off_c, 3, 69, 64
4, 260405, Note_on_c, 3, 72, 45
4, 260427, Note_off_c, 3, 65, 64
4, 260507, Note_off_c, 3, 72, 64
4, 260512, Note_on_c, 3, 69, 48
4, 260580, Note_off_c, 3, 69, 64
4, 260640, Note_on_c, 3, 65, 48
4, 260650, Control_c, 3, 64, 0
4, 260650, Control_c, 3, 64, 0
4, 260650, Control_c, 3, 64, 0
4, 260740, Control_c, 3, 64, 127
4, 260740, Control_c, 3, 64, 127
4, 260740, Control_c, 3, 64, 127
4, 260752, Note_on_c, 3, 69, 44
4, 260867, Note_off_c, 3, 69, 64
4, 260877, Note_on_c, 3, 72, 49
4, 260882, Note_off_c, 3, 65, 64
4, 260967, Note_off_c, 3, 72, 64
4, 260977, Note_on_c, 3, 69, 54
4, 261020, Note_off_c, 3, 69, 64
4, 261092, Control_c, 3, 64, 0
4, 261092, Control_c, 3, 64, 0
4, 261095, Control_c, 3, 64, 0
4, 261130, Note_on_c, 3, 65, 32
4, 261240, Control_c, 3, 64, 127
4, 261240, Control_c, 3, 64, 127
4, 261240, Control_c, 3, 64, 127
4, 261240, Note_on_c, 3, 72, 45
4, 261360, Note_on_c, 3, 75, 48
4, 261365, Note_off_c, 3, 72, 64
4, 261437, Note_off_c, 3, 65, 64
4, 261462, Note_off_c, 3, 75, 64
4, 261485, Note_on_c, 3, 72, 46
4, 261567, Note_off_c, 3, 72, 64
4, 261605, Note_on_c, 3, 65, 39
4, 261710, Note_on_c, 3, 72, 50
4, 261835, Note_off_c, 3, 72, 64
4, 261835, Note_on_c, 3, 75, 37
4, 261882, Note_off_c, 3, 65, 64
4, 261942, Note_off_c, 3, 75, 64
4, 261942, Note_on_c, 3, 72, 52
4, 261980, Note_off_c, 3, 72, 64
4, 262055, Control_c, 3, 64, 0
4, 262055, Control_c, 3, 64, 0
4, 262055, Control_c, 3, 64, 0
4, 262065, Note_on_c, 3, 65, 40
4, 262167, Note_on_c, 3, 70, 43
4, 262207, Control_c, 3, 64, 127
4, 262210, Control_c, 3, 64, 127
4, 262210, Control_c, 3, 64, 127
4, 262310, Note_off_c, 3, 70, 64
4, 262310, Note_on_c, 3, 74, 53
4, 262372, Note_off_c, 3, 65, 64
4, 262412, Note_off_c, 3, 74, 64
4, 262427, Note_on_c, 3, 70, 29
4, 262497, Note_off_c, 3, 70, 64
4, 262525, Control_c, 3, 64, 0
4, 262525, Control_c, 3, 64, 0
4, 262525, Control_c, 3, 64, 0
4, 262535, Note_on_c, 3, 65, 47
4, 262647, Note_on_c, 3, 70, 50
4, 262705, Control_c, 3, 64, 127
4, 262705, Control_c, 3, 64, 127
4, 262710, Control_c, 3, 64, 127
4, 262787, Note_on_c, 3, 74, 66
4, 262815, Note_off_c, 3, 70, 64
4, 262852, Note_off_c, 3, 65, 64
4, 262882, Note_off_c, 3, 74, 64
4, 262882, Note_on_c, 3, 70, 54
4, 262930, Note_off_c, 3, 70, 64
4, 262997, Control_c, 3, 64, 0
4, 263002, Control_c, 3, 64, 0
4, 263002, Control_c, 3, 64, 0
4, 263027, Note_on_c, 3, 65, 49
4, 263132, Note_on_c, 3, 68, 49
4, 263197, Control_c, 3, 64, 127
4, 263197, Control_c, 3, 64, 127
4, 263197, Control_c, 3, 64, 127
4, 263247, Note_off_c, 3, 68, 64
4, 263252, Note_on_c, 3, 71, 47
4, 263342, Note_off_c, 3, 65, 64
4, 263357, Note_off_c, 3, 71, 64
4, 263375, Note_on_c, 3, 68, 49
4, 263415, Note_off_c, 3, 68, 64
4, 263492, Control_c, 3, 64, 0
4, 263492, Control_c, 3, 64, 0
4, 263492, Control_c, 3, 64, 0
4, 263502, Note_on_c, 3, 65, 40
4, 263627, Note_on_c, 3, 68, 41
4, 263675, Control_c, 3, 64, 127
4, 263675, Control_c, 3, 64, 127
4, 263675, Control_c, 3, 64, 127
4, 263762, Note_on_c, 3, 74, 69
4, 263805, Note_off_c, 3, 68, 64
4, 263815, Note_off_c, 3, 65, 64
4, 263867, Note_on_c, 3, 68, 57
4, 263880, Note_off_c, 3, 74, 64
4, 263957, Note_off_c, 3, 68, 64
4, 263995, Control_c, 3, 64, 0
4, 263995, Control_c, 3, 64, 0
4, 263995, Control_c, 3, 64, 0
4, 264015, Note_on_c, 3, 63, 45
4, 264127, Note_on_c, 3, 67, 46
4, 264172, Control_c, 3, 64, 127
4, 264172, Control_c, 3, 64, 127
4, 264172, Control_c, 3, 64, 127
4, 264247, Note_on_c, 3, 72, 62
4, 264267, Note_off_c, 3, 67, 64
4, 264320, Note_off_c, 3, 63, 64
4, 264362, Note_off_c, 3, 72, 64
4, 264365, Note_on_c, 3, 67, 47
4, 264435, Note_off_c, 3, 67, 64
4, 264467, Control_c, 3, 64, 0
4, 264467, Control_c, 3, 64, 0
4, 264467, Control_c, 3, 64, 0
4, 264487, Note_on_c, 3, 63, 35
4, 264592, Note_on_c, 3, 67, 59
4, 264642, Control_c, 3, 64, 127
4, 264642, Control_c, 3, 64, 127
4, 264642, Control_c, 3, 64, 127
4, 264725, Note_on_c, 3, 72, 65
4, 264745, Note_off_c, 3, 67, 64
4, 264777, Note_off_c, 3, 63, 64
4, 264837, Note_off_c, 3, 72, 64
4, 264837, Note_on_c, 3, 67, 59
4, 264920, Note_off_c, 3, 67, 64
4, 264932, Control_c, 3, 64, 0
4, 264932, Control_c, 3, 64, 0
4, 264932, Control_c, 3, 64, 0
4, 264952, Note_on_c, 3, 65, 57
4, 265065, Note_on_c, 3, 70, 44
4, 265167, Control_c, 3, 64, 127
4, 265167, Control_c, 3, 64, 127
4, 265167, Control_c, 3, 64, 127
4, 265195, Note_on_c, 3, 74, 56
4, 265205, Note_off_c, 3, 70, 64
4, 265267, Note_off_c, 3, 65, 64
4, 265302, Note_off_c, 3, 74, 64
4, 265307, Note_on_c, 3, 70, 52
4, 265365, Note_off_c, 3, 70, 64
4, 265405, Control_c, 3, 64, 0
4, 265407, Control_c, 3, 64, 0
4, 265407, Control_c, 3, 64, 0
4, 265440, Note_on_c, 3, 65, 59
4, 265532, Note_on_c, 3, 72, 67
4, 265660, Note_on_c, 3, 75, 73
4, 265667, Control_c, 3, 64, 127
4, 265670, Control_c, 3, 64, 127
4, 265670, Control_c, 3, 64, 127
4, 265675, Note_off_c, 3, 72, 64
4, 265687, Note_off_c, 3, 65, 64
4, 265785, Note_on_c, 3, 72, 64
4, 265790, Note_off_c, 3, 75, 64
4, 265845, Control_c, 3, 64, 0
4, 265845, Control_c, 3, 64, 0
4, 265845, Control_c, 3, 64, 0
4, 265847, Note_off_c, 3, 72, 64
4, 265915, Note_on_c, 3, 70, 99
4, 266002, Note_off_c, 3, 70, 64
4, 266415, Note_on_c, 3, 65, 97
4, 266415, Note_on_c, 3, 53, 94
4, 266512, Note_off_c, 3, 65, 64
4, 266520, Note_off_c, 3, 53, 64
4, 266877, Note_on_c, 3, 62, 97
4, 266880, Note_on_c, 3, 50, 97
4, 266952, Note_off_c, 3, 62, 64
4, 266992, Note_off_c, 3, 50, 64
4, 267365, Note_on_c, 3, 58, 108
4, 267367, Note_on_c, 3, 46, 102
4, 267455, Control_c, 3, 64, 127
4, 267455, Control_c, 3, 64, 127
4, 267455, Control_c, 3, 64, 127
4, 267490, Note_off_c, 3, 58, 64
4, 267495, Note_off_c, 3, 46, 64
4, 267542, Control_c, 3, 64, 0
4, 267547, Control_c, 3, 64, 0
4, 267547, Control_c, 3, 64, 0
4, 267837, Note_on_c, 3, 53, 60
4, 267897, Control_c, 3, 64, 127
4, 267897, Control_c, 3, 64, 127
4, 267897, Control_c, 3, 64, 127
4, 267957, Note_on_c, 3, 60, 50
4, 268070, Note_on_c, 3, 63, 39
4, 268077, Note_off_c, 3, 60, 64
4, 268087, Note_off_c, 3, 53, 64
4, 268185, Note_off_c, 3, 63, 64
4, 268205, Note_on_c, 3, 60, 36
4, 268272, Note_off_c, 3, 60, 64
4, 268302, Control_c, 3, 64, 0
4, 268302, Control_c, 3, 64, 0
4, 268302, Control_c, 3, 64, 0
4, 268302, Note_on_c, 3, 53, 37
4, 268422, Note_on_c, 3, 60, 52
4, 268425, Control_c, 3, 64, 127
4, 268425, Control_c, 3, 64, 127
4, 268425, Control_c, 3, 64, 127
4, 268557, Note_on_c, 3, 63, 49
4, 268560, Note_off_c, 3, 60, 64
4, 268637, Note_off_c, 3, 53, 64
4, 268672, Note_on_c, 3, 60, 45
4, 268675, Note_off_c, 3, 63, 64
4, 268777, Control_c, 3, 64, 0
4, 268777, Control_c, 3, 64, 0
4, 268777, Control_c, 3, 64, 0
4, 268782, Note_off_c, 3, 60, 64
4, 268785, Note_on_c, 3, 53, 44
4, 268890, Note_on_c, 3, 60, 51
4, 269017, Note_on_c, 3, 63, 59
4, 269035, Note_off_c, 3, 60, 64
4, 269035, Control_c, 3, 64, 127
4, 269035, Control_c, 3, 64, 127
4, 269035, Control_c, 3, 64, 127
4, 269132, Note_off_c, 3, 53, 64
4, 269147, Note_on_c, 3, 60, 45
4, 269152, Note_off_c, 3, 63, 64
4, 269247, Control_c, 3, 64, 0
4, 269247, Control_c, 3, 64, 0
4, 269247, Control_c, 3, 64, 0
4, 269255, Note_off_c, 3, 60, 64
4, 269267, Note_on_c, 3, 53, 40
4, 269367, Note_on_c, 3, 60, 50
4, 269482, Control_c, 3, 64, 127
4, 269482, Control_c, 3, 64, 127
4, 269482, Control_c, 3, 64, 127
4, 269500, Note_on_c, 3, 63, 59
4, 269520, Note_off_c, 3, 60, 64
4, 269582, Note_off_c, 3, 53, 64
4, 269622, Note_on_c, 3, 60, 55
4, 269625, Note_off_c, 3, 63, 64
4, 269670, Note_off_c, 3, 60, 64
4, 269707, Control_c, 3, 64, 0
4, 269707, Control_c, 3, 64, 0
4, 269707, Control_c, 3, 64, 0
4, 269742, Note_on_c, 3, 53, 43
4, 269857, Note_on_c, 3, 58, 49
4, 269977, Control_c, 3, 64, 127
4, 269977, Control_c, 3, 64, 127
4, 269977, Control_c, 3, 64, 127
4, 269977, Note_on_c, 3, 62, 66
4, 269995, Note_off_c, 3, 58, 64
4, 270077, Note_off_c, 3, 62, 64
4, 270092, Note_on_c, 3, 58, 47
4, 270117, Note_off_c, 3, 53, 64
4, 270205, Note_off_c, 3, 58, 64
4, 270212, Control_c, 3, 64, 0
4, 270212, Control_c, 3, 64, 0
4, 270215, Control_c, 3, 64, 0
4, 270235, Note_on_c, 3, 53, 41
4, 270342, Note_on_c, 3, 58, 45
4, 270467, Note_on_c, 3, 62, 42
4, 270477, Control_c, 3, 64, 127
4, 270477, Control_c, 3, 64, 127
4, 270480, Note_off_c, 3, 58, 64
4, 270480, Control_c, 3, 64, 127
4, 270572, Note_off_c, 3, 53, 64
4, 270572, Note_off_c, 3, 62, 64
4, 270602, Note_on_c, 3, 58, 26
4, 270647, Note_off_c, 3, 58, 64
4, 270735, Note_on_c, 3, 53, 40
4, 270740, Control_c, 3, 64, 0
4, 270740, Control_c, 3, 64, 0
4, 270745, Control_c, 3, 64, 0
4, 270842, Note_on_c, 3, 56, 49
4, 270947, Control_c, 3, 64, 127
4, 270947, Control_c, 3, 64, 127
4, 270947, Control_c, 3, 64, 127
4, 270980, Note_on_c, 3, 59, 50
4, 270995, Note_off_c, 3, 56, 64
4, 271085, Note_off_c, 3, 59, 64
4, 271090, Note_off_c, 3, 53, 64
4, 271100, Note_on_c, 3, 56, 50
4, 271152, Note_off_c, 3, 56, 64
4, 271212, Control_c, 3, 64, 0
4, 271212, Control_c, 3, 64, 0
4, 271212, Control_c, 3, 64, 0
4, 271235, Note_on_c, 3, 53, 34
4, 271327, Note_on_c, 3, 56, 49
4, 271442, Control_c, 3, 64, 127
4, 271442, Control_c, 3, 64, 127
4, 271442, Control_c, 3, 64, 127
4, 271470, Note_on_c, 3, 62, 66
4, 271487, Note_off_c, 3, 56, 64
4, 271525, Note_off_c, 3, 53, 64
4, 271560, Note_off_c, 3, 62, 64
4, 271582, Note_on_c, 3, 56, 49
4, 271632, Note_off_c, 3, 56, 64
4, 271680, Control_c, 3, 64, 0
4, 271680, Control_c, 3, 64, 0
4, 271680, Control_c, 3, 64, 0
4, 271710, Note_on_c, 3, 51, 68
4, 271825, Note_on_c, 3, 55, 56
4, 271960, Note_on_c, 3, 60, 61
4, 271967, Note_off_c, 3, 55, 64
4, 272055, Note_off_c, 3, 51, 64
4, 272055, Note_off_c, 3, 60, 64
4, 272055, Control_c, 3, 64, 127
4, 272055, Control_c, 3, 64, 127
4, 272055, Control_c, 3, 64, 127
4, 272075, Note_on_c, 3, 55, 50
4, 272180, Note_off_c, 3, 55, 64
4, 272180, Control_c, 3, 64, 0
4, 272180, Control_c, 3, 64, 0
4, 272180, Control_c, 3, 64, 0
4, 272222, Note_on_c, 3, 51, 21
4, 272315, Note_on_c, 3, 55, 37
4, 272440, Note_on_c, 3, 60, 64
4, 272460, Note_off_c, 3, 55, 64
4, 272467, Note_off_c, 3, 51, 64
4, 272472, Control_c, 3, 64, 127
4, 272472, Control_c, 3, 64, 127
4, 272472, Control_c, 3, 64, 127
4, 272535, Note_off_c, 3, 60, 64
4, 272555, Note_on_c, 3, 55, 47
4, 272635, Note_off_c, 3, 55, 64
4, 272675, Control_c, 3, 64, 0
4, 272677, Control_c, 3, 64, 0
4, 272677, Control_c, 3, 64, 0
4, 272677, Note_on_c, 3, 53, 44
4, 272777, Note_on_c, 3, 58, 45
4, 272900, Note_on_c, 3, 62, 64
4, 272910, Note_off_c, 3, 58, 64
4, 272937, Control_c, 3, 64, 127
4, 272942, Control_c, 3, 64, 127
4, 272942, Control_c, 3, 64, 127
4, 272995, Note_off_c, 3, 53, 64
4, 273007, Note_off_c, 3, 62, 64
4, 273007, Note_on_c, 3, 58, 50
4, 273057, Note_off_c, 3, 58, 64
4, 273087, Control_c, 3, 64, 0
4, 273087, Control_c, 3, 64, 0
4, 273087, Control_c, 3, 64, 0
4, 273120, Note_on_c, 3, 53, 61
4, 273252, Note_on_c, 3, 57, 43
4, 273350, Note_off_c, 3, 57, 64
4, 273360, Note_on_c, 3, 63, 68
4, 273475, Note_off_c, 3, 63, 64
4, 273488, Note_off_c, 3, 53, 64
4, 273600, Note_on_c, 3, 58, 77
4, 273600, Note_on_c, 3, 62, 75
4, 273753, Note_off_c, 3, 58, 64
4, 273765, Note_off_c, 3, 62, 64
4, 274800, Note_on_c, 3, 46, 119
4, 274800, Note_on_c, 3, 58, 102
4, 274885, Note_off_c, 3, 58, 64
4, 274885, Note_off_c, 3, 46, 64
4, 275040, Note_on_c, 3, 62, 86
4, 275040, Note_on_c, 3, 50, 81
4, 275122, Note_off_c, 3, 50, 64
4, 275122, Note_off_c, 3, 62, 64
4, 275280, Note_on_c, 3, 58, 77
4, 275280, Note_on_c, 3, 46, 83
4, 275353, Note_off_c, 3, 46, 64
4, 275353, Note_off_c, 3, 58, 64
4, 275520, Note_on_c, 3, 63, 90
4, 275520, Note_on_c, 3, 51, 108
4, 275615, Note_off_c, 3, 51, 64
4, 275615, Note_off_c, 3, 63, 64
4, 276000, Note_on_c, 3, 60, 83
4, 276095, Note_off_c, 3, 60, 64
4, 276480, Note_on_c, 3, 65, 77
4, 276552, Note_off_c, 3, 65, 64
4, 276960, Note_on_c, 3, 53, 68
4, 277065, Note_off_c, 3, 53, 64
4, 277440, Note_on_c, 3, 58, 70
4, 277440, Note_on_c, 3, 62, 73
4, 277625, Note_off_c, 3, 62, 64
4, 277625, Note_off_c, 3, 58, 64
4, 278640, Note_on_c, 3, 46, 92
4, 278640, Note_on_c, 3, 34, 108
4, 278735, Note_off_c, 3, 34, 64
4, 278735, Note_off_c, 3, 46, 64
4, 278880, Note_on_c, 3, 50, 81
4, 278880, Note_on_c, 3, 38, 77
4, 278972, Note_off_c, 3, 38, 64
4, 278972, Note_off_c, 3, 50, 64
4, 279120, Note_on_c, 3, 34, 79
4, 279120, Note_on_c, 3, 46, 81
4, 279185, Note_off_c, 3, 46, 64
4, 279185, Note_off_c, 3, 34, 64
4, 279360, Note_on_c, 3, 39, 105
4, 279452, Note_off_c, 3, 39, 64
4, 279840, Note_on_c, 3, 48, 83
4, 279930, Note_off_c, 3, 48, 64
4, 280320, Note_on_c, 3, 53, 77
4, 280433, Note_off_c, 3, 53, 64
4, 280800, Note_on_c, 3, 41, 73
4, 280915, Note_off_c, 3, 41, 64
4, 281280, Note_on_c, 3, 46, 108
4, 281382, Note_on_c, 3, 58, 77
4, 281415, Note_off_c, 3, 46, 64
4, 281445, Note_off_c, 3, 58, 64
4, 281502, Note_on_c, 3, 57, 73
4, 281560, Note_off_c, 3, 57, 64
4, 281615, Note_on_c, 3, 58, 61
4, 281670, Note_off_c, 3, 58, 64
4, 281737, Note_on_c, 3, 46, 60
4, 281847, Note_on_c, 3, 58, 73
4, 281957, Note_off_c, 3, 58, 64
4, 281975, Note_on_c, 3, 57, 92
4, 281987, Note_off_c, 3, 46, 64
4, 282060, Note_off_c, 3, 57, 64
4, 282092, Note_on_c, 3, 58, 59
4, 282147, Note_off_c, 3, 58, 64
4, 282225, Note_on_c, 3, 46, 52
4, 282342, Note_on_c, 3, 58, 72
4, 282395, Note_off_c, 3, 46, 64
4, 282445, Note_off_c, 3, 58, 64
4, 282470, Note_on_c, 3, 57, 73
4, 282527, Note_off_c, 3, 57, 64
4, 282585, Note_on_c, 3, 58, 48
4, 282635, Note_off_c, 3, 58, 64
4, 282710, Note_on_c, 3, 46, 97
4, 282802, Note_off_c, 3, 46, 64
4, 282827, Note_on_c, 3, 58, 63
4, 282912, Note_off_c, 3, 58, 64
4, 282952, Note_on_c, 3, 57, 59
4, 283017, Note_off_c, 3, 57, 64
4, 283067, Note_on_c, 3, 58, 57
4, 283120, Note_off_c, 3, 58, 64
4, 283200, Note_on_c, 3, 46, 108
4, 283265, Note_off_c, 3, 46, 64
4, 283310, Note_on_c, 3, 58, 66
4, 283397, Note_off_c, 3, 58, 64
4, 283432, Note_on_c, 3, 57, 47
4, 283510, Note_off_c, 3, 57, 64
4, 283545, Note_on_c, 3, 58, 81
4, 283602, Note_off_c, 3, 58, 64
4, 283670, Note_on_c, 3, 46, 102
4, 283715, Note_off_c, 3, 46, 64
4, 283790, Note_on_c, 3, 58, 66
4, 283885, Note_off_c, 3, 58, 64
4, 283917, Note_on_c, 3, 57, 52
4, 283992, Note_off_c, 3, 57, 64
4, 284047, Note_on_c, 3, 58, 45
4, 284105, Note_off_c, 3, 58, 64
4, 284185, Note_on_c, 3, 46, 102
4, 284242, Note_off_c, 3, 46, 64
4, 284290, Note_on_c, 3, 58, 58
4, 284352, Note_off_c, 3, 58, 64
4, 284425, Note_on_c, 3, 57, 73
4, 284487, Note_off_c, 3, 57, 64
4, 284540, Note_on_c, 3, 58, 92
4, 284600, Note_off_c, 3, 58, 64
4, 284670, Note_on_c, 3, 46, 119
4, 284722, Note_off_c, 3, 46, 64
4, 284785, Note_on_c, 3, 58, 72
4, 284857, Note_off_c, 3, 58, 64
4, 284930, Note_on_c, 3, 57, 97
4, 284985, Note_off_c, 3, 57, 64
4, 285047, Note_on_c, 3, 58, 99
4, 285092, Note_off_c, 3, 58, 64
4, 285190, Note_on_c, 3, 46, 90
4, 285190, Note_on_c, 3, 58, 90
4, 287230, Note_off_c, 3, 58, 64
4, 287230, Note_off_c, 3, 46, 64
4, 287230, End_track
5, 0, Start_track
5, 0, Title_t, "new"
5, 0, MIDI_port, 0
5, 0, Channel_prefix, 4
5, 0, Control_c, 4, 7, 121
5, 0, Control_c, 4, 10, 64
5, 0, Control_c, 4, 91, 66
5, 0, Program_c, 4, 0
5, 154537, Note_on_c, 4, 71, 61
5, 154612, Note_on_c, 4, 72, 62
5, 154645, Note_off_c, 4, 71, 64
5, 154682, Note_on_c, 4, 74, 64
5, 154705, Note_off_c, 4, 72, 64
5, 154800, Note_on_c, 4, 72, 59
5, 154822, Note_off_c, 4, 74, 64
5, 155312, Note_off_c, 4, 72, 64
5, 155747, Note_on_c, 4, 77, 59
5, 155980, Note_on_c, 4, 76, 61
5, 155997, Note_off_c, 4, 77, 64
5, 156215, Note_on_c, 4, 74, 55
5, 156240, Note_off_c, 4, 76, 64
5, 156312, Note_off_c, 4, 74, 64
5, 156455, Note_on_c, 4, 76, 59
5, 156507, Note_on_c, 4, 74, 66
5, 156525, Note_off_c, 4, 76, 64
5, 156552, Note_off_c, 4, 74, 64
5, 156557, Note_on_c, 4, 76, 65
5, 156620, Note_on_c, 4, 74, 70
5, 156630, Note_off_c, 4, 76, 64
5, 156695, Note_off_c, 4, 74, 64
5, 156747, Note_on_c, 4, 72, 67
5, 157000, Note_off_c, 4, 72, 64
5, 157217, Note_on_c, 4, 72, 59
5, 157302, Note_off_c, 4, 72, 64
5, 157455, Note_on_c, 4, 71, 62
5, 157692, Note_on_c, 4, 72, 52
5, 157702, Note_off_c, 4, 71, 64
5, 157912, Note_on_c, 4, 74, 61
5, 157932, Note_off_c, 4, 72, 64
5, 158152, Note_on_c, 4, 72, 58
5, 158182, Note_off_c, 4, 74, 64
5, 158257, Note_off_c, 4, 72, 64
5, 158387, Note_on_c, 4, 74, 58
5, 158450, Note_on_c, 4, 72, 68
5, 158470, Note_off_c, 4, 74, 64
5, 158502, Note_off_c, 4, 72, 64
5, 158510, Note_on_c, 4, 74, 66
5, 158557, Note_on_c, 4, 72, 83
5, 158567, Note_off_c, 4, 74, 64
5, 158627, Note_off_c, 4, 72, 64
5, 158640, Note_on_c, 4, 70, 48
5, 158817, Note_off_c, 4, 70, 64
5, 159097, Note_on_c, 4, 70, 57
5, 159187, Note_off_c, 4, 70, 64
5, 159332, Note_on_c, 4, 72, 55
5, 159387, Note_on_c, 4, 70, 66
5, 159407, Note_off_c, 4, 72, 64
5, 159450, Note_on_c, 4, 72, 68
5, 159457, Note_off_c, 4, 70, 64
5, 159507, Note_on_c, 4, 70, 57
5, 159525, Note_off_c, 4, 72, 64
5, 159587, Note_off_c, 4, 70, 64
5, 159587, Note_on_c, 4, 69, 63
5, 159757, Note_off_c, 4, 69, 64
5, 160080, Note_on_c, 4, 69, 53
5, 160157, Note_off_c, 4, 69, 64
5, 160300, Note_on_c, 4, 70, 59
5, 160365, Note_off_c, 4, 70, 64
5, 160365, Note_on_c, 4, 69, 63
5, 160420, Note_on_c, 4, 70, 70
5, 160427, Note_off_c, 4, 69, 64
5, 160482, Note_on_c, 4, 69, 78
5, 160492, Note_off_c, 4, 70, 64
5, 160570, Note_off_c, 4, 69, 64
5, 160570, Note_on_c, 4, 67, 54
5, 160685, Note_off_c, 4, 67, 64
5, 160810, Note_on_c, 4, 70, 72
5, 161040, Note_on_c, 4, 67, 57
5, 161072, Note_off_c, 4, 70, 64
5, 161132, Note_off_c, 4, 67, 64
5, 161275, Note_on_c, 4, 64, 75
5, 161525, Note_on_c, 4, 65, 55
5, 161542, Note_off_c, 4, 64, 64
5, 161787, Note_off_c, 4, 65, 64
5, 162240, Note_on_c, 4, 65, 51
5, 162345, Note_off_c, 4, 65, 64
5, 162350, Note_on_c, 4, 67, 53
5, 162417, Note_on_c, 4, 65, 53
5, 162422, Note_off_c, 4, 67, 64
5, 162485, Note_off_c, 4, 65, 64
5, 162485, Note_on_c, 4, 67, 62
5, 162542, Note_off_c, 4, 67, 64
5, 162542, Note_on_c, 4, 65, 61
5, 162620, Note_on_c, 4, 67, 57
5, 162630, Note_off_c, 4, 65, 64
5, 162710, Note_off_c, 4, 67, 64
5, 162710, Note_on_c, 4, 65, 48
5, 162865, Note_on_c, 4, 67, 57
5, 162887, Note_off_c, 4, 65, 64
5, 163020, Note_on_c, 4, 69, 49
5, 163062, Note_off_c, 4, 67, 64
5, 163172, Note_on_c, 4, 65, 63
5, 163195, Note_off_c, 4, 69, 64
5, 163330, Note_on_c, 4, 64, 53
5, 163350, Note_off_c, 4, 65, 64
5, 163477, Note_on_c, 4, 67, 57
5, 163497, Note_off_c, 4, 64, 64
5, 163655, Note_on_c, 4, 65, 73
5, 163670, Note_off_c, 4, 67, 64
5, 163805, Note_on_c, 4, 64, 57
5, 163827, Note_off_c, 4, 65, 64
5, 163972, Note_on_c, 4, 70, 57
5, 163987, Note_off_c, 4, 64, 64
5, 164150, Note_on_c, 4, 67, 64
5, 164195, Note_off_c, 4, 70, 64
5, 164302, Note_on_c, 4, 65, 50
5, 164312, Note_off_c, 4, 67, 64
5, 164465, Note_on_c, 4, 69, 55
5, 164480, Note_off_c, 4, 65, 64
5, 164640, Note_on_c, 4, 67, 68
5, 164665, Note_off_c, 4, 69, 64
5, 164797, Note_on_c, 4, 65, 60
5, 164822, Note_off_c, 4, 67, 64
5, 164955, Note_on_c, 4, 72, 68
5, 164962, Note_off_c, 4, 65, 64
5, 165137, Note_on_c, 4, 69, 67
5, 165150, Note_off_c, 4, 72, 64
5, 165487, Note_off_c, 4, 69, 64
5, 166080, Note_on_c, 4, 67, 79
5, 166182, Control_c, 4, 64, 127
5, 166182, Control_c, 4, 64, 127
5, 166182, Control_c, 4, 64, 127
5, 166237, Note_on_c, 4, 70, 90
5, 166245, Note_off_c, 4, 67, 64
5, 166377, Note_off_c, 4, 70, 64
5, 166377, Note_on_c, 4, 74, 83
5, 166415, Note_off_c, 4, 74, 64
5, 166560, Note_on_c, 4, 79, 79
5, 166592, Control_c, 4, 64, 0
5, 166592, Control_c, 4, 64, 0
5, 166592, Control_c, 4, 64, 0
5, 166717, Note_on_c, 4, 82, 90
5, 166750, Note_off_c, 4, 79, 64
5, 166877, Note_on_c, 4, 86, 79
5, 166915, Note_off_c, 4, 82, 64
5, 166972, Note_off_c, 4, 86, 64
5, 167055, Note_on_c, 4, 86, 79
5, 167165, Note_on_c, 4, 84, 73
5, 167180, Note_off_c, 4, 86, 64
5, 167285, Note_on_c, 4, 82, 94
5, 167302, Note_off_c, 4, 84, 64
5, 167400, Note_on_c, 4, 81, 90
5, 167405, Note_off_c, 4, 82, 64
5, 167457, Note_off_c, 4, 81, 64
5, 167530, Note_on_c, 4, 81, 90
5, 167640, Note_on_c, 4, 79, 81
5, 167652, Note_off_c, 4, 81, 64
5, 167760, Note_on_c, 4, 77, 83
5, 167775, Note_off_c, 4, 79, 64
5, 167872, Note_on_c, 4, 76, 88
5, 167890, Note_off_c, 4, 77, 64
5, 168020, Note_on_c, 4, 77, 94
5, 168027, Note_off_c, 4, 76, 64
5, 168970, Note_off_c, 4, 77, 64
5, 170077, Note_on_c, 4, 81, 69
5, 170222, Note_on_c, 4, 82, 69
5, 170245, Note_off_c, 4, 81, 64
5, 170375, Control_c, 4, 64, 127
5, 170375, Control_c, 4, 64, 127
5, 170375, Control_c, 4, 64, 127
5, 170400, Note_on_c, 4, 84, 78
5, 170425, Note_off_c, 4, 82, 64
5, 170467, Note_off_c, 4, 84, 64
5, 170567, Note_on_c, 4, 78, 86
5, 170610, Control_c, 4, 64, 0
5, 170610, Control_c, 4, 64, 0
5, 170610, Control_c, 4, 64, 0
5, 170712, Note_on_c, 4, 79, 69
5, 170730, Note_off_c, 4, 78, 64
5, 170875, Note_on_c, 4, 81, 72
5, 170895, Note_off_c, 4, 79, 64
5, 170902, Control_c, 4, 64, 127
5, 170902, Control_c, 4, 64, 127
5, 170902, Control_c, 4, 64, 127
5, 170932, Note_off_c, 4, 81, 64
5, 171047, Note_on_c, 4, 72, 75
5, 171047, Control_c, 4, 64, 0
5, 171047, Control_c, 4, 64, 0
5, 171047, Control_c, 4, 64, 0
5, 171190, Note_on_c, 4, 74, 83
5, 171212, Note_off_c, 4, 72, 64
5, 171360, Note_on_c, 4, 75, 70
5, 171385, Note_off_c, 4, 74, 64
5, 171402, Control_c, 4, 64, 127
5, 171402, Control_c, 4, 64, 127
5, 171402, Control_c, 4, 64, 127
5, 171455, Note_off_c, 4, 75, 64
5, 171515, Note_on_c, 4, 69, 72
5, 171517, Control_c, 4, 64, 0
5, 171517, Control_c, 4, 64, 0
5, 171517, Control_c, 4, 64, 0
5, 171672, Note_off_c, 4, 69, 64
5, 171672, Note_on_c, 4, 72, 72
5, 171850, Note_on_c, 4, 70, 86
5, 171880, Note_off_c, 4, 72, 64
5, 172915, Note_off_c, 4, 70, 64
5, 173900, Note_on_c, 4, 74, 66
5, 174060, Note_on_c, 4, 75, 60
5, 174075, Note_off_c, 4, 74, 64
5, 174230, Note_on_c, 4, 77, 69
5, 174250, Note_off_c, 4, 75, 64
5, 174292, Note_off_c, 4, 77, 64
5, 174395, Note_on_c, 4, 71, 55
5, 174537, Note_on_c, 4, 72, 68
5, 174557, Note_off_c, 4, 71, 64
5, 174702, Note_on_c, 4, 74, 78
5, 174715, Note_off_c, 4, 72, 64
5, 174742, Control_c, 4, 64, 127
5, 174742, Control_c, 4, 64, 127
5, 174742, Control_c, 4, 64, 127
5, 174747, Note_off_c, 4, 74, 64
5, 174860, Control_c, 4, 64, 0
5, 174862, Control_c, 4, 64, 0
5, 174862, Control_c, 4, 64, 0
5, 174872, Note_on_c, 4, 65, 68
5, 175017, Note_on_c, 4, 67, 69
5, 175032, Note_off_c, 4, 65, 64
5, 175175, Note_on_c, 4, 68, 62
5, 175185, Control_c, 4, 64, 127
5, 175185, Control_c, 4, 64, 127
5, 175185, Control_c, 4, 64, 127
5, 175190, Note_off_c, 4, 67, 64
5, 175232, Note_off_c, 4, 68, 64
5, 175337, Note_on_c, 4, 62, 66
5, 175362, Control_c, 4, 64, 0
5, 175362, Control_c, 4, 64, 0
5, 175362, Control_c, 4, 64, 0
5, 175492, Note_on_c, 4, 65, 70
5, 175500, Note_off_c, 4, 62, 64
5, 175660, Note_on_c, 4, 64, 79
5, 175672, Note_off_c, 4, 65, 64
5, 176700, Note_off_c, 4, 64, 64
5, 177765, Note_on_c, 4, 82, 54
5, 177767, Note_on_c, 4, 79, 47
5, 177912, Note_off_c, 4, 79, 64
5, 177917, Note_on_c, 4, 81, 45
5, 177922, Note_on_c, 4, 78, 47
5, 177930, Note_off_c, 4, 82, 64
5, 178057, Note_off_c, 4, 78, 64
5, 178065, Note_off_c, 4, 81, 64
5, 178075, Note_on_c, 4, 79, 66
5, 178075, Note_on_c, 4, 82, 70
5, 178232, Note_off_c, 4, 79, 64
5, 178237, Note_on_c, 4, 81, 35
5, 178237, Note_on_c, 4, 78, 49
5, 178242, Note_off_c, 4, 82, 64
5, 178367, Note_off_c, 4, 78, 64
5, 178372, Note_off_c, 4, 81, 64
5, 178392, Note_on_c, 4, 82, 54
5, 178392, Note_on_c, 4, 79, 47
5, 178437, Note_off_c, 4, 82, 64
5, 178442, Note_off_c, 4, 79, 64
5, 178700, Note_on_c, 4, 70, 47
5, 178707, Note_on_c, 4, 67, 42
5, 178847, Note_off_c, 4, 67, 64
5, 178857, Note_off_c, 4, 70, 64
5, 178857, Note_on_c, 4, 69, 52
5, 178870, Note_on_c, 4, 66, 47
5, 178997, Note_off_c, 4, 66, 64
5, 178997, Note_off_c, 4, 69, 64
5, 179020, Note_on_c, 4, 70, 66
5, 179020, Note_on_c, 4, 67, 58
5, 179182, Note_off_c, 4, 67, 64
5, 179182, Note_off_c, 4, 70, 64
5, 179182, Note_on_c, 4, 66, 55
5, 179187, Note_on_c, 4, 69, 60
5, 179302, Note_off_c, 4, 66, 64
5, 179312, Note_off_c, 4, 69, 64
5, 179347, Note_on_c, 4, 70, 57
5, 179347, Note_on_c, 4, 67, 58
5, 179390, Note_off_c, 4, 70, 64
5, 179395, Note_off_c, 4, 67, 64
5, 179525, Note_on_c, 4, 66, 102
5, 179530, Note_on_c, 4, 69, 92
5, 179650, Note_off_c, 4, 69, 64
5, 179657, Note_off_c, 4, 66, 64
5, 179947, Note_on_c, 4, 66, 79
5, 180017, Note_on_c, 4, 69, 83
5, 180075, Note_on_c, 4, 75, 119
5, 180575, Note_off_c, 4, 66, 64
5, 180595, Note_off_c, 4, 69, 64
5, 180600, Note_off_c, 4, 75, 64
5, 181412, Note_on_c, 4, 74, 61
5, 181522, Note_off_c, 4, 74, 64
5, 181545, Note_on_c, 4, 79, 59
5, 181607, Note_off_c, 4, 79, 64
5, 181655, Note_on_c, 4, 78, 66
5, 181732, Note_off_c, 4, 78, 64
5, 181762, Note_on_c, 4, 79, 66
5, 181822, Note_off_c, 4, 79, 64
5, 181900, Note_on_c, 4, 81, 61
5, 181982, Note_off_c, 4, 81, 64
5, 182015, Note_on_c, 4, 79, 48
5, 182075, Note_off_c, 4, 79, 64
5, 182140, Note_on_c, 4, 78, 45
5, 182207, Note_off_c, 4, 78, 64
5, 182252, Note_on_c, 4, 79, 66
5, 182305, Note_off_c, 4, 79, 64
5, 182382, Note_on_c, 4, 82, 77
5, 182467, Note_off_c, 4, 82, 64
5, 182507, Note_on_c, 4, 79, 46
5, 182600, Note_off_c, 4, 79, 64
5, 182630, Note_on_c, 4, 78, 49
5, 182722, Note_off_c, 4, 78, 64
5, 182750, Note_on_c, 4, 79, 51
5, 182822, Note_off_c, 4, 79, 64
5, 182890, Note_on_c, 4, 75, 97
5, 183000, Note_off_c, 4, 75, 64
5, 183005, Note_on_c, 4, 79, 57
5, 183120, Note_on_c, 4, 78, 38
5, 183130, Note_off_c, 4, 79, 64
5, 183225, Note_on_c, 4, 79, 50
5, 183235, Note_off_c, 4, 78, 64
5, 183292, Note_off_c, 4, 79, 64
5, 183370, Note_on_c, 4, 74, 73
5, 183490, Note_on_c, 4, 79, 52
5, 183492, Note_off_c, 4, 74, 64
5, 183610, Note_off_c, 4, 79, 64
5, 183610, Note_on_c, 4, 78, 39
5, 183720, Note_on_c, 4, 79, 50
5, 183735, Note_off_c, 4, 78, 64
5, 183815, Note_off_c, 4, 79, 64
5, 183842, Note_on_c, 4, 81, 79
5, 183962, Note_on_c, 4, 79, 47
5, 183970, Note_off_c, 4, 81, 64
5, 184085, Note_off_c, 4, 79, 64
5, 184097, Note_on_c, 4, 78, 37
5, 184195, Note_off_c, 4, 78, 64
5, 184202, Note_on_c, 4, 79, 54
5, 184272, Note_off_c, 4, 79, 64
5, 184325, Note_on_c, 4, 82, 90
5, 184412, Note_off_c, 4, 82, 64
5, 184442, Note_on_c, 4, 79, 57
5, 184565, Note_off_c, 4, 79, 64
5, 184570, Note_on_c, 4, 78, 37
5, 184665, Note_off_c, 4, 78, 64
5, 184680, Note_on_c, 4, 79, 52
5, 184752, Note_off_c, 4, 79, 64
5, 184812, Note_on_c, 4, 72, 83
5, 184877, Note_off_c, 4, 72, 64
5, 184927, Note_on_c, 4, 79, 54
5, 185010, Note_off_c, 4, 79, 64
5, 185035, Note_on_c, 4, 78, 77
5, 185120, Note_off_c, 4, 78, 64
5, 185150, Note_on_c, 4, 79, 60
5, 185202, Note_off_c, 4, 79, 64
5, 185300, Note_on_c, 4, 70, 81
5, 185530, Note_on_c, 4, 79, 79
5, 185540, Note_off_c, 4, 70, 64
5, 185765, Note_on_c, 4, 71, 60
5, 185772, Note_off_c, 4, 79, 64
5, 186000, Note_on_c, 4, 77, 69
5, 186012, Note_off_c, 4, 71, 64
5, 186235, Note_on_c, 4, 72, 64
5, 186250, Note_off_c, 4, 77, 64
5, 186485, Note_on_c, 4, 75, 81
5, 186505, Note_off_c, 4, 72, 64
5, 186850, Note_off_c, 4, 75, 64
5, 186957, Note_on_c, 4, 74, 72
5, 187040, Note_off_c, 4, 74, 64
5, 187185, Note_on_c, 4, 77, 73
5, 187330, Note_on_c, 4, 75, 57
5, 187345, Note_off_c, 4, 77, 64
5, 187392, Note_off_c, 4, 75, 64
5, 187392, Note_on_c, 4, 77, 79
5, 187445, Note_on_c, 4, 75, 90
5, 187452, Note_off_c, 4, 77, 64
5, 187507, Note_off_c, 4, 75, 64
5, 187507, Note_on_c, 4, 77, 86
5, 187550, Note_off_c, 4, 77, 64
5, 187550, Note_on_c, 4, 75, 86
5, 187602, Note_off_c, 4, 75, 64
5, 187602, Note_on_c, 4, 77, 97
5, 187645, Note_off_c, 4, 77, 64
5, 187655, Note_on_c, 4, 75, 97
5, 187685, Note_off_c, 4, 75, 64
5, 187685, Note_on_c, 4, 77, 97
5, 187750, Note_off_c, 4, 77, 64
5, 187760, Note_on_c, 4, 75, 90
5, 187805, Note_off_c, 4, 75, 64
5, 187805, Note_on_c, 4, 77, 94
5, 187850, Note_off_c, 4, 77, 64
5, 187850, Note_on_c, 4, 75, 90
5, 187912, Note_off_c, 4, 75, 64
5, 187912, Note_on_c, 4, 74, 83
5, 187977, Note_off_c, 4, 74, 64
5, 188035, Note_on_c, 4, 72, 83
5, 188082, Note_off_c, 4, 72, 64
5, 188175, Note_on_c, 4, 70, 79
5, 188597, Note_off_c, 4, 70, 64
5, 188625, Note_on_c, 4, 69, 74
5, 188680, Note_off_c, 4, 69, 64
5, 188682, Note_on_c, 4, 70, 79
5, 188732, Note_off_c, 4, 70, 64
5, 188735, Note_on_c, 4, 69, 65
5, 188770, Note_on_c, 4, 70, 84
5, 188777, Note_off_c, 4, 69, 64
5, 188822, Note_on_c, 4, 69, 66
5, 188832, Note_off_c, 4, 70, 64
5, 188890, Note_on_c, 4, 67, 52
5, 188902, Note_off_c, 4, 69, 64
5, 188980, Note_on_c, 4, 69, 77
5, 189000, Note_off_c, 4, 67, 64
5, 189060, Note_off_c, 4, 69, 64
5, 189125, Note_on_c, 4, 70, 66
5, 189360, Note_on_c, 4, 79, 75
5, 189385, Note_off_c, 4, 70, 64
5, 189600, Note_on_c, 4, 71, 57
5, 189610, Note_off_c, 4, 79, 64
5, 189837, Note_on_c, 4, 77, 75
5, 189842, Note_off_c, 4, 71, 64
5, 190065, Note_on_c, 4, 72, 66
5, 190075, Note_off_c, 4, 77, 64
5, 190315, Note_on_c, 4, 75, 68
5, 190325, Note_off_c, 4, 72, 64
5, 190797, Note_on_c, 4, 74, 69
5, 190820, Note_off_c, 4, 75, 64
5, 190930, Note_off_c, 4, 74, 64
5, 191030, Note_on_c, 4, 77, 68
5, 191145, Note_on_c, 4, 75, 72
5, 191160, Note_off_c, 4, 77, 64
5, 191207, Note_on_c, 4, 77, 65
5, 191212, Note_off_c, 4, 75, 64
5, 191257, Note_off_c, 4, 77, 64
5, 191257, Note_on_c, 4, 75, 79
5, 191320, Note_off_c, 4, 75, 64
5, 191320, Note_on_c, 4, 77, 90
5, 191362, Note_off_c, 4, 77, 64
5, 191372, Note_on_c, 4, 75, 97
5, 191425, Note_off_c, 4, 75, 64
5, 191425, Note_on_c, 4, 77, 90
5, 191462, Note_off_c, 4, 77, 64
5, 191472, Note_on_c, 4, 75, 86
5, 191505, Note_off_c, 4, 75, 64
5, 191507, Note_on_c, 4, 77, 90
5, 191547, Note_off_c, 4, 77, 64
5, 191557, Note_on_c, 4, 75, 97
5, 191597, Note_on_c, 4, 77, 97
5, 191600, Note_off_c, 4, 75, 64
5, 191637, Note_off_c, 4, 77, 64
5, 191640, Note_on_c, 4, 75, 81
5, 191712, Note_off_c, 4, 75, 64
5, 191715, Note_on_c, 4, 74, 73
5, 191770, Note_off_c, 4, 74, 64
5, 191837, Note_on_c, 4, 72, 86
5, 191882, Note_off_c, 4, 72, 64
5, 191980, Note_on_c, 4, 70, 102
5, 192450, Note_off_c, 4, 70, 64
5, 192455, Note_on_c, 4, 69, 59
5, 192515, Note_off_c, 4, 69, 64
5, 192522, Note_on_c, 4, 70, 74
5, 192567, Note_off_c, 4, 70, 64
5, 192572, Note_on_c, 4, 69, 63
5, 192615, Note_off_c, 4, 69, 64
5, 192615, Note_on_c, 4, 70, 83
5, 192662, Note_on_c, 4, 69, 59
5, 192690, Note_off_c, 4, 69, 64
5, 192720, Control_c, 4, 64, 127
5, 192720, Control_c, 4, 64, 127
5, 192720, Control_c, 4, 64, 127
5, 192727, Note_on_c, 4, 69, 68
5, 192732, Note_off_c, 4, 70, 64
5, 192777, Control_c, 4, 64, 0
5, 192777, Control_c, 4, 64, 0
5, 192782, Control_c, 4, 64, 0
5, 192792, Note_on_c, 4, 67, 66
5, 192795, Note_off_c, 4, 69, 64
5, 192857, Note_on_c, 4, 69, 55
5, 192862, Note_off_c, 4, 67, 64
5, 192952, Note_off_c, 4, 69, 64
5, 192952, Note_on_c, 4, 67, 61
5, 193325, Note_off_c, 4, 67, 64
5, 193675, Note_on_c, 4, 67, 62
5, 193852, Note_off_c, 4, 67, 64
5, 193915, Note_on_c, 4, 70, 72
5, 194317, Note_off_c, 4, 70, 64
5, 194630, Note_on_c, 4, 70, 73
5, 194892, Note_on_c, 4, 75, 64
5, 194917, Note_off_c, 4, 70, 64
5, 195230, Note_off_c, 4, 75, 64
5, 195592, Note_on_c, 4, 75, 75
5, 195835, Note_off_c, 4, 75, 64
5, 195840, Note_on_c, 4, 79, 70
5, 196155, Note_off_c, 4, 79, 64
5, 196560, Note_on_c, 4, 79, 79
5, 196732, Note_off_c, 4, 79, 64
5, 196805, Note_on_c, 4, 80, 102
5, 196930, Note_on_c, 4, 82, 74
5, 196957, Note_off_c, 4, 80, 64
5, 197050, Note_on_c, 4, 80, 102
5, 197092, Note_off_c, 4, 82, 64
5, 197165, Note_on_c, 4, 79, 75
5, 197202, Note_off_c, 4, 80, 64
5, 197295, Note_on_c, 4, 77, 94
5, 197305, Note_off_c, 4, 79, 64
5, 197410, Note_on_c, 4, 79, 86
5, 197425, Note_off_c, 4, 77, 64
5, 197530, Note_on_c, 4, 77, 73
5, 197542, Note_off_c, 4, 79, 64
5, 197645, Note_on_c, 4, 75, 92
5, 197650, Note_off_c, 4, 77, 64
5, 197762, Note_on_c, 4, 74, 94
5, 197775, Note_off_c, 4, 75, 64
5, 197880, Note_on_c, 4, 75, 92
5, 197900, Note_off_c, 4, 74, 64
5, 197995, Note_on_c, 4, 74, 70
5, 198027, Note_off_c, 4, 75, 64
5, 198105, Note_on_c, 4, 72, 53
5, 198120, Note_off_c, 4, 74, 64
5, 198232, Note_on_c, 4, 70, 79
5, 198245, Note_off_c, 4, 72, 64
5, 198352, Note_on_c, 4, 72, 57
5, 198377, Note_off_c, 4, 70, 64
5, 198485, Note_on_c, 4, 70, 44
5, 198507, Note_off_c, 4, 72, 64
5, 198595, Note_on_c, 4, 68, 52
5, 198615, Note_off_c, 4, 70, 64
5, 198680, Note_off_c, 4, 68, 64
5, 198845, Note_on_c, 4, 67, 42
5, 198960, Note_on_c, 4, 68, 42
5, 198972, Note_off_c, 4, 67, 64
5, 199080, Note_on_c, 4, 67, 50
5, 199100, Note_off_c, 4, 68, 64
5, 199160, Note_off_c, 4, 67, 64
5, 199327, Note_on_c, 4, 70, 35
5, 199435, Note_on_c, 4, 72, 55
5, 199452, Note_off_c, 4, 70, 64
5, 199555, Note_on_c, 4, 70, 57
5, 199560, Note_off_c, 4, 72, 64
5, 199592, Note_off_c, 4, 70, 64
5, 199785, Note_on_c, 4, 75, 49
5, 199917, Note_on_c, 4, 77, 59
5, 199932, Note_off_c, 4, 75, 64
5, 200035, Note_on_c, 4, 75, 50
5, 200055, Note_off_c, 4, 77, 64
5, 200095, Note_off_c, 4, 75, 64
5, 200280, Note_on_c, 4, 79, 66
5, 200407, Note_on_c, 4, 80, 56
5, 200422, Note_off_c, 4, 79, 64
5, 200525, Note_on_c, 4, 79, 44
5, 200530, Note_off_c, 4, 80, 64
5, 200625, Note_off_c, 4, 79, 64
5, 200650, Note_on_c, 4, 80, 102
5, 200760, Note_on_c, 4, 82, 78
5, 200782, Note_off_c, 4, 80, 64
5, 200880, Note_on_c, 4, 80, 63
5, 200980, Note_off_c, 4, 82, 64
5, 200987, Note_on_c, 4, 79, 75
5, 201027, Note_off_c, 4, 80, 64
5, 201115, Note_on_c, 4, 77, 83
5, 201130, Note_off_c, 4, 79, 64
5, 201225, Note_on_c, 4, 79, 63
5, 201245, Note_off_c, 4, 77, 64
5, 201345, Note_on_c, 4, 77, 70
5, 201357, Note_off_c, 4, 79, 64
5, 201465, Note_off_c, 4, 77, 64
5, 201465, Note_on_c, 4, 75, 97
5, 201590, Note_on_c, 4, 74, 88
5, 201610, Note_off_c, 4, 75, 64
5, 201700, Note_on_c, 4, 75, 60
5, 201735, Note_off_c, 4, 74, 64
5, 201845, Note_on_c, 4, 74, 60
5, 201887, Note_off_c, 4, 75, 64
5, 201947, Note_on_c, 4, 72, 54
5, 201960, Note_off_c, 4, 74, 64
5, 202070, Note_off_c, 4, 72, 64
5, 202075, Note_on_c, 4, 70, 92
5, 202190, Note_off_c, 4, 70, 64
5, 202190, Note_on_c, 4, 72, 59
5, 202305, Note_on_c, 4, 70, 54
5, 202330, Note_off_c, 4, 72, 64
5, 202415, Note_on_c, 4, 68, 50
5, 202452, Note_off_c, 4, 70, 64
5, 202542, Note_off_c, 4, 68, 64
5, 202547, Note_on_c, 4, 67, 44
5, 202665, Note_off_c, 4, 67, 64
5, 202685, Note_on_c, 4, 69, 32
5, 202780, Note_on_c, 4, 70, 51
5, 202797, Note_off_c, 4, 69, 64
5, 202907, Note_off_c, 4, 70, 64
5, 202907, Note_on_c, 4, 69, 42
5, 203030, Note_on_c, 4, 70, 49
5, 203045, Note_off_c, 4, 69, 64
5, 203150, Note_on_c, 4, 71, 44
5, 203155, Note_off_c, 4, 70, 64
5, 203272, Note_off_c, 4, 71, 64
5, 203272, Note_on_c, 4, 72, 43
5, 203385, Note_on_c, 4, 71, 63
5, 203390, Note_off_c, 4, 72, 64
5, 203515, Note_on_c, 4, 72, 51
5, 203530, Note_off_c, 4, 71, 64
5, 203635, Note_on_c, 4, 74, 59
5, 203647, Note_off_c, 4, 72, 64
5, 203747, Note_on_c, 4, 75, 52
5, 203757, Note_off_c, 4, 74, 64
5, 203852, Note_off_c, 4, 75, 64
5, 203855, Note_on_c, 4, 74, 57
5, 203990, Note_on_c, 4, 75, 50
5, 204010, Note_off_c, 4, 74, 64
5, 204105, Note_on_c, 4, 78, 50
5, 204120, Note_off_c, 4, 75, 64
5, 204220, Note_on_c, 4, 79, 64
5, 204240, Note_off_c, 4, 78, 64
5, 204332, Note_on_c, 4, 78, 86
5, 204350, Note_off_c, 4, 79, 64
5, 204472, Note_off_c, 4, 78, 64
5, 204472, Note_on_c, 4, 79, 78
5, 204585, Note_on_c, 4, 81, 81
5, 204602, Note_off_c, 4, 79, 64
5, 204712, Note_on_c, 4, 82, 97
5, 204730, Note_off_c, 4, 81, 64
5, 204815, Note_on_c, 4, 81, 90
5, 204840, Note_off_c, 4, 82, 64
5, 204945, Note_on_c, 4, 82, 108
5, 204970, Note_off_c, 4, 81, 64
5, 205060, Note_on_c, 4, 81, 97
5, 205075, Note_off_c, 4, 82, 64
5, 205180, Note_on_c, 4, 82, 108
5, 205200, Note_off_c, 4, 81, 64
5, 205295, Note_on_c, 4, 81, 92
5, 205320, Note_off_c, 4, 82, 64
5, 205450, Note_on_c, 4, 82, 112
5, 205470, Note_off_c, 4, 81, 64
5, 205577, Note_off_c, 4, 82, 64
5, 205920, Note_on_c, 4, 72, 90
5, 205920, Note_on_c, 4, 70, 83
5, 205920, Note_on_c, 4, 76, 81
5, 205920, Note_on_c, 4, 67, 79
5, 206070, Note_off_c, 4, 70, 64
5, 206075, Note_off_c, 4, 67, 64
5, 206082, Note_off_c, 4, 72, 64
5, 206082, Note_off_c, 4, 76, 64
5, 206400, Note_on_c, 4, 72, 92
5, 206400, Note_on_c, 4, 69, 89
5, 206400, Note_on_c, 4, 77, 89
5, 206600, Note_off_c, 4, 69, 64
5, 206600, Note_off_c, 4, 72, 64
5, 206610, Note_off_c, 4, 77, 64
5, 207010, Note_on_c, 4, 82, 54
5, 207147, Note_on_c, 4, 79, 53
5, 207200, Note_off_c, 4, 82, 64
5, 207240, Note_off_c, 4, 79, 64
5, 207247, Note_on_c, 4, 76, 54
5, 207375, Note_on_c, 4, 77, 47
5, 207380, Note_off_c, 4, 76, 64
5, 207532, Note_off_c, 4, 77, 64
5, 207960, Note_on_c, 4, 82, 57
5, 208075, Note_on_c, 4, 79, 66
5, 208100, Note_off_c, 4, 82, 64
5, 208195, Note_on_c, 4, 76, 62
5, 208220, Note_off_c, 4, 79, 64
5, 208325, Note_on_c, 4, 77, 60
5, 208335, Note_off_c, 4, 76, 64
5, 208462, Note_off_c, 4, 77, 64
5, 209027, Note_on_c, 4, 78, 77
5, 209152, Note_on_c, 4, 79, 43
5, 209155, Note_off_c, 4, 78, 64
5, 209277, Note_on_c, 4, 76, 73
5, 209280, Note_off_c, 4, 79, 64
5, 209385, Note_on_c, 4, 77, 46
5, 209395, Note_off_c, 4, 76, 64
5, 209510, Note_on_c, 4, 74, 62
5, 209520, Note_off_c, 4, 77, 64
5, 209620, Note_on_c, 4, 75, 86
5, 209637, Note_off_c, 4, 74, 64
5, 209745, Note_off_c, 4, 75, 64
5, 209745, Note_on_c, 4, 73, 90
5, 209860, Note_on_c, 4, 74, 62
5, 209880, Note_off_c, 4, 73, 64
5, 209995, Note_on_c, 4, 71, 54
5, 210005, Note_off_c, 4, 74, 64
5, 210115, Note_on_c, 4, 72, 43
5, 210122, Note_off_c, 4, 71, 64
5, 210200, Note_off_c, 4, 72, 64
5, 210230, Note_on_c, 4, 70, 108
5, 210302, Note_on_c, 4, 72, 83
5, 210322, Note_off_c, 4, 70, 64
5, 210362, Note_on_c, 4, 70, 77
5, 210370, Note_off_c, 4, 72, 64
5, 210412, Note_on_c, 4, 72, 81
5, 210417, Note_off_c, 4, 70, 64
5, 210432, Control_c, 4, 64, 127
5, 210432, Control_c, 4, 64, 127
5, 210432, Control_c, 4, 64, 127
5, 210470, Note_on_c, 4, 70, 90
5, 210475, Note_off_c, 4, 72, 64
5, 210522, Note_off_c, 4, 70, 64
5, 210522, Note_on_c, 4, 72, 92
5, 210575, Note_on_c, 4, 70, 97
5, 210582, Note_off_c, 4, 72, 64
5, 210635, Note_on_c, 4, 72, 79
5, 210652, Note_off_c, 4, 70, 64
5, 210720, Note_on_c, 4, 70, 108
5, 210725, Control_c, 4, 64, 0
5, 210725, Control_c, 4, 64, 0
5, 210725, Control_c, 4, 64, 0
5, 210730, Note_off_c, 4, 72, 64
5, 210892, Note_on_c, 4, 72, 102
5, 210915, Note_off_c, 4, 70, 64
5, 211060, Note_on_c, 4, 74, 83
5, 211087, Note_off_c, 4, 72, 64
5, 211215, Note_on_c, 4, 70, 102
5, 211245, Note_off_c, 4, 74, 64
5, 211375, Note_on_c, 4, 69, 66
5, 211400, Note_off_c, 4, 70, 64
5, 211530, Note_on_c, 4, 72, 83
5, 211545, Note_off_c, 4, 69, 64
5, 211700, Note_on_c, 4, 70, 102
5, 211732, Note_off_c, 4, 72, 64
5, 211857, Note_on_c, 4, 69, 75
5, 211890, Note_off_c, 4, 70, 64
5, 212020, Note_off_c, 4, 69, 64
5, 212020, Note_on_c, 4, 75, 75
5, 212177, Note_off_c, 4, 75, 64
5, 212177, Note_on_c, 4, 72, 79
5, 212332, Note_on_c, 4, 70, 54
5, 212350, Note_off_c, 4, 72, 64
5, 212485, Note_on_c, 4, 74, 68
5, 212505, Note_off_c, 4, 70, 64
5, 212645, Note_on_c, 4, 72, 99
5, 212665, Note_off_c, 4, 74, 64
5, 212807, Note_on_c, 4, 70, 75
5, 212832, Note_off_c, 4, 72, 64
5, 212970, Note_on_c, 4, 77, 83
5, 212985, Note_off_c, 4, 70, 64
5, 213147, Note_on_c, 4, 74, 79
5, 213172, Note_off_c, 4, 77, 64
5, 213495, Note_off_c, 4, 74, 64
5, 214080, Note_on_c, 4, 79, 88
5, 214080, Note_on_c, 4, 75, 94
5, 214080, Note_on_c, 4, 70, 83
5, 214237, Note_off_c, 4, 75, 64
5, 214247, Note_off_c, 4, 79, 64
5, 214265, Note_off_c, 4, 70, 64
5, 214560, Note_on_c, 4, 77, 81
5, 214565, Note_on_c, 4, 70, 67
5, 214565, Note_on_c, 4, 74, 79
5, 214750, Note_off_c, 4, 74, 64
5, 214750, Note_off_c, 4, 70, 64
5, 214762, Note_off_c, 4, 77, 64
5, 215055, Note_on_c, 4, 77, 79
5, 215165, Note_on_c, 4, 82, 86
5, 215182, Note_off_c, 4, 77, 64
5, 215285, Note_on_c, 4, 81, 88
5, 215307, Note_off_c, 4, 82, 64
5, 215400, Note_on_c, 4, 82, 77
5, 215415, Note_off_c, 4, 81, 64
5, 215510, Note_off_c, 4, 82, 64
5, 215520, Note_on_c, 4, 84, 94
5, 215635, Note_on_c, 4, 82, 77
5, 215667, Note_off_c, 4, 84, 64
5, 215760, Note_on_c, 4, 81, 69
5, 215770, Note_off_c, 4, 82, 64
5, 215865, Note_on_c, 4, 82, 79
5, 215875, Note_off_c, 4, 81, 64
5, 215900, Note_off_c, 4, 82, 64
5, 216020, Note_on_c, 4, 77, 77
5, 216022, Note_on_c, 4, 74, 94
5, 216125, Note_on_c, 4, 75, 97
5, 216130, Note_on_c, 4, 72, 64
5, 216135, Note_off_c, 4, 77, 64
5, 216172, Note_off_c, 4, 74, 64
5, 216367, Note_off_c, 4, 75, 64
5, 216367, Note_off_c, 4, 72, 64
5, 216485, Note_on_c, 4, 74, 74
5, 216485, Note_on_c, 4, 70, 81
5, 216700, Note_off_c, 4, 74, 64
5, 216710, Note_off_c, 4, 70, 64
5, 217902, Note_on_c, 4, 58, 51
5, 217997, Note_on_c, 4, 60, 53
5, 218002, Note_off_c, 4, 58, 64
5, 218085, Note_on_c, 4, 58, 40
5, 218087, Note_off_c, 4, 60, 64
5, 218147, Note_off_c, 4, 58, 64
5, 218150, Note_on_c, 4, 60, 53
5, 218210, Note_off_c, 4, 60, 64
5, 218210, Note_on_c, 4, 58, 49
5, 218272, Note_on_c, 4, 60, 63
5, 218282, Note_off_c, 4, 58, 64
5, 218357, Note_off_c, 4, 60, 64
5, 218360, Note_on_c, 4, 58, 51
5, 218540, Note_on_c, 4, 60, 49
5, 218580, Note_off_c, 4, 58, 64
5, 218707, Note_on_c, 4, 62, 55
5, 218727, Note_off_c, 4, 60, 64
5, 218880, Note_on_c, 4, 58, 49
5, 218905, Note_off_c, 4, 62, 64
5, 219042, Note_on_c, 4, 57, 53
5, 219072, Note_off_c, 4, 58, 64
5, 219197, Note_on_c, 4, 60, 61
5, 219225, Note_off_c, 4, 57, 64
5, 219370, Note_on_c, 4, 58, 53
5, 219380, Note_off_c, 4, 60, 64
5, 219522, Note_on_c, 4, 57, 40
5, 219547, Note_off_c, 4, 58, 64
5, 219690, Note_on_c, 4, 63, 54
5, 219760, Note_off_c, 4, 57, 64
5, 219867, Note_off_c, 4, 63, 64
5, 219867, Note_on_c, 4, 60, 63
5, 220017, Note_off_c, 4, 60, 64
5, 220032, Note_on_c, 4, 58, 37
5, 220187, Note_on_c, 4, 62, 49
5, 220210, Note_off_c, 4, 58, 64
5, 220365, Note_on_c, 4, 60, 59
5, 220387, Note_off_c, 4, 62, 64
5, 220502, Note_on_c, 4, 58, 45
5, 220517, Note_off_c, 4, 60, 64
5, 220675, Note_off_c, 4, 58, 64
5, 220675, Note_on_c, 4, 65, 58
5, 220852, Note_on_c, 4, 62, 53
5, 220885, Note_off_c, 4, 65, 64
5, 221082, Note_off_c, 4, 62, 64
5, 221750, Note_on_c, 4, 67, 84
5, 221915, Note_on_c, 4, 72, 83
5, 221957, Note_off_c, 4, 67, 64
5, 222062, Note_on_c, 4, 75, 90
5, 222085, Note_off_c, 4, 72, 64
5, 222220, Note_on_c, 4, 72, 90
5, 222250, Note_off_c, 4, 75, 64
5, 222385, Note_on_c, 4, 75, 74
5, 222395, Note_off_c, 4, 72, 64
5, 222547, Note_on_c, 4, 79, 78
5, 222585, Note_off_c, 4, 75, 64
5, 222642, Note_off_c, 4, 79, 64
5, 222732, Note_on_c, 4, 79, 79
5, 222835, Note_on_c, 4, 77, 77
5, 222852, Note_off_c, 4, 79, 64
5, 222960, Note_on_c, 4, 75, 97
5, 222980, Note_off_c, 4, 77, 64
5, 223065, Note_off_c, 4, 75, 64
5, 223070, Note_on_c, 4, 74, 46
5, 223127, Note_off_c, 4, 74, 64
5, 223197, Note_on_c, 4, 74, 94
5, 223315, Note_on_c, 4, 72, 72
5, 223335, Note_off_c, 4, 74, 64
5, 223430, Note_off_c, 4, 72, 64
5, 223445, Note_on_c, 4, 70, 51
5, 223545, Note_on_c, 4, 69, 72
5, 223565, Note_off_c, 4, 70, 64
5, 223685, Note_on_c, 4, 70, 97
5, 223695, Note_off_c, 4, 69, 64
5, 224372, Note_off_c, 4, 70, 64
5, 224875, Note_on_c, 4, 70, 50
5, 225105, Note_on_c, 4, 69, 70
5, 225140, Note_off_c, 4, 70, 64
5, 225345, Note_on_c, 4, 68, 64
5, 225365, Note_off_c, 4, 69, 64
5, 225587, Note_on_c, 4, 67, 75
5, 225595, Note_off_c, 4, 68, 64
5, 225830, Note_on_c, 4, 69, 65
5, 225847, Note_off_c, 4, 67, 64
5, 225945, Note_on_c, 4, 70, 90
5, 225965, Note_off_c, 4, 69, 64
5, 226060, Note_off_c, 4, 70, 64
5, 226077, Note_on_c, 4, 72, 70
5, 226185, Note_on_c, 4, 74, 75
5, 226210, Note_off_c, 4, 72, 64
5, 226305, Note_on_c, 4, 75, 79
5, 226325, Note_off_c, 4, 74, 64
5, 226410, Note_off_c, 4, 75, 64
5, 226410, Note_on_c, 4, 77, 65
5, 226535, Note_on_c, 4, 79, 86
5, 226542, Note_off_c, 4, 77, 64
5, 226657, Note_on_c, 4, 81, 81
5, 226690, Note_off_c, 4, 79, 64
5, 226785, Note_on_c, 4, 82, 94
5, 226817, Note_off_c, 4, 81, 64
5, 226910, Note_on_c, 4, 81, 83
5, 226940, Note_off_c, 4, 82, 64
5, 227040, Note_on_c, 4, 82, 94
5, 227065, Note_off_c, 4, 81, 64
5, 227165, Note_on_c, 4, 81, 86
5, 227207, Note_off_c, 4, 82, 64
5, 227280, Note_on_c, 4, 82, 79
5, 227312, Note_off_c, 4, 81, 64
5, 227390, Note_on_c, 4, 79, 72
5, 227442, Note_off_c, 4, 82, 64
5, 227542, Note_on_c, 4, 77, 68
5, 227567, Note_off_c, 4, 79, 64
5, 228197, Note_off_c, 4, 77, 64
5, 228740, Note_on_c, 4, 70, 48
5, 228985, Note_on_c, 4, 69, 63
5, 229012, Note_off_c, 4, 70, 64
5, 229225, Note_on_c, 4, 68, 66
5, 229252, Note_off_c, 4, 69, 64
5, 229467, Note_on_c, 4, 67, 70
5, 229487, Note_off_c, 4, 68, 64
5, 229717, Note_on_c, 4, 69, 70
5, 229737, Note_off_c, 4, 67, 64
5, 229825, Note_on_c, 4, 70, 73
5, 229857, Note_off_c, 4, 69, 64
5, 229950, Note_off_c, 4, 70, 64
5, 229952, Note_on_c, 4, 72, 64
5, 230065, Note_on_c, 4, 74, 52
5, 230082, Note_off_c, 4, 72, 64
5, 230187, Note_on_c, 4, 75, 83
5, 230217, Note_off_c, 4, 74, 64
5, 230300, Note_on_c, 4, 77, 65
5, 230305, Note_off_c, 4, 75, 64
5, 230425, Note_on_c, 4, 79, 74
5, 230435, Note_off_c, 4, 77, 64
5, 230532, Note_on_c, 4, 81, 79
5, 230582, Note_off_c, 4, 79, 64
5, 230650, Note_on_c, 4, 82, 84
5, 230677, Note_off_c, 4, 81, 64
5, 230760, Note_on_c, 4, 81, 77
5, 230787, Note_off_c, 4, 82, 64
5, 230887, Note_on_c, 4, 82, 90
5, 230915, Note_off_c, 4, 81, 64
5, 230995, Note_on_c, 4, 81, 83
5, 231032, Note_off_c, 4, 82, 64
5, 231120, Note_on_c, 4, 82, 79
5, 231162, Note_off_c, 4, 81, 64
5, 231242, Note_on_c, 4, 79, 68
5, 231265, Note_off_c, 4, 82, 64
5, 231375, Note_on_c, 4, 77, 57
5, 231400, Note_off_c, 4, 79, 64
5, 231700, Note_off_c, 4, 77, 64
5, 231950, Note_on_c, 4, 82, 70
5, 232075, Note_on_c, 4, 84, 64
5, 232122, Note_off_c, 4, 82, 64
5, 232182, Note_on_c, 4, 82, 63
5, 232185, Note_off_c, 4, 84, 64
5, 232245, Note_off_c, 4, 82, 64
5, 232310, Note_on_c, 4, 86, 90
5, 232380, Note_off_c, 4, 86, 64
5, 232425, Note_on_c, 4, 84, 86
5, 232477, Note_off_c, 4, 84, 64
5, 232550, Note_on_c, 4, 82, 90
5, 232592, Note_off_c, 4, 82, 64
5, 232655, Note_on_c, 4, 81, 86
5, 232707, Note_off_c, 4, 81, 64
5, 232780, Note_on_c, 4, 79, 94
5, 232827, Note_off_c, 4, 79, 64
5, 232905, Note_on_c, 4, 77, 83
5, 232947, Note_off_c, 4, 77, 64
5, 233025, Note_on_c, 4, 75, 99
5, 233067, Note_off_c, 4, 75, 64
5, 233140, Note_on_c, 4, 74, 84
5, 233192, Note_off_c, 4, 74, 64
5, 233270, Note_on_c, 4, 75, 83
5, 233497, Note_off_c, 4, 75, 64
5, 233870, Note_on_c, 4, 81, 46
5, 233980, Note_on_c, 4, 82, 46
5, 233985, Note_off_c, 4, 81, 64
5, 234085, Note_off_c, 4, 82, 64
5, 234100, Note_on_c, 4, 81, 50
5, 234155, Note_off_c, 4, 81, 64
5, 234215, Note_on_c, 4, 84, 64
5, 234265, Note_off_c, 4, 84, 64
5, 234330, Note_on_c, 4, 82, 70
5, 234377, Note_off_c, 4, 82, 64
5, 234450, Note_on_c, 4, 81, 70
5, 234485, Note_off_c, 4, 81, 64
5, 234570, Note_on_c, 4, 79, 49
5, 234615, Note_off_c, 4, 79, 64
5, 234692, Note_on_c, 4, 77, 57
5, 234720, Note_off_c, 4, 77, 64
5, 234802, Note_on_c, 4, 75, 67
5, 234842, Note_off_c, 4, 75, 64
5, 234927, Note_on_c, 4, 74, 50
5, 234960, Note_off_c, 4, 74, 64
5, 235040, Note_on_c, 4, 72, 44
5, 235075, Note_off_c, 4, 72, 64
5, 235170, Note_on_c, 4, 74, 54
5, 235435, Note_off_c, 4, 74, 64
5, 235790, Note_on_c, 4, 77, 83
5, 235905, Note_on_c, 4, 79, 83
5, 235930, Note_off_c, 4, 77, 64
5, 236015, Note_on_c, 4, 77, 84
5, 236035, Note_off_c, 4, 79, 64
5, 236085, Note_off_c, 4, 77, 64
5, 236145, Note_on_c, 4, 82, 102
5, 236210, Note_off_c, 4, 82, 64
5, 236257, Note_on_c, 4, 81, 79
5, 236305, Note_off_c, 4, 81, 64
5, 236380, Note_on_c, 4, 79, 78
5, 236442, Note_off_c, 4, 79, 64
5, 236482, Note_on_c, 4, 77, 78
5, 236530, Note_off_c, 4, 77, 64
5, 236620, Note_on_c, 4, 75, 105
5, 236662, Note_off_c, 4, 75, 64
5, 236737, Note_on_c, 4, 74, 86
5, 236792, Note_off_c, 4, 74, 64
5, 236852, Note_on_c, 4, 72, 74
5, 236902, Note_off_c, 4, 72, 64
5, 236970, Note_on_c, 4, 70, 102
5, 237007, Note_off_c, 4, 70, 64
5, 237100, Note_on_c, 4, 74, 102
5, 237210, Note_on_c, 4, 72, 66
5, 237232, Note_off_c, 4, 74, 64
5, 237335, Note_on_c, 4, 75, 75
5, 237360, Note_off_c, 4, 72, 64
5, 237460, Note_on_c, 4, 74, 83
5, 237515, Note_off_c, 4, 75, 64
5, 237587, Note_on_c, 4, 77, 83
5, 237605, Note_off_c, 4, 74, 64
5, 237692, Note_on_c, 4, 75, 83
5, 237727, Note_off_c, 4, 77, 64
5, 237825, Note_on_c, 4, 79, 84
5, 237837, Note_off_c, 4, 75, 64
5, 237940, Note_on_c, 4, 78, 77
5, 237965, Note_off_c, 4, 79, 64
5, 238070, Note_on_c, 4, 79, 90
5, 238085, Note_off_c, 4, 78, 64
5, 238132, Note_off_c, 4, 79, 64
5, 238190, Note_on_c, 4, 77, 77
5, 238240, Note_off_c, 4, 77, 64
5, 238315, Note_on_c, 4, 75, 83
5, 238355, Note_off_c, 4, 75, 64
5, 238427, Note_on_c, 4, 74, 97
5, 238472, Note_off_c, 4, 74, 64
5, 238550, Note_on_c, 4, 72, 83
5, 238595, Note_off_c, 4, 72, 64
5, 238675, Note_on_c, 4, 70, 88
5, 238710, Note_off_c, 4, 70, 64
5, 238795, Note_on_c, 4, 69, 49
5, 238825, Note_off_c, 4, 69, 64
5, 238905, Note_on_c, 4, 70, 102
5, 238947, Note_off_c, 4, 70, 64
5, 239030, Note_on_c, 4, 69, 83
5, 239090, Note_off_c, 4, 69, 64
5, 239142, Note_on_c, 4, 70, 70
5, 239185, Note_off_c, 4, 70, 64
5, 239280, Note_on_c, 4, 72, 64
5, 239327, Note_off_c, 4, 72, 64
5, 239390, Note_on_c, 4, 74, 66
5, 239442, Note_off_c, 4, 74, 64
5, 239527, Note_on_c, 4, 76, 42
5, 239630, Note_on_c, 4, 77, 57
5, 239662, Note_off_c, 4, 76, 64
5, 239777, Note_off_c, 4, 77, 64
5, 239777, Note_on_c, 4, 76, 48
5, 239895, Note_on_c, 4, 77, 52
5, 239910, Note_off_c, 4, 76, 64
5, 240047, Note_off_c, 4, 77, 64
5, 240047, Note_on_c, 4, 65, 39
5, 240712, Note_off_c, 4, 65, 64
5, 241680, Note_on_c, 4, 77, 66
5, 241717, Note_off_c, 4, 77, 64
5, 241920, Note_on_c, 4, 77, 67
5, 241957, Note_off_c, 4, 77, 64
5, 242160, Note_on_c, 4, 77, 62
5, 242210, Note_off_c, 4, 77, 64
5, 242400, Note_on_c, 4, 77, 64
5, 242442, Note_off_c, 4, 77, 64
5, 242640, Note_on_c, 4, 77, 56
5, 242680, Note_off_c, 4, 77, 64
5, 242896, Note_on_c, 4, 77, 86
5, 243602, Note_on_c, 4, 75, 67
5, 243614, Note_off_c, 4, 77, 64
5, 243705, Note_on_c, 4, 74, 67
5, 243742, Note_off_c, 4, 75, 64
5, 243845, Note_on_c, 4, 72, 68
5, 243857, Note_off_c, 4, 74, 64
5, 243935, Note_off_c, 4, 72, 64
5, 244097, Note_on_c, 4, 70, 53
5, 244165, Note_off_c, 4, 70, 64
5, 244337, Note_on_c, 4, 69, 62
5, 244410, Note_off_c, 4, 69, 64
5, 244580, Note_on_c, 4, 72, 73
5, 244657, Note_off_c, 4, 72, 64
5, 244825, Note_on_c, 4, 70, 51
5, 245217, Note_off_c, 4, 70, 64
5, 245530, Note_on_c, 4, 77, 70
5, 245570, Note_off_c, 4, 77, 64
5, 245777, Note_on_c, 4, 77, 63
5, 245817, Note_off_c, 4, 77, 64
5, 246020, Note_on_c, 4, 77, 64
5, 246065, Note_off_c, 4, 77, 64
5, 246260, Note_on_c, 4, 77, 61
5, 246307, Note_off_c, 4, 77, 64
5, 246497, Note_on_c, 4, 77, 59
5, 246540, Note_off_c, 4, 77, 64
5, 246750, Note_on_c, 4, 77, 79
5, 247447, Note_on_c, 4, 75, 66
5, 247477, Note_off_c, 4, 77, 64
5, 247560, Note_on_c, 4, 74, 64
5, 247572, Note_off_c, 4, 75, 64
5, 247695, Note_on_c, 4, 72, 52
5, 247700, Note_off_c, 4, 74, 64
5, 247782, Note_off_c, 4, 72, 64
5, 247940, Note_on_c, 4, 74, 67
5, 247995, Note_off_c, 4, 74, 64
5, 248177, Note_on_c, 4, 75, 73
5, 248242, Note_off_c, 4, 75, 64
5, 248410, Note_on_c, 4, 72, 61
5, 248472, Note_off_c, 4, 72, 64
5, 248635, Note_on_c, 4, 74, 66
5, 249100, Note_off_c, 4, 74, 64
5, 249360, Note_on_c, 4, 77, 73
5, 249420, Note_off_c, 4, 77, 64
5, 249600, Note_on_c, 4, 77, 72
5, 249642, Note_off_c, 4, 77, 64
5, 249840, Note_on_c, 4, 77, 72
5, 249885, Note_off_c, 4, 77, 64
5, 250080, Note_on_c, 4, 77, 73
5, 250122, Note_off_c, 4, 77, 64
5, 250320, Note_on_c, 4, 78, 73
5, 250360, Note_off_c, 4, 78, 64
5, 250560, Note_on_c, 4, 79, 79
5, 250665, Note_on_c, 4, 67, 73
5, 250690, Note_off_c, 4, 79, 64
5, 250787, Note_on_c, 4, 66, 86
5, 250800, Note_off_c, 4, 67, 64
5, 250905, Note_off_c, 4, 66, 64
5, 250905, Note_on_c, 4, 67, 66
5, 251030, Note_on_c, 4, 68, 97
5, 251045, Note_off_c, 4, 67, 64
5, 251140, Note_on_c, 4, 67, 66
5, 251150, Note_off_c, 4, 68, 64
5, 251275, Note_on_c, 4, 69, 97
5, 251290, Note_off_c, 4, 67, 64
5, 251380, Note_on_c, 4, 67, 77
5, 251400, Note_off_c, 4, 69, 64
5, 251502, Note_on_c, 4, 70, 105
5, 251520, Note_off_c, 4, 67, 64
5, 251612, Note_on_c, 4, 67, 49
5, 251630, Note_off_c, 4, 70, 64
5, 251737, Note_on_c, 4, 71, 94
5, 251757, Note_off_c, 4, 67, 64
5, 251842, Note_off_c, 4, 71, 64
5, 251842, Note_on_c, 4, 67, 73
5, 251980, Note_on_c, 4, 72, 90
5, 251990, Note_off_c, 4, 67, 64
5, 252092, Note_on_c, 4, 67, 61
5, 252095, Note_off_c, 4, 72, 64
5, 252220, Note_on_c, 4, 74, 108
5, 252240, Note_off_c, 4, 67, 64
5, 252327, Note_on_c, 4, 67, 64
5, 252340, Note_off_c, 4, 74, 64
5, 252465, Note_on_c, 4, 75, 112
5, 252475, Note_off_c, 4, 67, 64
5, 253430, Note_off_c, 4, 75, 64
5, 253817, Note_on_c, 4, 75, 108
5, 253862, Note_off_c, 4, 75, 64
5, 253925, Note_on_c, 4, 75, 108
5, 253977, Note_on_c, 4, 77, 102
5, 253987, Note_off_c, 4, 75, 64
5, 254027, Note_off_c, 4, 77, 64
5, 254027, Note_on_c, 4, 75, 78
5, 254065, Note_on_c, 4, 77, 86
5, 254080, Note_off_c, 4, 75, 64
5, 254112, Note_on_c, 4, 75, 86
5, 254130, Note_off_c, 4, 77, 64
5, 254160, Note_off_c, 4, 75, 64
5, 254172, Note_on_c, 4, 74, 88
5, 254262, Note_off_c, 4, 74, 64
5, 254285, Note_on_c, 4, 75, 99
5, 254357, Note_off_c, 4, 75, 64
5, 254430, Note_on_c, 4, 77, 84
5, 254542, Note_on_c, 4, 65, 86
5, 254547, Note_off_c, 4, 77, 64
5, 254660, Note_on_c, 4, 64, 90
5, 254672, Note_off_c, 4, 65, 64
5, 254760, Note_off_c, 4, 64, 64
5, 254767, Note_on_c, 4, 65, 61
5, 254890, Note_off_c, 4, 65, 64
5, 254890, Note_on_c, 4, 67, 97
5, 254990, Note_on_c, 4, 65, 53
5, 254997, Note_off_c, 4, 67, 64
5, 255095, Note_off_c, 4, 65, 64
5, 255110, Note_on_c, 4, 68, 90
5, 255215, Note_off_c, 4, 68, 64
5, 255227, Note_on_c, 4, 65, 83
5, 255347, Note_off_c, 4, 65, 64
5, 255352, Note_on_c, 4, 69, 102
5, 255450, Note_on_c, 4, 65, 50
5, 255462, Note_off_c, 4, 69, 64
5, 255567, Note_on_c, 4, 70, 97
5, 255590, Note_off_c, 4, 65, 64
5, 255685, Note_on_c, 4, 65, 68
5, 255710, Note_off_c, 4, 70, 64
5, 255810, Note_off_c, 4, 65, 64
5, 255810, Note_on_c, 4, 72, 108
5, 255917, Note_on_c, 4, 65, 75
5, 255922, Note_off_c, 4, 72, 64
5, 256052, Note_on_c, 4, 73, 112
5, 256060, Note_off_c, 4, 65, 64
5, 256162, Note_on_c, 4, 65, 75
5, 256180, Note_off_c, 4, 73, 64
5, 256272, Note_off_c, 4, 65, 64
5, 256295, Note_on_c, 4, 74, 97
5, 257495, Note_off_c, 4, 74, 64
5, 257645, Note_on_c, 4, 86, 102
5, 257690, Note_off_c, 4, 86, 64
5, 257755, Note_on_c, 4, 86, 99
5, 257807, Note_off_c, 4, 86, 64
5, 257812, Note_on_c, 4, 87, 88
5, 257857, Note_off_c, 4, 87, 64
5, 257857, Note_on_c, 4, 86, 74
5, 257892, Note_off_c, 4, 86, 64
5, 257897, Note_on_c, 4, 87, 105
5, 257932, Note_on_c, 4, 86, 83
5, 257952, Note_off_c, 4, 87, 64
5, 257985, Note_on_c, 4, 84, 88
5, 258000, Note_off_c, 4, 86, 64
5, 258057, Note_off_c, 4, 84, 64
5, 258105, Note_on_c, 4, 86, 108
5, 258155, Note_off_c, 4, 86, 64
5, 258230, Note_on_c, 4, 87, 112
5, 258345, Note_on_c, 4, 75, 83
5, 258365, Note_off_c, 4, 87, 64
5, 258467, Note_on_c, 4, 74, 83
5, 258480, Note_off_c, 4, 75, 64
5, 258580, Note_on_c, 4, 75, 94
5, 258605, Note_off_c, 4, 74, 64
5, 258697, Note_on_c, 4, 77, 84
5, 258720, Note_off_c, 4, 75, 64
5, 258810, Note_on_c, 4, 75, 77
5, 258845, Note_off_c, 4, 77, 64
5, 258945, Note_on_c, 4, 78, 97
5, 258977, Note_off_c, 4, 75, 64
5, 259060, Note_on_c, 4, 75, 74
5, 259092, Note_off_c, 4, 78, 64
5, 259190, Note_on_c, 4, 79, 84
5, 259232, Note_off_c, 4, 75, 64
5, 259300, Note_on_c, 4, 75, 56
5, 259320, Note_off_c, 4, 79, 64
5, 259430, Note_on_c, 4, 81, 94
5, 259467, Note_off_c, 4, 75, 64
5, 259552, Note_on_c, 4, 75, 72
5, 259597, Note_off_c, 4, 81, 64
5, 259680, Note_on_c, 4, 82, 102
5, 259700, Note_off_c, 4, 75, 64
5, 259785, Note_on_c, 4, 75, 64
5, 259817, Note_off_c, 4, 82, 64
5, 259915, Note_on_c, 4, 83, 112
5, 259932, Note_off_c, 4, 75, 64
5, 260020, Note_on_c, 4, 75, 66
5, 260040, Note_off_c, 4, 83, 64
5, 260120, Note_off_c, 4, 75, 64
5, 260160, Note_on_c, 4, 84, 108
5, 260640, Note_off_c, 4, 84, 64
5, 260865, Note_on_c, 4, 87, 99
5, 261005, Note_off_c, 4, 87, 64
5, 261130, Note_on_c, 4, 86, 83
5, 261355, Note_on_c, 4, 84, 70
5, 261377, Note_off_c, 4, 86, 64
5, 261422, Note_off_c, 4, 84, 64
5, 261590, Note_on_c, 4, 82, 79
5, 261822, Note_on_c, 4, 81, 70
5, 261850, Note_off_c, 4, 82, 64
5, 261892, Note_off_c, 4, 81, 64
5, 262075, Note_on_c, 4, 84, 94
5, 262310, Note_on_c, 4, 82, 51
5, 262332, Note_off_c, 4, 84, 64
5, 262465, Note_off_c, 4, 82, 64
5, 262792, Note_on_c, 4, 89, 73
5, 262875, Note_off_c, 4, 89, 64
5, 263030, Note_on_c, 4, 87, 99
5, 263275, Note_on_c, 4, 86, 79
5, 263305, Note_off_c, 4, 87, 64
5, 263355, Note_off_c, 4, 86, 64
5, 263515, Note_on_c, 4, 84, 77
5, 263750, Note_off_c, 4, 84, 64
5, 263757, Note_on_c, 4, 83, 68
5, 263840, Note_off_c, 4, 83, 64
5, 263995, Note_on_c, 4, 84, 79
5, 264362, Note_on_c, 4, 86, 97
5, 264390, Note_off_c, 4, 84, 64
5, 264490, Note_on_c, 4, 89, 102
5, 264507, Note_off_c, 4, 86, 64
5, 264600, Note_on_c, 4, 87, 97
5, 264635, Note_off_c, 4, 89, 64
5, 264720, Note_on_c, 4, 86, 92
5, 264760, Note_off_c, 4, 87, 64
5, 264825, Note_on_c, 4, 84, 79
5, 264850, Note_off_c, 4, 86, 64
5, 264970, Note_on_c, 4, 82, 102
5, 264972, Note_off_c, 4, 84, 64
5, 265435, Note_on_c, 4, 81, 79
5, 265457, Note_off_c, 4, 82, 64
5, 265640, Note_off_c, 4, 81, 64
5, 266045, Note_on_c, 4, 82, 99
5, 266165, Note_on_c, 4, 81, 83
5, 266182, Note_off_c, 4, 82, 64
5, 266280, Note_on_c, 4, 82, 97
5, 266295, Note_off_c, 4, 81, 64
5, 266327, Note_off_c, 4, 82, 64
5, 266510, Note_on_c, 4, 77, 88
5, 266640, Note_on_c, 4, 76, 77
5, 266662, Note_off_c, 4, 77, 64
5, 266755, Note_on_c, 4, 77, 79
5, 266765, Note_off_c, 4, 76, 64
5, 266810, Note_off_c, 4, 77, 64
5, 266995, Note_on_c, 4, 74, 77
5, 267097, Note_on_c, 4, 73, 67
5, 267120, Note_off_c, 4, 74, 64
5, 267235, Note_on_c, 4, 74, 61
5, 267245, Note_off_c, 4, 73, 64
5, 267292, Note_off_c, 4, 74, 64
5, 267455, Note_on_c, 4, 70, 83
5, 267600, Note_off_c, 4, 70, 64
5, 267600, Note_on_c, 4, 69, 52
5, 267715, Note_on_c, 4, 70, 54
5, 267730, Note_off_c, 4, 69, 64
5, 267757, Note_off_c, 4, 70, 64
5, 267825, Note_on_c, 4, 63, 59
5, 267897, Note_off_c, 4, 63, 64
5, 267902, Note_on_c, 4, 65, 68
5, 267970, Note_off_c, 4, 65, 64
5, 267975, Note_on_c, 4, 69, 59
5, 268355, Note_off_c, 4, 69, 64
5, 268527, Note_on_c, 4, 75, 72
5, 268745, Note_off_c, 4, 75, 64
5, 268770, Note_on_c, 4, 74, 60
5, 269020, Note_on_c, 4, 72, 51
5, 269040, Note_off_c, 4, 74, 64
5, 269107, Note_off_c, 4, 72, 64
5, 269260, Note_on_c, 4, 70, 59
5, 269502, Note_on_c, 4, 69, 57
5, 269535, Note_off_c, 4, 70, 64
5, 269570, Note_off_c, 4, 69, 64
5, 269742, Note_on_c, 4, 72, 77
5, 270005, Note_on_c, 4, 70, 48
5, 270030, Note_off_c, 4, 72, 64
5, 270152, Note_off_c, 4, 70, 64
5, 270495, Note_on_c, 4, 77, 73
5, 270565, Note_off_c, 4, 77, 64
5, 270745, Note_on_c, 4, 75, 64
5, 270992, Note_on_c, 4, 74, 53
5, 271007, Note_off_c, 4, 75, 64
5, 271072, Note_off_c, 4, 74, 64
5, 271237, Note_on_c, 4, 72, 77
5, 271457, Note_off_c, 4, 72, 64
5, 271472, Note_on_c, 4, 71, 53
5, 271560, Note_off_c, 4, 71, 64
5, 271725, Note_on_c, 4, 72, 61
5, 272062, Note_on_c, 4, 74, 72
5, 272077, Note_off_c, 4, 72, 64
5, 272115, Note_off_c, 4, 74, 64
5, 272205, Note_on_c, 4, 74, 83
5, 272300, Note_on_c, 4, 75, 69
5, 272302, Note_off_c, 4, 74, 64
5, 272372, Note_off_c, 4, 75, 64
5, 272427, Note_on_c, 4, 77, 77
5, 272495, Note_off_c, 4, 77, 64
5, 272535, Note_on_c, 4, 79, 73
5, 272595, Note_off_c, 4, 79, 64
5, 272645, Note_on_c, 4, 79, 68
5, 272725, Note_on_c, 4, 70, 65
5, 272742, Note_off_c, 4, 79, 64
5, 273062, Note_on_c, 4, 74, 69
5, 273080, Note_off_c, 4, 70, 64
5, 273120, Note_off_c, 4, 74, 64
5, 273130, Note_on_c, 4, 72, 58
5, 273172, Note_on_c, 4, 74, 83
5, 273177, Note_off_c, 4, 72, 64
5, 273215, Control_c, 4, 64, 127
5, 273215, Control_c, 4, 64, 127
5, 273215, Control_c, 4, 64, 127
5, 273220, Note_off_c, 4, 74, 64
5, 273220, Note_on_c, 4, 72, 74
5, 273257, Note_on_c, 4, 74, 77
5, 273262, Note_off_c, 4, 72, 64
5, 273300, Note_off_c, 4, 74, 64
5, 273312, Note_on_c, 4, 74, 74
5, 273332, Control_c, 4, 64, 0
5, 273332, Control_c, 4, 64, 0
5, 273335, Control_c, 4, 64, 0
5, 273345, Note_off_c, 4, 74, 64
5, 273345, Note_on_c, 4, 72, 75
5, 273360, Note_on_c, 4, 70, 78
5, 273385, Note_off_c, 4, 72, 64
5, 273465, Note_off_c, 4, 70, 64
5, 273480, Note_on_c, 4, 72, 75
5, 273550, Note_off_c, 4, 72, 64
5, 273820, Note_on_c, 4, 89, 81
5, 273935, Note_on_c, 4, 86, 83
5, 273965, Note_off_c, 4, 89, 64
5, 274065, Note_on_c, 4, 82, 67
5, 274102, Note_off_c, 4, 86, 64
5, 274170, Note_off_c, 4, 82, 64
5, 274170, Note_on_c, 4, 77, 66
5, 274200, Note_off_c, 4, 77, 64
5, 274287, Note_on_c, 4, 74, 90
5, 274330, Note_off_c, 4, 74, 64
5, 274407, Note_on_c, 4, 70, 99
5, 274435, Note_off_c, 4, 70, 64
5, 274540, Note_on_c, 4, 65, 75
5, 274540, Note_on_c, 4, 68, 72
5, 275760, Note_on_c, 4, 67, 61
5, 275765, Note_off_c, 4, 68, 64
5, 275765, Note_off_c, 4, 65, 64
5, 275852, Note_off_c, 4, 67, 64
5, 276240, Note_on_c, 4, 75, 58
5, 276240, Note_on_c, 4, 79, 60
5, 276367, Note_off_c, 4, 79, 64
5, 276367, Note_off_c, 4, 75, 64
5, 276720, Note_on_c, 4, 77, 63
5, 276720, Note_on_c, 4, 74, 57
5, 276790, Note_off_c, 4, 74, 64
5, 276828, Note_off_c, 4, 77, 64
5, 277200, Note_on_c, 4, 63, 57
5, 277200, Note_on_c, 4, 69, 48
5, 277357, Note_off_c, 4, 69, 64
5, 277372, Note_off_c, 4, 63, 64
5, 277680, Note_on_c, 4, 77, 83
5, 277792, Note_off_c, 4, 77, 64
5, 277792, Note_on_c, 4, 74, 83
5, 277880, Note_off_c, 4, 74, 64
5, 277915, Note_on_c, 4, 70, 73
5, 278015, Note_off_c, 4, 70, 64
5, 278015, Note_on_c, 4, 65, 84
5, 278055, Note_off_c, 4, 65, 64
5, 278160, Note_on_c, 4, 62, 97
5, 278200, Note_off_c, 4, 62, 64
5, 278260, Note_on_c, 4, 58, 97
5, 278290, Note_off_c, 4, 58, 64
5, 278400, Note_on_c, 4, 56, 86
5, 278400, Note_on_c, 4, 53, 88
5, 279562, Note_off_c, 4, 53, 64
5, 279562, Note_off_c, 4, 56, 64
5, 279600, Note_on_c, 4, 51, 52
5, 279600, Note_on_c, 4, 55, 58
5, 279700, Note_off_c, 4, 55, 64
5, 279700, Note_off_c, 4, 51, 64
5, 280080, Note_on_c, 4, 63, 65
5, 280080, Note_on_c, 4, 67, 53
5, 280177, Note_off_c, 4, 67, 64
5, 280177, Note_off_c, 4, 63, 64
5, 280560, Note_on_c, 4, 65, 64
5, 280560, Note_on_c, 4, 62, 54
5, 280667, Note_off_c, 4, 62, 64
5, 280667, Note_off_c, 4, 65, 64
5, 281040, Note_on_c, 4, 69, 70
5, 281040, Note_on_c, 4, 63, 60
5, 281177, Note_off_c, 4, 63, 64
5, 281177, Note_off_c, 4, 69, 64
5, 281280, Note_on_c, 4, 70, 90
5, 281280, Note_on_c, 4, 62, 70
5, 281677, Note_off_c, 4, 62, 64
5, 281677, Note_off_c, 4, 70, 64
5, 281980, Note_on_c, 4, 70, 68
5, 281980, Note_on_c, 4, 74, 70
5, 282072, Note_off_c, 4, 70, 64
5, 282090, Note_off_c, 4, 74, 64
5, 282225, Note_on_c, 4, 72, 70
5, 282225, Note_on_c, 4, 69, 66
5, 282287, Note_off_c, 4, 69, 64
5, 282292, Note_off_c, 4, 72, 64
5, 282475, Note_on_c, 4, 72, 78
5, 282480, Note_on_c, 4, 69, 73
5, 282542, Note_off_c, 4, 69, 64
5, 282555, Note_off_c, 4, 72, 64
5, 282960, Note_on_c, 4, 75, 66
5, 282960, Note_on_c, 4, 72, 73
5, 283035, Note_off_c, 4, 72, 64
5, 283035, Note_off_c, 4, 75, 64
5, 283187, Note_on_c, 4, 70, 62
5, 283192, Note_on_c, 4, 74, 78
5, 283252, Note_off_c, 4, 70, 64
5, 283275, Note_off_c, 4, 74, 64
5, 283435, Note_on_c, 4, 74, 75
5, 283435, Note_on_c, 4, 70, 68
5, 283512, Note_off_c, 4, 70, 64
5, 283522, Note_off_c, 4, 74, 64
5, 283935, Note_on_c, 4, 80, 57
5, 283935, Note_on_c, 4, 74, 59
5, 283935, Note_on_c, 4, 77, 74
5, 283992, Note_off_c, 4, 77, 64
5, 283992, Note_off_c, 4, 74, 64
5, 284020, Note_off_c, 4, 80, 64
5, 284170, Note_on_c, 4, 75, 62
5, 284170, Note_on_c, 4, 79, 75
5, 284250, Note_off_c, 4, 75, 64
5, 284275, Note_off_c, 4, 79, 64
5, 284427, Note_on_c, 4, 79, 79
5, 284427, Note_on_c, 4, 75, 66
5, 284512, Note_off_c, 4, 79, 64
5, 284515, Note_off_c, 4, 75, 64
5, 284907, Note_on_c, 4, 75, 61
5, 284907, Note_on_c, 4, 72, 61
5, 284907, Note_on_c, 4, 81, 70
5, 284980, Note_off_c, 4, 72, 64
5, 284980, Note_off_c, 4, 75, 64
5, 284990, Note_off_c, 4, 81, 64
5, 285190, Note_on_c, 4, 75, 74
5, 285190, Note_on_c, 4, 72, 68
5, 285190, Note_on_c, 4, 81, 77
5, 285705, Control_c, 4, 64, 127
5, 285710, Control_c, 4, 64, 127
5, 285710, Control_c, 4, 64, 127
5, 285845, Note_off_c, 4, 81, 64
5, 285845, Note_off_c, 4, 72, 64
5, 285845, Note_off_c, 4, 75, 64
5, 286220, Note_on_c, 4, 82, 39
5, 286220, Note_on_c, 4, 74, 34
5, 286295, Control_c, 4, 64, 0
5, 286295, Control_c, 4, 64, 0
5, 286295, Control_c, 4, 64, 0
5, 286663, Note_off_c, 4, 74, 64
5, 286663, Note_off_c, 4, 82, 64
5, 286663, End_track
0, 0, End_of_file
