0, 0, Header, 1, 4, 480
1, 0, Start_track
1, 0, SMPTE_offset, 0, 0, 0, 0, 0
1, 0, Tempo, 444444
1, 0, Time_signature, 4, 2, 24, 8
1, 0, Key_signature, 0, "major"
1, 1896, Tempo, 594059
1, 1920, Tempo, 444444
1, 3826, Tempo, 800000
1, 3840, Tempo, 451127
1, 4786, Tempo, 1333333
1, 4803, Tempo, 447761
1, 5280, Tempo, 468750
1, 5760, Tempo, 483870
1, 7231, Tempo, 444444
1, 12940, Tempo, 759493
1, 12952, Tempo, 465116
1, 13425, Tempo, 750000
1, 13440, Tempo, 468750
1, 15306, Tempo, 1000000
1, 15317, Tempo, 1500000
1, 15325, Tempo, 444444
1, 15360, Tempo, 444444
1, 17280, Tempo, 444444
1, 19176, Tempo, 594059
1, 19200, Tempo, 444444
1, 21106, Tempo, 800000
1, 21120, Tempo, 451127
1, 22066, Tempo, 1333333
1, 22083, Tempo, 447761
1, 22560, Tempo, 468750
1, 23040, Tempo, 483870
1, 24511, Tempo, 444444
1, 30220, Tempo, 759493
1, 30232, Tempo, 465116
1, 30705, Tempo, 750000
1, 30720, Tempo, 468750
1, 32586, Tempo, 1000000
1, 32597, Tempo, 1500000
1, 32605, Tempo, 444444
1, 32640, Tempo, 444444
1, 90226, Tempo, 1200000
1, 90240, Tempo, 454545
1, 90719, Tempo, 495867
1, 91680, Tempo, 530973
1, 92722, Tempo, 618556
1, 93212, Tempo, 472440
1, 96000, Tempo, 461538
1, 207360, Tempo, 454545
1, 208296, Tempo, 845070
1, 208320, Tempo, 447761
1, 220302, Tempo, 652173
1, 220320, Tempo, 480000
1, 221262, Tempo, 1200000
1, 221280, Tempo, 465116
1, 225600, Tempo, 447761
1, 234134, Tempo, 1500000
1, 234144, Tempo, 447761
1, 238065, Tempo, 1428571
1, 238080, Tempo, 447761
1, 239990, Tempo, 1395348
1, 240000, Tempo, 447761
1, 246213, Tempo, 1000000
1, 246234, Tempo, 447761
1, 250590, Tempo, 461538
1, 251040, Tempo, 480000
1, 251502, Tempo, 444444
1, 251520, Tempo, 468750
1, 252000, Tempo, 504201
1, 252480, Tempo, 535714
1, 252944, Tempo, 1034482
1, 252960, Tempo, 535714
1, 253440, Tempo, 674157
1, 253440, End_track
2, 0, Start_track
2, 0, Title_t, "new"
2, 0, MIDI_port, 0
2, 0, Channel_prefix, 1
2, 0, Control_c, 1, 7, 121
2, 0, Control_c, 1, 10, 64
2, 0, Program_c, 1, 0
2, 960, Note_on_c, 1, 74, 70
2, 1320, Note_on_c, 1, 75, 65
2, 1343, Note_off_c, 1, 74, 64
2, 1400, Note_off_c, 1, 75, 64
2, 1452, Note_on_c, 1, 72, 73
2, 1675, Note_on_c, 1, 70, 52
2, 1692, Note_off_c, 1, 72, 64
2, 1717, Note_off_c, 1, 70, 64
2, 1921, Note_on_c, 1, 70, 88
2, 1946, Note_off_c, 1, 70, 64
2, 2410, Note_on_c, 1, 70, 88
2, 2435, Note_off_c, 1, 70, 64
2, 2897, Note_on_c, 1, 69, 77
2, 2983, Note_off_c, 1, 69, 64
2, 3840, Note_on_c, 1, 75, 49
2, 4205, Note_off_c, 1, 75, 64
2, 4220, Note_on_c, 1, 77, 37
2, 4300, Note_off_c, 1, 77, 64
2, 4342, Note_on_c, 1, 74, 39
2, 4570, Note_on_c, 1, 72, 42
2, 4585, Note_off_c, 1, 74, 64
2, 4617, Note_off_c, 1, 72, 64
2, 4800, Note_on_c, 1, 72, 48
2, 4840, Note_off_c, 1, 72, 64
2, 5280, Note_on_c, 1, 72, 46
2, 5330, Note_off_c, 1, 72, 64
2, 5760, Note_on_c, 1, 70, 40
2, 5920, Note_off_c, 1, 70, 64
2, 6720, Note_on_c, 1, 74, 88
2, 7080, Note_on_c, 1, 75, 75
2, 7098, Note_off_c, 1, 74, 64
2, 7195, Note_off_c, 1, 75, 64
2, 7220, Note_on_c, 1, 77, 86
2, 7460, Note_on_c, 1, 79, 68
2, 7492, Note_off_c, 1, 77, 64
2, 7680, Note_on_c, 1, 75, 69
2, 7702, Note_off_c, 1, 79, 64
2, 7935, Note_on_c, 1, 72, 64
2, 7995, Note_off_c, 1, 75, 64
2, 8175, Note_on_c, 1, 74, 82
2, 8205, Note_off_c, 1, 72, 64
2, 8420, Note_on_c, 1, 75, 69
2, 8452, Note_off_c, 1, 74, 64
2, 8662, Note_on_c, 1, 77, 86
2, 8692, Note_off_c, 1, 75, 64
2, 8900, Note_on_c, 1, 79, 75
2, 8932, Note_off_c, 1, 77, 64
2, 9137, Note_on_c, 1, 75, 82
2, 9165, Note_off_c, 1, 79, 64
2, 9372, Note_on_c, 1, 72, 60
2, 9417, Note_off_c, 1, 75, 64
2, 9597, Note_on_c, 1, 74, 69
2, 9625, Note_off_c, 1, 72, 64
2, 9840, Note_on_c, 1, 75, 69
2, 9872, Note_off_c, 1, 74, 64
2, 10080, Note_on_c, 1, 77, 55
2, 10115, Note_off_c, 1, 75, 64
2, 10147, Note_off_c, 1, 77, 64
2, 10330, Note_on_c, 1, 82, 40
2, 10565, Note_on_c, 1, 81, 30
2, 10645, Note_off_c, 1, 82, 64
2, 10800, Note_on_c, 1, 79, 31
2, 10815, Note_off_c, 1, 81, 64
2, 11037, Note_off_c, 1, 79, 64
2, 11037, Note_on_c, 1, 77, 35
2, 11270, Note_on_c, 1, 76, 39
2, 11295, Note_off_c, 1, 77, 64
2, 11520, Note_off_c, 1, 76, 64
2, 11520, Note_on_c, 1, 74, 44
2, 11755, Note_on_c, 1, 72, 48
2, 11762, Note_off_c, 1, 74, 64
2, 12000, Note_on_c, 1, 71, 51
2, 12077, Note_off_c, 1, 72, 64
2, 12255, Note_on_c, 1, 70, 57
2, 12262, Note_off_c, 1, 71, 64
2, 12505, Note_on_c, 1, 69, 60
2, 12542, Note_off_c, 1, 70, 64
2, 12742, Note_on_c, 1, 67, 64
2, 12755, Note_off_c, 1, 69, 64
2, 12855, Note_off_c, 1, 67, 64
2, 12995, Note_on_c, 1, 72, 66
2, 13355, Note_on_c, 1, 74, 80
2, 13405, Note_off_c, 1, 72, 64
2, 13475, Note_off_c, 1, 74, 64
2, 13475, Note_on_c, 1, 60, 84
2, 13475, Note_on_c, 1, 65, 90
2, 13572, Note_off_c, 1, 65, 64
2, 13572, Note_off_c, 1, 60, 64
2, 13920, Note_on_c, 1, 64, 88
2, 13920, Note_on_c, 1, 58, 75
2, 13988, Note_off_c, 1, 58, 64
2, 13988, Note_off_c, 1, 64, 64
2, 14400, Note_on_c, 1, 65, 88
2, 14400, Note_on_c, 1, 57, 66
2, 14850, Note_off_c, 1, 57, 64
2, 14850, Note_off_c, 1, 65, 64
2, 15325, Note_on_c, 1, 74, 55
2, 15334, Note_on_c, 1, 70, 46
2, 15677, Note_on_c, 1, 69, 44
2, 15677, Note_on_c, 1, 72, 49
2, 15700, Note_off_c, 1, 74, 64
2, 15727, Note_off_c, 1, 69, 64
2, 15730, Note_off_c, 1, 72, 64
2, 15732, Note_off_c, 1, 70, 64
2, 15829, Note_on_c, 1, 69, 49
2, 15829, Note_on_c, 1, 72, 53
2, 16120, Note_off_c, 1, 72, 64
2, 16120, Note_off_c, 1, 69, 64
2, 16817, Note_on_c, 1, 76, 64
2, 16817, Note_on_c, 1, 70, 52
2, 17180, Note_on_c, 1, 69, 46
2, 17180, Note_on_c, 1, 77, 46
2, 17210, Note_off_c, 1, 70, 64
2, 17210, Note_off_c, 1, 76, 64
2, 17230, Note_off_c, 1, 69, 64
2, 17230, Note_off_c, 1, 77, 64
2, 17335, Note_on_c, 1, 77, 37
2, 17335, Note_on_c, 1, 69, 37
2, 17613, Note_off_c, 1, 69, 64
2, 17613, Note_off_c, 1, 77, 64
2, 18240, Note_on_c, 1, 74, 70
2, 18600, Note_on_c, 1, 75, 65
2, 18623, Note_off_c, 1, 74, 64
2, 18680, Note_off_c, 1, 75, 64
2, 18732, Note_on_c, 1, 72, 73
2, 18955, Note_on_c, 1, 70, 52
2, 18972, Note_off_c, 1, 72, 64
2, 18997, Note_off_c, 1, 70, 64
2, 19200, Note_on_c, 1, 70, 90
2, 19225, Note_off_c, 1, 70, 64
2, 19680, Note_on_c, 1, 70, 90
2, 19705, Note_off_c, 1, 70, 64
2, 20177, Note_on_c, 1, 69, 77
2, 20263, Note_off_c, 1, 69, 64
2, 21150, Note_on_c, 1, 75, 57
2, 21492, Note_on_c, 1, 77, 40
2, 21515, Note_off_c, 1, 75, 64
2, 21572, Note_off_c, 1, 77, 64
2, 21622, Note_on_c, 1, 74, 48
2, 21850, Note_on_c, 1, 72, 42
2, 21865, Note_off_c, 1, 74, 64
2, 21897, Note_off_c, 1, 72, 64
2, 22080, Note_on_c, 1, 72, 46
2, 22120, Note_off_c, 1, 72, 64
2, 22560, Note_on_c, 1, 72, 53
2, 22610, Note_off_c, 1, 72, 64
2, 23040, Note_on_c, 1, 70, 55
2, 23210, Note_off_c, 1, 70, 64
2, 24000, Note_on_c, 1, 74, 89
2, 24360, Note_on_c, 1, 75, 90
2, 24378, Note_off_c, 1, 74, 64
2, 24475, Note_off_c, 1, 75, 64
2, 24500, Note_on_c, 1, 77, 94
2, 24740, Note_on_c, 1, 79, 77
2, 24772, Note_off_c, 1, 77, 64
2, 24960, Note_on_c, 1, 75, 86
2, 24982, Note_off_c, 1, 79, 64
2, 25215, Note_on_c, 1, 72, 64
2, 25275, Note_off_c, 1, 75, 64
2, 25455, Note_on_c, 1, 74, 75
2, 25485, Note_off_c, 1, 72, 64
2, 25700, Note_on_c, 1, 75, 82
2, 25732, Note_off_c, 1, 74, 64
2, 25942, Note_on_c, 1, 77, 90
2, 25972, Note_off_c, 1, 75, 64
2, 26180, Note_on_c, 1, 79, 86
2, 26212, Note_off_c, 1, 77, 64
2, 26417, Note_on_c, 1, 75, 68
2, 26445, Note_off_c, 1, 79, 64
2, 26652, Note_on_c, 1, 72, 69
2, 26697, Note_off_c, 1, 75, 64
2, 26877, Note_on_c, 1, 74, 85
2, 26905, Note_off_c, 1, 72, 64
2, 27120, Note_on_c, 1, 75, 86
2, 27152, Note_off_c, 1, 74, 64
2, 27360, Note_on_c, 1, 77, 82
2, 27395, Note_off_c, 1, 75, 64
2, 27427, Note_off_c, 1, 77, 64
2, 27610, Note_on_c, 1, 82, 82
2, 27845, Note_on_c, 1, 81, 75
2, 27925, Note_off_c, 1, 82, 64
2, 28080, Note_on_c, 1, 79, 68
2, 28095, Note_off_c, 1, 81, 64
2, 28317, Note_off_c, 1, 79, 64
2, 28317, Note_on_c, 1, 77, 59
2, 28550, Note_on_c, 1, 76, 51
2, 28575, Note_off_c, 1, 77, 64
2, 28800, Note_off_c, 1, 76, 64
2, 28800, Note_on_c, 1, 74, 44
2, 29035, Note_on_c, 1, 72, 51
2, 29042, Note_off_c, 1, 74, 64
2, 29280, Note_on_c, 1, 71, 59
2, 29357, Note_off_c, 1, 72, 64
2, 29535, Note_on_c, 1, 70, 66
2, 29542, Note_off_c, 1, 71, 64
2, 29785, Note_on_c, 1, 69, 73
2, 29822, Note_off_c, 1, 70, 64
2, 30022, Note_on_c, 1, 67, 79
2, 30035, Note_off_c, 1, 69, 64
2, 30135, Note_off_c, 1, 67, 64
2, 30275, Note_on_c, 1, 72, 86
2, 30635, Note_on_c, 1, 74, 77
2, 30685, Note_off_c, 1, 72, 64
2, 30755, Note_off_c, 1, 74, 64
2, 30755, Note_on_c, 1, 60, 70
2, 30755, Note_on_c, 1, 65, 102
2, 30852, Note_off_c, 1, 65, 64
2, 30852, Note_off_c, 1, 60, 64
2, 31200, Note_on_c, 1, 64, 101
2, 31200, Note_on_c, 1, 58, 79
2, 31268, Note_off_c, 1, 58, 64
2, 31268, Note_off_c, 1, 64, 64
2, 31680, Note_on_c, 1, 57, 88
2, 31680, Note_on_c, 1, 65, 106
2, 32130, Note_off_c, 1, 65, 64
2, 32130, Note_off_c, 1, 57, 64
2, 32605, Note_on_c, 1, 74, 55
2, 32614, Note_on_c, 1, 70, 46
2, 32957, Note_on_c, 1, 69, 44
2, 32957, Note_on_c, 1, 72, 49
2, 32980, Note_off_c, 1, 74, 64
2, 33007, Note_off_c, 1, 69, 64
2, 33010, Note_off_c, 1, 72, 64
2, 33012, Note_off_c, 1, 70, 64
2, 33109, Note_on_c, 1, 69, 49
2, 33109, Note_on_c, 1, 72, 53
2, 33400, Note_off_c, 1, 72, 64
2, 33400, Note_off_c, 1, 69, 64
2, 34097, Note_on_c, 1, 76, 64
2, 34097, Note_on_c, 1, 70, 52
2, 34460, Note_on_c, 1, 69, 46
2, 34460, Note_on_c, 1, 77, 54
2, 34490, Note_off_c, 1, 70, 64
2, 34490, Note_off_c, 1, 76, 64
2, 34510, Note_off_c, 1, 69, 64
2, 34510, Note_off_c, 1, 77, 64
2, 34581, Note_on_c, 1, 77, 56
2, 34581, Note_on_c, 1, 69, 46
2, 35061, Note_off_c, 1, 69, 64
2, 35061, Note_off_c, 1, 77, 64
2, 35370, Note_on_c, 1, 71, 81
2, 35445, Note_on_c, 1, 74, 83
2, 35520, Note_on_c, 1, 80, 114
2, 35580, Note_off_c, 1, 80, 64
2, 35592, Note_off_c, 1, 71, 64
2, 35597, Note_off_c, 1, 74, 64
2, 35850, Note_on_c, 1, 72, 92
2, 35925, Note_on_c, 1, 76, 100
2, 36000, Note_on_c, 1, 79, 118
2, 36070, Note_off_c, 1, 79, 64
2, 36075, Note_off_c, 1, 76, 64
2, 36075, Note_off_c, 1, 72, 64
2, 36330, Note_on_c, 1, 69, 93
2, 36405, Note_on_c, 1, 72, 106
2, 36480, Note_on_c, 1, 78, 121
2, 36540, Note_off_c, 1, 78, 64
2, 36551, Note_off_c, 1, 72, 64
2, 36551, Note_off_c, 1, 69, 64
2, 36810, Note_on_c, 1, 70, 101
2, 36885, Note_on_c, 1, 74, 105
2, 36960, Note_on_c, 1, 77, 121
2, 37020, Note_off_c, 1, 77, 64
2, 37029, Note_off_c, 1, 70, 64
2, 37030, Note_off_c, 1, 74, 64
2, 37290, Note_on_c, 1, 67, 112
2, 37365, Note_on_c, 1, 70, 111
2, 37440, Note_on_c, 1, 76, 125
2, 37507, Note_off_c, 1, 70, 64
2, 37507, Note_off_c, 1, 67, 64
2, 37508, Note_off_c, 1, 76, 64
2, 37770, Note_on_c, 1, 66, 110
2, 37845, Note_on_c, 1, 72, 115
2, 37920, Note_on_c, 1, 75, 127
2, 37987, Note_off_c, 1, 75, 64
2, 37987, Note_off_c, 1, 66, 64
2, 37990, Note_off_c, 1, 72, 64
2, 38250, Note_on_c, 1, 65, 121
2, 38325, Note_on_c, 1, 70, 114
2, 38400, Note_on_c, 1, 74, 127
2, 38462, Note_off_c, 1, 74, 64
2, 38470, Note_off_c, 1, 70, 64
2, 38474, Note_off_c, 1, 65, 64
2, 39345, Note_on_c, 1, 72, 37
2, 39825, Note_on_c, 1, 73, 53
2, 39860, Note_off_c, 1, 72, 64
2, 40295, Note_on_c, 1, 70, 51
2, 40332, Note_off_c, 1, 73, 64
2, 40540, Note_on_c, 1, 69, 40
2, 40570, Note_off_c, 1, 70, 64
2, 40787, Note_on_c, 1, 67, 51
2, 40805, Note_off_c, 1, 69, 64
2, 41035, Note_on_c, 1, 65, 39
2, 41050, Note_off_c, 1, 67, 64
2, 41290, Note_on_c, 1, 70, 46
2, 41300, Note_off_c, 1, 65, 64
2, 41457, Note_off_c, 1, 70, 64
2, 41755, Note_on_c, 1, 72, 98
2, 41755, Note_on_c, 1, 75, 98
2, 42150, Note_off_c, 1, 75, 64
2, 42150, Note_off_c, 1, 72, 64
2, 42235, Note_on_c, 1, 74, 91
2, 42235, Note_on_c, 1, 70, 91
2, 42610, Note_on_c, 1, 72, 73
2, 42620, Note_on_c, 1, 69, 60
2, 42622, Note_off_c, 1, 70, 64
2, 42635, Note_off_c, 1, 74, 64
2, 42735, Note_off_c, 1, 72, 64
2, 42735, Note_on_c, 1, 70, 98
2, 42735, Note_on_c, 1, 74, 98
2, 42752, Note_off_c, 1, 69, 64
2, 43100, Note_off_c, 1, 70, 64
2, 43100, Note_off_c, 1, 74, 64
2, 43102, Note_on_c, 1, 75, 95
2, 43102, Note_on_c, 1, 72, 95
2, 43172, Note_off_c, 1, 72, 64
2, 43215, Note_off_c, 1, 75, 64
2, 43215, Note_on_c, 1, 70, 88
2, 43215, Note_on_c, 1, 74, 88
2, 43680, Note_on_c, 1, 69, 60
2, 43680, Note_on_c, 1, 72, 60
2, 43710, Note_off_c, 1, 74, 64
2, 43717, Note_off_c, 1, 70, 64
2, 44195, Note_off_c, 1, 72, 64
2, 44210, Note_off_c, 1, 69, 64
2, 45120, Note_on_c, 1, 77, 53
2, 45120, Note_on_c, 1, 74, 53
2, 45185, Note_off_c, 1, 74, 64
2, 45185, Note_off_c, 1, 77, 64
2, 45600, Note_on_c, 1, 74, 53
2, 45600, Note_on_c, 1, 77, 53
2, 45664, Note_off_c, 1, 77, 64
2, 45664, Note_off_c, 1, 74, 64
2, 46080, Note_on_c, 1, 75, 40
2, 46080, Note_on_c, 1, 77, 49
2, 46216, Note_off_c, 1, 77, 64
2, 46216, Note_off_c, 1, 75, 64
2, 48000, Note_on_c, 1, 87, 56
2, 48000, Note_on_c, 1, 81, 39
2, 48064, Note_off_c, 1, 81, 64
2, 48064, Note_off_c, 1, 87, 64
2, 48480, Note_on_c, 1, 81, 39
2, 48480, Note_on_c, 1, 87, 56
2, 48540, Note_off_c, 1, 87, 64
2, 48540, Note_off_c, 1, 81, 64
2, 48960, Note_on_c, 1, 82, 37
2, 48960, Note_on_c, 1, 86, 55
2, 49100, Note_off_c, 1, 86, 64
2, 49100, Note_off_c, 1, 82, 64
2, 49920, Note_on_c, 1, 74, 97
2, 50270, Note_on_c, 1, 75, 92
2, 50293, Note_off_c, 1, 74, 64
2, 50400, Note_on_c, 1, 77, 97
2, 50433, Note_off_c, 1, 75, 64
2, 50650, Note_on_c, 1, 79, 94
2, 50662, Note_off_c, 1, 77, 64
2, 50880, Note_on_c, 1, 75, 99
2, 50910, Note_off_c, 1, 79, 64
2, 51130, Note_on_c, 1, 72, 77
2, 51155, Note_off_c, 1, 75, 64
2, 51360, Note_on_c, 1, 74, 81
2, 51403, Note_off_c, 1, 72, 64
2, 51610, Note_off_c, 1, 74, 64
2, 51610, Note_on_c, 1, 75, 97
2, 51840, Note_on_c, 1, 77, 94
2, 51883, Note_off_c, 1, 75, 64
2, 52090, Note_on_c, 1, 79, 88
2, 52117, Note_off_c, 1, 77, 64
2, 52320, Note_on_c, 1, 75, 102
2, 52355, Note_off_c, 1, 79, 64
2, 52570, Note_on_c, 1, 72, 73
2, 52585, Note_off_c, 1, 75, 64
2, 52800, Note_on_c, 1, 74, 51
2, 52850, Note_off_c, 1, 72, 64
2, 53050, Note_on_c, 1, 75, 64
2, 53072, Note_off_c, 1, 74, 64
2, 53280, Note_on_c, 1, 77, 36
2, 53300, Note_off_c, 1, 75, 64
2, 53337, Note_off_c, 1, 77, 64
2, 53530, Note_on_c, 1, 87, 42
2, 53760, Note_on_c, 1, 86, 55
2, 53795, Note_off_c, 1, 87, 64
2, 53997, Note_off_c, 1, 86, 64
2, 54010, Note_on_c, 1, 84, 46
2, 54240, Note_on_c, 1, 82, 37
2, 54250, Note_off_c, 1, 84, 64
2, 54490, Note_on_c, 1, 81, 30
2, 54515, Note_off_c, 1, 82, 64
2, 54720, Note_on_c, 1, 79, 28
2, 54747, Note_off_c, 1, 81, 64
2, 54957, Note_off_c, 1, 79, 64
2, 54970, Note_on_c, 1, 77, 35
2, 55200, Note_on_c, 1, 76, 42
2, 55213, Note_off_c, 1, 77, 64
2, 55450, Note_on_c, 1, 75, 59
2, 55480, Note_off_c, 1, 76, 64
2, 55680, Note_on_c, 1, 74, 71
2, 55718, Note_off_c, 1, 75, 64
2, 55930, Note_on_c, 1, 72, 86
2, 55943, Note_off_c, 1, 74, 64
2, 56105, Note_off_c, 1, 72, 64
2, 56160, Note_on_c, 1, 77, 102
2, 56540, Note_on_c, 1, 79, 67
2, 56558, Note_off_c, 1, 77, 64
2, 56610, Note_off_c, 1, 79, 64
2, 56640, Note_on_c, 1, 70, 94
2, 56640, Note_on_c, 1, 65, 69
2, 56851, Note_off_c, 1, 65, 64
2, 56851, Note_off_c, 1, 70, 64
2, 57120, Note_on_c, 1, 63, 67
2, 57120, Note_on_c, 1, 69, 92
2, 57316, Note_off_c, 1, 69, 64
2, 57316, Note_off_c, 1, 63, 64
2, 57600, Note_on_c, 1, 70, 99
2, 57600, Note_on_c, 1, 62, 79
2, 58004, Note_off_c, 1, 62, 64
2, 58004, Note_off_c, 1, 70, 64
2, 58560, Note_on_c, 1, 79, 49
2, 58560, Note_on_c, 1, 75, 43
2, 58910, Note_off_c, 1, 75, 64
2, 58910, Note_off_c, 1, 79, 64
2, 58925, Note_on_c, 1, 74, 36
2, 58925, Note_on_c, 1, 77, 49
2, 58980, Note_off_c, 1, 77, 64
2, 58980, Note_off_c, 1, 74, 64
2, 59040, Note_on_c, 1, 77, 60
2, 59040, Note_on_c, 1, 74, 54
2, 59395, Note_off_c, 1, 74, 64
2, 59395, Note_off_c, 1, 77, 64
2, 59970, Note_on_c, 1, 81, 61
2, 59970, Note_on_c, 1, 75, 43
2, 60350, Note_off_c, 1, 81, 64
2, 60350, Note_on_c, 1, 82, 53
2, 60350, Note_on_c, 1, 74, 38
2, 60355, Note_off_c, 1, 75, 64
2, 60398, Note_off_c, 1, 82, 64
2, 60398, Note_off_c, 1, 74, 64
2, 60480, Note_on_c, 1, 74, 38
2, 60480, Note_on_c, 1, 82, 45
2, 60780, Note_off_c, 1, 82, 64
2, 60780, Note_off_c, 1, 74, 64
2, 61440, Note_on_c, 1, 74, 86
2, 61800, Note_off_c, 1, 74, 64
2, 61805, Note_on_c, 1, 70, 83
2, 61920, Note_on_c, 1, 75, 88
2, 61920, Note_on_c, 1, 67, 67
2, 61935, Note_off_c, 1, 70, 64
2, 62550, Note_off_c, 1, 75, 64
2, 62577, Note_off_c, 1, 67, 64
2, 62880, Note_on_c, 1, 72, 71
2, 62880, Note_on_c, 1, 63, 61
2, 63242, Note_on_c, 1, 69, 56
2, 63272, Note_off_c, 1, 72, 64
2, 63280, Note_off_c, 1, 63, 64
2, 63360, Note_on_c, 1, 70, 70
2, 63360, Note_on_c, 1, 62, 46
2, 63385, Note_off_c, 1, 69, 64
2, 63685, Note_off_c, 1, 70, 64
2, 63692, Note_off_c, 1, 62, 64
2, 64170, Note_on_c, 1, 71, 81
2, 64245, Note_on_c, 1, 74, 83
2, 64320, Note_on_c, 1, 80, 114
2, 64380, Note_off_c, 1, 80, 64
2, 64392, Note_off_c, 1, 71, 64
2, 64397, Note_off_c, 1, 74, 64
2, 64650, Note_on_c, 1, 72, 92
2, 64725, Note_on_c, 1, 76, 100
2, 64800, Note_on_c, 1, 79, 118
2, 64870, Note_off_c, 1, 79, 64
2, 64875, Note_off_c, 1, 76, 64
2, 64875, Note_off_c, 1, 72, 64
2, 65130, Note_on_c, 1, 69, 93
2, 65205, Note_on_c, 1, 72, 106
2, 65280, Note_on_c, 1, 78, 121
2, 65340, Note_off_c, 1, 78, 64
2, 65351, Note_off_c, 1, 72, 64
2, 65351, Note_off_c, 1, 69, 64
2, 65610, Note_on_c, 1, 70, 101
2, 65685, Note_on_c, 1, 74, 105
2, 65760, Note_on_c, 1, 77, 121
2, 65820, Note_off_c, 1, 77, 64
2, 65829, Note_off_c, 1, 70, 64
2, 65830, Note_off_c, 1, 74, 64
2, 66090, Note_on_c, 1, 67, 112
2, 66165, Note_on_c, 1, 70, 111
2, 66240, Note_on_c, 1, 76, 125
2, 66307, Note_off_c, 1, 70, 64
2, 66307, Note_off_c, 1, 67, 64
2, 66308, Note_off_c, 1, 76, 64
2, 66570, Note_on_c, 1, 66, 110
2, 66645, Note_on_c, 1, 72, 115
2, 66720, Note_on_c, 1, 75, 127
2, 66787, Note_off_c, 1, 75, 64
2, 66787, Note_off_c, 1, 66, 64
2, 66790, Note_off_c, 1, 72, 64
2, 67050, Note_on_c, 1, 65, 121
2, 67125, Note_on_c, 1, 70, 114
2, 67200, Note_on_c, 1, 74, 127
2, 67262, Note_off_c, 1, 74, 64
2, 67270, Note_off_c, 1, 70, 64
2, 67274, Note_off_c, 1, 65, 64
2, 68145, Note_on_c, 1, 72, 48
2, 68625, Note_on_c, 1, 73, 66
2, 68660, Note_off_c, 1, 72, 64
2, 69095, Note_on_c, 1, 70, 60
2, 69132, Note_off_c, 1, 73, 64
2, 69340, Note_on_c, 1, 69, 53
2, 69370, Note_off_c, 1, 70, 64
2, 69587, Note_on_c, 1, 67, 60
2, 69605, Note_off_c, 1, 69, 64
2, 69835, Note_on_c, 1, 65, 39
2, 69850, Note_off_c, 1, 67, 64
2, 70090, Note_on_c, 1, 70, 62
2, 70100, Note_off_c, 1, 65, 64
2, 70257, Note_off_c, 1, 70, 64
2, 70555, Note_on_c, 1, 72, 89
2, 70555, Note_on_c, 1, 75, 94
2, 70950, Note_off_c, 1, 75, 64
2, 70950, Note_off_c, 1, 72, 64
2, 71035, Note_on_c, 1, 70, 83
2, 71035, Note_on_c, 1, 74, 84
2, 71410, Note_on_c, 1, 72, 79
2, 71420, Note_on_c, 1, 69, 60
2, 71422, Note_off_c, 1, 70, 64
2, 71435, Note_off_c, 1, 74, 64
2, 71535, Note_off_c, 1, 72, 64
2, 71535, Note_on_c, 1, 74, 77
2, 71535, Note_on_c, 1, 70, 97
2, 71552, Note_off_c, 1, 69, 64
2, 71900, Note_off_c, 1, 74, 64
2, 71900, Note_off_c, 1, 70, 64
2, 71902, Note_on_c, 1, 72, 95
2, 71902, Note_on_c, 1, 75, 95
2, 71972, Note_off_c, 1, 72, 64
2, 72015, Note_off_c, 1, 75, 64
2, 72015, Note_on_c, 1, 74, 98
2, 72015, Note_on_c, 1, 70, 98
2, 72480, Note_on_c, 1, 72, 59
2, 72480, Note_on_c, 1, 69, 59
2, 72510, Note_off_c, 1, 74, 64
2, 72517, Note_off_c, 1, 70, 64
2, 72995, Note_off_c, 1, 72, 64
2, 73010, Note_off_c, 1, 69, 64
2, 73920, Note_on_c, 1, 77, 53
2, 73920, Note_on_c, 1, 74, 53
2, 73985, Note_off_c, 1, 74, 64
2, 73985, Note_off_c, 1, 77, 64
2, 74400, Note_on_c, 1, 74, 53
2, 74400, Note_on_c, 1, 77, 53
2, 74464, Note_off_c, 1, 77, 64
2, 74464, Note_off_c, 1, 74, 64
2, 74880, Note_on_c, 1, 75, 40
2, 74880, Note_on_c, 1, 77, 40
2, 75016, Note_off_c, 1, 77, 64
2, 75016, Note_off_c, 1, 75, 64
2, 76800, Note_on_c, 1, 87, 60
2, 76800, Note_on_c, 1, 81, 44
2, 76864, Note_off_c, 1, 81, 64
2, 76864, Note_off_c, 1, 87, 64
2, 77280, Note_on_c, 1, 81, 44
2, 77280, Note_on_c, 1, 87, 61
2, 77340, Note_off_c, 1, 87, 64
2, 77340, Note_off_c, 1, 81, 64
2, 77760, Note_on_c, 1, 82, 37
2, 77760, Note_on_c, 1, 86, 57
2, 77900, Note_off_c, 1, 86, 64
2, 77900, Note_off_c, 1, 82, 64
2, 78720, Note_on_c, 1, 74, 97
2, 79070, Note_on_c, 1, 75, 92
2, 79093, Note_off_c, 1, 74, 64
2, 79200, Note_on_c, 1, 77, 97
2, 79233, Note_off_c, 1, 75, 64
2, 79450, Note_on_c, 1, 79, 94
2, 79462, Note_off_c, 1, 77, 64
2, 79680, Note_on_c, 1, 75, 99
2, 79710, Note_off_c, 1, 79, 64
2, 79930, Note_on_c, 1, 72, 77
2, 79955, Note_off_c, 1, 75, 64
2, 80160, Note_on_c, 1, 74, 81
2, 80203, Note_off_c, 1, 72, 64
2, 80410, Note_off_c, 1, 74, 64
2, 80410, Note_on_c, 1, 75, 97
2, 80640, Note_on_c, 1, 77, 94
2, 80683, Note_off_c, 1, 75, 64
2, 80890, Note_on_c, 1, 79, 88
2, 80917, Note_off_c, 1, 77, 64
2, 81120, Note_on_c, 1, 75, 102
2, 81155, Note_off_c, 1, 79, 64
2, 81370, Note_on_c, 1, 72, 73
2, 81385, Note_off_c, 1, 75, 64
2, 81600, Note_on_c, 1, 74, 51
2, 81650, Note_off_c, 1, 72, 64
2, 81850, Note_on_c, 1, 75, 64
2, 81872, Note_off_c, 1, 74, 64
2, 82080, Note_on_c, 1, 77, 36
2, 82100, Note_off_c, 1, 75, 64
2, 82137, Note_off_c, 1, 77, 64
2, 82330, Note_on_c, 1, 87, 42
2, 82560, Note_on_c, 1, 86, 55
2, 82595, Note_off_c, 1, 87, 64
2, 82797, Note_off_c, 1, 86, 64
2, 82810, Note_on_c, 1, 84, 46
2, 83040, Note_on_c, 1, 82, 37
2, 83050, Note_off_c, 1, 84, 64
2, 83290, Note_on_c, 1, 81, 30
2, 83315, Note_off_c, 1, 82, 64
2, 83520, Note_on_c, 1, 79, 40
2, 83547, Note_off_c, 1, 81, 64
2, 83757, Note_off_c, 1, 79, 64
2, 83770, Note_on_c, 1, 77, 51
2, 84000, Note_on_c, 1, 76, 60
2, 84013, Note_off_c, 1, 77, 64
2, 84250, Note_on_c, 1, 75, 69
2, 84280, Note_off_c, 1, 76, 64
2, 84480, Note_on_c, 1, 74, 79
2, 84518, Note_off_c, 1, 75, 64
2, 84730, Note_on_c, 1, 72, 86
2, 84743, Note_off_c, 1, 74, 64
2, 84905, Note_off_c, 1, 72, 64
2, 84960, Note_on_c, 1, 77, 102
2, 85340, Note_on_c, 1, 79, 67
2, 85358, Note_off_c, 1, 77, 64
2, 85410, Note_off_c, 1, 79, 64
2, 85440, Note_on_c, 1, 70, 106
2, 85440, Note_on_c, 1, 65, 69
2, 85651, Note_off_c, 1, 65, 64
2, 85651, Note_off_c, 1, 70, 64
2, 85920, Note_on_c, 1, 63, 67
2, 85920, Note_on_c, 1, 69, 104
2, 86116, Note_off_c, 1, 69, 64
2, 86116, Note_off_c, 1, 63, 64
2, 86400, Note_on_c, 1, 70, 108
2, 86400, Note_on_c, 1, 62, 74
2, 86804, Note_off_c, 1, 62, 64
2, 86804, Note_off_c, 1, 70, 64
2, 87360, Note_on_c, 1, 79, 61
2, 87360, Note_on_c, 1, 75, 43
2, 87710, Note_off_c, 1, 75, 64
2, 87710, Note_off_c, 1, 79, 64
2, 87725, Note_on_c, 1, 74, 36
2, 87725, Note_on_c, 1, 77, 49
2, 87780, Note_off_c, 1, 77, 64
2, 87780, Note_off_c, 1, 74, 64
2, 87840, Note_on_c, 1, 77, 60
2, 87840, Note_on_c, 1, 74, 54
2, 88195, Note_off_c, 1, 74, 64
2, 88195, Note_off_c, 1, 77, 64
2, 88770, Note_on_c, 1, 75, 43
2, 88770, Note_on_c, 1, 81, 61
2, 89150, Note_off_c, 1, 81, 64
2, 89150, Note_on_c, 1, 82, 53
2, 89150, Note_on_c, 1, 74, 38
2, 89155, Note_off_c, 1, 75, 64
2, 89198, Note_off_c, 1, 82, 64
2, 89198, Note_off_c, 1, 74, 64
2, 89280, Note_on_c, 1, 74, 38
2, 89280, Note_on_c, 1, 82, 45
2, 89580, Note_off_c, 1, 82, 64
2, 89580, Note_off_c, 1, 74, 64
2, 90240, Note_on_c, 1, 74, 86
2, 90600, Note_off_c, 1, 74, 64
2, 90605, Note_on_c, 1, 70, 83
2, 90705, Note_off_c, 1, 70, 64
2, 90720, Note_on_c, 1, 75, 88
2, 90720, Note_on_c, 1, 67, 67
2, 91350, Note_off_c, 1, 75, 64
2, 91500, Note_off_c, 1, 67, 64
2, 91680, Note_on_c, 1, 72, 71
2, 91680, Note_on_c, 1, 63, 61
2, 92030, Note_off_c, 1, 63, 64
2, 92030, Note_off_c, 1, 72, 64
2, 92042, Note_on_c, 1, 69, 58
2, 92160, Note_on_c, 1, 62, 36
2, 92160, Note_on_c, 1, 70, 69
2, 92185, Note_off_c, 1, 69, 64
2, 92460, Note_off_c, 1, 62, 64
2, 92460, Note_off_c, 1, 70, 64
2, 93120, Note_on_c, 1, 70, 54
2, 93225, Note_on_c, 1, 72, 55
2, 93260, Note_off_c, 1, 70, 64
2, 93360, Note_on_c, 1, 70, 59
2, 93365, Note_off_c, 1, 72, 64
2, 93475, Note_on_c, 1, 69, 51
2, 93500, Note_off_c, 1, 70, 64
2, 93600, Note_on_c, 1, 70, 58
2, 93615, Note_off_c, 1, 69, 64
2, 94017, Note_off_c, 1, 70, 64
2, 94432, Note_on_c, 1, 70, 61
2, 94507, Note_off_c, 1, 70, 64
2, 94555, Note_on_c, 1, 75, 75
2, 94733, Note_off_c, 1, 75, 64
2, 94915, Note_on_c, 1, 75, 80
2, 94960, Note_off_c, 1, 75, 64
2, 95040, Note_on_c, 1, 75, 95
2, 95520, Note_on_c, 1, 74, 48
2, 95557, Note_off_c, 1, 75, 64
2, 95737, Note_off_c, 1, 74, 64
2, 96000, Note_on_c, 1, 70, 42
2, 96105, Note_on_c, 1, 72, 46
2, 96140, Note_off_c, 1, 70, 64
2, 96240, Note_on_c, 1, 70, 49
2, 96245, Note_off_c, 1, 72, 64
2, 96355, Note_on_c, 1, 69, 53
2, 96380, Note_off_c, 1, 70, 64
2, 96480, Note_on_c, 1, 70, 56
2, 96495, Note_off_c, 1, 69, 64
2, 96867, Note_off_c, 1, 70, 64
2, 97287, Note_on_c, 1, 70, 68
2, 97387, Note_off_c, 1, 70, 64
2, 97422, Note_on_c, 1, 79, 77
2, 97587, Note_off_c, 1, 79, 64
2, 97802, Note_on_c, 1, 79, 77
2, 97862, Note_off_c, 1, 79, 64
2, 97927, Note_on_c, 1, 82, 102
2, 98425, Note_on_c, 1, 80, 77
2, 98467, Note_off_c, 1, 82, 64
2, 98652, Note_off_c, 1, 80, 64
2, 98890, Note_on_c, 1, 80, 85
2, 99015, Note_on_c, 1, 82, 83
2, 99035, Note_off_c, 1, 80, 64
2, 99130, Note_on_c, 1, 80, 86
2, 99192, Note_off_c, 1, 82, 64
2, 99242, Note_on_c, 1, 77, 73
2, 99257, Note_off_c, 1, 80, 64
2, 99350, Note_off_c, 1, 77, 64
2, 99372, Note_on_c, 1, 79, 79
2, 99482, Note_on_c, 1, 80, 62
2, 99515, Note_off_c, 1, 79, 64
2, 99605, Note_on_c, 1, 79, 66
2, 99647, Note_off_c, 1, 80, 64
2, 99720, Note_on_c, 1, 75, 67
2, 99735, Note_off_c, 1, 79, 64
2, 99817, Note_off_c, 1, 75, 64
2, 99840, Note_on_c, 1, 82, 105
2, 100017, Note_on_c, 1, 80, 83
2, 100062, Note_off_c, 1, 82, 64
2, 100177, Note_on_c, 1, 79, 74
2, 100325, Note_off_c, 1, 80, 64
2, 100325, Note_on_c, 1, 77, 86
2, 100335, Note_off_c, 1, 79, 64
2, 100487, Note_on_c, 1, 75, 83
2, 100500, Note_off_c, 1, 77, 64
2, 100640, Note_on_c, 1, 73, 84
2, 100675, Note_off_c, 1, 75, 64
2, 100787, Note_off_c, 1, 73, 64
2, 100790, Note_on_c, 1, 72, 92
2, 100912, Note_on_c, 1, 73, 86
2, 100940, Note_off_c, 1, 72, 64
2, 101035, Note_on_c, 1, 72, 78
2, 101060, Note_off_c, 1, 73, 64
2, 101155, Note_on_c, 1, 68, 97
2, 101167, Note_off_c, 1, 72, 64
2, 101197, Note_off_c, 1, 68, 64
2, 101322, Note_on_c, 1, 84, 83
2, 101480, Note_on_c, 1, 82, 90
2, 101540, Note_off_c, 1, 84, 64
2, 101612, Note_on_c, 1, 80, 90
2, 101665, Note_off_c, 1, 82, 64
2, 101770, Note_on_c, 1, 79, 84
2, 101795, Note_off_c, 1, 80, 64
2, 101927, Note_on_c, 1, 77, 83
2, 101957, Note_off_c, 1, 79, 64
2, 102082, Note_on_c, 1, 76, 79
2, 102092, Note_off_c, 1, 77, 64
2, 102212, Note_off_c, 1, 76, 64
2, 102250, Note_on_c, 1, 77, 86
2, 102350, Note_on_c, 1, 79, 84
2, 102375, Note_off_c, 1, 77, 64
2, 102465, Note_on_c, 1, 77, 78
2, 102492, Note_off_c, 1, 79, 64
2, 102572, Note_on_c, 1, 72, 68
2, 102590, Note_off_c, 1, 77, 64
2, 102660, Note_off_c, 1, 72, 64
2, 102705, Note_on_c, 1, 84, 99
2, 102882, Note_on_c, 1, 82, 97
2, 102920, Note_off_c, 1, 84, 64
2, 103037, Note_on_c, 1, 80, 88
2, 103092, Note_off_c, 1, 82, 64
2, 103187, Note_on_c, 1, 79, 78
2, 103197, Note_off_c, 1, 80, 64
2, 103357, Note_on_c, 1, 77, 81
2, 103385, Note_off_c, 1, 79, 64
2, 103502, Note_on_c, 1, 75, 83
2, 103527, Note_off_c, 1, 77, 64
2, 103570, Note_off_c, 1, 75, 64
2, 103685, Note_on_c, 1, 75, 97
2, 104160, Note_on_c, 1, 74, 53
2, 104205, Note_off_c, 1, 75, 64
2, 104247, Note_off_c, 1, 74, 64
2, 104640, Note_on_c, 1, 77, 49
2, 104742, Note_on_c, 1, 79, 53
2, 104755, Note_off_c, 1, 77, 64
2, 104860, Note_on_c, 1, 77, 55
2, 104900, Note_off_c, 1, 79, 64
2, 104977, Note_on_c, 1, 74, 55
2, 105020, Note_off_c, 1, 77, 64
2, 105087, Note_off_c, 1, 74, 64
2, 105112, Note_on_c, 1, 75, 72
2, 105157, Note_off_c, 1, 75, 64
2, 105600, Note_on_c, 1, 72, 68
2, 105653, Note_off_c, 1, 72, 64
2, 106067, Note_on_c, 1, 81, 91
2, 106190, Note_on_c, 1, 82, 98
2, 106215, Note_off_c, 1, 81, 64
2, 106315, Note_on_c, 1, 81, 102
2, 106350, Note_off_c, 1, 82, 64
2, 106427, Note_on_c, 1, 77, 102
2, 106430, Note_off_c, 1, 81, 64
2, 106560, Note_on_c, 1, 82, 86
2, 106580, Note_off_c, 1, 77, 64
2, 107030, Note_on_c, 1, 86, 66
2, 107055, Note_off_c, 1, 82, 64
2, 107275, Note_off_c, 1, 86, 64
2, 107532, Note_on_c, 1, 77, 48
2, 107649, Note_on_c, 1, 79, 51
2, 107677, Note_off_c, 1, 77, 64
2, 107770, Note_on_c, 1, 77, 53
2, 107794, Note_off_c, 1, 79, 64
2, 107870, Note_on_c, 1, 74, 56
2, 107915, Note_off_c, 1, 77, 64
2, 108000, Note_on_c, 1, 75, 68
2, 108015, Note_off_c, 1, 74, 64
2, 108053, Note_off_c, 1, 75, 64
2, 108480, Note_on_c, 1, 72, 54
2, 108533, Note_off_c, 1, 72, 64
2, 108960, Note_on_c, 1, 81, 91
2, 109085, Note_on_c, 1, 82, 98
2, 109105, Note_off_c, 1, 81, 64
2, 109200, Note_on_c, 1, 81, 100
2, 109230, Note_off_c, 1, 82, 64
2, 109305, Note_on_c, 1, 77, 98
2, 109345, Note_off_c, 1, 81, 64
2, 109440, Note_on_c, 1, 82, 91
2, 109450, Note_off_c, 1, 77, 64
2, 109920, Note_off_c, 1, 82, 64
2, 109920, Note_on_c, 1, 86, 56
2, 110135, Note_off_c, 1, 86, 64
2, 110400, Note_on_c, 1, 84, 49
2, 110527, Note_on_c, 1, 82, 53
2, 110545, Note_off_c, 1, 84, 64
2, 110650, Note_on_c, 1, 81, 55
2, 110672, Note_off_c, 1, 82, 64
2, 110750, Note_on_c, 1, 79, 53
2, 110795, Note_off_c, 1, 81, 64
2, 110820, Note_off_c, 1, 79, 64
2, 110880, Note_on_c, 1, 79, 51
2, 111120, Note_on_c, 1, 77, 40
2, 111130, Note_off_c, 1, 79, 64
2, 111185, Note_off_c, 1, 77, 64
2, 111360, Note_on_c, 1, 77, 57
2, 111590, Note_off_c, 1, 77, 64
2, 111840, Note_on_c, 1, 79, 68
2, 111965, Note_on_c, 1, 77, 75
2, 111988, Note_off_c, 1, 79, 64
2, 112047, Note_off_c, 1, 77, 64
2, 112080, Note_on_c, 1, 75, 80
2, 112162, Note_off_c, 1, 75, 64
2, 112185, Note_on_c, 1, 74, 84
2, 112255, Note_off_c, 1, 74, 64
2, 112320, Note_on_c, 1, 74, 88
2, 112560, Note_on_c, 1, 72, 88
2, 112582, Note_off_c, 1, 74, 64
2, 112670, Note_off_c, 1, 72, 64
2, 112800, Note_on_c, 1, 72, 82
2, 112942, Note_off_c, 1, 72, 64
2, 113280, Note_on_c, 1, 72, 108
2, 113548, Note_off_c, 1, 72, 64
2, 113760, Note_on_c, 1, 74, 105
2, 113810, Note_off_c, 1, 74, 64
2, 113863, Note_on_c, 1, 75, 108
2, 113913, Note_off_c, 1, 75, 64
2, 113952, Note_on_c, 1, 77, 112
2, 114299, Note_off_c, 1, 77, 64
2, 114720, Note_on_c, 1, 77, 60
2, 114835, Note_on_c, 1, 75, 55
2, 114872, Note_off_c, 1, 77, 64
2, 114970, Note_on_c, 1, 74, 48
2, 115012, Note_off_c, 1, 75, 64
2, 115075, Note_on_c, 1, 72, 44
2, 115097, Note_off_c, 1, 74, 64
2, 115200, Note_on_c, 1, 70, 39
2, 115210, Note_off_c, 1, 72, 64
2, 115615, Note_off_c, 1, 70, 64
2, 116160, Note_on_c, 1, 70, 54
2, 116265, Note_on_c, 1, 72, 55
2, 116300, Note_off_c, 1, 70, 64
2, 116400, Note_on_c, 1, 70, 59
2, 116405, Note_off_c, 1, 72, 64
2, 116515, Note_on_c, 1, 69, 53
2, 116540, Note_off_c, 1, 70, 64
2, 116640, Note_on_c, 1, 70, 55
2, 116655, Note_off_c, 1, 69, 64
2, 117057, Note_off_c, 1, 70, 64
2, 117472, Note_on_c, 1, 70, 61
2, 117547, Note_off_c, 1, 70, 64
2, 117595, Note_on_c, 1, 75, 75
2, 117773, Note_off_c, 1, 75, 64
2, 117955, Note_on_c, 1, 75, 79
2, 118000, Note_off_c, 1, 75, 64
2, 118080, Note_on_c, 1, 75, 91
2, 118560, Note_on_c, 1, 74, 69
2, 118597, Note_off_c, 1, 75, 64
2, 118777, Note_off_c, 1, 74, 64
2, 119040, Note_on_c, 1, 70, 42
2, 119145, Note_on_c, 1, 72, 46
2, 119180, Note_off_c, 1, 70, 64
2, 119280, Note_on_c, 1, 70, 49
2, 119285, Note_off_c, 1, 72, 64
2, 119395, Note_on_c, 1, 69, 53
2, 119420, Note_off_c, 1, 70, 64
2, 119520, Note_on_c, 1, 70, 60
2, 119535, Note_off_c, 1, 69, 64
2, 119907, Note_off_c, 1, 70, 64
2, 120327, Note_on_c, 1, 70, 68
2, 120427, Note_off_c, 1, 70, 64
2, 120462, Note_on_c, 1, 79, 77
2, 120627, Note_off_c, 1, 79, 64
2, 120842, Note_on_c, 1, 79, 77
2, 120902, Note_off_c, 1, 79, 64
2, 120967, Note_on_c, 1, 82, 102
2, 121465, Note_on_c, 1, 80, 82
2, 121507, Note_off_c, 1, 82, 64
2, 121692, Note_off_c, 1, 80, 64
2, 121930, Note_on_c, 1, 80, 85
2, 122055, Note_on_c, 1, 82, 83
2, 122075, Note_off_c, 1, 80, 64
2, 122170, Note_on_c, 1, 80, 86
2, 122232, Note_off_c, 1, 82, 64
2, 122282, Note_on_c, 1, 77, 73
2, 122297, Note_off_c, 1, 80, 64
2, 122390, Note_off_c, 1, 77, 64
2, 122412, Note_on_c, 1, 79, 79
2, 122522, Note_on_c, 1, 80, 62
2, 122555, Note_off_c, 1, 79, 64
2, 122645, Note_on_c, 1, 79, 66
2, 122687, Note_off_c, 1, 80, 64
2, 122760, Note_on_c, 1, 75, 67
2, 122775, Note_off_c, 1, 79, 64
2, 122857, Note_off_c, 1, 75, 64
2, 122880, Note_on_c, 1, 82, 105
2, 123057, Note_on_c, 1, 80, 83
2, 123102, Note_off_c, 1, 82, 64
2, 123217, Note_on_c, 1, 79, 74
2, 123365, Note_off_c, 1, 80, 64
2, 123365, Note_on_c, 1, 77, 86
2, 123375, Note_off_c, 1, 79, 64
2, 123527, Note_on_c, 1, 75, 83
2, 123540, Note_off_c, 1, 77, 64
2, 123680, Note_on_c, 1, 73, 84
2, 123715, Note_off_c, 1, 75, 64
2, 123827, Note_off_c, 1, 73, 64
2, 123830, Note_on_c, 1, 72, 97
2, 123952, Note_on_c, 1, 73, 89
2, 123980, Note_off_c, 1, 72, 64
2, 124075, Note_on_c, 1, 72, 88
2, 124100, Note_off_c, 1, 73, 64
2, 124195, Note_on_c, 1, 68, 91
2, 124207, Note_off_c, 1, 72, 64
2, 124237, Note_off_c, 1, 68, 64
2, 124362, Note_on_c, 1, 84, 93
2, 124520, Note_on_c, 1, 82, 91
2, 124580, Note_off_c, 1, 84, 64
2, 124652, Note_on_c, 1, 80, 89
2, 124705, Note_off_c, 1, 82, 64
2, 124810, Note_on_c, 1, 79, 86
2, 124835, Note_off_c, 1, 80, 64
2, 124967, Note_on_c, 1, 77, 83
2, 124997, Note_off_c, 1, 79, 64
2, 125122, Note_on_c, 1, 76, 79
2, 125132, Note_off_c, 1, 77, 64
2, 125252, Note_off_c, 1, 76, 64
2, 125290, Note_on_c, 1, 77, 86
2, 125390, Note_on_c, 1, 79, 84
2, 125415, Note_off_c, 1, 77, 64
2, 125505, Note_on_c, 1, 77, 78
2, 125532, Note_off_c, 1, 79, 64
2, 125612, Note_on_c, 1, 72, 68
2, 125630, Note_off_c, 1, 77, 64
2, 125700, Note_off_c, 1, 72, 64
2, 125745, Note_on_c, 1, 84, 100
2, 125922, Note_on_c, 1, 82, 95
2, 125960, Note_off_c, 1, 84, 64
2, 126077, Note_on_c, 1, 80, 88
2, 126132, Note_off_c, 1, 82, 64
2, 126227, Note_on_c, 1, 79, 82
2, 126237, Note_off_c, 1, 80, 64
2, 126397, Note_on_c, 1, 77, 79
2, 126425, Note_off_c, 1, 79, 64
2, 126542, Note_on_c, 1, 75, 85
2, 126567, Note_off_c, 1, 77, 64
2, 126610, Note_off_c, 1, 75, 64
2, 126725, Note_on_c, 1, 75, 93
2, 127200, Note_on_c, 1, 74, 64
2, 127245, Note_off_c, 1, 75, 64
2, 127287, Note_off_c, 1, 74, 64
2, 127680, Note_on_c, 1, 77, 49
2, 127782, Note_on_c, 1, 79, 53
2, 127795, Note_off_c, 1, 77, 64
2, 127900, Note_on_c, 1, 77, 55
2, 127940, Note_off_c, 1, 79, 64
2, 128017, Note_on_c, 1, 74, 55
2, 128060, Note_off_c, 1, 77, 64
2, 128127, Note_off_c, 1, 74, 64
2, 128152, Note_on_c, 1, 75, 64
2, 128197, Note_off_c, 1, 75, 64
2, 128640, Note_on_c, 1, 72, 68
2, 128693, Note_off_c, 1, 72, 64
2, 129107, Note_on_c, 1, 81, 97
2, 129230, Note_on_c, 1, 82, 86
2, 129255, Note_off_c, 1, 81, 64
2, 129355, Note_on_c, 1, 81, 84
2, 129390, Note_off_c, 1, 82, 64
2, 129467, Note_on_c, 1, 77, 86
2, 129470, Note_off_c, 1, 81, 64
2, 129600, Note_on_c, 1, 82, 91
2, 129620, Note_off_c, 1, 77, 64
2, 130070, Note_on_c, 1, 86, 75
2, 130095, Note_off_c, 1, 82, 64
2, 130315, Note_off_c, 1, 86, 64
2, 130572, Note_on_c, 1, 77, 48
2, 130689, Note_on_c, 1, 79, 51
2, 130717, Note_off_c, 1, 77, 64
2, 130810, Note_on_c, 1, 77, 53
2, 130834, Note_off_c, 1, 79, 64
2, 130910, Note_on_c, 1, 74, 48
2, 130955, Note_off_c, 1, 77, 64
2, 131040, Note_on_c, 1, 75, 68
2, 131055, Note_off_c, 1, 74, 64
2, 131093, Note_off_c, 1, 75, 64
2, 131520, Note_on_c, 1, 72, 44
2, 131573, Note_off_c, 1, 72, 64
2, 132000, Note_on_c, 1, 81, 91
2, 132125, Note_on_c, 1, 82, 98
2, 132145, Note_off_c, 1, 81, 64
2, 132240, Note_on_c, 1, 81, 100
2, 132270, Note_off_c, 1, 82, 64
2, 132345, Note_on_c, 1, 77, 98
2, 132385, Note_off_c, 1, 81, 64
2, 132480, Note_on_c, 1, 82, 91
2, 132490, Note_off_c, 1, 77, 64
2, 132960, Note_off_c, 1, 82, 64
2, 132960, Note_on_c, 1, 86, 68
2, 133175, Note_off_c, 1, 86, 64
2, 133440, Note_on_c, 1, 84, 49
2, 133567, Note_on_c, 1, 82, 53
2, 133585, Note_off_c, 1, 84, 64
2, 133690, Note_on_c, 1, 81, 55
2, 133712, Note_off_c, 1, 82, 64
2, 133790, Note_on_c, 1, 79, 53
2, 133835, Note_off_c, 1, 81, 64
2, 133860, Note_off_c, 1, 79, 64
2, 133920, Note_on_c, 1, 79, 51
2, 134160, Note_on_c, 1, 77, 40
2, 134170, Note_off_c, 1, 79, 64
2, 134225, Note_off_c, 1, 77, 64
2, 134400, Note_on_c, 1, 77, 57
2, 134630, Note_off_c, 1, 77, 64
2, 134880, Note_on_c, 1, 79, 68
2, 135005, Note_on_c, 1, 77, 75
2, 135028, Note_off_c, 1, 79, 64
2, 135087, Note_off_c, 1, 77, 64
2, 135120, Note_on_c, 1, 75, 80
2, 135202, Note_off_c, 1, 75, 64
2, 135225, Note_on_c, 1, 74, 84
2, 135295, Note_off_c, 1, 74, 64
2, 135360, Note_on_c, 1, 74, 88
2, 135600, Note_on_c, 1, 72, 88
2, 135622, Note_off_c, 1, 74, 64
2, 135710, Note_off_c, 1, 72, 64
2, 135840, Note_on_c, 1, 72, 82
2, 135982, Note_off_c, 1, 72, 64
2, 136320, Note_on_c, 1, 72, 108
2, 136588, Note_off_c, 1, 72, 64
2, 136800, Note_on_c, 1, 74, 105
2, 136850, Note_off_c, 1, 74, 64
2, 136903, Note_on_c, 1, 75, 108
2, 136953, Note_off_c, 1, 75, 64
2, 136992, Note_on_c, 1, 77, 112
2, 137339, Note_off_c, 1, 77, 64
2, 137760, Note_on_c, 1, 77, 60
2, 137875, Note_on_c, 1, 75, 55
2, 137912, Note_off_c, 1, 77, 64
2, 138010, Note_on_c, 1, 74, 48
2, 138052, Note_off_c, 1, 75, 64
2, 138115, Note_on_c, 1, 72, 44
2, 138137, Note_off_c, 1, 74, 64
2, 138240, Note_on_c, 1, 70, 39
2, 138250, Note_off_c, 1, 72, 64
2, 138655, Note_off_c, 1, 70, 64
2, 139200, Note_on_c, 1, 70, 95
2, 139237, Note_off_c, 1, 70, 64
2, 139440, Note_on_c, 1, 70, 84
2, 139480, Note_off_c, 1, 70, 64
2, 139705, Note_on_c, 1, 71, 105
2, 139815, Note_off_c, 1, 71, 64
2, 139836, Note_on_c, 1, 72, 86
2, 140426, Note_off_c, 1, 72, 64
2, 140665, Note_on_c, 1, 74, 86
2, 140715, Note_off_c, 1, 74, 64
2, 140895, Note_on_c, 1, 74, 77
2, 140937, Note_off_c, 1, 74, 64
2, 141130, Note_on_c, 1, 74, 112
2, 141235, Note_on_c, 1, 75, 88
2, 141267, Note_off_c, 1, 74, 64
2, 141772, Note_off_c, 1, 75, 64
2, 142080, Note_on_c, 1, 77, 61
2, 142137, Note_off_c, 1, 77, 64
2, 142312, Note_on_c, 1, 77, 70
2, 142365, Note_off_c, 1, 77, 64
2, 142547, Note_on_c, 1, 78, 115
2, 142632, Note_off_c, 1, 78, 64
2, 142675, Note_on_c, 1, 79, 86
2, 143142, Note_off_c, 1, 79, 64
2, 143497, Note_on_c, 1, 81, 57
2, 143555, Note_off_c, 1, 81, 64
2, 143747, Note_on_c, 1, 81, 67
2, 143800, Note_off_c, 1, 81, 64
2, 144007, Note_on_c, 1, 81, 108
2, 144120, Note_on_c, 1, 82, 108
2, 144145, Note_off_c, 1, 81, 64
2, 144475, Note_off_c, 1, 82, 64
2, 144970, Note_on_c, 1, 70, 53
2, 145042, Note_off_c, 1, 70, 64
2, 145200, Note_on_c, 1, 70, 54
2, 145257, Note_off_c, 1, 70, 64
2, 145455, Note_on_c, 1, 75, 112
2, 145705, Note_on_c, 1, 77, 84
2, 145727, Note_off_c, 1, 75, 64
2, 145937, Note_on_c, 1, 78, 90
2, 145945, Note_off_c, 1, 77, 64
2, 146170, Note_on_c, 1, 77, 79
2, 146207, Note_off_c, 1, 78, 64
2, 146387, Note_off_c, 1, 77, 64
2, 146395, Note_on_c, 1, 75, 108
2, 146630, Note_on_c, 1, 74, 90
2, 146670, Note_off_c, 1, 75, 64
2, 146800, Note_off_c, 1, 74, 64
2, 146867, Note_on_c, 1, 75, 49
2, 147085, Note_on_c, 1, 77, 55
2, 147102, Note_off_c, 1, 75, 64
2, 147355, Note_off_c, 1, 77, 64
2, 147360, Note_on_c, 1, 78, 50
2, 147590, Note_on_c, 1, 79, 45
2, 147610, Note_off_c, 1, 78, 64
2, 147817, Note_on_c, 1, 80, 48
2, 147850, Note_off_c, 1, 79, 64
2, 148067, Note_on_c, 1, 81, 44
2, 148117, Note_off_c, 1, 80, 64
2, 148330, Note_on_c, 1, 82, 45
2, 148367, Note_off_c, 1, 81, 64
2, 148617, Note_off_c, 1, 82, 64
2, 149275, Note_on_c, 1, 58, 115
2, 149390, Note_on_c, 1, 59, 99
2, 149415, Note_off_c, 1, 58, 64
2, 149510, Note_on_c, 1, 58, 112
2, 149520, Note_off_c, 1, 59, 64
2, 149617, Note_on_c, 1, 57, 97
2, 149645, Note_off_c, 1, 58, 64
2, 149760, Note_on_c, 1, 58, 119
2, 149765, Note_off_c, 1, 57, 64
2, 149892, Note_off_c, 1, 58, 64
2, 150720, Note_on_c, 1, 70, 54
2, 150825, Note_on_c, 1, 72, 55
2, 150860, Note_off_c, 1, 70, 64
2, 150960, Note_on_c, 1, 70, 59
2, 150965, Note_off_c, 1, 72, 64
2, 151075, Note_on_c, 1, 69, 51
2, 151100, Note_off_c, 1, 70, 64
2, 151200, Note_on_c, 1, 70, 62
2, 151215, Note_off_c, 1, 69, 64
2, 151617, Note_off_c, 1, 70, 64
2, 152032, Note_on_c, 1, 70, 61
2, 152107, Note_off_c, 1, 70, 64
2, 152155, Note_on_c, 1, 75, 75
2, 152333, Note_off_c, 1, 75, 64
2, 152515, Note_on_c, 1, 75, 79
2, 152560, Note_off_c, 1, 75, 64
2, 152640, Note_on_c, 1, 75, 91
2, 153120, Note_on_c, 1, 74, 69
2, 153157, Note_off_c, 1, 75, 64
2, 153337, Note_off_c, 1, 74, 64
2, 153600, Note_on_c, 1, 70, 42
2, 153705, Note_on_c, 1, 72, 46
2, 153740, Note_off_c, 1, 70, 64
2, 153840, Note_on_c, 1, 70, 49
2, 153845, Note_off_c, 1, 72, 64
2, 153955, Note_on_c, 1, 69, 53
2, 153980, Note_off_c, 1, 70, 64
2, 154080, Note_on_c, 1, 70, 59
2, 154095, Note_off_c, 1, 69, 64
2, 154467, Note_off_c, 1, 70, 64
2, 154887, Note_on_c, 1, 70, 68
2, 154987, Note_off_c, 1, 70, 64
2, 155022, Note_on_c, 1, 79, 77
2, 155187, Note_off_c, 1, 79, 64
2, 155402, Note_on_c, 1, 79, 77
2, 155462, Note_off_c, 1, 79, 64
2, 155527, Note_on_c, 1, 82, 102
2, 156025, Note_on_c, 1, 80, 82
2, 156067, Note_off_c, 1, 82, 64
2, 156252, Note_off_c, 1, 80, 64
2, 156490, Note_on_c, 1, 80, 85
2, 156615, Note_on_c, 1, 82, 83
2, 156635, Note_off_c, 1, 80, 64
2, 156730, Note_on_c, 1, 80, 86
2, 156792, Note_off_c, 1, 82, 64
2, 156842, Note_on_c, 1, 77, 73
2, 156857, Note_off_c, 1, 80, 64
2, 156950, Note_off_c, 1, 77, 64
2, 156972, Note_on_c, 1, 79, 79
2, 157082, Note_on_c, 1, 80, 62
2, 157115, Note_off_c, 1, 79, 64
2, 157205, Note_on_c, 1, 79, 66
2, 157247, Note_off_c, 1, 80, 64
2, 157320, Note_on_c, 1, 75, 67
2, 157335, Note_off_c, 1, 79, 64
2, 157417, Note_off_c, 1, 75, 64
2, 157440, Note_on_c, 1, 82, 105
2, 157617, Note_on_c, 1, 80, 83
2, 157662, Note_off_c, 1, 82, 64
2, 157777, Note_on_c, 1, 79, 74
2, 157925, Note_off_c, 1, 80, 64
2, 157925, Note_on_c, 1, 77, 86
2, 157935, Note_off_c, 1, 79, 64
2, 158087, Note_on_c, 1, 75, 83
2, 158100, Note_off_c, 1, 77, 64
2, 158240, Note_on_c, 1, 73, 84
2, 158275, Note_off_c, 1, 75, 64
2, 158387, Note_off_c, 1, 73, 64
2, 158390, Note_on_c, 1, 72, 97
2, 158512, Note_on_c, 1, 73, 89
2, 158540, Note_off_c, 1, 72, 64
2, 158635, Note_on_c, 1, 72, 88
2, 158660, Note_off_c, 1, 73, 64
2, 158755, Note_on_c, 1, 68, 91
2, 158767, Note_off_c, 1, 72, 64
2, 158797, Note_off_c, 1, 68, 64
2, 158922, Note_on_c, 1, 84, 93
2, 159080, Note_on_c, 1, 82, 91
2, 159140, Note_off_c, 1, 84, 64
2, 159212, Note_on_c, 1, 80, 89
2, 159265, Note_off_c, 1, 82, 64
2, 159370, Note_on_c, 1, 79, 86
2, 159395, Note_off_c, 1, 80, 64
2, 159527, Note_on_c, 1, 77, 83
2, 159557, Note_off_c, 1, 79, 64
2, 159682, Note_on_c, 1, 76, 79
2, 159692, Note_off_c, 1, 77, 64
2, 159812, Note_off_c, 1, 76, 64
2, 159850, Note_on_c, 1, 77, 86
2, 159950, Note_on_c, 1, 79, 84
2, 159975, Note_off_c, 1, 77, 64
2, 160065, Note_on_c, 1, 77, 78
2, 160092, Note_off_c, 1, 79, 64
2, 160172, Note_on_c, 1, 72, 68
2, 160190, Note_off_c, 1, 77, 64
2, 160260, Note_off_c, 1, 72, 64
2, 160305, Note_on_c, 1, 84, 100
2, 160482, Note_on_c, 1, 82, 95
2, 160520, Note_off_c, 1, 84, 64
2, 160637, Note_on_c, 1, 80, 88
2, 160692, Note_off_c, 1, 82, 64
2, 160787, Note_on_c, 1, 79, 82
2, 160797, Note_off_c, 1, 80, 64
2, 160957, Note_on_c, 1, 77, 71
2, 160985, Note_off_c, 1, 79, 64
2, 161102, Note_on_c, 1, 75, 82
2, 161127, Note_off_c, 1, 77, 64
2, 161170, Note_off_c, 1, 75, 64
2, 161285, Note_on_c, 1, 75, 93
2, 161760, Note_on_c, 1, 74, 53
2, 161805, Note_off_c, 1, 75, 64
2, 161847, Note_off_c, 1, 74, 64
2, 162240, Note_on_c, 1, 70, 51
2, 162362, Note_off_c, 1, 70, 64
2, 162367, Note_on_c, 1, 72, 49
2, 162467, Note_on_c, 1, 70, 49
2, 162512, Note_off_c, 1, 72, 64
2, 162590, Note_on_c, 1, 67, 57
2, 162605, Note_off_c, 1, 70, 64
2, 162720, Note_on_c, 1, 68, 97
2, 162747, Note_off_c, 1, 67, 64
2, 162770, Note_off_c, 1, 68, 64
2, 163200, Note_on_c, 1, 65, 71
2, 163252, Note_off_c, 1, 65, 64
2, 163680, Note_on_c, 1, 74, 73
2, 163795, Note_on_c, 1, 75, 71
2, 163803, Note_off_c, 1, 74, 64
2, 163912, Note_off_c, 1, 75, 64
2, 163915, Note_on_c, 1, 74, 73
2, 164035, Note_on_c, 1, 70, 77
2, 164050, Note_off_c, 1, 74, 64
2, 164160, Note_on_c, 1, 75, 88
2, 164180, Note_off_c, 1, 70, 64
2, 164640, Note_on_c, 1, 79, 75
2, 164670, Note_off_c, 1, 75, 64
2, 164817, Note_off_c, 1, 79, 64
2, 165120, Note_on_c, 1, 70, 64
2, 165230, Note_on_c, 1, 72, 57
2, 165245, Note_off_c, 1, 70, 64
2, 165350, Note_on_c, 1, 70, 47
2, 165390, Note_off_c, 1, 72, 64
2, 165460, Note_on_c, 1, 67, 51
2, 165465, Note_off_c, 1, 70, 64
2, 165600, Note_on_c, 1, 68, 105
2, 165615, Note_off_c, 1, 67, 64
2, 165650, Note_off_c, 1, 68, 64
2, 166080, Note_on_c, 1, 65, 83
2, 166122, Note_off_c, 1, 65, 64
2, 166560, Note_on_c, 1, 74, 73
2, 166675, Note_on_c, 1, 75, 77
2, 166688, Note_off_c, 1, 74, 64
2, 166795, Note_off_c, 1, 75, 64
2, 166795, Note_on_c, 1, 74, 79
2, 166905, Note_off_c, 1, 74, 64
2, 166905, Note_on_c, 1, 70, 86
2, 166977, Note_off_c, 1, 70, 64
2, 167040, Note_on_c, 1, 75, 90
2, 167520, Note_on_c, 1, 79, 70
2, 167555, Note_off_c, 1, 75, 64
2, 167630, Note_off_c, 1, 79, 64
2, 168000, Note_on_c, 1, 89, 83
2, 168122, Note_on_c, 1, 87, 92
2, 168142, Note_off_c, 1, 89, 64
2, 168215, Note_off_c, 1, 87, 64
2, 168240, Note_on_c, 1, 86, 90
2, 168335, Note_off_c, 1, 86, 64
2, 168335, Note_on_c, 1, 84, 86
2, 168400, Note_off_c, 1, 84, 64
2, 168480, Note_on_c, 1, 84, 102
2, 168730, Note_on_c, 1, 82, 60
2, 168752, Note_off_c, 1, 84, 64
2, 168810, Note_off_c, 1, 82, 64
2, 168960, Note_on_c, 1, 82, 70
2, 169025, Note_off_c, 1, 82, 64
2, 169440, Note_on_c, 1, 84, 86
2, 169497, Note_off_c, 1, 84, 64
2, 169570, Note_on_c, 1, 82, 86
2, 169615, Note_off_c, 1, 82, 64
2, 169685, Note_on_c, 1, 80, 86
2, 169740, Note_off_c, 1, 80, 64
2, 169800, Note_on_c, 1, 79, 79
2, 169860, Note_off_c, 1, 79, 64
2, 169920, Note_on_c, 1, 79, 84
2, 170167, Note_off_c, 1, 79, 64
2, 170170, Note_on_c, 1, 77, 69
2, 170235, Note_off_c, 1, 77, 64
2, 170400, Note_on_c, 1, 77, 71
2, 170458, Note_off_c, 1, 77, 64
2, 170880, Note_on_c, 1, 77, 97
2, 171007, Note_off_c, 1, 77, 64
2, 171360, Note_on_c, 1, 79, 102
2, 171405, Note_off_c, 1, 79, 64
2, 171450, Note_on_c, 1, 80, 112
2, 171498, Note_off_c, 1, 80, 64
2, 171540, Note_on_c, 1, 82, 112
2, 171905, Note_off_c, 1, 82, 64
2, 172320, Note_on_c, 1, 82, 49
2, 172437, Note_on_c, 1, 80, 60
2, 172497, Note_off_c, 1, 82, 64
2, 172570, Note_on_c, 1, 79, 50
2, 172595, Note_off_c, 1, 80, 64
2, 172685, Note_off_c, 1, 79, 64
2, 172685, Note_on_c, 1, 77, 47
2, 172800, Note_on_c, 1, 75, 52
2, 172810, Note_off_c, 1, 77, 64
2, 173175, Note_off_c, 1, 75, 64
2, 173760, Note_on_c, 1, 70, 95
2, 173797, Note_off_c, 1, 70, 64
2, 174000, Note_on_c, 1, 70, 84
2, 174040, Note_off_c, 1, 70, 64
2, 174265, Note_on_c, 1, 71, 98
2, 174375, Note_off_c, 1, 71, 64
2, 174396, Note_on_c, 1, 72, 89
2, 174986, Note_off_c, 1, 72, 64
2, 175225, Note_on_c, 1, 74, 86
2, 175275, Note_off_c, 1, 74, 64
2, 175455, Note_on_c, 1, 74, 77
2, 175497, Note_off_c, 1, 74, 64
2, 175690, Note_on_c, 1, 74, 112
2, 175795, Note_on_c, 1, 75, 88
2, 175827, Note_off_c, 1, 74, 64
2, 176332, Note_off_c, 1, 75, 64
2, 176640, Note_on_c, 1, 77, 61
2, 176697, Note_off_c, 1, 77, 64
2, 176872, Note_on_c, 1, 77, 70
2, 176925, Note_off_c, 1, 77, 64
2, 177107, Note_on_c, 1, 78, 115
2, 177192, Note_off_c, 1, 78, 64
2, 177235, Note_on_c, 1, 79, 86
2, 177702, Note_off_c, 1, 79, 64
2, 178057, Note_on_c, 1, 81, 57
2, 178115, Note_off_c, 1, 81, 64
2, 178307, Note_on_c, 1, 81, 67
2, 178360, Note_off_c, 1, 81, 64
2, 178567, Note_on_c, 1, 81, 108
2, 178680, Note_on_c, 1, 82, 108
2, 178705, Note_off_c, 1, 81, 64
2, 179035, Note_off_c, 1, 82, 64
2, 179530, Note_on_c, 1, 70, 53
2, 179602, Note_off_c, 1, 70, 64
2, 179760, Note_on_c, 1, 70, 54
2, 179817, Note_off_c, 1, 70, 64
2, 180015, Note_on_c, 1, 75, 112
2, 180265, Note_on_c, 1, 77, 84
2, 180287, Note_off_c, 1, 75, 64
2, 180497, Note_on_c, 1, 78, 90
2, 180505, Note_off_c, 1, 77, 64
2, 180730, Note_on_c, 1, 77, 79
2, 180767, Note_off_c, 1, 78, 64
2, 180947, Note_off_c, 1, 77, 64
2, 180955, Note_on_c, 1, 75, 108
2, 181190, Note_on_c, 1, 74, 90
2, 181230, Note_off_c, 1, 75, 64
2, 181360, Note_off_c, 1, 74, 64
2, 181427, Note_on_c, 1, 75, 49
2, 181645, Note_on_c, 1, 77, 55
2, 181662, Note_off_c, 1, 75, 64
2, 181915, Note_off_c, 1, 77, 64
2, 181920, Note_on_c, 1, 78, 50
2, 182150, Note_on_c, 1, 79, 45
2, 182170, Note_off_c, 1, 78, 64
2, 182377, Note_on_c, 1, 80, 48
2, 182410, Note_off_c, 1, 79, 64
2, 182627, Note_on_c, 1, 81, 44
2, 182677, Note_off_c, 1, 80, 64
2, 182890, Note_on_c, 1, 82, 43
2, 182927, Note_off_c, 1, 81, 64
2, 183177, Note_off_c, 1, 82, 64
2, 183835, Note_on_c, 1, 58, 115
2, 183950, Note_on_c, 1, 59, 99
2, 183975, Note_off_c, 1, 58, 64
2, 184070, Note_on_c, 1, 58, 112
2, 184080, Note_off_c, 1, 59, 64
2, 184177, Note_on_c, 1, 57, 97
2, 184205, Note_off_c, 1, 58, 64
2, 184320, Note_on_c, 1, 58, 119
2, 184325, Note_off_c, 1, 57, 64
2, 184452, Note_off_c, 1, 58, 64
2, 185280, Note_on_c, 1, 70, 54
2, 185385, Note_on_c, 1, 72, 55
2, 185420, Note_off_c, 1, 70, 64
2, 185520, Note_on_c, 1, 70, 59
2, 185525, Note_off_c, 1, 72, 64
2, 185635, Note_on_c, 1, 69, 51
2, 185660, Note_off_c, 1, 70, 64
2, 185760, Note_on_c, 1, 70, 60
2, 185775, Note_off_c, 1, 69, 64
2, 186177, Note_off_c, 1, 70, 64
2, 186592, Note_on_c, 1, 70, 61
2, 186667, Note_off_c, 1, 70, 64
2, 186715, Note_on_c, 1, 75, 75
2, 186893, Note_off_c, 1, 75, 64
2, 187075, Note_on_c, 1, 75, 79
2, 187120, Note_off_c, 1, 75, 64
2, 187200, Note_on_c, 1, 75, 91
2, 187680, Note_on_c, 1, 74, 69
2, 187717, Note_off_c, 1, 75, 64
2, 187897, Note_off_c, 1, 74, 64
2, 188160, Note_on_c, 1, 70, 42
2, 188265, Note_on_c, 1, 72, 46
2, 188300, Note_off_c, 1, 70, 64
2, 188400, Note_on_c, 1, 70, 49
2, 188405, Note_off_c, 1, 72, 64
2, 188515, Note_on_c, 1, 69, 53
2, 188540, Note_off_c, 1, 70, 64
2, 188640, Note_on_c, 1, 70, 60
2, 188655, Note_off_c, 1, 69, 64
2, 189027, Note_off_c, 1, 70, 64
2, 189447, Note_on_c, 1, 70, 68
2, 189547, Note_off_c, 1, 70, 64
2, 189582, Note_on_c, 1, 79, 77
2, 189747, Note_off_c, 1, 79, 64
2, 189962, Note_on_c, 1, 79, 77
2, 190022, Note_off_c, 1, 79, 64
2, 190087, Note_on_c, 1, 82, 102
2, 190585, Note_on_c, 1, 80, 82
2, 190627, Note_off_c, 1, 82, 64
2, 190812, Note_off_c, 1, 80, 64
2, 191050, Note_on_c, 1, 80, 85
2, 191175, Note_on_c, 1, 82, 83
2, 191195, Note_off_c, 1, 80, 64
2, 191290, Note_on_c, 1, 80, 86
2, 191352, Note_off_c, 1, 82, 64
2, 191402, Note_on_c, 1, 77, 73
2, 191417, Note_off_c, 1, 80, 64
2, 191510, Note_off_c, 1, 77, 64
2, 191532, Note_on_c, 1, 79, 79
2, 191642, Note_on_c, 1, 80, 62
2, 191675, Note_off_c, 1, 79, 64
2, 191765, Note_on_c, 1, 79, 66
2, 191807, Note_off_c, 1, 80, 64
2, 191880, Note_on_c, 1, 75, 67
2, 191895, Note_off_c, 1, 79, 64
2, 191977, Note_off_c, 1, 75, 64
2, 192000, Note_on_c, 1, 82, 105
2, 192177, Note_on_c, 1, 80, 83
2, 192222, Note_off_c, 1, 82, 64
2, 192337, Note_on_c, 1, 79, 74
2, 192485, Note_off_c, 1, 80, 64
2, 192485, Note_on_c, 1, 77, 86
2, 192495, Note_off_c, 1, 79, 64
2, 192647, Note_on_c, 1, 75, 83
2, 192660, Note_off_c, 1, 77, 64
2, 192800, Note_on_c, 1, 73, 84
2, 192835, Note_off_c, 1, 75, 64
2, 192947, Note_off_c, 1, 73, 64
2, 192950, Note_on_c, 1, 72, 97
2, 193072, Note_on_c, 1, 73, 89
2, 193100, Note_off_c, 1, 72, 64
2, 193195, Note_on_c, 1, 72, 88
2, 193220, Note_off_c, 1, 73, 64
2, 193315, Note_on_c, 1, 68, 91
2, 193327, Note_off_c, 1, 72, 64
2, 193357, Note_off_c, 1, 68, 64
2, 193482, Note_on_c, 1, 84, 93
2, 193640, Note_on_c, 1, 82, 91
2, 193700, Note_off_c, 1, 84, 64
2, 193772, Note_on_c, 1, 80, 89
2, 193825, Note_off_c, 1, 82, 64
2, 193930, Note_on_c, 1, 79, 86
2, 193955, Note_off_c, 1, 80, 64
2, 194087, Note_on_c, 1, 77, 83
2, 194117, Note_off_c, 1, 79, 64
2, 194242, Note_on_c, 1, 76, 79
2, 194252, Note_off_c, 1, 77, 64
2, 194372, Note_off_c, 1, 76, 64
2, 194410, Note_on_c, 1, 77, 86
2, 194510, Note_on_c, 1, 79, 84
2, 194535, Note_off_c, 1, 77, 64
2, 194625, Note_on_c, 1, 77, 78
2, 194652, Note_off_c, 1, 79, 64
2, 194732, Note_on_c, 1, 72, 68
2, 194750, Note_off_c, 1, 77, 64
2, 194820, Note_off_c, 1, 72, 64
2, 194865, Note_on_c, 1, 84, 100
2, 195042, Note_on_c, 1, 82, 95
2, 195080, Note_off_c, 1, 84, 64
2, 195197, Note_on_c, 1, 80, 88
2, 195252, Note_off_c, 1, 82, 64
2, 195347, Note_on_c, 1, 79, 82
2, 195357, Note_off_c, 1, 80, 64
2, 195517, Note_on_c, 1, 77, 71
2, 195545, Note_off_c, 1, 79, 64
2, 195662, Note_on_c, 1, 75, 82
2, 195687, Note_off_c, 1, 77, 64
2, 195730, Note_off_c, 1, 75, 64
2, 195845, Note_on_c, 1, 75, 93
2, 196320, Note_on_c, 1, 74, 53
2, 196365, Note_off_c, 1, 75, 64
2, 196407, Note_off_c, 1, 74, 64
2, 196800, Note_on_c, 1, 70, 51
2, 196922, Note_off_c, 1, 70, 64
2, 196927, Note_on_c, 1, 72, 49
2, 197027, Note_on_c, 1, 70, 49
2, 197072, Note_off_c, 1, 72, 64
2, 197150, Note_on_c, 1, 67, 57
2, 197165, Note_off_c, 1, 70, 64
2, 197280, Note_on_c, 1, 68, 97
2, 197307, Note_off_c, 1, 67, 64
2, 197330, Note_off_c, 1, 68, 64
2, 197760, Note_on_c, 1, 65, 71
2, 197812, Note_off_c, 1, 65, 64
2, 198240, Note_on_c, 1, 74, 73
2, 198355, Note_on_c, 1, 75, 71
2, 198363, Note_off_c, 1, 74, 64
2, 198472, Note_off_c, 1, 75, 64
2, 198475, Note_on_c, 1, 74, 73
2, 198595, Note_on_c, 1, 70, 77
2, 198610, Note_off_c, 1, 74, 64
2, 198720, Note_on_c, 1, 75, 88
2, 198740, Note_off_c, 1, 70, 64
2, 199200, Note_on_c, 1, 79, 75
2, 199230, Note_off_c, 1, 75, 64
2, 199377, Note_off_c, 1, 79, 64
2, 199680, Note_on_c, 1, 70, 64
2, 199790, Note_on_c, 1, 72, 57
2, 199805, Note_off_c, 1, 70, 64
2, 199910, Note_on_c, 1, 70, 47
2, 199950, Note_off_c, 1, 72, 64
2, 200020, Note_on_c, 1, 67, 51
2, 200025, Note_off_c, 1, 70, 64
2, 200160, Note_on_c, 1, 68, 105
2, 200175, Note_off_c, 1, 67, 64
2, 200210, Note_off_c, 1, 68, 64
2, 200640, Note_on_c, 1, 65, 83
2, 200682, Note_off_c, 1, 65, 64
2, 201120, Note_on_c, 1, 74, 73
2, 201235, Note_on_c, 1, 75, 77
2, 201248, Note_off_c, 1, 74, 64
2, 201355, Note_off_c, 1, 75, 64
2, 201355, Note_on_c, 1, 74, 79
2, 201465, Note_off_c, 1, 74, 64
2, 201465, Note_on_c, 1, 70, 86
2, 201537, Note_off_c, 1, 70, 64
2, 201600, Note_on_c, 1, 75, 90
2, 202080, Note_on_c, 1, 79, 70
2, 202115, Note_off_c, 1, 75, 64
2, 202190, Note_off_c, 1, 79, 64
2, 202560, Note_on_c, 1, 89, 83
2, 202682, Note_on_c, 1, 87, 92
2, 202702, Note_off_c, 1, 89, 64
2, 202775, Note_off_c, 1, 87, 64
2, 202800, Note_on_c, 1, 86, 90
2, 202895, Note_off_c, 1, 86, 64
2, 202895, Note_on_c, 1, 84, 86
2, 202960, Note_off_c, 1, 84, 64
2, 203040, Note_on_c, 1, 84, 102
2, 203290, Note_on_c, 1, 82, 60
2, 203312, Note_off_c, 1, 84, 64
2, 203370, Note_off_c, 1, 82, 64
2, 203520, Note_on_c, 1, 82, 70
2, 203585, Note_off_c, 1, 82, 64
2, 204000, Note_on_c, 1, 84, 86
2, 204057, Note_off_c, 1, 84, 64
2, 204130, Note_on_c, 1, 82, 86
2, 204175, Note_off_c, 1, 82, 64
2, 204245, Note_on_c, 1, 80, 86
2, 204300, Note_off_c, 1, 80, 64
2, 204360, Note_on_c, 1, 79, 79
2, 204420, Note_off_c, 1, 79, 64
2, 204480, Note_on_c, 1, 79, 84
2, 204727, Note_off_c, 1, 79, 64
2, 204730, Note_on_c, 1, 77, 69
2, 204795, Note_off_c, 1, 77, 64
2, 204960, Note_on_c, 1, 77, 71
2, 205018, Note_off_c, 1, 77, 64
2, 205440, Note_on_c, 1, 77, 97
2, 205567, Note_off_c, 1, 77, 64
2, 205920, Note_on_c, 1, 79, 102
2, 205965, Note_off_c, 1, 79, 64
2, 206010, Note_on_c, 1, 80, 112
2, 206058, Note_off_c, 1, 80, 64
2, 206100, Note_on_c, 1, 82, 112
2, 206465, Note_off_c, 1, 82, 64
2, 206880, Note_on_c, 1, 82, 49
2, 206997, Note_on_c, 1, 80, 60
2, 207057, Note_off_c, 1, 82, 64
2, 207130, Note_on_c, 1, 79, 50
2, 207155, Note_off_c, 1, 80, 64
2, 207245, Note_off_c, 1, 79, 64
2, 207245, Note_on_c, 1, 77, 47
2, 207360, Note_on_c, 1, 75, 52
2, 207370, Note_off_c, 1, 77, 64
2, 207735, Note_off_c, 1, 75, 64
2, 208320, Note_on_c, 1, 74, 70
2, 208680, Note_on_c, 1, 75, 65
2, 208703, Note_off_c, 1, 74, 64
2, 208760, Note_off_c, 1, 75, 64
2, 208812, Note_on_c, 1, 72, 73
2, 209035, Note_on_c, 1, 70, 52
2, 209052, Note_off_c, 1, 72, 64
2, 209077, Note_off_c, 1, 70, 64
2, 209280, Note_on_c, 1, 70, 88
2, 209305, Note_off_c, 1, 70, 64
2, 209760, Note_on_c, 1, 70, 88
2, 209785, Note_off_c, 1, 70, 64
2, 210257, Note_on_c, 1, 69, 77
2, 210343, Note_off_c, 1, 69, 64
2, 211230, Note_on_c, 1, 75, 57
2, 211572, Note_on_c, 1, 77, 40
2, 211595, Note_off_c, 1, 75, 64
2, 211652, Note_off_c, 1, 77, 64
2, 211702, Note_on_c, 1, 74, 48
2, 211930, Note_on_c, 1, 72, 42
2, 211945, Note_off_c, 1, 74, 64
2, 211977, Note_off_c, 1, 72, 64
2, 212160, Note_on_c, 1, 72, 46
2, 212200, Note_off_c, 1, 72, 64
2, 212640, Note_on_c, 1, 72, 53
2, 212690, Note_off_c, 1, 72, 64
2, 213120, Note_on_c, 1, 70, 46
2, 213280, Note_off_c, 1, 70, 64
2, 214080, Note_on_c, 1, 74, 94
2, 214440, Note_on_c, 1, 75, 84
2, 214458, Note_off_c, 1, 74, 64
2, 214555, Note_off_c, 1, 75, 64
2, 214580, Note_on_c, 1, 77, 102
2, 214820, Note_on_c, 1, 79, 68
2, 214852, Note_off_c, 1, 77, 64
2, 215040, Note_on_c, 1, 75, 92
2, 215062, Note_off_c, 1, 79, 64
2, 215295, Note_on_c, 1, 72, 64
2, 215355, Note_off_c, 1, 75, 64
2, 215535, Note_on_c, 1, 74, 86
2, 215565, Note_off_c, 1, 72, 64
2, 215780, Note_on_c, 1, 75, 86
2, 215812, Note_off_c, 1, 74, 64
2, 216022, Note_on_c, 1, 77, 97
2, 216052, Note_off_c, 1, 75, 64
2, 216260, Note_on_c, 1, 79, 86
2, 216292, Note_off_c, 1, 77, 64
2, 216497, Note_on_c, 1, 75, 102
2, 216525, Note_off_c, 1, 79, 64
2, 216732, Note_on_c, 1, 72, 69
2, 216777, Note_off_c, 1, 75, 64
2, 216957, Note_on_c, 1, 74, 88
2, 216985, Note_off_c, 1, 72, 64
2, 217200, Note_on_c, 1, 75, 82
2, 217232, Note_off_c, 1, 74, 64
2, 217440, Note_on_c, 1, 77, 62
2, 217475, Note_off_c, 1, 75, 64
2, 217507, Note_off_c, 1, 77, 64
2, 217690, Note_on_c, 1, 82, 37
2, 217925, Note_on_c, 1, 81, 47
2, 218005, Note_off_c, 1, 82, 64
2, 218160, Note_on_c, 1, 79, 40
2, 218175, Note_off_c, 1, 81, 64
2, 218397, Note_off_c, 1, 79, 64
2, 218397, Note_on_c, 1, 77, 37
2, 218630, Note_on_c, 1, 76, 46
2, 218655, Note_off_c, 1, 77, 64
2, 218880, Note_off_c, 1, 76, 64
2, 218880, Note_on_c, 1, 74, 40
2, 219115, Note_on_c, 1, 72, 36
2, 219122, Note_off_c, 1, 74, 64
2, 219360, Note_on_c, 1, 71, 40
2, 219437, Note_off_c, 1, 72, 64
2, 219615, Note_on_c, 1, 70, 40
2, 219622, Note_off_c, 1, 71, 64
2, 219865, Note_on_c, 1, 69, 45
2, 219902, Note_off_c, 1, 70, 64
2, 220102, Note_on_c, 1, 67, 31
2, 220115, Note_off_c, 1, 69, 64
2, 220215, Note_off_c, 1, 67, 64
2, 220355, Note_on_c, 1, 72, 90
2, 220715, Note_on_c, 1, 74, 77
2, 220765, Note_off_c, 1, 72, 64
2, 220835, Note_off_c, 1, 74, 64
2, 220835, Note_on_c, 1, 60, 70
2, 220835, Note_on_c, 1, 65, 102
2, 220932, Note_off_c, 1, 65, 64
2, 220932, Note_off_c, 1, 60, 64
2, 221280, Note_on_c, 1, 64, 103
2, 221280, Note_on_c, 1, 58, 79
2, 221348, Note_off_c, 1, 58, 64
2, 221348, Note_off_c, 1, 64, 64
2, 221760, Note_on_c, 1, 57, 88
2, 221760, Note_on_c, 1, 65, 108
2, 222210, Note_off_c, 1, 65, 64
2, 222210, Note_off_c, 1, 57, 64
2, 222685, Note_on_c, 1, 74, 55
2, 222694, Note_on_c, 1, 70, 46
2, 223037, Note_on_c, 1, 69, 44
2, 223037, Note_on_c, 1, 72, 49
2, 223060, Note_off_c, 1, 74, 64
2, 223087, Note_off_c, 1, 69, 64
2, 223090, Note_off_c, 1, 72, 64
2, 223092, Note_off_c, 1, 70, 64
2, 223189, Note_on_c, 1, 69, 49
2, 223189, Note_on_c, 1, 72, 53
2, 223480, Note_off_c, 1, 72, 64
2, 223480, Note_off_c, 1, 69, 64
2, 224177, Note_on_c, 1, 76, 64
2, 224177, Note_on_c, 1, 70, 52
2, 224540, Note_on_c, 1, 69, 46
2, 224540, Note_on_c, 1, 77, 58
2, 224570, Note_off_c, 1, 70, 64
2, 224570, Note_off_c, 1, 76, 64
2, 224590, Note_off_c, 1, 69, 64
2, 224590, Note_off_c, 1, 77, 64
2, 224661, Note_on_c, 1, 77, 58
2, 224661, Note_on_c, 1, 69, 46
2, 225141, Note_off_c, 1, 69, 64
2, 225141, Note_off_c, 1, 77, 64
2, 225450, Note_on_c, 1, 71, 81
2, 225525, Note_on_c, 1, 74, 83
2, 225600, Note_on_c, 1, 80, 114
2, 225660, Note_off_c, 1, 80, 64
2, 225672, Note_off_c, 1, 71, 64
2, 225677, Note_off_c, 1, 74, 64
2, 225930, Note_on_c, 1, 72, 92
2, 226005, Note_on_c, 1, 76, 100
2, 226080, Note_on_c, 1, 79, 118
2, 226150, Note_off_c, 1, 79, 64
2, 226155, Note_off_c, 1, 76, 64
2, 226155, Note_off_c, 1, 72, 64
2, 226410, Note_on_c, 1, 69, 93
2, 226485, Note_on_c, 1, 72, 106
2, 226560, Note_on_c, 1, 78, 121
2, 226620, Note_off_c, 1, 78, 64
2, 226631, Note_off_c, 1, 72, 64
2, 226631, Note_off_c, 1, 69, 64
2, 226890, Note_on_c, 1, 70, 101
2, 226965, Note_on_c, 1, 74, 105
2, 227040, Note_on_c, 1, 77, 121
2, 227100, Note_off_c, 1, 77, 64
2, 227109, Note_off_c, 1, 70, 64
2, 227110, Note_off_c, 1, 74, 64
2, 227370, Note_on_c, 1, 67, 112
2, 227445, Note_on_c, 1, 70, 111
2, 227520, Note_on_c, 1, 76, 125
2, 227587, Note_off_c, 1, 70, 64
2, 227587, Note_off_c, 1, 67, 64
2, 227588, Note_off_c, 1, 76, 64
2, 227850, Note_on_c, 1, 66, 110
2, 227925, Note_on_c, 1, 72, 115
2, 228000, Note_on_c, 1, 75, 127
2, 228067, Note_off_c, 1, 75, 64
2, 228067, Note_off_c, 1, 66, 64
2, 228070, Note_off_c, 1, 72, 64
2, 228330, Note_on_c, 1, 65, 121
2, 228405, Note_on_c, 1, 70, 114
2, 228480, Note_on_c, 1, 74, 127
2, 228542, Note_off_c, 1, 74, 64
2, 228550, Note_off_c, 1, 70, 64
2, 228554, Note_off_c, 1, 65, 64
2, 229425, Note_on_c, 1, 72, 48
2, 229905, Note_on_c, 1, 73, 66
2, 229940, Note_off_c, 1, 72, 64
2, 230375, Note_on_c, 1, 70, 60
2, 230412, Note_off_c, 1, 73, 64
2, 230620, Note_on_c, 1, 69, 53
2, 230650, Note_off_c, 1, 70, 64
2, 230867, Note_on_c, 1, 67, 60
2, 230885, Note_off_c, 1, 69, 64
2, 231115, Note_on_c, 1, 65, 39
2, 231130, Note_off_c, 1, 67, 64
2, 231370, Note_on_c, 1, 70, 62
2, 231380, Note_off_c, 1, 65, 64
2, 231537, Note_off_c, 1, 70, 64
2, 231835, Note_on_c, 1, 75, 97
2, 231835, Note_on_c, 1, 72, 72
2, 232230, Note_off_c, 1, 72, 64
2, 232230, Note_off_c, 1, 75, 64
2, 232315, Note_on_c, 1, 74, 91
2, 232315, Note_on_c, 1, 70, 91
2, 232690, Note_on_c, 1, 72, 73
2, 232700, Note_on_c, 1, 69, 60
2, 232702, Note_off_c, 1, 70, 64
2, 232715, Note_off_c, 1, 74, 64
2, 232815, Note_off_c, 1, 72, 64
2, 232815, Note_on_c, 1, 74, 77
2, 232815, Note_on_c, 1, 70, 97
2, 232832, Note_off_c, 1, 69, 64
2, 233180, Note_off_c, 1, 74, 64
2, 233180, Note_off_c, 1, 70, 64
2, 233182, Note_on_c, 1, 75, 102
2, 233182, Note_on_c, 1, 72, 94
2, 233252, Note_off_c, 1, 72, 64
2, 233295, Note_off_c, 1, 75, 64
2, 233295, Note_on_c, 1, 74, 78
2, 233295, Note_on_c, 1, 70, 108
2, 233760, Note_on_c, 1, 69, 63
2, 233760, Note_on_c, 1, 72, 66
2, 233790, Note_off_c, 1, 74, 64
2, 233797, Note_off_c, 1, 70, 64
2, 234275, Note_off_c, 1, 72, 64
2, 234290, Note_off_c, 1, 69, 64
2, 235200, Note_on_c, 1, 77, 53
2, 235200, Note_on_c, 1, 74, 53
2, 235265, Note_off_c, 1, 74, 64
2, 235265, Note_off_c, 1, 77, 64
2, 235680, Note_on_c, 1, 74, 53
2, 235680, Note_on_c, 1, 77, 61
2, 235744, Note_off_c, 1, 77, 64
2, 235744, Note_off_c, 1, 74, 64
2, 236160, Note_on_c, 1, 75, 40
2, 236160, Note_on_c, 1, 77, 40
2, 236296, Note_off_c, 1, 77, 64
2, 236296, Note_off_c, 1, 75, 64
2, 238080, Note_on_c, 1, 87, 64
2, 238080, Note_on_c, 1, 81, 44
2, 238144, Note_off_c, 1, 81, 64
2, 238144, Note_off_c, 1, 87, 64
2, 238560, Note_on_c, 1, 81, 44
2, 238560, Note_on_c, 1, 87, 63
2, 238620, Note_off_c, 1, 87, 64
2, 238620, Note_off_c, 1, 81, 64
2, 239040, Note_on_c, 1, 82, 29
2, 239040, Note_on_c, 1, 86, 53
2, 239180, Note_off_c, 1, 86, 64
2, 239180, Note_off_c, 1, 82, 64
2, 240000, Note_on_c, 1, 74, 97
2, 240350, Note_on_c, 1, 75, 92
2, 240373, Note_off_c, 1, 74, 64
2, 240480, Note_on_c, 1, 77, 97
2, 240513, Note_off_c, 1, 75, 64
2, 240730, Note_on_c, 1, 79, 94
2, 240742, Note_off_c, 1, 77, 64
2, 240960, Note_on_c, 1, 75, 99
2, 240990, Note_off_c, 1, 79, 64
2, 241210, Note_on_c, 1, 72, 77
2, 241235, Note_off_c, 1, 75, 64
2, 241440, Note_on_c, 1, 74, 81
2, 241483, Note_off_c, 1, 72, 64
2, 241690, Note_off_c, 1, 74, 64
2, 241690, Note_on_c, 1, 75, 97
2, 241920, Note_on_c, 1, 77, 94
2, 241963, Note_off_c, 1, 75, 64
2, 242170, Note_on_c, 1, 79, 88
2, 242197, Note_off_c, 1, 77, 64
2, 242400, Note_on_c, 1, 75, 102
2, 242435, Note_off_c, 1, 79, 64
2, 242650, Note_on_c, 1, 72, 73
2, 242665, Note_off_c, 1, 75, 64
2, 242880, Note_on_c, 1, 74, 51
2, 242930, Note_off_c, 1, 72, 64
2, 243130, Note_on_c, 1, 75, 64
2, 243152, Note_off_c, 1, 74, 64
2, 243360, Note_on_c, 1, 77, 36
2, 243380, Note_off_c, 1, 75, 64
2, 243417, Note_off_c, 1, 77, 64
2, 243610, Note_on_c, 1, 87, 42
2, 243840, Note_on_c, 1, 86, 55
2, 243875, Note_off_c, 1, 87, 64
2, 244077, Note_off_c, 1, 86, 64
2, 244090, Note_on_c, 1, 84, 46
2, 244320, Note_on_c, 1, 82, 37
2, 244330, Note_off_c, 1, 84, 64
2, 244570, Note_on_c, 1, 81, 30
2, 244595, Note_off_c, 1, 82, 64
2, 244800, Note_on_c, 1, 79, 28
2, 244827, Note_off_c, 1, 81, 64
2, 245037, Note_off_c, 1, 79, 64
2, 245050, Note_on_c, 1, 77, 35
2, 245280, Note_on_c, 1, 76, 42
2, 245293, Note_off_c, 1, 77, 64
2, 245530, Note_on_c, 1, 75, 59
2, 245560, Note_off_c, 1, 76, 64
2, 245760, Note_on_c, 1, 74, 71
2, 245798, Note_off_c, 1, 75, 64
2, 246010, Note_on_c, 1, 72, 86
2, 246023, Note_off_c, 1, 74, 64
2, 246185, Note_off_c, 1, 72, 64
2, 246240, Note_on_c, 1, 77, 102
2, 246620, Note_on_c, 1, 79, 67
2, 246638, Note_off_c, 1, 77, 64
2, 246690, Note_off_c, 1, 79, 64
2, 246720, Note_on_c, 1, 65, 91
2, 246720, Note_on_c, 1, 70, 106
2, 246931, Note_off_c, 1, 70, 64
2, 246931, Note_off_c, 1, 65, 64
2, 247200, Note_on_c, 1, 63, 67
2, 247200, Note_on_c, 1, 69, 117
2, 247396, Note_off_c, 1, 69, 64
2, 247396, Note_off_c, 1, 63, 64
2, 247680, Note_on_c, 1, 62, 81
2, 247680, Note_on_c, 1, 70, 120
2, 248084, Note_off_c, 1, 70, 64
2, 248084, Note_off_c, 1, 62, 64
2, 248640, Note_on_c, 1, 79, 49
2, 248640, Note_on_c, 1, 75, 43
2, 248990, Note_off_c, 1, 75, 64
2, 248990, Note_off_c, 1, 79, 64
2, 249005, Note_on_c, 1, 74, 36
2, 249005, Note_on_c, 1, 77, 49
2, 249060, Note_off_c, 1, 77, 64
2, 249060, Note_off_c, 1, 74, 64
2, 249120, Note_on_c, 1, 77, 60
2, 249120, Note_on_c, 1, 74, 54
2, 249475, Note_off_c, 1, 74, 64
2, 249475, Note_off_c, 1, 77, 64
2, 250050, Note_on_c, 1, 81, 61
2, 250050, Note_on_c, 1, 75, 43
2, 250430, Note_off_c, 1, 81, 64
2, 250430, Note_on_c, 1, 82, 53
2, 250430, Note_on_c, 1, 74, 38
2, 250435, Note_off_c, 1, 75, 64
2, 250478, Note_off_c, 1, 82, 64
2, 250478, Note_off_c, 1, 74, 64
2, 250560, Note_on_c, 1, 74, 38
2, 250560, Note_on_c, 1, 82, 50
2, 250860, Note_off_c, 1, 82, 64
2, 250860, Note_off_c, 1, 74, 64
2, 251520, Note_on_c, 1, 74, 93
2, 251880, Note_off_c, 1, 74, 64
2, 251885, Note_on_c, 1, 70, 93
2, 252000, Note_on_c, 1, 75, 122
2, 252000, Note_on_c, 1, 67, 100
2, 252015, Note_off_c, 1, 70, 64
2, 252630, Note_off_c, 1, 75, 64
2, 252657, Note_off_c, 1, 67, 64
2, 252960, Note_on_c, 1, 72, 116
2, 252960, Note_on_c, 1, 63, 95
2, 253322, Note_on_c, 1, 69, 86
2, 253352, Note_off_c, 1, 72, 64
2, 253360, Note_off_c, 1, 63, 64
2, 253440, Note_on_c, 1, 70, 97
2, 253440, Note_on_c, 1, 62, 60
2, 253465, Note_off_c, 1, 69, 64
2, 253765, Note_off_c, 1, 70, 64
2, 253772, Note_off_c, 1, 62, 64
2, 253772, End_track
3, 0, Start_track
3, 0, Title_t, "new"
3, 0, MIDI_port, 0
3, 0, Channel_prefix, 2
3, 0, Control_c, 2, 7, 109
3, 0, Control_c, 2, 10, 64
3, 0, Program_c, 2, 0
3, 1920, Note_on_c, 2, 65, 51
3, 1920, Note_on_c, 2, 62, 51
3, 1945, Note_off_c, 2, 62, 64
3, 1945, Note_off_c, 2, 65, 64
3, 2410, Note_on_c, 2, 65, 51
3, 2410, Note_on_c, 2, 62, 51
3, 2435, Note_off_c, 2, 62, 64
3, 2435, Note_off_c, 2, 65, 64
3, 2897, Note_on_c, 2, 65, 57
3, 2897, Note_on_c, 2, 63, 57
3, 2983, Note_off_c, 2, 63, 64
3, 2983, Note_off_c, 2, 65, 64
3, 4800, Note_on_c, 2, 65, 31
3, 4800, Note_on_c, 2, 63, 31
3, 4840, Note_off_c, 2, 63, 64
3, 4840, Note_off_c, 2, 65, 64
3, 5280, Note_on_c, 2, 63, 26
3, 5280, Note_on_c, 2, 65, 26
3, 5330, Note_off_c, 2, 65, 64
3, 5330, Note_off_c, 2, 63, 64
3, 5760, Note_on_c, 2, 65, 30
3, 5760, Note_on_c, 2, 62, 30
3, 5920, Note_off_c, 2, 62, 64
3, 5920, Note_off_c, 2, 65, 64
3, 6720, Note_on_c, 2, 58, 84
3, 7065, Note_on_c, 2, 60, 62
3, 7070, Note_off_c, 2, 58, 64
3, 7205, Note_on_c, 2, 53, 78
3, 7207, Note_on_c, 2, 62, 86
3, 7225, Note_off_c, 2, 60, 64
3, 7450, Note_on_c, 2, 63, 44
3, 7487, Note_off_c, 2, 62, 64
3, 7690, Note_on_c, 2, 60, 47
3, 7722, Note_off_c, 2, 63, 64
3, 7910, Note_on_c, 2, 57, 50
3, 7935, Note_off_c, 2, 60, 64
3, 8160, Note_on_c, 2, 58, 52
3, 8197, Note_off_c, 2, 57, 64
3, 8400, Note_on_c, 2, 60, 49
3, 8417, Note_off_c, 2, 58, 64
3, 8665, Note_on_c, 2, 62, 64
3, 8692, Note_off_c, 2, 60, 64
3, 8892, Note_on_c, 2, 63, 49
3, 8940, Note_off_c, 2, 62, 64
3, 9147, Note_on_c, 2, 60, 40
3, 9165, Note_off_c, 2, 63, 64
3, 9375, Note_on_c, 2, 57, 57
3, 9397, Note_off_c, 2, 60, 64
3, 9612, Note_on_c, 2, 58, 48
3, 9650, Note_off_c, 2, 57, 64
3, 9840, Note_on_c, 2, 60, 42
3, 9850, Note_off_c, 2, 58, 64
3, 10077, Note_on_c, 2, 62, 35
3, 10087, Note_off_c, 2, 60, 64
3, 10320, Note_off_c, 2, 62, 64
3, 10360, Note_off_c, 2, 53, 64
3, 13475, Note_on_c, 2, 57, 59
3, 13475, Note_on_c, 2, 48, 59
3, 13572, Note_off_c, 2, 48, 64
3, 13572, Note_off_c, 2, 57, 64
3, 13927, Note_on_c, 2, 48, 62
3, 13927, Note_on_c, 2, 55, 62
3, 13995, Note_off_c, 2, 55, 64
3, 13995, Note_off_c, 2, 48, 64
3, 14400, Note_on_c, 2, 53, 53
3, 14578, Note_off_c, 2, 53, 64
3, 14880, Note_on_c, 2, 41, 68
3, 15025, Note_off_c, 2, 41, 64
3, 16310, Note_on_c, 2, 65, 40
3, 16410, Note_off_c, 2, 65, 64
3, 17785, Note_on_c, 2, 53, 51
3, 17889, Note_off_c, 2, 53, 64
3, 19200, Note_on_c, 2, 65, 59
3, 19200, Note_on_c, 2, 62, 59
3, 19225, Note_off_c, 2, 62, 64
3, 19225, Note_off_c, 2, 65, 64
3, 19690, Note_on_c, 2, 65, 59
3, 19690, Note_on_c, 2, 62, 59
3, 19715, Note_off_c, 2, 62, 64
3, 19715, Note_off_c, 2, 65, 64
3, 20177, Note_on_c, 2, 63, 57
3, 20177, Note_on_c, 2, 65, 57
3, 20263, Note_off_c, 2, 65, 64
3, 20263, Note_off_c, 2, 63, 64
3, 22080, Note_on_c, 2, 65, 31
3, 22080, Note_on_c, 2, 63, 31
3, 22120, Note_off_c, 2, 63, 64
3, 22120, Note_off_c, 2, 65, 64
3, 22560, Note_on_c, 2, 63, 26
3, 22560, Note_on_c, 2, 65, 26
3, 22610, Note_off_c, 2, 65, 64
3, 22610, Note_off_c, 2, 63, 64
3, 23040, Note_on_c, 2, 65, 22
3, 23040, Note_on_c, 2, 62, 22
3, 23200, Note_off_c, 2, 62, 64
3, 23200, Note_off_c, 2, 65, 64
3, 24000, Note_on_c, 2, 58, 84
3, 24345, Note_on_c, 2, 60, 62
3, 24350, Note_off_c, 2, 58, 64
3, 24485, Note_on_c, 2, 53, 78
3, 24487, Note_on_c, 2, 62, 86
3, 24505, Note_off_c, 2, 60, 64
3, 24730, Note_on_c, 2, 63, 44
3, 24767, Note_off_c, 2, 62, 64
3, 24970, Note_on_c, 2, 60, 47
3, 25002, Note_off_c, 2, 63, 64
3, 25190, Note_on_c, 2, 57, 50
3, 25215, Note_off_c, 2, 60, 64
3, 25440, Note_on_c, 2, 58, 52
3, 25477, Note_off_c, 2, 57, 64
3, 25680, Note_on_c, 2, 60, 49
3, 25697, Note_off_c, 2, 58, 64
3, 25945, Note_on_c, 2, 62, 64
3, 25972, Note_off_c, 2, 60, 64
3, 26172, Note_on_c, 2, 63, 49
3, 26220, Note_off_c, 2, 62, 64
3, 26427, Note_on_c, 2, 60, 40
3, 26445, Note_off_c, 2, 63, 64
3, 26655, Note_on_c, 2, 57, 57
3, 26677, Note_off_c, 2, 60, 64
3, 26892, Note_on_c, 2, 58, 48
3, 26930, Note_off_c, 2, 57, 64
3, 27120, Note_on_c, 2, 60, 42
3, 27130, Note_off_c, 2, 58, 64
3, 27357, Note_on_c, 2, 62, 35
3, 27367, Note_off_c, 2, 60, 64
3, 27600, Note_off_c, 2, 62, 64
3, 27640, Note_off_c, 2, 53, 64
3, 30755, Note_on_c, 2, 48, 84
3, 30755, Note_on_c, 2, 57, 84
3, 30852, Note_off_c, 2, 57, 64
3, 30852, Note_off_c, 2, 48, 64
3, 31207, Note_on_c, 2, 55, 64
3, 31207, Note_on_c, 2, 48, 64
3, 31275, Note_off_c, 2, 48, 64
3, 31275, Note_off_c, 2, 55, 64
3, 31680, Note_on_c, 2, 53, 66
3, 31858, Note_off_c, 2, 53, 64
3, 32160, Note_on_c, 2, 41, 62
3, 32305, Note_off_c, 2, 41, 64
3, 33590, Note_on_c, 2, 65, 40
3, 33690, Note_off_c, 2, 65, 64
3, 35040, Note_on_c, 2, 53, 57
3, 35235, Note_off_c, 2, 53, 64
3, 35520, Note_on_c, 2, 65, 98
3, 35520, Note_on_c, 2, 53, 98
3, 35680, Note_off_c, 2, 65, 64
3, 35700, Note_off_c, 2, 53, 64
3, 36000, Note_on_c, 2, 52, 79
3, 36000, Note_on_c, 2, 64, 79
3, 36165, Note_off_c, 2, 52, 64
3, 36182, Note_off_c, 2, 64, 64
3, 36480, Note_on_c, 2, 63, 100
3, 36480, Note_on_c, 2, 51, 100
3, 36645, Note_off_c, 2, 51, 64
3, 36652, Note_off_c, 2, 63, 64
3, 36960, Note_on_c, 2, 50, 48
3, 36960, Note_on_c, 2, 62, 48
3, 36960, Note_on_c, 2, 62, 60
3, 36960, Note_on_c, 2, 50, 60
3, 37140, Note_off_c, 2, 62, 64
3, 37140, Note_off_c, 2, 62, 64
3, 37143, Note_off_c, 2, 50, 64
3, 37143, Note_off_c, 2, 50, 64
3, 37440, Note_on_c, 2, 43, 73
3, 37440, Note_on_c, 2, 55, 73
3, 37440, Note_on_c, 2, 55, 88
3, 37440, Note_on_c, 2, 43, 88
3, 37627, Note_off_c, 2, 43, 64
3, 37627, Note_off_c, 2, 43, 64
3, 37632, Note_off_c, 2, 55, 64
3, 37632, Note_off_c, 2, 55, 64
3, 37920, Note_on_c, 2, 45, 71
3, 37920, Note_on_c, 2, 57, 71
3, 38080, Note_off_c, 2, 45, 64
3, 38107, Note_off_c, 2, 57, 64
3, 38400, Note_on_c, 2, 58, 98
3, 38640, Note_off_c, 2, 58, 64
3, 38880, Note_on_c, 2, 51, 31
3, 39810, Note_on_c, 2, 52, 39
3, 39867, Note_off_c, 2, 51, 64
3, 40318, Note_off_c, 2, 52, 64
3, 40320, Note_on_c, 2, 53, 48
3, 40800, Note_on_c, 2, 51, 40
3, 40800, Note_on_c, 2, 51, 40
3, 40842, Note_off_c, 2, 53, 64
3, 41280, Note_on_c, 2, 50, 33
3, 41310, Note_off_c, 2, 51, 64
3, 41310, Note_off_c, 2, 51, 64
3, 41633, Note_off_c, 2, 50, 64
3, 41760, Note_on_c, 2, 57, 77
3, 42240, Note_on_c, 2, 58, 64
3, 42290, Note_off_c, 2, 57, 64
3, 42720, Note_on_c, 2, 52, 49
3, 42767, Note_off_c, 2, 58, 64
3, 43200, Note_on_c, 2, 53, 62
3, 43260, Note_off_c, 2, 52, 64
3, 43753, Note_off_c, 2, 53, 64
3, 44135, Note_on_c, 2, 62, 65
3, 44490, Note_on_c, 2, 63, 66
3, 44520, Note_off_c, 2, 62, 64
3, 44560, Note_off_c, 2, 63, 64
3, 44615, Note_on_c, 2, 60, 69
3, 44857, Note_off_c, 2, 60, 64
3, 44857, Note_on_c, 2, 58, 59
3, 44923, Note_off_c, 2, 58, 64
3, 45120, Note_on_c, 2, 58, 71
3, 45194, Note_off_c, 2, 58, 64
3, 45600, Note_on_c, 2, 58, 71
3, 45674, Note_off_c, 2, 58, 64
3, 46080, Note_on_c, 2, 57, 62
3, 46210, Note_off_c, 2, 57, 64
3, 47040, Note_on_c, 2, 63, 57
3, 47390, Note_on_c, 2, 65, 46
3, 47420, Note_off_c, 2, 63, 64
3, 47437, Note_off_c, 2, 65, 64
3, 47510, Note_on_c, 2, 62, 57
3, 47750, Note_off_c, 2, 62, 64
3, 47757, Note_on_c, 2, 60, 53
3, 47823, Note_off_c, 2, 60, 64
3, 48000, Note_on_c, 2, 60, 75
3, 48074, Note_off_c, 2, 60, 64
3, 48480, Note_on_c, 2, 60, 75
3, 48554, Note_off_c, 2, 60, 64
3, 48960, Note_on_c, 2, 58, 66
3, 49100, Note_off_c, 2, 58, 64
3, 49920, Note_on_c, 2, 58, 83
3, 50270, Note_on_c, 2, 60, 67
3, 50275, Control_c, 2, 64, 127
3, 50280, Control_c, 2, 64, 127
3, 50280, Control_c, 2, 64, 127
3, 50295, Note_off_c, 2, 58, 64
3, 50337, Control_c, 2, 64, 0
3, 50337, Control_c, 2, 64, 0
3, 50337, Control_c, 2, 64, 0
3, 50400, Note_on_c, 2, 62, 92
3, 50400, Note_on_c, 2, 53, 70
3, 50420, Note_off_c, 2, 60, 64
3, 50650, Note_on_c, 2, 63, 70
3, 50687, Note_off_c, 2, 62, 64
3, 50880, Note_on_c, 2, 60, 53
3, 50922, Note_off_c, 2, 63, 64
3, 51120, Note_off_c, 2, 60, 64
3, 51130, Note_on_c, 2, 57, 55
3, 51360, Note_on_c, 2, 58, 40
3, 51417, Note_off_c, 2, 57, 64
3, 51610, Note_on_c, 2, 60, 49
3, 51623, Note_off_c, 2, 58, 64
3, 51840, Note_on_c, 2, 62, 70
3, 51883, Note_off_c, 2, 60, 64
3, 52090, Note_on_c, 2, 63, 51
3, 52115, Note_off_c, 2, 62, 64
3, 52320, Note_on_c, 2, 60, 43
3, 52345, Note_off_c, 2, 63, 64
3, 52570, Note_on_c, 2, 57, 42
3, 52585, Note_off_c, 2, 60, 64
3, 52800, Note_on_c, 2, 58, 37
3, 52852, Note_off_c, 2, 57, 64
3, 53050, Note_on_c, 2, 60, 31
3, 53072, Note_off_c, 2, 58, 64
3, 53280, Note_on_c, 2, 62, 33
3, 53367, Note_off_c, 2, 60, 64
3, 53497, Note_off_c, 2, 62, 64
3, 53508, Note_off_c, 2, 53, 64
3, 56640, Note_on_c, 2, 62, 77
3, 56640, Note_on_c, 2, 53, 77
3, 56851, Note_off_c, 2, 53, 64
3, 56851, Note_off_c, 2, 62, 64
3, 57120, Note_on_c, 2, 60, 84
3, 57120, Note_on_c, 2, 53, 72
3, 57316, Note_off_c, 2, 53, 64
3, 57316, Note_off_c, 2, 60, 64
3, 57600, Note_on_c, 2, 58, 48
3, 58010, Note_off_c, 2, 58, 64
3, 58080, Note_on_c, 2, 46, 57
3, 58230, Note_off_c, 2, 46, 64
3, 59520, Note_on_c, 2, 70, 31
3, 59720, Note_off_c, 2, 70, 64
3, 60960, Note_on_c, 2, 58, 39
3, 61150, Note_off_c, 2, 58, 64
3, 61440, Note_on_c, 2, 55, 55
3, 61920, Note_on_c, 2, 51, 63
3, 61950, Note_off_c, 2, 55, 64
3, 62345, Note_off_c, 2, 51, 64
3, 62400, Note_on_c, 2, 48, 46
3, 62810, Note_off_c, 2, 48, 64
3, 62880, Note_on_c, 2, 53, 62
3, 63215, Note_off_c, 2, 53, 64
3, 63360, Note_on_c, 2, 58, 85
3, 63565, Note_off_c, 2, 58, 64
3, 63840, Note_on_c, 2, 46, 69
3, 64000, Note_off_c, 2, 46, 64
3, 64320, Note_on_c, 2, 65, 98
3, 64320, Note_on_c, 2, 53, 98
3, 64480, Note_off_c, 2, 65, 64
3, 64500, Note_off_c, 2, 53, 64
3, 64800, Note_on_c, 2, 52, 79
3, 64800, Note_on_c, 2, 64, 79
3, 64965, Note_off_c, 2, 52, 64
3, 64982, Note_off_c, 2, 64, 64
3, 65280, Note_on_c, 2, 63, 100
3, 65280, Note_on_c, 2, 51, 100
3, 65445, Note_off_c, 2, 51, 64
3, 65452, Note_off_c, 2, 63, 64
3, 65760, Note_on_c, 2, 50, 48
3, 65760, Note_on_c, 2, 62, 48
3, 65760, Note_on_c, 2, 62, 60
3, 65760, Note_on_c, 2, 50, 60
3, 65940, Note_off_c, 2, 62, 64
3, 65940, Note_off_c, 2, 62, 64
3, 65943, Note_off_c, 2, 50, 64
3, 65943, Note_off_c, 2, 50, 64
3, 66240, Note_on_c, 2, 43, 73
3, 66240, Note_on_c, 2, 55, 73
3, 66240, Note_on_c, 2, 55, 88
3, 66240, Note_on_c, 2, 43, 88
3, 66427, Note_off_c, 2, 43, 64
3, 66427, Note_off_c, 2, 43, 64
3, 66432, Note_off_c, 2, 55, 64
3, 66432, Note_off_c, 2, 55, 64
3, 66720, Note_on_c, 2, 45, 71
3, 66720, Note_on_c, 2, 57, 71
3, 66880, Note_off_c, 2, 45, 64
3, 66907, Note_off_c, 2, 57, 64
3, 67200, Note_on_c, 2, 58, 98
3, 67440, Note_off_c, 2, 58, 64
3, 67680, Note_on_c, 2, 51, 33
3, 68610, Note_on_c, 2, 52, 42
3, 68667, Note_off_c, 2, 51, 64
3, 69118, Note_off_c, 2, 52, 64
3, 69120, Note_on_c, 2, 53, 44
3, 69600, Note_on_c, 2, 51, 47
3, 69642, Note_off_c, 2, 53, 64
3, 70080, Note_on_c, 2, 50, 43
3, 70110, Note_off_c, 2, 51, 64
3, 70433, Note_off_c, 2, 50, 64
3, 70560, Note_on_c, 2, 57, 77
3, 71040, Note_on_c, 2, 58, 64
3, 71090, Note_off_c, 2, 57, 64
3, 71520, Note_on_c, 2, 52, 49
3, 71567, Note_off_c, 2, 58, 64
3, 72000, Note_on_c, 2, 53, 37
3, 72060, Note_off_c, 2, 52, 64
3, 72553, Note_off_c, 2, 53, 64
3, 72935, Note_on_c, 2, 62, 65
3, 73290, Note_on_c, 2, 63, 66
3, 73320, Note_off_c, 2, 62, 64
3, 73360, Note_off_c, 2, 63, 64
3, 73415, Note_on_c, 2, 60, 69
3, 73657, Note_off_c, 2, 60, 64
3, 73657, Note_on_c, 2, 58, 59
3, 73723, Note_off_c, 2, 58, 64
3, 73920, Note_on_c, 2, 58, 71
3, 73994, Note_off_c, 2, 58, 64
3, 74400, Note_on_c, 2, 58, 71
3, 74474, Note_off_c, 2, 58, 64
3, 74880, Note_on_c, 2, 57, 55
3, 75010, Note_off_c, 2, 57, 64
3, 75840, Note_on_c, 2, 63, 57
3, 76190, Note_on_c, 2, 65, 46
3, 76220, Note_off_c, 2, 63, 64
3, 76237, Note_off_c, 2, 65, 64
3, 76310, Note_on_c, 2, 62, 57
3, 76550, Note_off_c, 2, 62, 64
3, 76557, Note_on_c, 2, 60, 53
3, 76623, Note_off_c, 2, 60, 64
3, 76800, Note_on_c, 2, 60, 71
3, 76874, Note_off_c, 2, 60, 64
3, 77280, Note_on_c, 2, 60, 71
3, 77354, Note_off_c, 2, 60, 64
3, 77760, Note_on_c, 2, 58, 64
3, 77900, Note_off_c, 2, 58, 64
3, 78720, Note_on_c, 2, 58, 83
3, 79070, Note_on_c, 2, 60, 67
3, 79075, Control_c, 2, 64, 127
3, 79080, Control_c, 2, 64, 127
3, 79080, Control_c, 2, 64, 127
3, 79095, Note_off_c, 2, 58, 64
3, 79137, Control_c, 2, 64, 0
3, 79137, Control_c, 2, 64, 0
3, 79137, Control_c, 2, 64, 0
3, 79200, Note_on_c, 2, 62, 92
3, 79200, Note_on_c, 2, 53, 70
3, 79220, Note_off_c, 2, 60, 64
3, 79450, Note_on_c, 2, 63, 70
3, 79487, Note_off_c, 2, 62, 64
3, 79680, Note_on_c, 2, 60, 53
3, 79722, Note_off_c, 2, 63, 64
3, 79920, Note_off_c, 2, 60, 64
3, 79930, Note_on_c, 2, 57, 55
3, 80160, Note_on_c, 2, 58, 40
3, 80217, Note_off_c, 2, 57, 64
3, 80410, Note_on_c, 2, 60, 49
3, 80423, Note_off_c, 2, 58, 64
3, 80640, Note_on_c, 2, 62, 70
3, 80683, Note_off_c, 2, 60, 64
3, 80890, Note_on_c, 2, 63, 51
3, 80915, Note_off_c, 2, 62, 64
3, 81120, Note_on_c, 2, 60, 43
3, 81145, Note_off_c, 2, 63, 64
3, 81370, Note_on_c, 2, 57, 42
3, 81385, Note_off_c, 2, 60, 64
3, 81600, Note_on_c, 2, 58, 37
3, 81652, Note_off_c, 2, 57, 64
3, 81850, Note_on_c, 2, 60, 33
3, 81872, Note_off_c, 2, 58, 64
3, 82080, Note_on_c, 2, 62, 28
3, 82167, Note_off_c, 2, 60, 64
3, 82297, Note_off_c, 2, 62, 64
3, 82308, Note_off_c, 2, 53, 64
3, 85440, Note_on_c, 2, 53, 75
3, 85440, Note_on_c, 2, 62, 75
3, 85651, Note_off_c, 2, 62, 64
3, 85651, Note_off_c, 2, 53, 64
3, 85920, Note_on_c, 2, 53, 64
3, 85920, Note_on_c, 2, 60, 64
3, 86116, Note_off_c, 2, 60, 64
3, 86116, Note_off_c, 2, 53, 64
3, 86400, Note_on_c, 2, 58, 42
3, 86810, Note_off_c, 2, 58, 64
3, 86880, Note_on_c, 2, 46, 57
3, 87030, Note_off_c, 2, 46, 64
3, 88320, Note_on_c, 2, 70, 35
3, 88520, Note_off_c, 2, 70, 64
3, 89760, Note_on_c, 2, 58, 39
3, 89950, Note_off_c, 2, 58, 64
3, 90240, Note_on_c, 2, 55, 37
3, 90720, Note_on_c, 2, 51, 46
3, 90750, Note_off_c, 2, 55, 64
3, 91145, Note_off_c, 2, 51, 64
3, 91200, Note_on_c, 2, 48, 37
3, 91610, Note_off_c, 2, 48, 64
3, 91680, Note_on_c, 2, 53, 46
3, 92015, Note_off_c, 2, 53, 64
3, 92160, Note_on_c, 2, 58, 31
3, 92365, Note_off_c, 2, 58, 64
3, 92640, Note_on_c, 2, 46, 22
3, 92800, Note_off_c, 2, 46, 64
3, 93562, Control_c, 2, 64, 127
3, 93562, Control_c, 2, 64, 127
3, 93562, Control_c, 2, 64, 127
3, 93600, Note_on_c, 2, 63, 22
3, 93600, Note_on_c, 2, 67, 22
3, 93762, Control_c, 2, 64, 0
3, 93762, Control_c, 2, 64, 0
3, 93762, Control_c, 2, 64, 0
3, 93842, Note_on_c, 2, 58, 22
3, 93872, Note_off_c, 2, 67, 64
3, 93875, Note_off_c, 2, 63, 64
3, 93910, Control_c, 2, 64, 127
3, 93915, Control_c, 2, 64, 127
3, 93915, Control_c, 2, 64, 127
3, 94090, Note_off_c, 2, 58, 64
3, 94090, Control_c, 2, 64, 0
3, 94090, Note_on_c, 2, 63, 22
3, 94090, Note_on_c, 2, 67, 22
3, 94092, Control_c, 2, 64, 0
3, 94092, Control_c, 2, 64, 0
3, 94295, Control_c, 2, 64, 127
3, 94295, Control_c, 2, 64, 127
3, 94295, Control_c, 2, 64, 127
3, 94310, Note_on_c, 2, 58, 22
3, 94347, Note_off_c, 2, 67, 64
3, 94347, Note_off_c, 2, 63, 64
3, 94410, Control_c, 2, 64, 0
3, 94410, Control_c, 2, 64, 0
3, 94410, Control_c, 2, 64, 0
3, 94560, Note_on_c, 2, 63, 37
3, 94565, Note_on_c, 2, 67, 37
3, 94600, Note_off_c, 2, 58, 64
3, 94700, Control_c, 2, 64, 127
3, 94700, Control_c, 2, 64, 127
3, 94700, Control_c, 2, 64, 127
3, 94790, Note_off_c, 2, 63, 64
3, 94800, Note_on_c, 2, 58, 22
3, 94807, Note_off_c, 2, 67, 64
3, 94980, Note_off_c, 2, 58, 64
3, 95040, Note_on_c, 2, 65, 30
3, 95040, Note_on_c, 2, 68, 30
3, 95057, Control_c, 2, 64, 0
3, 95057, Control_c, 2, 64, 0
3, 95057, Control_c, 2, 64, 0
3, 95280, Note_on_c, 2, 58, 24
3, 95287, Control_c, 2, 64, 127
3, 95292, Control_c, 2, 64, 127
3, 95292, Control_c, 2, 64, 127
3, 95420, Note_off_c, 2, 65, 64
3, 95435, Note_off_c, 2, 68, 64
3, 95495, Note_on_c, 2, 65, 26
3, 95495, Note_on_c, 2, 68, 26
3, 95503, Note_off_c, 2, 58, 64
3, 95760, Note_on_c, 2, 58, 28
3, 95835, Note_off_c, 2, 65, 64
3, 95842, Note_off_c, 2, 68, 64
3, 95905, Note_off_c, 2, 58, 64
3, 95965, Control_c, 2, 64, 0
3, 95965, Control_c, 2, 64, 0
3, 95965, Control_c, 2, 64, 0
3, 96000, Note_on_c, 2, 68, 30
3, 96000, Note_on_c, 2, 65, 30
3, 96245, Note_on_c, 2, 58, 22
3, 96257, Control_c, 2, 64, 127
3, 96257, Control_c, 2, 64, 127
3, 96257, Control_c, 2, 64, 127
3, 96295, Note_off_c, 2, 68, 64
3, 96307, Note_off_c, 2, 65, 64
3, 96432, Note_off_c, 2, 58, 64
3, 96480, Note_on_c, 2, 63, 22
3, 96480, Note_on_c, 2, 67, 22
3, 96495, Control_c, 2, 64, 0
3, 96495, Control_c, 2, 64, 0
3, 96495, Control_c, 2, 64, 0
3, 96710, Note_on_c, 2, 58, 31
3, 96782, Note_off_c, 2, 67, 64
3, 96787, Control_c, 2, 64, 127
3, 96787, Control_c, 2, 64, 127
3, 96787, Control_c, 2, 64, 127
3, 96790, Note_off_c, 2, 63, 64
3, 96960, Note_on_c, 2, 63, 22
3, 96960, Note_on_c, 2, 67, 22
3, 96970, Note_off_c, 2, 58, 64
3, 97200, Note_off_c, 2, 63, 64
3, 97200, Note_off_c, 2, 67, 64
3, 97200, Note_on_c, 2, 58, 31
3, 97440, Note_on_c, 2, 63, 34
3, 97440, Note_on_c, 2, 67, 41
3, 97482, Note_off_c, 2, 58, 64
3, 97610, Note_off_c, 2, 63, 64
3, 97622, Note_off_c, 2, 67, 64
3, 97690, Note_on_c, 2, 58, 31
3, 97875, Note_off_c, 2, 58, 64
3, 97920, Note_on_c, 2, 65, 64
3, 97920, Note_on_c, 2, 62, 64
3, 97930, Control_c, 2, 64, 0
3, 97932, Control_c, 2, 64, 0
3, 97932, Control_c, 2, 64, 0
3, 98107, Control_c, 2, 64, 127
3, 98107, Control_c, 2, 64, 127
3, 98107, Control_c, 2, 64, 127
3, 98157, Note_on_c, 2, 58, 33
3, 98240, Note_off_c, 2, 62, 64
3, 98245, Note_off_c, 2, 65, 64
3, 98400, Note_on_c, 2, 62, 39
3, 98400, Note_on_c, 2, 65, 39
3, 98402, Note_off_c, 2, 58, 64
3, 98605, Control_c, 2, 64, 0
3, 98605, Control_c, 2, 64, 0
3, 98605, Control_c, 2, 64, 0
3, 98627, Note_on_c, 2, 58, 33
3, 98750, Note_off_c, 2, 62, 64
3, 98750, Note_off_c, 2, 65, 64
3, 98750, Control_c, 2, 64, 127
3, 98752, Control_c, 2, 64, 127
3, 98752, Control_c, 2, 64, 127
3, 98880, Note_on_c, 2, 65, 46
3, 98880, Note_on_c, 2, 62, 46
3, 98927, Note_off_c, 2, 58, 64
3, 99125, Note_on_c, 2, 58, 59
3, 99157, Note_off_c, 2, 65, 64
3, 99167, Note_off_c, 2, 62, 64
3, 99210, Note_off_c, 2, 58, 64
3, 99360, Note_on_c, 2, 63, 71
3, 99427, Control_c, 2, 64, 0
3, 99427, Control_c, 2, 64, 0
3, 99427, Control_c, 2, 64, 0
3, 99722, Note_off_c, 2, 63, 64
3, 100320, Note_on_c, 2, 43, 89
3, 100320, Note_on_c, 2, 55, 89
3, 100800, Note_on_c, 2, 44, 97
3, 100800, Note_on_c, 2, 56, 97
3, 100833, Note_off_c, 2, 43, 64
3, 100843, Note_off_c, 2, 55, 64
3, 101172, Note_off_c, 2, 44, 64
3, 101182, Note_off_c, 2, 56, 64
3, 101760, Note_on_c, 2, 58, 88
3, 101760, Note_on_c, 2, 61, 88
3, 102240, Note_on_c, 2, 60, 55
3, 102240, Note_on_c, 2, 56, 55
3, 102253, Note_off_c, 2, 58, 64
3, 102265, Note_off_c, 2, 61, 64
3, 102593, Note_off_c, 2, 56, 64
3, 102612, Note_off_c, 2, 60, 64
3, 103200, Note_on_c, 2, 57, 48
3, 103200, Note_on_c, 2, 63, 48
3, 103367, Note_on_c, 2, 65, 51
3, 103387, Control_c, 2, 64, 127
3, 103387, Control_c, 2, 64, 127
3, 103387, Control_c, 2, 64, 127
3, 103405, Note_off_c, 2, 63, 64
3, 103450, Note_off_c, 2, 65, 64
3, 103525, Note_off_c, 2, 57, 64
3, 103525, Note_on_c, 2, 67, 55
3, 103587, Note_off_c, 2, 67, 64
3, 103680, Note_on_c, 2, 58, 59
3, 103700, Note_on_c, 2, 67, 59
3, 103737, Control_c, 2, 64, 0
3, 103737, Control_c, 2, 64, 0
3, 103737, Control_c, 2, 64, 0
3, 103942, Control_c, 2, 64, 127
3, 103942, Control_c, 2, 64, 127
3, 103942, Control_c, 2, 64, 127
3, 104160, Note_on_c, 2, 65, 37
3, 104237, Note_off_c, 2, 67, 64
3, 104257, Note_off_c, 2, 65, 64
3, 104272, Note_off_c, 2, 58, 64
3, 104352, Control_c, 2, 64, 0
3, 104355, Control_c, 2, 64, 0
3, 104355, Control_c, 2, 64, 0
3, 104640, Note_on_c, 2, 58, 24
3, 104880, Control_c, 2, 64, 127
3, 104880, Control_c, 2, 64, 127
3, 104882, Control_c, 2, 64, 127
3, 104890, Note_on_c, 2, 65, 30
3, 104947, Note_off_c, 2, 58, 64
3, 105047, Note_off_c, 2, 65, 64
3, 105120, Note_on_c, 2, 60, 35
3, 105172, Control_c, 2, 64, 0
3, 105177, Control_c, 2, 64, 0
3, 105177, Control_c, 2, 64, 0
3, 105370, Note_on_c, 2, 65, 35
3, 105407, Control_c, 2, 64, 127
3, 105407, Control_c, 2, 64, 127
3, 105407, Control_c, 2, 64, 127
3, 105487, Note_off_c, 2, 60, 64
3, 105602, Note_on_c, 2, 63, 30
3, 105610, Note_off_c, 2, 65, 64
3, 105645, Control_c, 2, 64, 0
3, 105647, Control_c, 2, 64, 0
3, 105647, Control_c, 2, 64, 0
3, 105840, Note_on_c, 2, 65, 37
3, 105872, Note_off_c, 2, 63, 64
3, 105920, Note_off_c, 2, 65, 64
3, 106080, Note_on_c, 2, 63, 35
3, 106320, Note_on_c, 2, 65, 40
3, 106357, Note_off_c, 2, 63, 64
3, 106457, Control_c, 2, 64, 127
3, 106457, Control_c, 2, 64, 127
3, 106457, Control_c, 2, 64, 127
3, 106560, Note_on_c, 2, 62, 46
3, 106563, Note_off_c, 2, 65, 64
3, 106582, Control_c, 2, 64, 0
3, 106582, Control_c, 2, 64, 0
3, 106582, Control_c, 2, 64, 0
3, 106810, Note_on_c, 2, 65, 44
3, 106842, Note_off_c, 2, 62, 64
3, 107040, Note_on_c, 2, 58, 60
3, 107057, Note_off_c, 2, 65, 64
3, 107283, Note_off_c, 2, 58, 64
3, 107290, Note_on_c, 2, 65, 33
3, 107382, Note_off_c, 2, 65, 64
3, 107520, Control_c, 2, 64, 127
3, 107520, Control_c, 2, 64, 127
3, 107520, Control_c, 2, 64, 127
3, 107520, Note_on_c, 2, 58, 22
3, 107767, Note_off_c, 2, 58, 64
3, 107770, Note_on_c, 2, 65, 33
3, 107968, Note_off_c, 2, 65, 64
3, 108000, Note_on_c, 2, 251, 22
3, 108000, Note_on_c, 2, 60, 22
3, 108105, Control_c, 2, 64, 0
3, 108105, Control_c, 2, 64, 0
3, 108105, Control_c, 2, 64, 0
3, 108250, Note_on_c, 2, 65, 39
3, 108480, Note_on_c, 2, 254, 33
3, 108480, Note_on_c, 2, 63, 33
3, 108492, Note_off_c, 2, 60, 64
3, 108492, Note_off_c, 2, 251, 64
3, 108500, Note_off_c, 2, 65, 64
3, 108712, Note_off_c, 2, 254, 64
3, 108712, Note_off_c, 2, 63, 64
3, 108730, Note_on_c, 2, 65, 26
3, 108802, Note_off_c, 2, 65, 64
3, 108960, Note_on_c, 2, 254, 46
3, 108960, Note_on_c, 2, 63, 46
3, 109045, Control_c, 2, 64, 127
3, 109045, Control_c, 2, 64, 127
3, 109045, Control_c, 2, 64, 127
3, 109210, Note_on_c, 2, 65, 57
3, 109252, Note_off_c, 2, 63, 64
3, 109252, Note_off_c, 2, 254, 64
3, 109395, Note_off_c, 2, 65, 64
3, 109432, Note_on_c, 2, 253, 73
3, 109440, Note_on_c, 2, 62, 73
3, 109515, Control_c, 2, 64, 0
3, 109515, Control_c, 2, 64, 0
3, 109515, Control_c, 2, 64, 0
3, 109690, Control_c, 2, 64, 127
3, 109690, Note_on_c, 2, 65, 57
3, 109692, Control_c, 2, 64, 127
3, 109692, Control_c, 2, 64, 127
3, 109705, Note_off_c, 2, 253, 64
3, 109713, Note_off_c, 2, 62, 64
3, 109908, Note_off_c, 2, 65, 64
3, 109920, Note_on_c, 2, 249, 42
3, 109920, Note_on_c, 2, 58, 42
3, 110007, Note_off_c, 2, 58, 64
3, 110007, Note_off_c, 2, 249, 64
3, 110010, Control_c, 2, 64, 0
3, 110015, Control_c, 2, 64, 0
3, 110015, Control_c, 2, 64, 0
3, 111360, Note_on_c, 2, 58, 51
3, 111360, Note_on_c, 2, 50, 51
3, 111372, Note_on_c, 2, 249, 51
3, 111377, Note_on_c, 2, 241, 51
3, 111405, Note_off_c, 2, 58, 64
3, 111417, Note_off_c, 2, 249, 64
3, 111425, Note_off_c, 2, 50, 64
3, 111442, Note_off_c, 2, 241, 64
3, 111840, Note_on_c, 2, 58, 62
3, 111840, Note_on_c, 2, 50, 62
3, 111850, Note_on_c, 2, 249, 62
3, 111855, Note_on_c, 2, 241, 62
3, 112020, Note_off_c, 2, 50, 64
3, 112035, Note_off_c, 2, 58, 64
3, 112035, Note_off_c, 2, 241, 64
3, 112045, Note_off_c, 2, 249, 64
3, 112790, Note_on_c, 2, 249, 59
3, 112790, Note_on_c, 2, 242, 59
3, 112800, Note_on_c, 2, 58, 59
3, 112800, Note_on_c, 2, 51, 59
3, 112885, Note_off_c, 2, 242, 64
3, 112885, Note_off_c, 2, 249, 64
3, 112895, Note_off_c, 2, 58, 64
3, 112895, Note_off_c, 2, 51, 64
3, 113272, Note_on_c, 2, 249, 77
3, 113275, Note_on_c, 2, 243, 77
3, 113280, Note_on_c, 2, 58, 77
3, 113280, Note_on_c, 2, 52, 77
3, 113370, Note_off_c, 2, 249, 64
3, 113377, Note_off_c, 2, 243, 64
3, 113378, Note_off_c, 2, 58, 64
3, 113382, Note_off_c, 2, 52, 64
3, 113760, Note_on_c, 2, 58, 68
3, 113772, Note_on_c, 2, 53, 68
3, 113775, Note_on_c, 2, 244, 68
3, 113780, Note_on_c, 2, 249, 69
3, 113810, Note_off_c, 2, 58, 64
3, 113845, Note_off_c, 2, 249, 64
3, 113863, Note_on_c, 2, 60, 75
3, 113865, Note_on_c, 2, 251, 75
3, 113913, Note_off_c, 2, 60, 64
3, 113915, Note_off_c, 2, 251, 64
3, 113952, Note_on_c, 2, 62, 82
3, 113960, Note_on_c, 2, 253, 84
3, 114278, Note_off_c, 2, 53, 80
3, 114299, Note_off_c, 2, 62, 64
3, 114485, Note_off_c, 2, 253, 64
3, 114517, Note_off_c, 2, 244, 64
3, 114720, Note_on_c, 2, 53, 48
3, 114720, Note_on_c, 2, 62, 48
3, 114725, Note_on_c, 2, 244, 48
3, 114732, Note_on_c, 2, 253, 48
3, 114845, Note_on_c, 2, 251, 44
3, 114845, Note_on_c, 2, 60, 44
3, 114848, Note_off_c, 2, 62, 64
3, 114860, Note_off_c, 2, 253, 64
3, 114965, Note_on_c, 2, 249, 40
3, 114970, Note_on_c, 2, 58, 40
3, 114972, Note_off_c, 2, 251, 64
3, 114972, Note_off_c, 2, 60, 64
3, 115045, Note_off_c, 2, 249, 64
3, 115050, Note_off_c, 2, 58, 64
3, 115070, Note_on_c, 2, 248, 37
3, 115070, Note_on_c, 2, 57, 37
3, 115142, Note_off_c, 2, 53, 64
3, 115145, Note_off_c, 2, 248, 64
3, 115145, Note_off_c, 2, 57, 64
3, 115147, Note_off_c, 2, 244, 64
3, 115200, Note_on_c, 2, 58, 33
3, 115202, Note_on_c, 2, 249, 33
3, 115480, Note_off_c, 2, 58, 64
3, 115482, Note_off_c, 2, 249, 64
3, 115680, Note_on_c, 2, 46, 42
3, 115700, Note_on_c, 2, 237, 42
3, 115915, Note_off_c, 2, 46, 64
3, 115935, Note_off_c, 2, 237, 64
3, 116640, Note_on_c, 2, 63, 22
3, 116640, Note_on_c, 2, 67, 22
3, 116672, Note_on_c, 2, 254, 38
3, 116802, Control_c, 2, 64, 0
3, 116802, Control_c, 2, 64, 0
3, 116802, Control_c, 2, 64, 0
3, 116875, Control_c, 2, 64, 127
3, 116875, Control_c, 2, 64, 127
3, 116875, Control_c, 2, 64, 127
3, 116882, Note_on_c, 2, 58, 22
3, 116900, Note_on_c, 2, 249, 26
3, 116912, Note_off_c, 2, 67, 64
3, 116915, Note_off_c, 2, 63, 64
3, 116925, Note_off_c, 2, 254, 64
3, 116950, Control_c, 2, 64, 127
3, 116955, Control_c, 2, 64, 127
3, 116955, Control_c, 2, 64, 127
3, 117125, Note_off_c, 2, 249, 64
3, 117130, Note_off_c, 2, 58, 64
3, 117130, Control_c, 2, 64, 0
3, 117130, Note_on_c, 2, 63, 22
3, 117130, Note_on_c, 2, 67, 22
3, 117132, Control_c, 2, 64, 0
3, 117132, Control_c, 2, 64, 0
3, 117137, Note_on_c, 2, 254, 33
3, 117335, Control_c, 2, 64, 127
3, 117335, Control_c, 2, 64, 127
3, 117335, Control_c, 2, 64, 127
3, 117350, Note_on_c, 2, 58, 22
3, 117365, Note_on_c, 2, 249, 33
3, 117375, Note_off_c, 2, 254, 64
3, 117387, Note_off_c, 2, 67, 64
3, 117387, Note_off_c, 2, 63, 64
3, 117450, Control_c, 2, 64, 0
3, 117450, Control_c, 2, 64, 0
3, 117450, Control_c, 2, 64, 0
3, 117600, Note_on_c, 2, 63, 42
3, 117605, Note_on_c, 2, 67, 42
3, 117607, Note_off_c, 2, 249, 64
3, 117607, Note_on_c, 2, 254, 42
3, 117640, Note_off_c, 2, 58, 64
3, 117740, Control_c, 2, 64, 127
3, 117740, Control_c, 2, 64, 127
3, 117740, Control_c, 2, 64, 127
3, 117800, Note_off_c, 2, 254, 64
3, 117830, Note_off_c, 2, 63, 64
3, 117840, Note_on_c, 2, 58, 22
3, 117842, Note_on_c, 2, 249, 22
3, 117847, Note_off_c, 2, 67, 64
3, 117975, Note_off_c, 2, 249, 64
3, 118020, Note_off_c, 2, 58, 64
3, 118080, Note_on_c, 2, 68, 44
3, 118080, Note_on_c, 2, 65, 44
3, 118097, Control_c, 2, 64, 0
3, 118097, Control_c, 2, 64, 0
3, 118097, Control_c, 2, 64, 0
3, 118107, Control_c, 2, 64, 0
3, 118107, Control_c, 2, 64, 0
3, 118107, Control_c, 2, 64, 0
3, 118310, Control_c, 2, 64, 127
3, 118315, Control_c, 2, 64, 127
3, 118315, Control_c, 2, 64, 127
3, 118315, Note_on_c, 2, 249, 33
3, 118320, Note_on_c, 2, 58, 33
3, 118327, Control_c, 2, 64, 127
3, 118332, Control_c, 2, 64, 127
3, 118332, Control_c, 2, 64, 127
3, 118460, Note_off_c, 2, 65, 64
3, 118475, Note_off_c, 2, 68, 64
3, 118515, Note_off_c, 2, 249, 64
3, 118535, Note_on_c, 2, 65, 26
3, 118535, Note_on_c, 2, 68, 26
3, 118543, Note_off_c, 2, 58, 64
3, 118795, Note_on_c, 2, 249, 28
3, 118800, Note_on_c, 2, 58, 28
3, 118875, Note_off_c, 2, 65, 64
3, 118882, Note_off_c, 2, 68, 64
3, 118935, Note_off_c, 2, 249, 64
3, 118945, Note_off_c, 2, 58, 64
3, 119005, Control_c, 2, 64, 0
3, 119005, Control_c, 2, 64, 0
3, 119005, Control_c, 2, 64, 0
3, 119010, Control_c, 2, 64, 0
3, 119010, Control_c, 2, 64, 0
3, 119010, Control_c, 2, 64, 0
3, 119040, Note_on_c, 2, 68, 26
3, 119040, Note_on_c, 2, 65, 26
3, 119285, Note_on_c, 2, 58, 22
3, 119297, Control_c, 2, 64, 127
3, 119297, Control_c, 2, 64, 127
3, 119297, Control_c, 2, 64, 127
3, 119335, Note_off_c, 2, 68, 64
3, 119347, Note_off_c, 2, 65, 64
3, 119472, Note_off_c, 2, 58, 64
3, 119520, Note_on_c, 2, 63, 22
3, 119520, Note_on_c, 2, 67, 22
3, 119535, Control_c, 2, 64, 0
3, 119535, Control_c, 2, 64, 0
3, 119535, Control_c, 2, 64, 0
3, 119750, Note_on_c, 2, 58, 31
3, 119822, Note_off_c, 2, 67, 64
3, 119827, Control_c, 2, 64, 127
3, 119827, Control_c, 2, 64, 127
3, 119827, Control_c, 2, 64, 127
3, 119830, Note_off_c, 2, 63, 64
3, 120000, Note_on_c, 2, 63, 22
3, 120000, Note_on_c, 2, 67, 22
3, 120010, Note_off_c, 2, 58, 64
3, 120240, Note_off_c, 2, 63, 64
3, 120240, Note_off_c, 2, 67, 64
3, 120240, Note_on_c, 2, 58, 31
3, 120480, Note_on_c, 2, 63, 34
3, 120480, Note_on_c, 2, 67, 41
3, 120522, Note_off_c, 2, 58, 64
3, 120650, Note_off_c, 2, 63, 64
3, 120662, Note_off_c, 2, 67, 64
3, 120730, Note_on_c, 2, 58, 31
3, 120915, Note_off_c, 2, 58, 64
3, 120960, Note_on_c, 2, 65, 62
3, 120960, Note_on_c, 2, 62, 62
3, 120970, Control_c, 2, 64, 0
3, 120972, Control_c, 2, 64, 0
3, 120972, Control_c, 2, 64, 0
3, 121147, Control_c, 2, 64, 127
3, 121147, Control_c, 2, 64, 127
3, 121147, Control_c, 2, 64, 127
3, 121197, Note_on_c, 2, 58, 62
3, 121280, Note_off_c, 2, 62, 64
3, 121285, Note_off_c, 2, 65, 64
3, 121440, Note_on_c, 2, 62, 39
3, 121440, Note_on_c, 2, 65, 39
3, 121442, Note_off_c, 2, 58, 64
3, 121645, Control_c, 2, 64, 0
3, 121645, Control_c, 2, 64, 0
3, 121645, Control_c, 2, 64, 0
3, 121667, Note_on_c, 2, 58, 33
3, 121790, Note_off_c, 2, 62, 64
3, 121790, Note_off_c, 2, 65, 64
3, 121790, Control_c, 2, 64, 127
3, 121792, Control_c, 2, 64, 127
3, 121792, Control_c, 2, 64, 127
3, 121920, Note_on_c, 2, 65, 46
3, 121920, Note_on_c, 2, 62, 46
3, 121967, Note_off_c, 2, 58, 64
3, 122165, Note_on_c, 2, 58, 59
3, 122197, Note_off_c, 2, 65, 64
3, 122207, Note_off_c, 2, 62, 64
3, 122250, Note_off_c, 2, 58, 64
3, 122400, Note_on_c, 2, 63, 71
3, 122467, Control_c, 2, 64, 0
3, 122467, Control_c, 2, 64, 0
3, 122467, Control_c, 2, 64, 0
3, 122762, Note_off_c, 2, 63, 64
3, 123360, Note_on_c, 2, 43, 89
3, 123360, Note_on_c, 2, 55, 89
3, 123840, Note_on_c, 2, 44, 97
3, 123840, Note_on_c, 2, 56, 97
3, 123873, Note_off_c, 2, 43, 64
3, 123883, Note_off_c, 2, 55, 64
3, 124212, Note_off_c, 2, 44, 64
3, 124222, Note_off_c, 2, 56, 64
3, 124800, Note_on_c, 2, 58, 88
3, 124800, Note_on_c, 2, 61, 88
3, 125280, Note_on_c, 2, 60, 55
3, 125280, Note_on_c, 2, 56, 55
3, 125293, Note_off_c, 2, 58, 64
3, 125305, Note_off_c, 2, 61, 64
3, 125633, Note_off_c, 2, 56, 64
3, 125652, Note_off_c, 2, 60, 64
3, 126240, Note_on_c, 2, 57, 48
3, 126240, Note_on_c, 2, 63, 48
3, 126407, Note_on_c, 2, 65, 51
3, 126427, Control_c, 2, 64, 127
3, 126427, Control_c, 2, 64, 127
3, 126427, Control_c, 2, 64, 127
3, 126445, Note_off_c, 2, 63, 64
3, 126490, Note_off_c, 2, 65, 64
3, 126565, Note_off_c, 2, 57, 64
3, 126565, Note_on_c, 2, 67, 55
3, 126627, Note_off_c, 2, 67, 64
3, 126720, Note_on_c, 2, 58, 59
3, 126740, Note_on_c, 2, 67, 59
3, 126777, Control_c, 2, 64, 0
3, 126777, Control_c, 2, 64, 0
3, 126777, Control_c, 2, 64, 0
3, 126982, Control_c, 2, 64, 127
3, 126982, Control_c, 2, 64, 127
3, 126982, Control_c, 2, 64, 127
3, 127200, Note_on_c, 2, 65, 37
3, 127277, Note_off_c, 2, 67, 64
3, 127297, Note_off_c, 2, 65, 64
3, 127312, Note_off_c, 2, 58, 64
3, 127392, Control_c, 2, 64, 0
3, 127395, Control_c, 2, 64, 0
3, 127395, Control_c, 2, 64, 0
3, 127680, Note_on_c, 2, 58, 24
3, 127920, Control_c, 2, 64, 127
3, 127920, Control_c, 2, 64, 127
3, 127922, Control_c, 2, 64, 127
3, 127930, Note_on_c, 2, 65, 30
3, 127987, Note_off_c, 2, 58, 64
3, 128087, Note_off_c, 2, 65, 64
3, 128160, Note_on_c, 2, 60, 35
3, 128212, Control_c, 2, 64, 0
3, 128217, Control_c, 2, 64, 0
3, 128217, Control_c, 2, 64, 0
3, 128410, Note_on_c, 2, 65, 35
3, 128447, Control_c, 2, 64, 127
3, 128447, Control_c, 2, 64, 127
3, 128447, Control_c, 2, 64, 127
3, 128527, Note_off_c, 2, 60, 64
3, 128642, Note_on_c, 2, 63, 30
3, 128650, Note_off_c, 2, 65, 64
3, 128685, Control_c, 2, 64, 0
3, 128687, Control_c, 2, 64, 0
3, 128687, Control_c, 2, 64, 0
3, 128880, Note_on_c, 2, 65, 37
3, 128912, Note_off_c, 2, 63, 64
3, 128960, Note_off_c, 2, 65, 64
3, 129120, Note_on_c, 2, 63, 35
3, 129360, Note_on_c, 2, 65, 40
3, 129397, Note_off_c, 2, 63, 64
3, 129497, Control_c, 2, 64, 127
3, 129497, Control_c, 2, 64, 127
3, 129497, Control_c, 2, 64, 127
3, 129600, Note_on_c, 2, 62, 46
3, 129603, Note_off_c, 2, 65, 64
3, 129622, Control_c, 2, 64, 0
3, 129622, Control_c, 2, 64, 0
3, 129622, Control_c, 2, 64, 0
3, 129850, Note_on_c, 2, 65, 44
3, 129882, Note_off_c, 2, 62, 64
3, 130080, Note_on_c, 2, 58, 60
3, 130097, Note_off_c, 2, 65, 64
3, 130323, Note_off_c, 2, 58, 64
3, 130330, Note_on_c, 2, 65, 33
3, 130422, Note_off_c, 2, 65, 64
3, 130560, Control_c, 2, 64, 127
3, 130560, Control_c, 2, 64, 127
3, 130560, Control_c, 2, 64, 127
3, 130560, Note_on_c, 2, 58, 22
3, 130807, Note_off_c, 2, 58, 64
3, 130810, Note_on_c, 2, 65, 33
3, 131008, Note_off_c, 2, 65, 64
3, 131040, Note_on_c, 2, 60, 22
3, 131145, Control_c, 2, 64, 0
3, 131145, Control_c, 2, 64, 0
3, 131145, Control_c, 2, 64, 0
3, 131290, Note_on_c, 2, 65, 39
3, 131520, Note_on_c, 2, 63, 33
3, 131532, Note_off_c, 2, 60, 64
3, 131540, Note_off_c, 2, 65, 64
3, 131752, Note_off_c, 2, 63, 64
3, 131770, Note_on_c, 2, 65, 26
3, 131842, Note_off_c, 2, 65, 64
3, 132000, Note_on_c, 2, 63, 46
3, 132085, Control_c, 2, 64, 127
3, 132085, Control_c, 2, 64, 127
3, 132085, Control_c, 2, 64, 127
3, 132250, Note_on_c, 2, 65, 57
3, 132292, Note_off_c, 2, 63, 64
3, 132435, Note_off_c, 2, 65, 64
3, 132480, Note_on_c, 2, 62, 73
3, 132555, Control_c, 2, 64, 0
3, 132555, Control_c, 2, 64, 0
3, 132555, Control_c, 2, 64, 0
3, 132730, Control_c, 2, 64, 127
3, 132730, Note_on_c, 2, 65, 57
3, 132732, Control_c, 2, 64, 127
3, 132732, Control_c, 2, 64, 127
3, 132753, Note_off_c, 2, 62, 64
3, 132948, Note_off_c, 2, 65, 64
3, 132960, Note_on_c, 2, 58, 42
3, 133047, Note_off_c, 2, 58, 64
3, 133050, Control_c, 2, 64, 0
3, 133055, Control_c, 2, 64, 0
3, 133055, Control_c, 2, 64, 0
3, 134400, Note_on_c, 2, 58, 51
3, 134400, Note_on_c, 2, 50, 51
3, 134445, Note_off_c, 2, 58, 64
3, 134465, Note_off_c, 2, 50, 64
3, 134880, Note_on_c, 2, 58, 62
3, 134880, Note_on_c, 2, 50, 62
3, 135060, Note_off_c, 2, 50, 64
3, 135075, Note_off_c, 2, 58, 64
3, 135840, Note_on_c, 2, 58, 59
3, 135840, Note_on_c, 2, 51, 59
3, 135935, Note_off_c, 2, 51, 64
3, 135935, Note_off_c, 2, 58, 64
3, 136320, Note_on_c, 2, 58, 77
3, 136320, Note_on_c, 2, 52, 77
3, 136418, Note_off_c, 2, 58, 64
3, 136422, Note_off_c, 2, 52, 64
3, 136800, Note_on_c, 2, 58, 68
3, 136812, Note_on_c, 2, 53, 68
3, 136850, Note_off_c, 2, 58, 64
3, 136903, Note_on_c, 2, 60, 75
3, 136953, Note_off_c, 2, 60, 64
3, 136992, Note_on_c, 2, 62, 82
3, 137318, Note_off_c, 2, 53, 80
3, 137339, Note_off_c, 2, 62, 64
3, 137760, Note_on_c, 2, 53, 48
3, 137760, Note_on_c, 2, 62, 48
3, 137885, Note_on_c, 2, 60, 44
3, 137888, Note_off_c, 2, 62, 64
3, 138010, Note_on_c, 2, 58, 40
3, 138012, Note_off_c, 2, 60, 64
3, 138090, Note_off_c, 2, 58, 64
3, 138110, Note_on_c, 2, 57, 37
3, 138182, Note_off_c, 2, 53, 64
3, 138185, Note_off_c, 2, 57, 64
3, 138240, Note_on_c, 2, 58, 33
3, 138520, Note_off_c, 2, 58, 64
3, 138720, Note_on_c, 2, 46, 42
3, 138955, Note_off_c, 2, 46, 64
3, 139200, Note_on_c, 2, 62, 31
3, 139382, Control_c, 2, 64, 127
3, 139382, Control_c, 2, 64, 127
3, 139385, Control_c, 2, 64, 127
3, 139450, Note_on_c, 2, 58, 40
3, 139477, Note_off_c, 2, 62, 64
3, 139622, Note_off_c, 2, 58, 64
3, 139680, Note_on_c, 2, 63, 57
3, 139737, Control_c, 2, 64, 0
3, 139737, Control_c, 2, 64, 0
3, 139737, Control_c, 2, 64, 0
3, 139930, Note_on_c, 2, 58, 31
3, 140000, Control_c, 2, 64, 127
3, 140000, Control_c, 2, 64, 127
3, 140000, Control_c, 2, 64, 127
3, 140015, Note_off_c, 2, 63, 64
3, 140124, Note_off_c, 2, 58, 64
3, 140160, Note_on_c, 2, 63, 44
3, 140410, Note_on_c, 2, 58, 28
3, 140482, Note_off_c, 2, 63, 64
3, 140565, Note_off_c, 2, 58, 64
3, 140640, Note_on_c, 2, 65, 31
3, 140645, Control_c, 2, 64, 0
3, 140645, Control_c, 2, 64, 0
3, 140645, Control_c, 2, 64, 0
3, 140890, Note_on_c, 2, 58, 31
3, 140930, Note_off_c, 2, 65, 64
3, 140937, Control_c, 2, 64, 127
3, 140937, Control_c, 2, 64, 127
3, 140937, Control_c, 2, 64, 127
3, 141088, Note_off_c, 2, 58, 64
3, 141120, Note_on_c, 2, 67, 64
3, 141210, Control_c, 2, 64, 0
3, 141210, Control_c, 2, 64, 0
3, 141210, Control_c, 2, 64, 0
3, 141370, Note_on_c, 2, 58, 40
3, 141377, Control_c, 2, 64, 127
3, 141377, Control_c, 2, 64, 127
3, 141377, Control_c, 2, 64, 127
3, 141415, Note_off_c, 2, 67, 64
3, 141593, Note_off_c, 2, 58, 64
3, 141600, Note_on_c, 2, 67, 53
3, 141835, Note_on_c, 2, 58, 33
3, 141845, Note_off_c, 2, 67, 64
3, 141947, Note_off_c, 2, 58, 64
3, 142022, Control_c, 2, 64, 0
3, 142022, Control_c, 2, 64, 0
3, 142022, Control_c, 2, 64, 0
3, 142080, Note_on_c, 2, 62, 37
3, 142310, Note_on_c, 2, 58, 36
3, 142345, Control_c, 2, 64, 127
3, 142347, Control_c, 2, 64, 127
3, 142347, Control_c, 2, 64, 127
3, 142377, Note_off_c, 2, 62, 64
3, 142502, Note_off_c, 2, 58, 64
3, 142560, Note_on_c, 2, 63, 73
3, 142580, Control_c, 2, 64, 0
3, 142580, Control_c, 2, 64, 0
3, 142582, Control_c, 2, 64, 0
3, 142785, Note_on_c, 2, 58, 51
3, 142812, Control_c, 2, 64, 127
3, 142812, Control_c, 2, 64, 127
3, 142812, Control_c, 2, 64, 127
3, 142887, Note_off_c, 2, 63, 64
3, 143010, Note_on_c, 2, 63, 59
3, 143050, Note_off_c, 2, 58, 64
3, 143285, Note_off_c, 2, 63, 64
3, 143290, Note_on_c, 2, 58, 27
3, 143413, Note_off_c, 2, 58, 64
3, 143490, Control_c, 2, 64, 0
3, 143490, Control_c, 2, 64, 0
3, 143490, Control_c, 2, 64, 0
3, 143490, Note_on_c, 2, 60, 49
3, 143770, Note_on_c, 2, 58, 33
3, 143807, Control_c, 2, 64, 127
3, 143807, Control_c, 2, 64, 127
3, 143807, Control_c, 2, 64, 127
3, 143837, Note_off_c, 2, 60, 64
3, 143960, Note_off_c, 2, 58, 64
3, 144000, Note_on_c, 2, 62, 83
3, 144017, Control_c, 2, 64, 0
3, 144017, Control_c, 2, 64, 0
3, 144017, Control_c, 2, 64, 0
3, 144225, Note_on_c, 2, 58, 49
3, 144480, Note_on_c, 2, 65, 77
3, 144502, Note_off_c, 2, 58, 64
3, 144510, Note_off_c, 2, 62, 64
3, 144705, Note_on_c, 2, 62, 57
3, 144840, Note_off_c, 2, 65, 64
3, 144957, Note_off_c, 2, 62, 64
3, 144960, Note_on_c, 2, 58, 48
3, 145183, Note_off_c, 2, 58, 64
3, 145440, Note_on_c, 2, 47, 86
3, 145440, Note_on_c, 2, 59, 108
3, 148320, Note_on_c, 2, 58, 68
3, 148325, Note_off_c, 2, 47, 64
3, 148330, Note_off_c, 2, 59, 64
3, 148540, Note_off_c, 2, 58, 64
3, 149280, Note_on_c, 2, 46, 95
3, 149395, Note_off_c, 2, 46, 64
3, 149405, Note_on_c, 2, 47, 86
3, 149510, Note_on_c, 2, 46, 84
3, 149525, Note_off_c, 2, 47, 64
3, 149615, Note_on_c, 2, 45, 88
3, 149635, Note_off_c, 2, 46, 64
3, 149760, Note_on_c, 2, 46, 98
3, 149765, Note_off_c, 2, 45, 64
3, 149915, Note_off_c, 2, 46, 64
3, 151220, Note_on_c, 2, 67, 28
3, 151220, Note_on_c, 2, 63, 28
3, 151365, Control_c, 2, 64, 127
3, 151365, Control_c, 2, 64, 127
3, 151365, Control_c, 2, 64, 127
3, 151445, Note_on_c, 2, 58, 31
3, 151470, Note_off_c, 2, 63, 64
3, 151472, Note_off_c, 2, 67, 64
3, 151667, Note_off_c, 2, 58, 64
3, 151682, Note_on_c, 2, 63, 31
3, 151690, Note_on_c, 2, 67, 38
3, 151827, Control_c, 2, 64, 0
3, 151827, Control_c, 2, 64, 0
3, 151827, Control_c, 2, 64, 0
3, 151920, Note_on_c, 2, 58, 31
3, 151980, Note_off_c, 2, 67, 64
3, 151980, Note_off_c, 2, 63, 64
3, 152037, Control_c, 2, 64, 127
3, 152040, Control_c, 2, 64, 127
3, 152040, Control_c, 2, 64, 127
3, 152172, Note_off_c, 2, 58, 64
3, 152172, Note_on_c, 2, 67, 37
3, 152172, Note_on_c, 2, 63, 37
3, 152405, Note_off_c, 2, 63, 64
3, 152406, Note_on_c, 2, 58, 31
3, 152427, Note_off_c, 2, 67, 64
3, 152561, Note_off_c, 2, 58, 64
3, 152655, Note_on_c, 2, 68, 46
3, 152662, Note_on_c, 2, 65, 48
3, 152680, Control_c, 2, 64, 0
3, 152680, Control_c, 2, 64, 0
3, 152680, Control_c, 2, 64, 0
3, 152880, Note_on_c, 2, 58, 34
3, 152917, Control_c, 2, 64, 127
3, 152917, Control_c, 2, 64, 127
3, 152917, Control_c, 2, 64, 127
3, 153020, Note_off_c, 2, 68, 64
3, 153025, Note_off_c, 2, 65, 64
3, 153095, Note_off_c, 2, 58, 64
3, 153120, Note_on_c, 2, 65, 33
3, 153120, Note_on_c, 2, 68, 33
3, 153360, Note_on_c, 2, 58, 31
3, 153440, Note_off_c, 2, 68, 64
3, 153448, Note_off_c, 2, 65, 64
3, 153490, Note_off_c, 2, 58, 64
3, 153600, Note_on_c, 2, 65, 30
3, 153600, Note_on_c, 2, 68, 30
3, 153647, Control_c, 2, 64, 0
3, 153652, Control_c, 2, 64, 0
3, 153652, Control_c, 2, 64, 0
3, 153820, Control_c, 2, 64, 127
3, 153820, Control_c, 2, 64, 127
3, 153820, Control_c, 2, 64, 127
3, 153840, Note_on_c, 2, 58, 26
3, 153863, Note_off_c, 2, 68, 64
3, 153870, Note_off_c, 2, 65, 64
3, 154038, Note_off_c, 2, 58, 64
3, 154075, Note_on_c, 2, 67, 31
3, 154075, Note_on_c, 2, 63, 31
3, 154112, Control_c, 2, 64, 0
3, 154112, Control_c, 2, 64, 0
3, 154112, Control_c, 2, 64, 0
3, 154300, Note_on_c, 2, 58, 33
3, 154322, Control_c, 2, 64, 127
3, 154322, Control_c, 2, 64, 127
3, 154322, Control_c, 2, 64, 127
3, 154402, Note_off_c, 2, 67, 64
3, 154412, Note_off_c, 2, 63, 64
3, 154547, Note_off_c, 2, 58, 64
3, 154560, Note_on_c, 2, 63, 35
3, 154560, Note_on_c, 2, 67, 35
3, 154800, Note_on_c, 2, 58, 37
3, 154817, Note_off_c, 2, 67, 64
3, 154830, Note_off_c, 2, 63, 64
3, 155040, Note_off_c, 2, 58, 64
3, 155050, Note_on_c, 2, 63, 39
3, 155050, Note_on_c, 2, 67, 39
3, 155280, Note_off_c, 2, 63, 64
3, 155287, Note_off_c, 2, 67, 64
3, 155310, Note_on_c, 2, 58, 39
3, 155490, Note_off_c, 2, 58, 64
3, 155520, Note_on_c, 2, 65, 73
3, 155520, Note_on_c, 2, 62, 73
3, 155557, Control_c, 2, 64, 0
3, 155557, Control_c, 2, 64, 0
3, 155557, Control_c, 2, 64, 0
3, 155730, Control_c, 2, 64, 127
3, 155730, Control_c, 2, 64, 127
3, 155735, Control_c, 2, 64, 127
3, 155755, Note_on_c, 2, 58, 42
3, 155817, Note_off_c, 2, 62, 64
3, 155817, Note_off_c, 2, 65, 64
3, 155972, Note_off_c, 2, 58, 64
3, 155995, Note_on_c, 2, 65, 49
3, 155995, Note_on_c, 2, 62, 49
3, 156247, Note_on_c, 2, 58, 44
3, 156292, Note_off_c, 2, 65, 64
3, 156302, Note_off_c, 2, 62, 64
3, 156467, Note_off_c, 2, 58, 64
3, 156475, Note_on_c, 2, 62, 40
3, 156475, Note_on_c, 2, 65, 40
3, 156722, Note_on_c, 2, 58, 35
3, 156740, Note_off_c, 2, 65, 64
3, 156785, Note_off_c, 2, 62, 64
3, 156842, Note_off_c, 2, 58, 64
3, 156955, Note_on_c, 2, 63, 53
3, 156990, Control_c, 2, 64, 0
3, 156990, Control_c, 2, 64, 0
3, 156990, Control_c, 2, 64, 0
3, 157297, Note_off_c, 2, 63, 64
3, 157927, Note_on_c, 2, 55, 90
3, 157930, Note_on_c, 2, 43, 90
3, 158225, Note_off_c, 2, 43, 64
3, 158255, Note_off_c, 2, 55, 64
3, 158400, Note_on_c, 2, 56, 105
3, 158410, Note_on_c, 2, 44, 102
3, 158780, Note_off_c, 2, 44, 64
3, 158782, Note_off_c, 2, 56, 64
3, 159360, Note_on_c, 2, 58, 95
3, 159360, Note_on_c, 2, 61, 95
3, 159632, Control_c, 2, 64, 127
3, 159632, Control_c, 2, 64, 127
3, 159632, Control_c, 2, 64, 127
3, 159755, Note_off_c, 2, 58, 64
3, 159765, Note_off_c, 2, 61, 64
3, 159840, Note_on_c, 2, 60, 57
3, 159840, Note_on_c, 2, 56, 57
3, 159927, Control_c, 2, 64, 0
3, 159927, Control_c, 2, 64, 0
3, 159927, Control_c, 2, 64, 0
3, 160090, Note_off_c, 2, 56, 64
3, 160100, Note_off_c, 2, 60, 64
3, 160790, Note_on_c, 2, 63, 62
3, 160792, Note_on_c, 2, 57, 62
3, 160977, Control_c, 2, 64, 127
3, 160977, Control_c, 2, 64, 127
3, 160977, Control_c, 2, 64, 127
3, 160977, Note_on_c, 2, 65, 53
3, 160997, Note_off_c, 2, 63, 64
3, 161025, Note_off_c, 2, 65, 64
3, 161115, Note_on_c, 2, 67, 62
3, 161127, Note_off_c, 2, 57, 64
3, 161160, Note_off_c, 2, 67, 64
3, 161280, Note_on_c, 2, 58, 71
3, 161280, Note_on_c, 2, 67, 71
3, 161297, Control_c, 2, 64, 0
3, 161297, Control_c, 2, 64, 0
3, 161297, Control_c, 2, 64, 0
3, 161760, Note_on_c, 2, 65, 37
3, 161830, Note_off_c, 2, 67, 64
3, 161947, Control_c, 2, 64, 127
3, 161950, Control_c, 2, 64, 127
3, 161950, Control_c, 2, 64, 127
3, 162027, Note_off_c, 2, 58, 64
3, 162050, Note_off_c, 2, 65, 64
3, 162260, Note_on_c, 2, 51, 44
3, 162297, Control_c, 2, 64, 0
3, 162297, Control_c, 2, 64, 0
3, 162297, Control_c, 2, 64, 0
3, 162492, Note_on_c, 2, 58, 39
3, 162507, Control_c, 2, 64, 127
3, 162507, Control_c, 2, 64, 127
3, 162507, Control_c, 2, 64, 127
3, 162532, Note_off_c, 2, 51, 64
3, 162650, Note_off_c, 2, 58, 64
3, 162737, Note_on_c, 2, 53, 42
3, 162767, Control_c, 2, 64, 0
3, 162770, Control_c, 2, 64, 0
3, 162770, Control_c, 2, 64, 0
3, 162960, Note_on_c, 2, 58, 33
3, 162992, Note_off_c, 2, 53, 64
3, 163035, Control_c, 2, 64, 127
3, 163035, Control_c, 2, 64, 127
3, 163035, Control_c, 2, 64, 127
3, 163200, Note_on_c, 2, 56, 39
3, 163210, Note_off_c, 2, 58, 64
3, 163235, Control_c, 2, 64, 0
3, 163235, Control_c, 2, 64, 0
3, 163235, Control_c, 2, 64, 0
3, 163440, Note_off_c, 2, 56, 64
3, 163440, Note_on_c, 2, 58, 37
3, 163495, Note_off_c, 2, 58, 64
3, 163680, Note_on_c, 2, 56, 49
3, 163920, Note_on_c, 2, 58, 37
3, 163930, Note_off_c, 2, 56, 64
3, 163945, Control_c, 2, 64, 127
3, 163945, Control_c, 2, 64, 127
3, 163945, Control_c, 2, 64, 127
3, 164072, Note_off_c, 2, 58, 64
3, 164150, Note_on_c, 2, 55, 51
3, 164175, Control_c, 2, 64, 0
3, 164175, Control_c, 2, 64, 0
3, 164175, Control_c, 2, 64, 0
3, 164400, Note_off_c, 2, 55, 64
3, 164405, Note_on_c, 2, 58, 35
3, 164410, Control_c, 2, 64, 127
3, 164410, Control_c, 2, 64, 127
3, 164410, Control_c, 2, 64, 127
3, 164590, Note_off_c, 2, 58, 64
3, 164625, Note_on_c, 2, 51, 30
3, 164677, Control_c, 2, 64, 0
3, 164677, Control_c, 2, 64, 0
3, 164677, Control_c, 2, 64, 0
3, 164865, Note_off_c, 2, 51, 64
3, 164875, Note_on_c, 2, 58, 28
3, 164912, Control_c, 2, 64, 127
3, 164912, Control_c, 2, 64, 127
3, 164912, Control_c, 2, 64, 127
3, 164912, Control_c, 2, 64, 127
3, 164912, Control_c, 2, 64, 127
3, 164912, Control_c, 2, 64, 127
3, 164940, Control_c, 2, 64, 0
3, 164940, Control_c, 2, 64, 0
3, 164940, Control_c, 2, 64, 0
3, 164990, Note_off_c, 2, 58, 64
3, 165120, Note_on_c, 2, 51, 26
3, 165322, Control_c, 2, 64, 127
3, 165322, Control_c, 2, 64, 127
3, 165322, Control_c, 2, 64, 127
3, 165370, Note_on_c, 2, 58, 35
3, 165418, Note_off_c, 2, 51, 64
3, 165502, Note_off_c, 2, 58, 64
3, 165630, Note_on_c, 2, 53, 39
3, 165672, Control_c, 2, 64, 0
3, 165675, Control_c, 2, 64, 0
3, 165675, Control_c, 2, 64, 0
3, 165817, Control_c, 2, 64, 127
3, 165817, Control_c, 2, 64, 127
3, 165817, Control_c, 2, 64, 127
3, 165862, Note_on_c, 2, 58, 35
3, 165887, Note_off_c, 2, 53, 64
3, 166080, Note_on_c, 2, 56, 52
3, 166100, Note_off_c, 2, 58, 64
3, 166170, Control_c, 2, 64, 0
3, 166170, Control_c, 2, 64, 0
3, 166175, Control_c, 2, 64, 0
3, 166230, Control_c, 2, 64, 127
3, 166232, Control_c, 2, 64, 127
3, 166232, Control_c, 2, 64, 127
3, 166325, Note_off_c, 2, 56, 64
3, 166335, Note_on_c, 2, 58, 41
3, 166420, Note_off_c, 2, 58, 64
3, 166462, Control_c, 2, 64, 0
3, 166467, Control_c, 2, 64, 0
3, 166467, Control_c, 2, 64, 0
3, 166575, Note_on_c, 2, 56, 73
3, 166787, Control_c, 2, 64, 127
3, 166787, Control_c, 2, 64, 127
3, 166787, Control_c, 2, 64, 127
3, 166795, Note_on_c, 2, 58, 53
3, 166810, Note_off_c, 2, 56, 64
3, 166965, Note_off_c, 2, 58, 64
3, 167040, Note_on_c, 2, 55, 68
3, 167052, Control_c, 2, 64, 0
3, 167052, Control_c, 2, 64, 0
3, 167052, Control_c, 2, 64, 0
3, 167275, Note_on_c, 2, 58, 49
3, 167317, Control_c, 2, 64, 127
3, 167317, Control_c, 2, 64, 127
3, 167317, Control_c, 2, 64, 127
3, 167347, Note_off_c, 2, 55, 64
3, 167482, Note_off_c, 2, 58, 64
3, 167505, Note_on_c, 2, 51, 40
3, 167577, Control_c, 2, 64, 0
3, 167580, Control_c, 2, 64, 0
3, 167580, Control_c, 2, 64, 0
3, 167662, Note_off_c, 2, 51, 64
3, 168965, Note_on_c, 2, 63, 60
3, 168972, Note_on_c, 2, 55, 59
3, 169030, Note_off_c, 2, 55, 64
3, 169030, Note_off_c, 2, 63, 64
3, 169452, Note_on_c, 2, 63, 62
3, 169452, Note_on_c, 2, 55, 66
3, 169505, Note_off_c, 2, 55, 64
3, 169515, Note_off_c, 2, 63, 64
3, 170385, Note_on_c, 2, 63, 69
3, 170395, Note_on_c, 2, 56, 73
3, 170447, Note_off_c, 2, 56, 64
3, 170457, Note_off_c, 2, 63, 64
3, 170875, Note_on_c, 2, 63, 83
3, 170875, Note_on_c, 2, 57, 72
3, 170932, Note_off_c, 2, 57, 64
3, 170952, Note_off_c, 2, 63, 64
3, 171375, Note_on_c, 2, 58, 82
3, 171377, Note_on_c, 2, 63, 82
3, 171457, Note_on_c, 2, 65, 88
3, 171480, Note_off_c, 2, 63, 64
3, 171502, Note_off_c, 2, 65, 64
3, 171550, Note_on_c, 2, 67, 95
3, 171937, Note_off_c, 2, 58, 64
3, 171940, Note_off_c, 2, 67, 64
3, 172320, Note_on_c, 2, 58, 53
3, 172330, Note_on_c, 2, 67, 53
3, 172420, Note_off_c, 2, 67, 64
3, 172445, Note_on_c, 2, 65, 48
3, 172497, Note_off_c, 2, 65, 64
3, 172540, Note_on_c, 2, 63, 44
3, 172617, Note_off_c, 2, 58, 64
3, 172617, Note_off_c, 2, 63, 64
3, 172645, Note_on_c, 2, 62, 40
3, 172712, Note_off_c, 2, 62, 64
3, 172800, Note_on_c, 2, 63, 33
3, 173280, Note_on_c, 2, 51, 39
3, 173305, Note_off_c, 2, 63, 64
3, 173430, Note_off_c, 2, 51, 64
3, 173760, Note_on_c, 2, 62, 31
3, 173942, Control_c, 2, 64, 127
3, 173942, Control_c, 2, 64, 127
3, 173945, Control_c, 2, 64, 127
3, 174010, Note_on_c, 2, 58, 40
3, 174037, Note_off_c, 2, 62, 64
3, 174182, Note_off_c, 2, 58, 64
3, 174240, Note_on_c, 2, 63, 57
3, 174297, Control_c, 2, 64, 0
3, 174297, Control_c, 2, 64, 0
3, 174297, Control_c, 2, 64, 0
3, 174490, Note_on_c, 2, 58, 31
3, 174560, Control_c, 2, 64, 127
3, 174560, Control_c, 2, 64, 127
3, 174560, Control_c, 2, 64, 127
3, 174575, Note_off_c, 2, 63, 64
3, 174684, Note_off_c, 2, 58, 64
3, 174720, Note_on_c, 2, 63, 44
3, 174970, Note_on_c, 2, 58, 28
3, 175042, Note_off_c, 2, 63, 64
3, 175125, Note_off_c, 2, 58, 64
3, 175200, Note_on_c, 2, 65, 31
3, 175205, Control_c, 2, 64, 0
3, 175205, Control_c, 2, 64, 0
3, 175205, Control_c, 2, 64, 0
3, 175450, Note_on_c, 2, 58, 31
3, 175490, Note_off_c, 2, 65, 64
3, 175497, Control_c, 2, 64, 127
3, 175497, Control_c, 2, 64, 127
3, 175497, Control_c, 2, 64, 127
3, 175648, Note_off_c, 2, 58, 64
3, 175680, Note_on_c, 2, 67, 64
3, 175770, Control_c, 2, 64, 0
3, 175770, Control_c, 2, 64, 0
3, 175770, Control_c, 2, 64, 0
3, 175930, Note_on_c, 2, 58, 40
3, 175937, Control_c, 2, 64, 127
3, 175937, Control_c, 2, 64, 127
3, 175937, Control_c, 2, 64, 127
3, 175975, Note_off_c, 2, 67, 64
3, 176153, Note_off_c, 2, 58, 64
3, 176160, Note_on_c, 2, 67, 53
3, 176395, Note_on_c, 2, 58, 33
3, 176405, Note_off_c, 2, 67, 64
3, 176507, Note_off_c, 2, 58, 64
3, 176582, Control_c, 2, 64, 0
3, 176582, Control_c, 2, 64, 0
3, 176582, Control_c, 2, 64, 0
3, 176640, Note_on_c, 2, 62, 37
3, 176870, Note_on_c, 2, 58, 36
3, 176905, Control_c, 2, 64, 127
3, 176907, Control_c, 2, 64, 127
3, 176907, Control_c, 2, 64, 127
3, 176937, Note_off_c, 2, 62, 64
3, 177062, Note_off_c, 2, 58, 64
3, 177120, Note_on_c, 2, 63, 73
3, 177140, Control_c, 2, 64, 0
3, 177140, Control_c, 2, 64, 0
3, 177142, Control_c, 2, 64, 0
3, 177345, Note_on_c, 2, 58, 51
3, 177372, Control_c, 2, 64, 127
3, 177372, Control_c, 2, 64, 127
3, 177372, Control_c, 2, 64, 127
3, 177447, Note_off_c, 2, 63, 64
3, 177570, Note_on_c, 2, 63, 59
3, 177610, Note_off_c, 2, 58, 64
3, 177845, Note_off_c, 2, 63, 64
3, 177850, Note_on_c, 2, 58, 27
3, 177973, Note_off_c, 2, 58, 64
3, 178050, Control_c, 2, 64, 0
3, 178050, Control_c, 2, 64, 0
3, 178050, Control_c, 2, 64, 0
3, 178050, Note_on_c, 2, 60, 49
3, 178330, Note_on_c, 2, 58, 33
3, 178367, Control_c, 2, 64, 127
3, 178367, Control_c, 2, 64, 127
3, 178367, Control_c, 2, 64, 127
3, 178397, Note_off_c, 2, 60, 64
3, 178520, Note_off_c, 2, 58, 64
3, 178560, Note_on_c, 2, 62, 83
3, 178577, Control_c, 2, 64, 0
3, 178577, Control_c, 2, 64, 0
3, 178577, Control_c, 2, 64, 0
3, 178785, Note_on_c, 2, 58, 49
3, 179040, Note_on_c, 2, 65, 77
3, 179062, Note_off_c, 2, 58, 64
3, 179070, Note_off_c, 2, 62, 64
3, 179265, Note_on_c, 2, 62, 57
3, 179400, Note_off_c, 2, 65, 64
3, 179517, Note_off_c, 2, 62, 64
3, 179520, Note_on_c, 2, 58, 48
3, 179743, Note_off_c, 2, 58, 64
3, 180000, Note_on_c, 2, 47, 86
3, 180000, Note_on_c, 2, 59, 108
3, 182880, Note_on_c, 2, 58, 68
3, 182885, Note_off_c, 2, 47, 64
3, 182890, Note_off_c, 2, 59, 64
3, 183100, Note_off_c, 2, 58, 64
3, 183840, Note_on_c, 2, 46, 95
3, 183955, Note_off_c, 2, 46, 64
3, 183965, Note_on_c, 2, 47, 86
3, 184070, Note_on_c, 2, 46, 84
3, 184085, Note_off_c, 2, 47, 64
3, 184175, Note_on_c, 2, 45, 88
3, 184195, Note_off_c, 2, 46, 64
3, 184320, Note_on_c, 2, 46, 98
3, 184325, Note_off_c, 2, 45, 64
3, 184475, Note_off_c, 2, 46, 64
3, 185780, Note_on_c, 2, 67, 28
3, 185780, Note_on_c, 2, 63, 28
3, 185925, Control_c, 2, 64, 127
3, 185925, Control_c, 2, 64, 127
3, 185925, Control_c, 2, 64, 127
3, 186005, Note_on_c, 2, 58, 31
3, 186030, Note_off_c, 2, 63, 64
3, 186032, Note_off_c, 2, 67, 64
3, 186227, Note_off_c, 2, 58, 64
3, 186242, Note_on_c, 2, 63, 31
3, 186250, Note_on_c, 2, 67, 38
3, 186387, Control_c, 2, 64, 0
3, 186387, Control_c, 2, 64, 0
3, 186387, Control_c, 2, 64, 0
3, 186480, Note_on_c, 2, 58, 31
3, 186540, Note_off_c, 2, 67, 64
3, 186540, Note_off_c, 2, 63, 64
3, 186597, Control_c, 2, 64, 127
3, 186600, Control_c, 2, 64, 127
3, 186600, Control_c, 2, 64, 127
3, 186732, Note_off_c, 2, 58, 64
3, 186732, Note_on_c, 2, 67, 37
3, 186732, Note_on_c, 2, 63, 37
3, 186965, Note_off_c, 2, 63, 64
3, 186966, Note_on_c, 2, 58, 31
3, 186987, Note_off_c, 2, 67, 64
3, 187121, Note_off_c, 2, 58, 64
3, 187215, Note_on_c, 2, 68, 46
3, 187222, Note_on_c, 2, 65, 48
3, 187240, Control_c, 2, 64, 0
3, 187240, Control_c, 2, 64, 0
3, 187240, Control_c, 2, 64, 0
3, 187440, Note_on_c, 2, 58, 34
3, 187477, Control_c, 2, 64, 127
3, 187477, Control_c, 2, 64, 127
3, 187477, Control_c, 2, 64, 127
3, 187580, Note_off_c, 2, 68, 64
3, 187585, Note_off_c, 2, 65, 64
3, 187655, Note_off_c, 2, 58, 64
3, 187680, Note_on_c, 2, 65, 33
3, 187680, Note_on_c, 2, 68, 33
3, 187920, Note_on_c, 2, 58, 31
3, 188000, Note_off_c, 2, 68, 64
3, 188008, Note_off_c, 2, 65, 64
3, 188050, Note_off_c, 2, 58, 64
3, 188160, Note_on_c, 2, 65, 30
3, 188160, Note_on_c, 2, 68, 30
3, 188207, Control_c, 2, 64, 0
3, 188212, Control_c, 2, 64, 0
3, 188212, Control_c, 2, 64, 0
3, 188380, Control_c, 2, 64, 127
3, 188380, Control_c, 2, 64, 127
3, 188380, Control_c, 2, 64, 127
3, 188400, Note_on_c, 2, 58, 26
3, 188423, Note_off_c, 2, 68, 64
3, 188430, Note_off_c, 2, 65, 64
3, 188598, Note_off_c, 2, 58, 64
3, 188635, Note_on_c, 2, 67, 31
3, 188635, Note_on_c, 2, 63, 31
3, 188672, Control_c, 2, 64, 0
3, 188672, Control_c, 2, 64, 0
3, 188672, Control_c, 2, 64, 0
3, 188860, Note_on_c, 2, 58, 33
3, 188882, Control_c, 2, 64, 127
3, 188882, Control_c, 2, 64, 127
3, 188882, Control_c, 2, 64, 127
3, 188962, Note_off_c, 2, 67, 64
3, 188972, Note_off_c, 2, 63, 64
3, 189107, Note_off_c, 2, 58, 64
3, 189120, Note_on_c, 2, 63, 35
3, 189120, Note_on_c, 2, 67, 35
3, 189360, Note_on_c, 2, 58, 37
3, 189377, Note_off_c, 2, 67, 64
3, 189390, Note_off_c, 2, 63, 64
3, 189600, Note_off_c, 2, 58, 64
3, 189610, Note_on_c, 2, 63, 39
3, 189610, Note_on_c, 2, 67, 39
3, 189840, Note_off_c, 2, 63, 64
3, 189847, Note_off_c, 2, 67, 64
3, 189870, Note_on_c, 2, 58, 39
3, 190050, Note_off_c, 2, 58, 64
3, 190080, Note_on_c, 2, 65, 73
3, 190080, Note_on_c, 2, 62, 73
3, 190117, Control_c, 2, 64, 0
3, 190117, Control_c, 2, 64, 0
3, 190117, Control_c, 2, 64, 0
3, 190290, Control_c, 2, 64, 127
3, 190290, Control_c, 2, 64, 127
3, 190295, Control_c, 2, 64, 127
3, 190315, Note_on_c, 2, 58, 42
3, 190377, Note_off_c, 2, 62, 64
3, 190377, Note_off_c, 2, 65, 64
3, 190532, Note_off_c, 2, 58, 64
3, 190555, Note_on_c, 2, 65, 49
3, 190555, Note_on_c, 2, 62, 49
3, 190807, Note_on_c, 2, 58, 44
3, 190852, Note_off_c, 2, 65, 64
3, 190862, Note_off_c, 2, 62, 64
3, 191027, Note_off_c, 2, 58, 64
3, 191035, Note_on_c, 2, 62, 40
3, 191035, Note_on_c, 2, 65, 40
3, 191282, Note_on_c, 2, 58, 35
3, 191300, Note_off_c, 2, 65, 64
3, 191345, Note_off_c, 2, 62, 64
3, 191402, Note_off_c, 2, 58, 64
3, 191515, Note_on_c, 2, 63, 53
3, 191550, Control_c, 2, 64, 0
3, 191550, Control_c, 2, 64, 0
3, 191550, Control_c, 2, 64, 0
3, 191857, Note_off_c, 2, 63, 64
3, 192487, Note_on_c, 2, 55, 90
3, 192490, Note_on_c, 2, 43, 90
3, 192785, Note_off_c, 2, 43, 64
3, 192815, Note_off_c, 2, 55, 64
3, 192960, Note_on_c, 2, 56, 105
3, 192970, Note_on_c, 2, 44, 102
3, 193340, Note_off_c, 2, 44, 64
3, 193342, Note_off_c, 2, 56, 64
3, 193920, Note_on_c, 2, 58, 95
3, 193920, Note_on_c, 2, 61, 95
3, 194192, Control_c, 2, 64, 127
3, 194192, Control_c, 2, 64, 127
3, 194192, Control_c, 2, 64, 127
3, 194315, Note_off_c, 2, 58, 64
3, 194325, Note_off_c, 2, 61, 64
3, 194400, Note_on_c, 2, 60, 57
3, 194400, Note_on_c, 2, 56, 57
3, 194487, Control_c, 2, 64, 0
3, 194487, Control_c, 2, 64, 0
3, 194487, Control_c, 2, 64, 0
3, 194650, Note_off_c, 2, 56, 64
3, 194660, Note_off_c, 2, 60, 64
3, 195350, Note_on_c, 2, 63, 62
3, 195352, Note_on_c, 2, 57, 62
3, 195537, Control_c, 2, 64, 127
3, 195537, Control_c, 2, 64, 127
3, 195537, Control_c, 2, 64, 127
3, 195537, Note_on_c, 2, 65, 53
3, 195557, Note_off_c, 2, 63, 64
3, 195585, Note_off_c, 2, 65, 64
3, 195675, Note_on_c, 2, 67, 62
3, 195687, Note_off_c, 2, 57, 64
3, 195720, Note_off_c, 2, 67, 64
3, 195840, Note_on_c, 2, 58, 71
3, 195840, Note_on_c, 2, 67, 71
3, 195857, Control_c, 2, 64, 0
3, 195857, Control_c, 2, 64, 0
3, 195857, Control_c, 2, 64, 0
3, 196320, Note_on_c, 2, 65, 37
3, 196390, Note_off_c, 2, 67, 64
3, 196507, Control_c, 2, 64, 127
3, 196510, Control_c, 2, 64, 127
3, 196510, Control_c, 2, 64, 127
3, 196587, Note_off_c, 2, 58, 64
3, 196610, Note_off_c, 2, 65, 64
3, 196820, Note_on_c, 2, 51, 44
3, 196857, Control_c, 2, 64, 0
3, 196857, Control_c, 2, 64, 0
3, 196857, Control_c, 2, 64, 0
3, 197052, Note_on_c, 2, 58, 39
3, 197067, Control_c, 2, 64, 127
3, 197067, Control_c, 2, 64, 127
3, 197067, Control_c, 2, 64, 127
3, 197092, Note_off_c, 2, 51, 64
3, 197210, Note_off_c, 2, 58, 64
3, 197297, Note_on_c, 2, 53, 42
3, 197327, Control_c, 2, 64, 0
3, 197330, Control_c, 2, 64, 0
3, 197330, Control_c, 2, 64, 0
3, 197520, Note_on_c, 2, 58, 33
3, 197552, Note_off_c, 2, 53, 64
3, 197595, Control_c, 2, 64, 127
3, 197595, Control_c, 2, 64, 127
3, 197595, Control_c, 2, 64, 127
3, 197760, Note_on_c, 2, 56, 39
3, 197770, Note_off_c, 2, 58, 64
3, 197795, Control_c, 2, 64, 0
3, 197795, Control_c, 2, 64, 0
3, 197795, Control_c, 2, 64, 0
3, 198000, Note_off_c, 2, 56, 64
3, 198000, Note_on_c, 2, 58, 37
3, 198055, Note_off_c, 2, 58, 64
3, 198240, Note_on_c, 2, 56, 49
3, 198480, Note_on_c, 2, 58, 37
3, 198490, Note_off_c, 2, 56, 64
3, 198505, Control_c, 2, 64, 127
3, 198505, Control_c, 2, 64, 127
3, 198505, Control_c, 2, 64, 127
3, 198632, Note_off_c, 2, 58, 64
3, 198710, Note_on_c, 2, 55, 51
3, 198735, Control_c, 2, 64, 0
3, 198735, Control_c, 2, 64, 0
3, 198735, Control_c, 2, 64, 0
3, 198960, Note_off_c, 2, 55, 64
3, 198965, Note_on_c, 2, 58, 35
3, 198970, Control_c, 2, 64, 127
3, 198970, Control_c, 2, 64, 127
3, 198970, Control_c, 2, 64, 127
3, 199150, Note_off_c, 2, 58, 64
3, 199185, Note_on_c, 2, 51, 30
3, 199237, Control_c, 2, 64, 0
3, 199237, Control_c, 2, 64, 0
3, 199237, Control_c, 2, 64, 0
3, 199425, Note_off_c, 2, 51, 64
3, 199435, Note_on_c, 2, 58, 28
3, 199472, Control_c, 2, 64, 127
3, 199472, Control_c, 2, 64, 127
3, 199472, Control_c, 2, 64, 127
3, 199472, Control_c, 2, 64, 127
3, 199472, Control_c, 2, 64, 127
3, 199472, Control_c, 2, 64, 127
3, 199500, Control_c, 2, 64, 0
3, 199500, Control_c, 2, 64, 0
3, 199500, Control_c, 2, 64, 0
3, 199550, Note_off_c, 2, 58, 64
3, 199680, Note_on_c, 2, 51, 26
3, 199882, Control_c, 2, 64, 127
3, 199882, Control_c, 2, 64, 127
3, 199882, Control_c, 2, 64, 127
3, 199930, Note_on_c, 2, 58, 35
3, 199978, Note_off_c, 2, 51, 64
3, 200062, Note_off_c, 2, 58, 64
3, 200190, Note_on_c, 2, 53, 39
3, 200232, Control_c, 2, 64, 0
3, 200235, Control_c, 2, 64, 0
3, 200235, Control_c, 2, 64, 0
3, 200377, Control_c, 2, 64, 127
3, 200377, Control_c, 2, 64, 127
3, 200377, Control_c, 2, 64, 127
3, 200422, Note_on_c, 2, 58, 35
3, 200447, Note_off_c, 2, 53, 64
3, 200640, Note_on_c, 2, 56, 52
3, 200660, Note_off_c, 2, 58, 64
3, 200730, Control_c, 2, 64, 0
3, 200730, Control_c, 2, 64, 0
3, 200735, Control_c, 2, 64, 0
3, 200790, Control_c, 2, 64, 127
3, 200792, Control_c, 2, 64, 127
3, 200792, Control_c, 2, 64, 127
3, 200885, Note_off_c, 2, 56, 64
3, 200895, Note_on_c, 2, 58, 41
3, 200980, Note_off_c, 2, 58, 64
3, 201022, Control_c, 2, 64, 0
3, 201027, Control_c, 2, 64, 0
3, 201027, Control_c, 2, 64, 0
3, 201135, Note_on_c, 2, 56, 73
3, 201347, Control_c, 2, 64, 127
3, 201347, Control_c, 2, 64, 127
3, 201347, Control_c, 2, 64, 127
3, 201355, Note_on_c, 2, 58, 53
3, 201370, Note_off_c, 2, 56, 64
3, 201525, Note_off_c, 2, 58, 64
3, 201600, Note_on_c, 2, 55, 68
3, 201612, Control_c, 2, 64, 0
3, 201612, Control_c, 2, 64, 0
3, 201612, Control_c, 2, 64, 0
3, 201835, Note_on_c, 2, 58, 49
3, 201877, Control_c, 2, 64, 127
3, 201877, Control_c, 2, 64, 127
3, 201877, Control_c, 2, 64, 127
3, 201907, Note_off_c, 2, 55, 64
3, 202042, Note_off_c, 2, 58, 64
3, 202065, Note_on_c, 2, 51, 40
3, 202137, Control_c, 2, 64, 0
3, 202140, Control_c, 2, 64, 0
3, 202140, Control_c, 2, 64, 0
3, 202222, Note_off_c, 2, 51, 64
3, 203525, Note_on_c, 2, 63, 60
3, 203532, Note_on_c, 2, 55, 59
3, 203590, Note_off_c, 2, 55, 64
3, 203590, Note_off_c, 2, 63, 64
3, 204012, Note_on_c, 2, 63, 62
3, 204012, Note_on_c, 2, 55, 66
3, 204065, Note_off_c, 2, 55, 64
3, 204075, Note_off_c, 2, 63, 64
3, 204945, Note_on_c, 2, 63, 69
3, 204955, Note_on_c, 2, 56, 73
3, 205007, Note_off_c, 2, 56, 64
3, 205017, Note_off_c, 2, 63, 64
3, 205435, Note_on_c, 2, 63, 83
3, 205435, Note_on_c, 2, 57, 72
3, 205492, Note_off_c, 2, 57, 64
3, 205512, Note_off_c, 2, 63, 64
3, 205935, Note_on_c, 2, 58, 82
3, 205937, Note_on_c, 2, 63, 82
3, 206017, Note_on_c, 2, 65, 88
3, 206040, Note_off_c, 2, 63, 64
3, 206062, Note_off_c, 2, 65, 64
3, 206110, Note_on_c, 2, 67, 95
3, 206497, Note_off_c, 2, 58, 64
3, 206500, Note_off_c, 2, 67, 64
3, 206880, Note_on_c, 2, 58, 53
3, 206890, Note_on_c, 2, 67, 53
3, 206980, Note_off_c, 2, 67, 64
3, 207005, Note_on_c, 2, 65, 48
3, 207057, Note_off_c, 2, 65, 64
3, 207100, Note_on_c, 2, 63, 44
3, 207177, Note_off_c, 2, 58, 64
3, 207177, Note_off_c, 2, 63, 64
3, 207205, Note_on_c, 2, 62, 40
3, 207272, Note_off_c, 2, 62, 64
3, 207360, Note_on_c, 2, 63, 33
3, 207840, Note_on_c, 2, 51, 45
3, 207865, Note_off_c, 2, 63, 64
3, 207990, Note_off_c, 2, 51, 64
3, 209280, Note_on_c, 2, 62, 60
3, 209280, Note_on_c, 2, 65, 60
3, 209305, Note_off_c, 2, 65, 64
3, 209305, Note_off_c, 2, 62, 64
3, 209770, Note_on_c, 2, 65, 60
3, 209770, Note_on_c, 2, 62, 60
3, 209795, Note_off_c, 2, 62, 64
3, 209795, Note_off_c, 2, 65, 64
3, 210257, Note_on_c, 2, 63, 60
3, 210257, Note_on_c, 2, 65, 60
3, 210343, Note_off_c, 2, 65, 64
3, 210343, Note_off_c, 2, 63, 64
3, 212160, Note_on_c, 2, 65, 31
3, 212160, Note_on_c, 2, 63, 31
3, 212200, Note_off_c, 2, 63, 64
3, 212200, Note_off_c, 2, 65, 64
3, 212640, Note_on_c, 2, 63, 26
3, 212640, Note_on_c, 2, 65, 26
3, 212690, Note_off_c, 2, 65, 64
3, 212690, Note_off_c, 2, 63, 64
3, 213120, Note_on_c, 2, 65, 22
3, 213120, Note_on_c, 2, 62, 22
3, 213280, Note_off_c, 2, 62, 64
3, 213280, Note_off_c, 2, 65, 64
3, 214080, Note_on_c, 2, 58, 84
3, 214425, Note_on_c, 2, 60, 62
3, 214430, Note_off_c, 2, 58, 64
3, 214565, Note_on_c, 2, 53, 78
3, 214567, Note_on_c, 2, 62, 86
3, 214585, Note_off_c, 2, 60, 64
3, 214810, Note_on_c, 2, 63, 44
3, 214847, Note_off_c, 2, 62, 64
3, 215050, Note_on_c, 2, 60, 47
3, 215082, Note_off_c, 2, 63, 64
3, 215270, Note_on_c, 2, 57, 50
3, 215295, Note_off_c, 2, 60, 64
3, 215520, Note_on_c, 2, 58, 52
3, 215557, Note_off_c, 2, 57, 64
3, 215760, Note_on_c, 2, 60, 49
3, 215777, Note_off_c, 2, 58, 64
3, 216025, Note_on_c, 2, 62, 64
3, 216052, Note_off_c, 2, 60, 64
3, 216252, Note_on_c, 2, 63, 49
3, 216300, Note_off_c, 2, 62, 64
3, 216507, Note_on_c, 2, 60, 40
3, 216525, Note_off_c, 2, 63, 64
3, 216735, Note_on_c, 2, 57, 57
3, 216757, Note_off_c, 2, 60, 64
3, 216972, Note_on_c, 2, 58, 48
3, 217010, Note_off_c, 2, 57, 64
3, 217200, Note_on_c, 2, 60, 42
3, 217210, Note_off_c, 2, 58, 64
3, 217437, Note_on_c, 2, 62, 35
3, 217447, Note_off_c, 2, 60, 64
3, 217680, Note_off_c, 2, 62, 64
3, 217720, Note_off_c, 2, 53, 64
3, 220835, Note_on_c, 2, 57, 82
3, 220835, Note_on_c, 2, 48, 82
3, 220932, Note_off_c, 2, 48, 64
3, 220932, Note_off_c, 2, 57, 64
3, 221287, Note_on_c, 2, 55, 64
3, 221287, Note_on_c, 2, 48, 64
3, 221355, Note_off_c, 2, 48, 64
3, 221355, Note_off_c, 2, 55, 64
3, 221760, Note_on_c, 2, 53, 66
3, 221938, Note_off_c, 2, 53, 64
3, 222240, Note_on_c, 2, 41, 66
3, 222385, Note_off_c, 2, 41, 64
3, 223670, Note_on_c, 2, 65, 40
3, 223770, Note_off_c, 2, 65, 64
3, 225120, Note_on_c, 2, 53, 57
3, 225315, Note_off_c, 2, 53, 64
3, 225600, Note_on_c, 2, 65, 98
3, 225600, Note_on_c, 2, 53, 98
3, 225760, Note_off_c, 2, 65, 64
3, 225780, Note_off_c, 2, 53, 64
3, 226080, Note_on_c, 2, 52, 79
3, 226080, Note_on_c, 2, 64, 79
3, 226245, Note_off_c, 2, 52, 64
3, 226262, Note_off_c, 2, 64, 64
3, 226560, Note_on_c, 2, 63, 100
3, 226560, Note_on_c, 2, 51, 100
3, 226725, Note_off_c, 2, 51, 64
3, 226732, Note_off_c, 2, 63, 64
3, 227040, Note_on_c, 2, 50, 48
3, 227040, Note_on_c, 2, 62, 48
3, 227040, Note_on_c, 2, 62, 60
3, 227040, Note_on_c, 2, 50, 60
3, 227220, Note_off_c, 2, 62, 64
3, 227220, Note_off_c, 2, 62, 64
3, 227223, Note_off_c, 2, 50, 64
3, 227223, Note_off_c, 2, 50, 64
3, 227520, Note_on_c, 2, 43, 73
3, 227520, Note_on_c, 2, 55, 73
3, 227520, Note_on_c, 2, 55, 88
3, 227520, Note_on_c, 2, 43, 88
3, 227707, Note_off_c, 2, 43, 64
3, 227707, Note_off_c, 2, 43, 64
3, 227712, Note_off_c, 2, 55, 64
3, 227712, Note_off_c, 2, 55, 64
3, 228000, Note_on_c, 2, 45, 71
3, 228000, Note_on_c, 2, 57, 71
3, 228160, Note_off_c, 2, 45, 64
3, 228187, Note_off_c, 2, 57, 64
3, 228480, Note_on_c, 2, 58, 98
3, 228720, Note_off_c, 2, 58, 64
3, 228960, Note_on_c, 2, 51, 33
3, 229890, Note_on_c, 2, 52, 39
3, 229947, Note_off_c, 2, 51, 64
3, 230398, Note_off_c, 2, 52, 64
3, 230400, Note_on_c, 2, 53, 40
3, 230880, Note_on_c, 2, 51, 47
3, 230922, Note_off_c, 2, 53, 64
3, 231360, Note_on_c, 2, 50, 43
3, 231390, Note_off_c, 2, 51, 64
3, 231713, Note_off_c, 2, 50, 64
3, 231840, Note_on_c, 2, 57, 77
3, 232320, Note_on_c, 2, 58, 64
3, 232370, Note_off_c, 2, 57, 64
3, 232800, Note_on_c, 2, 52, 42
3, 232847, Note_off_c, 2, 58, 64
3, 233280, Note_on_c, 2, 53, 31
3, 233340, Note_off_c, 2, 52, 64
3, 233833, Note_off_c, 2, 53, 64
3, 234215, Note_on_c, 2, 62, 65
3, 234570, Note_on_c, 2, 63, 66
3, 234600, Note_off_c, 2, 62, 64
3, 234640, Note_off_c, 2, 63, 64
3, 234695, Note_on_c, 2, 60, 69
3, 234937, Note_off_c, 2, 60, 64
3, 234937, Note_on_c, 2, 58, 59
3, 235003, Note_off_c, 2, 58, 64
3, 235200, Note_on_c, 2, 58, 80
3, 235274, Note_off_c, 2, 58, 64
3, 235680, Note_on_c, 2, 58, 80
3, 235754, Note_off_c, 2, 58, 64
3, 236160, Note_on_c, 2, 57, 69
3, 236290, Note_off_c, 2, 57, 64
3, 237120, Note_on_c, 2, 63, 57
3, 237470, Note_on_c, 2, 65, 46
3, 237500, Note_off_c, 2, 63, 64
3, 237517, Note_off_c, 2, 65, 64
3, 237590, Note_on_c, 2, 62, 57
3, 237830, Note_off_c, 2, 62, 64
3, 237837, Note_on_c, 2, 60, 53
3, 237903, Note_off_c, 2, 60, 64
3, 238080, Note_on_c, 2, 60, 69
3, 238154, Note_off_c, 2, 60, 64
3, 238560, Note_on_c, 2, 60, 69
3, 238634, Note_off_c, 2, 60, 64
3, 239040, Note_on_c, 2, 58, 77
3, 239180, Note_off_c, 2, 58, 64
3, 240000, Note_on_c, 2, 58, 83
3, 240350, Note_on_c, 2, 60, 67
3, 240355, Control_c, 2, 64, 127
3, 240360, Control_c, 2, 64, 127
3, 240360, Control_c, 2, 64, 127
3, 240375, Note_off_c, 2, 58, 64
3, 240417, Control_c, 2, 64, 0
3, 240417, Control_c, 2, 64, 0
3, 240417, Control_c, 2, 64, 0
3, 240480, Note_on_c, 2, 62, 92
3, 240480, Note_on_c, 2, 53, 70
3, 240500, Note_off_c, 2, 60, 64
3, 240730, Note_on_c, 2, 63, 70
3, 240767, Note_off_c, 2, 62, 64
3, 240960, Note_on_c, 2, 60, 53
3, 241002, Note_off_c, 2, 63, 64
3, 241200, Note_off_c, 2, 60, 64
3, 241210, Note_on_c, 2, 57, 55
3, 241440, Note_on_c, 2, 58, 40
3, 241497, Note_off_c, 2, 57, 64
3, 241690, Note_on_c, 2, 60, 49
3, 241703, Note_off_c, 2, 58, 64
3, 241920, Note_on_c, 2, 62, 70
3, 241963, Note_off_c, 2, 60, 64
3, 242170, Note_on_c, 2, 63, 51
3, 242195, Note_off_c, 2, 62, 64
3, 242400, Note_on_c, 2, 60, 43
3, 242425, Note_off_c, 2, 63, 64
3, 242650, Note_on_c, 2, 57, 42
3, 242665, Note_off_c, 2, 60, 64
3, 242880, Note_on_c, 2, 58, 37
3, 242932, Note_off_c, 2, 57, 64
3, 243130, Note_on_c, 2, 60, 33
3, 243152, Note_off_c, 2, 58, 64
3, 243360, Note_on_c, 2, 62, 28
3, 243447, Note_off_c, 2, 60, 64
3, 243577, Note_off_c, 2, 62, 64
3, 243588, Note_off_c, 2, 53, 64
3, 246720, Note_on_c, 2, 53, 71
3, 246720, Note_on_c, 2, 62, 71
3, 246931, Note_off_c, 2, 62, 64
3, 246931, Note_off_c, 2, 53, 64
3, 247200, Note_on_c, 2, 53, 75
3, 247200, Note_on_c, 2, 60, 75
3, 247396, Note_off_c, 2, 60, 64
3, 247396, Note_off_c, 2, 53, 64
3, 247680, Note_on_c, 2, 58, 82
3, 248090, Note_off_c, 2, 58, 64
3, 248160, Note_on_c, 2, 46, 62
3, 248310, Note_off_c, 2, 46, 64
3, 249600, Note_on_c, 2, 70, 42
3, 249800, Note_off_c, 2, 70, 64
3, 251040, Note_on_c, 2, 58, 39
3, 251230, Note_off_c, 2, 58, 64
3, 251520, Note_on_c, 2, 55, 55
3, 252000, Note_on_c, 2, 51, 66
3, 252030, Note_off_c, 2, 55, 64
3, 252425, Note_off_c, 2, 51, 64
3, 252480, Note_on_c, 2, 48, 55
3, 252890, Note_off_c, 2, 48, 64
3, 252960, Note_on_c, 2, 53, 60
3, 253295, Note_off_c, 2, 53, 64
3, 253440, Note_on_c, 2, 58, 48
3, 253645, Note_off_c, 2, 58, 64
3, 253920, Note_on_c, 2, 46, 51
3, 254080, Note_off_c, 2, 46, 64
3, 254080, End_track
4, 0, Start_track
4, 0, MIDI_port, 0
4, 0, Channel_prefix, 3
4, 0, Control_c, 3, 10, 64
4, 95497, Note_on_c, 3, 74, 46
4, 95672, Note_off_c, 3, 74, 64
4, 95672, End_track
0, 0, End_of_file
