0, 0, Header, 1, 6, 480
1, 0, Start_track
1, 0, SMPTE_offset, 0, 0, 0, 0, 0
1, 0, Tempo, 454545
1, 0, Time_signature, 4, 2, 24, 8
1, 0, Key_signature, 2, "major"
1, 32000, Tempo, 1176470
1, 32172, Tempo, 454545
1, 32976, Tempo, 483870
1, 33600, Tempo, 454545
1, 72000, Tempo, 526315
1, 73221, Tempo, 461538
1, 73920, Tempo, 550458
1, 73970, Tempo, 454545
1, 74880, Tempo, 521739
1, 75360, Tempo, 491803
1, 77280, Tempo, 454545
1, 106760, Tempo, 845070
1, 107040, Tempo, 461538
1, 107118, Tempo, 454545
1, 147360, Tempo, 659340
1, 147840, Tempo, 480000
1, 151200, Tempo, 454545
1, 151680, Tempo, 681818
1, 151935, Tempo, 491803
1, 151980, Tempo, 454545
1, 180480, Tempo, 472440
1, 181920, Tempo, 512820
1, 186720, Tempo, 454545
1, 197733, Tempo, 1034482
1, 197760, Tempo, 454545
1, 224640, Tempo, 461538
1, 225640, Tempo, 517241
1, 225674, Tempo, 810810
1, 225823, Tempo, 454545
1, 226466, Tempo, 750000
1, 226596, Tempo, 454545
1, 264923, Tempo, 952380
1, 264960, Tempo, 454545
1, 286080, Tempo, 458015
1, 287110, Tempo, 512820
1, 288001, Tempo, 451127
1, 288001, End_track
2, 0, Start_track
2, 0, Title_t, "new"
2, 0, MIDI_port, 0
2, 0, Channel_prefix, 1
2, 0, Control_c, 1, 7, 125
2, 0, Control_c, 1, 10, 64
2, 0, Program_c, 1, 0
2, 1917, Control_c, 1, 64, 127
2, 1920, Note_on_c, 1, 74, 108
2, 1920, Note_on_c, 1, 66, 108
2, 1920, Note_on_c, 1, 69, 86
2, 1958, Note_off_c, 1, 69, 64
2, 1960, Note_off_c, 1, 66, 64
2, 1970, Note_off_c, 1, 74, 64
2, 2447, Control_c, 1, 64, 0
2, 2450, Control_c, 1, 64, 0
2, 2450, Control_c, 1, 64, 0
2, 2905, Note_on_c, 1, 79, 113
2, 3012, Note_on_c, 1, 78, 89
2, 3047, Note_off_c, 1, 79, 64
2, 3137, Note_on_c, 1, 76, 77
2, 3160, Note_off_c, 1, 78, 64
2, 3247, Note_on_c, 1, 78, 90
2, 3277, Note_off_c, 1, 76, 64
2, 3377, Note_on_c, 1, 81, 112
2, 3387, Note_off_c, 1, 78, 64
2, 3482, Note_on_c, 1, 79, 102
2, 3530, Note_off_c, 1, 81, 64
2, 3615, Note_on_c, 1, 78, 97
2, 3630, Note_off_c, 1, 79, 64
2, 3722, Note_on_c, 1, 79, 81
2, 3752, Note_off_c, 1, 78, 64
2, 3852, Note_on_c, 1, 81, 108
2, 3887, Note_off_c, 1, 79, 64
2, 3967, Note_off_c, 1, 81, 64
2, 4802, Note_on_c, 1, 81, 57
2, 4855, Note_off_c, 1, 81, 64
2, 5052, Note_on_c, 1, 83, 52
2, 5102, Note_off_c, 1, 83, 64
2, 5282, Note_on_c, 1, 85, 57
2, 5335, Note_off_c, 1, 85, 64
2, 5512, Note_on_c, 1, 86, 63
2, 5555, Note_off_c, 1, 86, 64
2, 5770, Note_on_c, 1, 81, 73
2, 6247, Note_on_c, 1, 78, 42
2, 6290, Note_off_c, 1, 81, 64
2, 6410, Note_off_c, 1, 78, 64
2, 6745, Note_on_c, 1, 81, 61
2, 6865, Note_on_c, 1, 79, 45
2, 6890, Note_off_c, 1, 81, 64
2, 6990, Note_on_c, 1, 78, 43
2, 7012, Note_off_c, 1, 79, 64
2, 7092, Note_on_c, 1, 79, 39
2, 7127, Note_off_c, 1, 78, 64
2, 7222, Note_on_c, 1, 81, 60
2, 7245, Note_off_c, 1, 79, 64
2, 7457, Note_on_c, 1, 79, 56
2, 7462, Note_off_c, 1, 81, 64
2, 7500, Note_off_c, 1, 79, 64
2, 7692, Note_on_c, 1, 77, 61
2, 7947, Note_on_c, 1, 78, 55
2, 7960, Note_off_c, 1, 77, 64
2, 8000, Note_off_c, 1, 78, 64
2, 8642, Note_on_c, 1, 79, 102
2, 8760, Note_on_c, 1, 78, 105
2, 8782, Note_off_c, 1, 79, 64
2, 8882, Note_on_c, 1, 76, 81
2, 8890, Note_off_c, 1, 78, 64
2, 9002, Note_on_c, 1, 78, 88
2, 9037, Note_off_c, 1, 76, 64
2, 9132, Note_on_c, 1, 81, 108
2, 9135, Note_off_c, 1, 78, 64
2, 9245, Note_on_c, 1, 79, 108
2, 9277, Note_off_c, 1, 81, 64
2, 9367, Note_on_c, 1, 78, 112
2, 9385, Note_off_c, 1, 79, 64
2, 9477, Note_on_c, 1, 79, 105
2, 9502, Note_off_c, 1, 78, 64
2, 9612, Note_on_c, 1, 81, 115
2, 9635, Note_off_c, 1, 79, 64
2, 9732, Note_off_c, 1, 81, 64
2, 10580, Note_on_c, 1, 81, 49
2, 10620, Note_off_c, 1, 81, 64
2, 10822, Note_on_c, 1, 83, 53
2, 10865, Note_off_c, 1, 83, 64
2, 11062, Note_on_c, 1, 85, 64
2, 11110, Note_off_c, 1, 85, 64
2, 11297, Note_on_c, 1, 86, 61
2, 11340, Note_off_c, 1, 86, 64
2, 11542, Note_on_c, 1, 81, 62
2, 12007, Note_on_c, 1, 78, 45
2, 12035, Note_off_c, 1, 81, 64
2, 12177, Note_off_c, 1, 78, 64
2, 12475, Note_on_c, 1, 81, 51
2, 12600, Note_on_c, 1, 79, 47
2, 12622, Note_off_c, 1, 81, 64
2, 12722, Note_on_c, 1, 78, 49
2, 12742, Note_off_c, 1, 79, 64
2, 12837, Note_on_c, 1, 79, 51
2, 12857, Note_off_c, 1, 78, 64
2, 12962, Note_on_c, 1, 81, 67
2, 12990, Note_off_c, 1, 79, 64
2, 13087, Note_on_c, 1, 79, 57
2, 13130, Note_off_c, 1, 81, 64
2, 13202, Note_on_c, 1, 78, 49
2, 13245, Note_off_c, 1, 79, 64
2, 13307, Note_on_c, 1, 76, 62
2, 13325, Note_off_c, 1, 78, 64
2, 13442, Note_on_c, 1, 74, 94
2, 13447, Note_off_c, 1, 76, 64
2, 13535, Note_off_c, 1, 74, 64
2, 13917, Note_on_c, 1, 69, 81
2, 13987, Note_off_c, 1, 69, 64
2, 14387, Note_on_c, 1, 78, 92
2, 14455, Note_on_c, 1, 79, 77
2, 14462, Note_off_c, 1, 78, 64
2, 14512, Note_off_c, 1, 79, 64
2, 14512, Note_on_c, 1, 78, 59
2, 14560, Note_on_c, 1, 79, 81
2, 14565, Note_off_c, 1, 78, 64
2, 14602, Note_on_c, 1, 78, 75
2, 14607, Note_off_c, 1, 79, 64
2, 14650, Note_on_c, 1, 79, 86
2, 14652, Note_off_c, 1, 78, 64
2, 14692, Note_off_c, 1, 79, 64
2, 14695, Note_on_c, 1, 78, 78
2, 14735, Note_on_c, 1, 79, 86
2, 14745, Note_off_c, 1, 78, 64
2, 14777, Note_off_c, 1, 79, 64
2, 14777, Note_on_c, 1, 78, 84
2, 14825, Note_off_c, 1, 78, 64
2, 14825, Note_on_c, 1, 79, 90
2, 14870, Note_off_c, 1, 79, 64
2, 14875, Note_on_c, 1, 78, 79
2, 14922, Note_on_c, 1, 79, 86
2, 14927, Note_off_c, 1, 78, 64
2, 14955, Note_off_c, 1, 79, 64
2, 14970, Note_on_c, 1, 78, 79
2, 15012, Note_off_c, 1, 78, 64
2, 15012, Note_on_c, 1, 79, 92
2, 15055, Note_on_c, 1, 78, 83
2, 15065, Note_off_c, 1, 79, 64
2, 15107, Note_on_c, 1, 76, 83
2, 15117, Note_off_c, 1, 78, 64
2, 15220, Note_off_c, 1, 76, 64
2, 15220, Note_on_c, 1, 74, 86
2, 15282, Note_off_c, 1, 74, 64
2, 15347, Note_on_c, 1, 73, 112
2, 15400, Note_off_c, 1, 73, 64
2, 15822, Note_on_c, 1, 69, 97
2, 15882, Note_off_c, 1, 69, 64
2, 16327, Note_on_c, 1, 76, 97
2, 16707, Note_off_c, 1, 76, 64
2, 17295, Note_on_c, 1, 76, 102
2, 17387, Note_off_c, 1, 76, 64
2, 17785, Note_on_c, 1, 69, 86
2, 17840, Note_off_c, 1, 69, 64
2, 18240, Note_on_c, 1, 79, 97
2, 18295, Note_off_c, 1, 79, 64
2, 18302, Note_on_c, 1, 81, 86
2, 18352, Note_off_c, 1, 81, 64
2, 18357, Note_on_c, 1, 79, 70
2, 18402, Note_off_c, 1, 79, 64
2, 18405, Note_on_c, 1, 81, 88
2, 18442, Note_on_c, 1, 79, 73
2, 18450, Note_off_c, 1, 81, 64
2, 18487, Note_off_c, 1, 79, 64
2, 18487, Note_on_c, 1, 81, 84
2, 18530, Note_off_c, 1, 81, 64
2, 18530, Note_on_c, 1, 79, 70
2, 18580, Note_off_c, 1, 79, 64
2, 18580, Note_on_c, 1, 81, 86
2, 18617, Note_off_c, 1, 81, 64
2, 18622, Note_on_c, 1, 79, 70
2, 18665, Note_off_c, 1, 79, 64
2, 18670, Note_on_c, 1, 81, 86
2, 18705, Note_off_c, 1, 81, 64
2, 18707, Note_on_c, 1, 79, 70
2, 18750, Note_off_c, 1, 79, 64
2, 18750, Note_on_c, 1, 81, 97
2, 18785, Note_off_c, 1, 81, 64
2, 18795, Note_on_c, 1, 79, 61
2, 18832, Note_off_c, 1, 79, 64
2, 18832, Note_on_c, 1, 81, 90
2, 18870, Note_off_c, 1, 81, 64
2, 18875, Note_on_c, 1, 79, 84
2, 18932, Note_off_c, 1, 79, 64
2, 18947, Note_on_c, 1, 78, 105
2, 19040, Note_off_c, 1, 78, 64
2, 19072, Note_on_c, 1, 76, 83
2, 19130, Note_off_c, 1, 76, 64
2, 19217, Note_on_c, 1, 74, 97
2, 19275, Note_off_c, 1, 74, 64
2, 19692, Note_on_c, 1, 69, 84
2, 19802, Note_off_c, 1, 69, 64
2, 20167, Note_on_c, 1, 78, 100
2, 20590, Note_off_c, 1, 78, 64
2, 21120, Note_on_c, 1, 78, 105
2, 21242, Note_on_c, 1, 74, 77
2, 21262, Note_off_c, 1, 78, 64
2, 21375, Note_on_c, 1, 76, 84
2, 21392, Note_off_c, 1, 74, 64
2, 21492, Note_on_c, 1, 78, 97
2, 21515, Note_off_c, 1, 76, 64
2, 21605, Note_off_c, 1, 78, 64
2, 21617, Note_on_c, 1, 79, 86
2, 21732, Note_on_c, 1, 81, 69
2, 21745, Note_off_c, 1, 79, 64
2, 21845, Note_on_c, 1, 83, 86
2, 21867, Note_off_c, 1, 81, 64
2, 21960, Note_on_c, 1, 85, 81
2, 21977, Note_off_c, 1, 83, 64
2, 22092, Note_on_c, 1, 86, 115
2, 22112, Note_off_c, 1, 85, 64
2, 22187, Note_on_c, 1, 85, 79
2, 22240, Note_off_c, 1, 86, 64
2, 22317, Note_on_c, 1, 83, 86
2, 22390, Note_off_c, 1, 85, 64
2, 22437, Note_on_c, 1, 81, 83
2, 22477, Note_off_c, 1, 83, 64
2, 22567, Note_on_c, 1, 79, 83
2, 22587, Note_off_c, 1, 81, 64
2, 22682, Note_on_c, 1, 78, 84
2, 22697, Note_off_c, 1, 79, 64
2, 22807, Note_on_c, 1, 76, 66
2, 22845, Note_off_c, 1, 78, 64
2, 22922, Note_on_c, 1, 74, 64
2, 22940, Note_off_c, 1, 76, 64
2, 23047, Note_on_c, 1, 76, 105
2, 23065, Note_off_c, 1, 74, 64
2, 23157, Note_on_c, 1, 78, 102
2, 23192, Note_off_c, 1, 76, 64
2, 23290, Note_on_c, 1, 76, 75
2, 23315, Note_off_c, 1, 78, 64
2, 23405, Note_on_c, 1, 75, 77
2, 23422, Note_off_c, 1, 76, 64
2, 23532, Note_off_c, 1, 75, 64
2, 23537, Note_on_c, 1, 76, 81
2, 23645, Note_on_c, 1, 78, 68
2, 23667, Note_off_c, 1, 76, 64
2, 23760, Note_on_c, 1, 79, 77
2, 23782, Note_off_c, 1, 78, 64
2, 23880, Note_on_c, 1, 81, 77
2, 23912, Note_off_c, 1, 79, 64
2, 24005, Note_on_c, 1, 83, 119
2, 24027, Note_off_c, 1, 81, 64
2, 24130, Note_on_c, 1, 81, 88
2, 24172, Note_off_c, 1, 83, 64
2, 24250, Note_on_c, 1, 79, 74
2, 24317, Note_off_c, 1, 81, 64
2, 24362, Note_on_c, 1, 78, 74
2, 24407, Note_off_c, 1, 79, 64
2, 24487, Note_on_c, 1, 76, 83
2, 24492, Note_off_c, 1, 78, 64
2, 24597, Note_on_c, 1, 74, 84
2, 24617, Note_off_c, 1, 76, 64
2, 24710, Note_on_c, 1, 73, 92
2, 24765, Note_off_c, 1, 74, 64
2, 24837, Note_on_c, 1, 71, 77
2, 24865, Note_off_c, 1, 73, 64
2, 24972, Note_on_c, 1, 73, 112
2, 24992, Note_off_c, 1, 71, 64
2, 25077, Note_on_c, 1, 74, 83
2, 25125, Note_off_c, 1, 73, 64
2, 25202, Note_on_c, 1, 73, 62
2, 25235, Note_off_c, 1, 74, 64
2, 25317, Note_on_c, 1, 69, 70
2, 25342, Note_off_c, 1, 73, 64
2, 25447, Note_on_c, 1, 74, 112
2, 25472, Note_off_c, 1, 69, 64
2, 25515, Note_off_c, 1, 74, 64
2, 25917, Note_on_c, 1, 79, 105
2, 26027, Note_on_c, 1, 81, 94
2, 26060, Note_off_c, 1, 79, 64
2, 26162, Note_on_c, 1, 79, 56
2, 26215, Note_off_c, 1, 81, 64
2, 26265, Note_on_c, 1, 76, 61
2, 26292, Note_off_c, 1, 79, 64
2, 26392, Note_on_c, 1, 79, 108
2, 26412, Note_off_c, 1, 76, 64
2, 26512, Note_on_c, 1, 78, 86
2, 26557, Note_off_c, 1, 79, 64
2, 26635, Note_on_c, 1, 76, 78
2, 26652, Note_off_c, 1, 78, 64
2, 26750, Note_on_c, 1, 74, 83
2, 26772, Note_off_c, 1, 76, 64
2, 26877, Note_on_c, 1, 73, 115
2, 26897, Note_off_c, 1, 74, 64
2, 26992, Note_on_c, 1, 74, 79
2, 27020, Note_off_c, 1, 73, 64
2, 27117, Note_on_c, 1, 73, 73
2, 27170, Note_off_c, 1, 74, 64
2, 27230, Note_on_c, 1, 69, 64
2, 27247, Note_off_c, 1, 73, 64
2, 27357, Note_on_c, 1, 74, 108
2, 27377, Note_off_c, 1, 69, 64
2, 27445, Note_off_c, 1, 74, 64
2, 27847, Note_on_c, 1, 79, 108
2, 27970, Note_on_c, 1, 81, 86
2, 27992, Note_off_c, 1, 79, 64
2, 28087, Note_on_c, 1, 79, 65
2, 28140, Note_off_c, 1, 81, 64
2, 28192, Note_on_c, 1, 76, 67
2, 28220, Note_off_c, 1, 79, 64
2, 28327, Note_on_c, 1, 79, 108
2, 28347, Note_off_c, 1, 76, 64
2, 28432, Note_on_c, 1, 78, 94
2, 28490, Note_off_c, 1, 79, 64
2, 28560, Note_on_c, 1, 76, 61
2, 28567, Note_off_c, 1, 78, 64
2, 28675, Note_on_c, 1, 74, 72
2, 28687, Note_off_c, 1, 76, 64
2, 28807, Note_on_c, 1, 73, 124
2, 28825, Note_off_c, 1, 74, 64
2, 28925, Note_on_c, 1, 76, 97
2, 28950, Note_off_c, 1, 73, 64
2, 29055, Note_on_c, 1, 73, 61
2, 29157, Note_off_c, 1, 76, 64
2, 29162, Note_on_c, 1, 69, 69
2, 29192, Note_off_c, 1, 73, 64
2, 29297, Note_on_c, 1, 78, 119
2, 29307, Note_off_c, 1, 69, 64
2, 29410, Note_on_c, 1, 81, 83
2, 29435, Note_off_c, 1, 78, 64
2, 29532, Note_on_c, 1, 78, 58
2, 29652, Note_on_c, 1, 74, 73
2, 29675, Note_off_c, 1, 81, 64
2, 29675, Note_off_c, 1, 78, 64
2, 29767, Note_on_c, 1, 73, 105
2, 29782, Note_off_c, 1, 74, 64
2, 29872, Note_on_c, 1, 76, 84
2, 29912, Note_off_c, 1, 73, 64
2, 30007, Note_on_c, 1, 73, 59
2, 30115, Note_on_c, 1, 69, 60
2, 30137, Note_off_c, 1, 73, 64
2, 30147, Note_off_c, 1, 76, 64
2, 30250, Note_on_c, 1, 78, 119
2, 30252, Note_off_c, 1, 69, 64
2, 30367, Note_on_c, 1, 81, 83
2, 30387, Note_off_c, 1, 78, 64
2, 30487, Note_on_c, 1, 78, 69
2, 30567, Note_off_c, 1, 81, 64
2, 30590, Note_on_c, 1, 74, 78
2, 30617, Note_off_c, 1, 78, 64
2, 30685, Note_off_c, 1, 74, 64
2, 30720, Note_on_c, 1, 76, 94
2, 30720, Note_on_c, 1, 73, 94
2, 30771, Note_off_c, 1, 73, 64
2, 30771, Note_off_c, 1, 76, 64
2, 31009, Note_on_c, 1, 81, 90
2, 31009, Note_on_c, 1, 76, 97
2, 31009, Note_on_c, 1, 73, 84
2, 31034, Note_off_c, 1, 76, 64
2, 31039, Note_off_c, 1, 73, 64
2, 31046, Note_off_c, 1, 81, 64
2, 31264, Note_on_c, 1, 81, 97
2, 31264, Note_on_c, 1, 73, 105
2, 31264, Note_on_c, 1, 76, 108
2, 31289, Note_off_c, 1, 76, 64
2, 31294, Note_off_c, 1, 73, 64
2, 31304, Note_off_c, 1, 81, 64
2, 31517, Note_on_c, 1, 76, 108
2, 31517, Note_on_c, 1, 73, 105
2, 31517, Note_on_c, 1, 81, 97
2, 31547, Note_off_c, 1, 73, 64
2, 31547, Note_off_c, 1, 76, 64
2, 31552, Note_off_c, 1, 81, 64
2, 31791, Note_on_c, 1, 76, 119
2, 31791, Note_on_c, 1, 73, 112
2, 31791, Note_on_c, 1, 81, 102
2, 31818, Note_off_c, 1, 73, 64
2, 31823, Note_off_c, 1, 76, 64
2, 31871, Note_off_c, 1, 81, 64
2, 32100, Note_on_c, 1, 74, 71
2, 32137, Note_on_c, 1, 73, 79
2, 32233, Note_on_c, 1, 71, 64
2, 32317, Note_off_c, 1, 73, 64
2, 32320, Note_off_c, 1, 74, 64
2, 32392, Note_on_c, 1, 73, 71
2, 32413, Note_off_c, 1, 71, 64
2, 32507, Note_on_c, 1, 74, 75
2, 32552, Note_off_c, 1, 73, 64
2, 32607, Note_off_c, 1, 74, 64
2, 32650, Note_on_c, 1, 75, 80
2, 32882, Note_on_c, 1, 76, 63
2, 32925, Note_off_c, 1, 75, 64
2, 32954, Note_off_c, 1, 76, 64
2, 33355, Note_on_c, 1, 76, 60
2, 33390, Note_off_c, 1, 76, 64
2, 33607, Note_on_c, 1, 81, 73
2, 33862, Note_on_c, 1, 80, 52
2, 33885, Note_off_c, 1, 81, 64
2, 34102, Note_on_c, 1, 78, 52
2, 34137, Note_off_c, 1, 80, 64
2, 34327, Note_on_c, 1, 76, 59
2, 34342, Note_off_c, 1, 78, 64
2, 34565, Note_on_c, 1, 73, 57
2, 34577, Note_off_c, 1, 76, 64
2, 34807, Note_on_c, 1, 74, 51
2, 34840, Note_off_c, 1, 73, 64
2, 34870, Note_off_c, 1, 74, 64
2, 35305, Note_on_c, 1, 74, 68
2, 35350, Note_off_c, 1, 74, 64
2, 35542, Note_on_c, 1, 76, 73
2, 35787, Note_on_c, 1, 74, 61
2, 35805, Note_off_c, 1, 76, 64
2, 36027, Note_on_c, 1, 73, 49
2, 36037, Note_off_c, 1, 74, 64
2, 36262, Note_on_c, 1, 71, 48
2, 36285, Note_off_c, 1, 73, 64
2, 36497, Note_on_c, 1, 68, 79
2, 36502, Note_off_c, 1, 71, 64
2, 36747, Note_on_c, 1, 69, 63
2, 36777, Note_off_c, 1, 68, 64
2, 36847, Note_off_c, 1, 69, 64
2, 37202, Note_on_c, 1, 71, 68
2, 37247, Note_off_c, 1, 71, 64
2, 37460, Note_on_c, 1, 72, 90
2, 37700, Note_on_c, 1, 73, 55
2, 37735, Note_off_c, 1, 72, 64
2, 37860, Note_off_c, 1, 73, 64
2, 38172, Note_on_c, 1, 76, 67
2, 38287, Note_on_c, 1, 74, 74
2, 38302, Note_off_c, 1, 76, 64
2, 38335, Note_off_c, 1, 74, 64
2, 38440, Note_on_c, 1, 73, 83
2, 39122, Note_on_c, 1, 74, 59
2, 39162, Note_off_c, 1, 73, 64
2, 39245, Note_on_c, 1, 73, 62
2, 39275, Note_off_c, 1, 74, 64
2, 39372, Note_on_c, 1, 71, 65
2, 39390, Note_off_c, 1, 73, 64
2, 39435, Note_off_c, 1, 71, 64
2, 39607, Note_on_c, 1, 73, 64
2, 39660, Note_off_c, 1, 73, 64
2, 39842, Note_on_c, 1, 74, 61
2, 39900, Note_off_c, 1, 74, 64
2, 40092, Note_on_c, 1, 75, 62
2, 40130, Note_off_c, 1, 75, 64
2, 40327, Note_on_c, 1, 75, 75
2, 40587, Note_on_c, 1, 76, 69
2, 40640, Note_off_c, 1, 75, 64
2, 40705, Note_off_c, 1, 76, 64
2, 41055, Note_on_c, 1, 78, 73
2, 41110, Note_on_c, 1, 76, 66
2, 41150, Note_off_c, 1, 78, 64
2, 41167, Note_on_c, 1, 75, 69
2, 41192, Note_off_c, 1, 76, 64
2, 41225, Note_on_c, 1, 76, 74
2, 41267, Note_off_c, 1, 75, 64
2, 41297, Note_on_c, 1, 81, 83
2, 41320, Note_off_c, 1, 76, 64
2, 41527, Note_on_c, 1, 80, 52
2, 41580, Note_off_c, 1, 81, 64
2, 41762, Note_on_c, 1, 78, 63
2, 41825, Note_off_c, 1, 80, 64
2, 41987, Note_on_c, 1, 76, 58
2, 42017, Note_off_c, 1, 78, 64
2, 42235, Note_on_c, 1, 73, 72
2, 42250, Note_off_c, 1, 76, 64
2, 42487, Note_on_c, 1, 74, 49
2, 42530, Note_off_c, 1, 73, 64
2, 42655, Note_off_c, 1, 74, 64
2, 42967, Note_on_c, 1, 76, 83
2, 43025, Note_on_c, 1, 74, 75
2, 43057, Note_off_c, 1, 76, 64
2, 43085, Note_on_c, 1, 73, 74
2, 43110, Note_off_c, 1, 74, 64
2, 43145, Note_on_c, 1, 74, 77
2, 43162, Note_off_c, 1, 73, 64
2, 43222, Note_on_c, 1, 76, 83
2, 43245, Note_off_c, 1, 74, 64
2, 43467, Note_on_c, 1, 74, 64
2, 43482, Note_off_c, 1, 76, 64
2, 43692, Note_on_c, 1, 73, 66
2, 43702, Note_off_c, 1, 74, 64
2, 43932, Note_on_c, 1, 71, 57
2, 43962, Note_off_c, 1, 73, 64
2, 44167, Note_off_c, 1, 71, 64
2, 44167, Note_on_c, 1, 73, 75
2, 44532, Note_on_c, 1, 69, 70
2, 44552, Note_off_c, 1, 73, 64
2, 44625, Note_on_c, 1, 66, 73
2, 44642, Note_off_c, 1, 69, 64
2, 44992, Note_on_c, 1, 71, 68
2, 45027, Note_off_c, 1, 66, 64
2, 45107, Note_on_c, 1, 69, 84
2, 45132, Note_off_c, 1, 71, 64
2, 45445, Note_off_c, 1, 69, 64
2, 45567, Note_on_c, 1, 68, 84
2, 45622, Note_on_c, 1, 69, 72
2, 45635, Note_off_c, 1, 68, 64
2, 45680, Note_off_c, 1, 69, 64
2, 45680, Note_on_c, 1, 68, 72
2, 45712, Note_on_c, 1, 69, 72
2, 45717, Note_off_c, 1, 68, 64
2, 45760, Note_on_c, 1, 68, 72
2, 45790, Note_off_c, 1, 69, 64
2, 45820, Note_on_c, 1, 66, 74
2, 45832, Note_off_c, 1, 68, 64
2, 45930, Note_on_c, 1, 68, 74
2, 45937, Note_off_c, 1, 66, 64
2, 46047, Note_off_c, 1, 68, 64
2, 46055, Note_on_c, 1, 69, 76
2, 46180, Note_on_c, 1, 76, 70
2, 46305, Note_on_c, 1, 75, 66
2, 46317, Note_off_c, 1, 69, 64
2, 46332, Note_off_c, 1, 76, 64
2, 46420, Note_on_c, 1, 76, 66
2, 46422, Note_off_c, 1, 75, 64
2, 46545, Note_on_c, 1, 78, 83
2, 46567, Note_off_c, 1, 76, 64
2, 46670, Note_on_c, 1, 76, 77
2, 46712, Note_off_c, 1, 78, 64
2, 46802, Note_on_c, 1, 75, 90
2, 46832, Note_off_c, 1, 76, 64
2, 46912, Note_on_c, 1, 76, 79
2, 46957, Note_off_c, 1, 75, 64
2, 47042, Note_on_c, 1, 74, 75
2, 47065, Note_off_c, 1, 76, 64
2, 47167, Note_on_c, 1, 76, 75
2, 47187, Note_off_c, 1, 74, 64
2, 47292, Note_on_c, 1, 74, 79
2, 47312, Note_off_c, 1, 76, 64
2, 47407, Note_on_c, 1, 76, 66
2, 47432, Note_off_c, 1, 74, 64
2, 47537, Note_on_c, 1, 74, 79
2, 47557, Note_off_c, 1, 76, 64
2, 47650, Note_on_c, 1, 76, 62
2, 47675, Note_off_c, 1, 74, 64
2, 47777, Note_on_c, 1, 74, 70
2, 47797, Note_off_c, 1, 76, 64
2, 47902, Note_on_c, 1, 76, 59
2, 47917, Note_off_c, 1, 74, 64
2, 48027, Note_on_c, 1, 73, 83
2, 48060, Note_off_c, 1, 76, 64
2, 48127, Note_on_c, 1, 76, 63
2, 48142, Note_off_c, 1, 73, 64
2, 48265, Note_on_c, 1, 75, 73
2, 48292, Note_off_c, 1, 76, 64
2, 48375, Note_on_c, 1, 76, 69
2, 48387, Note_off_c, 1, 75, 64
2, 48502, Note_on_c, 1, 78, 97
2, 48520, Note_off_c, 1, 76, 64
2, 48612, Note_on_c, 1, 76, 83
2, 48650, Note_off_c, 1, 78, 64
2, 48742, Note_on_c, 1, 75, 78
2, 48785, Note_off_c, 1, 76, 64
2, 48860, Note_on_c, 1, 76, 61
2, 48885, Note_off_c, 1, 75, 64
2, 48990, Note_on_c, 1, 74, 90
2, 49010, Note_off_c, 1, 76, 64
2, 49097, Note_on_c, 1, 76, 60
2, 49120, Note_off_c, 1, 74, 64
2, 49227, Note_on_c, 1, 74, 86
2, 49247, Note_off_c, 1, 76, 64
2, 49342, Note_on_c, 1, 76, 79
2, 49362, Note_off_c, 1, 74, 64
2, 49472, Note_on_c, 1, 74, 83
2, 49482, Note_off_c, 1, 76, 64
2, 49577, Note_on_c, 1, 76, 78
2, 49600, Note_off_c, 1, 74, 64
2, 49702, Note_on_c, 1, 74, 83
2, 49720, Note_off_c, 1, 76, 64
2, 49812, Note_on_c, 1, 76, 74
2, 49832, Note_off_c, 1, 74, 64
2, 49947, Note_on_c, 1, 73, 64
2, 49990, Note_off_c, 1, 76, 64
2, 50122, Note_off_c, 1, 73, 64
2, 50642, Note_on_c, 1, 81, 79
2, 50702, Note_off_c, 1, 81, 64
2, 50892, Note_on_c, 1, 83, 99
2, 50942, Note_off_c, 1, 83, 64
2, 51137, Note_on_c, 1, 81, 84
2, 51190, Note_off_c, 1, 81, 64
2, 51387, Note_on_c, 1, 80, 74
2, 51445, Note_off_c, 1, 80, 64
2, 51610, Note_on_c, 1, 76, 72
2, 51670, Note_off_c, 1, 76, 64
2, 51855, Note_on_c, 1, 81, 79
2, 52045, Note_off_c, 1, 81, 64
2, 52562, Note_on_c, 1, 45, 96
2, 52637, Note_off_c, 1, 45, 64
2, 52817, Note_on_c, 1, 47, 106
2, 52890, Note_off_c, 1, 47, 64
2, 53052, Note_on_c, 1, 45, 100
2, 53110, Note_off_c, 1, 45, 64
2, 53282, Note_on_c, 1, 44, 94
2, 53352, Note_off_c, 1, 44, 64
2, 53522, Note_on_c, 1, 40, 84
2, 53585, Note_off_c, 1, 40, 64
2, 53762, Note_on_c, 1, 45, 100
2, 53915, Note_off_c, 1, 45, 64
2, 54232, Note_on_c, 1, 76, 52
2, 54700, Note_on_c, 1, 74, 55
2, 54722, Note_off_c, 1, 76, 64
2, 55175, Note_on_c, 1, 73, 53
2, 55202, Note_off_c, 1, 74, 64
2, 55517, Note_off_c, 1, 73, 64
2, 55687, Note_on_c, 1, 78, 59
2, 55937, Note_on_c, 1, 80, 66
2, 55947, Note_off_c, 1, 78, 64
2, 56025, Note_on_c, 1, 78, 54
2, 56060, Note_off_c, 1, 80, 64
2, 56105, Note_on_c, 1, 76, 54
2, 56117, Note_off_c, 1, 78, 64
2, 56195, Note_on_c, 1, 78, 79
2, 56222, Note_off_c, 1, 76, 64
2, 56267, Note_off_c, 1, 78, 64
2, 56432, Note_on_c, 1, 80, 69
2, 56467, Note_off_c, 1, 80, 64
2, 56667, Note_on_c, 1, 83, 73
2, 56902, Note_on_c, 1, 81, 62
2, 56917, Note_off_c, 1, 83, 64
2, 56960, Note_off_c, 1, 81, 64
2, 57132, Note_on_c, 1, 80, 74
2, 57175, Note_off_c, 1, 80, 64
2, 57377, Note_on_c, 1, 78, 67
2, 57420, Note_off_c, 1, 78, 64
2, 57602, Note_on_c, 1, 76, 66
2, 57660, Note_off_c, 1, 76, 64
2, 58072, Note_on_c, 1, 76, 99
2, 58557, Note_on_c, 1, 74, 83
2, 58572, Note_off_c, 1, 76, 64
2, 59037, Note_on_c, 1, 73, 83
2, 59067, Note_off_c, 1, 74, 64
2, 59507, Note_on_c, 1, 71, 84
2, 59517, Note_off_c, 1, 73, 64
2, 59887, Note_on_c, 1, 78, 102
2, 59917, Note_off_c, 1, 71, 64
2, 60007, Note_on_c, 1, 76, 88
2, 60045, Note_off_c, 1, 78, 64
2, 60127, Note_on_c, 1, 74, 83
2, 60142, Note_off_c, 1, 76, 64
2, 60242, Note_on_c, 1, 73, 94
2, 60257, Note_off_c, 1, 74, 64
2, 60352, Note_on_c, 1, 71, 75
2, 60387, Note_off_c, 1, 73, 64
2, 60482, Note_on_c, 1, 69, 94
2, 60502, Note_off_c, 1, 71, 64
2, 60847, Note_off_c, 1, 69, 64
2, 60947, Note_on_c, 1, 71, 92
2, 60997, Note_on_c, 1, 73, 105
2, 61005, Note_off_c, 1, 71, 64
2, 61045, Note_off_c, 1, 73, 64
2, 61045, Note_on_c, 1, 71, 73
2, 61077, Note_on_c, 1, 73, 108
2, 61092, Note_off_c, 1, 71, 64
2, 61130, Note_off_c, 1, 73, 64
2, 61130, Note_on_c, 1, 71, 84
2, 61190, Note_on_c, 1, 69, 86
2, 61202, Note_off_c, 1, 71, 64
2, 61297, Note_on_c, 1, 71, 75
2, 61317, Note_off_c, 1, 69, 64
2, 61432, Note_on_c, 1, 69, 83
2, 61460, Note_off_c, 1, 71, 64
2, 61495, Note_off_c, 1, 69, 64
2, 61907, Note_on_c, 1, 76, 56
2, 62392, Note_on_c, 1, 74, 55
2, 62412, Note_off_c, 1, 76, 64
2, 62877, Note_on_c, 1, 73, 65
2, 62902, Note_off_c, 1, 74, 64
2, 63302, Note_off_c, 1, 73, 64
2, 63355, Note_on_c, 1, 78, 51
2, 63590, Note_on_c, 1, 80, 52
2, 63612, Note_off_c, 1, 78, 64
2, 63660, Note_on_c, 1, 78, 66
2, 63697, Note_off_c, 1, 80, 64
2, 63735, Note_on_c, 1, 76, 55
2, 63750, Note_off_c, 1, 78, 64
2, 63842, Note_on_c, 1, 78, 37
2, 63875, Note_off_c, 1, 76, 64
2, 64082, Note_on_c, 1, 80, 61
2, 64107, Note_off_c, 1, 78, 64
2, 64140, Note_off_c, 1, 80, 64
2, 64325, Note_on_c, 1, 83, 70
2, 64562, Note_on_c, 1, 81, 53
2, 64567, Note_off_c, 1, 83, 64
2, 64630, Note_off_c, 1, 81, 64
2, 64800, Note_on_c, 1, 80, 74
2, 64837, Note_off_c, 1, 80, 64
2, 65042, Note_on_c, 1, 78, 62
2, 65080, Note_off_c, 1, 78, 64
2, 65280, Note_on_c, 1, 76, 66
2, 65335, Note_off_c, 1, 76, 64
2, 65747, Note_on_c, 1, 76, 97
2, 66230, Note_on_c, 1, 74, 90
2, 66250, Note_off_c, 1, 76, 64
2, 66710, Note_on_c, 1, 73, 79
2, 66732, Note_off_c, 1, 74, 64
2, 67207, Note_on_c, 1, 71, 88
2, 67215, Note_off_c, 1, 73, 64
2, 67565, Note_on_c, 1, 78, 97
2, 67595, Note_off_c, 1, 71, 64
2, 67692, Note_on_c, 1, 76, 99
2, 67725, Note_off_c, 1, 78, 64
2, 67802, Note_on_c, 1, 74, 86
2, 67822, Note_off_c, 1, 76, 64
2, 67927, Note_on_c, 1, 73, 88
2, 67942, Note_off_c, 1, 74, 64
2, 68037, Note_on_c, 1, 71, 81
2, 68072, Note_off_c, 1, 73, 64
2, 68185, Note_on_c, 1, 69, 92
2, 68197, Note_off_c, 1, 71, 64
2, 68595, Note_off_c, 1, 69, 64
2, 68637, Note_on_c, 1, 71, 100
2, 68687, Note_on_c, 1, 73, 97
2, 68695, Note_off_c, 1, 71, 64
2, 68730, Note_off_c, 1, 73, 64
2, 68730, Note_on_c, 1, 71, 95
2, 68772, Note_on_c, 1, 73, 93
2, 68777, Note_off_c, 1, 71, 64
2, 68820, Note_on_c, 1, 71, 91
2, 68825, Note_off_c, 1, 73, 64
2, 68872, Note_on_c, 1, 69, 89
2, 68890, Note_off_c, 1, 71, 64
2, 68987, Note_on_c, 1, 71, 91
2, 69005, Note_off_c, 1, 69, 64
2, 69127, Note_off_c, 1, 71, 64
2, 69132, Note_on_c, 1, 69, 98
2, 69257, Note_on_c, 1, 64, 73
2, 69272, Note_off_c, 1, 69, 64
2, 69377, Note_on_c, 1, 69, 82
2, 69407, Note_off_c, 1, 64, 64
2, 69490, Note_on_c, 1, 73, 86
2, 69555, Note_off_c, 1, 69, 64
2, 69622, Note_on_c, 1, 76, 97
2, 69640, Note_off_c, 1, 73, 64
2, 69735, Note_on_c, 1, 73, 84
2, 69775, Note_off_c, 1, 76, 64
2, 69852, Note_on_c, 1, 74, 75
2, 69900, Note_off_c, 1, 73, 64
2, 69967, Note_on_c, 1, 71, 73
2, 70040, Note_off_c, 1, 74, 64
2, 70087, Note_off_c, 1, 71, 64
2, 70090, Note_on_c, 1, 69, 92
2, 70197, Note_on_c, 1, 64, 77
2, 70237, Note_off_c, 1, 69, 64
2, 70330, Note_on_c, 1, 69, 86
2, 70332, Note_off_c, 1, 64, 64
2, 70442, Note_on_c, 1, 73, 97
2, 70475, Note_off_c, 1, 69, 64
2, 70567, Note_on_c, 1, 76, 97
2, 70592, Note_off_c, 1, 73, 64
2, 70690, Note_on_c, 1, 73, 90
2, 70720, Note_off_c, 1, 76, 64
2, 70807, Note_on_c, 1, 74, 75
2, 70840, Note_off_c, 1, 73, 64
2, 70922, Note_on_c, 1, 71, 80
2, 70962, Note_off_c, 1, 74, 64
2, 71060, Note_on_c, 1, 69, 95
2, 71070, Note_off_c, 1, 71, 64
2, 71150, Note_off_c, 1, 69, 64
2, 71530, Note_on_c, 1, 74, 94
2, 71530, Note_on_c, 1, 71, 86
2, 71530, Note_on_c, 1, 80, 108
2, 71627, Note_off_c, 1, 74, 64
2, 71647, Note_off_c, 1, 71, 64
2, 71647, Note_off_c, 1, 80, 64
2, 72039, Note_on_c, 1, 73, 126
2, 72039, Note_on_c, 1, 81, 126
2, 72039, Note_on_c, 1, 69, 126
2, 72371, Note_off_c, 1, 81, 64
2, 72374, Note_off_c, 1, 69, 64
2, 72379, Note_off_c, 1, 73, 64
2, 72555, Control_c, 1, 64, 127
2, 72555, Control_c, 1, 64, 127
2, 72560, Control_c, 1, 64, 127
2, 72960, Note_on_c, 1, 66, 69
2, 72960, Note_on_c, 1, 74, 69
2, 72962, Control_c, 1, 64, 0
2, 72962, Control_c, 1, 64, 0
2, 72962, Control_c, 1, 64, 0
2, 72995, Control_c, 1, 64, 127
2, 72995, Control_c, 1, 64, 127
2, 72995, Control_c, 1, 64, 127
2, 73122, Note_off_c, 1, 66, 64
2, 73142, Note_off_c, 1, 74, 64
2, 73200, Note_on_c, 1, 64, 44
2, 73200, Note_on_c, 1, 73, 60
2, 73240, Note_off_c, 1, 64, 64
2, 73253, Note_off_c, 1, 73, 64
2, 73285, Control_c, 1, 64, 0
2, 73285, Control_c, 1, 64, 0
2, 73285, Control_c, 1, 64, 0
2, 73405, Control_c, 1, 64, 127
2, 73407, Control_c, 1, 64, 127
2, 73407, Control_c, 1, 64, 127
2, 73417, Note_on_c, 1, 73, 66
2, 73425, Note_on_c, 1, 64, 66
2, 73480, Note_off_c, 1, 64, 64
2, 73505, Note_off_c, 1, 73, 64
2, 73655, Note_on_c, 1, 71, 57
2, 73665, Note_on_c, 1, 62, 57
2, 73697, Control_c, 1, 64, 0
2, 73700, Control_c, 1, 64, 0
2, 73700, Control_c, 1, 64, 0
2, 73720, Note_off_c, 1, 71, 64
2, 73727, Note_off_c, 1, 62, 64
2, 73900, Note_on_c, 1, 71, 60
2, 73900, Control_c, 1, 64, 127
2, 73900, Control_c, 1, 64, 127
2, 73900, Control_c, 1, 64, 127
2, 73900, Note_on_c, 1, 62, 43
2, 73975, Note_off_c, 1, 62, 64
2, 73980, Note_off_c, 1, 71, 64
2, 74160, Note_on_c, 1, 69, 46
2, 74160, Note_on_c, 1, 61, 44
2, 74185, Control_c, 1, 64, 0
2, 74185, Control_c, 1, 64, 0
2, 74185, Control_c, 1, 64, 0
2, 74202, Note_off_c, 1, 69, 64
2, 74212, Note_off_c, 1, 61, 64
2, 74392, Note_on_c, 1, 61, 55
2, 74402, Control_c, 1, 64, 127
2, 74402, Note_on_c, 1, 69, 53
2, 74407, Control_c, 1, 64, 127
2, 74407, Control_c, 1, 64, 127
2, 74465, Note_off_c, 1, 61, 64
2, 74480, Note_off_c, 1, 69, 64
2, 74637, Note_on_c, 1, 59, 42
2, 74637, Note_on_c, 1, 68, 42
2, 74695, Note_off_c, 1, 59, 64
2, 74695, Control_c, 1, 64, 0
2, 74700, Control_c, 1, 64, 0
2, 74700, Control_c, 1, 64, 0
2, 74707, Note_off_c, 1, 68, 64
2, 74897, Note_on_c, 1, 68, 66
2, 74897, Note_on_c, 1, 62, 70
2, 74902, Note_on_c, 1, 59, 64
2, 75315, Control_c, 1, 64, 127
2, 75315, Control_c, 1, 64, 127
2, 75315, Control_c, 1, 64, 127
2, 75400, Note_off_c, 1, 62, 64
2, 75405, Note_off_c, 1, 59, 64
2, 75435, Note_off_c, 1, 68, 64
2, 75832, Note_on_c, 1, 61, 42
2, 75832, Note_on_c, 1, 69, 59
2, 75917, Control_c, 1, 64, 0
2, 75917, Control_c, 1, 64, 0
2, 75917, Control_c, 1, 64, 0
2, 76172, Note_off_c, 1, 61, 64
2, 76212, Note_off_c, 1, 69, 64
2, 76800, Note_on_c, 1, 66, 102
2, 76800, Note_on_c, 1, 74, 108
2, 76800, Note_on_c, 1, 69, 86
2, 76802, Control_c, 1, 64, 127
2, 76802, Control_c, 1, 64, 127
2, 76802, Control_c, 1, 64, 127
2, 77108, Note_off_c, 1, 66, 64
2, 77112, Note_off_c, 1, 69, 64
2, 77130, Note_off_c, 1, 74, 64
2, 77305, Control_c, 1, 64, 0
2, 77305, Control_c, 1, 64, 0
2, 77305, Control_c, 1, 64, 0
2, 77737, Note_on_c, 1, 79, 108
2, 77850, Note_on_c, 1, 78, 86
2, 77887, Note_off_c, 1, 79, 64
2, 77962, Note_on_c, 1, 76, 69
2, 77982, Note_off_c, 1, 78, 64
2, 78075, Note_on_c, 1, 78, 72
2, 78115, Note_off_c, 1, 76, 64
2, 78212, Note_off_c, 1, 78, 64
2, 78212, Note_on_c, 1, 81, 108
2, 78320, Note_on_c, 1, 79, 92
2, 78362, Note_off_c, 1, 81, 64
2, 78450, Note_on_c, 1, 78, 88
2, 78495, Note_off_c, 1, 79, 64
2, 78580, Note_on_c, 1, 79, 75
2, 78602, Note_off_c, 1, 78, 64
2, 78717, Note_on_c, 1, 81, 112
2, 78737, Note_off_c, 1, 79, 64
2, 78832, Note_off_c, 1, 81, 64
2, 79682, Note_on_c, 1, 81, 52
2, 79740, Note_off_c, 1, 81, 64
2, 79925, Note_on_c, 1, 83, 54
2, 79980, Note_off_c, 1, 83, 64
2, 80167, Note_on_c, 1, 85, 56
2, 80225, Note_off_c, 1, 85, 64
2, 80405, Note_on_c, 1, 86, 64
2, 80452, Note_off_c, 1, 86, 64
2, 80647, Note_on_c, 1, 81, 54
2, 81127, Note_on_c, 1, 78, 34
2, 81170, Note_off_c, 1, 81, 64
2, 81305, Note_off_c, 1, 78, 64
2, 81602, Note_on_c, 1, 81, 55
2, 81722, Note_on_c, 1, 79, 39
2, 81770, Note_off_c, 1, 81, 64
2, 81847, Note_on_c, 1, 78, 47
2, 81880, Note_off_c, 1, 79, 64
2, 81952, Note_on_c, 1, 79, 60
2, 81977, Note_off_c, 1, 78, 64
2, 82087, Note_on_c, 1, 81, 59
2, 82122, Note_off_c, 1, 79, 64
2, 82315, Note_on_c, 1, 79, 66
2, 82332, Note_off_c, 1, 81, 64
2, 82357, Note_off_c, 1, 79, 64
2, 82562, Note_on_c, 1, 77, 63
2, 82817, Note_on_c, 1, 78, 59
2, 82847, Note_off_c, 1, 77, 64
2, 82885, Note_off_c, 1, 78, 64
2, 83517, Note_on_c, 1, 79, 102
2, 83632, Note_on_c, 1, 78, 88
2, 83650, Note_off_c, 1, 79, 64
2, 83757, Note_on_c, 1, 76, 59
2, 83772, Note_off_c, 1, 78, 64
2, 83872, Note_on_c, 1, 78, 90
2, 83912, Note_off_c, 1, 76, 64
2, 83997, Note_off_c, 1, 78, 64
2, 83997, Note_on_c, 1, 81, 112
2, 84122, Note_on_c, 1, 79, 88
2, 84162, Note_off_c, 1, 81, 64
2, 84242, Note_on_c, 1, 78, 91
2, 84267, Note_off_c, 1, 79, 64
2, 84347, Note_on_c, 1, 79, 102
2, 84365, Note_off_c, 1, 78, 64
2, 84482, Note_on_c, 1, 81, 112
2, 84510, Note_off_c, 1, 79, 64
2, 84567, Note_off_c, 1, 81, 64
2, 85427, Note_on_c, 1, 81, 48
2, 85472, Note_off_c, 1, 81, 64
2, 85667, Note_on_c, 1, 83, 47
2, 85712, Note_off_c, 1, 83, 64
2, 85902, Note_on_c, 1, 85, 64
2, 85955, Note_off_c, 1, 85, 64
2, 86147, Note_on_c, 1, 86, 68
2, 86192, Note_off_c, 1, 86, 64
2, 86397, Note_on_c, 1, 81, 64
2, 86867, Note_on_c, 1, 78, 46
2, 86902, Note_off_c, 1, 81, 64
2, 87087, Note_off_c, 1, 78, 64
2, 87362, Note_on_c, 1, 81, 55
2, 87482, Note_on_c, 1, 79, 62
2, 87502, Note_off_c, 1, 81, 64
2, 87587, Note_on_c, 1, 78, 55
2, 87607, Note_off_c, 1, 79, 64
2, 87690, Note_on_c, 1, 79, 57
2, 87707, Note_off_c, 1, 78, 64
2, 87817, Note_on_c, 1, 81, 78
2, 87842, Note_off_c, 1, 79, 64
2, 87932, Note_on_c, 1, 79, 48
2, 87982, Note_off_c, 1, 81, 64
2, 88045, Note_on_c, 1, 78, 54
2, 88095, Note_off_c, 1, 79, 64
2, 88160, Note_on_c, 1, 76, 65
2, 88177, Note_off_c, 1, 78, 64
2, 88265, Note_off_c, 1, 76, 64
2, 88307, Note_on_c, 1, 74, 92
2, 88405, Note_off_c, 1, 74, 64
2, 88792, Note_on_c, 1, 69, 94
2, 88910, Note_off_c, 1, 69, 64
2, 89287, Note_on_c, 1, 78, 108
2, 89360, Note_on_c, 1, 79, 83
2, 89365, Note_off_c, 1, 78, 64
2, 89412, Note_on_c, 1, 78, 74
2, 89417, Note_off_c, 1, 79, 64
2, 89465, Note_on_c, 1, 79, 77
2, 89470, Note_off_c, 1, 78, 64
2, 89510, Note_on_c, 1, 78, 88
2, 89517, Note_off_c, 1, 79, 64
2, 89552, Note_on_c, 1, 79, 83
2, 89562, Note_off_c, 1, 78, 64
2, 89595, Note_on_c, 1, 78, 92
2, 89602, Note_off_c, 1, 79, 64
2, 89642, Note_on_c, 1, 79, 79
2, 89647, Note_off_c, 1, 78, 64
2, 89687, Note_off_c, 1, 79, 64
2, 89687, Note_on_c, 1, 78, 90
2, 89737, Note_on_c, 1, 79, 90
2, 89742, Note_off_c, 1, 78, 64
2, 89777, Note_off_c, 1, 79, 64
2, 89782, Note_on_c, 1, 78, 90
2, 89902, Note_on_c, 1, 79, 84
2, 89910, Note_off_c, 1, 78, 64
2, 89955, Note_on_c, 1, 78, 99
2, 89960, Note_off_c, 1, 79, 64
2, 90012, Note_on_c, 1, 76, 90
2, 90022, Note_off_c, 1, 78, 64
2, 90100, Note_off_c, 1, 76, 64
2, 90142, Note_on_c, 1, 74, 83
2, 90190, Note_off_c, 1, 74, 64
2, 90267, Note_on_c, 1, 73, 102
2, 90317, Note_off_c, 1, 73, 64
2, 90717, Note_on_c, 1, 69, 93
2, 90767, Note_off_c, 1, 69, 64
2, 91222, Note_on_c, 1, 76, 111
2, 91667, Note_off_c, 1, 76, 64
2, 92162, Note_on_c, 1, 76, 102
2, 92202, Note_off_c, 1, 76, 64
2, 92632, Note_on_c, 1, 69, 94
2, 92710, Note_off_c, 1, 69, 64
2, 93125, Note_on_c, 1, 79, 102
2, 93190, Note_on_c, 1, 81, 90
2, 93200, Note_off_c, 1, 79, 64
2, 93242, Note_on_c, 1, 79, 78
2, 93252, Note_off_c, 1, 81, 64
2, 93297, Note_off_c, 1, 79, 64
2, 93297, Note_on_c, 1, 81, 86
2, 93342, Note_off_c, 1, 81, 64
2, 93342, Note_on_c, 1, 79, 72
2, 93387, Note_off_c, 1, 79, 64
2, 93387, Note_on_c, 1, 81, 86
2, 93430, Note_off_c, 1, 81, 64
2, 93435, Note_on_c, 1, 79, 78
2, 93482, Note_off_c, 1, 79, 64
2, 93482, Note_on_c, 1, 81, 92
2, 93527, Note_off_c, 1, 81, 64
2, 93527, Note_on_c, 1, 79, 75
2, 93570, Note_on_c, 1, 81, 97
2, 93572, Note_off_c, 1, 79, 64
2, 93612, Note_off_c, 1, 81, 64
2, 93615, Note_on_c, 1, 79, 77
2, 93665, Note_off_c, 1, 79, 64
2, 93665, Note_on_c, 1, 81, 102
2, 93702, Note_off_c, 1, 81, 64
2, 93707, Note_on_c, 1, 79, 83
2, 93745, Note_on_c, 1, 81, 102
2, 93752, Note_off_c, 1, 79, 64
2, 93790, Note_on_c, 1, 79, 97
2, 93795, Note_off_c, 1, 81, 64
2, 93842, Note_off_c, 1, 79, 64
2, 93852, Note_on_c, 1, 78, 105
2, 93912, Note_off_c, 1, 78, 64
2, 93962, Note_on_c, 1, 76, 86
2, 94030, Note_off_c, 1, 76, 64
2, 94107, Note_on_c, 1, 74, 102
2, 94172, Note_off_c, 1, 74, 64
2, 94577, Note_on_c, 1, 69, 97
2, 94652, Note_off_c, 1, 69, 64
2, 95032, Note_on_c, 1, 78, 102
2, 95505, Note_off_c, 1, 78, 64
2, 96007, Note_on_c, 1, 78, 124
2, 96127, Note_on_c, 1, 74, 84
2, 96160, Note_off_c, 1, 78, 64
2, 96247, Note_on_c, 1, 76, 92
2, 96265, Note_off_c, 1, 74, 64
2, 96377, Note_on_c, 1, 78, 97
2, 96402, Note_off_c, 1, 76, 64
2, 96482, Note_off_c, 1, 78, 64
2, 96490, Note_on_c, 1, 79, 92
2, 96612, Note_on_c, 1, 81, 92
2, 96627, Note_off_c, 1, 79, 64
2, 96717, Note_on_c, 1, 83, 102
2, 96742, Note_off_c, 1, 81, 64
2, 96832, Note_on_c, 1, 85, 102
2, 96860, Note_off_c, 1, 83, 64
2, 96965, Note_on_c, 1, 86, 119
2, 96982, Note_off_c, 1, 85, 64
2, 97082, Note_on_c, 1, 85, 78
2, 97137, Note_off_c, 1, 86, 64
2, 97197, Note_on_c, 1, 83, 70
2, 97282, Note_off_c, 1, 85, 64
2, 97307, Note_on_c, 1, 81, 97
2, 97342, Note_off_c, 1, 83, 64
2, 97440, Note_on_c, 1, 79, 77
2, 97460, Note_off_c, 1, 81, 64
2, 97552, Note_on_c, 1, 78, 97
2, 97567, Note_off_c, 1, 79, 64
2, 97667, Note_on_c, 1, 76, 90
2, 97702, Note_off_c, 1, 78, 64
2, 97775, Note_on_c, 1, 74, 62
2, 97795, Note_off_c, 1, 76, 64
2, 97905, Note_on_c, 1, 76, 119
2, 97927, Note_off_c, 1, 74, 64
2, 98020, Note_on_c, 1, 78, 102
2, 98052, Note_off_c, 1, 76, 64
2, 98142, Note_on_c, 1, 76, 67
2, 98177, Note_off_c, 1, 78, 64
2, 98262, Note_on_c, 1, 75, 102
2, 98282, Note_off_c, 1, 76, 64
2, 98392, Note_on_c, 1, 76, 86
2, 98400, Note_off_c, 1, 75, 64
2, 98510, Note_on_c, 1, 78, 73
2, 98542, Note_off_c, 1, 76, 64
2, 98620, Note_on_c, 1, 79, 86
2, 98642, Note_off_c, 1, 78, 64
2, 98735, Note_on_c, 1, 81, 94
2, 98757, Note_off_c, 1, 79, 64
2, 98870, Note_on_c, 1, 83, 115
2, 98892, Note_off_c, 1, 81, 64
2, 98977, Note_on_c, 1, 81, 83
2, 99032, Note_off_c, 1, 83, 64
2, 99090, Note_on_c, 1, 79, 90
2, 99142, Note_off_c, 1, 81, 64
2, 99210, Note_on_c, 1, 78, 108
2, 99247, Note_off_c, 1, 79, 64
2, 99330, Note_on_c, 1, 76, 84
2, 99345, Note_off_c, 1, 78, 64
2, 99450, Note_on_c, 1, 74, 86
2, 99470, Note_off_c, 1, 76, 64
2, 99585, Note_on_c, 1, 73, 92
2, 99637, Note_off_c, 1, 74, 64
2, 99695, Note_on_c, 1, 71, 75
2, 99717, Note_off_c, 1, 73, 64
2, 99840, Note_on_c, 1, 73, 119
2, 99880, Note_off_c, 1, 71, 64
2, 99940, Note_on_c, 1, 74, 81
2, 99997, Note_off_c, 1, 73, 64
2, 100077, Note_on_c, 1, 73, 75
2, 100120, Note_off_c, 1, 74, 64
2, 100177, Note_on_c, 1, 69, 59
2, 100222, Note_off_c, 1, 73, 64
2, 100327, Note_on_c, 1, 74, 108
2, 100337, Note_off_c, 1, 69, 64
2, 100415, Note_off_c, 1, 74, 64
2, 100812, Note_on_c, 1, 79, 108
2, 100937, Note_on_c, 1, 81, 86
2, 100960, Note_off_c, 1, 79, 64
2, 101065, Note_on_c, 1, 79, 62
2, 101105, Note_off_c, 1, 81, 64
2, 101170, Note_on_c, 1, 76, 77
2, 101192, Note_off_c, 1, 79, 64
2, 101297, Note_on_c, 1, 79, 105
2, 101327, Note_off_c, 1, 76, 64
2, 101415, Note_on_c, 1, 78, 88
2, 101450, Note_off_c, 1, 79, 64
2, 101527, Note_on_c, 1, 76, 64
2, 101542, Note_off_c, 1, 78, 64
2, 101640, Note_on_c, 1, 74, 66
2, 101657, Note_off_c, 1, 76, 64
2, 101770, Note_on_c, 1, 73, 119
2, 101787, Note_off_c, 1, 74, 64
2, 101882, Note_on_c, 1, 74, 86
2, 101917, Note_off_c, 1, 73, 64
2, 101997, Note_on_c, 1, 73, 65
2, 102030, Note_off_c, 1, 74, 64
2, 102110, Note_on_c, 1, 69, 74
2, 102155, Note_off_c, 1, 73, 64
2, 102245, Note_on_c, 1, 74, 108
2, 102257, Note_off_c, 1, 69, 64
2, 102350, Note_off_c, 1, 74, 64
2, 102720, Note_on_c, 1, 79, 99
2, 102835, Note_on_c, 1, 81, 83
2, 102862, Note_off_c, 1, 79, 64
2, 102950, Note_on_c, 1, 79, 66
2, 102987, Note_off_c, 1, 81, 64
2, 103067, Note_on_c, 1, 76, 70
2, 103097, Note_off_c, 1, 79, 64
2, 103212, Note_on_c, 1, 79, 97
2, 103232, Note_off_c, 1, 76, 64
2, 103327, Note_on_c, 1, 78, 90
2, 103380, Note_off_c, 1, 79, 64
2, 103445, Note_on_c, 1, 76, 72
2, 103460, Note_off_c, 1, 78, 64
2, 103552, Note_on_c, 1, 74, 73
2, 103562, Note_off_c, 1, 76, 64
2, 103682, Note_on_c, 1, 73, 119
2, 103702, Note_off_c, 1, 74, 64
2, 103797, Note_on_c, 1, 76, 97
2, 103822, Note_off_c, 1, 73, 64
2, 103920, Note_on_c, 1, 73, 84
2, 104017, Note_on_c, 1, 69, 66
2, 104037, Note_off_c, 1, 76, 64
2, 104055, Note_off_c, 1, 73, 64
2, 104155, Note_on_c, 1, 78, 119
2, 104162, Note_off_c, 1, 69, 64
2, 104255, Note_on_c, 1, 81, 84
2, 104287, Note_off_c, 1, 78, 64
2, 104395, Note_on_c, 1, 78, 84
2, 104482, Note_off_c, 1, 81, 64
2, 104497, Note_on_c, 1, 74, 69
2, 104522, Note_off_c, 1, 78, 64
2, 104605, Note_off_c, 1, 74, 64
2, 104617, Note_on_c, 1, 73, 108
2, 104730, Note_on_c, 1, 76, 83
2, 104770, Note_off_c, 1, 73, 64
2, 104877, Note_on_c, 1, 73, 52
2, 104982, Note_on_c, 1, 69, 72
2, 104995, Note_off_c, 1, 76, 64
2, 104997, Note_off_c, 1, 73, 64
2, 105112, Note_off_c, 1, 69, 64
2, 105112, Note_on_c, 1, 78, 119
2, 105227, Note_on_c, 1, 81, 79
2, 105265, Note_off_c, 1, 78, 64
2, 105352, Note_on_c, 1, 78, 83
2, 105465, Note_on_c, 1, 74, 83
2, 105467, Note_off_c, 1, 81, 64
2, 105487, Note_off_c, 1, 78, 64
2, 105560, Note_off_c, 1, 74, 64
2, 105587, Note_on_c, 1, 76, 108
2, 105595, Note_on_c, 1, 73, 86
2, 105627, Note_off_c, 1, 73, 64
2, 105630, Note_off_c, 1, 76, 64
2, 105872, Note_on_c, 1, 81, 88
2, 105872, Note_on_c, 1, 76, 102
2, 105872, Note_on_c, 1, 73, 92
2, 105902, Note_off_c, 1, 73, 64
2, 105902, Note_off_c, 1, 76, 64
2, 105910, Note_off_c, 1, 81, 64
2, 106139, Note_on_c, 1, 81, 97
2, 106139, Note_on_c, 1, 76, 108
2, 106139, Note_on_c, 1, 73, 105
2, 106162, Note_off_c, 1, 73, 64
2, 106162, Note_off_c, 1, 76, 64
2, 106174, Note_off_c, 1, 81, 64
2, 106406, Note_on_c, 1, 81, 94
2, 106406, Note_on_c, 1, 73, 97
2, 106406, Note_on_c, 1, 76, 102
2, 106431, Note_off_c, 1, 76, 64
2, 106431, Note_off_c, 1, 73, 64
2, 106436, Note_off_c, 1, 81, 64
2, 106682, Note_on_c, 1, 73, 105
2, 106682, Note_on_c, 1, 81, 102
2, 106682, Note_on_c, 1, 76, 112
2, 106714, Note_off_c, 1, 76, 64
2, 106722, Note_off_c, 1, 73, 64
2, 106742, Note_off_c, 1, 81, 64
2, 106949, Note_on_c, 1, 74, 66
2, 107000, Note_on_c, 1, 73, 67
2, 107104, Note_on_c, 1, 71, 53
2, 107121, Note_off_c, 1, 74, 64
2, 107218, Note_off_c, 1, 71, 64
2, 107221, Note_off_c, 1, 73, 64
2, 107234, Note_on_c, 1, 73, 73
2, 107384, Note_off_c, 1, 73, 64
2, 107389, Note_on_c, 1, 74, 61
2, 107494, Note_off_c, 1, 74, 64
2, 107519, Note_on_c, 1, 75, 68
2, 107762, Note_on_c, 1, 76, 56
2, 107787, Note_off_c, 1, 75, 64
2, 107815, Note_off_c, 1, 76, 64
2, 108247, Note_on_c, 1, 76, 70
2, 108290, Note_off_c, 1, 76, 64
2, 108497, Note_on_c, 1, 81, 62
2, 108757, Note_on_c, 1, 80, 55
2, 108780, Note_off_c, 1, 81, 64
2, 108970, Note_on_c, 1, 78, 53
2, 108992, Note_off_c, 1, 80, 64
2, 109190, Note_on_c, 1, 76, 66
2, 109212, Note_off_c, 1, 78, 64
2, 109437, Note_on_c, 1, 73, 72
2, 109455, Note_off_c, 1, 76, 64
2, 109687, Note_on_c, 1, 74, 54
2, 109707, Note_off_c, 1, 73, 64
2, 109740, Note_off_c, 1, 74, 64
2, 110172, Note_on_c, 1, 74, 64
2, 110215, Note_off_c, 1, 74, 64
2, 110422, Note_on_c, 1, 76, 72
2, 110662, Note_on_c, 1, 74, 57
2, 110675, Note_off_c, 1, 76, 64
2, 110895, Note_on_c, 1, 73, 55
2, 110905, Note_off_c, 1, 74, 64
2, 111112, Note_on_c, 1, 71, 41
2, 111147, Note_off_c, 1, 73, 64
2, 111342, Note_on_c, 1, 68, 67
2, 111357, Note_off_c, 1, 71, 64
2, 111580, Note_on_c, 1, 69, 56
2, 111617, Note_off_c, 1, 68, 64
2, 111645, Note_off_c, 1, 69, 64
2, 112077, Note_on_c, 1, 71, 66
2, 112115, Note_off_c, 1, 71, 64
2, 112312, Note_on_c, 1, 72, 89
2, 112562, Note_on_c, 1, 73, 51
2, 112590, Note_off_c, 1, 72, 64
2, 112650, Note_off_c, 1, 73, 64
2, 113022, Note_on_c, 1, 76, 58
2, 113152, Note_on_c, 1, 74, 64
2, 113177, Note_off_c, 1, 76, 64
2, 113230, Note_off_c, 1, 74, 64
2, 113292, Note_on_c, 1, 73, 69
2, 114002, Note_on_c, 1, 74, 61
2, 114050, Note_off_c, 1, 73, 64
2, 114122, Note_on_c, 1, 73, 64
2, 114152, Note_off_c, 1, 74, 64
2, 114247, Note_on_c, 1, 71, 66
2, 114262, Note_off_c, 1, 73, 64
2, 114315, Note_off_c, 1, 71, 64
2, 114472, Note_on_c, 1, 73, 61
2, 114542, Note_off_c, 1, 73, 64
2, 114722, Note_on_c, 1, 74, 68
2, 114777, Note_off_c, 1, 74, 64
2, 114972, Note_on_c, 1, 75, 58
2, 115025, Note_off_c, 1, 75, 64
2, 115207, Note_on_c, 1, 75, 83
2, 115462, Note_on_c, 1, 76, 63
2, 115500, Note_off_c, 1, 75, 64
2, 115547, Note_off_c, 1, 76, 64
2, 115922, Note_on_c, 1, 78, 73
2, 115975, Note_on_c, 1, 76, 69
2, 116022, Note_off_c, 1, 78, 64
2, 116032, Note_on_c, 1, 75, 68
2, 116065, Note_off_c, 1, 76, 64
2, 116092, Note_on_c, 1, 76, 69
2, 116115, Note_off_c, 1, 75, 64
2, 116172, Note_on_c, 1, 81, 77
2, 116205, Note_off_c, 1, 76, 64
2, 116407, Note_on_c, 1, 80, 50
2, 116477, Note_off_c, 1, 81, 64
2, 116647, Note_on_c, 1, 78, 66
2, 116715, Note_off_c, 1, 80, 64
2, 116877, Note_on_c, 1, 76, 59
2, 116902, Note_off_c, 1, 78, 64
2, 117122, Note_on_c, 1, 73, 69
2, 117142, Note_off_c, 1, 76, 64
2, 117355, Note_on_c, 1, 74, 47
2, 117397, Note_off_c, 1, 73, 64
2, 117440, Note_off_c, 1, 74, 64
2, 117837, Note_on_c, 1, 76, 75
2, 117905, Note_on_c, 1, 74, 66
2, 117935, Note_off_c, 1, 76, 64
2, 117945, Note_on_c, 1, 73, 68
2, 117982, Note_off_c, 1, 74, 64
2, 118007, Note_on_c, 1, 74, 73
2, 118035, Note_off_c, 1, 73, 64
2, 118072, Note_on_c, 1, 76, 78
2, 118102, Note_off_c, 1, 74, 64
2, 118312, Note_on_c, 1, 74, 57
2, 118337, Note_off_c, 1, 76, 64
2, 118552, Note_on_c, 1, 73, 68
2, 118560, Note_off_c, 1, 74, 64
2, 118797, Note_on_c, 1, 71, 59
2, 118850, Note_off_c, 1, 73, 64
2, 118912, Note_off_c, 1, 71, 64
2, 119047, Note_on_c, 1, 73, 77
2, 119420, Note_on_c, 1, 69, 70
2, 119447, Note_off_c, 1, 73, 64
2, 119527, Note_on_c, 1, 66, 83
2, 119542, Note_off_c, 1, 69, 64
2, 119897, Note_on_c, 1, 71, 65
2, 119925, Note_off_c, 1, 66, 64
2, 120007, Note_on_c, 1, 69, 83
2, 120022, Note_off_c, 1, 71, 64
2, 120330, Note_off_c, 1, 69, 64
2, 120487, Note_on_c, 1, 68, 77
2, 120535, Note_on_c, 1, 69, 73
2, 120550, Note_off_c, 1, 68, 64
2, 120592, Note_off_c, 1, 69, 64
2, 120592, Note_on_c, 1, 68, 69
2, 120627, Note_on_c, 1, 69, 69
2, 120632, Note_off_c, 1, 68, 64
2, 120682, Note_on_c, 1, 68, 68
2, 120710, Note_off_c, 1, 69, 64
2, 120740, Note_on_c, 1, 66, 66
2, 120752, Note_off_c, 1, 68, 64
2, 120847, Note_on_c, 1, 68, 68
2, 120862, Note_off_c, 1, 66, 64
2, 120970, Note_off_c, 1, 68, 64
2, 120982, Note_on_c, 1, 69, 79
2, 121097, Note_on_c, 1, 76, 75
2, 121150, Note_off_c, 1, 69, 64
2, 121220, Note_on_c, 1, 75, 62
2, 121247, Note_off_c, 1, 76, 64
2, 121340, Note_off_c, 1, 75, 64
2, 121340, Note_on_c, 1, 76, 61
2, 121465, Note_on_c, 1, 78, 80
2, 121480, Note_off_c, 1, 76, 64
2, 121587, Note_on_c, 1, 76, 64
2, 121637, Note_off_c, 1, 78, 64
2, 121707, Note_on_c, 1, 75, 53
2, 121727, Note_off_c, 1, 76, 64
2, 121825, Note_on_c, 1, 76, 59
2, 121847, Note_off_c, 1, 75, 64
2, 121942, Note_on_c, 1, 74, 69
2, 121962, Note_off_c, 1, 76, 64
2, 122057, Note_on_c, 1, 76, 64
2, 122072, Note_off_c, 1, 74, 64
2, 122177, Note_on_c, 1, 74, 57
2, 122192, Note_off_c, 1, 76, 64
2, 122287, Note_on_c, 1, 76, 63
2, 122302, Note_off_c, 1, 74, 64
2, 122417, Note_on_c, 1, 74, 49
2, 122422, Note_off_c, 1, 76, 64
2, 122522, Note_on_c, 1, 76, 55
2, 122542, Note_off_c, 1, 74, 64
2, 122642, Note_on_c, 1, 74, 48
2, 122655, Note_off_c, 1, 76, 64
2, 122750, Note_on_c, 1, 76, 55
2, 122772, Note_off_c, 1, 74, 64
2, 122882, Note_on_c, 1, 73, 59
2, 122892, Note_off_c, 1, 76, 64
2, 122992, Note_on_c, 1, 76, 71
2, 123012, Note_off_c, 1, 73, 64
2, 123120, Note_on_c, 1, 75, 59
2, 123142, Note_off_c, 1, 76, 64
2, 123220, Note_on_c, 1, 76, 68
2, 123237, Note_off_c, 1, 75, 64
2, 123352, Note_on_c, 1, 78, 57
2, 123370, Note_off_c, 1, 76, 64
2, 123467, Note_on_c, 1, 76, 66
2, 123505, Note_off_c, 1, 78, 64
2, 123607, Note_on_c, 1, 75, 62
2, 123632, Note_off_c, 1, 76, 64
2, 123705, Note_on_c, 1, 76, 71
2, 123722, Note_off_c, 1, 75, 64
2, 123835, Note_on_c, 1, 74, 59
2, 123852, Note_off_c, 1, 76, 64
2, 123947, Note_on_c, 1, 76, 66
2, 123977, Note_off_c, 1, 74, 64
2, 124077, Note_on_c, 1, 74, 55
2, 124097, Note_off_c, 1, 76, 64
2, 124182, Note_on_c, 1, 76, 62
2, 124212, Note_off_c, 1, 74, 64
2, 124322, Note_on_c, 1, 74, 53
2, 124337, Note_off_c, 1, 76, 64
2, 124432, Note_on_c, 1, 76, 60
2, 124462, Note_off_c, 1, 74, 64
2, 124562, Note_on_c, 1, 74, 46
2, 124577, Note_off_c, 1, 76, 64
2, 124675, Note_on_c, 1, 76, 51
2, 124692, Note_off_c, 1, 74, 64
2, 124812, Note_on_c, 1, 73, 48
2, 124812, Note_on_c, 1, 73, 48
2, 124865, Note_off_c, 1, 76, 64
2, 124930, Note_off_c, 1, 73, 64
2, 124930, Note_off_c, 1, 73, 64
2, 125532, Note_on_c, 1, 81, 102
2, 125575, Note_off_c, 1, 81, 64
2, 125767, Note_on_c, 1, 83, 108
2, 125810, Note_off_c, 1, 83, 64
2, 126002, Note_on_c, 1, 81, 88
2, 126055, Note_off_c, 1, 81, 64
2, 126240, Note_on_c, 1, 80, 102
2, 126290, Note_off_c, 1, 80, 64
2, 126482, Note_on_c, 1, 76, 86
2, 126530, Note_off_c, 1, 76, 64
2, 126717, Note_on_c, 1, 81, 97
2, 127067, Note_off_c, 1, 81, 64
2, 127432, Note_on_c, 1, 45, 102
2, 127500, Note_off_c, 1, 45, 64
2, 127677, Note_on_c, 1, 47, 110
2, 127725, Note_off_c, 1, 47, 64
2, 127910, Note_on_c, 1, 45, 86
2, 127960, Note_off_c, 1, 45, 64
2, 128147, Note_on_c, 1, 44, 94
2, 128192, Note_off_c, 1, 44, 64
2, 128405, Note_on_c, 1, 40, 84
2, 128455, Note_off_c, 1, 40, 64
2, 128652, Note_on_c, 1, 45, 112
2, 128880, Note_off_c, 1, 45, 64
2, 129127, Note_on_c, 1, 76, 42
2, 129587, Note_on_c, 1, 74, 49
2, 129612, Note_off_c, 1, 76, 64
2, 130067, Note_on_c, 1, 73, 51
2, 130095, Note_off_c, 1, 74, 64
2, 130347, Note_off_c, 1, 73, 64
2, 130542, Note_on_c, 1, 78, 62
2, 130787, Note_on_c, 1, 80, 64
2, 130805, Note_off_c, 1, 78, 64
2, 130865, Note_on_c, 1, 78, 59
2, 130887, Note_off_c, 1, 80, 64
2, 130932, Note_on_c, 1, 76, 57
2, 130947, Note_off_c, 1, 78, 64
2, 131037, Note_on_c, 1, 78, 59
2, 131062, Note_off_c, 1, 76, 64
2, 131095, Note_off_c, 1, 78, 64
2, 131287, Note_on_c, 1, 80, 66
2, 131322, Note_off_c, 1, 80, 64
2, 131532, Note_on_c, 1, 83, 74
2, 131777, Note_on_c, 1, 81, 62
2, 131800, Note_off_c, 1, 83, 64
2, 131852, Note_off_c, 1, 81, 64
2, 132015, Note_on_c, 1, 80, 73
2, 132067, Note_off_c, 1, 80, 64
2, 132257, Note_on_c, 1, 78, 70
2, 132295, Note_off_c, 1, 78, 64
2, 132497, Note_on_c, 1, 76, 62
2, 132560, Note_off_c, 1, 76, 64
2, 132965, Note_on_c, 1, 76, 92
2, 133425, Note_on_c, 1, 74, 78
2, 133447, Note_off_c, 1, 76, 64
2, 133922, Note_on_c, 1, 73, 79
2, 133942, Note_off_c, 1, 74, 64
2, 134397, Note_on_c, 1, 71, 79
2, 134402, Note_off_c, 1, 73, 64
2, 134767, Note_on_c, 1, 78, 94
2, 134772, Note_off_c, 1, 71, 64
2, 134897, Note_on_c, 1, 76, 92
2, 134930, Note_off_c, 1, 78, 64
2, 135012, Note_on_c, 1, 74, 84
2, 135032, Note_off_c, 1, 76, 64
2, 135137, Note_on_c, 1, 73, 78
2, 135142, Note_off_c, 1, 74, 64
2, 135252, Note_on_c, 1, 71, 69
2, 135277, Note_off_c, 1, 73, 64
2, 135377, Note_on_c, 1, 69, 83
2, 135392, Note_off_c, 1, 71, 64
2, 135732, Note_off_c, 1, 69, 64
2, 135837, Note_on_c, 1, 71, 94
2, 135887, Note_on_c, 1, 73, 94
2, 135895, Note_off_c, 1, 71, 64
2, 135930, Note_off_c, 1, 73, 64
2, 135930, Note_on_c, 1, 71, 92
2, 135977, Note_off_c, 1, 71, 64
2, 135977, Note_on_c, 1, 73, 90
2, 136022, Note_on_c, 1, 71, 88
2, 136030, Note_off_c, 1, 73, 64
2, 136082, Note_on_c, 1, 69, 86
2, 136092, Note_off_c, 1, 71, 64
2, 136195, Note_on_c, 1, 71, 82
2, 136212, Note_off_c, 1, 69, 64
2, 136330, Note_on_c, 1, 69, 83
2, 136342, Note_off_c, 1, 71, 64
2, 136435, Note_off_c, 1, 69, 64
2, 136792, Note_on_c, 1, 76, 57
2, 137265, Note_on_c, 1, 74, 45
2, 137287, Note_off_c, 1, 76, 64
2, 137760, Note_on_c, 1, 73, 51
2, 137785, Note_off_c, 1, 74, 64
2, 138095, Note_off_c, 1, 73, 64
2, 138245, Note_on_c, 1, 78, 66
2, 138495, Note_on_c, 1, 80, 68
2, 138515, Note_off_c, 1, 78, 64
2, 138562, Note_on_c, 1, 78, 53
2, 138592, Note_off_c, 1, 80, 64
2, 138632, Note_on_c, 1, 76, 68
2, 138640, Note_off_c, 1, 78, 64
2, 138722, Note_on_c, 1, 78, 71
2, 138740, Note_off_c, 1, 76, 64
2, 138775, Note_off_c, 1, 78, 64
2, 138972, Note_on_c, 1, 80, 75
2, 139005, Note_off_c, 1, 80, 64
2, 139210, Note_on_c, 1, 83, 89
2, 139462, Note_on_c, 1, 81, 79
2, 139485, Note_off_c, 1, 83, 64
2, 139530, Note_off_c, 1, 81, 64
2, 139697, Note_on_c, 1, 80, 69
2, 139735, Note_off_c, 1, 80, 64
2, 139942, Note_on_c, 1, 78, 62
2, 139977, Note_off_c, 1, 78, 64
2, 140172, Note_on_c, 1, 76, 88
2, 140242, Note_off_c, 1, 76, 64
2, 140652, Note_on_c, 1, 76, 99
2, 141130, Note_on_c, 1, 74, 84
2, 141157, Note_off_c, 1, 76, 64
2, 141592, Note_on_c, 1, 73, 82
2, 141612, Note_off_c, 1, 74, 64
2, 142082, Note_on_c, 1, 71, 97
2, 142090, Note_off_c, 1, 73, 64
2, 142450, Note_on_c, 1, 78, 97
2, 142462, Note_off_c, 1, 71, 64
2, 142577, Note_on_c, 1, 76, 75
2, 142610, Note_off_c, 1, 78, 64
2, 142682, Note_on_c, 1, 74, 79
2, 142707, Note_off_c, 1, 76, 64
2, 142810, Note_on_c, 1, 73, 86
2, 142822, Note_off_c, 1, 74, 64
2, 142905, Note_on_c, 1, 71, 89
2, 142942, Note_off_c, 1, 73, 64
2, 143040, Note_on_c, 1, 69, 97
2, 143055, Note_off_c, 1, 71, 64
2, 143410, Note_off_c, 1, 69, 64
2, 143505, Note_on_c, 1, 71, 98
2, 143550, Note_on_c, 1, 73, 97
2, 143560, Note_off_c, 1, 71, 64
2, 143595, Note_on_c, 1, 71, 95
2, 143600, Note_off_c, 1, 73, 64
2, 143642, Note_on_c, 1, 73, 93
2, 143650, Note_off_c, 1, 71, 64
2, 143685, Note_off_c, 1, 73, 64
2, 143685, Note_on_c, 1, 71, 93
2, 143747, Note_on_c, 1, 69, 93
2, 143757, Note_off_c, 1, 71, 64
2, 143847, Note_on_c, 1, 71, 95
2, 143867, Note_off_c, 1, 69, 64
2, 143977, Note_off_c, 1, 71, 64
2, 143977, Note_on_c, 1, 69, 104
2, 144105, Note_on_c, 1, 64, 71
2, 144117, Note_off_c, 1, 69, 64
2, 144202, Note_off_c, 1, 64, 64
2, 144237, Note_on_c, 1, 69, 64
2, 144337, Note_on_c, 1, 73, 73
2, 144460, Note_off_c, 1, 69, 64
2, 144477, Note_on_c, 1, 76, 88
2, 144497, Note_off_c, 1, 73, 64
2, 144587, Note_on_c, 1, 73, 66
2, 144620, Note_off_c, 1, 76, 64
2, 144715, Note_on_c, 1, 74, 88
2, 144755, Note_off_c, 1, 73, 64
2, 144840, Note_on_c, 1, 71, 77
2, 144890, Note_off_c, 1, 74, 64
2, 144962, Note_off_c, 1, 71, 64
2, 144962, Note_on_c, 1, 69, 88
2, 145097, Note_on_c, 1, 64, 75
2, 145122, Note_off_c, 1, 69, 64
2, 145212, Note_on_c, 1, 69, 77
2, 145227, Note_off_c, 1, 64, 64
2, 145332, Note_on_c, 1, 73, 86
2, 145380, Note_off_c, 1, 69, 64
2, 145465, Note_on_c, 1, 76, 91
2, 145482, Note_off_c, 1, 73, 64
2, 145577, Note_on_c, 1, 73, 73
2, 145607, Note_off_c, 1, 76, 64
2, 145690, Note_on_c, 1, 74, 91
2, 145727, Note_off_c, 1, 73, 64
2, 145812, Note_on_c, 1, 71, 86
2, 145882, Note_off_c, 1, 74, 64
2, 145947, Note_on_c, 1, 69, 98
2, 145952, Note_off_c, 1, 71, 64
2, 146007, Note_off_c, 1, 69, 64
2, 146440, Note_on_c, 1, 71, 108
2, 146440, Note_on_c, 1, 74, 108
2, 146440, Note_on_c, 1, 80, 108
2, 146503, Note_off_c, 1, 74, 64
2, 146503, Note_off_c, 1, 71, 64
2, 146538, Note_off_c, 1, 80, 64
2, 146960, Note_on_c, 1, 73, 127
2, 146960, Note_on_c, 1, 69, 127
2, 146960, Note_on_c, 1, 81, 127
2, 147265, Note_off_c, 1, 81, 64
2, 147265, Note_off_c, 1, 69, 64
2, 147265, Note_off_c, 1, 73, 64
2, 147840, Note_on_c, 1, 74, 73
2, 147840, Note_on_c, 1, 66, 73
2, 147857, Control_c, 1, 64, 127
2, 147857, Control_c, 1, 64, 127
2, 147857, Control_c, 1, 64, 127
2, 147927, Note_off_c, 1, 66, 64
2, 147982, Note_off_c, 1, 74, 64
2, 148095, Note_on_c, 1, 64, 46
2, 148095, Note_on_c, 1, 73, 53
2, 148142, Note_off_c, 1, 64, 64
2, 148152, Control_c, 1, 64, 0
2, 148152, Control_c, 1, 64, 0
2, 148152, Control_c, 1, 64, 0
2, 148168, Note_off_c, 1, 73, 64
2, 148330, Note_on_c, 1, 73, 62
2, 148332, Control_c, 1, 64, 127
2, 148332, Control_c, 1, 64, 127
2, 148332, Control_c, 1, 64, 127
2, 148355, Note_on_c, 1, 64, 62
2, 148395, Note_off_c, 1, 64, 64
2, 148400, Note_off_c, 1, 73, 64
2, 148567, Note_on_c, 1, 62, 54
2, 148567, Note_on_c, 1, 71, 45
2, 148595, Control_c, 1, 64, 0
2, 148595, Control_c, 1, 64, 0
2, 148595, Control_c, 1, 64, 0
2, 148617, Note_off_c, 1, 71, 64
2, 148617, Note_off_c, 1, 62, 64
2, 148787, Note_on_c, 1, 71, 53
2, 148792, Note_on_c, 1, 62, 53
2, 148797, Control_c, 1, 64, 127
2, 148802, Control_c, 1, 64, 127
2, 148802, Control_c, 1, 64, 127
2, 148870, Note_off_c, 1, 62, 64
2, 148912, Note_off_c, 1, 71, 64
2, 149025, Note_on_c, 1, 69, 48
2, 149032, Note_on_c, 1, 61, 48
2, 149065, Control_c, 1, 64, 0
2, 149065, Control_c, 1, 64, 0
2, 149065, Control_c, 1, 64, 0
2, 149082, Note_off_c, 1, 61, 64
2, 149095, Note_off_c, 1, 69, 64
2, 149270, Control_c, 1, 64, 127
2, 149270, Control_c, 1, 64, 127
2, 149272, Control_c, 1, 64, 127
2, 149272, Note_on_c, 1, 61, 64
2, 149272, Note_on_c, 1, 69, 64
2, 149342, Note_off_c, 1, 61, 64
2, 149367, Note_off_c, 1, 69, 64
2, 149512, Note_on_c, 1, 68, 51
2, 149527, Note_on_c, 1, 59, 51
2, 149562, Control_c, 1, 64, 0
2, 149562, Control_c, 1, 64, 0
2, 149565, Control_c, 1, 64, 0
2, 149575, Note_off_c, 1, 59, 64
2, 149575, Note_off_c, 1, 68, 64
2, 149785, Note_on_c, 1, 62, 70
2, 149785, Note_on_c, 1, 68, 55
2, 149785, Note_on_c, 1, 59, 54
2, 150205, Control_c, 1, 64, 127
2, 150205, Control_c, 1, 64, 127
2, 150205, Control_c, 1, 64, 127
2, 150470, Note_off_c, 1, 59, 64
2, 150470, Note_off_c, 1, 68, 64
2, 150470, Note_off_c, 1, 62, 64
2, 150785, Note_on_c, 1, 69, 39
2, 150785, Note_on_c, 1, 61, 39
2, 150802, Control_c, 1, 64, 0
2, 150802, Control_c, 1, 64, 0
2, 150802, Control_c, 1, 64, 0
2, 151147, Note_off_c, 1, 61, 64
2, 151158, Note_off_c, 1, 69, 64
2, 151158, End_track
3, 0, Start_track
3, 0, Title_t, "new"
3, 0, MIDI_port, 0
3, 0, Channel_prefix, 2
3, 0, Control_c, 2, 7, 107
3, 0, Control_c, 2, 10, 64
3, 0, Program_c, 2, 0
3, 1427, Control_c, 2, 64, 127
3, 1432, Control_c, 2, 64, 127
3, 1432, Control_c, 2, 64, 127
3, 1520, Control_c, 2, 64, 0
3, 1520, Control_c, 2, 64, 0
3, 1520, Control_c, 2, 64, 0
3, 1920, Note_on_c, 2, 50, 99
3, 1920, Note_on_c, 2, 38, 97
3, 1920, Note_on_c, 2, 45, 112
3, 2102, Control_c, 2, 64, 127
3, 2102, Control_c, 2, 64, 127
3, 2102, Control_c, 2, 64, 127
3, 2410, Note_off_c, 2, 50, 64
3, 2413, Note_off_c, 2, 38, 64
3, 2413, Note_off_c, 2, 45, 64
3, 2450, Control_c, 2, 64, 0
3, 2450, Control_c, 2, 64, 0
3, 2450, Control_c, 2, 64, 0
3, 2920, Note_on_c, 2, 62, 69
3, 2920, Note_on_c, 2, 66, 69
3, 3377, Note_on_c, 2, 64, 84
3, 3377, Note_on_c, 2, 67, 84
3, 3405, Note_off_c, 2, 62, 64
3, 3410, Note_off_c, 2, 66, 64
3, 3862, Note_on_c, 2, 66, 100
3, 3862, Note_on_c, 2, 69, 100
3, 3882, Note_off_c, 2, 64, 64
3, 3890, Note_off_c, 2, 67, 64
3, 4055, Note_off_c, 2, 66, 64
3, 4067, Note_off_c, 2, 69, 64
3, 5752, Note_on_c, 2, 54, 47
3, 5992, Note_on_c, 2, 62, 42
3, 6002, Control_c, 2, 64, 127
3, 6007, Control_c, 2, 64, 127
3, 6007, Control_c, 2, 64, 127
3, 6155, Note_off_c, 2, 54, 64
3, 6217, Note_off_c, 2, 62, 64
3, 6235, Note_on_c, 2, 50, 54
3, 6267, Control_c, 2, 64, 0
3, 6270, Control_c, 2, 64, 0
3, 6270, Control_c, 2, 64, 0
3, 6472, Control_c, 2, 64, 127
3, 6472, Control_c, 2, 64, 127
3, 6477, Control_c, 2, 64, 127
3, 6487, Note_on_c, 2, 62, 42
3, 6502, Note_off_c, 2, 50, 64
3, 6692, Note_off_c, 2, 62, 64
3, 6710, Note_on_c, 2, 52, 62
3, 6740, Control_c, 2, 64, 0
3, 6740, Control_c, 2, 64, 0
3, 6742, Control_c, 2, 64, 0
3, 6972, Note_on_c, 2, 62, 42
3, 6997, Control_c, 2, 64, 127
3, 6997, Control_c, 2, 64, 127
3, 6997, Control_c, 2, 64, 127
3, 7215, Note_off_c, 2, 52, 64
3, 7222, Note_on_c, 2, 57, 52
3, 7237, Control_c, 2, 64, 0
3, 7237, Control_c, 2, 64, 0
3, 7237, Control_c, 2, 64, 0
3, 7240, Note_off_c, 2, 62, 64
3, 7457, Note_on_c, 2, 61, 42
3, 7472, Control_c, 2, 64, 127
3, 7472, Control_c, 2, 64, 127
3, 7472, Control_c, 2, 64, 127
3, 7490, Note_off_c, 2, 57, 64
3, 7525, Note_off_c, 2, 61, 64
3, 7707, Control_c, 2, 64, 0
3, 7707, Control_c, 2, 64, 0
3, 7707, Control_c, 2, 64, 0
3, 7712, Note_on_c, 2, 62, 70
3, 7712, Note_on_c, 2, 50, 67
3, 7922, Note_off_c, 2, 50, 64
3, 7927, Note_off_c, 2, 62, 64
3, 8625, Note_on_c, 2, 66, 73
3, 8625, Note_on_c, 2, 62, 73
3, 9130, Note_on_c, 2, 67, 86
3, 9130, Note_on_c, 2, 64, 86
3, 9162, Note_off_c, 2, 62, 64
3, 9162, Note_off_c, 2, 66, 64
3, 9612, Note_on_c, 2, 69, 98
3, 9612, Note_on_c, 2, 66, 98
3, 9627, Note_off_c, 2, 64, 64
3, 9647, Note_off_c, 2, 67, 64
3, 9832, Note_off_c, 2, 66, 64
3, 9842, Note_off_c, 2, 69, 64
3, 11542, Note_on_c, 2, 54, 45
3, 11777, Note_on_c, 2, 62, 38
3, 11777, Control_c, 2, 64, 127
3, 11777, Control_c, 2, 64, 127
3, 11777, Control_c, 2, 64, 127
3, 11825, Note_off_c, 2, 54, 64
3, 12002, Note_off_c, 2, 62, 64
3, 12017, Note_on_c, 2, 50, 48
3, 12045, Control_c, 2, 64, 0
3, 12045, Control_c, 2, 64, 0
3, 12045, Control_c, 2, 64, 0
3, 12250, Control_c, 2, 64, 127
3, 12250, Control_c, 2, 64, 127
3, 12250, Control_c, 2, 64, 127
3, 12257, Note_on_c, 2, 62, 42
3, 12267, Note_off_c, 2, 50, 64
3, 12455, Note_off_c, 2, 62, 64
3, 12487, Note_on_c, 2, 52, 48
3, 12517, Control_c, 2, 64, 0
3, 12517, Control_c, 2, 64, 0
3, 12517, Control_c, 2, 64, 0
3, 12742, Note_on_c, 2, 62, 33
3, 12752, Control_c, 2, 64, 127
3, 12752, Control_c, 2, 64, 127
3, 12752, Control_c, 2, 64, 127
3, 12947, Note_off_c, 2, 52, 64
3, 12957, Note_on_c, 2, 57, 47
3, 12957, Control_c, 2, 64, 0
3, 12957, Control_c, 2, 64, 0
3, 12957, Control_c, 2, 64, 0
3, 12967, Note_off_c, 2, 62, 64
3, 13202, Note_on_c, 2, 61, 36
3, 13260, Note_off_c, 2, 57, 64
3, 13432, Note_off_c, 2, 61, 64
3, 13452, Note_on_c, 2, 62, 84
3, 13710, Note_on_c, 2, 66, 26
3, 13760, Note_off_c, 2, 62, 64
3, 13927, Note_on_c, 2, 62, 36
3, 13967, Note_off_c, 2, 66, 64
3, 14145, Note_on_c, 2, 66, 35
3, 14220, Note_off_c, 2, 62, 64
3, 14387, Note_on_c, 2, 62, 32
3, 14430, Note_off_c, 2, 66, 64
3, 14627, Note_on_c, 2, 66, 36
3, 14725, Note_off_c, 2, 62, 64
3, 14887, Note_on_c, 2, 62, 36
3, 14930, Note_off_c, 2, 66, 64
3, 15117, Note_on_c, 2, 66, 35
3, 15315, Note_off_c, 2, 62, 64
3, 15372, Note_on_c, 2, 64, 34
3, 15400, Note_off_c, 2, 66, 64
3, 15600, Note_on_c, 2, 67, 35
3, 15622, Note_off_c, 2, 64, 64
3, 15832, Note_on_c, 2, 64, 42
3, 15862, Note_off_c, 2, 67, 64
3, 16072, Note_on_c, 2, 67, 38
3, 16112, Note_off_c, 2, 64, 64
3, 16307, Note_off_c, 2, 67, 64
3, 16315, Note_on_c, 2, 64, 93
3, 16440, Note_on_c, 2, 66, 60
3, 16527, Note_off_c, 2, 64, 64
3, 16562, Note_on_c, 2, 67, 64
3, 16587, Note_off_c, 2, 66, 64
3, 16667, Note_on_c, 2, 66, 66
3, 16810, Note_off_c, 2, 67, 64
3, 16817, Note_on_c, 2, 64, 71
3, 16880, Note_off_c, 2, 66, 64
3, 16930, Note_on_c, 2, 62, 73
3, 16937, Note_off_c, 2, 64, 64
3, 17042, Note_off_c, 2, 62, 64
3, 17042, Note_on_c, 2, 61, 77
3, 17147, Note_on_c, 2, 59, 79
3, 17180, Note_off_c, 2, 61, 64
3, 17300, Note_off_c, 2, 59, 64
3, 17300, Note_on_c, 2, 57, 91
3, 17532, Note_on_c, 2, 61, 31
3, 17592, Note_off_c, 2, 57, 64
3, 17757, Note_on_c, 2, 57, 40
3, 17782, Note_off_c, 2, 61, 64
3, 18007, Note_on_c, 2, 61, 46
3, 18075, Note_off_c, 2, 57, 64
3, 18262, Note_on_c, 2, 57, 46
3, 18290, Note_off_c, 2, 61, 64
3, 18492, Note_on_c, 2, 61, 37
3, 18575, Note_off_c, 2, 57, 64
3, 18737, Note_on_c, 2, 55, 57
3, 18742, Note_off_c, 2, 61, 64
3, 18987, Note_on_c, 2, 61, 37
3, 19010, Note_off_c, 2, 55, 64
3, 19167, Note_off_c, 2, 61, 64
3, 19202, Note_on_c, 2, 54, 61
3, 19470, Note_on_c, 2, 62, 33
3, 19500, Note_off_c, 2, 54, 64
3, 19682, Note_on_c, 2, 54, 33
3, 19722, Note_off_c, 2, 62, 64
3, 19930, Note_on_c, 2, 62, 47
3, 19965, Control_c, 2, 64, 127
3, 19965, Control_c, 2, 64, 127
3, 19965, Control_c, 2, 64, 127
3, 19990, Note_off_c, 2, 54, 64
3, 20042, Note_off_c, 2, 62, 64
3, 20180, Note_on_c, 2, 54, 102
3, 20197, Control_c, 2, 64, 0
3, 20200, Control_c, 2, 64, 0
3, 20200, Control_c, 2, 64, 0
3, 20297, Note_on_c, 2, 50, 64
3, 20310, Note_off_c, 2, 54, 64
3, 20417, Note_on_c, 2, 52, 68
3, 20440, Note_off_c, 2, 50, 64
3, 20522, Note_on_c, 2, 54, 71
3, 20555, Note_off_c, 2, 52, 64
3, 20642, Note_on_c, 2, 55, 77
3, 20652, Note_off_c, 2, 54, 64
3, 20752, Note_on_c, 2, 57, 80
3, 20762, Note_off_c, 2, 55, 64
3, 20877, Note_on_c, 2, 59, 84
3, 20887, Note_off_c, 2, 57, 64
3, 20987, Note_on_c, 2, 61, 88
3, 21007, Note_off_c, 2, 59, 64
3, 21102, Note_off_c, 2, 61, 64
3, 21132, Note_on_c, 2, 62, 93
3, 21447, Note_off_c, 2, 62, 64
3, 22312, Note_on_c, 2, 57, 99
3, 22322, Note_on_c, 2, 54, 92
3, 22360, Note_off_c, 2, 57, 64
3, 22372, Note_off_c, 2, 54, 64
3, 22562, Note_on_c, 2, 57, 108
3, 22572, Note_on_c, 2, 54, 112
3, 22600, Note_off_c, 2, 57, 64
3, 22607, Note_off_c, 2, 54, 64
3, 22805, Note_on_c, 2, 57, 105
3, 22807, Note_on_c, 2, 54, 112
3, 22840, Note_off_c, 2, 57, 64
3, 22845, Note_off_c, 2, 54, 64
3, 23047, Note_on_c, 2, 59, 99
3, 23057, Note_on_c, 2, 55, 97
3, 23167, Note_off_c, 2, 59, 64
3, 23172, Note_off_c, 2, 55, 64
3, 24237, Note_on_c, 2, 55, 74
3, 24237, Note_on_c, 2, 59, 90
3, 24290, Note_off_c, 2, 59, 64
3, 24297, Note_off_c, 2, 55, 64
3, 24487, Note_on_c, 2, 55, 74
3, 24487, Note_on_c, 2, 59, 88
3, 24537, Note_off_c, 2, 59, 64
3, 24545, Note_off_c, 2, 55, 64
3, 24717, Note_on_c, 2, 56, 86
3, 24717, Note_on_c, 2, 59, 94
3, 24770, Note_off_c, 2, 56, 64
3, 24785, Note_off_c, 2, 59, 64
3, 24967, Note_on_c, 2, 57, 102
3, 25022, Note_off_c, 2, 57, 64
3, 25207, Note_on_c, 2, 55, 70
3, 25275, Note_off_c, 2, 55, 64
3, 25447, Note_on_c, 2, 54, 112
3, 25505, Note_off_c, 2, 54, 64
3, 25697, Note_on_c, 2, 50, 62
3, 25747, Note_off_c, 2, 50, 64
3, 25945, Note_on_c, 2, 49, 105
3, 26005, Note_off_c, 2, 49, 64
3, 26170, Note_on_c, 2, 45, 70
3, 26225, Note_off_c, 2, 45, 64
3, 26402, Note_on_c, 2, 50, 94
3, 26452, Note_off_c, 2, 50, 64
3, 26637, Note_on_c, 2, 54, 60
3, 26707, Note_off_c, 2, 54, 64
3, 26867, Note_on_c, 2, 57, 94
3, 26940, Note_off_c, 2, 57, 64
3, 27122, Note_on_c, 2, 55, 73
3, 27207, Note_off_c, 2, 55, 64
3, 27357, Note_on_c, 2, 54, 105
3, 27415, Note_off_c, 2, 54, 64
3, 27600, Note_on_c, 2, 50, 77
3, 27655, Note_off_c, 2, 50, 64
3, 27847, Note_on_c, 2, 49, 119
3, 27905, Note_off_c, 2, 49, 64
3, 28087, Note_on_c, 2, 45, 72
3, 28145, Note_off_c, 2, 45, 64
3, 28325, Note_on_c, 2, 50, 105
3, 28375, Note_off_c, 2, 50, 64
3, 28577, Note_on_c, 2, 54, 102
3, 28615, Note_off_c, 2, 54, 64
3, 28802, Note_on_c, 2, 57, 71
3, 28807, Note_on_c, 2, 52, 71
3, 28810, Note_on_c, 2, 45, 71
3, 28937, Control_c, 2, 64, 127
3, 28937, Control_c, 2, 64, 127
3, 28937, Control_c, 2, 64, 127
3, 29087, Note_off_c, 2, 52, 64
3, 29100, Note_off_c, 2, 45, 64
3, 29115, Note_off_c, 2, 57, 64
3, 29272, Note_on_c, 2, 57, 100
3, 29272, Note_on_c, 2, 54, 100
3, 29272, Note_on_c, 2, 50, 100
3, 29317, Control_c, 2, 64, 0
3, 29320, Control_c, 2, 64, 0
3, 29320, Control_c, 2, 64, 0
3, 29487, Control_c, 2, 64, 127
3, 29487, Control_c, 2, 64, 127
3, 29487, Control_c, 2, 64, 127
3, 29560, Note_off_c, 2, 50, 64
3, 29560, Note_off_c, 2, 54, 64
3, 29585, Note_off_c, 2, 57, 64
3, 29655, Control_c, 2, 64, 0
3, 29655, Control_c, 2, 64, 0
3, 29655, Control_c, 2, 64, 0
3, 29782, Note_on_c, 2, 52, 75
3, 29782, Note_on_c, 2, 57, 75
3, 29782, Note_on_c, 2, 45, 75
3, 29935, Control_c, 2, 64, 127
3, 29935, Control_c, 2, 64, 127
3, 29935, Control_c, 2, 64, 127
3, 30035, Note_off_c, 2, 52, 64
3, 30042, Note_off_c, 2, 45, 64
3, 30060, Note_off_c, 2, 57, 64
3, 30107, Control_c, 2, 64, 0
3, 30112, Control_c, 2, 64, 0
3, 30112, Control_c, 2, 64, 0
3, 30247, Note_on_c, 2, 50, 92
3, 30247, Note_on_c, 2, 54, 97
3, 30252, Note_on_c, 2, 57, 88
3, 30522, Note_off_c, 2, 50, 64
3, 30540, Note_off_c, 2, 54, 64
3, 30560, Note_off_c, 2, 57, 64
3, 31009, Note_on_c, 2, 49, 94
3, 31009, Note_on_c, 2, 45, 86
3, 31009, Note_on_c, 2, 57, 86
3, 31009, Note_on_c, 2, 52, 97
3, 31077, Note_off_c, 2, 49, 64
3, 31087, Note_off_c, 2, 45, 64
3, 31089, Note_off_c, 2, 52, 64
3, 31094, Note_off_c, 2, 57, 64
3, 31264, Note_on_c, 2, 52, 97
3, 31264, Note_on_c, 2, 45, 84
3, 31264, Note_on_c, 2, 49, 97
3, 31264, Note_on_c, 2, 57, 88
3, 31327, Note_off_c, 2, 49, 64
3, 31327, Note_off_c, 2, 52, 64
3, 31329, Note_off_c, 2, 45, 64
3, 31339, Note_off_c, 2, 57, 64
3, 31517, Note_on_c, 2, 57, 77
3, 31517, Note_on_c, 2, 52, 86
3, 31517, Note_on_c, 2, 49, 79
3, 31517, Note_on_c, 2, 45, 70
3, 31575, Note_off_c, 2, 49, 64
3, 31582, Note_off_c, 2, 52, 64
3, 31585, Note_off_c, 2, 45, 64
3, 31597, Note_off_c, 2, 57, 64
3, 31791, Note_on_c, 2, 49, 108
3, 31791, Note_on_c, 2, 57, 97
3, 31791, Note_on_c, 2, 52, 108
3, 31791, Note_on_c, 2, 45, 92
3, 31889, Note_off_c, 2, 52, 64
3, 31889, Note_off_c, 2, 49, 64
3, 31891, Note_off_c, 2, 45, 64
3, 31896, Note_off_c, 2, 57, 64
3, 32650, Note_on_c, 2, 57, 47
3, 32877, Note_on_c, 2, 61, 39
3, 32935, Note_off_c, 2, 57, 64
3, 33107, Note_on_c, 2, 59, 40
3, 33132, Note_off_c, 2, 61, 64
3, 33365, Note_on_c, 2, 62, 42
3, 33385, Note_off_c, 2, 59, 64
3, 33587, Note_on_c, 2, 61, 60
3, 33607, Note_off_c, 2, 62, 64
3, 33840, Note_on_c, 2, 64, 48
3, 33875, Note_off_c, 2, 61, 64
3, 34095, Note_on_c, 2, 57, 36
3, 34132, Note_off_c, 2, 64, 64
3, 34337, Note_on_c, 2, 61, 33
3, 34395, Note_off_c, 2, 57, 64
3, 34575, Note_on_c, 2, 59, 53
3, 34577, Note_off_c, 2, 61, 64
3, 34807, Note_on_c, 2, 66, 44
3, 34880, Note_off_c, 2, 59, 64
3, 35037, Note_on_c, 2, 62, 47
3, 35072, Note_off_c, 2, 66, 64
3, 35280, Note_on_c, 2, 59, 51
3, 35292, Note_off_c, 2, 62, 64
3, 35517, Note_on_c, 2, 56, 40
3, 35537, Note_off_c, 2, 59, 64
3, 35757, Note_on_c, 2, 59, 48
3, 35830, Note_off_c, 2, 56, 64
3, 36005, Note_off_c, 2, 59, 64
3, 36010, Note_on_c, 2, 52, 48
3, 36247, Note_on_c, 2, 62, 44
3, 36330, Control_c, 2, 64, 127
3, 36330, Control_c, 2, 64, 127
3, 36330, Control_c, 2, 64, 127
3, 36497, Note_on_c, 2, 61, 55
3, 36502, Control_c, 2, 64, 0
3, 36505, Control_c, 2, 64, 0
3, 36505, Control_c, 2, 64, 0
3, 36512, Note_off_c, 2, 62, 64
3, 36525, Note_off_c, 2, 52, 64
3, 36742, Note_on_c, 2, 64, 52
3, 36767, Control_c, 2, 64, 127
3, 36770, Control_c, 2, 64, 127
3, 36770, Control_c, 2, 64, 127
3, 36782, Note_off_c, 2, 61, 64
3, 36967, Note_off_c, 2, 64, 64
3, 36972, Note_on_c, 2, 56, 46
3, 37030, Control_c, 2, 64, 0
3, 37032, Control_c, 2, 64, 0
3, 37032, Control_c, 2, 64, 0
3, 37207, Note_on_c, 2, 64, 49
3, 37237, Control_c, 2, 64, 127
3, 37237, Control_c, 2, 64, 127
3, 37237, Control_c, 2, 64, 127
3, 37260, Note_off_c, 2, 56, 64
3, 37365, Note_off_c, 2, 64, 64
3, 37442, Control_c, 2, 64, 0
3, 37442, Control_c, 2, 64, 0
3, 37442, Control_c, 2, 64, 0
3, 37442, Note_on_c, 2, 57, 52
3, 37672, Note_on_c, 2, 64, 52
3, 37672, Control_c, 2, 64, 127
3, 37672, Control_c, 2, 64, 127
3, 37672, Control_c, 2, 64, 127
3, 37725, Note_off_c, 2, 57, 64
3, 37777, Note_off_c, 2, 64, 64
3, 37920, Note_on_c, 2, 54, 57
3, 37965, Control_c, 2, 64, 0
3, 37965, Control_c, 2, 64, 0
3, 37965, Control_c, 2, 64, 0
3, 38172, Note_on_c, 2, 57, 52
3, 38205, Note_off_c, 2, 54, 64
3, 38205, Control_c, 2, 64, 127
3, 38205, Control_c, 2, 64, 127
3, 38205, Control_c, 2, 64, 127
3, 38260, Note_off_c, 2, 57, 64
3, 38412, Control_c, 2, 64, 0
3, 38412, Control_c, 2, 64, 0
3, 38412, Control_c, 2, 64, 0
3, 38422, Note_on_c, 2, 52, 56
3, 38662, Note_on_c, 2, 57, 57
3, 38820, Control_c, 2, 64, 127
3, 38820, Control_c, 2, 64, 127
3, 38825, Control_c, 2, 64, 127
3, 38895, Note_on_c, 2, 61, 53
3, 38927, Note_off_c, 2, 57, 64
3, 38982, Note_off_c, 2, 61, 64
3, 39060, Note_off_c, 2, 52, 64
3, 39132, Note_on_c, 2, 57, 53
3, 39255, Note_off_c, 2, 57, 64
3, 39370, Note_on_c, 2, 56, 48
3, 39377, Note_on_c, 2, 52, 46
3, 39377, Control_c, 2, 64, 0
3, 39377, Control_c, 2, 64, 0
3, 39380, Control_c, 2, 64, 0
3, 39555, Note_off_c, 2, 52, 64
3, 39555, Note_off_c, 2, 56, 64
3, 40337, Note_on_c, 2, 57, 66
3, 40572, Note_on_c, 2, 61, 45
3, 40647, Note_off_c, 2, 57, 64
3, 40790, Note_on_c, 2, 59, 40
3, 40822, Note_off_c, 2, 61, 64
3, 41052, Note_on_c, 2, 62, 40
3, 41077, Note_off_c, 2, 59, 64
3, 41282, Note_on_c, 2, 61, 49
3, 41307, Note_off_c, 2, 62, 64
3, 41540, Note_on_c, 2, 64, 38
3, 41542, Note_off_c, 2, 61, 64
3, 41750, Note_on_c, 2, 57, 44
3, 41895, Note_off_c, 2, 64, 64
3, 41985, Note_on_c, 2, 61, 45
3, 42025, Note_off_c, 2, 57, 64
3, 42160, Note_off_c, 2, 61, 64
3, 42222, Note_on_c, 2, 59, 57
3, 42485, Note_on_c, 2, 66, 36
3, 42565, Note_off_c, 2, 59, 64
3, 42737, Note_on_c, 2, 62, 43
3, 42775, Note_off_c, 2, 66, 64
3, 42967, Note_off_c, 2, 62, 64
3, 42977, Note_on_c, 2, 59, 42
3, 43212, Note_on_c, 2, 56, 39
3, 43242, Note_off_c, 2, 59, 64
3, 43457, Note_on_c, 2, 59, 40
3, 43500, Note_off_c, 2, 56, 64
3, 43685, Note_on_c, 2, 52, 54
3, 43737, Note_off_c, 2, 59, 64
3, 43947, Note_on_c, 2, 56, 46
3, 44015, Control_c, 2, 64, 127
3, 44015, Control_c, 2, 64, 127
3, 44015, Control_c, 2, 64, 127
3, 44057, Note_off_c, 2, 52, 64
3, 44187, Note_on_c, 2, 57, 53
3, 44192, Note_off_c, 2, 56, 64
3, 44215, Control_c, 2, 64, 0
3, 44220, Control_c, 2, 64, 0
3, 44220, Control_c, 2, 64, 0
3, 44392, Control_c, 2, 64, 127
3, 44392, Control_c, 2, 64, 127
3, 44392, Control_c, 2, 64, 127
3, 44425, Note_off_c, 2, 57, 64
3, 44452, Control_c, 2, 64, 0
3, 44455, Control_c, 2, 64, 0
3, 44455, Control_c, 2, 64, 0
3, 44647, Note_on_c, 2, 62, 83
3, 44652, Note_on_c, 2, 50, 66
3, 44862, Control_c, 2, 64, 127
3, 44862, Control_c, 2, 64, 127
3, 44862, Control_c, 2, 64, 127
3, 44950, Note_off_c, 2, 50, 64
3, 45000, Note_off_c, 2, 62, 64
3, 45127, Note_on_c, 2, 61, 73
3, 45127, Control_c, 2, 64, 0
3, 45127, Control_c, 2, 64, 0
3, 45127, Control_c, 2, 64, 0
3, 45132, Note_on_c, 2, 52, 73
3, 45610, Note_on_c, 2, 59, 57
3, 45635, Note_off_c, 2, 61, 64
3, 45645, Note_off_c, 2, 52, 64
3, 46005, Note_off_c, 2, 59, 64
3, 46067, Note_on_c, 2, 57, 86
3, 46247, Note_off_c, 2, 57, 64
3, 46800, Note_on_c, 2, 69, 74
3, 46852, Note_off_c, 2, 69, 64
3, 47060, Note_on_c, 2, 71, 102
3, 47115, Note_off_c, 2, 71, 64
3, 47297, Note_on_c, 2, 69, 88
3, 47360, Note_off_c, 2, 69, 64
3, 47527, Note_on_c, 2, 68, 77
3, 47610, Note_off_c, 2, 68, 64
3, 47782, Note_on_c, 2, 64, 69
3, 47845, Note_off_c, 2, 64, 64
3, 48027, Note_on_c, 2, 69, 89
3, 48107, Note_off_c, 2, 69, 64
3, 48742, Note_on_c, 2, 57, 83
3, 48817, Note_off_c, 2, 57, 64
3, 48995, Note_on_c, 2, 59, 95
3, 49092, Note_off_c, 2, 59, 64
3, 49240, Note_on_c, 2, 57, 73
3, 49305, Note_off_c, 2, 57, 64
3, 49457, Note_on_c, 2, 56, 84
3, 49520, Note_off_c, 2, 56, 64
3, 49695, Note_on_c, 2, 52, 70
3, 49755, Note_off_c, 2, 52, 64
3, 49947, Note_on_c, 2, 57, 95
3, 50052, Note_on_c, 2, 64, 66
3, 50055, Note_off_c, 2, 57, 64
3, 50177, Note_on_c, 2, 63, 90
3, 50197, Note_off_c, 2, 64, 64
3, 50282, Note_on_c, 2, 64, 63
3, 50312, Note_off_c, 2, 63, 64
3, 50422, Note_on_c, 2, 66, 66
3, 50455, Note_off_c, 2, 64, 64
3, 50527, Note_on_c, 2, 64, 64
3, 50572, Note_off_c, 2, 66, 64
3, 50642, Note_on_c, 2, 63, 66
3, 50665, Note_off_c, 2, 64, 64
3, 50767, Note_on_c, 2, 64, 59
3, 50790, Note_off_c, 2, 63, 64
3, 50892, Note_on_c, 2, 62, 60
3, 50905, Note_off_c, 2, 64, 64
3, 51002, Note_on_c, 2, 64, 51
3, 51027, Note_off_c, 2, 62, 64
3, 51137, Note_on_c, 2, 62, 49
3, 51145, Note_off_c, 2, 64, 64
3, 51262, Note_on_c, 2, 64, 44
3, 51272, Note_off_c, 2, 62, 64
3, 51377, Note_on_c, 2, 62, 49
3, 51380, Note_off_c, 2, 64, 64
3, 51492, Note_on_c, 2, 64, 51
3, 51505, Note_off_c, 2, 62, 64
3, 51612, Note_on_c, 2, 62, 53
3, 51617, Note_off_c, 2, 64, 64
3, 51720, Note_on_c, 2, 64, 59
3, 51732, Note_off_c, 2, 62, 64
3, 51852, Note_on_c, 2, 61, 52
3, 51877, Note_off_c, 2, 64, 64
3, 51975, Note_on_c, 2, 64, 69
3, 51977, Note_off_c, 2, 61, 64
3, 52087, Note_on_c, 2, 63, 105
3, 52107, Note_off_c, 2, 64, 64
3, 52197, Note_on_c, 2, 64, 77
3, 52220, Note_off_c, 2, 63, 64
3, 52322, Note_on_c, 2, 66, 88
3, 52345, Note_off_c, 2, 64, 64
3, 52435, Note_on_c, 2, 64, 81
3, 52482, Note_off_c, 2, 66, 64
3, 52555, Note_on_c, 2, 63, 99
3, 52587, Note_off_c, 2, 64, 64
3, 52677, Note_on_c, 2, 64, 49
3, 52702, Note_off_c, 2, 63, 64
3, 52802, Note_on_c, 2, 62, 55
3, 52817, Note_off_c, 2, 64, 64
3, 52922, Note_on_c, 2, 64, 49
3, 52942, Note_off_c, 2, 62, 64
3, 53047, Note_on_c, 2, 62, 39
3, 53057, Note_off_c, 2, 64, 64
3, 53167, Note_on_c, 2, 64, 46
3, 53177, Note_off_c, 2, 62, 64
3, 53292, Note_on_c, 2, 62, 40
3, 53300, Note_off_c, 2, 64, 64
3, 53407, Note_on_c, 2, 64, 48
3, 53422, Note_off_c, 2, 62, 64
3, 53522, Note_on_c, 2, 62, 40
3, 53537, Note_off_c, 2, 64, 64
3, 53637, Note_on_c, 2, 64, 48
3, 53657, Note_off_c, 2, 62, 64
3, 53777, Note_on_c, 2, 61, 37
3, 53805, Note_off_c, 2, 64, 64
3, 53925, Control_c, 2, 64, 127
3, 53925, Control_c, 2, 64, 127
3, 53925, Control_c, 2, 64, 127
3, 53962, Note_off_c, 2, 61, 64
3, 54012, Control_c, 2, 64, 0
3, 54012, Control_c, 2, 64, 0
3, 54012, Control_c, 2, 64, 0
3, 54247, Note_on_c, 2, 61, 43
3, 54277, Control_c, 2, 64, 127
3, 54277, Control_c, 2, 64, 127
3, 54277, Control_c, 2, 64, 127
3, 54362, Note_on_c, 2, 69, 40
3, 54372, Note_off_c, 2, 61, 64
3, 54472, Note_off_c, 2, 69, 64
3, 54472, Note_on_c, 2, 61, 49
3, 54585, Note_on_c, 2, 69, 64
3, 54595, Note_off_c, 2, 61, 64
3, 54702, Note_off_c, 2, 69, 64
3, 54712, Note_on_c, 2, 59, 59
3, 54742, Control_c, 2, 64, 0
3, 54742, Control_c, 2, 64, 0
3, 54742, Control_c, 2, 64, 0
3, 54807, Note_on_c, 2, 69, 58
3, 54832, Note_off_c, 2, 59, 64
3, 54862, Control_c, 2, 64, 127
3, 54862, Control_c, 2, 64, 127
3, 54862, Control_c, 2, 64, 127
3, 54940, Note_off_c, 2, 69, 64
3, 54950, Note_on_c, 2, 59, 51
3, 55065, Note_off_c, 2, 59, 64
3, 55065, Note_on_c, 2, 69, 36
3, 55165, Note_off_c, 2, 69, 64
3, 55180, Note_on_c, 2, 57, 51
3, 55212, Control_c, 2, 64, 0
3, 55215, Control_c, 2, 64, 0
3, 55215, Control_c, 2, 64, 0
3, 55312, Note_on_c, 2, 69, 54
3, 55330, Control_c, 2, 64, 127
3, 55330, Control_c, 2, 64, 127
3, 55330, Control_c, 2, 64, 127
3, 55350, Note_off_c, 2, 57, 64
3, 55437, Note_off_c, 2, 69, 64
3, 55437, Note_on_c, 2, 57, 51
3, 55522, Note_off_c, 2, 57, 64
3, 55547, Note_on_c, 2, 69, 64
3, 55615, Note_off_c, 2, 69, 64
3, 55667, Note_on_c, 2, 62, 66
3, 55712, Control_c, 2, 64, 0
3, 55715, Control_c, 2, 64, 0
3, 55715, Control_c, 2, 64, 0
3, 55785, Note_on_c, 2, 69, 52
3, 55902, Note_off_c, 2, 62, 64
3, 55902, Note_on_c, 2, 68, 44
3, 55922, Note_off_c, 2, 69, 64
3, 56025, Note_on_c, 2, 69, 47
3, 56057, Note_off_c, 2, 68, 64
3, 56152, Note_off_c, 2, 69, 64
3, 56162, Note_on_c, 2, 62, 55
3, 56282, Note_on_c, 2, 69, 40
3, 56337, Note_off_c, 2, 62, 64
3, 56412, Note_on_c, 2, 68, 33
3, 56417, Note_off_c, 2, 69, 64
3, 56532, Note_on_c, 2, 69, 48
3, 56565, Note_off_c, 2, 68, 64
3, 56627, Note_off_c, 2, 69, 64
3, 56677, Note_on_c, 2, 62, 57
3, 56775, Note_on_c, 2, 69, 44
3, 56802, Note_off_c, 2, 62, 64
3, 56895, Note_on_c, 2, 68, 37
3, 56902, Note_off_c, 2, 69, 64
3, 57017, Note_on_c, 2, 69, 54
3, 57037, Note_off_c, 2, 68, 64
3, 57137, Note_off_c, 2, 69, 64
3, 57150, Note_on_c, 2, 62, 57
3, 57262, Note_on_c, 2, 69, 48
3, 57300, Note_off_c, 2, 62, 64
3, 57377, Note_on_c, 2, 68, 39
3, 57400, Note_off_c, 2, 69, 64
3, 57507, Note_on_c, 2, 69, 49
3, 57537, Note_off_c, 2, 68, 64
3, 57627, Note_on_c, 2, 61, 55
3, 57650, Note_off_c, 2, 69, 64
3, 57732, Note_on_c, 2, 69, 56
3, 57847, Note_on_c, 2, 68, 43
3, 57852, Note_off_c, 2, 61, 64
3, 57857, Note_off_c, 2, 69, 64
3, 57962, Note_on_c, 2, 69, 61
3, 58005, Note_off_c, 2, 68, 64
3, 58065, Note_off_c, 2, 69, 64
3, 58092, Note_on_c, 2, 61, 89
3, 58197, Note_on_c, 2, 69, 68
3, 58202, Control_c, 2, 64, 127
3, 58202, Control_c, 2, 64, 127
3, 58202, Control_c, 2, 64, 127
3, 58230, Note_off_c, 2, 61, 64
3, 58315, Note_on_c, 2, 61, 89
3, 58322, Note_off_c, 2, 69, 64
3, 58420, Note_on_c, 2, 69, 62
3, 58447, Note_off_c, 2, 61, 64
3, 58542, Note_off_c, 2, 69, 64
3, 58550, Note_on_c, 2, 59, 86
3, 58587, Control_c, 2, 64, 0
3, 58587, Control_c, 2, 64, 0
3, 58590, Control_c, 2, 64, 0
3, 58657, Note_on_c, 2, 69, 64
3, 58685, Note_off_c, 2, 59, 64
3, 58735, Control_c, 2, 64, 127
3, 58735, Control_c, 2, 64, 127
3, 58735, Control_c, 2, 64, 127
3, 58785, Note_on_c, 2, 59, 84
3, 58792, Note_off_c, 2, 69, 64
3, 58907, Note_off_c, 2, 59, 64
3, 58907, Note_on_c, 2, 69, 51
3, 59022, Note_off_c, 2, 69, 64
3, 59027, Control_c, 2, 64, 0
3, 59027, Control_c, 2, 64, 0
3, 59027, Control_c, 2, 64, 0
3, 59035, Note_on_c, 2, 57, 79
3, 59150, Note_on_c, 2, 69, 57
3, 59170, Note_off_c, 2, 57, 64
3, 59232, Control_c, 2, 64, 127
3, 59235, Control_c, 2, 64, 127
3, 59235, Control_c, 2, 64, 127
3, 59277, Note_off_c, 2, 69, 64
3, 59277, Note_on_c, 2, 57, 79
3, 59397, Note_on_c, 2, 69, 60
3, 59422, Note_off_c, 2, 57, 64
3, 59440, Note_off_c, 2, 69, 64
3, 59495, Control_c, 2, 64, 0
3, 59497, Control_c, 2, 64, 0
3, 59497, Control_c, 2, 64, 0
3, 59522, Note_on_c, 2, 50, 78
3, 59642, Note_on_c, 2, 59, 78
3, 59650, Note_off_c, 2, 50, 64
3, 59770, Note_on_c, 2, 54, 66
3, 59795, Note_off_c, 2, 59, 64
3, 59850, Control_c, 2, 64, 127
3, 59850, Control_c, 2, 64, 127
3, 59850, Control_c, 2, 64, 127
3, 59885, Note_on_c, 2, 59, 79
3, 59920, Note_off_c, 2, 54, 64
3, 59992, Note_off_c, 2, 59, 64
3, 60012, Note_on_c, 2, 50, 73
3, 60022, Control_c, 2, 64, 0
3, 60025, Control_c, 2, 64, 0
3, 60025, Control_c, 2, 64, 0
3, 60112, Control_c, 2, 64, 127
3, 60112, Control_c, 2, 64, 127
3, 60112, Control_c, 2, 64, 127
3, 60117, Note_on_c, 2, 59, 77
3, 60235, Note_on_c, 2, 54, 69
3, 60247, Note_off_c, 2, 59, 64
3, 60252, Note_off_c, 2, 50, 64
3, 60332, Note_off_c, 2, 54, 64
3, 60352, Note_on_c, 2, 59, 66
3, 60440, Note_off_c, 2, 59, 64
3, 60487, Note_on_c, 2, 52, 61
3, 60520, Control_c, 2, 64, 0
3, 60525, Control_c, 2, 64, 0
3, 60525, Control_c, 2, 64, 0
3, 60612, Note_on_c, 2, 61, 73
3, 60697, Control_c, 2, 64, 127
3, 60697, Control_c, 2, 64, 127
3, 60697, Control_c, 2, 64, 127
3, 60727, Note_on_c, 2, 57, 59
3, 60730, Note_off_c, 2, 61, 64
3, 60770, Note_off_c, 2, 52, 64
3, 60835, Note_on_c, 2, 61, 69
3, 60867, Note_off_c, 2, 57, 64
3, 60957, Note_off_c, 2, 61, 64
3, 60962, Note_on_c, 2, 52, 55
3, 60992, Control_c, 2, 64, 0
3, 60992, Control_c, 2, 64, 0
3, 60992, Control_c, 2, 64, 0
3, 61067, Note_on_c, 2, 62, 42
3, 61170, Control_c, 2, 64, 127
3, 61170, Control_c, 2, 64, 127
3, 61170, Control_c, 2, 64, 127
3, 61197, Note_on_c, 2, 56, 33
3, 61212, Note_off_c, 2, 62, 64
3, 61255, Note_off_c, 2, 52, 64
3, 61307, Note_on_c, 2, 62, 44
3, 61317, Note_off_c, 2, 56, 64
3, 61360, Note_off_c, 2, 62, 64
3, 61432, Note_on_c, 2, 57, 37
3, 61432, Control_c, 2, 64, 0
3, 61432, Control_c, 2, 64, 0
3, 61432, Control_c, 2, 64, 0
3, 61547, Note_on_c, 2, 64, 53
3, 61605, Control_c, 2, 64, 127
3, 61610, Control_c, 2, 64, 127
3, 61610, Control_c, 2, 64, 127
3, 61667, Note_on_c, 2, 61, 44
3, 61687, Note_off_c, 2, 64, 64
3, 61702, Note_off_c, 2, 57, 64
3, 61770, Note_on_c, 2, 64, 51
3, 61780, Note_off_c, 2, 61, 64
3, 61800, Note_off_c, 2, 64, 64
3, 61897, Control_c, 2, 64, 0
3, 61902, Control_c, 2, 64, 0
3, 61902, Control_c, 2, 64, 0
3, 61922, Note_on_c, 2, 61, 44
3, 62020, Control_c, 2, 64, 127
3, 62020, Control_c, 2, 64, 127
3, 62020, Control_c, 2, 64, 127
3, 62032, Note_off_c, 2, 61, 64
3, 62050, Note_on_c, 2, 69, 39
3, 62137, Note_off_c, 2, 69, 64
3, 62147, Note_on_c, 2, 61, 37
3, 62257, Note_on_c, 2, 69, 54
3, 62275, Note_off_c, 2, 61, 64
3, 62357, Note_off_c, 2, 69, 64
3, 62390, Note_on_c, 2, 59, 46
3, 62430, Control_c, 2, 64, 0
3, 62430, Control_c, 2, 64, 0
3, 62430, Control_c, 2, 64, 0
3, 62507, Note_on_c, 2, 69, 37
3, 62532, Note_off_c, 2, 59, 64
3, 62577, Control_c, 2, 64, 127
3, 62577, Control_c, 2, 64, 127
3, 62577, Control_c, 2, 64, 127
3, 62637, Note_off_c, 2, 69, 64
3, 62652, Note_on_c, 2, 59, 30
3, 62757, Note_off_c, 2, 59, 64
3, 62757, Note_on_c, 2, 69, 39
3, 62862, Note_off_c, 2, 69, 64
3, 62882, Note_on_c, 2, 57, 47
3, 62897, Control_c, 2, 64, 0
3, 62897, Control_c, 2, 64, 0
3, 62897, Control_c, 2, 64, 0
3, 62985, Control_c, 2, 64, 127
3, 62987, Control_c, 2, 64, 127
3, 62987, Control_c, 2, 64, 127
3, 63010, Note_on_c, 2, 69, 39
3, 63035, Note_off_c, 2, 57, 64
3, 63117, Note_off_c, 2, 69, 64
3, 63122, Note_on_c, 2, 57, 45
3, 63222, Note_on_c, 2, 69, 51
3, 63230, Note_off_c, 2, 57, 64
3, 63282, Note_off_c, 2, 69, 64
3, 63355, Note_on_c, 2, 62, 55
3, 63367, Control_c, 2, 64, 0
3, 63367, Control_c, 2, 64, 0
3, 63367, Control_c, 2, 64, 0
3, 63482, Note_on_c, 2, 69, 49
3, 63575, Note_off_c, 2, 62, 64
3, 63607, Note_on_c, 2, 68, 34
3, 63627, Note_off_c, 2, 69, 64
3, 63722, Note_on_c, 2, 69, 53
3, 63752, Note_off_c, 2, 68, 64
3, 63847, Note_on_c, 2, 62, 55
3, 63852, Note_off_c, 2, 69, 64
3, 63957, Note_on_c, 2, 69, 42
3, 63990, Note_off_c, 2, 62, 64
3, 64082, Note_on_c, 2, 68, 36
3, 64110, Note_off_c, 2, 69, 64
3, 64192, Note_on_c, 2, 69, 51
3, 64225, Note_off_c, 2, 68, 64
3, 64335, Note_off_c, 2, 69, 64
3, 64335, Note_on_c, 2, 62, 51
3, 64432, Note_on_c, 2, 69, 42
3, 64460, Note_off_c, 2, 62, 64
3, 64565, Note_on_c, 2, 68, 42
3, 64590, Note_off_c, 2, 69, 64
3, 64687, Note_on_c, 2, 69, 54
3, 64705, Note_off_c, 2, 68, 64
3, 64802, Note_off_c, 2, 69, 64
3, 64810, Note_on_c, 2, 62, 53
3, 64907, Note_on_c, 2, 69, 42
3, 64927, Note_off_c, 2, 62, 64
3, 65032, Note_on_c, 2, 68, 37
3, 65062, Note_off_c, 2, 69, 64
3, 65157, Note_on_c, 2, 69, 42
3, 65200, Note_off_c, 2, 68, 64
3, 65280, Note_on_c, 2, 61, 44
3, 65305, Note_off_c, 2, 69, 64
3, 65395, Note_on_c, 2, 69, 62
3, 65515, Note_off_c, 2, 61, 64
3, 65527, Note_on_c, 2, 68, 49
3, 65537, Note_off_c, 2, 69, 64
3, 65642, Note_on_c, 2, 69, 58
3, 65682, Note_off_c, 2, 68, 64
3, 65757, Note_off_c, 2, 69, 64
3, 65757, Note_on_c, 2, 61, 88
3, 65862, Note_on_c, 2, 69, 68
3, 65890, Note_off_c, 2, 61, 64
3, 65992, Note_off_c, 2, 69, 64
3, 65992, Note_on_c, 2, 61, 86
3, 66100, Note_on_c, 2, 69, 64
3, 66127, Note_off_c, 2, 61, 64
3, 66230, Note_on_c, 2, 59, 81
3, 66232, Note_off_c, 2, 69, 64
3, 66345, Note_on_c, 2, 69, 64
3, 66362, Note_off_c, 2, 59, 64
3, 66470, Note_on_c, 2, 59, 79
3, 66472, Note_off_c, 2, 69, 64
3, 66582, Note_on_c, 2, 69, 55
3, 66602, Note_off_c, 2, 59, 64
3, 66707, Note_off_c, 2, 69, 64
3, 66712, Note_on_c, 2, 57, 77
3, 66830, Note_on_c, 2, 69, 62
3, 66847, Note_off_c, 2, 57, 64
3, 66957, Note_on_c, 2, 57, 75
3, 66962, Note_off_c, 2, 69, 64
3, 67065, Note_on_c, 2, 69, 57
3, 67105, Note_off_c, 2, 57, 64
3, 67145, Note_off_c, 2, 69, 64
3, 67175, Note_on_c, 2, 50, 77
3, 67307, Note_on_c, 2, 59, 70
3, 67432, Note_on_c, 2, 54, 59
3, 67462, Note_off_c, 2, 59, 64
3, 67477, Note_off_c, 2, 50, 64
3, 67557, Note_on_c, 2, 59, 68
3, 67642, Note_off_c, 2, 54, 64
3, 67690, Note_off_c, 2, 59, 64
3, 67697, Note_on_c, 2, 50, 73
3, 67802, Note_on_c, 2, 59, 81
3, 67937, Note_on_c, 2, 54, 62
3, 67945, Note_off_c, 2, 59, 64
3, 67952, Note_off_c, 2, 50, 64
3, 68052, Note_on_c, 2, 59, 66
3, 68105, Note_off_c, 2, 54, 64
3, 68175, Note_on_c, 2, 52, 59
3, 68192, Note_off_c, 2, 59, 64
3, 68290, Note_on_c, 2, 61, 59
3, 68407, Note_on_c, 2, 57, 39
3, 68437, Note_off_c, 2, 52, 64
3, 68437, Note_off_c, 2, 61, 64
3, 68522, Note_on_c, 2, 61, 53
3, 68567, Note_off_c, 2, 57, 64
3, 68650, Note_on_c, 2, 52, 66
3, 68652, Note_off_c, 2, 61, 64
3, 68765, Note_on_c, 2, 62, 60
3, 68887, Note_on_c, 2, 56, 55
3, 68915, Note_off_c, 2, 62, 64
3, 69012, Note_on_c, 2, 62, 59
3, 69022, Note_off_c, 2, 52, 64
3, 69030, Note_off_c, 2, 56, 64
3, 69072, Note_off_c, 2, 62, 64
3, 69135, Note_on_c, 2, 61, 57
3, 69150, Note_on_c, 2, 57, 57
3, 69325, Note_off_c, 2, 57, 64
3, 69332, Note_off_c, 2, 61, 64
3, 69872, Note_on_c, 2, 59, 77
3, 69872, Note_on_c, 2, 56, 77
3, 69877, Note_on_c, 2, 52, 77
3, 69985, Note_off_c, 2, 52, 64
3, 69985, Note_off_c, 2, 56, 64
3, 69985, Note_off_c, 2, 59, 64
3, 70115, Note_on_c, 2, 61, 69
3, 70115, Note_on_c, 2, 57, 69
3, 70280, Note_off_c, 2, 57, 64
3, 70285, Note_off_c, 2, 61, 64
3, 70807, Note_on_c, 2, 59, 77
3, 70815, Note_on_c, 2, 56, 77
3, 70822, Note_on_c, 2, 52, 77
3, 70910, Note_off_c, 2, 56, 64
3, 70917, Note_off_c, 2, 59, 64
3, 70917, Note_off_c, 2, 52, 64
3, 71065, Note_on_c, 2, 61, 57
3, 71065, Note_on_c, 2, 57, 57
3, 71192, Note_off_c, 2, 57, 64
3, 71192, Note_off_c, 2, 61, 64
3, 71542, Note_on_c, 2, 41, 86
3, 71545, Note_on_c, 2, 53, 86
3, 71697, Note_off_c, 2, 41, 64
3, 71700, Note_off_c, 2, 53, 64
3, 72039, Note_on_c, 2, 42, 118
3, 72039, Note_on_c, 2, 54, 118
3, 72384, Note_off_c, 2, 42, 64
3, 72407, Note_off_c, 2, 54, 64
3, 72962, Note_on_c, 2, 50, 83
3, 73902, Note_on_c, 2, 52, 57
3, 73912, Note_off_c, 2, 50, 64
3, 74900, Note_on_c, 2, 57, 53
3, 74915, Note_off_c, 2, 52, 64
3, 75377, Note_on_c, 2, 52, 59
3, 75442, Note_off_c, 2, 57, 64
3, 75852, Note_on_c, 2, 45, 42
3, 75882, Note_off_c, 2, 52, 64
3, 76150, Note_off_c, 2, 45, 64
3, 76800, Note_on_c, 2, 38, 97
3, 76800, Note_on_c, 2, 45, 97
3, 76800, Note_on_c, 2, 50, 97
3, 76975, Control_c, 2, 64, 127
3, 76975, Control_c, 2, 64, 127
3, 76975, Control_c, 2, 64, 127
3, 77265, Note_off_c, 2, 45, 64
3, 77265, Note_off_c, 2, 38, 64
3, 77270, Note_off_c, 2, 50, 64
3, 77297, Control_c, 2, 64, 0
3, 77297, Control_c, 2, 64, 0
3, 77297, Control_c, 2, 64, 0
3, 77760, Note_on_c, 2, 66, 53
3, 77760, Note_on_c, 2, 62, 53
3, 78212, Note_on_c, 2, 67, 68
3, 78217, Note_off_c, 2, 62, 64
3, 78220, Note_off_c, 2, 66, 64
3, 78220, Note_on_c, 2, 64, 68
3, 78707, Note_on_c, 2, 69, 84
3, 78712, Note_on_c, 2, 66, 84
3, 78737, Note_off_c, 2, 67, 64
3, 78742, Note_off_c, 2, 64, 64
3, 78920, Note_off_c, 2, 66, 64
3, 78937, Note_off_c, 2, 69, 64
3, 80655, Note_on_c, 2, 54, 31
3, 80727, Control_c, 2, 64, 127
3, 80727, Control_c, 2, 64, 127
3, 80727, Control_c, 2, 64, 127
3, 80887, Note_on_c, 2, 62, 39
3, 80925, Note_off_c, 2, 54, 64
3, 81100, Note_off_c, 2, 62, 64
3, 81117, Note_on_c, 2, 50, 28
3, 81167, Control_c, 2, 64, 0
3, 81170, Control_c, 2, 64, 0
3, 81170, Control_c, 2, 64, 0
3, 81345, Control_c, 2, 64, 127
3, 81345, Control_c, 2, 64, 127
3, 81345, Control_c, 2, 64, 127
3, 81367, Note_on_c, 2, 62, 40
3, 81382, Note_off_c, 2, 50, 64
3, 81492, Note_off_c, 2, 62, 64
3, 81612, Note_on_c, 2, 52, 39
3, 81635, Control_c, 2, 64, 0
3, 81635, Control_c, 2, 64, 0
3, 81635, Control_c, 2, 64, 0
3, 81857, Note_on_c, 2, 62, 44
3, 81987, Control_c, 2, 64, 127
3, 81990, Control_c, 2, 64, 127
3, 81990, Control_c, 2, 64, 127
3, 82077, Control_c, 2, 64, 0
3, 82077, Control_c, 2, 64, 0
3, 82077, Control_c, 2, 64, 0
3, 82077, Note_on_c, 2, 57, 35
3, 82082, Note_off_c, 2, 52, 64
3, 82102, Note_off_c, 2, 62, 64
3, 82282, Control_c, 2, 64, 127
3, 82282, Control_c, 2, 64, 127
3, 82282, Control_c, 2, 64, 127
3, 82312, Note_on_c, 2, 61, 40
3, 82332, Note_off_c, 2, 57, 64
3, 82387, Note_off_c, 2, 61, 64
3, 82552, Note_on_c, 2, 50, 48
3, 82557, Note_on_c, 2, 62, 48
3, 82577, Control_c, 2, 64, 0
3, 82577, Control_c, 2, 64, 0
3, 82577, Control_c, 2, 64, 0
3, 82772, Note_off_c, 2, 62, 64
3, 82777, Note_off_c, 2, 50, 64
3, 83537, Note_on_c, 2, 66, 69
3, 83542, Note_on_c, 2, 62, 69
3, 84012, Note_on_c, 2, 64, 80
3, 84012, Note_on_c, 2, 67, 80
3, 84030, Note_off_c, 2, 62, 64
3, 84047, Note_off_c, 2, 66, 64
3, 84482, Note_on_c, 2, 66, 91
3, 84482, Note_on_c, 2, 69, 91
3, 84497, Note_off_c, 2, 64, 64
3, 84502, Note_off_c, 2, 67, 64
3, 84712, Note_off_c, 2, 66, 64
3, 84732, Note_off_c, 2, 69, 64
3, 86382, Note_on_c, 2, 54, 40
3, 86625, Control_c, 2, 64, 127
3, 86625, Control_c, 2, 64, 127
3, 86625, Control_c, 2, 64, 127
3, 86642, Note_on_c, 2, 62, 41
3, 86747, Note_off_c, 2, 54, 64
3, 86850, Note_off_c, 2, 62, 64
3, 86875, Note_on_c, 2, 50, 37
3, 86915, Control_c, 2, 64, 0
3, 86915, Control_c, 2, 64, 0
3, 86915, Control_c, 2, 64, 0
3, 87065, Control_c, 2, 64, 127
3, 87065, Control_c, 2, 64, 127
3, 87065, Control_c, 2, 64, 127
3, 87130, Note_on_c, 2, 62, 44
3, 87137, Note_off_c, 2, 50, 64
3, 87280, Note_off_c, 2, 62, 64
3, 87382, Note_on_c, 2, 52, 43
3, 87412, Control_c, 2, 64, 0
3, 87412, Control_c, 2, 64, 0
3, 87412, Control_c, 2, 64, 0
3, 87587, Control_c, 2, 64, 127
3, 87592, Control_c, 2, 64, 127
3, 87592, Control_c, 2, 64, 127
3, 87612, Note_on_c, 2, 62, 41
3, 87835, Note_off_c, 2, 52, 64
3, 87835, Note_on_c, 2, 57, 42
3, 87842, Note_off_c, 2, 62, 64
3, 87885, Control_c, 2, 64, 0
3, 87885, Control_c, 2, 64, 0
3, 87885, Control_c, 2, 64, 0
3, 88067, Note_on_c, 2, 61, 60
3, 88097, Note_off_c, 2, 57, 64
3, 88290, Note_off_c, 2, 61, 64
3, 88307, Note_on_c, 2, 62, 84
3, 88560, Note_on_c, 2, 66, 36
3, 88612, Note_off_c, 2, 62, 64
3, 88785, Note_on_c, 2, 62, 38
3, 88832, Note_off_c, 2, 66, 64
3, 89062, Note_on_c, 2, 66, 30
3, 89140, Note_off_c, 2, 62, 64
3, 89292, Note_on_c, 2, 62, 40
3, 89355, Note_off_c, 2, 66, 64
3, 89537, Note_on_c, 2, 66, 30
3, 89595, Note_off_c, 2, 62, 64
3, 89762, Note_on_c, 2, 62, 35
3, 89810, Note_off_c, 2, 66, 64
3, 89982, Note_on_c, 2, 66, 33
3, 90237, Note_off_c, 2, 62, 64
3, 90237, Note_on_c, 2, 64, 42
3, 90287, Note_off_c, 2, 66, 64
3, 90492, Note_on_c, 2, 67, 41
3, 90530, Note_off_c, 2, 64, 64
3, 90737, Note_on_c, 2, 64, 38
3, 90767, Note_off_c, 2, 67, 64
3, 90972, Note_on_c, 2, 67, 42
3, 91005, Note_off_c, 2, 64, 64
3, 91202, Note_on_c, 2, 64, 102
3, 91207, Note_off_c, 2, 67, 64
3, 91322, Note_on_c, 2, 66, 60
3, 91370, Note_off_c, 2, 64, 64
3, 91457, Note_on_c, 2, 67, 64
3, 91480, Note_off_c, 2, 66, 64
3, 91557, Note_on_c, 2, 66, 68
3, 91612, Note_off_c, 2, 67, 64
3, 91687, Note_on_c, 2, 64, 71
3, 91740, Note_off_c, 2, 66, 64
3, 91807, Note_on_c, 2, 62, 75
3, 91822, Note_off_c, 2, 64, 64
3, 91925, Note_on_c, 2, 61, 77
3, 91932, Note_off_c, 2, 62, 64
3, 92057, Note_on_c, 2, 59, 82
3, 92090, Note_off_c, 2, 61, 64
3, 92182, Note_on_c, 2, 57, 86
3, 92192, Note_off_c, 2, 59, 64
3, 92407, Note_on_c, 2, 61, 42
3, 92477, Note_off_c, 2, 57, 64
3, 92642, Note_on_c, 2, 57, 37
3, 92657, Note_off_c, 2, 61, 64
3, 92897, Note_on_c, 2, 61, 35
3, 92967, Note_off_c, 2, 57, 64
3, 93115, Note_on_c, 2, 57, 46
3, 93122, Note_off_c, 2, 61, 64
3, 93355, Note_on_c, 2, 61, 42
3, 93435, Note_off_c, 2, 57, 64
3, 93590, Note_on_c, 2, 55, 55
3, 93600, Note_off_c, 2, 61, 64
3, 93822, Note_on_c, 2, 61, 41
3, 93872, Note_off_c, 2, 55, 64
3, 94097, Note_on_c, 2, 54, 64
3, 94112, Note_off_c, 2, 61, 64
3, 94327, Note_on_c, 2, 62, 53
3, 94355, Note_off_c, 2, 54, 64
3, 94567, Note_on_c, 2, 54, 40
3, 94587, Note_off_c, 2, 62, 64
3, 94810, Note_on_c, 2, 62, 49
3, 94835, Control_c, 2, 64, 127
3, 94835, Control_c, 2, 64, 127
3, 94835, Control_c, 2, 64, 127
3, 94855, Note_off_c, 2, 54, 64
3, 94917, Note_off_c, 2, 62, 64
3, 95062, Note_on_c, 2, 54, 119
3, 95067, Control_c, 2, 64, 0
3, 95070, Control_c, 2, 64, 0
3, 95070, Control_c, 2, 64, 0
3, 95177, Note_on_c, 2, 50, 62
3, 95200, Note_off_c, 2, 54, 64
3, 95292, Note_on_c, 2, 52, 68
3, 95312, Note_off_c, 2, 50, 64
3, 95392, Note_on_c, 2, 54, 73
3, 95427, Note_off_c, 2, 52, 64
3, 95522, Note_on_c, 2, 55, 79
3, 95527, Note_off_c, 2, 54, 64
3, 95632, Note_on_c, 2, 57, 84
3, 95640, Note_off_c, 2, 55, 64
3, 95752, Note_on_c, 2, 59, 91
3, 95767, Note_off_c, 2, 57, 64
3, 95867, Note_on_c, 2, 61, 97
3, 95887, Note_off_c, 2, 59, 64
3, 95950, Note_off_c, 2, 61, 64
3, 96007, Note_on_c, 2, 62, 104
3, 96477, Note_off_c, 2, 62, 64
3, 97202, Note_on_c, 2, 57, 95
3, 97210, Note_on_c, 2, 54, 95
3, 97247, Note_off_c, 2, 57, 64
3, 97250, Note_off_c, 2, 54, 64
3, 97442, Note_on_c, 2, 57, 95
3, 97460, Note_on_c, 2, 54, 95
3, 97485, Note_off_c, 2, 57, 64
3, 97495, Note_off_c, 2, 54, 64
3, 97687, Note_on_c, 2, 57, 102
3, 97695, Note_on_c, 2, 54, 102
3, 97732, Note_off_c, 2, 54, 64
3, 97732, Note_off_c, 2, 57, 64
3, 97927, Note_on_c, 2, 59, 111
3, 97937, Note_on_c, 2, 55, 111
3, 98000, Note_off_c, 2, 59, 64
3, 98010, Note_off_c, 2, 55, 64
3, 99115, Note_on_c, 2, 59, 97
3, 99122, Note_on_c, 2, 55, 81
3, 99155, Note_off_c, 2, 59, 64
3, 99175, Note_off_c, 2, 55, 64
3, 99345, Note_on_c, 2, 59, 97
3, 99347, Note_on_c, 2, 55, 69
3, 99387, Note_off_c, 2, 59, 64
3, 99397, Note_off_c, 2, 55, 64
3, 99577, Note_on_c, 2, 59, 99
3, 99577, Note_on_c, 2, 56, 108
3, 99622, Note_off_c, 2, 56, 64
3, 99630, Note_off_c, 2, 59, 64
3, 99820, Note_on_c, 2, 57, 88
3, 99867, Note_off_c, 2, 57, 64
3, 100072, Note_on_c, 2, 55, 102
3, 100122, Note_off_c, 2, 55, 64
3, 100310, Note_on_c, 2, 54, 115
3, 100345, Note_off_c, 2, 54, 64
3, 100557, Note_on_c, 2, 50, 86
3, 100607, Note_off_c, 2, 50, 64
3, 100802, Note_on_c, 2, 49, 99
3, 100867, Note_off_c, 2, 49, 64
3, 101052, Note_on_c, 2, 45, 73
3, 101120, Note_off_c, 2, 45, 64
3, 101292, Note_on_c, 2, 50, 108
3, 101335, Note_off_c, 2, 50, 64
3, 101537, Note_on_c, 2, 54, 88
3, 101582, Note_off_c, 2, 54, 64
3, 101780, Note_on_c, 2, 57, 108
3, 101840, Note_off_c, 2, 57, 64
3, 102027, Note_on_c, 2, 55, 86
3, 102085, Note_off_c, 2, 55, 64
3, 102247, Note_on_c, 2, 54, 108
3, 102297, Note_off_c, 2, 54, 64
3, 102492, Note_on_c, 2, 50, 79
3, 102540, Note_off_c, 2, 50, 64
3, 102745, Note_on_c, 2, 49, 119
3, 102805, Note_off_c, 2, 49, 64
3, 102972, Note_on_c, 2, 45, 74
3, 103045, Note_off_c, 2, 45, 64
3, 103192, Note_on_c, 2, 50, 90
3, 103245, Note_off_c, 2, 50, 64
3, 103442, Note_on_c, 2, 54, 119
3, 103480, Note_off_c, 2, 54, 64
3, 103687, Note_on_c, 2, 57, 75
3, 103687, Note_on_c, 2, 52, 75
3, 103690, Note_on_c, 2, 45, 75
3, 103750, Control_c, 2, 64, 127
3, 103750, Control_c, 2, 64, 127
3, 103750, Control_c, 2, 64, 127
3, 103962, Note_off_c, 2, 45, 64
3, 103965, Note_off_c, 2, 52, 64
3, 103985, Note_off_c, 2, 57, 64
3, 104015, Control_c, 2, 64, 0
3, 104015, Control_c, 2, 64, 0
3, 104015, Control_c, 2, 64, 0
3, 104172, Note_on_c, 2, 50, 97
3, 104177, Note_on_c, 2, 57, 97
3, 104177, Note_on_c, 2, 54, 97
3, 104365, Control_c, 2, 64, 127
3, 104365, Control_c, 2, 64, 127
3, 104367, Control_c, 2, 64, 127
3, 104425, Note_off_c, 2, 50, 64
3, 104432, Note_off_c, 2, 54, 64
3, 104450, Note_off_c, 2, 57, 64
3, 104455, Control_c, 2, 64, 0
3, 104455, Control_c, 2, 64, 0
3, 104455, Control_c, 2, 64, 0
3, 104635, Note_on_c, 2, 57, 71
3, 104637, Note_on_c, 2, 52, 71
3, 104637, Note_on_c, 2, 45, 71
3, 104802, Control_c, 2, 64, 127
3, 104802, Control_c, 2, 64, 127
3, 104802, Control_c, 2, 64, 127
3, 104907, Note_off_c, 2, 45, 64
3, 104912, Note_off_c, 2, 52, 64
3, 104922, Note_off_c, 2, 57, 64
3, 104950, Control_c, 2, 64, 0
3, 104955, Control_c, 2, 64, 0
3, 104955, Control_c, 2, 64, 0
3, 105102, Note_on_c, 2, 57, 97
3, 105102, Note_on_c, 2, 54, 97
3, 105102, Note_on_c, 2, 50, 97
3, 105415, Note_off_c, 2, 50, 64
3, 105435, Note_off_c, 2, 54, 64
3, 105450, Note_off_c, 2, 57, 64
3, 105872, Note_on_c, 2, 52, 97
3, 105872, Note_on_c, 2, 45, 83
3, 105872, Note_on_c, 2, 49, 99
3, 105872, Note_on_c, 2, 57, 86
3, 105945, Note_off_c, 2, 45, 64
3, 105950, Note_off_c, 2, 52, 64
3, 105960, Note_off_c, 2, 49, 64
3, 105960, Note_off_c, 2, 57, 64
3, 106139, Note_on_c, 2, 49, 83
3, 106139, Note_on_c, 2, 45, 75
3, 106139, Note_on_c, 2, 52, 83
3, 106139, Note_on_c, 2, 57, 83
3, 106207, Note_off_c, 2, 45, 64
3, 106212, Note_off_c, 2, 52, 64
3, 106217, Note_off_c, 2, 49, 64
3, 106222, Note_off_c, 2, 57, 64
3, 106406, Note_on_c, 2, 57, 115
3, 106406, Note_on_c, 2, 49, 115
3, 106406, Note_on_c, 2, 45, 115
3, 106406, Note_on_c, 2, 52, 115
3, 106469, Note_off_c, 2, 45, 64
3, 106469, Note_off_c, 2, 49, 64
3, 106469, Note_off_c, 2, 57, 64
3, 106474, Note_off_c, 2, 52, 64
3, 106682, Note_on_c, 2, 45, 124
3, 106682, Note_on_c, 2, 51, 124
3, 106682, Note_on_c, 2, 49, 124
3, 106682, Note_on_c, 2, 52, 124
3, 106682, Note_on_c, 2, 57, 124
3, 106712, Note_off_c, 2, 51, 64
3, 106795, Note_off_c, 2, 49, 64
3, 106795, Note_off_c, 2, 52, 64
3, 106799, Note_off_c, 2, 57, 64
3, 106802, Note_off_c, 2, 45, 64
3, 107532, Note_on_c, 2, 57, 49
3, 107680, Control_c, 2, 64, 127
3, 107680, Control_c, 2, 64, 127
3, 107680, Control_c, 2, 64, 127
3, 107767, Note_on_c, 2, 61, 40
3, 107812, Note_off_c, 2, 57, 64
3, 107972, Control_c, 2, 64, 0
3, 107972, Control_c, 2, 64, 0
3, 107972, Control_c, 2, 64, 0
3, 108002, Note_on_c, 2, 59, 43
3, 108015, Note_off_c, 2, 61, 64
3, 108247, Note_on_c, 2, 62, 43
3, 108277, Note_off_c, 2, 59, 64
3, 108477, Note_on_c, 2, 61, 44
3, 108507, Note_off_c, 2, 62, 64
3, 108727, Note_on_c, 2, 64, 53
3, 108780, Note_off_c, 2, 61, 64
3, 108985, Note_on_c, 2, 57, 38
3, 109020, Note_off_c, 2, 64, 64
3, 109200, Note_on_c, 2, 61, 43
3, 109275, Note_off_c, 2, 57, 64
3, 109317, Note_off_c, 2, 61, 64
3, 109437, Note_on_c, 2, 59, 58
3, 109672, Note_on_c, 2, 66, 44
3, 109750, Note_off_c, 2, 59, 64
3, 109905, Note_on_c, 2, 62, 45
3, 109940, Note_off_c, 2, 66, 64
3, 110115, Control_c, 2, 64, 127
3, 110115, Control_c, 2, 64, 127
3, 110115, Control_c, 2, 64, 127
3, 110155, Note_on_c, 2, 59, 44
3, 110160, Note_off_c, 2, 62, 64
3, 110257, Note_off_c, 2, 59, 64
3, 110400, Note_on_c, 2, 56, 52
3, 110437, Control_c, 2, 64, 0
3, 110437, Control_c, 2, 64, 0
3, 110437, Control_c, 2, 64, 0
3, 110640, Note_on_c, 2, 59, 52
3, 110665, Note_off_c, 2, 56, 64
3, 110892, Note_on_c, 2, 52, 50
3, 110912, Note_off_c, 2, 59, 64
3, 111122, Note_on_c, 2, 62, 49
3, 111137, Control_c, 2, 64, 127
3, 111142, Control_c, 2, 64, 127
3, 111142, Control_c, 2, 64, 127
3, 111165, Note_off_c, 2, 52, 64
3, 111250, Note_off_c, 2, 62, 64
3, 111382, Note_on_c, 2, 61, 24
3, 111400, Control_c, 2, 64, 0
3, 111405, Control_c, 2, 64, 0
3, 111405, Control_c, 2, 64, 0
3, 111577, Control_c, 2, 64, 127
3, 111577, Control_c, 2, 64, 127
3, 111577, Control_c, 2, 64, 127
3, 111612, Note_on_c, 2, 64, 40
3, 111642, Note_off_c, 2, 61, 64
3, 111682, Note_off_c, 2, 64, 64
3, 111832, Note_on_c, 2, 56, 36
3, 111867, Control_c, 2, 64, 0
3, 111867, Control_c, 2, 64, 0
3, 111867, Control_c, 2, 64, 0
3, 111990, Control_c, 2, 64, 127
3, 111990, Control_c, 2, 64, 127
3, 111990, Control_c, 2, 64, 127
3, 112060, Note_on_c, 2, 64, 58
3, 112097, Note_off_c, 2, 56, 64
3, 112160, Note_off_c, 2, 64, 64
3, 112307, Note_on_c, 2, 57, 53
3, 112312, Control_c, 2, 64, 0
3, 112312, Control_c, 2, 64, 0
3, 112312, Control_c, 2, 64, 0
3, 112547, Note_on_c, 2, 64, 47
3, 112577, Control_c, 2, 64, 127
3, 112577, Control_c, 2, 64, 127
3, 112577, Control_c, 2, 64, 127
3, 112610, Note_off_c, 2, 57, 64
3, 112640, Note_off_c, 2, 64, 64
3, 112792, Note_on_c, 2, 54, 51
3, 112842, Control_c, 2, 64, 0
3, 112842, Control_c, 2, 64, 0
3, 112842, Control_c, 2, 64, 0
3, 113042, Control_c, 2, 64, 127
3, 113047, Control_c, 2, 64, 127
3, 113047, Control_c, 2, 64, 127
3, 113047, Note_on_c, 2, 57, 51
3, 113065, Note_off_c, 2, 54, 64
3, 113112, Note_off_c, 2, 57, 64
3, 113280, Note_on_c, 2, 52, 53
3, 113305, Control_c, 2, 64, 0
3, 113310, Control_c, 2, 64, 0
3, 113310, Control_c, 2, 64, 0
3, 113515, Note_on_c, 2, 57, 57
3, 113605, Control_c, 2, 64, 127
3, 113605, Control_c, 2, 64, 127
3, 113605, Control_c, 2, 64, 127
3, 113757, Note_on_c, 2, 61, 57
3, 113812, Note_off_c, 2, 57, 64
3, 114000, Note_on_c, 2, 57, 66
3, 114022, Note_off_c, 2, 61, 64
3, 114042, Note_off_c, 2, 52, 64
3, 114050, Note_off_c, 2, 57, 64
3, 114260, Note_on_c, 2, 52, 58
3, 114262, Note_on_c, 2, 56, 67
3, 114277, Control_c, 2, 64, 0
3, 114280, Control_c, 2, 64, 0
3, 114280, Control_c, 2, 64, 0
3, 114357, Note_off_c, 2, 56, 64
3, 114357, Note_off_c, 2, 52, 64
3, 115207, Note_on_c, 2, 57, 55
3, 115445, Note_on_c, 2, 61, 39
3, 115517, Note_off_c, 2, 57, 64
3, 115687, Note_on_c, 2, 59, 43
3, 115712, Note_off_c, 2, 61, 64
3, 115920, Note_on_c, 2, 62, 40
3, 115947, Note_off_c, 2, 59, 64
3, 116157, Note_on_c, 2, 61, 48
3, 116172, Note_off_c, 2, 62, 64
3, 116415, Note_on_c, 2, 64, 49
3, 116440, Note_off_c, 2, 61, 64
3, 116647, Note_on_c, 2, 57, 40
3, 116695, Note_off_c, 2, 64, 64
3, 116877, Note_on_c, 2, 61, 39
3, 116952, Note_off_c, 2, 57, 64
3, 117055, Note_off_c, 2, 61, 64
3, 117112, Note_on_c, 2, 59, 54
3, 117357, Note_on_c, 2, 66, 48
3, 117422, Note_off_c, 2, 59, 64
3, 117585, Note_on_c, 2, 62, 44
3, 117630, Note_off_c, 2, 66, 64
3, 117795, Control_c, 2, 64, 127
3, 117795, Control_c, 2, 64, 127
3, 117800, Control_c, 2, 64, 127
3, 117832, Note_on_c, 2, 59, 38
3, 117850, Note_off_c, 2, 62, 64
3, 117935, Note_off_c, 2, 59, 64
3, 118070, Note_on_c, 2, 56, 46
3, 118115, Control_c, 2, 64, 0
3, 118120, Control_c, 2, 64, 0
3, 118120, Control_c, 2, 64, 0
3, 118292, Control_c, 2, 64, 127
3, 118292, Control_c, 2, 64, 127
3, 118292, Control_c, 2, 64, 127
3, 118322, Note_on_c, 2, 59, 53
3, 118345, Note_off_c, 2, 56, 64
3, 118560, Control_c, 2, 64, 0
3, 118562, Note_off_c, 2, 59, 64
3, 118562, Control_c, 2, 64, 0
3, 118562, Control_c, 2, 64, 0
3, 118562, Note_on_c, 2, 52, 44
3, 118817, Note_on_c, 2, 56, 39
3, 118877, Note_off_c, 2, 52, 64
3, 119042, Note_on_c, 2, 57, 42
3, 119080, Note_off_c, 2, 56, 64
3, 119307, Note_off_c, 2, 57, 64
3, 119522, Note_on_c, 2, 62, 71
3, 119527, Note_on_c, 2, 50, 71
3, 119700, Control_c, 2, 64, 127
3, 119705, Control_c, 2, 64, 127
3, 119705, Control_c, 2, 64, 127
3, 119820, Note_off_c, 2, 50, 64
3, 119847, Note_off_c, 2, 62, 64
3, 120012, Note_on_c, 2, 61, 55
3, 120017, Note_on_c, 2, 52, 55
3, 120055, Control_c, 2, 64, 0
3, 120055, Control_c, 2, 64, 0
3, 120055, Control_c, 2, 64, 0
3, 120502, Note_on_c, 2, 59, 65
3, 120540, Note_off_c, 2, 52, 64
3, 120540, Note_off_c, 2, 61, 64
3, 120992, Note_off_c, 2, 59, 64
3, 120992, Note_on_c, 2, 57, 66
3, 121150, Note_off_c, 2, 57, 64
3, 121712, Note_on_c, 2, 69, 86
3, 121770, Note_off_c, 2, 69, 64
3, 121965, Note_on_c, 2, 71, 108
3, 122027, Note_off_c, 2, 71, 64
3, 122195, Note_on_c, 2, 69, 70
3, 122255, Note_off_c, 2, 69, 64
3, 122440, Note_on_c, 2, 68, 62
3, 122505, Note_off_c, 2, 68, 64
3, 122675, Note_on_c, 2, 64, 83
3, 122737, Note_off_c, 2, 64, 64
3, 122895, Note_on_c, 2, 69, 92
3, 123010, Note_off_c, 2, 69, 64
3, 123592, Note_on_c, 2, 57, 94
3, 123680, Note_off_c, 2, 57, 64
3, 123847, Note_on_c, 2, 59, 97
3, 123930, Note_off_c, 2, 59, 64
3, 124087, Note_on_c, 2, 57, 59
3, 124147, Note_off_c, 2, 57, 64
3, 124317, Note_on_c, 2, 56, 69
3, 124375, Note_off_c, 2, 56, 64
3, 124557, Note_on_c, 2, 52, 75
3, 124612, Note_off_c, 2, 52, 64
3, 124792, Note_on_c, 2, 57, 84
3, 124912, Note_on_c, 2, 64, 97
3, 124942, Note_off_c, 2, 57, 64
3, 124950, Control_c, 2, 64, 127
3, 124950, Control_c, 2, 64, 127
3, 124950, Control_c, 2, 64, 127
3, 125030, Note_on_c, 2, 63, 102
3, 125042, Note_off_c, 2, 64, 64
3, 125147, Note_on_c, 2, 64, 64
3, 125157, Note_off_c, 2, 63, 64
3, 125157, Control_c, 2, 64, 0
3, 125157, Control_c, 2, 64, 0
3, 125157, Control_c, 2, 64, 0
3, 125262, Note_on_c, 2, 66, 59
3, 125285, Note_off_c, 2, 64, 64
3, 125392, Note_on_c, 2, 64, 55
3, 125392, Control_c, 2, 64, 127
3, 125392, Control_c, 2, 64, 127
3, 125392, Control_c, 2, 64, 127
3, 125422, Note_off_c, 2, 66, 64
3, 125507, Note_on_c, 2, 63, 35
3, 125527, Note_off_c, 2, 64, 64
3, 125637, Note_on_c, 2, 64, 59
3, 125662, Note_off_c, 2, 63, 64
3, 125760, Note_on_c, 2, 62, 74
3, 125777, Note_off_c, 2, 64, 64
3, 125802, Control_c, 2, 64, 0
3, 125802, Control_c, 2, 64, 0
3, 125805, Control_c, 2, 64, 0
3, 125877, Note_on_c, 2, 64, 53
3, 125892, Note_off_c, 2, 62, 64
3, 125992, Note_on_c, 2, 62, 51
3, 126012, Note_off_c, 2, 64, 64
3, 126125, Note_off_c, 2, 62, 64
3, 126125, Note_on_c, 2, 64, 53
3, 126237, Note_on_c, 2, 62, 55
3, 126247, Note_off_c, 2, 64, 64
3, 126362, Note_on_c, 2, 64, 44
3, 126377, Note_off_c, 2, 62, 64
3, 126482, Note_on_c, 2, 62, 49
3, 126487, Note_off_c, 2, 64, 64
3, 126602, Note_on_c, 2, 64, 51
3, 126607, Note_off_c, 2, 62, 64
3, 126737, Note_on_c, 2, 61, 77
3, 126755, Note_off_c, 2, 64, 64
3, 126842, Note_on_c, 2, 64, 62
3, 126850, Note_off_c, 2, 61, 64
3, 126957, Note_on_c, 2, 63, 74
3, 126982, Note_off_c, 2, 64, 64
3, 127072, Note_on_c, 2, 64, 67
3, 127087, Note_off_c, 2, 63, 64
3, 127182, Note_on_c, 2, 66, 86
3, 127207, Note_off_c, 2, 64, 64
3, 127295, Note_on_c, 2, 64, 78
3, 127337, Note_off_c, 2, 66, 64
3, 127427, Note_on_c, 2, 63, 90
3, 127457, Note_off_c, 2, 64, 64
3, 127542, Note_on_c, 2, 64, 66
3, 127592, Note_off_c, 2, 63, 64
3, 127677, Note_on_c, 2, 62, 70
3, 127702, Note_off_c, 2, 64, 64
3, 127802, Note_on_c, 2, 64, 54
3, 127822, Note_off_c, 2, 62, 64
3, 127917, Note_on_c, 2, 62, 52
3, 127942, Note_off_c, 2, 64, 64
3, 128030, Note_on_c, 2, 64, 60
3, 128052, Note_off_c, 2, 62, 64
3, 128162, Note_on_c, 2, 62, 48
3, 128190, Note_off_c, 2, 64, 64
3, 128272, Note_on_c, 2, 64, 54
3, 128297, Note_off_c, 2, 62, 64
3, 128402, Note_on_c, 2, 62, 44
3, 128420, Note_off_c, 2, 64, 64
3, 128505, Note_on_c, 2, 64, 49
3, 128517, Note_off_c, 2, 62, 64
3, 128662, Note_on_c, 2, 61, 42
3, 128675, Note_off_c, 2, 64, 64
3, 128735, Control_c, 2, 64, 127
3, 128737, Control_c, 2, 64, 127
3, 128737, Control_c, 2, 64, 127
3, 128820, Note_off_c, 2, 61, 64
3, 128912, Control_c, 2, 64, 0
3, 128912, Control_c, 2, 64, 0
3, 128912, Control_c, 2, 64, 0
3, 129122, Note_on_c, 2, 61, 41
3, 129147, Control_c, 2, 64, 127
3, 129147, Control_c, 2, 64, 127
3, 129147, Control_c, 2, 64, 127
3, 129242, Note_off_c, 2, 61, 64
3, 129250, Note_on_c, 2, 69, 36
3, 129355, Note_on_c, 2, 61, 36
3, 129362, Note_off_c, 2, 69, 64
3, 129470, Note_on_c, 2, 69, 50
3, 129482, Note_off_c, 2, 61, 64
3, 129585, Note_off_c, 2, 69, 64
3, 129595, Note_on_c, 2, 59, 51
3, 129670, Control_c, 2, 64, 0
3, 129670, Control_c, 2, 64, 0
3, 129670, Control_c, 2, 64, 0
3, 129705, Note_on_c, 2, 69, 49
3, 129732, Note_off_c, 2, 59, 64
3, 129732, Control_c, 2, 64, 127
3, 129732, Control_c, 2, 64, 127
3, 129735, Control_c, 2, 64, 127
3, 129832, Note_off_c, 2, 69, 64
3, 129832, Note_on_c, 2, 59, 55
3, 129942, Note_on_c, 2, 69, 52
3, 129947, Note_off_c, 2, 59, 64
3, 130025, Note_off_c, 2, 69, 64
3, 130067, Note_on_c, 2, 57, 58
3, 130115, Control_c, 2, 64, 0
3, 130115, Control_c, 2, 64, 0
3, 130115, Control_c, 2, 64, 0
3, 130202, Note_on_c, 2, 69, 42
3, 130202, Control_c, 2, 64, 127
3, 130202, Control_c, 2, 64, 127
3, 130202, Control_c, 2, 64, 127
3, 130207, Note_off_c, 2, 57, 64
3, 130280, Note_off_c, 2, 69, 64
3, 130310, Note_on_c, 2, 57, 45
3, 130422, Note_on_c, 2, 69, 56
3, 130427, Note_off_c, 2, 57, 64
3, 130485, Note_off_c, 2, 69, 64
3, 130547, Note_on_c, 2, 62, 62
3, 130582, Control_c, 2, 64, 0
3, 130585, Control_c, 2, 64, 0
3, 130585, Control_c, 2, 64, 0
3, 130680, Note_on_c, 2, 69, 48
3, 130757, Control_c, 2, 64, 127
3, 130757, Control_c, 2, 64, 127
3, 130757, Control_c, 2, 64, 127
3, 130785, Note_on_c, 2, 68, 38
3, 130797, Note_off_c, 2, 69, 64
3, 130847, Note_off_c, 2, 62, 64
3, 130910, Note_on_c, 2, 69, 44
3, 130947, Note_off_c, 2, 68, 64
3, 131020, Note_off_c, 2, 69, 64
3, 131025, Note_on_c, 2, 62, 59
3, 131025, Control_c, 2, 64, 0
3, 131027, Control_c, 2, 64, 0
3, 131027, Control_c, 2, 64, 0
3, 131145, Note_on_c, 2, 69, 42
3, 131260, Note_on_c, 2, 68, 38
3, 131270, Note_off_c, 2, 69, 64
3, 131282, Note_off_c, 2, 62, 64
3, 131377, Note_on_c, 2, 69, 47
3, 131422, Note_off_c, 2, 68, 64
3, 131502, Note_off_c, 2, 69, 64
3, 131512, Note_on_c, 2, 62, 68
3, 131627, Note_on_c, 2, 69, 47
3, 131710, Note_off_c, 2, 62, 64
3, 131757, Note_on_c, 2, 68, 37
3, 131777, Note_off_c, 2, 69, 64
3, 131887, Note_on_c, 2, 69, 50
3, 131935, Note_off_c, 2, 68, 64
3, 131997, Note_off_c, 2, 69, 64
3, 132010, Note_on_c, 2, 62, 57
3, 132122, Note_on_c, 2, 69, 54
3, 132242, Note_on_c, 2, 68, 38
3, 132257, Note_off_c, 2, 62, 64
3, 132267, Note_off_c, 2, 69, 64
3, 132287, Control_c, 2, 64, 127
3, 132287, Control_c, 2, 64, 127
3, 132287, Control_c, 2, 64, 127
3, 132372, Note_on_c, 2, 69, 61
3, 132395, Note_off_c, 2, 68, 64
3, 132440, Note_off_c, 2, 69, 64
3, 132497, Note_on_c, 2, 61, 57
3, 132520, Control_c, 2, 64, 0
3, 132520, Control_c, 2, 64, 0
3, 132520, Control_c, 2, 64, 0
3, 132597, Note_on_c, 2, 69, 59
3, 132712, Note_on_c, 2, 68, 45
3, 132722, Note_off_c, 2, 69, 64
3, 132732, Note_off_c, 2, 61, 64
3, 132837, Note_on_c, 2, 69, 54
3, 132862, Note_off_c, 2, 68, 64
3, 132900, Note_off_c, 2, 69, 64
3, 132967, Note_on_c, 2, 61, 86
3, 133020, Control_c, 2, 64, 127
3, 133020, Control_c, 2, 64, 127
3, 133020, Control_c, 2, 64, 127
3, 133072, Note_on_c, 2, 69, 62
3, 133092, Note_off_c, 2, 61, 64
3, 133195, Note_on_c, 2, 61, 84
3, 133197, Note_off_c, 2, 69, 64
3, 133302, Note_on_c, 2, 69, 66
3, 133332, Note_off_c, 2, 61, 64
3, 133407, Note_off_c, 2, 69, 64
3, 133432, Note_on_c, 2, 59, 81
3, 133480, Control_c, 2, 64, 0
3, 133480, Control_c, 2, 64, 0
3, 133480, Control_c, 2, 64, 0
3, 133532, Note_on_c, 2, 69, 73
3, 133562, Note_off_c, 2, 59, 64
3, 133587, Control_c, 2, 64, 127
3, 133587, Control_c, 2, 64, 127
3, 133587, Control_c, 2, 64, 127
3, 133665, Note_on_c, 2, 59, 83
3, 133670, Note_off_c, 2, 69, 64
3, 133770, Note_on_c, 2, 69, 62
3, 133787, Note_off_c, 2, 59, 64
3, 133882, Note_off_c, 2, 69, 64
3, 133892, Note_on_c, 2, 57, 77
3, 133927, Control_c, 2, 64, 0
3, 133927, Control_c, 2, 64, 0
3, 133927, Control_c, 2, 64, 0
3, 134010, Control_c, 2, 64, 127
3, 134010, Control_c, 2, 64, 127
3, 134010, Control_c, 2, 64, 127
3, 134017, Note_on_c, 2, 69, 73
3, 134057, Note_off_c, 2, 57, 64
3, 134150, Note_on_c, 2, 57, 86
3, 134155, Note_off_c, 2, 69, 64
3, 134265, Note_on_c, 2, 69, 77
3, 134290, Note_off_c, 2, 57, 64
3, 134320, Note_off_c, 2, 69, 64
3, 134397, Control_c, 2, 64, 0
3, 134397, Control_c, 2, 64, 0
3, 134397, Control_c, 2, 64, 0
3, 134397, Note_on_c, 2, 50, 74
3, 134522, Note_on_c, 2, 59, 64
3, 134567, Control_c, 2, 64, 127
3, 134567, Control_c, 2, 64, 127
3, 134567, Control_c, 2, 64, 127
3, 134637, Note_on_c, 2, 54, 77
3, 134647, Note_off_c, 2, 50, 64
3, 134652, Note_off_c, 2, 59, 64
3, 134752, Note_on_c, 2, 59, 86
3, 134762, Note_off_c, 2, 54, 64
3, 134880, Note_off_c, 2, 59, 64
3, 134887, Note_on_c, 2, 50, 69
3, 134925, Control_c, 2, 64, 0
3, 134925, Control_c, 2, 64, 0
3, 134925, Control_c, 2, 64, 0
3, 134987, Note_on_c, 2, 59, 77
3, 135012, Control_c, 2, 64, 127
3, 135012, Control_c, 2, 64, 127
3, 135012, Control_c, 2, 64, 127
3, 135110, Note_off_c, 2, 59, 64
3, 135120, Note_on_c, 2, 54, 86
3, 135137, Note_off_c, 2, 50, 64
3, 135237, Note_on_c, 2, 59, 66
3, 135245, Note_off_c, 2, 54, 64
3, 135310, Note_off_c, 2, 59, 64
3, 135387, Note_on_c, 2, 52, 73
3, 135392, Control_c, 2, 64, 0
3, 135395, Control_c, 2, 64, 0
3, 135395, Control_c, 2, 64, 0
3, 135497, Note_on_c, 2, 61, 78
3, 135512, Control_c, 2, 64, 127
3, 135512, Control_c, 2, 64, 127
3, 135512, Control_c, 2, 64, 127
3, 135612, Note_on_c, 2, 57, 72
3, 135622, Note_off_c, 2, 61, 64
3, 135645, Note_off_c, 2, 52, 64
3, 135730, Note_on_c, 2, 61, 81
3, 135760, Note_off_c, 2, 57, 64
3, 135827, Note_off_c, 2, 61, 64
3, 135862, Control_c, 2, 64, 0
3, 135862, Control_c, 2, 64, 0
3, 135862, Control_c, 2, 64, 0
3, 135865, Note_on_c, 2, 52, 64
3, 135972, Note_on_c, 2, 62, 73
3, 136010, Control_c, 2, 64, 127
3, 136010, Control_c, 2, 64, 127
3, 136010, Control_c, 2, 64, 127
3, 136082, Note_off_c, 2, 62, 64
3, 136087, Note_on_c, 2, 56, 59
3, 136100, Note_off_c, 2, 52, 64
3, 136202, Note_off_c, 2, 56, 64
3, 136202, Note_on_c, 2, 62, 65
3, 136247, Note_off_c, 2, 62, 64
3, 136330, Control_c, 2, 64, 0
3, 136330, Control_c, 2, 64, 0
3, 136330, Control_c, 2, 64, 0
3, 136342, Note_on_c, 2, 57, 49
3, 136465, Note_on_c, 2, 64, 40
3, 136477, Control_c, 2, 64, 127
3, 136477, Control_c, 2, 64, 127
3, 136480, Control_c, 2, 64, 127
3, 136572, Note_on_c, 2, 61, 44
3, 136575, Note_off_c, 2, 64, 64
3, 136582, Note_off_c, 2, 57, 64
3, 136677, Note_off_c, 2, 61, 64
3, 136682, Note_on_c, 2, 64, 56
3, 136727, Note_off_c, 2, 64, 64
3, 136807, Note_on_c, 2, 61, 44
3, 136887, Control_c, 2, 64, 0
3, 136887, Control_c, 2, 64, 0
3, 136887, Control_c, 2, 64, 0
3, 136912, Control_c, 2, 64, 127
3, 136912, Control_c, 2, 64, 127
3, 136912, Control_c, 2, 64, 127
3, 136927, Note_on_c, 2, 69, 48
3, 136942, Note_off_c, 2, 61, 64
3, 137027, Note_off_c, 2, 69, 64
3, 137037, Note_on_c, 2, 61, 44
3, 137157, Note_on_c, 2, 69, 49
3, 137162, Note_off_c, 2, 61, 64
3, 137245, Note_off_c, 2, 69, 64
3, 137282, Note_on_c, 2, 59, 39
3, 137297, Control_c, 2, 64, 0
3, 137302, Control_c, 2, 64, 0
3, 137302, Control_c, 2, 64, 0
3, 137385, Note_on_c, 2, 69, 55
3, 137387, Control_c, 2, 64, 127
3, 137387, Control_c, 2, 64, 127
3, 137387, Control_c, 2, 64, 127
3, 137397, Note_off_c, 2, 59, 64
3, 137505, Note_off_c, 2, 69, 64
3, 137512, Note_on_c, 2, 59, 40
3, 137610, Note_off_c, 2, 59, 64
3, 137625, Note_on_c, 2, 69, 46
3, 137705, Note_off_c, 2, 69, 64
3, 137742, Note_on_c, 2, 57, 39
3, 137762, Control_c, 2, 64, 0
3, 137762, Control_c, 2, 64, 0
3, 137762, Control_c, 2, 64, 0
3, 137857, Control_c, 2, 64, 127
3, 137857, Control_c, 2, 64, 127
3, 137857, Control_c, 2, 64, 127
3, 137857, Note_on_c, 2, 69, 39
3, 137897, Note_off_c, 2, 57, 64
3, 137967, Note_off_c, 2, 69, 64
3, 137990, Note_on_c, 2, 57, 37
3, 138095, Note_off_c, 2, 57, 64
3, 138100, Note_on_c, 2, 69, 42
3, 138162, Note_off_c, 2, 69, 64
3, 138225, Note_on_c, 2, 62, 59
3, 138267, Control_c, 2, 64, 0
3, 138267, Control_c, 2, 64, 0
3, 138267, Control_c, 2, 64, 0
3, 138340, Note_on_c, 2, 69, 51
3, 138392, Note_off_c, 2, 62, 64
3, 138465, Note_on_c, 2, 68, 37
3, 138482, Note_off_c, 2, 69, 64
3, 138582, Note_on_c, 2, 69, 50
3, 138592, Note_off_c, 2, 68, 64
3, 138707, Note_off_c, 2, 69, 64
3, 138712, Note_on_c, 2, 62, 53
3, 138837, Note_on_c, 2, 69, 48
3, 138880, Note_off_c, 2, 62, 64
3, 138967, Note_on_c, 2, 68, 42
3, 138992, Note_off_c, 2, 69, 64
3, 139077, Note_on_c, 2, 69, 52
3, 139107, Note_off_c, 2, 68, 64
3, 139207, Note_off_c, 2, 69, 64
3, 139207, Note_on_c, 2, 62, 56
3, 139322, Note_on_c, 2, 69, 49
3, 139342, Note_off_c, 2, 62, 64
3, 139452, Note_on_c, 2, 68, 43
3, 139472, Note_off_c, 2, 69, 64
3, 139567, Note_on_c, 2, 69, 57
3, 139592, Note_off_c, 2, 68, 64
3, 139685, Note_on_c, 2, 62, 57
3, 139707, Note_off_c, 2, 69, 64
3, 139810, Note_on_c, 2, 69, 55
3, 139865, Note_off_c, 2, 62, 64
3, 139932, Note_on_c, 2, 68, 51
3, 139960, Note_off_c, 2, 69, 64
3, 140067, Note_on_c, 2, 69, 52
3, 140100, Note_off_c, 2, 68, 64
3, 140180, Note_off_c, 2, 69, 64
3, 140182, Note_on_c, 2, 61, 66
3, 140282, Note_on_c, 2, 69, 59
3, 140350, Note_off_c, 2, 61, 64
3, 140397, Note_on_c, 2, 68, 45
3, 140412, Note_off_c, 2, 69, 64
3, 140522, Note_on_c, 2, 69, 64
3, 140562, Note_off_c, 2, 68, 64
3, 140620, Note_off_c, 2, 69, 64
3, 140642, Note_on_c, 2, 61, 86
3, 140745, Note_on_c, 2, 69, 66
3, 140777, Note_off_c, 2, 61, 64
3, 140882, Note_off_c, 2, 69, 64
3, 140882, Note_on_c, 2, 61, 86
3, 140960, Control_c, 2, 64, 127
3, 140960, Control_c, 2, 64, 127
3, 140960, Control_c, 2, 64, 127
3, 141010, Note_on_c, 2, 69, 62
3, 141032, Note_off_c, 2, 61, 64
3, 141107, Control_c, 2, 64, 0
3, 141107, Control_c, 2, 64, 0
3, 141107, Control_c, 2, 64, 0
3, 141125, Note_off_c, 2, 69, 64
3, 141127, Note_on_c, 2, 59, 84
3, 141237, Note_on_c, 2, 69, 55
3, 141262, Note_off_c, 2, 59, 64
3, 141315, Control_c, 2, 64, 127
3, 141320, Control_c, 2, 64, 127
3, 141320, Control_c, 2, 64, 127
3, 141350, Note_on_c, 2, 59, 80
3, 141370, Note_off_c, 2, 69, 64
3, 141477, Note_on_c, 2, 69, 59
3, 141502, Note_off_c, 2, 59, 64
3, 141600, Note_off_c, 2, 69, 64
3, 141600, Note_on_c, 2, 57, 81
3, 141670, Control_c, 2, 64, 0
3, 141670, Control_c, 2, 64, 0
3, 141670, Control_c, 2, 64, 0
3, 141717, Note_on_c, 2, 69, 53
3, 141722, Control_c, 2, 64, 127
3, 141722, Control_c, 2, 64, 127
3, 141722, Control_c, 2, 64, 127
3, 141740, Note_off_c, 2, 57, 64
3, 141830, Note_off_c, 2, 69, 64
3, 141830, Note_on_c, 2, 57, 80
3, 141955, Note_on_c, 2, 69, 64
3, 141990, Note_off_c, 2, 57, 64
3, 142015, Note_off_c, 2, 69, 64
3, 142075, Note_on_c, 2, 50, 79
3, 142107, Control_c, 2, 64, 0
3, 142110, Control_c, 2, 64, 0
3, 142110, Control_c, 2, 64, 0
3, 142192, Note_on_c, 2, 59, 66
3, 142280, Control_c, 2, 64, 127
3, 142280, Control_c, 2, 64, 127
3, 142280, Control_c, 2, 64, 127
3, 142315, Note_on_c, 2, 54, 68
3, 142320, Note_off_c, 2, 59, 64
3, 142345, Note_off_c, 2, 50, 64
3, 142432, Note_on_c, 2, 59, 86
3, 142472, Note_off_c, 2, 54, 64
3, 142562, Note_on_c, 2, 50, 77
3, 142567, Note_off_c, 2, 59, 64
3, 142602, Control_c, 2, 64, 0
3, 142602, Control_c, 2, 64, 0
3, 142602, Control_c, 2, 64, 0
3, 142672, Note_on_c, 2, 59, 68
3, 142725, Control_c, 2, 64, 127
3, 142725, Control_c, 2, 64, 127
3, 142725, Control_c, 2, 64, 127
3, 142802, Note_on_c, 2, 54, 60
3, 142820, Note_off_c, 2, 59, 64
3, 142872, Note_off_c, 2, 50, 64
3, 142905, Note_off_c, 2, 54, 64
3, 142917, Note_on_c, 2, 59, 69
3, 143020, Note_off_c, 2, 59, 64
3, 143052, Note_on_c, 2, 52, 72
3, 143075, Control_c, 2, 64, 0
3, 143075, Control_c, 2, 64, 0
3, 143075, Control_c, 2, 64, 0
3, 143167, Note_on_c, 2, 61, 64
3, 143220, Control_c, 2, 64, 127
3, 143225, Control_c, 2, 64, 127
3, 143225, Control_c, 2, 64, 127
3, 143280, Note_on_c, 2, 57, 68
3, 143282, Note_off_c, 2, 61, 64
3, 143355, Note_off_c, 2, 52, 64
3, 143385, Note_on_c, 2, 61, 79
3, 143415, Note_off_c, 2, 57, 64
3, 143512, Note_off_c, 2, 61, 64
3, 143512, Note_on_c, 2, 52, 79
3, 143517, Control_c, 2, 64, 0
3, 143517, Control_c, 2, 64, 0
3, 143517, Control_c, 2, 64, 0
3, 143630, Note_on_c, 2, 62, 60
3, 143685, Control_c, 2, 64, 127
3, 143685, Control_c, 2, 64, 127
3, 143685, Control_c, 2, 64, 127
3, 143752, Note_on_c, 2, 56, 57
3, 143770, Note_off_c, 2, 62, 64
3, 143835, Note_off_c, 2, 52, 64
3, 143875, Note_on_c, 2, 62, 68
3, 143887, Note_off_c, 2, 56, 64
3, 143960, Note_off_c, 2, 62, 64
3, 144000, Note_on_c, 2, 61, 90
3, 144007, Note_on_c, 2, 57, 75
3, 144012, Control_c, 2, 64, 0
3, 144017, Control_c, 2, 64, 0
3, 144017, Control_c, 2, 64, 0
3, 144145, Note_off_c, 2, 57, 64
3, 144167, Note_off_c, 2, 61, 64
3, 144722, Note_on_c, 2, 59, 68
3, 144722, Note_on_c, 2, 52, 68
3, 144722, Note_on_c, 2, 56, 68
3, 144842, Note_off_c, 2, 52, 64
3, 144842, Note_off_c, 2, 59, 64
3, 144860, Note_off_c, 2, 56, 64
3, 144957, Note_on_c, 2, 61, 79
3, 144962, Note_on_c, 2, 57, 79
3, 145170, Note_off_c, 2, 57, 64
3, 145177, Note_off_c, 2, 61, 64
3, 145710, Note_on_c, 2, 56, 79
3, 145710, Note_on_c, 2, 52, 79
3, 145715, Note_on_c, 2, 59, 79
3, 145775, Note_off_c, 2, 52, 64
3, 145795, Note_off_c, 2, 56, 64
3, 145802, Note_off_c, 2, 59, 64
3, 145967, Note_on_c, 2, 57, 88
3, 145970, Note_on_c, 2, 61, 88
3, 146100, Note_off_c, 2, 57, 64
3, 146105, Note_off_c, 2, 61, 64
3, 146440, Note_on_c, 2, 53, 92
3, 146440, Note_on_c, 2, 41, 99
3, 146567, Control_c, 2, 64, 127
3, 146567, Control_c, 2, 64, 127
3, 146567, Control_c, 2, 64, 127
3, 146607, Note_off_c, 2, 41, 64
3, 146620, Note_off_c, 2, 53, 64
3, 146625, Control_c, 2, 64, 0
3, 146625, Control_c, 2, 64, 0
3, 146627, Control_c, 2, 64, 0
3, 146960, Note_on_c, 2, 42, 117
3, 146960, Note_on_c, 2, 54, 117
3, 147265, Note_off_c, 2, 54, 64
3, 147265, Note_off_c, 2, 42, 64
3, 147840, Note_on_c, 2, 50, 83
3, 148812, Note_on_c, 2, 52, 66
3, 148833, Note_off_c, 2, 50, 64
3, 149782, Note_off_c, 2, 52, 64
3, 149785, Note_on_c, 2, 57, 55
3, 150256, Note_on_c, 2, 52, 55
3, 150305, Note_off_c, 2, 57, 64
3, 150761, Note_off_c, 2, 52, 64
3, 150785, Note_on_c, 2, 45, 32
3, 151295, Note_off_c, 2, 45, 64
3, 151295, End_track
4, 0, Start_track
4, 0, Title_t, "new"
4, 0, MIDI_port, 0
4, 0, Channel_prefix, 3
4, 0, Control_c, 3, 7, 125
4, 0, Control_c, 3, 10, 64
4, 0, Program_c, 3, 0
4, 147380, Control_c, 3, 64, 127
4, 147380, Control_c, 3, 64, 127
4, 147382, Control_c, 3, 64, 127
4, 147522, Control_c, 3, 64, 0
4, 147522, Control_c, 3, 64, 0
4, 147522, Control_c, 3, 64, 0
4, 147697, Control_c, 3, 64, 127
4, 147697, Control_c, 3, 64, 127
4, 147697, Control_c, 3, 64, 127
4, 148305, Control_c, 3, 64, 0
4, 148305, Control_c, 3, 64, 0
4, 148310, Control_c, 3, 64, 0
4, 148575, Control_c, 3, 64, 127
4, 148577, Control_c, 3, 64, 127
4, 148577, Control_c, 3, 64, 127
4, 150580, Control_c, 3, 64, 0
4, 150582, Control_c, 3, 64, 0
4, 150582, Control_c, 3, 64, 0
4, 150727, Control_c, 3, 64, 127
4, 150727, Control_c, 3, 64, 127
4, 150727, Control_c, 3, 64, 127
4, 150800, Control_c, 3, 64, 0
4, 150802, Control_c, 3, 64, 0
4, 150802, Control_c, 3, 64, 0
4, 151690, Note_on_c, 3, 81, 62
4, 151937, Note_on_c, 3, 79, 54
4, 151947, Note_off_c, 3, 81, 64
4, 151985, Note_off_c, 3, 79, 64
4, 152175, Note_on_c, 3, 79, 62
4, 152415, Note_on_c, 3, 78, 57
4, 152422, Note_off_c, 3, 79, 64
4, 152467, Note_off_c, 3, 78, 64
4, 152660, Note_on_c, 3, 78, 64
4, 152902, Note_on_c, 3, 76, 63
4, 152920, Note_off_c, 3, 78, 64
4, 152955, Note_off_c, 3, 76, 64
4, 153135, Note_on_c, 3, 76, 66
4, 153375, Note_off_c, 3, 76, 64
4, 153375, Note_on_c, 3, 75, 50
4, 153420, Note_off_c, 3, 75, 64
4, 153617, Note_on_c, 3, 75, 90
4, 153622, Note_on_c, 3, 72, 97
4, 153880, Note_on_c, 3, 71, 67
4, 153895, Note_off_c, 3, 72, 64
4, 153935, Note_off_c, 3, 71, 64
4, 154117, Note_on_c, 3, 71, 72
4, 154350, Note_on_c, 3, 69, 66
4, 154360, Note_off_c, 3, 71, 64
4, 154410, Note_off_c, 3, 69, 64
4, 154590, Note_on_c, 3, 69, 59
4, 154832, Note_on_c, 3, 67, 77
4, 154840, Note_off_c, 3, 69, 64
4, 154902, Note_off_c, 3, 67, 64
4, 155047, Note_on_c, 3, 67, 66
4, 155265, Note_on_c, 3, 66, 63
4, 155295, Note_off_c, 3, 67, 64
4, 155335, Note_off_c, 3, 66, 64
4, 155347, Note_off_c, 3, 75, 64
4, 155520, Note_on_c, 3, 75, 86
4, 155747, Note_on_c, 3, 76, 61
4, 155765, Note_off_c, 3, 75, 64
4, 155817, Note_off_c, 3, 76, 64
4, 156252, Note_on_c, 3, 79, 67
4, 156317, Note_off_c, 3, 79, 64
4, 156490, Note_on_c, 3, 77, 70
4, 156737, Note_on_c, 3, 78, 68
4, 156755, Note_off_c, 3, 77, 64
4, 156805, Note_off_c, 3, 78, 64
4, 157222, Note_on_c, 3, 81, 69
4, 157265, Note_off_c, 3, 81, 64
4, 157453, Note_on_c, 3, 75, 89
4, 157453, Note_on_c, 3, 78, 89
4, 158388, Note_off_c, 3, 75, 64
4, 158396, Note_off_c, 3, 78, 64
4, 158400, Note_on_c, 3, 76, 43
4, 158400, Note_on_c, 3, 79, 43
4, 158600, Note_off_c, 3, 76, 64
4, 158610, Note_off_c, 3, 79, 64
4, 159357, Note_on_c, 3, 79, 79
4, 159610, Note_on_c, 3, 78, 59
4, 159620, Note_off_c, 3, 79, 64
4, 159665, Note_off_c, 3, 78, 64
4, 159860, Note_on_c, 3, 78, 79
4, 160107, Note_on_c, 3, 76, 68
4, 160127, Note_off_c, 3, 78, 64
4, 160162, Note_off_c, 3, 76, 64
4, 160352, Note_on_c, 3, 76, 70
4, 160595, Note_on_c, 3, 74, 59
4, 160600, Note_off_c, 3, 76, 64
4, 160645, Note_off_c, 3, 74, 64
4, 160830, Note_on_c, 3, 74, 64
4, 161062, Note_on_c, 3, 73, 55
4, 161082, Note_off_c, 3, 74, 64
4, 161110, Note_off_c, 3, 73, 64
4, 161300, Note_on_c, 3, 73, 88
4, 161305, Note_on_c, 3, 70, 98
4, 161557, Note_on_c, 3, 69, 51
4, 161577, Note_off_c, 3, 70, 64
4, 161620, Note_off_c, 3, 69, 64
4, 161790, Note_on_c, 3, 69, 64
4, 162027, Note_on_c, 3, 67, 57
4, 162040, Note_off_c, 3, 69, 64
4, 162085, Note_off_c, 3, 67, 64
4, 162257, Note_on_c, 3, 67, 60
4, 162492, Note_on_c, 3, 65, 55
4, 162497, Note_off_c, 3, 67, 64
4, 162560, Note_off_c, 3, 65, 64
4, 162755, Note_on_c, 3, 65, 66
4, 162985, Note_off_c, 3, 65, 64
4, 162987, Note_on_c, 3, 64, 66
4, 163080, Note_off_c, 3, 64, 64
4, 163095, Note_off_c, 3, 73, 64
4, 163235, Note_on_c, 3, 73, 72
4, 163462, Note_on_c, 3, 74, 64
4, 163477, Note_off_c, 3, 73, 64
4, 163527, Note_off_c, 3, 74, 64
4, 163930, Note_on_c, 3, 78, 58
4, 163970, Note_off_c, 3, 78, 64
4, 164172, Note_on_c, 3, 75, 77
4, 164397, Note_on_c, 3, 76, 54
4, 164417, Note_off_c, 3, 75, 64
4, 164462, Note_off_c, 3, 76, 64
4, 164887, Note_on_c, 3, 79, 70
4, 164945, Note_off_c, 3, 79, 64
4, 165127, Note_on_c, 3, 73, 73
4, 165127, Note_on_c, 3, 76, 83
4, 165805, Control_c, 3, 64, 127
4, 165805, Control_c, 3, 64, 127
4, 165805, Control_c, 3, 64, 127
4, 165935, Note_off_c, 3, 73, 64
4, 165965, Note_off_c, 3, 76, 64
4, 166062, Note_on_c, 3, 78, 51
4, 166065, Note_on_c, 3, 74, 57
4, 166095, Control_c, 3, 64, 0
4, 166095, Control_c, 3, 64, 0
4, 166095, Control_c, 3, 64, 0
4, 166236, Note_off_c, 3, 78, 64
4, 166239, Note_off_c, 3, 74, 64
4, 167075, Note_on_c, 3, 78, 88
4, 167177, Note_on_c, 3, 86, 64
4, 167215, Note_off_c, 3, 78, 64
4, 167305, Note_on_c, 3, 78, 75
4, 167335, Note_off_c, 3, 86, 64
4, 167415, Note_on_c, 3, 86, 67
4, 167442, Note_off_c, 3, 78, 64
4, 167535, Note_on_c, 3, 78, 83
4, 167547, Note_off_c, 3, 86, 64
4, 167635, Note_on_c, 3, 86, 66
4, 167670, Note_off_c, 3, 78, 64
4, 167757, Note_on_c, 3, 78, 66
4, 167770, Note_off_c, 3, 86, 64
4, 167865, Note_on_c, 3, 86, 67
4, 167895, Note_off_c, 3, 78, 64
4, 167990, Note_off_c, 3, 86, 64
4, 167990, Note_on_c, 3, 78, 72
4, 168095, Note_on_c, 3, 86, 70
4, 168120, Note_off_c, 3, 78, 64
4, 168215, Note_on_c, 3, 78, 60
4, 168222, Note_off_c, 3, 86, 64
4, 168320, Note_on_c, 3, 86, 70
4, 168350, Note_off_c, 3, 78, 64
4, 168450, Note_off_c, 3, 86, 64
4, 168450, Note_on_c, 3, 78, 65
4, 168570, Note_on_c, 3, 86, 69
4, 168615, Note_off_c, 3, 78, 64
4, 168695, Note_on_c, 3, 78, 64
4, 168697, Note_off_c, 3, 86, 64
4, 168817, Note_on_c, 3, 86, 59
4, 168842, Note_off_c, 3, 78, 64
4, 168887, Note_off_c, 3, 86, 64
4, 168940, Note_on_c, 3, 76, 77
4, 169075, Note_on_c, 3, 86, 64
4, 169117, Note_off_c, 3, 76, 64
4, 169130, Control_c, 3, 64, 127
4, 169130, Control_c, 3, 64, 127
4, 169130, Control_c, 3, 64, 127
4, 169185, Note_on_c, 3, 76, 57
4, 169210, Note_off_c, 3, 86, 64
4, 169275, Control_c, 3, 64, 0
4, 169275, Control_c, 3, 64, 0
4, 169277, Control_c, 3, 64, 0
4, 169305, Note_on_c, 3, 86, 59
4, 169332, Note_off_c, 3, 76, 64
4, 169427, Note_off_c, 3, 86, 64
4, 169427, Note_on_c, 3, 76, 72
4, 169542, Note_on_c, 3, 86, 70
4, 169587, Note_off_c, 3, 76, 64
4, 169682, Note_off_c, 3, 86, 64
4, 169682, Note_on_c, 3, 76, 62
4, 169790, Note_on_c, 3, 86, 66
4, 169830, Note_off_c, 3, 76, 64
4, 169920, Note_on_c, 3, 76, 65
4, 169950, Note_off_c, 3, 86, 64
4, 170040, Note_on_c, 3, 85, 70
4, 170077, Note_off_c, 3, 76, 64
4, 170162, Note_on_c, 3, 76, 59
4, 170177, Note_off_c, 3, 85, 64
4, 170277, Note_on_c, 3, 85, 84
4, 170315, Note_off_c, 3, 76, 64
4, 170402, Note_on_c, 3, 76, 72
4, 170412, Note_off_c, 3, 85, 64
4, 170510, Note_on_c, 3, 85, 65
4, 170562, Note_off_c, 3, 76, 64
4, 170655, Note_on_c, 3, 76, 68
4, 170662, Note_off_c, 3, 85, 64
4, 170770, Note_on_c, 3, 85, 66
4, 170797, Note_off_c, 3, 76, 64
4, 170895, Note_on_c, 3, 74, 73
4, 170920, Note_off_c, 3, 85, 64
4, 170995, Note_on_c, 3, 85, 77
4, 171050, Note_off_c, 3, 74, 64
4, 171152, Note_on_c, 3, 74, 70
4, 171172, Note_off_c, 3, 85, 64
4, 171255, Note_on_c, 3, 85, 65
4, 171295, Note_off_c, 3, 74, 64
4, 171392, Note_on_c, 3, 74, 55
4, 171420, Note_off_c, 3, 85, 64
4, 171500, Note_on_c, 3, 85, 61
4, 171552, Note_off_c, 3, 74, 64
4, 171630, Note_on_c, 3, 74, 70
4, 171635, Note_off_c, 3, 85, 64
4, 171742, Note_on_c, 3, 85, 83
4, 171795, Note_off_c, 3, 74, 64
4, 171862, Note_on_c, 3, 74, 73
4, 171867, Note_off_c, 3, 85, 64
4, 171975, Note_on_c, 3, 83, 63
4, 172002, Note_off_c, 3, 74, 64
4, 172087, Note_on_c, 3, 74, 54
4, 172125, Note_off_c, 3, 83, 64
4, 172202, Note_on_c, 3, 83, 66
4, 172235, Note_off_c, 3, 74, 64
4, 172325, Note_on_c, 3, 74, 66
4, 172332, Note_off_c, 3, 83, 64
4, 172430, Note_on_c, 3, 83, 55
4, 172475, Note_off_c, 3, 74, 64
4, 172560, Note_on_c, 3, 74, 54
4, 172575, Note_off_c, 3, 83, 64
4, 172672, Note_on_c, 3, 83, 54
4, 172695, Note_off_c, 3, 74, 64
4, 172775, Note_off_c, 3, 83, 64
4, 172797, Note_on_c, 3, 73, 84
4, 172902, Note_on_c, 3, 83, 59
4, 172942, Note_off_c, 3, 73, 64
4, 173035, Note_on_c, 3, 73, 53
4, 173052, Note_off_c, 3, 83, 64
4, 173147, Note_on_c, 3, 83, 62
4, 173190, Note_off_c, 3, 73, 64
4, 173270, Note_off_c, 3, 83, 64
4, 173275, Note_on_c, 3, 73, 72
4, 173380, Note_on_c, 3, 83, 53
4, 173422, Note_off_c, 3, 73, 64
4, 173507, Note_off_c, 3, 83, 64
4, 173510, Note_on_c, 3, 73, 55
4, 173615, Note_on_c, 3, 83, 68
4, 173685, Note_off_c, 3, 73, 64
4, 173735, Note_off_c, 3, 83, 64
4, 173740, Note_on_c, 3, 72, 74
4, 173857, Note_on_c, 3, 81, 66
4, 173890, Note_off_c, 3, 72, 64
4, 173987, Note_off_c, 3, 81, 64
4, 173987, Note_on_c, 3, 72, 49
4, 174102, Note_on_c, 3, 81, 56
4, 174150, Note_off_c, 3, 72, 64
4, 174235, Note_off_c, 3, 81, 64
4, 174237, Note_on_c, 3, 72, 67
4, 174345, Note_on_c, 3, 81, 57
4, 174400, Note_off_c, 3, 72, 64
4, 174462, Note_off_c, 3, 81, 64
4, 174482, Note_on_c, 3, 72, 50
4, 174607, Note_on_c, 3, 81, 51
4, 174637, Note_off_c, 3, 72, 64
4, 174665, Note_off_c, 3, 81, 64
4, 174742, Note_on_c, 3, 71, 77
4, 174742, Note_on_c, 3, 81, 83
4, 174985, Note_on_c, 3, 79, 61
4, 175002, Note_off_c, 3, 81, 64
4, 175050, Note_off_c, 3, 79, 64
4, 175195, Note_off_c, 3, 71, 64
4, 175195, Note_on_c, 3, 79, 70
4, 175457, Note_on_c, 3, 78, 57
4, 175482, Note_off_c, 3, 79, 64
4, 175502, Note_off_c, 3, 78, 64
4, 175697, Note_on_c, 3, 86, 77
4, 175705, Note_on_c, 3, 77, 79
4, 175945, Note_on_c, 3, 85, 62
4, 175967, Note_off_c, 3, 86, 64
4, 176002, Note_off_c, 3, 85, 64
4, 176055, Note_off_c, 3, 77, 64
4, 176177, Note_on_c, 3, 85, 70
4, 176415, Note_on_c, 3, 83, 64
4, 176442, Note_off_c, 3, 85, 64
4, 176475, Note_off_c, 3, 83, 64
4, 176655, Note_on_c, 3, 82, 94
4, 176657, Note_on_c, 3, 79, 79
4, 176910, Note_on_c, 3, 78, 68
4, 176925, Note_off_c, 3, 79, 64
4, 176967, Note_off_c, 3, 78, 64
4, 177142, Note_on_c, 3, 78, 60
4, 177405, Note_on_c, 3, 76, 53
4, 177412, Note_off_c, 3, 78, 64
4, 177447, Note_off_c, 3, 76, 64
4, 177452, Note_off_c, 3, 82, 64
4, 177642, Note_on_c, 3, 83, 74
4, 177645, Note_on_c, 3, 74, 70
4, 177887, Note_on_c, 3, 73, 68
4, 177910, Note_off_c, 3, 74, 64
4, 177955, Note_off_c, 3, 73, 64
4, 178110, Note_on_c, 3, 73, 69
4, 178350, Note_on_c, 3, 71, 60
4, 178360, Note_off_c, 3, 73, 64
4, 178367, Note_off_c, 3, 83, 64
4, 178407, Note_off_c, 3, 71, 64
4, 178582, Note_on_c, 3, 76, 77
4, 178590, Note_on_c, 3, 67, 77
4, 178835, Note_on_c, 3, 66, 63
4, 178837, Note_on_c, 3, 74, 65
4, 178852, Note_off_c, 3, 67, 64
4, 178862, Note_off_c, 3, 76, 64
4, 178887, Note_off_c, 3, 66, 64
4, 178897, Note_off_c, 3, 74, 64
4, 179087, Note_on_c, 3, 74, 68
4, 179090, Note_on_c, 3, 66, 68
4, 179317, Note_on_c, 3, 64, 55
4, 179322, Note_on_c, 3, 73, 55
4, 179362, Note_off_c, 3, 66, 64
4, 179362, Note_off_c, 3, 74, 64
4, 179380, Note_off_c, 3, 64, 64
4, 179380, Note_off_c, 3, 73, 64
4, 179552, Note_on_c, 3, 64, 59
4, 179552, Note_on_c, 3, 73, 69
4, 179800, Note_on_c, 3, 71, 57
4, 179800, Note_on_c, 3, 62, 57
4, 179802, Note_off_c, 3, 64, 64
4, 179845, Note_off_c, 3, 73, 64
4, 179845, Note_off_c, 3, 62, 64
4, 179860, Note_off_c, 3, 71, 64
4, 180027, Note_on_c, 3, 71, 66
4, 180027, Note_on_c, 3, 62, 66
4, 180267, Note_on_c, 3, 70, 55
4, 180267, Note_on_c, 3, 61, 55
4, 180287, Note_off_c, 3, 71, 64
4, 180300, Note_off_c, 3, 62, 64
4, 180335, Note_off_c, 3, 70, 64
4, 180342, Note_off_c, 3, 61, 64
4, 180515, Note_on_c, 3, 70, 82
4, 180522, Note_on_c, 3, 64, 80
4, 180527, Note_on_c, 3, 61, 82
4, 181455, Note_off_c, 3, 64, 64
4, 181460, Note_off_c, 3, 61, 64
4, 181482, Note_off_c, 3, 70, 64
4, 181493, Note_on_c, 3, 71, 50
4, 181493, Note_on_c, 3, 62, 47
4, 181780, Note_off_c, 3, 62, 64
4, 181810, Note_off_c, 3, 71, 64
4, 182402, Note_on_c, 3, 62, 79
4, 182402, Note_on_c, 3, 71, 83
4, 182402, Note_on_c, 3, 66, 90
4, 182645, Control_c, 3, 64, 127
4, 182645, Control_c, 3, 64, 127
4, 182645, Control_c, 3, 64, 127
4, 183210, Note_off_c, 3, 66, 64
4, 183215, Note_off_c, 3, 71, 64
4, 183220, Note_off_c, 3, 62, 64
4, 183324, Note_on_c, 3, 72, 77
4, 183324, Note_on_c, 3, 66, 84
4, 183324, Note_on_c, 3, 62, 74
4, 183427, Control_c, 3, 64, 0
4, 183427, Control_c, 3, 64, 0
4, 183430, Control_c, 3, 64, 0
4, 183497, Note_off_c, 3, 62, 64
4, 183497, Note_off_c, 3, 66, 64
4, 183519, Note_off_c, 3, 72, 64
4, 184335, Note_on_c, 3, 74, 62
4, 184342, Note_on_c, 3, 71, 46
4, 185035, Note_on_c, 3, 75, 52
4, 185102, Note_off_c, 3, 74, 64
4, 185315, Note_on_c, 3, 72, 49
4, 185315, Note_on_c, 3, 76, 59
4, 185320, Note_off_c, 3, 71, 64
4, 185322, Note_off_c, 3, 75, 64
4, 185552, Note_off_c, 3, 72, 64
4, 185590, Note_off_c, 3, 76, 64
4, 186700, Note_on_c, 3, 74, 94
4, 187205, Note_on_c, 3, 72, 90
4, 187230, Note_off_c, 3, 74, 64
4, 187700, Note_on_c, 3, 71, 92
4, 187722, Note_off_c, 3, 72, 64
4, 188077, Note_off_c, 3, 71, 64
4, 188175, Note_on_c, 3, 76, 99
4, 188422, Note_on_c, 3, 78, 88
4, 188435, Note_off_c, 3, 76, 64
4, 188497, Note_on_c, 3, 76, 82
4, 188537, Note_off_c, 3, 78, 64
4, 188575, Note_on_c, 3, 74, 82
4, 188585, Note_off_c, 3, 76, 64
4, 188670, Note_on_c, 3, 76, 86
4, 188690, Note_off_c, 3, 74, 64
4, 188890, Note_off_c, 3, 76, 64
4, 188927, Note_on_c, 3, 78, 94
4, 188982, Note_off_c, 3, 78, 64
4, 189182, Note_on_c, 3, 81, 83
4, 189435, Note_on_c, 3, 79, 78
4, 189442, Note_off_c, 3, 81, 64
4, 189475, Note_off_c, 3, 79, 64
4, 189667, Note_on_c, 3, 78, 98
4, 189685, Note_off_c, 3, 78, 64
4, 189898, Note_on_c, 3, 76, 92
4, 189938, Note_off_c, 3, 76, 64
4, 190137, Note_on_c, 3, 74, 96
4, 190187, Note_off_c, 3, 74, 64
4, 190592, Note_on_c, 3, 74, 74
4, 191050, Note_on_c, 3, 72, 68
4, 191087, Note_off_c, 3, 74, 64
4, 191530, Note_on_c, 3, 71, 60
4, 191547, Note_off_c, 3, 72, 64
4, 192015, Note_on_c, 3, 69, 50
4, 192020, Note_off_c, 3, 71, 64
4, 192380, Note_on_c, 3, 76, 62
4, 192417, Note_off_c, 3, 69, 64
4, 192500, Note_on_c, 3, 74, 58
4, 192527, Note_off_c, 3, 76, 64
4, 192605, Note_on_c, 3, 72, 56
4, 192635, Note_off_c, 3, 74, 64
4, 192720, Note_on_c, 3, 71, 54
4, 192742, Note_off_c, 3, 72, 64
4, 192827, Note_on_c, 3, 69, 50
4, 192835, Note_off_c, 3, 71, 64
4, 192967, Note_on_c, 3, 67, 58
4, 192982, Note_off_c, 3, 69, 64
4, 193342, Note_off_c, 3, 67, 64
4, 193412, Note_on_c, 3, 71, 62
4, 193462, Note_on_c, 3, 69, 60
4, 193472, Note_off_c, 3, 71, 64
4, 193520, Note_on_c, 3, 71, 59
4, 193527, Note_off_c, 3, 69, 64
4, 193565, Note_off_c, 3, 71, 64
4, 193565, Note_on_c, 3, 69, 59
4, 193610, Note_on_c, 3, 71, 57
4, 193617, Note_off_c, 3, 69, 64
4, 193655, Note_on_c, 3, 69, 57
4, 193670, Note_off_c, 3, 71, 64
4, 193715, Note_on_c, 3, 67, 57
4, 193722, Note_off_c, 3, 69, 64
4, 193782, Note_on_c, 3, 69, 57
4, 193802, Note_off_c, 3, 67, 64
4, 193930, Note_on_c, 3, 67, 59
4, 193947, Note_off_c, 3, 69, 64
4, 194055, Note_off_c, 3, 67, 64
4, 194397, Note_on_c, 3, 74, 92
4, 194885, Note_on_c, 3, 72, 94
4, 194902, Note_off_c, 3, 74, 64
4, 195370, Note_on_c, 3, 71, 100
4, 195395, Note_off_c, 3, 72, 64
4, 195867, Note_on_c, 3, 76, 100
4, 195950, Note_off_c, 3, 71, 64
4, 196127, Note_on_c, 3, 78, 92
4, 196147, Note_off_c, 3, 76, 64
4, 196197, Note_on_c, 3, 76, 86
4, 196235, Note_off_c, 3, 78, 64
4, 196255, Note_on_c, 3, 74, 88
4, 196270, Note_off_c, 3, 76, 64
4, 196347, Note_on_c, 3, 76, 94
4, 196367, Note_off_c, 3, 74, 64
4, 196395, Note_off_c, 3, 76, 64
4, 196597, Note_on_c, 3, 78, 86
4, 196632, Note_off_c, 3, 78, 64
4, 196830, Note_on_c, 3, 81, 100
4, 197070, Note_on_c, 3, 79, 98
4, 197087, Note_off_c, 3, 81, 64
4, 197112, Note_off_c, 3, 79, 64
4, 197305, Note_on_c, 3, 78, 96
4, 197335, Note_off_c, 3, 78, 64
4, 197541, Note_on_c, 3, 76, 91
4, 197578, Note_off_c, 3, 76, 64
4, 197760, Note_on_c, 3, 74, 90
4, 197797, Note_off_c, 3, 74, 64
4, 198262, Note_on_c, 3, 74, 70
4, 198735, Note_on_c, 3, 72, 78
4, 198762, Note_off_c, 3, 74, 64
4, 199200, Note_on_c, 3, 71, 86
4, 199232, Note_off_c, 3, 72, 64
4, 199662, Note_on_c, 3, 69, 92
4, 199682, Note_off_c, 3, 71, 64
4, 200040, Note_on_c, 3, 76, 72
4, 200065, Note_off_c, 3, 69, 64
4, 200175, Note_on_c, 3, 74, 76
4, 200200, Note_off_c, 3, 76, 64
4, 200285, Note_on_c, 3, 72, 78
4, 200330, Note_off_c, 3, 74, 64
4, 200407, Note_on_c, 3, 71, 82
4, 200437, Note_off_c, 3, 72, 64
4, 200520, Note_on_c, 3, 69, 84
4, 200525, Note_off_c, 3, 71, 64
4, 200652, Note_on_c, 3, 67, 59
4, 200675, Note_off_c, 3, 69, 64
4, 200927, Note_off_c, 3, 67, 64
4, 201130, Note_on_c, 3, 71, 88
4, 201180, Note_on_c, 3, 69, 84
4, 201182, Note_off_c, 3, 71, 64
4, 201230, Note_off_c, 3, 69, 64
4, 201230, Note_on_c, 3, 71, 82
4, 201267, Note_off_c, 3, 71, 64
4, 201270, Note_on_c, 3, 69, 80
4, 201302, Note_on_c, 3, 71, 80
4, 201310, Note_off_c, 3, 69, 64
4, 201345, Note_on_c, 3, 69, 80
4, 201355, Note_off_c, 3, 71, 64
4, 201392, Note_on_c, 3, 67, 80
4, 201402, Note_off_c, 3, 69, 64
4, 201510, Note_on_c, 3, 69, 86
4, 201522, Note_off_c, 3, 67, 64
4, 201625, Note_off_c, 3, 69, 64
4, 201630, Note_on_c, 3, 67, 68
4, 201757, Note_on_c, 3, 69, 40
4, 201777, Note_off_c, 3, 67, 64
4, 201877, Note_on_c, 3, 67, 54
4, 201887, Note_off_c, 3, 69, 64
4, 201992, Note_on_c, 3, 66, 54
4, 202012, Note_off_c, 3, 67, 64
4, 202107, Note_off_c, 3, 66, 64
4, 202110, Note_on_c, 3, 67, 55
4, 202222, Note_on_c, 3, 71, 58
4, 202247, Note_off_c, 3, 67, 64
4, 202345, Note_on_c, 3, 69, 55
4, 202355, Note_off_c, 3, 71, 64
4, 202445, Note_on_c, 3, 72, 47
4, 202470, Note_off_c, 3, 69, 64
4, 202590, Note_on_c, 3, 71, 62
4, 202625, Note_off_c, 3, 72, 64
4, 202695, Note_on_c, 3, 69, 57
4, 202720, Note_off_c, 3, 71, 64
4, 202807, Note_on_c, 3, 67, 54
4, 202817, Note_off_c, 3, 69, 64
4, 202917, Note_on_c, 3, 66, 53
4, 202935, Note_off_c, 3, 67, 64
4, 203035, Note_off_c, 3, 66, 64
4, 203042, Note_on_c, 3, 67, 59
4, 203147, Note_on_c, 3, 71, 62
4, 203167, Note_off_c, 3, 67, 64
4, 203255, Note_on_c, 3, 69, 52
4, 203275, Note_off_c, 3, 71, 64
4, 203382, Note_on_c, 3, 72, 61
4, 203415, Note_off_c, 3, 69, 64
4, 203510, Note_on_c, 3, 71, 62
4, 203557, Note_off_c, 3, 72, 64
4, 203617, Note_on_c, 3, 69, 59
4, 203650, Note_off_c, 3, 71, 64
4, 203730, Note_on_c, 3, 67, 54
4, 203747, Note_off_c, 3, 69, 64
4, 203855, Note_on_c, 3, 66, 40
4, 203860, Note_off_c, 3, 67, 64
4, 203975, Note_off_c, 3, 66, 64
4, 203977, Note_on_c, 3, 67, 55
4, 204100, Note_on_c, 3, 71, 50
4, 204132, Note_off_c, 3, 67, 64
4, 204212, Note_on_c, 3, 69, 58
4, 204240, Note_off_c, 3, 71, 64
4, 204337, Note_on_c, 3, 72, 50
4, 204365, Note_off_c, 3, 69, 64
4, 204462, Note_on_c, 3, 71, 66
4, 204482, Note_off_c, 3, 72, 64
4, 204585, Note_on_c, 3, 74, 64
4, 204605, Note_off_c, 3, 71, 64
4, 204707, Note_on_c, 3, 72, 57
4, 204742, Note_off_c, 3, 74, 64
4, 204810, Note_on_c, 3, 69, 52
4, 204865, Note_off_c, 3, 72, 64
4, 204947, Note_on_c, 3, 71, 64
4, 204970, Note_off_c, 3, 69, 64
4, 205072, Note_on_c, 3, 74, 59
4, 205087, Note_off_c, 3, 71, 64
4, 205190, Note_on_c, 3, 73, 52
4, 205197, Note_off_c, 3, 74, 64
4, 205310, Note_on_c, 3, 76, 67
4, 205330, Note_off_c, 3, 73, 64
4, 205435, Note_on_c, 3, 74, 69
4, 205457, Note_off_c, 3, 76, 64
4, 205557, Note_on_c, 3, 76, 55
4, 205580, Note_off_c, 3, 74, 64
4, 205685, Note_on_c, 3, 74, 52
4, 205695, Note_off_c, 3, 76, 64
4, 205790, Note_on_c, 3, 73, 55
4, 205810, Note_off_c, 3, 74, 64
4, 205907, Note_off_c, 3, 73, 64
4, 205910, Note_on_c, 3, 74, 68
4, 206027, Note_on_c, 3, 78, 61
4, 206125, Note_off_c, 3, 74, 64
4, 206160, Note_on_c, 3, 76, 52
4, 206187, Note_off_c, 3, 78, 64
4, 206275, Note_on_c, 3, 79, 57
4, 206302, Note_off_c, 3, 76, 64
4, 206405, Note_on_c, 3, 78, 73
4, 206440, Note_off_c, 3, 79, 64
4, 206515, Note_on_c, 3, 76, 64
4, 206585, Note_off_c, 3, 78, 64
4, 206635, Note_on_c, 3, 74, 59
4, 206645, Note_off_c, 3, 76, 64
4, 206747, Note_on_c, 3, 73, 55
4, 206772, Note_off_c, 3, 74, 64
4, 206890, Note_on_c, 3, 74, 73
4, 206897, Note_off_c, 3, 73, 64
4, 207000, Note_on_c, 3, 78, 62
4, 207105, Note_off_c, 3, 74, 64
4, 207127, Note_on_c, 3, 76, 73
4, 207147, Note_off_c, 3, 78, 64
4, 207242, Note_on_c, 3, 79, 54
4, 207282, Note_off_c, 3, 76, 64
4, 207380, Note_on_c, 3, 78, 79
4, 207427, Note_off_c, 3, 79, 64
4, 207485, Note_on_c, 3, 76, 67
4, 207525, Note_off_c, 3, 78, 64
4, 207617, Note_on_c, 3, 74, 60
4, 207625, Note_off_c, 3, 76, 64
4, 207727, Note_on_c, 3, 73, 65
4, 207757, Note_off_c, 3, 74, 64
4, 207850, Note_off_c, 3, 73, 64
4, 207860, Note_on_c, 3, 74, 66
4, 207970, Note_on_c, 3, 76, 72
4, 208022, Note_off_c, 3, 74, 64
4, 208095, Note_on_c, 3, 78, 63
4, 208105, Note_off_c, 3, 76, 64
4, 208212, Note_on_c, 3, 81, 72
4, 208240, Note_off_c, 3, 78, 64
4, 208337, Note_on_c, 3, 79, 66
4, 208347, Note_off_c, 3, 81, 64
4, 208455, Note_on_c, 3, 78, 55
4, 208495, Note_off_c, 3, 79, 64
4, 208577, Note_on_c, 3, 76, 59
4, 208597, Note_off_c, 3, 78, 64
4, 208677, Note_on_c, 3, 75, 49
4, 208685, Note_off_c, 3, 76, 64
4, 208795, Note_off_c, 3, 75, 64
4, 208810, Note_on_c, 3, 76, 66
4, 208920, Note_on_c, 3, 78, 55
4, 208950, Note_off_c, 3, 76, 64
4, 209045, Note_on_c, 3, 79, 60
4, 209072, Note_off_c, 3, 78, 64
4, 209157, Note_on_c, 3, 81, 66
4, 209185, Note_off_c, 3, 79, 64
4, 209295, Note_on_c, 3, 79, 79
4, 209322, Note_off_c, 3, 81, 64
4, 209415, Note_on_c, 3, 78, 57
4, 209442, Note_off_c, 3, 79, 64
4, 209535, Note_on_c, 3, 76, 59
4, 209542, Note_off_c, 3, 78, 64
4, 209642, Note_on_c, 3, 75, 52
4, 209672, Note_off_c, 3, 76, 64
4, 209762, Note_off_c, 3, 75, 64
4, 209775, Note_on_c, 3, 76, 66
4, 209877, Note_on_c, 3, 78, 59
4, 209905, Note_off_c, 3, 76, 64
4, 210002, Note_on_c, 3, 79, 61
4, 210025, Note_off_c, 3, 78, 64
4, 210122, Note_on_c, 3, 83, 77
4, 210135, Note_off_c, 3, 79, 64
4, 210255, Note_on_c, 3, 81, 70
4, 210280, Note_off_c, 3, 83, 64
4, 210370, Note_on_c, 3, 79, 55
4, 210402, Note_off_c, 3, 81, 64
4, 210490, Note_on_c, 3, 78, 48
4, 210515, Note_off_c, 3, 79, 64
4, 210620, Note_on_c, 3, 76, 47
4, 210630, Note_off_c, 3, 78, 64
4, 210735, Note_on_c, 3, 78, 61
4, 210767, Note_off_c, 3, 76, 64
4, 210850, Note_on_c, 3, 79, 66
4, 210962, Note_off_c, 3, 78, 64
4, 210975, Note_on_c, 3, 81, 68
4, 211017, Note_off_c, 3, 79, 64
4, 211090, Note_on_c, 3, 83, 86
4, 211110, Note_off_c, 3, 81, 64
4, 211217, Note_on_c, 3, 81, 78
4, 211245, Note_off_c, 3, 83, 64
4, 211325, Note_on_c, 3, 79, 65
4, 211367, Note_off_c, 3, 81, 64
4, 211437, Note_on_c, 3, 78, 64
4, 211465, Note_off_c, 3, 79, 64
4, 211562, Note_on_c, 3, 76, 61
4, 211587, Note_off_c, 3, 78, 64
4, 211690, Note_on_c, 3, 78, 54
4, 211735, Note_off_c, 3, 76, 64
4, 211790, Note_on_c, 3, 79, 57
4, 211910, Note_off_c, 3, 78, 64
4, 211920, Note_on_c, 3, 81, 66
4, 211947, Note_off_c, 3, 79, 64
4, 212037, Note_on_c, 3, 84, 59
4, 212060, Note_off_c, 3, 81, 64
4, 212167, Note_on_c, 3, 83, 71
4, 212182, Note_off_c, 3, 84, 64
4, 212315, Note_on_c, 3, 86, 69
4, 212330, Note_off_c, 3, 83, 64
4, 212420, Note_on_c, 3, 81, 69
4, 212455, Note_off_c, 3, 86, 64
4, 212522, Note_on_c, 3, 86, 75
4, 212540, Note_off_c, 3, 81, 64
4, 212652, Note_on_c, 3, 83, 74
4, 212662, Note_off_c, 3, 86, 64
4, 212767, Note_on_c, 3, 86, 61
4, 212782, Note_off_c, 3, 83, 64
4, 212890, Note_on_c, 3, 78, 73
4, 212915, Note_off_c, 3, 86, 64
4, 212995, Note_on_c, 3, 83, 62
4, 213012, Note_off_c, 3, 78, 64
4, 213130, Note_on_c, 3, 79, 78
4, 213137, Note_off_c, 3, 83, 64
4, 213245, Note_on_c, 3, 83, 62
4, 213260, Note_off_c, 3, 79, 64
4, 213367, Note_on_c, 3, 78, 74
4, 213385, Note_off_c, 3, 83, 64
4, 213480, Note_on_c, 3, 83, 66
4, 213492, Note_off_c, 3, 78, 64
4, 213602, Note_on_c, 3, 79, 86
4, 213627, Note_off_c, 3, 83, 64
4, 213722, Note_on_c, 3, 83, 47
4, 213750, Note_off_c, 3, 79, 64
4, 213847, Note_on_c, 3, 76, 70
4, 213882, Note_off_c, 3, 83, 64
4, 213965, Note_on_c, 3, 81, 65
4, 214025, Note_off_c, 3, 76, 64
4, 214082, Note_on_c, 3, 78, 68
4, 214110, Note_off_c, 3, 81, 64
4, 214190, Note_on_c, 3, 81, 63
4, 214232, Note_off_c, 3, 78, 64
4, 214337, Note_off_c, 3, 81, 64
4, 214337, Note_on_c, 3, 76, 77
4, 214442, Note_on_c, 3, 81, 61
4, 214495, Note_off_c, 3, 76, 64
4, 214567, Note_on_c, 3, 78, 59
4, 214590, Note_off_c, 3, 81, 64
4, 214682, Note_on_c, 3, 81, 68
4, 214712, Note_off_c, 3, 78, 64
4, 214750, Note_off_c, 3, 81, 64
4, 214795, Note_on_c, 3, 73, 73
4, 214920, Note_on_c, 3, 78, 56
4, 214935, Note_off_c, 3, 73, 64
4, 215035, Note_off_c, 3, 78, 64
4, 215047, Note_on_c, 3, 74, 84
4, 215165, Note_on_c, 3, 78, 74
4, 215202, Note_off_c, 3, 74, 64
4, 215295, Note_on_c, 3, 73, 68
4, 215322, Note_off_c, 3, 78, 64
4, 215415, Note_on_c, 3, 78, 59
4, 215435, Note_off_c, 3, 73, 64
4, 215530, Note_off_c, 3, 78, 64
4, 215532, Note_on_c, 3, 74, 81
4, 215637, Note_on_c, 3, 78, 57
4, 215682, Note_off_c, 3, 74, 64
4, 215770, Note_on_c, 3, 75, 68
4, 215787, Note_off_c, 3, 78, 64
4, 215872, Note_on_c, 3, 78, 70
4, 215900, Note_off_c, 3, 75, 64
4, 215997, Note_on_c, 3, 76, 79
4, 216015, Note_off_c, 3, 78, 64
4, 216110, Note_on_c, 3, 75, 57
4, 216130, Note_off_c, 3, 76, 64
4, 216230, Note_off_c, 3, 75, 64
4, 216242, Note_on_c, 3, 76, 59
4, 216342, Note_on_c, 3, 78, 53
4, 216357, Note_off_c, 3, 76, 64
4, 216475, Note_on_c, 3, 79, 69
4, 216487, Note_off_c, 3, 78, 64
4, 216587, Note_on_c, 3, 78, 62
4, 216610, Note_off_c, 3, 79, 64
4, 216695, Note_off_c, 3, 78, 64
4, 216712, Note_on_c, 3, 79, 51
4, 216830, Note_on_c, 3, 81, 64
4, 216850, Note_off_c, 3, 79, 64
4, 216962, Note_on_c, 3, 83, 74
4, 216970, Note_off_c, 3, 81, 64
4, 217080, Note_on_c, 3, 85, 66
4, 217102, Note_off_c, 3, 83, 64
4, 217202, Note_on_c, 3, 86, 68
4, 217232, Note_off_c, 3, 85, 64
4, 217317, Note_on_c, 3, 85, 69
4, 217355, Note_off_c, 3, 86, 64
4, 217430, Note_on_c, 3, 83, 68
4, 217460, Note_off_c, 3, 85, 64
4, 217547, Note_on_c, 3, 81, 60
4, 217577, Note_off_c, 3, 83, 64
4, 217670, Note_on_c, 3, 79, 57
4, 217687, Note_off_c, 3, 81, 64
4, 217785, Note_on_c, 3, 78, 75
4, 217802, Note_off_c, 3, 79, 64
4, 217905, Note_on_c, 3, 76, 79
4, 217932, Note_off_c, 3, 78, 64
4, 218035, Note_on_c, 3, 78, 88
4, 218057, Note_off_c, 3, 76, 64
4, 218155, Note_on_c, 3, 79, 97
4, 218187, Note_off_c, 3, 78, 64
4, 218275, Note_on_c, 3, 78, 89
4, 218327, Note_off_c, 3, 79, 64
4, 218390, Note_on_c, 3, 76, 91
4, 218447, Note_off_c, 3, 78, 64
4, 218507, Note_on_c, 3, 74, 86
4, 218512, Note_off_c, 3, 76, 64
4, 218642, Note_on_c, 3, 73, 77
4, 218655, Note_off_c, 3, 74, 64
4, 218775, Note_on_c, 3, 71, 82
4, 218782, Note_off_c, 3, 73, 64
4, 218885, Note_off_c, 3, 71, 64
4, 218890, Note_on_c, 3, 73, 93
4, 218985, Note_on_c, 3, 74, 75
4, 219022, Note_off_c, 3, 73, 64
4, 219127, Note_on_c, 3, 73, 91
4, 219142, Note_off_c, 3, 74, 64
4, 219240, Note_off_c, 3, 73, 64
4, 219242, Note_on_c, 3, 69, 63
4, 219367, Note_off_c, 3, 69, 64
4, 219375, Note_on_c, 3, 74, 100
4, 219460, Note_off_c, 3, 74, 64
4, 219837, Note_on_c, 3, 79, 86
4, 219947, Note_on_c, 3, 81, 69
4, 219972, Note_off_c, 3, 79, 64
4, 220082, Note_on_c, 3, 79, 86
4, 220100, Note_off_c, 3, 81, 64
4, 220190, Note_on_c, 3, 76, 57
4, 220195, Note_off_c, 3, 79, 64
4, 220317, Note_on_c, 3, 79, 95
4, 220330, Note_off_c, 3, 76, 64
4, 220430, Note_on_c, 3, 78, 86
4, 220470, Note_off_c, 3, 79, 64
4, 220547, Note_on_c, 3, 76, 84
4, 220567, Note_off_c, 3, 78, 64
4, 220670, Note_on_c, 3, 74, 71
4, 220687, Note_off_c, 3, 76, 64
4, 220787, Note_off_c, 3, 74, 64
4, 220800, Note_on_c, 3, 73, 102
4, 220910, Note_on_c, 3, 74, 66
4, 220937, Note_off_c, 3, 73, 64
4, 221027, Note_on_c, 3, 73, 86
4, 221060, Note_off_c, 3, 74, 64
4, 221145, Note_on_c, 3, 69, 71
4, 221170, Note_off_c, 3, 73, 64
4, 221280, Note_on_c, 3, 74, 102
4, 221282, Note_off_c, 3, 69, 64
4, 221370, Note_off_c, 3, 74, 64
4, 221777, Note_on_c, 3, 79, 99
4, 221897, Note_on_c, 3, 81, 70
4, 221922, Note_off_c, 3, 79, 64
4, 222017, Note_on_c, 3, 79, 66
4, 222042, Note_off_c, 3, 81, 64
4, 222130, Note_on_c, 3, 76, 73
4, 222142, Note_off_c, 3, 79, 64
4, 222260, Note_on_c, 3, 79, 90
4, 222275, Note_off_c, 3, 76, 64
4, 222377, Note_on_c, 3, 78, 83
4, 222410, Note_off_c, 3, 79, 64
4, 222472, Note_on_c, 3, 76, 62
4, 222482, Note_off_c, 3, 78, 64
4, 222612, Note_on_c, 3, 74, 66
4, 222630, Note_off_c, 3, 76, 64
4, 222727, Note_on_c, 3, 73, 112
4, 222742, Note_off_c, 3, 74, 64
4, 222835, Note_on_c, 3, 76, 75
4, 222862, Note_off_c, 3, 73, 64
4, 222962, Note_on_c, 3, 73, 70
4, 222992, Note_off_c, 3, 76, 64
4, 223075, Note_on_c, 3, 69, 51
4, 223085, Note_off_c, 3, 73, 64
4, 223192, Note_off_c, 3, 69, 64
4, 223200, Note_on_c, 3, 78, 112
4, 223310, Note_on_c, 3, 81, 83
4, 223335, Note_off_c, 3, 78, 64
4, 223437, Note_on_c, 3, 78, 78
4, 223477, Note_off_c, 3, 81, 64
4, 223545, Note_on_c, 3, 74, 70
4, 223570, Note_off_c, 3, 78, 64
4, 223625, Note_off_c, 3, 74, 64
4, 223682, Note_on_c, 3, 73, 94
4, 223795, Note_on_c, 3, 76, 69
4, 223817, Note_off_c, 3, 73, 64
4, 223922, Note_on_c, 3, 73, 48
4, 223957, Note_off_c, 3, 76, 64
4, 224042, Note_on_c, 3, 69, 57
4, 224045, Note_off_c, 3, 73, 64
4, 224097, Note_off_c, 3, 69, 64
4, 224162, Note_on_c, 3, 78, 108
4, 224275, Note_on_c, 3, 81, 70
4, 224295, Note_off_c, 3, 78, 64
4, 224397, Note_on_c, 3, 78, 75
4, 224430, Note_off_c, 3, 81, 64
4, 224515, Note_on_c, 3, 74, 55
4, 224527, Note_off_c, 3, 78, 64
4, 224577, Note_off_c, 3, 74, 64
4, 224652, Note_on_c, 3, 73, 67
4, 224652, Note_on_c, 3, 76, 83
4, 224690, Note_off_c, 3, 73, 64
4, 224700, Note_off_c, 3, 76, 64
4, 224895, Note_on_c, 3, 76, 90
4, 224895, Note_on_c, 3, 73, 90
4, 224895, Note_on_c, 3, 81, 90
4, 224927, Note_off_c, 3, 76, 64
4, 224932, Note_off_c, 3, 73, 64
4, 224967, Note_off_c, 3, 81, 64
4, 225143, Note_on_c, 3, 76, 93
4, 225143, Note_on_c, 3, 81, 93
4, 225143, Note_on_c, 3, 73, 93
4, 225170, Note_off_c, 3, 76, 64
4, 225175, Note_off_c, 3, 73, 64
4, 225193, Note_off_c, 3, 81, 64
4, 225380, Note_on_c, 3, 73, 106
4, 225380, Note_on_c, 3, 81, 106
4, 225380, Note_on_c, 3, 76, 106
4, 225408, Note_off_c, 3, 76, 64
4, 225413, Note_off_c, 3, 73, 64
4, 225420, Note_off_c, 3, 81, 64
4, 225638, Note_on_c, 3, 76, 122
4, 225638, Note_on_c, 3, 81, 122
4, 225638, Note_on_c, 3, 73, 122
4, 225665, Note_off_c, 3, 76, 64
4, 225668, Note_off_c, 3, 73, 64
4, 225698, Note_off_c, 3, 81, 64
4, 225965, Note_on_c, 3, 79, 91
4, 226062, Note_on_c, 3, 78, 86
4, 226135, Note_off_c, 3, 79, 64
4, 226200, Note_on_c, 3, 76, 84
4, 226299, Note_off_c, 3, 78, 64
4, 226337, Note_on_c, 3, 78, 86
4, 226380, Note_off_c, 3, 76, 64
4, 226460, Note_on_c, 3, 79, 91
4, 226497, Note_off_c, 3, 78, 64
4, 226560, Note_on_c, 3, 80, 86
4, 226560, Note_on_c, 3, 80, 86
4, 226668, Note_off_c, 3, 79, 64
4, 226810, Note_on_c, 3, 81, 68
4, 226813, Note_off_c, 3, 80, 64
4, 226813, Note_off_c, 3, 80, 64
4, 226867, Note_off_c, 3, 81, 64
4, 227312, Note_on_c, 3, 81, 66
4, 227355, Note_off_c, 3, 81, 64
4, 227550, Note_on_c, 3, 86, 65
4, 227805, Note_on_c, 3, 85, 51
4, 227827, Note_off_c, 3, 86, 64
4, 228042, Note_on_c, 3, 83, 55
4, 228095, Note_off_c, 3, 85, 64
4, 228262, Note_on_c, 3, 81, 61
4, 228282, Note_off_c, 3, 83, 64
4, 228482, Note_on_c, 3, 78, 82
4, 228497, Note_off_c, 3, 81, 64
4, 228722, Note_on_c, 3, 79, 57
4, 228750, Note_off_c, 3, 78, 64
4, 228785, Note_off_c, 3, 79, 64
4, 229197, Note_on_c, 3, 79, 64
4, 229242, Note_off_c, 3, 79, 64
4, 229432, Note_on_c, 3, 81, 70
4, 229690, Note_on_c, 3, 79, 49
4, 229702, Note_off_c, 3, 81, 64
4, 229927, Note_on_c, 3, 78, 57
4, 229950, Note_off_c, 3, 79, 64
4, 230167, Note_on_c, 3, 76, 49
4, 230197, Note_off_c, 3, 78, 64
4, 230400, Note_on_c, 3, 73, 80
4, 230402, Note_off_c, 3, 76, 64
4, 230642, Note_on_c, 3, 74, 62
4, 230665, Note_off_c, 3, 73, 64
4, 230720, Note_off_c, 3, 74, 64
4, 231127, Note_on_c, 3, 76, 72
4, 231187, Note_off_c, 3, 76, 64
4, 231377, Note_on_c, 3, 77, 80
4, 231617, Note_on_c, 3, 78, 52
4, 231637, Note_off_c, 3, 77, 64
4, 231730, Note_off_c, 3, 78, 64
4, 232100, Note_on_c, 3, 81, 78
4, 232202, Note_on_c, 3, 79, 78
4, 232220, Note_off_c, 3, 81, 64
4, 232250, Note_off_c, 3, 79, 64
4, 232355, Note_on_c, 3, 78, 84
4, 233065, Note_on_c, 3, 79, 86
4, 233095, Note_off_c, 3, 78, 64
4, 233170, Note_on_c, 3, 78, 78
4, 233195, Note_off_c, 3, 79, 64
4, 233295, Note_on_c, 3, 76, 70
4, 233315, Note_off_c, 3, 78, 64
4, 233360, Note_off_c, 3, 76, 64
4, 233530, Note_on_c, 3, 78, 63
4, 233582, Note_off_c, 3, 78, 64
4, 233767, Note_on_c, 3, 79, 68
4, 233810, Note_off_c, 3, 79, 64
4, 234015, Note_on_c, 3, 80, 80
4, 234052, Note_off_c, 3, 80, 64
4, 234250, Note_on_c, 3, 80, 90
4, 234485, Note_on_c, 3, 81, 61
4, 234515, Note_off_c, 3, 80, 64
4, 234565, Note_off_c, 3, 81, 64
4, 234975, Note_on_c, 3, 81, 61
4, 235010, Note_off_c, 3, 81, 64
4, 235207, Note_on_c, 3, 86, 64
4, 235445, Note_on_c, 3, 84, 67
4, 235465, Note_off_c, 3, 86, 64
4, 235675, Note_on_c, 3, 82, 54
4, 235702, Note_off_c, 3, 84, 64
4, 235922, Note_on_c, 3, 81, 58
4, 235935, Note_off_c, 3, 82, 64
4, 236160, Note_on_c, 3, 78, 64
4, 236170, Note_off_c, 3, 81, 64
4, 236385, Note_on_c, 3, 79, 62
4, 236433, Note_off_c, 3, 78, 64
4, 236467, Note_off_c, 3, 79, 64
4, 236887, Note_on_c, 3, 81, 82
4, 236947, Note_on_c, 3, 79, 77
4, 236972, Note_off_c, 3, 81, 64
4, 236997, Note_on_c, 3, 78, 75
4, 237035, Note_off_c, 3, 79, 64
4, 237060, Note_on_c, 3, 79, 79
4, 237075, Note_off_c, 3, 78, 64
4, 237117, Note_on_c, 3, 81, 84
4, 237130, Note_off_c, 3, 79, 64
4, 237365, Note_on_c, 3, 79, 62
4, 237382, Note_off_c, 3, 81, 64
4, 237602, Note_on_c, 3, 77, 70
4, 237620, Note_off_c, 3, 79, 64
4, 237850, Note_on_c, 3, 76, 56
4, 237867, Note_off_c, 3, 77, 64
4, 238092, Note_on_c, 3, 79, 69
4, 238102, Note_off_c, 3, 76, 64
4, 238342, Note_on_c, 3, 77, 52
4, 238362, Note_off_c, 3, 79, 64
4, 238395, Note_off_c, 3, 77, 64
4, 238832, Note_on_c, 3, 76, 63
4, 238885, Note_off_c, 3, 76, 64
4, 239072, Note_on_c, 3, 73, 73
4, 239315, Note_on_c, 3, 74, 66
4, 239340, Note_off_c, 3, 73, 64
4, 239392, Note_off_c, 3, 74, 64
4, 239790, Note_on_c, 3, 80, 70
4, 239830, Note_off_c, 3, 80, 64
4, 240025, Note_on_c, 3, 80, 83
4, 240982, Note_off_c, 3, 80, 64
4, 240985, Note_on_c, 3, 81, 63
4, 241190, Note_off_c, 3, 81, 64
4, 241945, Note_on_c, 3, 78, 108
4, 241987, Note_off_c, 3, 78, 64
4, 242070, Note_on_c, 3, 81, 64
4, 242195, Note_on_c, 3, 80, 42
4, 242212, Note_off_c, 3, 81, 64
4, 242302, Note_on_c, 3, 81, 49
4, 242325, Note_off_c, 3, 80, 64
4, 242422, Note_on_c, 3, 83, 66
4, 242445, Note_off_c, 3, 81, 64
4, 242540, Note_on_c, 3, 81, 60
4, 242562, Note_off_c, 3, 83, 64
4, 242652, Note_on_c, 3, 80, 41
4, 242667, Note_off_c, 3, 81, 64
4, 242770, Note_on_c, 3, 81, 54
4, 242790, Note_off_c, 3, 80, 64
4, 242900, Note_on_c, 3, 79, 66
4, 242917, Note_off_c, 3, 81, 64
4, 243020, Note_on_c, 3, 81, 45
4, 243047, Note_off_c, 3, 79, 64
4, 243135, Note_on_c, 3, 79, 49
4, 243145, Note_off_c, 3, 81, 64
4, 243247, Note_on_c, 3, 81, 47
4, 243265, Note_off_c, 3, 79, 64
4, 243365, Note_on_c, 3, 79, 56
4, 243375, Note_off_c, 3, 81, 64
4, 243482, Note_on_c, 3, 81, 45
4, 243502, Note_off_c, 3, 79, 64
4, 243600, Note_off_c, 3, 81, 64
4, 243602, Note_on_c, 3, 79, 54
4, 243717, Note_on_c, 3, 81, 45
4, 243732, Note_off_c, 3, 79, 64
4, 243837, Note_on_c, 3, 78, 70
4, 243855, Note_off_c, 3, 81, 64
4, 243875, Note_off_c, 3, 78, 64
4, 243967, Note_on_c, 3, 81, 44
4, 244087, Note_on_c, 3, 80, 53
4, 244107, Note_off_c, 3, 81, 64
4, 244195, Note_on_c, 3, 81, 63
4, 244220, Note_off_c, 3, 80, 64
4, 244312, Note_on_c, 3, 83, 70
4, 244342, Note_off_c, 3, 81, 64
4, 244437, Note_on_c, 3, 81, 54
4, 244482, Note_off_c, 3, 83, 64
4, 244555, Note_on_c, 3, 80, 39
4, 244572, Note_off_c, 3, 81, 64
4, 244667, Note_on_c, 3, 81, 55
4, 244690, Note_off_c, 3, 80, 64
4, 244785, Note_on_c, 3, 79, 69
4, 244802, Note_off_c, 3, 81, 64
4, 244907, Note_on_c, 3, 81, 54
4, 244932, Note_off_c, 3, 79, 64
4, 245035, Note_on_c, 3, 79, 55
4, 245045, Note_off_c, 3, 81, 64
4, 245145, Note_on_c, 3, 81, 56
4, 245162, Note_off_c, 3, 79, 64
4, 245277, Note_off_c, 3, 81, 64
4, 245277, Note_on_c, 3, 79, 59
4, 245387, Note_on_c, 3, 81, 58
4, 245407, Note_off_c, 3, 79, 64
4, 245512, Note_on_c, 3, 79, 61
4, 245530, Note_off_c, 3, 81, 64
4, 245630, Note_on_c, 3, 81, 51
4, 245642, Note_off_c, 3, 79, 64
4, 245760, Note_on_c, 3, 78, 63
4, 245802, Note_off_c, 3, 81, 64
4, 245945, Note_off_c, 3, 78, 64
4, 246480, Note_on_c, 3, 86, 82
4, 246517, Note_off_c, 3, 86, 64
4, 246720, Note_on_c, 3, 88, 99
4, 246765, Note_off_c, 3, 88, 64
4, 246970, Note_on_c, 3, 86, 83
4, 247012, Note_off_c, 3, 86, 64
4, 247200, Note_on_c, 3, 85, 102
4, 247252, Note_off_c, 3, 85, 64
4, 247450, Note_on_c, 3, 81, 77
4, 247490, Note_off_c, 3, 81, 64
4, 247680, Note_on_c, 3, 86, 97
4, 247800, Note_off_c, 3, 86, 64
4, 248397, Note_on_c, 3, 50, 84
4, 248465, Note_off_c, 3, 50, 64
4, 248642, Note_on_c, 3, 52, 97
4, 248717, Note_off_c, 3, 52, 64
4, 248897, Note_on_c, 3, 50, 88
4, 248947, Note_off_c, 3, 50, 64
4, 249135, Note_on_c, 3, 49, 82
4, 249185, Note_off_c, 3, 49, 64
4, 249375, Note_on_c, 3, 45, 80
4, 249425, Note_off_c, 3, 45, 64
4, 249607, Note_on_c, 3, 50, 94
4, 249747, Note_off_c, 3, 50, 64
4, 250075, Note_on_c, 3, 81, 62
4, 250545, Note_on_c, 3, 79, 46
4, 250552, Note_off_c, 3, 81, 64
4, 251015, Note_on_c, 3, 78, 52
4, 251040, Note_off_c, 3, 79, 64
4, 251470, Note_off_c, 3, 78, 64
4, 251517, Note_on_c, 3, 83, 73
4, 251760, Note_on_c, 3, 85, 64
4, 251777, Note_off_c, 3, 83, 64
4, 251835, Note_on_c, 3, 83, 59
4, 251847, Note_off_c, 3, 85, 64
4, 251917, Note_on_c, 3, 81, 57
4, 251930, Note_off_c, 3, 83, 64
4, 252017, Note_on_c, 3, 83, 66
4, 252042, Note_off_c, 3, 81, 64
4, 252067, Note_off_c, 3, 83, 64
4, 252267, Note_on_c, 3, 85, 69
4, 252302, Note_off_c, 3, 85, 64
4, 252500, Note_on_c, 3, 88, 75
4, 252727, Note_on_c, 3, 86, 68
4, 252742, Note_off_c, 3, 88, 64
4, 252770, Note_off_c, 3, 86, 64
4, 252972, Note_on_c, 3, 85, 73
4, 253007, Note_off_c, 3, 85, 64
4, 253222, Note_on_c, 3, 83, 62
4, 253255, Note_off_c, 3, 83, 64
4, 253470, Note_on_c, 3, 81, 80
4, 253490, Note_off_c, 3, 81, 64
4, 253932, Note_on_c, 3, 81, 106
4, 254400, Note_on_c, 3, 79, 97
4, 254410, Note_off_c, 3, 81, 64
4, 254857, Note_on_c, 3, 78, 89
4, 254887, Note_off_c, 3, 79, 64
4, 255350, Note_on_c, 3, 76, 95
4, 255370, Note_off_c, 3, 78, 64
4, 255722, Note_on_c, 3, 83, 95
4, 255735, Note_off_c, 3, 76, 64
4, 255857, Note_on_c, 3, 81, 82
4, 255875, Note_off_c, 3, 83, 64
4, 255955, Note_on_c, 3, 79, 84
4, 255990, Note_off_c, 3, 81, 64
4, 256072, Note_on_c, 3, 78, 88
4, 256097, Note_off_c, 3, 79, 64
4, 256182, Note_on_c, 3, 76, 91
4, 256195, Note_off_c, 3, 78, 64
4, 256312, Note_on_c, 3, 74, 95
4, 256330, Note_off_c, 3, 76, 64
4, 256697, Note_off_c, 3, 74, 64
4, 256792, Note_on_c, 3, 78, 84
4, 256842, Note_off_c, 3, 78, 64
4, 256845, Note_on_c, 3, 76, 79
4, 256890, Note_on_c, 3, 78, 75
4, 256895, Note_off_c, 3, 76, 64
4, 256927, Note_off_c, 3, 78, 64
4, 256940, Note_on_c, 3, 76, 71
4, 256970, Note_on_c, 3, 78, 71
4, 256980, Note_off_c, 3, 76, 64
4, 257015, Note_on_c, 3, 76, 69
4, 257020, Note_off_c, 3, 78, 64
4, 257062, Note_on_c, 3, 74, 68
4, 257067, Note_off_c, 3, 76, 64
4, 257165, Note_on_c, 3, 76, 68
4, 257177, Note_off_c, 3, 74, 64
4, 257292, Note_on_c, 3, 74, 80
4, 257292, Note_on_c, 3, 74, 97
4, 257302, Note_off_c, 3, 76, 64
4, 257362, Note_off_c, 3, 74, 64
4, 257362, Note_off_c, 3, 74, 64
4, 257755, Note_on_c, 3, 69, 57
4, 258237, Note_on_c, 3, 67, 47
4, 258255, Note_off_c, 3, 69, 64
4, 258747, Note_on_c, 3, 66, 48
4, 258772, Note_off_c, 3, 67, 64
4, 259197, Note_on_c, 3, 71, 68
4, 259205, Note_off_c, 3, 66, 64
4, 259435, Note_on_c, 3, 73, 66
4, 259442, Note_off_c, 3, 71, 64
4, 259507, Note_on_c, 3, 71, 62
4, 259522, Note_off_c, 3, 73, 64
4, 259572, Note_on_c, 3, 69, 60
4, 259582, Note_off_c, 3, 71, 64
4, 259680, Note_off_c, 3, 69, 64
4, 259680, Note_on_c, 3, 71, 66
4, 259705, Note_off_c, 3, 71, 64
4, 259930, Note_on_c, 3, 73, 64
4, 259965, Note_off_c, 3, 73, 64
4, 260167, Note_on_c, 3, 76, 65
4, 260410, Note_on_c, 3, 74, 58
4, 260427, Note_off_c, 3, 76, 64
4, 260447, Note_off_c, 3, 74, 64
4, 260660, Note_on_c, 3, 73, 77
4, 260687, Note_off_c, 3, 73, 64
4, 260907, Note_on_c, 3, 71, 75
4, 260932, Note_off_c, 3, 71, 64
4, 261142, Note_on_c, 3, 69, 79
4, 261175, Note_off_c, 3, 69, 64
4, 261607, Note_on_c, 3, 81, 82
4, 261615, Note_on_c, 3, 69, 82
4, 262080, Note_on_c, 3, 79, 84
4, 262080, Note_on_c, 3, 67, 84
4, 262090, Note_off_c, 3, 69, 64
4, 262107, Note_off_c, 3, 81, 64
4, 262575, Note_on_c, 3, 66, 94
4, 262575, Note_on_c, 3, 78, 94
4, 262590, Note_off_c, 3, 79, 64
4, 262595, Note_off_c, 3, 67, 64
4, 263055, Note_off_c, 3, 66, 64
4, 263070, Note_on_c, 3, 76, 95
4, 263080, Note_on_c, 3, 64, 95
4, 263098, Note_off_c, 3, 78, 64
4, 263425, Note_off_c, 3, 64, 64
4, 263425, Note_on_c, 3, 83, 91
4, 263445, Note_off_c, 3, 76, 64
4, 263552, Note_on_c, 3, 81, 75
4, 263567, Note_off_c, 3, 83, 64
4, 263650, Note_on_c, 3, 79, 79
4, 263735, Note_off_c, 3, 81, 64
4, 263775, Note_on_c, 3, 78, 82
4, 263807, Note_off_c, 3, 79, 64
4, 263885, Note_on_c, 3, 76, 86
4, 263895, Note_off_c, 3, 78, 64
4, 264015, Note_on_c, 3, 74, 91
4, 264032, Note_off_c, 3, 76, 64
4, 264335, Note_off_c, 3, 74, 64
4, 264475, Note_on_c, 3, 78, 84
4, 264517, Note_off_c, 3, 78, 64
4, 264547, Note_on_c, 3, 76, 80
4, 264570, Note_on_c, 3, 78, 80
4, 264577, Note_off_c, 3, 76, 64
4, 264615, Note_off_c, 3, 78, 64
4, 264620, Note_on_c, 3, 76, 80
4, 264662, Note_on_c, 3, 78, 80
4, 264667, Note_off_c, 3, 76, 64
4, 264697, Note_on_c, 3, 76, 82
4, 264705, Note_off_c, 3, 78, 64
4, 264735, Note_on_c, 3, 74, 82
4, 264745, Note_off_c, 3, 76, 64
4, 264805, Note_off_c, 3, 74, 64
4, 264837, Note_on_c, 3, 76, 88
4, 264891, Note_off_c, 3, 76, 64
4, 264960, Note_on_c, 3, 74, 106
4, 264960, Note_on_c, 3, 69, 106
4, 264960, Note_on_c, 3, 66, 106
4, 265400, Note_off_c, 3, 69, 64
4, 265408, Note_off_c, 3, 66, 64
4, 265412, Note_off_c, 3, 74, 64
4, 265920, Note_on_c, 3, 79, 97
4, 266035, Note_on_c, 3, 78, 79
4, 266043, Note_off_c, 3, 79, 64
4, 266157, Note_on_c, 3, 76, 83
4, 266175, Note_off_c, 3, 78, 64
4, 266270, Note_on_c, 3, 78, 91
4, 266290, Note_off_c, 3, 76, 64
4, 266392, Note_on_c, 3, 81, 105
4, 266395, Note_off_c, 3, 78, 64
4, 266497, Note_on_c, 3, 79, 83
4, 266532, Note_off_c, 3, 81, 64
4, 266620, Note_on_c, 3, 78, 88
4, 266645, Note_off_c, 3, 79, 64
4, 266727, Note_on_c, 3, 79, 89
4, 266745, Note_off_c, 3, 78, 64
4, 266880, Note_on_c, 3, 81, 105
4, 266895, Note_off_c, 3, 79, 64
4, 267033, Note_off_c, 3, 81, 64
4, 267870, Note_on_c, 3, 81, 64
4, 267907, Note_off_c, 3, 81, 64
4, 268107, Note_on_c, 3, 83, 59
4, 268147, Note_off_c, 3, 83, 64
4, 268327, Note_on_c, 3, 85, 66
4, 268370, Note_off_c, 3, 85, 64
4, 268547, Note_on_c, 3, 86, 71
4, 268590, Note_off_c, 3, 86, 64
4, 268795, Note_on_c, 3, 81, 79
4, 269270, Note_on_c, 3, 78, 42
4, 269297, Note_off_c, 3, 81, 64
4, 269515, Note_off_c, 3, 78, 64
4, 269762, Note_on_c, 3, 81, 62
4, 269870, Note_on_c, 3, 79, 53
4, 269902, Note_off_c, 3, 81, 64
4, 269985, Note_on_c, 3, 78, 51
4, 270007, Note_off_c, 3, 79, 64
4, 270095, Note_on_c, 3, 79, 53
4, 270122, Note_off_c, 3, 78, 64
4, 270217, Note_off_c, 3, 79, 64
4, 270237, Note_on_c, 3, 81, 60
4, 270270, Note_off_c, 3, 81, 64
4, 270477, Note_on_c, 3, 79, 73
4, 270510, Note_off_c, 3, 79, 64
4, 270712, Note_on_c, 3, 77, 59
4, 270970, Note_on_c, 3, 78, 55
4, 270987, Note_off_c, 3, 77, 64
4, 271015, Note_off_c, 3, 78, 64
4, 271695, Note_on_c, 3, 79, 99
4, 271810, Note_on_c, 3, 78, 77
4, 271835, Note_off_c, 3, 79, 64
4, 271922, Note_on_c, 3, 76, 80
4, 271950, Note_off_c, 3, 78, 64
4, 272027, Note_on_c, 3, 78, 93
4, 272062, Note_off_c, 3, 76, 64
4, 272162, Note_on_c, 3, 81, 109
4, 272170, Note_off_c, 3, 78, 64
4, 272280, Note_on_c, 3, 79, 86
4, 272320, Note_off_c, 3, 81, 64
4, 272397, Note_on_c, 3, 78, 91
4, 272422, Note_off_c, 3, 79, 64
4, 272502, Note_on_c, 3, 79, 104
4, 272520, Note_off_c, 3, 78, 64
4, 272632, Note_on_c, 3, 81, 118
4, 272657, Note_off_c, 3, 79, 64
4, 272767, Note_off_c, 3, 81, 64
4, 273600, Note_on_c, 3, 81, 54
4, 273650, Note_off_c, 3, 81, 64
4, 273842, Note_on_c, 3, 83, 57
4, 273882, Note_off_c, 3, 83, 64
4, 274080, Note_on_c, 3, 85, 66
4, 274112, Note_off_c, 3, 85, 64
4, 274320, Note_on_c, 3, 86, 59
4, 274355, Note_off_c, 3, 86, 64
4, 274552, Note_on_c, 3, 81, 63
4, 275050, Note_on_c, 3, 78, 54
4, 275072, Note_off_c, 3, 81, 64
4, 275300, Note_off_c, 3, 78, 64
4, 275537, Note_on_c, 3, 81, 69
4, 275647, Note_on_c, 3, 79, 55
4, 275685, Note_off_c, 3, 81, 64
4, 275765, Note_on_c, 3, 78, 48
4, 275777, Note_off_c, 3, 79, 64
4, 275877, Note_on_c, 3, 79, 50
4, 275995, Note_off_c, 3, 79, 64
4, 276000, Note_off_c, 3, 78, 64
4, 276002, Note_on_c, 3, 81, 73
4, 276100, Note_on_c, 3, 79, 57
4, 276140, Note_off_c, 3, 81, 64
4, 276230, Note_on_c, 3, 78, 59
4, 276270, Note_off_c, 3, 79, 64
4, 276347, Note_on_c, 3, 76, 62
4, 276357, Note_off_c, 3, 78, 64
4, 276435, Note_off_c, 3, 76, 64
4, 276475, Note_on_c, 3, 74, 102
4, 276597, Note_on_c, 3, 76, 77
4, 276630, Note_off_c, 3, 74, 64
4, 276722, Note_on_c, 3, 78, 82
4, 276737, Note_off_c, 3, 76, 64
4, 276842, Note_off_c, 3, 78, 64
4, 276842, Note_on_c, 3, 79, 86
4, 276962, Note_on_c, 3, 81, 91
4, 276982, Note_off_c, 3, 79, 64
4, 277067, Note_on_c, 3, 83, 95
4, 277087, Note_off_c, 3, 81, 64
4, 277202, Note_on_c, 3, 85, 100
4, 277207, Note_off_c, 3, 83, 64
4, 277272, Note_off_c, 3, 85, 64
4, 277307, Note_on_c, 3, 86, 104
4, 277347, Note_off_c, 3, 86, 64
4, 277465, Note_on_c, 3, 86, 111
4, 277912, Note_on_c, 3, 83, 83
4, 277935, Note_off_c, 3, 86, 64
4, 278120, Note_off_c, 3, 83, 64
4, 278302, Note_on_c, 3, 79, 83
4, 278402, Note_off_c, 3, 79, 64
4, 278435, Note_on_c, 3, 78, 97
4, 278902, Note_on_c, 3, 81, 97
4, 278915, Note_off_c, 3, 78, 64
4, 278987, Note_off_c, 3, 81, 64
4, 279267, Note_on_c, 3, 74, 75
4, 279312, Note_off_c, 3, 74, 64
4, 279390, Note_on_c, 3, 76, 102
4, 279857, Note_on_c, 3, 79, 77
4, 279882, Note_off_c, 3, 76, 64
4, 279955, Note_off_c, 3, 79, 64
4, 280222, Note_on_c, 3, 73, 90
4, 280262, Note_off_c, 3, 73, 64
4, 280342, Note_on_c, 3, 74, 92
4, 280442, Note_on_c, 3, 76, 74
4, 280467, Note_off_c, 3, 74, 64
4, 280555, Note_on_c, 3, 78, 84
4, 280582, Note_off_c, 3, 76, 64
4, 280665, Note_on_c, 3, 79, 83
4, 280700, Note_off_c, 3, 78, 64
4, 280755, Note_off_c, 3, 79, 64
4, 280790, Note_on_c, 3, 81, 97
4, 280902, Note_on_c, 3, 83, 70
4, 280925, Note_off_c, 3, 81, 64
4, 281030, Note_on_c, 3, 85, 61
4, 281050, Note_off_c, 3, 83, 64
4, 281147, Note_on_c, 3, 86, 97
4, 281190, Note_off_c, 3, 85, 64
4, 281275, Note_on_c, 3, 88, 112
4, 281290, Note_off_c, 3, 86, 64
4, 281390, Note_on_c, 3, 86, 92
4, 281432, Note_off_c, 3, 88, 64
4, 281510, Note_on_c, 3, 85, 105
4, 281527, Note_off_c, 3, 86, 64
4, 281622, Note_on_c, 3, 86, 90
4, 281652, Note_off_c, 3, 85, 64
4, 281747, Note_on_c, 3, 85, 112
4, 281785, Note_off_c, 3, 86, 64
4, 281860, Note_on_c, 3, 83, 83
4, 281890, Note_off_c, 3, 85, 64
4, 281987, Note_on_c, 3, 81, 83
4, 282002, Note_off_c, 3, 83, 64
4, 282102, Note_on_c, 3, 79, 79
4, 282125, Note_off_c, 3, 81, 64
4, 282217, Note_on_c, 3, 78, 84
4, 282230, Note_off_c, 3, 79, 64
4, 282340, Note_off_c, 3, 78, 64
4, 282342, Note_on_c, 3, 79, 68
4, 282462, Note_on_c, 3, 80, 83
4, 282487, Note_off_c, 3, 79, 64
4, 282582, Note_on_c, 3, 81, 63
4, 282600, Note_off_c, 3, 80, 64
4, 282717, Note_on_c, 3, 79, 86
4, 282735, Note_off_c, 3, 81, 64
4, 282835, Note_on_c, 3, 78, 83
4, 282855, Note_off_c, 3, 79, 64
4, 282955, Note_on_c, 3, 76, 59
4, 282975, Note_off_c, 3, 78, 64
4, 283072, Note_on_c, 3, 74, 72
4, 283082, Note_off_c, 3, 76, 64
4, 283202, Note_on_c, 3, 75, 108
4, 283215, Note_off_c, 3, 74, 64
4, 283322, Note_on_c, 3, 76, 69
4, 283347, Note_off_c, 3, 75, 64
4, 283442, Note_on_c, 3, 78, 55
4, 283505, Note_off_c, 3, 76, 64
4, 283555, Note_on_c, 3, 79, 67
4, 283580, Note_off_c, 3, 78, 64
4, 283690, Note_on_c, 3, 78, 105
4, 283715, Note_off_c, 3, 79, 64
4, 283795, Note_on_c, 3, 76, 70
4, 283850, Note_off_c, 3, 78, 64
4, 283922, Note_on_c, 3, 74, 67
4, 283925, Note_off_c, 3, 76, 64
4, 284035, Note_on_c, 3, 73, 79
4, 284050, Note_off_c, 3, 74, 64
4, 284137, Note_off_c, 3, 73, 64
4, 284160, Note_on_c, 3, 74, 100
4, 284285, Note_on_c, 3, 69, 61
4, 284300, Note_off_c, 3, 74, 64
4, 284390, Note_off_c, 3, 69, 64
4, 284410, Note_on_c, 3, 74, 66
4, 284510, Note_on_c, 3, 78, 79
4, 284600, Note_off_c, 3, 74, 64
4, 284642, Note_on_c, 3, 81, 88
4, 284662, Note_off_c, 3, 78, 64
4, 284760, Note_on_c, 3, 78, 64
4, 284777, Note_off_c, 3, 81, 64
4, 284875, Note_on_c, 3, 79, 77
4, 284922, Note_off_c, 3, 78, 64
4, 285000, Note_on_c, 3, 76, 62
4, 285022, Note_off_c, 3, 79, 64
4, 285110, Note_off_c, 3, 76, 64
4, 285117, Note_on_c, 3, 74, 90
4, 285242, Note_on_c, 3, 69, 67
4, 285270, Note_off_c, 3, 74, 64
4, 285362, Note_on_c, 3, 74, 77
4, 285367, Note_off_c, 3, 69, 64
4, 285475, Note_on_c, 3, 78, 83
4, 285517, Note_off_c, 3, 74, 64
4, 285615, Note_on_c, 3, 81, 93
4, 285627, Note_off_c, 3, 78, 64
4, 285717, Note_on_c, 3, 78, 79
4, 285737, Note_off_c, 3, 81, 64
4, 285837, Note_on_c, 3, 79, 88
4, 285867, Note_off_c, 3, 78, 64
4, 285962, Note_on_c, 3, 76, 78
4, 285982, Note_off_c, 3, 79, 64
4, 286082, Note_off_c, 3, 76, 64
4, 286087, Note_on_c, 3, 74, 90
4, 286197, Note_off_c, 3, 74, 64
4, 286562, Note_on_c, 3, 79, 108
4, 286562, Note_on_c, 3, 85, 108
4, 286565, Note_on_c, 3, 76, 108
4, 286705, Note_off_c, 3, 79, 64
4, 286722, Note_off_c, 3, 76, 64
4, 286735, Note_off_c, 3, 85, 64
4, 287091, Note_on_c, 3, 86, 118
4, 287091, Note_on_c, 3, 78, 118
4, 287091, Note_on_c, 3, 74, 118
4, 287406, Note_off_c, 3, 78, 64
4, 287406, Note_off_c, 3, 86, 64
4, 287429, Note_off_c, 3, 74, 64
4, 287988, Note_on_c, 3, 79, 70
4, 287988, Note_on_c, 3, 71, 61
4, 288075, Control_c, 3, 64, 127
4, 288077, Control_c, 3, 64, 127
4, 288077, Control_c, 3, 64, 127
4, 288245, Note_on_c, 3, 78, 66
4, 288250, Note_off_c, 3, 71, 64
4, 288258, Note_off_c, 3, 79, 64
4, 288262, Note_on_c, 3, 69, 66
4, 288290, Control_c, 3, 64, 0
4, 288290, Control_c, 3, 64, 0
4, 288290, Control_c, 3, 64, 0
4, 288302, Note_off_c, 3, 78, 64
4, 288310, Note_off_c, 3, 69, 64
4, 288475, Note_on_c, 3, 78, 64
4, 288495, Control_c, 3, 64, 127
4, 288495, Control_c, 3, 64, 127
4, 288495, Control_c, 3, 64, 127
4, 288495, Note_on_c, 3, 69, 64
4, 288722, Note_on_c, 3, 76, 59
4, 288727, Note_on_c, 3, 67, 60
4, 288737, Note_off_c, 3, 69, 64
4, 288747, Note_off_c, 3, 78, 64
4, 288765, Note_off_c, 3, 67, 64
4, 288785, Control_c, 3, 64, 0
4, 288785, Control_c, 3, 64, 0
4, 288785, Control_c, 3, 64, 0
4, 288800, Note_off_c, 3, 76, 64
4, 288967, Note_on_c, 3, 76, 57
4, 288975, Control_c, 3, 64, 127
4, 288975, Control_c, 3, 64, 127
4, 288975, Control_c, 3, 64, 127
4, 288975, Note_on_c, 3, 67, 57
4, 289142, Note_off_c, 3, 67, 64
4, 289210, Note_on_c, 3, 74, 51
4, 289222, Note_on_c, 3, 66, 51
4, 289227, Note_off_c, 3, 76, 64
4, 289250, Control_c, 3, 64, 0
4, 289250, Control_c, 3, 64, 0
4, 289250, Control_c, 3, 64, 0
4, 289262, Note_off_c, 3, 74, 64
4, 289282, Note_off_c, 3, 66, 64
4, 289445, Note_on_c, 3, 66, 53
4, 289445, Note_on_c, 3, 74, 53
4, 289690, Control_c, 3, 64, 127
4, 289690, Control_c, 3, 64, 127
4, 289690, Control_c, 3, 64, 127
4, 289700, Note_on_c, 3, 73, 53
4, 289702, Note_off_c, 3, 66, 64
4, 289715, Note_on_c, 3, 64, 53
4, 289717, Note_off_c, 3, 74, 64
4, 289747, Note_off_c, 3, 73, 64
4, 289765, Note_off_c, 3, 64, 64
4, 289787, Control_c, 3, 64, 0
4, 289787, Control_c, 3, 64, 0
4, 289790, Control_c, 3, 64, 0
4, 289965, Note_on_c, 3, 73, 90
4, 289965, Note_on_c, 3, 64, 90
4, 289965, Note_on_c, 3, 67, 90
4, 290467, Control_c, 3, 64, 127
4, 290467, Control_c, 3, 64, 127
4, 290467, Control_c, 3, 64, 127
4, 290930, Control_c, 3, 64, 0
4, 290930, Control_c, 3, 64, 0
4, 290930, Control_c, 3, 64, 0
4, 291110, Note_off_c, 3, 67, 64
4, 291110, Note_off_c, 3, 64, 64
4, 291110, Note_off_c, 3, 73, 64
4, 291138, Note_on_c, 3, 66, 23
4, 291138, Note_on_c, 3, 74, 27
4, 291641, Note_off_c, 3, 74, 64
4, 291641, Note_off_c, 3, 66, 64
4, 291641, End_track
5, 0, Start_track
5, 0, Title_t, "new"
5, 0, MIDI_port, 0
5, 0, Channel_prefix, 4
5, 0, Control_c, 4, 7, 113
5, 0, Control_c, 4, 10, 64
5, 0, Program_c, 4, 0
5, 153627, Note_on_c, 4, 47, 66
5, 153635, Note_on_c, 4, 59, 86
5, 155080, Note_off_c, 4, 59, 64
5, 155087, Note_off_c, 4, 47, 64
5, 155992, Note_on_c, 4, 67, 46
5, 155992, Note_on_c, 4, 71, 54
5, 156087, Note_off_c, 4, 71, 64
5, 156097, Note_off_c, 4, 67, 64
5, 156972, Note_on_c, 4, 63, 46
5, 156980, Note_on_c, 4, 71, 46
5, 157082, Note_off_c, 4, 71, 64
5, 157082, Note_off_c, 4, 63, 64
5, 157465, Note_on_c, 4, 47, 78
5, 157707, Note_on_c, 4, 45, 64
5, 157712, Note_off_c, 4, 47, 64
5, 157805, Note_off_c, 4, 45, 64
5, 157937, Note_on_c, 4, 45, 86
5, 158185, Note_on_c, 4, 43, 82
5, 158187, Note_off_c, 4, 45, 64
5, 158237, Note_off_c, 4, 43, 64
5, 158412, Note_on_c, 4, 43, 79
5, 158630, Note_on_c, 4, 42, 73
5, 158652, Note_off_c, 4, 43, 64
5, 158692, Note_off_c, 4, 42, 64
5, 158860, Note_on_c, 4, 42, 69
5, 159097, Note_on_c, 4, 40, 66
5, 159105, Note_off_c, 4, 42, 64
5, 159202, Note_off_c, 4, 40, 64
5, 161312, Note_on_c, 4, 45, 86
5, 161315, Note_on_c, 4, 57, 88
5, 162815, Note_off_c, 4, 57, 64
5, 162832, Note_off_c, 4, 45, 64
5, 163687, Note_on_c, 4, 66, 51
5, 163687, Note_on_c, 4, 69, 62
5, 163752, Note_off_c, 4, 66, 64
5, 163757, Note_off_c, 4, 69, 64
5, 164645, Note_on_c, 4, 69, 64
5, 164645, Note_on_c, 4, 61, 53
5, 164720, Note_off_c, 4, 61, 64
5, 164732, Note_off_c, 4, 69, 64
5, 165127, Note_on_c, 4, 45, 83
5, 165357, Note_on_c, 4, 43, 66
5, 165365, Note_off_c, 4, 45, 64
5, 165420, Note_off_c, 4, 43, 64
5, 165600, Note_on_c, 4, 43, 77
5, 165842, Note_on_c, 4, 42, 64
5, 165860, Note_off_c, 4, 43, 64
5, 165910, Note_off_c, 4, 42, 64
5, 166067, Note_on_c, 4, 42, 79
5, 166295, Note_off_c, 4, 42, 64
5, 166310, Note_on_c, 4, 40, 62
5, 166382, Note_off_c, 4, 40, 64
5, 166522, Note_on_c, 4, 40, 73
5, 166785, Note_on_c, 4, 38, 73
5, 166795, Note_off_c, 4, 40, 64
5, 166865, Note_off_c, 4, 38, 64
5, 167032, Note_on_c, 4, 62, 83
5, 167292, Note_on_c, 4, 61, 65
5, 167312, Note_off_c, 4, 62, 64
5, 167367, Note_off_c, 4, 61, 64
5, 167552, Note_on_c, 4, 61, 64
5, 167780, Note_on_c, 4, 59, 51
5, 167785, Note_off_c, 4, 61, 64
5, 167825, Note_off_c, 4, 59, 64
5, 168010, Note_on_c, 4, 59, 70
5, 168245, Note_on_c, 4, 57, 64
5, 168260, Note_off_c, 4, 59, 64
5, 168332, Note_off_c, 4, 57, 64
5, 168455, Note_on_c, 4, 57, 73
5, 168700, Note_on_c, 4, 56, 66
5, 168715, Note_off_c, 4, 57, 64
5, 168797, Note_off_c, 4, 56, 64
5, 168947, Note_on_c, 4, 56, 102
5, 168947, Note_on_c, 4, 44, 102
5, 169920, Note_on_c, 4, 58, 93
5, 169932, Note_on_c, 4, 46, 93
5, 169942, Note_off_c, 4, 56, 64
5, 169947, Note_off_c, 4, 44, 64
5, 170720, Note_off_c, 4, 46, 64
5, 170722, Note_off_c, 4, 58, 64
5, 170907, Note_on_c, 4, 59, 77
5, 171142, Note_on_c, 4, 57, 67
5, 171157, Note_off_c, 4, 59, 64
5, 171272, Note_off_c, 4, 57, 64
5, 171385, Note_on_c, 4, 57, 84
5, 171625, Note_on_c, 4, 55, 66
5, 171640, Note_off_c, 4, 57, 64
5, 171765, Note_off_c, 4, 55, 64
5, 171862, Note_on_c, 4, 55, 88
5, 172100, Note_on_c, 4, 54, 68
5, 172120, Note_off_c, 4, 55, 64
5, 172205, Note_off_c, 4, 54, 64
5, 172345, Note_on_c, 4, 54, 90
5, 172587, Note_on_c, 4, 53, 67
5, 172600, Note_off_c, 4, 54, 64
5, 172700, Note_off_c, 4, 53, 64
5, 172817, Note_on_c, 4, 41, 89
5, 172817, Note_on_c, 4, 53, 89
5, 173727, Note_on_c, 4, 54, 104
5, 173740, Note_on_c, 4, 42, 104
5, 173760, Note_off_c, 4, 41, 64
5, 173762, Note_off_c, 4, 53, 64
5, 174452, Note_off_c, 4, 54, 64
5, 174455, Note_off_c, 4, 42, 64
5, 174757, Note_on_c, 4, 55, 32
5, 174865, Note_on_c, 4, 62, 56
5, 174982, Note_on_c, 4, 59, 52
5, 174987, Note_off_c, 4, 62, 64
5, 175027, Note_off_c, 4, 55, 64
5, 175087, Note_on_c, 4, 62, 52
5, 175175, Note_off_c, 4, 59, 64
5, 175210, Note_off_c, 4, 62, 64
5, 175217, Note_on_c, 4, 55, 47
5, 175330, Note_on_c, 4, 62, 53
5, 175445, Note_off_c, 4, 62, 64
5, 175452, Note_on_c, 4, 59, 44
5, 175560, Note_on_c, 4, 62, 49
5, 175570, Note_off_c, 4, 55, 64
5, 175622, Note_off_c, 4, 59, 64
5, 175657, Note_off_c, 4, 62, 64
5, 175690, Note_on_c, 4, 55, 60
5, 175805, Note_on_c, 4, 62, 50
5, 175925, Note_off_c, 4, 62, 64
5, 175935, Note_on_c, 4, 59, 42
5, 176050, Note_on_c, 4, 62, 48
5, 176080, Note_off_c, 4, 55, 64
5, 176115, Note_off_c, 4, 59, 64
5, 176152, Note_off_c, 4, 62, 64
5, 176172, Note_on_c, 4, 55, 54
5, 176285, Note_on_c, 4, 62, 49
5, 176420, Note_off_c, 4, 62, 64
5, 176420, Note_on_c, 4, 59, 47
5, 176535, Note_on_c, 4, 62, 48
5, 176572, Note_off_c, 4, 55, 64
5, 176572, Note_off_c, 4, 59, 64
5, 176620, Note_off_c, 4, 62, 64
5, 176667, Note_on_c, 4, 54, 51
5, 176772, Note_on_c, 4, 61, 54
5, 176897, Note_on_c, 4, 58, 39
5, 176902, Note_off_c, 4, 61, 64
5, 177007, Note_on_c, 4, 61, 62
5, 177012, Note_off_c, 4, 54, 64
5, 177050, Note_off_c, 4, 58, 64
5, 177117, Note_off_c, 4, 61, 64
5, 177167, Note_on_c, 4, 54, 34
5, 177252, Note_on_c, 4, 61, 53
5, 177367, Note_on_c, 4, 58, 47
5, 177387, Note_off_c, 4, 61, 64
5, 177445, Note_off_c, 4, 54, 64
5, 177507, Note_on_c, 4, 61, 46
5, 177512, Note_off_c, 4, 58, 64
5, 177592, Note_off_c, 4, 61, 64
5, 177640, Note_on_c, 4, 53, 36
5, 177777, Note_on_c, 4, 62, 43
5, 177885, Note_off_c, 4, 62, 64
5, 177892, Note_on_c, 4, 56, 42
5, 177942, Note_off_c, 4, 53, 64
5, 178012, Note_on_c, 4, 62, 48
5, 178040, Note_off_c, 4, 56, 64
5, 178102, Note_off_c, 4, 62, 64
5, 178127, Note_on_c, 4, 53, 59
5, 178242, Note_on_c, 4, 62, 42
5, 178357, Note_on_c, 4, 56, 49
5, 178362, Note_off_c, 4, 53, 64
5, 178372, Note_off_c, 4, 62, 64
5, 178472, Note_on_c, 4, 62, 59
5, 178485, Note_off_c, 4, 56, 64
5, 178537, Note_off_c, 4, 62, 64
5, 178612, Note_on_c, 4, 54, 66
5, 179540, Note_on_c, 4, 42, 66
5, 179560, Note_off_c, 4, 54, 64
5, 180332, Note_off_c, 4, 42, 64
5, 180515, Note_on_c, 4, 47, 78
5, 181005, Note_on_c, 4, 42, 53
5, 181037, Note_off_c, 4, 47, 64
5, 181460, Note_off_c, 4, 42, 64
5, 181493, Note_on_c, 4, 35, 53
5, 181835, Note_off_c, 4, 35, 64
5, 182402, Note_on_c, 4, 59, 97
5, 182402, Note_on_c, 4, 47, 70
5, 183324, Note_on_c, 4, 57, 60
5, 183324, Note_on_c, 4, 45, 49
5, 183432, Note_off_c, 4, 47, 64
5, 183437, Note_off_c, 4, 59, 64
5, 183611, Note_off_c, 4, 45, 64
5, 183626, Note_off_c, 4, 57, 64
5, 184327, Note_on_c, 4, 55, 52
5, 184335, Note_on_c, 4, 43, 54
5, 185315, Note_on_c, 4, 54, 34
5, 185315, Note_on_c, 4, 42, 33
5, 185317, Note_off_c, 4, 43, 64
5, 185317, Note_off_c, 4, 55, 64
5, 185650, Note_off_c, 4, 54, 64
5, 185650, Note_off_c, 4, 42, 64
5, 186735, Note_on_c, 4, 59, 73
5, 186800, Control_c, 4, 64, 127
5, 186800, Control_c, 4, 64, 127
5, 186800, Control_c, 4, 64, 127
5, 186832, Note_on_c, 4, 67, 69
5, 186857, Note_off_c, 4, 59, 64
5, 186947, Note_on_c, 4, 59, 64
5, 186957, Note_off_c, 4, 67, 64
5, 187060, Note_on_c, 4, 67, 66
5, 187092, Note_off_c, 4, 59, 64
5, 187157, Note_off_c, 4, 67, 64
5, 187182, Note_on_c, 4, 57, 73
5, 187185, Control_c, 4, 64, 0
5, 187185, Control_c, 4, 64, 0
5, 187185, Control_c, 4, 64, 0
5, 187307, Note_on_c, 4, 67, 47
5, 187312, Control_c, 4, 64, 127
5, 187312, Control_c, 4, 64, 127
5, 187312, Control_c, 4, 64, 127
5, 187345, Note_off_c, 4, 57, 64
5, 187427, Note_on_c, 4, 57, 54
5, 187432, Note_off_c, 4, 67, 64
5, 187550, Note_on_c, 4, 67, 60
5, 187562, Note_off_c, 4, 57, 64
5, 187640, Note_off_c, 4, 67, 64
5, 187675, Note_on_c, 4, 55, 52
5, 187675, Control_c, 4, 64, 0
5, 187675, Control_c, 4, 64, 0
5, 187675, Control_c, 4, 64, 0
5, 187797, Note_on_c, 4, 67, 64
5, 187805, Note_off_c, 4, 55, 64
5, 187845, Control_c, 4, 64, 127
5, 187845, Control_c, 4, 64, 127
5, 187845, Control_c, 4, 64, 127
5, 187920, Note_off_c, 4, 67, 64
5, 187920, Note_on_c, 4, 55, 50
5, 188035, Note_on_c, 4, 67, 56
5, 188042, Note_off_c, 4, 55, 64
5, 188090, Note_off_c, 4, 67, 64
5, 188165, Control_c, 4, 64, 0
5, 188165, Control_c, 4, 64, 0
5, 188165, Control_c, 4, 64, 0
5, 188172, Note_on_c, 4, 60, 78
5, 188280, Note_on_c, 4, 67, 57
5, 188400, Note_on_c, 4, 66, 49
5, 188417, Note_off_c, 4, 67, 64
5, 188545, Note_on_c, 4, 67, 38
5, 188577, Note_off_c, 4, 66, 64
5, 188580, Note_off_c, 4, 60, 64
5, 188667, Note_on_c, 4, 60, 77
5, 188685, Note_off_c, 4, 67, 64
5, 188782, Note_on_c, 4, 67, 49
5, 188915, Note_on_c, 4, 66, 42
5, 188937, Note_off_c, 4, 67, 64
5, 189020, Note_off_c, 4, 60, 64
5, 189045, Note_on_c, 4, 67, 50
5, 189085, Note_off_c, 4, 66, 64
5, 189167, Note_on_c, 4, 60, 77
5, 189182, Note_off_c, 4, 67, 64
5, 189287, Note_on_c, 4, 67, 59
5, 189400, Note_on_c, 4, 66, 57
5, 189427, Note_off_c, 4, 67, 64
5, 189535, Note_on_c, 4, 67, 55
5, 189565, Note_off_c, 4, 60, 64
5, 189567, Note_off_c, 4, 66, 64
5, 189652, Note_off_c, 4, 67, 64
5, 189660, Note_on_c, 4, 60, 72
5, 189767, Note_on_c, 4, 67, 50
5, 189895, Note_on_c, 4, 66, 40
5, 189927, Note_off_c, 4, 67, 64
5, 190022, Note_off_c, 4, 60, 64
5, 190030, Note_on_c, 4, 67, 54
5, 190057, Note_off_c, 4, 66, 64
5, 190147, Note_off_c, 4, 67, 64
5, 190147, Note_on_c, 4, 59, 62
5, 190250, Note_on_c, 4, 67, 60
5, 190367, Note_on_c, 4, 66, 36
5, 190400, Note_off_c, 4, 67, 64
5, 190487, Control_c, 4, 64, 127
5, 190487, Note_on_c, 4, 67, 42
5, 190490, Control_c, 4, 64, 127
5, 190490, Control_c, 4, 64, 127
5, 190515, Note_off_c, 4, 59, 64
5, 190520, Note_off_c, 4, 66, 64
5, 190532, Note_off_c, 4, 67, 64
5, 190535, Control_c, 4, 64, 0
5, 190535, Control_c, 4, 64, 0
5, 190535, Control_c, 4, 64, 0
5, 190637, Note_on_c, 4, 59, 60
5, 190655, Control_c, 4, 64, 127
5, 190655, Control_c, 4, 64, 127
5, 190655, Control_c, 4, 64, 127
5, 190725, Note_on_c, 4, 67, 40
5, 190757, Note_off_c, 4, 59, 64
5, 190832, Note_off_c, 4, 67, 64
5, 190857, Note_on_c, 4, 59, 30
5, 190962, Note_on_c, 4, 67, 36
5, 190972, Note_off_c, 4, 59, 64
5, 191052, Note_off_c, 4, 67, 64
5, 191087, Note_on_c, 4, 57, 54
5, 191095, Control_c, 4, 64, 0
5, 191095, Control_c, 4, 64, 0
5, 191095, Control_c, 4, 64, 0
5, 191190, Note_on_c, 4, 67, 30
5, 191207, Note_off_c, 4, 57, 64
5, 191220, Control_c, 4, 64, 127
5, 191220, Control_c, 4, 64, 127
5, 191220, Control_c, 4, 64, 127
5, 191295, Note_off_c, 4, 67, 64
5, 191307, Note_on_c, 4, 57, 28
5, 191417, Note_on_c, 4, 67, 32
5, 191422, Note_off_c, 4, 57, 64
5, 191527, Note_off_c, 4, 67, 64
5, 191527, Note_on_c, 4, 55, 46
5, 191540, Control_c, 4, 64, 0
5, 191540, Control_c, 4, 64, 0
5, 191542, Control_c, 4, 64, 0
5, 191615, Control_c, 4, 64, 127
5, 191615, Control_c, 4, 64, 127
5, 191615, Control_c, 4, 64, 127
5, 191645, Note_on_c, 4, 67, 30
5, 191677, Note_off_c, 4, 55, 64
5, 191752, Note_off_c, 4, 67, 64
5, 191757, Note_on_c, 4, 55, 34
5, 191872, Note_on_c, 4, 67, 38
5, 191905, Note_off_c, 4, 67, 64
5, 191915, Note_off_c, 4, 55, 64
5, 192030, Control_c, 4, 64, 0
5, 192032, Control_c, 4, 64, 0
5, 192032, Control_c, 4, 64, 0
5, 192032, Note_on_c, 4, 48, 34
5, 192127, Note_on_c, 4, 57, 46
5, 192127, Control_c, 4, 64, 127
5, 192127, Control_c, 4, 64, 127
5, 192127, Control_c, 4, 64, 127
5, 192212, Note_off_c, 4, 57, 64
5, 192245, Note_on_c, 4, 52, 51
5, 192275, Note_off_c, 4, 48, 64
5, 192347, Note_on_c, 4, 57, 48
5, 192407, Note_off_c, 4, 52, 64
5, 192462, Note_off_c, 4, 57, 64
5, 192487, Note_on_c, 4, 48, 47
5, 192520, Control_c, 4, 64, 0
5, 192520, Control_c, 4, 64, 0
5, 192520, Control_c, 4, 64, 0
5, 192600, Note_on_c, 4, 57, 41
5, 192612, Control_c, 4, 64, 127
5, 192612, Control_c, 4, 64, 127
5, 192612, Control_c, 4, 64, 127
5, 192720, Note_off_c, 4, 57, 64
5, 192727, Note_on_c, 4, 52, 52
5, 192775, Note_off_c, 4, 48, 64
5, 192837, Note_on_c, 4, 57, 53
5, 192865, Note_off_c, 4, 52, 64
5, 192875, Note_off_c, 4, 57, 64
5, 192960, Control_c, 4, 64, 0
5, 192960, Control_c, 4, 64, 0
5, 192960, Control_c, 4, 64, 0
5, 192962, Note_on_c, 4, 50, 41
5, 193067, Note_on_c, 4, 59, 47
5, 193082, Control_c, 4, 64, 127
5, 193082, Control_c, 4, 64, 127
5, 193082, Control_c, 4, 64, 127
5, 193185, Note_off_c, 4, 59, 64
5, 193187, Note_on_c, 4, 55, 41
5, 193305, Note_on_c, 4, 59, 50
5, 193312, Note_off_c, 4, 50, 64
5, 193330, Note_off_c, 4, 55, 64
5, 193357, Note_off_c, 4, 59, 64
5, 193425, Control_c, 4, 64, 0
5, 193425, Control_c, 4, 64, 0
5, 193425, Control_c, 4, 64, 0
5, 193432, Note_on_c, 4, 50, 49
5, 193530, Note_on_c, 4, 60, 57
5, 193540, Control_c, 4, 64, 127
5, 193540, Control_c, 4, 64, 127
5, 193540, Control_c, 4, 64, 127
5, 193652, Note_off_c, 4, 60, 64
5, 193672, Note_on_c, 4, 54, 40
5, 193772, Note_on_c, 4, 60, 48
5, 193787, Note_off_c, 4, 54, 64
5, 193805, Note_off_c, 4, 50, 64
5, 193820, Note_off_c, 4, 60, 64
5, 193912, Control_c, 4, 64, 0
5, 193912, Control_c, 4, 64, 0
5, 193912, Control_c, 4, 64, 0
5, 193940, Note_on_c, 4, 55, 40
5, 194030, Note_on_c, 4, 62, 44
5, 194057, Control_c, 4, 64, 127
5, 194057, Control_c, 4, 64, 127
5, 194057, Control_c, 4, 64, 127
5, 194140, Note_off_c, 4, 62, 64
5, 194152, Note_on_c, 4, 59, 46
5, 194255, Note_off_c, 4, 55, 64
5, 194272, Note_off_c, 4, 59, 64
5, 194272, Note_on_c, 4, 62, 29
5, 194310, Note_off_c, 4, 62, 64
5, 194392, Note_on_c, 4, 59, 82
5, 194400, Control_c, 4, 64, 0
5, 194400, Control_c, 4, 64, 0
5, 194400, Control_c, 4, 64, 0
5, 194470, Control_c, 4, 64, 127
5, 194475, Control_c, 4, 64, 127
5, 194475, Control_c, 4, 64, 127
5, 194512, Note_on_c, 4, 67, 60
5, 194540, Note_off_c, 4, 59, 64
5, 194627, Note_off_c, 4, 67, 64
5, 194627, Note_on_c, 4, 59, 77
5, 194742, Note_on_c, 4, 67, 68
5, 194765, Note_off_c, 4, 59, 64
5, 194840, Control_c, 4, 64, 0
5, 194840, Control_c, 4, 64, 0
5, 194840, Control_c, 4, 64, 0
5, 194855, Note_off_c, 4, 67, 64
5, 194865, Note_on_c, 4, 57, 48
5, 195000, Note_on_c, 4, 67, 54
5, 195040, Note_off_c, 4, 57, 64
5, 195125, Note_on_c, 4, 57, 44
5, 195135, Note_off_c, 4, 67, 64
5, 195232, Note_on_c, 4, 67, 48
5, 195260, Note_off_c, 4, 57, 64
5, 195347, Note_off_c, 4, 67, 64
5, 195355, Note_on_c, 4, 55, 50
5, 195477, Note_on_c, 4, 67, 56
5, 195512, Note_off_c, 4, 55, 64
5, 195572, Control_c, 4, 64, 127
5, 195575, Control_c, 4, 64, 127
5, 195575, Control_c, 4, 64, 127
5, 195602, Note_on_c, 4, 55, 54
5, 195607, Note_off_c, 4, 67, 64
5, 195715, Note_off_c, 4, 55, 64
5, 195715, Note_on_c, 4, 67, 56
5, 195782, Note_off_c, 4, 67, 64
5, 195840, Control_c, 4, 64, 0
5, 195840, Control_c, 4, 64, 0
5, 195840, Control_c, 4, 64, 0
5, 195852, Note_on_c, 4, 60, 52
5, 195955, Note_on_c, 4, 67, 62
5, 196075, Note_on_c, 4, 66, 44
5, 196097, Note_off_c, 4, 67, 64
5, 196192, Note_on_c, 4, 67, 60
5, 196220, Note_off_c, 4, 60, 64
5, 196230, Note_off_c, 4, 66, 64
5, 196320, Note_off_c, 4, 67, 64
5, 196332, Note_on_c, 4, 60, 81
5, 196465, Note_on_c, 4, 67, 54
5, 196595, Note_on_c, 4, 66, 36
5, 196612, Note_off_c, 4, 67, 64
5, 196715, Note_on_c, 4, 67, 46
5, 196740, Note_off_c, 4, 60, 64
5, 196757, Note_off_c, 4, 66, 64
5, 196845, Note_on_c, 4, 60, 68
5, 196860, Note_off_c, 4, 67, 64
5, 196957, Note_on_c, 4, 67, 56
5, 197082, Note_on_c, 4, 66, 36
5, 197105, Note_off_c, 4, 60, 64
5, 197107, Note_off_c, 4, 67, 64
5, 197192, Note_on_c, 4, 67, 46
5, 197220, Note_off_c, 4, 66, 64
5, 197310, Note_on_c, 4, 60, 75
5, 197332, Note_off_c, 4, 67, 64
5, 197425, Note_on_c, 4, 67, 60
5, 197540, Note_on_c, 4, 66, 42
5, 197570, Note_off_c, 4, 67, 64
5, 197577, Note_off_c, 4, 60, 64
5, 197667, Note_on_c, 4, 67, 54
5, 197702, Note_off_c, 4, 66, 64
5, 197777, Note_off_c, 4, 67, 64
5, 197777, Note_on_c, 4, 59, 60
5, 197887, Note_on_c, 4, 67, 54
5, 198022, Note_on_c, 4, 66, 52
5, 198050, Note_off_c, 4, 67, 64
5, 198132, Note_on_c, 4, 67, 60
5, 198152, Note_off_c, 4, 59, 64
5, 198172, Note_off_c, 4, 66, 64
5, 198205, Note_off_c, 4, 67, 64
5, 198262, Note_on_c, 4, 59, 38
5, 198262, Control_c, 4, 64, 127
5, 198262, Control_c, 4, 64, 127
5, 198262, Control_c, 4, 64, 127
5, 198385, Note_on_c, 4, 67, 30
5, 198405, Note_off_c, 4, 59, 64
5, 198500, Note_off_c, 4, 67, 64
5, 198507, Note_on_c, 4, 59, 39
5, 198617, Note_on_c, 4, 67, 42
5, 198625, Note_off_c, 4, 59, 64
5, 198695, Note_off_c, 4, 67, 64
5, 198745, Note_on_c, 4, 57, 39
5, 198752, Control_c, 4, 64, 0
5, 198752, Control_c, 4, 64, 0
5, 198752, Control_c, 4, 64, 0
5, 198850, Control_c, 4, 64, 127
5, 198850, Control_c, 4, 64, 127
5, 198850, Control_c, 4, 64, 127
5, 198852, Note_on_c, 4, 67, 47
5, 198867, Note_off_c, 4, 57, 64
5, 198967, Note_off_c, 4, 67, 64
5, 198972, Note_on_c, 4, 57, 47
5, 199087, Note_off_c, 4, 57, 64
5, 199087, Note_on_c, 4, 67, 41
5, 199212, Note_on_c, 4, 55, 37
5, 199217, Note_off_c, 4, 67, 64
5, 199237, Control_c, 4, 64, 0
5, 199237, Control_c, 4, 64, 0
5, 199237, Control_c, 4, 64, 0
5, 199312, Control_c, 4, 64, 127
5, 199312, Control_c, 4, 64, 127
5, 199312, Control_c, 4, 64, 127
5, 199325, Note_on_c, 4, 67, 48
5, 199340, Note_off_c, 4, 55, 64
5, 199440, Note_on_c, 4, 55, 42
5, 199447, Note_off_c, 4, 67, 64
5, 199545, Note_on_c, 4, 67, 62
5, 199577, Note_off_c, 4, 67, 64
5, 199582, Note_off_c, 4, 55, 64
5, 199680, Control_c, 4, 64, 0
5, 199680, Control_c, 4, 64, 0
5, 199680, Control_c, 4, 64, 0
5, 199690, Note_on_c, 4, 48, 47
5, 199792, Note_on_c, 4, 57, 53
5, 199800, Control_c, 4, 64, 127
5, 199802, Control_c, 4, 64, 127
5, 199802, Control_c, 4, 64, 127
5, 199870, Note_off_c, 4, 57, 64
5, 199915, Note_on_c, 4, 52, 43
5, 199952, Note_off_c, 4, 48, 64
5, 200020, Note_on_c, 4, 57, 42
5, 200072, Note_off_c, 4, 52, 64
5, 200105, Note_off_c, 4, 57, 64
5, 200152, Note_on_c, 4, 48, 45
5, 200167, Control_c, 4, 64, 0
5, 200167, Control_c, 4, 64, 0
5, 200167, Control_c, 4, 64, 0
5, 200267, Note_on_c, 4, 57, 43
5, 200315, Control_c, 4, 64, 127
5, 200315, Control_c, 4, 64, 127
5, 200315, Control_c, 4, 64, 127
5, 200385, Note_off_c, 4, 57, 64
5, 200397, Note_on_c, 4, 52, 48
5, 200510, Note_on_c, 4, 57, 46
5, 200515, Note_off_c, 4, 48, 64
5, 200532, Note_off_c, 4, 52, 64
5, 200562, Note_off_c, 4, 57, 64
5, 200650, Note_on_c, 4, 50, 43
5, 200650, Control_c, 4, 64, 0
5, 200650, Control_c, 4, 64, 0
5, 200650, Control_c, 4, 64, 0
5, 200760, Note_on_c, 4, 59, 41
5, 200780, Control_c, 4, 64, 127
5, 200780, Control_c, 4, 64, 127
5, 200780, Control_c, 4, 64, 127
5, 200880, Note_off_c, 4, 59, 64
5, 200890, Note_on_c, 4, 55, 47
5, 201000, Note_off_c, 4, 50, 64
5, 201002, Note_on_c, 4, 59, 35
5, 201032, Note_off_c, 4, 55, 64
5, 201062, Note_off_c, 4, 59, 64
5, 201132, Note_on_c, 4, 50, 39
5, 201142, Control_c, 4, 64, 0
5, 201142, Control_c, 4, 64, 0
5, 201142, Control_c, 4, 64, 0
5, 201245, Note_on_c, 4, 60, 58
5, 201267, Control_c, 4, 64, 127
5, 201267, Control_c, 4, 64, 127
5, 201267, Control_c, 4, 64, 127
5, 201345, Note_off_c, 4, 60, 64
5, 201360, Note_on_c, 4, 54, 57
5, 201392, Note_off_c, 4, 50, 64
5, 201445, Note_off_c, 4, 54, 64
5, 201472, Note_on_c, 4, 60, 59
5, 201532, Note_off_c, 4, 60, 64
5, 201645, Note_on_c, 4, 59, 70
5, 201647, Note_on_c, 4, 55, 64
5, 201685, Control_c, 4, 64, 0
5, 201685, Control_c, 4, 64, 0
5, 201685, Control_c, 4, 64, 0
5, 201860, Note_off_c, 4, 59, 64
5, 201902, Note_off_c, 4, 55, 64
5, 202360, Note_on_c, 4, 54, 58
5, 202360, Note_on_c, 4, 62, 58
5, 202480, Note_off_c, 4, 62, 64
5, 202487, Note_off_c, 4, 54, 64
5, 202615, Note_on_c, 4, 55, 68
5, 202615, Note_on_c, 4, 62, 68
5, 202785, Note_off_c, 4, 62, 64
5, 202790, Note_off_c, 4, 55, 64
5, 203280, Note_on_c, 4, 54, 62
5, 203280, Note_on_c, 4, 62, 62
5, 203380, Note_off_c, 4, 54, 64
5, 203385, Note_off_c, 4, 62, 64
5, 203520, Note_on_c, 4, 62, 70
5, 203520, Note_on_c, 4, 55, 70
5, 203678, Note_off_c, 4, 55, 64
5, 203685, Note_off_c, 4, 62, 64
5, 204232, Note_on_c, 4, 62, 70
5, 204232, Note_on_c, 4, 54, 70
5, 204319, Note_off_c, 4, 54, 64
5, 204327, Note_off_c, 4, 62, 64
5, 204467, Note_on_c, 4, 62, 72
5, 204467, Note_on_c, 4, 55, 72
5, 204567, Note_off_c, 4, 55, 64
5, 204572, Note_off_c, 4, 62, 64
5, 204705, Note_on_c, 4, 62, 65
5, 204705, Note_on_c, 4, 54, 65
5, 204795, Note_off_c, 4, 62, 64
5, 204812, Note_off_c, 4, 54, 64
5, 204960, Note_on_c, 4, 55, 70
5, 204960, Note_on_c, 4, 62, 70
5, 205012, Note_off_c, 4, 62, 64
5, 205023, Note_off_c, 4, 55, 64
5, 205182, Note_on_c, 4, 55, 63
5, 205182, Note_on_c, 4, 52, 63
5, 205255, Note_off_c, 4, 52, 64
5, 205267, Note_off_c, 4, 55, 64
5, 205440, Note_on_c, 4, 54, 75
5, 205440, Note_on_c, 4, 57, 75
5, 205625, Note_off_c, 4, 54, 64
5, 205633, Note_off_c, 4, 57, 64
5, 206160, Note_on_c, 4, 57, 51
5, 206160, Note_on_c, 4, 49, 51
5, 206265, Note_off_c, 4, 49, 64
5, 206280, Note_off_c, 4, 57, 64
5, 206400, Note_on_c, 4, 57, 60
5, 206400, Note_on_c, 4, 50, 60
5, 206610, Note_off_c, 4, 50, 64
5, 206610, Note_off_c, 4, 57, 64
5, 207127, Note_on_c, 4, 57, 55
5, 207127, Note_on_c, 4, 49, 55
5, 207207, Note_off_c, 4, 49, 64
5, 207220, Note_off_c, 4, 57, 64
5, 207360, Note_on_c, 4, 50, 69
5, 207360, Note_on_c, 4, 57, 69
5, 207560, Note_off_c, 4, 50, 64
5, 207563, Note_off_c, 4, 57, 64
5, 208097, Note_on_c, 4, 59, 57
5, 208097, Note_on_c, 4, 51, 57
5, 208192, Note_off_c, 4, 51, 64
5, 208214, Note_off_c, 4, 59, 64
5, 208332, Note_on_c, 4, 59, 70
5, 208332, Note_on_c, 4, 52, 70
5, 208514, Note_off_c, 4, 52, 64
5, 208522, Note_off_c, 4, 59, 64
5, 209055, Note_on_c, 4, 59, 75
5, 209055, Note_on_c, 4, 51, 75
5, 209150, Note_off_c, 4, 51, 64
5, 209160, Note_off_c, 4, 59, 64
5, 209292, Note_on_c, 4, 59, 84
5, 209292, Note_on_c, 4, 52, 84
5, 209480, Note_off_c, 4, 59, 64
5, 209482, Note_off_c, 4, 52, 64
5, 210002, Note_on_c, 4, 52, 87
5, 210002, Note_on_c, 4, 61, 87
5, 210130, Note_off_c, 4, 52, 64
5, 210150, Note_off_c, 4, 61, 64
5, 210261, Note_on_c, 4, 54, 75
5, 210261, Note_on_c, 4, 62, 75
5, 210429, Note_off_c, 4, 54, 64
5, 210443, Note_off_c, 4, 62, 64
5, 210965, Note_on_c, 4, 61, 84
5, 210965, Note_on_c, 4, 52, 84
5, 211092, Note_off_c, 4, 61, 64
5, 211093, Note_off_c, 4, 52, 64
5, 211216, Note_on_c, 4, 54, 73
5, 211216, Note_on_c, 4, 62, 73
5, 211396, Note_off_c, 4, 62, 64
5, 211408, Note_off_c, 4, 54, 64
5, 211922, Note_on_c, 4, 66, 90
5, 212025, Note_off_c, 4, 66, 64
5, 212177, Note_on_c, 4, 67, 86
5, 212252, Note_off_c, 4, 67, 64
5, 212420, Note_on_c, 4, 66, 77
5, 212490, Note_off_c, 4, 66, 64
5, 212652, Note_on_c, 4, 67, 88
5, 212700, Note_off_c, 4, 67, 64
5, 212915, Note_on_c, 4, 63, 94
5, 213000, Note_off_c, 4, 63, 64
5, 213140, Note_on_c, 4, 64, 94
5, 213212, Note_off_c, 4, 64, 64
5, 213367, Note_on_c, 4, 63, 90
5, 213472, Note_off_c, 4, 63, 64
5, 213615, Note_on_c, 4, 64, 75
5, 213672, Note_off_c, 4, 64, 64
5, 213852, Note_on_c, 4, 61, 88
5, 213952, Note_off_c, 4, 61, 64
5, 214092, Note_on_c, 4, 62, 73
5, 214192, Note_off_c, 4, 62, 64
5, 214332, Note_on_c, 4, 61, 83
5, 214447, Note_off_c, 4, 61, 64
5, 214572, Note_on_c, 4, 62, 73
5, 214637, Note_off_c, 4, 62, 64
5, 214807, Note_on_c, 4, 58, 88
5, 214910, Note_off_c, 4, 58, 64
5, 215035, Note_on_c, 4, 59, 88
5, 215127, Note_off_c, 4, 59, 64
5, 215280, Note_on_c, 4, 58, 83
5, 215412, Note_off_c, 4, 58, 64
5, 215527, Note_on_c, 4, 59, 70
5, 215595, Note_off_c, 4, 59, 64
5, 215770, Note_on_c, 4, 57, 60
5, 215770, Note_on_c, 4, 60, 60
5, 216020, Note_on_c, 4, 59, 69
5, 216020, Note_on_c, 4, 55, 69
5, 216070, Note_off_c, 4, 60, 64
5, 216070, Note_off_c, 4, 57, 64
5, 216245, Note_off_c, 4, 59, 64
5, 216245, Note_off_c, 4, 55, 64
5, 216960, Note_on_c, 4, 64, 90
5, 216962, Note_on_c, 4, 55, 73
5, 217072, Note_off_c, 4, 55, 64
5, 217072, Note_off_c, 4, 64, 64
5, 217200, Note_on_c, 4, 64, 69
5, 217207, Note_on_c, 4, 55, 69
5, 217292, Note_off_c, 4, 64, 64
5, 217315, Note_off_c, 4, 55, 64
5, 217437, Note_on_c, 4, 64, 69
5, 217440, Note_on_c, 4, 55, 69
5, 217530, Note_off_c, 4, 55, 64
5, 217532, Note_off_c, 4, 64, 64
5, 217675, Note_on_c, 4, 55, 64
5, 217675, Note_on_c, 4, 64, 72
5, 217767, Note_off_c, 4, 64, 64
5, 217772, Note_off_c, 4, 55, 64
5, 217910, Note_on_c, 4, 64, 83
5, 217917, Note_on_c, 4, 55, 81
5, 217992, Note_off_c, 4, 64, 64
5, 218000, Note_off_c, 4, 55, 64
5, 218137, Note_on_c, 4, 64, 92
5, 218140, Note_on_c, 4, 55, 84
5, 218222, Note_off_c, 4, 55, 64
5, 218222, Note_off_c, 4, 64, 64
5, 218397, Note_on_c, 4, 64, 75
5, 218397, Note_on_c, 4, 56, 83
5, 218450, Note_off_c, 4, 64, 64
5, 218455, Note_off_c, 4, 56, 64
5, 218637, Note_on_c, 4, 64, 73
5, 218640, Note_on_c, 4, 56, 73
5, 218705, Note_off_c, 4, 64, 64
5, 218720, Note_off_c, 4, 56, 64
5, 218897, Note_on_c, 4, 57, 93
5, 218950, Note_off_c, 4, 57, 64
5, 219132, Note_on_c, 4, 55, 78
5, 219180, Note_off_c, 4, 55, 64
5, 219362, Note_on_c, 4, 54, 90
5, 219412, Note_off_c, 4, 54, 64
5, 219607, Note_on_c, 4, 50, 83
5, 219660, Note_off_c, 4, 50, 64
5, 219857, Note_on_c, 4, 49, 108
5, 219907, Note_off_c, 4, 49, 64
5, 220087, Note_on_c, 4, 45, 74
5, 220130, Note_off_c, 4, 45, 64
5, 220327, Note_on_c, 4, 50, 79
5, 220375, Note_off_c, 4, 50, 64
5, 220565, Note_on_c, 4, 54, 86
5, 220612, Note_off_c, 4, 54, 64
5, 220802, Note_on_c, 4, 57, 91
5, 220852, Note_off_c, 4, 57, 64
5, 221040, Note_on_c, 4, 55, 73
5, 221105, Note_off_c, 4, 55, 64
5, 221272, Note_on_c, 4, 54, 90
5, 221355, Note_off_c, 4, 54, 64
5, 221532, Note_on_c, 4, 50, 83
5, 221597, Note_off_c, 4, 50, 64
5, 221792, Note_on_c, 4, 49, 112
5, 221852, Note_off_c, 4, 49, 64
5, 222027, Note_on_c, 4, 45, 77
5, 222107, Note_off_c, 4, 45, 64
5, 222265, Note_on_c, 4, 50, 75
5, 222345, Note_off_c, 4, 50, 64
5, 222505, Note_on_c, 4, 54, 94
5, 222540, Note_off_c, 4, 54, 64
5, 222740, Note_on_c, 4, 57, 72
5, 222740, Note_on_c, 4, 52, 72
5, 222740, Note_on_c, 4, 45, 72
5, 222747, Control_c, 4, 64, 127
5, 222752, Control_c, 4, 64, 127
5, 222752, Control_c, 4, 64, 127
5, 222970, Note_off_c, 4, 52, 64
5, 222992, Note_off_c, 4, 45, 64
5, 223010, Note_off_c, 4, 57, 64
5, 223020, Control_c, 4, 64, 0
5, 223020, Control_c, 4, 64, 0
5, 223020, Control_c, 4, 64, 0
5, 223205, Note_on_c, 4, 57, 102
5, 223205, Note_on_c, 4, 50, 102
5, 223207, Note_on_c, 4, 54, 102
5, 223332, Control_c, 4, 64, 127
5, 223332, Control_c, 4, 64, 127
5, 223332, Control_c, 4, 64, 127
5, 223452, Note_off_c, 4, 50, 64
5, 223457, Note_off_c, 4, 54, 64
5, 223482, Note_off_c, 4, 57, 64
5, 223507, Control_c, 4, 64, 0
5, 223507, Control_c, 4, 64, 0
5, 223507, Control_c, 4, 64, 0
5, 223677, Note_on_c, 4, 52, 70
5, 223677, Note_on_c, 4, 57, 70
5, 223680, Note_on_c, 4, 45, 70
5, 223842, Control_c, 4, 64, 127
5, 223842, Control_c, 4, 64, 127
5, 223842, Control_c, 4, 64, 127
5, 223937, Note_off_c, 4, 45, 64
5, 223937, Note_off_c, 4, 52, 64
5, 223960, Note_off_c, 4, 57, 64
5, 223972, Control_c, 4, 64, 0
5, 223972, Control_c, 4, 64, 0
5, 223972, Control_c, 4, 64, 0
5, 224157, Note_on_c, 4, 50, 92
5, 224160, Note_on_c, 4, 54, 92
5, 224160, Note_on_c, 4, 57, 92
5, 224485, Note_off_c, 4, 50, 64
5, 224495, Note_off_c, 4, 54, 64
5, 224512, Note_off_c, 4, 57, 64
5, 224895, Note_on_c, 4, 52, 80
5, 224895, Note_on_c, 4, 57, 80
5, 224895, Note_on_c, 4, 49, 80
5, 224895, Note_on_c, 4, 45, 80
5, 224947, Note_off_c, 4, 45, 64
5, 224955, Note_off_c, 4, 49, 64
5, 224955, Note_off_c, 4, 52, 64
5, 224968, Note_off_c, 4, 57, 64
5, 225143, Note_on_c, 4, 45, 84
5, 225143, Note_on_c, 4, 57, 84
5, 225143, Note_on_c, 4, 52, 84
5, 225143, Note_on_c, 4, 49, 84
5, 225193, Note_off_c, 4, 45, 64
5, 225203, Note_off_c, 4, 52, 64
5, 225210, Note_off_c, 4, 49, 64
5, 225215, Note_off_c, 4, 57, 64
5, 225380, Note_on_c, 4, 52, 124
5, 225380, Note_on_c, 4, 45, 124
5, 225380, Note_on_c, 4, 57, 124
5, 225380, Note_on_c, 4, 49, 124
5, 225430, Note_off_c, 4, 45, 64
5, 225445, Note_off_c, 4, 52, 64
5, 225450, Note_off_c, 4, 49, 64
5, 225463, Note_off_c, 4, 57, 64
5, 225638, Note_on_c, 4, 52, 127
5, 225638, Note_on_c, 4, 45, 127
5, 225638, Note_on_c, 4, 49, 127
5, 225638, Note_on_c, 4, 57, 127
5, 225733, Note_off_c, 4, 52, 64
5, 225736, Note_off_c, 4, 49, 64
5, 225738, Note_off_c, 4, 45, 64
5, 225745, Note_off_c, 4, 57, 64
5, 226572, Note_on_c, 4, 62, 38
5, 226702, Control_c, 4, 64, 127
5, 226702, Control_c, 4, 64, 127
5, 226702, Control_c, 4, 64, 127
5, 226802, Note_on_c, 4, 66, 37
5, 226832, Note_off_c, 4, 62, 64
5, 226832, Control_c, 4, 64, 0
5, 226832, Control_c, 4, 64, 0
5, 226832, Control_c, 4, 64, 0
5, 227025, Note_on_c, 4, 64, 40
5, 227052, Note_off_c, 4, 66, 64
5, 227295, Control_c, 4, 64, 127
5, 227295, Control_c, 4, 64, 127
5, 227295, Control_c, 4, 64, 127
5, 227295, Note_on_c, 4, 67, 41
5, 227327, Note_off_c, 4, 64, 64
5, 227532, Note_off_c, 4, 67, 64
5, 227542, Note_on_c, 4, 66, 50
5, 227562, Control_c, 4, 64, 0
5, 227562, Control_c, 4, 64, 0
5, 227562, Control_c, 4, 64, 0
5, 227792, Note_on_c, 4, 69, 44
5, 227807, Note_off_c, 4, 66, 64
5, 227827, Control_c, 4, 64, 127
5, 227827, Control_c, 4, 64, 127
5, 227827, Control_c, 4, 64, 127
5, 228005, Control_c, 4, 64, 0
5, 228005, Control_c, 4, 64, 0
5, 228005, Control_c, 4, 64, 0
5, 228025, Note_off_c, 4, 69, 64
5, 228040, Note_on_c, 4, 62, 37
5, 228200, Control_c, 4, 64, 127
5, 228200, Control_c, 4, 64, 127
5, 228200, Control_c, 4, 64, 127
5, 228272, Control_c, 4, 64, 0
5, 228272, Control_c, 4, 64, 0
5, 228272, Control_c, 4, 64, 0
5, 228280, Note_on_c, 4, 66, 33
5, 228305, Note_off_c, 4, 62, 64
5, 228515, Note_off_c, 4, 66, 64
5, 228522, Note_on_c, 4, 64, 45
5, 228755, Note_on_c, 4, 71, 54
5, 228835, Control_c, 4, 64, 127
5, 228835, Control_c, 4, 64, 127
5, 228835, Control_c, 4, 64, 127
5, 228937, Note_off_c, 4, 64, 64
5, 228967, Note_off_c, 4, 71, 64
5, 228972, Note_on_c, 4, 67, 39
5, 229027, Control_c, 4, 64, 0
5, 229032, Control_c, 4, 64, 0
5, 229032, Control_c, 4, 64, 0
5, 229150, Control_c, 4, 64, 127
5, 229150, Control_c, 4, 64, 127
5, 229150, Control_c, 4, 64, 127
5, 229225, Note_on_c, 4, 64, 49
5, 229227, Note_off_c, 4, 67, 64
5, 229275, Note_off_c, 4, 64, 64
5, 229435, Note_on_c, 4, 61, 59
5, 229445, Control_c, 4, 64, 0
5, 229445, Control_c, 4, 64, 0
5, 229447, Control_c, 4, 64, 0
5, 229660, Note_on_c, 4, 64, 57
5, 229660, Control_c, 4, 64, 127
5, 229660, Control_c, 4, 64, 127
5, 229660, Control_c, 4, 64, 127
5, 229690, Note_off_c, 4, 61, 64
5, 229895, Note_off_c, 4, 64, 64
5, 229895, Note_on_c, 4, 57, 38
5, 229932, Control_c, 4, 64, 0
5, 229935, Control_c, 4, 64, 0
5, 229935, Control_c, 4, 64, 0
5, 230105, Control_c, 4, 64, 127
5, 230105, Control_c, 4, 64, 127
5, 230107, Control_c, 4, 64, 127
5, 230147, Note_on_c, 4, 67, 48
5, 230192, Note_off_c, 4, 57, 64
5, 230400, Note_on_c, 4, 66, 50
5, 230407, Note_off_c, 4, 67, 64
5, 230425, Control_c, 4, 64, 0
5, 230425, Control_c, 4, 64, 0
5, 230425, Control_c, 4, 64, 0
5, 230637, Note_on_c, 4, 69, 52
5, 230684, Note_off_c, 4, 66, 60
5, 230745, Control_c, 4, 64, 127
5, 230745, Control_c, 4, 64, 127
5, 230745, Control_c, 4, 64, 127
5, 230835, Note_off_c, 4, 69, 64
5, 230880, Note_on_c, 4, 61, 57
5, 230887, Control_c, 4, 64, 0
5, 230887, Control_c, 4, 64, 0
5, 230887, Control_c, 4, 64, 0
5, 231125, Note_on_c, 4, 69, 49
5, 231155, Control_c, 4, 64, 127
5, 231155, Control_c, 4, 64, 127
5, 231155, Control_c, 4, 64, 127
5, 231160, Note_off_c, 4, 61, 64
5, 231312, Note_off_c, 4, 69, 64
5, 231352, Control_c, 4, 64, 0
5, 231352, Control_c, 4, 64, 0
5, 231352, Control_c, 4, 64, 0
5, 231357, Note_on_c, 4, 62, 42
5, 231612, Note_on_c, 4, 69, 49
5, 231615, Control_c, 4, 64, 127
5, 231615, Control_c, 4, 64, 127
5, 231615, Control_c, 4, 64, 127
5, 231665, Note_off_c, 4, 62, 64
5, 231722, Note_off_c, 4, 69, 64
5, 231847, Note_on_c, 4, 59, 39
5, 231865, Control_c, 4, 64, 0
5, 231865, Control_c, 4, 64, 0
5, 231865, Control_c, 4, 64, 0
5, 232092, Note_on_c, 4, 62, 47
5, 232107, Control_c, 4, 64, 127
5, 232107, Control_c, 4, 64, 127
5, 232107, Control_c, 4, 64, 127
5, 232132, Note_off_c, 4, 59, 64
5, 232250, Note_off_c, 4, 62, 64
5, 232327, Note_on_c, 4, 57, 47
5, 232327, Control_c, 4, 64, 0
5, 232332, Control_c, 4, 64, 0
5, 232332, Control_c, 4, 64, 0
5, 232575, Note_on_c, 4, 62, 44
5, 232812, Note_on_c, 4, 66, 46
5, 232837, Note_off_c, 4, 62, 64
5, 233012, Control_c, 4, 64, 127
5, 233015, Control_c, 4, 64, 127
5, 233015, Control_c, 4, 64, 127
5, 233050, Note_on_c, 4, 62, 58
5, 233085, Note_off_c, 4, 66, 64
5, 233095, Note_off_c, 4, 57, 64
5, 233100, Note_off_c, 4, 62, 64
5, 233282, Control_c, 4, 64, 0
5, 233282, Control_c, 4, 64, 0
5, 233282, Control_c, 4, 64, 0
5, 233295, Note_on_c, 4, 61, 46
5, 233305, Note_on_c, 4, 57, 42
5, 233427, Note_off_c, 4, 57, 64
5, 233435, Note_off_c, 4, 61, 64
5, 234260, Note_on_c, 4, 62, 38
5, 234485, Note_on_c, 4, 65, 53
5, 234717, Note_on_c, 4, 64, 57
5, 234735, Note_off_c, 4, 65, 64
5, 234735, Note_off_c, 4, 62, 64
5, 234972, Note_on_c, 4, 67, 45
5, 234995, Note_off_c, 4, 64, 64
5, 235225, Note_on_c, 4, 65, 50
5, 235240, Note_off_c, 4, 67, 64
5, 235460, Note_on_c, 4, 69, 46
5, 235470, Note_off_c, 4, 65, 64
5, 235675, Note_on_c, 4, 62, 38
5, 235720, Note_off_c, 4, 69, 64
5, 235897, Control_c, 4, 64, 127
5, 235897, Control_c, 4, 64, 127
5, 235900, Control_c, 4, 64, 127
5, 235917, Note_on_c, 4, 65, 39
5, 235932, Note_off_c, 4, 62, 64
5, 236117, Control_c, 4, 64, 0
5, 236117, Control_c, 4, 64, 0
5, 236120, Control_c, 4, 64, 0
5, 236125, Note_off_c, 4, 65, 64
5, 236160, Note_on_c, 4, 64, 51
5, 236380, Note_on_c, 4, 70, 46
5, 236410, Note_off_c, 4, 64, 64
5, 236610, Note_on_c, 4, 67, 41
5, 236685, Note_off_c, 4, 70, 64
5, 236870, Note_on_c, 4, 64, 43
5, 236875, Note_off_c, 4, 67, 64
5, 237125, Note_on_c, 4, 61, 46
5, 237127, Note_off_c, 4, 64, 64
5, 237370, Note_on_c, 4, 64, 52
5, 237405, Note_off_c, 4, 61, 64
5, 237585, Note_off_c, 4, 64, 64
5, 237587, Note_on_c, 4, 57, 47
5, 237850, Note_on_c, 4, 61, 47
5, 237862, Note_off_c, 4, 57, 64
5, 238087, Note_on_c, 4, 62, 44
5, 238092, Note_off_c, 4, 61, 64
5, 238325, Note_on_c, 4, 69, 51
5, 238372, Note_off_c, 4, 62, 64
5, 238415, Control_c, 4, 64, 127
5, 238415, Control_c, 4, 64, 127
5, 238415, Control_c, 4, 64, 127
5, 238527, Note_off_c, 4, 69, 64
5, 238537, Control_c, 4, 64, 0
5, 238537, Control_c, 4, 64, 0
5, 238537, Control_c, 4, 64, 0
5, 238565, Note_on_c, 4, 60, 44
5, 238812, Note_on_c, 4, 69, 51
5, 238855, Note_off_c, 4, 60, 64
5, 238880, Note_off_c, 4, 69, 64
5, 238927, Control_c, 4, 64, 127
5, 238927, Control_c, 4, 64, 127
5, 238927, Control_c, 4, 64, 127
5, 239047, Note_on_c, 4, 58, 50
5, 239047, Control_c, 4, 64, 0
5, 239052, Control_c, 4, 64, 0
5, 239052, Control_c, 4, 64, 0
5, 239292, Note_on_c, 4, 65, 57
5, 239345, Control_c, 4, 64, 127
5, 239345, Control_c, 4, 64, 127
5, 239345, Control_c, 4, 64, 127
5, 239520, Note_off_c, 4, 65, 64
5, 239535, Note_on_c, 4, 64, 73
5, 239555, Note_off_c, 4, 58, 64
5, 239772, Note_off_c, 4, 64, 64
5, 239787, Note_on_c, 4, 62, 79
5, 239877, Note_off_c, 4, 62, 64
5, 240027, Control_c, 4, 64, 0
5, 240027, Control_c, 4, 64, 0
5, 240027, Control_c, 4, 64, 0
5, 240042, Note_on_c, 4, 57, 67
5, 240270, Note_on_c, 4, 62, 69
5, 240515, Note_on_c, 4, 65, 66
5, 240542, Note_off_c, 4, 62, 64
5, 240710, Control_c, 4, 64, 127
5, 240710, Control_c, 4, 64, 127
5, 240710, Control_c, 4, 64, 127
5, 240752, Note_on_c, 4, 62, 58
5, 240767, Note_off_c, 4, 65, 64
5, 240825, Note_off_c, 4, 57, 64
5, 240830, Note_off_c, 4, 62, 64
5, 240985, Note_on_c, 4, 57, 49
5, 240985, Note_on_c, 4, 61, 49
5, 241000, Control_c, 4, 64, 0
5, 241000, Control_c, 4, 64, 0
5, 241000, Control_c, 4, 64, 0
5, 241108, Note_off_c, 4, 57, 64
5, 241125, Note_off_c, 4, 61, 64
5, 241237, Note_on_c, 4, 43, 118
5, 241237, Note_on_c, 4, 55, 118
5, 241387, Note_off_c, 4, 55, 64
5, 241387, Note_off_c, 4, 43, 64
5, 241482, Note_on_c, 4, 54, 120
5, 241482, Note_on_c, 4, 42, 120
5, 241635, Note_off_c, 4, 42, 64
5, 241635, Note_off_c, 4, 54, 64
5, 241720, Note_on_c, 4, 52, 120
5, 241720, Note_on_c, 4, 40, 120
5, 241876, Note_off_c, 4, 40, 64
5, 241876, Note_off_c, 4, 52, 64
5, 241950, Note_on_c, 4, 38, 120
5, 241950, Note_on_c, 4, 50, 120
5, 242115, Note_off_c, 4, 50, 64
5, 242115, Note_off_c, 4, 38, 64
5, 242660, Note_on_c, 4, 74, 112
5, 242747, Note_off_c, 4, 74, 64
5, 242895, Note_on_c, 4, 76, 84
5, 242972, Note_off_c, 4, 76, 64
5, 243135, Note_on_c, 4, 74, 75
5, 243192, Note_off_c, 4, 74, 64
5, 243360, Note_on_c, 4, 73, 88
5, 243440, Note_off_c, 4, 73, 64
5, 243600, Note_on_c, 4, 69, 84
5, 243675, Note_off_c, 4, 69, 64
5, 243830, Note_on_c, 4, 74, 94
5, 243947, Note_off_c, 4, 74, 64
5, 244552, Note_on_c, 4, 62, 89
5, 244635, Note_off_c, 4, 62, 64
5, 244800, Note_on_c, 4, 64, 86
5, 244892, Note_off_c, 4, 64, 64
5, 245035, Note_on_c, 4, 62, 83
5, 245152, Note_off_c, 4, 62, 64
5, 245270, Note_on_c, 4, 61, 87
5, 245372, Note_off_c, 4, 61, 64
5, 245512, Note_on_c, 4, 57, 93
5, 245585, Note_off_c, 4, 57, 64
5, 245760, Note_on_c, 4, 62, 75
5, 245842, Note_off_c, 4, 62, 64
5, 245857, Note_on_c, 4, 69, 81
5, 245927, Note_off_c, 4, 69, 64
5, 245982, Note_on_c, 4, 68, 70
5, 245997, Note_off_c, 4, 68, 64
5, 246070, Note_on_c, 4, 69, 83
5, 246165, Note_off_c, 4, 69, 64
5, 246207, Note_on_c, 4, 71, 73
5, 246320, Note_off_c, 4, 71, 64
5, 246320, Note_on_c, 4, 69, 67
5, 246460, Note_on_c, 4, 68, 75
5, 246467, Note_off_c, 4, 69, 64
5, 246595, Note_on_c, 4, 69, 46
5, 246600, Note_off_c, 4, 68, 64
5, 246722, Note_off_c, 4, 69, 64
5, 246722, Note_on_c, 4, 67, 61
5, 246845, Note_on_c, 4, 69, 46
5, 246865, Note_off_c, 4, 67, 64
5, 246960, Note_on_c, 4, 67, 54
5, 246967, Note_off_c, 4, 69, 64
5, 247085, Note_on_c, 4, 69, 41
5, 247117, Note_off_c, 4, 67, 64
5, 247217, Note_off_c, 4, 69, 64
5, 247217, Note_on_c, 4, 67, 61
5, 247332, Note_on_c, 4, 69, 42
5, 247372, Note_off_c, 4, 67, 64
5, 247462, Note_off_c, 4, 69, 64
5, 247467, Note_on_c, 4, 67, 61
5, 247572, Note_on_c, 4, 69, 59
5, 247592, Note_off_c, 4, 67, 64
5, 247695, Note_on_c, 4, 66, 84
5, 247700, Note_off_c, 4, 69, 64
5, 247740, Note_off_c, 4, 66, 64
5, 247805, Note_on_c, 4, 69, 73
5, 247932, Note_on_c, 4, 68, 59
5, 247945, Note_off_c, 4, 69, 64
5, 248040, Note_on_c, 4, 69, 64
5, 248080, Note_off_c, 4, 68, 64
5, 248160, Note_on_c, 4, 71, 77
5, 248182, Note_off_c, 4, 69, 64
5, 248275, Note_on_c, 4, 69, 62
5, 248310, Note_off_c, 4, 71, 64
5, 248400, Note_on_c, 4, 68, 49
5, 248407, Note_off_c, 4, 69, 64
5, 248512, Note_on_c, 4, 69, 55
5, 248532, Note_off_c, 4, 68, 64
5, 248627, Note_on_c, 4, 67, 69
5, 248642, Note_off_c, 4, 69, 64
5, 248745, Note_on_c, 4, 69, 40
5, 248760, Note_off_c, 4, 67, 64
5, 248867, Note_off_c, 4, 69, 64
5, 248867, Note_on_c, 4, 67, 46
5, 249002, Note_on_c, 4, 69, 55
5, 249010, Note_off_c, 4, 67, 64
5, 249125, Note_on_c, 4, 67, 48
5, 249127, Note_off_c, 4, 69, 64
5, 249237, Note_on_c, 4, 69, 40
5, 249260, Note_off_c, 4, 67, 64
5, 249375, Note_on_c, 4, 67, 44
5, 249380, Note_off_c, 4, 69, 64
5, 249495, Note_off_c, 4, 67, 64
5, 249495, Note_on_c, 4, 69, 35
5, 249612, Note_on_c, 4, 66, 30
5, 249612, Note_on_c, 4, 66, 30
5, 249630, Note_off_c, 4, 69, 64
5, 249737, Note_off_c, 4, 66, 64
5, 249737, Note_off_c, 4, 66, 64
5, 250075, Note_on_c, 4, 66, 42
5, 250145, Control_c, 4, 64, 127
5, 250145, Control_c, 4, 64, 127
5, 250145, Control_c, 4, 64, 127
5, 250200, Note_on_c, 4, 74, 45
5, 250212, Note_off_c, 4, 66, 64
5, 250307, Note_off_c, 4, 74, 64
5, 250312, Note_on_c, 4, 66, 38
5, 250432, Note_off_c, 4, 66, 64
5, 250432, Note_on_c, 4, 74, 39
5, 250527, Note_off_c, 4, 74, 64
5, 250552, Note_on_c, 4, 64, 47
5, 250560, Control_c, 4, 64, 0
5, 250560, Control_c, 4, 64, 0
5, 250560, Control_c, 4, 64, 0
5, 250665, Note_on_c, 4, 74, 44
5, 250680, Note_off_c, 4, 64, 64
5, 250707, Control_c, 4, 64, 127
5, 250707, Control_c, 4, 64, 127
5, 250707, Control_c, 4, 64, 127
5, 250790, Note_off_c, 4, 74, 64
5, 250795, Note_on_c, 4, 64, 34
5, 250895, Note_off_c, 4, 64, 64
5, 250905, Note_on_c, 4, 74, 36
5, 250987, Note_off_c, 4, 74, 64
5, 251025, Control_c, 4, 64, 0
5, 251025, Control_c, 4, 64, 0
5, 251025, Control_c, 4, 64, 0
5, 251027, Note_on_c, 4, 62, 45
5, 251135, Note_on_c, 4, 74, 48
5, 251147, Note_off_c, 4, 62, 64
5, 251147, Control_c, 4, 64, 127
5, 251147, Control_c, 4, 64, 127
5, 251147, Control_c, 4, 64, 127
5, 251240, Note_off_c, 4, 74, 64
5, 251275, Note_on_c, 4, 62, 30
5, 251377, Note_off_c, 4, 62, 64
5, 251385, Note_on_c, 4, 74, 41
5, 251450, Note_off_c, 4, 74, 64
5, 251502, Note_on_c, 4, 67, 55
5, 251512, Control_c, 4, 64, 0
5, 251512, Control_c, 4, 64, 0
5, 251512, Control_c, 4, 64, 0
5, 251632, Note_on_c, 4, 74, 35
5, 251737, Note_on_c, 4, 73, 50
5, 251760, Note_off_c, 4, 74, 64
5, 251832, Note_off_c, 4, 67, 64
5, 251875, Note_on_c, 4, 74, 39
5, 251900, Note_off_c, 4, 73, 64
5, 252000, Note_off_c, 4, 74, 64
5, 252002, Note_on_c, 4, 67, 46
5, 252132, Note_on_c, 4, 74, 39
5, 252245, Note_on_c, 4, 73, 49
5, 252262, Note_off_c, 4, 74, 64
5, 252300, Note_off_c, 4, 67, 64
5, 252372, Note_on_c, 4, 74, 40
5, 252400, Note_off_c, 4, 73, 64
5, 252500, Note_off_c, 4, 74, 64
5, 252512, Note_on_c, 4, 67, 49
5, 252622, Note_on_c, 4, 74, 41
5, 252727, Note_on_c, 4, 73, 51
5, 252752, Note_off_c, 4, 74, 64
5, 252832, Note_off_c, 4, 67, 64
5, 252845, Note_on_c, 4, 74, 37
5, 252877, Note_off_c, 4, 73, 64
5, 252972, Note_off_c, 4, 74, 64
5, 252980, Note_on_c, 4, 67, 46
5, 253085, Note_on_c, 4, 74, 40
5, 253195, Note_on_c, 4, 73, 50
5, 253220, Note_off_c, 4, 74, 64
5, 253325, Note_off_c, 4, 67, 64
5, 253349, Note_off_c, 4, 73, 64
5, 253349, Note_on_c, 4, 74, 42
5, 253349, Note_on_c, 4, 74, 42
5, 253452, Note_on_c, 4, 66, 58
5, 253469, Note_off_c, 4, 74, 80
5, 253469, Note_off_c, 4, 74, 80
5, 253545, Note_on_c, 4, 74, 60
5, 253677, Note_on_c, 4, 73, 53
5, 253692, Note_off_c, 4, 74, 64
5, 253765, Note_off_c, 4, 66, 64
5, 253782, Control_c, 4, 64, 127
5, 253787, Control_c, 4, 64, 127
5, 253787, Control_c, 4, 64, 127
5, 253807, Note_on_c, 4, 74, 64
5, 253835, Note_off_c, 4, 73, 64
5, 253860, Control_c, 4, 64, 0
5, 253860, Control_c, 4, 64, 0
5, 253860, Control_c, 4, 64, 0
5, 253867, Note_off_c, 4, 74, 64
5, 253932, Note_on_c, 4, 66, 80
5, 254035, Note_on_c, 4, 74, 65
5, 254060, Note_off_c, 4, 66, 64
5, 254150, Note_on_c, 4, 66, 80
5, 254165, Note_off_c, 4, 74, 64
5, 254270, Note_on_c, 4, 74, 67
5, 254297, Note_off_c, 4, 66, 64
5, 254350, Note_off_c, 4, 74, 64
5, 254387, Note_on_c, 4, 64, 71
5, 254387, Note_on_c, 4, 64, 71
5, 254492, Note_on_c, 4, 74, 53
5, 254520, Note_off_c, 4, 64, 64
5, 254520, Note_off_c, 4, 64, 64
5, 254625, Note_on_c, 4, 64, 69
5, 254632, Note_off_c, 4, 74, 64
5, 254745, Note_on_c, 4, 74, 49
5, 254767, Note_off_c, 4, 64, 64
5, 254852, Note_off_c, 4, 74, 64
5, 254860, Note_on_c, 4, 62, 69
5, 254980, Note_on_c, 4, 74, 55
5, 255000, Note_off_c, 4, 62, 64
5, 255105, Note_off_c, 4, 74, 64
5, 255105, Note_on_c, 4, 62, 62
5, 255220, Note_on_c, 4, 74, 51
5, 255255, Note_off_c, 4, 74, 64
5, 255272, Note_off_c, 4, 62, 64
5, 255347, Note_on_c, 4, 55, 63
5, 255472, Note_on_c, 4, 64, 66
5, 255582, Note_on_c, 4, 59, 66
5, 255597, Note_off_c, 4, 64, 64
5, 255685, Note_on_c, 4, 64, 68
5, 255692, Note_off_c, 4, 55, 64
5, 255785, Note_off_c, 4, 59, 64
5, 255807, Note_off_c, 4, 64, 64
5, 255830, Note_on_c, 4, 55, 69
5, 255962, Note_on_c, 4, 64, 66
5, 256087, Note_on_c, 4, 59, 83
5, 256110, Note_off_c, 4, 64, 64
5, 256200, Note_on_c, 4, 64, 66
5, 256205, Note_off_c, 4, 55, 64
5, 256220, Note_off_c, 4, 59, 64
5, 256255, Note_off_c, 4, 64, 64
5, 256320, Note_on_c, 4, 57, 68
5, 256432, Note_on_c, 4, 66, 83
5, 256560, Note_on_c, 4, 62, 66
5, 256580, Note_off_c, 4, 66, 64
5, 256667, Note_on_c, 4, 66, 53
5, 256707, Note_off_c, 4, 62, 64
5, 256717, Note_off_c, 4, 57, 64
5, 256750, Note_off_c, 4, 66, 64
5, 256797, Note_on_c, 4, 57, 53
5, 256910, Note_on_c, 4, 67, 70
5, 257040, Note_on_c, 4, 61, 68
5, 257060, Note_off_c, 4, 67, 64
5, 257157, Note_off_c, 4, 61, 64
5, 257157, Note_on_c, 4, 67, 52
5, 257187, Note_off_c, 4, 57, 64
5, 257207, Note_off_c, 4, 67, 64
5, 257280, Note_on_c, 4, 62, 70
5, 257395, Note_on_c, 4, 66, 55
5, 257440, Note_off_c, 4, 62, 64
5, 257530, Note_on_c, 4, 62, 56
5, 257532, Note_off_c, 4, 66, 64
5, 257632, Note_off_c, 4, 62, 64
5, 257640, Note_on_c, 4, 66, 31
5, 257665, Note_off_c, 4, 66, 64
5, 257770, Note_on_c, 4, 54, 56
5, 257880, Note_on_c, 4, 62, 45
5, 257895, Note_off_c, 4, 54, 64
5, 257917, Control_c, 4, 64, 127
5, 257917, Control_c, 4, 64, 127
5, 257917, Control_c, 4, 64, 127
5, 257980, Note_off_c, 4, 62, 64
5, 258000, Note_on_c, 4, 54, 39
5, 258120, Note_on_c, 4, 62, 47
5, 258130, Note_off_c, 4, 54, 64
5, 258157, Note_off_c, 4, 62, 64
5, 258240, Note_on_c, 4, 52, 49
5, 258260, Control_c, 4, 64, 0
5, 258260, Control_c, 4, 64, 0
5, 258260, Control_c, 4, 64, 0
5, 258365, Note_on_c, 4, 62, 39
5, 258375, Note_off_c, 4, 52, 64
5, 258400, Control_c, 4, 64, 127
5, 258400, Control_c, 4, 64, 127
5, 258400, Control_c, 4, 64, 127
5, 258470, Note_off_c, 4, 62, 64
5, 258477, Note_on_c, 4, 52, 34
5, 258592, Note_off_c, 4, 52, 64
5, 258600, Note_on_c, 4, 62, 47
5, 258700, Note_off_c, 4, 62, 64
5, 258707, Note_on_c, 4, 50, 44
5, 258725, Control_c, 4, 64, 0
5, 258725, Control_c, 4, 64, 0
5, 258725, Control_c, 4, 64, 0
5, 258822, Note_on_c, 4, 62, 52
5, 258880, Note_off_c, 4, 50, 64
5, 258895, Control_c, 4, 64, 127
5, 258895, Control_c, 4, 64, 127
5, 258895, Control_c, 4, 64, 127
5, 258955, Note_on_c, 4, 50, 52
5, 258960, Note_off_c, 4, 62, 64
5, 259075, Note_off_c, 4, 50, 64
5, 259075, Note_on_c, 4, 62, 38
5, 259152, Note_off_c, 4, 62, 64
5, 259192, Note_on_c, 4, 55, 55
5, 259207, Control_c, 4, 64, 0
5, 259207, Control_c, 4, 64, 0
5, 259207, Control_c, 4, 64, 0
5, 259307, Note_on_c, 4, 62, 46
5, 259435, Note_on_c, 4, 61, 44
5, 259445, Note_off_c, 4, 62, 64
5, 259507, Note_off_c, 4, 55, 64
5, 259560, Note_on_c, 4, 62, 40
5, 259600, Note_off_c, 4, 61, 64
5, 259692, Note_on_c, 4, 55, 39
5, 259695, Note_off_c, 4, 62, 64
5, 259805, Note_on_c, 4, 62, 39
5, 259917, Note_on_c, 4, 61, 49
5, 259942, Note_off_c, 4, 62, 64
5, 259960, Note_off_c, 4, 55, 64
5, 260040, Note_on_c, 4, 62, 42
5, 260072, Note_off_c, 4, 61, 64
5, 260167, Note_off_c, 4, 62, 64
5, 260167, Note_on_c, 4, 55, 44
5, 260277, Note_on_c, 4, 62, 51
5, 260395, Note_on_c, 4, 61, 47
5, 260412, Note_off_c, 4, 62, 64
5, 260497, Note_off_c, 4, 55, 64
5, 260525, Note_on_c, 4, 62, 52
5, 260555, Note_off_c, 4, 61, 64
5, 260647, Note_off_c, 4, 62, 64
5, 260647, Note_on_c, 4, 55, 42
5, 260767, Note_on_c, 4, 62, 48
5, 260890, Note_on_c, 4, 61, 53
5, 260905, Note_off_c, 4, 62, 64
5, 261012, Note_on_c, 4, 62, 47
5, 261017, Note_off_c, 4, 55, 64
5, 261042, Note_off_c, 4, 61, 64
5, 261052, Note_off_c, 4, 62, 64
5, 261152, Note_on_c, 4, 54, 53
5, 261272, Note_on_c, 4, 62, 42
5, 261362, Control_c, 4, 64, 127
5, 261362, Control_c, 4, 64, 127
5, 261362, Control_c, 4, 64, 127
5, 261370, Note_off_c, 4, 62, 64
5, 261370, Note_on_c, 4, 61, 48
5, 261480, Note_on_c, 4, 62, 59
5, 261487, Note_off_c, 4, 61, 64
5, 261507, Note_off_c, 4, 54, 64
5, 261507, Note_off_c, 4, 62, 64
5, 261507, Control_c, 4, 64, 0
5, 261507, Control_c, 4, 64, 0
5, 261507, Control_c, 4, 64, 0
5, 261607, Note_on_c, 4, 42, 109
5, 261727, Note_on_c, 4, 50, 79
5, 261732, Note_on_c, 4, 52, 79
5, 261780, Note_off_c, 4, 42, 64
5, 261785, Note_off_c, 4, 52, 64
5, 261840, Note_on_c, 4, 42, 106
5, 261867, Note_off_c, 4, 50, 64
5, 261967, Note_on_c, 4, 50, 68
5, 262037, Note_off_c, 4, 42, 64
5, 262080, Note_on_c, 4, 40, 98
5, 262092, Note_off_c, 4, 50, 64
5, 262205, Note_on_c, 4, 50, 64
5, 262265, Note_off_c, 4, 40, 64
5, 262327, Note_on_c, 4, 40, 95
5, 262345, Note_off_c, 4, 50, 64
5, 262440, Note_on_c, 4, 50, 62
5, 262537, Note_off_c, 4, 40, 64
5, 262562, Note_on_c, 4, 38, 93
5, 262567, Note_off_c, 4, 50, 64
5, 262675, Note_on_c, 4, 50, 52
5, 262782, Note_off_c, 4, 38, 64
5, 262802, Note_off_c, 4, 50, 64
5, 262802, Note_on_c, 4, 38, 86
5, 262920, Note_on_c, 4, 50, 51
5, 262927, Control_c, 4, 64, 127
5, 262927, Control_c, 4, 64, 127
5, 262927, Control_c, 4, 64, 127
5, 263000, Control_c, 4, 64, 0
5, 263000, Control_c, 4, 64, 0
5, 263000, Control_c, 4, 64, 0
5, 263005, Note_off_c, 4, 50, 64
5, 263012, Note_off_c, 4, 38, 64
5, 263040, Note_on_c, 4, 43, 98
5, 263160, Note_on_c, 4, 52, 66
5, 263300, Note_on_c, 4, 47, 66
5, 263325, Note_off_c, 4, 52, 64
5, 263377, Note_off_c, 4, 43, 64
5, 263412, Note_on_c, 4, 52, 80
5, 263452, Note_off_c, 4, 47, 64
5, 263537, Note_off_c, 4, 52, 64
5, 263537, Note_on_c, 4, 43, 95
5, 263645, Note_on_c, 4, 52, 70
5, 263780, Note_on_c, 4, 47, 62
5, 263792, Note_off_c, 4, 52, 64
5, 263880, Control_c, 4, 64, 127
5, 263880, Control_c, 4, 64, 127
5, 263880, Control_c, 4, 64, 127
5, 263892, Note_on_c, 4, 52, 68
5, 263920, Note_off_c, 4, 47, 64
5, 263932, Note_off_c, 4, 43, 64
5, 263952, Note_off_c, 4, 52, 64
5, 263975, Control_c, 4, 64, 0
5, 263975, Control_c, 4, 64, 0
5, 263980, Control_c, 4, 64, 0
5, 264015, Note_on_c, 4, 45, 95
5, 264127, Note_on_c, 4, 54, 77
5, 264252, Note_on_c, 4, 50, 68
5, 264275, Note_off_c, 4, 54, 64
5, 264342, Control_c, 4, 64, 127
5, 264342, Control_c, 4, 64, 127
5, 264342, Control_c, 4, 64, 127
5, 264360, Note_on_c, 4, 54, 80
5, 264392, Control_c, 4, 64, 0
5, 264392, Control_c, 4, 64, 0
5, 264392, Control_c, 4, 64, 0
5, 264427, Note_off_c, 4, 45, 64
5, 264492, Note_off_c, 4, 54, 64
5, 264492, Note_on_c, 4, 45, 79
5, 264492, Note_on_c, 4, 45, 89
5, 264495, Note_off_c, 4, 50, 64
5, 264597, Note_on_c, 4, 55, 77
5, 264722, Note_on_c, 4, 49, 71
5, 264740, Note_off_c, 4, 55, 64
5, 264760, Control_c, 4, 64, 127
5, 264760, Control_c, 4, 64, 127
5, 264760, Control_c, 4, 64, 127
5, 264855, Note_on_c, 4, 55, 79
5, 264867, Note_off_c, 4, 49, 64
5, 264947, Note_off_c, 4, 45, 64
5, 264947, Note_off_c, 4, 45, 64
5, 264955, Note_off_c, 4, 55, 64
5, 264955, Control_c, 4, 64, 0
5, 264955, Control_c, 4, 64, 0
5, 264955, Control_c, 4, 64, 0
5, 264960, Note_on_c, 4, 54, 106
5, 264960, Note_on_c, 4, 50, 106
5, 265037, Note_off_c, 4, 50, 64
5, 265083, Note_off_c, 4, 54, 64
5, 265920, Note_on_c, 4, 62, 79
5, 265920, Note_on_c, 4, 66, 79
5, 266400, Note_on_c, 4, 67, 89
5, 266400, Note_on_c, 4, 64, 89
5, 266425, Note_off_c, 4, 66, 64
5, 266428, Note_off_c, 4, 62, 64
5, 266868, Note_off_c, 4, 67, 64
5, 266880, Note_on_c, 4, 69, 100
5, 266880, Note_on_c, 4, 66, 100
5, 266897, Note_off_c, 4, 64, 64
5, 267145, Note_off_c, 4, 66, 64
5, 267157, Note_off_c, 4, 69, 64
5, 268785, Note_on_c, 4, 54, 49
5, 269032, Note_on_c, 4, 62, 40
5, 269280, Note_on_c, 4, 50, 62
5, 269285, Note_off_c, 4, 62, 64
5, 269292, Note_off_c, 4, 54, 64
5, 269512, Note_on_c, 4, 62, 45
5, 269525, Note_off_c, 4, 50, 64
5, 269570, Control_c, 4, 64, 127
5, 269570, Control_c, 4, 64, 127
5, 269575, Control_c, 4, 64, 127
5, 269720, Control_c, 4, 64, 0
5, 269720, Control_c, 4, 64, 0
5, 269720, Control_c, 4, 64, 0
5, 269765, Note_off_c, 4, 62, 64
5, 269765, Note_on_c, 4, 52, 42
5, 269992, Note_on_c, 4, 62, 41
5, 270087, Control_c, 4, 64, 127
5, 270087, Control_c, 4, 64, 127
5, 270087, Control_c, 4, 64, 127
5, 270227, Control_c, 4, 64, 0
5, 270227, Control_c, 4, 64, 0
5, 270227, Control_c, 4, 64, 0
5, 270240, Note_on_c, 4, 57, 37
5, 270245, Note_off_c, 4, 52, 64
5, 270252, Note_off_c, 4, 62, 64
5, 270475, Note_on_c, 4, 61, 47
5, 270527, Note_off_c, 4, 57, 64
5, 270637, Note_off_c, 4, 61, 64
5, 270735, Note_on_c, 4, 62, 69
5, 270742, Note_on_c, 4, 50, 60
5, 270867, Note_off_c, 4, 62, 64
5, 270880, Note_off_c, 4, 50, 64
5, 271712, Note_on_c, 4, 66, 80
5, 271712, Note_on_c, 4, 62, 80
5, 271752, Note_off_c, 4, 66, 64
5, 271757, Note_off_c, 4, 62, 64
5, 271955, Note_on_c, 4, 66, 82
5, 271955, Note_on_c, 4, 62, 82
5, 271997, Note_off_c, 4, 62, 64
5, 272005, Note_off_c, 4, 66, 64
5, 272162, Note_on_c, 4, 64, 88
5, 272162, Note_on_c, 4, 67, 88
5, 272205, Note_off_c, 4, 64, 64
5, 272227, Note_off_c, 4, 67, 64
5, 272397, Note_on_c, 4, 67, 88
5, 272400, Note_on_c, 4, 64, 88
5, 272440, Note_off_c, 4, 64, 64
5, 272462, Note_off_c, 4, 67, 64
5, 272632, Note_on_c, 4, 66, 105
5, 272640, Note_on_c, 4, 69, 105
5, 272795, Note_off_c, 4, 66, 64
5, 272807, Note_off_c, 4, 69, 64
5, 274095, Control_c, 4, 64, 127
5, 274095, Control_c, 4, 64, 127
5, 274095, Control_c, 4, 64, 127
5, 274260, Control_c, 4, 64, 0
5, 274260, Control_c, 4, 64, 0
5, 274260, Control_c, 4, 64, 0
5, 274387, Control_c, 4, 64, 127
5, 274387, Control_c, 4, 64, 127
5, 274387, Control_c, 4, 64, 127
5, 274412, Control_c, 4, 64, 0
5, 274412, Control_c, 4, 64, 0
5, 274412, Control_c, 4, 64, 0
5, 274575, Note_on_c, 4, 54, 45
5, 274632, Control_c, 4, 64, 127
5, 274632, Control_c, 4, 64, 127
5, 274632, Control_c, 4, 64, 127
5, 274810, Note_on_c, 4, 62, 34
5, 274867, Note_off_c, 4, 54, 64
5, 275040, Note_on_c, 4, 50, 50
5, 275057, Note_off_c, 4, 62, 64
5, 275072, Control_c, 4, 64, 0
5, 275072, Control_c, 4, 64, 0
5, 275072, Control_c, 4, 64, 0
5, 275287, Note_on_c, 4, 62, 46
5, 275292, Control_c, 4, 64, 127
5, 275292, Control_c, 4, 64, 127
5, 275292, Control_c, 4, 64, 127
5, 275312, Note_off_c, 4, 50, 64
5, 275507, Note_off_c, 4, 62, 64
5, 275537, Note_on_c, 4, 52, 57
5, 275562, Control_c, 4, 64, 0
5, 275562, Control_c, 4, 64, 0
5, 275562, Control_c, 4, 64, 0
5, 275757, Control_c, 4, 64, 127
5, 275757, Control_c, 4, 64, 127
5, 275757, Control_c, 4, 64, 127
5, 275765, Note_on_c, 4, 62, 51
5, 276000, Note_off_c, 4, 62, 64
5, 276000, Note_on_c, 4, 57, 57
5, 276005, Note_off_c, 4, 52, 64
5, 276025, Control_c, 4, 64, 0
5, 276025, Control_c, 4, 64, 0
5, 276027, Control_c, 4, 64, 0
5, 276107, Note_off_c, 4, 57, 64
5, 276172, Control_c, 4, 64, 127
5, 276172, Control_c, 4, 64, 127
5, 276172, Control_c, 4, 64, 127
5, 276252, Note_on_c, 4, 61, 55
5, 276380, Note_off_c, 4, 61, 64
5, 276480, Note_on_c, 4, 54, 63
5, 276487, Control_c, 4, 64, 0
5, 276487, Control_c, 4, 64, 0
5, 276492, Control_c, 4, 64, 0
5, 276590, Note_on_c, 4, 62, 52
5, 276707, Note_off_c, 4, 54, 64
5, 276707, Control_c, 4, 64, 127
5, 276707, Control_c, 4, 64, 127
5, 276712, Control_c, 4, 64, 127
5, 276742, Note_off_c, 4, 62, 64
5, 276742, Note_on_c, 4, 57, 29
5, 276842, Note_on_c, 4, 62, 33
5, 276867, Note_off_c, 4, 57, 64
5, 276960, Note_on_c, 4, 54, 47
5, 276977, Control_c, 4, 64, 0
5, 276980, Note_off_c, 4, 62, 64
5, 276980, Control_c, 4, 64, 0
5, 276980, Control_c, 4, 64, 0
5, 277067, Note_on_c, 4, 62, 42
5, 277150, Control_c, 4, 64, 127
5, 277150, Control_c, 4, 64, 127
5, 277150, Control_c, 4, 64, 127
5, 277195, Note_on_c, 4, 57, 39
5, 277220, Note_off_c, 4, 62, 64
5, 277307, Note_on_c, 4, 62, 49
5, 277332, Note_off_c, 4, 54, 64
5, 277335, Note_off_c, 4, 57, 64
5, 277432, Note_off_c, 4, 62, 64
5, 277437, Note_on_c, 4, 55, 59
5, 277442, Control_c, 4, 64, 0
5, 277442, Control_c, 4, 64, 0
5, 277442, Control_c, 4, 64, 0
5, 277537, Note_on_c, 4, 62, 46
5, 277565, Control_c, 4, 64, 127
5, 277565, Control_c, 4, 64, 127
5, 277565, Control_c, 4, 64, 127
5, 277665, Note_on_c, 4, 59, 42
5, 277687, Note_off_c, 4, 62, 64
5, 277787, Note_on_c, 4, 62, 50
5, 277810, Note_off_c, 4, 55, 64
5, 277810, Note_off_c, 4, 59, 64
5, 277912, Note_on_c, 4, 55, 57
5, 277925, Note_off_c, 4, 62, 64
5, 277932, Control_c, 4, 64, 0
5, 277932, Control_c, 4, 64, 0
5, 277932, Control_c, 4, 64, 0
5, 278022, Note_on_c, 4, 62, 53
5, 278052, Control_c, 4, 64, 127
5, 278052, Control_c, 4, 64, 127
5, 278055, Control_c, 4, 64, 127
5, 278145, Note_on_c, 4, 59, 48
5, 278150, Note_off_c, 4, 62, 64
5, 278270, Note_on_c, 4, 62, 57
5, 278305, Note_off_c, 4, 59, 64
5, 278380, Note_off_c, 4, 55, 64
5, 278382, Note_off_c, 4, 62, 64
5, 278425, Note_on_c, 4, 57, 62
5, 278425, Note_on_c, 4, 57, 57
5, 278445, Control_c, 4, 64, 0
5, 278445, Control_c, 4, 64, 0
5, 278445, Control_c, 4, 64, 0
5, 278542, Note_on_c, 4, 66, 49
5, 278565, Control_c, 4, 64, 127
5, 278567, Control_c, 4, 64, 127
5, 278567, Control_c, 4, 64, 127
5, 278660, Note_on_c, 4, 62, 48
5, 278667, Note_off_c, 4, 66, 64
5, 278725, Note_off_c, 4, 57, 64
5, 278725, Note_off_c, 4, 57, 64
5, 278765, Note_on_c, 4, 66, 60
5, 278807, Note_off_c, 4, 62, 64
5, 278885, Control_c, 4, 64, 0
5, 278885, Control_c, 4, 64, 0
5, 278885, Control_c, 4, 64, 0
5, 278900, Note_off_c, 4, 66, 64
5, 278900, Note_on_c, 4, 57, 57
5, 278992, Note_on_c, 4, 66, 55
5, 279105, Control_c, 4, 64, 127
5, 279105, Control_c, 4, 64, 127
5, 279105, Control_c, 4, 64, 127
5, 279122, Note_on_c, 4, 62, 49
5, 279135, Note_off_c, 4, 66, 64
5, 279227, Note_on_c, 4, 66, 57
5, 279240, Note_off_c, 4, 57, 64
5, 279255, Note_off_c, 4, 62, 64
5, 279335, Note_off_c, 4, 66, 64
5, 279372, Control_c, 4, 64, 0
5, 279372, Control_c, 4, 64, 0
5, 279372, Control_c, 4, 64, 0
5, 279392, Note_on_c, 4, 57, 48
5, 279507, Note_on_c, 4, 67, 48
5, 279615, Control_c, 4, 64, 127
5, 279615, Control_c, 4, 64, 127
5, 279620, Control_c, 4, 64, 127
5, 279620, Note_on_c, 4, 64, 40
5, 279637, Note_off_c, 4, 67, 64
5, 279745, Note_on_c, 4, 67, 45
5, 279755, Note_off_c, 4, 64, 64
5, 279772, Note_off_c, 4, 57, 64
5, 279860, Control_c, 4, 64, 0
5, 279860, Control_c, 4, 64, 0
5, 279860, Control_c, 4, 64, 0
5, 279865, Note_off_c, 4, 67, 64
5, 279875, Note_on_c, 4, 57, 57
5, 279980, Note_on_c, 4, 67, 57
5, 280080, Control_c, 4, 64, 127
5, 280080, Control_c, 4, 64, 127
5, 280080, Control_c, 4, 64, 127
5, 280105, Note_on_c, 4, 64, 51
5, 280117, Note_off_c, 4, 67, 64
5, 280140, Note_off_c, 4, 57, 64
5, 280220, Note_on_c, 4, 67, 60
5, 280225, Note_off_c, 4, 64, 64
5, 280255, Note_off_c, 4, 67, 64
5, 280342, Note_on_c, 4, 54, 34
5, 280350, Control_c, 4, 64, 0
5, 280350, Control_c, 4, 64, 0
5, 280350, Control_c, 4, 64, 0
5, 280452, Note_on_c, 4, 62, 56
5, 280492, Control_c, 4, 64, 127
5, 280492, Control_c, 4, 64, 127
5, 280492, Control_c, 4, 64, 127
5, 280567, Note_off_c, 4, 62, 64
5, 280580, Note_on_c, 4, 57, 42
5, 280622, Note_off_c, 4, 54, 64
5, 280672, Note_on_c, 4, 62, 52
5, 280700, Note_off_c, 4, 57, 64
5, 280760, Note_off_c, 4, 62, 64
5, 280780, Note_on_c, 4, 54, 83
5, 280787, Control_c, 4, 64, 0
5, 280792, Control_c, 4, 64, 0
5, 280792, Control_c, 4, 64, 0
5, 280895, Note_on_c, 4, 62, 55
5, 281020, Note_on_c, 4, 57, 59
5, 281027, Note_off_c, 4, 62, 64
5, 281035, Control_c, 4, 64, 127
5, 281035, Control_c, 4, 64, 127
5, 281035, Control_c, 4, 64, 127
5, 281132, Note_off_c, 4, 54, 64
5, 281132, Note_on_c, 4, 62, 59
5, 281160, Note_off_c, 4, 57, 64
5, 281227, Control_c, 4, 64, 0
5, 281232, Note_off_c, 4, 62, 64
5, 281232, Control_c, 4, 64, 0
5, 281232, Control_c, 4, 64, 0
5, 281265, Note_on_c, 4, 55, 51
5, 281380, Note_on_c, 4, 62, 45
5, 281505, Note_off_c, 4, 55, 64
5, 281507, Note_off_c, 4, 62, 64
5, 281507, Note_on_c, 4, 59, 43
5, 281620, Note_on_c, 4, 62, 53
5, 281682, Note_off_c, 4, 59, 64
5, 281725, Note_off_c, 4, 62, 64
5, 281740, Note_on_c, 4, 55, 54
5, 281865, Note_on_c, 4, 62, 51
5, 281992, Note_on_c, 4, 59, 53
5, 281997, Note_off_c, 4, 62, 64
5, 282002, Note_off_c, 4, 55, 64
5, 282097, Note_on_c, 4, 62, 57
5, 282120, Note_off_c, 4, 59, 64
5, 282152, Note_off_c, 4, 62, 64
5, 282220, Note_on_c, 4, 57, 53
5, 282320, Note_on_c, 4, 66, 57
5, 282455, Note_off_c, 4, 66, 64
5, 282470, Note_on_c, 4, 62, 50
5, 282527, Note_off_c, 4, 57, 64
5, 282565, Note_on_c, 4, 66, 51
5, 282615, Note_off_c, 4, 62, 64
5, 282680, Note_off_c, 4, 66, 64
5, 282705, Note_on_c, 4, 57, 54
5, 282825, Note_on_c, 4, 66, 50
5, 282960, Note_on_c, 4, 62, 54
5, 282962, Note_off_c, 4, 66, 64
5, 283027, Note_off_c, 4, 57, 64
5, 283060, Note_on_c, 4, 66, 46
5, 283087, Note_off_c, 4, 62, 64
5, 283172, Note_off_c, 4, 66, 64
5, 283197, Note_on_c, 4, 57, 54
5, 283320, Note_on_c, 4, 67, 46
5, 283442, Note_off_c, 4, 67, 64
5, 283442, Note_on_c, 4, 64, 46
5, 283552, Note_on_c, 4, 67, 55
5, 283560, Note_off_c, 4, 57, 64
5, 283582, Note_off_c, 4, 64, 64
5, 283662, Note_off_c, 4, 67, 64
5, 283672, Note_on_c, 4, 57, 61
5, 283815, Note_on_c, 4, 67, 59
5, 283922, Note_on_c, 4, 64, 61
5, 283937, Note_off_c, 4, 67, 64
5, 284042, Note_on_c, 4, 67, 40
5, 284052, Note_off_c, 4, 64, 64
5, 284075, Note_off_c, 4, 57, 64
5, 284140, Note_off_c, 4, 67, 64
5, 284160, Note_on_c, 4, 66, 73
5, 284167, Note_on_c, 4, 62, 69
5, 284325, Note_off_c, 4, 62, 64
5, 284345, Note_off_c, 4, 66, 64
5, 284872, Note_on_c, 4, 64, 64
5, 284875, Note_on_c, 4, 61, 64
5, 284875, Note_on_c, 4, 57, 64
5, 284980, Note_off_c, 4, 64, 64
5, 284992, Note_off_c, 4, 61, 64
5, 284992, Note_off_c, 4, 57, 64
5, 285117, Note_on_c, 4, 62, 86
5, 285117, Note_on_c, 4, 66, 86
5, 285292, Note_off_c, 4, 66, 64
5, 285292, Note_off_c, 4, 62, 64
5, 285832, Note_on_c, 4, 61, 66
5, 285835, Note_on_c, 4, 64, 66
5, 285835, Note_on_c, 4, 57, 66
5, 285942, Note_off_c, 4, 64, 64
5, 285950, Note_off_c, 4, 57, 64
5, 285955, Note_off_c, 4, 61, 64
5, 286085, Note_on_c, 4, 66, 86
5, 286085, Note_on_c, 4, 62, 72
5, 286227, Note_off_c, 4, 62, 64
5, 286227, Note_off_c, 4, 66, 64
5, 286565, Note_on_c, 4, 46, 109
5, 286565, Note_on_c, 4, 58, 109
5, 286735, Note_off_c, 4, 46, 64
5, 286752, Note_off_c, 4, 58, 64
5, 287091, Note_on_c, 4, 47, 124
5, 287091, Note_on_c, 4, 59, 124
5, 287406, Note_off_c, 4, 59, 64
5, 287413, Note_off_c, 4, 47, 64
5, 287988, Note_on_c, 4, 55, 68
5, 287988, Note_on_c, 4, 43, 72
5, 288415, Control_c, 4, 64, 127
5, 288415, Control_c, 4, 64, 127
5, 288415, Control_c, 4, 64, 127
5, 288836, Note_off_c, 4, 43, 64
5, 288856, Note_off_c, 4, 55, 64
5, 288967, Note_on_c, 4, 57, 55
5, 288975, Note_on_c, 4, 45, 45
5, 289022, Control_c, 4, 64, 0
5, 289027, Control_c, 4, 64, 0
5, 289027, Control_c, 4, 64, 0
5, 289390, Control_c, 4, 64, 127
5, 289390, Control_c, 4, 64, 127
5, 289390, Control_c, 4, 64, 127
5, 289645, Note_off_c, 4, 57, 64
5, 289680, Note_off_c, 4, 45, 64
5, 289785, Control_c, 4, 64, 0
5, 289785, Control_c, 4, 64, 0
5, 289785, Control_c, 4, 64, 0
5, 289965, Note_on_c, 4, 50, 84
5, 290477, Note_off_c, 4, 50, 64
5, 290518, Note_on_c, 4, 45, 55
5, 291044, Note_off_c, 4, 45, 64
5, 291138, Note_on_c, 4, 38, 23
5, 291700, Note_off_c, 4, 38, 64
5, 291700, End_track
6, 0, Start_track
6, 0, Title_t, "new"
6, 0, MIDI_port, 0
6, 0, Channel_prefix, 5
6, 0, Control_c, 5, 7, 100
6, 0, Control_c, 5, 10, 64
6, 0, Program_c, 5, 0
6, 265017, Note_on_c, 5, 38, 81
6, 265017, Note_on_c, 5, 50, 92
6, 265017, Note_on_c, 5, 45, 99
6, 265690, Note_off_c, 5, 45, 64
6, 265692, Note_off_c, 5, 50, 64
6, 265692, Note_off_c, 5, 38, 64
6, 265692, End_track
0, 0, End_of_file
