0, 0, Header, 1, 3, 480
1, 0, Start_track
1, 0, Title_t, "Piano Sonata in D,K311,2.Andante con espressione"
1, 0, Copyright_t, "copyright performance by Larry N. Ellis"
1, 0, SMPTE_offset, 0, 0, 0, 0, 0
1, 0, Tempo, 857142
1, 0, Time_signature, 2, 2, 6, 8
1, 0, Key_signature, 1, "major"
1, 2863, Tempo, 2000000
1, 2873, Tempo, 909090
1, 3835, Tempo, 857142
1, 4778, Tempo, 2000000
1, 4795, Tempo, 895522
1, 5747, Tempo, 1111111
1, 5755, Tempo, 857142
1, 8635, Tempo, 1071428
1, 8807, Tempo, 759493
1, 9115, Tempo, 1395348
1, 9130, Tempo, 857142
1, 12463, Tempo, 2000000
1, 12475, Tempo, 895522
1, 13435, Tempo, 857142
1, 18214, Tempo, 1034482
1, 18235, Tempo, 857142
1, 20147, Tempo, 2857142
1, 20155, Tempo, 895522
1, 21600, Tempo, 937500
1, 22065, Tempo, 1333333
1, 22075, Tempo, 882352
1, 22555, Tempo, 869565
1, 22795, Tempo, 857142
1, 23976, Tempo, 1200000
1, 23995, Tempo, 857142
1, 24938, Tempo, 1200000
1, 24955, Tempo, 857142
1, 25890, Tempo, 1333333
1, 25915, Tempo, 857142
1, 26385, Tempo, 923076
1, 27835, Tempo, 857142
1, 28795, Tempo, 909090
1, 29395, Tempo, 857142
1, 29745, Tempo, 1363636
1, 29755, Tempo, 857142
1, 31657, Tempo, 1500000
1, 31675, Tempo, 857142
1, 33585, Tempo, 1333333
1, 33594, Tempo, 895522
1, 34545, Tempo, 1176470
1, 34555, Tempo, 895522
1, 36475, Tempo, 1071428
1, 36489, Tempo, 857142
1, 37416, Tempo, 1200000
1, 37435, Tempo, 857142
1, 39341, Tempo, 1428571
1, 39355, Tempo, 857142
1, 46795, Tempo, 952380
1, 47035, Tempo, 857142
1, 47941, Tempo, 2500000
1, 47995, Tempo, 895522
1, 48852, Tempo, 1224489
1, 48955, Tempo, 857142
1, 49849, Tempo, 2500000
1, 49915, Tempo, 937500
1, 50811, Tempo, 1224489
1, 51115, Tempo, 759493
1, 52315, Tempo, 952380
1, 52795, Tempo, 857142
1, 66976, Tempo, 1333333
1, 66991, Tempo, 857142
1, 68123, Tempo, 1132075
1, 68154, Tempo, 857142
1, 71982, Tempo, 1052631
1, 71995, Tempo, 857142
1, 75812, Tempo, 1500000
1, 75835, Tempo, 882352
1, 79675, Tempo, 857142
1, 83503, Tempo, 1500000
1, 83515, Tempo, 857142
1, 85180, Tempo, 1071428
1, 85195, Tempo, 857142
1, 98852, Tempo, 1200000
1, 98875, Tempo, 895522
1, 100780, Tempo, 1200000
1, 100795, Tempo, 857142
1, 101742, Tempo, 1276595
1, 101755, Tempo, 857142
1, 102697, Tempo, 1200000
1, 102715, Tempo, 857142
1, 106535, Tempo, 1200000
1, 106555, Tempo, 857142
1, 107499, Tempo, 1200000
1, 107515, Tempo, 857142
1, 113254, Tempo, 1200000
1, 113275, Tempo, 857142
1, 116143, Tempo, 1200000
1, 116155, Tempo, 857142
1, 117091, Tempo, 1500000
1, 117115, Tempo, 882352
1, 118050, Tempo, 1818181
1, 118075, Tempo, 882352
1, 119015, Tempo, 1621621
1, 119035, Tempo, 895522
1, 119980, Tempo, 1304347
1, 119995, Tempo, 697674
1, 121435, Tempo, 1250000
1, 121915, Tempo, 857142
1, 122875, Tempo, 857142
1, 129572, Tempo, 1500000
1, 129595, Tempo, 857142
1, 137252, Tempo, 1333333
1, 137275, Tempo, 857142
1, 141096, Tempo, 1500000
1, 141115, Tempo, 857142
1, 144930, Tempo, 2000000
1, 144955, Tempo, 909090
1, 145886, Tempo, 1200000
1, 145915, Tempo, 909090
1, 148795, Tempo, 857142
1, 152610, Tempo, 1132075
1, 152635, Tempo, 857142
1, 154282, Tempo, 1500000
1, 154315, Tempo, 857142
1, 162205, Tempo, 2068965
1, 162235, Tempo, 1034482
1, 162360, Tempo, 857142
1, 163195, Tempo, 1000000
1, 163238, Tempo, 923076
1, 163675, Tempo, 952380
1, 163920, Tempo, 983606
1, 164155, Tempo, 1111111
1, 164160, Tempo, 857142
1, 167976, Tempo, 1090909
1, 167995, Tempo, 882352
1, 169915, Tempo, 857142
1, 170857, Tempo, 1500000
1, 170875, Tempo, 857142
1, 174692, Tempo, 1200000
1, 174715, Tempo, 857142
1, 175663, Tempo, 1200000
1, 175675, Tempo, 857142
1, 185257, Tempo, 1200000
1, 185275, Tempo, 857142
1, 186216, Tempo, 1200000
1, 186235, Tempo, 857142
1, 187182, Tempo, 1250000
1, 187195, Tempo, 857142
1, 188135, Tempo, 1428571
1, 188155, Tempo, 857142
1, 189108, Tempo, 1764705
1, 189115, Tempo, 882352
1, 190061, Tempo, 1463414
1, 190075, Tempo, 882352
1, 191015, Tempo, 1276595
1, 191035, Tempo, 882352
1, 191976, Tempo, 1200000
1, 191995, Tempo, 895522
1, 192475, Tempo, 923076
1, 192931, Tempo, 1363636
1, 192955, Tempo, 857142
1, 193896, Tempo, 1578947
1, 193915, Tempo, 857142
1, 195814, Tempo, 1538461
1, 195835, Tempo, 857142
1, 196777, Tempo, 1200000
1, 196795, Tempo, 882352
1, 197755, Tempo, 983606
1, 198689, Tempo, 3333333
1, 198715, Tempo, 1132075
1, 198715, End_track
2, 0, Start_track
2, 0, Title_t, "New MIDI Track"
2, 0, MIDI_port, 0
2, 0, Channel_prefix, 0
2, 0, Control_c, 0, 7, 127
2, 0, Control_c, 0, 10, 64
2, 0, Program_c, 0, 0
2, 960, Note_on_c, 0, 71, 71
2, 1320, Note_on_c, 0, 74, 65
2, 1328, Note_off_c, 0, 71, 64
2, 1440, Note_on_c, 0, 72, 63
2, 1465, Note_off_c, 0, 74, 64
2, 1800, Note_on_c, 0, 71, 59
2, 1834, Note_off_c, 0, 72, 64
2, 1920, Note_on_c, 0, 69, 72
2, 1938, Note_off_c, 0, 71, 64
2, 2400, Note_on_c, 0, 71, 50
2, 2406, Note_off_c, 0, 69, 64
2, 2812, Note_off_c, 0, 71, 64
2, 2880, Note_on_c, 0, 72, 74
2, 3360, Note_on_c, 0, 74, 64
2, 3379, Note_off_c, 0, 72, 64
2, 3840, Note_on_c, 0, 72, 73
2, 3858, Note_off_c, 0, 74, 64
2, 4080, Note_on_c, 0, 71, 62
2, 4087, Note_off_c, 0, 72, 64
2, 4320, Note_on_c, 0, 69, 54
2, 4356, Note_off_c, 0, 71, 64
2, 4560, Note_on_c, 0, 67, 40
2, 4584, Note_off_c, 0, 69, 64
2, 4696, Note_off_c, 0, 67, 64
2, 4800, Note_on_c, 0, 72, 94
2, 4800, Note_on_c, 0, 67, 81
2, 4943, Note_off_c, 0, 67, 64
2, 4943, Note_off_c, 0, 72, 64
2, 5280, Note_on_c, 0, 71, 94
2, 5280, Note_on_c, 0, 67, 80
2, 5409, Note_off_c, 0, 67, 64
2, 5409, Note_off_c, 0, 71, 64
2, 5760, Note_on_c, 0, 76, 115
2, 5760, Note_on_c, 0, 67, 103
2, 6201, Note_off_c, 0, 67, 64
2, 6201, Note_off_c, 0, 76, 64
2, 6480, Note_on_c, 0, 74, 59
2, 6480, Note_on_c, 0, 67, 50
2, 6570, Note_off_c, 0, 67, 64
2, 6570, Note_off_c, 0, 74, 64
2, 6720, Note_on_c, 0, 72, 64
2, 6960, Note_on_c, 0, 69, 47
2, 7012, Note_off_c, 0, 72, 64
2, 7037, Note_off_c, 0, 69, 64
2, 7200, Note_on_c, 0, 71, 66
2, 7440, Note_on_c, 0, 67, 40
2, 7466, Note_off_c, 0, 71, 64
2, 7509, Note_off_c, 0, 67, 64
2, 7680, Note_on_c, 0, 71, 74
2, 7680, Note_on_c, 0, 67, 74
2, 7946, Control_c, 0, 64, 127
2, 7947, Control_c, 0, 64, 127
2, 7947, Control_c, 0, 64, 127
2, 8160, Note_on_c, 0, 66, 29
2, 8160, Note_on_c, 0, 69, 25
2, 8166, Note_off_c, 0, 67, 64
2, 8166, Note_off_c, 0, 71, 64
2, 8237, Control_c, 0, 64, 0
2, 8237, Control_c, 0, 64, 0
2, 8238, Control_c, 0, 64, 0
2, 8519, Note_off_c, 0, 66, 64
2, 8519, Note_off_c, 0, 69, 64
2, 8640, Note_on_c, 0, 71, 71
2, 9000, Note_on_c, 0, 74, 65
2, 9008, Note_off_c, 0, 71, 64
2, 9120, Note_on_c, 0, 72, 63
2, 9145, Note_off_c, 0, 74, 64
2, 9480, Note_on_c, 0, 71, 59
2, 9514, Note_off_c, 0, 72, 64
2, 9600, Note_on_c, 0, 69, 72
2, 9618, Note_off_c, 0, 71, 64
2, 10080, Note_on_c, 0, 71, 50
2, 10086, Note_off_c, 0, 69, 64
2, 10541, Note_off_c, 0, 71, 64
2, 10560, Note_on_c, 0, 72, 66
2, 10786, Control_c, 0, 64, 127
2, 10786, Control_c, 0, 64, 127
2, 10787, Control_c, 0, 64, 127
2, 10871, Control_c, 0, 64, 0
2, 10872, Control_c, 0, 64, 0
2, 10872, Control_c, 0, 64, 0
2, 11040, Note_on_c, 0, 76, 73
2, 11045, Note_off_c, 0, 72, 64
2, 11280, Note_on_c, 0, 74, 67
2, 11309, Note_off_c, 0, 76, 64
2, 11520, Note_on_c, 0, 72, 70
2, 11528, Note_off_c, 0, 74, 64
2, 11760, Note_on_c, 0, 71, 53
2, 11796, Note_off_c, 0, 72, 64
2, 12000, Note_on_c, 0, 69, 48
2, 12018, Note_off_c, 0, 71, 64
2, 12240, Note_on_c, 0, 67, 32
2, 12253, Note_off_c, 0, 69, 64
2, 12410, Note_off_c, 0, 67, 64
2, 12480, Note_on_c, 0, 67, 85
2, 12480, Note_on_c, 0, 72, 95
2, 12606, Note_off_c, 0, 72, 64
2, 12606, Note_off_c, 0, 67, 64
2, 12960, Note_on_c, 0, 71, 90
2, 12960, Note_on_c, 0, 67, 93
2, 13095, Note_off_c, 0, 67, 64
2, 13095, Note_off_c, 0, 71, 64
2, 13440, Note_on_c, 0, 76, 96
2, 13440, Note_on_c, 0, 67, 81
2, 13661, Note_off_c, 0, 76, 64
2, 13680, Note_on_c, 0, 78, 93
2, 13710, Note_off_c, 0, 67, 64
2, 13920, Note_on_c, 0, 79, 88
2, 13951, Note_off_c, 0, 78, 64
2, 14138, Note_off_c, 0, 79, 64
2, 14160, Note_on_c, 0, 72, 68
2, 14396, Note_off_c, 0, 72, 64
2, 14400, Note_on_c, 0, 71, 61
2, 14703, Control_c, 0, 64, 127
2, 14704, Control_c, 0, 64, 127
2, 14704, Control_c, 0, 64, 127
2, 14825, Note_off_c, 0, 71, 64
2, 14880, Note_on_c, 0, 71, 62
2, 14940, Note_off_c, 0, 71, 64
2, 14944, Note_on_c, 0, 69, 54
2, 15000, Note_on_c, 0, 71, 51
2, 15008, Note_off_c, 0, 69, 64
2, 15057, Note_off_c, 0, 71, 64
2, 15063, Note_on_c, 0, 69, 47
2, 15120, Note_on_c, 0, 71, 43
2, 15128, Note_off_c, 0, 69, 64
2, 15167, Note_off_c, 0, 71, 64
2, 15171, Note_on_c, 0, 69, 43
2, 15240, Note_on_c, 0, 67, 43
2, 15244, Note_off_c, 0, 69, 64
2, 15285, Control_c, 0, 64, 0
2, 15285, Control_c, 0, 64, 0
2, 15285, Control_c, 0, 64, 0
2, 15300, Note_on_c, 0, 69, 47
2, 15319, Control_c, 0, 64, 127
2, 15319, Control_c, 0, 64, 127
2, 15319, Control_c, 0, 64, 127
2, 15321, Note_off_c, 0, 67, 64
2, 15353, Control_c, 0, 64, 0
2, 15353, Control_c, 0, 64, 0
2, 15354, Control_c, 0, 64, 0
2, 15360, Note_on_c, 0, 67, 51
2, 15381, Note_off_c, 0, 69, 64
2, 16206, Note_off_c, 0, 67, 64
2, 16320, Note_on_c, 0, 69, 70
2, 17280, Note_on_c, 0, 67, 59
2, 17305, Note_off_c, 0, 69, 64
2, 17520, Note_on_c, 0, 66, 74
2, 17530, Note_off_c, 0, 67, 64
2, 17760, Note_on_c, 0, 64, 62
2, 17801, Note_off_c, 0, 66, 64
2, 18000, Note_on_c, 0, 62, 51
2, 18016, Note_off_c, 0, 64, 64
2, 18240, Note_on_c, 0, 71, 77
2, 18244, Note_off_c, 0, 62, 64
2, 19200, Note_on_c, 0, 67, 58
2, 19234, Note_off_c, 0, 71, 64
2, 19407, Note_off_c, 0, 67, 64
2, 19604, Note_on_c, 0, 69, 66
2, 19680, Note_on_c, 0, 67, 66
2, 19686, Note_off_c, 0, 69, 64
2, 19735, Note_on_c, 0, 69, 62
2, 19737, Note_off_c, 0, 67, 64
2, 19800, Note_on_c, 0, 67, 66
2, 19805, Note_off_c, 0, 69, 64
2, 19855, Note_on_c, 0, 69, 66
2, 19877, Note_off_c, 0, 67, 64
2, 19904, Note_off_c, 0, 69, 64
2, 19920, Note_on_c, 0, 67, 66
2, 19949, Note_off_c, 0, 67, 64
2, 19956, Note_on_c, 0, 69, 66
2, 19984, Note_on_c, 0, 67, 70
2, 19988, Note_off_c, 0, 69, 64
2, 20040, Note_on_c, 0, 66, 70
2, 20041, Note_off_c, 0, 67, 64
2, 20104, Note_on_c, 0, 67, 74
2, 20116, Note_off_c, 0, 66, 64
2, 20160, Note_on_c, 0, 69, 74
2, 20175, Note_off_c, 0, 67, 64
2, 20468, Control_c, 0, 64, 127
2, 20468, Control_c, 0, 64, 127
2, 20468, Control_c, 0, 64, 127
2, 20605, Note_off_c, 0, 69, 64
2, 20640, Note_on_c, 0, 69, 66
2, 20759, Control_c, 0, 64, 0
2, 20759, Control_c, 0, 64, 0
2, 20759, Control_c, 0, 64, 0
2, 21076, Note_off_c, 0, 69, 64
2, 21120, Note_on_c, 0, 67, 53
2, 21360, Note_on_c, 0, 66, 50
2, 21366, Note_off_c, 0, 67, 64
2, 21600, Note_on_c, 0, 64, 45
2, 21615, Note_off_c, 0, 66, 64
2, 21840, Note_on_c, 0, 62, 35
2, 21857, Note_off_c, 0, 64, 64
2, 22026, Note_off_c, 0, 62, 64
2, 22080, Note_on_c, 0, 71, 71
2, 22440, Note_on_c, 0, 74, 65
2, 22448, Note_off_c, 0, 71, 64
2, 22560, Note_on_c, 0, 72, 63
2, 22585, Note_off_c, 0, 74, 64
2, 22920, Note_on_c, 0, 71, 59
2, 22954, Note_off_c, 0, 72, 64
2, 23040, Note_on_c, 0, 69, 72
2, 23058, Note_off_c, 0, 71, 64
2, 23520, Note_on_c, 0, 71, 50
2, 23526, Note_off_c, 0, 69, 64
2, 23932, Note_off_c, 0, 71, 64
2, 24000, Note_on_c, 0, 72, 74
2, 24480, Note_on_c, 0, 74, 64
2, 24499, Note_off_c, 0, 72, 64
2, 24960, Note_on_c, 0, 72, 73
2, 24978, Note_off_c, 0, 74, 64
2, 25200, Note_on_c, 0, 71, 62
2, 25207, Note_off_c, 0, 72, 64
2, 25440, Note_on_c, 0, 69, 54
2, 25476, Note_off_c, 0, 71, 64
2, 25680, Note_on_c, 0, 67, 40
2, 25704, Note_off_c, 0, 69, 64
2, 25816, Note_off_c, 0, 67, 64
2, 25920, Note_on_c, 0, 72, 94
2, 25920, Note_on_c, 0, 67, 81
2, 26063, Note_off_c, 0, 67, 64
2, 26063, Note_off_c, 0, 72, 64
2, 26400, Note_on_c, 0, 71, 94
2, 26400, Note_on_c, 0, 67, 80
2, 26529, Note_off_c, 0, 67, 64
2, 26529, Note_off_c, 0, 71, 64
2, 26880, Note_on_c, 0, 76, 115
2, 26880, Note_on_c, 0, 67, 103
2, 27321, Note_off_c, 0, 67, 64
2, 27321, Note_off_c, 0, 76, 64
2, 27600, Note_on_c, 0, 74, 59
2, 27600, Note_on_c, 0, 67, 50
2, 27690, Note_off_c, 0, 67, 64
2, 27690, Note_off_c, 0, 74, 64
2, 27840, Note_on_c, 0, 72, 64
2, 28080, Note_on_c, 0, 69, 47
2, 28132, Note_off_c, 0, 72, 64
2, 28157, Note_off_c, 0, 69, 64
2, 28320, Note_on_c, 0, 71, 66
2, 28560, Note_on_c, 0, 67, 40
2, 28586, Note_off_c, 0, 71, 64
2, 28629, Note_off_c, 0, 67, 64
2, 28800, Note_on_c, 0, 71, 74
2, 28800, Note_on_c, 0, 67, 74
2, 29066, Control_c, 0, 64, 127
2, 29067, Control_c, 0, 64, 127
2, 29067, Control_c, 0, 64, 127
2, 29280, Note_on_c, 0, 66, 29
2, 29280, Note_on_c, 0, 69, 25
2, 29286, Note_off_c, 0, 67, 64
2, 29286, Note_off_c, 0, 71, 64
2, 29357, Control_c, 0, 64, 0
2, 29357, Control_c, 0, 64, 0
2, 29358, Control_c, 0, 64, 0
2, 29639, Note_off_c, 0, 66, 64
2, 29639, Note_off_c, 0, 69, 64
2, 29760, Note_on_c, 0, 71, 71
2, 30120, Note_on_c, 0, 74, 65
2, 30128, Note_off_c, 0, 71, 64
2, 30240, Note_on_c, 0, 72, 63
2, 30265, Note_off_c, 0, 74, 64
2, 30600, Note_on_c, 0, 71, 59
2, 30634, Note_off_c, 0, 72, 64
2, 30720, Note_on_c, 0, 69, 72
2, 30738, Note_off_c, 0, 71, 64
2, 31200, Note_on_c, 0, 71, 50
2, 31206, Note_off_c, 0, 69, 64
2, 31661, Note_off_c, 0, 71, 64
2, 31680, Note_on_c, 0, 72, 66
2, 31906, Control_c, 0, 64, 127
2, 31906, Control_c, 0, 64, 127
2, 31907, Control_c, 0, 64, 127
2, 31991, Control_c, 0, 64, 0
2, 31992, Control_c, 0, 64, 0
2, 31992, Control_c, 0, 64, 0
2, 32160, Note_on_c, 0, 76, 73
2, 32165, Note_off_c, 0, 72, 64
2, 32400, Note_on_c, 0, 74, 67
2, 32429, Note_off_c, 0, 76, 64
2, 32640, Note_on_c, 0, 72, 70
2, 32648, Note_off_c, 0, 74, 64
2, 32880, Note_on_c, 0, 71, 53
2, 32916, Note_off_c, 0, 72, 64
2, 33120, Note_on_c, 0, 69, 48
2, 33138, Note_off_c, 0, 71, 64
2, 33360, Note_on_c, 0, 67, 32
2, 33373, Note_off_c, 0, 69, 64
2, 33530, Note_off_c, 0, 67, 64
2, 33600, Note_on_c, 0, 67, 85
2, 33600, Note_on_c, 0, 72, 95
2, 33726, Note_off_c, 0, 72, 64
2, 33726, Note_off_c, 0, 67, 64
2, 34080, Note_on_c, 0, 71, 90
2, 34080, Note_on_c, 0, 67, 93
2, 34215, Note_off_c, 0, 67, 64
2, 34215, Note_off_c, 0, 71, 64
2, 34560, Note_on_c, 0, 76, 96
2, 34560, Note_on_c, 0, 67, 81
2, 34781, Note_off_c, 0, 76, 64
2, 34800, Note_on_c, 0, 78, 93
2, 34830, Note_off_c, 0, 67, 64
2, 35040, Note_on_c, 0, 79, 88
2, 35071, Note_off_c, 0, 78, 64
2, 35258, Note_off_c, 0, 79, 64
2, 35280, Note_on_c, 0, 72, 68
2, 35516, Note_off_c, 0, 72, 64
2, 35520, Note_on_c, 0, 71, 61
2, 35823, Control_c, 0, 64, 127
2, 35824, Control_c, 0, 64, 127
2, 35824, Control_c, 0, 64, 127
2, 35945, Note_off_c, 0, 71, 64
2, 36000, Note_on_c, 0, 71, 62
2, 36060, Note_off_c, 0, 71, 64
2, 36064, Note_on_c, 0, 69, 54
2, 36120, Note_on_c, 0, 71, 51
2, 36128, Note_off_c, 0, 69, 64
2, 36177, Note_off_c, 0, 71, 64
2, 36183, Note_on_c, 0, 69, 47
2, 36240, Note_on_c, 0, 71, 43
2, 36248, Note_off_c, 0, 69, 64
2, 36287, Note_off_c, 0, 71, 64
2, 36291, Note_on_c, 0, 69, 43
2, 36360, Note_on_c, 0, 67, 43
2, 36364, Note_off_c, 0, 69, 64
2, 36405, Control_c, 0, 64, 0
2, 36405, Control_c, 0, 64, 0
2, 36405, Control_c, 0, 64, 0
2, 36420, Note_on_c, 0, 69, 47
2, 36439, Control_c, 0, 64, 127
2, 36439, Control_c, 0, 64, 127
2, 36439, Control_c, 0, 64, 127
2, 36441, Note_off_c, 0, 67, 64
2, 36473, Control_c, 0, 64, 0
2, 36473, Control_c, 0, 64, 0
2, 36474, Control_c, 0, 64, 0
2, 36480, Note_on_c, 0, 67, 51
2, 36501, Note_off_c, 0, 69, 64
2, 37326, Note_off_c, 0, 67, 64
2, 37440, Note_on_c, 0, 69, 70
2, 38400, Note_on_c, 0, 67, 59
2, 38425, Note_off_c, 0, 69, 64
2, 38640, Note_on_c, 0, 66, 74
2, 38650, Note_off_c, 0, 67, 64
2, 38880, Note_on_c, 0, 64, 62
2, 38921, Note_off_c, 0, 66, 64
2, 39120, Note_on_c, 0, 62, 51
2, 39136, Note_off_c, 0, 64, 64
2, 39360, Note_on_c, 0, 71, 77
2, 39364, Note_off_c, 0, 62, 64
2, 40320, Note_on_c, 0, 67, 58
2, 40354, Note_off_c, 0, 71, 64
2, 40527, Note_off_c, 0, 67, 64
2, 40724, Note_on_c, 0, 69, 66
2, 40800, Note_on_c, 0, 67, 66
2, 40806, Note_off_c, 0, 69, 64
2, 40855, Note_on_c, 0, 69, 62
2, 40857, Note_off_c, 0, 67, 64
2, 40920, Note_on_c, 0, 67, 66
2, 40925, Note_off_c, 0, 69, 64
2, 40975, Note_on_c, 0, 69, 66
2, 40997, Note_off_c, 0, 67, 64
2, 41024, Note_off_c, 0, 69, 64
2, 41040, Note_on_c, 0, 67, 66
2, 41069, Note_off_c, 0, 67, 64
2, 41076, Note_on_c, 0, 69, 66
2, 41104, Note_on_c, 0, 67, 70
2, 41108, Note_off_c, 0, 69, 64
2, 41160, Note_on_c, 0, 66, 70
2, 41161, Note_off_c, 0, 67, 64
2, 41224, Note_on_c, 0, 67, 74
2, 41236, Note_off_c, 0, 66, 64
2, 41280, Note_on_c, 0, 69, 74
2, 41295, Note_off_c, 0, 67, 64
2, 41588, Control_c, 0, 64, 127
2, 41588, Control_c, 0, 64, 127
2, 41588, Control_c, 0, 64, 127
2, 41725, Note_off_c, 0, 69, 64
2, 41760, Note_on_c, 0, 69, 66
2, 41879, Control_c, 0, 64, 0
2, 41879, Control_c, 0, 64, 0
2, 41879, Control_c, 0, 64, 0
2, 42196, Note_off_c, 0, 69, 64
2, 42240, Note_on_c, 0, 67, 53
2, 42480, Note_on_c, 0, 66, 50
2, 42486, Note_off_c, 0, 67, 64
2, 42720, Note_on_c, 0, 64, 45
2, 42735, Note_off_c, 0, 66, 64
2, 42960, Note_on_c, 0, 62, 35
2, 42977, Note_off_c, 0, 64, 64
2, 43200, Note_off_c, 0, 62, 64
2, 43200, Note_on_c, 0, 67, 61
2, 44000, Note_off_c, 0, 67, 64
2, 44160, Note_on_c, 0, 63, 93
2, 44386, Note_off_c, 0, 63, 64
2, 44640, Note_on_c, 0, 63, 85
2, 44800, Note_off_c, 0, 63, 64
2, 45120, Note_on_c, 0, 64, 73
2, 45360, Note_on_c, 0, 66, 59
2, 45364, Note_off_c, 0, 64, 64
2, 45600, Note_on_c, 0, 67, 50
2, 45633, Note_off_c, 0, 66, 64
2, 45840, Note_on_c, 0, 64, 47
2, 45856, Note_off_c, 0, 67, 64
2, 46080, Note_on_c, 0, 62, 78
2, 46093, Note_off_c, 0, 64, 64
2, 46320, Note_on_c, 0, 61, 51
2, 46333, Note_off_c, 0, 62, 64
2, 46560, Note_on_c, 0, 59, 58
2, 46572, Note_off_c, 0, 61, 64
2, 46800, Note_on_c, 0, 57, 62
2, 46816, Note_off_c, 0, 59, 64
2, 47045, Note_on_c, 0, 69, 48
2, 47048, Note_off_c, 0, 57, 64
2, 47617, Note_off_c, 0, 69, 64
2, 48000, Note_on_c, 0, 62, 73
2, 48000, Note_on_c, 0, 68, 73
2, 48000, Note_on_c, 0, 74, 105
2, 48120, Note_off_c, 0, 74, 64
2, 48120, Note_off_c, 0, 68, 64
2, 48120, Note_off_c, 0, 62, 64
2, 48480, Note_on_c, 0, 74, 101
2, 48480, Note_on_c, 0, 68, 70
2, 48480, Note_on_c, 0, 62, 70
2, 48600, Note_off_c, 0, 62, 64
2, 48600, Note_off_c, 0, 68, 64
2, 48600, Note_off_c, 0, 74, 64
2, 48967, Note_on_c, 0, 74, 48
2, 48967, Note_on_c, 0, 68, 24
2, 48967, Note_on_c, 0, 62, 24
2, 49641, Note_off_c, 0, 62, 64
2, 49641, Note_off_c, 0, 68, 64
2, 49641, Note_off_c, 0, 74, 64
2, 49925, Note_on_c, 0, 81, 40
2, 49925, Note_on_c, 0, 73, 24
2, 50025, Note_off_c, 0, 73, 64
2, 50025, Note_off_c, 0, 81, 64
2, 50400, Note_on_c, 0, 81, 37
2, 50400, Note_on_c, 0, 73, 32
2, 50500, Note_off_c, 0, 73, 64
2, 50500, Note_off_c, 0, 81, 64
2, 50892, Note_on_c, 0, 81, 28
2, 50892, Note_on_c, 0, 73, 18
2, 51852, Note_off_c, 0, 73, 64
2, 51852, Note_off_c, 0, 81, 64
2, 52320, Note_on_c, 0, 78, 59
2, 52350, Note_on_c, 0, 79, 59
2, 52380, Note_on_c, 0, 78, 59
2, 52410, Note_on_c, 0, 79, 59
2, 52440, Note_on_c, 0, 78, 59
2, 52470, Note_on_c, 0, 79, 59
2, 52500, Note_on_c, 0, 78, 59
2, 52530, Note_on_c, 0, 79, 59
2, 52560, Note_off_c, 0, 78, 64
2, 52560, Note_on_c, 0, 78, 59
2, 52590, Note_off_c, 0, 79, 64
2, 52620, Note_off_c, 0, 78, 64
2, 52650, Note_off_c, 0, 79, 64
2, 52680, Note_off_c, 0, 78, 64
2, 52710, Note_off_c, 0, 79, 64
2, 52740, Note_off_c, 0, 78, 64
2, 52740, Note_on_c, 0, 79, 54
2, 52770, Note_off_c, 0, 79, 64
2, 52800, Note_off_c, 0, 78, 64
2, 52800, Note_on_c, 0, 81, 76
2, 52860, Note_off_c, 0, 79, 64
2, 53187, Note_off_c, 0, 81, 64
2, 53280, Note_on_c, 0, 81, 59
2, 53941, Note_off_c, 0, 81, 64
2, 54000, Note_on_c, 0, 81, 74
2, 54131, Note_off_c, 0, 81, 64
2, 54240, Note_on_c, 0, 81, 69
2, 54360, Note_on_c, 0, 83, 62
2, 54366, Note_off_c, 0, 81, 64
2, 54399, Note_on_c, 0, 81, 66
2, 54422, Note_off_c, 0, 83, 64
2, 54438, Note_on_c, 0, 80, 82
2, 54449, Note_off_c, 0, 81, 64
2, 54480, Note_on_c, 0, 81, 75
2, 54503, Note_off_c, 0, 80, 64
2, 54600, Note_on_c, 0, 83, 65
2, 54605, Note_off_c, 0, 81, 64
2, 54720, Note_on_c, 0, 81, 67
2, 54747, Note_off_c, 0, 83, 64
2, 54960, Note_on_c, 0, 79, 58
2, 54964, Note_off_c, 0, 81, 64
2, 55070, Note_off_c, 0, 79, 64
2, 55200, Note_on_c, 0, 79, 57
2, 55877, Note_off_c, 0, 79, 64
2, 55920, Note_on_c, 0, 79, 60
2, 56160, Note_on_c, 0, 78, 63
2, 56182, Note_off_c, 0, 79, 64
2, 56400, Note_on_c, 0, 76, 55
2, 56433, Note_off_c, 0, 78, 64
2, 56556, Note_off_c, 0, 76, 64
2, 56640, Note_on_c, 0, 76, 77
2, 56880, Note_on_c, 0, 81, 62
2, 56894, Note_off_c, 0, 76, 64
2, 56955, Note_off_c, 0, 81, 64
2, 57120, Note_on_c, 0, 81, 66
2, 57836, Note_off_c, 0, 81, 64
2, 57840, Note_on_c, 0, 83, 63
2, 57960, Note_on_c, 0, 81, 64
2, 57992, Note_off_c, 0, 83, 64
2, 58009, Note_off_c, 0, 81, 64
2, 58080, Note_on_c, 0, 81, 77
2, 58200, Note_on_c, 0, 79, 61
2, 58217, Note_off_c, 0, 81, 64
2, 58320, Note_on_c, 0, 78, 56
2, 58337, Note_off_c, 0, 79, 64
2, 58440, Note_on_c, 0, 79, 59
2, 58451, Note_off_c, 0, 78, 64
2, 58485, Note_off_c, 0, 79, 64
2, 58560, Note_on_c, 0, 79, 72
2, 58800, Note_on_c, 0, 78, 60
2, 58835, Note_off_c, 0, 79, 64
2, 58900, Note_off_c, 0, 78, 64
2, 59040, Note_on_c, 0, 78, 58
2, 59688, Note_off_c, 0, 78, 64
2, 59760, Note_on_c, 0, 78, 62
2, 59816, Note_on_c, 0, 79, 74
2, 59836, Note_off_c, 0, 78, 64
2, 59876, Note_off_c, 0, 79, 64
2, 59880, Note_on_c, 0, 81, 75
2, 60000, Note_on_c, 0, 79, 49
2, 60023, Note_off_c, 0, 81, 64
2, 60240, Note_on_c, 0, 78, 65
2, 60246, Note_off_c, 0, 79, 64
2, 60347, Note_off_c, 0, 78, 64
2, 60480, Note_on_c, 0, 78, 67
2, 60720, Note_on_c, 0, 76, 60
2, 60749, Note_off_c, 0, 78, 64
2, 60788, Note_off_c, 0, 76, 64
2, 60960, Note_on_c, 0, 76, 64
2, 61001, Note_off_c, 0, 76, 64
2, 61200, Note_on_c, 0, 76, 73
2, 61238, Note_off_c, 0, 76, 64
2, 61440, Note_on_c, 0, 76, 66
2, 61860, Note_off_c, 0, 76, 64
2, 61920, Note_on_c, 0, 76, 64
2, 62325, Note_off_c, 0, 76, 64
2, 62400, Note_on_c, 0, 80, 70
2, 62456, Note_off_c, 0, 80, 64
2, 62457, Note_on_c, 0, 81, 73
2, 62502, Note_off_c, 0, 81, 64
2, 62514, Note_on_c, 0, 83, 78
2, 62570, Note_on_c, 0, 81, 76
2, 62590, Note_off_c, 0, 83, 64
2, 63600, Note_on_c, 0, 83, 69
2, 63652, Note_off_c, 0, 81, 64
2, 63720, Note_on_c, 0, 81, 67
2, 63740, Note_off_c, 0, 83, 64
2, 63840, Note_on_c, 0, 79, 53
2, 63857, Note_off_c, 0, 81, 64
2, 64080, Note_on_c, 0, 78, 55
2, 64123, Note_off_c, 0, 79, 64
2, 64267, Note_off_c, 0, 78, 64
2, 64320, Note_on_c, 0, 78, 62
2, 64560, Note_on_c, 0, 76, 61
2, 64587, Note_off_c, 0, 78, 64
2, 64800, Note_on_c, 0, 75, 64
2, 64812, Note_off_c, 0, 76, 64
2, 65040, Note_on_c, 0, 76, 67
2, 65071, Note_off_c, 0, 75, 64
2, 65280, Note_on_c, 0, 78, 65
2, 65305, Note_off_c, 0, 76, 64
2, 65520, Note_on_c, 0, 79, 55
2, 65547, Note_off_c, 0, 78, 64
2, 65675, Note_off_c, 0, 79, 64
2, 65760, Note_on_c, 0, 71, 57
2, 66000, Note_on_c, 0, 76, 44
2, 66024, Note_off_c, 0, 71, 64
2, 66160, Note_off_c, 0, 76, 64
2, 66240, Note_on_c, 0, 74, 63
2, 66480, Note_on_c, 0, 73, 47
2, 66505, Note_off_c, 0, 74, 64
2, 66720, Note_on_c, 0, 71, 51
2, 66747, Note_off_c, 0, 73, 64
2, 66960, Note_on_c, 0, 69, 43
2, 66985, Note_off_c, 0, 71, 64
2, 67200, Note_on_c, 0, 71, 46
2, 67213, Note_off_c, 0, 69, 64
2, 67440, Note_on_c, 0, 73, 48
2, 67448, Note_off_c, 0, 71, 64
2, 67680, Note_on_c, 0, 74, 50
2, 67700, Note_off_c, 0, 73, 64
2, 67920, Note_on_c, 0, 76, 59
2, 67940, Note_off_c, 0, 74, 64
2, 68090, Note_off_c, 0, 76, 64
2, 68160, Note_on_c, 0, 78, 66
2, 68520, Note_on_c, 0, 81, 61
2, 68547, Note_off_c, 0, 78, 64
2, 68640, Note_on_c, 0, 79, 77
2, 68656, Note_off_c, 0, 81, 64
2, 69000, Note_on_c, 0, 78, 59
2, 69010, Note_off_c, 0, 79, 64
2, 69120, Note_on_c, 0, 76, 73
2, 69148, Note_off_c, 0, 78, 64
2, 69600, Note_on_c, 0, 78, 47
2, 69618, Note_off_c, 0, 76, 64
2, 69960, Note_off_c, 0, 78, 64
2, 70080, Note_on_c, 0, 79, 70
2, 70560, Note_on_c, 0, 81, 68
2, 70579, Note_off_c, 0, 79, 64
2, 71040, Note_on_c, 0, 79, 56
2, 71073, Note_off_c, 0, 81, 64
2, 71520, Note_on_c, 0, 78, 42
2, 71542, Note_off_c, 0, 79, 64
2, 71849, Note_off_c, 0, 78, 64
2, 71989, Note_on_c, 0, 83, 57
2, 72075, Note_on_c, 0, 81, 39
2, 72080, Note_off_c, 0, 83, 64
2, 72131, Note_on_c, 0, 83, 39
2, 72135, Note_off_c, 0, 81, 64
2, 72184, Note_on_c, 0, 81, 39
2, 72185, Note_off_c, 0, 83, 64
2, 72239, Note_on_c, 0, 83, 39
2, 72244, Note_off_c, 0, 81, 64
2, 72296, Note_on_c, 0, 81, 39
2, 72306, Note_off_c, 0, 83, 64
2, 72352, Note_on_c, 0, 83, 39
2, 72356, Note_off_c, 0, 81, 64
2, 72415, Note_on_c, 0, 81, 39
2, 72423, Note_off_c, 0, 83, 64
2, 72477, Note_on_c, 0, 83, 39
2, 72483, Note_off_c, 0, 81, 64
2, 72516, Note_on_c, 0, 81, 39
2, 72524, Note_off_c, 0, 83, 64
2, 72561, Note_on_c, 0, 83, 39
2, 72563, Note_off_c, 0, 81, 64
2, 72602, Note_on_c, 0, 81, 39
2, 72605, Note_off_c, 0, 83, 64
2, 72644, Note_on_c, 0, 83, 39
2, 72646, Note_off_c, 0, 81, 64
2, 72678, Note_on_c, 0, 81, 39
2, 72682, Note_off_c, 0, 83, 64
2, 72723, Note_on_c, 0, 83, 39
2, 72725, Note_off_c, 0, 81, 64
2, 72763, Note_on_c, 0, 81, 39
2, 72767, Note_off_c, 0, 83, 64
2, 72808, Note_on_c, 0, 83, 43
2, 72810, Note_off_c, 0, 81, 64
2, 72845, Note_off_c, 0, 83, 64
2, 72845, Note_on_c, 0, 81, 47
2, 72878, Note_on_c, 0, 83, 47
2, 72880, Note_off_c, 0, 81, 64
2, 72918, Note_on_c, 0, 81, 47
2, 72920, Note_off_c, 0, 83, 64
2, 72962, Note_on_c, 0, 83, 47
2, 72966, Note_off_c, 0, 81, 64
2, 73002, Note_off_c, 0, 83, 64
2, 73005, Note_on_c, 0, 81, 47
2, 73039, Note_on_c, 0, 83, 47
2, 73041, Note_off_c, 0, 81, 64
2, 73081, Note_off_c, 0, 83, 64
2, 73081, Note_on_c, 0, 81, 47
2, 73123, Note_on_c, 0, 83, 47
2, 73127, Note_off_c, 0, 81, 64
2, 73162, Note_on_c, 0, 81, 47
2, 73168, Note_off_c, 0, 83, 64
2, 73206, Note_on_c, 0, 83, 47
2, 73209, Note_off_c, 0, 81, 64
2, 73247, Note_on_c, 0, 81, 47
2, 73249, Note_off_c, 0, 83, 64
2, 73282, Note_on_c, 0, 83, 47
2, 73285, Note_off_c, 0, 81, 64
2, 73321, Note_off_c, 0, 83, 64
2, 73321, Note_on_c, 0, 81, 47
2, 73355, Note_on_c, 0, 83, 47
2, 73358, Note_off_c, 0, 81, 64
2, 73390, Note_off_c, 0, 83, 64
2, 73391, Note_on_c, 0, 81, 47
2, 73435, Note_on_c, 0, 83, 47
2, 73442, Note_off_c, 0, 81, 64
2, 73481, Note_on_c, 0, 81, 47
2, 73483, Note_off_c, 0, 83, 64
2, 73515, Note_on_c, 0, 83, 47
2, 73521, Note_off_c, 0, 81, 64
2, 73557, Note_on_c, 0, 81, 47
2, 73560, Note_off_c, 0, 83, 64
2, 73594, Note_on_c, 0, 83, 47
2, 73598, Note_off_c, 0, 81, 64
2, 73631, Note_off_c, 0, 83, 64
2, 73635, Note_on_c, 0, 81, 47
2, 73673, Note_on_c, 0, 83, 47
2, 73677, Note_off_c, 0, 81, 64
2, 73716, Note_off_c, 0, 83, 64
2, 73718, Note_on_c, 0, 81, 47
2, 73759, Note_on_c, 0, 83, 47
2, 73760, Note_off_c, 0, 81, 64
2, 73800, Note_on_c, 0, 81, 47
2, 73801, Note_off_c, 0, 83, 64
2, 73842, Note_off_c, 0, 81, 64
2, 73842, Note_on_c, 0, 83, 47
2, 73880, Note_on_c, 0, 81, 47
2, 73882, Note_off_c, 0, 83, 64
2, 73924, Note_on_c, 0, 83, 47
2, 73926, Note_off_c, 0, 81, 64
2, 73961, Note_on_c, 0, 81, 51
2, 73963, Note_off_c, 0, 83, 64
2, 74001, Note_on_c, 0, 83, 51
2, 74005, Note_off_c, 0, 81, 64
2, 74036, Note_off_c, 0, 83, 64
2, 74036, Note_on_c, 0, 81, 51
2, 74072, Note_on_c, 0, 83, 51
2, 74073, Note_off_c, 0, 81, 64
2, 74106, Note_off_c, 0, 83, 64
2, 74108, Note_on_c, 0, 81, 51
2, 74138, Note_on_c, 0, 83, 51
2, 74142, Note_off_c, 0, 81, 64
2, 74170, Note_on_c, 0, 81, 51
2, 74172, Note_off_c, 0, 83, 64
2, 74206, Note_on_c, 0, 83, 51
2, 74207, Note_off_c, 0, 81, 64
2, 74240, Note_on_c, 0, 81, 51
2, 74241, Note_off_c, 0, 83, 64
2, 74271, Note_on_c, 0, 83, 51
2, 74273, Note_off_c, 0, 81, 64
2, 74305, Note_on_c, 0, 81, 51
2, 74312, Note_off_c, 0, 83, 64
2, 74344, Note_on_c, 0, 83, 51
2, 74345, Note_off_c, 0, 81, 64
2, 74378, Note_on_c, 0, 81, 51
2, 74385, Note_off_c, 0, 83, 64
2, 74416, Note_on_c, 0, 83, 51
2, 74418, Note_off_c, 0, 81, 64
2, 74449, Note_on_c, 0, 81, 51
2, 74456, Note_off_c, 0, 83, 64
2, 74485, Note_on_c, 0, 83, 51
2, 74492, Note_off_c, 0, 81, 64
2, 74524, Note_on_c, 0, 81, 51
2, 74528, Note_off_c, 0, 83, 64
2, 74559, Note_on_c, 0, 83, 51
2, 74566, Note_off_c, 0, 81, 64
2, 74595, Note_on_c, 0, 81, 51
2, 74602, Note_off_c, 0, 83, 64
2, 74628, Note_on_c, 0, 83, 51
2, 74646, Note_off_c, 0, 81, 64
2, 74667, Note_on_c, 0, 81, 51
2, 74679, Note_off_c, 0, 83, 64
2, 74702, Note_on_c, 0, 83, 51
2, 74716, Note_off_c, 0, 81, 64
2, 74738, Note_on_c, 0, 81, 51
2, 74754, Note_off_c, 0, 83, 64
2, 74772, Note_on_c, 0, 83, 51
2, 74787, Note_off_c, 0, 81, 64
2, 74805, Note_on_c, 0, 81, 51
2, 74822, Note_off_c, 0, 83, 64
2, 74842, Note_on_c, 0, 83, 51
2, 74855, Note_off_c, 0, 81, 64
2, 74880, Note_on_c, 0, 81, 51
2, 74892, Note_off_c, 0, 83, 64
2, 74914, Note_on_c, 0, 83, 51
2, 74929, Note_off_c, 0, 81, 64
2, 74950, Note_on_c, 0, 81, 51
2, 74960, Note_off_c, 0, 83, 64
2, 74984, Note_on_c, 0, 83, 51
2, 75006, Note_off_c, 0, 81, 64
2, 75017, Note_on_c, 0, 81, 51
2, 75033, Note_off_c, 0, 83, 64
2, 75053, Note_on_c, 0, 83, 51
2, 75055, Note_off_c, 0, 81, 64
2, 75086, Note_off_c, 0, 83, 64
2, 75088, Note_on_c, 0, 81, 51
2, 75118, Note_off_c, 0, 81, 64
2, 75123, Note_on_c, 0, 83, 51
2, 75158, Note_off_c, 0, 83, 64
2, 75159, Note_on_c, 0, 81, 51
2, 75197, Note_on_c, 0, 83, 51
2, 75199, Note_off_c, 0, 81, 64
2, 75231, Note_off_c, 0, 83, 64
2, 75234, Note_on_c, 0, 81, 51
2, 75270, Note_off_c, 0, 81, 64
2, 75272, Note_on_c, 0, 83, 51
2, 75307, Note_on_c, 0, 81, 51
2, 75309, Note_off_c, 0, 83, 64
2, 75342, Note_on_c, 0, 83, 51
2, 75354, Note_off_c, 0, 83, 64
2, 75371, Note_off_c, 0, 81, 64
2, 75375, Note_on_c, 0, 81, 51
2, 75410, Note_on_c, 0, 83, 51
2, 75414, Note_off_c, 0, 81, 64
2, 75446, Note_off_c, 0, 83, 64
2, 75446, Note_on_c, 0, 81, 51
2, 75482, Note_on_c, 0, 83, 51
2, 75485, Note_off_c, 0, 81, 64
2, 75517, Note_on_c, 0, 81, 51
2, 75521, Note_off_c, 0, 83, 64
2, 75552, Note_on_c, 0, 83, 51
2, 75567, Note_off_c, 0, 81, 64
2, 75583, Note_off_c, 0, 83, 64
2, 75587, Note_on_c, 0, 81, 51
2, 75618, Note_on_c, 0, 83, 51
2, 75635, Note_off_c, 0, 83, 64
2, 75643, Note_on_c, 0, 81, 51
2, 75677, Note_off_c, 0, 81, 64
2, 75678, Note_on_c, 0, 83, 54
2, 75699, Note_on_c, 0, 81, 54
2, 75700, Note_off_c, 0, 81, 64
2, 75720, Note_on_c, 0, 80, 54
2, 75735, Note_off_c, 0, 83, 64
2, 75756, Note_off_c, 0, 81, 64
2, 75780, Note_on_c, 0, 81, 47
2, 75788, Note_off_c, 0, 80, 64
2, 75840, Note_on_c, 0, 74, 80
2, 75840, Note_on_c, 0, 86, 82
2, 75848, Note_off_c, 0, 81, 64
2, 76320, Note_off_c, 0, 74, 64
2, 76320, Note_off_c, 0, 86, 64
2, 76320, Note_on_c, 0, 85, 66
2, 76320, Note_on_c, 0, 73, 63
2, 76800, Note_off_c, 0, 73, 64
2, 76800, Note_off_c, 0, 85, 64
2, 76800, Note_on_c, 0, 71, 60
2, 76800, Note_on_c, 0, 83, 60
2, 77210, Note_off_c, 0, 83, 64
2, 77210, Note_off_c, 0, 71, 64
2, 77520, Note_on_c, 0, 78, 51
2, 77595, Note_off_c, 0, 78, 64
2, 77760, Note_on_c, 0, 83, 53
2, 77760, Note_on_c, 0, 71, 53
2, 78240, Note_on_c, 0, 69, 52
2, 78240, Note_on_c, 0, 81, 52
2, 78242, Note_off_c, 0, 71, 64
2, 78242, Note_off_c, 0, 83, 64
2, 78720, Note_on_c, 0, 67, 44
2, 78720, Note_on_c, 0, 79, 44
2, 78745, Note_off_c, 0, 69, 64
2, 78745, Note_off_c, 0, 81, 64
2, 79214, Note_off_c, 0, 67, 64
2, 79214, Note_off_c, 0, 79, 64
2, 79440, Note_on_c, 0, 74, 84
2, 79535, Note_off_c, 0, 74, 64
2, 79680, Note_on_c, 0, 67, 84
2, 79680, Note_on_c, 0, 79, 87
2, 80160, Note_on_c, 0, 78, 81
2, 80160, Note_on_c, 0, 66, 78
2, 80165, Note_off_c, 0, 79, 64
2, 80165, Note_off_c, 0, 67, 64
2, 80640, Note_on_c, 0, 76, 75
2, 80641, Note_off_c, 0, 78, 64
2, 80641, Note_off_c, 0, 66, 64
2, 80880, Note_on_c, 0, 83, 73
2, 80894, Note_off_c, 0, 76, 64
2, 81120, Note_on_c, 0, 81, 66
2, 81126, Note_off_c, 0, 83, 64
2, 81240, Note_on_c, 0, 79, 51
2, 81259, Note_off_c, 0, 81, 64
2, 81360, Note_on_c, 0, 78, 57
2, 81387, Note_off_c, 0, 79, 64
2, 81480, Note_on_c, 0, 76, 55
2, 81487, Note_off_c, 0, 78, 64
2, 81600, Note_on_c, 0, 74, 46
2, 81606, Note_off_c, 0, 76, 64
2, 82080, Note_on_c, 0, 76, 60
2, 82094, Note_off_c, 0, 74, 64
2, 82320, Note_off_c, 0, 76, 64
2, 82560, Note_on_c, 0, 77, 60
2, 83040, Note_on_c, 0, 78, 51
2, 83074, Note_off_c, 0, 77, 64
2, 83233, Note_off_c, 0, 78, 64
2, 83520, Note_on_c, 0, 86, 92
2, 84000, Note_on_c, 0, 85, 88
2, 84009, Note_off_c, 0, 86, 64
2, 84062, Note_on_c, 0, 86, 73
2, 84079, Note_off_c, 0, 85, 64
2, 84120, Note_on_c, 0, 85, 85
2, 84136, Note_off_c, 0, 86, 64
2, 84178, Note_on_c, 0, 86, 83
2, 84185, Note_off_c, 0, 85, 64
2, 84229, Note_off_c, 0, 86, 64
2, 84240, Note_on_c, 0, 85, 87
2, 84271, Note_on_c, 0, 86, 81
2, 84280, Note_off_c, 0, 85, 64
2, 84304, Note_on_c, 0, 85, 84
2, 84323, Note_off_c, 0, 86, 64
2, 84360, Note_on_c, 0, 83, 72
2, 84363, Note_off_c, 0, 85, 64
2, 84411, Note_off_c, 0, 83, 64
2, 84419, Note_on_c, 0, 85, 81
2, 84470, Note_off_c, 0, 85, 64
2, 84480, Note_on_c, 0, 83, 77
2, 84700, Note_off_c, 0, 83, 64
2, 85200, Note_on_c, 0, 78, 74
2, 85280, Note_off_c, 0, 78, 64
2, 85440, Note_on_c, 0, 83, 84
2, 85901, Note_off_c, 0, 83, 64
2, 85920, Note_on_c, 0, 81, 47
2, 85986, Note_on_c, 0, 83, 58
2, 85996, Note_off_c, 0, 81, 64
2, 86040, Note_on_c, 0, 81, 54
2, 86059, Note_off_c, 0, 83, 64
2, 86097, Note_off_c, 0, 81, 64
2, 86108, Note_on_c, 0, 83, 56
2, 86168, Note_off_c, 0, 83, 64
2, 86169, Note_on_c, 0, 81, 57
2, 86199, Note_off_c, 0, 81, 64
2, 86206, Note_on_c, 0, 83, 45
2, 86233, Note_on_c, 0, 81, 62
2, 86247, Note_off_c, 0, 83, 64
2, 86280, Note_on_c, 0, 79, 65
2, 86282, Note_off_c, 0, 81, 64
2, 86343, Note_on_c, 0, 81, 57
2, 86359, Note_off_c, 0, 79, 64
2, 86400, Note_on_c, 0, 79, 54
2, 86422, Note_off_c, 0, 81, 64
2, 86880, Note_off_c, 0, 79, 64
2, 87120, Note_on_c, 0, 74, 90
2, 87312, Note_off_c, 0, 74, 64
2, 87360, Note_on_c, 0, 79, 90
2, 87840, Note_on_c, 0, 78, 83
2, 87856, Note_off_c, 0, 79, 64
2, 88320, Note_on_c, 0, 76, 81
2, 88329, Note_off_c, 0, 78, 64
2, 88557, Note_off_c, 0, 76, 64
2, 88560, Note_on_c, 0, 83, 92
2, 88800, Note_on_c, 0, 81, 83
2, 88838, Note_off_c, 0, 83, 64
2, 88920, Note_on_c, 0, 79, 83
2, 88930, Note_off_c, 0, 81, 64
2, 89040, Note_on_c, 0, 78, 90
2, 89045, Note_off_c, 0, 79, 64
2, 89160, Note_on_c, 0, 76, 77
2, 89167, Note_off_c, 0, 78, 64
2, 89216, Note_off_c, 0, 76, 64
2, 89280, Note_on_c, 0, 74, 40
2, 89493, Note_off_c, 0, 74, 64
2, 89520, Note_on_c, 0, 78, 55
2, 89641, Note_off_c, 0, 78, 64
2, 89760, Note_on_c, 0, 81, 63
2, 90480, Note_on_c, 0, 80, 57
2, 90484, Note_off_c, 0, 81, 64
2, 90610, Note_off_c, 0, 80, 64
2, 90720, Note_on_c, 0, 79, 61
2, 90799, Note_off_c, 0, 79, 64
2, 90960, Note_on_c, 0, 78, 59
2, 91044, Note_off_c, 0, 78, 64
2, 91200, Note_on_c, 0, 83, 58
2, 91290, Note_on_c, 0, 79, 58
2, 91296, Note_off_c, 0, 83, 64
2, 91380, Note_off_c, 0, 79, 96
2, 91380, Note_on_c, 0, 76, 47
2, 91414, Note_off_c, 0, 76, 96
2, 91440, Note_on_c, 0, 76, 43
2, 91485, Note_on_c, 0, 78, 43
2, 91500, Note_off_c, 0, 76, 96
2, 91530, Note_on_c, 0, 76, 43
2, 91545, Note_off_c, 0, 78, 96
2, 91575, Note_on_c, 0, 78, 47
2, 91590, Note_off_c, 0, 76, 96
2, 91615, Note_on_c, 0, 76, 47
2, 91635, Note_off_c, 0, 78, 96
2, 91660, Note_on_c, 0, 78, 47
2, 91675, Note_off_c, 0, 76, 96
2, 91705, Note_on_c, 0, 76, 47
2, 91720, Note_off_c, 0, 78, 96
2, 91750, Note_on_c, 0, 78, 51
2, 91765, Note_off_c, 0, 76, 96
2, 91795, Note_on_c, 0, 76, 51
2, 91810, Note_off_c, 0, 78, 96
2, 91840, Note_on_c, 0, 78, 51
2, 91855, Note_off_c, 0, 76, 96
2, 91885, Note_on_c, 0, 76, 51
2, 91900, Note_off_c, 0, 78, 96
2, 91930, Note_on_c, 0, 78, 54
2, 91945, Note_off_c, 0, 76, 96
2, 91975, Note_on_c, 0, 76, 54
2, 91990, Note_off_c, 0, 78, 96
2, 92010, Note_on_c, 0, 78, 54
2, 92035, Note_off_c, 0, 76, 96
2, 92055, Note_on_c, 0, 76, 54
2, 92070, Note_off_c, 0, 78, 96
2, 92100, Note_on_c, 0, 78, 58
2, 92115, Note_off_c, 0, 76, 96
2, 92144, Note_on_c, 0, 76, 58
2, 92160, Note_off_c, 0, 78, 96
2, 92197, Note_on_c, 0, 78, 62
2, 92204, Note_off_c, 0, 76, 96
2, 92241, Note_on_c, 0, 76, 62
2, 92242, Note_off_c, 0, 78, 64
2, 92280, Note_on_c, 0, 78, 66
2, 92292, Note_off_c, 0, 76, 64
2, 92326, Note_off_c, 0, 78, 64
2, 92329, Note_on_c, 0, 76, 66
2, 92360, Note_on_c, 0, 78, 66
2, 92362, Note_off_c, 0, 76, 64
2, 92400, Note_on_c, 0, 76, 66
2, 92406, Note_off_c, 0, 78, 64
2, 92440, Note_off_c, 0, 76, 64
2, 92440, Note_on_c, 0, 78, 62
2, 92483, Note_on_c, 0, 76, 62
2, 92484, Note_off_c, 0, 78, 64
2, 92520, Note_off_c, 0, 76, 64
2, 92520, Note_on_c, 0, 78, 62
2, 92558, Note_on_c, 0, 76, 58
2, 92562, Note_off_c, 0, 78, 64
2, 92592, Note_on_c, 0, 78, 58
2, 92596, Note_off_c, 0, 76, 64
2, 92636, Note_off_c, 0, 78, 64
2, 92640, Note_on_c, 0, 76, 58
2, 92675, Note_on_c, 0, 78, 54
2, 92681, Note_off_c, 0, 76, 64
2, 92716, Note_on_c, 0, 76, 54
2, 92718, Note_off_c, 0, 78, 64
2, 92760, Note_on_c, 0, 78, 54
2, 92765, Note_off_c, 0, 76, 64
2, 92796, Note_on_c, 0, 76, 54
2, 92807, Note_off_c, 0, 78, 64
2, 92831, Note_on_c, 0, 78, 51
2, 92837, Note_off_c, 0, 76, 64
2, 92880, Note_on_c, 0, 76, 51
2, 92915, Note_off_c, 0, 78, 64
2, 92918, Note_off_c, 0, 76, 64
2, 92923, Note_on_c, 0, 78, 47
2, 92960, Note_on_c, 0, 76, 47
2, 92961, Note_off_c, 0, 78, 64
2, 92996, Note_off_c, 0, 76, 64
2, 93000, Note_on_c, 0, 74, 47
2, 93063, Note_off_c, 0, 74, 64
2, 93066, Note_on_c, 0, 76, 43
2, 93120, Note_on_c, 0, 74, 43
2, 93133, Note_off_c, 0, 76, 64
2, 93358, Note_off_c, 0, 74, 64
2, 93360, Note_on_c, 0, 73, 62
2, 93600, Note_on_c, 0, 74, 57
2, 93629, Note_off_c, 0, 73, 64
2, 93840, Note_on_c, 0, 76, 54
2, 93870, Note_off_c, 0, 74, 64
2, 94080, Note_on_c, 0, 74, 58
2, 94092, Note_off_c, 0, 76, 64
2, 94320, Note_on_c, 0, 72, 51
2, 94348, Note_off_c, 0, 74, 64
2, 94560, Note_on_c, 0, 71, 41
2, 94569, Note_off_c, 0, 72, 64
2, 94800, Note_on_c, 0, 70, 37
2, 94844, Note_off_c, 0, 71, 64
2, 94970, Note_off_c, 0, 70, 64
2, 95040, Note_on_c, 0, 71, 56
2, 95394, Note_off_c, 0, 71, 64
2, 95400, Note_on_c, 0, 74, 65
2, 95520, Note_on_c, 0, 72, 45
2, 95535, Note_off_c, 0, 74, 64
2, 95880, Note_on_c, 0, 71, 68
2, 95893, Note_off_c, 0, 72, 64
2, 96000, Note_on_c, 0, 69, 66
2, 96022, Note_off_c, 0, 71, 64
2, 96480, Note_off_c, 0, 69, 64
2, 96480, Note_on_c, 0, 71, 68
2, 96960, Note_off_c, 0, 71, 64
2, 96960, Note_on_c, 0, 72, 66
2, 97200, Note_on_c, 0, 74, 59
2, 97210, Note_off_c, 0, 72, 64
2, 97256, Note_on_c, 0, 72, 55
2, 97279, Note_off_c, 0, 74, 64
2, 97322, Note_on_c, 0, 71, 53
2, 97335, Note_off_c, 0, 72, 64
2, 97379, Note_on_c, 0, 72, 58
2, 97393, Note_off_c, 0, 71, 64
2, 97451, Note_on_c, 0, 76, 65
2, 97463, Note_off_c, 0, 72, 64
2, 97669, Note_on_c, 0, 74, 61
2, 97690, Note_off_c, 0, 76, 64
2, 97920, Note_on_c, 0, 72, 43
2, 97921, Note_off_c, 0, 74, 64
2, 98400, Note_on_c, 0, 71, 28
2, 98471, Note_off_c, 0, 72, 64
2, 98739, Note_off_c, 0, 71, 64
2, 98880, Note_on_c, 0, 72, 100
2, 98880, Note_on_c, 0, 67, 93
2, 99023, Note_off_c, 0, 67, 64
2, 99023, Note_off_c, 0, 72, 64
2, 99360, Note_on_c, 0, 71, 100
2, 99360, Note_on_c, 0, 67, 88
2, 99489, Note_off_c, 0, 67, 64
2, 99489, Note_off_c, 0, 71, 64
2, 99850, Note_on_c, 0, 67, 101
2, 99850, Note_on_c, 0, 76, 108
2, 100388, Note_off_c, 0, 76, 64
2, 100388, Note_off_c, 0, 67, 64
2, 100560, Note_on_c, 0, 74, 52
2, 100560, Note_on_c, 0, 67, 42
2, 100660, Note_off_c, 0, 67, 64
2, 100660, Note_off_c, 0, 74, 64
2, 100800, Note_on_c, 0, 72, 55
2, 101040, Note_on_c, 0, 69, 37
2, 101091, Note_off_c, 0, 72, 64
2, 101152, Note_off_c, 0, 69, 64
2, 101280, Note_on_c, 0, 71, 53
2, 101520, Note_on_c, 0, 67, 37
2, 101547, Note_off_c, 0, 71, 64
2, 101605, Note_off_c, 0, 67, 64
2, 101760, Note_on_c, 0, 71, 55
2, 102240, Note_on_c, 0, 69, 26
2, 102258, Note_off_c, 0, 71, 64
2, 102535, Note_off_c, 0, 69, 64
2, 102720, Note_on_c, 0, 71, 51
2, 102960, Note_off_c, 0, 71, 64
2, 102960, Note_on_c, 0, 72, 52
2, 103014, Note_on_c, 0, 71, 48
2, 103044, Note_off_c, 0, 72, 64
2, 103077, Note_off_c, 0, 71, 64
2, 103080, Note_on_c, 0, 69, 54
2, 103138, Note_on_c, 0, 71, 50
2, 103166, Note_off_c, 0, 69, 64
2, 103200, Note_on_c, 0, 72, 55
2, 103224, Note_off_c, 0, 71, 64
2, 103560, Note_on_c, 0, 71, 52
2, 103578, Note_off_c, 0, 72, 64
2, 103664, Note_off_c, 0, 71, 64
2, 103680, Note_on_c, 0, 69, 66
2, 104160, Note_on_c, 0, 71, 62
2, 104204, Note_off_c, 0, 69, 64
2, 104638, Note_off_c, 0, 71, 64
2, 104640, Note_on_c, 0, 72, 70
2, 104880, Note_on_c, 0, 73, 74
2, 104901, Note_off_c, 0, 72, 64
2, 105120, Note_on_c, 0, 76, 72
2, 105138, Note_off_c, 0, 73, 64
2, 105360, Note_on_c, 0, 74, 57
2, 105388, Note_off_c, 0, 76, 64
2, 105600, Note_on_c, 0, 72, 47
2, 105610, Note_off_c, 0, 74, 64
2, 105840, Note_on_c, 0, 74, 48
2, 105855, Note_off_c, 0, 72, 64
2, 105954, Note_off_c, 0, 74, 64
2, 105960, Note_on_c, 0, 72, 33
2, 106080, Note_on_c, 0, 71, 19
2, 106118, Note_off_c, 0, 72, 64
2, 106235, Note_off_c, 0, 71, 64
2, 106560, Note_on_c, 0, 72, 105
2, 106560, Note_on_c, 0, 67, 90
2, 106694, Note_off_c, 0, 67, 64
2, 106694, Note_off_c, 0, 72, 64
2, 107040, Note_on_c, 0, 71, 105
2, 107040, Note_on_c, 0, 67, 90
2, 107180, Note_off_c, 0, 67, 64
2, 107180, Note_off_c, 0, 71, 64
2, 107520, Note_on_c, 0, 67, 88
2, 107520, Note_on_c, 0, 76, 102
2, 107760, Note_on_c, 0, 78, 103
2, 107783, Note_off_c, 0, 76, 64
2, 107872, Note_off_c, 0, 67, 64
2, 108000, Note_on_c, 0, 79, 90
2, 108006, Note_off_c, 0, 78, 64
2, 108119, Note_off_c, 0, 79, 64
2, 108240, Note_on_c, 0, 72, 64
2, 108430, Note_off_c, 0, 72, 64
2, 108480, Note_on_c, 0, 71, 55
2, 108917, Note_off_c, 0, 71, 64
2, 108960, Note_on_c, 0, 71, 49
2, 109025, Note_on_c, 0, 69, 50
2, 109031, Note_off_c, 0, 71, 64
2, 109075, Note_off_c, 0, 69, 64
2, 109080, Note_on_c, 0, 71, 57
2, 109135, Note_off_c, 0, 71, 64
2, 109137, Note_on_c, 0, 69, 51
2, 109200, Note_off_c, 0, 69, 64
2, 109200, Note_on_c, 0, 71, 66
2, 109250, Note_on_c, 0, 69, 63
2, 109273, Note_off_c, 0, 71, 64
2, 109311, Note_off_c, 0, 69, 64
2, 109320, Note_on_c, 0, 67, 51
2, 109375, Note_on_c, 0, 69, 50
2, 109387, Note_off_c, 0, 67, 64
2, 109440, Note_on_c, 0, 67, 52
2, 109462, Note_off_c, 0, 69, 64
2, 110263, Note_off_c, 0, 67, 64
2, 110400, Note_on_c, 0, 71, 70
2, 110880, Note_on_c, 0, 69, 66
2, 110911, Note_off_c, 0, 71, 64
2, 111330, Note_off_c, 0, 69, 64
2, 111360, Note_on_c, 0, 67, 65
2, 111600, Note_on_c, 0, 66, 54
2, 111606, Note_off_c, 0, 67, 64
2, 111840, Note_on_c, 0, 64, 47
2, 111863, Note_off_c, 0, 66, 64
2, 112080, Note_off_c, 0, 64, 64
2, 112080, Note_on_c, 0, 62, 42
2, 112320, Note_on_c, 0, 71, 69
2, 112339, Note_off_c, 0, 62, 64
2, 113280, Note_on_c, 0, 67, 52
2, 113316, Note_off_c, 0, 71, 64
2, 113920, Note_off_c, 0, 67, 64
2, 114000, Note_on_c, 0, 67, 62
2, 114044, Note_off_c, 0, 67, 64
2, 114045, Note_on_c, 0, 69, 60
2, 114080, Note_on_c, 0, 67, 59
2, 114089, Note_off_c, 0, 69, 64
2, 114120, Note_on_c, 0, 66, 59
2, 114124, Note_off_c, 0, 67, 64
2, 114180, Note_off_c, 0, 66, 64
2, 114188, Note_on_c, 0, 67, 59
2, 114240, Note_on_c, 0, 71, 62
2, 114253, Note_off_c, 0, 67, 64
2, 114480, Note_on_c, 0, 69, 65
2, 114484, Note_off_c, 0, 71, 64
2, 114600, Note_off_c, 0, 69, 64
2, 114720, Note_on_c, 0, 69, 79
2, 115200, Note_on_c, 0, 67, 58
2, 115231, Note_off_c, 0, 69, 64
2, 115439, Note_off_c, 0, 67, 64
2, 115440, Note_on_c, 0, 66, 51
2, 115680, Note_on_c, 0, 64, 59
2, 115706, Note_off_c, 0, 66, 64
2, 115920, Note_on_c, 0, 62, 57
2, 115943, Note_off_c, 0, 64, 64
2, 116160, Note_on_c, 0, 67, 77
2, 116170, Note_off_c, 0, 62, 64
2, 116662, Note_off_c, 0, 67, 64
2, 117120, Note_on_c, 0, 73, 81
2, 117120, Note_on_c, 0, 79, 107
2, 117120, Note_on_c, 0, 67, 93
2, 117290, Note_off_c, 0, 67, 64
2, 117290, Note_off_c, 0, 79, 64
2, 117290, Note_off_c, 0, 73, 64
2, 117600, Note_on_c, 0, 79, 89
2, 117600, Note_on_c, 0, 73, 73
2, 117600, Note_on_c, 0, 67, 73
2, 117720, Note_off_c, 0, 67, 64
2, 117720, Note_off_c, 0, 73, 64
2, 117720, Note_off_c, 0, 79, 64
2, 118080, Note_on_c, 0, 79, 51
2, 118080, Note_on_c, 0, 73, 45
2, 118080, Note_on_c, 0, 67, 45
2, 118560, Note_off_c, 0, 67, 64
2, 118560, Note_off_c, 0, 73, 64
2, 118560, Note_off_c, 0, 79, 64
2, 119040, Note_on_c, 0, 78, 45
2, 119040, Note_on_c, 0, 86, 53
2, 119114, Note_off_c, 0, 86, 64
2, 119114, Note_off_c, 0, 78, 64
2, 119520, Note_on_c, 0, 86, 41
2, 119520, Note_on_c, 0, 78, 35
2, 119600, Note_off_c, 0, 78, 64
2, 119600, Note_off_c, 0, 86, 64
2, 120000, Note_on_c, 0, 86, 36
2, 120000, Note_on_c, 0, 78, 32
2, 120960, Note_off_c, 0, 78, 64
2, 120960, Note_off_c, 0, 86, 64
2, 121650, Note_on_c, 0, 71, 66
2, 121678, Note_off_c, 0, 71, 64
2, 121680, Note_on_c, 0, 72, 60
2, 121708, Note_off_c, 0, 72, 64
2, 121710, Note_on_c, 0, 71, 60
2, 121738, Note_off_c, 0, 71, 64
2, 121740, Note_on_c, 0, 72, 60
2, 121768, Note_off_c, 0, 72, 64
2, 121770, Note_on_c, 0, 71, 60
2, 121798, Note_off_c, 0, 71, 64
2, 121800, Note_on_c, 0, 69, 68
2, 121828, Note_off_c, 0, 69, 64
2, 121830, Note_on_c, 0, 71, 69
2, 121858, Note_off_c, 0, 71, 64
2, 121860, Note_on_c, 0, 72, 73
2, 121920, Note_off_c, 0, 72, 64
2, 121920, Note_on_c, 0, 74, 77
2, 122336, Note_off_c, 0, 74, 64
2, 122400, Note_on_c, 0, 74, 67
2, 123067, Note_off_c, 0, 74, 64
2, 123120, Note_on_c, 0, 74, 76
2, 123243, Note_off_c, 0, 74, 64
2, 123360, Note_on_c, 0, 74, 66
2, 123469, Note_on_c, 0, 76, 64
2, 123485, Note_off_c, 0, 74, 64
2, 123513, Note_on_c, 0, 74, 64
2, 123529, Note_off_c, 0, 76, 64
2, 123549, Note_on_c, 0, 73, 64
2, 123558, Note_off_c, 0, 74, 64
2, 123600, Note_on_c, 0, 74, 64
2, 123614, Note_off_c, 0, 73, 64
2, 123720, Note_on_c, 0, 76, 66
2, 123738, Note_off_c, 0, 74, 64
2, 123840, Note_on_c, 0, 74, 75
2, 123857, Note_off_c, 0, 76, 64
2, 124080, Note_on_c, 0, 72, 58
2, 124110, Note_off_c, 0, 74, 64
2, 124187, Note_off_c, 0, 72, 64
2, 124320, Note_on_c, 0, 72, 69
2, 124971, Note_off_c, 0, 72, 64
2, 125040, Note_on_c, 0, 72, 66
2, 125280, Note_on_c, 0, 71, 59
2, 125289, Note_off_c, 0, 72, 64
2, 125520, Note_on_c, 0, 69, 59
2, 125544, Note_off_c, 0, 71, 64
2, 125667, Note_off_c, 0, 69, 64
2, 125760, Note_on_c, 0, 69, 60
2, 126000, Note_on_c, 0, 74, 52
2, 126005, Note_off_c, 0, 69, 64
2, 126146, Note_off_c, 0, 74, 64
2, 126240, Note_on_c, 0, 74, 68
2, 126960, Note_on_c, 0, 76, 65
2, 126968, Note_off_c, 0, 74, 64
2, 127080, Note_on_c, 0, 74, 66
2, 127102, Note_off_c, 0, 76, 64
2, 127145, Note_off_c, 0, 74, 64
2, 127200, Note_on_c, 0, 74, 66
2, 127320, Note_on_c, 0, 72, 63
2, 127341, Note_off_c, 0, 74, 64
2, 127440, Note_on_c, 0, 71, 62
2, 127454, Note_off_c, 0, 72, 64
2, 127560, Note_on_c, 0, 72, 61
2, 127570, Note_off_c, 0, 71, 64
2, 127602, Note_off_c, 0, 72, 64
2, 127680, Note_on_c, 0, 72, 71
2, 127920, Note_on_c, 0, 71, 51
2, 127923, Note_off_c, 0, 72, 64
2, 128084, Note_off_c, 0, 71, 64
2, 128160, Note_on_c, 0, 71, 57
2, 128753, Note_off_c, 0, 71, 64
2, 128880, Note_on_c, 0, 71, 59
2, 128921, Note_off_c, 0, 71, 64
2, 128935, Note_on_c, 0, 72, 58
2, 128984, Note_off_c, 0, 72, 64
2, 128990, Note_on_c, 0, 74, 75
2, 129106, Note_on_c, 0, 72, 56
2, 129135, Note_off_c, 0, 74, 64
2, 129360, Note_on_c, 0, 71, 67
2, 129365, Note_off_c, 0, 72, 64
2, 129498, Note_off_c, 0, 71, 64
2, 129600, Note_on_c, 0, 71, 65
2, 129840, Note_on_c, 0, 69, 61
2, 129849, Note_off_c, 0, 71, 64
2, 129944, Note_off_c, 0, 69, 64
2, 130080, Note_on_c, 0, 69, 66
2, 130108, Note_off_c, 0, 69, 64
2, 130320, Note_on_c, 0, 69, 69
2, 130347, Note_off_c, 0, 69, 64
2, 130560, Note_on_c, 0, 69, 55
2, 130920, Note_off_c, 0, 69, 64
2, 131040, Note_on_c, 0, 69, 68
2, 131321, Note_off_c, 0, 69, 64
2, 131520, Note_on_c, 0, 73, 61
2, 131566, Note_on_c, 0, 74, 60
2, 131570, Note_off_c, 0, 73, 64
2, 131627, Note_on_c, 0, 76, 72
2, 131644, Note_off_c, 0, 74, 64
2, 131690, Note_on_c, 0, 74, 84
2, 131722, Note_off_c, 0, 76, 64
2, 132720, Note_on_c, 0, 76, 66
2, 132721, Note_off_c, 0, 74, 64
2, 132840, Note_on_c, 0, 74, 66
2, 132863, Note_off_c, 0, 76, 64
2, 132960, Note_on_c, 0, 72, 58
2, 132978, Note_off_c, 0, 74, 64
2, 133200, Note_on_c, 0, 71, 57
2, 133224, Note_off_c, 0, 72, 64
2, 133314, Note_off_c, 0, 71, 64
2, 133440, Note_on_c, 0, 71, 61
2, 133680, Note_on_c, 0, 69, 54
2, 133705, Note_off_c, 0, 71, 64
2, 133920, Note_on_c, 0, 68, 51
2, 133929, Note_off_c, 0, 69, 64
2, 134160, Note_on_c, 0, 69, 61
2, 134200, Note_off_c, 0, 68, 64
2, 134400, Note_on_c, 0, 71, 63
2, 134419, Note_off_c, 0, 69, 64
2, 134640, Note_on_c, 0, 72, 55
2, 134661, Note_off_c, 0, 71, 64
2, 134738, Note_off_c, 0, 72, 64
2, 134880, Note_on_c, 0, 64, 57
2, 135120, Note_on_c, 0, 69, 66
2, 135144, Note_off_c, 0, 64, 64
2, 135220, Note_off_c, 0, 69, 64
2, 135360, Note_on_c, 0, 67, 54
2, 135600, Note_on_c, 0, 66, 46
2, 135618, Note_off_c, 0, 67, 64
2, 135840, Note_on_c, 0, 64, 42
2, 135861, Note_off_c, 0, 66, 64
2, 136080, Note_on_c, 0, 62, 39
2, 136081, Note_off_c, 0, 64, 64
2, 136320, Note_on_c, 0, 64, 46
2, 136331, Note_off_c, 0, 62, 64
2, 136560, Note_on_c, 0, 66, 61
2, 136578, Note_off_c, 0, 64, 64
2, 136799, Note_off_c, 0, 66, 64
2, 136800, Note_on_c, 0, 67, 52
2, 137040, Note_on_c, 0, 69, 44
2, 137066, Note_off_c, 0, 67, 64
2, 137190, Note_off_c, 0, 69, 64
2, 137280, Note_on_c, 0, 71, 39
2, 137640, Note_on_c, 0, 74, 61
2, 137641, Note_off_c, 0, 71, 64
2, 137760, Note_on_c, 0, 72, 47
2, 137777, Note_off_c, 0, 74, 64
2, 138120, Note_on_c, 0, 71, 54
2, 138141, Note_off_c, 0, 72, 64
2, 138240, Note_on_c, 0, 69, 55
2, 138257, Note_off_c, 0, 71, 64
2, 138720, Note_on_c, 0, 71, 49
2, 138741, Note_off_c, 0, 69, 64
2, 139200, Note_on_c, 0, 72, 72
2, 139212, Note_off_c, 0, 71, 64
2, 139680, Note_on_c, 0, 74, 81
2, 139686, Note_off_c, 0, 72, 64
2, 140160, Note_on_c, 0, 72, 55
2, 140205, Note_off_c, 0, 74, 64
2, 140640, Note_on_c, 0, 71, 41
2, 140662, Note_off_c, 0, 72, 64
2, 140942, Note_off_c, 0, 71, 64
2, 141120, Note_on_c, 0, 88, 42
2, 141190, Note_on_c, 0, 86, 39
2, 141201, Note_off_c, 0, 88, 64
2, 141251, Note_on_c, 0, 88, 39
2, 141253, Note_off_c, 0, 86, 64
2, 141304, Note_on_c, 0, 86, 39
2, 141316, Note_off_c, 0, 88, 64
2, 141360, Note_on_c, 0, 88, 39
2, 141366, Note_off_c, 0, 86, 64
2, 141408, Note_on_c, 0, 86, 39
2, 141415, Note_off_c, 0, 88, 64
2, 141438, Note_on_c, 0, 88, 39
2, 141442, Note_off_c, 0, 86, 64
2, 141477, Note_off_c, 0, 88, 64
2, 141478, Note_on_c, 0, 86, 39
2, 141522, Note_off_c, 0, 86, 64
2, 141523, Note_on_c, 0, 88, 39
2, 141559, Note_on_c, 0, 86, 40
2, 141561, Note_off_c, 0, 88, 64
2, 141600, Note_on_c, 0, 88, 40
2, 141603, Note_off_c, 0, 86, 64
2, 141636, Note_off_c, 0, 88, 64
2, 141640, Note_on_c, 0, 86, 40
2, 141676, Note_on_c, 0, 88, 40
2, 141678, Note_off_c, 0, 86, 64
2, 141717, Note_on_c, 0, 86, 40
2, 141722, Note_off_c, 0, 88, 64
2, 141761, Note_on_c, 0, 88, 40
2, 141764, Note_off_c, 0, 86, 64
2, 141802, Note_off_c, 0, 88, 64
2, 141802, Note_on_c, 0, 86, 40
2, 141843, Note_on_c, 0, 88, 40
2, 141846, Note_off_c, 0, 86, 64
2, 141883, Note_on_c, 0, 86, 40
2, 141888, Note_off_c, 0, 88, 64
2, 141919, Note_on_c, 0, 88, 42
2, 141922, Note_off_c, 0, 86, 64
2, 141957, Note_on_c, 0, 86, 42
2, 141961, Note_off_c, 0, 88, 64
2, 141997, Note_on_c, 0, 88, 42
2, 142001, Note_off_c, 0, 86, 64
2, 142036, Note_on_c, 0, 86, 42
2, 142037, Note_off_c, 0, 88, 64
2, 142077, Note_on_c, 0, 88, 42
2, 142083, Note_off_c, 0, 86, 64
2, 142122, Note_on_c, 0, 86, 42
2, 142125, Note_off_c, 0, 88, 64
2, 142157, Note_on_c, 0, 88, 42
2, 142164, Note_off_c, 0, 86, 64
2, 142198, Note_on_c, 0, 86, 42
2, 142202, Note_off_c, 0, 88, 64
2, 142232, Note_on_c, 0, 88, 42
2, 142237, Note_off_c, 0, 86, 64
2, 142274, Note_on_c, 0, 86, 44
2, 142280, Note_off_c, 0, 88, 64
2, 142317, Note_on_c, 0, 88, 44
2, 142322, Note_off_c, 0, 86, 64
2, 142359, Note_on_c, 0, 86, 44
2, 142363, Note_off_c, 0, 88, 64
2, 142404, Note_on_c, 0, 88, 44
2, 142405, Note_off_c, 0, 86, 64
2, 142438, Note_on_c, 0, 86, 44
2, 142442, Note_off_c, 0, 88, 64
2, 142477, Note_on_c, 0, 88, 44
2, 142479, Note_off_c, 0, 86, 64
2, 142513, Note_on_c, 0, 86, 44
2, 142515, Note_off_c, 0, 88, 64
2, 142548, Note_on_c, 0, 88, 44
2, 142551, Note_off_c, 0, 86, 64
2, 142591, Note_on_c, 0, 86, 44
2, 142596, Note_off_c, 0, 88, 64
2, 142629, Note_on_c, 0, 88, 44
2, 142634, Note_off_c, 0, 86, 64
2, 142663, Note_on_c, 0, 86, 46
2, 142667, Note_off_c, 0, 88, 64
2, 142705, Note_on_c, 0, 88, 46
2, 142706, Note_off_c, 0, 86, 64
2, 142745, Note_off_c, 0, 88, 64
2, 142746, Note_on_c, 0, 86, 46
2, 142794, Note_on_c, 0, 88, 46
2, 142798, Note_off_c, 0, 86, 64
2, 142835, Note_on_c, 0, 86, 46
2, 142836, Note_off_c, 0, 88, 64
2, 142872, Note_on_c, 0, 88, 46
2, 142874, Note_off_c, 0, 86, 64
2, 142911, Note_off_c, 0, 88, 64
2, 142914, Note_on_c, 0, 86, 46
2, 142948, Note_on_c, 0, 88, 46
2, 142949, Note_off_c, 0, 86, 64
2, 142984, Note_on_c, 0, 86, 46
2, 142990, Note_off_c, 0, 88, 64
2, 143021, Note_on_c, 0, 88, 48
2, 143024, Note_off_c, 0, 86, 64
2, 143052, Note_on_c, 0, 86, 48
2, 143060, Note_off_c, 0, 88, 64
2, 143084, Note_on_c, 0, 88, 48
2, 143091, Note_off_c, 0, 86, 64
2, 143127, Note_on_c, 0, 86, 48
2, 143133, Note_off_c, 0, 88, 64
2, 143169, Note_off_c, 0, 86, 64
2, 143170, Note_on_c, 0, 88, 48
2, 143200, Note_on_c, 0, 86, 48
2, 143202, Note_off_c, 0, 88, 64
2, 143234, Note_off_c, 0, 86, 64
2, 143235, Note_on_c, 0, 88, 48
2, 143268, Note_off_c, 0, 88, 64
2, 143268, Note_on_c, 0, 86, 48
2, 143301, Note_off_c, 0, 86, 64
2, 143302, Note_on_c, 0, 88, 48
2, 143336, Note_off_c, 0, 88, 64
2, 143337, Note_on_c, 0, 86, 48
2, 143369, Note_on_c, 0, 88, 48
2, 143370, Note_off_c, 0, 86, 64
2, 143406, Note_on_c, 0, 86, 49
2, 143408, Note_off_c, 0, 88, 64
2, 143444, Note_on_c, 0, 88, 49
2, 143446, Note_off_c, 0, 86, 64
2, 143479, Note_on_c, 0, 86, 49
2, 143481, Note_off_c, 0, 88, 64
2, 143515, Note_off_c, 0, 86, 64
2, 143515, Note_on_c, 0, 88, 49
2, 143547, Note_on_c, 0, 86, 49
2, 143549, Note_off_c, 0, 88, 64
2, 143580, Note_on_c, 0, 88, 49
2, 143582, Note_off_c, 0, 86, 64
2, 143613, Note_on_c, 0, 86, 49
2, 143615, Note_off_c, 0, 88, 64
2, 143646, Note_on_c, 0, 88, 49
2, 143647, Note_off_c, 0, 86, 64
2, 143678, Note_on_c, 0, 86, 49
2, 143680, Note_off_c, 0, 88, 64
2, 143714, Note_off_c, 0, 86, 64
2, 143715, Note_on_c, 0, 88, 49
2, 143751, Note_on_c, 0, 86, 51
2, 143753, Note_off_c, 0, 88, 64
2, 143787, Note_on_c, 0, 88, 51
2, 143788, Note_off_c, 0, 86, 64
2, 143818, Note_on_c, 0, 86, 51
2, 143821, Note_off_c, 0, 88, 64
2, 143853, Note_on_c, 0, 88, 51
2, 143854, Note_off_c, 0, 86, 64
2, 143889, Note_on_c, 0, 86, 51
2, 143891, Note_off_c, 0, 88, 64
2, 143927, Note_on_c, 0, 88, 51
2, 143929, Note_off_c, 0, 86, 64
2, 143964, Note_on_c, 0, 86, 51
2, 143966, Note_off_c, 0, 88, 64
2, 143999, Note_off_c, 0, 86, 64
2, 143999, Note_on_c, 0, 88, 51
2, 144034, Note_on_c, 0, 86, 51
2, 144035, Note_off_c, 0, 88, 64
2, 144069, Note_on_c, 0, 88, 51
2, 144070, Note_off_c, 0, 86, 64
2, 144106, Note_off_c, 0, 88, 64
2, 144106, Note_on_c, 0, 86, 51
2, 144145, Note_on_c, 0, 88, 53
2, 144147, Note_off_c, 0, 86, 64
2, 144182, Note_off_c, 0, 88, 64
2, 144183, Note_on_c, 0, 86, 53
2, 144221, Note_on_c, 0, 88, 53
2, 144223, Note_off_c, 0, 86, 64
2, 144255, Note_on_c, 0, 86, 53
2, 144258, Note_off_c, 0, 88, 64
2, 144286, Note_on_c, 0, 88, 53
2, 144288, Note_off_c, 0, 86, 64
2, 144321, Note_on_c, 0, 86, 53
2, 144323, Note_off_c, 0, 88, 64
2, 144356, Note_on_c, 0, 88, 53
2, 144360, Note_off_c, 0, 86, 64
2, 144391, Note_off_c, 0, 88, 64
2, 144391, Note_on_c, 0, 86, 53
2, 144426, Note_on_c, 0, 88, 53
2, 144429, Note_off_c, 0, 86, 64
2, 144461, Note_on_c, 0, 86, 53
2, 144462, Note_off_c, 0, 88, 64
2, 144496, Note_on_c, 0, 88, 55
2, 144498, Note_off_c, 0, 86, 64
2, 144537, Note_off_c, 0, 88, 64
2, 144537, Note_on_c, 0, 86, 55
2, 144573, Note_on_c, 0, 88, 55
2, 144575, Note_off_c, 0, 86, 64
2, 144603, Note_on_c, 0, 86, 55
2, 144605, Note_off_c, 0, 88, 64
2, 144639, Note_on_c, 0, 88, 55
2, 144644, Note_off_c, 0, 86, 64
2, 144678, Note_off_c, 0, 88, 64
2, 144683, Note_on_c, 0, 86, 55
2, 144727, Note_on_c, 0, 88, 55
2, 144737, Note_off_c, 0, 86, 64
2, 144776, Note_off_c, 0, 88, 64
2, 144776, Note_on_c, 0, 86, 55
2, 144831, Note_off_c, 0, 86, 64
2, 144834, Note_on_c, 0, 85, 55
2, 144875, Note_off_c, 0, 85, 64
2, 144889, Note_on_c, 0, 86, 75
2, 144918, Note_off_c, 0, 86, 64
2, 144960, Note_on_c, 0, 79, 92
2, 144960, Note_on_c, 0, 67, 84
2, 145440, Note_off_c, 0, 67, 64
2, 145440, Note_off_c, 0, 79, 64
2, 145440, Note_on_c, 0, 78, 92
2, 145440, Note_on_c, 0, 66, 84
2, 145920, Note_off_c, 0, 66, 64
2, 145920, Note_off_c, 0, 78, 64
2, 145920, Note_on_c, 0, 64, 51
2, 145920, Note_on_c, 0, 76, 56
2, 146330, Note_off_c, 0, 76, 64
2, 146330, Note_off_c, 0, 64, 64
2, 146640, Note_on_c, 0, 71, 49
2, 146720, Note_off_c, 0, 71, 64
2, 146880, Note_on_c, 0, 64, 44
2, 146880, Note_on_c, 0, 76, 44
2, 147360, Note_off_c, 0, 76, 64
2, 147360, Note_off_c, 0, 64, 64
2, 147360, Note_on_c, 0, 62, 44
2, 147360, Note_on_c, 0, 74, 44
2, 147840, Note_off_c, 0, 74, 64
2, 147840, Note_off_c, 0, 62, 64
2, 147840, Note_on_c, 0, 60, 27
2, 147840, Note_on_c, 0, 72, 27
2, 148250, Note_off_c, 0, 72, 64
2, 148250, Note_off_c, 0, 60, 64
2, 148560, Note_on_c, 0, 67, 83
2, 148640, Note_off_c, 0, 67, 64
2, 148800, Note_on_c, 0, 72, 93
2, 148800, Note_on_c, 0, 60, 93
2, 149280, Note_off_c, 0, 60, 64
2, 149280, Note_off_c, 0, 72, 64
2, 149280, Note_on_c, 0, 71, 90
2, 149280, Note_on_c, 0, 59, 90
2, 149760, Note_off_c, 0, 59, 64
2, 149760, Note_off_c, 0, 71, 64
2, 149760, Note_on_c, 0, 69, 88
2, 150000, Note_on_c, 0, 76, 95
2, 150002, Note_off_c, 0, 69, 64
2, 150240, Note_on_c, 0, 74, 90
2, 150248, Note_off_c, 0, 76, 64
2, 150360, Note_on_c, 0, 72, 86
2, 150375, Note_off_c, 0, 74, 64
2, 150480, Note_on_c, 0, 71, 72
2, 150513, Note_off_c, 0, 72, 64
2, 150600, Note_on_c, 0, 69, 57
2, 150618, Note_off_c, 0, 71, 64
2, 150720, Note_on_c, 0, 67, 48
2, 150738, Note_off_c, 0, 69, 64
2, 151200, Note_off_c, 0, 67, 64
2, 151200, Note_on_c, 0, 69, 45
2, 151300, Note_off_c, 0, 69, 64
2, 151680, Note_on_c, 0, 70, 53
2, 152160, Note_off_c, 0, 70, 64
2, 152160, Note_on_c, 0, 71, 32
2, 152260, Note_off_c, 0, 71, 64
2, 152640, Note_on_c, 0, 79, 95
2, 153120, Note_on_c, 0, 78, 88
2, 153121, Note_off_c, 0, 79, 64
2, 153195, Note_on_c, 0, 79, 82
2, 153206, Note_off_c, 0, 78, 64
2, 153251, Note_on_c, 0, 78, 80
2, 153269, Note_off_c, 0, 79, 64
2, 153305, Note_on_c, 0, 79, 79
2, 153313, Note_off_c, 0, 78, 64
2, 153356, Note_off_c, 0, 79, 64
2, 153358, Note_on_c, 0, 78, 79
2, 153399, Note_off_c, 0, 78, 64
2, 153399, Note_on_c, 0, 79, 79
2, 153429, Note_on_c, 0, 78, 79
2, 153444, Note_off_c, 0, 79, 64
2, 153483, Note_on_c, 0, 76, 80
2, 153490, Note_off_c, 0, 78, 64
2, 153539, Note_on_c, 0, 78, 82
2, 153555, Note_off_c, 0, 76, 64
2, 153600, Note_on_c, 0, 76, 84
2, 153616, Note_off_c, 0, 78, 64
2, 153905, Note_off_c, 0, 76, 64
2, 154320, Note_on_c, 0, 83, 54
2, 154440, Note_off_c, 0, 83, 64
2, 154560, Note_on_c, 0, 88, 55
2, 154966, Note_off_c, 0, 88, 64
2, 155040, Note_on_c, 0, 86, 49
2, 155117, Note_on_c, 0, 88, 51
2, 155119, Note_off_c, 0, 86, 64
2, 155180, Note_on_c, 0, 86, 49
2, 155189, Note_off_c, 0, 88, 64
2, 155236, Note_on_c, 0, 88, 50
2, 155244, Note_off_c, 0, 86, 64
2, 155280, Note_on_c, 0, 86, 47
2, 155282, Note_off_c, 0, 88, 64
2, 155314, Note_off_c, 0, 86, 64
2, 155320, Note_on_c, 0, 88, 47
2, 155358, Note_on_c, 0, 86, 47
2, 155374, Note_off_c, 0, 88, 64
2, 155400, Note_on_c, 0, 84, 45
2, 155409, Note_off_c, 0, 86, 64
2, 155458, Note_off_c, 0, 84, 64
2, 155458, Note_on_c, 0, 86, 39
2, 155518, Note_off_c, 0, 86, 64
2, 155520, Note_on_c, 0, 84, 33
2, 155915, Note_off_c, 0, 84, 64
2, 156240, Note_on_c, 0, 79, 73
2, 156347, Note_off_c, 0, 79, 64
2, 156480, Note_on_c, 0, 84, 88
2, 156960, Note_on_c, 0, 83, 82
2, 157002, Note_off_c, 0, 84, 64
2, 157440, Note_on_c, 0, 81, 80
2, 157456, Note_off_c, 0, 83, 64
2, 157679, Note_off_c, 0, 81, 64
2, 157680, Note_on_c, 0, 88, 91
2, 157918, Note_off_c, 0, 88, 64
2, 157920, Note_on_c, 0, 86, 82
2, 158040, Note_on_c, 0, 84, 77
2, 158052, Note_off_c, 0, 86, 64
2, 158160, Note_on_c, 0, 83, 71
2, 158189, Note_off_c, 0, 84, 64
2, 158280, Note_on_c, 0, 81, 66
2, 158288, Note_off_c, 0, 83, 64
2, 158395, Note_off_c, 0, 81, 64
2, 158400, Note_on_c, 0, 79, 46
2, 158400, Note_on_c, 0, 79, 60
2, 158530, Note_off_c, 0, 79, 64
2, 158530, Note_off_c, 0, 79, 64
2, 158640, Note_on_c, 0, 81, 48
2, 158725, Note_off_c, 0, 81, 64
2, 158880, Note_on_c, 0, 82, 50
2, 158957, Note_off_c, 0, 82, 64
2, 159120, Note_on_c, 0, 83, 56
2, 159201, Note_off_c, 0, 83, 64
2, 159360, Note_on_c, 0, 84, 63
2, 159439, Note_off_c, 0, 84, 64
2, 159600, Note_on_c, 0, 85, 67
2, 159685, Note_off_c, 0, 85, 64
2, 159840, Note_on_c, 0, 86, 71
2, 159927, Note_off_c, 0, 86, 64
2, 160080, Note_on_c, 0, 87, 79
2, 160180, Note_off_c, 0, 87, 64
2, 160320, Note_on_c, 0, 87, 66
2, 160440, Note_on_c, 0, 88, 58
2, 160454, Note_off_c, 0, 87, 64
2, 160560, Note_on_c, 0, 87, 61
2, 160573, Note_off_c, 0, 88, 64
2, 160680, Note_on_c, 0, 88, 66
2, 160692, Note_off_c, 0, 87, 64
2, 160800, Note_on_c, 0, 86, 58
2, 160822, Note_off_c, 0, 88, 64
2, 160920, Note_on_c, 0, 84, 66
2, 160933, Note_off_c, 0, 86, 64
2, 161040, Note_on_c, 0, 83, 59
2, 161050, Note_off_c, 0, 84, 64
2, 161160, Note_on_c, 0, 81, 67
2, 161179, Note_off_c, 0, 83, 64
2, 161206, Note_off_c, 0, 81, 64
2, 161296, Note_on_c, 0, 83, 66
2, 161356, Note_on_c, 0, 81, 64
2, 161363, Note_off_c, 0, 83, 64
2, 161407, Control_c, 0, 64, 127
2, 161408, Control_c, 0, 64, 127
2, 161408, Control_c, 0, 64, 127
2, 161422, Note_off_c, 0, 81, 64
2, 161422, Note_on_c, 0, 83, 62
2, 161468, Note_on_c, 0, 81, 60
2, 161473, Note_off_c, 0, 83, 64
2, 161520, Note_on_c, 0, 83, 60
2, 161523, Note_off_c, 0, 81, 64
2, 161571, Note_on_c, 0, 81, 59
2, 161579, Note_off_c, 0, 83, 64
2, 161616, Note_on_c, 0, 83, 59
2, 161618, Note_off_c, 0, 81, 64
2, 161657, Note_on_c, 0, 81, 57
2, 161662, Note_off_c, 0, 83, 64
2, 161704, Note_off_c, 0, 81, 64
2, 161704, Note_on_c, 0, 83, 57
2, 161747, Note_off_c, 0, 83, 64
2, 161747, Note_on_c, 0, 81, 57
2, 161788, Note_off_c, 0, 81, 64
2, 161790, Note_on_c, 0, 83, 57
2, 161831, Note_on_c, 0, 81, 55
2, 161834, Note_off_c, 0, 83, 64
2, 161869, Note_off_c, 0, 81, 64
2, 161872, Note_on_c, 0, 83, 55
2, 161910, Note_on_c, 0, 81, 57
2, 161913, Note_off_c, 0, 83, 64
2, 161948, Note_on_c, 0, 83, 57
2, 161949, Note_off_c, 0, 81, 64
2, 161984, Note_off_c, 0, 83, 64
2, 161987, Note_on_c, 0, 81, 57
2, 162024, Note_on_c, 0, 83, 57
2, 162027, Note_off_c, 0, 81, 64
2, 162064, Note_on_c, 0, 81, 59
2, 162084, Note_off_c, 0, 83, 64
2, 162116, Note_on_c, 0, 79, 59
2, 162123, Note_off_c, 0, 81, 64
2, 162149, Control_c, 0, 64, 0
2, 162149, Control_c, 0, 64, 0
2, 162149, Control_c, 0, 64, 0
2, 162176, Note_on_c, 0, 81, 60
2, 162188, Note_off_c, 0, 79, 64
2, 162240, Note_on_c, 0, 79, 52
2, 162261, Note_off_c, 0, 81, 64
2, 162313, Note_off_c, 0, 79, 64
2, 162360, Note_on_c, 0, 79, 53
2, 162480, Note_on_c, 0, 78, 61
2, 162482, Note_off_c, 0, 79, 64
2, 162597, Note_off_c, 0, 78, 64
2, 162600, Note_on_c, 0, 79, 63
2, 162720, Note_on_c, 0, 81, 61
2, 162731, Note_off_c, 0, 79, 64
2, 162840, Note_on_c, 0, 79, 59
2, 162863, Note_off_c, 0, 81, 64
2, 162960, Note_on_c, 0, 78, 55
2, 162981, Note_off_c, 0, 79, 64
2, 163080, Note_on_c, 0, 76, 47
2, 163087, Note_off_c, 0, 78, 64
2, 163200, Note_on_c, 0, 74, 34
2, 163203, Note_off_c, 0, 76, 64
2, 163256, Note_off_c, 0, 74, 64
2, 163320, Note_on_c, 0, 76, 63
2, 163440, Note_on_c, 0, 75, 67
2, 163456, Note_off_c, 0, 76, 64
2, 163560, Note_on_c, 0, 76, 63
2, 163570, Note_off_c, 0, 75, 64
2, 163680, Note_on_c, 0, 78, 68
2, 163687, Note_off_c, 0, 76, 64
2, 163800, Note_on_c, 0, 76, 64
2, 163824, Note_off_c, 0, 78, 64
2, 163920, Note_on_c, 0, 74, 58
2, 163934, Note_off_c, 0, 76, 64
2, 164040, Note_on_c, 0, 72, 48
2, 164047, Note_off_c, 0, 74, 64
2, 164160, Note_off_c, 0, 72, 64
2, 164160, Note_on_c, 0, 71, 55
2, 164337, Control_c, 0, 64, 127
2, 164337, Control_c, 0, 64, 127
2, 164338, Control_c, 0, 64, 127
2, 164349, Note_off_c, 0, 71, 64
2, 164391, Control_c, 0, 64, 0
2, 164391, Control_c, 0, 64, 0
2, 164392, Control_c, 0, 64, 0
2, 164400, Note_on_c, 0, 72, 59
2, 164453, Note_on_c, 0, 71, 57
2, 164473, Note_off_c, 0, 72, 64
2, 164516, Note_on_c, 0, 69, 66
2, 164525, Note_off_c, 0, 71, 64
2, 164570, Note_on_c, 0, 71, 68
2, 164576, Note_off_c, 0, 69, 64
2, 164610, Note_on_c, 0, 74, 69
2, 164617, Note_off_c, 0, 71, 64
2, 164640, Note_on_c, 0, 72, 67
2, 164655, Note_off_c, 0, 74, 64
2, 164995, Note_off_c, 0, 72, 64
2, 165000, Note_on_c, 0, 71, 61
2, 165360, Note_on_c, 0, 69, 61
2, 165396, Note_off_c, 0, 71, 64
2, 165720, Note_off_c, 0, 69, 64
2, 165840, Note_on_c, 0, 71, 67
2, 166260, Note_off_c, 0, 71, 64
2, 166320, Note_on_c, 0, 72, 69
2, 166800, Note_on_c, 0, 76, 67
2, 166819, Note_off_c, 0, 72, 64
2, 166887, Note_off_c, 0, 76, 64
2, 166920, Note_on_c, 0, 74, 65
2, 167000, Note_off_c, 0, 74, 64
2, 167040, Note_on_c, 0, 72, 64
2, 167520, Note_on_c, 0, 71, 27
2, 167536, Note_off_c, 0, 72, 64
2, 167780, Note_off_c, 0, 71, 64
2, 168000, Note_on_c, 0, 72, 103
2, 168000, Note_on_c, 0, 67, 91
2, 168153, Note_off_c, 0, 67, 64
2, 168153, Note_off_c, 0, 72, 64
2, 168480, Note_on_c, 0, 67, 92
2, 168480, Note_on_c, 0, 71, 104
2, 168600, Note_off_c, 0, 71, 64
2, 168600, Note_off_c, 0, 67, 64
2, 168960, Note_on_c, 0, 76, 116
2, 168960, Note_on_c, 0, 67, 108
2, 169440, Note_off_c, 0, 67, 64
2, 169440, Note_off_c, 0, 76, 64
2, 169680, Note_on_c, 0, 74, 70
2, 169773, Note_off_c, 0, 74, 64
2, 169920, Note_on_c, 0, 74, 79
2, 170040, Note_on_c, 0, 72, 68
2, 170050, Note_off_c, 0, 74, 64
2, 170160, Note_on_c, 0, 71, 61
2, 170170, Note_off_c, 0, 72, 64
2, 170280, Note_on_c, 0, 69, 53
2, 170290, Note_off_c, 0, 71, 64
2, 170370, Note_off_c, 0, 69, 64
2, 170400, Note_on_c, 0, 72, 73
2, 170520, Note_on_c, 0, 71, 69
2, 170530, Note_off_c, 0, 72, 64
2, 170640, Note_on_c, 0, 69, 60
2, 170650, Note_off_c, 0, 71, 64
2, 170760, Note_on_c, 0, 67, 42
2, 170770, Note_off_c, 0, 69, 64
2, 170835, Note_off_c, 0, 67, 64
2, 170888, Note_on_c, 0, 71, 79
2, 170888, Note_on_c, 0, 67, 75
2, 171136, Control_c, 0, 64, 127
2, 171137, Control_c, 0, 64, 127
2, 171137, Control_c, 0, 64, 127
2, 171376, Note_on_c, 0, 69, 23
2, 171376, Note_on_c, 0, 66, 23
2, 171388, Note_off_c, 0, 67, 64
2, 171388, Note_off_c, 0, 71, 64
2, 171407, Control_c, 0, 64, 0
2, 171408, Control_c, 0, 64, 0
2, 171408, Control_c, 0, 64, 0
2, 171666, Note_off_c, 0, 69, 64
2, 171666, Note_off_c, 0, 66, 64
2, 171840, Note_on_c, 0, 70, 61
2, 172080, Note_on_c, 0, 71, 58
2, 172104, Note_off_c, 0, 70, 64
2, 172280, Note_on_c, 0, 74, 67
2, 172290, Note_off_c, 0, 71, 64
2, 172320, Note_on_c, 0, 72, 62
2, 172361, Note_off_c, 0, 74, 64
2, 172560, Note_on_c, 0, 71, 40
2, 172570, Note_off_c, 0, 72, 64
2, 172694, Note_off_c, 0, 71, 64
2, 172800, Note_on_c, 0, 68, 43
2, 173040, Note_on_c, 0, 69, 29
2, 173050, Note_off_c, 0, 68, 64
2, 173170, Note_off_c, 0, 69, 64
2, 173520, Note_on_c, 0, 72, 75
2, 173640, Note_on_c, 0, 71, 42
2, 173650, Note_off_c, 0, 72, 64
2, 173720, Note_off_c, 0, 71, 64
2, 174000, Note_on_c, 0, 74, 76
2, 174120, Note_on_c, 0, 72, 39
2, 174130, Note_off_c, 0, 74, 64
2, 174210, Note_off_c, 0, 72, 64
2, 174480, Note_on_c, 0, 76, 75
2, 174600, Note_on_c, 0, 74, 41
2, 174610, Note_off_c, 0, 76, 64
2, 174680, Note_off_c, 0, 74, 64
2, 174720, Note_on_c, 0, 72, 77
2, 175077, Note_off_c, 0, 72, 64
2, 175080, Note_on_c, 0, 74, 62
2, 175140, Note_on_c, 0, 72, 40
2, 175153, Note_off_c, 0, 74, 64
2, 175200, Note_on_c, 0, 71, 25
2, 175218, Note_off_c, 0, 72, 64
2, 175450, Note_off_c, 0, 71, 64
2, 175680, Note_on_c, 0, 67, 106
2, 175680, Note_on_c, 0, 72, 110
2, 175800, Note_off_c, 0, 72, 64
2, 175800, Note_off_c, 0, 67, 64
2, 176160, Note_on_c, 0, 71, 108
2, 176160, Note_on_c, 0, 67, 103
2, 176280, Note_off_c, 0, 67, 64
2, 176280, Note_off_c, 0, 71, 64
2, 176640, Note_on_c, 0, 76, 89
2, 176760, Note_off_c, 0, 76, 64
2, 176760, Note_on_c, 0, 78, 87
2, 176810, Note_off_c, 0, 78, 64
2, 176810, Note_on_c, 0, 76, 86
2, 176840, Note_on_c, 0, 75, 87
2, 176845, Note_off_c, 0, 76, 64
2, 176880, Note_on_c, 0, 76, 88
2, 176895, Note_off_c, 0, 75, 64
2, 177000, Note_on_c, 0, 78, 84
2, 177001, Note_off_c, 0, 76, 64
2, 177120, Note_on_c, 0, 79, 80
2, 177145, Note_off_c, 0, 78, 64
2, 177210, Note_off_c, 0, 79, 64
2, 177360, Note_on_c, 0, 72, 60
2, 177480, Note_off_c, 0, 72, 64
2, 177600, Note_on_c, 0, 71, 60
2, 177827, Control_c, 0, 64, 127
2, 177827, Control_c, 0, 64, 127
2, 177827, Control_c, 0, 64, 127
2, 177971, Note_off_c, 0, 71, 64
2, 178080, Note_on_c, 0, 71, 68
2, 178099, Control_c, 0, 64, 0
2, 178099, Control_c, 0, 64, 0
2, 178099, Control_c, 0, 64, 0
2, 178140, Note_on_c, 0, 69, 59
2, 178150, Note_off_c, 0, 71, 64
2, 178153, Control_c, 0, 64, 127
2, 178153, Control_c, 0, 64, 127
2, 178153, Control_c, 0, 64, 127
2, 178190, Note_on_c, 0, 71, 53
2, 178193, Note_off_c, 0, 69, 64
2, 178225, Note_off_c, 0, 71, 64
2, 178226, Note_on_c, 0, 69, 49
2, 178282, Note_on_c, 0, 71, 46
2, 178286, Note_off_c, 0, 69, 64
2, 178322, Note_off_c, 0, 71, 64
2, 178322, Note_on_c, 0, 69, 44
2, 178358, Note_off_c, 0, 69, 64
2, 178358, Note_on_c, 0, 71, 42
2, 178396, Note_on_c, 0, 69, 40
2, 178401, Note_off_c, 0, 71, 64
2, 178449, Note_off_c, 0, 69, 64
2, 178453, Note_on_c, 0, 67, 39
2, 178496, Control_c, 0, 64, 0
2, 178497, Control_c, 0, 64, 0
2, 178497, Control_c, 0, 64, 0
2, 178503, Note_off_c, 0, 67, 64
2, 178503, Note_on_c, 0, 69, 39
2, 178553, Note_off_c, 0, 69, 64
2, 178560, Note_on_c, 0, 67, 37
2, 179290, Note_off_c, 0, 67, 64
2, 179520, Note_on_c, 0, 71, 70
2, 180000, Note_on_c, 0, 69, 57
2, 180005, Note_off_c, 0, 71, 64
2, 180480, Note_on_c, 0, 67, 55
2, 180496, Note_off_c, 0, 69, 64
2, 180720, Note_on_c, 0, 66, 50
2, 180723, Note_off_c, 0, 67, 64
2, 180960, Note_on_c, 0, 64, 56
2, 180980, Note_off_c, 0, 66, 64
2, 181200, Note_on_c, 0, 62, 38
2, 181206, Note_off_c, 0, 64, 64
2, 181440, Note_on_c, 0, 71, 74
2, 181445, Note_off_c, 0, 62, 64
2, 182400, Note_on_c, 0, 67, 54
2, 182891, Control_c, 0, 64, 127
2, 182891, Control_c, 0, 64, 127
2, 182891, Control_c, 0, 64, 127
2, 182957, Note_off_c, 0, 67, 64
2, 183017, Control_c, 0, 64, 0
2, 183017, Control_c, 0, 64, 0
2, 183017, Control_c, 0, 64, 0
2, 183120, Note_on_c, 0, 67, 49
2, 183160, Note_on_c, 0, 69, 51
2, 183171, Note_off_c, 0, 67, 64
2, 183200, Note_on_c, 0, 67, 53
2, 183209, Note_off_c, 0, 69, 64
2, 183240, Note_on_c, 0, 66, 57
2, 183250, Note_off_c, 0, 67, 64
2, 183300, Note_on_c, 0, 67, 62
2, 183305, Note_off_c, 0, 66, 64
2, 183360, Note_off_c, 0, 71, 64
2, 183360, Note_on_c, 0, 71, 71
2, 183369, Note_off_c, 0, 67, 64
2, 183600, Note_on_c, 0, 69, 59
2, 183605, Note_off_c, 0, 71, 64
2, 183725, Note_off_c, 0, 69, 64
2, 183840, Note_on_c, 0, 69, 77
2, 184320, Note_on_c, 0, 67, 66
2, 184340, Note_off_c, 0, 69, 64
2, 184560, Note_on_c, 0, 66, 53
2, 184582, Note_off_c, 0, 67, 64
2, 184800, Note_on_c, 0, 64, 45
2, 184811, Note_off_c, 0, 66, 64
2, 185040, Note_on_c, 0, 62, 36
2, 185060, Note_off_c, 0, 64, 64
2, 185280, Note_on_c, 0, 67, 65
2, 185291, Note_off_c, 0, 62, 64
2, 186043, Note_off_c, 0, 67, 64
2, 186240, Note_on_c, 0, 67, 85
2, 186240, Note_on_c, 0, 79, 85
2, 187200, Note_on_c, 0, 71, 95
2, 187200, Note_on_c, 0, 83, 95
2, 187220, Note_off_c, 0, 79, 64
2, 187220, Note_off_c, 0, 67, 64
2, 187680, Note_on_c, 0, 81, 74
2, 187680, Note_on_c, 0, 69, 74
2, 187704, Note_off_c, 0, 71, 64
2, 187704, Note_off_c, 0, 83, 64
2, 188064, Note_off_c, 0, 81, 64
2, 188064, Note_off_c, 0, 69, 64
2, 188160, Note_on_c, 0, 79, 76
2, 188160, Note_on_c, 0, 67, 76
2, 188400, Note_off_c, 0, 67, 64
2, 188400, Note_off_c, 0, 79, 64
2, 188400, Note_on_c, 0, 78, 77
2, 188400, Note_on_c, 0, 66, 77
2, 188640, Note_on_c, 0, 64, 80
2, 188640, Note_on_c, 0, 76, 80
2, 188661, Note_off_c, 0, 66, 64
2, 188661, Note_off_c, 0, 78, 64
2, 188880, Note_on_c, 0, 74, 85
2, 188880, Note_on_c, 0, 62, 85
2, 188893, Note_off_c, 0, 64, 64
2, 188893, Note_off_c, 0, 76, 64
2, 189120, Note_on_c, 0, 74, 92
2, 189120, Note_on_c, 0, 86, 92
2, 189120, Note_on_c, 0, 86, 99
2, 189120, Note_on_c, 0, 74, 99
2, 189123, Note_off_c, 0, 74, 64
2, 189123, Note_off_c, 0, 62, 64
2, 189943, Control_c, 0, 64, 127
2, 189943, Control_c, 0, 64, 127
2, 189943, Control_c, 0, 64, 127
2, 190052, Control_c, 0, 64, 0
2, 190052, Control_c, 0, 64, 0
2, 190052, Control_c, 0, 64, 0
2, 190080, Note_on_c, 0, 79, 78
2, 190080, Note_on_c, 0, 67, 78
2, 190086, Note_off_c, 0, 74, 64
2, 190086, Note_off_c, 0, 86, 64
2, 190086, Note_off_c, 0, 86, 64
2, 190086, Note_off_c, 0, 74, 64
2, 190347, Note_off_c, 0, 79, 64
2, 190347, Note_off_c, 0, 67, 64
2, 190560, Note_on_c, 0, 79, 90
2, 190560, Note_on_c, 0, 67, 90
2, 191020, Note_off_c, 0, 67, 64
2, 191020, Note_off_c, 0, 79, 64
2, 191040, Note_on_c, 0, 83, 103
2, 191040, Note_on_c, 0, 71, 103
2, 191280, Note_on_c, 0, 81, 91
2, 191280, Note_on_c, 0, 69, 91
2, 191303, Note_off_c, 0, 71, 64
2, 191303, Note_off_c, 0, 83, 64
2, 191345, Note_off_c, 0, 81, 64
2, 191345, Note_off_c, 0, 69, 64
2, 191520, Note_on_c, 0, 69, 87
2, 191520, Note_on_c, 0, 81, 87
2, 191571, Note_off_c, 0, 81, 64
2, 191571, Note_off_c, 0, 69, 64
2, 191760, Note_on_c, 0, 69, 83
2, 191760, Note_on_c, 0, 81, 83
2, 191800, Note_off_c, 0, 81, 64
2, 191800, Note_off_c, 0, 69, 64
2, 192000, Note_on_c, 0, 79, 75
2, 192000, Note_on_c, 0, 67, 75
2, 192240, Note_on_c, 0, 78, 66
2, 192240, Note_on_c, 0, 66, 66
2, 192255, Note_off_c, 0, 67, 64
2, 192255, Note_off_c, 0, 79, 64
2, 192480, Note_on_c, 0, 64, 59
2, 192480, Note_on_c, 0, 76, 59
2, 192495, Note_off_c, 0, 78, 64
2, 192495, Note_off_c, 0, 66, 64
2, 192720, Note_on_c, 0, 74, 43
2, 192720, Note_on_c, 0, 62, 43
2, 192735, Note_off_c, 0, 64, 64
2, 192735, Note_off_c, 0, 76, 64
2, 192950, Note_off_c, 0, 74, 64
2, 192950, Note_off_c, 0, 62, 64
2, 192960, Note_on_c, 0, 79, 51
2, 192960, Note_on_c, 0, 67, 51
2, 193855, Note_off_c, 0, 67, 64
2, 193855, Note_off_c, 0, 79, 64
2, 193920, Note_on_c, 0, 83, 67
2, 194160, Note_on_c, 0, 81, 58
2, 194170, Note_off_c, 0, 83, 64
2, 194240, Note_off_c, 0, 81, 64
2, 194400, Note_on_c, 0, 81, 68
2, 194640, Note_on_c, 0, 78, 54
2, 194650, Note_off_c, 0, 81, 64
2, 194730, Note_off_c, 0, 78, 64
2, 194880, Note_on_c, 0, 79, 78
2, 195120, Note_on_c, 0, 83, 66
2, 195130, Note_off_c, 0, 79, 64
2, 195360, Note_on_c, 0, 86, 49
2, 195370, Note_off_c, 0, 83, 64
2, 195500, Note_off_c, 0, 86, 64
2, 195840, Note_on_c, 0, 83, 78
2, 196080, Note_on_c, 0, 81, 57
2, 196092, Note_off_c, 0, 83, 64
2, 196130, Note_off_c, 0, 81, 64
2, 196320, Note_on_c, 0, 81, 73
2, 196560, Note_on_c, 0, 78, 52
2, 196570, Note_off_c, 0, 81, 64
2, 196620, Note_off_c, 0, 78, 64
2, 196800, Note_on_c, 0, 67, 83
2, 196800, Note_on_c, 0, 79, 83
2, 197040, Note_on_c, 0, 71, 61
2, 197040, Note_on_c, 0, 83, 61
2, 197050, Note_off_c, 0, 79, 64
2, 197050, Note_off_c, 0, 67, 64
2, 197235, Note_off_c, 0, 71, 64
2, 197235, Note_off_c, 0, 83, 64
2, 197280, Note_on_c, 0, 74, 51
2, 197280, Note_on_c, 0, 86, 51
2, 197341, Note_off_c, 0, 86, 64
2, 197341, Note_off_c, 0, 74, 64
2, 197520, Note_on_c, 0, 74, 41
2, 197520, Note_on_c, 0, 86, 41
2, 197576, Note_off_c, 0, 86, 64
2, 197576, Note_off_c, 0, 74, 64
2, 197774, Note_on_c, 0, 67, 53
2, 197774, Note_on_c, 0, 79, 53
2, 198009, Note_on_c, 0, 71, 40
2, 198009, Note_on_c, 0, 83, 40
2, 198041, Note_off_c, 0, 79, 64
2, 198041, Note_off_c, 0, 67, 64
2, 198229, Note_off_c, 0, 71, 64
2, 198229, Note_off_c, 0, 83, 64
2, 198240, Note_on_c, 0, 86, 35
2, 198240, Note_on_c, 0, 74, 35
2, 198292, Note_off_c, 0, 74, 64
2, 198292, Note_off_c, 0, 86, 64
2, 198480, Note_on_c, 0, 86, 28
2, 198480, Note_on_c, 0, 74, 28
2, 198520, Note_off_c, 0, 74, 64
2, 198520, Note_off_c, 0, 86, 64
2, 198720, Note_on_c, 0, 86, 33
2, 198720, Note_on_c, 0, 74, 33
2, 199680, Note_on_c, 0, 79, 15
2, 199680, Note_on_c, 0, 67, 15
2, 199702, Note_off_c, 0, 74, 64
2, 199702, Note_off_c, 0, 86, 64
2, 200545, Note_off_c, 0, 79, 64
2, 200545, Note_off_c, 0, 67, 64
2, 200545, End_track
3, 0, Start_track
3, 0, Title_t, "New MIDI Track"
3, 0, MIDI_port, 0
3, 0, Channel_prefix, 1
3, 0, Control_c, 1, 7, 127
3, 0, Control_c, 1, 10, 64
3, 0, Program_c, 1, 0
3, 960, Note_on_c, 1, 55, 35
3, 960, Note_on_c, 1, 62, 35
3, 1920, Note_off_c, 1, 55, 64
3, 1920, Note_on_c, 1, 54, 30
3, 2400, Note_on_c, 1, 55, 34
3, 2406, Note_off_c, 1, 54, 64
3, 2652, Control_c, 1, 64, 127
3, 2652, Control_c, 1, 64, 127
3, 2652, Control_c, 1, 64, 127
3, 2720, Note_off_c, 1, 62, 64
3, 2758, Note_off_c, 1, 55, 64
3, 2880, Note_on_c, 1, 62, 40
3, 2880, Note_on_c, 1, 57, 40
3, 2905, Control_c, 1, 64, 0
3, 2905, Control_c, 1, 64, 0
3, 2905, Control_c, 1, 64, 0
3, 3360, Note_on_c, 1, 54, 30
3, 3373, Note_off_c, 1, 57, 64
3, 3840, Note_on_c, 1, 55, 24
3, 3859, Note_off_c, 1, 54, 64
3, 4586, Note_off_c, 1, 55, 64
3, 4587, Note_off_c, 1, 62, 64
3, 4800, Note_on_c, 1, 52, 61
3, 4800, Note_on_c, 1, 64, 61
3, 4943, Note_off_c, 1, 64, 64
3, 4943, Note_off_c, 1, 52, 64
3, 5280, Note_on_c, 1, 62, 57
3, 5280, Note_on_c, 1, 50, 57
3, 5409, Note_off_c, 1, 50, 64
3, 5409, Note_off_c, 1, 62, 64
3, 5760, Note_on_c, 1, 60, 62
3, 5760, Note_on_c, 1, 48, 62
3, 6201, Note_off_c, 1, 48, 64
3, 6201, Note_off_c, 1, 60, 64
3, 6480, Note_on_c, 1, 59, 53
3, 6570, Note_off_c, 1, 59, 64
3, 6720, Note_on_c, 1, 62, 43
3, 6720, Note_on_c, 1, 54, 43
3, 7185, Note_off_c, 1, 54, 64
3, 7200, Note_on_c, 1, 55, 31
3, 7496, Note_off_c, 1, 62, 64
3, 7502, Note_off_c, 1, 55, 64
3, 7505, Control_c, 1, 64, 127
3, 7506, Control_c, 1, 64, 127
3, 7506, Control_c, 1, 64, 127
3, 7530, Control_c, 1, 64, 0
3, 7531, Control_c, 1, 64, 0
3, 7531, Control_c, 1, 64, 0
3, 7555, Control_c, 1, 64, 127
3, 7556, Control_c, 1, 64, 127
3, 7556, Control_c, 1, 64, 127
3, 7680, Note_on_c, 1, 62, 28
3, 7680, Note_on_c, 1, 50, 28
3, 7708, Control_c, 1, 64, 0
3, 7709, Control_c, 1, 64, 0
3, 7709, Control_c, 1, 64, 0
3, 8394, Control_c, 1, 64, 127
3, 8396, Control_c, 1, 64, 127
3, 8396, Control_c, 1, 64, 127
3, 8427, Note_off_c, 1, 50, 64
3, 8443, Note_off_c, 1, 62, 64
3, 8521, Control_c, 1, 64, 0
3, 8522, Control_c, 1, 64, 0
3, 8522, Control_c, 1, 64, 0
3, 8640, Note_on_c, 1, 55, 35
3, 8640, Note_on_c, 1, 62, 35
3, 9579, Note_off_c, 1, 55, 64
3, 9600, Note_on_c, 1, 54, 30
3, 10080, Note_on_c, 1, 55, 34
3, 10086, Note_off_c, 1, 54, 64
3, 10300, Control_c, 1, 64, 127
3, 10301, Control_c, 1, 64, 127
3, 10301, Control_c, 1, 64, 127
3, 10400, Note_off_c, 1, 62, 64
3, 10400, Note_off_c, 1, 55, 64
3, 10560, Note_on_c, 1, 62, 43
3, 10560, Note_on_c, 1, 57, 43
3, 10605, Control_c, 1, 64, 0
3, 10606, Control_c, 1, 64, 0
3, 10606, Control_c, 1, 64, 0
3, 11040, Note_on_c, 1, 54, 33
3, 11045, Note_off_c, 1, 57, 64
3, 11444, Control_c, 1, 64, 127
3, 11444, Control_c, 1, 64, 127
3, 11445, Control_c, 1, 64, 127
3, 11510, Note_off_c, 1, 54, 64
3, 11520, Control_c, 1, 64, 0
3, 11520, Note_on_c, 1, 55, 30
3, 11521, Control_c, 1, 64, 0
3, 11521, Control_c, 1, 64, 0
3, 12149, Note_off_c, 1, 62, 64
3, 12176, Note_off_c, 1, 55, 64
3, 12480, Note_on_c, 1, 52, 66
3, 12480, Note_on_c, 1, 64, 66
3, 12606, Note_off_c, 1, 64, 64
3, 12606, Note_off_c, 1, 52, 64
3, 12960, Note_on_c, 1, 50, 58
3, 12960, Note_on_c, 1, 62, 58
3, 13095, Note_off_c, 1, 62, 64
3, 13095, Note_off_c, 1, 50, 64
3, 13440, Note_on_c, 1, 48, 70
3, 13440, Note_on_c, 1, 60, 70
3, 13920, Control_c, 1, 64, 127
3, 13920, Control_c, 1, 64, 127
3, 13920, Control_c, 1, 64, 127
3, 13956, Note_off_c, 1, 60, 64
3, 13956, Note_off_c, 1, 48, 64
3, 14040, Control_c, 1, 64, 0
3, 14040, Control_c, 1, 64, 0
3, 14040, Control_c, 1, 64, 0
3, 14160, Note_on_c, 1, 55, 35
3, 14160, Note_on_c, 1, 52, 35
3, 14235, Note_off_c, 1, 52, 64
3, 14235, Note_off_c, 1, 55, 64
3, 14400, Note_on_c, 1, 55, 28
3, 14400, Note_on_c, 1, 50, 28
3, 14880, Note_on_c, 1, 54, 20
3, 14908, Note_off_c, 1, 55, 64
3, 15120, Control_c, 1, 64, 127
3, 15120, Control_c, 1, 64, 127
3, 15120, Control_c, 1, 64, 127
3, 15158, Note_off_c, 1, 50, 64
3, 15182, Note_off_c, 1, 54, 64
3, 15360, Note_on_c, 1, 55, 24
3, 15360, Control_c, 1, 64, 0
3, 15360, Control_c, 1, 64, 0
3, 15360, Control_c, 1, 64, 0
3, 15600, Note_on_c, 1, 59, 31
3, 15840, Note_on_c, 1, 62, 40
3, 15937, Note_off_c, 1, 59, 64
3, 15960, Control_c, 1, 64, 127
3, 15960, Control_c, 1, 64, 127
3, 15960, Control_c, 1, 64, 127
3, 16080, Note_on_c, 1, 59, 40
3, 16096, Note_off_c, 1, 62, 64
3, 16099, Note_off_c, 1, 55, 64
3, 16163, Note_off_c, 1, 59, 64
3, 16320, Control_c, 1, 64, 0
3, 16320, Control_c, 1, 64, 0
3, 16320, Control_c, 1, 64, 0
3, 16320, Note_on_c, 1, 48, 39
3, 16560, Note_on_c, 1, 52, 37
3, 16800, Control_c, 1, 64, 127
3, 16800, Control_c, 1, 64, 127
3, 16800, Control_c, 1, 64, 127
3, 16800, Note_on_c, 1, 57, 37
3, 16852, Note_off_c, 1, 52, 64
3, 17040, Note_on_c, 1, 52, 39
3, 17055, Note_off_c, 1, 48, 64
3, 17056, Note_off_c, 1, 57, 64
3, 17116, Note_off_c, 1, 52, 64
3, 17280, Control_c, 1, 64, 0
3, 17280, Control_c, 1, 64, 0
3, 17280, Control_c, 1, 64, 0
3, 17280, Note_on_c, 1, 50, 37
3, 17520, Note_on_c, 1, 60, 40
3, 17757, Note_off_c, 1, 60, 64
3, 17760, Note_on_c, 1, 57, 39
3, 17880, Control_c, 1, 64, 127
3, 17880, Control_c, 1, 64, 127
3, 17880, Control_c, 1, 64, 127
3, 17997, Note_off_c, 1, 50, 64
3, 18000, Note_on_c, 1, 60, 28
3, 18001, Note_off_c, 1, 57, 64
3, 18099, Note_off_c, 1, 60, 64
3, 18240, Control_c, 1, 64, 0
3, 18240, Control_c, 1, 64, 0
3, 18240, Control_c, 1, 64, 0
3, 18240, Note_on_c, 1, 55, 24
3, 18480, Note_on_c, 1, 59, 31
3, 18720, Note_on_c, 1, 62, 35
3, 18828, Note_off_c, 1, 59, 64
3, 18840, Control_c, 1, 64, 127
3, 18890, Control_c, 1, 64, 127
3, 18891, Control_c, 1, 64, 127
3, 18951, Note_off_c, 1, 55, 64
3, 18960, Note_on_c, 1, 59, 31
3, 18967, Note_off_c, 1, 62, 64
3, 19028, Note_off_c, 1, 59, 64
3, 19200, Note_on_c, 1, 52, 31
3, 19220, Control_c, 1, 64, 0
3, 19221, Control_c, 1, 64, 0
3, 19221, Control_c, 1, 64, 0
3, 19440, Note_on_c, 1, 55, 35
3, 19681, Note_on_c, 1, 59, 37
3, 19778, Note_off_c, 1, 55, 64
3, 19779, Control_c, 1, 64, 127
3, 19780, Control_c, 1, 64, 127
3, 19780, Control_c, 1, 64, 127
3, 19912, Note_off_c, 1, 59, 64
3, 19920, Note_on_c, 1, 55, 33
3, 19945, Note_off_c, 1, 52, 64
3, 19986, Note_off_c, 1, 55, 64
3, 20160, Control_c, 1, 64, 0
3, 20160, Control_c, 1, 64, 0
3, 20160, Control_c, 1, 64, 0
3, 20160, Note_on_c, 1, 48, 26
3, 20400, Note_on_c, 1, 52, 31
3, 20640, Control_c, 1, 64, 127
3, 20640, Control_c, 1, 64, 127
3, 20640, Control_c, 1, 64, 127
3, 20640, Note_on_c, 1, 57, 35
3, 20692, Note_off_c, 1, 52, 64
3, 20852, Note_off_c, 1, 48, 64
3, 20866, Note_off_c, 1, 57, 64
3, 20880, Note_on_c, 1, 52, 33
3, 20924, Note_off_c, 1, 52, 64
3, 21120, Note_on_c, 1, 50, 30
3, 21120, Control_c, 1, 64, 0
3, 21120, Control_c, 1, 64, 0
3, 21120, Control_c, 1, 64, 0
3, 21360, Note_on_c, 1, 60, 31
3, 21600, Note_on_c, 1, 57, 31
3, 21626, Note_off_c, 1, 60, 64
3, 21717, Note_off_c, 1, 50, 64
3, 21720, Control_c, 1, 64, 127
3, 21720, Control_c, 1, 64, 127
3, 21720, Control_c, 1, 64, 127
3, 21808, Note_off_c, 1, 57, 64
3, 21840, Note_on_c, 1, 60, 30
3, 21928, Note_off_c, 1, 60, 64
3, 22061, Control_c, 1, 64, 0
3, 22080, Note_on_c, 1, 55, 35
3, 22080, Note_on_c, 1, 62, 35
3, 23040, Note_off_c, 1, 55, 64
3, 23040, Note_on_c, 1, 54, 30
3, 23520, Note_on_c, 1, 55, 34
3, 23526, Note_off_c, 1, 54, 64
3, 23772, Control_c, 1, 64, 127
3, 23772, Control_c, 1, 64, 127
3, 23772, Control_c, 1, 64, 127
3, 23840, Note_off_c, 1, 62, 64
3, 23878, Note_off_c, 1, 55, 64
3, 24000, Note_on_c, 1, 62, 40
3, 24000, Note_on_c, 1, 57, 40
3, 24025, Control_c, 1, 64, 0
3, 24025, Control_c, 1, 64, 0
3, 24025, Control_c, 1, 64, 0
3, 24480, Note_on_c, 1, 54, 30
3, 24493, Note_off_c, 1, 57, 64
3, 24960, Note_on_c, 1, 55, 24
3, 24979, Note_off_c, 1, 54, 64
3, 25706, Note_off_c, 1, 55, 64
3, 25707, Note_off_c, 1, 62, 64
3, 25920, Note_on_c, 1, 52, 63
3, 25920, Note_on_c, 1, 64, 63
3, 26063, Note_off_c, 1, 64, 64
3, 26063, Note_off_c, 1, 52, 64
3, 26400, Note_on_c, 1, 62, 57
3, 26400, Note_on_c, 1, 50, 57
3, 26529, Note_off_c, 1, 50, 64
3, 26529, Note_off_c, 1, 62, 64
3, 26880, Note_on_c, 1, 60, 70
3, 26880, Note_on_c, 1, 48, 70
3, 27321, Note_off_c, 1, 48, 64
3, 27321, Note_off_c, 1, 60, 64
3, 27600, Note_on_c, 1, 59, 53
3, 27690, Note_off_c, 1, 59, 64
3, 27840, Note_on_c, 1, 62, 43
3, 27840, Note_on_c, 1, 54, 43
3, 28305, Note_off_c, 1, 54, 64
3, 28320, Note_on_c, 1, 55, 31
3, 28616, Note_off_c, 1, 62, 64
3, 28622, Note_off_c, 1, 55, 64
3, 28625, Control_c, 1, 64, 127
3, 28626, Control_c, 1, 64, 127
3, 28626, Control_c, 1, 64, 127
3, 28650, Control_c, 1, 64, 0
3, 28651, Control_c, 1, 64, 0
3, 28651, Control_c, 1, 64, 0
3, 28675, Control_c, 1, 64, 127
3, 28676, Control_c, 1, 64, 127
3, 28676, Control_c, 1, 64, 127
3, 28800, Note_on_c, 1, 62, 28
3, 28800, Note_on_c, 1, 50, 28
3, 28828, Control_c, 1, 64, 0
3, 28829, Control_c, 1, 64, 0
3, 28829, Control_c, 1, 64, 0
3, 29514, Control_c, 1, 64, 127
3, 29516, Control_c, 1, 64, 127
3, 29516, Control_c, 1, 64, 127
3, 29547, Note_off_c, 1, 50, 64
3, 29563, Note_off_c, 1, 62, 64
3, 29641, Control_c, 1, 64, 0
3, 29642, Control_c, 1, 64, 0
3, 29642, Control_c, 1, 64, 0
3, 29760, Note_on_c, 1, 55, 35
3, 29760, Note_on_c, 1, 62, 35
3, 30699, Note_off_c, 1, 55, 64
3, 30720, Note_on_c, 1, 54, 30
3, 31200, Note_on_c, 1, 55, 34
3, 31206, Note_off_c, 1, 54, 64
3, 31420, Control_c, 1, 64, 127
3, 31421, Control_c, 1, 64, 127
3, 31421, Control_c, 1, 64, 127
3, 31520, Note_off_c, 1, 62, 64
3, 31520, Note_off_c, 1, 55, 64
3, 31680, Note_on_c, 1, 62, 43
3, 31680, Note_on_c, 1, 57, 43
3, 31725, Control_c, 1, 64, 0
3, 31726, Control_c, 1, 64, 0
3, 31726, Control_c, 1, 64, 0
3, 32160, Note_on_c, 1, 54, 33
3, 32165, Note_off_c, 1, 57, 64
3, 32564, Control_c, 1, 64, 127
3, 32564, Control_c, 1, 64, 127
3, 32565, Control_c, 1, 64, 127
3, 32630, Note_off_c, 1, 54, 64
3, 32640, Control_c, 1, 64, 0
3, 32640, Note_on_c, 1, 55, 30
3, 32641, Control_c, 1, 64, 0
3, 32641, Control_c, 1, 64, 0
3, 33269, Note_off_c, 1, 62, 64
3, 33296, Note_off_c, 1, 55, 64
3, 33600, Note_on_c, 1, 52, 66
3, 33600, Note_on_c, 1, 64, 66
3, 33726, Note_off_c, 1, 64, 64
3, 33726, Note_off_c, 1, 52, 64
3, 34080, Note_on_c, 1, 62, 62
3, 34080, Note_on_c, 1, 50, 62
3, 34215, Note_off_c, 1, 50, 64
3, 34215, Note_off_c, 1, 62, 64
3, 34560, Note_on_c, 1, 48, 72
3, 34560, Note_on_c, 1, 60, 72
3, 35040, Control_c, 1, 64, 127
3, 35040, Control_c, 1, 64, 127
3, 35040, Control_c, 1, 64, 127
3, 35076, Note_off_c, 1, 60, 64
3, 35076, Note_off_c, 1, 48, 64
3, 35160, Control_c, 1, 64, 0
3, 35160, Control_c, 1, 64, 0
3, 35160, Control_c, 1, 64, 0
3, 35280, Note_on_c, 1, 55, 35
3, 35280, Note_on_c, 1, 52, 35
3, 35355, Note_off_c, 1, 52, 64
3, 35355, Note_off_c, 1, 55, 64
3, 35520, Note_on_c, 1, 55, 28
3, 35520, Note_on_c, 1, 50, 28
3, 36000, Note_on_c, 1, 54, 20
3, 36028, Note_off_c, 1, 55, 64
3, 36240, Control_c, 1, 64, 127
3, 36240, Control_c, 1, 64, 127
3, 36240, Control_c, 1, 64, 127
3, 36278, Note_off_c, 1, 50, 64
3, 36302, Note_off_c, 1, 54, 64
3, 36480, Note_on_c, 1, 55, 24
3, 36480, Control_c, 1, 64, 0
3, 36480, Control_c, 1, 64, 0
3, 36480, Control_c, 1, 64, 0
3, 36720, Note_on_c, 1, 59, 31
3, 36960, Note_on_c, 1, 62, 40
3, 37057, Note_off_c, 1, 59, 64
3, 37080, Control_c, 1, 64, 127
3, 37080, Control_c, 1, 64, 127
3, 37080, Control_c, 1, 64, 127
3, 37200, Note_on_c, 1, 59, 40
3, 37216, Note_off_c, 1, 62, 64
3, 37219, Note_off_c, 1, 55, 64
3, 37283, Note_off_c, 1, 59, 64
3, 37440, Control_c, 1, 64, 0
3, 37440, Control_c, 1, 64, 0
3, 37440, Control_c, 1, 64, 0
3, 37440, Note_on_c, 1, 48, 39
3, 37680, Note_on_c, 1, 52, 37
3, 37920, Control_c, 1, 64, 127
3, 37920, Control_c, 1, 64, 127
3, 37920, Control_c, 1, 64, 127
3, 37920, Note_on_c, 1, 57, 37
3, 37972, Note_off_c, 1, 52, 64
3, 38160, Note_on_c, 1, 52, 39
3, 38175, Note_off_c, 1, 48, 64
3, 38176, Note_off_c, 1, 57, 64
3, 38236, Note_off_c, 1, 52, 64
3, 38400, Control_c, 1, 64, 0
3, 38400, Control_c, 1, 64, 0
3, 38400, Control_c, 1, 64, 0
3, 38400, Note_on_c, 1, 50, 37
3, 38640, Note_on_c, 1, 60, 40
3, 38877, Note_off_c, 1, 60, 64
3, 38880, Note_on_c, 1, 57, 39
3, 39000, Control_c, 1, 64, 127
3, 39000, Control_c, 1, 64, 127
3, 39000, Control_c, 1, 64, 127
3, 39117, Note_off_c, 1, 50, 64
3, 39120, Note_on_c, 1, 60, 28
3, 39121, Note_off_c, 1, 57, 64
3, 39219, Note_off_c, 1, 60, 64
3, 39360, Control_c, 1, 64, 0
3, 39360, Control_c, 1, 64, 0
3, 39360, Control_c, 1, 64, 0
3, 39360, Note_on_c, 1, 55, 24
3, 39600, Note_on_c, 1, 59, 31
3, 39840, Note_on_c, 1, 62, 35
3, 39948, Note_off_c, 1, 59, 64
3, 39960, Control_c, 1, 64, 127
3, 40010, Control_c, 1, 64, 127
3, 40011, Control_c, 1, 64, 127
3, 40071, Note_off_c, 1, 55, 64
3, 40080, Note_on_c, 1, 59, 31
3, 40087, Note_off_c, 1, 62, 64
3, 40148, Note_off_c, 1, 59, 64
3, 40320, Note_on_c, 1, 52, 31
3, 40340, Control_c, 1, 64, 0
3, 40341, Control_c, 1, 64, 0
3, 40341, Control_c, 1, 64, 0
3, 40560, Note_on_c, 1, 55, 35
3, 40801, Note_on_c, 1, 59, 37
3, 40898, Note_off_c, 1, 55, 64
3, 40899, Control_c, 1, 64, 127
3, 40900, Control_c, 1, 64, 127
3, 40900, Control_c, 1, 64, 127
3, 41032, Note_off_c, 1, 59, 64
3, 41040, Note_on_c, 1, 55, 33
3, 41065, Note_off_c, 1, 52, 64
3, 41106, Note_off_c, 1, 55, 64
3, 41280, Control_c, 1, 64, 0
3, 41280, Control_c, 1, 64, 0
3, 41280, Control_c, 1, 64, 0
3, 41280, Note_on_c, 1, 48, 26
3, 41520, Note_on_c, 1, 52, 31
3, 41760, Control_c, 1, 64, 127
3, 41760, Control_c, 1, 64, 127
3, 41760, Control_c, 1, 64, 127
3, 41760, Note_on_c, 1, 57, 35
3, 41812, Note_off_c, 1, 52, 64
3, 41972, Note_off_c, 1, 48, 64
3, 41986, Note_off_c, 1, 57, 64
3, 42000, Note_on_c, 1, 52, 33
3, 42044, Note_off_c, 1, 52, 64
3, 42240, Note_on_c, 1, 50, 30
3, 42240, Control_c, 1, 64, 0
3, 42240, Control_c, 1, 64, 0
3, 42240, Control_c, 1, 64, 0
3, 42480, Note_on_c, 1, 60, 31
3, 42720, Note_on_c, 1, 57, 31
3, 42746, Note_off_c, 1, 60, 64
3, 42837, Note_off_c, 1, 50, 64
3, 42840, Control_c, 1, 64, 127
3, 42840, Control_c, 1, 64, 127
3, 42840, Control_c, 1, 64, 127
3, 42928, Note_off_c, 1, 57, 64
3, 42960, Note_on_c, 1, 60, 30
3, 43048, Note_off_c, 1, 60, 64
3, 43200, Control_c, 1, 64, 0
3, 43200, Control_c, 1, 64, 0
3, 43200, Control_c, 1, 64, 0
3, 43200, Note_on_c, 1, 55, 31
3, 43200, Note_on_c, 1, 59, 31
3, 43560, Control_c, 1, 64, 127
3, 43560, Control_c, 1, 64, 127
3, 43560, Control_c, 1, 64, 127
3, 43680, Control_c, 1, 64, 0
3, 43680, Control_c, 1, 64, 0
3, 43680, Control_c, 1, 64, 0
3, 44040, Note_off_c, 1, 59, 64
3, 44040, Note_off_c, 1, 55, 64
3, 44160, Note_on_c, 1, 54, 77
3, 44160, Note_on_c, 1, 57, 77
3, 44160, Note_on_c, 1, 47, 77
3, 44286, Note_off_c, 1, 47, 64
3, 44286, Note_off_c, 1, 57, 64
3, 44286, Note_off_c, 1, 54, 64
3, 44640, Note_on_c, 1, 57, 70
3, 44640, Note_on_c, 1, 54, 70
3, 44640, Note_on_c, 1, 47, 70
3, 44800, Note_off_c, 1, 47, 64
3, 44800, Note_off_c, 1, 54, 64
3, 44800, Note_off_c, 1, 57, 64
3, 44880, Control_c, 1, 64, 127
3, 44880, Control_c, 1, 64, 127
3, 44880, Control_c, 1, 64, 127
3, 45120, Note_on_c, 1, 55, 61
3, 45120, Note_on_c, 1, 52, 61
3, 45120, Control_c, 1, 64, 0
3, 45120, Control_c, 1, 64, 0
3, 45120, Control_c, 1, 64, 0
3, 45600, Note_off_c, 1, 52, 64
3, 45600, Note_off_c, 1, 55, 64
3, 46080, Note_on_c, 1, 55, 40
3, 46080, Note_on_c, 1, 52, 40
3, 46080, Note_on_c, 1, 45, 40
3, 46320, Note_off_c, 1, 45, 64
3, 46320, Note_off_c, 1, 52, 64
3, 46320, Note_off_c, 1, 55, 64
3, 46560, Note_on_c, 1, 55, 34
3, 46560, Note_on_c, 1, 52, 34
3, 46560, Note_on_c, 1, 45, 34
3, 46680, Control_c, 1, 64, 127
3, 46680, Control_c, 1, 64, 127
3, 46680, Control_c, 1, 64, 127
3, 46800, Note_off_c, 1, 45, 64
3, 46800, Note_off_c, 1, 52, 64
3, 46800, Note_off_c, 1, 55, 64
3, 47040, Control_c, 1, 64, 0
3, 47040, Control_c, 1, 64, 0
3, 47040, Control_c, 1, 64, 0
3, 47045, Note_on_c, 1, 54, 16
3, 47045, Note_on_c, 1, 50, 16
3, 47617, Note_off_c, 1, 50, 64
3, 47617, Note_off_c, 1, 54, 64
3, 48000, Note_on_c, 1, 47, 38
3, 48000, Note_on_c, 1, 59, 38
3, 48120, Note_off_c, 1, 59, 64
3, 48120, Note_off_c, 1, 47, 64
3, 48480, Note_on_c, 1, 47, 35
3, 48480, Note_on_c, 1, 59, 40
3, 48600, Note_off_c, 1, 59, 64
3, 48600, Note_off_c, 1, 47, 64
3, 48967, Note_on_c, 1, 59, 19
3, 48967, Note_on_c, 1, 47, 19
3, 49320, Control_c, 1, 64, 127
3, 49320, Control_c, 1, 64, 127
3, 49320, Control_c, 1, 64, 127
3, 49560, Control_c, 1, 64, 0
3, 49560, Control_c, 1, 64, 0
3, 49560, Control_c, 1, 64, 0
3, 49641, Note_off_c, 1, 47, 64
3, 49641, Note_off_c, 1, 59, 64
3, 49925, Note_on_c, 1, 64, 30
3, 49925, Note_on_c, 1, 57, 30
3, 50025, Note_off_c, 1, 57, 64
3, 50025, Note_off_c, 1, 64, 64
3, 50400, Note_on_c, 1, 64, 23
3, 50400, Note_on_c, 1, 57, 23
3, 50500, Note_off_c, 1, 57, 64
3, 50500, Note_off_c, 1, 64, 64
3, 50892, Note_on_c, 1, 57, 14
3, 50892, Note_on_c, 1, 64, 14
3, 51852, Note_off_c, 1, 64, 64
3, 51852, Note_off_c, 1, 57, 64
3, 52800, Note_on_c, 1, 62, 51
3, 53040, Note_on_c, 1, 66, 35
3, 53274, Note_off_c, 1, 66, 64
3, 53280, Note_on_c, 1, 69, 48
3, 53306, Note_off_c, 1, 62, 64
3, 53520, Note_on_c, 1, 66, 37
3, 53607, Note_off_c, 1, 69, 64
3, 53640, Control_c, 1, 64, 127
3, 53640, Control_c, 1, 64, 127
3, 53640, Control_c, 1, 64, 127
3, 53755, Note_off_c, 1, 66, 64
3, 53760, Note_on_c, 1, 62, 46
3, 53760, Control_c, 1, 64, 0
3, 53760, Control_c, 1, 64, 0
3, 53760, Control_c, 1, 64, 0
3, 54000, Note_on_c, 1, 66, 37
3, 54002, Note_off_c, 1, 62, 64
3, 54240, Note_on_c, 1, 69, 51
3, 54264, Note_off_c, 1, 66, 64
3, 54480, Note_on_c, 1, 66, 40
3, 54480, Control_c, 1, 64, 127
3, 54480, Control_c, 1, 64, 127
3, 54480, Control_c, 1, 64, 127
3, 54508, Note_off_c, 1, 69, 64
3, 54575, Note_off_c, 1, 66, 64
3, 54720, Note_on_c, 1, 62, 44
3, 54720, Control_c, 1, 64, 0
3, 54720, Control_c, 1, 64, 0
3, 54720, Control_c, 1, 64, 0
3, 54960, Note_on_c, 1, 64, 33
3, 54979, Note_off_c, 1, 62, 64
3, 55200, Note_on_c, 1, 71, 44
3, 55200, Control_c, 1, 64, 127
3, 55200, Control_c, 1, 64, 127
3, 55200, Control_c, 1, 64, 127
3, 55241, Note_off_c, 1, 64, 64
3, 55440, Note_on_c, 1, 64, 37
3, 55440, Control_c, 1, 64, 0
3, 55440, Control_c, 1, 64, 0
3, 55440, Control_c, 1, 64, 0
3, 55449, Note_off_c, 1, 71, 64
3, 55680, Note_on_c, 1, 62, 42
3, 55683, Note_off_c, 1, 64, 64
3, 55920, Note_on_c, 1, 64, 37
3, 56040, Control_c, 1, 64, 127
3, 56040, Control_c, 1, 64, 127
3, 56040, Control_c, 1, 64, 127
3, 56160, Control_c, 1, 64, 0
3, 56160, Control_c, 1, 64, 0
3, 56160, Control_c, 1, 64, 0
3, 56160, Note_on_c, 1, 71, 44
3, 56174, Note_off_c, 1, 64, 64
3, 56180, Note_off_c, 1, 62, 64
3, 56400, Control_c, 1, 64, 127
3, 56400, Control_c, 1, 64, 127
3, 56400, Control_c, 1, 64, 127
3, 56400, Note_on_c, 1, 64, 35
3, 56402, Note_off_c, 1, 71, 64
3, 56595, Note_off_c, 1, 64, 64
3, 56640, Note_on_c, 1, 61, 35
3, 56640, Control_c, 1, 64, 0
3, 56640, Control_c, 1, 64, 0
3, 56640, Control_c, 1, 64, 0
3, 56880, Note_on_c, 1, 64, 37
3, 57120, Note_on_c, 1, 69, 46
3, 57132, Note_off_c, 1, 64, 64
3, 57360, Control_c, 1, 64, 127
3, 57360, Control_c, 1, 64, 127
3, 57360, Control_c, 1, 64, 127
3, 57360, Note_on_c, 1, 64, 44
3, 57369, Note_off_c, 1, 69, 64
3, 57444, Note_off_c, 1, 64, 64
3, 57448, Note_off_c, 1, 61, 64
3, 57600, Note_on_c, 1, 59, 46
3, 57600, Control_c, 1, 64, 0
3, 57600, Control_c, 1, 64, 0
3, 57600, Control_c, 1, 64, 0
3, 57840, Note_on_c, 1, 62, 37
3, 58080, Note_on_c, 1, 67, 44
3, 58104, Note_off_c, 1, 62, 64
3, 58320, Note_on_c, 1, 62, 40
3, 58439, Note_off_c, 1, 62, 64
3, 58440, Control_c, 1, 64, 127
3, 58440, Control_c, 1, 64, 127
3, 58440, Control_c, 1, 64, 127
3, 58441, Note_off_c, 1, 67, 64
3, 58529, Note_off_c, 1, 59, 64
3, 58560, Control_c, 1, 64, 0
3, 58560, Control_c, 1, 64, 0
3, 58560, Control_c, 1, 64, 0
3, 58560, Note_on_c, 1, 58, 36
3, 58800, Note_on_c, 1, 61, 38
3, 59040, Note_on_c, 1, 64, 40
3, 59040, Control_c, 1, 64, 127
3, 59040, Control_c, 1, 64, 127
3, 59040, Control_c, 1, 64, 127
3, 59116, Note_off_c, 1, 58, 64
3, 59280, Note_on_c, 1, 58, 39
3, 59284, Note_off_c, 1, 61, 64
3, 59293, Note_off_c, 1, 64, 64
3, 59520, Control_c, 1, 64, 0
3, 59520, Control_c, 1, 64, 0
3, 59520, Control_c, 1, 64, 0
3, 59520, Note_on_c, 1, 59, 46
3, 59553, Note_off_c, 1, 58, 64
3, 59760, Note_on_c, 1, 62, 44
3, 59880, Control_c, 1, 64, 127
3, 59880, Control_c, 1, 64, 127
3, 59880, Control_c, 1, 64, 127
3, 59967, Note_off_c, 1, 59, 64
3, 60000, Control_c, 1, 64, 0
3, 60000, Control_c, 1, 64, 0
3, 60000, Control_c, 1, 64, 0
3, 60000, Note_on_c, 1, 57, 35
3, 60018, Note_off_c, 1, 62, 64
3, 60240, Control_c, 1, 64, 127
3, 60240, Control_c, 1, 64, 127
3, 60240, Control_c, 1, 64, 127
3, 60240, Note_on_c, 1, 62, 44
3, 60464, Note_off_c, 1, 57, 64
3, 60480, Note_on_c, 1, 56, 35
3, 60480, Control_c, 1, 64, 0
3, 60480, Control_c, 1, 64, 0
3, 60480, Control_c, 1, 64, 0
3, 60494, Note_off_c, 1, 62, 64
3, 60720, Note_on_c, 1, 59, 40
3, 60960, Note_on_c, 1, 62, 46
3, 61014, Note_off_c, 1, 59, 64
3, 61080, Control_c, 1, 64, 127
3, 61080, Control_c, 1, 64, 127
3, 61080, Control_c, 1, 64, 127
3, 61186, Note_off_c, 1, 56, 64
3, 61200, Note_on_c, 1, 59, 39
3, 61200, Control_c, 1, 64, 0
3, 61200, Control_c, 1, 64, 0
3, 61200, Control_c, 1, 64, 0
3, 61200, Control_c, 1, 64, 127
3, 61200, Control_c, 1, 64, 127
3, 61200, Control_c, 1, 64, 127
3, 61289, Note_off_c, 1, 62, 64
3, 61422, Note_off_c, 1, 59, 64
3, 61440, Control_c, 1, 64, 0
3, 61440, Control_c, 1, 64, 0
3, 61440, Control_c, 1, 64, 0
3, 61440, Note_on_c, 1, 56, 35
3, 61680, Note_on_c, 1, 59, 41
3, 61695, Note_off_c, 1, 56, 64
3, 61800, Control_c, 1, 64, 127
3, 61800, Control_c, 1, 64, 127
3, 61800, Control_c, 1, 64, 127
3, 61920, Note_on_c, 1, 62, 41
3, 61949, Note_off_c, 1, 59, 64
3, 62160, Note_on_c, 1, 59, 37
3, 62182, Note_off_c, 1, 62, 64
3, 62337, Note_off_c, 1, 59, 64
3, 62400, Control_c, 1, 64, 0
3, 62400, Control_c, 1, 64, 0
3, 62400, Control_c, 1, 64, 0
3, 62400, Note_on_c, 1, 55, 33
3, 62640, Note_on_c, 1, 61, 39
3, 62880, Control_c, 1, 64, 127
3, 62880, Control_c, 1, 64, 127
3, 62880, Control_c, 1, 64, 127
3, 62880, Note_on_c, 1, 64, 44
3, 62980, Note_off_c, 1, 55, 64
3, 63120, Note_on_c, 1, 55, 37
3, 63157, Note_off_c, 1, 61, 64
3, 63165, Note_off_c, 1, 64, 64
3, 63354, Note_off_c, 1, 55, 64
3, 63360, Note_on_c, 1, 54, 42
3, 63360, Control_c, 1, 64, 0
3, 63360, Control_c, 1, 64, 0
3, 63360, Control_c, 1, 64, 0
3, 63600, Note_on_c, 1, 62, 39
3, 63840, Note_on_c, 1, 59, 33
3, 63895, Note_off_c, 1, 54, 64
3, 63947, Note_off_c, 1, 62, 64
3, 64080, Note_on_c, 1, 57, 40
3, 64099, Note_off_c, 1, 59, 64
3, 64170, Note_off_c, 1, 57, 64
3, 64320, Note_on_c, 1, 59, 40
3, 64320, Note_on_c, 1, 55, 40
3, 65400, Control_c, 1, 64, 127
3, 65400, Control_c, 1, 64, 127
3, 65400, Control_c, 1, 64, 127
3, 65525, Note_off_c, 1, 59, 64
3, 65549, Note_off_c, 1, 55, 64
3, 65640, Control_c, 1, 64, 0
3, 65640, Control_c, 1, 64, 0
3, 65640, Control_c, 1, 64, 0
3, 65760, Note_on_c, 1, 64, 39
3, 65760, Note_on_c, 1, 56, 39
3, 65917, Note_off_c, 1, 56, 64
3, 65917, Note_off_c, 1, 64, 64
3, 66240, Note_on_c, 1, 57, 30
3, 66240, Note_on_c, 1, 64, 30
3, 67229, Note_off_c, 1, 57, 64
3, 67245, Note_off_c, 1, 64, 64
3, 68160, Note_on_c, 1, 74, 42
3, 68400, Note_on_c, 1, 69, 30
3, 68517, Note_off_c, 1, 74, 64
3, 68520, Control_c, 1, 64, 127
3, 68520, Control_c, 1, 64, 127
3, 68520, Control_c, 1, 64, 127
3, 68555, Note_off_c, 1, 69, 64
3, 68640, Control_c, 1, 64, 0
3, 68640, Control_c, 1, 64, 0
3, 68640, Control_c, 1, 64, 0
3, 68640, Note_on_c, 1, 74, 42
3, 68880, Control_c, 1, 64, 127
3, 68880, Control_c, 1, 64, 127
3, 68880, Control_c, 1, 64, 127
3, 68880, Note_on_c, 1, 69, 31
3, 68953, Note_off_c, 1, 74, 64
3, 68955, Note_off_c, 1, 69, 64
3, 69120, Control_c, 1, 64, 0
3, 69120, Control_c, 1, 64, 0
3, 69120, Control_c, 1, 64, 0
3, 69120, Note_on_c, 1, 73, 39
3, 69360, Control_c, 1, 64, 127
3, 69360, Control_c, 1, 64, 127
3, 69360, Control_c, 1, 64, 127
3, 69360, Note_on_c, 1, 69, 31
3, 69447, Note_off_c, 1, 73, 64
3, 69598, Note_off_c, 1, 69, 64
3, 69600, Control_c, 1, 64, 0
3, 69600, Control_c, 1, 64, 0
3, 69600, Control_c, 1, 64, 0
3, 69600, Note_on_c, 1, 74, 33
3, 69840, Control_c, 1, 64, 127
3, 69840, Control_c, 1, 64, 127
3, 69840, Control_c, 1, 64, 127
3, 69840, Note_on_c, 1, 69, 24
3, 69853, Note_off_c, 1, 74, 64
3, 70028, Note_off_c, 1, 69, 64
3, 70080, Control_c, 1, 64, 0
3, 70080, Control_c, 1, 64, 0
3, 70080, Control_c, 1, 64, 0
3, 70080, Note_on_c, 1, 76, 49
3, 70320, Control_c, 1, 64, 127
3, 70320, Control_c, 1, 64, 127
3, 70320, Control_c, 1, 64, 127
3, 70320, Note_on_c, 1, 69, 33
3, 70352, Note_off_c, 1, 76, 64
3, 70560, Control_c, 1, 64, 0
3, 70560, Control_c, 1, 64, 0
3, 70560, Control_c, 1, 64, 0
3, 70560, Note_on_c, 1, 73, 53
3, 70576, Note_off_c, 1, 69, 64
3, 70800, Control_c, 1, 64, 127
3, 70800, Control_c, 1, 64, 127
3, 70800, Control_c, 1, 64, 127
3, 70800, Note_on_c, 1, 69, 37
3, 70823, Note_off_c, 1, 73, 64
3, 70874, Note_off_c, 1, 69, 64
3, 71040, Control_c, 1, 64, 0
3, 71040, Control_c, 1, 64, 0
3, 71040, Control_c, 1, 64, 0
3, 71040, Note_on_c, 1, 74, 42
3, 71160, Control_c, 1, 64, 127
3, 71160, Control_c, 1, 64, 127
3, 71160, Control_c, 1, 64, 127
3, 71268, Note_off_c, 1, 74, 64
3, 71280, Note_on_c, 1, 69, 29
3, 71387, Note_off_c, 1, 69, 64
3, 71520, Control_c, 1, 64, 0
3, 71520, Control_c, 1, 64, 0
3, 71520, Control_c, 1, 64, 0
3, 71520, Note_on_c, 1, 74, 37
3, 71640, Control_c, 1, 64, 127
3, 71640, Control_c, 1, 64, 127
3, 71640, Control_c, 1, 64, 127
3, 71760, Note_on_c, 1, 69, 28
3, 71770, Note_off_c, 1, 74, 64
3, 71793, Note_off_c, 1, 69, 64
3, 71880, Control_c, 1, 64, 0
3, 71880, Control_c, 1, 64, 0
3, 71880, Control_c, 1, 64, 0
3, 72000, Note_on_c, 1, 66, 73
3, 72000, Note_on_c, 1, 62, 67
3, 72455, Note_off_c, 1, 66, 64
3, 72469, Note_off_c, 1, 62, 64
3, 72480, Note_on_c, 1, 64, 55
3, 72480, Note_on_c, 1, 67, 55
3, 72720, Control_c, 1, 64, 127
3, 72720, Control_c, 1, 64, 127
3, 72720, Control_c, 1, 64, 127
3, 72757, Note_off_c, 1, 64, 64
3, 72798, Note_off_c, 1, 67, 64
3, 72840, Note_on_c, 1, 66, 68
3, 72840, Note_on_c, 1, 62, 68
3, 72888, Note_off_c, 1, 62, 64
3, 72906, Note_off_c, 1, 66, 64
3, 72960, Control_c, 1, 64, 0
3, 72960, Control_c, 1, 64, 0
3, 72960, Control_c, 1, 64, 0
3, 72960, Note_on_c, 1, 64, 66
3, 72960, Note_on_c, 1, 61, 66
3, 73200, Control_c, 1, 64, 127
3, 73200, Control_c, 1, 64, 127
3, 73200, Control_c, 1, 64, 127
3, 73257, Note_off_c, 1, 64, 64
3, 73268, Note_off_c, 1, 61, 64
3, 73440, Control_c, 1, 64, 0
3, 73440, Control_c, 1, 64, 0
3, 73440, Control_c, 1, 64, 0
3, 73440, Note_on_c, 1, 66, 55
3, 73440, Note_on_c, 1, 62, 55
3, 73680, Control_c, 1, 64, 127
3, 73680, Control_c, 1, 64, 127
3, 73680, Control_c, 1, 64, 127
3, 73689, Note_off_c, 1, 66, 64
3, 73701, Note_off_c, 1, 62, 64
3, 73920, Control_c, 1, 64, 0
3, 73920, Control_c, 1, 64, 0
3, 73920, Control_c, 1, 64, 0
3, 73920, Note_on_c, 1, 67, 62
3, 73920, Note_on_c, 1, 64, 62
3, 74160, Control_c, 1, 64, 127
3, 74160, Control_c, 1, 64, 127
3, 74160, Control_c, 1, 64, 127
3, 74180, Note_off_c, 1, 64, 64
3, 74190, Note_off_c, 1, 67, 64
3, 74400, Control_c, 1, 64, 0
3, 74400, Control_c, 1, 64, 0
3, 74400, Control_c, 1, 64, 0
3, 74400, Note_on_c, 1, 69, 71
3, 74400, Note_on_c, 1, 66, 71
3, 74520, Control_c, 1, 64, 127
3, 74520, Control_c, 1, 64, 127
3, 74520, Control_c, 1, 64, 127
3, 74660, Note_off_c, 1, 66, 64
3, 74663, Note_off_c, 1, 69, 64
3, 74880, Control_c, 1, 64, 0
3, 74880, Control_c, 1, 64, 0
3, 74880, Control_c, 1, 64, 0
3, 74880, Note_on_c, 1, 64, 73
3, 74880, Note_on_c, 1, 67, 73
3, 75120, Control_c, 1, 64, 127
3, 75120, Control_c, 1, 64, 127
3, 75120, Control_c, 1, 64, 127
3, 75187, Note_off_c, 1, 64, 64
3, 75202, Note_off_c, 1, 67, 64
3, 75360, Control_c, 1, 64, 0
3, 75360, Control_c, 1, 64, 0
3, 75360, Control_c, 1, 64, 0
3, 75360, Note_on_c, 1, 66, 55
3, 75360, Note_on_c, 1, 62, 55
3, 75480, Control_c, 1, 64, 127
3, 75480, Control_c, 1, 64, 127
3, 75480, Control_c, 1, 64, 127
3, 75553, Note_off_c, 1, 62, 64
3, 75568, Note_off_c, 1, 66, 64
3, 75720, Control_c, 1, 64, 0
3, 75720, Control_c, 1, 64, 0
3, 75720, Control_c, 1, 64, 0
3, 75840, Note_on_c, 1, 66, 67
3, 75840, Note_on_c, 1, 69, 65
3, 76320, Note_off_c, 1, 69, 64
3, 76320, Note_off_c, 1, 66, 64
3, 76320, Note_on_c, 1, 64, 57
3, 76320, Note_on_c, 1, 67, 57
3, 76320, Note_on_c, 1, 70, 57
3, 76440, Control_c, 1, 64, 127
3, 76440, Control_c, 1, 64, 127
3, 76440, Control_c, 1, 64, 127
3, 76800, Note_off_c, 1, 70, 64
3, 76800, Note_off_c, 1, 67, 64
3, 76800, Note_off_c, 1, 64, 64
3, 76800, Note_on_c, 1, 62, 42
3, 76800, Note_on_c, 1, 66, 42
3, 76800, Control_c, 1, 64, 0
3, 76920, Control_c, 1, 64, 0
3, 76920, Control_c, 1, 64, 0
3, 77210, Note_off_c, 1, 66, 64
3, 77210, Note_off_c, 1, 62, 64
3, 77760, Note_on_c, 1, 66, 40
3, 77760, Note_on_c, 1, 62, 40
3, 77880, Control_c, 1, 64, 127
3, 77880, Control_c, 1, 64, 127
3, 77880, Control_c, 1, 64, 127
3, 78240, Note_off_c, 1, 62, 64
3, 78240, Note_off_c, 1, 66, 64
3, 78240, Control_c, 1, 64, 0
3, 78240, Control_c, 1, 64, 0
3, 78240, Control_c, 1, 64, 0
3, 78240, Note_on_c, 1, 66, 33
3, 78240, Note_on_c, 1, 62, 33
3, 78240, Note_on_c, 1, 60, 33
3, 78480, Control_c, 1, 64, 127
3, 78480, Control_c, 1, 64, 127
3, 78480, Control_c, 1, 64, 127
3, 78720, Note_off_c, 1, 60, 64
3, 78720, Note_off_c, 1, 62, 64
3, 78720, Note_off_c, 1, 66, 64
3, 78720, Control_c, 1, 64, 0
3, 78720, Control_c, 1, 64, 0
3, 78720, Control_c, 1, 64, 0
3, 78720, Note_on_c, 1, 62, 28
3, 78720, Note_on_c, 1, 59, 28
3, 79214, Note_off_c, 1, 59, 64
3, 79214, Note_off_c, 1, 62, 64
3, 79680, Note_on_c, 1, 62, 62
3, 79680, Note_on_c, 1, 59, 58
3, 79800, Control_c, 1, 64, 127
3, 79800, Control_c, 1, 64, 127
3, 79800, Control_c, 1, 64, 127
3, 80160, Note_off_c, 1, 59, 64
3, 80160, Note_off_c, 1, 62, 64
3, 80160, Control_c, 1, 64, 0
3, 80160, Control_c, 1, 64, 0
3, 80160, Control_c, 1, 64, 0
3, 80160, Note_on_c, 1, 63, 42
3, 80160, Note_on_c, 1, 60, 42
3, 80160, Note_on_c, 1, 57, 42
3, 80280, Control_c, 1, 64, 127
3, 80280, Control_c, 1, 64, 127
3, 80280, Control_c, 1, 64, 127
3, 80640, Note_off_c, 1, 57, 64
3, 80640, Note_off_c, 1, 60, 64
3, 80640, Note_off_c, 1, 63, 64
3, 80640, Control_c, 1, 64, 0
3, 80640, Control_c, 1, 64, 0
3, 80640, Control_c, 1, 64, 0
3, 80640, Note_on_c, 1, 55, 35
3, 80640, Note_on_c, 1, 59, 35
3, 80640, Note_on_c, 1, 64, 35
3, 80880, Note_off_c, 1, 64, 64
3, 80880, Note_off_c, 1, 59, 64
3, 80880, Note_off_c, 1, 55, 64
3, 80880, Control_c, 1, 64, 127
3, 80880, Control_c, 1, 64, 127
3, 80880, Control_c, 1, 64, 127
3, 81240, Control_c, 1, 64, 0
3, 81240, Control_c, 1, 64, 0
3, 81240, Control_c, 1, 64, 0
3, 81600, Note_on_c, 1, 66, 31
3, 81600, Note_on_c, 1, 57, 31
3, 82080, Note_on_c, 1, 61, 37
3, 82119, Note_off_c, 1, 66, 64
3, 82269, Note_off_c, 1, 61, 64
3, 82286, Note_off_c, 1, 57, 64
3, 82560, Note_on_c, 1, 61, 51
3, 82560, Note_on_c, 1, 50, 51
3, 83040, Note_on_c, 1, 62, 30
3, 83040, Note_on_c, 1, 62, 30
3, 83078, Note_off_c, 1, 61, 64
3, 83262, Note_off_c, 1, 62, 64
3, 83262, Note_off_c, 1, 62, 64
3, 83283, Note_off_c, 1, 50, 64
3, 83520, Note_on_c, 1, 66, 71
3, 83520, Note_on_c, 1, 69, 71
3, 83640, Control_c, 1, 64, 127
3, 83640, Control_c, 1, 64, 127
3, 83640, Control_c, 1, 64, 127
3, 84000, Note_off_c, 1, 69, 64
3, 84000, Note_off_c, 1, 66, 64
3, 84000, Control_c, 1, 64, 0
3, 84000, Control_c, 1, 64, 0
3, 84000, Control_c, 1, 64, 0
3, 84000, Note_on_c, 1, 64, 51
3, 84000, Note_on_c, 1, 70, 51
3, 84000, Note_on_c, 1, 67, 51
3, 84120, Control_c, 1, 64, 127
3, 84120, Control_c, 1, 64, 127
3, 84120, Control_c, 1, 64, 127
3, 84480, Note_off_c, 1, 67, 64
3, 84480, Note_off_c, 1, 70, 64
3, 84480, Note_off_c, 1, 64, 64
3, 84480, Control_c, 1, 64, 0
3, 84480, Control_c, 1, 64, 0
3, 84480, Control_c, 1, 64, 0
3, 84480, Note_on_c, 1, 71, 36
3, 84480, Note_on_c, 1, 62, 36
3, 84480, Note_on_c, 1, 66, 36
3, 84773, Note_off_c, 1, 66, 64
3, 84773, Note_off_c, 1, 62, 64
3, 84773, Note_off_c, 1, 71, 64
3, 85440, Note_on_c, 1, 66, 58
3, 85440, Note_on_c, 1, 62, 58
3, 85560, Control_c, 1, 64, 127
3, 85560, Control_c, 1, 64, 127
3, 85560, Control_c, 1, 64, 127
3, 85920, Note_off_c, 1, 62, 64
3, 85920, Note_off_c, 1, 66, 64
3, 85920, Control_c, 1, 64, 0
3, 85920, Control_c, 1, 64, 0
3, 85920, Control_c, 1, 64, 0
3, 85920, Note_on_c, 1, 66, 38
3, 85920, Note_on_c, 1, 62, 38
3, 85920, Note_on_c, 1, 60, 38
3, 86160, Control_c, 1, 64, 127
3, 86160, Control_c, 1, 64, 127
3, 86160, Control_c, 1, 64, 127
3, 86400, Note_off_c, 1, 60, 64
3, 86400, Note_off_c, 1, 62, 64
3, 86400, Note_off_c, 1, 66, 64
3, 86400, Note_on_c, 1, 67, 28
3, 86400, Note_on_c, 1, 59, 28
3, 86400, Note_on_c, 1, 62, 28
3, 86400, Control_c, 1, 64, 0
3, 86400, Control_c, 1, 64, 0
3, 86400, Control_c, 1, 64, 0
3, 86880, Note_off_c, 1, 62, 64
3, 86880, Note_off_c, 1, 59, 64
3, 86880, Note_off_c, 1, 67, 64
3, 87360, Note_on_c, 1, 62, 64
3, 87360, Note_on_c, 1, 59, 64
3, 87480, Control_c, 1, 64, 127
3, 87480, Control_c, 1, 64, 127
3, 87480, Control_c, 1, 64, 127
3, 87840, Note_off_c, 1, 59, 64
3, 87840, Note_off_c, 1, 62, 64
3, 87840, Control_c, 1, 64, 0
3, 87840, Control_c, 1, 64, 0
3, 87840, Control_c, 1, 64, 0
3, 87840, Note_on_c, 1, 63, 43
3, 87840, Note_on_c, 1, 60, 43
3, 87840, Note_on_c, 1, 57, 43
3, 87960, Control_c, 1, 64, 127
3, 87960, Control_c, 1, 64, 127
3, 87960, Control_c, 1, 64, 127
3, 88320, Note_off_c, 1, 57, 64
3, 88320, Note_off_c, 1, 60, 64
3, 88320, Note_off_c, 1, 63, 64
3, 88320, Note_on_c, 1, 59, 31
3, 88320, Note_on_c, 1, 64, 31
3, 88320, Note_on_c, 1, 55, 31
3, 88320, Control_c, 1, 64, 0
3, 88320, Control_c, 1, 64, 0
3, 88320, Control_c, 1, 64, 0
3, 88734, Note_off_c, 1, 59, 64
3, 88736, Note_off_c, 1, 64, 64
3, 88736, Note_off_c, 1, 55, 64
3, 89280, Note_on_c, 1, 66, 19
3, 89280, Note_on_c, 1, 62, 19
3, 89280, Note_on_c, 1, 57, 19
3, 89588, Note_off_c, 1, 62, 64
3, 89590, Note_off_c, 1, 57, 64
3, 89594, Note_off_c, 1, 66, 64
3, 90240, Note_on_c, 1, 57, 24
3, 90240, Note_on_c, 1, 66, 24
3, 90240, Note_on_c, 1, 62, 24
3, 90533, Note_off_c, 1, 57, 64
3, 90537, Note_off_c, 1, 66, 64
3, 90537, Note_off_c, 1, 62, 64
3, 91200, Note_on_c, 1, 57, 31
3, 91200, Note_on_c, 1, 62, 31
3, 91200, Note_on_c, 1, 64, 31
3, 91680, Note_off_c, 1, 64, 64
3, 91680, Note_off_c, 1, 62, 64
3, 91680, Note_off_c, 1, 57, 64
3, 92160, Note_on_c, 1, 61, 39
3, 92160, Note_on_c, 1, 57, 39
3, 92160, Note_on_c, 1, 67, 39
3, 92520, Control_c, 1, 64, 127
3, 92520, Control_c, 1, 64, 127
3, 92520, Control_c, 1, 64, 127
3, 93000, Note_off_c, 1, 67, 64
3, 93000, Note_off_c, 1, 57, 64
3, 93000, Note_off_c, 1, 61, 64
3, 93120, Note_on_c, 1, 62, 26
3, 93120, Note_on_c, 1, 66, 26
3, 93240, Control_c, 1, 64, 0
3, 93240, Control_c, 1, 64, 0
3, 93240, Control_c, 1, 64, 0
3, 94019, Note_off_c, 1, 62, 64
3, 94023, Note_off_c, 1, 66, 64
3, 95040, Note_on_c, 1, 55, 28
3, 95040, Note_on_c, 1, 62, 28
3, 95488, Note_off_c, 1, 55, 64
3, 95520, Note_on_c, 1, 57, 31
3, 95880, Note_on_c, 1, 55, 23
3, 95898, Note_off_c, 1, 57, 64
3, 96000, Note_on_c, 1, 54, 22
3, 96013, Note_off_c, 1, 55, 64
3, 96480, Note_on_c, 1, 55, 27
3, 96495, Note_off_c, 1, 54, 64
3, 96720, Control_c, 1, 64, 127
3, 96720, Control_c, 1, 64, 127
3, 96720, Control_c, 1, 64, 127
3, 96794, Note_off_c, 1, 55, 64
3, 96834, Note_off_c, 1, 62, 64
3, 96960, Control_c, 1, 64, 0
3, 96960, Control_c, 1, 64, 0
3, 96960, Control_c, 1, 64, 0
3, 96960, Note_on_c, 1, 62, 31
3, 96960, Note_on_c, 1, 57, 31
3, 97301, Note_off_c, 1, 57, 64
3, 97320, Control_c, 1, 64, 127
3, 97320, Control_c, 1, 64, 127
3, 97320, Control_c, 1, 64, 127
3, 97440, Control_c, 1, 64, 0
3, 97440, Control_c, 1, 64, 0
3, 97440, Control_c, 1, 64, 0
3, 97440, Note_on_c, 1, 60, 37
3, 97680, Note_on_c, 1, 59, 37
3, 97691, Note_off_c, 1, 60, 64
3, 97913, Note_off_c, 1, 59, 64
3, 97920, Note_on_c, 1, 57, 27
3, 98393, Note_off_c, 1, 57, 64
3, 98400, Note_on_c, 1, 55, 19
3, 98672, Note_off_c, 1, 62, 64
3, 98689, Note_off_c, 1, 55, 64
3, 98880, Note_on_c, 1, 64, 65
3, 98880, Note_on_c, 1, 52, 65
3, 99023, Note_off_c, 1, 52, 64
3, 99023, Note_off_c, 1, 64, 64
3, 99360, Note_on_c, 1, 50, 60
3, 99360, Note_on_c, 1, 62, 60
3, 99489, Note_off_c, 1, 62, 64
3, 99489, Note_off_c, 1, 50, 64
3, 99850, Note_on_c, 1, 48, 60
3, 99850, Note_on_c, 1, 60, 60
3, 100388, Note_off_c, 1, 60, 64
3, 100388, Note_off_c, 1, 48, 64
3, 100560, Note_on_c, 1, 59, 39
3, 100660, Note_off_c, 1, 59, 64
3, 100800, Note_on_c, 1, 54, 30
3, 101274, Note_off_c, 1, 54, 64
3, 101280, Note_on_c, 1, 55, 27
3, 101615, Note_off_c, 1, 55, 64
3, 101760, Note_on_c, 1, 55, 34
3, 101760, Note_on_c, 1, 50, 34
3, 102120, Control_c, 1, 64, 127
3, 102120, Control_c, 1, 64, 127
3, 102120, Control_c, 1, 64, 127
3, 102240, Control_c, 1, 64, 0
3, 102240, Control_c, 1, 64, 0
3, 102240, Control_c, 1, 64, 0
3, 102240, Note_on_c, 1, 54, 17
3, 102246, Note_off_c, 1, 55, 64
3, 102425, Note_off_c, 1, 50, 64
3, 102480, Control_c, 1, 64, 127
3, 102480, Control_c, 1, 64, 127
3, 102480, Control_c, 1, 64, 127
3, 102535, Note_off_c, 1, 54, 64
3, 102600, Control_c, 1, 64, 0
3, 102600, Control_c, 1, 64, 0
3, 102600, Control_c, 1, 64, 0
3, 102720, Note_on_c, 1, 55, 33
3, 102720, Note_on_c, 1, 62, 33
3, 103200, Note_on_c, 1, 57, 42
3, 103215, Note_off_c, 1, 55, 64
3, 103550, Note_off_c, 1, 57, 64
3, 103560, Note_on_c, 1, 55, 33
3, 103665, Note_off_c, 1, 55, 64
3, 103680, Note_on_c, 1, 54, 30
3, 104160, Note_on_c, 1, 56, 31
3, 104173, Note_off_c, 1, 54, 64
3, 104520, Control_c, 1, 64, 127
3, 104520, Control_c, 1, 64, 127
3, 104520, Control_c, 1, 64, 127
3, 104538, Note_off_c, 1, 56, 64
3, 104565, Note_off_c, 1, 62, 64
3, 104640, Note_on_c, 1, 62, 30
3, 104640, Note_on_c, 1, 57, 30
3, 104640, Control_c, 1, 64, 0
3, 104640, Control_c, 1, 64, 0
3, 104640, Control_c, 1, 64, 0
3, 105120, Note_on_c, 1, 54, 30
3, 105143, Note_off_c, 1, 57, 64
3, 105480, Control_c, 1, 64, 127
3, 105480, Control_c, 1, 64, 127
3, 105480, Control_c, 1, 64, 127
3, 105582, Note_off_c, 1, 54, 64
3, 105600, Note_on_c, 1, 55, 24
3, 105600, Control_c, 1, 64, 0
3, 105600, Control_c, 1, 64, 0
3, 105600, Control_c, 1, 64, 0
3, 105840, Control_c, 1, 64, 127
3, 105840, Control_c, 1, 64, 127
3, 105840, Control_c, 1, 64, 127
3, 106200, Control_c, 1, 64, 0
3, 106200, Control_c, 1, 64, 0
3, 106200, Control_c, 1, 64, 0
3, 106262, Note_off_c, 1, 62, 64
3, 106271, Note_off_c, 1, 55, 64
3, 106560, Note_on_c, 1, 64, 70
3, 106560, Note_on_c, 1, 52, 70
3, 106694, Note_off_c, 1, 52, 64
3, 106694, Note_off_c, 1, 64, 64
3, 107040, Note_on_c, 1, 50, 62
3, 107040, Note_on_c, 1, 62, 62
3, 107180, Note_off_c, 1, 62, 64
3, 107180, Note_off_c, 1, 50, 64
3, 107520, Note_on_c, 1, 60, 50
3, 107520, Note_on_c, 1, 48, 50
3, 107760, Control_c, 1, 64, 127
3, 107760, Control_c, 1, 64, 127
3, 107760, Control_c, 1, 64, 127
3, 107817, Note_off_c, 1, 60, 64
3, 107819, Note_off_c, 1, 48, 64
3, 108000, Control_c, 1, 64, 0
3, 108000, Control_c, 1, 64, 0
3, 108000, Control_c, 1, 64, 0
3, 108240, Note_on_c, 1, 52, 31
3, 108240, Note_on_c, 1, 55, 31
3, 108294, Note_off_c, 1, 52, 64
3, 108299, Note_off_c, 1, 55, 64
3, 108480, Note_on_c, 1, 55, 31
3, 108480, Note_on_c, 1, 50, 31
3, 108720, Control_c, 1, 64, 127
3, 108720, Control_c, 1, 64, 127
3, 108720, Control_c, 1, 64, 127
3, 108948, Note_off_c, 1, 55, 64
3, 108960, Control_c, 1, 64, 0
3, 108960, Control_c, 1, 64, 0
3, 108960, Control_c, 1, 64, 0
3, 108960, Note_on_c, 1, 54, 35
3, 109080, Control_c, 1, 64, 127
3, 109080, Control_c, 1, 64, 127
3, 109080, Control_c, 1, 64, 127
3, 109177, Note_off_c, 1, 50, 64
3, 109202, Note_off_c, 1, 54, 64
3, 109440, Control_c, 1, 64, 0
3, 109440, Control_c, 1, 64, 0
3, 109440, Control_c, 1, 64, 0
3, 109440, Note_on_c, 1, 55, 30
3, 109680, Note_on_c, 1, 59, 46
3, 109920, Note_on_c, 1, 62, 56
3, 109963, Note_off_c, 1, 59, 64
3, 110160, Note_on_c, 1, 59, 41
3, 110160, Control_c, 1, 64, 127
3, 110160, Control_c, 1, 64, 127
3, 110160, Control_c, 1, 64, 127
3, 110184, Note_off_c, 1, 62, 64
3, 110202, Note_off_c, 1, 55, 64
3, 110235, Note_off_c, 1, 59, 64
3, 110400, Note_on_c, 1, 48, 42
3, 110400, Control_c, 1, 64, 0
3, 110400, Control_c, 1, 64, 0
3, 110400, Control_c, 1, 64, 0
3, 110640, Note_on_c, 1, 52, 36
3, 110880, Note_on_c, 1, 57, 37
3, 110937, Note_off_c, 1, 52, 64
3, 111000, Control_c, 1, 64, 127
3, 111000, Control_c, 1, 64, 127
3, 111000, Control_c, 1, 64, 127
3, 111120, Note_on_c, 1, 52, 32
3, 111125, Note_off_c, 1, 48, 64
3, 111139, Note_off_c, 1, 57, 64
3, 111215, Note_off_c, 1, 52, 64
3, 111360, Control_c, 1, 64, 0
3, 111360, Control_c, 1, 64, 0
3, 111360, Control_c, 1, 64, 0
3, 111360, Note_on_c, 1, 50, 40
3, 111600, Note_on_c, 1, 60, 42
3, 111840, Note_on_c, 1, 57, 33
3, 111845, Note_off_c, 1, 60, 64
3, 112080, Note_on_c, 1, 60, 40
3, 112080, Control_c, 1, 64, 127
3, 112080, Control_c, 1, 64, 127
3, 112080, Control_c, 1, 64, 127
3, 112098, Note_off_c, 1, 50, 64
3, 112106, Note_off_c, 1, 57, 64
3, 112219, Note_off_c, 1, 60, 64
3, 112320, Note_on_c, 1, 55, 46
3, 112320, Control_c, 1, 64, 0
3, 112320, Control_c, 1, 64, 0
3, 112320, Control_c, 1, 64, 0
3, 112560, Note_on_c, 1, 59, 36
3, 112680, Control_c, 1, 64, 127
3, 112680, Control_c, 1, 64, 127
3, 112680, Control_c, 1, 64, 127
3, 112800, Note_on_c, 1, 62, 40
3, 112832, Note_off_c, 1, 59, 64
3, 112979, Note_off_c, 1, 55, 64
3, 113040, Note_on_c, 1, 59, 37
3, 113067, Note_off_c, 1, 62, 64
3, 113141, Note_off_c, 1, 59, 64
3, 113280, Note_on_c, 1, 52, 33
3, 113280, Control_c, 1, 64, 0
3, 113280, Control_c, 1, 64, 0
3, 113280, Control_c, 1, 64, 0
3, 113520, Note_on_c, 1, 55, 30
3, 113640, Control_c, 1, 64, 127
3, 113640, Control_c, 1, 64, 127
3, 113640, Control_c, 1, 64, 127
3, 113760, Control_c, 1, 64, 0
3, 113760, Control_c, 1, 64, 0
3, 113760, Control_c, 1, 64, 0
3, 113760, Note_on_c, 1, 59, 37
3, 113823, Note_off_c, 1, 55, 64
3, 113880, Control_c, 1, 64, 127
3, 113880, Control_c, 1, 64, 127
3, 113880, Control_c, 1, 64, 127
3, 113980, Note_off_c, 1, 52, 64
3, 114000, Note_on_c, 1, 55, 35
3, 114006, Note_off_c, 1, 59, 64
3, 114052, Note_off_c, 1, 55, 64
3, 114240, Note_on_c, 1, 48, 37
3, 114240, Control_c, 1, 64, 0
3, 114240, Control_c, 1, 64, 0
3, 114240, Control_c, 1, 64, 0
3, 114480, Note_on_c, 1, 52, 33
3, 114720, Note_on_c, 1, 57, 39
3, 114812, Note_off_c, 1, 52, 64
3, 114840, Control_c, 1, 64, 127
3, 114840, Control_c, 1, 64, 127
3, 114840, Control_c, 1, 64, 127
3, 114957, Note_off_c, 1, 57, 64
3, 114960, Note_on_c, 1, 52, 33
3, 114994, Note_off_c, 1, 48, 64
3, 115050, Note_off_c, 1, 52, 64
3, 115200, Control_c, 1, 64, 0
3, 115200, Control_c, 1, 64, 0
3, 115200, Control_c, 1, 64, 0
3, 115200, Note_on_c, 1, 50, 31
3, 115440, Note_on_c, 1, 60, 31
3, 115680, Note_on_c, 1, 57, 35
3, 115682, Note_off_c, 1, 60, 64
3, 115800, Control_c, 1, 64, 127
3, 115800, Control_c, 1, 64, 127
3, 115800, Control_c, 1, 64, 127
3, 115912, Note_off_c, 1, 57, 64
3, 115920, Note_on_c, 1, 60, 39
3, 115921, Note_off_c, 1, 50, 64
3, 116024, Note_off_c, 1, 60, 64
3, 116160, Control_c, 1, 64, 0
3, 116160, Control_c, 1, 64, 0
3, 116160, Control_c, 1, 64, 0
3, 116160, Note_on_c, 1, 59, 30
3, 116160, Note_on_c, 1, 55, 30
3, 116598, Note_off_c, 1, 55, 64
3, 116618, Note_off_c, 1, 59, 64
3, 117120, Note_on_c, 1, 63, 55
3, 117120, Note_on_c, 1, 51, 55
3, 117290, Note_off_c, 1, 51, 64
3, 117290, Note_off_c, 1, 63, 64
3, 117600, Note_on_c, 1, 51, 44
3, 117600, Note_on_c, 1, 63, 44
3, 117720, Note_off_c, 1, 63, 64
3, 117720, Note_off_c, 1, 51, 64
3, 118080, Note_on_c, 1, 51, 30
3, 118080, Note_on_c, 1, 63, 30
3, 118560, Note_off_c, 1, 63, 64
3, 118560, Note_off_c, 1, 51, 64
3, 118800, Control_c, 1, 64, 0
3, 118800, Control_c, 1, 64, 0
3, 118800, Control_c, 1, 64, 0
3, 119040, Note_on_c, 1, 50, 39
3, 119040, Note_on_c, 1, 57, 39
3, 119114, Note_off_c, 1, 57, 64
3, 119114, Note_off_c, 1, 50, 64
3, 119520, Note_on_c, 1, 50, 18
3, 119520, Note_on_c, 1, 57, 18
3, 119600, Note_off_c, 1, 57, 64
3, 119600, Note_off_c, 1, 50, 80
3, 120000, Note_on_c, 1, 50, 10
3, 120000, Note_on_c, 1, 57, 10
3, 120960, Note_off_c, 1, 57, 64
3, 120960, Note_off_c, 1, 50, 64
3, 121920, Note_on_c, 1, 55, 33
3, 122160, Note_on_c, 1, 59, 39
3, 122280, Control_c, 1, 64, 127
3, 122280, Control_c, 1, 64, 127
3, 122280, Control_c, 1, 64, 127
3, 122385, Note_off_c, 1, 59, 64
3, 122400, Note_on_c, 1, 62, 35
3, 122400, Control_c, 1, 64, 0
3, 122400, Control_c, 1, 64, 0
3, 122400, Control_c, 1, 64, 0
3, 122405, Note_off_c, 1, 55, 64
3, 122640, Note_on_c, 1, 59, 37
3, 122760, Control_c, 1, 64, 127
3, 122760, Control_c, 1, 64, 127
3, 122760, Control_c, 1, 64, 127
3, 122815, Note_off_c, 1, 59, 64
3, 122880, Note_on_c, 1, 55, 35
3, 122880, Control_c, 1, 64, 0
3, 122880, Control_c, 1, 64, 0
3, 122880, Control_c, 1, 64, 0
3, 122884, Note_off_c, 1, 62, 64
3, 123000, Control_c, 1, 64, 127
3, 123000, Control_c, 1, 64, 127
3, 123000, Control_c, 1, 64, 127
3, 123120, Note_on_c, 1, 59, 43
3, 123360, Note_on_c, 1, 62, 49
3, 123400, Note_off_c, 1, 59, 64
3, 123600, Note_on_c, 1, 59, 42
3, 123627, Note_off_c, 1, 62, 64
3, 123637, Note_off_c, 1, 55, 64
3, 123734, Note_off_c, 1, 59, 64
3, 123840, Control_c, 1, 64, 0
3, 123840, Control_c, 1, 64, 0
3, 123840, Control_c, 1, 64, 0
3, 123840, Note_on_c, 1, 55, 37
3, 124080, Note_on_c, 1, 57, 31
3, 124200, Control_c, 1, 64, 127
3, 124200, Control_c, 1, 64, 127
3, 124200, Control_c, 1, 64, 127
3, 124320, Note_on_c, 1, 64, 42
3, 124357, Note_off_c, 1, 57, 64
3, 124370, Note_off_c, 1, 55, 64
3, 124560, Note_on_c, 1, 57, 37
3, 124800, Note_on_c, 1, 55, 30
3, 124800, Control_c, 1, 64, 0
3, 124800, Control_c, 1, 64, 0
3, 124800, Control_c, 1, 64, 0
3, 124820, Note_off_c, 1, 57, 64
3, 124920, Control_c, 1, 64, 127
3, 124920, Control_c, 1, 64, 127
3, 124920, Control_c, 1, 64, 127
3, 124967, Note_off_c, 1, 64, 64
3, 125040, Note_on_c, 1, 57, 35
3, 125198, Note_off_c, 1, 55, 64
3, 125280, Note_on_c, 1, 64, 26
3, 125312, Note_off_c, 1, 57, 64
3, 125520, Note_on_c, 1, 57, 26
3, 125557, Note_off_c, 1, 64, 64
3, 125747, Note_off_c, 1, 57, 64
3, 125760, Control_c, 1, 64, 0
3, 125760, Control_c, 1, 64, 0
3, 125760, Control_c, 1, 64, 0
3, 125760, Note_on_c, 1, 54, 28
3, 126000, Note_on_c, 1, 57, 31
3, 126240, Control_c, 1, 64, 127
3, 126240, Control_c, 1, 64, 127
3, 126240, Control_c, 1, 64, 127
3, 126240, Note_on_c, 1, 62, 37
3, 126316, Note_off_c, 1, 57, 64
3, 126469, Note_off_c, 1, 62, 64
3, 126480, Note_on_c, 1, 57, 31
3, 126530, Note_off_c, 1, 54, 64
3, 126677, Note_off_c, 1, 57, 64
3, 126720, Note_on_c, 1, 52, 28
3, 126720, Control_c, 1, 64, 0
3, 126720, Control_c, 1, 64, 0
3, 126720, Control_c, 1, 64, 0
3, 126960, Note_on_c, 1, 55, 39
3, 127200, Control_c, 1, 64, 127
3, 127200, Control_c, 1, 64, 127
3, 127200, Control_c, 1, 64, 127
3, 127200, Note_on_c, 1, 60, 42
3, 127259, Note_off_c, 1, 55, 64
3, 127440, Note_on_c, 1, 55, 33
3, 127442, Note_off_c, 1, 52, 64
3, 127471, Note_off_c, 1, 60, 64
3, 127578, Note_off_c, 1, 55, 64
3, 127680, Control_c, 1, 64, 0
3, 127680, Control_c, 1, 64, 0
3, 127680, Control_c, 1, 64, 0
3, 127680, Note_on_c, 1, 51, 33
3, 127920, Note_on_c, 1, 54, 22
3, 128040, Control_c, 1, 64, 127
3, 128040, Control_c, 1, 64, 127
3, 128040, Control_c, 1, 64, 127
3, 128160, Note_on_c, 1, 57, 28
3, 128184, Note_off_c, 1, 51, 64
3, 128228, Note_off_c, 1, 54, 64
3, 128394, Note_off_c, 1, 57, 64
3, 128400, Note_on_c, 1, 51, 20
3, 128640, Control_c, 1, 64, 0
3, 128640, Control_c, 1, 64, 0
3, 128640, Control_c, 1, 64, 0
3, 128640, Note_on_c, 1, 52, 26
3, 128645, Note_off_c, 1, 51, 64
3, 128880, Control_c, 1, 64, 127
3, 128880, Control_c, 1, 64, 127
3, 128880, Control_c, 1, 64, 127
3, 128880, Note_on_c, 1, 55, 35
3, 129091, Note_off_c, 1, 52, 64
3, 129120, Note_on_c, 1, 50, 40
3, 129120, Control_c, 1, 64, 0
3, 129120, Control_c, 1, 64, 0
3, 129120, Control_c, 1, 64, 0
3, 129138, Note_off_c, 1, 55, 64
3, 129360, Control_c, 1, 64, 127
3, 129360, Control_c, 1, 64, 127
3, 129360, Control_c, 1, 64, 127
3, 129360, Note_on_c, 1, 55, 31
3, 129535, Note_off_c, 1, 50, 64
3, 129600, Control_c, 1, 64, 0
3, 129600, Control_c, 1, 64, 0
3, 129600, Control_c, 1, 64, 0
3, 129600, Note_on_c, 1, 49, 28
3, 129642, Note_off_c, 1, 55, 64
3, 129840, Note_on_c, 1, 52, 28
3, 129960, Control_c, 1, 64, 127
3, 129960, Control_c, 1, 64, 127
3, 129960, Control_c, 1, 64, 127
3, 130080, Note_on_c, 1, 55, 35
3, 130126, Note_off_c, 1, 52, 64
3, 130210, Note_off_c, 1, 49, 64
3, 130320, Note_on_c, 1, 52, 35
3, 130335, Note_off_c, 1, 55, 64
3, 130560, Control_c, 1, 64, 0
3, 130560, Control_c, 1, 64, 0
3, 130560, Control_c, 1, 64, 0
3, 130560, Note_on_c, 1, 49, 26
3, 130573, Note_off_c, 1, 52, 64
3, 130800, Note_on_c, 1, 52, 22
3, 131040, Note_on_c, 1, 55, 30
3, 131079, Note_off_c, 1, 52, 64
3, 131160, Control_c, 1, 64, 127
3, 131160, Control_c, 1, 64, 127
3, 131160, Control_c, 1, 64, 127
3, 131255, Note_off_c, 1, 49, 64
3, 131280, Note_on_c, 1, 52, 30
3, 131303, Note_off_c, 1, 55, 64
3, 131452, Note_off_c, 1, 52, 64
3, 131520, Note_on_c, 1, 48, 28
3, 131520, Control_c, 1, 64, 0
3, 131520, Control_c, 1, 64, 0
3, 131520, Control_c, 1, 64, 0
3, 131760, Note_on_c, 1, 54, 35
3, 132000, Control_c, 1, 64, 127
3, 132000, Control_c, 1, 64, 127
3, 132000, Control_c, 1, 64, 127
3, 132000, Note_on_c, 1, 57, 42
3, 132039, Note_off_c, 1, 48, 64
3, 132240, Note_on_c, 1, 48, 47
3, 132254, Note_off_c, 1, 54, 64
3, 132274, Note_off_c, 1, 57, 64
3, 132361, Note_off_c, 1, 48, 64
3, 132480, Control_c, 1, 64, 0
3, 132480, Control_c, 1, 64, 0
3, 132480, Control_c, 1, 64, 0
3, 132480, Note_on_c, 1, 47, 48
3, 132720, Note_on_c, 1, 55, 40
3, 132960, Note_on_c, 1, 52, 35
3, 132982, Note_off_c, 1, 55, 64
3, 132996, Note_off_c, 1, 47, 64
3, 133200, Note_on_c, 1, 50, 28
3, 133202, Note_off_c, 1, 52, 64
3, 133269, Note_off_c, 1, 50, 64
3, 133440, Note_on_c, 1, 48, 39
3, 133440, Note_on_c, 1, 52, 39
3, 134400, Control_c, 1, 64, 127
3, 134400, Control_c, 1, 64, 127
3, 134400, Control_c, 1, 64, 127
3, 134577, Note_off_c, 1, 52, 64
3, 134583, Note_off_c, 1, 48, 64
3, 134760, Control_c, 1, 64, 0
3, 134760, Control_c, 1, 64, 0
3, 134760, Control_c, 1, 64, 0
3, 134880, Note_on_c, 1, 49, 47
3, 134880, Note_on_c, 1, 57, 57
3, 134985, Note_off_c, 1, 49, 64
3, 134993, Note_off_c, 1, 57, 64
3, 135360, Note_on_c, 1, 57, 39
3, 135360, Note_on_c, 1, 50, 39
3, 135600, Control_c, 1, 64, 127
3, 135600, Control_c, 1, 64, 127
3, 135600, Control_c, 1, 64, 127
3, 135676, Note_off_c, 1, 50, 64
3, 135695, Note_off_c, 1, 57, 64
3, 136200, Control_c, 1, 64, 0
3, 136200, Control_c, 1, 64, 0
3, 136200, Control_c, 1, 64, 0
3, 137280, Note_on_c, 1, 67, 26
3, 137520, Control_c, 1, 64, 127
3, 137520, Control_c, 1, 64, 127
3, 137520, Control_c, 1, 64, 127
3, 137520, Note_on_c, 1, 62, 20
3, 137589, Note_off_c, 1, 62, 64
3, 137616, Note_off_c, 1, 67, 64
3, 137760, Note_on_c, 1, 67, 28
3, 137760, Control_c, 1, 64, 0
3, 137760, Control_c, 1, 64, 0
3, 137760, Control_c, 1, 64, 0
3, 138000, Note_on_c, 1, 62, 22
3, 138000, Control_c, 1, 64, 127
3, 138000, Control_c, 1, 64, 127
3, 138000, Control_c, 1, 64, 127
3, 138101, Note_off_c, 1, 62, 64
3, 138108, Note_off_c, 1, 67, 64
3, 138240, Note_on_c, 1, 66, 31
3, 138240, Control_c, 1, 64, 0
3, 138240, Control_c, 1, 64, 0
3, 138240, Control_c, 1, 64, 0
3, 138480, Note_on_c, 1, 62, 22
3, 138480, Control_c, 1, 64, 127
3, 138480, Control_c, 1, 64, 127
3, 138480, Control_c, 1, 64, 127
3, 138518, Note_off_c, 1, 66, 64
3, 138581, Note_off_c, 1, 62, 64
3, 138720, Control_c, 1, 64, 0
3, 138720, Control_c, 1, 64, 0
3, 138720, Control_c, 1, 64, 0
3, 138720, Note_on_c, 1, 67, 30
3, 138960, Control_c, 1, 64, 127
3, 138960, Control_c, 1, 64, 127
3, 138960, Control_c, 1, 64, 127
3, 138960, Note_on_c, 1, 62, 22
3, 139020, Note_off_c, 1, 67, 64
3, 139078, Note_off_c, 1, 62, 64
3, 139200, Note_on_c, 1, 69, 33
3, 139200, Control_c, 1, 64, 0
3, 139200, Control_c, 1, 64, 0
3, 139200, Control_c, 1, 64, 0
3, 139440, Note_on_c, 1, 62, 28
3, 139502, Note_off_c, 1, 69, 64
3, 139560, Control_c, 1, 64, 127
3, 139560, Control_c, 1, 64, 127
3, 139560, Control_c, 1, 64, 127
3, 139680, Control_c, 1, 64, 0
3, 139680, Control_c, 1, 64, 0
3, 139680, Control_c, 1, 64, 0
3, 139680, Note_on_c, 1, 66, 31
3, 139729, Note_off_c, 1, 62, 64
3, 139800, Control_c, 1, 64, 127
3, 139800, Control_c, 1, 64, 127
3, 139800, Control_c, 1, 64, 127
3, 139920, Note_on_c, 1, 62, 28
3, 139950, Note_off_c, 1, 66, 64
3, 140039, Note_off_c, 1, 62, 64
3, 140160, Note_on_c, 1, 67, 30
3, 140160, Control_c, 1, 64, 0
3, 140160, Control_c, 1, 64, 0
3, 140160, Control_c, 1, 64, 0
3, 140280, Control_c, 1, 64, 127
3, 140280, Control_c, 1, 64, 127
3, 140280, Control_c, 1, 64, 127
3, 140400, Note_on_c, 1, 62, 26
3, 140431, Note_off_c, 1, 67, 64
3, 140486, Note_off_c, 1, 62, 64
3, 140640, Control_c, 1, 64, 0
3, 140640, Control_c, 1, 64, 0
3, 140640, Control_c, 1, 64, 0
3, 140640, Note_on_c, 1, 67, 22
3, 140760, Control_c, 1, 64, 127
3, 140760, Control_c, 1, 64, 127
3, 140760, Control_c, 1, 64, 127
3, 140880, Note_on_c, 1, 62, 20
3, 140892, Note_off_c, 1, 67, 64
3, 140914, Note_off_c, 1, 62, 64
3, 141000, Control_c, 1, 64, 0
3, 141000, Control_c, 1, 64, 0
3, 141000, Control_c, 1, 64, 0
3, 141120, Note_on_c, 1, 59, 66
3, 141120, Note_on_c, 1, 55, 66
3, 141360, Control_c, 1, 64, 127
3, 141360, Control_c, 1, 64, 127
3, 141360, Control_c, 1, 64, 127
3, 141480, Note_on_c, 1, 62, 62
3, 141490, Note_off_c, 1, 59, 64
3, 141509, Note_off_c, 1, 55, 64
3, 141600, Control_c, 1, 64, 0
3, 141600, Control_c, 1, 64, 0
3, 141600, Control_c, 1, 64, 0
3, 141600, Note_on_c, 1, 60, 64
3, 141600, Note_on_c, 1, 57, 64
3, 141602, Note_off_c, 1, 62, 64
3, 141840, Control_c, 1, 64, 127
3, 141840, Control_c, 1, 64, 127
3, 141840, Control_c, 1, 64, 127
3, 141848, Note_off_c, 1, 57, 64
3, 141954, Note_off_c, 1, 60, 64
3, 141960, Note_on_c, 1, 59, 69
3, 141960, Note_on_c, 1, 55, 69
3, 142015, Note_off_c, 1, 55, 64
3, 142030, Note_off_c, 1, 59, 64
3, 142080, Note_on_c, 1, 54, 55
3, 142080, Note_on_c, 1, 57, 55
3, 142080, Control_c, 1, 64, 0
3, 142080, Control_c, 1, 64, 0
3, 142080, Control_c, 1, 64, 0
3, 142320, Control_c, 1, 64, 127
3, 142320, Control_c, 1, 64, 127
3, 142320, Control_c, 1, 64, 127
3, 142365, Note_off_c, 1, 57, 64
3, 142395, Note_off_c, 1, 54, 64
3, 142560, Note_on_c, 1, 59, 53
3, 142560, Note_on_c, 1, 55, 53
3, 142680, Control_c, 1, 64, 0
3, 142680, Control_c, 1, 64, 0
3, 142680, Control_c, 1, 64, 0
3, 142800, Control_c, 1, 64, 127
3, 142800, Control_c, 1, 64, 127
3, 142800, Control_c, 1, 64, 127
3, 142807, Note_off_c, 1, 59, 64
3, 142820, Note_off_c, 1, 55, 64
3, 143040, Control_c, 1, 64, 0
3, 143040, Control_c, 1, 64, 0
3, 143040, Control_c, 1, 64, 0
3, 143040, Note_on_c, 1, 57, 60
3, 143040, Note_on_c, 1, 60, 60
3, 143400, Control_c, 1, 64, 127
3, 143400, Control_c, 1, 64, 127
3, 143400, Control_c, 1, 64, 127
3, 143513, Note_off_c, 1, 57, 64
3, 143520, Control_c, 1, 64, 0
3, 143520, Control_c, 1, 64, 0
3, 143520, Control_c, 1, 64, 0
3, 143520, Note_on_c, 1, 59, 68
3, 143520, Note_on_c, 1, 62, 68
3, 143528, Note_off_c, 1, 60, 64
3, 143760, Control_c, 1, 64, 127
3, 143760, Control_c, 1, 64, 127
3, 143760, Control_c, 1, 64, 127
3, 144000, Control_c, 1, 64, 0
3, 144000, Control_c, 1, 64, 0
3, 144000, Control_c, 1, 64, 0
3, 144000, Note_on_c, 1, 57, 69
3, 144000, Note_on_c, 1, 60, 69
3, 144033, Note_off_c, 1, 62, 64
3, 144043, Note_off_c, 1, 59, 64
3, 144120, Control_c, 1, 64, 127
3, 144120, Control_c, 1, 64, 127
3, 144120, Control_c, 1, 64, 127
3, 144225, Note_off_c, 1, 57, 64
3, 144246, Note_off_c, 1, 60, 64
3, 144480, Control_c, 1, 64, 0
3, 144480, Control_c, 1, 64, 0
3, 144480, Control_c, 1, 64, 0
3, 144480, Note_on_c, 1, 59, 55
3, 144480, Note_on_c, 1, 55, 55
3, 144600, Control_c, 1, 64, 127
3, 144600, Control_c, 1, 64, 127
3, 144600, Control_c, 1, 64, 127
3, 144695, Note_off_c, 1, 59, 64
3, 144720, Control_c, 1, 64, 0
3, 144720, Control_c, 1, 64, 0
3, 144720, Control_c, 1, 64, 0
3, 144726, Note_off_c, 1, 55, 64
3, 144960, Note_on_c, 1, 55, 48
3, 144960, Note_on_c, 1, 59, 48
3, 145440, Note_off_c, 1, 59, 64
3, 145440, Note_off_c, 1, 55, 64
3, 145440, Note_on_c, 1, 60, 57
3, 145440, Note_on_c, 1, 57, 57
3, 145680, Control_c, 1, 64, 127
3, 145680, Control_c, 1, 64, 127
3, 145680, Control_c, 1, 64, 127
3, 145920, Note_off_c, 1, 57, 64
3, 145920, Note_off_c, 1, 60, 64
3, 145920, Note_on_c, 1, 59, 27
3, 145920, Note_on_c, 1, 52, 27
3, 145920, Note_on_c, 1, 55, 27
3, 145920, Control_c, 1, 64, 0
3, 145920, Control_c, 1, 64, 0
3, 145920, Control_c, 1, 64, 0
3, 146330, Note_off_c, 1, 55, 64
3, 146330, Note_off_c, 1, 52, 64
3, 146330, Note_off_c, 1, 59, 64
3, 146880, Note_on_c, 1, 59, 35
3, 146880, Note_on_c, 1, 55, 35
3, 147120, Control_c, 1, 64, 127
3, 147120, Control_c, 1, 64, 127
3, 147120, Control_c, 1, 64, 127
3, 147360, Note_off_c, 1, 55, 64
3, 147360, Note_off_c, 1, 59, 64
3, 147360, Note_on_c, 1, 59, 31
3, 147360, Note_on_c, 1, 53, 31
3, 147360, Note_on_c, 1, 55, 31
3, 147360, Control_c, 1, 64, 0
3, 147360, Control_c, 1, 64, 0
3, 147360, Control_c, 1, 64, 0
3, 147600, Control_c, 1, 64, 127
3, 147600, Control_c, 1, 64, 127
3, 147600, Control_c, 1, 64, 127
3, 147840, Note_off_c, 1, 55, 64
3, 147840, Note_off_c, 1, 53, 64
3, 147840, Note_off_c, 1, 59, 64
3, 147840, Note_on_c, 1, 55, 22
3, 147840, Note_on_c, 1, 52, 22
3, 147840, Control_c, 1, 64, 0
3, 147840, Control_c, 1, 64, 0
3, 147840, Control_c, 1, 64, 0
3, 148250, Note_off_c, 1, 52, 64
3, 148250, Note_off_c, 1, 55, 64
3, 148800, Note_on_c, 1, 55, 60
3, 148800, Note_on_c, 1, 52, 60
3, 148920, Control_c, 1, 64, 127
3, 148920, Control_c, 1, 64, 127
3, 148920, Control_c, 1, 64, 127
3, 149280, Note_off_c, 1, 52, 64
3, 149280, Note_off_c, 1, 55, 64
3, 149280, Note_on_c, 1, 56, 49
3, 149280, Note_on_c, 1, 50, 49
3, 149280, Note_on_c, 1, 53, 49
3, 149280, Control_c, 1, 64, 0
3, 149280, Control_c, 1, 64, 0
3, 149280, Control_c, 1, 64, 0
3, 149400, Control_c, 1, 64, 127
3, 149400, Control_c, 1, 64, 127
3, 149400, Control_c, 1, 64, 127
3, 149760, Note_off_c, 1, 53, 64
3, 149760, Note_off_c, 1, 50, 64
3, 149760, Note_off_c, 1, 56, 64
3, 149760, Note_on_c, 1, 52, 40
3, 149760, Note_on_c, 1, 48, 40
3, 149760, Note_on_c, 1, 57, 40
3, 149760, Control_c, 1, 64, 0
3, 149760, Control_c, 1, 64, 0
3, 149760, Control_c, 1, 64, 0
3, 150228, Note_off_c, 1, 57, 64
3, 150228, Note_off_c, 1, 48, 64
3, 150228, Note_off_c, 1, 52, 64
3, 150720, Note_on_c, 1, 59, 24
3, 150720, Note_on_c, 1, 50, 24
3, 151200, Note_off_c, 1, 50, 64
3, 151200, Note_off_c, 1, 59, 64
3, 151200, Note_on_c, 1, 54, 20
3, 151300, Note_off_c, 1, 54, 64
3, 151680, Note_on_c, 1, 54, 27
3, 151680, Note_on_c, 1, 43, 27
3, 152160, Note_off_c, 1, 43, 64
3, 152160, Note_off_c, 1, 54, 64
3, 152160, Note_on_c, 1, 55, 20
3, 152260, Note_off_c, 1, 55, 64
3, 152400, Control_c, 1, 64, 127
3, 152400, Control_c, 1, 64, 127
3, 152400, Control_c, 1, 64, 127
3, 152520, Control_c, 1, 64, 0
3, 152520, Control_c, 1, 64, 0
3, 152520, Control_c, 1, 64, 0
3, 152640, Note_on_c, 1, 59, 59
3, 152640, Note_on_c, 1, 62, 59
3, 152880, Control_c, 1, 64, 127
3, 152880, Control_c, 1, 64, 127
3, 152880, Control_c, 1, 64, 127
3, 153000, Control_c, 1, 64, 0
3, 153000, Control_c, 1, 64, 0
3, 153000, Control_c, 1, 64, 0
3, 153120, Note_off_c, 1, 62, 64
3, 153120, Note_off_c, 1, 59, 64
3, 153120, Note_on_c, 1, 63, 55
3, 153120, Note_on_c, 1, 57, 55
3, 153120, Note_on_c, 1, 60, 55
3, 153360, Control_c, 1, 64, 127
3, 153360, Control_c, 1, 64, 127
3, 153360, Control_c, 1, 64, 127
3, 153600, Note_off_c, 1, 60, 64
3, 153600, Note_off_c, 1, 57, 64
3, 153600, Note_off_c, 1, 63, 64
3, 153600, Control_c, 1, 64, 0
3, 153600, Control_c, 1, 64, 0
3, 153600, Control_c, 1, 64, 0
3, 153600, Note_on_c, 1, 55, 40
3, 153600, Note_on_c, 1, 64, 40
3, 153600, Note_on_c, 1, 59, 40
3, 154010, Note_off_c, 1, 59, 64
3, 154010, Note_off_c, 1, 64, 64
3, 154010, Note_off_c, 1, 55, 64
3, 154560, Note_on_c, 1, 71, 31
3, 154560, Note_on_c, 1, 67, 31
3, 154680, Control_c, 1, 64, 127
3, 154680, Control_c, 1, 64, 127
3, 154680, Control_c, 1, 64, 127
3, 155040, Note_off_c, 1, 67, 64
3, 155040, Note_off_c, 1, 71, 64
3, 155040, Control_c, 1, 64, 0
3, 155040, Control_c, 1, 64, 0
3, 155040, Control_c, 1, 64, 0
3, 155040, Note_on_c, 1, 71, 24
3, 155040, Note_on_c, 1, 65, 24
3, 155040, Note_on_c, 1, 67, 24
3, 155280, Control_c, 1, 64, 127
3, 155280, Control_c, 1, 64, 127
3, 155280, Control_c, 1, 64, 127
3, 155520, Note_off_c, 1, 67, 64
3, 155520, Note_off_c, 1, 65, 64
3, 155520, Note_off_c, 1, 71, 64
3, 155520, Control_c, 1, 64, 0
3, 155520, Control_c, 1, 64, 0
3, 155520, Control_c, 1, 64, 0
3, 155520, Note_on_c, 1, 72, 19
3, 155520, Note_on_c, 1, 67, 19
3, 155520, Note_on_c, 1, 64, 19
3, 155930, Note_off_c, 1, 64, 64
3, 155930, Note_off_c, 1, 67, 64
3, 155930, Note_off_c, 1, 72, 64
3, 156480, Note_on_c, 1, 67, 30
3, 156480, Note_on_c, 1, 64, 30
3, 156600, Control_c, 1, 64, 127
3, 156720, Control_c, 1, 64, 127
3, 156720, Control_c, 1, 64, 127
3, 156960, Note_off_c, 1, 64, 64
3, 156960, Note_off_c, 1, 67, 64
3, 156960, Control_c, 1, 64, 0
3, 156960, Control_c, 1, 64, 0
3, 156960, Control_c, 1, 64, 0
3, 156960, Note_on_c, 1, 62, 39
3, 156960, Note_on_c, 1, 65, 39
3, 156960, Note_on_c, 1, 68, 39
3, 157080, Control_c, 1, 64, 127
3, 157080, Control_c, 1, 64, 127
3, 157080, Control_c, 1, 64, 127
3, 157440, Note_off_c, 1, 68, 64
3, 157440, Note_off_c, 1, 65, 64
3, 157440, Note_off_c, 1, 62, 64
3, 157440, Control_c, 1, 64, 0
3, 157440, Control_c, 1, 64, 0
3, 157440, Control_c, 1, 64, 0
3, 157440, Note_on_c, 1, 60, 49
3, 157440, Note_on_c, 1, 69, 49
3, 157440, Note_on_c, 1, 64, 49
3, 157947, Note_off_c, 1, 60, 64
3, 157948, Note_off_c, 1, 64, 64
3, 157965, Note_off_c, 1, 69, 64
3, 158400, Note_on_c, 1, 71, 35
3, 158400, Note_on_c, 1, 67, 35
3, 158400, Note_on_c, 1, 62, 35
3, 158665, Note_off_c, 1, 67, 64
3, 158667, Note_off_c, 1, 62, 64
3, 158669, Note_off_c, 1, 71, 64
3, 159360, Note_on_c, 1, 62, 31
3, 159360, Note_on_c, 1, 67, 31
3, 159360, Note_on_c, 1, 71, 31
3, 159643, Note_off_c, 1, 71, 64
3, 159648, Note_off_c, 1, 67, 64
3, 159652, Note_off_c, 1, 62, 64
3, 160200, Note_on_c, 1, 62, 54
3, 160200, Note_on_c, 1, 67, 61
3, 160320, Note_on_c, 1, 72, 75
3, 160920, Control_c, 1, 64, 127
3, 160920, Control_c, 1, 64, 127
3, 160920, Control_c, 1, 64, 127
3, 161096, Note_off_c, 1, 67, 64
3, 161146, Note_off_c, 1, 72, 64
3, 161162, Note_off_c, 1, 62, 64
3, 161280, Note_on_c, 1, 66, 46
3, 161280, Note_on_c, 1, 72, 46
3, 161280, Note_on_c, 1, 62, 46
3, 161280, Control_c, 1, 64, 0
3, 161280, Control_c, 1, 64, 0
3, 161280, Control_c, 1, 64, 0
3, 161760, Control_c, 1, 64, 127
3, 161760, Control_c, 1, 64, 127
3, 161760, Control_c, 1, 64, 127
3, 161841, Note_off_c, 1, 66, 64
3, 161850, Note_off_c, 1, 62, 64
3, 161874, Note_off_c, 1, 72, 64
3, 162240, Note_on_c, 1, 71, 42
3, 162240, Note_on_c, 1, 67, 42
3, 162240, Control_c, 1, 64, 0
3, 162240, Control_c, 1, 64, 0
3, 162240, Control_c, 1, 64, 0
3, 162952, Note_off_c, 1, 71, 64
3, 162956, Note_off_c, 1, 67, 64
3, 164160, Note_on_c, 1, 62, 28
3, 164160, Note_on_c, 1, 55, 28
3, 164640, Note_on_c, 1, 57, 31
3, 164661, Note_off_c, 1, 55, 64
3, 165000, Note_on_c, 1, 55, 30
3, 165004, Note_off_c, 1, 57, 64
3, 165057, Note_off_c, 1, 62, 64
3, 165084, Note_off_c, 1, 55, 64
3, 165120, Note_on_c, 1, 54, 42
3, 165120, Note_on_c, 1, 62, 42
3, 165600, Note_on_c, 1, 55, 35
3, 165647, Note_off_c, 1, 54, 64
3, 165880, Note_off_c, 1, 55, 64
3, 165957, Note_off_c, 1, 62, 64
3, 165960, Control_c, 1, 64, 127
3, 165960, Control_c, 1, 64, 127
3, 165960, Control_c, 1, 64, 127
3, 165960, Control_c, 1, 64, 0
3, 165960, Control_c, 1, 64, 0
3, 165960, Control_c, 1, 64, 0
3, 166080, Note_on_c, 1, 57, 42
3, 166080, Note_on_c, 1, 62, 42
3, 166551, Note_off_c, 1, 57, 64
3, 166560, Note_on_c, 1, 54, 30
3, 166800, Control_c, 1, 64, 127
3, 166800, Control_c, 1, 64, 127
3, 166800, Control_c, 1, 64, 127
3, 166840, Note_off_c, 1, 54, 64
3, 166909, Note_off_c, 1, 62, 64
3, 166920, Control_c, 1, 64, 0
3, 166920, Control_c, 1, 64, 0
3, 166920, Control_c, 1, 64, 0
3, 167040, Note_on_c, 1, 62, 30
3, 167040, Note_on_c, 1, 55, 30
3, 167713, Note_off_c, 1, 55, 64
3, 167726, Note_off_c, 1, 62, 64
3, 168000, Note_on_c, 1, 64, 66
3, 168000, Note_on_c, 1, 52, 66
3, 168153, Note_off_c, 1, 52, 64
3, 168153, Note_off_c, 1, 64, 64
3, 168480, Note_on_c, 1, 62, 69
3, 168480, Note_on_c, 1, 50, 69
3, 168600, Note_off_c, 1, 50, 64
3, 168600, Note_off_c, 1, 62, 64
3, 168960, Note_on_c, 1, 48, 84
3, 168960, Note_on_c, 1, 60, 84
3, 169320, Control_c, 1, 64, 127
3, 169320, Control_c, 1, 64, 127
3, 169320, Control_c, 1, 64, 127
3, 169440, Note_off_c, 1, 60, 64
3, 169440, Note_off_c, 1, 48, 64
3, 169440, Control_c, 1, 64, 0
3, 169440, Control_c, 1, 64, 0
3, 169440, Control_c, 1, 64, 0
3, 169680, Note_on_c, 1, 59, 44
3, 169747, Note_off_c, 1, 59, 64
3, 169920, Note_on_c, 1, 62, 39
3, 169920, Note_on_c, 1, 54, 39
3, 170394, Note_off_c, 1, 54, 64
3, 170400, Note_on_c, 1, 55, 30
3, 170749, Note_off_c, 1, 55, 64
3, 170760, Control_c, 1, 64, 127
3, 170760, Control_c, 1, 64, 127
3, 170760, Control_c, 1, 64, 127
3, 170760, Control_c, 1, 64, 0
3, 170760, Control_c, 1, 64, 0
3, 170760, Control_c, 1, 64, 0
3, 170770, Note_off_c, 1, 62, 64
3, 170888, Note_on_c, 1, 50, 39
3, 170888, Note_on_c, 1, 62, 39
3, 171514, Note_off_c, 1, 50, 64
3, 171548, Note_off_c, 1, 62, 64
3, 171840, Note_on_c, 1, 55, 35
3, 171840, Note_on_c, 1, 62, 35
3, 172306, Note_off_c, 1, 55, 64
3, 172320, Note_on_c, 1, 57, 30
3, 172558, Note_off_c, 1, 57, 64
3, 172560, Note_on_c, 1, 55, 26
3, 172680, Control_c, 1, 64, 127
3, 172680, Control_c, 1, 64, 127
3, 172680, Control_c, 1, 64, 127
3, 172694, Note_off_c, 1, 62, 64
3, 172710, Note_off_c, 1, 55, 64
3, 172800, Control_c, 1, 64, 0
3, 172800, Control_c, 1, 64, 0
3, 172800, Control_c, 1, 64, 0
3, 172800, Note_on_c, 1, 62, 22
3, 172800, Note_on_c, 1, 54, 22
3, 173062, Note_off_c, 1, 54, 64
3, 173070, Note_off_c, 1, 62, 64
3, 173280, Note_on_c, 1, 55, 31
3, 173280, Note_on_c, 1, 62, 31
3, 173389, Note_off_c, 1, 62, 64
3, 173390, Note_off_c, 1, 55, 64
3, 173760, Note_on_c, 1, 62, 49
3, 173760, Note_on_c, 1, 57, 49
3, 173809, Note_off_c, 1, 57, 64
3, 173816, Note_off_c, 1, 62, 64
3, 174240, Note_on_c, 1, 54, 39
3, 174240, Note_on_c, 1, 62, 39
3, 174292, Note_off_c, 1, 54, 64
3, 174303, Note_off_c, 1, 62, 64
3, 174720, Note_on_c, 1, 55, 28
3, 174720, Note_on_c, 1, 62, 28
3, 175394, Note_off_c, 1, 55, 64
3, 175423, Note_off_c, 1, 62, 64
3, 175680, Note_on_c, 1, 52, 64
3, 175680, Note_on_c, 1, 64, 64
3, 175800, Note_off_c, 1, 64, 64
3, 175800, Note_off_c, 1, 52, 64
3, 176160, Note_on_c, 1, 62, 60
3, 176160, Note_on_c, 1, 50, 60
3, 176280, Note_off_c, 1, 50, 64
3, 176280, Note_off_c, 1, 62, 64
3, 176640, Note_on_c, 1, 48, 66
3, 176640, Note_on_c, 1, 60, 66
3, 176880, Control_c, 1, 64, 127
3, 176880, Control_c, 1, 64, 127
3, 176880, Control_c, 1, 64, 127
3, 176990, Note_off_c, 1, 48, 64
3, 177031, Note_off_c, 1, 60, 64
3, 177120, Control_c, 1, 64, 0
3, 177120, Control_c, 1, 64, 0
3, 177120, Control_c, 1, 64, 0
3, 177360, Note_on_c, 1, 67, 48
3, 177360, Note_on_c, 1, 64, 48
3, 177412, Note_off_c, 1, 64, 64
3, 177419, Note_off_c, 1, 67, 64
3, 177600, Note_on_c, 1, 62, 37
3, 177600, Note_on_c, 1, 67, 37
3, 177960, Control_c, 1, 64, 127
3, 177960, Control_c, 1, 64, 127
3, 177960, Control_c, 1, 64, 127
3, 178001, Note_off_c, 1, 67, 64
3, 178080, Note_on_c, 1, 66, 37
3, 178080, Control_c, 1, 64, 0
3, 178080, Control_c, 1, 64, 0
3, 178080, Control_c, 1, 64, 0
3, 178303, Note_off_c, 1, 62, 64
3, 178318, Note_off_c, 1, 66, 64
3, 178320, Control_c, 1, 64, 127
3, 178320, Control_c, 1, 64, 127
3, 178320, Control_c, 1, 64, 127
3, 178560, Note_on_c, 1, 55, 22
3, 178560, Control_c, 1, 64, 0
3, 178560, Control_c, 1, 64, 0
3, 178560, Control_c, 1, 64, 0
3, 178800, Note_on_c, 1, 59, 31
3, 179040, Control_c, 1, 64, 127
3, 179040, Control_c, 1, 64, 127
3, 179040, Control_c, 1, 64, 127
3, 179040, Note_on_c, 1, 62, 42
3, 179072, Note_off_c, 1, 59, 64
3, 179278, Note_off_c, 1, 62, 64
3, 179280, Note_on_c, 1, 59, 31
3, 179312, Note_off_c, 1, 55, 64
3, 179322, Note_off_c, 1, 59, 64
3, 179520, Note_on_c, 1, 48, 39
3, 179520, Control_c, 1, 64, 0
3, 179520, Control_c, 1, 64, 0
3, 179520, Control_c, 1, 64, 0
3, 179760, Note_on_c, 1, 52, 22
3, 180000, Note_on_c, 1, 57, 30
3, 180117, Note_off_c, 1, 52, 64
3, 180120, Control_c, 1, 64, 127
3, 180120, Control_c, 1, 64, 127
3, 180120, Control_c, 1, 64, 127
3, 180239, Note_off_c, 1, 57, 64
3, 180240, Note_on_c, 1, 52, 28
3, 180270, Note_off_c, 1, 48, 64
3, 180303, Note_off_c, 1, 52, 64
3, 180480, Control_c, 1, 64, 0
3, 180480, Control_c, 1, 64, 0
3, 180480, Control_c, 1, 64, 0
3, 180480, Note_on_c, 1, 50, 28
3, 180720, Note_on_c, 1, 60, 24
3, 180960, Control_c, 1, 64, 127
3, 180960, Control_c, 1, 64, 127
3, 180960, Control_c, 1, 64, 127
3, 180960, Note_on_c, 1, 57, 28
3, 180970, Note_off_c, 1, 60, 64
3, 181200, Note_on_c, 1, 60, 22
3, 181224, Note_off_c, 1, 57, 64
3, 181242, Note_off_c, 1, 50, 64
3, 181323, Note_off_c, 1, 60, 64
3, 181440, Note_on_c, 1, 55, 28
3, 181440, Control_c, 1, 64, 0
3, 181440, Control_c, 1, 64, 0
3, 181440, Control_c, 1, 64, 0
3, 181680, Note_on_c, 1, 59, 49
3, 181920, Note_on_c, 1, 62, 52
3, 181973, Note_off_c, 1, 59, 64
3, 182040, Control_c, 1, 64, 127
3, 182040, Control_c, 1, 64, 127
3, 182157, Note_off_c, 1, 55, 64
3, 182160, Control_c, 1, 64, 127
3, 182160, Note_on_c, 1, 59, 44
3, 182177, Note_off_c, 1, 62, 64
3, 182216, Note_off_c, 1, 59, 64
3, 182400, Control_c, 1, 64, 0
3, 182400, Control_c, 1, 64, 0
3, 182400, Control_c, 1, 64, 0
3, 182400, Note_on_c, 1, 52, 19
3, 182640, Note_on_c, 1, 55, 30
3, 182880, Note_on_c, 1, 59, 40
3, 182927, Note_off_c, 1, 55, 64
3, 183000, Control_c, 1, 64, 127
3, 183000, Control_c, 1, 64, 127
3, 183000, Control_c, 1, 64, 127
3, 183120, Note_on_c, 1, 55, 30
3, 183121, Note_off_c, 1, 59, 64
3, 183143, Note_off_c, 1, 52, 64
3, 183167, Note_off_c, 1, 55, 64
3, 183360, Note_on_c, 1, 48, 40
3, 183360, Control_c, 1, 64, 0
3, 183360, Control_c, 1, 64, 0
3, 183360, Control_c, 1, 64, 0
3, 183600, Note_on_c, 1, 52, 31
3, 183840, Note_on_c, 1, 57, 37
3, 183919, Note_off_c, 1, 52, 64
3, 183960, Control_c, 1, 64, 127
3, 183960, Control_c, 1, 64, 127
3, 183960, Control_c, 1, 64, 127
3, 184034, Note_off_c, 1, 57, 64
3, 184071, Note_off_c, 1, 48, 64
3, 184080, Note_on_c, 1, 52, 40
3, 184132, Note_off_c, 1, 52, 64
3, 184320, Control_c, 1, 64, 0
3, 184320, Control_c, 1, 64, 0
3, 184320, Control_c, 1, 64, 0
3, 184320, Note_on_c, 1, 50, 35
3, 184560, Note_on_c, 1, 60, 44
3, 184800, Note_on_c, 1, 57, 40
3, 184805, Note_off_c, 1, 60, 64
3, 185040, Note_on_c, 1, 60, 28
3, 185040, Control_c, 1, 64, 127
3, 185040, Control_c, 1, 64, 127
3, 185040, Control_c, 1, 64, 127
3, 185050, Note_off_c, 1, 57, 64
3, 185083, Note_off_c, 1, 50, 64
3, 185084, Note_off_c, 1, 60, 64
3, 185160, Control_c, 1, 64, 0
3, 185160, Control_c, 1, 64, 0
3, 185160, Control_c, 1, 64, 0
3, 185280, Note_on_c, 1, 43, 51
3, 185520, Note_on_c, 1, 55, 37
3, 185760, Note_on_c, 1, 59, 40
3, 185880, Control_c, 1, 64, 127
3, 185880, Control_c, 1, 64, 127
3, 185880, Control_c, 1, 64, 127
3, 185948, Note_off_c, 1, 59, 64
3, 186000, Note_on_c, 1, 62, 46
3, 186043, Note_off_c, 1, 55, 64
3, 186057, Note_off_c, 1, 43, 64
3, 186064, Note_off_c, 1, 62, 64
3, 186240, Control_c, 1, 64, 0
3, 186240, Control_c, 1, 64, 0
3, 186240, Control_c, 1, 64, 0
3, 186240, Note_on_c, 1, 40, 60
3, 186480, Note_on_c, 1, 52, 37
3, 186720, Control_c, 1, 64, 127
3, 186720, Control_c, 1, 64, 127
3, 186720, Control_c, 1, 64, 127
3, 186720, Note_on_c, 1, 55, 42
3, 186884, Note_off_c, 1, 55, 64
3, 186932, Note_off_c, 1, 40, 64
3, 186955, Note_off_c, 1, 52, 64
3, 186960, Note_on_c, 1, 59, 49
3, 187004, Note_off_c, 1, 59, 64
3, 187200, Control_c, 1, 64, 0
3, 187200, Control_c, 1, 64, 0
3, 187200, Control_c, 1, 64, 0
3, 187200, Note_on_c, 1, 36, 72
3, 187440, Note_on_c, 1, 48, 39
3, 187680, Note_on_c, 1, 52, 46
3, 187680, Control_c, 1, 64, 127
3, 187680, Control_c, 1, 64, 127
3, 187680, Control_c, 1, 64, 127
3, 187680, Control_c, 1, 64, 127
3, 187680, Control_c, 1, 64, 127
3, 187680, Control_c, 1, 64, 127
3, 187920, Note_on_c, 1, 57, 57
3, 187925, Note_off_c, 1, 52, 64
3, 187934, Note_off_c, 1, 48, 64
3, 187962, Note_off_c, 1, 57, 64
3, 188021, Note_off_c, 1, 36, 64
3, 188160, Note_on_c, 1, 38, 71
3, 188160, Control_c, 1, 64, 0
3, 188160, Control_c, 1, 64, 0
3, 188160, Control_c, 1, 64, 0
3, 188160, Control_c, 1, 64, 0
3, 188160, Control_c, 1, 64, 0
3, 188160, Control_c, 1, 64, 0
3, 188400, Note_on_c, 1, 50, 51
3, 188640, Note_on_c, 1, 57, 60
3, 188760, Control_c, 1, 64, 127
3, 188760, Control_c, 1, 64, 127
3, 188760, Control_c, 1, 64, 127
3, 188875, Note_off_c, 1, 57, 64
3, 188880, Note_on_c, 1, 60, 53
3, 188947, Note_off_c, 1, 60, 64
3, 188969, Note_off_c, 1, 50, 64
3, 188975, Note_off_c, 1, 38, 64
3, 189120, Control_c, 1, 64, 0
3, 189120, Control_c, 1, 64, 0
3, 189120, Control_c, 1, 64, 0
3, 189120, Control_c, 1, 64, 0
3, 189120, Control_c, 1, 64, 0
3, 189120, Control_c, 1, 64, 0
3, 189120, Note_on_c, 1, 35, 79
3, 189360, Note_on_c, 1, 47, 49
3, 189600, Control_c, 1, 64, 127
3, 189600, Control_c, 1, 64, 127
3, 189600, Control_c, 1, 64, 127
3, 189600, Note_on_c, 1, 50, 60
3, 189806, Note_off_c, 1, 35, 64
3, 189820, Note_off_c, 1, 50, 64
3, 189840, Note_on_c, 1, 55, 59
3, 189847, Note_off_c, 1, 47, 64
3, 189880, Note_off_c, 1, 55, 64
3, 190080, Control_c, 1, 64, 0
3, 190080, Control_c, 1, 64, 0
3, 190080, Control_c, 1, 64, 0
3, 190080, Control_c, 1, 64, 0
3, 190080, Control_c, 1, 64, 0
3, 190080, Control_c, 1, 64, 0
3, 190080, Note_on_c, 1, 40, 82
3, 190320, Note_on_c, 1, 52, 49
3, 190320, Control_c, 1, 64, 127
3, 190320, Control_c, 1, 64, 127
3, 190320, Control_c, 1, 64, 127
3, 190560, Note_on_c, 1, 55, 55
3, 190729, Note_off_c, 1, 52, 64
3, 190744, Note_off_c, 1, 40, 64
3, 190765, Note_off_c, 1, 55, 64
3, 190800, Note_on_c, 1, 59, 64
3, 190833, Note_off_c, 1, 59, 64
3, 191040, Note_on_c, 1, 36, 82
3, 191040, Control_c, 1, 64, 0
3, 191040, Control_c, 1, 64, 0
3, 191040, Control_c, 1, 64, 0
3, 191280, Note_on_c, 1, 48, 47
3, 191520, Control_c, 1, 64, 127
3, 191520, Control_c, 1, 64, 127
3, 191520, Control_c, 1, 64, 127
3, 191520, Note_on_c, 1, 52, 53
3, 191724, Note_off_c, 1, 52, 64
3, 191755, Note_off_c, 1, 48, 64
3, 191760, Note_on_c, 1, 57, 59
3, 191790, Note_off_c, 1, 36, 64
3, 191793, Note_off_c, 1, 57, 64
3, 192000, Control_c, 1, 64, 0
3, 192000, Control_c, 1, 64, 0
3, 192000, Control_c, 1, 64, 0
3, 192000, Control_c, 1, 64, 0
3, 192000, Control_c, 1, 64, 0
3, 192000, Control_c, 1, 64, 0
3, 192000, Note_on_c, 1, 38, 73
3, 192240, Note_on_c, 1, 50, 39
3, 192480, Control_c, 1, 64, 127
3, 192480, Control_c, 1, 64, 127
3, 192480, Control_c, 1, 64, 127
3, 192480, Note_on_c, 1, 57, 34
3, 192585, Note_off_c, 1, 38, 64
3, 192681, Note_off_c, 1, 50, 64
3, 192703, Note_off_c, 1, 57, 64
3, 192720, Note_on_c, 1, 60, 26
3, 192766, Note_off_c, 1, 60, 64
3, 192960, Note_on_c, 1, 55, 48
3, 192960, Control_c, 1, 64, 0
3, 192960, Control_c, 1, 64, 0
3, 192960, Control_c, 1, 64, 0
3, 193200, Note_on_c, 1, 59, 31
3, 193200, Note_on_c, 1, 62, 31
3, 193235, Note_off_c, 1, 62, 64
3, 193235, Note_off_c, 1, 59, 64
3, 193431, Note_off_c, 1, 55, 64
3, 193440, Note_on_c, 1, 62, 28
3, 193440, Note_on_c, 1, 59, 28
3, 193478, Note_off_c, 1, 59, 64
3, 193478, Note_off_c, 1, 62, 64
3, 193680, Note_on_c, 1, 62, 27
3, 193680, Note_on_c, 1, 59, 27
3, 193716, Note_off_c, 1, 59, 64
3, 193716, Note_off_c, 1, 62, 64
3, 193920, Note_on_c, 1, 50, 48
3, 194160, Note_on_c, 1, 60, 38
3, 194160, Note_on_c, 1, 62, 38
3, 194177, Note_off_c, 1, 50, 64
3, 194192, Note_off_c, 1, 60, 64
3, 194196, Note_off_c, 1, 62, 64
3, 194400, Note_on_c, 1, 62, 28
3, 194400, Note_on_c, 1, 60, 28
3, 194440, Note_off_c, 1, 60, 64
3, 194444, Note_off_c, 1, 62, 64
3, 194640, Note_on_c, 1, 62, 26
3, 194640, Note_on_c, 1, 60, 26
3, 194683, Note_off_c, 1, 60, 64
3, 194688, Note_off_c, 1, 62, 64
3, 194880, Note_on_c, 1, 55, 47
3, 195120, Note_on_c, 1, 59, 33
3, 195120, Note_on_c, 1, 62, 33
3, 195154, Note_off_c, 1, 55, 64
3, 195162, Note_off_c, 1, 59, 64
3, 195164, Note_off_c, 1, 62, 64
3, 195360, Note_on_c, 1, 62, 24
3, 195360, Note_on_c, 1, 59, 24
3, 195410, Note_off_c, 1, 59, 64
3, 195418, Note_off_c, 1, 62, 64
3, 195600, Note_on_c, 1, 62, 24
3, 195600, Note_on_c, 1, 59, 24
3, 195644, Note_off_c, 1, 59, 64
3, 195652, Note_off_c, 1, 62, 64
3, 195840, Note_on_c, 1, 50, 48
3, 195840, Note_on_c, 1, 50, 48
3, 196080, Note_on_c, 1, 60, 31
3, 196080, Note_on_c, 1, 62, 31
3, 196119, Note_off_c, 1, 60, 64
3, 196123, Note_off_c, 1, 62, 64
3, 196125, Note_off_c, 1, 50, 64
3, 196125, Note_off_c, 1, 50, 64
3, 196320, Note_on_c, 1, 60, 26
3, 196320, Note_on_c, 1, 62, 26
3, 196360, Note_off_c, 1, 62, 64
3, 196361, Note_off_c, 1, 60, 64
3, 196560, Note_on_c, 1, 62, 26
3, 196560, Note_on_c, 1, 60, 26
3, 196602, Note_off_c, 1, 60, 64
3, 196605, Note_off_c, 1, 62, 64
3, 196800, Note_on_c, 1, 59, 41
3, 196800, Note_on_c, 1, 55, 41
3, 196800, Note_on_c, 1, 62, 41
3, 196920, Control_c, 1, 64, 127
3, 196920, Control_c, 1, 64, 127
3, 196920, Control_c, 1, 64, 127
3, 196950, Note_off_c, 1, 62, 64
3, 196950, Note_off_c, 1, 55, 64
3, 196950, Note_off_c, 1, 59, 64
3, 197040, Control_c, 1, 64, 0
3, 197040, Control_c, 1, 64, 0
3, 197040, Control_c, 1, 64, 0
3, 197280, Note_on_c, 1, 54, 28
3, 197280, Note_on_c, 1, 60, 28
3, 197280, Note_on_c, 1, 50, 28
3, 197400, Note_off_c, 1, 50, 64
3, 197400, Note_off_c, 1, 60, 64
3, 197400, Note_off_c, 1, 54, 64
3, 197774, Note_on_c, 1, 59, 37
3, 197774, Note_on_c, 1, 55, 37
3, 197994, Note_off_c, 1, 55, 64
3, 197994, Note_off_c, 1, 59, 64
3, 198240, Note_on_c, 1, 50, 28
3, 198240, Note_on_c, 1, 60, 28
3, 198240, Note_on_c, 1, 54, 28
3, 198342, Note_off_c, 1, 60, 64
3, 198349, Note_off_c, 1, 50, 64
3, 198361, Note_off_c, 1, 54, 64
3, 198720, Note_on_c, 1, 55, 19
3, 198720, Note_on_c, 1, 59, 19
3, 200819, Note_off_c, 1, 55, 64
3, 200823, Note_off_c, 1, 59, 64
3, 200823, End_track
0, 0, End_of_file
