0, 0, Header, 1, 3, 240
1, 0, Start_track
1, 0, Time_signature, 2, 2, 24, 8
1, 0, Tempo, 400000
1, 240, Tempo, 400000
1, 720, Tempo, 400000
1, 1200, Tempo, 400000
1, 1680, Tempo, 400000
1, 2160, Tempo, 400000
1, 2640, Tempo, 400000
1, 3120, Tempo, 400000
1, 3600, Tempo, 400000
1, 4080, Tempo, 400000
1, 4560, Tempo, 400000
1, 5040, Tempo, 400000
1, 5520, Tempo, 400000
1, 6000, Tempo, 400000
1, 6480, Tempo, 400000
1, 6960, Tempo, 400000
1, 7440, Tempo, 400000
1, 7920, Tempo, 400000
1, 8400, Tempo, 400000
1, 8880, Tempo, 400000
1, 9360, Tempo, 400000
1, 9840, Tempo, 400000
1, 10320, Tempo, 400000
1, 10800, Tempo, 400000
1, 11280, Tempo, 400000
1, 11760, Tempo, 400000
1, 12240, Tempo, 400000
1, 12720, Tempo, 400000
1, 13200, Tempo, 400000
1, 13680, Tempo, 400000
1, 14160, Tempo, 400000
1, 14640, Tempo, 400000
1, 15120, Tempo, 400000
1, 15600, Tempo, 400000
1, 16080, Tempo, 400000
1, 16560, Tempo, 400000
1, 17040, Tempo, 400000
1, 17520, Tempo, 400000
1, 18000, Tempo, 400000
1, 18480, Tempo, 400000
1, 18960, Tempo, 400000
1, 19440, Tempo, 400000
1, 19920, Tempo, 400000
1, 20400, Tempo, 400000
1, 20880, Tempo, 400000
1, 21360, Tempo, 400000
1, 21840, Tempo, 400000
1, 22320, Tempo, 400000
1, 22800, Tempo, 400000
1, 23280, Tempo, 400000
1, 23760, Tempo, 400000
1, 24240, Tempo, 400000
1, 24720, Tempo, 400000
1, 25200, Tempo, 400000
1, 25680, Tempo, 400000
1, 26160, Tempo, 400000
1, 26640, Tempo, 400000
1, 27120, Tempo, 400000
1, 27600, Tempo, 400000
1, 28080, Tempo, 400000
1, 28560, Tempo, 400000
1, 29040, Tempo, 400000
1, 29520, Tempo, 400000
1, 30000, Tempo, 400000
1, 30480, Tempo, 400000
1, 30720, Tempo, 375000
1, 30960, Tempo, 375000
1, 31440, Tempo, 375000
1, 31920, Tempo, 375000
1, 32400, Tempo, 375000
1, 32880, Tempo, 375000
1, 33360, Tempo, 375000
1, 33840, Tempo, 375000
1, 34320, Tempo, 375000
1, 34800, Tempo, 375000
1, 35280, Tempo, 375000
1, 35760, Tempo, 375000
1, 36240, Tempo, 375000
1, 36720, Tempo, 375000
1, 37200, Tempo, 375000
1, 37680, Tempo, 375000
1, 38160, Tempo, 375000
1, 38640, Tempo, 375000
1, 39120, Tempo, 375000
1, 39600, Tempo, 375000
1, 40080, Tempo, 375000
1, 40560, Tempo, 375000
1, 41040, Tempo, 375000
1, 41520, Tempo, 375000
1, 42000, Tempo, 375000
1, 42480, Tempo, 375000
1, 42960, Tempo, 375000
1, 43440, Tempo, 375000
1, 43920, Tempo, 375000
1, 44400, Tempo, 375000
1, 44880, Tempo, 375000
1, 45360, Tempo, 375000
1, 45840, Tempo, 375000
1, 46320, Tempo, 375000
1, 46800, Tempo, 375000
1, 47280, Tempo, 375000
1, 47760, Tempo, 375000
1, 48240, Tempo, 375000
1, 48720, Tempo, 375000
1, 49200, Tempo, 375000
1, 49680, Tempo, 375000
1, 50160, Tempo, 375000
1, 50640, Tempo, 375000
1, 51120, Tempo, 375000
1, 51600, Tempo, 375000
1, 52080, Tempo, 375000
1, 52560, Tempo, 375000
1, 53040, Tempo, 375000
1, 53520, Tempo, 375000
1, 53760, Tempo, 400000
1, 54000, Tempo, 400000
1, 54480, Tempo, 400000
1, 54960, Tempo, 400000
1, 55440, Tempo, 400000
1, 55920, Tempo, 400000
1, 56400, Tempo, 400000
1, 56880, Tempo, 400000
1, 57360, Tempo, 400000
1, 57840, Tempo, 400000
1, 58320, Tempo, 400000
1, 58800, Tempo, 400000
1, 59280, Tempo, 400000
1, 59760, Tempo, 400000
1, 60240, Tempo, 400000
1, 60720, Tempo, 400000
1, 61200, Tempo, 400000
1, 61680, Tempo, 400000
1, 62160, Tempo, 400000
1, 62640, Tempo, 400000
1, 63120, Tempo, 400000
1, 63600, Tempo, 400000
1, 64080, Tempo, 400000
1, 64560, Tempo, 400000
1, 65040, Tempo, 400000
1, 65520, Tempo, 400000
1, 66000, Tempo, 400000
1, 66480, Tempo, 400000
1, 66960, Tempo, 400000
1, 67440, Tempo, 400000
1, 67920, Tempo, 400000
1, 68400, Tempo, 400000
1, 68880, Tempo, 400000
1, 69360, Tempo, 400000
1, 69840, Tempo, 400000
1, 70320, Tempo, 400000
1, 70800, Tempo, 400000
1, 71280, Tempo, 400000
1, 71760, Tempo, 400000
1, 72240, Tempo, 400000
1, 72720, Tempo, 400000
1, 73200, Tempo, 400000
1, 73680, Tempo, 400000
1, 74160, Tempo, 400000
1, 74640, Tempo, 400000
1, 75120, Tempo, 400000
1, 75600, Tempo, 400000
1, 76080, Tempo, 400000
1, 76560, Tempo, 400000
1, 77040, Tempo, 400000
1, 77520, Tempo, 400000
1, 78000, Tempo, 400000
1, 78480, Tempo, 400000
1, 78960, Tempo, 400000
1, 79440, Tempo, 400000
1, 79920, Tempo, 400000
1, 80400, Tempo, 400000
1, 80880, Tempo, 400000
1, 81360, Tempo, 400000
1, 81600, Tempo, 400000
1, 82320, Tempo, 400000
1, 82800, Tempo, 400000
1, 83280, Tempo, 400000
1, 83760, Tempo, 400000
1, 84240, Tempo, 400000
1, 84720, Tempo, 400000
1, 85200, Tempo, 400000
1, 85680, Tempo, 400000
1, 86160, Tempo, 400000
1, 86640, Tempo, 400000
1, 87120, Tempo, 400000
1, 87600, Tempo, 400000
1, 88080, Tempo, 400000
1, 88560, Tempo, 400000
1, 89040, Tempo, 400000
1, 89520, Tempo, 400000
1, 90000, Tempo, 400000
1, 90480, Tempo, 400000
1, 90960, Tempo, 400000
1, 91440, Tempo, 400000
1, 91920, Tempo, 400000
1, 92400, Tempo, 400000
1, 92880, Tempo, 400000
1, 93360, Tempo, 400000
1, 93840, Tempo, 400000
1, 94320, Tempo, 400000
1, 94800, Tempo, 400000
1, 95280, Tempo, 400000
1, 95760, Tempo, 400000
1, 96240, Tempo, 400000
1, 96720, Tempo, 400000
1, 97200, Tempo, 400000
1, 97680, Tempo, 400000
1, 98160, Tempo, 400000
1, 98640, Tempo, 400000
1, 99120, Tempo, 400000
1, 99600, Tempo, 400000
1, 100080, Tempo, 400000
1, 100560, Tempo, 400000
1, 101040, Tempo, 400000
1, 101520, Tempo, 400000
1, 102000, Tempo, 400000
1, 102480, Tempo, 400000
1, 102960, Tempo, 400000
1, 103440, Tempo, 400000
1, 103920, Tempo, 400000
1, 104400, Tempo, 400000
1, 104880, Tempo, 400000
1, 105360, Tempo, 400000
1, 105840, Tempo, 400000
1, 106320, Tempo, 400000
1, 106800, Tempo, 400000
1, 106800, End_track
2, 0, Start_track
2, 0, Title_t, "Right Hand"
2, 0, Program_c, 0, 0
2, 0, Control_c, 0, 7, 127
2, 0, Note_on_c, 0, 71, 68
2, 60, Note_off_c, 0, 71, 64
2, 60, Note_on_c, 0, 69, 68
2, 120, Note_off_c, 0, 69, 64
2, 120, Note_on_c, 0, 68, 68
2, 180, Note_off_c, 0, 68, 64
2, 180, Note_on_c, 0, 69, 68
2, 240, Note_off_c, 0, 69, 64
2, 240, Note_on_c, 0, 72, 68
2, 357, Note_off_c, 0, 72, 64
2, 480, Note_on_c, 0, 74, 68
2, 540, Note_off_c, 0, 74, 64
2, 540, Note_on_c, 0, 72, 68
2, 600, Note_off_c, 0, 72, 64
2, 600, Note_on_c, 0, 71, 68
2, 660, Note_off_c, 0, 71, 64
2, 660, Note_on_c, 0, 72, 68
2, 720, Note_off_c, 0, 72, 64
2, 720, Note_on_c, 0, 76, 68
2, 837, Note_off_c, 0, 76, 64
2, 960, Note_on_c, 0, 77, 68
2, 1020, Note_off_c, 0, 77, 64
2, 1020, Note_on_c, 0, 76, 68
2, 1080, Note_off_c, 0, 76, 64
2, 1080, Note_on_c, 0, 75, 68
2, 1140, Note_off_c, 0, 75, 64
2, 1140, Note_on_c, 0, 76, 68
2, 1200, Note_off_c, 0, 76, 64
2, 1200, Note_on_c, 0, 83, 68
2, 1260, Note_off_c, 0, 83, 64
2, 1260, Note_on_c, 0, 81, 68
2, 1320, Note_off_c, 0, 81, 64
2, 1320, Note_on_c, 0, 80, 68
2, 1380, Note_off_c, 0, 80, 64
2, 1380, Note_on_c, 0, 81, 68
2, 1440, Note_off_c, 0, 81, 64
2, 1440, Note_on_c, 0, 83, 68
2, 1500, Note_off_c, 0, 83, 64
2, 1500, Note_on_c, 0, 81, 68
2, 1560, Note_off_c, 0, 81, 64
2, 1560, Note_on_c, 0, 80, 68
2, 1620, Note_off_c, 0, 80, 64
2, 1620, Note_on_c, 0, 81, 68
2, 1677, Note_off_c, 0, 81, 64
2, 1680, Note_on_c, 0, 84, 70
2, 1880, Note_off_c, 0, 84, 64
2, 1920, Note_on_c, 0, 81, 68
2, 1960, Note_off_c, 0, 81, 64
2, 2040, Note_on_c, 0, 84, 68
2, 2080, Note_off_c, 0, 84, 64
2, 2160, Note_on_c, 0, 79, 68
2, 2190, Note_off_c, 0, 79, 64
2, 2190, Note_on_c, 0, 81, 68
2, 2220, Note_off_c, 0, 81, 64
2, 2220, Note_on_c, 0, 83, 68
2, 2260, Note_off_c, 0, 83, 64
2, 2280, Note_on_c, 0, 78, 68
2, 2280, Note_on_c, 0, 81, 68
2, 2320, Note_off_c, 0, 81, 64
2, 2320, Note_off_c, 0, 78, 64
2, 2400, Note_on_c, 0, 76, 68
2, 2400, Note_on_c, 0, 79, 68
2, 2440, Note_off_c, 0, 79, 64
2, 2440, Note_off_c, 0, 76, 64
2, 2520, Note_on_c, 0, 78, 68
2, 2520, Note_on_c, 0, 81, 68
2, 2560, Note_off_c, 0, 81, 64
2, 2560, Note_off_c, 0, 78, 64
2, 2640, Note_on_c, 0, 79, 68
2, 2670, Note_off_c, 0, 79, 64
2, 2670, Note_on_c, 0, 81, 68
2, 2700, Note_off_c, 0, 81, 64
2, 2700, Note_on_c, 0, 83, 68
2, 2740, Note_off_c, 0, 83, 64
2, 2760, Note_on_c, 0, 78, 68
2, 2760, Note_on_c, 0, 81, 68
2, 2800, Note_off_c, 0, 81, 64
2, 2800, Note_off_c, 0, 78, 64
2, 2880, Note_on_c, 0, 76, 68
2, 2880, Note_on_c, 0, 79, 68
2, 2920, Note_off_c, 0, 79, 64
2, 2920, Note_off_c, 0, 76, 64
2, 3000, Note_on_c, 0, 78, 68
2, 3000, Note_on_c, 0, 81, 68
2, 3040, Note_off_c, 0, 81, 64
2, 3040, Note_off_c, 0, 78, 64
2, 3120, Note_on_c, 0, 79, 68
2, 3150, Note_off_c, 0, 79, 64
2, 3150, Note_on_c, 0, 81, 68
2, 3180, Note_off_c, 0, 81, 64
2, 3180, Note_on_c, 0, 83, 68
2, 3220, Note_off_c, 0, 83, 64
2, 3240, Note_on_c, 0, 78, 68
2, 3240, Note_on_c, 0, 81, 68
2, 3280, Note_off_c, 0, 81, 64
2, 3280, Note_off_c, 0, 78, 64
2, 3360, Note_on_c, 0, 76, 68
2, 3360, Note_on_c, 0, 79, 68
2, 3400, Note_off_c, 0, 79, 64
2, 3400, Note_off_c, 0, 76, 64
2, 3480, Note_on_c, 0, 75, 68
2, 3480, Note_on_c, 0, 78, 68
2, 3520, Note_off_c, 0, 78, 64
2, 3520, Note_off_c, 0, 75, 64
2, 3600, Note_on_c, 0, 76, 68
2, 3800, Note_off_c, 0, 76, 64
2, 3840, Note_on_c, 0, 71, 68
2, 3900, Note_off_c, 0, 71, 64
2, 3900, Note_on_c, 0, 69, 68
2, 3960, Note_off_c, 0, 69, 64
2, 3960, Note_on_c, 0, 68, 68
2, 4020, Note_off_c, 0, 68, 64
2, 4020, Note_on_c, 0, 69, 68
2, 4080, Note_off_c, 0, 69, 64
2, 4080, Note_on_c, 0, 72, 68
2, 4197, Note_off_c, 0, 72, 64
2, 4320, Note_on_c, 0, 74, 68
2, 4380, Note_off_c, 0, 74, 64
2, 4380, Note_on_c, 0, 72, 68
2, 4440, Note_off_c, 0, 72, 64
2, 4440, Note_on_c, 0, 71, 68
2, 4500, Note_off_c, 0, 71, 64
2, 4500, Note_on_c, 0, 72, 68
2, 4560, Note_off_c, 0, 72, 64
2, 4560, Note_on_c, 0, 76, 68
2, 4677, Note_off_c, 0, 76, 64
2, 4800, Note_on_c, 0, 77, 68
2, 4860, Note_off_c, 0, 77, 64
2, 4860, Note_on_c, 0, 76, 68
2, 4920, Note_off_c, 0, 76, 64
2, 4920, Note_on_c, 0, 75, 68
2, 4980, Note_off_c, 0, 75, 64
2, 4980, Note_on_c, 0, 76, 68
2, 5040, Note_off_c, 0, 76, 64
2, 5040, Note_on_c, 0, 83, 68
2, 5100, Note_off_c, 0, 83, 64
2, 5100, Note_on_c, 0, 81, 68
2, 5160, Note_off_c, 0, 81, 64
2, 5160, Note_on_c, 0, 80, 68
2, 5220, Note_off_c, 0, 80, 64
2, 5220, Note_on_c, 0, 81, 68
2, 5280, Note_off_c, 0, 81, 64
2, 5280, Note_on_c, 0, 83, 68
2, 5340, Note_off_c, 0, 83, 64
2, 5340, Note_on_c, 0, 81, 68
2, 5400, Note_off_c, 0, 81, 64
2, 5400, Note_on_c, 0, 80, 68
2, 5460, Note_off_c, 0, 80, 64
2, 5460, Note_on_c, 0, 81, 68
2, 5517, Note_off_c, 0, 81, 64
2, 5520, Note_on_c, 0, 84, 70
2, 5720, Note_off_c, 0, 84, 64
2, 5760, Note_on_c, 0, 81, 68
2, 5800, Note_off_c, 0, 81, 64
2, 5880, Note_on_c, 0, 84, 68
2, 5920, Note_off_c, 0, 84, 64
2, 6000, Note_on_c, 0, 79, 68
2, 6030, Note_off_c, 0, 79, 64
2, 6030, Note_on_c, 0, 81, 68
2, 6060, Note_off_c, 0, 81, 64
2, 6060, Note_on_c, 0, 83, 68
2, 6100, Note_off_c, 0, 83, 64
2, 6120, Note_on_c, 0, 78, 68
2, 6120, Note_on_c, 0, 81, 68
2, 6160, Note_off_c, 0, 81, 64
2, 6160, Note_off_c, 0, 78, 64
2, 6240, Note_on_c, 0, 76, 68
2, 6240, Note_on_c, 0, 79, 68
2, 6280, Note_off_c, 0, 79, 64
2, 6280, Note_off_c, 0, 76, 64
2, 6360, Note_on_c, 0, 78, 68
2, 6360, Note_on_c, 0, 81, 68
2, 6400, Note_off_c, 0, 81, 64
2, 6400, Note_off_c, 0, 78, 64
2, 6480, Note_on_c, 0, 79, 68
2, 6510, Note_off_c, 0, 79, 64
2, 6510, Note_on_c, 0, 81, 68
2, 6540, Note_off_c, 0, 81, 64
2, 6540, Note_on_c, 0, 83, 68
2, 6580, Note_off_c, 0, 83, 64
2, 6600, Note_on_c, 0, 78, 68
2, 6600, Note_on_c, 0, 81, 68
2, 6640, Note_off_c, 0, 81, 64
2, 6640, Note_off_c, 0, 78, 64
2, 6720, Note_on_c, 0, 76, 68
2, 6720, Note_on_c, 0, 79, 68
2, 6760, Note_off_c, 0, 79, 64
2, 6760, Note_off_c, 0, 76, 64
2, 6840, Note_on_c, 0, 78, 68
2, 6840, Note_on_c, 0, 81, 68
2, 6880, Note_off_c, 0, 81, 64
2, 6880, Note_off_c, 0, 78, 64
2, 6960, Note_on_c, 0, 79, 68
2, 6990, Note_off_c, 0, 79, 64
2, 6990, Note_on_c, 0, 81, 68
2, 7020, Note_off_c, 0, 81, 64
2, 7020, Note_on_c, 0, 83, 68
2, 7060, Note_off_c, 0, 83, 64
2, 7080, Note_on_c, 0, 78, 68
2, 7080, Note_on_c, 0, 81, 68
2, 7120, Note_off_c, 0, 81, 64
2, 7120, Note_off_c, 0, 78, 64
2, 7200, Note_on_c, 0, 76, 68
2, 7200, Note_on_c, 0, 79, 68
2, 7240, Note_off_c, 0, 79, 64
2, 7240, Note_off_c, 0, 76, 64
2, 7320, Note_on_c, 0, 75, 68
2, 7320, Note_on_c, 0, 78, 68
2, 7360, Note_off_c, 0, 78, 64
2, 7360, Note_off_c, 0, 75, 64
2, 7440, Note_on_c, 0, 76, 68
2, 7640, Note_off_c, 0, 76, 64
2, 7680, Note_on_c, 0, 72, 70
2, 7680, Note_on_c, 0, 76, 70
2, 7720, Note_off_c, 0, 76, 64
2, 7720, Note_off_c, 0, 72, 64
2, 7800, Note_on_c, 0, 77, 70
2, 7800, Note_on_c, 0, 74, 70
2, 7840, Note_off_c, 0, 74, 64
2, 7840, Note_off_c, 0, 77, 64
2, 7920, Note_on_c, 0, 76, 70
2, 7920, Note_on_c, 0, 79, 70
2, 7960, Note_off_c, 0, 79, 64
2, 7960, Note_off_c, 0, 76, 64
2, 8040, Note_on_c, 0, 76, 70
2, 8040, Note_on_c, 0, 79, 70
2, 8080, Note_off_c, 0, 79, 64
2, 8080, Note_off_c, 0, 76, 64
2, 8160, Note_on_c, 0, 81, 70
2, 8220, Note_off_c, 0, 81, 64
2, 8220, Note_on_c, 0, 79, 70
2, 8280, Note_off_c, 0, 79, 64
2, 8280, Note_on_c, 0, 77, 70
2, 8340, Note_off_c, 0, 77, 64
2, 8340, Note_on_c, 0, 76, 70
2, 8397, Note_off_c, 0, 76, 64
2, 8400, Note_on_c, 0, 71, 92
2, 8400, Note_on_c, 0, 74, 90
2, 8520, Note_off_c, 0, 71, 64
2, 8520, Note_on_c, 0, 67, 70
2, 8600, Note_off_c, 0, 74, 64
2, 8637, Note_off_c, 0, 67, 64
2, 8640, Note_on_c, 0, 72, 70
2, 8640, Note_on_c, 0, 76, 70
2, 8680, Note_off_c, 0, 76, 64
2, 8680, Note_off_c, 0, 72, 64
2, 8760, Note_on_c, 0, 77, 70
2, 8760, Note_on_c, 0, 74, 70
2, 8800, Note_off_c, 0, 74, 64
2, 8800, Note_off_c, 0, 77, 64
2, 8880, Note_on_c, 0, 76, 70
2, 8880, Note_on_c, 0, 79, 70
2, 8920, Note_off_c, 0, 79, 64
2, 8920, Note_off_c, 0, 76, 64
2, 9000, Note_on_c, 0, 76, 70
2, 9000, Note_on_c, 0, 79, 70
2, 9040, Note_off_c, 0, 79, 64
2, 9040, Note_off_c, 0, 76, 64
2, 9120, Note_on_c, 0, 81, 70
2, 9180, Note_off_c, 0, 81, 64
2, 9180, Note_on_c, 0, 79, 70
2, 9240, Note_off_c, 0, 79, 64
2, 9240, Note_on_c, 0, 77, 70
2, 9300, Note_off_c, 0, 77, 64
2, 9300, Note_on_c, 0, 76, 70
2, 9357, Note_off_c, 0, 76, 64
2, 9360, Note_on_c, 0, 71, 92
2, 9360, Note_on_c, 0, 74, 92
2, 9560, Note_off_c, 0, 74, 64
2, 9560, Note_off_c, 0, 71, 64
2, 9600, Note_on_c, 0, 69, 70
2, 9600, Note_on_c, 0, 72, 70
2, 9640, Note_off_c, 0, 72, 64
2, 9640, Note_off_c, 0, 69, 64
2, 9720, Note_on_c, 0, 74, 70
2, 9720, Note_on_c, 0, 71, 70
2, 9760, Note_off_c, 0, 71, 64
2, 9760, Note_off_c, 0, 74, 64
2, 9840, Note_on_c, 0, 72, 70
2, 9840, Note_on_c, 0, 76, 70
2, 9880, Note_off_c, 0, 76, 64
2, 9880, Note_off_c, 0, 72, 64
2, 9960, Note_on_c, 0, 72, 70
2, 9960, Note_on_c, 0, 76, 70
2, 10000, Note_off_c, 0, 76, 64
2, 10000, Note_off_c, 0, 72, 64
2, 10080, Note_on_c, 0, 77, 70
2, 10140, Note_off_c, 0, 77, 64
2, 10140, Note_on_c, 0, 76, 70
2, 10200, Note_off_c, 0, 76, 64
2, 10200, Note_on_c, 0, 74, 70
2, 10260, Note_off_c, 0, 74, 64
2, 10260, Note_on_c, 0, 72, 70
2, 10317, Note_off_c, 0, 72, 64
2, 10320, Note_on_c, 0, 68, 92
2, 10320, Note_on_c, 0, 71, 90
2, 10440, Note_off_c, 0, 68, 64
2, 10440, Note_on_c, 0, 64, 70
2, 10520, Note_off_c, 0, 71, 64
2, 10557, Note_off_c, 0, 64, 64
2, 10560, Note_on_c, 0, 69, 70
2, 10560, Note_on_c, 0, 72, 70
2, 10600, Note_off_c, 0, 72, 64
2, 10600, Note_off_c, 0, 69, 64
2, 10680, Note_on_c, 0, 74, 70
2, 10680, Note_on_c, 0, 71, 70
2, 10720, Note_off_c, 0, 71, 64
2, 10720, Note_off_c, 0, 74, 64
2, 10800, Note_on_c, 0, 72, 70
2, 10800, Note_on_c, 0, 76, 70
2, 10840, Note_off_c, 0, 76, 64
2, 10840, Note_off_c, 0, 72, 64
2, 10920, Note_on_c, 0, 72, 70
2, 10920, Note_on_c, 0, 76, 70
2, 10960, Note_off_c, 0, 76, 64
2, 10960, Note_off_c, 0, 72, 64
2, 11040, Note_on_c, 0, 77, 70
2, 11100, Note_off_c, 0, 77, 64
2, 11100, Note_on_c, 0, 76, 70
2, 11160, Note_off_c, 0, 76, 64
2, 11160, Note_on_c, 0, 74, 70
2, 11220, Note_off_c, 0, 74, 64
2, 11220, Note_on_c, 0, 72, 70
2, 11277, Note_off_c, 0, 72, 64
2, 11280, Note_on_c, 0, 68, 72
2, 11280, Note_on_c, 0, 71, 72
2, 11480, Note_off_c, 0, 71, 64
2, 11480, Note_off_c, 0, 68, 64
2, 11520, Note_on_c, 0, 71, 68
2, 11580, Note_off_c, 0, 71, 64
2, 11580, Note_on_c, 0, 69, 68
2, 11640, Note_off_c, 0, 69, 64
2, 11640, Note_on_c, 0, 68, 68
2, 11700, Note_off_c, 0, 68, 64
2, 11700, Note_on_c, 0, 69, 68
2, 11760, Note_off_c, 0, 69, 64
2, 11760, Note_on_c, 0, 72, 68
2, 11877, Note_off_c, 0, 72, 64
2, 12000, Note_on_c, 0, 74, 68
2, 12060, Note_off_c, 0, 74, 64
2, 12060, Note_on_c, 0, 72, 68
2, 12120, Note_off_c, 0, 72, 64
2, 12120, Note_on_c, 0, 71, 68
2, 12180, Note_off_c, 0, 71, 64
2, 12180, Note_on_c, 0, 72, 68
2, 12240, Note_off_c, 0, 72, 64
2, 12240, Note_on_c, 0, 76, 68
2, 12357, Note_off_c, 0, 76, 64
2, 12480, Note_on_c, 0, 77, 68
2, 12540, Note_off_c, 0, 77, 64
2, 12540, Note_on_c, 0, 76, 68
2, 12600, Note_off_c, 0, 76, 64
2, 12600, Note_on_c, 0, 75, 68
2, 12660, Note_off_c, 0, 75, 64
2, 12660, Note_on_c, 0, 76, 68
2, 12720, Note_off_c, 0, 76, 64
2, 12720, Note_on_c, 0, 83, 68
2, 12780, Note_off_c, 0, 83, 64
2, 12780, Note_on_c, 0, 81, 68
2, 12840, Note_off_c, 0, 81, 64
2, 12840, Note_on_c, 0, 80, 68
2, 12900, Note_off_c, 0, 80, 64
2, 12900, Note_on_c, 0, 81, 68
2, 12960, Note_off_c, 0, 81, 64
2, 12960, Note_on_c, 0, 83, 68
2, 13020, Note_off_c, 0, 83, 64
2, 13020, Note_on_c, 0, 81, 68
2, 13080, Note_off_c, 0, 81, 64
2, 13080, Note_on_c, 0, 80, 68
2, 13140, Note_off_c, 0, 80, 64
2, 13140, Note_on_c, 0, 81, 68
2, 13197, Note_off_c, 0, 81, 64
2, 13200, Note_on_c, 0, 84, 73
2, 13400, Note_off_c, 0, 84, 64
2, 13440, Note_on_c, 0, 81, 68
2, 13480, Note_off_c, 0, 81, 64
2, 13560, Note_on_c, 0, 83, 68
2, 13600, Note_off_c, 0, 83, 64
2, 13680, Note_on_c, 0, 84, 68
2, 13720, Note_off_c, 0, 84, 64
2, 13800, Note_on_c, 0, 83, 68
2, 13840, Note_off_c, 0, 83, 64
2, 13920, Note_on_c, 0, 81, 68
2, 13960, Note_off_c, 0, 81, 64
2, 14040, Note_on_c, 0, 80, 68
2, 14080, Note_off_c, 0, 80, 64
2, 14160, Note_on_c, 0, 81, 68
2, 14200, Note_off_c, 0, 81, 64
2, 14280, Note_on_c, 0, 76, 68
2, 14320, Note_off_c, 0, 76, 64
2, 14400, Note_on_c, 0, 77, 68
2, 14440, Note_off_c, 0, 77, 64
2, 14520, Note_on_c, 0, 74, 68
2, 14560, Note_off_c, 0, 74, 64
2, 14640, Note_on_c, 0, 72, 68
2, 14880, Note_off_c, 0, 72, 64
2, 14880, Note_on_c, 0, 71, 68
2, 14940, Note_off_c, 0, 71, 64
2, 14940, Note_on_c, 0, 72, 68
2, 15000, Note_off_c, 0, 72, 64
2, 15000, Note_on_c, 0, 71, 68
2, 15020, Note_off_c, 0, 71, 64
2, 15020, Note_on_c, 0, 72, 68
2, 15040, Note_off_c, 0, 72, 64
2, 15040, Note_on_c, 0, 71, 68
2, 15060, Note_off_c, 0, 71, 64
2, 15060, Note_on_c, 0, 69, 68
2, 15090, Note_off_c, 0, 69, 64
2, 15090, Note_on_c, 0, 71, 68
2, 15120, Note_off_c, 0, 71, 64
2, 15120, Note_on_c, 0, 69, 68
2, 15360, Note_off_c, 0, 69, 64
2, 15360, Note_on_c, 0, 72, 70
2, 15360, Note_on_c, 0, 76, 70
2, 15400, Note_off_c, 0, 76, 64
2, 15400, Note_off_c, 0, 72, 64
2, 15480, Note_on_c, 0, 77, 70
2, 15480, Note_on_c, 0, 74, 70
2, 15520, Note_off_c, 0, 74, 64
2, 15520, Note_off_c, 0, 77, 64
2, 15600, Note_on_c, 0, 76, 70
2, 15600, Note_on_c, 0, 79, 70
2, 15640, Note_off_c, 0, 79, 64
2, 15640, Note_off_c, 0, 76, 64
2, 15720, Note_on_c, 0, 76, 70
2, 15720, Note_on_c, 0, 79, 70
2, 15760, Note_off_c, 0, 79, 64
2, 15760, Note_off_c, 0, 76, 64
2, 15840, Note_on_c, 0, 81, 70
2, 15900, Note_off_c, 0, 81, 64
2, 15900, Note_on_c, 0, 79, 70
2, 15960, Note_off_c, 0, 79, 64
2, 15960, Note_on_c, 0, 77, 70
2, 16020, Note_off_c, 0, 77, 64
2, 16020, Note_on_c, 0, 76, 70
2, 16077, Note_off_c, 0, 76, 64
2, 16080, Note_on_c, 0, 71, 92
2, 16080, Note_on_c, 0, 74, 90
2, 16200, Note_off_c, 0, 71, 64
2, 16200, Note_on_c, 0, 67, 70
2, 16280, Note_off_c, 0, 74, 64
2, 16317, Note_off_c, 0, 67, 64
2, 16320, Note_on_c, 0, 72, 70
2, 16320, Note_on_c, 0, 76, 70
2, 16360, Note_off_c, 0, 76, 64
2, 16360, Note_off_c, 0, 72, 64
2, 16440, Note_on_c, 0, 77, 70
2, 16440, Note_on_c, 0, 74, 70
2, 16480, Note_off_c, 0, 74, 64
2, 16480, Note_off_c, 0, 77, 64
2, 16560, Note_on_c, 0, 76, 70
2, 16560, Note_on_c, 0, 79, 70
2, 16600, Note_off_c, 0, 79, 64
2, 16600, Note_off_c, 0, 76, 64
2, 16680, Note_on_c, 0, 76, 70
2, 16680, Note_on_c, 0, 79, 70
2, 16720, Note_off_c, 0, 79, 64
2, 16720, Note_off_c, 0, 76, 64
2, 16800, Note_on_c, 0, 81, 70
2, 16860, Note_off_c, 0, 81, 64
2, 16860, Note_on_c, 0, 79, 70
2, 16920, Note_off_c, 0, 79, 64
2, 16920, Note_on_c, 0, 77, 70
2, 16980, Note_off_c, 0, 77, 64
2, 16980, Note_on_c, 0, 76, 70
2, 17037, Note_off_c, 0, 76, 64
2, 17040, Note_on_c, 0, 71, 92
2, 17040, Note_on_c, 0, 74, 92
2, 17240, Note_off_c, 0, 74, 64
2, 17240, Note_off_c, 0, 71, 64
2, 17280, Note_on_c, 0, 69, 70
2, 17280, Note_on_c, 0, 72, 70
2, 17320, Note_off_c, 0, 72, 64
2, 17320, Note_off_c, 0, 69, 64
2, 17400, Note_on_c, 0, 74, 70
2, 17400, Note_on_c, 0, 71, 70
2, 17440, Note_off_c, 0, 71, 64
2, 17440, Note_off_c, 0, 74, 64
2, 17520, Note_on_c, 0, 72, 70
2, 17520, Note_on_c, 0, 76, 70
2, 17560, Note_off_c, 0, 76, 64
2, 17560, Note_off_c, 0, 72, 64
2, 17640, Note_on_c, 0, 72, 70
2, 17640, Note_on_c, 0, 76, 70
2, 17680, Note_off_c, 0, 76, 64
2, 17680, Note_off_c, 0, 72, 64
2, 17760, Note_on_c, 0, 77, 70
2, 17820, Note_off_c, 0, 77, 64
2, 17820, Note_on_c, 0, 76, 70
2, 17880, Note_off_c, 0, 76, 64
2, 17880, Note_on_c, 0, 74, 70
2, 17940, Note_off_c, 0, 74, 64
2, 17940, Note_on_c, 0, 72, 70
2, 17997, Note_off_c, 0, 72, 64
2, 18000, Note_on_c, 0, 68, 92
2, 18000, Note_on_c, 0, 71, 90
2, 18120, Note_off_c, 0, 68, 64
2, 18120, Note_on_c, 0, 64, 70
2, 18200, Note_off_c, 0, 71, 64
2, 18237, Note_off_c, 0, 64, 64
2, 18240, Note_on_c, 0, 69, 70
2, 18240, Note_on_c, 0, 72, 70
2, 18280, Note_off_c, 0, 72, 64
2, 18280, Note_off_c, 0, 69, 64
2, 18360, Note_on_c, 0, 74, 70
2, 18360, Note_on_c, 0, 71, 70
2, 18400, Note_off_c, 0, 71, 64
2, 18400, Note_off_c, 0, 74, 64
2, 18480, Note_on_c, 0, 72, 70
2, 18480, Note_on_c, 0, 76, 70
2, 18520, Note_off_c, 0, 76, 64
2, 18520, Note_off_c, 0, 72, 64
2, 18600, Note_on_c, 0, 72, 70
2, 18600, Note_on_c, 0, 76, 70
2, 18640, Note_off_c, 0, 76, 64
2, 18640, Note_off_c, 0, 72, 64
2, 18720, Note_on_c, 0, 77, 70
2, 18780, Note_off_c, 0, 77, 64
2, 18780, Note_on_c, 0, 76, 70
2, 18840, Note_off_c, 0, 76, 64
2, 18840, Note_on_c, 0, 74, 70
2, 18900, Note_off_c, 0, 74, 64
2, 18900, Note_on_c, 0, 72, 70
2, 18957, Note_off_c, 0, 72, 64
2, 18960, Note_on_c, 0, 68, 92
2, 18960, Note_on_c, 0, 71, 92
2, 19160, Note_off_c, 0, 71, 64
2, 19160, Note_off_c, 0, 68, 64
2, 19200, Note_on_c, 0, 71, 68
2, 19260, Note_off_c, 0, 71, 64
2, 19260, Note_on_c, 0, 69, 68
2, 19320, Note_off_c, 0, 69, 64
2, 19320, Note_on_c, 0, 68, 68
2, 19380, Note_off_c, 0, 68, 64
2, 19380, Note_on_c, 0, 69, 68
2, 19440, Note_off_c, 0, 69, 64
2, 19440, Note_on_c, 0, 72, 68
2, 19557, Note_off_c, 0, 72, 64
2, 19680, Note_on_c, 0, 74, 68
2, 19740, Note_off_c, 0, 74, 64
2, 19740, Note_on_c, 0, 72, 68
2, 19800, Note_off_c, 0, 72, 64
2, 19800, Note_on_c, 0, 71, 68
2, 19860, Note_off_c, 0, 71, 64
2, 19860, Note_on_c, 0, 72, 68
2, 19920, Note_off_c, 0, 72, 64
2, 19920, Note_on_c, 0, 76, 68
2, 20037, Note_off_c, 0, 76, 64
2, 20160, Note_on_c, 0, 77, 68
2, 20220, Note_off_c, 0, 77, 64
2, 20220, Note_on_c, 0, 76, 68
2, 20280, Note_off_c, 0, 76, 64
2, 20280, Note_on_c, 0, 75, 68
2, 20340, Note_off_c, 0, 75, 64
2, 20340, Note_on_c, 0, 76, 68
2, 20400, Note_off_c, 0, 76, 64
2, 20400, Note_on_c, 0, 83, 68
2, 20460, Note_off_c, 0, 83, 64
2, 20460, Note_on_c, 0, 81, 78
2, 20520, Note_off_c, 0, 81, 64
2, 20520, Note_on_c, 0, 80, 89
2, 20580, Note_off_c, 0, 80, 64
2, 20580, Note_on_c, 0, 81, 99
2, 20640, Note_off_c, 0, 81, 64
2, 20640, Note_on_c, 0, 83, 107
2, 20700, Note_off_c, 0, 83, 64
2, 20700, Note_on_c, 0, 81, 100
2, 20760, Note_off_c, 0, 81, 64
2, 20760, Note_on_c, 0, 80, 88
2, 20820, Note_off_c, 0, 80, 64
2, 20820, Note_on_c, 0, 81, 80
2, 20877, Note_off_c, 0, 81, 64
2, 20880, Note_on_c, 0, 84, 110
2, 21080, Note_off_c, 0, 84, 64
2, 21120, Note_on_c, 0, 81, 68
2, 21160, Note_off_c, 0, 81, 64
2, 21240, Note_on_c, 0, 83, 68
2, 21280, Note_off_c, 0, 83, 64
2, 21360, Note_on_c, 0, 84, 68
2, 21400, Note_off_c, 0, 84, 64
2, 21480, Note_on_c, 0, 83, 68
2, 21520, Note_off_c, 0, 83, 64
2, 21600, Note_on_c, 0, 81, 68
2, 21640, Note_off_c, 0, 81, 64
2, 21720, Note_on_c, 0, 80, 68
2, 21760, Note_off_c, 0, 80, 64
2, 21840, Note_on_c, 0, 81, 68
2, 21880, Note_off_c, 0, 81, 64
2, 21960, Note_on_c, 0, 76, 68
2, 22000, Note_off_c, 0, 76, 64
2, 22080, Note_on_c, 0, 77, 68
2, 22120, Note_off_c, 0, 77, 64
2, 22200, Note_on_c, 0, 74, 68
2, 22240, Note_off_c, 0, 74, 64
2, 22320, Note_on_c, 0, 72, 68
2, 22560, Note_off_c, 0, 72, 64
2, 22560, Note_on_c, 0, 71, 68
2, 22620, Note_off_c, 0, 71, 64
2, 22620, Note_on_c, 0, 72, 68
2, 22680, Note_off_c, 0, 72, 64
2, 22680, Note_on_c, 0, 71, 68
2, 22700, Note_off_c, 0, 71, 64
2, 22700, Note_on_c, 0, 72, 68
2, 22720, Note_off_c, 0, 72, 64
2, 22720, Note_on_c, 0, 71, 68
2, 22740, Note_off_c, 0, 71, 64
2, 22740, Note_on_c, 0, 69, 68
2, 22770, Note_off_c, 0, 69, 64
2, 22770, Note_on_c, 0, 71, 68
2, 22800, Note_off_c, 0, 71, 64
2, 22800, Note_on_c, 0, 69, 68
2, 23040, Note_off_c, 0, 69, 64
2, 23040, Note_on_c, 0, 81, 106
2, 23040, Note_on_c, 0, 69, 106
2, 23080, Note_off_c, 0, 69, 64
2, 23080, Note_off_c, 0, 81, 64
2, 23160, Note_on_c, 0, 71, 106
2, 23160, Note_on_c, 0, 83, 106
2, 23200, Note_off_c, 0, 83, 64
2, 23200, Note_off_c, 0, 71, 64
2, 23280, Note_on_c, 0, 73, 127
2, 23280, Note_on_c, 0, 85, 127
2, 23480, Note_off_c, 0, 85, 64
2, 23480, Note_off_c, 0, 73, 64
2, 23520, Note_on_c, 0, 69, 106
2, 23520, Note_on_c, 0, 81, 106
2, 23560, Note_off_c, 0, 81, 64
2, 23560, Note_off_c, 0, 69, 64
2, 23640, Note_on_c, 0, 71, 106
2, 23640, Note_on_c, 0, 83, 106
2, 23680, Note_off_c, 0, 83, 64
2, 23680, Note_off_c, 0, 71, 64
2, 23760, Note_on_c, 0, 73, 127
2, 23760, Note_on_c, 0, 85, 127
2, 23800, Note_off_c, 0, 85, 64
2, 23800, Note_off_c, 0, 73, 64
2, 23880, Note_on_c, 0, 71, 106
2, 23880, Note_on_c, 0, 83, 106
2, 23920, Note_off_c, 0, 83, 64
2, 23920, Note_off_c, 0, 71, 64
2, 24000, Note_on_c, 0, 69, 106
2, 24000, Note_on_c, 0, 81, 106
2, 24040, Note_off_c, 0, 81, 64
2, 24040, Note_off_c, 0, 69, 64
2, 24120, Note_on_c, 0, 68, 106
2, 24120, Note_on_c, 0, 80, 106
2, 24160, Note_off_c, 0, 80, 64
2, 24160, Note_off_c, 0, 68, 64
2, 24240, Note_on_c, 0, 66, 106
2, 24240, Note_on_c, 0, 78, 106
2, 24280, Note_off_c, 0, 78, 64
2, 24280, Note_off_c, 0, 66, 64
2, 24360, Note_on_c, 0, 68, 106
2, 24360, Note_on_c, 0, 80, 106
2, 24400, Note_off_c, 0, 80, 64
2, 24400, Note_off_c, 0, 68, 64
2, 24480, Note_on_c, 0, 69, 106
2, 24480, Note_on_c, 0, 81, 106
2, 24520, Note_off_c, 0, 81, 64
2, 24520, Note_off_c, 0, 69, 64
2, 24600, Note_on_c, 0, 71, 106
2, 24600, Note_on_c, 0, 83, 106
2, 24640, Note_off_c, 0, 83, 64
2, 24640, Note_off_c, 0, 71, 64
2, 24720, Note_on_c, 0, 68, 106
2, 24720, Note_on_c, 0, 80, 106
2, 24840, Note_off_c, 0, 80, 64
2, 24840, Note_off_c, 0, 68, 64
2, 24840, Note_on_c, 0, 64, 106
2, 24840, Note_on_c, 0, 76, 106
2, 24880, Note_off_c, 0, 76, 64
2, 24880, Note_off_c, 0, 64, 64
2, 24960, Note_on_c, 0, 69, 106
2, 24960, Note_on_c, 0, 81, 106
2, 25000, Note_off_c, 0, 81, 64
2, 25000, Note_off_c, 0, 69, 64
2, 25080, Note_on_c, 0, 83, 106
2, 25080, Note_on_c, 0, 71, 106
2, 25120, Note_off_c, 0, 71, 64
2, 25120, Note_off_c, 0, 83, 64
2, 25200, Note_on_c, 0, 73, 110
2, 25200, Note_on_c, 0, 85, 110
2, 25400, Note_off_c, 0, 85, 64
2, 25400, Note_off_c, 0, 73, 64
2, 25440, Note_on_c, 0, 69, 106
2, 25440, Note_on_c, 0, 81, 106
2, 25480, Note_off_c, 0, 81, 64
2, 25480, Note_off_c, 0, 69, 64
2, 25560, Note_on_c, 0, 71, 106
2, 25560, Note_on_c, 0, 83, 106
2, 25600, Note_off_c, 0, 83, 64
2, 25600, Note_off_c, 0, 71, 64
2, 25680, Note_on_c, 0, 73, 110
2, 25680, Note_on_c, 0, 85, 110
2, 25720, Note_off_c, 0, 85, 64
2, 25720, Note_off_c, 0, 73, 64
2, 25800, Note_on_c, 0, 71, 106
2, 25800, Note_on_c, 0, 83, 106
2, 25840, Note_off_c, 0, 83, 64
2, 25840, Note_off_c, 0, 71, 64
2, 25920, Note_on_c, 0, 69, 106
2, 25920, Note_on_c, 0, 81, 106
2, 25960, Note_off_c, 0, 81, 64
2, 25960, Note_off_c, 0, 69, 64
2, 26040, Note_on_c, 0, 68, 106
2, 26040, Note_on_c, 0, 80, 106
2, 26080, Note_off_c, 0, 80, 64
2, 26080, Note_off_c, 0, 68, 64
2, 26160, Note_on_c, 0, 66, 106
2, 26160, Note_on_c, 0, 78, 106
2, 26200, Note_off_c, 0, 78, 64
2, 26200, Note_off_c, 0, 66, 64
2, 26280, Note_on_c, 0, 71, 106
2, 26280, Note_on_c, 0, 83, 106
2, 26320, Note_off_c, 0, 83, 64
2, 26320, Note_off_c, 0, 71, 64
2, 26400, Note_on_c, 0, 68, 106
2, 26400, Note_on_c, 0, 80, 106
2, 26440, Note_off_c, 0, 80, 64
2, 26440, Note_off_c, 0, 68, 64
2, 26520, Note_on_c, 0, 64, 106
2, 26520, Note_on_c, 0, 76, 106
2, 26560, Note_off_c, 0, 76, 64
2, 26560, Note_off_c, 0, 64, 64
2, 26640, Note_on_c, 0, 69, 106
2, 26640, Note_on_c, 0, 81, 106
2, 26840, Note_off_c, 0, 81, 64
2, 26840, Note_off_c, 0, 69, 64
2, 26880, Note_on_c, 0, 81, 106
2, 26880, Note_on_c, 0, 69, 106
2, 26920, Note_off_c, 0, 69, 64
2, 26920, Note_off_c, 0, 81, 64
2, 27000, Note_on_c, 0, 71, 106
2, 27000, Note_on_c, 0, 83, 106
2, 27040, Note_off_c, 0, 83, 64
2, 27040, Note_off_c, 0, 71, 64
2, 27120, Note_on_c, 0, 73, 110
2, 27120, Note_on_c, 0, 85, 110
2, 27320, Note_off_c, 0, 85, 64
2, 27320, Note_off_c, 0, 73, 64
2, 27360, Note_on_c, 0, 69, 106
2, 27360, Note_on_c, 0, 81, 106
2, 27400, Note_off_c, 0, 81, 64
2, 27400, Note_off_c, 0, 69, 64
2, 27480, Note_on_c, 0, 71, 106
2, 27480, Note_on_c, 0, 83, 106
2, 27520, Note_off_c, 0, 83, 64
2, 27520, Note_off_c, 0, 71, 64
2, 27600, Note_on_c, 0, 73, 110
2, 27600, Note_on_c, 0, 85, 110
2, 27640, Note_off_c, 0, 85, 64
2, 27640, Note_off_c, 0, 73, 64
2, 27720, Note_on_c, 0, 71, 106
2, 27720, Note_on_c, 0, 83, 106
2, 27760, Note_off_c, 0, 83, 64
2, 27760, Note_off_c, 0, 71, 64
2, 27840, Note_on_c, 0, 69, 106
2, 27840, Note_on_c, 0, 81, 106
2, 27880, Note_off_c, 0, 81, 64
2, 27880, Note_off_c, 0, 69, 64
2, 27960, Note_on_c, 0, 68, 106
2, 27960, Note_on_c, 0, 80, 106
2, 28000, Note_off_c, 0, 80, 64
2, 28000, Note_off_c, 0, 68, 64
2, 28080, Note_on_c, 0, 66, 106
2, 28080, Note_on_c, 0, 78, 106
2, 28120, Note_off_c, 0, 78, 64
2, 28120, Note_off_c, 0, 66, 64
2, 28200, Note_on_c, 0, 68, 106
2, 28200, Note_on_c, 0, 80, 106
2, 28240, Note_off_c, 0, 80, 64
2, 28240, Note_off_c, 0, 68, 64
2, 28320, Note_on_c, 0, 69, 106
2, 28320, Note_on_c, 0, 81, 106
2, 28360, Note_off_c, 0, 81, 64
2, 28360, Note_off_c, 0, 69, 64
2, 28440, Note_on_c, 0, 71, 106
2, 28440, Note_on_c, 0, 83, 106
2, 28480, Note_off_c, 0, 83, 64
2, 28480, Note_off_c, 0, 71, 64
2, 28560, Note_on_c, 0, 68, 106
2, 28560, Note_on_c, 0, 80, 106
2, 28680, Note_off_c, 0, 80, 64
2, 28680, Note_off_c, 0, 68, 64
2, 28680, Note_on_c, 0, 64, 106
2, 28680, Note_on_c, 0, 76, 106
2, 28720, Note_off_c, 0, 76, 64
2, 28720, Note_off_c, 0, 64, 64
2, 28800, Note_on_c, 0, 69, 106
2, 28800, Note_on_c, 0, 81, 106
2, 28840, Note_off_c, 0, 81, 64
2, 28840, Note_off_c, 0, 69, 64
2, 28920, Note_on_c, 0, 83, 106
2, 28920, Note_on_c, 0, 71, 106
2, 28960, Note_off_c, 0, 71, 64
2, 28960, Note_off_c, 0, 83, 64
2, 29040, Note_on_c, 0, 73, 110
2, 29040, Note_on_c, 0, 85, 110
2, 29240, Note_off_c, 0, 85, 64
2, 29240, Note_off_c, 0, 73, 64
2, 29280, Note_on_c, 0, 69, 106
2, 29280, Note_on_c, 0, 81, 106
2, 29320, Note_off_c, 0, 81, 64
2, 29320, Note_off_c, 0, 69, 64
2, 29400, Note_on_c, 0, 71, 106
2, 29400, Note_on_c, 0, 83, 106
2, 29440, Note_off_c, 0, 83, 64
2, 29440, Note_off_c, 0, 71, 64
2, 29520, Note_on_c, 0, 73, 110
2, 29520, Note_on_c, 0, 85, 110
2, 29560, Note_off_c, 0, 85, 64
2, 29560, Note_off_c, 0, 73, 64
2, 29640, Note_on_c, 0, 71, 106
2, 29640, Note_on_c, 0, 83, 106
2, 29680, Note_off_c, 0, 83, 64
2, 29680, Note_off_c, 0, 71, 64
2, 29760, Note_on_c, 0, 69, 106
2, 29760, Note_on_c, 0, 81, 106
2, 29800, Note_off_c, 0, 81, 64
2, 29800, Note_off_c, 0, 69, 64
2, 29880, Note_on_c, 0, 68, 106
2, 29880, Note_on_c, 0, 80, 106
2, 29920, Note_off_c, 0, 80, 64
2, 29920, Note_off_c, 0, 68, 64
2, 30000, Note_on_c, 0, 66, 106
2, 30000, Note_on_c, 0, 78, 106
2, 30040, Note_off_c, 0, 78, 64
2, 30040, Note_off_c, 0, 66, 64
2, 30120, Note_on_c, 0, 71, 106
2, 30120, Note_on_c, 0, 83, 106
2, 30160, Note_off_c, 0, 83, 64
2, 30160, Note_off_c, 0, 71, 64
2, 30240, Note_on_c, 0, 68, 106
2, 30240, Note_on_c, 0, 80, 106
2, 30280, Note_off_c, 0, 80, 64
2, 30280, Note_off_c, 0, 68, 64
2, 30360, Note_on_c, 0, 64, 106
2, 30360, Note_on_c, 0, 76, 106
2, 30400, Note_off_c, 0, 76, 64
2, 30400, Note_off_c, 0, 64, 64
2, 30480, Note_on_c, 0, 69, 106
2, 30480, Note_on_c, 0, 81, 106
2, 30680, Note_off_c, 0, 81, 64
2, 30680, Note_off_c, 0, 69, 64
2, 30720, Note_on_c, 0, 85, 68
2, 30780, Note_off_c, 0, 85, 64
2, 30780, Note_on_c, 0, 86, 68
2, 30840, Note_off_c, 0, 86, 64
2, 30840, Note_on_c, 0, 85, 68
2, 30900, Note_off_c, 0, 85, 64
2, 30900, Note_on_c, 0, 83, 68
2, 30960, Note_off_c, 0, 83, 64
2, 30960, Note_on_c, 0, 81, 68
2, 31020, Note_off_c, 0, 81, 64
2, 31020, Note_on_c, 0, 83, 68
2, 31080, Note_off_c, 0, 83, 64
2, 31080, Note_on_c, 0, 81, 68
2, 31140, Note_off_c, 0, 81, 64
2, 31140, Note_on_c, 0, 80, 68
2, 31200, Note_off_c, 0, 80, 64
2, 31200, Note_on_c, 0, 78, 68
2, 31260, Note_off_c, 0, 78, 64
2, 31260, Note_on_c, 0, 81, 68
2, 31320, Note_off_c, 0, 81, 64
2, 31320, Note_on_c, 0, 80, 68
2, 31380, Note_off_c, 0, 80, 64
2, 31380, Note_on_c, 0, 78, 68
2, 31440, Note_off_c, 0, 78, 64
2, 31440, Note_on_c, 0, 77, 68
2, 31500, Note_off_c, 0, 77, 64
2, 31500, Note_on_c, 0, 78, 68
2, 31560, Note_off_c, 0, 78, 64
2, 31560, Note_on_c, 0, 80, 68
2, 31620, Note_off_c, 0, 80, 64
2, 31620, Note_on_c, 0, 77, 68
2, 31680, Note_off_c, 0, 77, 64
2, 31680, Note_on_c, 0, 73, 68
2, 31740, Note_off_c, 0, 73, 64
2, 31740, Note_on_c, 0, 75, 68
2, 31800, Note_off_c, 0, 75, 64
2, 31800, Note_on_c, 0, 77, 68
2, 31860, Note_off_c, 0, 77, 64
2, 31860, Note_on_c, 0, 73, 68
2, 31917, Note_off_c, 0, 73, 64
2, 31920, Note_on_c, 0, 78, 68
2, 31980, Note_off_c, 0, 78, 64
2, 31980, Note_on_c, 0, 77, 68
2, 32040, Note_off_c, 0, 77, 64
2, 32040, Note_on_c, 0, 78, 68
2, 32100, Note_off_c, 0, 78, 64
2, 32100, Note_on_c, 0, 80, 68
2, 32160, Note_off_c, 0, 80, 64
2, 32160, Note_on_c, 0, 81, 68
2, 32220, Note_off_c, 0, 81, 64
2, 32220, Note_on_c, 0, 80, 68
2, 32280, Note_off_c, 0, 80, 64
2, 32280, Note_on_c, 0, 81, 68
2, 32340, Note_off_c, 0, 81, 64
2, 32340, Note_on_c, 0, 83, 68
2, 32400, Note_off_c, 0, 83, 64
2, 32400, Note_on_c, 0, 85, 68
2, 32460, Note_off_c, 0, 85, 64
2, 32460, Note_on_c, 0, 84, 68
2, 32520, Note_off_c, 0, 84, 64
2, 32520, Note_on_c, 0, 85, 68
2, 32580, Note_off_c, 0, 85, 64
2, 32580, Note_on_c, 0, 84, 68
2, 32640, Note_off_c, 0, 84, 64
2, 32640, Note_on_c, 0, 85, 68
2, 32700, Note_off_c, 0, 85, 64
2, 32700, Note_on_c, 0, 86, 68
2, 32760, Note_off_c, 0, 86, 64
2, 32760, Note_on_c, 0, 85, 68
2, 32820, Note_off_c, 0, 85, 64
2, 32820, Note_on_c, 0, 83, 68
2, 32877, Note_off_c, 0, 83, 64
2, 32880, Note_on_c, 0, 81, 68
2, 32940, Note_off_c, 0, 81, 64
2, 32940, Note_on_c, 0, 83, 68
2, 33000, Note_off_c, 0, 83, 64
2, 33000, Note_on_c, 0, 81, 68
2, 33060, Note_off_c, 0, 81, 64
2, 33060, Note_on_c, 0, 80, 68
2, 33120, Note_off_c, 0, 80, 64
2, 33120, Note_on_c, 0, 78, 68
2, 33180, Note_off_c, 0, 78, 64
2, 33180, Note_on_c, 0, 81, 68
2, 33240, Note_off_c, 0, 81, 64
2, 33240, Note_on_c, 0, 80, 68
2, 33300, Note_off_c, 0, 80, 64
2, 33300, Note_on_c, 0, 78, 68
2, 33360, Note_off_c, 0, 78, 64
2, 33360, Note_on_c, 0, 76, 68
2, 33420, Note_off_c, 0, 76, 64
2, 33420, Note_on_c, 0, 78, 68
2, 33480, Note_off_c, 0, 78, 64
2, 33480, Note_on_c, 0, 80, 68
2, 33540, Note_off_c, 0, 80, 64
2, 33540, Note_on_c, 0, 76, 68
2, 33600, Note_off_c, 0, 76, 64
2, 33600, Note_on_c, 0, 73, 68
2, 33660, Note_off_c, 0, 73, 64
2, 33660, Note_on_c, 0, 75, 68
2, 33720, Note_off_c, 0, 75, 64
2, 33720, Note_on_c, 0, 76, 68
2, 33780, Note_off_c, 0, 76, 64
2, 33780, Note_on_c, 0, 73, 68
2, 33837, Note_off_c, 0, 73, 64
2, 33840, Note_on_c, 0, 75, 68
2, 33900, Note_off_c, 0, 75, 64
2, 33900, Note_on_c, 0, 76, 68
2, 33960, Note_off_c, 0, 76, 64
2, 33960, Note_on_c, 0, 78, 68
2, 34020, Note_off_c, 0, 78, 64
2, 34020, Note_on_c, 0, 75, 68
2, 34080, Note_off_c, 0, 75, 64
2, 34080, Note_on_c, 0, 72, 68
2, 34140, Note_off_c, 0, 72, 64
2, 34140, Note_on_c, 0, 73, 68
2, 34200, Note_off_c, 0, 73, 64
2, 34200, Note_on_c, 0, 75, 68
2, 34260, Note_off_c, 0, 75, 64
2, 34260, Note_on_c, 0, 72, 68
2, 34320, Note_off_c, 0, 72, 64
2, 34320, Note_on_c, 0, 73, 68
2, 34520, Note_off_c, 0, 73, 64
2, 34560, Note_on_c, 0, 85, 68
2, 34620, Note_off_c, 0, 85, 64
2, 34620, Note_on_c, 0, 86, 68
2, 34680, Note_off_c, 0, 86, 64
2, 34680, Note_on_c, 0, 85, 68
2, 34740, Note_off_c, 0, 85, 64
2, 34740, Note_on_c, 0, 83, 68
2, 34800, Note_off_c, 0, 83, 64
2, 34800, Note_on_c, 0, 81, 68
2, 34860, Note_off_c, 0, 81, 64
2, 34860, Note_on_c, 0, 83, 68
2, 34920, Note_off_c, 0, 83, 64
2, 34920, Note_on_c, 0, 81, 68
2, 34980, Note_off_c, 0, 81, 64
2, 34980, Note_on_c, 0, 80, 68
2, 35040, Note_off_c, 0, 80, 64
2, 35040, Note_on_c, 0, 78, 68
2, 35100, Note_off_c, 0, 78, 64
2, 35100, Note_on_c, 0, 81, 68
2, 35160, Note_off_c, 0, 81, 64
2, 35160, Note_on_c, 0, 80, 68
2, 35220, Note_off_c, 0, 80, 64
2, 35220, Note_on_c, 0, 78, 68
2, 35280, Note_off_c, 0, 78, 64
2, 35280, Note_on_c, 0, 77, 68
2, 35340, Note_off_c, 0, 77, 64
2, 35340, Note_on_c, 0, 78, 68
2, 35400, Note_off_c, 0, 78, 64
2, 35400, Note_on_c, 0, 80, 68
2, 35460, Note_off_c, 0, 80, 64
2, 35460, Note_on_c, 0, 77, 68
2, 35520, Note_off_c, 0, 77, 64
2, 35520, Note_on_c, 0, 73, 68
2, 35580, Note_off_c, 0, 73, 64
2, 35580, Note_on_c, 0, 75, 68
2, 35640, Note_off_c, 0, 75, 64
2, 35640, Note_on_c, 0, 77, 68
2, 35700, Note_off_c, 0, 77, 64
2, 35700, Note_on_c, 0, 73, 68
2, 35757, Note_off_c, 0, 73, 64
2, 35760, Note_on_c, 0, 78, 68
2, 35820, Note_off_c, 0, 78, 64
2, 35820, Note_on_c, 0, 77, 68
2, 35880, Note_off_c, 0, 77, 64
2, 35880, Note_on_c, 0, 78, 68
2, 35940, Note_off_c, 0, 78, 64
2, 35940, Note_on_c, 0, 80, 68
2, 36000, Note_off_c, 0, 80, 64
2, 36000, Note_on_c, 0, 81, 68
2, 36060, Note_off_c, 0, 81, 64
2, 36060, Note_on_c, 0, 80, 68
2, 36120, Note_off_c, 0, 80, 64
2, 36120, Note_on_c, 0, 81, 68
2, 36180, Note_off_c, 0, 81, 64
2, 36180, Note_on_c, 0, 83, 68
2, 36240, Note_off_c, 0, 83, 64
2, 36240, Note_on_c, 0, 85, 68
2, 36300, Note_off_c, 0, 85, 64
2, 36300, Note_on_c, 0, 84, 68
2, 36360, Note_off_c, 0, 84, 64
2, 36360, Note_on_c, 0, 85, 68
2, 36420, Note_off_c, 0, 85, 64
2, 36420, Note_on_c, 0, 84, 68
2, 36480, Note_off_c, 0, 84, 64
2, 36480, Note_on_c, 0, 85, 68
2, 36540, Note_off_c, 0, 85, 64
2, 36540, Note_on_c, 0, 86, 68
2, 36600, Note_off_c, 0, 86, 64
2, 36600, Note_on_c, 0, 85, 68
2, 36660, Note_off_c, 0, 85, 64
2, 36660, Note_on_c, 0, 83, 68
2, 36717, Note_off_c, 0, 83, 64
2, 36720, Note_on_c, 0, 81, 68
2, 36780, Note_off_c, 0, 81, 64
2, 36780, Note_on_c, 0, 83, 68
2, 36840, Note_off_c, 0, 83, 64
2, 36840, Note_on_c, 0, 81, 68
2, 36900, Note_off_c, 0, 81, 64
2, 36900, Note_on_c, 0, 80, 68
2, 36960, Note_off_c, 0, 80, 64
2, 36960, Note_on_c, 0, 78, 68
2, 37020, Note_off_c, 0, 78, 64
2, 37020, Note_on_c, 0, 81, 68
2, 37080, Note_off_c, 0, 81, 64
2, 37080, Note_on_c, 0, 80, 68
2, 37140, Note_off_c, 0, 80, 64
2, 37140, Note_on_c, 0, 78, 68
2, 37200, Note_off_c, 0, 78, 64
2, 37200, Note_on_c, 0, 76, 68
2, 37260, Note_off_c, 0, 76, 64
2, 37260, Note_on_c, 0, 78, 68
2, 37320, Note_off_c, 0, 78, 64
2, 37320, Note_on_c, 0, 80, 68
2, 37380, Note_off_c, 0, 80, 64
2, 37380, Note_on_c, 0, 76, 68
2, 37440, Note_off_c, 0, 76, 64
2, 37440, Note_on_c, 0, 73, 68
2, 37500, Note_off_c, 0, 73, 64
2, 37500, Note_on_c, 0, 75, 68
2, 37560, Note_off_c, 0, 75, 64
2, 37560, Note_on_c, 0, 76, 68
2, 37620, Note_off_c, 0, 76, 64
2, 37620, Note_on_c, 0, 73, 68
2, 37677, Note_off_c, 0, 73, 64
2, 37680, Note_on_c, 0, 75, 68
2, 37740, Note_off_c, 0, 75, 64
2, 37740, Note_on_c, 0, 76, 68
2, 37800, Note_off_c, 0, 76, 64
2, 37800, Note_on_c, 0, 78, 68
2, 37860, Note_off_c, 0, 78, 64
2, 37860, Note_on_c, 0, 75, 68
2, 37920, Note_off_c, 0, 75, 64
2, 37920, Note_on_c, 0, 72, 68
2, 37980, Note_off_c, 0, 72, 64
2, 37980, Note_on_c, 0, 73, 68
2, 38040, Note_off_c, 0, 73, 64
2, 38040, Note_on_c, 0, 75, 68
2, 38100, Note_off_c, 0, 75, 64
2, 38100, Note_on_c, 0, 72, 68
2, 38160, Note_off_c, 0, 72, 64
2, 38160, Note_on_c, 0, 73, 68
2, 38360, Note_off_c, 0, 73, 64
2, 38400, Note_on_c, 0, 76, 106
2, 38460, Note_off_c, 0, 76, 64
2, 38460, Note_on_c, 0, 74, 106
2, 38520, Note_off_c, 0, 74, 64
2, 38520, Note_on_c, 0, 73, 106
2, 38580, Note_off_c, 0, 73, 64
2, 38580, Note_on_c, 0, 71, 106
2, 38640, Note_off_c, 0, 71, 64
2, 38640, Note_on_c, 0, 69, 106
2, 38700, Note_off_c, 0, 69, 64
2, 38700, Note_on_c, 0, 71, 106
2, 38760, Note_off_c, 0, 71, 64
2, 38760, Note_on_c, 0, 73, 106
2, 38820, Note_off_c, 0, 73, 64
2, 38820, Note_on_c, 0, 74, 106
2, 38880, Note_off_c, 0, 74, 64
2, 38880, Note_on_c, 0, 76, 106
2, 38940, Note_off_c, 0, 76, 64
2, 38940, Note_on_c, 0, 78, 106
2, 39000, Note_off_c, 0, 78, 64
2, 39000, Note_on_c, 0, 80, 106
2, 39060, Note_off_c, 0, 80, 64
2, 39060, Note_on_c, 0, 81, 106
2, 39117, Note_off_c, 0, 81, 64
2, 39120, Note_on_c, 0, 81, 106
2, 39180, Note_off_c, 0, 81, 64
2, 39180, Note_on_c, 0, 80, 106
2, 39240, Note_off_c, 0, 80, 64
2, 39240, Note_on_c, 0, 78, 106
2, 39300, Note_off_c, 0, 78, 64
2, 39300, Note_on_c, 0, 76, 106
2, 39357, Note_off_c, 0, 76, 64
2, 39360, Note_on_c, 0, 76, 106
2, 39420, Note_off_c, 0, 76, 64
2, 39420, Note_on_c, 0, 74, 106
2, 39480, Note_off_c, 0, 74, 64
2, 39480, Note_on_c, 0, 73, 106
2, 39540, Note_off_c, 0, 73, 64
2, 39540, Note_on_c, 0, 71, 106
2, 39597, Note_off_c, 0, 71, 64
2, 39600, Note_on_c, 0, 69, 106
2, 39660, Note_off_c, 0, 69, 64
2, 39660, Note_on_c, 0, 71, 106
2, 39720, Note_off_c, 0, 71, 64
2, 39720, Note_on_c, 0, 73, 106
2, 39780, Note_off_c, 0, 73, 64
2, 39780, Note_on_c, 0, 74, 106
2, 39840, Note_off_c, 0, 74, 64
2, 39840, Note_on_c, 0, 76, 106
2, 39900, Note_off_c, 0, 76, 64
2, 39900, Note_on_c, 0, 78, 106
2, 39960, Note_off_c, 0, 78, 64
2, 39960, Note_on_c, 0, 80, 106
2, 40020, Note_off_c, 0, 80, 64
2, 40020, Note_on_c, 0, 81, 106
2, 40077, Note_off_c, 0, 81, 64
2, 40080, Note_on_c, 0, 82, 110
2, 40200, Note_off_c, 0, 82, 64
2, 40200, Note_on_c, 0, 83, 106
2, 40240, Note_off_c, 0, 83, 64
2, 40320, Note_on_c, 0, 76, 106
2, 40380, Note_off_c, 0, 76, 64
2, 40380, Note_on_c, 0, 74, 106
2, 40440, Note_off_c, 0, 74, 64
2, 40440, Note_on_c, 0, 73, 106
2, 40500, Note_off_c, 0, 73, 64
2, 40500, Note_on_c, 0, 71, 106
2, 40560, Note_off_c, 0, 71, 64
2, 40560, Note_on_c, 0, 69, 106
2, 40620, Note_off_c, 0, 69, 64
2, 40620, Note_on_c, 0, 71, 106
2, 40680, Note_off_c, 0, 71, 64
2, 40680, Note_on_c, 0, 73, 106
2, 40740, Note_off_c, 0, 73, 64
2, 40740, Note_on_c, 0, 74, 106
2, 40800, Note_off_c, 0, 74, 64
2, 40800, Note_on_c, 0, 76, 106
2, 40860, Note_off_c, 0, 76, 64
2, 40860, Note_on_c, 0, 78, 106
2, 40920, Note_off_c, 0, 78, 64
2, 40920, Note_on_c, 0, 80, 106
2, 40980, Note_off_c, 0, 80, 64
2, 40980, Note_on_c, 0, 81, 106
2, 41037, Note_off_c, 0, 81, 64
2, 41040, Note_on_c, 0, 81, 106
2, 41100, Note_off_c, 0, 81, 64
2, 41100, Note_on_c, 0, 80, 106
2, 41160, Note_off_c, 0, 80, 64
2, 41160, Note_on_c, 0, 78, 106
2, 41220, Note_off_c, 0, 78, 64
2, 41220, Note_on_c, 0, 76, 106
2, 41277, Note_off_c, 0, 76, 64
2, 41280, Note_on_c, 0, 76, 106
2, 41340, Note_off_c, 0, 76, 64
2, 41340, Note_on_c, 0, 74, 106
2, 41400, Note_off_c, 0, 74, 64
2, 41400, Note_on_c, 0, 73, 106
2, 41460, Note_off_c, 0, 73, 64
2, 41460, Note_on_c, 0, 71, 106
2, 41520, Note_off_c, 0, 71, 64
2, 41520, Note_on_c, 0, 73, 106
2, 41580, Note_off_c, 0, 73, 64
2, 41580, Note_on_c, 0, 76, 106
2, 41640, Note_off_c, 0, 76, 64
2, 41640, Note_on_c, 0, 69, 106
2, 41700, Note_off_c, 0, 69, 64
2, 41700, Note_on_c, 0, 73, 106
2, 41760, Note_off_c, 0, 73, 64
2, 41760, Note_on_c, 0, 71, 106
2, 41820, Note_off_c, 0, 71, 64
2, 41820, Note_on_c, 0, 74, 106
2, 41880, Note_off_c, 0, 74, 64
2, 41880, Note_on_c, 0, 68, 106
2, 41940, Note_off_c, 0, 68, 64
2, 41940, Note_on_c, 0, 71, 106
2, 42000, Note_off_c, 0, 71, 64
2, 42000, Note_on_c, 0, 69, 106
2, 42200, Note_off_c, 0, 69, 64
2, 42240, Note_on_c, 0, 85, 68
2, 42300, Note_off_c, 0, 85, 64
2, 42300, Note_on_c, 0, 86, 68
2, 42360, Note_off_c, 0, 86, 64
2, 42360, Note_on_c, 0, 85, 68
2, 42420, Note_off_c, 0, 85, 64
2, 42420, Note_on_c, 0, 83, 68
2, 42480, Note_off_c, 0, 83, 64
2, 42480, Note_on_c, 0, 81, 68
2, 42540, Note_off_c, 0, 81, 64
2, 42540, Note_on_c, 0, 83, 68
2, 42600, Note_off_c, 0, 83, 64
2, 42600, Note_on_c, 0, 81, 68
2, 42660, Note_off_c, 0, 81, 64
2, 42660, Note_on_c, 0, 80, 68
2, 42720, Note_off_c, 0, 80, 64
2, 42720, Note_on_c, 0, 78, 68
2, 42780, Note_off_c, 0, 78, 64
2, 42780, Note_on_c, 0, 81, 68
2, 42840, Note_off_c, 0, 81, 64
2, 42840, Note_on_c, 0, 80, 68
2, 42900, Note_off_c, 0, 80, 64
2, 42900, Note_on_c, 0, 78, 68
2, 42960, Note_off_c, 0, 78, 64
2, 42960, Note_on_c, 0, 77, 68
2, 43020, Note_off_c, 0, 77, 64
2, 43020, Note_on_c, 0, 78, 68
2, 43080, Note_off_c, 0, 78, 64
2, 43080, Note_on_c, 0, 80, 68
2, 43140, Note_off_c, 0, 80, 64
2, 43140, Note_on_c, 0, 77, 68
2, 43200, Note_off_c, 0, 77, 64
2, 43200, Note_on_c, 0, 73, 68
2, 43260, Note_off_c, 0, 73, 64
2, 43260, Note_on_c, 0, 75, 68
2, 43320, Note_off_c, 0, 75, 64
2, 43320, Note_on_c, 0, 77, 68
2, 43380, Note_off_c, 0, 77, 64
2, 43380, Note_on_c, 0, 73, 68
2, 43437, Note_off_c, 0, 73, 64
2, 43440, Note_on_c, 0, 78, 68
2, 43500, Note_off_c, 0, 78, 64
2, 43500, Note_on_c, 0, 77, 68
2, 43560, Note_off_c, 0, 77, 64
2, 43560, Note_on_c, 0, 78, 68
2, 43620, Note_off_c, 0, 78, 64
2, 43620, Note_on_c, 0, 80, 68
2, 43680, Note_off_c, 0, 80, 64
2, 43680, Note_on_c, 0, 81, 68
2, 43740, Note_off_c, 0, 81, 64
2, 43740, Note_on_c, 0, 80, 68
2, 43800, Note_off_c, 0, 80, 64
2, 43800, Note_on_c, 0, 81, 68
2, 43860, Note_off_c, 0, 81, 64
2, 43860, Note_on_c, 0, 83, 68
2, 43920, Note_off_c, 0, 83, 64
2, 43920, Note_on_c, 0, 85, 68
2, 43980, Note_off_c, 0, 85, 64
2, 43980, Note_on_c, 0, 84, 68
2, 44040, Note_off_c, 0, 84, 64
2, 44040, Note_on_c, 0, 85, 68
2, 44100, Note_off_c, 0, 85, 64
2, 44100, Note_on_c, 0, 84, 68
2, 44160, Note_off_c, 0, 84, 64
2, 44160, Note_on_c, 0, 85, 68
2, 44220, Note_off_c, 0, 85, 64
2, 44220, Note_on_c, 0, 84, 68
2, 44280, Note_off_c, 0, 84, 64
2, 44280, Note_on_c, 0, 85, 68
2, 44340, Note_off_c, 0, 85, 64
2, 44340, Note_on_c, 0, 82, 68
2, 44397, Note_off_c, 0, 82, 64
2, 44400, Note_on_c, 0, 86, 68
2, 44460, Note_off_c, 0, 86, 64
2, 44460, Note_on_c, 0, 85, 68
2, 44520, Note_off_c, 0, 85, 64
2, 44520, Note_on_c, 0, 86, 68
2, 44580, Note_off_c, 0, 86, 64
2, 44580, Note_on_c, 0, 85, 68
2, 44640, Note_off_c, 0, 85, 64
2, 44640, Note_on_c, 0, 86, 68
2, 44700, Note_off_c, 0, 86, 64
2, 44700, Note_on_c, 0, 85, 68
2, 44760, Note_off_c, 0, 85, 64
2, 44760, Note_on_c, 0, 86, 68
2, 44820, Note_off_c, 0, 86, 64
2, 44820, Note_on_c, 0, 85, 68
2, 44880, Note_off_c, 0, 85, 64
2, 44880, Note_on_c, 0, 86, 68
2, 44940, Note_off_c, 0, 86, 64
2, 44940, Note_on_c, 0, 85, 68
2, 45000, Note_off_c, 0, 85, 64
2, 45000, Note_on_c, 0, 83, 68
2, 45060, Note_off_c, 0, 83, 64
2, 45060, Note_on_c, 0, 81, 68
2, 45120, Note_off_c, 0, 81, 64
2, 45120, Note_on_c, 0, 80, 68
2, 45180, Note_off_c, 0, 80, 64
2, 45180, Note_on_c, 0, 81, 68
2, 45240, Note_off_c, 0, 81, 64
2, 45240, Note_on_c, 0, 83, 68
2, 45300, Note_off_c, 0, 83, 64
2, 45300, Note_on_c, 0, 80, 68
2, 45360, Note_off_c, 0, 80, 64
2, 45360, Note_on_c, 0, 81, 68
2, 45420, Note_off_c, 0, 81, 64
2, 45420, Note_on_c, 0, 83, 68
2, 45480, Note_off_c, 0, 83, 64
2, 45480, Note_on_c, 0, 85, 68
2, 45540, Note_off_c, 0, 85, 64
2, 45540, Note_on_c, 0, 78, 68
2, 45600, Note_off_c, 0, 78, 64
2, 45600, Note_on_c, 0, 77, 68
2, 45660, Note_off_c, 0, 77, 64
2, 45660, Note_on_c, 0, 78, 68
2, 45720, Note_off_c, 0, 78, 64
2, 45720, Note_on_c, 0, 80, 68
2, 45780, Note_off_c, 0, 80, 64
2, 45780, Note_on_c, 0, 77, 68
2, 45840, Note_off_c, 0, 77, 64
2, 45840, Note_on_c, 0, 78, 68
2, 46040, Note_off_c, 0, 78, 64
2, 46080, Note_on_c, 0, 76, 106
2, 46140, Note_off_c, 0, 76, 64
2, 46140, Note_on_c, 0, 74, 106
2, 46200, Note_off_c, 0, 74, 64
2, 46200, Note_on_c, 0, 73, 106
2, 46260, Note_off_c, 0, 73, 64
2, 46260, Note_on_c, 0, 71, 106
2, 46320, Note_off_c, 0, 71, 64
2, 46320, Note_on_c, 0, 69, 106
2, 46380, Note_off_c, 0, 69, 64
2, 46380, Note_on_c, 0, 71, 106
2, 46440, Note_off_c, 0, 71, 64
2, 46440, Note_on_c, 0, 73, 106
2, 46500, Note_off_c, 0, 73, 64
2, 46500, Note_on_c, 0, 74, 106
2, 46560, Note_off_c, 0, 74, 64
2, 46560, Note_on_c, 0, 76, 106
2, 46620, Note_off_c, 0, 76, 64
2, 46620, Note_on_c, 0, 78, 106
2, 46680, Note_off_c, 0, 78, 64
2, 46680, Note_on_c, 0, 80, 106
2, 46740, Note_off_c, 0, 80, 64
2, 46740, Note_on_c, 0, 81, 106
2, 46797, Note_off_c, 0, 81, 64
2, 46800, Note_on_c, 0, 81, 106
2, 46860, Note_off_c, 0, 81, 64
2, 46860, Note_on_c, 0, 80, 106
2, 46920, Note_off_c, 0, 80, 64
2, 46920, Note_on_c, 0, 78, 106
2, 46980, Note_off_c, 0, 78, 64
2, 46980, Note_on_c, 0, 76, 106
2, 47037, Note_off_c, 0, 76, 64
2, 47040, Note_on_c, 0, 76, 106
2, 47100, Note_off_c, 0, 76, 64
2, 47100, Note_on_c, 0, 74, 106
2, 47160, Note_off_c, 0, 74, 64
2, 47160, Note_on_c, 0, 73, 106
2, 47220, Note_off_c, 0, 73, 64
2, 47220, Note_on_c, 0, 71, 106
2, 47277, Note_off_c, 0, 71, 64
2, 47280, Note_on_c, 0, 69, 106
2, 47340, Note_off_c, 0, 69, 64
2, 47340, Note_on_c, 0, 71, 106
2, 47400, Note_off_c, 0, 71, 64
2, 47400, Note_on_c, 0, 73, 106
2, 47460, Note_off_c, 0, 73, 64
2, 47460, Note_on_c, 0, 74, 106
2, 47520, Note_off_c, 0, 74, 64
2, 47520, Note_on_c, 0, 76, 106
2, 47580, Note_off_c, 0, 76, 64
2, 47580, Note_on_c, 0, 78, 106
2, 47640, Note_off_c, 0, 78, 64
2, 47640, Note_on_c, 0, 80, 106
2, 47700, Note_off_c, 0, 80, 64
2, 47700, Note_on_c, 0, 81, 106
2, 47757, Note_off_c, 0, 81, 64
2, 47760, Note_on_c, 0, 82, 110
2, 47880, Note_off_c, 0, 82, 64
2, 47880, Note_on_c, 0, 83, 106
2, 47920, Note_off_c, 0, 83, 64
2, 48000, Note_on_c, 0, 76, 106
2, 48060, Note_off_c, 0, 76, 64
2, 48060, Note_on_c, 0, 74, 106
2, 48120, Note_off_c, 0, 74, 64
2, 48120, Note_on_c, 0, 73, 106
2, 48180, Note_off_c, 0, 73, 64
2, 48180, Note_on_c, 0, 71, 106
2, 48240, Note_off_c, 0, 71, 64
2, 48240, Note_on_c, 0, 69, 106
2, 48300, Note_off_c, 0, 69, 64
2, 48300, Note_on_c, 0, 71, 106
2, 48360, Note_off_c, 0, 71, 64
2, 48360, Note_on_c, 0, 73, 106
2, 48420, Note_off_c, 0, 73, 64
2, 48420, Note_on_c, 0, 74, 106
2, 48480, Note_off_c, 0, 74, 64
2, 48480, Note_on_c, 0, 76, 106
2, 48540, Note_off_c, 0, 76, 64
2, 48540, Note_on_c, 0, 78, 106
2, 48600, Note_off_c, 0, 78, 64
2, 48600, Note_on_c, 0, 80, 106
2, 48660, Note_off_c, 0, 80, 64
2, 48660, Note_on_c, 0, 81, 106
2, 48717, Note_off_c, 0, 81, 64
2, 48720, Note_on_c, 0, 81, 106
2, 48780, Note_off_c, 0, 81, 64
2, 48780, Note_on_c, 0, 80, 106
2, 48840, Note_off_c, 0, 80, 64
2, 48840, Note_on_c, 0, 78, 106
2, 48900, Note_off_c, 0, 78, 64
2, 48900, Note_on_c, 0, 76, 106
2, 48957, Note_off_c, 0, 76, 64
2, 48960, Note_on_c, 0, 76, 106
2, 49020, Note_off_c, 0, 76, 64
2, 49020, Note_on_c, 0, 74, 106
2, 49080, Note_off_c, 0, 74, 64
2, 49080, Note_on_c, 0, 73, 106
2, 49140, Note_off_c, 0, 73, 64
2, 49140, Note_on_c, 0, 71, 106
2, 49200, Note_off_c, 0, 71, 64
2, 49200, Note_on_c, 0, 73, 106
2, 49260, Note_off_c, 0, 73, 64
2, 49260, Note_on_c, 0, 76, 106
2, 49320, Note_off_c, 0, 76, 64
2, 49320, Note_on_c, 0, 69, 106
2, 49380, Note_off_c, 0, 69, 64
2, 49380, Note_on_c, 0, 73, 106
2, 49440, Note_off_c, 0, 73, 64
2, 49440, Note_on_c, 0, 71, 106
2, 49500, Note_off_c, 0, 71, 64
2, 49500, Note_on_c, 0, 74, 106
2, 49560, Note_off_c, 0, 74, 64
2, 49560, Note_on_c, 0, 68, 106
2, 49620, Note_off_c, 0, 68, 64
2, 49620, Note_on_c, 0, 71, 106
2, 49680, Note_off_c, 0, 71, 64
2, 49680, Note_on_c, 0, 69, 106
2, 49880, Note_off_c, 0, 69, 64
2, 49920, Note_on_c, 0, 85, 68
2, 49980, Note_off_c, 0, 85, 64
2, 49980, Note_on_c, 0, 86, 68
2, 50040, Note_off_c, 0, 86, 64
2, 50040, Note_on_c, 0, 85, 68
2, 50100, Note_off_c, 0, 85, 64
2, 50100, Note_on_c, 0, 83, 68
2, 50160, Note_off_c, 0, 83, 64
2, 50160, Note_on_c, 0, 81, 68
2, 50220, Note_off_c, 0, 81, 64
2, 50220, Note_on_c, 0, 83, 68
2, 50280, Note_off_c, 0, 83, 64
2, 50280, Note_on_c, 0, 81, 68
2, 50340, Note_off_c, 0, 81, 64
2, 50340, Note_on_c, 0, 80, 68
2, 50400, Note_off_c, 0, 80, 64
2, 50400, Note_on_c, 0, 78, 68
2, 50460, Note_off_c, 0, 78, 64
2, 50460, Note_on_c, 0, 81, 68
2, 50520, Note_off_c, 0, 81, 64
2, 50520, Note_on_c, 0, 80, 68
2, 50580, Note_off_c, 0, 80, 64
2, 50580, Note_on_c, 0, 78, 68
2, 50640, Note_off_c, 0, 78, 64
2, 50640, Note_on_c, 0, 77, 68
2, 50700, Note_off_c, 0, 77, 64
2, 50700, Note_on_c, 0, 78, 68
2, 50760, Note_off_c, 0, 78, 64
2, 50760, Note_on_c, 0, 80, 68
2, 50820, Note_off_c, 0, 80, 64
2, 50820, Note_on_c, 0, 77, 68
2, 50880, Note_off_c, 0, 77, 64
2, 50880, Note_on_c, 0, 73, 68
2, 50940, Note_off_c, 0, 73, 64
2, 50940, Note_on_c, 0, 75, 68
2, 51000, Note_off_c, 0, 75, 64
2, 51000, Note_on_c, 0, 77, 68
2, 51060, Note_off_c, 0, 77, 64
2, 51060, Note_on_c, 0, 73, 68
2, 51117, Note_off_c, 0, 73, 64
2, 51120, Note_on_c, 0, 78, 68
2, 51180, Note_off_c, 0, 78, 64
2, 51180, Note_on_c, 0, 77, 68
2, 51240, Note_off_c, 0, 77, 64
2, 51240, Note_on_c, 0, 78, 68
2, 51300, Note_off_c, 0, 78, 64
2, 51300, Note_on_c, 0, 80, 68
2, 51360, Note_off_c, 0, 80, 64
2, 51360, Note_on_c, 0, 81, 68
2, 51420, Note_off_c, 0, 81, 64
2, 51420, Note_on_c, 0, 80, 68
2, 51480, Note_off_c, 0, 80, 64
2, 51480, Note_on_c, 0, 81, 68
2, 51540, Note_off_c, 0, 81, 64
2, 51540, Note_on_c, 0, 83, 68
2, 51600, Note_off_c, 0, 83, 64
2, 51600, Note_on_c, 0, 85, 68
2, 51660, Note_off_c, 0, 85, 64
2, 51660, Note_on_c, 0, 84, 68
2, 51720, Note_off_c, 0, 84, 64
2, 51720, Note_on_c, 0, 85, 68
2, 51780, Note_off_c, 0, 85, 64
2, 51780, Note_on_c, 0, 84, 68
2, 51840, Note_off_c, 0, 84, 64
2, 51840, Note_on_c, 0, 85, 68
2, 51900, Note_off_c, 0, 85, 64
2, 51900, Note_on_c, 0, 84, 68
2, 51960, Note_off_c, 0, 84, 64
2, 51960, Note_on_c, 0, 85, 68
2, 52020, Note_off_c, 0, 85, 64
2, 52020, Note_on_c, 0, 82, 68
2, 52077, Note_off_c, 0, 82, 64
2, 52080, Note_on_c, 0, 86, 68
2, 52140, Note_off_c, 0, 86, 64
2, 52140, Note_on_c, 0, 85, 68
2, 52200, Note_off_c, 0, 85, 64
2, 52200, Note_on_c, 0, 86, 68
2, 52260, Note_off_c, 0, 86, 64
2, 52260, Note_on_c, 0, 85, 68
2, 52320, Note_off_c, 0, 85, 64
2, 52320, Note_on_c, 0, 86, 68
2, 52380, Note_off_c, 0, 86, 64
2, 52380, Note_on_c, 0, 85, 68
2, 52440, Note_off_c, 0, 85, 64
2, 52440, Note_on_c, 0, 86, 68
2, 52500, Note_off_c, 0, 86, 64
2, 52500, Note_on_c, 0, 85, 68
2, 52560, Note_off_c, 0, 85, 64
2, 52560, Note_on_c, 0, 86, 68
2, 52620, Note_off_c, 0, 86, 64
2, 52620, Note_on_c, 0, 85, 68
2, 52680, Note_off_c, 0, 85, 64
2, 52680, Note_on_c, 0, 83, 68
2, 52740, Note_off_c, 0, 83, 64
2, 52740, Note_on_c, 0, 81, 68
2, 52800, Note_off_c, 0, 81, 64
2, 52800, Note_on_c, 0, 80, 68
2, 52860, Note_off_c, 0, 80, 64
2, 52860, Note_on_c, 0, 81, 68
2, 52920, Note_off_c, 0, 81, 64
2, 52920, Note_on_c, 0, 83, 68
2, 52980, Note_off_c, 0, 83, 64
2, 52980, Note_on_c, 0, 80, 68
2, 53040, Note_off_c, 0, 80, 64
2, 53040, Note_on_c, 0, 81, 68
2, 53100, Note_off_c, 0, 81, 64
2, 53100, Note_on_c, 0, 83, 68
2, 53160, Note_off_c, 0, 83, 64
2, 53160, Note_on_c, 0, 85, 68
2, 53220, Note_off_c, 0, 85, 64
2, 53220, Note_on_c, 0, 78, 68
2, 53280, Note_off_c, 0, 78, 64
2, 53280, Note_on_c, 0, 77, 68
2, 53340, Note_off_c, 0, 77, 64
2, 53340, Note_on_c, 0, 78, 68
2, 53400, Note_off_c, 0, 78, 64
2, 53400, Note_on_c, 0, 80, 68
2, 53460, Note_off_c, 0, 80, 64
2, 53460, Note_on_c, 0, 77, 68
2, 53520, Note_off_c, 0, 77, 64
2, 53520, Note_on_c, 0, 78, 68
2, 53720, Note_off_c, 0, 78, 64
2, 53760, Note_on_c, 0, 81, 106
2, 53760, Note_on_c, 0, 69, 106
2, 53800, Note_off_c, 0, 69, 64
2, 53800, Note_off_c, 0, 81, 64
2, 53880, Note_on_c, 0, 71, 106
2, 53880, Note_on_c, 0, 83, 106
2, 53920, Note_off_c, 0, 83, 64
2, 53920, Note_off_c, 0, 71, 64
2, 54000, Note_on_c, 0, 73, 127
2, 54000, Note_on_c, 0, 85, 127
2, 54200, Note_off_c, 0, 85, 64
2, 54200, Note_off_c, 0, 73, 64
2, 54240, Note_on_c, 0, 69, 106
2, 54240, Note_on_c, 0, 81, 106
2, 54280, Note_off_c, 0, 81, 64
2, 54280, Note_off_c, 0, 69, 64
2, 54360, Note_on_c, 0, 71, 106
2, 54360, Note_on_c, 0, 83, 106
2, 54400, Note_off_c, 0, 83, 64
2, 54400, Note_off_c, 0, 71, 64
2, 54480, Note_on_c, 0, 73, 127
2, 54480, Note_on_c, 0, 85, 127
2, 54520, Note_off_c, 0, 85, 64
2, 54520, Note_off_c, 0, 73, 64
2, 54600, Note_on_c, 0, 71, 106
2, 54600, Note_on_c, 0, 83, 106
2, 54640, Note_off_c, 0, 83, 64
2, 54640, Note_off_c, 0, 71, 64
2, 54720, Note_on_c, 0, 69, 106
2, 54720, Note_on_c, 0, 81, 106
2, 54760, Note_off_c, 0, 81, 64
2, 54760, Note_off_c, 0, 69, 64
2, 54840, Note_on_c, 0, 68, 106
2, 54840, Note_on_c, 0, 80, 106
2, 54880, Note_off_c, 0, 80, 64
2, 54880, Note_off_c, 0, 68, 64
2, 54960, Note_on_c, 0, 66, 106
2, 54960, Note_on_c, 0, 78, 106
2, 55000, Note_off_c, 0, 78, 64
2, 55000, Note_off_c, 0, 66, 64
2, 55080, Note_on_c, 0, 68, 106
2, 55080, Note_on_c, 0, 80, 106
2, 55120, Note_off_c, 0, 80, 64
2, 55120, Note_off_c, 0, 68, 64
2, 55200, Note_on_c, 0, 69, 106
2, 55200, Note_on_c, 0, 81, 106
2, 55240, Note_off_c, 0, 81, 64
2, 55240, Note_off_c, 0, 69, 64
2, 55320, Note_on_c, 0, 71, 106
2, 55320, Note_on_c, 0, 83, 106
2, 55360, Note_off_c, 0, 83, 64
2, 55360, Note_off_c, 0, 71, 64
2, 55440, Note_on_c, 0, 68, 106
2, 55440, Note_on_c, 0, 80, 106
2, 55560, Note_off_c, 0, 80, 64
2, 55560, Note_off_c, 0, 68, 64
2, 55560, Note_on_c, 0, 64, 106
2, 55560, Note_on_c, 0, 76, 106
2, 55600, Note_off_c, 0, 76, 64
2, 55600, Note_off_c, 0, 64, 64
2, 55680, Note_on_c, 0, 69, 106
2, 55680, Note_on_c, 0, 81, 106
2, 55720, Note_off_c, 0, 81, 64
2, 55720, Note_off_c, 0, 69, 64
2, 55800, Note_on_c, 0, 83, 106
2, 55800, Note_on_c, 0, 71, 106
2, 55840, Note_off_c, 0, 71, 64
2, 55840, Note_off_c, 0, 83, 64
2, 55920, Note_on_c, 0, 73, 110
2, 55920, Note_on_c, 0, 85, 110
2, 56120, Note_off_c, 0, 85, 64
2, 56120, Note_off_c, 0, 73, 64
2, 56160, Note_on_c, 0, 69, 106
2, 56160, Note_on_c, 0, 81, 106
2, 56200, Note_off_c, 0, 81, 64
2, 56200, Note_off_c, 0, 69, 64
2, 56280, Note_on_c, 0, 71, 106
2, 56280, Note_on_c, 0, 83, 106
2, 56320, Note_off_c, 0, 83, 64
2, 56320, Note_off_c, 0, 71, 64
2, 56400, Note_on_c, 0, 73, 110
2, 56400, Note_on_c, 0, 85, 110
2, 56440, Note_off_c, 0, 85, 64
2, 56440, Note_off_c, 0, 73, 64
2, 56520, Note_on_c, 0, 71, 106
2, 56520, Note_on_c, 0, 83, 106
2, 56560, Note_off_c, 0, 83, 64
2, 56560, Note_off_c, 0, 71, 64
2, 56640, Note_on_c, 0, 69, 106
2, 56640, Note_on_c, 0, 81, 106
2, 56680, Note_off_c, 0, 81, 64
2, 56680, Note_off_c, 0, 69, 64
2, 56760, Note_on_c, 0, 68, 106
2, 56760, Note_on_c, 0, 80, 106
2, 56800, Note_off_c, 0, 80, 64
2, 56800, Note_off_c, 0, 68, 64
2, 56880, Note_on_c, 0, 66, 106
2, 56880, Note_on_c, 0, 78, 106
2, 56920, Note_off_c, 0, 78, 64
2, 56920, Note_off_c, 0, 66, 64
2, 57000, Note_on_c, 0, 71, 106
2, 57000, Note_on_c, 0, 83, 106
2, 57040, Note_off_c, 0, 83, 64
2, 57040, Note_off_c, 0, 71, 64
2, 57120, Note_on_c, 0, 68, 106
2, 57120, Note_on_c, 0, 80, 106
2, 57160, Note_off_c, 0, 80, 64
2, 57160, Note_off_c, 0, 68, 64
2, 57240, Note_on_c, 0, 64, 106
2, 57240, Note_on_c, 0, 76, 106
2, 57280, Note_off_c, 0, 76, 64
2, 57280, Note_off_c, 0, 64, 64
2, 57360, Note_on_c, 0, 69, 106
2, 57360, Note_on_c, 0, 81, 106
2, 57560, Note_off_c, 0, 81, 64
2, 57560, Note_off_c, 0, 69, 64
2, 57600, Note_on_c, 0, 81, 106
2, 57600, Note_on_c, 0, 69, 106
2, 57640, Note_off_c, 0, 69, 64
2, 57640, Note_off_c, 0, 81, 64
2, 57720, Note_on_c, 0, 71, 106
2, 57720, Note_on_c, 0, 83, 106
2, 57760, Note_off_c, 0, 83, 64
2, 57760, Note_off_c, 0, 71, 64
2, 57840, Note_on_c, 0, 73, 110
2, 57840, Note_on_c, 0, 85, 110
2, 58040, Note_off_c, 0, 85, 64
2, 58040, Note_off_c, 0, 73, 64
2, 58080, Note_on_c, 0, 69, 106
2, 58080, Note_on_c, 0, 81, 106
2, 58120, Note_off_c, 0, 81, 64
2, 58120, Note_off_c, 0, 69, 64
2, 58200, Note_on_c, 0, 71, 106
2, 58200, Note_on_c, 0, 83, 106
2, 58240, Note_off_c, 0, 83, 64
2, 58240, Note_off_c, 0, 71, 64
2, 58320, Note_on_c, 0, 73, 110
2, 58320, Note_on_c, 0, 85, 110
2, 58360, Note_off_c, 0, 85, 64
2, 58360, Note_off_c, 0, 73, 64
2, 58440, Note_on_c, 0, 71, 106
2, 58440, Note_on_c, 0, 83, 106
2, 58480, Note_off_c, 0, 83, 64
2, 58480, Note_off_c, 0, 71, 64
2, 58560, Note_on_c, 0, 69, 106
2, 58560, Note_on_c, 0, 81, 106
2, 58600, Note_off_c, 0, 81, 64
2, 58600, Note_off_c, 0, 69, 64
2, 58680, Note_on_c, 0, 68, 106
2, 58680, Note_on_c, 0, 80, 106
2, 58720, Note_off_c, 0, 80, 64
2, 58720, Note_off_c, 0, 68, 64
2, 58800, Note_on_c, 0, 66, 106
2, 58800, Note_on_c, 0, 78, 106
2, 58840, Note_off_c, 0, 78, 64
2, 58840, Note_off_c, 0, 66, 64
2, 58920, Note_on_c, 0, 68, 106
2, 58920, Note_on_c, 0, 80, 106
2, 58960, Note_off_c, 0, 80, 64
2, 58960, Note_off_c, 0, 68, 64
2, 59040, Note_on_c, 0, 69, 106
2, 59040, Note_on_c, 0, 81, 106
2, 59080, Note_off_c, 0, 81, 64
2, 59080, Note_off_c, 0, 69, 64
2, 59160, Note_on_c, 0, 71, 106
2, 59160, Note_on_c, 0, 83, 106
2, 59200, Note_off_c, 0, 83, 64
2, 59200, Note_off_c, 0, 71, 64
2, 59280, Note_on_c, 0, 68, 106
2, 59280, Note_on_c, 0, 80, 106
2, 59400, Note_off_c, 0, 80, 64
2, 59400, Note_off_c, 0, 68, 64
2, 59400, Note_on_c, 0, 64, 106
2, 59400, Note_on_c, 0, 76, 106
2, 59440, Note_off_c, 0, 76, 64
2, 59440, Note_off_c, 0, 64, 64
2, 59520, Note_on_c, 0, 69, 106
2, 59520, Note_on_c, 0, 81, 106
2, 59560, Note_off_c, 0, 81, 64
2, 59560, Note_off_c, 0, 69, 64
2, 59640, Note_on_c, 0, 83, 106
2, 59640, Note_on_c, 0, 71, 106
2, 59680, Note_off_c, 0, 71, 64
2, 59680, Note_off_c, 0, 83, 64
2, 59760, Note_on_c, 0, 73, 110
2, 59760, Note_on_c, 0, 85, 110
2, 59960, Note_off_c, 0, 85, 64
2, 59960, Note_off_c, 0, 73, 64
2, 60000, Note_on_c, 0, 69, 106
2, 60000, Note_on_c, 0, 81, 106
2, 60040, Note_off_c, 0, 81, 64
2, 60040, Note_off_c, 0, 69, 64
2, 60120, Note_on_c, 0, 71, 106
2, 60120, Note_on_c, 0, 83, 106
2, 60160, Note_off_c, 0, 83, 64
2, 60160, Note_off_c, 0, 71, 64
2, 60240, Note_on_c, 0, 73, 110
2, 60240, Note_on_c, 0, 85, 110
2, 60280, Note_off_c, 0, 85, 64
2, 60280, Note_off_c, 0, 73, 64
2, 60360, Note_on_c, 0, 71, 106
2, 60360, Note_on_c, 0, 83, 106
2, 60400, Note_off_c, 0, 83, 64
2, 60400, Note_off_c, 0, 71, 64
2, 60480, Note_on_c, 0, 69, 106
2, 60480, Note_on_c, 0, 81, 106
2, 60520, Note_off_c, 0, 81, 64
2, 60520, Note_off_c, 0, 69, 64
2, 60600, Note_on_c, 0, 68, 106
2, 60600, Note_on_c, 0, 80, 106
2, 60640, Note_off_c, 0, 80, 64
2, 60640, Note_off_c, 0, 68, 64
2, 60720, Note_on_c, 0, 66, 106
2, 60720, Note_on_c, 0, 78, 106
2, 60760, Note_off_c, 0, 78, 64
2, 60760, Note_off_c, 0, 66, 64
2, 60840, Note_on_c, 0, 71, 106
2, 60840, Note_on_c, 0, 83, 106
2, 60880, Note_off_c, 0, 83, 64
2, 60880, Note_off_c, 0, 71, 64
2, 60960, Note_on_c, 0, 68, 106
2, 60960, Note_on_c, 0, 80, 106
2, 61000, Note_off_c, 0, 80, 64
2, 61000, Note_off_c, 0, 68, 64
2, 61080, Note_on_c, 0, 64, 106
2, 61080, Note_on_c, 0, 76, 106
2, 61120, Note_off_c, 0, 76, 64
2, 61120, Note_off_c, 0, 64, 64
2, 61200, Note_on_c, 0, 69, 106
2, 61200, Note_on_c, 0, 81, 106
2, 61400, Note_off_c, 0, 81, 64
2, 61400, Note_off_c, 0, 69, 64
2, 61440, Note_on_c, 0, 71, 68
2, 61500, Note_off_c, 0, 71, 64
2, 61500, Note_on_c, 0, 69, 68
2, 61560, Note_off_c, 0, 69, 64
2, 61560, Note_on_c, 0, 68, 68
2, 61620, Note_off_c, 0, 68, 64
2, 61620, Note_on_c, 0, 69, 68
2, 61680, Note_off_c, 0, 69, 64
2, 61680, Note_on_c, 0, 72, 68
2, 61797, Note_off_c, 0, 72, 64
2, 61920, Note_on_c, 0, 74, 68
2, 61980, Note_off_c, 0, 74, 64
2, 61980, Note_on_c, 0, 72, 68
2, 62040, Note_off_c, 0, 72, 64
2, 62040, Note_on_c, 0, 71, 68
2, 62100, Note_off_c, 0, 71, 64
2, 62100, Note_on_c, 0, 72, 68
2, 62160, Note_off_c, 0, 72, 64
2, 62160, Note_on_c, 0, 76, 68
2, 62277, Note_off_c, 0, 76, 64
2, 62400, Note_on_c, 0, 77, 68
2, 62460, Note_off_c, 0, 77, 64
2, 62460, Note_on_c, 0, 76, 68
2, 62520, Note_off_c, 0, 76, 64
2, 62520, Note_on_c, 0, 75, 68
2, 62580, Note_off_c, 0, 75, 64
2, 62580, Note_on_c, 0, 76, 68
2, 62640, Note_off_c, 0, 76, 64
2, 62640, Note_on_c, 0, 83, 68
2, 62700, Note_off_c, 0, 83, 64
2, 62700, Note_on_c, 0, 81, 68
2, 62760, Note_off_c, 0, 81, 64
2, 62760, Note_on_c, 0, 80, 68
2, 62820, Note_off_c, 0, 80, 64
2, 62820, Note_on_c, 0, 81, 68
2, 62880, Note_off_c, 0, 81, 64
2, 62880, Note_on_c, 0, 83, 68
2, 62940, Note_off_c, 0, 83, 64
2, 62940, Note_on_c, 0, 81, 68
2, 63000, Note_off_c, 0, 81, 64
2, 63000, Note_on_c, 0, 80, 68
2, 63060, Note_off_c, 0, 80, 64
2, 63060, Note_on_c, 0, 81, 68
2, 63117, Note_off_c, 0, 81, 64
2, 63120, Note_on_c, 0, 84, 70
2, 63320, Note_off_c, 0, 84, 64
2, 63360, Note_on_c, 0, 81, 68
2, 63400, Note_off_c, 0, 81, 64
2, 63480, Note_on_c, 0, 84, 68
2, 63520, Note_off_c, 0, 84, 64
2, 63600, Note_on_c, 0, 79, 68
2, 63630, Note_off_c, 0, 79, 64
2, 63630, Note_on_c, 0, 81, 68
2, 63660, Note_off_c, 0, 81, 64
2, 63660, Note_on_c, 0, 83, 68
2, 63700, Note_off_c, 0, 83, 64
2, 63720, Note_on_c, 0, 78, 68
2, 63720, Note_on_c, 0, 81, 68
2, 63760, Note_off_c, 0, 81, 64
2, 63760, Note_off_c, 0, 78, 64
2, 63840, Note_on_c, 0, 76, 68
2, 63840, Note_on_c, 0, 79, 68
2, 63880, Note_off_c, 0, 79, 64
2, 63880, Note_off_c, 0, 76, 64
2, 63960, Note_on_c, 0, 78, 68
2, 63960, Note_on_c, 0, 81, 68
2, 64000, Note_off_c, 0, 81, 64
2, 64000, Note_off_c, 0, 78, 64
2, 64080, Note_on_c, 0, 79, 68
2, 64110, Note_off_c, 0, 79, 64
2, 64110, Note_on_c, 0, 81, 68
2, 64140, Note_off_c, 0, 81, 64
2, 64140, Note_on_c, 0, 83, 68
2, 64180, Note_off_c, 0, 83, 64
2, 64200, Note_on_c, 0, 78, 68
2, 64200, Note_on_c, 0, 81, 68
2, 64240, Note_off_c, 0, 81, 64
2, 64240, Note_off_c, 0, 78, 64
2, 64320, Note_on_c, 0, 76, 68
2, 64320, Note_on_c, 0, 79, 68
2, 64360, Note_off_c, 0, 79, 64
2, 64360, Note_off_c, 0, 76, 64
2, 64440, Note_on_c, 0, 78, 68
2, 64440, Note_on_c, 0, 81, 68
2, 64480, Note_off_c, 0, 81, 64
2, 64480, Note_off_c, 0, 78, 64
2, 64560, Note_on_c, 0, 79, 68
2, 64590, Note_off_c, 0, 79, 64
2, 64590, Note_on_c, 0, 81, 68
2, 64620, Note_off_c, 0, 81, 64
2, 64620, Note_on_c, 0, 83, 68
2, 64660, Note_off_c, 0, 83, 64
2, 64680, Note_on_c, 0, 78, 68
2, 64680, Note_on_c, 0, 81, 68
2, 64720, Note_off_c, 0, 81, 64
2, 64720, Note_off_c, 0, 78, 64
2, 64800, Note_on_c, 0, 76, 68
2, 64800, Note_on_c, 0, 79, 68
2, 64840, Note_off_c, 0, 79, 64
2, 64840, Note_off_c, 0, 76, 64
2, 64920, Note_on_c, 0, 75, 68
2, 64920, Note_on_c, 0, 78, 68
2, 64960, Note_off_c, 0, 78, 64
2, 64960, Note_off_c, 0, 75, 64
2, 65040, Note_on_c, 0, 76, 68
2, 65240, Note_off_c, 0, 76, 64
2, 65280, Note_on_c, 0, 71, 68
2, 65340, Note_off_c, 0, 71, 64
2, 65340, Note_on_c, 0, 69, 68
2, 65400, Note_off_c, 0, 69, 64
2, 65400, Note_on_c, 0, 68, 68
2, 65460, Note_off_c, 0, 68, 64
2, 65460, Note_on_c, 0, 69, 68
2, 65520, Note_off_c, 0, 69, 64
2, 65520, Note_on_c, 0, 72, 68
2, 65637, Note_off_c, 0, 72, 64
2, 65760, Note_on_c, 0, 74, 68
2, 65820, Note_off_c, 0, 74, 64
2, 65820, Note_on_c, 0, 72, 68
2, 65880, Note_off_c, 0, 72, 64
2, 65880, Note_on_c, 0, 71, 68
2, 65940, Note_off_c, 0, 71, 64
2, 65940, Note_on_c, 0, 72, 68
2, 66000, Note_off_c, 0, 72, 64
2, 66000, Note_on_c, 0, 76, 68
2, 66117, Note_off_c, 0, 76, 64
2, 66240, Note_on_c, 0, 77, 68
2, 66300, Note_off_c, 0, 77, 64
2, 66300, Note_on_c, 0, 76, 68
2, 66360, Note_off_c, 0, 76, 64
2, 66360, Note_on_c, 0, 75, 68
2, 66420, Note_off_c, 0, 75, 64
2, 66420, Note_on_c, 0, 76, 68
2, 66480, Note_off_c, 0, 76, 64
2, 66480, Note_on_c, 0, 83, 68
2, 66540, Note_off_c, 0, 83, 64
2, 66540, Note_on_c, 0, 81, 68
2, 66600, Note_off_c, 0, 81, 64
2, 66600, Note_on_c, 0, 80, 68
2, 66660, Note_off_c, 0, 80, 64
2, 66660, Note_on_c, 0, 81, 68
2, 66720, Note_off_c, 0, 81, 64
2, 66720, Note_on_c, 0, 83, 68
2, 66780, Note_off_c, 0, 83, 64
2, 66780, Note_on_c, 0, 81, 68
2, 66840, Note_off_c, 0, 81, 64
2, 66840, Note_on_c, 0, 80, 68
2, 66900, Note_off_c, 0, 80, 64
2, 66900, Note_on_c, 0, 81, 68
2, 66957, Note_off_c, 0, 81, 64
2, 66960, Note_on_c, 0, 84, 70
2, 67160, Note_off_c, 0, 84, 64
2, 67200, Note_on_c, 0, 81, 68
2, 67240, Note_off_c, 0, 81, 64
2, 67320, Note_on_c, 0, 84, 68
2, 67360, Note_off_c, 0, 84, 64
2, 67440, Note_on_c, 0, 79, 68
2, 67470, Note_off_c, 0, 79, 64
2, 67470, Note_on_c, 0, 81, 68
2, 67500, Note_off_c, 0, 81, 64
2, 67500, Note_on_c, 0, 83, 68
2, 67540, Note_off_c, 0, 83, 64
2, 67560, Note_on_c, 0, 78, 68
2, 67560, Note_on_c, 0, 81, 68
2, 67600, Note_off_c, 0, 81, 64
2, 67600, Note_off_c, 0, 78, 64
2, 67680, Note_on_c, 0, 76, 68
2, 67680, Note_on_c, 0, 79, 68
2, 67720, Note_off_c, 0, 79, 64
2, 67720, Note_off_c, 0, 76, 64
2, 67800, Note_on_c, 0, 78, 68
2, 67800, Note_on_c, 0, 81, 68
2, 67840, Note_off_c, 0, 81, 64
2, 67840, Note_off_c, 0, 78, 64
2, 67920, Note_on_c, 0, 79, 68
2, 67950, Note_off_c, 0, 79, 64
2, 67950, Note_on_c, 0, 81, 68
2, 67980, Note_off_c, 0, 81, 64
2, 67980, Note_on_c, 0, 83, 68
2, 68020, Note_off_c, 0, 83, 64
2, 68040, Note_on_c, 0, 78, 68
2, 68040, Note_on_c, 0, 81, 68
2, 68080, Note_off_c, 0, 81, 64
2, 68080, Note_off_c, 0, 78, 64
2, 68160, Note_on_c, 0, 76, 68
2, 68160, Note_on_c, 0, 79, 68
2, 68200, Note_off_c, 0, 79, 64
2, 68200, Note_off_c, 0, 76, 64
2, 68280, Note_on_c, 0, 78, 68
2, 68280, Note_on_c, 0, 81, 68
2, 68320, Note_off_c, 0, 81, 64
2, 68320, Note_off_c, 0, 78, 64
2, 68400, Note_on_c, 0, 79, 68
2, 68430, Note_off_c, 0, 79, 64
2, 68430, Note_on_c, 0, 81, 68
2, 68460, Note_off_c, 0, 81, 64
2, 68460, Note_on_c, 0, 83, 68
2, 68500, Note_off_c, 0, 83, 64
2, 68520, Note_on_c, 0, 78, 68
2, 68520, Note_on_c, 0, 81, 68
2, 68560, Note_off_c, 0, 81, 64
2, 68560, Note_off_c, 0, 78, 64
2, 68640, Note_on_c, 0, 76, 68
2, 68640, Note_on_c, 0, 79, 68
2, 68680, Note_off_c, 0, 79, 64
2, 68680, Note_off_c, 0, 76, 64
2, 68760, Note_on_c, 0, 75, 68
2, 68760, Note_on_c, 0, 78, 68
2, 68800, Note_off_c, 0, 78, 64
2, 68800, Note_off_c, 0, 75, 64
2, 68880, Note_on_c, 0, 76, 68
2, 69080, Note_off_c, 0, 76, 64
2, 69120, Note_on_c, 0, 72, 70
2, 69120, Note_on_c, 0, 76, 70
2, 69160, Note_off_c, 0, 76, 64
2, 69160, Note_off_c, 0, 72, 64
2, 69240, Note_on_c, 0, 77, 70
2, 69240, Note_on_c, 0, 74, 70
2, 69280, Note_off_c, 0, 74, 64
2, 69280, Note_off_c, 0, 77, 64
2, 69360, Note_on_c, 0, 76, 70
2, 69360, Note_on_c, 0, 79, 70
2, 69400, Note_off_c, 0, 79, 64
2, 69400, Note_off_c, 0, 76, 64
2, 69480, Note_on_c, 0, 76, 70
2, 69480, Note_on_c, 0, 79, 70
2, 69520, Note_off_c, 0, 79, 64
2, 69520, Note_off_c, 0, 76, 64
2, 69600, Note_on_c, 0, 81, 70
2, 69660, Note_off_c, 0, 81, 64
2, 69660, Note_on_c, 0, 79, 70
2, 69720, Note_off_c, 0, 79, 64
2, 69720, Note_on_c, 0, 77, 70
2, 69780, Note_off_c, 0, 77, 64
2, 69780, Note_on_c, 0, 76, 70
2, 69837, Note_off_c, 0, 76, 64
2, 69840, Note_on_c, 0, 71, 92
2, 69840, Note_on_c, 0, 74, 90
2, 69960, Note_off_c, 0, 71, 64
2, 69960, Note_on_c, 0, 67, 70
2, 70040, Note_off_c, 0, 74, 64
2, 70077, Note_off_c, 0, 67, 64
2, 70080, Note_on_c, 0, 72, 70
2, 70080, Note_on_c, 0, 76, 70
2, 70120, Note_off_c, 0, 76, 64
2, 70120, Note_off_c, 0, 72, 64
2, 70200, Note_on_c, 0, 77, 70
2, 70200, Note_on_c, 0, 74, 70
2, 70240, Note_off_c, 0, 74, 64
2, 70240, Note_off_c, 0, 77, 64
2, 70320, Note_on_c, 0, 76, 70
2, 70320, Note_on_c, 0, 79, 70
2, 70360, Note_off_c, 0, 79, 64
2, 70360, Note_off_c, 0, 76, 64
2, 70440, Note_on_c, 0, 76, 70
2, 70440, Note_on_c, 0, 79, 70
2, 70480, Note_off_c, 0, 79, 64
2, 70480, Note_off_c, 0, 76, 64
2, 70560, Note_on_c, 0, 81, 70
2, 70620, Note_off_c, 0, 81, 64
2, 70620, Note_on_c, 0, 79, 70
2, 70680, Note_off_c, 0, 79, 64
2, 70680, Note_on_c, 0, 77, 70
2, 70740, Note_off_c, 0, 77, 64
2, 70740, Note_on_c, 0, 76, 70
2, 70797, Note_off_c, 0, 76, 64
2, 70800, Note_on_c, 0, 71, 92
2, 70800, Note_on_c, 0, 74, 92
2, 71000, Note_off_c, 0, 74, 64
2, 71000, Note_off_c, 0, 71, 64
2, 71040, Note_on_c, 0, 69, 70
2, 71040, Note_on_c, 0, 72, 70
2, 71080, Note_off_c, 0, 72, 64
2, 71080, Note_off_c, 0, 69, 64
2, 71160, Note_on_c, 0, 74, 70
2, 71160, Note_on_c, 0, 71, 70
2, 71200, Note_off_c, 0, 71, 64
2, 71200, Note_off_c, 0, 74, 64
2, 71280, Note_on_c, 0, 72, 70
2, 71280, Note_on_c, 0, 76, 70
2, 71320, Note_off_c, 0, 76, 64
2, 71320, Note_off_c, 0, 72, 64
2, 71400, Note_on_c, 0, 72, 70
2, 71400, Note_on_c, 0, 76, 70
2, 71440, Note_off_c, 0, 76, 64
2, 71440, Note_off_c, 0, 72, 64
2, 71520, Note_on_c, 0, 77, 70
2, 71580, Note_off_c, 0, 77, 64
2, 71580, Note_on_c, 0, 76, 70
2, 71640, Note_off_c, 0, 76, 64
2, 71640, Note_on_c, 0, 74, 70
2, 71700, Note_off_c, 0, 74, 64
2, 71700, Note_on_c, 0, 72, 70
2, 71757, Note_off_c, 0, 72, 64
2, 71760, Note_on_c, 0, 68, 72
2, 71760, Note_on_c, 0, 71, 70
2, 71880, Note_off_c, 0, 68, 64
2, 71880, Note_on_c, 0, 64, 70
2, 71960, Note_off_c, 0, 71, 64
2, 71997, Note_off_c, 0, 64, 64
2, 72000, Note_on_c, 0, 69, 70
2, 72000, Note_on_c, 0, 72, 70
2, 72040, Note_off_c, 0, 72, 64
2, 72040, Note_off_c, 0, 69, 64
2, 72120, Note_on_c, 0, 74, 70
2, 72120, Note_on_c, 0, 71, 70
2, 72160, Note_off_c, 0, 71, 64
2, 72160, Note_off_c, 0, 74, 64
2, 72240, Note_on_c, 0, 72, 70
2, 72240, Note_on_c, 0, 76, 70
2, 72280, Note_off_c, 0, 76, 64
2, 72280, Note_off_c, 0, 72, 64
2, 72360, Note_on_c, 0, 72, 70
2, 72360, Note_on_c, 0, 76, 70
2, 72400, Note_off_c, 0, 76, 64
2, 72400, Note_off_c, 0, 72, 64
2, 72480, Note_on_c, 0, 77, 70
2, 72540, Note_off_c, 0, 77, 64
2, 72540, Note_on_c, 0, 76, 70
2, 72600, Note_off_c, 0, 76, 64
2, 72600, Note_on_c, 0, 74, 70
2, 72660, Note_off_c, 0, 74, 64
2, 72660, Note_on_c, 0, 72, 70
2, 72717, Note_off_c, 0, 72, 64
2, 72720, Note_on_c, 0, 68, 92
2, 72720, Note_on_c, 0, 71, 92
2, 72920, Note_off_c, 0, 71, 64
2, 72920, Note_off_c, 0, 68, 64
2, 72960, Note_on_c, 0, 71, 68
2, 73020, Note_off_c, 0, 71, 64
2, 73020, Note_on_c, 0, 69, 68
2, 73080, Note_off_c, 0, 69, 64
2, 73080, Note_on_c, 0, 68, 68
2, 73140, Note_off_c, 0, 68, 64
2, 73140, Note_on_c, 0, 69, 68
2, 73200, Note_off_c, 0, 69, 64
2, 73200, Note_on_c, 0, 72, 68
2, 73317, Note_off_c, 0, 72, 64
2, 73440, Note_on_c, 0, 74, 68
2, 73500, Note_off_c, 0, 74, 64
2, 73500, Note_on_c, 0, 72, 68
2, 73560, Note_off_c, 0, 72, 64
2, 73560, Note_on_c, 0, 71, 68
2, 73620, Note_off_c, 0, 71, 64
2, 73620, Note_on_c, 0, 72, 68
2, 73680, Note_off_c, 0, 72, 64
2, 73680, Note_on_c, 0, 76, 68
2, 73797, Note_off_c, 0, 76, 64
2, 73920, Note_on_c, 0, 77, 68
2, 73980, Note_off_c, 0, 77, 64
2, 73980, Note_on_c, 0, 76, 68
2, 74040, Note_off_c, 0, 76, 64
2, 74040, Note_on_c, 0, 75, 68
2, 74100, Note_off_c, 0, 75, 64
2, 74100, Note_on_c, 0, 76, 68
2, 74160, Note_off_c, 0, 76, 64
2, 74160, Note_on_c, 0, 83, 68
2, 74220, Note_off_c, 0, 83, 64
2, 74220, Note_on_c, 0, 81, 68
2, 74280, Note_off_c, 0, 81, 64
2, 74280, Note_on_c, 0, 80, 68
2, 74340, Note_off_c, 0, 80, 64
2, 74340, Note_on_c, 0, 81, 68
2, 74400, Note_off_c, 0, 81, 64
2, 74400, Note_on_c, 0, 83, 68
2, 74460, Note_off_c, 0, 83, 64
2, 74460, Note_on_c, 0, 81, 68
2, 74520, Note_off_c, 0, 81, 64
2, 74520, Note_on_c, 0, 80, 68
2, 74580, Note_off_c, 0, 80, 64
2, 74580, Note_on_c, 0, 81, 68
2, 74637, Note_off_c, 0, 81, 64
2, 74640, Note_on_c, 0, 84, 73
2, 74840, Note_off_c, 0, 84, 64
2, 74880, Note_on_c, 0, 81, 68
2, 74920, Note_off_c, 0, 81, 64
2, 75000, Note_on_c, 0, 83, 68
2, 75040, Note_off_c, 0, 83, 64
2, 75120, Note_on_c, 0, 84, 68
2, 75160, Note_off_c, 0, 84, 64
2, 75240, Note_on_c, 0, 83, 68
2, 75280, Note_off_c, 0, 83, 64
2, 75360, Note_on_c, 0, 81, 68
2, 75400, Note_off_c, 0, 81, 64
2, 75480, Note_on_c, 0, 80, 68
2, 75520, Note_off_c, 0, 80, 64
2, 75600, Note_on_c, 0, 81, 68
2, 75640, Note_off_c, 0, 81, 64
2, 75720, Note_on_c, 0, 76, 68
2, 75760, Note_off_c, 0, 76, 64
2, 75840, Note_on_c, 0, 77, 68
2, 75880, Note_off_c, 0, 77, 64
2, 75960, Note_on_c, 0, 74, 68
2, 76000, Note_off_c, 0, 74, 64
2, 76080, Note_on_c, 0, 72, 68
2, 76320, Note_off_c, 0, 72, 64
2, 76320, Note_on_c, 0, 71, 68
2, 76380, Note_off_c, 0, 71, 64
2, 76380, Note_on_c, 0, 72, 68
2, 76440, Note_off_c, 0, 72, 64
2, 76440, Note_on_c, 0, 71, 68
2, 76460, Note_off_c, 0, 71, 64
2, 76460, Note_on_c, 0, 72, 68
2, 76480, Note_off_c, 0, 72, 64
2, 76480, Note_on_c, 0, 71, 68
2, 76500, Note_off_c, 0, 71, 64
2, 76500, Note_on_c, 0, 69, 68
2, 76530, Note_off_c, 0, 69, 64
2, 76530, Note_on_c, 0, 71, 68
2, 76560, Note_off_c, 0, 71, 64
2, 76560, Note_on_c, 0, 69, 68
2, 76800, Note_off_c, 0, 69, 64
2, 76800, Note_on_c, 0, 72, 70
2, 76800, Note_on_c, 0, 76, 70
2, 76840, Note_off_c, 0, 76, 64
2, 76840, Note_off_c, 0, 72, 64
2, 76920, Note_on_c, 0, 77, 70
2, 76920, Note_on_c, 0, 74, 70
2, 76960, Note_off_c, 0, 74, 64
2, 76960, Note_off_c, 0, 77, 64
2, 77040, Note_on_c, 0, 76, 70
2, 77040, Note_on_c, 0, 79, 70
2, 77080, Note_off_c, 0, 79, 64
2, 77080, Note_off_c, 0, 76, 64
2, 77160, Note_on_c, 0, 76, 70
2, 77160, Note_on_c, 0, 79, 70
2, 77200, Note_off_c, 0, 79, 64
2, 77200, Note_off_c, 0, 76, 64
2, 77280, Note_on_c, 0, 81, 70
2, 77340, Note_off_c, 0, 81, 64
2, 77340, Note_on_c, 0, 79, 70
2, 77400, Note_off_c, 0, 79, 64
2, 77400, Note_on_c, 0, 77, 70
2, 77460, Note_off_c, 0, 77, 64
2, 77460, Note_on_c, 0, 76, 70
2, 77517, Note_off_c, 0, 76, 64
2, 77520, Note_on_c, 0, 71, 92
2, 77520, Note_on_c, 0, 74, 90
2, 77640, Note_off_c, 0, 71, 64
2, 77640, Note_on_c, 0, 67, 70
2, 77720, Note_off_c, 0, 74, 64
2, 77757, Note_off_c, 0, 67, 64
2, 77760, Note_on_c, 0, 72, 70
2, 77760, Note_on_c, 0, 76, 70
2, 77800, Note_off_c, 0, 76, 64
2, 77800, Note_off_c, 0, 72, 64
2, 77880, Note_on_c, 0, 77, 70
2, 77880, Note_on_c, 0, 74, 70
2, 77920, Note_off_c, 0, 74, 64
2, 77920, Note_off_c, 0, 77, 64
2, 78000, Note_on_c, 0, 76, 70
2, 78000, Note_on_c, 0, 79, 70
2, 78040, Note_off_c, 0, 79, 64
2, 78040, Note_off_c, 0, 76, 64
2, 78120, Note_on_c, 0, 76, 70
2, 78120, Note_on_c, 0, 79, 70
2, 78160, Note_off_c, 0, 79, 64
2, 78160, Note_off_c, 0, 76, 64
2, 78240, Note_on_c, 0, 81, 70
2, 78300, Note_off_c, 0, 81, 64
2, 78300, Note_on_c, 0, 79, 70
2, 78360, Note_off_c, 0, 79, 64
2, 78360, Note_on_c, 0, 77, 70
2, 78420, Note_off_c, 0, 77, 64
2, 78420, Note_on_c, 0, 76, 70
2, 78477, Note_off_c, 0, 76, 64
2, 78480, Note_on_c, 0, 71, 92
2, 78480, Note_on_c, 0, 74, 92
2, 78680, Note_off_c, 0, 74, 64
2, 78680, Note_off_c, 0, 71, 64
2, 78720, Note_on_c, 0, 69, 70
2, 78720, Note_on_c, 0, 72, 70
2, 78760, Note_off_c, 0, 72, 64
2, 78760, Note_off_c, 0, 69, 64
2, 78840, Note_on_c, 0, 74, 70
2, 78840, Note_on_c, 0, 71, 70
2, 78880, Note_off_c, 0, 71, 64
2, 78880, Note_off_c, 0, 74, 64
2, 78960, Note_on_c, 0, 72, 70
2, 78960, Note_on_c, 0, 76, 70
2, 79000, Note_off_c, 0, 76, 64
2, 79000, Note_off_c, 0, 72, 64
2, 79080, Note_on_c, 0, 72, 70
2, 79080, Note_on_c, 0, 76, 70
2, 79120, Note_off_c, 0, 76, 64
2, 79120, Note_off_c, 0, 72, 64
2, 79200, Note_on_c, 0, 77, 70
2, 79260, Note_off_c, 0, 77, 64
2, 79260, Note_on_c, 0, 76, 70
2, 79320, Note_off_c, 0, 76, 64
2, 79320, Note_on_c, 0, 74, 70
2, 79380, Note_off_c, 0, 74, 64
2, 79380, Note_on_c, 0, 72, 70
2, 79437, Note_off_c, 0, 72, 64
2, 79440, Note_on_c, 0, 68, 92
2, 79440, Note_on_c, 0, 71, 90
2, 79560, Note_off_c, 0, 68, 64
2, 79560, Note_on_c, 0, 64, 70
2, 79640, Note_off_c, 0, 71, 64
2, 79677, Note_off_c, 0, 64, 64
2, 79680, Note_on_c, 0, 69, 70
2, 79680, Note_on_c, 0, 72, 70
2, 79720, Note_off_c, 0, 72, 64
2, 79720, Note_off_c, 0, 69, 64
2, 79800, Note_on_c, 0, 74, 70
2, 79800, Note_on_c, 0, 71, 70
2, 79840, Note_off_c, 0, 71, 64
2, 79840, Note_off_c, 0, 74, 64
2, 79920, Note_on_c, 0, 72, 70
2, 79920, Note_on_c, 0, 76, 70
2, 79960, Note_off_c, 0, 76, 64
2, 79960, Note_off_c, 0, 72, 64
2, 80040, Note_on_c, 0, 72, 70
2, 80040, Note_on_c, 0, 76, 70
2, 80080, Note_off_c, 0, 76, 64
2, 80080, Note_off_c, 0, 72, 64
2, 80160, Note_on_c, 0, 77, 70
2, 80220, Note_off_c, 0, 77, 64
2, 80220, Note_on_c, 0, 76, 70
2, 80280, Note_off_c, 0, 76, 64
2, 80280, Note_on_c, 0, 74, 70
2, 80340, Note_off_c, 0, 74, 64
2, 80340, Note_on_c, 0, 72, 70
2, 80397, Note_off_c, 0, 72, 64
2, 80400, Note_on_c, 0, 68, 92
2, 80400, Note_on_c, 0, 71, 92
2, 80600, Note_off_c, 0, 71, 64
2, 80600, Note_off_c, 0, 68, 64
2, 80640, Note_on_c, 0, 71, 68
2, 80700, Note_off_c, 0, 71, 64
2, 80700, Note_on_c, 0, 69, 68
2, 80760, Note_off_c, 0, 69, 64
2, 80760, Note_on_c, 0, 68, 68
2, 80820, Note_off_c, 0, 68, 64
2, 80820, Note_on_c, 0, 69, 68
2, 80880, Note_off_c, 0, 69, 64
2, 80880, Note_on_c, 0, 72, 68
2, 80997, Note_off_c, 0, 72, 64
2, 81120, Note_on_c, 0, 74, 68
2, 81180, Note_off_c, 0, 74, 64
2, 81180, Note_on_c, 0, 72, 68
2, 81240, Note_off_c, 0, 72, 64
2, 81240, Note_on_c, 0, 71, 68
2, 81300, Note_off_c, 0, 71, 64
2, 81300, Note_on_c, 0, 72, 68
2, 81360, Note_off_c, 0, 72, 64
2, 81360, Note_on_c, 0, 76, 68
2, 81477, Note_off_c, 0, 76, 64
2, 81600, Note_on_c, 0, 77, 68
2, 81660, Note_off_c, 0, 77, 64
2, 81660, Note_on_c, 0, 76, 68
2, 81720, Note_off_c, 0, 76, 64
2, 81720, Note_on_c, 0, 75, 68
2, 81780, Note_off_c, 0, 75, 64
2, 81780, Note_on_c, 0, 76, 68
2, 81840, Note_off_c, 0, 76, 64
2, 81840, Note_on_c, 0, 83, 68
2, 81900, Note_off_c, 0, 83, 64
2, 81900, Note_on_c, 0, 81, 78
2, 81960, Note_off_c, 0, 81, 64
2, 81960, Note_on_c, 0, 80, 89
2, 82020, Note_off_c, 0, 80, 64
2, 82020, Note_on_c, 0, 81, 100
2, 82080, Note_off_c, 0, 81, 64
2, 82080, Note_on_c, 0, 83, 107
2, 82140, Note_off_c, 0, 83, 64
2, 82140, Note_on_c, 0, 81, 100
2, 82200, Note_off_c, 0, 81, 64
2, 82200, Note_on_c, 0, 80, 88
2, 82260, Note_off_c, 0, 80, 64
2, 82260, Note_on_c, 0, 81, 80
2, 82317, Note_off_c, 0, 81, 64
2, 82320, Note_on_c, 0, 84, 110
2, 82520, Note_off_c, 0, 84, 64
2, 82560, Note_on_c, 0, 81, 68
2, 82600, Note_off_c, 0, 81, 64
2, 82680, Note_on_c, 0, 83, 68
2, 82720, Note_off_c, 0, 83, 64
2, 82800, Note_on_c, 0, 84, 68
2, 82840, Note_off_c, 0, 84, 64
2, 82920, Note_on_c, 0, 83, 68
2, 82960, Note_off_c, 0, 83, 64
2, 83040, Note_on_c, 0, 81, 68
2, 83080, Note_off_c, 0, 81, 64
2, 83160, Note_on_c, 0, 80, 68
2, 83200, Note_off_c, 0, 80, 64
2, 83280, Note_on_c, 0, 81, 68
2, 83320, Note_off_c, 0, 81, 64
2, 83400, Note_on_c, 0, 76, 68
2, 83440, Note_off_c, 0, 76, 64
2, 83520, Note_on_c, 0, 77, 68
2, 83560, Note_off_c, 0, 77, 64
2, 83640, Note_on_c, 0, 74, 68
2, 83680, Note_off_c, 0, 74, 64
2, 83760, Note_on_c, 0, 72, 68
2, 84000, Note_off_c, 0, 72, 64
2, 84000, Note_on_c, 0, 71, 68
2, 84060, Note_off_c, 0, 71, 64
2, 84060, Note_on_c, 0, 72, 68
2, 84120, Note_off_c, 0, 72, 64
2, 84120, Note_on_c, 0, 71, 68
2, 84140, Note_off_c, 0, 71, 64
2, 84140, Note_on_c, 0, 72, 68
2, 84160, Note_off_c, 0, 72, 64
2, 84160, Note_on_c, 0, 71, 68
2, 84180, Note_off_c, 0, 71, 64
2, 84180, Note_on_c, 0, 69, 68
2, 84210, Note_off_c, 0, 69, 64
2, 84210, Note_on_c, 0, 71, 68
2, 84240, Note_off_c, 0, 71, 64
2, 84240, Note_on_c, 0, 69, 68
2, 84480, Note_off_c, 0, 69, 64
2, 84480, Note_on_c, 0, 69, 106
2, 84537, Note_off_c, 0, 69, 64
2, 84540, Note_on_c, 0, 81, 106
2, 84597, Note_off_c, 0, 81, 64
2, 84600, Note_on_c, 0, 71, 106
2, 84657, Note_off_c, 0, 71, 64
2, 84660, Note_on_c, 0, 83, 106
2, 84717, Note_off_c, 0, 83, 64
2, 84720, Note_on_c, 0, 73, 106
2, 84777, Note_off_c, 0, 73, 64
2, 84780, Note_on_c, 0, 85, 106
2, 84837, Note_off_c, 0, 85, 64
2, 84960, Note_on_c, 0, 69, 106
2, 85017, Note_off_c, 0, 69, 64
2, 85020, Note_on_c, 0, 81, 106
2, 85077, Note_off_c, 0, 81, 64
2, 85080, Note_on_c, 0, 71, 106
2, 85137, Note_off_c, 0, 71, 64
2, 85140, Note_on_c, 0, 83, 106
2, 85197, Note_off_c, 0, 83, 64
2, 85200, Note_on_c, 0, 73, 106
2, 85257, Note_off_c, 0, 73, 64
2, 85260, Note_on_c, 0, 85, 106
2, 85317, Note_off_c, 0, 85, 64
2, 85320, Note_on_c, 0, 71, 106
2, 85377, Note_off_c, 0, 71, 64
2, 85380, Note_on_c, 0, 83, 106
2, 85437, Note_off_c, 0, 83, 64
2, 85440, Note_on_c, 0, 69, 106
2, 85497, Note_off_c, 0, 69, 64
2, 85500, Note_on_c, 0, 81, 106
2, 85557, Note_off_c, 0, 81, 64
2, 85560, Note_on_c, 0, 68, 106
2, 85617, Note_off_c, 0, 68, 64
2, 85620, Note_on_c, 0, 80, 106
2, 85677, Note_off_c, 0, 80, 64
2, 85680, Note_on_c, 0, 66, 106
2, 85737, Note_off_c, 0, 66, 64
2, 85740, Note_on_c, 0, 78, 106
2, 85797, Note_off_c, 0, 78, 64
2, 85800, Note_on_c, 0, 68, 106
2, 85857, Note_off_c, 0, 68, 64
2, 85860, Note_on_c, 0, 80, 106
2, 85917, Note_off_c, 0, 80, 64
2, 85920, Note_on_c, 0, 69, 106
2, 85977, Note_off_c, 0, 69, 64
2, 85980, Note_on_c, 0, 81, 106
2, 86037, Note_off_c, 0, 81, 64
2, 86040, Note_on_c, 0, 71, 106
2, 86097, Note_off_c, 0, 71, 64
2, 86100, Note_on_c, 0, 83, 106
2, 86157, Note_off_c, 0, 83, 64
2, 86160, Note_on_c, 0, 68, 106
2, 86217, Note_off_c, 0, 68, 64
2, 86220, Note_on_c, 0, 80, 106
2, 86277, Note_off_c, 0, 80, 64
2, 86280, Note_on_c, 0, 64, 106
2, 86337, Note_off_c, 0, 64, 64
2, 86340, Note_on_c, 0, 76, 106
2, 86397, Note_off_c, 0, 76, 64
2, 86400, Note_on_c, 0, 69, 106
2, 86457, Note_off_c, 0, 69, 64
2, 86460, Note_on_c, 0, 81, 106
2, 86517, Note_off_c, 0, 81, 64
2, 86520, Note_on_c, 0, 71, 106
2, 86577, Note_off_c, 0, 71, 64
2, 86580, Note_on_c, 0, 83, 106
2, 86637, Note_off_c, 0, 83, 64
2, 86640, Note_on_c, 0, 73, 106
2, 86697, Note_off_c, 0, 73, 64
2, 86700, Note_on_c, 0, 85, 106
2, 86757, Note_off_c, 0, 85, 64
2, 86880, Note_on_c, 0, 69, 106
2, 86937, Note_off_c, 0, 69, 64
2, 86940, Note_on_c, 0, 81, 106
2, 86997, Note_off_c, 0, 81, 64
2, 87000, Note_on_c, 0, 71, 106
2, 87057, Note_off_c, 0, 71, 64
2, 87060, Note_on_c, 0, 83, 106
2, 87117, Note_off_c, 0, 83, 64
2, 87120, Note_on_c, 0, 73, 106
2, 87177, Note_off_c, 0, 73, 64
2, 87180, Note_on_c, 0, 85, 106
2, 87237, Note_off_c, 0, 85, 64
2, 87240, Note_on_c, 0, 71, 106
2, 87297, Note_off_c, 0, 71, 64
2, 87300, Note_on_c, 0, 83, 106
2, 87357, Note_off_c, 0, 83, 64
2, 87360, Note_on_c, 0, 69, 106
2, 87417, Note_off_c, 0, 69, 64
2, 87420, Note_on_c, 0, 81, 106
2, 87477, Note_off_c, 0, 81, 64
2, 87480, Note_on_c, 0, 68, 106
2, 87537, Note_off_c, 0, 68, 64
2, 87540, Note_on_c, 0, 80, 106
2, 87597, Note_off_c, 0, 80, 64
2, 87600, Note_on_c, 0, 66, 106
2, 87657, Note_off_c, 0, 66, 64
2, 87660, Note_on_c, 0, 78, 106
2, 87717, Note_off_c, 0, 78, 64
2, 87720, Note_on_c, 0, 71, 106
2, 87777, Note_off_c, 0, 71, 64
2, 87780, Note_on_c, 0, 83, 106
2, 87837, Note_off_c, 0, 83, 64
2, 87840, Note_on_c, 0, 68, 106
2, 87897, Note_off_c, 0, 68, 64
2, 87900, Note_on_c, 0, 80, 106
2, 87957, Note_off_c, 0, 80, 64
2, 87960, Note_on_c, 0, 64, 106
2, 88017, Note_off_c, 0, 64, 64
2, 88020, Note_on_c, 0, 76, 106
2, 88077, Note_off_c, 0, 76, 64
2, 88080, Note_on_c, 0, 69, 106
2, 88080, Note_on_c, 0, 81, 106
2, 88280, Note_off_c, 0, 81, 64
2, 88280, Note_off_c, 0, 69, 64
2, 88320, Note_on_c, 0, 69, 106
2, 88377, Note_off_c, 0, 69, 64
2, 88380, Note_on_c, 0, 81, 106
2, 88437, Note_off_c, 0, 81, 64
2, 88440, Note_on_c, 0, 71, 106
2, 88497, Note_off_c, 0, 71, 64
2, 88500, Note_on_c, 0, 83, 106
2, 88557, Note_off_c, 0, 83, 64
2, 88560, Note_on_c, 0, 73, 106
2, 88617, Note_off_c, 0, 73, 64
2, 88620, Note_on_c, 0, 85, 106
2, 88677, Note_off_c, 0, 85, 64
2, 88800, Note_on_c, 0, 69, 106
2, 88857, Note_off_c, 0, 69, 64
2, 88860, Note_on_c, 0, 81, 106
2, 88917, Note_off_c, 0, 81, 64
2, 88920, Note_on_c, 0, 71, 106
2, 88977, Note_off_c, 0, 71, 64
2, 88980, Note_on_c, 0, 83, 106
2, 89037, Note_off_c, 0, 83, 64
2, 89040, Note_on_c, 0, 73, 106
2, 89097, Note_off_c, 0, 73, 64
2, 89100, Note_on_c, 0, 85, 106
2, 89157, Note_off_c, 0, 85, 64
2, 89160, Note_on_c, 0, 71, 106
2, 89217, Note_off_c, 0, 71, 64
2, 89220, Note_on_c, 0, 83, 106
2, 89277, Note_off_c, 0, 83, 64
2, 89280, Note_on_c, 0, 69, 106
2, 89337, Note_off_c, 0, 69, 64
2, 89340, Note_on_c, 0, 81, 106
2, 89397, Note_off_c, 0, 81, 64
2, 89400, Note_on_c, 0, 68, 106
2, 89457, Note_off_c, 0, 68, 64
2, 89460, Note_on_c, 0, 80, 106
2, 89517, Note_off_c, 0, 80, 64
2, 89520, Note_on_c, 0, 66, 106
2, 89577, Note_off_c, 0, 66, 64
2, 89580, Note_on_c, 0, 78, 106
2, 89637, Note_off_c, 0, 78, 64
2, 89640, Note_on_c, 0, 68, 106
2, 89697, Note_off_c, 0, 68, 64
2, 89700, Note_on_c, 0, 80, 106
2, 89757, Note_off_c, 0, 80, 64
2, 89760, Note_on_c, 0, 69, 106
2, 89817, Note_off_c, 0, 69, 64
2, 89820, Note_on_c, 0, 81, 106
2, 89877, Note_off_c, 0, 81, 64
2, 89880, Note_on_c, 0, 71, 106
2, 89937, Note_off_c, 0, 71, 64
2, 89940, Note_on_c, 0, 83, 106
2, 89997, Note_off_c, 0, 83, 64
2, 90000, Note_on_c, 0, 68, 106
2, 90057, Note_off_c, 0, 68, 64
2, 90060, Note_on_c, 0, 80, 106
2, 90117, Note_off_c, 0, 80, 64
2, 90120, Note_on_c, 0, 64, 106
2, 90177, Note_off_c, 0, 64, 64
2, 90180, Note_on_c, 0, 76, 106
2, 90237, Note_off_c, 0, 76, 64
2, 90240, Note_on_c, 0, 69, 106
2, 90297, Note_off_c, 0, 69, 64
2, 90300, Note_on_c, 0, 81, 106
2, 90357, Note_off_c, 0, 81, 64
2, 90360, Note_on_c, 0, 71, 106
2, 90417, Note_off_c, 0, 71, 64
2, 90420, Note_on_c, 0, 83, 106
2, 90477, Note_off_c, 0, 83, 64
2, 90480, Note_on_c, 0, 73, 106
2, 90537, Note_off_c, 0, 73, 64
2, 90540, Note_on_c, 0, 85, 106
2, 90597, Note_off_c, 0, 85, 64
2, 90720, Note_on_c, 0, 69, 106
2, 90777, Note_off_c, 0, 69, 64
2, 90780, Note_on_c, 0, 81, 106
2, 90837, Note_off_c, 0, 81, 64
2, 90840, Note_on_c, 0, 71, 106
2, 90897, Note_off_c, 0, 71, 64
2, 90900, Note_on_c, 0, 83, 106
2, 90957, Note_off_c, 0, 83, 64
2, 90960, Note_on_c, 0, 73, 106
2, 91017, Note_off_c, 0, 73, 64
2, 91020, Note_on_c, 0, 85, 106
2, 91077, Note_off_c, 0, 85, 64
2, 91080, Note_on_c, 0, 71, 106
2, 91137, Note_off_c, 0, 71, 64
2, 91140, Note_on_c, 0, 83, 106
2, 91197, Note_off_c, 0, 83, 64
2, 91200, Note_on_c, 0, 69, 106
2, 91257, Note_off_c, 0, 69, 64
2, 91260, Note_on_c, 0, 81, 106
2, 91317, Note_off_c, 0, 81, 64
2, 91320, Note_on_c, 0, 68, 106
2, 91377, Note_off_c, 0, 68, 64
2, 91380, Note_on_c, 0, 80, 106
2, 91437, Note_off_c, 0, 80, 64
2, 91440, Note_on_c, 0, 66, 106
2, 91497, Note_off_c, 0, 66, 64
2, 91500, Note_on_c, 0, 78, 106
2, 91557, Note_off_c, 0, 78, 64
2, 91560, Note_on_c, 0, 71, 106
2, 91617, Note_off_c, 0, 71, 64
2, 91620, Note_on_c, 0, 83, 106
2, 91677, Note_off_c, 0, 83, 64
2, 91680, Note_on_c, 0, 68, 106
2, 91737, Note_off_c, 0, 68, 64
2, 91740, Note_on_c, 0, 80, 106
2, 91797, Note_off_c, 0, 80, 64
2, 91800, Note_on_c, 0, 64, 106
2, 91857, Note_off_c, 0, 64, 64
2, 91860, Note_on_c, 0, 76, 106
2, 91917, Note_off_c, 0, 76, 64
2, 91920, Note_on_c, 0, 81, 106
2, 91920, Note_on_c, 0, 69, 106
2, 92120, Note_off_c, 0, 69, 64
2, 92120, Note_off_c, 0, 81, 64
2, 92160, Note_on_c, 0, 85, 106
2, 92160, Note_on_c, 0, 73, 106
2, 92337, Note_off_c, 0, 85, 64
2, 92340, Note_on_c, 0, 85, 106
2, 92360, Note_off_c, 0, 73, 64
2, 92397, Note_off_c, 0, 85, 64
2, 92400, Note_on_c, 0, 73, 105
2, 92400, Note_on_c, 0, 81, 105
2, 92400, Note_on_c, 0, 85, 105
2, 92400, Note_on_c, 0, 76, 105
2, 92592, Note_off_c, 0, 76, 64
2, 92592, Note_off_c, 0, 81, 64
2, 92592, Note_off_c, 0, 73, 64
2, 92820, Note_off_c, 0, 85, 64
2, 92880, Note_on_c, 0, 73, 110
2, 92880, Note_on_c, 0, 76, 110
2, 92880, Note_on_c, 0, 81, 110
2, 92880, Note_on_c, 0, 85, 106
2, 93080, Note_off_c, 0, 81, 64
2, 93080, Note_off_c, 0, 76, 64
2, 93080, Note_off_c, 0, 73, 64
2, 93300, Note_off_c, 0, 85, 64
2, 93360, Note_on_c, 0, 86, 106
2, 93417, Note_off_c, 0, 86, 64
2, 93420, Note_on_c, 0, 85, 106
2, 93477, Note_off_c, 0, 85, 64
2, 93480, Note_on_c, 0, 83, 106
2, 93537, Note_off_c, 0, 83, 64
2, 93540, Note_on_c, 0, 85, 106
2, 93597, Note_off_c, 0, 85, 64
2, 93600, Note_on_c, 0, 86, 106
2, 93657, Note_off_c, 0, 86, 64
2, 93660, Note_on_c, 0, 85, 106
2, 93717, Note_off_c, 0, 85, 64
2, 93720, Note_on_c, 0, 83, 106
2, 93777, Note_off_c, 0, 83, 64
2, 93780, Note_on_c, 0, 85, 106
2, 93837, Note_off_c, 0, 85, 64
2, 93840, Note_on_c, 0, 78, 110
2, 93840, Note_on_c, 0, 81, 110
2, 93840, Note_on_c, 0, 86, 110
2, 94260, Note_off_c, 0, 86, 64
2, 94260, Note_off_c, 0, 78, 64
2, 94260, Note_off_c, 0, 81, 64
2, 94320, Note_on_c, 0, 86, 106
2, 94350, Note_off_c, 0, 86, 64
2, 94350, Note_on_c, 0, 76, 106
2, 94350, Note_on_c, 0, 81, 106
2, 94350, Note_on_c, 0, 85, 106
2, 94410, Note_off_c, 0, 85, 64
2, 94410, Note_off_c, 0, 81, 64
2, 94410, Note_off_c, 0, 76, 64
2, 94440, Note_on_c, 0, 86, 106
2, 94470, Note_off_c, 0, 86, 64
2, 94470, Note_on_c, 0, 81, 106
2, 94470, Note_on_c, 0, 85, 106
2, 94470, Note_on_c, 0, 76, 106
2, 94530, Note_off_c, 0, 76, 64
2, 94530, Note_off_c, 0, 85, 64
2, 94530, Note_off_c, 0, 81, 64
2, 94560, Note_on_c, 0, 86, 106
2, 94590, Note_off_c, 0, 86, 64
2, 94590, Note_on_c, 0, 76, 106
2, 94590, Note_on_c, 0, 81, 106
2, 94590, Note_on_c, 0, 85, 106
2, 94650, Note_off_c, 0, 85, 64
2, 94650, Note_off_c, 0, 81, 64
2, 94650, Note_off_c, 0, 76, 64
2, 94680, Note_on_c, 0, 86, 106
2, 94710, Note_off_c, 0, 86, 64
2, 94710, Note_on_c, 0, 76, 106
2, 94710, Note_on_c, 0, 81, 106
2, 94710, Note_on_c, 0, 85, 106
2, 94770, Note_off_c, 0, 85, 64
2, 94770, Note_off_c, 0, 81, 64
2, 94770, Note_off_c, 0, 76, 64
2, 94800, Note_on_c, 0, 83, 106
2, 94800, Note_on_c, 0, 76, 106
2, 94800, Note_on_c, 0, 80, 106
2, 95160, Note_off_c, 0, 83, 64
2, 95160, Note_on_c, 0, 88, 106
2, 95200, Note_off_c, 0, 88, 64
2, 95220, Note_off_c, 0, 76, 64
2, 95220, Note_off_c, 0, 80, 64
2, 95280, Note_on_c, 0, 81, 110
2, 95280, Note_on_c, 0, 73, 110
2, 95280, Note_on_c, 0, 76, 110
2, 95280, Note_on_c, 0, 85, 106
2, 95480, Note_off_c, 0, 76, 64
2, 95480, Note_off_c, 0, 73, 64
2, 95480, Note_off_c, 0, 81, 64
2, 95700, Note_off_c, 0, 85, 64
2, 95760, Note_on_c, 0, 73, 110
2, 95760, Note_on_c, 0, 76, 110
2, 95760, Note_on_c, 0, 81, 110
2, 95760, Note_on_c, 0, 85, 106
2, 95960, Note_off_c, 0, 81, 64
2, 95960, Note_off_c, 0, 76, 64
2, 95960, Note_off_c, 0, 73, 64
2, 96180, Note_off_c, 0, 85, 64
2, 96240, Note_on_c, 0, 86, 106
2, 96297, Note_off_c, 0, 86, 64
2, 96300, Note_on_c, 0, 85, 106
2, 96357, Note_off_c, 0, 85, 64
2, 96360, Note_on_c, 0, 83, 106
2, 96417, Note_off_c, 0, 83, 64
2, 96420, Note_on_c, 0, 85, 106
2, 96477, Note_off_c, 0, 85, 64
2, 96480, Note_on_c, 0, 86, 106
2, 96537, Note_off_c, 0, 86, 64
2, 96540, Note_on_c, 0, 85, 106
2, 96597, Note_off_c, 0, 85, 64
2, 96600, Note_on_c, 0, 83, 106
2, 96657, Note_off_c, 0, 83, 64
2, 96660, Note_on_c, 0, 85, 106
2, 96717, Note_off_c, 0, 85, 64
2, 96720, Note_on_c, 0, 78, 110
2, 96720, Note_on_c, 0, 81, 110
2, 96720, Note_on_c, 0, 86, 110
2, 97140, Note_off_c, 0, 78, 64
2, 97140, Note_off_c, 0, 81, 64
2, 97140, Note_off_c, 0, 86, 64
2, 97200, Note_on_c, 0, 86, 106
2, 97227, Note_off_c, 0, 86, 64
2, 97230, Note_on_c, 0, 76, 106
2, 97230, Note_on_c, 0, 81, 106
2, 97230, Note_on_c, 0, 85, 106
2, 97640, Note_off_c, 0, 85, 64
2, 97640, Note_off_c, 0, 76, 64
2, 97640, Note_off_c, 0, 81, 64
2, 97680, Note_on_c, 0, 85, 106
2, 97710, Note_off_c, 0, 85, 64
2, 97710, Note_on_c, 0, 76, 106
2, 97710, Note_on_c, 0, 80, 106
2, 97710, Note_on_c, 0, 83, 106
2, 97770, Note_off_c, 0, 83, 64
2, 97770, Note_off_c, 0, 80, 64
2, 97770, Note_off_c, 0, 76, 64
2, 97800, Note_on_c, 0, 85, 106
2, 97830, Note_off_c, 0, 85, 64
2, 97830, Note_on_c, 0, 80, 106
2, 97830, Note_on_c, 0, 83, 106
2, 97830, Note_on_c, 0, 76, 106
2, 97890, Note_off_c, 0, 76, 64
2, 97890, Note_off_c, 0, 83, 64
2, 97890, Note_off_c, 0, 80, 64
2, 97920, Note_on_c, 0, 85, 106
2, 97950, Note_off_c, 0, 85, 64
2, 97950, Note_on_c, 0, 76, 106
2, 97950, Note_on_c, 0, 80, 106
2, 97950, Note_on_c, 0, 83, 106
2, 98010, Note_off_c, 0, 83, 64
2, 98010, Note_off_c, 0, 80, 64
2, 98010, Note_off_c, 0, 76, 64
2, 98040, Note_on_c, 0, 85, 106
2, 98070, Note_off_c, 0, 85, 64
2, 98070, Note_on_c, 0, 76, 106
2, 98070, Note_on_c, 0, 80, 106
2, 98070, Note_on_c, 0, 83, 106
2, 98130, Note_off_c, 0, 83, 64
2, 98130, Note_off_c, 0, 80, 64
2, 98130, Note_off_c, 0, 76, 64
2, 98160, Note_on_c, 0, 81, 73
2, 98360, Note_off_c, 0, 81, 64
2, 98400, Note_on_c, 0, 76, 68
2, 98427, Note_off_c, 0, 76, 64
2, 98430, Note_on_c, 0, 81, 68
2, 98457, Note_off_c, 0, 81, 64
2, 98460, Note_on_c, 0, 85, 68
2, 98577, Note_off_c, 0, 85, 64
2, 98580, Note_on_c, 0, 85, 68
2, 98637, Note_off_c, 0, 85, 64
2, 98640, Note_on_c, 0, 76, 68
2, 98667, Note_off_c, 0, 76, 64
2, 98670, Note_on_c, 0, 81, 68
2, 98697, Note_off_c, 0, 81, 64
2, 98700, Note_on_c, 0, 85, 68
2, 99080, Note_off_c, 0, 85, 64
2, 99120, Note_on_c, 0, 76, 68
2, 99147, Note_off_c, 0, 76, 64
2, 99150, Note_on_c, 0, 81, 68
2, 99177, Note_off_c, 0, 81, 64
2, 99180, Note_on_c, 0, 85, 68
2, 99560, Note_off_c, 0, 85, 64
2, 99600, Note_on_c, 0, 86, 68
2, 99657, Note_off_c, 0, 86, 64
2, 99660, Note_on_c, 0, 85, 68
2, 99717, Note_off_c, 0, 85, 64
2, 99720, Note_on_c, 0, 83, 68
2, 99777, Note_off_c, 0, 83, 64
2, 99780, Note_on_c, 0, 85, 68
2, 99837, Note_off_c, 0, 85, 64
2, 99840, Note_on_c, 0, 86, 68
2, 99897, Note_off_c, 0, 86, 64
2, 99900, Note_on_c, 0, 85, 68
2, 99957, Note_off_c, 0, 85, 64
2, 99960, Note_on_c, 0, 83, 68
2, 100017, Note_off_c, 0, 83, 64
2, 100020, Note_on_c, 0, 85, 68
2, 100077, Note_off_c, 0, 85, 64
2, 100080, Note_on_c, 0, 86, 70
2, 100500, Note_off_c, 0, 86, 64
2, 100560, Note_on_c, 0, 86, 68
2, 100590, Note_off_c, 0, 86, 64
2, 100590, Note_on_c, 0, 85, 68
2, 100650, Note_off_c, 0, 85, 64
2, 100680, Note_on_c, 0, 86, 68
2, 100710, Note_off_c, 0, 86, 64
2, 100710, Note_on_c, 0, 85, 68
2, 100770, Note_off_c, 0, 85, 64
2, 100800, Note_on_c, 0, 86, 68
2, 100830, Note_off_c, 0, 86, 64
2, 100830, Note_on_c, 0, 85, 68
2, 100890, Note_off_c, 0, 85, 64
2, 100920, Note_on_c, 0, 86, 68
2, 100950, Note_off_c, 0, 86, 64
2, 100950, Note_on_c, 0, 85, 68
2, 101010, Note_off_c, 0, 85, 64
2, 101040, Note_on_c, 0, 83, 68
2, 101400, Note_off_c, 0, 83, 64
2, 101400, Note_on_c, 0, 88, 68
2, 101517, Note_off_c, 0, 88, 64
2, 101520, Note_on_c, 0, 81, 110
2, 101520, Note_on_c, 0, 73, 110
2, 101520, Note_on_c, 0, 76, 110
2, 101520, Note_on_c, 0, 85, 106
2, 101720, Note_off_c, 0, 76, 64
2, 101720, Note_off_c, 0, 73, 64
2, 101720, Note_off_c, 0, 81, 64
2, 101940, Note_off_c, 0, 85, 64
2, 102000, Note_on_c, 0, 73, 110
2, 102000, Note_on_c, 0, 76, 110
2, 102000, Note_on_c, 0, 81, 110
2, 102000, Note_on_c, 0, 85, 106
2, 102200, Note_off_c, 0, 81, 64
2, 102200, Note_off_c, 0, 76, 64
2, 102200, Note_off_c, 0, 73, 64
2, 102420, Note_off_c, 0, 85, 64
2, 102480, Note_on_c, 0, 86, 106
2, 102537, Note_off_c, 0, 86, 64
2, 102540, Note_on_c, 0, 85, 106
2, 102597, Note_off_c, 0, 85, 64
2, 102600, Note_on_c, 0, 83, 106
2, 102657, Note_off_c, 0, 83, 64
2, 102660, Note_on_c, 0, 85, 106
2, 102717, Note_off_c, 0, 85, 64
2, 102720, Note_on_c, 0, 86, 106
2, 102777, Note_off_c, 0, 86, 64
2, 102780, Note_on_c, 0, 85, 106
2, 102837, Note_off_c, 0, 85, 64
2, 102840, Note_on_c, 0, 83, 106
2, 102897, Note_off_c, 0, 83, 64
2, 102900, Note_on_c, 0, 85, 106
2, 102957, Note_off_c, 0, 85, 64
2, 102960, Note_on_c, 0, 78, 110
2, 102960, Note_on_c, 0, 81, 110
2, 102960, Note_on_c, 0, 86, 110
2, 103380, Note_off_c, 0, 78, 64
2, 103380, Note_off_c, 0, 81, 64
2, 103380, Note_off_c, 0, 86, 64
2, 103440, Note_on_c, 0, 86, 106
2, 103467, Note_off_c, 0, 86, 64
2, 103470, Note_on_c, 0, 76, 106
2, 103470, Note_on_c, 0, 81, 106
2, 103470, Note_on_c, 0, 85, 106
2, 103880, Note_off_c, 0, 85, 64
2, 103880, Note_off_c, 0, 76, 64
2, 103880, Note_off_c, 0, 81, 64
2, 103920, Note_on_c, 0, 85, 106
2, 103950, Note_off_c, 0, 85, 64
2, 103950, Note_on_c, 0, 76, 106
2, 103950, Note_on_c, 0, 80, 106
2, 103950, Note_on_c, 0, 83, 106
2, 104010, Note_off_c, 0, 83, 64
2, 104010, Note_off_c, 0, 80, 64
2, 104010, Note_off_c, 0, 76, 64
2, 104040, Note_on_c, 0, 85, 106
2, 104070, Note_off_c, 0, 85, 64
2, 104070, Note_on_c, 0, 80, 106
2, 104070, Note_on_c, 0, 83, 106
2, 104070, Note_on_c, 0, 76, 106
2, 104130, Note_off_c, 0, 76, 64
2, 104130, Note_off_c, 0, 83, 64
2, 104130, Note_off_c, 0, 80, 64
2, 104160, Note_on_c, 0, 85, 106
2, 104190, Note_off_c, 0, 85, 64
2, 104190, Note_on_c, 0, 76, 106
2, 104190, Note_on_c, 0, 80, 106
2, 104190, Note_on_c, 0, 83, 106
2, 104250, Note_off_c, 0, 83, 64
2, 104250, Note_off_c, 0, 80, 64
2, 104250, Note_off_c, 0, 76, 64
2, 104280, Note_on_c, 0, 85, 106
2, 104310, Note_off_c, 0, 85, 64
2, 104310, Note_on_c, 0, 76, 106
2, 104310, Note_on_c, 0, 80, 106
2, 104310, Note_on_c, 0, 83, 106
2, 104370, Note_off_c, 0, 83, 64
2, 104370, Note_off_c, 0, 80, 64
2, 104370, Note_off_c, 0, 76, 64
2, 104400, Note_on_c, 0, 69, 106
2, 104400, Note_on_c, 0, 73, 106
2, 104400, Note_on_c, 0, 76, 106
2, 104400, Note_on_c, 0, 81, 106
2, 104720, Note_off_c, 0, 73, 64
2, 104720, Note_off_c, 0, 69, 64
2, 104720, Note_off_c, 0, 76, 64
2, 104720, Note_off_c, 0, 81, 64
2, 104760, Note_on_c, 0, 73, 106
2, 104760, Note_on_c, 0, 85, 106
2, 104877, Note_off_c, 0, 85, 64
2, 104877, Note_off_c, 0, 73, 64
2, 104880, Note_on_c, 0, 69, 106
2, 104880, Note_on_c, 0, 81, 106
2, 105200, Note_off_c, 0, 69, 64
2, 105200, Note_off_c, 0, 81, 64
2, 105240, Note_on_c, 0, 76, 106
2, 105240, Note_on_c, 0, 88, 106
2, 105357, Note_off_c, 0, 88, 64
2, 105357, Note_off_c, 0, 76, 64
2, 105360, Note_on_c, 0, 69, 106
2, 105360, Note_on_c, 0, 81, 106
2, 105680, Note_off_c, 0, 81, 64
2, 105680, Note_off_c, 0, 69, 64
2, 105720, Note_on_c, 0, 73, 106
2, 105720, Note_on_c, 0, 85, 106
2, 105837, Note_off_c, 0, 85, 64
2, 105837, Note_off_c, 0, 73, 64
2, 105840, Note_on_c, 0, 69, 106
2, 105840, Note_on_c, 0, 81, 106
2, 105957, Note_off_c, 0, 81, 64
2, 105957, Note_off_c, 0, 69, 64
2, 105960, Note_on_c, 0, 73, 106
2, 105960, Note_on_c, 0, 85, 106
2, 106077, Note_off_c, 0, 85, 64
2, 106077, Note_off_c, 0, 73, 64
2, 106080, Note_on_c, 0, 69, 106
2, 106080, Note_on_c, 0, 81, 106
2, 106197, Note_off_c, 0, 81, 64
2, 106197, Note_off_c, 0, 69, 64
2, 106200, Note_on_c, 0, 76, 106
2, 106200, Note_on_c, 0, 88, 106
2, 106317, Note_off_c, 0, 88, 64
2, 106317, Note_off_c, 0, 76, 64
2, 106320, Note_on_c, 0, 81, 106
2, 106520, Note_off_c, 0, 81, 64
2, 106560, Note_on_c, 0, 81, 106
2, 106560, Note_on_c, 0, 69, 106
2, 106560, Note_on_c, 0, 73, 106
2, 106560, Note_on_c, 0, 76, 106
2, 106760, Note_off_c, 0, 76, 64
2, 106760, Note_off_c, 0, 73, 64
2, 106760, Note_off_c, 0, 69, 64
2, 106760, Note_off_c, 0, 81, 64
2, 106800, Note_on_c, 0, 69, 106
2, 106800, Note_on_c, 0, 73, 106
2, 106800, Note_on_c, 0, 76, 106
2, 106800, Note_on_c, 0, 81, 106
2, 107000, Note_off_c, 0, 81, 64
2, 107000, Note_off_c, 0, 76, 64
2, 107000, Note_off_c, 0, 73, 64
2, 107000, Note_off_c, 0, 69, 64
2, 107000, End_track
3, 0, Start_track
3, 0, Title_t, "Left Hand"
3, 0, Program_c, 1, 0
3, 0, Control_c, 1, 7, 127
3, 240, Note_on_c, 1, 57, 54
3, 360, Note_off_c, 1, 57, 64
3, 360, Note_on_c, 1, 64, 54
3, 360, Note_on_c, 1, 60, 54
3, 400, Note_off_c, 1, 60, 64
3, 400, Note_off_c, 1, 64, 64
3, 480, Note_on_c, 1, 60, 54
3, 480, Note_on_c, 1, 64, 54
3, 520, Note_off_c, 1, 64, 64
3, 520, Note_off_c, 1, 60, 64
3, 600, Note_on_c, 1, 60, 54
3, 600, Note_on_c, 1, 64, 54
3, 640, Note_off_c, 1, 64, 64
3, 640, Note_off_c, 1, 60, 64
3, 720, Note_on_c, 1, 57, 54
3, 840, Note_off_c, 1, 57, 64
3, 840, Note_on_c, 1, 60, 54
3, 840, Note_on_c, 1, 64, 54
3, 880, Note_off_c, 1, 64, 64
3, 880, Note_off_c, 1, 60, 64
3, 960, Note_on_c, 1, 60, 54
3, 960, Note_on_c, 1, 64, 54
3, 1000, Note_off_c, 1, 64, 64
3, 1000, Note_off_c, 1, 60, 64
3, 1080, Note_on_c, 1, 60, 54
3, 1080, Note_on_c, 1, 64, 54
3, 1120, Note_off_c, 1, 64, 64
3, 1120, Note_off_c, 1, 60, 64
3, 1200, Note_on_c, 1, 57, 54
3, 1240, Note_off_c, 1, 57, 64
3, 1320, Note_on_c, 1, 64, 54
3, 1320, Note_on_c, 1, 60, 54
3, 1360, Note_off_c, 1, 60, 64
3, 1360, Note_off_c, 1, 64, 64
3, 1440, Note_on_c, 1, 57, 54
3, 1480, Note_off_c, 1, 57, 64
3, 1560, Note_on_c, 1, 60, 54
3, 1560, Note_on_c, 1, 64, 54
3, 1600, Note_off_c, 1, 64, 64
3, 1600, Note_off_c, 1, 60, 64
3, 1680, Note_on_c, 1, 57, 54
3, 1800, Note_off_c, 1, 57, 64
3, 1800, Note_on_c, 1, 60, 54
3, 1800, Note_on_c, 1, 64, 54
3, 1840, Note_off_c, 1, 64, 64
3, 1840, Note_off_c, 1, 60, 64
3, 1920, Note_on_c, 1, 60, 54
3, 1920, Note_on_c, 1, 64, 54
3, 1960, Note_off_c, 1, 64, 64
3, 1960, Note_off_c, 1, 60, 64
3, 2040, Note_on_c, 1, 60, 54
3, 2040, Note_on_c, 1, 64, 54
3, 2080, Note_off_c, 1, 64, 64
3, 2080, Note_off_c, 1, 60, 64
3, 2160, Note_on_c, 1, 52, 54
3, 2200, Note_off_c, 1, 52, 64
3, 2280, Note_on_c, 1, 64, 54
3, 2280, Note_on_c, 1, 59, 54
3, 2320, Note_off_c, 1, 59, 64
3, 2320, Note_off_c, 1, 64, 64
3, 2400, Note_on_c, 1, 59, 54
3, 2400, Note_on_c, 1, 64, 54
3, 2440, Note_off_c, 1, 64, 64
3, 2440, Note_off_c, 1, 59, 64
3, 2520, Note_on_c, 1, 59, 54
3, 2520, Note_on_c, 1, 64, 54
3, 2560, Note_off_c, 1, 64, 64
3, 2560, Note_off_c, 1, 59, 64
3, 2640, Note_on_c, 1, 52, 54
3, 2680, Note_off_c, 1, 52, 64
3, 2760, Note_on_c, 1, 64, 54
3, 2760, Note_on_c, 1, 59, 54
3, 2800, Note_off_c, 1, 59, 64
3, 2800, Note_off_c, 1, 64, 64
3, 2880, Note_on_c, 1, 59, 54
3, 2880, Note_on_c, 1, 64, 54
3, 2920, Note_off_c, 1, 64, 64
3, 2920, Note_off_c, 1, 59, 64
3, 3000, Note_on_c, 1, 59, 54
3, 3000, Note_on_c, 1, 64, 54
3, 3040, Note_off_c, 1, 64, 64
3, 3040, Note_off_c, 1, 59, 64
3, 3120, Note_on_c, 1, 52, 54
3, 3160, Note_off_c, 1, 52, 64
3, 3240, Note_on_c, 1, 64, 54
3, 3240, Note_on_c, 1, 59, 54
3, 3280, Note_off_c, 1, 59, 64
3, 3280, Note_off_c, 1, 64, 64
3, 3360, Note_on_c, 1, 47, 54
3, 3400, Note_off_c, 1, 47, 64
3, 3480, Note_on_c, 1, 59, 54
3, 3520, Note_off_c, 1, 59, 64
3, 3600, Note_on_c, 1, 52, 54
3, 3800, Note_off_c, 1, 52, 64
3, 4080, Note_on_c, 1, 57, 54
3, 4200, Note_off_c, 1, 57, 64
3, 4200, Note_on_c, 1, 64, 54
3, 4200, Note_on_c, 1, 60, 54
3, 4240, Note_off_c, 1, 60, 64
3, 4240, Note_off_c, 1, 64, 64
3, 4320, Note_on_c, 1, 60, 54
3, 4320, Note_on_c, 1, 64, 54
3, 4360, Note_off_c, 1, 64, 64
3, 4360, Note_off_c, 1, 60, 64
3, 4440, Note_on_c, 1, 60, 54
3, 4440, Note_on_c, 1, 64, 54
3, 4480, Note_off_c, 1, 64, 64
3, 4480, Note_off_c, 1, 60, 64
3, 4560, Note_on_c, 1, 57, 54
3, 4680, Note_off_c, 1, 57, 64
3, 4680, Note_on_c, 1, 60, 54
3, 4680, Note_on_c, 1, 64, 54
3, 4720, Note_off_c, 1, 64, 64
3, 4720, Note_off_c, 1, 60, 64
3, 4800, Note_on_c, 1, 60, 54
3, 4800, Note_on_c, 1, 64, 54
3, 4840, Note_off_c, 1, 64, 64
3, 4840, Note_off_c, 1, 60, 64
3, 4920, Note_on_c, 1, 60, 54
3, 4920, Note_on_c, 1, 64, 54
3, 4960, Note_off_c, 1, 64, 64
3, 4960, Note_off_c, 1, 60, 64
3, 5040, Note_on_c, 1, 57, 54
3, 5080, Note_off_c, 1, 57, 64
3, 5160, Note_on_c, 1, 64, 54
3, 5160, Note_on_c, 1, 60, 54
3, 5200, Note_off_c, 1, 60, 64
3, 5200, Note_off_c, 1, 64, 64
3, 5280, Note_on_c, 1, 57, 54
3, 5320, Note_off_c, 1, 57, 64
3, 5400, Note_on_c, 1, 60, 54
3, 5400, Note_on_c, 1, 64, 54
3, 5440, Note_off_c, 1, 64, 64
3, 5440, Note_off_c, 1, 60, 64
3, 5520, Note_on_c, 1, 57, 54
3, 5640, Note_off_c, 1, 57, 64
3, 5640, Note_on_c, 1, 60, 54
3, 5640, Note_on_c, 1, 64, 54
3, 5680, Note_off_c, 1, 64, 64
3, 5680, Note_off_c, 1, 60, 64
3, 5760, Note_on_c, 1, 60, 54
3, 5760, Note_on_c, 1, 64, 54
3, 5800, Note_off_c, 1, 64, 64
3, 5800, Note_off_c, 1, 60, 64
3, 5880, Note_on_c, 1, 60, 54
3, 5880, Note_on_c, 1, 64, 54
3, 5920, Note_off_c, 1, 64, 64
3, 5920, Note_off_c, 1, 60, 64
3, 6000, Note_on_c, 1, 52, 54
3, 6040, Note_off_c, 1, 52, 64
3, 6120, Note_on_c, 1, 64, 54
3, 6120, Note_on_c, 1, 59, 54
3, 6160, Note_off_c, 1, 59, 64
3, 6160, Note_off_c, 1, 64, 64
3, 6240, Note_on_c, 1, 59, 54
3, 6240, Note_on_c, 1, 64, 54
3, 6280, Note_off_c, 1, 64, 64
3, 6280, Note_off_c, 1, 59, 64
3, 6360, Note_on_c, 1, 59, 54
3, 6360, Note_on_c, 1, 64, 54
3, 6400, Note_off_c, 1, 64, 64
3, 6400, Note_off_c, 1, 59, 64
3, 6480, Note_on_c, 1, 52, 54
3, 6520, Note_off_c, 1, 52, 64
3, 6600, Note_on_c, 1, 64, 54
3, 6600, Note_on_c, 1, 59, 54
3, 6640, Note_off_c, 1, 59, 64
3, 6640, Note_off_c, 1, 64, 64
3, 6720, Note_on_c, 1, 59, 54
3, 6720, Note_on_c, 1, 64, 54
3, 6760, Note_off_c, 1, 64, 64
3, 6760, Note_off_c, 1, 59, 64
3, 6840, Note_on_c, 1, 59, 54
3, 6840, Note_on_c, 1, 64, 54
3, 6880, Note_off_c, 1, 64, 64
3, 6880, Note_off_c, 1, 59, 64
3, 6960, Note_on_c, 1, 52, 54
3, 7000, Note_off_c, 1, 52, 64
3, 7080, Note_on_c, 1, 64, 54
3, 7080, Note_on_c, 1, 59, 54
3, 7120, Note_off_c, 1, 59, 64
3, 7120, Note_off_c, 1, 64, 64
3, 7200, Note_on_c, 1, 47, 54
3, 7240, Note_off_c, 1, 47, 64
3, 7320, Note_on_c, 1, 59, 54
3, 7360, Note_off_c, 1, 59, 64
3, 7440, Note_on_c, 1, 52, 54
3, 7640, Note_off_c, 1, 52, 64
3, 7920, Note_on_c, 1, 48, 56
3, 7960, Note_off_c, 1, 48, 64
3, 8040, Note_on_c, 1, 60, 56
3, 8080, Note_off_c, 1, 60, 64
3, 8160, Note_on_c, 1, 52, 56
3, 8200, Note_off_c, 1, 52, 64
3, 8280, Note_on_c, 1, 64, 56
3, 8320, Note_off_c, 1, 64, 64
3, 8400, Note_on_c, 1, 55, 59
3, 8600, Note_off_c, 1, 55, 64
3, 8880, Note_on_c, 1, 48, 56
3, 8920, Note_off_c, 1, 48, 64
3, 9000, Note_on_c, 1, 60, 56
3, 9040, Note_off_c, 1, 60, 64
3, 9120, Note_on_c, 1, 52, 56
3, 9160, Note_off_c, 1, 52, 64
3, 9240, Note_on_c, 1, 64, 56
3, 9280, Note_off_c, 1, 64, 64
3, 9360, Note_on_c, 1, 55, 59
3, 9560, Note_off_c, 1, 55, 64
3, 9840, Note_on_c, 1, 45, 56
3, 9880, Note_off_c, 1, 45, 64
3, 9960, Note_on_c, 1, 57, 56
3, 10000, Note_off_c, 1, 57, 64
3, 10080, Note_on_c, 1, 48, 56
3, 10120, Note_off_c, 1, 48, 64
3, 10200, Note_on_c, 1, 60, 56
3, 10240, Note_off_c, 1, 60, 64
3, 10320, Note_on_c, 1, 52, 59
3, 10520, Note_off_c, 1, 52, 64
3, 10800, Note_on_c, 1, 45, 56
3, 10840, Note_off_c, 1, 45, 64
3, 10920, Note_on_c, 1, 57, 56
3, 10960, Note_off_c, 1, 57, 64
3, 11040, Note_on_c, 1, 48, 56
3, 11080, Note_off_c, 1, 48, 64
3, 11160, Note_on_c, 1, 60, 56
3, 11200, Note_off_c, 1, 60, 64
3, 11280, Note_on_c, 1, 52, 59
3, 11480, Note_off_c, 1, 52, 64
3, 11760, Note_on_c, 1, 57, 54
3, 11880, Note_off_c, 1, 57, 64
3, 11880, Note_on_c, 1, 64, 54
3, 11880, Note_on_c, 1, 60, 54
3, 11920, Note_off_c, 1, 60, 64
3, 11920, Note_off_c, 1, 64, 64
3, 12000, Note_on_c, 1, 60, 54
3, 12000, Note_on_c, 1, 64, 54
3, 12040, Note_off_c, 1, 64, 64
3, 12040, Note_off_c, 1, 60, 64
3, 12120, Note_on_c, 1, 60, 54
3, 12120, Note_on_c, 1, 64, 54
3, 12160, Note_off_c, 1, 64, 64
3, 12160, Note_off_c, 1, 60, 64
3, 12240, Note_on_c, 1, 57, 54
3, 12360, Note_off_c, 1, 57, 64
3, 12360, Note_on_c, 1, 60, 54
3, 12360, Note_on_c, 1, 64, 54
3, 12400, Note_off_c, 1, 64, 64
3, 12400, Note_off_c, 1, 60, 64
3, 12480, Note_on_c, 1, 60, 54
3, 12480, Note_on_c, 1, 64, 54
3, 12520, Note_off_c, 1, 64, 64
3, 12520, Note_off_c, 1, 60, 64
3, 12600, Note_on_c, 1, 60, 54
3, 12600, Note_on_c, 1, 64, 54
3, 12640, Note_off_c, 1, 64, 64
3, 12640, Note_off_c, 1, 60, 64
3, 12720, Note_on_c, 1, 57, 54
3, 12760, Note_off_c, 1, 57, 64
3, 12840, Note_on_c, 1, 64, 54
3, 12840, Note_on_c, 1, 60, 54
3, 12880, Note_off_c, 1, 60, 64
3, 12880, Note_off_c, 1, 64, 64
3, 12960, Note_on_c, 1, 57, 54
3, 13000, Note_off_c, 1, 57, 64
3, 13080, Note_on_c, 1, 60, 54
3, 13080, Note_on_c, 1, 64, 54
3, 13120, Note_off_c, 1, 64, 64
3, 13120, Note_off_c, 1, 60, 64
3, 13200, Note_on_c, 1, 53, 54
3, 13285, Note_off_c, 1, 53, 64
3, 13320, Note_on_c, 1, 57, 54
3, 13320, Note_on_c, 1, 63, 54
3, 13360, Note_off_c, 1, 63, 64
3, 13360, Note_off_c, 1, 57, 64
3, 13440, Note_on_c, 1, 57, 54
3, 13440, Note_on_c, 1, 63, 54
3, 13480, Note_off_c, 1, 63, 64
3, 13480, Note_off_c, 1, 57, 64
3, 13560, Note_on_c, 1, 57, 54
3, 13560, Note_on_c, 1, 63, 54
3, 13600, Note_off_c, 1, 63, 64
3, 13600, Note_off_c, 1, 57, 64
3, 13680, Note_on_c, 1, 52, 54
3, 13720, Note_off_c, 1, 52, 64
3, 13800, Note_on_c, 1, 57, 54
3, 13800, Note_on_c, 1, 64, 54
3, 13840, Note_off_c, 1, 64, 64
3, 13840, Note_off_c, 1, 57, 64
3, 13920, Note_on_c, 1, 50, 54
3, 13960, Note_off_c, 1, 50, 64
3, 14040, Note_on_c, 1, 53, 54
3, 14040, Note_on_c, 1, 59, 54
3, 14080, Note_off_c, 1, 59, 64
3, 14080, Note_off_c, 1, 53, 64
3, 14160, Note_on_c, 1, 48, 54
3, 14200, Note_off_c, 1, 48, 64
3, 14280, Note_on_c, 1, 52, 54
3, 14280, Note_on_c, 1, 57, 54
3, 14320, Note_off_c, 1, 57, 64
3, 14320, Note_off_c, 1, 52, 64
3, 14400, Note_on_c, 1, 50, 54
3, 14440, Note_off_c, 1, 50, 64
3, 14520, Note_on_c, 1, 53, 54
3, 14520, Note_on_c, 1, 59, 54
3, 14560, Note_off_c, 1, 59, 64
3, 14560, Note_off_c, 1, 53, 64
3, 14640, Note_on_c, 1, 52, 54
3, 14640, Note_on_c, 1, 57, 54
3, 14680, Note_off_c, 1, 57, 64
3, 14680, Note_off_c, 1, 52, 64
3, 14760, Note_on_c, 1, 52, 54
3, 14760, Note_on_c, 1, 57, 54
3, 14800, Note_off_c, 1, 57, 64
3, 14800, Note_off_c, 1, 52, 64
3, 14880, Note_on_c, 1, 52, 54
3, 14880, Note_on_c, 1, 56, 54
3, 14920, Note_off_c, 1, 56, 64
3, 14920, Note_off_c, 1, 52, 64
3, 15000, Note_on_c, 1, 52, 54
3, 15000, Note_on_c, 1, 56, 54
3, 15040, Note_off_c, 1, 56, 64
3, 15040, Note_off_c, 1, 52, 64
3, 15120, Note_on_c, 1, 45, 54
3, 15120, Note_on_c, 1, 57, 54
3, 15320, Note_off_c, 1, 57, 64
3, 15320, Note_off_c, 1, 45, 64
3, 15600, Note_on_c, 1, 48, 56
3, 15640, Note_off_c, 1, 48, 64
3, 15720, Note_on_c, 1, 60, 56
3, 15760, Note_off_c, 1, 60, 64
3, 15840, Note_on_c, 1, 52, 56
3, 15880, Note_off_c, 1, 52, 64
3, 15960, Note_on_c, 1, 64, 56
3, 16000, Note_off_c, 1, 64, 64
3, 16080, Note_on_c, 1, 55, 59
3, 16280, Note_off_c, 1, 55, 64
3, 16560, Note_on_c, 1, 48, 56
3, 16600, Note_off_c, 1, 48, 64
3, 16680, Note_on_c, 1, 60, 56
3, 16720, Note_off_c, 1, 60, 64
3, 16800, Note_on_c, 1, 52, 56
3, 16840, Note_off_c, 1, 52, 64
3, 16920, Note_on_c, 1, 64, 56
3, 16960, Note_off_c, 1, 64, 64
3, 17040, Note_on_c, 1, 55, 59
3, 17240, Note_off_c, 1, 55, 64
3, 17520, Note_on_c, 1, 45, 56
3, 17560, Note_off_c, 1, 45, 64
3, 17640, Note_on_c, 1, 57, 56
3, 17680, Note_off_c, 1, 57, 64
3, 17760, Note_on_c, 1, 48, 56
3, 17800, Note_off_c, 1, 48, 64
3, 17880, Note_on_c, 1, 60, 56
3, 17920, Note_off_c, 1, 60, 64
3, 18000, Note_on_c, 1, 52, 59
3, 18200, Note_off_c, 1, 52, 64
3, 18480, Note_on_c, 1, 45, 56
3, 18520, Note_off_c, 1, 45, 64
3, 18600, Note_on_c, 1, 57, 56
3, 18640, Note_off_c, 1, 57, 64
3, 18720, Note_on_c, 1, 48, 56
3, 18760, Note_off_c, 1, 48, 64
3, 18840, Note_on_c, 1, 60, 56
3, 18880, Note_off_c, 1, 60, 64
3, 18960, Note_on_c, 1, 52, 59
3, 19160, Note_off_c, 1, 52, 64
3, 19440, Note_on_c, 1, 57, 54
3, 19560, Note_off_c, 1, 57, 64
3, 19560, Note_on_c, 1, 64, 54
3, 19560, Note_on_c, 1, 60, 54
3, 19600, Note_off_c, 1, 60, 64
3, 19600, Note_off_c, 1, 64, 64
3, 19680, Note_on_c, 1, 60, 54
3, 19680, Note_on_c, 1, 64, 54
3, 19720, Note_off_c, 1, 64, 64
3, 19720, Note_off_c, 1, 60, 64
3, 19800, Note_on_c, 1, 60, 54
3, 19800, Note_on_c, 1, 64, 54
3, 19840, Note_off_c, 1, 64, 64
3, 19840, Note_off_c, 1, 60, 64
3, 19920, Note_on_c, 1, 57, 54
3, 20040, Note_off_c, 1, 57, 64
3, 20040, Note_on_c, 1, 60, 54
3, 20040, Note_on_c, 1, 64, 54
3, 20080, Note_off_c, 1, 64, 64
3, 20080, Note_off_c, 1, 60, 64
3, 20160, Note_on_c, 1, 60, 54
3, 20160, Note_on_c, 1, 64, 54
3, 20200, Note_off_c, 1, 64, 64
3, 20200, Note_off_c, 1, 60, 64
3, 20280, Note_on_c, 1, 60, 54
3, 20280, Note_on_c, 1, 64, 54
3, 20320, Note_off_c, 1, 64, 64
3, 20320, Note_off_c, 1, 60, 64
3, 20400, Note_on_c, 1, 57, 54
3, 20440, Note_off_c, 1, 57, 64
3, 20520, Note_on_c, 1, 64, 54
3, 20520, Note_on_c, 1, 60, 54
3, 20560, Note_off_c, 1, 60, 64
3, 20560, Note_off_c, 1, 64, 64
3, 20640, Note_on_c, 1, 57, 54
3, 20680, Note_off_c, 1, 57, 64
3, 20760, Note_on_c, 1, 60, 54
3, 20760, Note_on_c, 1, 64, 54
3, 20800, Note_off_c, 1, 64, 64
3, 20800, Note_off_c, 1, 60, 64
3, 20880, Note_on_c, 1, 53, 54
3, 20965, Note_off_c, 1, 53, 64
3, 21000, Note_on_c, 1, 57, 54
3, 21000, Note_on_c, 1, 63, 54
3, 21040, Note_off_c, 1, 63, 64
3, 21040, Note_off_c, 1, 57, 64
3, 21120, Note_on_c, 1, 57, 54
3, 21120, Note_on_c, 1, 63, 54
3, 21160, Note_off_c, 1, 63, 64
3, 21160, Note_off_c, 1, 57, 64
3, 21240, Note_on_c, 1, 57, 54
3, 21240, Note_on_c, 1, 63, 54
3, 21280, Note_off_c, 1, 63, 64
3, 21280, Note_off_c, 1, 57, 64
3, 21360, Note_on_c, 1, 52, 54
3, 21400, Note_off_c, 1, 52, 64
3, 21480, Note_on_c, 1, 57, 54
3, 21480, Note_on_c, 1, 64, 54
3, 21520, Note_off_c, 1, 64, 64
3, 21520, Note_off_c, 1, 57, 64
3, 21600, Note_on_c, 1, 50, 54
3, 21640, Note_off_c, 1, 50, 64
3, 21720, Note_on_c, 1, 53, 54
3, 21720, Note_on_c, 1, 59, 54
3, 21760, Note_off_c, 1, 59, 64
3, 21760, Note_off_c, 1, 53, 64
3, 21840, Note_on_c, 1, 48, 54
3, 21880, Note_off_c, 1, 48, 64
3, 21960, Note_on_c, 1, 52, 54
3, 21960, Note_on_c, 1, 57, 54
3, 22000, Note_off_c, 1, 57, 64
3, 22000, Note_off_c, 1, 52, 64
3, 22080, Note_on_c, 1, 50, 54
3, 22120, Note_off_c, 1, 50, 64
3, 22200, Note_on_c, 1, 53, 54
3, 22200, Note_on_c, 1, 59, 54
3, 22240, Note_off_c, 1, 59, 64
3, 22240, Note_off_c, 1, 53, 64
3, 22320, Note_on_c, 1, 52, 54
3, 22320, Note_on_c, 1, 57, 54
3, 22360, Note_off_c, 1, 57, 64
3, 22360, Note_off_c, 1, 52, 64
3, 22440, Note_on_c, 1, 52, 54
3, 22440, Note_on_c, 1, 57, 54
3, 22480, Note_off_c, 1, 57, 64
3, 22480, Note_off_c, 1, 52, 64
3, 22560, Note_on_c, 1, 52, 54
3, 22560, Note_on_c, 1, 56, 54
3, 22600, Note_off_c, 1, 56, 64
3, 22600, Note_off_c, 1, 52, 64
3, 22680, Note_on_c, 1, 52, 54
3, 22680, Note_on_c, 1, 56, 54
3, 22720, Note_off_c, 1, 56, 64
3, 22720, Note_off_c, 1, 52, 64
3, 22800, Note_on_c, 1, 45, 54
3, 22800, Note_on_c, 1, 57, 54
3, 23000, Note_off_c, 1, 57, 64
3, 23000, Note_off_c, 1, 45, 64
3, 23280, Note_on_c, 1, 45, 60
3, 23310, Note_off_c, 1, 45, 64
3, 23310, Note_on_c, 1, 49, 60
3, 23340, Note_off_c, 1, 49, 64
3, 23340, Note_on_c, 1, 52, 60
3, 23370, Note_off_c, 1, 52, 64
3, 23370, Note_on_c, 1, 57, 60
3, 23390, Note_off_c, 1, 57, 64
3, 23400, Note_on_c, 1, 57, 60
3, 23440, Note_off_c, 1, 57, 64
3, 23520, Note_on_c, 1, 57, 60
3, 23560, Note_off_c, 1, 57, 64
3, 23640, Note_on_c, 1, 57, 60
3, 23680, Note_off_c, 1, 57, 64
3, 23760, Note_on_c, 1, 45, 60
3, 23790, Note_off_c, 1, 45, 64
3, 23790, Note_on_c, 1, 49, 60
3, 23820, Note_off_c, 1, 49, 64
3, 23820, Note_on_c, 1, 52, 60
3, 23850, Note_off_c, 1, 52, 64
3, 23850, Note_on_c, 1, 57, 60
3, 23870, Note_off_c, 1, 57, 64
3, 23880, Note_on_c, 1, 57, 60
3, 23920, Note_off_c, 1, 57, 64
3, 24000, Note_on_c, 1, 57, 60
3, 24040, Note_off_c, 1, 57, 64
3, 24120, Note_on_c, 1, 57, 60
3, 24160, Note_off_c, 1, 57, 64
3, 24240, Note_on_c, 1, 38, 60
3, 24270, Note_off_c, 1, 38, 64
3, 24270, Note_on_c, 1, 42, 60
3, 24300, Note_off_c, 1, 42, 64
3, 24300, Note_on_c, 1, 45, 60
3, 24330, Note_off_c, 1, 45, 64
3, 24330, Note_on_c, 1, 50, 60
3, 24350, Note_off_c, 1, 50, 64
3, 24360, Note_on_c, 1, 50, 60
3, 24400, Note_off_c, 1, 50, 64
3, 24480, Note_on_c, 1, 39, 60
3, 24510, Note_off_c, 1, 39, 64
3, 24510, Note_on_c, 1, 42, 60
3, 24540, Note_off_c, 1, 42, 64
3, 24540, Note_on_c, 1, 45, 60
3, 24570, Note_off_c, 1, 45, 64
3, 24570, Note_on_c, 1, 51, 60
3, 24590, Note_off_c, 1, 51, 64
3, 24600, Note_on_c, 1, 51, 60
3, 24640, Note_off_c, 1, 51, 64
3, 24720, Note_on_c, 1, 40, 60
3, 24750, Note_off_c, 1, 40, 64
3, 24750, Note_on_c, 1, 44, 60
3, 24780, Note_off_c, 1, 44, 64
3, 24780, Note_on_c, 1, 47, 60
3, 24810, Note_off_c, 1, 47, 64
3, 24810, Note_on_c, 1, 52, 60
3, 24830, Note_off_c, 1, 52, 64
3, 24840, Note_on_c, 1, 52, 60
3, 24880, Note_off_c, 1, 52, 64
3, 24960, Note_on_c, 1, 52, 60
3, 25000, Note_off_c, 1, 52, 64
3, 25080, Note_on_c, 1, 52, 60
3, 25120, Note_off_c, 1, 52, 64
3, 25200, Note_on_c, 1, 45, 60
3, 25230, Note_off_c, 1, 45, 64
3, 25230, Note_on_c, 1, 49, 60
3, 25260, Note_off_c, 1, 49, 64
3, 25260, Note_on_c, 1, 52, 60
3, 25290, Note_off_c, 1, 52, 64
3, 25290, Note_on_c, 1, 57, 60
3, 25310, Note_off_c, 1, 57, 64
3, 25320, Note_on_c, 1, 57, 60
3, 25360, Note_off_c, 1, 57, 64
3, 25440, Note_on_c, 1, 57, 60
3, 25480, Note_off_c, 1, 57, 64
3, 25560, Note_on_c, 1, 57, 60
3, 25600, Note_off_c, 1, 57, 64
3, 25680, Note_on_c, 1, 45, 60
3, 25710, Note_off_c, 1, 45, 64
3, 25710, Note_on_c, 1, 49, 60
3, 25740, Note_off_c, 1, 49, 64
3, 25740, Note_on_c, 1, 52, 60
3, 25770, Note_off_c, 1, 52, 64
3, 25770, Note_on_c, 1, 57, 60
3, 25790, Note_off_c, 1, 57, 64
3, 25800, Note_on_c, 1, 57, 60
3, 25840, Note_off_c, 1, 57, 64
3, 25920, Note_on_c, 1, 57, 60
3, 25960, Note_off_c, 1, 57, 64
3, 26040, Note_on_c, 1, 57, 60
3, 26080, Note_off_c, 1, 57, 64
3, 26160, Note_on_c, 1, 38, 60
3, 26190, Note_off_c, 1, 38, 64
3, 26190, Note_on_c, 1, 42, 60
3, 26220, Note_off_c, 1, 42, 64
3, 26220, Note_on_c, 1, 45, 60
3, 26250, Note_off_c, 1, 45, 64
3, 26250, Note_on_c, 1, 50, 60
3, 26270, Note_off_c, 1, 50, 64
3, 26280, Note_on_c, 1, 50, 60
3, 26320, Note_off_c, 1, 50, 64
3, 26400, Note_on_c, 1, 40, 60
3, 26430, Note_off_c, 1, 40, 64
3, 26430, Note_on_c, 1, 44, 60
3, 26460, Note_off_c, 1, 44, 64
3, 26460, Note_on_c, 1, 47, 60
3, 26490, Note_off_c, 1, 47, 64
3, 26490, Note_on_c, 1, 52, 60
3, 26510, Note_off_c, 1, 52, 64
3, 26520, Note_on_c, 1, 52, 60
3, 26560, Note_off_c, 1, 52, 64
3, 26640, Note_on_c, 1, 45, 60
3, 26840, Note_off_c, 1, 45, 64
3, 27120, Note_on_c, 1, 45, 60
3, 27150, Note_off_c, 1, 45, 64
3, 27150, Note_on_c, 1, 49, 60
3, 27180, Note_off_c, 1, 49, 64
3, 27180, Note_on_c, 1, 52, 60
3, 27210, Note_off_c, 1, 52, 64
3, 27210, Note_on_c, 1, 57, 60
3, 27230, Note_off_c, 1, 57, 64
3, 27240, Note_on_c, 1, 57, 60
3, 27280, Note_off_c, 1, 57, 64
3, 27360, Note_on_c, 1, 57, 60
3, 27400, Note_off_c, 1, 57, 64
3, 27480, Note_on_c, 1, 57, 60
3, 27520, Note_off_c, 1, 57, 64
3, 27600, Note_on_c, 1, 45, 60
3, 27630, Note_off_c, 1, 45, 64
3, 27630, Note_on_c, 1, 49, 60
3, 27660, Note_off_c, 1, 49, 64
3, 27660, Note_on_c, 1, 52, 60
3, 27690, Note_off_c, 1, 52, 64
3, 27690, Note_on_c, 1, 57, 60
3, 27710, Note_off_c, 1, 57, 64
3, 27720, Note_on_c, 1, 57, 60
3, 27760, Note_off_c, 1, 57, 64
3, 27840, Note_on_c, 1, 57, 60
3, 27880, Note_off_c, 1, 57, 64
3, 27960, Note_on_c, 1, 57, 60
3, 28000, Note_off_c, 1, 57, 64
3, 28080, Note_on_c, 1, 38, 60
3, 28110, Note_off_c, 1, 38, 64
3, 28110, Note_on_c, 1, 42, 60
3, 28140, Note_off_c, 1, 42, 64
3, 28140, Note_on_c, 1, 45, 60
3, 28170, Note_off_c, 1, 45, 64
3, 28170, Note_on_c, 1, 50, 60
3, 28190, Note_off_c, 1, 50, 64
3, 28200, Note_on_c, 1, 50, 60
3, 28240, Note_off_c, 1, 50, 64
3, 28320, Note_on_c, 1, 39, 60
3, 28350, Note_off_c, 1, 39, 64
3, 28350, Note_on_c, 1, 42, 60
3, 28380, Note_off_c, 1, 42, 64
3, 28380, Note_on_c, 1, 45, 60
3, 28410, Note_off_c, 1, 45, 64
3, 28410, Note_on_c, 1, 51, 60
3, 28430, Note_off_c, 1, 51, 64
3, 28440, Note_on_c, 1, 51, 60
3, 28480, Note_off_c, 1, 51, 64
3, 28560, Note_on_c, 1, 40, 60
3, 28590, Note_off_c, 1, 40, 64
3, 28590, Note_on_c, 1, 44, 60
3, 28620, Note_off_c, 1, 44, 64
3, 28620, Note_on_c, 1, 47, 60
3, 28650, Note_off_c, 1, 47, 64
3, 28650, Note_on_c, 1, 52, 60
3, 28670, Note_off_c, 1, 52, 64
3, 28680, Note_on_c, 1, 52, 60
3, 28720, Note_off_c, 1, 52, 64
3, 28800, Note_on_c, 1, 52, 60
3, 28840, Note_off_c, 1, 52, 64
3, 28920, Note_on_c, 1, 52, 60
3, 28960, Note_off_c, 1, 52, 64
3, 29040, Note_on_c, 1, 45, 60
3, 29070, Note_off_c, 1, 45, 64
3, 29070, Note_on_c, 1, 49, 60
3, 29100, Note_off_c, 1, 49, 64
3, 29100, Note_on_c, 1, 52, 60
3, 29130, Note_off_c, 1, 52, 64
3, 29130, Note_on_c, 1, 57, 60
3, 29150, Note_off_c, 1, 57, 64
3, 29160, Note_on_c, 1, 57, 60
3, 29200, Note_off_c, 1, 57, 64
3, 29280, Note_on_c, 1, 57, 60
3, 29320, Note_off_c, 1, 57, 64
3, 29400, Note_on_c, 1, 57, 60
3, 29440, Note_off_c, 1, 57, 64
3, 29520, Note_on_c, 1, 45, 60
3, 29550, Note_off_c, 1, 45, 64
3, 29550, Note_on_c, 1, 49, 60
3, 29580, Note_off_c, 1, 49, 64
3, 29580, Note_on_c, 1, 52, 60
3, 29610, Note_off_c, 1, 52, 64
3, 29610, Note_on_c, 1, 57, 60
3, 29630, Note_off_c, 1, 57, 64
3, 29640, Note_on_c, 1, 57, 60
3, 29680, Note_off_c, 1, 57, 64
3, 29760, Note_on_c, 1, 57, 60
3, 29800, Note_off_c, 1, 57, 64
3, 29880, Note_on_c, 1, 57, 60
3, 29920, Note_off_c, 1, 57, 64
3, 30000, Note_on_c, 1, 38, 60
3, 30030, Note_off_c, 1, 38, 64
3, 30030, Note_on_c, 1, 42, 60
3, 30060, Note_off_c, 1, 42, 64
3, 30060, Note_on_c, 1, 45, 60
3, 30090, Note_off_c, 1, 45, 64
3, 30090, Note_on_c, 1, 50, 60
3, 30110, Note_off_c, 1, 50, 64
3, 30120, Note_on_c, 1, 50, 60
3, 30160, Note_off_c, 1, 50, 64
3, 30240, Note_on_c, 1, 40, 60
3, 30270, Note_off_c, 1, 40, 64
3, 30270, Note_on_c, 1, 44, 60
3, 30300, Note_off_c, 1, 44, 64
3, 30300, Note_on_c, 1, 47, 60
3, 30330, Note_off_c, 1, 47, 64
3, 30330, Note_on_c, 1, 52, 60
3, 30350, Note_off_c, 1, 52, 64
3, 30360, Note_on_c, 1, 52, 60
3, 30400, Note_off_c, 1, 52, 64
3, 30480, Note_on_c, 1, 45, 60
3, 30680, Note_off_c, 1, 45, 64
3, 30960, Note_on_c, 1, 54, 54
3, 31045, Note_off_c, 1, 54, 64
3, 31080, Note_on_c, 1, 61, 54
3, 31080, Note_on_c, 1, 57, 54
3, 31120, Note_off_c, 1, 57, 64
3, 31120, Note_off_c, 1, 61, 64
3, 31200, Note_on_c, 1, 57, 54
3, 31200, Note_on_c, 1, 61, 54
3, 31240, Note_off_c, 1, 61, 64
3, 31240, Note_off_c, 1, 57, 64
3, 31320, Note_on_c, 1, 57, 54
3, 31320, Note_on_c, 1, 61, 54
3, 31360, Note_off_c, 1, 61, 64
3, 31360, Note_off_c, 1, 57, 64
3, 31440, Note_on_c, 1, 56, 54
3, 31525, Note_off_c, 1, 56, 64
3, 31560, Note_on_c, 1, 61, 54
3, 31560, Note_on_c, 1, 59, 54
3, 31600, Note_off_c, 1, 59, 64
3, 31600, Note_off_c, 1, 61, 64
3, 31680, Note_on_c, 1, 59, 54
3, 31680, Note_on_c, 1, 61, 54
3, 31720, Note_off_c, 1, 61, 64
3, 31720, Note_off_c, 1, 59, 64
3, 31800, Note_on_c, 1, 59, 54
3, 31800, Note_on_c, 1, 61, 54
3, 31840, Note_off_c, 1, 61, 64
3, 31840, Note_off_c, 1, 59, 64
3, 31920, Note_on_c, 1, 54, 54
3, 32005, Note_off_c, 1, 54, 64
3, 32040, Note_on_c, 1, 61, 54
3, 32040, Note_on_c, 1, 57, 54
3, 32080, Note_off_c, 1, 57, 64
3, 32080, Note_off_c, 1, 61, 64
3, 32160, Note_on_c, 1, 57, 54
3, 32160, Note_on_c, 1, 61, 54
3, 32200, Note_off_c, 1, 61, 64
3, 32200, Note_off_c, 1, 57, 64
3, 32280, Note_on_c, 1, 57, 54
3, 32280, Note_on_c, 1, 61, 54
3, 32320, Note_off_c, 1, 61, 64
3, 32320, Note_off_c, 1, 57, 64
3, 32400, Note_on_c, 1, 53, 54
3, 32485, Note_off_c, 1, 53, 64
3, 32520, Note_on_c, 1, 61, 54
3, 32520, Note_on_c, 1, 56, 54
3, 32560, Note_off_c, 1, 56, 64
3, 32560, Note_off_c, 1, 61, 64
3, 32640, Note_on_c, 1, 56, 54
3, 32640, Note_on_c, 1, 61, 54
3, 32680, Note_off_c, 1, 61, 64
3, 32680, Note_off_c, 1, 56, 64
3, 32760, Note_on_c, 1, 56, 54
3, 32760, Note_on_c, 1, 61, 54
3, 32800, Note_off_c, 1, 61, 64
3, 32800, Note_off_c, 1, 56, 64
3, 32880, Note_on_c, 1, 54, 54
3, 32965, Note_off_c, 1, 54, 64
3, 33000, Note_on_c, 1, 61, 54
3, 33000, Note_on_c, 1, 57, 54
3, 33040, Note_off_c, 1, 57, 64
3, 33040, Note_off_c, 1, 61, 64
3, 33120, Note_on_c, 1, 57, 54
3, 33120, Note_on_c, 1, 61, 54
3, 33160, Note_off_c, 1, 61, 64
3, 33160, Note_off_c, 1, 57, 64
3, 33240, Note_on_c, 1, 57, 54
3, 33240, Note_on_c, 1, 61, 54
3, 33280, Note_off_c, 1, 61, 64
3, 33280, Note_off_c, 1, 57, 64
3, 33360, Note_on_c, 1, 56, 54
3, 33445, Note_off_c, 1, 56, 64
3, 33480, Note_on_c, 1, 64, 54
3, 33480, Note_on_c, 1, 61, 54
3, 33520, Note_off_c, 1, 61, 64
3, 33520, Note_off_c, 1, 64, 64
3, 33600, Note_on_c, 1, 61, 54
3, 33600, Note_on_c, 1, 64, 54
3, 33640, Note_off_c, 1, 64, 64
3, 33640, Note_off_c, 1, 61, 64
3, 33720, Note_on_c, 1, 61, 54
3, 33720, Note_on_c, 1, 64, 54
3, 33760, Note_off_c, 1, 64, 64
3, 33760, Note_off_c, 1, 61, 64
3, 33840, Note_on_c, 1, 56, 54
3, 33925, Note_off_c, 1, 56, 64
3, 33960, Note_on_c, 1, 66, 54
3, 33960, Note_on_c, 1, 63, 54
3, 34000, Note_off_c, 1, 63, 64
3, 34000, Note_off_c, 1, 66, 64
3, 34080, Note_on_c, 1, 63, 54
3, 34080, Note_on_c, 1, 66, 54
3, 34120, Note_off_c, 1, 66, 64
3, 34120, Note_off_c, 1, 63, 64
3, 34200, Note_on_c, 1, 63, 54
3, 34200, Note_on_c, 1, 66, 54
3, 34240, Note_off_c, 1, 66, 64
3, 34240, Note_off_c, 1, 63, 64
3, 34320, Note_on_c, 1, 61, 54
3, 34320, Note_on_c, 1, 64, 54
3, 34520, Note_off_c, 1, 64, 64
3, 34520, Note_off_c, 1, 61, 64
3, 34800, Note_on_c, 1, 54, 54
3, 34885, Note_off_c, 1, 54, 64
3, 34920, Note_on_c, 1, 61, 54
3, 34920, Note_on_c, 1, 57, 54
3, 34960, Note_off_c, 1, 57, 64
3, 34960, Note_off_c, 1, 61, 64
3, 35040, Note_on_c, 1, 57, 54
3, 35040, Note_on_c, 1, 61, 54
3, 35080, Note_off_c, 1, 61, 64
3, 35080, Note_off_c, 1, 57, 64
3, 35160, Note_on_c, 1, 57, 54
3, 35160, Note_on_c, 1, 61, 54
3, 35200, Note_off_c, 1, 61, 64
3, 35200, Note_off_c, 1, 57, 64
3, 35280, Note_on_c, 1, 56, 54
3, 35365, Note_off_c, 1, 56, 64
3, 35400, Note_on_c, 1, 61, 54
3, 35400, Note_on_c, 1, 59, 54
3, 35440, Note_off_c, 1, 59, 64
3, 35440, Note_off_c, 1, 61, 64
3, 35520, Note_on_c, 1, 59, 54
3, 35520, Note_on_c, 1, 61, 54
3, 35560, Note_off_c, 1, 61, 64
3, 35560, Note_off_c, 1, 59, 64
3, 35640, Note_on_c, 1, 59, 54
3, 35640, Note_on_c, 1, 61, 54
3, 35680, Note_off_c, 1, 61, 64
3, 35680, Note_off_c, 1, 59, 64
3, 35760, Note_on_c, 1, 54, 54
3, 35845, Note_off_c, 1, 54, 64
3, 35880, Note_on_c, 1, 61, 54
3, 35880, Note_on_c, 1, 57, 54
3, 35920, Note_off_c, 1, 57, 64
3, 35920, Note_off_c, 1, 61, 64
3, 36000, Note_on_c, 1, 57, 54
3, 36000, Note_on_c, 1, 61, 54
3, 36040, Note_off_c, 1, 61, 64
3, 36040, Note_off_c, 1, 57, 64
3, 36120, Note_on_c, 1, 57, 54
3, 36120, Note_on_c, 1, 61, 54
3, 36160, Note_off_c, 1, 61, 64
3, 36160, Note_off_c, 1, 57, 64
3, 36240, Note_on_c, 1, 53, 54
3, 36325, Note_off_c, 1, 53, 64
3, 36360, Note_on_c, 1, 61, 54
3, 36360, Note_on_c, 1, 56, 54
3, 36400, Note_off_c, 1, 56, 64
3, 36400, Note_off_c, 1, 61, 64
3, 36480, Note_on_c, 1, 56, 54
3, 36480, Note_on_c, 1, 61, 54
3, 36520, Note_off_c, 1, 61, 64
3, 36520, Note_off_c, 1, 56, 64
3, 36600, Note_on_c, 1, 56, 54
3, 36600, Note_on_c, 1, 61, 54
3, 36640, Note_off_c, 1, 61, 64
3, 36640, Note_off_c, 1, 56, 64
3, 36720, Note_on_c, 1, 54, 54
3, 36805, Note_off_c, 1, 54, 64
3, 36840, Note_on_c, 1, 61, 54
3, 36840, Note_on_c, 1, 57, 54
3, 36880, Note_off_c, 1, 57, 64
3, 36880, Note_off_c, 1, 61, 64
3, 36960, Note_on_c, 1, 57, 54
3, 36960, Note_on_c, 1, 61, 54
3, 37000, Note_off_c, 1, 61, 64
3, 37000, Note_off_c, 1, 57, 64
3, 37080, Note_on_c, 1, 57, 54
3, 37080, Note_on_c, 1, 61, 54
3, 37120, Note_off_c, 1, 61, 64
3, 37120, Note_off_c, 1, 57, 64
3, 37200, Note_on_c, 1, 56, 54
3, 37285, Note_off_c, 1, 56, 64
3, 37320, Note_on_c, 1, 64, 54
3, 37320, Note_on_c, 1, 61, 54
3, 37360, Note_off_c, 1, 61, 64
3, 37360, Note_off_c, 1, 64, 64
3, 37440, Note_on_c, 1, 61, 54
3, 37440, Note_on_c, 1, 64, 54
3, 37480, Note_off_c, 1, 64, 64
3, 37480, Note_off_c, 1, 61, 64
3, 37560, Note_on_c, 1, 61, 54
3, 37560, Note_on_c, 1, 64, 54
3, 37600, Note_off_c, 1, 64, 64
3, 37600, Note_off_c, 1, 61, 64
3, 37680, Note_on_c, 1, 56, 54
3, 37765, Note_off_c, 1, 56, 64
3, 37800, Note_on_c, 1, 66, 54
3, 37800, Note_on_c, 1, 63, 54
3, 37840, Note_off_c, 1, 63, 64
3, 37840, Note_off_c, 1, 66, 64
3, 37920, Note_on_c, 1, 63, 54
3, 37920, Note_on_c, 1, 66, 54
3, 37960, Note_off_c, 1, 66, 64
3, 37960, Note_off_c, 1, 63, 64
3, 38040, Note_on_c, 1, 63, 54
3, 38040, Note_on_c, 1, 66, 54
3, 38080, Note_off_c, 1, 66, 64
3, 38080, Note_off_c, 1, 63, 64
3, 38160, Note_on_c, 1, 61, 54
3, 38160, Note_on_c, 1, 64, 54
3, 38360, Note_off_c, 1, 64, 64
3, 38360, Note_off_c, 1, 61, 64
3, 38640, Note_on_c, 1, 57, 60
3, 38680, Note_off_c, 1, 57, 64
3, 38760, Note_on_c, 1, 64, 60
3, 38760, Note_on_c, 1, 61, 60
3, 38800, Note_off_c, 1, 61, 64
3, 38800, Note_off_c, 1, 64, 64
3, 38880, Note_on_c, 1, 61, 60
3, 38880, Note_on_c, 1, 64, 60
3, 38920, Note_off_c, 1, 64, 64
3, 38920, Note_off_c, 1, 61, 64
3, 39000, Note_on_c, 1, 61, 60
3, 39000, Note_on_c, 1, 64, 60
3, 39040, Note_off_c, 1, 64, 64
3, 39040, Note_off_c, 1, 61, 64
3, 39120, Note_on_c, 1, 59, 60
3, 39160, Note_off_c, 1, 59, 64
3, 39240, Note_on_c, 1, 64, 60
3, 39240, Note_on_c, 1, 62, 60
3, 39280, Note_off_c, 1, 62, 64
3, 39280, Note_off_c, 1, 64, 64
3, 39360, Note_on_c, 1, 56, 60
3, 39400, Note_off_c, 1, 56, 64
3, 39480, Note_on_c, 1, 62, 60
3, 39480, Note_on_c, 1, 64, 60
3, 39520, Note_off_c, 1, 64, 64
3, 39520, Note_off_c, 1, 62, 64
3, 39600, Note_on_c, 1, 57, 60
3, 39640, Note_off_c, 1, 57, 64
3, 39720, Note_on_c, 1, 64, 60
3, 39720, Note_on_c, 1, 61, 60
3, 39760, Note_off_c, 1, 61, 64
3, 39760, Note_off_c, 1, 64, 64
3, 39840, Note_on_c, 1, 61, 60
3, 39840, Note_on_c, 1, 64, 60
3, 39880, Note_off_c, 1, 64, 64
3, 39880, Note_off_c, 1, 61, 64
3, 39960, Note_on_c, 1, 64, 60
3, 39960, Note_on_c, 1, 61, 60
3, 40000, Note_off_c, 1, 61, 64
3, 40000, Note_off_c, 1, 64, 64
3, 40080, Note_on_c, 1, 52, 60
3, 40120, Note_off_c, 1, 52, 64
3, 40200, Note_on_c, 1, 62, 60
3, 40200, Note_on_c, 1, 56, 60
3, 40240, Note_off_c, 1, 56, 64
3, 40240, Note_off_c, 1, 62, 64
3, 40320, Note_on_c, 1, 56, 60
3, 40320, Note_on_c, 1, 62, 60
3, 40360, Note_off_c, 1, 62, 64
3, 40360, Note_off_c, 1, 56, 64
3, 40440, Note_on_c, 1, 56, 60
3, 40440, Note_on_c, 1, 62, 60
3, 40480, Note_off_c, 1, 62, 64
3, 40480, Note_off_c, 1, 56, 64
3, 40560, Note_on_c, 1, 57, 60
3, 40600, Note_off_c, 1, 57, 64
3, 40680, Note_on_c, 1, 64, 60
3, 40680, Note_on_c, 1, 61, 60
3, 40720, Note_off_c, 1, 61, 64
3, 40720, Note_off_c, 1, 64, 64
3, 40800, Note_on_c, 1, 61, 60
3, 40800, Note_on_c, 1, 64, 60
3, 40840, Note_off_c, 1, 64, 64
3, 40840, Note_off_c, 1, 61, 64
3, 40920, Note_on_c, 1, 61, 60
3, 40920, Note_on_c, 1, 64, 60
3, 40960, Note_off_c, 1, 64, 64
3, 40960, Note_off_c, 1, 61, 64
3, 41040, Note_on_c, 1, 59, 60
3, 41080, Note_off_c, 1, 59, 64
3, 41160, Note_on_c, 1, 64, 60
3, 41160, Note_on_c, 1, 62, 60
3, 41200, Note_off_c, 1, 62, 64
3, 41200, Note_off_c, 1, 64, 64
3, 41280, Note_on_c, 1, 56, 60
3, 41320, Note_off_c, 1, 56, 64
3, 41400, Note_on_c, 1, 62, 60
3, 41400, Note_on_c, 1, 64, 60
3, 41440, Note_off_c, 1, 64, 64
3, 41440, Note_off_c, 1, 62, 64
3, 41520, Note_on_c, 1, 57, 60
3, 41560, Note_off_c, 1, 57, 64
3, 41640, Note_on_c, 1, 54, 60
3, 41680, Note_off_c, 1, 54, 64
3, 41760, Note_on_c, 1, 50, 60
3, 41800, Note_off_c, 1, 50, 64
3, 41880, Note_on_c, 1, 52, 60
3, 41920, Note_off_c, 1, 52, 64
3, 42000, Note_on_c, 1, 45, 60
3, 42040, Note_off_c, 1, 45, 64
3, 42120, Note_on_c, 1, 57, 60
3, 42160, Note_off_c, 1, 57, 64
3, 42480, Note_on_c, 1, 54, 54
3, 42520, Note_off_c, 1, 54, 64
3, 42600, Note_on_c, 1, 61, 54
3, 42600, Note_on_c, 1, 57, 54
3, 42640, Note_off_c, 1, 57, 64
3, 42640, Note_off_c, 1, 61, 64
3, 42720, Note_on_c, 1, 57, 54
3, 42720, Note_on_c, 1, 61, 54
3, 42760, Note_off_c, 1, 61, 64
3, 42760, Note_off_c, 1, 57, 64
3, 42840, Note_on_c, 1, 57, 54
3, 42840, Note_on_c, 1, 61, 54
3, 42880, Note_off_c, 1, 61, 64
3, 42880, Note_off_c, 1, 57, 64
3, 42960, Note_on_c, 1, 56, 54
3, 43000, Note_off_c, 1, 56, 64
3, 43080, Note_on_c, 1, 61, 54
3, 43080, Note_on_c, 1, 59, 54
3, 43120, Note_off_c, 1, 59, 64
3, 43120, Note_off_c, 1, 61, 64
3, 43200, Note_on_c, 1, 59, 54
3, 43200, Note_on_c, 1, 61, 54
3, 43240, Note_off_c, 1, 61, 64
3, 43240, Note_off_c, 1, 59, 64
3, 43320, Note_on_c, 1, 59, 54
3, 43320, Note_on_c, 1, 61, 54
3, 43360, Note_off_c, 1, 61, 64
3, 43360, Note_off_c, 1, 59, 64
3, 43440, Note_on_c, 1, 54, 54
3, 43480, Note_off_c, 1, 54, 64
3, 43560, Note_on_c, 1, 61, 54
3, 43560, Note_on_c, 1, 57, 54
3, 43600, Note_off_c, 1, 57, 64
3, 43600, Note_off_c, 1, 61, 64
3, 43680, Note_on_c, 1, 57, 54
3, 43680, Note_on_c, 1, 61, 54
3, 43720, Note_off_c, 1, 61, 64
3, 43720, Note_off_c, 1, 57, 64
3, 43800, Note_on_c, 1, 57, 54
3, 43800, Note_on_c, 1, 61, 54
3, 43840, Note_off_c, 1, 61, 64
3, 43840, Note_off_c, 1, 57, 64
3, 43920, Note_on_c, 1, 49, 54
3, 43960, Note_off_c, 1, 49, 64
3, 44040, Note_on_c, 1, 61, 54
3, 44040, Note_on_c, 1, 56, 54
3, 44080, Note_off_c, 1, 56, 64
3, 44080, Note_off_c, 1, 61, 64
3, 44160, Note_on_c, 1, 55, 54
3, 44160, Note_on_c, 1, 61, 54
3, 44200, Note_off_c, 1, 61, 64
3, 44200, Note_off_c, 1, 55, 64
3, 44280, Note_on_c, 1, 54, 54
3, 44280, Note_on_c, 1, 61, 54
3, 44320, Note_off_c, 1, 61, 64
3, 44320, Note_off_c, 1, 54, 64
3, 44400, Note_on_c, 1, 47, 54
3, 44440, Note_off_c, 1, 47, 64
3, 44520, Note_on_c, 1, 59, 54
3, 44520, Note_on_c, 1, 54, 54
3, 44560, Note_off_c, 1, 54, 64
3, 44560, Note_off_c, 1, 59, 64
3, 44640, Note_on_c, 1, 54, 54
3, 44640, Note_on_c, 1, 59, 54
3, 44680, Note_off_c, 1, 59, 64
3, 44680, Note_off_c, 1, 54, 64
3, 44760, Note_on_c, 1, 54, 54
3, 44760, Note_on_c, 1, 59, 54
3, 44800, Note_off_c, 1, 59, 64
3, 44800, Note_off_c, 1, 54, 64
3, 44880, Note_on_c, 1, 47, 54
3, 44920, Note_off_c, 1, 47, 64
3, 45000, Note_on_c, 1, 59, 54
3, 45000, Note_on_c, 1, 56, 54
3, 45040, Note_off_c, 1, 56, 64
3, 45040, Note_off_c, 1, 59, 64
3, 45120, Note_on_c, 1, 56, 54
3, 45120, Note_on_c, 1, 59, 54
3, 45160, Note_off_c, 1, 59, 64
3, 45160, Note_off_c, 1, 56, 64
3, 45240, Note_on_c, 1, 56, 54
3, 45240, Note_on_c, 1, 59, 54
3, 45280, Note_off_c, 1, 59, 64
3, 45280, Note_off_c, 1, 56, 64
3, 45360, Note_on_c, 1, 49, 54
3, 45400, Note_off_c, 1, 49, 64
3, 45480, Note_on_c, 1, 57, 54
3, 45480, Note_on_c, 1, 54, 54
3, 45520, Note_off_c, 1, 54, 64
3, 45520, Note_off_c, 1, 57, 64
3, 45600, Note_on_c, 1, 49, 54
3, 45640, Note_off_c, 1, 49, 64
3, 45720, Note_on_c, 1, 56, 54
3, 45720, Note_on_c, 1, 59, 54
3, 45760, Note_off_c, 1, 59, 64
3, 45760, Note_off_c, 1, 56, 64
3, 45840, Note_on_c, 1, 54, 54
3, 45840, Note_on_c, 1, 57, 54
3, 46040, Note_off_c, 1, 57, 64
3, 46040, Note_off_c, 1, 54, 64
3, 46320, Note_on_c, 1, 57, 60
3, 46360, Note_off_c, 1, 57, 64
3, 46440, Note_on_c, 1, 64, 60
3, 46440, Note_on_c, 1, 61, 60
3, 46480, Note_off_c, 1, 61, 64
3, 46480, Note_off_c, 1, 64, 64
3, 46560, Note_on_c, 1, 61, 60
3, 46560, Note_on_c, 1, 64, 60
3, 46600, Note_off_c, 1, 64, 64
3, 46600, Note_off_c, 1, 61, 64
3, 46680, Note_on_c, 1, 61, 60
3, 46680, Note_on_c, 1, 64, 60
3, 46720, Note_off_c, 1, 64, 64
3, 46720, Note_off_c, 1, 61, 64
3, 46800, Note_on_c, 1, 59, 60
3, 46840, Note_off_c, 1, 59, 64
3, 46920, Note_on_c, 1, 64, 60
3, 46920, Note_on_c, 1, 62, 60
3, 46960, Note_off_c, 1, 62, 64
3, 46960, Note_off_c, 1, 64, 64
3, 47040, Note_on_c, 1, 56, 60
3, 47080, Note_off_c, 1, 56, 64
3, 47160, Note_on_c, 1, 62, 60
3, 47160, Note_on_c, 1, 64, 60
3, 47200, Note_off_c, 1, 64, 64
3, 47200, Note_off_c, 1, 62, 64
3, 47280, Note_on_c, 1, 57, 60
3, 47320, Note_off_c, 1, 57, 64
3, 47400, Note_on_c, 1, 64, 60
3, 47400, Note_on_c, 1, 61, 60
3, 47440, Note_off_c, 1, 61, 64
3, 47440, Note_off_c, 1, 64, 64
3, 47520, Note_on_c, 1, 61, 60
3, 47520, Note_on_c, 1, 64, 60
3, 47560, Note_off_c, 1, 64, 64
3, 47560, Note_off_c, 1, 61, 64
3, 47640, Note_on_c, 1, 64, 60
3, 47640, Note_on_c, 1, 61, 60
3, 47680, Note_off_c, 1, 61, 64
3, 47680, Note_off_c, 1, 64, 64
3, 47760, Note_on_c, 1, 52, 60
3, 47800, Note_off_c, 1, 52, 64
3, 47880, Note_on_c, 1, 62, 60
3, 47880, Note_on_c, 1, 56, 60
3, 47920, Note_off_c, 1, 56, 64
3, 47920, Note_off_c, 1, 62, 64
3, 48000, Note_on_c, 1, 56, 60
3, 48000, Note_on_c, 1, 62, 60
3, 48040, Note_off_c, 1, 62, 64
3, 48040, Note_off_c, 1, 56, 64
3, 48120, Note_on_c, 1, 56, 60
3, 48120, Note_on_c, 1, 62, 60
3, 48160, Note_off_c, 1, 62, 64
3, 48160, Note_off_c, 1, 56, 64
3, 48240, Note_on_c, 1, 57, 60
3, 48280, Note_off_c, 1, 57, 64
3, 48360, Note_on_c, 1, 64, 60
3, 48360, Note_on_c, 1, 61, 60
3, 48400, Note_off_c, 1, 61, 64
3, 48400, Note_off_c, 1, 64, 64
3, 48480, Note_on_c, 1, 61, 60
3, 48480, Note_on_c, 1, 64, 60
3, 48520, Note_off_c, 1, 64, 64
3, 48520, Note_off_c, 1, 61, 64
3, 48600, Note_on_c, 1, 61, 60
3, 48600, Note_on_c, 1, 64, 60
3, 48640, Note_off_c, 1, 64, 64
3, 48640, Note_off_c, 1, 61, 64
3, 48720, Note_on_c, 1, 59, 60
3, 48760, Note_off_c, 1, 59, 64
3, 48840, Note_on_c, 1, 64, 60
3, 48840, Note_on_c, 1, 62, 60
3, 48880, Note_off_c, 1, 62, 64
3, 48880, Note_off_c, 1, 64, 64
3, 48960, Note_on_c, 1, 56, 60
3, 49000, Note_off_c, 1, 56, 64
3, 49080, Note_on_c, 1, 62, 60
3, 49080, Note_on_c, 1, 64, 60
3, 49120, Note_off_c, 1, 64, 64
3, 49120, Note_off_c, 1, 62, 64
3, 49200, Note_on_c, 1, 57, 60
3, 49240, Note_off_c, 1, 57, 64
3, 49320, Note_on_c, 1, 54, 60
3, 49360, Note_off_c, 1, 54, 64
3, 49440, Note_on_c, 1, 50, 60
3, 49480, Note_off_c, 1, 50, 64
3, 49560, Note_on_c, 1, 52, 60
3, 49600, Note_off_c, 1, 52, 64
3, 49680, Note_on_c, 1, 45, 60
3, 49720, Note_off_c, 1, 45, 64
3, 49800, Note_on_c, 1, 57, 60
3, 49840, Note_off_c, 1, 57, 64
3, 50160, Note_on_c, 1, 54, 54
3, 50200, Note_off_c, 1, 54, 64
3, 50280, Note_on_c, 1, 61, 54
3, 50280, Note_on_c, 1, 57, 54
3, 50320, Note_off_c, 1, 57, 64
3, 50320, Note_off_c, 1, 61, 64
3, 50400, Note_on_c, 1, 57, 54
3, 50400, Note_on_c, 1, 61, 54
3, 50440, Note_off_c, 1, 61, 64
3, 50440, Note_off_c, 1, 57, 64
3, 50520, Note_on_c, 1, 57, 54
3, 50520, Note_on_c, 1, 61, 54
3, 50560, Note_off_c, 1, 61, 64
3, 50560, Note_off_c, 1, 57, 64
3, 50640, Note_on_c, 1, 56, 54
3, 50680, Note_off_c, 1, 56, 64
3, 50760, Note_on_c, 1, 61, 54
3, 50760, Note_on_c, 1, 59, 54
3, 50800, Note_off_c, 1, 59, 64
3, 50800, Note_off_c, 1, 61, 64
3, 50880, Note_on_c, 1, 59, 54
3, 50880, Note_on_c, 1, 61, 54
3, 50920, Note_off_c, 1, 61, 64
3, 50920, Note_off_c, 1, 59, 64
3, 51000, Note_on_c, 1, 59, 54
3, 51000, Note_on_c, 1, 61, 54
3, 51040, Note_off_c, 1, 61, 64
3, 51040, Note_off_c, 1, 59, 64
3, 51120, Note_on_c, 1, 54, 54
3, 51160, Note_off_c, 1, 54, 64
3, 51240, Note_on_c, 1, 61, 54
3, 51240, Note_on_c, 1, 57, 54
3, 51280, Note_off_c, 1, 57, 64
3, 51280, Note_off_c, 1, 61, 64
3, 51360, Note_on_c, 1, 57, 54
3, 51360, Note_on_c, 1, 61, 54
3, 51400, Note_off_c, 1, 61, 64
3, 51400, Note_off_c, 1, 57, 64
3, 51480, Note_on_c, 1, 57, 54
3, 51480, Note_on_c, 1, 61, 54
3, 51520, Note_off_c, 1, 61, 64
3, 51520, Note_off_c, 1, 57, 64
3, 51600, Note_on_c, 1, 49, 54
3, 51640, Note_off_c, 1, 49, 64
3, 51720, Note_on_c, 1, 61, 54
3, 51720, Note_on_c, 1, 56, 54
3, 51760, Note_off_c, 1, 56, 64
3, 51760, Note_off_c, 1, 61, 64
3, 51840, Note_on_c, 1, 55, 54
3, 51840, Note_on_c, 1, 61, 54
3, 51880, Note_off_c, 1, 61, 64
3, 51880, Note_off_c, 1, 55, 64
3, 51960, Note_on_c, 1, 54, 54
3, 51960, Note_on_c, 1, 61, 54
3, 52000, Note_off_c, 1, 61, 64
3, 52000, Note_off_c, 1, 54, 64
3, 52080, Note_on_c, 1, 47, 54
3, 52120, Note_off_c, 1, 47, 64
3, 52200, Note_on_c, 1, 59, 54
3, 52200, Note_on_c, 1, 54, 54
3, 52240, Note_off_c, 1, 54, 64
3, 52240, Note_off_c, 1, 59, 64
3, 52320, Note_on_c, 1, 54, 54
3, 52320, Note_on_c, 1, 59, 54
3, 52360, Note_off_c, 1, 59, 64
3, 52360, Note_off_c, 1, 54, 64
3, 52440, Note_on_c, 1, 54, 54
3, 52440, Note_on_c, 1, 59, 54
3, 52480, Note_off_c, 1, 59, 64
3, 52480, Note_off_c, 1, 54, 64
3, 52560, Note_on_c, 1, 47, 54
3, 52600, Note_off_c, 1, 47, 64
3, 52680, Note_on_c, 1, 59, 54
3, 52680, Note_on_c, 1, 56, 54
3, 52720, Note_off_c, 1, 56, 64
3, 52720, Note_off_c, 1, 59, 64
3, 52800, Note_on_c, 1, 56, 54
3, 52800, Note_on_c, 1, 59, 54
3, 52840, Note_off_c, 1, 59, 64
3, 52840, Note_off_c, 1, 56, 64
3, 52920, Note_on_c, 1, 56, 54
3, 52920, Note_on_c, 1, 59, 54
3, 52960, Note_off_c, 1, 59, 64
3, 52960, Note_off_c, 1, 56, 64
3, 53040, Note_on_c, 1, 49, 54
3, 53080, Note_off_c, 1, 49, 64
3, 53160, Note_on_c, 1, 57, 54
3, 53160, Note_on_c, 1, 54, 54
3, 53200, Note_off_c, 1, 54, 64
3, 53200, Note_off_c, 1, 57, 64
3, 53280, Note_on_c, 1, 49, 54
3, 53320, Note_off_c, 1, 49, 64
3, 53400, Note_on_c, 1, 56, 54
3, 53400, Note_on_c, 1, 59, 54
3, 53440, Note_off_c, 1, 59, 64
3, 53440, Note_off_c, 1, 56, 64
3, 53520, Note_on_c, 1, 54, 54
3, 53520, Note_on_c, 1, 57, 54
3, 53720, Note_off_c, 1, 57, 64
3, 53720, Note_off_c, 1, 54, 64
3, 54000, Note_on_c, 1, 45, 60
3, 54030, Note_off_c, 1, 45, 64
3, 54030, Note_on_c, 1, 49, 60
3, 54060, Note_off_c, 1, 49, 64
3, 54060, Note_on_c, 1, 52, 60
3, 54090, Note_off_c, 1, 52, 64
3, 54090, Note_on_c, 1, 57, 60
3, 54110, Note_off_c, 1, 57, 64
3, 54120, Note_on_c, 1, 57, 60
3, 54160, Note_off_c, 1, 57, 64
3, 54240, Note_on_c, 1, 57, 60
3, 54280, Note_off_c, 1, 57, 64
3, 54360, Note_on_c, 1, 57, 60
3, 54400, Note_off_c, 1, 57, 64
3, 54480, Note_on_c, 1, 45, 60
3, 54510, Note_off_c, 1, 45, 64
3, 54510, Note_on_c, 1, 49, 60
3, 54540, Note_off_c, 1, 49, 64
3, 54540, Note_on_c, 1, 52, 60
3, 54570, Note_off_c, 1, 52, 64
3, 54570, Note_on_c, 1, 57, 60
3, 54590, Note_off_c, 1, 57, 64
3, 54600, Note_on_c, 1, 57, 60
3, 54640, Note_off_c, 1, 57, 64
3, 54720, Note_on_c, 1, 57, 60
3, 54760, Note_off_c, 1, 57, 64
3, 54840, Note_on_c, 1, 57, 60
3, 54880, Note_off_c, 1, 57, 64
3, 54960, Note_on_c, 1, 38, 60
3, 54990, Note_off_c, 1, 38, 64
3, 54990, Note_on_c, 1, 42, 60
3, 55020, Note_off_c, 1, 42, 64
3, 55020, Note_on_c, 1, 45, 60
3, 55050, Note_off_c, 1, 45, 64
3, 55050, Note_on_c, 1, 50, 60
3, 55070, Note_off_c, 1, 50, 64
3, 55080, Note_on_c, 1, 50, 60
3, 55120, Note_off_c, 1, 50, 64
3, 55200, Note_on_c, 1, 39, 60
3, 55230, Note_off_c, 1, 39, 64
3, 55230, Note_on_c, 1, 42, 60
3, 55260, Note_off_c, 1, 42, 64
3, 55260, Note_on_c, 1, 45, 60
3, 55290, Note_off_c, 1, 45, 64
3, 55290, Note_on_c, 1, 51, 60
3, 55310, Note_off_c, 1, 51, 64
3, 55320, Note_on_c, 1, 51, 60
3, 55360, Note_off_c, 1, 51, 64
3, 55440, Note_on_c, 1, 40, 60
3, 55470, Note_off_c, 1, 40, 64
3, 55470, Note_on_c, 1, 44, 60
3, 55500, Note_off_c, 1, 44, 64
3, 55500, Note_on_c, 1, 47, 60
3, 55530, Note_off_c, 1, 47, 64
3, 55530, Note_on_c, 1, 52, 60
3, 55550, Note_off_c, 1, 52, 64
3, 55560, Note_on_c, 1, 52, 60
3, 55600, Note_off_c, 1, 52, 64
3, 55680, Note_on_c, 1, 52, 60
3, 55720, Note_off_c, 1, 52, 64
3, 55800, Note_on_c, 1, 52, 60
3, 55840, Note_off_c, 1, 52, 64
3, 55920, Note_on_c, 1, 45, 60
3, 55950, Note_off_c, 1, 45, 64
3, 55950, Note_on_c, 1, 49, 60
3, 55980, Note_off_c, 1, 49, 64
3, 55980, Note_on_c, 1, 52, 60
3, 56010, Note_off_c, 1, 52, 64
3, 56010, Note_on_c, 1, 57, 60
3, 56030, Note_off_c, 1, 57, 64
3, 56040, Note_on_c, 1, 57, 60
3, 56080, Note_off_c, 1, 57, 64
3, 56160, Note_on_c, 1, 57, 60
3, 56200, Note_off_c, 1, 57, 64
3, 56280, Note_on_c, 1, 57, 60
3, 56320, Note_off_c, 1, 57, 64
3, 56400, Note_on_c, 1, 45, 60
3, 56430, Note_off_c, 1, 45, 64
3, 56430, Note_on_c, 1, 49, 60
3, 56460, Note_off_c, 1, 49, 64
3, 56460, Note_on_c, 1, 52, 60
3, 56490, Note_off_c, 1, 52, 64
3, 56490, Note_on_c, 1, 57, 60
3, 56510, Note_off_c, 1, 57, 64
3, 56520, Note_on_c, 1, 57, 60
3, 56560, Note_off_c, 1, 57, 64
3, 56640, Note_on_c, 1, 57, 60
3, 56680, Note_off_c, 1, 57, 64
3, 56760, Note_on_c, 1, 57, 60
3, 56800, Note_off_c, 1, 57, 64
3, 56880, Note_on_c, 1, 38, 60
3, 56910, Note_off_c, 1, 38, 64
3, 56910, Note_on_c, 1, 42, 60
3, 56940, Note_off_c, 1, 42, 64
3, 56940, Note_on_c, 1, 45, 60
3, 56970, Note_off_c, 1, 45, 64
3, 56970, Note_on_c, 1, 50, 60
3, 56990, Note_off_c, 1, 50, 64
3, 57000, Note_on_c, 1, 50, 60
3, 57040, Note_off_c, 1, 50, 64
3, 57120, Note_on_c, 1, 40, 60
3, 57150, Note_off_c, 1, 40, 64
3, 57150, Note_on_c, 1, 44, 60
3, 57180, Note_off_c, 1, 44, 64
3, 57180, Note_on_c, 1, 47, 60
3, 57210, Note_off_c, 1, 47, 64
3, 57210, Note_on_c, 1, 52, 60
3, 57230, Note_off_c, 1, 52, 64
3, 57240, Note_on_c, 1, 52, 60
3, 57280, Note_off_c, 1, 52, 64
3, 57360, Note_on_c, 1, 45, 60
3, 57560, Note_off_c, 1, 45, 64
3, 57840, Note_on_c, 1, 45, 60
3, 57870, Note_off_c, 1, 45, 64
3, 57870, Note_on_c, 1, 49, 60
3, 57900, Note_off_c, 1, 49, 64
3, 57900, Note_on_c, 1, 52, 60
3, 57930, Note_off_c, 1, 52, 64
3, 57930, Note_on_c, 1, 57, 60
3, 57950, Note_off_c, 1, 57, 64
3, 57960, Note_on_c, 1, 57, 60
3, 58000, Note_off_c, 1, 57, 64
3, 58080, Note_on_c, 1, 57, 60
3, 58120, Note_off_c, 1, 57, 64
3, 58200, Note_on_c, 1, 57, 60
3, 58240, Note_off_c, 1, 57, 64
3, 58320, Note_on_c, 1, 45, 60
3, 58350, Note_off_c, 1, 45, 64
3, 58350, Note_on_c, 1, 49, 60
3, 58380, Note_off_c, 1, 49, 64
3, 58380, Note_on_c, 1, 52, 60
3, 58410, Note_off_c, 1, 52, 64
3, 58410, Note_on_c, 1, 57, 60
3, 58430, Note_off_c, 1, 57, 64
3, 58440, Note_on_c, 1, 57, 60
3, 58480, Note_off_c, 1, 57, 64
3, 58560, Note_on_c, 1, 57, 60
3, 58600, Note_off_c, 1, 57, 64
3, 58680, Note_on_c, 1, 57, 60
3, 58720, Note_off_c, 1, 57, 64
3, 58800, Note_on_c, 1, 38, 60
3, 58830, Note_off_c, 1, 38, 64
3, 58830, Note_on_c, 1, 42, 60
3, 58860, Note_off_c, 1, 42, 64
3, 58860, Note_on_c, 1, 45, 60
3, 58890, Note_off_c, 1, 45, 64
3, 58890, Note_on_c, 1, 50, 60
3, 58910, Note_off_c, 1, 50, 64
3, 58920, Note_on_c, 1, 50, 60
3, 58960, Note_off_c, 1, 50, 64
3, 59040, Note_on_c, 1, 39, 60
3, 59070, Note_off_c, 1, 39, 64
3, 59070, Note_on_c, 1, 42, 60
3, 59100, Note_off_c, 1, 42, 64
3, 59100, Note_on_c, 1, 45, 60
3, 59130, Note_off_c, 1, 45, 64
3, 59130, Note_on_c, 1, 51, 60
3, 59150, Note_off_c, 1, 51, 64
3, 59160, Note_on_c, 1, 51, 60
3, 59200, Note_off_c, 1, 51, 64
3, 59280, Note_on_c, 1, 40, 60
3, 59310, Note_off_c, 1, 40, 64
3, 59310, Note_on_c, 1, 44, 60
3, 59340, Note_off_c, 1, 44, 64
3, 59340, Note_on_c, 1, 47, 60
3, 59370, Note_off_c, 1, 47, 64
3, 59370, Note_on_c, 1, 52, 60
3, 59390, Note_off_c, 1, 52, 64
3, 59400, Note_on_c, 1, 52, 60
3, 59440, Note_off_c, 1, 52, 64
3, 59520, Note_on_c, 1, 52, 60
3, 59560, Note_off_c, 1, 52, 64
3, 59640, Note_on_c, 1, 52, 60
3, 59680, Note_off_c, 1, 52, 64
3, 59760, Note_on_c, 1, 45, 60
3, 59790, Note_off_c, 1, 45, 64
3, 59790, Note_on_c, 1, 49, 60
3, 59820, Note_off_c, 1, 49, 64
3, 59820, Note_on_c, 1, 52, 60
3, 59850, Note_off_c, 1, 52, 64
3, 59850, Note_on_c, 1, 57, 60
3, 59870, Note_off_c, 1, 57, 64
3, 59880, Note_on_c, 1, 57, 60
3, 59920, Note_off_c, 1, 57, 64
3, 60000, Note_on_c, 1, 57, 60
3, 60040, Note_off_c, 1, 57, 64
3, 60120, Note_on_c, 1, 57, 60
3, 60160, Note_off_c, 1, 57, 64
3, 60240, Note_on_c, 1, 45, 60
3, 60270, Note_off_c, 1, 45, 64
3, 60270, Note_on_c, 1, 49, 60
3, 60300, Note_off_c, 1, 49, 64
3, 60300, Note_on_c, 1, 52, 60
3, 60330, Note_off_c, 1, 52, 64
3, 60330, Note_on_c, 1, 57, 60
3, 60350, Note_off_c, 1, 57, 64
3, 60360, Note_on_c, 1, 57, 60
3, 60400, Note_off_c, 1, 57, 64
3, 60480, Note_on_c, 1, 57, 60
3, 60520, Note_off_c, 1, 57, 64
3, 60600, Note_on_c, 1, 57, 60
3, 60640, Note_off_c, 1, 57, 64
3, 60720, Note_on_c, 1, 38, 60
3, 60750, Note_off_c, 1, 38, 64
3, 60750, Note_on_c, 1, 42, 60
3, 60780, Note_off_c, 1, 42, 64
3, 60780, Note_on_c, 1, 45, 60
3, 60810, Note_off_c, 1, 45, 64
3, 60810, Note_on_c, 1, 50, 60
3, 60830, Note_off_c, 1, 50, 64
3, 60840, Note_on_c, 1, 50, 60
3, 60880, Note_off_c, 1, 50, 64
3, 60960, Note_on_c, 1, 40, 60
3, 60990, Note_off_c, 1, 40, 64
3, 60990, Note_on_c, 1, 44, 60
3, 61020, Note_off_c, 1, 44, 64
3, 61020, Note_on_c, 1, 47, 60
3, 61050, Note_off_c, 1, 47, 64
3, 61050, Note_on_c, 1, 52, 60
3, 61070, Note_off_c, 1, 52, 64
3, 61080, Note_on_c, 1, 52, 60
3, 61120, Note_off_c, 1, 52, 64
3, 61200, Note_on_c, 1, 45, 60
3, 61400, Note_off_c, 1, 45, 64
3, 61680, Note_on_c, 1, 57, 54
3, 61800, Note_off_c, 1, 57, 64
3, 61800, Note_on_c, 1, 64, 54
3, 61800, Note_on_c, 1, 60, 54
3, 61840, Note_off_c, 1, 60, 64
3, 61840, Note_off_c, 1, 64, 64
3, 61920, Note_on_c, 1, 60, 54
3, 61920, Note_on_c, 1, 64, 54
3, 61960, Note_off_c, 1, 64, 64
3, 61960, Note_off_c, 1, 60, 64
3, 62040, Note_on_c, 1, 60, 54
3, 62040, Note_on_c, 1, 64, 54
3, 62080, Note_off_c, 1, 64, 64
3, 62080, Note_off_c, 1, 60, 64
3, 62160, Note_on_c, 1, 57, 54
3, 62280, Note_off_c, 1, 57, 64
3, 62280, Note_on_c, 1, 60, 54
3, 62280, Note_on_c, 1, 64, 54
3, 62320, Note_off_c, 1, 64, 64
3, 62320, Note_off_c, 1, 60, 64
3, 62400, Note_on_c, 1, 60, 54
3, 62400, Note_on_c, 1, 64, 54
3, 62440, Note_off_c, 1, 64, 64
3, 62440, Note_off_c, 1, 60, 64
3, 62520, Note_on_c, 1, 60, 54
3, 62520, Note_on_c, 1, 64, 54
3, 62560, Note_off_c, 1, 64, 64
3, 62560, Note_off_c, 1, 60, 64
3, 62640, Note_on_c, 1, 57, 54
3, 62680, Note_off_c, 1, 57, 64
3, 62760, Note_on_c, 1, 64, 54
3, 62760, Note_on_c, 1, 60, 54
3, 62800, Note_off_c, 1, 60, 64
3, 62800, Note_off_c, 1, 64, 64
3, 62880, Note_on_c, 1, 57, 54
3, 62920, Note_off_c, 1, 57, 64
3, 63000, Note_on_c, 1, 60, 54
3, 63000, Note_on_c, 1, 64, 54
3, 63040, Note_off_c, 1, 64, 64
3, 63040, Note_off_c, 1, 60, 64
3, 63120, Note_on_c, 1, 57, 54
3, 63240, Note_off_c, 1, 57, 64
3, 63240, Note_on_c, 1, 60, 54
3, 63240, Note_on_c, 1, 64, 54
3, 63280, Note_off_c, 1, 64, 64
3, 63280, Note_off_c, 1, 60, 64
3, 63360, Note_on_c, 1, 60, 54
3, 63360, Note_on_c, 1, 64, 54
3, 63400, Note_off_c, 1, 64, 64
3, 63400, Note_off_c, 1, 60, 64
3, 63480, Note_on_c, 1, 60, 54
3, 63480, Note_on_c, 1, 64, 54
3, 63520, Note_off_c, 1, 64, 64
3, 63520, Note_off_c, 1, 60, 64
3, 63600, Note_on_c, 1, 52, 54
3, 63640, Note_off_c, 1, 52, 64
3, 63720, Note_on_c, 1, 64, 54
3, 63720, Note_on_c, 1, 59, 54
3, 63760, Note_off_c, 1, 59, 64
3, 63760, Note_off_c, 1, 64, 64
3, 63840, Note_on_c, 1, 59, 54
3, 63840, Note_on_c, 1, 64, 54
3, 63880, Note_off_c, 1, 64, 64
3, 63880, Note_off_c, 1, 59, 64
3, 63960, Note_on_c, 1, 59, 54
3, 63960, Note_on_c, 1, 64, 54
3, 64000, Note_off_c, 1, 64, 64
3, 64000, Note_off_c, 1, 59, 64
3, 64080, Note_on_c, 1, 52, 54
3, 64120, Note_off_c, 1, 52, 64
3, 64200, Note_on_c, 1, 64, 54
3, 64200, Note_on_c, 1, 59, 54
3, 64240, Note_off_c, 1, 59, 64
3, 64240, Note_off_c, 1, 64, 64
3, 64320, Note_on_c, 1, 59, 54
3, 64320, Note_on_c, 1, 64, 54
3, 64360, Note_off_c, 1, 64, 64
3, 64360, Note_off_c, 1, 59, 64
3, 64440, Note_on_c, 1, 59, 54
3, 64440, Note_on_c, 1, 64, 54
3, 64480, Note_off_c, 1, 64, 64
3, 64480, Note_off_c, 1, 59, 64
3, 64560, Note_on_c, 1, 52, 54
3, 64600, Note_off_c, 1, 52, 64
3, 64680, Note_on_c, 1, 64, 54
3, 64680, Note_on_c, 1, 59, 54
3, 64720, Note_off_c, 1, 59, 64
3, 64720, Note_off_c, 1, 64, 64
3, 64800, Note_on_c, 1, 47, 54
3, 64840, Note_off_c, 1, 47, 64
3, 64920, Note_on_c, 1, 59, 54
3, 64960, Note_off_c, 1, 59, 64
3, 65040, Note_on_c, 1, 52, 54
3, 65240, Note_off_c, 1, 52, 64
3, 65520, Note_on_c, 1, 57, 54
3, 65640, Note_off_c, 1, 57, 64
3, 65640, Note_on_c, 1, 64, 54
3, 65640, Note_on_c, 1, 60, 54
3, 65680, Note_off_c, 1, 60, 64
3, 65680, Note_off_c, 1, 64, 64
3, 65760, Note_on_c, 1, 60, 54
3, 65760, Note_on_c, 1, 64, 54
3, 65800, Note_off_c, 1, 64, 64
3, 65800, Note_off_c, 1, 60, 64
3, 65880, Note_on_c, 1, 60, 54
3, 65880, Note_on_c, 1, 64, 54
3, 65920, Note_off_c, 1, 64, 64
3, 65920, Note_off_c, 1, 60, 64
3, 66000, Note_on_c, 1, 57, 54
3, 66120, Note_off_c, 1, 57, 64
3, 66120, Note_on_c, 1, 60, 54
3, 66120, Note_on_c, 1, 64, 54
3, 66160, Note_off_c, 1, 64, 64
3, 66160, Note_off_c, 1, 60, 64
3, 66240, Note_on_c, 1, 60, 54
3, 66240, Note_on_c, 1, 64, 54
3, 66280, Note_off_c, 1, 64, 64
3, 66280, Note_off_c, 1, 60, 64
3, 66360, Note_on_c, 1, 60, 54
3, 66360, Note_on_c, 1, 64, 54
3, 66400, Note_off_c, 1, 64, 64
3, 66400, Note_off_c, 1, 60, 64
3, 66480, Note_on_c, 1, 57, 54
3, 66520, Note_off_c, 1, 57, 64
3, 66600, Note_on_c, 1, 64, 54
3, 66600, Note_on_c, 1, 60, 54
3, 66640, Note_off_c, 1, 60, 64
3, 66640, Note_off_c, 1, 64, 64
3, 66720, Note_on_c, 1, 57, 54
3, 66760, Note_off_c, 1, 57, 64
3, 66840, Note_on_c, 1, 60, 54
3, 66840, Note_on_c, 1, 64, 54
3, 66880, Note_off_c, 1, 64, 64
3, 66880, Note_off_c, 1, 60, 64
3, 66960, Note_on_c, 1, 57, 54
3, 67080, Note_off_c, 1, 57, 64
3, 67080, Note_on_c, 1, 60, 54
3, 67080, Note_on_c, 1, 64, 54
3, 67120, Note_off_c, 1, 64, 64
3, 67120, Note_off_c, 1, 60, 64
3, 67200, Note_on_c, 1, 60, 54
3, 67200, Note_on_c, 1, 64, 54
3, 67240, Note_off_c, 1, 64, 64
3, 67240, Note_off_c, 1, 60, 64
3, 67320, Note_on_c, 1, 60, 54
3, 67320, Note_on_c, 1, 64, 54
3, 67360, Note_off_c, 1, 64, 64
3, 67360, Note_off_c, 1, 60, 64
3, 67440, Note_on_c, 1, 52, 54
3, 67480, Note_off_c, 1, 52, 64
3, 67560, Note_on_c, 1, 64, 54
3, 67560, Note_on_c, 1, 59, 54
3, 67600, Note_off_c, 1, 59, 64
3, 67600, Note_off_c, 1, 64, 64
3, 67680, Note_on_c, 1, 59, 54
3, 67680, Note_on_c, 1, 64, 54
3, 67720, Note_off_c, 1, 64, 64
3, 67720, Note_off_c, 1, 59, 64
3, 67800, Note_on_c, 1, 59, 54
3, 67800, Note_on_c, 1, 64, 54
3, 67840, Note_off_c, 1, 64, 64
3, 67840, Note_off_c, 1, 59, 64
3, 67920, Note_on_c, 1, 52, 54
3, 67960, Note_off_c, 1, 52, 64
3, 68040, Note_on_c, 1, 64, 54
3, 68040, Note_on_c, 1, 59, 54
3, 68080, Note_off_c, 1, 59, 64
3, 68080, Note_off_c, 1, 64, 64
3, 68160, Note_on_c, 1, 59, 54
3, 68160, Note_on_c, 1, 64, 54
3, 68200, Note_off_c, 1, 64, 64
3, 68200, Note_off_c, 1, 59, 64
3, 68280, Note_on_c, 1, 59, 54
3, 68280, Note_on_c, 1, 64, 54
3, 68320, Note_off_c, 1, 64, 64
3, 68320, Note_off_c, 1, 59, 64
3, 68400, Note_on_c, 1, 52, 54
3, 68440, Note_off_c, 1, 52, 64
3, 68520, Note_on_c, 1, 64, 54
3, 68520, Note_on_c, 1, 59, 54
3, 68560, Note_off_c, 1, 59, 64
3, 68560, Note_off_c, 1, 64, 64
3, 68640, Note_on_c, 1, 47, 54
3, 68680, Note_off_c, 1, 47, 64
3, 68760, Note_on_c, 1, 59, 54
3, 68800, Note_off_c, 1, 59, 64
3, 68880, Note_on_c, 1, 52, 54
3, 69080, Note_off_c, 1, 52, 64
3, 69360, Note_on_c, 1, 48, 56
3, 69400, Note_off_c, 1, 48, 64
3, 69480, Note_on_c, 1, 60, 56
3, 69520, Note_off_c, 1, 60, 64
3, 69600, Note_on_c, 1, 52, 56
3, 69640, Note_off_c, 1, 52, 64
3, 69720, Note_on_c, 1, 64, 56
3, 69760, Note_off_c, 1, 64, 64
3, 69840, Note_on_c, 1, 55, 59
3, 70040, Note_off_c, 1, 55, 64
3, 70320, Note_on_c, 1, 48, 56
3, 70360, Note_off_c, 1, 48, 64
3, 70440, Note_on_c, 1, 60, 56
3, 70480, Note_off_c, 1, 60, 64
3, 70560, Note_on_c, 1, 52, 56
3, 70600, Note_off_c, 1, 52, 64
3, 70680, Note_on_c, 1, 64, 56
3, 70720, Note_off_c, 1, 64, 64
3, 70800, Note_on_c, 1, 55, 59
3, 71000, Note_off_c, 1, 55, 64
3, 71280, Note_on_c, 1, 45, 56
3, 71320, Note_off_c, 1, 45, 64
3, 71400, Note_on_c, 1, 57, 56
3, 71440, Note_off_c, 1, 57, 64
3, 71520, Note_on_c, 1, 48, 56
3, 71560, Note_off_c, 1, 48, 64
3, 71640, Note_on_c, 1, 60, 56
3, 71680, Note_off_c, 1, 60, 64
3, 71760, Note_on_c, 1, 52, 59
3, 71960, Note_off_c, 1, 52, 64
3, 72240, Note_on_c, 1, 45, 56
3, 72280, Note_off_c, 1, 45, 64
3, 72360, Note_on_c, 1, 57, 56
3, 72400, Note_off_c, 1, 57, 64
3, 72480, Note_on_c, 1, 48, 56
3, 72520, Note_off_c, 1, 48, 64
3, 72600, Note_on_c, 1, 60, 56
3, 72640, Note_off_c, 1, 60, 64
3, 72720, Note_on_c, 1, 52, 59
3, 72920, Note_off_c, 1, 52, 64
3, 73200, Note_on_c, 1, 57, 54
3, 73320, Note_off_c, 1, 57, 64
3, 73320, Note_on_c, 1, 64, 54
3, 73320, Note_on_c, 1, 60, 54
3, 73360, Note_off_c, 1, 60, 64
3, 73360, Note_off_c, 1, 64, 64
3, 73440, Note_on_c, 1, 60, 54
3, 73440, Note_on_c, 1, 64, 54
3, 73480, Note_off_c, 1, 64, 64
3, 73480, Note_off_c, 1, 60, 64
3, 73560, Note_on_c, 1, 60, 54
3, 73560, Note_on_c, 1, 64, 54
3, 73600, Note_off_c, 1, 64, 64
3, 73600, Note_off_c, 1, 60, 64
3, 73680, Note_on_c, 1, 57, 54
3, 73800, Note_off_c, 1, 57, 64
3, 73800, Note_on_c, 1, 60, 54
3, 73800, Note_on_c, 1, 64, 54
3, 73840, Note_off_c, 1, 64, 64
3, 73840, Note_off_c, 1, 60, 64
3, 73920, Note_on_c, 1, 60, 54
3, 73920, Note_on_c, 1, 64, 54
3, 73960, Note_off_c, 1, 64, 64
3, 73960, Note_off_c, 1, 60, 64
3, 74040, Note_on_c, 1, 60, 54
3, 74040, Note_on_c, 1, 64, 54
3, 74080, Note_off_c, 1, 64, 64
3, 74080, Note_off_c, 1, 60, 64
3, 74160, Note_on_c, 1, 57, 54
3, 74200, Note_off_c, 1, 57, 64
3, 74280, Note_on_c, 1, 64, 54
3, 74280, Note_on_c, 1, 60, 54
3, 74320, Note_off_c, 1, 60, 64
3, 74320, Note_off_c, 1, 64, 64
3, 74400, Note_on_c, 1, 57, 54
3, 74440, Note_off_c, 1, 57, 64
3, 74520, Note_on_c, 1, 60, 54
3, 74520, Note_on_c, 1, 64, 54
3, 74560, Note_off_c, 1, 64, 64
3, 74560, Note_off_c, 1, 60, 64
3, 74640, Note_on_c, 1, 53, 54
3, 74725, Note_off_c, 1, 53, 64
3, 74760, Note_on_c, 1, 57, 54
3, 74760, Note_on_c, 1, 63, 54
3, 74800, Note_off_c, 1, 63, 64
3, 74800, Note_off_c, 1, 57, 64
3, 74880, Note_on_c, 1, 57, 54
3, 74880, Note_on_c, 1, 63, 54
3, 74920, Note_off_c, 1, 63, 64
3, 74920, Note_off_c, 1, 57, 64
3, 75000, Note_on_c, 1, 57, 54
3, 75000, Note_on_c, 1, 63, 54
3, 75040, Note_off_c, 1, 63, 64
3, 75040, Note_off_c, 1, 57, 64
3, 75120, Note_on_c, 1, 52, 54
3, 75160, Note_off_c, 1, 52, 64
3, 75240, Note_on_c, 1, 57, 54
3, 75240, Note_on_c, 1, 64, 54
3, 75280, Note_off_c, 1, 64, 64
3, 75280, Note_off_c, 1, 57, 64
3, 75360, Note_on_c, 1, 50, 54
3, 75400, Note_off_c, 1, 50, 64
3, 75480, Note_on_c, 1, 53, 54
3, 75480, Note_on_c, 1, 59, 54
3, 75520, Note_off_c, 1, 59, 64
3, 75520, Note_off_c, 1, 53, 64
3, 75600, Note_on_c, 1, 48, 54
3, 75640, Note_off_c, 1, 48, 64
3, 75720, Note_on_c, 1, 52, 54
3, 75720, Note_on_c, 1, 57, 54
3, 75760, Note_off_c, 1, 57, 64
3, 75760, Note_off_c, 1, 52, 64
3, 75840, Note_on_c, 1, 50, 54
3, 75880, Note_off_c, 1, 50, 64
3, 75960, Note_on_c, 1, 53, 54
3, 75960, Note_on_c, 1, 59, 54
3, 76000, Note_off_c, 1, 59, 64
3, 76000, Note_off_c, 1, 53, 64
3, 76080, Note_on_c, 1, 52, 54
3, 76080, Note_on_c, 1, 57, 54
3, 76120, Note_off_c, 1, 57, 64
3, 76120, Note_off_c, 1, 52, 64
3, 76200, Note_on_c, 1, 52, 54
3, 76200, Note_on_c, 1, 57, 54
3, 76240, Note_off_c, 1, 57, 64
3, 76240, Note_off_c, 1, 52, 64
3, 76320, Note_on_c, 1, 52, 54
3, 76320, Note_on_c, 1, 56, 54
3, 76360, Note_off_c, 1, 56, 64
3, 76360, Note_off_c, 1, 52, 64
3, 76440, Note_on_c, 1, 52, 54
3, 76440, Note_on_c, 1, 56, 54
3, 76480, Note_off_c, 1, 56, 64
3, 76480, Note_off_c, 1, 52, 64
3, 76560, Note_on_c, 1, 45, 54
3, 76560, Note_on_c, 1, 57, 54
3, 76760, Note_off_c, 1, 57, 64
3, 76760, Note_off_c, 1, 45, 64
3, 77040, Note_on_c, 1, 48, 56
3, 77080, Note_off_c, 1, 48, 64
3, 77160, Note_on_c, 1, 60, 56
3, 77200, Note_off_c, 1, 60, 64
3, 77280, Note_on_c, 1, 52, 56
3, 77320, Note_off_c, 1, 52, 64
3, 77400, Note_on_c, 1, 64, 56
3, 77440, Note_off_c, 1, 64, 64
3, 77520, Note_on_c, 1, 55, 59
3, 77720, Note_off_c, 1, 55, 64
3, 78000, Note_on_c, 1, 48, 56
3, 78040, Note_off_c, 1, 48, 64
3, 78120, Note_on_c, 1, 60, 56
3, 78160, Note_off_c, 1, 60, 64
3, 78240, Note_on_c, 1, 52, 56
3, 78280, Note_off_c, 1, 52, 64
3, 78360, Note_on_c, 1, 64, 56
3, 78400, Note_off_c, 1, 64, 64
3, 78480, Note_on_c, 1, 55, 59
3, 78680, Note_off_c, 1, 55, 64
3, 78960, Note_on_c, 1, 45, 56
3, 79000, Note_off_c, 1, 45, 64
3, 79080, Note_on_c, 1, 57, 56
3, 79120, Note_off_c, 1, 57, 64
3, 79200, Note_on_c, 1, 48, 56
3, 79240, Note_off_c, 1, 48, 64
3, 79320, Note_on_c, 1, 60, 56
3, 79360, Note_off_c, 1, 60, 64
3, 79440, Note_on_c, 1, 52, 59
3, 79640, Note_off_c, 1, 52, 64
3, 79920, Note_on_c, 1, 45, 56
3, 79960, Note_off_c, 1, 45, 64
3, 80040, Note_on_c, 1, 57, 56
3, 80080, Note_off_c, 1, 57, 64
3, 80160, Note_on_c, 1, 48, 56
3, 80200, Note_off_c, 1, 48, 64
3, 80280, Note_on_c, 1, 60, 56
3, 80320, Note_off_c, 1, 60, 64
3, 80400, Note_on_c, 1, 52, 59
3, 80600, Note_off_c, 1, 52, 64
3, 80880, Note_on_c, 1, 57, 54
3, 81000, Note_off_c, 1, 57, 64
3, 81000, Note_on_c, 1, 64, 54
3, 81000, Note_on_c, 1, 60, 54
3, 81040, Note_off_c, 1, 60, 64
3, 81040, Note_off_c, 1, 64, 64
3, 81120, Note_on_c, 1, 60, 54
3, 81120, Note_on_c, 1, 64, 54
3, 81160, Note_off_c, 1, 64, 64
3, 81160, Note_off_c, 1, 60, 64
3, 81240, Note_on_c, 1, 60, 54
3, 81240, Note_on_c, 1, 64, 54
3, 81280, Note_off_c, 1, 64, 64
3, 81280, Note_off_c, 1, 60, 64
3, 81360, Note_on_c, 1, 57, 54
3, 81480, Note_off_c, 1, 57, 64
3, 81480, Note_on_c, 1, 60, 54
3, 81480, Note_on_c, 1, 64, 54
3, 81520, Note_off_c, 1, 64, 64
3, 81520, Note_off_c, 1, 60, 64
3, 81600, Note_on_c, 1, 60, 54
3, 81600, Note_on_c, 1, 64, 54
3, 81640, Note_off_c, 1, 64, 64
3, 81640, Note_off_c, 1, 60, 64
3, 81720, Note_on_c, 1, 64, 54
3, 81720, Note_on_c, 1, 60, 54
3, 81760, Note_off_c, 1, 60, 64
3, 81760, Note_off_c, 1, 64, 64
3, 81840, Note_on_c, 1, 57, 54
3, 81880, Note_off_c, 1, 57, 64
3, 81960, Note_on_c, 1, 64, 54
3, 81960, Note_on_c, 1, 60, 54
3, 82000, Note_off_c, 1, 60, 64
3, 82000, Note_off_c, 1, 64, 64
3, 82080, Note_on_c, 1, 57, 54
3, 82120, Note_off_c, 1, 57, 64
3, 82200, Note_on_c, 1, 60, 54
3, 82200, Note_on_c, 1, 64, 54
3, 82240, Note_off_c, 1, 64, 64
3, 82240, Note_off_c, 1, 60, 64
3, 82320, Note_on_c, 1, 53, 54
3, 82405, Note_off_c, 1, 53, 64
3, 82440, Note_on_c, 1, 57, 54
3, 82440, Note_on_c, 1, 63, 54
3, 82480, Note_off_c, 1, 63, 64
3, 82480, Note_off_c, 1, 57, 64
3, 82560, Note_on_c, 1, 57, 54
3, 82560, Note_on_c, 1, 63, 54
3, 82600, Note_off_c, 1, 63, 64
3, 82600, Note_off_c, 1, 57, 64
3, 82680, Note_on_c, 1, 57, 54
3, 82680, Note_on_c, 1, 63, 54
3, 82720, Note_off_c, 1, 63, 64
3, 82720, Note_off_c, 1, 57, 64
3, 82800, Note_on_c, 1, 52, 54
3, 82840, Note_off_c, 1, 52, 64
3, 82920, Note_on_c, 1, 57, 54
3, 82920, Note_on_c, 1, 64, 54
3, 82960, Note_off_c, 1, 64, 64
3, 82960, Note_off_c, 1, 57, 64
3, 83040, Note_on_c, 1, 50, 54
3, 83080, Note_off_c, 1, 50, 64
3, 83160, Note_on_c, 1, 53, 54
3, 83160, Note_on_c, 1, 59, 54
3, 83200, Note_off_c, 1, 59, 64
3, 83200, Note_off_c, 1, 53, 64
3, 83280, Note_on_c, 1, 48, 54
3, 83320, Note_off_c, 1, 48, 64
3, 83400, Note_on_c, 1, 52, 54
3, 83400, Note_on_c, 1, 57, 54
3, 83440, Note_off_c, 1, 57, 64
3, 83440, Note_off_c, 1, 52, 64
3, 83520, Note_on_c, 1, 50, 54
3, 83560, Note_off_c, 1, 50, 64
3, 83640, Note_on_c, 1, 53, 54
3, 83640, Note_on_c, 1, 59, 54
3, 83680, Note_off_c, 1, 59, 64
3, 83680, Note_off_c, 1, 53, 64
3, 83760, Note_on_c, 1, 52, 54
3, 83760, Note_on_c, 1, 57, 54
3, 83800, Note_off_c, 1, 57, 64
3, 83800, Note_off_c, 1, 52, 64
3, 83880, Note_on_c, 1, 52, 54
3, 83880, Note_on_c, 1, 57, 54
3, 83920, Note_off_c, 1, 57, 64
3, 83920, Note_off_c, 1, 52, 64
3, 84000, Note_on_c, 1, 52, 54
3, 84000, Note_on_c, 1, 56, 54
3, 84040, Note_off_c, 1, 56, 64
3, 84040, Note_off_c, 1, 52, 64
3, 84120, Note_on_c, 1, 52, 54
3, 84120, Note_on_c, 1, 56, 54
3, 84160, Note_off_c, 1, 56, 64
3, 84160, Note_off_c, 1, 52, 64
3, 84240, Note_on_c, 1, 45, 54
3, 84240, Note_on_c, 1, 57, 54
3, 84440, Note_off_c, 1, 57, 64
3, 84440, Note_off_c, 1, 45, 64
3, 84720, Note_on_c, 1, 45, 60
3, 84750, Note_off_c, 1, 45, 64
3, 84750, Note_on_c, 1, 49, 60
3, 84780, Note_off_c, 1, 49, 64
3, 84780, Note_on_c, 1, 52, 60
3, 84810, Note_off_c, 1, 52, 64
3, 84810, Note_on_c, 1, 57, 60
3, 84830, Note_off_c, 1, 57, 64
3, 84840, Note_on_c, 1, 57, 60
3, 84880, Note_off_c, 1, 57, 64
3, 84960, Note_on_c, 1, 57, 60
3, 85000, Note_off_c, 1, 57, 64
3, 85080, Note_on_c, 1, 57, 60
3, 85120, Note_off_c, 1, 57, 64
3, 85200, Note_on_c, 1, 45, 60
3, 85230, Note_off_c, 1, 45, 64
3, 85230, Note_on_c, 1, 49, 60
3, 85260, Note_off_c, 1, 49, 64
3, 85260, Note_on_c, 1, 52, 60
3, 85290, Note_off_c, 1, 52, 64
3, 85290, Note_on_c, 1, 57, 60
3, 85310, Note_off_c, 1, 57, 64
3, 85320, Note_on_c, 1, 57, 60
3, 85360, Note_off_c, 1, 57, 64
3, 85440, Note_on_c, 1, 57, 60
3, 85480, Note_off_c, 1, 57, 64
3, 85560, Note_on_c, 1, 57, 60
3, 85600, Note_off_c, 1, 57, 64
3, 85680, Note_on_c, 1, 38, 60
3, 85710, Note_off_c, 1, 38, 64
3, 85710, Note_on_c, 1, 42, 60
3, 85740, Note_off_c, 1, 42, 64
3, 85740, Note_on_c, 1, 45, 60
3, 85770, Note_off_c, 1, 45, 64
3, 85770, Note_on_c, 1, 50, 60
3, 85790, Note_off_c, 1, 50, 64
3, 85800, Note_on_c, 1, 50, 60
3, 85840, Note_off_c, 1, 50, 64
3, 85920, Note_on_c, 1, 39, 60
3, 85950, Note_off_c, 1, 39, 64
3, 85950, Note_on_c, 1, 42, 60
3, 85980, Note_off_c, 1, 42, 64
3, 85980, Note_on_c, 1, 45, 60
3, 86010, Note_off_c, 1, 45, 64
3, 86010, Note_on_c, 1, 51, 60
3, 86030, Note_off_c, 1, 51, 64
3, 86040, Note_on_c, 1, 51, 60
3, 86080, Note_off_c, 1, 51, 64
3, 86160, Note_on_c, 1, 40, 60
3, 86190, Note_off_c, 1, 40, 64
3, 86190, Note_on_c, 1, 44, 60
3, 86220, Note_off_c, 1, 44, 64
3, 86220, Note_on_c, 1, 47, 60
3, 86250, Note_off_c, 1, 47, 64
3, 86250, Note_on_c, 1, 52, 60
3, 86270, Note_off_c, 1, 52, 64
3, 86280, Note_on_c, 1, 52, 60
3, 86320, Note_off_c, 1, 52, 64
3, 86400, Note_on_c, 1, 52, 60
3, 86440, Note_off_c, 1, 52, 64
3, 86520, Note_on_c, 1, 52, 60
3, 86560, Note_off_c, 1, 52, 64
3, 86640, Note_on_c, 1, 45, 60
3, 86670, Note_off_c, 1, 45, 64
3, 86670, Note_on_c, 1, 49, 60
3, 86700, Note_off_c, 1, 49, 64
3, 86700, Note_on_c, 1, 52, 60
3, 86730, Note_off_c, 1, 52, 64
3, 86730, Note_on_c, 1, 57, 60
3, 86750, Note_off_c, 1, 57, 64
3, 86760, Note_on_c, 1, 57, 60
3, 86800, Note_off_c, 1, 57, 64
3, 86880, Note_on_c, 1, 57, 60
3, 86920, Note_off_c, 1, 57, 64
3, 87000, Note_on_c, 1, 57, 60
3, 87040, Note_off_c, 1, 57, 64
3, 87120, Note_on_c, 1, 45, 60
3, 87150, Note_off_c, 1, 45, 64
3, 87150, Note_on_c, 1, 49, 60
3, 87180, Note_off_c, 1, 49, 64
3, 87180, Note_on_c, 1, 52, 60
3, 87210, Note_off_c, 1, 52, 64
3, 87210, Note_on_c, 1, 57, 60
3, 87230, Note_off_c, 1, 57, 64
3, 87240, Note_on_c, 1, 57, 60
3, 87280, Note_off_c, 1, 57, 64
3, 87360, Note_on_c, 1, 57, 60
3, 87400, Note_off_c, 1, 57, 64
3, 87480, Note_on_c, 1, 57, 60
3, 87520, Note_off_c, 1, 57, 64
3, 87600, Note_on_c, 1, 38, 60
3, 87630, Note_off_c, 1, 38, 64
3, 87630, Note_on_c, 1, 42, 60
3, 87660, Note_off_c, 1, 42, 64
3, 87660, Note_on_c, 1, 45, 60
3, 87690, Note_off_c, 1, 45, 64
3, 87690, Note_on_c, 1, 50, 60
3, 87710, Note_off_c, 1, 50, 64
3, 87720, Note_on_c, 1, 50, 60
3, 87760, Note_off_c, 1, 50, 64
3, 87840, Note_on_c, 1, 40, 60
3, 87870, Note_off_c, 1, 40, 64
3, 87870, Note_on_c, 1, 44, 60
3, 87900, Note_off_c, 1, 44, 64
3, 87900, Note_on_c, 1, 47, 60
3, 87930, Note_off_c, 1, 47, 64
3, 87930, Note_on_c, 1, 52, 60
3, 87950, Note_off_c, 1, 52, 64
3, 87960, Note_on_c, 1, 52, 60
3, 88000, Note_off_c, 1, 52, 64
3, 88080, Note_on_c, 1, 45, 60
3, 88280, Note_off_c, 1, 45, 64
3, 88560, Note_on_c, 1, 45, 60
3, 88590, Note_off_c, 1, 45, 64
3, 88590, Note_on_c, 1, 49, 60
3, 88620, Note_off_c, 1, 49, 64
3, 88620, Note_on_c, 1, 52, 60
3, 88650, Note_off_c, 1, 52, 64
3, 88650, Note_on_c, 1, 57, 60
3, 88670, Note_off_c, 1, 57, 64
3, 88680, Note_on_c, 1, 57, 60
3, 88720, Note_off_c, 1, 57, 64
3, 88800, Note_on_c, 1, 57, 60
3, 88840, Note_off_c, 1, 57, 64
3, 88920, Note_on_c, 1, 57, 60
3, 88960, Note_off_c, 1, 57, 64
3, 89040, Note_on_c, 1, 45, 60
3, 89070, Note_off_c, 1, 45, 64
3, 89070, Note_on_c, 1, 49, 60
3, 89100, Note_off_c, 1, 49, 64
3, 89100, Note_on_c, 1, 52, 60
3, 89130, Note_off_c, 1, 52, 64
3, 89130, Note_on_c, 1, 57, 60
3, 89150, Note_off_c, 1, 57, 64
3, 89160, Note_on_c, 1, 57, 60
3, 89200, Note_off_c, 1, 57, 64
3, 89280, Note_on_c, 1, 57, 60
3, 89320, Note_off_c, 1, 57, 64
3, 89400, Note_on_c, 1, 57, 60
3, 89440, Note_off_c, 1, 57, 64
3, 89520, Note_on_c, 1, 38, 60
3, 89550, Note_off_c, 1, 38, 64
3, 89550, Note_on_c, 1, 42, 60
3, 89580, Note_off_c, 1, 42, 64
3, 89580, Note_on_c, 1, 45, 60
3, 89610, Note_off_c, 1, 45, 64
3, 89610, Note_on_c, 1, 50, 60
3, 89630, Note_off_c, 1, 50, 64
3, 89640, Note_on_c, 1, 50, 60
3, 89680, Note_off_c, 1, 50, 64
3, 89760, Note_on_c, 1, 39, 60
3, 89790, Note_off_c, 1, 39, 64
3, 89790, Note_on_c, 1, 42, 60
3, 89820, Note_off_c, 1, 42, 64
3, 89820, Note_on_c, 1, 45, 60
3, 89850, Note_off_c, 1, 45, 64
3, 89850, Note_on_c, 1, 51, 60
3, 89870, Note_off_c, 1, 51, 64
3, 89880, Note_on_c, 1, 51, 60
3, 89920, Note_off_c, 1, 51, 64
3, 90000, Note_on_c, 1, 40, 60
3, 90030, Note_off_c, 1, 40, 64
3, 90030, Note_on_c, 1, 44, 60
3, 90060, Note_off_c, 1, 44, 64
3, 90060, Note_on_c, 1, 47, 60
3, 90090, Note_off_c, 1, 47, 64
3, 90090, Note_on_c, 1, 52, 60
3, 90110, Note_off_c, 1, 52, 64
3, 90120, Note_on_c, 1, 52, 60
3, 90160, Note_off_c, 1, 52, 64
3, 90240, Note_on_c, 1, 52, 60
3, 90280, Note_off_c, 1, 52, 64
3, 90360, Note_on_c, 1, 52, 60
3, 90400, Note_off_c, 1, 52, 64
3, 90480, Note_on_c, 1, 45, 60
3, 90510, Note_off_c, 1, 45, 64
3, 90510, Note_on_c, 1, 49, 60
3, 90540, Note_off_c, 1, 49, 64
3, 90540, Note_on_c, 1, 52, 60
3, 90570, Note_off_c, 1, 52, 64
3, 90570, Note_on_c, 1, 57, 60
3, 90590, Note_off_c, 1, 57, 64
3, 90600, Note_on_c, 1, 57, 60
3, 90640, Note_off_c, 1, 57, 64
3, 90720, Note_on_c, 1, 57, 60
3, 90760, Note_off_c, 1, 57, 64
3, 90840, Note_on_c, 1, 57, 60
3, 90880, Note_off_c, 1, 57, 64
3, 90960, Note_on_c, 1, 45, 60
3, 90990, Note_off_c, 1, 45, 64
3, 90990, Note_on_c, 1, 49, 60
3, 91020, Note_off_c, 1, 49, 64
3, 91020, Note_on_c, 1, 52, 60
3, 91050, Note_off_c, 1, 52, 64
3, 91050, Note_on_c, 1, 57, 60
3, 91070, Note_off_c, 1, 57, 64
3, 91080, Note_on_c, 1, 57, 60
3, 91120, Note_off_c, 1, 57, 64
3, 91200, Note_on_c, 1, 57, 60
3, 91240, Note_off_c, 1, 57, 64
3, 91320, Note_on_c, 1, 57, 60
3, 91360, Note_off_c, 1, 57, 64
3, 91440, Note_on_c, 1, 38, 60
3, 91470, Note_off_c, 1, 38, 64
3, 91470, Note_on_c, 1, 42, 60
3, 91500, Note_off_c, 1, 42, 64
3, 91500, Note_on_c, 1, 45, 60
3, 91530, Note_off_c, 1, 45, 64
3, 91530, Note_on_c, 1, 50, 60
3, 91550, Note_off_c, 1, 50, 64
3, 91560, Note_on_c, 1, 50, 60
3, 91600, Note_off_c, 1, 50, 64
3, 91680, Note_on_c, 1, 40, 60
3, 91710, Note_off_c, 1, 40, 64
3, 91710, Note_on_c, 1, 44, 60
3, 91740, Note_off_c, 1, 44, 64
3, 91740, Note_on_c, 1, 47, 60
3, 91770, Note_off_c, 1, 47, 64
3, 91770, Note_on_c, 1, 52, 60
3, 91790, Note_off_c, 1, 52, 64
3, 91800, Note_on_c, 1, 52, 60
3, 91840, Note_off_c, 1, 52, 64
3, 91920, Note_on_c, 1, 45, 60
3, 91950, Note_off_c, 1, 45, 64
3, 91950, Note_on_c, 1, 49, 60
3, 91980, Note_off_c, 1, 49, 64
3, 91980, Note_on_c, 1, 52, 60
3, 92010, Note_off_c, 1, 52, 64
3, 92010, Note_on_c, 1, 57, 60
3, 92030, Note_off_c, 1, 57, 64
3, 92040, Note_on_c, 1, 57, 60
3, 92080, Note_off_c, 1, 57, 64
3, 92160, Note_on_c, 1, 57, 60
3, 92200, Note_off_c, 1, 57, 64
3, 92280, Note_on_c, 1, 57, 58
3, 92376, Note_off_c, 1, 57, 64
3, 92400, Note_on_c, 1, 45, 60
3, 92430, Note_off_c, 1, 45, 64
3, 92430, Note_on_c, 1, 49, 60
3, 92460, Note_off_c, 1, 49, 64
3, 92460, Note_on_c, 1, 52, 60
3, 92490, Note_off_c, 1, 52, 64
3, 92490, Note_on_c, 1, 57, 60
3, 92510, Note_off_c, 1, 57, 64
3, 92520, Note_on_c, 1, 57, 60
3, 92560, Note_off_c, 1, 57, 64
3, 92640, Note_on_c, 1, 57, 60
3, 92680, Note_off_c, 1, 57, 64
3, 92760, Note_on_c, 1, 57, 60
3, 92800, Note_off_c, 1, 57, 64
3, 92880, Note_on_c, 1, 45, 60
3, 92910, Note_off_c, 1, 45, 64
3, 92910, Note_on_c, 1, 49, 60
3, 92940, Note_off_c, 1, 49, 64
3, 92940, Note_on_c, 1, 52, 60
3, 92970, Note_off_c, 1, 52, 64
3, 92970, Note_on_c, 1, 57, 60
3, 92990, Note_off_c, 1, 57, 64
3, 93000, Note_on_c, 1, 57, 60
3, 93040, Note_off_c, 1, 57, 64
3, 93120, Note_on_c, 1, 57, 60
3, 93160, Note_off_c, 1, 57, 64
3, 93240, Note_on_c, 1, 57, 60
3, 93280, Note_off_c, 1, 57, 64
3, 93360, Note_on_c, 1, 45, 60
3, 93390, Note_off_c, 1, 45, 64
3, 93390, Note_on_c, 1, 49, 60
3, 93420, Note_off_c, 1, 49, 64
3, 93420, Note_on_c, 1, 52, 60
3, 93450, Note_off_c, 1, 52, 64
3, 93450, Note_on_c, 1, 57, 60
3, 93470, Note_off_c, 1, 57, 64
3, 93480, Note_on_c, 1, 57, 60
3, 93520, Note_off_c, 1, 57, 64
3, 93600, Note_on_c, 1, 57, 60
3, 93640, Note_off_c, 1, 57, 64
3, 93720, Note_on_c, 1, 57, 60
3, 93760, Note_off_c, 1, 57, 64
3, 93840, Note_on_c, 1, 38, 60
3, 93870, Note_off_c, 1, 38, 64
3, 93870, Note_on_c, 1, 42, 60
3, 93900, Note_off_c, 1, 42, 64
3, 93900, Note_on_c, 1, 45, 60
3, 93930, Note_off_c, 1, 45, 64
3, 93930, Note_on_c, 1, 50, 60
3, 93957, Note_off_c, 1, 50, 64
3, 93960, Note_on_c, 1, 50, 60
3, 94000, Note_off_c, 1, 50, 64
3, 94080, Note_on_c, 1, 50, 60
3, 94120, Note_off_c, 1, 50, 64
3, 94200, Note_on_c, 1, 50, 60
3, 94240, Note_off_c, 1, 50, 64
3, 94320, Note_on_c, 1, 45, 60
3, 94350, Note_off_c, 1, 45, 64
3, 94350, Note_on_c, 1, 49, 60
3, 94380, Note_off_c, 1, 49, 64
3, 94380, Note_on_c, 1, 52, 60
3, 94410, Note_off_c, 1, 52, 64
3, 94410, Note_on_c, 1, 57, 60
3, 94430, Note_off_c, 1, 57, 64
3, 94440, Note_on_c, 1, 57, 60
3, 94480, Note_off_c, 1, 57, 64
3, 94560, Note_on_c, 1, 57, 60
3, 94600, Note_off_c, 1, 57, 64
3, 94680, Note_on_c, 1, 57, 60
3, 94720, Note_off_c, 1, 57, 64
3, 94800, Note_on_c, 1, 40, 60
3, 94830, Note_off_c, 1, 40, 64
3, 94830, Note_on_c, 1, 44, 60
3, 94860, Note_off_c, 1, 44, 64
3, 94860, Note_on_c, 1, 47, 60
3, 94890, Note_off_c, 1, 47, 64
3, 94890, Note_on_c, 1, 52, 60
3, 94910, Note_off_c, 1, 52, 64
3, 94920, Note_on_c, 1, 52, 60
3, 94960, Note_off_c, 1, 52, 64
3, 95040, Note_on_c, 1, 52, 60
3, 95080, Note_off_c, 1, 52, 64
3, 95160, Note_on_c, 1, 52, 60
3, 95200, Note_off_c, 1, 52, 64
3, 95280, Note_on_c, 1, 45, 60
3, 95310, Note_off_c, 1, 45, 64
3, 95310, Note_on_c, 1, 49, 60
3, 95340, Note_off_c, 1, 49, 64
3, 95340, Note_on_c, 1, 52, 60
3, 95370, Note_off_c, 1, 52, 64
3, 95370, Note_on_c, 1, 57, 60
3, 95390, Note_off_c, 1, 57, 64
3, 95400, Note_on_c, 1, 57, 60
3, 95440, Note_off_c, 1, 57, 64
3, 95520, Note_on_c, 1, 57, 60
3, 95560, Note_off_c, 1, 57, 64
3, 95640, Note_on_c, 1, 57, 60
3, 95680, Note_off_c, 1, 57, 64
3, 95760, Note_on_c, 1, 45, 60
3, 95790, Note_off_c, 1, 45, 64
3, 95790, Note_on_c, 1, 49, 60
3, 95820, Note_off_c, 1, 49, 64
3, 95820, Note_on_c, 1, 52, 60
3, 95850, Note_off_c, 1, 52, 64
3, 95850, Note_on_c, 1, 57, 60
3, 95870, Note_off_c, 1, 57, 64
3, 95880, Note_on_c, 1, 57, 60
3, 95920, Note_off_c, 1, 57, 64
3, 96000, Note_on_c, 1, 57, 60
3, 96040, Note_off_c, 1, 57, 64
3, 96120, Note_on_c, 1, 57, 60
3, 96160, Note_off_c, 1, 57, 64
3, 96240, Note_on_c, 1, 45, 60
3, 96270, Note_off_c, 1, 45, 64
3, 96270, Note_on_c, 1, 49, 60
3, 96300, Note_off_c, 1, 49, 64
3, 96300, Note_on_c, 1, 52, 60
3, 96330, Note_off_c, 1, 52, 64
3, 96330, Note_on_c, 1, 57, 60
3, 96350, Note_off_c, 1, 57, 64
3, 96360, Note_on_c, 1, 57, 60
3, 96400, Note_off_c, 1, 57, 64
3, 96480, Note_on_c, 1, 57, 60
3, 96520, Note_off_c, 1, 57, 64
3, 96600, Note_on_c, 1, 57, 60
3, 96640, Note_off_c, 1, 57, 64
3, 96720, Note_on_c, 1, 38, 60
3, 96750, Note_off_c, 1, 38, 64
3, 96750, Note_on_c, 1, 42, 60
3, 96780, Note_off_c, 1, 42, 64
3, 96780, Note_on_c, 1, 45, 60
3, 96801, Note_off_c, 1, 45, 64
3, 96810, Note_on_c, 1, 50, 60
3, 96830, Note_off_c, 1, 50, 64
3, 96840, Note_on_c, 1, 50, 60
3, 96880, Note_off_c, 1, 50, 64
3, 96960, Note_on_c, 1, 50, 60
3, 97000, Note_off_c, 1, 50, 64
3, 97080, Note_on_c, 1, 50, 60
3, 97120, Note_off_c, 1, 50, 64
3, 97200, Note_on_c, 1, 45, 60
3, 97230, Note_off_c, 1, 45, 64
3, 97230, Note_on_c, 1, 49, 60
3, 97260, Note_off_c, 1, 49, 64
3, 97260, Note_on_c, 1, 52, 60
3, 97290, Note_off_c, 1, 52, 64
3, 97290, Note_on_c, 1, 57, 60
3, 97310, Note_off_c, 1, 57, 64
3, 97320, Note_on_c, 1, 57, 60
3, 97360, Note_off_c, 1, 57, 64
3, 97440, Note_on_c, 1, 57, 60
3, 97480, Note_off_c, 1, 57, 64
3, 97560, Note_on_c, 1, 57, 60
3, 97600, Note_off_c, 1, 57, 64
3, 97680, Note_on_c, 1, 40, 60
3, 97710, Note_off_c, 1, 40, 64
3, 97710, Note_on_c, 1, 44, 60
3, 97740, Note_off_c, 1, 44, 64
3, 97740, Note_on_c, 1, 47, 60
3, 97770, Note_off_c, 1, 47, 64
3, 97770, Note_on_c, 1, 52, 60
3, 97790, Note_off_c, 1, 52, 64
3, 97800, Note_on_c, 1, 52, 60
3, 97840, Note_off_c, 1, 52, 64
3, 97920, Note_on_c, 1, 52, 60
3, 97960, Note_off_c, 1, 52, 64
3, 98040, Note_on_c, 1, 52, 60
3, 98080, Note_off_c, 1, 52, 64
3, 98160, Note_on_c, 1, 57, 73
3, 98217, Note_off_c, 1, 57, 64
3, 98220, Note_on_c, 1, 64, 73
3, 98277, Note_off_c, 1, 64, 64
3, 98280, Note_on_c, 1, 61, 73
3, 98337, Note_off_c, 1, 61, 64
3, 98340, Note_on_c, 1, 64, 73
3, 98397, Note_off_c, 1, 64, 64
3, 98400, Note_on_c, 1, 57, 68
3, 98457, Note_off_c, 1, 57, 64
3, 98460, Note_on_c, 1, 64, 68
3, 98517, Note_off_c, 1, 64, 64
3, 98520, Note_on_c, 1, 61, 68
3, 98577, Note_off_c, 1, 61, 64
3, 98580, Note_on_c, 1, 64, 68
3, 98637, Note_off_c, 1, 64, 64
3, 98640, Note_on_c, 1, 57, 68
3, 98697, Note_off_c, 1, 57, 64
3, 98700, Note_on_c, 1, 64, 68
3, 98757, Note_off_c, 1, 64, 64
3, 98760, Note_on_c, 1, 61, 68
3, 98817, Note_off_c, 1, 61, 64
3, 98820, Note_on_c, 1, 64, 68
3, 98877, Note_off_c, 1, 64, 64
3, 98880, Note_on_c, 1, 57, 68
3, 98937, Note_off_c, 1, 57, 64
3, 98940, Note_on_c, 1, 64, 68
3, 98997, Note_off_c, 1, 64, 64
3, 99000, Note_on_c, 1, 61, 68
3, 99057, Note_off_c, 1, 61, 64
3, 99060, Note_on_c, 1, 64, 68
3, 99117, Note_off_c, 1, 64, 64
3, 99120, Note_on_c, 1, 57, 68
3, 99177, Note_off_c, 1, 57, 64
3, 99180, Note_on_c, 1, 64, 68
3, 99237, Note_off_c, 1, 64, 64
3, 99240, Note_on_c, 1, 61, 68
3, 99297, Note_off_c, 1, 61, 64
3, 99300, Note_on_c, 1, 64, 68
3, 99357, Note_off_c, 1, 64, 64
3, 99360, Note_on_c, 1, 57, 68
3, 99417, Note_off_c, 1, 57, 64
3, 99420, Note_on_c, 1, 64, 68
3, 99477, Note_off_c, 1, 64, 64
3, 99480, Note_on_c, 1, 61, 68
3, 99537, Note_off_c, 1, 61, 64
3, 99540, Note_on_c, 1, 64, 68
3, 99597, Note_off_c, 1, 64, 64
3, 99600, Note_on_c, 1, 57, 68
3, 99657, Note_off_c, 1, 57, 64
3, 99660, Note_on_c, 1, 64, 68
3, 99717, Note_off_c, 1, 64, 64
3, 99720, Note_on_c, 1, 61, 68
3, 99777, Note_off_c, 1, 61, 64
3, 99780, Note_on_c, 1, 64, 68
3, 99837, Note_off_c, 1, 64, 64
3, 99840, Note_on_c, 1, 57, 68
3, 99897, Note_off_c, 1, 57, 64
3, 99900, Note_on_c, 1, 64, 68
3, 99957, Note_off_c, 1, 64, 64
3, 99960, Note_on_c, 1, 61, 68
3, 100017, Note_off_c, 1, 61, 64
3, 100020, Note_on_c, 1, 64, 68
3, 100077, Note_off_c, 1, 64, 64
3, 100080, Note_on_c, 1, 57, 68
3, 100137, Note_off_c, 1, 57, 64
3, 100140, Note_on_c, 1, 66, 68
3, 100197, Note_off_c, 1, 66, 64
3, 100200, Note_on_c, 1, 62, 68
3, 100257, Note_off_c, 1, 62, 64
3, 100260, Note_on_c, 1, 66, 68
3, 100317, Note_off_c, 1, 66, 64
3, 100320, Note_on_c, 1, 57, 68
3, 100377, Note_off_c, 1, 57, 64
3, 100380, Note_on_c, 1, 66, 68
3, 100437, Note_off_c, 1, 66, 64
3, 100440, Note_on_c, 1, 62, 68
3, 100497, Note_off_c, 1, 62, 64
3, 100500, Note_on_c, 1, 66, 68
3, 100557, Note_off_c, 1, 66, 64
3, 100560, Note_on_c, 1, 57, 68
3, 100617, Note_off_c, 1, 57, 64
3, 100620, Note_on_c, 1, 64, 68
3, 100677, Note_off_c, 1, 64, 64
3, 100680, Note_on_c, 1, 61, 68
3, 100737, Note_off_c, 1, 61, 64
3, 100740, Note_on_c, 1, 64, 68
3, 100797, Note_off_c, 1, 64, 64
3, 100800, Note_on_c, 1, 57, 68
3, 100857, Note_off_c, 1, 57, 64
3, 100860, Note_on_c, 1, 64, 68
3, 100917, Note_off_c, 1, 64, 64
3, 100920, Note_on_c, 1, 61, 68
3, 100977, Note_off_c, 1, 61, 64
3, 100980, Note_on_c, 1, 64, 68
3, 101037, Note_off_c, 1, 64, 64
3, 101040, Note_on_c, 1, 52, 68
3, 101097, Note_off_c, 1, 52, 64
3, 101100, Note_on_c, 1, 64, 68
3, 101157, Note_off_c, 1, 64, 64
3, 101160, Note_on_c, 1, 56, 68
3, 101217, Note_off_c, 1, 56, 64
3, 101220, Note_on_c, 1, 64, 68
3, 101277, Note_off_c, 1, 64, 64
3, 101280, Note_on_c, 1, 52, 68
3, 101337, Note_off_c, 1, 52, 64
3, 101340, Note_on_c, 1, 64, 68
3, 101397, Note_off_c, 1, 64, 64
3, 101400, Note_on_c, 1, 56, 68
3, 101457, Note_off_c, 1, 56, 64
3, 101460, Note_on_c, 1, 64, 68
3, 101517, Note_off_c, 1, 64, 64
3, 101520, Note_on_c, 1, 45, 73
3, 101550, Note_off_c, 1, 45, 64
3, 101550, Note_on_c, 1, 49, 73
3, 101580, Note_off_c, 1, 49, 64
3, 101580, Note_on_c, 1, 52, 73
3, 101610, Note_off_c, 1, 52, 64
3, 101610, Note_on_c, 1, 57, 73
3, 101630, Note_off_c, 1, 57, 64
3, 101640, Note_on_c, 1, 57, 73
3, 101680, Note_off_c, 1, 57, 64
3, 101760, Note_on_c, 1, 57, 73
3, 101800, Note_off_c, 1, 57, 64
3, 101880, Note_on_c, 1, 57, 73
3, 101920, Note_off_c, 1, 57, 64
3, 102000, Note_on_c, 1, 45, 73
3, 102030, Note_off_c, 1, 45, 64
3, 102030, Note_on_c, 1, 49, 73
3, 102060, Note_off_c, 1, 49, 64
3, 102060, Note_on_c, 1, 52, 73
3, 102090, Note_off_c, 1, 52, 64
3, 102090, Note_on_c, 1, 57, 73
3, 102110, Note_off_c, 1, 57, 64
3, 102120, Note_on_c, 1, 57, 73
3, 102160, Note_off_c, 1, 57, 64
3, 102240, Note_on_c, 1, 57, 73
3, 102280, Note_off_c, 1, 57, 64
3, 102360, Note_on_c, 1, 57, 73
3, 102400, Note_off_c, 1, 57, 64
3, 102480, Note_on_c, 1, 45, 73
3, 102510, Note_off_c, 1, 45, 64
3, 102510, Note_on_c, 1, 49, 73
3, 102540, Note_off_c, 1, 49, 64
3, 102540, Note_on_c, 1, 52, 73
3, 102570, Note_off_c, 1, 52, 64
3, 102570, Note_on_c, 1, 57, 73
3, 102590, Note_off_c, 1, 57, 64
3, 102600, Note_on_c, 1, 57, 73
3, 102640, Note_off_c, 1, 57, 64
3, 102720, Note_on_c, 1, 57, 73
3, 102760, Note_off_c, 1, 57, 64
3, 102840, Note_on_c, 1, 57, 73
3, 102880, Note_off_c, 1, 57, 64
3, 102960, Note_on_c, 1, 38, 73
3, 102990, Note_off_c, 1, 38, 64
3, 102990, Note_on_c, 1, 42, 73
3, 103020, Note_off_c, 1, 42, 64
3, 103020, Note_on_c, 1, 45, 73
3, 103041, Note_off_c, 1, 45, 64
3, 103050, Note_on_c, 1, 50, 73
3, 103070, Note_off_c, 1, 50, 64
3, 103080, Note_on_c, 1, 50, 73
3, 103120, Note_off_c, 1, 50, 64
3, 103200, Note_on_c, 1, 50, 73
3, 103240, Note_off_c, 1, 50, 64
3, 103320, Note_on_c, 1, 50, 73
3, 103360, Note_off_c, 1, 50, 64
3, 103440, Note_on_c, 1, 45, 73
3, 103470, Note_off_c, 1, 45, 64
3, 103470, Note_on_c, 1, 49, 73
3, 103500, Note_off_c, 1, 49, 64
3, 103500, Note_on_c, 1, 52, 73
3, 103530, Note_off_c, 1, 52, 64
3, 103530, Note_on_c, 1, 57, 73
3, 103550, Note_off_c, 1, 57, 64
3, 103560, Note_on_c, 1, 57, 73
3, 103600, Note_off_c, 1, 57, 64
3, 103680, Note_on_c, 1, 57, 73
3, 103720, Note_off_c, 1, 57, 64
3, 103800, Note_on_c, 1, 57, 73
3, 103840, Note_off_c, 1, 57, 64
3, 103920, Note_on_c, 1, 40, 73
3, 103950, Note_off_c, 1, 40, 64
3, 103950, Note_on_c, 1, 44, 73
3, 103980, Note_off_c, 1, 44, 64
3, 103980, Note_on_c, 1, 47, 73
3, 104010, Note_off_c, 1, 47, 64
3, 104010, Note_on_c, 1, 52, 73
3, 104030, Note_off_c, 1, 52, 64
3, 104040, Note_on_c, 1, 52, 73
3, 104080, Note_off_c, 1, 52, 64
3, 104160, Note_on_c, 1, 52, 73
3, 104200, Note_off_c, 1, 52, 64
3, 104280, Note_on_c, 1, 52, 73
3, 104320, Note_off_c, 1, 52, 64
3, 104400, Note_on_c, 1, 45, 117
3, 104430, Note_off_c, 1, 45, 64
3, 104430, Note_on_c, 1, 49, 117
3, 104460, Note_off_c, 1, 49, 64
3, 104460, Note_on_c, 1, 52, 117
3, 104490, Note_off_c, 1, 52, 64
3, 104490, Note_on_c, 1, 57, 117
3, 104510, Note_off_c, 1, 57, 64
3, 104520, Note_on_c, 1, 57, 117
3, 104560, Note_off_c, 1, 57, 64
3, 104640, Note_on_c, 1, 57, 117
3, 104680, Note_off_c, 1, 57, 64
3, 104760, Note_on_c, 1, 57, 117
3, 104800, Note_off_c, 1, 57, 64
3, 104880, Note_on_c, 1, 45, 117
3, 104910, Note_off_c, 1, 45, 64
3, 104910, Note_on_c, 1, 49, 117
3, 104940, Note_off_c, 1, 49, 64
3, 104940, Note_on_c, 1, 52, 117
3, 104970, Note_off_c, 1, 52, 64
3, 104970, Note_on_c, 1, 57, 117
3, 104990, Note_off_c, 1, 57, 64
3, 105000, Note_on_c, 1, 57, 117
3, 105040, Note_off_c, 1, 57, 64
3, 105120, Note_on_c, 1, 57, 117
3, 105160, Note_off_c, 1, 57, 64
3, 105240, Note_on_c, 1, 57, 117
3, 105280, Note_off_c, 1, 57, 64
3, 105360, Note_on_c, 1, 45, 117
3, 105390, Note_off_c, 1, 45, 64
3, 105390, Note_on_c, 1, 49, 117
3, 105420, Note_off_c, 1, 49, 64
3, 105420, Note_on_c, 1, 52, 117
3, 105450, Note_off_c, 1, 52, 64
3, 105450, Note_on_c, 1, 57, 117
3, 105470, Note_off_c, 1, 57, 64
3, 105480, Note_on_c, 1, 57, 117
3, 105520, Note_off_c, 1, 57, 64
3, 105600, Note_on_c, 1, 57, 117
3, 105640, Note_off_c, 1, 57, 64
3, 105720, Note_on_c, 1, 57, 117
3, 105760, Note_off_c, 1, 57, 64
3, 105840, Note_on_c, 1, 45, 117
3, 105870, Note_off_c, 1, 45, 64
3, 105870, Note_on_c, 1, 49, 117
3, 105900, Note_off_c, 1, 49, 64
3, 105900, Note_on_c, 1, 52, 117
3, 105930, Note_off_c, 1, 52, 64
3, 105930, Note_on_c, 1, 57, 117
3, 105950, Note_off_c, 1, 57, 64
3, 105960, Note_on_c, 1, 57, 117
3, 106000, Note_off_c, 1, 57, 64
3, 106080, Note_on_c, 1, 45, 117
3, 106110, Note_off_c, 1, 45, 64
3, 106110, Note_on_c, 1, 49, 117
3, 106140, Note_off_c, 1, 49, 64
3, 106140, Note_on_c, 1, 52, 117
3, 106170, Note_off_c, 1, 52, 64
3, 106170, Note_on_c, 1, 57, 117
3, 106190, Note_off_c, 1, 57, 64
3, 106200, Note_on_c, 1, 57, 117
3, 106240, Note_off_c, 1, 57, 64
3, 106320, Note_on_c, 1, 45, 117
3, 106520, Note_off_c, 1, 45, 64
3, 106560, Note_on_c, 1, 45, 125
3, 106560, Note_on_c, 1, 49, 125
3, 106560, Note_on_c, 1, 52, 125
3, 106560, Note_on_c, 1, 57, 125
3, 106760, Note_off_c, 1, 57, 64
3, 106760, Note_off_c, 1, 52, 64
3, 106760, Note_off_c, 1, 49, 64
3, 106760, Note_off_c, 1, 45, 64
3, 106800, Note_on_c, 1, 57, 125
3, 106800, Note_on_c, 1, 45, 125
3, 106800, Note_on_c, 1, 49, 125
3, 106800, Note_on_c, 1, 52, 125
3, 107000, Note_off_c, 1, 52, 64
3, 107000, Note_off_c, 1, 49, 64
3, 107000, Note_off_c, 1, 45, 64
3, 107000, Note_off_c, 1, 57, 64
3, 107000, End_track
0, 0, End_of_file
