0, 0, Header, 1, 3, 480
1, 0, Start_track
1, 0, Title_t, "Pn Sonata 19"
1, 0, Time_signature, 6, 3, 24, 8
1, 0, Key_signature, 0, "major"
1, 0, Tempo, 500000
1, 0, Marker_t, "Piano Sonata in D"
1, 1200, Tempo, 408163
1, 1440, Marker_t, "K576  Mozart"
1, 2820, Tempo, 419580
1, 2880, Marker_t, "Bunji Hisamori"
1, 3495, Tempo, 428571
1, 3735, Tempo, 434782
1, 4320, Marker_t, "hisamori@bekkoame.or.jp"
1, 4575, Tempo, 441176
1, 5280, Tempo, 447761
1, 5640, Tempo, 454545
1, 5760, Tempo, 447761
1, 5760, Marker_t, "Mail in English only!"
1, 6255, Tempo, 461538
1, 6960, Tempo, 408163
1, 7200, Marker_t, "Thank you!"
1, 8580, Tempo, 419580
1, 9240, Tempo, 425531
1, 9705, Tempo, 428571
1, 10800, Tempo, 434782
1, 12000, Tempo, 447761
1, 12240, Tempo, 500000
1, 12480, Tempo, 408163
1, 14280, Tempo, 413793
1, 15345, Tempo, 419580
1, 16785, Tempo, 441176
1, 17160, Tempo, 472440
1, 18480, Tempo, 408163
1, 20100, Tempo, 413793
1, 21480, Tempo, 425531
1, 22230, Tempo, 434782
1, 22690, Tempo, 461538
1, 22920, Tempo, 465116
1, 23145, Tempo, 419580
1, 26520, Tempo, 425531
1, 28760, Tempo, 434782
1, 28800, Tempo, 419580
1, 31640, Tempo, 428571
1, 31680, Tempo, 425531
1, 34520, Tempo, 428571
1, 34560, Tempo, 413793
1, 37380, Tempo, 419580
1, 38840, Tempo, 425531
1, 38880, Tempo, 428571
1, 39480, Tempo, 472440
1, 40080, Tempo, 408163
1, 41700, Tempo, 413793
1, 41760, Tempo, 413793
1, 43080, Tempo, 419580
1, 43200, Tempo, 408163
1, 44580, Tempo, 413793
1, 44640, Tempo, 413793
1, 45960, Tempo, 419580
1, 46080, Tempo, 408163
1, 47400, Tempo, 413793
1, 47520, Tempo, 413793
1, 48920, Tempo, 425531
1, 48960, Tempo, 419580
1, 50340, Tempo, 419580
1, 50400, Tempo, 419580
1, 51800, Tempo, 428571
1, 51840, Tempo, 425531
1, 53220, Tempo, 419580
1, 53280, Tempo, 419580
1, 54680, Tempo, 428571
1, 54720, Tempo, 419580
1, 57480, Tempo, 425531
1, 58200, Tempo, 428571
1, 59000, Tempo, 447761
1, 59210, Tempo, 441176
1, 59640, Tempo, 465116
1, 59760, Tempo, 517241
1, 60000, Tempo, 612244
1, 60240, Tempo, 428571
1, 60480, Tempo, 425531
1, 61880, Tempo, 428571
1, 61920, Tempo, 425531
1, 62880, Tempo, 434782
1, 64695, Tempo, 441176
1, 65520, Tempo, 454545
1, 66000, Tempo, 425531
1, 66240, Tempo, 419580
1, 67640, Tempo, 425531
1, 69080, Tempo, 434782
1, 69120, Tempo, 425531
1, 70520, Tempo, 447761
1, 71895, Tempo, 461538
1, 72135, Tempo, 454545
1, 72480, Tempo, 434782
1, 73320, Tempo, 441176
1, 74840, Tempo, 447761
1, 76065, Tempo, 461538
1, 76320, Tempo, 413793
1, 79080, Tempo, 419580
1, 81990, Tempo, 425531
1, 83480, Tempo, 428571
1, 84720, Tempo, 500000
1, 84960, Tempo, 428571
1, 86360, Tempo, 434782
1, 87360, Tempo, 500000
1, 87840, Tempo, 434782
1, 89205, Tempo, 441176
1, 89760, Tempo, 500000
1, 90480, Tempo, 408163
1, 92040, Tempo, 413793
1, 96360, Tempo, 419580
1, 99240, Tempo, 425531
1, 100680, Tempo, 434782
1, 100800, Tempo, 413793
1, 106520, Tempo, 425531
1, 106560, Tempo, 419580
1, 107880, Tempo, 425531
1, 108000, Tempo, 413793
1, 109320, Tempo, 419580
1, 110640, Tempo, 425531
1, 110880, Tempo, 413793
1, 112280, Tempo, 419580
1, 113720, Tempo, 428571
1, 113760, Tempo, 413793
1, 115160, Tempo, 419580
1, 116535, Tempo, 428571
1, 116640, Tempo, 425531
1, 117975, Tempo, 428571
1, 119400, Tempo, 434782
1, 119520, Tempo, 425531
1, 123800, Tempo, 434782
1, 123840, Tempo, 425531
1, 125160, Tempo, 434782
1, 126600, Tempo, 441176
1, 127320, Tempo, 447761
1, 127800, Tempo, 454545
1, 128030, Tempo, 487804
1, 128160, Tempo, 425531
1, 132360, Tempo, 434782
1, 132480, Tempo, 425531
1, 133830, Tempo, 428571
1, 133920, Tempo, 425531
1, 136755, Tempo, 428571
1, 138180, Tempo, 441176
1, 138840, Tempo, 447761
1, 139200, Tempo, 465116
1, 139440, Tempo, 600000
1, 139680, Tempo, 413793
1, 141000, Tempo, 419580
1, 142440, Tempo, 428571
1, 142560, Tempo, 408163
1, 143760, Tempo, 419580
1, 144840, Tempo, 428571
1, 145680, Tempo, 434782
1, 146385, Tempo, 441176
1, 146760, Tempo, 447761
1, 147600, Tempo, 465116
1, 148080, Tempo, 408163
1, 149640, Tempo, 419580
1, 150615, Tempo, 419580
1, 151905, Tempo, 428571
1, 152400, Tempo, 434782
1, 153120, Tempo, 441176
1, 153360, Tempo, 500000
1, 153840, Tempo, 408163
1, 155400, Tempo, 413793
1, 166920, Tempo, 419580
1, 168360, Tempo, 425531
1, 169545, Tempo, 428571
1, 169800, Tempo, 461538
1, 169920, Tempo, 413793
1, 172760, Tempo, 419580
1, 174200, Tempo, 428571
1, 174920, Tempo, 434782
1, 175200, Tempo, 612244
1, 175440, Tempo, 425531
1, 177080, Tempo, 428571
1, 178200, Tempo, 434782
1, 179895, Tempo, 441176
1, 180750, Tempo, 447761
1, 181200, Tempo, 419580
1, 182840, Tempo, 425531
1, 183570, Tempo, 428571
1, 185400, Tempo, 434782
1, 186345, Tempo, 441176
1, 186960, Tempo, 413793
1, 188400, Tempo, 419580
1, 189600, Tempo, 425531
1, 191145, Tempo, 434782
1, 192225, Tempo, 447761
1, 192720, Tempo, 413793
1, 195750, Tempo, 419580
1, 196440, Tempo, 425531
1, 197040, Tempo, 434782
1, 197775, Tempo, 487804
1, 198000, Tempo, 540540
1, 198480, Tempo, 408163
1, 200040, Tempo, 413793
1, 201480, Tempo, 419580
1, 201600, Tempo, 408163
1, 202920, Tempo, 413793
1, 204360, Tempo, 419580
1, 204480, Tempo, 408163
1, 205800, Tempo, 413793
1, 207320, Tempo, 419580
1, 207360, Tempo, 413793
1, 208740, Tempo, 419580
1, 208800, Tempo, 413793
1, 210200, Tempo, 419580
1, 211620, Tempo, 425531
1, 211680, Tempo, 419580
1, 213080, Tempo, 425531
1, 213120, Tempo, 413793
1, 215960, Tempo, 419580
1, 216000, Tempo, 413793
1, 218760, Tempo, 419580
1, 218880, Tempo, 461538
1, 219315, Tempo, 428571
1, 220215, Tempo, 434782
1, 221655, Tempo, 447761
1, 222210, Tempo, 454545
1, 222960, Tempo, 495867
1, 223200, Tempo, 425531
1, 223440, Tempo, 413793
1, 225960, Tempo, 419580
1, 227400, Tempo, 425531
1, 228360, Tempo, 428571
1, 228880, Tempo, 454545
1, 228960, Tempo, 428571
1, 229320, Tempo, 441176
1, 229560, Tempo, 454545
1, 229950, Tempo, 465116
1, 230160, Tempo, 652173
1, 230880, Tempo, 2222222
1, 231840, Time_signature, 3, 1, 24, 8
1, 231840, Tempo, 705882
1, 231840, Marker_t, "Adagio"
1, 232560, Tempo, 722891
1, 232800, Tempo, 705882
1, 234120, Tempo, 722891
1, 234600, Tempo, 789473
1, 234720, Tempo, 722891
1, 235575, Tempo, 731707
1, 237520, Tempo, 750000
1, 239640, Tempo, 769230
1, 240135, Tempo, 821917
1, 240240, Tempo, 923076
1, 240480, Tempo, 789473
1, 241440, Tempo, 821917
1, 241680, Tempo, 810810
1, 242320, Tempo, 821917
1, 243135, Tempo, 1132075
1, 243360, Tempo, 705882
1, 244080, Tempo, 722891
1, 244320, Tempo, 705882
1, 245625, Tempo, 722891
1, 246120, Tempo, 789473
1, 246240, Tempo, 722891
1, 247080, Tempo, 731707
1, 248880, Tempo, 845070
1, 249120, Tempo, 769230
1, 250720, Tempo, 789473
1, 251520, Tempo, 821917
1, 251760, Tempo, 923076
1, 252000, Tempo, 769230
1, 253185, Tempo, 789473
1, 253440, Tempo, 750000
1, 254625, Tempo, 845070
1, 254880, Tempo, 705882
1, 257400, Tempo, 722891
1, 257640, Tempo, 789473
1, 257760, Tempo, 705882
1, 260265, Tempo, 722891
1, 260520, Tempo, 789473
1, 260640, Tempo, 705882
1, 262920, Tempo, 722891
1, 263280, Tempo, 731707
1, 263440, Tempo, 1111111
1, 263520, Tempo, 750000
1, 264450, Tempo, 810810
1, 264720, Tempo, 769230
1, 265360, Tempo, 789473
1, 266040, Tempo, 845070
1, 266320, Tempo, 1666666
1, 266400, Tempo, 705882
1, 267120, Tempo, 722891
1, 267360, Tempo, 705882
1, 268665, Tempo, 722891
1, 269160, Tempo, 789473
1, 269280, Tempo, 722891
1, 270120, Tempo, 731707
1, 271950, Tempo, 750000
1, 272160, Tempo, 731707
1, 273040, Tempo, 750000
1, 273840, Tempo, 769230
1, 274800, Tempo, 845070
1, 275040, Tempo, 789473
1, 275985, Tempo, 923076
1, 276480, Tempo, 789473
1, 277080, Tempo, 810810
1, 277425, Tempo, 1000000
1, 277920, Tempo, 722891
1, 280680, Tempo, 750000
1, 280800, Tempo, 722891
1, 283560, Tempo, 731707
1, 286440, Tempo, 750000
1, 287670, Tempo, 769230
1, 289080, Tempo, 810810
1, 289360, Tempo, 1034482
1, 289440, Tempo, 722891
1, 292185, Tempo, 750000
1, 292320, Tempo, 722891
1, 295065, Tempo, 731707
1, 297240, Tempo, 750000
1, 297840, Tempo, 789473
1, 298080, Tempo, 705882
1, 300880, Tempo, 722891
1, 300960, Tempo, 705882
1, 303760, Tempo, 722891
1, 303840, Tempo, 705882
1, 306000, Tempo, 705882
1, 306640, Tempo, 722891
1, 306720, Tempo, 705882
1, 309520, Tempo, 722891
1, 309600, Tempo, 705882
1, 311760, Tempo, 705882
1, 312400, Tempo, 722891
1, 312480, Tempo, 705882
1, 315280, Tempo, 722891
1, 315360, Tempo, 705882
1, 317700, Tempo, 722891
1, 318060, Tempo, 731707
1, 318160, Tempo, 769230
1, 318240, Tempo, 722891
1, 319400, Tempo, 731707
1, 320040, Tempo, 750000
1, 320340, Tempo, 769230
1, 320600, Tempo, 789473
1, 320910, Tempo, 845070
1, 321040, Tempo, 1666666
1, 321120, Tempo, 722891
1, 323920, Tempo, 750000
1, 324000, Tempo, 722891
1, 326800, Tempo, 731707
1, 329680, Tempo, 750000
1, 330880, Tempo, 769230
1, 332280, Tempo, 810810
1, 332415, Tempo, 1000000
1, 332640, Tempo, 722891
1, 335440, Tempo, 750000
1, 335520, Tempo, 722891
1, 338320, Tempo, 731707
1, 340240, Tempo, 750000
1, 340680, Tempo, 769230
1, 341085, Tempo, 895522
1, 341280, Tempo, 705882
1, 344080, Tempo, 722891
1, 344160, Tempo, 705882
1, 346960, Tempo, 722891
1, 347040, Tempo, 705882
1, 349840, Tempo, 750000
1, 349920, Tempo, 705882
1, 352200, Tempo, 722891
1, 352640, Tempo, 750000
1, 352720, Tempo, 923076
1, 352800, Tempo, 731707
1, 354120, Tempo, 750000
1, 354640, Tempo, 769230
1, 355140, Tempo, 789473
1, 355160, Tempo, 810810
1, 355440, Tempo, 923076
1, 355600, Tempo, 2400000
1, 355680, Tempo, 705882
1, 356400, Tempo, 722891
1, 356640, Tempo, 705882
1, 357975, Tempo, 722891
1, 358440, Tempo, 789473
1, 358560, Tempo, 722891
1, 359400, Tempo, 731707
1, 361360, Tempo, 750000
1, 363630, Tempo, 769230
1, 364125, Tempo, 952380
1, 364320, Tempo, 750000
1, 365280, Tempo, 789473
1, 365520, Tempo, 750000
1, 366160, Tempo, 769230
1, 366840, Tempo, 789473
1, 367120, Tempo, 1428571
1, 367200, Tempo, 705882
1, 367920, Tempo, 722891
1, 368160, Tempo, 705882
1, 369360, Tempo, 722891
1, 369960, Tempo, 789473
1, 370080, Tempo, 722891
1, 370920, Tempo, 731707
1, 372720, Tempo, 789473
1, 372960, Tempo, 750000
1, 374800, Tempo, 769230
1, 375480, Tempo, 789473
1, 375660, Tempo, 1000000
1, 375840, Tempo, 769230
1, 376830, Tempo, 789473
1, 377280, Tempo, 750000
1, 378495, Tempo, 789473
1, 378720, Tempo, 705882
1, 381240, Tempo, 722891
1, 381480, Tempo, 769230
1, 381600, Tempo, 705882
1, 384120, Tempo, 722891
1, 384360, Tempo, 769230
1, 384480, Tempo, 705882
1, 386820, Tempo, 722891
1, 387120, Tempo, 810810
1, 387280, Tempo, 1034482
1, 387360, Tempo, 722891
1, 388200, Tempo, 810810
1, 388560, Tempo, 750000
1, 389200, Tempo, 769230
1, 389880, Tempo, 810810
1, 390160, Tempo, 1500000
1, 390240, Tempo, 705882
1, 390960, Tempo, 722891
1, 391200, Tempo, 705882
1, 392385, Tempo, 722891
1, 393000, Tempo, 789473
1, 393120, Tempo, 722891
1, 393960, Tempo, 722891
1, 395920, Tempo, 750000
1, 396880, Tempo, 769230
1, 397935, Tempo, 789473
1, 398640, Tempo, 895522
1, 398880, Tempo, 722891
1, 401680, Tempo, 750000
1, 401760, Tempo, 722891
1, 404560, Tempo, 750000
1, 405600, Tempo, 769230
1, 407440, Tempo, 821917
1, 407520, Tempo, 722891
1, 410320, Tempo, 750000
1, 410400, Tempo, 722891
1, 413200, Tempo, 750000
1, 414240, Tempo, 769230
1, 416080, Tempo, 789473
1, 418000, Tempo, 810810
1, 418785, Tempo, 869565
1, 419040, Tempo, 810810
1, 420880, Tempo, 869565
1, 421440, Tempo, 1176470
1, 421920, Tempo, 1176470
1, 422880, Tempo, 2727272
1, 423450, Tempo, 500000
1, 424800, Time_signature, 2, 2, 24, 8
1, 425760, Tempo, 600000
1, 425760, Marker_t, "Allegretto "
1, 429540, Tempo, 612244
1, 429600, Tempo, 600000
1, 431460, Tempo, 612244
1, 431520, Tempo, 600000
1, 432420, Tempo, 612244
1, 433320, Tempo, 638297
1, 433440, Tempo, 600000
1, 437240, Tempo, 612244
1, 437280, Tempo, 600000
1, 438180, Tempo, 612244
1, 438240, Tempo, 600000
1, 439140, Tempo, 612244
1, 440120, Tempo, 625000
1, 443960, Tempo, 638297
1, 444000, Tempo, 600000
1, 444900, Tempo, 612244
1, 444960, Tempo, 600000
1, 445860, Tempo, 612244
1, 445920, Tempo, 600000
1, 446840, Tempo, 612244
1, 446880, Tempo, 612244
1, 447800, Tempo, 625000
1, 447840, Tempo, 612244
1, 448760, Tempo, 638297
1, 449280, Tempo, 652173
1, 449760, Tempo, 612244
1, 451640, Tempo, 625000
1, 451680, Tempo, 612244
1, 453560, Tempo, 638297
1, 453600, Tempo, 612244
1, 454500, Tempo, 625000
1, 454560, Tempo, 612244
1, 455460, Tempo, 625000
1, 455520, Tempo, 612244
1, 456420, Tempo, 625000
1, 456480, Tempo, 612244
1, 457400, Tempo, 689655
1, 457440, Tempo, 612244
1, 462180, Tempo, 625000
1, 463080, Tempo, 652173
1, 463200, Tempo, 600000
1, 464100, Tempo, 612244
1, 464160, Tempo, 600000
1, 465080, Tempo, 612244
1, 465120, Tempo, 600000
1, 467000, Tempo, 612244
1, 467040, Tempo, 600000
1, 468920, Tempo, 612244
1, 468960, Tempo, 600000
1, 471800, Tempo, 612244
1, 472760, Tempo, 625000
1, 473040, Tempo, 689655
1, 473280, Tempo, 625000
1, 476600, Tempo, 638297
1, 477000, Tempo, 652173
1, 477120, Tempo, 612244
1, 478980, Tempo, 625000
1, 480390, Tempo, 638297
1, 480480, Tempo, 600000
1, 484200, Tempo, 612244
1, 485240, Tempo, 821917
1, 485280, Tempo, 625000
1, 485400, Tempo, 612244
1, 487020, Tempo, 625000
1, 487080, Tempo, 638297
1, 487160, Tempo, 769230
1, 487200, Tempo, 600000
1, 489120, Tempo, 600000
1, 490980, Tempo, 612244
1, 491040, Tempo, 600000
1, 492900, Tempo, 612244
1, 492960, Tempo, 600000
1, 493860, Tempo, 612244
1, 494750, Tempo, 638297
1, 494880, Tempo, 600000
1, 498680, Tempo, 612244
1, 498720, Tempo, 600000
1, 499620, Tempo, 612244
1, 499680, Tempo, 600000
1, 500580, Tempo, 612244
1, 501560, Tempo, 625000
1, 505400, Tempo, 638297
1, 505440, Tempo, 600000
1, 506360, Tempo, 612244
1, 506400, Tempo, 600000
1, 507320, Tempo, 612244
1, 507360, Tempo, 600000
1, 508280, Tempo, 612244
1, 508320, Tempo, 600000
1, 509240, Tempo, 612244
1, 509280, Tempo, 600000
1, 512120, Tempo, 612244
1, 512160, Tempo, 600000
1, 513080, Tempo, 612244
1, 513120, Tempo, 612244
1, 514040, Tempo, 625000
1, 514080, Tempo, 612244
1, 515000, Tempo, 638297
1, 515500, Tempo, 659340
1, 516000, Tempo, 600000
1, 517880, Tempo, 625000
1, 517920, Tempo, 600000
1, 519800, Tempo, 625000
1, 519840, Tempo, 600000
1, 521700, Tempo, 612244
1, 521760, Tempo, 600000
1, 523640, Tempo, 625000
1, 523680, Tempo, 612244
1, 528440, Tempo, 638297
1, 528480, Tempo, 600000
1, 529400, Tempo, 612244
1, 529440, Tempo, 600000
1, 530360, Tempo, 612244
1, 530400, Tempo, 600000
1, 531320, Tempo, 612244
1, 531360, Tempo, 600000
1, 532280, Tempo, 612244
1, 532320, Tempo, 600000
1, 534200, Tempo, 612244
1, 534240, Tempo, 612244
1, 535160, Tempo, 625000
1, 535200, Tempo, 612244
1, 536120, Tempo, 638297
1, 536650, Tempo, 659340
1, 537120, Tempo, 612244
1, 539000, Tempo, 638297
1, 539040, Tempo, 612244
1, 540920, Tempo, 638297
1, 540960, Tempo, 612244
1, 541860, Tempo, 625000
1, 541920, Tempo, 612244
1, 542820, Tempo, 625000
1, 542880, Tempo, 612244
1, 543810, Tempo, 625000
1, 543840, Tempo, 612244
1, 544760, Tempo, 652173
1, 544800, Tempo, 612244
1, 549540, Tempo, 625000
1, 550440, Tempo, 674157
1, 550560, Tempo, 600000
1, 551460, Tempo, 612244
1, 551520, Tempo, 600000
1, 552440, Tempo, 625000
1, 552480, Tempo, 600000
1, 554360, Tempo, 612244
1, 554400, Tempo, 600000
1, 556280, Tempo, 612244
1, 556320, Tempo, 600000
1, 559160, Tempo, 612244
1, 559200, Tempo, 600000
1, 560120, Tempo, 612244
1, 560400, Tempo, 659340
1, 560640, Tempo, 625000
1, 563960, Tempo, 638297
1, 564345, Tempo, 652173
1, 564480, Tempo, 612244
1, 566340, Tempo, 625000
1, 567720, Tempo, 652173
1, 567840, Tempo, 600000
1, 570680, Tempo, 612244
1, 570720, Tempo, 600000
1, 571680, Tempo, 600000
1, 572600, Tempo, 612244
1, 572640, Tempo, 600000
1, 573560, Tempo, 612244
1, 573600, Tempo, 600000
1, 575480, Tempo, 612244
1, 575520, Tempo, 600000
1, 577400, Tempo, 612244
1, 579320, Tempo, 750000
1, 579360, Tempo, 612244
1, 581100, Tempo, 625000
1, 581160, Tempo, 638297
1, 581240, Tempo, 722891
1, 581280, Tempo, 600000
1, 585060, Tempo, 612244
1, 585120, Tempo, 600000
1, 586980, Tempo, 612244
1, 587040, Tempo, 600000
1, 587940, Tempo, 612244
1, 588832, Tempo, 638297
1, 588960, Tempo, 600000
1, 592760, Tempo, 612244
1, 592800, Tempo, 600000
1, 593700, Tempo, 612244
1, 593760, Tempo, 600000
1, 594660, Tempo, 612244
1, 595640, Tempo, 625000
1, 595680, Tempo, 600000
1, 597540, Tempo, 612244
1, 598520, Tempo, 638297
1, 598560, Tempo, 600000
1, 600420, Tempo, 612244
1, 601400, Tempo, 652173
1, 601440, Tempo, 600000
1, 603307, Tempo, 612244
1, 603360, Tempo, 600000
1, 605240, Tempo, 625000
1, 605280, Tempo, 674157
1, 605760, Tempo, 731707
1, 606240, Tempo, 625000
1, 606240, End_track
2, 0, Start_track
2, 0, Title_t, "No Name"
2, 0, Control_c, 0, 0, 0
2, 0, Control_c, 0, 32, 0
2, 0, Program_c, 0, 0
2, 0, Control_c, 0, 7, 127
2, 0, Pitch_bend_c, 0, 8192
2, 0, Control_c, 0, 1, 0
2, 0, Control_c, 0, 64, 0
2, 0, Control_c, 0, 93, 18
2, 0, Control_c, 0, 91, 80
2, 0, Control_c, 0, 10, 73
2, 1200, Note_on_c, 0, 57, 81
2, 1356, Note_off_c, 0, 57, 0
2, 1440, Note_on_c, 0, 62, 79
2, 1596, Note_off_c, 0, 62, 0
2, 1680, Note_on_c, 0, 57, 78
2, 1836, Note_off_c, 0, 57, 0
2, 1920, Note_on_c, 0, 62, 77
2, 2076, Note_off_c, 0, 62, 0
2, 2160, Note_on_c, 0, 66, 76
2, 2316, Note_off_c, 0, 66, 0
2, 2400, Note_on_c, 0, 62, 75
2, 2556, Note_off_c, 0, 62, 0
2, 2640, Note_on_c, 0, 66, 75
2, 2796, Note_off_c, 0, 66, 0
2, 2880, Note_on_c, 0, 69, 75
2, 3240, Note_off_c, 0, 69, 0
2, 3360, Note_on_c, 0, 69, 70
2, 3516, Note_off_c, 0, 69, 0
2, 3600, Note_on_c, 0, 69, 67
2, 3960, Note_off_c, 0, 69, 0
2, 4080, Note_on_c, 0, 73, 61
2, 4120, Note_off_c, 0, 73, 0
2, 4120, Note_on_c, 0, 74, 62
2, 4160, Note_off_c, 0, 74, 0
2, 4160, Note_on_c, 0, 73, 64
2, 4200, Note_off_c, 0, 73, 0
2, 4200, Note_on_c, 0, 71, 65
2, 4260, Note_off_c, 0, 71, 0
2, 4260, Note_on_c, 0, 73, 67
2, 4320, Note_off_c, 0, 73, 0
2, 4320, Note_on_c, 0, 74, 68
2, 4560, Note_off_c, 0, 74, 0
2, 4800, Note_on_c, 0, 76, 59
2, 4840, Note_off_c, 0, 76, 0
2, 4840, Note_on_c, 0, 78, 60
2, 4880, Note_off_c, 0, 78, 0
2, 4880, Note_on_c, 0, 76, 61
2, 4920, Note_off_c, 0, 76, 0
2, 4920, Note_on_c, 0, 74, 62
2, 4980, Note_off_c, 0, 74, 0
2, 4980, Note_on_c, 0, 76, 64
2, 5040, Note_off_c, 0, 76, 0
2, 5040, Note_on_c, 0, 78, 66
2, 5280, Note_off_c, 0, 78, 0
2, 5520, Note_on_c, 0, 81, 56
2, 5640, Note_off_c, 0, 81, 0
2, 5640, Note_on_c, 0, 79, 58
2, 5760, Note_off_c, 0, 79, 0
2, 5760, Note_on_c, 0, 78, 61
2, 6480, Note_off_c, 0, 78, 0
2, 6480, Note_on_c, 0, 76, 54
2, 6720, Note_off_c, 0, 76, 0
2, 6960, Note_on_c, 0, 59, 75
2, 7116, Note_off_c, 0, 59, 0
2, 7200, Note_on_c, 0, 64, 75
2, 7356, Note_off_c, 0, 64, 0
2, 7440, Note_on_c, 0, 59, 74
2, 7596, Note_off_c, 0, 59, 0
2, 7680, Note_on_c, 0, 64, 74
2, 7836, Note_off_c, 0, 64, 0
2, 7920, Note_on_c, 0, 67, 73
2, 8076, Note_off_c, 0, 67, 0
2, 8160, Note_on_c, 0, 64, 73
2, 8316, Note_off_c, 0, 64, 0
2, 8400, Note_on_c, 0, 67, 72
2, 8556, Note_off_c, 0, 67, 0
2, 8640, Note_on_c, 0, 71, 73
2, 9000, Note_off_c, 0, 71, 0
2, 9120, Note_on_c, 0, 71, 70
2, 9276, Note_off_c, 0, 71, 0
2, 9360, Note_on_c, 0, 71, 67
2, 9720, Note_off_c, 0, 71, 0
2, 9840, Note_on_c, 0, 75, 65
2, 10032, Note_off_c, 0, 75, 0
2, 10080, Note_on_c, 0, 78, 65
2, 10200, Note_off_c, 0, 78, 0
2, 10200, Note_on_c, 0, 76, 64
2, 10320, Note_off_c, 0, 76, 0
2, 10320, Note_on_c, 0, 79, 64
2, 10440, Note_off_c, 0, 79, 0
2, 10440, Note_on_c, 0, 78, 64
2, 10560, Note_off_c, 0, 78, 0
2, 10560, Note_on_c, 0, 81, 63
2, 10680, Note_off_c, 0, 81, 0
2, 10680, Note_on_c, 0, 79, 63
2, 10800, Note_off_c, 0, 79, 0
2, 10800, Note_on_c, 0, 83, 63
2, 11040, Note_off_c, 0, 83, 0
2, 11280, Note_on_c, 0, 73, 59
2, 11472, Note_off_c, 0, 73, 0
2, 11520, Note_on_c, 0, 76, 61
2, 12240, Note_off_c, 0, 76, 0
2, 12240, Note_on_c, 0, 74, 56
2, 12480, Note_off_c, 0, 74, 0
2, 13200, Note_on_c, 0, 74, 85
2, 13356, Note_off_c, 0, 74, 0
2, 13440, Note_on_c, 0, 78, 84
2, 13596, Note_off_c, 0, 78, 0
2, 13680, Note_on_c, 0, 81, 83
2, 13836, Note_off_c, 0, 81, 0
2, 13920, Note_on_c, 0, 78, 82
2, 14076, Note_off_c, 0, 78, 0
2, 14160, Note_on_c, 0, 86, 81
2, 14316, Note_off_c, 0, 86, 0
2, 14520, Note_on_c, 0, 85, 79
2, 14616, Note_off_c, 0, 85, 0
2, 14640, Note_on_c, 0, 88, 79
2, 14736, Note_off_c, 0, 88, 0
2, 14760, Note_on_c, 0, 86, 78
2, 14856, Note_off_c, 0, 86, 0
2, 14880, Note_on_c, 0, 85, 78
2, 14976, Note_off_c, 0, 85, 0
2, 15000, Note_on_c, 0, 83, 77
2, 15096, Note_off_c, 0, 83, 0
2, 15120, Note_on_c, 0, 81, 77
2, 15216, Note_off_c, 0, 81, 0
2, 15240, Note_on_c, 0, 83, 76
2, 15336, Note_off_c, 0, 83, 0
2, 15360, Note_on_c, 0, 81, 76
2, 15456, Note_off_c, 0, 81, 0
2, 15480, Note_on_c, 0, 79, 75
2, 15576, Note_off_c, 0, 79, 0
2, 15600, Note_on_c, 0, 78, 75
2, 15696, Note_off_c, 0, 78, 0
2, 15720, Note_on_c, 0, 76, 75
2, 15816, Note_off_c, 0, 76, 0
2, 15840, Note_on_c, 0, 78, 74
2, 15936, Note_off_c, 0, 78, 0
2, 15960, Note_on_c, 0, 81, 74
2, 16056, Note_off_c, 0, 81, 0
2, 16080, Note_on_c, 0, 78, 73
2, 16176, Note_off_c, 0, 78, 0
2, 16200, Note_on_c, 0, 74, 73
2, 16296, Note_off_c, 0, 74, 0
2, 16320, Note_on_c, 0, 73, 72
2, 16416, Note_off_c, 0, 73, 0
2, 16440, Note_on_c, 0, 69, 72
2, 16536, Note_off_c, 0, 69, 0
2, 16560, Note_on_c, 0, 74, 71
2, 16656, Note_off_c, 0, 74, 0
2, 16680, Note_on_c, 0, 73, 71
2, 16776, Note_off_c, 0, 73, 0
2, 16800, Note_on_c, 0, 74, 70
2, 16896, Note_off_c, 0, 74, 0
2, 16920, Note_on_c, 0, 78, 71
2, 17016, Note_off_c, 0, 78, 0
2, 17040, Note_on_c, 0, 76, 70
2, 17136, Note_off_c, 0, 76, 0
2, 17160, Note_on_c, 0, 79, 68
2, 17256, Note_off_c, 0, 79, 0
2, 17280, Note_on_c, 0, 74, 66
2, 18000, Note_off_c, 0, 74, 0
2, 18000, Note_on_c, 0, 73, 62
2, 18240, Note_off_c, 0, 73, 0
2, 18960, Note_on_c, 0, 76, 83
2, 19116, Note_off_c, 0, 76, 0
2, 19200, Note_on_c, 0, 79, 82
2, 19356, Note_off_c, 0, 79, 0
2, 19440, Note_on_c, 0, 83, 82
2, 19596, Note_off_c, 0, 83, 0
2, 19680, Note_on_c, 0, 79, 81
2, 19836, Note_off_c, 0, 79, 0
2, 19920, Note_on_c, 0, 88, 81
2, 20076, Note_off_c, 0, 88, 0
2, 20280, Note_on_c, 0, 87, 80
2, 20376, Note_off_c, 0, 87, 0
2, 20400, Note_on_c, 0, 84, 79
2, 20496, Note_off_c, 0, 84, 0
2, 20520, Note_on_c, 0, 83, 79
2, 20616, Note_off_c, 0, 83, 0
2, 20640, Note_on_c, 0, 81, 79
2, 20736, Note_off_c, 0, 81, 0
2, 20760, Note_on_c, 0, 79, 78
2, 20856, Note_off_c, 0, 79, 0
2, 20880, Note_on_c, 0, 78, 78
2, 20976, Note_off_c, 0, 78, 0
2, 21000, Note_on_c, 0, 76, 78
2, 21096, Note_off_c, 0, 76, 0
2, 21120, Note_on_c, 0, 75, 77
2, 21216, Note_off_c, 0, 75, 0
2, 21240, Note_on_c, 0, 72, 77
2, 21336, Note_off_c, 0, 72, 0
2, 21360, Note_on_c, 0, 71, 77
2, 21456, Note_off_c, 0, 71, 0
2, 21480, Note_on_c, 0, 69, 77
2, 21576, Note_off_c, 0, 69, 0
2, 21600, Note_on_c, 0, 67, 76
2, 21696, Note_off_c, 0, 67, 0
2, 21720, Note_on_c, 0, 71, 76
2, 21816, Note_off_c, 0, 71, 0
2, 21840, Note_on_c, 0, 76, 76
2, 21936, Note_off_c, 0, 76, 0
2, 21960, Note_on_c, 0, 71, 75
2, 22056, Note_off_c, 0, 71, 0
2, 22080, Note_on_c, 0, 79, 75
2, 22176, Note_off_c, 0, 79, 0
2, 22200, Note_on_c, 0, 76, 75
2, 22296, Note_off_c, 0, 76, 0
2, 22320, Note_on_c, 0, 83, 74
2, 22512, Note_off_c, 0, 83, 0
2, 22560, Note_on_c, 0, 71, 74
2, 22752, Note_off_c, 0, 71, 0
2, 22800, Note_on_c, 0, 73, 73
2, 22992, Note_off_c, 0, 73, 0
2, 23040, Note_on_c, 0, 74, 72
2, 23520, Note_off_c, 0, 74, 0
2, 24000, Note_on_c, 0, 86, 77
2, 24120, Note_off_c, 0, 86, 0
2, 24120, Note_on_c, 0, 85, 76
2, 24240, Note_off_c, 0, 85, 0
2, 24240, Note_on_c, 0, 83, 76
2, 24360, Note_off_c, 0, 83, 0
2, 24360, Note_on_c, 0, 81, 75
2, 24480, Note_off_c, 0, 81, 0
2, 24480, Note_on_c, 0, 80, 75
2, 24600, Note_off_c, 0, 80, 0
2, 24600, Note_on_c, 0, 81, 74
2, 24720, Note_off_c, 0, 81, 0
2, 24720, Note_on_c, 0, 80, 74
2, 24840, Note_off_c, 0, 80, 0
2, 24840, Note_on_c, 0, 81, 73
2, 24960, Note_off_c, 0, 81, 0
2, 24960, Note_on_c, 0, 83, 73
2, 25080, Note_off_c, 0, 83, 0
2, 25080, Note_on_c, 0, 81, 72
2, 25200, Note_off_c, 0, 81, 0
2, 25440, Note_on_c, 0, 81, 71
2, 25560, Note_off_c, 0, 81, 0
2, 25560, Note_on_c, 0, 79, 70
2, 25680, Note_off_c, 0, 79, 0
2, 25680, Note_on_c, 0, 78, 70
2, 25800, Note_off_c, 0, 78, 0
2, 25800, Note_on_c, 0, 76, 69
2, 25920, Note_off_c, 0, 76, 0
2, 25920, Note_on_c, 0, 73, 69
2, 26040, Note_off_c, 0, 73, 0
2, 26040, Note_on_c, 0, 74, 68
2, 26160, Note_off_c, 0, 74, 0
2, 26160, Note_on_c, 0, 73, 68
2, 26280, Note_off_c, 0, 73, 0
2, 26280, Note_on_c, 0, 74, 67
2, 26400, Note_off_c, 0, 74, 0
2, 26400, Note_on_c, 0, 76, 66
2, 26520, Note_off_c, 0, 76, 0
2, 26520, Note_on_c, 0, 74, 66
2, 26640, Note_off_c, 0, 74, 0
2, 26880, Note_on_c, 0, 86, 59
2, 27000, Note_off_c, 0, 86, 0
2, 27000, Note_on_c, 0, 85, 59
2, 27120, Note_off_c, 0, 85, 0
2, 27120, Note_on_c, 0, 83, 58
2, 27240, Note_off_c, 0, 83, 0
2, 27240, Note_on_c, 0, 81, 58
2, 27360, Note_off_c, 0, 81, 0
2, 27360, Note_on_c, 0, 80, 58
2, 27480, Note_off_c, 0, 80, 0
2, 27480, Note_on_c, 0, 81, 57
2, 27600, Note_off_c, 0, 81, 0
2, 27600, Note_on_c, 0, 80, 57
2, 27720, Note_off_c, 0, 80, 0
2, 27720, Note_on_c, 0, 81, 57
2, 27840, Note_off_c, 0, 81, 0
2, 27840, Note_on_c, 0, 83, 56
2, 27960, Note_off_c, 0, 83, 0
2, 27960, Note_on_c, 0, 81, 56
2, 28080, Note_off_c, 0, 81, 0
2, 28320, Note_on_c, 0, 81, 55
2, 28440, Note_off_c, 0, 81, 0
2, 28440, Note_on_c, 0, 79, 55
2, 28560, Note_off_c, 0, 79, 0
2, 28560, Note_on_c, 0, 78, 54
2, 28680, Note_off_c, 0, 78, 0
2, 28680, Note_on_c, 0, 76, 54
2, 28800, Note_off_c, 0, 76, 0
2, 28800, Note_on_c, 0, 73, 54
2, 28896, Note_off_c, 0, 73, 0
2, 28920, Note_on_c, 0, 74, 55
2, 29016, Note_off_c, 0, 74, 0
2, 29040, Note_on_c, 0, 73, 57
2, 29136, Note_off_c, 0, 73, 0
2, 29160, Note_on_c, 0, 74, 59
2, 29256, Note_off_c, 0, 74, 0
2, 29280, Note_on_c, 0, 79, 60
2, 29376, Note_off_c, 0, 79, 0
2, 29400, Note_on_c, 0, 78, 62
2, 29496, Note_off_c, 0, 78, 0
2, 29520, Note_on_c, 0, 75, 64
2, 29616, Note_off_c, 0, 75, 0
2, 29640, Note_on_c, 0, 76, 65
2, 29736, Note_off_c, 0, 76, 0
2, 29760, Note_on_c, 0, 75, 67
2, 29856, Note_off_c, 0, 75, 0
2, 29880, Note_on_c, 0, 76, 69
2, 29976, Note_off_c, 0, 76, 0
2, 30000, Note_on_c, 0, 81, 70
2, 30096, Note_off_c, 0, 81, 0
2, 30120, Note_on_c, 0, 79, 72
2, 30216, Note_off_c, 0, 79, 0
2, 30240, Note_on_c, 0, 77, 74
2, 30336, Note_off_c, 0, 77, 0
2, 30360, Note_on_c, 0, 78, 75
2, 30456, Note_off_c, 0, 78, 0
2, 30480, Note_on_c, 0, 77, 77
2, 30576, Note_off_c, 0, 77, 0
2, 30600, Note_on_c, 0, 78, 78
2, 30696, Note_off_c, 0, 78, 0
2, 30720, Note_on_c, 0, 83, 80
2, 30816, Note_off_c, 0, 83, 0
2, 30840, Note_on_c, 0, 81, 80
2, 30936, Note_off_c, 0, 81, 0
2, 30960, Note_on_c, 0, 81, 78
2, 31056, Note_off_c, 0, 81, 0
2, 31080, Note_on_c, 0, 79, 75
2, 31176, Note_off_c, 0, 79, 0
2, 31200, Note_on_c, 0, 78, 73
2, 31296, Note_off_c, 0, 78, 0
2, 31320, Note_on_c, 0, 76, 70
2, 31416, Note_off_c, 0, 76, 0
2, 31440, Note_on_c, 0, 74, 67
2, 31536, Note_off_c, 0, 74, 0
2, 31560, Note_on_c, 0, 73, 65
2, 31656, Note_off_c, 0, 73, 0
2, 31680, Note_on_c, 0, 73, 62
2, 31776, Note_off_c, 0, 73, 0
2, 31800, Note_on_c, 0, 74, 58
2, 31896, Note_off_c, 0, 74, 0
2, 31920, Note_on_c, 0, 73, 58
2, 32016, Note_off_c, 0, 73, 0
2, 32040, Note_on_c, 0, 74, 59
2, 32136, Note_off_c, 0, 74, 0
2, 32160, Note_on_c, 0, 79, 60
2, 32256, Note_off_c, 0, 79, 0
2, 32280, Note_on_c, 0, 78, 60
2, 32376, Note_off_c, 0, 78, 0
2, 32400, Note_on_c, 0, 75, 61
2, 32496, Note_off_c, 0, 75, 0
2, 32520, Note_on_c, 0, 76, 62
2, 32616, Note_off_c, 0, 76, 0
2, 32640, Note_on_c, 0, 75, 63
2, 32736, Note_off_c, 0, 75, 0
2, 32760, Note_on_c, 0, 76, 63
2, 32856, Note_off_c, 0, 76, 0
2, 32880, Note_on_c, 0, 81, 64
2, 32976, Note_off_c, 0, 81, 0
2, 33000, Note_on_c, 0, 79, 65
2, 33096, Note_off_c, 0, 79, 0
2, 33120, Note_on_c, 0, 77, 66
2, 33216, Note_off_c, 0, 77, 0
2, 33240, Note_on_c, 0, 78, 66
2, 33336, Note_off_c, 0, 78, 0
2, 33360, Note_on_c, 0, 77, 67
2, 33456, Note_off_c, 0, 77, 0
2, 33480, Note_on_c, 0, 78, 68
2, 33576, Note_off_c, 0, 78, 0
2, 33600, Note_on_c, 0, 83, 69
2, 33696, Note_off_c, 0, 83, 0
2, 33720, Note_on_c, 0, 81, 67
2, 33816, Note_off_c, 0, 81, 0
2, 33840, Note_on_c, 0, 81, 66
2, 33936, Note_off_c, 0, 81, 0
2, 33960, Note_on_c, 0, 79, 64
2, 34056, Note_off_c, 0, 79, 0
2, 34080, Note_on_c, 0, 78, 63
2, 34176, Note_off_c, 0, 78, 0
2, 34200, Note_on_c, 0, 76, 61
2, 34296, Note_off_c, 0, 76, 0
2, 34320, Note_on_c, 0, 74, 60
2, 34416, Note_off_c, 0, 74, 0
2, 34440, Note_on_c, 0, 73, 58
2, 34536, Note_off_c, 0, 73, 0
2, 34680, Note_on_c, 0, 74, 63
2, 34776, Note_off_c, 0, 74, 0
2, 34800, Note_on_c, 0, 78, 65
2, 34896, Note_off_c, 0, 78, 0
2, 34920, Note_on_c, 0, 81, 66
2, 35016, Note_off_c, 0, 81, 0
2, 35040, Note_on_c, 0, 86, 68
2, 35136, Note_off_c, 0, 86, 0
2, 35160, Note_on_c, 0, 85, 69
2, 35256, Note_off_c, 0, 85, 0
2, 35400, Note_on_c, 0, 71, 72
2, 35496, Note_off_c, 0, 71, 0
2, 35520, Note_on_c, 0, 74, 73
2, 35616, Note_off_c, 0, 74, 0
2, 35640, Note_on_c, 0, 78, 74
2, 35736, Note_off_c, 0, 78, 0
2, 35760, Note_on_c, 0, 83, 76
2, 35856, Note_off_c, 0, 83, 0
2, 35880, Note_on_c, 0, 81, 77
2, 35976, Note_off_c, 0, 81, 0
2, 36120, Note_on_c, 0, 67, 80
2, 36216, Note_off_c, 0, 67, 0
2, 36240, Note_on_c, 0, 71, 81
2, 36336, Note_off_c, 0, 71, 0
2, 36360, Note_on_c, 0, 74, 83
2, 36456, Note_off_c, 0, 74, 0
2, 36480, Note_on_c, 0, 79, 84
2, 36576, Note_off_c, 0, 79, 0
2, 36600, Note_on_c, 0, 78, 85
2, 36696, Note_off_c, 0, 78, 0
2, 36840, Note_on_c, 0, 64, 88
2, 36936, Note_off_c, 0, 64, 0
2, 36960, Note_on_c, 0, 67, 89
2, 37056, Note_off_c, 0, 67, 0
2, 37080, Note_on_c, 0, 71, 91
2, 37176, Note_off_c, 0, 71, 0
2, 37200, Note_on_c, 0, 76, 92
2, 37296, Note_off_c, 0, 76, 0
2, 37320, Note_on_c, 0, 74, 94
2, 37416, Note_off_c, 0, 74, 0
2, 37440, Note_on_c, 0, 73, 97
2, 37632, Note_off_c, 0, 73, 0
2, 37680, Note_on_c, 0, 81, 97
2, 37872, Note_off_c, 0, 81, 0
2, 37920, Note_on_c, 0, 78, 97
2, 38112, Note_off_c, 0, 78, 0
2, 38160, Note_on_c, 0, 76, 97
2, 38352, Note_off_c, 0, 76, 0
2, 38400, Note_on_c, 0, 81, 97
2, 38592, Note_off_c, 0, 81, 0
2, 38640, Note_on_c, 0, 78, 96
2, 38832, Note_off_c, 0, 78, 0
2, 38880, Note_on_c, 0, 76, 96
2, 39072, Note_off_c, 0, 76, 0
2, 39120, Note_on_c, 0, 81, 96
2, 39312, Note_off_c, 0, 81, 0
2, 39360, Note_on_c, 0, 69, 96
2, 39552, Note_off_c, 0, 69, 0
2, 39600, Note_on_c, 0, 69, 96
2, 39960, Note_off_c, 0, 69, 0
2, 40080, Note_on_c, 0, 76, 101
2, 40236, Note_off_c, 0, 76, 0
2, 40320, Note_on_c, 0, 81, 99
2, 40476, Note_off_c, 0, 81, 0
2, 40560, Note_on_c, 0, 76, 98
2, 40716, Note_off_c, 0, 76, 0
2, 40800, Note_on_c, 0, 81, 96
2, 40956, Note_off_c, 0, 81, 0
2, 41040, Note_on_c, 0, 85, 94
2, 41196, Note_off_c, 0, 85, 0
2, 41280, Note_on_c, 0, 81, 93
2, 41436, Note_off_c, 0, 81, 0
2, 41520, Note_on_c, 0, 85, 91
2, 41676, Note_off_c, 0, 85, 0
2, 41760, Note_on_c, 0, 88, 89
2, 41880, Note_off_c, 0, 88, 0
2, 41880, Note_on_c, 0, 86, 88
2, 42000, Note_off_c, 0, 86, 0
2, 42000, Note_on_c, 0, 85, 87
2, 42120, Note_off_c, 0, 85, 0
2, 42120, Note_on_c, 0, 83, 87
2, 42240, Note_off_c, 0, 83, 0
2, 42240, Note_on_c, 0, 82, 86
2, 42360, Note_off_c, 0, 82, 0
2, 42360, Note_on_c, 0, 80, 85
2, 42480, Note_off_c, 0, 80, 0
2, 42480, Note_on_c, 0, 78, 84
2, 42600, Note_off_c, 0, 78, 0
2, 42600, Note_on_c, 0, 76, 83
2, 42720, Note_off_c, 0, 76, 0
2, 42720, Note_on_c, 0, 74, 82
2, 42840, Note_off_c, 0, 74, 0
2, 42840, Note_on_c, 0, 73, 82
2, 42960, Note_off_c, 0, 73, 0
2, 42960, Note_on_c, 0, 71, 81
2, 43080, Note_off_c, 0, 71, 0
2, 43080, Note_on_c, 0, 70, 80
2, 43200, Note_off_c, 0, 70, 0
2, 43200, Note_on_c, 0, 71, 93
2, 43356, Note_off_c, 0, 71, 0
2, 43440, Note_on_c, 0, 66, 92
2, 43596, Note_off_c, 0, 66, 0
2, 43680, Note_on_c, 0, 71, 90
2, 43836, Note_off_c, 0, 71, 0
2, 43920, Note_on_c, 0, 74, 88
2, 44076, Note_off_c, 0, 74, 0
2, 44160, Note_on_c, 0, 71, 87
2, 44316, Note_off_c, 0, 71, 0
2, 44400, Note_on_c, 0, 74, 85
2, 44556, Note_off_c, 0, 74, 0
2, 44640, Note_on_c, 0, 78, 83
2, 44760, Note_off_c, 0, 78, 0
2, 44760, Note_on_c, 0, 76, 82
2, 44880, Note_off_c, 0, 76, 0
2, 44880, Note_on_c, 0, 74, 81
2, 45000, Note_off_c, 0, 74, 0
2, 45000, Note_on_c, 0, 73, 81
2, 45120, Note_off_c, 0, 73, 0
2, 45120, Note_on_c, 0, 71, 80
2, 45240, Note_off_c, 0, 71, 0
2, 45240, Note_on_c, 0, 70, 79
2, 45360, Note_off_c, 0, 70, 0
2, 45360, Note_on_c, 0, 74, 78
2, 45480, Note_off_c, 0, 74, 0
2, 45480, Note_on_c, 0, 73, 77
2, 45600, Note_off_c, 0, 73, 0
2, 45600, Note_on_c, 0, 71, 76
2, 45720, Note_off_c, 0, 71, 0
2, 45720, Note_on_c, 0, 69, 76
2, 45840, Note_off_c, 0, 69, 0
2, 45840, Note_on_c, 0, 68, 75
2, 45960, Note_off_c, 0, 68, 0
2, 45960, Note_on_c, 0, 66, 74
2, 46080, Note_off_c, 0, 66, 0
2, 46080, Note_on_c, 0, 64, 89
2, 46236, Note_off_c, 0, 64, 0
2, 46320, Note_on_c, 0, 59, 88
2, 46476, Note_off_c, 0, 59, 0
2, 46560, Note_on_c, 0, 64, 87
2, 46716, Note_off_c, 0, 64, 0
2, 46800, Note_on_c, 0, 68, 85
2, 46956, Note_off_c, 0, 68, 0
2, 47040, Note_on_c, 0, 64, 84
2, 47196, Note_off_c, 0, 64, 0
2, 47280, Note_on_c, 0, 68, 83
2, 47436, Note_off_c, 0, 68, 0
2, 47520, Note_on_c, 0, 71, 81
2, 47640, Note_off_c, 0, 71, 0
2, 47640, Note_on_c, 0, 73, 81
2, 47760, Note_off_c, 0, 73, 0
2, 47760, Note_on_c, 0, 74, 80
2, 47880, Note_off_c, 0, 74, 0
2, 47880, Note_on_c, 0, 73, 80
2, 48000, Note_off_c, 0, 73, 0
2, 48000, Note_on_c, 0, 71, 79
2, 48120, Note_off_c, 0, 71, 0
2, 48120, Note_on_c, 0, 69, 78
2, 48240, Note_off_c, 0, 69, 0
2, 48240, Note_on_c, 0, 68, 78
2, 48360, Note_off_c, 0, 68, 0
2, 48360, Note_on_c, 0, 66, 77
2, 48480, Note_off_c, 0, 66, 0
2, 48480, Note_on_c, 0, 64, 76
2, 48600, Note_off_c, 0, 64, 0
2, 48600, Note_on_c, 0, 66, 76
2, 48720, Note_off_c, 0, 66, 0
2, 48720, Note_on_c, 0, 62, 75
2, 48840, Note_off_c, 0, 62, 0
2, 48840, Note_on_c, 0, 64, 74
2, 48960, Note_off_c, 0, 64, 0
2, 48960, Note_on_c, 0, 61, 74
2, 49080, Note_off_c, 0, 61, 0
2, 49080, Note_on_c, 0, 64, 75
2, 49200, Note_off_c, 0, 64, 0
2, 49200, Note_on_c, 0, 63, 75
2, 49320, Note_off_c, 0, 63, 0
2, 49320, Note_on_c, 0, 64, 76
2, 49440, Note_off_c, 0, 64, 0
2, 49440, Note_on_c, 0, 66, 77
2, 49560, Note_off_c, 0, 66, 0
2, 49560, Note_on_c, 0, 64, 78
2, 49680, Note_off_c, 0, 64, 0
2, 49680, Note_on_c, 0, 69, 79
2, 49800, Note_off_c, 0, 69, 0
2, 49800, Note_on_c, 0, 64, 80
2, 49920, Note_off_c, 0, 64, 0
2, 49920, Note_on_c, 0, 63, 81
2, 50040, Note_off_c, 0, 63, 0
2, 50040, Note_on_c, 0, 64, 81
2, 50160, Note_off_c, 0, 64, 0
2, 50160, Note_on_c, 0, 66, 82
2, 50280, Note_off_c, 0, 66, 0
2, 50280, Note_on_c, 0, 64, 83
2, 50400, Note_off_c, 0, 64, 0
2, 50400, Note_on_c, 0, 59, 86
2, 50520, Note_off_c, 0, 59, 0
2, 50520, Note_on_c, 0, 64, 85
2, 50640, Note_off_c, 0, 64, 0
2, 50640, Note_on_c, 0, 63, 84
2, 50760, Note_off_c, 0, 63, 0
2, 50760, Note_on_c, 0, 64, 83
2, 50880, Note_off_c, 0, 64, 0
2, 50880, Note_on_c, 0, 61, 82
2, 51000, Note_off_c, 0, 61, 0
2, 51000, Note_on_c, 0, 64, 81
2, 51120, Note_off_c, 0, 64, 0
2, 51120, Note_on_c, 0, 62, 80
2, 51240, Note_off_c, 0, 62, 0
2, 51240, Note_on_c, 0, 64, 79
2, 51360, Note_off_c, 0, 64, 0
2, 51360, Note_on_c, 0, 61, 78
2, 51480, Note_off_c, 0, 61, 0
2, 51480, Note_on_c, 0, 64, 77
2, 51600, Note_off_c, 0, 64, 0
2, 51600, Note_on_c, 0, 59, 76
2, 51720, Note_off_c, 0, 59, 0
2, 51720, Note_on_c, 0, 64, 75
2, 51840, Note_off_c, 0, 64, 0
2, 51840, Note_on_c, 0, 61, 60
2, 51960, Note_off_c, 0, 61, 0
2, 51960, Note_on_c, 0, 64, 61
2, 52080, Note_off_c, 0, 64, 0
2, 52080, Note_on_c, 0, 63, 61
2, 52200, Note_off_c, 0, 63, 0
2, 52200, Note_on_c, 0, 64, 62
2, 52320, Note_off_c, 0, 64, 0
2, 52320, Note_on_c, 0, 66, 63
2, 52440, Note_off_c, 0, 66, 0
2, 52440, Note_on_c, 0, 64, 64
2, 52560, Note_off_c, 0, 64, 0
2, 52560, Note_on_c, 0, 69, 64
2, 52680, Note_off_c, 0, 69, 0
2, 52680, Note_on_c, 0, 64, 65
2, 52800, Note_off_c, 0, 64, 0
2, 52800, Note_on_c, 0, 63, 66
2, 52920, Note_off_c, 0, 63, 0
2, 52920, Note_on_c, 0, 64, 67
2, 53040, Note_off_c, 0, 64, 0
2, 53040, Note_on_c, 0, 66, 67
2, 53160, Note_off_c, 0, 66, 0
2, 53160, Note_on_c, 0, 64, 68
2, 53280, Note_off_c, 0, 64, 0
2, 53280, Note_on_c, 0, 59, 69
2, 53400, Note_off_c, 0, 59, 0
2, 53400, Note_on_c, 0, 64, 70
2, 53520, Note_off_c, 0, 64, 0
2, 53520, Note_on_c, 0, 63, 73
2, 53640, Note_off_c, 0, 63, 0
2, 53640, Note_on_c, 0, 64, 71
2, 53760, Note_off_c, 0, 64, 0
2, 53760, Note_on_c, 0, 61, 69
2, 53880, Note_off_c, 0, 61, 0
2, 53880, Note_on_c, 0, 64, 68
2, 54000, Note_off_c, 0, 64, 0
2, 54000, Note_on_c, 0, 62, 66
2, 54120, Note_off_c, 0, 62, 0
2, 54120, Note_on_c, 0, 64, 64
2, 54240, Note_off_c, 0, 64, 0
2, 54240, Note_on_c, 0, 61, 63
2, 54360, Note_off_c, 0, 61, 0
2, 54360, Note_on_c, 0, 64, 61
2, 54480, Note_off_c, 0, 64, 0
2, 54480, Note_on_c, 0, 59, 59
2, 54600, Note_off_c, 0, 59, 0
2, 54600, Note_on_c, 0, 64, 58
2, 54720, Note_off_c, 0, 64, 0
2, 54840, Note_on_c, 0, 61, 63
2, 54960, Note_off_c, 0, 61, 0
2, 54960, Note_on_c, 0, 64, 64
2, 55080, Note_off_c, 0, 64, 0
2, 55080, Note_on_c, 0, 69, 65
2, 55200, Note_off_c, 0, 69, 0
2, 55200, Note_on_c, 0, 73, 67
2, 55320, Note_off_c, 0, 73, 0
2, 55320, Note_on_c, 0, 76, 68
2, 55440, Note_off_c, 0, 76, 0
2, 55440, Note_on_c, 0, 81, 70
2, 55560, Note_off_c, 0, 81, 0
2, 55560, Note_on_c, 0, 80, 71
2, 55680, Note_off_c, 0, 80, 0
2, 55680, Note_on_c, 0, 78, 72
2, 55800, Note_off_c, 0, 78, 0
2, 55800, Note_on_c, 0, 76, 74
2, 55920, Note_off_c, 0, 76, 0
2, 55920, Note_on_c, 0, 74, 75
2, 56040, Note_off_c, 0, 74, 0
2, 56040, Note_on_c, 0, 73, 77
2, 56160, Note_off_c, 0, 73, 0
2, 56280, Note_on_c, 0, 70, 79
2, 56400, Note_off_c, 0, 70, 0
2, 56400, Note_on_c, 0, 71, 81
2, 56520, Note_off_c, 0, 71, 0
2, 56520, Note_on_c, 0, 73, 82
2, 56640, Note_off_c, 0, 73, 0
2, 56640, Note_on_c, 0, 74, 84
2, 56760, Note_off_c, 0, 74, 0
2, 56760, Note_on_c, 0, 76, 85
2, 56880, Note_off_c, 0, 76, 0
2, 56880, Note_on_c, 0, 78, 86
2, 57000, Note_off_c, 0, 78, 0
2, 57000, Note_on_c, 0, 76, 88
2, 57120, Note_off_c, 0, 76, 0
2, 57120, Note_on_c, 0, 74, 89
2, 57240, Note_off_c, 0, 74, 0
2, 57240, Note_on_c, 0, 73, 91
2, 57360, Note_off_c, 0, 73, 0
2, 57360, Note_on_c, 0, 71, 88
2, 57480, Note_off_c, 0, 71, 0
2, 57480, Note_on_c, 0, 69, 89
2, 57600, Note_off_c, 0, 69, 0
2, 57600, Note_on_c, 0, 64, 87
2, 57720, Note_off_c, 0, 64, 0
2, 57720, Note_on_c, 0, 73, 87
2, 57840, Note_off_c, 0, 73, 0
2, 57840, Note_on_c, 0, 69, 87
2, 57960, Note_off_c, 0, 69, 0
2, 57960, Note_on_c, 0, 76, 87
2, 58080, Note_off_c, 0, 76, 0
2, 58080, Note_on_c, 0, 73, 87
2, 58200, Note_off_c, 0, 73, 0
2, 58200, Note_on_c, 0, 81, 87
2, 58320, Note_off_c, 0, 81, 0
2, 58320, Note_on_c, 0, 71, 87
2, 58400, Note_off_c, 0, 71, 0
2, 58400, Note_on_c, 0, 73, 87
2, 58480, Note_off_c, 0, 73, 0
2, 58480, Note_on_c, 0, 71, 87
2, 58560, Note_off_c, 0, 71, 0
2, 58560, Note_on_c, 0, 73, 87
2, 58640, Note_off_c, 0, 73, 0
2, 58640, Note_on_c, 0, 71, 87
2, 58720, Note_off_c, 0, 71, 0
2, 58720, Note_on_c, 0, 73, 86
2, 58800, Note_off_c, 0, 73, 0
2, 58800, Note_on_c, 0, 69, 86
2, 58920, Note_off_c, 0, 69, 0
2, 58920, Note_on_c, 0, 71, 86
2, 59040, Note_off_c, 0, 71, 0
2, 59040, Note_on_c, 0, 69, 86
2, 59196, Note_off_c, 0, 69, 0
2, 59280, Note_on_c, 0, 57, 87
2, 59437, Note_off_c, 0, 57, 0
2, 59520, Note_on_c, 0, 57, 85
2, 59677, Note_off_c, 0, 57, 0
2, 59760, Note_on_c, 0, 57, 82
2, 60000, Note_off_c, 0, 57, 0
2, 60240, Note_on_c, 0, 73, 61
2, 60480, Note_off_c, 0, 73, 0
2, 60480, Note_on_c, 0, 74, 63
2, 60960, Note_off_c, 0, 74, 0
2, 60960, Note_on_c, 0, 76, 67
2, 61200, Note_off_c, 0, 76, 0
2, 61200, Note_on_c, 0, 78, 73
2, 61440, Note_off_c, 0, 78, 0
2, 61440, Note_on_c, 0, 76, 73
2, 61560, Note_off_c, 0, 76, 0
2, 61560, Note_on_c, 0, 74, 72
2, 61680, Note_off_c, 0, 74, 0
2, 61680, Note_on_c, 0, 73, 72
2, 61800, Note_off_c, 0, 73, 0
2, 61800, Note_on_c, 0, 71, 71
2, 61920, Note_off_c, 0, 71, 0
2, 61920, Note_on_c, 0, 69, 71
2, 62640, Note_off_c, 0, 69, 0
2, 62640, Note_on_c, 0, 68, 65
2, 63000, Note_off_c, 0, 68, 0
2, 63120, Note_on_c, 0, 66, 64
2, 63312, Note_off_c, 0, 66, 0
2, 63360, Note_on_c, 0, 66, 65
2, 63600, Note_off_c, 0, 66, 0
2, 63600, Note_on_c, 0, 64, 65
2, 63792, Note_off_c, 0, 64, 0
2, 63840, Note_on_c, 0, 64, 64
2, 64032, Note_off_c, 0, 64, 0
2, 64080, Note_on_c, 0, 64, 63
2, 64320, Note_off_c, 0, 64, 0
2, 64320, Note_on_c, 0, 69, 62
2, 64512, Note_off_c, 0, 69, 0
2, 64560, Note_on_c, 0, 73, 59
2, 64752, Note_off_c, 0, 73, 0
2, 64800, Note_on_c, 0, 73, 60
2, 65280, Note_off_c, 0, 73, 0
2, 65280, Note_on_c, 0, 74, 58
2, 65520, Note_off_c, 0, 74, 0
2, 65520, Note_on_c, 0, 71, 58
2, 65760, Note_off_c, 0, 71, 0
2, 66000, Note_on_c, 0, 73, 56
2, 66240, Note_off_c, 0, 73, 0
2, 66240, Note_on_c, 0, 74, 61
2, 66480, Note_off_c, 0, 74, 0
2, 66480, Note_on_c, 0, 74, 63
2, 66600, Note_off_c, 0, 74, 0
2, 66600, Note_on_c, 0, 73, 64
2, 66720, Note_off_c, 0, 73, 0
2, 66720, Note_on_c, 0, 76, 65
2, 66840, Note_off_c, 0, 76, 0
2, 66840, Note_on_c, 0, 74, 66
2, 66960, Note_off_c, 0, 74, 0
2, 66960, Note_on_c, 0, 78, 68
2, 67080, Note_off_c, 0, 78, 0
2, 67080, Note_on_c, 0, 76, 69
2, 67200, Note_off_c, 0, 76, 0
2, 67200, Note_on_c, 0, 74, 68
2, 67320, Note_off_c, 0, 74, 0
2, 67320, Note_on_c, 0, 73, 67
2, 67440, Note_off_c, 0, 73, 0
2, 67440, Note_on_c, 0, 74, 65
2, 67560, Note_off_c, 0, 74, 0
2, 67560, Note_on_c, 0, 71, 64
2, 67680, Note_off_c, 0, 71, 0
2, 67680, Note_on_c, 0, 69, 63
2, 67800, Note_off_c, 0, 69, 0
2, 67800, Note_on_c, 0, 68, 62
2, 67920, Note_off_c, 0, 68, 0
2, 67920, Note_on_c, 0, 71, 60
2, 68040, Note_off_c, 0, 71, 0
2, 68040, Note_on_c, 0, 69, 61
2, 68160, Note_off_c, 0, 69, 0
2, 68160, Note_on_c, 0, 73, 62
2, 68280, Note_off_c, 0, 73, 0
2, 68280, Note_on_c, 0, 71, 62
2, 68400, Note_off_c, 0, 71, 0
2, 68400, Note_on_c, 0, 74, 62
2, 68520, Note_off_c, 0, 74, 0
2, 68520, Note_on_c, 0, 73, 63
2, 68640, Note_off_c, 0, 73, 0
2, 68640, Note_on_c, 0, 76, 63
2, 68760, Note_off_c, 0, 76, 0
2, 68760, Note_on_c, 0, 74, 63
2, 68880, Note_off_c, 0, 74, 0
2, 68880, Note_on_c, 0, 78, 64
2, 69000, Note_off_c, 0, 78, 0
2, 69000, Note_on_c, 0, 76, 64
2, 69120, Note_off_c, 0, 76, 0
2, 69120, Note_on_c, 0, 76, 64
2, 69240, Note_off_c, 0, 76, 0
2, 69240, Note_on_c, 0, 81, 65
2, 69360, Note_off_c, 0, 81, 0
2, 69360, Note_on_c, 0, 80, 66
2, 69480, Note_off_c, 0, 80, 0
2, 69480, Note_on_c, 0, 79, 68
2, 69600, Note_off_c, 0, 79, 0
2, 69600, Note_on_c, 0, 78, 70
2, 69720, Note_off_c, 0, 78, 0
2, 69720, Note_on_c, 0, 77, 71
2, 69840, Note_off_c, 0, 77, 0
2, 69840, Note_on_c, 0, 76, 73
2, 69960, Note_off_c, 0, 76, 0
2, 69960, Note_on_c, 0, 81, 74
2, 70080, Note_off_c, 0, 81, 0
2, 70080, Note_on_c, 0, 80, 76
2, 70200, Note_off_c, 0, 80, 0
2, 70200, Note_on_c, 0, 79, 77
2, 70320, Note_off_c, 0, 79, 0
2, 70320, Note_on_c, 0, 78, 79
2, 70440, Note_off_c, 0, 78, 0
2, 70440, Note_on_c, 0, 77, 80
2, 70560, Note_off_c, 0, 77, 0
2, 70560, Note_on_c, 0, 76, 82
2, 71280, Note_off_c, 0, 76, 0
2, 71280, Note_on_c, 0, 77, 88
2, 72000, Note_off_c, 0, 77, 0
2, 72000, Note_on_c, 0, 78, 78
2, 72240, Note_off_c, 0, 78, 0
2, 72480, Note_on_c, 0, 78, 77
2, 72600, Note_off_c, 0, 78, 0
2, 72600, Note_on_c, 0, 80, 76
2, 72720, Note_off_c, 0, 80, 0
2, 72720, Note_on_c, 0, 81, 76
2, 72840, Note_off_c, 0, 81, 0
2, 72840, Note_on_c, 0, 77, 75
2, 72960, Note_off_c, 0, 77, 0
2, 72960, Note_on_c, 0, 78, 75
2, 73080, Note_off_c, 0, 78, 0
2, 73080, Note_on_c, 0, 73, 74
2, 73200, Note_off_c, 0, 73, 0
2, 73200, Note_on_c, 0, 74, 73
2, 73320, Note_off_c, 0, 74, 0
2, 73320, Note_on_c, 0, 71, 73
2, 73440, Note_off_c, 0, 71, 0
2, 73440, Note_on_c, 0, 69, 72
2, 74880, Note_off_c, 0, 69, 0
2, 74880, Note_on_c, 0, 73, 65
2, 75600, Note_off_c, 0, 73, 0
2, 75600, Note_on_c, 0, 73, 63
2, 75720, Note_off_c, 0, 73, 0
2, 75720, Note_on_c, 0, 71, 62
2, 75840, Note_off_c, 0, 71, 0
2, 75840, Note_on_c, 0, 69, 61
2, 75960, Note_off_c, 0, 69, 0
2, 76080, Note_on_c, 0, 71, 58
2, 76200, Note_off_c, 0, 71, 0
2, 76320, Note_on_c, 0, 69, 56
2, 76560, Note_off_c, 0, 69, 0
2, 76800, Note_on_c, 0, 75, 81
2, 76920, Note_off_c, 0, 75, 0
2, 76920, Note_on_c, 0, 76, 80
2, 77040, Note_off_c, 0, 76, 0
2, 77040, Note_on_c, 0, 78, 80
2, 77160, Note_off_c, 0, 78, 0
2, 77160, Note_on_c, 0, 76, 79
2, 77280, Note_off_c, 0, 76, 0
2, 77280, Note_on_c, 0, 74, 79
2, 77400, Note_off_c, 0, 74, 0
2, 77400, Note_on_c, 0, 73, 78
2, 77520, Note_off_c, 0, 73, 0
2, 77520, Note_on_c, 0, 71, 77
2, 77640, Note_off_c, 0, 71, 0
2, 77640, Note_on_c, 0, 69, 77
2, 77760, Note_off_c, 0, 69, 0
2, 77760, Note_on_c, 0, 68, 76
2, 77880, Note_off_c, 0, 68, 0
2, 77880, Note_on_c, 0, 69, 75
2, 78000, Note_off_c, 0, 69, 0
2, 78000, Note_on_c, 0, 71, 75
2, 78120, Note_off_c, 0, 71, 0
2, 78120, Note_on_c, 0, 73, 74
2, 78240, Note_off_c, 0, 73, 0
2, 78240, Note_on_c, 0, 74, 73
2, 78360, Note_off_c, 0, 74, 0
2, 78360, Note_on_c, 0, 76, 73
2, 78480, Note_off_c, 0, 76, 0
2, 78480, Note_on_c, 0, 78, 72
2, 78600, Note_off_c, 0, 78, 0
2, 78600, Note_on_c, 0, 80, 71
2, 78720, Note_off_c, 0, 80, 0
2, 78720, Note_on_c, 0, 81, 71
2, 78840, Note_off_c, 0, 81, 0
2, 78840, Note_on_c, 0, 83, 70
2, 78960, Note_off_c, 0, 83, 0
2, 78960, Note_on_c, 0, 85, 70
2, 79080, Note_off_c, 0, 85, 0
2, 79080, Note_on_c, 0, 86, 69
2, 79200, Note_off_c, 0, 86, 0
2, 79200, Note_on_c, 0, 88, 67
2, 79440, Note_off_c, 0, 88, 0
2, 79680, Note_on_c, 0, 75, 65
2, 79800, Note_off_c, 0, 75, 0
2, 79800, Note_on_c, 0, 76, 65
2, 79920, Note_off_c, 0, 76, 0
2, 79920, Note_on_c, 0, 78, 64
2, 80040, Note_off_c, 0, 78, 0
2, 80040, Note_on_c, 0, 76, 64
2, 80160, Note_off_c, 0, 76, 0
2, 80160, Note_on_c, 0, 74, 64
2, 80280, Note_off_c, 0, 74, 0
2, 80280, Note_on_c, 0, 73, 63
2, 80400, Note_off_c, 0, 73, 0
2, 80400, Note_on_c, 0, 71, 63
2, 80520, Note_off_c, 0, 71, 0
2, 80520, Note_on_c, 0, 69, 62
2, 80640, Note_off_c, 0, 69, 0
2, 80640, Note_on_c, 0, 68, 62
2, 80760, Note_off_c, 0, 68, 0
2, 80760, Note_on_c, 0, 66, 62
2, 80880, Note_off_c, 0, 66, 0
2, 80880, Note_on_c, 0, 64, 61
2, 81000, Note_off_c, 0, 64, 0
2, 81000, Note_on_c, 0, 66, 61
2, 81120, Note_off_c, 0, 66, 0
2, 81120, Note_on_c, 0, 68, 60
2, 81240, Note_off_c, 0, 68, 0
2, 81240, Note_on_c, 0, 69, 60
2, 81360, Note_off_c, 0, 69, 0
2, 81360, Note_on_c, 0, 71, 60
2, 81480, Note_off_c, 0, 71, 0
2, 81480, Note_on_c, 0, 73, 59
2, 81600, Note_off_c, 0, 73, 0
2, 81600, Note_on_c, 0, 74, 59
2, 81720, Note_off_c, 0, 74, 0
2, 81720, Note_on_c, 0, 76, 58
2, 81840, Note_off_c, 0, 76, 0
2, 81840, Note_on_c, 0, 78, 58
2, 81960, Note_off_c, 0, 78, 0
2, 81960, Note_on_c, 0, 80, 58
2, 82080, Note_off_c, 0, 80, 0
2, 82080, Note_on_c, 0, 81, 57
2, 82272, Note_off_c, 0, 81, 0
2, 82320, Note_on_c, 0, 76, 56
2, 82512, Note_off_c, 0, 76, 0
2, 82560, Note_on_c, 0, 85, 56
2, 82752, Note_off_c, 0, 85, 0
2, 82800, Note_on_c, 0, 81, 55
2, 82992, Note_off_c, 0, 81, 0
2, 83040, Note_on_c, 0, 76, 54
2, 83232, Note_off_c, 0, 76, 0
2, 83280, Note_on_c, 0, 85, 53
2, 83472, Note_off_c, 0, 85, 0
2, 83520, Note_on_c, 0, 81, 52
2, 84000, Note_off_c, 0, 81, 0
2, 84960, Note_on_c, 0, 81, 49
2, 85200, Note_off_c, 0, 81, 0
2, 85200, Note_on_c, 0, 76, 48
2, 85440, Note_off_c, 0, 76, 0
2, 85440, Note_on_c, 0, 84, 48
2, 85680, Note_off_c, 0, 84, 0
2, 85680, Note_on_c, 0, 81, 47
2, 85920, Note_off_c, 0, 81, 0
2, 85920, Note_on_c, 0, 76, 46
2, 86160, Note_off_c, 0, 76, 0
2, 86160, Note_on_c, 0, 84, 45
2, 86400, Note_off_c, 0, 84, 0
2, 86400, Note_on_c, 0, 81, 44
2, 86880, Note_off_c, 0, 81, 0
2, 87840, Note_on_c, 0, 81, 97
2, 88032, Note_off_c, 0, 81, 0
2, 88080, Note_on_c, 0, 75, 96
2, 88272, Note_off_c, 0, 75, 0
2, 88320, Note_on_c, 0, 84, 95
2, 88512, Note_off_c, 0, 84, 0
2, 88560, Note_on_c, 0, 81, 94
2, 88752, Note_off_c, 0, 81, 0
2, 88800, Note_on_c, 0, 75, 93
2, 88992, Note_off_c, 0, 75, 0
2, 89040, Note_on_c, 0, 84, 92
2, 89232, Note_off_c, 0, 84, 0
2, 89280, Note_on_c, 0, 81, 91
2, 89760, Note_off_c, 0, 81, 0
2, 90480, Note_on_c, 0, 65, 97
2, 90636, Note_off_c, 0, 65, 0
2, 90720, Note_on_c, 0, 70, 96
2, 90876, Note_off_c, 0, 70, 0
2, 90960, Note_on_c, 0, 65, 95
2, 91116, Note_off_c, 0, 65, 0
2, 91200, Note_on_c, 0, 70, 94
2, 91356, Note_off_c, 0, 70, 0
2, 91440, Note_on_c, 0, 74, 94
2, 91596, Note_off_c, 0, 74, 0
2, 91680, Note_on_c, 0, 70, 93
2, 91836, Note_off_c, 0, 70, 0
2, 91920, Note_on_c, 0, 74, 92
2, 92076, Note_off_c, 0, 74, 0
2, 92160, Note_on_c, 0, 77, 91
2, 92520, Note_off_c, 0, 77, 0
2, 92640, Note_on_c, 0, 77, 89
2, 92796, Note_off_c, 0, 77, 0
2, 92880, Note_on_c, 0, 77, 88
2, 93240, Note_off_c, 0, 77, 0
2, 93360, Note_on_c, 0, 82, 88
2, 93552, Note_off_c, 0, 82, 0
2, 93600, Note_on_c, 0, 81, 88
2, 93696, Note_off_c, 0, 81, 0
2, 93720, Note_on_c, 0, 79, 88
2, 93816, Note_off_c, 0, 79, 0
2, 93840, Note_on_c, 0, 77, 88
2, 93936, Note_off_c, 0, 77, 0
2, 93960, Note_on_c, 0, 79, 87
2, 94056, Note_off_c, 0, 79, 0
2, 94080, Note_on_c, 0, 81, 87
2, 94176, Note_off_c, 0, 81, 0
2, 94200, Note_on_c, 0, 82, 87
2, 94296, Note_off_c, 0, 82, 0
2, 94320, Note_on_c, 0, 84, 87
2, 94416, Note_off_c, 0, 84, 0
2, 94440, Note_on_c, 0, 82, 87
2, 94536, Note_off_c, 0, 82, 0
2, 94560, Note_on_c, 0, 81, 86
2, 94656, Note_off_c, 0, 81, 0
2, 94680, Note_on_c, 0, 82, 86
2, 94776, Note_off_c, 0, 82, 0
2, 94800, Note_on_c, 0, 84, 86
2, 94896, Note_off_c, 0, 84, 0
2, 94920, Note_on_c, 0, 86, 86
2, 95016, Note_off_c, 0, 86, 0
2, 95040, Note_on_c, 0, 87, 86
2, 95232, Note_off_c, 0, 87, 0
2, 95280, Note_on_c, 0, 77, 89
2, 95472, Note_off_c, 0, 77, 0
2, 95520, Note_on_c, 0, 87, 92
2, 95952, Note_off_c, 0, 87, 0
2, 96000, Note_on_c, 0, 77, 98
2, 96192, Note_off_c, 0, 77, 0
2, 96240, Note_on_c, 0, 87, 102
2, 96576, Note_off_c, 0, 87, 0
2, 96600, Note_on_c, 0, 89, 108
2, 96696, Note_off_c, 0, 89, 0
2, 96720, Note_on_c, 0, 87, 107
2, 96816, Note_off_c, 0, 87, 0
2, 96840, Note_on_c, 0, 86, 106
2, 96936, Note_off_c, 0, 86, 0
2, 96960, Note_on_c, 0, 84, 105
2, 97056, Note_off_c, 0, 84, 0
2, 97080, Note_on_c, 0, 82, 104
2, 97176, Note_off_c, 0, 82, 0
2, 97200, Note_on_c, 0, 81, 103
2, 97296, Note_off_c, 0, 81, 0
2, 97320, Note_on_c, 0, 82, 102
2, 97416, Note_off_c, 0, 82, 0
2, 97440, Note_on_c, 0, 81, 102
2, 97536, Note_off_c, 0, 81, 0
2, 97560, Note_on_c, 0, 79, 101
2, 97656, Note_off_c, 0, 79, 0
2, 97680, Note_on_c, 0, 77, 100
2, 97776, Note_off_c, 0, 77, 0
2, 97800, Note_on_c, 0, 75, 99
2, 97896, Note_off_c, 0, 75, 0
2, 97920, Note_on_c, 0, 74, 98
2, 98016, Note_off_c, 0, 74, 0
2, 98040, Note_on_c, 0, 75, 97
2, 98136, Note_off_c, 0, 75, 0
2, 98160, Note_on_c, 0, 74, 96
2, 98256, Note_off_c, 0, 74, 0
2, 98280, Note_on_c, 0, 84, 95
2, 98376, Note_off_c, 0, 84, 0
2, 98400, Note_on_c, 0, 75, 94
2, 98496, Note_off_c, 0, 75, 0
2, 98520, Note_on_c, 0, 84, 93
2, 98616, Note_off_c, 0, 84, 0
2, 98640, Note_on_c, 0, 74, 92
2, 98736, Note_off_c, 0, 74, 0
2, 98760, Note_on_c, 0, 75, 91
2, 98856, Note_off_c, 0, 75, 0
2, 98880, Note_on_c, 0, 74, 90
2, 98976, Note_off_c, 0, 74, 0
2, 99000, Note_on_c, 0, 84, 89
2, 99096, Note_off_c, 0, 84, 0
2, 99120, Note_on_c, 0, 75, 88
2, 99216, Note_off_c, 0, 75, 0
2, 99240, Note_on_c, 0, 84, 87
2, 99336, Note_off_c, 0, 84, 0
2, 99360, Note_on_c, 0, 74, 86
2, 99456, Note_off_c, 0, 74, 0
2, 99480, Note_on_c, 0, 84, 85
2, 99576, Note_off_c, 0, 84, 0
2, 99600, Note_on_c, 0, 81, 84
2, 99696, Note_off_c, 0, 81, 0
2, 99720, Note_on_c, 0, 79, 83
2, 99816, Note_off_c, 0, 79, 0
2, 99840, Note_on_c, 0, 78, 82
2, 99936, Note_off_c, 0, 78, 0
2, 99960, Note_on_c, 0, 75, 81
2, 100056, Note_off_c, 0, 75, 0
2, 100080, Note_on_c, 0, 74, 80
2, 100176, Note_off_c, 0, 74, 0
2, 100200, Note_on_c, 0, 75, 79
2, 100296, Note_off_c, 0, 75, 0
2, 100320, Note_on_c, 0, 74, 78
2, 100416, Note_off_c, 0, 74, 0
2, 100440, Note_on_c, 0, 72, 77
2, 100536, Note_off_c, 0, 72, 0
2, 100560, Note_on_c, 0, 70, 76
2, 100656, Note_off_c, 0, 70, 0
2, 100680, Note_on_c, 0, 69, 75
2, 100776, Note_off_c, 0, 69, 0
2, 100800, Note_on_c, 0, 67, 74
2, 100956, Note_off_c, 0, 67, 0
2, 101280, Note_on_c, 0, 62, 83
2, 101436, Note_off_c, 0, 62, 0
2, 101520, Note_on_c, 0, 67, 82
2, 101676, Note_off_c, 0, 67, 0
2, 101760, Note_on_c, 0, 62, 82
2, 101916, Note_off_c, 0, 62, 0
2, 102000, Note_on_c, 0, 67, 81
2, 102156, Note_off_c, 0, 67, 0
2, 102240, Note_on_c, 0, 70, 81
2, 102396, Note_off_c, 0, 70, 0
2, 102480, Note_on_c, 0, 67, 80
2, 102636, Note_off_c, 0, 67, 0
2, 102720, Note_on_c, 0, 70, 79
2, 102876, Note_off_c, 0, 70, 0
2, 102960, Note_on_c, 0, 74, 79
2, 103320, Note_off_c, 0, 74, 0
2, 103440, Note_on_c, 0, 74, 77
2, 103596, Note_off_c, 0, 74, 0
2, 103680, Note_on_c, 0, 74, 77
2, 104040, Note_off_c, 0, 74, 0
2, 104160, Note_on_c, 0, 79, 75
2, 104352, Note_off_c, 0, 79, 0
2, 104400, Note_on_c, 0, 78, 75
2, 104496, Note_off_c, 0, 78, 0
2, 104520, Note_on_c, 0, 76, 75
2, 104616, Note_off_c, 0, 76, 0
2, 104640, Note_on_c, 0, 78, 74
2, 104736, Note_off_c, 0, 78, 0
2, 104760, Note_on_c, 0, 74, 74
2, 104856, Note_off_c, 0, 74, 0
2, 104880, Note_on_c, 0, 82, 74
2, 105072, Note_off_c, 0, 82, 0
2, 105120, Note_on_c, 0, 81, 73
2, 105312, Note_off_c, 0, 81, 0
2, 105600, Note_on_c, 0, 81, 72
2, 105792, Note_off_c, 0, 81, 0
2, 105840, Note_on_c, 0, 79, 71
2, 105936, Note_off_c, 0, 79, 0
2, 105960, Note_on_c, 0, 78, 71
2, 106056, Note_off_c, 0, 78, 0
2, 106080, Note_on_c, 0, 79, 70
2, 106176, Note_off_c, 0, 79, 0
2, 106200, Note_on_c, 0, 74, 70
2, 106296, Note_off_c, 0, 74, 0
2, 106320, Note_on_c, 0, 84, 70
2, 106512, Note_off_c, 0, 84, 0
2, 106560, Note_on_c, 0, 82, 72
2, 106656, Note_off_c, 0, 82, 0
2, 106680, Note_on_c, 0, 74, 73
2, 106776, Note_off_c, 0, 74, 0
2, 106800, Note_on_c, 0, 75, 74
2, 106896, Note_off_c, 0, 75, 0
2, 106920, Note_on_c, 0, 74, 74
2, 107016, Note_off_c, 0, 74, 0
2, 107040, Note_on_c, 0, 75, 75
2, 107136, Note_off_c, 0, 75, 0
2, 107160, Note_on_c, 0, 74, 76
2, 107256, Note_off_c, 0, 74, 0
2, 107280, Note_on_c, 0, 81, 77
2, 107376, Note_off_c, 0, 81, 0
2, 107400, Note_on_c, 0, 75, 77
2, 107496, Note_off_c, 0, 75, 0
2, 107520, Note_on_c, 0, 76, 78
2, 107616, Note_off_c, 0, 76, 0
2, 107640, Note_on_c, 0, 75, 79
2, 107736, Note_off_c, 0, 75, 0
2, 107760, Note_on_c, 0, 76, 80
2, 107856, Note_off_c, 0, 76, 0
2, 107880, Note_on_c, 0, 75, 83
2, 107976, Note_off_c, 0, 75, 0
2, 108000, Note_on_c, 0, 80, 83
2, 108096, Note_off_c, 0, 80, 0
2, 108120, Note_on_c, 0, 81, 82
2, 108216, Note_off_c, 0, 81, 0
2, 108240, Note_on_c, 0, 83, 81
2, 108336, Note_off_c, 0, 83, 0
2, 108360, Note_on_c, 0, 84, 80
2, 108456, Note_off_c, 0, 84, 0
2, 108480, Note_on_c, 0, 86, 80
2, 108576, Note_off_c, 0, 86, 0
2, 108600, Note_on_c, 0, 84, 79
2, 108696, Note_off_c, 0, 84, 0
2, 108720, Note_on_c, 0, 83, 78
2, 108816, Note_off_c, 0, 83, 0
2, 108840, Note_on_c, 0, 81, 78
2, 108936, Note_off_c, 0, 81, 0
2, 108960, Note_on_c, 0, 80, 77
2, 109056, Note_off_c, 0, 80, 0
2, 109080, Note_on_c, 0, 77, 76
2, 109176, Note_off_c, 0, 77, 0
2, 109200, Note_on_c, 0, 76, 76
2, 109296, Note_off_c, 0, 76, 0
2, 109320, Note_on_c, 0, 74, 75
2, 109416, Note_off_c, 0, 74, 0
2, 109440, Note_on_c, 0, 72, 74
2, 110160, Note_off_c, 0, 72, 0
2, 110160, Note_on_c, 0, 71, 80
2, 110880, Note_off_c, 0, 71, 0
2, 111000, Note_on_c, 0, 70, 89
2, 111096, Note_off_c, 0, 70, 0
2, 111120, Note_on_c, 0, 73, 88
2, 111216, Note_off_c, 0, 73, 0
2, 111240, Note_on_c, 0, 78, 87
2, 111336, Note_off_c, 0, 78, 0
2, 111360, Note_on_c, 0, 82, 86
2, 111456, Note_off_c, 0, 82, 0
2, 111480, Note_on_c, 0, 85, 84
2, 111576, Note_off_c, 0, 85, 0
2, 111600, Note_on_c, 0, 88, 83
2, 111696, Note_off_c, 0, 88, 0
2, 111720, Note_on_c, 0, 85, 82
2, 111816, Note_off_c, 0, 85, 0
2, 111840, Note_on_c, 0, 82, 81
2, 111936, Note_off_c, 0, 82, 0
2, 111960, Note_on_c, 0, 79, 80
2, 112056, Note_off_c, 0, 79, 0
2, 112080, Note_on_c, 0, 78, 79
2, 112176, Note_off_c, 0, 78, 0
2, 112200, Note_on_c, 0, 76, 78
2, 112296, Note_off_c, 0, 76, 0
2, 112320, Note_on_c, 0, 74, 78
2, 112512, Note_off_c, 0, 74, 0
2, 112920, Note_on_c, 0, 74, 83
2, 113016, Note_off_c, 0, 74, 0
2, 113040, Note_on_c, 0, 77, 84
2, 113232, Note_off_c, 0, 77, 0
2, 113640, Note_on_c, 0, 77, 88
2, 113736, Note_off_c, 0, 77, 0
2, 113760, Note_on_c, 0, 78, 89
2, 113856, Note_off_c, 0, 78, 0
2, 113880, Note_on_c, 0, 73, 88
2, 113976, Note_off_c, 0, 73, 0
2, 114000, Note_on_c, 0, 78, 88
2, 114096, Note_off_c, 0, 78, 0
2, 114120, Note_on_c, 0, 82, 87
2, 114216, Note_off_c, 0, 82, 0
2, 114240, Note_on_c, 0, 85, 86
2, 114336, Note_off_c, 0, 85, 0
2, 114360, Note_on_c, 0, 82, 86
2, 114456, Note_off_c, 0, 82, 0
2, 114480, Note_on_c, 0, 86, 85
2, 114576, Note_off_c, 0, 86, 0
2, 114600, Note_on_c, 0, 83, 84
2, 114696, Note_off_c, 0, 83, 0
2, 114720, Note_on_c, 0, 86, 84
2, 114816, Note_off_c, 0, 86, 0
2, 114840, Note_on_c, 0, 83, 83
2, 114936, Note_off_c, 0, 83, 0
2, 114960, Note_on_c, 0, 80, 82
2, 115056, Note_off_c, 0, 80, 0
2, 115080, Note_on_c, 0, 77, 82
2, 115176, Note_off_c, 0, 77, 0
2, 115200, Note_on_c, 0, 78, 72
2, 115296, Note_off_c, 0, 78, 0
2, 115320, Note_on_c, 0, 73, 72
2, 115416, Note_off_c, 0, 73, 0
2, 115440, Note_on_c, 0, 78, 73
2, 115536, Note_off_c, 0, 78, 0
2, 115560, Note_on_c, 0, 82, 73
2, 115656, Note_off_c, 0, 82, 0
2, 115680, Note_on_c, 0, 85, 73
2, 115776, Note_off_c, 0, 85, 0
2, 115800, Note_on_c, 0, 82, 74
2, 115896, Note_off_c, 0, 82, 0
2, 115920, Note_on_c, 0, 86, 74
2, 116016, Note_off_c, 0, 86, 0
2, 116040, Note_on_c, 0, 83, 75
2, 116136, Note_off_c, 0, 83, 0
2, 116160, Note_on_c, 0, 86, 75
2, 116256, Note_off_c, 0, 86, 0
2, 116280, Note_on_c, 0, 83, 76
2, 116376, Note_off_c, 0, 83, 0
2, 116400, Note_on_c, 0, 80, 76
2, 116496, Note_off_c, 0, 80, 0
2, 116520, Note_on_c, 0, 77, 77
2, 116616, Note_off_c, 0, 77, 0
2, 116640, Note_on_c, 0, 78, 79
2, 116880, Note_off_c, 0, 78, 0
2, 116880, Note_on_c, 0, 73, 76
2, 117120, Note_off_c, 0, 73, 0
2, 117120, Note_on_c, 0, 82, 74
2, 117360, Note_off_c, 0, 82, 0
2, 117360, Note_on_c, 0, 78, 71
2, 117600, Note_off_c, 0, 78, 0
2, 117600, Note_on_c, 0, 73, 68
2, 117840, Note_off_c, 0, 73, 0
2, 117840, Note_on_c, 0, 82, 65
2, 118080, Note_off_c, 0, 82, 0
2, 118080, Note_on_c, 0, 78, 63
2, 118560, Note_off_c, 0, 78, 0
2, 119520, Note_on_c, 0, 78, 54
2, 119760, Note_off_c, 0, 78, 0
2, 119760, Note_on_c, 0, 73, 55
2, 120000, Note_off_c, 0, 73, 0
2, 120000, Note_on_c, 0, 81, 55
2, 120240, Note_off_c, 0, 81, 0
2, 120240, Note_on_c, 0, 78, 56
2, 120480, Note_off_c, 0, 78, 0
2, 120480, Note_on_c, 0, 73, 56
2, 120720, Note_off_c, 0, 73, 0
2, 120720, Note_on_c, 0, 81, 57
2, 120960, Note_off_c, 0, 81, 0
2, 120960, Note_on_c, 0, 80, 58
2, 121200, Note_off_c, 0, 80, 0
2, 121200, Note_on_c, 0, 73, 59
2, 121440, Note_off_c, 0, 73, 0
2, 121440, Note_on_c, 0, 83, 60
2, 121680, Note_off_c, 0, 83, 0
2, 121680, Note_on_c, 0, 80, 61
2, 121920, Note_off_c, 0, 80, 0
2, 121920, Note_on_c, 0, 73, 62
2, 122160, Note_off_c, 0, 73, 0
2, 122160, Note_on_c, 0, 83, 63
2, 122400, Note_off_c, 0, 83, 0
2, 122400, Note_on_c, 0, 82, 64
2, 122640, Note_off_c, 0, 82, 0
2, 122640, Note_on_c, 0, 73, 65
2, 122880, Note_off_c, 0, 73, 0
2, 122880, Note_on_c, 0, 85, 66
2, 123120, Note_off_c, 0, 85, 0
2, 123120, Note_on_c, 0, 82, 67
2, 123360, Note_off_c, 0, 82, 0
2, 123360, Note_on_c, 0, 73, 68
2, 123600, Note_off_c, 0, 73, 0
2, 123600, Note_on_c, 0, 85, 69
2, 123840, Note_off_c, 0, 85, 0
2, 123840, Note_on_c, 0, 83, 60
2, 124320, Note_off_c, 0, 83, 0
2, 125280, Note_on_c, 0, 83, 61
2, 126000, Note_off_c, 0, 83, 0
2, 126000, Note_on_c, 0, 82, 65
2, 126720, Note_off_c, 0, 82, 0
2, 126720, Note_on_c, 0, 81, 69
2, 128160, Note_off_c, 0, 81, 0
2, 128160, Note_on_c, 0, 76, 56
2, 128400, Note_off_c, 0, 76, 0
2, 128400, Note_on_c, 0, 71, 57
2, 128640, Note_off_c, 0, 71, 0
2, 128640, Note_on_c, 0, 79, 57
2, 128880, Note_off_c, 0, 79, 0
2, 128880, Note_on_c, 0, 76, 58
2, 129120, Note_off_c, 0, 76, 0
2, 129120, Note_on_c, 0, 71, 59
2, 129360, Note_off_c, 0, 71, 0
2, 129360, Note_on_c, 0, 79, 59
2, 129600, Note_off_c, 0, 79, 0
2, 129600, Note_on_c, 0, 78, 60
2, 129840, Note_off_c, 0, 78, 0
2, 129840, Note_on_c, 0, 71, 61
2, 130080, Note_off_c, 0, 71, 0
2, 130080, Note_on_c, 0, 81, 61
2, 130320, Note_off_c, 0, 81, 0
2, 130320, Note_on_c, 0, 78, 62
2, 130560, Note_off_c, 0, 78, 0
2, 130560, Note_on_c, 0, 71, 63
2, 130800, Note_off_c, 0, 71, 0
2, 130800, Note_on_c, 0, 81, 63
2, 131040, Note_off_c, 0, 81, 0
2, 131040, Note_on_c, 0, 80, 64
2, 131280, Note_off_c, 0, 80, 0
2, 131280, Note_on_c, 0, 71, 65
2, 131520, Note_off_c, 0, 71, 0
2, 131520, Note_on_c, 0, 83, 65
2, 131760, Note_off_c, 0, 83, 0
2, 131760, Note_on_c, 0, 80, 66
2, 132000, Note_off_c, 0, 80, 0
2, 132000, Note_on_c, 0, 71, 66
2, 132240, Note_off_c, 0, 71, 0
2, 132240, Note_on_c, 0, 83, 67
2, 132480, Note_off_c, 0, 83, 0
2, 132480, Note_on_c, 0, 81, 63
2, 132960, Note_off_c, 0, 81, 0
2, 133920, Note_on_c, 0, 81, 61
2, 133920, Note_on_c, 0, 70, 61
2, 134640, Note_off_c, 0, 70, 0
2, 134640, Note_on_c, 0, 71, 66
2, 135360, Note_off_c, 0, 71, 0
2, 135360, Note_off_c, 0, 81, 0
2, 135360, Note_on_c, 0, 81, 71
2, 135360, Note_on_c, 0, 72, 71
2, 136080, Note_off_c, 0, 72, 0
2, 136080, Note_on_c, 0, 73, 76
2, 136800, Note_off_c, 0, 73, 0
2, 136800, Note_off_c, 0, 81, 0
2, 136800, Note_on_c, 0, 81, 80
2, 136800, Note_on_c, 0, 74, 80
2, 137520, Note_off_c, 0, 74, 0
2, 137520, Note_on_c, 0, 75, 85
2, 138240, Note_off_c, 0, 75, 0
2, 138240, Note_off_c, 0, 81, 0
2, 138240, Note_on_c, 0, 81, 90
2, 138240, Note_on_c, 0, 76, 90
2, 138960, Note_off_c, 0, 76, 0
2, 138960, Note_on_c, 0, 78, 94
2, 139680, Note_off_c, 0, 78, 0
2, 139680, Note_off_c, 0, 81, 0
2, 139680, Note_on_c, 0, 79, 101
2, 139776, Note_off_c, 0, 79, 0
2, 139800, Note_on_c, 0, 81, 100
2, 139896, Note_off_c, 0, 81, 0
2, 139920, Note_on_c, 0, 83, 99
2, 140016, Note_off_c, 0, 83, 0
2, 140040, Note_on_c, 0, 81, 98
2, 140136, Note_off_c, 0, 81, 0
2, 140160, Note_on_c, 0, 79, 97
2, 140256, Note_off_c, 0, 79, 0
2, 140280, Note_on_c, 0, 78, 97
2, 140376, Note_off_c, 0, 78, 0
2, 140400, Note_on_c, 0, 76, 96
2, 140496, Note_off_c, 0, 76, 0
2, 140520, Note_on_c, 0, 78, 95
2, 140616, Note_off_c, 0, 78, 0
2, 140640, Note_on_c, 0, 79, 94
2, 140736, Note_off_c, 0, 79, 0
2, 140760, Note_on_c, 0, 78, 93
2, 140856, Note_off_c, 0, 78, 0
2, 140880, Note_on_c, 0, 76, 92
2, 140976, Note_off_c, 0, 76, 0
2, 141000, Note_on_c, 0, 74, 91
2, 141096, Note_off_c, 0, 74, 0
2, 141120, Note_on_c, 0, 73, 91
2, 141216, Note_off_c, 0, 73, 0
2, 141240, Note_on_c, 0, 74, 90
2, 141336, Note_off_c, 0, 74, 0
2, 141360, Note_on_c, 0, 76, 89
2, 141456, Note_off_c, 0, 76, 0
2, 141480, Note_on_c, 0, 74, 88
2, 141576, Note_off_c, 0, 74, 0
2, 141600, Note_on_c, 0, 73, 87
2, 141696, Note_off_c, 0, 73, 0
2, 141720, Note_on_c, 0, 71, 86
2, 141816, Note_off_c, 0, 71, 0
2, 141840, Note_on_c, 0, 69, 86
2, 141936, Note_off_c, 0, 69, 0
2, 141960, Note_on_c, 0, 71, 85
2, 142056, Note_off_c, 0, 71, 0
2, 142080, Note_on_c, 0, 69, 84
2, 142176, Note_off_c, 0, 69, 0
2, 142200, Note_on_c, 0, 67, 83
2, 142296, Note_off_c, 0, 67, 0
2, 142320, Note_on_c, 0, 66, 82
2, 142416, Note_off_c, 0, 66, 0
2, 142440, Note_on_c, 0, 64, 81
2, 142536, Note_off_c, 0, 64, 0
2, 142560, Note_on_c, 0, 62, 86
2, 142716, Note_off_c, 0, 62, 0
2, 142800, Note_on_c, 0, 57, 85
2, 142956, Note_off_c, 0, 57, 0
2, 143040, Note_on_c, 0, 62, 84
2, 143196, Note_off_c, 0, 62, 0
2, 143280, Note_on_c, 0, 66, 83
2, 143436, Note_off_c, 0, 66, 0
2, 143520, Note_on_c, 0, 62, 82
2, 143676, Note_off_c, 0, 62, 0
2, 143760, Note_on_c, 0, 66, 81
2, 143916, Note_off_c, 0, 66, 0
2, 144000, Note_on_c, 0, 69, 80
2, 144360, Note_off_c, 0, 69, 0
2, 144480, Note_on_c, 0, 69, 79
2, 144636, Note_off_c, 0, 69, 0
2, 144720, Note_on_c, 0, 69, 77
2, 145080, Note_off_c, 0, 69, 0
2, 145200, Note_on_c, 0, 73, 65
2, 145240, Note_off_c, 0, 73, 0
2, 145240, Note_on_c, 0, 74, 66
2, 145280, Note_off_c, 0, 74, 0
2, 145280, Note_on_c, 0, 73, 67
2, 145320, Note_off_c, 0, 73, 0
2, 145320, Note_on_c, 0, 71, 68
2, 145380, Note_off_c, 0, 71, 0
2, 145380, Note_on_c, 0, 73, 69
2, 145440, Note_off_c, 0, 73, 0
2, 145440, Note_on_c, 0, 74, 70
2, 145680, Note_off_c, 0, 74, 0
2, 145920, Note_on_c, 0, 76, 65
2, 145960, Note_off_c, 0, 76, 0
2, 145960, Note_on_c, 0, 78, 65
2, 146000, Note_off_c, 0, 78, 0
2, 146000, Note_on_c, 0, 76, 66
2, 146040, Note_off_c, 0, 76, 0
2, 146040, Note_on_c, 0, 74, 67
2, 146100, Note_off_c, 0, 74, 0
2, 146100, Note_on_c, 0, 76, 68
2, 146160, Note_off_c, 0, 76, 0
2, 146160, Note_on_c, 0, 78, 69
2, 146400, Note_off_c, 0, 78, 0
2, 146640, Note_on_c, 0, 81, 62
2, 146760, Note_off_c, 0, 81, 0
2, 146760, Note_on_c, 0, 79, 64
2, 146880, Note_off_c, 0, 79, 0
2, 146880, Note_on_c, 0, 78, 67
2, 147600, Note_off_c, 0, 78, 0
2, 147600, Note_on_c, 0, 76, 61
2, 147840, Note_off_c, 0, 76, 0
2, 148080, Note_on_c, 0, 59, 83
2, 148236, Note_off_c, 0, 59, 0
2, 148320, Note_on_c, 0, 64, 83
2, 148476, Note_off_c, 0, 64, 0
2, 148560, Note_on_c, 0, 59, 83
2, 148716, Note_off_c, 0, 59, 0
2, 148800, Note_on_c, 0, 64, 82
2, 148956, Note_off_c, 0, 64, 0
2, 149040, Note_on_c, 0, 67, 82
2, 149196, Note_off_c, 0, 67, 0
2, 149280, Note_on_c, 0, 64, 81
2, 149436, Note_off_c, 0, 64, 0
2, 149520, Note_on_c, 0, 67, 81
2, 149676, Note_off_c, 0, 67, 0
2, 149760, Note_on_c, 0, 71, 81
2, 150120, Note_off_c, 0, 71, 0
2, 150240, Note_on_c, 0, 71, 79
2, 150396, Note_off_c, 0, 71, 0
2, 150480, Note_on_c, 0, 71, 77
2, 150840, Note_off_c, 0, 71, 0
2, 150960, Note_on_c, 0, 75, 73
2, 151152, Note_off_c, 0, 75, 0
2, 151200, Note_on_c, 0, 78, 72
2, 151320, Note_off_c, 0, 78, 0
2, 151320, Note_on_c, 0, 76, 72
2, 151440, Note_off_c, 0, 76, 0
2, 151440, Note_on_c, 0, 79, 72
2, 151560, Note_off_c, 0, 79, 0
2, 151560, Note_on_c, 0, 78, 71
2, 151680, Note_off_c, 0, 78, 0
2, 151680, Note_on_c, 0, 81, 71
2, 151800, Note_off_c, 0, 81, 0
2, 151800, Note_on_c, 0, 79, 71
2, 151920, Note_off_c, 0, 79, 0
2, 151920, Note_on_c, 0, 83, 70
2, 152160, Note_off_c, 0, 83, 0
2, 152400, Note_on_c, 0, 73, 64
2, 152592, Note_off_c, 0, 73, 0
2, 152640, Note_on_c, 0, 76, 68
2, 153360, Note_off_c, 0, 76, 0
2, 153360, Note_on_c, 0, 74, 62
2, 153600, Note_off_c, 0, 74, 0
2, 154320, Note_on_c, 0, 74, 105
2, 154476, Note_off_c, 0, 74, 0
2, 154560, Note_on_c, 0, 78, 105
2, 154716, Note_off_c, 0, 78, 0
2, 154800, Note_on_c, 0, 81, 104
2, 154956, Note_off_c, 0, 81, 0
2, 155040, Note_on_c, 0, 78, 103
2, 155196, Note_off_c, 0, 78, 0
2, 155280, Note_on_c, 0, 86, 103
2, 155598, Note_off_c, 0, 86, 0
2, 155640, Note_on_c, 0, 85, 102
2, 155736, Note_off_c, 0, 85, 0
2, 155760, Note_on_c, 0, 88, 102
2, 155856, Note_off_c, 0, 88, 0
2, 155880, Note_on_c, 0, 86, 102
2, 155976, Note_off_c, 0, 86, 0
2, 156000, Note_on_c, 0, 85, 101
2, 156096, Note_off_c, 0, 85, 0
2, 156120, Note_on_c, 0, 83, 101
2, 156216, Note_off_c, 0, 83, 0
2, 156240, Note_on_c, 0, 81, 101
2, 156336, Note_off_c, 0, 81, 0
2, 156360, Note_on_c, 0, 83, 101
2, 156456, Note_off_c, 0, 83, 0
2, 156480, Note_on_c, 0, 81, 100
2, 156576, Note_off_c, 0, 81, 0
2, 156600, Note_on_c, 0, 79, 100
2, 156696, Note_off_c, 0, 79, 0
2, 156720, Note_on_c, 0, 78, 100
2, 156816, Note_off_c, 0, 78, 0
2, 156840, Note_on_c, 0, 76, 100
2, 156936, Note_off_c, 0, 76, 0
2, 156960, Note_on_c, 0, 74, 99
2, 157320, Note_off_c, 0, 74, 0
2, 157440, Note_on_c, 0, 74, 98
2, 157596, Note_off_c, 0, 74, 0
2, 157680, Note_on_c, 0, 74, 98
2, 157872, Note_off_c, 0, 74, 0
2, 158160, Note_on_c, 0, 62, 97
2, 158316, Note_off_c, 0, 62, 0
2, 158400, Note_on_c, 0, 67, 96
2, 158556, Note_off_c, 0, 67, 0
2, 158640, Note_on_c, 0, 62, 96
2, 158796, Note_off_c, 0, 62, 0
2, 158880, Note_on_c, 0, 67, 95
2, 159036, Note_off_c, 0, 67, 0
2, 159120, Note_on_c, 0, 71, 95
2, 159276, Note_off_c, 0, 71, 0
2, 159360, Note_on_c, 0, 67, 94
2, 159516, Note_off_c, 0, 67, 0
2, 159600, Note_on_c, 0, 71, 94
2, 159756, Note_off_c, 0, 71, 0
2, 159840, Note_on_c, 0, 74, 93
2, 160200, Note_off_c, 0, 74, 0
2, 160320, Note_on_c, 0, 74, 92
2, 160476, Note_off_c, 0, 74, 0
2, 160560, Note_on_c, 0, 74, 92
2, 160752, Note_off_c, 0, 74, 0
2, 161040, Note_on_c, 0, 72, 97
2, 161400, Note_on_c, 0, 71, 93
2, 161407, Note_off_c, 0, 72, 0
2, 161496, Note_off_c, 0, 71, 0
2, 161520, Note_on_c, 0, 74, 91
2, 161616, Note_off_c, 0, 74, 0
2, 161640, Note_on_c, 0, 72, 90
2, 161736, Note_off_c, 0, 72, 0
2, 161760, Note_on_c, 0, 71, 89
2, 161856, Note_off_c, 0, 71, 0
2, 161880, Note_on_c, 0, 69, 87
2, 161976, Note_off_c, 0, 69, 0
2, 162000, Note_on_c, 0, 67, 86
2, 162192, Note_off_c, 0, 67, 0
2, 162480, Note_on_c, 0, 84, 96
2, 162840, Note_on_c, 0, 83, 91
2, 162847, Note_off_c, 0, 84, 0
2, 162936, Note_off_c, 0, 83, 0
2, 162960, Note_on_c, 0, 86, 90
2, 163056, Note_off_c, 0, 86, 0
2, 163080, Note_on_c, 0, 84, 88
2, 163176, Note_off_c, 0, 84, 0
2, 163200, Note_on_c, 0, 83, 86
2, 163296, Note_off_c, 0, 83, 0
2, 163320, Note_on_c, 0, 81, 85
2, 163416, Note_off_c, 0, 81, 0
2, 163440, Note_on_c, 0, 80, 83
2, 163632, Note_off_c, 0, 80, 0
2, 163920, Note_on_c, 0, 74, 91
2, 164280, Note_on_c, 0, 72, 86
2, 164287, Note_off_c, 0, 74, 0
2, 164376, Note_off_c, 0, 72, 0
2, 164400, Note_on_c, 0, 76, 85
2, 164496, Note_off_c, 0, 76, 0
2, 164520, Note_on_c, 0, 74, 83
2, 164616, Note_off_c, 0, 74, 0
2, 164640, Note_on_c, 0, 72, 82
2, 164736, Note_off_c, 0, 72, 0
2, 164760, Note_on_c, 0, 71, 80
2, 164856, Note_off_c, 0, 71, 0
2, 164880, Note_on_c, 0, 69, 79
2, 165072, Note_off_c, 0, 69, 0
2, 165360, Note_on_c, 0, 86, 92
2, 165720, Note_on_c, 0, 84, 87
2, 165727, Note_off_c, 0, 86, 0
2, 165816, Note_off_c, 0, 84, 0
2, 165840, Note_on_c, 0, 88, 85
2, 165936, Note_off_c, 0, 88, 0
2, 165960, Note_on_c, 0, 86, 84
2, 166056, Note_off_c, 0, 86, 0
2, 166080, Note_on_c, 0, 84, 82
2, 166176, Note_off_c, 0, 84, 0
2, 166200, Note_on_c, 0, 83, 80
2, 166296, Note_off_c, 0, 83, 0
2, 166320, Note_on_c, 0, 82, 78
2, 166512, Note_off_c, 0, 82, 0
2, 166800, Note_on_c, 0, 76, 84
2, 167160, Note_on_c, 0, 74, 76
2, 167167, Note_off_c, 0, 76, 0
2, 167256, Note_off_c, 0, 74, 0
2, 167280, Note_on_c, 0, 78, 75
2, 167376, Note_off_c, 0, 78, 0
2, 167400, Note_on_c, 0, 76, 74
2, 167496, Note_off_c, 0, 76, 0
2, 167520, Note_on_c, 0, 74, 72
2, 167616, Note_off_c, 0, 74, 0
2, 167640, Note_on_c, 0, 73, 71
2, 167736, Note_off_c, 0, 73, 0
2, 167760, Note_on_c, 0, 71, 70
2, 167952, Note_off_c, 0, 71, 0
2, 168240, Note_on_c, 0, 78, 78
2, 168600, Note_on_c, 0, 76, 71
2, 168607, Note_off_c, 0, 78, 0
2, 168696, Note_off_c, 0, 76, 0
2, 168720, Note_on_c, 0, 79, 69
2, 168816, Note_off_c, 0, 79, 0
2, 168840, Note_on_c, 0, 78, 68
2, 168936, Note_off_c, 0, 78, 0
2, 168960, Note_on_c, 0, 76, 67
2, 169056, Note_off_c, 0, 76, 0
2, 169080, Note_on_c, 0, 74, 66
2, 169176, Note_off_c, 0, 74, 0
2, 169200, Note_on_c, 0, 73, 65
2, 169392, Note_off_c, 0, 73, 0
2, 169680, Note_on_c, 0, 79, 72
2, 169872, Note_off_c, 0, 79, 0
2, 169920, Note_on_c, 0, 78, 70
2, 170016, Note_off_c, 0, 78, 0
2, 170040, Note_on_c, 0, 74, 71
2, 170136, Note_off_c, 0, 74, 0
2, 170160, Note_on_c, 0, 78, 72
2, 170256, Note_off_c, 0, 78, 0
2, 170280, Note_on_c, 0, 81, 73
2, 170376, Note_off_c, 0, 81, 0
2, 170400, Note_on_c, 0, 86, 75
2, 170496, Note_off_c, 0, 86, 0
2, 170520, Note_on_c, 0, 85, 76
2, 170616, Note_off_c, 0, 85, 0
2, 170760, Note_on_c, 0, 71, 78
2, 170856, Note_off_c, 0, 71, 0
2, 170880, Note_on_c, 0, 74, 79
2, 170976, Note_off_c, 0, 74, 0
2, 171000, Note_on_c, 0, 78, 81
2, 171096, Note_off_c, 0, 78, 0
2, 171120, Note_on_c, 0, 83, 82
2, 171216, Note_off_c, 0, 83, 0
2, 171240, Note_on_c, 0, 81, 83
2, 171336, Note_off_c, 0, 81, 0
2, 171480, Note_on_c, 0, 67, 85
2, 171576, Note_off_c, 0, 67, 0
2, 171600, Note_on_c, 0, 71, 86
2, 171696, Note_off_c, 0, 71, 0
2, 171720, Note_on_c, 0, 74, 88
2, 171816, Note_off_c, 0, 74, 0
2, 171840, Note_on_c, 0, 79, 89
2, 171936, Note_off_c, 0, 79, 0
2, 171960, Note_on_c, 0, 78, 90
2, 172056, Note_off_c, 0, 78, 0
2, 172200, Note_on_c, 0, 64, 92
2, 172296, Note_off_c, 0, 64, 0
2, 172320, Note_on_c, 0, 67, 94
2, 172416, Note_off_c, 0, 67, 0
2, 172440, Note_on_c, 0, 71, 95
2, 172536, Note_off_c, 0, 71, 0
2, 172560, Note_on_c, 0, 76, 96
2, 172656, Note_off_c, 0, 76, 0
2, 172680, Note_on_c, 0, 74, 97
2, 172776, Note_off_c, 0, 74, 0
2, 172800, Note_on_c, 0, 73, 99
2, 172992, Note_off_c, 0, 73, 0
2, 173040, Note_on_c, 0, 81, 99
2, 173232, Note_off_c, 0, 81, 0
2, 173280, Note_on_c, 0, 78, 99
2, 173472, Note_off_c, 0, 78, 0
2, 173520, Note_on_c, 0, 76, 99
2, 173712, Note_off_c, 0, 76, 0
2, 173760, Note_on_c, 0, 81, 99
2, 173952, Note_off_c, 0, 81, 0
2, 174000, Note_on_c, 0, 78, 98
2, 174192, Note_off_c, 0, 78, 0
2, 174240, Note_on_c, 0, 76, 98
2, 174432, Note_off_c, 0, 76, 0
2, 174480, Note_on_c, 0, 81, 98
2, 174672, Note_off_c, 0, 81, 0
2, 174720, Note_on_c, 0, 69, 94
2, 174912, Note_off_c, 0, 69, 0
2, 174960, Note_on_c, 0, 69, 91
2, 175320, Note_off_c, 0, 69, 0
2, 175440, Note_on_c, 0, 66, 59
2, 175680, Note_off_c, 0, 66, 0
2, 175680, Note_on_c, 0, 67, 61
2, 176160, Note_off_c, 0, 67, 0
2, 176160, Note_on_c, 0, 69, 65
2, 176400, Note_off_c, 0, 69, 0
2, 176400, Note_on_c, 0, 71, 67
2, 176640, Note_off_c, 0, 71, 0
2, 176640, Note_on_c, 0, 69, 66
2, 176760, Note_off_c, 0, 69, 0
2, 176760, Note_on_c, 0, 67, 66
2, 176880, Note_off_c, 0, 67, 0
2, 176880, Note_on_c, 0, 66, 66
2, 177000, Note_off_c, 0, 66, 0
2, 177000, Note_on_c, 0, 64, 65
2, 177120, Note_off_c, 0, 64, 0
2, 177120, Note_on_c, 0, 62, 65
2, 177840, Note_off_c, 0, 62, 0
2, 177840, Note_on_c, 0, 61, 60
2, 178248, Note_off_c, 0, 61, 0
2, 178320, Note_on_c, 0, 59, 61
2, 178512, Note_off_c, 0, 59, 0
2, 178560, Note_on_c, 0, 59, 60
2, 178800, Note_off_c, 0, 59, 0
2, 178800, Note_on_c, 0, 57, 59
2, 178992, Note_off_c, 0, 57, 0
2, 179040, Note_on_c, 0, 57, 58
2, 179232, Note_off_c, 0, 57, 0
2, 179280, Note_on_c, 0, 57, 57
2, 179520, Note_off_c, 0, 57, 0
2, 179520, Note_on_c, 0, 62, 56
2, 179712, Note_off_c, 0, 62, 0
2, 179760, Note_on_c, 0, 66, 56
2, 179952, Note_off_c, 0, 66, 0
2, 180000, Note_on_c, 0, 66, 61
2, 180480, Note_off_c, 0, 66, 0
2, 180480, Note_on_c, 0, 67, 56
2, 180672, Note_off_c, 0, 67, 0
2, 180720, Note_on_c, 0, 64, 53
2, 180912, Note_off_c, 0, 64, 0
2, 181200, Note_on_c, 0, 66, 63
2, 181440, Note_off_c, 0, 66, 0
2, 181440, Note_on_c, 0, 67, 65
2, 181920, Note_off_c, 0, 67, 0
2, 181920, Note_on_c, 0, 69, 69
2, 182160, Note_off_c, 0, 69, 0
2, 182160, Note_on_c, 0, 71, 71
2, 182400, Note_off_c, 0, 71, 0
2, 182400, Note_on_c, 0, 69, 71
2, 182520, Note_off_c, 0, 69, 0
2, 182520, Note_on_c, 0, 67, 70
2, 182640, Note_off_c, 0, 67, 0
2, 182640, Note_on_c, 0, 66, 70
2, 182760, Note_off_c, 0, 66, 0
2, 182760, Note_on_c, 0, 64, 70
2, 182880, Note_off_c, 0, 64, 0
2, 182880, Note_on_c, 0, 62, 69
2, 183600, Note_off_c, 0, 62, 0
2, 183600, Note_on_c, 0, 61, 62
2, 183792, Note_off_c, 0, 61, 0
2, 183840, Note_on_c, 0, 71, 66
2, 184080, Note_off_c, 0, 71, 0
2, 184080, Note_on_c, 0, 69, 65
2, 184272, Note_off_c, 0, 69, 0
2, 184320, Note_on_c, 0, 69, 65
2, 184560, Note_off_c, 0, 69, 0
2, 184560, Note_on_c, 0, 74, 64
2, 184752, Note_off_c, 0, 74, 0
2, 184800, Note_on_c, 0, 62, 63
2, 184992, Note_off_c, 0, 62, 0
2, 185040, Note_on_c, 0, 66, 62
2, 185232, Note_off_c, 0, 66, 0
2, 185520, Note_on_c, 0, 64, 58
2, 185712, Note_off_c, 0, 64, 0
2, 185760, Note_on_c, 0, 64, 60
2, 186480, Note_off_c, 0, 64, 0
2, 186480, Note_on_c, 0, 62, 58
2, 186720, Note_off_c, 0, 62, 0
2, 186960, Note_on_c, 0, 78, 59
2, 187200, Note_off_c, 0, 78, 0
2, 187200, Note_on_c, 0, 79, 61
2, 187392, Note_off_c, 0, 79, 0
2, 187440, Note_on_c, 0, 79, 64
2, 187560, Note_off_c, 0, 79, 0
2, 187560, Note_on_c, 0, 78, 65
2, 187680, Note_off_c, 0, 78, 0
2, 187680, Note_on_c, 0, 81, 66
2, 187800, Note_off_c, 0, 81, 0
2, 187800, Note_on_c, 0, 79, 67
2, 187920, Note_off_c, 0, 79, 0
2, 187920, Note_on_c, 0, 83, 68
2, 188040, Note_off_c, 0, 83, 0
2, 188040, Note_on_c, 0, 81, 69
2, 188160, Note_off_c, 0, 81, 0
2, 188160, Note_on_c, 0, 79, 69
2, 188280, Note_off_c, 0, 79, 0
2, 188280, Note_on_c, 0, 78, 69
2, 188400, Note_off_c, 0, 78, 0
2, 188400, Note_on_c, 0, 79, 67
2, 188520, Note_off_c, 0, 79, 0
2, 188520, Note_on_c, 0, 76, 67
2, 188640, Note_off_c, 0, 76, 0
2, 188640, Note_on_c, 0, 74, 67
2, 189120, Note_off_c, 0, 74, 0
2, 189120, Note_on_c, 0, 76, 65
2, 189240, Note_off_c, 0, 76, 0
2, 189240, Note_on_c, 0, 74, 65
2, 189360, Note_off_c, 0, 74, 0
2, 189360, Note_on_c, 0, 73, 65
2, 189802, Note_off_c, 0, 73, 0
2, 189840, Note_on_c, 0, 71, 63
2, 190032, Note_off_c, 0, 71, 0
2, 190080, Note_on_c, 0, 71, 63
2, 190320, Note_off_c, 0, 71, 0
2, 190320, Note_on_c, 0, 69, 62
2, 190512, Note_off_c, 0, 69, 0
2, 190560, Note_on_c, 0, 69, 61
2, 190752, Note_off_c, 0, 69, 0
2, 190800, Note_on_c, 0, 69, 59
2, 191040, Note_off_c, 0, 69, 0
2, 191040, Note_on_c, 0, 74, 58
2, 191232, Note_off_c, 0, 74, 0
2, 191280, Note_on_c, 0, 78, 56
2, 191472, Note_off_c, 0, 78, 0
2, 191520, Note_on_c, 0, 78, 58
2, 192000, Note_off_c, 0, 78, 0
2, 192000, Note_on_c, 0, 79, 56
2, 192192, Note_off_c, 0, 79, 0
2, 192240, Note_on_c, 0, 76, 54
2, 192432, Note_off_c, 0, 76, 0
2, 192720, Note_on_c, 0, 78, 57
2, 192960, Note_off_c, 0, 78, 0
2, 192960, Note_on_c, 0, 79, 60
2, 193152, Note_off_c, 0, 79, 0
2, 193200, Note_on_c, 0, 79, 62
2, 193320, Note_off_c, 0, 79, 0
2, 193320, Note_on_c, 0, 78, 64
2, 193440, Note_off_c, 0, 78, 0
2, 193440, Note_on_c, 0, 81, 65
2, 193560, Note_off_c, 0, 81, 0
2, 193560, Note_on_c, 0, 79, 66
2, 193680, Note_off_c, 0, 79, 0
2, 193680, Note_on_c, 0, 83, 69
2, 193800, Note_off_c, 0, 83, 0
2, 193800, Note_on_c, 0, 81, 68
2, 193920, Note_off_c, 0, 81, 0
2, 193920, Note_on_c, 0, 79, 67
2, 194040, Note_off_c, 0, 79, 0
2, 194040, Note_on_c, 0, 78, 66
2, 194160, Note_off_c, 0, 78, 0
2, 194160, Note_on_c, 0, 79, 65
2, 194280, Note_off_c, 0, 79, 0
2, 194280, Note_on_c, 0, 76, 64
2, 194400, Note_off_c, 0, 76, 0
2, 194400, Note_on_c, 0, 74, 63
2, 194520, Note_off_c, 0, 74, 0
2, 194520, Note_on_c, 0, 73, 62
2, 194640, Note_off_c, 0, 73, 0
2, 194640, Note_on_c, 0, 76, 60
2, 194760, Note_off_c, 0, 76, 0
2, 194760, Note_on_c, 0, 74, 62
2, 194880, Note_off_c, 0, 74, 0
2, 194880, Note_on_c, 0, 78, 63
2, 195000, Note_off_c, 0, 78, 0
2, 195000, Note_on_c, 0, 76, 65
2, 195120, Note_off_c, 0, 76, 0
2, 195120, Note_on_c, 0, 79, 66
2, 195240, Note_off_c, 0, 79, 0
2, 195240, Note_on_c, 0, 78, 68
2, 195360, Note_off_c, 0, 78, 0
2, 195360, Note_on_c, 0, 81, 69
2, 195480, Note_off_c, 0, 81, 0
2, 195480, Note_on_c, 0, 79, 70
2, 195600, Note_off_c, 0, 79, 0
2, 195600, Note_on_c, 0, 83, 72
2, 195720, Note_off_c, 0, 83, 0
2, 195720, Note_on_c, 0, 81, 73
2, 195840, Note_off_c, 0, 81, 0
2, 195840, Note_on_c, 0, 81, 75
2, 196560, Note_off_c, 0, 81, 0
2, 196560, Note_on_c, 0, 80, 70
2, 197280, Note_off_c, 0, 80, 0
2, 197280, Note_on_c, 0, 79, 64
2, 198000, Note_off_c, 0, 79, 0
2, 198000, Note_on_c, 0, 78, 59
2, 198240, Note_off_c, 0, 78, 0
2, 198480, Note_on_c, 0, 66, 91
2, 198636, Note_off_c, 0, 66, 0
2, 198720, Note_on_c, 0, 71, 91
2, 198876, Note_off_c, 0, 71, 0
2, 198960, Note_on_c, 0, 66, 90
2, 199116, Note_off_c, 0, 66, 0
2, 199200, Note_on_c, 0, 71, 90
2, 199356, Note_off_c, 0, 71, 0
2, 199440, Note_on_c, 0, 74, 89
2, 199596, Note_off_c, 0, 74, 0
2, 199680, Note_on_c, 0, 71, 89
2, 199836, Note_off_c, 0, 71, 0
2, 199920, Note_on_c, 0, 74, 88
2, 200076, Note_off_c, 0, 74, 0
2, 200160, Note_on_c, 0, 78, 88
2, 200256, Note_off_c, 0, 78, 0
2, 200280, Note_on_c, 0, 76, 87
2, 200376, Note_off_c, 0, 76, 0
2, 200400, Note_on_c, 0, 74, 87
2, 200496, Note_off_c, 0, 74, 0
2, 200520, Note_on_c, 0, 73, 87
2, 200616, Note_off_c, 0, 73, 0
2, 200640, Note_on_c, 0, 71, 87
2, 200736, Note_off_c, 0, 71, 0
2, 200760, Note_on_c, 0, 70, 86
2, 200856, Note_off_c, 0, 70, 0
2, 200880, Note_on_c, 0, 74, 86
2, 200976, Note_off_c, 0, 74, 0
2, 201000, Note_on_c, 0, 73, 86
2, 201096, Note_off_c, 0, 73, 0
2, 201120, Note_on_c, 0, 71, 86
2, 201216, Note_off_c, 0, 71, 0
2, 201240, Note_on_c, 0, 69, 85
2, 201336, Note_off_c, 0, 69, 0
2, 201360, Note_on_c, 0, 67, 85
2, 201456, Note_off_c, 0, 67, 0
2, 201480, Note_on_c, 0, 66, 85
2, 201576, Note_off_c, 0, 66, 0
2, 201600, Note_on_c, 0, 64, 85
2, 201756, Note_off_c, 0, 64, 0
2, 201840, Note_on_c, 0, 59, 84
2, 201996, Note_off_c, 0, 59, 0
2, 202080, Note_on_c, 0, 64, 83
2, 202236, Note_off_c, 0, 64, 0
2, 202320, Note_on_c, 0, 67, 83
2, 202476, Note_off_c, 0, 67, 0
2, 202560, Note_on_c, 0, 64, 82
2, 202716, Note_off_c, 0, 64, 0
2, 202800, Note_on_c, 0, 67, 82
2, 202956, Note_off_c, 0, 67, 0
2, 203040, Note_on_c, 0, 71, 81
2, 203136, Note_off_c, 0, 71, 0
2, 203160, Note_on_c, 0, 69, 81
2, 203256, Note_off_c, 0, 69, 0
2, 203280, Note_on_c, 0, 67, 81
2, 203376, Note_off_c, 0, 67, 0
2, 203400, Note_on_c, 0, 66, 81
2, 203496, Note_off_c, 0, 66, 0
2, 203520, Note_on_c, 0, 64, 80
2, 203616, Note_off_c, 0, 64, 0
2, 203640, Note_on_c, 0, 63, 80
2, 203736, Note_off_c, 0, 63, 0
2, 203760, Note_on_c, 0, 79, 80
2, 203856, Note_off_c, 0, 79, 0
2, 203880, Note_on_c, 0, 78, 80
2, 203976, Note_off_c, 0, 78, 0
2, 204000, Note_on_c, 0, 76, 79
2, 204096, Note_off_c, 0, 76, 0
2, 204120, Note_on_c, 0, 74, 79
2, 204216, Note_off_c, 0, 74, 0
2, 204240, Note_on_c, 0, 73, 79
2, 204336, Note_off_c, 0, 73, 0
2, 204360, Note_on_c, 0, 71, 78
2, 204456, Note_off_c, 0, 71, 0
2, 204480, Note_on_c, 0, 69, 78
2, 204636, Note_off_c, 0, 69, 0
2, 204720, Note_on_c, 0, 64, 78
2, 204876, Note_off_c, 0, 64, 0
2, 204960, Note_on_c, 0, 69, 77
2, 205116, Note_off_c, 0, 69, 0
2, 205200, Note_on_c, 0, 73, 77
2, 205356, Note_off_c, 0, 73, 0
2, 205440, Note_on_c, 0, 69, 76
2, 205596, Note_off_c, 0, 69, 0
2, 205680, Note_on_c, 0, 73, 76
2, 205836, Note_off_c, 0, 73, 0
2, 205920, Note_on_c, 0, 76, 75
2, 206016, Note_off_c, 0, 76, 0
2, 206040, Note_on_c, 0, 78, 75
2, 206136, Note_off_c, 0, 78, 0
2, 206160, Note_on_c, 0, 79, 74
2, 206256, Note_off_c, 0, 79, 0
2, 206280, Note_on_c, 0, 78, 74
2, 206376, Note_off_c, 0, 78, 0
2, 206400, Note_on_c, 0, 76, 74
2, 206496, Note_off_c, 0, 76, 0
2, 206520, Note_on_c, 0, 74, 74
2, 206616, Note_off_c, 0, 74, 0
2, 206640, Note_on_c, 0, 73, 73
2, 206736, Note_off_c, 0, 73, 0
2, 206760, Note_on_c, 0, 71, 73
2, 206856, Note_off_c, 0, 71, 0
2, 206880, Note_on_c, 0, 69, 73
2, 206976, Note_off_c, 0, 69, 0
2, 207000, Note_on_c, 0, 71, 73
2, 207096, Note_off_c, 0, 71, 0
2, 207120, Note_on_c, 0, 67, 72
2, 207216, Note_off_c, 0, 67, 0
2, 207240, Note_on_c, 0, 69, 72
2, 207336, Note_off_c, 0, 69, 0
2, 207360, Note_on_c, 0, 66, 72
2, 207456, Note_off_c, 0, 66, 0
2, 207480, Note_on_c, 0, 69, 72
2, 207576, Note_off_c, 0, 69, 0
2, 207600, Note_on_c, 0, 68, 73
2, 207696, Note_off_c, 0, 68, 0
2, 207720, Note_on_c, 0, 69, 74
2, 207816, Note_off_c, 0, 69, 0
2, 207840, Note_on_c, 0, 71, 74
2, 207936, Note_off_c, 0, 71, 0
2, 207960, Note_on_c, 0, 69, 75
2, 208056, Note_off_c, 0, 69, 0
2, 208080, Note_on_c, 0, 74, 75
2, 208176, Note_off_c, 0, 74, 0
2, 208200, Note_on_c, 0, 69, 76
2, 208296, Note_off_c, 0, 69, 0
2, 208320, Note_on_c, 0, 68, 76
2, 208416, Note_off_c, 0, 68, 0
2, 208440, Note_on_c, 0, 69, 77
2, 208536, Note_off_c, 0, 69, 0
2, 208560, Note_on_c, 0, 71, 78
2, 208656, Note_off_c, 0, 71, 0
2, 208680, Note_on_c, 0, 69, 78
2, 208776, Note_off_c, 0, 69, 0
2, 208800, Note_on_c, 0, 64, 82
2, 208896, Note_off_c, 0, 64, 0
2, 208920, Note_on_c, 0, 69, 81
2, 209016, Note_off_c, 0, 69, 0
2, 209040, Note_on_c, 0, 68, 80
2, 209136, Note_off_c, 0, 68, 0
2, 209160, Note_on_c, 0, 69, 79
2, 209256, Note_off_c, 0, 69, 0
2, 209280, Note_on_c, 0, 66, 79
2, 209376, Note_off_c, 0, 66, 0
2, 209400, Note_on_c, 0, 69, 78
2, 209496, Note_off_c, 0, 69, 0
2, 209520, Note_on_c, 0, 67, 77
2, 209616, Note_off_c, 0, 67, 0
2, 209640, Note_on_c, 0, 69, 77
2, 209736, Note_off_c, 0, 69, 0
2, 209760, Note_on_c, 0, 66, 76
2, 209856, Note_off_c, 0, 66, 0
2, 209880, Note_on_c, 0, 69, 75
2, 209976, Note_off_c, 0, 69, 0
2, 210000, Note_on_c, 0, 64, 75
2, 210096, Note_off_c, 0, 64, 0
2, 210120, Note_on_c, 0, 69, 74
2, 210216, Note_off_c, 0, 69, 0
2, 210360, Note_on_c, 0, 81, 59
2, 210456, Note_off_c, 0, 81, 0
2, 210480, Note_on_c, 0, 80, 59
2, 210576, Note_off_c, 0, 80, 0
2, 210600, Note_on_c, 0, 81, 60
2, 210696, Note_off_c, 0, 81, 0
2, 210720, Note_on_c, 0, 83, 61
2, 210816, Note_off_c, 0, 83, 0
2, 210840, Note_on_c, 0, 81, 62
2, 210936, Note_off_c, 0, 81, 0
2, 210960, Note_on_c, 0, 86, 63
2, 211056, Note_off_c, 0, 86, 0
2, 211080, Note_on_c, 0, 81, 64
2, 211176, Note_off_c, 0, 81, 0
2, 211200, Note_on_c, 0, 80, 65
2, 211296, Note_off_c, 0, 80, 0
2, 211320, Note_on_c, 0, 81, 66
2, 211416, Note_off_c, 0, 81, 0
2, 211440, Note_on_c, 0, 83, 67
2, 211536, Note_off_c, 0, 83, 0
2, 211560, Note_on_c, 0, 81, 68
2, 211656, Note_off_c, 0, 81, 0
2, 211680, Note_on_c, 0, 76, 69
2, 211776, Note_off_c, 0, 76, 0
2, 211800, Note_on_c, 0, 81, 71
2, 211896, Note_off_c, 0, 81, 0
2, 211920, Note_on_c, 0, 80, 69
2, 212016, Note_off_c, 0, 80, 0
2, 212040, Note_on_c, 0, 81, 68
2, 212136, Note_off_c, 0, 81, 0
2, 212160, Note_on_c, 0, 78, 66
2, 212256, Note_off_c, 0, 78, 0
2, 212280, Note_on_c, 0, 81, 65
2, 212376, Note_off_c, 0, 81, 0
2, 212400, Note_on_c, 0, 79, 64
2, 212496, Note_off_c, 0, 79, 0
2, 212520, Note_on_c, 0, 81, 63
2, 212616, Note_off_c, 0, 81, 0
2, 212640, Note_on_c, 0, 78, 62
2, 212736, Note_off_c, 0, 78, 0
2, 212760, Note_on_c, 0, 81, 61
2, 212856, Note_off_c, 0, 81, 0
2, 212880, Note_on_c, 0, 76, 60
2, 212976, Note_off_c, 0, 76, 0
2, 213000, Note_on_c, 0, 81, 58
2, 213096, Note_off_c, 0, 81, 0
2, 213240, Note_on_c, 0, 78, 60
2, 213336, Note_off_c, 0, 78, 0
2, 213360, Note_on_c, 0, 79, 61
2, 213456, Note_off_c, 0, 79, 0
2, 213480, Note_on_c, 0, 81, 62
2, 213576, Note_off_c, 0, 81, 0
2, 213600, Note_on_c, 0, 83, 63
2, 213696, Note_off_c, 0, 83, 0
2, 213720, Note_on_c, 0, 85, 64
2, 213816, Note_off_c, 0, 85, 0
2, 213840, Note_on_c, 0, 86, 65
2, 213936, Note_off_c, 0, 86, 0
2, 213960, Note_on_c, 0, 85, 66
2, 214056, Note_off_c, 0, 85, 0
2, 214080, Note_on_c, 0, 83, 67
2, 214176, Note_off_c, 0, 83, 0
2, 214200, Note_on_c, 0, 81, 67
2, 214296, Note_off_c, 0, 81, 0
2, 214320, Note_on_c, 0, 79, 68
2, 214416, Note_off_c, 0, 79, 0
2, 214440, Note_on_c, 0, 78, 69
2, 214536, Note_off_c, 0, 78, 0
2, 214680, Note_on_c, 0, 75, 71
2, 214776, Note_off_c, 0, 75, 0
2, 214800, Note_on_c, 0, 76, 72
2, 214896, Note_off_c, 0, 76, 0
2, 214920, Note_on_c, 0, 78, 73
2, 215016, Note_off_c, 0, 78, 0
2, 215040, Note_on_c, 0, 79, 74
2, 215136, Note_off_c, 0, 79, 0
2, 215160, Note_on_c, 0, 81, 75
2, 215256, Note_off_c, 0, 81, 0
2, 215280, Note_on_c, 0, 83, 76
2, 215376, Note_off_c, 0, 83, 0
2, 215400, Note_on_c, 0, 81, 77
2, 215496, Note_off_c, 0, 81, 0
2, 215520, Note_on_c, 0, 79, 78
2, 215616, Note_off_c, 0, 79, 0
2, 215640, Note_on_c, 0, 78, 79
2, 215736, Note_off_c, 0, 78, 0
2, 215760, Note_on_c, 0, 76, 80
2, 215856, Note_off_c, 0, 76, 0
2, 215880, Note_on_c, 0, 74, 81
2, 215976, Note_off_c, 0, 74, 0
2, 216120, Note_on_c, 0, 68, 81
2, 216216, Note_off_c, 0, 68, 0
2, 216240, Note_on_c, 0, 71, 82
2, 216336, Note_off_c, 0, 71, 0
2, 216360, Note_on_c, 0, 69, 83
2, 216456, Note_off_c, 0, 69, 0
2, 216480, Note_on_c, 0, 73, 84
2, 216576, Note_off_c, 0, 73, 0
2, 216600, Note_on_c, 0, 71, 86
2, 216696, Note_off_c, 0, 71, 0
2, 216720, Note_on_c, 0, 74, 87
2, 216816, Note_off_c, 0, 74, 0
2, 216840, Note_on_c, 0, 73, 88
2, 216936, Note_off_c, 0, 73, 0
2, 216960, Note_on_c, 0, 76, 89
2, 217056, Note_off_c, 0, 76, 0
2, 217080, Note_on_c, 0, 74, 90
2, 217176, Note_off_c, 0, 74, 0
2, 217200, Note_on_c, 0, 78, 92
2, 217296, Note_off_c, 0, 78, 0
2, 217320, Note_on_c, 0, 76, 93
2, 217416, Note_off_c, 0, 76, 0
2, 217440, Note_on_c, 0, 79, 94
2, 217536, Note_off_c, 0, 79, 0
2, 217560, Note_on_c, 0, 78, 95
2, 217656, Note_off_c, 0, 78, 0
2, 217680, Note_on_c, 0, 81, 97
2, 217776, Note_off_c, 0, 81, 0
2, 217800, Note_on_c, 0, 79, 98
2, 217896, Note_off_c, 0, 79, 0
2, 217920, Note_on_c, 0, 83, 99
2, 218016, Note_off_c, 0, 83, 0
2, 218040, Note_on_c, 0, 81, 100
2, 218136, Note_off_c, 0, 81, 0
2, 218160, Note_on_c, 0, 85, 101
2, 218256, Note_off_c, 0, 85, 0
2, 218280, Note_on_c, 0, 83, 103
2, 218376, Note_off_c, 0, 83, 0
2, 218400, Note_on_c, 0, 86, 104
2, 218496, Note_off_c, 0, 86, 0
2, 218520, Note_on_c, 0, 85, 105
2, 218616, Note_off_c, 0, 85, 0
2, 218640, Note_on_c, 0, 88, 106
2, 218736, Note_off_c, 0, 88, 0
2, 218760, Note_on_c, 0, 86, 108
2, 218856, Note_off_c, 0, 86, 0
2, 218880, Note_on_c, 0, 88, 109
2, 219240, Note_off_c, 0, 88, 0
2, 219360, Note_on_c, 0, 83, 106
2, 219480, Note_off_c, 0, 83, 0
2, 219480, Note_on_c, 0, 85, 103
2, 219600, Note_off_c, 0, 85, 0
2, 219600, Note_on_c, 0, 86, 101
2, 219720, Note_off_c, 0, 86, 0
2, 219720, Note_on_c, 0, 80, 98
2, 219840, Note_off_c, 0, 80, 0
2, 219840, Note_on_c, 0, 83, 96
2, 219960, Note_off_c, 0, 83, 0
2, 219960, Note_on_c, 0, 74, 93
2, 220080, Note_off_c, 0, 74, 0
2, 220080, Note_on_c, 0, 77, 90
2, 220200, Note_off_c, 0, 77, 0
2, 220200, Note_on_c, 0, 71, 88
2, 220320, Note_off_c, 0, 71, 0
2, 220320, Note_on_c, 0, 74, 85
2, 221760, Note_off_c, 0, 74, 0
2, 221760, Note_on_c, 0, 78, 77
2, 222480, Note_off_c, 0, 78, 0
2, 222480, Note_on_c, 0, 78, 73
2, 222600, Note_off_c, 0, 78, 0
2, 222600, Note_on_c, 0, 76, 71
2, 222720, Note_off_c, 0, 76, 0
2, 222720, Note_on_c, 0, 74, 70
2, 222840, Note_off_c, 0, 74, 0
2, 222960, Note_on_c, 0, 76, 66
2, 223080, Note_off_c, 0, 76, 0
2, 223200, Note_on_c, 0, 74, 63
2, 223440, Note_off_c, 0, 74, 0
2, 223680, Note_on_c, 0, 80, 89
2, 223800, Note_off_c, 0, 80, 0
2, 223800, Note_on_c, 0, 81, 89
2, 223920, Note_off_c, 0, 81, 0
2, 223920, Note_on_c, 0, 83, 88
2, 224040, Note_off_c, 0, 83, 0
2, 224040, Note_on_c, 0, 81, 88
2, 224160, Note_off_c, 0, 81, 0
2, 224160, Note_on_c, 0, 79, 87
2, 224280, Note_off_c, 0, 79, 0
2, 224280, Note_on_c, 0, 78, 87
2, 224400, Note_off_c, 0, 78, 0
2, 224400, Note_on_c, 0, 76, 86
2, 224520, Note_off_c, 0, 76, 0
2, 224520, Note_on_c, 0, 74, 86
2, 224640, Note_off_c, 0, 74, 0
2, 224640, Note_on_c, 0, 73, 86
2, 224760, Note_off_c, 0, 73, 0
2, 224760, Note_on_c, 0, 74, 85
2, 224880, Note_off_c, 0, 74, 0
2, 224880, Note_on_c, 0, 75, 85
2, 225000, Note_off_c, 0, 75, 0
2, 225000, Note_on_c, 0, 76, 84
2, 225120, Note_off_c, 0, 76, 0
2, 225120, Note_on_c, 0, 77, 84
2, 225240, Note_off_c, 0, 77, 0
2, 225240, Note_on_c, 0, 78, 83
2, 225360, Note_off_c, 0, 78, 0
2, 225360, Note_on_c, 0, 79, 83
2, 225480, Note_off_c, 0, 79, 0
2, 225480, Note_on_c, 0, 80, 82
2, 225600, Note_off_c, 0, 80, 0
2, 225600, Note_on_c, 0, 81, 82
2, 225720, Note_off_c, 0, 81, 0
2, 225720, Note_on_c, 0, 82, 82
2, 225840, Note_off_c, 0, 82, 0
2, 225840, Note_on_c, 0, 83, 81
2, 225960, Note_off_c, 0, 83, 0
2, 225960, Note_on_c, 0, 79, 81
2, 226080, Note_off_c, 0, 79, 0
2, 226080, Note_on_c, 0, 78, 80
2, 226320, Note_off_c, 0, 78, 0
2, 226560, Note_on_c, 0, 80, 75
2, 226680, Note_off_c, 0, 80, 0
2, 226680, Note_on_c, 0, 81, 75
2, 226800, Note_off_c, 0, 81, 0
2, 226800, Note_on_c, 0, 83, 74
2, 226920, Note_off_c, 0, 83, 0
2, 226920, Note_on_c, 0, 81, 74
2, 227040, Note_off_c, 0, 81, 0
2, 227040, Note_on_c, 0, 79, 73
2, 227160, Note_off_c, 0, 79, 0
2, 227160, Note_on_c, 0, 78, 73
2, 227280, Note_off_c, 0, 78, 0
2, 227280, Note_on_c, 0, 76, 72
2, 227400, Note_off_c, 0, 76, 0
2, 227400, Note_on_c, 0, 74, 72
2, 227520, Note_off_c, 0, 74, 0
2, 227520, Note_on_c, 0, 73, 71
2, 227640, Note_off_c, 0, 73, 0
2, 227640, Note_on_c, 0, 74, 71
2, 227760, Note_off_c, 0, 74, 0
2, 227760, Note_on_c, 0, 75, 71
2, 227880, Note_off_c, 0, 75, 0
2, 227880, Note_on_c, 0, 76, 70
2, 228000, Note_off_c, 0, 76, 0
2, 228000, Note_on_c, 0, 77, 70
2, 228120, Note_off_c, 0, 77, 0
2, 228120, Note_on_c, 0, 78, 69
2, 228240, Note_off_c, 0, 78, 0
2, 228240, Note_on_c, 0, 79, 69
2, 228360, Note_off_c, 0, 79, 0
2, 228360, Note_on_c, 0, 81, 68
2, 228480, Note_off_c, 0, 81, 0
2, 228480, Note_on_c, 0, 83, 68
2, 228600, Note_off_c, 0, 83, 0
2, 228600, Note_on_c, 0, 79, 67
2, 228720, Note_off_c, 0, 79, 0
2, 228720, Note_on_c, 0, 76, 67
2, 228840, Note_off_c, 0, 76, 0
2, 228840, Note_on_c, 0, 73, 66
2, 228960, Note_off_c, 0, 73, 0
2, 228960, Note_on_c, 0, 74, 66
2, 229200, Note_off_c, 0, 74, 0
2, 229200, Note_on_c, 0, 69, 66
2, 229440, Note_off_c, 0, 69, 0
2, 229440, Note_on_c, 0, 78, 63
2, 229680, Note_off_c, 0, 78, 0
2, 229680, Note_on_c, 0, 74, 61
2, 229920, Note_off_c, 0, 74, 0
2, 229920, Note_on_c, 0, 69, 58
2, 230160, Note_off_c, 0, 69, 0
2, 230160, Note_on_c, 0, 78, 56
2, 230400, Note_off_c, 0, 78, 0
2, 230400, Note_on_c, 0, 74, 53
2, 230880, Note_off_c, 0, 74, 0
2, 231840, Control_c, 0, 7, 117
2, 231840, Control_c, 0, 64, 0
2, 231840, Note_on_c, 0, 73, 69
2, 232560, Note_off_c, 0, 73, 0
2, 232560, Note_on_c, 0, 74, 60
2, 232620, Note_off_c, 0, 74, 0
2, 232620, Note_on_c, 0, 73, 62
2, 232680, Note_off_c, 0, 73, 0
2, 232680, Note_on_c, 0, 71, 63
2, 232740, Note_off_c, 0, 71, 0
2, 232740, Note_on_c, 0, 73, 64
2, 232800, Note_off_c, 0, 73, 0
2, 232800, Note_on_c, 0, 76, 66
2, 233280, Note_off_c, 0, 76, 0
2, 233280, Note_on_c, 0, 74, 64
2, 233760, Note_off_c, 0, 74, 0
2, 233760, Note_on_c, 0, 71, 62
2, 234240, Note_off_c, 0, 71, 0
2, 234240, Note_on_c, 0, 68, 60
2, 234720, Note_off_c, 0, 68, 0
2, 234720, Note_on_c, 0, 69, 59
2, 235440, Note_off_c, 0, 69, 0
2, 235440, Note_on_c, 0, 73, 67
2, 235560, Note_off_c, 0, 73, 0
2, 235560, Note_on_c, 0, 69, 68
2, 235680, Note_off_c, 0, 69, 0
2, 235680, Note_on_c, 0, 76, 71
2, 237830, Note_off_c, 0, 76, 0
2, 237840, Note_on_c, 0, 81, 67
2, 238080, Note_off_c, 0, 81, 0
2, 238080, Note_on_c, 0, 80, 66
2, 238320, Note_off_c, 0, 80, 0
2, 238320, Note_on_c, 0, 79, 66
2, 238560, Note_off_c, 0, 79, 0
2, 238560, Note_on_c, 0, 77, 65
2, 238800, Note_off_c, 0, 77, 0
2, 238800, Note_on_c, 0, 78, 64
2, 239040, Note_off_c, 0, 78, 0
2, 239040, Note_on_c, 0, 76, 64
2, 239280, Note_off_c, 0, 76, 0
2, 239280, Note_on_c, 0, 74, 63
2, 239520, Note_off_c, 0, 74, 0
2, 239520, Note_on_c, 0, 73, 63
2, 239760, Note_off_c, 0, 73, 0
2, 239760, Note_on_c, 0, 71, 62
2, 240000, Note_off_c, 0, 71, 0
2, 240000, Note_on_c, 0, 74, 62
2, 240240, Note_off_c, 0, 74, 0
2, 240240, Note_on_c, 0, 78, 61
2, 240480, Note_off_c, 0, 78, 0
2, 240480, Note_on_c, 0, 69, 61
2, 241200, Note_off_c, 0, 69, 0
2, 241200, Note_on_c, 0, 71, 56
2, 241320, Note_off_c, 0, 71, 0
2, 241320, Note_on_c, 0, 69, 54
2, 241440, Note_off_c, 0, 69, 0
2, 241440, Note_on_c, 0, 68, 53
2, 241630, Note_off_c, 0, 68, 0
2, 241680, Note_on_c, 0, 64, 51
2, 241920, Note_off_c, 0, 64, 0
2, 241920, Note_on_c, 0, 66, 53
2, 242160, Note_off_c, 0, 66, 0
2, 242160, Note_on_c, 0, 68, 55
2, 242400, Note_off_c, 0, 68, 0
2, 242400, Note_on_c, 0, 69, 57
2, 242640, Note_off_c, 0, 69, 0
2, 242640, Note_on_c, 0, 70, 59
2, 242880, Note_off_c, 0, 70, 0
2, 242880, Note_on_c, 0, 71, 61
2, 243120, Note_off_c, 0, 71, 0
2, 243120, Note_on_c, 0, 72, 63
2, 243336, Note_off_c, 0, 72, 0
2, 243360, Note_on_c, 0, 73, 69
2, 244080, Note_off_c, 0, 73, 0
2, 244080, Note_on_c, 0, 74, 60
2, 244140, Note_off_c, 0, 74, 0
2, 244140, Note_on_c, 0, 73, 62
2, 244200, Note_off_c, 0, 73, 0
2, 244200, Note_on_c, 0, 71, 63
2, 244260, Note_off_c, 0, 71, 0
2, 244260, Note_on_c, 0, 73, 65
2, 244320, Note_off_c, 0, 73, 0
2, 244320, Note_on_c, 0, 76, 66
2, 244800, Note_off_c, 0, 76, 0
2, 244800, Note_on_c, 0, 74, 65
2, 245280, Note_off_c, 0, 74, 0
2, 245280, Note_on_c, 0, 71, 63
2, 245760, Note_off_c, 0, 71, 0
2, 245760, Note_on_c, 0, 68, 62
2, 246240, Note_off_c, 0, 68, 0
2, 246240, Note_on_c, 0, 69, 60
2, 246960, Note_off_c, 0, 69, 0
2, 246960, Note_on_c, 0, 73, 67
2, 247080, Note_off_c, 0, 73, 0
2, 247080, Note_on_c, 0, 69, 70
2, 247200, Note_off_c, 0, 69, 0
2, 247200, Note_on_c, 0, 77, 73
2, 248400, Note_on_c, 0, 78, 71
2, 248415, Note_off_c, 0, 77, 0
2, 248640, Note_off_c, 0, 78, 0
2, 248640, Note_on_c, 0, 80, 70
2, 248880, Note_off_c, 0, 80, 0
2, 248880, Note_on_c, 0, 81, 69
2, 249120, Note_off_c, 0, 81, 0
2, 249120, Note_on_c, 0, 81, 69
2, 249720, Note_off_c, 0, 81, 0
2, 249720, Note_on_c, 0, 83, 67
2, 249840, Note_off_c, 0, 83, 0
2, 249840, Note_on_c, 0, 85, 67
2, 249960, Note_off_c, 0, 85, 0
2, 249960, Note_on_c, 0, 81, 67
2, 250080, Note_off_c, 0, 81, 0
2, 250080, Note_on_c, 0, 76, 67
2, 250320, Note_off_c, 0, 76, 0
2, 250320, Note_on_c, 0, 81, 62
2, 250560, Note_off_c, 0, 81, 0
2, 250560, Note_on_c, 0, 73, 64
2, 250800, Note_off_c, 0, 73, 0
2, 250800, Note_on_c, 0, 78, 63
2, 251040, Note_off_c, 0, 78, 0
2, 251040, Note_on_c, 0, 76, 62
2, 251280, Note_off_c, 0, 76, 0
2, 251280, Note_on_c, 0, 75, 62
2, 251520, Note_off_c, 0, 75, 0
2, 251520, Note_on_c, 0, 74, 61
2, 251760, Note_off_c, 0, 74, 0
2, 251760, Note_on_c, 0, 71, 60
2, 251964, Note_off_c, 0, 71, 0
2, 252000, Note_on_c, 0, 71, 62
2, 252960, Note_off_c, 0, 71, 0
2, 252960, Note_on_c, 0, 69, 56
2, 253920, Note_off_c, 0, 69, 0
2, 254880, Note_on_c, 0, 74, 73
2, 255480, Note_off_c, 0, 74, 0
2, 255480, Note_on_c, 0, 78, 71
2, 255600, Note_off_c, 0, 78, 0
2, 255600, Note_on_c, 0, 76, 70
2, 255720, Note_off_c, 0, 76, 0
2, 255720, Note_on_c, 0, 78, 70
2, 255840, Note_off_c, 0, 78, 0
2, 255840, Note_on_c, 0, 74, 70
2, 255960, Note_off_c, 0, 74, 0
2, 255960, Note_on_c, 0, 76, 69
2, 256080, Note_off_c, 0, 76, 0
2, 256080, Note_on_c, 0, 73, 69
2, 256200, Note_off_c, 0, 73, 0
2, 256200, Note_on_c, 0, 74, 68
2, 256320, Note_off_c, 0, 74, 0
2, 256320, Note_on_c, 0, 71, 68
2, 256440, Note_off_c, 0, 71, 0
2, 256440, Note_on_c, 0, 73, 67
2, 256560, Note_off_c, 0, 73, 0
2, 256560, Note_on_c, 0, 69, 67
2, 256680, Note_off_c, 0, 69, 0
2, 256680, Note_on_c, 0, 71, 67
2, 256800, Note_off_c, 0, 71, 0
2, 256800, Note_on_c, 0, 68, 64
2, 257280, Note_off_c, 0, 68, 0
2, 257760, Note_on_c, 0, 76, 83
2, 258360, Note_off_c, 0, 76, 0
2, 258360, Note_on_c, 0, 75, 80
2, 258480, Note_off_c, 0, 75, 0
2, 258480, Note_on_c, 0, 78, 80
2, 258600, Note_off_c, 0, 78, 0
2, 258600, Note_on_c, 0, 76, 79
2, 258720, Note_off_c, 0, 76, 0
2, 258720, Note_on_c, 0, 81, 79
2, 258840, Note_off_c, 0, 81, 0
2, 258840, Note_on_c, 0, 80, 78
2, 258960, Note_off_c, 0, 80, 0
2, 258960, Note_on_c, 0, 83, 78
2, 259080, Note_off_c, 0, 83, 0
2, 259080, Note_on_c, 0, 81, 77
2, 259200, Note_off_c, 0, 81, 0
2, 259200, Note_on_c, 0, 85, 77
2, 259320, Note_off_c, 0, 85, 0
2, 259320, Note_on_c, 0, 83, 76
2, 259440, Note_off_c, 0, 83, 0
2, 259440, Note_on_c, 0, 86, 76
2, 259560, Note_off_c, 0, 86, 0
2, 259560, Note_on_c, 0, 85, 75
2, 259680, Note_off_c, 0, 85, 0
2, 259680, Note_on_c, 0, 88, 72
2, 260160, Note_off_c, 0, 88, 0
2, 260640, Note_on_c, 0, 81, 83
2, 261240, Note_off_c, 0, 81, 0
2, 261240, Note_on_c, 0, 85, 80
2, 261360, Note_off_c, 0, 85, 0
2, 261360, Note_on_c, 0, 83, 80
2, 261480, Note_off_c, 0, 83, 0
2, 261480, Note_on_c, 0, 85, 79
2, 261600, Note_off_c, 0, 85, 0
2, 261600, Note_on_c, 0, 81, 79
2, 261720, Note_off_c, 0, 81, 0
2, 261720, Note_on_c, 0, 83, 78
2, 261840, Note_off_c, 0, 83, 0
2, 261840, Note_on_c, 0, 80, 78
2, 261960, Note_off_c, 0, 80, 0
2, 261960, Note_on_c, 0, 81, 77
2, 262080, Note_off_c, 0, 81, 0
2, 262080, Note_on_c, 0, 78, 77
2, 262200, Note_off_c, 0, 78, 0
2, 262200, Note_on_c, 0, 80, 76
2, 262320, Note_off_c, 0, 80, 0
2, 262320, Note_on_c, 0, 76, 76
2, 262440, Note_off_c, 0, 76, 0
2, 262440, Note_on_c, 0, 78, 75
2, 262560, Note_off_c, 0, 78, 0
2, 262560, Note_on_c, 0, 75, 75
2, 262680, Note_off_c, 0, 75, 0
2, 262680, Note_on_c, 0, 76, 74
2, 262800, Note_off_c, 0, 76, 0
2, 262800, Note_on_c, 0, 78, 74
2, 262920, Note_off_c, 0, 78, 0
2, 262920, Note_on_c, 0, 80, 73
2, 263040, Note_off_c, 0, 80, 0
2, 263040, Note_on_c, 0, 83, 73
2, 263160, Note_off_c, 0, 83, 0
2, 263160, Note_on_c, 0, 81, 72
2, 263280, Note_off_c, 0, 81, 0
2, 263280, Note_on_c, 0, 78, 72
2, 263400, Note_off_c, 0, 78, 0
2, 263400, Note_on_c, 0, 75, 71
2, 263520, Note_off_c, 0, 75, 0
2, 263520, Note_on_c, 0, 78, 71
2, 264720, Note_on_c, 0, 75, 66
2, 264735, Note_off_c, 0, 78, 0
2, 264960, Note_off_c, 0, 75, 0
2, 264960, Note_on_c, 0, 76, 65
2, 265200, Note_off_c, 0, 76, 0
2, 265200, Note_on_c, 0, 77, 64
2, 265440, Note_off_c, 0, 77, 0
2, 265440, Note_on_c, 0, 80, 63
2, 265680, Note_off_c, 0, 80, 0
2, 265680, Note_on_c, 0, 78, 62
2, 265920, Note_off_c, 0, 78, 0
2, 265920, Note_on_c, 0, 76, 61
2, 266160, Note_off_c, 0, 76, 0
2, 266160, Note_on_c, 0, 74, 60
2, 266376, Note_off_c, 0, 74, 0
2, 266400, Note_on_c, 0, 73, 71
2, 267120, Note_off_c, 0, 73, 0
2, 267120, Note_on_c, 0, 74, 64
2, 267180, Note_off_c, 0, 74, 0
2, 267180, Note_on_c, 0, 73, 65
2, 267240, Note_off_c, 0, 73, 0
2, 267240, Note_on_c, 0, 71, 66
2, 267300, Note_off_c, 0, 71, 0
2, 267300, Note_on_c, 0, 73, 67
2, 267360, Note_off_c, 0, 73, 0
2, 267360, Note_on_c, 0, 76, 68
2, 267840, Note_off_c, 0, 76, 0
2, 267840, Note_on_c, 0, 74, 67
2, 268320, Note_off_c, 0, 74, 0
2, 268320, Note_on_c, 0, 71, 65
2, 268800, Note_off_c, 0, 71, 0
2, 268800, Note_on_c, 0, 68, 64
2, 269280, Note_off_c, 0, 68, 0
2, 269280, Note_on_c, 0, 69, 62
2, 270000, Note_off_c, 0, 69, 0
2, 270000, Note_on_c, 0, 73, 69
2, 270120, Note_off_c, 0, 73, 0
2, 270120, Note_on_c, 0, 69, 72
2, 270240, Note_off_c, 0, 69, 0
2, 270240, Note_on_c, 0, 79, 79
2, 272160, Note_off_c, 0, 79, 0
2, 272160, Note_on_c, 0, 77, 72
2, 272280, Note_off_c, 0, 77, 0
2, 272280, Note_on_c, 0, 78, 71
2, 272400, Note_off_c, 0, 78, 0
2, 272400, Note_on_c, 0, 80, 71
2, 272520, Note_off_c, 0, 80, 0
2, 272520, Note_on_c, 0, 78, 70
2, 272640, Note_off_c, 0, 78, 0
2, 272640, Note_on_c, 0, 76, 70
2, 272760, Note_off_c, 0, 76, 0
2, 272760, Note_on_c, 0, 74, 69
2, 272880, Note_off_c, 0, 74, 0
2, 272880, Note_on_c, 0, 73, 69
2, 273000, Note_off_c, 0, 73, 0
2, 273000, Note_on_c, 0, 71, 68
2, 273120, Note_off_c, 0, 71, 0
2, 273120, Note_on_c, 0, 69, 68
2, 273239, Note_off_c, 0, 69, 0
2, 273360, Note_on_c, 0, 73, 67
2, 273479, Note_off_c, 0, 73, 0
2, 273600, Note_on_c, 0, 76, 66
2, 274320, Note_off_c, 0, 76, 0
2, 274320, Note_on_c, 0, 64, 63
2, 274560, Note_off_c, 0, 64, 0
2, 274560, Note_on_c, 0, 66, 62
2, 274800, Note_off_c, 0, 66, 0
2, 274800, Note_on_c, 0, 68, 61
2, 275040, Note_off_c, 0, 68, 0
2, 275040, Note_on_c, 0, 71, 60
2, 276000, Note_off_c, 0, 71, 0
2, 276000, Note_on_c, 0, 69, 54
2, 276435, Note_off_c, 0, 69, 0
2, 276480, Note_on_c, 0, 70, 58
2, 276849, Note_off_c, 0, 70, 0
2, 276960, Note_on_c, 0, 71, 62
2, 277359, Note_off_c, 0, 71, 0
2, 277440, Note_on_c, 0, 72, 66
2, 277794, Note_off_c, 0, 72, 0
2, 277920, Note_on_c, 0, 73, 75
2, 279120, Note_on_c, 0, 78, 70
2, 279134, Note_off_c, 0, 73, 0
2, 279360, Note_off_c, 0, 78, 0
2, 279360, Note_on_c, 0, 81, 66
2, 279491, Note_off_c, 0, 81, 0
2, 279600, Note_on_c, 0, 77, 68
2, 279840, Note_off_c, 0, 77, 0
2, 279840, Note_on_c, 0, 78, 64
2, 279971, Note_off_c, 0, 78, 0
2, 280080, Note_on_c, 0, 72, 66
2, 280320, Note_off_c, 0, 72, 0
2, 280320, Note_on_c, 0, 74, 66
2, 280560, Note_off_c, 0, 74, 0
2, 280560, Note_on_c, 0, 73, 68
2, 280800, Note_off_c, 0, 73, 0
2, 280800, Note_on_c, 0, 73, 70
2, 281760, Note_off_c, 0, 73, 0
2, 282000, Note_on_c, 0, 80, 67
2, 282240, Note_off_c, 0, 80, 0
2, 282240, Note_on_c, 0, 83, 65
2, 282383, Note_off_c, 0, 83, 0
2, 282480, Note_on_c, 0, 77, 66
2, 282720, Note_off_c, 0, 77, 0
2, 282720, Note_on_c, 0, 80, 61
2, 282863, Note_off_c, 0, 80, 0
2, 282960, Note_on_c, 0, 72, 64
2, 283200, Note_off_c, 0, 72, 0
2, 283200, Note_on_c, 0, 74, 65
2, 283440, Note_off_c, 0, 74, 0
2, 283440, Note_on_c, 0, 73, 66
2, 283680, Note_off_c, 0, 73, 0
2, 283920, Note_on_c, 0, 81, 68
2, 284160, Note_off_c, 0, 81, 0
2, 284400, Note_on_c, 0, 80, 70
2, 284640, Note_off_c, 0, 80, 0
2, 284880, Note_on_c, 0, 77, 70
2, 285120, Note_off_c, 0, 77, 0
2, 285120, Note_on_c, 0, 78, 72
2, 285360, Note_off_c, 0, 78, 0
2, 285360, Note_on_c, 0, 80, 74
2, 285600, Note_off_c, 0, 80, 0
2, 285600, Note_on_c, 0, 83, 77
2, 285840, Note_off_c, 0, 83, 0
2, 285840, Note_on_c, 0, 81, 74
2, 286080, Note_off_c, 0, 81, 0
2, 286080, Note_on_c, 0, 80, 72
2, 286320, Note_off_c, 0, 80, 0
2, 286320, Note_on_c, 0, 78, 71
2, 286800, Note_off_c, 0, 78, 0
2, 286800, Note_on_c, 0, 77, 67
2, 287040, Note_off_c, 0, 77, 0
2, 287040, Note_on_c, 0, 80, 66
2, 287280, Note_off_c, 0, 80, 0
2, 287280, Note_on_c, 0, 72, 64
2, 287520, Note_off_c, 0, 72, 0
2, 287520, Note_on_c, 0, 73, 61
2, 288000, Note_off_c, 0, 73, 0
2, 289440, Note_on_c, 0, 73, 77
2, 290640, Note_on_c, 0, 78, 70
2, 290750, Note_off_c, 0, 73, 0
2, 290880, Note_off_c, 0, 78, 0
2, 290880, Note_on_c, 0, 81, 64
2, 291011, Note_off_c, 0, 81, 0
2, 291120, Note_on_c, 0, 77, 68
2, 291360, Note_off_c, 0, 77, 0
2, 291360, Note_on_c, 0, 78, 63
2, 291491, Note_off_c, 0, 78, 0
2, 291600, Note_on_c, 0, 72, 62
2, 291840, Note_off_c, 0, 72, 0
2, 291840, Note_on_c, 0, 74, 65
2, 292080, Note_off_c, 0, 74, 0
2, 292080, Note_on_c, 0, 73, 68
2, 292320, Note_off_c, 0, 73, 0
2, 292320, Note_on_c, 0, 73, 75
2, 293280, Note_off_c, 0, 73, 0
2, 293520, Note_on_c, 0, 79, 69
2, 293760, Note_off_c, 0, 79, 0
2, 293760, Note_on_c, 0, 83, 65
2, 293879, Note_off_c, 0, 83, 0
2, 294000, Note_on_c, 0, 76, 67
2, 294240, Note_off_c, 0, 76, 0
2, 294240, Note_on_c, 0, 79, 63
2, 294359, Note_off_c, 0, 79, 0
2, 294480, Note_on_c, 0, 71, 64
2, 294720, Note_off_c, 0, 71, 0
2, 294720, Note_on_c, 0, 74, 65
2, 294960, Note_off_c, 0, 74, 0
2, 294960, Note_on_c, 0, 73, 68
2, 295200, Note_off_c, 0, 73, 0
2, 295440, Note_on_c, 0, 74, 71
2, 295680, Note_off_c, 0, 74, 0
2, 295920, Note_on_c, 0, 75, 76
2, 296160, Note_off_c, 0, 75, 0
2, 296400, Note_on_c, 0, 76, 80
2, 296640, Note_off_c, 0, 76, 0
2, 296880, Note_on_c, 0, 77, 84
2, 297120, Note_off_c, 0, 77, 0
2, 297360, Note_on_c, 0, 78, 87
2, 297600, Note_off_c, 0, 78, 0
2, 297600, Note_on_c, 0, 81, 89
2, 297840, Note_off_c, 0, 81, 0
2, 297840, Note_on_c, 0, 73, 82
2, 298080, Note_off_c, 0, 73, 0
2, 298080, Note_on_c, 0, 74, 82
2, 298200, Note_off_c, 0, 74, 0
2, 298200, Note_on_c, 0, 76, 82
2, 298320, Note_off_c, 0, 76, 0
2, 298320, Note_on_c, 0, 74, 83
2, 298440, Note_off_c, 0, 74, 0
2, 298440, Note_on_c, 0, 73, 83
2, 298560, Note_off_c, 0, 73, 0
2, 298560, Note_on_c, 0, 74, 84
2, 298680, Note_off_c, 0, 74, 0
2, 298680, Note_on_c, 0, 76, 85
2, 298800, Note_off_c, 0, 76, 0
2, 298800, Note_on_c, 0, 78, 85
2, 298920, Note_off_c, 0, 78, 0
2, 298920, Note_on_c, 0, 79, 86
2, 299040, Note_off_c, 0, 79, 0
2, 299040, Note_on_c, 0, 81, 86
2, 299160, Note_off_c, 0, 81, 0
2, 299160, Note_on_c, 0, 83, 87
2, 299280, Note_off_c, 0, 83, 0
2, 299280, Note_on_c, 0, 81, 87
2, 299400, Note_off_c, 0, 81, 0
2, 299400, Note_on_c, 0, 80, 88
2, 299520, Note_off_c, 0, 80, 0
2, 299520, Note_on_c, 0, 81, 89
2, 299640, Note_off_c, 0, 81, 0
2, 299640, Note_on_c, 0, 83, 89
2, 299760, Note_off_c, 0, 83, 0
2, 299760, Note_on_c, 0, 85, 90
2, 299880, Note_off_c, 0, 85, 0
2, 299880, Note_on_c, 0, 86, 90
2, 300000, Note_off_c, 0, 86, 0
2, 300000, Note_on_c, 0, 85, 93
2, 300120, Note_off_c, 0, 85, 0
2, 300120, Note_on_c, 0, 88, 91
2, 300240, Note_off_c, 0, 88, 0
2, 300240, Note_on_c, 0, 85, 90
2, 300360, Note_off_c, 0, 85, 0
2, 300360, Note_on_c, 0, 81, 88
2, 300480, Note_off_c, 0, 81, 0
2, 300480, Note_on_c, 0, 79, 86
2, 300600, Note_off_c, 0, 79, 0
2, 300600, Note_on_c, 0, 81, 84
2, 300696, Note_off_c, 0, 81, 0
2, 300720, Note_on_c, 0, 79, 82
2, 300816, Note_off_c, 0, 79, 0
2, 300840, Note_on_c, 0, 76, 80
2, 300936, Note_off_c, 0, 76, 0
2, 300960, Note_on_c, 0, 74, 60
2, 301056, Note_off_c, 0, 74, 0
2, 301080, Note_on_c, 0, 76, 60
2, 301200, Note_off_c, 0, 76, 0
2, 301200, Note_on_c, 0, 74, 61
2, 301320, Note_off_c, 0, 74, 0
2, 301320, Note_on_c, 0, 73, 62
2, 301440, Note_off_c, 0, 73, 0
2, 301440, Note_on_c, 0, 74, 63
2, 301560, Note_off_c, 0, 74, 0
2, 301560, Note_on_c, 0, 76, 64
2, 301680, Note_off_c, 0, 76, 0
2, 301680, Note_on_c, 0, 78, 65
2, 301800, Note_off_c, 0, 78, 0
2, 301800, Note_on_c, 0, 79, 66
2, 301920, Note_off_c, 0, 79, 0
2, 301920, Note_on_c, 0, 81, 66
2, 302040, Note_off_c, 0, 81, 0
2, 302040, Note_on_c, 0, 83, 67
2, 302160, Note_off_c, 0, 83, 0
2, 302160, Note_on_c, 0, 81, 68
2, 302280, Note_off_c, 0, 81, 0
2, 302280, Note_on_c, 0, 80, 69
2, 302400, Note_off_c, 0, 80, 0
2, 302400, Note_on_c, 0, 81, 70
2, 302520, Note_off_c, 0, 81, 0
2, 302520, Note_on_c, 0, 83, 71
2, 302640, Note_off_c, 0, 83, 0
2, 302640, Note_on_c, 0, 85, 71
2, 302760, Note_off_c, 0, 85, 0
2, 302760, Note_on_c, 0, 86, 72
2, 302880, Note_off_c, 0, 86, 0
2, 302880, Note_on_c, 0, 85, 75
2, 303000, Note_off_c, 0, 85, 0
2, 303000, Note_on_c, 0, 88, 74
2, 303120, Note_off_c, 0, 88, 0
2, 303120, Note_on_c, 0, 85, 72
2, 303240, Note_off_c, 0, 85, 0
2, 303240, Note_on_c, 0, 81, 70
2, 303360, Note_off_c, 0, 81, 0
2, 303360, Note_on_c, 0, 79, 68
2, 303480, Note_off_c, 0, 79, 0
2, 303480, Note_on_c, 0, 81, 67
2, 303576, Note_off_c, 0, 81, 0
2, 303600, Note_on_c, 0, 79, 65
2, 303696, Note_off_c, 0, 79, 0
2, 303720, Note_on_c, 0, 76, 63
2, 303816, Note_off_c, 0, 76, 0
2, 303840, Note_on_c, 0, 74, 62
2, 304320, Note_off_c, 0, 74, 0
2, 306840, Note_on_c, 0, 71, 73
2, 306960, Note_off_c, 0, 71, 0
2, 306960, Note_on_c, 0, 73, 74
2, 307080, Note_off_c, 0, 73, 0
2, 307080, Note_on_c, 0, 75, 75
2, 307200, Note_off_c, 0, 75, 0
2, 307200, Note_on_c, 0, 76, 76
2, 307320, Note_off_c, 0, 76, 0
2, 307320, Note_on_c, 0, 78, 77
2, 307440, Note_off_c, 0, 78, 0
2, 307440, Note_on_c, 0, 80, 78
2, 307560, Note_off_c, 0, 80, 0
2, 307560, Note_on_c, 0, 82, 79
2, 307680, Note_off_c, 0, 82, 0
2, 307680, Note_on_c, 0, 83, 81
2, 307800, Note_off_c, 0, 83, 0
2, 307800, Note_on_c, 0, 81, 81
2, 307920, Note_off_c, 0, 81, 0
2, 307920, Note_on_c, 0, 84, 80
2, 308016, Note_off_c, 0, 84, 0
2, 308040, Note_on_c, 0, 83, 79
2, 308136, Note_off_c, 0, 83, 0
2, 308160, Note_on_c, 0, 81, 78
2, 308256, Note_off_c, 0, 81, 0
2, 308280, Note_on_c, 0, 79, 77
2, 308376, Note_off_c, 0, 79, 0
2, 308400, Note_on_c, 0, 78, 77
2, 308496, Note_off_c, 0, 78, 0
2, 308520, Note_on_c, 0, 76, 76
2, 308616, Note_off_c, 0, 76, 0
2, 308640, Note_on_c, 0, 75, 75
2, 308760, Note_off_c, 0, 75, 0
2, 308760, Note_on_c, 0, 76, 74
2, 308880, Note_off_c, 0, 76, 0
2, 308880, Note_on_c, 0, 78, 72
2, 308976, Note_off_c, 0, 78, 0
2, 309000, Note_on_c, 0, 76, 71
2, 309096, Note_off_c, 0, 76, 0
2, 309120, Note_on_c, 0, 75, 70
2, 309216, Note_off_c, 0, 75, 0
2, 309240, Note_on_c, 0, 72, 69
2, 309336, Note_off_c, 0, 72, 0
2, 309360, Note_on_c, 0, 71, 68
2, 309456, Note_off_c, 0, 71, 0
2, 309480, Note_on_c, 0, 69, 66
2, 309576, Note_off_c, 0, 69, 0
2, 309600, Note_on_c, 0, 67, 65
2, 310080, Note_off_c, 0, 67, 0
2, 312600, Note_on_c, 0, 73, 60
2, 312720, Note_off_c, 0, 73, 0
2, 312720, Note_on_c, 0, 75, 62
2, 312840, Note_off_c, 0, 75, 0
2, 312840, Note_on_c, 0, 77, 63
2, 312960, Note_off_c, 0, 77, 0
2, 312960, Note_on_c, 0, 78, 64
2, 313080, Note_off_c, 0, 78, 0
2, 313080, Note_on_c, 0, 80, 66
2, 313200, Note_off_c, 0, 80, 0
2, 313200, Note_on_c, 0, 82, 67
2, 313320, Note_off_c, 0, 82, 0
2, 313320, Note_on_c, 0, 84, 68
2, 313440, Note_off_c, 0, 84, 0
2, 313440, Note_on_c, 0, 85, 70
2, 313560, Note_off_c, 0, 85, 0
2, 313560, Note_on_c, 0, 83, 71
2, 313680, Note_off_c, 0, 83, 0
2, 313680, Note_on_c, 0, 86, 68
2, 313776, Note_off_c, 0, 86, 0
2, 313800, Note_on_c, 0, 85, 69
2, 313896, Note_off_c, 0, 85, 0
2, 313920, Note_on_c, 0, 83, 68
2, 314016, Note_off_c, 0, 83, 0
2, 314040, Note_on_c, 0, 81, 67
2, 314136, Note_off_c, 0, 81, 0
2, 314160, Note_on_c, 0, 80, 67
2, 314256, Note_off_c, 0, 80, 0
2, 314280, Note_on_c, 0, 78, 66
2, 314376, Note_off_c, 0, 78, 0
2, 314400, Note_on_c, 0, 77, 65
2, 314520, Note_off_c, 0, 77, 0
2, 314520, Note_on_c, 0, 78, 64
2, 314640, Note_off_c, 0, 78, 0
2, 314640, Note_on_c, 0, 80, 64
2, 314736, Note_off_c, 0, 80, 0
2, 314760, Note_on_c, 0, 78, 63
2, 314856, Note_off_c, 0, 78, 0
2, 314880, Note_on_c, 0, 77, 62
2, 314976, Note_off_c, 0, 77, 0
2, 315000, Note_on_c, 0, 74, 62
2, 315096, Note_off_c, 0, 74, 0
2, 315120, Note_on_c, 0, 73, 61
2, 315216, Note_off_c, 0, 73, 0
2, 315240, Note_on_c, 0, 71, 60
2, 315336, Note_off_c, 0, 71, 0
2, 315360, Note_on_c, 0, 69, 60
2, 315480, Note_off_c, 0, 69, 0
2, 315480, Note_on_c, 0, 66, 61
2, 315600, Note_off_c, 0, 66, 0
2, 315600, Note_on_c, 0, 68, 62
2, 315720, Note_off_c, 0, 68, 0
2, 315720, Note_on_c, 0, 69, 63
2, 315840, Note_off_c, 0, 69, 0
2, 315840, Note_on_c, 0, 71, 64
2, 315960, Note_off_c, 0, 71, 0
2, 315960, Note_on_c, 0, 73, 64
2, 316080, Note_off_c, 0, 73, 0
2, 316080, Note_on_c, 0, 75, 65
2, 316200, Note_off_c, 0, 75, 0
2, 316200, Note_on_c, 0, 77, 66
2, 316320, Note_off_c, 0, 77, 0
2, 316320, Note_on_c, 0, 78, 67
2, 316440, Note_off_c, 0, 78, 0
2, 316440, Note_on_c, 0, 80, 68
2, 316560, Note_off_c, 0, 80, 0
2, 316560, Note_on_c, 0, 78, 69
2, 316680, Note_off_c, 0, 78, 0
2, 316680, Note_on_c, 0, 77, 70
2, 316800, Note_off_c, 0, 77, 0
2, 316800, Note_on_c, 0, 78, 71
2, 316920, Note_off_c, 0, 78, 0
2, 316920, Note_on_c, 0, 80, 71
2, 317040, Note_off_c, 0, 80, 0
2, 317040, Note_on_c, 0, 78, 72
2, 317160, Note_off_c, 0, 78, 0
2, 317160, Note_on_c, 0, 77, 73
2, 317280, Note_off_c, 0, 77, 0
2, 317280, Note_on_c, 0, 78, 74
2, 317400, Note_off_c, 0, 78, 0
2, 317400, Note_on_c, 0, 80, 75
2, 317520, Note_off_c, 0, 80, 0
2, 317520, Note_on_c, 0, 81, 76
2, 317640, Note_off_c, 0, 81, 0
2, 317640, Note_on_c, 0, 80, 77
2, 317760, Note_off_c, 0, 80, 0
2, 317760, Note_on_c, 0, 83, 78
2, 317844, Note_off_c, 0, 83, 0
2, 317880, Note_on_c, 0, 81, 79
2, 317964, Note_off_c, 0, 81, 0
2, 318000, Note_on_c, 0, 80, 79
2, 318084, Note_off_c, 0, 80, 0
2, 318120, Note_on_c, 0, 78, 80
2, 318204, Note_off_c, 0, 78, 0
2, 318240, Note_on_c, 0, 77, 83
2, 318360, Note_off_c, 0, 77, 0
2, 318360, Note_on_c, 0, 78, 82
2, 318480, Note_off_c, 0, 78, 0
2, 318480, Note_on_c, 0, 80, 82
2, 318576, Note_off_c, 0, 80, 0
2, 318600, Note_on_c, 0, 78, 81
2, 318696, Note_off_c, 0, 78, 0
2, 318720, Note_on_c, 0, 77, 80
2, 318816, Note_off_c, 0, 77, 0
2, 318840, Note_on_c, 0, 75, 79
2, 318936, Note_off_c, 0, 75, 0
2, 318960, Note_on_c, 0, 73, 78
2, 319056, Note_off_c, 0, 73, 0
2, 319080, Note_on_c, 0, 72, 77
2, 319176, Note_off_c, 0, 72, 0
2, 319200, Note_on_c, 0, 73, 76
2, 319320, Note_off_c, 0, 73, 0
2, 319320, Note_on_c, 0, 71, 75
2, 319440, Note_off_c, 0, 71, 0
2, 319440, Note_on_c, 0, 74, 74
2, 319536, Note_off_c, 0, 74, 0
2, 319560, Note_on_c, 0, 73, 73
2, 319656, Note_off_c, 0, 73, 0
2, 319680, Note_on_c, 0, 71, 72
2, 319776, Note_off_c, 0, 71, 0
2, 319800, Note_on_c, 0, 69, 71
2, 319896, Note_off_c, 0, 69, 0
2, 319920, Note_on_c, 0, 68, 71
2, 320016, Note_off_c, 0, 68, 0
2, 320040, Note_on_c, 0, 66, 70
2, 320136, Note_off_c, 0, 66, 0
2, 320160, Note_on_c, 0, 65, 69
2, 320280, Note_off_c, 0, 65, 0
2, 321120, Note_on_c, 0, 73, 79
2, 322320, Note_on_c, 0, 78, 73
2, 322454, Note_off_c, 0, 73, 0
2, 322560, Note_off_c, 0, 78, 0
2, 322560, Note_on_c, 0, 81, 71
2, 322679, Note_off_c, 0, 81, 0
2, 322800, Note_on_c, 0, 77, 71
2, 323040, Note_off_c, 0, 77, 0
2, 323040, Note_on_c, 0, 78, 66
2, 323159, Note_off_c, 0, 78, 0
2, 323280, Note_on_c, 0, 72, 70
2, 323520, Note_off_c, 0, 72, 0
2, 323520, Note_on_c, 0, 74, 72
2, 323760, Note_off_c, 0, 74, 0
2, 323760, Note_on_c, 0, 73, 74
2, 324000, Note_off_c, 0, 73, 0
2, 324000, Note_on_c, 0, 73, 77
2, 324960, Note_off_c, 0, 73, 0
2, 325200, Note_on_c, 0, 80, 72
2, 325440, Note_off_c, 0, 80, 0
2, 325440, Note_on_c, 0, 83, 69
2, 325559, Note_off_c, 0, 83, 0
2, 325680, Note_on_c, 0, 77, 70
2, 325920, Note_off_c, 0, 77, 0
2, 325920, Note_on_c, 0, 80, 67
2, 326039, Note_off_c, 0, 80, 0
2, 326160, Note_on_c, 0, 72, 66
2, 326400, Note_off_c, 0, 72, 0
2, 326400, Note_on_c, 0, 74, 68
2, 326640, Note_off_c, 0, 74, 0
2, 326640, Note_on_c, 0, 73, 71
2, 326880, Note_off_c, 0, 73, 0
2, 327120, Note_on_c, 0, 81, 68
2, 327360, Note_off_c, 0, 81, 0
2, 327600, Note_on_c, 0, 80, 70
2, 327840, Note_off_c, 0, 80, 0
2, 328080, Note_on_c, 0, 77, 73
2, 328320, Note_off_c, 0, 77, 0
2, 328320, Note_on_c, 0, 78, 74
2, 328560, Note_off_c, 0, 78, 0
2, 328560, Note_on_c, 0, 80, 75
2, 328800, Note_off_c, 0, 80, 0
2, 328800, Note_on_c, 0, 83, 76
2, 329040, Note_off_c, 0, 83, 0
2, 329040, Note_on_c, 0, 81, 72
2, 329280, Note_off_c, 0, 81, 0
2, 329280, Note_on_c, 0, 80, 71
2, 329520, Note_off_c, 0, 80, 0
2, 329520, Note_on_c, 0, 78, 69
2, 330000, Note_off_c, 0, 78, 0
2, 330000, Note_on_c, 0, 77, 67
2, 330240, Note_off_c, 0, 77, 0
2, 330240, Note_on_c, 0, 80, 61
2, 330432, Note_off_c, 0, 80, 0
2, 330480, Note_on_c, 0, 72, 60
2, 330720, Note_off_c, 0, 72, 0
2, 330720, Note_on_c, 0, 73, 57
2, 331200, Note_off_c, 0, 73, 0
2, 332640, Note_on_c, 0, 73, 75
2, 333840, Note_on_c, 0, 78, 68
2, 333946, Note_off_c, 0, 73, 0
2, 334080, Note_off_c, 0, 78, 0
2, 334080, Note_on_c, 0, 81, 64
2, 334235, Note_off_c, 0, 81, 0
2, 334320, Note_on_c, 0, 77, 65
2, 334560, Note_off_c, 0, 77, 0
2, 334560, Note_on_c, 0, 78, 60
2, 334715, Note_off_c, 0, 78, 0
2, 334800, Note_on_c, 0, 72, 62
2, 335040, Note_off_c, 0, 72, 0
2, 335040, Note_on_c, 0, 74, 64
2, 335280, Note_off_c, 0, 74, 0
2, 335280, Note_on_c, 0, 73, 67
2, 335520, Note_off_c, 0, 73, 0
2, 335520, Note_on_c, 0, 73, 77
2, 336480, Note_off_c, 0, 73, 0
2, 336720, Note_on_c, 0, 79, 72
2, 336960, Note_off_c, 0, 79, 0
2, 336960, Note_on_c, 0, 82, 68
2, 337115, Note_off_c, 0, 82, 0
2, 337200, Note_on_c, 0, 76, 70
2, 337440, Note_off_c, 0, 76, 0
2, 337440, Note_on_c, 0, 79, 67
2, 337595, Note_off_c, 0, 79, 0
2, 337680, Note_on_c, 0, 73, 68
2, 337920, Note_off_c, 0, 73, 0
2, 337920, Note_on_c, 0, 76, 67
2, 338160, Note_off_c, 0, 76, 0
2, 338160, Note_on_c, 0, 70, 64
2, 338400, Note_off_c, 0, 70, 0
2, 338640, Note_on_c, 0, 71, 67
2, 338880, Note_off_c, 0, 71, 0
2, 339120, Note_on_c, 0, 72, 70
2, 339360, Note_off_c, 0, 72, 0
2, 339600, Note_on_c, 0, 73, 73
2, 339840, Note_off_c, 0, 73, 0
2, 339840, Note_on_c, 0, 78, 75
2, 340080, Note_off_c, 0, 78, 0
2, 340080, Note_on_c, 0, 69, 76
2, 340320, Note_off_c, 0, 69, 0
2, 340320, Note_on_c, 0, 73, 76
2, 340560, Note_off_c, 0, 73, 0
2, 340560, Note_on_c, 0, 66, 72
2, 340800, Note_off_c, 0, 66, 0
2, 340800, Note_on_c, 0, 71, 69
2, 341040, Note_off_c, 0, 71, 0
2, 341040, Note_on_c, 0, 65, 65
2, 341280, Note_off_c, 0, 65, 0
2, 341280, Note_on_c, 0, 66, 74
2, 341520, Note_off_c, 0, 66, 0
2, 341520, Note_on_c, 0, 68, 75
2, 341640, Note_off_c, 0, 68, 0
2, 341640, Note_on_c, 0, 69, 76
2, 341760, Note_off_c, 0, 69, 0
2, 341760, Note_on_c, 0, 71, 77
2, 341880, Note_off_c, 0, 71, 0
2, 341880, Note_on_c, 0, 73, 78
2, 342000, Note_off_c, 0, 73, 0
2, 342000, Note_on_c, 0, 75, 79
2, 342120, Note_off_c, 0, 75, 0
2, 342120, Note_on_c, 0, 77, 79
2, 342240, Note_off_c, 0, 77, 0
2, 342240, Note_on_c, 0, 78, 80
2, 342360, Note_off_c, 0, 78, 0
2, 342360, Note_on_c, 0, 80, 81
2, 342480, Note_off_c, 0, 80, 0
2, 342480, Note_on_c, 0, 81, 82
2, 342600, Note_off_c, 0, 81, 0
2, 342600, Note_on_c, 0, 83, 82
2, 342720, Note_off_c, 0, 83, 0
2, 342720, Note_on_c, 0, 85, 83
2, 342840, Note_off_c, 0, 85, 0
2, 342840, Note_on_c, 0, 81, 83
2, 342960, Note_off_c, 0, 81, 0
2, 342960, Note_on_c, 0, 80, 82
2, 343080, Note_off_c, 0, 80, 0
2, 343080, Note_on_c, 0, 78, 82
2, 343200, Note_off_c, 0, 78, 0
2, 343200, Note_on_c, 0, 77, 81
2, 343320, Note_off_c, 0, 77, 0
2, 343320, Note_on_c, 0, 80, 80
2, 343440, Note_off_c, 0, 80, 0
2, 343440, Note_on_c, 0, 77, 79
2, 343560, Note_off_c, 0, 77, 0
2, 343560, Note_on_c, 0, 73, 78
2, 343680, Note_off_c, 0, 73, 0
2, 343680, Note_on_c, 0, 71, 78
2, 343800, Note_off_c, 0, 71, 0
2, 343800, Note_on_c, 0, 73, 77
2, 343920, Note_off_c, 0, 73, 0
2, 343920, Note_on_c, 0, 71, 76
2, 344040, Note_off_c, 0, 71, 0
2, 344040, Note_on_c, 0, 68, 76
2, 344160, Note_off_c, 0, 68, 0
2, 344160, Note_on_c, 0, 66, 66
2, 344400, Note_off_c, 0, 66, 0
2, 344400, Note_on_c, 0, 68, 66
2, 344520, Note_off_c, 0, 68, 0
2, 344520, Note_on_c, 0, 69, 66
2, 344640, Note_off_c, 0, 69, 0
2, 344640, Note_on_c, 0, 71, 66
2, 344760, Note_off_c, 0, 71, 0
2, 344760, Note_on_c, 0, 73, 67
2, 344880, Note_off_c, 0, 73, 0
2, 344880, Note_on_c, 0, 75, 67
2, 345000, Note_off_c, 0, 75, 0
2, 345000, Note_on_c, 0, 77, 67
2, 345120, Note_off_c, 0, 77, 0
2, 345120, Note_on_c, 0, 78, 67
2, 345240, Note_off_c, 0, 78, 0
2, 345240, Note_on_c, 0, 80, 68
2, 345360, Note_off_c, 0, 80, 0
2, 345360, Note_on_c, 0, 81, 68
2, 345480, Note_off_c, 0, 81, 0
2, 345480, Note_on_c, 0, 83, 68
2, 345600, Note_off_c, 0, 83, 0
2, 345600, Note_on_c, 0, 85, 70
2, 345720, Note_off_c, 0, 85, 0
2, 345720, Note_on_c, 0, 81, 70
2, 345840, Note_off_c, 0, 81, 0
2, 345840, Note_on_c, 0, 80, 70
2, 345960, Note_off_c, 0, 80, 0
2, 345960, Note_on_c, 0, 78, 69
2, 346080, Note_off_c, 0, 78, 0
2, 346080, Note_on_c, 0, 77, 69
2, 346200, Note_off_c, 0, 77, 0
2, 346200, Note_on_c, 0, 80, 69
2, 346320, Note_off_c, 0, 80, 0
2, 346320, Note_on_c, 0, 77, 68
2, 346440, Note_off_c, 0, 77, 0
2, 346440, Note_on_c, 0, 73, 68
2, 346560, Note_off_c, 0, 73, 0
2, 346560, Note_on_c, 0, 71, 67
2, 346680, Note_off_c, 0, 71, 0
2, 346680, Note_on_c, 0, 73, 67
2, 346800, Note_off_c, 0, 73, 0
2, 346800, Note_on_c, 0, 71, 67
2, 346920, Note_off_c, 0, 71, 0
2, 346920, Note_on_c, 0, 68, 66
2, 347040, Note_off_c, 0, 68, 0
2, 347040, Note_on_c, 0, 66, 64
2, 348000, Note_off_c, 0, 66, 0
2, 348120, Note_on_c, 0, 66, 77
2, 348240, Note_off_c, 0, 66, 0
2, 348240, Note_on_c, 0, 68, 77
2, 348360, Note_off_c, 0, 68, 0
2, 348360, Note_on_c, 0, 69, 76
2, 348480, Note_off_c, 0, 69, 0
2, 348480, Note_on_c, 0, 71, 75
2, 348600, Note_off_c, 0, 71, 0
2, 348600, Note_on_c, 0, 73, 75
2, 348720, Note_off_c, 0, 73, 0
2, 348720, Note_on_c, 0, 75, 74
2, 348840, Note_off_c, 0, 75, 0
2, 348840, Note_on_c, 0, 77, 73
2, 348960, Note_off_c, 0, 77, 0
2, 348960, Note_on_c, 0, 78, 73
2, 349080, Note_off_c, 0, 78, 0
2, 349080, Note_on_c, 0, 80, 72
2, 349200, Note_off_c, 0, 80, 0
2, 349200, Note_on_c, 0, 81, 72
2, 349320, Note_off_c, 0, 81, 0
2, 349320, Note_on_c, 0, 83, 71
2, 349440, Note_off_c, 0, 83, 0
2, 349440, Note_on_c, 0, 85, 70
2, 349560, Note_off_c, 0, 85, 0
2, 349560, Note_on_c, 0, 81, 70
2, 349680, Note_off_c, 0, 81, 0
2, 349680, Note_on_c, 0, 78, 69
2, 349800, Note_off_c, 0, 78, 0
2, 349800, Note_on_c, 0, 73, 68
2, 349920, Note_off_c, 0, 73, 0
2, 349920, Note_on_c, 0, 74, 68
2, 350400, Note_off_c, 0, 74, 0
2, 351000, Note_on_c, 0, 69, 73
2, 351120, Note_off_c, 0, 69, 0
2, 351120, Note_on_c, 0, 71, 74
2, 351240, Note_off_c, 0, 71, 0
2, 351240, Note_on_c, 0, 73, 75
2, 351360, Note_off_c, 0, 73, 0
2, 351360, Note_on_c, 0, 74, 76
2, 351480, Note_off_c, 0, 74, 0
2, 351480, Note_on_c, 0, 76, 77
2, 351600, Note_off_c, 0, 76, 0
2, 351600, Note_on_c, 0, 77, 78
2, 351720, Note_off_c, 0, 77, 0
2, 351720, Note_on_c, 0, 79, 79
2, 351840, Note_off_c, 0, 79, 0
2, 351840, Note_on_c, 0, 81, 80
2, 351960, Note_off_c, 0, 81, 0
2, 351960, Note_on_c, 0, 74, 81
2, 352080, Note_off_c, 0, 74, 0
2, 352080, Note_on_c, 0, 77, 82
2, 352200, Note_off_c, 0, 77, 0
2, 352200, Note_on_c, 0, 81, 83
2, 352320, Note_off_c, 0, 81, 0
2, 352320, Note_on_c, 0, 86, 84
2, 352440, Note_off_c, 0, 86, 0
2, 352440, Note_on_c, 0, 84, 85
2, 352560, Note_off_c, 0, 84, 0
2, 352560, Note_on_c, 0, 83, 86
2, 352680, Note_off_c, 0, 83, 0
2, 352680, Note_on_c, 0, 81, 87
2, 352800, Note_off_c, 0, 81, 0
2, 352800, Note_on_c, 0, 81, 89
2, 352920, Note_off_c, 0, 81, 0
2, 352920, Note_on_c, 0, 80, 88
2, 353040, Note_off_c, 0, 80, 0
2, 353040, Note_on_c, 0, 83, 87
2, 353160, Note_off_c, 0, 83, 0
2, 353160, Note_on_c, 0, 82, 87
2, 353280, Note_off_c, 0, 82, 0
2, 353280, Note_on_c, 0, 85, 86
2, 353400, Note_off_c, 0, 85, 0
2, 353400, Note_on_c, 0, 83, 85
2, 353520, Note_off_c, 0, 83, 0
2, 353520, Note_on_c, 0, 81, 85
2, 353640, Note_off_c, 0, 81, 0
2, 353640, Note_on_c, 0, 80, 84
2, 353760, Note_off_c, 0, 80, 0
2, 353760, Note_on_c, 0, 78, 83
2, 353880, Note_off_c, 0, 78, 0
2, 353880, Note_on_c, 0, 76, 82
2, 354000, Note_off_c, 0, 76, 0
2, 354000, Note_on_c, 0, 78, 82
2, 354120, Note_off_c, 0, 78, 0
2, 354120, Note_on_c, 0, 77, 81
2, 354240, Note_off_c, 0, 77, 0
2, 354240, Note_on_c, 0, 80, 80
2, 354360, Note_off_c, 0, 80, 0
2, 354360, Note_on_c, 0, 78, 79
2, 354480, Note_off_c, 0, 78, 0
2, 354480, Note_on_c, 0, 76, 79
2, 354600, Note_off_c, 0, 76, 0
2, 354600, Note_on_c, 0, 74, 78
2, 354720, Note_off_c, 0, 74, 0
2, 354720, Note_on_c, 0, 73, 77
2, 354840, Note_off_c, 0, 73, 0
2, 354840, Note_on_c, 0, 71, 76
2, 354960, Note_off_c, 0, 71, 0
2, 354960, Note_on_c, 0, 74, 76
2, 355080, Note_off_c, 0, 74, 0
2, 355080, Note_on_c, 0, 73, 75
2, 355200, Note_off_c, 0, 73, 0
2, 355200, Note_on_c, 0, 76, 74
2, 355320, Note_off_c, 0, 76, 0
2, 355320, Note_on_c, 0, 74, 73
2, 355416, Note_off_c, 0, 74, 0
2, 355440, Note_on_c, 0, 73, 73
2, 355524, Note_off_c, 0, 73, 0
2, 355560, Note_on_c, 0, 72, 72
2, 355644, Note_off_c, 0, 72, 0
2, 355680, Note_on_c, 0, 73, 73
2, 356400, Note_off_c, 0, 73, 0
2, 356400, Note_on_c, 0, 74, 64
2, 356460, Note_off_c, 0, 74, 0
2, 356460, Note_on_c, 0, 73, 65
2, 356520, Note_off_c, 0, 73, 0
2, 356520, Note_on_c, 0, 71, 67
2, 356580, Note_off_c, 0, 71, 0
2, 356580, Note_on_c, 0, 73, 68
2, 356640, Note_off_c, 0, 73, 0
2, 356640, Note_on_c, 0, 76, 69
2, 357120, Note_off_c, 0, 76, 0
2, 357120, Note_on_c, 0, 74, 68
2, 357600, Note_off_c, 0, 74, 0
2, 357600, Note_on_c, 0, 71, 67
2, 358080, Note_off_c, 0, 71, 0
2, 358080, Note_on_c, 0, 68, 65
2, 358560, Note_off_c, 0, 68, 0
2, 358560, Note_on_c, 0, 69, 62
2, 359280, Note_off_c, 0, 69, 0
2, 359280, Note_on_c, 0, 73, 66
2, 359400, Note_off_c, 0, 73, 0
2, 359400, Note_on_c, 0, 69, 69
2, 359520, Note_off_c, 0, 69, 0
2, 359520, Note_on_c, 0, 76, 72
2, 361670, Note_off_c, 0, 76, 0
2, 361680, Note_on_c, 0, 81, 66
2, 361920, Note_off_c, 0, 81, 0
2, 361920, Note_on_c, 0, 80, 65
2, 362160, Note_off_c, 0, 80, 0
2, 362160, Note_on_c, 0, 79, 65
2, 362400, Note_off_c, 0, 79, 0
2, 362400, Note_on_c, 0, 77, 64
2, 362640, Note_off_c, 0, 77, 0
2, 362640, Note_on_c, 0, 78, 63
2, 362880, Note_off_c, 0, 78, 0
2, 362880, Note_on_c, 0, 76, 63
2, 363120, Note_off_c, 0, 76, 0
2, 363120, Note_on_c, 0, 74, 62
2, 363360, Note_off_c, 0, 74, 0
2, 363360, Note_on_c, 0, 73, 62
2, 363600, Note_off_c, 0, 73, 0
2, 363600, Note_on_c, 0, 71, 61
2, 363840, Note_off_c, 0, 71, 0
2, 363840, Note_on_c, 0, 74, 60
2, 364080, Note_off_c, 0, 74, 0
2, 364080, Note_on_c, 0, 78, 60
2, 364320, Note_off_c, 0, 78, 0
2, 364320, Note_on_c, 0, 69, 59
2, 365040, Note_off_c, 0, 69, 0
2, 365040, Note_on_c, 0, 71, 57
2, 365160, Note_off_c, 0, 71, 0
2, 365160, Note_on_c, 0, 69, 56
2, 365280, Note_off_c, 0, 69, 0
2, 365280, Note_on_c, 0, 68, 55
2, 365470, Note_off_c, 0, 68, 0
2, 365520, Note_on_c, 0, 64, 56
2, 365760, Note_off_c, 0, 64, 0
2, 365760, Note_on_c, 0, 66, 57
2, 366000, Note_off_c, 0, 66, 0
2, 366000, Note_on_c, 0, 68, 59
2, 366240, Note_off_c, 0, 68, 0
2, 366240, Note_on_c, 0, 69, 61
2, 366480, Note_off_c, 0, 69, 0
2, 366480, Note_on_c, 0, 70, 63
2, 366720, Note_off_c, 0, 70, 0
2, 366720, Note_on_c, 0, 71, 66
2, 366960, Note_off_c, 0, 71, 0
2, 366960, Note_on_c, 0, 72, 68
2, 367200, Note_off_c, 0, 72, 0
2, 367200, Note_on_c, 0, 73, 71
2, 367920, Note_off_c, 0, 73, 0
2, 367920, Note_on_c, 0, 74, 63
2, 367980, Note_off_c, 0, 74, 0
2, 367980, Note_on_c, 0, 73, 64
2, 368040, Note_off_c, 0, 73, 0
2, 368040, Note_on_c, 0, 71, 65
2, 368100, Note_off_c, 0, 71, 0
2, 368100, Note_on_c, 0, 73, 67
2, 368160, Note_off_c, 0, 73, 0
2, 368160, Note_on_c, 0, 76, 68
2, 368640, Note_off_c, 0, 76, 0
2, 368640, Note_on_c, 0, 74, 66
2, 369120, Note_off_c, 0, 74, 0
2, 369120, Note_on_c, 0, 71, 64
2, 369600, Note_off_c, 0, 71, 0
2, 369600, Note_on_c, 0, 68, 62
2, 370080, Note_off_c, 0, 68, 0
2, 370080, Note_on_c, 0, 69, 60
2, 370800, Note_off_c, 0, 69, 0
2, 370800, Note_on_c, 0, 73, 66
2, 370920, Note_off_c, 0, 73, 0
2, 370920, Note_on_c, 0, 69, 70
2, 371040, Note_off_c, 0, 69, 0
2, 371040, Note_on_c, 0, 77, 74
2, 372240, Note_on_c, 0, 78, 74
2, 372255, Note_off_c, 0, 77, 0
2, 372480, Note_off_c, 0, 78, 0
2, 372480, Note_on_c, 0, 80, 73
2, 372720, Note_off_c, 0, 80, 0
2, 372720, Note_on_c, 0, 81, 73
2, 372936, Note_off_c, 0, 81, 0
2, 372960, Note_on_c, 0, 81, 72
2, 373560, Note_off_c, 0, 81, 0
2, 373560, Note_on_c, 0, 83, 70
2, 373680, Note_off_c, 0, 83, 0
2, 373680, Note_on_c, 0, 85, 70
2, 373800, Note_off_c, 0, 85, 0
2, 373800, Note_on_c, 0, 81, 69
2, 373920, Note_off_c, 0, 81, 0
2, 373920, Note_on_c, 0, 76, 69
2, 374160, Note_off_c, 0, 76, 0
2, 374160, Note_on_c, 0, 81, 66
2, 374364, Note_off_c, 0, 81, 0
2, 374400, Note_on_c, 0, 73, 67
2, 374640, Note_off_c, 0, 73, 0
2, 374640, Note_on_c, 0, 78, 63
2, 374844, Note_off_c, 0, 78, 0
2, 374880, Note_on_c, 0, 76, 66
2, 375120, Note_off_c, 0, 76, 0
2, 375120, Note_on_c, 0, 75, 65
2, 375360, Note_off_c, 0, 75, 0
2, 375360, Note_on_c, 0, 74, 64
2, 375600, Note_off_c, 0, 74, 0
2, 375600, Note_on_c, 0, 71, 63
2, 375840, Note_off_c, 0, 71, 0
2, 375840, Note_on_c, 0, 71, 63
2, 376800, Note_off_c, 0, 71, 0
2, 376800, Note_on_c, 0, 69, 57
2, 377760, Note_off_c, 0, 69, 0
2, 378720, Note_on_c, 0, 74, 75
2, 379320, Note_off_c, 0, 74, 0
2, 379320, Note_on_c, 0, 78, 72
2, 379440, Note_off_c, 0, 78, 0
2, 379440, Note_on_c, 0, 76, 71
2, 379560, Note_off_c, 0, 76, 0
2, 379560, Note_on_c, 0, 78, 71
2, 379680, Note_off_c, 0, 78, 0
2, 379680, Note_on_c, 0, 74, 70
2, 379800, Note_off_c, 0, 74, 0
2, 379800, Note_on_c, 0, 76, 70
2, 379920, Note_off_c, 0, 76, 0
2, 379920, Note_on_c, 0, 73, 69
2, 380040, Note_off_c, 0, 73, 0
2, 380040, Note_on_c, 0, 74, 69
2, 380160, Note_off_c, 0, 74, 0
2, 380160, Note_on_c, 0, 71, 68
2, 380280, Note_off_c, 0, 71, 0
2, 380280, Note_on_c, 0, 73, 67
2, 380400, Note_off_c, 0, 73, 0
2, 380400, Note_on_c, 0, 69, 67
2, 380520, Note_off_c, 0, 69, 0
2, 380520, Note_on_c, 0, 71, 66
2, 380640, Note_off_c, 0, 71, 0
2, 380640, Note_on_c, 0, 68, 66
2, 381120, Note_off_c, 0, 68, 0
2, 381600, Note_on_c, 0, 76, 75
2, 382200, Note_off_c, 0, 76, 0
2, 382200, Note_on_c, 0, 75, 73
2, 382320, Note_off_c, 0, 75, 0
2, 382320, Note_on_c, 0, 78, 72
2, 382440, Note_off_c, 0, 78, 0
2, 382440, Note_on_c, 0, 76, 72
2, 382560, Note_off_c, 0, 76, 0
2, 382560, Note_on_c, 0, 81, 71
2, 382680, Note_off_c, 0, 81, 0
2, 382680, Note_on_c, 0, 80, 71
2, 382800, Note_off_c, 0, 80, 0
2, 382800, Note_on_c, 0, 83, 70
2, 382920, Note_off_c, 0, 83, 0
2, 382920, Note_on_c, 0, 81, 70
2, 383040, Note_off_c, 0, 81, 0
2, 383040, Note_on_c, 0, 85, 69
2, 383160, Note_off_c, 0, 85, 0
2, 383160, Note_on_c, 0, 83, 69
2, 383280, Note_off_c, 0, 83, 0
2, 383280, Note_on_c, 0, 86, 68
2, 383400, Note_off_c, 0, 86, 0
2, 383400, Note_on_c, 0, 85, 68
2, 383520, Note_off_c, 0, 85, 0
2, 383520, Note_on_c, 0, 88, 67
2, 384000, Note_off_c, 0, 88, 0
2, 384480, Note_on_c, 0, 81, 81
2, 385080, Note_off_c, 0, 81, 0
2, 385080, Note_on_c, 0, 85, 78
2, 385200, Note_off_c, 0, 85, 0
2, 385200, Note_on_c, 0, 83, 77
2, 385320, Note_off_c, 0, 83, 0
2, 385320, Note_on_c, 0, 85, 77
2, 385440, Note_off_c, 0, 85, 0
2, 385440, Note_on_c, 0, 81, 76
2, 385560, Note_off_c, 0, 81, 0
2, 385560, Note_on_c, 0, 83, 76
2, 385680, Note_off_c, 0, 83, 0
2, 385680, Note_on_c, 0, 80, 75
2, 385800, Note_off_c, 0, 80, 0
2, 385800, Note_on_c, 0, 81, 75
2, 385920, Note_off_c, 0, 81, 0
2, 385920, Note_on_c, 0, 78, 74
2, 386040, Note_off_c, 0, 78, 0
2, 386040, Note_on_c, 0, 80, 74
2, 386160, Note_off_c, 0, 80, 0
2, 386160, Note_on_c, 0, 76, 73
2, 386280, Note_off_c, 0, 76, 0
2, 386280, Note_on_c, 0, 78, 72
2, 386400, Note_off_c, 0, 78, 0
2, 386400, Note_on_c, 0, 75, 72
2, 386520, Note_off_c, 0, 75, 0
2, 386520, Note_on_c, 0, 76, 71
2, 386640, Note_off_c, 0, 76, 0
2, 386640, Note_on_c, 0, 78, 71
2, 386760, Note_off_c, 0, 78, 0
2, 386760, Note_on_c, 0, 80, 70
2, 386880, Note_off_c, 0, 80, 0
2, 386880, Note_on_c, 0, 83, 70
2, 386976, Note_off_c, 0, 83, 0
2, 387000, Note_on_c, 0, 81, 69
2, 387096, Note_off_c, 0, 81, 0
2, 387120, Note_on_c, 0, 78, 69
2, 387216, Note_off_c, 0, 78, 0
2, 387240, Note_on_c, 0, 75, 68
2, 387336, Note_off_c, 0, 75, 0
2, 387360, Note_on_c, 0, 78, 68
2, 388560, Note_on_c, 0, 75, 66
2, 388575, Note_off_c, 0, 78, 0
2, 388800, Note_off_c, 0, 75, 0
2, 388800, Note_on_c, 0, 76, 65
2, 389040, Note_off_c, 0, 76, 0
2, 389040, Note_on_c, 0, 77, 63
2, 389280, Note_off_c, 0, 77, 0
2, 389280, Note_on_c, 0, 80, 62
2, 389520, Note_off_c, 0, 80, 0
2, 389520, Note_on_c, 0, 78, 61
2, 389760, Note_off_c, 0, 78, 0
2, 389760, Note_on_c, 0, 76, 60
2, 390000, Note_off_c, 0, 76, 0
2, 390000, Note_on_c, 0, 74, 58
2, 390240, Note_off_c, 0, 74, 0
2, 390240, Note_on_c, 0, 73, 75
2, 390960, Note_off_c, 0, 73, 0
2, 390960, Note_on_c, 0, 74, 65
2, 391020, Note_off_c, 0, 74, 0
2, 391020, Note_on_c, 0, 73, 68
2, 391080, Note_off_c, 0, 73, 0
2, 391080, Note_on_c, 0, 71, 70
2, 391140, Note_off_c, 0, 71, 0
2, 391140, Note_on_c, 0, 73, 72
2, 391200, Note_off_c, 0, 73, 0
2, 391200, Note_on_c, 0, 76, 75
2, 391680, Note_off_c, 0, 76, 0
2, 391680, Note_on_c, 0, 74, 68
2, 392160, Note_off_c, 0, 74, 0
2, 392160, Note_on_c, 0, 71, 65
2, 392640, Note_off_c, 0, 71, 0
2, 392640, Note_on_c, 0, 68, 63
2, 393120, Note_off_c, 0, 68, 0
2, 393120, Note_on_c, 0, 69, 63
2, 393840, Note_off_c, 0, 69, 0
2, 393840, Note_on_c, 0, 73, 72
2, 393960, Note_off_c, 0, 73, 0
2, 393960, Note_on_c, 0, 69, 74
2, 394080, Note_off_c, 0, 69, 0
2, 394080, Note_on_c, 0, 79, 76
2, 396000, Note_off_c, 0, 79, 0
2, 396000, Note_on_c, 0, 77, 74
2, 396120, Note_off_c, 0, 77, 0
2, 396120, Note_on_c, 0, 78, 74
2, 396240, Note_off_c, 0, 78, 0
2, 396240, Note_on_c, 0, 80, 73
2, 396360, Note_off_c, 0, 80, 0
2, 396360, Note_on_c, 0, 78, 73
2, 396456, Note_off_c, 0, 78, 0
2, 396480, Note_on_c, 0, 76, 73
2, 396576, Note_off_c, 0, 76, 0
2, 396600, Note_on_c, 0, 74, 72
2, 396696, Note_off_c, 0, 74, 0
2, 396720, Note_on_c, 0, 73, 72
2, 396816, Note_off_c, 0, 73, 0
2, 396840, Note_on_c, 0, 71, 72
2, 396936, Note_off_c, 0, 71, 0
2, 396960, Note_on_c, 0, 69, 71
2, 397079, Note_off_c, 0, 69, 0
2, 397200, Note_on_c, 0, 73, 71
2, 397319, Note_off_c, 0, 73, 0
2, 397440, Note_on_c, 0, 76, 70
2, 398160, Note_off_c, 0, 76, 0
2, 398160, Note_on_c, 0, 64, 68
2, 398400, Note_off_c, 0, 64, 0
2, 398400, Note_on_c, 0, 66, 68
2, 398640, Note_off_c, 0, 66, 0
2, 398640, Note_on_c, 0, 68, 67
2, 398880, Note_off_c, 0, 68, 0
2, 398880, Note_on_c, 0, 69, 73
2, 399840, Note_off_c, 0, 69, 0
2, 400080, Note_on_c, 0, 81, 71
2, 400320, Note_off_c, 0, 81, 0
2, 400320, Note_on_c, 0, 85, 67
2, 400560, Note_off_c, 0, 85, 0
2, 400560, Note_on_c, 0, 76, 68
2, 400800, Note_off_c, 0, 76, 0
2, 400800, Note_on_c, 0, 77, 66
2, 401040, Note_off_c, 0, 77, 0
2, 401040, Note_on_c, 0, 78, 65
2, 401280, Note_off_c, 0, 78, 0
2, 401280, Note_on_c, 0, 81, 63
2, 401520, Note_off_c, 0, 81, 0
2, 401520, Note_on_c, 0, 78, 62
2, 401760, Note_off_c, 0, 78, 0
2, 401760, Note_on_c, 0, 75, 66
2, 402240, Note_off_c, 0, 75, 0
2, 402240, Note_on_c, 0, 76, 59
2, 402720, Note_off_c, 0, 76, 0
2, 402960, Note_on_c, 0, 81, 69
2, 403200, Note_off_c, 0, 81, 0
2, 403200, Note_on_c, 0, 85, 64
2, 403440, Note_off_c, 0, 85, 0
2, 403440, Note_on_c, 0, 76, 68
2, 403680, Note_off_c, 0, 76, 0
2, 403680, Note_on_c, 0, 77, 67
2, 403920, Note_off_c, 0, 77, 0
2, 403920, Note_on_c, 0, 78, 66
2, 404160, Note_off_c, 0, 78, 0
2, 404160, Note_on_c, 0, 81, 66
2, 404400, Note_off_c, 0, 81, 0
2, 404400, Note_on_c, 0, 78, 65
2, 404640, Note_off_c, 0, 78, 0
2, 404640, Note_on_c, 0, 75, 64
2, 404760, Note_off_c, 0, 75, 0
2, 404760, Note_on_c, 0, 76, 64
2, 404880, Note_off_c, 0, 76, 0
2, 404880, Note_on_c, 0, 78, 64
2, 405000, Note_off_c, 0, 78, 0
2, 405000, Note_on_c, 0, 76, 63
2, 405120, Note_off_c, 0, 76, 0
2, 405120, Note_on_c, 0, 74, 63
2, 405240, Note_off_c, 0, 74, 0
2, 405240, Note_on_c, 0, 73, 62
2, 405360, Note_off_c, 0, 73, 0
2, 405360, Note_on_c, 0, 71, 62
2, 405480, Note_off_c, 0, 71, 0
2, 405480, Note_on_c, 0, 69, 62
2, 405600, Note_off_c, 0, 69, 0
2, 405600, Note_on_c, 0, 73, 61
2, 406080, Note_off_c, 0, 73, 0
2, 406560, Note_on_c, 0, 71, 54
2, 406640, Note_off_c, 0, 71, 0
2, 406640, Note_on_c, 0, 73, 54
2, 406720, Note_off_c, 0, 73, 0
2, 406720, Note_on_c, 0, 71, 55
2, 406800, Note_off_c, 0, 71, 0
2, 406800, Note_on_c, 0, 73, 56
2, 406880, Note_off_c, 0, 73, 0
2, 406880, Note_on_c, 0, 71, 56
2, 406960, Note_off_c, 0, 71, 0
2, 406960, Note_on_c, 0, 69, 57
2, 407040, Note_off_c, 0, 69, 0
2, 407040, Note_on_c, 0, 71, 57
2, 407400, Note_off_c, 0, 71, 0
2, 407400, Note_on_c, 0, 73, 59
2, 407520, Note_off_c, 0, 73, 0
2, 407520, Note_on_c, 0, 69, 56
2, 408480, Note_off_c, 0, 69, 0
2, 408720, Note_on_c, 0, 81, 59
2, 408960, Note_off_c, 0, 81, 0
2, 408960, Note_on_c, 0, 85, 56
2, 409200, Note_off_c, 0, 85, 0
2, 409200, Note_on_c, 0, 76, 58
2, 409440, Note_off_c, 0, 76, 0
2, 409440, Note_on_c, 0, 77, 57
2, 409680, Note_off_c, 0, 77, 0
2, 409680, Note_on_c, 0, 78, 57
2, 409920, Note_off_c, 0, 78, 0
2, 409920, Note_on_c, 0, 81, 56
2, 410160, Note_off_c, 0, 81, 0
2, 410160, Note_on_c, 0, 78, 56
2, 410400, Note_off_c, 0, 78, 0
2, 410400, Note_on_c, 0, 75, 57
2, 410880, Note_off_c, 0, 75, 0
2, 410880, Note_on_c, 0, 76, 52
2, 411360, Note_off_c, 0, 76, 0
2, 411600, Note_on_c, 0, 81, 59
2, 411840, Note_off_c, 0, 81, 0
2, 411840, Note_on_c, 0, 85, 55
2, 412080, Note_off_c, 0, 85, 0
2, 412080, Note_on_c, 0, 76, 59
2, 412320, Note_off_c, 0, 76, 0
2, 412320, Note_on_c, 0, 77, 58
2, 412560, Note_off_c, 0, 77, 0
2, 412560, Note_on_c, 0, 78, 58
2, 412800, Note_off_c, 0, 78, 0
2, 412800, Note_on_c, 0, 81, 57
2, 413040, Note_off_c, 0, 81, 0
2, 413040, Note_on_c, 0, 78, 57
2, 413280, Note_off_c, 0, 78, 0
2, 413280, Note_on_c, 0, 75, 56
2, 413400, Note_off_c, 0, 75, 0
2, 413400, Note_on_c, 0, 76, 56
2, 413520, Note_off_c, 0, 76, 0
2, 413520, Note_on_c, 0, 78, 56
2, 413640, Note_off_c, 0, 78, 0
2, 413640, Note_on_c, 0, 76, 56
2, 413760, Note_off_c, 0, 76, 0
2, 413760, Note_on_c, 0, 74, 55
2, 413880, Note_off_c, 0, 74, 0
2, 413880, Note_on_c, 0, 73, 55
2, 414000, Note_off_c, 0, 73, 0
2, 414000, Note_on_c, 0, 71, 55
2, 414120, Note_off_c, 0, 71, 0
2, 414120, Note_on_c, 0, 69, 55
2, 414240, Note_off_c, 0, 69, 0
2, 414240, Note_on_c, 0, 73, 55
2, 414720, Note_off_c, 0, 73, 0
2, 415200, Note_on_c, 0, 71, 51
2, 415280, Note_off_c, 0, 71, 0
2, 415280, Note_on_c, 0, 73, 51
2, 415360, Note_off_c, 0, 73, 0
2, 415360, Note_on_c, 0, 71, 52
2, 415440, Note_off_c, 0, 71, 0
2, 415440, Note_on_c, 0, 73, 53
2, 415520, Note_off_c, 0, 73, 0
2, 415520, Note_on_c, 0, 71, 54
2, 415600, Note_off_c, 0, 71, 0
2, 415600, Note_on_c, 0, 69, 54
2, 415680, Note_off_c, 0, 69, 0
2, 415680, Note_on_c, 0, 71, 55
2, 416040, Note_off_c, 0, 71, 0
2, 416040, Note_on_c, 0, 73, 56
2, 416160, Note_off_c, 0, 73, 0
2, 416160, Note_on_c, 0, 69, 56
2, 416238, Note_off_c, 0, 69, 0
2, 416280, Note_on_c, 0, 64, 57
2, 416358, Note_off_c, 0, 64, 0
2, 416400, Note_on_c, 0, 66, 57
2, 416478, Note_off_c, 0, 66, 0
2, 416520, Note_on_c, 0, 68, 58
2, 416598, Note_off_c, 0, 68, 0
2, 416640, Note_on_c, 0, 69, 58
2, 416718, Note_off_c, 0, 69, 0
2, 416760, Note_on_c, 0, 71, 59
2, 416838, Note_off_c, 0, 71, 0
2, 416880, Note_on_c, 0, 73, 59
2, 416958, Note_off_c, 0, 73, 0
2, 417000, Note_on_c, 0, 74, 59
2, 417078, Note_off_c, 0, 74, 0
2, 417120, Note_on_c, 0, 76, 60
2, 417198, Note_off_c, 0, 76, 0
2, 417240, Note_on_c, 0, 78, 60
2, 417318, Note_off_c, 0, 78, 0
2, 417360, Note_on_c, 0, 80, 61
2, 417438, Note_off_c, 0, 80, 0
2, 417480, Note_on_c, 0, 81, 61
2, 417558, Note_off_c, 0, 81, 0
2, 417600, Note_on_c, 0, 82, 62
2, 417678, Note_off_c, 0, 82, 0
2, 417720, Note_on_c, 0, 83, 62
2, 417798, Note_off_c, 0, 83, 0
2, 417840, Note_on_c, 0, 84, 63
2, 417918, Note_off_c, 0, 84, 0
2, 417960, Note_on_c, 0, 85, 63
2, 418038, Note_off_c, 0, 85, 0
2, 418080, Note_on_c, 0, 86, 64
2, 418560, Note_off_c, 0, 86, 0
2, 418560, Note_on_c, 0, 80, 71
2, 419040, Note_off_c, 0, 80, 0
2, 419040, Note_on_c, 0, 81, 68
2, 419160, Note_off_c, 0, 81, 0
2, 419160, Note_on_c, 0, 85, 68
2, 419280, Note_off_c, 0, 85, 0
2, 419280, Note_on_c, 0, 81, 67
2, 419358, Note_off_c, 0, 81, 0
2, 419400, Note_on_c, 0, 80, 66
2, 419478, Note_off_c, 0, 80, 0
2, 419520, Note_on_c, 0, 78, 65
2, 419598, Note_off_c, 0, 78, 0
2, 419640, Note_on_c, 0, 76, 65
2, 419718, Note_off_c, 0, 76, 0
2, 419760, Note_on_c, 0, 74, 64
2, 419838, Note_off_c, 0, 74, 0
2, 419880, Note_on_c, 0, 73, 63
2, 419958, Note_off_c, 0, 73, 0
2, 420000, Note_on_c, 0, 71, 62
2, 420078, Note_off_c, 0, 71, 0
2, 420120, Note_on_c, 0, 69, 62
2, 420198, Note_off_c, 0, 69, 0
2, 420240, Note_on_c, 0, 68, 61
2, 420318, Note_off_c, 0, 68, 0
2, 420360, Note_on_c, 0, 67, 60
2, 420438, Note_off_c, 0, 67, 0
2, 420480, Note_on_c, 0, 66, 59
2, 420558, Note_off_c, 0, 66, 0
2, 420600, Note_on_c, 0, 65, 58
2, 420678, Note_off_c, 0, 65, 0
2, 420720, Note_on_c, 0, 64, 58
2, 420798, Note_off_c, 0, 64, 0
2, 420840, Note_on_c, 0, 63, 57
2, 420918, Note_off_c, 0, 63, 0
2, 420960, Note_on_c, 0, 62, 56
2, 421440, Note_off_c, 0, 62, 0
2, 421440, Note_on_c, 0, 56, 49
2, 421920, Note_off_c, 0, 56, 0
2, 421920, Note_on_c, 0, 59, 55
2, 422880, Note_off_c, 0, 59, 0
2, 422880, Note_on_c, 0, 57, 44
2, 423360, Note_off_c, 0, 57, 0
2, 425760, Control_c, 0, 7, 127
2, 425760, Note_on_c, 0, 74, 59
2, 426120, Note_off_c, 0, 74, 0
2, 426120, Note_on_c, 0, 76, 58
2, 426180, Note_off_c, 0, 76, 0
2, 426180, Note_on_c, 0, 74, 58
2, 426240, Note_off_c, 0, 74, 0
2, 426240, Note_on_c, 0, 73, 57
2, 426395, Note_off_c, 0, 73, 0
2, 426480, Note_on_c, 0, 74, 57
2, 426635, Note_off_c, 0, 74, 0
2, 426720, Note_on_c, 0, 75, 56
2, 426960, Note_off_c, 0, 75, 0
2, 426960, Note_on_c, 0, 76, 55
2, 427115, Note_off_c, 0, 76, 0
2, 427200, Note_on_c, 0, 76, 51
2, 427440, Note_off_c, 0, 76, 0
2, 427680, Note_on_c, 0, 76, 65
2, 428040, Note_off_c, 0, 76, 0
2, 428040, Note_on_c, 0, 78, 63
2, 428100, Note_off_c, 0, 78, 0
2, 428100, Note_on_c, 0, 76, 62
2, 428160, Note_off_c, 0, 76, 0
2, 428160, Note_on_c, 0, 74, 62
2, 428315, Note_off_c, 0, 74, 0
2, 428400, Note_on_c, 0, 76, 61
2, 428640, Note_off_c, 0, 76, 0
2, 428640, Note_on_c, 0, 77, 59
2, 428880, Note_off_c, 0, 77, 0
2, 428880, Note_on_c, 0, 78, 58
2, 429035, Note_off_c, 0, 78, 0
2, 429120, Note_on_c, 0, 78, 54
2, 429360, Note_off_c, 0, 78, 0
2, 429600, Note_on_c, 0, 81, 75
2, 429780, Note_off_c, 0, 81, 0
2, 429780, Note_on_c, 0, 83, 74
2, 429840, Note_off_c, 0, 83, 0
2, 429840, Note_on_c, 0, 79, 74
2, 430020, Note_off_c, 0, 79, 0
2, 430020, Note_on_c, 0, 81, 73
2, 430080, Note_off_c, 0, 81, 0
2, 430080, Note_on_c, 0, 78, 73
2, 430235, Note_off_c, 0, 78, 0
2, 430320, Note_on_c, 0, 74, 70
2, 430475, Note_off_c, 0, 74, 0
2, 430560, Note_on_c, 0, 79, 70
2, 430740, Note_off_c, 0, 79, 0
2, 430740, Note_on_c, 0, 81, 70
2, 430800, Note_off_c, 0, 81, 0
2, 430800, Note_on_c, 0, 78, 69
2, 430980, Note_off_c, 0, 78, 0
2, 430980, Note_on_c, 0, 79, 68
2, 431040, Note_off_c, 0, 79, 0
2, 431040, Note_on_c, 0, 76, 68
2, 431195, Note_off_c, 0, 76, 0
2, 431280, Note_on_c, 0, 73, 63
2, 431435, Note_off_c, 0, 73, 0
2, 431520, Note_on_c, 0, 74, 66
2, 431675, Note_off_c, 0, 74, 0
2, 431760, Note_on_c, 0, 74, 64
2, 431915, Note_off_c, 0, 74, 0
2, 432000, Note_on_c, 0, 73, 63
2, 432155, Note_off_c, 0, 73, 0
2, 432240, Note_on_c, 0, 73, 62
2, 432395, Note_off_c, 0, 73, 0
2, 432480, Note_on_c, 0, 71, 61
2, 432520, Note_off_c, 0, 71, 0
2, 432520, Note_on_c, 0, 73, 60
2, 432560, Note_off_c, 0, 73, 0
2, 432560, Note_on_c, 0, 71, 60
2, 432660, Note_on_c, 0, 69, 61
2, 432665, Note_off_c, 0, 71, 0
2, 432720, Note_off_c, 0, 69, 0
2, 432720, Note_on_c, 0, 71, 60
2, 432900, Note_off_c, 0, 71, 0
2, 432900, Note_on_c, 0, 73, 56
2, 432960, Note_off_c, 0, 73, 0
2, 432960, Note_on_c, 0, 69, 55
2, 433200, Note_off_c, 0, 69, 0
2, 433440, Note_on_c, 0, 74, 75
2, 433800, Note_off_c, 0, 74, 0
2, 433800, Note_on_c, 0, 76, 74
2, 433860, Note_off_c, 0, 76, 0
2, 433860, Note_on_c, 0, 74, 74
2, 433920, Note_off_c, 0, 74, 0
2, 433920, Note_on_c, 0, 73, 74
2, 434075, Note_off_c, 0, 73, 0
2, 434160, Note_on_c, 0, 74, 73
2, 434315, Note_off_c, 0, 74, 0
2, 434400, Note_on_c, 0, 75, 75
2, 434640, Note_off_c, 0, 75, 0
2, 434640, Note_on_c, 0, 76, 72
2, 434795, Note_off_c, 0, 76, 0
2, 434880, Note_on_c, 0, 76, 69
2, 435120, Note_off_c, 0, 76, 0
2, 435360, Note_on_c, 0, 76, 81
2, 435720, Note_off_c, 0, 76, 0
2, 435720, Note_on_c, 0, 78, 79
2, 435780, Note_off_c, 0, 78, 0
2, 435780, Note_on_c, 0, 76, 79
2, 435840, Note_off_c, 0, 76, 0
2, 435840, Note_on_c, 0, 74, 79
2, 435995, Note_off_c, 0, 74, 0
2, 436080, Note_on_c, 0, 76, 77
2, 436272, Note_off_c, 0, 76, 0
2, 436320, Note_on_c, 0, 77, 77
2, 436560, Note_off_c, 0, 77, 0
2, 436560, Note_on_c, 0, 78, 75
2, 436715, Note_off_c, 0, 78, 0
2, 436800, Note_on_c, 0, 78, 73
2, 437040, Note_off_c, 0, 78, 0
2, 437280, Note_on_c, 0, 62, 85
2, 437360, Note_off_c, 0, 62, 0
2, 437360, Note_on_c, 0, 66, 85
2, 437440, Note_off_c, 0, 66, 0
2, 437440, Note_on_c, 0, 69, 85
2, 437520, Note_off_c, 0, 69, 0
2, 437520, Note_on_c, 0, 74, 85
2, 437600, Note_off_c, 0, 74, 0
2, 437600, Note_on_c, 0, 76, 84
2, 437680, Note_off_c, 0, 76, 0
2, 437680, Note_on_c, 0, 78, 84
2, 437760, Note_off_c, 0, 78, 0
2, 437760, Note_on_c, 0, 79, 84
2, 437840, Note_off_c, 0, 79, 0
2, 437840, Note_on_c, 0, 78, 83
2, 437920, Note_off_c, 0, 78, 0
2, 437920, Note_on_c, 0, 79, 83
2, 438000, Note_off_c, 0, 79, 0
2, 438000, Note_on_c, 0, 83, 83
2, 438080, Note_off_c, 0, 83, 0
2, 438080, Note_on_c, 0, 79, 82
2, 438160, Note_off_c, 0, 79, 0
2, 438160, Note_on_c, 0, 74, 82
2, 438240, Note_off_c, 0, 74, 0
2, 438240, Note_on_c, 0, 69, 82
2, 438320, Note_off_c, 0, 69, 0
2, 438320, Note_on_c, 0, 73, 81
2, 438400, Note_off_c, 0, 73, 0
2, 438400, Note_on_c, 0, 76, 81
2, 438480, Note_off_c, 0, 76, 0
2, 438480, Note_on_c, 0, 81, 81
2, 438560, Note_off_c, 0, 81, 0
2, 438560, Note_on_c, 0, 83, 80
2, 438640, Note_off_c, 0, 83, 0
2, 438640, Note_on_c, 0, 85, 80
2, 438720, Note_off_c, 0, 85, 0
2, 438720, Note_on_c, 0, 86, 80
2, 438800, Note_off_c, 0, 86, 0
2, 438800, Note_on_c, 0, 85, 79
2, 438880, Note_off_c, 0, 85, 0
2, 438880, Note_on_c, 0, 83, 79
2, 438960, Note_off_c, 0, 83, 0
2, 438960, Note_on_c, 0, 81, 79
2, 439040, Note_off_c, 0, 81, 0
2, 439040, Note_on_c, 0, 79, 78
2, 439120, Note_off_c, 0, 79, 0
2, 439120, Note_on_c, 0, 78, 78
2, 439200, Note_off_c, 0, 78, 0
2, 439200, Note_on_c, 0, 75, 78
2, 439280, Note_off_c, 0, 75, 0
2, 439280, Note_on_c, 0, 76, 77
2, 439360, Note_off_c, 0, 76, 0
2, 439360, Note_on_c, 0, 79, 77
2, 439440, Note_off_c, 0, 79, 0
2, 439440, Note_on_c, 0, 83, 77
2, 439520, Note_off_c, 0, 83, 0
2, 439520, Note_on_c, 0, 79, 76
2, 439600, Note_off_c, 0, 79, 0
2, 439600, Note_on_c, 0, 76, 76
2, 439680, Note_off_c, 0, 76, 0
2, 439680, Note_on_c, 0, 81, 76
2, 439760, Note_off_c, 0, 81, 0
2, 439760, Note_on_c, 0, 78, 75
2, 439840, Note_off_c, 0, 78, 0
2, 439840, Note_on_c, 0, 74, 75
2, 439920, Note_off_c, 0, 74, 0
2, 439920, Note_on_c, 0, 79, 75
2, 440000, Note_off_c, 0, 79, 0
2, 440000, Note_on_c, 0, 76, 74
2, 440080, Note_off_c, 0, 76, 0
2, 440080, Note_on_c, 0, 73, 74
2, 440160, Note_off_c, 0, 73, 0
2, 440160, Note_on_c, 0, 74, 84
2, 440640, Note_off_c, 0, 74, 0
2, 440880, Note_on_c, 0, 86, 85
2, 441070, Note_off_c, 0, 86, 0
2, 441120, Note_on_c, 0, 85, 91
2, 441240, Note_off_c, 0, 85, 0
2, 441240, Note_on_c, 0, 81, 88
2, 441360, Note_off_c, 0, 81, 0
2, 441360, Note_on_c, 0, 79, 87
2, 441840, Note_off_c, 0, 79, 0
2, 441840, Note_on_c, 0, 76, 83
2, 441960, Note_off_c, 0, 76, 0
2, 441960, Note_on_c, 0, 73, 82
2, 442080, Note_off_c, 0, 73, 0
2, 442080, Note_on_c, 0, 74, 81
2, 442560, Note_off_c, 0, 74, 0
2, 442800, Note_on_c, 0, 86, 72
2, 442990, Note_off_c, 0, 86, 0
2, 443040, Note_on_c, 0, 85, 79
2, 443160, Note_off_c, 0, 85, 0
2, 443160, Note_on_c, 0, 81, 75
2, 443280, Note_off_c, 0, 81, 0
2, 443280, Note_on_c, 0, 79, 75
2, 443760, Note_off_c, 0, 79, 0
2, 443760, Note_on_c, 0, 76, 72
2, 443880, Note_off_c, 0, 76, 0
2, 443880, Note_on_c, 0, 73, 72
2, 444000, Note_off_c, 0, 73, 0
2, 444000, Note_on_c, 0, 74, 74
2, 444080, Note_off_c, 0, 74, 0
2, 444080, Note_on_c, 0, 69, 75
2, 444160, Note_off_c, 0, 69, 0
2, 444160, Note_on_c, 0, 78, 75
2, 444240, Note_off_c, 0, 78, 0
2, 444240, Note_on_c, 0, 76, 76
2, 444320, Note_off_c, 0, 76, 0
2, 444320, Note_on_c, 0, 73, 76
2, 444400, Note_off_c, 0, 73, 0
2, 444400, Note_on_c, 0, 79, 77
2, 444480, Note_off_c, 0, 79, 0
2, 444480, Note_on_c, 0, 78, 77
2, 444560, Note_off_c, 0, 78, 0
2, 444560, Note_on_c, 0, 74, 78
2, 444640, Note_off_c, 0, 74, 0
2, 444640, Note_on_c, 0, 81, 78
2, 444720, Note_off_c, 0, 81, 0
2, 444720, Note_on_c, 0, 79, 79
2, 444800, Note_off_c, 0, 79, 0
2, 444800, Note_on_c, 0, 76, 79
2, 444880, Note_off_c, 0, 76, 0
2, 444880, Note_on_c, 0, 73, 80
2, 444960, Note_off_c, 0, 73, 0
2, 444960, Note_on_c, 0, 74, 80
2, 445040, Note_off_c, 0, 74, 0
2, 445040, Note_on_c, 0, 69, 81
2, 445120, Note_off_c, 0, 69, 0
2, 445120, Note_on_c, 0, 78, 81
2, 445200, Note_off_c, 0, 78, 0
2, 445200, Note_on_c, 0, 76, 82
2, 445280, Note_off_c, 0, 76, 0
2, 445280, Note_on_c, 0, 73, 83
2, 445360, Note_off_c, 0, 73, 0
2, 445360, Note_on_c, 0, 79, 83
2, 445440, Note_off_c, 0, 79, 0
2, 445440, Note_on_c, 0, 78, 84
2, 445520, Note_off_c, 0, 78, 0
2, 445520, Note_on_c, 0, 74, 84
2, 445600, Note_off_c, 0, 74, 0
2, 445600, Note_on_c, 0, 81, 85
2, 445680, Note_off_c, 0, 81, 0
2, 445680, Note_on_c, 0, 79, 85
2, 445760, Note_off_c, 0, 79, 0
2, 445760, Note_on_c, 0, 76, 86
2, 445840, Note_off_c, 0, 76, 0
2, 445840, Note_on_c, 0, 73, 86
2, 445920, Note_off_c, 0, 73, 0
2, 445920, Note_on_c, 0, 74, 87
2, 446000, Note_off_c, 0, 74, 0
2, 446000, Note_on_c, 0, 78, 87
2, 446080, Note_off_c, 0, 78, 0
2, 446080, Note_on_c, 0, 74, 88
2, 446160, Note_off_c, 0, 74, 0
2, 446160, Note_on_c, 0, 69, 88
2, 446240, Note_off_c, 0, 69, 0
2, 446240, Note_on_c, 0, 74, 89
2, 446320, Note_off_c, 0, 74, 0
2, 446320, Note_on_c, 0, 69, 90
2, 446400, Note_off_c, 0, 69, 0
2, 446400, Note_on_c, 0, 66, 90
2, 446480, Note_off_c, 0, 66, 0
2, 446480, Note_on_c, 0, 69, 91
2, 446560, Note_off_c, 0, 69, 0
2, 446560, Note_on_c, 0, 66, 91
2, 446640, Note_off_c, 0, 66, 0
2, 446640, Note_on_c, 0, 62, 92
2, 446720, Note_off_c, 0, 62, 0
2, 446720, Note_on_c, 0, 66, 92
2, 446800, Note_off_c, 0, 66, 0
2, 446800, Note_on_c, 0, 62, 93
2, 446880, Note_off_c, 0, 62, 0
2, 446880, Note_on_c, 0, 57, 95
2, 447120, Note_off_c, 0, 57, 0
2, 447360, Note_on_c, 0, 78, 95
2, 447600, Note_off_c, 0, 78, 0
2, 447840, Note_on_c, 0, 57, 95
2, 447920, Note_off_c, 0, 57, 0
2, 447920, Note_on_c, 0, 61, 95
2, 448000, Note_off_c, 0, 61, 0
2, 448000, Note_on_c, 0, 64, 94
2, 448080, Note_off_c, 0, 64, 0
2, 448080, Note_on_c, 0, 69, 94
2, 448160, Note_off_c, 0, 69, 0
2, 448160, Note_on_c, 0, 73, 94
2, 448240, Note_off_c, 0, 73, 0
2, 448240, Note_on_c, 0, 76, 94
2, 448320, Note_off_c, 0, 76, 0
2, 448320, Note_on_c, 0, 78, 94
2, 448400, Note_off_c, 0, 78, 0
2, 448400, Note_on_c, 0, 81, 94
2, 448480, Note_off_c, 0, 81, 0
2, 448480, Note_on_c, 0, 86, 94
2, 448560, Note_off_c, 0, 86, 0
2, 448560, Note_on_c, 0, 81, 94
2, 448640, Note_off_c, 0, 81, 0
2, 448640, Note_on_c, 0, 78, 94
2, 448720, Note_off_c, 0, 78, 0
2, 448720, Note_on_c, 0, 74, 94
2, 448800, Note_off_c, 0, 74, 0
2, 448800, Note_on_c, 0, 81, 94
2, 448955, Note_off_c, 0, 81, 0
2, 449040, Note_on_c, 0, 69, 86
2, 449232, Note_off_c, 0, 69, 0
2, 450960, Note_on_c, 0, 86, 58
2, 451080, Note_off_c, 0, 86, 0
2, 451080, Note_on_c, 0, 78, 57
2, 451200, Note_off_c, 0, 78, 0
2, 451200, Note_on_c, 0, 81, 56
2, 451440, Note_off_c, 0, 81, 0
2, 451440, Note_on_c, 0, 80, 53
2, 451680, Note_off_c, 0, 80, 0
2, 452880, Note_on_c, 0, 88, 64
2, 453000, Note_off_c, 0, 88, 0
2, 453000, Note_on_c, 0, 80, 64
2, 453120, Note_off_c, 0, 80, 0
2, 453120, Note_on_c, 0, 83, 63
2, 453360, Note_off_c, 0, 83, 0
2, 453360, Note_on_c, 0, 82, 61
2, 453600, Note_off_c, 0, 82, 0
2, 453600, Note_on_c, 0, 83, 60
2, 453960, Note_off_c, 0, 83, 0
2, 453960, Note_on_c, 0, 82, 66
2, 454020, Note_off_c, 0, 82, 0
2, 454020, Note_on_c, 0, 83, 66
2, 454080, Note_off_c, 0, 83, 0
2, 454080, Note_on_c, 0, 85, 66
2, 454235, Note_off_c, 0, 85, 0
2, 454320, Note_on_c, 0, 86, 67
2, 454475, Note_off_c, 0, 86, 0
2, 454560, Note_on_c, 0, 79, 67
2, 454800, Note_off_c, 0, 79, 0
2, 454800, Note_on_c, 0, 78, 64
2, 454955, Note_off_c, 0, 78, 0
2, 455280, Note_on_c, 0, 86, 64
2, 455435, Note_off_c, 0, 86, 0
2, 455520, Note_on_c, 0, 77, 62
2, 455760, Note_off_c, 0, 77, 0
2, 455760, Note_on_c, 0, 76, 61
2, 455915, Note_off_c, 0, 76, 0
2, 456240, Note_on_c, 0, 76, 59
2, 456360, Note_off_c, 0, 76, 0
2, 456360, Note_on_c, 0, 85, 58
2, 456480, Note_off_c, 0, 85, 0
2, 456480, Note_on_c, 0, 83, 58
2, 456720, Note_off_c, 0, 83, 0
2, 456720, Note_on_c, 0, 81, 57
2, 457200, Note_off_c, 0, 81, 0
2, 457200, Note_on_c, 0, 75, 54
2, 457440, Note_off_c, 0, 75, 0
2, 457440, Note_on_c, 0, 76, 69
2, 457800, Note_off_c, 0, 76, 0
2, 457800, Note_on_c, 0, 78, 68
2, 457860, Note_off_c, 0, 78, 0
2, 457860, Note_on_c, 0, 76, 67
2, 457920, Note_off_c, 0, 76, 0
2, 457920, Note_on_c, 0, 75, 67
2, 458075, Note_off_c, 0, 75, 0
2, 458160, Note_on_c, 0, 76, 66
2, 458315, Note_off_c, 0, 76, 0
2, 458400, Note_on_c, 0, 77, 67
2, 458400, Note_on_c, 0, 69, 67
2, 458640, Note_off_c, 0, 77, 0
2, 458640, Note_on_c, 0, 78, 64
2, 458795, Note_off_c, 0, 78, 0
2, 458880, Note_on_c, 0, 78, 61
2, 459120, Note_off_c, 0, 78, 0
2, 459360, Note_off_c, 0, 69, 0
2, 459360, Note_on_c, 0, 80, 73
2, 459360, Note_on_c, 0, 71, 73
2, 459720, Note_off_c, 0, 80, 0
2, 459720, Note_on_c, 0, 81, 71
2, 459780, Note_off_c, 0, 81, 0
2, 459780, Note_on_c, 0, 80, 70
2, 459840, Note_off_c, 0, 80, 0
2, 459840, Note_on_c, 0, 78, 70
2, 459995, Note_off_c, 0, 78, 0
2, 460080, Note_on_c, 0, 80, 68
2, 460235, Note_off_c, 0, 80, 0
2, 460320, Note_off_c, 0, 71, 0
2, 460320, Note_on_c, 0, 80, 71
2, 460320, Note_on_c, 0, 76, 71
2, 460560, Note_off_c, 0, 80, 0
2, 460560, Note_on_c, 0, 81, 69
2, 460715, Note_off_c, 0, 81, 0
2, 460800, Note_on_c, 0, 81, 64
2, 461040, Note_off_c, 0, 81, 0
2, 461280, Note_off_c, 0, 76, 0
2, 461280, Note_on_c, 0, 83, 81
2, 461280, Note_on_c, 0, 80, 81
2, 461640, Note_off_c, 0, 83, 0
2, 461640, Note_on_c, 0, 85, 79
2, 461700, Note_off_c, 0, 85, 0
2, 461700, Note_on_c, 0, 83, 79
2, 461760, Note_off_c, 0, 83, 0
2, 461760, Note_on_c, 0, 81, 78
2, 461915, Note_off_c, 0, 81, 0
2, 462000, Note_on_c, 0, 83, 77
2, 462155, Note_off_c, 0, 83, 0
2, 462240, Note_off_c, 0, 80, 0
2, 462240, Note_on_c, 0, 85, 85
2, 462240, Note_on_c, 0, 76, 85
2, 462600, Note_off_c, 0, 85, 0
2, 462600, Note_on_c, 0, 86, 83
2, 462660, Note_off_c, 0, 86, 0
2, 462660, Note_on_c, 0, 85, 83
2, 462720, Note_off_c, 0, 85, 0
2, 462720, Note_on_c, 0, 83, 82
2, 462875, Note_off_c, 0, 83, 0
2, 462960, Note_on_c, 0, 85, 81
2, 463115, Note_off_c, 0, 85, 0
2, 463200, Note_off_c, 0, 76, 0
2, 463200, Note_on_c, 0, 86, 76
2, 463280, Note_off_c, 0, 86, 0
2, 463280, Note_on_c, 0, 83, 84
2, 463360, Note_off_c, 0, 83, 0
2, 463360, Note_on_c, 0, 80, 84
2, 463440, Note_off_c, 0, 80, 0
2, 463440, Note_on_c, 0, 76, 84
2, 463520, Note_off_c, 0, 76, 0
2, 463520, Note_on_c, 0, 74, 83
2, 463600, Note_off_c, 0, 74, 0
2, 463600, Note_on_c, 0, 71, 83
2, 463680, Note_off_c, 0, 71, 0
2, 463680, Note_on_c, 0, 68, 82
2, 463760, Note_off_c, 0, 68, 0
2, 463760, Note_on_c, 0, 71, 82
2, 463840, Note_off_c, 0, 71, 0
2, 463840, Note_on_c, 0, 74, 81
2, 463920, Note_off_c, 0, 74, 0
2, 463920, Note_on_c, 0, 76, 81
2, 464000, Note_off_c, 0, 76, 0
2, 464000, Note_on_c, 0, 80, 81
2, 464080, Note_off_c, 0, 80, 0
2, 464080, Note_on_c, 0, 83, 80
2, 464160, Note_off_c, 0, 83, 0
2, 464160, Note_on_c, 0, 86, 80
2, 464240, Note_off_c, 0, 86, 0
2, 464240, Note_on_c, 0, 83, 79
2, 464320, Note_off_c, 0, 83, 0
2, 464320, Note_on_c, 0, 80, 79
2, 464400, Note_off_c, 0, 80, 0
2, 464400, Note_on_c, 0, 76, 78
2, 464480, Note_off_c, 0, 76, 0
2, 464480, Note_on_c, 0, 74, 78
2, 464560, Note_off_c, 0, 74, 0
2, 464560, Note_on_c, 0, 71, 78
2, 464640, Note_off_c, 0, 71, 0
2, 464640, Note_on_c, 0, 68, 77
2, 464720, Note_off_c, 0, 68, 0
2, 464720, Note_on_c, 0, 71, 77
2, 464800, Note_off_c, 0, 71, 0
2, 464800, Note_on_c, 0, 74, 76
2, 464880, Note_off_c, 0, 74, 0
2, 464880, Note_on_c, 0, 76, 76
2, 464960, Note_off_c, 0, 76, 0
2, 464960, Note_on_c, 0, 80, 75
2, 465040, Note_off_c, 0, 80, 0
2, 465040, Note_on_c, 0, 83, 75
2, 465120, Note_off_c, 0, 83, 0
2, 465120, Note_on_c, 0, 86, 74
2, 465200, Note_off_c, 0, 86, 0
2, 465200, Note_on_c, 0, 83, 74
2, 465280, Note_off_c, 0, 83, 0
2, 465280, Note_on_c, 0, 86, 75
2, 465360, Note_off_c, 0, 86, 0
2, 465360, Note_on_c, 0, 85, 76
2, 465440, Note_off_c, 0, 85, 0
2, 465440, Note_on_c, 0, 81, 76
2, 465520, Note_off_c, 0, 81, 0
2, 465520, Note_on_c, 0, 85, 77
2, 465600, Note_off_c, 0, 85, 0
2, 465600, Note_on_c, 0, 83, 78
2, 465680, Note_off_c, 0, 83, 0
2, 465680, Note_on_c, 0, 80, 79
2, 465760, Note_off_c, 0, 80, 0
2, 465760, Note_on_c, 0, 83, 79
2, 465840, Note_off_c, 0, 83, 0
2, 465840, Note_on_c, 0, 81, 80
2, 465920, Note_off_c, 0, 81, 0
2, 465920, Note_on_c, 0, 78, 81
2, 466000, Note_off_c, 0, 78, 0
2, 466000, Note_on_c, 0, 81, 82
2, 466080, Note_off_c, 0, 81, 0
2, 466080, Note_on_c, 0, 80, 82
2, 466160, Note_off_c, 0, 80, 0
2, 466160, Note_on_c, 0, 76, 83
2, 466240, Note_off_c, 0, 76, 0
2, 466240, Note_on_c, 0, 80, 84
2, 466320, Note_off_c, 0, 80, 0
2, 466320, Note_on_c, 0, 78, 84
2, 466400, Note_off_c, 0, 78, 0
2, 466400, Note_on_c, 0, 74, 85
2, 466480, Note_off_c, 0, 74, 0
2, 466480, Note_on_c, 0, 78, 86
2, 466560, Note_off_c, 0, 78, 0
2, 466560, Note_on_c, 0, 76, 87
2, 466640, Note_off_c, 0, 76, 0
2, 466640, Note_on_c, 0, 73, 87
2, 466720, Note_off_c, 0, 73, 0
2, 466720, Note_on_c, 0, 76, 88
2, 466800, Note_off_c, 0, 76, 0
2, 466800, Note_on_c, 0, 74, 89
2, 466880, Note_off_c, 0, 74, 0
2, 466880, Note_on_c, 0, 71, 90
2, 466960, Note_off_c, 0, 71, 0
2, 466960, Note_on_c, 0, 74, 90
2, 467040, Note_off_c, 0, 74, 0
2, 467040, Note_on_c, 0, 73, 91
2, 467280, Note_off_c, 0, 73, 0
2, 467280, Note_on_c, 0, 88, 91
2, 467360, Note_off_c, 0, 88, 0
2, 467360, Note_on_c, 0, 85, 90
2, 467440, Note_off_c, 0, 85, 0
2, 467440, Note_on_c, 0, 81, 90
2, 467520, Note_off_c, 0, 81, 0
2, 467520, Note_on_c, 0, 80, 89
2, 467600, Note_off_c, 0, 80, 0
2, 467600, Note_on_c, 0, 83, 89
2, 467680, Note_off_c, 0, 83, 0
2, 467680, Note_on_c, 0, 76, 88
2, 467760, Note_off_c, 0, 76, 0
2, 467760, Note_on_c, 0, 88, 88
2, 467840, Note_off_c, 0, 88, 0
2, 467840, Note_on_c, 0, 86, 87
2, 467920, Note_off_c, 0, 86, 0
2, 467920, Note_on_c, 0, 83, 87
2, 468000, Note_off_c, 0, 83, 0
2, 468000, Note_on_c, 0, 81, 86
2, 468080, Note_off_c, 0, 81, 0
2, 468080, Note_on_c, 0, 85, 86
2, 468160, Note_off_c, 0, 85, 0
2, 468160, Note_on_c, 0, 76, 85
2, 468240, Note_off_c, 0, 76, 0
2, 468240, Note_on_c, 0, 88, 85
2, 468320, Note_off_c, 0, 88, 0
2, 468320, Note_on_c, 0, 85, 84
2, 468400, Note_off_c, 0, 85, 0
2, 468400, Note_on_c, 0, 81, 84
2, 468480, Note_off_c, 0, 81, 0
2, 468480, Note_on_c, 0, 80, 83
2, 468560, Note_off_c, 0, 80, 0
2, 468560, Note_on_c, 0, 83, 83
2, 468640, Note_off_c, 0, 83, 0
2, 468640, Note_on_c, 0, 76, 82
2, 468720, Note_off_c, 0, 76, 0
2, 468720, Note_on_c, 0, 88, 82
2, 468800, Note_off_c, 0, 88, 0
2, 468800, Note_on_c, 0, 86, 81
2, 468880, Note_off_c, 0, 86, 0
2, 468880, Note_on_c, 0, 83, 81
2, 468960, Note_off_c, 0, 83, 0
2, 468960, Note_on_c, 0, 81, 80
2, 469040, Note_off_c, 0, 81, 0
2, 469040, Note_on_c, 0, 85, 80
2, 469120, Note_off_c, 0, 85, 0
2, 469120, Note_on_c, 0, 76, 80
2, 469200, Note_off_c, 0, 76, 0
2, 469200, Note_on_c, 0, 79, 87
2, 469200, Note_on_c, 0, 88, 87
2, 469440, Note_off_c, 0, 79, 0
2, 469440, Note_on_c, 0, 78, 86
2, 469680, Note_off_c, 0, 88, 0
2, 469680, Note_on_c, 0, 86, 85
2, 469920, Note_off_c, 0, 78, 0
2, 469920, Note_on_c, 0, 76, 84
2, 470160, Note_off_c, 0, 86, 0
2, 470160, Note_on_c, 0, 85, 83
2, 470400, Note_off_c, 0, 76, 0
2, 470400, Note_on_c, 0, 74, 82
2, 470640, Note_off_c, 0, 85, 0
2, 470640, Note_on_c, 0, 83, 81
2, 470880, Note_off_c, 0, 74, 0
2, 470880, Note_on_c, 0, 73, 80
2, 471120, Note_off_c, 0, 83, 0
2, 471120, Note_on_c, 0, 81, 79
2, 471360, Note_off_c, 0, 73, 0
2, 471360, Note_on_c, 0, 71, 77
2, 471600, Note_off_c, 0, 81, 0
2, 471600, Note_on_c, 0, 80, 76
2, 471840, Note_off_c, 0, 80, 0
2, 471840, Note_off_c, 0, 71, 0
2, 471840, Note_on_c, 0, 81, 75
2, 471920, Note_off_c, 0, 81, 0
2, 471920, Note_on_c, 0, 85, 75
2, 472000, Note_off_c, 0, 85, 0
2, 472000, Note_on_c, 0, 76, 75
2, 472080, Note_off_c, 0, 76, 0
2, 472080, Note_on_c, 0, 78, 74
2, 472160, Note_off_c, 0, 78, 0
2, 472160, Note_on_c, 0, 81, 74
2, 472240, Note_off_c, 0, 81, 0
2, 472240, Note_on_c, 0, 74, 73
2, 472320, Note_off_c, 0, 74, 0
2, 472320, Note_on_c, 0, 73, 73
2, 472400, Note_off_c, 0, 73, 0
2, 472400, Note_on_c, 0, 76, 73
2, 472480, Note_off_c, 0, 76, 0
2, 472480, Note_on_c, 0, 69, 72
2, 472560, Note_off_c, 0, 69, 0
2, 472560, Note_on_c, 0, 71, 72
2, 472640, Note_off_c, 0, 71, 0
2, 472640, Note_on_c, 0, 74, 72
2, 472720, Note_off_c, 0, 74, 0
2, 472720, Note_on_c, 0, 68, 71
2, 472800, Note_off_c, 0, 68, 0
2, 472800, Note_on_c, 0, 69, 71
2, 473040, Note_off_c, 0, 69, 0
2, 473280, Note_on_c, 0, 85, 77
2, 473520, Note_off_c, 0, 85, 0
2, 473520, Note_on_c, 0, 83, 76
2, 473760, Note_off_c, 0, 83, 0
2, 473760, Note_on_c, 0, 81, 75
2, 474000, Note_off_c, 0, 81, 0
2, 474000, Note_on_c, 0, 80, 73
2, 474240, Note_off_c, 0, 80, 0
2, 474240, Note_on_c, 0, 78, 72
2, 474480, Note_off_c, 0, 78, 0
2, 474480, Note_on_c, 0, 76, 71
2, 474720, Note_off_c, 0, 76, 0
2, 474720, Note_on_c, 0, 76, 70
2, 474840, Note_off_c, 0, 76, 0
2, 474840, Note_on_c, 0, 74, 69
2, 474960, Note_off_c, 0, 74, 0
2, 474960, Note_on_c, 0, 73, 68
2, 475200, Note_off_c, 0, 73, 0
2, 475200, Note_on_c, 0, 76, 67
2, 475800, Note_off_c, 0, 76, 0
2, 475800, Note_on_c, 0, 74, 64
2, 476040, Note_off_c, 0, 74, 0
2, 476040, Note_on_c, 0, 73, 63
2, 476280, Note_off_c, 0, 73, 0
2, 476280, Note_on_c, 0, 71, 61
2, 476520, Note_off_c, 0, 71, 0
2, 476520, Note_on_c, 0, 69, 60
2, 476640, Note_off_c, 0, 69, 0
2, 476640, Note_on_c, 0, 73, 59
2, 476880, Note_off_c, 0, 73, 0
2, 476880, Note_on_c, 0, 71, 56
2, 477120, Note_off_c, 0, 71, 0
2, 477120, Note_on_c, 0, 85, 73
2, 477200, Note_off_c, 0, 85, 0
2, 477200, Note_on_c, 0, 86, 73
2, 477280, Note_off_c, 0, 86, 0
2, 477280, Note_on_c, 0, 85, 72
2, 477360, Note_off_c, 0, 85, 0
2, 477360, Note_on_c, 0, 83, 72
2, 477440, Note_off_c, 0, 83, 0
2, 477440, Note_on_c, 0, 87, 72
2, 477520, Note_off_c, 0, 87, 0
2, 477520, Note_on_c, 0, 88, 71
2, 477600, Note_off_c, 0, 88, 0
2, 477600, Note_on_c, 0, 81, 71
2, 477680, Note_off_c, 0, 81, 0
2, 477680, Note_on_c, 0, 83, 71
2, 477760, Note_off_c, 0, 83, 0
2, 477760, Note_on_c, 0, 81, 70
2, 477840, Note_off_c, 0, 81, 0
2, 477840, Note_on_c, 0, 80, 70
2, 477920, Note_off_c, 0, 80, 0
2, 477920, Note_on_c, 0, 84, 69
2, 478000, Note_off_c, 0, 84, 0
2, 478000, Note_on_c, 0, 85, 69
2, 478080, Note_off_c, 0, 85, 0
2, 478080, Note_on_c, 0, 78, 69
2, 478160, Note_off_c, 0, 78, 0
2, 478160, Note_on_c, 0, 79, 68
2, 478240, Note_off_c, 0, 79, 0
2, 478240, Note_on_c, 0, 78, 68
2, 478320, Note_off_c, 0, 78, 0
2, 478320, Note_on_c, 0, 76, 68
2, 478400, Note_off_c, 0, 76, 0
2, 478400, Note_on_c, 0, 80, 67
2, 478480, Note_off_c, 0, 80, 0
2, 478480, Note_on_c, 0, 81, 67
2, 478560, Note_off_c, 0, 81, 0
2, 478560, Note_on_c, 0, 76, 67
2, 478680, Note_off_c, 0, 76, 0
2, 478680, Note_on_c, 0, 74, 67
2, 478800, Note_off_c, 0, 74, 0
2, 478800, Note_on_c, 0, 73, 67
2, 479040, Note_off_c, 0, 73, 0
2, 479040, Note_on_c, 0, 76, 65
2, 479640, Note_on_c, 0, 78, 62
2, 479645, Note_off_c, 0, 76, 0
2, 479760, Note_off_c, 0, 78, 0
2, 479760, Note_on_c, 0, 74, 61
2, 479880, Note_off_c, 0, 74, 0
2, 479880, Note_on_c, 0, 71, 60
2, 480000, Note_off_c, 0, 71, 0
2, 480000, Note_on_c, 0, 69, 60
2, 480240, Note_off_c, 0, 69, 0
2, 480240, Note_on_c, 0, 73, 58
2, 480360, Note_off_c, 0, 73, 0
2, 480360, Note_on_c, 0, 71, 57
2, 480480, Note_off_c, 0, 71, 0
2, 480480, Note_on_c, 0, 69, 57
2, 480720, Note_off_c, 0, 69, 0
2, 480960, Note_on_c, 0, 81, 76
2, 481040, Note_off_c, 0, 81, 0
2, 481040, Note_on_c, 0, 76, 77
2, 481120, Note_off_c, 0, 76, 0
2, 481120, Note_on_c, 0, 73, 77
2, 481200, Note_off_c, 0, 73, 0
2, 481200, Note_on_c, 0, 69, 78
2, 481280, Note_off_c, 0, 69, 0
2, 481280, Note_on_c, 0, 64, 78
2, 481360, Note_off_c, 0, 64, 0
2, 481360, Note_on_c, 0, 61, 78
2, 481440, Note_off_c, 0, 61, 0
2, 481440, Note_on_c, 0, 59, 79
2, 481680, Note_off_c, 0, 59, 0
2, 481920, Note_on_c, 0, 83, 81
2, 482000, Note_off_c, 0, 83, 0
2, 482000, Note_on_c, 0, 80, 82
2, 482080, Note_off_c, 0, 80, 0
2, 482080, Note_on_c, 0, 74, 82
2, 482160, Note_off_c, 0, 74, 0
2, 482160, Note_on_c, 0, 71, 83
2, 482240, Note_off_c, 0, 71, 0
2, 482240, Note_on_c, 0, 68, 83
2, 482320, Note_off_c, 0, 68, 0
2, 482320, Note_on_c, 0, 62, 83
2, 482400, Note_off_c, 0, 62, 0
2, 482400, Note_on_c, 0, 61, 84
2, 482640, Note_off_c, 0, 61, 0
2, 482880, Note_on_c, 0, 85, 86
2, 482960, Note_off_c, 0, 85, 0
2, 482960, Note_on_c, 0, 81, 87
2, 483040, Note_off_c, 0, 81, 0
2, 483040, Note_on_c, 0, 76, 87
2, 483120, Note_off_c, 0, 76, 0
2, 483120, Note_on_c, 0, 73, 88
2, 483200, Note_off_c, 0, 73, 0
2, 483200, Note_on_c, 0, 69, 88
2, 483280, Note_off_c, 0, 69, 0
2, 483280, Note_on_c, 0, 64, 89
2, 483360, Note_off_c, 0, 64, 0
2, 483360, Note_on_c, 0, 62, 89
2, 483600, Note_off_c, 0, 62, 0
2, 483840, Note_on_c, 0, 86, 92
2, 483920, Note_off_c, 0, 86, 0
2, 483920, Note_on_c, 0, 81, 92
2, 484000, Note_off_c, 0, 81, 0
2, 484000, Note_on_c, 0, 78, 92
2, 484080, Note_off_c, 0, 78, 0
2, 484080, Note_on_c, 0, 74, 93
2, 484160, Note_off_c, 0, 74, 0
2, 484160, Note_on_c, 0, 69, 93
2, 484240, Note_off_c, 0, 69, 0
2, 484240, Note_on_c, 0, 66, 94
2, 484320, Note_off_c, 0, 66, 0
2, 484320, Note_on_c, 0, 64, 94
2, 484560, Note_off_c, 0, 64, 0
2, 484880, Note_on_c, 0, 69, 98
2, 484960, Note_off_c, 0, 69, 0
2, 484960, Note_on_c, 0, 73, 99
2, 485040, Note_off_c, 0, 73, 0
2, 485040, Note_on_c, 0, 76, 101
2, 485120, Note_off_c, 0, 76, 0
2, 485120, Note_on_c, 0, 79, 102
2, 485200, Note_off_c, 0, 79, 0
2, 485200, Note_on_c, 0, 85, 104
2, 485280, Note_off_c, 0, 85, 0
2, 485280, Note_on_c, 0, 88, 105
2, 485360, Note_off_c, 0, 88, 0
2, 485360, Note_on_c, 0, 79, 103
2, 485440, Note_off_c, 0, 79, 0
2, 485440, Note_on_c, 0, 88, 101
2, 485520, Note_off_c, 0, 88, 0
2, 485520, Note_on_c, 0, 86, 99
2, 485600, Note_off_c, 0, 86, 0
2, 485600, Note_on_c, 0, 78, 97
2, 485680, Note_off_c, 0, 78, 0
2, 485680, Note_on_c, 0, 86, 95
2, 485760, Note_off_c, 0, 86, 0
2, 485760, Note_on_c, 0, 85, 93
2, 485840, Note_off_c, 0, 85, 0
2, 485840, Note_on_c, 0, 76, 91
2, 485920, Note_off_c, 0, 76, 0
2, 485920, Note_on_c, 0, 85, 89
2, 486000, Note_off_c, 0, 85, 0
2, 486000, Note_on_c, 0, 83, 87
2, 486080, Note_off_c, 0, 83, 0
2, 486080, Note_on_c, 0, 79, 85
2, 486160, Note_off_c, 0, 79, 0
2, 486160, Note_on_c, 0, 83, 83
2, 486240, Note_off_c, 0, 83, 0
2, 486240, Note_on_c, 0, 81, 81
2, 486320, Note_off_c, 0, 81, 0
2, 486320, Note_on_c, 0, 78, 79
2, 486400, Note_off_c, 0, 78, 0
2, 486400, Note_on_c, 0, 81, 77
2, 486480, Note_off_c, 0, 81, 0
2, 486480, Note_on_c, 0, 79, 76
2, 486560, Note_off_c, 0, 79, 0
2, 486560, Note_on_c, 0, 76, 74
2, 486640, Note_off_c, 0, 76, 0
2, 486640, Note_on_c, 0, 79, 72
2, 486720, Note_off_c, 0, 79, 0
2, 486720, Note_on_c, 0, 78, 70
2, 486800, Note_off_c, 0, 78, 0
2, 486800, Note_on_c, 0, 74, 68
2, 486880, Note_off_c, 0, 74, 0
2, 486880, Note_on_c, 0, 78, 66
2, 486960, Note_off_c, 0, 78, 0
2, 486960, Note_on_c, 0, 76, 64
2, 487040, Note_off_c, 0, 76, 0
2, 487040, Note_on_c, 0, 73, 62
2, 487120, Note_off_c, 0, 73, 0
2, 487120, Note_on_c, 0, 76, 60
2, 487200, Note_off_c, 0, 76, 0
2, 487200, Note_on_c, 0, 74, 59
2, 487560, Note_off_c, 0, 74, 0
2, 487560, Note_on_c, 0, 76, 59
2, 487620, Note_off_c, 0, 76, 0
2, 487620, Note_on_c, 0, 74, 58
2, 487680, Note_off_c, 0, 74, 0
2, 487680, Note_on_c, 0, 73, 58
2, 487835, Note_off_c, 0, 73, 0
2, 487920, Note_on_c, 0, 74, 58
2, 488075, Note_off_c, 0, 74, 0
2, 488160, Note_on_c, 0, 75, 57
2, 488400, Note_off_c, 0, 75, 0
2, 488400, Note_on_c, 0, 76, 55
2, 488555, Note_off_c, 0, 76, 0
2, 488640, Note_on_c, 0, 76, 52
2, 488880, Note_off_c, 0, 76, 0
2, 489120, Note_on_c, 0, 76, 61
2, 489480, Note_off_c, 0, 76, 0
2, 489480, Note_on_c, 0, 78, 60
2, 489540, Note_off_c, 0, 78, 0
2, 489540, Note_on_c, 0, 76, 60
2, 489600, Note_off_c, 0, 76, 0
2, 489600, Note_on_c, 0, 74, 60
2, 489755, Note_off_c, 0, 74, 0
2, 489840, Note_on_c, 0, 76, 60
2, 489995, Note_off_c, 0, 76, 0
2, 490080, Note_on_c, 0, 77, 59
2, 490320, Note_off_c, 0, 77, 0
2, 490320, Note_on_c, 0, 78, 57
2, 490475, Note_off_c, 0, 78, 0
2, 490560, Note_on_c, 0, 78, 55
2, 490800, Note_off_c, 0, 78, 0
2, 491040, Note_on_c, 0, 81, 67
2, 491220, Note_off_c, 0, 81, 0
2, 491220, Note_on_c, 0, 83, 66
2, 491280, Note_off_c, 0, 83, 0
2, 491280, Note_on_c, 0, 79, 65
2, 491460, Note_off_c, 0, 79, 0
2, 491460, Note_on_c, 0, 81, 64
2, 491520, Note_off_c, 0, 81, 0
2, 491520, Note_on_c, 0, 78, 64
2, 491675, Note_off_c, 0, 78, 0
2, 491760, Note_on_c, 0, 74, 61
2, 491915, Note_off_c, 0, 74, 0
2, 492000, Note_on_c, 0, 79, 65
2, 492180, Note_off_c, 0, 79, 0
2, 492180, Note_on_c, 0, 81, 64
2, 492240, Note_off_c, 0, 81, 0
2, 492240, Note_on_c, 0, 78, 63
2, 492420, Note_off_c, 0, 78, 0
2, 492420, Note_on_c, 0, 79, 62
2, 492480, Note_off_c, 0, 79, 0
2, 492480, Note_on_c, 0, 76, 62
2, 492635, Note_off_c, 0, 76, 0
2, 492720, Note_on_c, 0, 73, 60
2, 492875, Note_off_c, 0, 73, 0
2, 492960, Note_on_c, 0, 74, 59
2, 493115, Note_off_c, 0, 74, 0
2, 493200, Note_on_c, 0, 74, 58
2, 493355, Note_off_c, 0, 74, 0
2, 493440, Note_on_c, 0, 73, 58
2, 493595, Note_off_c, 0, 73, 0
2, 493680, Note_on_c, 0, 73, 57
2, 493835, Note_off_c, 0, 73, 0
2, 493920, Note_on_c, 0, 71, 56
2, 493960, Note_off_c, 0, 71, 0
2, 493960, Note_on_c, 0, 73, 56
2, 494000, Note_off_c, 0, 73, 0
2, 494000, Note_on_c, 0, 71, 56
2, 494100, Note_on_c, 0, 69, 55
2, 494105, Note_off_c, 0, 71, 0
2, 494160, Note_off_c, 0, 69, 0
2, 494160, Note_on_c, 0, 71, 54
2, 494340, Note_off_c, 0, 71, 0
2, 494340, Note_on_c, 0, 73, 52
2, 494400, Note_off_c, 0, 73, 0
2, 494400, Note_on_c, 0, 69, 51
2, 494640, Note_off_c, 0, 69, 0
2, 494880, Note_on_c, 0, 74, 69
2, 495240, Note_off_c, 0, 74, 0
2, 495240, Note_on_c, 0, 76, 68
2, 495300, Note_off_c, 0, 76, 0
2, 495300, Note_on_c, 0, 74, 68
2, 495360, Note_off_c, 0, 74, 0
2, 495360, Note_on_c, 0, 73, 68
2, 495515, Note_off_c, 0, 73, 0
2, 495600, Note_on_c, 0, 74, 68
2, 495755, Note_off_c, 0, 74, 0
2, 495840, Note_on_c, 0, 75, 66
2, 496080, Note_off_c, 0, 75, 0
2, 496080, Note_on_c, 0, 76, 64
2, 496235, Note_off_c, 0, 76, 0
2, 496320, Note_on_c, 0, 76, 61
2, 496560, Note_off_c, 0, 76, 0
2, 496800, Note_on_c, 0, 76, 77
2, 497160, Note_off_c, 0, 76, 0
2, 497160, Note_on_c, 0, 78, 76
2, 497220, Note_off_c, 0, 78, 0
2, 497220, Note_on_c, 0, 76, 76
2, 497280, Note_off_c, 0, 76, 0
2, 497280, Note_on_c, 0, 74, 75
2, 497435, Note_off_c, 0, 74, 0
2, 497520, Note_on_c, 0, 76, 75
2, 497675, Note_off_c, 0, 76, 0
2, 497760, Note_on_c, 0, 77, 75
2, 498000, Note_off_c, 0, 77, 0
2, 498000, Note_on_c, 0, 78, 73
2, 498155, Note_off_c, 0, 78, 0
2, 498240, Note_on_c, 0, 78, 69
2, 498480, Note_off_c, 0, 78, 0
2, 498720, Note_on_c, 0, 62, 85
2, 498800, Note_off_c, 0, 62, 0
2, 498800, Note_on_c, 0, 66, 85
2, 498880, Note_off_c, 0, 66, 0
2, 498880, Note_on_c, 0, 69, 85
2, 498960, Note_off_c, 0, 69, 0
2, 498960, Note_on_c, 0, 74, 84
2, 499040, Note_off_c, 0, 74, 0
2, 499040, Note_on_c, 0, 76, 84
2, 499120, Note_off_c, 0, 76, 0
2, 499120, Note_on_c, 0, 78, 84
2, 499200, Note_off_c, 0, 78, 0
2, 499200, Note_on_c, 0, 79, 84
2, 499280, Note_off_c, 0, 79, 0
2, 499280, Note_on_c, 0, 78, 83
2, 499360, Note_off_c, 0, 78, 0
2, 499360, Note_on_c, 0, 79, 83
2, 499440, Note_off_c, 0, 79, 0
2, 499440, Note_on_c, 0, 83, 83
2, 499520, Note_off_c, 0, 83, 0
2, 499520, Note_on_c, 0, 79, 83
2, 499600, Note_off_c, 0, 79, 0
2, 499600, Note_on_c, 0, 74, 82
2, 499680, Note_off_c, 0, 74, 0
2, 499680, Note_on_c, 0, 69, 82
2, 499760, Note_off_c, 0, 69, 0
2, 499760, Note_on_c, 0, 73, 82
2, 499840, Note_off_c, 0, 73, 0
2, 499840, Note_on_c, 0, 76, 81
2, 499920, Note_off_c, 0, 76, 0
2, 499920, Note_on_c, 0, 81, 81
2, 500000, Note_off_c, 0, 81, 0
2, 500000, Note_on_c, 0, 83, 81
2, 500080, Note_off_c, 0, 83, 0
2, 500080, Note_on_c, 0, 85, 81
2, 500160, Note_off_c, 0, 85, 0
2, 500160, Note_on_c, 0, 86, 80
2, 500240, Note_off_c, 0, 86, 0
2, 500240, Note_on_c, 0, 85, 80
2, 500320, Note_off_c, 0, 85, 0
2, 500320, Note_on_c, 0, 83, 80
2, 500400, Note_off_c, 0, 83, 0
2, 500400, Note_on_c, 0, 81, 80
2, 500480, Note_off_c, 0, 81, 0
2, 500480, Note_on_c, 0, 79, 79
2, 500560, Note_off_c, 0, 79, 0
2, 500560, Note_on_c, 0, 78, 79
2, 500640, Note_off_c, 0, 78, 0
2, 500640, Note_on_c, 0, 75, 79
2, 500720, Note_off_c, 0, 75, 0
2, 500720, Note_on_c, 0, 76, 79
2, 500800, Note_off_c, 0, 76, 0
2, 500800, Note_on_c, 0, 79, 78
2, 500880, Note_off_c, 0, 79, 0
2, 500880, Note_on_c, 0, 83, 78
2, 500960, Note_off_c, 0, 83, 0
2, 500960, Note_on_c, 0, 79, 78
2, 501040, Note_off_c, 0, 79, 0
2, 501040, Note_on_c, 0, 76, 78
2, 501120, Note_off_c, 0, 76, 0
2, 501120, Note_on_c, 0, 81, 77
2, 501200, Note_off_c, 0, 81, 0
2, 501200, Note_on_c, 0, 78, 77
2, 501280, Note_off_c, 0, 78, 0
2, 501280, Note_on_c, 0, 74, 77
2, 501360, Note_off_c, 0, 74, 0
2, 501360, Note_on_c, 0, 79, 76
2, 501440, Note_off_c, 0, 79, 0
2, 501440, Note_on_c, 0, 76, 76
2, 501520, Note_off_c, 0, 76, 0
2, 501520, Note_on_c, 0, 73, 76
2, 501600, Note_off_c, 0, 73, 0
2, 501600, Note_on_c, 0, 74, 77
2, 502080, Note_off_c, 0, 74, 0
2, 502320, Note_on_c, 0, 86, 78
2, 502510, Note_off_c, 0, 86, 0
2, 502560, Note_on_c, 0, 85, 79
2, 502680, Note_off_c, 0, 85, 0
2, 502680, Note_on_c, 0, 81, 78
2, 502800, Note_off_c, 0, 81, 0
2, 502800, Note_on_c, 0, 79, 77
2, 503280, Note_off_c, 0, 79, 0
2, 503280, Note_on_c, 0, 76, 73
2, 503400, Note_off_c, 0, 76, 0
2, 503400, Note_on_c, 0, 73, 72
2, 503520, Note_off_c, 0, 73, 0
2, 503520, Note_on_c, 0, 74, 71
2, 504000, Note_off_c, 0, 74, 0
2, 504240, Note_on_c, 0, 86, 67
2, 504430, Note_off_c, 0, 86, 0
2, 504480, Note_on_c, 0, 85, 67
2, 504600, Note_off_c, 0, 85, 0
2, 504600, Note_on_c, 0, 81, 67
2, 504720, Note_off_c, 0, 81, 0
2, 504720, Note_on_c, 0, 79, 66
2, 505200, Note_off_c, 0, 79, 0
2, 505200, Note_on_c, 0, 76, 63
2, 505320, Note_off_c, 0, 76, 0
2, 505320, Note_on_c, 0, 73, 62
2, 505440, Note_off_c, 0, 73, 0
2, 505440, Note_on_c, 0, 74, 62
2, 505520, Note_off_c, 0, 74, 0
2, 505520, Note_on_c, 0, 69, 62
2, 505600, Note_off_c, 0, 69, 0
2, 505600, Note_on_c, 0, 77, 63
2, 505680, Note_off_c, 0, 77, 0
2, 505680, Note_on_c, 0, 76, 63
2, 505760, Note_off_c, 0, 76, 0
2, 505760, Note_on_c, 0, 73, 63
2, 505840, Note_off_c, 0, 73, 0
2, 505840, Note_on_c, 0, 79, 64
2, 505920, Note_off_c, 0, 79, 0
2, 505920, Note_on_c, 0, 77, 64
2, 506000, Note_off_c, 0, 77, 0
2, 506000, Note_on_c, 0, 74, 65
2, 506080, Note_off_c, 0, 74, 0
2, 506080, Note_on_c, 0, 81, 65
2, 506160, Note_off_c, 0, 81, 0
2, 506160, Note_on_c, 0, 79, 65
2, 506240, Note_off_c, 0, 79, 0
2, 506240, Note_on_c, 0, 76, 66
2, 506320, Note_off_c, 0, 76, 0
2, 506320, Note_on_c, 0, 73, 66
2, 506400, Note_off_c, 0, 73, 0
2, 506400, Note_on_c, 0, 74, 67
2, 506480, Note_off_c, 0, 74, 0
2, 506480, Note_on_c, 0, 69, 67
2, 506560, Note_off_c, 0, 69, 0
2, 506560, Note_on_c, 0, 77, 67
2, 506640, Note_off_c, 0, 77, 0
2, 506640, Note_on_c, 0, 76, 68
2, 506720, Note_off_c, 0, 76, 0
2, 506720, Note_on_c, 0, 73, 68
2, 506800, Note_off_c, 0, 73, 0
2, 506800, Note_on_c, 0, 79, 68
2, 506880, Note_off_c, 0, 79, 0
2, 506880, Note_on_c, 0, 77, 69
2, 506960, Note_off_c, 0, 77, 0
2, 506960, Note_on_c, 0, 74, 69
2, 507040, Note_off_c, 0, 74, 0
2, 507040, Note_on_c, 0, 81, 70
2, 507120, Note_off_c, 0, 81, 0
2, 507120, Note_on_c, 0, 82, 70
2, 507200, Note_off_c, 0, 82, 0
2, 507200, Note_on_c, 0, 79, 70
2, 507280, Note_off_c, 0, 79, 0
2, 507280, Note_on_c, 0, 76, 71
2, 507360, Note_off_c, 0, 76, 0
2, 507360, Note_on_c, 0, 77, 71
2, 507440, Note_off_c, 0, 77, 0
2, 507440, Note_on_c, 0, 72, 72
2, 507520, Note_off_c, 0, 72, 0
2, 507520, Note_on_c, 0, 81, 72
2, 507600, Note_off_c, 0, 81, 0
2, 507600, Note_on_c, 0, 79, 72
2, 507680, Note_off_c, 0, 79, 0
2, 507680, Note_on_c, 0, 76, 73
2, 507760, Note_off_c, 0, 76, 0
2, 507760, Note_on_c, 0, 82, 73
2, 507840, Note_off_c, 0, 82, 0
2, 507840, Note_on_c, 0, 81, 74
2, 507920, Note_off_c, 0, 81, 0
2, 507920, Note_on_c, 0, 77, 74
2, 508000, Note_off_c, 0, 77, 0
2, 508000, Note_on_c, 0, 84, 74
2, 508080, Note_off_c, 0, 84, 0
2, 508080, Note_on_c, 0, 82, 75
2, 508160, Note_off_c, 0, 82, 0
2, 508160, Note_on_c, 0, 79, 75
2, 508240, Note_off_c, 0, 79, 0
2, 508240, Note_on_c, 0, 76, 75
2, 508320, Note_off_c, 0, 76, 0
2, 508320, Note_on_c, 0, 77, 76
2, 508400, Note_off_c, 0, 77, 0
2, 508400, Note_on_c, 0, 72, 76
2, 508480, Note_off_c, 0, 72, 0
2, 508480, Note_on_c, 0, 81, 77
2, 508560, Note_off_c, 0, 81, 0
2, 508560, Note_on_c, 0, 79, 77
2, 508640, Note_off_c, 0, 79, 0
2, 508640, Note_on_c, 0, 76, 77
2, 508720, Note_off_c, 0, 76, 0
2, 508720, Note_on_c, 0, 82, 78
2, 508800, Note_off_c, 0, 82, 0
2, 508800, Note_on_c, 0, 81, 78
2, 508880, Note_off_c, 0, 81, 0
2, 508880, Note_on_c, 0, 77, 79
2, 508960, Note_off_c, 0, 77, 0
2, 508960, Note_on_c, 0, 84, 79
2, 509040, Note_off_c, 0, 84, 0
2, 509040, Note_on_c, 0, 86, 79
2, 509120, Note_off_c, 0, 86, 0
2, 509120, Note_on_c, 0, 83, 80
2, 509200, Note_off_c, 0, 83, 0
2, 509200, Note_on_c, 0, 80, 80
2, 509280, Note_off_c, 0, 80, 0
2, 509280, Note_on_c, 0, 81, 81
2, 509760, Note_off_c, 0, 81, 0
2, 510000, Note_on_c, 0, 86, 84
2, 510190, Note_off_c, 0, 86, 0
2, 510240, Note_on_c, 0, 85, 85
2, 510430, Note_off_c, 0, 85, 0
2, 510480, Note_on_c, 0, 84, 86
2, 510670, Note_off_c, 0, 84, 0
2, 510720, Note_on_c, 0, 83, 87
2, 510910, Note_off_c, 0, 83, 0
2, 510960, Note_on_c, 0, 82, 89
2, 511150, Note_off_c, 0, 82, 0
2, 511200, Note_on_c, 0, 81, 90
2, 511390, Note_off_c, 0, 81, 0
2, 511440, Note_on_c, 0, 79, 91
2, 511630, Note_off_c, 0, 79, 0
2, 511680, Note_on_c, 0, 77, 92
2, 511870, Note_off_c, 0, 77, 0
2, 511920, Note_on_c, 0, 75, 93
2, 512110, Note_off_c, 0, 75, 0
2, 512160, Note_on_c, 0, 74, 94
2, 512240, Note_off_c, 0, 74, 0
2, 512240, Note_on_c, 0, 67, 95
2, 512320, Note_off_c, 0, 67, 0
2, 512320, Note_on_c, 0, 70, 95
2, 512400, Note_off_c, 0, 70, 0
2, 512400, Note_on_c, 0, 74, 96
2, 512480, Note_off_c, 0, 74, 0
2, 512480, Note_on_c, 0, 79, 96
2, 512560, Note_off_c, 0, 79, 0
2, 512560, Note_on_c, 0, 82, 96
2, 512640, Note_off_c, 0, 82, 0
2, 512640, Note_on_c, 0, 86, 97
2, 512720, Note_off_c, 0, 86, 0
2, 512720, Note_on_c, 0, 84, 97
2, 512800, Note_off_c, 0, 84, 0
2, 512800, Note_on_c, 0, 82, 98
2, 512880, Note_off_c, 0, 82, 0
2, 512880, Note_on_c, 0, 81, 98
2, 512960, Note_off_c, 0, 81, 0
2, 512960, Note_on_c, 0, 79, 98
2, 513040, Note_off_c, 0, 79, 0
2, 513040, Note_on_c, 0, 77, 99
2, 513120, Note_off_c, 0, 77, 0
2, 513120, Note_on_c, 0, 76, 98
2, 513310, Note_off_c, 0, 76, 0
2, 513600, Note_on_c, 0, 81, 98
2, 513790, Note_off_c, 0, 81, 0
2, 514080, Note_on_c, 0, 60, 98
2, 514160, Note_off_c, 0, 60, 0
2, 514160, Note_on_c, 0, 64, 98
2, 514240, Note_off_c, 0, 64, 0
2, 514240, Note_on_c, 0, 67, 98
2, 514320, Note_off_c, 0, 67, 0
2, 514320, Note_on_c, 0, 72, 98
2, 514400, Note_off_c, 0, 72, 0
2, 514400, Note_on_c, 0, 76, 98
2, 514480, Note_off_c, 0, 76, 0
2, 514480, Note_on_c, 0, 79, 98
2, 514560, Note_off_c, 0, 79, 0
2, 514560, Note_on_c, 0, 81, 98
2, 514640, Note_off_c, 0, 81, 0
2, 514640, Note_on_c, 0, 84, 98
2, 514720, Note_off_c, 0, 84, 0
2, 514720, Note_on_c, 0, 89, 98
2, 514800, Note_off_c, 0, 89, 0
2, 514800, Note_on_c, 0, 84, 98
2, 514880, Note_off_c, 0, 84, 0
2, 514880, Note_on_c, 0, 81, 98
2, 514960, Note_off_c, 0, 81, 0
2, 514960, Note_on_c, 0, 77, 98
2, 515040, Note_off_c, 0, 77, 0
2, 515040, Note_on_c, 0, 84, 98
2, 515195, Note_off_c, 0, 84, 0
2, 515280, Note_on_c, 0, 72, 94
2, 515472, Note_off_c, 0, 72, 0
2, 516000, Note_on_c, 0, 77, 59
2, 516360, Note_off_c, 0, 77, 0
2, 516360, Note_on_c, 0, 79, 59
2, 516420, Note_off_c, 0, 79, 0
2, 516420, Note_on_c, 0, 77, 59
2, 516480, Note_off_c, 0, 77, 0
2, 516480, Note_on_c, 0, 76, 59
2, 516635, Note_off_c, 0, 76, 0
2, 516720, Note_on_c, 0, 77, 59
2, 516875, Note_off_c, 0, 77, 0
2, 516960, Note_on_c, 0, 78, 59
2, 517200, Note_off_c, 0, 78, 0
2, 517200, Note_on_c, 0, 79, 58
2, 517355, Note_off_c, 0, 79, 0
2, 517440, Note_on_c, 0, 79, 56
2, 517680, Note_off_c, 0, 79, 0
2, 517920, Note_on_c, 0, 79, 65
2, 518280, Note_off_c, 0, 79, 0
2, 518280, Note_on_c, 0, 81, 65
2, 518340, Note_off_c, 0, 81, 0
2, 518340, Note_on_c, 0, 79, 64
2, 518400, Note_off_c, 0, 79, 0
2, 518400, Note_on_c, 0, 78, 64
2, 518555, Note_off_c, 0, 78, 0
2, 518640, Note_on_c, 0, 79, 64
2, 518795, Note_off_c, 0, 79, 0
2, 518880, Note_on_c, 0, 80, 63
2, 519120, Note_off_c, 0, 80, 0
2, 519120, Note_on_c, 0, 81, 62
2, 519275, Note_off_c, 0, 81, 0
2, 519360, Note_on_c, 0, 81, 61
2, 519600, Note_off_c, 0, 81, 0
2, 519840, Note_on_c, 0, 82, 76
2, 519920, Note_off_c, 0, 82, 0
2, 519920, Note_on_c, 0, 84, 76
2, 520000, Note_off_c, 0, 84, 0
2, 520000, Note_on_c, 0, 86, 76
2, 520080, Note_off_c, 0, 86, 0
2, 520080, Note_on_c, 0, 84, 77
2, 520160, Note_off_c, 0, 84, 0
2, 520160, Note_on_c, 0, 82, 77
2, 520240, Note_off_c, 0, 82, 0
2, 520240, Note_on_c, 0, 81, 77
2, 520320, Note_off_c, 0, 81, 0
2, 520320, Note_on_c, 0, 79, 78
2, 520400, Note_off_c, 0, 79, 0
2, 520400, Note_on_c, 0, 81, 78
2, 520480, Note_off_c, 0, 81, 0
2, 520480, Note_on_c, 0, 79, 78
2, 520560, Note_off_c, 0, 79, 0
2, 520560, Note_on_c, 0, 77, 78
2, 520640, Note_off_c, 0, 77, 0
2, 520640, Note_on_c, 0, 75, 79
2, 520720, Note_off_c, 0, 75, 0
2, 520720, Note_on_c, 0, 74, 79
2, 520800, Note_off_c, 0, 74, 0
2, 520800, Note_on_c, 0, 72, 79
2, 520880, Note_off_c, 0, 72, 0
2, 520880, Note_on_c, 0, 74, 80
2, 520960, Note_off_c, 0, 74, 0
2, 520960, Note_on_c, 0, 75, 80
2, 521040, Note_off_c, 0, 75, 0
2, 521040, Note_on_c, 0, 74, 80
2, 521120, Note_off_c, 0, 74, 0
2, 521120, Note_on_c, 0, 72, 81
2, 521200, Note_off_c, 0, 72, 0
2, 521200, Note_on_c, 0, 70, 81
2, 521280, Note_off_c, 0, 70, 0
2, 521280, Note_on_c, 0, 69, 81
2, 521360, Note_off_c, 0, 69, 0
2, 521360, Note_on_c, 0, 70, 81
2, 521440, Note_off_c, 0, 70, 0
2, 521440, Note_on_c, 0, 72, 82
2, 521520, Note_off_c, 0, 72, 0
2, 521520, Note_on_c, 0, 70, 82
2, 521600, Note_off_c, 0, 70, 0
2, 521600, Note_on_c, 0, 69, 82
2, 521680, Note_off_c, 0, 69, 0
2, 521680, Note_on_c, 0, 67, 83
2, 521760, Note_off_c, 0, 67, 0
2, 521760, Note_on_c, 0, 66, 83
2, 521840, Note_off_c, 0, 66, 0
2, 521840, Note_on_c, 0, 72, 83
2, 521920, Note_off_c, 0, 72, 0
2, 521920, Note_on_c, 0, 74, 84
2, 522000, Note_off_c, 0, 74, 0
2, 522000, Note_on_c, 0, 75, 84
2, 522080, Note_off_c, 0, 75, 0
2, 522080, Note_on_c, 0, 74, 84
2, 522160, Note_off_c, 0, 74, 0
2, 522160, Note_on_c, 0, 72, 85
2, 522240, Note_off_c, 0, 72, 0
2, 522240, Note_on_c, 0, 81, 85
2, 522320, Note_off_c, 0, 81, 0
2, 522320, Note_on_c, 0, 79, 85
2, 522400, Note_off_c, 0, 79, 0
2, 522400, Note_on_c, 0, 78, 85
2, 522480, Note_off_c, 0, 78, 0
2, 522480, Note_on_c, 0, 84, 86
2, 522560, Note_off_c, 0, 84, 0
2, 522560, Note_on_c, 0, 82, 86
2, 522640, Note_off_c, 0, 82, 0
2, 522640, Note_on_c, 0, 81, 89
2, 522720, Note_off_c, 0, 81, 0
2, 522720, Note_on_c, 0, 89, 87
2, 522800, Note_off_c, 0, 89, 0
2, 522800, Note_on_c, 0, 88, 84
2, 522880, Note_off_c, 0, 88, 0
2, 522880, Note_on_c, 0, 86, 82
2, 522960, Note_off_c, 0, 86, 0
2, 522960, Note_on_c, 0, 84, 80
2, 523040, Note_off_c, 0, 84, 0
2, 523040, Note_on_c, 0, 83, 77
2, 523120, Note_off_c, 0, 83, 0
2, 523120, Note_on_c, 0, 81, 75
2, 523200, Note_off_c, 0, 81, 0
2, 523200, Note_on_c, 0, 80, 73
2, 523280, Note_off_c, 0, 80, 0
2, 523280, Note_on_c, 0, 77, 70
2, 523360, Note_off_c, 0, 77, 0
2, 523360, Note_on_c, 0, 76, 68
2, 523440, Note_off_c, 0, 76, 0
2, 523440, Note_on_c, 0, 74, 65
2, 523520, Note_off_c, 0, 74, 0
2, 523520, Note_on_c, 0, 72, 63
2, 523600, Note_off_c, 0, 72, 0
2, 523600, Note_on_c, 0, 71, 61
2, 523680, Note_off_c, 0, 71, 0
2, 523680, Note_on_c, 0, 69, 58
2, 524040, Note_off_c, 0, 69, 0
2, 524040, Note_on_c, 0, 71, 57
2, 524100, Note_off_c, 0, 71, 0
2, 524100, Note_on_c, 0, 69, 57
2, 524160, Note_off_c, 0, 69, 0
2, 524160, Note_on_c, 0, 68, 57
2, 524400, Note_off_c, 0, 68, 0
2, 524400, Note_on_c, 0, 69, 56
2, 524640, Note_off_c, 0, 69, 0
2, 524640, Note_on_c, 0, 70, 55
2, 524880, Note_off_c, 0, 70, 0
2, 524880, Note_on_c, 0, 71, 52
2, 525120, Note_off_c, 0, 71, 0
2, 525120, Note_on_c, 0, 69, 49
2, 525120, Note_on_c, 0, 71, 49
2, 525840, Note_off_c, 0, 69, 0
2, 525840, Note_on_c, 0, 68, 62
2, 525960, Note_off_c, 0, 71, 0
2, 525960, Note_on_c, 0, 72, 62
2, 526020, Note_off_c, 0, 72, 0
2, 526020, Note_on_c, 0, 71, 63
2, 526080, Note_off_c, 0, 71, 0
2, 526080, Note_off_c, 0, 68, 0
2, 526080, Note_on_c, 0, 69, 63
2, 526320, Note_off_c, 0, 69, 0
2, 526320, Note_on_c, 0, 71, 63
2, 526560, Note_off_c, 0, 71, 0
2, 526560, Note_on_c, 0, 72, 63
2, 526800, Note_off_c, 0, 72, 0
2, 526800, Note_on_c, 0, 73, 62
2, 527040, Note_off_c, 0, 73, 0
2, 527040, Note_on_c, 0, 73, 60
2, 527040, Note_on_c, 0, 71, 60
2, 527760, Note_off_c, 0, 71, 0
2, 527760, Note_on_c, 0, 70, 68
2, 527880, Note_off_c, 0, 73, 0
2, 527880, Note_on_c, 0, 74, 68
2, 527940, Note_off_c, 0, 74, 0
2, 527940, Note_on_c, 0, 73, 68
2, 528000, Note_off_c, 0, 73, 0
2, 528000, Note_off_c, 0, 70, 0
2, 528000, Note_on_c, 0, 71, 68
2, 528240, Note_off_c, 0, 71, 0
2, 528240, Note_on_c, 0, 73, 69
2, 528480, Note_off_c, 0, 73, 0
2, 528480, Note_on_c, 0, 74, 76
2, 528560, Note_off_c, 0, 74, 0
2, 528560, Note_on_c, 0, 66, 76
2, 528640, Note_off_c, 0, 66, 0
2, 528640, Note_on_c, 0, 71, 76
2, 528720, Note_off_c, 0, 71, 0
2, 528720, Note_on_c, 0, 74, 76
2, 528800, Note_off_c, 0, 74, 0
2, 528800, Note_on_c, 0, 78, 76
2, 528880, Note_off_c, 0, 78, 0
2, 528880, Note_on_c, 0, 83, 76
2, 528960, Note_off_c, 0, 83, 0
2, 528960, Note_on_c, 0, 86, 77
2, 529040, Note_off_c, 0, 86, 0
2, 529040, Note_on_c, 0, 83, 77
2, 529120, Note_off_c, 0, 83, 0
2, 529120, Note_on_c, 0, 78, 77
2, 529200, Note_off_c, 0, 78, 0
2, 529200, Note_on_c, 0, 83, 77
2, 529280, Note_off_c, 0, 83, 0
2, 529280, Note_on_c, 0, 78, 77
2, 529360, Note_off_c, 0, 78, 0
2, 529360, Note_on_c, 0, 74, 77
2, 529440, Note_off_c, 0, 74, 0
2, 529440, Note_on_c, 0, 79, 78
2, 529800, Note_off_c, 0, 79, 0
2, 529800, Note_on_c, 0, 81, 78
2, 529860, Note_off_c, 0, 81, 0
2, 529860, Note_on_c, 0, 79, 78
2, 529920, Note_off_c, 0, 79, 0
2, 529920, Note_on_c, 0, 78, 79
2, 530075, Note_off_c, 0, 78, 0
2, 530160, Note_on_c, 0, 79, 79
2, 530315, Note_off_c, 0, 79, 0
2, 530400, Note_on_c, 0, 73, 80
2, 530480, Note_off_c, 0, 73, 0
2, 530480, Note_on_c, 0, 64, 80
2, 530560, Note_off_c, 0, 64, 0
2, 530560, Note_on_c, 0, 69, 80
2, 530640, Note_off_c, 0, 69, 0
2, 530640, Note_on_c, 0, 73, 80
2, 530720, Note_off_c, 0, 73, 0
2, 530720, Note_on_c, 0, 76, 80
2, 530800, Note_off_c, 0, 76, 0
2, 530800, Note_on_c, 0, 81, 80
2, 530880, Note_off_c, 0, 81, 0
2, 530880, Note_on_c, 0, 85, 81
2, 530960, Note_off_c, 0, 85, 0
2, 530960, Note_on_c, 0, 81, 81
2, 531040, Note_off_c, 0, 81, 0
2, 531040, Note_on_c, 0, 76, 81
2, 531120, Note_off_c, 0, 76, 0
2, 531120, Note_on_c, 0, 81, 81
2, 531200, Note_off_c, 0, 81, 0
2, 531200, Note_on_c, 0, 76, 81
2, 531280, Note_off_c, 0, 76, 0
2, 531280, Note_on_c, 0, 73, 81
2, 531360, Note_off_c, 0, 73, 0
2, 531360, Note_on_c, 0, 78, 81
2, 531720, Note_off_c, 0, 78, 0
2, 531720, Note_on_c, 0, 79, 82
2, 531780, Note_off_c, 0, 79, 0
2, 531780, Note_on_c, 0, 78, 82
2, 531840, Note_off_c, 0, 78, 0
2, 531840, Note_on_c, 0, 76, 82
2, 531995, Note_off_c, 0, 76, 0
2, 532080, Note_on_c, 0, 78, 83
2, 532235, Note_off_c, 0, 78, 0
2, 532320, Note_on_c, 0, 71, 83
2, 532400, Note_off_c, 0, 71, 0
2, 532400, Note_on_c, 0, 64, 84
2, 532480, Note_off_c, 0, 64, 0
2, 532480, Note_on_c, 0, 67, 84
2, 532560, Note_off_c, 0, 67, 0
2, 532560, Note_on_c, 0, 71, 84
2, 532640, Note_off_c, 0, 71, 0
2, 532640, Note_on_c, 0, 67, 84
2, 532720, Note_off_c, 0, 67, 0
2, 532720, Note_on_c, 0, 71, 84
2, 532800, Note_off_c, 0, 71, 0
2, 532800, Note_on_c, 0, 76, 84
2, 532880, Note_off_c, 0, 76, 0
2, 532880, Note_on_c, 0, 71, 85
2, 532960, Note_off_c, 0, 71, 0
2, 532960, Note_on_c, 0, 76, 85
2, 533040, Note_off_c, 0, 76, 0
2, 533040, Note_on_c, 0, 79, 85
2, 533120, Note_off_c, 0, 79, 0
2, 533120, Note_on_c, 0, 76, 85
2, 533200, Note_off_c, 0, 76, 0
2, 533200, Note_on_c, 0, 79, 85
2, 533280, Note_off_c, 0, 79, 0
2, 533280, Note_on_c, 0, 83, 85
2, 533360, Note_off_c, 0, 83, 0
2, 533360, Note_on_c, 0, 84, 86
2, 533440, Note_off_c, 0, 84, 0
2, 533440, Note_on_c, 0, 83, 86
2, 533520, Note_off_c, 0, 83, 0
2, 533520, Note_on_c, 0, 81, 86
2, 533600, Note_off_c, 0, 81, 0
2, 533600, Note_on_c, 0, 79, 86
2, 533680, Note_off_c, 0, 79, 0
2, 533680, Note_on_c, 0, 78, 86
2, 533760, Note_off_c, 0, 78, 0
2, 533760, Note_on_c, 0, 79, 86
2, 533840, Note_off_c, 0, 79, 0
2, 533840, Note_on_c, 0, 81, 87
2, 533920, Note_off_c, 0, 81, 0
2, 533920, Note_on_c, 0, 79, 87
2, 534000, Note_off_c, 0, 79, 0
2, 534000, Note_on_c, 0, 78, 87
2, 534080, Note_off_c, 0, 78, 0
2, 534080, Note_on_c, 0, 76, 87
2, 534160, Note_off_c, 0, 76, 0
2, 534160, Note_on_c, 0, 74, 87
2, 534240, Note_off_c, 0, 74, 0
2, 534240, Note_on_c, 0, 73, 87
2, 534480, Note_off_c, 0, 73, 0
2, 534720, Note_on_c, 0, 78, 88
2, 534960, Note_off_c, 0, 78, 0
2, 535200, Note_on_c, 0, 57, 90
2, 535280, Note_off_c, 0, 57, 0
2, 535280, Note_on_c, 0, 61, 90
2, 535360, Note_off_c, 0, 61, 0
2, 535360, Note_on_c, 0, 64, 90
2, 535440, Note_off_c, 0, 64, 0
2, 535440, Note_on_c, 0, 69, 90
2, 535520, Note_off_c, 0, 69, 0
2, 535520, Note_on_c, 0, 73, 90
2, 535600, Note_off_c, 0, 73, 0
2, 535600, Note_on_c, 0, 76, 90
2, 535680, Note_off_c, 0, 76, 0
2, 535680, Note_on_c, 0, 78, 90
2, 535760, Note_off_c, 0, 78, 0
2, 535760, Note_on_c, 0, 81, 90
2, 535840, Note_off_c, 0, 81, 0
2, 535840, Note_on_c, 0, 86, 90
2, 535920, Note_off_c, 0, 86, 0
2, 535920, Note_on_c, 0, 81, 90
2, 536000, Note_off_c, 0, 81, 0
2, 536000, Note_on_c, 0, 78, 90
2, 536080, Note_off_c, 0, 78, 0
2, 536080, Note_on_c, 0, 74, 90
2, 536160, Note_off_c, 0, 74, 0
2, 536160, Note_on_c, 0, 81, 90
2, 536315, Note_off_c, 0, 81, 0
2, 536400, Note_on_c, 0, 69, 86
2, 536592, Note_off_c, 0, 69, 0
2, 538320, Note_on_c, 0, 79, 60
2, 538440, Note_off_c, 0, 79, 0
2, 538440, Note_on_c, 0, 71, 59
2, 538560, Note_off_c, 0, 71, 0
2, 538560, Note_on_c, 0, 74, 58
2, 538800, Note_off_c, 0, 74, 0
2, 538800, Note_on_c, 0, 73, 56
2, 539040, Note_off_c, 0, 73, 0
2, 540240, Note_on_c, 0, 81, 66
2, 540360, Note_off_c, 0, 81, 0
2, 540360, Note_on_c, 0, 73, 65
2, 540480, Note_off_c, 0, 73, 0
2, 540480, Note_on_c, 0, 76, 65
2, 540720, Note_off_c, 0, 76, 0
2, 540720, Note_on_c, 0, 75, 61
2, 540960, Note_off_c, 0, 75, 0
2, 540960, Note_on_c, 0, 76, 63
2, 541320, Note_off_c, 0, 76, 0
2, 541320, Note_on_c, 0, 75, 62
2, 541380, Note_off_c, 0, 75, 0
2, 541380, Note_on_c, 0, 76, 62
2, 541440, Note_off_c, 0, 76, 0
2, 541440, Note_on_c, 0, 78, 62
2, 541595, Note_off_c, 0, 78, 0
2, 541680, Note_on_c, 0, 79, 61
2, 541835, Note_off_c, 0, 79, 0
2, 541920, Note_on_c, 0, 72, 61
2, 542160, Note_off_c, 0, 72, 0
2, 542160, Note_on_c, 0, 71, 60
2, 542315, Note_off_c, 0, 71, 0
2, 542640, Note_on_c, 0, 79, 60
2, 542795, Note_off_c, 0, 79, 0
2, 542880, Note_on_c, 0, 70, 63
2, 543120, Note_off_c, 0, 70, 0
2, 543120, Note_on_c, 0, 69, 62
2, 543275, Note_off_c, 0, 69, 0
2, 543600, Note_on_c, 0, 69, 60
2, 543720, Note_off_c, 0, 69, 0
2, 543720, Note_on_c, 0, 78, 60
2, 543840, Note_off_c, 0, 78, 0
2, 543840, Note_on_c, 0, 76, 59
2, 544080, Note_off_c, 0, 76, 0
2, 544080, Note_on_c, 0, 74, 58
2, 544560, Note_off_c, 0, 74, 0
2, 544560, Note_on_c, 0, 68, 56
2, 544800, Note_off_c, 0, 68, 0
2, 544800, Note_on_c, 0, 69, 75
2, 545160, Note_off_c, 0, 69, 0
2, 545160, Note_on_c, 0, 71, 74
2, 545220, Note_off_c, 0, 71, 0
2, 545220, Note_on_c, 0, 69, 74
2, 545280, Note_off_c, 0, 69, 0
2, 545280, Note_on_c, 0, 68, 74
2, 545435, Note_off_c, 0, 68, 0
2, 545520, Note_on_c, 0, 69, 73
2, 545675, Note_off_c, 0, 69, 0
2, 545760, Note_on_c, 0, 70, 73
2, 545760, Note_on_c, 0, 62, 73
2, 546000, Note_off_c, 0, 70, 0
2, 546000, Note_on_c, 0, 71, 72
2, 546155, Note_off_c, 0, 71, 0
2, 546240, Note_on_c, 0, 71, 70
2, 546480, Note_off_c, 0, 71, 0
2, 546612, Note_off_c, 0, 62, 0
2, 546720, Note_on_c, 0, 73, 79
2, 546720, Note_on_c, 0, 64, 79
2, 547080, Note_off_c, 0, 73, 0
2, 547080, Note_on_c, 0, 74, 80
2, 547140, Note_off_c, 0, 74, 0
2, 547140, Note_on_c, 0, 73, 80
2, 547200, Note_off_c, 0, 73, 0
2, 547200, Note_on_c, 0, 71, 81
2, 547355, Note_off_c, 0, 71, 0
2, 547440, Note_on_c, 0, 73, 80
2, 547572, Note_off_c, 0, 64, 0
2, 547595, Note_off_c, 0, 73, 0
2, 547680, Note_on_c, 0, 73, 80
2, 547680, Note_on_c, 0, 69, 80
2, 547920, Note_off_c, 0, 73, 0
2, 547920, Note_on_c, 0, 74, 79
2, 548075, Note_off_c, 0, 74, 0
2, 548160, Note_on_c, 0, 74, 77
2, 548400, Note_off_c, 0, 74, 0
2, 548532, Note_off_c, 0, 69, 0
2, 548640, Note_on_c, 0, 76, 89
2, 548640, Note_on_c, 0, 73, 89
2, 549000, Note_off_c, 0, 76, 0
2, 549000, Note_on_c, 0, 78, 87
2, 549060, Note_off_c, 0, 78, 0
2, 549060, Note_on_c, 0, 76, 87
2, 549120, Note_off_c, 0, 76, 0
2, 549120, Note_on_c, 0, 74, 86
2, 549275, Note_off_c, 0, 74, 0
2, 549360, Note_on_c, 0, 76, 85
2, 549515, Note_off_c, 0, 76, 0
2, 549546, Note_off_c, 0, 73, 0
2, 549600, Note_on_c, 0, 78, 81
2, 549600, Note_on_c, 0, 69, 81
2, 549960, Note_off_c, 0, 78, 0
2, 549960, Note_on_c, 0, 79, 90
2, 550020, Note_off_c, 0, 79, 0
2, 550020, Note_on_c, 0, 78, 89
2, 550080, Note_off_c, 0, 78, 0
2, 550080, Note_on_c, 0, 76, 89
2, 550235, Note_off_c, 0, 76, 0
2, 550320, Note_on_c, 0, 78, 88
2, 550452, Note_off_c, 0, 69, 0
2, 550475, Note_off_c, 0, 78, 0
2, 550560, Note_on_c, 0, 79, 99
2, 550640, Note_off_c, 0, 79, 0
2, 550640, Note_on_c, 0, 76, 99
2, 550720, Note_off_c, 0, 76, 0
2, 550720, Note_on_c, 0, 73, 99
2, 550800, Note_off_c, 0, 73, 0
2, 550800, Note_on_c, 0, 69, 98
2, 550880, Note_off_c, 0, 69, 0
2, 550880, Note_on_c, 0, 67, 98
2, 550960, Note_off_c, 0, 67, 0
2, 550960, Note_on_c, 0, 64, 98
2, 551040, Note_off_c, 0, 64, 0
2, 551040, Note_on_c, 0, 61, 98
2, 551120, Note_off_c, 0, 61, 0
2, 551120, Note_on_c, 0, 64, 97
2, 551200, Note_off_c, 0, 64, 0
2, 551200, Note_on_c, 0, 67, 97
2, 551280, Note_off_c, 0, 67, 0
2, 551280, Note_on_c, 0, 69, 97
2, 551360, Note_off_c, 0, 69, 0
2, 551360, Note_on_c, 0, 73, 97
2, 551440, Note_off_c, 0, 73, 0
2, 551440, Note_on_c, 0, 76, 96
2, 551520, Note_off_c, 0, 76, 0
2, 551520, Note_on_c, 0, 79, 96
2, 551600, Note_off_c, 0, 79, 0
2, 551600, Note_on_c, 0, 76, 96
2, 551680, Note_off_c, 0, 76, 0
2, 551680, Note_on_c, 0, 73, 95
2, 551760, Note_off_c, 0, 73, 0
2, 551760, Note_on_c, 0, 69, 95
2, 551840, Note_off_c, 0, 69, 0
2, 551840, Note_on_c, 0, 67, 95
2, 551920, Note_off_c, 0, 67, 0
2, 551920, Note_on_c, 0, 64, 95
2, 552000, Note_off_c, 0, 64, 0
2, 552000, Note_on_c, 0, 61, 94
2, 552080, Note_off_c, 0, 61, 0
2, 552080, Note_on_c, 0, 64, 94
2, 552160, Note_off_c, 0, 64, 0
2, 552160, Note_on_c, 0, 67, 94
2, 552240, Note_off_c, 0, 67, 0
2, 552240, Note_on_c, 0, 69, 93
2, 552320, Note_off_c, 0, 69, 0
2, 552320, Note_on_c, 0, 73, 93
2, 552400, Note_off_c, 0, 73, 0
2, 552400, Note_on_c, 0, 76, 93
2, 552480, Note_off_c, 0, 76, 0
2, 552480, Note_on_c, 0, 79, 93
2, 552560, Note_off_c, 0, 79, 0
2, 552560, Note_on_c, 0, 76, 92
2, 552640, Note_off_c, 0, 76, 0
2, 552640, Note_on_c, 0, 79, 92
2, 552720, Note_off_c, 0, 79, 0
2, 552720, Note_on_c, 0, 78, 92
2, 552800, Note_off_c, 0, 78, 0
2, 552800, Note_on_c, 0, 74, 92
2, 552880, Note_off_c, 0, 74, 0
2, 552880, Note_on_c, 0, 78, 91
2, 552960, Note_off_c, 0, 78, 0
2, 552960, Note_on_c, 0, 76, 91
2, 553040, Note_off_c, 0, 76, 0
2, 553040, Note_on_c, 0, 73, 91
2, 553120, Note_off_c, 0, 73, 0
2, 553120, Note_on_c, 0, 76, 90
2, 553200, Note_off_c, 0, 76, 0
2, 553200, Note_on_c, 0, 74, 90
2, 553280, Note_off_c, 0, 74, 0
2, 553280, Note_on_c, 0, 71, 90
2, 553360, Note_off_c, 0, 71, 0
2, 553360, Note_on_c, 0, 74, 90
2, 553440, Note_off_c, 0, 74, 0
2, 553440, Note_on_c, 0, 73, 89
2, 553520, Note_off_c, 0, 73, 0
2, 553520, Note_on_c, 0, 69, 89
2, 553600, Note_off_c, 0, 69, 0
2, 553600, Note_on_c, 0, 73, 89
2, 553680, Note_off_c, 0, 73, 0
2, 553680, Note_on_c, 0, 71, 88
2, 553760, Note_off_c, 0, 71, 0
2, 553760, Note_on_c, 0, 67, 88
2, 553840, Note_off_c, 0, 67, 0
2, 553840, Note_on_c, 0, 71, 88
2, 553920, Note_off_c, 0, 71, 0
2, 553920, Note_on_c, 0, 69, 88
2, 554000, Note_off_c, 0, 69, 0
2, 554000, Note_on_c, 0, 66, 87
2, 554080, Note_off_c, 0, 66, 0
2, 554080, Note_on_c, 0, 69, 87
2, 554160, Note_off_c, 0, 69, 0
2, 554160, Note_on_c, 0, 67, 87
2, 554240, Note_off_c, 0, 67, 0
2, 554240, Note_on_c, 0, 64, 87
2, 554320, Note_off_c, 0, 64, 0
2, 554320, Note_on_c, 0, 67, 86
2, 554400, Note_off_c, 0, 67, 0
2, 554400, Note_on_c, 0, 66, 86
2, 554640, Note_off_c, 0, 66, 0
2, 554640, Note_on_c, 0, 81, 85
2, 554720, Note_off_c, 0, 81, 0
2, 554720, Note_on_c, 0, 78, 85
2, 554800, Note_off_c, 0, 78, 0
2, 554800, Note_on_c, 0, 74, 85
2, 554880, Note_off_c, 0, 74, 0
2, 554880, Note_on_c, 0, 73, 84
2, 554960, Note_off_c, 0, 73, 0
2, 554960, Note_on_c, 0, 76, 84
2, 555040, Note_off_c, 0, 76, 0
2, 555040, Note_on_c, 0, 69, 84
2, 555120, Note_off_c, 0, 69, 0
2, 555120, Note_on_c, 0, 81, 83
2, 555200, Note_off_c, 0, 81, 0
2, 555200, Note_on_c, 0, 79, 83
2, 555280, Note_off_c, 0, 79, 0
2, 555280, Note_on_c, 0, 76, 83
2, 555360, Note_off_c, 0, 76, 0
2, 555360, Note_on_c, 0, 74, 83
2, 555440, Note_off_c, 0, 74, 0
2, 555440, Note_on_c, 0, 78, 82
2, 555520, Note_off_c, 0, 78, 0
2, 555520, Note_on_c, 0, 69, 82
2, 555600, Note_off_c, 0, 69, 0
2, 555600, Note_on_c, 0, 81, 82
2, 555680, Note_off_c, 0, 81, 0
2, 555680, Note_on_c, 0, 78, 81
2, 555760, Note_off_c, 0, 78, 0
2, 555760, Note_on_c, 0, 74, 81
2, 555840, Note_off_c, 0, 74, 0
2, 555840, Note_on_c, 0, 73, 81
2, 555920, Note_off_c, 0, 73, 0
2, 555920, Note_on_c, 0, 76, 81
2, 556000, Note_off_c, 0, 76, 0
2, 556000, Note_on_c, 0, 69, 80
2, 556080, Note_off_c, 0, 69, 0
2, 556080, Note_on_c, 0, 81, 80
2, 556160, Note_off_c, 0, 81, 0
2, 556160, Note_on_c, 0, 79, 80
2, 556240, Note_off_c, 0, 79, 0
2, 556240, Note_on_c, 0, 76, 80
2, 556320, Note_off_c, 0, 76, 0
2, 556320, Note_on_c, 0, 78, 79
2, 556400, Note_off_c, 0, 78, 0
2, 556400, Note_on_c, 0, 81, 79
2, 556480, Note_off_c, 0, 81, 0
2, 556480, Note_on_c, 0, 69, 79
2, 556560, Note_off_c, 0, 69, 0
2, 556560, Note_on_c, 0, 81, 78
2, 556560, Note_on_c, 0, 72, 78
2, 556800, Note_off_c, 0, 72, 0
2, 556800, Note_on_c, 0, 71, 87
2, 557040, Note_off_c, 0, 81, 0
2, 557040, Note_on_c, 0, 79, 86
2, 557280, Note_off_c, 0, 71, 0
2, 557280, Note_on_c, 0, 69, 85
2, 557520, Note_off_c, 0, 79, 0
2, 557520, Note_on_c, 0, 78, 84
2, 557760, Note_off_c, 0, 69, 0
2, 557760, Note_on_c, 0, 67, 82
2, 558000, Note_off_c, 0, 78, 0
2, 558000, Note_on_c, 0, 76, 81
2, 558240, Note_off_c, 0, 67, 0
2, 558240, Note_on_c, 0, 66, 80
2, 558480, Note_off_c, 0, 76, 0
2, 558480, Note_on_c, 0, 74, 79
2, 558720, Note_off_c, 0, 66, 0
2, 558720, Note_on_c, 0, 64, 78
2, 558960, Note_off_c, 0, 74, 0
2, 558960, Note_on_c, 0, 73, 77
2, 559200, Note_off_c, 0, 73, 0
2, 559200, Note_off_c, 0, 64, 0
2, 559200, Note_on_c, 0, 74, 76
2, 559280, Note_off_c, 0, 74, 0
2, 559280, Note_on_c, 0, 86, 75
2, 559360, Note_off_c, 0, 86, 0
2, 559360, Note_on_c, 0, 81, 75
2, 559440, Note_off_c, 0, 81, 0
2, 559440, Note_on_c, 0, 83, 75
2, 559520, Note_off_c, 0, 83, 0
2, 559520, Note_on_c, 0, 86, 74
2, 559600, Note_off_c, 0, 86, 0
2, 559600, Note_on_c, 0, 79, 74
2, 559680, Note_off_c, 0, 79, 0
2, 559680, Note_on_c, 0, 78, 74
2, 559760, Note_off_c, 0, 78, 0
2, 559760, Note_on_c, 0, 81, 73
2, 559840, Note_off_c, 0, 81, 0
2, 559840, Note_on_c, 0, 74, 73
2, 559920, Note_off_c, 0, 74, 0
2, 559920, Note_on_c, 0, 76, 73
2, 560000, Note_off_c, 0, 76, 0
2, 560000, Note_on_c, 0, 79, 72
2, 560080, Note_off_c, 0, 79, 0
2, 560080, Note_on_c, 0, 73, 72
2, 560160, Note_off_c, 0, 73, 0
2, 560160, Note_on_c, 0, 74, 71
2, 560400, Note_off_c, 0, 74, 0
2, 560640, Note_on_c, 0, 78, 73
2, 560880, Note_off_c, 0, 78, 0
2, 560880, Note_on_c, 0, 76, 72
2, 561120, Note_off_c, 0, 76, 0
2, 561120, Note_on_c, 0, 74, 71
2, 561360, Note_off_c, 0, 74, 0
2, 561360, Note_on_c, 0, 73, 69
2, 561600, Note_off_c, 0, 73, 0
2, 561600, Note_on_c, 0, 71, 68
2, 561840, Note_off_c, 0, 71, 0
2, 561840, Note_on_c, 0, 69, 67
2, 562080, Note_off_c, 0, 69, 0
2, 562080, Note_on_c, 0, 69, 66
2, 562200, Note_off_c, 0, 69, 0
2, 562200, Note_on_c, 0, 67, 65
2, 562320, Note_off_c, 0, 67, 0
2, 562320, Note_on_c, 0, 66, 64
2, 562560, Note_off_c, 0, 66, 0
2, 562560, Note_on_c, 0, 69, 63
2, 563160, Note_off_c, 0, 69, 0
2, 563160, Note_on_c, 0, 67, 60
2, 563400, Note_off_c, 0, 67, 0
2, 563400, Note_on_c, 0, 66, 58
2, 563640, Note_off_c, 0, 66, 0
2, 563640, Note_on_c, 0, 64, 57
2, 563880, Note_off_c, 0, 64, 0
2, 563880, Note_on_c, 0, 62, 56
2, 564000, Note_off_c, 0, 62, 0
2, 564000, Note_on_c, 0, 66, 55
2, 564240, Note_off_c, 0, 66, 0
2, 564240, Note_on_c, 0, 64, 54
2, 564480, Note_off_c, 0, 64, 0
2, 564480, Note_on_c, 0, 78, 67
2, 564560, Note_off_c, 0, 78, 0
2, 564560, Note_on_c, 0, 79, 67
2, 564640, Note_off_c, 0, 79, 0
2, 564640, Note_on_c, 0, 78, 66
2, 564720, Note_off_c, 0, 78, 0
2, 564720, Note_on_c, 0, 76, 66
2, 564800, Note_off_c, 0, 76, 0
2, 564800, Note_on_c, 0, 80, 66
2, 564880, Note_off_c, 0, 80, 0
2, 564880, Note_on_c, 0, 81, 65
2, 564960, Note_off_c, 0, 81, 0
2, 564960, Note_on_c, 0, 74, 65
2, 565040, Note_off_c, 0, 74, 0
2, 565040, Note_on_c, 0, 76, 65
2, 565120, Note_off_c, 0, 76, 0
2, 565120, Note_on_c, 0, 74, 64
2, 565200, Note_off_c, 0, 74, 0
2, 565200, Note_on_c, 0, 73, 64
2, 565280, Note_off_c, 0, 73, 0
2, 565280, Note_on_c, 0, 77, 63
2, 565360, Note_off_c, 0, 77, 0
2, 565360, Note_on_c, 0, 78, 63
2, 565440, Note_off_c, 0, 78, 0
2, 565440, Note_on_c, 0, 71, 63
2, 565520, Note_off_c, 0, 71, 0
2, 565520, Note_on_c, 0, 72, 62
2, 565600, Note_off_c, 0, 72, 0
2, 565600, Note_on_c, 0, 71, 62
2, 565680, Note_off_c, 0, 71, 0
2, 565680, Note_on_c, 0, 69, 62
2, 565760, Note_off_c, 0, 69, 0
2, 565760, Note_on_c, 0, 73, 61
2, 565840, Note_off_c, 0, 73, 0
2, 565840, Note_on_c, 0, 74, 61
2, 565920, Note_off_c, 0, 74, 0
2, 565920, Note_on_c, 0, 69, 60
2, 566040, Note_off_c, 0, 69, 0
2, 566040, Note_on_c, 0, 67, 60
2, 566160, Note_off_c, 0, 67, 0
2, 566160, Note_on_c, 0, 66, 59
2, 566400, Note_off_c, 0, 66, 0
2, 566400, Note_on_c, 0, 81, 71
2, 567000, Note_off_c, 0, 81, 0
2, 567000, Note_on_c, 0, 83, 65
2, 567120, Note_off_c, 0, 83, 0
2, 567120, Note_on_c, 0, 79, 64
2, 567240, Note_off_c, 0, 79, 0
2, 567240, Note_on_c, 0, 76, 63
2, 567360, Note_off_c, 0, 76, 0
2, 567360, Note_on_c, 0, 74, 62
2, 567600, Note_off_c, 0, 74, 0
2, 567600, Note_on_c, 0, 78, 59
2, 567720, Note_off_c, 0, 78, 0
2, 567720, Note_on_c, 0, 76, 58
2, 567840, Note_off_c, 0, 76, 0
2, 567840, Note_on_c, 0, 74, 57
2, 568080, Note_off_c, 0, 74, 0
2, 568320, Note_on_c, 0, 86, 76
2, 568400, Note_off_c, 0, 86, 0
2, 568400, Note_on_c, 0, 81, 77
2, 568480, Note_off_c, 0, 81, 0
2, 568480, Note_on_c, 0, 78, 77
2, 568560, Note_off_c, 0, 78, 0
2, 568560, Note_on_c, 0, 74, 78
2, 568640, Note_off_c, 0, 74, 0
2, 568640, Note_on_c, 0, 69, 78
2, 568720, Note_off_c, 0, 69, 0
2, 568720, Note_on_c, 0, 66, 79
2, 568800, Note_off_c, 0, 66, 0
2, 568800, Note_on_c, 0, 64, 79
2, 569040, Note_off_c, 0, 64, 0
2, 569280, Note_on_c, 0, 88, 83
2, 569360, Note_off_c, 0, 88, 0
2, 569360, Note_on_c, 0, 85, 83
2, 569440, Note_off_c, 0, 85, 0
2, 569440, Note_on_c, 0, 79, 84
2, 569520, Note_off_c, 0, 79, 0
2, 569520, Note_on_c, 0, 76, 84
2, 569600, Note_off_c, 0, 76, 0
2, 569600, Note_on_c, 0, 73, 85
2, 569680, Note_off_c, 0, 73, 0
2, 569680, Note_on_c, 0, 67, 85
2, 569760, Note_off_c, 0, 67, 0
2, 569760, Note_on_c, 0, 66, 86
2, 570000, Note_off_c, 0, 66, 0
2, 570240, Note_on_c, 0, 84, 89
2, 570320, Note_off_c, 0, 84, 0
2, 570320, Note_on_c, 0, 81, 90
2, 570400, Note_off_c, 0, 81, 0
2, 570400, Note_on_c, 0, 78, 90
2, 570480, Note_off_c, 0, 78, 0
2, 570480, Note_on_c, 0, 74, 91
2, 570560, Note_off_c, 0, 74, 0
2, 570560, Note_on_c, 0, 72, 91
2, 570640, Note_off_c, 0, 72, 0
2, 570640, Note_on_c, 0, 69, 92
2, 570720, Note_off_c, 0, 69, 0
2, 570800, Note_on_c, 0, 71, 92
2, 570880, Note_off_c, 0, 71, 0
2, 570880, Note_on_c, 0, 75, 92
2, 570960, Note_off_c, 0, 75, 0
2, 570960, Note_on_c, 0, 78, 91
2, 571040, Note_off_c, 0, 78, 0
2, 571040, Note_on_c, 0, 83, 90
2, 571120, Note_off_c, 0, 83, 0
2, 571120, Note_on_c, 0, 71, 90
2, 571200, Note_off_c, 0, 71, 0
2, 571280, Note_on_c, 0, 76, 88
2, 571360, Note_off_c, 0, 76, 0
2, 571360, Note_on_c, 0, 80, 88
2, 571440, Note_off_c, 0, 80, 0
2, 571440, Note_on_c, 0, 83, 87
2, 571520, Note_off_c, 0, 83, 0
2, 571520, Note_on_c, 0, 88, 87
2, 571600, Note_off_c, 0, 88, 0
2, 571600, Note_on_c, 0, 76, 86
2, 571680, Note_off_c, 0, 76, 0
2, 571760, Note_on_c, 0, 69, 85
2, 571840, Note_off_c, 0, 69, 0
2, 571840, Note_on_c, 0, 73, 84
2, 571920, Note_off_c, 0, 73, 0
2, 571920, Note_on_c, 0, 76, 83
2, 572000, Note_off_c, 0, 76, 0
2, 572000, Note_on_c, 0, 81, 83
2, 572080, Note_off_c, 0, 81, 0
2, 572080, Note_on_c, 0, 69, 82
2, 572160, Note_off_c, 0, 69, 0
2, 572240, Note_on_c, 0, 74, 81
2, 572320, Note_off_c, 0, 74, 0
2, 572320, Note_on_c, 0, 78, 80
2, 572400, Note_off_c, 0, 78, 0
2, 572400, Note_on_c, 0, 81, 79
2, 572480, Note_off_c, 0, 81, 0
2, 572480, Note_on_c, 0, 86, 79
2, 572560, Note_off_c, 0, 86, 0
2, 572560, Note_on_c, 0, 74, 78
2, 572640, Note_off_c, 0, 74, 0
2, 572720, Note_on_c, 0, 81, 77
2, 572800, Note_off_c, 0, 81, 0
2, 572800, Note_on_c, 0, 79, 76
2, 572880, Note_off_c, 0, 79, 0
2, 572960, Note_on_c, 0, 79, 75
2, 573040, Note_off_c, 0, 79, 0
2, 573040, Note_on_c, 0, 78, 74
2, 573120, Note_off_c, 0, 78, 0
2, 573200, Note_on_c, 0, 78, 73
2, 573280, Note_off_c, 0, 78, 0
2, 573280, Note_on_c, 0, 76, 72
2, 573360, Note_off_c, 0, 76, 0
2, 573440, Note_on_c, 0, 76, 71
2, 573520, Note_off_c, 0, 76, 0
2, 573520, Note_on_c, 0, 74, 70
2, 573600, Note_off_c, 0, 74, 0
2, 573600, Note_on_c, 0, 73, 70
2, 573680, Note_off_c, 0, 73, 0
2, 573680, Note_on_c, 0, 69, 71
2, 573760, Note_off_c, 0, 69, 0
2, 573760, Note_on_c, 0, 76, 71
2, 573840, Note_off_c, 0, 76, 0
2, 573840, Note_on_c, 0, 73, 72
2, 573920, Note_off_c, 0, 73, 0
2, 573920, Note_on_c, 0, 81, 72
2, 574000, Note_off_c, 0, 81, 0
2, 574000, Note_on_c, 0, 76, 73
2, 574080, Note_off_c, 0, 76, 0
2, 574080, Note_on_c, 0, 85, 73
2, 574160, Note_off_c, 0, 85, 0
2, 574160, Note_on_c, 0, 81, 74
2, 574240, Note_off_c, 0, 81, 0
2, 574240, Note_on_c, 0, 88, 74
2, 574320, Note_off_c, 0, 88, 0
2, 574320, Note_on_c, 0, 85, 75
2, 574400, Note_off_c, 0, 85, 0
2, 574400, Note_on_c, 0, 81, 76
2, 574480, Note_off_c, 0, 81, 0
2, 574480, Note_on_c, 0, 76, 76
2, 574560, Note_off_c, 0, 76, 0
2, 574560, Note_on_c, 0, 78, 77
2, 574640, Note_off_c, 0, 78, 0
2, 574640, Note_on_c, 0, 74, 77
2, 574720, Note_off_c, 0, 74, 0
2, 574720, Note_on_c, 0, 81, 78
2, 574800, Note_off_c, 0, 81, 0
2, 574800, Note_on_c, 0, 78, 78
2, 574880, Note_off_c, 0, 78, 0
2, 574880, Note_on_c, 0, 86, 79
2, 574960, Note_off_c, 0, 86, 0
2, 574960, Note_on_c, 0, 81, 79
2, 575040, Note_off_c, 0, 81, 0
2, 575040, Note_on_c, 0, 78, 80
2, 575120, Note_off_c, 0, 78, 0
2, 575120, Note_on_c, 0, 81, 81
2, 575200, Note_off_c, 0, 81, 0
2, 575200, Note_on_c, 0, 74, 81
2, 575280, Note_off_c, 0, 74, 0
2, 575280, Note_on_c, 0, 78, 82
2, 575360, Note_off_c, 0, 78, 0
2, 575360, Note_on_c, 0, 69, 82
2, 575440, Note_off_c, 0, 69, 0
2, 575440, Note_on_c, 0, 74, 83
2, 575520, Note_off_c, 0, 74, 0
2, 575520, Note_on_c, 0, 73, 83
2, 575600, Note_off_c, 0, 73, 0
2, 575600, Note_on_c, 0, 69, 84
2, 575680, Note_off_c, 0, 69, 0
2, 575680, Note_on_c, 0, 76, 84
2, 575760, Note_off_c, 0, 76, 0
2, 575760, Note_on_c, 0, 73, 85
2, 575840, Note_off_c, 0, 73, 0
2, 575840, Note_on_c, 0, 81, 85
2, 575920, Note_off_c, 0, 81, 0
2, 575920, Note_on_c, 0, 76, 86
2, 576000, Note_off_c, 0, 76, 0
2, 576000, Note_on_c, 0, 85, 87
2, 576080, Note_off_c, 0, 85, 0
2, 576080, Note_on_c, 0, 81, 87
2, 576160, Note_off_c, 0, 81, 0
2, 576160, Note_on_c, 0, 88, 88
2, 576240, Note_off_c, 0, 88, 0
2, 576240, Note_on_c, 0, 85, 88
2, 576320, Note_off_c, 0, 85, 0
2, 576320, Note_on_c, 0, 81, 89
2, 576400, Note_off_c, 0, 81, 0
2, 576400, Note_on_c, 0, 76, 89
2, 576480, Note_off_c, 0, 76, 0
2, 576480, Note_on_c, 0, 77, 90
2, 576560, Note_off_c, 0, 77, 0
2, 576560, Note_on_c, 0, 74, 90
2, 576640, Note_off_c, 0, 74, 0
2, 576640, Note_on_c, 0, 81, 91
2, 576720, Note_off_c, 0, 81, 0
2, 576720, Note_on_c, 0, 77, 92
2, 576800, Note_off_c, 0, 77, 0
2, 576800, Note_on_c, 0, 86, 92
2, 576880, Note_off_c, 0, 86, 0
2, 576880, Note_on_c, 0, 81, 93
2, 576960, Note_off_c, 0, 81, 0
2, 576960, Note_on_c, 0, 77, 93
2, 577040, Note_off_c, 0, 77, 0
2, 577040, Note_on_c, 0, 81, 94
2, 577120, Note_off_c, 0, 81, 0
2, 577120, Note_on_c, 0, 74, 94
2, 577200, Note_off_c, 0, 74, 0
2, 577200, Note_on_c, 0, 77, 95
2, 577280, Note_off_c, 0, 77, 0
2, 577280, Note_on_c, 0, 69, 95
2, 577360, Note_off_c, 0, 69, 0
2, 577360, Note_on_c, 0, 74, 96
2, 577440, Note_off_c, 0, 74, 0
2, 577440, Note_on_c, 0, 73, 96
2, 577520, Note_off_c, 0, 73, 0
2, 577840, Note_on_c, 0, 73, 95
2, 577840, Note_on_c, 0, 69, 95
2, 577920, Note_off_c, 0, 69, 0
2, 577920, Note_off_c, 0, 73, 0
2, 577920, Note_on_c, 0, 71, 96
2, 577920, Note_on_c, 0, 74, 96
2, 578000, Note_off_c, 0, 74, 0
2, 578000, Note_off_c, 0, 71, 0
2, 578320, Note_on_c, 0, 71, 99
2, 578320, Note_on_c, 0, 74, 99
2, 578400, Note_off_c, 0, 74, 0
2, 578400, Note_off_c, 0, 71, 0
2, 578400, Note_on_c, 0, 73, 100
2, 578400, Note_on_c, 0, 76, 100
2, 578480, Note_off_c, 0, 76, 0
2, 578480, Note_off_c, 0, 73, 0
2, 578800, Note_on_c, 0, 76, 104
2, 578800, Note_on_c, 0, 73, 104
2, 578880, Note_off_c, 0, 73, 0
2, 578880, Note_off_c, 0, 76, 0
2, 578880, Note_on_c, 0, 78, 104
2, 578880, Note_on_c, 0, 74, 104
2, 578960, Note_off_c, 0, 74, 0
2, 578960, Note_off_c, 0, 78, 0
2, 579280, Note_on_c, 0, 78, 107
2, 579280, Note_on_c, 0, 74, 107
2, 579360, Note_off_c, 0, 74, 0
2, 579360, Note_off_c, 0, 78, 0
2, 579360, Note_on_c, 0, 79, 105
2, 579440, Note_off_c, 0, 79, 0
2, 579440, Note_on_c, 0, 85, 103
2, 579520, Note_off_c, 0, 85, 0
2, 579520, Note_on_c, 0, 88, 101
2, 579600, Note_off_c, 0, 88, 0
2, 579600, Note_on_c, 0, 78, 99
2, 579680, Note_off_c, 0, 78, 0
2, 579680, Note_on_c, 0, 88, 97
2, 579760, Note_off_c, 0, 88, 0
2, 579760, Note_on_c, 0, 86, 95
2, 579840, Note_off_c, 0, 86, 0
2, 579840, Note_on_c, 0, 76, 93
2, 579920, Note_off_c, 0, 76, 0
2, 579920, Note_on_c, 0, 79, 91
2, 580000, Note_off_c, 0, 79, 0
2, 580000, Note_on_c, 0, 85, 89
2, 580080, Note_off_c, 0, 85, 0
2, 580080, Note_on_c, 0, 74, 86
2, 580160, Note_off_c, 0, 74, 0
2, 580160, Note_on_c, 0, 85, 84
2, 580240, Note_off_c, 0, 85, 0
2, 580240, Note_on_c, 0, 83, 82
2, 580320, Note_off_c, 0, 83, 0
2, 580320, Note_on_c, 0, 73, 80
2, 580400, Note_off_c, 0, 73, 0
2, 580400, Note_on_c, 0, 76, 78
2, 580480, Note_off_c, 0, 76, 0
2, 580480, Note_on_c, 0, 81, 76
2, 580560, Note_off_c, 0, 81, 0
2, 580560, Note_on_c, 0, 71, 74
2, 580640, Note_off_c, 0, 71, 0
2, 580640, Note_on_c, 0, 81, 72
2, 580720, Note_off_c, 0, 81, 0
2, 580720, Note_on_c, 0, 79, 70
2, 580800, Note_off_c, 0, 79, 0
2, 580800, Note_on_c, 0, 69, 67
2, 580880, Note_off_c, 0, 69, 0
2, 580880, Note_on_c, 0, 73, 65
2, 580960, Note_off_c, 0, 73, 0
2, 580960, Note_on_c, 0, 78, 63
2, 581040, Note_off_c, 0, 78, 0
2, 581040, Note_on_c, 0, 67, 61
2, 581120, Note_off_c, 0, 67, 0
2, 581120, Note_on_c, 0, 78, 59
2, 581200, Note_off_c, 0, 78, 0
2, 581200, Note_on_c, 0, 76, 57
2, 581280, Note_off_c, 0, 76, 0
2, 581280, Note_on_c, 0, 74, 57
2, 581640, Note_off_c, 0, 74, 0
2, 581640, Note_on_c, 0, 76, 57
2, 581700, Note_off_c, 0, 76, 0
2, 581700, Note_on_c, 0, 74, 57
2, 581760, Note_off_c, 0, 74, 0
2, 581760, Note_on_c, 0, 73, 57
2, 581915, Note_off_c, 0, 73, 0
2, 582000, Note_on_c, 0, 74, 57
2, 582155, Note_off_c, 0, 74, 0
2, 582240, Note_on_c, 0, 75, 57
2, 582480, Note_off_c, 0, 75, 0
2, 582480, Note_on_c, 0, 76, 55
2, 582635, Note_off_c, 0, 76, 0
2, 582720, Note_on_c, 0, 76, 53
2, 582960, Note_off_c, 0, 76, 0
2, 583200, Note_on_c, 0, 76, 61
2, 583560, Note_off_c, 0, 76, 0
2, 583560, Note_on_c, 0, 78, 61
2, 583620, Note_off_c, 0, 78, 0
2, 583620, Note_on_c, 0, 76, 61
2, 583680, Note_off_c, 0, 76, 0
2, 583680, Note_on_c, 0, 74, 61
2, 583835, Note_off_c, 0, 74, 0
2, 583920, Note_on_c, 0, 76, 61
2, 584075, Note_off_c, 0, 76, 0
2, 584160, Note_on_c, 0, 77, 61
2, 584400, Note_off_c, 0, 77, 0
2, 584400, Note_on_c, 0, 78, 60
2, 584555, Note_off_c, 0, 78, 0
2, 584640, Note_on_c, 0, 78, 58
2, 584880, Note_off_c, 0, 78, 0
2, 585120, Note_on_c, 0, 81, 67
2, 585300, Note_off_c, 0, 81, 0
2, 585300, Note_on_c, 0, 83, 67
2, 585360, Note_off_c, 0, 83, 0
2, 585360, Note_on_c, 0, 79, 66
2, 585540, Note_off_c, 0, 79, 0
2, 585540, Note_on_c, 0, 81, 66
2, 585600, Note_off_c, 0, 81, 0
2, 585600, Note_on_c, 0, 78, 65
2, 585755, Note_off_c, 0, 78, 0
2, 585840, Note_on_c, 0, 74, 63
2, 585995, Note_off_c, 0, 74, 0
2, 586080, Note_on_c, 0, 79, 64
2, 586260, Note_off_c, 0, 79, 0
2, 586260, Note_on_c, 0, 81, 63
2, 586320, Note_off_c, 0, 81, 0
2, 586320, Note_on_c, 0, 78, 63
2, 586500, Note_off_c, 0, 78, 0
2, 586500, Note_on_c, 0, 79, 62
2, 586560, Note_off_c, 0, 79, 0
2, 586560, Note_on_c, 0, 76, 62
2, 586715, Note_off_c, 0, 76, 0
2, 586800, Note_on_c, 0, 73, 61
2, 586955, Note_off_c, 0, 73, 0
2, 587040, Note_on_c, 0, 74, 60
2, 587195, Note_off_c, 0, 74, 0
2, 587280, Note_on_c, 0, 74, 59
2, 587435, Note_off_c, 0, 74, 0
2, 587520, Note_on_c, 0, 73, 58
2, 587675, Note_off_c, 0, 73, 0
2, 587760, Note_on_c, 0, 73, 57
2, 587915, Note_off_c, 0, 73, 0
2, 588000, Note_on_c, 0, 71, 57
2, 588040, Note_off_c, 0, 71, 0
2, 588040, Note_on_c, 0, 73, 56
2, 588080, Note_off_c, 0, 73, 0
2, 588080, Note_on_c, 0, 71, 56
2, 588180, Note_on_c, 0, 69, 56
2, 588185, Note_off_c, 0, 71, 0
2, 588240, Note_off_c, 0, 69, 0
2, 588240, Note_on_c, 0, 71, 56
2, 588420, Note_off_c, 0, 71, 0
2, 588420, Note_on_c, 0, 73, 54
2, 588480, Note_off_c, 0, 73, 0
2, 588480, Note_on_c, 0, 69, 52
2, 588720, Note_off_c, 0, 69, 0
2, 588960, Note_on_c, 0, 74, 73
2, 589320, Note_off_c, 0, 74, 0
2, 589320, Note_on_c, 0, 76, 73
2, 589380, Note_off_c, 0, 76, 0
2, 589380, Note_on_c, 0, 74, 73
2, 589440, Note_off_c, 0, 74, 0
2, 589440, Note_on_c, 0, 73, 73
2, 589595, Note_off_c, 0, 73, 0
2, 589680, Note_on_c, 0, 74, 73
2, 589835, Note_off_c, 0, 74, 0
2, 589920, Note_on_c, 0, 75, 75
2, 590160, Note_off_c, 0, 75, 0
2, 590160, Note_on_c, 0, 76, 72
2, 590315, Note_off_c, 0, 76, 0
2, 590400, Note_on_c, 0, 76, 70
2, 590640, Note_off_c, 0, 76, 0
2, 590880, Note_on_c, 0, 76, 81
2, 591240, Note_off_c, 0, 76, 0
2, 591240, Note_on_c, 0, 78, 81
2, 591300, Note_off_c, 0, 78, 0
2, 591300, Note_on_c, 0, 76, 81
2, 591360, Note_off_c, 0, 76, 0
2, 591360, Note_on_c, 0, 74, 81
2, 591515, Note_off_c, 0, 74, 0
2, 591600, Note_on_c, 0, 76, 80
2, 591755, Note_off_c, 0, 76, 0
2, 591840, Note_on_c, 0, 77, 82
2, 592080, Note_off_c, 0, 77, 0
2, 592080, Note_on_c, 0, 78, 78
2, 592235, Note_off_c, 0, 78, 0
2, 592320, Note_on_c, 0, 78, 75
2, 592560, Note_off_c, 0, 78, 0
2, 592800, Note_on_c, 0, 62, 87
2, 592880, Note_off_c, 0, 62, 0
2, 592880, Note_on_c, 0, 66, 87
2, 592960, Note_off_c, 0, 66, 0
2, 592960, Note_on_c, 0, 69, 87
2, 593040, Note_off_c, 0, 69, 0
2, 593040, Note_on_c, 0, 74, 87
2, 593120, Note_off_c, 0, 74, 0
2, 593120, Note_on_c, 0, 76, 87
2, 593200, Note_off_c, 0, 76, 0
2, 593200, Note_on_c, 0, 78, 86
2, 593280, Note_off_c, 0, 78, 0
2, 593280, Note_on_c, 0, 79, 86
2, 593360, Note_off_c, 0, 79, 0
2, 593360, Note_on_c, 0, 78, 86
2, 593440, Note_off_c, 0, 78, 0
2, 593440, Note_on_c, 0, 79, 86
2, 593520, Note_off_c, 0, 79, 0
2, 593520, Note_on_c, 0, 83, 86
2, 593600, Note_off_c, 0, 83, 0
2, 593600, Note_on_c, 0, 79, 86
2, 593680, Note_off_c, 0, 79, 0
2, 593680, Note_on_c, 0, 74, 86
2, 593760, Note_off_c, 0, 74, 0
2, 593760, Note_on_c, 0, 69, 86
2, 593840, Note_off_c, 0, 69, 0
2, 593840, Note_on_c, 0, 73, 86
2, 593920, Note_off_c, 0, 73, 0
2, 593920, Note_on_c, 0, 76, 85
2, 594000, Note_off_c, 0, 76, 0
2, 594000, Note_on_c, 0, 81, 85
2, 594080, Note_off_c, 0, 81, 0
2, 594080, Note_on_c, 0, 83, 85
2, 594160, Note_off_c, 0, 83, 0
2, 594160, Note_on_c, 0, 85, 85
2, 594240, Note_off_c, 0, 85, 0
2, 594240, Note_on_c, 0, 86, 85
2, 594320, Note_off_c, 0, 86, 0
2, 594320, Note_on_c, 0, 85, 85
2, 594400, Note_off_c, 0, 85, 0
2, 594400, Note_on_c, 0, 83, 85
2, 594480, Note_off_c, 0, 83, 0
2, 594480, Note_on_c, 0, 81, 85
2, 594560, Note_off_c, 0, 81, 0
2, 594560, Note_on_c, 0, 79, 85
2, 594640, Note_off_c, 0, 79, 0
2, 594640, Note_on_c, 0, 78, 84
2, 594720, Note_off_c, 0, 78, 0
2, 594720, Note_on_c, 0, 75, 84
2, 594800, Note_off_c, 0, 75, 0
2, 594800, Note_on_c, 0, 76, 84
2, 594880, Note_off_c, 0, 76, 0
2, 594880, Note_on_c, 0, 79, 84
2, 594960, Note_off_c, 0, 79, 0
2, 594960, Note_on_c, 0, 83, 84
2, 595040, Note_off_c, 0, 83, 0
2, 595040, Note_on_c, 0, 79, 84
2, 595120, Note_off_c, 0, 79, 0
2, 595120, Note_on_c, 0, 76, 84
2, 595200, Note_off_c, 0, 76, 0
2, 595200, Note_on_c, 0, 81, 84
2, 595280, Note_off_c, 0, 81, 0
2, 595280, Note_on_c, 0, 78, 83
2, 595360, Note_off_c, 0, 78, 0
2, 595360, Note_on_c, 0, 74, 83
2, 595440, Note_off_c, 0, 74, 0
2, 595440, Note_on_c, 0, 79, 83
2, 595520, Note_off_c, 0, 79, 0
2, 595520, Note_on_c, 0, 76, 83
2, 595600, Note_off_c, 0, 76, 0
2, 595600, Note_on_c, 0, 73, 83
2, 595680, Note_off_c, 0, 73, 0
2, 595680, Note_on_c, 0, 74, 83
2, 595760, Note_off_c, 0, 74, 0
2, 595760, Note_on_c, 0, 78, 83
2, 595840, Note_off_c, 0, 78, 0
2, 595840, Note_on_c, 0, 81, 83
2, 595920, Note_off_c, 0, 81, 0
2, 595920, Note_on_c, 0, 86, 83
2, 596000, Note_off_c, 0, 86, 0
2, 596000, Note_on_c, 0, 74, 82
2, 596080, Note_off_c, 0, 74, 0
2, 596080, Note_on_c, 0, 86, 82
2, 596160, Note_off_c, 0, 86, 0
2, 596160, Note_on_c, 0, 86, 82
2, 596240, Note_off_c, 0, 86, 0
2, 596240, Note_on_c, 0, 85, 82
2, 596320, Note_off_c, 0, 85, 0
2, 596320, Note_on_c, 0, 83, 82
2, 596400, Note_off_c, 0, 83, 0
2, 596400, Note_on_c, 0, 81, 82
2, 596480, Note_off_c, 0, 81, 0
2, 596480, Note_on_c, 0, 79, 82
2, 596560, Note_off_c, 0, 79, 0
2, 596560, Note_on_c, 0, 78, 82
2, 596640, Note_off_c, 0, 78, 0
2, 596640, Note_on_c, 0, 71, 82
2, 596720, Note_off_c, 0, 71, 0
2, 596720, Note_on_c, 0, 76, 79
2, 596800, Note_off_c, 0, 76, 0
2, 596800, Note_on_c, 0, 79, 79
2, 596880, Note_off_c, 0, 79, 0
2, 596880, Note_on_c, 0, 83, 79
2, 596960, Note_off_c, 0, 83, 0
2, 596960, Note_on_c, 0, 71, 79
2, 597040, Note_off_c, 0, 71, 0
2, 597040, Note_on_c, 0, 83, 79
2, 597120, Note_off_c, 0, 83, 0
2, 597120, Note_on_c, 0, 83, 79
2, 597200, Note_off_c, 0, 83, 0
2, 597200, Note_on_c, 0, 81, 79
2, 597280, Note_off_c, 0, 81, 0
2, 597280, Note_on_c, 0, 79, 79
2, 597360, Note_off_c, 0, 79, 0
2, 597360, Note_on_c, 0, 78, 79
2, 597440, Note_off_c, 0, 78, 0
2, 597440, Note_on_c, 0, 76, 79
2, 597520, Note_off_c, 0, 76, 0
2, 597520, Note_on_c, 0, 74, 79
2, 597600, Note_off_c, 0, 74, 0
2, 597600, Note_on_c, 0, 69, 79
2, 597680, Note_off_c, 0, 69, 0
2, 597680, Note_on_c, 0, 74, 79
2, 597760, Note_off_c, 0, 74, 0
2, 597760, Note_on_c, 0, 78, 79
2, 597840, Note_off_c, 0, 78, 0
2, 597840, Note_on_c, 0, 81, 79
2, 597920, Note_off_c, 0, 81, 0
2, 597920, Note_on_c, 0, 78, 79
2, 598000, Note_off_c, 0, 78, 0
2, 598000, Note_on_c, 0, 74, 79
2, 598080, Note_off_c, 0, 74, 0
2, 598080, Note_on_c, 0, 69, 79
2, 598160, Note_off_c, 0, 69, 0
2, 598160, Note_on_c, 0, 73, 79
2, 598240, Note_off_c, 0, 73, 0
2, 598240, Note_on_c, 0, 76, 79
2, 598320, Note_off_c, 0, 76, 0
2, 598320, Note_on_c, 0, 79, 79
2, 598400, Note_off_c, 0, 79, 0
2, 598400, Note_on_c, 0, 76, 79
2, 598480, Note_off_c, 0, 76, 0
2, 598480, Note_on_c, 0, 73, 79
2, 598560, Note_off_c, 0, 73, 0
2, 598560, Note_on_c, 0, 74, 69
2, 598640, Note_off_c, 0, 74, 0
2, 598640, Note_on_c, 0, 78, 69
2, 598720, Note_off_c, 0, 78, 0
2, 598720, Note_on_c, 0, 81, 69
2, 598800, Note_off_c, 0, 81, 0
2, 598800, Note_on_c, 0, 86, 68
2, 598880, Note_off_c, 0, 86, 0
2, 598880, Note_on_c, 0, 74, 68
2, 598960, Note_off_c, 0, 74, 0
2, 598960, Note_on_c, 0, 86, 68
2, 599040, Note_off_c, 0, 86, 0
2, 599040, Note_on_c, 0, 86, 67
2, 599120, Note_off_c, 0, 86, 0
2, 599120, Note_on_c, 0, 85, 67
2, 599200, Note_off_c, 0, 85, 0
2, 599200, Note_on_c, 0, 83, 67
2, 599280, Note_off_c, 0, 83, 0
2, 599280, Note_on_c, 0, 81, 66
2, 599360, Note_off_c, 0, 81, 0
2, 599360, Note_on_c, 0, 79, 66
2, 599440, Note_off_c, 0, 79, 0
2, 599440, Note_on_c, 0, 78, 66
2, 599520, Note_off_c, 0, 78, 0
2, 599520, Note_on_c, 0, 71, 65
2, 599600, Note_off_c, 0, 71, 0
2, 599600, Note_on_c, 0, 76, 65
2, 599680, Note_off_c, 0, 76, 0
2, 599680, Note_on_c, 0, 79, 65
2, 599760, Note_off_c, 0, 79, 0
2, 599760, Note_on_c, 0, 83, 64
2, 599840, Note_off_c, 0, 83, 0
2, 599840, Note_on_c, 0, 71, 64
2, 599920, Note_off_c, 0, 71, 0
2, 599920, Note_on_c, 0, 83, 64
2, 600000, Note_off_c, 0, 83, 0
2, 600000, Note_on_c, 0, 83, 63
2, 600080, Note_off_c, 0, 83, 0
2, 600080, Note_on_c, 0, 81, 63
2, 600160, Note_off_c, 0, 81, 0
2, 600160, Note_on_c, 0, 79, 63
2, 600240, Note_off_c, 0, 79, 0
2, 600240, Note_on_c, 0, 78, 62
2, 600320, Note_off_c, 0, 78, 0
2, 600320, Note_on_c, 0, 76, 62
2, 600400, Note_off_c, 0, 76, 0
2, 600400, Note_on_c, 0, 74, 62
2, 600480, Note_off_c, 0, 74, 0
2, 600480, Note_on_c, 0, 69, 61
2, 600560, Note_off_c, 0, 69, 0
2, 600560, Note_on_c, 0, 74, 61
2, 600640, Note_off_c, 0, 74, 0
2, 600640, Note_on_c, 0, 78, 61
2, 600720, Note_off_c, 0, 78, 0
2, 600720, Note_on_c, 0, 81, 60
2, 600800, Note_off_c, 0, 81, 0
2, 600800, Note_on_c, 0, 78, 60
2, 600880, Note_off_c, 0, 78, 0
2, 600880, Note_on_c, 0, 74, 60
2, 600960, Note_off_c, 0, 74, 0
2, 600960, Note_on_c, 0, 69, 59
2, 601040, Note_off_c, 0, 69, 0
2, 601040, Note_on_c, 0, 73, 59
2, 601120, Note_off_c, 0, 73, 0
2, 601120, Note_on_c, 0, 76, 59
2, 601200, Note_off_c, 0, 76, 0
2, 601200, Note_on_c, 0, 79, 58
2, 601280, Note_off_c, 0, 79, 0
2, 601280, Note_on_c, 0, 76, 58
2, 601360, Note_off_c, 0, 76, 0
2, 601360, Note_on_c, 0, 73, 58
2, 601440, Note_off_c, 0, 73, 0
2, 601440, Note_on_c, 0, 74, 78
2, 601680, Note_off_c, 0, 74, 0
2, 601920, Note_on_c, 0, 83, 81
2, 602160, Note_off_c, 0, 83, 0
2, 602400, Note_on_c, 0, 81, 84
2, 602640, Note_off_c, 0, 81, 0
2, 602880, Note_on_c, 0, 79, 88
2, 603120, Note_off_c, 0, 79, 0
2, 603360, Note_on_c, 0, 78, 91
2, 603600, Note_off_c, 0, 78, 0
2, 603840, Note_on_c, 0, 79, 95
2, 604080, Note_off_c, 0, 79, 0
2, 604320, Note_on_c, 0, 78, 98
2, 604560, Note_off_c, 0, 78, 0
2, 604800, Note_on_c, 0, 73, 101
2, 605040, Note_off_c, 0, 73, 0
2, 605280, Note_on_c, 0, 74, 105
2, 605520, Note_off_c, 0, 74, 0
2, 605760, Note_on_c, 0, 78, 110
2, 606000, Note_off_c, 0, 78, 0
2, 606240, Note_on_c, 0, 74, 105
2, 606681, Note_off_c, 0, 74, 0
2, 606681, End_track
3, 0, Start_track
3, 0, Title_t, "No Name"
3, 0, Control_c, 1, 10, 73
3, 0, Control_c, 1, 91, 80
3, 0, Control_c, 1, 93, 18
3, 0, Control_c, 1, 64, 0
3, 0, Control_c, 1, 1, 0
3, 0, Pitch_bend_c, 1, 8192
3, 0, Control_c, 1, 7, 117
3, 0, Control_c, 1, 0, 0
3, 0, Control_c, 1, 32, 0
3, 0, Program_c, 1, 0
3, 1200, Note_on_c, 1, 45, 75
3, 1356, Note_off_c, 1, 45, 0
3, 1440, Note_on_c, 1, 50, 75
3, 1596, Note_off_c, 1, 50, 0
3, 1680, Note_on_c, 1, 45, 74
3, 1836, Note_off_c, 1, 45, 0
3, 1920, Note_on_c, 1, 50, 74
3, 2076, Note_off_c, 1, 50, 0
3, 2160, Note_on_c, 1, 54, 73
3, 2316, Note_off_c, 1, 54, 0
3, 2400, Note_on_c, 1, 50, 73
3, 2556, Note_off_c, 1, 50, 0
3, 2640, Note_on_c, 1, 54, 72
3, 2796, Note_off_c, 1, 54, 0
3, 2880, Note_on_c, 1, 57, 73
3, 3240, Note_off_c, 1, 57, 0
3, 3360, Note_on_c, 1, 57, 70
3, 3516, Note_off_c, 1, 57, 0
3, 3600, Note_on_c, 1, 57, 69
3, 3960, Note_off_c, 1, 57, 0
3, 4080, Note_on_c, 1, 69, 60
3, 4080, Note_on_c, 1, 67, 60
3, 4320, Note_off_c, 1, 67, 0
3, 4320, Note_on_c, 1, 66, 63
3, 4560, Note_off_c, 1, 66, 0
3, 4560, Note_off_c, 1, 69, 0
3, 4800, Note_on_c, 1, 61, 61
3, 4800, Note_on_c, 1, 69, 61
3, 5040, Note_off_c, 1, 61, 0
3, 5040, Note_on_c, 1, 62, 61
3, 5280, Note_off_c, 1, 62, 0
3, 5280, Note_off_c, 1, 69, 0
3, 5520, Note_on_c, 1, 64, 58
3, 5520, Note_on_c, 1, 55, 58
3, 5760, Note_off_c, 1, 55, 0
3, 5760, Note_off_c, 1, 64, 0
3, 5760, Note_on_c, 1, 62, 60
3, 5760, Note_on_c, 1, 57, 60
3, 6480, Note_off_c, 1, 62, 0
3, 6480, Note_on_c, 1, 61, 54
3, 6720, Note_off_c, 1, 61, 0
3, 6720, Note_off_c, 1, 57, 0
3, 6960, Note_on_c, 1, 47, 73
3, 7116, Note_off_c, 1, 47, 0
3, 7200, Note_on_c, 1, 52, 73
3, 7356, Note_off_c, 1, 52, 0
3, 7440, Note_on_c, 1, 47, 72
3, 7596, Note_off_c, 1, 47, 0
3, 7680, Note_on_c, 1, 52, 72
3, 7836, Note_off_c, 1, 52, 0
3, 7920, Note_on_c, 1, 55, 71
3, 8076, Note_off_c, 1, 55, 0
3, 8160, Note_on_c, 1, 52, 70
3, 8316, Note_off_c, 1, 52, 0
3, 8400, Note_on_c, 1, 55, 70
3, 8556, Note_off_c, 1, 55, 0
3, 8640, Note_on_c, 1, 59, 69
3, 9000, Note_off_c, 1, 59, 0
3, 9120, Note_on_c, 1, 59, 68
3, 9276, Note_off_c, 1, 59, 0
3, 9360, Note_on_c, 1, 59, 68
3, 9720, Note_off_c, 1, 59, 0
3, 9840, Note_on_c, 1, 69, 60
3, 9840, Note_on_c, 1, 66, 60
3, 10032, Note_off_c, 1, 66, 0
3, 10032, Note_off_c, 1, 69, 0
3, 10080, Note_on_c, 1, 71, 62
3, 10080, Note_on_c, 1, 67, 62
3, 10560, Note_off_c, 1, 67, 0
3, 10560, Note_off_c, 1, 71, 0
3, 11280, Note_on_c, 1, 57, 56
3, 11280, Note_on_c, 1, 64, 56
3, 11472, Note_off_c, 1, 64, 0
3, 11472, Note_off_c, 1, 57, 0
3, 11520, Note_on_c, 1, 67, 58
3, 11520, Note_on_c, 1, 62, 58
3, 12240, Note_off_c, 1, 67, 0
3, 12240, Note_on_c, 1, 66, 54
3, 12480, Note_off_c, 1, 66, 0
3, 12480, Note_off_c, 1, 62, 0
3, 12720, Note_on_c, 1, 45, 83
3, 12876, Note_off_c, 1, 45, 0
3, 12960, Note_on_c, 1, 50, 82
3, 13116, Note_off_c, 1, 50, 0
3, 13200, Note_on_c, 1, 45, 82
3, 13356, Note_off_c, 1, 45, 0
3, 13440, Note_on_c, 1, 50, 81
3, 13596, Note_off_c, 1, 50, 0
3, 13680, Note_on_c, 1, 54, 81
3, 13836, Note_off_c, 1, 54, 0
3, 13920, Note_on_c, 1, 50, 80
3, 14076, Note_off_c, 1, 50, 0
3, 14160, Note_on_c, 1, 54, 79
3, 14316, Note_off_c, 1, 54, 0
3, 14400, Note_on_c, 1, 57, 79
3, 14760, Note_off_c, 1, 57, 0
3, 14880, Note_on_c, 1, 57, 78
3, 15036, Note_off_c, 1, 57, 0
3, 15120, Note_on_c, 1, 57, 77
3, 15480, Note_off_c, 1, 57, 0
3, 15600, Note_on_c, 1, 61, 71
3, 15840, Note_off_c, 1, 61, 0
3, 15840, Note_on_c, 1, 62, 73
3, 16080, Note_off_c, 1, 62, 0
3, 16320, Note_on_c, 1, 64, 71
3, 16560, Note_off_c, 1, 64, 0
3, 16560, Note_on_c, 1, 66, 72
3, 16800, Note_off_c, 1, 66, 0
3, 17040, Note_on_c, 1, 67, 67
3, 17280, Note_off_c, 1, 67, 0
3, 17280, Note_on_c, 1, 57, 70
3, 17280, Note_on_c, 1, 66, 70
3, 18000, Note_off_c, 1, 66, 0
3, 18000, Note_on_c, 1, 64, 63
3, 18240, Note_off_c, 1, 64, 0
3, 18240, Note_off_c, 1, 57, 0
3, 18480, Note_on_c, 1, 47, 83
3, 18636, Note_off_c, 1, 47, 0
3, 18720, Note_on_c, 1, 52, 82
3, 18876, Note_off_c, 1, 52, 0
3, 18960, Note_on_c, 1, 47, 80
3, 19116, Note_off_c, 1, 47, 0
3, 19200, Note_on_c, 1, 52, 79
3, 19356, Note_off_c, 1, 52, 0
3, 19440, Note_on_c, 1, 55, 78
3, 19596, Note_off_c, 1, 55, 0
3, 19680, Note_on_c, 1, 52, 76
3, 19836, Note_off_c, 1, 52, 0
3, 19920, Note_on_c, 1, 55, 75
3, 20076, Note_off_c, 1, 55, 0
3, 20160, Note_on_c, 1, 59, 75
3, 20520, Note_off_c, 1, 59, 0
3, 20640, Note_on_c, 1, 59, 71
3, 20796, Note_off_c, 1, 59, 0
3, 20880, Note_on_c, 1, 59, 71
3, 21240, Note_off_c, 1, 59, 0
3, 21360, Note_on_c, 1, 63, 68
3, 21552, Note_off_c, 1, 63, 0
3, 21600, Note_on_c, 1, 64, 70
3, 21792, Note_off_c, 1, 64, 0
3, 22800, Note_on_c, 1, 57, 60
3, 22800, Note_on_c, 1, 67, 60
3, 22992, Note_off_c, 1, 67, 0
3, 22992, Note_off_c, 1, 57, 0
3, 23040, Note_on_c, 1, 62, 65
3, 23280, Note_off_c, 1, 62, 0
3, 23280, Note_on_c, 1, 66, 64
3, 23520, Note_off_c, 1, 66, 0
3, 23520, Note_on_c, 1, 69, 63
3, 23760, Note_off_c, 1, 69, 0
3, 23760, Note_on_c, 1, 62, 63
3, 24000, Note_off_c, 1, 62, 0
3, 24000, Note_on_c, 1, 66, 62
3, 24240, Note_off_c, 1, 66, 0
3, 24240, Note_on_c, 1, 69, 62
3, 24480, Note_off_c, 1, 69, 0
3, 24480, Note_on_c, 1, 61, 61
3, 24720, Note_off_c, 1, 61, 0
3, 24720, Note_on_c, 1, 64, 60
3, 24960, Note_off_c, 1, 64, 0
3, 24960, Note_on_c, 1, 69, 60
3, 25200, Note_off_c, 1, 69, 0
3, 25200, Note_on_c, 1, 64, 59
3, 25440, Note_off_c, 1, 64, 0
3, 25440, Note_on_c, 1, 67, 59
3, 25680, Note_off_c, 1, 67, 0
3, 25680, Note_on_c, 1, 69, 58
3, 25920, Note_off_c, 1, 69, 0
3, 25920, Note_on_c, 1, 62, 59
3, 26160, Note_off_c, 1, 62, 0
3, 26160, Note_on_c, 1, 66, 58
3, 26400, Note_off_c, 1, 66, 0
3, 26400, Note_on_c, 1, 69, 57
3, 26640, Note_off_c, 1, 69, 0
3, 26640, Note_on_c, 1, 62, 54
3, 26880, Note_off_c, 1, 62, 0
3, 26880, Note_on_c, 1, 66, 51
3, 27120, Note_off_c, 1, 66, 0
3, 27120, Note_on_c, 1, 69, 51
3, 27360, Note_off_c, 1, 69, 0
3, 27360, Note_on_c, 1, 61, 50
3, 27600, Note_off_c, 1, 61, 0
3, 27600, Note_on_c, 1, 64, 49
3, 27840, Note_off_c, 1, 64, 0
3, 27840, Note_on_c, 1, 69, 48
3, 28080, Note_off_c, 1, 69, 0
3, 28080, Note_on_c, 1, 64, 48
3, 28320, Note_off_c, 1, 64, 0
3, 28320, Note_on_c, 1, 67, 47
3, 28560, Note_off_c, 1, 67, 0
3, 28560, Note_on_c, 1, 69, 46
3, 28800, Note_off_c, 1, 69, 0
3, 28800, Note_on_c, 1, 66, 58
3, 28800, Note_on_c, 1, 62, 58
3, 29280, Note_off_c, 1, 62, 0
3, 29280, Note_off_c, 1, 66, 0
3, 29520, Note_on_c, 1, 61, 66
3, 29520, Note_on_c, 1, 69, 66
3, 30000, Note_off_c, 1, 69, 0
3, 30000, Note_off_c, 1, 61, 0
3, 30240, Note_on_c, 1, 62, 73
3, 30240, Note_on_c, 1, 69, 73
3, 30720, Note_off_c, 1, 69, 0
3, 30720, Note_off_c, 1, 62, 0
3, 30960, Note_on_c, 1, 69, 79
3, 30960, Note_on_c, 1, 64, 79
3, 31152, Note_off_c, 1, 64, 0
3, 31200, Note_on_c, 1, 66, 77
3, 31392, Note_off_c, 1, 66, 0
3, 31440, Note_off_c, 1, 69, 0
3, 31440, Note_on_c, 1, 67, 74
3, 31632, Note_off_c, 1, 67, 0
3, 31680, Note_on_c, 1, 62, 71
3, 31680, Note_on_c, 1, 66, 71
3, 32160, Note_off_c, 1, 66, 0
3, 32160, Note_off_c, 1, 62, 0
3, 32400, Note_on_c, 1, 69, 59
3, 32400, Note_on_c, 1, 61, 59
3, 32880, Note_off_c, 1, 61, 0
3, 32880, Note_off_c, 1, 69, 0
3, 33120, Note_on_c, 1, 69, 63
3, 33120, Note_on_c, 1, 62, 63
3, 33600, Note_off_c, 1, 62, 0
3, 33600, Note_off_c, 1, 69, 0
3, 33840, Note_on_c, 1, 64, 71
3, 33840, Note_on_c, 1, 69, 71
3, 34032, Note_off_c, 1, 64, 0
3, 34080, Note_on_c, 1, 66, 68
3, 34272, Note_off_c, 1, 66, 0
3, 34320, Note_off_c, 1, 69, 0
3, 34320, Note_on_c, 1, 67, 66
3, 34512, Note_off_c, 1, 67, 0
3, 34560, Note_on_c, 1, 66, 64
3, 34560, Note_on_c, 1, 69, 64
3, 34974, Note_off_c, 1, 69, 0
3, 34974, Note_off_c, 1, 66, 0
3, 35040, Note_on_c, 1, 67, 70
3, 35040, Note_on_c, 1, 64, 70
3, 35166, Note_off_c, 1, 64, 0
3, 35166, Note_off_c, 1, 67, 0
3, 35280, Note_on_c, 1, 66, 73
3, 35280, Note_on_c, 1, 62, 73
3, 35694, Note_off_c, 1, 62, 0
3, 35694, Note_off_c, 1, 66, 0
3, 35760, Note_on_c, 1, 61, 78
3, 35760, Note_on_c, 1, 64, 78
3, 35886, Note_off_c, 1, 64, 0
3, 35886, Note_off_c, 1, 61, 0
3, 36000, Note_on_c, 1, 59, 81
3, 36000, Note_on_c, 1, 62, 81
3, 36414, Note_off_c, 1, 62, 0
3, 36414, Note_off_c, 1, 59, 0
3, 36480, Note_on_c, 1, 57, 87
3, 36480, Note_on_c, 1, 61, 87
3, 36606, Note_off_c, 1, 61, 0
3, 36606, Note_off_c, 1, 57, 0
3, 36720, Note_on_c, 1, 59, 89
3, 36720, Note_on_c, 1, 55, 89
3, 37134, Note_off_c, 1, 55, 0
3, 37134, Note_off_c, 1, 59, 0
3, 37200, Note_on_c, 1, 56, 95
3, 37200, Note_on_c, 1, 59, 95
3, 37326, Note_off_c, 1, 59, 0
3, 37326, Note_off_c, 1, 56, 0
3, 37440, Note_on_c, 1, 57, 92
3, 37560, Note_on_c, 1, 64, 92
3, 37624, Note_off_c, 1, 57, 0
3, 37656, Note_off_c, 1, 64, 0
3, 37680, Note_on_c, 1, 61, 92
3, 37776, Note_off_c, 1, 61, 0
3, 37800, Note_on_c, 1, 64, 92
3, 37896, Note_off_c, 1, 64, 0
3, 37920, Note_on_c, 1, 74, 97
3, 37920, Note_on_c, 1, 62, 92
3, 38016, Note_off_c, 1, 62, 0
3, 38040, Note_on_c, 1, 66, 92
3, 38112, Note_off_c, 1, 74, 0
3, 38136, Note_off_c, 1, 66, 0
3, 38160, Note_on_c, 1, 73, 97
3, 38160, Note_on_c, 1, 57, 92
3, 38280, Note_on_c, 1, 64, 92
3, 38344, Note_off_c, 1, 57, 0
3, 38352, Note_off_c, 1, 73, 0
3, 38376, Note_off_c, 1, 64, 0
3, 38400, Note_on_c, 1, 61, 92
3, 38496, Note_off_c, 1, 61, 0
3, 38520, Note_on_c, 1, 64, 92
3, 38616, Note_off_c, 1, 64, 0
3, 38640, Note_on_c, 1, 74, 96
3, 38640, Note_on_c, 1, 62, 93
3, 38736, Note_off_c, 1, 62, 0
3, 38760, Note_on_c, 1, 66, 93
3, 38832, Note_off_c, 1, 74, 0
3, 38856, Note_off_c, 1, 66, 0
3, 38880, Note_on_c, 1, 73, 96
3, 38880, Note_on_c, 1, 64, 93
3, 38880, Note_on_c, 1, 57, 93
3, 39072, Note_off_c, 1, 57, 0
3, 39072, Note_off_c, 1, 64, 0
3, 39072, Note_off_c, 1, 73, 0
3, 39360, Note_on_c, 1, 57, 88
3, 39360, Note_on_c, 1, 45, 88
3, 39552, Note_off_c, 1, 45, 0
3, 39552, Note_off_c, 1, 57, 0
3, 39600, Note_on_c, 1, 45, 86
3, 39600, Note_on_c, 1, 57, 86
3, 39960, Note_off_c, 1, 57, 0
3, 39960, Note_off_c, 1, 45, 0
3, 40320, Note_on_c, 1, 64, 97
3, 40476, Note_off_c, 1, 64, 0
3, 40560, Note_on_c, 1, 69, 96
3, 40716, Note_off_c, 1, 69, 0
3, 40800, Note_on_c, 1, 64, 94
3, 40956, Note_off_c, 1, 64, 0
3, 41040, Note_on_c, 1, 69, 92
3, 41196, Note_off_c, 1, 69, 0
3, 41280, Note_on_c, 1, 73, 91
3, 41436, Note_off_c, 1, 73, 0
3, 41520, Note_on_c, 1, 69, 89
3, 41676, Note_off_c, 1, 69, 0
3, 41760, Note_on_c, 1, 73, 87
3, 41952, Note_off_c, 1, 73, 0
3, 42000, Note_on_c, 1, 76, 86
3, 42096, Note_off_c, 1, 76, 0
3, 42120, Note_on_c, 1, 74, 85
3, 42216, Note_off_c, 1, 74, 0
3, 42240, Note_on_c, 1, 73, 84
3, 42336, Note_off_c, 1, 73, 0
3, 42360, Note_on_c, 1, 71, 83
3, 42456, Note_off_c, 1, 71, 0
3, 42480, Note_on_c, 1, 70, 82
3, 42576, Note_off_c, 1, 70, 0
3, 42600, Note_on_c, 1, 68, 82
3, 42696, Note_off_c, 1, 68, 0
3, 42720, Note_on_c, 1, 66, 81
3, 42816, Note_off_c, 1, 66, 0
3, 42840, Note_on_c, 1, 64, 80
3, 42936, Note_off_c, 1, 64, 0
3, 42960, Note_on_c, 1, 62, 79
3, 43056, Note_off_c, 1, 62, 0
3, 43080, Note_on_c, 1, 61, 78
3, 43176, Note_off_c, 1, 61, 0
3, 43200, Note_on_c, 1, 59, 77
3, 43296, Note_off_c, 1, 59, 0
3, 43320, Note_on_c, 1, 58, 77
3, 43416, Note_off_c, 1, 58, 0
3, 43440, Note_on_c, 1, 59, 91
3, 43596, Note_off_c, 1, 59, 0
3, 43680, Note_on_c, 1, 54, 89
3, 43836, Note_off_c, 1, 54, 0
3, 43920, Note_on_c, 1, 59, 86
3, 44076, Note_off_c, 1, 59, 0
3, 44160, Note_on_c, 1, 62, 83
3, 44316, Note_off_c, 1, 62, 0
3, 44400, Note_on_c, 1, 59, 81
3, 44556, Note_off_c, 1, 59, 0
3, 44640, Note_on_c, 1, 62, 79
3, 44832, Note_off_c, 1, 62, 0
3, 44880, Note_on_c, 1, 66, 78
3, 44976, Note_off_c, 1, 66, 0
3, 45000, Note_on_c, 1, 64, 77
3, 45096, Note_off_c, 1, 64, 0
3, 45120, Note_on_c, 1, 62, 76
3, 45216, Note_off_c, 1, 62, 0
3, 45240, Note_on_c, 1, 61, 75
3, 45336, Note_off_c, 1, 61, 0
3, 45360, Note_on_c, 1, 59, 74
3, 45456, Note_off_c, 1, 59, 0
3, 45480, Note_on_c, 1, 58, 74
3, 45576, Note_off_c, 1, 58, 0
3, 45600, Note_on_c, 1, 62, 73
3, 45696, Note_off_c, 1, 62, 0
3, 45720, Note_on_c, 1, 61, 72
3, 45816, Note_off_c, 1, 61, 0
3, 45840, Note_on_c, 1, 59, 71
3, 45936, Note_off_c, 1, 59, 0
3, 45960, Note_on_c, 1, 57, 71
3, 46056, Note_off_c, 1, 57, 0
3, 46080, Note_on_c, 1, 56, 70
3, 46176, Note_off_c, 1, 56, 0
3, 46200, Note_on_c, 1, 54, 69
3, 46296, Note_off_c, 1, 54, 0
3, 46320, Note_on_c, 1, 52, 82
3, 46476, Note_off_c, 1, 52, 0
3, 46560, Note_on_c, 1, 47, 82
3, 46716, Note_off_c, 1, 47, 0
3, 46800, Note_on_c, 1, 52, 80
3, 46956, Note_off_c, 1, 52, 0
3, 47040, Note_on_c, 1, 56, 78
3, 47196, Note_off_c, 1, 56, 0
3, 47280, Note_on_c, 1, 52, 76
3, 47436, Note_off_c, 1, 52, 0
3, 47520, Note_on_c, 1, 56, 74
3, 47712, Note_off_c, 1, 56, 0
3, 47760, Note_on_c, 1, 59, 72
3, 47856, Note_off_c, 1, 59, 0
3, 47880, Note_on_c, 1, 61, 71
3, 47976, Note_off_c, 1, 61, 0
3, 48000, Note_on_c, 1, 62, 71
3, 48096, Note_off_c, 1, 62, 0
3, 48120, Note_on_c, 1, 61, 70
3, 48216, Note_off_c, 1, 61, 0
3, 48240, Note_on_c, 1, 59, 69
3, 48336, Note_off_c, 1, 59, 0
3, 48360, Note_on_c, 1, 57, 68
3, 48456, Note_off_c, 1, 57, 0
3, 48480, Note_on_c, 1, 56, 67
3, 48576, Note_off_c, 1, 56, 0
3, 48600, Note_on_c, 1, 54, 66
3, 48696, Note_off_c, 1, 54, 0
3, 48720, Note_on_c, 1, 56, 65
3, 48816, Note_off_c, 1, 56, 0
3, 48840, Note_on_c, 1, 52, 64
3, 48936, Note_off_c, 1, 52, 0
3, 48960, Note_on_c, 1, 57, 68
3, 49440, Note_off_c, 1, 57, 0
3, 49680, Note_on_c, 1, 57, 75
3, 49680, Note_on_c, 1, 61, 75
3, 50160, Note_off_c, 1, 61, 0
3, 50160, Note_off_c, 1, 57, 0
3, 50400, Note_on_c, 1, 56, 89
3, 50880, Note_off_c, 1, 56, 0
3, 50880, Note_on_c, 1, 57, 82
3, 51072, Note_off_c, 1, 57, 0
3, 51120, Note_on_c, 1, 59, 77
3, 51312, Note_off_c, 1, 59, 0
3, 51360, Note_on_c, 1, 57, 73
3, 51552, Note_off_c, 1, 57, 0
3, 51600, Note_on_c, 1, 56, 69
3, 51792, Note_off_c, 1, 56, 0
3, 51840, Note_on_c, 1, 57, 60
3, 52320, Note_off_c, 1, 57, 0
3, 52560, Note_on_c, 1, 61, 65
3, 52560, Note_on_c, 1, 57, 65
3, 53040, Note_off_c, 1, 57, 0
3, 53040, Note_off_c, 1, 61, 0
3, 53280, Note_on_c, 1, 56, 73
3, 53760, Note_off_c, 1, 56, 0
3, 53760, Note_on_c, 1, 57, 68
3, 53952, Note_off_c, 1, 57, 0
3, 54000, Note_on_c, 1, 59, 65
3, 54192, Note_off_c, 1, 59, 0
3, 54240, Note_on_c, 1, 57, 63
3, 54432, Note_off_c, 1, 57, 0
3, 54480, Note_on_c, 1, 56, 60
3, 54672, Note_off_c, 1, 56, 0
3, 54720, Note_on_c, 1, 57, 57
3, 55200, Note_off_c, 1, 57, 0
3, 55440, Note_on_c, 1, 57, 67
3, 55440, Note_on_c, 1, 61, 67
3, 55680, Note_off_c, 1, 61, 0
3, 55680, Note_off_c, 1, 57, 0
3, 55680, Note_on_c, 1, 62, 71
3, 55680, Note_on_c, 1, 59, 71
3, 55920, Note_off_c, 1, 59, 0
3, 55920, Note_off_c, 1, 62, 0
3, 55920, Note_on_c, 1, 61, 74
3, 55920, Note_on_c, 1, 64, 74
3, 56160, Note_off_c, 1, 64, 0
3, 56160, Note_off_c, 1, 61, 0
3, 56160, Note_on_c, 1, 66, 77
3, 56160, Note_on_c, 1, 62, 77
3, 56640, Note_off_c, 1, 62, 0
3, 56640, Note_off_c, 1, 66, 0
3, 56880, Note_on_c, 1, 59, 83
3, 56880, Note_on_c, 1, 62, 83
3, 57120, Note_off_c, 1, 62, 0
3, 57120, Note_off_c, 1, 59, 0
3, 57120, Note_on_c, 1, 61, 87
3, 57120, Note_on_c, 1, 64, 87
3, 57360, Note_off_c, 1, 64, 0
3, 57360, Note_off_c, 1, 61, 0
3, 57360, Note_on_c, 1, 62, 91
3, 57360, Note_on_c, 1, 66, 91
3, 57600, Note_off_c, 1, 66, 0
3, 57600, Note_off_c, 1, 62, 0
3, 57600, Note_on_c, 1, 52, 97
3, 57840, Note_on_c, 1, 57, 90
3, 57840, Note_on_c, 1, 61, 90
3, 58032, Note_off_c, 1, 61, 0
3, 58032, Note_off_c, 1, 57, 0
3, 58080, Note_on_c, 1, 57, 90
3, 58080, Note_on_c, 1, 61, 90
3, 58272, Note_off_c, 1, 61, 0
3, 58272, Note_off_c, 1, 57, 0
3, 58320, Note_off_c, 1, 52, 0
3, 58320, Note_on_c, 1, 52, 96
3, 58560, Note_on_c, 1, 56, 90
3, 58560, Note_on_c, 1, 62, 90
3, 58752, Note_off_c, 1, 62, 0
3, 58752, Note_off_c, 1, 56, 0
3, 58800, Note_on_c, 1, 56, 91
3, 58800, Note_on_c, 1, 62, 91
3, 58992, Note_off_c, 1, 62, 0
3, 58992, Note_off_c, 1, 56, 0
3, 59040, Note_off_c, 1, 52, 0
3, 59040, Note_on_c, 1, 57, 91
3, 59040, Note_on_c, 1, 61, 91
3, 59196, Note_off_c, 1, 61, 0
3, 59232, Note_off_c, 1, 57, 0
3, 59280, Note_on_c, 1, 45, 86
3, 59437, Note_off_c, 1, 45, 0
3, 59520, Note_on_c, 1, 45, 80
3, 59677, Note_off_c, 1, 45, 0
3, 59760, Note_on_c, 1, 45, 75
3, 60000, Note_off_c, 1, 45, 0
3, 61920, Note_on_c, 1, 52, 65
3, 61920, Note_on_c, 1, 62, 65
3, 61920, Note_on_c, 1, 59, 65
3, 63000, Note_off_c, 1, 59, 0
3, 63000, Note_off_c, 1, 62, 0
3, 63000, Note_off_c, 1, 52, 0
3, 63120, Note_on_c, 1, 50, 54
3, 63120, Note_on_c, 1, 56, 54
3, 63312, Note_off_c, 1, 56, 0
3, 63312, Note_off_c, 1, 50, 0
3, 63360, Note_on_c, 1, 49, 55
3, 63360, Note_on_c, 1, 57, 55
3, 63840, Note_off_c, 1, 57, 0
3, 63840, Note_off_c, 1, 49, 0
3, 64320, Note_on_c, 1, 49, 62
3, 64560, Note_off_c, 1, 49, 0
3, 64560, Note_on_c, 1, 69, 57
3, 64560, Note_on_c, 1, 45, 57
3, 64752, Note_off_c, 1, 69, 0
3, 64800, Note_off_c, 1, 45, 0
3, 64800, Note_on_c, 1, 69, 60
3, 64800, Note_on_c, 1, 52, 52
3, 65520, Note_off_c, 1, 69, 0
3, 65520, Note_on_c, 1, 68, 58
3, 65760, Note_off_c, 1, 68, 0
3, 65760, Note_off_c, 1, 52, 0
3, 67680, Note_on_c, 1, 52, 63
3, 67680, Note_on_c, 1, 59, 63
3, 67680, Note_on_c, 1, 62, 63
3, 68760, Note_off_c, 1, 62, 0
3, 68760, Note_off_c, 1, 59, 0
3, 68760, Note_off_c, 1, 52, 0
3, 68880, Note_on_c, 1, 62, 60
3, 68880, Note_on_c, 1, 68, 60
3, 69072, Note_off_c, 1, 68, 0
3, 69072, Note_off_c, 1, 62, 0
3, 69120, Note_on_c, 1, 61, 65
3, 69120, Note_on_c, 1, 69, 65
3, 69312, Note_off_c, 1, 69, 0
3, 69312, Note_off_c, 1, 61, 0
3, 69600, Note_on_c, 1, 62, 69
3, 69600, Note_on_c, 1, 69, 69
3, 69792, Note_off_c, 1, 69, 0
3, 69792, Note_off_c, 1, 62, 0
3, 69840, Note_on_c, 1, 61, 71
3, 69840, Note_on_c, 1, 69, 71
3, 70032, Note_off_c, 1, 69, 0
3, 70032, Note_off_c, 1, 61, 0
3, 70320, Note_on_c, 1, 62, 75
3, 70320, Note_on_c, 1, 69, 75
3, 70512, Note_off_c, 1, 69, 0
3, 70512, Note_off_c, 1, 62, 0
3, 70560, Note_on_c, 1, 61, 77
3, 70560, Note_on_c, 1, 69, 77
3, 71280, Note_off_c, 1, 69, 0
3, 71280, Note_on_c, 1, 71, 83
3, 71280, Note_on_c, 1, 68, 83
3, 72000, Note_off_c, 1, 68, 0
3, 72000, Note_off_c, 1, 71, 0
3, 72000, Note_off_c, 1, 61, 0
3, 72000, Note_on_c, 1, 66, 68
3, 72000, Note_on_c, 1, 62, 68
3, 72000, Note_on_c, 1, 69, 68
3, 72360, Note_off_c, 1, 69, 0
3, 72360, Note_off_c, 1, 62, 0
3, 72360, Note_off_c, 1, 66, 0
3, 73920, Note_on_c, 1, 52, 69
3, 73920, Note_on_c, 1, 61, 69
3, 74160, Note_off_c, 1, 61, 0
3, 74160, Note_off_c, 1, 52, 0
3, 74160, Note_on_c, 1, 62, 67
3, 74160, Note_on_c, 1, 53, 67
3, 74640, Note_off_c, 1, 53, 0
3, 74640, Note_off_c, 1, 62, 0
3, 74640, Note_on_c, 1, 63, 63
3, 74640, Note_on_c, 1, 54, 63
3, 74880, Note_off_c, 1, 54, 0
3, 74880, Note_off_c, 1, 63, 0
3, 74880, Note_on_c, 1, 69, 65
3, 74880, Note_on_c, 1, 64, 62
3, 74880, Note_on_c, 1, 52, 62
3, 75600, Note_off_c, 1, 64, 0
3, 75600, Note_off_c, 1, 69, 0
3, 75600, Note_on_c, 1, 68, 63
3, 75600, Note_on_c, 1, 62, 56
3, 76320, Note_off_c, 1, 62, 0
3, 76320, Note_off_c, 1, 68, 0
3, 76320, Note_off_c, 1, 52, 0
3, 76320, Note_on_c, 1, 57, 71
3, 76560, Note_off_c, 1, 57, 0
3, 76560, Note_on_c, 1, 61, 71
3, 76800, Note_off_c, 1, 61, 0
3, 76800, Note_on_c, 1, 64, 70
3, 77040, Note_off_c, 1, 64, 0
3, 77040, Note_on_c, 1, 57, 69
3, 77280, Note_off_c, 1, 57, 0
3, 77280, Note_on_c, 1, 61, 69
3, 77520, Note_off_c, 1, 61, 0
3, 77520, Note_on_c, 1, 64, 68
3, 77760, Note_off_c, 1, 64, 0
3, 77760, Note_on_c, 1, 52, 67
3, 78000, Note_off_c, 1, 52, 0
3, 78000, Note_on_c, 1, 56, 67
3, 78240, Note_off_c, 1, 56, 0
3, 78240, Note_on_c, 1, 59, 66
3, 78480, Note_off_c, 1, 59, 0
3, 78480, Note_on_c, 1, 52, 65
3, 78720, Note_off_c, 1, 52, 0
3, 78720, Note_on_c, 1, 56, 65
3, 78960, Note_off_c, 1, 56, 0
3, 78960, Note_on_c, 1, 59, 64
3, 79200, Note_off_c, 1, 59, 0
3, 79200, Note_on_c, 1, 57, 59
3, 79440, Note_off_c, 1, 57, 0
3, 79440, Note_on_c, 1, 61, 59
3, 79680, Note_off_c, 1, 61, 0
3, 79680, Note_on_c, 1, 64, 58
3, 79920, Note_off_c, 1, 64, 0
3, 79920, Note_on_c, 1, 57, 58
3, 80160, Note_off_c, 1, 57, 0
3, 80160, Note_on_c, 1, 61, 57
3, 80400, Note_off_c, 1, 61, 0
3, 80400, Note_on_c, 1, 64, 56
3, 80640, Note_off_c, 1, 64, 0
3, 80640, Note_on_c, 1, 52, 56
3, 80880, Note_off_c, 1, 52, 0
3, 80880, Note_on_c, 1, 59, 55
3, 81120, Note_off_c, 1, 59, 0
3, 81120, Note_on_c, 1, 62, 54
3, 81360, Note_off_c, 1, 62, 0
3, 81360, Note_on_c, 1, 52, 54
3, 81600, Note_off_c, 1, 52, 0
3, 81600, Note_on_c, 1, 59, 53
3, 81840, Note_off_c, 1, 59, 0
3, 81840, Note_on_c, 1, 62, 52
3, 82080, Note_off_c, 1, 62, 0
3, 82080, Note_on_c, 1, 61, 52
3, 82080, Note_on_c, 1, 57, 52
3, 82560, Note_off_c, 1, 61, 0
3, 82560, Note_on_c, 1, 64, 53
3, 82752, Note_off_c, 1, 64, 0
3, 82800, Note_off_c, 1, 57, 0
3, 82800, Note_on_c, 1, 57, 52
3, 82800, Note_on_c, 1, 61, 52
3, 83280, Note_off_c, 1, 61, 0
3, 83280, Note_on_c, 1, 64, 51
3, 83472, Note_off_c, 1, 64, 0
3, 83520, Note_off_c, 1, 57, 0
3, 83520, Note_on_c, 1, 61, 50
3, 83520, Note_on_c, 1, 57, 50
3, 84000, Note_off_c, 1, 57, 0
3, 84000, Note_off_c, 1, 61, 0
3, 84960, Note_on_c, 1, 57, 51
3, 84960, Note_on_c, 1, 60, 51
3, 85440, Note_off_c, 1, 60, 0
3, 85440, Note_on_c, 1, 64, 49
3, 85632, Note_off_c, 1, 64, 0
3, 85680, Note_off_c, 1, 57, 0
3, 85680, Note_on_c, 1, 57, 48
3, 85680, Note_on_c, 1, 60, 48
3, 86160, Note_off_c, 1, 60, 0
3, 86160, Note_on_c, 1, 64, 45
3, 86352, Note_off_c, 1, 64, 0
3, 86400, Note_off_c, 1, 57, 0
3, 86400, Note_on_c, 1, 57, 44
3, 86400, Note_on_c, 1, 60, 44
3, 86880, Note_off_c, 1, 60, 0
3, 86880, Note_off_c, 1, 57, 0
3, 87840, Note_on_c, 1, 63, 95
3, 87840, Note_on_c, 1, 60, 95
3, 87840, Note_on_c, 1, 53, 95
3, 88320, Note_off_c, 1, 53, 0
3, 88320, Note_on_c, 1, 54, 92
3, 88512, Note_off_c, 1, 54, 0
3, 88560, Note_off_c, 1, 60, 0
3, 88560, Note_off_c, 1, 63, 0
3, 88560, Note_on_c, 1, 60, 91
3, 88560, Note_on_c, 1, 63, 91
3, 88560, Note_on_c, 1, 53, 91
3, 89040, Note_off_c, 1, 53, 0
3, 89040, Note_on_c, 1, 54, 89
3, 89232, Note_off_c, 1, 54, 0
3, 89280, Note_off_c, 1, 63, 0
3, 89280, Note_off_c, 1, 60, 0
3, 89280, Note_on_c, 1, 60, 87
3, 89280, Note_on_c, 1, 53, 87
3, 89280, Note_on_c, 1, 63, 87
3, 89760, Note_off_c, 1, 63, 0
3, 89760, Note_off_c, 1, 53, 0
3, 89760, Note_off_c, 1, 60, 0
3, 91920, Note_on_c, 1, 53, 93
3, 92076, Note_off_c, 1, 53, 0
3, 92160, Note_on_c, 1, 58, 92
3, 92316, Note_off_c, 1, 58, 0
3, 92400, Note_on_c, 1, 53, 90
3, 92556, Note_off_c, 1, 53, 0
3, 92640, Note_on_c, 1, 58, 89
3, 92796, Note_off_c, 1, 58, 0
3, 92880, Note_on_c, 1, 62, 88
3, 93036, Note_off_c, 1, 62, 0
3, 93120, Note_on_c, 1, 58, 87
3, 93276, Note_off_c, 1, 58, 0
3, 93360, Note_on_c, 1, 62, 85
3, 93516, Note_off_c, 1, 62, 0
3, 93600, Note_on_c, 1, 65, 84
3, 93960, Note_off_c, 1, 65, 0
3, 94080, Note_on_c, 1, 65, 82
3, 94236, Note_off_c, 1, 65, 0
3, 94320, Note_on_c, 1, 65, 80
3, 94680, Note_off_c, 1, 65, 0
3, 94800, Note_on_c, 1, 70, 78
3, 94992, Note_off_c, 1, 70, 0
3, 95040, Note_on_c, 1, 69, 78
3, 95136, Note_off_c, 1, 69, 0
3, 95160, Note_on_c, 1, 67, 80
3, 95256, Note_off_c, 1, 67, 0
3, 95280, Note_on_c, 1, 65, 82
3, 95376, Note_off_c, 1, 65, 0
3, 95400, Note_on_c, 1, 67, 84
3, 95496, Note_off_c, 1, 67, 0
3, 95520, Note_on_c, 1, 69, 85
3, 95616, Note_off_c, 1, 69, 0
3, 95640, Note_on_c, 1, 70, 87
3, 95736, Note_off_c, 1, 70, 0
3, 95760, Note_on_c, 1, 72, 89
3, 95856, Note_off_c, 1, 72, 0
3, 95880, Note_on_c, 1, 70, 90
3, 95976, Note_off_c, 1, 70, 0
3, 96000, Note_on_c, 1, 69, 92
3, 96096, Note_off_c, 1, 69, 0
3, 96120, Note_on_c, 1, 70, 94
3, 96216, Note_off_c, 1, 70, 0
3, 96240, Note_on_c, 1, 72, 96
3, 96336, Note_off_c, 1, 72, 0
3, 96360, Note_on_c, 1, 74, 101
3, 96456, Note_off_c, 1, 74, 0
3, 96480, Note_on_c, 1, 75, 103
3, 96840, Note_off_c, 1, 75, 0
3, 96840, Note_on_c, 1, 77, 99
3, 96960, Note_off_c, 1, 77, 0
3, 96960, Note_on_c, 1, 75, 98
3, 97080, Note_off_c, 1, 75, 0
3, 97080, Note_on_c, 1, 74, 97
3, 97200, Note_off_c, 1, 74, 0
3, 97200, Note_on_c, 1, 72, 96
3, 97320, Note_off_c, 1, 72, 0
3, 97320, Note_on_c, 1, 74, 94
3, 97440, Note_off_c, 1, 74, 0
3, 97440, Note_on_c, 1, 72, 93
3, 97560, Note_off_c, 1, 72, 0
3, 97560, Note_on_c, 1, 70, 92
3, 97680, Note_off_c, 1, 70, 0
3, 97680, Note_on_c, 1, 69, 91
3, 97800, Note_off_c, 1, 69, 0
3, 97800, Note_on_c, 1, 67, 90
3, 97920, Note_off_c, 1, 67, 0
3, 97920, Note_on_c, 1, 66, 88
3, 98400, Note_off_c, 1, 66, 0
3, 98400, Note_on_c, 1, 67, 78
3, 98640, Note_off_c, 1, 67, 0
3, 98640, Note_on_c, 1, 66, 81
3, 99120, Note_off_c, 1, 66, 0
3, 99120, Note_on_c, 1, 67, 73
3, 99360, Note_off_c, 1, 67, 0
3, 99360, Note_on_c, 1, 66, 74
3, 99840, Note_off_c, 1, 66, 0
3, 100560, Note_on_c, 1, 50, 89
3, 100716, Note_off_c, 1, 50, 0
3, 100800, Note_on_c, 1, 55, 88
3, 100956, Note_off_c, 1, 55, 0
3, 101040, Note_on_c, 1, 50, 88
3, 101196, Note_off_c, 1, 50, 0
3, 101280, Note_on_c, 1, 55, 87
3, 101436, Note_off_c, 1, 55, 0
3, 101520, Note_on_c, 1, 58, 86
3, 101676, Note_off_c, 1, 58, 0
3, 101760, Note_on_c, 1, 55, 85
3, 101916, Note_off_c, 1, 55, 0
3, 102000, Note_on_c, 1, 58, 85
3, 102156, Note_off_c, 1, 58, 0
3, 102240, Note_on_c, 1, 62, 84
3, 102600, Note_off_c, 1, 62, 0
3, 102720, Note_on_c, 1, 62, 82
3, 102876, Note_off_c, 1, 62, 0
3, 102960, Note_on_c, 1, 62, 82
3, 103320, Note_off_c, 1, 62, 0
3, 103440, Note_on_c, 1, 67, 80
3, 103632, Note_off_c, 1, 67, 0
3, 103680, Note_on_c, 1, 66, 79
3, 103776, Note_off_c, 1, 66, 0
3, 103800, Note_on_c, 1, 64, 79
3, 103896, Note_off_c, 1, 64, 0
3, 103920, Note_on_c, 1, 66, 78
3, 104016, Note_off_c, 1, 66, 0
3, 104040, Note_on_c, 1, 62, 78
3, 104136, Note_off_c, 1, 62, 0
3, 104160, Note_on_c, 1, 70, 78
3, 104352, Note_off_c, 1, 70, 0
3, 104400, Note_on_c, 1, 69, 77
3, 104592, Note_off_c, 1, 69, 0
3, 104880, Note_on_c, 1, 67, 75
3, 105072, Note_off_c, 1, 67, 0
3, 105120, Note_on_c, 1, 66, 75
3, 105216, Note_off_c, 1, 66, 0
3, 105240, Note_on_c, 1, 64, 74
3, 105336, Note_off_c, 1, 64, 0
3, 105360, Note_on_c, 1, 66, 74
3, 105456, Note_off_c, 1, 66, 0
3, 105480, Note_on_c, 1, 62, 73
3, 105576, Note_off_c, 1, 62, 0
3, 105600, Note_on_c, 1, 72, 73
3, 105792, Note_off_c, 1, 72, 0
3, 105840, Note_on_c, 1, 70, 72
3, 106032, Note_off_c, 1, 70, 0
3, 106320, Note_on_c, 1, 69, 71
3, 106512, Note_off_c, 1, 69, 0
3, 106560, Note_on_c, 1, 67, 73
3, 107280, Note_off_c, 1, 67, 0
3, 107280, Note_on_c, 1, 65, 80
3, 108000, Note_off_c, 1, 65, 0
3, 108000, Note_on_c, 1, 64, 88
3, 108720, Note_off_c, 1, 64, 0
3, 109440, Note_on_c, 1, 57, 75
3, 109560, Note_on_c, 1, 64, 75
3, 109656, Note_off_c, 1, 64, 0
3, 109668, Note_off_c, 1, 57, 0
3, 109680, Note_on_c, 1, 65, 76
3, 109776, Note_off_c, 1, 65, 0
3, 109800, Note_on_c, 1, 64, 77
3, 109896, Note_off_c, 1, 64, 0
3, 109920, Note_on_c, 1, 65, 77
3, 110016, Note_off_c, 1, 65, 0
3, 110040, Note_on_c, 1, 64, 78
3, 110136, Note_off_c, 1, 64, 0
3, 110160, Note_on_c, 1, 55, 79
3, 110280, Note_on_c, 1, 65, 80
3, 110376, Note_off_c, 1, 65, 0
3, 110388, Note_off_c, 1, 55, 0
3, 110400, Note_on_c, 1, 66, 80
3, 110496, Note_off_c, 1, 66, 0
3, 110520, Note_on_c, 1, 65, 81
3, 110616, Note_off_c, 1, 65, 0
3, 110640, Note_on_c, 1, 66, 82
3, 110736, Note_off_c, 1, 66, 0
3, 110760, Note_on_c, 1, 65, 82
3, 110856, Note_off_c, 1, 65, 0
3, 110880, Note_on_c, 1, 54, 83
3, 110880, Note_on_c, 1, 66, 83
3, 111360, Note_off_c, 1, 66, 0
3, 111360, Note_off_c, 1, 54, 0
3, 112440, Note_on_c, 1, 59, 76
3, 112536, Note_off_c, 1, 59, 0
3, 112560, Note_on_c, 1, 62, 77
3, 112656, Note_off_c, 1, 62, 0
3, 112680, Note_on_c, 1, 66, 79
3, 112776, Note_off_c, 1, 66, 0
3, 112800, Note_on_c, 1, 71, 80
3, 112992, Note_off_c, 1, 71, 0
3, 113040, Note_on_c, 1, 71, 84
3, 113160, Note_on_c, 1, 55, 84
3, 113232, Note_off_c, 1, 71, 0
3, 113256, Note_off_c, 1, 55, 0
3, 113280, Note_on_c, 1, 59, 86
3, 113376, Note_off_c, 1, 59, 0
3, 113400, Note_on_c, 1, 62, 87
3, 113496, Note_off_c, 1, 62, 0
3, 113520, Note_on_c, 1, 67, 88
3, 113640, Note_on_c, 1, 71, 88
3, 113712, Note_off_c, 1, 67, 0
3, 113736, Note_off_c, 1, 71, 0
3, 113760, Note_on_c, 1, 54, 96
3, 114000, Note_on_c, 1, 61, 89
3, 114000, Note_on_c, 1, 58, 89
3, 114192, Note_off_c, 1, 58, 0
3, 114192, Note_off_c, 1, 61, 0
3, 114240, Note_on_c, 1, 58, 87
3, 114240, Note_on_c, 1, 61, 87
3, 114432, Note_off_c, 1, 61, 0
3, 114432, Note_off_c, 1, 58, 0
3, 114480, Note_off_c, 1, 54, 0
3, 114480, Note_on_c, 1, 54, 90
3, 114720, Note_on_c, 1, 59, 83
3, 114720, Note_on_c, 1, 62, 83
3, 114912, Note_off_c, 1, 62, 0
3, 114912, Note_off_c, 1, 59, 0
3, 114960, Note_on_c, 1, 59, 82
3, 114960, Note_on_c, 1, 62, 82
3, 115152, Note_off_c, 1, 62, 0
3, 115152, Note_off_c, 1, 59, 0
3, 115200, Note_off_c, 1, 54, 0
3, 115200, Note_on_c, 1, 54, 64
3, 115440, Note_on_c, 1, 61, 58
3, 115440, Note_on_c, 1, 58, 58
3, 115632, Note_off_c, 1, 58, 0
3, 115632, Note_off_c, 1, 61, 0
3, 115680, Note_on_c, 1, 61, 59
3, 115680, Note_on_c, 1, 58, 59
3, 115872, Note_off_c, 1, 58, 0
3, 115872, Note_off_c, 1, 61, 0
3, 115920, Note_off_c, 1, 54, 0
3, 115920, Note_on_c, 1, 54, 67
3, 116160, Note_on_c, 1, 59, 61
3, 116160, Note_on_c, 1, 62, 61
3, 116352, Note_off_c, 1, 62, 0
3, 116352, Note_off_c, 1, 59, 0
3, 116400, Note_on_c, 1, 59, 60
3, 116400, Note_on_c, 1, 62, 60
3, 116592, Note_off_c, 1, 62, 0
3, 116592, Note_off_c, 1, 59, 0
3, 116640, Note_off_c, 1, 54, 0
3, 116640, Note_on_c, 1, 54, 59
3, 116640, Note_on_c, 1, 58, 59
3, 116640, Note_on_c, 1, 61, 59
3, 117120, Note_off_c, 1, 61, 0
3, 117120, Note_off_c, 1, 58, 0
3, 117120, Note_off_c, 1, 54, 0
3, 118080, Note_on_c, 1, 66, 79
3, 118320, Note_off_c, 1, 66, 0
3, 118320, Note_on_c, 1, 61, 77
3, 118560, Note_off_c, 1, 61, 0
3, 118560, Note_on_c, 1, 70, 75
3, 118800, Note_off_c, 1, 70, 0
3, 118800, Note_on_c, 1, 66, 74
3, 119040, Note_off_c, 1, 66, 0
3, 119040, Note_on_c, 1, 61, 72
3, 119280, Note_off_c, 1, 61, 0
3, 119280, Note_on_c, 1, 70, 70
3, 119520, Note_off_c, 1, 70, 0
3, 119520, Note_on_c, 1, 66, 68
3, 120000, Note_off_c, 1, 66, 0
3, 120960, Note_on_c, 1, 66, 58
3, 120960, Note_on_c, 1, 71, 58
3, 121680, Note_off_c, 1, 66, 0
3, 121680, Note_on_c, 1, 65, 54
3, 122400, Note_off_c, 1, 65, 0
3, 122400, Note_off_c, 1, 71, 0
3, 122400, Note_on_c, 1, 67, 69
3, 122400, Note_on_c, 1, 64, 69
3, 123120, Note_off_c, 1, 67, 0
3, 123120, Note_on_c, 1, 66, 66
3, 123840, Note_off_c, 1, 66, 0
3, 123840, Note_off_c, 1, 64, 0
3, 123840, Note_on_c, 1, 59, 58
3, 124080, Note_off_c, 1, 59, 0
3, 124080, Note_on_c, 1, 54, 59
3, 124320, Note_off_c, 1, 54, 0
3, 124320, Note_on_c, 1, 62, 60
3, 124560, Note_off_c, 1, 62, 0
3, 124560, Note_on_c, 1, 59, 61
3, 124800, Note_off_c, 1, 59, 0
3, 124800, Note_on_c, 1, 54, 62
3, 125040, Note_off_c, 1, 54, 0
3, 125040, Note_on_c, 1, 62, 63
3, 125280, Note_off_c, 1, 62, 0
3, 125280, Note_on_c, 1, 76, 61
3, 125280, Note_on_c, 1, 61, 64
3, 125520, Note_off_c, 1, 61, 0
3, 125520, Note_on_c, 1, 54, 65
3, 125760, Note_off_c, 1, 54, 0
3, 125760, Note_on_c, 1, 64, 66
3, 126000, Note_off_c, 1, 64, 0
3, 126000, Note_on_c, 1, 61, 67
3, 126240, Note_off_c, 1, 61, 0
3, 126240, Note_on_c, 1, 54, 68
3, 126480, Note_off_c, 1, 54, 0
3, 126480, Note_on_c, 1, 64, 69
3, 126720, Note_off_c, 1, 64, 0
3, 126720, Note_off_c, 1, 76, 0
3, 126720, Note_on_c, 1, 72, 69
3, 126720, Note_on_c, 1, 63, 70
3, 126960, Note_off_c, 1, 63, 0
3, 126960, Note_on_c, 1, 54, 71
3, 127200, Note_off_c, 1, 54, 0
3, 127200, Note_on_c, 1, 66, 72
3, 127440, Note_off_c, 1, 66, 0
3, 127440, Note_off_c, 1, 72, 0
3, 127440, Note_on_c, 1, 71, 64
3, 127440, Note_on_c, 1, 63, 73
3, 127680, Note_off_c, 1, 63, 0
3, 127680, Note_on_c, 1, 54, 74
3, 127920, Note_off_c, 1, 54, 0
3, 127920, Note_on_c, 1, 66, 75
3, 128160, Note_off_c, 1, 66, 0
3, 128160, Note_off_c, 1, 71, 0
3, 128160, Note_on_c, 1, 64, 70
3, 128640, Note_off_c, 1, 64, 0
3, 129600, Note_on_c, 1, 64, 64
3, 129600, Note_on_c, 1, 59, 64
3, 130320, Note_off_c, 1, 64, 0
3, 130320, Note_on_c, 1, 63, 60
3, 131040, Note_off_c, 1, 63, 0
3, 131040, Note_off_c, 1, 59, 0
3, 131040, Note_on_c, 1, 53, 71
3, 131040, Note_on_c, 1, 62, 71
3, 131760, Note_off_c, 1, 53, 0
3, 131760, Note_on_c, 1, 52, 61
3, 132480, Note_off_c, 1, 52, 0
3, 132480, Note_off_c, 1, 62, 0
3, 132480, Note_on_c, 1, 61, 54
3, 132720, Note_off_c, 1, 61, 0
3, 132720, Note_on_c, 1, 57, 56
3, 132960, Note_off_c, 1, 57, 0
3, 132960, Note_on_c, 1, 64, 57
3, 133200, Note_off_c, 1, 64, 0
3, 133200, Note_on_c, 1, 61, 58
3, 133440, Note_off_c, 1, 61, 0
3, 133440, Note_on_c, 1, 57, 60
3, 133680, Note_off_c, 1, 57, 0
3, 133680, Note_on_c, 1, 64, 61
3, 133920, Note_off_c, 1, 64, 0
3, 133920, Note_on_c, 1, 62, 63
3, 134160, Note_off_c, 1, 62, 0
3, 134160, Note_on_c, 1, 57, 64
3, 134400, Note_off_c, 1, 57, 0
3, 134400, Note_on_c, 1, 65, 66
3, 134640, Note_off_c, 1, 65, 0
3, 134640, Note_on_c, 1, 63, 67
3, 134880, Note_off_c, 1, 63, 0
3, 134880, Note_on_c, 1, 57, 68
3, 135120, Note_off_c, 1, 57, 0
3, 135120, Note_on_c, 1, 66, 70
3, 135360, Note_off_c, 1, 66, 0
3, 135360, Note_on_c, 1, 64, 71
3, 135600, Note_off_c, 1, 64, 0
3, 135600, Note_on_c, 1, 57, 73
3, 135840, Note_off_c, 1, 57, 0
3, 135840, Note_on_c, 1, 67, 74
3, 136080, Note_off_c, 1, 67, 0
3, 136080, Note_on_c, 1, 64, 76
3, 136320, Note_off_c, 1, 64, 0
3, 136320, Note_on_c, 1, 57, 77
3, 136560, Note_off_c, 1, 57, 0
3, 136560, Note_on_c, 1, 67, 78
3, 136800, Note_off_c, 1, 67, 0
3, 136800, Note_on_c, 1, 66, 80
3, 137040, Note_off_c, 1, 66, 0
3, 137040, Note_on_c, 1, 57, 81
3, 137280, Note_off_c, 1, 57, 0
3, 137280, Note_on_c, 1, 69, 83
3, 137520, Note_off_c, 1, 69, 0
3, 137520, Note_on_c, 1, 65, 84
3, 137760, Note_off_c, 1, 65, 0
3, 137760, Note_on_c, 1, 57, 86
3, 138000, Note_off_c, 1, 57, 0
3, 138000, Note_on_c, 1, 69, 87
3, 138240, Note_off_c, 1, 69, 0
3, 138240, Note_on_c, 1, 64, 88
3, 138480, Note_off_c, 1, 64, 0
3, 138480, Note_on_c, 1, 57, 89
3, 138720, Note_off_c, 1, 57, 0
3, 138720, Note_on_c, 1, 69, 91
3, 138960, Note_off_c, 1, 69, 0
3, 138960, Note_on_c, 1, 62, 92
3, 139200, Note_off_c, 1, 62, 0
3, 139200, Note_on_c, 1, 57, 93
3, 139440, Note_off_c, 1, 57, 0
3, 139440, Note_on_c, 1, 69, 94
3, 139680, Note_off_c, 1, 69, 0
3, 139680, Note_on_c, 1, 57, 95
3, 139680, Note_on_c, 1, 61, 95
3, 140160, Note_off_c, 1, 61, 0
3, 140160, Note_off_c, 1, 57, 0
3, 142320, Note_on_c, 1, 45, 91
3, 142476, Note_off_c, 1, 45, 0
3, 142560, Note_on_c, 1, 50, 90
3, 142716, Note_off_c, 1, 50, 0
3, 142800, Note_on_c, 1, 45, 89
3, 142956, Note_off_c, 1, 45, 0
3, 143040, Note_on_c, 1, 50, 89
3, 143196, Note_off_c, 1, 50, 0
3, 143280, Note_on_c, 1, 54, 88
3, 143436, Note_off_c, 1, 54, 0
3, 143520, Note_on_c, 1, 50, 86
3, 143676, Note_off_c, 1, 50, 0
3, 143760, Note_on_c, 1, 54, 85
3, 143916, Note_off_c, 1, 54, 0
3, 144000, Note_on_c, 1, 57, 85
3, 144360, Note_off_c, 1, 57, 0
3, 144480, Note_on_c, 1, 57, 82
3, 144636, Note_off_c, 1, 57, 0
3, 144720, Note_on_c, 1, 57, 80
3, 145080, Note_off_c, 1, 57, 0
3, 145200, Note_on_c, 1, 67, 73
3, 145200, Note_on_c, 1, 69, 73
3, 145440, Note_off_c, 1, 67, 0
3, 145440, Note_on_c, 1, 66, 76
3, 145680, Note_off_c, 1, 66, 0
3, 145680, Note_off_c, 1, 69, 0
3, 145920, Note_on_c, 1, 69, 72
3, 145920, Note_on_c, 1, 61, 72
3, 146160, Note_off_c, 1, 61, 0
3, 146160, Note_on_c, 1, 62, 74
3, 146400, Note_off_c, 1, 62, 0
3, 146400, Note_off_c, 1, 69, 0
3, 146640, Note_on_c, 1, 55, 70
3, 146640, Note_on_c, 1, 64, 70
3, 146880, Note_off_c, 1, 64, 0
3, 146880, Note_off_c, 1, 55, 0
3, 146880, Note_on_c, 1, 57, 72
3, 146880, Note_on_c, 1, 62, 72
3, 147600, Note_off_c, 1, 62, 0
3, 147600, Note_on_c, 1, 61, 68
3, 147840, Note_off_c, 1, 61, 0
3, 147840, Note_off_c, 1, 57, 0
3, 148080, Note_on_c, 1, 47, 87
3, 148236, Note_off_c, 1, 47, 0
3, 148320, Note_on_c, 1, 52, 87
3, 148476, Note_off_c, 1, 52, 0
3, 148560, Note_on_c, 1, 47, 86
3, 148716, Note_off_c, 1, 47, 0
3, 148800, Note_on_c, 1, 52, 86
3, 148956, Note_off_c, 1, 52, 0
3, 149040, Note_on_c, 1, 55, 85
3, 149196, Note_off_c, 1, 55, 0
3, 149280, Note_on_c, 1, 52, 85
3, 149436, Note_off_c, 1, 52, 0
3, 149520, Note_on_c, 1, 55, 84
3, 149676, Note_off_c, 1, 55, 0
3, 149760, Note_on_c, 1, 59, 85
3, 150120, Note_off_c, 1, 59, 0
3, 150240, Note_on_c, 1, 59, 82
3, 150396, Note_off_c, 1, 59, 0
3, 150480, Note_on_c, 1, 59, 80
3, 150840, Note_off_c, 1, 59, 0
3, 150960, Note_on_c, 1, 66, 74
3, 150960, Note_on_c, 1, 69, 74
3, 151152, Note_off_c, 1, 69, 0
3, 151152, Note_off_c, 1, 66, 0
3, 151200, Note_on_c, 1, 67, 77
3, 151200, Note_on_c, 1, 71, 77
3, 151680, Note_off_c, 1, 71, 0
3, 151680, Note_off_c, 1, 67, 0
3, 152400, Note_on_c, 1, 64, 72
3, 152400, Note_on_c, 1, 57, 72
3, 152592, Note_off_c, 1, 57, 0
3, 152592, Note_off_c, 1, 64, 0
3, 152640, Note_on_c, 1, 62, 74
3, 152640, Note_on_c, 1, 67, 74
3, 153360, Note_off_c, 1, 67, 0
3, 153360, Note_on_c, 1, 66, 69
3, 153600, Note_off_c, 1, 66, 0
3, 153600, Note_off_c, 1, 62, 0
3, 153840, Note_on_c, 1, 45, 101
3, 153996, Note_off_c, 1, 45, 0
3, 154080, Note_on_c, 1, 50, 101
3, 154236, Note_off_c, 1, 50, 0
3, 154320, Note_on_c, 1, 45, 101
3, 154476, Note_off_c, 1, 45, 0
3, 154560, Note_on_c, 1, 50, 100
3, 154716, Note_off_c, 1, 50, 0
3, 154800, Note_on_c, 1, 54, 100
3, 154956, Note_off_c, 1, 54, 0
3, 155040, Note_on_c, 1, 50, 99
3, 155196, Note_off_c, 1, 50, 0
3, 155280, Note_on_c, 1, 54, 99
3, 155436, Note_off_c, 1, 54, 0
3, 155520, Note_on_c, 1, 57, 99
3, 155880, Note_off_c, 1, 57, 0
3, 156000, Note_on_c, 1, 57, 98
3, 156156, Note_off_c, 1, 57, 0
3, 156240, Note_on_c, 1, 57, 97
3, 156600, Note_off_c, 1, 57, 0
3, 156720, Note_on_c, 1, 67, 104
3, 157008, Note_off_c, 1, 67, 0
3, 157080, Note_on_c, 1, 66, 97
3, 157176, Note_off_c, 1, 66, 0
3, 157200, Note_on_c, 1, 69, 96
3, 157296, Note_off_c, 1, 69, 0
3, 157320, Note_on_c, 1, 67, 96
3, 157416, Note_off_c, 1, 67, 0
3, 157440, Note_on_c, 1, 66, 95
3, 157536, Note_off_c, 1, 66, 0
3, 157560, Note_on_c, 1, 64, 94
3, 157656, Note_off_c, 1, 64, 0
3, 157680, Note_on_c, 1, 62, 93
3, 157776, Note_off_c, 1, 62, 0
3, 157800, Note_on_c, 1, 64, 93
3, 157896, Note_off_c, 1, 64, 0
3, 157920, Note_on_c, 1, 62, 92
3, 158016, Note_off_c, 1, 62, 0
3, 158040, Note_on_c, 1, 60, 91
3, 158136, Note_off_c, 1, 60, 0
3, 158160, Note_on_c, 1, 59, 90
3, 158256, Note_off_c, 1, 59, 0
3, 158280, Note_on_c, 1, 57, 90
3, 158376, Note_off_c, 1, 57, 0
3, 158400, Note_on_c, 1, 55, 88
3, 158556, Note_off_c, 1, 55, 0
3, 158640, Note_on_c, 1, 43, 94
3, 158796, Note_off_c, 1, 43, 0
3, 158880, Note_on_c, 1, 47, 93
3, 159036, Note_off_c, 1, 47, 0
3, 159120, Note_on_c, 1, 50, 93
3, 159276, Note_off_c, 1, 50, 0
3, 159360, Note_on_c, 1, 47, 93
3, 159516, Note_off_c, 1, 47, 0
3, 159600, Note_on_c, 1, 55, 92
3, 159756, Note_off_c, 1, 55, 0
3, 159960, Note_on_c, 1, 54, 93
3, 160056, Note_off_c, 1, 54, 0
3, 160080, Note_on_c, 1, 57, 92
3, 160176, Note_off_c, 1, 57, 0
3, 160200, Note_on_c, 1, 55, 91
3, 160296, Note_off_c, 1, 55, 0
3, 160320, Note_on_c, 1, 54, 90
3, 160416, Note_off_c, 1, 54, 0
3, 160440, Note_on_c, 1, 52, 89
3, 160536, Note_off_c, 1, 52, 0
3, 160560, Note_on_c, 1, 50, 88
3, 160656, Note_off_c, 1, 50, 0
3, 160680, Note_on_c, 1, 52, 87
3, 160776, Note_off_c, 1, 52, 0
3, 160800, Note_on_c, 1, 50, 86
3, 160896, Note_off_c, 1, 50, 0
3, 160920, Note_on_c, 1, 48, 85
3, 161016, Note_off_c, 1, 48, 0
3, 161040, Note_on_c, 1, 47, 84
3, 161136, Note_off_c, 1, 47, 0
3, 161160, Note_on_c, 1, 45, 83
3, 161256, Note_off_c, 1, 45, 0
3, 161280, Note_on_c, 1, 43, 83
3, 161472, Note_off_c, 1, 43, 0
3, 161760, Note_on_c, 1, 60, 92
3, 162120, Note_off_c, 1, 60, 0
3, 162120, Note_on_c, 1, 59, 89
3, 162216, Note_off_c, 1, 59, 0
3, 162240, Note_on_c, 1, 62, 87
3, 162336, Note_off_c, 1, 62, 0
3, 162360, Note_on_c, 1, 60, 86
3, 162456, Note_off_c, 1, 60, 0
3, 162480, Note_on_c, 1, 59, 85
3, 162576, Note_off_c, 1, 59, 0
3, 162600, Note_on_c, 1, 57, 83
3, 162696, Note_off_c, 1, 57, 0
3, 162720, Note_on_c, 1, 55, 82
3, 162912, Note_off_c, 1, 55, 0
3, 163200, Note_on_c, 1, 72, 92
3, 163560, Note_off_c, 1, 72, 0
3, 163560, Note_on_c, 1, 71, 88
3, 163656, Note_off_c, 1, 71, 0
3, 163680, Note_on_c, 1, 76, 87
3, 163776, Note_off_c, 1, 76, 0
3, 163800, Note_on_c, 1, 74, 86
3, 163896, Note_off_c, 1, 74, 0
3, 163920, Note_on_c, 1, 72, 84
3, 164016, Note_off_c, 1, 72, 0
3, 164040, Note_on_c, 1, 71, 83
3, 164136, Note_off_c, 1, 71, 0
3, 164160, Note_on_c, 1, 69, 82
3, 164352, Note_off_c, 1, 69, 0
3, 164640, Note_on_c, 1, 62, 89
3, 165000, Note_on_c, 1, 60, 84
3, 165007, Note_off_c, 1, 62, 0
3, 165096, Note_off_c, 1, 60, 0
3, 165120, Note_on_c, 1, 64, 83
3, 165216, Note_off_c, 1, 64, 0
3, 165240, Note_on_c, 1, 62, 81
3, 165336, Note_off_c, 1, 62, 0
3, 165360, Note_on_c, 1, 60, 80
3, 165456, Note_off_c, 1, 60, 0
3, 165480, Note_on_c, 1, 59, 79
3, 165576, Note_off_c, 1, 59, 0
3, 165600, Note_on_c, 1, 57, 78
3, 165792, Note_off_c, 1, 57, 0
3, 166080, Note_on_c, 1, 74, 87
3, 166440, Note_on_c, 1, 73, 78
3, 166447, Note_off_c, 1, 74, 0
3, 166536, Note_off_c, 1, 73, 0
3, 166560, Note_on_c, 1, 78, 77
3, 166656, Note_off_c, 1, 78, 0
3, 166680, Note_on_c, 1, 76, 76
3, 166776, Note_off_c, 1, 76, 0
3, 166800, Note_on_c, 1, 74, 75
3, 166896, Note_off_c, 1, 74, 0
3, 166920, Note_on_c, 1, 73, 73
3, 167016, Note_off_c, 1, 73, 0
3, 167040, Note_on_c, 1, 71, 72
3, 167232, Note_off_c, 1, 71, 0
3, 167520, Note_on_c, 1, 64, 78
3, 167880, Note_off_c, 1, 64, 0
3, 167880, Note_on_c, 1, 62, 73
3, 167976, Note_off_c, 1, 62, 0
3, 168000, Note_on_c, 1, 67, 72
3, 168096, Note_off_c, 1, 67, 0
3, 168120, Note_on_c, 1, 66, 71
3, 168216, Note_off_c, 1, 66, 0
3, 168240, Note_on_c, 1, 64, 70
3, 168336, Note_off_c, 1, 64, 0
3, 168360, Note_on_c, 1, 62, 69
3, 168456, Note_off_c, 1, 62, 0
3, 168480, Note_on_c, 1, 61, 68
3, 168672, Note_off_c, 1, 61, 0
3, 168960, Note_on_c, 1, 66, 76
3, 169320, Note_on_c, 1, 64, 70
3, 169327, Note_off_c, 1, 66, 0
3, 169416, Note_off_c, 1, 64, 0
3, 169440, Note_on_c, 1, 69, 69
3, 169536, Note_off_c, 1, 69, 0
3, 169560, Note_on_c, 1, 67, 68
3, 169656, Note_off_c, 1, 67, 0
3, 169680, Note_on_c, 1, 66, 67
3, 169776, Note_off_c, 1, 66, 0
3, 169800, Note_on_c, 1, 64, 66
3, 169896, Note_off_c, 1, 64, 0
3, 169920, Note_on_c, 1, 62, 65
3, 170112, Note_off_c, 1, 62, 0
3, 170400, Note_on_c, 1, 67, 77
3, 170400, Note_on_c, 1, 64, 77
3, 170592, Note_off_c, 1, 64, 0
3, 170592, Note_off_c, 1, 67, 0
3, 170640, Note_on_c, 1, 62, 80
3, 170640, Note_on_c, 1, 66, 80
3, 171060, Note_off_c, 1, 66, 0
3, 171060, Note_off_c, 1, 62, 0
3, 171120, Note_on_c, 1, 61, 86
3, 171120, Note_on_c, 1, 64, 86
3, 171312, Note_off_c, 1, 64, 0
3, 171312, Note_off_c, 1, 61, 0
3, 171360, Note_on_c, 1, 62, 89
3, 171360, Note_on_c, 1, 59, 89
3, 171780, Note_off_c, 1, 59, 0
3, 171780, Note_off_c, 1, 62, 0
3, 171840, Note_on_c, 1, 57, 94
3, 171840, Note_on_c, 1, 61, 94
3, 172032, Note_off_c, 1, 61, 0
3, 172032, Note_off_c, 1, 57, 0
3, 172080, Note_on_c, 1, 59, 97
3, 172080, Note_on_c, 1, 55, 97
3, 172500, Note_off_c, 1, 55, 0
3, 172500, Note_off_c, 1, 59, 0
3, 172560, Note_on_c, 1, 56, 103
3, 172560, Note_on_c, 1, 59, 103
3, 172752, Note_off_c, 1, 59, 0
3, 172752, Note_off_c, 1, 56, 0
3, 172800, Note_on_c, 1, 57, 103
3, 172896, Note_off_c, 1, 57, 0
3, 172920, Note_on_c, 1, 64, 103
3, 173016, Note_off_c, 1, 64, 0
3, 173040, Note_on_c, 1, 61, 103
3, 173136, Note_off_c, 1, 61, 0
3, 173160, Note_on_c, 1, 64, 102
3, 173256, Note_off_c, 1, 64, 0
3, 173280, Note_on_c, 1, 74, 99
3, 173280, Note_on_c, 1, 62, 102
3, 173376, Note_off_c, 1, 62, 0
3, 173400, Note_on_c, 1, 66, 102
3, 173472, Note_off_c, 1, 74, 0
3, 173496, Note_off_c, 1, 66, 0
3, 173520, Note_on_c, 1, 73, 99
3, 173520, Note_on_c, 1, 57, 101
3, 173616, Note_off_c, 1, 57, 0
3, 173640, Note_on_c, 1, 64, 101
3, 173712, Note_off_c, 1, 73, 0
3, 173736, Note_off_c, 1, 64, 0
3, 173760, Note_on_c, 1, 61, 101
3, 173856, Note_off_c, 1, 61, 0
3, 173880, Note_on_c, 1, 64, 101
3, 173976, Note_off_c, 1, 64, 0
3, 174000, Note_on_c, 1, 74, 98
3, 174000, Note_on_c, 1, 62, 100
3, 174096, Note_off_c, 1, 62, 0
3, 174120, Note_on_c, 1, 66, 100
3, 174192, Note_off_c, 1, 74, 0
3, 174216, Note_off_c, 1, 66, 0
3, 174240, Note_on_c, 1, 73, 98
3, 174240, Note_on_c, 1, 57, 100
3, 174240, Note_on_c, 1, 64, 100
3, 174432, Note_off_c, 1, 64, 0
3, 174432, Note_off_c, 1, 57, 0
3, 174432, Note_off_c, 1, 73, 0
3, 174720, Note_on_c, 1, 57, 97
3, 174720, Note_on_c, 1, 45, 97
3, 174912, Note_off_c, 1, 45, 0
3, 174912, Note_off_c, 1, 57, 0
3, 174960, Note_on_c, 1, 57, 95
3, 174960, Note_on_c, 1, 45, 95
3, 175320, Note_off_c, 1, 45, 0
3, 175320, Note_off_c, 1, 57, 0
3, 177120, Note_on_c, 1, 55, 59
3, 177120, Note_on_c, 1, 52, 59
3, 177120, Note_on_c, 1, 45, 59
3, 178252, Note_off_c, 1, 45, 0
3, 178260, Note_off_c, 1, 52, 0
3, 178267, Note_off_c, 1, 55, 0
3, 178320, Note_on_c, 1, 43, 55
3, 178320, Note_on_c, 1, 49, 55
3, 178512, Note_off_c, 1, 49, 0
3, 178512, Note_off_c, 1, 43, 0
3, 178560, Note_on_c, 1, 42, 56
3, 178560, Note_on_c, 1, 50, 56
3, 179040, Note_off_c, 1, 50, 0
3, 179040, Note_off_c, 1, 42, 0
3, 179520, Note_on_c, 1, 42, 52
3, 179760, Note_off_c, 1, 42, 0
3, 179760, Note_on_c, 1, 62, 54
3, 179760, Note_on_c, 1, 38, 54
3, 179952, Note_off_c, 1, 62, 0
3, 180000, Note_off_c, 1, 38, 0
3, 180000, Note_on_c, 1, 62, 59
3, 180000, Note_on_c, 1, 45, 59
3, 180480, Note_off_c, 1, 62, 0
3, 180480, Note_on_c, 1, 64, 54
3, 180672, Note_off_c, 1, 64, 0
3, 180720, Note_on_c, 1, 61, 52
3, 180912, Note_off_c, 1, 61, 0
3, 180960, Note_off_c, 1, 45, 0
3, 182880, Note_on_c, 1, 55, 60
3, 182880, Note_on_c, 1, 52, 60
3, 182880, Note_on_c, 1, 45, 60
3, 184020, Note_off_c, 1, 52, 0
3, 184020, Note_off_c, 1, 55, 0
3, 184027, Note_off_c, 1, 45, 0
3, 184080, Note_on_c, 1, 43, 59
3, 184080, Note_on_c, 1, 49, 59
3, 184272, Note_off_c, 1, 49, 0
3, 184272, Note_off_c, 1, 43, 0
3, 184320, Note_on_c, 1, 42, 63
3, 184320, Note_on_c, 1, 50, 63
3, 184512, Note_off_c, 1, 50, 0
3, 184512, Note_off_c, 1, 42, 0
3, 184800, Note_on_c, 1, 47, 60
3, 184800, Note_on_c, 1, 55, 60
3, 184992, Note_off_c, 1, 55, 0
3, 184992, Note_off_c, 1, 47, 0
3, 185040, Note_on_c, 1, 62, 62
3, 185040, Note_on_c, 1, 45, 60
3, 185040, Note_on_c, 1, 57, 60
3, 185232, Note_off_c, 1, 57, 0
3, 185232, Note_off_c, 1, 45, 0
3, 185232, Note_off_c, 1, 62, 0
3, 185520, Note_on_c, 1, 61, 57
3, 185520, Note_on_c, 1, 45, 57
3, 185520, Note_on_c, 1, 55, 57
3, 185712, Note_off_c, 1, 55, 0
3, 185712, Note_off_c, 1, 45, 0
3, 185712, Note_off_c, 1, 61, 0
3, 185760, Note_on_c, 1, 61, 60
3, 185760, Note_on_c, 1, 55, 58
3, 185760, Note_on_c, 1, 50, 58
3, 186480, Note_off_c, 1, 61, 0
3, 186480, Note_on_c, 1, 54, 56
3, 186487, Note_off_c, 1, 55, 0
3, 186720, Note_off_c, 1, 54, 0
3, 186727, Note_off_c, 1, 50, 0
3, 188640, Note_on_c, 1, 67, 65
3, 188640, Note_on_c, 1, 64, 65
3, 188640, Note_on_c, 1, 57, 65
3, 189787, Note_off_c, 1, 57, 0
3, 189795, Note_off_c, 1, 67, 0
3, 189802, Note_off_c, 1, 64, 0
3, 189840, Note_on_c, 1, 68, 60
3, 189840, Note_on_c, 1, 62, 60
3, 189840, Note_on_c, 1, 59, 60
3, 190032, Note_off_c, 1, 59, 0
3, 190032, Note_off_c, 1, 62, 0
3, 190032, Note_off_c, 1, 68, 0
3, 190080, Note_on_c, 1, 67, 62
3, 190080, Note_on_c, 1, 61, 62
3, 190080, Note_on_c, 1, 64, 62
3, 190800, Note_off_c, 1, 64, 0
3, 190800, Note_off_c, 1, 61, 0
3, 190800, Note_off_c, 1, 67, 0
3, 190800, Note_on_c, 1, 66, 58
3, 190800, Note_on_c, 1, 62, 58
3, 191280, Note_on_c, 1, 74, 56
3, 191472, Note_off_c, 1, 74, 0
3, 191520, Note_off_c, 1, 62, 0
3, 191520, Note_off_c, 1, 66, 0
3, 191520, Note_on_c, 1, 74, 59
3, 191520, Note_on_c, 1, 57, 59
3, 191520, Note_on_c, 1, 69, 59
3, 192000, Note_off_c, 1, 74, 0
3, 192000, Note_on_c, 1, 76, 55
3, 192192, Note_off_c, 1, 76, 0
3, 192240, Note_on_c, 1, 73, 53
3, 192432, Note_off_c, 1, 73, 0
3, 192480, Note_off_c, 1, 69, 0
3, 192480, Note_off_c, 1, 57, 0
3, 194400, Note_on_c, 1, 69, 63
3, 194400, Note_on_c, 1, 67, 63
3, 195360, Note_off_c, 1, 67, 0
3, 195360, Note_off_c, 1, 69, 0
3, 196080, Note_on_c, 1, 65, 67
3, 196080, Note_on_c, 1, 75, 67
3, 196272, Note_off_c, 1, 75, 0
3, 196272, Note_off_c, 1, 65, 0
3, 196320, Note_on_c, 1, 75, 65
3, 196320, Note_on_c, 1, 65, 65
3, 196512, Note_off_c, 1, 65, 0
3, 196512, Note_off_c, 1, 75, 0
3, 196800, Note_on_c, 1, 64, 61
3, 196800, Note_on_c, 1, 76, 61
3, 196992, Note_off_c, 1, 76, 0
3, 196992, Note_off_c, 1, 64, 0
3, 197040, Note_on_c, 1, 64, 60
3, 197040, Note_on_c, 1, 76, 60
3, 197232, Note_off_c, 1, 76, 0
3, 197232, Note_off_c, 1, 64, 0
3, 197520, Note_on_c, 1, 74, 56
3, 197520, Note_on_c, 1, 71, 56
3, 197712, Note_off_c, 1, 71, 0
3, 197712, Note_off_c, 1, 74, 0
3, 197760, Note_on_c, 1, 74, 54
3, 197760, Note_on_c, 1, 71, 54
3, 197952, Note_off_c, 1, 71, 0
3, 197952, Note_off_c, 1, 74, 0
3, 198000, Note_on_c, 1, 70, 53
3, 198000, Note_on_c, 1, 73, 53
3, 198192, Note_off_c, 1, 73, 0
3, 198192, Note_off_c, 1, 70, 0
3, 198720, Note_on_c, 1, 54, 95
3, 198876, Note_off_c, 1, 54, 0
3, 198960, Note_on_c, 1, 59, 94
3, 199116, Note_off_c, 1, 59, 0
3, 199200, Note_on_c, 1, 54, 94
3, 199356, Note_off_c, 1, 54, 0
3, 199440, Note_on_c, 1, 59, 93
3, 199596, Note_off_c, 1, 59, 0
3, 199680, Note_on_c, 1, 62, 93
3, 199836, Note_off_c, 1, 62, 0
3, 199920, Note_on_c, 1, 59, 92
3, 200076, Note_off_c, 1, 59, 0
3, 200160, Note_on_c, 1, 62, 93
3, 200352, Note_off_c, 1, 62, 0
3, 200400, Note_on_c, 1, 66, 92
3, 200496, Note_off_c, 1, 66, 0
3, 200520, Note_on_c, 1, 64, 91
3, 200616, Note_off_c, 1, 64, 0
3, 200640, Note_on_c, 1, 62, 91
3, 200736, Note_off_c, 1, 62, 0
3, 200760, Note_on_c, 1, 61, 90
3, 200856, Note_off_c, 1, 61, 0
3, 200880, Note_on_c, 1, 59, 90
3, 200976, Note_off_c, 1, 59, 0
3, 201000, Note_on_c, 1, 58, 89
3, 201096, Note_off_c, 1, 58, 0
3, 201120, Note_on_c, 1, 62, 89
3, 201216, Note_off_c, 1, 62, 0
3, 201240, Note_on_c, 1, 61, 88
3, 201336, Note_off_c, 1, 61, 0
3, 201360, Note_on_c, 1, 59, 87
3, 201456, Note_off_c, 1, 59, 0
3, 201480, Note_on_c, 1, 57, 87
3, 201576, Note_off_c, 1, 57, 0
3, 201600, Note_on_c, 1, 55, 86
3, 201696, Note_off_c, 1, 55, 0
3, 201720, Note_on_c, 1, 54, 86
3, 201816, Note_off_c, 1, 54, 0
3, 201840, Note_on_c, 1, 52, 87
3, 201996, Note_off_c, 1, 52, 0
3, 202080, Note_on_c, 1, 47, 86
3, 202236, Note_off_c, 1, 47, 0
3, 202320, Note_on_c, 1, 52, 86
3, 202476, Note_off_c, 1, 52, 0
3, 202560, Note_on_c, 1, 55, 85
3, 202716, Note_off_c, 1, 55, 0
3, 202800, Note_on_c, 1, 52, 84
3, 202956, Note_off_c, 1, 52, 0
3, 203040, Note_on_c, 1, 55, 84
3, 203232, Note_off_c, 1, 55, 0
3, 203280, Note_on_c, 1, 59, 85
3, 203376, Note_off_c, 1, 59, 0
3, 203400, Note_on_c, 1, 57, 84
3, 203496, Note_off_c, 1, 57, 0
3, 203520, Note_on_c, 1, 55, 83
3, 203616, Note_off_c, 1, 55, 0
3, 203640, Note_on_c, 1, 54, 82
3, 203736, Note_off_c, 1, 54, 0
3, 203760, Note_on_c, 1, 52, 82
3, 203856, Note_off_c, 1, 52, 0
3, 203880, Note_on_c, 1, 51, 81
3, 203976, Note_off_c, 1, 51, 0
3, 204000, Note_on_c, 1, 67, 80
3, 204096, Note_off_c, 1, 67, 0
3, 204120, Note_on_c, 1, 66, 80
3, 204216, Note_off_c, 1, 66, 0
3, 204240, Note_on_c, 1, 64, 79
3, 204336, Note_off_c, 1, 64, 0
3, 204360, Note_on_c, 1, 62, 78
3, 204456, Note_off_c, 1, 62, 0
3, 204480, Note_on_c, 1, 61, 77
3, 204576, Note_off_c, 1, 61, 0
3, 204600, Note_on_c, 1, 59, 77
3, 204696, Note_off_c, 1, 59, 0
3, 204720, Note_on_c, 1, 57, 76
3, 204876, Note_off_c, 1, 57, 0
3, 204960, Note_on_c, 1, 52, 79
3, 205116, Note_off_c, 1, 52, 0
3, 205200, Note_on_c, 1, 57, 78
3, 205356, Note_off_c, 1, 57, 0
3, 205440, Note_on_c, 1, 61, 77
3, 205596, Note_off_c, 1, 61, 0
3, 205680, Note_on_c, 1, 57, 77
3, 205836, Note_off_c, 1, 57, 0
3, 205920, Note_on_c, 1, 61, 76
3, 206112, Note_off_c, 1, 61, 0
3, 206160, Note_on_c, 1, 64, 77
3, 206256, Note_off_c, 1, 64, 0
3, 206280, Note_on_c, 1, 66, 76
3, 206376, Note_off_c, 1, 66, 0
3, 206400, Note_on_c, 1, 67, 75
3, 206496, Note_off_c, 1, 67, 0
3, 206520, Note_on_c, 1, 66, 74
3, 206616, Note_off_c, 1, 66, 0
3, 206640, Note_on_c, 1, 64, 73
3, 206736, Note_off_c, 1, 64, 0
3, 206760, Note_on_c, 1, 62, 73
3, 206856, Note_off_c, 1, 62, 0
3, 206880, Note_on_c, 1, 61, 72
3, 206976, Note_off_c, 1, 61, 0
3, 207000, Note_on_c, 1, 59, 71
3, 207096, Note_off_c, 1, 59, 0
3, 207120, Note_on_c, 1, 61, 70
3, 207216, Note_off_c, 1, 61, 0
3, 207240, Note_on_c, 1, 57, 69
3, 207336, Note_off_c, 1, 57, 0
3, 207360, Note_on_c, 1, 62, 68
3, 207720, Note_off_c, 1, 62, 0
3, 208080, Note_on_c, 1, 62, 76
3, 208080, Note_on_c, 1, 66, 76
3, 208440, Note_off_c, 1, 66, 0
3, 208440, Note_off_c, 1, 62, 0
3, 208800, Note_on_c, 1, 61, 88
3, 209160, Note_off_c, 1, 61, 0
3, 209280, Note_on_c, 1, 62, 79
3, 209472, Note_off_c, 1, 62, 0
3, 209520, Note_on_c, 1, 64, 75
3, 209712, Note_off_c, 1, 64, 0
3, 209760, Note_on_c, 1, 62, 71
3, 209952, Note_off_c, 1, 62, 0
3, 210000, Note_on_c, 1, 61, 68
3, 210192, Note_off_c, 1, 61, 0
3, 210240, Note_on_c, 1, 66, 62
3, 210240, Note_on_c, 1, 62, 62
3, 210600, Note_off_c, 1, 62, 0
3, 210600, Note_off_c, 1, 66, 0
3, 210960, Note_on_c, 1, 74, 67
3, 210960, Note_on_c, 1, 78, 67
3, 211320, Note_off_c, 1, 78, 0
3, 211320, Note_off_c, 1, 74, 0
3, 211680, Note_on_c, 1, 73, 73
3, 212040, Note_off_c, 1, 73, 0
3, 212160, Note_on_c, 1, 74, 70
3, 212352, Note_off_c, 1, 74, 0
3, 212400, Note_on_c, 1, 76, 68
3, 212592, Note_off_c, 1, 76, 0
3, 212640, Note_on_c, 1, 74, 66
3, 212832, Note_off_c, 1, 74, 0
3, 212880, Note_on_c, 1, 73, 65
3, 213072, Note_off_c, 1, 73, 0
3, 213120, Note_on_c, 1, 74, 66
3, 213600, Note_off_c, 1, 74, 0
3, 213840, Note_on_c, 1, 62, 70
3, 213840, Note_on_c, 1, 66, 70
3, 214080, Note_off_c, 1, 66, 0
3, 214080, Note_off_c, 1, 62, 0
3, 214080, Note_on_c, 1, 67, 72
3, 214080, Note_on_c, 1, 64, 72
3, 214320, Note_off_c, 1, 64, 0
3, 214320, Note_off_c, 1, 67, 0
3, 214320, Note_on_c, 1, 66, 73
3, 214320, Note_on_c, 1, 69, 73
3, 214560, Note_off_c, 1, 69, 0
3, 214560, Note_off_c, 1, 66, 0
3, 214560, Note_on_c, 1, 71, 75
3, 214560, Note_on_c, 1, 67, 75
3, 215040, Note_off_c, 1, 67, 0
3, 215040, Note_off_c, 1, 71, 0
3, 215280, Note_on_c, 1, 64, 79
3, 215280, Note_on_c, 1, 67, 79
3, 215520, Note_off_c, 1, 67, 0
3, 215520, Note_off_c, 1, 64, 0
3, 215520, Note_on_c, 1, 66, 80
3, 215520, Note_on_c, 1, 69, 80
3, 215760, Note_off_c, 1, 69, 0
3, 215760, Note_off_c, 1, 66, 0
3, 215760, Note_on_c, 1, 67, 82
3, 215760, Note_on_c, 1, 71, 82
3, 216000, Note_off_c, 1, 71, 0
3, 216000, Note_off_c, 1, 67, 0
3, 216000, Note_on_c, 1, 57, 86
3, 216240, Note_on_c, 1, 66, 84
3, 216240, Note_on_c, 1, 62, 84
3, 216432, Note_off_c, 1, 62, 0
3, 216432, Note_off_c, 1, 66, 0
3, 216480, Note_on_c, 1, 62, 87
3, 216480, Note_on_c, 1, 66, 87
3, 216672, Note_off_c, 1, 66, 0
3, 216672, Note_off_c, 1, 62, 0
3, 216720, Note_off_c, 1, 57, 0
3, 216720, Note_on_c, 1, 57, 94
3, 216960, Note_on_c, 1, 62, 92
3, 216960, Note_on_c, 1, 66, 92
3, 217152, Note_off_c, 1, 66, 0
3, 217152, Note_off_c, 1, 62, 0
3, 217200, Note_on_c, 1, 62, 94
3, 217200, Note_on_c, 1, 66, 94
3, 217392, Note_off_c, 1, 66, 0
3, 217392, Note_off_c, 1, 62, 0
3, 217440, Note_off_c, 1, 57, 0
3, 217440, Note_on_c, 1, 57, 104
3, 217680, Note_on_c, 1, 62, 99
3, 217680, Note_on_c, 1, 66, 99
3, 217872, Note_off_c, 1, 66, 0
3, 217872, Note_off_c, 1, 62, 0
3, 217920, Note_on_c, 1, 62, 101
3, 217920, Note_on_c, 1, 66, 101
3, 218112, Note_off_c, 1, 66, 0
3, 218112, Note_off_c, 1, 62, 0
3, 218160, Note_off_c, 1, 57, 0
3, 218160, Note_on_c, 1, 57, 113
3, 218400, Note_on_c, 1, 62, 106
3, 218400, Note_on_c, 1, 66, 106
3, 218592, Note_off_c, 1, 66, 0
3, 218592, Note_off_c, 1, 62, 0
3, 218640, Note_on_c, 1, 66, 108
3, 218640, Note_on_c, 1, 62, 108
3, 218832, Note_off_c, 1, 62, 0
3, 218832, Note_off_c, 1, 66, 0
3, 218880, Note_off_c, 1, 57, 0
3, 218880, Note_on_c, 1, 65, 111
3, 218880, Note_on_c, 1, 62, 111
3, 218880, Note_on_c, 1, 59, 111
3, 218880, Note_on_c, 1, 56, 116
3, 219240, Note_off_c, 1, 59, 0
3, 219240, Note_off_c, 1, 65, 0
3, 219247, Note_off_c, 1, 56, 0
3, 219255, Note_off_c, 1, 62, 0
3, 220800, Note_on_c, 1, 57, 76
3, 220800, Note_on_c, 1, 66, 76
3, 221040, Note_off_c, 1, 66, 0
3, 221040, Note_off_c, 1, 57, 0
3, 221040, Note_on_c, 1, 58, 77
3, 221040, Note_on_c, 1, 67, 77
3, 221520, Note_off_c, 1, 67, 0
3, 221520, Note_off_c, 1, 58, 0
3, 221520, Note_on_c, 1, 59, 73
3, 221520, Note_on_c, 1, 68, 73
3, 221760, Note_off_c, 1, 68, 0
3, 221760, Note_off_c, 1, 59, 0
3, 221760, Note_on_c, 1, 74, 77
3, 221760, Note_on_c, 1, 57, 72
3, 221760, Note_on_c, 1, 69, 72
3, 222480, Note_off_c, 1, 69, 0
3, 222480, Note_off_c, 1, 74, 0
3, 222480, Note_on_c, 1, 73, 73
3, 222480, Note_on_c, 1, 67, 63
3, 223200, Note_off_c, 1, 67, 0
3, 223200, Note_off_c, 1, 73, 0
3, 223200, Note_off_c, 1, 57, 0
3, 223200, Note_on_c, 1, 62, 81
3, 223440, Note_off_c, 1, 62, 0
3, 223440, Note_on_c, 1, 66, 81
3, 223680, Note_off_c, 1, 66, 0
3, 223680, Note_on_c, 1, 69, 80
3, 223920, Note_off_c, 1, 69, 0
3, 223920, Note_on_c, 1, 62, 79
3, 224160, Note_off_c, 1, 62, 0
3, 224160, Note_on_c, 1, 66, 79
3, 224400, Note_off_c, 1, 66, 0
3, 224400, Note_on_c, 1, 69, 78
3, 224640, Note_off_c, 1, 69, 0
3, 224640, Note_on_c, 1, 57, 78
3, 224880, Note_off_c, 1, 57, 0
3, 224880, Note_on_c, 1, 61, 77
3, 225120, Note_off_c, 1, 61, 0
3, 225120, Note_on_c, 1, 64, 76
3, 225360, Note_off_c, 1, 64, 0
3, 225360, Note_on_c, 1, 57, 76
3, 225600, Note_off_c, 1, 57, 0
3, 225600, Note_on_c, 1, 61, 75
3, 225840, Note_off_c, 1, 61, 0
3, 225840, Note_on_c, 1, 64, 74
3, 226080, Note_off_c, 1, 64, 0
3, 226080, Note_on_c, 1, 62, 74
3, 226320, Note_off_c, 1, 62, 0
3, 226320, Note_on_c, 1, 66, 69
3, 226560, Note_off_c, 1, 66, 0
3, 226560, Note_on_c, 1, 69, 69
3, 226800, Note_off_c, 1, 69, 0
3, 226800, Note_on_c, 1, 62, 68
3, 227040, Note_off_c, 1, 62, 0
3, 227040, Note_on_c, 1, 66, 68
3, 227280, Note_off_c, 1, 66, 0
3, 227280, Note_on_c, 1, 69, 67
3, 227520, Note_off_c, 1, 69, 0
3, 227520, Note_on_c, 1, 57, 67
3, 227760, Note_off_c, 1, 57, 0
3, 227760, Note_on_c, 1, 64, 66
3, 228000, Note_off_c, 1, 64, 0
3, 228000, Note_on_c, 1, 67, 65
3, 228240, Note_off_c, 1, 67, 0
3, 228240, Note_on_c, 1, 57, 65
3, 228480, Note_off_c, 1, 57, 0
3, 228480, Note_on_c, 1, 64, 64
3, 228720, Note_off_c, 1, 64, 0
3, 228720, Note_on_c, 1, 67, 64
3, 228960, Note_off_c, 1, 67, 0
3, 228960, Note_on_c, 1, 62, 63
3, 228960, Note_on_c, 1, 66, 63
3, 229440, Note_off_c, 1, 66, 0
3, 229440, Note_on_c, 1, 69, 61
3, 229680, Note_off_c, 1, 69, 0
3, 229680, Note_off_c, 1, 62, 0
3, 229680, Note_on_c, 1, 62, 59
3, 229680, Note_on_c, 1, 66, 59
3, 230160, Note_off_c, 1, 66, 0
3, 230160, Note_on_c, 1, 69, 57
3, 230400, Note_off_c, 1, 69, 0
3, 230400, Note_off_c, 1, 62, 0
3, 230400, Note_on_c, 1, 66, 55
3, 230400, Note_on_c, 1, 62, 55
3, 230880, Note_off_c, 1, 62, 0
3, 230880, Note_off_c, 1, 66, 0
3, 231840, Control_c, 1, 7, 107
3, 231840, Note_on_c, 1, 64, 65
3, 231840, Note_on_c, 1, 57, 65
3, 232800, Note_off_c, 1, 57, 0
3, 232800, Note_on_c, 1, 59, 63
3, 233760, Note_off_c, 1, 59, 0
3, 233760, Note_on_c, 1, 62, 61
3, 234720, Note_off_c, 1, 62, 0
3, 234720, Note_off_c, 1, 64, 0
3, 234720, Note_on_c, 1, 64, 58
3, 234720, Note_on_c, 1, 61, 58
3, 235680, Note_off_c, 1, 61, 0
3, 235680, Note_off_c, 1, 64, 0
3, 236160, Note_on_c, 1, 74, 56
3, 236160, Note_on_c, 1, 68, 56
3, 236520, Note_off_c, 1, 68, 0
3, 236520, Note_off_c, 1, 74, 0
3, 236640, Note_on_c, 1, 74, 58
3, 236640, Note_on_c, 1, 68, 58
3, 237000, Note_off_c, 1, 68, 0
3, 237000, Note_off_c, 1, 74, 0
3, 237120, Note_on_c, 1, 74, 61
3, 237120, Note_on_c, 1, 68, 61
3, 237480, Note_off_c, 1, 68, 0
3, 237480, Note_off_c, 1, 74, 0
3, 237600, Note_on_c, 1, 69, 63
3, 237600, Note_on_c, 1, 73, 63
3, 238560, Note_off_c, 1, 73, 0
3, 238560, Note_off_c, 1, 69, 0
3, 238560, Note_on_c, 1, 74, 58
3, 238560, Note_on_c, 1, 62, 58
3, 239520, Note_off_c, 1, 62, 0
3, 239520, Note_off_c, 1, 74, 0
3, 240480, Note_on_c, 1, 52, 61
3, 240480, Note_on_c, 1, 61, 61
3, 241440, Note_off_c, 1, 61, 0
3, 241440, Note_on_c, 1, 59, 56
3, 242400, Note_off_c, 1, 59, 0
3, 242400, Note_off_c, 1, 52, 0
3, 243360, Note_on_c, 1, 69, 65
3, 243360, Note_on_c, 1, 57, 65
3, 244320, Note_off_c, 1, 57, 0
3, 244320, Note_off_c, 1, 69, 0
3, 244320, Note_on_c, 1, 68, 62
3, 244320, Note_on_c, 1, 59, 62
3, 245280, Note_off_c, 1, 59, 0
3, 245280, Note_off_c, 1, 68, 0
3, 245280, Note_on_c, 1, 64, 59
3, 245280, Note_on_c, 1, 62, 59
3, 246240, Note_off_c, 1, 62, 0
3, 246240, Note_off_c, 1, 64, 0
3, 246240, Note_on_c, 1, 61, 56
3, 246240, Note_on_c, 1, 64, 56
3, 247200, Note_off_c, 1, 64, 0
3, 247200, Note_off_c, 1, 61, 0
3, 247680, Note_on_c, 1, 71, 61
3, 247680, Note_on_c, 1, 62, 61
3, 248160, Note_off_c, 1, 62, 0
3, 248160, Note_off_c, 1, 71, 0
3, 248160, Note_on_c, 1, 63, 59
3, 248160, Note_on_c, 1, 72, 59
3, 248580, Note_off_c, 1, 63, 0
3, 248585, Note_off_c, 1, 72, 0
3, 248640, Note_on_c, 1, 63, 57
3, 248640, Note_on_c, 1, 72, 57
3, 249060, Note_off_c, 1, 63, 0
3, 249065, Note_off_c, 1, 72, 0
3, 249120, Note_on_c, 1, 64, 55
3, 249120, Note_on_c, 1, 73, 55
3, 250080, Note_off_c, 1, 73, 0
3, 250080, Note_off_c, 1, 64, 0
3, 251520, Note_on_c, 1, 52, 54
3, 251520, Note_on_c, 1, 62, 54
3, 252000, Note_off_c, 1, 62, 0
3, 252000, Note_off_c, 1, 52, 0
3, 252000, Note_on_c, 1, 57, 60
3, 252000, Note_on_c, 1, 62, 60
3, 252960, Note_off_c, 1, 62, 0
3, 252960, Note_on_c, 1, 61, 56
3, 253395, Note_off_c, 1, 61, 0
3, 253395, Note_off_c, 1, 57, 0
3, 253440, Note_on_c, 1, 52, 57
3, 253920, Note_off_c, 1, 52, 0
3, 253920, Note_on_c, 1, 49, 59
3, 254400, Note_off_c, 1, 49, 0
3, 254400, Note_on_c, 1, 45, 61
3, 254880, Note_off_c, 1, 45, 0
3, 254880, Note_on_c, 1, 52, 69
3, 255360, Note_on_c, 1, 59, 57
3, 255360, Note_on_c, 1, 56, 57
3, 255840, Note_off_c, 1, 56, 0
3, 255840, Note_off_c, 1, 59, 0
3, 255840, Note_on_c, 1, 56, 56
3, 255840, Note_on_c, 1, 59, 56
3, 256320, Note_off_c, 1, 59, 0
3, 256320, Note_off_c, 1, 56, 0
3, 256320, Note_on_c, 1, 61, 54
3, 256320, Note_on_c, 1, 57, 54
3, 256800, Note_off_c, 1, 57, 0
3, 256800, Note_off_c, 1, 61, 0
3, 256800, Note_on_c, 1, 59, 53
3, 256800, Note_on_c, 1, 62, 53
3, 257280, Note_off_c, 1, 62, 0
3, 257280, Note_off_c, 1, 59, 0
3, 257280, Note_off_c, 1, 52, 0
3, 257280, Note_on_c, 1, 59, 50
3, 257280, Note_on_c, 1, 62, 50
3, 257760, Note_off_c, 1, 62, 0
3, 257760, Note_off_c, 1, 59, 0
3, 257760, Note_on_c, 1, 57, 70
3, 258240, Note_on_c, 1, 64, 57
3, 258240, Note_on_c, 1, 61, 57
3, 258720, Note_off_c, 1, 61, 0
3, 258720, Note_off_c, 1, 64, 0
3, 258720, Note_on_c, 1, 64, 55
3, 258720, Note_on_c, 1, 61, 55
3, 259200, Note_off_c, 1, 61, 0
3, 259200, Note_off_c, 1, 64, 0
3, 259200, Note_on_c, 1, 59, 54
3, 259200, Note_on_c, 1, 62, 54
3, 259680, Note_off_c, 1, 62, 0
3, 259680, Note_off_c, 1, 59, 0
3, 259680, Note_off_c, 1, 57, 0
3, 259680, Note_on_c, 1, 61, 52
3, 259680, Note_on_c, 1, 57, 52
3, 260160, Note_off_c, 1, 57, 0
3, 260160, Note_off_c, 1, 61, 0
3, 260160, Note_on_c, 1, 59, 50
3, 260160, Note_on_c, 1, 56, 50
3, 260640, Note_off_c, 1, 56, 0
3, 260640, Note_off_c, 1, 59, 0
3, 260640, Note_on_c, 1, 54, 70
3, 261120, Note_on_c, 1, 61, 59
3, 261120, Note_on_c, 1, 57, 59
3, 261600, Note_off_c, 1, 57, 0
3, 261600, Note_off_c, 1, 61, 0
3, 261600, Note_on_c, 1, 61, 58
3, 261600, Note_on_c, 1, 57, 58
3, 262080, Note_off_c, 1, 57, 0
3, 262080, Note_off_c, 1, 61, 0
3, 262080, Note_on_c, 1, 61, 57
3, 262080, Note_on_c, 1, 57, 57
3, 262560, Note_off_c, 1, 57, 0
3, 262560, Note_off_c, 1, 61, 0
3, 262560, Note_on_c, 1, 59, 55
3, 262560, Note_on_c, 1, 57, 55
3, 263040, Note_off_c, 1, 57, 0
3, 263040, Note_off_c, 1, 59, 0
3, 263040, Note_on_c, 1, 57, 54
3, 263040, Note_on_c, 1, 59, 54
3, 263520, Note_off_c, 1, 59, 0
3, 263520, Note_off_c, 1, 57, 0
3, 263520, Note_off_c, 1, 54, 0
3, 263520, Note_on_c, 1, 59, 63
3, 263520, Note_on_c, 1, 57, 63
3, 263520, Note_on_c, 1, 52, 63
3, 264480, Note_off_c, 1, 57, 0
3, 264480, Note_on_c, 1, 56, 54
3, 264960, Note_off_c, 1, 56, 0
3, 264960, Note_off_c, 1, 52, 0
3, 264960, Note_off_c, 1, 59, 0
3, 266400, Note_on_c, 1, 67, 62
3, 266400, Note_on_c, 1, 58, 62
3, 267360, Note_off_c, 1, 58, 0
3, 267360, Note_off_c, 1, 67, 0
3, 267360, Note_on_c, 1, 66, 61
3, 267360, Note_on_c, 1, 59, 61
3, 268320, Note_off_c, 1, 59, 0
3, 268320, Note_off_c, 1, 66, 0
3, 268320, Note_on_c, 1, 62, 60
3, 268320, Note_on_c, 1, 65, 60
3, 269280, Note_off_c, 1, 65, 0
3, 269280, Note_off_c, 1, 62, 0
3, 269280, Note_on_c, 1, 64, 59
3, 269280, Note_on_c, 1, 61, 59
3, 270240, Note_off_c, 1, 61, 0
3, 270240, Note_off_c, 1, 64, 0
3, 270720, Note_on_c, 1, 70, 71
3, 270720, Note_on_c, 1, 61, 71
3, 271200, Note_off_c, 1, 61, 0
3, 271200, Note_off_c, 1, 70, 0
3, 271200, Note_on_c, 1, 71, 68
3, 271200, Note_on_c, 1, 62, 68
3, 271680, Note_off_c, 1, 62, 0
3, 271680, Note_off_c, 1, 71, 0
3, 271680, Note_on_c, 1, 73, 65
3, 271680, Note_on_c, 1, 64, 65
3, 272160, Note_off_c, 1, 64, 0
3, 272160, Note_off_c, 1, 73, 0
3, 272160, Note_on_c, 1, 74, 62
3, 272160, Note_on_c, 1, 62, 62
3, 272640, Note_off_c, 1, 62, 0
3, 272640, Note_off_c, 1, 74, 0
3, 273120, Note_on_c, 1, 61, 61
3, 273120, Note_on_c, 1, 52, 61
3, 273600, Note_off_c, 1, 52, 0
3, 273600, Note_off_c, 1, 61, 0
3, 274080, Note_on_c, 1, 62, 61
3, 274080, Note_on_c, 1, 52, 61
3, 274560, Note_off_c, 1, 52, 0
3, 274560, Note_off_c, 1, 62, 0
3, 275040, Note_on_c, 1, 57, 61
3, 275040, Note_on_c, 1, 62, 61
3, 276000, Note_off_c, 1, 62, 0
3, 276000, Note_on_c, 1, 61, 55
3, 276480, Note_off_c, 1, 61, 0
3, 276480, Note_off_c, 1, 57, 0
3, 277920, Note_on_c, 1, 54, 60
3, 278160, Note_on_c, 1, 69, 51
3, 278160, Note_on_c, 1, 66, 51
3, 278400, Note_off_c, 1, 66, 0
3, 278400, Note_off_c, 1, 69, 0
3, 278400, Note_on_c, 1, 66, 50
3, 278400, Note_on_c, 1, 69, 50
3, 278640, Note_off_c, 1, 69, 0
3, 278640, Note_off_c, 1, 66, 0
3, 278640, Note_on_c, 1, 69, 50
3, 278640, Note_on_c, 1, 66, 50
3, 278880, Note_off_c, 1, 66, 0
3, 278880, Note_off_c, 1, 69, 0
3, 278880, Note_on_c, 1, 69, 49
3, 278880, Note_on_c, 1, 66, 49
3, 279120, Note_off_c, 1, 66, 0
3, 279120, Note_off_c, 1, 69, 0
3, 279120, Note_on_c, 1, 69, 48
3, 279120, Note_on_c, 1, 66, 48
3, 279360, Note_off_c, 1, 66, 0
3, 279360, Note_off_c, 1, 69, 0
3, 279360, Note_on_c, 1, 69, 47
3, 279360, Note_on_c, 1, 66, 47
3, 279600, Note_off_c, 1, 66, 0
3, 279600, Note_off_c, 1, 69, 0
3, 279600, Note_on_c, 1, 69, 47
3, 279600, Note_on_c, 1, 66, 47
3, 279840, Note_off_c, 1, 66, 0
3, 279840, Note_off_c, 1, 69, 0
3, 279840, Note_on_c, 1, 69, 46
3, 279840, Note_on_c, 1, 66, 46
3, 280080, Note_off_c, 1, 66, 0
3, 280080, Note_off_c, 1, 69, 0
3, 280080, Note_on_c, 1, 69, 45
3, 280080, Note_on_c, 1, 66, 45
3, 280320, Note_off_c, 1, 66, 0
3, 280320, Note_off_c, 1, 69, 0
3, 280320, Note_on_c, 1, 69, 45
3, 280320, Note_on_c, 1, 66, 45
3, 280560, Note_off_c, 1, 66, 0
3, 280560, Note_off_c, 1, 69, 0
3, 280560, Note_on_c, 1, 69, 44
3, 280560, Note_on_c, 1, 66, 44
3, 280616, Note_off_c, 1, 54, 0
3, 280800, Note_off_c, 1, 66, 0
3, 280800, Note_off_c, 1, 69, 0
3, 280800, Note_on_c, 1, 53, 59
3, 281040, Note_on_c, 1, 65, 49
3, 281040, Note_on_c, 1, 68, 49
3, 281280, Note_off_c, 1, 68, 0
3, 281280, Note_off_c, 1, 65, 0
3, 281280, Note_on_c, 1, 68, 48
3, 281280, Note_on_c, 1, 65, 48
3, 281520, Note_off_c, 1, 65, 0
3, 281520, Note_off_c, 1, 68, 0
3, 281520, Note_on_c, 1, 68, 48
3, 281520, Note_on_c, 1, 65, 48
3, 281760, Note_off_c, 1, 65, 0
3, 281760, Note_off_c, 1, 68, 0
3, 281760, Note_on_c, 1, 65, 47
3, 281760, Note_on_c, 1, 68, 47
3, 282000, Note_off_c, 1, 68, 0
3, 282000, Note_off_c, 1, 65, 0
3, 282000, Note_on_c, 1, 68, 46
3, 282000, Note_on_c, 1, 65, 46
3, 282240, Note_off_c, 1, 65, 0
3, 282240, Note_off_c, 1, 68, 0
3, 282240, Note_on_c, 1, 68, 46
3, 282240, Note_on_c, 1, 65, 46
3, 282480, Note_off_c, 1, 65, 0
3, 282480, Note_off_c, 1, 68, 0
3, 282480, Note_on_c, 1, 68, 45
3, 282480, Note_on_c, 1, 65, 45
3, 282720, Note_off_c, 1, 65, 0
3, 282720, Note_off_c, 1, 68, 0
3, 282720, Note_on_c, 1, 68, 44
3, 282720, Note_on_c, 1, 65, 44
3, 282960, Note_off_c, 1, 65, 0
3, 282960, Note_off_c, 1, 68, 0
3, 282960, Note_on_c, 1, 68, 43
3, 282960, Note_on_c, 1, 65, 43
3, 283200, Note_off_c, 1, 65, 0
3, 283200, Note_off_c, 1, 68, 0
3, 283200, Note_on_c, 1, 68, 43
3, 283200, Note_on_c, 1, 65, 43
3, 283440, Note_off_c, 1, 65, 0
3, 283440, Note_off_c, 1, 68, 0
3, 283440, Note_on_c, 1, 65, 42
3, 283440, Note_on_c, 1, 68, 42
3, 283560, Note_off_c, 1, 53, 0
3, 283680, Note_off_c, 1, 68, 0
3, 283680, Note_off_c, 1, 65, 0
3, 283680, Note_on_c, 1, 66, 60
3, 283680, Note_on_c, 1, 73, 60
3, 284160, Note_off_c, 1, 66, 0
3, 284160, Note_on_c, 1, 64, 63
3, 284640, Note_off_c, 1, 64, 0
3, 284640, Note_on_c, 1, 62, 66
3, 285600, Note_off_c, 1, 73, 0
3, 285600, Note_on_c, 1, 72, 73
3, 286560, Note_off_c, 1, 72, 0
3, 286560, Note_off_c, 1, 62, 0
3, 286560, Note_on_c, 1, 73, 61
3, 286560, Note_on_c, 1, 61, 61
3, 287040, Note_off_c, 1, 61, 0
3, 287040, Note_off_c, 1, 73, 0
3, 287760, Note_on_c, 1, 65, 48
3, 288000, Note_off_c, 1, 65, 0
3, 288000, Note_on_c, 1, 68, 45
3, 288180, Note_off_c, 1, 68, 0
3, 288240, Note_on_c, 1, 61, 50
3, 288480, Note_off_c, 1, 61, 0
3, 288480, Note_on_c, 1, 62, 47
3, 288672, Note_off_c, 1, 62, 0
3, 288720, Note_on_c, 1, 56, 53
3, 288960, Note_off_c, 1, 56, 0
3, 288960, Note_on_c, 1, 59, 51
3, 289200, Note_on_c, 1, 53, 55
3, 289212, Note_off_c, 1, 59, 0
3, 289440, Note_off_c, 1, 53, 0
3, 289440, Note_on_c, 1, 54, 61
3, 289680, Note_on_c, 1, 69, 53
3, 289680, Note_on_c, 1, 66, 53
3, 289920, Note_off_c, 1, 66, 0
3, 289920, Note_off_c, 1, 69, 0
3, 289920, Note_on_c, 1, 69, 52
3, 289920, Note_on_c, 1, 66, 52
3, 290160, Note_off_c, 1, 66, 0
3, 290160, Note_off_c, 1, 69, 0
3, 290160, Note_on_c, 1, 69, 52
3, 290160, Note_on_c, 1, 66, 52
3, 290400, Note_off_c, 1, 66, 0
3, 290400, Note_off_c, 1, 69, 0
3, 290400, Note_on_c, 1, 69, 51
3, 290400, Note_on_c, 1, 66, 51
3, 290640, Note_off_c, 1, 66, 0
3, 290640, Note_off_c, 1, 69, 0
3, 290640, Note_on_c, 1, 69, 50
3, 290640, Note_on_c, 1, 66, 50
3, 290880, Note_off_c, 1, 66, 0
3, 290880, Note_off_c, 1, 69, 0
3, 290880, Note_on_c, 1, 69, 49
3, 290880, Note_on_c, 1, 66, 49
3, 291120, Note_off_c, 1, 66, 0
3, 291120, Note_off_c, 1, 69, 0
3, 291120, Note_on_c, 1, 69, 49
3, 291120, Note_on_c, 1, 66, 49
3, 291360, Note_off_c, 1, 66, 0
3, 291360, Note_off_c, 1, 69, 0
3, 291360, Note_on_c, 1, 69, 48
3, 291360, Note_on_c, 1, 66, 48
3, 291600, Note_off_c, 1, 66, 0
3, 291600, Note_off_c, 1, 69, 0
3, 291600, Note_on_c, 1, 69, 47
3, 291600, Note_on_c, 1, 66, 47
3, 291840, Note_off_c, 1, 66, 0
3, 291840, Note_off_c, 1, 69, 0
3, 291840, Note_on_c, 1, 69, 47
3, 291840, Note_on_c, 1, 66, 47
3, 292080, Note_off_c, 1, 66, 0
3, 292080, Note_off_c, 1, 69, 0
3, 292080, Note_on_c, 1, 69, 46
3, 292080, Note_on_c, 1, 66, 46
3, 292122, Note_off_c, 1, 54, 0
3, 292320, Note_off_c, 1, 66, 0
3, 292320, Note_off_c, 1, 69, 0
3, 292320, Note_on_c, 1, 52, 57
3, 292560, Note_on_c, 1, 67, 47
3, 292560, Note_on_c, 1, 64, 47
3, 292800, Note_off_c, 1, 64, 0
3, 292800, Note_off_c, 1, 67, 0
3, 292800, Note_on_c, 1, 64, 47
3, 292800, Note_on_c, 1, 67, 47
3, 293040, Note_off_c, 1, 67, 0
3, 293040, Note_off_c, 1, 64, 0
3, 293040, Note_on_c, 1, 67, 46
3, 293040, Note_on_c, 1, 64, 46
3, 293280, Note_off_c, 1, 64, 0
3, 293280, Note_off_c, 1, 67, 0
3, 293280, Note_on_c, 1, 67, 45
3, 293280, Note_on_c, 1, 64, 45
3, 293520, Note_off_c, 1, 64, 0
3, 293520, Note_off_c, 1, 67, 0
3, 293520, Note_on_c, 1, 67, 44
3, 293520, Note_on_c, 1, 64, 44
3, 293760, Note_off_c, 1, 64, 0
3, 293760, Note_off_c, 1, 67, 0
3, 293760, Note_on_c, 1, 67, 44
3, 293760, Note_on_c, 1, 64, 44
3, 294000, Note_off_c, 1, 64, 0
3, 294000, Note_off_c, 1, 67, 0
3, 294000, Note_on_c, 1, 67, 43
3, 294000, Note_on_c, 1, 64, 43
3, 294240, Note_off_c, 1, 64, 0
3, 294240, Note_off_c, 1, 67, 0
3, 294240, Note_on_c, 1, 67, 42
3, 294240, Note_on_c, 1, 64, 42
3, 294480, Note_off_c, 1, 64, 0
3, 294480, Note_off_c, 1, 67, 0
3, 294480, Note_on_c, 1, 67, 41
3, 294480, Note_on_c, 1, 64, 41
3, 294720, Note_off_c, 1, 64, 0
3, 294720, Note_off_c, 1, 67, 0
3, 294720, Note_on_c, 1, 67, 41
3, 294720, Note_on_c, 1, 64, 41
3, 294960, Note_off_c, 1, 64, 0
3, 294960, Note_off_c, 1, 67, 0
3, 294960, Note_on_c, 1, 67, 40
3, 294960, Note_on_c, 1, 64, 40
3, 295002, Note_off_c, 1, 52, 0
3, 295200, Note_off_c, 1, 64, 0
3, 295200, Note_off_c, 1, 67, 0
3, 295200, Note_on_c, 1, 66, 58
3, 295200, Note_on_c, 1, 69, 58
3, 295680, Note_off_c, 1, 69, 0
3, 295680, Note_on_c, 1, 72, 59
3, 296160, Note_off_c, 1, 72, 0
3, 296160, Note_off_c, 1, 66, 0
3, 296160, Note_on_c, 1, 71, 60
3, 296160, Note_on_c, 1, 67, 60
3, 296640, Note_off_c, 1, 67, 0
3, 296640, Note_off_c, 1, 71, 0
3, 296640, Note_on_c, 1, 68, 61
3, 296640, Note_on_c, 1, 74, 61
3, 297120, Note_off_c, 1, 68, 0
3, 297120, Note_on_c, 1, 69, 63
3, 297600, Note_off_c, 1, 69, 0
3, 297600, Note_off_c, 1, 74, 0
3, 297600, Note_on_c, 1, 67, 60
3, 297600, Note_on_c, 1, 57, 60
3, 298080, Note_off_c, 1, 57, 0
3, 298080, Note_off_c, 1, 67, 0
3, 298080, Note_on_c, 1, 66, 64
3, 298080, Note_on_c, 1, 62, 64
3, 298320, Note_off_c, 1, 66, 0
3, 298320, Note_on_c, 1, 69, 57
3, 298510, Note_off_c, 1, 69, 0
3, 298560, Note_on_c, 1, 69, 57
3, 298750, Note_off_c, 1, 69, 0
3, 298800, Note_on_c, 1, 69, 56
3, 298990, Note_off_c, 1, 69, 0
3, 299040, Note_on_c, 1, 66, 56
3, 299280, Note_off_c, 1, 66, 0
3, 299280, Note_on_c, 1, 69, 55
3, 299470, Note_off_c, 1, 69, 0
3, 299520, Note_on_c, 1, 69, 55
3, 299710, Note_off_c, 1, 69, 0
3, 299760, Note_on_c, 1, 69, 54
3, 299950, Note_off_c, 1, 69, 0
3, 300000, Note_off_c, 1, 62, 0
3, 300000, Note_on_c, 1, 67, 53
3, 300000, Note_on_c, 1, 57, 53
3, 300240, Note_off_c, 1, 67, 0
3, 300240, Note_on_c, 1, 69, 53
3, 300430, Note_off_c, 1, 69, 0
3, 300480, Note_on_c, 1, 69, 52
3, 300670, Note_off_c, 1, 69, 0
3, 300720, Note_on_c, 1, 69, 52
3, 300910, Note_off_c, 1, 69, 0
3, 300960, Note_off_c, 1, 57, 0
3, 300960, Note_on_c, 1, 66, 59
3, 300960, Note_on_c, 1, 62, 59
3, 301200, Note_off_c, 1, 66, 0
3, 301200, Note_on_c, 1, 69, 49
3, 301390, Note_off_c, 1, 69, 0
3, 301440, Note_on_c, 1, 69, 49
3, 301630, Note_off_c, 1, 69, 0
3, 301680, Note_on_c, 1, 69, 49
3, 301870, Note_off_c, 1, 69, 0
3, 301920, Note_on_c, 1, 66, 48
3, 302160, Note_off_c, 1, 66, 0
3, 302160, Note_on_c, 1, 69, 48
3, 302350, Note_off_c, 1, 69, 0
3, 302400, Note_on_c, 1, 69, 48
3, 302590, Note_off_c, 1, 69, 0
3, 302640, Note_on_c, 1, 69, 47
3, 302830, Note_off_c, 1, 69, 0
3, 302880, Note_off_c, 1, 62, 0
3, 302880, Note_on_c, 1, 67, 47
3, 302880, Note_on_c, 1, 57, 47
3, 303120, Note_off_c, 1, 67, 0
3, 303120, Note_on_c, 1, 69, 46
3, 303310, Note_off_c, 1, 69, 0
3, 303360, Note_on_c, 1, 69, 46
3, 303550, Note_off_c, 1, 69, 0
3, 303600, Note_on_c, 1, 69, 46
3, 303790, Note_off_c, 1, 69, 0
3, 303840, Note_off_c, 1, 57, 0
3, 303960, Note_on_c, 1, 50, 72
3, 304080, Note_off_c, 1, 50, 0
3, 304080, Note_on_c, 1, 52, 73
3, 304200, Note_off_c, 1, 52, 0
3, 304200, Note_on_c, 1, 54, 73
3, 304320, Note_off_c, 1, 54, 0
3, 304320, Note_on_c, 1, 55, 74
3, 304440, Note_off_c, 1, 55, 0
3, 304440, Note_on_c, 1, 57, 75
3, 304560, Note_off_c, 1, 57, 0
3, 304560, Note_on_c, 1, 59, 75
3, 304680, Note_off_c, 1, 59, 0
3, 304680, Note_on_c, 1, 61, 76
3, 304800, Note_off_c, 1, 61, 0
3, 304800, Note_on_c, 1, 62, 77
3, 304920, Note_off_c, 1, 62, 0
3, 304920, Note_on_c, 1, 61, 78
3, 305040, Note_off_c, 1, 61, 0
3, 305040, Note_on_c, 1, 64, 78
3, 305160, Note_off_c, 1, 64, 0
3, 305160, Note_on_c, 1, 62, 79
3, 305280, Note_off_c, 1, 62, 0
3, 305280, Note_on_c, 1, 66, 80
3, 305400, Note_off_c, 1, 66, 0
3, 305400, Note_on_c, 1, 64, 81
3, 305520, Note_off_c, 1, 64, 0
3, 305520, Note_on_c, 1, 67, 82
3, 305640, Note_off_c, 1, 67, 0
3, 305640, Note_on_c, 1, 66, 84
3, 305760, Note_off_c, 1, 66, 0
3, 305760, Note_on_c, 1, 69, 85
3, 305880, Note_off_c, 1, 69, 0
3, 305880, Note_on_c, 1, 68, 86
3, 306000, Note_off_c, 1, 68, 0
3, 306000, Note_on_c, 1, 72, 89
3, 306072, Note_off_c, 1, 72, 0
3, 306120, Note_on_c, 1, 71, 86
3, 306192, Note_off_c, 1, 71, 0
3, 306240, Note_on_c, 1, 69, 83
3, 306312, Note_off_c, 1, 69, 0
3, 306360, Note_on_c, 1, 67, 80
3, 306432, Note_off_c, 1, 67, 0
3, 306480, Note_on_c, 1, 66, 76
3, 306552, Note_off_c, 1, 66, 0
3, 306600, Note_on_c, 1, 64, 73
3, 306672, Note_off_c, 1, 64, 0
3, 306720, Note_on_c, 1, 63, 70
3, 308640, Note_off_c, 1, 63, 0
3, 309720, Note_on_c, 1, 52, 56
3, 309840, Note_off_c, 1, 52, 0
3, 309840, Note_on_c, 1, 54, 57
3, 309960, Note_off_c, 1, 54, 0
3, 309960, Note_on_c, 1, 55, 58
3, 310080, Note_off_c, 1, 55, 0
3, 310080, Note_on_c, 1, 57, 58
3, 310200, Note_off_c, 1, 57, 0
3, 310200, Note_on_c, 1, 59, 59
3, 310320, Note_off_c, 1, 59, 0
3, 310320, Note_on_c, 1, 61, 60
3, 310440, Note_off_c, 1, 61, 0
3, 310440, Note_on_c, 1, 63, 61
3, 310560, Note_off_c, 1, 63, 0
3, 310560, Note_on_c, 1, 64, 62
3, 310680, Note_off_c, 1, 64, 0
3, 310680, Note_on_c, 1, 63, 62
3, 310800, Note_off_c, 1, 63, 0
3, 310800, Note_on_c, 1, 66, 63
3, 310920, Note_off_c, 1, 66, 0
3, 310920, Note_on_c, 1, 64, 64
3, 311040, Note_off_c, 1, 64, 0
3, 311040, Note_on_c, 1, 67, 65
3, 311160, Note_off_c, 1, 67, 0
3, 311160, Note_on_c, 1, 66, 66
3, 311280, Note_off_c, 1, 66, 0
3, 311280, Note_on_c, 1, 69, 67
3, 311400, Note_off_c, 1, 69, 0
3, 311400, Note_on_c, 1, 67, 67
3, 311520, Note_off_c, 1, 67, 0
3, 311520, Note_on_c, 1, 71, 68
3, 311640, Note_off_c, 1, 71, 0
3, 311640, Note_on_c, 1, 70, 69
3, 311760, Note_off_c, 1, 70, 0
3, 311760, Note_on_c, 1, 74, 71
3, 311844, Note_off_c, 1, 74, 0
3, 311880, Note_on_c, 1, 73, 69
3, 311964, Note_off_c, 1, 73, 0
3, 312000, Note_on_c, 1, 71, 67
3, 312084, Note_off_c, 1, 71, 0
3, 312120, Note_on_c, 1, 69, 65
3, 312204, Note_off_c, 1, 69, 0
3, 312240, Note_on_c, 1, 68, 62
3, 312324, Note_off_c, 1, 68, 0
3, 312360, Note_on_c, 1, 66, 60
3, 312444, Note_off_c, 1, 66, 0
3, 312480, Note_on_c, 1, 65, 58
3, 313440, Note_off_c, 1, 65, 0
3, 315360, Note_on_c, 1, 54, 62
3, 316320, Note_off_c, 1, 54, 0
3, 316320, Note_on_c, 1, 59, 68
3, 316320, Note_on_c, 1, 51, 68
3, 317280, Note_off_c, 1, 51, 0
3, 317280, Note_off_c, 1, 59, 0
3, 317280, Note_on_c, 1, 60, 74
3, 317280, Note_on_c, 1, 50, 74
3, 318240, Note_off_c, 1, 50, 0
3, 318240, Note_off_c, 1, 60, 0
3, 318240, Note_on_c, 1, 61, 80
3, 318240, Note_on_c, 1, 49, 80
3, 319200, Note_off_c, 1, 49, 0
3, 319200, Note_off_c, 1, 61, 0
3, 320280, Note_on_c, 1, 62, 68
3, 320400, Note_off_c, 1, 62, 0
3, 320400, Note_on_c, 1, 61, 66
3, 320520, Note_off_c, 1, 61, 0
3, 320520, Note_on_c, 1, 60, 63
3, 320640, Note_off_c, 1, 60, 0
3, 320640, Note_on_c, 1, 61, 61
3, 320736, Note_off_c, 1, 61, 0
3, 320760, Note_on_c, 1, 59, 58
3, 320856, Note_off_c, 1, 59, 0
3, 320880, Note_on_c, 1, 57, 56
3, 320976, Note_off_c, 1, 57, 0
3, 321000, Note_on_c, 1, 56, 56
3, 321096, Note_off_c, 1, 56, 0
3, 321120, Note_on_c, 1, 54, 62
3, 321360, Note_on_c, 1, 66, 53
3, 321360, Note_on_c, 1, 69, 53
3, 321600, Note_off_c, 1, 69, 0
3, 321600, Note_off_c, 1, 66, 0
3, 321600, Note_on_c, 1, 69, 53
3, 321600, Note_on_c, 1, 66, 53
3, 321840, Note_off_c, 1, 66, 0
3, 321840, Note_off_c, 1, 69, 0
3, 321840, Note_on_c, 1, 66, 52
3, 321840, Note_on_c, 1, 69, 52
3, 322080, Note_off_c, 1, 69, 0
3, 322080, Note_off_c, 1, 66, 0
3, 322080, Note_on_c, 1, 66, 51
3, 322080, Note_on_c, 1, 69, 51
3, 322320, Note_off_c, 1, 69, 0
3, 322320, Note_off_c, 1, 66, 0
3, 322320, Note_on_c, 1, 66, 50
3, 322320, Note_on_c, 1, 69, 50
3, 322560, Note_off_c, 1, 69, 0
3, 322560, Note_off_c, 1, 66, 0
3, 322560, Note_on_c, 1, 66, 50
3, 322560, Note_on_c, 1, 69, 50
3, 322800, Note_off_c, 1, 69, 0
3, 322800, Note_off_c, 1, 66, 0
3, 322800, Note_on_c, 1, 66, 49
3, 322800, Note_on_c, 1, 69, 49
3, 323040, Note_off_c, 1, 69, 0
3, 323040, Note_off_c, 1, 66, 0
3, 323040, Note_on_c, 1, 66, 48
3, 323040, Note_on_c, 1, 69, 48
3, 323280, Note_off_c, 1, 69, 0
3, 323280, Note_off_c, 1, 66, 0
3, 323280, Note_on_c, 1, 66, 47
3, 323280, Note_on_c, 1, 69, 47
3, 323520, Note_off_c, 1, 69, 0
3, 323520, Note_off_c, 1, 66, 0
3, 323520, Note_on_c, 1, 66, 46
3, 323520, Note_on_c, 1, 69, 46
3, 323759, Note_off_c, 1, 54, 0
3, 323760, Note_off_c, 1, 69, 0
3, 323760, Note_off_c, 1, 66, 0
3, 323760, Note_on_c, 1, 66, 46
3, 323760, Note_on_c, 1, 69, 46
3, 324000, Note_off_c, 1, 69, 0
3, 324000, Note_off_c, 1, 66, 0
3, 324000, Note_on_c, 1, 53, 58
3, 324240, Note_on_c, 1, 68, 49
3, 324240, Note_on_c, 1, 65, 49
3, 324480, Note_off_c, 1, 65, 0
3, 324480, Note_off_c, 1, 68, 0
3, 324480, Note_on_c, 1, 65, 49
3, 324480, Note_on_c, 1, 68, 49
3, 324720, Note_off_c, 1, 68, 0
3, 324720, Note_off_c, 1, 65, 0
3, 324720, Note_on_c, 1, 65, 48
3, 324720, Note_on_c, 1, 68, 48
3, 324960, Note_off_c, 1, 68, 0
3, 324960, Note_off_c, 1, 65, 0
3, 324960, Note_on_c, 1, 68, 47
3, 324960, Note_on_c, 1, 65, 47
3, 325200, Note_off_c, 1, 65, 0
3, 325200, Note_off_c, 1, 68, 0
3, 325200, Note_on_c, 1, 65, 46
3, 325200, Note_on_c, 1, 68, 46
3, 325440, Note_off_c, 1, 68, 0
3, 325440, Note_off_c, 1, 65, 0
3, 325440, Note_on_c, 1, 65, 46
3, 325440, Note_on_c, 1, 68, 46
3, 325680, Note_off_c, 1, 68, 0
3, 325680, Note_off_c, 1, 65, 0
3, 325680, Note_on_c, 1, 65, 45
3, 325680, Note_on_c, 1, 68, 45
3, 325920, Note_off_c, 1, 68, 0
3, 325920, Note_off_c, 1, 65, 0
3, 325920, Note_on_c, 1, 65, 44
3, 325920, Note_on_c, 1, 68, 44
3, 326160, Note_off_c, 1, 68, 0
3, 326160, Note_off_c, 1, 65, 0
3, 326160, Note_on_c, 1, 65, 43
3, 326160, Note_on_c, 1, 68, 43
3, 326400, Note_off_c, 1, 68, 0
3, 326400, Note_off_c, 1, 65, 0
3, 326400, Note_on_c, 1, 65, 43
3, 326400, Note_on_c, 1, 68, 43
3, 326640, Note_off_c, 1, 68, 0
3, 326640, Note_off_c, 1, 65, 0
3, 326640, Note_on_c, 1, 68, 42
3, 326640, Note_on_c, 1, 65, 42
3, 326682, Note_off_c, 1, 53, 0
3, 326880, Note_off_c, 1, 65, 0
3, 326880, Note_off_c, 1, 68, 0
3, 326880, Note_on_c, 1, 73, 60
3, 326880, Note_on_c, 1, 66, 60
3, 327360, Note_off_c, 1, 66, 0
3, 327360, Note_on_c, 1, 64, 62
3, 327840, Note_off_c, 1, 64, 0
3, 327840, Note_on_c, 1, 62, 65
3, 328800, Note_off_c, 1, 73, 0
3, 328800, Note_on_c, 1, 72, 70
3, 329760, Note_off_c, 1, 72, 0
3, 329760, Note_off_c, 1, 62, 0
3, 329760, Note_on_c, 1, 61, 57
3, 329760, Note_on_c, 1, 73, 57
3, 330240, Note_off_c, 1, 73, 0
3, 330240, Note_off_c, 1, 61, 0
3, 330960, Note_on_c, 1, 65, 52
3, 331200, Note_off_c, 1, 65, 0
3, 331200, Note_on_c, 1, 68, 53
3, 331440, Note_off_c, 1, 68, 0
3, 331440, Note_on_c, 1, 61, 54
3, 331680, Note_off_c, 1, 61, 0
3, 331680, Note_on_c, 1, 62, 55
3, 331920, Note_off_c, 1, 62, 0
3, 331920, Note_on_c, 1, 56, 56
3, 332160, Note_off_c, 1, 56, 0
3, 332160, Note_on_c, 1, 59, 56
3, 332400, Note_off_c, 1, 59, 0
3, 332400, Note_on_c, 1, 53, 57
3, 332640, Note_off_c, 1, 53, 0
3, 332640, Note_on_c, 1, 54, 62
3, 332880, Note_on_c, 1, 66, 51
3, 332880, Note_on_c, 1, 69, 51
3, 333120, Note_off_c, 1, 69, 0
3, 333120, Note_off_c, 1, 66, 0
3, 333120, Note_on_c, 1, 66, 51
3, 333120, Note_on_c, 1, 69, 51
3, 333360, Note_off_c, 1, 69, 0
3, 333360, Note_off_c, 1, 66, 0
3, 333360, Note_on_c, 1, 66, 50
3, 333360, Note_on_c, 1, 69, 50
3, 333600, Note_off_c, 1, 69, 0
3, 333600, Note_off_c, 1, 66, 0
3, 333600, Note_on_c, 1, 66, 50
3, 333600, Note_on_c, 1, 69, 50
3, 333840, Note_off_c, 1, 69, 0
3, 333840, Note_off_c, 1, 66, 0
3, 333840, Note_on_c, 1, 66, 49
3, 333840, Note_on_c, 1, 69, 49
3, 334080, Note_off_c, 1, 69, 0
3, 334080, Note_off_c, 1, 66, 0
3, 334080, Note_on_c, 1, 66, 49
3, 334080, Note_on_c, 1, 69, 49
3, 334320, Note_off_c, 1, 69, 0
3, 334320, Note_off_c, 1, 66, 0
3, 334320, Note_on_c, 1, 66, 48
3, 334320, Note_on_c, 1, 69, 48
3, 334560, Note_off_c, 1, 69, 0
3, 334560, Note_off_c, 1, 66, 0
3, 334560, Note_on_c, 1, 66, 47
3, 334560, Note_on_c, 1, 69, 47
3, 334800, Note_off_c, 1, 69, 0
3, 334800, Note_off_c, 1, 66, 0
3, 334800, Note_on_c, 1, 66, 47
3, 334800, Note_on_c, 1, 69, 47
3, 335040, Note_off_c, 1, 69, 0
3, 335040, Note_off_c, 1, 66, 0
3, 335040, Note_on_c, 1, 66, 46
3, 335040, Note_on_c, 1, 69, 46
3, 335279, Note_off_c, 1, 54, 0
3, 335280, Note_off_c, 1, 69, 0
3, 335280, Note_off_c, 1, 66, 0
3, 335280, Note_on_c, 1, 66, 46
3, 335280, Note_on_c, 1, 69, 46
3, 335520, Note_off_c, 1, 69, 0
3, 335520, Note_off_c, 1, 66, 0
3, 335520, Note_on_c, 1, 52, 58
3, 335760, Note_on_c, 1, 64, 49
3, 335760, Note_on_c, 1, 67, 49
3, 336000, Note_off_c, 1, 67, 0
3, 336000, Note_off_c, 1, 64, 0
3, 336000, Note_on_c, 1, 67, 48
3, 336000, Note_on_c, 1, 64, 48
3, 336240, Note_off_c, 1, 64, 0
3, 336240, Note_off_c, 1, 67, 0
3, 336240, Note_on_c, 1, 64, 48
3, 336240, Note_on_c, 1, 67, 48
3, 336480, Note_off_c, 1, 67, 0
3, 336480, Note_off_c, 1, 64, 0
3, 336480, Note_on_c, 1, 64, 47
3, 336480, Note_on_c, 1, 67, 47
3, 336720, Note_off_c, 1, 67, 0
3, 336720, Note_off_c, 1, 64, 0
3, 336720, Note_on_c, 1, 64, 46
3, 336720, Note_on_c, 1, 67, 46
3, 336960, Note_off_c, 1, 67, 0
3, 336960, Note_off_c, 1, 64, 0
3, 336960, Note_on_c, 1, 64, 46
3, 336960, Note_on_c, 1, 67, 46
3, 337200, Note_off_c, 1, 67, 0
3, 337200, Note_off_c, 1, 64, 0
3, 337200, Note_on_c, 1, 64, 45
3, 337200, Note_on_c, 1, 67, 45
3, 337440, Note_off_c, 1, 67, 0
3, 337440, Note_off_c, 1, 64, 0
3, 337440, Note_on_c, 1, 64, 44
3, 337440, Note_on_c, 1, 67, 44
3, 337680, Note_off_c, 1, 67, 0
3, 337680, Note_off_c, 1, 64, 0
3, 337680, Note_on_c, 1, 64, 43
3, 337680, Note_on_c, 1, 67, 43
3, 337920, Note_off_c, 1, 67, 0
3, 337920, Note_off_c, 1, 64, 0
3, 337920, Note_on_c, 1, 64, 43
3, 337920, Note_on_c, 1, 67, 43
3, 338160, Note_off_c, 1, 67, 0
3, 338160, Note_off_c, 1, 64, 0
3, 338160, Note_on_c, 1, 64, 42
3, 338160, Note_on_c, 1, 67, 42
3, 338288, Note_off_c, 1, 52, 0
3, 338400, Note_off_c, 1, 67, 0
3, 338400, Note_off_c, 1, 64, 0
3, 338400, Note_on_c, 1, 66, 67
3, 338400, Note_on_c, 1, 63, 67
3, 338880, Note_off_c, 1, 63, 0
3, 338880, Note_on_c, 1, 62, 65
3, 339360, Note_off_c, 1, 62, 0
3, 339360, Note_on_c, 1, 61, 62
3, 339840, Note_off_c, 1, 61, 0
3, 339840, Note_off_c, 1, 66, 0
3, 340320, Note_on_c, 1, 57, 57
3, 340320, Note_on_c, 1, 49, 57
3, 340800, Note_off_c, 1, 57, 0
3, 340800, Note_on_c, 1, 56, 55
3, 341280, Note_off_c, 1, 56, 0
3, 341280, Note_off_c, 1, 49, 0
3, 341280, Note_on_c, 1, 57, 67
3, 341280, Note_on_c, 1, 54, 67
3, 341520, Note_off_c, 1, 57, 0
3, 341520, Note_on_c, 1, 61, 66
3, 341710, Note_off_c, 1, 61, 0
3, 341760, Note_on_c, 1, 61, 66
3, 341950, Note_off_c, 1, 61, 0
3, 342000, Note_on_c, 1, 61, 65
3, 342190, Note_off_c, 1, 61, 0
3, 342240, Note_on_c, 1, 57, 64
3, 342480, Note_off_c, 1, 57, 0
3, 342480, Note_on_c, 1, 61, 64
3, 342670, Note_off_c, 1, 61, 0
3, 342720, Note_on_c, 1, 61, 63
3, 342910, Note_off_c, 1, 61, 0
3, 342960, Note_on_c, 1, 61, 62
3, 343150, Note_off_c, 1, 61, 0
3, 343200, Note_off_c, 1, 54, 0
3, 343200, Note_on_c, 1, 59, 62
3, 343200, Note_on_c, 1, 49, 62
3, 343440, Note_off_c, 1, 59, 0
3, 343440, Note_on_c, 1, 61, 61
3, 343630, Note_off_c, 1, 61, 0
3, 343680, Note_on_c, 1, 61, 60
3, 343870, Note_off_c, 1, 61, 0
3, 343920, Note_on_c, 1, 61, 60
3, 344110, Note_off_c, 1, 61, 0
3, 344160, Note_off_c, 1, 49, 0
3, 344160, Note_on_c, 1, 57, 55
3, 344160, Note_on_c, 1, 54, 55
3, 344400, Note_off_c, 1, 57, 0
3, 344400, Note_on_c, 1, 61, 55
3, 344590, Note_off_c, 1, 61, 0
3, 344640, Note_on_c, 1, 61, 54
3, 344830, Note_off_c, 1, 61, 0
3, 344880, Note_on_c, 1, 61, 54
3, 345070, Note_off_c, 1, 61, 0
3, 345120, Note_on_c, 1, 57, 53
3, 345360, Note_off_c, 1, 57, 0
3, 345360, Note_on_c, 1, 61, 53
3, 345550, Note_off_c, 1, 61, 0
3, 345600, Note_on_c, 1, 61, 52
3, 345790, Note_off_c, 1, 61, 0
3, 345840, Note_on_c, 1, 61, 52
3, 346030, Note_off_c, 1, 61, 0
3, 346080, Note_off_c, 1, 54, 0
3, 346080, Note_on_c, 1, 59, 51
3, 346080, Note_on_c, 1, 49, 51
3, 346320, Note_off_c, 1, 59, 0
3, 346320, Note_on_c, 1, 61, 51
3, 346510, Note_off_c, 1, 61, 0
3, 346560, Note_on_c, 1, 61, 50
3, 346750, Note_off_c, 1, 61, 0
3, 346800, Note_on_c, 1, 61, 50
3, 346990, Note_off_c, 1, 61, 0
3, 347040, Note_off_c, 1, 49, 0
3, 347160, Note_on_c, 1, 42, 79
3, 347280, Note_off_c, 1, 42, 0
3, 347280, Note_on_c, 1, 44, 78
3, 347400, Note_off_c, 1, 44, 0
3, 347400, Note_on_c, 1, 45, 77
3, 347520, Note_off_c, 1, 45, 0
3, 347520, Note_on_c, 1, 47, 77
3, 347640, Note_off_c, 1, 47, 0
3, 347640, Note_on_c, 1, 49, 76
3, 347760, Note_off_c, 1, 49, 0
3, 347760, Note_on_c, 1, 51, 75
3, 347880, Note_off_c, 1, 51, 0
3, 347880, Note_on_c, 1, 53, 74
3, 348000, Note_off_c, 1, 53, 0
3, 348000, Note_on_c, 1, 54, 73
3, 348480, Note_off_c, 1, 54, 0
3, 350040, Note_on_c, 1, 53, 73
3, 350160, Note_off_c, 1, 53, 0
3, 350160, Note_on_c, 1, 55, 72
3, 350280, Note_off_c, 1, 55, 0
3, 350280, Note_on_c, 1, 57, 71
3, 350400, Note_off_c, 1, 57, 0
3, 350400, Note_on_c, 1, 59, 70
3, 350520, Note_off_c, 1, 59, 0
3, 350520, Note_on_c, 1, 61, 70
3, 350640, Note_off_c, 1, 61, 0
3, 350640, Note_on_c, 1, 62, 69
3, 350760, Note_off_c, 1, 62, 0
3, 350760, Note_on_c, 1, 64, 68
3, 350880, Note_off_c, 1, 64, 0
3, 350880, Note_on_c, 1, 65, 68
3, 351360, Note_off_c, 1, 65, 0
3, 352800, Note_on_c, 1, 59, 79
3, 352800, Note_on_c, 1, 62, 79
3, 352800, Note_on_c, 1, 52, 79
3, 354720, Note_off_c, 1, 59, 0
3, 354720, Note_on_c, 1, 56, 70
3, 355680, Note_off_c, 1, 56, 0
3, 355680, Note_off_c, 1, 52, 0
3, 355680, Note_off_c, 1, 62, 0
3, 355680, Note_on_c, 1, 57, 69
3, 355680, Note_on_c, 1, 64, 69
3, 356640, Note_off_c, 1, 57, 0
3, 356640, Note_on_c, 1, 59, 65
3, 357600, Note_off_c, 1, 59, 0
3, 357600, Note_on_c, 1, 62, 62
3, 358560, Note_off_c, 1, 62, 0
3, 358560, Note_off_c, 1, 64, 0
3, 358560, Note_on_c, 1, 61, 59
3, 358560, Note_on_c, 1, 64, 59
3, 359520, Note_off_c, 1, 64, 0
3, 359520, Note_off_c, 1, 61, 0
3, 360000, Note_on_c, 1, 68, 63
3, 360000, Note_on_c, 1, 74, 63
3, 360360, Note_off_c, 1, 74, 0
3, 360360, Note_off_c, 1, 68, 0
3, 360480, Note_on_c, 1, 68, 61
3, 360480, Note_on_c, 1, 74, 61
3, 360840, Note_off_c, 1, 74, 0
3, 360840, Note_off_c, 1, 68, 0
3, 360960, Note_on_c, 1, 68, 59
3, 360960, Note_on_c, 1, 74, 59
3, 361320, Note_off_c, 1, 74, 0
3, 361320, Note_off_c, 1, 68, 0
3, 361440, Note_on_c, 1, 73, 56
3, 361440, Note_on_c, 1, 69, 56
3, 362400, Note_off_c, 1, 69, 0
3, 362400, Note_off_c, 1, 73, 0
3, 362400, Note_on_c, 1, 62, 54
3, 362400, Note_on_c, 1, 74, 54
3, 363360, Note_off_c, 1, 74, 0
3, 363360, Note_off_c, 1, 62, 0
3, 364320, Note_on_c, 1, 61, 59
3, 364320, Note_on_c, 1, 52, 59
3, 365280, Note_off_c, 1, 61, 0
3, 365280, Note_on_c, 1, 59, 54
3, 366240, Note_off_c, 1, 59, 0
3, 366240, Note_off_c, 1, 52, 0
3, 367200, Note_on_c, 1, 57, 65
3, 367200, Note_on_c, 1, 69, 65
3, 368160, Note_off_c, 1, 69, 0
3, 368160, Note_off_c, 1, 57, 0
3, 368160, Note_on_c, 1, 59, 62
3, 368160, Note_on_c, 1, 68, 62
3, 369120, Note_off_c, 1, 68, 0
3, 369120, Note_off_c, 1, 59, 0
3, 369120, Note_on_c, 1, 62, 59
3, 369120, Note_on_c, 1, 64, 59
3, 370080, Note_off_c, 1, 64, 0
3, 370080, Note_off_c, 1, 62, 0
3, 370080, Note_on_c, 1, 64, 56
3, 370080, Note_on_c, 1, 61, 56
3, 371040, Note_off_c, 1, 61, 0
3, 371040, Note_off_c, 1, 64, 0
3, 371520, Note_on_c, 1, 62, 63
3, 371520, Note_on_c, 1, 71, 63
3, 372000, Note_off_c, 1, 71, 0
3, 372000, Note_off_c, 1, 62, 0
3, 372000, Note_on_c, 1, 72, 61
3, 372000, Note_on_c, 1, 63, 61
3, 372420, Note_off_c, 1, 63, 0
3, 372425, Note_off_c, 1, 72, 0
3, 372480, Note_on_c, 1, 72, 60
3, 372480, Note_on_c, 1, 63, 60
3, 372900, Note_off_c, 1, 63, 0
3, 372905, Note_off_c, 1, 72, 0
3, 372960, Note_on_c, 1, 73, 58
3, 372960, Note_on_c, 1, 64, 58
3, 373920, Note_off_c, 1, 64, 0
3, 373920, Note_off_c, 1, 73, 0
3, 375360, Note_on_c, 1, 62, 60
3, 375360, Note_on_c, 1, 52, 60
3, 375840, Note_off_c, 1, 52, 0
3, 375840, Note_off_c, 1, 62, 0
3, 375840, Note_on_c, 1, 62, 62
3, 375840, Note_on_c, 1, 57, 62
3, 376800, Note_off_c, 1, 62, 0
3, 376800, Note_on_c, 1, 61, 58
3, 377235, Note_off_c, 1, 61, 0
3, 377235, Note_off_c, 1, 57, 0
3, 377280, Note_on_c, 1, 52, 60
3, 377760, Note_off_c, 1, 52, 0
3, 377760, Note_on_c, 1, 49, 62
3, 378240, Note_off_c, 1, 49, 0
3, 378240, Note_on_c, 1, 45, 63
3, 378720, Note_off_c, 1, 45, 0
3, 378720, Note_on_c, 1, 52, 72
3, 379200, Note_on_c, 1, 56, 61
3, 379200, Note_on_c, 1, 59, 61
3, 379680, Note_off_c, 1, 59, 0
3, 379680, Note_off_c, 1, 56, 0
3, 379680, Note_on_c, 1, 59, 59
3, 379680, Note_on_c, 1, 56, 59
3, 380160, Note_off_c, 1, 56, 0
3, 380160, Note_off_c, 1, 59, 0
3, 380160, Note_on_c, 1, 57, 57
3, 380160, Note_on_c, 1, 61, 57
3, 380640, Note_off_c, 1, 61, 0
3, 380640, Note_off_c, 1, 57, 0
3, 380640, Note_on_c, 1, 62, 55
3, 380640, Note_on_c, 1, 59, 55
3, 381120, Note_off_c, 1, 59, 0
3, 381120, Note_off_c, 1, 62, 0
3, 381120, Note_off_c, 1, 52, 0
3, 381120, Note_on_c, 1, 62, 52
3, 381120, Note_on_c, 1, 59, 52
3, 381600, Note_off_c, 1, 59, 0
3, 381600, Note_off_c, 1, 62, 0
3, 381600, Note_on_c, 1, 57, 71
3, 382080, Note_on_c, 1, 61, 59
3, 382080, Note_on_c, 1, 64, 59
3, 382560, Note_off_c, 1, 64, 0
3, 382560, Note_off_c, 1, 61, 0
3, 382560, Note_on_c, 1, 61, 58
3, 382560, Note_on_c, 1, 64, 58
3, 383040, Note_off_c, 1, 64, 0
3, 383040, Note_off_c, 1, 61, 0
3, 383040, Note_on_c, 1, 62, 56
3, 383040, Note_on_c, 1, 59, 56
3, 383520, Note_off_c, 1, 59, 0
3, 383520, Note_off_c, 1, 62, 0
3, 383520, Note_off_c, 1, 57, 0
3, 383520, Note_on_c, 1, 61, 55
3, 383520, Note_on_c, 1, 57, 55
3, 384000, Note_off_c, 1, 57, 0
3, 384000, Note_off_c, 1, 61, 0
3, 384000, Note_on_c, 1, 56, 53
3, 384000, Note_on_c, 1, 59, 53
3, 384480, Note_off_c, 1, 59, 0
3, 384480, Note_off_c, 1, 56, 0
3, 384480, Note_on_c, 1, 54, 73
3, 384960, Note_on_c, 1, 57, 63
3, 384960, Note_on_c, 1, 61, 63
3, 385440, Note_off_c, 1, 61, 0
3, 385440, Note_off_c, 1, 57, 0
3, 385440, Note_on_c, 1, 57, 61
3, 385440, Note_on_c, 1, 61, 61
3, 385920, Note_off_c, 1, 61, 0
3, 385920, Note_off_c, 1, 57, 0
3, 385920, Note_on_c, 1, 57, 59
3, 385920, Note_on_c, 1, 61, 59
3, 386400, Note_off_c, 1, 61, 0
3, 386400, Note_off_c, 1, 57, 0
3, 386400, Note_on_c, 1, 57, 57
3, 386400, Note_on_c, 1, 59, 57
3, 386880, Note_off_c, 1, 59, 0
3, 386880, Note_off_c, 1, 57, 0
3, 386880, Note_on_c, 1, 59, 52
3, 386880, Note_on_c, 1, 57, 52
3, 387360, Note_off_c, 1, 57, 0
3, 387360, Note_off_c, 1, 59, 0
3, 387360, Note_off_c, 1, 54, 0
3, 387360, Note_on_c, 1, 52, 61
3, 387360, Note_on_c, 1, 57, 61
3, 387360, Note_on_c, 1, 59, 61
3, 388320, Note_off_c, 1, 57, 0
3, 388320, Note_on_c, 1, 56, 53
3, 388800, Note_off_c, 1, 56, 0
3, 388800, Note_off_c, 1, 59, 0
3, 388800, Note_off_c, 1, 52, 0
3, 390240, Note_on_c, 1, 58, 67
3, 390240, Note_on_c, 1, 67, 67
3, 391200, Note_off_c, 1, 67, 0
3, 391200, Note_off_c, 1, 58, 0
3, 391200, Note_on_c, 1, 59, 65
3, 391200, Note_on_c, 1, 66, 65
3, 392160, Note_off_c, 1, 66, 0
3, 392160, Note_off_c, 1, 59, 0
3, 392160, Note_on_c, 1, 65, 62
3, 392160, Note_on_c, 1, 62, 62
3, 393120, Note_off_c, 1, 62, 0
3, 393120, Note_off_c, 1, 65, 0
3, 393120, Note_on_c, 1, 61, 60
3, 393120, Note_on_c, 1, 64, 60
3, 394080, Note_off_c, 1, 64, 0
3, 394080, Note_off_c, 1, 61, 0
3, 394560, Note_on_c, 1, 61, 67
3, 394560, Note_on_c, 1, 70, 67
3, 395040, Note_off_c, 1, 70, 0
3, 395040, Note_off_c, 1, 61, 0
3, 395040, Note_on_c, 1, 62, 65
3, 395040, Note_on_c, 1, 71, 65
3, 395520, Note_off_c, 1, 71, 0
3, 395520, Note_off_c, 1, 62, 0
3, 395520, Note_on_c, 1, 64, 63
3, 395520, Note_on_c, 1, 73, 63
3, 396000, Note_off_c, 1, 73, 0
3, 396000, Note_off_c, 1, 64, 0
3, 396000, Note_on_c, 1, 62, 61
3, 396000, Note_on_c, 1, 74, 61
3, 396480, Note_off_c, 1, 74, 0
3, 396480, Note_off_c, 1, 62, 0
3, 396960, Note_on_c, 1, 52, 61
3, 396960, Note_on_c, 1, 61, 61
3, 397440, Note_off_c, 1, 61, 0
3, 397440, Note_off_c, 1, 52, 0
3, 397920, Note_on_c, 1, 52, 57
3, 397920, Note_on_c, 1, 62, 57
3, 398400, Note_off_c, 1, 62, 0
3, 398400, Note_off_c, 1, 52, 0
3, 398880, Note_on_c, 1, 45, 61
3, 399120, Note_on_c, 1, 61, 55
3, 399120, Note_on_c, 1, 57, 55
3, 399360, Note_off_c, 1, 57, 0
3, 399360, Note_off_c, 1, 61, 0
3, 399360, Note_on_c, 1, 61, 55
3, 399360, Note_on_c, 1, 57, 55
3, 399600, Note_off_c, 1, 57, 0
3, 399600, Note_off_c, 1, 61, 0
3, 399600, Note_on_c, 1, 61, 54
3, 399600, Note_on_c, 1, 57, 54
3, 399840, Note_off_c, 1, 57, 0
3, 399840, Note_off_c, 1, 61, 0
3, 399840, Note_on_c, 1, 61, 54
3, 399840, Note_on_c, 1, 57, 54
3, 400080, Note_off_c, 1, 57, 0
3, 400080, Note_off_c, 1, 61, 0
3, 400080, Note_on_c, 1, 61, 53
3, 400080, Note_on_c, 1, 57, 53
3, 400320, Note_off_c, 1, 57, 0
3, 400320, Note_off_c, 1, 61, 0
3, 400320, Note_on_c, 1, 61, 52
3, 400320, Note_on_c, 1, 57, 52
3, 400560, Note_off_c, 1, 57, 0
3, 400560, Note_off_c, 1, 61, 0
3, 400560, Note_on_c, 1, 61, 52
3, 400560, Note_on_c, 1, 57, 52
3, 400800, Note_off_c, 1, 57, 0
3, 400800, Note_off_c, 1, 61, 0
3, 400800, Note_on_c, 1, 62, 51
3, 400800, Note_on_c, 1, 57, 51
3, 401040, Note_off_c, 1, 57, 0
3, 401040, Note_off_c, 1, 62, 0
3, 401040, Note_on_c, 1, 62, 51
3, 401040, Note_on_c, 1, 57, 51
3, 401280, Note_off_c, 1, 57, 0
3, 401280, Note_off_c, 1, 62, 0
3, 401280, Note_on_c, 1, 62, 50
3, 401280, Note_on_c, 1, 57, 50
3, 401520, Note_off_c, 1, 57, 0
3, 401520, Note_off_c, 1, 62, 0
3, 401520, Note_on_c, 1, 62, 50
3, 401520, Note_on_c, 1, 57, 50
3, 401640, Note_off_c, 1, 45, 0
3, 401760, Note_off_c, 1, 57, 0
3, 401760, Note_off_c, 1, 62, 0
3, 401760, Note_on_c, 1, 45, 60
3, 402000, Note_on_c, 1, 57, 53
3, 402000, Note_on_c, 1, 61, 53
3, 402240, Note_off_c, 1, 61, 0
3, 402240, Note_off_c, 1, 57, 0
3, 402240, Note_on_c, 1, 57, 53
3, 402240, Note_on_c, 1, 61, 53
3, 402480, Note_off_c, 1, 61, 0
3, 402480, Note_off_c, 1, 57, 0
3, 402480, Note_on_c, 1, 57, 52
3, 402480, Note_on_c, 1, 61, 52
3, 402720, Note_off_c, 1, 61, 0
3, 402720, Note_off_c, 1, 57, 0
3, 402720, Note_on_c, 1, 57, 52
3, 402720, Note_on_c, 1, 61, 52
3, 402960, Note_off_c, 1, 61, 0
3, 402960, Note_off_c, 1, 57, 0
3, 402960, Note_on_c, 1, 57, 51
3, 402960, Note_on_c, 1, 61, 51
3, 403200, Note_off_c, 1, 61, 0
3, 403200, Note_off_c, 1, 57, 0
3, 403200, Note_on_c, 1, 57, 51
3, 403200, Note_on_c, 1, 61, 51
3, 403440, Note_off_c, 1, 61, 0
3, 403440, Note_off_c, 1, 57, 0
3, 403440, Note_on_c, 1, 57, 50
3, 403440, Note_on_c, 1, 61, 50
3, 403680, Note_off_c, 1, 61, 0
3, 403680, Note_off_c, 1, 57, 0
3, 403680, Note_on_c, 1, 57, 49
3, 403680, Note_on_c, 1, 62, 49
3, 403920, Note_off_c, 1, 62, 0
3, 403920, Note_off_c, 1, 57, 0
3, 403920, Note_on_c, 1, 57, 49
3, 403920, Note_on_c, 1, 62, 49
3, 404160, Note_off_c, 1, 62, 0
3, 404160, Note_off_c, 1, 57, 0
3, 404160, Note_on_c, 1, 57, 48
3, 404160, Note_on_c, 1, 62, 48
3, 404400, Note_off_c, 1, 62, 0
3, 404400, Note_off_c, 1, 57, 0
3, 404400, Note_on_c, 1, 57, 48
3, 404400, Note_on_c, 1, 62, 48
3, 404520, Note_off_c, 1, 45, 0
3, 404640, Note_off_c, 1, 62, 0
3, 404640, Note_off_c, 1, 57, 0
3, 404640, Note_on_c, 1, 61, 61
3, 404640, Note_on_c, 1, 57, 61
3, 405120, Note_off_c, 1, 57, 0
3, 405120, Note_off_c, 1, 61, 0
3, 405600, Note_on_c, 1, 64, 57
3, 405600, Note_on_c, 1, 52, 57
3, 406080, Note_off_c, 1, 52, 0
3, 406080, Note_off_c, 1, 64, 0
3, 406560, Note_on_c, 1, 62, 52
3, 406560, Note_on_c, 1, 52, 52
3, 407520, Note_off_c, 1, 52, 0
3, 407520, Note_off_c, 1, 62, 0
3, 407520, Note_on_c, 1, 45, 52
3, 407760, Note_on_c, 1, 57, 47
3, 407760, Note_on_c, 1, 61, 47
3, 408000, Note_off_c, 1, 61, 0
3, 408000, Note_off_c, 1, 57, 0
3, 408000, Note_on_c, 1, 57, 46
3, 408000, Note_on_c, 1, 61, 46
3, 408240, Note_off_c, 1, 61, 0
3, 408240, Note_off_c, 1, 57, 0
3, 408240, Note_on_c, 1, 57, 45
3, 408240, Note_on_c, 1, 61, 45
3, 408480, Note_off_c, 1, 61, 0
3, 408480, Note_off_c, 1, 57, 0
3, 408480, Note_on_c, 1, 57, 44
3, 408480, Note_on_c, 1, 61, 44
3, 408720, Note_off_c, 1, 61, 0
3, 408720, Note_off_c, 1, 57, 0
3, 408720, Note_on_c, 1, 57, 44
3, 408720, Note_on_c, 1, 61, 44
3, 408960, Note_off_c, 1, 61, 0
3, 408960, Note_off_c, 1, 57, 0
3, 408960, Note_on_c, 1, 57, 43
3, 408960, Note_on_c, 1, 61, 43
3, 409200, Note_off_c, 1, 61, 0
3, 409200, Note_off_c, 1, 57, 0
3, 409200, Note_on_c, 1, 57, 42
3, 409200, Note_on_c, 1, 61, 42
3, 409440, Note_off_c, 1, 61, 0
3, 409440, Note_off_c, 1, 57, 0
3, 409440, Note_on_c, 1, 57, 41
3, 409440, Note_on_c, 1, 62, 41
3, 409680, Note_off_c, 1, 62, 0
3, 409680, Note_off_c, 1, 57, 0
3, 409680, Note_on_c, 1, 57, 40
3, 409680, Note_on_c, 1, 62, 40
3, 409920, Note_off_c, 1, 62, 0
3, 409920, Note_off_c, 1, 57, 0
3, 409920, Note_on_c, 1, 57, 39
3, 409920, Note_on_c, 1, 62, 39
3, 410160, Note_off_c, 1, 62, 0
3, 410160, Note_off_c, 1, 57, 0
3, 410160, Note_on_c, 1, 57, 38
3, 410160, Note_on_c, 1, 62, 38
3, 410280, Note_off_c, 1, 45, 0
3, 410400, Note_off_c, 1, 62, 0
3, 410400, Note_off_c, 1, 57, 0
3, 410400, Note_on_c, 1, 45, 48
3, 410640, Note_on_c, 1, 61, 45
3, 410640, Note_on_c, 1, 57, 45
3, 410880, Note_off_c, 1, 57, 0
3, 410880, Note_off_c, 1, 61, 0
3, 410880, Note_on_c, 1, 61, 45
3, 410880, Note_on_c, 1, 57, 45
3, 411120, Note_off_c, 1, 57, 0
3, 411120, Note_off_c, 1, 61, 0
3, 411120, Note_on_c, 1, 61, 44
3, 411120, Note_on_c, 1, 57, 44
3, 411360, Note_off_c, 1, 57, 0
3, 411360, Note_off_c, 1, 61, 0
3, 411360, Note_on_c, 1, 61, 43
3, 411360, Note_on_c, 1, 57, 43
3, 411600, Note_off_c, 1, 57, 0
3, 411600, Note_off_c, 1, 61, 0
3, 411600, Note_on_c, 1, 61, 42
3, 411600, Note_on_c, 1, 57, 42
3, 411840, Note_off_c, 1, 57, 0
3, 411840, Note_off_c, 1, 61, 0
3, 411840, Note_on_c, 1, 61, 41
3, 411840, Note_on_c, 1, 57, 41
3, 412080, Note_off_c, 1, 57, 0
3, 412080, Note_off_c, 1, 61, 0
3, 412080, Note_on_c, 1, 61, 41
3, 412080, Note_on_c, 1, 57, 41
3, 412320, Note_off_c, 1, 57, 0
3, 412320, Note_off_c, 1, 61, 0
3, 412320, Note_on_c, 1, 62, 40
3, 412320, Note_on_c, 1, 57, 40
3, 412560, Note_off_c, 1, 57, 0
3, 412560, Note_off_c, 1, 62, 0
3, 412560, Note_on_c, 1, 62, 39
3, 412560, Note_on_c, 1, 57, 39
3, 412800, Note_off_c, 1, 57, 0
3, 412800, Note_off_c, 1, 62, 0
3, 412800, Note_on_c, 1, 62, 38
3, 412800, Note_on_c, 1, 57, 38
3, 413040, Note_off_c, 1, 57, 0
3, 413040, Note_off_c, 1, 62, 0
3, 413040, Note_on_c, 1, 62, 38
3, 413040, Note_on_c, 1, 57, 38
3, 413160, Note_off_c, 1, 45, 0
3, 413280, Note_off_c, 1, 57, 0
3, 413280, Note_off_c, 1, 62, 0
3, 413280, Note_on_c, 1, 57, 47
3, 413280, Note_on_c, 1, 61, 47
3, 413760, Note_off_c, 1, 61, 0
3, 413760, Note_off_c, 1, 57, 0
3, 414240, Note_on_c, 1, 52, 44
3, 414240, Note_on_c, 1, 64, 44
3, 414720, Note_off_c, 1, 64, 0
3, 414720, Note_off_c, 1, 52, 0
3, 415200, Note_on_c, 1, 52, 38
3, 415200, Note_on_c, 1, 62, 38
3, 416160, Note_off_c, 1, 62, 0
3, 416160, Note_off_c, 1, 52, 0
3, 416160, Note_on_c, 1, 61, 43
3, 416160, Note_on_c, 1, 57, 43
3, 417120, Note_off_c, 1, 57, 0
3, 417120, Note_off_c, 1, 61, 0
3, 418560, Note_on_c, 1, 74, 55
3, 418560, Note_on_c, 1, 64, 55
3, 419040, Note_off_c, 1, 64, 0
3, 419040, Note_off_c, 1, 74, 0
3, 419040, Note_on_c, 1, 69, 58
3, 419040, Note_on_c, 1, 73, 58
3, 420000, Note_off_c, 1, 73, 0
3, 420000, Note_off_c, 1, 69, 0
3, 421440, Note_on_c, 1, 50, 49
3, 421440, Note_on_c, 1, 40, 49
3, 421920, Note_off_c, 1, 40, 0
3, 421920, Note_off_c, 1, 50, 0
3, 421920, Note_on_c, 1, 45, 55
3, 421920, Note_on_c, 1, 50, 55
3, 422880, Note_off_c, 1, 50, 0
3, 422880, Note_on_c, 1, 49, 42
3, 423360, Note_off_c, 1, 49, 0
3, 423360, Note_off_c, 1, 45, 0
3, 425760, Control_c, 1, 7, 117
3, 426000, Note_on_c, 1, 66, 55
3, 426000, Note_on_c, 1, 69, 55
3, 426190, Note_off_c, 1, 69, 0
3, 426190, Note_off_c, 1, 66, 0
3, 426240, Note_on_c, 1, 69, 51
3, 426240, Note_on_c, 1, 66, 51
3, 426430, Note_off_c, 1, 66, 0
3, 426430, Note_off_c, 1, 69, 0
3, 426480, Note_on_c, 1, 66, 48
3, 426480, Note_on_c, 1, 69, 48
3, 426670, Note_off_c, 1, 69, 0
3, 426670, Note_off_c, 1, 66, 0
3, 426960, Note_on_c, 1, 71, 53
3, 426960, Note_on_c, 1, 67, 53
3, 427150, Note_off_c, 1, 67, 0
3, 427150, Note_off_c, 1, 71, 0
3, 427200, Note_on_c, 1, 71, 51
3, 427200, Note_on_c, 1, 67, 51
3, 427390, Note_off_c, 1, 67, 0
3, 427390, Note_off_c, 1, 71, 0
3, 427440, Note_on_c, 1, 71, 48
3, 427440, Note_on_c, 1, 67, 48
3, 427630, Note_off_c, 1, 67, 0
3, 427630, Note_off_c, 1, 71, 0
3, 427920, Note_on_c, 1, 69, 57
3, 427920, Note_on_c, 1, 61, 57
3, 428110, Note_off_c, 1, 61, 0
3, 428110, Note_off_c, 1, 69, 0
3, 428160, Note_on_c, 1, 69, 54
3, 428160, Note_on_c, 1, 61, 54
3, 428350, Note_off_c, 1, 61, 0
3, 428350, Note_off_c, 1, 69, 0
3, 428400, Note_on_c, 1, 69, 51
3, 428400, Note_on_c, 1, 61, 51
3, 428590, Note_off_c, 1, 61, 0
3, 428590, Note_off_c, 1, 69, 0
3, 428880, Note_on_c, 1, 69, 59
3, 428880, Note_on_c, 1, 62, 59
3, 429070, Note_off_c, 1, 62, 0
3, 429070, Note_off_c, 1, 69, 0
3, 429120, Note_on_c, 1, 69, 57
3, 429120, Note_on_c, 1, 62, 57
3, 429310, Note_off_c, 1, 62, 0
3, 429310, Note_off_c, 1, 69, 0
3, 429360, Note_on_c, 1, 69, 54
3, 429360, Note_on_c, 1, 62, 54
3, 429550, Note_off_c, 1, 62, 0
3, 429550, Note_off_c, 1, 69, 0
3, 429600, Note_on_c, 1, 69, 65
3, 429600, Note_on_c, 1, 66, 65
3, 429840, Note_off_c, 1, 66, 0
3, 429840, Note_on_c, 1, 64, 62
3, 430080, Note_off_c, 1, 64, 0
3, 430080, Note_off_c, 1, 69, 0
3, 430080, Note_on_c, 1, 69, 58
3, 430080, Note_on_c, 1, 62, 58
3, 430320, Note_off_c, 1, 62, 0
3, 430320, Note_off_c, 1, 69, 0
3, 430560, Note_on_c, 1, 64, 63
3, 430560, Note_on_c, 1, 69, 63
3, 430800, Note_off_c, 1, 64, 0
3, 430800, Note_on_c, 1, 66, 61
3, 431040, Note_off_c, 1, 66, 0
3, 431040, Note_on_c, 1, 67, 59
3, 431280, Note_off_c, 1, 67, 0
3, 431280, Note_off_c, 1, 69, 0
3, 431520, Note_on_c, 1, 69, 57
3, 431520, Note_on_c, 1, 66, 57
3, 431760, Note_off_c, 1, 66, 0
3, 431760, Note_off_c, 1, 69, 0
3, 432000, Note_on_c, 1, 64, 55
3, 432000, Note_on_c, 1, 69, 55
3, 432240, Note_off_c, 1, 69, 0
3, 432240, Note_off_c, 1, 64, 0
3, 432480, Note_on_c, 1, 62, 54
3, 432480, Note_on_c, 1, 52, 54
3, 432960, Note_off_c, 1, 52, 0
3, 432960, Note_off_c, 1, 62, 0
3, 432960, Note_on_c, 1, 61, 50
3, 432960, Note_on_c, 1, 57, 50
3, 433200, Note_off_c, 1, 57, 0
3, 433200, Note_off_c, 1, 61, 0
3, 433440, Note_on_c, 1, 62, 66
3, 433520, Note_off_c, 1, 62, 0
3, 433520, Note_on_c, 1, 64, 66
3, 433600, Note_off_c, 1, 64, 0
3, 433600, Note_on_c, 1, 66, 66
3, 433680, Note_off_c, 1, 66, 0
3, 433680, Note_on_c, 1, 64, 67
3, 433760, Note_off_c, 1, 64, 0
3, 433760, Note_on_c, 1, 62, 67
3, 433840, Note_off_c, 1, 62, 0
3, 433840, Note_on_c, 1, 61, 67
3, 433920, Note_off_c, 1, 61, 0
3, 433920, Note_on_c, 1, 59, 68
3, 434000, Note_off_c, 1, 59, 0
3, 434000, Note_on_c, 1, 61, 68
3, 434080, Note_off_c, 1, 61, 0
3, 434080, Note_on_c, 1, 62, 68
3, 434160, Note_off_c, 1, 62, 0
3, 434160, Note_on_c, 1, 61, 69
3, 434240, Note_off_c, 1, 61, 0
3, 434240, Note_on_c, 1, 59, 69
3, 434320, Note_off_c, 1, 59, 0
3, 434320, Note_on_c, 1, 57, 69
3, 434400, Note_off_c, 1, 57, 0
3, 434400, Note_on_c, 1, 55, 70
3, 434480, Note_off_c, 1, 55, 0
3, 434480, Note_on_c, 1, 57, 70
3, 434560, Note_off_c, 1, 57, 0
3, 434560, Note_on_c, 1, 59, 70
3, 434640, Note_off_c, 1, 59, 0
3, 434640, Note_on_c, 1, 57, 71
3, 434720, Note_off_c, 1, 57, 0
3, 434720, Note_on_c, 1, 55, 71
3, 434800, Note_off_c, 1, 55, 0
3, 434800, Note_on_c, 1, 54, 71
3, 434880, Note_off_c, 1, 54, 0
3, 434880, Note_on_c, 1, 52, 71
3, 434960, Note_off_c, 1, 52, 0
3, 434960, Note_on_c, 1, 54, 72
3, 435040, Note_off_c, 1, 54, 0
3, 435040, Note_on_c, 1, 55, 72
3, 435120, Note_off_c, 1, 55, 0
3, 435120, Note_on_c, 1, 54, 72
3, 435200, Note_off_c, 1, 54, 0
3, 435200, Note_on_c, 1, 52, 73
3, 435280, Note_off_c, 1, 52, 0
3, 435280, Note_on_c, 1, 50, 73
3, 435360, Note_off_c, 1, 50, 0
3, 435360, Note_on_c, 1, 49, 73
3, 435440, Note_off_c, 1, 49, 0
3, 435440, Note_on_c, 1, 50, 74
3, 435520, Note_off_c, 1, 50, 0
3, 435520, Note_on_c, 1, 52, 74
3, 435600, Note_off_c, 1, 52, 0
3, 435600, Note_on_c, 1, 50, 74
3, 435680, Note_off_c, 1, 50, 0
3, 435680, Note_on_c, 1, 49, 75
3, 435760, Note_off_c, 1, 49, 0
3, 435760, Note_on_c, 1, 47, 75
3, 435840, Note_off_c, 1, 47, 0
3, 435840, Note_on_c, 1, 45, 75
3, 435920, Note_off_c, 1, 45, 0
3, 435920, Note_on_c, 1, 47, 75
3, 436000, Note_off_c, 1, 47, 0
3, 436000, Note_on_c, 1, 45, 76
3, 436080, Note_off_c, 1, 45, 0
3, 436080, Note_on_c, 1, 43, 76
3, 436160, Note_off_c, 1, 43, 0
3, 436160, Note_on_c, 1, 42, 76
3, 436240, Note_off_c, 1, 42, 0
3, 436240, Note_on_c, 1, 40, 77
3, 436320, Note_off_c, 1, 40, 0
3, 436320, Note_on_c, 1, 38, 79
3, 436400, Note_off_c, 1, 38, 0
3, 436400, Note_on_c, 1, 42, 79
3, 436480, Note_off_c, 1, 42, 0
3, 436480, Note_on_c, 1, 43, 78
3, 436560, Note_off_c, 1, 43, 0
3, 436560, Note_on_c, 1, 45, 78
3, 436640, Note_off_c, 1, 45, 0
3, 436640, Note_on_c, 1, 47, 77
3, 436720, Note_off_c, 1, 47, 0
3, 436720, Note_on_c, 1, 49, 76
3, 436800, Note_off_c, 1, 49, 0
3, 436800, Note_on_c, 1, 50, 76
3, 436880, Note_off_c, 1, 50, 0
3, 436880, Note_on_c, 1, 52, 75
3, 436960, Note_off_c, 1, 52, 0
3, 436960, Note_on_c, 1, 54, 74
3, 437040, Note_off_c, 1, 54, 0
3, 437040, Note_on_c, 1, 55, 74
3, 437120, Note_off_c, 1, 55, 0
3, 437120, Note_on_c, 1, 57, 73
3, 437200, Note_off_c, 1, 57, 0
3, 437200, Note_on_c, 1, 59, 72
3, 437280, Note_off_c, 1, 59, 0
3, 437280, Note_on_c, 1, 60, 78
3, 437760, Note_off_c, 1, 60, 0
3, 437760, Note_on_c, 1, 59, 68
3, 438000, Note_off_c, 1, 59, 0
3, 438240, Note_on_c, 1, 55, 77
3, 438720, Note_off_c, 1, 55, 0
3, 438720, Note_on_c, 1, 54, 66
3, 438960, Note_off_c, 1, 54, 0
3, 439440, Note_on_c, 1, 67, 74
3, 439440, Note_on_c, 1, 55, 74
3, 439630, Note_off_c, 1, 55, 0
3, 439630, Note_off_c, 1, 67, 0
3, 439680, Note_on_c, 1, 66, 73
3, 439680, Note_on_c, 1, 57, 73
3, 439870, Note_off_c, 1, 57, 0
3, 439870, Note_off_c, 1, 66, 0
3, 439920, Note_on_c, 1, 64, 72
3, 439920, Note_on_c, 1, 57, 72
3, 440110, Note_off_c, 1, 57, 0
3, 440110, Note_off_c, 1, 64, 0
3, 440160, Note_on_c, 1, 50, 73
3, 440240, Note_off_c, 1, 50, 0
3, 440240, Note_on_c, 1, 54, 73
3, 440320, Note_off_c, 1, 54, 0
3, 440320, Note_on_c, 1, 57, 73
3, 440400, Note_off_c, 1, 57, 0
3, 440400, Note_on_c, 1, 62, 73
3, 440480, Note_off_c, 1, 62, 0
3, 440480, Note_on_c, 1, 57, 72
3, 440560, Note_off_c, 1, 57, 0
3, 440560, Note_on_c, 1, 54, 72
3, 440640, Note_off_c, 1, 54, 0
3, 440640, Note_on_c, 1, 50, 72
3, 440720, Note_off_c, 1, 50, 0
3, 440720, Note_on_c, 1, 54, 72
3, 440800, Note_off_c, 1, 54, 0
3, 440800, Note_on_c, 1, 57, 71
3, 440880, Note_off_c, 1, 57, 0
3, 440880, Note_on_c, 1, 62, 71
3, 440960, Note_off_c, 1, 62, 0
3, 440960, Note_on_c, 1, 57, 71
3, 441040, Note_off_c, 1, 57, 0
3, 441040, Note_on_c, 1, 54, 71
3, 441120, Note_off_c, 1, 54, 0
3, 441120, Note_on_c, 1, 50, 70
3, 441200, Note_off_c, 1, 50, 0
3, 441200, Note_on_c, 1, 52, 70
3, 441280, Note_off_c, 1, 52, 0
3, 441280, Note_on_c, 1, 55, 70
3, 441360, Note_off_c, 1, 55, 0
3, 441360, Note_on_c, 1, 61, 70
3, 441440, Note_off_c, 1, 61, 0
3, 441440, Note_on_c, 1, 55, 69
3, 441520, Note_off_c, 1, 55, 0
3, 441520, Note_on_c, 1, 52, 69
3, 441600, Note_off_c, 1, 52, 0
3, 441600, Note_on_c, 1, 50, 69
3, 441680, Note_off_c, 1, 50, 0
3, 441680, Note_on_c, 1, 52, 69
3, 441760, Note_off_c, 1, 52, 0
3, 441760, Note_on_c, 1, 55, 68
3, 441840, Note_off_c, 1, 55, 0
3, 441840, Note_on_c, 1, 61, 68
3, 441920, Note_off_c, 1, 61, 0
3, 441920, Note_on_c, 1, 55, 68
3, 442000, Note_off_c, 1, 55, 0
3, 442000, Note_on_c, 1, 52, 68
3, 442080, Note_off_c, 1, 52, 0
3, 442080, Note_on_c, 1, 50, 59
3, 442160, Note_off_c, 1, 50, 0
3, 442160, Note_on_c, 1, 54, 59
3, 442240, Note_off_c, 1, 54, 0
3, 442240, Note_on_c, 1, 57, 59
3, 442320, Note_off_c, 1, 57, 0
3, 442320, Note_on_c, 1, 62, 58
3, 442400, Note_off_c, 1, 62, 0
3, 442400, Note_on_c, 1, 57, 58
3, 442480, Note_off_c, 1, 57, 0
3, 442480, Note_on_c, 1, 54, 58
3, 442560, Note_off_c, 1, 54, 0
3, 442560, Note_on_c, 1, 50, 57
3, 442640, Note_off_c, 1, 50, 0
3, 442640, Note_on_c, 1, 54, 57
3, 442720, Note_off_c, 1, 54, 0
3, 442720, Note_on_c, 1, 57, 57
3, 442800, Note_off_c, 1, 57, 0
3, 442800, Note_on_c, 1, 62, 56
3, 442880, Note_off_c, 1, 62, 0
3, 442880, Note_on_c, 1, 57, 56
3, 442960, Note_off_c, 1, 57, 0
3, 442960, Note_on_c, 1, 54, 56
3, 443040, Note_off_c, 1, 54, 0
3, 443040, Note_on_c, 1, 50, 55
3, 443120, Note_off_c, 1, 50, 0
3, 443120, Note_on_c, 1, 52, 55
3, 443200, Note_off_c, 1, 52, 0
3, 443200, Note_on_c, 1, 55, 55
3, 443280, Note_off_c, 1, 55, 0
3, 443280, Note_on_c, 1, 61, 54
3, 443360, Note_off_c, 1, 61, 0
3, 443360, Note_on_c, 1, 55, 54
3, 443440, Note_off_c, 1, 55, 0
3, 443440, Note_on_c, 1, 52, 54
3, 443520, Note_off_c, 1, 52, 0
3, 443520, Note_on_c, 1, 50, 53
3, 443600, Note_off_c, 1, 50, 0
3, 443600, Note_on_c, 1, 52, 53
3, 443680, Note_off_c, 1, 52, 0
3, 443680, Note_on_c, 1, 55, 53
3, 443760, Note_off_c, 1, 55, 0
3, 443760, Note_on_c, 1, 61, 52
3, 443840, Note_off_c, 1, 61, 0
3, 443840, Note_on_c, 1, 55, 52
3, 443920, Note_off_c, 1, 55, 0
3, 443920, Note_on_c, 1, 52, 52
3, 444000, Note_off_c, 1, 52, 0
3, 444000, Note_on_c, 1, 50, 68
3, 444480, Note_off_c, 1, 50, 0
3, 444720, Note_on_c, 1, 64, 74
3, 444720, Note_on_c, 1, 57, 74
3, 444720, Note_on_c, 1, 67, 74
3, 444910, Note_off_c, 1, 67, 0
3, 444910, Note_off_c, 1, 57, 0
3, 444910, Note_off_c, 1, 64, 0
3, 444960, Note_on_c, 1, 62, 76
3, 444960, Note_on_c, 1, 66, 76
3, 445440, Note_off_c, 1, 66, 0
3, 445440, Note_off_c, 1, 62, 0
3, 445680, Note_on_c, 1, 67, 82
3, 445680, Note_on_c, 1, 64, 82
3, 445680, Note_on_c, 1, 57, 82
3, 445870, Note_off_c, 1, 57, 0
3, 445870, Note_off_c, 1, 64, 0
3, 445870, Note_off_c, 1, 67, 0
3, 445920, Note_on_c, 1, 50, 84
3, 445920, Note_on_c, 1, 62, 84
3, 446110, Note_off_c, 1, 62, 0
3, 446110, Note_off_c, 1, 50, 0
3, 446160, Note_on_c, 1, 45, 87
3, 446160, Note_on_c, 1, 57, 87
3, 446350, Note_off_c, 1, 57, 0
3, 446350, Note_off_c, 1, 45, 0
3, 446400, Note_on_c, 1, 54, 89
3, 446400, Note_on_c, 1, 42, 89
3, 446590, Note_off_c, 1, 42, 0
3, 446590, Note_off_c, 1, 54, 0
3, 446640, Note_on_c, 1, 38, 91
3, 446640, Note_on_c, 1, 50, 91
3, 446830, Note_off_c, 1, 50, 0
3, 446830, Note_off_c, 1, 38, 0
3, 446880, Note_on_c, 1, 33, 88
3, 446960, Note_off_c, 1, 33, 0
3, 446960, Note_on_c, 1, 37, 88
3, 447040, Note_off_c, 1, 37, 0
3, 447040, Note_on_c, 1, 40, 88
3, 447120, Note_off_c, 1, 40, 0
3, 447120, Note_on_c, 1, 45, 88
3, 447200, Note_off_c, 1, 45, 0
3, 447200, Note_on_c, 1, 49, 88
3, 447280, Note_off_c, 1, 49, 0
3, 447280, Note_on_c, 1, 52, 88
3, 447360, Note_off_c, 1, 52, 0
3, 447360, Note_on_c, 1, 74, 95
3, 447360, Note_on_c, 1, 69, 95
3, 447360, Note_on_c, 1, 38, 88
3, 447440, Note_off_c, 1, 38, 0
3, 447440, Note_on_c, 1, 42, 88
3, 447520, Note_off_c, 1, 42, 0
3, 447520, Note_on_c, 1, 45, 88
3, 447600, Note_off_c, 1, 45, 0
3, 447600, Note_off_c, 1, 69, 0
3, 447600, Note_off_c, 1, 74, 0
3, 447600, Note_on_c, 1, 50, 88
3, 447680, Note_off_c, 1, 50, 0
3, 447680, Note_on_c, 1, 54, 88
3, 447760, Note_off_c, 1, 54, 0
3, 447760, Note_on_c, 1, 57, 88
3, 447840, Note_off_c, 1, 57, 0
3, 447840, Note_on_c, 1, 45, 88
3, 447840, Note_on_c, 1, 49, 88
3, 448030, Note_off_c, 1, 49, 0
3, 448030, Note_off_c, 1, 45, 0
3, 448320, Note_on_c, 1, 45, 88
3, 448320, Note_on_c, 1, 50, 88
3, 448510, Note_off_c, 1, 50, 0
3, 448510, Note_off_c, 1, 45, 0
3, 448800, Note_on_c, 1, 45, 86
3, 448800, Note_on_c, 1, 49, 86
3, 448990, Note_off_c, 1, 49, 0
3, 448990, Note_off_c, 1, 45, 0
3, 449760, Note_on_c, 1, 57, 59
3, 450120, Note_off_c, 1, 57, 0
3, 450120, Note_on_c, 1, 59, 57
3, 450180, Note_off_c, 1, 59, 0
3, 450180, Note_on_c, 1, 57, 57
3, 450240, Note_off_c, 1, 57, 0
3, 450240, Note_on_c, 1, 56, 56
3, 450395, Note_off_c, 1, 56, 0
3, 450480, Note_on_c, 1, 57, 55
3, 450636, Note_off_c, 1, 57, 0
3, 450720, Note_on_c, 1, 58, 54
3, 450960, Note_off_c, 1, 58, 0
3, 450960, Note_on_c, 1, 59, 55
3, 451115, Note_off_c, 1, 59, 0
3, 451200, Note_on_c, 1, 59, 50
3, 451440, Note_off_c, 1, 59, 0
3, 451680, Note_on_c, 1, 59, 63
3, 452040, Note_off_c, 1, 59, 0
3, 452040, Note_on_c, 1, 61, 61
3, 452100, Note_off_c, 1, 61, 0
3, 452100, Note_on_c, 1, 59, 61
3, 452160, Note_off_c, 1, 59, 0
3, 452160, Note_on_c, 1, 57, 61
3, 452315, Note_off_c, 1, 57, 0
3, 452400, Note_on_c, 1, 59, 59
3, 452555, Note_off_c, 1, 59, 0
3, 452640, Note_on_c, 1, 60, 58
3, 452880, Note_off_c, 1, 60, 0
3, 452880, Note_on_c, 1, 61, 57
3, 453035, Note_off_c, 1, 61, 0
3, 453120, Note_on_c, 1, 61, 55
3, 453360, Note_off_c, 1, 61, 0
3, 453840, Note_on_c, 1, 78, 71
3, 453840, Note_on_c, 1, 74, 71
3, 454080, Note_off_c, 1, 74, 0
3, 454080, Note_off_c, 1, 78, 0
3, 454080, Note_on_c, 1, 76, 70
3, 454080, Note_on_c, 1, 73, 70
3, 454320, Note_off_c, 1, 73, 0
3, 454320, Note_off_c, 1, 76, 0
3, 454320, Note_on_c, 1, 71, 68
3, 454320, Note_on_c, 1, 74, 68
3, 454560, Note_off_c, 1, 74, 0
3, 454560, Note_off_c, 1, 71, 0
3, 454560, Note_on_c, 1, 76, 67
3, 454560, Note_on_c, 1, 70, 67
3, 455040, Note_off_c, 1, 70, 0
3, 455040, Note_off_c, 1, 76, 0
3, 455040, Note_on_c, 1, 71, 64
3, 455040, Note_on_c, 1, 74, 64
3, 455520, Note_off_c, 1, 71, 0
3, 455520, Note_on_c, 1, 68, 61
3, 456000, Note_off_c, 1, 68, 0
3, 456000, Note_off_c, 1, 74, 0
3, 456000, Note_on_c, 1, 69, 59
3, 456000, Note_on_c, 1, 73, 59
3, 456480, Note_off_c, 1, 69, 0
3, 456480, Note_on_c, 1, 66, 56
3, 456720, Note_off_c, 1, 73, 0
3, 456720, Note_on_c, 1, 72, 55
3, 456960, Note_off_c, 1, 72, 0
3, 456960, Note_off_c, 1, 66, 0
3, 456960, Note_on_c, 1, 71, 53
3, 456960, Note_on_c, 1, 65, 53
3, 457200, Note_off_c, 1, 71, 0
3, 457200, Note_on_c, 1, 69, 52
3, 457440, Note_off_c, 1, 69, 0
3, 457440, Note_off_c, 1, 65, 0
3, 457440, Note_on_c, 1, 64, 50
3, 457440, Note_on_c, 1, 68, 50
3, 457920, Note_off_c, 1, 68, 0
3, 457920, Note_off_c, 1, 64, 0
3, 458400, Note_on_c, 1, 64, 71
3, 458760, Note_off_c, 1, 64, 0
3, 458760, Note_on_c, 1, 63, 71
3, 458820, Note_off_c, 1, 63, 0
3, 458820, Note_on_c, 1, 64, 70
3, 458880, Note_off_c, 1, 64, 0
3, 458880, Note_on_c, 1, 66, 70
3, 459035, Note_off_c, 1, 66, 0
3, 459120, Note_on_c, 1, 64, 70
3, 459275, Note_off_c, 1, 64, 0
3, 459360, Note_on_c, 1, 64, 71
3, 459600, Note_off_c, 1, 64, 0
3, 459600, Note_on_c, 1, 62, 67
3, 459755, Note_off_c, 1, 62, 0
3, 459840, Note_on_c, 1, 62, 64
3, 460080, Note_off_c, 1, 62, 0
3, 460320, Note_on_c, 1, 61, 78
3, 460680, Note_off_c, 1, 61, 0
3, 460680, Note_on_c, 1, 59, 78
3, 460740, Note_off_c, 1, 59, 0
3, 460740, Note_on_c, 1, 61, 78
3, 460800, Note_off_c, 1, 61, 0
3, 460800, Note_on_c, 1, 62, 79
3, 460955, Note_off_c, 1, 62, 0
3, 461040, Note_on_c, 1, 61, 79
3, 461195, Note_off_c, 1, 61, 0
3, 461280, Note_on_c, 1, 61, 77
3, 461520, Note_off_c, 1, 61, 0
3, 461520, Note_on_c, 1, 59, 74
3, 461675, Note_off_c, 1, 59, 0
3, 461760, Note_on_c, 1, 59, 70
3, 462000, Note_off_c, 1, 59, 0
3, 462240, Note_on_c, 1, 64, 88
3, 462240, Note_on_c, 1, 69, 88
3, 462600, Note_off_c, 1, 69, 0
3, 462600, Note_on_c, 1, 71, 88
3, 462660, Note_off_c, 1, 71, 0
3, 462660, Note_on_c, 1, 69, 88
3, 462720, Note_off_c, 1, 69, 0
3, 462720, Note_on_c, 1, 68, 88
3, 462875, Note_off_c, 1, 68, 0
3, 462960, Note_on_c, 1, 70, 84
3, 463115, Note_off_c, 1, 70, 0
3, 463200, Note_off_c, 1, 64, 0
3, 463200, Note_on_c, 1, 71, 83
3, 463200, Note_on_c, 1, 64, 83
3, 463680, Note_off_c, 1, 64, 0
3, 463680, Note_off_c, 1, 71, 0
3, 465120, Note_on_c, 1, 71, 80
3, 465275, Note_off_c, 1, 71, 0
3, 465360, Note_on_c, 1, 69, 82
3, 465515, Note_off_c, 1, 69, 0
3, 465600, Note_on_c, 1, 68, 84
3, 465755, Note_off_c, 1, 68, 0
3, 465840, Note_on_c, 1, 66, 86
3, 465995, Note_off_c, 1, 66, 0
3, 466080, Note_on_c, 1, 64, 88
3, 466235, Note_off_c, 1, 64, 0
3, 466320, Note_on_c, 1, 62, 90
3, 466475, Note_off_c, 1, 62, 0
3, 466560, Note_on_c, 1, 61, 92
3, 466715, Note_off_c, 1, 61, 0
3, 466800, Note_on_c, 1, 59, 94
3, 466955, Note_off_c, 1, 59, 0
3, 467040, Note_on_c, 1, 57, 97
3, 467280, Note_off_c, 1, 57, 0
3, 467520, Note_on_c, 1, 76, 88
3, 467520, Note_on_c, 1, 74, 88
3, 467760, Note_off_c, 1, 74, 0
3, 467760, Note_off_c, 1, 76, 0
3, 468000, Note_on_c, 1, 76, 84
3, 468000, Note_on_c, 1, 73, 84
3, 468240, Note_off_c, 1, 73, 0
3, 468240, Note_off_c, 1, 76, 0
3, 468480, Note_on_c, 1, 76, 81
3, 468480, Note_on_c, 1, 74, 81
3, 468720, Note_off_c, 1, 74, 0
3, 468720, Note_off_c, 1, 76, 0
3, 468960, Note_on_c, 1, 76, 77
3, 468960, Note_on_c, 1, 73, 77
3, 469200, Note_off_c, 1, 73, 0
3, 469200, Note_off_c, 1, 76, 0
3, 469200, Note_on_c, 1, 73, 89
3, 469280, Note_off_c, 1, 73, 0
3, 469280, Note_on_c, 1, 76, 89
3, 469360, Note_off_c, 1, 76, 0
3, 469360, Note_on_c, 1, 73, 88
3, 469440, Note_off_c, 1, 73, 0
3, 469440, Note_on_c, 1, 70, 88
3, 469520, Note_off_c, 1, 70, 0
3, 469520, Note_on_c, 1, 73, 87
3, 469600, Note_off_c, 1, 73, 0
3, 469600, Note_on_c, 1, 70, 87
3, 469680, Note_off_c, 1, 70, 0
3, 469680, Note_on_c, 1, 71, 86
3, 469760, Note_off_c, 1, 71, 0
3, 469760, Note_on_c, 1, 74, 86
3, 469840, Note_off_c, 1, 74, 0
3, 469840, Note_on_c, 1, 71, 86
3, 469920, Note_off_c, 1, 71, 0
3, 469920, Note_on_c, 1, 68, 85
3, 470000, Note_off_c, 1, 68, 0
3, 470000, Note_on_c, 1, 71, 85
3, 470080, Note_off_c, 1, 71, 0
3, 470080, Note_on_c, 1, 68, 84
3, 470160, Note_off_c, 1, 68, 0
3, 470160, Note_on_c, 1, 69, 84
3, 470240, Note_off_c, 1, 69, 0
3, 470240, Note_on_c, 1, 73, 83
3, 470320, Note_off_c, 1, 73, 0
3, 470320, Note_on_c, 1, 69, 83
3, 470400, Note_off_c, 1, 69, 0
3, 470400, Note_on_c, 1, 66, 82
3, 470480, Note_off_c, 1, 66, 0
3, 470480, Note_on_c, 1, 69, 82
3, 470560, Note_off_c, 1, 69, 0
3, 470560, Note_on_c, 1, 66, 82
3, 470640, Note_off_c, 1, 66, 0
3, 470640, Note_on_c, 1, 68, 81
3, 470720, Note_off_c, 1, 68, 0
3, 470720, Note_on_c, 1, 71, 81
3, 470800, Note_off_c, 1, 71, 0
3, 470800, Note_on_c, 1, 67, 80
3, 470880, Note_off_c, 1, 67, 0
3, 470880, Note_on_c, 1, 65, 80
3, 470960, Note_off_c, 1, 65, 0
3, 470960, Note_on_c, 1, 68, 79
3, 471040, Note_off_c, 1, 68, 0
3, 471040, Note_on_c, 1, 65, 79
3, 471120, Note_off_c, 1, 65, 0
3, 471120, Note_on_c, 1, 66, 78
3, 471200, Note_off_c, 1, 66, 0
3, 471200, Note_on_c, 1, 69, 78
3, 471280, Note_off_c, 1, 69, 0
3, 471280, Note_on_c, 1, 66, 78
3, 471360, Note_off_c, 1, 66, 0
3, 471360, Note_on_c, 1, 63, 77
3, 471440, Note_off_c, 1, 63, 0
3, 471440, Note_on_c, 1, 66, 77
3, 471520, Note_off_c, 1, 66, 0
3, 471520, Note_on_c, 1, 63, 76
3, 471600, Note_off_c, 1, 63, 0
3, 471600, Note_on_c, 1, 62, 76
3, 471680, Note_off_c, 1, 62, 0
3, 471680, Note_on_c, 1, 64, 75
3, 471760, Note_off_c, 1, 64, 0
3, 471760, Note_on_c, 1, 62, 75
3, 471840, Note_off_c, 1, 62, 0
3, 471840, Note_on_c, 1, 61, 74
3, 472030, Note_off_c, 1, 61, 0
3, 472080, Note_on_c, 1, 62, 73
3, 472270, Note_off_c, 1, 62, 0
3, 472320, Note_on_c, 1, 64, 72
3, 472510, Note_off_c, 1, 64, 0
3, 472560, Note_on_c, 1, 52, 70
3, 472750, Note_off_c, 1, 52, 0
3, 472800, Note_on_c, 1, 57, 69
3, 472990, Note_off_c, 1, 57, 0
3, 473280, Note_on_c, 1, 76, 75
3, 473280, Note_on_c, 1, 69, 75
3, 473520, Note_off_c, 1, 69, 0
3, 473520, Note_off_c, 1, 76, 0
3, 473520, Note_on_c, 1, 77, 74
3, 473520, Note_on_c, 1, 68, 74
3, 473760, Note_off_c, 1, 68, 0
3, 473760, Note_off_c, 1, 77, 0
3, 473760, Note_on_c, 1, 78, 74
3, 473760, Note_on_c, 1, 66, 73
3, 474000, Note_off_c, 1, 66, 0
3, 474000, Note_off_c, 1, 78, 0
3, 474000, Note_on_c, 1, 73, 73
3, 474000, Note_on_c, 1, 64, 73
3, 474240, Note_off_c, 1, 64, 0
3, 474240, Note_off_c, 1, 73, 0
3, 474240, Note_on_c, 1, 74, 72
3, 474240, Note_on_c, 1, 62, 72
3, 474480, Note_off_c, 1, 62, 0
3, 474480, Note_off_c, 1, 74, 0
3, 474480, Note_on_c, 1, 69, 72
3, 474480, Note_on_c, 1, 61, 71
3, 474720, Note_off_c, 1, 61, 0
3, 474720, Note_off_c, 1, 69, 0
3, 474720, Note_on_c, 1, 68, 71
3, 474720, Note_on_c, 1, 59, 71
3, 474960, Note_off_c, 1, 59, 0
3, 474960, Note_off_c, 1, 68, 0
3, 474960, Note_on_c, 1, 69, 70
3, 474960, Note_on_c, 1, 57, 70
3, 475200, Note_off_c, 1, 57, 0
3, 475200, Note_off_c, 1, 69, 0
3, 475440, Note_on_c, 1, 64, 68
3, 475440, Note_on_c, 1, 61, 68
3, 475630, Note_off_c, 1, 61, 0
3, 475630, Note_off_c, 1, 64, 0
3, 475680, Note_on_c, 1, 69, 68
3, 475680, Note_on_c, 1, 66, 68
3, 475920, Note_off_c, 1, 66, 0
3, 475920, Note_off_c, 1, 69, 0
3, 475920, Note_on_c, 1, 64, 67
3, 475920, Note_on_c, 1, 68, 67
3, 476160, Note_off_c, 1, 68, 0
3, 476160, Note_off_c, 1, 64, 0
3, 476160, Note_on_c, 1, 66, 66
3, 476160, Note_on_c, 1, 62, 66
3, 476400, Note_off_c, 1, 62, 0
3, 476400, Note_off_c, 1, 66, 0
3, 476400, Note_on_c, 1, 63, 66
3, 476400, Note_on_c, 1, 66, 66
3, 476640, Note_off_c, 1, 66, 0
3, 476640, Note_off_c, 1, 63, 0
3, 476640, Note_on_c, 1, 69, 66
3, 476640, Note_on_c, 1, 64, 65
3, 476880, Note_off_c, 1, 69, 0
3, 476880, Note_on_c, 1, 68, 65
3, 477120, Note_off_c, 1, 68, 0
3, 477120, Note_off_c, 1, 64, 0
3, 477120, Note_on_c, 1, 69, 73
3, 477120, Note_on_c, 1, 76, 73
3, 477360, Note_off_c, 1, 69, 0
3, 477360, Note_on_c, 1, 68, 72
3, 477600, Note_off_c, 1, 68, 0
3, 477600, Note_off_c, 1, 76, 0
3, 477600, Note_on_c, 1, 66, 71
3, 477600, Note_on_c, 1, 73, 71
3, 477840, Note_off_c, 1, 66, 0
3, 477840, Note_on_c, 1, 64, 69
3, 478080, Note_off_c, 1, 64, 0
3, 478080, Note_off_c, 1, 73, 0
3, 478080, Note_on_c, 1, 62, 68
3, 478080, Note_on_c, 1, 69, 68
3, 478320, Note_off_c, 1, 62, 0
3, 478320, Note_on_c, 1, 61, 67
3, 478560, Note_off_c, 1, 61, 0
3, 478560, Note_off_c, 1, 69, 0
3, 478560, Note_on_c, 1, 68, 66
3, 478560, Note_on_c, 1, 59, 66
3, 478800, Note_off_c, 1, 59, 0
3, 478800, Note_off_c, 1, 68, 0
3, 478800, Note_on_c, 1, 69, 65
3, 478800, Note_on_c, 1, 57, 65
3, 479040, Note_off_c, 1, 57, 0
3, 479040, Note_off_c, 1, 69, 0
3, 479280, Note_on_c, 1, 49, 63
3, 479280, Note_on_c, 1, 57, 63
3, 479520, Note_off_c, 1, 49, 0
3, 479520, Note_on_c, 1, 50, 61
3, 479760, Note_off_c, 1, 57, 0
3, 479760, Note_on_c, 1, 62, 60
3, 480000, Note_off_c, 1, 62, 0
3, 480000, Note_off_c, 1, 50, 0
3, 480000, Note_on_c, 1, 52, 59
3, 480000, Note_on_c, 1, 61, 59
3, 480240, Note_off_c, 1, 61, 0
3, 480240, Note_on_c, 1, 56, 58
3, 480480, Note_off_c, 1, 56, 0
3, 480480, Note_off_c, 1, 52, 0
3, 480480, Note_on_c, 1, 45, 76
3, 480560, Note_off_c, 1, 45, 0
3, 480560, Note_on_c, 1, 49, 76
3, 480640, Note_off_c, 1, 49, 0
3, 480640, Note_on_c, 1, 52, 76
3, 480720, Note_off_c, 1, 52, 0
3, 480720, Note_on_c, 1, 57, 77
3, 480800, Note_off_c, 1, 57, 0
3, 480800, Note_on_c, 1, 61, 77
3, 480880, Note_off_c, 1, 61, 0
3, 480880, Note_on_c, 1, 64, 77
3, 480960, Note_off_c, 1, 64, 0
3, 480960, Note_on_c, 1, 69, 78
3, 481200, Note_off_c, 1, 69, 0
3, 481440, Note_on_c, 1, 45, 80
3, 481520, Note_off_c, 1, 45, 0
3, 481520, Note_on_c, 1, 50, 80
3, 481600, Note_off_c, 1, 50, 0
3, 481600, Note_on_c, 1, 56, 81
3, 481680, Note_off_c, 1, 56, 0
3, 481680, Note_on_c, 1, 59, 81
3, 481760, Note_off_c, 1, 59, 0
3, 481760, Note_on_c, 1, 62, 81
3, 481840, Note_off_c, 1, 62, 0
3, 481840, Note_on_c, 1, 64, 82
3, 481920, Note_off_c, 1, 64, 0
3, 481920, Note_on_c, 1, 68, 82
3, 482160, Note_off_c, 1, 68, 0
3, 482400, Note_on_c, 1, 45, 84
3, 482480, Note_off_c, 1, 45, 0
3, 482480, Note_on_c, 1, 49, 84
3, 482560, Note_off_c, 1, 49, 0
3, 482560, Note_on_c, 1, 52, 85
3, 482640, Note_off_c, 1, 52, 0
3, 482640, Note_on_c, 1, 57, 85
3, 482720, Note_off_c, 1, 57, 0
3, 482720, Note_on_c, 1, 61, 85
3, 482800, Note_off_c, 1, 61, 0
3, 482800, Note_on_c, 1, 64, 86
3, 482880, Note_off_c, 1, 64, 0
3, 482880, Note_on_c, 1, 67, 86
3, 483120, Note_off_c, 1, 67, 0
3, 483360, Note_on_c, 1, 45, 88
3, 483440, Note_off_c, 1, 45, 0
3, 483440, Note_on_c, 1, 50, 89
3, 483520, Note_off_c, 1, 50, 0
3, 483520, Note_on_c, 1, 54, 89
3, 483600, Note_off_c, 1, 54, 0
3, 483600, Note_on_c, 1, 57, 89
3, 483680, Note_off_c, 1, 57, 0
3, 483680, Note_on_c, 1, 62, 90
3, 483760, Note_off_c, 1, 62, 0
3, 483760, Note_on_c, 1, 66, 90
3, 483840, Note_off_c, 1, 66, 0
3, 483840, Note_on_c, 1, 69, 90
3, 484080, Note_off_c, 1, 69, 0
3, 484320, Note_on_c, 1, 45, 92
3, 484400, Note_off_c, 1, 45, 0
3, 484400, Note_on_c, 1, 49, 93
3, 484480, Note_off_c, 1, 49, 0
3, 484480, Note_on_c, 1, 52, 93
3, 484560, Note_off_c, 1, 52, 0
3, 484560, Note_on_c, 1, 57, 93
3, 484640, Note_off_c, 1, 57, 0
3, 484640, Note_on_c, 1, 61, 94
3, 484720, Note_off_c, 1, 61, 0
3, 484720, Note_on_c, 1, 64, 94
3, 484800, Note_off_c, 1, 64, 0
3, 484800, Note_on_c, 1, 67, 94
3, 485040, Note_off_c, 1, 67, 0
3, 487440, Note_on_c, 1, 69, 55
3, 487440, Note_on_c, 1, 66, 55
3, 487630, Note_off_c, 1, 66, 0
3, 487630, Note_off_c, 1, 69, 0
3, 487680, Note_on_c, 1, 66, 52
3, 487680, Note_on_c, 1, 69, 52
3, 487870, Note_off_c, 1, 69, 0
3, 487870, Note_off_c, 1, 66, 0
3, 487920, Note_on_c, 1, 69, 49
3, 487920, Note_on_c, 1, 66, 49
3, 488110, Note_off_c, 1, 66, 0
3, 488110, Note_off_c, 1, 69, 0
3, 488400, Note_on_c, 1, 67, 55
3, 488400, Note_on_c, 1, 71, 55
3, 488590, Note_off_c, 1, 71, 0
3, 488590, Note_off_c, 1, 67, 0
3, 488640, Note_on_c, 1, 67, 53
3, 488640, Note_on_c, 1, 71, 53
3, 488830, Note_off_c, 1, 71, 0
3, 488830, Note_off_c, 1, 67, 0
3, 488880, Note_on_c, 1, 67, 52
3, 488880, Note_on_c, 1, 71, 52
3, 489070, Note_off_c, 1, 71, 0
3, 489070, Note_off_c, 1, 67, 0
3, 489360, Note_on_c, 1, 61, 57
3, 489360, Note_on_c, 1, 69, 57
3, 489550, Note_off_c, 1, 69, 0
3, 489550, Note_off_c, 1, 61, 0
3, 489600, Note_on_c, 1, 61, 56
3, 489600, Note_on_c, 1, 69, 56
3, 489790, Note_off_c, 1, 69, 0
3, 489790, Note_off_c, 1, 61, 0
3, 489840, Note_on_c, 1, 61, 54
3, 489840, Note_on_c, 1, 69, 54
3, 490030, Note_off_c, 1, 69, 0
3, 490030, Note_off_c, 1, 61, 0
3, 490320, Note_on_c, 1, 62, 59
3, 490320, Note_on_c, 1, 69, 59
3, 490510, Note_off_c, 1, 69, 0
3, 490510, Note_off_c, 1, 62, 0
3, 490560, Note_on_c, 1, 62, 57
3, 490560, Note_on_c, 1, 69, 57
3, 490750, Note_off_c, 1, 69, 0
3, 490750, Note_off_c, 1, 62, 0
3, 490800, Note_on_c, 1, 62, 56
3, 490800, Note_on_c, 1, 69, 56
3, 490990, Note_off_c, 1, 69, 0
3, 490990, Note_off_c, 1, 62, 0
3, 491040, Note_on_c, 1, 66, 61
3, 491040, Note_on_c, 1, 69, 61
3, 491280, Note_off_c, 1, 66, 0
3, 491280, Note_on_c, 1, 64, 60
3, 491520, Note_off_c, 1, 64, 0
3, 491520, Note_on_c, 1, 62, 59
3, 491760, Note_off_c, 1, 62, 0
3, 491760, Note_off_c, 1, 69, 0
3, 492000, Note_on_c, 1, 69, 59
3, 492000, Note_on_c, 1, 64, 59
3, 492240, Note_off_c, 1, 64, 0
3, 492240, Note_on_c, 1, 66, 56
3, 492480, Note_off_c, 1, 66, 0
3, 492480, Note_on_c, 1, 67, 54
3, 492720, Note_off_c, 1, 67, 0
3, 492720, Note_off_c, 1, 69, 0
3, 492960, Note_on_c, 1, 66, 54
3, 492960, Note_on_c, 1, 69, 54
3, 493200, Note_off_c, 1, 69, 0
3, 493200, Note_off_c, 1, 66, 0
3, 493440, Note_on_c, 1, 69, 52
3, 493440, Note_on_c, 1, 64, 52
3, 493680, Note_off_c, 1, 64, 0
3, 493680, Note_off_c, 1, 69, 0
3, 493920, Note_on_c, 1, 52, 50
3, 493920, Note_on_c, 1, 62, 50
3, 494400, Note_off_c, 1, 62, 0
3, 494400, Note_off_c, 1, 52, 0
3, 494400, Note_on_c, 1, 57, 48
3, 494400, Note_on_c, 1, 61, 48
3, 494640, Note_off_c, 1, 61, 0
3, 494640, Note_off_c, 1, 57, 0
3, 494880, Note_on_c, 1, 62, 64
3, 494960, Note_off_c, 1, 62, 0
3, 494960, Note_on_c, 1, 64, 64
3, 495040, Note_off_c, 1, 64, 0
3, 495040, Note_on_c, 1, 66, 65
3, 495120, Note_off_c, 1, 66, 0
3, 495120, Note_on_c, 1, 64, 65
3, 495200, Note_off_c, 1, 64, 0
3, 495200, Note_on_c, 1, 62, 65
3, 495280, Note_off_c, 1, 62, 0
3, 495280, Note_on_c, 1, 61, 66
3, 495360, Note_off_c, 1, 61, 0
3, 495360, Note_on_c, 1, 59, 66
3, 495440, Note_off_c, 1, 59, 0
3, 495440, Note_on_c, 1, 61, 66
3, 495520, Note_off_c, 1, 61, 0
3, 495520, Note_on_c, 1, 62, 66
3, 495600, Note_off_c, 1, 62, 0
3, 495600, Note_on_c, 1, 61, 67
3, 495680, Note_off_c, 1, 61, 0
3, 495680, Note_on_c, 1, 59, 67
3, 495760, Note_off_c, 1, 59, 0
3, 495760, Note_on_c, 1, 57, 67
3, 495840, Note_off_c, 1, 57, 0
3, 495840, Note_on_c, 1, 55, 68
3, 495920, Note_off_c, 1, 55, 0
3, 495920, Note_on_c, 1, 57, 68
3, 496000, Note_off_c, 1, 57, 0
3, 496000, Note_on_c, 1, 59, 68
3, 496080, Note_off_c, 1, 59, 0
3, 496080, Note_on_c, 1, 57, 69
3, 496160, Note_off_c, 1, 57, 0
3, 496160, Note_on_c, 1, 55, 69
3, 496240, Note_off_c, 1, 55, 0
3, 496240, Note_on_c, 1, 54, 69
3, 496320, Note_off_c, 1, 54, 0
3, 496320, Note_on_c, 1, 52, 70
3, 496400, Note_off_c, 1, 52, 0
3, 496400, Note_on_c, 1, 54, 70
3, 496480, Note_off_c, 1, 54, 0
3, 496480, Note_on_c, 1, 55, 70
3, 496560, Note_off_c, 1, 55, 0
3, 496560, Note_on_c, 1, 54, 70
3, 496640, Note_off_c, 1, 54, 0
3, 496640, Note_on_c, 1, 52, 71
3, 496720, Note_off_c, 1, 52, 0
3, 496720, Note_on_c, 1, 50, 71
3, 496800, Note_off_c, 1, 50, 0
3, 496800, Note_on_c, 1, 49, 71
3, 496880, Note_off_c, 1, 49, 0
3, 496880, Note_on_c, 1, 50, 72
3, 496960, Note_off_c, 1, 50, 0
3, 496960, Note_on_c, 1, 52, 72
3, 497040, Note_off_c, 1, 52, 0
3, 497040, Note_on_c, 1, 50, 72
3, 497120, Note_off_c, 1, 50, 0
3, 497120, Note_on_c, 1, 49, 73
3, 497200, Note_off_c, 1, 49, 0
3, 497200, Note_on_c, 1, 47, 73
3, 497280, Note_off_c, 1, 47, 0
3, 497280, Note_on_c, 1, 45, 73
3, 497360, Note_off_c, 1, 45, 0
3, 497360, Note_on_c, 1, 47, 73
3, 497440, Note_off_c, 1, 47, 0
3, 497440, Note_on_c, 1, 45, 74
3, 497520, Note_off_c, 1, 45, 0
3, 497520, Note_on_c, 1, 43, 74
3, 497600, Note_off_c, 1, 43, 0
3, 497600, Note_on_c, 1, 42, 74
3, 497680, Note_off_c, 1, 42, 0
3, 497680, Note_on_c, 1, 40, 75
3, 497760, Note_off_c, 1, 40, 0
3, 497760, Note_on_c, 1, 38, 75
3, 497840, Note_off_c, 1, 38, 0
3, 497840, Note_on_c, 1, 42, 77
3, 497920, Note_off_c, 1, 42, 0
3, 497920, Note_on_c, 1, 43, 76
3, 498000, Note_off_c, 1, 43, 0
3, 498000, Note_on_c, 1, 45, 76
3, 498080, Note_off_c, 1, 45, 0
3, 498080, Note_on_c, 1, 47, 75
3, 498160, Note_off_c, 1, 47, 0
3, 498160, Note_on_c, 1, 49, 74
3, 498240, Note_off_c, 1, 49, 0
3, 498240, Note_on_c, 1, 50, 74
3, 498320, Note_off_c, 1, 50, 0
3, 498320, Note_on_c, 1, 52, 73
3, 498400, Note_off_c, 1, 52, 0
3, 498400, Note_on_c, 1, 54, 72
3, 498480, Note_off_c, 1, 54, 0
3, 498480, Note_on_c, 1, 55, 71
3, 498560, Note_off_c, 1, 55, 0
3, 498560, Note_on_c, 1, 57, 71
3, 498640, Note_off_c, 1, 57, 0
3, 498640, Note_on_c, 1, 59, 70
3, 498720, Note_off_c, 1, 59, 0
3, 498720, Note_on_c, 1, 60, 79
3, 499200, Note_off_c, 1, 60, 0
3, 499200, Note_on_c, 1, 59, 68
3, 499440, Note_off_c, 1, 59, 0
3, 499680, Note_on_c, 1, 55, 77
3, 500160, Note_off_c, 1, 55, 0
3, 500160, Note_on_c, 1, 54, 64
3, 500400, Note_off_c, 1, 54, 0
3, 500880, Note_on_c, 1, 55, 75
3, 500880, Note_on_c, 1, 67, 75
3, 501070, Note_off_c, 1, 67, 0
3, 501070, Note_off_c, 1, 55, 0
3, 501120, Note_on_c, 1, 57, 72
3, 501120, Note_on_c, 1, 66, 72
3, 501310, Note_off_c, 1, 66, 0
3, 501310, Note_off_c, 1, 57, 0
3, 501360, Note_on_c, 1, 57, 69
3, 501360, Note_on_c, 1, 64, 69
3, 501550, Note_off_c, 1, 64, 0
3, 501550, Note_off_c, 1, 57, 0
3, 501600, Note_on_c, 1, 50, 61
3, 501680, Note_off_c, 1, 50, 0
3, 501680, Note_on_c, 1, 54, 61
3, 501760, Note_off_c, 1, 54, 0
3, 501760, Note_on_c, 1, 57, 61
3, 501840, Note_off_c, 1, 57, 0
3, 501840, Note_on_c, 1, 62, 61
3, 501920, Note_off_c, 1, 62, 0
3, 501920, Note_on_c, 1, 57, 61
3, 502000, Note_off_c, 1, 57, 0
3, 502000, Note_on_c, 1, 54, 61
3, 502080, Note_off_c, 1, 54, 0
3, 502080, Note_on_c, 1, 50, 60
3, 502160, Note_off_c, 1, 50, 0
3, 502160, Note_on_c, 1, 54, 60
3, 502240, Note_off_c, 1, 54, 0
3, 502240, Note_on_c, 1, 57, 60
3, 502320, Note_off_c, 1, 57, 0
3, 502320, Note_on_c, 1, 62, 60
3, 502400, Note_off_c, 1, 62, 0
3, 502400, Note_on_c, 1, 57, 60
3, 502480, Note_off_c, 1, 57, 0
3, 502480, Note_on_c, 1, 54, 60
3, 502560, Note_off_c, 1, 54, 0
3, 502560, Note_on_c, 1, 50, 59
3, 502640, Note_off_c, 1, 50, 0
3, 502640, Note_on_c, 1, 52, 59
3, 502720, Note_off_c, 1, 52, 0
3, 502720, Note_on_c, 1, 55, 59
3, 502800, Note_off_c, 1, 55, 0
3, 502800, Note_on_c, 1, 61, 59
3, 502880, Note_off_c, 1, 61, 0
3, 502880, Note_on_c, 1, 55, 59
3, 502960, Note_off_c, 1, 55, 0
3, 502960, Note_on_c, 1, 52, 59
3, 503040, Note_off_c, 1, 52, 0
3, 503040, Note_on_c, 1, 50, 58
3, 503120, Note_off_c, 1, 50, 0
3, 503120, Note_on_c, 1, 52, 58
3, 503200, Note_off_c, 1, 52, 0
3, 503200, Note_on_c, 1, 55, 58
3, 503280, Note_off_c, 1, 55, 0
3, 503280, Note_on_c, 1, 61, 58
3, 503360, Note_off_c, 1, 61, 0
3, 503360, Note_on_c, 1, 55, 58
3, 503440, Note_off_c, 1, 55, 0
3, 503440, Note_on_c, 1, 52, 58
3, 503520, Note_off_c, 1, 52, 0
3, 503520, Note_on_c, 1, 50, 49
3, 503600, Note_off_c, 1, 50, 0
3, 503600, Note_on_c, 1, 54, 49
3, 503680, Note_off_c, 1, 54, 0
3, 503680, Note_on_c, 1, 57, 49
3, 503760, Note_off_c, 1, 57, 0
3, 503760, Note_on_c, 1, 62, 49
3, 503840, Note_off_c, 1, 62, 0
3, 503840, Note_on_c, 1, 57, 48
3, 503920, Note_off_c, 1, 57, 0
3, 503920, Note_on_c, 1, 54, 48
3, 504000, Note_off_c, 1, 54, 0
3, 504000, Note_on_c, 1, 50, 48
3, 504080, Note_off_c, 1, 50, 0
3, 504080, Note_on_c, 1, 54, 48
3, 504160, Note_off_c, 1, 54, 0
3, 504160, Note_on_c, 1, 57, 47
3, 504240, Note_off_c, 1, 57, 0
3, 504240, Note_on_c, 1, 62, 47
3, 504320, Note_off_c, 1, 62, 0
3, 504320, Note_on_c, 1, 57, 47
3, 504400, Note_off_c, 1, 57, 0
3, 504400, Note_on_c, 1, 54, 47
3, 504480, Note_off_c, 1, 54, 0
3, 504480, Note_on_c, 1, 50, 46
3, 504560, Note_off_c, 1, 50, 0
3, 504560, Note_on_c, 1, 52, 46
3, 504640, Note_off_c, 1, 52, 0
3, 504640, Note_on_c, 1, 55, 46
3, 504720, Note_off_c, 1, 55, 0
3, 504720, Note_on_c, 1, 61, 46
3, 504800, Note_off_c, 1, 61, 0
3, 504800, Note_on_c, 1, 55, 45
3, 504880, Note_off_c, 1, 55, 0
3, 504880, Note_on_c, 1, 52, 45
3, 504960, Note_off_c, 1, 52, 0
3, 504960, Note_on_c, 1, 50, 45
3, 505040, Note_off_c, 1, 50, 0
3, 505040, Note_on_c, 1, 52, 45
3, 505120, Note_off_c, 1, 52, 0
3, 505120, Note_on_c, 1, 55, 44
3, 505200, Note_off_c, 1, 55, 0
3, 505200, Note_on_c, 1, 61, 44
3, 505280, Note_off_c, 1, 61, 0
3, 505280, Note_on_c, 1, 55, 44
3, 505360, Note_off_c, 1, 55, 0
3, 505360, Note_on_c, 1, 52, 44
3, 505440, Note_off_c, 1, 52, 0
3, 505440, Note_on_c, 1, 50, 60
3, 505920, Note_off_c, 1, 50, 0
3, 506160, Note_on_c, 1, 64, 62
3, 506160, Note_on_c, 1, 67, 62
3, 506160, Note_on_c, 1, 57, 62
3, 506350, Note_off_c, 1, 57, 0
3, 506350, Note_off_c, 1, 67, 0
3, 506350, Note_off_c, 1, 64, 0
3, 506400, Note_on_c, 1, 62, 65
3, 506400, Note_on_c, 1, 65, 65
3, 506880, Note_off_c, 1, 65, 0
3, 506880, Note_off_c, 1, 62, 0
3, 507120, Note_on_c, 1, 67, 68
3, 507120, Note_on_c, 1, 60, 68
3, 507120, Note_on_c, 1, 70, 68
3, 507310, Note_off_c, 1, 70, 0
3, 507310, Note_off_c, 1, 60, 0
3, 507310, Note_off_c, 1, 67, 0
3, 507360, Note_on_c, 1, 65, 70
3, 507360, Note_on_c, 1, 69, 70
3, 507840, Note_off_c, 1, 69, 0
3, 507840, Note_off_c, 1, 65, 0
3, 508080, Note_on_c, 1, 67, 73
3, 508080, Note_on_c, 1, 70, 73
3, 508080, Note_on_c, 1, 60, 73
3, 508270, Note_off_c, 1, 60, 0
3, 508270, Note_off_c, 1, 70, 0
3, 508270, Note_off_c, 1, 67, 0
3, 508320, Note_on_c, 1, 69, 75
3, 508320, Note_on_c, 1, 65, 75
3, 508800, Note_off_c, 1, 65, 0
3, 508800, Note_off_c, 1, 69, 0
3, 509040, Note_on_c, 1, 71, 79
3, 509040, Note_on_c, 1, 74, 79
3, 509040, Note_on_c, 1, 64, 79
3, 509230, Note_off_c, 1, 64, 0
3, 509230, Note_off_c, 1, 74, 0
3, 509230, Note_off_c, 1, 71, 0
3, 509280, Note_on_c, 1, 69, 80
3, 509360, Note_off_c, 1, 69, 0
3, 509360, Note_on_c, 1, 64, 80
3, 509440, Note_off_c, 1, 64, 0
3, 509440, Note_on_c, 1, 72, 81
3, 509520, Note_off_c, 1, 72, 0
3, 509520, Note_on_c, 1, 71, 81
3, 509600, Note_off_c, 1, 71, 0
3, 509600, Note_on_c, 1, 68, 81
3, 509680, Note_off_c, 1, 68, 0
3, 509680, Note_on_c, 1, 74, 82
3, 509760, Note_off_c, 1, 74, 0
3, 509760, Note_on_c, 1, 72, 82
3, 509840, Note_off_c, 1, 72, 0
3, 509840, Note_on_c, 1, 69, 83
3, 509920, Note_off_c, 1, 69, 0
3, 509920, Note_on_c, 1, 76, 83
3, 510000, Note_off_c, 1, 76, 0
3, 510000, Note_on_c, 1, 77, 84
3, 510000, Note_on_c, 1, 74, 84
3, 510080, Note_off_c, 1, 74, 0
3, 510080, Note_on_c, 1, 71, 84
3, 510160, Note_off_c, 1, 71, 0
3, 510160, Note_on_c, 1, 68, 84
3, 510190, Note_off_c, 1, 77, 0
3, 510240, Note_off_c, 1, 68, 0
3, 510240, Note_on_c, 1, 76, 85
3, 510240, Note_on_c, 1, 69, 85
3, 510320, Note_off_c, 1, 69, 0
3, 510320, Note_on_c, 1, 73, 85
3, 510400, Note_off_c, 1, 73, 0
3, 510400, Note_on_c, 1, 69, 86
3, 510430, Note_off_c, 1, 76, 0
3, 510480, Note_off_c, 1, 69, 0
3, 510480, Note_on_c, 1, 75, 86
3, 510480, Note_on_c, 1, 66, 86
3, 510560, Note_off_c, 1, 66, 0
3, 510560, Note_on_c, 1, 69, 87
3, 510640, Note_off_c, 1, 69, 0
3, 510640, Note_on_c, 1, 66, 87
3, 510670, Note_off_c, 1, 75, 0
3, 510720, Note_off_c, 1, 66, 0
3, 510720, Note_on_c, 1, 74, 87
3, 510720, Note_on_c, 1, 67, 87
3, 510800, Note_off_c, 1, 67, 0
3, 510800, Note_on_c, 1, 71, 88
3, 510880, Note_off_c, 1, 71, 0
3, 510880, Note_on_c, 1, 67, 88
3, 510910, Note_off_c, 1, 74, 0
3, 510960, Note_off_c, 1, 67, 0
3, 510960, Note_on_c, 1, 73, 89
3, 510960, Note_on_c, 1, 64, 89
3, 511040, Note_off_c, 1, 64, 0
3, 511040, Note_on_c, 1, 67, 89
3, 511120, Note_off_c, 1, 67, 0
3, 511120, Note_on_c, 1, 64, 89
3, 511150, Note_off_c, 1, 73, 0
3, 511200, Note_off_c, 1, 64, 0
3, 511200, Note_on_c, 1, 72, 90
3, 511200, Note_on_c, 1, 65, 90
3, 511280, Note_off_c, 1, 65, 0
3, 511280, Note_on_c, 1, 69, 90
3, 511360, Note_off_c, 1, 69, 0
3, 511360, Note_on_c, 1, 65, 91
3, 511390, Note_off_c, 1, 72, 0
3, 511440, Note_off_c, 1, 65, 0
3, 511440, Note_on_c, 1, 70, 91
3, 511440, Note_on_c, 1, 61, 91
3, 511520, Note_off_c, 1, 61, 0
3, 511520, Note_on_c, 1, 64, 92
3, 511600, Note_off_c, 1, 64, 0
3, 511600, Note_on_c, 1, 61, 92
3, 511630, Note_off_c, 1, 70, 0
3, 511680, Note_off_c, 1, 61, 0
3, 511680, Note_on_c, 1, 69, 92
3, 511680, Note_on_c, 1, 62, 92
3, 511760, Note_off_c, 1, 62, 0
3, 511760, Note_on_c, 1, 65, 93
3, 511840, Note_off_c, 1, 65, 0
3, 511840, Note_on_c, 1, 62, 93
3, 511870, Note_off_c, 1, 69, 0
3, 511920, Note_off_c, 1, 62, 0
3, 511920, Note_on_c, 1, 66, 93
3, 511920, Note_on_c, 1, 57, 94
3, 512000, Note_off_c, 1, 57, 0
3, 512000, Note_on_c, 1, 60, 94
3, 512080, Note_off_c, 1, 60, 0
3, 512080, Note_on_c, 1, 57, 95
3, 512110, Note_off_c, 1, 66, 0
3, 512160, Note_off_c, 1, 57, 0
3, 512160, Note_on_c, 1, 58, 98
3, 512880, Note_off_c, 1, 58, 0
3, 512880, Note_on_c, 1, 59, 95
3, 513120, Note_off_c, 1, 59, 0
3, 513120, Note_on_c, 1, 36, 95
3, 513200, Note_off_c, 1, 36, 0
3, 513200, Note_on_c, 1, 40, 95
3, 513280, Note_off_c, 1, 40, 0
3, 513280, Note_on_c, 1, 43, 95
3, 513360, Note_off_c, 1, 43, 0
3, 513360, Note_on_c, 1, 48, 95
3, 513440, Note_off_c, 1, 48, 0
3, 513440, Note_on_c, 1, 52, 94
3, 513520, Note_off_c, 1, 52, 0
3, 513520, Note_on_c, 1, 55, 94
3, 513600, Note_off_c, 1, 55, 0
3, 513600, Note_on_c, 1, 77, 98
3, 513600, Note_on_c, 1, 72, 98
3, 513600, Note_on_c, 1, 41, 94
3, 513680, Note_off_c, 1, 41, 0
3, 513680, Note_on_c, 1, 45, 94
3, 513760, Note_off_c, 1, 45, 0
3, 513760, Note_on_c, 1, 48, 94
3, 513790, Note_off_c, 1, 72, 0
3, 513790, Note_off_c, 1, 77, 0
3, 513840, Note_off_c, 1, 48, 0
3, 513840, Note_on_c, 1, 53, 94
3, 513920, Note_off_c, 1, 53, 0
3, 513920, Note_on_c, 1, 57, 94
3, 514000, Note_off_c, 1, 57, 0
3, 514000, Note_on_c, 1, 60, 94
3, 514080, Note_off_c, 1, 60, 0
3, 514080, Note_on_c, 1, 48, 93
3, 514080, Note_on_c, 1, 52, 93
3, 514320, Note_off_c, 1, 52, 0
3, 514320, Note_off_c, 1, 48, 0
3, 514560, Note_on_c, 1, 48, 93
3, 514560, Note_on_c, 1, 53, 93
3, 514800, Note_off_c, 1, 53, 0
3, 514800, Note_off_c, 1, 48, 0
3, 515040, Note_on_c, 1, 52, 92
3, 515040, Note_on_c, 1, 48, 92
3, 515280, Note_off_c, 1, 48, 0
3, 515280, Note_off_c, 1, 52, 0
3, 517200, Note_on_c, 1, 70, 63
3, 517320, Note_off_c, 1, 70, 0
3, 517320, Note_on_c, 1, 62, 61
3, 517440, Note_off_c, 1, 62, 0
3, 517440, Note_on_c, 1, 65, 60
3, 517680, Note_off_c, 1, 65, 0
3, 517680, Note_on_c, 1, 64, 57
3, 517920, Note_off_c, 1, 64, 0
3, 519120, Note_on_c, 1, 72, 69
3, 519240, Note_off_c, 1, 72, 0
3, 519240, Note_on_c, 1, 64, 68
3, 519360, Note_off_c, 1, 64, 0
3, 519360, Note_on_c, 1, 67, 67
3, 519600, Note_off_c, 1, 67, 0
3, 519600, Note_on_c, 1, 66, 65
3, 519840, Note_off_c, 1, 66, 0
3, 519840, Note_on_c, 1, 55, 79
3, 520200, Note_off_c, 1, 55, 0
3, 520200, Note_on_c, 1, 57, 78
3, 520260, Note_off_c, 1, 57, 0
3, 520260, Note_on_c, 1, 55, 77
3, 520320, Note_off_c, 1, 55, 0
3, 520320, Note_on_c, 1, 54, 77
3, 520475, Note_off_c, 1, 54, 0
3, 520560, Note_on_c, 1, 55, 76
3, 520715, Note_off_c, 1, 55, 0
3, 520800, Note_on_c, 1, 56, 77
3, 521040, Note_off_c, 1, 56, 0
3, 521040, Note_on_c, 1, 57, 74
3, 521195, Note_off_c, 1, 57, 0
3, 521280, Note_on_c, 1, 57, 72
3, 521520, Note_off_c, 1, 57, 0
3, 521760, Note_on_c, 1, 57, 82
3, 522120, Note_off_c, 1, 57, 0
3, 522120, Note_on_c, 1, 58, 82
3, 522180, Note_off_c, 1, 58, 0
3, 522180, Note_on_c, 1, 57, 82
3, 522240, Note_off_c, 1, 57, 0
3, 522240, Note_on_c, 1, 56, 82
3, 522395, Note_off_c, 1, 56, 0
3, 522480, Note_on_c, 1, 57, 82
3, 522635, Note_off_c, 1, 57, 0
3, 522720, Note_on_c, 1, 58, 85
3, 522960, Note_off_c, 1, 58, 0
3, 522960, Note_on_c, 1, 59, 82
3, 523115, Note_off_c, 1, 59, 0
3, 523200, Note_on_c, 1, 59, 80
3, 523440, Note_off_c, 1, 59, 0
3, 524640, Note_on_c, 1, 62, 59
3, 525000, Note_off_c, 1, 62, 0
3, 525000, Note_on_c, 1, 64, 58
3, 525060, Note_off_c, 1, 64, 0
3, 525060, Note_on_c, 1, 62, 57
3, 525120, Note_off_c, 1, 62, 0
3, 525120, Note_on_c, 1, 61, 57
3, 525360, Note_off_c, 1, 61, 0
3, 525360, Note_on_c, 1, 62, 56
3, 525600, Note_off_c, 1, 62, 0
3, 525600, Note_on_c, 1, 63, 57
3, 525840, Note_off_c, 1, 63, 0
3, 525840, Note_on_c, 1, 64, 55
3, 526080, Note_off_c, 1, 64, 0
3, 526080, Note_on_c, 1, 64, 53
3, 526320, Note_off_c, 1, 64, 0
3, 526560, Note_on_c, 1, 65, 63
3, 526920, Note_off_c, 1, 65, 0
3, 526920, Note_on_c, 1, 66, 62
3, 526980, Note_off_c, 1, 66, 0
3, 526980, Note_on_c, 1, 65, 61
3, 527040, Note_off_c, 1, 65, 0
3, 527040, Note_on_c, 1, 63, 61
3, 527280, Note_off_c, 1, 63, 0
3, 527280, Note_on_c, 1, 65, 60
3, 527520, Note_off_c, 1, 65, 0
3, 527520, Note_on_c, 1, 65, 65
3, 527760, Note_off_c, 1, 65, 0
3, 527760, Note_on_c, 1, 66, 62
3, 528000, Note_off_c, 1, 66, 0
3, 528000, Note_on_c, 1, 66, 60
3, 528240, Note_off_c, 1, 66, 0
3, 528480, Note_on_c, 1, 59, 81
3, 528840, Note_off_c, 1, 59, 0
3, 528840, Note_on_c, 1, 61, 78
3, 528900, Note_off_c, 1, 61, 0
3, 528900, Note_on_c, 1, 59, 78
3, 528960, Note_off_c, 1, 59, 0
3, 528960, Note_on_c, 1, 58, 78
3, 529115, Note_off_c, 1, 58, 0
3, 529200, Note_on_c, 1, 59, 76
3, 529355, Note_off_c, 1, 59, 0
3, 529440, Note_on_c, 1, 52, 80
3, 529520, Note_off_c, 1, 52, 0
3, 529520, Note_on_c, 1, 40, 81
3, 529600, Note_off_c, 1, 40, 0
3, 529600, Note_on_c, 1, 43, 81
3, 529680, Note_off_c, 1, 43, 0
3, 529680, Note_on_c, 1, 47, 81
3, 529760, Note_off_c, 1, 47, 0
3, 529760, Note_on_c, 1, 52, 81
3, 529840, Note_off_c, 1, 52, 0
3, 529840, Note_on_c, 1, 55, 81
3, 529920, Note_off_c, 1, 55, 0
3, 529920, Note_on_c, 1, 59, 82
3, 530000, Note_off_c, 1, 59, 0
3, 530000, Note_on_c, 1, 55, 82
3, 530080, Note_off_c, 1, 55, 0
3, 530080, Note_on_c, 1, 52, 82
3, 530160, Note_off_c, 1, 52, 0
3, 530160, Note_on_c, 1, 55, 82
3, 530240, Note_off_c, 1, 55, 0
3, 530240, Note_on_c, 1, 52, 83
3, 530320, Note_off_c, 1, 52, 0
3, 530320, Note_on_c, 1, 47, 83
3, 530400, Note_off_c, 1, 47, 0
3, 530400, Note_on_c, 1, 57, 83
3, 530760, Note_off_c, 1, 57, 0
3, 530760, Note_on_c, 1, 59, 82
3, 530820, Note_off_c, 1, 59, 0
3, 530820, Note_on_c, 1, 57, 82
3, 530880, Note_off_c, 1, 57, 0
3, 530880, Note_on_c, 1, 56, 81
3, 531035, Note_off_c, 1, 56, 0
3, 531120, Note_on_c, 1, 57, 80
3, 531275, Note_off_c, 1, 57, 0
3, 531360, Note_on_c, 1, 50, 86
3, 531440, Note_off_c, 1, 50, 0
3, 531440, Note_on_c, 1, 38, 86
3, 531520, Note_off_c, 1, 38, 0
3, 531520, Note_on_c, 1, 42, 86
3, 531600, Note_off_c, 1, 42, 0
3, 531600, Note_on_c, 1, 45, 86
3, 531680, Note_off_c, 1, 45, 0
3, 531680, Note_on_c, 1, 50, 86
3, 531760, Note_off_c, 1, 50, 0
3, 531760, Note_on_c, 1, 54, 87
3, 531840, Note_off_c, 1, 54, 0
3, 531840, Note_on_c, 1, 57, 87
3, 531920, Note_off_c, 1, 57, 0
3, 531920, Note_on_c, 1, 54, 87
3, 532000, Note_off_c, 1, 54, 0
3, 532000, Note_on_c, 1, 50, 87
3, 532080, Note_off_c, 1, 50, 0
3, 532080, Note_on_c, 1, 54, 88
3, 532160, Note_off_c, 1, 54, 0
3, 532160, Note_on_c, 1, 50, 88
3, 532240, Note_off_c, 1, 50, 0
3, 532240, Note_on_c, 1, 45, 88
3, 532320, Note_off_c, 1, 45, 0
3, 532320, Note_on_c, 1, 55, 88
3, 534000, Note_on_c, 1, 56, 93
3, 534020, Note_off_c, 1, 55, 0
3, 534240, Note_off_c, 1, 56, 0
3, 534240, Note_on_c, 1, 33, 94
3, 534320, Note_off_c, 1, 33, 0
3, 534320, Note_on_c, 1, 37, 94
3, 534400, Note_off_c, 1, 37, 0
3, 534400, Note_on_c, 1, 40, 94
3, 534480, Note_off_c, 1, 40, 0
3, 534480, Note_on_c, 1, 45, 94
3, 534560, Note_off_c, 1, 45, 0
3, 534560, Note_on_c, 1, 49, 94
3, 534640, Note_off_c, 1, 49, 0
3, 534640, Note_on_c, 1, 52, 94
3, 534720, Note_off_c, 1, 52, 0
3, 534720, Note_on_c, 1, 74, 88
3, 534720, Note_on_c, 1, 69, 88
3, 534720, Note_on_c, 1, 38, 94
3, 534800, Note_off_c, 1, 38, 0
3, 534800, Note_on_c, 1, 42, 94
3, 534880, Note_off_c, 1, 42, 0
3, 534880, Note_on_c, 1, 45, 94
3, 534960, Note_off_c, 1, 45, 0
3, 534960, Note_off_c, 1, 69, 0
3, 534960, Note_off_c, 1, 74, 0
3, 534960, Note_on_c, 1, 50, 94
3, 535040, Note_off_c, 1, 50, 0
3, 535040, Note_on_c, 1, 54, 94
3, 535120, Note_off_c, 1, 54, 0
3, 535120, Note_on_c, 1, 57, 94
3, 535200, Note_off_c, 1, 57, 0
3, 535200, Note_on_c, 1, 45, 94
3, 535200, Note_on_c, 1, 49, 94
3, 535440, Note_off_c, 1, 49, 0
3, 535440, Note_off_c, 1, 45, 0
3, 535680, Note_on_c, 1, 45, 94
3, 535680, Note_on_c, 1, 50, 94
3, 535920, Note_off_c, 1, 50, 0
3, 535920, Note_off_c, 1, 45, 0
3, 536160, Note_on_c, 1, 45, 94
3, 536160, Note_on_c, 1, 49, 94
3, 536640, Note_off_c, 1, 49, 0
3, 536640, Note_off_c, 1, 45, 0
3, 537120, Note_on_c, 1, 62, 59
3, 537480, Note_off_c, 1, 62, 0
3, 537480, Note_on_c, 1, 64, 58
3, 537540, Note_off_c, 1, 64, 0
3, 537540, Note_on_c, 1, 62, 58
3, 537600, Note_off_c, 1, 62, 0
3, 537600, Note_on_c, 1, 61, 57
3, 537755, Note_off_c, 1, 61, 0
3, 537840, Note_on_c, 1, 62, 56
3, 537995, Note_off_c, 1, 62, 0
3, 538080, Note_on_c, 1, 63, 57
3, 538320, Note_on_c, 1, 64, 55
3, 538340, Note_off_c, 1, 63, 0
3, 538475, Note_off_c, 1, 64, 0
3, 538560, Note_on_c, 1, 64, 53
3, 538800, Note_off_c, 1, 64, 0
3, 539040, Note_on_c, 1, 64, 63
3, 539400, Note_off_c, 1, 64, 0
3, 539400, Note_on_c, 1, 66, 63
3, 539460, Note_off_c, 1, 66, 0
3, 539460, Note_on_c, 1, 64, 63
3, 539520, Note_off_c, 1, 64, 0
3, 539520, Note_on_c, 1, 62, 62
3, 539675, Note_off_c, 1, 62, 0
3, 539760, Note_on_c, 1, 64, 62
3, 539915, Note_off_c, 1, 64, 0
3, 540000, Note_on_c, 1, 65, 63
3, 540240, Note_off_c, 1, 65, 0
3, 540240, Note_on_c, 1, 66, 60
3, 540395, Note_off_c, 1, 66, 0
3, 540480, Note_on_c, 1, 66, 57
3, 540720, Note_off_c, 1, 66, 0
3, 541200, Note_on_c, 1, 67, 69
3, 541200, Note_on_c, 1, 71, 69
3, 541440, Note_off_c, 1, 71, 0
3, 541440, Note_off_c, 1, 67, 0
3, 541440, Note_on_c, 1, 66, 68
3, 541440, Note_on_c, 1, 69, 68
3, 541680, Note_off_c, 1, 69, 0
3, 541680, Note_off_c, 1, 66, 0
3, 541680, Note_on_c, 1, 67, 67
3, 541680, Note_on_c, 1, 64, 67
3, 541920, Note_off_c, 1, 64, 0
3, 541920, Note_off_c, 1, 67, 0
3, 541920, Note_on_c, 1, 69, 67
3, 541920, Note_on_c, 1, 63, 67
3, 542400, Note_off_c, 1, 63, 0
3, 542400, Note_off_c, 1, 69, 0
3, 542400, Note_on_c, 1, 64, 65
3, 542400, Note_on_c, 1, 67, 65
3, 542880, Note_off_c, 1, 64, 0
3, 542880, Note_on_c, 1, 61, 63
3, 543360, Note_off_c, 1, 61, 0
3, 543360, Note_off_c, 1, 67, 0
3, 543360, Note_on_c, 1, 62, 61
3, 543360, Note_on_c, 1, 66, 61
3, 543840, Note_off_c, 1, 62, 0
3, 543840, Note_on_c, 1, 59, 59
3, 544080, Note_off_c, 1, 66, 0
3, 544080, Note_on_c, 1, 65, 58
3, 544320, Note_off_c, 1, 65, 0
3, 544320, Note_off_c, 1, 59, 0
3, 544320, Note_on_c, 1, 64, 57
3, 544320, Note_on_c, 1, 58, 57
3, 544560, Note_off_c, 1, 64, 0
3, 544560, Note_on_c, 1, 62, 56
3, 544800, Note_off_c, 1, 62, 0
3, 544800, Note_off_c, 1, 58, 0
3, 544800, Note_on_c, 1, 61, 56
3, 544800, Note_on_c, 1, 57, 56
3, 545280, Note_off_c, 1, 57, 0
3, 545280, Note_off_c, 1, 61, 0
3, 545760, Note_on_c, 1, 45, 69
3, 545760, Note_on_c, 1, 57, 69
3, 546120, Note_off_c, 1, 57, 0
3, 546120, Note_on_c, 1, 56, 68
3, 546180, Note_off_c, 1, 56, 0
3, 546180, Note_on_c, 1, 57, 68
3, 546240, Note_off_c, 1, 57, 0
3, 546240, Note_on_c, 1, 59, 68
3, 546395, Note_off_c, 1, 59, 0
3, 546480, Note_on_c, 1, 57, 67
3, 546635, Note_off_c, 1, 57, 0
3, 546720, Note_off_c, 1, 45, 0
3, 546720, Note_on_c, 1, 45, 65
3, 546720, Note_on_c, 1, 57, 65
3, 546960, Note_off_c, 1, 57, 0
3, 546960, Note_on_c, 1, 55, 62
3, 547115, Note_off_c, 1, 55, 0
3, 547200, Note_on_c, 1, 55, 60
3, 547415, Note_off_c, 1, 55, 0
3, 547680, Note_off_c, 1, 45, 0
3, 547680, Note_on_c, 1, 45, 71
3, 547680, Note_on_c, 1, 54, 71
3, 548040, Note_off_c, 1, 54, 0
3, 548040, Note_on_c, 1, 52, 71
3, 548100, Note_off_c, 1, 52, 0
3, 548100, Note_on_c, 1, 54, 71
3, 548160, Note_off_c, 1, 54, 0
3, 548160, Note_on_c, 1, 55, 71
3, 548315, Note_off_c, 1, 55, 0
3, 548400, Note_on_c, 1, 54, 70
3, 548555, Note_off_c, 1, 54, 0
3, 548640, Note_off_c, 1, 45, 0
3, 548640, Note_on_c, 1, 45, 73
3, 548640, Note_on_c, 1, 54, 73
3, 548880, Note_off_c, 1, 54, 0
3, 548880, Note_on_c, 1, 52, 69
3, 549035, Note_off_c, 1, 52, 0
3, 549120, Note_on_c, 1, 52, 66
3, 549275, Note_off_c, 1, 52, 0
3, 549600, Note_off_c, 1, 45, 0
3, 549600, Note_on_c, 1, 62, 77
3, 549600, Note_on_c, 1, 57, 77
3, 549960, Note_off_c, 1, 62, 0
3, 549960, Note_on_c, 1, 64, 76
3, 550020, Note_off_c, 1, 64, 0
3, 550020, Note_on_c, 1, 62, 76
3, 550080, Note_off_c, 1, 62, 0
3, 550080, Note_on_c, 1, 61, 75
3, 550235, Note_off_c, 1, 61, 0
3, 550320, Note_on_c, 1, 63, 75
3, 550475, Note_off_c, 1, 63, 0
3, 550560, Note_off_c, 1, 57, 0
3, 550560, Note_on_c, 1, 64, 82
3, 550560, Note_on_c, 1, 57, 82
3, 551040, Note_off_c, 1, 57, 0
3, 551040, Note_off_c, 1, 64, 0
3, 552480, Note_on_c, 1, 64, 95
3, 552635, Note_off_c, 1, 64, 0
3, 552720, Note_on_c, 1, 62, 94
3, 552875, Note_off_c, 1, 62, 0
3, 552960, Note_on_c, 1, 61, 92
3, 553115, Note_off_c, 1, 61, 0
3, 553200, Note_on_c, 1, 59, 91
3, 553355, Note_off_c, 1, 59, 0
3, 553440, Note_on_c, 1, 57, 90
3, 553595, Note_off_c, 1, 57, 0
3, 553680, Note_on_c, 1, 55, 89
3, 553835, Note_off_c, 1, 55, 0
3, 553920, Note_on_c, 1, 54, 87
3, 554075, Note_off_c, 1, 54, 0
3, 554160, Note_on_c, 1, 52, 86
3, 554315, Note_off_c, 1, 52, 0
3, 554400, Note_on_c, 1, 50, 85
3, 554590, Note_off_c, 1, 50, 0
3, 554880, Note_on_c, 1, 69, 83
3, 554880, Note_on_c, 1, 67, 83
3, 555070, Note_off_c, 1, 67, 0
3, 555070, Note_off_c, 1, 69, 0
3, 555360, Note_on_c, 1, 69, 82
3, 555360, Note_on_c, 1, 66, 82
3, 555550, Note_off_c, 1, 66, 0
3, 555550, Note_off_c, 1, 69, 0
3, 555840, Note_on_c, 1, 69, 81
3, 555840, Note_on_c, 1, 67, 81
3, 556030, Note_off_c, 1, 67, 0
3, 556030, Note_off_c, 1, 69, 0
3, 556320, Note_on_c, 1, 69, 80
3, 556320, Note_on_c, 1, 66, 80
3, 556510, Note_off_c, 1, 66, 0
3, 556510, Note_off_c, 1, 69, 0
3, 556560, Note_on_c, 1, 66, 85
3, 556625, Note_off_c, 1, 66, 0
3, 556640, Note_on_c, 1, 69, 85
3, 556705, Note_off_c, 1, 69, 0
3, 556720, Note_on_c, 1, 66, 84
3, 556785, Note_off_c, 1, 66, 0
3, 556800, Note_on_c, 1, 63, 84
3, 556865, Note_off_c, 1, 63, 0
3, 556880, Note_on_c, 1, 66, 84
3, 556945, Note_off_c, 1, 66, 0
3, 556960, Note_on_c, 1, 63, 83
3, 557025, Note_off_c, 1, 63, 0
3, 557040, Note_on_c, 1, 64, 83
3, 557105, Note_off_c, 1, 64, 0
3, 557120, Note_on_c, 1, 67, 83
3, 557185, Note_off_c, 1, 67, 0
3, 557200, Note_on_c, 1, 64, 82
3, 557265, Note_off_c, 1, 64, 0
3, 557280, Note_on_c, 1, 61, 82
3, 557345, Note_off_c, 1, 61, 0
3, 557360, Note_on_c, 1, 64, 81
3, 557425, Note_off_c, 1, 64, 0
3, 557440, Note_on_c, 1, 61, 81
3, 557505, Note_off_c, 1, 61, 0
3, 557520, Note_on_c, 1, 62, 81
3, 557585, Note_off_c, 1, 62, 0
3, 557600, Note_on_c, 1, 66, 80
3, 557665, Note_off_c, 1, 66, 0
3, 557680, Note_on_c, 1, 62, 80
3, 557745, Note_off_c, 1, 62, 0
3, 557760, Note_on_c, 1, 59, 80
3, 557825, Note_off_c, 1, 59, 0
3, 557840, Note_on_c, 1, 62, 79
3, 557905, Note_off_c, 1, 62, 0
3, 557920, Note_on_c, 1, 59, 79
3, 557985, Note_off_c, 1, 59, 0
3, 558000, Note_on_c, 1, 61, 79
3, 558065, Note_off_c, 1, 61, 0
3, 558080, Note_on_c, 1, 64, 78
3, 558145, Note_off_c, 1, 64, 0
3, 558160, Note_on_c, 1, 61, 78
3, 558225, Note_off_c, 1, 61, 0
3, 558240, Note_on_c, 1, 58, 77
3, 558305, Note_off_c, 1, 58, 0
3, 558320, Note_on_c, 1, 61, 77
3, 558385, Note_off_c, 1, 61, 0
3, 558400, Note_on_c, 1, 58, 77
3, 558465, Note_off_c, 1, 58, 0
3, 558480, Note_on_c, 1, 59, 76
3, 558545, Note_off_c, 1, 59, 0
3, 558560, Note_on_c, 1, 62, 76
3, 558625, Note_off_c, 1, 62, 0
3, 558640, Note_on_c, 1, 59, 76
3, 558705, Note_off_c, 1, 59, 0
3, 558720, Note_on_c, 1, 56, 75
3, 558785, Note_off_c, 1, 56, 0
3, 558800, Note_on_c, 1, 59, 75
3, 558865, Note_off_c, 1, 59, 0
3, 558880, Note_on_c, 1, 56, 74
3, 558945, Note_off_c, 1, 56, 0
3, 558960, Note_on_c, 1, 57, 74
3, 559025, Note_off_c, 1, 57, 0
3, 559040, Note_on_c, 1, 59, 74
3, 559105, Note_off_c, 1, 59, 0
3, 559120, Note_on_c, 1, 57, 73
3, 559185, Note_off_c, 1, 57, 0
3, 559200, Note_on_c, 1, 54, 73
3, 559390, Note_off_c, 1, 54, 0
3, 559440, Note_on_c, 1, 55, 72
3, 559630, Note_off_c, 1, 55, 0
3, 559680, Note_on_c, 1, 57, 71
3, 559870, Note_off_c, 1, 57, 0
3, 559920, Note_on_c, 1, 45, 70
3, 560110, Note_off_c, 1, 45, 0
3, 560160, Note_on_c, 1, 50, 69
3, 560350, Note_off_c, 1, 50, 0
3, 560640, Note_on_c, 1, 69, 67
3, 560640, Note_on_c, 1, 62, 67
3, 560880, Note_off_c, 1, 62, 0
3, 560880, Note_off_c, 1, 69, 0
3, 560880, Note_on_c, 1, 70, 66
3, 560880, Note_on_c, 1, 61, 66
3, 561120, Note_off_c, 1, 61, 0
3, 561120, Note_off_c, 1, 70, 0
3, 561120, Note_on_c, 1, 71, 64
3, 561120, Note_on_c, 1, 59, 64
3, 561360, Note_off_c, 1, 59, 0
3, 561360, Note_off_c, 1, 71, 0
3, 561360, Note_on_c, 1, 66, 63
3, 561360, Note_on_c, 1, 57, 63
3, 561600, Note_off_c, 1, 57, 0
3, 561600, Note_off_c, 1, 66, 0
3, 561600, Note_on_c, 1, 67, 61
3, 561600, Note_on_c, 1, 55, 61
3, 561840, Note_off_c, 1, 55, 0
3, 561840, Note_off_c, 1, 67, 0
3, 561840, Note_on_c, 1, 62, 60
3, 561840, Note_on_c, 1, 54, 60
3, 562080, Note_off_c, 1, 54, 0
3, 562080, Note_off_c, 1, 62, 0
3, 562080, Note_on_c, 1, 61, 58
3, 562080, Note_on_c, 1, 52, 58
3, 562320, Note_off_c, 1, 52, 0
3, 562320, Note_off_c, 1, 61, 0
3, 562320, Note_on_c, 1, 50, 57
3, 562320, Note_on_c, 1, 62, 57
3, 562560, Note_off_c, 1, 62, 0
3, 562560, Note_off_c, 1, 50, 0
3, 562800, Note_on_c, 1, 57, 65
3, 562800, Note_on_c, 1, 54, 65
3, 563040, Note_off_c, 1, 54, 0
3, 563040, Note_off_c, 1, 57, 0
3, 563040, Note_on_c, 1, 62, 64
3, 563040, Note_on_c, 1, 59, 64
3, 563280, Note_off_c, 1, 59, 0
3, 563280, Note_off_c, 1, 62, 0
3, 563280, Note_on_c, 1, 57, 62
3, 563280, Note_on_c, 1, 61, 62
3, 563520, Note_off_c, 1, 61, 0
3, 563520, Note_off_c, 1, 57, 0
3, 563520, Note_on_c, 1, 59, 61
3, 563520, Note_on_c, 1, 55, 61
3, 563760, Note_off_c, 1, 55, 0
3, 563760, Note_off_c, 1, 59, 0
3, 563760, Note_on_c, 1, 59, 59
3, 563760, Note_on_c, 1, 56, 59
3, 564000, Note_off_c, 1, 56, 0
3, 564000, Note_off_c, 1, 59, 0
3, 564000, Note_on_c, 1, 62, 58
3, 564000, Note_on_c, 1, 57, 58
3, 564240, Note_off_c, 1, 62, 0
3, 564240, Note_on_c, 1, 61, 56
3, 564480, Note_off_c, 1, 61, 0
3, 564480, Note_off_c, 1, 57, 0
3, 564480, Note_on_c, 1, 62, 62
3, 564480, Note_on_c, 1, 69, 62
3, 564720, Note_off_c, 1, 62, 0
3, 564720, Note_on_c, 1, 61, 61
3, 564960, Note_off_c, 1, 61, 0
3, 564960, Note_off_c, 1, 69, 0
3, 564960, Note_on_c, 1, 59, 60
3, 564960, Note_on_c, 1, 66, 60
3, 565200, Note_off_c, 1, 59, 0
3, 565200, Note_on_c, 1, 57, 60
3, 565440, Note_off_c, 1, 57, 0
3, 565440, Note_off_c, 1, 66, 0
3, 565440, Note_on_c, 1, 55, 59
3, 565440, Note_on_c, 1, 62, 59
3, 565680, Note_off_c, 1, 55, 0
3, 565680, Note_on_c, 1, 54, 58
3, 565920, Note_off_c, 1, 54, 0
3, 565920, Note_off_c, 1, 62, 0
3, 565920, Note_on_c, 1, 61, 57
3, 565920, Note_on_c, 1, 52, 57
3, 566160, Note_off_c, 1, 52, 0
3, 566160, Note_off_c, 1, 61, 0
3, 566160, Note_on_c, 1, 50, 57
3, 566160, Note_on_c, 1, 62, 57
3, 566400, Note_off_c, 1, 62, 0
3, 566400, Note_off_c, 1, 50, 0
3, 566640, Note_on_c, 1, 62, 61
3, 566640, Note_on_c, 1, 54, 61
3, 566880, Note_off_c, 1, 54, 0
3, 566880, Note_on_c, 1, 55, 59
3, 567120, Note_off_c, 1, 62, 0
3, 567120, Note_on_c, 1, 67, 57
3, 567360, Note_off_c, 1, 67, 0
3, 567360, Note_off_c, 1, 55, 0
3, 567360, Note_on_c, 1, 66, 56
3, 567360, Note_on_c, 1, 57, 56
3, 567600, Note_off_c, 1, 66, 0
3, 567600, Note_on_c, 1, 61, 54
3, 567840, Note_off_c, 1, 61, 0
3, 567840, Note_off_c, 1, 57, 0
3, 567840, Note_on_c, 1, 38, 72
3, 567920, Note_off_c, 1, 38, 0
3, 567920, Note_on_c, 1, 42, 72
3, 568000, Note_off_c, 1, 42, 0
3, 568000, Note_on_c, 1, 45, 73
3, 568080, Note_off_c, 1, 45, 0
3, 568080, Note_on_c, 1, 50, 73
3, 568160, Note_off_c, 1, 50, 0
3, 568160, Note_on_c, 1, 54, 74
3, 568240, Note_off_c, 1, 54, 0
3, 568240, Note_on_c, 1, 57, 74
3, 568320, Note_off_c, 1, 57, 0
3, 568320, Note_on_c, 1, 62, 74
3, 568560, Note_off_c, 1, 62, 0
3, 568800, Note_on_c, 1, 38, 77
3, 568880, Note_off_c, 1, 38, 0
3, 568880, Note_on_c, 1, 43, 77
3, 568960, Note_off_c, 1, 43, 0
3, 568960, Note_on_c, 1, 49, 78
3, 569040, Note_off_c, 1, 49, 0
3, 569040, Note_on_c, 1, 52, 78
3, 569120, Note_off_c, 1, 52, 0
3, 569120, Note_on_c, 1, 55, 79
3, 569200, Note_off_c, 1, 55, 0
3, 569200, Note_on_c, 1, 57, 79
3, 569280, Note_off_c, 1, 57, 0
3, 569280, Note_on_c, 1, 61, 79
3, 569520, Note_off_c, 1, 61, 0
3, 569760, Note_on_c, 1, 38, 82
3, 569840, Note_off_c, 1, 38, 0
3, 569840, Note_on_c, 1, 42, 82
3, 569920, Note_off_c, 1, 42, 0
3, 569920, Note_on_c, 1, 45, 83
3, 570000, Note_off_c, 1, 45, 0
3, 570000, Note_on_c, 1, 50, 83
3, 570080, Note_off_c, 1, 50, 0
3, 570080, Note_on_c, 1, 54, 83
3, 570160, Note_off_c, 1, 54, 0
3, 570160, Note_on_c, 1, 57, 84
3, 570240, Note_off_c, 1, 57, 0
3, 570240, Note_on_c, 1, 62, 84
3, 570480, Note_off_c, 1, 62, 0
3, 570720, Note_on_c, 1, 69, 86
3, 570720, Note_on_c, 1, 63, 86
3, 571200, Note_off_c, 1, 63, 0
3, 571200, Note_off_c, 1, 69, 0
3, 571200, Note_on_c, 1, 68, 84
3, 571200, Note_on_c, 1, 62, 84
3, 571680, Note_off_c, 1, 62, 0
3, 571680, Note_off_c, 1, 68, 0
3, 571680, Note_on_c, 1, 67, 82
3, 571680, Note_on_c, 1, 61, 82
3, 572160, Note_off_c, 1, 61, 0
3, 572160, Note_off_c, 1, 67, 0
3, 572160, Note_on_c, 1, 60, 79
3, 572160, Note_on_c, 1, 66, 79
3, 572640, Note_off_c, 1, 66, 0
3, 572640, Note_off_c, 1, 60, 0
3, 572640, Note_on_c, 1, 59, 77
3, 572640, Note_on_c, 1, 62, 77
3, 572880, Note_off_c, 1, 62, 0
3, 572880, Note_off_c, 1, 59, 0
3, 572880, Note_on_c, 1, 57, 75
3, 572880, Note_on_c, 1, 61, 75
3, 573120, Note_off_c, 1, 61, 0
3, 573120, Note_off_c, 1, 57, 0
3, 573120, Note_on_c, 1, 59, 74
3, 573120, Note_on_c, 1, 55, 74
3, 573360, Note_off_c, 1, 55, 0
3, 573360, Note_on_c, 1, 56, 73
3, 573600, Note_off_c, 1, 56, 0
3, 573600, Note_off_c, 1, 59, 0
3, 573600, Note_on_c, 1, 57, 73
3, 574080, Note_off_c, 1, 57, 0
3, 574560, Note_on_c, 1, 62, 76
3, 574560, Note_on_c, 1, 57, 76
3, 575040, Note_off_c, 1, 57, 0
3, 575040, Note_off_c, 1, 62, 0
3, 575520, Note_on_c, 1, 61, 81
3, 575520, Note_on_c, 1, 64, 81
3, 575520, Note_on_c, 1, 57, 81
3, 576000, Note_off_c, 1, 57, 0
3, 576000, Note_off_c, 1, 64, 0
3, 576000, Note_off_c, 1, 61, 0
3, 576480, Note_on_c, 1, 62, 86
3, 576480, Note_on_c, 1, 65, 86
3, 576480, Note_on_c, 1, 57, 86
3, 576960, Note_off_c, 1, 57, 0
3, 576960, Note_off_c, 1, 65, 0
3, 576960, Note_off_c, 1, 62, 0
3, 577520, Note_on_c, 1, 57, 91
3, 577600, Note_off_c, 1, 57, 0
3, 577600, Note_on_c, 1, 61, 92
3, 577680, Note_off_c, 1, 61, 0
3, 577680, Note_on_c, 1, 64, 92
3, 577760, Note_off_c, 1, 64, 0
3, 577760, Note_on_c, 1, 69, 92
3, 577840, Note_off_c, 1, 69, 0
3, 578000, Note_on_c, 1, 57, 94
3, 578080, Note_off_c, 1, 57, 0
3, 578080, Note_on_c, 1, 59, 94
3, 578160, Note_off_c, 1, 59, 0
3, 578160, Note_on_c, 1, 62, 94
3, 578240, Note_off_c, 1, 62, 0
3, 578240, Note_on_c, 1, 68, 95
3, 578320, Note_off_c, 1, 68, 0
3, 578480, Note_on_c, 1, 57, 96
3, 578560, Note_off_c, 1, 57, 0
3, 578560, Note_on_c, 1, 61, 96
3, 578640, Note_off_c, 1, 61, 0
3, 578640, Note_on_c, 1, 64, 97
3, 578720, Note_off_c, 1, 64, 0
3, 578720, Note_on_c, 1, 67, 97
3, 578800, Note_off_c, 1, 67, 0
3, 578960, Note_on_c, 1, 57, 98
3, 579040, Note_off_c, 1, 57, 0
3, 579040, Note_on_c, 1, 61, 99
3, 579120, Note_off_c, 1, 61, 0
3, 579120, Note_on_c, 1, 62, 99
3, 579200, Note_off_c, 1, 62, 0
3, 579200, Note_on_c, 1, 66, 100
3, 579280, Note_off_c, 1, 66, 0
3, 579360, Note_on_c, 1, 45, 101
3, 579360, Note_on_c, 1, 57, 101
3, 581280, Note_off_c, 1, 57, 0
3, 581280, Note_off_c, 1, 45, 0
3, 581520, Note_on_c, 1, 69, 53
3, 581520, Note_on_c, 1, 66, 53
3, 581710, Note_off_c, 1, 66, 0
3, 581710, Note_off_c, 1, 69, 0
3, 581760, Note_on_c, 1, 66, 51
3, 581760, Note_on_c, 1, 69, 51
3, 581950, Note_off_c, 1, 69, 0
3, 581950, Note_off_c, 1, 66, 0
3, 582000, Note_on_c, 1, 69, 49
3, 582000, Note_on_c, 1, 66, 49
3, 582190, Note_off_c, 1, 66, 0
3, 582190, Note_off_c, 1, 69, 0
3, 582480, Note_on_c, 1, 67, 55
3, 582480, Note_on_c, 1, 71, 55
3, 582670, Note_off_c, 1, 71, 0
3, 582670, Note_off_c, 1, 67, 0
3, 582720, Note_on_c, 1, 67, 53
3, 582720, Note_on_c, 1, 71, 53
3, 582910, Note_off_c, 1, 71, 0
3, 582910, Note_off_c, 1, 67, 0
3, 582960, Note_on_c, 1, 67, 52
3, 582960, Note_on_c, 1, 71, 52
3, 583150, Note_off_c, 1, 71, 0
3, 583150, Note_off_c, 1, 67, 0
3, 583440, Note_on_c, 1, 61, 58
3, 583440, Note_on_c, 1, 69, 58
3, 583630, Note_off_c, 1, 69, 0
3, 583630, Note_off_c, 1, 61, 0
3, 583680, Note_on_c, 1, 61, 57
3, 583680, Note_on_c, 1, 69, 57
3, 583870, Note_off_c, 1, 69, 0
3, 583870, Note_off_c, 1, 61, 0
3, 583920, Note_on_c, 1, 61, 55
3, 583920, Note_on_c, 1, 69, 55
3, 584110, Note_off_c, 1, 69, 0
3, 584110, Note_off_c, 1, 61, 0
3, 584400, Note_on_c, 1, 62, 59
3, 584400, Note_on_c, 1, 69, 59
3, 584590, Note_off_c, 1, 69, 0
3, 584590, Note_off_c, 1, 62, 0
3, 584640, Note_on_c, 1, 62, 57
3, 584640, Note_on_c, 1, 69, 57
3, 584830, Note_off_c, 1, 69, 0
3, 584830, Note_off_c, 1, 62, 0
3, 584880, Note_on_c, 1, 62, 56
3, 584880, Note_on_c, 1, 69, 56
3, 585070, Note_off_c, 1, 69, 0
3, 585070, Note_off_c, 1, 62, 0
3, 585120, Note_on_c, 1, 66, 63
3, 585120, Note_on_c, 1, 69, 63
3, 585360, Note_off_c, 1, 66, 0
3, 585360, Note_on_c, 1, 64, 62
3, 585600, Note_off_c, 1, 64, 0
3, 585600, Note_on_c, 1, 62, 61
3, 585840, Note_off_c, 1, 62, 0
3, 585840, Note_off_c, 1, 69, 0
3, 586080, Note_on_c, 1, 69, 61
3, 586080, Note_on_c, 1, 64, 61
3, 586320, Note_off_c, 1, 64, 0
3, 586320, Note_on_c, 1, 66, 57
3, 586560, Note_off_c, 1, 66, 0
3, 586560, Note_on_c, 1, 67, 54
3, 586800, Note_off_c, 1, 67, 0
3, 586800, Note_off_c, 1, 69, 0
3, 587040, Note_on_c, 1, 66, 55
3, 587040, Note_on_c, 1, 69, 55
3, 587280, Note_off_c, 1, 69, 0
3, 587280, Note_off_c, 1, 66, 0
3, 587520, Note_on_c, 1, 69, 53
3, 587520, Note_on_c, 1, 64, 53
3, 587760, Note_off_c, 1, 64, 0
3, 587760, Note_off_c, 1, 69, 0
3, 588000, Note_on_c, 1, 52, 51
3, 588000, Note_on_c, 1, 62, 51
3, 588480, Note_off_c, 1, 62, 0
3, 588480, Note_off_c, 1, 52, 0
3, 588480, Note_on_c, 1, 57, 49
3, 588480, Note_on_c, 1, 61, 49
3, 588720, Note_off_c, 1, 61, 0
3, 588720, Note_off_c, 1, 57, 0
3, 588960, Note_on_c, 1, 62, 72
3, 589040, Note_off_c, 1, 62, 0
3, 589040, Note_on_c, 1, 64, 72
3, 589120, Note_off_c, 1, 64, 0
3, 589120, Note_on_c, 1, 66, 72
3, 589200, Note_off_c, 1, 66, 0
3, 589200, Note_on_c, 1, 64, 72
3, 589280, Note_off_c, 1, 64, 0
3, 589280, Note_on_c, 1, 62, 73
3, 589360, Note_off_c, 1, 62, 0
3, 589360, Note_on_c, 1, 61, 73
3, 589440, Note_off_c, 1, 61, 0
3, 589440, Note_on_c, 1, 59, 73
3, 589520, Note_off_c, 1, 59, 0
3, 589520, Note_on_c, 1, 61, 74
3, 589600, Note_off_c, 1, 61, 0
3, 589600, Note_on_c, 1, 62, 74
3, 589680, Note_off_c, 1, 62, 0
3, 589680, Note_on_c, 1, 61, 74
3, 589760, Note_off_c, 1, 61, 0
3, 589760, Note_on_c, 1, 59, 74
3, 589840, Note_off_c, 1, 59, 0
3, 589840, Note_on_c, 1, 57, 75
3, 589920, Note_off_c, 1, 57, 0
3, 589920, Note_on_c, 1, 55, 75
3, 590000, Note_off_c, 1, 55, 0
3, 590000, Note_on_c, 1, 57, 75
3, 590080, Note_off_c, 1, 57, 0
3, 590080, Note_on_c, 1, 59, 75
3, 590160, Note_off_c, 1, 59, 0
3, 590160, Note_on_c, 1, 57, 76
3, 590240, Note_off_c, 1, 57, 0
3, 590240, Note_on_c, 1, 55, 76
3, 590320, Note_off_c, 1, 55, 0
3, 590320, Note_on_c, 1, 54, 76
3, 590400, Note_off_c, 1, 54, 0
3, 590400, Note_on_c, 1, 52, 76
3, 590480, Note_off_c, 1, 52, 0
3, 590480, Note_on_c, 1, 54, 77
3, 590560, Note_off_c, 1, 54, 0
3, 590560, Note_on_c, 1, 55, 77
3, 590640, Note_off_c, 1, 55, 0
3, 590640, Note_on_c, 1, 54, 77
3, 590720, Note_off_c, 1, 54, 0
3, 590720, Note_on_c, 1, 52, 77
3, 590800, Note_off_c, 1, 52, 0
3, 590800, Note_on_c, 1, 50, 78
3, 590880, Note_off_c, 1, 50, 0
3, 590880, Note_on_c, 1, 49, 78
3, 590960, Note_off_c, 1, 49, 0
3, 590960, Note_on_c, 1, 50, 78
3, 591040, Note_off_c, 1, 50, 0
3, 591040, Note_on_c, 1, 52, 78
3, 591120, Note_off_c, 1, 52, 0
3, 591120, Note_on_c, 1, 50, 79
3, 591200, Note_off_c, 1, 50, 0
3, 591200, Note_on_c, 1, 49, 79
3, 591280, Note_off_c, 1, 49, 0
3, 591280, Note_on_c, 1, 47, 79
3, 591360, Note_off_c, 1, 47, 0
3, 591360, Note_on_c, 1, 45, 79
3, 591440, Note_off_c, 1, 45, 0
3, 591440, Note_on_c, 1, 47, 80
3, 591520, Note_off_c, 1, 47, 0
3, 591520, Note_on_c, 1, 45, 80
3, 591600, Note_off_c, 1, 45, 0
3, 591600, Note_on_c, 1, 43, 80
3, 591680, Note_off_c, 1, 43, 0
3, 591680, Note_on_c, 1, 42, 80
3, 591760, Note_off_c, 1, 42, 0
3, 591760, Note_on_c, 1, 40, 81
3, 591840, Note_off_c, 1, 40, 0
3, 591840, Note_on_c, 1, 38, 81
3, 591920, Note_off_c, 1, 38, 0
3, 591920, Note_on_c, 1, 42, 81
3, 592000, Note_off_c, 1, 42, 0
3, 592000, Note_on_c, 1, 43, 80
3, 592080, Note_off_c, 1, 43, 0
3, 592080, Note_on_c, 1, 45, 79
3, 592160, Note_off_c, 1, 45, 0
3, 592160, Note_on_c, 1, 47, 79
3, 592240, Note_off_c, 1, 47, 0
3, 592240, Note_on_c, 1, 49, 78
3, 592320, Note_off_c, 1, 49, 0
3, 592320, Note_on_c, 1, 50, 77
3, 592400, Note_off_c, 1, 50, 0
3, 592400, Note_on_c, 1, 52, 76
3, 592480, Note_off_c, 1, 52, 0
3, 592480, Note_on_c, 1, 54, 76
3, 592560, Note_off_c, 1, 54, 0
3, 592560, Note_on_c, 1, 55, 75
3, 592640, Note_off_c, 1, 55, 0
3, 592640, Note_on_c, 1, 57, 74
3, 592720, Note_off_c, 1, 57, 0
3, 592720, Note_on_c, 1, 59, 74
3, 592800, Note_off_c, 1, 59, 0
3, 592800, Note_on_c, 1, 60, 93
3, 593280, Note_off_c, 1, 60, 0
3, 593280, Note_on_c, 1, 59, 75
3, 593520, Note_off_c, 1, 59, 0
3, 593760, Note_on_c, 1, 55, 89
3, 594240, Note_off_c, 1, 55, 0
3, 594240, Note_on_c, 1, 54, 70
3, 594480, Note_off_c, 1, 54, 0
3, 594960, Note_on_c, 1, 55, 80
3, 594960, Note_on_c, 1, 67, 80
3, 595150, Note_off_c, 1, 67, 0
3, 595150, Note_off_c, 1, 55, 0
3, 595200, Note_on_c, 1, 57, 78
3, 595200, Note_on_c, 1, 66, 78
3, 595390, Note_off_c, 1, 66, 0
3, 595390, Note_off_c, 1, 57, 0
3, 595440, Note_on_c, 1, 57, 77
3, 595440, Note_on_c, 1, 64, 77
3, 595630, Note_off_c, 1, 64, 0
3, 595630, Note_off_c, 1, 57, 0
3, 595680, Note_on_c, 1, 57, 76
3, 595680, Note_on_c, 1, 62, 76
3, 595680, Note_on_c, 1, 54, 76
3, 596640, Note_off_c, 1, 54, 0
3, 596640, Note_off_c, 1, 62, 0
3, 596640, Note_off_c, 1, 57, 0
3, 596640, Note_on_c, 1, 62, 79
3, 596640, Note_on_c, 1, 64, 79
3, 596640, Note_on_c, 1, 55, 79
3, 597600, Note_off_c, 1, 55, 0
3, 597600, Note_off_c, 1, 64, 0
3, 597600, Note_off_c, 1, 62, 0
3, 597600, Note_on_c, 1, 62, 79
3, 597600, Note_on_c, 1, 57, 79
3, 597600, Note_on_c, 1, 66, 79
3, 597840, Note_off_c, 1, 66, 0
3, 597840, Note_off_c, 1, 57, 0
3, 597840, Note_off_c, 1, 62, 0
3, 598080, Note_on_c, 1, 64, 79
3, 598080, Note_on_c, 1, 57, 79
3, 598080, Note_on_c, 1, 67, 79
3, 598320, Note_off_c, 1, 67, 0
3, 598320, Note_off_c, 1, 57, 0
3, 598320, Note_off_c, 1, 64, 0
3, 598560, Note_on_c, 1, 62, 69
3, 598560, Note_on_c, 1, 57, 69
3, 598560, Note_on_c, 1, 54, 69
3, 599520, Note_off_c, 1, 54, 0
3, 599520, Note_off_c, 1, 57, 0
3, 599520, Note_off_c, 1, 62, 0
3, 599520, Note_on_c, 1, 62, 69
3, 599520, Note_on_c, 1, 64, 69
3, 599520, Note_on_c, 1, 55, 69
3, 600480, Note_off_c, 1, 55, 0
3, 600480, Note_off_c, 1, 64, 0
3, 600480, Note_off_c, 1, 62, 0
3, 600480, Note_on_c, 1, 62, 69
3, 600480, Note_on_c, 1, 57, 69
3, 600480, Note_on_c, 1, 66, 69
3, 600720, Note_off_c, 1, 66, 0
3, 600720, Note_off_c, 1, 57, 0
3, 600720, Note_off_c, 1, 62, 0
3, 600960, Note_on_c, 1, 64, 69
3, 600960, Note_on_c, 1, 67, 69
3, 600960, Note_on_c, 1, 57, 69
3, 601200, Note_off_c, 1, 57, 0
3, 601200, Note_off_c, 1, 67, 0
3, 601200, Note_off_c, 1, 64, 0
3, 601440, Note_on_c, 1, 50, 74
3, 601520, Note_off_c, 1, 50, 0
3, 601520, Note_on_c, 1, 62, 75
3, 601600, Note_off_c, 1, 62, 0
3, 601600, Note_on_c, 1, 61, 76
3, 601680, Note_off_c, 1, 61, 0
3, 601680, Note_on_c, 1, 62, 76
3, 601760, Note_off_c, 1, 62, 0
3, 601760, Note_on_c, 1, 61, 77
3, 601840, Note_off_c, 1, 61, 0
3, 601840, Note_on_c, 1, 62, 78
3, 601920, Note_off_c, 1, 62, 0
3, 601920, Note_on_c, 1, 79, 78
3, 601920, Note_on_c, 1, 50, 78
3, 602000, Note_off_c, 1, 50, 0
3, 602000, Note_on_c, 1, 62, 79
3, 602080, Note_off_c, 1, 62, 0
3, 602080, Note_on_c, 1, 61, 80
3, 602160, Note_off_c, 1, 61, 0
3, 602160, Note_off_c, 1, 79, 0
3, 602160, Note_on_c, 1, 62, 81
3, 602240, Note_off_c, 1, 62, 0
3, 602240, Note_on_c, 1, 61, 81
3, 602320, Note_off_c, 1, 61, 0
3, 602320, Note_on_c, 1, 62, 82
3, 602400, Note_off_c, 1, 62, 0
3, 602400, Note_on_c, 1, 78, 83
3, 602400, Note_on_c, 1, 50, 83
3, 602480, Note_off_c, 1, 50, 0
3, 602480, Note_on_c, 1, 62, 83
3, 602560, Note_off_c, 1, 62, 0
3, 602560, Note_on_c, 1, 61, 84
3, 602640, Note_off_c, 1, 61, 0
3, 602640, Note_off_c, 1, 78, 0
3, 602640, Note_on_c, 1, 62, 85
3, 602720, Note_off_c, 1, 62, 0
3, 602720, Note_on_c, 1, 61, 86
3, 602800, Note_off_c, 1, 61, 0
3, 602800, Note_on_c, 1, 62, 86
3, 602880, Note_off_c, 1, 62, 0
3, 602880, Note_on_c, 1, 73, 87
3, 602880, Note_on_c, 1, 50, 87
3, 602960, Note_off_c, 1, 50, 0
3, 602960, Note_on_c, 1, 62, 88
3, 603040, Note_off_c, 1, 62, 0
3, 603040, Note_on_c, 1, 61, 88
3, 603120, Note_off_c, 1, 61, 0
3, 603120, Note_off_c, 1, 73, 0
3, 603120, Note_on_c, 1, 62, 89
3, 603200, Note_off_c, 1, 62, 0
3, 603200, Note_on_c, 1, 61, 90
3, 603280, Note_off_c, 1, 61, 0
3, 603280, Note_on_c, 1, 62, 91
3, 603360, Note_off_c, 1, 62, 0
3, 603360, Note_on_c, 1, 74, 91
3, 603360, Note_on_c, 1, 50, 91
3, 603440, Note_off_c, 1, 50, 0
3, 603440, Note_on_c, 1, 62, 92
3, 603520, Note_off_c, 1, 62, 0
3, 603520, Note_on_c, 1, 61, 93
3, 603600, Note_off_c, 1, 61, 0
3, 603600, Note_off_c, 1, 74, 0
3, 603600, Note_on_c, 1, 62, 93
3, 603680, Note_off_c, 1, 62, 0
3, 603680, Note_on_c, 1, 61, 94
3, 603760, Note_off_c, 1, 61, 0
3, 603760, Note_on_c, 1, 62, 95
3, 603840, Note_off_c, 1, 62, 0
3, 603840, Note_on_c, 1, 71, 96
3, 603840, Note_on_c, 1, 50, 96
3, 603920, Note_off_c, 1, 50, 0
3, 603920, Note_on_c, 1, 62, 96
3, 604000, Note_off_c, 1, 62, 0
3, 604000, Note_on_c, 1, 61, 97
3, 604080, Note_off_c, 1, 61, 0
3, 604080, Note_off_c, 1, 71, 0
3, 604080, Note_on_c, 1, 62, 98
3, 604160, Note_off_c, 1, 62, 0
3, 604160, Note_on_c, 1, 61, 98
3, 604240, Note_off_c, 1, 61, 0
3, 604240, Note_on_c, 1, 62, 99
3, 604320, Note_off_c, 1, 62, 0
3, 604320, Note_on_c, 1, 69, 100
3, 604320, Note_on_c, 1, 50, 100
3, 604400, Note_off_c, 1, 50, 0
3, 604400, Note_on_c, 1, 62, 101
3, 604480, Note_off_c, 1, 62, 0
3, 604480, Note_on_c, 1, 61, 101
3, 604560, Note_off_c, 1, 61, 0
3, 604560, Note_off_c, 1, 69, 0
3, 604560, Note_on_c, 1, 62, 102
3, 604640, Note_off_c, 1, 62, 0
3, 604640, Note_on_c, 1, 61, 103
3, 604720, Note_off_c, 1, 61, 0
3, 604720, Note_on_c, 1, 62, 103
3, 604800, Note_off_c, 1, 62, 0
3, 604800, Note_on_c, 1, 67, 104
3, 604800, Note_on_c, 1, 50, 104
3, 604880, Note_off_c, 1, 50, 0
3, 604880, Note_on_c, 1, 62, 105
3, 604960, Note_off_c, 1, 62, 0
3, 604960, Note_on_c, 1, 61, 106
3, 605040, Note_off_c, 1, 61, 0
3, 605040, Note_off_c, 1, 67, 0
3, 605040, Note_on_c, 1, 62, 106
3, 605120, Note_off_c, 1, 62, 0
3, 605120, Note_on_c, 1, 61, 107
3, 605200, Note_off_c, 1, 61, 0
3, 605200, Note_on_c, 1, 62, 108
3, 605280, Note_off_c, 1, 62, 0
3, 605280, Note_on_c, 1, 66, 108
3, 605280, Note_on_c, 1, 50, 108
3, 605520, Note_off_c, 1, 50, 0
3, 605520, Note_off_c, 1, 66, 0
3, 605760, Note_on_c, 1, 69, 112
3, 605760, Note_on_c, 1, 62, 112
3, 606000, Note_off_c, 1, 62, 0
3, 606000, Note_off_c, 1, 69, 0
3, 606240, Note_on_c, 1, 66, 105
3, 606240, Note_on_c, 1, 50, 105
3, 606642, Note_off_c, 1, 50, 0
3, 606642, Note_off_c, 1, 66, 0
3, 606642, End_track
0, 0, End_of_file
