0, 0, Header, 1, 6, 480
1, 0, Start_track
1, 0, Title_t, "Untitled"
1, 0, Time_signature, 4, 2, 24, 8
1, 0, Key_signature, 0, "major"
1, 0, Tempo, 500000
1, 0, Tempo, 500000
1, 0, Marker_t, "Mozart"
1, 1920, Tempo, 377358
1, 1920, Marker_t, "Piano sonata No.16"
1, 3840, Marker_t, "Bunji Hisamori"
1, 5760, Marker_t, "March 2000"
1, 9540, Tempo, 379746
1, 9600, Tempo, 377358
1, 17240, Tempo, 379746
1, 17280, Tempo, 377358
1, 22920, Tempo, 384615
1, 23040, Tempo, 389610
1, 23865, Tempo, 394736
1, 24480, Tempo, 400000
1, 24960, Tempo, 377358
1, 26840, Tempo, 379746
1, 26880, Tempo, 377358
1, 30680, Tempo, 379746
1, 30720, Tempo, 377358
1, 34520, Tempo, 379746
1, 34560, Tempo, 377358
1, 42200, Tempo, 379746
1, 42240, Tempo, 377358
1, 46040, Tempo, 379746
1, 46080, Tempo, 377358
1, 47950, Tempo, 379746
1, 49850, Tempo, 384615
1, 49920, Tempo, 377358
1, 51800, Tempo, 379746
1, 51840, Tempo, 377358
1, 53655, Tempo, 384615
1, 53760, Tempo, 389610
1, 54615, Tempo, 394736
1, 55215, Tempo, 400000
1, 55680, Tempo, 377358
1, 59480, Tempo, 379746
1, 59520, Tempo, 377358
1, 63320, Tempo, 384615
1, 63360, Tempo, 377358
1, 67160, Tempo, 379746
1, 67200, Tempo, 377358
1, 80480, Tempo, 379746
1, 80520, Tempo, 377358
1, 80580, Tempo, 425531
1, 80640, Tempo, 377358
1, 88280, Tempo, 379746
1, 88320, Tempo, 377358
1, 95960, Tempo, 379746
1, 96000, Tempo, 377358
1, 103640, Tempo, 379746
1, 103680, Tempo, 377358
1, 109320, Tempo, 384615
1, 109440, Tempo, 389610
1, 110265, Tempo, 394736
1, 110880, Tempo, 400000
1, 111360, Tempo, 377358
1, 113240, Tempo, 379746
1, 113280, Tempo, 377358
1, 117080, Tempo, 379746
1, 117120, Tempo, 377358
1, 120920, Tempo, 379746
1, 120960, Tempo, 377358
1, 124760, Tempo, 379746
1, 124800, Tempo, 377358
1, 128600, Tempo, 379746
1, 128640, Tempo, 377358
1, 130520, Tempo, 379746
1, 130560, Tempo, 377358
1, 134330, Tempo, 379746
1, 136260, Tempo, 384615
1, 136320, Tempo, 377358
1, 138200, Tempo, 379746
1, 138240, Tempo, 377358
1, 140120, Tempo, 394736
1, 140160, Tempo, 402684
1, 140880, Tempo, 408163
1, 141120, Tempo, 428571
1, 141600, Tempo, 659340
1, 144000, Time_signature, 3, 2, 24, 8
1, 144000, Tempo, 1016949
1, 144000, Marker_t, "(2) "
1, 146840, Tempo, 1034482
1, 146880, Tempo, 1016949
1, 149700, Tempo, 1034482
1, 149760, Tempo, 1016949
1, 151160, Tempo, 1034482
1, 151200, Tempo, 1016949
1, 152600, Tempo, 1034482
1, 152640, Tempo, 1034482
1, 154040, Tempo, 1071428
1, 154760, Tempo, 1153846
1, 154800, Tempo, 1071428
1, 155460, Tempo, 1111111
1, 155520, Tempo, 1016949
1, 158360, Tempo, 1034482
1, 158400, Tempo, 1016949
1, 161220, Tempo, 1034482
1, 161280, Tempo, 1016949
1, 164120, Tempo, 1034482
1, 164160, Tempo, 1016949
1, 164600, Tempo, 1034482
1, 165080, Tempo, 1071428
1, 165470, Tempo, 1200000
1, 166570, Tempo, 1250000
1, 167040, Tempo, 1016949
1, 169880, Tempo, 1034482
1, 169920, Tempo, 1016949
1, 172740, Tempo, 1034482
1, 172800, Tempo, 1016949
1, 174200, Tempo, 1034482
1, 174240, Tempo, 1016949
1, 175640, Tempo, 1034482
1, 175680, Tempo, 1016949
1, 176600, Tempo, 1034482
1, 177080, Tempo, 1071428
1, 177590, Tempo, 1224489
1, 177720, Tempo, 1071428
1, 178490, Tempo, 1132075
1, 178560, Tempo, 1016949
1, 181400, Tempo, 1034482
1, 181440, Tempo, 1016949
1, 184240, Tempo, 1034482
1, 184320, Tempo, 1016949
1, 187160, Tempo, 1034482
1, 187200, Tempo, 1016949
1, 187640, Tempo, 1034482
1, 188120, Tempo, 1071428
1, 188510, Tempo, 1200000
1, 189600, Tempo, 1304347
1, 190080, Tempo, 1016949
1, 192920, Tempo, 1034482
1, 192960, Tempo, 1016949
1, 195780, Tempo, 1034482
1, 195840, Tempo, 1016949
1, 197240, Tempo, 1034482
1, 197280, Tempo, 1016949
1, 198680, Tempo, 1034482
1, 198720, Tempo, 1016949
1, 199160, Tempo, 1034482
1, 199640, Tempo, 1071428
1, 200030, Tempo, 1111111
1, 200640, Tempo, 1200000
1, 200760, Tempo, 1071428
1, 201560, Tempo, 1132075
1, 201600, Tempo, 1016949
1, 204440, Tempo, 1034482
1, 204480, Tempo, 1016949
1, 205880, Tempo, 1034482
1, 205920, Tempo, 1016949
1, 207310, Tempo, 1071428
1, 207360, Tempo, 1016949
1, 208760, Tempo, 1034482
1, 208800, Tempo, 1016949
1, 210200, Tempo, 1034482
1, 210240, Tempo, 1016949
1, 210680, Tempo, 1034482
1, 211160, Tempo, 1071428
1, 211620, Tempo, 1111111
1, 212160, Tempo, 1200000
1, 212280, Tempo, 1071428
1, 213080, Tempo, 1111111
1, 213120, Tempo, 1016949
1, 215960, Tempo, 1034482
1, 216000, Tempo, 1016949
1, 218790, Tempo, 1034482
1, 218880, Tempo, 1016949
1, 220280, Tempo, 1034482
1, 220320, Tempo, 1016949
1, 221660, Tempo, 1071428
1, 221760, Tempo, 1034482
1, 223160, Tempo, 1071428
1, 223665, Tempo, 1200000
1, 223920, Tempo, 1071428
1, 224600, Tempo, 1111111
1, 224640, Tempo, 1016949
1, 227480, Tempo, 1034482
1, 227520, Tempo, 1016949
1, 230330, Tempo, 1034482
1, 230400, Tempo, 1016949
1, 233240, Tempo, 1034482
1, 233280, Tempo, 1016949
1, 233720, Tempo, 1034482
1, 234200, Tempo, 1071428
1, 234600, Tempo, 1111111
1, 234760, Tempo, 1034482
1, 236120, Tempo, 1071428
1, 236160, Tempo, 1016949
1, 239000, Tempo, 1034482
1, 239040, Tempo, 1016949
1, 239480, Tempo, 1034482
1, 239960, Tempo, 1071428
1, 240350, Tempo, 1132075
1, 240480, Tempo, 1034482
1, 241880, Tempo, 1071428
1, 241920, Tempo, 1016949
1, 243320, Tempo, 1034482
1, 243360, Tempo, 1034482
1, 244660, Tempo, 1276595
1, 244800, Tempo, 1034482
1, 245720, Tempo, 1071428
1, 246200, Tempo, 1176470
1, 246240, Tempo, 1034482
1, 247600, Tempo, 1071428
1, 247680, Tempo, 1071428
1, 249060, Tempo, 1250000
1, 249480, Tempo, 1333333
1, 250560, Tempo, 500000
1, 252000, Time_signature, 2, 2, 24, 8
1, 252480, Tempo, 495867
1, 252480, Marker_t, "(3) "
1, 256280, Tempo, 500000
1, 256320, Tempo, 495867
1, 259680, Tempo, 500000
1, 260100, Tempo, 508474
1, 260160, Tempo, 495867
1, 263960, Tempo, 500000
1, 264000, Tempo, 495867
1, 267360, Tempo, 500000
1, 267780, Tempo, 508474
1, 267840, Tempo, 495867
1, 271640, Tempo, 500000
1, 271680, Tempo, 495867
1, 275040, Tempo, 508474
1, 275460, Tempo, 517241
1, 275520, Tempo, 495867
1, 277920, Tempo, 508474
1, 278600, Tempo, 517241
1, 278640, Tempo, 517241
1, 278835, Tempo, 540540
1, 279120, Tempo, 952380
1, 279360, Tempo, 495867
1, 283160, Tempo, 500000
1, 283200, Tempo, 495867
1, 286560, Tempo, 508474
1, 286980, Tempo, 517241
1, 287040, Tempo, 495867
1, 288920, Tempo, 500000
1, 288960, Tempo, 495867
1, 294200, Tempo, 500000
1, 294240, Tempo, 495867
1, 298080, Tempo, 508474
1, 298560, Tempo, 495867
1, 309440, Tempo, 500000
1, 309480, Tempo, 845070
1, 309600, Tempo, 967741
1, 310080, Tempo, 495867
1, 313880, Tempo, 500000
1, 313920, Tempo, 495867
1, 315360, Tempo, 500000
1, 315780, Tempo, 508474
1, 315840, Tempo, 495867
1, 317280, Tempo, 500000
1, 317760, Tempo, 495867
1, 321560, Tempo, 500000
1, 321600, Tempo, 495867
1, 328800, Tempo, 508474
1, 329480, Tempo, 517241
1, 329540, Tempo, 535714
1, 329760, Tempo, 638297
1, 329760, End_track
2, 0, Start_track
2, 0, Title_t, "Unnamed Track"
2, 0, Control_c, 1, 0, 0
2, 0, Control_c, 1, 32, 0
2, 0, Program_c, 1, 0
2, 0, Control_c, 1, 7, 127
2, 0, Pitch_bend_c, 1, 8192
2, 0, Control_c, 1, 1, 0
2, 0, Control_c, 1, 93, 19
2, 0, Control_c, 1, 91, 100
2, 0, Control_c, 1, 10, 73
2, 0, Control_c, 1, 64, 0
2, 1920, Control_c, 1, 64, 0
2, 1920, Note_on_c, 1, 72, 42
2, 2880, Note_off_c, 1, 72, 0
2, 2880, Note_on_c, 1, 76, 47
2, 3360, Note_off_c, 1, 76, 0
2, 3360, Note_on_c, 1, 79, 49
2, 3840, Note_off_c, 1, 79, 0
2, 3840, Note_on_c, 1, 71, 53
2, 4560, Note_off_c, 1, 71, 0
2, 4560, Note_on_c, 1, 72, 49
2, 4680, Note_off_c, 1, 72, 0
2, 4680, Note_on_c, 1, 74, 49
2, 4800, Note_off_c, 1, 74, 0
2, 4800, Note_on_c, 1, 72, 48
2, 5280, Note_off_c, 1, 72, 0
2, 5760, Note_on_c, 1, 81, 46
2, 6720, Note_off_c, 1, 81, 0
2, 6720, Note_on_c, 1, 79, 52
2, 7200, Note_off_c, 1, 79, 0
2, 7200, Note_on_c, 1, 84, 55
2, 7680, Note_off_c, 1, 84, 0
2, 7680, Note_on_c, 1, 79, 59
2, 8160, Note_off_c, 1, 79, 0
2, 8160, Note_on_c, 1, 77, 56
2, 8250, Note_off_c, 1, 77, 0
2, 8256, Note_on_c, 1, 79, 55
2, 8352, Note_on_c, 1, 77, 54
2, 8362, Note_off_c, 1, 79, 0
2, 8448, Note_on_c, 1, 76, 53
2, 8460, Note_off_c, 1, 77, 0
2, 8544, Note_on_c, 1, 77, 53
2, 8557, Note_off_c, 1, 76, 0
2, 8640, Note_off_c, 1, 77, 0
2, 8640, Note_on_c, 1, 76, 52
2, 9120, Note_off_c, 1, 76, 0
2, 9600, Note_on_c, 1, 69, 77
2, 9790, Note_off_c, 1, 69, 0
2, 9840, Note_on_c, 1, 71, 77
2, 9935, Note_off_c, 1, 71, 0
2, 9960, Note_on_c, 1, 72, 77
2, 10055, Note_off_c, 1, 72, 0
2, 10080, Note_on_c, 1, 74, 77
2, 10175, Note_off_c, 1, 74, 0
2, 10200, Note_on_c, 1, 76, 77
2, 10295, Note_off_c, 1, 76, 0
2, 10320, Note_on_c, 1, 77, 76
2, 10415, Note_off_c, 1, 77, 0
2, 10440, Note_on_c, 1, 79, 76
2, 10535, Note_off_c, 1, 79, 0
2, 10560, Note_on_c, 1, 81, 76
2, 10655, Note_off_c, 1, 81, 0
2, 10680, Note_on_c, 1, 79, 76
2, 10775, Note_off_c, 1, 79, 0
2, 10800, Note_on_c, 1, 77, 76
2, 10895, Note_off_c, 1, 77, 0
2, 10920, Note_on_c, 1, 76, 75
2, 11015, Note_off_c, 1, 76, 0
2, 11040, Note_on_c, 1, 74, 75
2, 11135, Note_off_c, 1, 74, 0
2, 11160, Note_on_c, 1, 72, 75
2, 11255, Note_off_c, 1, 72, 0
2, 11280, Note_on_c, 1, 71, 75
2, 11375, Note_off_c, 1, 71, 0
2, 11400, Note_on_c, 1, 69, 75
2, 11495, Note_off_c, 1, 69, 0
2, 11520, Note_on_c, 1, 67, 74
2, 11710, Note_off_c, 1, 67, 0
2, 11760, Note_on_c, 1, 69, 74
2, 11855, Note_off_c, 1, 69, 0
2, 11880, Note_on_c, 1, 71, 74
2, 11975, Note_off_c, 1, 71, 0
2, 12000, Note_on_c, 1, 72, 74
2, 12095, Note_off_c, 1, 72, 0
2, 12120, Note_on_c, 1, 74, 74
2, 12215, Note_off_c, 1, 74, 0
2, 12240, Note_on_c, 1, 76, 73
2, 12335, Note_off_c, 1, 76, 0
2, 12360, Note_on_c, 1, 77, 73
2, 12455, Note_off_c, 1, 77, 0
2, 12480, Note_on_c, 1, 79, 73
2, 12575, Note_off_c, 1, 79, 0
2, 12600, Note_on_c, 1, 77, 73
2, 12695, Note_off_c, 1, 77, 0
2, 12720, Note_on_c, 1, 76, 73
2, 12815, Note_off_c, 1, 76, 0
2, 12840, Note_on_c, 1, 74, 72
2, 12935, Note_off_c, 1, 74, 0
2, 12960, Note_on_c, 1, 72, 72
2, 13055, Note_off_c, 1, 72, 0
2, 13080, Note_on_c, 1, 71, 72
2, 13175, Note_off_c, 1, 71, 0
2, 13200, Note_on_c, 1, 69, 72
2, 13295, Note_off_c, 1, 69, 0
2, 13320, Note_on_c, 1, 67, 72
2, 13415, Note_off_c, 1, 67, 0
2, 13440, Note_on_c, 1, 65, 72
2, 13630, Note_off_c, 1, 65, 0
2, 13680, Note_on_c, 1, 67, 71
2, 13775, Note_off_c, 1, 67, 0
2, 13800, Note_on_c, 1, 69, 71
2, 13895, Note_off_c, 1, 69, 0
2, 13920, Note_on_c, 1, 71, 71
2, 14015, Note_off_c, 1, 71, 0
2, 14040, Note_on_c, 1, 72, 71
2, 14135, Note_off_c, 1, 72, 0
2, 14160, Note_on_c, 1, 74, 70
2, 14255, Note_off_c, 1, 74, 0
2, 14280, Note_on_c, 1, 76, 70
2, 14375, Note_off_c, 1, 76, 0
2, 14400, Note_on_c, 1, 77, 70
2, 14495, Note_off_c, 1, 77, 0
2, 14520, Note_on_c, 1, 76, 70
2, 14615, Note_off_c, 1, 76, 0
2, 14640, Note_on_c, 1, 74, 70
2, 14735, Note_off_c, 1, 74, 0
2, 14760, Note_on_c, 1, 72, 70
2, 14855, Note_off_c, 1, 72, 0
2, 14880, Note_on_c, 1, 71, 69
2, 14975, Note_off_c, 1, 71, 0
2, 15000, Note_on_c, 1, 69, 69
2, 15095, Note_off_c, 1, 69, 0
2, 15120, Note_on_c, 1, 67, 69
2, 15215, Note_off_c, 1, 67, 0
2, 15240, Note_on_c, 1, 65, 69
2, 15335, Note_off_c, 1, 65, 0
2, 15360, Note_on_c, 1, 64, 69
2, 15550, Note_off_c, 1, 64, 0
2, 15600, Note_on_c, 1, 65, 68
2, 15695, Note_off_c, 1, 65, 0
2, 15720, Note_on_c, 1, 67, 68
2, 15815, Note_off_c, 1, 67, 0
2, 15840, Note_on_c, 1, 69, 68
2, 15935, Note_off_c, 1, 69, 0
2, 15960, Note_on_c, 1, 71, 68
2, 16055, Note_off_c, 1, 71, 0
2, 16080, Note_on_c, 1, 72, 67
2, 16175, Note_off_c, 1, 72, 0
2, 16200, Note_on_c, 1, 74, 67
2, 16295, Note_off_c, 1, 74, 0
2, 16320, Note_on_c, 1, 76, 67
2, 16415, Note_off_c, 1, 76, 0
2, 16440, Note_on_c, 1, 74, 67
2, 16535, Note_off_c, 1, 74, 0
2, 16560, Note_on_c, 1, 72, 67
2, 16655, Note_off_c, 1, 72, 0
2, 16680, Note_on_c, 1, 71, 67
2, 16775, Note_off_c, 1, 71, 0
2, 16800, Note_on_c, 1, 69, 66
2, 16895, Note_off_c, 1, 69, 0
2, 16920, Note_on_c, 1, 67, 66
2, 17015, Note_off_c, 1, 67, 0
2, 17040, Note_on_c, 1, 65, 66
2, 17135, Note_off_c, 1, 65, 0
2, 17160, Note_on_c, 1, 64, 66
2, 17255, Note_off_c, 1, 64, 0
2, 17280, Note_on_c, 1, 62, 68
2, 17470, Note_off_c, 1, 62, 0
2, 17520, Note_on_c, 1, 64, 69
2, 17615, Note_off_c, 1, 64, 0
2, 17640, Note_on_c, 1, 65, 69
2, 17735, Note_off_c, 1, 65, 0
2, 17760, Note_on_c, 1, 67, 70
2, 17855, Note_off_c, 1, 67, 0
2, 17880, Note_on_c, 1, 69, 70
2, 17975, Note_off_c, 1, 69, 0
2, 18000, Note_on_c, 1, 71, 71
2, 18095, Note_off_c, 1, 71, 0
2, 18120, Note_on_c, 1, 73, 71
2, 18215, Note_off_c, 1, 73, 0
2, 18240, Note_on_c, 1, 74, 72
2, 18335, Note_off_c, 1, 74, 0
2, 18360, Note_on_c, 1, 69, 72
2, 18455, Note_off_c, 1, 69, 0
2, 18480, Note_on_c, 1, 71, 72
2, 18575, Note_off_c, 1, 71, 0
2, 18600, Note_on_c, 1, 73, 73
2, 18695, Note_off_c, 1, 73, 0
2, 18720, Note_on_c, 1, 74, 73
2, 18815, Note_off_c, 1, 74, 0
2, 18840, Note_on_c, 1, 76, 74
2, 18935, Note_off_c, 1, 76, 0
2, 18960, Note_on_c, 1, 77, 74
2, 19055, Note_off_c, 1, 77, 0
2, 19080, Note_on_c, 1, 79, 75
2, 19175, Note_off_c, 1, 79, 0
2, 19200, Note_on_c, 1, 81, 75
2, 19295, Note_off_c, 1, 81, 0
2, 19320, Note_on_c, 1, 83, 76
2, 19415, Note_off_c, 1, 83, 0
2, 19440, Note_on_c, 1, 84, 76
2, 19535, Note_off_c, 1, 84, 0
2, 19560, Note_on_c, 1, 83, 77
2, 19655, Note_off_c, 1, 83, 0
2, 19680, Note_on_c, 1, 81, 77
2, 19775, Note_off_c, 1, 81, 0
2, 19800, Note_on_c, 1, 79, 78
2, 19895, Note_off_c, 1, 79, 0
2, 19920, Note_on_c, 1, 77, 78
2, 20015, Note_off_c, 1, 77, 0
2, 20040, Note_on_c, 1, 76, 79
2, 20135, Note_off_c, 1, 76, 0
2, 20160, Note_on_c, 1, 77, 79
2, 20255, Note_off_c, 1, 77, 0
2, 20280, Note_on_c, 1, 79, 80
2, 20375, Note_off_c, 1, 79, 0
2, 20400, Note_on_c, 1, 81, 80
2, 20495, Note_off_c, 1, 81, 0
2, 20520, Note_on_c, 1, 79, 81
2, 20615, Note_off_c, 1, 79, 0
2, 20640, Note_on_c, 1, 77, 81
2, 20735, Note_off_c, 1, 77, 0
2, 20760, Note_on_c, 1, 76, 82
2, 20855, Note_off_c, 1, 76, 0
2, 20880, Note_on_c, 1, 74, 82
2, 20975, Note_off_c, 1, 74, 0
2, 21000, Note_on_c, 1, 72, 82
2, 21095, Note_off_c, 1, 72, 0
2, 21120, Note_on_c, 1, 71, 83
2, 21310, Note_off_c, 1, 71, 0
2, 21360, Note_on_c, 1, 79, 84
2, 21550, Note_off_c, 1, 79, 0
2, 21600, Note_on_c, 1, 76, 85
2, 21790, Note_off_c, 1, 76, 0
2, 21840, Note_on_c, 1, 72, 86
2, 22030, Note_off_c, 1, 72, 0
2, 22080, Note_on_c, 1, 74, 87
2, 22270, Note_off_c, 1, 74, 0
2, 22320, Note_on_c, 1, 79, 88
2, 22510, Note_off_c, 1, 79, 0
2, 22560, Note_on_c, 1, 76, 89
2, 22750, Note_off_c, 1, 76, 0
2, 22800, Note_on_c, 1, 72, 90
2, 22990, Note_off_c, 1, 72, 0
2, 23040, Note_on_c, 1, 74, 91
2, 23400, Note_off_c, 1, 74, 0
2, 23520, Note_on_c, 1, 79, 86
2, 23830, Note_off_c, 1, 79, 0
2, 24000, Note_on_c, 1, 67, 82
2, 24367, Note_off_c, 1, 67, 0
2, 26880, Note_on_c, 1, 86, 59
2, 27120, Note_off_c, 1, 86, 0
2, 27120, Note_on_c, 1, 83, 59
2, 27310, Note_off_c, 1, 83, 0
2, 27360, Note_on_c, 1, 79, 58
2, 28080, Note_off_c, 1, 79, 0
2, 28080, Note_on_c, 1, 81, 57
2, 28200, Note_off_c, 1, 81, 0
2, 28200, Note_on_c, 1, 83, 57
2, 28320, Note_off_c, 1, 83, 0
2, 28320, Note_on_c, 1, 81, 57
2, 28475, Note_off_c, 1, 81, 0
2, 28560, Note_on_c, 1, 79, 57
2, 28715, Note_off_c, 1, 79, 0
2, 28800, Note_on_c, 1, 79, 57
2, 28860, Note_off_c, 1, 79, 0
2, 28860, Note_on_c, 1, 81, 56
2, 28920, Note_off_c, 1, 81, 0
2, 28920, Note_on_c, 1, 79, 56
2, 28980, Note_off_c, 1, 79, 0
2, 28980, Note_on_c, 1, 81, 56
2, 29040, Note_off_c, 1, 81, 0
2, 29040, Note_on_c, 1, 79, 56
2, 29160, Note_off_c, 1, 79, 0
2, 29160, Note_on_c, 1, 78, 56
2, 29256, Note_off_c, 1, 78, 0
2, 29280, Note_on_c, 1, 78, 56
2, 29760, Note_off_c, 1, 78, 0
2, 30720, Note_on_c, 1, 86, 54
2, 30960, Note_off_c, 1, 86, 0
2, 30960, Note_on_c, 1, 83, 54
2, 31150, Note_off_c, 1, 83, 0
2, 31200, Note_on_c, 1, 79, 54
2, 31920, Note_off_c, 1, 79, 0
2, 31920, Note_on_c, 1, 81, 53
2, 32040, Note_off_c, 1, 81, 0
2, 32040, Note_on_c, 1, 83, 53
2, 32160, Note_off_c, 1, 83, 0
2, 32160, Note_on_c, 1, 81, 52
2, 32315, Note_off_c, 1, 81, 0
2, 32400, Note_on_c, 1, 79, 52
2, 32555, Note_off_c, 1, 79, 0
2, 32640, Note_on_c, 1, 79, 52
2, 32700, Note_off_c, 1, 79, 0
2, 32700, Note_on_c, 1, 81, 52
2, 32760, Note_off_c, 1, 81, 0
2, 32760, Note_on_c, 1, 79, 52
2, 32820, Note_off_c, 1, 79, 0
2, 32820, Note_on_c, 1, 81, 52
2, 32880, Note_off_c, 1, 81, 0
2, 32880, Note_on_c, 1, 79, 51
2, 33000, Note_off_c, 1, 79, 0
2, 33000, Note_on_c, 1, 78, 51
2, 33096, Note_off_c, 1, 78, 0
2, 33120, Note_on_c, 1, 78, 51
2, 33600, Note_off_c, 1, 78, 0
2, 34560, Note_on_c, 1, 86, 85
2, 34927, Note_off_c, 1, 86, 0
2, 35160, Note_on_c, 1, 86, 84
2, 35255, Note_off_c, 1, 86, 0
2, 35280, Note_on_c, 1, 83, 84
2, 35375, Note_off_c, 1, 83, 0
2, 35400, Note_on_c, 1, 79, 83
2, 35495, Note_off_c, 1, 79, 0
2, 35520, Note_on_c, 1, 76, 83
2, 35887, Note_off_c, 1, 76, 0
2, 36120, Note_on_c, 1, 76, 82
2, 36215, Note_off_c, 1, 76, 0
2, 36240, Note_on_c, 1, 79, 81
2, 36335, Note_off_c, 1, 79, 0
2, 36360, Note_on_c, 1, 76, 81
2, 36455, Note_off_c, 1, 76, 0
2, 36480, Note_on_c, 1, 84, 81
2, 36847, Note_off_c, 1, 84, 0
2, 37080, Note_on_c, 1, 84, 79
2, 37175, Note_off_c, 1, 84, 0
2, 37200, Note_on_c, 1, 81, 79
2, 37295, Note_off_c, 1, 81, 0
2, 37320, Note_on_c, 1, 78, 78
2, 37415, Note_off_c, 1, 78, 0
2, 37440, Note_on_c, 1, 74, 78
2, 37800, Note_off_c, 1, 74, 0
2, 38040, Note_on_c, 1, 74, 77
2, 38135, Note_off_c, 1, 74, 0
2, 38160, Note_on_c, 1, 78, 76
2, 38255, Note_off_c, 1, 78, 0
2, 38280, Note_on_c, 1, 74, 76
2, 38375, Note_off_c, 1, 74, 0
2, 38400, Note_on_c, 1, 83, 76
2, 38760, Note_off_c, 1, 83, 0
2, 39000, Note_on_c, 1, 83, 74
2, 39095, Note_off_c, 1, 83, 0
2, 39120, Note_on_c, 1, 79, 74
2, 39215, Note_off_c, 1, 79, 0
2, 39240, Note_on_c, 1, 76, 74
2, 39335, Note_off_c, 1, 76, 0
2, 39360, Note_on_c, 1, 72, 73
2, 39727, Note_off_c, 1, 72, 0
2, 39960, Note_on_c, 1, 72, 72
2, 40055, Note_off_c, 1, 72, 0
2, 40080, Note_on_c, 1, 76, 71
2, 40175, Note_off_c, 1, 76, 0
2, 40200, Note_on_c, 1, 72, 71
2, 40295, Note_off_c, 1, 72, 0
2, 40320, Note_on_c, 1, 81, 71
2, 40687, Note_off_c, 1, 81, 0
2, 40920, Note_on_c, 1, 81, 69
2, 41015, Note_off_c, 1, 81, 0
2, 41040, Note_on_c, 1, 78, 69
2, 41135, Note_off_c, 1, 78, 0
2, 41160, Note_on_c, 1, 74, 69
2, 41255, Note_off_c, 1, 74, 0
2, 41280, Note_on_c, 1, 71, 68
2, 41647, Note_off_c, 1, 71, 0
2, 41880, Note_on_c, 1, 79, 67
2, 41975, Note_off_c, 1, 79, 0
2, 42000, Note_on_c, 1, 74, 66
2, 42095, Note_off_c, 1, 74, 0
2, 42120, Note_on_c, 1, 71, 66
2, 42215, Note_off_c, 1, 71, 0
2, 42240, Note_on_c, 1, 69, 66
2, 43200, Note_off_c, 1, 69, 0
2, 43200, Note_on_c, 1, 71, 62
2, 43260, Note_on_c, 1, 72, 62
2, 43320, Note_off_c, 1, 71, 0
2, 43680, Note_off_c, 1, 72, 0
2, 43680, Note_on_c, 1, 75, 64
2, 43740, Note_on_c, 1, 76, 65
2, 43800, Note_off_c, 1, 75, 0
2, 44160, Note_off_c, 1, 76, 0
2, 44160, Note_on_c, 1, 80, 67
2, 44220, Note_on_c, 1, 81, 67
2, 44280, Note_off_c, 1, 80, 0
2, 44880, Note_on_c, 1, 83, 70
2, 44885, Note_off_c, 1, 81, 0
2, 44940, Note_off_c, 1, 83, 0
2, 44940, Note_on_c, 1, 81, 70
2, 45000, Note_off_c, 1, 81, 0
2, 45000, Note_on_c, 1, 80, 71
2, 45060, Note_off_c, 1, 80, 0
2, 45060, Note_on_c, 1, 81, 71
2, 45120, Note_off_c, 1, 81, 0
2, 45120, Note_on_c, 1, 84, 71
2, 45360, Note_off_c, 1, 84, 0
2, 45360, Note_on_c, 1, 81, 73
2, 45550, Note_off_c, 1, 81, 0
2, 45600, Note_on_c, 1, 84, 74
2, 45840, Note_off_c, 1, 84, 0
2, 45840, Note_on_c, 1, 81, 75
2, 46030, Note_off_c, 1, 81, 0
2, 46080, Note_on_c, 1, 83, 76
2, 46320, Note_off_c, 1, 83, 0
2, 46320, Note_on_c, 1, 79, 77
2, 46510, Note_off_c, 1, 79, 0
2, 46560, Note_on_c, 1, 86, 78
2, 47520, Note_off_c, 1, 86, 0
2, 47520, Note_on_c, 1, 84, 83
2, 47640, Note_off_c, 1, 84, 0
2, 47640, Note_on_c, 1, 83, 84
2, 47760, Note_off_c, 1, 83, 0
2, 47760, Note_on_c, 1, 81, 84
2, 47880, Note_off_c, 1, 81, 0
2, 47880, Note_on_c, 1, 79, 85
2, 47976, Note_off_c, 1, 79, 0
2, 48000, Note_on_c, 1, 81, 84
2, 48080, Note_off_c, 1, 81, 0
2, 49920, Note_on_c, 1, 79, 93
2, 50305, Note_off_c, 1, 79, 0
2, 50400, Note_on_c, 1, 79, 91
2, 50495, Note_off_c, 1, 79, 0
2, 50520, Note_on_c, 1, 74, 91
2, 50615, Note_off_c, 1, 74, 0
2, 50640, Note_on_c, 1, 79, 90
2, 50735, Note_off_c, 1, 79, 0
2, 50760, Note_on_c, 1, 83, 90
2, 50855, Note_off_c, 1, 83, 0
2, 50880, Note_on_c, 1, 86, 89
2, 50975, Note_off_c, 1, 86, 0
2, 51000, Note_on_c, 1, 83, 89
2, 51095, Note_off_c, 1, 83, 0
2, 51120, Note_on_c, 1, 79, 89
2, 51215, Note_off_c, 1, 79, 0
2, 51240, Note_on_c, 1, 83, 88
2, 51335, Note_off_c, 1, 83, 0
2, 51360, Note_on_c, 1, 84, 88
2, 51455, Note_off_c, 1, 84, 0
2, 51480, Note_on_c, 1, 81, 87
2, 51575, Note_off_c, 1, 81, 0
2, 51600, Note_on_c, 1, 78, 87
2, 51695, Note_off_c, 1, 78, 0
2, 51720, Note_on_c, 1, 81, 86
2, 51815, Note_off_c, 1, 81, 0
2, 51840, Note_on_c, 1, 79, 86
2, 52225, Note_off_c, 1, 79, 0
2, 52320, Note_on_c, 1, 67, 84
2, 52415, Note_off_c, 1, 67, 0
2, 52440, Note_on_c, 1, 62, 83
2, 52535, Note_off_c, 1, 62, 0
2, 52560, Note_on_c, 1, 67, 83
2, 52655, Note_off_c, 1, 67, 0
2, 52680, Note_on_c, 1, 71, 82
2, 52775, Note_off_c, 1, 71, 0
2, 52800, Note_on_c, 1, 74, 82
2, 52895, Note_off_c, 1, 74, 0
2, 52920, Note_on_c, 1, 71, 81
2, 53015, Note_off_c, 1, 71, 0
2, 53040, Note_on_c, 1, 67, 81
2, 53135, Note_off_c, 1, 67, 0
2, 53160, Note_on_c, 1, 71, 80
2, 53255, Note_off_c, 1, 71, 0
2, 53280, Note_on_c, 1, 72, 80
2, 53375, Note_off_c, 1, 72, 0
2, 53400, Note_on_c, 1, 69, 79
2, 53495, Note_off_c, 1, 69, 0
2, 53520, Note_on_c, 1, 66, 79
2, 53615, Note_off_c, 1, 66, 0
2, 53640, Note_on_c, 1, 69, 78
2, 53735, Note_off_c, 1, 69, 0
2, 53760, Note_on_c, 1, 67, 78
2, 54070, Note_off_c, 1, 67, 0
2, 54240, Note_on_c, 1, 83, 76
2, 54550, Note_off_c, 1, 83, 0
2, 54720, Note_on_c, 1, 79, 74
2, 55030, Note_off_c, 1, 79, 0
2, 55680, Control_c, 1, 64, 0
2, 55680, Note_on_c, 1, 67, 82
2, 56065, Note_off_c, 1, 67, 0
2, 56160, Note_on_c, 1, 79, 85
2, 56255, Note_off_c, 1, 79, 0
2, 56280, Note_on_c, 1, 74, 85
2, 56375, Note_off_c, 1, 74, 0
2, 56400, Note_on_c, 1, 79, 85
2, 56495, Note_off_c, 1, 79, 0
2, 56520, Note_on_c, 1, 82, 85
2, 56615, Note_off_c, 1, 82, 0
2, 56640, Note_on_c, 1, 86, 84
2, 56735, Note_off_c, 1, 86, 0
2, 56760, Note_on_c, 1, 82, 84
2, 56855, Note_off_c, 1, 82, 0
2, 56880, Note_on_c, 1, 79, 84
2, 56975, Note_off_c, 1, 79, 0
2, 57000, Note_on_c, 1, 82, 84
2, 57095, Note_off_c, 1, 82, 0
2, 57120, Note_on_c, 1, 84, 84
2, 57215, Note_off_c, 1, 84, 0
2, 57240, Note_on_c, 1, 81, 83
2, 57335, Note_off_c, 1, 81, 0
2, 57360, Note_on_c, 1, 78, 83
2, 57455, Note_off_c, 1, 78, 0
2, 57480, Note_on_c, 1, 81, 83
2, 57575, Note_off_c, 1, 81, 0
2, 57600, Note_on_c, 1, 79, 83
2, 57985, Note_off_c, 1, 79, 0
2, 58080, Note_on_c, 1, 67, 82
2, 58175, Note_off_c, 1, 67, 0
2, 58200, Note_on_c, 1, 62, 82
2, 58295, Note_off_c, 1, 62, 0
2, 58320, Note_on_c, 1, 67, 82
2, 58415, Note_off_c, 1, 67, 0
2, 58440, Note_on_c, 1, 70, 82
2, 58535, Note_off_c, 1, 70, 0
2, 58560, Note_on_c, 1, 74, 82
2, 58655, Note_off_c, 1, 74, 0
2, 58680, Note_on_c, 1, 70, 81
2, 58775, Note_off_c, 1, 70, 0
2, 58800, Note_on_c, 1, 67, 81
2, 58895, Note_off_c, 1, 67, 0
2, 58920, Note_on_c, 1, 70, 81
2, 59015, Note_off_c, 1, 70, 0
2, 59040, Note_on_c, 1, 72, 81
2, 59135, Note_off_c, 1, 72, 0
2, 59160, Note_on_c, 1, 69, 81
2, 59255, Note_off_c, 1, 69, 0
2, 59280, Note_on_c, 1, 66, 81
2, 59375, Note_off_c, 1, 66, 0
2, 59400, Note_on_c, 1, 69, 80
2, 59495, Note_off_c, 1, 69, 0
2, 59520, Note_on_c, 1, 67, 80
2, 59880, Note_off_c, 1, 67, 0
2, 60600, Note_on_c, 1, 79, 79
2, 60695, Note_off_c, 1, 79, 0
2, 60720, Note_on_c, 1, 82, 79
2, 60815, Note_off_c, 1, 82, 0
2, 60840, Note_on_c, 1, 81, 78
2, 60935, Note_off_c, 1, 81, 0
2, 60960, Note_on_c, 1, 79, 78
2, 61055, Note_off_c, 1, 79, 0
2, 61080, Note_on_c, 1, 77, 78
2, 61175, Note_off_c, 1, 77, 0
2, 61200, Note_on_c, 1, 76, 78
2, 61295, Note_off_c, 1, 76, 0
2, 61320, Note_on_c, 1, 74, 78
2, 61415, Note_off_c, 1, 74, 0
2, 61440, Note_on_c, 1, 73, 78
2, 61807, Note_off_c, 1, 73, 0
2, 62520, Note_on_c, 1, 85, 76
2, 62615, Note_off_c, 1, 85, 0
2, 62640, Note_on_c, 1, 88, 76
2, 62735, Note_off_c, 1, 88, 0
2, 62760, Note_on_c, 1, 86, 76
2, 62855, Note_off_c, 1, 86, 0
2, 62880, Note_on_c, 1, 85, 75
2, 62975, Note_off_c, 1, 85, 0
2, 63000, Note_on_c, 1, 82, 75
2, 63095, Note_off_c, 1, 82, 0
2, 63120, Note_on_c, 1, 81, 75
2, 63215, Note_off_c, 1, 81, 0
2, 63240, Note_on_c, 1, 79, 75
2, 63335, Note_off_c, 1, 79, 0
2, 63360, Note_on_c, 1, 77, 88
2, 63727, Note_off_c, 1, 77, 0
2, 63840, Note_on_c, 1, 74, 74
2, 63935, Note_off_c, 1, 74, 0
2, 63960, Note_on_c, 1, 69, 74
2, 64055, Note_off_c, 1, 69, 0
2, 64080, Note_on_c, 1, 74, 74
2, 64175, Note_off_c, 1, 74, 0
2, 64200, Note_on_c, 1, 77, 74
2, 64295, Note_off_c, 1, 77, 0
2, 64320, Note_on_c, 1, 81, 73
2, 64415, Note_off_c, 1, 81, 0
2, 64440, Note_on_c, 1, 77, 73
2, 64535, Note_off_c, 1, 77, 0
2, 64560, Note_on_c, 1, 74, 73
2, 64655, Note_off_c, 1, 74, 0
2, 64680, Note_on_c, 1, 77, 73
2, 64775, Note_off_c, 1, 77, 0
2, 64800, Note_on_c, 1, 79, 73
2, 64895, Note_off_c, 1, 79, 0
2, 64920, Note_on_c, 1, 76, 73
2, 65015, Note_off_c, 1, 76, 0
2, 65040, Note_on_c, 1, 73, 72
2, 65135, Note_off_c, 1, 73, 0
2, 65160, Note_on_c, 1, 76, 72
2, 65255, Note_off_c, 1, 76, 0
2, 65280, Note_on_c, 1, 74, 72
2, 65647, Note_off_c, 1, 74, 0
2, 65760, Note_on_c, 1, 62, 71
2, 65855, Note_off_c, 1, 62, 0
2, 65880, Note_on_c, 1, 57, 71
2, 65975, Note_off_c, 1, 57, 0
2, 66000, Note_on_c, 1, 62, 71
2, 66095, Note_off_c, 1, 62, 0
2, 66120, Note_on_c, 1, 65, 71
2, 66215, Note_off_c, 1, 65, 0
2, 66240, Note_on_c, 1, 69, 71
2, 66335, Note_off_c, 1, 69, 0
2, 66360, Note_on_c, 1, 65, 71
2, 66455, Note_off_c, 1, 65, 0
2, 66480, Note_on_c, 1, 62, 70
2, 66575, Note_off_c, 1, 62, 0
2, 66600, Note_on_c, 1, 65, 70
2, 66695, Note_off_c, 1, 65, 0
2, 66720, Note_on_c, 1, 67, 70
2, 66815, Note_off_c, 1, 67, 0
2, 66840, Note_on_c, 1, 64, 70
2, 66935, Note_off_c, 1, 64, 0
2, 66960, Note_on_c, 1, 61, 70
2, 67055, Note_off_c, 1, 61, 0
2, 67080, Note_on_c, 1, 64, 70
2, 67175, Note_off_c, 1, 64, 0
2, 67320, Note_on_c, 1, 62, 69
2, 67415, Note_off_c, 1, 62, 0
2, 67440, Note_on_c, 1, 64, 69
2, 67535, Note_off_c, 1, 64, 0
2, 67560, Note_on_c, 1, 65, 69
2, 67655, Note_off_c, 1, 65, 0
2, 67680, Note_on_c, 1, 67, 69
2, 67775, Note_off_c, 1, 67, 0
2, 67800, Note_on_c, 1, 69, 69
2, 67895, Note_off_c, 1, 69, 0
2, 67920, Note_on_c, 1, 71, 68
2, 68015, Note_off_c, 1, 71, 0
2, 68040, Note_on_c, 1, 73, 68
2, 68135, Note_off_c, 1, 73, 0
2, 68160, Note_on_c, 1, 74, 68
2, 68520, Note_off_c, 1, 74, 0
2, 69240, Note_on_c, 1, 71, 66
2, 69335, Note_off_c, 1, 71, 0
2, 69360, Note_on_c, 1, 72, 66
2, 69455, Note_off_c, 1, 72, 0
2, 69480, Note_on_c, 1, 74, 66
2, 69575, Note_off_c, 1, 74, 0
2, 69600, Note_on_c, 1, 76, 66
2, 69695, Note_off_c, 1, 76, 0
2, 69720, Note_on_c, 1, 78, 66
2, 69815, Note_off_c, 1, 78, 0
2, 69840, Note_on_c, 1, 80, 66
2, 69935, Note_off_c, 1, 80, 0
2, 69960, Note_on_c, 1, 81, 65
2, 70055, Note_off_c, 1, 81, 0
2, 70080, Note_on_c, 1, 83, 65
2, 70447, Note_off_c, 1, 83, 0
2, 71160, Note_on_c, 1, 81, 64
2, 71255, Note_off_c, 1, 81, 0
2, 71280, Note_on_c, 1, 88, 64
2, 71375, Note_off_c, 1, 88, 0
2, 71400, Note_on_c, 1, 86, 63
2, 71495, Note_off_c, 1, 86, 0
2, 71520, Note_on_c, 1, 84, 63
2, 71615, Note_off_c, 1, 84, 0
2, 71640, Note_on_c, 1, 83, 63
2, 71735, Note_off_c, 1, 83, 0
2, 71760, Note_on_c, 1, 81, 63
2, 71855, Note_off_c, 1, 81, 0
2, 71880, Note_on_c, 1, 79, 63
2, 71975, Note_off_c, 1, 79, 0
2, 72000, Note_on_c, 1, 77, 63
2, 72367, Note_off_c, 1, 77, 0
2, 73080, Note_on_c, 1, 79, 61
2, 73175, Note_off_c, 1, 79, 0
2, 73200, Note_on_c, 1, 86, 61
2, 73295, Note_off_c, 1, 86, 0
2, 73320, Note_on_c, 1, 84, 61
2, 73415, Note_off_c, 1, 84, 0
2, 73440, Note_on_c, 1, 83, 61
2, 73535, Note_off_c, 1, 83, 0
2, 73560, Note_on_c, 1, 81, 60
2, 73655, Note_off_c, 1, 81, 0
2, 73680, Note_on_c, 1, 79, 60
2, 73775, Note_off_c, 1, 79, 0
2, 73800, Note_on_c, 1, 77, 60
2, 73895, Note_off_c, 1, 77, 0
2, 73920, Note_on_c, 1, 76, 60
2, 74280, Note_off_c, 1, 76, 0
2, 75000, Note_on_c, 1, 77, 58
2, 75095, Note_off_c, 1, 77, 0
2, 75120, Note_on_c, 1, 84, 58
2, 75215, Note_off_c, 1, 84, 0
2, 75240, Note_on_c, 1, 83, 58
2, 75335, Note_off_c, 1, 83, 0
2, 75360, Note_on_c, 1, 81, 58
2, 75455, Note_off_c, 1, 81, 0
2, 75480, Note_on_c, 1, 79, 58
2, 75575, Note_off_c, 1, 79, 0
2, 75600, Note_on_c, 1, 77, 57
2, 75695, Note_off_c, 1, 77, 0
2, 75720, Note_on_c, 1, 76, 57
2, 75815, Note_off_c, 1, 76, 0
2, 75840, Note_on_c, 1, 74, 57
2, 76207, Note_off_c, 1, 74, 0
2, 76920, Note_on_c, 1, 76, 56
2, 77015, Note_off_c, 1, 76, 0
2, 77040, Note_on_c, 1, 83, 55
2, 77135, Note_off_c, 1, 83, 0
2, 77160, Note_on_c, 1, 81, 55
2, 77255, Note_off_c, 1, 81, 0
2, 77280, Note_on_c, 1, 80, 55
2, 77375, Note_off_c, 1, 80, 0
2, 77400, Note_on_c, 1, 77, 55
2, 77495, Note_off_c, 1, 77, 0
2, 77520, Note_on_c, 1, 76, 55
2, 77615, Note_off_c, 1, 76, 0
2, 77640, Note_on_c, 1, 74, 55
2, 77735, Note_off_c, 1, 74, 0
2, 77760, Note_on_c, 1, 72, 54
2, 78127, Note_off_c, 1, 72, 0
2, 78840, Note_on_c, 1, 70, 53
2, 78935, Note_off_c, 1, 70, 0
2, 78960, Note_on_c, 1, 74, 53
2, 79055, Note_off_c, 1, 74, 0
2, 79080, Note_on_c, 1, 72, 52
2, 79175, Note_off_c, 1, 72, 0
2, 79200, Note_on_c, 1, 70, 52
2, 79295, Note_off_c, 1, 70, 0
2, 79320, Note_on_c, 1, 69, 52
2, 79415, Note_off_c, 1, 69, 0
2, 79440, Note_on_c, 1, 67, 52
2, 79535, Note_off_c, 1, 67, 0
2, 79560, Note_on_c, 1, 65, 52
2, 79655, Note_off_c, 1, 65, 0
2, 79680, Note_on_c, 1, 64, 53
2, 79775, Note_off_c, 1, 64, 0
2, 79800, Note_on_c, 1, 65, 51
2, 79895, Note_off_c, 1, 65, 0
2, 79920, Note_on_c, 1, 67, 50
2, 80015, Note_off_c, 1, 67, 0
2, 80040, Note_on_c, 1, 69, 48
2, 80135, Note_off_c, 1, 69, 0
2, 80160, Note_on_c, 1, 70, 47
2, 80255, Note_off_c, 1, 70, 0
2, 80280, Note_on_c, 1, 72, 46
2, 80375, Note_off_c, 1, 72, 0
2, 80400, Note_on_c, 1, 74, 44
2, 80495, Note_off_c, 1, 74, 0
2, 80520, Note_on_c, 1, 76, 43
2, 80615, Note_off_c, 1, 76, 0
2, 80640, Note_on_c, 1, 77, 42
2, 81600, Note_off_c, 1, 77, 0
2, 81600, Note_on_c, 1, 81, 46
2, 82080, Note_off_c, 1, 81, 0
2, 82080, Note_on_c, 1, 84, 48
2, 82560, Note_off_c, 1, 84, 0
2, 82560, Note_on_c, 1, 76, 52
2, 83280, Note_off_c, 1, 76, 0
2, 83280, Note_on_c, 1, 77, 47
2, 83400, Note_off_c, 1, 77, 0
2, 83400, Note_on_c, 1, 79, 47
2, 83520, Note_off_c, 1, 79, 0
2, 83520, Note_on_c, 1, 77, 46
2, 84000, Note_off_c, 1, 77, 0
2, 84480, Note_on_c, 1, 86, 44
2, 85440, Note_off_c, 1, 86, 0
2, 85440, Note_on_c, 1, 84, 50
2, 85920, Note_off_c, 1, 84, 0
2, 85920, Note_on_c, 1, 89, 52
2, 86400, Note_off_c, 1, 89, 0
2, 86400, Note_on_c, 1, 84, 57
2, 86880, Note_off_c, 1, 84, 0
2, 86880, Note_on_c, 1, 82, 54
2, 86976, Note_off_c, 1, 82, 0
2, 86976, Note_on_c, 1, 84, 53
2, 87072, Note_off_c, 1, 84, 0
2, 87072, Note_on_c, 1, 82, 53
2, 87168, Note_off_c, 1, 82, 0
2, 87168, Note_on_c, 1, 81, 52
2, 87264, Note_off_c, 1, 81, 0
2, 87264, Note_on_c, 1, 82, 52
2, 87360, Note_off_c, 1, 82, 0
2, 87360, Note_on_c, 1, 81, 51
2, 87840, Note_off_c, 1, 81, 0
2, 88320, Note_on_c, 1, 74, 79
2, 88510, Note_off_c, 1, 74, 0
2, 88560, Note_on_c, 1, 76, 79
2, 88655, Note_off_c, 1, 76, 0
2, 88680, Note_on_c, 1, 77, 79
2, 88775, Note_off_c, 1, 77, 0
2, 88800, Note_on_c, 1, 79, 79
2, 88895, Note_off_c, 1, 79, 0
2, 88920, Note_on_c, 1, 81, 79
2, 89015, Note_off_c, 1, 81, 0
2, 89040, Note_on_c, 1, 82, 79
2, 89135, Note_off_c, 1, 82, 0
2, 89160, Note_on_c, 1, 84, 79
2, 89255, Note_off_c, 1, 84, 0
2, 89280, Note_on_c, 1, 86, 78
2, 89375, Note_off_c, 1, 86, 0
2, 89400, Note_on_c, 1, 84, 78
2, 89495, Note_off_c, 1, 84, 0
2, 89520, Note_on_c, 1, 82, 78
2, 89615, Note_off_c, 1, 82, 0
2, 89640, Note_on_c, 1, 81, 78
2, 89735, Note_off_c, 1, 81, 0
2, 89760, Note_on_c, 1, 79, 78
2, 89855, Note_off_c, 1, 79, 0
2, 89880, Note_on_c, 1, 77, 78
2, 89975, Note_off_c, 1, 77, 0
2, 90000, Note_on_c, 1, 76, 78
2, 90095, Note_off_c, 1, 76, 0
2, 90120, Note_on_c, 1, 74, 78
2, 90215, Note_off_c, 1, 74, 0
2, 90240, Note_on_c, 1, 72, 77
2, 90430, Note_off_c, 1, 72, 0
2, 90480, Note_on_c, 1, 74, 77
2, 90575, Note_off_c, 1, 74, 0
2, 90600, Note_on_c, 1, 76, 77
2, 90695, Note_off_c, 1, 76, 0
2, 90720, Note_on_c, 1, 77, 77
2, 90815, Note_off_c, 1, 77, 0
2, 90840, Note_on_c, 1, 79, 77
2, 90935, Note_off_c, 1, 79, 0
2, 90960, Note_on_c, 1, 81, 77
2, 91055, Note_off_c, 1, 81, 0
2, 91080, Note_on_c, 1, 82, 77
2, 91175, Note_off_c, 1, 82, 0
2, 91200, Note_on_c, 1, 84, 76
2, 91295, Note_off_c, 1, 84, 0
2, 91320, Note_on_c, 1, 82, 76
2, 91415, Note_off_c, 1, 82, 0
2, 91440, Note_on_c, 1, 81, 76
2, 91535, Note_off_c, 1, 81, 0
2, 91560, Note_on_c, 1, 79, 76
2, 91655, Note_off_c, 1, 79, 0
2, 91680, Note_on_c, 1, 77, 76
2, 91775, Note_off_c, 1, 77, 0
2, 91800, Note_on_c, 1, 76, 76
2, 91895, Note_off_c, 1, 76, 0
2, 91920, Note_on_c, 1, 74, 76
2, 92015, Note_off_c, 1, 74, 0
2, 92040, Note_on_c, 1, 72, 76
2, 92135, Note_off_c, 1, 72, 0
2, 92160, Note_on_c, 1, 70, 75
2, 92350, Note_off_c, 1, 70, 0
2, 92400, Note_on_c, 1, 72, 75
2, 92495, Note_off_c, 1, 72, 0
2, 92520, Note_on_c, 1, 74, 75
2, 92615, Note_off_c, 1, 74, 0
2, 92640, Note_on_c, 1, 76, 75
2, 92735, Note_off_c, 1, 76, 0
2, 92760, Note_on_c, 1, 77, 75
2, 92855, Note_off_c, 1, 77, 0
2, 92880, Note_on_c, 1, 79, 75
2, 92975, Note_off_c, 1, 79, 0
2, 93000, Note_on_c, 1, 81, 75
2, 93095, Note_off_c, 1, 81, 0
2, 93120, Note_on_c, 1, 82, 74
2, 93215, Note_off_c, 1, 82, 0
2, 93240, Note_on_c, 1, 81, 74
2, 93335, Note_off_c, 1, 81, 0
2, 93360, Note_on_c, 1, 79, 74
2, 93455, Note_off_c, 1, 79, 0
2, 93480, Note_on_c, 1, 77, 74
2, 93575, Note_off_c, 1, 77, 0
2, 93600, Note_on_c, 1, 76, 74
2, 93695, Note_off_c, 1, 76, 0
2, 93720, Note_on_c, 1, 74, 74
2, 93815, Note_off_c, 1, 74, 0
2, 93840, Note_on_c, 1, 72, 74
2, 93935, Note_off_c, 1, 72, 0
2, 93960, Note_on_c, 1, 70, 74
2, 94055, Note_off_c, 1, 70, 0
2, 94080, Note_on_c, 1, 69, 73
2, 94270, Note_off_c, 1, 69, 0
2, 94320, Note_on_c, 1, 70, 73
2, 94415, Note_off_c, 1, 70, 0
2, 94440, Note_on_c, 1, 72, 73
2, 94535, Note_off_c, 1, 72, 0
2, 94560, Note_on_c, 1, 74, 73
2, 94655, Note_off_c, 1, 74, 0
2, 94680, Note_on_c, 1, 76, 73
2, 94775, Note_off_c, 1, 76, 0
2, 94800, Note_on_c, 1, 77, 73
2, 94895, Note_off_c, 1, 77, 0
2, 94920, Note_on_c, 1, 79, 73
2, 95015, Note_off_c, 1, 79, 0
2, 95040, Note_on_c, 1, 81, 72
2, 95135, Note_off_c, 1, 81, 0
2, 95160, Note_on_c, 1, 79, 72
2, 95255, Note_off_c, 1, 79, 0
2, 95280, Note_on_c, 1, 77, 72
2, 95375, Note_off_c, 1, 77, 0
2, 95400, Note_on_c, 1, 76, 72
2, 95495, Note_off_c, 1, 76, 0
2, 95520, Note_on_c, 1, 74, 72
2, 95615, Note_off_c, 1, 74, 0
2, 95640, Note_on_c, 1, 72, 72
2, 95735, Note_off_c, 1, 72, 0
2, 95760, Note_on_c, 1, 70, 72
2, 95855, Note_off_c, 1, 70, 0
2, 95880, Note_on_c, 1, 69, 72
2, 95975, Note_off_c, 1, 69, 0
2, 96000, Note_on_c, 1, 81, 79
2, 96385, Note_off_c, 1, 81, 0
2, 97440, Note_on_c, 1, 81, 77
2, 97825, Note_off_c, 1, 81, 0
2, 97920, Note_on_c, 1, 79, 76
2, 98305, Note_off_c, 1, 79, 0
2, 99360, Note_on_c, 1, 79, 75
2, 99745, Note_off_c, 1, 79, 0
2, 99840, Note_on_c, 1, 77, 74
2, 100225, Note_off_c, 1, 77, 0
2, 101280, Note_on_c, 1, 77, 73
2, 101665, Note_off_c, 1, 77, 0
2, 101760, Note_on_c, 1, 76, 72
2, 102145, Note_off_c, 1, 76, 0
2, 103200, Note_on_c, 1, 76, 70
2, 103585, Note_off_c, 1, 76, 0
2, 103680, Note_on_c, 1, 74, 70
2, 103775, Note_off_c, 1, 74, 0
2, 103800, Note_on_c, 1, 62, 70
2, 103895, Note_off_c, 1, 62, 0
2, 103920, Note_on_c, 1, 64, 71
2, 104015, Note_off_c, 1, 64, 0
2, 104040, Note_on_c, 1, 65, 71
2, 104135, Note_off_c, 1, 65, 0
2, 104160, Note_on_c, 1, 67, 72
2, 104255, Note_off_c, 1, 67, 0
2, 104280, Note_on_c, 1, 69, 72
2, 104375, Note_off_c, 1, 69, 0
2, 104400, Note_on_c, 1, 71, 73
2, 104495, Note_off_c, 1, 71, 0
2, 104520, Note_on_c, 1, 73, 73
2, 104615, Note_off_c, 1, 73, 0
2, 104640, Note_on_c, 1, 74, 74
2, 104735, Note_off_c, 1, 74, 0
2, 104760, Note_on_c, 1, 69, 74
2, 104855, Note_off_c, 1, 69, 0
2, 104880, Note_on_c, 1, 71, 75
2, 104975, Note_off_c, 1, 71, 0
2, 105000, Note_on_c, 1, 73, 76
2, 105095, Note_off_c, 1, 73, 0
2, 105120, Note_on_c, 1, 74, 76
2, 105215, Note_off_c, 1, 74, 0
2, 105240, Note_on_c, 1, 76, 77
2, 105335, Note_off_c, 1, 76, 0
2, 105360, Note_on_c, 1, 77, 77
2, 105455, Note_off_c, 1, 77, 0
2, 105480, Note_on_c, 1, 79, 78
2, 105575, Note_off_c, 1, 79, 0
2, 105600, Note_on_c, 1, 81, 78
2, 105695, Note_off_c, 1, 81, 0
2, 105720, Note_on_c, 1, 83, 79
2, 105815, Note_off_c, 1, 83, 0
2, 105840, Note_on_c, 1, 84, 79
2, 105935, Note_off_c, 1, 84, 0
2, 105960, Note_on_c, 1, 83, 80
2, 106055, Note_off_c, 1, 83, 0
2, 106080, Note_on_c, 1, 81, 80
2, 106175, Note_off_c, 1, 81, 0
2, 106200, Note_on_c, 1, 79, 81
2, 106295, Note_off_c, 1, 79, 0
2, 106320, Note_on_c, 1, 77, 81
2, 106415, Note_off_c, 1, 77, 0
2, 106440, Note_on_c, 1, 76, 82
2, 106535, Note_off_c, 1, 76, 0
2, 106560, Note_on_c, 1, 77, 82
2, 106655, Note_off_c, 1, 77, 0
2, 106680, Note_on_c, 1, 79, 83
2, 106775, Note_off_c, 1, 79, 0
2, 106800, Note_on_c, 1, 81, 83
2, 106895, Note_off_c, 1, 81, 0
2, 106920, Note_on_c, 1, 79, 84
2, 107015, Note_off_c, 1, 79, 0
2, 107040, Note_on_c, 1, 77, 84
2, 107135, Note_off_c, 1, 77, 0
2, 107160, Note_on_c, 1, 76, 85
2, 107255, Note_off_c, 1, 76, 0
2, 107280, Note_on_c, 1, 74, 85
2, 107375, Note_off_c, 1, 74, 0
2, 107400, Note_on_c, 1, 72, 86
2, 107495, Note_off_c, 1, 72, 0
2, 107520, Note_on_c, 1, 71, 86
2, 107710, Note_off_c, 1, 71, 0
2, 107760, Note_on_c, 1, 79, 87
2, 107950, Note_off_c, 1, 79, 0
2, 108000, Note_on_c, 1, 76, 88
2, 108190, Note_off_c, 1, 76, 0
2, 108240, Note_on_c, 1, 72, 89
2, 108430, Note_off_c, 1, 72, 0
2, 108480, Note_on_c, 1, 74, 90
2, 108670, Note_off_c, 1, 74, 0
2, 108720, Note_on_c, 1, 79, 91
2, 108910, Note_off_c, 1, 79, 0
2, 108960, Note_on_c, 1, 76, 92
2, 109150, Note_off_c, 1, 76, 0
2, 109200, Note_on_c, 1, 72, 93
2, 109390, Note_off_c, 1, 72, 0
2, 109440, Note_on_c, 1, 74, 95
2, 109750, Note_off_c, 1, 74, 0
2, 109920, Note_on_c, 1, 79, 90
2, 110230, Note_off_c, 1, 79, 0
2, 110400, Note_on_c, 1, 67, 85
2, 110760, Note_off_c, 1, 67, 0
2, 113280, Note_on_c, 1, 79, 58
2, 113520, Note_off_c, 1, 79, 0
2, 113520, Note_on_c, 1, 76, 57
2, 113710, Note_off_c, 1, 76, 0
2, 113760, Note_on_c, 1, 72, 57
2, 114480, Note_off_c, 1, 72, 0
2, 114480, Note_on_c, 1, 74, 56
2, 114600, Note_off_c, 1, 74, 0
2, 114600, Note_on_c, 1, 76, 56
2, 114720, Note_off_c, 1, 76, 0
2, 114720, Note_on_c, 1, 74, 56
2, 114875, Note_off_c, 1, 74, 0
2, 114960, Note_on_c, 1, 72, 55
2, 115115, Note_off_c, 1, 72, 0
2, 115200, Note_on_c, 1, 72, 55
2, 115260, Note_off_c, 1, 72, 0
2, 115260, Note_on_c, 1, 74, 55
2, 115320, Note_off_c, 1, 74, 0
2, 115320, Note_on_c, 1, 72, 55
2, 115380, Note_off_c, 1, 72, 0
2, 115380, Note_on_c, 1, 74, 54
2, 115440, Note_off_c, 1, 74, 0
2, 115440, Note_on_c, 1, 72, 54
2, 115560, Note_off_c, 1, 72, 0
2, 115560, Note_on_c, 1, 71, 54
2, 115656, Note_off_c, 1, 71, 0
2, 115680, Note_on_c, 1, 71, 54
2, 116160, Note_off_c, 1, 71, 0
2, 117120, Note_on_c, 1, 79, 52
2, 117360, Note_off_c, 1, 79, 0
2, 117360, Note_on_c, 1, 76, 51
2, 117550, Note_off_c, 1, 76, 0
2, 117600, Note_on_c, 1, 72, 51
2, 118320, Note_off_c, 1, 72, 0
2, 118320, Note_on_c, 1, 74, 50
2, 118440, Note_off_c, 1, 74, 0
2, 118440, Note_on_c, 1, 76, 50
2, 118560, Note_off_c, 1, 76, 0
2, 118560, Note_on_c, 1, 74, 49
2, 118715, Note_off_c, 1, 74, 0
2, 118800, Note_on_c, 1, 72, 49
2, 118955, Note_off_c, 1, 72, 0
2, 119040, Note_on_c, 1, 72, 49
2, 119100, Note_off_c, 1, 72, 0
2, 119100, Note_on_c, 1, 74, 48
2, 119160, Note_off_c, 1, 74, 0
2, 119160, Note_on_c, 1, 72, 48
2, 119220, Note_off_c, 1, 72, 0
2, 119220, Note_on_c, 1, 74, 48
2, 119280, Note_off_c, 1, 74, 0
2, 119280, Note_on_c, 1, 72, 48
2, 119400, Note_off_c, 1, 72, 0
2, 119400, Note_on_c, 1, 71, 48
2, 119496, Note_off_c, 1, 71, 0
2, 119520, Note_on_c, 1, 71, 48
2, 120000, Note_off_c, 1, 71, 0
2, 120960, Note_on_c, 1, 79, 87
2, 121345, Note_off_c, 1, 79, 0
2, 121560, Note_on_c, 1, 79, 86
2, 121655, Note_off_c, 1, 79, 0
2, 121680, Note_on_c, 1, 76, 86
2, 121775, Note_off_c, 1, 76, 0
2, 121800, Note_on_c, 1, 72, 86
2, 121895, Note_off_c, 1, 72, 0
2, 121920, Note_on_c, 1, 69, 86
2, 122305, Note_off_c, 1, 69, 0
2, 122520, Note_on_c, 1, 69, 84
2, 122615, Note_off_c, 1, 69, 0
2, 122640, Note_on_c, 1, 72, 84
2, 122735, Note_off_c, 1, 72, 0
2, 122760, Note_on_c, 1, 69, 84
2, 122855, Note_off_c, 1, 69, 0
2, 122880, Note_on_c, 1, 77, 84
2, 123265, Note_off_c, 1, 77, 0
2, 123480, Note_on_c, 1, 77, 82
2, 123575, Note_off_c, 1, 77, 0
2, 123600, Note_on_c, 1, 74, 82
2, 123695, Note_off_c, 1, 74, 0
2, 123720, Note_on_c, 1, 71, 82
2, 123815, Note_off_c, 1, 71, 0
2, 123840, Note_on_c, 1, 67, 82
2, 124225, Note_off_c, 1, 67, 0
2, 124440, Note_on_c, 1, 79, 80
2, 124535, Note_off_c, 1, 79, 0
2, 124560, Note_on_c, 1, 83, 80
2, 124655, Note_off_c, 1, 83, 0
2, 124680, Note_on_c, 1, 79, 80
2, 124775, Note_off_c, 1, 79, 0
2, 124800, Note_on_c, 1, 88, 85
2, 125185, Note_off_c, 1, 88, 0
2, 125400, Note_on_c, 1, 88, 84
2, 125495, Note_off_c, 1, 88, 0
2, 125520, Note_on_c, 1, 84, 83
2, 125615, Note_off_c, 1, 84, 0
2, 125640, Note_on_c, 1, 81, 83
2, 125735, Note_off_c, 1, 81, 0
2, 125760, Note_on_c, 1, 77, 83
2, 126145, Note_off_c, 1, 77, 0
2, 126360, Note_on_c, 1, 77, 81
2, 126455, Note_off_c, 1, 77, 0
2, 126480, Note_on_c, 1, 81, 80
2, 126575, Note_off_c, 1, 81, 0
2, 126600, Note_on_c, 1, 77, 80
2, 126695, Note_off_c, 1, 77, 0
2, 126720, Note_on_c, 1, 86, 80
2, 127105, Note_off_c, 1, 86, 0
2, 127320, Note_on_c, 1, 86, 78
2, 127415, Note_off_c, 1, 86, 0
2, 127440, Note_on_c, 1, 83, 78
2, 127535, Note_off_c, 1, 83, 0
2, 127560, Note_on_c, 1, 79, 77
2, 127655, Note_off_c, 1, 79, 0
2, 127680, Note_on_c, 1, 76, 77
2, 128065, Note_off_c, 1, 76, 0
2, 128280, Note_on_c, 1, 84, 75
2, 128375, Note_off_c, 1, 84, 0
2, 128400, Note_on_c, 1, 79, 75
2, 128495, Note_off_c, 1, 79, 0
2, 128520, Note_on_c, 1, 76, 74
2, 128615, Note_off_c, 1, 76, 0
2, 128640, Note_on_c, 1, 74, 74
2, 129600, Note_off_c, 1, 74, 0
2, 129600, Note_on_c, 1, 73, 60
2, 129660, Note_on_c, 1, 74, 60
2, 129720, Note_off_c, 1, 73, 0
2, 130070, Note_off_c, 1, 74, 0
2, 130080, Note_on_c, 1, 73, 62
2, 130140, Note_on_c, 1, 74, 62
2, 130200, Note_off_c, 1, 73, 0
2, 130550, Note_off_c, 1, 74, 0
2, 130560, Note_on_c, 1, 81, 64
2, 131520, Note_off_c, 1, 81, 0
2, 131520, Note_on_c, 1, 80, 69
2, 131580, Note_on_c, 1, 81, 69
2, 131640, Note_off_c, 1, 80, 0
2, 131990, Note_off_c, 1, 81, 0
2, 132000, Note_on_c, 1, 80, 71
2, 132060, Note_on_c, 1, 81, 72
2, 132120, Note_off_c, 1, 80, 0
2, 132472, Note_off_c, 1, 81, 0
2, 132480, Note_on_c, 1, 79, 74
2, 132720, Note_off_c, 1, 79, 0
2, 132720, Note_on_c, 1, 81, 75
2, 132840, Note_off_c, 1, 81, 0
2, 132840, Note_on_c, 1, 83, 76
2, 132960, Note_off_c, 1, 83, 0
2, 132960, Note_on_c, 1, 84, 76
2, 133080, Note_off_c, 1, 84, 0
2, 133080, Note_on_c, 1, 86, 77
2, 133200, Note_off_c, 1, 86, 0
2, 133200, Note_on_c, 1, 88, 77
2, 133320, Note_off_c, 1, 88, 0
2, 133320, Note_on_c, 1, 86, 78
2, 133440, Note_off_c, 1, 86, 0
2, 133440, Note_on_c, 1, 84, 79
2, 133560, Note_off_c, 1, 84, 0
2, 133560, Note_on_c, 1, 83, 79
2, 133680, Note_off_c, 1, 83, 0
2, 133680, Note_on_c, 1, 81, 80
2, 133800, Note_off_c, 1, 81, 0
2, 133800, Note_on_c, 1, 79, 80
2, 133920, Note_off_c, 1, 79, 0
2, 133920, Note_on_c, 1, 77, 81
2, 134040, Note_off_c, 1, 77, 0
2, 134040, Note_on_c, 1, 76, 82
2, 134160, Note_off_c, 1, 76, 0
2, 134160, Note_on_c, 1, 74, 82
2, 134280, Note_off_c, 1, 74, 0
2, 134280, Note_on_c, 1, 72, 83
2, 134376, Note_off_c, 1, 72, 0
2, 134400, Note_on_c, 1, 74, 82
2, 134480, Note_off_c, 1, 74, 0
2, 136320, Note_on_c, 1, 72, 89
2, 136705, Note_off_c, 1, 72, 0
2, 136800, Note_on_c, 1, 72, 88
2, 136895, Note_off_c, 1, 72, 0
2, 136920, Note_on_c, 1, 67, 87
2, 137015, Note_off_c, 1, 67, 0
2, 137040, Note_on_c, 1, 72, 87
2, 137135, Note_off_c, 1, 72, 0
2, 137160, Note_on_c, 1, 76, 86
2, 137255, Note_off_c, 1, 76, 0
2, 137280, Note_on_c, 1, 79, 86
2, 137375, Note_off_c, 1, 79, 0
2, 137400, Note_on_c, 1, 76, 86
2, 137495, Note_off_c, 1, 76, 0
2, 137520, Note_on_c, 1, 72, 85
2, 137615, Note_off_c, 1, 72, 0
2, 137640, Note_on_c, 1, 76, 85
2, 137735, Note_off_c, 1, 76, 0
2, 137760, Note_on_c, 1, 77, 84
2, 137855, Note_off_c, 1, 77, 0
2, 137880, Note_on_c, 1, 74, 84
2, 137975, Note_off_c, 1, 74, 0
2, 138000, Note_on_c, 1, 71, 84
2, 138095, Note_off_c, 1, 71, 0
2, 138120, Note_on_c, 1, 74, 83
2, 138215, Note_off_c, 1, 74, 0
2, 138240, Note_on_c, 1, 72, 83
2, 138625, Note_off_c, 1, 72, 0
2, 138720, Note_on_c, 1, 60, 81
2, 138815, Note_off_c, 1, 60, 0
2, 138840, Note_on_c, 1, 55, 81
2, 138935, Note_off_c, 1, 55, 0
2, 138960, Note_on_c, 1, 60, 80
2, 139055, Note_off_c, 1, 60, 0
2, 139080, Note_on_c, 1, 64, 80
2, 139175, Note_off_c, 1, 64, 0
2, 139200, Note_on_c, 1, 67, 80
2, 139295, Note_off_c, 1, 67, 0
2, 139320, Note_on_c, 1, 64, 79
2, 139415, Note_off_c, 1, 64, 0
2, 139440, Note_on_c, 1, 60, 79
2, 139535, Note_off_c, 1, 60, 0
2, 139560, Note_on_c, 1, 64, 78
2, 139655, Note_off_c, 1, 64, 0
2, 139680, Note_on_c, 1, 65, 78
2, 139775, Note_off_c, 1, 65, 0
2, 139800, Note_on_c, 1, 62, 78
2, 139895, Note_off_c, 1, 62, 0
2, 139920, Note_on_c, 1, 59, 77
2, 140015, Note_off_c, 1, 59, 0
2, 140040, Note_on_c, 1, 62, 77
2, 140135, Note_off_c, 1, 62, 0
2, 140160, Note_on_c, 1, 60, 77
2, 140448, Note_off_c, 1, 60, 0
2, 140640, Note_on_c, 1, 84, 74
2, 140950, Note_off_c, 1, 84, 0
2, 141120, Note_on_c, 1, 72, 70
2, 141487, Note_off_c, 1, 72, 0
2, 144000, Control_c, 1, 64, 0
2, 144000, Note_on_c, 1, 71, 36
2, 144960, Note_off_c, 1, 71, 0
2, 144960, Note_on_c, 1, 74, 40
2, 145080, Note_off_c, 1, 74, 0
2, 145080, Note_on_c, 1, 72, 42
2, 145200, Note_off_c, 1, 72, 0
2, 145200, Note_on_c, 1, 71, 43
2, 145320, Note_off_c, 1, 71, 0
2, 145320, Note_on_c, 1, 72, 44
2, 145440, Note_off_c, 1, 72, 0
2, 145440, Note_on_c, 1, 74, 46
2, 145800, Note_off_c, 1, 74, 0
2, 145800, Note_on_c, 1, 71, 41
2, 145920, Note_off_c, 1, 71, 0
2, 145920, Note_on_c, 1, 67, 39
2, 146400, Note_off_c, 1, 67, 0
2, 146880, Note_on_c, 1, 79, 40
2, 147600, Note_off_c, 1, 79, 0
2, 147600, Note_on_c, 1, 81, 42
2, 147720, Note_off_c, 1, 81, 0
2, 147720, Note_on_c, 1, 79, 43
2, 147840, Note_off_c, 1, 79, 0
2, 147840, Note_on_c, 1, 78, 45
2, 147960, Note_off_c, 1, 78, 0
2, 147960, Note_on_c, 1, 76, 46
2, 148080, Note_off_c, 1, 76, 0
2, 148080, Note_on_c, 1, 74, 48
2, 148200, Note_off_c, 1, 74, 0
2, 148200, Note_on_c, 1, 73, 50
2, 148320, Note_off_c, 1, 73, 0
2, 148320, Note_on_c, 1, 74, 51
2, 148680, Note_off_c, 1, 74, 0
2, 148680, Note_on_c, 1, 71, 46
2, 148800, Note_off_c, 1, 71, 0
2, 148800, Note_on_c, 1, 67, 45
2, 149280, Note_off_c, 1, 67, 0
2, 149760, Note_on_c, 1, 72, 42
2, 150120, Note_off_c, 1, 72, 0
2, 150120, Note_on_c, 1, 69, 44
2, 150240, Note_off_c, 1, 69, 0
2, 150240, Note_on_c, 1, 66, 45
2, 150395, Note_off_c, 1, 66, 0
2, 150480, Note_on_c, 1, 69, 47
2, 150635, Note_off_c, 1, 69, 0
2, 150720, Note_on_c, 1, 71, 49
2, 150875, Note_off_c, 1, 71, 0
2, 150960, Note_on_c, 1, 72, 50
2, 151115, Note_off_c, 1, 72, 0
2, 151200, Note_on_c, 1, 74, 52
2, 151560, Note_off_c, 1, 74, 0
2, 151560, Note_on_c, 1, 71, 55
2, 151680, Note_off_c, 1, 71, 0
2, 151680, Note_on_c, 1, 79, 56
2, 152160, Note_off_c, 1, 79, 0
2, 152640, Note_on_c, 1, 81, 63
2, 152760, Note_off_c, 1, 81, 0
2, 152760, Note_on_c, 1, 79, 61
2, 152880, Note_off_c, 1, 79, 0
2, 152880, Note_on_c, 1, 78, 59
2, 153000, Note_off_c, 1, 78, 0
2, 153000, Note_on_c, 1, 79, 57
2, 153120, Note_off_c, 1, 79, 0
2, 153120, Note_on_c, 1, 78, 55
2, 153240, Note_off_c, 1, 78, 0
2, 153240, Note_on_c, 1, 76, 53
2, 153360, Note_off_c, 1, 76, 0
2, 153360, Note_on_c, 1, 75, 52
2, 153480, Note_off_c, 1, 75, 0
2, 153480, Note_on_c, 1, 76, 50
2, 153600, Note_off_c, 1, 76, 0
2, 153600, Note_on_c, 1, 74, 48
2, 153720, Note_off_c, 1, 74, 0
2, 153720, Note_on_c, 1, 72, 46
2, 153840, Note_off_c, 1, 72, 0
2, 153840, Note_on_c, 1, 71, 44
2, 153960, Note_off_c, 1, 71, 0
2, 153960, Note_on_c, 1, 72, 42
2, 154080, Note_off_c, 1, 72, 0
2, 154080, Note_on_c, 1, 71, 44
2, 154440, Note_off_c, 1, 71, 0
2, 154440, Note_on_c, 1, 72, 38
2, 154500, Note_off_c, 1, 72, 0
2, 154500, Note_on_c, 1, 71, 37
2, 154560, Note_off_c, 1, 71, 0
2, 154560, Note_on_c, 1, 69, 36
2, 154750, Note_off_c, 1, 69, 0
2, 154800, Note_on_c, 1, 74, 32
2, 155040, Note_off_c, 1, 74, 0
2, 155040, Note_on_c, 1, 73, 33
2, 155280, Note_off_c, 1, 73, 0
2, 155280, Note_on_c, 1, 72, 34
2, 155520, Note_off_c, 1, 72, 0
2, 155520, Note_on_c, 1, 71, 37
2, 156120, Note_off_c, 1, 71, 0
2, 156120, Note_on_c, 1, 67, 41
2, 156240, Note_off_c, 1, 67, 0
2, 156240, Note_on_c, 1, 71, 42
2, 156360, Note_off_c, 1, 71, 0
2, 156360, Note_on_c, 1, 74, 43
2, 156480, Note_off_c, 1, 74, 0
2, 156480, Note_on_c, 1, 72, 44
2, 156600, Note_off_c, 1, 72, 0
2, 156600, Note_on_c, 1, 69, 45
2, 156720, Note_off_c, 1, 69, 0
2, 156720, Note_on_c, 1, 72, 45
2, 156840, Note_off_c, 1, 72, 0
2, 156840, Note_on_c, 1, 76, 46
2, 156960, Note_off_c, 1, 76, 0
2, 156960, Note_on_c, 1, 74, 48
2, 157320, Note_off_c, 1, 74, 0
2, 157320, Note_on_c, 1, 71, 47
2, 157440, Note_off_c, 1, 71, 0
2, 157440, Note_on_c, 1, 67, 46
2, 157520, Note_off_c, 1, 67, 0
2, 157560, Note_on_c, 1, 67, 45
2, 157640, Note_off_c, 1, 67, 0
2, 157680, Note_on_c, 1, 69, 44
2, 157760, Note_off_c, 1, 69, 0
2, 157800, Note_on_c, 1, 71, 44
2, 157880, Note_off_c, 1, 71, 0
2, 157920, Note_on_c, 1, 72, 43
2, 158000, Note_off_c, 1, 72, 0
2, 158040, Note_on_c, 1, 74, 42
2, 158120, Note_off_c, 1, 74, 0
2, 158160, Note_on_c, 1, 76, 41
2, 158240, Note_off_c, 1, 76, 0
2, 158280, Note_on_c, 1, 78, 40
2, 158360, Note_off_c, 1, 78, 0
2, 158400, Note_on_c, 1, 79, 42
2, 158520, Note_off_c, 1, 79, 0
2, 158520, Note_on_c, 1, 78, 43
2, 158640, Note_off_c, 1, 78, 0
2, 158640, Note_on_c, 1, 79, 44
2, 158760, Note_off_c, 1, 79, 0
2, 158760, Note_on_c, 1, 78, 45
2, 158880, Note_off_c, 1, 78, 0
2, 158880, Note_on_c, 1, 81, 46
2, 159000, Note_off_c, 1, 81, 0
2, 159000, Note_on_c, 1, 79, 46
2, 159120, Note_off_c, 1, 79, 0
2, 159120, Note_on_c, 1, 78, 47
2, 159240, Note_off_c, 1, 78, 0
2, 159240, Note_on_c, 1, 79, 48
2, 159360, Note_off_c, 1, 79, 0
2, 159360, Note_on_c, 1, 78, 49
2, 159480, Note_off_c, 1, 78, 0
2, 159480, Note_on_c, 1, 76, 50
2, 159600, Note_off_c, 1, 76, 0
2, 159600, Note_on_c, 1, 74, 51
2, 159720, Note_off_c, 1, 74, 0
2, 159720, Note_on_c, 1, 73, 52
2, 159840, Note_off_c, 1, 73, 0
2, 159840, Note_on_c, 1, 74, 55
2, 159960, Note_off_c, 1, 74, 0
2, 159960, Note_on_c, 1, 71, 53
2, 160080, Note_off_c, 1, 71, 0
2, 160080, Note_on_c, 1, 74, 51
2, 160200, Note_off_c, 1, 74, 0
2, 160200, Note_on_c, 1, 71, 50
2, 160320, Note_off_c, 1, 71, 0
2, 160320, Note_on_c, 1, 67, 48
2, 160800, Note_off_c, 1, 67, 0
2, 161280, Note_on_c, 1, 72, 44
2, 161400, Note_off_c, 1, 72, 0
2, 161400, Note_on_c, 1, 69, 45
2, 161520, Note_off_c, 1, 69, 0
2, 161520, Note_on_c, 1, 72, 46
2, 161640, Note_off_c, 1, 72, 0
2, 161640, Note_on_c, 1, 69, 47
2, 161760, Note_off_c, 1, 69, 0
2, 161760, Note_on_c, 1, 66, 49
2, 161840, Note_off_c, 1, 66, 0
2, 161880, Note_on_c, 1, 69, 50
2, 162000, Note_off_c, 1, 69, 0
2, 162000, Note_on_c, 1, 68, 51
2, 162120, Note_off_c, 1, 68, 0
2, 162120, Note_on_c, 1, 69, 52
2, 162240, Note_off_c, 1, 69, 0
2, 162240, Note_on_c, 1, 70, 53
2, 162360, Note_off_c, 1, 70, 0
2, 162360, Note_on_c, 1, 71, 54
2, 162480, Note_off_c, 1, 71, 0
2, 162480, Note_on_c, 1, 72, 55
2, 162600, Note_off_c, 1, 72, 0
2, 162600, Note_on_c, 1, 73, 56
2, 162696, Note_off_c, 1, 73, 0
2, 162720, Note_on_c, 1, 74, 58
2, 162840, Note_off_c, 1, 74, 0
2, 162840, Note_on_c, 1, 71, 59
2, 162960, Note_off_c, 1, 71, 0
2, 162960, Note_on_c, 1, 74, 60
2, 163080, Note_off_c, 1, 74, 0
2, 163080, Note_on_c, 1, 71, 61
2, 163200, Note_on_c, 1, 79, 62
2, 163207, Note_off_c, 1, 71, 0
2, 163680, Note_off_c, 1, 79, 0
2, 163800, Note_on_c, 1, 83, 68
2, 163920, Note_off_c, 1, 83, 0
2, 163920, Note_on_c, 1, 78, 69
2, 164040, Note_off_c, 1, 78, 0
2, 164040, Note_on_c, 1, 79, 70
2, 164160, Note_off_c, 1, 79, 0
2, 164160, Note_on_c, 1, 75, 72
2, 164280, Note_off_c, 1, 75, 0
2, 164280, Note_on_c, 1, 76, 71
2, 164400, Note_off_c, 1, 76, 0
2, 164400, Note_on_c, 1, 72, 69
2, 164520, Note_off_c, 1, 72, 0
2, 164520, Note_on_c, 1, 69, 67
2, 164640, Note_off_c, 1, 69, 0
2, 164640, Note_on_c, 1, 67, 65
2, 164970, Note_off_c, 1, 67, 0
2, 165000, Note_on_c, 1, 67, 59
2, 165096, Note_off_c, 1, 67, 0
2, 165120, Note_on_c, 1, 71, 57
2, 165240, Note_off_c, 1, 71, 0
2, 165240, Note_on_c, 1, 69, 55
2, 165360, Note_off_c, 1, 69, 0
2, 165360, Note_on_c, 1, 67, 53
2, 165480, Note_off_c, 1, 67, 0
2, 165480, Note_on_c, 1, 69, 51
2, 165576, Note_off_c, 1, 69, 0
2, 165600, Note_on_c, 1, 69, 54
2, 166080, Note_off_c, 1, 69, 0
2, 166080, Note_on_c, 1, 67, 40
2, 166560, Note_off_c, 1, 67, 0
2, 167040, Note_on_c, 1, 74, 30
2, 167640, Note_off_c, 1, 74, 0
2, 167640, Note_on_c, 1, 73, 33
2, 167760, Note_off_c, 1, 73, 0
2, 167760, Note_on_c, 1, 76, 34
2, 167880, Note_off_c, 1, 76, 0
2, 167880, Note_on_c, 1, 74, 35
2, 168000, Note_off_c, 1, 74, 0
2, 168000, Note_on_c, 1, 79, 36
2, 168120, Note_off_c, 1, 79, 0
2, 168120, Note_on_c, 1, 78, 37
2, 168240, Note_off_c, 1, 78, 0
2, 168240, Note_on_c, 1, 76, 38
2, 168360, Note_off_c, 1, 76, 0
2, 168360, Note_on_c, 1, 74, 39
2, 168480, Note_off_c, 1, 74, 0
2, 168480, Note_on_c, 1, 73, 41
2, 168840, Note_off_c, 1, 73, 0
2, 168840, Note_on_c, 1, 74, 36
2, 168960, Note_off_c, 1, 74, 0
2, 168960, Note_on_c, 1, 76, 35
2, 169440, Note_off_c, 1, 76, 0
2, 169920, Note_on_c, 1, 76, 34
2, 170520, Note_off_c, 1, 76, 0
2, 170520, Note_on_c, 1, 75, 37
2, 170640, Note_off_c, 1, 75, 0
2, 170640, Note_on_c, 1, 78, 39
2, 170760, Note_off_c, 1, 78, 0
2, 170760, Note_on_c, 1, 76, 40
2, 170880, Note_off_c, 1, 76, 0
2, 170880, Note_on_c, 1, 81, 41
2, 171000, Note_off_c, 1, 81, 0
2, 171000, Note_on_c, 1, 79, 42
2, 171120, Note_off_c, 1, 79, 0
2, 171120, Note_on_c, 1, 78, 44
2, 171240, Note_off_c, 1, 78, 0
2, 171240, Note_on_c, 1, 76, 45
2, 171360, Note_off_c, 1, 76, 0
2, 171360, Note_on_c, 1, 74, 47
2, 171720, Note_off_c, 1, 74, 0
2, 171720, Note_on_c, 1, 76, 40
2, 171840, Note_off_c, 1, 76, 0
2, 171840, Note_on_c, 1, 78, 38
2, 172320, Note_off_c, 1, 78, 0
2, 172800, Note_on_c, 1, 78, 59
2, 173400, Note_off_c, 1, 78, 0
2, 173400, Note_on_c, 1, 76, 53
2, 173520, Note_off_c, 1, 76, 0
2, 173520, Note_on_c, 1, 79, 52
2, 173640, Note_off_c, 1, 79, 0
2, 173640, Note_on_c, 1, 78, 51
2, 173760, Note_off_c, 1, 78, 0
2, 173760, Note_on_c, 1, 83, 50
2, 173880, Note_off_c, 1, 83, 0
2, 173880, Note_on_c, 1, 81, 49
2, 174000, Note_off_c, 1, 81, 0
2, 174000, Note_on_c, 1, 79, 47
2, 174120, Note_off_c, 1, 79, 0
2, 174120, Note_on_c, 1, 78, 46
2, 174216, Note_off_c, 1, 78, 0
2, 174240, Note_on_c, 1, 76, 51
2, 174840, Note_off_c, 1, 76, 0
2, 174840, Note_on_c, 1, 75, 46
2, 174960, Note_off_c, 1, 75, 0
2, 174960, Note_on_c, 1, 78, 45
2, 175080, Note_off_c, 1, 78, 0
2, 175080, Note_on_c, 1, 76, 44
2, 175200, Note_off_c, 1, 76, 0
2, 175200, Note_on_c, 1, 81, 43
2, 175320, Note_off_c, 1, 81, 0
2, 175320, Note_on_c, 1, 79, 42
2, 175440, Note_off_c, 1, 79, 0
2, 175440, Note_on_c, 1, 78, 41
2, 175560, Note_off_c, 1, 78, 0
2, 175560, Note_on_c, 1, 76, 40
2, 175656, Note_off_c, 1, 76, 0
2, 175680, Note_on_c, 1, 76, 45
2, 175800, Note_off_c, 1, 76, 0
2, 175800, Note_on_c, 1, 74, 43
2, 175896, Note_off_c, 1, 74, 0
2, 175920, Note_on_c, 1, 74, 41
2, 176257, Note_off_c, 1, 74, 0
2, 176280, Note_on_c, 1, 69, 40
2, 176400, Note_off_c, 1, 69, 0
2, 176400, Note_on_c, 1, 74, 39
2, 176520, Note_off_c, 1, 74, 0
2, 176520, Note_on_c, 1, 78, 38
2, 176616, Note_off_c, 1, 78, 0
2, 176640, Note_on_c, 1, 78, 37
2, 176760, Note_off_c, 1, 78, 0
2, 176760, Note_on_c, 1, 76, 36
2, 176880, Note_off_c, 1, 76, 0
2, 176880, Note_on_c, 1, 74, 35
2, 177000, Note_off_c, 1, 74, 0
2, 177000, Note_on_c, 1, 76, 34
2, 177096, Note_off_c, 1, 76, 0
2, 177120, Note_on_c, 1, 76, 36
2, 177600, Note_off_c, 1, 76, 0
2, 177600, Note_on_c, 1, 74, 32
2, 177705, Note_off_c, 1, 74, 0
2, 177720, Note_on_c, 1, 75, 31
2, 177840, Note_off_c, 1, 75, 0
2, 177840, Note_on_c, 1, 76, 31
2, 177960, Note_off_c, 1, 76, 0
2, 177960, Note_on_c, 1, 75, 30
2, 178080, Note_off_c, 1, 75, 0
2, 178080, Note_on_c, 1, 78, 29
2, 178200, Note_off_c, 1, 78, 0
2, 178200, Note_on_c, 1, 76, 29
2, 178320, Note_off_c, 1, 76, 0
2, 178320, Note_on_c, 1, 74, 28
2, 178440, Note_off_c, 1, 74, 0
2, 178440, Note_on_c, 1, 72, 28
2, 178560, Note_off_c, 1, 72, 0
2, 178560, Note_on_c, 1, 71, 36
2, 179160, Note_off_c, 1, 71, 0
2, 179160, Note_on_c, 1, 67, 39
2, 179280, Note_off_c, 1, 67, 0
2, 179280, Note_on_c, 1, 71, 40
2, 179400, Note_off_c, 1, 71, 0
2, 179400, Note_on_c, 1, 74, 41
2, 179520, Note_off_c, 1, 74, 0
2, 179520, Note_on_c, 1, 72, 42
2, 179640, Note_off_c, 1, 72, 0
2, 179640, Note_on_c, 1, 69, 43
2, 179760, Note_off_c, 1, 69, 0
2, 179760, Note_on_c, 1, 72, 44
2, 179880, Note_off_c, 1, 72, 0
2, 179880, Note_on_c, 1, 76, 45
2, 180000, Note_off_c, 1, 76, 0
2, 180000, Note_on_c, 1, 74, 46
2, 180360, Note_off_c, 1, 74, 0
2, 180360, Note_on_c, 1, 71, 43
2, 180480, Note_off_c, 1, 71, 0
2, 180480, Note_on_c, 1, 67, 42
2, 180560, Note_off_c, 1, 67, 0
2, 180600, Note_on_c, 1, 67, 41
2, 180680, Note_off_c, 1, 67, 0
2, 180720, Note_on_c, 1, 69, 40
2, 180800, Note_off_c, 1, 69, 0
2, 180840, Note_on_c, 1, 71, 39
2, 180920, Note_off_c, 1, 71, 0
2, 180960, Note_on_c, 1, 72, 38
2, 181040, Note_off_c, 1, 72, 0
2, 181080, Note_on_c, 1, 74, 38
2, 181160, Note_off_c, 1, 74, 0
2, 181200, Note_on_c, 1, 76, 37
2, 181280, Note_off_c, 1, 76, 0
2, 181320, Note_on_c, 1, 78, 36
2, 181400, Note_off_c, 1, 78, 0
2, 181440, Note_on_c, 1, 79, 40
2, 181560, Note_off_c, 1, 79, 0
2, 181560, Note_on_c, 1, 78, 41
2, 181680, Note_off_c, 1, 78, 0
2, 181680, Note_on_c, 1, 79, 42
2, 181800, Note_off_c, 1, 79, 0
2, 181800, Note_on_c, 1, 78, 43
2, 181920, Note_off_c, 1, 78, 0
2, 181920, Note_on_c, 1, 81, 44
2, 182040, Note_off_c, 1, 81, 0
2, 182040, Note_on_c, 1, 79, 45
2, 182160, Note_off_c, 1, 79, 0
2, 182160, Note_on_c, 1, 78, 46
2, 182280, Note_off_c, 1, 78, 0
2, 182280, Note_on_c, 1, 79, 47
2, 182400, Note_off_c, 1, 79, 0
2, 182400, Note_on_c, 1, 78, 48
2, 182520, Note_off_c, 1, 78, 0
2, 182520, Note_on_c, 1, 76, 49
2, 182640, Note_off_c, 1, 76, 0
2, 182640, Note_on_c, 1, 74, 50
2, 182760, Note_off_c, 1, 74, 0
2, 182760, Note_on_c, 1, 73, 51
2, 182880, Note_off_c, 1, 73, 0
2, 182880, Note_on_c, 1, 74, 52
2, 183000, Note_off_c, 1, 74, 0
2, 183000, Note_on_c, 1, 71, 51
2, 183120, Note_off_c, 1, 71, 0
2, 183120, Note_on_c, 1, 74, 49
2, 183240, Note_off_c, 1, 74, 0
2, 183240, Note_on_c, 1, 71, 48
2, 183360, Note_off_c, 1, 71, 0
2, 183360, Note_on_c, 1, 67, 46
2, 183840, Note_off_c, 1, 67, 0
2, 184320, Note_on_c, 1, 72, 44
2, 184440, Note_off_c, 1, 72, 0
2, 184440, Note_on_c, 1, 69, 45
2, 184560, Note_off_c, 1, 69, 0
2, 184560, Note_on_c, 1, 72, 46
2, 184680, Note_off_c, 1, 72, 0
2, 184680, Note_on_c, 1, 69, 47
2, 184800, Note_off_c, 1, 69, 0
2, 184800, Note_on_c, 1, 66, 48
2, 184880, Note_off_c, 1, 66, 0
2, 184920, Note_on_c, 1, 69, 49
2, 185040, Note_off_c, 1, 69, 0
2, 185040, Note_on_c, 1, 68, 50
2, 185160, Note_off_c, 1, 68, 0
2, 185160, Note_on_c, 1, 69, 51
2, 185280, Note_off_c, 1, 69, 0
2, 185280, Note_on_c, 1, 70, 52
2, 185400, Note_off_c, 1, 70, 0
2, 185400, Note_on_c, 1, 71, 53
2, 185520, Note_off_c, 1, 71, 0
2, 185520, Note_on_c, 1, 72, 53
2, 185640, Note_off_c, 1, 72, 0
2, 185640, Note_on_c, 1, 73, 54
2, 185760, Note_off_c, 1, 73, 0
2, 185760, Note_on_c, 1, 74, 55
2, 185880, Note_off_c, 1, 74, 0
2, 185880, Note_on_c, 1, 71, 56
2, 186000, Note_off_c, 1, 71, 0
2, 186000, Note_on_c, 1, 74, 57
2, 186120, Note_off_c, 1, 74, 0
2, 186120, Note_on_c, 1, 71, 58
2, 186240, Note_off_c, 1, 71, 0
2, 186240, Note_on_c, 1, 79, 59
2, 186720, Note_off_c, 1, 79, 0
2, 186840, Note_on_c, 1, 83, 61
2, 186960, Note_off_c, 1, 83, 0
2, 186960, Note_on_c, 1, 78, 62
2, 187080, Note_off_c, 1, 78, 0
2, 187080, Note_on_c, 1, 79, 62
2, 187200, Note_off_c, 1, 79, 0
2, 187200, Note_on_c, 1, 75, 66
2, 187320, Note_off_c, 1, 75, 0
2, 187320, Note_on_c, 1, 76, 62
2, 187440, Note_off_c, 1, 76, 0
2, 187440, Note_on_c, 1, 72, 60
2, 187560, Note_off_c, 1, 72, 0
2, 187560, Note_on_c, 1, 69, 58
2, 187680, Note_off_c, 1, 69, 0
2, 187680, Note_on_c, 1, 67, 56
2, 188017, Note_off_c, 1, 67, 0
2, 188040, Note_on_c, 1, 67, 50
2, 188136, Note_off_c, 1, 67, 0
2, 188160, Note_on_c, 1, 71, 49
2, 188280, Note_off_c, 1, 71, 0
2, 188280, Note_on_c, 1, 69, 47
2, 188400, Note_off_c, 1, 69, 0
2, 188400, Note_on_c, 1, 67, 45
2, 188520, Note_off_c, 1, 67, 0
2, 188520, Note_on_c, 1, 69, 43
2, 188616, Note_off_c, 1, 69, 0
2, 188640, Note_on_c, 1, 69, 44
2, 189120, Note_off_c, 1, 69, 0
2, 189120, Note_on_c, 1, 67, 32
2, 189600, Note_off_c, 1, 67, 0
2, 190080, Note_on_c, 1, 70, 34
2, 190680, Note_off_c, 1, 70, 0
2, 190680, Note_on_c, 1, 69, 38
2, 190800, Note_off_c, 1, 69, 0
2, 190800, Note_on_c, 1, 72, 39
2, 190920, Note_off_c, 1, 72, 0
2, 190920, Note_on_c, 1, 70, 40
2, 191040, Note_off_c, 1, 70, 0
2, 191040, Note_on_c, 1, 70, 41
2, 191160, Note_off_c, 1, 70, 0
2, 191160, Note_on_c, 1, 69, 41
2, 191280, Note_off_c, 1, 69, 0
2, 191280, Note_on_c, 1, 67, 42
2, 191400, Note_off_c, 1, 67, 0
2, 191400, Note_on_c, 1, 66, 43
2, 191520, Note_off_c, 1, 66, 0
2, 191520, Note_on_c, 1, 67, 45
2, 191880, Note_off_c, 1, 67, 0
2, 191880, Note_on_c, 1, 70, 39
2, 192000, Note_off_c, 1, 70, 0
2, 192000, Note_on_c, 1, 74, 37
2, 192480, Note_off_c, 1, 74, 0
2, 192960, Note_on_c, 1, 74, 36
2, 193560, Note_off_c, 1, 74, 0
2, 193560, Note_on_c, 1, 73, 40
2, 193680, Note_off_c, 1, 73, 0
2, 193680, Note_on_c, 1, 75, 41
2, 193800, Note_off_c, 1, 75, 0
2, 193800, Note_on_c, 1, 74, 41
2, 193920, Note_off_c, 1, 74, 0
2, 193920, Note_on_c, 1, 74, 42
2, 194040, Note_off_c, 1, 74, 0
2, 194040, Note_on_c, 1, 72, 43
2, 194160, Note_off_c, 1, 72, 0
2, 194160, Note_on_c, 1, 70, 44
2, 194280, Note_off_c, 1, 70, 0
2, 194280, Note_on_c, 1, 69, 46
2, 194400, Note_off_c, 1, 69, 0
2, 194400, Note_on_c, 1, 70, 49
2, 194760, Note_off_c, 1, 70, 0
2, 194760, Note_on_c, 1, 74, 43
2, 194880, Note_off_c, 1, 74, 0
2, 194880, Note_on_c, 1, 79, 41
2, 195360, Note_off_c, 1, 79, 0
2, 195840, Note_on_c, 1, 77, 59
2, 196440, Note_off_c, 1, 77, 0
2, 196440, Note_on_c, 1, 81, 54
2, 196560, Note_off_c, 1, 81, 0
2, 196560, Note_on_c, 1, 84, 53
2, 196680, Note_off_c, 1, 84, 0
2, 196680, Note_on_c, 1, 82, 52
2, 196800, Note_off_c, 1, 82, 0
2, 196800, Note_on_c, 1, 81, 51
2, 196920, Note_off_c, 1, 81, 0
2, 196920, Note_on_c, 1, 79, 50
2, 197040, Note_off_c, 1, 79, 0
2, 197040, Note_on_c, 1, 77, 49
2, 197160, Note_off_c, 1, 77, 0
2, 197160, Note_on_c, 1, 75, 48
2, 197256, Note_off_c, 1, 75, 0
2, 197280, Note_on_c, 1, 74, 54
2, 197880, Note_off_c, 1, 74, 0
2, 197880, Note_on_c, 1, 79, 47
2, 198000, Note_off_c, 1, 79, 0
2, 198000, Note_on_c, 1, 82, 46
2, 198120, Note_off_c, 1, 82, 0
2, 198120, Note_on_c, 1, 81, 45
2, 198240, Note_off_c, 1, 81, 0
2, 198240, Note_on_c, 1, 79, 44
2, 198360, Note_off_c, 1, 79, 0
2, 198360, Note_on_c, 1, 77, 42
2, 198480, Note_off_c, 1, 77, 0
2, 198480, Note_on_c, 1, 75, 41
2, 198600, Note_off_c, 1, 75, 0
2, 198600, Note_on_c, 1, 74, 40
2, 198696, Note_off_c, 1, 74, 0
2, 198720, Note_on_c, 1, 71, 44
2, 198840, Note_off_c, 1, 71, 0
2, 198840, Note_on_c, 1, 72, 42
2, 198960, Note_off_c, 1, 72, 0
2, 198960, Note_on_c, 1, 75, 41
2, 199080, Note_off_c, 1, 75, 0
2, 199080, Note_on_c, 1, 79, 41
2, 199200, Note_off_c, 1, 79, 0
2, 199200, Note_on_c, 1, 70, 40
2, 199522, Note_off_c, 1, 70, 0
2, 199560, Note_on_c, 1, 70, 37
2, 199680, Note_off_c, 1, 70, 0
2, 199680, Note_on_c, 1, 74, 36
2, 199800, Note_off_c, 1, 74, 0
2, 199800, Note_on_c, 1, 72, 36
2, 199920, Note_off_c, 1, 72, 0
2, 199920, Note_on_c, 1, 70, 35
2, 200040, Note_off_c, 1, 70, 0
2, 200040, Note_on_c, 1, 72, 34
2, 200136, Note_off_c, 1, 72, 0
2, 200160, Note_on_c, 1, 72, 37
2, 200640, Note_off_c, 1, 72, 0
2, 200640, Note_on_c, 1, 70, 30
2, 200760, Note_off_c, 1, 70, 0
2, 200760, Note_on_c, 1, 69, 26
2, 200880, Note_off_c, 1, 69, 0
2, 200880, Note_on_c, 1, 72, 28
2, 201000, Note_off_c, 1, 72, 0
2, 201000, Note_on_c, 1, 70, 29
2, 201120, Note_off_c, 1, 70, 0
2, 201120, Note_on_c, 1, 74, 31
2, 201240, Note_off_c, 1, 74, 0
2, 201240, Note_on_c, 1, 72, 33
2, 201360, Note_off_c, 1, 72, 0
2, 201360, Note_on_c, 1, 75, 35
2, 201480, Note_off_c, 1, 75, 0
2, 201480, Note_on_c, 1, 74, 36
2, 201576, Note_off_c, 1, 74, 0
2, 201600, Note_on_c, 1, 77, 40
2, 202200, Note_off_c, 1, 77, 0
2, 202200, Note_on_c, 1, 80, 45
2, 202320, Note_off_c, 1, 80, 0
2, 202320, Note_on_c, 1, 79, 46
2, 202440, Note_off_c, 1, 79, 0
2, 202440, Note_on_c, 1, 77, 47
2, 202560, Note_off_c, 1, 77, 0
2, 202560, Note_on_c, 1, 75, 48
2, 202680, Note_off_c, 1, 75, 0
2, 202680, Note_on_c, 1, 74, 49
2, 202800, Note_off_c, 1, 74, 0
2, 202800, Note_on_c, 1, 72, 50
2, 202920, Note_off_c, 1, 72, 0
2, 202920, Note_on_c, 1, 71, 52
2, 203040, Note_off_c, 1, 71, 0
2, 203040, Note_on_c, 1, 72, 54
2, 203400, Note_off_c, 1, 72, 0
2, 203400, Note_on_c, 1, 75, 47
2, 203520, Note_off_c, 1, 75, 0
2, 203520, Note_on_c, 1, 79, 45
2, 204000, Note_off_c, 1, 79, 0
2, 204480, Note_on_c, 1, 79, 54
2, 205080, Note_off_c, 1, 79, 0
2, 205080, Note_on_c, 1, 78, 59
2, 205200, Note_off_c, 1, 78, 0
2, 205200, Note_on_c, 1, 81, 60
2, 205320, Note_off_c, 1, 81, 0
2, 205320, Note_on_c, 1, 79, 62
2, 205440, Note_off_c, 1, 79, 0
2, 205440, Note_on_c, 1, 82, 63
2, 205560, Note_off_c, 1, 82, 0
2, 205560, Note_on_c, 1, 73, 64
2, 205680, Note_off_c, 1, 73, 0
2, 205680, Note_on_c, 1, 82, 65
2, 205800, Note_off_c, 1, 82, 0
2, 205800, Note_on_c, 1, 73, 66
2, 205896, Note_off_c, 1, 73, 0
2, 205920, Note_on_c, 1, 73, 70
2, 206400, Note_off_c, 1, 73, 0
2, 206400, Note_on_c, 1, 74, 62
2, 206880, Note_off_c, 1, 74, 0
2, 207360, Note_on_c, 1, 75, 67
2, 207960, Note_off_c, 1, 75, 0
2, 207960, Note_on_c, 1, 72, 72
2, 208080, Note_off_c, 1, 72, 0
2, 208080, Note_on_c, 1, 81, 73
2, 208200, Note_off_c, 1, 81, 0
2, 208200, Note_on_c, 1, 78, 74
2, 208320, Note_off_c, 1, 78, 0
2, 208320, Note_on_c, 1, 84, 75
2, 208440, Note_off_c, 1, 84, 0
2, 208440, Note_on_c, 1, 81, 76
2, 208560, Note_off_c, 1, 81, 0
2, 208560, Note_on_c, 1, 87, 77
2, 208680, Note_off_c, 1, 87, 0
2, 208680, Note_on_c, 1, 78, 78
2, 208776, Note_off_c, 1, 78, 0
2, 208800, Note_on_c, 1, 86, 81
2, 209400, Note_off_c, 1, 86, 0
2, 209400, Note_on_c, 1, 81, 72
2, 209520, Note_off_c, 1, 81, 0
2, 209520, Note_on_c, 1, 82, 71
2, 209640, Note_off_c, 1, 82, 0
2, 209640, Note_on_c, 1, 78, 69
2, 209760, Note_off_c, 1, 78, 0
2, 209760, Note_on_c, 1, 79, 67
2, 209880, Note_off_c, 1, 79, 0
2, 209880, Note_on_c, 1, 73, 66
2, 210000, Note_off_c, 1, 73, 0
2, 210000, Note_on_c, 1, 74, 64
2, 210120, Note_off_c, 1, 74, 0
2, 210120, Note_on_c, 1, 70, 62
2, 210216, Note_off_c, 1, 70, 0
2, 210240, Note_on_c, 1, 70, 60
2, 210360, Note_off_c, 1, 70, 0
2, 210360, Note_on_c, 1, 69, 59
2, 210480, Note_off_c, 1, 69, 0
2, 210480, Note_on_c, 1, 72, 57
2, 210600, Note_off_c, 1, 72, 0
2, 210600, Note_on_c, 1, 75, 55
2, 210720, Note_off_c, 1, 75, 0
2, 210720, Note_on_c, 1, 67, 54
2, 211050, Note_off_c, 1, 67, 0
2, 211080, Note_on_c, 1, 67, 49
2, 211200, Note_off_c, 1, 67, 0
2, 211200, Note_on_c, 1, 70, 47
2, 211320, Note_off_c, 1, 70, 0
2, 211320, Note_on_c, 1, 69, 45
2, 211440, Note_off_c, 1, 69, 0
2, 211440, Note_on_c, 1, 67, 44
2, 211560, Note_off_c, 1, 67, 0
2, 211560, Note_on_c, 1, 69, 42
2, 211656, Note_off_c, 1, 69, 0
2, 211680, Note_on_c, 1, 69, 46
2, 212160, Note_off_c, 1, 69, 0
2, 212160, Note_on_c, 1, 67, 28
2, 212280, Note_off_c, 1, 67, 0
2, 212280, Note_on_c, 1, 66, 29
2, 212400, Note_off_c, 1, 66, 0
2, 212400, Note_on_c, 1, 67, 29
2, 212520, Note_off_c, 1, 67, 0
2, 212520, Note_on_c, 1, 68, 30
2, 212640, Note_off_c, 1, 68, 0
2, 212640, Note_on_c, 1, 69, 30
2, 212760, Note_off_c, 1, 69, 0
2, 212760, Note_on_c, 1, 68, 31
2, 212880, Note_off_c, 1, 68, 0
2, 212880, Note_on_c, 1, 69, 31
2, 213000, Note_off_c, 1, 69, 0
2, 213000, Note_on_c, 1, 70, 32
2, 213120, Note_off_c, 1, 70, 0
2, 213120, Note_on_c, 1, 71, 34
2, 214080, Note_off_c, 1, 71, 0
2, 214080, Note_on_c, 1, 74, 37
2, 214200, Note_off_c, 1, 74, 0
2, 214200, Note_on_c, 1, 72, 39
2, 214320, Note_off_c, 1, 72, 0
2, 214320, Note_on_c, 1, 71, 40
2, 214440, Note_off_c, 1, 71, 0
2, 214440, Note_on_c, 1, 72, 42
2, 214560, Note_off_c, 1, 72, 0
2, 214560, Note_on_c, 1, 74, 45
2, 214920, Note_off_c, 1, 74, 0
2, 214920, Note_on_c, 1, 71, 40
2, 215040, Note_off_c, 1, 71, 0
2, 215040, Note_on_c, 1, 67, 38
2, 215520, Note_off_c, 1, 67, 0
2, 216000, Note_on_c, 1, 79, 36
2, 216720, Note_off_c, 1, 79, 0
2, 216720, Note_on_c, 1, 81, 41
2, 216840, Note_off_c, 1, 81, 0
2, 216840, Note_on_c, 1, 79, 42
2, 216960, Note_off_c, 1, 79, 0
2, 216960, Note_on_c, 1, 78, 43
2, 217080, Note_off_c, 1, 78, 0
2, 217080, Note_on_c, 1, 76, 44
2, 217200, Note_off_c, 1, 76, 0
2, 217200, Note_on_c, 1, 74, 45
2, 217320, Note_off_c, 1, 74, 0
2, 217320, Note_on_c, 1, 73, 46
2, 217440, Note_off_c, 1, 73, 0
2, 217440, Note_on_c, 1, 74, 49
2, 217800, Note_off_c, 1, 74, 0
2, 217800, Note_on_c, 1, 71, 45
2, 217920, Note_off_c, 1, 71, 0
2, 217920, Note_on_c, 1, 67, 43
2, 218400, Note_off_c, 1, 67, 0
2, 218880, Note_on_c, 1, 72, 40
2, 219240, Note_off_c, 1, 72, 0
2, 219240, Note_on_c, 1, 69, 42
2, 219360, Note_off_c, 1, 69, 0
2, 219360, Note_on_c, 1, 66, 43
2, 219515, Note_off_c, 1, 66, 0
2, 219600, Note_on_c, 1, 69, 44
2, 219755, Note_off_c, 1, 69, 0
2, 219840, Note_on_c, 1, 71, 45
2, 219995, Note_off_c, 1, 71, 0
2, 220080, Note_on_c, 1, 72, 46
2, 220235, Note_off_c, 1, 72, 0
2, 220320, Note_on_c, 1, 74, 48
2, 220680, Note_off_c, 1, 74, 0
2, 220680, Note_on_c, 1, 71, 53
2, 220800, Note_off_c, 1, 71, 0
2, 220800, Note_on_c, 1, 79, 55
2, 221280, Note_off_c, 1, 79, 0
2, 221760, Note_on_c, 1, 81, 56
2, 221880, Note_off_c, 1, 81, 0
2, 221880, Note_on_c, 1, 79, 54
2, 222000, Note_off_c, 1, 79, 0
2, 222000, Note_on_c, 1, 78, 53
2, 222120, Note_off_c, 1, 78, 0
2, 222120, Note_on_c, 1, 79, 51
2, 222240, Note_off_c, 1, 79, 0
2, 222240, Note_on_c, 1, 78, 49
2, 222360, Note_off_c, 1, 78, 0
2, 222360, Note_on_c, 1, 76, 47
2, 222480, Note_off_c, 1, 76, 0
2, 222480, Note_on_c, 1, 75, 45
2, 222600, Note_off_c, 1, 75, 0
2, 222600, Note_on_c, 1, 76, 44
2, 222720, Note_off_c, 1, 76, 0
2, 222720, Note_on_c, 1, 74, 42
2, 222840, Note_off_c, 1, 74, 0
2, 222840, Note_on_c, 1, 72, 40
2, 222960, Note_off_c, 1, 72, 0
2, 222960, Note_on_c, 1, 71, 38
2, 223080, Note_off_c, 1, 71, 0
2, 223080, Note_on_c, 1, 72, 36
2, 223200, Note_off_c, 1, 72, 0
2, 223200, Note_on_c, 1, 71, 42
2, 223560, Note_off_c, 1, 71, 0
2, 223560, Note_on_c, 1, 72, 34
2, 223620, Note_off_c, 1, 72, 0
2, 223620, Note_on_c, 1, 71, 33
2, 223680, Note_off_c, 1, 71, 0
2, 223680, Note_on_c, 1, 69, 32
2, 223870, Note_off_c, 1, 69, 0
2, 223920, Note_on_c, 1, 74, 30
2, 224160, Note_off_c, 1, 74, 0
2, 224160, Note_on_c, 1, 73, 32
2, 224400, Note_off_c, 1, 73, 0
2, 224400, Note_on_c, 1, 72, 34
2, 224640, Note_off_c, 1, 72, 0
2, 224640, Note_on_c, 1, 71, 36
2, 225240, Note_off_c, 1, 71, 0
2, 225240, Note_on_c, 1, 67, 40
2, 225360, Note_off_c, 1, 67, 0
2, 225360, Note_on_c, 1, 71, 41
2, 225480, Note_off_c, 1, 71, 0
2, 225480, Note_on_c, 1, 74, 42
2, 225600, Note_off_c, 1, 74, 0
2, 225600, Note_on_c, 1, 72, 43
2, 225720, Note_off_c, 1, 72, 0
2, 225720, Note_on_c, 1, 69, 44
2, 225840, Note_off_c, 1, 69, 0
2, 225840, Note_on_c, 1, 72, 45
2, 225960, Note_off_c, 1, 72, 0
2, 225960, Note_on_c, 1, 76, 46
2, 226080, Note_off_c, 1, 76, 0
2, 226080, Note_on_c, 1, 74, 49
2, 226440, Note_off_c, 1, 74, 0
2, 226440, Note_on_c, 1, 71, 47
2, 226560, Note_off_c, 1, 71, 0
2, 226560, Note_on_c, 1, 67, 46
2, 226640, Note_off_c, 1, 67, 0
2, 226680, Note_on_c, 1, 67, 45
2, 226760, Note_off_c, 1, 67, 0
2, 226800, Note_on_c, 1, 69, 44
2, 226880, Note_off_c, 1, 69, 0
2, 226920, Note_on_c, 1, 71, 43
2, 227000, Note_off_c, 1, 71, 0
2, 227040, Note_on_c, 1, 72, 42
2, 227120, Note_off_c, 1, 72, 0
2, 227160, Note_on_c, 1, 74, 42
2, 227240, Note_off_c, 1, 74, 0
2, 227280, Note_on_c, 1, 76, 41
2, 227360, Note_off_c, 1, 76, 0
2, 227400, Note_on_c, 1, 78, 40
2, 227480, Note_off_c, 1, 78, 0
2, 227520, Note_on_c, 1, 79, 43
2, 227640, Note_off_c, 1, 79, 0
2, 227640, Note_on_c, 1, 78, 44
2, 227760, Note_off_c, 1, 78, 0
2, 227760, Note_on_c, 1, 79, 45
2, 227880, Note_off_c, 1, 79, 0
2, 227880, Note_on_c, 1, 78, 45
2, 228000, Note_off_c, 1, 78, 0
2, 228000, Note_on_c, 1, 81, 46
2, 228120, Note_off_c, 1, 81, 0
2, 228120, Note_on_c, 1, 79, 47
2, 228240, Note_off_c, 1, 79, 0
2, 228240, Note_on_c, 1, 78, 47
2, 228360, Note_off_c, 1, 78, 0
2, 228360, Note_on_c, 1, 79, 48
2, 228480, Note_off_c, 1, 79, 0
2, 228480, Note_on_c, 1, 78, 49
2, 228600, Note_off_c, 1, 78, 0
2, 228600, Note_on_c, 1, 76, 49
2, 228720, Note_off_c, 1, 76, 0
2, 228720, Note_on_c, 1, 74, 50
2, 228840, Note_off_c, 1, 74, 0
2, 228840, Note_on_c, 1, 73, 53
2, 228960, Note_off_c, 1, 73, 0
2, 228960, Note_on_c, 1, 74, 55
2, 229080, Note_off_c, 1, 74, 0
2, 229080, Note_on_c, 1, 71, 53
2, 229200, Note_off_c, 1, 71, 0
2, 229200, Note_on_c, 1, 74, 51
2, 229320, Note_off_c, 1, 74, 0
2, 229320, Note_on_c, 1, 71, 49
2, 229440, Note_off_c, 1, 71, 0
2, 229440, Note_on_c, 1, 67, 47
2, 229920, Note_off_c, 1, 67, 0
2, 230400, Note_on_c, 1, 72, 44
2, 230520, Note_off_c, 1, 72, 0
2, 230520, Note_on_c, 1, 69, 45
2, 230640, Note_off_c, 1, 69, 0
2, 230640, Note_on_c, 1, 72, 46
2, 230760, Note_off_c, 1, 72, 0
2, 230760, Note_on_c, 1, 69, 47
2, 230880, Note_off_c, 1, 69, 0
2, 230880, Note_on_c, 1, 66, 48
2, 230960, Note_off_c, 1, 66, 0
2, 231000, Note_on_c, 1, 69, 49
2, 231120, Note_off_c, 1, 69, 0
2, 231120, Note_on_c, 1, 68, 49
2, 231240, Note_off_c, 1, 68, 0
2, 231240, Note_on_c, 1, 69, 50
2, 231360, Note_off_c, 1, 69, 0
2, 231360, Note_on_c, 1, 70, 51
2, 231480, Note_off_c, 1, 70, 0
2, 231480, Note_on_c, 1, 71, 52
2, 231600, Note_off_c, 1, 71, 0
2, 231600, Note_on_c, 1, 72, 53
2, 231720, Note_off_c, 1, 72, 0
2, 231720, Note_on_c, 1, 73, 54
2, 231840, Note_off_c, 1, 73, 0
2, 231840, Note_on_c, 1, 74, 55
2, 231960, Note_off_c, 1, 74, 0
2, 231960, Note_on_c, 1, 71, 55
2, 232080, Note_off_c, 1, 71, 0
2, 232080, Note_on_c, 1, 74, 56
2, 232200, Note_off_c, 1, 74, 0
2, 232200, Note_on_c, 1, 71, 57
2, 232320, Note_off_c, 1, 71, 0
2, 232320, Note_on_c, 1, 79, 58
2, 232800, Note_off_c, 1, 79, 0
2, 232920, Note_on_c, 1, 83, 62
2, 233040, Note_off_c, 1, 83, 0
2, 233040, Note_on_c, 1, 78, 63
2, 233160, Note_off_c, 1, 78, 0
2, 233160, Note_on_c, 1, 79, 64
2, 233280, Note_off_c, 1, 79, 0
2, 233280, Note_on_c, 1, 75, 66
2, 233400, Note_off_c, 1, 75, 0
2, 233400, Note_on_c, 1, 76, 62
2, 233520, Note_off_c, 1, 76, 0
2, 233520, Note_on_c, 1, 72, 60
2, 233640, Note_off_c, 1, 72, 0
2, 233640, Note_on_c, 1, 69, 58
2, 233760, Note_off_c, 1, 69, 0
2, 233760, Note_on_c, 1, 67, 56
2, 234075, Note_off_c, 1, 67, 0
2, 234120, Note_on_c, 1, 67, 50
2, 234216, Note_off_c, 1, 67, 0
2, 234240, Note_on_c, 1, 71, 48
2, 234360, Note_off_c, 1, 71, 0
2, 234360, Note_on_c, 1, 69, 46
2, 234480, Note_off_c, 1, 69, 0
2, 234480, Note_on_c, 1, 67, 44
2, 234600, Note_off_c, 1, 67, 0
2, 234600, Note_on_c, 1, 69, 42
2, 234696, Note_off_c, 1, 69, 0
2, 234720, Note_on_c, 1, 67, 42
2, 234840, Note_off_c, 1, 67, 0
2, 234840, Note_on_c, 1, 66, 43
2, 234960, Note_off_c, 1, 66, 0
2, 234960, Note_on_c, 1, 69, 43
2, 235080, Note_off_c, 1, 69, 0
2, 235080, Note_on_c, 1, 67, 44
2, 235200, Note_off_c, 1, 67, 0
2, 235200, Note_on_c, 1, 71, 44
2, 235320, Note_off_c, 1, 71, 0
2, 235320, Note_on_c, 1, 69, 45
2, 235440, Note_off_c, 1, 69, 0
2, 235440, Note_on_c, 1, 72, 45
2, 235560, Note_off_c, 1, 72, 0
2, 235560, Note_on_c, 1, 71, 46
2, 235680, Note_off_c, 1, 71, 0
2, 235680, Note_on_c, 1, 74, 47
2, 235800, Note_off_c, 1, 74, 0
2, 235800, Note_on_c, 1, 72, 47
2, 235920, Note_off_c, 1, 72, 0
2, 235920, Note_on_c, 1, 76, 48
2, 236040, Note_off_c, 1, 76, 0
2, 236040, Note_on_c, 1, 74, 48
2, 236160, Note_off_c, 1, 74, 0
2, 236160, Note_on_c, 1, 77, 49
2, 236880, Note_off_c, 1, 77, 0
2, 236880, Note_on_c, 1, 79, 53
2, 237000, Note_off_c, 1, 79, 0
2, 237000, Note_on_c, 1, 81, 53
2, 237120, Note_off_c, 1, 81, 0
2, 237120, Note_on_c, 1, 79, 54
2, 237240, Note_off_c, 1, 79, 0
2, 237240, Note_on_c, 1, 77, 54
2, 237360, Note_off_c, 1, 77, 0
2, 237360, Note_on_c, 1, 76, 55
2, 237480, Note_off_c, 1, 76, 0
2, 237480, Note_on_c, 1, 74, 56
2, 237576, Note_off_c, 1, 74, 0
2, 237600, Note_on_c, 1, 75, 58
2, 238080, Note_off_c, 1, 75, 0
2, 238080, Note_on_c, 1, 76, 62
2, 238560, Note_off_c, 1, 76, 0
2, 238680, Note_on_c, 1, 79, 62
2, 238800, Note_off_c, 1, 79, 0
2, 238800, Note_on_c, 1, 78, 65
2, 238920, Note_off_c, 1, 78, 0
2, 238920, Note_on_c, 1, 76, 67
2, 239040, Note_off_c, 1, 76, 0
2, 239040, Note_on_c, 1, 74, 69
2, 239160, Note_off_c, 1, 74, 0
2, 239160, Note_on_c, 1, 71, 63
2, 239280, Note_off_c, 1, 71, 0
2, 239280, Note_on_c, 1, 69, 60
2, 239400, Note_off_c, 1, 69, 0
2, 239400, Note_on_c, 1, 76, 58
2, 239520, Note_off_c, 1, 76, 0
2, 239520, Note_on_c, 1, 67, 55
2, 239842, Note_off_c, 1, 67, 0
2, 239880, Note_on_c, 1, 67, 52
2, 239976, Note_off_c, 1, 67, 0
2, 240000, Note_on_c, 1, 71, 50
2, 240120, Note_off_c, 1, 71, 0
2, 240120, Note_on_c, 1, 69, 49
2, 240240, Note_off_c, 1, 69, 0
2, 240240, Note_on_c, 1, 67, 48
2, 240360, Note_off_c, 1, 67, 0
2, 240360, Note_on_c, 1, 69, 46
2, 240456, Note_off_c, 1, 69, 0
2, 240480, Note_on_c, 1, 67, 46
2, 240600, Note_off_c, 1, 67, 0
2, 240600, Note_on_c, 1, 66, 47
2, 240720, Note_off_c, 1, 66, 0
2, 240720, Note_on_c, 1, 69, 48
2, 240840, Note_off_c, 1, 69, 0
2, 240840, Note_on_c, 1, 67, 49
2, 240960, Note_off_c, 1, 67, 0
2, 240960, Note_on_c, 1, 71, 50
2, 241080, Note_off_c, 1, 71, 0
2, 241080, Note_on_c, 1, 69, 50
2, 241200, Note_off_c, 1, 69, 0
2, 241200, Note_on_c, 1, 72, 51
2, 241320, Note_off_c, 1, 72, 0
2, 241320, Note_on_c, 1, 71, 52
2, 241440, Note_off_c, 1, 71, 0
2, 241440, Note_on_c, 1, 74, 53
2, 241560, Note_off_c, 1, 74, 0
2, 241560, Note_on_c, 1, 72, 54
2, 241680, Note_off_c, 1, 72, 0
2, 241680, Note_on_c, 1, 76, 55
2, 241800, Note_off_c, 1, 76, 0
2, 241800, Note_on_c, 1, 74, 56
2, 241920, Note_off_c, 1, 74, 0
2, 241920, Note_on_c, 1, 77, 56
2, 242640, Note_off_c, 1, 77, 0
2, 242640, Note_on_c, 1, 79, 62
2, 242760, Note_off_c, 1, 79, 0
2, 242760, Note_on_c, 1, 81, 62
2, 242880, Note_off_c, 1, 81, 0
2, 242880, Note_on_c, 1, 79, 63
2, 243000, Note_off_c, 1, 79, 0
2, 243000, Note_on_c, 1, 77, 64
2, 243120, Note_off_c, 1, 77, 0
2, 243120, Note_on_c, 1, 76, 65
2, 243240, Note_off_c, 1, 76, 0
2, 243240, Note_on_c, 1, 74, 66
2, 243336, Note_off_c, 1, 74, 0
2, 243360, Note_on_c, 1, 76, 70
2, 243817, Note_off_c, 1, 76, 0
2, 243840, Note_on_c, 1, 78, 74
2, 244290, Note_off_c, 1, 78, 0
2, 244320, Note_on_c, 1, 79, 77
2, 244770, Note_off_c, 1, 79, 0
2, 244800, Note_on_c, 1, 67, 81
2, 245520, Note_off_c, 1, 67, 0
2, 245760, Note_on_c, 1, 71, 66
2, 246000, Note_off_c, 1, 71, 0
2, 246000, Note_on_c, 1, 69, 63
2, 246217, Note_off_c, 1, 69, 0
2, 246240, Note_on_c, 1, 67, 61
2, 246360, Note_off_c, 1, 67, 0
2, 246360, Note_on_c, 1, 62, 60
2, 246480, Note_off_c, 1, 62, 0
2, 246480, Note_on_c, 1, 71, 58
2, 246560, Note_off_c, 1, 71, 0
2, 246600, Note_on_c, 1, 71, 57
2, 246680, Note_off_c, 1, 71, 0
2, 246720, Note_on_c, 1, 71, 56
2, 246840, Note_off_c, 1, 71, 0
2, 246840, Note_on_c, 1, 67, 55
2, 246960, Note_off_c, 1, 67, 0
2, 246960, Note_on_c, 1, 74, 53
2, 247040, Note_off_c, 1, 74, 0
2, 247080, Note_on_c, 1, 74, 52
2, 247160, Note_off_c, 1, 74, 0
2, 247200, Note_on_c, 1, 74, 51
2, 247320, Note_off_c, 1, 74, 0
2, 247320, Note_on_c, 1, 71, 50
2, 247440, Note_off_c, 1, 71, 0
2, 247440, Note_on_c, 1, 69, 48
2, 247560, Note_off_c, 1, 69, 0
2, 247560, Note_on_c, 1, 71, 47
2, 247656, Note_off_c, 1, 71, 0
2, 247680, Note_on_c, 1, 67, 46
2, 247800, Note_off_c, 1, 67, 0
2, 247800, Note_on_c, 1, 62, 44
2, 247920, Note_off_c, 1, 62, 0
2, 247920, Note_on_c, 1, 71, 43
2, 248000, Note_off_c, 1, 71, 0
2, 248040, Note_on_c, 1, 71, 42
2, 248120, Note_off_c, 1, 71, 0
2, 248160, Note_on_c, 1, 71, 41
2, 248280, Note_off_c, 1, 71, 0
2, 248280, Note_on_c, 1, 67, 39
2, 248400, Note_off_c, 1, 67, 0
2, 248400, Note_on_c, 1, 74, 38
2, 248480, Note_off_c, 1, 74, 0
2, 248520, Note_on_c, 1, 74, 37
2, 248600, Note_off_c, 1, 74, 0
2, 248640, Note_on_c, 1, 74, 36
2, 248760, Note_off_c, 1, 74, 0
2, 248760, Note_on_c, 1, 71, 34
2, 248880, Note_off_c, 1, 71, 0
2, 248880, Note_on_c, 1, 69, 33
2, 249000, Note_off_c, 1, 69, 0
2, 249000, Note_on_c, 1, 71, 32
2, 249096, Note_off_c, 1, 71, 0
2, 249120, Note_on_c, 1, 67, 33
2, 249360, Note_off_c, 1, 67, 0
2, 249600, Note_on_c, 1, 67, 25
2, 249840, Note_off_c, 1, 67, 0
2, 252480, Control_c, 1, 64, 0
2, 252480, Note_on_c, 1, 79, 77
2, 252635, Note_off_c, 1, 79, 0
2, 252720, Note_on_c, 1, 79, 77
2, 252875, Note_off_c, 1, 79, 0
2, 252960, Note_on_c, 1, 76, 76
2, 253115, Note_off_c, 1, 76, 0
2, 253440, Note_on_c, 1, 77, 76
2, 253595, Note_off_c, 1, 77, 0
2, 253680, Note_on_c, 1, 77, 75
2, 253835, Note_off_c, 1, 77, 0
2, 253920, Note_on_c, 1, 74, 75
2, 254075, Note_off_c, 1, 74, 0
2, 254400, Note_on_c, 1, 72, 74
2, 254520, Note_off_c, 1, 72, 0
2, 254520, Note_on_c, 1, 74, 75
2, 254640, Note_off_c, 1, 74, 0
2, 254640, Note_on_c, 1, 76, 75
2, 254760, Note_off_c, 1, 76, 0
2, 254760, Note_on_c, 1, 72, 76
2, 254880, Note_off_c, 1, 72, 0
2, 254880, Note_on_c, 1, 69, 79
2, 255000, Note_off_c, 1, 69, 0
2, 255000, Note_on_c, 1, 71, 77
2, 255120, Note_off_c, 1, 71, 0
2, 255120, Note_on_c, 1, 72, 75
2, 255240, Note_off_c, 1, 72, 0
2, 255240, Note_on_c, 1, 73, 73
2, 255360, Note_off_c, 1, 73, 0
2, 255360, Note_on_c, 1, 74, 72
2, 255480, Note_off_c, 1, 74, 0
2, 255480, Note_on_c, 1, 76, 72
2, 255600, Note_off_c, 1, 76, 0
2, 255600, Note_on_c, 1, 77, 73
2, 255720, Note_off_c, 1, 77, 0
2, 255720, Note_on_c, 1, 74, 74
2, 255840, Note_off_c, 1, 74, 0
2, 255840, Note_on_c, 1, 72, 76
2, 255960, Note_off_c, 1, 72, 0
2, 255960, Note_on_c, 1, 71, 73
2, 256080, Note_off_c, 1, 71, 0
2, 256080, Note_on_c, 1, 69, 70
2, 256200, Note_off_c, 1, 69, 0
2, 256200, Note_on_c, 1, 67, 66
2, 256320, Note_off_c, 1, 67, 0
2, 256320, Note_on_c, 1, 79, 70
2, 256475, Note_off_c, 1, 79, 0
2, 256560, Note_on_c, 1, 79, 70
2, 256715, Note_off_c, 1, 79, 0
2, 256800, Note_on_c, 1, 76, 69
2, 256955, Note_off_c, 1, 76, 0
2, 257280, Note_on_c, 1, 81, 68
2, 257435, Note_off_c, 1, 81, 0
2, 257520, Note_on_c, 1, 81, 68
2, 257675, Note_off_c, 1, 81, 0
2, 257760, Note_on_c, 1, 74, 67
2, 257915, Note_off_c, 1, 74, 0
2, 258240, Note_on_c, 1, 81, 64
2, 258360, Note_off_c, 1, 81, 0
2, 258360, Note_on_c, 1, 79, 65
2, 258480, Note_off_c, 1, 79, 0
2, 258480, Note_on_c, 1, 77, 67
2, 258600, Note_off_c, 1, 77, 0
2, 258600, Note_on_c, 1, 76, 68
2, 258720, Note_off_c, 1, 76, 0
2, 258720, Note_on_c, 1, 73, 71
2, 258840, Note_off_c, 1, 73, 0
2, 258840, Note_on_c, 1, 74, 70
2, 258960, Note_off_c, 1, 74, 0
2, 258960, Note_on_c, 1, 76, 69
2, 259080, Note_off_c, 1, 76, 0
2, 259080, Note_on_c, 1, 77, 68
2, 259200, Note_off_c, 1, 77, 0
2, 259200, Note_on_c, 1, 69, 68
2, 259320, Note_off_c, 1, 69, 0
2, 259320, Note_on_c, 1, 72, 67
2, 259440, Note_off_c, 1, 72, 0
2, 259440, Note_on_c, 1, 71, 66
2, 259560, Note_off_c, 1, 71, 0
2, 259560, Note_on_c, 1, 74, 65
2, 259680, Note_off_c, 1, 74, 0
2, 259680, Note_on_c, 1, 72, 64
2, 259835, Note_off_c, 1, 72, 0
2, 260160, Control_c, 1, 64, 0
2, 260160, Note_on_c, 1, 79, 77
2, 260315, Note_off_c, 1, 79, 0
2, 260400, Note_on_c, 1, 79, 77
2, 260555, Note_off_c, 1, 79, 0
2, 260640, Note_on_c, 1, 76, 76
2, 260795, Note_off_c, 1, 76, 0
2, 261120, Note_on_c, 1, 77, 76
2, 261275, Note_off_c, 1, 77, 0
2, 261360, Note_on_c, 1, 77, 75
2, 261515, Note_off_c, 1, 77, 0
2, 261600, Note_on_c, 1, 74, 75
2, 261755, Note_off_c, 1, 74, 0
2, 262080, Note_on_c, 1, 72, 74
2, 262200, Note_off_c, 1, 72, 0
2, 262200, Note_on_c, 1, 74, 75
2, 262320, Note_off_c, 1, 74, 0
2, 262320, Note_on_c, 1, 76, 75
2, 262440, Note_off_c, 1, 76, 0
2, 262440, Note_on_c, 1, 72, 76
2, 262560, Note_off_c, 1, 72, 0
2, 262560, Note_on_c, 1, 69, 79
2, 262680, Note_off_c, 1, 69, 0
2, 262680, Note_on_c, 1, 71, 77
2, 262800, Note_off_c, 1, 71, 0
2, 262800, Note_on_c, 1, 72, 75
2, 262920, Note_off_c, 1, 72, 0
2, 262920, Note_on_c, 1, 73, 73
2, 263040, Note_off_c, 1, 73, 0
2, 263040, Note_on_c, 1, 74, 72
2, 263160, Note_off_c, 1, 74, 0
2, 263160, Note_on_c, 1, 76, 72
2, 263280, Note_off_c, 1, 76, 0
2, 263280, Note_on_c, 1, 77, 73
2, 263400, Note_off_c, 1, 77, 0
2, 263400, Note_on_c, 1, 74, 74
2, 263520, Note_off_c, 1, 74, 0
2, 263520, Note_on_c, 1, 72, 76
2, 263640, Note_off_c, 1, 72, 0
2, 263640, Note_on_c, 1, 71, 73
2, 263760, Note_off_c, 1, 71, 0
2, 263760, Note_on_c, 1, 69, 70
2, 263880, Note_off_c, 1, 69, 0
2, 263880, Note_on_c, 1, 67, 66
2, 264000, Note_off_c, 1, 67, 0
2, 264000, Note_on_c, 1, 79, 70
2, 264155, Note_off_c, 1, 79, 0
2, 264240, Note_on_c, 1, 79, 70
2, 264395, Note_off_c, 1, 79, 0
2, 264480, Note_on_c, 1, 76, 69
2, 264635, Note_off_c, 1, 76, 0
2, 264960, Note_on_c, 1, 81, 68
2, 265115, Note_off_c, 1, 81, 0
2, 265200, Note_on_c, 1, 81, 68
2, 265355, Note_off_c, 1, 81, 0
2, 265440, Note_on_c, 1, 74, 67
2, 265595, Note_off_c, 1, 74, 0
2, 265920, Note_on_c, 1, 81, 64
2, 266040, Note_off_c, 1, 81, 0
2, 266040, Note_on_c, 1, 79, 65
2, 266160, Note_off_c, 1, 79, 0
2, 266160, Note_on_c, 1, 77, 67
2, 266280, Note_off_c, 1, 77, 0
2, 266280, Note_on_c, 1, 76, 68
2, 266400, Note_off_c, 1, 76, 0
2, 266400, Note_on_c, 1, 73, 71
2, 266520, Note_off_c, 1, 73, 0
2, 266520, Note_on_c, 1, 74, 70
2, 266640, Note_off_c, 1, 74, 0
2, 266640, Note_on_c, 1, 76, 69
2, 266760, Note_off_c, 1, 76, 0
2, 266760, Note_on_c, 1, 77, 68
2, 266880, Note_off_c, 1, 77, 0
2, 266880, Note_on_c, 1, 69, 68
2, 267000, Note_off_c, 1, 69, 0
2, 267000, Note_on_c, 1, 72, 67
2, 267120, Note_off_c, 1, 72, 0
2, 267120, Note_on_c, 1, 71, 66
2, 267240, Note_off_c, 1, 71, 0
2, 267240, Note_on_c, 1, 74, 65
2, 267360, Note_off_c, 1, 74, 0
2, 267360, Note_on_c, 1, 72, 64
2, 267515, Note_off_c, 1, 72, 0
2, 267840, Control_c, 1, 64, 0
2, 267840, Note_on_c, 1, 76, 62
2, 267960, Note_off_c, 1, 76, 0
2, 267960, Note_on_c, 1, 78, 64
2, 268080, Note_off_c, 1, 78, 0
2, 268080, Note_on_c, 1, 79, 65
2, 268160, Note_off_c, 1, 79, 0
2, 268200, Note_on_c, 1, 79, 67
2, 268280, Note_off_c, 1, 79, 0
2, 268320, Note_on_c, 1, 81, 69
2, 268440, Note_off_c, 1, 81, 0
2, 268440, Note_on_c, 1, 79, 67
2, 268560, Note_off_c, 1, 79, 0
2, 268560, Note_on_c, 1, 78, 65
2, 268680, Note_off_c, 1, 78, 0
2, 268680, Note_on_c, 1, 76, 63
2, 268800, Note_off_c, 1, 76, 0
2, 268800, Note_on_c, 1, 74, 60
2, 268880, Note_off_c, 1, 74, 0
2, 268920, Note_on_c, 1, 74, 61
2, 269000, Note_off_c, 1, 74, 0
2, 269040, Note_on_c, 1, 74, 63
2, 269120, Note_off_c, 1, 74, 0
2, 269160, Note_on_c, 1, 74, 65
2, 269240, Note_off_c, 1, 74, 0
2, 269280, Note_on_c, 1, 76, 67
2, 269400, Note_off_c, 1, 76, 0
2, 269400, Note_on_c, 1, 74, 64
2, 269520, Note_off_c, 1, 74, 0
2, 269520, Note_on_c, 1, 72, 62
2, 269640, Note_off_c, 1, 72, 0
2, 269640, Note_on_c, 1, 71, 59
2, 269760, Note_off_c, 1, 71, 0
2, 269760, Note_on_c, 1, 88, 56
2, 269880, Note_off_c, 1, 88, 0
2, 269880, Note_on_c, 1, 86, 58
2, 270000, Note_off_c, 1, 86, 0
2, 270000, Note_on_c, 1, 84, 59
2, 270120, Note_off_c, 1, 84, 0
2, 270120, Note_on_c, 1, 83, 61
2, 270240, Note_off_c, 1, 83, 0
2, 270240, Note_on_c, 1, 80, 65
2, 270360, Note_off_c, 1, 80, 0
2, 270360, Note_on_c, 1, 81, 63
2, 270480, Note_off_c, 1, 81, 0
2, 270480, Note_on_c, 1, 83, 61
2, 270600, Note_off_c, 1, 83, 0
2, 270600, Note_on_c, 1, 84, 58
2, 270720, Note_off_c, 1, 84, 0
2, 270720, Note_on_c, 1, 76, 56
2, 270840, Note_off_c, 1, 76, 0
2, 270840, Note_on_c, 1, 78, 57
2, 270960, Note_off_c, 1, 78, 0
2, 270960, Note_on_c, 1, 79, 58
2, 271080, Note_off_c, 1, 79, 0
2, 271080, Note_on_c, 1, 81, 60
2, 271200, Note_off_c, 1, 81, 0
2, 271200, Note_on_c, 1, 79, 63
2, 271320, Note_off_c, 1, 79, 0
2, 271320, Note_on_c, 1, 78, 60
2, 271440, Note_off_c, 1, 78, 0
2, 271440, Note_on_c, 1, 76, 58
2, 271560, Note_off_c, 1, 76, 0
2, 271560, Note_on_c, 1, 74, 56
2, 271680, Note_off_c, 1, 74, 0
2, 271680, Note_on_c, 1, 86, 55
2, 271835, Note_off_c, 1, 86, 0
2, 271920, Note_on_c, 1, 86, 55
2, 272075, Note_off_c, 1, 86, 0
2, 272160, Note_on_c, 1, 83, 54
2, 272315, Note_off_c, 1, 83, 0
2, 272640, Note_on_c, 1, 84, 53
2, 272795, Note_off_c, 1, 84, 0
2, 272880, Note_on_c, 1, 84, 53
2, 273035, Note_off_c, 1, 84, 0
2, 273120, Note_on_c, 1, 81, 52
2, 273275, Note_off_c, 1, 81, 0
2, 273600, Note_on_c, 1, 79, 62
2, 273720, Note_off_c, 1, 79, 0
2, 273720, Note_on_c, 1, 81, 64
2, 273840, Note_off_c, 1, 81, 0
2, 273840, Note_on_c, 1, 83, 66
2, 273960, Note_off_c, 1, 83, 0
2, 273960, Note_on_c, 1, 79, 67
2, 274080, Note_off_c, 1, 79, 0
2, 274080, Note_on_c, 1, 75, 69
2, 274200, Note_off_c, 1, 75, 0
2, 274200, Note_on_c, 1, 76, 68
2, 274320, Note_off_c, 1, 76, 0
2, 274320, Note_on_c, 1, 79, 66
2, 274440, Note_off_c, 1, 79, 0
2, 274440, Note_on_c, 1, 76, 65
2, 274560, Note_off_c, 1, 76, 0
2, 274560, Note_on_c, 1, 74, 64
2, 274680, Note_off_c, 1, 74, 0
2, 274680, Note_on_c, 1, 71, 62
2, 274800, Note_off_c, 1, 71, 0
2, 274800, Note_on_c, 1, 72, 61
2, 274920, Note_off_c, 1, 72, 0
2, 274920, Note_on_c, 1, 69, 59
2, 275040, Note_off_c, 1, 69, 0
2, 275040, Note_on_c, 1, 67, 58
2, 275280, Note_off_c, 1, 67, 0
2, 275520, Note_on_c, 1, 67, 50
2, 275640, Note_off_c, 1, 67, 0
2, 275640, Note_on_c, 1, 69, 53
2, 275760, Note_off_c, 1, 69, 0
2, 275760, Note_on_c, 1, 71, 55
2, 275880, Note_off_c, 1, 71, 0
2, 275880, Note_on_c, 1, 72, 58
2, 276000, Note_off_c, 1, 72, 0
2, 276000, Note_on_c, 1, 74, 63
2, 276192, Note_off_c, 1, 74, 0
2, 276480, Note_on_c, 1, 71, 61
2, 276600, Note_off_c, 1, 71, 0
2, 276600, Note_on_c, 1, 72, 64
2, 276720, Note_off_c, 1, 72, 0
2, 276720, Note_on_c, 1, 74, 67
2, 276840, Note_off_c, 1, 74, 0
2, 276840, Note_on_c, 1, 76, 69
2, 276960, Note_off_c, 1, 76, 0
2, 276960, Note_on_c, 1, 77, 72
2, 277152, Note_off_c, 1, 77, 0
2, 277440, Note_on_c, 1, 74, 75
2, 277560, Note_off_c, 1, 74, 0
2, 277560, Note_on_c, 1, 76, 77
2, 277680, Note_off_c, 1, 76, 0
2, 277680, Note_on_c, 1, 77, 80
2, 277800, Note_off_c, 1, 77, 0
2, 277800, Note_on_c, 1, 79, 84
2, 277920, Note_off_c, 1, 79, 0
2, 277920, Note_on_c, 1, 81, 91
2, 278075, Note_off_c, 1, 81, 0
2, 278160, Note_on_c, 1, 80, 82
2, 278315, Note_off_c, 1, 80, 0
2, 278400, Note_on_c, 1, 79, 74
2, 278555, Note_off_c, 1, 79, 0
2, 278640, Note_on_c, 1, 78, 64
2, 278795, Note_off_c, 1, 78, 0
2, 278880, Note_on_c, 1, 77, 54
2, 279035, Note_off_c, 1, 77, 0
2, 279360, Note_on_c, 1, 79, 81
2, 279515, Note_off_c, 1, 79, 0
2, 279600, Note_on_c, 1, 79, 81
2, 279755, Note_off_c, 1, 79, 0
2, 279840, Note_on_c, 1, 76, 80
2, 279995, Note_off_c, 1, 76, 0
2, 280320, Note_on_c, 1, 77, 79
2, 280475, Note_off_c, 1, 77, 0
2, 280560, Note_on_c, 1, 77, 79
2, 280715, Note_off_c, 1, 77, 0
2, 280800, Note_on_c, 1, 74, 78
2, 280955, Note_off_c, 1, 74, 0
2, 281280, Note_on_c, 1, 72, 76
2, 281400, Note_off_c, 1, 72, 0
2, 281400, Note_on_c, 1, 74, 77
2, 281520, Note_off_c, 1, 74, 0
2, 281520, Note_on_c, 1, 76, 78
2, 281640, Note_off_c, 1, 76, 0
2, 281640, Note_on_c, 1, 72, 80
2, 281760, Note_off_c, 1, 72, 0
2, 281760, Note_on_c, 1, 69, 83
2, 281880, Note_off_c, 1, 69, 0
2, 281880, Note_on_c, 1, 71, 82
2, 282000, Note_off_c, 1, 71, 0
2, 282000, Note_on_c, 1, 72, 81
2, 282120, Note_off_c, 1, 72, 0
2, 282120, Note_on_c, 1, 73, 80
2, 282240, Note_off_c, 1, 73, 0
2, 282240, Note_on_c, 1, 74, 79
2, 282360, Note_off_c, 1, 74, 0
2, 282360, Note_on_c, 1, 76, 77
2, 282480, Note_off_c, 1, 76, 0
2, 282480, Note_on_c, 1, 77, 76
2, 282600, Note_off_c, 1, 77, 0
2, 282600, Note_on_c, 1, 74, 75
2, 282720, Note_off_c, 1, 74, 0
2, 282720, Note_on_c, 1, 72, 74
2, 282840, Note_off_c, 1, 72, 0
2, 282840, Note_on_c, 1, 71, 73
2, 282960, Note_off_c, 1, 71, 0
2, 282960, Note_on_c, 1, 69, 72
2, 283080, Note_off_c, 1, 69, 0
2, 283080, Note_on_c, 1, 67, 70
2, 283200, Note_off_c, 1, 67, 0
2, 283200, Note_on_c, 1, 79, 73
2, 283355, Note_off_c, 1, 79, 0
2, 283440, Note_on_c, 1, 79, 73
2, 283595, Note_off_c, 1, 79, 0
2, 283680, Note_on_c, 1, 76, 72
2, 283835, Note_off_c, 1, 76, 0
2, 284160, Note_on_c, 1, 81, 71
2, 284315, Note_off_c, 1, 81, 0
2, 284400, Note_on_c, 1, 81, 71
2, 284555, Note_off_c, 1, 81, 0
2, 284640, Note_on_c, 1, 74, 70
2, 284795, Note_off_c, 1, 74, 0
2, 285120, Note_on_c, 1, 81, 69
2, 285240, Note_off_c, 1, 81, 0
2, 285240, Note_on_c, 1, 79, 71
2, 285360, Note_off_c, 1, 79, 0
2, 285360, Note_on_c, 1, 77, 72
2, 285480, Note_off_c, 1, 77, 0
2, 285480, Note_on_c, 1, 76, 74
2, 285600, Note_off_c, 1, 76, 0
2, 285600, Note_on_c, 1, 73, 77
2, 285720, Note_off_c, 1, 73, 0
2, 285720, Note_on_c, 1, 74, 75
2, 285840, Note_off_c, 1, 74, 0
2, 285840, Note_on_c, 1, 76, 74
2, 285960, Note_off_c, 1, 76, 0
2, 285960, Note_on_c, 1, 77, 72
2, 286080, Note_off_c, 1, 77, 0
2, 286080, Note_on_c, 1, 69, 71
2, 286200, Note_off_c, 1, 69, 0
2, 286200, Note_on_c, 1, 72, 69
2, 286320, Note_off_c, 1, 72, 0
2, 286320, Note_on_c, 1, 71, 68
2, 286440, Note_off_c, 1, 71, 0
2, 286440, Note_on_c, 1, 74, 66
2, 286560, Note_off_c, 1, 74, 0
2, 286560, Note_on_c, 1, 72, 65
2, 286715, Note_off_c, 1, 72, 0
2, 287520, Note_on_c, 1, 76, 50
2, 287640, Note_off_c, 1, 76, 0
2, 287640, Note_on_c, 1, 75, 48
2, 287760, Note_off_c, 1, 75, 0
2, 287760, Note_on_c, 1, 77, 46
2, 287880, Note_off_c, 1, 77, 0
2, 287880, Note_on_c, 1, 76, 45
2, 288000, Note_off_c, 1, 76, 0
2, 288480, Note_on_c, 1, 76, 55
2, 288600, Note_off_c, 1, 76, 0
2, 288600, Note_on_c, 1, 75, 52
2, 288720, Note_off_c, 1, 75, 0
2, 288720, Note_on_c, 1, 77, 50
2, 288840, Note_off_c, 1, 77, 0
2, 288840, Note_on_c, 1, 76, 48
2, 288960, Note_off_c, 1, 76, 0
2, 288960, Note_on_c, 1, 84, 54
2, 289115, Note_off_c, 1, 84, 0
2, 289200, Note_on_c, 1, 84, 55
2, 289355, Note_off_c, 1, 84, 0
2, 289440, Note_on_c, 1, 81, 56
2, 289595, Note_off_c, 1, 81, 0
2, 289920, Note_on_c, 1, 83, 58
2, 290075, Note_off_c, 1, 83, 0
2, 290160, Note_on_c, 1, 83, 59
2, 290315, Note_off_c, 1, 83, 0
2, 290400, Note_on_c, 1, 80, 61
2, 290555, Note_off_c, 1, 80, 0
2, 290880, Note_on_c, 1, 81, 62
2, 291000, Note_off_c, 1, 81, 0
2, 291000, Note_on_c, 1, 76, 64
2, 291120, Note_off_c, 1, 76, 0
2, 291120, Note_on_c, 1, 72, 65
2, 291240, Note_off_c, 1, 72, 0
2, 291240, Note_on_c, 1, 69, 67
2, 291360, Note_off_c, 1, 69, 0
2, 291360, Note_on_c, 1, 72, 71
2, 291480, Note_off_c, 1, 72, 0
2, 291480, Note_on_c, 1, 70, 69
2, 291560, Note_off_c, 1, 70, 0
2, 291600, Note_on_c, 1, 70, 68
2, 291680, Note_off_c, 1, 70, 0
2, 291720, Note_on_c, 1, 70, 67
2, 291800, Note_off_c, 1, 70, 0
2, 291840, Note_on_c, 1, 74, 74
2, 291960, Note_off_c, 1, 74, 0
2, 291960, Note_on_c, 1, 73, 72
2, 292040, Note_off_c, 1, 73, 0
2, 292080, Note_on_c, 1, 73, 71
2, 292160, Note_off_c, 1, 73, 0
2, 292200, Note_on_c, 1, 73, 70
2, 292280, Note_off_c, 1, 73, 0
2, 292320, Note_on_c, 1, 76, 78
2, 292440, Note_off_c, 1, 76, 0
2, 292440, Note_on_c, 1, 74, 74
2, 292535, Note_off_c, 1, 74, 0
2, 292560, Note_on_c, 1, 77, 80
2, 292680, Note_off_c, 1, 77, 0
2, 292680, Note_on_c, 1, 76, 76
2, 292775, Note_off_c, 1, 76, 0
2, 292800, Note_on_c, 1, 79, 84
2, 292920, Note_off_c, 1, 79, 0
2, 292920, Note_on_c, 1, 77, 79
2, 293015, Note_off_c, 1, 77, 0
2, 293040, Note_on_c, 1, 77, 87
2, 293160, Note_off_c, 1, 77, 0
2, 293160, Note_on_c, 1, 76, 82
2, 293255, Note_off_c, 1, 76, 0
2, 293280, Note_on_c, 1, 76, 90
2, 293400, Note_off_c, 1, 76, 0
2, 293400, Note_on_c, 1, 75, 89
2, 293495, Note_off_c, 1, 75, 0
2, 293520, Note_on_c, 1, 84, 96
2, 294000, Note_off_c, 1, 84, 0
2, 294000, Note_on_c, 1, 75, 85
2, 294240, Note_off_c, 1, 75, 0
2, 294240, Note_on_c, 1, 76, 85
2, 294480, Note_off_c, 1, 76, 0
2, 294720, Note_on_c, 1, 83, 83
2, 294840, Note_off_c, 1, 83, 0
2, 294840, Note_on_c, 1, 80, 83
2, 294960, Note_off_c, 1, 80, 0
2, 294960, Note_on_c, 1, 76, 82
2, 295080, Note_off_c, 1, 76, 0
2, 295080, Note_on_c, 1, 74, 82
2, 295200, Note_off_c, 1, 74, 0
2, 295200, Note_on_c, 1, 72, 82
2, 295320, Note_off_c, 1, 72, 0
2, 295320, Note_on_c, 1, 76, 81
2, 295440, Note_off_c, 1, 76, 0
2, 295440, Note_on_c, 1, 81, 81
2, 295560, Note_off_c, 1, 81, 0
2, 295560, Note_on_c, 1, 80, 80
2, 295680, Note_off_c, 1, 80, 0
2, 295680, Note_on_c, 1, 81, 80
2, 295800, Note_off_c, 1, 81, 0
2, 295800, Note_on_c, 1, 76, 79
2, 295920, Note_off_c, 1, 76, 0
2, 295920, Note_on_c, 1, 72, 79
2, 296040, Note_off_c, 1, 72, 0
2, 296040, Note_on_c, 1, 69, 79
2, 296160, Note_off_c, 1, 69, 0
2, 296160, Note_on_c, 1, 68, 78
2, 296280, Note_off_c, 1, 68, 0
2, 296280, Note_on_c, 1, 71, 78
2, 296400, Note_off_c, 1, 71, 0
2, 296400, Note_on_c, 1, 76, 77
2, 296520, Note_off_c, 1, 76, 0
2, 296520, Note_on_c, 1, 80, 77
2, 296640, Note_off_c, 1, 80, 0
2, 296640, Note_on_c, 1, 83, 77
2, 296760, Note_off_c, 1, 83, 0
2, 296760, Note_on_c, 1, 80, 76
2, 296880, Note_off_c, 1, 80, 0
2, 296880, Note_on_c, 1, 76, 76
2, 297000, Note_off_c, 1, 76, 0
2, 297000, Note_on_c, 1, 74, 75
2, 297120, Note_off_c, 1, 74, 0
2, 297120, Note_on_c, 1, 72, 75
2, 297240, Note_off_c, 1, 72, 0
2, 297240, Note_on_c, 1, 76, 74
2, 297360, Note_off_c, 1, 76, 0
2, 297360, Note_on_c, 1, 81, 74
2, 297480, Note_off_c, 1, 81, 0
2, 297480, Note_on_c, 1, 80, 74
2, 297600, Note_off_c, 1, 80, 0
2, 297600, Note_on_c, 1, 81, 73
2, 297720, Note_off_c, 1, 81, 0
2, 297720, Note_on_c, 1, 76, 73
2, 297840, Note_off_c, 1, 76, 0
2, 297840, Note_on_c, 1, 72, 72
2, 297960, Note_off_c, 1, 72, 0
2, 297960, Note_on_c, 1, 69, 72
2, 298080, Note_off_c, 1, 69, 0
2, 298560, Note_on_c, 1, 76, 70
2, 298715, Note_off_c, 1, 76, 0
2, 298800, Note_on_c, 1, 76, 69
2, 298955, Note_off_c, 1, 76, 0
2, 299040, Note_on_c, 1, 72, 68
2, 299195, Note_off_c, 1, 72, 0
2, 299520, Note_on_c, 1, 74, 67
2, 299675, Note_off_c, 1, 74, 0
2, 299760, Note_on_c, 1, 74, 66
2, 299915, Note_off_c, 1, 74, 0
2, 300000, Note_on_c, 1, 71, 65
2, 300155, Note_off_c, 1, 71, 0
2, 300960, Note_on_c, 1, 64, 65
2, 301080, Note_off_c, 1, 64, 0
2, 301080, Note_on_c, 1, 63, 63
2, 301200, Note_off_c, 1, 63, 0
2, 301200, Note_on_c, 1, 65, 61
2, 301320, Note_off_c, 1, 65, 0
2, 301320, Note_on_c, 1, 64, 59
2, 301440, Note_off_c, 1, 64, 0
2, 301920, Note_on_c, 1, 88, 65
2, 302040, Note_off_c, 1, 88, 0
2, 302040, Note_on_c, 1, 87, 64
2, 302160, Note_off_c, 1, 87, 0
2, 302160, Note_on_c, 1, 89, 62
2, 302280, Note_off_c, 1, 89, 0
2, 302280, Note_on_c, 1, 88, 61
2, 302400, Note_off_c, 1, 88, 0
2, 302400, Note_on_c, 1, 86, 59
2, 302520, Note_off_c, 1, 86, 0
2, 302520, Note_on_c, 1, 85, 58
2, 302640, Note_off_c, 1, 85, 0
2, 302640, Note_on_c, 1, 88, 56
2, 302760, Note_off_c, 1, 88, 0
2, 302760, Note_on_c, 1, 86, 55
2, 302880, Note_off_c, 1, 86, 0
2, 302880, Note_on_c, 1, 86, 62
2, 303000, Note_off_c, 1, 86, 0
2, 303000, Note_on_c, 1, 84, 55
2, 303095, Note_off_c, 1, 84, 0
2, 303120, Note_on_c, 1, 84, 61
2, 303240, Note_off_c, 1, 84, 0
2, 303240, Note_on_c, 1, 83, 54
2, 303335, Note_off_c, 1, 83, 0
2, 303360, Note_on_c, 1, 83, 60
2, 303480, Note_off_c, 1, 83, 0
2, 303480, Note_on_c, 1, 81, 53
2, 303575, Note_off_c, 1, 81, 0
2, 303600, Note_on_c, 1, 81, 59
2, 303720, Note_off_c, 1, 81, 0
2, 303720, Note_on_c, 1, 79, 52
2, 303815, Note_off_c, 1, 79, 0
2, 303840, Note_on_c, 1, 79, 60
2, 303960, Note_off_c, 1, 79, 0
2, 303960, Note_on_c, 1, 77, 51
2, 304055, Note_off_c, 1, 77, 0
2, 304080, Note_on_c, 1, 77, 58
2, 304200, Note_off_c, 1, 77, 0
2, 304200, Note_on_c, 1, 76, 51
2, 304295, Note_off_c, 1, 76, 0
2, 304320, Note_on_c, 1, 76, 58
2, 304440, Note_off_c, 1, 76, 0
2, 304440, Note_on_c, 1, 74, 50
2, 304535, Note_off_c, 1, 74, 0
2, 304560, Note_on_c, 1, 74, 58
2, 304680, Note_off_c, 1, 74, 0
2, 304680, Note_on_c, 1, 72, 49
2, 304775, Note_off_c, 1, 72, 0
2, 304800, Note_on_c, 1, 70, 55
2, 304920, Note_off_c, 1, 70, 0
2, 304920, Note_on_c, 1, 77, 54
2, 305040, Note_off_c, 1, 77, 0
2, 305040, Note_on_c, 1, 74, 52
2, 305160, Note_off_c, 1, 74, 0
2, 305160, Note_on_c, 1, 70, 50
2, 305280, Note_off_c, 1, 70, 0
2, 305280, Note_on_c, 1, 69, 49
2, 305470, Note_off_c, 1, 69, 0
2, 305520, Note_on_c, 1, 68, 46
2, 305710, Note_off_c, 1, 68, 0
2, 305760, Note_on_c, 1, 69, 45
2, 305950, Note_off_c, 1, 69, 0
2, 306240, Note_on_c, 1, 68, 43
2, 306335, Note_off_c, 1, 68, 0
2, 306360, Note_on_c, 1, 74, 43
2, 306455, Note_off_c, 1, 74, 0
2, 306480, Note_on_c, 1, 71, 43
2, 306575, Note_off_c, 1, 71, 0
2, 306600, Note_on_c, 1, 68, 42
2, 306695, Note_off_c, 1, 68, 0
2, 306720, Note_on_c, 1, 69, 42
2, 306910, Note_off_c, 1, 69, 0
2, 307200, Note_on_c, 1, 68, 40
2, 307295, Note_off_c, 1, 68, 0
2, 307320, Note_on_c, 1, 74, 40
2, 307415, Note_off_c, 1, 74, 0
2, 307440, Note_on_c, 1, 71, 39
2, 307535, Note_off_c, 1, 71, 0
2, 307560, Note_on_c, 1, 68, 39
2, 307655, Note_off_c, 1, 68, 0
2, 307680, Note_on_c, 1, 69, 38
2, 307870, Note_off_c, 1, 69, 0
2, 308160, Note_on_c, 1, 68, 41
2, 308255, Note_off_c, 1, 68, 0
2, 308280, Note_on_c, 1, 74, 43
2, 308375, Note_off_c, 1, 74, 0
2, 308400, Note_on_c, 1, 71, 45
2, 308495, Note_off_c, 1, 71, 0
2, 308520, Note_on_c, 1, 68, 47
2, 308615, Note_off_c, 1, 68, 0
2, 308640, Note_on_c, 1, 69, 48
2, 308735, Note_off_c, 1, 69, 0
2, 308760, Note_on_c, 1, 76, 51
2, 308855, Note_off_c, 1, 76, 0
2, 308880, Note_on_c, 1, 72, 54
2, 308975, Note_off_c, 1, 72, 0
2, 309000, Note_on_c, 1, 69, 57
2, 309095, Note_off_c, 1, 69, 0
2, 309120, Note_on_c, 1, 71, 61
2, 309215, Note_off_c, 1, 71, 0
2, 309240, Note_on_c, 1, 77, 65
2, 309335, Note_off_c, 1, 77, 0
2, 309360, Note_on_c, 1, 74, 70
2, 309455, Note_off_c, 1, 74, 0
2, 309480, Note_on_c, 1, 71, 76
2, 309600, Note_off_c, 1, 71, 0
2, 310080, Note_on_c, 1, 79, 83
2, 310235, Note_off_c, 1, 79, 0
2, 310320, Note_on_c, 1, 79, 83
2, 310475, Note_off_c, 1, 79, 0
2, 310560, Note_on_c, 1, 76, 82
2, 310715, Note_off_c, 1, 76, 0
2, 311040, Note_on_c, 1, 77, 81
2, 311195, Note_off_c, 1, 77, 0
2, 311280, Note_on_c, 1, 77, 80
2, 311435, Note_off_c, 1, 77, 0
2, 311520, Note_on_c, 1, 74, 80
2, 311675, Note_off_c, 1, 74, 0
2, 312000, Note_on_c, 1, 72, 78
2, 312120, Note_off_c, 1, 72, 0
2, 312120, Note_on_c, 1, 74, 79
2, 312240, Note_off_c, 1, 74, 0
2, 312240, Note_on_c, 1, 76, 81
2, 312360, Note_off_c, 1, 76, 0
2, 312360, Note_on_c, 1, 72, 82
2, 312480, Note_off_c, 1, 72, 0
2, 312480, Note_on_c, 1, 69, 85
2, 312600, Note_off_c, 1, 69, 0
2, 312600, Note_on_c, 1, 71, 84
2, 312720, Note_off_c, 1, 71, 0
2, 312720, Note_on_c, 1, 72, 83
2, 312840, Note_off_c, 1, 72, 0
2, 312840, Note_on_c, 1, 73, 81
2, 312960, Note_off_c, 1, 73, 0
2, 312960, Note_on_c, 1, 74, 80
2, 313080, Note_off_c, 1, 74, 0
2, 313080, Note_on_c, 1, 76, 79
2, 313200, Note_off_c, 1, 76, 0
2, 313200, Note_on_c, 1, 77, 78
2, 313320, Note_off_c, 1, 77, 0
2, 313320, Note_on_c, 1, 74, 77
2, 313440, Note_off_c, 1, 74, 0
2, 313440, Note_on_c, 1, 72, 75
2, 313560, Note_off_c, 1, 72, 0
2, 313560, Note_on_c, 1, 71, 74
2, 313680, Note_off_c, 1, 71, 0
2, 313680, Note_on_c, 1, 69, 73
2, 313800, Note_off_c, 1, 69, 0
2, 313800, Note_on_c, 1, 67, 72
2, 313920, Note_off_c, 1, 67, 0
2, 313920, Note_on_c, 1, 79, 74
2, 314075, Note_off_c, 1, 79, 0
2, 314160, Note_on_c, 1, 79, 74
2, 314315, Note_off_c, 1, 79, 0
2, 314400, Note_on_c, 1, 76, 73
2, 314555, Note_off_c, 1, 76, 0
2, 314880, Note_on_c, 1, 81, 72
2, 315035, Note_off_c, 1, 81, 0
2, 315120, Note_on_c, 1, 81, 71
2, 315275, Note_off_c, 1, 81, 0
2, 315360, Note_on_c, 1, 74, 71
2, 315515, Note_off_c, 1, 74, 0
2, 315840, Note_on_c, 1, 81, 70
2, 315960, Note_off_c, 1, 81, 0
2, 315960, Note_on_c, 1, 79, 71
2, 316080, Note_off_c, 1, 79, 0
2, 316080, Note_on_c, 1, 77, 72
2, 316200, Note_off_c, 1, 77, 0
2, 316200, Note_on_c, 1, 76, 74
2, 316320, Note_off_c, 1, 76, 0
2, 316320, Note_on_c, 1, 73, 77
2, 316440, Note_off_c, 1, 73, 0
2, 316440, Note_on_c, 1, 74, 75
2, 316560, Note_off_c, 1, 74, 0
2, 316560, Note_on_c, 1, 76, 74
2, 316680, Note_off_c, 1, 76, 0
2, 316680, Note_on_c, 1, 77, 72
2, 316800, Note_off_c, 1, 77, 0
2, 316800, Note_on_c, 1, 69, 71
2, 316920, Note_off_c, 1, 69, 0
2, 316920, Note_on_c, 1, 72, 69
2, 317040, Note_off_c, 1, 72, 0
2, 317040, Note_on_c, 1, 71, 68
2, 317160, Note_off_c, 1, 71, 0
2, 317160, Note_on_c, 1, 74, 66
2, 317280, Note_off_c, 1, 74, 0
2, 317280, Note_on_c, 1, 72, 66
2, 317435, Note_off_c, 1, 72, 0
2, 317760, Note_on_c, 1, 71, 68
2, 317880, Note_off_c, 1, 71, 0
2, 317880, Note_on_c, 1, 77, 55
2, 318000, Note_off_c, 1, 77, 0
2, 318000, Note_on_c, 1, 74, 51
2, 318120, Note_off_c, 1, 74, 0
2, 318120, Note_on_c, 1, 71, 47
2, 318240, Note_off_c, 1, 71, 0
2, 318240, Note_on_c, 1, 81, 46
2, 318360, Note_off_c, 1, 81, 0
2, 318360, Note_on_c, 1, 79, 48
2, 318480, Note_off_c, 1, 79, 0
2, 318480, Note_on_c, 1, 77, 49
2, 318600, Note_off_c, 1, 77, 0
2, 318600, Note_on_c, 1, 76, 49
2, 318720, Note_off_c, 1, 76, 0
2, 318720, Note_on_c, 1, 74, 72
2, 318840, Note_off_c, 1, 74, 0
2, 318840, Note_on_c, 1, 77, 59
2, 318960, Note_off_c, 1, 77, 0
2, 318960, Note_on_c, 1, 74, 54
2, 319080, Note_off_c, 1, 74, 0
2, 319080, Note_on_c, 1, 71, 48
2, 319200, Note_off_c, 1, 71, 0
2, 319200, Note_on_c, 1, 81, 51
2, 319320, Note_off_c, 1, 81, 0
2, 319320, Note_on_c, 1, 79, 52
2, 319440, Note_off_c, 1, 79, 0
2, 319440, Note_on_c, 1, 77, 53
2, 319560, Note_off_c, 1, 77, 0
2, 319560, Note_on_c, 1, 76, 53
2, 319680, Note_off_c, 1, 76, 0
2, 319680, Note_on_c, 1, 86, 86
2, 319800, Note_off_c, 1, 86, 0
2, 319800, Note_on_c, 1, 84, 80
2, 319920, Note_off_c, 1, 84, 0
2, 319920, Note_on_c, 1, 83, 78
2, 320040, Note_off_c, 1, 83, 0
2, 320040, Note_on_c, 1, 81, 77
2, 320160, Note_off_c, 1, 81, 0
2, 320160, Note_on_c, 1, 81, 76
2, 320280, Note_off_c, 1, 81, 0
2, 320280, Note_on_c, 1, 79, 74
2, 320360, Note_off_c, 1, 79, 0
2, 320400, Note_on_c, 1, 77, 73
2, 320480, Note_off_c, 1, 77, 0
2, 320520, Note_on_c, 1, 76, 72
2, 320600, Note_off_c, 1, 76, 0
2, 320640, Note_on_c, 1, 76, 70
2, 320760, Note_off_c, 1, 76, 0
2, 320760, Note_on_c, 1, 74, 69
2, 320840, Note_off_c, 1, 74, 0
2, 320880, Note_on_c, 1, 72, 67
2, 320960, Note_off_c, 1, 72, 0
2, 321000, Note_on_c, 1, 71, 66
2, 321080, Note_off_c, 1, 71, 0
2, 321120, Note_on_c, 1, 74, 65
2, 321360, Note_off_c, 1, 74, 0
2, 321360, Note_on_c, 1, 72, 62
2, 321600, Note_off_c, 1, 72, 0
2, 321600, Note_on_c, 1, 71, 80
2, 321720, Note_off_c, 1, 71, 0
2, 321720, Note_on_c, 1, 77, 72
2, 321840, Note_off_c, 1, 77, 0
2, 321840, Note_on_c, 1, 74, 67
2, 321960, Note_off_c, 1, 74, 0
2, 321960, Note_on_c, 1, 71, 62
2, 322080, Note_off_c, 1, 71, 0
2, 322080, Note_on_c, 1, 81, 67
2, 322200, Note_off_c, 1, 81, 0
2, 322200, Note_on_c, 1, 79, 65
2, 322320, Note_off_c, 1, 79, 0
2, 322320, Note_on_c, 1, 77, 65
2, 322440, Note_off_c, 1, 77, 0
2, 322440, Note_on_c, 1, 76, 66
2, 322560, Note_off_c, 1, 76, 0
2, 322560, Note_on_c, 1, 74, 82
2, 322680, Note_off_c, 1, 74, 0
2, 322680, Note_on_c, 1, 77, 73
2, 322800, Note_off_c, 1, 77, 0
2, 322800, Note_on_c, 1, 74, 69
2, 322920, Note_off_c, 1, 74, 0
2, 322920, Note_on_c, 1, 71, 65
2, 323040, Note_off_c, 1, 71, 0
2, 323040, Note_on_c, 1, 81, 70
2, 323160, Note_off_c, 1, 81, 0
2, 323160, Note_on_c, 1, 79, 69
2, 323280, Note_off_c, 1, 79, 0
2, 323280, Note_on_c, 1, 77, 69
2, 323400, Note_off_c, 1, 77, 0
2, 323400, Note_on_c, 1, 76, 70
2, 323520, Note_off_c, 1, 76, 0
2, 323520, Note_on_c, 1, 86, 93
2, 323640, Note_off_c, 1, 86, 0
2, 323640, Note_on_c, 1, 84, 89
2, 323760, Note_off_c, 1, 84, 0
2, 323760, Note_on_c, 1, 83, 88
2, 323880, Note_off_c, 1, 83, 0
2, 323880, Note_on_c, 1, 81, 87
2, 324000, Note_off_c, 1, 81, 0
2, 324000, Note_on_c, 1, 81, 85
2, 324120, Note_off_c, 1, 81, 0
2, 324120, Note_on_c, 1, 79, 84
2, 324200, Note_off_c, 1, 79, 0
2, 324240, Note_on_c, 1, 77, 83
2, 324320, Note_off_c, 1, 77, 0
2, 324360, Note_on_c, 1, 76, 82
2, 324440, Note_off_c, 1, 76, 0
2, 324480, Note_on_c, 1, 76, 81
2, 324600, Note_off_c, 1, 76, 0
2, 324600, Note_on_c, 1, 74, 80
2, 324680, Note_off_c, 1, 74, 0
2, 324720, Note_on_c, 1, 72, 79
2, 324800, Note_off_c, 1, 72, 0
2, 324840, Note_on_c, 1, 71, 77
2, 324920, Note_off_c, 1, 71, 0
2, 324960, Note_on_c, 1, 72, 76
2, 325069, Note_off_c, 1, 72, 0
2, 325200, Note_on_c, 1, 67, 77
2, 325309, Note_off_c, 1, 67, 0
2, 325440, Note_on_c, 1, 64, 81
2, 325549, Note_off_c, 1, 64, 0
2, 325680, Note_on_c, 1, 60, 84
2, 325789, Note_off_c, 1, 60, 0
2, 325920, Note_on_c, 1, 67, 88
2, 326029, Note_off_c, 1, 67, 0
2, 326040, Note_on_c, 1, 72, 92
2, 326149, Note_off_c, 1, 72, 0
2, 326160, Note_on_c, 1, 76, 95
2, 326269, Note_off_c, 1, 76, 0
2, 326280, Note_on_c, 1, 79, 98
2, 326389, Note_off_c, 1, 79, 0
2, 326400, Note_on_c, 1, 79, 103
2, 326509, Note_off_c, 1, 79, 0
2, 326520, Note_on_c, 1, 77, 94
2, 326629, Note_off_c, 1, 77, 0
2, 326640, Note_on_c, 1, 76, 87
2, 326749, Note_off_c, 1, 76, 0
2, 326760, Note_on_c, 1, 74, 85
2, 326869, Note_off_c, 1, 74, 0
2, 326880, Note_on_c, 1, 72, 82
2, 326960, Note_off_c, 1, 72, 0
2, 327120, Note_on_c, 1, 67, 86
2, 327200, Note_off_c, 1, 67, 0
2, 327360, Note_on_c, 1, 64, 89
2, 327440, Note_off_c, 1, 64, 0
2, 327600, Note_on_c, 1, 60, 92
2, 327680, Note_off_c, 1, 60, 0
2, 327840, Note_on_c, 1, 67, 96
2, 327920, Note_off_c, 1, 67, 0
2, 327960, Note_on_c, 1, 72, 99
2, 328040, Note_off_c, 1, 72, 0
2, 328080, Note_on_c, 1, 76, 102
2, 328160, Note_off_c, 1, 76, 0
2, 328200, Note_on_c, 1, 79, 106
2, 328280, Note_off_c, 1, 79, 0
2, 328320, Note_on_c, 1, 79, 110
2, 328440, Note_off_c, 1, 79, 0
2, 328440, Note_on_c, 1, 77, 103
2, 328520, Note_off_c, 1, 77, 0
2, 328560, Note_on_c, 1, 76, 96
2, 328640, Note_off_c, 1, 76, 0
2, 328680, Note_on_c, 1, 74, 93
2, 328760, Note_off_c, 1, 74, 0
2, 328800, Note_on_c, 1, 72, 96
2, 328955, Note_off_c, 1, 72, 0
2, 329040, Note_on_c, 1, 84, 103
2, 329195, Note_off_c, 1, 84, 0
2, 329280, Note_on_c, 1, 72, 110
2, 329435, Note_off_c, 1, 72, 0
2, 329520, Note_on_c, 1, 72, 117
2, 329675, Note_off_c, 1, 72, 0
2, 329760, Note_on_c, 1, 72, 116
2, 330240, Note_off_c, 1, 72, 0
2, 330240, End_track
3, 0, Start_track
3, 0, Title_t, "Unnamed Track"
3, 0, Control_c, 2, 0, 0
3, 0, Control_c, 2, 32, 0
3, 0, Program_c, 2, 0
3, 0, Control_c, 2, 64, 0
3, 0, Control_c, 2, 10, 73
3, 0, Control_c, 2, 91, 100
3, 0, Control_c, 2, 93, 19
3, 0, Control_c, 2, 1, 0
3, 0, Pitch_bend_c, 2, 8192
3, 0, Control_c, 2, 7, 122
3, 23520, Note_on_c, 2, 74, 86
3, 23520, Note_on_c, 2, 71, 86
3, 23830, Note_off_c, 2, 71, 0
3, 23830, Note_off_c, 2, 74, 0
3, 48080, Note_on_c, 2, 83, 84
3, 48160, Note_off_c, 2, 83, 0
3, 48160, Note_on_c, 2, 81, 84
3, 48240, Note_off_c, 2, 81, 0
3, 48240, Note_on_c, 2, 83, 85
3, 48320, Note_off_c, 2, 83, 0
3, 48320, Note_on_c, 2, 81, 85
3, 48400, Note_off_c, 2, 81, 0
3, 48400, Note_on_c, 2, 83, 85
3, 48480, Note_off_c, 2, 83, 0
3, 48480, Note_on_c, 2, 81, 86
3, 48560, Note_off_c, 2, 81, 0
3, 48560, Note_on_c, 2, 83, 86
3, 48640, Note_off_c, 2, 83, 0
3, 48640, Note_on_c, 2, 81, 86
3, 48720, Note_off_c, 2, 81, 0
3, 48720, Note_on_c, 2, 83, 86
3, 48800, Note_off_c, 2, 83, 0
3, 48800, Note_on_c, 2, 81, 87
3, 48880, Note_off_c, 2, 81, 0
3, 48880, Note_on_c, 2, 83, 87
3, 48960, Note_off_c, 2, 83, 0
3, 48960, Note_on_c, 2, 81, 87
3, 49040, Note_off_c, 2, 81, 0
3, 49040, Note_on_c, 2, 83, 88
3, 49120, Note_off_c, 2, 83, 0
3, 49120, Note_on_c, 2, 81, 88
3, 49200, Note_off_c, 2, 81, 0
3, 49200, Note_on_c, 2, 83, 88
3, 49280, Note_off_c, 2, 83, 0
3, 49280, Note_on_c, 2, 81, 89
3, 49360, Note_off_c, 2, 81, 0
3, 49360, Note_on_c, 2, 83, 89
3, 49440, Note_off_c, 2, 83, 0
3, 49440, Note_on_c, 2, 81, 89
3, 49520, Note_off_c, 2, 81, 0
3, 49520, Note_on_c, 2, 83, 90
3, 49600, Note_off_c, 2, 83, 0
3, 49600, Note_on_c, 2, 81, 90
3, 49680, Note_off_c, 2, 81, 0
3, 49680, Note_on_c, 2, 79, 90
3, 49800, Note_off_c, 2, 79, 0
3, 49800, Note_on_c, 2, 81, 91
3, 49896, Note_off_c, 2, 81, 0
3, 54240, Note_on_c, 2, 74, 76
3, 54550, Note_off_c, 2, 74, 0
3, 54720, Note_on_c, 2, 71, 74
3, 55027, Note_off_c, 2, 71, 0
3, 97440, Note_on_c, 2, 72, 77
3, 97825, Note_off_c, 2, 72, 0
3, 97920, Note_on_c, 2, 72, 76
3, 98305, Note_off_c, 2, 72, 0
3, 99360, Note_on_c, 2, 72, 75
3, 99745, Note_off_c, 2, 72, 0
3, 99840, Note_on_c, 2, 72, 74
3, 100225, Note_off_c, 2, 72, 0
3, 101280, Note_on_c, 2, 71, 73
3, 101665, Note_off_c, 2, 71, 0
3, 101760, Note_on_c, 2, 72, 72
3, 102145, Note_off_c, 2, 72, 0
3, 103200, Note_on_c, 2, 72, 70
3, 103585, Note_off_c, 2, 72, 0
3, 109920, Note_on_c, 2, 74, 90
3, 109920, Note_on_c, 2, 71, 90
3, 110230, Note_off_c, 2, 71, 0
3, 110230, Note_off_c, 2, 74, 0
3, 134480, Note_on_c, 2, 76, 82
3, 134560, Note_off_c, 2, 76, 0
3, 134560, Note_on_c, 2, 74, 82
3, 134640, Note_off_c, 2, 74, 0
3, 134640, Note_on_c, 2, 76, 83
3, 134720, Note_off_c, 2, 76, 0
3, 134720, Note_on_c, 2, 74, 83
3, 134800, Note_off_c, 2, 74, 0
3, 134800, Note_on_c, 2, 76, 83
3, 134880, Note_off_c, 2, 76, 0
3, 134880, Note_on_c, 2, 74, 84
3, 134960, Note_off_c, 2, 74, 0
3, 134960, Note_on_c, 2, 76, 84
3, 135040, Note_off_c, 2, 76, 0
3, 135040, Note_on_c, 2, 74, 84
3, 135120, Note_off_c, 2, 74, 0
3, 135120, Note_on_c, 2, 76, 84
3, 135200, Note_off_c, 2, 76, 0
3, 135200, Note_on_c, 2, 74, 85
3, 135280, Note_off_c, 2, 74, 0
3, 135280, Note_on_c, 2, 76, 85
3, 135360, Note_off_c, 2, 76, 0
3, 135360, Note_on_c, 2, 74, 85
3, 135440, Note_off_c, 2, 74, 0
3, 135440, Note_on_c, 2, 76, 86
3, 135520, Note_off_c, 2, 76, 0
3, 135520, Note_on_c, 2, 74, 86
3, 135600, Note_off_c, 2, 74, 0
3, 135600, Note_on_c, 2, 76, 86
3, 135680, Note_off_c, 2, 76, 0
3, 135680, Note_on_c, 2, 74, 87
3, 135760, Note_off_c, 2, 74, 0
3, 135760, Note_on_c, 2, 76, 87
3, 135840, Note_off_c, 2, 76, 0
3, 135840, Note_on_c, 2, 74, 87
3, 135920, Note_off_c, 2, 74, 0
3, 135920, Note_on_c, 2, 76, 88
3, 136000, Note_off_c, 2, 76, 0
3, 136000, Note_on_c, 2, 74, 88
3, 136080, Note_off_c, 2, 74, 0
3, 136080, Note_on_c, 2, 72, 88
3, 136200, Note_off_c, 2, 72, 0
3, 136200, Note_on_c, 2, 74, 89
3, 136296, Note_off_c, 2, 74, 0
3, 140640, Note_on_c, 2, 79, 74
3, 140640, Note_on_c, 2, 76, 74
3, 140950, Note_off_c, 2, 76, 0
3, 140950, Note_off_c, 2, 79, 0
3, 144000, Control_c, 2, 64, 0
3, 165120, Note_on_c, 2, 66, 57
3, 165562, Note_off_c, 2, 66, 0
3, 165600, Note_on_c, 2, 66, 54
3, 166080, Note_off_c, 2, 66, 0
3, 176640, Note_on_c, 2, 73, 37
3, 177090, Note_off_c, 2, 73, 0
3, 177120, Note_on_c, 2, 73, 36
3, 177600, Note_off_c, 2, 73, 0
3, 188160, Note_on_c, 2, 66, 49
3, 188617, Note_off_c, 2, 66, 0
3, 188640, Note_on_c, 2, 66, 44
3, 189120, Note_off_c, 2, 66, 0
3, 200160, Note_on_c, 2, 69, 37
3, 200640, Note_off_c, 2, 69, 0
3, 211680, Note_on_c, 2, 66, 46
3, 212160, Note_off_c, 2, 66, 0
3, 234240, Note_on_c, 2, 66, 48
3, 234690, Note_off_c, 2, 66, 0
3, 240000, Note_on_c, 2, 66, 50
3, 240442, Note_off_c, 2, 66, 0
3, 245520, Note_on_c, 2, 69, 69
3, 245580, Note_off_c, 2, 69, 0
3, 245580, Note_on_c, 2, 67, 68
3, 245640, Note_off_c, 2, 67, 0
3, 245640, Note_on_c, 2, 66, 67
3, 245700, Note_off_c, 2, 66, 0
3, 245700, Note_on_c, 2, 67, 67
3, 245760, Note_off_c, 2, 67, 0
3, 245760, Note_on_c, 2, 66, 66
3, 246217, Note_off_c, 2, 66, 0
3, 252480, Control_c, 2, 64, 0
3, 252480, Note_on_c, 2, 76, 77
3, 252635, Note_off_c, 2, 76, 0
3, 252720, Note_on_c, 2, 76, 77
3, 252875, Note_off_c, 2, 76, 0
3, 252960, Note_on_c, 2, 72, 76
3, 253115, Note_off_c, 2, 72, 0
3, 253440, Note_on_c, 2, 74, 76
3, 253595, Note_off_c, 2, 74, 0
3, 253680, Note_on_c, 2, 74, 75
3, 253835, Note_off_c, 2, 74, 0
3, 253920, Note_on_c, 2, 71, 75
3, 254075, Note_off_c, 2, 71, 0
3, 256320, Note_on_c, 2, 76, 70
3, 256475, Note_off_c, 2, 76, 0
3, 256560, Note_on_c, 2, 76, 70
3, 256715, Note_off_c, 2, 76, 0
3, 256800, Note_on_c, 2, 72, 69
3, 256955, Note_off_c, 2, 72, 0
3, 257280, Note_on_c, 2, 77, 68
3, 257435, Note_off_c, 2, 77, 0
3, 257520, Note_on_c, 2, 77, 68
3, 257675, Note_off_c, 2, 77, 0
3, 257760, Note_on_c, 2, 71, 67
3, 257915, Note_off_c, 2, 71, 0
3, 260160, Control_c, 2, 64, 0
3, 260160, Note_on_c, 2, 76, 77
3, 260315, Note_off_c, 2, 76, 0
3, 260400, Note_on_c, 2, 76, 77
3, 260555, Note_off_c, 2, 76, 0
3, 260640, Note_on_c, 2, 72, 76
3, 260795, Note_off_c, 2, 72, 0
3, 261120, Note_on_c, 2, 74, 76
3, 261275, Note_off_c, 2, 74, 0
3, 261360, Note_on_c, 2, 74, 75
3, 261515, Note_off_c, 2, 74, 0
3, 261600, Note_on_c, 2, 71, 75
3, 261755, Note_off_c, 2, 71, 0
3, 264000, Note_on_c, 2, 76, 70
3, 264155, Note_off_c, 2, 76, 0
3, 264240, Note_on_c, 2, 76, 70
3, 264395, Note_off_c, 2, 76, 0
3, 264480, Note_on_c, 2, 72, 69
3, 264635, Note_off_c, 2, 72, 0
3, 264960, Note_on_c, 2, 77, 68
3, 265115, Note_off_c, 2, 77, 0
3, 265200, Note_on_c, 2, 77, 68
3, 265355, Note_off_c, 2, 77, 0
3, 265440, Note_on_c, 2, 71, 67
3, 265595, Note_off_c, 2, 71, 0
3, 267840, Control_c, 2, 64, 0
3, 271680, Note_on_c, 2, 83, 55
3, 271835, Note_off_c, 2, 83, 0
3, 271920, Note_on_c, 2, 83, 55
3, 272075, Note_off_c, 2, 83, 0
3, 272160, Note_on_c, 2, 79, 54
3, 272315, Note_off_c, 2, 79, 0
3, 272640, Note_on_c, 2, 81, 53
3, 272795, Note_off_c, 2, 81, 0
3, 272880, Note_on_c, 2, 81, 53
3, 273035, Note_off_c, 2, 81, 0
3, 273120, Note_on_c, 2, 78, 52
3, 273275, Note_off_c, 2, 78, 0
3, 279360, Note_on_c, 2, 76, 81
3, 279515, Note_off_c, 2, 76, 0
3, 279600, Note_on_c, 2, 76, 81
3, 279755, Note_off_c, 2, 76, 0
3, 279840, Note_on_c, 2, 72, 80
3, 279995, Note_off_c, 2, 72, 0
3, 280320, Note_on_c, 2, 74, 79
3, 280475, Note_off_c, 2, 74, 0
3, 280560, Note_on_c, 2, 74, 79
3, 280715, Note_off_c, 2, 74, 0
3, 280800, Note_on_c, 2, 71, 78
3, 280955, Note_off_c, 2, 71, 0
3, 283200, Note_on_c, 2, 76, 73
3, 283355, Note_off_c, 2, 76, 0
3, 283440, Note_on_c, 2, 76, 73
3, 283595, Note_off_c, 2, 76, 0
3, 283680, Note_on_c, 2, 72, 72
3, 283835, Note_off_c, 2, 72, 0
3, 284160, Note_on_c, 2, 77, 71
3, 284315, Note_off_c, 2, 77, 0
3, 284400, Note_on_c, 2, 77, 71
3, 284555, Note_off_c, 2, 77, 0
3, 284640, Note_on_c, 2, 71, 70
3, 284795, Note_off_c, 2, 71, 0
3, 288960, Note_on_c, 2, 76, 54
3, 289115, Note_off_c, 2, 76, 0
3, 289200, Note_on_c, 2, 76, 55
3, 289355, Note_off_c, 2, 76, 0
3, 289440, Note_on_c, 2, 72, 56
3, 289595, Note_off_c, 2, 72, 0
3, 289920, Note_on_c, 2, 74, 58
3, 290075, Note_off_c, 2, 74, 0
3, 290160, Note_on_c, 2, 74, 59
3, 290315, Note_off_c, 2, 74, 0
3, 290400, Note_on_c, 2, 71, 61
3, 290555, Note_off_c, 2, 71, 0
3, 290880, Note_on_c, 2, 64, 63
3, 291360, Note_off_c, 2, 64, 0
3, 291360, Note_on_c, 2, 65, 64
3, 291840, Note_off_c, 2, 65, 0
3, 291840, Note_on_c, 2, 67, 67
3, 292320, Note_off_c, 2, 67, 0
3, 292320, Note_on_c, 2, 69, 71
3, 293280, Note_off_c, 2, 69, 0
3, 293280, Note_on_c, 2, 69, 83
3, 293520, Note_off_c, 2, 69, 0
3, 293760, Note_on_c, 2, 69, 84
3, 294000, Note_off_c, 2, 69, 0
3, 298560, Note_on_c, 2, 72, 70
3, 298715, Note_off_c, 2, 72, 0
3, 298800, Note_on_c, 2, 72, 69
3, 298955, Note_off_c, 2, 72, 0
3, 299040, Note_on_c, 2, 69, 68
3, 299195, Note_off_c, 2, 69, 0
3, 299520, Note_on_c, 2, 71, 67
3, 299675, Note_off_c, 2, 71, 0
3, 299760, Note_on_c, 2, 71, 66
3, 299915, Note_off_c, 2, 71, 0
3, 300000, Note_on_c, 2, 68, 65
3, 300155, Note_off_c, 2, 68, 0
3, 302400, Note_on_c, 2, 59, 57
3, 302880, Note_off_c, 2, 59, 0
3, 302880, Note_on_c, 2, 60, 59
3, 303070, Note_off_c, 2, 60, 0
3, 303120, Note_on_c, 2, 62, 60
3, 303310, Note_off_c, 2, 62, 0
3, 303360, Note_on_c, 2, 64, 61
3, 303840, Note_off_c, 2, 64, 0
3, 303840, Note_on_c, 2, 69, 62
3, 304800, Note_off_c, 2, 69, 0
3, 304800, Note_on_c, 2, 65, 67
3, 305185, Note_off_c, 2, 65, 0
3, 310080, Note_on_c, 2, 76, 83
3, 310235, Note_off_c, 2, 76, 0
3, 310320, Note_on_c, 2, 76, 83
3, 310475, Note_off_c, 2, 76, 0
3, 310560, Note_on_c, 2, 72, 82
3, 310715, Note_off_c, 2, 72, 0
3, 311040, Note_on_c, 2, 74, 81
3, 311195, Note_off_c, 2, 74, 0
3, 311280, Note_on_c, 2, 74, 80
3, 311435, Note_off_c, 2, 74, 0
3, 311520, Note_on_c, 2, 71, 80
3, 311675, Note_off_c, 2, 71, 0
3, 313920, Note_on_c, 2, 76, 74
3, 314075, Note_off_c, 2, 76, 0
3, 314160, Note_on_c, 2, 76, 74
3, 314315, Note_off_c, 2, 76, 0
3, 314400, Note_on_c, 2, 72, 73
3, 314555, Note_off_c, 2, 72, 0
3, 314880, Note_on_c, 2, 77, 72
3, 315035, Note_off_c, 2, 77, 0
3, 315120, Note_on_c, 2, 77, 71
3, 315275, Note_off_c, 2, 77, 0
3, 315360, Note_on_c, 2, 71, 71
3, 315515, Note_off_c, 2, 71, 0
3, 325080, Note_on_c, 2, 76, 76
3, 325189, Note_off_c, 2, 76, 0
3, 325320, Note_on_c, 2, 72, 79
3, 325429, Note_off_c, 2, 72, 0
3, 325560, Note_on_c, 2, 67, 82
3, 325669, Note_off_c, 2, 67, 0
3, 325800, Note_on_c, 2, 64, 86
3, 325909, Note_off_c, 2, 64, 0
3, 326160, Note_on_c, 2, 72, 95
3, 326269, Note_off_c, 2, 72, 0
3, 326280, Note_on_c, 2, 76, 98
3, 326389, Note_off_c, 2, 76, 0
3, 326400, Note_on_c, 2, 76, 103
3, 326509, Note_off_c, 2, 76, 0
3, 326520, Note_on_c, 2, 74, 94
3, 326629, Note_off_c, 2, 74, 0
3, 326640, Note_on_c, 2, 72, 87
3, 326749, Note_off_c, 2, 72, 0
3, 326760, Note_on_c, 2, 71, 85
3, 326869, Note_off_c, 2, 71, 0
3, 327000, Note_on_c, 2, 76, 84
3, 327080, Note_off_c, 2, 76, 0
3, 327240, Note_on_c, 2, 72, 87
3, 327320, Note_off_c, 2, 72, 0
3, 327480, Note_on_c, 2, 67, 91
3, 327560, Note_off_c, 2, 67, 0
3, 327720, Note_on_c, 2, 64, 94
3, 327800, Note_off_c, 2, 64, 0
3, 328080, Note_on_c, 2, 72, 102
3, 328160, Note_off_c, 2, 72, 0
3, 328200, Note_on_c, 2, 76, 106
3, 328280, Note_off_c, 2, 76, 0
3, 328320, Note_on_c, 2, 76, 110
3, 328440, Note_off_c, 2, 76, 0
3, 328440, Note_on_c, 2, 74, 103
3, 328520, Note_off_c, 2, 74, 0
3, 328560, Note_on_c, 2, 72, 96
3, 328640, Note_off_c, 2, 72, 0
3, 328680, Note_on_c, 2, 71, 93
3, 328760, Note_off_c, 2, 71, 0
3, 329040, Note_on_c, 2, 79, 103
3, 329040, Note_on_c, 2, 76, 103
3, 329195, Note_off_c, 2, 76, 0
3, 329195, Note_off_c, 2, 79, 0
3, 329280, Note_on_c, 2, 64, 110
3, 329435, Note_off_c, 2, 64, 0
3, 329520, Note_on_c, 2, 64, 117
3, 329675, Note_off_c, 2, 64, 0
3, 329760, Note_on_c, 2, 64, 116
3, 330240, Note_off_c, 2, 64, 0
3, 330240, End_track
4, 0, Start_track
4, 0, Title_t, "Unnamed Track"
4, 0, Control_c, 3, 0, 0
4, 0, Control_c, 3, 32, 0
4, 0, Program_c, 3, 0
4, 0, Control_c, 3, 64, 0
4, 0, Control_c, 3, 7, 112
4, 0, Pitch_bend_c, 3, 8192
4, 0, Control_c, 3, 1, 0
4, 0, Control_c, 3, 93, 19
4, 0, Control_c, 3, 91, 100
4, 0, Control_c, 3, 10, 64
4, 0, Control_c, 3, 64, 0
4, 1920, Control_c, 3, 64, 0
4, 1980, Control_c, 3, 64, 127
4, 2160, Note_on_c, 3, 67, 43
4, 2400, Note_off_c, 3, 67, 0
4, 2400, Note_on_c, 3, 64, 44
4, 2640, Note_off_c, 3, 64, 0
4, 2640, Note_on_c, 3, 67, 46
4, 2880, Control_c, 3, 64, 0
4, 2880, Note_off_c, 3, 67, 0
4, 2940, Control_c, 3, 64, 127
4, 3120, Note_on_c, 3, 67, 48
4, 3360, Note_off_c, 3, 67, 0
4, 3360, Note_on_c, 3, 64, 49
4, 3600, Note_off_c, 3, 64, 0
4, 3600, Note_on_c, 3, 67, 50
4, 3840, Control_c, 3, 64, 0
4, 3840, Note_off_c, 3, 67, 0
4, 3900, Control_c, 3, 64, 127
4, 4080, Note_on_c, 3, 67, 51
4, 4320, Note_off_c, 3, 67, 0
4, 4320, Note_on_c, 3, 65, 50
4, 4560, Note_off_c, 3, 65, 0
4, 4560, Note_on_c, 3, 67, 49
4, 4800, Control_c, 3, 64, 0
4, 4800, Note_off_c, 3, 67, 0
4, 4860, Control_c, 3, 64, 127
4, 5040, Note_on_c, 3, 67, 48
4, 5280, Note_off_c, 3, 67, 0
4, 5280, Note_on_c, 3, 64, 47
4, 5520, Note_off_c, 3, 64, 0
4, 5520, Note_on_c, 3, 67, 46
4, 5700, Control_c, 3, 64, 0
4, 5712, Note_off_c, 3, 67, 0
4, 5760, Control_c, 3, 64, 127
4, 6000, Note_on_c, 3, 69, 48
4, 6240, Note_off_c, 3, 69, 0
4, 6240, Note_on_c, 3, 65, 49
4, 6480, Note_off_c, 3, 65, 0
4, 6480, Note_on_c, 3, 69, 51
4, 6720, Control_c, 3, 64, 0
4, 6720, Note_off_c, 3, 69, 0
4, 6780, Control_c, 3, 64, 127
4, 6960, Note_on_c, 3, 67, 54
4, 7200, Note_off_c, 3, 67, 0
4, 7200, Note_on_c, 3, 64, 55
4, 7440, Note_off_c, 3, 64, 0
4, 7440, Note_on_c, 3, 67, 57
4, 7680, Control_c, 3, 64, 0
4, 7680, Note_off_c, 3, 67, 0
4, 7740, Control_c, 3, 64, 127
4, 7920, Note_on_c, 3, 67, 57
4, 8160, Note_off_c, 3, 67, 0
4, 8160, Note_on_c, 3, 62, 56
4, 8400, Note_off_c, 3, 62, 0
4, 8400, Note_on_c, 3, 67, 54
4, 8640, Control_c, 3, 64, 0
4, 8640, Note_off_c, 3, 67, 0
4, 8700, Control_c, 3, 64, 127
4, 8880, Note_on_c, 3, 67, 50
4, 9120, Note_off_c, 3, 67, 0
4, 9120, Note_on_c, 3, 64, 48
4, 9360, Note_off_c, 3, 64, 0
4, 9360, Note_on_c, 3, 67, 46
4, 9540, Control_c, 3, 64, 0
4, 9552, Note_off_c, 3, 67, 0
4, 21240, Note_on_c, 3, 47, 83
4, 21335, Note_off_c, 3, 47, 0
4, 21360, Note_on_c, 3, 50, 84
4, 21455, Note_off_c, 3, 50, 0
4, 21480, Note_on_c, 3, 55, 84
4, 21575, Note_off_c, 3, 55, 0
4, 21720, Note_on_c, 3, 48, 85
4, 21815, Note_off_c, 3, 48, 0
4, 21840, Note_on_c, 3, 52, 86
4, 21935, Note_off_c, 3, 52, 0
4, 21960, Note_on_c, 3, 55, 86
4, 22055, Note_off_c, 3, 55, 0
4, 22200, Note_on_c, 3, 47, 87
4, 22295, Note_off_c, 3, 47, 0
4, 22320, Note_on_c, 3, 50, 88
4, 22415, Note_off_c, 3, 50, 0
4, 22440, Note_on_c, 3, 55, 88
4, 22535, Note_off_c, 3, 55, 0
4, 22680, Note_on_c, 3, 48, 89
4, 22775, Note_off_c, 3, 48, 0
4, 22800, Note_on_c, 3, 52, 90
4, 22895, Note_off_c, 3, 52, 0
4, 22920, Note_on_c, 3, 55, 90
4, 23015, Note_off_c, 3, 55, 0
4, 25080, Note_on_c, 3, 62, 75
4, 25175, Note_off_c, 3, 62, 0
4, 25320, Note_on_c, 3, 62, 68
4, 25415, Note_off_c, 3, 62, 0
4, 25560, Note_on_c, 3, 62, 65
4, 25655, Note_off_c, 3, 62, 0
4, 25800, Note_on_c, 3, 62, 62
4, 25895, Note_off_c, 3, 62, 0
4, 26040, Note_on_c, 3, 62, 60
4, 26135, Note_off_c, 3, 62, 0
4, 26280, Note_on_c, 3, 62, 60
4, 26375, Note_off_c, 3, 62, 0
4, 26520, Note_on_c, 3, 62, 59
4, 26615, Note_off_c, 3, 62, 0
4, 26760, Note_on_c, 3, 62, 59
4, 26855, Note_off_c, 3, 62, 0
4, 27000, Note_on_c, 3, 62, 59
4, 27095, Note_off_c, 3, 62, 0
4, 27240, Note_on_c, 3, 62, 58
4, 27335, Note_off_c, 3, 62, 0
4, 27480, Note_on_c, 3, 62, 58
4, 27575, Note_off_c, 3, 62, 0
4, 27720, Note_on_c, 3, 62, 58
4, 27815, Note_off_c, 3, 62, 0
4, 27960, Note_on_c, 3, 62, 58
4, 28055, Note_off_c, 3, 62, 0
4, 28200, Note_on_c, 3, 62, 57
4, 28295, Note_off_c, 3, 62, 0
4, 28440, Note_on_c, 3, 62, 57
4, 28535, Note_off_c, 3, 62, 0
4, 28680, Note_on_c, 3, 62, 57
4, 28775, Note_off_c, 3, 62, 0
4, 28920, Note_on_c, 3, 62, 56
4, 29015, Note_off_c, 3, 62, 0
4, 29160, Note_on_c, 3, 62, 56
4, 29255, Note_off_c, 3, 62, 0
4, 29400, Note_on_c, 3, 62, 56
4, 29495, Note_off_c, 3, 62, 0
4, 29640, Note_on_c, 3, 62, 55
4, 29735, Note_off_c, 3, 62, 0
4, 29880, Note_on_c, 3, 62, 55
4, 29975, Note_off_c, 3, 62, 0
4, 30120, Note_on_c, 3, 62, 55
4, 30215, Note_off_c, 3, 62, 0
4, 30360, Note_on_c, 3, 62, 55
4, 30455, Note_off_c, 3, 62, 0
4, 30600, Note_on_c, 3, 62, 54
4, 30695, Note_off_c, 3, 62, 0
4, 30840, Note_on_c, 3, 62, 54
4, 30935, Note_off_c, 3, 62, 0
4, 31080, Note_on_c, 3, 62, 54
4, 31175, Note_off_c, 3, 62, 0
4, 31320, Note_on_c, 3, 62, 53
4, 31415, Note_off_c, 3, 62, 0
4, 31560, Note_on_c, 3, 62, 53
4, 31655, Note_off_c, 3, 62, 0
4, 31800, Note_on_c, 3, 62, 53
4, 31895, Note_off_c, 3, 62, 0
4, 32040, Note_on_c, 3, 62, 53
4, 32135, Note_off_c, 3, 62, 0
4, 32280, Note_on_c, 3, 62, 52
4, 32375, Note_off_c, 3, 62, 0
4, 32520, Note_on_c, 3, 62, 52
4, 32615, Note_off_c, 3, 62, 0
4, 32760, Note_on_c, 3, 62, 52
4, 32855, Note_off_c, 3, 62, 0
4, 33000, Note_on_c, 3, 62, 51
4, 33095, Note_off_c, 3, 62, 0
4, 33240, Note_on_c, 3, 62, 51
4, 33335, Note_off_c, 3, 62, 0
4, 33480, Note_on_c, 3, 62, 51
4, 33575, Note_off_c, 3, 62, 0
4, 33720, Note_on_c, 3, 62, 50
4, 33815, Note_off_c, 3, 62, 0
4, 33960, Note_on_c, 3, 62, 50
4, 34055, Note_off_c, 3, 62, 0
4, 34200, Note_on_c, 3, 62, 50
4, 34295, Note_off_c, 3, 62, 0
4, 34440, Note_on_c, 3, 62, 50
4, 34535, Note_off_c, 3, 62, 0
4, 42240, Note_on_c, 3, 64, 66
4, 42430, Note_off_c, 3, 64, 0
4, 42480, Note_on_c, 3, 64, 58
4, 42670, Note_off_c, 3, 64, 0
4, 42720, Note_on_c, 3, 64, 59
4, 42910, Note_off_c, 3, 64, 0
4, 42960, Note_on_c, 3, 64, 61
4, 43150, Note_off_c, 3, 64, 0
4, 43200, Note_on_c, 3, 64, 62
4, 43390, Note_off_c, 3, 64, 0
4, 43440, Note_on_c, 3, 64, 63
4, 43630, Note_off_c, 3, 64, 0
4, 43680, Note_on_c, 3, 64, 64
4, 43870, Note_off_c, 3, 64, 0
4, 43920, Note_on_c, 3, 64, 65
4, 44110, Note_off_c, 3, 64, 0
4, 44160, Note_on_c, 3, 64, 67
4, 44350, Note_off_c, 3, 64, 0
4, 44400, Note_on_c, 3, 64, 68
4, 44590, Note_off_c, 3, 64, 0
4, 44640, Note_on_c, 3, 64, 69
4, 44830, Note_off_c, 3, 64, 0
4, 44880, Note_on_c, 3, 64, 70
4, 45070, Note_off_c, 3, 64, 0
4, 45120, Note_on_c, 3, 64, 71
4, 45310, Note_off_c, 3, 64, 0
4, 45360, Note_on_c, 3, 64, 73
4, 45550, Note_off_c, 3, 64, 0
4, 45600, Note_on_c, 3, 64, 74
4, 45790, Note_off_c, 3, 64, 0
4, 45840, Note_on_c, 3, 64, 75
4, 46030, Note_off_c, 3, 64, 0
4, 46080, Control_c, 3, 64, 0
4, 46140, Control_c, 3, 64, 127
4, 46200, Note_on_c, 3, 71, 77
4, 46295, Note_off_c, 3, 71, 0
4, 46320, Note_on_c, 3, 67, 77
4, 46415, Note_off_c, 3, 67, 0
4, 46440, Note_on_c, 3, 71, 78
4, 46535, Note_off_c, 3, 71, 0
4, 46560, Control_c, 3, 64, 0
4, 46620, Control_c, 3, 64, 127
4, 46680, Note_on_c, 3, 71, 79
4, 46775, Note_off_c, 3, 71, 0
4, 46800, Note_on_c, 3, 67, 80
4, 46895, Note_off_c, 3, 67, 0
4, 46920, Note_on_c, 3, 71, 80
4, 47015, Note_off_c, 3, 71, 0
4, 47040, Control_c, 3, 64, 0
4, 47100, Control_c, 3, 64, 127
4, 47160, Note_on_c, 3, 71, 81
4, 47255, Note_off_c, 3, 71, 0
4, 47280, Note_on_c, 3, 67, 82
4, 47375, Note_off_c, 3, 67, 0
4, 47400, Note_on_c, 3, 71, 83
4, 47495, Note_off_c, 3, 71, 0
4, 47520, Control_c, 3, 64, 0
4, 47580, Control_c, 3, 64, 127
4, 47640, Note_on_c, 3, 71, 84
4, 47735, Note_off_c, 3, 71, 0
4, 47760, Note_on_c, 3, 67, 84
4, 47855, Note_off_c, 3, 67, 0
4, 47880, Note_on_c, 3, 71, 85
4, 47940, Control_c, 3, 64, 0
4, 47975, Note_off_c, 3, 71, 0
4, 48000, Control_c, 3, 64, 127
4, 48120, Note_on_c, 3, 72, 84
4, 48215, Note_off_c, 3, 72, 0
4, 48240, Note_on_c, 3, 66, 85
4, 48335, Note_off_c, 3, 66, 0
4, 48360, Note_on_c, 3, 72, 85
4, 48455, Note_off_c, 3, 72, 0
4, 48480, Control_c, 3, 64, 0
4, 48540, Control_c, 3, 64, 127
4, 48600, Note_on_c, 3, 72, 86
4, 48695, Note_off_c, 3, 72, 0
4, 48720, Note_on_c, 3, 66, 86
4, 48815, Note_off_c, 3, 66, 0
4, 48840, Note_on_c, 3, 72, 87
4, 48935, Note_off_c, 3, 72, 0
4, 48960, Control_c, 3, 64, 0
4, 49020, Control_c, 3, 64, 127
4, 49080, Note_on_c, 3, 72, 88
4, 49175, Note_off_c, 3, 72, 0
4, 49200, Note_on_c, 3, 66, 88
4, 49295, Note_off_c, 3, 66, 0
4, 49320, Note_on_c, 3, 72, 89
4, 49415, Note_off_c, 3, 72, 0
4, 49440, Control_c, 3, 64, 0
4, 49500, Control_c, 3, 64, 127
4, 49560, Note_on_c, 3, 72, 90
4, 49655, Note_off_c, 3, 72, 0
4, 49680, Note_on_c, 3, 66, 90
4, 49775, Note_off_c, 3, 66, 0
4, 49800, Note_on_c, 3, 72, 91
4, 49860, Control_c, 3, 64, 0
4, 49895, Note_off_c, 3, 72, 0
4, 80640, Control_c, 3, 64, 0
4, 80700, Control_c, 3, 64, 127
4, 80880, Note_on_c, 3, 72, 42
4, 81120, Note_off_c, 3, 72, 0
4, 81120, Note_on_c, 3, 69, 44
4, 81360, Note_off_c, 3, 69, 0
4, 81360, Note_on_c, 3, 72, 45
4, 81600, Control_c, 3, 64, 0
4, 81600, Note_off_c, 3, 72, 0
4, 81660, Control_c, 3, 64, 127
4, 81840, Note_on_c, 3, 72, 47
4, 82080, Note_off_c, 3, 72, 0
4, 82080, Note_on_c, 3, 69, 48
4, 82320, Note_off_c, 3, 69, 0
4, 82320, Note_on_c, 3, 72, 50
4, 82560, Control_c, 3, 64, 0
4, 82560, Note_off_c, 3, 72, 0
4, 82620, Control_c, 3, 64, 127
4, 82800, Note_on_c, 3, 72, 50
4, 83040, Note_off_c, 3, 72, 0
4, 83040, Note_on_c, 3, 70, 49
4, 83280, Note_off_c, 3, 70, 0
4, 83280, Note_on_c, 3, 72, 47
4, 83520, Control_c, 3, 64, 0
4, 83520, Note_off_c, 3, 72, 0
4, 83580, Control_c, 3, 64, 127
4, 83760, Note_on_c, 3, 72, 45
4, 84000, Note_off_c, 3, 72, 0
4, 84000, Note_on_c, 3, 69, 44
4, 84240, Note_off_c, 3, 69, 0
4, 84240, Note_on_c, 3, 72, 42
4, 84420, Control_c, 3, 64, 0
4, 84432, Note_off_c, 3, 72, 0
4, 84480, Control_c, 3, 64, 127
4, 84720, Note_on_c, 3, 74, 46
4, 84960, Note_off_c, 3, 74, 0
4, 84960, Note_on_c, 3, 70, 47
4, 85200, Note_off_c, 3, 70, 0
4, 85200, Note_on_c, 3, 74, 48
4, 85440, Control_c, 3, 64, 0
4, 85440, Note_off_c, 3, 74, 0
4, 85500, Control_c, 3, 64, 127
4, 85680, Note_on_c, 3, 72, 51
4, 85920, Note_off_c, 3, 72, 0
4, 85920, Note_on_c, 3, 69, 52
4, 86160, Note_off_c, 3, 69, 0
4, 86160, Note_on_c, 3, 72, 54
4, 86400, Control_c, 3, 64, 0
4, 86400, Note_off_c, 3, 72, 0
4, 86460, Control_c, 3, 64, 127
4, 86640, Note_on_c, 3, 72, 55
4, 86880, Note_off_c, 3, 72, 0
4, 86880, Note_on_c, 3, 67, 54
4, 87120, Note_off_c, 3, 67, 0
4, 87120, Note_on_c, 3, 72, 52
4, 87300, Control_c, 3, 64, 0
4, 87360, Control_c, 3, 64, 127
4, 87360, Note_off_c, 3, 72, 0
4, 87600, Note_on_c, 3, 72, 49
4, 87840, Note_off_c, 3, 72, 0
4, 87840, Note_on_c, 3, 69, 48
4, 88080, Note_off_c, 3, 69, 0
4, 88080, Note_on_c, 3, 72, 46
4, 88260, Control_c, 3, 64, 0
4, 88272, Note_off_c, 3, 72, 0
4, 107640, Note_on_c, 3, 47, 87
4, 107735, Note_off_c, 3, 47, 0
4, 107760, Note_on_c, 3, 50, 87
4, 107855, Note_off_c, 3, 50, 0
4, 107880, Note_on_c, 3, 55, 88
4, 107975, Note_off_c, 3, 55, 0
4, 108120, Note_on_c, 3, 48, 89
4, 108215, Note_off_c, 3, 48, 0
4, 108240, Note_on_c, 3, 52, 89
4, 108335, Note_off_c, 3, 52, 0
4, 108360, Note_on_c, 3, 55, 90
4, 108455, Note_off_c, 3, 55, 0
4, 108600, Note_on_c, 3, 47, 91
4, 108695, Note_off_c, 3, 47, 0
4, 108720, Note_on_c, 3, 50, 91
4, 108815, Note_off_c, 3, 50, 0
4, 108840, Note_on_c, 3, 55, 92
4, 108935, Note_off_c, 3, 55, 0
4, 109080, Note_on_c, 3, 48, 93
4, 109175, Note_off_c, 3, 48, 0
4, 109200, Note_on_c, 3, 52, 93
4, 109295, Note_off_c, 3, 52, 0
4, 109320, Note_on_c, 3, 55, 94
4, 109415, Note_off_c, 3, 55, 0
4, 111480, Note_on_c, 3, 67, 77
4, 111575, Note_off_c, 3, 67, 0
4, 111720, Note_on_c, 3, 67, 69
4, 111815, Note_off_c, 3, 67, 0
4, 111960, Note_on_c, 3, 67, 63
4, 112055, Note_off_c, 3, 67, 0
4, 112200, Note_on_c, 3, 67, 59
4, 112295, Note_off_c, 3, 67, 0
4, 112440, Note_on_c, 3, 67, 59
4, 112535, Note_off_c, 3, 67, 0
4, 112680, Note_on_c, 3, 67, 59
4, 112775, Note_off_c, 3, 67, 0
4, 112920, Note_on_c, 3, 67, 58
4, 113015, Note_off_c, 3, 67, 0
4, 113160, Note_on_c, 3, 67, 58
4, 113255, Note_off_c, 3, 67, 0
4, 113400, Note_on_c, 3, 67, 58
4, 113495, Note_off_c, 3, 67, 0
4, 113640, Note_on_c, 3, 67, 57
4, 113735, Note_off_c, 3, 67, 0
4, 113880, Note_on_c, 3, 67, 57
4, 113975, Note_off_c, 3, 67, 0
4, 114120, Note_on_c, 3, 67, 57
4, 114215, Note_off_c, 3, 67, 0
4, 114360, Note_on_c, 3, 67, 56
4, 114455, Note_off_c, 3, 67, 0
4, 114600, Note_on_c, 3, 67, 56
4, 114695, Note_off_c, 3, 67, 0
4, 114840, Note_on_c, 3, 67, 55
4, 114935, Note_off_c, 3, 67, 0
4, 115080, Note_on_c, 3, 67, 55
4, 115175, Note_off_c, 3, 67, 0
4, 115320, Note_on_c, 3, 67, 55
4, 115415, Note_off_c, 3, 67, 0
4, 115560, Note_on_c, 3, 67, 54
4, 115655, Note_off_c, 3, 67, 0
4, 115800, Note_on_c, 3, 67, 54
4, 115895, Note_off_c, 3, 67, 0
4, 116040, Note_on_c, 3, 67, 53
4, 116135, Note_off_c, 3, 67, 0
4, 116280, Note_on_c, 3, 67, 53
4, 116375, Note_off_c, 3, 67, 0
4, 116520, Note_on_c, 3, 67, 53
4, 116615, Note_off_c, 3, 67, 0
4, 116760, Note_on_c, 3, 67, 52
4, 116855, Note_off_c, 3, 67, 0
4, 117000, Note_on_c, 3, 67, 52
4, 117095, Note_off_c, 3, 67, 0
4, 117240, Note_on_c, 3, 67, 51
4, 117335, Note_off_c, 3, 67, 0
4, 117480, Note_on_c, 3, 67, 51
4, 117575, Note_off_c, 3, 67, 0
4, 117720, Note_on_c, 3, 67, 51
4, 117815, Note_off_c, 3, 67, 0
4, 117960, Note_on_c, 3, 67, 50
4, 118055, Note_off_c, 3, 67, 0
4, 118200, Note_on_c, 3, 67, 50
4, 118295, Note_off_c, 3, 67, 0
4, 118440, Note_on_c, 3, 67, 50
4, 118535, Note_off_c, 3, 67, 0
4, 118680, Note_on_c, 3, 67, 49
4, 118775, Note_off_c, 3, 67, 0
4, 118920, Note_on_c, 3, 67, 49
4, 119015, Note_off_c, 3, 67, 0
4, 119160, Note_on_c, 3, 67, 48
4, 119255, Note_off_c, 3, 67, 0
4, 119400, Note_on_c, 3, 67, 48
4, 119495, Note_off_c, 3, 67, 0
4, 119640, Note_on_c, 3, 67, 48
4, 119735, Note_off_c, 3, 67, 0
4, 119880, Note_on_c, 3, 67, 47
4, 119975, Note_off_c, 3, 67, 0
4, 120120, Note_on_c, 3, 67, 47
4, 120215, Note_off_c, 3, 67, 0
4, 120360, Note_on_c, 3, 67, 46
4, 120455, Note_off_c, 3, 67, 0
4, 120600, Note_on_c, 3, 67, 46
4, 120695, Note_off_c, 3, 67, 0
4, 120840, Note_on_c, 3, 67, 46
4, 120935, Note_off_c, 3, 67, 0
4, 128880, Note_on_c, 3, 69, 56
4, 129070, Note_off_c, 3, 69, 0
4, 129120, Note_on_c, 3, 69, 57
4, 129310, Note_off_c, 3, 69, 0
4, 129360, Note_on_c, 3, 69, 58
4, 129550, Note_off_c, 3, 69, 0
4, 129600, Note_on_c, 3, 69, 60
4, 129790, Note_off_c, 3, 69, 0
4, 129840, Note_on_c, 3, 69, 61
4, 130030, Note_off_c, 3, 69, 0
4, 130080, Note_on_c, 3, 69, 62
4, 130270, Note_off_c, 3, 69, 0
4, 130320, Note_on_c, 3, 69, 63
4, 130510, Note_off_c, 3, 69, 0
4, 130800, Note_on_c, 3, 63, 66
4, 130800, Note_on_c, 3, 60, 66
4, 130990, Note_off_c, 3, 60, 0
4, 130990, Note_off_c, 3, 63, 0
4, 131040, Note_on_c, 3, 63, 67
4, 131040, Note_on_c, 3, 60, 67
4, 131230, Note_off_c, 3, 60, 0
4, 131230, Note_off_c, 3, 63, 0
4, 131280, Note_on_c, 3, 63, 68
4, 131280, Note_on_c, 3, 60, 68
4, 131470, Note_off_c, 3, 60, 0
4, 131470, Note_off_c, 3, 63, 0
4, 131520, Note_on_c, 3, 63, 69
4, 131520, Note_on_c, 3, 60, 69
4, 131710, Note_off_c, 3, 60, 0
4, 131710, Note_off_c, 3, 63, 0
4, 131760, Note_on_c, 3, 63, 70
4, 131760, Note_on_c, 3, 60, 70
4, 131950, Note_off_c, 3, 60, 0
4, 131950, Note_off_c, 3, 63, 0
4, 132000, Note_on_c, 3, 63, 71
4, 132000, Note_on_c, 3, 60, 71
4, 132190, Note_off_c, 3, 60, 0
4, 132190, Note_off_c, 3, 63, 0
4, 132240, Note_on_c, 3, 63, 73
4, 132240, Note_on_c, 3, 60, 73
4, 132430, Note_off_c, 3, 60, 0
4, 132430, Note_off_c, 3, 63, 0
4, 132480, Control_c, 3, 64, 0
4, 132540, Control_c, 3, 64, 127
4, 132600, Note_on_c, 3, 64, 74
4, 132695, Note_off_c, 3, 64, 0
4, 132720, Note_on_c, 3, 60, 75
4, 132815, Note_off_c, 3, 60, 0
4, 132840, Note_on_c, 3, 64, 76
4, 132900, Control_c, 3, 64, 0
4, 132935, Note_off_c, 3, 64, 0
4, 132960, Control_c, 3, 64, 127
4, 133080, Note_on_c, 3, 64, 77
4, 133175, Note_off_c, 3, 64, 0
4, 133200, Note_on_c, 3, 60, 77
4, 133295, Note_off_c, 3, 60, 0
4, 133320, Note_on_c, 3, 64, 78
4, 133415, Note_off_c, 3, 64, 0
4, 133440, Control_c, 3, 64, 0
4, 133500, Control_c, 3, 64, 127
4, 133560, Note_on_c, 3, 64, 79
4, 133655, Note_off_c, 3, 64, 0
4, 133680, Note_on_c, 3, 60, 80
4, 133775, Note_off_c, 3, 60, 0
4, 133800, Note_on_c, 3, 64, 80
4, 133895, Note_off_c, 3, 64, 0
4, 133920, Control_c, 3, 64, 0
4, 133980, Control_c, 3, 64, 127
4, 134040, Note_on_c, 3, 64, 82
4, 134135, Note_off_c, 3, 64, 0
4, 134160, Note_on_c, 3, 60, 82
4, 134255, Note_off_c, 3, 60, 0
4, 134280, Note_on_c, 3, 64, 83
4, 134340, Control_c, 3, 64, 0
4, 134375, Note_off_c, 3, 64, 0
4, 134400, Control_c, 3, 64, 127
4, 134520, Note_on_c, 3, 65, 82
4, 134615, Note_off_c, 3, 65, 0
4, 134640, Note_on_c, 3, 59, 83
4, 134735, Note_off_c, 3, 59, 0
4, 134760, Note_on_c, 3, 65, 83
4, 134855, Note_off_c, 3, 65, 0
4, 134880, Control_c, 3, 64, 0
4, 134940, Control_c, 3, 64, 127
4, 135000, Note_on_c, 3, 65, 84
4, 135095, Note_off_c, 3, 65, 0
4, 135120, Note_on_c, 3, 59, 84
4, 135215, Note_off_c, 3, 59, 0
4, 135240, Note_on_c, 3, 65, 85
4, 135335, Note_off_c, 3, 65, 0
4, 135360, Control_c, 3, 64, 0
4, 135420, Control_c, 3, 64, 127
4, 135480, Note_on_c, 3, 65, 86
4, 135575, Note_off_c, 3, 65, 0
4, 135600, Note_on_c, 3, 59, 86
4, 135695, Note_off_c, 3, 59, 0
4, 135720, Note_on_c, 3, 65, 87
4, 135815, Note_off_c, 3, 65, 0
4, 135840, Control_c, 3, 64, 0
4, 135900, Control_c, 3, 64, 127
4, 135960, Note_on_c, 3, 65, 88
4, 136055, Note_off_c, 3, 65, 0
4, 136080, Note_on_c, 3, 59, 88
4, 136175, Note_off_c, 3, 59, 0
4, 136200, Note_on_c, 3, 65, 89
4, 136260, Control_c, 3, 64, 0
4, 136295, Note_off_c, 3, 65, 0
4, 144000, Control_c, 3, 64, 0
4, 144040, Control_c, 3, 64, 127
4, 144120, Note_on_c, 3, 62, 37
4, 144216, Note_off_c, 3, 62, 0
4, 144240, Note_on_c, 3, 59, 38
4, 144336, Note_off_c, 3, 59, 0
4, 144360, Note_on_c, 3, 62, 38
4, 144456, Note_off_c, 3, 62, 0
4, 144480, Control_c, 3, 64, 0
4, 144520, Control_c, 3, 64, 127
4, 144600, Note_on_c, 3, 62, 40
4, 144696, Note_off_c, 3, 62, 0
4, 144720, Note_on_c, 3, 59, 41
4, 144816, Note_off_c, 3, 59, 0
4, 144840, Note_on_c, 3, 62, 41
4, 144936, Note_off_c, 3, 62, 0
4, 144960, Control_c, 3, 64, 0
4, 145000, Control_c, 3, 64, 127
4, 145080, Note_on_c, 3, 62, 43
4, 145176, Note_off_c, 3, 62, 0
4, 145200, Note_on_c, 3, 60, 44
4, 145296, Note_off_c, 3, 60, 0
4, 145320, Note_on_c, 3, 62, 44
4, 145416, Note_off_c, 3, 62, 0
4, 145440, Control_c, 3, 64, 0
4, 145480, Control_c, 3, 64, 127
4, 145560, Note_on_c, 3, 62, 45
4, 145656, Note_off_c, 3, 62, 0
4, 145680, Note_on_c, 3, 59, 44
4, 145776, Note_off_c, 3, 59, 0
4, 145800, Note_on_c, 3, 62, 44
4, 145896, Note_off_c, 3, 62, 0
4, 145920, Control_c, 3, 64, 0
4, 145960, Control_c, 3, 64, 127
4, 146040, Note_on_c, 3, 62, 42
4, 146136, Note_off_c, 3, 62, 0
4, 146160, Note_on_c, 3, 59, 41
4, 146256, Note_off_c, 3, 59, 0
4, 146280, Note_on_c, 3, 62, 41
4, 146376, Note_off_c, 3, 62, 0
4, 146400, Control_c, 3, 64, 0
4, 146440, Control_c, 3, 64, 127
4, 146520, Note_on_c, 3, 62, 39
4, 146616, Note_off_c, 3, 62, 0
4, 146640, Note_on_c, 3, 59, 39
4, 146736, Note_off_c, 3, 59, 0
4, 146760, Note_on_c, 3, 62, 38
4, 146840, Control_c, 3, 64, 0
4, 146856, Note_off_c, 3, 62, 0
4, 146880, Control_c, 3, 64, 127
4, 147000, Note_on_c, 3, 64, 41
4, 147096, Note_off_c, 3, 64, 0
4, 147120, Note_on_c, 3, 60, 42
4, 147216, Note_off_c, 3, 60, 0
4, 147240, Note_on_c, 3, 64, 42
4, 147336, Note_off_c, 3, 64, 0
4, 147360, Control_c, 3, 64, 0
4, 147400, Control_c, 3, 64, 127
4, 147480, Note_on_c, 3, 64, 44
4, 147576, Note_off_c, 3, 64, 0
4, 147600, Note_on_c, 3, 60, 45
4, 147696, Note_off_c, 3, 60, 0
4, 147720, Note_on_c, 3, 64, 45
4, 147816, Note_off_c, 3, 64, 0
4, 147840, Control_c, 3, 64, 0
4, 147880, Control_c, 3, 64, 127
4, 147960, Note_on_c, 3, 61, 47
4, 148056, Note_off_c, 3, 61, 0
4, 148080, Note_on_c, 3, 58, 48
4, 148176, Note_off_c, 3, 58, 0
4, 148200, Note_on_c, 3, 61, 48
4, 148296, Note_off_c, 3, 61, 0
4, 148320, Control_c, 3, 64, 0
4, 148360, Control_c, 3, 64, 127
4, 148440, Note_on_c, 3, 62, 49
4, 148536, Note_off_c, 3, 62, 0
4, 148560, Note_on_c, 3, 59, 48
4, 148656, Note_off_c, 3, 59, 0
4, 148680, Note_on_c, 3, 62, 47
4, 148776, Note_off_c, 3, 62, 0
4, 148800, Control_c, 3, 64, 0
4, 148840, Control_c, 3, 64, 127
4, 148920, Note_on_c, 3, 62, 45
4, 149016, Note_off_c, 3, 62, 0
4, 149040, Note_on_c, 3, 59, 44
4, 149136, Note_off_c, 3, 59, 0
4, 149160, Note_on_c, 3, 62, 44
4, 149256, Note_off_c, 3, 62, 0
4, 149280, Control_c, 3, 64, 0
4, 149320, Control_c, 3, 64, 127
4, 149400, Note_on_c, 3, 62, 42
4, 149496, Note_off_c, 3, 62, 0
4, 149520, Note_on_c, 3, 59, 41
4, 149616, Note_off_c, 3, 59, 0
4, 149640, Note_on_c, 3, 62, 40
4, 149720, Control_c, 3, 64, 0
4, 149736, Note_off_c, 3, 62, 0
4, 149760, Control_c, 3, 64, 127
4, 149880, Note_on_c, 3, 62, 43
4, 149976, Note_off_c, 3, 62, 0
4, 150000, Note_on_c, 3, 60, 44
4, 150096, Note_off_c, 3, 60, 0
4, 150120, Note_on_c, 3, 62, 44
4, 150216, Note_off_c, 3, 62, 0
4, 150240, Control_c, 3, 64, 0
4, 150280, Control_c, 3, 64, 127
4, 150360, Note_on_c, 3, 62, 46
4, 150456, Note_off_c, 3, 62, 0
4, 150480, Note_on_c, 3, 60, 47
4, 150576, Note_off_c, 3, 60, 0
4, 150600, Note_on_c, 3, 62, 48
4, 150696, Note_off_c, 3, 62, 0
4, 150720, Control_c, 3, 64, 0
4, 150760, Control_c, 3, 64, 127
4, 150840, Note_on_c, 3, 62, 49
4, 150936, Note_off_c, 3, 62, 0
4, 150960, Note_on_c, 3, 60, 50
4, 151056, Note_off_c, 3, 60, 0
4, 151080, Note_on_c, 3, 62, 51
4, 151176, Note_off_c, 3, 62, 0
4, 151200, Control_c, 3, 64, 0
4, 151240, Control_c, 3, 64, 127
4, 151320, Note_on_c, 3, 62, 53
4, 151416, Note_off_c, 3, 62, 0
4, 151440, Note_on_c, 3, 59, 54
4, 151536, Note_off_c, 3, 59, 0
4, 151560, Note_on_c, 3, 62, 55
4, 151656, Note_off_c, 3, 62, 0
4, 151680, Control_c, 3, 64, 0
4, 151720, Control_c, 3, 64, 127
4, 151800, Note_on_c, 3, 59, 56
4, 151896, Note_off_c, 3, 59, 0
4, 151920, Note_on_c, 3, 55, 57
4, 152016, Note_off_c, 3, 55, 0
4, 152040, Note_on_c, 3, 59, 58
4, 152136, Note_off_c, 3, 59, 0
4, 152160, Control_c, 3, 64, 0
4, 152200, Control_c, 3, 64, 127
4, 152280, Note_on_c, 3, 55, 60
4, 152376, Note_off_c, 3, 55, 0
4, 152400, Note_on_c, 3, 50, 60
4, 152496, Note_off_c, 3, 50, 0
4, 152520, Note_on_c, 3, 55, 61
4, 152600, Control_c, 3, 64, 0
4, 152616, Note_off_c, 3, 55, 0
4, 152640, Note_on_c, 3, 52, 63
4, 153120, Note_off_c, 3, 52, 0
4, 153120, Note_on_c, 3, 55, 55
4, 154080, Note_off_c, 3, 55, 0
4, 154080, Note_on_c, 3, 55, 44
4, 154560, Note_off_c, 3, 55, 0
4, 154560, Note_on_c, 3, 54, 36
4, 155040, Note_off_c, 3, 54, 0
4, 155520, Control_c, 3, 64, 0
4, 155560, Control_c, 3, 64, 127
4, 155640, Note_on_c, 3, 62, 38
4, 155736, Note_off_c, 3, 62, 0
4, 155760, Note_on_c, 3, 59, 39
4, 155856, Note_off_c, 3, 59, 0
4, 155880, Note_on_c, 3, 62, 39
4, 155976, Note_off_c, 3, 62, 0
4, 156000, Control_c, 3, 64, 0
4, 156040, Control_c, 3, 64, 127
4, 156120, Note_on_c, 3, 62, 41
4, 156216, Note_off_c, 3, 62, 0
4, 156240, Note_on_c, 3, 59, 42
4, 156336, Note_off_c, 3, 59, 0
4, 156360, Note_on_c, 3, 62, 43
4, 156456, Note_off_c, 3, 62, 0
4, 156480, Control_c, 3, 64, 0
4, 156520, Control_c, 3, 64, 127
4, 156600, Note_on_c, 3, 62, 45
4, 156696, Note_off_c, 3, 62, 0
4, 156720, Note_on_c, 3, 60, 45
4, 156816, Note_off_c, 3, 60, 0
4, 156840, Note_on_c, 3, 62, 46
4, 156936, Note_off_c, 3, 62, 0
4, 156960, Control_c, 3, 64, 0
4, 157000, Control_c, 3, 64, 127
4, 157080, Note_on_c, 3, 62, 49
4, 157176, Note_off_c, 3, 62, 0
4, 157200, Note_on_c, 3, 59, 48
4, 157296, Note_off_c, 3, 59, 0
4, 157320, Note_on_c, 3, 62, 47
4, 157416, Note_off_c, 3, 62, 0
4, 157440, Control_c, 3, 64, 0
4, 157480, Control_c, 3, 64, 127
4, 157560, Note_on_c, 3, 62, 45
4, 157656, Note_off_c, 3, 62, 0
4, 157680, Note_on_c, 3, 59, 44
4, 157776, Note_off_c, 3, 59, 0
4, 157800, Note_on_c, 3, 62, 44
4, 157896, Note_off_c, 3, 62, 0
4, 157920, Control_c, 3, 64, 0
4, 157960, Control_c, 3, 64, 127
4, 158040, Note_on_c, 3, 62, 42
4, 158136, Note_off_c, 3, 62, 0
4, 158160, Note_on_c, 3, 59, 41
4, 158256, Note_off_c, 3, 59, 0
4, 158280, Note_on_c, 3, 62, 40
4, 158360, Control_c, 3, 64, 0
4, 158376, Note_off_c, 3, 62, 0
4, 158400, Control_c, 3, 64, 127
4, 158520, Note_on_c, 3, 64, 43
4, 158616, Note_off_c, 3, 64, 0
4, 158640, Note_on_c, 3, 60, 44
4, 158736, Note_off_c, 3, 60, 0
4, 158760, Note_on_c, 3, 64, 45
4, 158856, Note_off_c, 3, 64, 0
4, 158880, Control_c, 3, 64, 0
4, 158920, Control_c, 3, 64, 127
4, 159000, Note_on_c, 3, 64, 46
4, 159096, Note_off_c, 3, 64, 0
4, 159120, Note_on_c, 3, 60, 47
4, 159216, Note_off_c, 3, 60, 0
4, 159240, Note_on_c, 3, 64, 48
4, 159336, Note_off_c, 3, 64, 0
4, 159360, Control_c, 3, 64, 0
4, 159400, Control_c, 3, 64, 127
4, 159480, Note_on_c, 3, 61, 50
4, 159576, Note_off_c, 3, 61, 0
4, 159600, Note_on_c, 3, 58, 51
4, 159696, Note_off_c, 3, 58, 0
4, 159720, Note_on_c, 3, 61, 52
4, 159816, Note_off_c, 3, 61, 0
4, 159840, Control_c, 3, 64, 0
4, 159880, Control_c, 3, 64, 127
4, 159960, Note_on_c, 3, 62, 51
4, 160056, Note_off_c, 3, 62, 0
4, 160080, Note_on_c, 3, 59, 50
4, 160176, Note_off_c, 3, 59, 0
4, 160200, Note_on_c, 3, 62, 49
4, 160296, Note_off_c, 3, 62, 0
4, 160320, Control_c, 3, 64, 0
4, 160360, Control_c, 3, 64, 127
4, 160440, Note_on_c, 3, 62, 47
4, 160536, Note_off_c, 3, 62, 0
4, 160560, Note_on_c, 3, 59, 47
4, 160656, Note_off_c, 3, 59, 0
4, 160680, Note_on_c, 3, 62, 46
4, 160776, Note_off_c, 3, 62, 0
4, 160800, Control_c, 3, 64, 0
4, 160840, Control_c, 3, 64, 127
4, 160920, Note_on_c, 3, 62, 44
4, 161016, Note_off_c, 3, 62, 0
4, 161040, Note_on_c, 3, 59, 43
4, 161136, Note_off_c, 3, 59, 0
4, 161160, Note_on_c, 3, 62, 42
4, 161240, Control_c, 3, 64, 0
4, 161256, Note_off_c, 3, 62, 0
4, 161280, Control_c, 3, 64, 127
4, 161400, Note_on_c, 3, 62, 45
4, 161496, Note_off_c, 3, 62, 0
4, 161520, Note_on_c, 3, 60, 46
4, 161616, Note_off_c, 3, 60, 0
4, 161640, Note_on_c, 3, 62, 47
4, 161736, Note_off_c, 3, 62, 0
4, 161760, Control_c, 3, 64, 0
4, 161800, Control_c, 3, 64, 127
4, 161880, Note_on_c, 3, 62, 50
4, 161976, Note_off_c, 3, 62, 0
4, 162000, Note_on_c, 3, 60, 51
4, 162096, Note_off_c, 3, 60, 0
4, 162120, Note_on_c, 3, 62, 52
4, 162216, Note_off_c, 3, 62, 0
4, 162240, Control_c, 3, 64, 0
4, 162280, Control_c, 3, 64, 127
4, 162360, Note_on_c, 3, 62, 54
4, 162456, Note_off_c, 3, 62, 0
4, 162480, Note_on_c, 3, 60, 55
4, 162576, Note_off_c, 3, 60, 0
4, 162600, Note_on_c, 3, 62, 56
4, 162696, Note_off_c, 3, 62, 0
4, 162720, Control_c, 3, 64, 0
4, 162760, Control_c, 3, 64, 127
4, 162840, Note_on_c, 3, 62, 59
4, 162936, Note_off_c, 3, 62, 0
4, 162960, Note_on_c, 3, 59, 60
4, 163056, Note_off_c, 3, 59, 0
4, 163080, Note_on_c, 3, 62, 61
4, 163176, Note_off_c, 3, 62, 0
4, 163200, Control_c, 3, 64, 0
4, 163240, Control_c, 3, 64, 127
4, 163320, Note_on_c, 3, 59, 63
4, 163416, Note_off_c, 3, 59, 0
4, 163440, Note_on_c, 3, 55, 64
4, 163536, Note_off_c, 3, 55, 0
4, 163560, Note_on_c, 3, 59, 65
4, 163656, Note_off_c, 3, 59, 0
4, 163680, Control_c, 3, 64, 0
4, 163720, Control_c, 3, 64, 127
4, 163800, Note_on_c, 3, 55, 68
4, 163896, Note_off_c, 3, 55, 0
4, 163920, Note_on_c, 3, 50, 69
4, 164016, Note_off_c, 3, 50, 0
4, 164040, Note_on_c, 3, 55, 70
4, 164120, Control_c, 3, 64, 0
4, 164136, Note_off_c, 3, 55, 0
4, 164160, Control_c, 3, 64, 127
4, 164280, Note_on_c, 3, 57, 71
4, 164376, Note_off_c, 3, 57, 0
4, 164400, Note_on_c, 3, 52, 69
4, 164496, Note_off_c, 3, 52, 0
4, 164520, Note_on_c, 3, 57, 67
4, 164616, Note_off_c, 3, 57, 0
4, 164640, Control_c, 3, 64, 0
4, 164680, Control_c, 3, 64, 127
4, 164760, Note_on_c, 3, 59, 63
4, 164856, Note_off_c, 3, 59, 0
4, 164880, Note_on_c, 3, 55, 61
4, 164976, Note_off_c, 3, 55, 0
4, 165000, Note_on_c, 3, 59, 59
4, 165096, Note_off_c, 3, 59, 0
4, 165120, Control_c, 3, 64, 0
4, 165160, Control_c, 3, 64, 127
4, 165240, Note_on_c, 3, 60, 55
4, 165336, Note_off_c, 3, 60, 0
4, 165360, Note_on_c, 3, 57, 53
4, 165456, Note_off_c, 3, 57, 0
4, 165480, Note_on_c, 3, 60, 51
4, 165560, Control_c, 3, 64, 0
4, 165576, Note_off_c, 3, 60, 0
4, 165600, Note_on_c, 3, 60, 54
4, 166080, Note_off_c, 3, 60, 0
4, 166080, Note_on_c, 3, 59, 40
4, 166560, Note_off_c, 3, 59, 0
4, 167040, Control_c, 3, 64, 0
4, 167080, Control_c, 3, 64, 127
4, 167160, Note_on_c, 3, 69, 31
4, 167256, Note_off_c, 3, 69, 0
4, 167280, Note_on_c, 3, 66, 31
4, 167376, Note_off_c, 3, 66, 0
4, 167400, Note_on_c, 3, 69, 32
4, 167496, Note_off_c, 3, 69, 0
4, 167520, Control_c, 3, 64, 0
4, 167560, Control_c, 3, 64, 127
4, 167640, Note_on_c, 3, 69, 34
4, 167736, Note_off_c, 3, 69, 0
4, 167760, Note_on_c, 3, 66, 34
4, 167856, Note_off_c, 3, 66, 0
4, 167880, Note_on_c, 3, 69, 35
4, 167976, Note_off_c, 3, 69, 0
4, 168000, Control_c, 3, 64, 0
4, 168040, Control_c, 3, 64, 127
4, 168120, Note_on_c, 3, 69, 37
4, 168216, Note_off_c, 3, 69, 0
4, 168240, Note_on_c, 3, 66, 37
4, 168336, Note_off_c, 3, 66, 0
4, 168360, Note_on_c, 3, 69, 38
4, 168456, Note_off_c, 3, 69, 0
4, 168480, Control_c, 3, 64, 0
4, 168520, Control_c, 3, 64, 127
4, 168600, Note_on_c, 3, 69, 39
4, 168696, Note_off_c, 3, 69, 0
4, 168720, Note_on_c, 3, 67, 38
4, 168816, Note_off_c, 3, 67, 0
4, 168840, Note_on_c, 3, 69, 38
4, 168936, Note_off_c, 3, 69, 0
4, 168960, Control_c, 3, 64, 0
4, 169000, Control_c, 3, 64, 127
4, 169080, Note_on_c, 3, 69, 36
4, 169176, Note_off_c, 3, 69, 0
4, 169200, Note_on_c, 3, 67, 36
4, 169296, Note_off_c, 3, 67, 0
4, 169320, Note_on_c, 3, 69, 35
4, 169416, Note_off_c, 3, 69, 0
4, 169440, Control_c, 3, 64, 0
4, 169480, Control_c, 3, 64, 127
4, 169560, Note_on_c, 3, 69, 33
4, 169656, Note_off_c, 3, 69, 0
4, 169680, Note_on_c, 3, 67, 33
4, 169776, Note_off_c, 3, 67, 0
4, 169800, Note_on_c, 3, 69, 32
4, 169880, Control_c, 3, 64, 0
4, 169896, Note_off_c, 3, 69, 0
4, 169920, Control_c, 3, 64, 127
4, 170040, Note_on_c, 3, 69, 35
4, 170136, Note_off_c, 3, 69, 0
4, 170160, Note_on_c, 3, 67, 36
4, 170256, Note_off_c, 3, 67, 0
4, 170280, Note_on_c, 3, 69, 37
4, 170376, Note_off_c, 3, 69, 0
4, 170400, Control_c, 3, 64, 0
4, 170440, Control_c, 3, 64, 127
4, 170520, Note_on_c, 3, 69, 39
4, 170616, Note_off_c, 3, 69, 0
4, 170640, Note_on_c, 3, 67, 40
4, 170736, Note_off_c, 3, 67, 0
4, 170760, Note_on_c, 3, 69, 40
4, 170856, Note_off_c, 3, 69, 0
4, 170880, Control_c, 3, 64, 0
4, 170920, Control_c, 3, 64, 127
4, 171000, Note_on_c, 3, 69, 42
4, 171096, Note_off_c, 3, 69, 0
4, 171120, Note_on_c, 3, 67, 43
4, 171216, Note_off_c, 3, 67, 0
4, 171240, Note_on_c, 3, 69, 44
4, 171336, Note_off_c, 3, 69, 0
4, 171360, Control_c, 3, 64, 0
4, 171400, Control_c, 3, 64, 127
4, 171480, Note_on_c, 3, 69, 41
4, 171576, Note_off_c, 3, 69, 0
4, 171600, Note_on_c, 3, 66, 39
4, 171696, Note_off_c, 3, 66, 0
4, 171720, Note_on_c, 3, 69, 38
4, 171816, Note_off_c, 3, 69, 0
4, 171840, Control_c, 3, 64, 0
4, 171880, Control_c, 3, 64, 127
4, 171960, Note_on_c, 3, 69, 41
4, 172056, Note_off_c, 3, 69, 0
4, 172080, Control_c, 3, 64, 0
4, 172080, Note_on_c, 3, 62, 43
4, 172120, Control_c, 3, 64, 127
4, 172176, Note_off_c, 3, 62, 0
4, 172200, Note_on_c, 3, 69, 45
4, 172296, Note_off_c, 3, 69, 0
4, 172320, Control_c, 3, 64, 0
4, 172360, Control_c, 3, 64, 127
4, 172440, Note_on_c, 3, 67, 50
4, 172536, Note_off_c, 3, 67, 0
4, 172560, Control_c, 3, 64, 0
4, 172560, Note_on_c, 3, 62, 52
4, 172600, Control_c, 3, 64, 127
4, 172656, Note_off_c, 3, 62, 0
4, 172680, Note_on_c, 3, 67, 54
4, 172760, Control_c, 3, 64, 0
4, 172776, Note_off_c, 3, 67, 0
4, 172800, Control_c, 3, 64, 127
4, 172920, Note_on_c, 3, 66, 58
4, 173016, Note_off_c, 3, 66, 0
4, 173040, Note_on_c, 3, 62, 57
4, 173136, Note_off_c, 3, 62, 0
4, 173160, Note_on_c, 3, 66, 56
4, 173256, Note_off_c, 3, 66, 0
4, 173280, Control_c, 3, 64, 0
4, 173320, Control_c, 3, 64, 127
4, 173400, Note_on_c, 3, 64, 53
4, 173496, Note_off_c, 3, 64, 0
4, 173520, Note_on_c, 3, 61, 52
4, 173616, Note_off_c, 3, 61, 0
4, 173640, Note_on_c, 3, 64, 51
4, 173736, Note_off_c, 3, 64, 0
4, 173760, Control_c, 3, 64, 0
4, 173800, Control_c, 3, 64, 127
4, 173880, Note_on_c, 3, 62, 49
4, 173976, Note_off_c, 3, 62, 0
4, 174000, Note_on_c, 3, 57, 47
4, 174096, Note_off_c, 3, 57, 0
4, 174120, Note_on_c, 3, 62, 46
4, 174200, Control_c, 3, 64, 0
4, 174216, Note_off_c, 3, 62, 0
4, 174240, Control_c, 3, 64, 127
4, 174360, Note_on_c, 3, 67, 50
4, 174456, Note_off_c, 3, 67, 0
4, 174480, Note_on_c, 3, 64, 49
4, 174576, Note_off_c, 3, 64, 0
4, 174600, Note_on_c, 3, 67, 48
4, 174696, Note_off_c, 3, 67, 0
4, 174720, Control_c, 3, 64, 0
4, 174760, Control_c, 3, 64, 127
4, 174840, Note_on_c, 3, 64, 46
4, 174936, Note_off_c, 3, 64, 0
4, 174960, Note_on_c, 3, 61, 45
4, 175056, Note_off_c, 3, 61, 0
4, 175080, Note_on_c, 3, 64, 44
4, 175176, Note_off_c, 3, 64, 0
4, 175200, Control_c, 3, 64, 0
4, 175240, Control_c, 3, 64, 127
4, 175320, Note_on_c, 3, 62, 42
4, 175416, Note_off_c, 3, 62, 0
4, 175440, Note_on_c, 3, 57, 41
4, 175536, Note_off_c, 3, 57, 0
4, 175560, Note_on_c, 3, 62, 40
4, 175640, Control_c, 3, 64, 0
4, 175656, Note_off_c, 3, 62, 0
4, 175680, Control_c, 3, 64, 127
4, 175800, Note_on_c, 3, 66, 44
4, 175896, Note_off_c, 3, 66, 0
4, 175920, Note_on_c, 3, 62, 43
4, 176016, Note_off_c, 3, 62, 0
4, 176040, Note_on_c, 3, 66, 42
4, 176136, Note_off_c, 3, 66, 0
4, 176160, Control_c, 3, 64, 0
4, 176200, Control_c, 3, 64, 127
4, 176280, Note_on_c, 3, 66, 40
4, 176376, Note_off_c, 3, 66, 0
4, 176400, Note_on_c, 3, 62, 39
4, 176496, Note_off_c, 3, 62, 0
4, 176520, Note_on_c, 3, 66, 38
4, 176616, Note_off_c, 3, 66, 0
4, 176640, Control_c, 3, 64, 0
4, 176680, Control_c, 3, 64, 127
4, 176760, Note_on_c, 3, 67, 36
4, 176856, Note_off_c, 3, 67, 0
4, 176880, Note_on_c, 3, 64, 35
4, 176976, Note_off_c, 3, 64, 0
4, 177000, Note_on_c, 3, 67, 34
4, 177080, Control_c, 3, 64, 0
4, 177096, Note_off_c, 3, 67, 0
4, 177120, Note_on_c, 3, 67, 36
4, 177600, Note_off_c, 3, 67, 0
4, 177600, Note_on_c, 3, 66, 32
4, 178080, Note_off_c, 3, 66, 0
4, 178560, Control_c, 3, 64, 0
4, 178600, Control_c, 3, 64, 127
4, 178680, Note_on_c, 3, 62, 37
4, 178776, Note_off_c, 3, 62, 0
4, 178800, Note_on_c, 3, 59, 38
4, 178896, Note_off_c, 3, 59, 0
4, 178920, Note_on_c, 3, 62, 38
4, 179016, Note_off_c, 3, 62, 0
4, 179040, Control_c, 3, 64, 0
4, 179080, Control_c, 3, 64, 127
4, 179160, Note_on_c, 3, 62, 40
4, 179256, Note_off_c, 3, 62, 0
4, 179280, Note_on_c, 3, 59, 41
4, 179376, Note_off_c, 3, 59, 0
4, 179400, Note_on_c, 3, 62, 42
4, 179496, Note_off_c, 3, 62, 0
4, 179520, Control_c, 3, 64, 0
4, 179560, Control_c, 3, 64, 127
4, 179640, Note_on_c, 3, 62, 43
4, 179736, Note_off_c, 3, 62, 0
4, 179760, Note_on_c, 3, 60, 44
4, 179856, Note_off_c, 3, 60, 0
4, 179880, Note_on_c, 3, 62, 45
4, 179976, Note_off_c, 3, 62, 0
4, 180000, Control_c, 3, 64, 0
4, 180040, Control_c, 3, 64, 127
4, 180120, Note_on_c, 3, 62, 45
4, 180216, Note_off_c, 3, 62, 0
4, 180240, Note_on_c, 3, 59, 44
4, 180336, Note_off_c, 3, 59, 0
4, 180360, Note_on_c, 3, 62, 43
4, 180456, Note_off_c, 3, 62, 0
4, 180480, Control_c, 3, 64, 0
4, 180520, Control_c, 3, 64, 127
4, 180600, Note_on_c, 3, 62, 41
4, 180696, Note_off_c, 3, 62, 0
4, 180720, Note_on_c, 3, 59, 40
4, 180816, Note_off_c, 3, 59, 0
4, 180840, Note_on_c, 3, 62, 39
4, 180936, Note_off_c, 3, 62, 0
4, 180960, Control_c, 3, 64, 0
4, 181000, Control_c, 3, 64, 127
4, 181080, Note_on_c, 3, 62, 38
4, 181176, Note_off_c, 3, 62, 0
4, 181200, Note_on_c, 3, 59, 37
4, 181296, Note_off_c, 3, 59, 0
4, 181320, Note_on_c, 3, 62, 36
4, 181400, Control_c, 3, 64, 0
4, 181416, Note_off_c, 3, 62, 0
4, 181440, Control_c, 3, 64, 127
4, 181560, Note_on_c, 3, 64, 41
4, 181656, Note_off_c, 3, 64, 0
4, 181680, Note_on_c, 3, 60, 41
4, 181776, Note_off_c, 3, 60, 0
4, 181800, Note_on_c, 3, 64, 42
4, 181896, Note_off_c, 3, 64, 0
4, 181920, Control_c, 3, 64, 0
4, 181960, Control_c, 3, 64, 127
4, 182040, Note_on_c, 3, 64, 44
4, 182136, Note_off_c, 3, 64, 0
4, 182160, Note_on_c, 3, 60, 45
4, 182256, Note_off_c, 3, 60, 0
4, 182280, Note_on_c, 3, 64, 45
4, 182376, Note_off_c, 3, 64, 0
4, 182400, Control_c, 3, 64, 0
4, 182440, Control_c, 3, 64, 127
4, 182520, Note_on_c, 3, 61, 47
4, 182616, Note_off_c, 3, 61, 0
4, 182640, Note_on_c, 3, 58, 48
4, 182736, Note_off_c, 3, 58, 0
4, 182760, Note_on_c, 3, 61, 48
4, 182856, Note_off_c, 3, 61, 0
4, 182880, Control_c, 3, 64, 0
4, 182920, Control_c, 3, 64, 127
4, 183000, Note_on_c, 3, 62, 49
4, 183096, Note_off_c, 3, 62, 0
4, 183120, Note_on_c, 3, 59, 49
4, 183216, Note_off_c, 3, 59, 0
4, 183240, Note_on_c, 3, 62, 48
4, 183336, Note_off_c, 3, 62, 0
4, 183360, Control_c, 3, 64, 0
4, 183400, Control_c, 3, 64, 127
4, 183480, Note_on_c, 3, 62, 47
4, 183576, Note_off_c, 3, 62, 0
4, 183600, Note_on_c, 3, 59, 46
4, 183696, Note_off_c, 3, 59, 0
4, 183720, Note_on_c, 3, 62, 46
4, 183816, Note_off_c, 3, 62, 0
4, 183840, Control_c, 3, 64, 0
4, 183880, Control_c, 3, 64, 127
4, 183960, Note_on_c, 3, 62, 45
4, 184056, Note_off_c, 3, 62, 0
4, 184080, Note_on_c, 3, 59, 44
4, 184176, Note_off_c, 3, 59, 0
4, 184200, Note_on_c, 3, 62, 44
4, 184280, Control_c, 3, 64, 0
4, 184296, Note_off_c, 3, 62, 0
4, 184320, Control_c, 3, 64, 127
4, 184440, Note_on_c, 3, 62, 45
4, 184536, Note_off_c, 3, 62, 0
4, 184560, Note_on_c, 3, 60, 46
4, 184656, Note_off_c, 3, 60, 0
4, 184680, Note_on_c, 3, 62, 47
4, 184776, Note_off_c, 3, 62, 0
4, 184800, Control_c, 3, 64, 0
4, 184840, Control_c, 3, 64, 127
4, 184920, Note_on_c, 3, 62, 48
4, 185016, Note_off_c, 3, 62, 0
4, 185040, Note_on_c, 3, 60, 49
4, 185136, Note_off_c, 3, 60, 0
4, 185160, Note_on_c, 3, 62, 50
4, 185256, Note_off_c, 3, 62, 0
4, 185280, Control_c, 3, 64, 0
4, 185320, Control_c, 3, 64, 127
4, 185400, Note_on_c, 3, 62, 51
4, 185496, Note_off_c, 3, 62, 0
4, 185520, Note_on_c, 3, 60, 52
4, 185616, Note_off_c, 3, 60, 0
4, 185640, Note_on_c, 3, 62, 53
4, 185736, Note_off_c, 3, 62, 0
4, 185760, Control_c, 3, 64, 0
4, 185800, Control_c, 3, 64, 127
4, 185880, Note_on_c, 3, 62, 54
4, 185976, Note_off_c, 3, 62, 0
4, 186000, Note_on_c, 3, 59, 55
4, 186096, Note_off_c, 3, 59, 0
4, 186120, Note_on_c, 3, 62, 56
4, 186216, Note_off_c, 3, 62, 0
4, 186240, Control_c, 3, 64, 0
4, 186280, Control_c, 3, 64, 127
4, 186360, Note_on_c, 3, 59, 58
4, 186456, Note_off_c, 3, 59, 0
4, 186480, Note_on_c, 3, 55, 58
4, 186576, Note_off_c, 3, 55, 0
4, 186600, Note_on_c, 3, 59, 59
4, 186696, Note_off_c, 3, 59, 0
4, 186720, Control_c, 3, 64, 0
4, 186760, Control_c, 3, 64, 127
4, 186840, Note_on_c, 3, 55, 61
4, 186936, Note_off_c, 3, 55, 0
4, 186960, Note_on_c, 3, 50, 62
4, 187056, Note_off_c, 3, 50, 0
4, 187080, Note_on_c, 3, 55, 62
4, 187160, Control_c, 3, 64, 0
4, 187176, Note_off_c, 3, 55, 0
4, 187200, Control_c, 3, 64, 127
4, 187320, Note_on_c, 3, 57, 62
4, 187416, Note_off_c, 3, 57, 0
4, 187440, Note_on_c, 3, 52, 60
4, 187536, Note_off_c, 3, 52, 0
4, 187560, Note_on_c, 3, 57, 58
4, 187656, Note_off_c, 3, 57, 0
4, 187680, Control_c, 3, 64, 0
4, 187720, Control_c, 3, 64, 127
4, 187800, Note_on_c, 3, 59, 54
4, 187896, Note_off_c, 3, 59, 0
4, 187920, Note_on_c, 3, 55, 52
4, 188016, Note_off_c, 3, 55, 0
4, 188040, Note_on_c, 3, 59, 50
4, 188136, Note_off_c, 3, 59, 0
4, 188160, Control_c, 3, 64, 0
4, 188200, Control_c, 3, 64, 127
4, 188280, Note_on_c, 3, 60, 47
4, 188376, Note_off_c, 3, 60, 0
4, 188400, Note_on_c, 3, 57, 45
4, 188496, Note_off_c, 3, 57, 0
4, 188520, Note_on_c, 3, 60, 43
4, 188600, Control_c, 3, 64, 0
4, 188616, Note_off_c, 3, 60, 0
4, 188640, Note_on_c, 3, 60, 44
4, 189120, Note_off_c, 3, 60, 0
4, 189120, Note_on_c, 3, 59, 32
4, 189600, Note_off_c, 3, 59, 0
4, 190080, Control_c, 3, 64, 0
4, 190120, Control_c, 3, 64, 127
4, 190200, Note_on_c, 3, 62, 35
4, 190296, Note_off_c, 3, 62, 0
4, 190320, Note_on_c, 3, 58, 36
4, 190416, Note_off_c, 3, 58, 0
4, 190440, Note_on_c, 3, 62, 36
4, 190536, Note_off_c, 3, 62, 0
4, 190560, Control_c, 3, 64, 0
4, 190600, Control_c, 3, 64, 127
4, 190680, Note_on_c, 3, 62, 38
4, 190776, Note_off_c, 3, 62, 0
4, 190800, Note_on_c, 3, 58, 39
4, 190896, Note_off_c, 3, 58, 0
4, 190920, Note_on_c, 3, 62, 40
4, 191016, Note_off_c, 3, 62, 0
4, 191040, Control_c, 3, 64, 0
4, 191080, Control_c, 3, 64, 127
4, 191160, Note_on_c, 3, 62, 41
4, 191256, Note_off_c, 3, 62, 0
4, 191280, Note_on_c, 3, 60, 42
4, 191376, Note_off_c, 3, 60, 0
4, 191400, Note_on_c, 3, 62, 43
4, 191496, Note_off_c, 3, 62, 0
4, 191520, Control_c, 3, 64, 0
4, 191560, Control_c, 3, 64, 127
4, 191640, Note_on_c, 3, 62, 42
4, 191736, Note_off_c, 3, 62, 0
4, 191760, Note_on_c, 3, 58, 41
4, 191856, Note_off_c, 3, 58, 0
4, 191880, Note_on_c, 3, 62, 40
4, 191976, Note_off_c, 3, 62, 0
4, 192000, Control_c, 3, 64, 0
4, 192040, Control_c, 3, 64, 127
4, 192120, Note_on_c, 3, 62, 39
4, 192216, Note_off_c, 3, 62, 0
4, 192240, Note_on_c, 3, 58, 38
4, 192336, Note_off_c, 3, 58, 0
4, 192360, Note_on_c, 3, 62, 37
4, 192456, Note_off_c, 3, 62, 0
4, 192480, Control_c, 3, 64, 0
4, 192520, Control_c, 3, 64, 127
4, 192600, Note_on_c, 3, 62, 36
4, 192696, Note_off_c, 3, 62, 0
4, 192720, Note_on_c, 3, 58, 35
4, 192816, Note_off_c, 3, 58, 0
4, 192840, Note_on_c, 3, 62, 34
4, 192920, Control_c, 3, 64, 0
4, 192936, Note_off_c, 3, 62, 0
4, 192960, Control_c, 3, 64, 127
4, 193080, Note_on_c, 3, 62, 37
4, 193176, Note_off_c, 3, 62, 0
4, 193200, Note_on_c, 3, 57, 37
4, 193296, Note_off_c, 3, 57, 0
4, 193320, Note_on_c, 3, 62, 38
4, 193416, Note_off_c, 3, 62, 0
4, 193440, Control_c, 3, 64, 0
4, 193480, Control_c, 3, 64, 127
4, 193560, Note_on_c, 3, 62, 40
4, 193656, Note_off_c, 3, 62, 0
4, 193680, Note_on_c, 3, 57, 41
4, 193776, Note_off_c, 3, 57, 0
4, 193800, Note_on_c, 3, 62, 41
4, 193896, Note_off_c, 3, 62, 0
4, 193920, Control_c, 3, 64, 0
4, 193960, Control_c, 3, 64, 127
4, 194040, Note_on_c, 3, 62, 43
4, 194136, Note_off_c, 3, 62, 0
4, 194160, Note_on_c, 3, 54, 44
4, 194256, Note_off_c, 3, 54, 0
4, 194280, Note_on_c, 3, 62, 44
4, 194376, Note_off_c, 3, 62, 0
4, 194400, Control_c, 3, 64, 0
4, 194440, Control_c, 3, 64, 127
4, 194520, Note_on_c, 3, 62, 43
4, 194616, Note_off_c, 3, 62, 0
4, 194640, Note_on_c, 3, 58, 41
4, 194736, Note_off_c, 3, 58, 0
4, 194760, Note_on_c, 3, 62, 38
4, 194856, Note_off_c, 3, 62, 0
4, 194880, Control_c, 3, 64, 0
4, 194920, Control_c, 3, 64, 127
4, 195000, Note_on_c, 3, 62, 42
4, 195096, Note_off_c, 3, 62, 0
4, 195120, Note_on_c, 3, 58, 44
4, 195216, Note_off_c, 3, 58, 0
4, 195240, Note_on_c, 3, 62, 46
4, 195336, Note_off_c, 3, 62, 0
4, 195360, Control_c, 3, 64, 0
4, 195400, Control_c, 3, 64, 127
4, 195480, Note_on_c, 3, 63, 50
4, 195576, Note_off_c, 3, 63, 0
4, 195600, Note_on_c, 3, 58, 52
4, 195696, Note_off_c, 3, 58, 0
4, 195720, Note_on_c, 3, 63, 54
4, 195800, Control_c, 3, 64, 0
4, 195816, Note_off_c, 3, 63, 0
4, 195840, Control_c, 3, 64, 127
4, 195960, Note_on_c, 3, 65, 58
4, 196056, Note_off_c, 3, 65, 0
4, 196080, Note_on_c, 3, 60, 57
4, 196176, Note_off_c, 3, 60, 0
4, 196200, Note_on_c, 3, 65, 56
4, 196296, Note_off_c, 3, 65, 0
4, 196320, Control_c, 3, 64, 0
4, 196360, Control_c, 3, 64, 127
4, 196440, Note_on_c, 3, 65, 54
4, 196536, Note_off_c, 3, 65, 0
4, 196560, Note_on_c, 3, 60, 53
4, 196656, Note_off_c, 3, 60, 0
4, 196680, Note_on_c, 3, 65, 52
4, 196776, Note_off_c, 3, 65, 0
4, 196800, Control_c, 3, 64, 0
4, 196840, Control_c, 3, 64, 127
4, 196920, Note_on_c, 3, 65, 50
4, 197016, Note_off_c, 3, 65, 0
4, 197040, Note_on_c, 3, 60, 49
4, 197136, Note_off_c, 3, 60, 0
4, 197160, Note_on_c, 3, 65, 48
4, 197240, Control_c, 3, 64, 0
4, 197256, Note_off_c, 3, 65, 0
4, 197280, Control_c, 3, 64, 127
4, 197400, Note_on_c, 3, 65, 52
4, 197496, Note_off_c, 3, 65, 0
4, 197520, Note_on_c, 3, 62, 51
4, 197616, Note_off_c, 3, 62, 0
4, 197640, Note_on_c, 3, 65, 49
4, 197736, Note_off_c, 3, 65, 0
4, 197760, Control_c, 3, 64, 0
4, 197800, Control_c, 3, 64, 127
4, 197880, Note_on_c, 3, 62, 47
4, 197976, Note_off_c, 3, 62, 0
4, 198000, Note_on_c, 3, 58, 46
4, 198096, Note_off_c, 3, 58, 0
4, 198120, Note_on_c, 3, 62, 45
4, 198216, Note_off_c, 3, 62, 0
4, 198240, Control_c, 3, 64, 0
4, 198280, Control_c, 3, 64, 127
4, 198360, Note_on_c, 3, 58, 42
4, 198456, Note_off_c, 3, 58, 0
4, 198480, Note_on_c, 3, 53, 41
4, 198576, Note_off_c, 3, 53, 0
4, 198600, Note_on_c, 3, 58, 40
4, 198680, Control_c, 3, 64, 0
4, 198696, Note_off_c, 3, 58, 0
4, 198720, Control_c, 3, 64, 127
4, 198840, Note_on_c, 3, 60, 42
4, 198936, Note_off_c, 3, 60, 0
4, 198960, Note_on_c, 3, 55, 41
4, 199056, Note_off_c, 3, 55, 0
4, 199080, Note_on_c, 3, 60, 41
4, 199176, Note_off_c, 3, 60, 0
4, 199200, Control_c, 3, 64, 0
4, 199240, Control_c, 3, 64, 127
4, 199320, Note_on_c, 3, 62, 39
4, 199416, Note_off_c, 3, 62, 0
4, 199440, Note_on_c, 3, 58, 38
4, 199536, Note_off_c, 3, 58, 0
4, 199560, Note_on_c, 3, 62, 37
4, 199656, Note_off_c, 3, 62, 0
4, 199680, Control_c, 3, 64, 0
4, 199720, Control_c, 3, 64, 127
4, 199800, Note_on_c, 3, 63, 36
4, 199896, Note_off_c, 3, 63, 0
4, 199920, Note_on_c, 3, 60, 35
4, 200016, Note_off_c, 3, 60, 0
4, 200040, Note_on_c, 3, 63, 34
4, 200120, Control_c, 3, 64, 0
4, 200136, Note_off_c, 3, 63, 0
4, 200160, Note_on_c, 3, 63, 37
4, 200640, Note_off_c, 3, 63, 0
4, 200640, Note_on_c, 3, 62, 30
4, 201120, Note_off_c, 3, 62, 0
4, 201600, Control_c, 3, 64, 0
4, 201640, Control_c, 3, 64, 127
4, 201720, Note_on_c, 3, 65, 41
4, 201816, Note_off_c, 3, 65, 0
4, 201840, Note_on_c, 3, 60, 42
4, 201936, Note_off_c, 3, 60, 0
4, 201960, Note_on_c, 3, 65, 43
4, 202056, Note_off_c, 3, 65, 0
4, 202080, Control_c, 3, 64, 0
4, 202120, Control_c, 3, 64, 127
4, 202200, Note_on_c, 3, 62, 45
4, 202296, Note_off_c, 3, 62, 0
4, 202320, Note_on_c, 3, 59, 46
4, 202416, Note_off_c, 3, 59, 0
4, 202440, Note_on_c, 3, 62, 47
4, 202536, Note_off_c, 3, 62, 0
4, 202560, Control_c, 3, 64, 0
4, 202600, Control_c, 3, 64, 127
4, 202680, Note_on_c, 3, 62, 49
4, 202776, Note_off_c, 3, 62, 0
4, 202800, Note_on_c, 3, 55, 50
4, 202896, Note_off_c, 3, 55, 0
4, 202920, Note_on_c, 3, 62, 51
4, 203016, Note_off_c, 3, 62, 0
4, 203040, Control_c, 3, 64, 0
4, 203080, Control_c, 3, 64, 127
4, 203160, Note_on_c, 3, 60, 49
4, 203256, Note_off_c, 3, 60, 0
4, 203280, Note_on_c, 3, 55, 46
4, 203376, Note_off_c, 3, 55, 0
4, 203400, Note_on_c, 3, 60, 44
4, 203496, Note_off_c, 3, 60, 0
4, 203520, Control_c, 3, 64, 0
4, 203560, Control_c, 3, 64, 127
4, 203640, Note_on_c, 3, 59, 47
4, 203736, Note_off_c, 3, 59, 0
4, 203760, Note_on_c, 3, 53, 48
4, 203856, Note_off_c, 3, 53, 0
4, 203880, Note_on_c, 3, 59, 49
4, 203976, Note_off_c, 3, 59, 0
4, 204000, Control_c, 3, 64, 0
4, 204040, Control_c, 3, 64, 127
4, 204120, Note_on_c, 3, 60, 51
4, 204216, Note_off_c, 3, 60, 0
4, 204240, Note_on_c, 3, 51, 52
4, 204336, Note_off_c, 3, 51, 0
4, 204360, Note_on_c, 3, 60, 53
4, 204440, Control_c, 3, 64, 0
4, 204456, Note_off_c, 3, 60, 0
4, 204480, Control_c, 3, 64, 127
4, 204600, Note_on_c, 3, 58, 55
4, 204696, Note_off_c, 3, 58, 0
4, 204720, Note_on_c, 3, 52, 56
4, 204816, Note_off_c, 3, 52, 0
4, 204840, Note_on_c, 3, 58, 57
4, 204936, Note_off_c, 3, 58, 0
4, 204960, Control_c, 3, 64, 0
4, 205000, Control_c, 3, 64, 127
4, 205080, Note_on_c, 3, 58, 59
4, 205176, Note_off_c, 3, 58, 0
4, 205200, Note_on_c, 3, 55, 60
4, 205296, Note_off_c, 3, 55, 0
4, 205320, Note_on_c, 3, 58, 62
4, 205416, Note_off_c, 3, 58, 0
4, 205440, Control_c, 3, 64, 0
4, 205480, Control_c, 3, 64, 127
4, 205560, Note_on_c, 3, 58, 64
4, 205656, Note_off_c, 3, 58, 0
4, 205680, Note_on_c, 3, 55, 65
4, 205776, Note_off_c, 3, 55, 0
4, 205800, Note_on_c, 3, 58, 66
4, 205896, Note_off_c, 3, 58, 0
4, 205920, Control_c, 3, 64, 0
4, 205960, Control_c, 3, 64, 127
4, 206040, Note_on_c, 3, 58, 66
4, 206136, Note_off_c, 3, 58, 0
4, 206160, Note_on_c, 3, 55, 64
4, 206256, Note_off_c, 3, 55, 0
4, 206280, Note_on_c, 3, 58, 61
4, 206376, Note_off_c, 3, 58, 0
4, 206400, Control_c, 3, 64, 0
4, 206440, Control_c, 3, 64, 127
4, 206520, Note_on_c, 3, 57, 59
4, 206616, Note_off_c, 3, 57, 0
4, 206640, Note_on_c, 3, 54, 60
4, 206736, Note_off_c, 3, 54, 0
4, 206760, Note_on_c, 3, 57, 61
4, 206856, Note_off_c, 3, 57, 0
4, 206880, Control_c, 3, 64, 0
4, 206920, Control_c, 3, 64, 127
4, 207000, Note_on_c, 3, 57, 64
4, 207096, Note_off_c, 3, 57, 0
4, 207120, Note_on_c, 3, 54, 65
4, 207216, Note_off_c, 3, 54, 0
4, 207240, Note_on_c, 3, 57, 66
4, 207320, Control_c, 3, 64, 0
4, 207336, Note_off_c, 3, 57, 0
4, 207360, Control_c, 3, 64, 127
4, 207480, Note_on_c, 3, 57, 68
4, 207576, Note_off_c, 3, 57, 0
4, 207600, Note_on_c, 3, 54, 69
4, 207696, Note_off_c, 3, 54, 0
4, 207720, Note_on_c, 3, 57, 70
4, 207816, Note_off_c, 3, 57, 0
4, 207840, Control_c, 3, 64, 0
4, 207880, Control_c, 3, 64, 127
4, 207960, Note_on_c, 3, 57, 72
4, 208056, Note_off_c, 3, 57, 0
4, 208080, Note_on_c, 3, 54, 73
4, 208176, Note_off_c, 3, 54, 0
4, 208200, Note_on_c, 3, 57, 74
4, 208296, Note_off_c, 3, 57, 0
4, 208320, Control_c, 3, 64, 0
4, 208360, Control_c, 3, 64, 127
4, 208440, Note_on_c, 3, 57, 76
4, 208536, Note_off_c, 3, 57, 0
4, 208560, Note_on_c, 3, 54, 77
4, 208656, Note_off_c, 3, 54, 0
4, 208680, Note_on_c, 3, 57, 78
4, 208760, Control_c, 3, 64, 0
4, 208776, Note_off_c, 3, 57, 0
4, 208800, Control_c, 3, 64, 127
4, 208920, Note_on_c, 3, 55, 79
4, 209016, Note_off_c, 3, 55, 0
4, 209040, Note_on_c, 3, 50, 77
4, 209136, Note_off_c, 3, 50, 0
4, 209160, Note_on_c, 3, 55, 76
4, 209256, Note_off_c, 3, 55, 0
4, 209280, Control_c, 3, 64, 0
4, 209320, Control_c, 3, 64, 127
4, 209400, Note_on_c, 3, 55, 72
4, 209496, Note_off_c, 3, 55, 0
4, 209520, Note_on_c, 3, 50, 71
4, 209616, Note_off_c, 3, 50, 0
4, 209640, Note_on_c, 3, 55, 69
4, 209736, Note_off_c, 3, 55, 0
4, 209760, Control_c, 3, 64, 0
4, 209800, Control_c, 3, 64, 127
4, 209880, Note_on_c, 3, 55, 66
4, 209976, Note_off_c, 3, 55, 0
4, 210000, Note_on_c, 3, 50, 64
4, 210096, Note_off_c, 3, 50, 0
4, 210120, Note_on_c, 3, 55, 62
4, 210200, Control_c, 3, 64, 0
4, 210216, Note_off_c, 3, 55, 0
4, 210240, Control_c, 3, 64, 127
4, 210360, Note_on_c, 3, 57, 59
4, 210456, Note_off_c, 3, 57, 0
4, 210480, Note_on_c, 3, 51, 57
4, 210576, Note_off_c, 3, 51, 0
4, 210600, Note_on_c, 3, 57, 55
4, 210696, Note_off_c, 3, 57, 0
4, 210720, Control_c, 3, 64, 0
4, 210760, Control_c, 3, 64, 127
4, 210840, Note_on_c, 3, 58, 52
4, 210936, Note_off_c, 3, 58, 0
4, 210960, Note_on_c, 3, 55, 50
4, 211056, Note_off_c, 3, 55, 0
4, 211080, Note_on_c, 3, 58, 49
4, 211176, Note_off_c, 3, 58, 0
4, 211200, Control_c, 3, 64, 0
4, 211240, Control_c, 3, 64, 127
4, 211320, Note_on_c, 3, 60, 45
4, 211416, Note_off_c, 3, 60, 0
4, 211440, Note_on_c, 3, 57, 44
4, 211536, Note_off_c, 3, 57, 0
4, 211560, Note_on_c, 3, 60, 42
4, 211640, Control_c, 3, 64, 0
4, 211656, Note_off_c, 3, 60, 0
4, 211680, Note_on_c, 3, 60, 46
4, 212160, Note_off_c, 3, 60, 0
4, 212160, Note_on_c, 3, 58, 30
4, 212640, Note_off_c, 3, 58, 0
4, 213120, Control_c, 3, 64, 0
4, 213160, Control_c, 3, 64, 127
4, 213240, Note_on_c, 3, 62, 31
4, 213336, Note_off_c, 3, 62, 0
4, 213360, Note_on_c, 3, 59, 32
4, 213456, Note_off_c, 3, 59, 0
4, 213480, Note_on_c, 3, 62, 33
4, 213576, Note_off_c, 3, 62, 0
4, 213600, Control_c, 3, 64, 0
4, 213640, Control_c, 3, 64, 127
4, 213720, Note_on_c, 3, 62, 35
4, 213816, Note_off_c, 3, 62, 0
4, 213840, Note_on_c, 3, 59, 36
4, 213936, Note_off_c, 3, 59, 0
4, 213960, Note_on_c, 3, 62, 37
4, 214056, Note_off_c, 3, 62, 0
4, 214080, Control_c, 3, 64, 0
4, 214120, Control_c, 3, 64, 127
4, 214200, Note_on_c, 3, 62, 38
4, 214296, Note_off_c, 3, 62, 0
4, 214320, Note_on_c, 3, 60, 39
4, 214416, Note_off_c, 3, 60, 0
4, 214440, Note_on_c, 3, 62, 40
4, 214536, Note_off_c, 3, 62, 0
4, 214560, Control_c, 3, 64, 0
4, 214600, Control_c, 3, 64, 127
4, 214680, Note_on_c, 3, 62, 43
4, 214776, Note_off_c, 3, 62, 0
4, 214800, Note_on_c, 3, 59, 42
4, 214896, Note_off_c, 3, 59, 0
4, 214920, Note_on_c, 3, 62, 41
4, 215016, Note_off_c, 3, 62, 0
4, 215040, Control_c, 3, 64, 0
4, 215080, Control_c, 3, 64, 127
4, 215160, Note_on_c, 3, 62, 39
4, 215256, Note_off_c, 3, 62, 0
4, 215280, Note_on_c, 3, 59, 38
4, 215376, Note_off_c, 3, 59, 0
4, 215400, Note_on_c, 3, 62, 38
4, 215496, Note_off_c, 3, 62, 0
4, 215520, Control_c, 3, 64, 0
4, 215560, Control_c, 3, 64, 127
4, 215640, Note_on_c, 3, 62, 36
4, 215736, Note_off_c, 3, 62, 0
4, 215760, Note_on_c, 3, 59, 35
4, 215856, Note_off_c, 3, 59, 0
4, 215880, Note_on_c, 3, 62, 34
4, 215960, Control_c, 3, 64, 0
4, 215976, Note_off_c, 3, 62, 0
4, 216000, Control_c, 3, 64, 127
4, 216120, Note_on_c, 3, 64, 37
4, 216216, Note_off_c, 3, 64, 0
4, 216240, Note_on_c, 3, 60, 38
4, 216336, Note_off_c, 3, 60, 0
4, 216360, Note_on_c, 3, 64, 39
4, 216456, Note_off_c, 3, 64, 0
4, 216480, Control_c, 3, 64, 0
4, 216520, Control_c, 3, 64, 127
4, 216600, Note_on_c, 3, 64, 40
4, 216696, Note_off_c, 3, 64, 0
4, 216720, Note_on_c, 3, 60, 41
4, 216816, Note_off_c, 3, 60, 0
4, 216840, Note_on_c, 3, 64, 42
4, 216936, Note_off_c, 3, 64, 0
4, 216960, Control_c, 3, 64, 0
4, 217000, Control_c, 3, 64, 127
4, 217080, Note_on_c, 3, 61, 44
4, 217176, Note_off_c, 3, 61, 0
4, 217200, Note_on_c, 3, 58, 45
4, 217296, Note_off_c, 3, 58, 0
4, 217320, Note_on_c, 3, 61, 46
4, 217416, Note_off_c, 3, 61, 0
4, 217440, Control_c, 3, 64, 0
4, 217480, Control_c, 3, 64, 127
4, 217560, Note_on_c, 3, 62, 47
4, 217656, Note_off_c, 3, 62, 0
4, 217680, Note_on_c, 3, 59, 46
4, 217776, Note_off_c, 3, 59, 0
4, 217800, Note_on_c, 3, 62, 45
4, 217896, Note_off_c, 3, 62, 0
4, 217920, Control_c, 3, 64, 0
4, 217960, Control_c, 3, 64, 127
4, 218040, Note_on_c, 3, 62, 42
4, 218136, Note_off_c, 3, 62, 0
4, 218160, Note_on_c, 3, 59, 41
4, 218256, Note_off_c, 3, 59, 0
4, 218280, Note_on_c, 3, 62, 40
4, 218376, Note_off_c, 3, 62, 0
4, 218400, Control_c, 3, 64, 0
4, 218440, Control_c, 3, 64, 127
4, 218520, Note_on_c, 3, 62, 37
4, 218616, Note_off_c, 3, 62, 0
4, 218640, Note_on_c, 3, 59, 36
4, 218736, Note_off_c, 3, 59, 0
4, 218760, Note_on_c, 3, 62, 40
4, 218840, Control_c, 3, 64, 0
4, 218856, Note_off_c, 3, 62, 0
4, 218880, Control_c, 3, 64, 127
4, 219000, Note_on_c, 3, 62, 41
4, 219096, Note_off_c, 3, 62, 0
4, 219120, Note_on_c, 3, 60, 41
4, 219216, Note_off_c, 3, 60, 0
4, 219240, Note_on_c, 3, 62, 42
4, 219336, Note_off_c, 3, 62, 0
4, 219360, Control_c, 3, 64, 0
4, 219400, Control_c, 3, 64, 127
4, 219480, Note_on_c, 3, 62, 43
4, 219576, Note_off_c, 3, 62, 0
4, 219600, Note_on_c, 3, 60, 44
4, 219696, Note_off_c, 3, 60, 0
4, 219720, Note_on_c, 3, 62, 45
4, 219816, Note_off_c, 3, 62, 0
4, 219840, Control_c, 3, 64, 0
4, 219880, Control_c, 3, 64, 127
4, 219960, Note_on_c, 3, 62, 46
4, 220056, Note_off_c, 3, 62, 0
4, 220080, Note_on_c, 3, 60, 46
4, 220176, Note_off_c, 3, 60, 0
4, 220200, Note_on_c, 3, 62, 47
4, 220296, Note_off_c, 3, 62, 0
4, 220320, Control_c, 3, 64, 0
4, 220360, Control_c, 3, 64, 127
4, 220440, Note_on_c, 3, 62, 48
4, 220536, Note_off_c, 3, 62, 0
4, 220560, Note_on_c, 3, 59, 49
4, 220656, Note_off_c, 3, 59, 0
4, 220680, Note_on_c, 3, 62, 49
4, 220776, Note_off_c, 3, 62, 0
4, 220800, Control_c, 3, 64, 0
4, 220840, Control_c, 3, 64, 127
4, 220920, Note_on_c, 3, 59, 51
4, 221016, Note_off_c, 3, 59, 0
4, 221040, Note_on_c, 3, 55, 51
4, 221136, Note_off_c, 3, 55, 0
4, 221160, Note_on_c, 3, 59, 52
4, 221256, Note_off_c, 3, 59, 0
4, 221280, Control_c, 3, 64, 0
4, 221320, Control_c, 3, 64, 127
4, 221400, Note_on_c, 3, 55, 53
4, 221496, Note_off_c, 3, 55, 0
4, 221520, Note_on_c, 3, 50, 54
4, 221616, Note_off_c, 3, 50, 0
4, 221640, Note_on_c, 3, 55, 54
4, 221720, Control_c, 3, 64, 0
4, 221736, Note_off_c, 3, 55, 0
4, 221760, Note_on_c, 3, 52, 56
4, 222240, Note_off_c, 3, 52, 0
4, 222240, Note_on_c, 3, 55, 49
4, 223200, Note_off_c, 3, 55, 0
4, 223200, Note_on_c, 3, 55, 42
4, 223680, Note_off_c, 3, 55, 0
4, 223680, Note_on_c, 3, 54, 32
4, 224160, Note_off_c, 3, 54, 0
4, 224640, Control_c, 3, 64, 0
4, 224680, Control_c, 3, 64, 127
4, 224760, Note_on_c, 3, 62, 35
4, 224856, Note_off_c, 3, 62, 0
4, 224880, Note_on_c, 3, 59, 37
4, 224976, Note_off_c, 3, 59, 0
4, 225000, Note_on_c, 3, 62, 38
4, 225096, Note_off_c, 3, 62, 0
4, 225120, Control_c, 3, 64, 0
4, 225160, Control_c, 3, 64, 127
4, 225240, Note_on_c, 3, 62, 40
4, 225336, Note_off_c, 3, 62, 0
4, 225360, Note_on_c, 3, 59, 41
4, 225456, Note_off_c, 3, 59, 0
4, 225480, Note_on_c, 3, 62, 42
4, 225576, Note_off_c, 3, 62, 0
4, 225600, Control_c, 3, 64, 0
4, 225640, Control_c, 3, 64, 127
4, 225720, Note_on_c, 3, 62, 44
4, 225816, Note_off_c, 3, 62, 0
4, 225840, Note_on_c, 3, 60, 45
4, 225936, Note_off_c, 3, 60, 0
4, 225960, Note_on_c, 3, 62, 46
4, 226056, Note_off_c, 3, 62, 0
4, 226080, Control_c, 3, 64, 0
4, 226120, Control_c, 3, 64, 127
4, 226200, Note_on_c, 3, 62, 49
4, 226296, Note_off_c, 3, 62, 0
4, 226320, Note_on_c, 3, 59, 48
4, 226416, Note_off_c, 3, 59, 0
4, 226440, Note_on_c, 3, 62, 47
4, 226536, Note_off_c, 3, 62, 0
4, 226560, Control_c, 3, 64, 0
4, 226600, Control_c, 3, 64, 127
4, 226680, Note_on_c, 3, 62, 45
4, 226776, Note_off_c, 3, 62, 0
4, 226800, Note_on_c, 3, 59, 44
4, 226896, Note_off_c, 3, 59, 0
4, 226920, Note_on_c, 3, 62, 43
4, 227016, Note_off_c, 3, 62, 0
4, 227040, Control_c, 3, 64, 0
4, 227080, Control_c, 3, 64, 127
4, 227160, Note_on_c, 3, 62, 42
4, 227256, Note_off_c, 3, 62, 0
4, 227280, Note_on_c, 3, 59, 41
4, 227376, Note_off_c, 3, 59, 0
4, 227400, Note_on_c, 3, 62, 40
4, 227480, Control_c, 3, 64, 0
4, 227496, Note_off_c, 3, 62, 0
4, 227520, Control_c, 3, 64, 127
4, 227640, Note_on_c, 3, 64, 44
4, 227736, Note_off_c, 3, 64, 0
4, 227760, Note_on_c, 3, 60, 45
4, 227856, Note_off_c, 3, 60, 0
4, 227880, Note_on_c, 3, 64, 45
4, 227976, Note_off_c, 3, 64, 0
4, 228000, Control_c, 3, 64, 0
4, 228040, Control_c, 3, 64, 127
4, 228120, Note_on_c, 3, 64, 47
4, 228216, Note_off_c, 3, 64, 0
4, 228240, Note_on_c, 3, 60, 47
4, 228336, Note_off_c, 3, 60, 0
4, 228360, Note_on_c, 3, 64, 48
4, 228456, Note_off_c, 3, 64, 0
4, 228480, Control_c, 3, 64, 0
4, 228520, Control_c, 3, 64, 127
4, 228600, Note_on_c, 3, 61, 49
4, 228696, Note_off_c, 3, 61, 0
4, 228720, Note_on_c, 3, 58, 50
4, 228816, Note_off_c, 3, 58, 0
4, 228840, Note_on_c, 3, 61, 51
4, 228936, Note_off_c, 3, 61, 0
4, 228960, Control_c, 3, 64, 0
4, 229000, Control_c, 3, 64, 127
4, 229080, Note_on_c, 3, 62, 51
4, 229176, Note_off_c, 3, 62, 0
4, 229200, Note_on_c, 3, 59, 50
4, 229296, Note_off_c, 3, 59, 0
4, 229320, Note_on_c, 3, 62, 49
4, 229416, Note_off_c, 3, 62, 0
4, 229440, Control_c, 3, 64, 0
4, 229480, Control_c, 3, 64, 127
4, 229560, Note_on_c, 3, 62, 48
4, 229656, Note_off_c, 3, 62, 0
4, 229680, Note_on_c, 3, 59, 47
4, 229776, Note_off_c, 3, 59, 0
4, 229800, Note_on_c, 3, 62, 46
4, 229896, Note_off_c, 3, 62, 0
4, 229920, Control_c, 3, 64, 0
4, 229960, Control_c, 3, 64, 127
4, 230040, Note_on_c, 3, 62, 44
4, 230136, Note_off_c, 3, 62, 0
4, 230160, Note_on_c, 3, 59, 43
4, 230256, Note_off_c, 3, 59, 0
4, 230280, Note_on_c, 3, 62, 42
4, 230360, Control_c, 3, 64, 0
4, 230376, Note_off_c, 3, 62, 0
4, 230400, Control_c, 3, 64, 127
4, 230520, Note_on_c, 3, 62, 45
4, 230616, Note_off_c, 3, 62, 0
4, 230640, Note_on_c, 3, 60, 46
4, 230736, Note_off_c, 3, 60, 0
4, 230760, Note_on_c, 3, 62, 47
4, 230856, Note_off_c, 3, 62, 0
4, 230880, Control_c, 3, 64, 0
4, 230920, Control_c, 3, 64, 127
4, 231000, Note_on_c, 3, 62, 49
4, 231096, Note_off_c, 3, 62, 0
4, 231120, Note_on_c, 3, 60, 49
4, 231216, Note_off_c, 3, 60, 0
4, 231240, Note_on_c, 3, 62, 50
4, 231336, Note_off_c, 3, 62, 0
4, 231360, Control_c, 3, 64, 0
4, 231400, Control_c, 3, 64, 127
4, 231480, Note_on_c, 3, 62, 52
4, 231576, Note_off_c, 3, 62, 0
4, 231600, Note_on_c, 3, 60, 53
4, 231696, Note_off_c, 3, 60, 0
4, 231720, Note_on_c, 3, 62, 54
4, 231816, Note_off_c, 3, 62, 0
4, 231840, Control_c, 3, 64, 0
4, 231880, Control_c, 3, 64, 127
4, 231960, Note_on_c, 3, 62, 55
4, 232056, Note_off_c, 3, 62, 0
4, 232080, Note_on_c, 3, 59, 56
4, 232176, Note_off_c, 3, 59, 0
4, 232200, Note_on_c, 3, 62, 57
4, 232296, Note_off_c, 3, 62, 0
4, 232320, Control_c, 3, 64, 0
4, 232360, Control_c, 3, 64, 127
4, 232440, Note_on_c, 3, 59, 59
4, 232536, Note_off_c, 3, 59, 0
4, 232560, Note_on_c, 3, 55, 60
4, 232656, Note_off_c, 3, 55, 0
4, 232680, Note_on_c, 3, 59, 60
4, 232776, Note_off_c, 3, 59, 0
4, 232800, Control_c, 3, 64, 0
4, 232840, Control_c, 3, 64, 127
4, 232920, Note_on_c, 3, 55, 62
4, 233016, Note_off_c, 3, 55, 0
4, 233040, Note_on_c, 3, 50, 63
4, 233136, Note_off_c, 3, 50, 0
4, 233160, Note_on_c, 3, 55, 64
4, 233240, Control_c, 3, 64, 0
4, 233256, Note_off_c, 3, 55, 0
4, 233280, Control_c, 3, 64, 127
4, 233400, Note_on_c, 3, 57, 62
4, 233496, Note_off_c, 3, 57, 0
4, 233520, Note_on_c, 3, 52, 60
4, 233616, Note_off_c, 3, 52, 0
4, 233640, Note_on_c, 3, 57, 58
4, 233736, Note_off_c, 3, 57, 0
4, 233760, Control_c, 3, 64, 0
4, 233800, Control_c, 3, 64, 127
4, 233880, Note_on_c, 3, 59, 54
4, 233976, Note_off_c, 3, 59, 0
4, 234000, Note_on_c, 3, 55, 52
4, 234096, Note_off_c, 3, 55, 0
4, 234120, Note_on_c, 3, 59, 50
4, 234216, Note_off_c, 3, 59, 0
4, 234240, Control_c, 3, 64, 0
4, 234280, Control_c, 3, 64, 127
4, 234360, Note_on_c, 3, 60, 46
4, 234456, Note_off_c, 3, 60, 0
4, 234480, Note_on_c, 3, 57, 44
4, 234576, Note_off_c, 3, 57, 0
4, 234600, Note_on_c, 3, 60, 42
4, 234680, Control_c, 3, 64, 0
4, 234696, Note_off_c, 3, 60, 0
4, 234720, Note_on_c, 3, 59, 42
4, 235200, Note_off_c, 3, 59, 0
4, 236160, Control_c, 3, 64, 0
4, 236200, Control_c, 3, 64, 127
4, 236280, Note_on_c, 3, 65, 50
4, 236376, Note_off_c, 3, 65, 0
4, 236400, Note_on_c, 3, 60, 50
4, 236496, Note_off_c, 3, 60, 0
4, 236520, Note_on_c, 3, 65, 51
4, 236616, Note_off_c, 3, 65, 0
4, 236640, Control_c, 3, 64, 0
4, 236680, Control_c, 3, 64, 127
4, 236760, Note_on_c, 3, 65, 52
4, 236856, Note_off_c, 3, 65, 0
4, 236880, Note_on_c, 3, 60, 53
4, 236976, Note_off_c, 3, 60, 0
4, 237000, Note_on_c, 3, 65, 53
4, 237096, Note_off_c, 3, 65, 0
4, 237120, Control_c, 3, 64, 0
4, 237160, Control_c, 3, 64, 127
4, 237240, Note_on_c, 3, 67, 54
4, 237336, Note_off_c, 3, 67, 0
4, 237360, Note_on_c, 3, 62, 55
4, 237456, Note_off_c, 3, 62, 0
4, 237480, Note_on_c, 3, 67, 56
4, 237576, Note_off_c, 3, 67, 0
4, 237600, Control_c, 3, 64, 0
4, 237640, Control_c, 3, 64, 127
4, 237720, Note_on_c, 3, 67, 57
4, 237816, Note_off_c, 3, 67, 0
4, 237840, Note_on_c, 3, 64, 57
4, 237936, Note_off_c, 3, 64, 0
4, 237960, Note_on_c, 3, 67, 58
4, 238056, Note_off_c, 3, 67, 0
4, 238080, Control_c, 3, 64, 0
4, 238120, Control_c, 3, 64, 127
4, 238200, Note_on_c, 3, 67, 59
4, 238296, Note_off_c, 3, 67, 0
4, 238320, Note_on_c, 3, 64, 60
4, 238416, Note_off_c, 3, 64, 0
4, 238440, Note_on_c, 3, 67, 60
4, 238536, Note_off_c, 3, 67, 0
4, 238560, Control_c, 3, 64, 0
4, 238600, Control_c, 3, 64, 127
4, 238680, Note_on_c, 3, 67, 61
4, 238776, Note_off_c, 3, 67, 0
4, 238800, Note_on_c, 3, 64, 62
4, 238896, Note_off_c, 3, 64, 0
4, 238920, Note_on_c, 3, 67, 63
4, 239000, Control_c, 3, 64, 0
4, 239016, Note_off_c, 3, 67, 0
4, 239040, Control_c, 3, 64, 127
4, 239160, Note_on_c, 3, 62, 60
4, 239256, Note_off_c, 3, 62, 0
4, 239280, Note_on_c, 3, 60, 59
4, 239376, Note_off_c, 3, 60, 0
4, 239400, Note_on_c, 3, 64, 57
4, 239496, Note_off_c, 3, 64, 0
4, 239520, Control_c, 3, 64, 0
4, 239560, Control_c, 3, 64, 127
4, 239640, Note_on_c, 3, 59, 55
4, 239736, Note_off_c, 3, 59, 0
4, 239760, Note_on_c, 3, 55, 53
4, 239856, Note_off_c, 3, 55, 0
4, 239880, Note_on_c, 3, 59, 52
4, 239976, Note_off_c, 3, 59, 0
4, 240000, Control_c, 3, 64, 0
4, 240040, Control_c, 3, 64, 127
4, 240120, Note_on_c, 3, 60, 49
4, 240216, Note_off_c, 3, 60, 0
4, 240240, Note_on_c, 3, 57, 48
4, 240336, Note_off_c, 3, 57, 0
4, 240360, Note_on_c, 3, 60, 46
4, 240440, Control_c, 3, 64, 0
4, 240456, Note_off_c, 3, 60, 0
4, 240480, Note_on_c, 3, 59, 46
4, 240960, Note_off_c, 3, 59, 0
4, 241920, Control_c, 3, 64, 0
4, 241960, Control_c, 3, 64, 127
4, 242040, Note_on_c, 3, 53, 57
4, 242136, Note_off_c, 3, 53, 0
4, 242160, Note_on_c, 3, 48, 58
4, 242256, Note_off_c, 3, 48, 0
4, 242280, Note_on_c, 3, 53, 59
4, 242376, Note_off_c, 3, 53, 0
4, 242400, Control_c, 3, 64, 0
4, 242440, Control_c, 3, 64, 127
4, 242520, Note_on_c, 3, 55, 61
4, 242616, Note_off_c, 3, 55, 0
4, 242640, Note_on_c, 3, 50, 62
4, 242736, Note_off_c, 3, 50, 0
4, 242760, Note_on_c, 3, 55, 62
4, 242856, Note_off_c, 3, 55, 0
4, 242880, Control_c, 3, 64, 0
4, 242920, Control_c, 3, 64, 127
4, 243000, Note_on_c, 3, 55, 64
4, 243096, Note_off_c, 3, 55, 0
4, 243120, Note_on_c, 3, 47, 65
4, 243216, Note_off_c, 3, 47, 0
4, 243240, Note_on_c, 3, 55, 66
4, 243336, Note_off_c, 3, 55, 0
4, 243360, Control_c, 3, 64, 0
4, 243400, Control_c, 3, 64, 127
4, 243480, Note_on_c, 3, 55, 68
4, 243576, Note_off_c, 3, 55, 0
4, 243600, Note_on_c, 3, 52, 69
4, 243696, Note_off_c, 3, 52, 0
4, 243720, Note_on_c, 3, 55, 69
4, 243816, Note_off_c, 3, 55, 0
4, 243840, Control_c, 3, 64, 0
4, 243880, Control_c, 3, 64, 127
4, 243960, Note_on_c, 3, 57, 71
4, 244056, Note_off_c, 3, 57, 0
4, 244080, Note_on_c, 3, 51, 72
4, 244176, Note_off_c, 3, 51, 0
4, 244200, Note_on_c, 3, 57, 73
4, 244296, Note_off_c, 3, 57, 0
4, 244320, Control_c, 3, 64, 0
4, 244360, Control_c, 3, 64, 127
4, 244440, Note_on_c, 3, 58, 75
4, 244536, Note_off_c, 3, 58, 0
4, 244560, Note_on_c, 3, 52, 75
4, 244656, Note_off_c, 3, 52, 0
4, 244680, Note_on_c, 3, 58, 76
4, 244760, Control_c, 3, 64, 0
4, 244776, Note_off_c, 3, 58, 0
4, 244800, Control_c, 3, 64, 127
4, 244920, Note_on_c, 3, 59, 75
4, 245016, Note_off_c, 3, 59, 0
4, 245040, Note_on_c, 3, 55, 74
4, 245136, Note_off_c, 3, 55, 0
4, 245160, Note_on_c, 3, 59, 72
4, 245256, Note_off_c, 3, 59, 0
4, 245280, Control_c, 3, 64, 0
4, 245320, Control_c, 3, 64, 127
4, 245400, Note_on_c, 3, 59, 70
4, 245496, Note_off_c, 3, 59, 0
4, 245520, Note_on_c, 3, 55, 69
4, 245616, Note_off_c, 3, 55, 0
4, 245640, Note_on_c, 3, 59, 67
4, 245736, Note_off_c, 3, 59, 0
4, 245760, Control_c, 3, 64, 0
4, 245800, Control_c, 3, 64, 127
4, 245880, Note_on_c, 3, 60, 65
4, 245976, Note_off_c, 3, 60, 0
4, 246000, Note_on_c, 3, 57, 63
4, 246096, Note_off_c, 3, 57, 0
4, 246120, Note_on_c, 3, 60, 62
4, 246216, Note_off_c, 3, 60, 0
4, 246240, Control_c, 3, 64, 0
4, 246240, Note_on_c, 3, 59, 61
4, 246660, Note_off_c, 3, 59, 0
4, 247440, Note_on_c, 3, 60, 48
4, 247680, Note_off_c, 3, 60, 0
4, 247680, Note_on_c, 3, 59, 46
4, 248107, Note_off_c, 3, 59, 0
4, 248880, Note_on_c, 3, 60, 33
4, 249120, Note_off_c, 3, 60, 0
4, 249120, Note_on_c, 3, 59, 33
4, 249360, Note_off_c, 3, 59, 0
4, 249600, Note_on_c, 3, 59, 25
4, 249840, Note_off_c, 3, 59, 0
4, 252480, Control_c, 3, 64, 0
4, 260160, Control_c, 3, 64, 0
4, 267840, Control_c, 3, 64, 0
4, 267960, Note_on_c, 3, 67, 62
4, 268080, Note_off_c, 3, 67, 0
4, 268080, Note_on_c, 3, 64, 62
4, 268200, Note_off_c, 3, 64, 0
4, 268200, Note_on_c, 3, 67, 62
4, 268320, Note_off_c, 3, 67, 0
4, 268440, Note_on_c, 3, 67, 61
4, 268560, Note_off_c, 3, 67, 0
4, 268560, Note_on_c, 3, 62, 61
4, 268680, Note_off_c, 3, 62, 0
4, 268680, Note_on_c, 3, 67, 61
4, 268800, Note_off_c, 3, 67, 0
4, 268920, Note_on_c, 3, 62, 61
4, 269040, Note_off_c, 3, 62, 0
4, 269040, Note_on_c, 3, 57, 60
4, 269160, Note_off_c, 3, 57, 0
4, 269160, Note_on_c, 3, 62, 60
4, 269280, Note_off_c, 3, 62, 0
4, 269400, Note_on_c, 3, 62, 60
4, 269520, Note_off_c, 3, 62, 0
4, 269520, Note_on_c, 3, 59, 59
4, 269640, Note_off_c, 3, 59, 0
4, 269640, Note_on_c, 3, 62, 59
4, 269760, Note_off_c, 3, 62, 0
4, 269880, Note_on_c, 3, 55, 59
4, 269975, Note_off_c, 3, 55, 0
4, 270000, Note_on_c, 3, 50, 58
4, 270095, Note_off_c, 3, 50, 0
4, 270120, Note_on_c, 3, 55, 58
4, 270215, Note_off_c, 3, 55, 0
4, 270360, Note_on_c, 3, 57, 58
4, 270455, Note_off_c, 3, 57, 0
4, 270480, Note_on_c, 3, 52, 58
4, 270575, Note_off_c, 3, 52, 0
4, 270600, Note_on_c, 3, 57, 57
4, 270695, Note_off_c, 3, 57, 0
4, 270840, Note_on_c, 3, 57, 57
4, 270935, Note_off_c, 3, 57, 0
4, 270960, Note_on_c, 3, 52, 57
4, 271055, Note_off_c, 3, 52, 0
4, 271080, Note_on_c, 3, 57, 56
4, 271175, Note_off_c, 3, 57, 0
4, 294360, Note_on_c, 3, 64, 85
4, 294455, Note_off_c, 3, 64, 0
4, 294600, Note_on_c, 3, 64, 84
4, 294695, Note_off_c, 3, 64, 0
4, 294840, Note_on_c, 3, 64, 83
4, 294935, Note_off_c, 3, 64, 0
4, 295080, Note_on_c, 3, 64, 82
4, 295175, Note_off_c, 3, 64, 0
4, 295320, Note_on_c, 3, 64, 81
4, 295415, Note_off_c, 3, 64, 0
4, 295560, Note_on_c, 3, 64, 80
4, 295655, Note_off_c, 3, 64, 0
4, 295800, Note_on_c, 3, 64, 80
4, 295895, Note_off_c, 3, 64, 0
4, 296040, Note_on_c, 3, 64, 79
4, 296135, Note_off_c, 3, 64, 0
4, 296280, Note_on_c, 3, 64, 78
4, 296375, Note_off_c, 3, 64, 0
4, 296520, Note_on_c, 3, 64, 77
4, 296615, Note_off_c, 3, 64, 0
4, 296760, Note_on_c, 3, 64, 76
4, 296855, Note_off_c, 3, 64, 0
4, 297000, Note_on_c, 3, 64, 75
4, 297095, Note_off_c, 3, 64, 0
4, 297240, Note_on_c, 3, 64, 75
4, 297335, Note_off_c, 3, 64, 0
4, 297480, Note_on_c, 3, 64, 74
4, 297575, Note_off_c, 3, 64, 0
4, 297720, Note_on_c, 3, 64, 73
4, 297815, Note_off_c, 3, 64, 0
4, 297960, Note_on_c, 3, 64, 72
4, 298055, Note_off_c, 3, 64, 0
4, 298080, Note_on_c, 3, 64, 72
4, 298235, Note_off_c, 3, 64, 0
4, 305880, Note_on_c, 3, 60, 45
4, 306000, Note_off_c, 3, 60, 0
4, 306000, Note_on_c, 3, 64, 44
4, 306120, Note_off_c, 3, 64, 0
4, 306120, Note_on_c, 3, 60, 44
4, 306240, Note_off_c, 3, 60, 0
4, 306360, Note_on_c, 3, 59, 43
4, 306480, Note_off_c, 3, 59, 0
4, 306480, Note_on_c, 3, 62, 43
4, 306600, Note_off_c, 3, 62, 0
4, 306600, Note_on_c, 3, 59, 42
4, 306720, Note_off_c, 3, 59, 0
4, 306840, Note_on_c, 3, 60, 41
4, 306960, Note_off_c, 3, 60, 0
4, 306960, Note_on_c, 3, 64, 41
4, 307080, Note_off_c, 3, 64, 0
4, 307080, Note_on_c, 3, 60, 41
4, 307200, Note_off_c, 3, 60, 0
4, 307320, Note_on_c, 3, 59, 40
4, 307440, Note_off_c, 3, 59, 0
4, 307440, Note_on_c, 3, 62, 39
4, 307560, Note_off_c, 3, 62, 0
4, 307560, Note_on_c, 3, 59, 39
4, 307680, Note_off_c, 3, 59, 0
4, 307800, Note_on_c, 3, 60, 38
4, 307920, Note_off_c, 3, 60, 0
4, 307920, Note_on_c, 3, 64, 38
4, 308040, Note_off_c, 3, 64, 0
4, 308040, Note_on_c, 3, 60, 38
4, 308160, Note_off_c, 3, 60, 0
4, 308280, Note_on_c, 3, 59, 43
4, 308400, Note_off_c, 3, 59, 0
4, 308400, Note_on_c, 3, 62, 45
4, 308520, Note_off_c, 3, 62, 0
4, 308520, Note_on_c, 3, 59, 47
4, 308640, Note_off_c, 3, 59, 0
4, 308760, Note_on_c, 3, 60, 51
4, 308880, Note_off_c, 3, 60, 0
4, 308880, Note_on_c, 3, 64, 54
4, 309000, Note_off_c, 3, 64, 0
4, 309000, Note_on_c, 3, 60, 57
4, 309120, Note_off_c, 3, 60, 0
4, 309240, Note_on_c, 3, 62, 65
4, 309360, Note_off_c, 3, 62, 0
4, 309360, Note_on_c, 3, 65, 70
4, 309480, Note_off_c, 3, 65, 0
4, 309480, Note_on_c, 3, 62, 76
4, 309600, Note_off_c, 3, 62, 0
4, 317880, Note_on_c, 3, 59, 56
4, 318000, Note_off_c, 3, 59, 0
4, 318000, Note_on_c, 3, 55, 49
4, 318120, Note_off_c, 3, 55, 0
4, 318120, Note_on_c, 3, 59, 48
4, 318240, Note_off_c, 3, 59, 0
4, 318360, Note_on_c, 3, 60, 49
4, 318480, Note_off_c, 3, 60, 0
4, 318480, Note_on_c, 3, 55, 50
4, 318600, Note_off_c, 3, 55, 0
4, 318600, Note_on_c, 3, 60, 50
4, 318720, Note_off_c, 3, 60, 0
4, 318840, Note_on_c, 3, 59, 60
4, 318960, Note_off_c, 3, 59, 0
4, 318960, Note_on_c, 3, 55, 54
4, 319080, Note_off_c, 3, 55, 0
4, 319080, Note_on_c, 3, 59, 53
4, 319200, Note_off_c, 3, 59, 0
4, 319320, Note_on_c, 3, 60, 54
4, 319440, Note_off_c, 3, 60, 0
4, 319440, Note_on_c, 3, 55, 55
4, 319560, Note_off_c, 3, 55, 0
4, 319560, Note_on_c, 3, 60, 55
4, 319680, Note_off_c, 3, 60, 0
4, 319800, Note_on_c, 3, 62, 80
4, 319920, Note_off_c, 3, 62, 0
4, 319920, Note_on_c, 3, 57, 78
4, 320040, Note_off_c, 3, 57, 0
4, 320040, Note_on_c, 3, 62, 77
4, 320160, Note_off_c, 3, 62, 0
4, 320280, Note_on_c, 3, 64, 74
4, 320400, Note_off_c, 3, 64, 0
4, 320400, Note_on_c, 3, 60, 73
4, 320520, Note_off_c, 3, 60, 0
4, 320520, Note_on_c, 3, 64, 72
4, 320640, Note_off_c, 3, 64, 0
4, 320760, Note_on_c, 3, 65, 69
4, 320880, Note_off_c, 3, 65, 0
4, 320880, Note_on_c, 3, 62, 67
4, 321000, Note_off_c, 3, 62, 0
4, 321000, Note_on_c, 3, 65, 66
4, 321120, Note_off_c, 3, 65, 0
4, 321240, Note_on_c, 3, 67, 63
4, 321360, Note_off_c, 3, 67, 0
4, 321360, Note_on_c, 3, 64, 62
4, 321480, Note_off_c, 3, 64, 0
4, 321480, Note_on_c, 3, 67, 60
4, 321600, Note_off_c, 3, 67, 0
4, 321720, Note_on_c, 3, 59, 72
4, 321840, Note_off_c, 3, 59, 0
4, 321840, Note_on_c, 3, 55, 68
4, 321960, Note_off_c, 3, 55, 0
4, 321960, Note_on_c, 3, 59, 64
4, 322080, Note_off_c, 3, 59, 0
4, 322200, Note_on_c, 3, 60, 65
4, 322320, Note_off_c, 3, 60, 0
4, 322320, Note_on_c, 3, 55, 66
4, 322440, Note_off_c, 3, 55, 0
4, 322440, Note_on_c, 3, 60, 66
4, 322560, Note_off_c, 3, 60, 0
4, 322680, Note_on_c, 3, 59, 78
4, 322800, Note_off_c, 3, 59, 0
4, 322800, Note_on_c, 3, 55, 73
4, 322920, Note_off_c, 3, 55, 0
4, 322920, Note_on_c, 3, 59, 70
4, 323040, Note_off_c, 3, 59, 0
4, 323160, Note_on_c, 3, 60, 72
4, 323280, Note_off_c, 3, 60, 0
4, 323280, Note_on_c, 3, 55, 72
4, 323400, Note_off_c, 3, 55, 0
4, 323400, Note_on_c, 3, 60, 73
4, 323520, Note_off_c, 3, 60, 0
4, 323640, Note_on_c, 3, 62, 89
4, 323760, Note_off_c, 3, 62, 0
4, 323760, Note_on_c, 3, 57, 88
4, 323880, Note_off_c, 3, 57, 0
4, 323880, Note_on_c, 3, 62, 87
4, 324000, Note_off_c, 3, 62, 0
4, 324120, Note_on_c, 3, 64, 84
4, 324240, Note_off_c, 3, 64, 0
4, 324240, Note_on_c, 3, 60, 83
4, 324360, Note_off_c, 3, 60, 0
4, 324360, Note_on_c, 3, 64, 82
4, 324480, Note_off_c, 3, 64, 0
4, 324600, Note_on_c, 3, 65, 80
4, 324720, Note_off_c, 3, 65, 0
4, 324720, Note_on_c, 3, 62, 79
4, 324840, Note_off_c, 3, 62, 0
4, 324840, Note_on_c, 3, 65, 77
4, 324960, Note_off_c, 3, 65, 0
4, 324960, End_track
5, 0, Start_track
5, 0, Title_t, "Unnamed Track"
5, 0, Control_c, 4, 0, 0
5, 0, Control_c, 4, 32, 0
5, 0, Program_c, 4, 0
5, 0, Control_c, 4, 64, 0
5, 0, Control_c, 4, 7, 120
5, 0, Pitch_bend_c, 4, 8192
5, 0, Control_c, 4, 1, 0
5, 0, Control_c, 4, 93, 19
5, 0, Control_c, 4, 91, 100
5, 0, Control_c, 4, 10, 55
5, 0, Control_c, 4, 64, 0
5, 1920, Control_c, 4, 64, 0
5, 1920, Note_on_c, 4, 60, 42
5, 1980, Control_c, 4, 64, 127
5, 2160, Note_off_c, 4, 60, 0
5, 2880, Control_c, 4, 64, 0
5, 2880, Note_on_c, 4, 60, 47
5, 2940, Control_c, 4, 64, 127
5, 3120, Note_off_c, 4, 60, 0
5, 3840, Control_c, 4, 64, 0
5, 3840, Note_on_c, 4, 62, 53
5, 3900, Control_c, 4, 64, 127
5, 4080, Note_off_c, 4, 62, 0
5, 4800, Control_c, 4, 64, 0
5, 4800, Note_on_c, 4, 60, 48
5, 4860, Control_c, 4, 64, 127
5, 5040, Note_off_c, 4, 60, 0
5, 5700, Control_c, 4, 64, 0
5, 5760, Control_c, 4, 64, 127
5, 5760, Note_on_c, 4, 60, 46
5, 6000, Note_off_c, 4, 60, 0
5, 6720, Control_c, 4, 64, 0
5, 6720, Note_on_c, 4, 60, 52
5, 6780, Control_c, 4, 64, 127
5, 6960, Note_off_c, 4, 60, 0
5, 7680, Control_c, 4, 64, 0
5, 7680, Note_on_c, 4, 59, 59
5, 7740, Control_c, 4, 64, 127
5, 7920, Note_off_c, 4, 59, 0
5, 8640, Control_c, 4, 64, 0
5, 8640, Note_on_c, 4, 60, 52
5, 8700, Control_c, 4, 64, 127
5, 8880, Note_off_c, 4, 60, 0
5, 9540, Control_c, 4, 64, 0
5, 11040, Note_on_c, 4, 60, 75
5, 11425, Note_off_c, 4, 60, 0
5, 11520, Note_on_c, 4, 60, 74
5, 11905, Note_off_c, 4, 60, 0
5, 12960, Note_on_c, 4, 60, 72
5, 13345, Note_off_c, 4, 60, 0
5, 13440, Note_on_c, 4, 60, 72
5, 13825, Note_off_c, 4, 60, 0
5, 14880, Note_on_c, 4, 59, 69
5, 15265, Note_off_c, 4, 59, 0
5, 15360, Note_on_c, 4, 60, 69
5, 15745, Note_off_c, 4, 60, 0
5, 16800, Note_on_c, 4, 52, 66
5, 17185, Note_off_c, 4, 52, 0
5, 17280, Note_on_c, 4, 57, 68
5, 19087, Note_off_c, 4, 57, 0
5, 42240, Note_on_c, 4, 60, 66
5, 42430, Note_off_c, 4, 60, 0
5, 42480, Note_on_c, 4, 60, 58
5, 42670, Note_off_c, 4, 60, 0
5, 42720, Note_on_c, 4, 60, 59
5, 42910, Note_off_c, 4, 60, 0
5, 42960, Note_on_c, 4, 60, 61
5, 43150, Note_off_c, 4, 60, 0
5, 43200, Note_on_c, 4, 60, 62
5, 43390, Note_off_c, 4, 60, 0
5, 43440, Note_on_c, 4, 60, 63
5, 43630, Note_off_c, 4, 60, 0
5, 43680, Note_on_c, 4, 60, 64
5, 43870, Note_off_c, 4, 60, 0
5, 43920, Note_on_c, 4, 60, 65
5, 44110, Note_off_c, 4, 60, 0
5, 44160, Note_on_c, 4, 60, 67
5, 44350, Note_off_c, 4, 60, 0
5, 44400, Note_on_c, 4, 60, 68
5, 44590, Note_off_c, 4, 60, 0
5, 44640, Note_on_c, 4, 60, 69
5, 44830, Note_off_c, 4, 60, 0
5, 44880, Note_on_c, 4, 60, 70
5, 45070, Note_off_c, 4, 60, 0
5, 45120, Note_on_c, 4, 60, 71
5, 45310, Note_off_c, 4, 60, 0
5, 45360, Note_on_c, 4, 60, 73
5, 45550, Note_off_c, 4, 60, 0
5, 45600, Note_on_c, 4, 60, 74
5, 45790, Note_off_c, 4, 60, 0
5, 45840, Note_on_c, 4, 60, 75
5, 46030, Note_off_c, 4, 60, 0
5, 46080, Control_c, 4, 64, 0
5, 46140, Control_c, 4, 64, 127
5, 46560, Control_c, 4, 64, 0
5, 46620, Control_c, 4, 64, 127
5, 47040, Control_c, 4, 64, 0
5, 47100, Control_c, 4, 64, 127
5, 47520, Control_c, 4, 64, 0
5, 47580, Control_c, 4, 64, 127
5, 47940, Control_c, 4, 64, 0
5, 48000, Control_c, 4, 64, 127
5, 48480, Control_c, 4, 64, 0
5, 48540, Control_c, 4, 64, 127
5, 48960, Control_c, 4, 64, 0
5, 49020, Control_c, 4, 64, 127
5, 49440, Control_c, 4, 64, 0
5, 49500, Control_c, 4, 64, 127
5, 49860, Control_c, 4, 64, 0
5, 49920, Note_on_c, 4, 71, 93
5, 50305, Note_off_c, 4, 71, 0
5, 51360, Note_on_c, 4, 72, 88
5, 51360, Note_on_c, 4, 69, 88
5, 51745, Note_off_c, 4, 69, 0
5, 51745, Note_off_c, 4, 72, 0
5, 51840, Note_on_c, 4, 71, 86
5, 52225, Note_off_c, 4, 71, 0
5, 53280, Note_on_c, 4, 60, 80
5, 53280, Note_on_c, 4, 57, 80
5, 53665, Note_off_c, 4, 57, 0
5, 53665, Note_off_c, 4, 60, 0
5, 53760, Note_on_c, 4, 59, 78
5, 54070, Note_off_c, 4, 59, 0
5, 57120, Note_on_c, 4, 72, 84
5, 57120, Note_on_c, 4, 69, 84
5, 57505, Note_off_c, 4, 69, 0
5, 57505, Note_off_c, 4, 72, 0
5, 57600, Note_on_c, 4, 70, 83
5, 57985, Note_off_c, 4, 70, 0
5, 59040, Note_on_c, 4, 60, 81
5, 59425, Note_off_c, 4, 60, 0
5, 64800, Note_on_c, 4, 64, 73
5, 64800, Note_on_c, 4, 67, 73
5, 65185, Note_off_c, 4, 64, 0
5, 65185, Note_off_c, 4, 67, 0
5, 65280, Note_on_c, 4, 65, 72
5, 65665, Note_off_c, 4, 65, 0
5, 66720, Note_on_c, 4, 52, 70
5, 66720, Note_on_c, 4, 55, 70
5, 67105, Note_off_c, 4, 55, 0
5, 67105, Note_off_c, 4, 52, 0
5, 67200, Note_on_c, 4, 53, 69
5, 67585, Note_off_c, 4, 53, 0
5, 79680, Note_on_c, 4, 58, 53
5, 79680, Note_on_c, 4, 55, 53
5, 80440, Note_off_c, 4, 55, 0
5, 80440, Note_off_c, 4, 58, 0
5, 80640, Control_c, 4, 64, 0
5, 80640, Note_on_c, 4, 65, 42
5, 80700, Control_c, 4, 64, 127
5, 80880, Note_off_c, 4, 65, 0
5, 81600, Control_c, 4, 64, 0
5, 81600, Note_on_c, 4, 65, 46
5, 81660, Control_c, 4, 64, 127
5, 81840, Note_off_c, 4, 65, 0
5, 82560, Control_c, 4, 64, 0
5, 82560, Note_on_c, 4, 67, 52
5, 82620, Control_c, 4, 64, 127
5, 82800, Note_off_c, 4, 67, 0
5, 83520, Control_c, 4, 64, 0
5, 83520, Note_on_c, 4, 65, 46
5, 83580, Control_c, 4, 64, 127
5, 83760, Note_off_c, 4, 65, 0
5, 84420, Control_c, 4, 64, 0
5, 84480, Control_c, 4, 64, 127
5, 84480, Note_on_c, 4, 65, 44
5, 84720, Note_off_c, 4, 65, 0
5, 85440, Control_c, 4, 64, 0
5, 85440, Note_on_c, 4, 65, 50
5, 85500, Control_c, 4, 64, 127
5, 85680, Note_off_c, 4, 65, 0
5, 86400, Control_c, 4, 64, 0
5, 86400, Note_on_c, 4, 64, 57
5, 86460, Control_c, 4, 64, 127
5, 86640, Note_off_c, 4, 64, 0
5, 87300, Control_c, 4, 64, 0
5, 87360, Control_c, 4, 64, 127
5, 87360, Note_on_c, 4, 65, 51
5, 87600, Note_off_c, 4, 65, 0
5, 88260, Control_c, 4, 64, 0
5, 89760, Note_on_c, 4, 65, 78
5, 90145, Note_off_c, 4, 65, 0
5, 90240, Note_on_c, 4, 65, 77
5, 90625, Note_off_c, 4, 65, 0
5, 91680, Note_on_c, 4, 65, 76
5, 92065, Note_off_c, 4, 65, 0
5, 92160, Note_on_c, 4, 65, 75
5, 92545, Note_off_c, 4, 65, 0
5, 93600, Note_on_c, 4, 64, 74
5, 93985, Note_off_c, 4, 64, 0
5, 94080, Note_on_c, 4, 65, 73
5, 94465, Note_off_c, 4, 65, 0
5, 103680, Note_on_c, 4, 57, 70
5, 105495, Note_off_c, 4, 57, 0
5, 128880, Note_on_c, 4, 65, 56
5, 129070, Note_off_c, 4, 65, 0
5, 129120, Note_on_c, 4, 65, 57
5, 129310, Note_off_c, 4, 65, 0
5, 129360, Note_on_c, 4, 65, 58
5, 129550, Note_off_c, 4, 65, 0
5, 129600, Note_on_c, 4, 65, 60
5, 129790, Note_off_c, 4, 65, 0
5, 129840, Note_on_c, 4, 65, 61
5, 130030, Note_off_c, 4, 65, 0
5, 130080, Note_on_c, 4, 65, 62
5, 130270, Note_off_c, 4, 65, 0
5, 130320, Note_on_c, 4, 65, 63
5, 130510, Note_off_c, 4, 65, 0
5, 130800, Note_on_c, 4, 54, 66
5, 130990, Note_off_c, 4, 54, 0
5, 131040, Note_on_c, 4, 54, 67
5, 131230, Note_off_c, 4, 54, 0
5, 131280, Note_on_c, 4, 54, 68
5, 131470, Note_off_c, 4, 54, 0
5, 131520, Note_on_c, 4, 54, 69
5, 131710, Note_off_c, 4, 54, 0
5, 131760, Note_on_c, 4, 54, 70
5, 131950, Note_off_c, 4, 54, 0
5, 132000, Note_on_c, 4, 54, 71
5, 132190, Note_off_c, 4, 54, 0
5, 132240, Note_on_c, 4, 54, 73
5, 132430, Note_off_c, 4, 54, 0
5, 132480, Control_c, 4, 64, 0
5, 132540, Control_c, 4, 64, 127
5, 132900, Control_c, 4, 64, 0
5, 132960, Control_c, 4, 64, 127
5, 133440, Control_c, 4, 64, 0
5, 133500, Control_c, 4, 64, 127
5, 133920, Control_c, 4, 64, 0
5, 133980, Control_c, 4, 64, 127
5, 134340, Control_c, 4, 64, 0
5, 134400, Control_c, 4, 64, 127
5, 134880, Control_c, 4, 64, 0
5, 134940, Control_c, 4, 64, 127
5, 135360, Control_c, 4, 64, 0
5, 135420, Control_c, 4, 64, 127
5, 135840, Control_c, 4, 64, 0
5, 135900, Control_c, 4, 64, 127
5, 136260, Control_c, 4, 64, 0
5, 136320, Note_on_c, 4, 64, 89
5, 136705, Note_off_c, 4, 64, 0
5, 137760, Note_on_c, 4, 65, 84
5, 137760, Note_on_c, 4, 62, 84
5, 138145, Note_off_c, 4, 62, 0
5, 138145, Note_off_c, 4, 65, 0
5, 138240, Note_on_c, 4, 64, 83
5, 138625, Note_off_c, 4, 64, 0
5, 139680, Note_on_c, 4, 50, 78
5, 139680, Note_on_c, 4, 53, 78
5, 140065, Note_off_c, 4, 53, 0
5, 140065, Note_off_c, 4, 50, 0
5, 140160, Note_on_c, 4, 52, 77
5, 140448, Note_off_c, 4, 52, 0
5, 144000, Control_c, 4, 64, 0
5, 144000, Note_on_c, 4, 55, 36
5, 144040, Control_c, 4, 64, 127
5, 144096, Note_off_c, 4, 55, 0
5, 144480, Control_c, 4, 64, 0
5, 144480, Note_on_c, 4, 55, 39
5, 144520, Control_c, 4, 64, 127
5, 144576, Note_off_c, 4, 55, 0
5, 144960, Control_c, 4, 64, 0
5, 144960, Note_on_c, 4, 57, 42
5, 145000, Control_c, 4, 64, 127
5, 145056, Note_off_c, 4, 57, 0
5, 145440, Control_c, 4, 64, 0
5, 145440, Note_on_c, 4, 55, 46
5, 145480, Control_c, 4, 64, 127
5, 145536, Note_off_c, 4, 55, 0
5, 145920, Control_c, 4, 64, 0
5, 145920, Note_on_c, 4, 55, 43
5, 145960, Control_c, 4, 64, 127
5, 146016, Note_off_c, 4, 55, 0
5, 146400, Control_c, 4, 64, 0
5, 146400, Note_on_c, 4, 55, 40
5, 146440, Control_c, 4, 64, 127
5, 146496, Note_off_c, 4, 55, 0
5, 146840, Control_c, 4, 64, 0
5, 146880, Control_c, 4, 64, 127
5, 146880, Note_on_c, 4, 55, 40
5, 146976, Note_off_c, 4, 55, 0
5, 147360, Control_c, 4, 64, 0
5, 147360, Note_on_c, 4, 55, 43
5, 147400, Control_c, 4, 64, 127
5, 147456, Note_off_c, 4, 55, 0
5, 147840, Control_c, 4, 64, 0
5, 147840, Note_on_c, 4, 55, 46
5, 147880, Control_c, 4, 64, 127
5, 147936, Note_off_c, 4, 55, 0
5, 148320, Control_c, 4, 64, 0
5, 148320, Note_on_c, 4, 55, 50
5, 148360, Control_c, 4, 64, 127
5, 148416, Note_off_c, 4, 55, 0
5, 148800, Control_c, 4, 64, 0
5, 148800, Note_on_c, 4, 55, 46
5, 148840, Control_c, 4, 64, 127
5, 148896, Note_off_c, 4, 55, 0
5, 149280, Control_c, 4, 64, 0
5, 149280, Note_on_c, 4, 55, 43
5, 149320, Control_c, 4, 64, 127
5, 149376, Note_off_c, 4, 55, 0
5, 149720, Control_c, 4, 64, 0
5, 149760, Control_c, 4, 64, 127
5, 149760, Note_on_c, 4, 57, 42
5, 149856, Note_off_c, 4, 57, 0
5, 150240, Control_c, 4, 64, 0
5, 150240, Note_on_c, 4, 57, 45
5, 150280, Control_c, 4, 64, 127
5, 150336, Note_off_c, 4, 57, 0
5, 150720, Control_c, 4, 64, 0
5, 150720, Note_on_c, 4, 57, 49
5, 150760, Control_c, 4, 64, 127
5, 150816, Note_off_c, 4, 57, 0
5, 151200, Control_c, 4, 64, 0
5, 151200, Note_on_c, 4, 55, 52
5, 151240, Control_c, 4, 64, 127
5, 151296, Note_off_c, 4, 55, 0
5, 151680, Control_c, 4, 64, 0
5, 151680, Note_on_c, 4, 52, 55
5, 151720, Control_c, 4, 64, 127
5, 151776, Note_off_c, 4, 52, 0
5, 152160, Control_c, 4, 64, 0
5, 152160, Note_on_c, 4, 47, 59
5, 152200, Control_c, 4, 64, 127
5, 152256, Note_off_c, 4, 47, 0
5, 152600, Control_c, 4, 64, 0
5, 152640, Note_on_c, 4, 48, 63
5, 153600, Note_off_c, 4, 48, 0
5, 153600, Note_on_c, 4, 52, 48
5, 154080, Note_off_c, 4, 52, 0
5, 154080, Note_on_c, 4, 50, 44
5, 155040, Note_off_c, 4, 50, 0
5, 155520, Control_c, 4, 64, 0
5, 155520, Note_on_c, 4, 55, 37
5, 155560, Control_c, 4, 64, 127
5, 155616, Note_off_c, 4, 55, 0
5, 156000, Control_c, 4, 64, 0
5, 156000, Note_on_c, 4, 55, 40
5, 156040, Control_c, 4, 64, 127
5, 156096, Note_off_c, 4, 55, 0
5, 156480, Control_c, 4, 64, 0
5, 156480, Note_on_c, 4, 57, 44
5, 156520, Control_c, 4, 64, 127
5, 156576, Note_off_c, 4, 57, 0
5, 156960, Control_c, 4, 64, 0
5, 156960, Note_on_c, 4, 55, 48
5, 157000, Control_c, 4, 64, 127
5, 157056, Note_off_c, 4, 55, 0
5, 157440, Control_c, 4, 64, 0
5, 157440, Note_on_c, 4, 55, 46
5, 157480, Control_c, 4, 64, 127
5, 157536, Note_off_c, 4, 55, 0
5, 157920, Control_c, 4, 64, 0
5, 157920, Note_on_c, 4, 55, 43
5, 157960, Control_c, 4, 64, 127
5, 158016, Note_off_c, 4, 55, 0
5, 158360, Control_c, 4, 64, 0
5, 158400, Control_c, 4, 64, 127
5, 158400, Note_on_c, 4, 55, 42
5, 158496, Note_off_c, 4, 55, 0
5, 158880, Control_c, 4, 64, 0
5, 158880, Note_on_c, 4, 55, 46
5, 158920, Control_c, 4, 64, 127
5, 158976, Note_off_c, 4, 55, 0
5, 159360, Control_c, 4, 64, 0
5, 159360, Note_on_c, 4, 55, 49
5, 159400, Control_c, 4, 64, 127
5, 159456, Note_off_c, 4, 55, 0
5, 159840, Control_c, 4, 64, 0
5, 159840, Note_on_c, 4, 55, 52
5, 159880, Control_c, 4, 64, 127
5, 159936, Note_off_c, 4, 55, 0
5, 160320, Control_c, 4, 64, 0
5, 160320, Note_on_c, 4, 55, 48
5, 160360, Control_c, 4, 64, 127
5, 160416, Note_off_c, 4, 55, 0
5, 160800, Control_c, 4, 64, 0
5, 160800, Note_on_c, 4, 55, 45
5, 160840, Control_c, 4, 64, 127
5, 160896, Note_off_c, 4, 55, 0
5, 161240, Control_c, 4, 64, 0
5, 161280, Control_c, 4, 64, 127
5, 161280, Note_on_c, 4, 57, 44
5, 161376, Note_off_c, 4, 57, 0
5, 161760, Control_c, 4, 64, 0
5, 161760, Note_on_c, 4, 57, 49
5, 161800, Control_c, 4, 64, 127
5, 161856, Note_off_c, 4, 57, 0
5, 162240, Control_c, 4, 64, 0
5, 162240, Note_on_c, 4, 57, 53
5, 162280, Control_c, 4, 64, 127
5, 162336, Note_off_c, 4, 57, 0
5, 162720, Control_c, 4, 64, 0
5, 162720, Note_on_c, 4, 55, 58
5, 162760, Control_c, 4, 64, 127
5, 162816, Note_off_c, 4, 55, 0
5, 163200, Control_c, 4, 64, 0
5, 163200, Note_on_c, 4, 52, 62
5, 163240, Control_c, 4, 64, 127
5, 163296, Note_off_c, 4, 52, 0
5, 163680, Control_c, 4, 64, 0
5, 163680, Note_on_c, 4, 47, 66
5, 163720, Control_c, 4, 64, 127
5, 163776, Note_off_c, 4, 47, 0
5, 164120, Control_c, 4, 64, 0
5, 164160, Control_c, 4, 64, 127
5, 164160, Note_on_c, 4, 48, 72
5, 164256, Note_off_c, 4, 48, 0
5, 164640, Control_c, 4, 64, 0
5, 164640, Note_on_c, 4, 50, 65
5, 164680, Control_c, 4, 64, 127
5, 164736, Note_off_c, 4, 50, 0
5, 165120, Control_c, 4, 64, 0
5, 165120, Note_on_c, 4, 50, 57
5, 165160, Control_c, 4, 64, 127
5, 165216, Note_off_c, 4, 50, 0
5, 165560, Control_c, 4, 64, 0
5, 165600, Note_on_c, 4, 55, 54
5, 166560, Note_off_c, 4, 55, 0
5, 167040, Control_c, 4, 64, 0
5, 167040, Note_on_c, 4, 62, 30
5, 167080, Control_c, 4, 64, 127
5, 167136, Note_off_c, 4, 62, 0
5, 167520, Control_c, 4, 64, 0
5, 167520, Note_on_c, 4, 62, 33
5, 167560, Control_c, 4, 64, 127
5, 167616, Note_off_c, 4, 62, 0
5, 168000, Control_c, 4, 64, 0
5, 168000, Note_on_c, 4, 62, 36
5, 168040, Control_c, 4, 64, 127
5, 168096, Note_off_c, 4, 62, 0
5, 168480, Control_c, 4, 64, 0
5, 168480, Note_on_c, 4, 64, 40
5, 168520, Control_c, 4, 64, 127
5, 168576, Note_off_c, 4, 64, 0
5, 168960, Control_c, 4, 64, 0
5, 168960, Note_on_c, 4, 64, 37
5, 169000, Control_c, 4, 64, 127
5, 169056, Note_off_c, 4, 64, 0
5, 169440, Control_c, 4, 64, 0
5, 169440, Note_on_c, 4, 64, 34
5, 169480, Control_c, 4, 64, 127
5, 169536, Note_off_c, 4, 64, 0
5, 169880, Control_c, 4, 64, 0
5, 169920, Control_c, 4, 64, 127
5, 169920, Note_on_c, 4, 61, 34
5, 170016, Note_off_c, 4, 61, 0
5, 170400, Control_c, 4, 64, 0
5, 170400, Note_on_c, 4, 61, 38
5, 170440, Control_c, 4, 64, 127
5, 170496, Note_off_c, 4, 61, 0
5, 170880, Control_c, 4, 64, 0
5, 170880, Note_on_c, 4, 61, 41
5, 170920, Control_c, 4, 64, 127
5, 170976, Note_off_c, 4, 61, 0
5, 171360, Control_c, 4, 64, 0
5, 171360, Note_on_c, 4, 62, 45
5, 171400, Control_c, 4, 64, 127
5, 171456, Note_off_c, 4, 62, 0
5, 171840, Control_c, 4, 64, 0
5, 171840, Note_on_c, 4, 61, 39
5, 171880, Control_c, 4, 64, 127
5, 171936, Note_off_c, 4, 61, 0
5, 172080, Control_c, 4, 64, 0
5, 172120, Control_c, 4, 64, 127
5, 172320, Control_c, 4, 64, 0
5, 172320, Note_on_c, 4, 59, 47
5, 172360, Control_c, 4, 64, 127
5, 172416, Note_off_c, 4, 59, 0
5, 172560, Control_c, 4, 64, 0
5, 172600, Control_c, 4, 64, 127
5, 172760, Control_c, 4, 64, 0
5, 172800, Control_c, 4, 64, 127
5, 172800, Note_on_c, 4, 57, 59
5, 172896, Note_off_c, 4, 57, 0
5, 173280, Control_c, 4, 64, 0
5, 173280, Note_on_c, 4, 55, 54
5, 173320, Control_c, 4, 64, 127
5, 173376, Note_off_c, 4, 55, 0
5, 173760, Control_c, 4, 64, 0
5, 173760, Note_on_c, 4, 54, 50
5, 173800, Control_c, 4, 64, 127
5, 173856, Note_off_c, 4, 54, 0
5, 174200, Control_c, 4, 64, 0
5, 174240, Control_c, 4, 64, 127
5, 174240, Note_on_c, 4, 59, 51
5, 174336, Note_off_c, 4, 59, 0
5, 174720, Control_c, 4, 64, 0
5, 174720, Note_on_c, 4, 55, 47
5, 174760, Control_c, 4, 64, 127
5, 174816, Note_off_c, 4, 55, 0
5, 175200, Control_c, 4, 64, 0
5, 175200, Note_on_c, 4, 54, 43
5, 175240, Control_c, 4, 64, 127
5, 175296, Note_off_c, 4, 54, 0
5, 175640, Control_c, 4, 64, 0
5, 175680, Control_c, 4, 64, 127
5, 175680, Note_on_c, 4, 57, 45
5, 175776, Note_off_c, 4, 57, 0
5, 176160, Control_c, 4, 64, 0
5, 176160, Note_on_c, 4, 57, 41
5, 176200, Control_c, 4, 64, 127
5, 176256, Note_off_c, 4, 57, 0
5, 176640, Control_c, 4, 64, 0
5, 176640, Note_on_c, 4, 57, 37
5, 176680, Control_c, 4, 64, 127
5, 176736, Note_off_c, 4, 57, 0
5, 177080, Control_c, 4, 64, 0
5, 177120, Note_on_c, 4, 62, 36
5, 178080, Note_off_c, 4, 62, 0
5, 178560, Control_c, 4, 64, 0
5, 178560, Note_on_c, 4, 55, 36
5, 178600, Control_c, 4, 64, 127
5, 178656, Note_off_c, 4, 55, 0
5, 179040, Control_c, 4, 64, 0
5, 179040, Note_on_c, 4, 55, 39
5, 179080, Control_c, 4, 64, 127
5, 179136, Note_off_c, 4, 55, 0
5, 179520, Control_c, 4, 64, 0
5, 179520, Note_on_c, 4, 57, 43
5, 179560, Control_c, 4, 64, 127
5, 179616, Note_off_c, 4, 57, 0
5, 180000, Control_c, 4, 64, 0
5, 180000, Note_on_c, 4, 55, 46
5, 180040, Control_c, 4, 64, 127
5, 180096, Note_off_c, 4, 55, 0
5, 180480, Control_c, 4, 64, 0
5, 180480, Note_on_c, 4, 55, 42
5, 180520, Control_c, 4, 64, 127
5, 180576, Note_off_c, 4, 55, 0
5, 180960, Control_c, 4, 64, 0
5, 180960, Note_on_c, 4, 55, 38
5, 181000, Control_c, 4, 64, 127
5, 181056, Note_off_c, 4, 55, 0
5, 181400, Control_c, 4, 64, 0
5, 181440, Control_c, 4, 64, 127
5, 181440, Note_on_c, 4, 55, 40
5, 181536, Note_off_c, 4, 55, 0
5, 181920, Control_c, 4, 64, 0
5, 181920, Note_on_c, 4, 55, 43
5, 181960, Control_c, 4, 64, 127
5, 182016, Note_off_c, 4, 55, 0
5, 182400, Control_c, 4, 64, 0
5, 182400, Note_on_c, 4, 55, 46
5, 182440, Control_c, 4, 64, 127
5, 182496, Note_off_c, 4, 55, 0
5, 182880, Control_c, 4, 64, 0
5, 182880, Note_on_c, 4, 55, 50
5, 182920, Control_c, 4, 64, 127
5, 182976, Note_off_c, 4, 55, 0
5, 183360, Control_c, 4, 64, 0
5, 183360, Note_on_c, 4, 55, 48
5, 183400, Control_c, 4, 64, 127
5, 183456, Note_off_c, 4, 55, 0
5, 183840, Control_c, 4, 64, 0
5, 183840, Note_on_c, 4, 55, 45
5, 183880, Control_c, 4, 64, 127
5, 183936, Note_off_c, 4, 55, 0
5, 184280, Control_c, 4, 64, 0
5, 184320, Control_c, 4, 64, 127
5, 184320, Note_on_c, 4, 57, 44
5, 184416, Note_off_c, 4, 57, 0
5, 184800, Control_c, 4, 64, 0
5, 184800, Note_on_c, 4, 57, 47
5, 184840, Control_c, 4, 64, 127
5, 184896, Note_off_c, 4, 57, 0
5, 185280, Control_c, 4, 64, 0
5, 185280, Note_on_c, 4, 57, 51
5, 185320, Control_c, 4, 64, 127
5, 185376, Note_off_c, 4, 57, 0
5, 185760, Control_c, 4, 64, 0
5, 185760, Note_on_c, 4, 55, 54
5, 185800, Control_c, 4, 64, 127
5, 185856, Note_off_c, 4, 55, 0
5, 186240, Control_c, 4, 64, 0
5, 186240, Note_on_c, 4, 52, 57
5, 186280, Control_c, 4, 64, 127
5, 186336, Note_off_c, 4, 52, 0
5, 186720, Control_c, 4, 64, 0
5, 186720, Note_on_c, 4, 47, 60
5, 186760, Control_c, 4, 64, 127
5, 186816, Note_off_c, 4, 47, 0
5, 187160, Control_c, 4, 64, 0
5, 187200, Control_c, 4, 64, 127
5, 187200, Note_on_c, 4, 48, 66
5, 187296, Note_off_c, 4, 48, 0
5, 187680, Control_c, 4, 64, 0
5, 187680, Note_on_c, 4, 50, 56
5, 187720, Control_c, 4, 64, 127
5, 187776, Note_off_c, 4, 50, 0
5, 188160, Control_c, 4, 64, 0
5, 188160, Note_on_c, 4, 50, 49
5, 188200, Control_c, 4, 64, 127
5, 188256, Note_off_c, 4, 50, 0
5, 188600, Control_c, 4, 64, 0
5, 188640, Note_on_c, 4, 55, 44
5, 189600, Note_off_c, 4, 55, 0
5, 190080, Control_c, 4, 64, 0
5, 190080, Note_on_c, 4, 55, 34
5, 190120, Control_c, 4, 64, 127
5, 190176, Note_off_c, 4, 55, 0
5, 190560, Control_c, 4, 64, 0
5, 190560, Note_on_c, 4, 55, 37
5, 190600, Control_c, 4, 64, 127
5, 190656, Note_off_c, 4, 55, 0
5, 191040, Control_c, 4, 64, 0
5, 191040, Note_on_c, 4, 57, 41
5, 191080, Control_c, 4, 64, 127
5, 191136, Note_off_c, 4, 57, 0
5, 191520, Control_c, 4, 64, 0
5, 191520, Note_on_c, 4, 55, 43
5, 191560, Control_c, 4, 64, 127
5, 191616, Note_off_c, 4, 55, 0
5, 192000, Control_c, 4, 64, 0
5, 192000, Note_on_c, 4, 55, 40
5, 192040, Control_c, 4, 64, 127
5, 192096, Note_off_c, 4, 55, 0
5, 192480, Control_c, 4, 64, 0
5, 192480, Note_on_c, 4, 55, 36
5, 192520, Control_c, 4, 64, 127
5, 192576, Note_off_c, 4, 55, 0
5, 192920, Control_c, 4, 64, 0
5, 192960, Control_c, 4, 64, 127
5, 192960, Note_on_c, 4, 54, 36
5, 193056, Note_off_c, 4, 54, 0
5, 193440, Control_c, 4, 64, 0
5, 193440, Note_on_c, 4, 54, 39
5, 193480, Control_c, 4, 64, 127
5, 193536, Note_off_c, 4, 54, 0
5, 193920, Control_c, 4, 64, 0
5, 193920, Note_on_c, 4, 50, 42
5, 193960, Control_c, 4, 64, 127
5, 194016, Note_off_c, 4, 50, 0
5, 194400, Control_c, 4, 64, 0
5, 194400, Note_on_c, 4, 55, 47
5, 194440, Control_c, 4, 64, 127
5, 194496, Note_off_c, 4, 55, 0
5, 194880, Control_c, 4, 64, 0
5, 194880, Note_on_c, 4, 55, 40
5, 194920, Control_c, 4, 64, 127
5, 194976, Note_off_c, 4, 55, 0
5, 195360, Control_c, 4, 64, 0
5, 195360, Note_on_c, 4, 55, 48
5, 195400, Control_c, 4, 64, 127
5, 195456, Note_off_c, 4, 55, 0
5, 195800, Control_c, 4, 64, 0
5, 195840, Control_c, 4, 64, 127
5, 195840, Note_on_c, 4, 57, 59
5, 195936, Note_off_c, 4, 57, 0
5, 196320, Control_c, 4, 64, 0
5, 196320, Note_on_c, 4, 57, 55
5, 196360, Control_c, 4, 64, 127
5, 196416, Note_off_c, 4, 57, 0
5, 196800, Control_c, 4, 64, 0
5, 196800, Note_on_c, 4, 57, 51
5, 196840, Control_c, 4, 64, 127
5, 196896, Note_off_c, 4, 57, 0
5, 197240, Control_c, 4, 64, 0
5, 197280, Control_c, 4, 64, 127
5, 197280, Note_on_c, 4, 58, 54
5, 197376, Note_off_c, 4, 58, 0
5, 197760, Control_c, 4, 64, 0
5, 197760, Note_on_c, 4, 55, 48
5, 197800, Control_c, 4, 64, 127
5, 197856, Note_off_c, 4, 55, 0
5, 198240, Control_c, 4, 64, 0
5, 198240, Note_on_c, 4, 50, 44
5, 198280, Control_c, 4, 64, 127
5, 198336, Note_off_c, 4, 50, 0
5, 198680, Control_c, 4, 64, 0
5, 198720, Control_c, 4, 64, 127
5, 198720, Note_on_c, 4, 51, 44
5, 198816, Note_off_c, 4, 51, 0
5, 199200, Control_c, 4, 64, 0
5, 199200, Note_on_c, 4, 53, 40
5, 199240, Control_c, 4, 64, 127
5, 199296, Note_off_c, 4, 53, 0
5, 199680, Control_c, 4, 64, 0
5, 199680, Note_on_c, 4, 53, 36
5, 199720, Control_c, 4, 64, 127
5, 199776, Note_off_c, 4, 53, 0
5, 200120, Control_c, 4, 64, 0
5, 200160, Note_on_c, 4, 58, 37
5, 201120, Note_off_c, 4, 58, 0
5, 201600, Control_c, 4, 64, 0
5, 201600, Note_on_c, 4, 56, 40
5, 201640, Control_c, 4, 64, 127
5, 201696, Note_off_c, 4, 56, 0
5, 202080, Control_c, 4, 64, 0
5, 202080, Note_on_c, 4, 55, 44
5, 202120, Control_c, 4, 64, 127
5, 202176, Note_off_c, 4, 55, 0
5, 202560, Control_c, 4, 64, 0
5, 202560, Note_on_c, 4, 53, 48
5, 202600, Control_c, 4, 64, 127
5, 202656, Note_off_c, 4, 53, 0
5, 203040, Control_c, 4, 64, 0
5, 203040, Note_on_c, 4, 51, 53
5, 203080, Control_c, 4, 64, 127
5, 203136, Note_off_c, 4, 51, 0
5, 203520, Control_c, 4, 64, 0
5, 203520, Note_on_c, 4, 50, 46
5, 203560, Control_c, 4, 64, 127
5, 203616, Note_off_c, 4, 50, 0
5, 204000, Control_c, 4, 64, 0
5, 204000, Note_on_c, 4, 48, 50
5, 204040, Control_c, 4, 64, 127
5, 204096, Note_off_c, 4, 48, 0
5, 204440, Control_c, 4, 64, 0
5, 204480, Control_c, 4, 64, 127
5, 204480, Note_on_c, 4, 49, 54
5, 204576, Note_off_c, 4, 49, 0
5, 204960, Control_c, 4, 64, 0
5, 204960, Note_on_c, 4, 50, 58
5, 205000, Control_c, 4, 64, 127
5, 205056, Note_off_c, 4, 50, 0
5, 205440, Control_c, 4, 64, 0
5, 205440, Note_on_c, 4, 51, 63
5, 205480, Control_c, 4, 64, 127
5, 205536, Note_off_c, 4, 51, 0
5, 205920, Control_c, 4, 64, 0
5, 205920, Note_on_c, 4, 50, 69
5, 205960, Control_c, 4, 64, 127
5, 206016, Note_off_c, 4, 50, 0
5, 206400, Control_c, 4, 64, 0
5, 206400, Note_on_c, 4, 50, 58
5, 206440, Control_c, 4, 64, 127
5, 206496, Note_off_c, 4, 50, 0
5, 206880, Control_c, 4, 64, 0
5, 206880, Note_on_c, 4, 50, 62
5, 206920, Control_c, 4, 64, 127
5, 206976, Note_off_c, 4, 50, 0
5, 207320, Control_c, 4, 64, 0
5, 207360, Control_c, 4, 64, 127
5, 207360, Note_on_c, 4, 48, 67
5, 207456, Note_off_c, 4, 48, 0
5, 207840, Control_c, 4, 64, 0
5, 207840, Note_on_c, 4, 48, 71
5, 207880, Control_c, 4, 64, 127
5, 207936, Note_off_c, 4, 48, 0
5, 208320, Control_c, 4, 64, 0
5, 208320, Note_on_c, 4, 48, 75
5, 208360, Control_c, 4, 64, 127
5, 208416, Note_off_c, 4, 48, 0
5, 208760, Control_c, 4, 64, 0
5, 208800, Control_c, 4, 64, 127
5, 208800, Note_on_c, 4, 46, 81
5, 208896, Note_off_c, 4, 46, 0
5, 209280, Control_c, 4, 64, 0
5, 209280, Note_on_c, 4, 46, 74
5, 209320, Control_c, 4, 64, 127
5, 209376, Note_off_c, 4, 46, 0
5, 209760, Control_c, 4, 64, 0
5, 209760, Note_on_c, 4, 46, 67
5, 209800, Control_c, 4, 64, 127
5, 209856, Note_off_c, 4, 46, 0
5, 210200, Control_c, 4, 64, 0
5, 210240, Control_c, 4, 64, 127
5, 210240, Note_on_c, 4, 48, 60
5, 210336, Note_off_c, 4, 48, 0
5, 210720, Control_c, 4, 64, 0
5, 210720, Note_on_c, 4, 50, 54
5, 210760, Control_c, 4, 64, 127
5, 210816, Note_off_c, 4, 50, 0
5, 211200, Control_c, 4, 64, 0
5, 211200, Note_on_c, 4, 50, 47
5, 211240, Control_c, 4, 64, 127
5, 211296, Note_off_c, 4, 50, 0
5, 211640, Control_c, 4, 64, 0
5, 211680, Note_on_c, 4, 55, 46
5, 212640, Note_off_c, 4, 55, 0
5, 213120, Control_c, 4, 64, 0
5, 213120, Note_on_c, 4, 55, 31
5, 213160, Control_c, 4, 64, 127
5, 213216, Note_off_c, 4, 55, 0
5, 213600, Control_c, 4, 64, 0
5, 213600, Note_on_c, 4, 55, 34
5, 213640, Control_c, 4, 64, 127
5, 213696, Note_off_c, 4, 55, 0
5, 214080, Control_c, 4, 64, 0
5, 214080, Note_on_c, 4, 57, 38
5, 214120, Control_c, 4, 64, 127
5, 214176, Note_off_c, 4, 57, 0
5, 214560, Control_c, 4, 64, 0
5, 214560, Note_on_c, 4, 55, 42
5, 214600, Control_c, 4, 64, 127
5, 214656, Note_off_c, 4, 55, 0
5, 215040, Control_c, 4, 64, 0
5, 215040, Note_on_c, 4, 55, 40
5, 215080, Control_c, 4, 64, 127
5, 215136, Note_off_c, 4, 55, 0
5, 215520, Control_c, 4, 64, 0
5, 215520, Note_on_c, 4, 55, 37
5, 215560, Control_c, 4, 64, 127
5, 215616, Note_off_c, 4, 55, 0
5, 215960, Control_c, 4, 64, 0
5, 216000, Control_c, 4, 64, 127
5, 216000, Note_on_c, 4, 55, 36
5, 216096, Note_off_c, 4, 55, 0
5, 216480, Control_c, 4, 64, 0
5, 216480, Note_on_c, 4, 55, 40
5, 216520, Control_c, 4, 64, 127
5, 216576, Note_off_c, 4, 55, 0
5, 216960, Control_c, 4, 64, 0
5, 216960, Note_on_c, 4, 55, 43
5, 217000, Control_c, 4, 64, 127
5, 217056, Note_off_c, 4, 55, 0
5, 217440, Control_c, 4, 64, 0
5, 217440, Note_on_c, 4, 55, 49
5, 217480, Control_c, 4, 64, 127
5, 217536, Note_off_c, 4, 55, 0
5, 217920, Control_c, 4, 64, 0
5, 217920, Note_on_c, 4, 55, 43
5, 217960, Control_c, 4, 64, 127
5, 218016, Note_off_c, 4, 55, 0
5, 218400, Control_c, 4, 64, 0
5, 218400, Note_on_c, 4, 55, 39
5, 218440, Control_c, 4, 64, 127
5, 218496, Note_off_c, 4, 55, 0
5, 218840, Control_c, 4, 64, 0
5, 218880, Control_c, 4, 64, 127
5, 218880, Note_on_c, 4, 57, 40
5, 218976, Note_off_c, 4, 57, 0
5, 219360, Control_c, 4, 64, 0
5, 219360, Note_on_c, 4, 57, 43
5, 219400, Control_c, 4, 64, 127
5, 219456, Note_off_c, 4, 57, 0
5, 219840, Control_c, 4, 64, 0
5, 219840, Note_on_c, 4, 57, 45
5, 219880, Control_c, 4, 64, 127
5, 219936, Note_off_c, 4, 57, 0
5, 220320, Control_c, 4, 64, 0
5, 220320, Note_on_c, 4, 55, 48
5, 220360, Control_c, 4, 64, 127
5, 220416, Note_off_c, 4, 55, 0
5, 220800, Control_c, 4, 64, 0
5, 220800, Note_on_c, 4, 52, 50
5, 220840, Control_c, 4, 64, 127
5, 220896, Note_off_c, 4, 52, 0
5, 221280, Control_c, 4, 64, 0
5, 221280, Note_on_c, 4, 47, 53
5, 221320, Control_c, 4, 64, 127
5, 221376, Note_off_c, 4, 47, 0
5, 221720, Control_c, 4, 64, 0
5, 221760, Note_on_c, 4, 48, 56
5, 222720, Note_off_c, 4, 48, 0
5, 222720, Note_on_c, 4, 52, 42
5, 223200, Note_off_c, 4, 52, 0
5, 223200, Note_on_c, 4, 50, 42
5, 224160, Note_off_c, 4, 50, 0
5, 224640, Control_c, 4, 64, 0
5, 224640, Note_on_c, 4, 55, 34
5, 224680, Control_c, 4, 64, 127
5, 224736, Note_off_c, 4, 55, 0
5, 225120, Control_c, 4, 64, 0
5, 225120, Note_on_c, 4, 55, 39
5, 225160, Control_c, 4, 64, 127
5, 225216, Note_off_c, 4, 55, 0
5, 225600, Control_c, 4, 64, 0
5, 225600, Note_on_c, 4, 57, 43
5, 225640, Control_c, 4, 64, 127
5, 225696, Note_off_c, 4, 57, 0
5, 226080, Control_c, 4, 64, 0
5, 226080, Note_on_c, 4, 55, 49
5, 226120, Control_c, 4, 64, 127
5, 226176, Note_off_c, 4, 55, 0
5, 226560, Control_c, 4, 64, 0
5, 226560, Note_on_c, 4, 55, 46
5, 226600, Control_c, 4, 64, 127
5, 226656, Note_off_c, 4, 55, 0
5, 227040, Control_c, 4, 64, 0
5, 227040, Note_on_c, 4, 55, 42
5, 227080, Control_c, 4, 64, 127
5, 227136, Note_off_c, 4, 55, 0
5, 227480, Control_c, 4, 64, 0
5, 227520, Control_c, 4, 64, 127
5, 227520, Note_on_c, 4, 55, 43
5, 227616, Note_off_c, 4, 55, 0
5, 228000, Control_c, 4, 64, 0
5, 228000, Note_on_c, 4, 55, 46
5, 228040, Control_c, 4, 64, 127
5, 228096, Note_off_c, 4, 55, 0
5, 228480, Control_c, 4, 64, 0
5, 228480, Note_on_c, 4, 55, 49
5, 228520, Control_c, 4, 64, 127
5, 228576, Note_off_c, 4, 55, 0
5, 228960, Control_c, 4, 64, 0
5, 228960, Note_on_c, 4, 55, 53
5, 229000, Control_c, 4, 64, 127
5, 229056, Note_off_c, 4, 55, 0
5, 229440, Control_c, 4, 64, 0
5, 229440, Note_on_c, 4, 55, 48
5, 229480, Control_c, 4, 64, 127
5, 229536, Note_off_c, 4, 55, 0
5, 229920, Control_c, 4, 64, 0
5, 229920, Note_on_c, 4, 55, 45
5, 229960, Control_c, 4, 64, 127
5, 230016, Note_off_c, 4, 55, 0
5, 230360, Control_c, 4, 64, 0
5, 230400, Control_c, 4, 64, 127
5, 230400, Note_on_c, 4, 57, 44
5, 230496, Note_off_c, 4, 57, 0
5, 230880, Control_c, 4, 64, 0
5, 230880, Note_on_c, 4, 57, 48
5, 230920, Control_c, 4, 64, 127
5, 230976, Note_off_c, 4, 57, 0
5, 231360, Control_c, 4, 64, 0
5, 231360, Note_on_c, 4, 57, 51
5, 231400, Control_c, 4, 64, 127
5, 231456, Note_off_c, 4, 57, 0
5, 231840, Control_c, 4, 64, 0
5, 231840, Note_on_c, 4, 55, 55
5, 231880, Control_c, 4, 64, 127
5, 231936, Note_off_c, 4, 55, 0
5, 232320, Control_c, 4, 64, 0
5, 232320, Note_on_c, 4, 52, 58
5, 232360, Control_c, 4, 64, 127
5, 232416, Note_off_c, 4, 52, 0
5, 232800, Control_c, 4, 64, 0
5, 232800, Note_on_c, 4, 47, 61
5, 232840, Control_c, 4, 64, 127
5, 232896, Note_off_c, 4, 47, 0
5, 233240, Control_c, 4, 64, 0
5, 233280, Control_c, 4, 64, 127
5, 233280, Note_on_c, 4, 48, 66
5, 233376, Note_off_c, 4, 48, 0
5, 233760, Control_c, 4, 64, 0
5, 233760, Note_on_c, 4, 50, 56
5, 233800, Control_c, 4, 64, 127
5, 233856, Note_off_c, 4, 50, 0
5, 234240, Control_c, 4, 64, 0
5, 234240, Note_on_c, 4, 50, 48
5, 234280, Control_c, 4, 64, 127
5, 234336, Note_off_c, 4, 50, 0
5, 234680, Control_c, 4, 64, 0
5, 234720, Note_on_c, 4, 55, 42
5, 235200, Note_off_c, 4, 55, 0
5, 236160, Control_c, 4, 64, 0
5, 236160, Note_on_c, 4, 57, 49
5, 236200, Control_c, 4, 64, 127
5, 236256, Note_off_c, 4, 57, 0
5, 236640, Control_c, 4, 64, 0
5, 236640, Note_on_c, 4, 57, 51
5, 236680, Control_c, 4, 64, 127
5, 236736, Note_off_c, 4, 57, 0
5, 237120, Control_c, 4, 64, 0
5, 237120, Note_on_c, 4, 59, 54
5, 237160, Control_c, 4, 64, 127
5, 237216, Note_off_c, 4, 59, 0
5, 237600, Control_c, 4, 64, 0
5, 237600, Note_on_c, 4, 60, 56
5, 237640, Control_c, 4, 64, 127
5, 237696, Note_off_c, 4, 60, 0
5, 238080, Control_c, 4, 64, 0
5, 238080, Note_on_c, 4, 60, 59
5, 238120, Control_c, 4, 64, 127
5, 238176, Note_off_c, 4, 60, 0
5, 238560, Control_c, 4, 64, 0
5, 238560, Note_on_c, 4, 60, 61
5, 238600, Control_c, 4, 64, 127
5, 238656, Note_off_c, 4, 60, 0
5, 239000, Control_c, 4, 64, 0
5, 239040, Control_c, 4, 64, 127
5, 239040, Note_on_c, 4, 59, 63
5, 239136, Note_off_c, 4, 59, 0
5, 239520, Control_c, 4, 64, 0
5, 239520, Note_on_c, 4, 50, 56
5, 239560, Control_c, 4, 64, 127
5, 239616, Note_off_c, 4, 50, 0
5, 240000, Control_c, 4, 64, 0
5, 240000, Note_on_c, 4, 50, 50
5, 240040, Control_c, 4, 64, 127
5, 240096, Note_off_c, 4, 50, 0
5, 240440, Control_c, 4, 64, 0
5, 240480, Note_on_c, 4, 55, 46
5, 240960, Note_off_c, 4, 55, 0
5, 241920, Control_c, 4, 64, 0
5, 241920, Note_on_c, 4, 45, 56
5, 241960, Control_c, 4, 64, 127
5, 242016, Note_off_c, 4, 45, 0
5, 242400, Control_c, 4, 64, 0
5, 242400, Note_on_c, 4, 47, 60
5, 242440, Control_c, 4, 64, 127
5, 242496, Note_off_c, 4, 47, 0
5, 242880, Control_c, 4, 64, 0
5, 242880, Note_on_c, 4, 43, 63
5, 242920, Control_c, 4, 64, 127
5, 242976, Note_off_c, 4, 43, 0
5, 243360, Control_c, 4, 64, 0
5, 243360, Note_on_c, 4, 48, 67
5, 243400, Control_c, 4, 64, 127
5, 243456, Note_off_c, 4, 48, 0
5, 243840, Control_c, 4, 64, 0
5, 243840, Note_on_c, 4, 48, 70
5, 243880, Control_c, 4, 64, 127
5, 243936, Note_off_c, 4, 48, 0
5, 244320, Control_c, 4, 64, 0
5, 244320, Note_on_c, 4, 49, 74
5, 244360, Control_c, 4, 64, 127
5, 244416, Note_off_c, 4, 49, 0
5, 244760, Control_c, 4, 64, 0
5, 244800, Control_c, 4, 64, 127
5, 244800, Note_on_c, 4, 50, 77
5, 244896, Note_off_c, 4, 50, 0
5, 245280, Control_c, 4, 64, 0
5, 245280, Note_on_c, 4, 50, 71
5, 245320, Control_c, 4, 64, 127
5, 245376, Note_off_c, 4, 50, 0
5, 245760, Control_c, 4, 64, 0
5, 245760, Note_on_c, 4, 50, 66
5, 245800, Control_c, 4, 64, 127
5, 245856, Note_off_c, 4, 50, 0
5, 246240, Control_c, 4, 64, 0
5, 246240, Note_on_c, 4, 55, 61
5, 246667, Note_off_c, 4, 55, 0
5, 247440, Note_on_c, 4, 50, 48
5, 247680, Note_off_c, 4, 50, 0
5, 247680, Note_on_c, 4, 55, 46
5, 248100, Note_off_c, 4, 55, 0
5, 248880, Note_on_c, 4, 50, 33
5, 249120, Note_off_c, 4, 50, 0
5, 249120, Note_on_c, 4, 55, 33
5, 249360, Note_off_c, 4, 55, 0
5, 249600, Note_on_c, 4, 43, 25
5, 249840, Note_off_c, 4, 43, 0
5, 252480, Control_c, 4, 64, 0
5, 252960, Note_on_c, 4, 60, 76
5, 253104, Note_off_c, 4, 60, 0
5, 253200, Note_on_c, 4, 60, 76
5, 253344, Note_off_c, 4, 60, 0
5, 253440, Note_on_c, 4, 57, 76
5, 253584, Note_off_c, 4, 57, 0
5, 253920, Note_on_c, 4, 59, 75
5, 254064, Note_off_c, 4, 59, 0
5, 254160, Note_on_c, 4, 59, 74
5, 254304, Note_off_c, 4, 59, 0
5, 254400, Note_on_c, 4, 55, 74
5, 254544, Note_off_c, 4, 55, 0
5, 256800, Note_on_c, 4, 60, 69
5, 256944, Note_off_c, 4, 60, 0
5, 257040, Note_on_c, 4, 60, 69
5, 257184, Note_off_c, 4, 60, 0
5, 257280, Note_on_c, 4, 53, 68
5, 257424, Note_off_c, 4, 53, 0
5, 257760, Note_on_c, 4, 59, 67
5, 257904, Note_off_c, 4, 59, 0
5, 258000, Note_on_c, 4, 59, 67
5, 258144, Note_off_c, 4, 59, 0
5, 258240, Note_on_c, 4, 52, 66
5, 258384, Note_off_c, 4, 52, 0
5, 258720, Note_on_c, 4, 57, 67
5, 259440, Note_off_c, 4, 57, 0
5, 259440, Note_on_c, 4, 65, 63
5, 259680, Note_off_c, 4, 65, 0
5, 259680, Note_on_c, 4, 64, 62
5, 259836, Note_off_c, 4, 64, 0
5, 260160, Control_c, 4, 64, 0
5, 260640, Note_on_c, 4, 60, 76
5, 260784, Note_off_c, 4, 60, 0
5, 260880, Note_on_c, 4, 60, 76
5, 261024, Note_off_c, 4, 60, 0
5, 261120, Note_on_c, 4, 57, 76
5, 261264, Note_off_c, 4, 57, 0
5, 261600, Note_on_c, 4, 59, 75
5, 261744, Note_off_c, 4, 59, 0
5, 261840, Note_on_c, 4, 59, 74
5, 261984, Note_off_c, 4, 59, 0
5, 262080, Note_on_c, 4, 55, 74
5, 262224, Note_off_c, 4, 55, 0
5, 264480, Note_on_c, 4, 60, 69
5, 264624, Note_off_c, 4, 60, 0
5, 264720, Note_on_c, 4, 60, 69
5, 264864, Note_off_c, 4, 60, 0
5, 264960, Note_on_c, 4, 53, 68
5, 265104, Note_off_c, 4, 53, 0
5, 265440, Note_on_c, 4, 59, 67
5, 265584, Note_off_c, 4, 59, 0
5, 265680, Note_on_c, 4, 59, 67
5, 265824, Note_off_c, 4, 59, 0
5, 265920, Note_on_c, 4, 52, 66
5, 266064, Note_off_c, 4, 52, 0
5, 266400, Note_on_c, 4, 57, 67
5, 267120, Note_off_c, 4, 57, 0
5, 267120, Note_on_c, 4, 65, 63
5, 267360, Note_off_c, 4, 65, 0
5, 267360, Note_on_c, 4, 64, 62
5, 267516, Note_off_c, 4, 64, 0
5, 267840, Control_c, 4, 64, 0
5, 272160, Note_on_c, 4, 67, 54
5, 272315, Note_off_c, 4, 67, 0
5, 272400, Note_on_c, 4, 67, 54
5, 272555, Note_off_c, 4, 67, 0
5, 272640, Note_on_c, 4, 64, 53
5, 272795, Note_off_c, 4, 64, 0
5, 273120, Note_on_c, 4, 66, 52
5, 273275, Note_off_c, 4, 66, 0
5, 273360, Note_on_c, 4, 66, 52
5, 273515, Note_off_c, 4, 66, 0
5, 273600, Note_on_c, 4, 62, 63
5, 273755, Note_off_c, 4, 62, 0
5, 274080, Note_on_c, 4, 55, 66
5, 274800, Note_off_c, 4, 55, 0
5, 274800, Note_on_c, 4, 54, 59
5, 275040, Note_off_c, 4, 54, 0
5, 276000, Note_on_c, 4, 59, 57
5, 276156, Note_off_c, 4, 59, 0
5, 276960, Note_on_c, 4, 59, 70
5, 277116, Note_off_c, 4, 59, 0
5, 279840, Note_on_c, 4, 60, 80
5, 279995, Note_off_c, 4, 60, 0
5, 280080, Note_on_c, 4, 60, 80
5, 280235, Note_off_c, 4, 60, 0
5, 280320, Note_on_c, 4, 57, 79
5, 280475, Note_off_c, 4, 57, 0
5, 280800, Note_on_c, 4, 59, 78
5, 280955, Note_off_c, 4, 59, 0
5, 281040, Note_on_c, 4, 59, 78
5, 281195, Note_off_c, 4, 59, 0
5, 281280, Note_on_c, 4, 55, 77
5, 281435, Note_off_c, 4, 55, 0
5, 283680, Note_on_c, 4, 60, 72
5, 283835, Note_off_c, 4, 60, 0
5, 283920, Note_on_c, 4, 60, 72
5, 284075, Note_off_c, 4, 60, 0
5, 284160, Note_on_c, 4, 53, 71
5, 284315, Note_off_c, 4, 53, 0
5, 284640, Note_on_c, 4, 59, 70
5, 284795, Note_off_c, 4, 59, 0
5, 284880, Note_on_c, 4, 59, 70
5, 285035, Note_off_c, 4, 59, 0
5, 285120, Note_on_c, 4, 52, 69
5, 285275, Note_off_c, 4, 52, 0
5, 285600, Note_on_c, 4, 57, 73
5, 286320, Note_off_c, 4, 57, 0
5, 286320, Note_on_c, 4, 65, 68
5, 286476, Note_off_c, 4, 65, 0
5, 286560, Note_on_c, 4, 64, 66
5, 286715, Note_off_c, 4, 64, 0
5, 287040, Note_on_c, 4, 64, 44
5, 287195, Note_off_c, 4, 64, 0
5, 287280, Note_on_c, 4, 64, 45
5, 287435, Note_off_c, 4, 64, 0
5, 287520, Note_on_c, 4, 60, 47
5, 287675, Note_off_c, 4, 60, 0
5, 288000, Note_on_c, 4, 62, 49
5, 288155, Note_off_c, 4, 62, 0
5, 288240, Note_on_c, 4, 62, 50
5, 288395, Note_off_c, 4, 62, 0
5, 288480, Note_on_c, 4, 59, 51
5, 288635, Note_off_c, 4, 59, 0
5, 294480, Note_on_c, 4, 56, 84
5, 294660, Note_off_c, 4, 56, 0
5, 294720, Note_on_c, 4, 59, 83
5, 294900, Note_off_c, 4, 59, 0
5, 294960, Note_on_c, 4, 56, 82
5, 295140, Note_off_c, 4, 56, 0
5, 295440, Note_on_c, 4, 57, 81
5, 295620, Note_off_c, 4, 57, 0
5, 295680, Note_on_c, 4, 60, 80
5, 295860, Note_off_c, 4, 60, 0
5, 295920, Note_on_c, 4, 57, 79
5, 296100, Note_off_c, 4, 57, 0
5, 296400, Note_on_c, 4, 56, 77
5, 296580, Note_off_c, 4, 56, 0
5, 296640, Note_on_c, 4, 59, 77
5, 296820, Note_off_c, 4, 59, 0
5, 296880, Note_on_c, 4, 56, 76
5, 297060, Note_off_c, 4, 56, 0
5, 297360, Note_on_c, 4, 57, 74
5, 297540, Note_off_c, 4, 57, 0
5, 297600, Note_on_c, 4, 60, 73
5, 297780, Note_off_c, 4, 60, 0
5, 297840, Note_on_c, 4, 57, 73
5, 298020, Note_off_c, 4, 57, 0
5, 300480, Note_on_c, 4, 60, 63
5, 300635, Note_off_c, 4, 60, 0
5, 300720, Note_on_c, 4, 60, 63
5, 300875, Note_off_c, 4, 60, 0
5, 300960, Note_on_c, 4, 57, 65
5, 301115, Note_off_c, 4, 57, 0
5, 301440, Note_on_c, 4, 59, 60
5, 301595, Note_off_c, 4, 59, 0
5, 301680, Note_on_c, 4, 59, 59
5, 301835, Note_off_c, 4, 59, 0
5, 301920, Note_on_c, 4, 56, 58
5, 302075, Note_off_c, 4, 56, 0
5, 305280, Note_on_c, 4, 60, 54
5, 305520, Note_off_c, 4, 60, 0
5, 305520, Note_on_c, 4, 59, 47
5, 305760, Note_off_c, 4, 59, 0
5, 310560, Note_on_c, 4, 60, 82
5, 310715, Note_off_c, 4, 60, 0
5, 310800, Note_on_c, 4, 60, 82
5, 310955, Note_off_c, 4, 60, 0
5, 311040, Note_on_c, 4, 57, 81
5, 311195, Note_off_c, 4, 57, 0
5, 311520, Note_on_c, 4, 59, 80
5, 311675, Note_off_c, 4, 59, 0
5, 311760, Note_on_c, 4, 59, 79
5, 311915, Note_off_c, 4, 59, 0
5, 312000, Note_on_c, 4, 55, 79
5, 312155, Note_off_c, 4, 55, 0
5, 314400, Note_on_c, 4, 60, 73
5, 314555, Note_off_c, 4, 60, 0
5, 314640, Note_on_c, 4, 60, 73
5, 314795, Note_off_c, 4, 60, 0
5, 314880, Note_on_c, 4, 53, 72
5, 315035, Note_off_c, 4, 53, 0
5, 315360, Note_on_c, 4, 59, 71
5, 315515, Note_off_c, 4, 59, 0
5, 315600, Note_on_c, 4, 59, 70
5, 315755, Note_off_c, 4, 59, 0
5, 315840, Note_on_c, 4, 52, 70
5, 315995, Note_off_c, 4, 52, 0
5, 316320, Note_on_c, 4, 57, 73
5, 317040, Note_off_c, 4, 57, 0
5, 317040, Note_on_c, 4, 65, 68
5, 317280, Note_off_c, 4, 65, 0
5, 317280, Note_on_c, 4, 64, 66
5, 317435, Note_off_c, 4, 64, 0
5, 325080, Note_on_c, 4, 64, 76
5, 325189, Note_off_c, 4, 64, 0
5, 325320, Note_on_c, 4, 60, 79
5, 325429, Note_off_c, 4, 60, 0
5, 325560, Note_on_c, 4, 55, 82
5, 325669, Note_off_c, 4, 55, 0
5, 325800, Note_on_c, 4, 52, 86
5, 325909, Note_off_c, 4, 52, 0
5, 327000, Note_on_c, 4, 64, 84
5, 327080, Note_off_c, 4, 64, 0
5, 327240, Note_on_c, 4, 60, 87
5, 327320, Note_off_c, 4, 60, 0
5, 327480, Note_on_c, 4, 55, 91
5, 327560, Note_off_c, 4, 55, 0
5, 327720, Note_on_c, 4, 52, 94
5, 327800, Note_off_c, 4, 52, 0
5, 327800, End_track
6, 0, Start_track
6, 0, Title_t, "Unnamed Track"
6, 0, Control_c, 5, 0, 0
6, 0, Control_c, 5, 32, 0
6, 0, Program_c, 5, 0
6, 0, Control_c, 5, 64, 0
6, 0, Control_c, 5, 10, 55
6, 0, Control_c, 5, 91, 100
6, 0, Control_c, 5, 93, 19
6, 0, Control_c, 5, 1, 0
6, 0, Pitch_bend_c, 5, 8192
6, 0, Control_c, 5, 7, 125
6, 1920, Control_c, 5, 64, 0
6, 1980, Control_c, 5, 64, 127
6, 2880, Control_c, 5, 64, 0
6, 2940, Control_c, 5, 64, 127
6, 3840, Control_c, 5, 64, 0
6, 3900, Control_c, 5, 64, 127
6, 4800, Control_c, 5, 64, 0
6, 4860, Control_c, 5, 64, 127
6, 5700, Control_c, 5, 64, 0
6, 5760, Control_c, 5, 64, 127
6, 6720, Control_c, 5, 64, 0
6, 6780, Control_c, 5, 64, 127
6, 7680, Control_c, 5, 64, 0
6, 7740, Control_c, 5, 64, 127
6, 8640, Control_c, 5, 64, 0
6, 8700, Control_c, 5, 64, 127
6, 9540, Control_c, 5, 64, 0
6, 9600, Note_on_c, 5, 65, 77
6, 9985, Note_off_c, 5, 65, 0
6, 11040, Note_on_c, 5, 53, 75
6, 11425, Note_off_c, 5, 53, 0
6, 11520, Note_on_c, 5, 52, 74
6, 11905, Note_off_c, 5, 52, 0
6, 12960, Note_on_c, 5, 52, 72
6, 13345, Note_off_c, 5, 52, 0
6, 13440, Note_on_c, 5, 50, 72
6, 13825, Note_off_c, 5, 50, 0
6, 14880, Note_on_c, 5, 50, 69
6, 15265, Note_off_c, 5, 50, 0
6, 15360, Note_on_c, 5, 48, 69
6, 15745, Note_off_c, 5, 48, 0
6, 16800, Note_on_c, 5, 48, 66
6, 17185, Note_off_c, 5, 48, 0
6, 17280, Note_on_c, 5, 53, 68
6, 19080, Note_off_c, 5, 53, 0
6, 19200, Note_on_c, 5, 53, 75
6, 19775, Note_off_c, 5, 53, 0
6, 19920, Note_on_c, 5, 55, 78
6, 20110, Note_off_c, 5, 55, 0
6, 20160, Note_on_c, 5, 57, 79
6, 20735, Note_off_c, 5, 57, 0
6, 20880, Note_on_c, 5, 54, 82
6, 21070, Note_off_c, 5, 54, 0
6, 21120, Note_on_c, 5, 43, 83
6, 21300, Note_off_c, 5, 43, 0
6, 21600, Note_on_c, 5, 43, 85
6, 21780, Note_off_c, 5, 43, 0
6, 22080, Note_on_c, 5, 43, 87
6, 22260, Note_off_c, 5, 43, 0
6, 22560, Note_on_c, 5, 43, 89
6, 22740, Note_off_c, 5, 43, 0
6, 23040, Note_on_c, 5, 43, 91
6, 23350, Note_off_c, 5, 43, 0
6, 23520, Note_on_c, 5, 55, 86
6, 23830, Note_off_c, 5, 55, 0
6, 24000, Note_on_c, 5, 43, 82
6, 24367, Note_off_c, 5, 43, 0
6, 24960, Note_on_c, 5, 61, 81
6, 25055, Note_off_c, 5, 61, 0
6, 25200, Note_on_c, 5, 61, 70
6, 25295, Note_off_c, 5, 61, 0
6, 25440, Note_on_c, 5, 61, 67
6, 25535, Note_off_c, 5, 61, 0
6, 25680, Note_on_c, 5, 61, 63
6, 25775, Note_off_c, 5, 61, 0
6, 25920, Note_on_c, 5, 60, 60
6, 26015, Note_off_c, 5, 60, 0
6, 26160, Note_on_c, 5, 60, 60
6, 26255, Note_off_c, 5, 60, 0
6, 26400, Note_on_c, 5, 60, 60
6, 26495, Note_off_c, 5, 60, 0
6, 26640, Note_on_c, 5, 60, 59
6, 26735, Note_off_c, 5, 60, 0
6, 26880, Note_on_c, 5, 59, 59
6, 26975, Note_off_c, 5, 59, 0
6, 27120, Note_on_c, 5, 59, 59
6, 27215, Note_off_c, 5, 59, 0
6, 27360, Note_on_c, 5, 59, 58
6, 27455, Note_off_c, 5, 59, 0
6, 27600, Note_on_c, 5, 59, 58
6, 27695, Note_off_c, 5, 59, 0
6, 27840, Note_on_c, 5, 59, 58
6, 27935, Note_off_c, 5, 59, 0
6, 28080, Note_on_c, 5, 59, 57
6, 28175, Note_off_c, 5, 59, 0
6, 28320, Note_on_c, 5, 59, 57
6, 28415, Note_off_c, 5, 59, 0
6, 28560, Note_on_c, 5, 59, 57
6, 28655, Note_off_c, 5, 59, 0
6, 28800, Note_on_c, 5, 60, 57
6, 28895, Note_off_c, 5, 60, 0
6, 29040, Note_on_c, 5, 59, 56
6, 29135, Note_off_c, 5, 59, 0
6, 29280, Note_on_c, 5, 57, 56
6, 29375, Note_off_c, 5, 57, 0
6, 29520, Note_on_c, 5, 59, 56
6, 29615, Note_off_c, 5, 59, 0
6, 29760, Note_on_c, 5, 60, 55
6, 29855, Note_off_c, 5, 60, 0
6, 30000, Note_on_c, 5, 59, 55
6, 30095, Note_off_c, 5, 59, 0
6, 30240, Note_on_c, 5, 60, 55
6, 30335, Note_off_c, 5, 60, 0
6, 30480, Note_on_c, 5, 57, 54
6, 30575, Note_off_c, 5, 57, 0
6, 30720, Note_on_c, 5, 59, 54
6, 30815, Note_off_c, 5, 59, 0
6, 30960, Note_on_c, 5, 59, 54
6, 31055, Note_off_c, 5, 59, 0
6, 31200, Note_on_c, 5, 59, 54
6, 31295, Note_off_c, 5, 59, 0
6, 31440, Note_on_c, 5, 59, 53
6, 31535, Note_off_c, 5, 59, 0
6, 31680, Note_on_c, 5, 59, 53
6, 31775, Note_off_c, 5, 59, 0
6, 31920, Note_on_c, 5, 59, 53
6, 32015, Note_off_c, 5, 59, 0
6, 32160, Note_on_c, 5, 59, 52
6, 32255, Note_off_c, 5, 59, 0
6, 32400, Note_on_c, 5, 59, 52
6, 32495, Note_off_c, 5, 59, 0
6, 32640, Note_on_c, 5, 60, 52
6, 32735, Note_off_c, 5, 60, 0
6, 32880, Note_on_c, 5, 59, 51
6, 32975, Note_off_c, 5, 59, 0
6, 33120, Note_on_c, 5, 57, 51
6, 33215, Note_off_c, 5, 57, 0
6, 33360, Note_on_c, 5, 59, 51
6, 33455, Note_off_c, 5, 59, 0
6, 33600, Note_on_c, 5, 60, 51
6, 33695, Note_off_c, 5, 60, 0
6, 33840, Note_on_c, 5, 59, 50
6, 33935, Note_off_c, 5, 59, 0
6, 34080, Note_on_c, 5, 60, 50
6, 34175, Note_off_c, 5, 60, 0
6, 34320, Note_on_c, 5, 57, 50
6, 34415, Note_off_c, 5, 57, 0
6, 34680, Note_on_c, 5, 59, 85
6, 34775, Note_off_c, 5, 59, 0
6, 34800, Note_on_c, 5, 62, 85
6, 34895, Note_off_c, 5, 62, 0
6, 34920, Note_on_c, 5, 67, 85
6, 35015, Note_off_c, 5, 67, 0
6, 35040, Note_on_c, 5, 71, 84
6, 35400, Note_off_c, 5, 71, 0
6, 35640, Note_on_c, 5, 60, 83
6, 35735, Note_off_c, 5, 60, 0
6, 35760, Note_on_c, 5, 64, 82
6, 35855, Note_off_c, 5, 64, 0
6, 35880, Note_on_c, 5, 67, 82
6, 35975, Note_off_c, 5, 67, 0
6, 36000, Note_on_c, 5, 72, 82
6, 36367, Note_off_c, 5, 72, 0
6, 36600, Note_on_c, 5, 57, 80
6, 36695, Note_off_c, 5, 57, 0
6, 36720, Note_on_c, 5, 60, 80
6, 36815, Note_off_c, 5, 60, 0
6, 36840, Note_on_c, 5, 66, 80
6, 36935, Note_off_c, 5, 66, 0
6, 36960, Note_on_c, 5, 69, 79
6, 37327, Note_off_c, 5, 69, 0
6, 37560, Note_on_c, 5, 59, 78
6, 37655, Note_off_c, 5, 59, 0
6, 37680, Note_on_c, 5, 62, 78
6, 37775, Note_off_c, 5, 62, 0
6, 37800, Note_on_c, 5, 66, 77
6, 37895, Note_off_c, 5, 66, 0
6, 37920, Note_on_c, 5, 71, 77
6, 38287, Note_off_c, 5, 71, 0
6, 38520, Note_on_c, 5, 55, 75
6, 38615, Note_off_c, 5, 55, 0
6, 38640, Note_on_c, 5, 59, 75
6, 38735, Note_off_c, 5, 59, 0
6, 38760, Note_on_c, 5, 64, 75
6, 38855, Note_off_c, 5, 64, 0
6, 38880, Note_on_c, 5, 67, 74
6, 39240, Note_off_c, 5, 67, 0
6, 39480, Note_on_c, 5, 57, 73
6, 39575, Note_off_c, 5, 57, 0
6, 39600, Note_on_c, 5, 60, 73
6, 39695, Note_off_c, 5, 60, 0
6, 39720, Note_on_c, 5, 64, 72
6, 39815, Note_off_c, 5, 64, 0
6, 39840, Note_on_c, 5, 69, 72
6, 40207, Note_off_c, 5, 69, 0
6, 40440, Note_on_c, 5, 54, 70
6, 40535, Note_off_c, 5, 54, 0
6, 40560, Note_on_c, 5, 57, 70
6, 40655, Note_off_c, 5, 57, 0
6, 40680, Note_on_c, 5, 62, 70
6, 40775, Note_off_c, 5, 62, 0
6, 40800, Note_on_c, 5, 66, 70
6, 41167, Note_off_c, 5, 66, 0
6, 41400, Note_on_c, 5, 55, 68
6, 41495, Note_off_c, 5, 55, 0
6, 41520, Note_on_c, 5, 59, 68
6, 41615, Note_off_c, 5, 59, 0
6, 41640, Note_on_c, 5, 62, 67
6, 41735, Note_off_c, 5, 62, 0
6, 41760, Note_on_c, 5, 67, 67
6, 42127, Note_off_c, 5, 67, 0
6, 46080, Control_c, 5, 64, 0
6, 46080, Note_on_c, 5, 62, 76
6, 46140, Control_c, 5, 64, 127
6, 46175, Note_off_c, 5, 62, 0
6, 46560, Control_c, 5, 64, 0
6, 46560, Note_on_c, 5, 62, 78
6, 46620, Control_c, 5, 64, 127
6, 46655, Note_off_c, 5, 62, 0
6, 47040, Control_c, 5, 64, 0
6, 47040, Note_on_c, 5, 62, 81
6, 47100, Control_c, 5, 64, 127
6, 47135, Note_off_c, 5, 62, 0
6, 47520, Control_c, 5, 64, 0
6, 47520, Note_on_c, 5, 62, 83
6, 47580, Control_c, 5, 64, 127
6, 47615, Note_off_c, 5, 62, 0
6, 47940, Control_c, 5, 64, 0
6, 48000, Control_c, 5, 64, 127
6, 48000, Note_on_c, 5, 62, 84
6, 48095, Note_off_c, 5, 62, 0
6, 48480, Control_c, 5, 64, 0
6, 48480, Note_on_c, 5, 62, 86
6, 48540, Control_c, 5, 64, 127
6, 48575, Note_off_c, 5, 62, 0
6, 48960, Control_c, 5, 64, 0
6, 48960, Note_on_c, 5, 62, 87
6, 49020, Control_c, 5, 64, 127
6, 49055, Note_off_c, 5, 62, 0
6, 49440, Control_c, 5, 64, 0
6, 49440, Note_on_c, 5, 62, 89
6, 49500, Control_c, 5, 64, 127
6, 49535, Note_off_c, 5, 62, 0
6, 49860, Control_c, 5, 64, 0
6, 49920, Note_on_c, 5, 67, 93
6, 50305, Note_off_c, 5, 67, 0
6, 51360, Note_on_c, 5, 62, 88
6, 51745, Note_off_c, 5, 62, 0
6, 51840, Note_on_c, 5, 67, 86
6, 52225, Note_off_c, 5, 67, 0
6, 53280, Note_on_c, 5, 50, 80
6, 53665, Note_off_c, 5, 50, 0
6, 53760, Note_on_c, 5, 55, 78
6, 54070, Note_off_c, 5, 55, 0
6, 54240, Note_on_c, 5, 55, 76
6, 54240, Note_on_c, 5, 43, 76
6, 54550, Note_off_c, 5, 43, 0
6, 54550, Note_off_c, 5, 55, 0
6, 54720, Note_on_c, 5, 43, 74
6, 54720, Note_on_c, 5, 55, 74
6, 55087, Note_off_c, 5, 55, 0
6, 55087, Note_off_c, 5, 43, 0
6, 55680, Note_on_c, 5, 55, 95
6, 55680, Note_on_c, 5, 43, 95
6, 56065, Note_off_c, 5, 43, 0
6, 56065, Note_off_c, 5, 55, 0
6, 57120, Note_on_c, 5, 62, 84
6, 57505, Note_off_c, 5, 62, 0
6, 57600, Note_on_c, 5, 67, 83
6, 57985, Note_off_c, 5, 67, 0
6, 59040, Note_on_c, 5, 57, 81
6, 59425, Note_off_c, 5, 57, 0
6, 59640, Note_on_c, 5, 43, 80
6, 59735, Note_off_c, 5, 43, 0
6, 59760, Note_on_c, 5, 45, 80
6, 59855, Note_off_c, 5, 45, 0
6, 59880, Note_on_c, 5, 46, 80
6, 59975, Note_off_c, 5, 46, 0
6, 60000, Note_on_c, 5, 48, 80
6, 60095, Note_off_c, 5, 48, 0
6, 60120, Note_on_c, 5, 50, 79
6, 60215, Note_off_c, 5, 50, 0
6, 60240, Note_on_c, 5, 52, 79
6, 60335, Note_off_c, 5, 52, 0
6, 60360, Note_on_c, 5, 54, 79
6, 60455, Note_off_c, 5, 54, 0
6, 60480, Note_on_c, 5, 55, 79
6, 60840, Note_off_c, 5, 55, 0
6, 61560, Note_on_c, 5, 45, 77
6, 61655, Note_off_c, 5, 45, 0
6, 61680, Note_on_c, 5, 47, 77
6, 61775, Note_off_c, 5, 47, 0
6, 61800, Note_on_c, 5, 49, 77
6, 61895, Note_off_c, 5, 49, 0
6, 61920, Note_on_c, 5, 50, 77
6, 62015, Note_off_c, 5, 50, 0
6, 62040, Note_on_c, 5, 52, 77
6, 62135, Note_off_c, 5, 52, 0
6, 62160, Note_on_c, 5, 54, 77
6, 62255, Note_off_c, 5, 54, 0
6, 62280, Note_on_c, 5, 56, 76
6, 62375, Note_off_c, 5, 56, 0
6, 62400, Note_on_c, 5, 57, 76
6, 62760, Note_off_c, 5, 57, 0
6, 63360, Note_on_c, 5, 50, 88
6, 63360, Note_on_c, 5, 38, 88
6, 63745, Note_off_c, 5, 38, 0
6, 63745, Note_off_c, 5, 50, 0
6, 64800, Note_on_c, 5, 57, 73
6, 65185, Note_off_c, 5, 57, 0
6, 65280, Note_on_c, 5, 62, 72
6, 65665, Note_off_c, 5, 62, 0
6, 66720, Note_on_c, 5, 45, 70
6, 67105, Note_off_c, 5, 45, 0
6, 67200, Note_on_c, 5, 50, 69
6, 67585, Note_off_c, 5, 50, 0
6, 68280, Note_on_c, 5, 62, 68
6, 68375, Note_off_c, 5, 62, 0
6, 68400, Note_on_c, 5, 65, 68
6, 68495, Note_off_c, 5, 65, 0
6, 68520, Note_on_c, 5, 64, 67
6, 68615, Note_off_c, 5, 64, 0
6, 68640, Note_on_c, 5, 62, 67
6, 68735, Note_off_c, 5, 62, 0
6, 68760, Note_on_c, 5, 60, 67
6, 68855, Note_off_c, 5, 60, 0
6, 68880, Note_on_c, 5, 59, 67
6, 68975, Note_off_c, 5, 59, 0
6, 69000, Note_on_c, 5, 57, 67
6, 69095, Note_off_c, 5, 57, 0
6, 69120, Note_on_c, 5, 56, 67
6, 69487, Note_off_c, 5, 56, 0
6, 70200, Note_on_c, 5, 56, 65
6, 70295, Note_off_c, 5, 56, 0
6, 70320, Note_on_c, 5, 59, 65
6, 70415, Note_off_c, 5, 59, 0
6, 70440, Note_on_c, 5, 57, 65
6, 70535, Note_off_c, 5, 57, 0
6, 70560, Note_on_c, 5, 56, 65
6, 70655, Note_off_c, 5, 56, 0
6, 70680, Note_on_c, 5, 53, 64
6, 70775, Note_off_c, 5, 53, 0
6, 70800, Note_on_c, 5, 52, 64
6, 70895, Note_off_c, 5, 52, 0
6, 70920, Note_on_c, 5, 50, 64
6, 71015, Note_off_c, 5, 50, 0
6, 71040, Note_on_c, 5, 48, 64
6, 71400, Note_off_c, 5, 48, 0
6, 72120, Note_on_c, 5, 62, 62
6, 72215, Note_off_c, 5, 62, 0
6, 72240, Note_on_c, 5, 69, 62
6, 72335, Note_off_c, 5, 69, 0
6, 72360, Note_on_c, 5, 67, 62
6, 72455, Note_off_c, 5, 67, 0
6, 72480, Note_on_c, 5, 65, 62
6, 72575, Note_off_c, 5, 65, 0
6, 72600, Note_on_c, 5, 64, 62
6, 72695, Note_off_c, 5, 64, 0
6, 72720, Note_on_c, 5, 62, 62
6, 72815, Note_off_c, 5, 62, 0
6, 72840, Note_on_c, 5, 60, 61
6, 72935, Note_off_c, 5, 60, 0
6, 72960, Note_on_c, 5, 59, 61
6, 73320, Note_off_c, 5, 59, 0
6, 74040, Note_on_c, 5, 60, 60
6, 74135, Note_off_c, 5, 60, 0
6, 74160, Note_on_c, 5, 67, 59
6, 74255, Note_off_c, 5, 67, 0
6, 74280, Note_on_c, 5, 65, 59
6, 74375, Note_off_c, 5, 65, 0
6, 74400, Note_on_c, 5, 64, 59
6, 74495, Note_off_c, 5, 64, 0
6, 74520, Note_on_c, 5, 62, 59
6, 74615, Note_off_c, 5, 62, 0
6, 74640, Note_on_c, 5, 60, 59
6, 74735, Note_off_c, 5, 60, 0
6, 74760, Note_on_c, 5, 59, 59
6, 74855, Note_off_c, 5, 59, 0
6, 74880, Note_on_c, 5, 57, 58
6, 75240, Note_off_c, 5, 57, 0
6, 75960, Note_on_c, 5, 59, 57
6, 76055, Note_off_c, 5, 59, 0
6, 76080, Note_on_c, 5, 65, 57
6, 76175, Note_off_c, 5, 65, 0
6, 76200, Note_on_c, 5, 64, 57
6, 76295, Note_off_c, 5, 64, 0
6, 76320, Note_on_c, 5, 62, 56
6, 76415, Note_off_c, 5, 62, 0
6, 76440, Note_on_c, 5, 60, 56
6, 76535, Note_off_c, 5, 60, 0
6, 76560, Note_on_c, 5, 59, 56
6, 76655, Note_off_c, 5, 59, 0
6, 76680, Note_on_c, 5, 57, 56
6, 76775, Note_off_c, 5, 57, 0
6, 76800, Note_on_c, 5, 56, 56
6, 77160, Note_off_c, 5, 56, 0
6, 77880, Note_on_c, 5, 57, 54
6, 77975, Note_off_c, 5, 57, 0
6, 78000, Note_on_c, 5, 60, 54
6, 78095, Note_off_c, 5, 60, 0
6, 78120, Note_on_c, 5, 59, 54
6, 78215, Note_off_c, 5, 59, 0
6, 78240, Note_on_c, 5, 57, 54
6, 78335, Note_off_c, 5, 57, 0
6, 78360, Note_on_c, 5, 55, 54
6, 78455, Note_off_c, 5, 55, 0
6, 78480, Note_on_c, 5, 53, 53
6, 78575, Note_off_c, 5, 53, 0
6, 78600, Note_on_c, 5, 52, 53
6, 78695, Note_off_c, 5, 52, 0
6, 78720, Note_on_c, 5, 50, 53
6, 79480, Note_off_c, 5, 50, 0
6, 79680, Note_on_c, 5, 48, 53
6, 80440, Note_off_c, 5, 48, 0
6, 80640, Control_c, 5, 64, 0
6, 80700, Control_c, 5, 64, 127
6, 81600, Control_c, 5, 64, 0
6, 81660, Control_c, 5, 64, 127
6, 82560, Control_c, 5, 64, 0
6, 82620, Control_c, 5, 64, 127
6, 83520, Control_c, 5, 64, 0
6, 83580, Control_c, 5, 64, 127
6, 84420, Control_c, 5, 64, 0
6, 84480, Control_c, 5, 64, 127
6, 85440, Control_c, 5, 64, 0
6, 85500, Control_c, 5, 64, 127
6, 86400, Control_c, 5, 64, 0
6, 86460, Control_c, 5, 64, 127
6, 87300, Control_c, 5, 64, 0
6, 87360, Control_c, 5, 64, 127
6, 88260, Control_c, 5, 64, 0
6, 88320, Note_on_c, 5, 70, 79
6, 88705, Note_off_c, 5, 70, 0
6, 89760, Note_on_c, 5, 58, 78
6, 90145, Note_off_c, 5, 58, 0
6, 90240, Note_on_c, 5, 57, 77
6, 90625, Note_off_c, 5, 57, 0
6, 91680, Note_on_c, 5, 57, 76
6, 92065, Note_off_c, 5, 57, 0
6, 92160, Note_on_c, 5, 55, 75
6, 92545, Note_off_c, 5, 55, 0
6, 93600, Note_on_c, 5, 55, 74
6, 93985, Note_off_c, 5, 55, 0
6, 94080, Note_on_c, 5, 53, 73
6, 94465, Note_off_c, 5, 53, 0
6, 96000, Note_on_c, 5, 53, 79
6, 96190, Note_off_c, 5, 53, 0
6, 96240, Note_on_c, 5, 55, 78
6, 96335, Note_off_c, 5, 55, 0
6, 96360, Note_on_c, 5, 57, 78
6, 96455, Note_off_c, 5, 57, 0
6, 96480, Note_on_c, 5, 58, 78
6, 96575, Note_off_c, 5, 58, 0
6, 96600, Note_on_c, 5, 60, 78
6, 96695, Note_off_c, 5, 60, 0
6, 96720, Note_on_c, 5, 62, 78
6, 96815, Note_off_c, 5, 62, 0
6, 96840, Note_on_c, 5, 64, 78
6, 96935, Note_off_c, 5, 64, 0
6, 96960, Note_on_c, 5, 65, 78
6, 97055, Note_off_c, 5, 65, 0
6, 97080, Note_on_c, 5, 64, 77
6, 97175, Note_off_c, 5, 64, 0
6, 97200, Note_on_c, 5, 62, 77
6, 97295, Note_off_c, 5, 62, 0
6, 97320, Note_on_c, 5, 60, 77
6, 97415, Note_off_c, 5, 60, 0
6, 97440, Note_on_c, 5, 58, 77
6, 97535, Note_off_c, 5, 58, 0
6, 97560, Note_on_c, 5, 57, 77
6, 97655, Note_off_c, 5, 57, 0
6, 97680, Note_on_c, 5, 55, 77
6, 97775, Note_off_c, 5, 55, 0
6, 97800, Note_on_c, 5, 53, 77
6, 97895, Note_off_c, 5, 53, 0
6, 97920, Note_on_c, 5, 52, 76
6, 98110, Note_off_c, 5, 52, 0
6, 98160, Note_on_c, 5, 53, 76
6, 98255, Note_off_c, 5, 53, 0
6, 98280, Note_on_c, 5, 55, 76
6, 98375, Note_off_c, 5, 55, 0
6, 98400, Note_on_c, 5, 57, 76
6, 98495, Note_off_c, 5, 57, 0
6, 98520, Note_on_c, 5, 59, 76
6, 98615, Note_off_c, 5, 59, 0
6, 98640, Note_on_c, 5, 60, 76
6, 98735, Note_off_c, 5, 60, 0
6, 98760, Note_on_c, 5, 62, 75
6, 98855, Note_off_c, 5, 62, 0
6, 98880, Note_on_c, 5, 64, 75
6, 98975, Note_off_c, 5, 64, 0
6, 99000, Note_on_c, 5, 62, 75
6, 99095, Note_off_c, 5, 62, 0
6, 99120, Note_on_c, 5, 60, 75
6, 99215, Note_off_c, 5, 60, 0
6, 99240, Note_on_c, 5, 59, 75
6, 99335, Note_off_c, 5, 59, 0
6, 99360, Note_on_c, 5, 57, 75
6, 99455, Note_off_c, 5, 57, 0
6, 99480, Note_on_c, 5, 55, 75
6, 99575, Note_off_c, 5, 55, 0
6, 99600, Note_on_c, 5, 53, 74
6, 99695, Note_off_c, 5, 53, 0
6, 99720, Note_on_c, 5, 52, 74
6, 99815, Note_off_c, 5, 52, 0
6, 99840, Note_on_c, 5, 50, 74
6, 100030, Note_off_c, 5, 50, 0
6, 100080, Note_on_c, 5, 52, 74
6, 100175, Note_off_c, 5, 52, 0
6, 100200, Note_on_c, 5, 53, 74
6, 100295, Note_off_c, 5, 53, 0
6, 100320, Note_on_c, 5, 55, 74
6, 100415, Note_off_c, 5, 55, 0
6, 100440, Note_on_c, 5, 57, 74
6, 100535, Note_off_c, 5, 57, 0
6, 100560, Note_on_c, 5, 59, 73
6, 100655, Note_off_c, 5, 59, 0
6, 100680, Note_on_c, 5, 60, 73
6, 100775, Note_off_c, 5, 60, 0
6, 100800, Note_on_c, 5, 62, 73
6, 100895, Note_off_c, 5, 62, 0
6, 100920, Note_on_c, 5, 60, 73
6, 101015, Note_off_c, 5, 60, 0
6, 101040, Note_on_c, 5, 59, 73
6, 101135, Note_off_c, 5, 59, 0
6, 101160, Note_on_c, 5, 57, 73
6, 101255, Note_off_c, 5, 57, 0
6, 101280, Note_on_c, 5, 55, 73
6, 101375, Note_off_c, 5, 55, 0
6, 101400, Note_on_c, 5, 53, 72
6, 101495, Note_off_c, 5, 53, 0
6, 101520, Note_on_c, 5, 52, 72
6, 101615, Note_off_c, 5, 52, 0
6, 101640, Note_on_c, 5, 50, 72
6, 101735, Note_off_c, 5, 50, 0
6, 101760, Note_on_c, 5, 48, 72
6, 101950, Note_off_c, 5, 48, 0
6, 102000, Note_on_c, 5, 50, 72
6, 102095, Note_off_c, 5, 50, 0
6, 102120, Note_on_c, 5, 52, 72
6, 102215, Note_off_c, 5, 52, 0
6, 102240, Note_on_c, 5, 53, 71
6, 102335, Note_off_c, 5, 53, 0
6, 102360, Note_on_c, 5, 55, 71
6, 102455, Note_off_c, 5, 55, 0
6, 102480, Note_on_c, 5, 57, 71
6, 102575, Note_off_c, 5, 57, 0
6, 102600, Note_on_c, 5, 59, 71
6, 102695, Note_off_c, 5, 59, 0
6, 102720, Note_on_c, 5, 60, 71
6, 102815, Note_off_c, 5, 60, 0
6, 102840, Note_on_c, 5, 59, 71
6, 102935, Note_off_c, 5, 59, 0
6, 102960, Note_on_c, 5, 57, 71
6, 103055, Note_off_c, 5, 57, 0
6, 103080, Note_on_c, 5, 55, 70
6, 103175, Note_off_c, 5, 55, 0
6, 103200, Note_on_c, 5, 53, 70
6, 103295, Note_off_c, 5, 53, 0
6, 103320, Note_on_c, 5, 52, 70
6, 103415, Note_off_c, 5, 52, 0
6, 103440, Note_on_c, 5, 50, 70
6, 103535, Note_off_c, 5, 50, 0
6, 103560, Note_on_c, 5, 48, 70
6, 103655, Note_off_c, 5, 48, 0
6, 103680, Note_on_c, 5, 53, 70
6, 105480, Note_off_c, 5, 53, 0
6, 105600, Note_on_c, 5, 53, 78
6, 106175, Note_off_c, 5, 53, 0
6, 106320, Note_on_c, 5, 55, 81
6, 106510, Note_off_c, 5, 55, 0
6, 106560, Note_on_c, 5, 57, 82
6, 107135, Note_off_c, 5, 57, 0
6, 107280, Note_on_c, 5, 54, 85
6, 107470, Note_off_c, 5, 54, 0
6, 107520, Note_on_c, 5, 43, 86
6, 107700, Note_off_c, 5, 43, 0
6, 108000, Note_on_c, 5, 43, 88
6, 108180, Note_off_c, 5, 43, 0
6, 108480, Note_on_c, 5, 43, 90
6, 108660, Note_off_c, 5, 43, 0
6, 108960, Note_on_c, 5, 43, 92
6, 109140, Note_off_c, 5, 43, 0
6, 109440, Note_on_c, 5, 43, 95
6, 109750, Note_off_c, 5, 43, 0
6, 109920, Note_on_c, 5, 55, 90
6, 110230, Note_off_c, 5, 55, 0
6, 110400, Note_on_c, 5, 43, 85
6, 110760, Note_off_c, 5, 43, 0
6, 111360, Note_on_c, 5, 66, 83
6, 111455, Note_off_c, 5, 66, 0
6, 111600, Note_on_c, 5, 66, 73
6, 111695, Note_off_c, 5, 66, 0
6, 111840, Note_on_c, 5, 66, 66
6, 111935, Note_off_c, 5, 66, 0
6, 112080, Note_on_c, 5, 66, 61
6, 112175, Note_off_c, 5, 66, 0
6, 112320, Note_on_c, 5, 65, 59
6, 112415, Note_off_c, 5, 65, 0
6, 112560, Note_on_c, 5, 65, 59
6, 112655, Note_off_c, 5, 65, 0
6, 112800, Note_on_c, 5, 65, 59
6, 112895, Note_off_c, 5, 65, 0
6, 113040, Note_on_c, 5, 65, 58
6, 113135, Note_off_c, 5, 65, 0
6, 113280, Note_on_c, 5, 64, 58
6, 113375, Note_off_c, 5, 64, 0
6, 113520, Note_on_c, 5, 64, 57
6, 113615, Note_off_c, 5, 64, 0
6, 113760, Note_on_c, 5, 64, 57
6, 113855, Note_off_c, 5, 64, 0
6, 114000, Note_on_c, 5, 64, 57
6, 114095, Note_off_c, 5, 64, 0
6, 114240, Note_on_c, 5, 64, 56
6, 114335, Note_off_c, 5, 64, 0
6, 114480, Note_on_c, 5, 64, 56
6, 114575, Note_off_c, 5, 64, 0
6, 114720, Note_on_c, 5, 64, 56
6, 114815, Note_off_c, 5, 64, 0
6, 114960, Note_on_c, 5, 64, 55
6, 115055, Note_off_c, 5, 64, 0
6, 115200, Note_on_c, 5, 65, 55
6, 115295, Note_off_c, 5, 65, 0
6, 115440, Note_on_c, 5, 64, 54
6, 115535, Note_off_c, 5, 64, 0
6, 115680, Note_on_c, 5, 62, 54
6, 115775, Note_off_c, 5, 62, 0
6, 115920, Note_on_c, 5, 64, 54
6, 116015, Note_off_c, 5, 64, 0
6, 116160, Note_on_c, 5, 65, 53
6, 116255, Note_off_c, 5, 65, 0
6, 116400, Note_on_c, 5, 64, 53
6, 116495, Note_off_c, 5, 64, 0
6, 116640, Note_on_c, 5, 65, 52
6, 116735, Note_off_c, 5, 65, 0
6, 116880, Note_on_c, 5, 62, 52
6, 116975, Note_off_c, 5, 62, 0
6, 117120, Note_on_c, 5, 64, 52
6, 117215, Note_off_c, 5, 64, 0
6, 117360, Note_on_c, 5, 64, 51
6, 117455, Note_off_c, 5, 64, 0
6, 117600, Note_on_c, 5, 64, 51
6, 117695, Note_off_c, 5, 64, 0
6, 117840, Note_on_c, 5, 64, 50
6, 117935, Note_off_c, 5, 64, 0
6, 118080, Note_on_c, 5, 64, 50
6, 118175, Note_off_c, 5, 64, 0
6, 118320, Note_on_c, 5, 64, 50
6, 118415, Note_off_c, 5, 64, 0
6, 118560, Note_on_c, 5, 64, 49
6, 118655, Note_off_c, 5, 64, 0
6, 118800, Note_on_c, 5, 64, 49
6, 118895, Note_off_c, 5, 64, 0
6, 119040, Note_on_c, 5, 65, 49
6, 119135, Note_off_c, 5, 65, 0
6, 119280, Note_on_c, 5, 64, 48
6, 119375, Note_off_c, 5, 64, 0
6, 119520, Note_on_c, 5, 62, 48
6, 119615, Note_off_c, 5, 62, 0
6, 119760, Note_on_c, 5, 64, 47
6, 119855, Note_off_c, 5, 64, 0
6, 120000, Note_on_c, 5, 65, 47
6, 120095, Note_off_c, 5, 65, 0
6, 120240, Note_on_c, 5, 64, 47
6, 120335, Note_off_c, 5, 64, 0
6, 120480, Note_on_c, 5, 65, 46
6, 120575, Note_off_c, 5, 65, 0
6, 120720, Note_on_c, 5, 62, 46
6, 120815, Note_off_c, 5, 62, 0
6, 121080, Note_on_c, 5, 52, 87
6, 121175, Note_off_c, 5, 52, 0
6, 121200, Note_on_c, 5, 55, 87
6, 121295, Note_off_c, 5, 55, 0
6, 121320, Note_on_c, 5, 60, 87
6, 121415, Note_off_c, 5, 60, 0
6, 121440, Note_on_c, 5, 64, 86
6, 121825, Note_off_c, 5, 64, 0
6, 122040, Note_on_c, 5, 53, 85
6, 122135, Note_off_c, 5, 53, 0
6, 122160, Note_on_c, 5, 57, 85
6, 122255, Note_off_c, 5, 57, 0
6, 122280, Note_on_c, 5, 60, 85
6, 122375, Note_off_c, 5, 60, 0
6, 122400, Note_on_c, 5, 65, 85
6, 122785, Note_off_c, 5, 65, 0
6, 123000, Note_on_c, 5, 50, 83
6, 123095, Note_off_c, 5, 50, 0
6, 123120, Note_on_c, 5, 53, 83
6, 123215, Note_off_c, 5, 53, 0
6, 123240, Note_on_c, 5, 59, 83
6, 123335, Note_off_c, 5, 59, 0
6, 123360, Note_on_c, 5, 62, 83
6, 123745, Note_off_c, 5, 62, 0
6, 123960, Note_on_c, 5, 52, 81
6, 124055, Note_off_c, 5, 52, 0
6, 124080, Note_on_c, 5, 55, 81
6, 124175, Note_off_c, 5, 55, 0
6, 124200, Note_on_c, 5, 59, 81
6, 124295, Note_off_c, 5, 59, 0
6, 124320, Note_on_c, 5, 64, 81
6, 124705, Note_off_c, 5, 64, 0
6, 124920, Note_on_c, 5, 60, 85
6, 125015, Note_off_c, 5, 60, 0
6, 125040, Note_on_c, 5, 64, 85
6, 125135, Note_off_c, 5, 64, 0
6, 125160, Note_on_c, 5, 69, 84
6, 125255, Note_off_c, 5, 69, 0
6, 125280, Note_on_c, 5, 72, 84
6, 125665, Note_off_c, 5, 72, 0
6, 125880, Note_on_c, 5, 62, 82
6, 125975, Note_off_c, 5, 62, 0
6, 126000, Note_on_c, 5, 65, 82
6, 126095, Note_off_c, 5, 65, 0
6, 126120, Note_on_c, 5, 69, 81
6, 126215, Note_off_c, 5, 69, 0
6, 126240, Note_on_c, 5, 74, 81
6, 126625, Note_off_c, 5, 74, 0
6, 126840, Note_on_c, 5, 59, 79
6, 126935, Note_off_c, 5, 59, 0
6, 126960, Note_on_c, 5, 62, 79
6, 127055, Note_off_c, 5, 62, 0
6, 127080, Note_on_c, 5, 67, 79
6, 127175, Note_off_c, 5, 67, 0
6, 127200, Note_on_c, 5, 71, 78
6, 127585, Note_off_c, 5, 71, 0
6, 127800, Note_on_c, 5, 60, 77
6, 127895, Note_off_c, 5, 60, 0
6, 127920, Note_on_c, 5, 64, 76
6, 128015, Note_off_c, 5, 64, 0
6, 128040, Note_on_c, 5, 67, 76
6, 128135, Note_off_c, 5, 67, 0
6, 128160, Note_on_c, 5, 72, 75
6, 128545, Note_off_c, 5, 72, 0
6, 132480, Control_c, 5, 64, 0
6, 132480, Note_on_c, 5, 55, 74
6, 132540, Control_c, 5, 64, 127
6, 132575, Note_off_c, 5, 55, 0
6, 132900, Control_c, 5, 64, 0
6, 132960, Control_c, 5, 64, 127
6, 132960, Note_on_c, 5, 55, 76
6, 133055, Note_off_c, 5, 55, 0
6, 133440, Control_c, 5, 64, 0
6, 133440, Note_on_c, 5, 55, 79
6, 133500, Control_c, 5, 64, 127
6, 133535, Note_off_c, 5, 55, 0
6, 133920, Control_c, 5, 64, 0
6, 133920, Note_on_c, 5, 55, 81
6, 133980, Control_c, 5, 64, 127
6, 134015, Note_off_c, 5, 55, 0
6, 134340, Control_c, 5, 64, 0
6, 134400, Control_c, 5, 64, 127
6, 134400, Note_on_c, 5, 55, 82
6, 134495, Note_off_c, 5, 55, 0
6, 134880, Control_c, 5, 64, 0
6, 134880, Note_on_c, 5, 55, 84
6, 134940, Control_c, 5, 64, 127
6, 134975, Note_off_c, 5, 55, 0
6, 135360, Control_c, 5, 64, 0
6, 135360, Note_on_c, 5, 55, 85
6, 135420, Control_c, 5, 64, 127
6, 135455, Note_off_c, 5, 55, 0
6, 135840, Control_c, 5, 64, 0
6, 135840, Note_on_c, 5, 55, 87
6, 135900, Control_c, 5, 64, 127
6, 135935, Note_off_c, 5, 55, 0
6, 136260, Control_c, 5, 64, 0
6, 136320, Note_on_c, 5, 60, 89
6, 136705, Note_off_c, 5, 60, 0
6, 137760, Note_on_c, 5, 55, 84
6, 138145, Note_off_c, 5, 55, 0
6, 138240, Note_on_c, 5, 60, 83
6, 138625, Note_off_c, 5, 60, 0
6, 139680, Note_on_c, 5, 43, 78
6, 140065, Note_off_c, 5, 43, 0
6, 140160, Note_on_c, 5, 48, 77
6, 140448, Note_off_c, 5, 48, 0
6, 140640, Note_on_c, 5, 48, 74
6, 140640, Note_on_c, 5, 60, 74
6, 140950, Note_off_c, 5, 60, 0
6, 140950, Note_off_c, 5, 48, 0
6, 141120, Note_on_c, 5, 36, 70
6, 141120, Note_on_c, 5, 48, 70
6, 141480, Note_off_c, 5, 48, 0
6, 141487, Note_off_c, 5, 36, 0
6, 252480, Control_c, 5, 64, 0
6, 252960, Note_on_c, 5, 57, 76
6, 253104, Note_off_c, 5, 57, 0
6, 253200, Note_on_c, 5, 57, 76
6, 253344, Note_off_c, 5, 57, 0
6, 253440, Note_on_c, 5, 53, 76
6, 253584, Note_off_c, 5, 53, 0
6, 253920, Note_on_c, 5, 55, 75
6, 254064, Note_off_c, 5, 55, 0
6, 254160, Note_on_c, 5, 55, 74
6, 254304, Note_off_c, 5, 55, 0
6, 254400, Note_on_c, 5, 52, 74
6, 254544, Note_off_c, 5, 52, 0
6, 254880, Note_on_c, 5, 53, 77
6, 255600, Note_off_c, 5, 53, 0
6, 255600, Note_on_c, 5, 50, 70
6, 255840, Note_off_c, 5, 50, 0
6, 255840, Note_on_c, 5, 55, 68
6, 256080, Note_off_c, 5, 55, 0
6, 256800, Note_on_c, 5, 57, 69
6, 256944, Note_off_c, 5, 57, 0
6, 257040, Note_on_c, 5, 57, 69
6, 257184, Note_off_c, 5, 57, 0
6, 257280, Note_on_c, 5, 50, 68
6, 257424, Note_off_c, 5, 50, 0
6, 257760, Note_on_c, 5, 55, 67
6, 257904, Note_off_c, 5, 55, 0
6, 258000, Note_on_c, 5, 55, 67
6, 258144, Note_off_c, 5, 55, 0
6, 258240, Note_on_c, 5, 48, 66
6, 258384, Note_off_c, 5, 48, 0
6, 258720, Note_on_c, 5, 53, 67
6, 259440, Note_off_c, 5, 53, 0
6, 259440, Note_on_c, 5, 55, 63
6, 259680, Note_off_c, 5, 55, 0
6, 259680, Note_on_c, 5, 60, 62
6, 259836, Note_off_c, 5, 60, 0
6, 259920, Note_on_c, 5, 48, 61
6, 260076, Note_off_c, 5, 48, 0
6, 260160, Control_c, 5, 64, 0
6, 260640, Note_on_c, 5, 57, 76
6, 260784, Note_off_c, 5, 57, 0
6, 260880, Note_on_c, 5, 57, 76
6, 261024, Note_off_c, 5, 57, 0
6, 261120, Note_on_c, 5, 53, 76
6, 261264, Note_off_c, 5, 53, 0
6, 261600, Note_on_c, 5, 55, 75
6, 261744, Note_off_c, 5, 55, 0
6, 261840, Note_on_c, 5, 55, 74
6, 261984, Note_off_c, 5, 55, 0
6, 262080, Note_on_c, 5, 52, 74
6, 262224, Note_off_c, 5, 52, 0
6, 262560, Note_on_c, 5, 53, 77
6, 263280, Note_off_c, 5, 53, 0
6, 263280, Note_on_c, 5, 50, 70
6, 263520, Note_off_c, 5, 50, 0
6, 263520, Note_on_c, 5, 55, 68
6, 263760, Note_off_c, 5, 55, 0
6, 264480, Note_on_c, 5, 57, 69
6, 264624, Note_off_c, 5, 57, 0
6, 264720, Note_on_c, 5, 57, 69
6, 264864, Note_off_c, 5, 57, 0
6, 264960, Note_on_c, 5, 50, 68
6, 265104, Note_off_c, 5, 50, 0
6, 265440, Note_on_c, 5, 55, 67
6, 265584, Note_off_c, 5, 55, 0
6, 265680, Note_on_c, 5, 55, 67
6, 265824, Note_off_c, 5, 55, 0
6, 265920, Note_on_c, 5, 48, 66
6, 266064, Note_off_c, 5, 48, 0
6, 266400, Note_on_c, 5, 53, 67
6, 267120, Note_off_c, 5, 53, 0
6, 267120, Note_on_c, 5, 55, 63
6, 267360, Note_off_c, 5, 55, 0
6, 267360, Note_on_c, 5, 60, 62
6, 267516, Note_off_c, 5, 60, 0
6, 267600, Note_on_c, 5, 48, 61
6, 267756, Note_off_c, 5, 48, 0
6, 267840, Control_c, 5, 64, 0
6, 267840, Note_on_c, 5, 60, 63
6, 268200, Note_off_c, 5, 60, 0
6, 268320, Note_on_c, 5, 59, 62
6, 268680, Note_off_c, 5, 59, 0
6, 268800, Note_on_c, 5, 54, 61
6, 269160, Note_off_c, 5, 54, 0
6, 269280, Note_on_c, 5, 55, 60
6, 269640, Note_off_c, 5, 55, 0
6, 269760, Note_on_c, 5, 47, 59
6, 270120, Note_off_c, 5, 47, 0
6, 270240, Note_on_c, 5, 48, 58
6, 270600, Note_off_c, 5, 48, 0
6, 270720, Note_on_c, 5, 49, 57
6, 271080, Note_off_c, 5, 49, 0
6, 271200, Note_on_c, 5, 50, 56
6, 271390, Note_off_c, 5, 50, 0
6, 272160, Note_on_c, 5, 64, 54
6, 272315, Note_off_c, 5, 64, 0
6, 272400, Note_on_c, 5, 64, 54
6, 272555, Note_off_c, 5, 64, 0
6, 272640, Note_on_c, 5, 60, 53
6, 272795, Note_off_c, 5, 60, 0
6, 273120, Note_on_c, 5, 62, 52
6, 273275, Note_off_c, 5, 62, 0
6, 273360, Note_on_c, 5, 62, 52
6, 273515, Note_off_c, 5, 62, 0
6, 273600, Note_on_c, 5, 59, 63
6, 273755, Note_off_c, 5, 59, 0
6, 274080, Note_on_c, 5, 48, 66
6, 274560, Note_off_c, 5, 48, 0
6, 274560, Note_on_c, 5, 50, 60
6, 275040, Note_off_c, 5, 50, 0
6, 275040, Note_on_c, 5, 55, 59
6, 275196, Note_off_c, 5, 55, 0
6, 275280, Note_on_c, 5, 43, 51
6, 275472, Note_off_c, 5, 43, 0
6, 276000, Note_on_c, 5, 55, 57
6, 276156, Note_off_c, 5, 55, 0
6, 276240, Note_on_c, 5, 43, 52
6, 276432, Note_off_c, 5, 43, 0
6, 276960, Note_on_c, 5, 55, 70
6, 277116, Note_off_c, 5, 55, 0
6, 277200, Note_on_c, 5, 43, 65
6, 277392, Note_off_c, 5, 43, 0
6, 279840, Note_on_c, 5, 57, 80
6, 279995, Note_off_c, 5, 57, 0
6, 280080, Note_on_c, 5, 57, 80
6, 280235, Note_off_c, 5, 57, 0
6, 280320, Note_on_c, 5, 53, 79
6, 280475, Note_off_c, 5, 53, 0
6, 280800, Note_on_c, 5, 55, 78
6, 280955, Note_off_c, 5, 55, 0
6, 281040, Note_on_c, 5, 55, 78
6, 281195, Note_off_c, 5, 55, 0
6, 281280, Note_on_c, 5, 52, 77
6, 281435, Note_off_c, 5, 52, 0
6, 281760, Note_on_c, 5, 53, 81
6, 282480, Note_off_c, 5, 53, 0
6, 282480, Note_on_c, 5, 50, 75
6, 282720, Note_off_c, 5, 50, 0
6, 282720, Note_on_c, 5, 55, 73
6, 282960, Note_off_c, 5, 55, 0
6, 283680, Note_on_c, 5, 57, 72
6, 283835, Note_off_c, 5, 57, 0
6, 283920, Note_on_c, 5, 57, 72
6, 284075, Note_off_c, 5, 57, 0
6, 284160, Note_on_c, 5, 50, 71
6, 284315, Note_off_c, 5, 50, 0
6, 284640, Note_on_c, 5, 55, 70
6, 284795, Note_off_c, 5, 55, 0
6, 284880, Note_on_c, 5, 55, 70
6, 285035, Note_off_c, 5, 55, 0
6, 285120, Note_on_c, 5, 48, 69
6, 285275, Note_off_c, 5, 48, 0
6, 285600, Note_on_c, 5, 53, 73
6, 286320, Note_off_c, 5, 53, 0
6, 286320, Note_on_c, 5, 55, 68
6, 286476, Note_off_c, 5, 55, 0
6, 286560, Note_on_c, 5, 60, 66
6, 286715, Note_off_c, 5, 60, 0
6, 286800, Note_on_c, 5, 48, 60
6, 286955, Note_off_c, 5, 48, 0
6, 287040, Note_on_c, 5, 60, 44
6, 287195, Note_off_c, 5, 60, 0
6, 287280, Note_on_c, 5, 60, 45
6, 287435, Note_off_c, 5, 60, 0
6, 287520, Note_on_c, 5, 57, 47
6, 287675, Note_off_c, 5, 57, 0
6, 288000, Note_on_c, 5, 59, 49
6, 288155, Note_off_c, 5, 59, 0
6, 288240, Note_on_c, 5, 59, 50
6, 288395, Note_off_c, 5, 59, 0
6, 288480, Note_on_c, 5, 56, 51
6, 288635, Note_off_c, 5, 56, 0
6, 289440, Note_on_c, 5, 64, 61
6, 289560, Note_off_c, 5, 64, 0
6, 289560, Note_on_c, 5, 63, 59
6, 289680, Note_off_c, 5, 63, 0
6, 289680, Note_on_c, 5, 65, 57
6, 289800, Note_off_c, 5, 65, 0
6, 289800, Note_on_c, 5, 64, 55
6, 289920, Note_off_c, 5, 64, 0
6, 290400, Note_on_c, 5, 64, 65
6, 290520, Note_off_c, 5, 64, 0
6, 290520, Note_on_c, 5, 63, 63
6, 290640, Note_off_c, 5, 63, 0
6, 290640, Note_on_c, 5, 65, 62
6, 290760, Note_off_c, 5, 65, 0
6, 290760, Note_on_c, 5, 64, 60
6, 290880, Note_off_c, 5, 64, 0
6, 290880, Note_on_c, 5, 60, 63
6, 291360, Note_off_c, 5, 60, 0
6, 291360, Note_on_c, 5, 62, 64
6, 291840, Note_off_c, 5, 62, 0
6, 291840, Note_on_c, 5, 64, 67
6, 292320, Note_off_c, 5, 64, 0
6, 292320, Note_on_c, 5, 65, 71
6, 292560, Note_off_c, 5, 65, 0
6, 292560, Note_on_c, 5, 61, 72
6, 292800, Note_off_c, 5, 61, 0
6, 292800, Note_on_c, 5, 62, 74
6, 293040, Note_off_c, 5, 62, 0
6, 293040, Note_on_c, 5, 64, 78
6, 293280, Note_off_c, 5, 64, 0
6, 293280, Note_on_c, 5, 65, 83
6, 293520, Note_off_c, 5, 65, 0
6, 293760, Note_on_c, 5, 65, 84
6, 294000, Note_off_c, 5, 65, 0
6, 294240, Note_on_c, 5, 52, 85
6, 294960, Note_off_c, 5, 52, 0
6, 295200, Note_on_c, 5, 52, 82
6, 295920, Note_off_c, 5, 52, 0
6, 296160, Note_on_c, 5, 52, 78
6, 296880, Note_off_c, 5, 52, 0
6, 297120, Note_on_c, 5, 52, 75
6, 297840, Note_off_c, 5, 52, 0
6, 298080, Note_on_c, 5, 52, 72
6, 298236, Note_off_c, 5, 52, 0
6, 299040, Note_on_c, 5, 64, 71
6, 299160, Note_off_c, 5, 64, 0
6, 299160, Note_on_c, 5, 63, 69
6, 299280, Note_off_c, 5, 63, 0
6, 299280, Note_on_c, 5, 65, 67
6, 299400, Note_off_c, 5, 65, 0
6, 299400, Note_on_c, 5, 64, 64
6, 299520, Note_off_c, 5, 64, 0
6, 300000, Note_on_c, 5, 64, 67
6, 300120, Note_off_c, 5, 64, 0
6, 300120, Note_on_c, 5, 63, 65
6, 300240, Note_off_c, 5, 63, 0
6, 300240, Note_on_c, 5, 65, 63
6, 300360, Note_off_c, 5, 65, 0
6, 300360, Note_on_c, 5, 64, 60
6, 300480, Note_off_c, 5, 64, 0
6, 300480, Note_on_c, 5, 52, 63
6, 300635, Note_off_c, 5, 52, 0
6, 300720, Note_on_c, 5, 52, 63
6, 300875, Note_off_c, 5, 52, 0
6, 300960, Note_on_c, 5, 48, 65
6, 301115, Note_off_c, 5, 48, 0
6, 301440, Note_on_c, 5, 50, 60
6, 301595, Note_off_c, 5, 50, 0
6, 301680, Note_on_c, 5, 50, 59
6, 301835, Note_off_c, 5, 50, 0
6, 301920, Note_on_c, 5, 47, 58
6, 302075, Note_off_c, 5, 47, 0
6, 302400, Note_on_c, 5, 56, 57
6, 302880, Note_off_c, 5, 56, 0
6, 302880, Note_on_c, 5, 57, 59
6, 303070, Note_off_c, 5, 57, 0
6, 303120, Note_on_c, 5, 59, 60
6, 303310, Note_off_c, 5, 59, 0
6, 303360, Note_on_c, 5, 60, 61
6, 303550, Note_off_c, 5, 60, 0
6, 303600, Note_on_c, 5, 61, 61
6, 303790, Note_off_c, 5, 61, 0
6, 303840, Note_on_c, 5, 62, 62
6, 304030, Note_off_c, 5, 62, 0
6, 304080, Note_on_c, 5, 64, 63
6, 304270, Note_off_c, 5, 64, 0
6, 304320, Note_on_c, 5, 65, 64
6, 304510, Note_off_c, 5, 65, 0
6, 304560, Note_on_c, 5, 64, 65
6, 304750, Note_off_c, 5, 64, 0
6, 304800, Note_on_c, 5, 62, 67
6, 305185, Note_off_c, 5, 62, 0
6, 305280, Note_on_c, 5, 52, 54
6, 305760, Note_off_c, 5, 52, 0
6, 305760, Note_on_c, 5, 57, 45
6, 306120, Note_off_c, 5, 57, 0
6, 306240, Note_on_c, 5, 52, 43
6, 306600, Note_off_c, 5, 52, 0
6, 306720, Note_on_c, 5, 57, 42
6, 307080, Note_off_c, 5, 57, 0
6, 307200, Note_on_c, 5, 52, 40
6, 307560, Note_off_c, 5, 52, 0
6, 307680, Note_on_c, 5, 57, 38
6, 308040, Note_off_c, 5, 57, 0
6, 308160, Note_on_c, 5, 52, 41
6, 308520, Note_off_c, 5, 52, 0
6, 308640, Note_on_c, 5, 57, 48
6, 309000, Note_off_c, 5, 57, 0
6, 309120, Note_on_c, 5, 55, 61
6, 309480, Note_off_c, 5, 55, 0
6, 310560, Note_on_c, 5, 57, 82
6, 310715, Note_off_c, 5, 57, 0
6, 310800, Note_on_c, 5, 57, 82
6, 310955, Note_off_c, 5, 57, 0
6, 311040, Note_on_c, 5, 53, 81
6, 311195, Note_off_c, 5, 53, 0
6, 311520, Note_on_c, 5, 55, 80
6, 311675, Note_off_c, 5, 55, 0
6, 311760, Note_on_c, 5, 55, 79
6, 311915, Note_off_c, 5, 55, 0
6, 312000, Note_on_c, 5, 52, 79
6, 312155, Note_off_c, 5, 52, 0
6, 312480, Note_on_c, 5, 53, 81
6, 313200, Note_off_c, 5, 53, 0
6, 313200, Note_on_c, 5, 50, 77
6, 313440, Note_off_c, 5, 50, 0
6, 313440, Note_on_c, 5, 55, 76
6, 313680, Note_off_c, 5, 55, 0
6, 314400, Note_on_c, 5, 57, 73
6, 314555, Note_off_c, 5, 57, 0
6, 314640, Note_on_c, 5, 57, 73
6, 314795, Note_off_c, 5, 57, 0
6, 314880, Note_on_c, 5, 50, 72
6, 315035, Note_off_c, 5, 50, 0
6, 315360, Note_on_c, 5, 55, 71
6, 315515, Note_off_c, 5, 55, 0
6, 315600, Note_on_c, 5, 55, 70
6, 315755, Note_off_c, 5, 55, 0
6, 315840, Note_on_c, 5, 48, 70
6, 315995, Note_off_c, 5, 48, 0
6, 316320, Note_on_c, 5, 53, 73
6, 317040, Note_off_c, 5, 53, 0
6, 317040, Note_on_c, 5, 55, 68
6, 317280, Note_off_c, 5, 55, 0
6, 317280, Note_on_c, 5, 60, 66
6, 317435, Note_off_c, 5, 60, 0
6, 317520, Note_on_c, 5, 48, 61
6, 317675, Note_off_c, 5, 48, 0
6, 317760, Note_on_c, 5, 53, 62
6, 318120, Note_off_c, 5, 53, 0
6, 318240, Note_on_c, 5, 52, 48
6, 318600, Note_off_c, 5, 52, 0
6, 318720, Note_on_c, 5, 53, 66
6, 319080, Note_off_c, 5, 53, 0
6, 319200, Note_on_c, 5, 52, 53
6, 319560, Note_off_c, 5, 52, 0
6, 319680, Note_on_c, 5, 53, 84
6, 320040, Note_off_c, 5, 53, 0
6, 320160, Note_on_c, 5, 55, 76
6, 320520, Note_off_c, 5, 55, 0
6, 320640, Note_on_c, 5, 55, 70
6, 321000, Note_off_c, 5, 55, 0
6, 321120, Note_on_c, 5, 60, 65
6, 321480, Note_off_c, 5, 60, 0
6, 321600, Note_on_c, 5, 53, 76
6, 321960, Note_off_c, 5, 53, 0
6, 322080, Note_on_c, 5, 52, 64
6, 322440, Note_off_c, 5, 52, 0
6, 322560, Note_on_c, 5, 53, 83
6, 322920, Note_off_c, 5, 53, 0
6, 323040, Note_on_c, 5, 52, 71
6, 323400, Note_off_c, 5, 52, 0
6, 323520, Note_on_c, 5, 53, 93
6, 323880, Note_off_c, 5, 53, 0
6, 324000, Note_on_c, 5, 55, 85
6, 324360, Note_off_c, 5, 55, 0
6, 324480, Note_on_c, 5, 55, 81
6, 324840, Note_off_c, 5, 55, 0
6, 324960, Note_on_c, 5, 60, 76
6, 325069, Note_off_c, 5, 60, 0
6, 325200, Note_on_c, 5, 55, 77
6, 325309, Note_off_c, 5, 55, 0
6, 325440, Note_on_c, 5, 52, 81
6, 325549, Note_off_c, 5, 52, 0
6, 325680, Note_on_c, 5, 48, 84
6, 325789, Note_off_c, 5, 48, 0
6, 325920, Note_on_c, 5, 55, 88
6, 326138, Note_off_c, 5, 55, 0
6, 326400, Note_on_c, 5, 43, 103
6, 326618, Note_off_c, 5, 43, 0
6, 326880, Note_on_c, 5, 60, 82
6, 326960, Note_off_c, 5, 60, 0
6, 327120, Note_on_c, 5, 55, 86
6, 327200, Note_off_c, 5, 55, 0
6, 327360, Note_on_c, 5, 52, 89
6, 327440, Note_off_c, 5, 52, 0
6, 327600, Note_on_c, 5, 48, 92
6, 327680, Note_off_c, 5, 48, 0
6, 327840, Note_on_c, 5, 55, 96
6, 328030, Note_off_c, 5, 55, 0
6, 328320, Note_on_c, 5, 43, 110
6, 328510, Note_off_c, 5, 43, 0
6, 328800, Note_on_c, 5, 36, 96
6, 328800, Note_on_c, 5, 48, 96
6, 328955, Note_off_c, 5, 48, 0
6, 328955, Note_off_c, 5, 36, 0
6, 329040, Note_on_c, 5, 40, 103
6, 329040, Note_on_c, 5, 52, 103
6, 329195, Note_off_c, 5, 52, 0
6, 329195, Note_off_c, 5, 40, 0
6, 329280, Note_on_c, 5, 55, 110
6, 329280, Note_on_c, 5, 43, 110
6, 329435, Note_off_c, 5, 43, 0
6, 329435, Note_off_c, 5, 55, 0
6, 329520, Note_on_c, 5, 40, 117
6, 329520, Note_on_c, 5, 52, 117
6, 329675, Note_off_c, 5, 52, 0
6, 329675, Note_off_c, 5, 40, 0
6, 329760, Note_on_c, 5, 48, 116
6, 329760, Note_on_c, 5, 36, 116
6, 330240, Note_off_c, 5, 36, 0
6, 330240, Note_off_c, 5, 48, 0
6, 330240, End_track
0, 0, End_of_file
