0, 0, Header, 1, 6, 480
1, 0, Start_track
1, 0, Title_t, "Untitled"
1, 0, SMPTE_offset, 96, 0, 0, 0, 0
1, 0, Tempo, 500000
1, 0, Time_signature, 4, 1, 24, 8
1, 0, Key_signature, 0, "major"
1, 0, Marker_t, "Mozart"
1, 2880, Tempo, 882352
1, 3375, Tempo, 909090
1, 3840, Tempo, 895522
1, 3840, Marker_t, "Piano Sonata No.4,  Rev.1"
1, 7560, Tempo, 923076
1, 7680, Tempo, 895522
1, 7680, Marker_t, "Bunji Hisamori"
1, 9480, Tempo, 923076
1, 9600, Tempo, 895522
1, 11400, Tempo, 923076
1, 11520, Tempo, 895522
1, 11520, Marker_t, "Feb.  2000"
1, 13320, Tempo, 923076
1, 13440, Tempo, 895522
1, 14760, Tempo, 923076
1, 15240, Tempo, 952380
1, 15300, Tempo, 1000000
1, 15360, Tempo, 895522
1, 17160, Tempo, 923076
1, 17280, Tempo, 895522
1, 19080, Tempo, 923076
1, 19200, Tempo, 895522
1, 21000, Tempo, 923076
1, 21120, Tempo, 895522
1, 22920, Tempo, 923076
1, 23040, Tempo, 895522
1, 24840, Tempo, 967741
1, 24960, Tempo, 923076
1, 25020, Tempo, 895522
1, 26760, Tempo, 923076
1, 26880, Tempo, 895522
1, 28680, Tempo, 923076
1, 28800, Tempo, 895522
1, 30600, Tempo, 952380
1, 30720, Tempo, 895522
1, 32400, Tempo, 1132075
1, 32640, Tempo, 1034482
1, 33600, Tempo, 1132075
1, 34560, Tempo, 923076
1, 34620, Tempo, 895522
1, 36420, Tempo, 923076
1, 36480, Tempo, 895522
1, 38340, Tempo, 923076
1, 38400, Tempo, 895522
1, 40260, Tempo, 923076
1, 40320, Tempo, 895522
1, 42180, Tempo, 923076
1, 42240, Tempo, 895522
1, 43080, Tempo, 923076
1, 43200, Tempo, 923076
1, 43260, Tempo, 895522
1, 44040, Tempo, 952380
1, 44160, Tempo, 895522
1, 45960, Tempo, 923076
1, 46080, Tempo, 895522
1, 47880, Tempo, 923076
1, 48000, Tempo, 895522
1, 48840, Tempo, 923076
1, 48960, Tempo, 895522
1, 49800, Tempo, 923076
1, 49920, Tempo, 895522
1, 51720, Tempo, 1034482
1, 51840, Tempo, 895522
1, 53640, Tempo, 923076
1, 53760, Tempo, 895522
1, 56400, Tempo, 923076
1, 57480, Tempo, 952380
1, 57540, Tempo, 1000000
1, 57600, Tempo, 895522
1, 59400, Tempo, 909090
1, 61150, Tempo, 923076
1, 61260, Tempo, 1034482
1, 61335, Tempo, 1764705
1, 61440, Tempo, 895522
1, 65160, Tempo, 923076
1, 65280, Tempo, 895522
1, 69000, Tempo, 923076
1, 69120, Tempo, 895522
1, 72840, Tempo, 923076
1, 72960, Tempo, 895522
1, 76680, Tempo, 923076
1, 76800, Tempo, 895522
1, 78600, Tempo, 923076
1, 78720, Tempo, 895522
1, 80520, Tempo, 923076
1, 81480, Tempo, 952380
1, 81600, Tempo, 1132075
1, 82560, Tempo, 923076
1, 84120, Tempo, 952380
1, 84240, Tempo, 1224489
1, 84480, Tempo, 895522
1, 86280, Tempo, 923076
1, 86400, Tempo, 895522
1, 88200, Tempo, 923076
1, 88320, Tempo, 895522
1, 90120, Tempo, 923076
1, 90240, Tempo, 895522
1, 92040, Tempo, 923076
1, 92160, Tempo, 895522
1, 93960, Tempo, 923076
1, 94080, Tempo, 895522
1, 95880, Tempo, 923076
1, 96000, Tempo, 895522
1, 97800, Tempo, 923076
1, 97920, Tempo, 895522
1, 99720, Tempo, 923076
1, 99840, Tempo, 895522
1, 101520, Tempo, 1111111
1, 101760, Tempo, 1034482
1, 102720, Tempo, 1111111
1, 103680, Tempo, 923076
1, 103740, Tempo, 895522
1, 105540, Tempo, 923076
1, 105600, Tempo, 895522
1, 107460, Tempo, 923076
1, 107520, Tempo, 895522
1, 108360, Tempo, 923076
1, 108540, Tempo, 895522
1, 109380, Tempo, 923076
1, 109440, Tempo, 895522
1, 111300, Tempo, 923076
1, 111360, Tempo, 895522
1, 112215, Tempo, 923076
1, 112395, Tempo, 895522
1, 113160, Tempo, 952380
1, 113280, Tempo, 895522
1, 115080, Tempo, 923076
1, 115200, Tempo, 895522
1, 117000, Tempo, 923076
1, 117120, Tempo, 895522
1, 117960, Tempo, 923076
1, 118080, Tempo, 895522
1, 118890, Tempo, 952380
1, 119040, Tempo, 895522
1, 120810, Tempo, 1071428
1, 120930, Tempo, 895522
1, 122730, Tempo, 923076
1, 122880, Tempo, 895522
1, 125520, Tempo, 923076
1, 126600, Tempo, 952380
1, 126660, Tempo, 1000000
1, 126720, Tempo, 895522
1, 128520, Tempo, 909090
1, 130270, Tempo, 923076
1, 130380, Tempo, 1071428
1, 130455, Tempo, 1578947
1, 130560, Tempo, 895522
1, 134280, Tempo, 952380
1, 134400, Tempo, 895522
1, 136200, Tempo, 952380
1, 138105, Tempo, 1034482
1, 138240, Tempo, 1000000
1, 139560, Tempo, 1034482
1, 139935, Tempo, 1333333
1, 141120, Tempo, 1276595
1, 142080, Tempo, 1935483
1, 142080, Time_signature, 3, 2, 24, 8
1, 142080, Marker_t, "(2)"
1, 142920, Tempo, 476190
1, 143040, Tempo, 472440
1, 144840, Tempo, 480000
1, 145440, Tempo, 487804
1, 145920, Tempo, 472440
1, 147720, Tempo, 480000
1, 148320, Tempo, 487804
1, 148800, Tempo, 472440
1, 152040, Tempo, 480000
1, 152210, Tempo, 472440
1, 153540, Tempo, 476190
1, 154920, Tempo, 487804
1, 155040, Tempo, 472440
1, 156360, Tempo, 480000
1, 156960, Tempo, 487804
1, 157440, Tempo, 472440
1, 158760, Tempo, 480000
1, 158880, Tempo, 472440
1, 159840, Tempo, 480000
1, 160320, Tempo, 476190
1, 163440, Tempo, 480000
1, 163680, Tempo, 476190
1, 166320, Tempo, 480000
1, 166560, Tempo, 472440
1, 167400, Tempo, 476190
1, 168000, Tempo, 480000
1, 168480, Tempo, 500000
1, 168945, Tempo, 472440
1, 170760, Tempo, 480000
1, 171360, Tempo, 487804
1, 171840, Tempo, 472440
1, 173640, Tempo, 480000
1, 174240, Tempo, 487804
1, 174720, Tempo, 472440
1, 175200, Tempo, 472440
1, 177960, Tempo, 480000
1, 178140, Tempo, 472440
1, 179460, Tempo, 476190
1, 180840, Tempo, 480000
1, 180960, Tempo, 476190
1, 182280, Tempo, 480000
1, 182865, Tempo, 495867
1, 183360, Tempo, 476190
1, 184560, Tempo, 480000
1, 184800, Tempo, 476190
1, 186015, Tempo, 480000
1, 186240, Tempo, 472440
1, 187560, Tempo, 480000
1, 188160, Tempo, 487804
1, 188640, Tempo, 550458
1, 189120, Tempo, 480000
1, 199560, Tempo, 487804
1, 199680, Tempo, 495867
1, 200160, Tempo, 517241
1, 200640, Tempo, 480000
1, 205920, Tempo, 487804
1, 209520, Tempo, 500000
1, 209760, Tempo, 480000
1, 210240, Tempo, 487804
1, 211200, Tempo, 495867
1, 211680, Tempo, 550458
1, 212160, Tempo, 480000
1, 222600, Tempo, 487804
1, 222720, Tempo, 495867
1, 223200, Tempo, 517241
1, 223680, Tempo, 480000
1, 228960, Tempo, 487804
1, 232560, Tempo, 500000
1, 232800, Tempo, 480000
1, 233280, Tempo, 487804
1, 234240, Tempo, 495867
1, 234720, Tempo, 550458
1, 235200, Tempo, 480000
1, 241320, Tempo, 487804
1, 241440, Tempo, 480000
1, 244200, Tempo, 487804
1, 245280, Tempo, 480000
1, 245760, Tempo, 487804
1, 246240, Tempo, 600000
1, 246720, Tempo, 480000
1, 257160, Tempo, 487804
1, 257280, Tempo, 495867
1, 257760, Tempo, 508474
1, 258240, Tempo, 480000
1, 263520, Tempo, 487804
1, 267120, Tempo, 500000
1, 267360, Tempo, 480000
1, 267840, Tempo, 487804
1, 268800, Tempo, 500000
1, 269280, Tempo, 1111111
1, 269760, Tempo, 472440
1, 271560, Tempo, 480000
1, 272160, Tempo, 487804
1, 272640, Tempo, 472440
1, 274440, Tempo, 480000
1, 275040, Tempo, 487804
1, 275520, Tempo, 472440
1, 278760, Tempo, 480000
1, 278930, Tempo, 472440
1, 280260, Tempo, 476190
1, 281640, Tempo, 487804
1, 281760, Tempo, 472440
1, 283080, Tempo, 480000
1, 283680, Tempo, 487804
1, 284160, Tempo, 472440
1, 285480, Tempo, 480000
1, 285600, Tempo, 472440
1, 286560, Tempo, 480000
1, 287040, Tempo, 476190
1, 290160, Tempo, 480000
1, 290400, Tempo, 476190
1, 293040, Tempo, 480000
1, 293280, Tempo, 472440
1, 294120, Tempo, 476190
1, 294720, Tempo, 480000
1, 295200, Tempo, 500000
1, 295665, Tempo, 472440
1, 297480, Tempo, 480000
1, 298080, Tempo, 487804
1, 298560, Tempo, 472440
1, 300360, Tempo, 480000
1, 300960, Tempo, 487804
1, 301440, Tempo, 472440
1, 301920, Tempo, 472440
1, 304680, Tempo, 480000
1, 304860, Tempo, 472440
1, 306180, Tempo, 476190
1, 307560, Tempo, 480000
1, 307680, Tempo, 476190
1, 309000, Tempo, 480000
1, 309585, Tempo, 495867
1, 310080, Tempo, 476190
1, 311280, Tempo, 480000
1, 311520, Tempo, 476190
1, 312735, Tempo, 480000
1, 312960, Tempo, 472440
1, 314280, Tempo, 480000
1, 314820, Tempo, 487804
1, 314880, Tempo, 500000
1, 315360, Tempo, 550458
1, 316320, Tempo, 250000
1, 316320, Time_signature, 2, 2, 24, 8
1, 316320, Marker_t, "(3)"
1, 317280, Tempo, 454545
1, 318200, Tempo, 461538
1, 318240, Tempo, 454545
1, 319160, Tempo, 461538
1, 319200, Tempo, 454545
1, 320120, Tempo, 461538
1, 320160, Tempo, 454545
1, 321720, Tempo, 461538
1, 321840, Tempo, 454545
1, 322040, Tempo, 461538
1, 322080, Tempo, 454545
1, 323000, Tempo, 461538
1, 323040, Tempo, 454545
1, 323960, Tempo, 461538
1, 324000, Tempo, 454545
1, 324450, Tempo, 461538
1, 324848, Tempo, 465116
1, 324960, Tempo, 472440
1, 325320, Tempo, 480000
1, 325440, Tempo, 508474
1, 325680, Tempo, 461538
1, 325880, Tempo, 465116
1, 325925, Tempo, 461538
1, 326835, Tempo, 465116
1, 326880, Tempo, 461538
1, 327800, Tempo, 465116
1, 327845, Tempo, 461538
1, 328755, Tempo, 461538
1, 328800, Tempo, 454545
1, 329720, Tempo, 472440
1, 329765, Tempo, 461538
1, 330680, Tempo, 465116
1, 331640, Tempo, 487804
1, 331680, Tempo, 472440
1, 331880, Tempo, 480000
1, 332160, Tempo, 472440
1, 332600, Tempo, 472440
1, 332640, Tempo, 461538
1, 333560, Tempo, 465116
1, 333600, Tempo, 461538
1, 334520, Tempo, 480000
1, 334560, Tempo, 461538
1, 335480, Tempo, 465116
1, 335520, Tempo, 461538
1, 336440, Tempo, 487804
1, 336480, Tempo, 454545
1, 340280, Tempo, 472440
1, 340320, Tempo, 465116
1, 341240, Tempo, 472440
1, 341280, Tempo, 465116
1, 342200, Tempo, 472440
1, 342240, Tempo, 465116
1, 343160, Tempo, 472440
1, 343200, Tempo, 465116
1, 344120, Tempo, 487804
1, 344160, Tempo, 454545
1, 347960, Tempo, 461538
1, 348000, Tempo, 454545
1, 349880, Tempo, 461538
1, 349920, Tempo, 454545
1, 351800, Tempo, 461538
1, 351840, Tempo, 454545
1, 353720, Tempo, 461538
1, 353760, Tempo, 454545
1, 354680, Tempo, 465116
1, 354720, Tempo, 465116
1, 355140, Tempo, 472440
1, 355305, Tempo, 600000
1, 355440, Tempo, 454545
1, 355640, Tempo, 461538
1, 355680, Tempo, 454545
1, 356600, Tempo, 461538
1, 356640, Tempo, 454545
1, 357560, Tempo, 461538
1, 357600, Tempo, 454545
1, 358980, Tempo, 461538
1, 359480, Tempo, 461538
1, 359520, Tempo, 454545
1, 360440, Tempo, 461538
1, 360480, Tempo, 454545
1, 361400, Tempo, 461538
1, 361440, Tempo, 454545
1, 362840, Tempo, 461538
1, 363120, Tempo, 461538
1, 363320, Tempo, 465116
1, 363360, Tempo, 461538
1, 364280, Tempo, 465116
1, 364320, Tempo, 461538
1, 365240, Tempo, 465116
1, 365280, Tempo, 461538
1, 366200, Tempo, 465116
1, 366240, Tempo, 461538
1, 367160, Tempo, 465116
1, 367200, Tempo, 461538
1, 368120, Tempo, 465116
1, 368160, Tempo, 461538
1, 369080, Tempo, 465116
1, 369120, Tempo, 461538
1, 370040, Tempo, 465116
1, 370080, Tempo, 461538
1, 371000, Tempo, 465116
1, 371040, Tempo, 454545
1, 373920, Tempo, 465116
1, 374270, Tempo, 472440
1, 374820, Tempo, 472440
1, 375780, Tempo, 480000
1, 376210, Tempo, 487804
1, 376328, Tempo, 508474
1, 376440, Tempo, 750000
1, 376560, Tempo, 454545
1, 376760, Tempo, 487804
1, 376800, Tempo, 454545
1, 377720, Tempo, 461538
1, 377760, Tempo, 454545
1, 378680, Tempo, 461538
1, 378720, Tempo, 454545
1, 380280, Tempo, 461538
1, 380400, Tempo, 454545
1, 380600, Tempo, 461538
1, 380640, Tempo, 454545
1, 381560, Tempo, 461538
1, 381600, Tempo, 454545
1, 382520, Tempo, 461538
1, 382560, Tempo, 454545
1, 383010, Tempo, 461538
1, 383408, Tempo, 465116
1, 383520, Tempo, 472440
1, 383880, Tempo, 480000
1, 384000, Tempo, 508474
1, 384240, Tempo, 461538
1, 384440, Tempo, 465116
1, 384485, Tempo, 461538
1, 385395, Tempo, 465116
1, 385440, Tempo, 461538
1, 386360, Tempo, 465116
1, 386405, Tempo, 461538
1, 387315, Tempo, 461538
1, 387360, Tempo, 454545
1, 388280, Tempo, 465116
1, 388325, Tempo, 461538
1, 389240, Tempo, 465116
1, 390200, Tempo, 487804
1, 390240, Tempo, 472440
1, 390440, Tempo, 487804
1, 390720, Tempo, 472440
1, 391160, Tempo, 472440
1, 391200, Tempo, 461538
1, 392120, Tempo, 465116
1, 392160, Tempo, 461538
1, 393080, Tempo, 480000
1, 393120, Tempo, 461538
1, 394040, Tempo, 465116
1, 394080, Tempo, 461538
1, 395000, Tempo, 495867
1, 395040, Tempo, 454545
1, 398840, Tempo, 472440
1, 398880, Tempo, 465116
1, 399800, Tempo, 472440
1, 399840, Tempo, 465116
1, 400760, Tempo, 472440
1, 400800, Tempo, 465116
1, 401720, Tempo, 472440
1, 401760, Tempo, 465116
1, 402680, Tempo, 495867
1, 402720, Tempo, 454545
1, 406520, Tempo, 461538
1, 406560, Tempo, 454545
1, 408440, Tempo, 461538
1, 408480, Tempo, 454545
1, 410360, Tempo, 461538
1, 410400, Tempo, 454545
1, 412280, Tempo, 461538
1, 412320, Tempo, 454545
1, 413240, Tempo, 465116
1, 413280, Tempo, 458015
1, 414240, Tempo, 454545
1, 415020, Tempo, 458015
1, 415080, Tempo, 600000
1, 416160, End_track
2, 0, Start_track
2, 0, Instrument_name_t, "Roland Serial MIDI Out Port A"
2, 0, Title_t, "Unnamed Track"
2, 0, Control_c, 1, 0, 0
2, 0, Control_c, 1, 32, 0
2, 0, Program_c, 1, 0
2, 0, Control_c, 1, 10, 73
2, 0, Control_c, 1, 91, 100
2, 0, Control_c, 1, 93, 28
2, 0, Control_c, 1, 64, 0
2, 0, Pitch_bend_c, 1, 8192
2, 0, Control_c, 1, 93, 18
2, 0, Pitch_bend_c, 1, 8192
2, 0, Control_c, 1, 1, 0
2, 0, Control_c, 1, 1, 0
2, 0, Pitch_bend_c, 1, 8192
2, 0, Control_c, 1, 7, 127
2, 3840, Note_on_c, 1, 70, 52
2, 4560, Note_off_c, 1, 70, 0
2, 4560, Note_on_c, 1, 72, 56
2, 4740, Note_off_c, 1, 72, 0
2, 4800, Note_on_c, 1, 70, 54
2, 6188, Note_off_c, 1, 70, 0
2, 6240, Note_on_c, 1, 70, 60
2, 6720, Note_off_c, 1, 70, 0
2, 6720, Note_on_c, 1, 75, 62
2, 7080, Note_off_c, 1, 75, 0
2, 7200, Note_on_c, 1, 75, 64
2, 7553, Note_off_c, 1, 75, 0
2, 7680, Note_on_c, 1, 75, 67
2, 7920, Note_off_c, 1, 75, 0
2, 7920, Note_on_c, 1, 74, 64
2, 8160, Note_off_c, 1, 74, 0
2, 8160, Note_on_c, 1, 72, 62
2, 8400, Note_off_c, 1, 72, 0
2, 8400, Note_on_c, 1, 70, 60
2, 8580, Note_off_c, 1, 70, 0
2, 8640, Note_on_c, 1, 70, 58
2, 9540, Note_off_c, 1, 70, 0
2, 9600, Note_on_c, 1, 74, 62
2, 9840, Note_off_c, 1, 74, 0
2, 9840, Note_on_c, 1, 72, 59
2, 10020, Note_off_c, 1, 72, 0
2, 10080, Note_on_c, 1, 72, 56
2, 10980, Note_off_c, 1, 72, 0
2, 11040, Note_on_c, 1, 77, 53
2, 11280, Note_off_c, 1, 77, 0
2, 11280, Note_on_c, 1, 74, 55
2, 11468, Note_off_c, 1, 74, 0
2, 11520, Note_on_c, 1, 72, 58
2, 11760, Note_off_c, 1, 72, 0
2, 11760, Note_on_c, 1, 70, 55
2, 11940, Note_off_c, 1, 70, 0
2, 12000, Note_on_c, 1, 70, 52
2, 12960, Note_off_c, 1, 70, 0
2, 12960, Note_on_c, 1, 75, 49
2, 13200, Note_off_c, 1, 75, 0
2, 13200, Note_on_c, 1, 70, 45
2, 13380, Note_off_c, 1, 70, 0
2, 13440, Note_on_c, 1, 70, 42
2, 14880, Note_off_c, 1, 70, 0
2, 14880, Note_on_c, 1, 70, 39
2, 14940, Note_on_c, 1, 68, 39
2, 14960, Note_off_c, 1, 70, 0
2, 15000, Note_on_c, 1, 70, 38
2, 15020, Note_off_c, 1, 68, 0
2, 15060, Note_on_c, 1, 68, 38
2, 15080, Note_off_c, 1, 70, 0
2, 15120, Note_on_c, 1, 70, 37
2, 15130, Note_off_c, 1, 68, 0
2, 15180, Note_off_c, 1, 70, 0
2, 15180, Note_on_c, 1, 68, 37
2, 15240, Note_on_c, 1, 67, 36
2, 15260, Note_off_c, 1, 68, 0
2, 15300, Note_on_c, 1, 68, 36
2, 15310, Note_off_c, 1, 67, 0
2, 15360, Note_on_c, 1, 67, 35
2, 15380, Note_off_c, 1, 68, 0
2, 15840, Note_off_c, 1, 67, 0
2, 16320, Note_on_c, 1, 70, 43
2, 16800, Note_off_c, 1, 70, 0
2, 17760, Note_on_c, 1, 75, 48
2, 17820, Note_on_c, 1, 77, 50
2, 17850, Note_off_c, 1, 75, 0
2, 17880, Note_on_c, 1, 79, 52
2, 17910, Note_off_c, 1, 77, 0
2, 18230, Note_off_c, 1, 79, 0
2, 18240, Note_on_c, 1, 77, 54
2, 18720, Note_off_c, 1, 77, 0
2, 18720, Note_on_c, 1, 75, 57
2, 19140, Note_off_c, 1, 75, 0
2, 19200, Note_on_c, 1, 77, 56
2, 19260, Note_on_c, 1, 75, 55
2, 19280, Note_off_c, 1, 77, 0
2, 19320, Note_on_c, 1, 77, 54
2, 19340, Note_off_c, 1, 75, 0
2, 19380, Note_on_c, 1, 75, 53
2, 19400, Note_off_c, 1, 77, 0
2, 19440, Note_on_c, 1, 77, 52
2, 19460, Note_off_c, 1, 75, 0
2, 19500, Note_on_c, 1, 75, 51
2, 19520, Note_off_c, 1, 77, 0
2, 19560, Note_on_c, 1, 77, 50
2, 19580, Note_off_c, 1, 75, 0
2, 19620, Note_on_c, 1, 75, 49
2, 19640, Note_off_c, 1, 77, 0
2, 19680, Note_on_c, 1, 77, 49
2, 19700, Note_off_c, 1, 75, 0
2, 19740, Note_on_c, 1, 75, 48
2, 19760, Note_off_c, 1, 77, 0
2, 19800, Note_on_c, 1, 77, 47
2, 19820, Note_off_c, 1, 75, 0
2, 19860, Note_on_c, 1, 75, 46
2, 19880, Note_off_c, 1, 77, 0
2, 19920, Note_on_c, 1, 77, 45
2, 19940, Note_off_c, 1, 75, 0
2, 19980, Note_on_c, 1, 75, 44
2, 19990, Note_off_c, 1, 77, 0
2, 20040, Note_on_c, 1, 74, 43
2, 20060, Note_off_c, 1, 75, 0
2, 20100, Note_on_c, 1, 75, 42
2, 20120, Note_off_c, 1, 74, 0
2, 20160, Note_on_c, 1, 74, 41
2, 20180, Note_off_c, 1, 75, 0
2, 21060, Note_off_c, 1, 74, 0
2, 21600, Note_on_c, 1, 77, 46
2, 21660, Note_on_c, 1, 79, 48
2, 21680, Note_off_c, 1, 77, 0
2, 21720, Note_on_c, 1, 80, 52
2, 21740, Note_off_c, 1, 79, 0
2, 22073, Note_off_c, 1, 80, 0
2, 22080, Note_on_c, 1, 79, 55
2, 22560, Note_off_c, 1, 79, 0
2, 22560, Note_on_c, 1, 77, 59
2, 22988, Note_off_c, 1, 77, 0
2, 23040, Note_on_c, 1, 79, 58
2, 23100, Note_on_c, 1, 77, 57
2, 23120, Note_off_c, 1, 79, 0
2, 23160, Note_on_c, 1, 79, 56
2, 23180, Note_off_c, 1, 77, 0
2, 23220, Note_on_c, 1, 77, 55
2, 23240, Note_off_c, 1, 79, 0
2, 23280, Note_on_c, 1, 79, 55
2, 23300, Note_off_c, 1, 77, 0
2, 23340, Note_on_c, 1, 77, 54
2, 23360, Note_off_c, 1, 79, 0
2, 23400, Note_on_c, 1, 79, 53
2, 23420, Note_off_c, 1, 77, 0
2, 23460, Note_on_c, 1, 77, 52
2, 23480, Note_off_c, 1, 79, 0
2, 23520, Note_on_c, 1, 79, 51
2, 23540, Note_off_c, 1, 77, 0
2, 23580, Note_on_c, 1, 77, 50
2, 23600, Note_off_c, 1, 79, 0
2, 23640, Note_on_c, 1, 79, 50
2, 23660, Note_off_c, 1, 77, 0
2, 23700, Note_on_c, 1, 77, 49
2, 23710, Note_off_c, 1, 79, 0
2, 23760, Note_on_c, 1, 79, 48
2, 23780, Note_off_c, 1, 77, 0
2, 23820, Note_on_c, 1, 77, 47
2, 23840, Note_off_c, 1, 79, 0
2, 23880, Note_on_c, 1, 75, 46
2, 23890, Note_off_c, 1, 77, 0
2, 23940, Note_on_c, 1, 77, 45
2, 23960, Note_off_c, 1, 75, 0
2, 24000, Note_on_c, 1, 75, 45
2, 24020, Note_off_c, 1, 77, 0
2, 24900, Note_off_c, 1, 75, 0
2, 25440, Note_on_c, 1, 77, 38
2, 25500, Note_on_c, 1, 75, 40
2, 25510, Note_off_c, 1, 77, 0
2, 25560, Note_on_c, 1, 74, 41
2, 25570, Note_off_c, 1, 75, 0
2, 25620, Note_on_c, 1, 75, 43
2, 25640, Note_off_c, 1, 74, 0
2, 25913, Note_off_c, 1, 75, 0
2, 25920, Note_on_c, 1, 77, 46
2, 26400, Note_off_c, 1, 77, 0
2, 26400, Note_on_c, 1, 78, 50
2, 26828, Note_off_c, 1, 78, 0
2, 26880, Note_on_c, 1, 70, 50
2, 27360, Note_off_c, 1, 70, 0
2, 27360, Note_on_c, 1, 69, 42
2, 27773, Note_off_c, 1, 69, 0
2, 28320, Note_on_c, 1, 72, 48
2, 28630, Note_off_c, 1, 72, 0
2, 28800, Note_on_c, 1, 75, 52
2, 29280, Note_off_c, 1, 75, 0
2, 29280, Note_on_c, 1, 73, 47
2, 29693, Note_off_c, 1, 73, 0
2, 30240, Note_on_c, 1, 70, 38
2, 30550, Note_off_c, 1, 70, 0
2, 30720, Note_on_c, 1, 69, 34
2, 30960, Note_off_c, 1, 69, 0
2, 30960, Note_on_c, 1, 70, 35
2, 31200, Note_off_c, 1, 70, 0
2, 31200, Note_on_c, 1, 69, 36
2, 31440, Note_off_c, 1, 69, 0
2, 31440, Note_on_c, 1, 73, 37
2, 31680, Note_off_c, 1, 73, 0
2, 31680, Note_on_c, 1, 72, 38
2, 31920, Note_off_c, 1, 72, 0
2, 31920, Note_on_c, 1, 76, 39
2, 32160, Note_off_c, 1, 76, 0
2, 32160, Note_on_c, 1, 77, 40
2, 32400, Note_off_c, 1, 77, 0
2, 32400, Note_on_c, 1, 73, 41
2, 32610, Note_off_c, 1, 73, 0
2, 32640, Note_on_c, 1, 73, 45
2, 33600, Note_off_c, 1, 73, 0
2, 33600, Note_on_c, 1, 72, 30
2, 34080, Note_off_c, 1, 72, 0
2, 35760, Note_on_c, 1, 70, 43
2, 36000, Note_off_c, 1, 70, 0
2, 36000, Note_on_c, 1, 74, 43
2, 36240, Note_off_c, 1, 74, 0
2, 36240, Note_on_c, 1, 77, 45
2, 36443, Note_off_c, 1, 77, 0
2, 36480, Note_on_c, 1, 77, 49
2, 36720, Note_off_c, 1, 77, 0
2, 36720, Note_on_c, 1, 75, 47
2, 36816, Note_off_c, 1, 75, 0
2, 36960, Note_on_c, 1, 72, 46
2, 37056, Note_off_c, 1, 72, 0
2, 37200, Note_on_c, 1, 69, 44
2, 37296, Note_off_c, 1, 69, 0
2, 37680, Note_on_c, 1, 69, 46
2, 37920, Note_off_c, 1, 69, 0
2, 37920, Note_on_c, 1, 72, 48
2, 38160, Note_off_c, 1, 72, 0
2, 38160, Note_on_c, 1, 75, 50
2, 38348, Note_off_c, 1, 75, 0
2, 38400, Note_on_c, 1, 79, 53
2, 38640, Note_off_c, 1, 79, 0
2, 38640, Note_on_c, 1, 77, 51
2, 38736, Note_off_c, 1, 77, 0
2, 38880, Note_on_c, 1, 74, 49
2, 38976, Note_off_c, 1, 74, 0
2, 39120, Note_on_c, 1, 70, 46
2, 39216, Note_off_c, 1, 70, 0
2, 39600, Note_on_c, 1, 70, 50
2, 39840, Note_off_c, 1, 70, 0
2, 39840, Note_on_c, 1, 74, 51
2, 40080, Note_off_c, 1, 74, 0
2, 40080, Note_on_c, 1, 77, 53
2, 40260, Note_off_c, 1, 77, 0
2, 40320, Note_on_c, 1, 77, 56
2, 40560, Note_off_c, 1, 77, 0
2, 40560, Note_on_c, 1, 75, 54
2, 40656, Note_off_c, 1, 75, 0
2, 40800, Note_on_c, 1, 72, 52
2, 40896, Note_off_c, 1, 72, 0
2, 41040, Note_on_c, 1, 69, 51
2, 41136, Note_off_c, 1, 69, 0
2, 41520, Note_on_c, 1, 69, 53
2, 41760, Note_off_c, 1, 69, 0
2, 41760, Note_on_c, 1, 72, 54
2, 42000, Note_off_c, 1, 72, 0
2, 42000, Note_on_c, 1, 75, 57
2, 42188, Note_off_c, 1, 75, 0
2, 42240, Note_on_c, 1, 79, 60
2, 42480, Note_off_c, 1, 79, 0
2, 42480, Note_on_c, 1, 77, 57
2, 42576, Note_off_c, 1, 77, 0
2, 42720, Note_on_c, 1, 74, 55
2, 42816, Note_off_c, 1, 74, 0
2, 42960, Note_on_c, 1, 70, 53
2, 43056, Note_off_c, 1, 70, 0
2, 43440, Note_on_c, 1, 77, 65
2, 43600, Note_off_c, 1, 77, 0
2, 43680, Note_on_c, 1, 76, 68
2, 43800, Note_off_c, 1, 76, 0
2, 43800, Note_on_c, 1, 77, 69
2, 43920, Note_off_c, 1, 77, 0
2, 43920, Note_on_c, 1, 81, 71
2, 44040, Note_off_c, 1, 81, 0
2, 44040, Note_on_c, 1, 77, 72
2, 44138, Note_off_c, 1, 77, 0
2, 44160, Note_on_c, 1, 82, 74
2, 44400, Note_off_c, 1, 82, 0
2, 44400, Note_on_c, 1, 77, 73
2, 44588, Note_off_c, 1, 77, 0
2, 44640, Note_on_c, 1, 77, 72
2, 45300, Note_off_c, 1, 77, 0
2, 45360, Note_on_c, 1, 74, 69
2, 45600, Note_off_c, 1, 74, 0
2, 45600, Note_on_c, 1, 77, 68
2, 45720, Note_off_c, 1, 77, 0
2, 45720, Note_on_c, 1, 74, 67
2, 45818, Note_off_c, 1, 74, 0
2, 45840, Note_on_c, 1, 77, 67
2, 45960, Note_off_c, 1, 77, 0
2, 45960, Note_on_c, 1, 74, 66
2, 46050, Note_off_c, 1, 74, 0
2, 46080, Note_on_c, 1, 79, 71
2, 46320, Note_off_c, 1, 79, 0
2, 46320, Note_on_c, 1, 75, 66
2, 46508, Note_off_c, 1, 75, 0
2, 46560, Note_on_c, 1, 75, 64
2, 47205, Note_off_c, 1, 75, 0
2, 47280, Note_on_c, 1, 72, 61
2, 47520, Note_off_c, 1, 72, 0
2, 47520, Note_on_c, 1, 75, 60
2, 47640, Note_off_c, 1, 75, 0
2, 47640, Note_on_c, 1, 72, 59
2, 47738, Note_off_c, 1, 72, 0
2, 47760, Note_on_c, 1, 75, 58
2, 47880, Note_off_c, 1, 75, 0
2, 47880, Note_on_c, 1, 72, 58
2, 47978, Note_off_c, 1, 72, 0
2, 48000, Note_on_c, 1, 77, 63
2, 48240, Note_off_c, 1, 77, 0
2, 48240, Note_on_c, 1, 74, 59
2, 48540, Note_off_c, 1, 74, 0
2, 48600, Note_on_c, 1, 70, 56
2, 48698, Note_off_c, 1, 70, 0
2, 48720, Note_on_c, 1, 74, 55
2, 48840, Note_off_c, 1, 74, 0
2, 48840, Note_on_c, 1, 70, 54
2, 48945, Note_off_c, 1, 70, 0
2, 48960, Note_on_c, 1, 75, 60
2, 49200, Note_off_c, 1, 75, 0
2, 49200, Note_on_c, 1, 72, 55
2, 49500, Note_off_c, 1, 72, 0
2, 49560, Note_on_c, 1, 69, 51
2, 49650, Note_off_c, 1, 69, 0
2, 49680, Note_on_c, 1, 72, 50
2, 49800, Note_off_c, 1, 72, 0
2, 49800, Note_on_c, 1, 69, 49
2, 49890, Note_off_c, 1, 69, 0
2, 49920, Note_on_c, 1, 72, 48
2, 50040, Note_off_c, 1, 72, 0
2, 50040, Note_on_c, 1, 70, 49
2, 50160, Note_off_c, 1, 70, 0
2, 50160, Note_on_c, 1, 69, 50
2, 50280, Note_off_c, 1, 69, 0
2, 50280, Note_on_c, 1, 70, 51
2, 50400, Note_off_c, 1, 70, 0
2, 50400, Note_on_c, 1, 72, 51
2, 50640, Note_off_c, 1, 72, 0
2, 50640, Note_on_c, 1, 74, 53
2, 50880, Note_off_c, 1, 74, 0
2, 50880, Note_on_c, 1, 75, 55
2, 51120, Note_off_c, 1, 75, 0
2, 51120, Note_on_c, 1, 74, 57
2, 51180, Note_on_c, 1, 77, 58
2, 51210, Note_off_c, 1, 74, 0
2, 51330, Note_off_c, 1, 77, 0
2, 51360, Note_on_c, 1, 75, 59
2, 51420, Note_on_c, 1, 79, 60
2, 51450, Note_off_c, 1, 75, 0
2, 51570, Note_off_c, 1, 79, 0
2, 51600, Note_on_c, 1, 77, 61
2, 51660, Note_on_c, 1, 81, 61
2, 51690, Note_off_c, 1, 77, 0
2, 51790, Note_off_c, 1, 81, 0
2, 51840, Note_on_c, 1, 82, 59
2, 51960, Note_off_c, 1, 82, 0
2, 51960, Note_on_c, 1, 77, 57
2, 52080, Note_off_c, 1, 77, 0
2, 52080, Note_on_c, 1, 76, 56
2, 52200, Note_off_c, 1, 76, 0
2, 52200, Note_on_c, 1, 77, 55
2, 52320, Note_off_c, 1, 77, 0
2, 52320, Note_on_c, 1, 79, 54
2, 52440, Note_off_c, 1, 79, 0
2, 52440, Note_on_c, 1, 77, 53
2, 52560, Note_off_c, 1, 77, 0
2, 52560, Note_on_c, 1, 76, 52
2, 52680, Note_off_c, 1, 76, 0
2, 52680, Note_on_c, 1, 77, 51
2, 52785, Note_off_c, 1, 77, 0
2, 52920, Note_on_c, 1, 77, 59
2, 53040, Note_off_c, 1, 77, 0
2, 53040, Note_on_c, 1, 76, 58
2, 53160, Note_off_c, 1, 76, 0
2, 53160, Note_on_c, 1, 77, 57
2, 53280, Note_off_c, 1, 77, 0
2, 53400, Note_on_c, 1, 76, 55
2, 53520, Note_off_c, 1, 76, 0
2, 53520, Note_on_c, 1, 77, 55
2, 53640, Note_off_c, 1, 77, 0
2, 53640, Note_on_c, 1, 78, 54
2, 53738, Note_off_c, 1, 78, 0
2, 53760, Note_on_c, 1, 79, 43
2, 53880, Note_off_c, 1, 79, 0
2, 53880, Note_on_c, 1, 72, 42
2, 54000, Note_off_c, 1, 72, 0
2, 54000, Note_on_c, 1, 71, 41
2, 54120, Note_off_c, 1, 71, 0
2, 54120, Note_on_c, 1, 72, 40
2, 54240, Note_off_c, 1, 72, 0
2, 54240, Note_on_c, 1, 74, 39
2, 54360, Note_off_c, 1, 74, 0
2, 54360, Note_on_c, 1, 72, 37
2, 54480, Note_off_c, 1, 72, 0
2, 54480, Note_on_c, 1, 71, 36
2, 54600, Note_off_c, 1, 71, 0
2, 54600, Note_on_c, 1, 72, 35
2, 54698, Note_off_c, 1, 72, 0
2, 54840, Note_on_c, 1, 72, 52
2, 54960, Note_off_c, 1, 72, 0
2, 54960, Note_on_c, 1, 71, 51
2, 55080, Note_off_c, 1, 71, 0
2, 55080, Note_on_c, 1, 72, 50
2, 55200, Note_off_c, 1, 72, 0
2, 55320, Note_on_c, 1, 71, 49
2, 55440, Note_off_c, 1, 71, 0
2, 55440, Note_on_c, 1, 72, 48
2, 55560, Note_off_c, 1, 72, 0
2, 55560, Note_on_c, 1, 73, 47
2, 55665, Note_off_c, 1, 73, 0
2, 55680, Note_on_c, 1, 74, 46
2, 55920, Note_off_c, 1, 74, 0
2, 55920, Note_on_c, 1, 75, 47
2, 56160, Note_off_c, 1, 75, 0
2, 56160, Note_on_c, 1, 76, 48
2, 56400, Note_off_c, 1, 76, 0
2, 56400, Note_on_c, 1, 77, 49
2, 56580, Note_off_c, 1, 77, 0
2, 56640, Note_on_c, 1, 74, 50
2, 56700, Note_on_c, 1, 72, 50
2, 56720, Note_off_c, 1, 74, 0
2, 56760, Note_on_c, 1, 74, 51
2, 56780, Note_off_c, 1, 72, 0
2, 56820, Note_on_c, 1, 72, 51
2, 56840, Note_off_c, 1, 74, 0
2, 56880, Note_on_c, 1, 74, 51
2, 56900, Note_off_c, 1, 72, 0
2, 56940, Note_on_c, 1, 72, 51
2, 56960, Note_off_c, 1, 74, 0
2, 57000, Note_on_c, 1, 74, 52
2, 57020, Note_off_c, 1, 72, 0
2, 57060, Note_on_c, 1, 72, 52
2, 57080, Note_off_c, 1, 74, 0
2, 57120, Note_on_c, 1, 74, 52
2, 57140, Note_off_c, 1, 72, 0
2, 57180, Note_on_c, 1, 72, 53
2, 57200, Note_off_c, 1, 74, 0
2, 57240, Note_on_c, 1, 74, 53
2, 57260, Note_off_c, 1, 72, 0
2, 57300, Note_on_c, 1, 72, 53
2, 57320, Note_off_c, 1, 74, 0
2, 57360, Note_on_c, 1, 74, 53
2, 57380, Note_off_c, 1, 72, 0
2, 57420, Note_on_c, 1, 72, 54
2, 57440, Note_off_c, 1, 74, 0
2, 57480, Note_on_c, 1, 70, 54
2, 57500, Note_off_c, 1, 72, 0
2, 57540, Note_on_c, 1, 72, 54
2, 57560, Note_off_c, 1, 70, 0
2, 57600, Note_on_c, 1, 70, 55
2, 57620, Note_off_c, 1, 72, 0
2, 58080, Note_off_c, 1, 70, 0
2, 58560, Note_on_c, 1, 69, 49
2, 58600, Note_on_c, 1, 72, 51
2, 58635, Note_off_c, 1, 69, 0
2, 58640, Note_on_c, 1, 75, 53
2, 58670, Note_off_c, 1, 72, 0
2, 59500, Note_off_c, 1, 75, 0
2, 59520, Note_on_c, 1, 74, 47
2, 59760, Note_on_c, 1, 58, 45
2, 59870, Note_off_c, 1, 74, 0
2, 59880, Note_off_c, 1, 58, 0
2, 59880, Note_on_c, 1, 62, 45
2, 60000, Note_off_c, 1, 62, 0
2, 60000, Note_on_c, 1, 60, 44
2, 60120, Note_off_c, 1, 60, 0
2, 60120, Note_on_c, 1, 63, 43
2, 60240, Note_off_c, 1, 63, 0
2, 60240, Note_on_c, 1, 62, 42
2, 60360, Note_off_c, 1, 62, 0
2, 60360, Note_on_c, 1, 65, 42
2, 60480, Note_off_c, 1, 65, 0
2, 60480, Note_on_c, 1, 63, 41
2, 60600, Note_off_c, 1, 63, 0
2, 60600, Note_on_c, 1, 67, 40
2, 60720, Note_off_c, 1, 67, 0
2, 60720, Note_on_c, 1, 65, 40
2, 60840, Note_off_c, 1, 65, 0
2, 60840, Note_on_c, 1, 68, 39
2, 60960, Note_off_c, 1, 68, 0
2, 60960, Note_on_c, 1, 67, 38
2, 61080, Note_off_c, 1, 67, 0
2, 61080, Note_on_c, 1, 70, 37
2, 61200, Note_off_c, 1, 70, 0
2, 61200, Note_on_c, 1, 68, 37
2, 61320, Note_off_c, 1, 68, 0
2, 61320, Note_on_c, 1, 72, 36
2, 61418, Note_off_c, 1, 72, 0
2, 61440, Control_c, 1, 64, 0
2, 61440, Note_on_c, 1, 70, 36
2, 61800, Note_off_c, 1, 70, 0
2, 61800, Note_on_c, 1, 72, 38
2, 61898, Note_off_c, 1, 72, 0
2, 61920, Note_on_c, 1, 70, 37
2, 62820, Note_off_c, 1, 70, 0
2, 62880, Note_on_c, 1, 82, 39
2, 63840, Note_off_c, 1, 82, 0
2, 63840, Note_on_c, 1, 79, 42
2, 64320, Note_off_c, 1, 79, 0
2, 64320, Note_on_c, 1, 76, 44
2, 64800, Note_off_c, 1, 76, 0
2, 64800, Note_on_c, 1, 70, 47
2, 65220, Note_off_c, 1, 70, 0
2, 65280, Note_on_c, 1, 70, 50
2, 65520, Note_off_c, 1, 70, 0
2, 65520, Note_on_c, 1, 69, 47
2, 65708, Note_off_c, 1, 69, 0
2, 65760, Note_on_c, 1, 69, 44
2, 66660, Note_off_c, 1, 69, 0
2, 66720, Note_on_c, 1, 68, 46
2, 67620, Note_off_c, 1, 68, 0
2, 67680, Note_on_c, 1, 67, 55
2, 67740, Note_on_c, 1, 68, 58
2, 67778, Note_off_c, 1, 67, 0
2, 68580, Note_off_c, 1, 68, 0
2, 68640, Note_on_c, 1, 67, 64
2, 68700, Note_on_c, 1, 68, 69
2, 68760, Note_off_c, 1, 67, 0
2, 69350, Note_off_c, 1, 68, 0
2, 69360, Note_on_c, 1, 80, 70
2, 69600, Note_off_c, 1, 80, 0
2, 69600, Note_on_c, 1, 79, 68
2, 69840, Note_off_c, 1, 79, 0
2, 69840, Note_on_c, 1, 80, 67
2, 70028, Note_off_c, 1, 80, 0
2, 70320, Note_on_c, 1, 77, 64
2, 70560, Note_off_c, 1, 77, 0
2, 70560, Note_on_c, 1, 76, 63
2, 70800, Note_off_c, 1, 76, 0
2, 70800, Note_on_c, 1, 77, 61
2, 70988, Note_off_c, 1, 77, 0
2, 71280, Note_on_c, 1, 74, 59
2, 71520, Note_off_c, 1, 74, 0
2, 71520, Note_on_c, 1, 73, 57
2, 71760, Note_off_c, 1, 73, 0
2, 71760, Note_on_c, 1, 74, 56
2, 71940, Note_off_c, 1, 74, 0
2, 72240, Note_on_c, 1, 68, 53
2, 72480, Note_off_c, 1, 68, 0
2, 72480, Note_on_c, 1, 67, 52
2, 72720, Note_off_c, 1, 67, 0
2, 72720, Note_on_c, 1, 68, 50
2, 72908, Note_off_c, 1, 68, 0
2, 72960, Note_on_c, 1, 67, 49
2, 73853, Note_off_c, 1, 67, 0
2, 73920, Note_on_c, 1, 67, 48
2, 74813, Note_off_c, 1, 67, 0
2, 74880, Note_on_c, 1, 68, 45
2, 75788, Note_off_c, 1, 68, 0
2, 75840, Note_on_c, 1, 69, 56
2, 76748, Note_off_c, 1, 69, 0
2, 76920, Note_on_c, 1, 70, 73
2, 77040, Note_off_c, 1, 70, 0
2, 77040, Note_on_c, 1, 69, 72
2, 77160, Note_off_c, 1, 69, 0
2, 77160, Note_on_c, 1, 70, 72
2, 77280, Note_off_c, 1, 70, 0
2, 77280, Note_on_c, 1, 69, 71
2, 77400, Note_off_c, 1, 69, 0
2, 77400, Note_on_c, 1, 70, 70
2, 77520, Note_off_c, 1, 70, 0
2, 77520, Note_on_c, 1, 72, 69
2, 77640, Note_off_c, 1, 72, 0
2, 77640, Note_on_c, 1, 70, 68
2, 77745, Note_off_c, 1, 70, 0
2, 77880, Note_on_c, 1, 75, 54
2, 78000, Note_off_c, 1, 75, 0
2, 78000, Note_on_c, 1, 74, 54
2, 78120, Note_off_c, 1, 74, 0
2, 78120, Note_on_c, 1, 75, 53
2, 78240, Note_off_c, 1, 75, 0
2, 78240, Note_on_c, 1, 74, 52
2, 78360, Note_off_c, 1, 74, 0
2, 78360, Note_on_c, 1, 72, 51
2, 78480, Note_off_c, 1, 72, 0
2, 78480, Note_on_c, 1, 70, 51
2, 78600, Note_off_c, 1, 70, 0
2, 78600, Note_on_c, 1, 69, 50
2, 78705, Note_off_c, 1, 69, 0
2, 78840, Note_on_c, 1, 70, 65
2, 78960, Note_off_c, 1, 70, 0
2, 78960, Note_on_c, 1, 69, 64
2, 79080, Note_off_c, 1, 69, 0
2, 79080, Note_on_c, 1, 70, 63
2, 79200, Note_off_c, 1, 70, 0
2, 79200, Note_on_c, 1, 69, 63
2, 79320, Note_off_c, 1, 69, 0
2, 79320, Note_on_c, 1, 70, 62
2, 79440, Note_off_c, 1, 70, 0
2, 79440, Note_on_c, 1, 72, 61
2, 79560, Note_off_c, 1, 72, 0
2, 79560, Note_on_c, 1, 70, 60
2, 79665, Note_off_c, 1, 70, 0
2, 79800, Note_on_c, 1, 75, 46
2, 79920, Note_off_c, 1, 75, 0
2, 79920, Note_on_c, 1, 74, 46
2, 80040, Note_off_c, 1, 74, 0
2, 80040, Note_on_c, 1, 75, 45
2, 80160, Note_off_c, 1, 75, 0
2, 80160, Note_on_c, 1, 74, 44
2, 80280, Note_off_c, 1, 74, 0
2, 80280, Note_on_c, 1, 72, 43
2, 80400, Note_off_c, 1, 72, 0
2, 80400, Note_on_c, 1, 70, 43
2, 80520, Note_off_c, 1, 70, 0
2, 80520, Note_on_c, 1, 69, 42
2, 80630, Note_off_c, 1, 69, 0
2, 80640, Note_on_c, 1, 70, 51
2, 80700, Note_on_c, 1, 69, 50
2, 80710, Note_off_c, 1, 70, 0
2, 80760, Note_on_c, 1, 70, 49
2, 80770, Note_off_c, 1, 69, 0
2, 80820, Note_off_c, 1, 70, 0
2, 80820, Note_on_c, 1, 69, 49
2, 80880, Note_on_c, 1, 70, 48
2, 80890, Note_off_c, 1, 69, 0
2, 80940, Note_off_c, 1, 70, 0
2, 80940, Note_on_c, 1, 69, 47
2, 81000, Note_on_c, 1, 68, 47
2, 81010, Note_off_c, 1, 69, 0
2, 81060, Note_off_c, 1, 68, 0
2, 81060, Note_on_c, 1, 69, 46
2, 81120, Note_on_c, 1, 72, 45
2, 81130, Note_off_c, 1, 69, 0
2, 81480, Note_off_c, 1, 72, 0
2, 81480, Note_on_c, 1, 70, 41
2, 81580, Note_off_c, 1, 70, 0
2, 81600, Note_on_c, 1, 70, 38
2, 82560, Note_off_c, 1, 70, 0
2, 82560, Note_on_c, 1, 71, 41
2, 82800, Note_off_c, 1, 71, 0
2, 82800, Note_on_c, 1, 72, 43
2, 83040, Note_off_c, 1, 72, 0
2, 83040, Note_on_c, 1, 74, 45
2, 83280, Note_off_c, 1, 74, 0
2, 83280, Note_on_c, 1, 72, 44
2, 83520, Note_off_c, 1, 72, 0
2, 83520, Note_on_c, 1, 70, 43
2, 83760, Note_off_c, 1, 70, 0
2, 83760, Note_on_c, 1, 68, 41
2, 84000, Note_off_c, 1, 68, 0
2, 84000, Note_on_c, 1, 67, 39
2, 84240, Note_off_c, 1, 67, 0
2, 84240, Note_on_c, 1, 65, 36
2, 84420, Note_off_c, 1, 65, 0
2, 84480, Note_on_c, 1, 67, 34
2, 84960, Note_off_c, 1, 67, 0
2, 85440, Note_on_c, 1, 70, 42
2, 85920, Note_off_c, 1, 70, 0
2, 86820, Note_on_c, 1, 77, 46
2, 86880, Note_off_c, 1, 77, 0
2, 86880, Note_on_c, 1, 75, 47
2, 87000, Note_off_c, 1, 75, 0
2, 87000, Note_on_c, 1, 74, 49
2, 87120, Note_off_c, 1, 74, 0
2, 87120, Note_on_c, 1, 75, 51
2, 87240, Note_off_c, 1, 75, 0
2, 87240, Note_on_c, 1, 77, 54
2, 87345, Note_off_c, 1, 77, 0
2, 87360, Note_on_c, 1, 75, 56
2, 87720, Note_off_c, 1, 75, 0
2, 87840, Note_on_c, 1, 67, 50
2, 88208, Note_off_c, 1, 67, 0
2, 88320, Note_on_c, 1, 70, 45
2, 88800, Note_off_c, 1, 70, 0
2, 88800, Note_on_c, 1, 68, 41
2, 89110, Note_off_c, 1, 68, 0
2, 89280, Note_on_c, 1, 68, 37
2, 89590, Note_off_c, 1, 68, 0
2, 90660, Note_on_c, 1, 77, 49
2, 90720, Note_off_c, 1, 77, 0
2, 90720, Note_on_c, 1, 75, 50
2, 90840, Note_off_c, 1, 75, 0
2, 90840, Note_on_c, 1, 74, 51
2, 90960, Note_off_c, 1, 74, 0
2, 90960, Note_on_c, 1, 75, 52
2, 91080, Note_off_c, 1, 75, 0
2, 91080, Note_on_c, 1, 77, 53
2, 91170, Note_off_c, 1, 77, 0
2, 91200, Note_on_c, 1, 75, 55
2, 91510, Note_off_c, 1, 75, 0
2, 91680, Note_on_c, 1, 73, 60
2, 91990, Note_off_c, 1, 73, 0
2, 92160, Note_on_c, 1, 71, 66
2, 92640, Note_off_c, 1, 71, 0
2, 92640, Note_on_c, 1, 72, 58
2, 92950, Note_off_c, 1, 72, 0
2, 93600, Note_on_c, 1, 72, 57
2, 93910, Note_off_c, 1, 72, 0
2, 94080, Note_on_c, 1, 75, 66
2, 94560, Note_off_c, 1, 75, 0
2, 94560, Note_on_c, 1, 74, 58
2, 94870, Note_off_c, 1, 74, 0
2, 95520, Note_on_c, 1, 70, 55
2, 95830, Note_off_c, 1, 70, 0
2, 96000, Note_on_c, 1, 77, 61
2, 96480, Note_off_c, 1, 77, 0
2, 96480, Note_on_c, 1, 75, 55
2, 96790, Note_off_c, 1, 75, 0
2, 97440, Note_on_c, 1, 75, 61
2, 97750, Note_off_c, 1, 75, 0
2, 97920, Note_on_c, 1, 77, 70
2, 98400, Note_off_c, 1, 77, 0
2, 98400, Note_on_c, 1, 78, 67
2, 98710, Note_off_c, 1, 78, 0
2, 99360, Note_on_c, 1, 75, 60
2, 99670, Note_off_c, 1, 75, 0
2, 99840, Note_on_c, 1, 74, 48
2, 100080, Note_off_c, 1, 74, 0
2, 100080, Note_on_c, 1, 75, 50
2, 100320, Note_off_c, 1, 75, 0
2, 100320, Note_on_c, 1, 74, 52
2, 100560, Note_off_c, 1, 74, 0
2, 100560, Note_on_c, 1, 78, 54
2, 100800, Note_off_c, 1, 78, 0
2, 100800, Note_on_c, 1, 77, 56
2, 101040, Note_off_c, 1, 77, 0
2, 101040, Note_on_c, 1, 81, 57
2, 101280, Note_off_c, 1, 81, 0
2, 101280, Note_on_c, 1, 82, 59
2, 101520, Note_off_c, 1, 82, 0
2, 101520, Note_on_c, 1, 78, 61
2, 101715, Note_off_c, 1, 78, 0
2, 101760, Note_on_c, 1, 78, 66
2, 102720, Note_off_c, 1, 78, 0
2, 102720, Note_on_c, 1, 77, 42
2, 103200, Note_off_c, 1, 77, 0
2, 104880, Note_on_c, 1, 63, 38
2, 105120, Note_off_c, 1, 63, 0
2, 105120, Note_on_c, 1, 67, 39
2, 105360, Note_off_c, 1, 67, 0
2, 105360, Note_on_c, 1, 70, 42
2, 105548, Note_off_c, 1, 70, 0
2, 105600, Note_on_c, 1, 70, 45
2, 105840, Note_off_c, 1, 70, 0
2, 105840, Note_on_c, 1, 68, 44
2, 105936, Note_off_c, 1, 68, 0
2, 106080, Note_on_c, 1, 65, 41
2, 106176, Note_off_c, 1, 65, 0
2, 106320, Note_on_c, 1, 62, 39
2, 106416, Note_off_c, 1, 62, 0
2, 106800, Note_on_c, 1, 62, 43
2, 107040, Note_off_c, 1, 62, 0
2, 107040, Note_on_c, 1, 65, 44
2, 107280, Note_off_c, 1, 65, 0
2, 107280, Note_on_c, 1, 68, 47
2, 107453, Note_off_c, 1, 68, 0
2, 107520, Note_on_c, 1, 72, 50
2, 107760, Note_off_c, 1, 72, 0
2, 107760, Note_on_c, 1, 70, 47
2, 107856, Note_off_c, 1, 70, 0
2, 108000, Note_on_c, 1, 67, 45
2, 108096, Note_off_c, 1, 67, 0
2, 108240, Note_on_c, 1, 63, 43
2, 108336, Note_off_c, 1, 63, 0
2, 108720, Note_on_c, 1, 75, 47
2, 108960, Note_off_c, 1, 75, 0
2, 108960, Note_on_c, 1, 79, 48
2, 109200, Note_off_c, 1, 79, 0
2, 109200, Note_on_c, 1, 82, 51
2, 109380, Note_off_c, 1, 82, 0
2, 109440, Note_on_c, 1, 82, 54
2, 109680, Note_off_c, 1, 82, 0
2, 109680, Note_on_c, 1, 80, 53
2, 109776, Note_off_c, 1, 80, 0
2, 109920, Note_on_c, 1, 77, 51
2, 110016, Note_off_c, 1, 77, 0
2, 110160, Note_on_c, 1, 74, 50
2, 110256, Note_off_c, 1, 74, 0
2, 110640, Note_on_c, 1, 74, 52
2, 110880, Note_off_c, 1, 74, 0
2, 110880, Note_on_c, 1, 77, 54
2, 111120, Note_off_c, 1, 77, 0
2, 111120, Note_on_c, 1, 80, 58
2, 111315, Note_off_c, 1, 80, 0
2, 111360, Note_on_c, 1, 84, 61
2, 111600, Note_off_c, 1, 84, 0
2, 111600, Note_on_c, 1, 82, 58
2, 111696, Note_off_c, 1, 82, 0
2, 111840, Note_on_c, 1, 79, 56
2, 111936, Note_off_c, 1, 79, 0
2, 112080, Note_on_c, 1, 75, 54
2, 112176, Note_off_c, 1, 75, 0
2, 112560, Note_on_c, 1, 70, 70
2, 112710, Note_off_c, 1, 70, 0
2, 112800, Note_on_c, 1, 69, 72
2, 112920, Note_off_c, 1, 69, 0
2, 112920, Note_on_c, 1, 70, 73
2, 113040, Note_off_c, 1, 70, 0
2, 113040, Note_on_c, 1, 74, 74
2, 113160, Note_off_c, 1, 74, 0
2, 113160, Note_on_c, 1, 70, 75
2, 113258, Note_off_c, 1, 70, 0
2, 113280, Note_on_c, 1, 75, 79
2, 113520, Note_off_c, 1, 75, 0
2, 113520, Note_on_c, 1, 70, 76
2, 113700, Note_off_c, 1, 70, 0
2, 113760, Note_on_c, 1, 70, 74
2, 114480, Note_off_c, 1, 70, 0
2, 114480, Note_on_c, 1, 67, 69
2, 114720, Note_off_c, 1, 67, 0
2, 114720, Note_on_c, 1, 70, 68
2, 114840, Note_off_c, 1, 70, 0
2, 114840, Note_on_c, 1, 67, 67
2, 114938, Note_off_c, 1, 67, 0
2, 114960, Note_on_c, 1, 70, 67
2, 115080, Note_off_c, 1, 70, 0
2, 115080, Note_on_c, 1, 67, 66
2, 115185, Note_off_c, 1, 67, 0
2, 115200, Note_on_c, 1, 72, 71
2, 115440, Note_off_c, 1, 72, 0
2, 115440, Note_on_c, 1, 68, 67
2, 115628, Note_off_c, 1, 68, 0
2, 115680, Note_on_c, 1, 68, 63
2, 116390, Note_off_c, 1, 68, 0
2, 116400, Note_on_c, 1, 65, 59
2, 116640, Note_off_c, 1, 65, 0
2, 116640, Note_on_c, 1, 68, 58
2, 116760, Note_off_c, 1, 68, 0
2, 116760, Note_on_c, 1, 65, 57
2, 116850, Note_off_c, 1, 65, 0
2, 116880, Note_on_c, 1, 68, 57
2, 117000, Note_off_c, 1, 68, 0
2, 117000, Note_on_c, 1, 65, 56
2, 117098, Note_off_c, 1, 65, 0
2, 117120, Note_on_c, 1, 70, 61
2, 117360, Note_off_c, 1, 70, 0
2, 117360, Note_on_c, 1, 67, 56
2, 117720, Note_off_c, 1, 67, 0
2, 117720, Note_on_c, 1, 63, 53
2, 117818, Note_off_c, 1, 63, 0
2, 117840, Note_on_c, 1, 67, 52
2, 117960, Note_off_c, 1, 67, 0
2, 117960, Note_on_c, 1, 63, 51
2, 118058, Note_off_c, 1, 63, 0
2, 118080, Note_on_c, 1, 68, 57
2, 118320, Note_off_c, 1, 68, 0
2, 118320, Note_on_c, 1, 65, 54
2, 118680, Note_off_c, 1, 65, 0
2, 118680, Note_on_c, 1, 62, 51
2, 118785, Note_off_c, 1, 62, 0
2, 118800, Note_on_c, 1, 65, 50
2, 118920, Note_off_c, 1, 65, 0
2, 118920, Note_on_c, 1, 62, 49
2, 119025, Note_off_c, 1, 62, 0
2, 119040, Note_on_c, 1, 65, 48
2, 119160, Note_off_c, 1, 65, 0
2, 119160, Note_on_c, 1, 63, 47
2, 119280, Note_off_c, 1, 63, 0
2, 119280, Note_on_c, 1, 62, 48
2, 119400, Note_off_c, 1, 62, 0
2, 119400, Note_on_c, 1, 63, 49
2, 119520, Note_off_c, 1, 63, 0
2, 119520, Note_on_c, 1, 65, 50
2, 119760, Note_off_c, 1, 65, 0
2, 119760, Note_on_c, 1, 67, 52
2, 120000, Note_off_c, 1, 67, 0
2, 120000, Note_on_c, 1, 68, 54
2, 120240, Note_off_c, 1, 68, 0
2, 120240, Note_on_c, 1, 67, 57
2, 120300, Note_on_c, 1, 70, 58
2, 120330, Note_off_c, 1, 67, 0
2, 120480, Note_off_c, 1, 70, 0
2, 120480, Note_on_c, 1, 68, 62
2, 120540, Note_on_c, 1, 72, 63
2, 120570, Note_off_c, 1, 68, 0
2, 120720, Note_on_c, 1, 70, 67
2, 120740, Note_off_c, 1, 72, 0
2, 120780, Note_on_c, 1, 74, 68
2, 120810, Note_off_c, 1, 70, 0
2, 120930, Note_off_c, 1, 74, 0
2, 120960, Note_on_c, 1, 75, 77
2, 121080, Note_off_c, 1, 75, 0
2, 121080, Note_on_c, 1, 82, 77
2, 121200, Note_off_c, 1, 82, 0
2, 121200, Note_on_c, 1, 81, 76
2, 121320, Note_off_c, 1, 81, 0
2, 121320, Note_on_c, 1, 82, 76
2, 121440, Note_off_c, 1, 82, 0
2, 121440, Note_on_c, 1, 84, 75
2, 121560, Note_off_c, 1, 84, 0
2, 121560, Note_on_c, 1, 82, 75
2, 121680, Note_off_c, 1, 82, 0
2, 121680, Note_on_c, 1, 81, 74
2, 121800, Note_off_c, 1, 81, 0
2, 121800, Note_on_c, 1, 82, 74
2, 121905, Note_off_c, 1, 82, 0
2, 122040, Note_on_c, 1, 82, 59
2, 122160, Note_off_c, 1, 82, 0
2, 122160, Note_on_c, 1, 81, 59
2, 122280, Note_off_c, 1, 81, 0
2, 122280, Note_on_c, 1, 82, 58
2, 122400, Note_off_c, 1, 82, 0
2, 122520, Note_on_c, 1, 81, 57
2, 122640, Note_off_c, 1, 81, 0
2, 122640, Note_on_c, 1, 82, 57
2, 122760, Note_off_c, 1, 82, 0
2, 122760, Note_on_c, 1, 83, 57
2, 122858, Note_off_c, 1, 83, 0
2, 122880, Note_on_c, 1, 84, 56
2, 123000, Note_off_c, 1, 84, 0
2, 123000, Note_on_c, 1, 77, 56
2, 123120, Note_off_c, 1, 77, 0
2, 123120, Note_on_c, 1, 76, 56
2, 123240, Note_off_c, 1, 76, 0
2, 123240, Note_on_c, 1, 77, 55
2, 123360, Note_off_c, 1, 77, 0
2, 123360, Note_on_c, 1, 79, 55
2, 123480, Note_off_c, 1, 79, 0
2, 123480, Note_on_c, 1, 77, 54
2, 123600, Note_off_c, 1, 77, 0
2, 123600, Note_on_c, 1, 76, 54
2, 123720, Note_off_c, 1, 76, 0
2, 123720, Note_on_c, 1, 77, 54
2, 123825, Note_off_c, 1, 77, 0
2, 123960, Note_on_c, 1, 77, 71
2, 124080, Note_off_c, 1, 77, 0
2, 124080, Note_on_c, 1, 76, 70
2, 124200, Note_off_c, 1, 76, 0
2, 124200, Note_on_c, 1, 77, 70
2, 124320, Note_off_c, 1, 77, 0
2, 124440, Note_on_c, 1, 76, 69
2, 124560, Note_off_c, 1, 76, 0
2, 124560, Note_on_c, 1, 77, 69
2, 124680, Note_off_c, 1, 77, 0
2, 124680, Note_on_c, 1, 78, 68
2, 124770, Note_off_c, 1, 78, 0
2, 124800, Note_on_c, 1, 79, 68
2, 125040, Note_off_c, 1, 79, 0
2, 125040, Note_on_c, 1, 80, 67
2, 125280, Note_off_c, 1, 80, 0
2, 125280, Note_on_c, 1, 81, 66
2, 125520, Note_off_c, 1, 81, 0
2, 125520, Note_on_c, 1, 82, 65
2, 125730, Note_off_c, 1, 82, 0
2, 125760, Note_on_c, 1, 79, 63
2, 125820, Note_on_c, 1, 77, 62
2, 125840, Note_off_c, 1, 79, 0
2, 125880, Note_on_c, 1, 79, 62
2, 125900, Note_off_c, 1, 77, 0
2, 125940, Note_on_c, 1, 77, 61
2, 125960, Note_off_c, 1, 79, 0
2, 126000, Note_on_c, 1, 79, 61
2, 126020, Note_off_c, 1, 77, 0
2, 126060, Note_on_c, 1, 77, 60
2, 126080, Note_off_c, 1, 79, 0
2, 126120, Note_on_c, 1, 79, 60
2, 126140, Note_off_c, 1, 77, 0
2, 126180, Note_on_c, 1, 77, 59
2, 126200, Note_off_c, 1, 79, 0
2, 126240, Note_on_c, 1, 79, 59
2, 126260, Note_off_c, 1, 77, 0
2, 126300, Note_on_c, 1, 77, 58
2, 126320, Note_off_c, 1, 79, 0
2, 126360, Note_on_c, 1, 79, 57
2, 126380, Note_off_c, 1, 77, 0
2, 126420, Note_on_c, 1, 77, 57
2, 126440, Note_off_c, 1, 79, 0
2, 126480, Note_on_c, 1, 79, 56
2, 126500, Note_off_c, 1, 77, 0
2, 126540, Note_on_c, 1, 77, 56
2, 126560, Note_off_c, 1, 79, 0
2, 126600, Note_on_c, 1, 75, 55
2, 126620, Note_off_c, 1, 77, 0
2, 126660, Note_on_c, 1, 77, 55
2, 126670, Note_off_c, 1, 75, 0
2, 126720, Note_on_c, 1, 75, 54
2, 126725, Note_off_c, 1, 77, 0
2, 127200, Note_off_c, 1, 75, 0
2, 127680, Note_on_c, 1, 74, 52
2, 127720, Note_on_c, 1, 77, 55
2, 127760, Note_on_c, 1, 80, 57
2, 127765, Note_off_c, 1, 74, 0
2, 127805, Note_off_c, 1, 77, 0
2, 128110, Note_off_c, 1, 80, 0
2, 128880, Note_on_c, 1, 79, 50
2, 129000, Note_off_c, 1, 79, 0
2, 129000, Note_on_c, 1, 82, 49
2, 129120, Note_off_c, 1, 82, 0
2, 129120, Note_on_c, 1, 80, 49
2, 129240, Note_off_c, 1, 80, 0
2, 129240, Note_on_c, 1, 77, 49
2, 129360, Note_off_c, 1, 77, 0
2, 129360, Note_on_c, 1, 75, 48
2, 129480, Note_off_c, 1, 75, 0
2, 129480, Note_on_c, 1, 79, 48
2, 129600, Note_off_c, 1, 79, 0
2, 129600, Note_on_c, 1, 77, 47
2, 129720, Note_off_c, 1, 77, 0
2, 129720, Note_on_c, 1, 74, 47
2, 129840, Note_off_c, 1, 74, 0
2, 129840, Note_on_c, 1, 72, 47
2, 129960, Note_off_c, 1, 72, 0
2, 129960, Note_on_c, 1, 75, 46
2, 130080, Note_off_c, 1, 75, 0
2, 130080, Note_on_c, 1, 74, 46
2, 130200, Note_off_c, 1, 74, 0
2, 130200, Note_on_c, 1, 70, 45
2, 130320, Note_off_c, 1, 70, 0
2, 130320, Note_on_c, 1, 68, 45
2, 130440, Note_off_c, 1, 68, 0
2, 130440, Note_on_c, 1, 72, 44
2, 130538, Note_off_c, 1, 72, 0
2, 130560, Note_on_c, 1, 70, 44
2, 131280, Note_off_c, 1, 70, 0
2, 131280, Note_on_c, 1, 72, 50
2, 131475, Note_off_c, 1, 72, 0
2, 131520, Note_on_c, 1, 70, 46
2, 131940, Note_off_c, 1, 70, 0
2, 132000, Note_on_c, 1, 70, 48
2, 132700, Note_off_c, 1, 70, 0
2, 132720, Note_on_c, 1, 71, 50
2, 132960, Note_off_c, 1, 71, 0
2, 132960, Note_on_c, 1, 72, 51
2, 133200, Note_off_c, 1, 72, 0
2, 133200, Note_on_c, 1, 74, 53
2, 133440, Note_off_c, 1, 74, 0
2, 133440, Note_on_c, 1, 75, 54
2, 133680, Note_off_c, 1, 75, 0
2, 133680, Note_on_c, 1, 77, 56
2, 133920, Note_off_c, 1, 77, 0
2, 133920, Note_on_c, 1, 79, 57
2, 134160, Note_off_c, 1, 79, 0
2, 134160, Note_on_c, 1, 75, 59
2, 134355, Note_off_c, 1, 75, 0
2, 134400, Note_on_c, 1, 77, 62
2, 134630, Note_off_c, 1, 77, 0
2, 134640, Note_on_c, 1, 75, 61
2, 134870, Note_off_c, 1, 75, 0
2, 134880, Note_on_c, 1, 74, 57
2, 135840, Note_off_c, 1, 74, 0
2, 135840, Note_on_c, 1, 72, 51
2, 136480, Note_off_c, 1, 72, 0
2, 136480, Note_on_c, 1, 70, 46
2, 136640, Note_off_c, 1, 70, 0
2, 136640, Note_on_c, 1, 74, 45
2, 136800, Note_off_c, 1, 74, 0
2, 136800, Note_on_c, 1, 75, 44
2, 136960, Note_off_c, 1, 75, 0
2, 136960, Note_on_c, 1, 79, 43
2, 137120, Note_off_c, 1, 79, 0
2, 137120, Note_on_c, 1, 71, 41
2, 137250, Note_off_c, 1, 71, 0
2, 137280, Note_on_c, 1, 72, 40
2, 137440, Note_off_c, 1, 72, 0
2, 137440, Note_on_c, 1, 75, 39
2, 137600, Note_off_c, 1, 75, 0
2, 137600, Note_on_c, 1, 67, 38
2, 137760, Note_off_c, 1, 67, 0
2, 137760, Note_on_c, 1, 68, 37
2, 137920, Note_off_c, 1, 68, 0
2, 137920, Note_on_c, 1, 72, 35
2, 138080, Note_off_c, 1, 72, 0
2, 138080, Note_on_c, 1, 65, 34
2, 138210, Note_off_c, 1, 65, 0
2, 138240, Note_on_c, 1, 63, 33
2, 139680, Note_off_c, 1, 63, 0
2, 139680, Note_on_c, 1, 67, 28
2, 139920, Note_off_c, 1, 67, 0
2, 139920, Note_on_c, 1, 65, 30
2, 140123, Note_off_c, 1, 65, 0
2, 140160, Note_on_c, 1, 65, 27
2, 141120, Note_off_c, 1, 65, 0
2, 141120, Note_on_c, 1, 63, 21
2, 141600, Note_off_c, 1, 63, 0
2, 143040, Control_c, 1, 64, 0
2, 143040, Note_on_c, 1, 74, 55
2, 143400, Note_off_c, 1, 74, 0
2, 143400, Note_on_c, 1, 75, 59
2, 143520, Note_off_c, 1, 75, 0
2, 143520, Note_on_c, 1, 72, 61
2, 143760, Note_off_c, 1, 72, 0
2, 143760, Note_on_c, 1, 70, 56
2, 143880, Note_off_c, 1, 70, 0
2, 144000, Note_on_c, 1, 70, 55
2, 144156, Note_off_c, 1, 70, 0
2, 144480, Note_on_c, 1, 70, 52
2, 144636, Note_off_c, 1, 70, 0
2, 144960, Note_on_c, 1, 69, 49
2, 145320, Note_off_c, 1, 69, 0
2, 145920, Note_on_c, 1, 75, 57
2, 146280, Note_off_c, 1, 75, 0
2, 146280, Note_on_c, 1, 77, 61
2, 146400, Note_off_c, 1, 77, 0
2, 146400, Note_on_c, 1, 74, 62
2, 146640, Note_off_c, 1, 74, 0
2, 146640, Note_on_c, 1, 72, 60
2, 146760, Note_off_c, 1, 72, 0
2, 146880, Note_on_c, 1, 72, 58
2, 147036, Note_off_c, 1, 72, 0
2, 147360, Note_on_c, 1, 72, 54
2, 147516, Note_off_c, 1, 72, 0
2, 147840, Note_on_c, 1, 70, 51
2, 148200, Note_off_c, 1, 70, 0
2, 148800, Note_on_c, 1, 74, 67
2, 149160, Note_off_c, 1, 74, 0
2, 149160, Note_on_c, 1, 75, 72
2, 149256, Note_off_c, 1, 75, 0
2, 149280, Note_on_c, 1, 77, 75
2, 149520, Note_off_c, 1, 77, 0
2, 149520, Note_on_c, 1, 79, 73
2, 149760, Note_off_c, 1, 79, 0
2, 149760, Note_on_c, 1, 75, 72
2, 150000, Note_off_c, 1, 75, 0
2, 150000, Note_on_c, 1, 72, 72
2, 150240, Note_off_c, 1, 72, 0
2, 150240, Note_on_c, 1, 74, 71
2, 150480, Note_off_c, 1, 74, 0
2, 150480, Note_on_c, 1, 75, 70
2, 150680, Note_off_c, 1, 75, 0
2, 150720, Note_on_c, 1, 77, 70
2, 150960, Note_off_c, 1, 77, 0
2, 150960, Note_on_c, 1, 79, 69
2, 151200, Note_off_c, 1, 79, 0
2, 151200, Note_on_c, 1, 75, 68
2, 151440, Note_off_c, 1, 75, 0
2, 151440, Note_on_c, 1, 72, 68
2, 151680, Note_off_c, 1, 72, 0
2, 151680, Note_on_c, 1, 74, 67
2, 151920, Note_off_c, 1, 74, 0
2, 151920, Note_on_c, 1, 75, 66
2, 152160, Note_off_c, 1, 75, 0
2, 152160, Note_on_c, 1, 77, 66
2, 152365, Note_off_c, 1, 77, 0
2, 152400, Note_on_c, 1, 82, 59
2, 152640, Note_off_c, 1, 82, 0
2, 152640, Note_on_c, 1, 81, 58
2, 152880, Note_off_c, 1, 81, 0
2, 152880, Note_on_c, 1, 79, 57
2, 153120, Note_off_c, 1, 79, 0
2, 153120, Note_on_c, 1, 77, 56
2, 153360, Note_off_c, 1, 77, 0
2, 153360, Note_on_c, 1, 76, 55
2, 153600, Note_off_c, 1, 76, 0
2, 153600, Note_on_c, 1, 74, 54
2, 153840, Note_off_c, 1, 74, 0
2, 153840, Note_on_c, 1, 72, 53
2, 154080, Note_off_c, 1, 72, 0
2, 154080, Note_on_c, 1, 71, 51
2, 154320, Note_off_c, 1, 71, 0
2, 154320, Note_on_c, 1, 70, 50
2, 154560, Note_off_c, 1, 70, 0
2, 154560, Note_on_c, 1, 69, 49
2, 154800, Note_off_c, 1, 69, 0
2, 154800, Note_on_c, 1, 67, 48
2, 155000, Note_off_c, 1, 67, 0
2, 155040, Note_on_c, 1, 72, 67
2, 155400, Note_off_c, 1, 72, 0
2, 155400, Note_on_c, 1, 74, 65
2, 155520, Note_off_c, 1, 74, 0
2, 155520, Note_on_c, 1, 65, 65
2, 155676, Note_off_c, 1, 65, 0
2, 156000, Note_on_c, 1, 64, 62
2, 156156, Note_off_c, 1, 64, 0
2, 156480, Note_on_c, 1, 65, 60
2, 156960, Note_off_c, 1, 65, 0
2, 157440, Note_on_c, 1, 74, 55
2, 157800, Note_off_c, 1, 74, 0
2, 157800, Note_on_c, 1, 72, 59
2, 157896, Note_off_c, 1, 72, 0
2, 157920, Note_on_c, 1, 72, 60
2, 158400, Note_off_c, 1, 72, 0
2, 158880, Note_on_c, 1, 76, 65
2, 159240, Note_off_c, 1, 76, 0
2, 159240, Note_on_c, 1, 77, 69
2, 159336, Note_off_c, 1, 77, 0
2, 159360, Note_on_c, 1, 77, 70
2, 159840, Note_off_c, 1, 77, 0
2, 160320, Control_c, 1, 64, 0
2, 160400, Note_on_c, 1, 80, 79
2, 160685, Note_off_c, 1, 80, 0
2, 160880, Note_on_c, 1, 79, 83
2, 161160, Note_off_c, 1, 79, 0
2, 161360, Note_on_c, 1, 78, 81
2, 161648, Note_off_c, 1, 78, 0
2, 161840, Note_on_c, 1, 77, 78
2, 162115, Note_off_c, 1, 77, 0
2, 162320, Note_on_c, 1, 76, 76
2, 162600, Note_off_c, 1, 76, 0
2, 162800, Note_on_c, 1, 75, 73
2, 163080, Note_off_c, 1, 75, 0
2, 163280, Note_on_c, 1, 74, 70
2, 163568, Note_off_c, 1, 74, 0
2, 164160, Note_on_c, 1, 72, 62
2, 164640, Note_off_c, 1, 72, 0
2, 164640, Note_on_c, 1, 73, 61
2, 165060, Note_off_c, 1, 73, 0
2, 165120, Note_on_c, 1, 70, 59
2, 165360, Note_off_c, 1, 70, 0
2, 165360, Note_on_c, 1, 69, 58
2, 165560, Note_off_c, 1, 69, 0
2, 165600, Note_on_c, 1, 67, 57
2, 165793, Note_off_c, 1, 67, 0
2, 165840, Note_on_c, 1, 65, 56
2, 166033, Note_off_c, 1, 65, 0
2, 166080, Note_on_c, 1, 70, 55
2, 166495, Note_off_c, 1, 70, 0
2, 166560, Note_on_c, 1, 75, 69
2, 167040, Note_off_c, 1, 75, 0
2, 167040, Note_on_c, 1, 74, 67
2, 167400, Note_off_c, 1, 74, 0
2, 167400, Note_on_c, 1, 72, 66
2, 167496, Note_off_c, 1, 72, 0
2, 167520, Note_on_c, 1, 74, 65
2, 167880, Note_off_c, 1, 74, 0
2, 167880, Note_on_c, 1, 75, 64
2, 167976, Note_off_c, 1, 75, 0
2, 168000, Note_on_c, 1, 74, 64
2, 168480, Note_off_c, 1, 74, 0
2, 168480, Note_on_c, 1, 72, 62
2, 168864, Note_off_c, 1, 72, 0
2, 174720, Note_on_c, 1, 74, 69
2, 175080, Note_off_c, 1, 74, 0
2, 175080, Note_on_c, 1, 75, 73
2, 175180, Note_off_c, 1, 75, 0
2, 175200, Note_on_c, 1, 77, 75
2, 175440, Note_off_c, 1, 77, 0
2, 175440, Note_on_c, 1, 79, 73
2, 175680, Note_off_c, 1, 79, 0
2, 175680, Note_on_c, 1, 75, 72
2, 175920, Note_off_c, 1, 75, 0
2, 175920, Note_on_c, 1, 72, 71
2, 176160, Note_off_c, 1, 72, 0
2, 176160, Note_on_c, 1, 74, 71
2, 176400, Note_off_c, 1, 74, 0
2, 176400, Note_on_c, 1, 75, 70
2, 176600, Note_off_c, 1, 75, 0
2, 176640, Note_on_c, 1, 77, 69
2, 176880, Note_off_c, 1, 77, 0
2, 176880, Note_on_c, 1, 79, 68
2, 177120, Note_off_c, 1, 79, 0
2, 177120, Note_on_c, 1, 75, 68
2, 177360, Note_off_c, 1, 75, 0
2, 177360, Note_on_c, 1, 72, 67
2, 177600, Note_off_c, 1, 72, 0
2, 177600, Note_on_c, 1, 74, 66
2, 177840, Note_off_c, 1, 74, 0
2, 177840, Note_on_c, 1, 75, 65
2, 178080, Note_off_c, 1, 75, 0
2, 178080, Note_on_c, 1, 77, 64
2, 178280, Note_off_c, 1, 77, 0
2, 178320, Note_on_c, 1, 87, 57
2, 178560, Note_off_c, 1, 87, 0
2, 178560, Note_on_c, 1, 86, 56
2, 178800, Note_off_c, 1, 86, 0
2, 178800, Note_on_c, 1, 84, 55
2, 179040, Note_off_c, 1, 84, 0
2, 179040, Note_on_c, 1, 82, 54
2, 179280, Note_off_c, 1, 82, 0
2, 179280, Note_on_c, 1, 81, 53
2, 179520, Note_off_c, 1, 81, 0
2, 179520, Note_on_c, 1, 79, 52
2, 179760, Note_off_c, 1, 79, 0
2, 179760, Note_on_c, 1, 77, 52
2, 180000, Note_off_c, 1, 77, 0
2, 180000, Note_on_c, 1, 76, 51
2, 180240, Note_off_c, 1, 76, 0
2, 180240, Note_on_c, 1, 75, 50
2, 180480, Note_off_c, 1, 75, 0
2, 180480, Note_on_c, 1, 74, 49
2, 180720, Note_off_c, 1, 74, 0
2, 180720, Note_on_c, 1, 72, 48
2, 180920, Note_off_c, 1, 72, 0
2, 180960, Note_on_c, 1, 77, 67
2, 181320, Note_off_c, 1, 77, 0
2, 181320, Note_on_c, 1, 79, 65
2, 181416, Note_off_c, 1, 79, 0
2, 181440, Note_on_c, 1, 70, 64
2, 181596, Note_off_c, 1, 70, 0
2, 181920, Note_on_c, 1, 69, 61
2, 182076, Note_off_c, 1, 69, 0
2, 182400, Note_on_c, 1, 70, 58
2, 182784, Note_off_c, 1, 70, 0
2, 183360, Note_on_c, 1, 79, 47
2, 183720, Note_off_c, 1, 79, 0
2, 183720, Note_on_c, 1, 77, 51
2, 183816, Note_off_c, 1, 77, 0
2, 183840, Note_on_c, 1, 77, 53
2, 184224, Note_off_c, 1, 77, 0
2, 184800, Note_on_c, 1, 81, 53
2, 185160, Note_on_c, 1, 82, 58
2, 185168, Note_off_c, 1, 81, 0
2, 185256, Note_off_c, 1, 82, 0
2, 185280, Note_on_c, 1, 82, 61
2, 185664, Note_off_c, 1, 82, 0
2, 186240, Note_on_c, 1, 74, 65
2, 186600, Note_off_c, 1, 74, 0
2, 186600, Note_on_c, 1, 70, 70
2, 186696, Note_off_c, 1, 70, 0
2, 186720, Note_on_c, 1, 75, 72
2, 187680, Note_off_c, 1, 75, 0
2, 187680, Note_on_c, 1, 72, 67
2, 188040, Note_off_c, 1, 72, 0
2, 188040, Note_on_c, 1, 69, 65
2, 188136, Note_off_c, 1, 69, 0
2, 188160, Note_on_c, 1, 70, 64
2, 188544, Note_off_c, 1, 70, 0
2, 189120, Control_c, 1, 64, 0
2, 189120, Note_on_c, 1, 70, 42
2, 189240, Note_off_c, 1, 70, 0
2, 189240, Note_on_c, 1, 72, 44
2, 189360, Note_off_c, 1, 72, 0
2, 189360, Note_on_c, 1, 70, 45
2, 189480, Note_off_c, 1, 70, 0
2, 189480, Note_on_c, 1, 69, 46
2, 189600, Note_off_c, 1, 69, 0
2, 189600, Note_on_c, 1, 70, 47
2, 189984, Note_off_c, 1, 70, 0
2, 190440, Note_on_c, 1, 70, 54
2, 190560, Note_off_c, 1, 70, 0
2, 190560, Note_on_c, 1, 75, 55
2, 190848, Note_off_c, 1, 75, 0
2, 190920, Note_on_c, 1, 75, 58
2, 191016, Note_off_c, 1, 75, 0
2, 191040, Note_on_c, 1, 75, 65
2, 191520, Note_off_c, 1, 75, 0
2, 191520, Note_on_c, 1, 74, 58
2, 191833, Note_off_c, 1, 74, 0
2, 192000, Note_on_c, 1, 70, 50
2, 192120, Note_off_c, 1, 70, 0
2, 192120, Note_on_c, 1, 72, 51
2, 192240, Note_off_c, 1, 72, 0
2, 192240, Note_on_c, 1, 70, 52
2, 192360, Note_off_c, 1, 70, 0
2, 192360, Note_on_c, 1, 69, 53
2, 192480, Note_off_c, 1, 69, 0
2, 192480, Note_on_c, 1, 70, 54
2, 192864, Note_off_c, 1, 70, 0
2, 193320, Note_on_c, 1, 70, 61
2, 193440, Note_off_c, 1, 70, 0
2, 193440, Note_on_c, 1, 79, 62
2, 193728, Note_off_c, 1, 79, 0
2, 193800, Note_on_c, 1, 79, 65
2, 193896, Note_off_c, 1, 79, 0
2, 193920, Note_on_c, 1, 82, 70
2, 194400, Note_off_c, 1, 82, 0
2, 194400, Note_on_c, 1, 80, 64
2, 194713, Note_off_c, 1, 80, 0
2, 194880, Note_on_c, 1, 80, 59
2, 195000, Note_off_c, 1, 80, 0
2, 195000, Note_on_c, 1, 82, 59
2, 195120, Note_off_c, 1, 82, 0
2, 195120, Note_on_c, 1, 80, 59
2, 195240, Note_off_c, 1, 80, 0
2, 195240, Note_on_c, 1, 77, 58
2, 195345, Note_off_c, 1, 77, 0
2, 195360, Note_on_c, 1, 79, 58
2, 195480, Note_off_c, 1, 79, 0
2, 195480, Note_on_c, 1, 80, 57
2, 195600, Note_off_c, 1, 80, 0
2, 195600, Note_on_c, 1, 79, 57
2, 195720, Note_off_c, 1, 79, 0
2, 195720, Note_on_c, 1, 75, 57
2, 195825, Note_off_c, 1, 75, 0
2, 195840, Note_on_c, 1, 82, 56
2, 195944, Note_off_c, 1, 82, 0
2, 196000, Note_on_c, 1, 80, 56
2, 196104, Note_off_c, 1, 80, 0
2, 196160, Note_on_c, 1, 79, 55
2, 196264, Note_off_c, 1, 79, 0
2, 196320, Note_on_c, 1, 77, 55
2, 196424, Note_off_c, 1, 77, 0
2, 196480, Note_on_c, 1, 75, 54
2, 196584, Note_off_c, 1, 75, 0
2, 196640, Note_on_c, 1, 73, 54
2, 196744, Note_off_c, 1, 73, 0
2, 196800, Note_on_c, 1, 72, 53
2, 196920, Note_off_c, 1, 72, 0
2, 196920, Note_on_c, 1, 73, 53
2, 197040, Note_off_c, 1, 73, 0
2, 197040, Note_on_c, 1, 72, 53
2, 197160, Note_off_c, 1, 72, 0
2, 197160, Note_on_c, 1, 68, 52
2, 197280, Note_off_c, 1, 68, 0
2, 197280, Note_on_c, 1, 84, 52
2, 197440, Note_off_c, 1, 84, 0
2, 197440, Note_on_c, 1, 82, 51
2, 197600, Note_off_c, 1, 82, 0
2, 197600, Note_on_c, 1, 80, 51
2, 197760, Note_off_c, 1, 80, 0
2, 197760, Note_on_c, 1, 79, 50
2, 197920, Note_off_c, 1, 79, 0
2, 197920, Note_on_c, 1, 77, 50
2, 198080, Note_off_c, 1, 77, 0
2, 198080, Note_on_c, 1, 76, 49
2, 198225, Note_off_c, 1, 76, 0
2, 198240, Note_on_c, 1, 77, 49
2, 198360, Note_off_c, 1, 77, 0
2, 198360, Note_on_c, 1, 79, 48
2, 198480, Note_off_c, 1, 79, 0
2, 198480, Note_on_c, 1, 77, 48
2, 198600, Note_off_c, 1, 77, 0
2, 198600, Note_on_c, 1, 72, 48
2, 198710, Note_off_c, 1, 72, 0
2, 198720, Note_on_c, 1, 84, 47
2, 198848, Note_off_c, 1, 84, 0
2, 198880, Note_on_c, 1, 82, 47
2, 199008, Note_off_c, 1, 82, 0
2, 199040, Note_on_c, 1, 80, 46
2, 199168, Note_off_c, 1, 80, 0
2, 199200, Note_on_c, 1, 79, 46
2, 199328, Note_off_c, 1, 79, 0
2, 199360, Note_on_c, 1, 77, 45
2, 199488, Note_off_c, 1, 77, 0
2, 199520, Note_on_c, 1, 75, 45
2, 199648, Note_off_c, 1, 75, 0
2, 199680, Note_on_c, 1, 75, 44
2, 200160, Note_off_c, 1, 75, 0
2, 200160, Note_on_c, 1, 74, 40
2, 200544, Note_off_c, 1, 74, 0
2, 200640, Note_on_c, 1, 77, 45
2, 200760, Note_off_c, 1, 77, 0
2, 200760, Note_on_c, 1, 79, 46
2, 200880, Note_off_c, 1, 79, 0
2, 200880, Note_on_c, 1, 77, 48
2, 201000, Note_off_c, 1, 77, 0
2, 201000, Note_on_c, 1, 74, 49
2, 201100, Note_off_c, 1, 74, 0
2, 201120, Note_on_c, 1, 75, 53
2, 201360, Note_off_c, 1, 75, 0
2, 201600, Note_on_c, 1, 72, 49
2, 201840, Note_off_c, 1, 72, 0
2, 202080, Note_on_c, 1, 81, 55
2, 202200, Note_off_c, 1, 81, 0
2, 202200, Note_on_c, 1, 82, 58
2, 202320, Note_off_c, 1, 82, 0
2, 202320, Note_on_c, 1, 81, 61
2, 202440, Note_off_c, 1, 81, 0
2, 202440, Note_on_c, 1, 77, 64
2, 202545, Note_off_c, 1, 77, 0
2, 202560, Note_on_c, 1, 82, 71
2, 203040, Note_off_c, 1, 82, 0
2, 203040, Note_on_c, 1, 86, 62
2, 203280, Note_off_c, 1, 86, 0
2, 203520, Note_on_c, 1, 77, 53
2, 203616, Note_off_c, 1, 77, 0
2, 203640, Note_on_c, 1, 79, 55
2, 203736, Note_off_c, 1, 79, 0
2, 203760, Note_on_c, 1, 77, 56
2, 203856, Note_off_c, 1, 77, 0
2, 203880, Note_on_c, 1, 74, 58
2, 203976, Note_off_c, 1, 74, 0
2, 204000, Note_on_c, 1, 75, 61
2, 204193, Note_off_c, 1, 75, 0
2, 204480, Note_on_c, 1, 72, 56
2, 204673, Note_off_c, 1, 72, 0
2, 204960, Note_on_c, 1, 81, 60
2, 205080, Note_off_c, 1, 81, 0
2, 205080, Note_on_c, 1, 82, 63
2, 205200, Note_off_c, 1, 82, 0
2, 205200, Note_on_c, 1, 81, 65
2, 205320, Note_off_c, 1, 81, 0
2, 205320, Note_on_c, 1, 77, 68
2, 205420, Note_off_c, 1, 77, 0
2, 205440, Note_on_c, 1, 82, 73
2, 205920, Note_off_c, 1, 82, 0
2, 205920, Note_on_c, 1, 86, 63
2, 206160, Note_off_c, 1, 86, 0
2, 206400, Note_on_c, 1, 84, 57
2, 206520, Note_off_c, 1, 84, 0
2, 206520, Note_on_c, 1, 82, 56
2, 206640, Note_off_c, 1, 82, 0
2, 206640, Note_on_c, 1, 81, 55
2, 206760, Note_off_c, 1, 81, 0
2, 206760, Note_on_c, 1, 79, 55
2, 206865, Note_off_c, 1, 79, 0
2, 206880, Note_on_c, 1, 79, 54
2, 207120, Note_off_c, 1, 79, 0
2, 207120, Note_on_c, 1, 77, 53
2, 207320, Note_off_c, 1, 77, 0
2, 207360, Note_on_c, 1, 77, 51
2, 207673, Note_off_c, 1, 77, 0
2, 207840, Note_on_c, 1, 79, 48
2, 207960, Note_off_c, 1, 79, 0
2, 207960, Note_on_c, 1, 77, 48
2, 208080, Note_off_c, 1, 77, 0
2, 208080, Note_on_c, 1, 75, 47
2, 208200, Note_off_c, 1, 75, 0
2, 208200, Note_on_c, 1, 74, 46
2, 208305, Note_off_c, 1, 74, 0
2, 208320, Note_on_c, 1, 74, 46
2, 208560, Note_off_c, 1, 74, 0
2, 208560, Note_on_c, 1, 72, 44
2, 208760, Note_off_c, 1, 72, 0
2, 208800, Note_on_c, 1, 72, 43
2, 209113, Note_off_c, 1, 72, 0
2, 209280, Note_on_c, 1, 72, 40
2, 209593, Note_off_c, 1, 72, 0
2, 209760, Note_on_c, 1, 74, 67
2, 209820, Note_on_c, 1, 76, 69
2, 209850, Note_off_c, 1, 74, 0
2, 209880, Note_on_c, 1, 77, 71
2, 209918, Note_off_c, 1, 76, 0
2, 210480, Note_off_c, 1, 77, 0
2, 210720, Note_on_c, 1, 77, 54
2, 210840, Note_off_c, 1, 77, 0
2, 210840, Note_on_c, 1, 75, 52
2, 210960, Note_off_c, 1, 75, 0
2, 210960, Note_on_c, 1, 74, 50
2, 211080, Note_off_c, 1, 74, 0
2, 211080, Note_on_c, 1, 72, 48
2, 211180, Note_off_c, 1, 72, 0
2, 211200, Note_on_c, 1, 70, 45
2, 211680, Note_off_c, 1, 70, 0
2, 212160, Control_c, 1, 64, 0
2, 212160, Note_on_c, 1, 70, 42
2, 212280, Note_off_c, 1, 70, 0
2, 212280, Note_on_c, 1, 72, 44
2, 212400, Note_off_c, 1, 72, 0
2, 212400, Note_on_c, 1, 70, 45
2, 212520, Note_off_c, 1, 70, 0
2, 212520, Note_on_c, 1, 69, 46
2, 212640, Note_off_c, 1, 69, 0
2, 212640, Note_on_c, 1, 70, 47
2, 213024, Note_off_c, 1, 70, 0
2, 213480, Note_on_c, 1, 70, 54
2, 213600, Note_off_c, 1, 70, 0
2, 213600, Note_on_c, 1, 75, 55
2, 213888, Note_off_c, 1, 75, 0
2, 213960, Note_on_c, 1, 75, 58
2, 214056, Note_off_c, 1, 75, 0
2, 214080, Note_on_c, 1, 75, 65
2, 214560, Note_off_c, 1, 75, 0
2, 214560, Note_on_c, 1, 74, 58
2, 214873, Note_off_c, 1, 74, 0
2, 215040, Note_on_c, 1, 70, 50
2, 215160, Note_off_c, 1, 70, 0
2, 215160, Note_on_c, 1, 72, 51
2, 215280, Note_off_c, 1, 72, 0
2, 215280, Note_on_c, 1, 70, 52
2, 215400, Note_off_c, 1, 70, 0
2, 215400, Note_on_c, 1, 69, 53
2, 215520, Note_off_c, 1, 69, 0
2, 215520, Note_on_c, 1, 70, 54
2, 215904, Note_off_c, 1, 70, 0
2, 216360, Note_on_c, 1, 70, 61
2, 216480, Note_off_c, 1, 70, 0
2, 216480, Note_on_c, 1, 79, 62
2, 216768, Note_off_c, 1, 79, 0
2, 216840, Note_on_c, 1, 79, 65
2, 216936, Note_off_c, 1, 79, 0
2, 216960, Note_on_c, 1, 82, 70
2, 217440, Note_off_c, 1, 82, 0
2, 217440, Note_on_c, 1, 80, 64
2, 217753, Note_off_c, 1, 80, 0
2, 217920, Note_on_c, 1, 80, 59
2, 218040, Note_off_c, 1, 80, 0
2, 218040, Note_on_c, 1, 82, 59
2, 218160, Note_off_c, 1, 82, 0
2, 218160, Note_on_c, 1, 80, 59
2, 218280, Note_off_c, 1, 80, 0
2, 218280, Note_on_c, 1, 77, 58
2, 218385, Note_off_c, 1, 77, 0
2, 218400, Note_on_c, 1, 79, 58
2, 218520, Note_off_c, 1, 79, 0
2, 218520, Note_on_c, 1, 80, 57
2, 218640, Note_off_c, 1, 80, 0
2, 218640, Note_on_c, 1, 79, 57
2, 218760, Note_off_c, 1, 79, 0
2, 218760, Note_on_c, 1, 75, 57
2, 218865, Note_off_c, 1, 75, 0
2, 218880, Note_on_c, 1, 82, 56
2, 218984, Note_off_c, 1, 82, 0
2, 219040, Note_on_c, 1, 80, 56
2, 219144, Note_off_c, 1, 80, 0
2, 219200, Note_on_c, 1, 79, 55
2, 219304, Note_off_c, 1, 79, 0
2, 219360, Note_on_c, 1, 77, 55
2, 219464, Note_off_c, 1, 77, 0
2, 219520, Note_on_c, 1, 75, 54
2, 219624, Note_off_c, 1, 75, 0
2, 219680, Note_on_c, 1, 73, 54
2, 219784, Note_off_c, 1, 73, 0
2, 219840, Note_on_c, 1, 72, 53
2, 219960, Note_off_c, 1, 72, 0
2, 219960, Note_on_c, 1, 73, 53
2, 220080, Note_off_c, 1, 73, 0
2, 220080, Note_on_c, 1, 72, 53
2, 220200, Note_off_c, 1, 72, 0
2, 220200, Note_on_c, 1, 68, 52
2, 220320, Note_off_c, 1, 68, 0
2, 220320, Note_on_c, 1, 84, 52
2, 220480, Note_off_c, 1, 84, 0
2, 220480, Note_on_c, 1, 82, 51
2, 220640, Note_off_c, 1, 82, 0
2, 220640, Note_on_c, 1, 80, 51
2, 220800, Note_off_c, 1, 80, 0
2, 220800, Note_on_c, 1, 79, 50
2, 220960, Note_off_c, 1, 79, 0
2, 220960, Note_on_c, 1, 77, 50
2, 221120, Note_off_c, 1, 77, 0
2, 221120, Note_on_c, 1, 76, 49
2, 221265, Note_off_c, 1, 76, 0
2, 221280, Note_on_c, 1, 77, 49
2, 221400, Note_off_c, 1, 77, 0
2, 221400, Note_on_c, 1, 79, 48
2, 221520, Note_off_c, 1, 79, 0
2, 221520, Note_on_c, 1, 77, 48
2, 221640, Note_off_c, 1, 77, 0
2, 221640, Note_on_c, 1, 72, 48
2, 221750, Note_off_c, 1, 72, 0
2, 221760, Note_on_c, 1, 84, 47
2, 221888, Note_off_c, 1, 84, 0
2, 221920, Note_on_c, 1, 82, 47
2, 222048, Note_off_c, 1, 82, 0
2, 222080, Note_on_c, 1, 80, 46
2, 222208, Note_off_c, 1, 80, 0
2, 222240, Note_on_c, 1, 79, 46
2, 222368, Note_off_c, 1, 79, 0
2, 222400, Note_on_c, 1, 77, 45
2, 222528, Note_off_c, 1, 77, 0
2, 222560, Note_on_c, 1, 75, 45
2, 222688, Note_off_c, 1, 75, 0
2, 222720, Note_on_c, 1, 75, 44
2, 223200, Note_off_c, 1, 75, 0
2, 223200, Note_on_c, 1, 74, 40
2, 223584, Note_off_c, 1, 74, 0
2, 223680, Note_on_c, 1, 77, 45
2, 223800, Note_off_c, 1, 77, 0
2, 223800, Note_on_c, 1, 79, 46
2, 223920, Note_off_c, 1, 79, 0
2, 223920, Note_on_c, 1, 77, 48
2, 224040, Note_off_c, 1, 77, 0
2, 224040, Note_on_c, 1, 74, 49
2, 224140, Note_off_c, 1, 74, 0
2, 224160, Note_on_c, 1, 75, 53
2, 224400, Note_off_c, 1, 75, 0
2, 224640, Note_on_c, 1, 72, 49
2, 224880, Note_off_c, 1, 72, 0
2, 225120, Note_on_c, 1, 81, 55
2, 225240, Note_off_c, 1, 81, 0
2, 225240, Note_on_c, 1, 82, 58
2, 225360, Note_off_c, 1, 82, 0
2, 225360, Note_on_c, 1, 81, 61
2, 225480, Note_off_c, 1, 81, 0
2, 225480, Note_on_c, 1, 77, 64
2, 225585, Note_off_c, 1, 77, 0
2, 225600, Note_on_c, 1, 82, 71
2, 226080, Note_off_c, 1, 82, 0
2, 226080, Note_on_c, 1, 86, 62
2, 226320, Note_off_c, 1, 86, 0
2, 226560, Note_on_c, 1, 77, 53
2, 226656, Note_off_c, 1, 77, 0
2, 226680, Note_on_c, 1, 79, 55
2, 226776, Note_off_c, 1, 79, 0
2, 226800, Note_on_c, 1, 77, 56
2, 226896, Note_off_c, 1, 77, 0
2, 226920, Note_on_c, 1, 74, 58
2, 227016, Note_off_c, 1, 74, 0
2, 227040, Note_on_c, 1, 75, 61
2, 227233, Note_off_c, 1, 75, 0
2, 227520, Note_on_c, 1, 72, 56
2, 227713, Note_off_c, 1, 72, 0
2, 228000, Note_on_c, 1, 81, 60
2, 228120, Note_off_c, 1, 81, 0
2, 228120, Note_on_c, 1, 82, 63
2, 228240, Note_off_c, 1, 82, 0
2, 228240, Note_on_c, 1, 81, 65
2, 228360, Note_off_c, 1, 81, 0
2, 228360, Note_on_c, 1, 77, 68
2, 228460, Note_off_c, 1, 77, 0
2, 228480, Note_on_c, 1, 82, 73
2, 228960, Note_off_c, 1, 82, 0
2, 228960, Note_on_c, 1, 86, 63
2, 229200, Note_off_c, 1, 86, 0
2, 229440, Note_on_c, 1, 84, 57
2, 229560, Note_off_c, 1, 84, 0
2, 229560, Note_on_c, 1, 82, 56
2, 229680, Note_off_c, 1, 82, 0
2, 229680, Note_on_c, 1, 81, 55
2, 229800, Note_off_c, 1, 81, 0
2, 229800, Note_on_c, 1, 79, 55
2, 229905, Note_off_c, 1, 79, 0
2, 229920, Note_on_c, 1, 79, 54
2, 230160, Note_off_c, 1, 79, 0
2, 230160, Note_on_c, 1, 77, 53
2, 230360, Note_off_c, 1, 77, 0
2, 230400, Note_on_c, 1, 77, 51
2, 230713, Note_off_c, 1, 77, 0
2, 230880, Note_on_c, 1, 79, 48
2, 231000, Note_off_c, 1, 79, 0
2, 231000, Note_on_c, 1, 77, 48
2, 231120, Note_off_c, 1, 77, 0
2, 231120, Note_on_c, 1, 75, 47
2, 231240, Note_off_c, 1, 75, 0
2, 231240, Note_on_c, 1, 74, 46
2, 231345, Note_off_c, 1, 74, 0
2, 231360, Note_on_c, 1, 74, 46
2, 231600, Note_off_c, 1, 74, 0
2, 231600, Note_on_c, 1, 72, 44
2, 231800, Note_off_c, 1, 72, 0
2, 231840, Note_on_c, 1, 72, 43
2, 232153, Note_off_c, 1, 72, 0
2, 232320, Note_on_c, 1, 72, 40
2, 232633, Note_off_c, 1, 72, 0
2, 232800, Note_on_c, 1, 74, 67
2, 232860, Note_on_c, 1, 76, 69
2, 232890, Note_off_c, 1, 74, 0
2, 232920, Note_on_c, 1, 77, 71
2, 232958, Note_off_c, 1, 76, 0
2, 233520, Note_off_c, 1, 77, 0
2, 233760, Note_on_c, 1, 77, 54
2, 233880, Note_off_c, 1, 77, 0
2, 233880, Note_on_c, 1, 75, 52
2, 234000, Note_off_c, 1, 75, 0
2, 234000, Note_on_c, 1, 74, 50
2, 234120, Note_off_c, 1, 74, 0
2, 234120, Note_on_c, 1, 72, 48
2, 234220, Note_off_c, 1, 72, 0
2, 234240, Note_on_c, 1, 70, 45
2, 234720, Note_off_c, 1, 70, 0
2, 235200, Control_c, 1, 64, 0
2, 235200, Note_on_c, 1, 70, 40
2, 235320, Note_off_c, 1, 70, 0
2, 235440, Note_on_c, 1, 70, 46
2, 235560, Note_off_c, 1, 70, 0
2, 235680, Note_on_c, 1, 71, 57
2, 235800, Note_on_c, 1, 72, 55
2, 235845, Note_off_c, 1, 71, 0
2, 236168, Note_off_c, 1, 72, 0
2, 236640, Note_on_c, 1, 74, 49
2, 236760, Note_off_c, 1, 74, 0
2, 236880, Note_on_c, 1, 74, 53
2, 237000, Note_off_c, 1, 74, 0
2, 237120, Note_on_c, 1, 74, 62
2, 237240, Note_on_c, 1, 75, 60
2, 237293, Note_off_c, 1, 74, 0
2, 237608, Note_off_c, 1, 75, 0
2, 238080, Note_on_c, 1, 77, 55
2, 238200, Note_off_c, 1, 77, 0
2, 238320, Note_on_c, 1, 77, 60
2, 238440, Note_off_c, 1, 77, 0
2, 238560, Note_on_c, 1, 78, 72
2, 238680, Note_on_c, 1, 79, 70
2, 238733, Note_off_c, 1, 78, 0
2, 239063, Note_off_c, 1, 79, 0
2, 239520, Note_on_c, 1, 81, 61
2, 239640, Note_off_c, 1, 81, 0
2, 239760, Note_on_c, 1, 81, 66
2, 239880, Note_off_c, 1, 81, 0
2, 240000, Note_on_c, 1, 81, 76
2, 240120, Note_on_c, 1, 82, 72
2, 240165, Note_off_c, 1, 81, 0
2, 240495, Note_off_c, 1, 82, 0
2, 240960, Note_on_c, 1, 70, 41
2, 241080, Note_off_c, 1, 70, 0
2, 241200, Note_on_c, 1, 70, 47
2, 241320, Note_off_c, 1, 70, 0
2, 241440, Note_on_c, 1, 75, 75
2, 241680, Note_off_c, 1, 75, 0
2, 241680, Note_on_c, 1, 77, 73
2, 241920, Note_off_c, 1, 77, 0
2, 241920, Note_on_c, 1, 78, 70
2, 242160, Note_off_c, 1, 78, 0
2, 242160, Note_on_c, 1, 77, 68
2, 242400, Note_off_c, 1, 77, 0
2, 242400, Note_on_c, 1, 75, 66
2, 242640, Note_off_c, 1, 75, 0
2, 242640, Note_on_c, 1, 74, 63
2, 242855, Note_off_c, 1, 74, 0
2, 242880, Note_on_c, 1, 75, 61
2, 243120, Note_off_c, 1, 75, 0
2, 243120, Note_on_c, 1, 77, 56
2, 243360, Note_off_c, 1, 77, 0
2, 243360, Note_on_c, 1, 78, 52
2, 243600, Note_off_c, 1, 78, 0
2, 243600, Note_on_c, 1, 79, 48
2, 243840, Note_off_c, 1, 79, 0
2, 243840, Note_on_c, 1, 80, 43
2, 244080, Note_off_c, 1, 80, 0
2, 244080, Note_on_c, 1, 81, 38
2, 244320, Note_off_c, 1, 81, 0
2, 244320, Note_on_c, 1, 82, 34
2, 244800, Note_off_c, 1, 82, 0
2, 246720, Note_on_c, 1, 70, 42
2, 246840, Note_off_c, 1, 70, 0
2, 246840, Note_on_c, 1, 72, 43
2, 246960, Note_off_c, 1, 72, 0
2, 246960, Note_on_c, 1, 70, 44
2, 247080, Note_off_c, 1, 70, 0
2, 247080, Note_on_c, 1, 69, 45
2, 247200, Note_off_c, 1, 69, 0
2, 247200, Note_on_c, 1, 70, 45
2, 247584, Note_off_c, 1, 70, 0
2, 248040, Note_on_c, 1, 70, 52
2, 248160, Note_off_c, 1, 70, 0
2, 248160, Note_on_c, 1, 75, 52
2, 248448, Note_off_c, 1, 75, 0
2, 248520, Note_on_c, 1, 75, 55
2, 248616, Note_off_c, 1, 75, 0
2, 248640, Note_on_c, 1, 75, 61
2, 249120, Note_off_c, 1, 75, 0
2, 249120, Note_on_c, 1, 74, 54
2, 249360, Note_off_c, 1, 74, 0
2, 249600, Note_on_c, 1, 70, 48
2, 249720, Note_off_c, 1, 70, 0
2, 249720, Note_on_c, 1, 72, 50
2, 249840, Note_off_c, 1, 72, 0
2, 249840, Note_on_c, 1, 70, 51
2, 249960, Note_off_c, 1, 70, 0
2, 249960, Note_on_c, 1, 69, 52
2, 250080, Note_off_c, 1, 69, 0
2, 250080, Note_on_c, 1, 70, 53
2, 250464, Note_off_c, 1, 70, 0
2, 250920, Note_on_c, 1, 70, 61
2, 251040, Note_off_c, 1, 70, 0
2, 251040, Note_on_c, 1, 79, 62
2, 251328, Note_off_c, 1, 79, 0
2, 251400, Note_on_c, 1, 79, 65
2, 251496, Note_off_c, 1, 79, 0
2, 251520, Note_on_c, 1, 82, 70
2, 252000, Note_off_c, 1, 82, 0
2, 252000, Note_on_c, 1, 80, 64
2, 252240, Note_off_c, 1, 80, 0
2, 252480, Note_on_c, 1, 80, 59
2, 252600, Note_off_c, 1, 80, 0
2, 252600, Note_on_c, 1, 82, 58
2, 252720, Note_off_c, 1, 82, 0
2, 252720, Note_on_c, 1, 80, 58
2, 252840, Note_off_c, 1, 80, 0
2, 252840, Note_on_c, 1, 77, 57
2, 252950, Note_off_c, 1, 77, 0
2, 252960, Note_on_c, 1, 79, 57
2, 253080, Note_off_c, 1, 79, 0
2, 253080, Note_on_c, 1, 80, 57
2, 253200, Note_off_c, 1, 80, 0
2, 253200, Note_on_c, 1, 79, 56
2, 253320, Note_off_c, 1, 79, 0
2, 253320, Note_on_c, 1, 75, 56
2, 253425, Note_off_c, 1, 75, 0
2, 253440, Note_on_c, 1, 82, 55
2, 253544, Note_off_c, 1, 82, 0
2, 253600, Note_on_c, 1, 80, 55
2, 253704, Note_off_c, 1, 80, 0
2, 253760, Note_on_c, 1, 79, 54
2, 253864, Note_off_c, 1, 79, 0
2, 253920, Note_on_c, 1, 77, 53
2, 254024, Note_off_c, 1, 77, 0
2, 254080, Note_on_c, 1, 75, 53
2, 254184, Note_off_c, 1, 75, 0
2, 254240, Note_on_c, 1, 73, 52
2, 254344, Note_off_c, 1, 73, 0
2, 254400, Note_on_c, 1, 72, 52
2, 254520, Note_off_c, 1, 72, 0
2, 254520, Note_on_c, 1, 73, 51
2, 254640, Note_off_c, 1, 73, 0
2, 254640, Note_on_c, 1, 72, 51
2, 254760, Note_off_c, 1, 72, 0
2, 254760, Note_on_c, 1, 68, 50
2, 254865, Note_off_c, 1, 68, 0
2, 254880, Note_on_c, 1, 84, 50
2, 255040, Note_off_c, 1, 84, 0
2, 255040, Note_on_c, 1, 82, 49
2, 255200, Note_off_c, 1, 82, 0
2, 255200, Note_on_c, 1, 80, 49
2, 255360, Note_off_c, 1, 80, 0
2, 255360, Note_on_c, 1, 79, 48
2, 255520, Note_off_c, 1, 79, 0
2, 255520, Note_on_c, 1, 77, 47
2, 255680, Note_off_c, 1, 77, 0
2, 255680, Note_on_c, 1, 76, 47
2, 255820, Note_off_c, 1, 76, 0
2, 255840, Note_on_c, 1, 77, 46
2, 255960, Note_off_c, 1, 77, 0
2, 255960, Note_on_c, 1, 79, 46
2, 256080, Note_off_c, 1, 79, 0
2, 256080, Note_on_c, 1, 77, 45
2, 256200, Note_off_c, 1, 77, 0
2, 256200, Note_on_c, 1, 72, 45
2, 256320, Note_off_c, 1, 72, 0
2, 256320, Note_on_c, 1, 84, 45
2, 256448, Note_off_c, 1, 84, 0
2, 256480, Note_on_c, 1, 82, 44
2, 256608, Note_off_c, 1, 82, 0
2, 256640, Note_on_c, 1, 80, 43
2, 256768, Note_off_c, 1, 80, 0
2, 256800, Note_on_c, 1, 79, 43
2, 256928, Note_off_c, 1, 79, 0
2, 256960, Note_on_c, 1, 77, 42
2, 257088, Note_off_c, 1, 77, 0
2, 257120, Note_on_c, 1, 75, 42
2, 257248, Note_off_c, 1, 75, 0
2, 257280, Note_on_c, 1, 75, 41
2, 257760, Note_off_c, 1, 75, 0
2, 257760, Note_on_c, 1, 74, 35
2, 258000, Note_off_c, 1, 74, 0
2, 258240, Note_on_c, 1, 70, 46
2, 258360, Note_off_c, 1, 70, 0
2, 258360, Note_on_c, 1, 72, 47
2, 258480, Note_off_c, 1, 72, 0
2, 258480, Note_on_c, 1, 70, 48
2, 258600, Note_off_c, 1, 70, 0
2, 258600, Note_on_c, 1, 67, 49
2, 258700, Note_off_c, 1, 67, 0
2, 258720, Note_on_c, 1, 68, 51
2, 258960, Note_off_c, 1, 68, 0
2, 259200, Note_on_c, 1, 65, 48
2, 259440, Note_off_c, 1, 65, 0
2, 259680, Note_on_c, 1, 74, 52
2, 259800, Note_off_c, 1, 74, 0
2, 259800, Note_on_c, 1, 75, 55
2, 259920, Note_off_c, 1, 75, 0
2, 259920, Note_on_c, 1, 74, 57
2, 260040, Note_off_c, 1, 74, 0
2, 260040, Note_on_c, 1, 70, 59
2, 260155, Note_off_c, 1, 70, 0
2, 260160, Note_on_c, 1, 75, 66
2, 260640, Note_off_c, 1, 75, 0
2, 260640, Note_on_c, 1, 79, 60
2, 260880, Note_off_c, 1, 79, 0
2, 261120, Note_on_c, 1, 70, 53
2, 261240, Note_off_c, 1, 70, 0
2, 261240, Note_on_c, 1, 72, 55
2, 261360, Note_off_c, 1, 72, 0
2, 261360, Note_on_c, 1, 70, 57
2, 261480, Note_off_c, 1, 70, 0
2, 261480, Note_on_c, 1, 67, 59
2, 261590, Note_off_c, 1, 67, 0
2, 261600, Note_on_c, 1, 68, 63
2, 261840, Note_off_c, 1, 68, 0
2, 262080, Note_on_c, 1, 65, 58
2, 262320, Note_off_c, 1, 65, 0
2, 262560, Note_on_c, 1, 74, 59
2, 262680, Note_off_c, 1, 74, 0
2, 262680, Note_on_c, 1, 75, 62
2, 262800, Note_off_c, 1, 75, 0
2, 262800, Note_on_c, 1, 74, 65
2, 262920, Note_off_c, 1, 74, 0
2, 262920, Note_on_c, 1, 70, 68
2, 263025, Note_off_c, 1, 70, 0
2, 263040, Note_on_c, 1, 75, 71
2, 263520, Note_off_c, 1, 75, 0
2, 263520, Note_on_c, 1, 79, 64
2, 263760, Note_off_c, 1, 79, 0
2, 264000, Note_on_c, 1, 89, 63
2, 264120, Note_off_c, 1, 89, 0
2, 264120, Note_on_c, 1, 87, 62
2, 264240, Note_off_c, 1, 87, 0
2, 264240, Note_on_c, 1, 86, 61
2, 264360, Note_off_c, 1, 86, 0
2, 264360, Note_on_c, 1, 84, 60
2, 264455, Note_off_c, 1, 84, 0
2, 264480, Note_on_c, 1, 84, 60
2, 264720, Note_off_c, 1, 84, 0
2, 264720, Note_on_c, 1, 82, 58
2, 264915, Note_off_c, 1, 82, 0
2, 264960, Note_on_c, 1, 82, 56
2, 265273, Note_off_c, 1, 82, 0
2, 265440, Note_on_c, 1, 84, 53
2, 265560, Note_off_c, 1, 84, 0
2, 265560, Note_on_c, 1, 82, 52
2, 265680, Note_off_c, 1, 82, 0
2, 265680, Note_on_c, 1, 80, 51
2, 265800, Note_off_c, 1, 80, 0
2, 265800, Note_on_c, 1, 79, 51
2, 265905, Note_off_c, 1, 79, 0
2, 265920, Note_on_c, 1, 79, 50
2, 266160, Note_off_c, 1, 79, 0
2, 266160, Note_on_c, 1, 77, 48
2, 266365, Note_off_c, 1, 77, 0
2, 266400, Note_on_c, 1, 77, 46
2, 266713, Note_off_c, 1, 77, 0
2, 266880, Note_on_c, 1, 77, 43
2, 267193, Note_off_c, 1, 77, 0
2, 267360, Note_on_c, 1, 79, 72
2, 267420, Note_on_c, 1, 80, 74
2, 267450, Note_off_c, 1, 79, 0
2, 267480, Note_on_c, 1, 82, 77
2, 267503, Note_off_c, 1, 80, 0
2, 268073, Note_off_c, 1, 82, 0
2, 268320, Note_on_c, 1, 82, 59
2, 268440, Note_off_c, 1, 82, 0
2, 268440, Note_on_c, 1, 80, 57
2, 268560, Note_off_c, 1, 80, 0
2, 268560, Note_on_c, 1, 79, 55
2, 268680, Note_off_c, 1, 79, 0
2, 268680, Note_on_c, 1, 77, 53
2, 268800, Note_off_c, 1, 77, 0
2, 268800, Note_on_c, 1, 75, 51
2, 269280, Note_off_c, 1, 75, 0
2, 269760, Control_c, 1, 64, 0
2, 269760, Note_on_c, 1, 74, 55
2, 270120, Note_off_c, 1, 74, 0
2, 270120, Note_on_c, 1, 75, 59
2, 270240, Note_off_c, 1, 75, 0
2, 270240, Note_on_c, 1, 72, 61
2, 270480, Note_off_c, 1, 72, 0
2, 270480, Note_on_c, 1, 70, 56
2, 270600, Note_off_c, 1, 70, 0
2, 270720, Note_on_c, 1, 70, 55
2, 270876, Note_off_c, 1, 70, 0
2, 271200, Note_on_c, 1, 70, 52
2, 271356, Note_off_c, 1, 70, 0
2, 271680, Note_on_c, 1, 69, 49
2, 272040, Note_off_c, 1, 69, 0
2, 272640, Note_on_c, 1, 75, 57
2, 273000, Note_off_c, 1, 75, 0
2, 273000, Note_on_c, 1, 77, 61
2, 273120, Note_off_c, 1, 77, 0
2, 273120, Note_on_c, 1, 74, 62
2, 273360, Note_off_c, 1, 74, 0
2, 273360, Note_on_c, 1, 72, 60
2, 273480, Note_off_c, 1, 72, 0
2, 273600, Note_on_c, 1, 72, 58
2, 273756, Note_off_c, 1, 72, 0
2, 274080, Note_on_c, 1, 72, 54
2, 274236, Note_off_c, 1, 72, 0
2, 274560, Note_on_c, 1, 70, 51
2, 274920, Note_off_c, 1, 70, 0
2, 275520, Note_on_c, 1, 74, 67
2, 275880, Note_off_c, 1, 74, 0
2, 275880, Note_on_c, 1, 75, 72
2, 275976, Note_off_c, 1, 75, 0
2, 276000, Note_on_c, 1, 77, 75
2, 276240, Note_off_c, 1, 77, 0
2, 276240, Note_on_c, 1, 79, 73
2, 276480, Note_off_c, 1, 79, 0
2, 276480, Note_on_c, 1, 75, 72
2, 276720, Note_off_c, 1, 75, 0
2, 276720, Note_on_c, 1, 72, 72
2, 276960, Note_off_c, 1, 72, 0
2, 276960, Note_on_c, 1, 74, 71
2, 277200, Note_off_c, 1, 74, 0
2, 277200, Note_on_c, 1, 75, 70
2, 277400, Note_off_c, 1, 75, 0
2, 277440, Note_on_c, 1, 77, 70
2, 277680, Note_off_c, 1, 77, 0
2, 277680, Note_on_c, 1, 79, 69
2, 277920, Note_off_c, 1, 79, 0
2, 277920, Note_on_c, 1, 75, 68
2, 278160, Note_off_c, 1, 75, 0
2, 278160, Note_on_c, 1, 72, 68
2, 278400, Note_off_c, 1, 72, 0
2, 278400, Note_on_c, 1, 74, 67
2, 278640, Note_off_c, 1, 74, 0
2, 278640, Note_on_c, 1, 75, 66
2, 278880, Note_off_c, 1, 75, 0
2, 278880, Note_on_c, 1, 77, 66
2, 279085, Note_off_c, 1, 77, 0
2, 279120, Note_on_c, 1, 82, 59
2, 279360, Note_off_c, 1, 82, 0
2, 279360, Note_on_c, 1, 81, 58
2, 279600, Note_off_c, 1, 81, 0
2, 279600, Note_on_c, 1, 79, 57
2, 279840, Note_off_c, 1, 79, 0
2, 279840, Note_on_c, 1, 77, 56
2, 280080, Note_off_c, 1, 77, 0
2, 280080, Note_on_c, 1, 76, 55
2, 280320, Note_off_c, 1, 76, 0
2, 280320, Note_on_c, 1, 74, 54
2, 280560, Note_off_c, 1, 74, 0
2, 280560, Note_on_c, 1, 72, 53
2, 280800, Note_off_c, 1, 72, 0
2, 280800, Note_on_c, 1, 71, 51
2, 281040, Note_off_c, 1, 71, 0
2, 281040, Note_on_c, 1, 70, 50
2, 281280, Note_off_c, 1, 70, 0
2, 281280, Note_on_c, 1, 69, 49
2, 281520, Note_off_c, 1, 69, 0
2, 281520, Note_on_c, 1, 67, 48
2, 281720, Note_off_c, 1, 67, 0
2, 281760, Note_on_c, 1, 72, 67
2, 282120, Note_off_c, 1, 72, 0
2, 282120, Note_on_c, 1, 74, 65
2, 282240, Note_off_c, 1, 74, 0
2, 282240, Note_on_c, 1, 65, 65
2, 282396, Note_off_c, 1, 65, 0
2, 282720, Note_on_c, 1, 64, 62
2, 282876, Note_off_c, 1, 64, 0
2, 283200, Note_on_c, 1, 65, 60
2, 283680, Note_off_c, 1, 65, 0
2, 284160, Note_on_c, 1, 74, 55
2, 284520, Note_off_c, 1, 74, 0
2, 284520, Note_on_c, 1, 72, 59
2, 284616, Note_off_c, 1, 72, 0
2, 284640, Note_on_c, 1, 72, 60
2, 285120, Note_off_c, 1, 72, 0
2, 285600, Note_on_c, 1, 76, 65
2, 285960, Note_off_c, 1, 76, 0
2, 285960, Note_on_c, 1, 77, 69
2, 286056, Note_off_c, 1, 77, 0
2, 286080, Note_on_c, 1, 77, 70
2, 286560, Note_off_c, 1, 77, 0
2, 287040, Control_c, 1, 64, 0
2, 287120, Note_on_c, 1, 80, 79
2, 287405, Note_off_c, 1, 80, 0
2, 287600, Note_on_c, 1, 79, 83
2, 287880, Note_off_c, 1, 79, 0
2, 288080, Note_on_c, 1, 78, 81
2, 288368, Note_off_c, 1, 78, 0
2, 288560, Note_on_c, 1, 77, 78
2, 288835, Note_off_c, 1, 77, 0
2, 289040, Note_on_c, 1, 76, 76
2, 289320, Note_off_c, 1, 76, 0
2, 289520, Note_on_c, 1, 75, 73
2, 289800, Note_off_c, 1, 75, 0
2, 290000, Note_on_c, 1, 74, 70
2, 290288, Note_off_c, 1, 74, 0
2, 290880, Note_on_c, 1, 72, 62
2, 291360, Note_off_c, 1, 72, 0
2, 291360, Note_on_c, 1, 73, 61
2, 291780, Note_off_c, 1, 73, 0
2, 291840, Note_on_c, 1, 70, 59
2, 292080, Note_off_c, 1, 70, 0
2, 292080, Note_on_c, 1, 69, 58
2, 292280, Note_off_c, 1, 69, 0
2, 292320, Note_on_c, 1, 67, 57
2, 292513, Note_off_c, 1, 67, 0
2, 292560, Note_on_c, 1, 65, 56
2, 292753, Note_off_c, 1, 65, 0
2, 292800, Note_on_c, 1, 70, 55
2, 293215, Note_off_c, 1, 70, 0
2, 293280, Note_on_c, 1, 75, 69
2, 293760, Note_off_c, 1, 75, 0
2, 293760, Note_on_c, 1, 74, 67
2, 294120, Note_off_c, 1, 74, 0
2, 294120, Note_on_c, 1, 72, 66
2, 294216, Note_off_c, 1, 72, 0
2, 294240, Note_on_c, 1, 74, 65
2, 294600, Note_off_c, 1, 74, 0
2, 294600, Note_on_c, 1, 75, 64
2, 294696, Note_off_c, 1, 75, 0
2, 294720, Note_on_c, 1, 74, 64
2, 295200, Note_off_c, 1, 74, 0
2, 295200, Note_on_c, 1, 72, 62
2, 295584, Note_off_c, 1, 72, 0
2, 301440, Note_on_c, 1, 74, 69
2, 301800, Note_off_c, 1, 74, 0
2, 301800, Note_on_c, 1, 75, 73
2, 301900, Note_off_c, 1, 75, 0
2, 301920, Note_on_c, 1, 77, 75
2, 302160, Note_off_c, 1, 77, 0
2, 302160, Note_on_c, 1, 79, 73
2, 302400, Note_off_c, 1, 79, 0
2, 302400, Note_on_c, 1, 75, 72
2, 302640, Note_off_c, 1, 75, 0
2, 302640, Note_on_c, 1, 72, 71
2, 302880, Note_off_c, 1, 72, 0
2, 302880, Note_on_c, 1, 74, 71
2, 303120, Note_off_c, 1, 74, 0
2, 303120, Note_on_c, 1, 75, 70
2, 303320, Note_off_c, 1, 75, 0
2, 303360, Note_on_c, 1, 77, 69
2, 303600, Note_off_c, 1, 77, 0
2, 303600, Note_on_c, 1, 79, 68
2, 303840, Note_off_c, 1, 79, 0
2, 303840, Note_on_c, 1, 75, 68
2, 304080, Note_off_c, 1, 75, 0
2, 304080, Note_on_c, 1, 72, 67
2, 304320, Note_off_c, 1, 72, 0
2, 304320, Note_on_c, 1, 74, 66
2, 304560, Note_off_c, 1, 74, 0
2, 304560, Note_on_c, 1, 75, 65
2, 304800, Note_off_c, 1, 75, 0
2, 304800, Note_on_c, 1, 77, 64
2, 305000, Note_off_c, 1, 77, 0
2, 305040, Note_on_c, 1, 87, 57
2, 305280, Note_off_c, 1, 87, 0
2, 305280, Note_on_c, 1, 86, 56
2, 305520, Note_off_c, 1, 86, 0
2, 305520, Note_on_c, 1, 84, 55
2, 305760, Note_off_c, 1, 84, 0
2, 305760, Note_on_c, 1, 82, 54
2, 306000, Note_off_c, 1, 82, 0
2, 306000, Note_on_c, 1, 81, 53
2, 306240, Note_off_c, 1, 81, 0
2, 306240, Note_on_c, 1, 79, 52
2, 306480, Note_off_c, 1, 79, 0
2, 306480, Note_on_c, 1, 77, 52
2, 306720, Note_off_c, 1, 77, 0
2, 306720, Note_on_c, 1, 76, 51
2, 306960, Note_off_c, 1, 76, 0
2, 306960, Note_on_c, 1, 75, 50
2, 307200, Note_off_c, 1, 75, 0
2, 307200, Note_on_c, 1, 74, 49
2, 307440, Note_off_c, 1, 74, 0
2, 307440, Note_on_c, 1, 72, 48
2, 307640, Note_off_c, 1, 72, 0
2, 307680, Note_on_c, 1, 77, 67
2, 308040, Note_off_c, 1, 77, 0
2, 308040, Note_on_c, 1, 79, 65
2, 308136, Note_off_c, 1, 79, 0
2, 308160, Note_on_c, 1, 70, 64
2, 308316, Note_off_c, 1, 70, 0
2, 308640, Note_on_c, 1, 69, 61
2, 308796, Note_off_c, 1, 69, 0
2, 309120, Note_on_c, 1, 70, 58
2, 309504, Note_off_c, 1, 70, 0
2, 310080, Note_on_c, 1, 79, 47
2, 310440, Note_off_c, 1, 79, 0
2, 310440, Note_on_c, 1, 77, 51
2, 310536, Note_off_c, 1, 77, 0
2, 310560, Note_on_c, 1, 77, 53
2, 310944, Note_off_c, 1, 77, 0
2, 311520, Note_on_c, 1, 81, 53
2, 311880, Note_on_c, 1, 82, 58
2, 311888, Note_off_c, 1, 81, 0
2, 311976, Note_off_c, 1, 82, 0
2, 312000, Note_on_c, 1, 82, 61
2, 312384, Note_off_c, 1, 82, 0
2, 312960, Note_on_c, 1, 74, 65
2, 313320, Note_off_c, 1, 74, 0
2, 313320, Note_on_c, 1, 70, 70
2, 313416, Note_off_c, 1, 70, 0
2, 313440, Note_on_c, 1, 75, 72
2, 314400, Note_off_c, 1, 75, 0
2, 314400, Note_on_c, 1, 72, 67
2, 314760, Note_off_c, 1, 72, 0
2, 314760, Note_on_c, 1, 69, 65
2, 314856, Note_off_c, 1, 69, 0
2, 314880, Note_on_c, 1, 70, 64
2, 315264, Note_off_c, 1, 70, 0
2, 315840, Control_c, 1, 64, 0
2, 317280, Control_c, 1, 64, 0
2, 318000, Note_on_c, 1, 70, 42
2, 318120, Note_off_c, 1, 70, 0
2, 318240, Note_on_c, 1, 70, 46
2, 318930, Note_off_c, 1, 70, 0
2, 318960, Note_on_c, 1, 82, 45
2, 319080, Note_off_c, 1, 82, 0
2, 319200, Note_on_c, 1, 82, 50
2, 319920, Note_off_c, 1, 82, 0
2, 319920, Note_on_c, 1, 80, 49
2, 320040, Note_off_c, 1, 80, 0
2, 320160, Note_on_c, 1, 80, 55
2, 320280, Note_off_c, 1, 80, 0
2, 320280, Note_on_c, 1, 79, 54
2, 320400, Note_off_c, 1, 79, 0
2, 320400, Note_on_c, 1, 77, 53
2, 320520, Note_off_c, 1, 77, 0
2, 320520, Note_on_c, 1, 75, 51
2, 320618, Note_off_c, 1, 75, 0
2, 320640, Note_on_c, 1, 72, 50
2, 320760, Note_off_c, 1, 72, 0
2, 320760, Note_on_c, 1, 75, 49
2, 320880, Note_off_c, 1, 75, 0
2, 320880, Note_on_c, 1, 74, 48
2, 321000, Note_off_c, 1, 74, 0
2, 321000, Note_on_c, 1, 77, 47
2, 321120, Note_off_c, 1, 77, 0
2, 321120, Note_on_c, 1, 75, 46
2, 321240, Note_off_c, 1, 75, 0
2, 321240, Note_on_c, 1, 79, 44
2, 321360, Note_off_c, 1, 79, 0
2, 321360, Note_on_c, 1, 77, 43
2, 321480, Note_off_c, 1, 77, 0
2, 321480, Note_on_c, 1, 80, 42
2, 321585, Note_off_c, 1, 80, 0
2, 321600, Note_on_c, 1, 79, 41
2, 321720, Note_off_c, 1, 79, 0
2, 321840, Note_on_c, 1, 70, 66
2, 321960, Note_off_c, 1, 70, 0
2, 322080, Note_on_c, 1, 70, 72
2, 322770, Note_off_c, 1, 70, 0
2, 322800, Note_on_c, 1, 82, 69
2, 322920, Note_off_c, 1, 82, 0
2, 323040, Note_on_c, 1, 82, 76
2, 323760, Note_off_c, 1, 82, 0
2, 323760, Note_on_c, 1, 80, 72
2, 323880, Note_off_c, 1, 80, 0
2, 324000, Note_on_c, 1, 80, 76
2, 324120, Note_off_c, 1, 80, 0
2, 324120, Note_on_c, 1, 79, 75
2, 324240, Note_off_c, 1, 79, 0
2, 324240, Note_on_c, 1, 77, 73
2, 324360, Note_off_c, 1, 77, 0
2, 324360, Note_on_c, 1, 75, 71
2, 324458, Note_off_c, 1, 75, 0
2, 324480, Note_on_c, 1, 80, 69
2, 324600, Note_off_c, 1, 80, 0
2, 324720, Note_on_c, 1, 79, 68
2, 324840, Note_off_c, 1, 79, 0
2, 324960, Note_on_c, 1, 79, 65
2, 325200, Note_off_c, 1, 79, 0
2, 325200, Note_on_c, 1, 77, 60
2, 325320, Note_off_c, 1, 77, 0
2, 325680, Note_on_c, 1, 77, 53
2, 325873, Note_off_c, 1, 77, 0
2, 325920, Note_on_c, 1, 76, 55
2, 326040, Note_on_c, 1, 77, 56
2, 326048, Note_off_c, 1, 76, 0
2, 326400, Note_off_c, 1, 77, 0
2, 326640, Note_on_c, 1, 77, 66
2, 326680, Note_off_c, 1, 77, 0
2, 326680, Note_on_c, 1, 79, 68
2, 326720, Note_off_c, 1, 79, 0
2, 326720, Note_on_c, 1, 77, 69
2, 326760, Note_off_c, 1, 77, 0
2, 326760, Note_on_c, 1, 76, 71
2, 326820, Note_off_c, 1, 76, 0
2, 326820, Note_on_c, 1, 77, 73
2, 326880, Note_off_c, 1, 77, 0
2, 326880, Note_on_c, 1, 87, 77
2, 327240, Note_off_c, 1, 87, 0
2, 327240, Note_on_c, 1, 84, 68
2, 327360, Note_off_c, 1, 84, 0
2, 327360, Note_on_c, 1, 81, 65
2, 327480, Note_off_c, 1, 81, 0
2, 327600, Note_on_c, 1, 75, 59
2, 327720, Note_off_c, 1, 75, 0
2, 327840, Note_on_c, 1, 74, 52
2, 327960, Note_on_c, 1, 77, 53
2, 327971, Note_off_c, 1, 74, 0
2, 328320, Note_off_c, 1, 77, 0
2, 328560, Note_on_c, 1, 77, 60
2, 328600, Note_off_c, 1, 77, 0
2, 328600, Note_on_c, 1, 79, 62
2, 328640, Note_off_c, 1, 79, 0
2, 328640, Note_on_c, 1, 77, 63
2, 328680, Note_off_c, 1, 77, 0
2, 328680, Note_on_c, 1, 76, 65
2, 328740, Note_off_c, 1, 76, 0
2, 328740, Note_on_c, 1, 77, 68
2, 328800, Note_off_c, 1, 77, 0
2, 328800, Note_on_c, 1, 87, 73
2, 329160, Note_off_c, 1, 87, 0
2, 329160, Note_on_c, 1, 84, 67
2, 329280, Note_off_c, 1, 84, 0
2, 329280, Note_on_c, 1, 81, 65
2, 329400, Note_off_c, 1, 81, 0
2, 329520, Note_on_c, 1, 75, 61
2, 329640, Note_off_c, 1, 75, 0
2, 329760, Note_on_c, 1, 74, 57
2, 329880, Note_off_c, 1, 74, 0
2, 329880, Note_on_c, 1, 75, 58
2, 330000, Note_off_c, 1, 75, 0
2, 330000, Note_on_c, 1, 77, 60
2, 330120, Note_off_c, 1, 77, 0
2, 330120, Note_on_c, 1, 79, 62
2, 330221, Note_off_c, 1, 79, 0
2, 330240, Note_on_c, 1, 77, 63
2, 330360, Note_off_c, 1, 77, 0
2, 330360, Note_on_c, 1, 79, 65
2, 330480, Note_off_c, 1, 79, 0
2, 330480, Note_on_c, 1, 81, 67
2, 330600, Note_off_c, 1, 81, 0
2, 330600, Note_on_c, 1, 82, 68
2, 330701, Note_off_c, 1, 82, 0
2, 330720, Note_on_c, 1, 78, 70
2, 330840, Note_off_c, 1, 78, 0
2, 330840, Note_on_c, 1, 79, 69
2, 330938, Note_off_c, 1, 79, 0
2, 330960, Note_on_c, 1, 74, 67
2, 331080, Note_off_c, 1, 74, 0
2, 331080, Note_on_c, 1, 75, 66
2, 331181, Note_off_c, 1, 75, 0
2, 331200, Note_on_c, 1, 71, 65
2, 331320, Note_off_c, 1, 71, 0
2, 331320, Note_on_c, 1, 72, 64
2, 331425, Note_off_c, 1, 72, 0
2, 331440, Note_on_c, 1, 67, 63
2, 331560, Note_off_c, 1, 67, 0
2, 331560, Note_on_c, 1, 72, 61
2, 331661, Note_off_c, 1, 72, 0
2, 331680, Note_on_c, 1, 70, 60
2, 331920, Note_off_c, 1, 70, 0
2, 331920, Note_on_c, 1, 69, 53
2, 332040, Note_off_c, 1, 69, 0
2, 332880, Note_on_c, 1, 77, 45
2, 333120, Note_off_c, 1, 77, 0
2, 333120, Note_on_c, 1, 75, 47
2, 333360, Note_off_c, 1, 75, 0
2, 333360, Note_on_c, 1, 74, 49
2, 333559, Note_off_c, 1, 74, 0
2, 333840, Note_on_c, 1, 71, 54
2, 333960, Note_off_c, 1, 71, 0
2, 334080, Note_on_c, 1, 71, 56
2, 334320, Note_off_c, 1, 71, 0
2, 334320, Note_on_c, 1, 72, 58
2, 334519, Note_off_c, 1, 72, 0
2, 334800, Note_on_c, 1, 79, 62
2, 335040, Note_off_c, 1, 79, 0
2, 335040, Note_on_c, 1, 77, 64
2, 335280, Note_off_c, 1, 77, 0
2, 335280, Note_on_c, 1, 75, 66
2, 335483, Note_off_c, 1, 75, 0
2, 335760, Note_on_c, 1, 73, 70
2, 335880, Note_off_c, 1, 73, 0
2, 336000, Note_on_c, 1, 73, 72
2, 336240, Note_off_c, 1, 73, 0
2, 336240, Note_on_c, 1, 74, 74
2, 336431, Note_off_c, 1, 74, 0
2, 336600, Note_on_c, 1, 82, 81
2, 337399, Note_off_c, 1, 82, 0
2, 337560, Note_on_c, 1, 79, 78
2, 338359, Note_off_c, 1, 79, 0
2, 338400, Note_on_c, 1, 79, 81
2, 338520, Note_off_c, 1, 79, 0
2, 338520, Note_on_c, 1, 77, 80
2, 338640, Note_off_c, 1, 77, 0
2, 338640, Note_on_c, 1, 75, 79
2, 338760, Note_off_c, 1, 75, 0
2, 338760, Note_on_c, 1, 74, 78
2, 338865, Note_off_c, 1, 74, 0
2, 338880, Note_on_c, 1, 74, 77
2, 339000, Note_off_c, 1, 74, 0
2, 339000, Note_on_c, 1, 72, 76
2, 339120, Note_off_c, 1, 72, 0
2, 339120, Note_on_c, 1, 70, 76
2, 339240, Note_off_c, 1, 70, 0
2, 339240, Note_on_c, 1, 69, 75
2, 339338, Note_off_c, 1, 69, 0
2, 339360, Note_on_c, 1, 72, 74
2, 339480, Note_off_c, 1, 72, 0
2, 339480, Note_on_c, 1, 70, 70
2, 339581, Note_off_c, 1, 70, 0
2, 339600, Note_on_c, 1, 74, 65
2, 339720, Note_off_c, 1, 74, 0
2, 339720, Note_on_c, 1, 72, 61
2, 339821, Note_off_c, 1, 72, 0
2, 339840, Note_on_c, 1, 75, 57
2, 339960, Note_off_c, 1, 75, 0
2, 339960, Note_on_c, 1, 74, 52
2, 340058, Note_off_c, 1, 74, 0
2, 340080, Note_on_c, 1, 77, 48
2, 340200, Note_off_c, 1, 77, 0
2, 340200, Note_on_c, 1, 75, 44
2, 340298, Note_off_c, 1, 75, 0
2, 340320, Note_on_c, 1, 79, 42
2, 340560, Note_off_c, 1, 79, 0
2, 340560, Note_on_c, 1, 77, 45
2, 341040, Note_off_c, 1, 77, 0
2, 341040, Note_on_c, 1, 74, 49
2, 341235, Note_off_c, 1, 74, 0
2, 341280, Note_on_c, 1, 71, 51
2, 341520, Note_off_c, 1, 71, 0
2, 341520, Note_on_c, 1, 74, 54
2, 342000, Note_off_c, 1, 74, 0
2, 342000, Note_on_c, 1, 72, 58
2, 342195, Note_off_c, 1, 72, 0
2, 342240, Note_on_c, 1, 78, 60
2, 342480, Note_off_c, 1, 78, 0
2, 342480, Note_on_c, 1, 79, 63
2, 342960, Note_off_c, 1, 79, 0
2, 342960, Note_on_c, 1, 75, 67
2, 343163, Note_off_c, 1, 75, 0
2, 343200, Note_on_c, 1, 73, 70
2, 343440, Note_off_c, 1, 73, 0
2, 343440, Note_on_c, 1, 75, 72
2, 343920, Note_off_c, 1, 75, 0
2, 343920, Note_on_c, 1, 74, 76
2, 344123, Note_off_c, 1, 74, 0
2, 344280, Note_on_c, 1, 82, 85
2, 345079, Note_off_c, 1, 82, 0
2, 345240, Note_on_c, 1, 79, 81
2, 346035, Note_off_c, 1, 79, 0
2, 346080, Note_on_c, 1, 79, 81
2, 346200, Note_off_c, 1, 79, 0
2, 346200, Note_on_c, 1, 77, 80
2, 346320, Note_off_c, 1, 77, 0
2, 346320, Note_on_c, 1, 75, 79
2, 346440, Note_off_c, 1, 75, 0
2, 346440, Note_on_c, 1, 74, 79
2, 346541, Note_off_c, 1, 74, 0
2, 346560, Note_on_c, 1, 74, 78
2, 346680, Note_off_c, 1, 74, 0
2, 346680, Note_on_c, 1, 72, 77
2, 346800, Note_off_c, 1, 72, 0
2, 346800, Note_on_c, 1, 70, 76
2, 346920, Note_off_c, 1, 70, 0
2, 346920, Note_on_c, 1, 69, 76
2, 347021, Note_off_c, 1, 69, 0
2, 347040, Note_on_c, 1, 69, 74
2, 347160, Note_off_c, 1, 69, 0
2, 347160, Note_on_c, 1, 70, 76
2, 347235, Note_off_c, 1, 70, 0
2, 347280, Note_on_c, 1, 72, 78
2, 347358, Note_off_c, 1, 72, 0
2, 347400, Note_on_c, 1, 74, 79
2, 347478, Note_off_c, 1, 74, 0
2, 347520, Note_on_c, 1, 75, 81
2, 347598, Note_off_c, 1, 75, 0
2, 347640, Note_on_c, 1, 77, 83
2, 347718, Note_off_c, 1, 77, 0
2, 347760, Note_on_c, 1, 79, 85
2, 347838, Note_off_c, 1, 79, 0
2, 347880, Note_on_c, 1, 81, 87
2, 347958, Note_off_c, 1, 81, 0
2, 348000, Note_on_c, 1, 82, 89
2, 348120, Note_off_c, 1, 82, 0
2, 348120, Note_on_c, 1, 84, 88
2, 348240, Note_off_c, 1, 84, 0
2, 348240, Note_on_c, 1, 86, 87
2, 348360, Note_off_c, 1, 86, 0
2, 348360, Note_on_c, 1, 81, 87
2, 348458, Note_off_c, 1, 81, 0
2, 348480, Note_on_c, 1, 82, 86
2, 348840, Note_off_c, 1, 82, 0
2, 348960, Note_on_c, 1, 79, 83
2, 349080, Note_off_c, 1, 79, 0
2, 349080, Note_on_c, 1, 81, 83
2, 349200, Note_off_c, 1, 81, 0
2, 349200, Note_on_c, 1, 82, 82
2, 349320, Note_off_c, 1, 82, 0
2, 349320, Note_on_c, 1, 78, 81
2, 349418, Note_off_c, 1, 78, 0
2, 349440, Note_on_c, 1, 79, 80
2, 349800, Note_off_c, 1, 79, 0
2, 349920, Note_on_c, 1, 79, 78
2, 350040, Note_off_c, 1, 79, 0
2, 350040, Note_on_c, 1, 77, 77
2, 350160, Note_off_c, 1, 77, 0
2, 350160, Note_on_c, 1, 75, 76
2, 350280, Note_off_c, 1, 75, 0
2, 350280, Note_on_c, 1, 74, 75
2, 350378, Note_off_c, 1, 74, 0
2, 350400, Note_on_c, 1, 74, 75
2, 350520, Note_off_c, 1, 74, 0
2, 350520, Note_on_c, 1, 72, 74
2, 350640, Note_off_c, 1, 72, 0
2, 350640, Note_on_c, 1, 70, 73
2, 350760, Note_off_c, 1, 70, 0
2, 350760, Note_on_c, 1, 69, 73
2, 350861, Note_off_c, 1, 69, 0
2, 350880, Note_on_c, 1, 70, 73
2, 351000, Note_off_c, 1, 70, 0
2, 351000, Note_on_c, 1, 72, 75
2, 351120, Note_off_c, 1, 72, 0
2, 351120, Note_on_c, 1, 74, 77
2, 351240, Note_off_c, 1, 74, 0
2, 351240, Note_on_c, 1, 75, 80
2, 351360, Note_off_c, 1, 75, 0
2, 351360, Note_on_c, 1, 77, 82
2, 351480, Note_off_c, 1, 77, 0
2, 351480, Note_on_c, 1, 79, 84
2, 351600, Note_off_c, 1, 79, 0
2, 351600, Note_on_c, 1, 81, 86
2, 351720, Note_off_c, 1, 81, 0
2, 351720, Note_on_c, 1, 82, 89
2, 351818, Note_off_c, 1, 82, 0
2, 351840, Note_on_c, 1, 78, 92
2, 351960, Note_off_c, 1, 78, 0
2, 351960, Note_on_c, 1, 79, 89
2, 352080, Note_off_c, 1, 79, 0
2, 352080, Note_on_c, 1, 75, 87
2, 352200, Note_off_c, 1, 75, 0
2, 352200, Note_on_c, 1, 72, 84
2, 352301, Note_off_c, 1, 72, 0
2, 352320, Note_on_c, 1, 74, 81
2, 352440, Note_off_c, 1, 74, 0
2, 352440, Note_on_c, 1, 75, 78
2, 352560, Note_off_c, 1, 75, 0
2, 352560, Note_on_c, 1, 72, 75
2, 352680, Note_off_c, 1, 72, 0
2, 352680, Note_on_c, 1, 69, 72
2, 352774, Note_off_c, 1, 69, 0
2, 352800, Note_on_c, 1, 70, 68
2, 352920, Note_off_c, 1, 70, 0
2, 352920, Note_on_c, 1, 72, 70
2, 353040, Note_off_c, 1, 72, 0
2, 353040, Note_on_c, 1, 74, 72
2, 353160, Note_off_c, 1, 74, 0
2, 353160, Note_on_c, 1, 75, 74
2, 353280, Note_off_c, 1, 75, 0
2, 353280, Note_on_c, 1, 77, 75
2, 353400, Note_off_c, 1, 77, 0
2, 353400, Note_on_c, 1, 79, 77
2, 353520, Note_off_c, 1, 79, 0
2, 353520, Note_on_c, 1, 81, 79
2, 353640, Note_off_c, 1, 81, 0
2, 353640, Note_on_c, 1, 82, 81
2, 353741, Note_off_c, 1, 82, 0
2, 353760, Note_on_c, 1, 78, 82
2, 353880, Note_off_c, 1, 78, 0
2, 353880, Note_on_c, 1, 79, 81
2, 354000, Note_off_c, 1, 79, 0
2, 354000, Note_on_c, 1, 75, 80
2, 354120, Note_off_c, 1, 75, 0
2, 354120, Note_on_c, 1, 72, 78
2, 354221, Note_off_c, 1, 72, 0
2, 354240, Note_on_c, 1, 74, 77
2, 354360, Note_off_c, 1, 74, 0
2, 354360, Note_on_c, 1, 75, 75
2, 354480, Note_off_c, 1, 75, 0
2, 354480, Note_on_c, 1, 72, 74
2, 354600, Note_off_c, 1, 72, 0
2, 354600, Note_on_c, 1, 69, 72
2, 354698, Note_off_c, 1, 69, 0
2, 354720, Note_on_c, 1, 70, 71
2, 355316, Note_off_c, 1, 70, 0
2, 355440, Control_c, 1, 64, 0
2, 355440, Note_on_c, 1, 70, 47
2, 355560, Note_off_c, 1, 70, 0
2, 355680, Note_on_c, 1, 70, 52
2, 356400, Note_off_c, 1, 70, 0
2, 356400, Note_on_c, 1, 82, 50
2, 356520, Note_off_c, 1, 82, 0
2, 356640, Note_on_c, 1, 82, 54
2, 357360, Note_off_c, 1, 82, 0
2, 357360, Note_on_c, 1, 72, 66
2, 357480, Note_off_c, 1, 72, 0
2, 357600, Note_on_c, 1, 73, 67
2, 357720, Note_off_c, 1, 73, 0
2, 357720, Note_on_c, 1, 72, 68
2, 357840, Note_off_c, 1, 72, 0
2, 357840, Note_on_c, 1, 74, 69
2, 357960, Note_off_c, 1, 74, 0
2, 358080, Note_on_c, 1, 75, 71
2, 358200, Note_off_c, 1, 75, 0
2, 358320, Note_on_c, 1, 76, 72
2, 358440, Note_off_c, 1, 76, 0
2, 358560, Note_on_c, 1, 77, 74
2, 358680, Note_off_c, 1, 77, 0
2, 358800, Note_on_c, 1, 79, 75
2, 358920, Note_off_c, 1, 79, 0
2, 359040, Note_on_c, 1, 80, 77
2, 359160, Note_off_c, 1, 80, 0
2, 359280, Note_on_c, 1, 68, 36
2, 359400, Note_off_c, 1, 68, 0
2, 359520, Note_on_c, 1, 68, 40
2, 360240, Note_off_c, 1, 68, 0
2, 360240, Note_on_c, 1, 80, 40
2, 360360, Note_off_c, 1, 80, 0
2, 360480, Note_on_c, 1, 80, 44
2, 361200, Note_off_c, 1, 80, 0
2, 361200, Note_on_c, 1, 70, 56
2, 361320, Note_off_c, 1, 70, 0
2, 361440, Note_on_c, 1, 71, 57
2, 361560, Note_off_c, 1, 71, 0
2, 361680, Note_on_c, 1, 72, 59
2, 361800, Note_off_c, 1, 72, 0
2, 361920, Note_on_c, 1, 73, 61
2, 362040, Note_off_c, 1, 73, 0
2, 362160, Note_on_c, 1, 74, 62
2, 362280, Note_off_c, 1, 74, 0
2, 362400, Note_on_c, 1, 75, 64
2, 362520, Note_off_c, 1, 75, 0
2, 362640, Note_on_c, 1, 77, 65
2, 362760, Note_off_c, 1, 77, 0
2, 362880, Note_on_c, 1, 79, 67
2, 363000, Note_off_c, 1, 79, 0
2, 363600, Note_on_c, 1, 73, 40
2, 363720, Note_off_c, 1, 73, 0
2, 363840, Note_on_c, 1, 73, 41
2, 364560, Note_off_c, 1, 73, 0
2, 364560, Note_on_c, 1, 72, 44
2, 364680, Note_off_c, 1, 72, 0
2, 364800, Note_on_c, 1, 72, 45
2, 365520, Note_off_c, 1, 72, 0
2, 365520, Note_on_c, 1, 70, 61
2, 365640, Note_off_c, 1, 70, 0
2, 365760, Note_on_c, 1, 70, 62
2, 366480, Note_off_c, 1, 70, 0
2, 366480, Note_on_c, 1, 69, 64
2, 366600, Note_off_c, 1, 69, 0
2, 366720, Note_on_c, 1, 69, 65
2, 367440, Note_off_c, 1, 69, 0
2, 367440, Note_on_c, 1, 75, 45
2, 367560, Note_off_c, 1, 75, 0
2, 367680, Note_on_c, 1, 75, 47
2, 368400, Note_off_c, 1, 75, 0
2, 368400, Note_on_c, 1, 73, 51
2, 368520, Note_off_c, 1, 73, 0
2, 368640, Note_on_c, 1, 73, 53
2, 369360, Note_off_c, 1, 73, 0
2, 369360, Note_on_c, 1, 72, 67
2, 369480, Note_off_c, 1, 72, 0
2, 369600, Note_on_c, 1, 72, 68
2, 370320, Note_off_c, 1, 72, 0
2, 370320, Note_on_c, 1, 71, 71
2, 370440, Note_off_c, 1, 71, 0
2, 370560, Note_on_c, 1, 71, 71
2, 370680, Note_off_c, 1, 71, 0
2, 370800, Note_on_c, 1, 71, 72
2, 370920, Note_off_c, 1, 71, 0
2, 371040, Note_on_c, 1, 72, 73
2, 371280, Note_off_c, 1, 72, 0
2, 371280, Note_on_c, 1, 74, 74
2, 371520, Note_off_c, 1, 74, 0
2, 371520, Note_on_c, 1, 75, 75
2, 371760, Note_off_c, 1, 75, 0
2, 371760, Note_on_c, 1, 77, 76
2, 372000, Note_off_c, 1, 77, 0
2, 372000, Note_on_c, 1, 75, 76
2, 372060, Note_off_c, 1, 75, 0
2, 372060, Note_on_c, 1, 77, 77
2, 372120, Note_off_c, 1, 77, 0
2, 372120, Note_on_c, 1, 75, 77
2, 372203, Note_off_c, 1, 75, 0
2, 372240, Note_on_c, 1, 74, 77
2, 372360, Note_off_c, 1, 74, 0
2, 372480, Note_on_c, 1, 72, 78
2, 372600, Note_off_c, 1, 72, 0
2, 372720, Note_on_c, 1, 71, 79
2, 372840, Note_off_c, 1, 71, 0
2, 372960, Note_on_c, 1, 72, 80
2, 373200, Note_off_c, 1, 72, 0
2, 373200, Note_on_c, 1, 74, 81
2, 373440, Note_off_c, 1, 74, 0
2, 373440, Note_on_c, 1, 75, 81
2, 373680, Note_off_c, 1, 75, 0
2, 373680, Note_on_c, 1, 77, 82
2, 373898, Note_off_c, 1, 77, 0
2, 373920, Note_on_c, 1, 75, 84
2, 374040, Note_off_c, 1, 75, 0
2, 374160, Note_on_c, 1, 84, 76
2, 374280, Note_off_c, 1, 84, 0
2, 374400, Note_on_c, 1, 83, 69
2, 374520, Note_off_c, 1, 83, 0
2, 374880, Note_on_c, 1, 72, 60
2, 375120, Note_off_c, 1, 72, 0
2, 375120, Note_on_c, 1, 71, 57
2, 375240, Note_off_c, 1, 71, 0
2, 375600, Note_on_c, 1, 71, 51
2, 375720, Note_off_c, 1, 71, 0
2, 375840, Note_on_c, 1, 71, 48
2, 376080, Note_off_c, 1, 71, 0
2, 376080, Note_on_c, 1, 70, 45
2, 376200, Note_off_c, 1, 70, 0
2, 376560, Note_on_c, 1, 70, 39
2, 376680, Note_off_c, 1, 70, 0
2, 376800, Note_on_c, 1, 70, 46
2, 377520, Note_off_c, 1, 70, 0
2, 377520, Note_on_c, 1, 82, 48
2, 377640, Note_off_c, 1, 82, 0
2, 377760, Note_on_c, 1, 82, 53
2, 378480, Note_off_c, 1, 82, 0
2, 378480, Note_on_c, 1, 80, 51
2, 378600, Note_off_c, 1, 80, 0
2, 378720, Note_on_c, 1, 80, 56
2, 378840, Note_off_c, 1, 80, 0
2, 378840, Note_on_c, 1, 79, 55
2, 378960, Note_off_c, 1, 79, 0
2, 378960, Note_on_c, 1, 77, 54
2, 379080, Note_off_c, 1, 77, 0
2, 379080, Note_on_c, 1, 75, 53
2, 379181, Note_off_c, 1, 75, 0
2, 379200, Note_on_c, 1, 72, 52
2, 379320, Note_off_c, 1, 72, 0
2, 379320, Note_on_c, 1, 75, 51
2, 379440, Note_off_c, 1, 75, 0
2, 379440, Note_on_c, 1, 74, 50
2, 379560, Note_off_c, 1, 74, 0
2, 379560, Note_on_c, 1, 77, 49
2, 379661, Note_off_c, 1, 77, 0
2, 379680, Note_on_c, 1, 75, 48
2, 379800, Note_off_c, 1, 75, 0
2, 379800, Note_on_c, 1, 79, 47
2, 379920, Note_off_c, 1, 79, 0
2, 379920, Note_on_c, 1, 77, 46
2, 380040, Note_off_c, 1, 77, 0
2, 380040, Note_on_c, 1, 80, 45
2, 380138, Note_off_c, 1, 80, 0
2, 380160, Note_on_c, 1, 79, 44
2, 380280, Note_off_c, 1, 79, 0
2, 380400, Note_on_c, 1, 70, 66
2, 380520, Note_off_c, 1, 70, 0
2, 380640, Note_on_c, 1, 70, 70
2, 381360, Note_off_c, 1, 70, 0
2, 381360, Note_on_c, 1, 82, 69
2, 381480, Note_off_c, 1, 82, 0
2, 381600, Note_on_c, 1, 82, 74
2, 382320, Note_off_c, 1, 82, 0
2, 382320, Note_on_c, 1, 80, 72
2, 382440, Note_off_c, 1, 80, 0
2, 382560, Note_on_c, 1, 80, 76
2, 382680, Note_off_c, 1, 80, 0
2, 382680, Note_on_c, 1, 79, 75
2, 382800, Note_off_c, 1, 79, 0
2, 382800, Note_on_c, 1, 77, 73
2, 382920, Note_off_c, 1, 77, 0
2, 382920, Note_on_c, 1, 75, 71
2, 383020, Note_off_c, 1, 75, 0
2, 383040, Note_on_c, 1, 80, 69
2, 383160, Note_off_c, 1, 80, 0
2, 383280, Note_on_c, 1, 79, 66
2, 383400, Note_off_c, 1, 79, 0
2, 383520, Note_on_c, 1, 79, 62
2, 383760, Note_off_c, 1, 79, 0
2, 383760, Note_on_c, 1, 77, 54
2, 383880, Note_off_c, 1, 77, 0
2, 384240, Note_on_c, 1, 70, 40
2, 384360, Note_off_c, 1, 70, 0
2, 384480, Note_on_c, 1, 69, 42
2, 384600, Note_on_c, 1, 70, 44
2, 384611, Note_off_c, 1, 69, 0
2, 384960, Note_off_c, 1, 70, 0
2, 385200, Note_on_c, 1, 70, 52
2, 385240, Note_off_c, 1, 70, 0
2, 385240, Note_on_c, 1, 72, 54
2, 385280, Note_off_c, 1, 72, 0
2, 385280, Note_on_c, 1, 70, 55
2, 385320, Note_off_c, 1, 70, 0
2, 385320, Note_on_c, 1, 69, 57
2, 385380, Note_off_c, 1, 69, 0
2, 385380, Note_on_c, 1, 70, 60
2, 385440, Note_off_c, 1, 70, 0
2, 385440, Note_on_c, 1, 80, 69
2, 385800, Note_off_c, 1, 80, 0
2, 385800, Note_on_c, 1, 77, 58
2, 385920, Note_off_c, 1, 77, 0
2, 385920, Note_on_c, 1, 74, 54
2, 386040, Note_off_c, 1, 74, 0
2, 386160, Note_on_c, 1, 68, 47
2, 386280, Note_off_c, 1, 68, 0
2, 386400, Note_on_c, 1, 67, 42
2, 386520, Note_on_c, 1, 70, 44
2, 386531, Note_off_c, 1, 67, 0
2, 386880, Note_off_c, 1, 70, 0
2, 387120, Note_on_c, 1, 70, 57
2, 387160, Note_off_c, 1, 70, 0
2, 387160, Note_on_c, 1, 72, 59
2, 387200, Note_off_c, 1, 72, 0
2, 387200, Note_on_c, 1, 70, 61
2, 387240, Note_off_c, 1, 70, 0
2, 387240, Note_on_c, 1, 69, 63
2, 387300, Note_off_c, 1, 69, 0
2, 387300, Note_on_c, 1, 70, 66
2, 387360, Note_off_c, 1, 70, 0
2, 387360, Note_on_c, 1, 80, 73
2, 387720, Note_off_c, 1, 80, 0
2, 387720, Note_on_c, 1, 77, 66
2, 387840, Note_off_c, 1, 77, 0
2, 387840, Note_on_c, 1, 74, 64
2, 387960, Note_off_c, 1, 74, 0
2, 388080, Note_on_c, 1, 68, 59
2, 388120, Note_off_c, 1, 68, 0
2, 388120, Note_on_c, 1, 70, 58
2, 388160, Note_off_c, 1, 70, 0
2, 388160, Note_on_c, 1, 68, 57
2, 388200, Note_off_c, 1, 68, 0
2, 388200, Note_on_c, 1, 67, 57
2, 388260, Note_off_c, 1, 67, 0
2, 388260, Note_on_c, 1, 68, 55
2, 388320, Note_off_c, 1, 68, 0
2, 388320, Note_on_c, 1, 67, 56
2, 388440, Note_off_c, 1, 67, 0
2, 388440, Note_on_c, 1, 70, 58
2, 388560, Note_off_c, 1, 70, 0
2, 388560, Note_on_c, 1, 75, 61
2, 388680, Note_off_c, 1, 75, 0
2, 388680, Note_on_c, 1, 79, 64
2, 388781, Note_off_c, 1, 79, 0
2, 388800, Note_on_c, 1, 82, 67
2, 388920, Note_off_c, 1, 82, 0
2, 388920, Note_on_c, 1, 79, 70
2, 389040, Note_off_c, 1, 79, 0
2, 389040, Note_on_c, 1, 75, 73
2, 389160, Note_off_c, 1, 75, 0
2, 389160, Note_on_c, 1, 70, 76
2, 389269, Note_off_c, 1, 70, 0
2, 389280, Note_on_c, 1, 72, 79
2, 389400, Note_off_c, 1, 72, 0
2, 389400, Note_on_c, 1, 84, 77
2, 389520, Note_off_c, 1, 84, 0
2, 389520, Note_on_c, 1, 83, 75
2, 389640, Note_off_c, 1, 83, 0
2, 389640, Note_on_c, 1, 84, 73
2, 389760, Note_off_c, 1, 84, 0
2, 389760, Note_on_c, 1, 79, 70
2, 389880, Note_off_c, 1, 79, 0
2, 389880, Note_on_c, 1, 80, 68
2, 390000, Note_off_c, 1, 80, 0
2, 390000, Note_on_c, 1, 76, 66
2, 390120, Note_off_c, 1, 76, 0
2, 390120, Note_on_c, 1, 77, 64
2, 390221, Note_off_c, 1, 77, 0
2, 390240, Note_on_c, 1, 75, 62
2, 390480, Note_off_c, 1, 75, 0
2, 390480, Note_on_c, 1, 74, 53
2, 390638, Note_off_c, 1, 74, 0
2, 391440, Note_on_c, 1, 82, 37
2, 391680, Note_off_c, 1, 82, 0
2, 391680, Note_on_c, 1, 80, 38
2, 391920, Note_off_c, 1, 80, 0
2, 391920, Note_on_c, 1, 79, 39
2, 392119, Note_off_c, 1, 79, 0
2, 392400, Note_on_c, 1, 76, 42
2, 392520, Note_off_c, 1, 76, 0
2, 392640, Note_on_c, 1, 76, 43
2, 392880, Note_off_c, 1, 76, 0
2, 392880, Note_on_c, 1, 77, 44
2, 393000, Note_off_c, 1, 77, 0
2, 393360, Note_on_c, 1, 84, 47
2, 393600, Note_off_c, 1, 84, 0
2, 393600, Note_on_c, 1, 82, 48
2, 393840, Note_off_c, 1, 82, 0
2, 393840, Note_on_c, 1, 80, 49
2, 394043, Note_off_c, 1, 80, 0
2, 394320, Note_on_c, 1, 78, 52
2, 394440, Note_off_c, 1, 78, 0
2, 394560, Note_on_c, 1, 78, 53
2, 394800, Note_off_c, 1, 78, 0
2, 394800, Note_on_c, 1, 79, 54
2, 394920, Note_off_c, 1, 79, 0
2, 395160, Note_on_c, 1, 75, 65
2, 395959, Note_off_c, 1, 75, 0
2, 396120, Note_on_c, 1, 72, 62
2, 396878, Note_off_c, 1, 72, 0
2, 396960, Note_on_c, 1, 72, 59
2, 397080, Note_off_c, 1, 72, 0
2, 397080, Note_on_c, 1, 70, 58
2, 397200, Note_off_c, 1, 70, 0
2, 397200, Note_on_c, 1, 68, 58
2, 397320, Note_off_c, 1, 68, 0
2, 397320, Note_on_c, 1, 67, 57
2, 397421, Note_off_c, 1, 67, 0
2, 397440, Note_on_c, 1, 67, 57
2, 397560, Note_off_c, 1, 67, 0
2, 397560, Note_on_c, 1, 65, 56
2, 397680, Note_off_c, 1, 65, 0
2, 397680, Note_on_c, 1, 63, 56
2, 397800, Note_off_c, 1, 63, 0
2, 397800, Note_on_c, 1, 62, 56
2, 397901, Note_off_c, 1, 62, 0
2, 397920, Note_on_c, 1, 65, 55
2, 398040, Note_off_c, 1, 65, 0
2, 398040, Note_on_c, 1, 63, 55
2, 398160, Note_off_c, 1, 63, 0
2, 398160, Note_on_c, 1, 67, 54
2, 398280, Note_off_c, 1, 67, 0
2, 398280, Note_on_c, 1, 65, 54
2, 398400, Note_off_c, 1, 65, 0
2, 398400, Note_on_c, 1, 68, 54
2, 398520, Note_off_c, 1, 68, 0
2, 398520, Note_on_c, 1, 67, 53
2, 398640, Note_off_c, 1, 67, 0
2, 398640, Note_on_c, 1, 70, 53
2, 398760, Note_off_c, 1, 70, 0
2, 398760, Note_on_c, 1, 68, 52
2, 398861, Note_off_c, 1, 68, 0
2, 398880, Note_on_c, 1, 72, 52
2, 399120, Note_off_c, 1, 72, 0
2, 399120, Note_on_c, 1, 70, 53
2, 399600, Note_off_c, 1, 70, 0
2, 399600, Note_on_c, 1, 67, 57
2, 399799, Note_off_c, 1, 67, 0
2, 399840, Note_on_c, 1, 64, 59
2, 400080, Note_off_c, 1, 64, 0
2, 400080, Note_on_c, 1, 67, 61
2, 400560, Note_off_c, 1, 67, 0
2, 400560, Note_on_c, 1, 65, 65
2, 400763, Note_off_c, 1, 65, 0
2, 400800, Note_on_c, 1, 71, 67
2, 401040, Note_off_c, 1, 71, 0
2, 401040, Note_on_c, 1, 72, 69
2, 401520, Note_off_c, 1, 72, 0
2, 401520, Note_on_c, 1, 68, 73
2, 401715, Note_off_c, 1, 68, 0
2, 401760, Note_on_c, 1, 66, 75
2, 402000, Note_off_c, 1, 66, 0
2, 402000, Note_on_c, 1, 68, 77
2, 402480, Note_off_c, 1, 68, 0
2, 402480, Note_on_c, 1, 67, 81
2, 402679, Note_off_c, 1, 67, 0
2, 402840, Note_on_c, 1, 75, 85
2, 403635, Note_off_c, 1, 75, 0
2, 403800, Note_on_c, 1, 72, 81
2, 404603, Note_off_c, 1, 72, 0
2, 404640, Note_on_c, 1, 72, 78
2, 404760, Note_off_c, 1, 72, 0
2, 404760, Note_on_c, 1, 70, 77
2, 404880, Note_off_c, 1, 70, 0
2, 404880, Note_on_c, 1, 68, 77
2, 405000, Note_off_c, 1, 68, 0
2, 405000, Note_on_c, 1, 67, 76
2, 405101, Note_off_c, 1, 67, 0
2, 405120, Note_on_c, 1, 67, 76
2, 405240, Note_off_c, 1, 67, 0
2, 405240, Note_on_c, 1, 65, 75
2, 405360, Note_off_c, 1, 65, 0
2, 405360, Note_on_c, 1, 63, 75
2, 405480, Note_off_c, 1, 63, 0
2, 405480, Note_on_c, 1, 62, 74
2, 405581, Note_off_c, 1, 62, 0
2, 405600, Note_on_c, 1, 63, 74
2, 405720, Note_off_c, 1, 63, 0
2, 405720, Note_on_c, 1, 75, 74
2, 405840, Note_off_c, 1, 75, 0
2, 405840, Note_on_c, 1, 77, 74
2, 405960, Note_off_c, 1, 77, 0
2, 405960, Note_on_c, 1, 79, 75
2, 406080, Note_off_c, 1, 79, 0
2, 406080, Note_on_c, 1, 80, 75
2, 406200, Note_off_c, 1, 80, 0
2, 406200, Note_on_c, 1, 82, 75
2, 406320, Note_off_c, 1, 82, 0
2, 406320, Note_on_c, 1, 84, 76
2, 406440, Note_off_c, 1, 84, 0
2, 406440, Note_on_c, 1, 86, 76
2, 406538, Note_off_c, 1, 86, 0
2, 406560, Note_on_c, 1, 87, 76
2, 406680, Note_off_c, 1, 87, 0
2, 406680, Note_on_c, 1, 82, 77
2, 406800, Note_off_c, 1, 82, 0
2, 406800, Note_on_c, 1, 79, 77
2, 406920, Note_off_c, 1, 79, 0
2, 406920, Note_on_c, 1, 75, 77
2, 407018, Note_off_c, 1, 75, 0
2, 407520, Note_on_c, 1, 72, 78
2, 407640, Note_off_c, 1, 72, 0
2, 407640, Note_on_c, 1, 77, 79
2, 407760, Note_off_c, 1, 77, 0
2, 407760, Note_on_c, 1, 80, 80
2, 407880, Note_off_c, 1, 80, 0
2, 407880, Note_on_c, 1, 84, 80
2, 407985, Note_off_c, 1, 84, 0
2, 408480, Note_on_c, 1, 84, 83
2, 408600, Note_off_c, 1, 84, 0
2, 408600, Note_on_c, 1, 82, 82
2, 408720, Note_off_c, 1, 82, 0
2, 408720, Note_on_c, 1, 80, 83
2, 408840, Note_off_c, 1, 80, 0
2, 408840, Note_on_c, 1, 79, 83
2, 408938, Note_off_c, 1, 79, 0
2, 408960, Note_on_c, 1, 79, 83
2, 409080, Note_off_c, 1, 79, 0
2, 409080, Note_on_c, 1, 77, 84
2, 409200, Note_off_c, 1, 77, 0
2, 409200, Note_on_c, 1, 75, 84
2, 409320, Note_off_c, 1, 75, 0
2, 409320, Note_on_c, 1, 74, 84
2, 409414, Note_off_c, 1, 74, 0
2, 409440, Note_on_c, 1, 75, 86
2, 409560, Note_off_c, 1, 75, 0
2, 409560, Note_on_c, 1, 77, 86
2, 409680, Note_off_c, 1, 77, 0
2, 409680, Note_on_c, 1, 79, 87
2, 409800, Note_off_c, 1, 79, 0
2, 409800, Note_on_c, 1, 80, 87
2, 409920, Note_off_c, 1, 80, 0
2, 409920, Note_on_c, 1, 82, 87
2, 410040, Note_off_c, 1, 82, 0
2, 410040, Note_on_c, 1, 84, 88
2, 410160, Note_off_c, 1, 84, 0
2, 410160, Note_on_c, 1, 86, 88
2, 410280, Note_off_c, 1, 86, 0
2, 410280, Note_on_c, 1, 87, 89
2, 410378, Note_off_c, 1, 87, 0
2, 410400, Note_on_c, 1, 83, 89
2, 410520, Note_off_c, 1, 83, 0
2, 410520, Note_on_c, 1, 84, 88
2, 410640, Note_off_c, 1, 84, 0
2, 410640, Note_on_c, 1, 80, 87
2, 410760, Note_off_c, 1, 80, 0
2, 410760, Note_on_c, 1, 77, 86
2, 410861, Note_off_c, 1, 77, 0
2, 410880, Note_on_c, 1, 79, 85
2, 411000, Note_off_c, 1, 79, 0
2, 411000, Note_on_c, 1, 80, 84
2, 411120, Note_off_c, 1, 80, 0
2, 411120, Note_on_c, 1, 77, 83
2, 411240, Note_off_c, 1, 77, 0
2, 411240, Note_on_c, 1, 74, 82
2, 411338, Note_off_c, 1, 74, 0
2, 411360, Note_on_c, 1, 75, 81
2, 411480, Note_off_c, 1, 75, 0
2, 411480, Note_on_c, 1, 77, 80
2, 411600, Note_off_c, 1, 77, 0
2, 411600, Note_on_c, 1, 79, 79
2, 411720, Note_off_c, 1, 79, 0
2, 411720, Note_on_c, 1, 80, 78
2, 411840, Note_off_c, 1, 80, 0
2, 411840, Note_on_c, 1, 82, 77
2, 411960, Note_off_c, 1, 82, 0
2, 411960, Note_on_c, 1, 79, 76
2, 412080, Note_off_c, 1, 79, 0
2, 412080, Note_on_c, 1, 75, 75
2, 412200, Note_off_c, 1, 75, 0
2, 412200, Note_on_c, 1, 70, 74
2, 412301, Note_off_c, 1, 70, 0
2, 412320, Note_on_c, 1, 71, 73
2, 412440, Note_off_c, 1, 71, 0
2, 412440, Note_on_c, 1, 72, 72
2, 412560, Note_off_c, 1, 72, 0
2, 412560, Note_on_c, 1, 68, 71
2, 412680, Note_off_c, 1, 68, 0
2, 412680, Note_on_c, 1, 65, 70
2, 412778, Note_off_c, 1, 65, 0
2, 412800, Note_on_c, 1, 67, 69
2, 412920, Note_off_c, 1, 67, 0
2, 412920, Note_on_c, 1, 68, 68
2, 413040, Note_off_c, 1, 68, 0
2, 413040, Note_on_c, 1, 65, 67
2, 413160, Note_off_c, 1, 65, 0
2, 413160, Note_on_c, 1, 62, 66
2, 413261, Note_off_c, 1, 62, 0
2, 413280, Note_on_c, 1, 63, 72
2, 413400, Note_off_c, 1, 63, 0
2, 413400, Note_on_c, 1, 70, 74
2, 413520, Note_off_c, 1, 70, 0
2, 413520, Note_on_c, 1, 69, 75
2, 413640, Note_off_c, 1, 69, 0
2, 413640, Note_on_c, 1, 70, 77
2, 413760, Note_off_c, 1, 70, 0
2, 413760, Note_on_c, 1, 72, 78
2, 413880, Note_off_c, 1, 72, 0
2, 413880, Note_on_c, 1, 70, 80
2, 414000, Note_off_c, 1, 70, 0
2, 414000, Note_on_c, 1, 74, 81
2, 414120, Note_off_c, 1, 74, 0
2, 414120, Note_on_c, 1, 70, 83
2, 414240, Note_off_c, 1, 70, 0
2, 414240, Note_on_c, 1, 75, 84
2, 414360, Note_off_c, 1, 75, 0
2, 414360, Note_on_c, 1, 70, 86
2, 414480, Note_off_c, 1, 70, 0
2, 414480, Note_on_c, 1, 69, 87
2, 414600, Note_off_c, 1, 69, 0
2, 414600, Note_on_c, 1, 70, 89
2, 414720, Note_off_c, 1, 70, 0
2, 414720, Note_on_c, 1, 72, 90
2, 414840, Note_off_c, 1, 72, 0
2, 414840, Note_on_c, 1, 70, 92
2, 414960, Note_off_c, 1, 70, 0
2, 414960, Note_on_c, 1, 74, 93
2, 415080, Note_off_c, 1, 74, 0
2, 415080, Note_on_c, 1, 70, 95
2, 415178, Note_off_c, 1, 70, 0
2, 415200, Note_on_c, 1, 75, 96
2, 415680, Note_off_c, 1, 75, 0
2, 416160, End_track
3, 0, Start_track
3, 0, Instrument_name_t, "Roland Serial MIDI Out Port A"
3, 0, Title_t, "Unnamed Track"
3, 0, Control_c, 2, 0, 0
3, 0, Control_c, 2, 32, 0
3, 0, Program_c, 2, 0
3, 0, Control_c, 2, 7, 122
3, 0, Pitch_bend_c, 2, 8192
3, 0, Control_c, 2, 1, 0
3, 0, Control_c, 2, 1, 0
3, 0, Pitch_bend_c, 2, 8192
3, 0, Control_c, 2, 93, 18
3, 0, Pitch_bend_c, 2, 8192
3, 0, Control_c, 2, 64, 0
3, 0, Control_c, 2, 93, 28
3, 0, Control_c, 2, 91, 100
3, 0, Control_c, 2, 10, 73
3, 31920, Note_on_c, 2, 70, 39
3, 32160, Note_off_c, 2, 70, 0
3, 32160, Note_on_c, 2, 69, 40
3, 32400, Note_off_c, 2, 69, 0
3, 32400, Note_on_c, 2, 64, 41
3, 32610, Note_off_c, 2, 64, 0
3, 32640, Note_on_c, 2, 64, 45
3, 33600, Note_off_c, 2, 64, 0
3, 33600, Note_on_c, 2, 65, 30
3, 34080, Note_off_c, 2, 65, 0
3, 73920, Note_on_c, 2, 63, 48
3, 74828, Note_off_c, 2, 63, 0
3, 74880, Note_on_c, 2, 63, 45
3, 75780, Note_off_c, 2, 63, 0
3, 75840, Note_on_c, 2, 63, 56
3, 76740, Note_off_c, 2, 63, 0
3, 101040, Note_on_c, 2, 75, 57
3, 101280, Note_off_c, 2, 75, 0
3, 101280, Note_on_c, 2, 74, 59
3, 101520, Note_off_c, 2, 74, 0
3, 101520, Note_on_c, 2, 69, 61
3, 101708, Note_off_c, 2, 69, 0
3, 101760, Note_on_c, 2, 69, 66
3, 102720, Note_off_c, 2, 69, 0
3, 102720, Note_on_c, 2, 70, 42
3, 103200, Note_off_c, 2, 70, 0
3, 139680, Note_on_c, 2, 62, 28
3, 140115, Note_off_c, 2, 62, 0
3, 140160, Note_on_c, 2, 62, 27
3, 141120, Note_off_c, 2, 62, 0
3, 143040, Control_c, 2, 64, 0
3, 160320, Note_on_c, 2, 71, 79
3, 160360, Note_on_c, 2, 74, 79
3, 160680, Note_off_c, 2, 71, 0
3, 160680, Note_off_c, 2, 74, 0
3, 160800, Note_on_c, 2, 72, 83
3, 160840, Note_on_c, 2, 76, 83
3, 161155, Note_off_c, 2, 76, 0
3, 161165, Note_off_c, 2, 72, 0
3, 161280, Note_on_c, 2, 69, 81
3, 161320, Note_on_c, 2, 72, 81
3, 161635, Note_off_c, 2, 72, 0
3, 161640, Note_off_c, 2, 69, 0
3, 161760, Note_on_c, 2, 70, 79
3, 161800, Note_on_c, 2, 74, 78
3, 162120, Note_off_c, 2, 70, 0
3, 162120, Note_off_c, 2, 74, 0
3, 162240, Note_on_c, 2, 67, 76
3, 162280, Note_on_c, 2, 70, 76
3, 162600, Note_off_c, 2, 67, 0
3, 162600, Note_off_c, 2, 70, 0
3, 162720, Note_on_c, 2, 66, 73
3, 162760, Note_on_c, 2, 72, 73
3, 163080, Note_off_c, 2, 66, 0
3, 163080, Note_off_c, 2, 72, 0
3, 163200, Note_on_c, 2, 65, 71
3, 163240, Note_on_c, 2, 70, 71
3, 163555, Note_off_c, 2, 65, 0
3, 163560, Note_off_c, 2, 70, 0
3, 166560, Note_on_c, 2, 72, 69
3, 167040, Note_off_c, 2, 72, 0
3, 167040, Note_on_c, 2, 70, 67
3, 167400, Note_off_c, 2, 70, 0
3, 167400, Note_on_c, 2, 69, 66
3, 167496, Note_off_c, 2, 69, 0
3, 167520, Note_on_c, 2, 70, 65
3, 167880, Note_off_c, 2, 70, 0
3, 167880, Note_on_c, 2, 72, 64
3, 167976, Note_off_c, 2, 72, 0
3, 168000, Note_on_c, 2, 70, 64
3, 168480, Note_off_c, 2, 70, 0
3, 168480, Note_on_c, 2, 69, 62
3, 168864, Note_off_c, 2, 69, 0
3, 169920, Note_on_c, 2, 77, 51
3, 170076, Note_off_c, 2, 77, 0
3, 170400, Note_on_c, 2, 77, 47
3, 170556, Note_off_c, 2, 77, 0
3, 170880, Note_on_c, 2, 77, 42
3, 171240, Note_off_c, 2, 77, 0
3, 172800, Note_on_c, 2, 87, 54
3, 172956, Note_off_c, 2, 87, 0
3, 173280, Note_on_c, 2, 87, 49
3, 173436, Note_off_c, 2, 87, 0
3, 173760, Note_on_c, 2, 86, 45
3, 174120, Note_off_c, 2, 86, 0
3, 183360, Note_on_c, 2, 75, 47
3, 183720, Note_off_c, 2, 75, 0
3, 183720, Note_on_c, 2, 74, 51
3, 183816, Note_off_c, 2, 74, 0
3, 183840, Note_on_c, 2, 74, 53
3, 184224, Note_off_c, 2, 74, 0
3, 184800, Note_on_c, 2, 75, 53
3, 185160, Note_off_c, 2, 75, 0
3, 185160, Note_on_c, 2, 74, 58
3, 185256, Note_off_c, 2, 74, 0
3, 185280, Note_on_c, 2, 74, 61
3, 185664, Note_off_c, 2, 74, 0
3, 186720, Note_on_c, 2, 67, 72
3, 187680, Note_off_c, 2, 67, 0
3, 187680, Note_on_c, 2, 63, 67
3, 188064, Note_off_c, 2, 63, 0
3, 188160, Note_on_c, 2, 62, 64
3, 188544, Note_off_c, 2, 62, 0
3, 189120, Control_c, 2, 64, 0
3, 212160, Control_c, 2, 64, 0
3, 235200, Control_c, 2, 64, 0
3, 269760, Control_c, 2, 64, 0
3, 287040, Note_on_c, 2, 71, 79
3, 287080, Note_on_c, 2, 74, 79
3, 287400, Note_off_c, 2, 71, 0
3, 287400, Note_off_c, 2, 74, 0
3, 287520, Note_on_c, 2, 72, 83
3, 287560, Note_on_c, 2, 76, 83
3, 287875, Note_off_c, 2, 76, 0
3, 287885, Note_off_c, 2, 72, 0
3, 288000, Note_on_c, 2, 69, 81
3, 288040, Note_on_c, 2, 72, 81
3, 288355, Note_off_c, 2, 72, 0
3, 288360, Note_off_c, 2, 69, 0
3, 288480, Note_on_c, 2, 70, 79
3, 288520, Note_on_c, 2, 74, 78
3, 288840, Note_off_c, 2, 70, 0
3, 288840, Note_off_c, 2, 74, 0
3, 288960, Note_on_c, 2, 67, 76
3, 289000, Note_on_c, 2, 70, 76
3, 289320, Note_off_c, 2, 67, 0
3, 289320, Note_off_c, 2, 70, 0
3, 289440, Note_on_c, 2, 66, 73
3, 289480, Note_on_c, 2, 72, 73
3, 289800, Note_off_c, 2, 66, 0
3, 289800, Note_off_c, 2, 72, 0
3, 289920, Note_on_c, 2, 65, 71
3, 289960, Note_on_c, 2, 70, 71
3, 290275, Note_off_c, 2, 65, 0
3, 290280, Note_off_c, 2, 70, 0
3, 293280, Note_on_c, 2, 72, 69
3, 293760, Note_off_c, 2, 72, 0
3, 293760, Note_on_c, 2, 70, 67
3, 294120, Note_off_c, 2, 70, 0
3, 294120, Note_on_c, 2, 69, 66
3, 294216, Note_off_c, 2, 69, 0
3, 294240, Note_on_c, 2, 70, 65
3, 294600, Note_off_c, 2, 70, 0
3, 294600, Note_on_c, 2, 72, 64
3, 294696, Note_off_c, 2, 72, 0
3, 294720, Note_on_c, 2, 70, 64
3, 295200, Note_off_c, 2, 70, 0
3, 295200, Note_on_c, 2, 69, 62
3, 295584, Note_off_c, 2, 69, 0
3, 296640, Note_on_c, 2, 77, 51
3, 296796, Note_off_c, 2, 77, 0
3, 297120, Note_on_c, 2, 77, 47
3, 297276, Note_off_c, 2, 77, 0
3, 297600, Note_on_c, 2, 77, 42
3, 297960, Note_off_c, 2, 77, 0
3, 299520, Note_on_c, 2, 87, 54
3, 299676, Note_off_c, 2, 87, 0
3, 300000, Note_on_c, 2, 87, 49
3, 300156, Note_off_c, 2, 87, 0
3, 300480, Note_on_c, 2, 86, 45
3, 300840, Note_off_c, 2, 86, 0
3, 310080, Note_on_c, 2, 75, 47
3, 310440, Note_off_c, 2, 75, 0
3, 310440, Note_on_c, 2, 74, 51
3, 310536, Note_off_c, 2, 74, 0
3, 310560, Note_on_c, 2, 74, 53
3, 310944, Note_off_c, 2, 74, 0
3, 311520, Note_on_c, 2, 75, 53
3, 311880, Note_off_c, 2, 75, 0
3, 311880, Note_on_c, 2, 74, 58
3, 311976, Note_off_c, 2, 74, 0
3, 312000, Note_on_c, 2, 74, 61
3, 312384, Note_off_c, 2, 74, 0
3, 313440, Note_on_c, 2, 67, 72
3, 314400, Note_off_c, 2, 67, 0
3, 314400, Note_on_c, 2, 63, 67
3, 314784, Note_off_c, 2, 63, 0
3, 314880, Note_on_c, 2, 62, 64
3, 315264, Note_off_c, 2, 62, 0
3, 315840, Control_c, 2, 64, 0
3, 324480, Note_on_c, 2, 74, 69
3, 324600, Note_off_c, 2, 74, 0
3, 324720, Note_on_c, 2, 75, 68
3, 324840, Note_off_c, 2, 75, 0
3, 324960, Note_on_c, 2, 75, 65
3, 325200, Note_off_c, 2, 75, 0
3, 325200, Note_on_c, 2, 74, 60
3, 325320, Note_off_c, 2, 74, 0
3, 336480, Note_on_c, 2, 70, 81
3, 336520, Note_on_c, 2, 74, 81
3, 336560, Note_on_c, 2, 77, 81
3, 337399, Note_off_c, 2, 70, 0
3, 337399, Note_off_c, 2, 74, 0
3, 337399, Note_off_c, 2, 77, 0
3, 337440, Note_on_c, 2, 67, 79
3, 337480, Note_on_c, 2, 72, 79
3, 337520, Note_on_c, 2, 75, 79
3, 338355, Note_off_c, 2, 72, 0
3, 338355, Note_off_c, 2, 75, 0
3, 338359, Note_off_c, 2, 67, 0
3, 344160, Note_on_c, 2, 70, 85
3, 344200, Note_on_c, 2, 74, 85
3, 344240, Note_on_c, 2, 77, 85
3, 345075, Note_off_c, 2, 70, 0
3, 345079, Note_off_c, 2, 74, 0
3, 345079, Note_off_c, 2, 77, 0
3, 345120, Note_on_c, 2, 67, 81
3, 345160, Note_on_c, 2, 72, 81
3, 345200, Note_on_c, 2, 75, 81
3, 346039, Note_off_c, 2, 67, 0
3, 346039, Note_off_c, 2, 72, 0
3, 346039, Note_off_c, 2, 75, 0
3, 357960, Note_on_c, 2, 72, 70
3, 358080, Note_off_c, 2, 72, 0
3, 358200, Note_on_c, 2, 72, 71
3, 358320, Note_off_c, 2, 72, 0
3, 358440, Note_on_c, 2, 72, 73
3, 358560, Note_off_c, 2, 72, 0
3, 358680, Note_on_c, 2, 72, 74
3, 358800, Note_off_c, 2, 72, 0
3, 358920, Note_on_c, 2, 72, 76
3, 359040, Note_off_c, 2, 72, 0
3, 361560, Note_on_c, 2, 70, 58
3, 361680, Note_off_c, 2, 70, 0
3, 361800, Note_on_c, 2, 70, 60
3, 361920, Note_off_c, 2, 70, 0
3, 362040, Note_on_c, 2, 70, 61
3, 362160, Note_off_c, 2, 70, 0
3, 362280, Note_on_c, 2, 70, 63
3, 362400, Note_off_c, 2, 70, 0
3, 362520, Note_on_c, 2, 70, 65
3, 362640, Note_off_c, 2, 70, 0
3, 362760, Note_on_c, 2, 70, 66
3, 362880, Note_off_c, 2, 70, 0
3, 363600, Note_on_c, 2, 67, 40
3, 363720, Note_off_c, 2, 67, 0
3, 363840, Note_on_c, 2, 67, 41
3, 364560, Note_off_c, 2, 67, 0
3, 364560, Note_on_c, 2, 68, 44
3, 364680, Note_off_c, 2, 68, 0
3, 364800, Note_on_c, 2, 68, 45
3, 365520, Note_off_c, 2, 68, 0
3, 365520, Note_on_c, 2, 66, 61
3, 365640, Note_off_c, 2, 66, 0
3, 365760, Note_on_c, 2, 66, 62
3, 366480, Note_off_c, 2, 66, 0
3, 366480, Note_on_c, 2, 65, 64
3, 366600, Note_off_c, 2, 65, 0
3, 366720, Note_on_c, 2, 65, 65
3, 367440, Note_off_c, 2, 65, 0
3, 367440, Note_on_c, 2, 70, 45
3, 367560, Note_off_c, 2, 70, 0
3, 367680, Note_on_c, 2, 70, 47
3, 368400, Note_off_c, 2, 70, 0
3, 368400, Note_on_c, 2, 70, 51
3, 368520, Note_off_c, 2, 70, 0
3, 368640, Note_on_c, 2, 70, 53
3, 369360, Note_off_c, 2, 70, 0
3, 369360, Note_on_c, 2, 68, 67
3, 369480, Note_off_c, 2, 68, 0
3, 369600, Note_on_c, 2, 68, 68
3, 370320, Note_off_c, 2, 68, 0
3, 370320, Note_on_c, 2, 67, 71
3, 370440, Note_off_c, 2, 67, 0
3, 370560, Note_on_c, 2, 67, 71
3, 370680, Note_off_c, 2, 67, 0
3, 374160, Note_on_c, 2, 78, 76
3, 374280, Note_off_c, 2, 78, 0
3, 374400, Note_on_c, 2, 79, 69
3, 374520, Note_off_c, 2, 79, 0
3, 383040, Note_on_c, 2, 74, 69
3, 383160, Note_off_c, 2, 74, 0
3, 383280, Note_on_c, 2, 75, 66
3, 383400, Note_off_c, 2, 75, 0
3, 383520, Note_on_c, 2, 75, 62
3, 383760, Note_off_c, 2, 75, 0
3, 383760, Note_on_c, 2, 74, 54
3, 383880, Note_off_c, 2, 74, 0
3, 395040, Note_on_c, 2, 63, 65
3, 395080, Note_on_c, 2, 67, 65
3, 395120, Note_on_c, 2, 70, 65
3, 395955, Note_off_c, 2, 63, 0
3, 395959, Note_off_c, 2, 67, 0
3, 395959, Note_off_c, 2, 70, 0
3, 396000, Note_on_c, 2, 60, 62
3, 396040, Note_on_c, 2, 65, 62
3, 396080, Note_on_c, 2, 68, 62
3, 396870, Note_off_c, 2, 60, 0
3, 396874, Note_off_c, 2, 68, 0
3, 396878, Note_off_c, 2, 65, 0
3, 402720, Note_on_c, 2, 63, 85
3, 402760, Note_on_c, 2, 67, 85
3, 402800, Note_on_c, 2, 70, 85
3, 403631, Note_off_c, 2, 63, 0
3, 403639, Note_off_c, 2, 67, 0
3, 403643, Note_off_c, 2, 70, 0
3, 403680, Note_on_c, 2, 60, 81
3, 403720, Note_on_c, 2, 65, 81
3, 403760, Note_on_c, 2, 68, 81
3, 404595, Note_off_c, 2, 60, 0
3, 404595, Note_off_c, 2, 65, 0
3, 404595, Note_off_c, 2, 68, 0
3, 407040, Note_on_c, 2, 75, 70
3, 407080, Note_off_c, 2, 75, 0
3, 407080, Note_on_c, 2, 77, 71
3, 407120, Note_off_c, 2, 77, 0
3, 407120, Note_on_c, 2, 75, 72
3, 407160, Note_off_c, 2, 75, 0
3, 407160, Note_on_c, 2, 77, 72
3, 407200, Note_off_c, 2, 77, 0
3, 407200, Note_on_c, 2, 75, 73
3, 407240, Note_off_c, 2, 75, 0
3, 407240, Note_on_c, 2, 77, 74
3, 407280, Note_off_c, 2, 77, 0
3, 407280, Note_on_c, 2, 75, 74
3, 407320, Note_off_c, 2, 75, 0
3, 407320, Note_on_c, 2, 77, 75
3, 407360, Note_off_c, 2, 77, 0
3, 407360, Note_on_c, 2, 75, 76
3, 407400, Note_off_c, 2, 75, 0
3, 407400, Note_on_c, 2, 74, 76
3, 407460, Note_off_c, 2, 74, 0
3, 407460, Note_on_c, 2, 75, 77
3, 407520, Note_off_c, 2, 75, 0
3, 408000, Note_on_c, 2, 84, 73
3, 408040, Note_off_c, 2, 84, 0
3, 408040, Note_on_c, 2, 86, 74
3, 408080, Note_off_c, 2, 86, 0
3, 408080, Note_on_c, 2, 84, 74
3, 408120, Note_off_c, 2, 84, 0
3, 408120, Note_on_c, 2, 86, 75
3, 408160, Note_off_c, 2, 86, 0
3, 408160, Note_on_c, 2, 84, 76
3, 408200, Note_off_c, 2, 84, 0
3, 408200, Note_on_c, 2, 86, 77
3, 408240, Note_off_c, 2, 86, 0
3, 408240, Note_on_c, 2, 84, 78
3, 408280, Note_off_c, 2, 84, 0
3, 408280, Note_on_c, 2, 86, 78
3, 408320, Note_off_c, 2, 86, 0
3, 408320, Note_on_c, 2, 84, 79
3, 408360, Note_off_c, 2, 84, 0
3, 408360, Note_on_c, 2, 83, 80
3, 408420, Note_off_c, 2, 83, 0
3, 408420, Note_on_c, 2, 84, 81
3, 408480, Note_off_c, 2, 84, 0
3, 416160, End_track
4, 0, Start_track
4, 0, Instrument_name_t, "Roland Serial MIDI Out Port A"
4, 0, Title_t, "Unnamed Track"
4, 0, Control_c, 3, 0, 0
4, 0, Control_c, 3, 32, 0
4, 0, Program_c, 3, 0
4, 0, Control_c, 3, 64, 0
4, 0, Control_c, 3, 7, 112
4, 0, Pitch_bend_c, 3, 8192
4, 0, Control_c, 3, 1, 0
4, 0, Control_c, 3, 1, 0
4, 0, Pitch_bend_c, 3, 8192
4, 0, Control_c, 3, 93, 18
4, 0, Pitch_bend_c, 3, 8192
4, 0, Control_c, 3, 93, 28
4, 0, Control_c, 3, 91, 100
4, 0, Control_c, 3, 10, 64
4, 15360, Control_c, 3, 64, 127
4, 15600, Note_on_c, 3, 55, 39
4, 15840, Note_off_c, 3, 55, 0
4, 15840, Note_on_c, 3, 58, 40
4, 16080, Note_off_c, 3, 58, 0
4, 16080, Note_on_c, 3, 63, 41
4, 16260, Control_c, 3, 64, 0
4, 16260, Note_off_c, 3, 63, 0
4, 16320, Control_c, 3, 64, 127
4, 16560, Note_on_c, 3, 55, 44
4, 16800, Note_off_c, 3, 55, 0
4, 16800, Note_on_c, 3, 58, 45
4, 17040, Note_off_c, 3, 58, 0
4, 17040, Note_on_c, 3, 63, 46
4, 17220, Control_c, 3, 64, 0
4, 17220, Note_off_c, 3, 63, 0
4, 17280, Control_c, 3, 64, 127
4, 17520, Note_on_c, 3, 55, 49
4, 17760, Note_off_c, 3, 55, 0
4, 17760, Note_on_c, 3, 58, 50
4, 18000, Note_off_c, 3, 58, 0
4, 18000, Note_on_c, 3, 63, 52
4, 18180, Control_c, 3, 64, 0
4, 18180, Note_off_c, 3, 63, 0
4, 18240, Control_c, 3, 64, 127
4, 18480, Note_on_c, 3, 55, 54
4, 18720, Note_off_c, 3, 55, 0
4, 18720, Note_on_c, 3, 58, 55
4, 18960, Note_off_c, 3, 58, 0
4, 18960, Note_on_c, 3, 63, 57
4, 19140, Control_c, 3, 64, 0
4, 19140, Note_off_c, 3, 63, 0
4, 19200, Control_c, 3, 64, 127
4, 19440, Note_on_c, 3, 56, 50
4, 19680, Note_off_c, 3, 56, 0
4, 19680, Note_on_c, 3, 62, 47
4, 19920, Note_off_c, 3, 62, 0
4, 19920, Note_on_c, 3, 65, 44
4, 20100, Control_c, 3, 64, 0
4, 20100, Note_off_c, 3, 65, 0
4, 20160, Control_c, 3, 64, 127
4, 20400, Note_on_c, 3, 56, 41
4, 20640, Note_off_c, 3, 56, 0
4, 20640, Note_on_c, 3, 62, 43
4, 20880, Note_off_c, 3, 62, 0
4, 20880, Note_on_c, 3, 65, 45
4, 21060, Control_c, 3, 64, 0
4, 21060, Note_off_c, 3, 65, 0
4, 21120, Control_c, 3, 64, 127
4, 21360, Note_on_c, 3, 56, 48
4, 21600, Note_off_c, 3, 56, 0
4, 21600, Note_on_c, 3, 62, 50
4, 21840, Note_off_c, 3, 62, 0
4, 21840, Note_on_c, 3, 65, 52
4, 22020, Control_c, 3, 64, 0
4, 22020, Note_off_c, 3, 65, 0
4, 22080, Control_c, 3, 64, 127
4, 22320, Note_on_c, 3, 56, 55
4, 22560, Note_off_c, 3, 56, 0
4, 22560, Note_on_c, 3, 62, 57
4, 22800, Note_off_c, 3, 62, 0
4, 22800, Note_on_c, 3, 65, 59
4, 22973, Note_off_c, 3, 65, 0
4, 22980, Control_c, 3, 64, 0
4, 23040, Control_c, 3, 64, 127
4, 23280, Note_on_c, 3, 58, 53
4, 23520, Note_off_c, 3, 58, 0
4, 23520, Note_on_c, 3, 63, 51
4, 23760, Note_off_c, 3, 63, 0
4, 23760, Note_on_c, 3, 67, 48
4, 23940, Control_c, 3, 64, 0
4, 23948, Note_off_c, 3, 67, 0
4, 24000, Control_c, 3, 64, 127
4, 24240, Note_on_c, 3, 58, 45
4, 24480, Note_off_c, 3, 58, 0
4, 24480, Note_on_c, 3, 63, 45
4, 24720, Note_off_c, 3, 63, 0
4, 24720, Note_on_c, 3, 67, 44
4, 24900, Control_c, 3, 64, 0
4, 24900, Note_off_c, 3, 67, 0
4, 24960, Control_c, 3, 64, 127
4, 25200, Note_on_c, 3, 58, 44
4, 25440, Note_off_c, 3, 58, 0
4, 25440, Note_on_c, 3, 63, 43
4, 25680, Note_off_c, 3, 63, 0
4, 25680, Note_on_c, 3, 66, 44
4, 25860, Control_c, 3, 64, 0
4, 25868, Note_off_c, 3, 66, 0
4, 25920, Control_c, 3, 64, 127
4, 26160, Note_on_c, 3, 58, 42
4, 26400, Note_off_c, 3, 58, 0
4, 26400, Note_on_c, 3, 63, 42
4, 26640, Note_off_c, 3, 63, 0
4, 26640, Note_on_c, 3, 66, 48
4, 26820, Control_c, 3, 64, 0
4, 26828, Note_off_c, 3, 66, 0
4, 26880, Control_c, 3, 64, 127
4, 27120, Note_on_c, 3, 57, 41
4, 27360, Note_off_c, 3, 57, 0
4, 27360, Note_on_c, 3, 60, 42
4, 27600, Note_off_c, 3, 60, 0
4, 27600, Note_on_c, 3, 63, 44
4, 27780, Control_c, 3, 64, 0
4, 27788, Note_off_c, 3, 63, 0
4, 27840, Control_c, 3, 64, 127
4, 28080, Note_on_c, 3, 57, 47
4, 28320, Note_off_c, 3, 57, 0
4, 28320, Note_on_c, 3, 60, 48
4, 28560, Note_off_c, 3, 60, 0
4, 28560, Note_on_c, 3, 63, 50
4, 28740, Control_c, 3, 64, 0
4, 28748, Note_off_c, 3, 63, 0
4, 28800, Control_c, 3, 64, 127
4, 29040, Note_on_c, 3, 55, 50
4, 29280, Note_off_c, 3, 55, 0
4, 29280, Note_on_c, 3, 58, 47
4, 29520, Note_off_c, 3, 58, 0
4, 29520, Note_on_c, 3, 61, 45
4, 29700, Control_c, 3, 64, 0
4, 29708, Note_off_c, 3, 61, 0
4, 29760, Control_c, 3, 64, 127
4, 30000, Note_on_c, 3, 55, 40
4, 30240, Note_off_c, 3, 55, 0
4, 30240, Note_on_c, 3, 58, 38
4, 30480, Note_off_c, 3, 58, 0
4, 30480, Note_on_c, 3, 61, 36
4, 30660, Control_c, 3, 64, 0
4, 30660, Note_off_c, 3, 61, 0
4, 34560, Control_c, 3, 64, 127
4, 34800, Note_on_c, 3, 65, 42
4, 34800, Note_on_c, 3, 62, 42
4, 35010, Note_off_c, 3, 65, 0
4, 35010, Note_off_c, 3, 62, 0
4, 35040, Note_on_c, 3, 65, 42
4, 35040, Note_on_c, 3, 62, 42
4, 35250, Note_off_c, 3, 65, 0
4, 35250, Note_off_c, 3, 62, 0
4, 35280, Note_on_c, 3, 65, 42
4, 35280, Note_on_c, 3, 62, 42
4, 35460, Control_c, 3, 64, 0
4, 35490, Note_off_c, 3, 65, 0
4, 35490, Note_off_c, 3, 62, 0
4, 35520, Control_c, 3, 64, 127
4, 35760, Note_on_c, 3, 62, 43
4, 35760, Note_on_c, 3, 65, 43
4, 35970, Note_off_c, 3, 62, 0
4, 35970, Note_off_c, 3, 65, 0
4, 36000, Note_on_c, 3, 65, 44
4, 36000, Note_on_c, 3, 62, 44
4, 36210, Note_off_c, 3, 65, 0
4, 36210, Note_off_c, 3, 62, 0
4, 36240, Note_on_c, 3, 62, 44
4, 36240, Note_on_c, 3, 65, 44
4, 36420, Control_c, 3, 64, 0
4, 36450, Note_off_c, 3, 62, 0
4, 36450, Note_off_c, 3, 65, 0
4, 36480, Control_c, 3, 64, 127
4, 36720, Note_on_c, 3, 63, 45
4, 36720, Note_on_c, 3, 65, 45
4, 36910, Note_off_c, 3, 63, 0
4, 36910, Note_off_c, 3, 65, 0
4, 36960, Note_on_c, 3, 63, 45
4, 36960, Note_on_c, 3, 65, 45
4, 37150, Note_off_c, 3, 63, 0
4, 37150, Note_off_c, 3, 65, 0
4, 37200, Note_on_c, 3, 63, 46
4, 37200, Note_on_c, 3, 65, 46
4, 37380, Control_c, 3, 64, 0
4, 37390, Note_off_c, 3, 63, 0
4, 37390, Note_off_c, 3, 65, 0
4, 37440, Control_c, 3, 64, 127
4, 37680, Note_on_c, 3, 65, 46
4, 37680, Note_on_c, 3, 63, 46
4, 37870, Note_off_c, 3, 65, 0
4, 37870, Note_off_c, 3, 63, 0
4, 37920, Note_on_c, 3, 65, 47
4, 37920, Note_on_c, 3, 63, 47
4, 38110, Note_off_c, 3, 65, 0
4, 38110, Note_off_c, 3, 63, 0
4, 38160, Note_on_c, 3, 65, 47
4, 38160, Note_on_c, 3, 63, 47
4, 38340, Control_c, 3, 64, 0
4, 38350, Note_off_c, 3, 65, 0
4, 38350, Note_off_c, 3, 63, 0
4, 38400, Control_c, 3, 64, 127
4, 38640, Note_on_c, 3, 62, 48
4, 38640, Note_on_c, 3, 65, 48
4, 38830, Note_off_c, 3, 62, 0
4, 38830, Note_off_c, 3, 65, 0
4, 38880, Note_on_c, 3, 62, 48
4, 38880, Note_on_c, 3, 65, 48
4, 39070, Note_off_c, 3, 62, 0
4, 39070, Note_off_c, 3, 65, 0
4, 39120, Note_on_c, 3, 62, 49
4, 39120, Note_on_c, 3, 65, 49
4, 39300, Control_c, 3, 64, 0
4, 39310, Note_off_c, 3, 62, 0
4, 39310, Note_off_c, 3, 65, 0
4, 39360, Control_c, 3, 64, 127
4, 39600, Note_on_c, 3, 62, 50
4, 39600, Note_on_c, 3, 65, 50
4, 39790, Note_off_c, 3, 62, 0
4, 39790, Note_off_c, 3, 65, 0
4, 39840, Note_on_c, 3, 62, 50
4, 39840, Note_on_c, 3, 65, 50
4, 40030, Note_off_c, 3, 62, 0
4, 40030, Note_off_c, 3, 65, 0
4, 40080, Note_on_c, 3, 65, 50
4, 40080, Note_on_c, 3, 62, 50
4, 40260, Control_c, 3, 64, 0
4, 40270, Note_off_c, 3, 65, 0
4, 40270, Note_off_c, 3, 62, 0
4, 40320, Control_c, 3, 64, 127
4, 40560, Note_on_c, 3, 65, 51
4, 40560, Note_on_c, 3, 63, 51
4, 40750, Note_off_c, 3, 65, 0
4, 40750, Note_off_c, 3, 63, 0
4, 40800, Note_on_c, 3, 65, 52
4, 40800, Note_on_c, 3, 63, 52
4, 40990, Note_off_c, 3, 65, 0
4, 40990, Note_off_c, 3, 63, 0
4, 41040, Note_on_c, 3, 65, 52
4, 41040, Note_on_c, 3, 63, 52
4, 41220, Control_c, 3, 64, 0
4, 41230, Note_off_c, 3, 65, 0
4, 41230, Note_off_c, 3, 63, 0
4, 41280, Control_c, 3, 64, 127
4, 41520, Note_on_c, 3, 65, 53
4, 41520, Note_on_c, 3, 63, 53
4, 41710, Note_off_c, 3, 65, 0
4, 41710, Note_off_c, 3, 63, 0
4, 41760, Note_on_c, 3, 65, 53
4, 41760, Note_on_c, 3, 63, 53
4, 41950, Note_off_c, 3, 65, 0
4, 41950, Note_off_c, 3, 63, 0
4, 42000, Note_on_c, 3, 65, 54
4, 42000, Note_on_c, 3, 63, 54
4, 42180, Control_c, 3, 64, 0
4, 42190, Note_off_c, 3, 65, 0
4, 42190, Note_off_c, 3, 63, 0
4, 42240, Control_c, 3, 64, 127
4, 42480, Note_on_c, 3, 65, 54
4, 42480, Note_on_c, 3, 62, 54
4, 42670, Note_off_c, 3, 65, 0
4, 42670, Note_off_c, 3, 62, 0
4, 42720, Note_on_c, 3, 65, 55
4, 42720, Note_on_c, 3, 62, 55
4, 42910, Note_off_c, 3, 65, 0
4, 42910, Note_off_c, 3, 62, 0
4, 42960, Note_on_c, 3, 65, 55
4, 42960, Note_on_c, 3, 62, 55
4, 43140, Control_c, 3, 64, 0
4, 43150, Note_off_c, 3, 65, 0
4, 43150, Note_off_c, 3, 62, 0
4, 43200, Control_c, 3, 64, 127
4, 43440, Note_on_c, 3, 50, 68
4, 43680, Control_c, 3, 64, 0
4, 43680, Note_off_c, 3, 50, 0
4, 43740, Control_c, 3, 64, 127
4, 43920, Note_on_c, 3, 51, 71
4, 44100, Control_c, 3, 64, 0
4, 44100, Note_off_c, 3, 51, 0
4, 44160, Control_c, 3, 64, 127
4, 44400, Note_on_c, 3, 53, 73
4, 44640, Note_off_c, 3, 53, 0
4, 44640, Note_on_c, 3, 58, 72
4, 44880, Note_off_c, 3, 58, 0
4, 44880, Note_on_c, 3, 62, 71
4, 45053, Note_off_c, 3, 62, 0
4, 45060, Control_c, 3, 64, 0
4, 45120, Control_c, 3, 64, 127
4, 45360, Note_on_c, 3, 53, 69
4, 45600, Note_off_c, 3, 53, 0
4, 45600, Note_on_c, 3, 58, 68
4, 45840, Note_off_c, 3, 58, 0
4, 45840, Note_on_c, 3, 62, 67
4, 46020, Control_c, 3, 64, 0
4, 46020, Note_off_c, 3, 62, 0
4, 46080, Control_c, 3, 64, 127
4, 46320, Note_on_c, 3, 55, 65
4, 46560, Note_off_c, 3, 55, 0
4, 46560, Note_on_c, 3, 60, 64
4, 46800, Note_off_c, 3, 60, 0
4, 46800, Note_on_c, 3, 63, 63
4, 46980, Control_c, 3, 64, 0
4, 46988, Note_off_c, 3, 63, 0
4, 47040, Control_c, 3, 64, 127
4, 47280, Note_on_c, 3, 55, 62
4, 47520, Note_off_c, 3, 55, 0
4, 47520, Note_on_c, 3, 60, 61
4, 47760, Note_off_c, 3, 60, 0
4, 47760, Note_on_c, 3, 63, 60
4, 47940, Control_c, 3, 64, 0
4, 47948, Note_off_c, 3, 63, 0
4, 48000, Control_c, 3, 64, 127
4, 48240, Note_on_c, 3, 58, 59
4, 48480, Note_off_c, 3, 58, 0
4, 48480, Note_on_c, 3, 62, 58
4, 48720, Note_off_c, 3, 62, 0
4, 48720, Note_on_c, 3, 65, 58
4, 48900, Control_c, 3, 64, 0
4, 48923, Note_off_c, 3, 65, 0
4, 48960, Control_c, 3, 64, 127
4, 49200, Note_on_c, 3, 57, 56
4, 49440, Note_off_c, 3, 57, 0
4, 49440, Note_on_c, 3, 60, 55
4, 49680, Note_off_c, 3, 60, 0
4, 49680, Note_on_c, 3, 63, 55
4, 49860, Control_c, 3, 64, 0
4, 49875, Note_off_c, 3, 63, 0
4, 49920, Note_on_c, 3, 62, 54
4, 50400, Note_off_c, 3, 62, 0
4, 84480, Control_c, 3, 64, 127
4, 84720, Note_on_c, 3, 55, 36
4, 84960, Note_off_c, 3, 55, 0
4, 84960, Note_on_c, 3, 58, 38
4, 85200, Note_off_c, 3, 58, 0
4, 85200, Note_on_c, 3, 63, 40
4, 85373, Note_off_c, 3, 63, 0
4, 85380, Control_c, 3, 64, 0
4, 85440, Control_c, 3, 64, 127
4, 85680, Note_on_c, 3, 55, 44
4, 85920, Note_off_c, 3, 55, 0
4, 85920, Note_on_c, 3, 58, 46
4, 86160, Note_off_c, 3, 58, 0
4, 86160, Note_on_c, 3, 63, 48
4, 86340, Control_c, 3, 64, 0
4, 86348, Note_off_c, 3, 63, 0
4, 86400, Control_c, 3, 64, 127
4, 86640, Note_on_c, 3, 55, 50
4, 86880, Note_off_c, 3, 55, 0
4, 86880, Note_on_c, 3, 58, 48
4, 87120, Note_off_c, 3, 58, 0
4, 87120, Note_on_c, 3, 61, 47
4, 87300, Control_c, 3, 64, 0
4, 87308, Note_off_c, 3, 61, 0
4, 87360, Control_c, 3, 64, 127
4, 87600, Note_on_c, 3, 55, 44
4, 87840, Note_off_c, 3, 55, 0
4, 87840, Note_on_c, 3, 58, 43
4, 88080, Note_off_c, 3, 58, 0
4, 88080, Note_on_c, 3, 61, 42
4, 88260, Control_c, 3, 64, 0
4, 88268, Note_off_c, 3, 61, 0
4, 88320, Control_c, 3, 64, 127
4, 88560, Note_on_c, 3, 51, 39
4, 88800, Note_off_c, 3, 51, 0
4, 88800, Note_on_c, 3, 56, 40
4, 89040, Note_off_c, 3, 56, 0
4, 89040, Note_on_c, 3, 60, 42
4, 89220, Control_c, 3, 64, 0
4, 89220, Note_off_c, 3, 60, 0
4, 89280, Control_c, 3, 64, 127
4, 89520, Note_on_c, 3, 51, 44
4, 89760, Note_off_c, 3, 51, 0
4, 89760, Note_on_c, 3, 56, 46
4, 90000, Note_off_c, 3, 56, 0
4, 90000, Note_on_c, 3, 60, 47
4, 90180, Control_c, 3, 64, 0
4, 90180, Note_off_c, 3, 60, 0
4, 90240, Control_c, 3, 64, 127
4, 90480, Note_on_c, 3, 58, 50
4, 90720, Note_off_c, 3, 58, 0
4, 90720, Note_on_c, 3, 63, 51
4, 90960, Note_off_c, 3, 63, 0
4, 90960, Note_on_c, 3, 67, 52
4, 91133, Note_off_c, 3, 67, 0
4, 91140, Control_c, 3, 64, 0
4, 91200, Control_c, 3, 64, 127
4, 91440, Note_on_c, 3, 58, 55
4, 91680, Note_off_c, 3, 58, 0
4, 91680, Note_on_c, 3, 63, 56
4, 91920, Note_off_c, 3, 63, 0
4, 91920, Note_on_c, 3, 67, 58
4, 92100, Control_c, 3, 64, 0
4, 92108, Note_off_c, 3, 67, 0
4, 92160, Control_c, 3, 64, 127
4, 92400, Note_on_c, 3, 60, 58
4, 92640, Note_off_c, 3, 60, 0
4, 92640, Note_on_c, 3, 63, 55
4, 92880, Note_off_c, 3, 63, 0
4, 92880, Note_on_c, 3, 68, 53
4, 93060, Control_c, 3, 64, 0
4, 93075, Note_off_c, 3, 68, 0
4, 93120, Control_c, 3, 64, 127
4, 93360, Note_on_c, 3, 60, 54
4, 93600, Note_off_c, 3, 60, 0
4, 93600, Note_on_c, 3, 63, 57
4, 93840, Note_off_c, 3, 63, 0
4, 93840, Note_on_c, 3, 68, 60
4, 94020, Control_c, 3, 64, 0
4, 94035, Note_off_c, 3, 68, 0
4, 94080, Control_c, 3, 64, 127
4, 94320, Note_on_c, 3, 58, 62
4, 94560, Note_off_c, 3, 58, 0
4, 94560, Note_on_c, 3, 62, 58
4, 94800, Note_off_c, 3, 62, 0
4, 94800, Note_on_c, 3, 65, 55
4, 94980, Control_c, 3, 64, 0
4, 94980, Note_off_c, 3, 65, 0
4, 95040, Control_c, 3, 64, 127
4, 95280, Note_on_c, 3, 58, 54
4, 95520, Note_off_c, 3, 58, 0
4, 95520, Note_on_c, 3, 62, 55
4, 95760, Note_off_c, 3, 62, 0
4, 95760, Note_on_c, 3, 65, 57
4, 95940, Control_c, 3, 64, 0
4, 95948, Note_off_c, 3, 65, 0
4, 96000, Control_c, 3, 64, 127
4, 96240, Note_on_c, 3, 58, 58
4, 96480, Note_off_c, 3, 58, 0
4, 96480, Note_on_c, 3, 63, 55
4, 96720, Note_off_c, 3, 63, 0
4, 96720, Note_on_c, 3, 67, 53
4, 96900, Control_c, 3, 64, 0
4, 96908, Note_off_c, 3, 67, 0
4, 96960, Control_c, 3, 64, 127
4, 97200, Note_on_c, 3, 58, 56
4, 97440, Note_off_c, 3, 58, 0
4, 97440, Note_on_c, 3, 63, 61
4, 97680, Note_off_c, 3, 63, 0
4, 97680, Note_on_c, 3, 67, 65
4, 97860, Control_c, 3, 64, 0
4, 97868, Note_off_c, 3, 67, 0
4, 97920, Control_c, 3, 64, 127
4, 98160, Note_on_c, 3, 60, 69
4, 98400, Note_off_c, 3, 60, 0
4, 98400, Note_on_c, 3, 63, 67
4, 98640, Note_off_c, 3, 63, 0
4, 98640, Note_on_c, 3, 66, 65
4, 98820, Control_c, 3, 64, 0
4, 98820, Note_off_c, 3, 66, 0
4, 98880, Control_c, 3, 64, 127
4, 99120, Note_on_c, 3, 60, 62
4, 99360, Note_off_c, 3, 60, 0
4, 99360, Note_on_c, 3, 63, 60
4, 99600, Note_off_c, 3, 63, 0
4, 99600, Note_on_c, 3, 66, 58
4, 99780, Control_c, 3, 64, 0
4, 99780, Note_off_c, 3, 66, 0
4, 103680, Control_c, 3, 64, 127
4, 103920, Note_on_c, 3, 55, 36
4, 103920, Note_on_c, 3, 58, 36
4, 104100, Control_c, 3, 64, 0
4, 104110, Note_off_c, 3, 55, 0
4, 104110, Note_off_c, 3, 58, 0
4, 104160, Note_on_c, 3, 55, 36
4, 104160, Control_c, 3, 64, 127
4, 104160, Note_on_c, 3, 58, 36
4, 104350, Note_off_c, 3, 55, 0
4, 104350, Note_off_c, 3, 58, 0
4, 104400, Note_on_c, 3, 55, 37
4, 104400, Note_on_c, 3, 58, 37
4, 104580, Control_c, 3, 64, 0
4, 104590, Note_off_c, 3, 55, 0
4, 104590, Note_off_c, 3, 58, 0
4, 104640, Control_c, 3, 64, 127
4, 104880, Note_on_c, 3, 55, 38
4, 104880, Note_on_c, 3, 58, 38
4, 105060, Control_c, 3, 64, 0
4, 105070, Note_off_c, 3, 55, 0
4, 105070, Note_off_c, 3, 58, 0
4, 105120, Note_on_c, 3, 58, 39
4, 105120, Control_c, 3, 64, 127
4, 105120, Note_on_c, 3, 55, 39
4, 105310, Note_off_c, 3, 58, 0
4, 105310, Note_off_c, 3, 55, 0
4, 105360, Note_on_c, 3, 55, 39
4, 105360, Note_on_c, 3, 58, 39
4, 105540, Control_c, 3, 64, 0
4, 105550, Note_off_c, 3, 55, 0
4, 105550, Note_off_c, 3, 58, 0
4, 105600, Control_c, 3, 64, 127
4, 105840, Note_on_c, 3, 56, 40
4, 105840, Note_on_c, 3, 58, 40
4, 106020, Control_c, 3, 64, 0
4, 106030, Note_off_c, 3, 56, 0
4, 106030, Note_off_c, 3, 58, 0
4, 106080, Note_on_c, 3, 56, 41
4, 106080, Control_c, 3, 64, 127
4, 106080, Note_on_c, 3, 58, 41
4, 106270, Note_off_c, 3, 56, 0
4, 106270, Note_off_c, 3, 58, 0
4, 106320, Note_on_c, 3, 56, 42
4, 106320, Note_on_c, 3, 58, 42
4, 106500, Control_c, 3, 64, 0
4, 106510, Note_off_c, 3, 56, 0
4, 106510, Note_off_c, 3, 58, 0
4, 106560, Control_c, 3, 64, 127
4, 106800, Note_on_c, 3, 56, 43
4, 106800, Note_on_c, 3, 58, 43
4, 106980, Control_c, 3, 64, 0
4, 106990, Note_off_c, 3, 56, 0
4, 106990, Note_off_c, 3, 58, 0
4, 107040, Note_on_c, 3, 56, 43
4, 107040, Control_c, 3, 64, 127
4, 107040, Note_on_c, 3, 58, 43
4, 107230, Note_off_c, 3, 56, 0
4, 107230, Note_off_c, 3, 58, 0
4, 107280, Note_on_c, 3, 56, 44
4, 107280, Note_on_c, 3, 58, 44
4, 107460, Control_c, 3, 64, 0
4, 107470, Note_off_c, 3, 56, 0
4, 107470, Note_off_c, 3, 58, 0
4, 107520, Control_c, 3, 64, 127
4, 107760, Note_on_c, 3, 55, 45
4, 107760, Note_on_c, 3, 58, 45
4, 107950, Note_off_c, 3, 55, 0
4, 107950, Note_off_c, 3, 58, 0
4, 108000, Note_on_c, 3, 55, 46
4, 108000, Note_on_c, 3, 58, 46
4, 108190, Note_off_c, 3, 55, 0
4, 108190, Note_off_c, 3, 58, 0
4, 108240, Note_on_c, 3, 58, 46
4, 108240, Note_on_c, 3, 55, 46
4, 108420, Control_c, 3, 64, 0
4, 108430, Note_off_c, 3, 58, 0
4, 108430, Note_off_c, 3, 55, 0
4, 108480, Control_c, 3, 64, 127
4, 108720, Note_on_c, 3, 67, 47
4, 108720, Note_on_c, 3, 70, 47
4, 108910, Note_off_c, 3, 67, 0
4, 108910, Note_off_c, 3, 70, 0
4, 108960, Note_on_c, 3, 67, 48
4, 108960, Note_on_c, 3, 70, 48
4, 109150, Note_off_c, 3, 67, 0
4, 109150, Note_off_c, 3, 70, 0
4, 109200, Note_on_c, 3, 67, 48
4, 109200, Note_on_c, 3, 70, 48
4, 109380, Control_c, 3, 64, 0
4, 109390, Note_off_c, 3, 67, 0
4, 109390, Note_off_c, 3, 70, 0
4, 109440, Control_c, 3, 64, 127
4, 109680, Note_on_c, 3, 68, 50
4, 109680, Note_on_c, 3, 70, 50
4, 109870, Note_off_c, 3, 68, 0
4, 109870, Note_off_c, 3, 70, 0
4, 109920, Note_on_c, 3, 70, 50
4, 109920, Note_on_c, 3, 68, 50
4, 110110, Note_off_c, 3, 70, 0
4, 110110, Note_off_c, 3, 68, 0
4, 110160, Note_on_c, 3, 70, 51
4, 110160, Note_on_c, 3, 68, 51
4, 110340, Control_c, 3, 64, 0
4, 110350, Note_off_c, 3, 70, 0
4, 110350, Note_off_c, 3, 68, 0
4, 110400, Control_c, 3, 64, 127
4, 110640, Note_on_c, 3, 70, 52
4, 110640, Note_on_c, 3, 68, 52
4, 110830, Note_off_c, 3, 70, 0
4, 110830, Note_off_c, 3, 68, 0
4, 110880, Note_on_c, 3, 70, 52
4, 110880, Note_on_c, 3, 68, 52
4, 111070, Note_off_c, 3, 70, 0
4, 111070, Note_off_c, 3, 68, 0
4, 111120, Note_on_c, 3, 70, 53
4, 111120, Note_on_c, 3, 68, 53
4, 111300, Control_c, 3, 64, 0
4, 111310, Note_off_c, 3, 70, 0
4, 111310, Note_off_c, 3, 68, 0
4, 111360, Control_c, 3, 64, 127
4, 111600, Note_on_c, 3, 67, 54
4, 111600, Note_on_c, 3, 70, 54
4, 111790, Note_off_c, 3, 67, 0
4, 111790, Note_off_c, 3, 70, 0
4, 111840, Note_on_c, 3, 70, 55
4, 111840, Note_on_c, 3, 67, 55
4, 112030, Note_off_c, 3, 70, 0
4, 112030, Note_off_c, 3, 67, 0
4, 112080, Note_on_c, 3, 67, 55
4, 112080, Note_on_c, 3, 70, 55
4, 112260, Control_c, 3, 64, 0
4, 112270, Note_off_c, 3, 67, 0
4, 112270, Note_off_c, 3, 70, 0
4, 112320, Control_c, 3, 64, 127
4, 112560, Note_on_c, 3, 55, 70
4, 112800, Control_c, 3, 64, 0
4, 112800, Note_off_c, 3, 55, 0
4, 112860, Control_c, 3, 64, 127
4, 113040, Note_on_c, 3, 56, 74
4, 113220, Control_c, 3, 64, 0
4, 113228, Note_off_c, 3, 56, 0
4, 113280, Control_c, 3, 64, 127
4, 113520, Note_on_c, 3, 58, 74
4, 113760, Note_off_c, 3, 58, 0
4, 113760, Note_on_c, 3, 63, 73
4, 114000, Note_off_c, 3, 63, 0
4, 114000, Note_on_c, 3, 67, 72
4, 114180, Control_c, 3, 64, 0
4, 114188, Note_off_c, 3, 67, 0
4, 114240, Control_c, 3, 64, 127
4, 114480, Note_on_c, 3, 46, 69
4, 114720, Note_off_c, 3, 46, 0
4, 114720, Note_on_c, 3, 51, 68
4, 114960, Note_off_c, 3, 51, 0
4, 114960, Note_on_c, 3, 55, 67
4, 115140, Control_c, 3, 64, 0
4, 115148, Note_off_c, 3, 55, 0
4, 115200, Control_c, 3, 64, 127
4, 115440, Note_on_c, 3, 48, 64
4, 115680, Note_off_c, 3, 48, 0
4, 115680, Note_on_c, 3, 53, 63
4, 115920, Note_off_c, 3, 53, 0
4, 115920, Note_on_c, 3, 56, 62
4, 116100, Control_c, 3, 64, 0
4, 116100, Note_off_c, 3, 56, 0
4, 116160, Control_c, 3, 64, 127
4, 116400, Note_on_c, 3, 48, 59
4, 116640, Note_off_c, 3, 48, 0
4, 116640, Note_on_c, 3, 53, 58
4, 116880, Note_off_c, 3, 53, 0
4, 116880, Note_on_c, 3, 56, 57
4, 117060, Control_c, 3, 64, 0
4, 117068, Note_off_c, 3, 56, 0
4, 117120, Control_c, 3, 64, 127
4, 117360, Note_on_c, 3, 51, 54
4, 117600, Note_off_c, 3, 51, 0
4, 117600, Note_on_c, 3, 55, 53
4, 117840, Note_off_c, 3, 55, 0
4, 117840, Note_on_c, 3, 58, 52
4, 118020, Control_c, 3, 64, 0
4, 118028, Note_off_c, 3, 58, 0
4, 118080, Control_c, 3, 64, 127
4, 118320, Note_on_c, 3, 50, 49
4, 118560, Note_off_c, 3, 50, 0
4, 118560, Note_on_c, 3, 53, 48
4, 118800, Note_off_c, 3, 53, 0
4, 118800, Note_on_c, 3, 56, 46
4, 118980, Control_c, 3, 64, 0
4, 118995, Note_off_c, 3, 56, 0
4, 119040, Note_on_c, 3, 55, 46
4, 119520, Note_off_c, 3, 55, 0
4, 143040, Control_c, 3, 64, 0
4, 169920, Note_on_c, 3, 74, 51
4, 170076, Note_off_c, 3, 74, 0
4, 170400, Note_on_c, 3, 74, 47
4, 170556, Note_off_c, 3, 74, 0
4, 170880, Note_on_c, 3, 75, 42
4, 171240, Note_off_c, 3, 75, 0
4, 172800, Note_on_c, 3, 81, 54
4, 172956, Note_off_c, 3, 81, 0
4, 173280, Note_on_c, 3, 81, 49
4, 173436, Note_off_c, 3, 81, 0
4, 173760, Note_on_c, 3, 82, 45
4, 174120, Note_off_c, 3, 82, 0
4, 189120, Control_c, 3, 64, 0
4, 189840, Note_on_c, 3, 58, 49
4, 190032, Note_off_c, 3, 58, 0
4, 190320, Note_on_c, 3, 58, 53
4, 190512, Note_off_c, 3, 58, 0
4, 190800, Note_on_c, 3, 58, 57
4, 190992, Note_off_c, 3, 58, 0
4, 191280, Note_on_c, 3, 58, 61
4, 191472, Note_off_c, 3, 58, 0
4, 191760, Note_on_c, 3, 58, 54
4, 191952, Note_off_c, 3, 58, 0
4, 192240, Note_on_c, 3, 58, 52
4, 192432, Note_off_c, 3, 58, 0
4, 192720, Note_on_c, 3, 58, 56
4, 192912, Note_off_c, 3, 58, 0
4, 193200, Note_on_c, 3, 58, 60
4, 193392, Note_off_c, 3, 58, 0
4, 193680, Note_on_c, 3, 58, 64
4, 193872, Note_off_c, 3, 58, 0
4, 194160, Note_on_c, 3, 58, 67
4, 194352, Note_off_c, 3, 58, 0
4, 194640, Note_on_c, 3, 58, 61
4, 194832, Note_off_c, 3, 58, 0
4, 195120, Note_on_c, 3, 58, 59
4, 195312, Note_off_c, 3, 58, 0
4, 200880, Note_on_c, 3, 65, 48
4, 201072, Note_off_c, 3, 65, 0
4, 201360, Note_on_c, 3, 65, 51
4, 201552, Note_off_c, 3, 65, 0
4, 201840, Note_on_c, 3, 65, 46
4, 202032, Note_off_c, 3, 65, 0
4, 202320, Note_on_c, 3, 65, 61
4, 202512, Note_off_c, 3, 65, 0
4, 202800, Note_on_c, 3, 65, 66
4, 202992, Note_off_c, 3, 65, 0
4, 203280, Note_on_c, 3, 65, 57
4, 203472, Note_off_c, 3, 65, 0
4, 203760, Note_on_c, 3, 65, 56
4, 203952, Note_off_c, 3, 65, 0
4, 204240, Note_on_c, 3, 65, 58
4, 204432, Note_off_c, 3, 65, 0
4, 204720, Note_on_c, 3, 65, 53
4, 204912, Note_off_c, 3, 65, 0
4, 205200, Note_on_c, 3, 65, 65
4, 205392, Note_off_c, 3, 65, 0
4, 205680, Note_on_c, 3, 62, 68
4, 205872, Note_off_c, 3, 62, 0
4, 212160, Control_c, 3, 64, 0
4, 212880, Note_on_c, 3, 58, 49
4, 213072, Note_off_c, 3, 58, 0
4, 213360, Note_on_c, 3, 58, 53
4, 213552, Note_off_c, 3, 58, 0
4, 213840, Note_on_c, 3, 58, 57
4, 214032, Note_off_c, 3, 58, 0
4, 214320, Note_on_c, 3, 58, 61
4, 214512, Note_off_c, 3, 58, 0
4, 214800, Note_on_c, 3, 58, 54
4, 214992, Note_off_c, 3, 58, 0
4, 215280, Note_on_c, 3, 58, 52
4, 215472, Note_off_c, 3, 58, 0
4, 215760, Note_on_c, 3, 58, 56
4, 215952, Note_off_c, 3, 58, 0
4, 216240, Note_on_c, 3, 58, 60
4, 216432, Note_off_c, 3, 58, 0
4, 216720, Note_on_c, 3, 58, 64
4, 216912, Note_off_c, 3, 58, 0
4, 217200, Note_on_c, 3, 58, 67
4, 217392, Note_off_c, 3, 58, 0
4, 217680, Note_on_c, 3, 58, 61
4, 217872, Note_off_c, 3, 58, 0
4, 218160, Note_on_c, 3, 58, 59
4, 218352, Note_off_c, 3, 58, 0
4, 223920, Note_on_c, 3, 65, 48
4, 224112, Note_off_c, 3, 65, 0
4, 224400, Note_on_c, 3, 65, 51
4, 224592, Note_off_c, 3, 65, 0
4, 224880, Note_on_c, 3, 65, 46
4, 225072, Note_off_c, 3, 65, 0
4, 225360, Note_on_c, 3, 65, 61
4, 225552, Note_off_c, 3, 65, 0
4, 225840, Note_on_c, 3, 65, 66
4, 226032, Note_off_c, 3, 65, 0
4, 226320, Note_on_c, 3, 65, 57
4, 226512, Note_off_c, 3, 65, 0
4, 226800, Note_on_c, 3, 65, 56
4, 226992, Note_off_c, 3, 65, 0
4, 227280, Note_on_c, 3, 65, 58
4, 227472, Note_off_c, 3, 65, 0
4, 227760, Note_on_c, 3, 65, 53
4, 227952, Note_off_c, 3, 65, 0
4, 228240, Note_on_c, 3, 65, 65
4, 228432, Note_off_c, 3, 65, 0
4, 228720, Note_on_c, 3, 62, 68
4, 228912, Note_off_c, 3, 62, 0
4, 235200, Control_c, 3, 64, 0
4, 235440, Note_on_c, 3, 58, 46
4, 235632, Note_off_c, 3, 58, 0
4, 235920, Note_on_c, 3, 58, 53
4, 236112, Note_off_c, 3, 58, 0
4, 236400, Note_on_c, 3, 58, 47
4, 236592, Note_off_c, 3, 58, 0
4, 236880, Note_on_c, 3, 58, 53
4, 237072, Note_off_c, 3, 58, 0
4, 237360, Note_on_c, 3, 58, 59
4, 237552, Note_off_c, 3, 58, 0
4, 237840, Note_on_c, 3, 58, 52
4, 238032, Note_off_c, 3, 58, 0
4, 238320, Note_on_c, 3, 58, 60
4, 238512, Note_off_c, 3, 58, 0
4, 238800, Note_on_c, 3, 58, 68
4, 238992, Note_off_c, 3, 58, 0
4, 239280, Note_on_c, 3, 58, 60
4, 239472, Note_off_c, 3, 58, 0
4, 239760, Note_on_c, 3, 58, 66
4, 239952, Note_off_c, 3, 58, 0
4, 240240, Note_on_c, 3, 58, 67
4, 240432, Note_off_c, 3, 58, 0
4, 240720, Note_on_c, 3, 62, 47
4, 240912, Note_off_c, 3, 62, 0
4, 247440, Note_on_c, 3, 58, 47
4, 247632, Note_off_c, 3, 58, 0
4, 247920, Note_on_c, 3, 58, 51
4, 248112, Note_off_c, 3, 58, 0
4, 248400, Note_on_c, 3, 58, 54
4, 248592, Note_off_c, 3, 58, 0
4, 248880, Note_on_c, 3, 58, 57
4, 249072, Note_off_c, 3, 58, 0
4, 249360, Note_on_c, 3, 58, 51
4, 249552, Note_off_c, 3, 58, 0
4, 249840, Note_on_c, 3, 58, 51
4, 250032, Note_off_c, 3, 58, 0
4, 250320, Note_on_c, 3, 58, 55
4, 250512, Note_off_c, 3, 58, 0
4, 250800, Note_on_c, 3, 58, 60
4, 250992, Note_off_c, 3, 58, 0
4, 251280, Note_on_c, 3, 58, 64
4, 251472, Note_off_c, 3, 58, 0
4, 251760, Note_on_c, 3, 58, 67
4, 251952, Note_off_c, 3, 58, 0
4, 252240, Note_on_c, 3, 58, 60
4, 252432, Note_off_c, 3, 58, 0
4, 252720, Note_on_c, 3, 58, 58
4, 252912, Note_off_c, 3, 58, 0
4, 258480, Note_on_c, 3, 58, 48
4, 258672, Note_off_c, 3, 58, 0
4, 258960, Note_on_c, 3, 58, 50
4, 259152, Note_off_c, 3, 58, 0
4, 259440, Note_on_c, 3, 58, 46
4, 259632, Note_off_c, 3, 58, 0
4, 259920, Note_on_c, 3, 58, 57
4, 260112, Note_off_c, 3, 58, 0
4, 260400, Note_on_c, 3, 58, 63
4, 260592, Note_off_c, 3, 58, 0
4, 260880, Note_on_c, 3, 58, 57
4, 261072, Note_off_c, 3, 58, 0
4, 261360, Note_on_c, 3, 58, 57
4, 261552, Note_off_c, 3, 58, 0
4, 261840, Note_on_c, 3, 58, 60
4, 262032, Note_off_c, 3, 58, 0
4, 262320, Note_on_c, 3, 58, 55
4, 262512, Note_off_c, 3, 58, 0
4, 262800, Note_on_c, 3, 58, 65
4, 262992, Note_off_c, 3, 58, 0
4, 263280, Note_on_c, 3, 58, 67
4, 263472, Note_off_c, 3, 58, 0
4, 269760, Control_c, 3, 64, 0
4, 296640, Note_on_c, 3, 74, 51
4, 296796, Note_off_c, 3, 74, 0
4, 297120, Note_on_c, 3, 74, 47
4, 297276, Note_off_c, 3, 74, 0
4, 297600, Note_on_c, 3, 75, 42
4, 297960, Note_off_c, 3, 75, 0
4, 299520, Note_on_c, 3, 81, 54
4, 299676, Note_off_c, 3, 81, 0
4, 300000, Note_on_c, 3, 81, 49
4, 300156, Note_off_c, 3, 81, 0
4, 300480, Note_on_c, 3, 82, 45
4, 300840, Note_off_c, 3, 82, 0
4, 315840, Control_c, 3, 64, 0
4, 326040, Note_on_c, 3, 65, 56
4, 326160, Note_off_c, 3, 65, 0
4, 326160, Note_on_c, 3, 62, 58
4, 326280, Note_off_c, 3, 62, 0
4, 326280, Note_on_c, 3, 65, 60
4, 326400, Note_off_c, 3, 65, 0
4, 326520, Note_on_c, 3, 65, 64
4, 326640, Note_off_c, 3, 65, 0
4, 326640, Note_on_c, 3, 62, 66
4, 326760, Note_off_c, 3, 62, 0
4, 326760, Note_on_c, 3, 65, 71
4, 326880, Note_off_c, 3, 65, 0
4, 327000, Note_on_c, 3, 65, 74
4, 327120, Note_off_c, 3, 65, 0
4, 327120, Note_on_c, 3, 60, 71
4, 327240, Note_off_c, 3, 60, 0
4, 327240, Note_on_c, 3, 65, 68
4, 327360, Note_off_c, 3, 65, 0
4, 327480, Note_on_c, 3, 65, 62
4, 327600, Note_off_c, 3, 65, 0
4, 327600, Note_on_c, 3, 60, 59
4, 327720, Note_off_c, 3, 60, 0
4, 327720, Note_on_c, 3, 65, 56
4, 327840, Note_off_c, 3, 65, 0
4, 327960, Note_on_c, 3, 65, 53
4, 328080, Note_off_c, 3, 65, 0
4, 328080, Note_on_c, 3, 62, 55
4, 328200, Note_off_c, 3, 62, 0
4, 328200, Note_on_c, 3, 65, 56
4, 328320, Note_off_c, 3, 65, 0
4, 328440, Note_on_c, 3, 65, 59
4, 328560, Note_off_c, 3, 65, 0
4, 328560, Note_on_c, 3, 62, 60
4, 328680, Note_off_c, 3, 62, 0
4, 328680, Note_on_c, 3, 65, 65
4, 328800, Note_off_c, 3, 65, 0
4, 328920, Note_on_c, 3, 65, 71
4, 329040, Note_off_c, 3, 65, 0
4, 329040, Note_on_c, 3, 60, 69
4, 329160, Note_off_c, 3, 60, 0
4, 329160, Note_on_c, 3, 65, 67
4, 329280, Note_off_c, 3, 65, 0
4, 329400, Note_on_c, 3, 65, 63
4, 329520, Note_off_c, 3, 65, 0
4, 329520, Note_on_c, 3, 60, 61
4, 329640, Note_off_c, 3, 60, 0
4, 329640, Note_on_c, 3, 65, 59
4, 329760, Note_off_c, 3, 65, 0
4, 336600, Note_on_c, 3, 58, 81
4, 336720, Note_off_c, 3, 58, 0
4, 336720, Note_on_c, 3, 53, 81
4, 336840, Note_off_c, 3, 53, 0
4, 336840, Note_on_c, 3, 58, 80
4, 336960, Note_off_c, 3, 58, 0
4, 337080, Note_on_c, 3, 58, 80
4, 337200, Note_off_c, 3, 58, 0
4, 337200, Note_on_c, 3, 53, 79
4, 337320, Note_off_c, 3, 53, 0
4, 337320, Note_on_c, 3, 58, 79
4, 337440, Note_off_c, 3, 58, 0
4, 337560, Note_on_c, 3, 60, 78
4, 337680, Note_off_c, 3, 60, 0
4, 337680, Note_on_c, 3, 55, 78
4, 337800, Note_off_c, 3, 55, 0
4, 337800, Note_on_c, 3, 60, 78
4, 337920, Note_off_c, 3, 60, 0
4, 338040, Note_on_c, 3, 60, 77
4, 338160, Note_off_c, 3, 60, 0
4, 338160, Note_on_c, 3, 55, 77
4, 338280, Note_off_c, 3, 55, 0
4, 338280, Note_on_c, 3, 60, 77
4, 338400, Note_off_c, 3, 60, 0
4, 338520, Note_on_c, 3, 62, 76
4, 338640, Note_off_c, 3, 62, 0
4, 338640, Note_on_c, 3, 58, 76
4, 338760, Note_off_c, 3, 58, 0
4, 338760, Note_on_c, 3, 62, 75
4, 338880, Note_off_c, 3, 62, 0
4, 339000, Note_on_c, 3, 63, 75
4, 339120, Note_off_c, 3, 63, 0
4, 339120, Note_on_c, 3, 60, 74
4, 339240, Note_off_c, 3, 60, 0
4, 339240, Note_on_c, 3, 63, 74
4, 339360, Note_off_c, 3, 63, 0
4, 344280, Note_on_c, 3, 58, 85
4, 344400, Note_off_c, 3, 58, 0
4, 344400, Note_on_c, 3, 53, 84
4, 344520, Note_off_c, 3, 53, 0
4, 344520, Note_on_c, 3, 58, 84
4, 344640, Note_off_c, 3, 58, 0
4, 344760, Note_on_c, 3, 58, 83
4, 344880, Note_off_c, 3, 58, 0
4, 344880, Note_on_c, 3, 53, 82
4, 345000, Note_off_c, 3, 53, 0
4, 345000, Note_on_c, 3, 58, 82
4, 345120, Note_off_c, 3, 58, 0
4, 345240, Note_on_c, 3, 60, 81
4, 345360, Note_off_c, 3, 60, 0
4, 345360, Note_on_c, 3, 55, 80
4, 345480, Note_off_c, 3, 55, 0
4, 345480, Note_on_c, 3, 60, 80
4, 345600, Note_off_c, 3, 60, 0
4, 345720, Note_on_c, 3, 60, 79
4, 345840, Note_off_c, 3, 60, 0
4, 345840, Note_on_c, 3, 55, 78
4, 345960, Note_off_c, 3, 55, 0
4, 345960, Note_on_c, 3, 60, 78
4, 346080, Note_off_c, 3, 60, 0
4, 346200, Note_on_c, 3, 62, 77
4, 346320, Note_off_c, 3, 62, 0
4, 346320, Note_on_c, 3, 58, 77
4, 346440, Note_off_c, 3, 58, 0
4, 346440, Note_on_c, 3, 62, 76
4, 346560, Note_off_c, 3, 62, 0
4, 346680, Note_on_c, 3, 63, 75
4, 346800, Note_off_c, 3, 63, 0
4, 346800, Note_on_c, 3, 60, 75
4, 346920, Note_off_c, 3, 60, 0
4, 346920, Note_on_c, 3, 63, 74
4, 347040, Note_off_c, 3, 63, 0
4, 348120, Note_on_c, 3, 58, 88
4, 348240, Note_off_c, 3, 58, 0
4, 348240, Note_on_c, 3, 53, 87
4, 348360, Note_off_c, 3, 53, 0
4, 348360, Note_on_c, 3, 58, 87
4, 348480, Note_off_c, 3, 58, 0
4, 348600, Note_on_c, 3, 58, 85
4, 348720, Note_off_c, 3, 58, 0
4, 348720, Note_on_c, 3, 53, 85
4, 348840, Note_off_c, 3, 53, 0
4, 348840, Note_on_c, 3, 58, 84
4, 348960, Note_off_c, 3, 58, 0
4, 349080, Note_on_c, 3, 58, 83
4, 349200, Note_off_c, 3, 58, 0
4, 349200, Note_on_c, 3, 55, 82
4, 349320, Note_off_c, 3, 55, 0
4, 349320, Note_on_c, 3, 58, 81
4, 349440, Note_off_c, 3, 58, 0
4, 349560, Note_on_c, 3, 58, 80
4, 349680, Note_off_c, 3, 58, 0
4, 349680, Note_on_c, 3, 55, 79
4, 349800, Note_off_c, 3, 55, 0
4, 349800, Note_on_c, 3, 58, 78
4, 349920, Note_off_c, 3, 58, 0
4, 350040, Note_on_c, 3, 62, 77
4, 350160, Note_off_c, 3, 62, 0
4, 350160, Note_on_c, 3, 58, 76
4, 350280, Note_off_c, 3, 58, 0
4, 350280, Note_on_c, 3, 62, 75
4, 350400, Note_off_c, 3, 62, 0
4, 350520, Note_on_c, 3, 63, 74
4, 350640, Note_off_c, 3, 63, 0
4, 350640, Note_on_c, 3, 60, 73
4, 350760, Note_off_c, 3, 60, 0
4, 350760, Note_on_c, 3, 63, 73
4, 350880, Note_off_c, 3, 63, 0
4, 370920, Note_on_c, 3, 67, 73
4, 371040, Note_off_c, 3, 67, 0
4, 371160, Note_on_c, 3, 67, 74
4, 371280, Note_off_c, 3, 67, 0
4, 371400, Note_on_c, 3, 67, 74
4, 371520, Note_off_c, 3, 67, 0
4, 371640, Note_on_c, 3, 67, 75
4, 371760, Note_off_c, 3, 67, 0
4, 371880, Note_on_c, 3, 67, 76
4, 372000, Note_off_c, 3, 67, 0
4, 372120, Note_on_c, 3, 67, 77
4, 372240, Note_off_c, 3, 67, 0
4, 372360, Note_on_c, 3, 67, 78
4, 372480, Note_off_c, 3, 67, 0
4, 372600, Note_on_c, 3, 67, 79
4, 372720, Note_off_c, 3, 67, 0
4, 372840, Note_on_c, 3, 67, 79
4, 372941, Note_off_c, 3, 67, 0
4, 373080, Note_on_c, 3, 67, 80
4, 373200, Note_off_c, 3, 67, 0
4, 373320, Note_on_c, 3, 67, 81
4, 373440, Note_off_c, 3, 67, 0
4, 373560, Note_on_c, 3, 67, 82
4, 373680, Note_off_c, 3, 67, 0
4, 373800, Note_on_c, 3, 67, 83
4, 373901, Note_off_c, 3, 67, 0
4, 384600, Note_on_c, 3, 58, 44
4, 384720, Note_off_c, 3, 58, 0
4, 384720, Note_on_c, 3, 55, 46
4, 384840, Note_off_c, 3, 55, 0
4, 384840, Note_on_c, 3, 58, 47
4, 384960, Note_off_c, 3, 58, 0
4, 385080, Note_on_c, 3, 58, 51
4, 385200, Note_off_c, 3, 58, 0
4, 385200, Note_on_c, 3, 55, 52
4, 385320, Note_off_c, 3, 55, 0
4, 385320, Note_on_c, 3, 58, 57
4, 385440, Note_off_c, 3, 58, 0
4, 385560, Note_on_c, 3, 58, 65
4, 385680, Note_off_c, 3, 58, 0
4, 385680, Note_on_c, 3, 53, 62
4, 385800, Note_off_c, 3, 53, 0
4, 385800, Note_on_c, 3, 58, 58
4, 385920, Note_off_c, 3, 58, 0
4, 386040, Note_on_c, 3, 58, 50
4, 386160, Note_off_c, 3, 58, 0
4, 386160, Note_on_c, 3, 53, 47
4, 386280, Note_off_c, 3, 53, 0
4, 386280, Note_on_c, 3, 58, 43
4, 386400, Note_off_c, 3, 58, 0
4, 386520, Note_on_c, 3, 58, 44
4, 386640, Note_off_c, 3, 58, 0
4, 386640, Note_on_c, 3, 55, 47
4, 386760, Note_off_c, 3, 55, 0
4, 386760, Note_on_c, 3, 58, 49
4, 386880, Note_off_c, 3, 58, 0
4, 387000, Note_on_c, 3, 58, 55
4, 387120, Note_off_c, 3, 58, 0
4, 387120, Note_on_c, 3, 55, 57
4, 387240, Note_off_c, 3, 55, 0
4, 387240, Note_on_c, 3, 58, 63
4, 387360, Note_off_c, 3, 58, 0
4, 387480, Note_on_c, 3, 58, 71
4, 387600, Note_off_c, 3, 58, 0
4, 387600, Note_on_c, 3, 53, 69
4, 387720, Note_off_c, 3, 53, 0
4, 387720, Note_on_c, 3, 58, 66
4, 387840, Note_off_c, 3, 58, 0
4, 387960, Note_on_c, 3, 58, 61
4, 388080, Note_off_c, 3, 58, 0
4, 388080, Note_on_c, 3, 53, 59
4, 388200, Note_off_c, 3, 53, 0
4, 388200, Note_on_c, 3, 58, 57
4, 388320, Note_off_c, 3, 58, 0
4, 395160, Note_on_c, 3, 51, 65
4, 395280, Note_off_c, 3, 51, 0
4, 395280, Note_on_c, 3, 46, 65
4, 395400, Note_off_c, 3, 46, 0
4, 395400, Note_on_c, 3, 51, 64
4, 395520, Note_off_c, 3, 51, 0
4, 395640, Note_on_c, 3, 51, 63
4, 395760, Note_off_c, 3, 51, 0
4, 395760, Note_on_c, 3, 46, 63
4, 395880, Note_off_c, 3, 46, 0
4, 395880, Note_on_c, 3, 51, 62
4, 396000, Note_off_c, 3, 51, 0
4, 396120, Note_on_c, 3, 53, 62
4, 396240, Note_off_c, 3, 53, 0
4, 396240, Note_on_c, 3, 48, 61
4, 396360, Note_off_c, 3, 48, 0
4, 396360, Note_on_c, 3, 53, 61
4, 396480, Note_off_c, 3, 53, 0
4, 396600, Note_on_c, 3, 53, 60
4, 396720, Note_off_c, 3, 53, 0
4, 396720, Note_on_c, 3, 48, 59
4, 396840, Note_off_c, 3, 48, 0
4, 396840, Note_on_c, 3, 53, 59
4, 396960, Note_off_c, 3, 53, 0
4, 397080, Note_on_c, 3, 55, 58
4, 397200, Note_off_c, 3, 55, 0
4, 397200, Note_on_c, 3, 51, 58
4, 397320, Note_off_c, 3, 51, 0
4, 397320, Note_on_c, 3, 55, 57
4, 397425, Note_off_c, 3, 55, 0
4, 397560, Note_on_c, 3, 56, 56
4, 397680, Note_off_c, 3, 56, 0
4, 397680, Note_on_c, 3, 53, 56
4, 397800, Note_off_c, 3, 53, 0
4, 397800, Note_on_c, 3, 56, 56
4, 397901, Note_off_c, 3, 56, 0
4, 402840, Note_on_c, 3, 51, 85
4, 402960, Note_off_c, 3, 51, 0
4, 402960, Note_on_c, 3, 46, 84
4, 403080, Note_off_c, 3, 46, 0
4, 403080, Note_on_c, 3, 51, 84
4, 403200, Note_off_c, 3, 51, 0
4, 403320, Note_on_c, 3, 51, 83
4, 403440, Note_off_c, 3, 51, 0
4, 403440, Note_on_c, 3, 46, 82
4, 403560, Note_off_c, 3, 46, 0
4, 403560, Note_on_c, 3, 51, 82
4, 403680, Note_off_c, 3, 51, 0
4, 403800, Note_on_c, 3, 53, 81
4, 403920, Note_off_c, 3, 53, 0
4, 403920, Note_on_c, 3, 48, 80
4, 404040, Note_off_c, 3, 48, 0
4, 404040, Note_on_c, 3, 53, 80
4, 404160, Note_off_c, 3, 53, 0
4, 404280, Note_on_c, 3, 53, 79
4, 404400, Note_off_c, 3, 53, 0
4, 404400, Note_on_c, 3, 48, 79
4, 404520, Note_off_c, 3, 48, 0
4, 404520, Note_on_c, 3, 53, 78
4, 404640, Note_off_c, 3, 53, 0
4, 404760, Note_on_c, 3, 55, 77
4, 404880, Note_off_c, 3, 55, 0
4, 404880, Note_on_c, 3, 51, 77
4, 405000, Note_off_c, 3, 51, 0
4, 405000, Note_on_c, 3, 55, 76
4, 405120, Note_off_c, 3, 55, 0
4, 405240, Note_on_c, 3, 56, 75
4, 405360, Note_off_c, 3, 56, 0
4, 405360, Note_on_c, 3, 53, 75
4, 405480, Note_off_c, 3, 53, 0
4, 405480, Note_on_c, 3, 56, 74
4, 405600, Note_off_c, 3, 56, 0
4, 406680, Note_on_c, 3, 63, 77
4, 406800, Note_off_c, 3, 63, 0
4, 406800, Note_on_c, 3, 58, 77
4, 406920, Note_off_c, 3, 58, 0
4, 406920, Note_on_c, 3, 63, 77
4, 407040, Note_off_c, 3, 63, 0
4, 407160, Note_on_c, 3, 63, 78
4, 407280, Note_off_c, 3, 63, 0
4, 407280, Note_on_c, 3, 58, 78
4, 407400, Note_off_c, 3, 58, 0
4, 407400, Note_on_c, 3, 63, 79
4, 407520, Note_off_c, 3, 63, 0
4, 407640, Note_on_c, 3, 65, 79
4, 407760, Note_off_c, 3, 65, 0
4, 407760, Note_on_c, 3, 60, 80
4, 407880, Note_off_c, 3, 60, 0
4, 407880, Note_on_c, 3, 65, 80
4, 408000, Note_off_c, 3, 65, 0
4, 408120, Note_on_c, 3, 65, 81
4, 408240, Note_off_c, 3, 65, 0
4, 408240, Note_on_c, 3, 60, 81
4, 408360, Note_off_c, 3, 60, 0
4, 408360, Note_on_c, 3, 65, 82
4, 408480, Note_off_c, 3, 65, 0
4, 408600, Note_on_c, 3, 67, 82
4, 408720, Note_off_c, 3, 67, 0
4, 408720, Note_on_c, 3, 63, 83
4, 408840, Note_off_c, 3, 63, 0
4, 408840, Note_on_c, 3, 67, 83
4, 408960, Note_off_c, 3, 67, 0
4, 409080, Note_on_c, 3, 68, 84
4, 409200, Note_off_c, 3, 68, 0
4, 409200, Note_on_c, 3, 65, 84
4, 409320, Note_off_c, 3, 65, 0
4, 409320, Note_on_c, 3, 68, 84
4, 409440, Note_off_c, 3, 68, 0
4, 416160, End_track
5, 0, Start_track
5, 0, Instrument_name_t, "Roland Serial MIDI Out Port A"
5, 0, Title_t, "Unnamed Track"
5, 0, Control_c, 4, 0, 0
5, 0, Control_c, 4, 32, 0
5, 0, Program_c, 4, 0
5, 0, Control_c, 4, 7, 120
5, 0, Pitch_bend_c, 4, 8192
5, 0, Control_c, 4, 1, 0
5, 0, Control_c, 4, 1, 0
5, 0, Pitch_bend_c, 4, 8192
5, 0, Control_c, 4, 93, 18
5, 0, Pitch_bend_c, 4, 8192
5, 0, Control_c, 4, 64, 0
5, 0, Control_c, 4, 93, 28
5, 0, Control_c, 4, 91, 100
5, 0, Control_c, 4, 10, 55
5, 3840, Note_on_c, 4, 67, 52
5, 4740, Note_off_c, 4, 67, 0
5, 4800, Note_on_c, 4, 67, 55
5, 5700, Note_off_c, 4, 67, 0
5, 5760, Note_on_c, 4, 65, 59
5, 6668, Note_off_c, 4, 65, 0
5, 6720, Note_on_c, 4, 67, 62
5, 7200, Note_off_c, 4, 67, 0
5, 7200, Note_on_c, 4, 69, 64
5, 7620, Note_off_c, 4, 69, 0
5, 7680, Note_on_c, 4, 70, 67
5, 8380, Note_off_c, 4, 70, 0
5, 8640, Note_on_c, 4, 62, 60
5, 9540, Note_off_c, 4, 62, 0
5, 9600, Note_on_c, 4, 64, 57
5, 10500, Note_off_c, 4, 64, 0
5, 10560, Note_on_c, 4, 65, 53
5, 11460, Note_off_c, 4, 65, 0
5, 11520, Note_on_c, 4, 62, 49
5, 12420, Note_off_c, 4, 62, 0
5, 12480, Note_on_c, 4, 63, 46
5, 14400, Note_off_c, 4, 63, 0
5, 14400, Note_on_c, 4, 62, 39
5, 15308, Note_off_c, 4, 62, 0
5, 15360, Control_c, 4, 64, 127
5, 15360, Note_on_c, 4, 51, 36
5, 15600, Note_off_c, 4, 51, 0
5, 16260, Control_c, 4, 64, 0
5, 16320, Note_on_c, 4, 51, 43
5, 16320, Control_c, 4, 64, 127
5, 16560, Note_off_c, 4, 51, 0
5, 17220, Control_c, 4, 64, 0
5, 17280, Note_on_c, 4, 51, 51
5, 17280, Control_c, 4, 64, 127
5, 17520, Note_off_c, 4, 51, 0
5, 18180, Control_c, 4, 64, 0
5, 18240, Note_on_c, 4, 51, 53
5, 18240, Control_c, 4, 64, 127
5, 18480, Note_off_c, 4, 51, 0
5, 19140, Control_c, 4, 64, 0
5, 19200, Note_on_c, 4, 53, 53
5, 19200, Control_c, 4, 64, 127
5, 19440, Note_off_c, 4, 53, 0
5, 20100, Control_c, 4, 64, 0
5, 20160, Note_on_c, 4, 53, 41
5, 20160, Control_c, 4, 64, 127
5, 20400, Note_off_c, 4, 53, 0
5, 21060, Control_c, 4, 64, 0
5, 21120, Note_on_c, 4, 53, 49
5, 21120, Control_c, 4, 64, 127
5, 21360, Note_off_c, 4, 53, 0
5, 22020, Control_c, 4, 64, 0
5, 22080, Note_on_c, 4, 53, 53
5, 22080, Control_c, 4, 64, 127
5, 22320, Note_off_c, 4, 53, 0
5, 22980, Control_c, 4, 64, 0
5, 23040, Note_on_c, 4, 55, 55
5, 23040, Control_c, 4, 64, 127
5, 23280, Note_off_c, 4, 55, 0
5, 23940, Control_c, 4, 64, 0
5, 24000, Note_on_c, 4, 55, 46
5, 24000, Control_c, 4, 64, 127
5, 24240, Note_off_c, 4, 55, 0
5, 24900, Control_c, 4, 64, 0
5, 24960, Note_on_c, 4, 54, 44
5, 24960, Control_c, 4, 64, 127
5, 25200, Note_off_c, 4, 54, 0
5, 25860, Control_c, 4, 64, 0
5, 25920, Note_on_c, 4, 54, 43
5, 25920, Control_c, 4, 64, 127
5, 26160, Note_off_c, 4, 54, 0
5, 26820, Control_c, 4, 64, 0
5, 26880, Note_on_c, 4, 53, 43
5, 26880, Control_c, 4, 64, 127
5, 27120, Note_off_c, 4, 53, 0
5, 27780, Control_c, 4, 64, 0
5, 27840, Note_on_c, 4, 53, 48
5, 27840, Control_c, 4, 64, 127
5, 28080, Note_off_c, 4, 53, 0
5, 28740, Control_c, 4, 64, 0
5, 28800, Note_on_c, 4, 52, 54
5, 28800, Control_c, 4, 64, 127
5, 29040, Note_off_c, 4, 52, 0
5, 29700, Control_c, 4, 64, 0
5, 29760, Note_on_c, 4, 52, 43
5, 29760, Control_c, 4, 64, 127
5, 30000, Note_off_c, 4, 52, 0
5, 30660, Control_c, 4, 64, 0
5, 30720, Note_on_c, 4, 60, 34
5, 30960, Note_off_c, 4, 60, 0
5, 30960, Note_on_c, 4, 61, 35
5, 31200, Note_off_c, 4, 61, 0
5, 31200, Note_on_c, 4, 60, 36
5, 31440, Note_off_c, 4, 60, 0
5, 31440, Note_on_c, 4, 58, 37
5, 31680, Note_off_c, 4, 58, 0
5, 31680, Note_on_c, 4, 57, 38
5, 31920, Note_off_c, 4, 57, 0
5, 31920, Note_on_c, 4, 61, 39
5, 32160, Note_off_c, 4, 61, 0
5, 32160, Note_on_c, 4, 60, 40
5, 32400, Note_off_c, 4, 60, 0
5, 32400, Note_on_c, 4, 58, 41
5, 32610, Note_off_c, 4, 58, 0
5, 32640, Note_on_c, 4, 58, 43
5, 33600, Note_off_c, 4, 58, 0
5, 33600, Note_on_c, 4, 57, 31
5, 34080, Note_off_c, 4, 57, 0
5, 34560, Control_c, 4, 64, 127
5, 34560, Note_on_c, 4, 58, 54
5, 35460, Control_c, 4, 64, 0
5, 35483, Note_off_c, 4, 58, 0
5, 35520, Note_on_c, 4, 58, 43
5, 35520, Control_c, 4, 64, 127
5, 36420, Control_c, 4, 64, 0
5, 36450, Note_off_c, 4, 58, 0
5, 36480, Note_on_c, 4, 60, 44
5, 36480, Control_c, 4, 64, 127
5, 37380, Control_c, 4, 64, 0
5, 37395, Note_off_c, 4, 60, 0
5, 37440, Note_on_c, 4, 60, 46
5, 37440, Control_c, 4, 64, 127
5, 38340, Control_c, 4, 64, 0
5, 38348, Note_off_c, 4, 60, 0
5, 38400, Note_on_c, 4, 58, 48
5, 38400, Control_c, 4, 64, 127
5, 39300, Control_c, 4, 64, 0
5, 39308, Note_off_c, 4, 58, 0
5, 39360, Note_on_c, 4, 58, 49
5, 39360, Control_c, 4, 64, 127
5, 40260, Note_off_c, 4, 58, 0
5, 40260, Control_c, 4, 64, 0
5, 40320, Note_on_c, 4, 60, 51
5, 40320, Control_c, 4, 64, 127
5, 41220, Control_c, 4, 64, 0
5, 41228, Note_off_c, 4, 60, 0
5, 41280, Note_on_c, 4, 60, 52
5, 41280, Control_c, 4, 64, 127
5, 42180, Control_c, 4, 64, 0
5, 42195, Note_off_c, 4, 60, 0
5, 42240, Note_on_c, 4, 58, 54
5, 42240, Control_c, 4, 64, 127
5, 43140, Note_off_c, 4, 58, 0
5, 43140, Control_c, 4, 64, 0
5, 43200, Note_on_c, 4, 46, 66
5, 43200, Control_c, 4, 64, 127
5, 43440, Note_off_c, 4, 46, 0
5, 43680, Note_on_c, 4, 48, 69
5, 43680, Control_c, 4, 64, 0
5, 43740, Control_c, 4, 64, 127
5, 43920, Note_off_c, 4, 48, 0
5, 44100, Control_c, 4, 64, 0
5, 44160, Note_on_c, 4, 50, 74
5, 44160, Control_c, 4, 64, 127
5, 45053, Note_off_c, 4, 50, 0
5, 45060, Control_c, 4, 64, 0
5, 45120, Note_on_c, 4, 50, 70
5, 45120, Control_c, 4, 64, 127
5, 46020, Control_c, 4, 64, 0
5, 46035, Note_off_c, 4, 50, 0
5, 46080, Note_on_c, 4, 51, 66
5, 46080, Control_c, 4, 64, 127
5, 46980, Control_c, 4, 64, 0
5, 46988, Note_off_c, 4, 51, 0
5, 47040, Note_on_c, 4, 51, 63
5, 47040, Control_c, 4, 64, 127
5, 47940, Control_c, 4, 64, 0
5, 47948, Note_off_c, 4, 51, 0
5, 48000, Note_on_c, 4, 53, 60
5, 48000, Control_c, 4, 64, 127
5, 48900, Control_c, 4, 64, 0
5, 48908, Note_off_c, 4, 53, 0
5, 48960, Note_on_c, 4, 53, 57
5, 48960, Control_c, 4, 64, 127
5, 49860, Control_c, 4, 64, 0
5, 49868, Note_off_c, 4, 53, 0
5, 49920, Note_on_c, 4, 55, 54
5, 50400, Note_off_c, 4, 55, 0
5, 51840, Note_on_c, 4, 70, 49
5, 52260, Note_off_c, 4, 70, 0
5, 52800, Note_on_c, 4, 70, 56
5, 53220, Note_off_c, 4, 70, 0
5, 53280, Note_on_c, 4, 70, 52
5, 53700, Note_off_c, 4, 70, 0
5, 53760, Note_on_c, 4, 70, 42
5, 54180, Note_off_c, 4, 70, 0
5, 54720, Note_on_c, 4, 70, 53
5, 55140, Note_off_c, 4, 70, 0
5, 55200, Note_on_c, 4, 70, 49
5, 55620, Note_off_c, 4, 70, 0
5, 55680, Note_on_c, 4, 70, 46
5, 56580, Note_off_c, 4, 70, 0
5, 57120, Note_on_c, 4, 57, 52
5, 57120, Note_on_c, 4, 63, 52
5, 57540, Note_off_c, 4, 63, 0
5, 57548, Note_off_c, 4, 57, 0
5, 57600, Note_on_c, 4, 62, 54
5, 57790, Note_off_c, 4, 62, 0
5, 57840, Note_on_c, 4, 65, 52
5, 58080, Note_off_c, 4, 65, 0
5, 58080, Note_on_c, 4, 63, 50
5, 58320, Note_off_c, 4, 63, 0
5, 58320, Note_on_c, 4, 62, 48
5, 58508, Note_off_c, 4, 62, 0
5, 58800, Note_on_c, 4, 60, 49
5, 59040, Note_off_c, 4, 60, 0
5, 59040, Note_on_c, 4, 58, 47
5, 59280, Note_off_c, 4, 58, 0
5, 59280, Note_on_c, 4, 57, 45
5, 59468, Note_off_c, 4, 57, 0
5, 59520, Note_on_c, 4, 58, 43
5, 59750, Note_off_c, 4, 58, 0
5, 61440, Note_on_c, 4, 67, 36
5, 61440, Note_on_c, 4, 64, 36
5, 62340, Note_off_c, 4, 67, 0
5, 62340, Note_off_c, 4, 64, 0
5, 62400, Note_on_c, 4, 67, 38
5, 62400, Note_on_c, 4, 64, 38
5, 63300, Note_off_c, 4, 67, 0
5, 63300, Note_off_c, 4, 64, 0
5, 63360, Note_on_c, 4, 67, 40
5, 63360, Note_on_c, 4, 64, 40
5, 64260, Note_off_c, 4, 67, 0
5, 64260, Note_off_c, 4, 64, 0
5, 64320, Note_on_c, 4, 67, 42
5, 64320, Note_on_c, 4, 64, 42
5, 65220, Note_off_c, 4, 64, 0
5, 65228, Note_off_c, 4, 67, 0
5, 65280, Note_on_c, 4, 65, 46
5, 66173, Note_off_c, 4, 65, 0
5, 66240, Note_on_c, 4, 65, 39
5, 67133, Note_off_c, 4, 65, 0
5, 67200, Note_on_c, 4, 63, 50
5, 68108, Note_off_c, 4, 63, 0
5, 68160, Note_on_c, 4, 63, 59
5, 69053, Note_off_c, 4, 63, 0
5, 69120, Note_on_c, 4, 62, 68
5, 70020, Note_off_c, 4, 62, 0
5, 70080, Note_on_c, 4, 68, 64
5, 70973, Note_off_c, 4, 68, 0
5, 71040, Note_on_c, 4, 65, 61
5, 71940, Note_off_c, 4, 65, 0
5, 72000, Note_on_c, 4, 65, 57
5, 72000, Note_on_c, 4, 62, 57
5, 72900, Note_off_c, 4, 65, 0
5, 72900, Note_off_c, 4, 62, 0
5, 76800, Note_on_c, 4, 62, 75
5, 77693, Note_off_c, 4, 62, 0
5, 77760, Note_on_c, 4, 60, 55
5, 78240, Note_off_c, 4, 60, 0
5, 78240, Note_on_c, 4, 63, 52
5, 78660, Note_off_c, 4, 63, 0
5, 78720, Note_on_c, 4, 62, 64
5, 79635, Note_off_c, 4, 62, 0
5, 79680, Note_on_c, 4, 60, 47
5, 80160, Note_off_c, 4, 60, 0
5, 80160, Note_on_c, 4, 63, 44
5, 80588, Note_off_c, 4, 63, 0
5, 80640, Note_on_c, 4, 63, 51
5, 81548, Note_off_c, 4, 63, 0
5, 81600, Note_on_c, 4, 62, 38
5, 82560, Note_off_c, 4, 62, 0
5, 84480, Control_c, 4, 64, 127
5, 84480, Note_on_c, 4, 51, 34
5, 84720, Note_off_c, 4, 51, 0
5, 85380, Control_c, 4, 64, 0
5, 85440, Note_on_c, 4, 51, 42
5, 85440, Control_c, 4, 64, 127
5, 85680, Note_off_c, 4, 51, 0
5, 86340, Control_c, 4, 64, 0
5, 86400, Note_on_c, 4, 49, 53
5, 86400, Control_c, 4, 64, 127
5, 86640, Note_off_c, 4, 49, 0
5, 87300, Control_c, 4, 64, 0
5, 87360, Note_on_c, 4, 49, 46
5, 87360, Control_c, 4, 64, 127
5, 87600, Note_off_c, 4, 49, 0
5, 88260, Control_c, 4, 64, 0
5, 88320, Note_on_c, 4, 48, 38
5, 88320, Control_c, 4, 64, 127
5, 88560, Note_off_c, 4, 48, 0
5, 89220, Control_c, 4, 64, 0
5, 89280, Note_on_c, 4, 48, 43
5, 89280, Control_c, 4, 64, 127
5, 89520, Note_off_c, 4, 48, 0
5, 90180, Control_c, 4, 64, 0
5, 90240, Note_on_c, 4, 55, 48
5, 90240, Control_c, 4, 64, 127
5, 90480, Note_off_c, 4, 55, 0
5, 91140, Control_c, 4, 64, 0
5, 91200, Note_on_c, 4, 55, 54
5, 91200, Control_c, 4, 64, 127
5, 91440, Note_off_c, 4, 55, 0
5, 92100, Control_c, 4, 64, 0
5, 92160, Note_on_c, 4, 56, 62
5, 92160, Control_c, 4, 64, 127
5, 92400, Note_off_c, 4, 56, 0
5, 93060, Control_c, 4, 64, 0
5, 93120, Note_on_c, 4, 56, 51
5, 93120, Control_c, 4, 64, 127
5, 93360, Note_off_c, 4, 56, 0
5, 94020, Control_c, 4, 64, 0
5, 94080, Note_on_c, 4, 56, 66
5, 94080, Control_c, 4, 64, 127
5, 94320, Note_off_c, 4, 56, 0
5, 94980, Control_c, 4, 64, 0
5, 95040, Note_on_c, 4, 56, 52
5, 95040, Control_c, 4, 64, 127
5, 95280, Note_off_c, 4, 56, 0
5, 95940, Control_c, 4, 64, 0
5, 96000, Note_on_c, 4, 55, 61
5, 96000, Control_c, 4, 64, 127
5, 96240, Note_off_c, 4, 55, 0
5, 96900, Control_c, 4, 64, 0
5, 96960, Note_on_c, 4, 55, 54
5, 96960, Control_c, 4, 64, 127
5, 97200, Note_off_c, 4, 55, 0
5, 97860, Control_c, 4, 64, 0
5, 97920, Note_on_c, 4, 57, 70
5, 97920, Control_c, 4, 64, 127
5, 98160, Note_off_c, 4, 57, 0
5, 98820, Control_c, 4, 64, 0
5, 98880, Note_on_c, 4, 57, 64
5, 98880, Control_c, 4, 64, 127
5, 99120, Note_off_c, 4, 57, 0
5, 99780, Control_c, 4, 64, 0
5, 99840, Note_on_c, 4, 65, 52
5, 100080, Note_off_c, 4, 65, 0
5, 100080, Note_on_c, 4, 66, 53
5, 100320, Note_off_c, 4, 66, 0
5, 100320, Note_on_c, 4, 65, 55
5, 100560, Note_off_c, 4, 65, 0
5, 100560, Note_on_c, 4, 63, 56
5, 100800, Note_off_c, 4, 63, 0
5, 100800, Note_on_c, 4, 62, 57
5, 101040, Note_off_c, 4, 62, 0
5, 101040, Note_on_c, 4, 66, 59
5, 101280, Note_off_c, 4, 66, 0
5, 101280, Note_on_c, 4, 65, 60
5, 101520, Note_off_c, 4, 65, 0
5, 101520, Note_on_c, 4, 63, 61
5, 101715, Note_off_c, 4, 63, 0
5, 101760, Note_on_c, 4, 63, 66
5, 102720, Note_off_c, 4, 63, 0
5, 102720, Note_on_c, 4, 62, 42
5, 103200, Note_off_c, 4, 62, 0
5, 103680, Control_c, 4, 64, 127
5, 103680, Note_on_c, 4, 51, 52
5, 104100, Control_c, 4, 64, 0
5, 104160, Control_c, 4, 64, 127
5, 104580, Control_c, 4, 64, 0
5, 104588, Note_off_c, 4, 51, 0
5, 104640, Note_on_c, 4, 51, 38
5, 104640, Control_c, 4, 64, 127
5, 105060, Control_c, 4, 64, 0
5, 105120, Control_c, 4, 64, 127
5, 105540, Control_c, 4, 64, 0
5, 105548, Note_off_c, 4, 51, 0
5, 105600, Note_on_c, 4, 53, 40
5, 105600, Control_c, 4, 64, 127
5, 106020, Control_c, 4, 64, 0
5, 106080, Control_c, 4, 64, 127
5, 106500, Note_off_c, 4, 53, 0
5, 106500, Control_c, 4, 64, 0
5, 106560, Note_on_c, 4, 53, 42
5, 106560, Control_c, 4, 64, 127
5, 106980, Control_c, 4, 64, 0
5, 107040, Control_c, 4, 64, 127
5, 107460, Note_off_c, 4, 53, 0
5, 107460, Control_c, 4, 64, 0
5, 107520, Note_on_c, 4, 51, 44
5, 107520, Control_c, 4, 64, 127
5, 108420, Control_c, 4, 64, 0
5, 108428, Note_off_c, 4, 51, 0
5, 108480, Note_on_c, 4, 63, 47
5, 108480, Control_c, 4, 64, 127
5, 109380, Note_off_c, 4, 63, 0
5, 109380, Control_c, 4, 64, 0
5, 109440, Note_on_c, 4, 65, 49
5, 109440, Control_c, 4, 64, 127
5, 110340, Control_c, 4, 64, 0
5, 110348, Note_off_c, 4, 65, 0
5, 110400, Note_on_c, 4, 65, 51
5, 110400, Control_c, 4, 64, 127
5, 111293, Note_off_c, 4, 65, 0
5, 111300, Control_c, 4, 64, 0
5, 111360, Note_on_c, 4, 63, 53
5, 111360, Control_c, 4, 64, 127
5, 112260, Control_c, 4, 64, 0
5, 112268, Note_off_c, 4, 63, 0
5, 112320, Note_on_c, 4, 51, 68
5, 112320, Control_c, 4, 64, 127
5, 112560, Note_off_c, 4, 51, 0
5, 112800, Note_on_c, 4, 53, 72
5, 112800, Control_c, 4, 64, 0
5, 112860, Control_c, 4, 64, 127
5, 113040, Note_off_c, 4, 53, 0
5, 113220, Control_c, 4, 64, 0
5, 113280, Note_on_c, 4, 55, 76
5, 113280, Control_c, 4, 64, 127
5, 114180, Control_c, 4, 64, 0
5, 114188, Note_off_c, 4, 55, 0
5, 114240, Note_on_c, 4, 43, 71
5, 114240, Control_c, 4, 64, 127
5, 115140, Control_c, 4, 64, 0
5, 115148, Note_off_c, 4, 43, 0
5, 115200, Note_on_c, 4, 44, 65
5, 115200, Control_c, 4, 64, 127
5, 116100, Control_c, 4, 64, 0
5, 116115, Note_off_c, 4, 44, 0
5, 116160, Note_on_c, 4, 44, 60
5, 116160, Control_c, 4, 64, 127
5, 117060, Control_c, 4, 64, 0
5, 117068, Note_off_c, 4, 44, 0
5, 117120, Note_on_c, 4, 46, 55
5, 117120, Control_c, 4, 64, 127
5, 118020, Control_c, 4, 64, 0
5, 118028, Note_off_c, 4, 46, 0
5, 118080, Note_on_c, 4, 46, 50
5, 118080, Control_c, 4, 64, 127
5, 118980, Note_off_c, 4, 46, 0
5, 119040, Note_on_c, 4, 48, 46
5, 119040, Control_c, 4, 64, 0
5, 119520, Note_off_c, 4, 48, 0
5, 120960, Note_on_c, 4, 70, 77
5, 121380, Note_off_c, 4, 70, 0
5, 121920, Note_on_c, 4, 75, 59
5, 122300, Note_off_c, 4, 75, 0
5, 122400, Note_on_c, 4, 75, 58
5, 122780, Note_off_c, 4, 75, 0
5, 122880, Note_on_c, 4, 75, 56
5, 123240, Note_off_c, 4, 75, 0
5, 123840, Note_on_c, 4, 75, 72
5, 124220, Note_off_c, 4, 75, 0
5, 124320, Note_on_c, 4, 75, 70
5, 124700, Note_off_c, 4, 75, 0
5, 124800, Note_on_c, 4, 70, 68
5, 124800, Note_on_c, 4, 75, 68
5, 125708, Note_off_c, 4, 70, 0
5, 125715, Note_off_c, 4, 75, 0
5, 126240, Note_on_c, 4, 62, 59
5, 126240, Note_on_c, 4, 68, 59
5, 126620, Note_off_c, 4, 62, 0
5, 126620, Note_off_c, 4, 68, 0
5, 126720, Note_on_c, 4, 67, 54
5, 126910, Note_off_c, 4, 67, 0
5, 126960, Note_on_c, 4, 70, 52
5, 127200, Note_off_c, 4, 70, 0
5, 127200, Note_on_c, 4, 68, 51
5, 127440, Note_off_c, 4, 68, 0
5, 127440, Note_on_c, 4, 67, 49
5, 127635, Note_off_c, 4, 67, 0
5, 127920, Note_on_c, 4, 65, 51
5, 128160, Note_off_c, 4, 65, 0
5, 128160, Note_on_c, 4, 63, 48
5, 128400, Note_off_c, 4, 63, 0
5, 128400, Note_on_c, 4, 62, 47
5, 128603, Note_off_c, 4, 62, 0
5, 128640, Note_on_c, 4, 63, 45
5, 129600, Note_off_c, 4, 63, 0
5, 130560, Note_on_c, 4, 67, 44
5, 131468, Note_off_c, 4, 67, 0
5, 131520, Note_on_c, 4, 67, 46
5, 132420, Note_off_c, 4, 67, 0
5, 132480, Note_on_c, 4, 65, 49
5, 133373, Note_off_c, 4, 65, 0
5, 133440, Note_on_c, 4, 67, 52
5, 134160, Note_off_c, 4, 67, 0
5, 134160, Note_on_c, 4, 69, 54
5, 134348, Note_off_c, 4, 69, 0
5, 134400, Note_on_c, 4, 70, 57
5, 135300, Note_off_c, 4, 70, 0
5, 135360, Note_on_c, 4, 68, 50
5, 136245, Note_off_c, 4, 68, 0
5, 136320, Note_on_c, 4, 67, 45
5, 136800, Note_off_c, 4, 67, 0
5, 137280, Note_on_c, 4, 68, 40
5, 137660, Note_off_c, 4, 68, 0
5, 138720, Note_on_c, 4, 55, 33
5, 139100, Note_off_c, 4, 55, 0
5, 139200, Note_on_c, 4, 55, 31
5, 139580, Note_off_c, 4, 55, 0
5, 139680, Note_on_c, 4, 56, 28
5, 140060, Note_off_c, 4, 56, 0
5, 140160, Note_on_c, 4, 56, 26
5, 141120, Note_off_c, 4, 56, 0
5, 141120, Note_on_c, 4, 55, 21
5, 141600, Note_off_c, 4, 55, 0
5, 143040, Control_c, 4, 64, 0
5, 144000, Note_on_c, 4, 65, 55
5, 144156, Note_off_c, 4, 65, 0
5, 144480, Note_on_c, 4, 65, 52
5, 144636, Note_off_c, 4, 65, 0
5, 144960, Note_on_c, 4, 65, 49
5, 145320, Note_off_c, 4, 65, 0
5, 146880, Note_on_c, 4, 65, 58
5, 147036, Note_off_c, 4, 65, 0
5, 147360, Note_on_c, 4, 65, 54
5, 147516, Note_off_c, 4, 65, 0
5, 147840, Note_on_c, 4, 65, 51
5, 148200, Note_off_c, 4, 65, 0
5, 155520, Note_on_c, 4, 60, 65
5, 155520, Note_on_c, 4, 57, 65
5, 155676, Note_off_c, 4, 60, 0
5, 155676, Note_off_c, 4, 57, 0
5, 156000, Note_on_c, 4, 58, 62
5, 156000, Note_on_c, 4, 55, 62
5, 156156, Note_off_c, 4, 58, 0
5, 156156, Note_off_c, 4, 55, 0
5, 156480, Note_on_c, 4, 57, 60
5, 156960, Note_off_c, 4, 57, 0
5, 181440, Note_on_c, 4, 65, 64
5, 181440, Note_on_c, 4, 62, 64
5, 181596, Note_off_c, 4, 65, 0
5, 181596, Note_off_c, 4, 62, 0
5, 181920, Note_on_c, 4, 63, 61
5, 181920, Note_on_c, 4, 60, 61
5, 182076, Note_off_c, 4, 63, 0
5, 182076, Note_off_c, 4, 60, 0
5, 182400, Note_on_c, 4, 62, 58
5, 182784, Note_off_c, 4, 62, 0
5, 189120, Control_c, 4, 64, 0
5, 189600, Note_on_c, 4, 67, 47
5, 189600, Note_on_c, 4, 63, 47
5, 189960, Note_off_c, 4, 67, 0
5, 189960, Note_off_c, 4, 63, 0
5, 190080, Note_on_c, 4, 67, 51
5, 190080, Note_on_c, 4, 63, 51
5, 190440, Note_off_c, 4, 67, 0
5, 190440, Note_off_c, 4, 63, 0
5, 190560, Note_on_c, 4, 67, 55
5, 190560, Note_on_c, 4, 63, 55
5, 190920, Note_off_c, 4, 67, 0
5, 190920, Note_off_c, 4, 63, 0
5, 191040, Note_on_c, 4, 68, 65
5, 191040, Note_on_c, 4, 65, 65
5, 191400, Note_off_c, 4, 68, 0
5, 191400, Note_off_c, 4, 65, 0
5, 191520, Note_on_c, 4, 68, 58
5, 191520, Note_on_c, 4, 65, 58
5, 191880, Note_off_c, 4, 68, 0
5, 191880, Note_off_c, 4, 65, 0
5, 192000, Note_on_c, 4, 68, 50
5, 192000, Note_on_c, 4, 65, 50
5, 192360, Note_off_c, 4, 68, 0
5, 192360, Note_off_c, 4, 65, 0
5, 192480, Note_on_c, 4, 67, 54
5, 192480, Note_on_c, 4, 63, 54
5, 192840, Note_off_c, 4, 67, 0
5, 192840, Note_off_c, 4, 63, 0
5, 192960, Note_on_c, 4, 67, 58
5, 192960, Note_on_c, 4, 63, 58
5, 193320, Note_off_c, 4, 67, 0
5, 193320, Note_off_c, 4, 63, 0
5, 193440, Note_on_c, 4, 67, 62
5, 193440, Note_on_c, 4, 63, 62
5, 193800, Note_off_c, 4, 67, 0
5, 193800, Note_off_c, 4, 63, 0
5, 193920, Note_on_c, 4, 65, 70
5, 193920, Note_on_c, 4, 62, 70
5, 194280, Note_off_c, 4, 65, 0
5, 194280, Note_off_c, 4, 62, 0
5, 194400, Note_on_c, 4, 65, 64
5, 194400, Note_on_c, 4, 62, 64
5, 194760, Note_off_c, 4, 65, 0
5, 194760, Note_off_c, 4, 62, 0
5, 194880, Note_on_c, 4, 65, 59
5, 194880, Note_on_c, 4, 62, 59
5, 195240, Note_off_c, 4, 65, 0
5, 195240, Note_off_c, 4, 62, 0
5, 197760, Note_on_c, 4, 61, 50
5, 198144, Note_off_c, 4, 61, 0
5, 198240, Note_on_c, 4, 60, 49
5, 198624, Note_off_c, 4, 60, 0
5, 207360, Note_on_c, 4, 58, 51
5, 207673, Note_off_c, 4, 58, 0
5, 207840, Note_on_c, 4, 58, 48
5, 208153, Note_off_c, 4, 58, 0
5, 208800, Note_on_c, 4, 58, 43
5, 209113, Note_off_c, 4, 58, 0
5, 209280, Note_on_c, 4, 58, 40
5, 209593, Note_off_c, 4, 58, 0
5, 209760, Note_on_c, 4, 58, 67
5, 209820, Note_on_c, 4, 60, 69
5, 209850, Note_off_c, 4, 58, 0
5, 209880, Note_on_c, 4, 62, 71
5, 209910, Note_off_c, 4, 60, 0
5, 210480, Note_off_c, 4, 62, 0
5, 210720, Note_on_c, 4, 62, 54
5, 210840, Note_off_c, 4, 62, 0
5, 210840, Note_on_c, 4, 60, 52
5, 210960, Note_off_c, 4, 60, 0
5, 210960, Note_on_c, 4, 58, 50
5, 211080, Note_off_c, 4, 58, 0
5, 211080, Note_on_c, 4, 57, 48
5, 211180, Note_off_c, 4, 57, 0
5, 212160, Control_c, 4, 64, 0
5, 212640, Note_on_c, 4, 63, 47
5, 212640, Note_on_c, 4, 67, 47
5, 213000, Note_off_c, 4, 63, 0
5, 213000, Note_off_c, 4, 67, 0
5, 213120, Note_on_c, 4, 63, 51
5, 213120, Note_on_c, 4, 67, 51
5, 213480, Note_off_c, 4, 63, 0
5, 213480, Note_off_c, 4, 67, 0
5, 213600, Note_on_c, 4, 63, 55
5, 213600, Note_on_c, 4, 67, 55
5, 213960, Note_off_c, 4, 63, 0
5, 213960, Note_off_c, 4, 67, 0
5, 214080, Note_on_c, 4, 65, 65
5, 214080, Note_on_c, 4, 68, 65
5, 214440, Note_off_c, 4, 65, 0
5, 214440, Note_off_c, 4, 68, 0
5, 214560, Note_on_c, 4, 65, 58
5, 214560, Note_on_c, 4, 68, 58
5, 214920, Note_off_c, 4, 65, 0
5, 214920, Note_off_c, 4, 68, 0
5, 215040, Note_on_c, 4, 65, 50
5, 215040, Note_on_c, 4, 68, 50
5, 215400, Note_off_c, 4, 65, 0
5, 215400, Note_off_c, 4, 68, 0
5, 215520, Note_on_c, 4, 63, 54
5, 215520, Note_on_c, 4, 67, 54
5, 215880, Note_off_c, 4, 63, 0
5, 215880, Note_off_c, 4, 67, 0
5, 216000, Note_on_c, 4, 63, 58
5, 216000, Note_on_c, 4, 67, 58
5, 216360, Note_off_c, 4, 63, 0
5, 216360, Note_off_c, 4, 67, 0
5, 216480, Note_on_c, 4, 63, 62
5, 216480, Note_on_c, 4, 67, 62
5, 216840, Note_off_c, 4, 63, 0
5, 216840, Note_off_c, 4, 67, 0
5, 216960, Note_on_c, 4, 62, 70
5, 216960, Note_on_c, 4, 65, 70
5, 217320, Note_off_c, 4, 62, 0
5, 217320, Note_off_c, 4, 65, 0
5, 217440, Note_on_c, 4, 62, 64
5, 217440, Note_on_c, 4, 65, 64
5, 217800, Note_off_c, 4, 62, 0
5, 217800, Note_off_c, 4, 65, 0
5, 217920, Note_on_c, 4, 62, 59
5, 217920, Note_on_c, 4, 65, 59
5, 218280, Note_off_c, 4, 62, 0
5, 218280, Note_off_c, 4, 65, 0
5, 220800, Note_on_c, 4, 61, 50
5, 221184, Note_off_c, 4, 61, 0
5, 221280, Note_on_c, 4, 60, 49
5, 221664, Note_off_c, 4, 60, 0
5, 230400, Note_on_c, 4, 58, 51
5, 230713, Note_off_c, 4, 58, 0
5, 230880, Note_on_c, 4, 58, 48
5, 231193, Note_off_c, 4, 58, 0
5, 231840, Note_on_c, 4, 58, 43
5, 232153, Note_off_c, 4, 58, 0
5, 232320, Note_on_c, 4, 58, 40
5, 232633, Note_off_c, 4, 58, 0
5, 232800, Note_on_c, 4, 58, 67
5, 232860, Note_on_c, 4, 60, 69
5, 232890, Note_off_c, 4, 58, 0
5, 232920, Note_on_c, 4, 62, 71
5, 232950, Note_off_c, 4, 60, 0
5, 233520, Note_off_c, 4, 62, 0
5, 233760, Note_on_c, 4, 62, 54
5, 233880, Note_off_c, 4, 62, 0
5, 233880, Note_on_c, 4, 60, 52
5, 234000, Note_off_c, 4, 60, 0
5, 234000, Note_on_c, 4, 58, 50
5, 234120, Note_off_c, 4, 58, 0
5, 234120, Note_on_c, 4, 57, 48
5, 234220, Note_off_c, 4, 57, 0
5, 235200, Control_c, 4, 64, 0
5, 235200, Note_on_c, 4, 62, 40
5, 235440, Note_off_c, 4, 62, 0
5, 235680, Note_on_c, 4, 63, 57
5, 235920, Note_off_c, 4, 63, 0
5, 236160, Note_on_c, 4, 63, 50
5, 236400, Note_off_c, 4, 63, 0
5, 236640, Note_on_c, 4, 65, 49
5, 236880, Note_off_c, 4, 65, 0
5, 237120, Note_on_c, 4, 67, 62
5, 237360, Note_off_c, 4, 67, 0
5, 237600, Note_on_c, 4, 67, 55
5, 237840, Note_off_c, 4, 67, 0
5, 238080, Note_on_c, 4, 62, 55
5, 238320, Note_off_c, 4, 62, 0
5, 238560, Note_on_c, 4, 63, 72
5, 238800, Note_off_c, 4, 63, 0
5, 239040, Note_on_c, 4, 63, 64
5, 239280, Note_off_c, 4, 63, 0
5, 239520, Note_on_c, 4, 60, 61
5, 239760, Note_off_c, 4, 60, 0
5, 240000, Note_on_c, 4, 62, 76
5, 240240, Note_off_c, 4, 62, 0
5, 240480, Note_on_c, 4, 65, 57
5, 240720, Note_off_c, 4, 65, 0
5, 247200, Note_on_c, 4, 67, 45
5, 247200, Note_on_c, 4, 63, 45
5, 247560, Note_off_c, 4, 67, 0
5, 247560, Note_off_c, 4, 63, 0
5, 247680, Note_on_c, 4, 67, 49
5, 247680, Note_on_c, 4, 63, 49
5, 248040, Note_off_c, 4, 67, 0
5, 248040, Note_off_c, 4, 63, 0
5, 248160, Note_on_c, 4, 67, 52
5, 248160, Note_on_c, 4, 63, 52
5, 248520, Note_off_c, 4, 67, 0
5, 248520, Note_off_c, 4, 63, 0
5, 248640, Note_on_c, 4, 68, 61
5, 248640, Note_on_c, 4, 65, 61
5, 249000, Note_off_c, 4, 68, 0
5, 249000, Note_off_c, 4, 65, 0
5, 249120, Note_on_c, 4, 68, 54
5, 249120, Note_on_c, 4, 65, 54
5, 249480, Note_off_c, 4, 68, 0
5, 249480, Note_off_c, 4, 65, 0
5, 249600, Note_on_c, 4, 68, 48
5, 249600, Note_on_c, 4, 65, 48
5, 249960, Note_off_c, 4, 68, 0
5, 249960, Note_off_c, 4, 65, 0
5, 250080, Note_on_c, 4, 67, 53
5, 250080, Note_on_c, 4, 63, 53
5, 250440, Note_off_c, 4, 67, 0
5, 250440, Note_off_c, 4, 63, 0
5, 250560, Note_on_c, 4, 67, 57
5, 250560, Note_on_c, 4, 63, 57
5, 250920, Note_off_c, 4, 67, 0
5, 250920, Note_off_c, 4, 63, 0
5, 251040, Note_on_c, 4, 67, 62
5, 251040, Note_on_c, 4, 63, 62
5, 251400, Note_off_c, 4, 67, 0
5, 251400, Note_off_c, 4, 63, 0
5, 251520, Note_on_c, 4, 65, 70
5, 251520, Note_on_c, 4, 62, 70
5, 251880, Note_off_c, 4, 65, 0
5, 251880, Note_off_c, 4, 62, 0
5, 252000, Note_on_c, 4, 65, 64
5, 252000, Note_on_c, 4, 62, 64
5, 252360, Note_off_c, 4, 65, 0
5, 252360, Note_off_c, 4, 62, 0
5, 252480, Note_on_c, 4, 65, 59
5, 252480, Note_on_c, 4, 62, 59
5, 252840, Note_off_c, 4, 65, 0
5, 252840, Note_off_c, 4, 62, 0
5, 255360, Note_on_c, 4, 61, 48
5, 255744, Note_off_c, 4, 61, 0
5, 255840, Note_on_c, 4, 60, 46
5, 256224, Note_off_c, 4, 60, 0
5, 258240, Note_on_c, 4, 51, 46
5, 258480, Note_off_c, 4, 51, 0
5, 258720, Note_on_c, 4, 53, 51
5, 258960, Note_off_c, 4, 53, 0
5, 259200, Note_on_c, 4, 56, 48
5, 259440, Note_off_c, 4, 56, 0
5, 259680, Note_on_c, 4, 56, 52
5, 259920, Note_off_c, 4, 56, 0
5, 260160, Note_on_c, 4, 55, 66
5, 260400, Note_off_c, 4, 55, 0
5, 260640, Note_on_c, 4, 51, 60
5, 260880, Note_off_c, 4, 51, 0
5, 261120, Note_on_c, 4, 51, 53
5, 261360, Note_off_c, 4, 51, 0
5, 261600, Note_on_c, 4, 53, 63
5, 261840, Note_off_c, 4, 53, 0
5, 262080, Note_on_c, 4, 56, 58
5, 262320, Note_off_c, 4, 56, 0
5, 262560, Note_on_c, 4, 56, 59
5, 262800, Note_off_c, 4, 56, 0
5, 263040, Note_on_c, 4, 55, 71
5, 263280, Note_off_c, 4, 55, 0
5, 263520, Note_on_c, 4, 51, 64
5, 263760, Note_off_c, 4, 51, 0
5, 264960, Note_on_c, 4, 63, 56
5, 265273, Note_off_c, 4, 63, 0
5, 265440, Note_on_c, 4, 63, 53
5, 265753, Note_off_c, 4, 63, 0
5, 266400, Note_on_c, 4, 63, 46
5, 266713, Note_off_c, 4, 63, 0
5, 266880, Note_on_c, 4, 63, 43
5, 267193, Note_off_c, 4, 63, 0
5, 267360, Note_on_c, 4, 63, 72
5, 267420, Note_on_c, 4, 65, 74
5, 267458, Note_off_c, 4, 63, 0
5, 267480, Note_on_c, 4, 67, 77
5, 267525, Note_off_c, 4, 65, 0
5, 268080, Note_off_c, 4, 67, 0
5, 268320, Note_on_c, 4, 67, 59
5, 268440, Note_off_c, 4, 67, 0
5, 268440, Note_on_c, 4, 65, 57
5, 268560, Note_off_c, 4, 65, 0
5, 268560, Note_on_c, 4, 63, 55
5, 268680, Note_off_c, 4, 63, 0
5, 268680, Note_on_c, 4, 62, 53
5, 268800, Note_off_c, 4, 62, 0
5, 269760, Control_c, 4, 64, 0
5, 270720, Note_on_c, 4, 65, 55
5, 270876, Note_off_c, 4, 65, 0
5, 271200, Note_on_c, 4, 65, 52
5, 271356, Note_off_c, 4, 65, 0
5, 271680, Note_on_c, 4, 65, 49
5, 272040, Note_off_c, 4, 65, 0
5, 273600, Note_on_c, 4, 65, 58
5, 273756, Note_off_c, 4, 65, 0
5, 274080, Note_on_c, 4, 65, 54
5, 274236, Note_off_c, 4, 65, 0
5, 274560, Note_on_c, 4, 65, 51
5, 274920, Note_off_c, 4, 65, 0
5, 282240, Note_on_c, 4, 57, 65
5, 282240, Note_on_c, 4, 60, 65
5, 282396, Note_off_c, 4, 57, 0
5, 282396, Note_off_c, 4, 60, 0
5, 282720, Note_on_c, 4, 55, 62
5, 282720, Note_on_c, 4, 58, 62
5, 282876, Note_off_c, 4, 55, 0
5, 282876, Note_off_c, 4, 58, 0
5, 283200, Note_on_c, 4, 57, 60
5, 283680, Note_off_c, 4, 57, 0
5, 308160, Note_on_c, 4, 62, 64
5, 308160, Note_on_c, 4, 65, 64
5, 308316, Note_off_c, 4, 62, 0
5, 308316, Note_off_c, 4, 65, 0
5, 308640, Note_on_c, 4, 60, 61
5, 308640, Note_on_c, 4, 63, 61
5, 308796, Note_off_c, 4, 60, 0
5, 308796, Note_off_c, 4, 63, 0
5, 309120, Note_on_c, 4, 62, 58
5, 309504, Note_off_c, 4, 62, 0
5, 315840, Control_c, 4, 64, 0
5, 318480, Note_on_c, 4, 67, 44
5, 318624, Note_off_c, 4, 67, 0
5, 318720, Note_on_c, 4, 67, 45
5, 318936, Note_off_c, 4, 67, 0
5, 319440, Note_on_c, 4, 65, 47
5, 319584, Note_off_c, 4, 65, 0
5, 319680, Note_on_c, 4, 65, 48
5, 319896, Note_off_c, 4, 65, 0
5, 322320, Note_on_c, 4, 67, 67
5, 322464, Note_off_c, 4, 67, 0
5, 322560, Note_on_c, 4, 67, 68
5, 322776, Note_off_c, 4, 67, 0
5, 323280, Note_on_c, 4, 65, 71
5, 323424, Note_off_c, 4, 65, 0
5, 323520, Note_on_c, 4, 65, 71
5, 323736, Note_off_c, 4, 65, 0
5, 324240, Note_on_c, 4, 70, 72
5, 324396, Note_off_c, 4, 70, 0
5, 324480, Note_on_c, 4, 70, 70
5, 324636, Note_off_c, 4, 70, 0
5, 324720, Note_on_c, 4, 70, 68
5, 324876, Note_off_c, 4, 70, 0
5, 325200, Note_on_c, 4, 70, 60
5, 325354, Note_off_c, 4, 70, 0
5, 325920, Note_on_c, 4, 58, 55
5, 326280, Note_off_c, 4, 58, 0
5, 326400, Note_on_c, 4, 58, 62
5, 326760, Note_off_c, 4, 58, 0
5, 326880, Note_on_c, 4, 57, 77
5, 327240, Note_off_c, 4, 57, 0
5, 327360, Note_on_c, 4, 57, 65
5, 327720, Note_off_c, 4, 57, 0
5, 327840, Note_on_c, 4, 58, 52
5, 328200, Note_off_c, 4, 58, 0
5, 328320, Note_on_c, 4, 58, 58
5, 328680, Note_off_c, 4, 58, 0
5, 328800, Note_on_c, 4, 57, 73
5, 329160, Note_off_c, 4, 57, 0
5, 329280, Note_on_c, 4, 57, 65
5, 329640, Note_off_c, 4, 57, 0
5, 331440, Note_on_c, 4, 63, 63
5, 331596, Note_off_c, 4, 63, 0
5, 331680, Note_on_c, 4, 62, 60
5, 331920, Note_off_c, 4, 62, 0
5, 331920, Note_on_c, 4, 60, 53
5, 332044, Note_off_c, 4, 60, 0
5, 333360, Note_on_c, 4, 65, 49
5, 333501, Note_off_c, 4, 65, 0
5, 333600, Note_on_c, 4, 67, 53
5, 333813, Note_off_c, 4, 67, 0
5, 334320, Note_on_c, 4, 67, 58
5, 334461, Note_off_c, 4, 67, 0
5, 334560, Note_on_c, 4, 69, 63
5, 334773, Note_off_c, 4, 69, 0
5, 335280, Note_on_c, 4, 69, 66
5, 335421, Note_off_c, 4, 69, 0
5, 335520, Note_on_c, 4, 70, 72
5, 335733, Note_off_c, 4, 70, 0
5, 336240, Note_on_c, 4, 70, 74
5, 336381, Note_off_c, 4, 70, 0
5, 336480, Note_on_c, 4, 50, 81
5, 336840, Note_off_c, 4, 50, 0
5, 336960, Note_on_c, 4, 50, 80
5, 337320, Note_off_c, 4, 50, 0
5, 337440, Note_on_c, 4, 51, 79
5, 337800, Note_off_c, 4, 51, 0
5, 337920, Note_on_c, 4, 51, 78
5, 338280, Note_off_c, 4, 51, 0
5, 338400, Note_on_c, 4, 53, 76
5, 338760, Note_off_c, 4, 53, 0
5, 338880, Note_on_c, 4, 53, 75
5, 339240, Note_off_c, 4, 53, 0
5, 339360, Note_on_c, 4, 58, 74
5, 339360, Note_on_c, 4, 62, 74
5, 339840, Note_off_c, 4, 58, 0
5, 339840, Note_off_c, 4, 62, 0
5, 340800, Note_on_c, 4, 65, 47
5, 341184, Note_off_c, 4, 65, 0
5, 341760, Note_on_c, 4, 67, 56
5, 342144, Note_off_c, 4, 67, 0
5, 342720, Note_on_c, 4, 69, 65
5, 343104, Note_off_c, 4, 69, 0
5, 343680, Note_on_c, 4, 70, 74
5, 344064, Note_off_c, 4, 70, 0
5, 344160, Note_on_c, 4, 50, 85
5, 344520, Note_off_c, 4, 50, 0
5, 344640, Note_on_c, 4, 50, 83
5, 345000, Note_off_c, 4, 50, 0
5, 345120, Note_on_c, 4, 51, 81
5, 345480, Note_off_c, 4, 51, 0
5, 345600, Note_on_c, 4, 51, 79
5, 345960, Note_off_c, 4, 51, 0
5, 346080, Note_on_c, 4, 53, 77
5, 346440, Note_off_c, 4, 53, 0
5, 346560, Note_on_c, 4, 53, 76
5, 346920, Note_off_c, 4, 53, 0
5, 347040, Note_on_c, 4, 58, 74
5, 347040, Note_on_c, 4, 62, 74
5, 347520, Note_off_c, 4, 58, 0
5, 347520, Note_off_c, 4, 62, 0
5, 348000, Note_on_c, 4, 50, 89
5, 348360, Note_off_c, 4, 50, 0
5, 348480, Note_on_c, 4, 50, 86
5, 348840, Note_off_c, 4, 50, 0
5, 348960, Note_on_c, 4, 51, 83
5, 349320, Note_off_c, 4, 51, 0
5, 349440, Note_on_c, 4, 51, 80
5, 349800, Note_off_c, 4, 51, 0
5, 349920, Note_on_c, 4, 53, 78
5, 350280, Note_off_c, 4, 53, 0
5, 350400, Note_on_c, 4, 53, 75
5, 350760, Note_off_c, 4, 53, 0
5, 350880, Note_on_c, 4, 58, 73
5, 350880, Note_on_c, 4, 62, 73
5, 351360, Note_off_c, 4, 58, 0
5, 351360, Note_off_c, 4, 62, 0
5, 352800, Note_on_c, 4, 62, 68
5, 353280, Note_off_c, 4, 62, 0
5, 355920, Note_on_c, 4, 61, 49
5, 356076, Note_off_c, 4, 61, 0
5, 356160, Note_on_c, 4, 61, 50
5, 356400, Note_off_c, 4, 61, 0
5, 356880, Note_on_c, 4, 60, 53
5, 357036, Note_off_c, 4, 60, 0
5, 357120, Note_on_c, 4, 60, 54
5, 357360, Note_off_c, 4, 60, 0
5, 359760, Note_on_c, 4, 59, 38
5, 359904, Note_off_c, 4, 59, 0
5, 360000, Note_on_c, 4, 59, 39
5, 360216, Note_off_c, 4, 59, 0
5, 360720, Note_on_c, 4, 58, 42
5, 360876, Note_off_c, 4, 58, 0
5, 360960, Note_on_c, 4, 58, 43
5, 361194, Note_off_c, 4, 58, 0
5, 374880, Note_on_c, 4, 62, 60
5, 376800, Note_off_c, 4, 62, 0
5, 376800, Note_on_c, 4, 63, 46
5, 377040, Note_off_c, 4, 63, 0
5, 377040, Note_on_c, 4, 67, 47
5, 377196, Note_off_c, 4, 67, 0
5, 377280, Note_on_c, 4, 67, 47
5, 377593, Note_off_c, 4, 67, 0
5, 378000, Note_on_c, 4, 65, 49
5, 378156, Note_off_c, 4, 65, 0
5, 378240, Note_on_c, 4, 65, 50
5, 378553, Note_off_c, 4, 65, 0
5, 380880, Note_on_c, 4, 67, 67
5, 381036, Note_off_c, 4, 67, 0
5, 381120, Note_on_c, 4, 67, 68
5, 381276, Note_off_c, 4, 67, 0
5, 381840, Note_on_c, 4, 65, 71
5, 381996, Note_off_c, 4, 65, 0
5, 382080, Note_on_c, 4, 65, 71
5, 382236, Note_off_c, 4, 65, 0
5, 382800, Note_on_c, 4, 70, 72
5, 382956, Note_off_c, 4, 70, 0
5, 383040, Note_on_c, 4, 70, 70
5, 383196, Note_off_c, 4, 70, 0
5, 383280, Note_on_c, 4, 70, 67
5, 383436, Note_off_c, 4, 70, 0
5, 383760, Note_on_c, 4, 70, 54
5, 383916, Note_off_c, 4, 70, 0
5, 384480, Note_on_c, 4, 51, 42
5, 384840, Note_off_c, 4, 51, 0
5, 384960, Note_on_c, 4, 51, 49
5, 385320, Note_off_c, 4, 51, 0
5, 385440, Note_on_c, 4, 50, 69
5, 385800, Note_off_c, 4, 50, 0
5, 385920, Note_on_c, 4, 50, 54
5, 386280, Note_off_c, 4, 50, 0
5, 386400, Note_on_c, 4, 51, 42
5, 386760, Note_off_c, 4, 51, 0
5, 386880, Note_on_c, 4, 51, 52
5, 387240, Note_off_c, 4, 51, 0
5, 387360, Note_on_c, 4, 50, 73
5, 387720, Note_off_c, 4, 50, 0
5, 387840, Note_on_c, 4, 50, 64
5, 388200, Note_off_c, 4, 50, 0
5, 390000, Note_on_c, 4, 68, 66
5, 390156, Note_off_c, 4, 68, 0
5, 390240, Note_on_c, 4, 67, 62
5, 390480, Note_off_c, 4, 67, 0
5, 390480, Note_on_c, 4, 65, 53
5, 390638, Note_off_c, 4, 65, 0
5, 391920, Note_on_c, 4, 70, 39
5, 392076, Note_off_c, 4, 70, 0
5, 392160, Note_on_c, 4, 72, 40
5, 392473, Note_off_c, 4, 72, 0
5, 392880, Note_on_c, 4, 72, 44
5, 393036, Note_off_c, 4, 72, 0
5, 393120, Note_on_c, 4, 74, 45
5, 393433, Note_off_c, 4, 74, 0
5, 393840, Note_on_c, 4, 74, 49
5, 393996, Note_off_c, 4, 74, 0
5, 394080, Note_on_c, 4, 75, 51
5, 394393, Note_off_c, 4, 75, 0
5, 394800, Note_on_c, 4, 75, 54
5, 394956, Note_off_c, 4, 75, 0
5, 395040, Note_on_c, 4, 43, 65
5, 395400, Note_off_c, 4, 43, 0
5, 395520, Note_on_c, 4, 43, 64
5, 395880, Note_off_c, 4, 43, 0
5, 396000, Note_on_c, 4, 44, 62
5, 396360, Note_off_c, 4, 44, 0
5, 396480, Note_on_c, 4, 44, 60
5, 396840, Note_off_c, 4, 44, 0
5, 396960, Note_on_c, 4, 46, 59
5, 397320, Note_off_c, 4, 46, 0
5, 397440, Note_on_c, 4, 46, 57
5, 397800, Note_off_c, 4, 46, 0
5, 397920, Note_on_c, 4, 51, 55
5, 397920, Note_on_c, 4, 55, 55
5, 398400, Note_off_c, 4, 51, 0
5, 398400, Note_off_c, 4, 55, 0
5, 399360, Note_on_c, 4, 58, 55
5, 399673, Note_off_c, 4, 58, 0
5, 400320, Note_on_c, 4, 60, 63
5, 400633, Note_off_c, 4, 60, 0
5, 401280, Note_on_c, 4, 62, 71
5, 401593, Note_off_c, 4, 62, 0
5, 402240, Note_on_c, 4, 63, 79
5, 402553, Note_off_c, 4, 63, 0
5, 402720, Note_on_c, 4, 43, 85
5, 403080, Note_off_c, 4, 43, 0
5, 403200, Note_on_c, 4, 43, 83
5, 403560, Note_off_c, 4, 43, 0
5, 403680, Note_on_c, 4, 44, 81
5, 404040, Note_off_c, 4, 44, 0
5, 404160, Note_on_c, 4, 44, 79
5, 404520, Note_off_c, 4, 44, 0
5, 404640, Note_on_c, 4, 46, 78
5, 405000, Note_off_c, 4, 46, 0
5, 405120, Note_on_c, 4, 46, 76
5, 405480, Note_off_c, 4, 46, 0
5, 405600, Note_on_c, 4, 48, 74
5, 405600, Note_on_c, 4, 55, 74
5, 406080, Note_off_c, 4, 48, 0
5, 406080, Note_off_c, 4, 55, 0
5, 406560, Note_on_c, 4, 55, 76
5, 406920, Note_off_c, 4, 55, 0
5, 407040, Note_on_c, 4, 55, 78
5, 407400, Note_off_c, 4, 55, 0
5, 407520, Note_on_c, 4, 56, 79
5, 407880, Note_off_c, 4, 56, 0
5, 408000, Note_on_c, 4, 56, 80
5, 408360, Note_off_c, 4, 56, 0
5, 408480, Note_on_c, 4, 58, 82
5, 408840, Note_off_c, 4, 58, 0
5, 408960, Note_on_c, 4, 58, 83
5, 409320, Note_off_c, 4, 58, 0
5, 409440, Note_on_c, 4, 63, 86
5, 409440, Note_on_c, 4, 67, 86
5, 409920, Note_off_c, 4, 63, 0
5, 409920, Note_off_c, 4, 67, 0
5, 414000, Note_on_c, 4, 65, 81
5, 414000, Note_on_c, 4, 68, 81
5, 414156, Note_off_c, 4, 65, 0
5, 414156, Note_off_c, 4, 68, 0
5, 414240, Note_on_c, 4, 67, 84
5, 414553, Note_off_c, 4, 67, 0
5, 414960, Note_on_c, 4, 65, 93
5, 414960, Note_on_c, 4, 68, 93
5, 415116, Note_off_c, 4, 65, 0
5, 415116, Note_off_c, 4, 68, 0
5, 415200, Note_on_c, 4, 67, 96
5, 415680, Note_off_c, 4, 67, 0
5, 416160, End_track
6, 0, Start_track
6, 0, Instrument_name_t, "Roland Serial MIDI Out Port A"
6, 0, Title_t, "Unnamed Track"
6, 0, Control_c, 5, 0, 0
6, 0, Control_c, 5, 32, 0
6, 0, Program_c, 5, 0
6, 0, Control_c, 5, 64, 0
6, 0, Control_c, 5, 7, 125
6, 0, Pitch_bend_c, 5, 8192
6, 0, Control_c, 5, 1, 0
6, 0, Control_c, 5, 1, 0
6, 0, Pitch_bend_c, 5, 8192
6, 0, Control_c, 5, 93, 18
6, 0, Pitch_bend_c, 5, 8192
6, 0, Control_c, 5, 93, 28
6, 0, Control_c, 5, 91, 100
6, 0, Control_c, 5, 10, 55
6, 3840, Note_on_c, 5, 63, 52
6, 4740, Note_off_c, 5, 63, 0
6, 4800, Note_on_c, 5, 63, 55
6, 5693, Note_off_c, 5, 63, 0
6, 5760, Note_on_c, 5, 62, 59
6, 6660, Note_off_c, 5, 62, 0
6, 6720, Note_on_c, 5, 60, 62
6, 7620, Note_off_c, 5, 60, 0
6, 7680, Note_on_c, 5, 58, 67
6, 8588, Note_off_c, 5, 58, 0
6, 8640, Note_on_c, 5, 58, 60
6, 10500, Note_off_c, 5, 58, 0
6, 10560, Note_on_c, 5, 56, 53
6, 12435, Note_off_c, 5, 56, 0
6, 12480, Note_on_c, 5, 55, 46
6, 13388, Note_off_c, 5, 55, 0
6, 13440, Note_on_c, 5, 53, 42
6, 14340, Note_off_c, 5, 53, 0
6, 14400, Note_on_c, 5, 58, 39
6, 15300, Note_off_c, 5, 58, 0
6, 30720, Note_on_c, 5, 53, 34
6, 34090, Note_off_c, 5, 53, 0
6, 51840, Note_on_c, 5, 62, 49
6, 52260, Note_off_c, 5, 62, 0
6, 52800, Note_on_c, 5, 62, 56
6, 53220, Note_off_c, 5, 62, 0
6, 53280, Note_on_c, 5, 62, 52
6, 53708, Note_off_c, 5, 62, 0
6, 53760, Note_on_c, 5, 63, 42
6, 54180, Note_off_c, 5, 63, 0
6, 54720, Note_on_c, 5, 63, 53
6, 55140, Note_off_c, 5, 63, 0
6, 55200, Note_on_c, 5, 64, 49
6, 55620, Note_off_c, 5, 64, 0
6, 55680, Note_on_c, 5, 65, 46
6, 56580, Note_off_c, 5, 65, 0
6, 57120, Note_on_c, 5, 53, 52
6, 57533, Note_off_c, 5, 53, 0
6, 57600, Note_on_c, 5, 58, 54
6, 57790, Note_off_c, 5, 58, 0
6, 57840, Note_on_c, 5, 62, 52
6, 58080, Note_off_c, 5, 62, 0
6, 58080, Note_on_c, 5, 60, 50
6, 58320, Note_off_c, 5, 60, 0
6, 58320, Note_on_c, 5, 58, 48
6, 58500, Note_off_c, 5, 58, 0
6, 58800, Note_on_c, 5, 57, 49
6, 59040, Note_off_c, 5, 57, 0
6, 59040, Note_on_c, 5, 55, 47
6, 59280, Note_off_c, 5, 55, 0
6, 59280, Note_on_c, 5, 53, 45
6, 59468, Note_off_c, 5, 53, 0
6, 59520, Note_on_c, 5, 46, 43
6, 60480, Note_off_c, 5, 46, 0
6, 61440, Note_on_c, 5, 61, 36
6, 62333, Note_off_c, 5, 61, 0
6, 62400, Note_on_c, 5, 61, 38
6, 63308, Note_off_c, 5, 61, 0
6, 63360, Note_on_c, 5, 60, 40
6, 64260, Note_off_c, 5, 60, 0
6, 64320, Note_on_c, 5, 60, 42
6, 65220, Note_off_c, 5, 60, 0
6, 65280, Note_on_c, 5, 60, 46
6, 66188, Note_off_c, 5, 60, 0
6, 66240, Note_on_c, 5, 60, 39
6, 67140, Note_off_c, 5, 60, 0
6, 67200, Note_on_c, 5, 60, 50
6, 68100, Note_off_c, 5, 60, 0
6, 68160, Note_on_c, 5, 59, 59
6, 69045, Note_off_c, 5, 59, 0
6, 69120, Note_on_c, 5, 58, 68
6, 70020, Note_off_c, 5, 58, 0
6, 70080, Note_on_c, 5, 58, 64
6, 70980, Note_off_c, 5, 58, 0
6, 71040, Note_on_c, 5, 58, 61
6, 71940, Note_off_c, 5, 58, 0
6, 72000, Note_on_c, 5, 58, 57
6, 72893, Note_off_c, 5, 58, 0
6, 73200, Note_on_c, 5, 63, 54
6, 73440, Note_off_c, 5, 63, 0
6, 73440, Note_on_c, 5, 62, 53
6, 73680, Note_off_c, 5, 62, 0
6, 73680, Note_on_c, 5, 63, 51
6, 73868, Note_off_c, 5, 63, 0
6, 74160, Note_on_c, 5, 61, 49
6, 74400, Note_off_c, 5, 61, 0
6, 74400, Note_on_c, 5, 60, 48
6, 74640, Note_off_c, 5, 60, 0
6, 74640, Note_on_c, 5, 61, 47
6, 74828, Note_off_c, 5, 61, 0
6, 75120, Note_on_c, 5, 60, 48
6, 75360, Note_off_c, 5, 60, 0
6, 75360, Note_on_c, 5, 59, 51
6, 75600, Note_off_c, 5, 59, 0
6, 75600, Note_on_c, 5, 60, 53
6, 75788, Note_off_c, 5, 60, 0
6, 76080, Note_on_c, 5, 59, 59
6, 76320, Note_off_c, 5, 59, 0
6, 76320, Note_on_c, 5, 58, 60
6, 76560, Note_off_c, 5, 58, 0
6, 76560, Note_on_c, 5, 59, 64
6, 76740, Note_off_c, 5, 59, 0
6, 76800, Note_on_c, 5, 58, 75
6, 77708, Note_off_c, 5, 58, 0
6, 77760, Note_on_c, 5, 58, 55
6, 78660, Note_off_c, 5, 58, 0
6, 78720, Note_on_c, 5, 58, 64
6, 79620, Note_off_c, 5, 58, 0
6, 79680, Note_on_c, 5, 58, 47
6, 80588, Note_off_c, 5, 58, 0
6, 80640, Note_on_c, 5, 58, 51
6, 81540, Note_off_c, 5, 58, 0
6, 81600, Note_on_c, 5, 58, 38
6, 82560, Note_off_c, 5, 58, 0
6, 99840, Note_on_c, 5, 58, 52
6, 103210, Note_off_c, 5, 58, 0
6, 118980, Control_c, 5, 64, 0
6, 120960, Note_on_c, 5, 67, 77
6, 121388, Note_off_c, 5, 67, 0
6, 121920, Note_on_c, 5, 67, 59
6, 122300, Note_off_c, 5, 67, 0
6, 122400, Note_on_c, 5, 67, 58
6, 122780, Note_off_c, 5, 67, 0
6, 122880, Note_on_c, 5, 68, 56
6, 123248, Note_off_c, 5, 68, 0
6, 123840, Note_on_c, 5, 68, 72
6, 124220, Note_off_c, 5, 68, 0
6, 124320, Note_on_c, 5, 69, 70
6, 124700, Note_off_c, 5, 69, 0
6, 126240, Note_on_c, 5, 58, 59
6, 126620, Note_off_c, 5, 58, 0
6, 126720, Note_on_c, 5, 63, 54
6, 126910, Note_off_c, 5, 63, 0
6, 126960, Note_on_c, 5, 67, 52
6, 127200, Note_off_c, 5, 67, 0
6, 127200, Note_on_c, 5, 65, 51
6, 127440, Note_off_c, 5, 65, 0
6, 127440, Note_on_c, 5, 63, 49
6, 127643, Note_off_c, 5, 63, 0
6, 127920, Note_on_c, 5, 62, 51
6, 128160, Note_off_c, 5, 62, 0
6, 128160, Note_on_c, 5, 60, 48
6, 128400, Note_off_c, 5, 60, 0
6, 128400, Note_on_c, 5, 58, 47
6, 128610, Note_off_c, 5, 58, 0
6, 128640, Note_on_c, 5, 51, 45
6, 129600, Note_off_c, 5, 51, 0
6, 130560, Note_on_c, 5, 63, 44
6, 131468, Note_off_c, 5, 63, 0
6, 131520, Note_on_c, 5, 63, 46
6, 132420, Note_off_c, 5, 63, 0
6, 132480, Note_on_c, 5, 62, 49
6, 133388, Note_off_c, 5, 62, 0
6, 133440, Note_on_c, 5, 60, 52
6, 134340, Note_off_c, 5, 60, 0
6, 134400, Note_on_c, 5, 58, 57
6, 135300, Note_off_c, 5, 58, 0
6, 135360, Note_on_c, 5, 62, 50
6, 136253, Note_off_c, 5, 62, 0
6, 136320, Note_on_c, 5, 63, 45
6, 136800, Note_off_c, 5, 63, 0
6, 137280, Note_on_c, 5, 56, 40
6, 137660, Note_off_c, 5, 56, 0
6, 138720, Note_on_c, 5, 46, 33
6, 139100, Note_off_c, 5, 46, 0
6, 139200, Note_on_c, 5, 46, 31
6, 139580, Note_off_c, 5, 46, 0
6, 139680, Note_on_c, 5, 46, 28
6, 140060, Note_off_c, 5, 46, 0
6, 140160, Note_on_c, 5, 51, 26
6, 141600, Note_off_c, 5, 51, 0
6, 143040, Control_c, 5, 64, 0
6, 144000, Note_on_c, 5, 62, 55
6, 144156, Note_off_c, 5, 62, 0
6, 144480, Note_on_c, 5, 62, 52
6, 144636, Note_off_c, 5, 62, 0
6, 144960, Note_on_c, 5, 63, 49
6, 145320, Note_off_c, 5, 63, 0
6, 146880, Note_on_c, 5, 63, 58
6, 147036, Note_off_c, 5, 63, 0
6, 147360, Note_on_c, 5, 63, 54
6, 147516, Note_off_c, 5, 63, 0
6, 147840, Note_on_c, 5, 62, 51
6, 148200, Note_off_c, 5, 62, 0
6, 148800, Note_on_c, 5, 58, 67
6, 149160, Note_off_c, 5, 58, 0
6, 149160, Note_on_c, 5, 60, 72
6, 149256, Note_off_c, 5, 60, 0
6, 149280, Note_on_c, 5, 62, 75
6, 149280, Note_on_c, 5, 53, 75
6, 149520, Note_off_c, 5, 62, 0
6, 149520, Note_on_c, 5, 63, 73
6, 149760, Note_off_c, 5, 63, 0
6, 149760, Note_on_c, 5, 60, 72
6, 150000, Note_off_c, 5, 60, 0
6, 150000, Note_on_c, 5, 57, 72
6, 150240, Note_off_c, 5, 57, 0
6, 150240, Note_on_c, 5, 58, 71
6, 150480, Note_off_c, 5, 58, 0
6, 150480, Note_on_c, 5, 60, 70
6, 150680, Note_off_c, 5, 60, 0
6, 150720, Note_on_c, 5, 62, 70
6, 150960, Note_off_c, 5, 62, 0
6, 150960, Note_on_c, 5, 63, 69
6, 151200, Note_off_c, 5, 63, 0
6, 151200, Note_on_c, 5, 60, 68
6, 151440, Note_off_c, 5, 60, 0
6, 151440, Note_on_c, 5, 57, 68
6, 151680, Note_off_c, 5, 57, 0
6, 151680, Note_on_c, 5, 58, 67
6, 151920, Note_off_c, 5, 58, 0
6, 152160, Note_off_c, 5, 53, 0
6, 152160, Note_on_c, 5, 62, 66
6, 152544, Note_off_c, 5, 62, 0
6, 155520, Note_on_c, 5, 48, 65
6, 155676, Note_off_c, 5, 48, 0
6, 156000, Note_on_c, 5, 48, 62
6, 156156, Note_off_c, 5, 48, 0
6, 156480, Note_on_c, 5, 53, 60
6, 156673, Note_off_c, 5, 53, 0
6, 156960, Note_on_c, 5, 41, 53
6, 157153, Note_off_c, 5, 41, 0
6, 157440, Note_on_c, 5, 70, 55
6, 157800, Note_off_c, 5, 70, 0
6, 157800, Note_on_c, 5, 69, 59
6, 157896, Note_off_c, 5, 69, 0
6, 157920, Note_on_c, 5, 69, 60
6, 158400, Note_off_c, 5, 69, 0
6, 158400, Note_on_c, 5, 65, 57
6, 158880, Note_off_c, 5, 65, 0
6, 158880, Note_on_c, 5, 70, 65
6, 159240, Note_off_c, 5, 70, 0
6, 159240, Note_on_c, 5, 69, 69
6, 159336, Note_off_c, 5, 69, 0
6, 159360, Note_on_c, 5, 69, 70
6, 159840, Note_off_c, 5, 69, 0
6, 159840, Note_on_c, 5, 53, 63
6, 160280, Note_off_c, 5, 53, 0
6, 160320, Note_on_c, 5, 53, 79
6, 160320, Note_on_c, 5, 65, 79
6, 160680, Note_off_c, 5, 53, 0
6, 160680, Note_off_c, 5, 65, 0
6, 160800, Note_on_c, 5, 52, 83
6, 160800, Note_on_c, 5, 64, 83
6, 161155, Note_off_c, 5, 64, 0
6, 161160, Note_off_c, 5, 52, 0
6, 161280, Note_on_c, 5, 51, 81
6, 161280, Note_on_c, 5, 63, 81
6, 161635, Note_off_c, 5, 63, 0
6, 161640, Note_off_c, 5, 51, 0
6, 161760, Note_on_c, 5, 50, 79
6, 161760, Note_on_c, 5, 62, 79
6, 162115, Note_off_c, 5, 62, 0
6, 162120, Note_off_c, 5, 50, 0
6, 162240, Note_on_c, 5, 43, 76
6, 162240, Note_on_c, 5, 55, 76
6, 162595, Note_off_c, 5, 43, 0
6, 162600, Note_off_c, 5, 55, 0
6, 162720, Note_on_c, 5, 45, 73
6, 162720, Note_on_c, 5, 57, 73
6, 163080, Note_off_c, 5, 45, 0
6, 163080, Note_off_c, 5, 57, 0
6, 163200, Note_on_c, 5, 46, 71
6, 163200, Note_on_c, 5, 58, 71
6, 163555, Note_off_c, 5, 46, 0
6, 163560, Note_off_c, 5, 58, 0
6, 163680, Note_on_c, 5, 51, 64
6, 164640, Note_off_c, 5, 51, 0
6, 164640, Note_on_c, 5, 52, 61
6, 165060, Note_off_c, 5, 52, 0
6, 165120, Note_on_c, 5, 53, 59
6, 165600, Note_on_c, 5, 51, 57
6, 165605, Note_off_c, 5, 53, 0
6, 166080, Note_off_c, 5, 51, 0
6, 166080, Note_on_c, 5, 50, 55
6, 166500, Note_off_c, 5, 50, 0
6, 166560, Note_on_c, 5, 57, 69
6, 167040, Note_off_c, 5, 57, 0
6, 167040, Note_on_c, 5, 58, 67
6, 167395, Note_off_c, 5, 58, 0
6, 167520, Note_on_c, 5, 52, 65
6, 167870, Note_off_c, 5, 52, 0
6, 168000, Note_on_c, 5, 53, 64
6, 168840, Note_off_c, 5, 53, 0
6, 168960, Note_on_c, 5, 62, 51
6, 169320, Note_off_c, 5, 62, 0
6, 169320, Note_on_c, 5, 63, 53
6, 169416, Note_off_c, 5, 63, 0
6, 169440, Note_on_c, 5, 60, 54
6, 169680, Note_off_c, 5, 60, 0
6, 169680, Note_on_c, 5, 58, 52
6, 169800, Note_off_c, 5, 58, 0
6, 169920, Note_on_c, 5, 58, 51
6, 170076, Note_off_c, 5, 58, 0
6, 170400, Note_on_c, 5, 58, 47
6, 170556, Note_off_c, 5, 58, 0
6, 170880, Note_on_c, 5, 57, 42
6, 171240, Note_off_c, 5, 57, 0
6, 171840, Note_on_c, 5, 63, 51
6, 172200, Note_off_c, 5, 63, 0
6, 172200, Note_on_c, 5, 65, 56
6, 172296, Note_off_c, 5, 65, 0
6, 172320, Note_on_c, 5, 62, 58
6, 172560, Note_off_c, 5, 62, 0
6, 172560, Note_on_c, 5, 60, 56
6, 172680, Note_off_c, 5, 60, 0
6, 172800, Note_on_c, 5, 60, 54
6, 172956, Note_off_c, 5, 60, 0
6, 173280, Note_on_c, 5, 60, 49
6, 173436, Note_off_c, 5, 60, 0
6, 173760, Note_on_c, 5, 58, 45
6, 174120, Note_off_c, 5, 58, 0
6, 174720, Note_on_c, 5, 58, 69
6, 175080, Note_off_c, 5, 58, 0
6, 175080, Note_on_c, 5, 60, 73
6, 175180, Note_off_c, 5, 60, 0
6, 175200, Note_on_c, 5, 62, 75
6, 175200, Note_on_c, 5, 53, 75
6, 175440, Note_off_c, 5, 62, 0
6, 175440, Note_on_c, 5, 63, 73
6, 175680, Note_off_c, 5, 63, 0
6, 175680, Note_on_c, 5, 60, 72
6, 175920, Note_off_c, 5, 60, 0
6, 175920, Note_on_c, 5, 57, 71
6, 176160, Note_off_c, 5, 57, 0
6, 176160, Note_on_c, 5, 58, 71
6, 176400, Note_off_c, 5, 58, 0
6, 176400, Note_on_c, 5, 60, 70
6, 176600, Note_off_c, 5, 60, 0
6, 176640, Note_on_c, 5, 62, 69
6, 176880, Note_off_c, 5, 62, 0
6, 176880, Note_on_c, 5, 63, 68
6, 177120, Note_off_c, 5, 63, 0
6, 177120, Note_on_c, 5, 60, 68
6, 177360, Note_off_c, 5, 60, 0
6, 177360, Note_on_c, 5, 57, 67
6, 177600, Note_off_c, 5, 53, 0
6, 177600, Note_off_c, 5, 57, 0
6, 177600, Note_on_c, 5, 58, 66
6, 177840, Note_off_c, 5, 58, 0
6, 177840, Note_on_c, 5, 60, 65
6, 178080, Note_off_c, 5, 60, 0
6, 178080, Note_on_c, 5, 62, 64
6, 178464, Note_off_c, 5, 62, 0
6, 181440, Note_on_c, 5, 53, 64
6, 181596, Note_off_c, 5, 53, 0
6, 181920, Note_on_c, 5, 53, 61
6, 182076, Note_off_c, 5, 53, 0
6, 182400, Note_on_c, 5, 58, 58
6, 182593, Note_off_c, 5, 58, 0
6, 182880, Note_on_c, 5, 46, 52
6, 183073, Note_off_c, 5, 46, 0
6, 184320, Note_on_c, 5, 70, 48
6, 184704, Note_off_c, 5, 70, 0
6, 185760, Note_on_c, 5, 58, 55
6, 186144, Note_off_c, 5, 58, 0
6, 186240, Note_on_c, 5, 55, 65
6, 186624, Note_off_c, 5, 55, 0
6, 186720, Note_on_c, 5, 51, 72
6, 187104, Note_off_c, 5, 51, 0
6, 187200, Note_on_c, 5, 48, 69
6, 187584, Note_off_c, 5, 48, 0
6, 187680, Note_on_c, 5, 53, 67
6, 187993, Note_off_c, 5, 53, 0
6, 188160, Note_on_c, 5, 58, 64
6, 188353, Note_off_c, 5, 58, 0
6, 188640, Note_on_c, 5, 46, 56
6, 188833, Note_off_c, 5, 46, 0
6, 189120, Control_c, 5, 64, 0
6, 195360, Note_on_c, 5, 63, 58
6, 195840, Note_off_c, 5, 63, 0
6, 196320, Note_on_c, 5, 55, 55
6, 196320, Note_on_c, 5, 43, 55
6, 196704, Note_off_c, 5, 55, 0
6, 196704, Note_off_c, 5, 43, 0
6, 196800, Note_on_c, 5, 56, 53
6, 196800, Note_on_c, 5, 44, 53
6, 197184, Note_off_c, 5, 56, 0
6, 197184, Note_off_c, 5, 44, 0
6, 197760, Note_on_c, 5, 58, 50
6, 198144, Note_off_c, 5, 58, 0
6, 198240, Note_on_c, 5, 56, 49
6, 198624, Note_off_c, 5, 56, 0
6, 199200, Note_on_c, 5, 63, 46
6, 199200, Note_on_c, 5, 57, 46
6, 199356, Note_off_c, 5, 63, 0
6, 199360, Note_on_c, 5, 65, 45
6, 199516, Note_off_c, 5, 65, 0
6, 199520, Note_on_c, 5, 67, 45
6, 199660, Note_off_c, 5, 67, 0
6, 199680, Note_off_c, 5, 57, 0
6, 199680, Note_on_c, 5, 58, 44
6, 199680, Note_on_c, 5, 67, 44
6, 200160, Note_off_c, 5, 67, 0
6, 200160, Note_on_c, 5, 65, 40
6, 200540, Note_off_c, 5, 58, 0
6, 200540, Note_off_c, 5, 65, 0
6, 200640, Note_on_c, 5, 58, 45
6, 200875, Note_off_c, 5, 58, 0
6, 201120, Note_on_c, 5, 60, 53
6, 201355, Note_off_c, 5, 60, 0
6, 201600, Note_on_c, 5, 63, 49
6, 201835, Note_off_c, 5, 63, 0
6, 202080, Note_on_c, 5, 63, 55
6, 202315, Note_off_c, 5, 63, 0
6, 202560, Note_on_c, 5, 62, 71
6, 202795, Note_off_c, 5, 62, 0
6, 203040, Note_on_c, 5, 58, 62
6, 203275, Note_off_c, 5, 58, 0
6, 203520, Note_on_c, 5, 58, 53
6, 203755, Note_off_c, 5, 58, 0
6, 204000, Note_on_c, 5, 60, 61
6, 204235, Note_off_c, 5, 60, 0
6, 204480, Note_on_c, 5, 63, 56
6, 204715, Note_off_c, 5, 63, 0
6, 204960, Note_on_c, 5, 63, 60
6, 205195, Note_off_c, 5, 63, 0
6, 205440, Note_on_c, 5, 58, 73
6, 205675, Note_off_c, 5, 58, 0
6, 205920, Note_on_c, 5, 58, 63
6, 206160, Note_off_c, 5, 58, 0
6, 207360, Note_on_c, 5, 50, 51
6, 207673, Note_off_c, 5, 50, 0
6, 207840, Note_on_c, 5, 50, 48
6, 208153, Note_off_c, 5, 50, 0
6, 208800, Note_on_c, 5, 51, 43
6, 209113, Note_off_c, 5, 51, 0
6, 209280, Note_on_c, 5, 52, 40
6, 209593, Note_off_c, 5, 52, 0
6, 209760, Note_on_c, 5, 53, 67
6, 210480, Note_off_c, 5, 53, 0
6, 210720, Note_on_c, 5, 53, 54
6, 211185, Note_off_c, 5, 53, 0
6, 211200, Note_on_c, 5, 58, 45
6, 211393, Note_off_c, 5, 58, 0
6, 211680, Note_on_c, 5, 46, 36
6, 211873, Note_off_c, 5, 46, 0
6, 212160, Control_c, 5, 64, 0
6, 218400, Note_on_c, 5, 63, 58
6, 218880, Note_off_c, 5, 63, 0
6, 219360, Note_on_c, 5, 43, 55
6, 219360, Note_on_c, 5, 55, 55
6, 219744, Note_off_c, 5, 43, 0
6, 219744, Note_off_c, 5, 55, 0
6, 219840, Note_on_c, 5, 44, 53
6, 219840, Note_on_c, 5, 56, 53
6, 220224, Note_off_c, 5, 44, 0
6, 220224, Note_off_c, 5, 56, 0
6, 220800, Note_on_c, 5, 58, 50
6, 221184, Note_off_c, 5, 58, 0
6, 221280, Note_on_c, 5, 56, 49
6, 221664, Note_off_c, 5, 56, 0
6, 222240, Note_on_c, 5, 57, 46
6, 222240, Note_on_c, 5, 63, 46
6, 222396, Note_off_c, 5, 63, 0
6, 222400, Note_on_c, 5, 65, 45
6, 222556, Note_off_c, 5, 65, 0
6, 222560, Note_on_c, 5, 67, 45
6, 222700, Note_off_c, 5, 67, 0
6, 222720, Note_off_c, 5, 57, 0
6, 222720, Note_on_c, 5, 67, 44
6, 222720, Note_on_c, 5, 58, 44
6, 223200, Note_off_c, 5, 67, 0
6, 223200, Note_on_c, 5, 65, 40
6, 223580, Note_off_c, 5, 58, 0
6, 223580, Note_off_c, 5, 65, 0
6, 223680, Note_on_c, 5, 58, 45
6, 223915, Note_off_c, 5, 58, 0
6, 224160, Note_on_c, 5, 60, 53
6, 224395, Note_off_c, 5, 60, 0
6, 224640, Note_on_c, 5, 63, 49
6, 224875, Note_off_c, 5, 63, 0
6, 225120, Note_on_c, 5, 63, 55
6, 225355, Note_off_c, 5, 63, 0
6, 225600, Note_on_c, 5, 62, 71
6, 225835, Note_off_c, 5, 62, 0
6, 226080, Note_on_c, 5, 58, 62
6, 226315, Note_off_c, 5, 58, 0
6, 226560, Note_on_c, 5, 58, 53
6, 226795, Note_off_c, 5, 58, 0
6, 227040, Note_on_c, 5, 60, 61
6, 227275, Note_off_c, 5, 60, 0
6, 227520, Note_on_c, 5, 63, 56
6, 227755, Note_off_c, 5, 63, 0
6, 228000, Note_on_c, 5, 63, 60
6, 228235, Note_off_c, 5, 63, 0
6, 228480, Note_on_c, 5, 58, 73
6, 228715, Note_off_c, 5, 58, 0
6, 228960, Note_on_c, 5, 58, 63
6, 229200, Note_off_c, 5, 58, 0
6, 230400, Note_on_c, 5, 50, 51
6, 230713, Note_off_c, 5, 50, 0
6, 230880, Note_on_c, 5, 50, 48
6, 231193, Note_off_c, 5, 50, 0
6, 231840, Note_on_c, 5, 51, 43
6, 232153, Note_off_c, 5, 51, 0
6, 232320, Note_on_c, 5, 52, 40
6, 232633, Note_off_c, 5, 52, 0
6, 232800, Note_on_c, 5, 53, 67
6, 233520, Note_off_c, 5, 53, 0
6, 233760, Note_on_c, 5, 53, 54
6, 234225, Note_off_c, 5, 53, 0
6, 234240, Note_on_c, 5, 58, 45
6, 234433, Note_off_c, 5, 58, 0
6, 234720, Note_on_c, 5, 46, 36
6, 234913, Note_off_c, 5, 46, 0
6, 235200, Control_c, 5, 64, 0
6, 240960, Note_on_c, 5, 58, 41
6, 241440, Note_off_c, 5, 58, 0
6, 241440, Note_on_c, 5, 59, 75
6, 241440, Note_on_c, 5, 47, 75
6, 244298, Note_off_c, 5, 47, 0
6, 244305, Note_off_c, 5, 59, 0
6, 244320, Note_on_c, 5, 46, 34
6, 244320, Note_on_c, 5, 58, 34
6, 244800, Note_off_c, 5, 46, 0
6, 244800, Note_off_c, 5, 58, 0
6, 245280, Note_on_c, 5, 46, 72
6, 245280, Note_on_c, 5, 58, 72
6, 245400, Note_off_c, 5, 46, 0
6, 245400, Note_off_c, 5, 58, 0
6, 245400, Note_on_c, 5, 47, 74
6, 245400, Note_on_c, 5, 59, 74
6, 245520, Note_off_c, 5, 47, 0
6, 245520, Note_off_c, 5, 59, 0
6, 245520, Note_on_c, 5, 46, 75
6, 245520, Note_on_c, 5, 58, 75
6, 245640, Note_off_c, 5, 46, 0
6, 245640, Note_off_c, 5, 58, 0
6, 245640, Note_on_c, 5, 45, 77
6, 245640, Note_on_c, 5, 57, 77
6, 245760, Note_off_c, 5, 45, 0
6, 245760, Note_off_c, 5, 57, 0
6, 245760, Note_on_c, 5, 46, 79
6, 245760, Note_on_c, 5, 58, 79
6, 246240, Note_off_c, 5, 46, 0
6, 246240, Note_off_c, 5, 58, 0
6, 252960, Note_on_c, 5, 63, 57
6, 253440, Note_off_c, 5, 63, 0
6, 253920, Note_on_c, 5, 55, 53
6, 253920, Note_on_c, 5, 43, 53
6, 254304, Note_off_c, 5, 55, 0
6, 254304, Note_off_c, 5, 43, 0
6, 254400, Note_on_c, 5, 56, 52
6, 254400, Note_on_c, 5, 44, 52
6, 254784, Note_off_c, 5, 56, 0
6, 254784, Note_off_c, 5, 44, 0
6, 255360, Note_on_c, 5, 58, 48
6, 255744, Note_off_c, 5, 58, 0
6, 255840, Note_on_c, 5, 56, 46
6, 256224, Note_off_c, 5, 56, 0
6, 256800, Note_on_c, 5, 57, 43
6, 256800, Note_on_c, 5, 63, 43
6, 256956, Note_off_c, 5, 63, 0
6, 256960, Note_on_c, 5, 65, 42
6, 257116, Note_off_c, 5, 65, 0
6, 257120, Note_on_c, 5, 67, 42
6, 257276, Note_off_c, 5, 67, 0
6, 257280, Note_off_c, 5, 57, 0
6, 257280, Note_on_c, 5, 58, 41
6, 257280, Note_on_c, 5, 67, 41
6, 257760, Note_off_c, 5, 67, 0
6, 257760, Note_on_c, 5, 65, 35
6, 258205, Note_off_c, 5, 58, 0
6, 258205, Note_off_c, 5, 65, 0
6, 264960, Note_on_c, 5, 55, 56
6, 265273, Note_off_c, 5, 55, 0
6, 265440, Note_on_c, 5, 55, 53
6, 265753, Note_off_c, 5, 55, 0
6, 266400, Note_on_c, 5, 56, 46
6, 266713, Note_off_c, 5, 56, 0
6, 266880, Note_on_c, 5, 57, 43
6, 267193, Note_off_c, 5, 57, 0
6, 267360, Note_on_c, 5, 58, 72
6, 268080, Note_off_c, 5, 58, 0
6, 268320, Note_on_c, 5, 58, 59
6, 268800, Note_on_c, 5, 63, 51
6, 268808, Note_off_c, 5, 58, 0
6, 269040, Note_off_c, 5, 63, 0
6, 269280, Note_on_c, 5, 51, 40
6, 269436, Note_off_c, 5, 51, 0
6, 269760, Control_c, 5, 64, 0
6, 270720, Note_on_c, 5, 62, 55
6, 270876, Note_off_c, 5, 62, 0
6, 271200, Note_on_c, 5, 62, 52
6, 271356, Note_off_c, 5, 62, 0
6, 271680, Note_on_c, 5, 63, 49
6, 272040, Note_off_c, 5, 63, 0
6, 273600, Note_on_c, 5, 63, 58
6, 273756, Note_off_c, 5, 63, 0
6, 274080, Note_on_c, 5, 63, 54
6, 274236, Note_off_c, 5, 63, 0
6, 274560, Note_on_c, 5, 62, 51
6, 274920, Note_off_c, 5, 62, 0
6, 275520, Note_on_c, 5, 58, 67
6, 275880, Note_off_c, 5, 58, 0
6, 275880, Note_on_c, 5, 60, 72
6, 275976, Note_off_c, 5, 60, 0
6, 276000, Note_on_c, 5, 53, 75
6, 276000, Note_on_c, 5, 62, 75
6, 276240, Note_off_c, 5, 62, 0
6, 276240, Note_on_c, 5, 63, 73
6, 276480, Note_off_c, 5, 63, 0
6, 276480, Note_on_c, 5, 60, 72
6, 276720, Note_off_c, 5, 60, 0
6, 276720, Note_on_c, 5, 57, 72
6, 276960, Note_off_c, 5, 57, 0
6, 276960, Note_on_c, 5, 58, 71
6, 277200, Note_off_c, 5, 58, 0
6, 277200, Note_on_c, 5, 60, 70
6, 277400, Note_off_c, 5, 60, 0
6, 277440, Note_on_c, 5, 62, 70
6, 277680, Note_off_c, 5, 62, 0
6, 277680, Note_on_c, 5, 63, 69
6, 277920, Note_off_c, 5, 63, 0
6, 277920, Note_on_c, 5, 60, 68
6, 278160, Note_off_c, 5, 60, 0
6, 278160, Note_on_c, 5, 57, 68
6, 278400, Note_off_c, 5, 57, 0
6, 278400, Note_on_c, 5, 58, 67
6, 278640, Note_off_c, 5, 58, 0
6, 278880, Note_off_c, 5, 53, 0
6, 278880, Note_on_c, 5, 62, 66
6, 279264, Note_off_c, 5, 62, 0
6, 282240, Note_on_c, 5, 48, 65
6, 282396, Note_off_c, 5, 48, 0
6, 282720, Note_on_c, 5, 48, 62
6, 282876, Note_off_c, 5, 48, 0
6, 283200, Note_on_c, 5, 53, 60
6, 283393, Note_off_c, 5, 53, 0
6, 283680, Note_on_c, 5, 41, 53
6, 283873, Note_off_c, 5, 41, 0
6, 284160, Note_on_c, 5, 70, 55
6, 284520, Note_off_c, 5, 70, 0
6, 284520, Note_on_c, 5, 69, 59
6, 284616, Note_off_c, 5, 69, 0
6, 284640, Note_on_c, 5, 69, 60
6, 285120, Note_off_c, 5, 69, 0
6, 285120, Note_on_c, 5, 65, 57
6, 285600, Note_off_c, 5, 65, 0
6, 285600, Note_on_c, 5, 70, 65
6, 285960, Note_off_c, 5, 70, 0
6, 285960, Note_on_c, 5, 69, 69
6, 286056, Note_off_c, 5, 69, 0
6, 286080, Note_on_c, 5, 69, 70
6, 286560, Note_off_c, 5, 69, 0
6, 286560, Note_on_c, 5, 53, 63
6, 287000, Note_off_c, 5, 53, 0
6, 287040, Note_on_c, 5, 65, 79
6, 287040, Note_on_c, 5, 53, 79
6, 287400, Note_off_c, 5, 65, 0
6, 287400, Note_off_c, 5, 53, 0
6, 287520, Note_on_c, 5, 64, 83
6, 287520, Note_on_c, 5, 52, 83
6, 287875, Note_off_c, 5, 64, 0
6, 287880, Note_off_c, 5, 52, 0
6, 288000, Note_on_c, 5, 63, 81
6, 288000, Note_on_c, 5, 51, 81
6, 288355, Note_off_c, 5, 63, 0
6, 288360, Note_off_c, 5, 51, 0
6, 288480, Note_on_c, 5, 62, 79
6, 288480, Note_on_c, 5, 50, 79
6, 288835, Note_off_c, 5, 62, 0
6, 288840, Note_off_c, 5, 50, 0
6, 288960, Note_on_c, 5, 55, 76
6, 288960, Note_on_c, 5, 43, 76
6, 289315, Note_off_c, 5, 43, 0
6, 289320, Note_off_c, 5, 55, 0
6, 289440, Note_on_c, 5, 57, 73
6, 289440, Note_on_c, 5, 45, 73
6, 289800, Note_off_c, 5, 57, 0
6, 289800, Note_off_c, 5, 45, 0
6, 289920, Note_on_c, 5, 58, 71
6, 289920, Note_on_c, 5, 46, 71
6, 290275, Note_off_c, 5, 46, 0
6, 290280, Note_off_c, 5, 58, 0
6, 290400, Note_on_c, 5, 51, 64
6, 291360, Note_off_c, 5, 51, 0
6, 291360, Note_on_c, 5, 52, 61
6, 291780, Note_off_c, 5, 52, 0
6, 291840, Note_on_c, 5, 53, 59
6, 292320, Note_on_c, 5, 51, 57
6, 292325, Note_off_c, 5, 53, 0
6, 292800, Note_off_c, 5, 51, 0
6, 292800, Note_on_c, 5, 50, 55
6, 293220, Note_off_c, 5, 50, 0
6, 293280, Note_on_c, 5, 57, 69
6, 293760, Note_off_c, 5, 57, 0
6, 293760, Note_on_c, 5, 58, 67
6, 294115, Note_off_c, 5, 58, 0
6, 294240, Note_on_c, 5, 52, 65
6, 294590, Note_off_c, 5, 52, 0
6, 294720, Note_on_c, 5, 53, 64
6, 295560, Note_off_c, 5, 53, 0
6, 295680, Note_on_c, 5, 62, 51
6, 296040, Note_off_c, 5, 62, 0
6, 296040, Note_on_c, 5, 63, 53
6, 296136, Note_off_c, 5, 63, 0
6, 296160, Note_on_c, 5, 60, 54
6, 296400, Note_off_c, 5, 60, 0
6, 296400, Note_on_c, 5, 58, 52
6, 296520, Note_off_c, 5, 58, 0
6, 296640, Note_on_c, 5, 58, 51
6, 296796, Note_off_c, 5, 58, 0
6, 297120, Note_on_c, 5, 58, 47
6, 297276, Note_off_c, 5, 58, 0
6, 297600, Note_on_c, 5, 57, 42
6, 297960, Note_off_c, 5, 57, 0
6, 298560, Note_on_c, 5, 63, 51
6, 298920, Note_off_c, 5, 63, 0
6, 298920, Note_on_c, 5, 65, 56
6, 299016, Note_off_c, 5, 65, 0
6, 299040, Note_on_c, 5, 62, 58
6, 299280, Note_off_c, 5, 62, 0
6, 299280, Note_on_c, 5, 60, 56
6, 299400, Note_off_c, 5, 60, 0
6, 299520, Note_on_c, 5, 60, 54
6, 299676, Note_off_c, 5, 60, 0
6, 300000, Note_on_c, 5, 60, 49
6, 300156, Note_off_c, 5, 60, 0
6, 300480, Note_on_c, 5, 58, 45
6, 300840, Note_off_c, 5, 58, 0
6, 301440, Note_on_c, 5, 58, 69
6, 301800, Note_off_c, 5, 58, 0
6, 301800, Note_on_c, 5, 60, 73
6, 301900, Note_off_c, 5, 60, 0
6, 301920, Note_on_c, 5, 53, 75
6, 301920, Note_on_c, 5, 62, 75
6, 302160, Note_off_c, 5, 62, 0
6, 302160, Note_on_c, 5, 63, 73
6, 302400, Note_off_c, 5, 63, 0
6, 302400, Note_on_c, 5, 60, 72
6, 302640, Note_off_c, 5, 60, 0
6, 302640, Note_on_c, 5, 57, 71
6, 302880, Note_off_c, 5, 57, 0
6, 302880, Note_on_c, 5, 58, 71
6, 303120, Note_off_c, 5, 58, 0
6, 303120, Note_on_c, 5, 60, 70
6, 303320, Note_off_c, 5, 60, 0
6, 303360, Note_on_c, 5, 62, 69
6, 303600, Note_off_c, 5, 62, 0
6, 303600, Note_on_c, 5, 63, 68
6, 303840, Note_off_c, 5, 63, 0
6, 303840, Note_on_c, 5, 60, 68
6, 304080, Note_off_c, 5, 60, 0
6, 304080, Note_on_c, 5, 57, 67
6, 304320, Note_off_c, 5, 53, 0
6, 304320, Note_off_c, 5, 57, 0
6, 304320, Note_on_c, 5, 58, 66
6, 304560, Note_off_c, 5, 58, 0
6, 304560, Note_on_c, 5, 60, 65
6, 304800, Note_off_c, 5, 60, 0
6, 304800, Note_on_c, 5, 62, 64
6, 305184, Note_off_c, 5, 62, 0
6, 308160, Note_on_c, 5, 53, 64
6, 308316, Note_off_c, 5, 53, 0
6, 308640, Note_on_c, 5, 53, 61
6, 308796, Note_off_c, 5, 53, 0
6, 309120, Note_on_c, 5, 58, 58
6, 309313, Note_off_c, 5, 58, 0
6, 309600, Note_on_c, 5, 46, 52
6, 309793, Note_off_c, 5, 46, 0
6, 311040, Note_on_c, 5, 70, 48
6, 311424, Note_off_c, 5, 70, 0
6, 312480, Note_on_c, 5, 58, 55
6, 312864, Note_off_c, 5, 58, 0
6, 312960, Note_on_c, 5, 55, 65
6, 313344, Note_off_c, 5, 55, 0
6, 313440, Note_on_c, 5, 51, 72
6, 313824, Note_off_c, 5, 51, 0
6, 313920, Note_on_c, 5, 48, 69
6, 314304, Note_off_c, 5, 48, 0
6, 314400, Note_on_c, 5, 53, 67
6, 314713, Note_off_c, 5, 53, 0
6, 314880, Note_on_c, 5, 58, 64
6, 315073, Note_off_c, 5, 58, 0
6, 315360, Note_on_c, 5, 46, 56
6, 315553, Note_off_c, 5, 46, 0
6, 315840, Control_c, 5, 64, 0
6, 318480, Note_on_c, 5, 63, 44
6, 318624, Note_off_c, 5, 63, 0
6, 318720, Note_on_c, 5, 63, 45
6, 318936, Note_off_c, 5, 63, 0
6, 319440, Note_on_c, 5, 62, 47
6, 319584, Note_off_c, 5, 62, 0
6, 319680, Note_on_c, 5, 62, 48
6, 319896, Note_off_c, 5, 62, 0
6, 320160, Note_on_c, 5, 63, 53
6, 320316, Note_off_c, 5, 63, 0
6, 320400, Note_on_c, 5, 55, 51
6, 320556, Note_off_c, 5, 55, 0
6, 320640, Note_on_c, 5, 56, 49
6, 320796, Note_off_c, 5, 56, 0
6, 320880, Note_on_c, 5, 58, 47
6, 321036, Note_off_c, 5, 58, 0
6, 321120, Note_on_c, 5, 60, 45
6, 321276, Note_off_c, 5, 60, 0
6, 321360, Note_on_c, 5, 62, 43
6, 321516, Note_off_c, 5, 62, 0
6, 321600, Note_on_c, 5, 63, 41
6, 321756, Note_off_c, 5, 63, 0
6, 322320, Note_on_c, 5, 63, 67
6, 322464, Note_off_c, 5, 63, 0
6, 322560, Note_on_c, 5, 63, 68
6, 322776, Note_off_c, 5, 63, 0
6, 323280, Note_on_c, 5, 62, 71
6, 323424, Note_off_c, 5, 62, 0
6, 323520, Note_on_c, 5, 62, 71
6, 323736, Note_off_c, 5, 62, 0
6, 324000, Note_on_c, 5, 63, 75
6, 324156, Note_off_c, 5, 63, 0
6, 324240, Note_on_c, 5, 67, 72
6, 324396, Note_off_c, 5, 67, 0
6, 324480, Note_on_c, 5, 65, 70
6, 324636, Note_off_c, 5, 65, 0
6, 324720, Note_on_c, 5, 63, 68
6, 324876, Note_off_c, 5, 63, 0
6, 324960, Note_on_c, 5, 58, 65
6, 325116, Note_off_c, 5, 58, 0
6, 325440, Note_on_c, 5, 58, 57
6, 325596, Note_off_c, 5, 58, 0
6, 329760, Note_on_c, 5, 58, 56
6, 330240, Note_off_c, 5, 58, 0
6, 330240, Note_on_c, 5, 62, 62
6, 330720, Note_off_c, 5, 62, 0
6, 330720, Note_on_c, 5, 63, 70
6, 331200, Note_off_c, 5, 63, 0
6, 331440, Note_on_c, 5, 51, 63
6, 331596, Note_off_c, 5, 51, 0
6, 331680, Note_on_c, 5, 53, 60
6, 332044, Note_off_c, 5, 53, 0
6, 332160, Note_on_c, 5, 53, 50
6, 332280, Note_off_c, 5, 53, 0
6, 332280, Note_on_c, 5, 55, 49
6, 332400, Note_off_c, 5, 55, 0
6, 332400, Note_on_c, 5, 51, 47
6, 332520, Note_off_c, 5, 51, 0
6, 332520, Note_on_c, 5, 53, 46
6, 332621, Note_off_c, 5, 53, 0
6, 332640, Note_on_c, 5, 50, 44
6, 333120, Note_off_c, 5, 50, 0
6, 333360, Note_on_c, 5, 62, 49
6, 333501, Note_off_c, 5, 62, 0
6, 333600, Note_on_c, 5, 63, 53
6, 333813, Note_off_c, 5, 63, 0
6, 334320, Note_on_c, 5, 63, 58
6, 334461, Note_off_c, 5, 63, 0
6, 334560, Note_on_c, 5, 65, 63
6, 334773, Note_off_c, 5, 65, 0
6, 335280, Note_on_c, 5, 65, 66
6, 335421, Note_off_c, 5, 65, 0
6, 335520, Note_on_c, 5, 67, 72
6, 335733, Note_off_c, 5, 67, 0
6, 336240, Note_on_c, 5, 67, 74
6, 336381, Note_off_c, 5, 67, 0
6, 340800, Note_on_c, 5, 62, 47
6, 341184, Note_off_c, 5, 62, 0
6, 341760, Note_on_c, 5, 63, 56
6, 342144, Note_off_c, 5, 63, 0
6, 342720, Note_on_c, 5, 65, 65
6, 343104, Note_off_c, 5, 65, 0
6, 343680, Note_on_c, 5, 67, 74
6, 344064, Note_off_c, 5, 67, 0
6, 352080, Note_on_c, 5, 63, 87
6, 352200, Note_off_c, 5, 63, 0
6, 352320, Note_on_c, 5, 60, 81
6, 352440, Note_off_c, 5, 60, 0
6, 352560, Note_on_c, 5, 65, 75
6, 352680, Note_off_c, 5, 65, 0
6, 352800, Note_on_c, 5, 58, 68
6, 353280, Note_off_c, 5, 58, 0
6, 354000, Note_on_c, 5, 51, 80
6, 354120, Note_off_c, 5, 51, 0
6, 354240, Note_on_c, 5, 48, 77
6, 354360, Note_off_c, 5, 48, 0
6, 354480, Note_on_c, 5, 53, 74
6, 354600, Note_off_c, 5, 53, 0
6, 354720, Note_on_c, 5, 58, 71
6, 354840, Note_off_c, 5, 58, 0
6, 354960, Note_on_c, 5, 53, 62
6, 355080, Note_off_c, 5, 53, 0
6, 355200, Note_on_c, 5, 46, 46
6, 355320, Note_off_c, 5, 46, 0
6, 355920, Note_on_c, 5, 53, 49
6, 356076, Note_off_c, 5, 53, 0
6, 356160, Note_on_c, 5, 53, 50
6, 356400, Note_off_c, 5, 53, 0
6, 356880, Note_on_c, 5, 52, 53
6, 357036, Note_off_c, 5, 52, 0
6, 357120, Note_on_c, 5, 52, 54
6, 357360, Note_off_c, 5, 52, 0
6, 357840, Note_on_c, 5, 65, 69
6, 357996, Note_off_c, 5, 65, 0
6, 358080, Note_on_c, 5, 67, 71
6, 358236, Note_off_c, 5, 67, 0
6, 358320, Note_on_c, 5, 70, 72
6, 358476, Note_off_c, 5, 70, 0
6, 358560, Note_on_c, 5, 68, 74
6, 358716, Note_off_c, 5, 68, 0
6, 358800, Note_on_c, 5, 64, 75
6, 358956, Note_off_c, 5, 64, 0
6, 359040, Note_on_c, 5, 65, 77
6, 359196, Note_off_c, 5, 65, 0
6, 359760, Note_on_c, 5, 51, 38
6, 359904, Note_off_c, 5, 51, 0
6, 360000, Note_on_c, 5, 51, 39
6, 360216, Note_off_c, 5, 51, 0
6, 360720, Note_on_c, 5, 50, 42
6, 360876, Note_off_c, 5, 50, 0
6, 360960, Note_on_c, 5, 50, 43
6, 361194, Note_off_c, 5, 50, 0
6, 361680, Note_on_c, 5, 63, 59
6, 361836, Note_off_c, 5, 63, 0
6, 361920, Note_on_c, 5, 65, 61
6, 362076, Note_off_c, 5, 65, 0
6, 362160, Note_on_c, 5, 68, 62
6, 362316, Note_off_c, 5, 68, 0
6, 362400, Note_on_c, 5, 67, 64
6, 362556, Note_off_c, 5, 67, 0
6, 362640, Note_on_c, 5, 62, 65
6, 362796, Note_off_c, 5, 62, 0
6, 362880, Note_on_c, 5, 63, 67
6, 363036, Note_off_c, 5, 63, 0
6, 363120, Note_on_c, 5, 51, 44
6, 363240, Note_off_c, 5, 51, 0
6, 363360, Note_on_c, 5, 51, 45
6, 364080, Note_off_c, 5, 51, 0
6, 364080, Note_on_c, 5, 63, 47
6, 364200, Note_off_c, 5, 63, 0
6, 364320, Note_on_c, 5, 63, 48
6, 365040, Note_off_c, 5, 63, 0
6, 365040, Note_on_c, 5, 39, 66
6, 365040, Note_on_c, 5, 51, 66
6, 365160, Note_off_c, 5, 39, 0
6, 365160, Note_off_c, 5, 51, 0
6, 365280, Note_on_c, 5, 51, 67
6, 365280, Note_on_c, 5, 39, 67
6, 366000, Note_off_c, 5, 51, 0
6, 366000, Note_off_c, 5, 39, 0
6, 366000, Note_on_c, 5, 63, 70
6, 366000, Note_on_c, 5, 51, 70
6, 366120, Note_off_c, 5, 63, 0
6, 366120, Note_off_c, 5, 51, 0
6, 366240, Note_on_c, 5, 63, 71
6, 366240, Note_on_c, 5, 51, 71
6, 366960, Note_off_c, 5, 63, 0
6, 366960, Note_off_c, 5, 51, 0
6, 366960, Note_on_c, 5, 53, 48
6, 367080, Note_off_c, 5, 53, 0
6, 367200, Note_on_c, 5, 53, 50
6, 367920, Note_off_c, 5, 53, 0
6, 367920, Note_on_c, 5, 65, 55
6, 368040, Note_off_c, 5, 65, 0
6, 368160, Note_on_c, 5, 65, 56
6, 368880, Note_off_c, 5, 65, 0
6, 368880, Note_on_c, 5, 41, 72
6, 368880, Note_on_c, 5, 53, 72
6, 369000, Note_off_c, 5, 41, 0
6, 369000, Note_off_c, 5, 53, 0
6, 369120, Note_on_c, 5, 41, 73
6, 369120, Note_on_c, 5, 53, 73
6, 369840, Note_off_c, 5, 41, 0
6, 369840, Note_off_c, 5, 53, 0
6, 369840, Note_on_c, 5, 53, 77
6, 369840, Note_on_c, 5, 65, 77
6, 369960, Note_off_c, 5, 53, 0
6, 369960, Note_off_c, 5, 65, 0
6, 370080, Note_on_c, 5, 53, 78
6, 370080, Note_on_c, 5, 65, 78
6, 370800, Note_off_c, 5, 53, 0
6, 370800, Note_off_c, 5, 65, 0
6, 370800, Note_on_c, 5, 65, 72
6, 370980, Note_off_c, 5, 65, 0
6, 371040, Note_on_c, 5, 63, 73
6, 371220, Note_off_c, 5, 63, 0
6, 371280, Note_on_c, 5, 62, 74
6, 371460, Note_off_c, 5, 62, 0
6, 371520, Note_on_c, 5, 60, 75
6, 371700, Note_off_c, 5, 60, 0
6, 371760, Note_on_c, 5, 59, 76
6, 371940, Note_off_c, 5, 59, 0
6, 372000, Note_on_c, 5, 60, 76
6, 372180, Note_off_c, 5, 60, 0
6, 372240, Note_on_c, 5, 62, 77
6, 372420, Note_off_c, 5, 62, 0
6, 372480, Note_on_c, 5, 63, 78
6, 372660, Note_off_c, 5, 63, 0
6, 372720, Note_on_c, 5, 65, 79
6, 372900, Note_off_c, 5, 65, 0
6, 372960, Note_on_c, 5, 63, 80
6, 373140, Note_off_c, 5, 63, 0
6, 373200, Note_on_c, 5, 62, 81
6, 373380, Note_off_c, 5, 62, 0
6, 373440, Note_on_c, 5, 60, 81
6, 373620, Note_off_c, 5, 60, 0
6, 373680, Note_on_c, 5, 59, 82
6, 373860, Note_off_c, 5, 59, 0
6, 373920, Note_on_c, 5, 60, 84
6, 374100, Note_off_c, 5, 60, 0
6, 374160, Note_on_c, 5, 68, 76
6, 374160, Note_on_c, 5, 56, 76
6, 374280, Note_off_c, 5, 68, 0
6, 374280, Note_off_c, 5, 56, 0
6, 374400, Note_on_c, 5, 55, 69
6, 374400, Note_on_c, 5, 67, 69
6, 374520, Note_off_c, 5, 55, 0
6, 374520, Note_off_c, 5, 67, 0
6, 374880, Note_on_c, 5, 54, 60
6, 375120, Note_off_c, 5, 54, 0
6, 375120, Note_on_c, 5, 55, 57
6, 375360, Note_off_c, 5, 55, 0
6, 375360, Note_on_c, 5, 56, 55
6, 375600, Note_off_c, 5, 56, 0
6, 375600, Note_on_c, 5, 55, 52
6, 375840, Note_off_c, 5, 55, 0
6, 375840, Note_on_c, 5, 54, 49
6, 376080, Note_off_c, 5, 54, 0
6, 376080, Note_on_c, 5, 55, 47
6, 376320, Note_off_c, 5, 55, 0
6, 376320, Note_on_c, 5, 56, 44
6, 376560, Note_off_c, 5, 56, 0
6, 376800, Note_on_c, 5, 55, 46
6, 377040, Note_off_c, 5, 55, 0
6, 377040, Note_on_c, 5, 63, 47
6, 377196, Note_off_c, 5, 63, 0
6, 377280, Note_on_c, 5, 63, 47
6, 377593, Note_off_c, 5, 63, 0
6, 378000, Note_on_c, 5, 62, 49
6, 378156, Note_off_c, 5, 62, 0
6, 378240, Note_on_c, 5, 62, 50
6, 378553, Note_off_c, 5, 62, 0
6, 378720, Note_on_c, 5, 63, 53
6, 378876, Note_off_c, 5, 63, 0
6, 378960, Note_on_c, 5, 55, 51
6, 379116, Note_off_c, 5, 55, 0
6, 379200, Note_on_c, 5, 56, 49
6, 379356, Note_off_c, 5, 56, 0
6, 379440, Note_on_c, 5, 58, 48
6, 379596, Note_off_c, 5, 58, 0
6, 379680, Note_on_c, 5, 60, 46
6, 379836, Note_off_c, 5, 60, 0
6, 379920, Note_on_c, 5, 62, 44
6, 380076, Note_off_c, 5, 62, 0
6, 380160, Note_on_c, 5, 63, 43
6, 380316, Note_off_c, 5, 63, 0
6, 380880, Note_on_c, 5, 63, 67
6, 381036, Note_off_c, 5, 63, 0
6, 381120, Note_on_c, 5, 63, 68
6, 381276, Note_off_c, 5, 63, 0
6, 381840, Note_on_c, 5, 62, 71
6, 381996, Note_off_c, 5, 62, 0
6, 382080, Note_on_c, 5, 62, 71
6, 382236, Note_off_c, 5, 62, 0
6, 382560, Note_on_c, 5, 63, 74
6, 382716, Note_off_c, 5, 63, 0
6, 382800, Note_on_c, 5, 67, 72
6, 382956, Note_off_c, 5, 67, 0
6, 383040, Note_on_c, 5, 65, 70
6, 383196, Note_off_c, 5, 65, 0
6, 383280, Note_on_c, 5, 63, 67
6, 383436, Note_off_c, 5, 63, 0
6, 383520, Note_on_c, 5, 58, 65
6, 383676, Note_off_c, 5, 58, 0
6, 384000, Note_on_c, 5, 58, 40
6, 384240, Note_off_c, 5, 58, 0
6, 388320, Note_on_c, 5, 51, 56
6, 388800, Note_off_c, 5, 51, 0
6, 388800, Note_on_c, 5, 55, 67
6, 389280, Note_off_c, 5, 55, 0
6, 389280, Note_on_c, 5, 56, 79
6, 389760, Note_off_c, 5, 56, 0
6, 390000, Note_on_c, 5, 56, 66
6, 390156, Note_off_c, 5, 56, 0
6, 390240, Note_on_c, 5, 58, 62
6, 390634, Note_off_c, 5, 58, 0
6, 390720, Note_on_c, 5, 58, 47
6, 390840, Note_off_c, 5, 58, 0
6, 390840, Note_on_c, 5, 60, 44
6, 390960, Note_off_c, 5, 60, 0
6, 390960, Note_on_c, 5, 56, 42
6, 391080, Note_off_c, 5, 56, 0
6, 391080, Note_on_c, 5, 58, 39
6, 391178, Note_off_c, 5, 58, 0
6, 391200, Note_on_c, 5, 55, 37
6, 391680, Note_off_c, 5, 55, 0
6, 391920, Note_on_c, 5, 67, 39
6, 392076, Note_off_c, 5, 67, 0
6, 392160, Note_on_c, 5, 68, 40
6, 392473, Note_off_c, 5, 68, 0
6, 392880, Note_on_c, 5, 68, 44
6, 393036, Note_off_c, 5, 68, 0
6, 393120, Note_on_c, 5, 70, 45
6, 393433, Note_off_c, 5, 70, 0
6, 393840, Note_on_c, 5, 70, 49
6, 393996, Note_off_c, 5, 70, 0
6, 394080, Note_on_c, 5, 72, 51
6, 394393, Note_off_c, 5, 72, 0
6, 394800, Note_on_c, 5, 72, 54
6, 394956, Note_off_c, 5, 72, 0
6, 399360, Note_on_c, 5, 55, 55
6, 399673, Note_off_c, 5, 55, 0
6, 400320, Note_on_c, 5, 56, 63
6, 400633, Note_off_c, 5, 56, 0
6, 401280, Note_on_c, 5, 58, 71
6, 401593, Note_off_c, 5, 58, 0
6, 402240, Note_on_c, 5, 60, 79
6, 402553, Note_off_c, 5, 60, 0
6, 410640, Note_on_c, 5, 68, 87
6, 410796, Note_off_c, 5, 68, 0
6, 410880, Note_on_c, 5, 65, 85
6, 411036, Note_off_c, 5, 65, 0
6, 411120, Note_on_c, 5, 70, 83
6, 411276, Note_off_c, 5, 70, 0
6, 411360, Note_on_c, 5, 67, 81
6, 411840, Note_off_c, 5, 67, 0
6, 412560, Note_on_c, 5, 56, 71
6, 412716, Note_off_c, 5, 56, 0
6, 412800, Note_on_c, 5, 53, 69
6, 412956, Note_off_c, 5, 53, 0
6, 413040, Note_on_c, 5, 58, 67
6, 413196, Note_off_c, 5, 58, 0
6, 413280, Note_on_c, 5, 51, 72
6, 413760, Note_off_c, 5, 51, 0
6, 414000, Note_on_c, 5, 58, 81
6, 414156, Note_off_c, 5, 58, 0
6, 414240, Note_on_c, 5, 63, 84
6, 414553, Note_off_c, 5, 63, 0
6, 414960, Note_on_c, 5, 58, 93
6, 415116, Note_off_c, 5, 58, 0
6, 415200, Note_on_c, 5, 63, 96
6, 415680, Note_off_c, 5, 63, 0
6, 416160, End_track
0, 0, End_of_file
