0, 0, Header, 1, 6, 480
1, 0, Start_track
1, 0, Title_t, "Untitled"
1, 0, Time_signature, 3, 2, 24, 8
1, 0, Key_signature, 0, "major"
1, 0, Tempo, 500000
1, 0, Tempo, 500000
1, 0, Tempo, 500000
1, 0, Tempo, 500000
1, 0, Tempo, 500000
1, 0, Marker_t, "Mozart"
1, 1440, Tempo, 428571
1, 1440, Marker_t, "Piano Sonata No.17"
1, 1500, Tempo, 425531
1, 2880, Marker_t, "Bunji Hisamori"
1, 4320, Marker_t, "Narch 2000,  Rev.1"
1, 5720, Tempo, 428571
1, 7160, Tempo, 434782
1, 7200, Tempo, 428571
1, 10040, Tempo, 434782
1, 10080, Tempo, 428571
1, 11460, Tempo, 434782
1, 12920, Tempo, 447761
1, 12960, Tempo, 425531
1, 17240, Tempo, 428571
1, 18680, Tempo, 434782
1, 18720, Tempo, 428571
1, 21560, Tempo, 434782
1, 21600, Tempo, 428571
1, 23000, Tempo, 441176
1, 23040, Tempo, 425531
1, 34520, Tempo, 428571
1, 34560, Tempo, 428571
1, 35960, Tempo, 434782
1, 36000, Tempo, 428571
1, 37400, Tempo, 434782
1, 37440, Tempo, 428571
1, 38840, Tempo, 434782
1, 38880, Tempo, 428571
1, 41720, Tempo, 434782
1, 41760, Tempo, 428571
1, 44600, Tempo, 434782
1, 45600, Tempo, 517241
1, 46080, Tempo, 428571
1, 48920, Tempo, 447761
1, 48960, Tempo, 428571
1, 50360, Tempo, 441176
1, 51735, Tempo, 500000
1, 51840, Tempo, 428571
1, 54680, Tempo, 447761
1, 54720, Tempo, 428571
1, 56120, Tempo, 441176
1, 57480, Tempo, 500000
1, 57600, Tempo, 428571
1, 59000, Tempo, 434782
1, 59040, Tempo, 428571
1, 60440, Tempo, 434782
1, 60480, Tempo, 428571
1, 61880, Tempo, 434782
1, 61920, Tempo, 428571
1, 63320, Tempo, 434782
1, 64760, Tempo, 441176
1, 64800, Tempo, 425531
1, 71960, Tempo, 428571
1, 72000, Tempo, 425531
1, 77720, Tempo, 428571
1, 79160, Tempo, 434782
1, 79200, Tempo, 428571
1, 80600, Tempo, 434782
1, 80640, Tempo, 428571
1, 82040, Tempo, 434782
1, 83440, Tempo, 441176
1, 84920, Tempo, 447761
1, 84960, Tempo, 428571
1, 86360, Tempo, 434782
1, 86400, Tempo, 428571
1, 87800, Tempo, 434782
1, 87840, Tempo, 428571
1, 89240, Tempo, 434782
1, 90680, Tempo, 441176
1, 92120, Tempo, 447761
1, 92160, Tempo, 434782
1, 97880, Tempo, 428571
1, 97920, Tempo, 425531
1, 100760, Tempo, 428571
1, 102200, Tempo, 434782
1, 103640, Tempo, 441176
1, 103680, Tempo, 425531
1, 106520, Tempo, 428571
1, 107960, Tempo, 434782
1, 109400, Tempo, 441176
1, 109440, Tempo, 425531
1, 110840, Tempo, 428571
1, 110880, Tempo, 425531
1, 112280, Tempo, 434782
1, 113280, Tempo, 540540
1, 113760, Tempo, 434782
1, 115160, Tempo, 441176
1, 115200, Tempo, 434782
1, 116600, Tempo, 441176
1, 116640, Tempo, 434782
1, 118040, Tempo, 441176
1, 119480, Tempo, 447761
1, 119520, Tempo, 434782
1, 120920, Tempo, 441176
1, 120960, Tempo, 434782
1, 122360, Tempo, 447761
1, 122400, Tempo, 441176
1, 123800, Tempo, 454545
1, 123840, Tempo, 447761
1, 124320, Tempo, 454545
1, 124560, Tempo, 441176
1, 125240, Tempo, 447761
1, 125280, Tempo, 441176
1, 126680, Tempo, 441176
1, 126720, Tempo, 434782
1, 128120, Tempo, 441176
1, 128160, Tempo, 434782
1, 129560, Tempo, 441176
1, 129600, Tempo, 434782
1, 131000, Tempo, 447761
1, 131040, Tempo, 441176
1, 132440, Tempo, 454545
1, 132480, Tempo, 441176
1, 133880, Tempo, 447761
1, 133920, Tempo, 447761
1, 135320, Tempo, 500000
1, 135360, Tempo, 441176
1, 138200, Tempo, 447761
1, 138240, Tempo, 441176
1, 141080, Tempo, 447761
1, 141120, Tempo, 441176
1, 143960, Tempo, 447761
1, 144000, Tempo, 441176
1, 146840, Tempo, 447761
1, 146880, Tempo, 441176
1, 149720, Tempo, 447761
1, 149760, Tempo, 441176
1, 152600, Tempo, 447761
1, 152640, Tempo, 441176
1, 155480, Tempo, 447761
1, 155520, Tempo, 441176
1, 156920, Tempo, 447761
1, 156960, Tempo, 441176
1, 158360, Tempo, 447761
1, 158400, Tempo, 441176
1, 159800, Tempo, 447761
1, 159840, Tempo, 441176
1, 161240, Tempo, 447761
1, 161280, Tempo, 441176
1, 162680, Tempo, 447761
1, 162720, Tempo, 441176
1, 164120, Tempo, 447761
1, 164160, Tempo, 434782
1, 165560, Tempo, 441176
1, 165600, Tempo, 434782
1, 167000, Tempo, 447761
1, 167040, Tempo, 434782
1, 169880, Tempo, 461538
1, 169920, Tempo, 441176
1, 171200, Tempo, 447761
1, 171320, Tempo, 582524
1, 171360, Tempo, 425531
1, 175640, Tempo, 428571
1, 177080, Tempo, 434782
1, 177120, Tempo, 428571
1, 179960, Tempo, 434782
1, 180000, Tempo, 428571
1, 181380, Tempo, 434782
1, 182840, Tempo, 441176
1, 182880, Tempo, 425531
1, 187160, Tempo, 428571
1, 188600, Tempo, 434782
1, 188640, Tempo, 428571
1, 191480, Tempo, 434782
1, 192920, Tempo, 447761
1, 192960, Tempo, 425531
1, 204440, Tempo, 428571
1, 204480, Tempo, 428571
1, 205880, Tempo, 434782
1, 205920, Tempo, 428571
1, 207320, Tempo, 434782
1, 207360, Tempo, 428571
1, 208760, Tempo, 434782
1, 208800, Tempo, 428571
1, 211640, Tempo, 434782
1, 211680, Tempo, 428571
1, 214520, Tempo, 434782
1, 215520, Tempo, 517241
1, 216000, Tempo, 428571
1, 218840, Tempo, 441176
1, 218880, Tempo, 428571
1, 220280, Tempo, 441176
1, 221640, Tempo, 500000
1, 221760, Tempo, 428571
1, 224600, Tempo, 441176
1, 224640, Tempo, 428571
1, 226040, Tempo, 441176
1, 227280, Tempo, 500000
1, 227520, Tempo, 428571
1, 228920, Tempo, 434782
1, 228960, Tempo, 428571
1, 230360, Tempo, 434782
1, 230400, Tempo, 428571
1, 231800, Tempo, 434782
1, 231840, Tempo, 428571
1, 233240, Tempo, 434782
1, 234680, Tempo, 447761
1, 234720, Tempo, 425531
1, 241880, Tempo, 428571
1, 241920, Tempo, 425531
1, 247640, Tempo, 428571
1, 249080, Tempo, 434782
1, 249120, Tempo, 428571
1, 250520, Tempo, 434782
1, 250560, Tempo, 428571
1, 251960, Tempo, 434782
1, 253400, Tempo, 441176
1, 254840, Tempo, 447761
1, 254880, Tempo, 428571
1, 256280, Tempo, 434782
1, 256320, Tempo, 428571
1, 257720, Tempo, 434782
1, 257760, Tempo, 428571
1, 259160, Tempo, 434782
1, 260600, Tempo, 441176
1, 262040, Tempo, 447761
1, 262080, Tempo, 434782
1, 267800, Tempo, 441176
1, 267840, Tempo, 425531
1, 270680, Tempo, 428571
1, 272120, Tempo, 434782
1, 273560, Tempo, 441176
1, 273600, Tempo, 425531
1, 276440, Tempo, 428571
1, 277880, Tempo, 434782
1, 279320, Tempo, 441176
1, 279360, Tempo, 425531
1, 280760, Tempo, 428571
1, 280800, Tempo, 425531
1, 282200, Tempo, 454545
1, 282240, Tempo, 461538
1, 282720, Tempo, 550458
1, 283200, Tempo, 2400000
1, 283680, Time_signature, 2, 2, 24, 8
1, 284160, Tempo, 500000
1, 284160, Marker_t, "(2) "
1, 287960, Tempo, 500000
1, 288000, Tempo, 500000
1, 291780, Tempo, 508474
1, 291840, Tempo, 500000
1, 295640, Tempo, 500000
1, 295680, Tempo, 500000
1, 299040, Tempo, 508474
1, 299460, Tempo, 517241
1, 299520, Tempo, 500000
1, 300440, Tempo, 508474
1, 300480, Tempo, 500000
1, 301400, Tempo, 508474
1, 301440, Tempo, 500000
1, 301920, Tempo, 535714
1, 302600, Tempo, 545454
1, 302640, Tempo, 571428
1, 302880, Tempo, 582524
1, 303120, Tempo, 1000000
1, 303360, Tempo, 500000
1, 307160, Tempo, 500000
1, 307200, Tempo, 500000
1, 310560, Tempo, 526315
1, 310980, Tempo, 535714
1, 311040, Tempo, 500000
1, 312920, Tempo, 500000
1, 312960, Tempo, 500000
1, 318200, Tempo, 500000
1, 318240, Tempo, 500000
1, 322080, Tempo, 526315
1, 322500, Tempo, 535714
1, 322560, Tempo, 500000
1, 324440, Tempo, 508474
1, 324480, Tempo, 500000
1, 329720, Tempo, 508474
1, 329760, Tempo, 500000
1, 333560, Tempo, 508474
1, 333600, Tempo, 1000000
1, 334080, Tempo, 500000
1, 337880, Tempo, 500000
1, 337920, Tempo, 500000
1, 339780, Tempo, 508474
1, 339840, Tempo, 500000
1, 341280, Tempo, 500000
1, 341700, Tempo, 508474
1, 341760, Tempo, 500000
1, 345560, Tempo, 500000
1, 345600, Tempo, 500000
1, 348920, Tempo, 508474
1, 348960, Tempo, 500000
1, 350840, Tempo, 508474
1, 350880, Tempo, 500000
1, 352760, Tempo, 508474
1, 353220, Tempo, 517241
1, 353280, Tempo, 508474
1, 353760, Tempo, 517241
1, 354680, Tempo, 526315
1, 354720, Tempo, 535714
1, 354960, Tempo, 600000
1, 355080, Tempo, 600000
1, 355430, Tempo, 789473
1, 355430, End_track
2, 0, Start_track
2, 0, Title_t, "Unnamed Track"
2, 0, Control_c, 1, 0, 0
2, 0, Control_c, 1, 32, 0
2, 0, Program_c, 1, 0
2, 0, Control_c, 1, 64, 0
2, 0, Control_c, 1, 10, 73
2, 0, Control_c, 1, 91, 100
2, 0, Control_c, 1, 93, 19
2, 0, Control_c, 1, 1, 0
2, 0, Pitch_bend_c, 1, 8192
2, 0, Control_c, 1, 7, 127
2, 1500, Control_c, 1, 64, 127
2, 1520, Note_on_c, 1, 77, 73
2, 2160, Control_c, 1, 64, 0
2, 2160, Note_on_c, 1, 79, 72
2, 2175, Note_off_c, 1, 77, 0
2, 2280, Note_off_c, 1, 79, 0
2, 2280, Note_on_c, 1, 77, 72
2, 2400, Note_off_c, 1, 77, 0
2, 2400, Note_on_c, 1, 76, 71
2, 2520, Note_off_c, 1, 76, 0
2, 2520, Note_on_c, 1, 77, 71
2, 2640, Note_off_c, 1, 77, 0
2, 2640, Note_on_c, 1, 81, 71
2, 2760, Note_off_c, 1, 81, 0
2, 2760, Note_on_c, 1, 77, 71
2, 2880, Note_off_c, 1, 77, 0
2, 2880, Note_on_c, 1, 72, 70
2, 3487, Note_off_c, 1, 72, 0
2, 3600, Note_on_c, 1, 74, 69
2, 3720, Note_off_c, 1, 74, 0
2, 3720, Note_on_c, 1, 72, 69
2, 3840, Note_off_c, 1, 72, 0
2, 3840, Note_on_c, 1, 71, 68
2, 3960, Note_off_c, 1, 71, 0
2, 3960, Note_on_c, 1, 72, 68
2, 4080, Note_off_c, 1, 72, 0
2, 4080, Note_on_c, 1, 77, 68
2, 4200, Note_off_c, 1, 77, 0
2, 4200, Note_on_c, 1, 72, 68
2, 4320, Note_off_c, 1, 72, 0
2, 4320, Note_on_c, 1, 69, 67
2, 4935, Note_off_c, 1, 69, 0
2, 5040, Note_on_c, 1, 70, 66
2, 5160, Note_off_c, 1, 70, 0
2, 5160, Note_on_c, 1, 69, 66
2, 5280, Note_off_c, 1, 69, 0
2, 5280, Note_on_c, 1, 68, 65
2, 5400, Note_off_c, 1, 68, 0
2, 5400, Note_on_c, 1, 69, 65
2, 5520, Note_off_c, 1, 69, 0
2, 5520, Note_on_c, 1, 72, 65
2, 5640, Note_off_c, 1, 72, 0
2, 5640, Note_on_c, 1, 69, 65
2, 5760, Note_off_c, 1, 69, 0
2, 5760, Note_on_c, 1, 65, 64
2, 6180, Note_off_c, 1, 65, 0
2, 6240, Note_on_c, 1, 65, 48
2, 6720, Note_off_c, 1, 65, 0
2, 6720, Note_on_c, 1, 65, 51
2, 7200, Note_off_c, 1, 65, 0
2, 7200, Note_on_c, 1, 65, 53
2, 9120, Note_off_c, 1, 65, 0
2, 9120, Note_on_c, 1, 70, 46
2, 9600, Note_off_c, 1, 70, 0
2, 9600, Note_on_c, 1, 69, 47
2, 10320, Note_off_c, 1, 69, 0
2, 10320, Note_on_c, 1, 67, 50
2, 10510, Note_off_c, 1, 67, 0
2, 10560, Note_on_c, 1, 74, 50
2, 10800, Note_off_c, 1, 74, 0
2, 10800, Note_on_c, 1, 72, 51
2, 10990, Note_off_c, 1, 72, 0
2, 11040, Note_on_c, 1, 70, 52
2, 11280, Note_off_c, 1, 70, 0
2, 11280, Note_on_c, 1, 69, 52
2, 11470, Note_off_c, 1, 69, 0
2, 11520, Note_on_c, 1, 69, 55
2, 11760, Note_off_c, 1, 69, 0
2, 11760, Note_on_c, 1, 67, 55
2, 11950, Note_off_c, 1, 67, 0
2, 12000, Note_on_c, 1, 65, 54
2, 12060, Note_off_c, 1, 65, 0
2, 12060, Note_on_c, 1, 67, 53
2, 12120, Note_off_c, 1, 67, 0
2, 12120, Note_on_c, 1, 65, 53
2, 12240, Note_off_c, 1, 65, 0
2, 12240, Note_on_c, 1, 64, 52
2, 12430, Note_off_c, 1, 64, 0
2, 12480, Note_on_c, 1, 62, 51
2, 12540, Note_off_c, 1, 62, 0
2, 12540, Note_on_c, 1, 64, 51
2, 12600, Note_off_c, 1, 64, 0
2, 12600, Note_on_c, 1, 62, 51
2, 12720, Note_on_c, 1, 60, 50
2, 12725, Note_off_c, 1, 62, 0
2, 12910, Note_off_c, 1, 60, 0
2, 12960, Control_c, 1, 64, 127
2, 13040, Note_on_c, 1, 77, 67
2, 13680, Control_c, 1, 64, 0
2, 13680, Note_on_c, 1, 79, 66
2, 13695, Note_off_c, 1, 77, 0
2, 13800, Note_off_c, 1, 79, 0
2, 13800, Note_on_c, 1, 77, 66
2, 13920, Note_off_c, 1, 77, 0
2, 13920, Note_on_c, 1, 76, 66
2, 14040, Note_off_c, 1, 76, 0
2, 14040, Note_on_c, 1, 77, 66
2, 14160, Note_off_c, 1, 77, 0
2, 14160, Note_on_c, 1, 81, 65
2, 14280, Note_off_c, 1, 81, 0
2, 14280, Note_on_c, 1, 77, 65
2, 14400, Note_off_c, 1, 77, 0
2, 14400, Note_on_c, 1, 72, 65
2, 15007, Note_off_c, 1, 72, 0
2, 15120, Note_on_c, 1, 74, 64
2, 15240, Note_off_c, 1, 74, 0
2, 15240, Note_on_c, 1, 72, 63
2, 15360, Note_off_c, 1, 72, 0
2, 15360, Note_on_c, 1, 71, 63
2, 15480, Note_off_c, 1, 71, 0
2, 15480, Note_on_c, 1, 72, 63
2, 15600, Note_off_c, 1, 72, 0
2, 15600, Note_on_c, 1, 77, 63
2, 15720, Note_off_c, 1, 77, 0
2, 15720, Note_on_c, 1, 72, 63
2, 15840, Note_off_c, 1, 72, 0
2, 15840, Note_on_c, 1, 69, 62
2, 16440, Note_off_c, 1, 69, 0
2, 16560, Note_on_c, 1, 70, 61
2, 16680, Note_off_c, 1, 70, 0
2, 16680, Note_on_c, 1, 69, 61
2, 16800, Note_off_c, 1, 69, 0
2, 16800, Note_on_c, 1, 68, 61
2, 16920, Note_off_c, 1, 68, 0
2, 16920, Note_on_c, 1, 69, 61
2, 17040, Note_off_c, 1, 69, 0
2, 17040, Note_on_c, 1, 72, 60
2, 17160, Note_off_c, 1, 72, 0
2, 17160, Note_on_c, 1, 69, 60
2, 17280, Note_off_c, 1, 69, 0
2, 17280, Note_on_c, 1, 65, 60
2, 17700, Note_off_c, 1, 65, 0
2, 17760, Note_on_c, 1, 65, 44
2, 18240, Note_off_c, 1, 65, 0
2, 18240, Note_on_c, 1, 65, 47
2, 18720, Note_off_c, 1, 65, 0
2, 18720, Note_on_c, 1, 65, 50
2, 20587, Note_off_c, 1, 65, 0
2, 20640, Note_on_c, 1, 74, 46
2, 21120, Note_off_c, 1, 74, 0
2, 21120, Note_on_c, 1, 72, 48
2, 21480, Note_on_c, 1, 69, 50
2, 21570, Note_off_c, 1, 72, 0
2, 21576, Note_off_c, 1, 69, 0
2, 21600, Note_on_c, 1, 72, 52
2, 21960, Note_on_c, 1, 70, 49
2, 21967, Note_off_c, 1, 72, 0
2, 22080, Note_off_c, 1, 70, 0
2, 22080, Note_on_c, 1, 69, 48
2, 22560, Note_off_c, 1, 69, 0
2, 22560, Note_on_c, 1, 67, 44
2, 23040, Note_off_c, 1, 67, 0
2, 23040, Note_on_c, 1, 65, 45
2, 23460, Note_off_c, 1, 65, 0
2, 23760, Note_on_c, 1, 84, 74
2, 23880, Note_off_c, 1, 84, 0
2, 24000, Note_on_c, 1, 84, 74
2, 24120, Note_off_c, 1, 84, 0
2, 24240, Note_on_c, 1, 84, 74
2, 24360, Note_off_c, 1, 84, 0
2, 24480, Note_on_c, 1, 84, 73
2, 25200, Note_off_c, 1, 84, 0
2, 25200, Note_on_c, 1, 82, 72
2, 25320, Note_off_c, 1, 82, 0
2, 25320, Note_on_c, 1, 81, 72
2, 25440, Note_off_c, 1, 81, 0
2, 25440, Note_on_c, 1, 79, 72
2, 25595, Note_off_c, 1, 79, 0
2, 25680, Note_on_c, 1, 77, 72
2, 25835, Note_off_c, 1, 77, 0
2, 25920, Note_on_c, 1, 77, 71
2, 25980, Note_off_c, 1, 77, 0
2, 25980, Note_on_c, 1, 79, 71
2, 26040, Note_off_c, 1, 79, 0
2, 26040, Note_on_c, 1, 77, 71
2, 26160, Note_on_c, 1, 76, 71
2, 26165, Note_off_c, 1, 77, 0
2, 26350, Note_off_c, 1, 76, 0
2, 26400, Note_on_c, 1, 76, 71
2, 26590, Note_off_c, 1, 76, 0
2, 26640, Note_on_c, 1, 72, 71
2, 26830, Note_off_c, 1, 72, 0
2, 26880, Note_on_c, 1, 72, 70
2, 27070, Note_off_c, 1, 72, 0
2, 27120, Note_on_c, 1, 72, 70
2, 27310, Note_off_c, 1, 72, 0
2, 27360, Note_on_c, 1, 79, 70
2, 27600, Note_off_c, 1, 79, 0
2, 27600, Note_on_c, 1, 81, 69
2, 27680, Note_off_c, 1, 81, 0
2, 27680, Note_on_c, 1, 79, 69
2, 27760, Note_off_c, 1, 79, 0
2, 27760, Note_on_c, 1, 78, 69
2, 27840, Note_off_c, 1, 78, 0
2, 27840, Note_on_c, 1, 79, 69
2, 28030, Note_off_c, 1, 79, 0
2, 28080, Note_on_c, 1, 84, 69
2, 28320, Note_off_c, 1, 84, 0
2, 28320, Note_on_c, 1, 83, 68
2, 28560, Note_off_c, 1, 83, 0
2, 28560, Note_on_c, 1, 84, 68
2, 28752, Note_off_c, 1, 84, 0
2, 28800, Note_on_c, 1, 81, 68
2, 29280, Note_off_c, 1, 81, 0
2, 29280, Note_on_c, 1, 77, 57
2, 29470, Note_off_c, 1, 77, 0
2, 29520, Note_on_c, 1, 84, 57
2, 29640, Note_off_c, 1, 84, 0
2, 29760, Note_on_c, 1, 84, 57
2, 29880, Note_off_c, 1, 84, 0
2, 30000, Note_on_c, 1, 84, 56
2, 30120, Note_off_c, 1, 84, 0
2, 30240, Note_on_c, 1, 84, 56
2, 30960, Note_off_c, 1, 84, 0
2, 30960, Note_on_c, 1, 86, 54
2, 31080, Note_off_c, 1, 86, 0
2, 31080, Note_on_c, 1, 84, 54
2, 31200, Note_off_c, 1, 84, 0
2, 31200, Note_on_c, 1, 82, 54
2, 31320, Note_off_c, 1, 82, 0
2, 31320, Note_on_c, 1, 81, 53
2, 31440, Note_off_c, 1, 81, 0
2, 31440, Note_on_c, 1, 79, 53
2, 31560, Note_off_c, 1, 79, 0
2, 31560, Note_on_c, 1, 77, 53
2, 31656, Note_off_c, 1, 77, 0
2, 31680, Note_on_c, 1, 77, 53
2, 31740, Note_off_c, 1, 77, 0
2, 31740, Note_on_c, 1, 79, 53
2, 31800, Note_off_c, 1, 79, 0
2, 31800, Note_on_c, 1, 77, 53
2, 31920, Note_on_c, 1, 76, 52
2, 31925, Note_off_c, 1, 77, 0
2, 32110, Note_off_c, 1, 76, 0
2, 32160, Note_on_c, 1, 76, 52
2, 32350, Note_off_c, 1, 76, 0
2, 32400, Note_on_c, 1, 72, 51
2, 32590, Note_off_c, 1, 72, 0
2, 32640, Note_on_c, 1, 72, 51
2, 32830, Note_off_c, 1, 72, 0
2, 32880, Note_on_c, 1, 72, 50
2, 33070, Note_off_c, 1, 72, 0
2, 33120, Note_on_c, 1, 79, 50
2, 33360, Note_off_c, 1, 79, 0
2, 33360, Note_on_c, 1, 81, 50
2, 33440, Note_off_c, 1, 81, 0
2, 33440, Note_on_c, 1, 79, 49
2, 33520, Note_off_c, 1, 79, 0
2, 33520, Note_on_c, 1, 78, 49
2, 33600, Note_off_c, 1, 78, 0
2, 33600, Note_on_c, 1, 79, 49
2, 33790, Note_off_c, 1, 79, 0
2, 33840, Note_on_c, 1, 84, 49
2, 34080, Note_off_c, 1, 84, 0
2, 34080, Note_on_c, 1, 83, 48
2, 34320, Note_off_c, 1, 83, 0
2, 34320, Note_on_c, 1, 84, 48
2, 34512, Note_off_c, 1, 84, 0
2, 34560, Note_on_c, 1, 81, 71
2, 34600, Note_off_c, 1, 81, 0
2, 34600, Note_on_c, 1, 82, 71
2, 34640, Note_off_c, 1, 82, 0
2, 34640, Note_on_c, 1, 81, 71
2, 34680, Note_off_c, 1, 81, 0
2, 34680, Note_on_c, 1, 79, 71
2, 34800, Note_off_c, 1, 79, 0
2, 34800, Note_on_c, 1, 81, 71
2, 34920, Note_off_c, 1, 81, 0
2, 34920, Note_on_c, 1, 82, 70
2, 35040, Note_off_c, 1, 82, 0
2, 35040, Note_on_c, 1, 84, 70
2, 35160, Note_off_c, 1, 84, 0
2, 35160, Note_on_c, 1, 82, 70
2, 35280, Note_off_c, 1, 82, 0
2, 35280, Note_on_c, 1, 81, 69
2, 35400, Note_off_c, 1, 81, 0
2, 35400, Note_on_c, 1, 79, 69
2, 35520, Note_off_c, 1, 79, 0
2, 35520, Note_on_c, 1, 77, 69
2, 35640, Note_off_c, 1, 77, 0
2, 35640, Note_on_c, 1, 76, 68
2, 35760, Note_off_c, 1, 76, 0
2, 35760, Note_on_c, 1, 74, 68
2, 35880, Note_off_c, 1, 74, 0
2, 35880, Note_on_c, 1, 72, 68
2, 35976, Note_off_c, 1, 72, 0
2, 36000, Note_on_c, 1, 77, 68
2, 36040, Note_off_c, 1, 77, 0
2, 36040, Note_on_c, 1, 79, 67
2, 36080, Note_off_c, 1, 79, 0
2, 36080, Note_on_c, 1, 77, 67
2, 36120, Note_off_c, 1, 77, 0
2, 36120, Note_on_c, 1, 76, 67
2, 36240, Note_off_c, 1, 76, 0
2, 36240, Note_on_c, 1, 77, 67
2, 36360, Note_off_c, 1, 77, 0
2, 36360, Note_on_c, 1, 79, 67
2, 36480, Note_off_c, 1, 79, 0
2, 36480, Note_on_c, 1, 81, 66
2, 36600, Note_off_c, 1, 81, 0
2, 36600, Note_on_c, 1, 79, 66
2, 36720, Note_off_c, 1, 79, 0
2, 36720, Note_on_c, 1, 77, 66
2, 36840, Note_off_c, 1, 77, 0
2, 36840, Note_on_c, 1, 76, 65
2, 36960, Note_off_c, 1, 76, 0
2, 36960, Note_on_c, 1, 74, 65
2, 37080, Note_off_c, 1, 74, 0
2, 37080, Note_on_c, 1, 72, 65
2, 37200, Note_off_c, 1, 72, 0
2, 37200, Note_on_c, 1, 70, 64
2, 37320, Note_off_c, 1, 70, 0
2, 37320, Note_on_c, 1, 69, 64
2, 37416, Note_off_c, 1, 69, 0
2, 37440, Note_on_c, 1, 74, 64
2, 37480, Note_off_c, 1, 74, 0
2, 37480, Note_on_c, 1, 76, 63
2, 37520, Note_off_c, 1, 76, 0
2, 37520, Note_on_c, 1, 74, 63
2, 37560, Note_off_c, 1, 74, 0
2, 37560, Note_on_c, 1, 72, 63
2, 37680, Note_off_c, 1, 72, 0
2, 37680, Note_on_c, 1, 74, 63
2, 37800, Note_off_c, 1, 74, 0
2, 37800, Note_on_c, 1, 76, 63
2, 37920, Note_off_c, 1, 76, 0
2, 37920, Note_on_c, 1, 77, 62
2, 38040, Note_off_c, 1, 77, 0
2, 38040, Note_on_c, 1, 76, 62
2, 38160, Note_off_c, 1, 76, 0
2, 38160, Note_on_c, 1, 74, 62
2, 38280, Note_off_c, 1, 74, 0
2, 38280, Note_on_c, 1, 72, 61
2, 38400, Note_off_c, 1, 72, 0
2, 38400, Note_on_c, 1, 70, 61
2, 38520, Note_off_c, 1, 70, 0
2, 38520, Note_on_c, 1, 69, 61
2, 38640, Note_off_c, 1, 69, 0
2, 38640, Note_on_c, 1, 67, 60
2, 38760, Note_off_c, 1, 67, 0
2, 38760, Note_on_c, 1, 65, 60
2, 38856, Note_off_c, 1, 65, 0
2, 38880, Note_on_c, 1, 72, 60
2, 39240, Note_off_c, 1, 72, 0
2, 39840, Note_on_c, 1, 76, 63
2, 40200, Note_off_c, 1, 76, 0
2, 40320, Note_on_c, 1, 77, 65
2, 40680, Note_off_c, 1, 77, 0
2, 40800, Note_on_c, 1, 82, 66
2, 41160, Note_off_c, 1, 82, 0
2, 41280, Note_on_c, 1, 81, 68
2, 41640, Note_off_c, 1, 81, 0
2, 41760, Note_on_c, 1, 84, 70
2, 42120, Note_off_c, 1, 84, 0
2, 42720, Note_on_c, 1, 76, 73
2, 43080, Note_off_c, 1, 76, 0
2, 43200, Note_on_c, 1, 77, 75
2, 43560, Note_off_c, 1, 77, 0
2, 43680, Note_on_c, 1, 82, 77
2, 44040, Note_off_c, 1, 82, 0
2, 44160, Note_on_c, 1, 81, 79
2, 44520, Note_off_c, 1, 81, 0
2, 44640, Note_on_c, 1, 84, 80
2, 45000, Note_off_c, 1, 84, 0
2, 45120, Note_on_c, 1, 60, 74
2, 45487, Note_off_c, 1, 60, 0
2, 46080, Note_on_c, 1, 67, 48
2, 46440, Note_off_c, 1, 67, 0
2, 46440, Note_on_c, 1, 64, 49
2, 46560, Note_off_c, 1, 64, 0
2, 46560, Note_on_c, 1, 72, 50
2, 46920, Note_off_c, 1, 72, 0
2, 46920, Note_on_c, 1, 67, 51
2, 47040, Note_off_c, 1, 67, 0
2, 47040, Note_on_c, 1, 76, 52
2, 47400, Note_off_c, 1, 76, 0
2, 47400, Note_on_c, 1, 72, 53
2, 47520, Note_off_c, 1, 72, 0
2, 47520, Note_on_c, 1, 79, 53
2, 47675, Note_off_c, 1, 79, 0
2, 47760, Note_on_c, 1, 79, 54
2, 47915, Note_off_c, 1, 79, 0
2, 48000, Note_on_c, 1, 79, 55
2, 48155, Note_off_c, 1, 79, 0
2, 48240, Note_on_c, 1, 79, 56
2, 48395, Note_off_c, 1, 79, 0
2, 48480, Note_on_c, 1, 79, 57
2, 48635, Note_off_c, 1, 79, 0
2, 48720, Note_on_c, 1, 79, 58
2, 48875, Note_off_c, 1, 79, 0
2, 48960, Note_on_c, 1, 79, 59
2, 49320, Note_off_c, 1, 79, 0
2, 49320, Note_on_c, 1, 76, 60
2, 49440, Note_off_c, 1, 76, 0
2, 49440, Note_on_c, 1, 74, 61
2, 49920, Note_off_c, 1, 74, 0
2, 49920, Note_on_c, 1, 76, 63
2, 50347, Note_off_c, 1, 76, 0
2, 50400, Note_on_c, 1, 79, 66
2, 50880, Note_off_c, 1, 79, 0
2, 50880, Note_on_c, 1, 77, 60
2, 51307, Note_off_c, 1, 77, 0
2, 51840, Note_on_c, 1, 65, 44
2, 52200, Note_off_c, 1, 65, 0
2, 52200, Note_on_c, 1, 62, 46
2, 52320, Note_off_c, 1, 62, 0
2, 52320, Note_on_c, 1, 71, 46
2, 52680, Note_off_c, 1, 71, 0
2, 52680, Note_on_c, 1, 65, 48
2, 52800, Note_off_c, 1, 65, 0
2, 52800, Note_on_c, 1, 74, 48
2, 53160, Note_off_c, 1, 74, 0
2, 53160, Note_on_c, 1, 71, 50
2, 53280, Note_off_c, 1, 71, 0
2, 53280, Note_on_c, 1, 77, 50
2, 53435, Note_off_c, 1, 77, 0
2, 53520, Note_on_c, 1, 77, 51
2, 53675, Note_off_c, 1, 77, 0
2, 53760, Note_on_c, 1, 77, 52
2, 53915, Note_off_c, 1, 77, 0
2, 54000, Note_on_c, 1, 77, 53
2, 54155, Note_off_c, 1, 77, 0
2, 54240, Note_on_c, 1, 77, 54
2, 54395, Note_off_c, 1, 77, 0
2, 54480, Note_on_c, 1, 77, 55
2, 54635, Note_off_c, 1, 77, 0
2, 54720, Note_on_c, 1, 77, 56
2, 55080, Note_off_c, 1, 77, 0
2, 55080, Note_on_c, 1, 74, 58
2, 55200, Note_off_c, 1, 74, 0
2, 55200, Note_on_c, 1, 72, 58
2, 55680, Note_off_c, 1, 72, 0
2, 55680, Note_on_c, 1, 74, 60
2, 56107, Note_off_c, 1, 74, 0
2, 56160, Note_on_c, 1, 77, 64
2, 56640, Note_off_c, 1, 77, 0
2, 56640, Note_on_c, 1, 76, 60
2, 57060, Note_off_c, 1, 76, 0
2, 57600, Note_on_c, 1, 76, 50
2, 57960, Note_off_c, 1, 76, 0
2, 57960, Note_on_c, 1, 74, 51
2, 58056, Note_off_c, 1, 74, 0
2, 58080, Note_on_c, 1, 74, 52
2, 58560, Note_off_c, 1, 74, 0
2, 58560, Note_on_c, 1, 76, 54
2, 58987, Note_off_c, 1, 76, 0
2, 59040, Note_on_c, 1, 79, 59
2, 59400, Note_off_c, 1, 79, 0
2, 59400, Note_on_c, 1, 78, 57
2, 59520, Note_off_c, 1, 78, 0
2, 59520, Note_on_c, 1, 77, 56
2, 60000, Note_off_c, 1, 77, 0
2, 60000, Note_on_c, 1, 76, 54
2, 60427, Note_off_c, 1, 76, 0
2, 60480, Note_on_c, 1, 81, 56
2, 60600, Note_off_c, 1, 81, 0
2, 60600, Note_on_c, 1, 77, 56
2, 60720, Note_off_c, 1, 77, 0
2, 60720, Note_on_c, 1, 81, 57
2, 60840, Note_off_c, 1, 81, 0
2, 60840, Note_on_c, 1, 77, 58
2, 60960, Note_off_c, 1, 77, 0
2, 60960, Note_on_c, 1, 74, 58
2, 61440, Note_off_c, 1, 74, 0
2, 61440, Note_on_c, 1, 76, 61
2, 61860, Note_off_c, 1, 76, 0
2, 61920, Note_on_c, 1, 79, 64
2, 62040, Note_off_c, 1, 79, 0
2, 62040, Note_on_c, 1, 78, 63
2, 62160, Note_off_c, 1, 78, 0
2, 62160, Note_on_c, 1, 81, 62
2, 62280, Note_off_c, 1, 81, 0
2, 62280, Note_on_c, 1, 79, 60
2, 62400, Note_off_c, 1, 79, 0
2, 62400, Note_on_c, 1, 77, 59
2, 62880, Note_off_c, 1, 77, 0
2, 62880, Note_on_c, 1, 76, 56
2, 63307, Note_off_c, 1, 76, 0
2, 63360, Note_on_c, 1, 76, 57
2, 63720, Note_off_c, 1, 76, 0
2, 63720, Note_on_c, 1, 74, 59
2, 63816, Note_off_c, 1, 74, 0
2, 63840, Note_on_c, 1, 81, 60
2, 64560, Note_off_c, 1, 81, 0
2, 64560, Note_on_c, 1, 72, 64
2, 64752, Note_off_c, 1, 72, 0
2, 64800, Note_on_c, 1, 71, 64
2, 65040, Note_off_c, 1, 71, 0
2, 72000, Note_on_c, 1, 72, 70
2, 72240, Note_off_c, 1, 72, 0
2, 72480, Note_on_c, 1, 76, 75
2, 72720, Note_off_c, 1, 76, 0
2, 72960, Note_on_c, 1, 79, 78
2, 73200, Note_off_c, 1, 79, 0
2, 73440, Note_on_c, 1, 84, 81
2, 73632, Note_off_c, 1, 84, 0
2, 73920, Note_on_c, 1, 88, 86
2, 74640, Note_off_c, 1, 88, 0
2, 74640, Note_on_c, 1, 86, 77
2, 74760, Note_off_c, 1, 86, 0
2, 74760, Note_on_c, 1, 84, 76
2, 74880, Note_off_c, 1, 84, 0
2, 74880, Note_on_c, 1, 83, 74
2, 75072, Note_off_c, 1, 83, 0
2, 75360, Note_on_c, 1, 86, 81
2, 75552, Note_off_c, 1, 86, 0
2, 75840, Note_on_c, 1, 89, 93
2, 76560, Note_off_c, 1, 89, 0
2, 76560, Note_on_c, 1, 86, 85
2, 76715, Note_off_c, 1, 86, 0
2, 76800, Note_on_c, 1, 83, 83
2, 76955, Note_off_c, 1, 83, 0
2, 77040, Note_on_c, 1, 79, 81
2, 77195, Note_off_c, 1, 79, 0
2, 77280, Note_on_c, 1, 77, 78
2, 77435, Note_off_c, 1, 77, 0
2, 77520, Note_on_c, 1, 74, 76
2, 77675, Note_off_c, 1, 74, 0
2, 77760, Note_on_c, 1, 76, 74
2, 78000, Note_off_c, 1, 76, 0
2, 78240, Note_on_c, 1, 79, 58
2, 78720, Note_off_c, 1, 79, 0
2, 78720, Note_on_c, 1, 77, 61
2, 79147, Note_off_c, 1, 77, 0
2, 79200, Note_on_c, 1, 76, 65
2, 79680, Note_off_c, 1, 76, 0
2, 79680, Note_on_c, 1, 77, 56
2, 79872, Note_off_c, 1, 77, 0
2, 79920, Note_on_c, 1, 77, 56
2, 80160, Note_off_c, 1, 77, 0
2, 80160, Note_on_c, 1, 81, 58
2, 80400, Note_off_c, 1, 81, 0
2, 80400, Note_on_c, 1, 77, 60
2, 80592, Note_off_c, 1, 77, 0
2, 80640, Note_on_c, 1, 74, 62
2, 81120, Note_off_c, 1, 74, 0
2, 81120, Note_on_c, 1, 76, 54
2, 81312, Note_off_c, 1, 76, 0
2, 81360, Note_on_c, 1, 79, 54
2, 81600, Note_off_c, 1, 79, 0
2, 81600, Note_on_c, 1, 81, 56
2, 81720, Note_off_c, 1, 81, 0
2, 81720, Note_on_c, 1, 79, 56
2, 81840, Note_off_c, 1, 79, 0
2, 81840, Note_on_c, 1, 77, 57
2, 81960, Note_off_c, 1, 77, 0
2, 81960, Note_on_c, 1, 76, 58
2, 82056, Note_off_c, 1, 76, 0
2, 82080, Note_on_c, 1, 73, 58
2, 82200, Note_off_c, 1, 73, 0
2, 82200, Note_on_c, 1, 74, 59
2, 82320, Note_off_c, 1, 74, 0
2, 82560, Note_on_c, 1, 73, 61
2, 82680, Note_off_c, 1, 73, 0
2, 82680, Note_on_c, 1, 74, 61
2, 82800, Note_off_c, 1, 74, 0
2, 83040, Note_on_c, 1, 73, 63
2, 83160, Note_off_c, 1, 73, 0
2, 83160, Note_on_c, 1, 74, 64
2, 83280, Note_off_c, 1, 74, 0
2, 83520, Note_on_c, 1, 81, 67
2, 83680, Note_off_c, 1, 81, 0
2, 83680, Note_on_c, 1, 77, 65
2, 83840, Note_off_c, 1, 77, 0
2, 83840, Note_on_c, 1, 74, 63
2, 83970, Note_off_c, 1, 74, 0
2, 84000, Note_on_c, 1, 72, 61
2, 84480, Note_off_c, 1, 72, 0
2, 84480, Note_on_c, 1, 71, 56
2, 84560, Note_off_c, 1, 71, 0
2, 84560, Note_on_c, 1, 72, 55
2, 84640, Note_off_c, 1, 72, 0
2, 84640, Note_on_c, 1, 71, 53
2, 84720, Note_off_c, 1, 71, 0
2, 84720, Note_on_c, 1, 69, 52
2, 84840, Note_off_c, 1, 69, 0
2, 84840, Note_on_c, 1, 71, 51
2, 84960, Note_off_c, 1, 71, 0
2, 84960, Note_on_c, 1, 72, 49
2, 85372, Note_off_c, 1, 72, 0
2, 86400, Note_on_c, 1, 70, 55
2, 86880, Note_off_c, 1, 70, 0
2, 86880, Note_on_c, 1, 69, 46
2, 87072, Note_off_c, 1, 69, 0
2, 87840, Note_on_c, 1, 68, 53
2, 88320, Note_off_c, 1, 68, 0
2, 88320, Note_on_c, 1, 67, 43
2, 88512, Note_off_c, 1, 67, 0
2, 88560, Note_on_c, 1, 67, 43
2, 88680, Note_off_c, 1, 67, 0
2, 88680, Note_on_c, 1, 66, 43
2, 88800, Note_off_c, 1, 66, 0
2, 88800, Note_on_c, 1, 69, 44
2, 88920, Note_off_c, 1, 69, 0
2, 88920, Note_on_c, 1, 67, 45
2, 89040, Note_off_c, 1, 67, 0
2, 89040, Note_on_c, 1, 65, 45
2, 89160, Note_off_c, 1, 65, 0
2, 89160, Note_on_c, 1, 64, 46
2, 89256, Note_off_c, 1, 64, 0
2, 89280, Note_on_c, 1, 64, 47
2, 89400, Note_off_c, 1, 64, 0
2, 89400, Note_on_c, 1, 62, 48
2, 89520, Note_off_c, 1, 62, 0
2, 89760, Note_on_c, 1, 61, 50
2, 89880, Note_off_c, 1, 61, 0
2, 89880, Note_on_c, 1, 62, 50
2, 90000, Note_off_c, 1, 62, 0
2, 90240, Note_on_c, 1, 61, 52
2, 90360, Note_off_c, 1, 61, 0
2, 90360, Note_on_c, 1, 62, 53
2, 90480, Note_off_c, 1, 62, 0
2, 90720, Note_on_c, 1, 68, 55
2, 90840, Note_off_c, 1, 68, 0
2, 90840, Note_on_c, 1, 69, 54
2, 90960, Note_off_c, 1, 69, 0
2, 90960, Note_on_c, 1, 65, 53
2, 91080, Note_off_c, 1, 65, 0
2, 91080, Note_on_c, 1, 62, 52
2, 91176, Note_off_c, 1, 62, 0
2, 91200, Note_on_c, 1, 60, 50
2, 91680, Note_off_c, 1, 60, 0
2, 91680, Note_on_c, 1, 59, 45
2, 91760, Note_off_c, 1, 59, 0
2, 91760, Note_on_c, 1, 60, 44
2, 91840, Note_off_c, 1, 60, 0
2, 91840, Note_on_c, 1, 59, 43
2, 91920, Note_off_c, 1, 59, 0
2, 91920, Note_on_c, 1, 57, 42
2, 92040, Note_off_c, 1, 57, 0
2, 92040, Note_on_c, 1, 59, 41
2, 92160, Note_off_c, 1, 59, 0
2, 92160, Note_on_c, 1, 60, 42
2, 92580, Note_off_c, 1, 60, 0
2, 92880, Note_on_c, 1, 62, 53
2, 93000, Note_off_c, 1, 62, 0
2, 93120, Note_on_c, 1, 64, 54
2, 93240, Note_off_c, 1, 64, 0
2, 93360, Note_on_c, 1, 65, 54
2, 93480, Note_off_c, 1, 65, 0
2, 93600, Note_on_c, 1, 67, 55
2, 94027, Note_off_c, 1, 67, 0
2, 94320, Note_on_c, 1, 69, 57
2, 94440, Note_off_c, 1, 69, 0
2, 94560, Note_on_c, 1, 70, 57
2, 94680, Note_off_c, 1, 70, 0
2, 94800, Note_on_c, 1, 64, 58
2, 94920, Note_off_c, 1, 64, 0
2, 95040, Note_on_c, 1, 65, 58
2, 95467, Note_off_c, 1, 65, 0
2, 95760, Note_on_c, 1, 64, 60
2, 95880, Note_off_c, 1, 64, 0
2, 96000, Note_on_c, 1, 65, 60
2, 96120, Note_off_c, 1, 65, 0
2, 96240, Note_on_c, 1, 67, 61
2, 96360, Note_off_c, 1, 67, 0
2, 96480, Note_on_c, 1, 69, 61
2, 96900, Note_off_c, 1, 69, 0
2, 97200, Note_on_c, 1, 71, 63
2, 97320, Note_off_c, 1, 71, 0
2, 97440, Note_on_c, 1, 72, 63
2, 97560, Note_off_c, 1, 72, 0
2, 97680, Note_on_c, 1, 69, 64
2, 97800, Note_off_c, 1, 69, 0
2, 97920, Note_on_c, 1, 67, 65
2, 98040, Note_off_c, 1, 67, 0
2, 98040, Note_on_c, 1, 60, 65
2, 98160, Note_off_c, 1, 60, 0
2, 98160, Note_on_c, 1, 62, 65
2, 98280, Note_off_c, 1, 62, 0
2, 98280, Note_on_c, 1, 64, 65
2, 98400, Note_off_c, 1, 64, 0
2, 98400, Note_on_c, 1, 65, 66
2, 98520, Note_off_c, 1, 65, 0
2, 98520, Note_on_c, 1, 67, 66
2, 98640, Note_off_c, 1, 67, 0
2, 98640, Note_on_c, 1, 69, 66
2, 98760, Note_off_c, 1, 69, 0
2, 98760, Note_on_c, 1, 71, 66
2, 98880, Note_off_c, 1, 71, 0
2, 98880, Note_on_c, 1, 72, 67
2, 99000, Note_off_c, 1, 72, 0
2, 99000, Note_on_c, 1, 74, 67
2, 99120, Note_off_c, 1, 74, 0
2, 99120, Note_on_c, 1, 76, 67
2, 99240, Note_off_c, 1, 76, 0
2, 99240, Note_on_c, 1, 77, 68
2, 99360, Note_off_c, 1, 77, 0
2, 99360, Note_on_c, 1, 79, 68
2, 99480, Note_off_c, 1, 79, 0
2, 99480, Note_on_c, 1, 81, 68
2, 99600, Note_off_c, 1, 81, 0
2, 99600, Note_on_c, 1, 77, 68
2, 99720, Note_off_c, 1, 77, 0
2, 99720, Note_on_c, 1, 79, 69
2, 99840, Note_off_c, 1, 79, 0
2, 99840, Note_on_c, 1, 76, 69
2, 99960, Note_off_c, 1, 76, 0
2, 99960, Note_on_c, 1, 77, 69
2, 100080, Note_off_c, 1, 77, 0
2, 100080, Note_on_c, 1, 74, 69
2, 100200, Note_off_c, 1, 74, 0
2, 100200, Note_on_c, 1, 76, 70
2, 100320, Note_off_c, 1, 76, 0
2, 100320, Note_on_c, 1, 72, 70
2, 100440, Note_off_c, 1, 72, 0
2, 100440, Note_on_c, 1, 74, 70
2, 100560, Note_off_c, 1, 74, 0
2, 100560, Note_on_c, 1, 70, 70
2, 100680, Note_off_c, 1, 70, 0
2, 100680, Note_on_c, 1, 72, 71
2, 100800, Note_off_c, 1, 72, 0
2, 100800, Note_on_c, 1, 69, 71
2, 101227, Note_off_c, 1, 69, 0
2, 101280, Note_on_c, 1, 81, 72
2, 101520, Note_off_c, 1, 81, 0
2, 102000, Note_on_c, 1, 81, 74
2, 102192, Note_off_c, 1, 81, 0
2, 102240, Note_on_c, 1, 79, 75
2, 102480, Note_off_c, 1, 79, 0
2, 102480, Note_on_c, 1, 81, 73
2, 102600, Note_off_c, 1, 81, 0
2, 102600, Note_on_c, 1, 77, 71
2, 102696, Note_off_c, 1, 77, 0
2, 102720, Note_on_c, 1, 76, 70
2, 103200, Note_off_c, 1, 76, 0
2, 103200, Note_on_c, 1, 74, 65
2, 103280, Note_off_c, 1, 74, 0
2, 103280, Note_on_c, 1, 76, 65
2, 103360, Note_off_c, 1, 76, 0
2, 103360, Note_on_c, 1, 74, 64
2, 103440, Note_off_c, 1, 74, 0
2, 103440, Note_on_c, 1, 72, 63
2, 103560, Note_off_c, 1, 72, 0
2, 103560, Note_on_c, 1, 74, 62
2, 103680, Note_off_c, 1, 74, 0
2, 103680, Note_on_c, 1, 72, 66
2, 103800, Note_off_c, 1, 72, 0
2, 103800, Note_on_c, 1, 60, 66
2, 103920, Note_off_c, 1, 60, 0
2, 103920, Note_on_c, 1, 62, 67
2, 104040, Note_off_c, 1, 62, 0
2, 104040, Note_on_c, 1, 64, 67
2, 104160, Note_off_c, 1, 64, 0
2, 104160, Note_on_c, 1, 65, 68
2, 104280, Note_off_c, 1, 65, 0
2, 104280, Note_on_c, 1, 67, 68
2, 104400, Note_off_c, 1, 67, 0
2, 104400, Note_on_c, 1, 69, 69
2, 104520, Note_off_c, 1, 69, 0
2, 104520, Note_on_c, 1, 71, 69
2, 104640, Note_off_c, 1, 71, 0
2, 104640, Note_on_c, 1, 72, 70
2, 104760, Note_off_c, 1, 72, 0
2, 104760, Note_on_c, 1, 74, 70
2, 104880, Note_off_c, 1, 74, 0
2, 104880, Note_on_c, 1, 76, 71
2, 105000, Note_off_c, 1, 76, 0
2, 105000, Note_on_c, 1, 77, 71
2, 105120, Note_off_c, 1, 77, 0
2, 105120, Note_on_c, 1, 79, 71
2, 105240, Note_off_c, 1, 79, 0
2, 105240, Note_on_c, 1, 81, 72
2, 105360, Note_off_c, 1, 81, 0
2, 105360, Note_on_c, 1, 77, 72
2, 105480, Note_off_c, 1, 77, 0
2, 105480, Note_on_c, 1, 79, 73
2, 105600, Note_off_c, 1, 79, 0
2, 105600, Note_on_c, 1, 76, 73
2, 105720, Note_off_c, 1, 76, 0
2, 105720, Note_on_c, 1, 77, 74
2, 105840, Note_off_c, 1, 77, 0
2, 105840, Note_on_c, 1, 74, 74
2, 105960, Note_off_c, 1, 74, 0
2, 105960, Note_on_c, 1, 76, 75
2, 106080, Note_off_c, 1, 76, 0
2, 106080, Note_on_c, 1, 72, 75
2, 106200, Note_off_c, 1, 72, 0
2, 106200, Note_on_c, 1, 74, 76
2, 106320, Note_off_c, 1, 74, 0
2, 106320, Note_on_c, 1, 70, 76
2, 106440, Note_off_c, 1, 70, 0
2, 106440, Note_on_c, 1, 72, 77
2, 106560, Note_off_c, 1, 72, 0
2, 106560, Note_on_c, 1, 69, 77
2, 106980, Note_off_c, 1, 69, 0
2, 107040, Note_on_c, 1, 81, 79
2, 107280, Note_off_c, 1, 81, 0
2, 107760, Note_on_c, 1, 81, 82
2, 107952, Note_off_c, 1, 81, 0
2, 108000, Note_on_c, 1, 79, 83
2, 108240, Note_off_c, 1, 79, 0
2, 108240, Note_on_c, 1, 81, 81
2, 108360, Note_off_c, 1, 81, 0
2, 108360, Note_on_c, 1, 77, 80
2, 108456, Note_off_c, 1, 77, 0
2, 108480, Note_on_c, 1, 76, 79
2, 108960, Note_off_c, 1, 76, 0
2, 108960, Note_on_c, 1, 74, 75
2, 109040, Note_off_c, 1, 74, 0
2, 109040, Note_on_c, 1, 76, 74
2, 109120, Note_off_c, 1, 76, 0
2, 109120, Note_on_c, 1, 74, 74
2, 109200, Note_off_c, 1, 74, 0
2, 109200, Note_on_c, 1, 72, 73
2, 109320, Note_off_c, 1, 72, 0
2, 109320, Note_on_c, 1, 74, 72
2, 109440, Note_off_c, 1, 74, 0
2, 109440, Note_on_c, 1, 72, 72
2, 109560, Note_off_c, 1, 72, 0
2, 109560, Note_on_c, 1, 67, 73
2, 109655, Note_off_c, 1, 67, 0
2, 109680, Note_on_c, 1, 72, 73
2, 109775, Note_off_c, 1, 72, 0
2, 109800, Note_on_c, 1, 76, 74
2, 109895, Note_off_c, 1, 76, 0
2, 109920, Note_on_c, 1, 79, 75
2, 110015, Note_off_c, 1, 79, 0
2, 110040, Note_on_c, 1, 76, 75
2, 110135, Note_off_c, 1, 76, 0
2, 110160, Note_on_c, 1, 72, 76
2, 110255, Note_off_c, 1, 72, 0
2, 110280, Note_on_c, 1, 67, 77
2, 110375, Note_off_c, 1, 67, 0
2, 110400, Note_on_c, 1, 77, 78
2, 110495, Note_off_c, 1, 77, 0
2, 110520, Note_on_c, 1, 74, 78
2, 110615, Note_off_c, 1, 74, 0
2, 110640, Note_on_c, 1, 71, 79
2, 110735, Note_off_c, 1, 71, 0
2, 110760, Note_on_c, 1, 67, 80
2, 110855, Note_off_c, 1, 67, 0
2, 110880, Note_on_c, 1, 72, 80
2, 110975, Note_off_c, 1, 72, 0
2, 111000, Note_on_c, 1, 67, 81
2, 111095, Note_off_c, 1, 67, 0
2, 111120, Note_on_c, 1, 72, 82
2, 111215, Note_off_c, 1, 72, 0
2, 111240, Note_on_c, 1, 76, 82
2, 111335, Note_off_c, 1, 76, 0
2, 111360, Note_on_c, 1, 79, 83
2, 111455, Note_off_c, 1, 79, 0
2, 111480, Note_on_c, 1, 76, 84
2, 111575, Note_off_c, 1, 76, 0
2, 111600, Note_on_c, 1, 72, 84
2, 111695, Note_off_c, 1, 72, 0
2, 111720, Note_on_c, 1, 67, 85
2, 111815, Note_off_c, 1, 67, 0
2, 111840, Note_on_c, 1, 77, 86
2, 111935, Note_off_c, 1, 77, 0
2, 111960, Note_on_c, 1, 74, 87
2, 112055, Note_off_c, 1, 74, 0
2, 112080, Note_on_c, 1, 71, 87
2, 112175, Note_off_c, 1, 71, 0
2, 112200, Note_on_c, 1, 67, 88
2, 112295, Note_off_c, 1, 67, 0
2, 112320, Note_on_c, 1, 72, 89
2, 112680, Note_off_c, 1, 72, 0
2, 112800, Note_on_c, 1, 84, 86
2, 113160, Note_off_c, 1, 84, 0
2, 113760, Control_c, 1, 64, 0
2, 113760, Note_on_c, 1, 84, 45
2, 114240, Note_off_c, 1, 84, 0
2, 114240, Note_on_c, 1, 76, 42
2, 114607, Note_off_c, 1, 76, 0
2, 115200, Note_on_c, 1, 81, 41
2, 115680, Note_off_c, 1, 81, 0
2, 115680, Note_on_c, 1, 71, 38
2, 116040, Note_off_c, 1, 71, 0
2, 116640, Note_on_c, 1, 72, 36
2, 116700, Note_off_c, 1, 72, 0
2, 116700, Note_on_c, 1, 74, 37
2, 116760, Note_off_c, 1, 74, 0
2, 116760, Note_on_c, 1, 72, 37
2, 117000, Note_off_c, 1, 72, 0
2, 117000, Note_on_c, 1, 71, 38
2, 117120, Note_off_c, 1, 71, 0
2, 117120, Note_on_c, 1, 72, 39
2, 117480, Note_off_c, 1, 72, 0
2, 117480, Note_on_c, 1, 74, 41
2, 117600, Note_off_c, 1, 74, 0
2, 117600, Note_on_c, 1, 76, 42
2, 117960, Note_off_c, 1, 76, 0
2, 117960, Note_on_c, 1, 77, 44
2, 118080, Note_off_c, 1, 77, 0
2, 118080, Note_on_c, 1, 76, 45
2, 118560, Note_off_c, 1, 76, 0
2, 118560, Note_on_c, 1, 74, 43
2, 118640, Note_off_c, 1, 74, 0
2, 118640, Note_on_c, 1, 76, 42
2, 118720, Note_off_c, 1, 76, 0
2, 118720, Note_on_c, 1, 74, 42
2, 118800, Note_off_c, 1, 74, 0
2, 118800, Note_on_c, 1, 72, 41
2, 118920, Note_off_c, 1, 72, 0
2, 118920, Note_on_c, 1, 74, 40
2, 119040, Note_off_c, 1, 74, 0
2, 119040, Note_on_c, 1, 72, 40
2, 119460, Note_off_c, 1, 72, 0
2, 119520, Note_on_c, 1, 69, 39
2, 119760, Note_off_c, 1, 69, 0
2, 119760, Note_on_c, 1, 81, 39
2, 120000, Note_off_c, 1, 81, 0
2, 120000, Note_on_c, 1, 79, 40
2, 120240, Note_off_c, 1, 79, 0
2, 120240, Note_on_c, 1, 77, 41
2, 120480, Note_off_c, 1, 77, 0
2, 120480, Note_on_c, 1, 76, 42
2, 120720, Note_off_c, 1, 76, 0
2, 120720, Note_on_c, 1, 74, 43
2, 120960, Note_off_c, 1, 74, 0
2, 120960, Note_on_c, 1, 72, 43
2, 121200, Note_off_c, 1, 72, 0
2, 121200, Note_on_c, 1, 71, 44
2, 121440, Note_off_c, 1, 71, 0
2, 121440, Note_on_c, 1, 69, 45
2, 121680, Note_off_c, 1, 69, 0
2, 121680, Note_on_c, 1, 67, 46
2, 121920, Note_off_c, 1, 67, 0
2, 121920, Note_on_c, 1, 69, 47
2, 122160, Note_off_c, 1, 69, 0
2, 122160, Note_on_c, 1, 71, 47
2, 122352, Note_off_c, 1, 71, 0
2, 122400, Note_on_c, 1, 72, 48
2, 122640, Note_off_c, 1, 72, 0
2, 122640, Note_on_c, 1, 76, 49
2, 122830, Note_off_c, 1, 76, 0
2, 122880, Note_on_c, 1, 79, 50
2, 123120, Note_off_c, 1, 79, 0
2, 123120, Note_on_c, 1, 76, 51
2, 123360, Note_off_c, 1, 76, 0
2, 123360, Note_on_c, 1, 81, 52
2, 123600, Note_off_c, 1, 81, 0
2, 123600, Note_on_c, 1, 77, 52
2, 123792, Note_off_c, 1, 77, 0
2, 123840, Note_on_c, 1, 76, 53
2, 124320, Note_off_c, 1, 76, 0
2, 124320, Note_on_c, 1, 74, 46
2, 124510, Note_off_c, 1, 74, 0
2, 124560, Note_on_c, 1, 79, 47
2, 124715, Note_off_c, 1, 79, 0
2, 124800, Note_on_c, 1, 81, 49
2, 124955, Note_off_c, 1, 81, 0
2, 125040, Note_on_c, 1, 83, 51
2, 125195, Note_off_c, 1, 83, 0
2, 125280, Note_on_c, 1, 84, 53
2, 125760, Note_off_c, 1, 84, 0
2, 125760, Note_on_c, 1, 76, 51
2, 126187, Note_off_c, 1, 76, 0
2, 126720, Note_on_c, 1, 81, 49
2, 127200, Note_off_c, 1, 81, 0
2, 127200, Note_on_c, 1, 71, 46
2, 127620, Note_off_c, 1, 71, 0
2, 128160, Note_on_c, 1, 72, 46
2, 128220, Note_off_c, 1, 72, 0
2, 128220, Note_on_c, 1, 74, 46
2, 128280, Note_off_c, 1, 74, 0
2, 128280, Note_on_c, 1, 72, 47
2, 128520, Note_off_c, 1, 72, 0
2, 128520, Note_on_c, 1, 71, 48
2, 128640, Note_off_c, 1, 71, 0
2, 128640, Note_on_c, 1, 72, 48
2, 129000, Note_off_c, 1, 72, 0
2, 129000, Note_on_c, 1, 74, 50
2, 129120, Note_off_c, 1, 74, 0
2, 129120, Note_on_c, 1, 76, 51
2, 129480, Note_off_c, 1, 76, 0
2, 129480, Note_on_c, 1, 77, 52
2, 129600, Note_off_c, 1, 77, 0
2, 129600, Note_on_c, 1, 76, 53
2, 130080, Note_off_c, 1, 76, 0
2, 130080, Note_on_c, 1, 74, 51
2, 130160, Note_off_c, 1, 74, 0
2, 130160, Note_on_c, 1, 76, 51
2, 130240, Note_off_c, 1, 76, 0
2, 130240, Note_on_c, 1, 74, 50
2, 130320, Note_off_c, 1, 74, 0
2, 130320, Note_on_c, 1, 72, 50
2, 130440, Note_off_c, 1, 72, 0
2, 130440, Note_on_c, 1, 74, 49
2, 130560, Note_off_c, 1, 74, 0
2, 130560, Note_on_c, 1, 72, 49
2, 130980, Note_off_c, 1, 72, 0
2, 131040, Note_on_c, 1, 69, 48
2, 131280, Note_off_c, 1, 69, 0
2, 131280, Note_on_c, 1, 81, 49
2, 131520, Note_off_c, 1, 81, 0
2, 131520, Note_on_c, 1, 79, 51
2, 131760, Note_off_c, 1, 79, 0
2, 131760, Note_on_c, 1, 77, 52
2, 132000, Note_off_c, 1, 77, 0
2, 132000, Note_on_c, 1, 76, 53
2, 132240, Note_off_c, 1, 76, 0
2, 132240, Note_on_c, 1, 74, 54
2, 132480, Note_off_c, 1, 74, 0
2, 132480, Note_on_c, 1, 72, 55
2, 132720, Note_off_c, 1, 72, 0
2, 132720, Note_on_c, 1, 71, 56
2, 132960, Note_off_c, 1, 71, 0
2, 132960, Note_on_c, 1, 77, 57
2, 133200, Note_off_c, 1, 77, 0
2, 133200, Note_on_c, 1, 71, 58
2, 133440, Note_off_c, 1, 71, 0
2, 133440, Note_on_c, 1, 74, 59
2, 133680, Note_off_c, 1, 74, 0
2, 133680, Note_on_c, 1, 72, 60
2, 133872, Note_off_c, 1, 72, 0
2, 133920, Note_on_c, 1, 71, 62
2, 134040, Note_off_c, 1, 71, 0
2, 134040, Note_on_c, 1, 69, 61
2, 134160, Note_off_c, 1, 69, 0
2, 134160, Note_on_c, 1, 67, 60
2, 134280, Note_off_c, 1, 67, 0
2, 134280, Note_on_c, 1, 65, 59
2, 134385, Note_off_c, 1, 65, 0
2, 134400, Note_on_c, 1, 64, 58
2, 134880, Note_off_c, 1, 64, 0
2, 134880, Note_on_c, 1, 62, 53
2, 134960, Note_off_c, 1, 62, 0
2, 134960, Note_on_c, 1, 64, 52
2, 135040, Note_off_c, 1, 64, 0
2, 135040, Note_on_c, 1, 62, 52
2, 135120, Note_off_c, 1, 62, 0
2, 135120, Note_on_c, 1, 60, 51
2, 135240, Note_off_c, 1, 60, 0
2, 135240, Note_on_c, 1, 62, 50
2, 135360, Note_off_c, 1, 62, 0
2, 135360, Note_on_c, 1, 60, 60
2, 135787, Note_off_c, 1, 60, 0
2, 136080, Note_on_c, 1, 62, 60
2, 136200, Note_off_c, 1, 62, 0
2, 136320, Note_on_c, 1, 63, 61
2, 136440, Note_off_c, 1, 63, 0
2, 136560, Note_on_c, 1, 65, 61
2, 136680, Note_off_c, 1, 65, 0
2, 136800, Note_on_c, 1, 67, 61
2, 137227, Note_off_c, 1, 67, 0
2, 137520, Note_on_c, 1, 72, 62
2, 137640, Note_off_c, 1, 72, 0
2, 137760, Note_on_c, 1, 69, 63
2, 137880, Note_off_c, 1, 69, 0
2, 138000, Note_on_c, 1, 67, 63
2, 138120, Note_off_c, 1, 67, 0
2, 138240, Note_on_c, 1, 66, 63
2, 138660, Note_off_c, 1, 66, 0
2, 138960, Note_on_c, 1, 64, 64
2, 139080, Note_off_c, 1, 64, 0
2, 139200, Note_on_c, 1, 66, 64
2, 139320, Note_off_c, 1, 66, 0
2, 139440, Note_on_c, 1, 67, 65
2, 139560, Note_off_c, 1, 67, 0
2, 139680, Note_on_c, 1, 69, 65
2, 140100, Note_off_c, 1, 69, 0
2, 140400, Note_on_c, 1, 70, 66
2, 140520, Note_off_c, 1, 70, 0
2, 140640, Note_on_c, 1, 72, 66
2, 140760, Note_off_c, 1, 72, 0
2, 140880, Note_on_c, 1, 74, 66
2, 141000, Note_off_c, 1, 74, 0
2, 141120, Note_on_c, 1, 70, 67
2, 141547, Note_off_c, 1, 70, 0
2, 141840, Note_on_c, 1, 66, 68
2, 141960, Note_off_c, 1, 66, 0
2, 142080, Note_on_c, 1, 67, 68
2, 142200, Note_off_c, 1, 67, 0
2, 142320, Note_on_c, 1, 69, 68
2, 142440, Note_off_c, 1, 69, 0
2, 142560, Note_on_c, 1, 70, 69
2, 142980, Note_off_c, 1, 70, 0
2, 143280, Note_on_c, 1, 70, 70
2, 143400, Note_off_c, 1, 70, 0
2, 143520, Note_on_c, 1, 67, 70
2, 143640, Note_off_c, 1, 67, 0
2, 143760, Note_on_c, 1, 65, 70
2, 143880, Note_off_c, 1, 65, 0
2, 144000, Note_on_c, 1, 64, 70
2, 144427, Note_off_c, 1, 64, 0
2, 144720, Note_on_c, 1, 62, 71
2, 144840, Note_off_c, 1, 62, 0
2, 144960, Note_on_c, 1, 64, 72
2, 145080, Note_off_c, 1, 64, 0
2, 145200, Note_on_c, 1, 65, 72
2, 145320, Note_off_c, 1, 65, 0
2, 145440, Note_on_c, 1, 67, 72
2, 145867, Note_off_c, 1, 67, 0
2, 146160, Note_on_c, 1, 70, 73
2, 146280, Note_off_c, 1, 70, 0
2, 146400, Note_on_c, 1, 69, 73
2, 146520, Note_off_c, 1, 69, 0
2, 146640, Note_on_c, 1, 67, 74
2, 146760, Note_off_c, 1, 67, 0
2, 146880, Note_on_c, 1, 65, 74
2, 147307, Note_off_c, 1, 65, 0
2, 147600, Note_on_c, 1, 74, 75
2, 147720, Note_off_c, 1, 74, 0
2, 147840, Note_on_c, 1, 70, 75
2, 147960, Note_off_c, 1, 70, 0
2, 148080, Note_on_c, 1, 69, 76
2, 148200, Note_off_c, 1, 69, 0
2, 148320, Note_on_c, 1, 68, 76
2, 148747, Note_off_c, 1, 68, 0
2, 149040, Note_on_c, 1, 68, 77
2, 149160, Note_off_c, 1, 68, 0
2, 149280, Note_on_c, 1, 68, 77
2, 149400, Note_off_c, 1, 68, 0
2, 149520, Note_on_c, 1, 68, 77
2, 149640, Note_off_c, 1, 68, 0
2, 149760, Note_on_c, 1, 69, 78
2, 150187, Note_off_c, 1, 69, 0
2, 150480, Note_on_c, 1, 69, 79
2, 150600, Note_off_c, 1, 69, 0
2, 150720, Note_on_c, 1, 71, 79
2, 150840, Note_off_c, 1, 71, 0
2, 150960, Note_on_c, 1, 73, 79
2, 151080, Note_off_c, 1, 73, 0
2, 151200, Note_on_c, 1, 74, 79
2, 151612, Note_off_c, 1, 74, 0
2, 151920, Note_on_c, 1, 69, 80
2, 152040, Note_off_c, 1, 69, 0
2, 152160, Note_on_c, 1, 67, 81
2, 152280, Note_off_c, 1, 67, 0
2, 152400, Note_on_c, 1, 65, 81
2, 152520, Note_off_c, 1, 65, 0
2, 152640, Note_on_c, 1, 64, 81
2, 153060, Note_off_c, 1, 64, 0
2, 153360, Note_on_c, 1, 69, 82
2, 153480, Note_off_c, 1, 69, 0
2, 153600, Note_on_c, 1, 71, 82
2, 153720, Note_off_c, 1, 71, 0
2, 153840, Note_on_c, 1, 73, 83
2, 153960, Note_off_c, 1, 73, 0
2, 154080, Note_on_c, 1, 74, 83
2, 154500, Note_off_c, 1, 74, 0
2, 154800, Note_on_c, 1, 69, 84
2, 154920, Note_off_c, 1, 69, 0
2, 155040, Note_on_c, 1, 67, 84
2, 155160, Note_off_c, 1, 67, 0
2, 155280, Note_on_c, 1, 65, 85
2, 155400, Note_off_c, 1, 65, 0
2, 155520, Note_on_c, 1, 64, 85
2, 155940, Note_off_c, 1, 64, 0
2, 156240, Note_on_c, 1, 64, 86
2, 156360, Note_off_c, 1, 64, 0
2, 156480, Note_on_c, 1, 69, 86
2, 156600, Note_off_c, 1, 69, 0
2, 156720, Note_on_c, 1, 73, 86
2, 156840, Note_off_c, 1, 73, 0
2, 156960, Note_on_c, 1, 72, 87
2, 157380, Note_off_c, 1, 72, 0
2, 157680, Note_on_c, 1, 64, 88
2, 157800, Note_off_c, 1, 64, 0
2, 157920, Note_on_c, 1, 69, 88
2, 158040, Note_off_c, 1, 69, 0
2, 158160, Note_on_c, 1, 72, 88
2, 158280, Note_off_c, 1, 72, 0
2, 158400, Note_on_c, 1, 73, 89
2, 158820, Note_off_c, 1, 73, 0
2, 159120, Note_on_c, 1, 64, 89
2, 159240, Note_off_c, 1, 64, 0
2, 159360, Note_on_c, 1, 70, 90
2, 159480, Note_off_c, 1, 70, 0
2, 159600, Note_on_c, 1, 73, 90
2, 159720, Note_off_c, 1, 73, 0
2, 159840, Note_on_c, 1, 73, 90
2, 160260, Note_off_c, 1, 73, 0
2, 160560, Note_on_c, 1, 65, 91
2, 160680, Note_off_c, 1, 65, 0
2, 160800, Note_on_c, 1, 70, 92
2, 160920, Note_off_c, 1, 70, 0
2, 161040, Note_on_c, 1, 73, 92
2, 161160, Note_off_c, 1, 73, 0
2, 161280, Note_on_c, 1, 72, 92
2, 161400, Note_off_c, 1, 72, 0
2, 161400, Note_on_c, 1, 84, 92
2, 161520, Note_off_c, 1, 84, 0
2, 161520, Note_on_c, 1, 83, 92
2, 161640, Note_off_c, 1, 83, 0
2, 161640, Note_on_c, 1, 84, 93
2, 161760, Note_off_c, 1, 84, 0
2, 161760, Note_on_c, 1, 72, 93
2, 161915, Note_off_c, 1, 72, 0
2, 162000, Note_on_c, 1, 73, 93
2, 162155, Note_off_c, 1, 73, 0
2, 162240, Note_on_c, 1, 72, 93
2, 162395, Note_off_c, 1, 72, 0
2, 162480, Note_on_c, 1, 73, 94
2, 162635, Note_off_c, 1, 73, 0
2, 162720, Note_on_c, 1, 72, 94
2, 162840, Note_off_c, 1, 72, 0
2, 162840, Note_on_c, 1, 84, 94
2, 162960, Note_off_c, 1, 84, 0
2, 162960, Note_on_c, 1, 83, 94
2, 163080, Note_off_c, 1, 83, 0
2, 163080, Note_on_c, 1, 84, 94
2, 163200, Note_off_c, 1, 84, 0
2, 163200, Note_on_c, 1, 72, 95
2, 163355, Note_off_c, 1, 72, 0
2, 163440, Note_on_c, 1, 73, 95
2, 163595, Note_off_c, 1, 73, 0
2, 163680, Note_on_c, 1, 72, 95
2, 163835, Note_off_c, 1, 72, 0
2, 163920, Note_on_c, 1, 73, 95
2, 164075, Note_off_c, 1, 73, 0
2, 164160, Note_on_c, 1, 72, 97
2, 164280, Note_off_c, 1, 72, 0
2, 164280, Note_on_c, 1, 84, 96
2, 164400, Note_off_c, 1, 84, 0
2, 164400, Note_on_c, 1, 83, 96
2, 164520, Note_off_c, 1, 83, 0
2, 164520, Note_on_c, 1, 84, 95
2, 164640, Note_off_c, 1, 84, 0
2, 164640, Note_on_c, 1, 72, 94
2, 164760, Note_off_c, 1, 72, 0
2, 164760, Note_on_c, 1, 76, 94
2, 164880, Note_off_c, 1, 76, 0
2, 164880, Note_on_c, 1, 75, 93
2, 165000, Note_off_c, 1, 75, 0
2, 165000, Note_on_c, 1, 76, 92
2, 165120, Note_off_c, 1, 76, 0
2, 165120, Note_on_c, 1, 72, 92
2, 165240, Note_off_c, 1, 72, 0
2, 165240, Note_on_c, 1, 79, 91
2, 165360, Note_off_c, 1, 79, 0
2, 165360, Note_on_c, 1, 78, 90
2, 165480, Note_off_c, 1, 78, 0
2, 165480, Note_on_c, 1, 79, 90
2, 165600, Note_off_c, 1, 79, 0
2, 165600, Note_on_c, 1, 72, 89
2, 165720, Note_off_c, 1, 72, 0
2, 165720, Note_on_c, 1, 82, 88
2, 165840, Note_off_c, 1, 82, 0
2, 165840, Note_on_c, 1, 81, 88
2, 165960, Note_off_c, 1, 81, 0
2, 165960, Note_on_c, 1, 82, 87
2, 166080, Note_off_c, 1, 82, 0
2, 166080, Note_on_c, 1, 81, 86
2, 166200, Note_off_c, 1, 81, 0
2, 166200, Note_on_c, 1, 82, 86
2, 166320, Note_off_c, 1, 82, 0
2, 166320, Note_on_c, 1, 81, 85
2, 166440, Note_off_c, 1, 81, 0
2, 166440, Note_on_c, 1, 82, 84
2, 166560, Note_off_c, 1, 82, 0
2, 166560, Note_on_c, 1, 81, 84
2, 166680, Note_off_c, 1, 81, 0
2, 166680, Note_on_c, 1, 82, 83
2, 166800, Note_off_c, 1, 82, 0
2, 166800, Note_on_c, 1, 86, 82
2, 166920, Note_off_c, 1, 86, 0
2, 166920, Note_on_c, 1, 82, 82
2, 167040, Note_off_c, 1, 82, 0
2, 167040, Note_on_c, 1, 78, 81
2, 167160, Note_off_c, 1, 78, 0
2, 167160, Note_on_c, 1, 79, 80
2, 167280, Note_off_c, 1, 79, 0
2, 167280, Note_on_c, 1, 82, 79
2, 167400, Note_off_c, 1, 82, 0
2, 167400, Note_on_c, 1, 79, 79
2, 167520, Note_off_c, 1, 79, 0
2, 167520, Note_on_c, 1, 75, 78
2, 167640, Note_off_c, 1, 75, 0
2, 167640, Note_on_c, 1, 76, 77
2, 167760, Note_off_c, 1, 76, 0
2, 167760, Note_on_c, 1, 79, 77
2, 167880, Note_off_c, 1, 79, 0
2, 167880, Note_on_c, 1, 76, 76
2, 168000, Note_off_c, 1, 76, 0
2, 168000, Note_on_c, 1, 69, 75
2, 168120, Note_off_c, 1, 69, 0
2, 168120, Note_on_c, 1, 70, 75
2, 168240, Note_off_c, 1, 70, 0
2, 168240, Note_on_c, 1, 76, 74
2, 168360, Note_off_c, 1, 76, 0
2, 168360, Note_on_c, 1, 70, 73
2, 168480, Note_off_c, 1, 70, 0
2, 168480, Note_on_c, 1, 66, 73
2, 168600, Note_off_c, 1, 66, 0
2, 168600, Note_on_c, 1, 67, 72
2, 168720, Note_off_c, 1, 67, 0
2, 168720, Note_on_c, 1, 70, 71
2, 168840, Note_off_c, 1, 70, 0
2, 168840, Note_on_c, 1, 67, 71
2, 168960, Note_off_c, 1, 67, 0
2, 168960, Note_on_c, 1, 64, 70
2, 169080, Note_off_c, 1, 64, 0
2, 169080, Note_on_c, 1, 67, 69
2, 169200, Note_off_c, 1, 67, 0
2, 169200, Note_on_c, 1, 65, 69
2, 169320, Note_off_c, 1, 65, 0
2, 169320, Note_on_c, 1, 69, 68
2, 169440, Note_off_c, 1, 69, 0
2, 169440, Note_on_c, 1, 67, 67
2, 169560, Note_off_c, 1, 67, 0
2, 169560, Note_on_c, 1, 70, 67
2, 169680, Note_off_c, 1, 70, 0
2, 169680, Note_on_c, 1, 69, 66
2, 169800, Note_off_c, 1, 69, 0
2, 169800, Note_on_c, 1, 72, 65
2, 169920, Note_off_c, 1, 72, 0
2, 169920, Note_on_c, 1, 70, 65
2, 170040, Note_off_c, 1, 70, 0
2, 170040, Note_on_c, 1, 69, 64
2, 170160, Note_off_c, 1, 69, 0
2, 170160, Note_on_c, 1, 67, 63
2, 170280, Note_off_c, 1, 67, 0
2, 170280, Note_on_c, 1, 65, 63
2, 170400, Note_off_c, 1, 65, 0
2, 170400, Note_on_c, 1, 64, 62
2, 170520, Note_off_c, 1, 64, 0
2, 170520, Note_on_c, 1, 65, 64
2, 170640, Note_off_c, 1, 65, 0
2, 170640, Note_on_c, 1, 67, 66
2, 170760, Note_off_c, 1, 67, 0
2, 170760, Note_on_c, 1, 69, 68
2, 170880, Note_off_c, 1, 69, 0
2, 170880, Note_on_c, 1, 70, 69
2, 171000, Note_off_c, 1, 70, 0
2, 171000, Note_on_c, 1, 72, 71
2, 171120, Note_off_c, 1, 72, 0
2, 171120, Note_on_c, 1, 74, 73
2, 171240, Note_off_c, 1, 74, 0
2, 171240, Note_on_c, 1, 76, 74
2, 171336, Note_off_c, 1, 76, 0
2, 171360, Control_c, 1, 64, 127
2, 171440, Note_on_c, 1, 77, 79
2, 172035, Note_off_c, 1, 77, 0
2, 172080, Control_c, 1, 64, 0
2, 172080, Note_on_c, 1, 79, 78
2, 172200, Note_off_c, 1, 79, 0
2, 172200, Note_on_c, 1, 77, 77
2, 172320, Note_off_c, 1, 77, 0
2, 172320, Note_on_c, 1, 76, 77
2, 172440, Note_off_c, 1, 76, 0
2, 172440, Note_on_c, 1, 77, 77
2, 172560, Note_off_c, 1, 77, 0
2, 172560, Note_on_c, 1, 81, 76
2, 172680, Note_off_c, 1, 81, 0
2, 172680, Note_on_c, 1, 77, 76
2, 172800, Note_off_c, 1, 77, 0
2, 172800, Note_on_c, 1, 72, 76
2, 173467, Note_off_c, 1, 72, 0
2, 173520, Note_on_c, 1, 74, 74
2, 173640, Note_off_c, 1, 74, 0
2, 173640, Note_on_c, 1, 72, 73
2, 173760, Note_off_c, 1, 72, 0
2, 173760, Note_on_c, 1, 71, 73
2, 173880, Note_off_c, 1, 71, 0
2, 173880, Note_on_c, 1, 72, 73
2, 174000, Note_off_c, 1, 72, 0
2, 174000, Note_on_c, 1, 77, 72
2, 174120, Note_off_c, 1, 77, 0
2, 174120, Note_on_c, 1, 72, 72
2, 174240, Note_off_c, 1, 72, 0
2, 174240, Note_on_c, 1, 69, 72
2, 174907, Note_off_c, 1, 69, 0
2, 174960, Note_on_c, 1, 70, 70
2, 175080, Note_off_c, 1, 70, 0
2, 175080, Note_on_c, 1, 69, 69
2, 175200, Note_off_c, 1, 69, 0
2, 175200, Note_on_c, 1, 68, 69
2, 175320, Note_off_c, 1, 68, 0
2, 175320, Note_on_c, 1, 69, 69
2, 175440, Note_off_c, 1, 69, 0
2, 175440, Note_on_c, 1, 72, 68
2, 175560, Note_off_c, 1, 72, 0
2, 175560, Note_on_c, 1, 69, 68
2, 175680, Note_off_c, 1, 69, 0
2, 175680, Note_on_c, 1, 65, 68
2, 176107, Note_off_c, 1, 65, 0
2, 176160, Note_on_c, 1, 65, 43
2, 176640, Note_off_c, 1, 65, 0
2, 176640, Note_on_c, 1, 65, 47
2, 177120, Note_off_c, 1, 65, 0
2, 177120, Note_on_c, 1, 65, 51
2, 178980, Note_off_c, 1, 65, 0
2, 179040, Note_on_c, 1, 70, 45
2, 179520, Note_off_c, 1, 70, 0
2, 179520, Note_on_c, 1, 69, 46
2, 180240, Note_off_c, 1, 69, 0
2, 180240, Note_on_c, 1, 67, 48
2, 180430, Note_off_c, 1, 67, 0
2, 180480, Note_on_c, 1, 74, 49
2, 180720, Note_off_c, 1, 74, 0
2, 180720, Note_on_c, 1, 72, 49
2, 180910, Note_off_c, 1, 72, 0
2, 180960, Note_on_c, 1, 70, 50
2, 181200, Note_off_c, 1, 70, 0
2, 181200, Note_on_c, 1, 69, 50
2, 181390, Note_off_c, 1, 69, 0
2, 181440, Note_on_c, 1, 69, 53
2, 181680, Note_off_c, 1, 69, 0
2, 181680, Note_on_c, 1, 67, 51
2, 181870, Note_off_c, 1, 67, 0
2, 181920, Note_on_c, 1, 65, 49
2, 181980, Note_off_c, 1, 65, 0
2, 181980, Note_on_c, 1, 67, 49
2, 182040, Note_off_c, 1, 67, 0
2, 182040, Note_on_c, 1, 65, 48
2, 182160, Note_off_c, 1, 65, 0
2, 182160, Note_on_c, 1, 64, 48
2, 182350, Note_off_c, 1, 64, 0
2, 182400, Note_on_c, 1, 62, 46
2, 182460, Note_off_c, 1, 62, 0
2, 182460, Note_on_c, 1, 64, 45
2, 182520, Note_off_c, 1, 64, 0
2, 182520, Note_on_c, 1, 62, 45
2, 182640, Note_on_c, 1, 60, 44
2, 182645, Note_off_c, 1, 62, 0
2, 182830, Note_off_c, 1, 60, 0
2, 182880, Control_c, 1, 64, 127
2, 182960, Note_on_c, 1, 77, 67
2, 183547, Note_off_c, 1, 77, 0
2, 183600, Control_c, 1, 64, 0
2, 183600, Note_on_c, 1, 79, 66
2, 183720, Note_off_c, 1, 79, 0
2, 183720, Note_on_c, 1, 77, 66
2, 183840, Note_off_c, 1, 77, 0
2, 183840, Note_on_c, 1, 76, 66
2, 183960, Note_off_c, 1, 76, 0
2, 183960, Note_on_c, 1, 77, 66
2, 184080, Note_off_c, 1, 77, 0
2, 184080, Note_on_c, 1, 81, 65
2, 184200, Note_off_c, 1, 81, 0
2, 184200, Note_on_c, 1, 77, 65
2, 184320, Note_off_c, 1, 77, 0
2, 184320, Note_on_c, 1, 72, 65
2, 184980, Note_off_c, 1, 72, 0
2, 185040, Note_on_c, 1, 74, 64
2, 185160, Note_off_c, 1, 74, 0
2, 185160, Note_on_c, 1, 72, 63
2, 185280, Note_off_c, 1, 72, 0
2, 185280, Note_on_c, 1, 71, 63
2, 185400, Note_off_c, 1, 71, 0
2, 185400, Note_on_c, 1, 72, 63
2, 185520, Note_off_c, 1, 72, 0
2, 185520, Note_on_c, 1, 77, 63
2, 185640, Note_off_c, 1, 77, 0
2, 185640, Note_on_c, 1, 72, 63
2, 185760, Note_off_c, 1, 72, 0
2, 185760, Note_on_c, 1, 69, 62
2, 186412, Note_off_c, 1, 69, 0
2, 186480, Note_on_c, 1, 70, 61
2, 186600, Note_off_c, 1, 70, 0
2, 186600, Note_on_c, 1, 69, 61
2, 186720, Note_off_c, 1, 69, 0
2, 186720, Note_on_c, 1, 68, 61
2, 186840, Note_off_c, 1, 68, 0
2, 186840, Note_on_c, 1, 69, 60
2, 186960, Note_off_c, 1, 69, 0
2, 186960, Note_on_c, 1, 72, 60
2, 187080, Note_off_c, 1, 72, 0
2, 187080, Note_on_c, 1, 69, 60
2, 187200, Note_off_c, 1, 69, 0
2, 187200, Note_on_c, 1, 65, 60
2, 187620, Note_off_c, 1, 65, 0
2, 187680, Note_on_c, 1, 65, 43
2, 188160, Note_off_c, 1, 65, 0
2, 188160, Note_on_c, 1, 65, 47
2, 188640, Note_off_c, 1, 65, 0
2, 188640, Note_on_c, 1, 65, 51
2, 190500, Note_off_c, 1, 65, 0
2, 190560, Note_on_c, 1, 74, 44
2, 191040, Note_off_c, 1, 74, 0
2, 191040, Note_on_c, 1, 72, 47
2, 191400, Note_on_c, 1, 69, 49
2, 191490, Note_off_c, 1, 72, 0
2, 191497, Note_off_c, 1, 69, 0
2, 191520, Note_on_c, 1, 72, 51
2, 191880, Note_off_c, 1, 72, 0
2, 191880, Note_on_c, 1, 70, 46
2, 192000, Note_off_c, 1, 70, 0
2, 192000, Note_on_c, 1, 69, 45
2, 192480, Note_off_c, 1, 69, 0
2, 192480, Note_on_c, 1, 67, 39
2, 192960, Note_off_c, 1, 67, 0
2, 192960, Note_on_c, 1, 65, 36
2, 193380, Note_off_c, 1, 65, 0
2, 193680, Note_on_c, 1, 84, 67
2, 193800, Note_off_c, 1, 84, 0
2, 193920, Note_on_c, 1, 84, 67
2, 194040, Note_off_c, 1, 84, 0
2, 194160, Note_on_c, 1, 84, 67
2, 194280, Note_off_c, 1, 84, 0
2, 194400, Note_on_c, 1, 84, 68
2, 195120, Note_off_c, 1, 84, 0
2, 195120, Note_on_c, 1, 82, 69
2, 195240, Note_off_c, 1, 82, 0
2, 195240, Note_on_c, 1, 81, 69
2, 195360, Note_off_c, 1, 81, 0
2, 195360, Note_on_c, 1, 79, 69
2, 195515, Note_off_c, 1, 79, 0
2, 195600, Note_on_c, 1, 77, 69
2, 195755, Note_off_c, 1, 77, 0
2, 195840, Note_on_c, 1, 77, 70
2, 195900, Note_off_c, 1, 77, 0
2, 195900, Note_on_c, 1, 79, 70
2, 195960, Note_off_c, 1, 79, 0
2, 195960, Note_on_c, 1, 77, 70
2, 196080, Note_on_c, 1, 76, 70
2, 196085, Note_off_c, 1, 77, 0
2, 196270, Note_off_c, 1, 76, 0
2, 196320, Note_on_c, 1, 76, 70
2, 196510, Note_off_c, 1, 76, 0
2, 196560, Note_on_c, 1, 72, 71
2, 196750, Note_off_c, 1, 72, 0
2, 196800, Note_on_c, 1, 72, 71
2, 196990, Note_off_c, 1, 72, 0
2, 197040, Note_on_c, 1, 72, 71
2, 197230, Note_off_c, 1, 72, 0
2, 197280, Note_on_c, 1, 79, 72
2, 197520, Note_off_c, 1, 79, 0
2, 197520, Note_on_c, 1, 81, 72
2, 197600, Note_off_c, 1, 81, 0
2, 197600, Note_on_c, 1, 79, 72
2, 197680, Note_off_c, 1, 79, 0
2, 197680, Note_on_c, 1, 78, 72
2, 197760, Note_off_c, 1, 78, 0
2, 197760, Note_on_c, 1, 79, 72
2, 197950, Note_off_c, 1, 79, 0
2, 198000, Note_on_c, 1, 84, 72
2, 198240, Note_off_c, 1, 84, 0
2, 198240, Note_on_c, 1, 83, 73
2, 198480, Note_off_c, 1, 83, 0
2, 198480, Note_on_c, 1, 84, 73
2, 198682, Note_off_c, 1, 84, 0
2, 198720, Note_on_c, 1, 81, 72
2, 199200, Note_off_c, 1, 81, 0
2, 199200, Note_on_c, 1, 77, 63
2, 199390, Note_off_c, 1, 77, 0
2, 199440, Note_on_c, 1, 84, 62
2, 199560, Note_off_c, 1, 84, 0
2, 199680, Note_on_c, 1, 84, 62
2, 199800, Note_off_c, 1, 84, 0
2, 199920, Note_on_c, 1, 84, 62
2, 200040, Note_off_c, 1, 84, 0
2, 200160, Note_on_c, 1, 84, 61
2, 200880, Note_off_c, 1, 84, 0
2, 200880, Note_on_c, 1, 86, 60
2, 201000, Note_off_c, 1, 86, 0
2, 201000, Note_on_c, 1, 84, 60
2, 201120, Note_off_c, 1, 84, 0
2, 201120, Note_on_c, 1, 82, 59
2, 201240, Note_off_c, 1, 82, 0
2, 201240, Note_on_c, 1, 81, 59
2, 201360, Note_off_c, 1, 81, 0
2, 201360, Note_on_c, 1, 79, 59
2, 201480, Note_off_c, 1, 79, 0
2, 201480, Note_on_c, 1, 77, 59
2, 201576, Note_off_c, 1, 77, 0
2, 201600, Note_on_c, 1, 77, 58
2, 201660, Note_off_c, 1, 77, 0
2, 201660, Note_on_c, 1, 79, 58
2, 201720, Note_off_c, 1, 79, 0
2, 201720, Note_on_c, 1, 77, 58
2, 201840, Note_on_c, 1, 76, 58
2, 201845, Note_off_c, 1, 77, 0
2, 202030, Note_off_c, 1, 76, 0
2, 202080, Note_on_c, 1, 76, 58
2, 202270, Note_off_c, 1, 76, 0
2, 202320, Note_on_c, 1, 72, 57
2, 202510, Note_off_c, 1, 72, 0
2, 202560, Note_on_c, 1, 72, 57
2, 202750, Note_off_c, 1, 72, 0
2, 202800, Note_on_c, 1, 72, 56
2, 202990, Note_off_c, 1, 72, 0
2, 203040, Note_on_c, 1, 79, 56
2, 203280, Note_off_c, 1, 79, 0
2, 203280, Note_on_c, 1, 81, 55
2, 203360, Note_off_c, 1, 81, 0
2, 203360, Note_on_c, 1, 79, 55
2, 203440, Note_off_c, 1, 79, 0
2, 203440, Note_on_c, 1, 78, 55
2, 203520, Note_off_c, 1, 78, 0
2, 203520, Note_on_c, 1, 79, 55
2, 203710, Note_off_c, 1, 79, 0
2, 203760, Note_on_c, 1, 84, 54
2, 204000, Note_off_c, 1, 84, 0
2, 204000, Note_on_c, 1, 83, 54
2, 204240, Note_off_c, 1, 83, 0
2, 204240, Note_on_c, 1, 84, 54
2, 204480, Note_off_c, 1, 84, 0
2, 204480, Note_on_c, 1, 81, 83
2, 204520, Note_off_c, 1, 81, 0
2, 204520, Note_on_c, 1, 82, 83
2, 204560, Note_off_c, 1, 82, 0
2, 204560, Note_on_c, 1, 81, 83
2, 204600, Note_off_c, 1, 81, 0
2, 204600, Note_on_c, 1, 79, 83
2, 204720, Note_off_c, 1, 79, 0
2, 204720, Note_on_c, 1, 81, 82
2, 204840, Note_off_c, 1, 81, 0
2, 204840, Note_on_c, 1, 82, 82
2, 204960, Note_off_c, 1, 82, 0
2, 204960, Note_on_c, 1, 84, 81
2, 205080, Note_off_c, 1, 84, 0
2, 205080, Note_on_c, 1, 82, 81
2, 205200, Note_off_c, 1, 82, 0
2, 205200, Note_on_c, 1, 81, 81
2, 205320, Note_off_c, 1, 81, 0
2, 205320, Note_on_c, 1, 79, 80
2, 205440, Note_off_c, 1, 79, 0
2, 205440, Note_on_c, 1, 77, 80
2, 205560, Note_off_c, 1, 77, 0
2, 205560, Note_on_c, 1, 76, 80
2, 205680, Note_off_c, 1, 76, 0
2, 205680, Note_on_c, 1, 74, 79
2, 205800, Note_off_c, 1, 74, 0
2, 205800, Note_on_c, 1, 72, 79
2, 205896, Note_off_c, 1, 72, 0
2, 205920, Note_on_c, 1, 77, 78
2, 205960, Note_off_c, 1, 77, 0
2, 205960, Note_on_c, 1, 79, 78
2, 206000, Note_off_c, 1, 79, 0
2, 206000, Note_on_c, 1, 77, 78
2, 206040, Note_off_c, 1, 77, 0
2, 206040, Note_on_c, 1, 76, 78
2, 206160, Note_off_c, 1, 76, 0
2, 206160, Note_on_c, 1, 77, 78
2, 206280, Note_off_c, 1, 77, 0
2, 206280, Note_on_c, 1, 79, 77
2, 206400, Note_off_c, 1, 79, 0
2, 206400, Note_on_c, 1, 81, 77
2, 206520, Note_off_c, 1, 81, 0
2, 206520, Note_on_c, 1, 79, 76
2, 206640, Note_off_c, 1, 79, 0
2, 206640, Note_on_c, 1, 77, 76
2, 206760, Note_off_c, 1, 77, 0
2, 206760, Note_on_c, 1, 76, 76
2, 206880, Note_off_c, 1, 76, 0
2, 206880, Note_on_c, 1, 74, 75
2, 207000, Note_off_c, 1, 74, 0
2, 207000, Note_on_c, 1, 72, 75
2, 207120, Note_off_c, 1, 72, 0
2, 207120, Note_on_c, 1, 70, 75
2, 207240, Note_off_c, 1, 70, 0
2, 207240, Note_on_c, 1, 69, 74
2, 207336, Note_off_c, 1, 69, 0
2, 207360, Note_on_c, 1, 74, 74
2, 207400, Note_off_c, 1, 74, 0
2, 207400, Note_on_c, 1, 76, 74
2, 207440, Note_off_c, 1, 76, 0
2, 207440, Note_on_c, 1, 74, 74
2, 207480, Note_off_c, 1, 74, 0
2, 207480, Note_on_c, 1, 72, 73
2, 207600, Note_off_c, 1, 72, 0
2, 207600, Note_on_c, 1, 74, 73
2, 207720, Note_off_c, 1, 74, 0
2, 207720, Note_on_c, 1, 76, 73
2, 207840, Note_off_c, 1, 76, 0
2, 207840, Note_on_c, 1, 77, 72
2, 207960, Note_off_c, 1, 77, 0
2, 207960, Note_on_c, 1, 76, 72
2, 208080, Note_off_c, 1, 76, 0
2, 208080, Note_on_c, 1, 74, 71
2, 208200, Note_off_c, 1, 74, 0
2, 208200, Note_on_c, 1, 72, 71
2, 208320, Note_off_c, 1, 72, 0
2, 208320, Note_on_c, 1, 70, 71
2, 208440, Note_off_c, 1, 70, 0
2, 208440, Note_on_c, 1, 69, 70
2, 208560, Note_off_c, 1, 69, 0
2, 208560, Note_on_c, 1, 67, 70
2, 208680, Note_off_c, 1, 67, 0
2, 208680, Note_on_c, 1, 65, 70
2, 208776, Note_off_c, 1, 65, 0
2, 208800, Note_on_c, 1, 72, 70
2, 209160, Note_off_c, 1, 72, 0
2, 209760, Note_on_c, 1, 76, 73
2, 210120, Note_off_c, 1, 76, 0
2, 210240, Note_on_c, 1, 77, 74
2, 210600, Note_off_c, 1, 77, 0
2, 210720, Note_on_c, 1, 82, 76
2, 211080, Note_off_c, 1, 82, 0
2, 211200, Note_on_c, 1, 81, 77
2, 211560, Note_off_c, 1, 81, 0
2, 211680, Note_on_c, 1, 84, 79
2, 212040, Note_off_c, 1, 84, 0
2, 212640, Note_on_c, 1, 76, 81
2, 213000, Note_off_c, 1, 76, 0
2, 213120, Note_on_c, 1, 77, 83
2, 213480, Note_off_c, 1, 77, 0
2, 213600, Note_on_c, 1, 82, 84
2, 213960, Note_off_c, 1, 82, 0
2, 214080, Note_on_c, 1, 81, 86
2, 214440, Note_off_c, 1, 81, 0
2, 214560, Note_on_c, 1, 84, 87
2, 214920, Note_off_c, 1, 84, 0
2, 215040, Note_on_c, 1, 60, 82
2, 215400, Note_off_c, 1, 60, 0
2, 216000, Note_on_c, 1, 60, 48
2, 216360, Note_off_c, 1, 60, 0
2, 216360, Note_on_c, 1, 57, 49
2, 216480, Note_off_c, 1, 57, 0
2, 216480, Note_on_c, 1, 65, 50
2, 216840, Note_off_c, 1, 65, 0
2, 216840, Note_on_c, 1, 60, 51
2, 216960, Note_off_c, 1, 60, 0
2, 216960, Note_on_c, 1, 69, 51
2, 217320, Note_off_c, 1, 69, 0
2, 217320, Note_on_c, 1, 65, 52
2, 217440, Note_off_c, 1, 65, 0
2, 217440, Note_on_c, 1, 72, 52
2, 217595, Note_off_c, 1, 72, 0
2, 217680, Note_on_c, 1, 72, 53
2, 217835, Note_off_c, 1, 72, 0
2, 217920, Note_on_c, 1, 72, 53
2, 218075, Note_off_c, 1, 72, 0
2, 218160, Note_on_c, 1, 72, 54
2, 218315, Note_off_c, 1, 72, 0
2, 218400, Note_on_c, 1, 72, 54
2, 218555, Note_off_c, 1, 72, 0
2, 218640, Note_on_c, 1, 72, 55
2, 218795, Note_off_c, 1, 72, 0
2, 218880, Note_on_c, 1, 72, 56
2, 219240, Note_off_c, 1, 72, 0
2, 219240, Note_on_c, 1, 69, 56
2, 219360, Note_off_c, 1, 69, 0
2, 219360, Note_on_c, 1, 67, 57
2, 219840, Note_off_c, 1, 67, 0
2, 219840, Note_on_c, 1, 69, 58
2, 220260, Note_off_c, 1, 69, 0
2, 220320, Note_on_c, 1, 72, 58
2, 220800, Note_off_c, 1, 72, 0
2, 220800, Note_on_c, 1, 70, 54
2, 221227, Note_off_c, 1, 70, 0
2, 221760, Note_on_c, 1, 58, 44
2, 222120, Note_off_c, 1, 58, 0
2, 222120, Note_on_c, 1, 55, 45
2, 222240, Note_off_c, 1, 55, 0
2, 222240, Note_on_c, 1, 64, 46
2, 222600, Note_off_c, 1, 64, 0
2, 222600, Note_on_c, 1, 58, 47
2, 222720, Note_off_c, 1, 58, 0
2, 222720, Note_on_c, 1, 67, 47
2, 223080, Note_off_c, 1, 67, 0
2, 223080, Note_on_c, 1, 64, 49
2, 223200, Note_off_c, 1, 64, 0
2, 223200, Note_on_c, 1, 70, 49
2, 223355, Note_off_c, 1, 70, 0
2, 223440, Note_on_c, 1, 70, 50
2, 223595, Note_off_c, 1, 70, 0
2, 223680, Note_on_c, 1, 70, 51
2, 223835, Note_off_c, 1, 70, 0
2, 223920, Note_on_c, 1, 70, 51
2, 224075, Note_off_c, 1, 70, 0
2, 224160, Note_on_c, 1, 70, 52
2, 224315, Note_off_c, 1, 70, 0
2, 224400, Note_on_c, 1, 70, 53
2, 224555, Note_off_c, 1, 70, 0
2, 224640, Note_on_c, 1, 70, 54
2, 225000, Note_off_c, 1, 70, 0
2, 225000, Note_on_c, 1, 67, 55
2, 225120, Note_off_c, 1, 67, 0
2, 225120, Note_on_c, 1, 65, 56
2, 225600, Note_off_c, 1, 65, 0
2, 225600, Note_on_c, 1, 67, 57
2, 226027, Note_off_c, 1, 67, 0
2, 226080, Note_on_c, 1, 70, 59
2, 226560, Note_off_c, 1, 70, 0
2, 226560, Note_on_c, 1, 69, 55
2, 226980, Note_off_c, 1, 69, 0
2, 227520, Note_on_c, 1, 69, 44
2, 227880, Note_off_c, 1, 69, 0
2, 227880, Note_on_c, 1, 67, 47
2, 227976, Note_off_c, 1, 67, 0
2, 228000, Note_on_c, 1, 67, 48
2, 228480, Note_off_c, 1, 67, 0
2, 228480, Note_on_c, 1, 69, 51
2, 228907, Note_off_c, 1, 69, 0
2, 228960, Note_on_c, 1, 72, 55
2, 229320, Note_off_c, 1, 72, 0
2, 229320, Note_on_c, 1, 71, 54
2, 229440, Note_off_c, 1, 71, 0
2, 229440, Note_on_c, 1, 70, 53
2, 229920, Note_off_c, 1, 70, 0
2, 229920, Note_on_c, 1, 69, 51
2, 230347, Note_off_c, 1, 69, 0
2, 230400, Note_on_c, 1, 86, 50
2, 230520, Note_off_c, 1, 86, 0
2, 230520, Note_on_c, 1, 82, 51
2, 230640, Note_off_c, 1, 82, 0
2, 230640, Note_on_c, 1, 86, 52
2, 230760, Note_off_c, 1, 86, 0
2, 230760, Note_on_c, 1, 82, 52
2, 230880, Note_off_c, 1, 82, 0
2, 230880, Note_on_c, 1, 79, 53
2, 231360, Note_off_c, 1, 79, 0
2, 231360, Note_on_c, 1, 81, 56
2, 231787, Note_off_c, 1, 81, 0
2, 231840, Note_on_c, 1, 84, 59
2, 231960, Note_off_c, 1, 84, 0
2, 231960, Note_on_c, 1, 83, 59
2, 232080, Note_off_c, 1, 83, 0
2, 232080, Note_on_c, 1, 86, 58
2, 232200, Note_off_c, 1, 86, 0
2, 232200, Note_on_c, 1, 84, 57
2, 232320, Note_off_c, 1, 84, 0
2, 232320, Note_on_c, 1, 82, 55
2, 232800, Note_off_c, 1, 82, 0
2, 232800, Note_on_c, 1, 81, 51
2, 233220, Note_off_c, 1, 81, 0
2, 233280, Note_on_c, 1, 81, 51
2, 233640, Note_off_c, 1, 81, 0
2, 233640, Note_on_c, 1, 79, 55
2, 233736, Note_off_c, 1, 79, 0
2, 233760, Note_on_c, 1, 86, 56
2, 234480, Note_off_c, 1, 86, 0
2, 234480, Note_on_c, 1, 77, 62
2, 234672, Note_off_c, 1, 77, 0
2, 234720, Note_on_c, 1, 76, 66
2, 234960, Note_off_c, 1, 76, 0
2, 241920, Note_on_c, 1, 65, 74
2, 242160, Note_off_c, 1, 65, 0
2, 242400, Note_on_c, 1, 69, 77
2, 242640, Note_off_c, 1, 69, 0
2, 242880, Note_on_c, 1, 72, 80
2, 243120, Note_off_c, 1, 72, 0
2, 243360, Note_on_c, 1, 77, 83
2, 243600, Note_off_c, 1, 77, 0
2, 243840, Note_on_c, 1, 81, 88
2, 244560, Note_off_c, 1, 81, 0
2, 244560, Note_on_c, 1, 79, 82
2, 244680, Note_off_c, 1, 79, 0
2, 244680, Note_on_c, 1, 77, 81
2, 244800, Note_off_c, 1, 77, 0
2, 244800, Note_on_c, 1, 76, 80
2, 245040, Note_off_c, 1, 76, 0
2, 245280, Note_on_c, 1, 79, 88
2, 245520, Note_off_c, 1, 79, 0
2, 245760, Note_on_c, 1, 82, 99
2, 246480, Note_off_c, 1, 82, 0
2, 246480, Note_on_c, 1, 79, 92
2, 246635, Note_off_c, 1, 79, 0
2, 246720, Note_on_c, 1, 76, 90
2, 246875, Note_off_c, 1, 76, 0
2, 246960, Note_on_c, 1, 72, 87
2, 247115, Note_off_c, 1, 72, 0
2, 247200, Note_on_c, 1, 70, 85
2, 247355, Note_off_c, 1, 70, 0
2, 247440, Note_on_c, 1, 67, 82
2, 247595, Note_off_c, 1, 67, 0
2, 247680, Note_on_c, 1, 65, 80
2, 247920, Note_off_c, 1, 65, 0
2, 248160, Note_on_c, 1, 84, 48
2, 248640, Note_off_c, 1, 84, 0
2, 248640, Note_on_c, 1, 82, 52
2, 249067, Note_off_c, 1, 82, 0
2, 249120, Note_on_c, 1, 81, 55
2, 249600, Note_off_c, 1, 81, 0
2, 249600, Note_on_c, 1, 82, 47
2, 249792, Note_off_c, 1, 82, 0
2, 249840, Note_on_c, 1, 82, 48
2, 250080, Note_off_c, 1, 82, 0
2, 250080, Note_on_c, 1, 86, 50
2, 250320, Note_off_c, 1, 86, 0
2, 250320, Note_on_c, 1, 82, 51
2, 250512, Note_off_c, 1, 82, 0
2, 250560, Note_on_c, 1, 79, 52
2, 251040, Note_off_c, 1, 79, 0
2, 251040, Note_on_c, 1, 81, 45
2, 251232, Note_off_c, 1, 81, 0
2, 251280, Note_on_c, 1, 84, 46
2, 251472, Note_off_c, 1, 84, 0
2, 251520, Note_on_c, 1, 86, 46
2, 251640, Note_off_c, 1, 86, 0
2, 251640, Note_on_c, 1, 84, 47
2, 251760, Note_off_c, 1, 84, 0
2, 251760, Note_on_c, 1, 82, 47
2, 251880, Note_off_c, 1, 82, 0
2, 251880, Note_on_c, 1, 81, 48
2, 252000, Note_off_c, 1, 81, 0
2, 252000, Note_on_c, 1, 78, 48
2, 252120, Note_off_c, 1, 78, 0
2, 252120, Note_on_c, 1, 79, 49
2, 252240, Note_off_c, 1, 79, 0
2, 252480, Note_on_c, 1, 78, 50
2, 252600, Note_off_c, 1, 78, 0
2, 252600, Note_on_c, 1, 79, 50
2, 252720, Note_off_c, 1, 79, 0
2, 252960, Note_on_c, 1, 78, 51
2, 253080, Note_off_c, 1, 78, 0
2, 253080, Note_on_c, 1, 79, 52
2, 253200, Note_off_c, 1, 79, 0
2, 253440, Note_on_c, 1, 86, 53
2, 253600, Note_off_c, 1, 86, 0
2, 253600, Note_on_c, 1, 82, 52
2, 253760, Note_off_c, 1, 82, 0
2, 253760, Note_on_c, 1, 79, 50
2, 253890, Note_off_c, 1, 79, 0
2, 253920, Note_on_c, 1, 77, 49
2, 254400, Note_off_c, 1, 77, 0
2, 254400, Note_on_c, 1, 76, 45
2, 254480, Note_off_c, 1, 76, 0
2, 254480, Note_on_c, 1, 77, 44
2, 254560, Note_off_c, 1, 77, 0
2, 254560, Note_on_c, 1, 76, 43
2, 254640, Note_off_c, 1, 76, 0
2, 254640, Note_on_c, 1, 74, 43
2, 254760, Note_off_c, 1, 74, 0
2, 254760, Note_on_c, 1, 76, 42
2, 254880, Note_off_c, 1, 76, 0
2, 254880, Note_on_c, 1, 77, 41
2, 255307, Note_off_c, 1, 77, 0
2, 256320, Note_on_c, 1, 75, 49
2, 256800, Note_off_c, 1, 75, 0
2, 256800, Note_on_c, 1, 74, 41
2, 257040, Note_off_c, 1, 74, 0
2, 257760, Note_on_c, 1, 73, 48
2, 258240, Note_off_c, 1, 73, 0
2, 258240, Note_on_c, 1, 72, 37
2, 258432, Note_off_c, 1, 72, 0
2, 258480, Note_on_c, 1, 72, 38
2, 258600, Note_off_c, 1, 72, 0
2, 258600, Note_on_c, 1, 71, 39
2, 258720, Note_off_c, 1, 71, 0
2, 258720, Note_on_c, 1, 74, 39
2, 258840, Note_off_c, 1, 74, 0
2, 258840, Note_on_c, 1, 72, 40
2, 258960, Note_off_c, 1, 72, 0
2, 258960, Note_on_c, 1, 70, 41
2, 259080, Note_off_c, 1, 70, 0
2, 259080, Note_on_c, 1, 69, 41
2, 259200, Note_off_c, 1, 69, 0
2, 259200, Note_on_c, 1, 69, 42
2, 259320, Note_off_c, 1, 69, 0
2, 259320, Note_on_c, 1, 67, 43
2, 259440, Note_off_c, 1, 67, 0
2, 259680, Note_on_c, 1, 66, 44
2, 259800, Note_off_c, 1, 66, 0
2, 259800, Note_on_c, 1, 67, 45
2, 259920, Note_off_c, 1, 67, 0
2, 260160, Note_on_c, 1, 66, 47
2, 260280, Note_off_c, 1, 66, 0
2, 260280, Note_on_c, 1, 67, 47
2, 260400, Note_off_c, 1, 67, 0
2, 260640, Note_on_c, 1, 73, 49
2, 260760, Note_off_c, 1, 73, 0
2, 260760, Note_on_c, 1, 74, 48
2, 260880, Note_off_c, 1, 74, 0
2, 260880, Note_on_c, 1, 70, 47
2, 261000, Note_off_c, 1, 70, 0
2, 261000, Note_on_c, 1, 67, 46
2, 261097, Note_off_c, 1, 67, 0
2, 261120, Note_on_c, 1, 65, 45
2, 261600, Note_off_c, 1, 65, 0
2, 261600, Note_on_c, 1, 64, 41
2, 261680, Note_off_c, 1, 64, 0
2, 261680, Note_on_c, 1, 65, 40
2, 261760, Note_off_c, 1, 65, 0
2, 261760, Note_on_c, 1, 64, 39
2, 261840, Note_off_c, 1, 64, 0
2, 261840, Note_on_c, 1, 62, 39
2, 261960, Note_off_c, 1, 62, 0
2, 261960, Note_on_c, 1, 64, 38
2, 262080, Note_off_c, 1, 64, 0
2, 262080, Note_on_c, 1, 65, 36
2, 262500, Note_off_c, 1, 65, 0
2, 262800, Note_on_c, 1, 67, 55
2, 262955, Note_off_c, 1, 67, 0
2, 263040, Note_on_c, 1, 69, 56
2, 263195, Note_off_c, 1, 69, 0
2, 263280, Note_on_c, 1, 70, 57
2, 263435, Note_off_c, 1, 70, 0
2, 263520, Note_on_c, 1, 72, 57
2, 263947, Note_off_c, 1, 72, 0
2, 264240, Note_on_c, 1, 74, 59
2, 264395, Note_off_c, 1, 74, 0
2, 264480, Note_on_c, 1, 75, 60
2, 264635, Note_off_c, 1, 75, 0
2, 264720, Note_on_c, 1, 69, 61
2, 264875, Note_off_c, 1, 69, 0
2, 264960, Note_on_c, 1, 70, 61
2, 265387, Note_off_c, 1, 70, 0
2, 265680, Note_on_c, 1, 69, 63
2, 265835, Note_off_c, 1, 69, 0
2, 265920, Note_on_c, 1, 70, 64
2, 266075, Note_off_c, 1, 70, 0
2, 266160, Note_on_c, 1, 72, 65
2, 266315, Note_off_c, 1, 72, 0
2, 266400, Note_on_c, 1, 74, 65
2, 266820, Note_off_c, 1, 74, 0
2, 267120, Note_on_c, 1, 76, 67
2, 267275, Note_off_c, 1, 76, 0
2, 267360, Note_on_c, 1, 77, 68
2, 267515, Note_off_c, 1, 77, 0
2, 267600, Note_on_c, 1, 74, 69
2, 267755, Note_off_c, 1, 74, 0
2, 267840, Note_on_c, 1, 72, 69
2, 267960, Note_off_c, 1, 72, 0
2, 267960, Note_on_c, 1, 65, 70
2, 268080, Note_off_c, 1, 65, 0
2, 268080, Note_on_c, 1, 67, 70
2, 268200, Note_off_c, 1, 67, 0
2, 268200, Note_on_c, 1, 69, 70
2, 268320, Note_off_c, 1, 69, 0
2, 268320, Note_on_c, 1, 70, 71
2, 268440, Note_off_c, 1, 70, 0
2, 268440, Note_on_c, 1, 72, 71
2, 268560, Note_off_c, 1, 72, 0
2, 268560, Note_on_c, 1, 74, 71
2, 268680, Note_off_c, 1, 74, 0
2, 268680, Note_on_c, 1, 76, 72
2, 268800, Note_off_c, 1, 76, 0
2, 268800, Note_on_c, 1, 77, 72
2, 268920, Note_off_c, 1, 77, 0
2, 268920, Note_on_c, 1, 79, 72
2, 269040, Note_off_c, 1, 79, 0
2, 269040, Note_on_c, 1, 81, 73
2, 269160, Note_off_c, 1, 81, 0
2, 269160, Note_on_c, 1, 82, 73
2, 269280, Note_off_c, 1, 82, 0
2, 269280, Note_on_c, 1, 84, 73
2, 269400, Note_off_c, 1, 84, 0
2, 269400, Note_on_c, 1, 86, 74
2, 269520, Note_off_c, 1, 86, 0
2, 269520, Note_on_c, 1, 82, 74
2, 269640, Note_off_c, 1, 82, 0
2, 269640, Note_on_c, 1, 84, 74
2, 269760, Note_off_c, 1, 84, 0
2, 269760, Note_on_c, 1, 81, 75
2, 269880, Note_off_c, 1, 81, 0
2, 269880, Note_on_c, 1, 82, 75
2, 270000, Note_off_c, 1, 82, 0
2, 270000, Note_on_c, 1, 79, 75
2, 270120, Note_off_c, 1, 79, 0
2, 270120, Note_on_c, 1, 81, 76
2, 270240, Note_off_c, 1, 81, 0
2, 270240, Note_on_c, 1, 77, 76
2, 270360, Note_off_c, 1, 77, 0
2, 270360, Note_on_c, 1, 79, 76
2, 270480, Note_off_c, 1, 79, 0
2, 270480, Note_on_c, 1, 75, 77
2, 270600, Note_off_c, 1, 75, 0
2, 270600, Note_on_c, 1, 77, 77
2, 270720, Note_off_c, 1, 77, 0
2, 270720, Note_on_c, 1, 74, 77
2, 271200, Note_off_c, 1, 74, 0
2, 271200, Note_on_c, 1, 86, 79
2, 271440, Note_off_c, 1, 86, 0
2, 271920, Note_on_c, 1, 86, 81
2, 272112, Note_off_c, 1, 86, 0
2, 272160, Note_on_c, 1, 84, 81
2, 272400, Note_off_c, 1, 84, 0
2, 272400, Note_on_c, 1, 86, 79
2, 272520, Note_off_c, 1, 86, 0
2, 272520, Note_on_c, 1, 82, 78
2, 272617, Note_off_c, 1, 82, 0
2, 272640, Note_on_c, 1, 81, 78
2, 273120, Note_off_c, 1, 81, 0
2, 273120, Note_on_c, 1, 79, 74
2, 273200, Note_off_c, 1, 79, 0
2, 273200, Note_on_c, 1, 81, 73
2, 273280, Note_off_c, 1, 81, 0
2, 273280, Note_on_c, 1, 79, 73
2, 273360, Note_off_c, 1, 79, 0
2, 273360, Note_on_c, 1, 77, 72
2, 273480, Note_off_c, 1, 77, 0
2, 273480, Note_on_c, 1, 79, 72
2, 273600, Note_off_c, 1, 79, 0
2, 273600, Note_on_c, 1, 77, 72
2, 273720, Note_off_c, 1, 77, 0
2, 273720, Note_on_c, 1, 65, 72
2, 273840, Note_off_c, 1, 65, 0
2, 273840, Note_on_c, 1, 67, 73
2, 273960, Note_off_c, 1, 67, 0
2, 273960, Note_on_c, 1, 69, 73
2, 274080, Note_off_c, 1, 69, 0
2, 274080, Note_on_c, 1, 70, 74
2, 274200, Note_off_c, 1, 70, 0
2, 274200, Note_on_c, 1, 72, 74
2, 274320, Note_off_c, 1, 72, 0
2, 274320, Note_on_c, 1, 74, 75
2, 274440, Note_off_c, 1, 74, 0
2, 274440, Note_on_c, 1, 76, 75
2, 274560, Note_off_c, 1, 76, 0
2, 274560, Note_on_c, 1, 77, 76
2, 274680, Note_off_c, 1, 77, 0
2, 274680, Note_on_c, 1, 79, 76
2, 274800, Note_off_c, 1, 79, 0
2, 274800, Note_on_c, 1, 81, 77
2, 274920, Note_off_c, 1, 81, 0
2, 274920, Note_on_c, 1, 82, 77
2, 275040, Note_off_c, 1, 82, 0
2, 275040, Note_on_c, 1, 84, 78
2, 275160, Note_off_c, 1, 84, 0
2, 275160, Note_on_c, 1, 86, 78
2, 275280, Note_off_c, 1, 86, 0
2, 275280, Note_on_c, 1, 82, 79
2, 275400, Note_off_c, 1, 82, 0
2, 275400, Note_on_c, 1, 84, 79
2, 275520, Note_off_c, 1, 84, 0
2, 275520, Note_on_c, 1, 81, 80
2, 275640, Note_off_c, 1, 81, 0
2, 275640, Note_on_c, 1, 82, 80
2, 275760, Note_off_c, 1, 82, 0
2, 275760, Note_on_c, 1, 79, 80
2, 275880, Note_off_c, 1, 79, 0
2, 275880, Note_on_c, 1, 81, 81
2, 276000, Note_off_c, 1, 81, 0
2, 276000, Note_on_c, 1, 77, 81
2, 276120, Note_off_c, 1, 77, 0
2, 276120, Note_on_c, 1, 79, 82
2, 276240, Note_off_c, 1, 79, 0
2, 276240, Note_on_c, 1, 75, 82
2, 276360, Note_off_c, 1, 75, 0
2, 276360, Note_on_c, 1, 77, 83
2, 276480, Note_off_c, 1, 77, 0
2, 276480, Note_on_c, 1, 74, 83
2, 276960, Note_off_c, 1, 74, 0
2, 276960, Note_on_c, 1, 86, 85
2, 277200, Note_off_c, 1, 86, 0
2, 277680, Note_on_c, 1, 86, 88
2, 277872, Note_off_c, 1, 86, 0
2, 277920, Note_on_c, 1, 84, 89
2, 278160, Note_off_c, 1, 84, 0
2, 278160, Note_on_c, 1, 86, 88
2, 278280, Note_off_c, 1, 86, 0
2, 278280, Note_on_c, 1, 82, 88
2, 278376, Note_off_c, 1, 82, 0
2, 278400, Note_on_c, 1, 81, 87
2, 278880, Note_off_c, 1, 81, 0
2, 278880, Note_on_c, 1, 79, 85
2, 278960, Note_off_c, 1, 79, 0
2, 278960, Note_on_c, 1, 81, 85
2, 279040, Note_off_c, 1, 81, 0
2, 279040, Note_on_c, 1, 79, 85
2, 279120, Note_off_c, 1, 79, 0
2, 279120, Note_on_c, 1, 77, 84
2, 279240, Note_off_c, 1, 77, 0
2, 279240, Note_on_c, 1, 79, 84
2, 279360, Note_off_c, 1, 79, 0
2, 279360, Note_on_c, 1, 77, 84
2, 279456, Note_off_c, 1, 77, 0
2, 279480, Note_on_c, 1, 72, 85
2, 279576, Note_off_c, 1, 72, 0
2, 279600, Note_on_c, 1, 77, 85
2, 279696, Note_off_c, 1, 77, 0
2, 279720, Note_on_c, 1, 81, 86
2, 279816, Note_off_c, 1, 81, 0
2, 279840, Note_on_c, 1, 84, 86
2, 279936, Note_off_c, 1, 84, 0
2, 279960, Note_on_c, 1, 81, 87
2, 280056, Note_off_c, 1, 81, 0
2, 280080, Note_on_c, 1, 77, 88
2, 280176, Note_off_c, 1, 77, 0
2, 280200, Note_on_c, 1, 72, 88
2, 280296, Note_off_c, 1, 72, 0
2, 280320, Note_on_c, 1, 82, 89
2, 280416, Note_off_c, 1, 82, 0
2, 280440, Note_on_c, 1, 79, 90
2, 280536, Note_off_c, 1, 79, 0
2, 280560, Note_on_c, 1, 76, 90
2, 280656, Note_off_c, 1, 76, 0
2, 280680, Note_on_c, 1, 72, 91
2, 280776, Note_off_c, 1, 72, 0
2, 280800, Note_on_c, 1, 77, 91
2, 280896, Note_off_c, 1, 77, 0
2, 280920, Note_on_c, 1, 72, 92
2, 281016, Note_off_c, 1, 72, 0
2, 281040, Note_on_c, 1, 77, 93
2, 281136, Note_off_c, 1, 77, 0
2, 281160, Note_on_c, 1, 81, 93
2, 281256, Note_off_c, 1, 81, 0
2, 281280, Note_on_c, 1, 84, 94
2, 281376, Note_off_c, 1, 84, 0
2, 281400, Note_on_c, 1, 81, 95
2, 281496, Note_off_c, 1, 81, 0
2, 281520, Note_on_c, 1, 77, 95
2, 281616, Note_off_c, 1, 77, 0
2, 281640, Note_on_c, 1, 72, 96
2, 281736, Note_off_c, 1, 72, 0
2, 281760, Note_on_c, 1, 82, 96
2, 281856, Note_off_c, 1, 82, 0
2, 281880, Note_on_c, 1, 79, 97
2, 281976, Note_off_c, 1, 79, 0
2, 282000, Note_on_c, 1, 76, 98
2, 282096, Note_off_c, 1, 76, 0
2, 282120, Note_on_c, 1, 72, 98
2, 282216, Note_off_c, 1, 72, 0
2, 282240, Note_on_c, 1, 77, 99
2, 282600, Note_off_c, 1, 77, 0
2, 282720, Note_on_c, 1, 89, 96
2, 283087, Note_off_c, 1, 89, 0
2, 284160, Control_c, 1, 64, 0
2, 284160, Note_on_c, 1, 84, 59
2, 284315, Note_off_c, 1, 84, 0
2, 284400, Note_on_c, 1, 84, 58
2, 284555, Note_off_c, 1, 84, 0
2, 284640, Note_on_c, 1, 81, 57
2, 284795, Note_off_c, 1, 81, 0
2, 285120, Note_on_c, 1, 82, 54
2, 285275, Note_off_c, 1, 82, 0
2, 285360, Note_on_c, 1, 82, 53
2, 285515, Note_off_c, 1, 82, 0
2, 285600, Note_on_c, 1, 79, 52
2, 285755, Note_off_c, 1, 79, 0
2, 286080, Note_on_c, 1, 77, 70
2, 286200, Note_off_c, 1, 77, 0
2, 286200, Note_on_c, 1, 79, 71
2, 286320, Note_off_c, 1, 79, 0
2, 286320, Note_on_c, 1, 81, 72
2, 286440, Note_off_c, 1, 81, 0
2, 286440, Note_on_c, 1, 77, 74
2, 286560, Note_off_c, 1, 77, 0
2, 286560, Note_on_c, 1, 76, 77
2, 286680, Note_off_c, 1, 76, 0
2, 286680, Note_on_c, 1, 74, 76
2, 286800, Note_off_c, 1, 74, 0
2, 286800, Note_on_c, 1, 76, 74
2, 286920, Note_off_c, 1, 76, 0
2, 286920, Note_on_c, 1, 78, 73
2, 287040, Note_off_c, 1, 78, 0
2, 287040, Note_on_c, 1, 79, 71
2, 287160, Note_off_c, 1, 79, 0
2, 287160, Note_on_c, 1, 81, 70
2, 287280, Note_off_c, 1, 81, 0
2, 287280, Note_on_c, 1, 82, 69
2, 287400, Note_off_c, 1, 82, 0
2, 287400, Note_on_c, 1, 79, 67
2, 287520, Note_off_c, 1, 79, 0
2, 287520, Note_on_c, 1, 77, 66
2, 287640, Note_off_c, 1, 77, 0
2, 287640, Note_on_c, 1, 76, 65
2, 287760, Note_off_c, 1, 76, 0
2, 287760, Note_on_c, 1, 74, 63
2, 287880, Note_off_c, 1, 74, 0
2, 287880, Note_on_c, 1, 72, 62
2, 288000, Note_off_c, 1, 72, 0
2, 288000, Note_on_c, 1, 84, 49
2, 288155, Note_off_c, 1, 84, 0
2, 288240, Note_on_c, 1, 84, 48
2, 288395, Note_off_c, 1, 84, 0
2, 288480, Note_on_c, 1, 81, 46
2, 288635, Note_off_c, 1, 81, 0
2, 288960, Note_on_c, 1, 86, 43
2, 289115, Note_off_c, 1, 86, 0
2, 289200, Note_on_c, 1, 86, 42
2, 289355, Note_off_c, 1, 86, 0
2, 289440, Note_on_c, 1, 79, 40
2, 289595, Note_off_c, 1, 79, 0
2, 289920, Note_on_c, 1, 86, 62
2, 290040, Note_off_c, 1, 86, 0
2, 290040, Note_on_c, 1, 84, 64
2, 290160, Note_off_c, 1, 84, 0
2, 290160, Note_on_c, 1, 82, 66
2, 290280, Note_off_c, 1, 82, 0
2, 290280, Note_on_c, 1, 81, 68
2, 290400, Note_off_c, 1, 81, 0
2, 290400, Note_on_c, 1, 78, 73
2, 290520, Note_off_c, 1, 78, 0
2, 290520, Note_on_c, 1, 79, 71
2, 290640, Note_off_c, 1, 79, 0
2, 290640, Note_on_c, 1, 81, 70
2, 290760, Note_off_c, 1, 81, 0
2, 290760, Note_on_c, 1, 82, 68
2, 290880, Note_off_c, 1, 82, 0
2, 290880, Note_on_c, 1, 74, 66
2, 291000, Note_off_c, 1, 74, 0
2, 291000, Note_on_c, 1, 77, 64
2, 291120, Note_off_c, 1, 77, 0
2, 291120, Note_on_c, 1, 76, 63
2, 291240, Note_off_c, 1, 76, 0
2, 291240, Note_on_c, 1, 79, 61
2, 291360, Note_off_c, 1, 79, 0
2, 291360, Note_on_c, 1, 77, 59
2, 291515, Note_off_c, 1, 77, 0
2, 291840, Note_on_c, 1, 81, 70
2, 291960, Note_off_c, 1, 81, 0
2, 291960, Note_on_c, 1, 83, 72
2, 292080, Note_off_c, 1, 83, 0
2, 292080, Note_on_c, 1, 84, 74
2, 292160, Note_off_c, 1, 84, 0
2, 292200, Note_on_c, 1, 84, 75
2, 292280, Note_off_c, 1, 84, 0
2, 292320, Note_on_c, 1, 86, 79
2, 292440, Note_off_c, 1, 86, 0
2, 292440, Note_on_c, 1, 84, 78
2, 292560, Note_off_c, 1, 84, 0
2, 292560, Note_on_c, 1, 83, 77
2, 292680, Note_off_c, 1, 83, 0
2, 292680, Note_on_c, 1, 81, 76
2, 292800, Note_off_c, 1, 81, 0
2, 292800, Note_on_c, 1, 79, 75
2, 292880, Note_off_c, 1, 79, 0
2, 292920, Note_on_c, 1, 78, 75
2, 293000, Note_off_c, 1, 78, 0
2, 293040, Note_on_c, 1, 79, 74
2, 293120, Note_off_c, 1, 79, 0
2, 293160, Note_on_c, 1, 77, 73
2, 293240, Note_off_c, 1, 77, 0
2, 293280, Note_on_c, 1, 75, 72
2, 293400, Note_off_c, 1, 75, 0
2, 293400, Note_on_c, 1, 76, 71
2, 293520, Note_off_c, 1, 76, 0
2, 293520, Note_on_c, 1, 77, 70
2, 293640, Note_off_c, 1, 77, 0
2, 293640, Note_on_c, 1, 76, 69
2, 293760, Note_off_c, 1, 76, 0
2, 293760, Note_on_c, 1, 81, 68
2, 293880, Note_off_c, 1, 81, 0
2, 293880, Note_on_c, 1, 79, 69
2, 294000, Note_off_c, 1, 79, 0
2, 294000, Note_on_c, 1, 77, 70
2, 294120, Note_off_c, 1, 77, 0
2, 294120, Note_on_c, 1, 76, 71
2, 294240, Note_off_c, 1, 76, 0
2, 294240, Note_on_c, 1, 73, 75
2, 294360, Note_off_c, 1, 73, 0
2, 294360, Note_on_c, 1, 74, 74
2, 294480, Note_off_c, 1, 74, 0
2, 294480, Note_on_c, 1, 76, 72
2, 294600, Note_off_c, 1, 76, 0
2, 294600, Note_on_c, 1, 77, 71
2, 294720, Note_off_c, 1, 77, 0
2, 294720, Note_on_c, 1, 69, 69
2, 294840, Note_off_c, 1, 69, 0
2, 294840, Note_on_c, 1, 71, 67
2, 294960, Note_off_c, 1, 71, 0
2, 294960, Note_on_c, 1, 72, 66
2, 295080, Note_off_c, 1, 72, 0
2, 295080, Note_on_c, 1, 74, 64
2, 295200, Note_off_c, 1, 74, 0
2, 295200, Note_on_c, 1, 72, 63
2, 295320, Note_off_c, 1, 72, 0
2, 295320, Note_on_c, 1, 71, 61
2, 295440, Note_off_c, 1, 71, 0
2, 295440, Note_on_c, 1, 69, 59
2, 295560, Note_off_c, 1, 69, 0
2, 295560, Note_on_c, 1, 67, 58
2, 295680, Note_off_c, 1, 67, 0
2, 295680, Note_on_c, 1, 79, 59
2, 295835, Note_off_c, 1, 79, 0
2, 295920, Note_on_c, 1, 79, 58
2, 296075, Note_off_c, 1, 79, 0
2, 296160, Note_on_c, 1, 76, 56
2, 296315, Note_off_c, 1, 76, 0
2, 296640, Note_on_c, 1, 77, 53
2, 296795, Note_off_c, 1, 77, 0
2, 296880, Note_on_c, 1, 77, 52
2, 297035, Note_off_c, 1, 77, 0
2, 297120, Note_on_c, 1, 74, 50
2, 297275, Note_off_c, 1, 74, 0
2, 297600, Note_on_c, 1, 84, 71
2, 297720, Note_off_c, 1, 84, 0
2, 297720, Note_on_c, 1, 86, 73
2, 297840, Note_off_c, 1, 86, 0
2, 297840, Note_on_c, 1, 88, 74
2, 297960, Note_off_c, 1, 88, 0
2, 297960, Note_on_c, 1, 84, 76
2, 298080, Note_off_c, 1, 84, 0
2, 298080, Note_on_c, 1, 80, 78
2, 298200, Note_off_c, 1, 80, 0
2, 298200, Note_on_c, 1, 81, 77
2, 298320, Note_off_c, 1, 81, 0
2, 298320, Note_on_c, 1, 84, 75
2, 298440, Note_off_c, 1, 84, 0
2, 298440, Note_on_c, 1, 81, 73
2, 298560, Note_off_c, 1, 81, 0
2, 298560, Note_on_c, 1, 79, 71
2, 298680, Note_off_c, 1, 79, 0
2, 298680, Note_on_c, 1, 76, 69
2, 298800, Note_off_c, 1, 76, 0
2, 298800, Note_on_c, 1, 77, 67
2, 298920, Note_off_c, 1, 77, 0
2, 298920, Note_on_c, 1, 74, 66
2, 299040, Note_off_c, 1, 74, 0
2, 299040, Note_on_c, 1, 72, 64
2, 299280, Note_off_c, 1, 72, 0
2, 299520, Note_on_c, 1, 72, 40
2, 299640, Note_off_c, 1, 72, 0
2, 299640, Note_on_c, 1, 74, 43
2, 299760, Note_off_c, 1, 74, 0
2, 299760, Note_on_c, 1, 76, 46
2, 299880, Note_off_c, 1, 76, 0
2, 299880, Note_on_c, 1, 77, 50
2, 300000, Note_off_c, 1, 77, 0
2, 300000, Note_on_c, 1, 79, 55
2, 300192, Note_off_c, 1, 79, 0
2, 300480, Note_on_c, 1, 76, 57
2, 300600, Note_off_c, 1, 76, 0
2, 300600, Note_on_c, 1, 77, 61
2, 300720, Note_off_c, 1, 77, 0
2, 300720, Note_on_c, 1, 79, 65
2, 300840, Note_off_c, 1, 79, 0
2, 300840, Note_on_c, 1, 81, 68
2, 300960, Note_off_c, 1, 81, 0
2, 300960, Note_on_c, 1, 82, 72
2, 301152, Note_off_c, 1, 82, 0
2, 301440, Note_on_c, 1, 79, 75
2, 301560, Note_off_c, 1, 79, 0
2, 301560, Note_on_c, 1, 81, 79
2, 301680, Note_off_c, 1, 81, 0
2, 301680, Note_on_c, 1, 82, 83
2, 301800, Note_off_c, 1, 82, 0
2, 301800, Note_on_c, 1, 84, 87
2, 301920, Note_off_c, 1, 84, 0
2, 301920, Note_on_c, 1, 86, 90
2, 302075, Note_off_c, 1, 86, 0
2, 302160, Note_on_c, 1, 85, 82
2, 302315, Note_off_c, 1, 85, 0
2, 302400, Note_on_c, 1, 84, 74
2, 302555, Note_off_c, 1, 84, 0
2, 302640, Note_on_c, 1, 83, 66
2, 302795, Note_off_c, 1, 83, 0
2, 302880, Note_on_c, 1, 82, 58
2, 303035, Note_off_c, 1, 82, 0
2, 303360, Note_on_c, 1, 84, 61
2, 303515, Note_off_c, 1, 84, 0
2, 303600, Note_on_c, 1, 84, 61
2, 303755, Note_off_c, 1, 84, 0
2, 303840, Note_on_c, 1, 81, 60
2, 303995, Note_off_c, 1, 81, 0
2, 304320, Note_on_c, 1, 82, 59
2, 304475, Note_off_c, 1, 82, 0
2, 304560, Note_on_c, 1, 82, 59
2, 304715, Note_off_c, 1, 82, 0
2, 304800, Note_on_c, 1, 79, 58
2, 304955, Note_off_c, 1, 79, 0
2, 305280, Note_on_c, 1, 77, 76
2, 305400, Note_off_c, 1, 77, 0
2, 305400, Note_on_c, 1, 79, 77
2, 305520, Note_off_c, 1, 79, 0
2, 305520, Note_on_c, 1, 81, 79
2, 305640, Note_off_c, 1, 81, 0
2, 305640, Note_on_c, 1, 77, 80
2, 305760, Note_off_c, 1, 77, 0
2, 305760, Note_on_c, 1, 76, 83
2, 305880, Note_off_c, 1, 76, 0
2, 305880, Note_on_c, 1, 74, 82
2, 306000, Note_off_c, 1, 74, 0
2, 306000, Note_on_c, 1, 76, 81
2, 306120, Note_off_c, 1, 76, 0
2, 306120, Note_on_c, 1, 78, 80
2, 306240, Note_off_c, 1, 78, 0
2, 306240, Note_on_c, 1, 79, 79
2, 306360, Note_off_c, 1, 79, 0
2, 306360, Note_on_c, 1, 81, 78
2, 306480, Note_off_c, 1, 81, 0
2, 306480, Note_on_c, 1, 82, 77
2, 306600, Note_off_c, 1, 82, 0
2, 306600, Note_on_c, 1, 79, 76
2, 306720, Note_off_c, 1, 79, 0
2, 306720, Note_on_c, 1, 77, 75
2, 306840, Note_off_c, 1, 77, 0
2, 306840, Note_on_c, 1, 76, 74
2, 306960, Note_off_c, 1, 76, 0
2, 306960, Note_on_c, 1, 74, 74
2, 307080, Note_off_c, 1, 74, 0
2, 307080, Note_on_c, 1, 72, 73
2, 307200, Note_off_c, 1, 72, 0
2, 307200, Note_on_c, 1, 84, 72
2, 307355, Note_off_c, 1, 84, 0
2, 307440, Note_on_c, 1, 84, 57
2, 307595, Note_off_c, 1, 84, 0
2, 307680, Note_on_c, 1, 81, 56
2, 307835, Note_off_c, 1, 81, 0
2, 308160, Note_on_c, 1, 82, 54
2, 308315, Note_off_c, 1, 82, 0
2, 308400, Note_on_c, 1, 82, 54
2, 308555, Note_off_c, 1, 82, 0
2, 308640, Note_on_c, 1, 79, 53
2, 308795, Note_off_c, 1, 79, 0
2, 309120, Note_on_c, 1, 86, 68
2, 309240, Note_off_c, 1, 86, 0
2, 309240, Note_on_c, 1, 84, 70
2, 309360, Note_off_c, 1, 84, 0
2, 309360, Note_on_c, 1, 82, 71
2, 309480, Note_off_c, 1, 82, 0
2, 309480, Note_on_c, 1, 81, 73
2, 309600, Note_off_c, 1, 81, 0
2, 309600, Note_on_c, 1, 78, 77
2, 309720, Note_off_c, 1, 78, 0
2, 309720, Note_on_c, 1, 79, 76
2, 309840, Note_off_c, 1, 79, 0
2, 309840, Note_on_c, 1, 81, 74
2, 309960, Note_off_c, 1, 81, 0
2, 309960, Note_on_c, 1, 82, 73
2, 310080, Note_off_c, 1, 82, 0
2, 310080, Note_on_c, 1, 74, 72
2, 310200, Note_off_c, 1, 74, 0
2, 310200, Note_on_c, 1, 77, 70
2, 310320, Note_off_c, 1, 77, 0
2, 310320, Note_on_c, 1, 76, 69
2, 310440, Note_off_c, 1, 76, 0
2, 310440, Note_on_c, 1, 79, 67
2, 310560, Note_off_c, 1, 79, 0
2, 310560, Note_on_c, 1, 77, 66
2, 310715, Note_off_c, 1, 77, 0
2, 311520, Note_on_c, 1, 81, 57
2, 311640, Note_off_c, 1, 81, 0
2, 311640, Note_on_c, 1, 80, 55
2, 311760, Note_off_c, 1, 80, 0
2, 311760, Note_on_c, 1, 82, 53
2, 311880, Note_off_c, 1, 82, 0
2, 311880, Note_on_c, 1, 81, 50
2, 312000, Note_off_c, 1, 81, 0
2, 312480, Note_on_c, 1, 81, 55
2, 312600, Note_off_c, 1, 81, 0
2, 312600, Note_on_c, 1, 80, 53
2, 312720, Note_off_c, 1, 80, 0
2, 312720, Note_on_c, 1, 82, 52
2, 312840, Note_off_c, 1, 82, 0
2, 312840, Note_on_c, 1, 81, 50
2, 312960, Note_off_c, 1, 81, 0
2, 312960, Note_on_c, 1, 89, 53
2, 313115, Note_off_c, 1, 89, 0
2, 313200, Note_on_c, 1, 89, 53
2, 313355, Note_off_c, 1, 89, 0
2, 313440, Note_on_c, 1, 86, 53
2, 313595, Note_off_c, 1, 86, 0
2, 313920, Note_on_c, 1, 88, 52
2, 314075, Note_off_c, 1, 88, 0
2, 314160, Note_on_c, 1, 88, 51
2, 314315, Note_off_c, 1, 88, 0
2, 314400, Note_on_c, 1, 85, 51
2, 314555, Note_off_c, 1, 85, 0
2, 314880, Note_on_c, 1, 86, 69
2, 315000, Note_off_c, 1, 86, 0
2, 315000, Note_on_c, 1, 81, 67
2, 315120, Note_off_c, 1, 81, 0
2, 315120, Note_on_c, 1, 77, 64
2, 315240, Note_off_c, 1, 77, 0
2, 315240, Note_on_c, 1, 74, 62
2, 315360, Note_off_c, 1, 74, 0
2, 315360, Note_on_c, 1, 77, 75
2, 315480, Note_off_c, 1, 77, 0
2, 315480, Note_on_c, 1, 75, 73
2, 315600, Note_off_c, 1, 75, 0
2, 315600, Note_on_c, 1, 74, 71
2, 315720, Note_off_c, 1, 74, 0
2, 315720, Note_on_c, 1, 75, 69
2, 315800, Note_off_c, 1, 75, 0
2, 315840, Note_on_c, 1, 79, 79
2, 315960, Note_off_c, 1, 79, 0
2, 315960, Note_on_c, 1, 78, 76
2, 316080, Note_off_c, 1, 78, 0
2, 316080, Note_on_c, 1, 77, 73
2, 316200, Note_off_c, 1, 77, 0
2, 316200, Note_on_c, 1, 78, 71
2, 316280, Note_off_c, 1, 78, 0
2, 316320, Note_on_c, 1, 81, 84
2, 316440, Note_off_c, 1, 81, 0
2, 316440, Note_on_c, 1, 79, 74
2, 316535, Note_off_c, 1, 79, 0
2, 316560, Note_on_c, 1, 82, 86
2, 316680, Note_off_c, 1, 82, 0
2, 316680, Note_on_c, 1, 81, 78
2, 316775, Note_off_c, 1, 81, 0
2, 316800, Note_on_c, 1, 84, 90
2, 316920, Note_off_c, 1, 84, 0
2, 316920, Note_on_c, 1, 82, 81
2, 317015, Note_off_c, 1, 82, 0
2, 317040, Note_on_c, 1, 82, 92
2, 317160, Note_off_c, 1, 82, 0
2, 317160, Note_on_c, 1, 81, 85
2, 317255, Note_off_c, 1, 81, 0
2, 317280, Note_on_c, 1, 81, 96
2, 317400, Note_off_c, 1, 81, 0
2, 317400, Note_on_c, 1, 80, 91
2, 317495, Note_off_c, 1, 80, 0
2, 317520, Note_on_c, 1, 89, 106
2, 318000, Note_off_c, 1, 89, 0
2, 318000, Note_on_c, 1, 80, 83
2, 318240, Note_off_c, 1, 80, 0
2, 318240, Note_on_c, 1, 81, 83
2, 318480, Note_off_c, 1, 81, 0
2, 318720, Note_on_c, 1, 88, 82
2, 318840, Note_off_c, 1, 88, 0
2, 318840, Note_on_c, 1, 85, 82
2, 318960, Note_off_c, 1, 85, 0
2, 318960, Note_on_c, 1, 81, 81
2, 319080, Note_off_c, 1, 81, 0
2, 319080, Note_on_c, 1, 79, 81
2, 319200, Note_off_c, 1, 79, 0
2, 319200, Note_on_c, 1, 77, 81
2, 319320, Note_off_c, 1, 77, 0
2, 319320, Note_on_c, 1, 81, 80
2, 319440, Note_off_c, 1, 81, 0
2, 319440, Note_on_c, 1, 86, 80
2, 319560, Note_off_c, 1, 86, 0
2, 319560, Note_on_c, 1, 85, 80
2, 319680, Note_off_c, 1, 85, 0
2, 319680, Note_on_c, 1, 86, 79
2, 319800, Note_off_c, 1, 86, 0
2, 319800, Note_on_c, 1, 81, 79
2, 319920, Note_off_c, 1, 81, 0
2, 319920, Note_on_c, 1, 77, 79
2, 320040, Note_off_c, 1, 77, 0
2, 320040, Note_on_c, 1, 74, 78
2, 320160, Note_off_c, 1, 74, 0
2, 320160, Note_on_c, 1, 73, 78
2, 320280, Note_off_c, 1, 73, 0
2, 320280, Note_on_c, 1, 76, 78
2, 320400, Note_off_c, 1, 76, 0
2, 320400, Note_on_c, 1, 81, 77
2, 320520, Note_off_c, 1, 81, 0
2, 320520, Note_on_c, 1, 85, 77
2, 320640, Note_off_c, 1, 85, 0
2, 320640, Note_on_c, 1, 88, 77
2, 320760, Note_off_c, 1, 88, 0
2, 320760, Note_on_c, 1, 85, 76
2, 320880, Note_off_c, 1, 85, 0
2, 320880, Note_on_c, 1, 81, 76
2, 321000, Note_off_c, 1, 81, 0
2, 321000, Note_on_c, 1, 79, 76
2, 321120, Note_off_c, 1, 79, 0
2, 321120, Note_on_c, 1, 77, 75
2, 321240, Note_off_c, 1, 77, 0
2, 321240, Note_on_c, 1, 81, 75
2, 321360, Note_off_c, 1, 81, 0
2, 321360, Note_on_c, 1, 86, 74
2, 321480, Note_off_c, 1, 86, 0
2, 321480, Note_on_c, 1, 85, 74
2, 321600, Note_off_c, 1, 85, 0
2, 321600, Note_on_c, 1, 86, 74
2, 321720, Note_off_c, 1, 86, 0
2, 321720, Note_on_c, 1, 81, 73
2, 321840, Note_off_c, 1, 81, 0
2, 321840, Note_on_c, 1, 77, 73
2, 321960, Note_off_c, 1, 77, 0
2, 321960, Note_on_c, 1, 74, 73
2, 322080, Note_off_c, 1, 74, 0
2, 322080, Note_on_c, 1, 69, 72
2, 322235, Note_off_c, 1, 69, 0
2, 322560, Note_on_c, 1, 81, 63
2, 322715, Note_off_c, 1, 81, 0
2, 322800, Note_on_c, 1, 81, 62
2, 322955, Note_off_c, 1, 81, 0
2, 323040, Note_on_c, 1, 77, 64
2, 323195, Note_off_c, 1, 77, 0
2, 323520, Note_on_c, 1, 79, 61
2, 323675, Note_off_c, 1, 79, 0
2, 323760, Note_on_c, 1, 79, 60
2, 323915, Note_off_c, 1, 79, 0
2, 324000, Note_on_c, 1, 76, 59
2, 324155, Note_off_c, 1, 76, 0
2, 324960, Note_on_c, 1, 69, 59
2, 325080, Note_off_c, 1, 69, 0
2, 325080, Note_on_c, 1, 68, 57
2, 325200, Note_off_c, 1, 68, 0
2, 325200, Note_on_c, 1, 70, 55
2, 325320, Note_off_c, 1, 70, 0
2, 325320, Note_on_c, 1, 69, 52
2, 325440, Note_off_c, 1, 69, 0
2, 325920, Note_on_c, 1, 81, 63
2, 326040, Note_off_c, 1, 81, 0
2, 326040, Note_on_c, 1, 80, 62
2, 326160, Note_off_c, 1, 80, 0
2, 326160, Note_on_c, 1, 82, 60
2, 326280, Note_off_c, 1, 82, 0
2, 326280, Note_on_c, 1, 81, 58
2, 326400, Note_off_c, 1, 81, 0
2, 326400, Note_on_c, 1, 79, 57
2, 326520, Note_off_c, 1, 79, 0
2, 326520, Note_on_c, 1, 78, 55
2, 326640, Note_off_c, 1, 78, 0
2, 326640, Note_on_c, 1, 81, 54
2, 326760, Note_off_c, 1, 81, 0
2, 326760, Note_on_c, 1, 79, 52
2, 326880, Note_off_c, 1, 79, 0
2, 326880, Note_on_c, 1, 79, 60
2, 327000, Note_off_c, 1, 79, 0
2, 327000, Note_on_c, 1, 77, 54
2, 327095, Note_off_c, 1, 77, 0
2, 327120, Note_on_c, 1, 77, 59
2, 327240, Note_off_c, 1, 77, 0
2, 327240, Note_on_c, 1, 76, 53
2, 327335, Note_off_c, 1, 76, 0
2, 327360, Note_on_c, 1, 76, 60
2, 327480, Note_off_c, 1, 76, 0
2, 327480, Note_on_c, 1, 74, 53
2, 327575, Note_off_c, 1, 74, 0
2, 327600, Note_on_c, 1, 86, 61
2, 327720, Note_off_c, 1, 86, 0
2, 327720, Note_on_c, 1, 84, 52
2, 327815, Note_off_c, 1, 84, 0
2, 327840, Note_on_c, 1, 84, 60
2, 327960, Note_off_c, 1, 84, 0
2, 327960, Note_on_c, 1, 82, 52
2, 328055, Note_off_c, 1, 82, 0
2, 328080, Note_on_c, 1, 82, 59
2, 328200, Note_off_c, 1, 82, 0
2, 328200, Note_on_c, 1, 81, 51
2, 328295, Note_off_c, 1, 81, 0
2, 328320, Note_on_c, 1, 81, 57
2, 328440, Note_off_c, 1, 81, 0
2, 328440, Note_on_c, 1, 79, 51
2, 328535, Note_off_c, 1, 79, 0
2, 328560, Note_on_c, 1, 79, 58
2, 328680, Note_off_c, 1, 79, 0
2, 328680, Note_on_c, 1, 77, 50
2, 328775, Note_off_c, 1, 77, 0
2, 328800, Note_on_c, 1, 75, 56
2, 328920, Note_off_c, 1, 75, 0
2, 328920, Note_on_c, 1, 82, 55
2, 329040, Note_off_c, 1, 82, 0
2, 329040, Note_on_c, 1, 79, 53
2, 329160, Note_off_c, 1, 79, 0
2, 329160, Note_on_c, 1, 75, 51
2, 329280, Note_off_c, 1, 75, 0
2, 329280, Note_on_c, 1, 74, 50
2, 329470, Note_off_c, 1, 74, 0
2, 329520, Note_on_c, 1, 73, 46
2, 329710, Note_off_c, 1, 73, 0
2, 329760, Note_on_c, 1, 74, 48
2, 329950, Note_off_c, 1, 74, 0
2, 330240, Note_on_c, 1, 73, 50
2, 330335, Note_off_c, 1, 73, 0
2, 330360, Note_on_c, 1, 79, 50
2, 330455, Note_off_c, 1, 79, 0
2, 330480, Note_on_c, 1, 76, 51
2, 330575, Note_off_c, 1, 76, 0
2, 330600, Note_on_c, 1, 73, 51
2, 330695, Note_off_c, 1, 73, 0
2, 330720, Note_on_c, 1, 74, 52
2, 330910, Note_off_c, 1, 74, 0
2, 331200, Note_on_c, 1, 73, 54
2, 331295, Note_off_c, 1, 73, 0
2, 331320, Note_on_c, 1, 79, 54
2, 331415, Note_off_c, 1, 79, 0
2, 331440, Note_on_c, 1, 76, 54
2, 331535, Note_off_c, 1, 76, 0
2, 331560, Note_on_c, 1, 73, 55
2, 331655, Note_off_c, 1, 73, 0
2, 331680, Note_on_c, 1, 74, 55
2, 331870, Note_off_c, 1, 74, 0
2, 332160, Note_on_c, 1, 73, 58
2, 332255, Note_off_c, 1, 73, 0
2, 332280, Note_on_c, 1, 79, 59
2, 332375, Note_off_c, 1, 79, 0
2, 332400, Note_on_c, 1, 76, 61
2, 332495, Note_off_c, 1, 76, 0
2, 332520, Note_on_c, 1, 73, 62
2, 332615, Note_off_c, 1, 73, 0
2, 332640, Note_on_c, 1, 74, 63
2, 332735, Note_off_c, 1, 74, 0
2, 332760, Note_on_c, 1, 81, 66
2, 332855, Note_off_c, 1, 81, 0
2, 332880, Note_on_c, 1, 77, 69
2, 332975, Note_off_c, 1, 77, 0
2, 333000, Note_on_c, 1, 74, 71
2, 333095, Note_off_c, 1, 74, 0
2, 333120, Note_on_c, 1, 76, 73
2, 333215, Note_off_c, 1, 76, 0
2, 333240, Note_on_c, 1, 82, 77
2, 333335, Note_off_c, 1, 82, 0
2, 333360, Note_on_c, 1, 79, 82
2, 333455, Note_off_c, 1, 79, 0
2, 333480, Note_on_c, 1, 76, 90
2, 333636, Note_off_c, 1, 76, 0
2, 334080, Note_on_c, 1, 84, 69
2, 334235, Note_off_c, 1, 84, 0
2, 334320, Note_on_c, 1, 84, 68
2, 334475, Note_off_c, 1, 84, 0
2, 334560, Note_on_c, 1, 81, 68
2, 334715, Note_off_c, 1, 81, 0
2, 335040, Note_on_c, 1, 82, 66
2, 335195, Note_off_c, 1, 82, 0
2, 335280, Note_on_c, 1, 82, 65
2, 335435, Note_off_c, 1, 82, 0
2, 335520, Note_on_c, 1, 79, 65
2, 335675, Note_off_c, 1, 79, 0
2, 336000, Note_on_c, 1, 77, 78
2, 336120, Note_off_c, 1, 77, 0
2, 336120, Note_on_c, 1, 79, 79
2, 336240, Note_off_c, 1, 79, 0
2, 336240, Note_on_c, 1, 81, 80
2, 336360, Note_off_c, 1, 81, 0
2, 336360, Note_on_c, 1, 77, 82
2, 336480, Note_off_c, 1, 77, 0
2, 336480, Note_on_c, 1, 76, 85
2, 336600, Note_off_c, 1, 76, 0
2, 336600, Note_on_c, 1, 74, 84
2, 336720, Note_off_c, 1, 74, 0
2, 336720, Note_on_c, 1, 76, 83
2, 336840, Note_off_c, 1, 76, 0
2, 336840, Note_on_c, 1, 78, 82
2, 336960, Note_off_c, 1, 78, 0
2, 336960, Note_on_c, 1, 79, 81
2, 337080, Note_off_c, 1, 79, 0
2, 337080, Note_on_c, 1, 81, 80
2, 337200, Note_off_c, 1, 81, 0
2, 337200, Note_on_c, 1, 82, 79
2, 337320, Note_off_c, 1, 82, 0
2, 337320, Note_on_c, 1, 79, 78
2, 337440, Note_off_c, 1, 79, 0
2, 337440, Note_on_c, 1, 77, 78
2, 337560, Note_off_c, 1, 77, 0
2, 337560, Note_on_c, 1, 76, 77
2, 337680, Note_off_c, 1, 76, 0
2, 337680, Note_on_c, 1, 74, 76
2, 337800, Note_off_c, 1, 74, 0
2, 337800, Note_on_c, 1, 72, 75
2, 337920, Note_off_c, 1, 72, 0
2, 337920, Note_on_c, 1, 84, 74
2, 338075, Note_off_c, 1, 84, 0
2, 338160, Note_on_c, 1, 84, 63
2, 338315, Note_off_c, 1, 84, 0
2, 338400, Note_on_c, 1, 81, 62
2, 338555, Note_off_c, 1, 81, 0
2, 338880, Note_on_c, 1, 86, 60
2, 339035, Note_off_c, 1, 86, 0
2, 339120, Note_on_c, 1, 86, 60
2, 339275, Note_off_c, 1, 86, 0
2, 339360, Note_on_c, 1, 79, 59
2, 339515, Note_off_c, 1, 79, 0
2, 339840, Note_on_c, 1, 86, 73
2, 339960, Note_off_c, 1, 86, 0
2, 339960, Note_on_c, 1, 84, 74
2, 340080, Note_off_c, 1, 84, 0
2, 340080, Note_on_c, 1, 82, 76
2, 340200, Note_off_c, 1, 82, 0
2, 340200, Note_on_c, 1, 81, 78
2, 340320, Note_off_c, 1, 81, 0
2, 340320, Note_on_c, 1, 78, 81
2, 340440, Note_off_c, 1, 78, 0
2, 340440, Note_on_c, 1, 79, 80
2, 340560, Note_off_c, 1, 79, 0
2, 340560, Note_on_c, 1, 81, 78
2, 340680, Note_off_c, 1, 81, 0
2, 340680, Note_on_c, 1, 82, 77
2, 340800, Note_off_c, 1, 82, 0
2, 340800, Note_on_c, 1, 74, 76
2, 340920, Note_off_c, 1, 74, 0
2, 340920, Note_on_c, 1, 77, 74
2, 341040, Note_off_c, 1, 77, 0
2, 341040, Note_on_c, 1, 76, 73
2, 341160, Note_off_c, 1, 76, 0
2, 341160, Note_on_c, 1, 79, 72
2, 341280, Note_off_c, 1, 79, 0
2, 341280, Note_on_c, 1, 77, 70
2, 341435, Note_off_c, 1, 77, 0
2, 341760, Note_on_c, 1, 76, 43
2, 341880, Note_off_c, 1, 76, 0
2, 341880, Note_on_c, 1, 82, 46
2, 342000, Note_off_c, 1, 82, 0
2, 342000, Note_on_c, 1, 79, 49
2, 342120, Note_off_c, 1, 79, 0
2, 342120, Note_on_c, 1, 76, 52
2, 342240, Note_off_c, 1, 76, 0
2, 342240, Note_on_c, 1, 86, 56
2, 342360, Note_off_c, 1, 86, 0
2, 342360, Note_on_c, 1, 84, 54
2, 342480, Note_off_c, 1, 84, 0
2, 342480, Note_on_c, 1, 82, 52
2, 342600, Note_off_c, 1, 82, 0
2, 342600, Note_on_c, 1, 81, 49
2, 342720, Note_off_c, 1, 81, 0
2, 342720, Note_on_c, 1, 79, 48
2, 342840, Note_off_c, 1, 79, 0
2, 342840, Note_on_c, 1, 82, 51
2, 342960, Note_off_c, 1, 82, 0
2, 342960, Note_on_c, 1, 79, 53
2, 343080, Note_off_c, 1, 79, 0
2, 343080, Note_on_c, 1, 76, 56
2, 343200, Note_off_c, 1, 76, 0
2, 343200, Note_on_c, 1, 86, 61
2, 343320, Note_off_c, 1, 86, 0
2, 343320, Note_on_c, 1, 84, 59
2, 343440, Note_off_c, 1, 84, 0
2, 343440, Note_on_c, 1, 82, 57
2, 343560, Note_off_c, 1, 82, 0
2, 343560, Note_on_c, 1, 81, 55
2, 343680, Note_off_c, 1, 81, 0
2, 343680, Note_on_c, 1, 89, 72
2, 343800, Note_off_c, 1, 89, 0
2, 343800, Note_on_c, 1, 84, 74
2, 343920, Note_off_c, 1, 84, 0
2, 343920, Note_on_c, 1, 82, 76
2, 344040, Note_off_c, 1, 82, 0
2, 344040, Note_on_c, 1, 81, 78
2, 344160, Note_off_c, 1, 81, 0
2, 344160, Note_on_c, 1, 78, 80
2, 344280, Note_off_c, 1, 78, 0
2, 344280, Note_on_c, 1, 79, 78
2, 344400, Note_on_c, 1, 82, 77
2, 344407, Note_off_c, 1, 79, 0
2, 344520, Note_off_c, 1, 82, 0
2, 344520, Note_on_c, 1, 86, 76
2, 344640, Note_on_c, 1, 84, 75
2, 344655, Note_off_c, 1, 86, 0
2, 344760, Note_off_c, 1, 84, 0
2, 344760, Note_on_c, 1, 76, 74
2, 344880, Note_off_c, 1, 76, 0
2, 344880, Note_on_c, 1, 79, 73
2, 345000, Note_off_c, 1, 79, 0
2, 345000, Note_on_c, 1, 76, 72
2, 345120, Note_on_c, 1, 77, 71
2, 345135, Note_off_c, 1, 76, 0
2, 345360, Note_off_c, 1, 77, 0
2, 345600, Note_on_c, 1, 64, 66
2, 345720, Note_off_c, 1, 64, 0
2, 345720, Note_on_c, 1, 70, 69
2, 345840, Note_off_c, 1, 70, 0
2, 345840, Note_on_c, 1, 67, 71
2, 345960, Note_off_c, 1, 67, 0
2, 345960, Note_on_c, 1, 64, 73
2, 346080, Note_off_c, 1, 64, 0
2, 346080, Note_on_c, 1, 74, 77
2, 346200, Note_off_c, 1, 74, 0
2, 346200, Note_on_c, 1, 72, 75
2, 346320, Note_off_c, 1, 72, 0
2, 346320, Note_on_c, 1, 70, 73
2, 346440, Note_off_c, 1, 70, 0
2, 346440, Note_on_c, 1, 69, 71
2, 346560, Note_off_c, 1, 69, 0
2, 346560, Note_on_c, 1, 66, 70
2, 346680, Note_off_c, 1, 66, 0
2, 346680, Note_on_c, 1, 67, 72
2, 346800, Note_off_c, 1, 67, 0
2, 346800, Note_on_c, 1, 69, 75
2, 346920, Note_off_c, 1, 69, 0
2, 346920, Note_on_c, 1, 70, 78
2, 347040, Note_off_c, 1, 70, 0
2, 347040, Note_on_c, 1, 74, 82
2, 347160, Note_off_c, 1, 74, 0
2, 347160, Note_on_c, 1, 72, 80
2, 347280, Note_off_c, 1, 72, 0
2, 347280, Note_on_c, 1, 71, 78
2, 347400, Note_off_c, 1, 71, 0
2, 347400, Note_on_c, 1, 72, 75
2, 347520, Note_off_c, 1, 72, 0
2, 347520, Note_on_c, 1, 77, 88
2, 347640, Note_off_c, 1, 77, 0
2, 347640, Note_on_c, 1, 72, 90
2, 347760, Note_off_c, 1, 72, 0
2, 347760, Note_on_c, 1, 70, 92
2, 347880, Note_off_c, 1, 70, 0
2, 347880, Note_on_c, 1, 69, 94
2, 348000, Note_off_c, 1, 69, 0
2, 348000, Note_on_c, 1, 66, 97
2, 348120, Note_off_c, 1, 66, 0
2, 348120, Note_on_c, 1, 67, 95
2, 348200, Note_off_c, 1, 67, 0
2, 348240, Note_on_c, 1, 70, 93
2, 348320, Note_off_c, 1, 70, 0
2, 348360, Note_on_c, 1, 74, 91
2, 348440, Note_off_c, 1, 74, 0
2, 348480, Note_on_c, 1, 72, 89
2, 348600, Note_off_c, 1, 72, 0
2, 348600, Note_on_c, 1, 70, 87
2, 348680, Note_off_c, 1, 70, 0
2, 348720, Note_on_c, 1, 67, 85
2, 348800, Note_off_c, 1, 67, 0
2, 348840, Note_on_c, 1, 64, 84
2, 348920, Note_off_c, 1, 64, 0
2, 348960, Note_on_c, 1, 65, 80
2, 349069, Note_off_c, 1, 65, 0
2, 349080, Note_on_c, 1, 60, 81
2, 349189, Note_off_c, 1, 60, 0
2, 349200, Note_on_c, 1, 69, 82
2, 349309, Note_off_c, 1, 69, 0
2, 349320, Note_on_c, 1, 65, 83
2, 349429, Note_off_c, 1, 65, 0
2, 349440, Note_on_c, 1, 72, 84
2, 349549, Note_off_c, 1, 72, 0
2, 349560, Note_on_c, 1, 69, 85
2, 349669, Note_off_c, 1, 69, 0
2, 349680, Note_on_c, 1, 77, 87
2, 349789, Note_off_c, 1, 77, 0
2, 349800, Note_on_c, 1, 72, 88
2, 349909, Note_off_c, 1, 72, 0
2, 349920, Note_on_c, 1, 81, 89
2, 350029, Note_off_c, 1, 81, 0
2, 350040, Note_on_c, 1, 77, 90
2, 350149, Note_off_c, 1, 77, 0
2, 350160, Note_on_c, 1, 84, 91
2, 350269, Note_off_c, 1, 84, 0
2, 350280, Note_on_c, 1, 81, 92
2, 350389, Note_off_c, 1, 81, 0
2, 350400, Note_on_c, 1, 82, 93
2, 350509, Note_off_c, 1, 82, 0
2, 350520, Note_on_c, 1, 79, 95
2, 350629, Note_off_c, 1, 79, 0
2, 350640, Note_on_c, 1, 76, 96
2, 350749, Note_off_c, 1, 76, 0
2, 350760, Note_on_c, 1, 79, 97
2, 350869, Note_off_c, 1, 79, 0
2, 350880, Note_on_c, 1, 77, 98
2, 350960, Note_off_c, 1, 77, 0
2, 351000, Note_on_c, 1, 81, 99
2, 351080, Note_off_c, 1, 81, 0
2, 351120, Note_on_c, 1, 72, 100
2, 351200, Note_off_c, 1, 72, 0
2, 351240, Note_on_c, 1, 77, 101
2, 351320, Note_off_c, 1, 77, 0
2, 351360, Note_on_c, 1, 69, 102
2, 351440, Note_off_c, 1, 69, 0
2, 351480, Note_on_c, 1, 72, 104
2, 351560, Note_off_c, 1, 72, 0
2, 351600, Note_on_c, 1, 65, 105
2, 351680, Note_off_c, 1, 65, 0
2, 351720, Note_on_c, 1, 69, 106
2, 351800, Note_off_c, 1, 69, 0
2, 351840, Note_on_c, 1, 60, 107
2, 351920, Note_off_c, 1, 60, 0
2, 351960, Note_on_c, 1, 65, 108
2, 352040, Note_off_c, 1, 65, 0
2, 352080, Note_on_c, 1, 69, 109
2, 352160, Note_off_c, 1, 69, 0
2, 352200, Note_on_c, 1, 72, 110
2, 352280, Note_off_c, 1, 72, 0
2, 352320, Note_on_c, 1, 70, 112
2, 352440, Note_off_c, 1, 70, 0
2, 352440, Note_on_c, 1, 67, 113
2, 352520, Note_off_c, 1, 67, 0
2, 352560, Note_on_c, 1, 64, 114
2, 352640, Note_off_c, 1, 64, 0
2, 352680, Note_on_c, 1, 67, 115
2, 352760, Note_off_c, 1, 67, 0
2, 352800, Note_on_c, 1, 65, 116
2, 352955, Note_off_c, 1, 65, 0
2, 354240, Note_on_c, 1, 81, 43
2, 354360, Note_off_c, 1, 81, 0
2, 354480, Note_on_c, 1, 81, 40
2, 354600, Note_off_c, 1, 81, 0
2, 354720, Note_on_c, 1, 77, 38
2, 354900, Note_off_c, 1, 77, 0
2, 355200, Note_on_c, 1, 89, 120
2, 355560, Note_off_c, 1, 89, 0
2, 355680, Note_on_c, 1, 65, 121
2, 356160, Note_off_c, 1, 65, 0
2, 356160, End_track
3, 0, Start_track
3, 0, Title_t, "Unnamed Track"
3, 0, Control_c, 2, 0, 0
3, 0, Control_c, 2, 32, 0
3, 0, Program_c, 2, 0
3, 0, Control_c, 2, 64, 0
3, 0, Control_c, 2, 64, 0
3, 0, Control_c, 2, 10, 73
3, 0, Control_c, 2, 91, 100
3, 0, Control_c, 2, 93, 19
3, 0, Control_c, 2, 1, 0
3, 0, Pitch_bend_c, 2, 8192
3, 0, Control_c, 2, 7, 122
3, 0, Control_c, 2, 64, 0
3, 1440, Note_on_c, 2, 69, 73
3, 1480, Note_off_c, 2, 69, 0
3, 1480, Note_on_c, 2, 72, 73
3, 1500, Control_c, 2, 64, 127
3, 1520, Note_off_c, 2, 72, 0
3, 2160, Control_c, 2, 64, 0
3, 9120, Note_on_c, 2, 64, 46
3, 9600, Note_off_c, 2, 64, 0
3, 9600, Note_on_c, 2, 65, 47
3, 10080, Note_off_c, 2, 65, 0
3, 10560, Note_on_c, 2, 70, 50
3, 10800, Note_off_c, 2, 70, 0
3, 10800, Note_on_c, 2, 69, 51
3, 10990, Note_off_c, 2, 69, 0
3, 11040, Note_on_c, 2, 67, 52
3, 11280, Note_off_c, 2, 67, 0
3, 11280, Note_on_c, 2, 65, 52
3, 11470, Note_off_c, 2, 65, 0
3, 11520, Note_on_c, 2, 65, 55
3, 11760, Note_off_c, 2, 65, 0
3, 11760, Note_on_c, 2, 64, 55
3, 11950, Note_off_c, 2, 64, 0
3, 12960, Control_c, 2, 64, 127
3, 12960, Note_on_c, 2, 69, 67
3, 13000, Note_off_c, 2, 69, 0
3, 13000, Note_on_c, 2, 72, 67
3, 13040, Note_off_c, 2, 72, 0
3, 13680, Control_c, 2, 64, 0
3, 20640, Note_on_c, 2, 64, 46
3, 21120, Note_off_c, 2, 64, 0
3, 21120, Note_on_c, 2, 65, 48
3, 21480, Note_off_c, 2, 65, 0
3, 21600, Note_on_c, 2, 69, 52
3, 21960, Note_on_c, 2, 67, 49
3, 21967, Note_off_c, 2, 69, 0
3, 22080, Note_off_c, 2, 67, 0
3, 22080, Note_on_c, 2, 65, 48
3, 22560, Note_off_c, 2, 65, 0
3, 22560, Note_on_c, 2, 64, 44
3, 23040, Note_off_c, 2, 64, 0
3, 23760, Note_on_c, 2, 72, 74
3, 23880, Note_off_c, 2, 72, 0
3, 24000, Note_on_c, 2, 72, 74
3, 24120, Note_off_c, 2, 72, 0
3, 24240, Note_on_c, 2, 72, 74
3, 24360, Note_off_c, 2, 72, 0
3, 24480, Note_on_c, 2, 72, 73
3, 25200, Note_off_c, 2, 72, 0
3, 29520, Note_on_c, 2, 72, 57
3, 29640, Note_off_c, 2, 72, 0
3, 29760, Note_on_c, 2, 72, 57
3, 29880, Note_off_c, 2, 72, 0
3, 30000, Note_on_c, 2, 72, 56
3, 30120, Note_off_c, 2, 72, 0
3, 30240, Note_on_c, 2, 72, 56
3, 30960, Note_off_c, 2, 72, 0
3, 38880, Note_on_c, 2, 67, 60
3, 38880, Note_on_c, 2, 64, 60
3, 39240, Note_off_c, 2, 64, 0
3, 39240, Note_off_c, 2, 67, 0
3, 39840, Note_on_c, 2, 67, 63
3, 39840, Note_on_c, 2, 72, 63
3, 40200, Note_off_c, 2, 72, 0
3, 40200, Note_off_c, 2, 67, 0
3, 40320, Note_on_c, 2, 69, 65
3, 40320, Note_on_c, 2, 72, 65
3, 40680, Note_off_c, 2, 72, 0
3, 40680, Note_off_c, 2, 69, 0
3, 40800, Note_on_c, 2, 76, 66
3, 40800, Note_on_c, 2, 72, 66
3, 41160, Note_off_c, 2, 72, 0
3, 41160, Note_off_c, 2, 76, 0
3, 41280, Note_on_c, 2, 77, 68
3, 41280, Note_on_c, 2, 72, 68
3, 41640, Note_off_c, 2, 72, 0
3, 41640, Note_off_c, 2, 77, 0
3, 41760, Note_on_c, 2, 79, 70
3, 41760, Note_on_c, 2, 76, 70
3, 41760, Note_on_c, 2, 72, 70
3, 42120, Note_off_c, 2, 72, 0
3, 42120, Note_off_c, 2, 76, 0
3, 42120, Note_off_c, 2, 79, 0
3, 42720, Note_on_c, 2, 67, 73
3, 42720, Note_on_c, 2, 72, 73
3, 43080, Note_off_c, 2, 72, 0
3, 43080, Note_off_c, 2, 67, 0
3, 43200, Note_on_c, 2, 72, 75
3, 43200, Note_on_c, 2, 69, 75
3, 43560, Note_off_c, 2, 69, 0
3, 43560, Note_off_c, 2, 72, 0
3, 43680, Note_on_c, 2, 76, 77
3, 43680, Note_on_c, 2, 72, 77
3, 44040, Note_off_c, 2, 72, 0
3, 44040, Note_off_c, 2, 76, 0
3, 44160, Note_on_c, 2, 77, 79
3, 44160, Note_on_c, 2, 72, 79
3, 44520, Note_off_c, 2, 72, 0
3, 44520, Note_off_c, 2, 77, 0
3, 44640, Note_on_c, 2, 79, 80
3, 44640, Note_on_c, 2, 76, 80
3, 44640, Note_on_c, 2, 72, 80
3, 45000, Note_off_c, 2, 72, 0
3, 45000, Note_off_c, 2, 76, 0
3, 45000, Note_off_c, 2, 79, 0
3, 50400, Note_on_c, 2, 76, 66
3, 50400, Note_on_c, 2, 73, 66
3, 50880, Note_off_c, 2, 73, 0
3, 50880, Note_off_c, 2, 76, 0
3, 50880, Note_on_c, 2, 74, 60
3, 51300, Note_off_c, 2, 74, 0
3, 56160, Note_on_c, 2, 74, 64
3, 56160, Note_on_c, 2, 71, 64
3, 56640, Note_off_c, 2, 71, 0
3, 56640, Note_off_c, 2, 74, 0
3, 56640, Note_on_c, 2, 72, 60
3, 57067, Note_off_c, 2, 72, 0
3, 78240, Note_on_c, 2, 76, 58
3, 78720, Note_off_c, 2, 76, 0
3, 78720, Note_on_c, 2, 74, 61
3, 79132, Note_off_c, 2, 74, 0
3, 79200, Note_on_c, 2, 73, 65
3, 79680, Note_off_c, 2, 73, 0
3, 79680, Note_on_c, 2, 74, 56
3, 79872, Note_off_c, 2, 74, 0
3, 79920, Note_on_c, 2, 74, 56
3, 80160, Note_off_c, 2, 74, 0
3, 80160, Note_on_c, 2, 77, 58
3, 80400, Note_off_c, 2, 77, 0
3, 80400, Note_on_c, 2, 74, 60
3, 80592, Note_off_c, 2, 74, 0
3, 80640, Note_on_c, 2, 71, 62
3, 81120, Note_off_c, 2, 71, 0
3, 81120, Note_on_c, 2, 72, 54
3, 81312, Note_off_c, 2, 72, 0
3, 86400, Note_on_c, 2, 67, 55
3, 86880, Note_off_c, 2, 67, 0
3, 86880, Note_on_c, 2, 65, 46
3, 87072, Note_off_c, 2, 65, 0
3, 87840, Note_on_c, 2, 65, 53
3, 88320, Note_off_c, 2, 65, 0
3, 88320, Note_on_c, 2, 64, 43
3, 88512, Note_off_c, 2, 64, 0
3, 92880, Note_on_c, 2, 59, 53
3, 93000, Note_off_c, 2, 59, 0
3, 93120, Note_on_c, 2, 60, 54
3, 93240, Note_off_c, 2, 60, 0
3, 93360, Note_on_c, 2, 62, 54
3, 93480, Note_off_c, 2, 62, 0
3, 93600, Note_on_c, 2, 64, 55
3, 94027, Note_off_c, 2, 64, 0
3, 94320, Note_on_c, 2, 65, 57
3, 94440, Note_off_c, 2, 65, 0
3, 94560, Note_on_c, 2, 67, 57
3, 94680, Note_off_c, 2, 67, 0
3, 94800, Note_on_c, 2, 58, 58
3, 94920, Note_off_c, 2, 58, 0
3, 95040, Note_on_c, 2, 57, 58
3, 95467, Note_off_c, 2, 57, 0
3, 95760, Note_on_c, 2, 60, 60
3, 95880, Note_off_c, 2, 60, 0
3, 96000, Note_on_c, 2, 62, 60
3, 96120, Note_off_c, 2, 62, 0
3, 96240, Note_on_c, 2, 64, 61
3, 96360, Note_off_c, 2, 64, 0
3, 96480, Note_on_c, 2, 65, 61
3, 96900, Note_off_c, 2, 65, 0
3, 97200, Note_on_c, 2, 67, 63
3, 97320, Note_off_c, 2, 67, 0
3, 97440, Note_on_c, 2, 69, 63
3, 97560, Note_off_c, 2, 69, 0
3, 97680, Note_on_c, 2, 65, 64
3, 97800, Note_off_c, 2, 65, 0
3, 97920, Note_on_c, 2, 64, 65
3, 98040, Note_off_c, 2, 64, 0
3, 101280, Note_on_c, 2, 77, 72
3, 101520, Note_off_c, 2, 77, 0
3, 102000, Note_on_c, 2, 77, 74
3, 102192, Note_off_c, 2, 77, 0
3, 102240, Note_on_c, 2, 76, 75
3, 102480, Note_off_c, 2, 76, 0
3, 102480, Note_on_c, 2, 74, 73
3, 102600, Note_off_c, 2, 74, 0
3, 102720, Note_on_c, 2, 72, 70
3, 103200, Note_off_c, 2, 72, 0
3, 103200, Note_on_c, 2, 71, 65
3, 103680, Note_off_c, 2, 71, 0
3, 107040, Note_on_c, 2, 77, 79
3, 107280, Note_off_c, 2, 77, 0
3, 107760, Note_on_c, 2, 77, 82
3, 107952, Note_off_c, 2, 77, 0
3, 108000, Note_on_c, 2, 76, 83
3, 108240, Note_off_c, 2, 76, 0
3, 108240, Note_on_c, 2, 74, 81
3, 108360, Note_off_c, 2, 74, 0
3, 108480, Note_on_c, 2, 72, 79
3, 108960, Note_off_c, 2, 72, 0
3, 108960, Note_on_c, 2, 71, 75
3, 109440, Note_off_c, 2, 71, 0
3, 112800, Note_on_c, 2, 79, 86
3, 112800, Note_on_c, 2, 76, 86
3, 113160, Note_off_c, 2, 76, 0
3, 113160, Note_off_c, 2, 79, 0
3, 113760, Control_c, 2, 64, 0
3, 118080, Note_on_c, 2, 72, 45
3, 118560, Note_off_c, 2, 72, 0
3, 118560, Note_on_c, 2, 71, 43
3, 119040, Note_off_c, 2, 71, 0
3, 122880, Note_on_c, 2, 76, 50
3, 123120, Note_off_c, 2, 76, 0
3, 123120, Note_on_c, 2, 72, 51
3, 123360, Note_off_c, 2, 72, 0
3, 123360, Note_on_c, 2, 77, 52
3, 123600, Note_off_c, 2, 77, 0
3, 123600, Note_on_c, 2, 74, 52
3, 123792, Note_off_c, 2, 74, 0
3, 123840, Note_on_c, 2, 72, 53
3, 124320, Note_off_c, 2, 72, 0
3, 124320, Note_on_c, 2, 71, 46
3, 124510, Note_off_c, 2, 71, 0
3, 136080, Note_on_c, 2, 59, 60
3, 136200, Note_off_c, 2, 59, 0
3, 136320, Note_on_c, 2, 60, 61
3, 136440, Note_off_c, 2, 60, 0
3, 136560, Note_on_c, 2, 62, 61
3, 136680, Note_off_c, 2, 62, 0
3, 136800, Note_on_c, 2, 63, 61
3, 137220, Note_off_c, 2, 63, 0
3, 137520, Note_on_c, 2, 63, 62
3, 137640, Note_off_c, 2, 63, 0
3, 137760, Note_on_c, 2, 60, 63
3, 137880, Note_off_c, 2, 60, 0
3, 138000, Note_on_c, 2, 58, 63
3, 138120, Note_off_c, 2, 58, 0
3, 138240, Note_on_c, 2, 57, 63
3, 138660, Note_off_c, 2, 57, 0
3, 138960, Note_on_c, 2, 61, 64
3, 139080, Note_off_c, 2, 61, 0
3, 139200, Note_on_c, 2, 62, 64
3, 139320, Note_off_c, 2, 62, 0
3, 139440, Note_on_c, 2, 64, 65
3, 139560, Note_off_c, 2, 64, 0
3, 139680, Note_on_c, 2, 66, 65
3, 140100, Note_off_c, 2, 66, 0
3, 140400, Note_on_c, 2, 67, 66
3, 140520, Note_off_c, 2, 67, 0
3, 140640, Note_on_c, 2, 69, 66
3, 140760, Note_off_c, 2, 69, 0
3, 140880, Note_on_c, 2, 66, 66
3, 141000, Note_off_c, 2, 66, 0
3, 141120, Note_on_c, 2, 67, 67
3, 141547, Note_off_c, 2, 67, 0
3, 141840, Note_on_c, 2, 57, 68
3, 141960, Note_off_c, 2, 57, 0
3, 142080, Note_on_c, 2, 58, 68
3, 142200, Note_off_c, 2, 58, 0
3, 142320, Note_on_c, 2, 60, 68
3, 142440, Note_off_c, 2, 60, 0
3, 142560, Note_on_c, 2, 62, 69
3, 142987, Note_off_c, 2, 62, 0
3, 143280, Note_on_c, 2, 67, 70
3, 143400, Note_off_c, 2, 67, 0
3, 143520, Note_on_c, 2, 64, 70
3, 143640, Note_off_c, 2, 64, 0
3, 143760, Note_on_c, 2, 62, 70
3, 143880, Note_off_c, 2, 62, 0
3, 144000, Note_on_c, 2, 61, 70
3, 144427, Note_off_c, 2, 61, 0
3, 144720, Note_on_c, 2, 59, 71
3, 144840, Note_off_c, 2, 59, 0
3, 144960, Note_on_c, 2, 61, 72
3, 145080, Note_off_c, 2, 61, 0
3, 145200, Note_on_c, 2, 62, 72
3, 145320, Note_off_c, 2, 62, 0
3, 145440, Note_on_c, 2, 64, 72
3, 145867, Note_off_c, 2, 64, 0
3, 146160, Note_on_c, 2, 67, 73
3, 146280, Note_off_c, 2, 67, 0
3, 146400, Note_on_c, 2, 65, 73
3, 146520, Note_off_c, 2, 65, 0
3, 146640, Note_on_c, 2, 64, 74
3, 146760, Note_off_c, 2, 64, 0
3, 146880, Note_on_c, 2, 62, 74
3, 147292, Note_off_c, 2, 62, 0
3, 147600, Note_on_c, 2, 65, 75
3, 147720, Note_off_c, 2, 65, 0
3, 147840, Note_on_c, 2, 62, 75
3, 147960, Note_off_c, 2, 62, 0
3, 148080, Note_on_c, 2, 62, 76
3, 148200, Note_off_c, 2, 62, 0
3, 148320, Note_on_c, 2, 62, 76
3, 148740, Note_off_c, 2, 62, 0
3, 149040, Note_on_c, 2, 65, 77
3, 149160, Note_off_c, 2, 65, 0
3, 149280, Note_on_c, 2, 64, 77
3, 149400, Note_off_c, 2, 64, 0
3, 149520, Note_on_c, 2, 62, 77
3, 149640, Note_off_c, 2, 62, 0
3, 149760, Note_on_c, 2, 61, 78
3, 150187, Note_off_c, 2, 61, 0
3, 150480, Note_on_c, 2, 61, 79
3, 150600, Note_off_c, 2, 61, 0
3, 150720, Note_on_c, 2, 62, 79
3, 150840, Note_off_c, 2, 62, 0
3, 150960, Note_on_c, 2, 64, 79
3, 151080, Note_off_c, 2, 64, 0
3, 151200, Note_on_c, 2, 65, 79
3, 151612, Note_off_c, 2, 65, 0
3, 151920, Note_on_c, 2, 65, 80
3, 152040, Note_off_c, 2, 65, 0
3, 152160, Note_on_c, 2, 64, 81
3, 152280, Note_off_c, 2, 64, 0
3, 152400, Note_on_c, 2, 62, 81
3, 152520, Note_off_c, 2, 62, 0
3, 152640, Note_on_c, 2, 61, 81
3, 153060, Note_off_c, 2, 61, 0
3, 153360, Note_on_c, 2, 61, 82
3, 153480, Note_off_c, 2, 61, 0
3, 153600, Note_on_c, 2, 62, 82
3, 153720, Note_off_c, 2, 62, 0
3, 153840, Note_on_c, 2, 64, 83
3, 153960, Note_off_c, 2, 64, 0
3, 154080, Note_on_c, 2, 62, 83
3, 154507, Note_off_c, 2, 62, 0
3, 154800, Note_on_c, 2, 65, 84
3, 154920, Note_off_c, 2, 65, 0
3, 155040, Note_on_c, 2, 64, 84
3, 155160, Note_off_c, 2, 64, 0
3, 155280, Note_on_c, 2, 62, 85
3, 155400, Note_off_c, 2, 62, 0
3, 155520, Note_on_c, 2, 61, 85
3, 155940, Note_off_c, 2, 61, 0
3, 156240, Note_on_c, 2, 61, 86
3, 156360, Note_off_c, 2, 61, 0
3, 156480, Note_on_c, 2, 64, 86
3, 156600, Note_off_c, 2, 64, 0
3, 156720, Note_on_c, 2, 69, 86
3, 156840, Note_off_c, 2, 69, 0
3, 156960, Note_on_c, 2, 69, 87
3, 156960, Note_on_c, 2, 64, 87
3, 157387, Note_off_c, 2, 64, 0
3, 157387, Note_off_c, 2, 69, 0
3, 157680, Note_on_c, 2, 60, 88
3, 157800, Note_off_c, 2, 60, 0
3, 157920, Note_on_c, 2, 64, 88
3, 158040, Note_off_c, 2, 64, 0
3, 158160, Note_on_c, 2, 64, 88
3, 158160, Note_on_c, 2, 69, 88
3, 158280, Note_off_c, 2, 69, 0
3, 158280, Note_off_c, 2, 64, 0
3, 158400, Note_on_c, 2, 70, 89
3, 158400, Note_on_c, 2, 65, 89
3, 158812, Note_off_c, 2, 65, 0
3, 158827, Note_off_c, 2, 70, 0
3, 159120, Note_on_c, 2, 61, 89
3, 159240, Note_off_c, 2, 61, 0
3, 159360, Note_on_c, 2, 64, 90
3, 159480, Note_off_c, 2, 64, 0
3, 159600, Note_on_c, 2, 70, 90
3, 159720, Note_off_c, 2, 70, 0
3, 159840, Note_on_c, 2, 70, 90
3, 159840, Note_on_c, 2, 65, 90
3, 160267, Note_off_c, 2, 65, 0
3, 160267, Note_off_c, 2, 70, 0
3, 160560, Note_on_c, 2, 61, 91
3, 160680, Note_off_c, 2, 61, 0
3, 160800, Note_on_c, 2, 65, 92
3, 160920, Note_off_c, 2, 65, 0
3, 161040, Note_on_c, 2, 70, 92
3, 161160, Note_off_c, 2, 70, 0
3, 171360, Control_c, 2, 64, 127
3, 171360, Note_on_c, 2, 69, 79
3, 171400, Note_off_c, 2, 69, 0
3, 171400, Note_on_c, 2, 72, 79
3, 171440, Note_off_c, 2, 72, 0
3, 172080, Control_c, 2, 64, 0
3, 179040, Note_on_c, 2, 64, 45
3, 179520, Note_off_c, 2, 64, 0
3, 179520, Note_on_c, 2, 65, 46
3, 180000, Note_off_c, 2, 65, 0
3, 180480, Note_on_c, 2, 70, 49
3, 180720, Note_off_c, 2, 70, 0
3, 180720, Note_on_c, 2, 69, 49
3, 180910, Note_off_c, 2, 69, 0
3, 180960, Note_on_c, 2, 67, 50
3, 181200, Note_off_c, 2, 67, 0
3, 181200, Note_on_c, 2, 65, 50
3, 181390, Note_off_c, 2, 65, 0
3, 181440, Note_on_c, 2, 65, 53
3, 181680, Note_off_c, 2, 65, 0
3, 181680, Note_on_c, 2, 64, 51
3, 181870, Note_off_c, 2, 64, 0
3, 182880, Control_c, 2, 64, 127
3, 182880, Note_on_c, 2, 69, 67
3, 182920, Note_off_c, 2, 69, 0
3, 182920, Note_on_c, 2, 72, 67
3, 182960, Note_off_c, 2, 72, 0
3, 183600, Control_c, 2, 64, 0
3, 190560, Note_on_c, 2, 64, 44
3, 191040, Note_off_c, 2, 64, 0
3, 191040, Note_on_c, 2, 65, 47
3, 191400, Note_off_c, 2, 65, 0
3, 191520, Note_on_c, 2, 69, 51
3, 191880, Note_off_c, 2, 69, 0
3, 191880, Note_on_c, 2, 67, 46
3, 192000, Note_off_c, 2, 67, 0
3, 192000, Note_on_c, 2, 65, 45
3, 192480, Note_off_c, 2, 65, 0
3, 192480, Note_on_c, 2, 64, 39
3, 192960, Note_off_c, 2, 64, 0
3, 193680, Note_on_c, 2, 72, 67
3, 193800, Note_off_c, 2, 72, 0
3, 193920, Note_on_c, 2, 72, 67
3, 194040, Note_off_c, 2, 72, 0
3, 194160, Note_on_c, 2, 72, 67
3, 194280, Note_off_c, 2, 72, 0
3, 194400, Note_on_c, 2, 72, 68
3, 195120, Note_off_c, 2, 72, 0
3, 199440, Note_on_c, 2, 72, 62
3, 199560, Note_off_c, 2, 72, 0
3, 199680, Note_on_c, 2, 72, 62
3, 199800, Note_off_c, 2, 72, 0
3, 199920, Note_on_c, 2, 72, 62
3, 200040, Note_off_c, 2, 72, 0
3, 200160, Note_on_c, 2, 72, 61
3, 200880, Note_off_c, 2, 72, 0
3, 208800, Note_on_c, 2, 64, 70
3, 208800, Note_on_c, 2, 67, 70
3, 209160, Note_off_c, 2, 67, 0
3, 209160, Note_off_c, 2, 64, 0
3, 209760, Note_on_c, 2, 72, 73
3, 209760, Note_on_c, 2, 67, 73
3, 210120, Note_off_c, 2, 67, 0
3, 210120, Note_off_c, 2, 72, 0
3, 210240, Note_on_c, 2, 72, 74
3, 210240, Note_on_c, 2, 69, 74
3, 210600, Note_off_c, 2, 69, 0
3, 210600, Note_off_c, 2, 72, 0
3, 210720, Note_on_c, 2, 76, 76
3, 210720, Note_on_c, 2, 72, 76
3, 211080, Note_off_c, 2, 72, 0
3, 211080, Note_off_c, 2, 76, 0
3, 211200, Note_on_c, 2, 77, 77
3, 211200, Note_on_c, 2, 72, 77
3, 211560, Note_off_c, 2, 72, 0
3, 211560, Note_off_c, 2, 77, 0
3, 211680, Note_on_c, 2, 79, 79
3, 211680, Note_on_c, 2, 76, 79
3, 211680, Note_on_c, 2, 72, 79
3, 212040, Note_off_c, 2, 72, 0
3, 212040, Note_off_c, 2, 76, 0
3, 212040, Note_off_c, 2, 79, 0
3, 212640, Note_on_c, 2, 72, 81
3, 212640, Note_on_c, 2, 67, 81
3, 213000, Note_off_c, 2, 67, 0
3, 213000, Note_off_c, 2, 72, 0
3, 213120, Note_on_c, 2, 72, 83
3, 213120, Note_on_c, 2, 69, 83
3, 213480, Note_off_c, 2, 69, 0
3, 213480, Note_off_c, 2, 72, 0
3, 213600, Note_on_c, 2, 76, 84
3, 213600, Note_on_c, 2, 72, 84
3, 213960, Note_off_c, 2, 72, 0
3, 213960, Note_off_c, 2, 76, 0
3, 214080, Note_on_c, 2, 77, 86
3, 214080, Note_on_c, 2, 72, 86
3, 214440, Note_off_c, 2, 72, 0
3, 214440, Note_off_c, 2, 77, 0
3, 214560, Note_on_c, 2, 79, 87
3, 214560, Note_on_c, 2, 76, 87
3, 214560, Note_on_c, 2, 72, 87
3, 214920, Note_off_c, 2, 72, 0
3, 214920, Note_off_c, 2, 76, 0
3, 214920, Note_off_c, 2, 79, 0
3, 220320, Note_on_c, 2, 66, 58
3, 220320, Note_on_c, 2, 69, 58
3, 220800, Note_off_c, 2, 69, 0
3, 220800, Note_off_c, 2, 66, 0
3, 220800, Note_on_c, 2, 67, 54
3, 221227, Note_off_c, 2, 67, 0
3, 226080, Note_on_c, 2, 67, 59
3, 226080, Note_on_c, 2, 64, 59
3, 226560, Note_off_c, 2, 64, 0
3, 226560, Note_off_c, 2, 67, 0
3, 226560, Note_on_c, 2, 65, 55
3, 226987, Note_off_c, 2, 65, 0
3, 248160, Note_on_c, 2, 81, 48
3, 248640, Note_off_c, 2, 81, 0
3, 248640, Note_on_c, 2, 79, 52
3, 249067, Note_off_c, 2, 79, 0
3, 249120, Note_on_c, 2, 78, 55
3, 249600, Note_off_c, 2, 78, 0
3, 249600, Note_on_c, 2, 79, 47
3, 249792, Note_off_c, 2, 79, 0
3, 249840, Note_on_c, 2, 79, 48
3, 250080, Note_off_c, 2, 79, 0
3, 250080, Note_on_c, 2, 82, 50
3, 250320, Note_off_c, 2, 82, 0
3, 250320, Note_on_c, 2, 79, 51
3, 250512, Note_off_c, 2, 79, 0
3, 250560, Note_on_c, 2, 76, 52
3, 251040, Note_off_c, 2, 76, 0
3, 251040, Note_on_c, 2, 77, 45
3, 251232, Note_off_c, 2, 77, 0
3, 256320, Note_on_c, 2, 72, 49
3, 256800, Note_off_c, 2, 72, 0
3, 256800, Note_on_c, 2, 70, 41
3, 257040, Note_off_c, 2, 70, 0
3, 257760, Note_on_c, 2, 70, 48
3, 258240, Note_off_c, 2, 70, 0
3, 258240, Note_on_c, 2, 69, 37
3, 258432, Note_off_c, 2, 69, 0
3, 262800, Note_on_c, 2, 64, 55
3, 262955, Note_off_c, 2, 64, 0
3, 263040, Note_on_c, 2, 65, 56
3, 263195, Note_off_c, 2, 65, 0
3, 263280, Note_on_c, 2, 67, 57
3, 263435, Note_off_c, 2, 67, 0
3, 263520, Note_on_c, 2, 69, 57
3, 263947, Note_off_c, 2, 69, 0
3, 264240, Note_on_c, 2, 70, 59
3, 264395, Note_off_c, 2, 70, 0
3, 264480, Note_on_c, 2, 72, 60
3, 264635, Note_off_c, 2, 72, 0
3, 264720, Note_on_c, 2, 63, 61
3, 264875, Note_off_c, 2, 63, 0
3, 264960, Note_on_c, 2, 62, 61
3, 265380, Note_off_c, 2, 62, 0
3, 265680, Note_on_c, 2, 65, 63
3, 265835, Note_off_c, 2, 65, 0
3, 265920, Note_on_c, 2, 67, 64
3, 266075, Note_off_c, 2, 67, 0
3, 266160, Note_on_c, 2, 69, 65
3, 266315, Note_off_c, 2, 69, 0
3, 266400, Note_on_c, 2, 70, 65
3, 266820, Note_off_c, 2, 70, 0
3, 267120, Note_on_c, 2, 72, 67
3, 267275, Note_off_c, 2, 72, 0
3, 267360, Note_on_c, 2, 74, 68
3, 267515, Note_off_c, 2, 74, 0
3, 267600, Note_on_c, 2, 70, 69
3, 267755, Note_off_c, 2, 70, 0
3, 267840, Note_on_c, 2, 69, 69
3, 267960, Note_off_c, 2, 69, 0
3, 271200, Note_on_c, 2, 82, 79
3, 271440, Note_off_c, 2, 82, 0
3, 271920, Note_on_c, 2, 82, 81
3, 272112, Note_off_c, 2, 82, 0
3, 272160, Note_on_c, 2, 81, 81
3, 272400, Note_off_c, 2, 81, 0
3, 272400, Note_on_c, 2, 79, 79
3, 272520, Note_off_c, 2, 79, 0
3, 272640, Note_on_c, 2, 77, 78
3, 273120, Note_off_c, 2, 77, 0
3, 273120, Note_on_c, 2, 76, 74
3, 273600, Note_off_c, 2, 76, 0
3, 276960, Note_on_c, 2, 82, 85
3, 277200, Note_off_c, 2, 82, 0
3, 277680, Note_on_c, 2, 82, 88
3, 277872, Note_off_c, 2, 82, 0
3, 277920, Note_on_c, 2, 81, 89
3, 278160, Note_off_c, 2, 81, 0
3, 278160, Note_on_c, 2, 79, 88
3, 278280, Note_off_c, 2, 79, 0
3, 278400, Note_on_c, 2, 77, 87
3, 278880, Note_off_c, 2, 77, 0
3, 278880, Note_on_c, 2, 76, 85
3, 279360, Note_off_c, 2, 76, 0
3, 282720, Note_on_c, 2, 84, 96
3, 282720, Note_on_c, 2, 81, 96
3, 283080, Note_off_c, 2, 81, 0
3, 283087, Note_off_c, 2, 84, 0
3, 284160, Note_on_c, 2, 81, 59
3, 284315, Note_off_c, 2, 81, 0
3, 284400, Note_on_c, 2, 81, 58
3, 284555, Note_off_c, 2, 81, 0
3, 284640, Note_on_c, 2, 77, 57
3, 284795, Note_off_c, 2, 77, 0
3, 285120, Note_on_c, 2, 79, 54
3, 285275, Note_off_c, 2, 79, 0
3, 285360, Note_on_c, 2, 79, 53
3, 285515, Note_off_c, 2, 79, 0
3, 285600, Note_on_c, 2, 76, 52
3, 285755, Note_off_c, 2, 76, 0
3, 288000, Note_on_c, 2, 81, 49
3, 288155, Note_off_c, 2, 81, 0
3, 288240, Note_on_c, 2, 81, 48
3, 288395, Note_off_c, 2, 81, 0
3, 288480, Note_on_c, 2, 77, 46
3, 288635, Note_off_c, 2, 77, 0
3, 288960, Note_on_c, 2, 82, 43
3, 289115, Note_off_c, 2, 82, 0
3, 289200, Note_on_c, 2, 82, 42
3, 289355, Note_off_c, 2, 82, 0
3, 289440, Note_on_c, 2, 76, 40
3, 289595, Note_off_c, 2, 76, 0
3, 295680, Note_on_c, 2, 76, 59
3, 295835, Note_off_c, 2, 76, 0
3, 295920, Note_on_c, 2, 76, 58
3, 296075, Note_off_c, 2, 76, 0
3, 296160, Note_on_c, 2, 72, 56
3, 296315, Note_off_c, 2, 72, 0
3, 296640, Note_on_c, 2, 74, 53
3, 296795, Note_off_c, 2, 74, 0
3, 296880, Note_on_c, 2, 74, 52
3, 297035, Note_off_c, 2, 74, 0
3, 297120, Note_on_c, 2, 71, 50
3, 297276, Note_off_c, 2, 71, 0
3, 303360, Note_on_c, 2, 81, 61
3, 303515, Note_off_c, 2, 81, 0
3, 303600, Note_on_c, 2, 81, 61
3, 303755, Note_off_c, 2, 81, 0
3, 303840, Note_on_c, 2, 77, 60
3, 303995, Note_off_c, 2, 77, 0
3, 304320, Note_on_c, 2, 79, 59
3, 304475, Note_off_c, 2, 79, 0
3, 304560, Note_on_c, 2, 79, 59
3, 304715, Note_off_c, 2, 79, 0
3, 304800, Note_on_c, 2, 76, 58
3, 304955, Note_off_c, 2, 76, 0
3, 307200, Note_on_c, 2, 81, 72
3, 307355, Note_off_c, 2, 81, 0
3, 307440, Note_on_c, 2, 81, 57
3, 307595, Note_off_c, 2, 81, 0
3, 307680, Note_on_c, 2, 77, 56
3, 307835, Note_off_c, 2, 77, 0
3, 308160, Note_on_c, 2, 79, 54
3, 308315, Note_off_c, 2, 79, 0
3, 308400, Note_on_c, 2, 79, 54
3, 308555, Note_off_c, 2, 79, 0
3, 308640, Note_on_c, 2, 76, 53
3, 308795, Note_off_c, 2, 76, 0
3, 312960, Note_on_c, 2, 81, 53
3, 313115, Note_off_c, 2, 81, 0
3, 313200, Note_on_c, 2, 81, 53
3, 313355, Note_off_c, 2, 81, 0
3, 313440, Note_on_c, 2, 77, 53
3, 313595, Note_off_c, 2, 77, 0
3, 313920, Note_on_c, 2, 79, 52
3, 314075, Note_off_c, 2, 79, 0
3, 314160, Note_on_c, 2, 79, 51
3, 314315, Note_off_c, 2, 79, 0
3, 314400, Note_on_c, 2, 76, 51
3, 314555, Note_off_c, 2, 76, 0
3, 315120, Note_on_c, 2, 69, 68
3, 315360, Note_on_c, 2, 70, 75
3, 315375, Note_off_c, 2, 69, 0
3, 315840, Note_off_c, 2, 70, 0
3, 315840, Note_on_c, 2, 72, 79
3, 316320, Note_off_c, 2, 72, 0
3, 316320, Note_on_c, 2, 74, 84
3, 317280, Note_off_c, 2, 74, 0
3, 317280, Note_on_c, 2, 74, 96
3, 317520, Note_off_c, 2, 74, 0
3, 322560, Note_on_c, 2, 77, 63
3, 322715, Note_off_c, 2, 77, 0
3, 322800, Note_on_c, 2, 77, 62
3, 322955, Note_off_c, 2, 77, 0
3, 323040, Note_on_c, 2, 74, 64
3, 323195, Note_off_c, 2, 74, 0
3, 323520, Note_on_c, 2, 76, 61
3, 323675, Note_off_c, 2, 76, 0
3, 323760, Note_on_c, 2, 76, 60
3, 323915, Note_off_c, 2, 76, 0
3, 324000, Note_on_c, 2, 73, 59
3, 324155, Note_off_c, 2, 73, 0
3, 326400, Note_on_c, 2, 64, 57
3, 326880, Note_off_c, 2, 64, 0
3, 326880, Note_on_c, 2, 65, 60
3, 327070, Note_off_c, 2, 65, 0
3, 327120, Note_on_c, 2, 67, 59
3, 327310, Note_off_c, 2, 67, 0
3, 327360, Note_on_c, 2, 69, 60
3, 327840, Note_off_c, 2, 69, 0
3, 327840, Note_on_c, 2, 74, 60
3, 328800, Note_off_c, 2, 74, 0
3, 328800, Note_on_c, 2, 70, 56
3, 329040, Note_off_c, 2, 70, 0
3, 334080, Note_on_c, 2, 81, 69
3, 334235, Note_off_c, 2, 81, 0
3, 334320, Note_on_c, 2, 81, 68
3, 334475, Note_off_c, 2, 81, 0
3, 334560, Note_on_c, 2, 77, 68
3, 334715, Note_off_c, 2, 77, 0
3, 335040, Note_on_c, 2, 79, 66
3, 335195, Note_off_c, 2, 79, 0
3, 335280, Note_on_c, 2, 79, 65
3, 335435, Note_off_c, 2, 79, 0
3, 335520, Note_on_c, 2, 76, 65
3, 335675, Note_off_c, 2, 76, 0
3, 337920, Note_on_c, 2, 81, 74
3, 338075, Note_off_c, 2, 81, 0
3, 338160, Note_on_c, 2, 81, 63
3, 338315, Note_off_c, 2, 81, 0
3, 338400, Note_on_c, 2, 77, 62
3, 338555, Note_off_c, 2, 77, 0
3, 338880, Note_on_c, 2, 82, 60
3, 339035, Note_off_c, 2, 82, 0
3, 339120, Note_on_c, 2, 82, 60
3, 339275, Note_off_c, 2, 82, 0
3, 339360, Note_on_c, 2, 76, 59
3, 339515, Note_off_c, 2, 76, 0
3, 354240, Note_on_c, 2, 72, 43
3, 354360, Note_off_c, 2, 72, 0
3, 354480, Note_on_c, 2, 72, 40
3, 354600, Note_off_c, 2, 72, 0
3, 354720, Note_on_c, 2, 69, 38
3, 354900, Note_off_c, 2, 69, 0
3, 355200, Note_on_c, 2, 81, 120
3, 355200, Note_on_c, 2, 77, 120
3, 355200, Note_on_c, 2, 84, 120
3, 355560, Note_off_c, 2, 84, 0
3, 355560, Note_off_c, 2, 77, 0
3, 355560, Note_off_c, 2, 81, 0
3, 355680, Note_on_c, 2, 60, 121
3, 355680, Note_on_c, 2, 57, 121
3, 356160, Note_off_c, 2, 57, 0
3, 356160, Note_off_c, 2, 60, 0
3, 356160, End_track
4, 0, Start_track
4, 0, Title_t, "Unnamed Track"
4, 0, Control_c, 3, 0, 0
4, 0, Control_c, 3, 32, 0
4, 0, Program_c, 3, 0
4, 0, Control_c, 3, 64, 0
4, 0, Control_c, 3, 10, 64
4, 0, Control_c, 3, 91, 100
4, 0, Control_c, 3, 93, 19
4, 0, Control_c, 3, 1, 0
4, 0, Pitch_bend_c, 3, 8192
4, 0, Control_c, 3, 7, 112
4, 0, Control_c, 3, 64, 0
4, 23040, Note_on_c, 3, 57, 75
4, 23280, Note_on_c, 3, 48, 75
4, 23400, Note_off_c, 3, 57, 0
4, 23472, Note_off_c, 3, 48, 0
4, 23520, Note_on_c, 3, 57, 75
4, 23760, Note_on_c, 3, 48, 74
4, 23880, Note_off_c, 3, 57, 0
4, 23952, Note_off_c, 3, 48, 0
4, 24000, Note_on_c, 3, 57, 74
4, 24240, Note_on_c, 3, 48, 74
4, 24360, Note_off_c, 3, 57, 0
4, 24432, Note_off_c, 3, 48, 0
4, 24480, Note_on_c, 3, 57, 73
4, 24720, Note_on_c, 3, 48, 73
4, 24840, Note_off_c, 3, 57, 0
4, 24912, Note_off_c, 3, 48, 0
4, 24960, Note_on_c, 3, 57, 73
4, 25200, Note_on_c, 3, 48, 72
4, 25320, Note_off_c, 3, 57, 0
4, 25392, Note_off_c, 3, 48, 0
4, 25440, Note_on_c, 3, 57, 72
4, 25680, Note_on_c, 3, 48, 72
4, 25800, Note_off_c, 3, 57, 0
4, 25872, Note_off_c, 3, 48, 0
4, 25920, Note_on_c, 3, 58, 71
4, 26160, Note_on_c, 3, 48, 71
4, 26280, Note_off_c, 3, 58, 0
4, 26352, Note_off_c, 3, 48, 0
4, 26400, Note_on_c, 3, 58, 71
4, 26640, Note_on_c, 3, 48, 71
4, 26760, Note_off_c, 3, 58, 0
4, 26832, Note_off_c, 3, 48, 0
4, 26880, Note_on_c, 3, 58, 70
4, 27120, Note_on_c, 3, 48, 70
4, 27240, Note_off_c, 3, 58, 0
4, 27312, Note_off_c, 3, 48, 0
4, 27360, Note_on_c, 3, 58, 70
4, 27600, Note_on_c, 3, 48, 69
4, 27720, Note_off_c, 3, 58, 0
4, 27792, Note_off_c, 3, 48, 0
4, 27840, Note_on_c, 3, 58, 69
4, 28080, Note_on_c, 3, 48, 69
4, 28200, Note_off_c, 3, 58, 0
4, 28272, Note_off_c, 3, 48, 0
4, 28320, Note_on_c, 3, 55, 68
4, 28560, Note_on_c, 3, 48, 68
4, 28680, Note_off_c, 3, 55, 0
4, 28752, Note_off_c, 3, 48, 0
4, 28800, Note_on_c, 3, 57, 68
4, 29040, Note_on_c, 3, 48, 64
4, 29160, Note_off_c, 3, 57, 0
4, 29232, Note_off_c, 3, 48, 0
4, 29280, Note_on_c, 3, 57, 57
4, 29520, Note_on_c, 3, 48, 57
4, 29640, Note_off_c, 3, 57, 0
4, 29712, Note_off_c, 3, 48, 0
4, 29760, Note_on_c, 3, 57, 57
4, 30000, Note_on_c, 3, 48, 56
4, 30120, Note_off_c, 3, 57, 0
4, 30192, Note_off_c, 3, 48, 0
4, 30240, Note_on_c, 3, 57, 56
4, 30480, Note_on_c, 3, 48, 55
4, 30600, Note_off_c, 3, 57, 0
4, 30672, Note_off_c, 3, 48, 0
4, 30720, Note_on_c, 3, 57, 55
4, 30960, Note_on_c, 3, 48, 54
4, 31080, Note_off_c, 3, 57, 0
4, 31152, Note_off_c, 3, 48, 0
4, 31200, Note_on_c, 3, 57, 54
4, 31440, Note_on_c, 3, 48, 53
4, 31560, Note_off_c, 3, 57, 0
4, 31632, Note_off_c, 3, 48, 0
4, 31680, Note_on_c, 3, 58, 53
4, 31920, Note_on_c, 3, 48, 52
4, 32040, Note_off_c, 3, 58, 0
4, 32112, Note_off_c, 3, 48, 0
4, 32160, Note_on_c, 3, 58, 52
4, 32400, Note_on_c, 3, 48, 51
4, 32520, Note_off_c, 3, 58, 0
4, 32592, Note_off_c, 3, 48, 0
4, 32640, Note_on_c, 3, 58, 51
4, 32880, Note_on_c, 3, 48, 50
4, 33000, Note_off_c, 3, 58, 0
4, 33072, Note_off_c, 3, 48, 0
4, 33120, Note_on_c, 3, 58, 50
4, 33360, Note_on_c, 3, 48, 50
4, 33480, Note_off_c, 3, 58, 0
4, 33552, Note_off_c, 3, 48, 0
4, 33600, Note_on_c, 3, 58, 49
4, 33840, Note_on_c, 3, 48, 49
4, 33960, Note_off_c, 3, 58, 0
4, 34032, Note_off_c, 3, 48, 0
4, 34080, Note_on_c, 3, 55, 48
4, 34320, Note_on_c, 3, 48, 48
4, 34440, Note_off_c, 3, 55, 0
4, 34512, Note_off_c, 3, 48, 0
4, 39000, Note_on_c, 3, 60, 60
4, 39096, Note_off_c, 3, 60, 0
4, 39120, Note_on_c, 3, 59, 60
4, 39216, Note_off_c, 3, 59, 0
4, 39240, Note_on_c, 3, 60, 61
4, 39336, Note_off_c, 3, 60, 0
4, 39360, Note_on_c, 3, 62, 61
4, 39456, Note_off_c, 3, 62, 0
4, 39480, Note_on_c, 3, 60, 62
4, 39576, Note_off_c, 3, 60, 0
4, 39600, Note_on_c, 3, 59, 62
4, 39696, Note_off_c, 3, 59, 0
4, 39720, Note_on_c, 3, 60, 63
4, 39816, Note_off_c, 3, 60, 0
4, 39960, Note_on_c, 3, 60, 63
4, 40056, Note_off_c, 3, 60, 0
4, 40200, Note_on_c, 3, 60, 64
4, 40296, Note_off_c, 3, 60, 0
4, 40440, Note_on_c, 3, 60, 65
4, 40536, Note_off_c, 3, 60, 0
4, 40560, Note_on_c, 3, 59, 66
4, 40656, Note_off_c, 3, 59, 0
4, 40680, Note_on_c, 3, 60, 66
4, 40776, Note_off_c, 3, 60, 0
4, 40920, Note_on_c, 3, 60, 67
4, 41016, Note_off_c, 3, 60, 0
4, 41040, Note_on_c, 3, 59, 67
4, 41136, Note_off_c, 3, 59, 0
4, 41160, Note_on_c, 3, 60, 68
4, 41256, Note_off_c, 3, 60, 0
4, 41400, Note_on_c, 3, 60, 69
4, 41496, Note_off_c, 3, 60, 0
4, 41520, Note_on_c, 3, 59, 69
4, 41616, Note_off_c, 3, 59, 0
4, 41640, Note_on_c, 3, 60, 70
4, 41736, Note_off_c, 3, 60, 0
4, 42840, Note_on_c, 3, 60, 74
4, 42936, Note_off_c, 3, 60, 0
4, 43080, Note_on_c, 3, 60, 75
4, 43176, Note_off_c, 3, 60, 0
4, 43320, Note_on_c, 3, 60, 76
4, 43416, Note_off_c, 3, 60, 0
4, 43560, Note_on_c, 3, 60, 76
4, 43656, Note_off_c, 3, 60, 0
4, 43800, Note_on_c, 3, 60, 77
4, 43896, Note_off_c, 3, 60, 0
4, 44040, Note_on_c, 3, 60, 78
4, 44136, Note_off_c, 3, 60, 0
4, 44280, Note_on_c, 3, 60, 79
4, 44376, Note_off_c, 3, 60, 0
4, 44520, Note_on_c, 3, 60, 80
4, 44616, Note_off_c, 3, 60, 0
4, 64920, Note_on_c, 3, 79, 64
4, 65016, Note_off_c, 3, 79, 0
4, 65040, Note_on_c, 3, 67, 64
4, 65160, Note_on_c, 3, 79, 64
4, 65220, Note_off_c, 3, 67, 0
4, 65256, Note_off_c, 3, 79, 0
4, 65280, Note_on_c, 3, 67, 64
4, 65400, Note_on_c, 3, 79, 64
4, 65460, Note_off_c, 3, 67, 0
4, 65496, Note_off_c, 3, 79, 0
4, 65520, Note_on_c, 3, 67, 64
4, 65640, Note_on_c, 3, 79, 65
4, 65700, Note_off_c, 3, 67, 0
4, 65736, Note_off_c, 3, 79, 0
4, 65760, Note_on_c, 3, 67, 65
4, 65880, Note_on_c, 3, 79, 65
4, 65940, Note_off_c, 3, 67, 0
4, 65976, Note_off_c, 3, 79, 0
4, 66000, Note_on_c, 3, 67, 65
4, 66120, Note_on_c, 3, 79, 65
4, 66180, Note_off_c, 3, 67, 0
4, 66216, Note_off_c, 3, 79, 0
4, 66240, Note_on_c, 3, 67, 65
4, 66360, Note_on_c, 3, 79, 65
4, 66420, Note_off_c, 3, 67, 0
4, 66456, Note_off_c, 3, 79, 0
4, 66480, Note_on_c, 3, 67, 65
4, 66600, Note_on_c, 3, 79, 66
4, 66660, Note_off_c, 3, 67, 0
4, 66696, Note_off_c, 3, 79, 0
4, 66720, Note_on_c, 3, 67, 66
4, 66840, Note_on_c, 3, 79, 66
4, 66900, Note_off_c, 3, 67, 0
4, 66936, Note_off_c, 3, 79, 0
4, 66960, Note_on_c, 3, 67, 66
4, 67080, Note_on_c, 3, 79, 66
4, 67140, Note_off_c, 3, 67, 0
4, 67176, Note_off_c, 3, 79, 0
4, 67200, Note_on_c, 3, 67, 66
4, 67320, Note_on_c, 3, 79, 66
4, 67380, Note_off_c, 3, 67, 0
4, 67416, Note_off_c, 3, 79, 0
4, 67440, Note_on_c, 3, 67, 66
4, 67560, Note_on_c, 3, 79, 67
4, 67620, Note_off_c, 3, 67, 0
4, 67656, Note_off_c, 3, 79, 0
4, 67680, Note_on_c, 3, 67, 67
4, 67800, Note_on_c, 3, 79, 67
4, 67860, Note_off_c, 3, 67, 0
4, 67896, Note_off_c, 3, 79, 0
4, 67920, Note_on_c, 3, 67, 67
4, 68040, Note_on_c, 3, 79, 67
4, 68100, Note_off_c, 3, 67, 0
4, 68136, Note_off_c, 3, 79, 0
4, 68160, Note_on_c, 3, 67, 67
4, 68280, Note_on_c, 3, 79, 67
4, 68340, Note_off_c, 3, 67, 0
4, 68376, Note_off_c, 3, 79, 0
4, 68400, Note_on_c, 3, 67, 67
4, 68520, Note_on_c, 3, 79, 68
4, 68580, Note_off_c, 3, 67, 0
4, 68616, Note_off_c, 3, 79, 0
4, 68640, Note_on_c, 3, 67, 68
4, 68760, Note_on_c, 3, 79, 68
4, 68820, Note_off_c, 3, 67, 0
4, 68856, Note_off_c, 3, 79, 0
4, 68880, Note_on_c, 3, 67, 68
4, 69000, Note_on_c, 3, 79, 68
4, 69060, Note_off_c, 3, 67, 0
4, 69096, Note_off_c, 3, 79, 0
4, 69120, Note_on_c, 3, 67, 68
4, 69240, Note_on_c, 3, 79, 68
4, 69300, Note_off_c, 3, 67, 0
4, 69336, Note_off_c, 3, 79, 0
4, 69360, Note_on_c, 3, 67, 68
4, 69480, Note_on_c, 3, 79, 69
4, 69540, Note_off_c, 3, 67, 0
4, 69576, Note_off_c, 3, 79, 0
4, 69600, Note_on_c, 3, 67, 69
4, 69720, Note_on_c, 3, 79, 69
4, 69780, Note_off_c, 3, 67, 0
4, 69816, Note_off_c, 3, 79, 0
4, 69840, Note_on_c, 3, 67, 69
4, 69960, Note_on_c, 3, 79, 69
4, 70020, Note_off_c, 3, 67, 0
4, 70056, Note_off_c, 3, 79, 0
4, 70080, Note_on_c, 3, 67, 69
4, 70200, Note_on_c, 3, 79, 69
4, 70260, Note_off_c, 3, 67, 0
4, 70296, Note_off_c, 3, 79, 0
4, 70320, Note_on_c, 3, 67, 69
4, 70440, Note_on_c, 3, 79, 70
4, 70500, Note_off_c, 3, 67, 0
4, 70536, Note_off_c, 3, 79, 0
4, 70560, Note_on_c, 3, 67, 70
4, 70680, Note_on_c, 3, 79, 70
4, 70740, Note_off_c, 3, 67, 0
4, 70776, Note_off_c, 3, 79, 0
4, 70800, Note_on_c, 3, 67, 70
4, 70920, Note_on_c, 3, 79, 70
4, 70980, Note_off_c, 3, 67, 0
4, 71016, Note_off_c, 3, 79, 0
4, 71040, Note_on_c, 3, 67, 70
4, 71160, Note_on_c, 3, 79, 70
4, 71220, Note_off_c, 3, 67, 0
4, 71256, Note_off_c, 3, 79, 0
4, 71280, Note_on_c, 3, 67, 71
4, 71400, Note_on_c, 3, 79, 71
4, 71460, Note_off_c, 3, 67, 0
4, 71496, Note_off_c, 3, 79, 0
4, 71520, Note_on_c, 3, 67, 71
4, 71640, Note_on_c, 3, 79, 71
4, 71700, Note_off_c, 3, 67, 0
4, 71736, Note_off_c, 3, 79, 0
4, 71760, Note_on_c, 3, 67, 71
4, 71880, Note_on_c, 3, 79, 71
4, 71940, Note_off_c, 3, 67, 0
4, 71976, Note_off_c, 3, 79, 0
4, 72120, Note_on_c, 3, 55, 71
4, 72216, Note_off_c, 3, 55, 0
4, 72240, Note_on_c, 3, 52, 72
4, 72336, Note_off_c, 3, 52, 0
4, 72360, Note_on_c, 3, 55, 72
4, 72456, Note_off_c, 3, 55, 0
4, 72600, Note_on_c, 3, 55, 72
4, 72696, Note_off_c, 3, 55, 0
4, 72720, Note_on_c, 3, 52, 72
4, 72816, Note_off_c, 3, 52, 0
4, 72840, Note_on_c, 3, 55, 72
4, 72936, Note_off_c, 3, 55, 0
4, 73080, Note_on_c, 3, 55, 72
4, 73176, Note_off_c, 3, 55, 0
4, 73200, Note_on_c, 3, 52, 73
4, 73296, Note_off_c, 3, 52, 0
4, 73320, Note_on_c, 3, 55, 73
4, 73416, Note_off_c, 3, 55, 0
4, 73560, Note_on_c, 3, 55, 73
4, 73656, Note_off_c, 3, 55, 0
4, 73680, Note_on_c, 3, 52, 73
4, 73776, Note_off_c, 3, 52, 0
4, 73800, Note_on_c, 3, 55, 73
4, 73896, Note_off_c, 3, 55, 0
4, 74040, Note_on_c, 3, 55, 73
4, 74136, Note_off_c, 3, 55, 0
4, 74160, Note_on_c, 3, 52, 74
4, 74256, Note_off_c, 3, 52, 0
4, 74280, Note_on_c, 3, 55, 74
4, 74376, Note_off_c, 3, 55, 0
4, 74520, Note_on_c, 3, 55, 74
4, 74616, Note_off_c, 3, 55, 0
4, 74640, Note_on_c, 3, 52, 74
4, 74736, Note_off_c, 3, 52, 0
4, 74760, Note_on_c, 3, 55, 74
4, 74856, Note_off_c, 3, 55, 0
4, 75000, Note_on_c, 3, 55, 74
4, 75096, Note_off_c, 3, 55, 0
4, 75120, Note_on_c, 3, 53, 75
4, 75216, Note_off_c, 3, 53, 0
4, 75240, Note_on_c, 3, 55, 75
4, 75336, Note_off_c, 3, 55, 0
4, 75480, Note_on_c, 3, 55, 75
4, 75576, Note_off_c, 3, 55, 0
4, 75600, Note_on_c, 3, 53, 75
4, 75696, Note_off_c, 3, 53, 0
4, 75720, Note_on_c, 3, 55, 75
4, 75816, Note_off_c, 3, 55, 0
4, 75960, Note_on_c, 3, 55, 75
4, 76056, Note_off_c, 3, 55, 0
4, 76080, Note_on_c, 3, 53, 76
4, 76176, Note_off_c, 3, 53, 0
4, 76200, Note_on_c, 3, 55, 76
4, 76296, Note_off_c, 3, 55, 0
4, 76440, Note_on_c, 3, 55, 76
4, 76536, Note_off_c, 3, 55, 0
4, 76560, Note_on_c, 3, 50, 76
4, 76656, Note_off_c, 3, 50, 0
4, 76680, Note_on_c, 3, 55, 76
4, 76776, Note_off_c, 3, 55, 0
4, 76920, Note_on_c, 3, 55, 77
4, 77016, Note_off_c, 3, 55, 0
4, 77040, Note_on_c, 3, 50, 77
4, 77136, Note_off_c, 3, 50, 0
4, 77160, Note_on_c, 3, 55, 77
4, 77256, Note_off_c, 3, 55, 0
4, 77400, Note_on_c, 3, 55, 77
4, 77496, Note_off_c, 3, 55, 0
4, 77520, Note_on_c, 3, 50, 77
4, 77616, Note_off_c, 3, 50, 0
4, 77640, Note_on_c, 3, 55, 77
4, 77736, Note_off_c, 3, 55, 0
4, 193200, Note_on_c, 3, 48, 66
4, 193392, Note_off_c, 3, 48, 0
4, 193680, Note_on_c, 3, 48, 67
4, 193872, Note_off_c, 3, 48, 0
4, 194160, Note_on_c, 3, 48, 67
4, 194352, Note_off_c, 3, 48, 0
4, 194640, Note_on_c, 3, 48, 68
4, 194832, Note_off_c, 3, 48, 0
4, 195120, Note_on_c, 3, 48, 69
4, 195312, Note_off_c, 3, 48, 0
4, 195600, Note_on_c, 3, 48, 69
4, 195792, Note_off_c, 3, 48, 0
4, 196080, Note_on_c, 3, 48, 70
4, 196272, Note_off_c, 3, 48, 0
4, 196560, Note_on_c, 3, 48, 71
4, 196752, Note_off_c, 3, 48, 0
4, 197040, Note_on_c, 3, 48, 71
4, 197232, Note_off_c, 3, 48, 0
4, 197520, Note_on_c, 3, 48, 72
4, 197712, Note_off_c, 3, 48, 0
4, 198000, Note_on_c, 3, 48, 72
4, 198192, Note_off_c, 3, 48, 0
4, 198480, Note_on_c, 3, 48, 73
4, 198672, Note_off_c, 3, 48, 0
4, 198960, Note_on_c, 3, 48, 66
4, 199152, Note_off_c, 3, 48, 0
4, 199440, Note_on_c, 3, 48, 59
4, 199632, Note_off_c, 3, 48, 0
4, 199920, Note_on_c, 3, 48, 58
4, 200112, Note_off_c, 3, 48, 0
4, 200400, Note_on_c, 3, 48, 58
4, 200592, Note_off_c, 3, 48, 0
4, 200880, Note_on_c, 3, 48, 57
4, 201072, Note_off_c, 3, 48, 0
4, 201360, Note_on_c, 3, 48, 56
4, 201552, Note_off_c, 3, 48, 0
4, 201840, Note_on_c, 3, 48, 55
4, 202032, Note_off_c, 3, 48, 0
4, 202320, Note_on_c, 3, 48, 55
4, 202512, Note_off_c, 3, 48, 0
4, 202800, Note_on_c, 3, 48, 54
4, 202992, Note_off_c, 3, 48, 0
4, 203280, Note_on_c, 3, 48, 53
4, 203472, Note_off_c, 3, 48, 0
4, 203760, Note_on_c, 3, 48, 52
4, 203952, Note_off_c, 3, 48, 0
4, 204240, Note_on_c, 3, 48, 52
4, 204432, Note_off_c, 3, 48, 0
4, 208920, Note_on_c, 3, 60, 70
4, 209016, Note_off_c, 3, 60, 0
4, 209040, Note_on_c, 3, 59, 71
4, 209136, Note_off_c, 3, 59, 0
4, 209160, Note_on_c, 3, 60, 71
4, 209256, Note_off_c, 3, 60, 0
4, 209280, Note_on_c, 3, 62, 71
4, 209376, Note_off_c, 3, 62, 0
4, 209400, Note_on_c, 3, 60, 72
4, 209496, Note_off_c, 3, 60, 0
4, 209520, Note_on_c, 3, 59, 72
4, 209616, Note_off_c, 3, 59, 0
4, 209640, Note_on_c, 3, 60, 72
4, 209736, Note_off_c, 3, 60, 0
4, 209880, Note_on_c, 3, 60, 73
4, 209976, Note_off_c, 3, 60, 0
4, 210120, Note_on_c, 3, 60, 74
4, 210216, Note_off_c, 3, 60, 0
4, 210360, Note_on_c, 3, 60, 75
4, 210456, Note_off_c, 3, 60, 0
4, 210480, Note_on_c, 3, 59, 75
4, 210576, Note_off_c, 3, 59, 0
4, 210600, Note_on_c, 3, 60, 75
4, 210696, Note_off_c, 3, 60, 0
4, 210840, Note_on_c, 3, 60, 76
4, 210936, Note_off_c, 3, 60, 0
4, 210960, Note_on_c, 3, 59, 76
4, 211056, Note_off_c, 3, 59, 0
4, 211080, Note_on_c, 3, 60, 77
4, 211176, Note_off_c, 3, 60, 0
4, 211320, Note_on_c, 3, 60, 77
4, 211416, Note_off_c, 3, 60, 0
4, 211440, Note_on_c, 3, 59, 78
4, 211536, Note_off_c, 3, 59, 0
4, 211560, Note_on_c, 3, 60, 78
4, 211656, Note_off_c, 3, 60, 0
4, 211800, Note_on_c, 3, 60, 79
4, 211896, Note_off_c, 3, 60, 0
4, 211920, Note_on_c, 3, 59, 79
4, 212016, Note_off_c, 3, 59, 0
4, 212040, Note_on_c, 3, 60, 80
4, 212136, Note_off_c, 3, 60, 0
4, 212160, Note_on_c, 3, 62, 80
4, 212256, Note_off_c, 3, 62, 0
4, 212280, Note_on_c, 3, 60, 80
4, 212376, Note_off_c, 3, 60, 0
4, 212400, Note_on_c, 3, 59, 81
4, 212496, Note_off_c, 3, 59, 0
4, 212520, Note_on_c, 3, 60, 81
4, 212616, Note_off_c, 3, 60, 0
4, 212760, Note_on_c, 3, 60, 82
4, 212856, Note_off_c, 3, 60, 0
4, 213000, Note_on_c, 3, 60, 83
4, 213096, Note_off_c, 3, 60, 0
4, 213240, Note_on_c, 3, 60, 83
4, 213336, Note_off_c, 3, 60, 0
4, 213360, Note_on_c, 3, 59, 84
4, 213456, Note_off_c, 3, 59, 0
4, 213480, Note_on_c, 3, 60, 84
4, 213576, Note_off_c, 3, 60, 0
4, 213720, Note_on_c, 3, 60, 85
4, 213816, Note_off_c, 3, 60, 0
4, 213840, Note_on_c, 3, 59, 85
4, 213936, Note_off_c, 3, 59, 0
4, 213960, Note_on_c, 3, 60, 85
4, 214056, Note_off_c, 3, 60, 0
4, 214200, Note_on_c, 3, 60, 86
4, 214296, Note_off_c, 3, 60, 0
4, 214320, Note_on_c, 3, 59, 87
4, 214416, Note_off_c, 3, 59, 0
4, 214440, Note_on_c, 3, 60, 87
4, 214536, Note_off_c, 3, 60, 0
4, 234840, Note_on_c, 3, 84, 66
4, 234936, Note_off_c, 3, 84, 0
4, 234960, Note_on_c, 3, 72, 66
4, 235080, Note_on_c, 3, 84, 66
4, 235140, Note_off_c, 3, 72, 0
4, 235176, Note_off_c, 3, 84, 0
4, 235200, Note_on_c, 3, 72, 66
4, 235320, Note_on_c, 3, 84, 66
4, 235380, Note_off_c, 3, 72, 0
4, 235416, Note_off_c, 3, 84, 0
4, 235440, Note_on_c, 3, 72, 66
4, 235560, Note_on_c, 3, 84, 67
4, 235620, Note_off_c, 3, 72, 0
4, 235656, Note_off_c, 3, 84, 0
4, 235680, Note_on_c, 3, 72, 67
4, 235800, Note_on_c, 3, 84, 67
4, 235860, Note_off_c, 3, 72, 0
4, 235896, Note_off_c, 3, 84, 0
4, 235920, Note_on_c, 3, 72, 67
4, 236040, Note_on_c, 3, 84, 67
4, 236100, Note_off_c, 3, 72, 0
4, 236136, Note_off_c, 3, 84, 0
4, 236160, Note_on_c, 3, 72, 67
4, 236280, Note_on_c, 3, 84, 68
4, 236340, Note_off_c, 3, 72, 0
4, 236376, Note_off_c, 3, 84, 0
4, 236400, Note_on_c, 3, 72, 68
4, 236520, Note_on_c, 3, 84, 68
4, 236580, Note_off_c, 3, 72, 0
4, 236616, Note_off_c, 3, 84, 0
4, 236640, Note_on_c, 3, 72, 68
4, 236760, Note_on_c, 3, 84, 68
4, 236820, Note_off_c, 3, 72, 0
4, 236856, Note_off_c, 3, 84, 0
4, 236880, Note_on_c, 3, 72, 68
4, 237000, Note_on_c, 3, 84, 68
4, 237060, Note_off_c, 3, 72, 0
4, 237096, Note_off_c, 3, 84, 0
4, 237120, Note_on_c, 3, 72, 69
4, 237240, Note_on_c, 3, 84, 69
4, 237300, Note_off_c, 3, 72, 0
4, 237336, Note_off_c, 3, 84, 0
4, 237360, Note_on_c, 3, 72, 69
4, 237480, Note_on_c, 3, 84, 69
4, 237540, Note_off_c, 3, 72, 0
4, 237576, Note_off_c, 3, 84, 0
4, 237600, Note_on_c, 3, 72, 69
4, 237720, Note_on_c, 3, 84, 69
4, 237780, Note_off_c, 3, 72, 0
4, 237816, Note_off_c, 3, 84, 0
4, 237840, Note_on_c, 3, 72, 69
4, 237960, Note_on_c, 3, 84, 70
4, 238020, Note_off_c, 3, 72, 0
4, 238056, Note_off_c, 3, 84, 0
4, 238080, Note_on_c, 3, 72, 70
4, 238200, Note_on_c, 3, 84, 70
4, 238260, Note_off_c, 3, 72, 0
4, 238296, Note_off_c, 3, 84, 0
4, 238320, Note_on_c, 3, 72, 70
4, 238440, Note_on_c, 3, 84, 70
4, 238500, Note_off_c, 3, 72, 0
4, 238536, Note_off_c, 3, 84, 0
4, 238560, Note_on_c, 3, 72, 70
4, 238680, Note_on_c, 3, 84, 70
4, 238740, Note_off_c, 3, 72, 0
4, 238776, Note_off_c, 3, 84, 0
4, 238800, Note_on_c, 3, 72, 71
4, 238920, Note_on_c, 3, 84, 71
4, 238980, Note_off_c, 3, 72, 0
4, 239016, Note_off_c, 3, 84, 0
4, 239040, Note_on_c, 3, 72, 71
4, 239160, Note_on_c, 3, 84, 71
4, 239220, Note_off_c, 3, 72, 0
4, 239256, Note_off_c, 3, 84, 0
4, 239280, Note_on_c, 3, 72, 71
4, 239400, Note_on_c, 3, 84, 71
4, 239460, Note_off_c, 3, 72, 0
4, 239496, Note_off_c, 3, 84, 0
4, 239520, Note_on_c, 3, 72, 71
4, 239640, Note_on_c, 3, 84, 72
4, 239700, Note_off_c, 3, 72, 0
4, 239736, Note_off_c, 3, 84, 0
4, 239760, Note_on_c, 3, 72, 72
4, 239880, Note_on_c, 3, 84, 72
4, 239940, Note_off_c, 3, 72, 0
4, 239976, Note_off_c, 3, 84, 0
4, 240000, Note_on_c, 3, 72, 72
4, 240120, Note_on_c, 3, 84, 72
4, 240180, Note_off_c, 3, 72, 0
4, 240216, Note_off_c, 3, 84, 0
4, 240240, Note_on_c, 3, 72, 72
4, 240360, Note_on_c, 3, 84, 73
4, 240420, Note_off_c, 3, 72, 0
4, 240456, Note_off_c, 3, 84, 0
4, 240480, Note_on_c, 3, 72, 73
4, 240600, Note_on_c, 3, 84, 73
4, 240660, Note_off_c, 3, 72, 0
4, 240696, Note_off_c, 3, 84, 0
4, 240720, Note_on_c, 3, 72, 73
4, 240840, Note_on_c, 3, 84, 73
4, 240900, Note_off_c, 3, 72, 0
4, 240936, Note_off_c, 3, 84, 0
4, 240960, Note_on_c, 3, 72, 73
4, 241080, Note_on_c, 3, 84, 73
4, 241140, Note_off_c, 3, 72, 0
4, 241176, Note_off_c, 3, 84, 0
4, 241200, Note_on_c, 3, 72, 74
4, 241320, Note_on_c, 3, 84, 74
4, 241380, Note_off_c, 3, 72, 0
4, 241416, Note_off_c, 3, 84, 0
4, 241440, Note_on_c, 3, 72, 74
4, 241560, Note_on_c, 3, 84, 74
4, 241620, Note_off_c, 3, 72, 0
4, 241656, Note_off_c, 3, 84, 0
4, 241680, Note_on_c, 3, 72, 74
4, 241800, Note_on_c, 3, 84, 74
4, 241860, Note_off_c, 3, 72, 0
4, 241896, Note_off_c, 3, 84, 0
4, 242040, Note_on_c, 3, 60, 75
4, 242136, Note_off_c, 3, 60, 0
4, 242160, Note_on_c, 3, 57, 75
4, 242256, Note_off_c, 3, 57, 0
4, 242280, Note_on_c, 3, 60, 75
4, 242376, Note_off_c, 3, 60, 0
4, 242520, Note_on_c, 3, 60, 75
4, 242616, Note_off_c, 3, 60, 0
4, 242640, Note_on_c, 3, 57, 75
4, 242736, Note_off_c, 3, 57, 0
4, 242760, Note_on_c, 3, 60, 75
4, 242856, Note_off_c, 3, 60, 0
4, 243000, Note_on_c, 3, 60, 76
4, 243096, Note_off_c, 3, 60, 0
4, 243120, Note_on_c, 3, 57, 76
4, 243216, Note_off_c, 3, 57, 0
4, 243240, Note_on_c, 3, 60, 76
4, 243336, Note_off_c, 3, 60, 0
4, 243480, Note_on_c, 3, 60, 76
4, 243576, Note_off_c, 3, 60, 0
4, 243600, Note_on_c, 3, 57, 76
4, 243696, Note_off_c, 3, 57, 0
4, 243720, Note_on_c, 3, 60, 77
4, 243816, Note_off_c, 3, 60, 0
4, 243960, Note_on_c, 3, 60, 77
4, 244056, Note_off_c, 3, 60, 0
4, 244080, Note_on_c, 3, 57, 77
4, 244176, Note_off_c, 3, 57, 0
4, 244200, Note_on_c, 3, 60, 77
4, 244296, Note_off_c, 3, 60, 0
4, 244440, Note_on_c, 3, 60, 77
4, 244536, Note_off_c, 3, 60, 0
4, 244560, Note_on_c, 3, 57, 78
4, 244656, Note_off_c, 3, 57, 0
4, 244680, Note_on_c, 3, 60, 78
4, 244776, Note_off_c, 3, 60, 0
4, 244920, Note_on_c, 3, 60, 78
4, 245016, Note_off_c, 3, 60, 0
4, 245040, Note_on_c, 3, 58, 78
4, 245136, Note_off_c, 3, 58, 0
4, 245160, Note_on_c, 3, 60, 78
4, 245256, Note_off_c, 3, 60, 0
4, 245400, Note_on_c, 3, 60, 79
4, 245496, Note_off_c, 3, 60, 0
4, 245520, Note_on_c, 3, 58, 79
4, 245616, Note_off_c, 3, 58, 0
4, 245640, Note_on_c, 3, 60, 79
4, 245736, Note_off_c, 3, 60, 0
4, 245880, Note_on_c, 3, 60, 79
4, 245976, Note_off_c, 3, 60, 0
4, 246000, Note_on_c, 3, 58, 79
4, 246096, Note_off_c, 3, 58, 0
4, 246120, Note_on_c, 3, 60, 80
4, 246216, Note_off_c, 3, 60, 0
4, 246360, Note_on_c, 3, 60, 80
4, 246456, Note_off_c, 3, 60, 0
4, 246480, Note_on_c, 3, 55, 80
4, 246576, Note_off_c, 3, 55, 0
4, 246600, Note_on_c, 3, 60, 80
4, 246696, Note_off_c, 3, 60, 0
4, 246840, Note_on_c, 3, 60, 80
4, 246936, Note_off_c, 3, 60, 0
4, 246960, Note_on_c, 3, 55, 81
4, 247056, Note_off_c, 3, 55, 0
4, 247080, Note_on_c, 3, 60, 81
4, 247176, Note_off_c, 3, 60, 0
4, 247320, Note_on_c, 3, 60, 81
4, 247416, Note_off_c, 3, 60, 0
4, 247440, Note_on_c, 3, 55, 81
4, 247536, Note_off_c, 3, 55, 0
4, 247560, Note_on_c, 3, 60, 81
4, 247656, Note_off_c, 3, 60, 0
4, 291960, Note_on_c, 3, 72, 72
4, 292080, Note_off_c, 3, 72, 0
4, 292080, Note_on_c, 3, 69, 74
4, 292200, Note_off_c, 3, 69, 0
4, 292200, Note_on_c, 3, 72, 75
4, 292320, Note_off_c, 3, 72, 0
4, 292440, Note_on_c, 3, 72, 78
4, 292560, Note_off_c, 3, 72, 0
4, 292560, Note_on_c, 3, 67, 77
4, 292680, Note_off_c, 3, 67, 0
4, 292680, Note_on_c, 3, 72, 76
4, 292800, Note_off_c, 3, 72, 0
4, 292920, Note_on_c, 3, 67, 75
4, 293040, Note_off_c, 3, 67, 0
4, 293040, Note_on_c, 3, 62, 74
4, 293160, Note_off_c, 3, 62, 0
4, 293160, Note_on_c, 3, 67, 73
4, 293280, Note_off_c, 3, 67, 0
4, 293400, Note_on_c, 3, 67, 71
4, 293520, Note_off_c, 3, 67, 0
4, 293520, Note_on_c, 3, 64, 70
4, 293640, Note_off_c, 3, 64, 0
4, 293640, Note_on_c, 3, 67, 69
4, 293760, Note_off_c, 3, 67, 0
4, 293880, Note_on_c, 3, 60, 69
4, 293975, Note_off_c, 3, 60, 0
4, 294000, Note_on_c, 3, 55, 70
4, 294095, Note_off_c, 3, 55, 0
4, 294120, Note_on_c, 3, 60, 71
4, 294215, Note_off_c, 3, 60, 0
4, 294360, Note_on_c, 3, 62, 74
4, 294455, Note_off_c, 3, 62, 0
4, 294480, Note_on_c, 3, 57, 72
4, 294575, Note_off_c, 3, 57, 0
4, 294600, Note_on_c, 3, 62, 71
4, 294695, Note_off_c, 3, 62, 0
4, 294840, Note_on_c, 3, 62, 67
4, 294935, Note_off_c, 3, 62, 0
4, 294960, Note_on_c, 3, 57, 66
4, 295055, Note_off_c, 3, 57, 0
4, 295080, Note_on_c, 3, 62, 64
4, 295175, Note_off_c, 3, 62, 0
4, 318360, Note_on_c, 3, 57, 83
4, 318455, Note_off_c, 3, 57, 0
4, 318600, Note_on_c, 3, 57, 82
4, 318695, Note_off_c, 3, 57, 0
4, 318840, Note_on_c, 3, 57, 82
4, 318935, Note_off_c, 3, 57, 0
4, 319080, Note_on_c, 3, 57, 81
4, 319175, Note_off_c, 3, 57, 0
4, 319320, Note_on_c, 3, 57, 80
4, 319415, Note_off_c, 3, 57, 0
4, 319560, Note_on_c, 3, 57, 80
4, 319655, Note_off_c, 3, 57, 0
4, 319800, Note_on_c, 3, 57, 79
4, 319895, Note_off_c, 3, 57, 0
4, 320040, Note_on_c, 3, 57, 78
4, 320135, Note_off_c, 3, 57, 0
4, 320280, Note_on_c, 3, 57, 78
4, 320375, Note_off_c, 3, 57, 0
4, 320520, Note_on_c, 3, 57, 77
4, 320615, Note_off_c, 3, 57, 0
4, 320760, Note_on_c, 3, 57, 76
4, 320855, Note_off_c, 3, 57, 0
4, 321000, Note_on_c, 3, 57, 76
4, 321095, Note_off_c, 3, 57, 0
4, 321240, Note_on_c, 3, 57, 75
4, 321335, Note_off_c, 3, 57, 0
4, 321480, Note_on_c, 3, 57, 74
4, 321575, Note_off_c, 3, 57, 0
4, 321720, Note_on_c, 3, 57, 73
4, 321815, Note_off_c, 3, 57, 0
4, 321960, Note_on_c, 3, 57, 73
4, 322055, Note_off_c, 3, 57, 0
4, 329880, Note_on_c, 3, 65, 49
4, 330000, Note_off_c, 3, 65, 0
4, 330000, Note_on_c, 3, 69, 49
4, 330120, Note_off_c, 3, 69, 0
4, 330120, Note_on_c, 3, 65, 49
4, 330240, Note_off_c, 3, 65, 0
4, 330360, Note_on_c, 3, 64, 50
4, 330480, Note_off_c, 3, 64, 0
4, 330480, Note_on_c, 3, 67, 51
4, 330600, Note_off_c, 3, 67, 0
4, 330600, Note_on_c, 3, 64, 51
4, 330720, Note_off_c, 3, 64, 0
4, 330840, Note_on_c, 3, 65, 52
4, 330960, Note_off_c, 3, 65, 0
4, 330960, Note_on_c, 3, 69, 53
4, 331080, Note_off_c, 3, 69, 0
4, 331080, Note_on_c, 3, 65, 53
4, 331200, Note_off_c, 3, 65, 0
4, 331320, Note_on_c, 3, 64, 54
4, 331440, Note_off_c, 3, 64, 0
4, 331440, Note_on_c, 3, 67, 54
4, 331560, Note_off_c, 3, 67, 0
4, 331560, Note_on_c, 3, 64, 55
4, 331680, Note_off_c, 3, 64, 0
4, 331800, Note_on_c, 3, 65, 56
4, 331920, Note_off_c, 3, 65, 0
4, 331920, Note_on_c, 3, 69, 56
4, 332040, Note_off_c, 3, 69, 0
4, 332040, Note_on_c, 3, 65, 57
4, 332160, Note_off_c, 3, 65, 0
4, 332280, Note_on_c, 3, 64, 59
4, 332400, Note_off_c, 3, 64, 0
4, 332400, Note_on_c, 3, 67, 61
4, 332520, Note_off_c, 3, 67, 0
4, 332520, Note_on_c, 3, 64, 62
4, 332640, Note_off_c, 3, 64, 0
4, 332760, Note_on_c, 3, 65, 66
4, 332880, Note_off_c, 3, 65, 0
4, 332880, Note_on_c, 3, 69, 69
4, 333000, Note_off_c, 3, 69, 0
4, 333000, Note_on_c, 3, 65, 71
4, 333120, Note_off_c, 3, 65, 0
4, 333240, Note_on_c, 3, 67, 77
4, 333360, Note_off_c, 3, 67, 0
4, 333360, Note_on_c, 3, 70, 82
4, 333480, Note_off_c, 3, 70, 0
4, 333480, Note_on_c, 3, 67, 90
4, 333636, Note_off_c, 3, 67, 0
4, 341880, Note_on_c, 3, 64, 46
4, 342000, Note_off_c, 3, 64, 0
4, 342000, Note_on_c, 3, 60, 49
4, 342120, Note_off_c, 3, 60, 0
4, 342120, Note_on_c, 3, 64, 52
4, 342240, Note_off_c, 3, 64, 0
4, 342360, Note_on_c, 3, 65, 54
4, 342480, Note_off_c, 3, 65, 0
4, 342480, Note_on_c, 3, 60, 52
4, 342600, Note_off_c, 3, 60, 0
4, 342600, Note_on_c, 3, 65, 49
4, 342720, Note_off_c, 3, 65, 0
4, 342840, Note_on_c, 3, 64, 51
4, 342960, Note_off_c, 3, 64, 0
4, 342960, Note_on_c, 3, 60, 53
4, 343080, Note_off_c, 3, 60, 0
4, 343080, Note_on_c, 3, 64, 56
4, 343200, Note_off_c, 3, 64, 0
4, 343320, Note_on_c, 3, 65, 59
4, 343440, Note_off_c, 3, 65, 0
4, 343440, Note_on_c, 3, 60, 57
4, 343560, Note_off_c, 3, 60, 0
4, 343560, Note_on_c, 3, 65, 55
4, 343680, Note_off_c, 3, 65, 0
4, 343800, Note_on_c, 3, 53, 74
4, 343920, Note_off_c, 3, 53, 0
4, 343920, Note_on_c, 3, 48, 76
4, 344040, Note_off_c, 3, 48, 0
4, 344040, Note_on_c, 3, 53, 78
4, 344160, Note_off_c, 3, 53, 0
4, 344280, Note_on_c, 3, 55, 78
4, 344400, Note_off_c, 3, 55, 0
4, 344400, Note_on_c, 3, 50, 77
4, 344520, Note_off_c, 3, 50, 0
4, 344520, Note_on_c, 3, 55, 76
4, 344640, Note_off_c, 3, 55, 0
4, 344760, Note_on_c, 3, 58, 74
4, 344880, Note_off_c, 3, 58, 0
4, 344880, Note_on_c, 3, 55, 73
4, 345000, Note_off_c, 3, 55, 0
4, 345000, Note_on_c, 3, 58, 72
4, 345120, Note_off_c, 3, 58, 0
4, 345240, Note_on_c, 3, 57, 70
4, 345360, Note_off_c, 3, 57, 0
4, 345360, Note_on_c, 3, 60, 68
4, 345480, Note_off_c, 3, 60, 0
4, 345480, Note_on_c, 3, 57, 67
4, 345600, Note_off_c, 3, 57, 0
4, 345720, Note_on_c, 3, 60, 69
4, 345840, Note_off_c, 3, 60, 0
4, 345840, Note_on_c, 3, 58, 71
4, 345960, Note_off_c, 3, 58, 0
4, 345960, Note_on_c, 3, 60, 73
4, 346080, Note_off_c, 3, 60, 0
4, 346200, Note_on_c, 3, 60, 75
4, 346320, Note_off_c, 3, 60, 0
4, 346320, Note_on_c, 3, 65, 73
4, 346440, Note_off_c, 3, 65, 0
4, 346440, Note_on_c, 3, 60, 71
4, 346560, Note_off_c, 3, 60, 0
4, 346680, Note_on_c, 3, 60, 72
4, 346800, Note_off_c, 3, 60, 0
4, 346800, Note_on_c, 3, 64, 75
4, 346920, Note_off_c, 3, 64, 0
4, 346920, Note_on_c, 3, 60, 78
4, 347040, Note_off_c, 3, 60, 0
4, 347160, Note_on_c, 3, 60, 80
4, 347280, Note_off_c, 3, 60, 0
4, 347280, Note_on_c, 3, 65, 78
4, 347400, Note_off_c, 3, 65, 0
4, 347400, Note_on_c, 3, 60, 75
4, 347520, Note_off_c, 3, 60, 0
4, 347640, Note_on_c, 3, 53, 90
4, 347760, Note_off_c, 3, 53, 0
4, 347760, Note_on_c, 3, 48, 92
4, 347880, Note_off_c, 3, 48, 0
4, 347880, Note_on_c, 3, 53, 94
4, 348000, Note_off_c, 3, 53, 0
4, 348120, Note_on_c, 3, 55, 95
4, 348240, Note_off_c, 3, 55, 0
4, 348240, Note_on_c, 3, 50, 93
4, 348360, Note_off_c, 3, 50, 0
4, 348360, Note_on_c, 3, 55, 91
4, 348480, Note_off_c, 3, 55, 0
4, 348600, Note_on_c, 3, 58, 87
4, 348720, Note_off_c, 3, 58, 0
4, 348720, Note_on_c, 3, 55, 85
4, 348840, Note_off_c, 3, 55, 0
4, 348840, Note_on_c, 3, 58, 84
4, 348960, Note_off_c, 3, 58, 0
4, 348960, End_track
5, 0, Start_track
5, 0, Title_t, "Unnamed Track"
5, 0, Control_c, 4, 0, 0
5, 0, Control_c, 4, 32, 0
5, 0, Program_c, 4, 0
5, 0, Control_c, 4, 64, 0
5, 0, Control_c, 4, 10, 55
5, 0, Control_c, 4, 91, 100
5, 0, Control_c, 4, 93, 19
5, 0, Control_c, 4, 1, 0
5, 0, Pitch_bend_c, 4, 8192
5, 0, Control_c, 4, 7, 120
5, 0, Control_c, 4, 64, 0
5, 1440, Note_on_c, 4, 53, 73
5, 1440, Note_on_c, 4, 45, 73
5, 1440, Note_on_c, 4, 48, 73
5, 1750, Note_off_c, 4, 48, 0
5, 1750, Note_off_c, 4, 45, 0
5, 1750, Note_off_c, 4, 53, 0
5, 1920, Note_on_c, 4, 57, 72
5, 2230, Note_off_c, 4, 57, 0
5, 2880, Note_on_c, 4, 53, 70
5, 2880, Note_on_c, 4, 48, 70
5, 2880, Note_on_c, 4, 45, 70
5, 3190, Note_off_c, 4, 45, 0
5, 3190, Note_off_c, 4, 48, 0
5, 3190, Note_off_c, 4, 53, 0
5, 3360, Note_on_c, 4, 57, 69
5, 3670, Note_off_c, 4, 57, 0
5, 4320, Note_on_c, 4, 53, 67
5, 4320, Note_on_c, 4, 45, 67
5, 4320, Note_on_c, 4, 48, 67
5, 4630, Note_off_c, 4, 48, 0
5, 4630, Note_off_c, 4, 45, 0
5, 4630, Note_off_c, 4, 53, 0
5, 4800, Note_on_c, 4, 57, 66
5, 5110, Note_off_c, 4, 57, 0
5, 6240, Note_on_c, 4, 60, 48
5, 6720, Note_off_c, 4, 60, 0
5, 6720, Note_on_c, 4, 62, 51
5, 7200, Note_off_c, 4, 62, 0
5, 7200, Note_on_c, 4, 63, 53
5, 7680, Note_off_c, 4, 63, 0
5, 7680, Note_on_c, 4, 62, 49
5, 8160, Note_off_c, 4, 62, 0
5, 8160, Note_on_c, 4, 61, 44
5, 8640, Note_off_c, 4, 61, 0
5, 8640, Note_on_c, 4, 62, 44
5, 9120, Note_off_c, 4, 62, 0
5, 9120, Note_on_c, 4, 60, 46
5, 10080, Note_off_c, 4, 60, 0
5, 10080, Note_on_c, 4, 62, 49
5, 10500, Note_off_c, 4, 62, 0
5, 12960, Note_on_c, 4, 48, 67
5, 12960, Note_on_c, 4, 45, 67
5, 12960, Note_on_c, 4, 53, 67
5, 13270, Note_off_c, 4, 53, 0
5, 13270, Note_off_c, 4, 45, 0
5, 13270, Note_off_c, 4, 48, 0
5, 13440, Note_on_c, 4, 57, 67
5, 13750, Note_off_c, 4, 57, 0
5, 14400, Note_on_c, 4, 45, 65
5, 14400, Note_on_c, 4, 48, 65
5, 14400, Note_on_c, 4, 53, 65
5, 14710, Note_off_c, 4, 53, 0
5, 14710, Note_off_c, 4, 48, 0
5, 14710, Note_off_c, 4, 45, 0
5, 14880, Note_on_c, 4, 57, 64
5, 15190, Note_off_c, 4, 57, 0
5, 15840, Note_on_c, 4, 48, 62
5, 15840, Note_on_c, 4, 45, 62
5, 15840, Note_on_c, 4, 53, 62
5, 16150, Note_off_c, 4, 53, 0
5, 16150, Note_off_c, 4, 45, 0
5, 16150, Note_off_c, 4, 48, 0
5, 16320, Note_on_c, 4, 57, 62
5, 16630, Note_off_c, 4, 57, 0
5, 17760, Note_on_c, 4, 60, 44
5, 18240, Note_off_c, 4, 60, 0
5, 18240, Note_on_c, 4, 62, 47
5, 18720, Note_off_c, 4, 62, 0
5, 18720, Note_on_c, 4, 63, 50
5, 19200, Note_off_c, 4, 63, 0
5, 19200, Note_on_c, 4, 62, 49
5, 19680, Note_off_c, 4, 62, 0
5, 19680, Note_on_c, 4, 61, 45
5, 20160, Note_off_c, 4, 61, 0
5, 20160, Note_on_c, 4, 62, 43
5, 20587, Note_off_c, 4, 62, 0
5, 20640, Note_on_c, 4, 58, 46
5, 21120, Note_off_c, 4, 58, 0
5, 21120, Note_on_c, 4, 60, 48
5, 21562, Note_off_c, 4, 60, 0
5, 21600, Note_on_c, 4, 62, 52
5, 22080, Note_off_c, 4, 62, 0
5, 22080, Note_on_c, 4, 60, 48
5, 22447, Note_off_c, 4, 60, 0
5, 23040, Note_on_c, 4, 53, 75
5, 23400, Note_off_c, 4, 53, 0
5, 23520, Note_on_c, 4, 53, 75
5, 23880, Note_off_c, 4, 53, 0
5, 24000, Note_on_c, 4, 53, 74
5, 24360, Note_off_c, 4, 53, 0
5, 24480, Note_on_c, 4, 53, 73
5, 24840, Note_off_c, 4, 53, 0
5, 24960, Note_on_c, 4, 53, 73
5, 25320, Note_off_c, 4, 53, 0
5, 25440, Note_on_c, 4, 53, 72
5, 25800, Note_off_c, 4, 53, 0
5, 25920, Note_on_c, 4, 55, 71
5, 26280, Note_off_c, 4, 55, 0
5, 26400, Note_on_c, 4, 55, 71
5, 26760, Note_off_c, 4, 55, 0
5, 26880, Note_on_c, 4, 55, 70
5, 27240, Note_off_c, 4, 55, 0
5, 27360, Note_on_c, 4, 52, 70
5, 27720, Note_off_c, 4, 52, 0
5, 27840, Note_on_c, 4, 52, 69
5, 28200, Note_off_c, 4, 52, 0
5, 28320, Note_on_c, 4, 52, 68
5, 28680, Note_off_c, 4, 52, 0
5, 28800, Note_on_c, 4, 53, 68
5, 29160, Note_off_c, 4, 53, 0
5, 29280, Note_on_c, 4, 53, 57
5, 29640, Note_off_c, 4, 53, 0
5, 29760, Note_on_c, 4, 53, 57
5, 30120, Note_off_c, 4, 53, 0
5, 30240, Note_on_c, 4, 53, 56
5, 30600, Note_off_c, 4, 53, 0
5, 30720, Note_on_c, 4, 53, 55
5, 31080, Note_off_c, 4, 53, 0
5, 31200, Note_on_c, 4, 53, 54
5, 31560, Note_off_c, 4, 53, 0
5, 31680, Note_on_c, 4, 55, 53
5, 32040, Note_off_c, 4, 55, 0
5, 32160, Note_on_c, 4, 55, 52
5, 32520, Note_off_c, 4, 55, 0
5, 32640, Note_on_c, 4, 55, 51
5, 33000, Note_off_c, 4, 55, 0
5, 33120, Note_on_c, 4, 52, 50
5, 33480, Note_off_c, 4, 52, 0
5, 33600, Note_on_c, 4, 52, 49
5, 33960, Note_off_c, 4, 52, 0
5, 34080, Note_on_c, 4, 52, 48
5, 34440, Note_off_c, 4, 52, 0
5, 41880, Note_on_c, 4, 60, 70
5, 41976, Note_off_c, 4, 60, 0
5, 42000, Note_on_c, 4, 59, 71
5, 42096, Note_off_c, 4, 59, 0
5, 42120, Note_on_c, 4, 60, 71
5, 42216, Note_off_c, 4, 60, 0
5, 42240, Note_on_c, 4, 62, 72
5, 42336, Note_off_c, 4, 62, 0
5, 42360, Note_on_c, 4, 60, 72
5, 42456, Note_off_c, 4, 60, 0
5, 42480, Note_on_c, 4, 59, 73
5, 42576, Note_off_c, 4, 59, 0
5, 42600, Note_on_c, 4, 60, 73
5, 42696, Note_off_c, 4, 60, 0
5, 43440, Note_on_c, 4, 59, 76
5, 43536, Note_off_c, 4, 59, 0
5, 43920, Note_on_c, 4, 59, 78
5, 44016, Note_off_c, 4, 59, 0
5, 44400, Note_on_c, 4, 59, 79
5, 44496, Note_off_c, 4, 59, 0
5, 48960, Note_on_c, 4, 61, 59
5, 48960, Note_on_c, 4, 64, 59
5, 49440, Note_off_c, 4, 64, 0
5, 49440, Note_off_c, 4, 61, 0
5, 49440, Note_on_c, 4, 62, 61
5, 49440, Note_on_c, 4, 65, 61
5, 49920, Note_off_c, 4, 65, 0
5, 49920, Note_off_c, 4, 62, 0
5, 49920, Note_on_c, 4, 64, 63
5, 49920, Note_on_c, 4, 67, 63
5, 50340, Note_off_c, 4, 64, 0
5, 50347, Note_off_c, 4, 67, 0
5, 54720, Note_on_c, 4, 59, 56
5, 54720, Note_on_c, 4, 62, 56
5, 55200, Note_off_c, 4, 62, 0
5, 55200, Note_off_c, 4, 59, 0
5, 55200, Note_on_c, 4, 60, 58
5, 55200, Note_on_c, 4, 64, 58
5, 55680, Note_off_c, 4, 64, 0
5, 55680, Note_off_c, 4, 60, 0
5, 55680, Note_on_c, 4, 62, 60
5, 55680, Note_on_c, 4, 65, 60
5, 56107, Note_off_c, 4, 65, 0
5, 56107, Note_off_c, 4, 62, 0
5, 58080, Note_on_c, 4, 60, 52
5, 58980, Note_off_c, 4, 60, 0
5, 59040, Note_on_c, 4, 60, 59
5, 60420, Note_off_c, 4, 60, 0
5, 60960, Note_on_c, 4, 60, 58
5, 61860, Note_off_c, 4, 60, 0
5, 61920, Note_on_c, 4, 60, 63
5, 63307, Note_off_c, 4, 60, 0
5, 63360, Note_on_c, 4, 57, 57
5, 63840, Note_off_c, 4, 57, 0
5, 63840, Note_on_c, 4, 62, 60
5, 64800, Note_off_c, 4, 62, 0
5, 66240, Note_on_c, 4, 36, 63
5, 66480, Note_off_c, 4, 36, 0
5, 66720, Note_on_c, 4, 40, 66
5, 66960, Note_off_c, 4, 40, 0
5, 67200, Note_on_c, 4, 43, 69
5, 67440, Note_off_c, 4, 43, 0
5, 67680, Note_on_c, 4, 48, 72
5, 67920, Note_off_c, 4, 48, 0
5, 68160, Note_on_c, 4, 52, 76
5, 68880, Note_off_c, 4, 52, 0
5, 72000, Note_on_c, 4, 48, 70
5, 72360, Note_off_c, 4, 48, 0
5, 72480, Note_on_c, 4, 48, 72
5, 72840, Note_off_c, 4, 48, 0
5, 72960, Note_on_c, 4, 48, 72
5, 73320, Note_off_c, 4, 48, 0
5, 73440, Note_on_c, 4, 48, 73
5, 73800, Note_off_c, 4, 48, 0
5, 73920, Note_on_c, 4, 48, 73
5, 74280, Note_off_c, 4, 48, 0
5, 74400, Note_on_c, 4, 48, 74
5, 74760, Note_off_c, 4, 48, 0
5, 74880, Note_on_c, 4, 50, 74
5, 75240, Note_off_c, 4, 50, 0
5, 75360, Note_on_c, 4, 50, 75
5, 75720, Note_off_c, 4, 50, 0
5, 75840, Note_on_c, 4, 50, 75
5, 76200, Note_off_c, 4, 50, 0
5, 76320, Note_on_c, 4, 47, 76
5, 76680, Note_off_c, 4, 47, 0
5, 76800, Note_on_c, 4, 47, 76
5, 77160, Note_off_c, 4, 47, 0
5, 77280, Note_on_c, 4, 47, 77
5, 77640, Note_off_c, 4, 47, 0
5, 77760, Note_on_c, 4, 48, 77
5, 78165, Note_off_c, 4, 48, 0
5, 79200, Note_on_c, 4, 70, 65
5, 79680, Note_off_c, 4, 70, 0
5, 79680, Note_on_c, 4, 69, 56
5, 79872, Note_off_c, 4, 69, 0
5, 80640, Note_on_c, 4, 68, 62
5, 81120, Note_off_c, 4, 68, 0
5, 81120, Note_on_c, 4, 67, 54
5, 81312, Note_off_c, 4, 67, 0
5, 82080, Note_on_c, 4, 69, 58
5, 82320, Note_off_c, 4, 69, 0
5, 82560, Note_on_c, 4, 69, 61
5, 82800, Note_off_c, 4, 69, 0
5, 83040, Note_on_c, 4, 69, 63
5, 83287, Note_off_c, 4, 69, 0
5, 83520, Note_on_c, 4, 62, 67
5, 84000, Note_off_c, 4, 62, 0
5, 84000, Note_on_c, 4, 64, 61
5, 84480, Note_off_c, 4, 64, 0
5, 84480, Note_on_c, 4, 65, 56
5, 84960, Note_off_c, 4, 65, 0
5, 84960, Note_on_c, 4, 64, 49
5, 85200, Note_off_c, 4, 64, 0
5, 85440, Note_on_c, 4, 55, 48
5, 85920, Note_off_c, 4, 55, 0
5, 85920, Note_on_c, 4, 53, 52
5, 86347, Note_off_c, 4, 53, 0
5, 86400, Note_on_c, 4, 52, 55
5, 86880, Note_off_c, 4, 52, 0
5, 86880, Note_on_c, 4, 53, 46
5, 87072, Note_off_c, 4, 53, 0
5, 87120, Note_on_c, 4, 53, 48
5, 87360, Note_off_c, 4, 53, 0
5, 87360, Note_on_c, 4, 57, 49
5, 87600, Note_off_c, 4, 57, 0
5, 87600, Note_on_c, 4, 53, 51
5, 87792, Note_off_c, 4, 53, 0
5, 87840, Note_on_c, 4, 50, 53
5, 88320, Note_off_c, 4, 50, 0
5, 88320, Note_on_c, 4, 52, 43
5, 88512, Note_off_c, 4, 52, 0
5, 89760, Note_on_c, 4, 57, 50
5, 90000, Note_off_c, 4, 57, 0
5, 90240, Note_on_c, 4, 57, 52
5, 90480, Note_off_c, 4, 57, 0
5, 90720, Note_on_c, 4, 53, 55
5, 91200, Note_off_c, 4, 53, 0
5, 91200, Note_on_c, 4, 52, 50
5, 91680, Note_off_c, 4, 52, 0
5, 91680, Note_on_c, 4, 50, 45
5, 92160, Note_off_c, 4, 50, 0
5, 110400, Note_on_c, 4, 62, 78
5, 110592, Note_off_c, 4, 62, 0
5, 110640, Note_on_c, 4, 65, 79
5, 110832, Note_off_c, 4, 65, 0
5, 110880, Note_on_c, 4, 64, 80
5, 111307, Note_off_c, 4, 64, 0
5, 111840, Note_on_c, 4, 62, 86
5, 112032, Note_off_c, 4, 62, 0
5, 112080, Note_on_c, 4, 65, 87
5, 112272, Note_off_c, 4, 65, 0
5, 112320, Note_on_c, 4, 64, 89
5, 112680, Note_off_c, 4, 64, 0
5, 112800, Note_on_c, 4, 60, 86
5, 113167, Note_off_c, 4, 60, 0
5, 114240, Note_on_c, 4, 55, 44
5, 114240, Note_on_c, 4, 60, 44
5, 114600, Note_off_c, 4, 60, 0
5, 114600, Note_off_c, 4, 55, 0
5, 114720, Note_on_c, 4, 60, 42
5, 114720, Note_on_c, 4, 55, 42
5, 115080, Note_off_c, 4, 55, 0
5, 115080, Note_off_c, 4, 60, 0
5, 115680, Note_on_c, 4, 62, 40
5, 115680, Note_on_c, 4, 55, 40
5, 116040, Note_off_c, 4, 55, 0
5, 116040, Note_off_c, 4, 62, 0
5, 116160, Note_on_c, 4, 62, 39
5, 116160, Note_on_c, 4, 55, 39
5, 116520, Note_off_c, 4, 55, 0
5, 116520, Note_off_c, 4, 62, 0
5, 116640, Note_on_c, 4, 55, 36
5, 116640, Note_on_c, 4, 60, 36
5, 117000, Note_off_c, 4, 55, 0
5, 117007, Note_off_c, 4, 60, 0
5, 119520, Note_on_c, 4, 62, 39
5, 119520, Note_on_c, 4, 57, 39
5, 120960, Note_off_c, 4, 57, 0
5, 120960, Note_off_c, 4, 62, 0
5, 120960, Note_on_c, 4, 55, 43
5, 120960, Note_on_c, 4, 62, 43
5, 122340, Note_off_c, 4, 62, 0
5, 122340, Note_off_c, 4, 55, 0
5, 122400, Note_on_c, 4, 55, 48
5, 122400, Note_on_c, 4, 60, 48
5, 122827, Note_off_c, 4, 60, 0
5, 122827, Note_off_c, 4, 55, 0
5, 123360, Note_on_c, 4, 53, 52
5, 123787, Note_off_c, 4, 53, 0
5, 123840, Note_on_c, 4, 55, 53
5, 124560, Note_off_c, 4, 55, 0
5, 131280, Note_on_c, 4, 57, 49
5, 131520, Note_off_c, 4, 57, 0
5, 131520, Note_on_c, 4, 61, 51
5, 131760, Note_off_c, 4, 61, 0
5, 131760, Note_on_c, 4, 62, 52
5, 132000, Note_off_c, 4, 62, 0
5, 132000, Note_on_c, 4, 64, 53
5, 132240, Note_off_c, 4, 64, 0
5, 132240, Note_on_c, 4, 65, 54
5, 133440, Note_off_c, 4, 65, 0
5, 133440, Note_on_c, 4, 64, 59
5, 133867, Note_off_c, 4, 64, 0
5, 133920, Note_on_c, 4, 60, 62
5, 134280, Note_off_c, 4, 60, 0
5, 134280, Note_on_c, 4, 62, 59
5, 134385, Note_off_c, 4, 62, 0
5, 134400, Note_on_c, 4, 60, 58
5, 134880, Note_off_c, 4, 60, 0
5, 134880, Note_on_c, 4, 59, 53
5, 135360, Note_off_c, 4, 59, 0
5, 150480, Note_on_c, 4, 57, 79
5, 150635, Note_off_c, 4, 57, 0
5, 150720, Note_on_c, 4, 56, 79
5, 150875, Note_off_c, 4, 56, 0
5, 150960, Note_on_c, 4, 55, 79
5, 151115, Note_off_c, 4, 55, 0
5, 151920, Note_on_c, 4, 53, 80
5, 152075, Note_off_c, 4, 53, 0
5, 152160, Note_on_c, 4, 55, 81
5, 152315, Note_off_c, 4, 55, 0
5, 152400, Note_on_c, 4, 56, 81
5, 152555, Note_off_c, 4, 56, 0
5, 153360, Note_on_c, 4, 57, 82
5, 153515, Note_off_c, 4, 57, 0
5, 153600, Note_on_c, 4, 56, 82
5, 153755, Note_off_c, 4, 56, 0
5, 153840, Note_on_c, 4, 55, 83
5, 153995, Note_off_c, 4, 55, 0
5, 154800, Note_on_c, 4, 53, 84
5, 154955, Note_off_c, 4, 53, 0
5, 155040, Note_on_c, 4, 55, 84
5, 155195, Note_off_c, 4, 55, 0
5, 155280, Note_on_c, 4, 56, 85
5, 155435, Note_off_c, 4, 56, 0
5, 161280, Note_on_c, 4, 55, 92
5, 161280, Note_on_c, 4, 58, 92
5, 161707, Note_off_c, 4, 55, 0
5, 161715, Note_off_c, 4, 58, 0
5, 162000, Note_on_c, 4, 58, 93
5, 162000, Note_on_c, 4, 55, 93
5, 162146, Note_off_c, 4, 55, 0
5, 162146, Note_off_c, 4, 58, 0
5, 162240, Note_on_c, 4, 58, 93
5, 162240, Note_on_c, 4, 55, 93
5, 162386, Note_off_c, 4, 55, 0
5, 162386, Note_off_c, 4, 58, 0
5, 162480, Note_on_c, 4, 58, 94
5, 162480, Note_on_c, 4, 55, 94
5, 162626, Note_off_c, 4, 55, 0
5, 162626, Note_off_c, 4, 58, 0
5, 162720, Note_on_c, 4, 55, 94
5, 162720, Note_on_c, 4, 58, 94
5, 163140, Note_off_c, 4, 55, 0
5, 163147, Note_off_c, 4, 58, 0
5, 163440, Note_on_c, 4, 70, 95
5, 163440, Note_on_c, 4, 67, 95
5, 163586, Note_off_c, 4, 67, 0
5, 163586, Note_off_c, 4, 70, 0
5, 163680, Note_on_c, 4, 70, 95
5, 163680, Note_on_c, 4, 67, 95
5, 163826, Note_off_c, 4, 67, 0
5, 163826, Note_off_c, 4, 70, 0
5, 163920, Note_on_c, 4, 70, 95
5, 163920, Note_on_c, 4, 67, 95
5, 164066, Note_off_c, 4, 67, 0
5, 164066, Note_off_c, 4, 70, 0
5, 164160, Note_on_c, 4, 70, 97
5, 164160, Note_on_c, 4, 67, 97
5, 167040, Note_off_c, 4, 67, 0
5, 167040, Note_off_c, 4, 70, 0
5, 171360, Note_on_c, 4, 48, 79
5, 171360, Note_on_c, 4, 45, 79
5, 171360, Note_on_c, 4, 53, 79
5, 171670, Note_off_c, 4, 53, 0
5, 171670, Note_off_c, 4, 45, 0
5, 171670, Note_off_c, 4, 48, 0
5, 171840, Note_on_c, 4, 57, 78
5, 172150, Note_off_c, 4, 57, 0
5, 172800, Note_on_c, 4, 45, 76
5, 172800, Note_on_c, 4, 48, 76
5, 172800, Note_on_c, 4, 53, 76
5, 173110, Note_off_c, 4, 53, 0
5, 173110, Note_off_c, 4, 48, 0
5, 173110, Note_off_c, 4, 45, 0
5, 173280, Note_on_c, 4, 57, 74
5, 173590, Note_off_c, 4, 57, 0
5, 174240, Note_on_c, 4, 48, 72
5, 174240, Note_on_c, 4, 45, 72
5, 174240, Note_on_c, 4, 53, 72
5, 174550, Note_off_c, 4, 53, 0
5, 174550, Note_off_c, 4, 45, 0
5, 174550, Note_off_c, 4, 48, 0
5, 174720, Note_on_c, 4, 57, 70
5, 175030, Note_off_c, 4, 57, 0
5, 176160, Note_on_c, 4, 60, 43
5, 176640, Note_off_c, 4, 60, 0
5, 176640, Note_on_c, 4, 62, 47
5, 177120, Note_off_c, 4, 62, 0
5, 177120, Note_on_c, 4, 63, 51
5, 177600, Note_off_c, 4, 63, 0
5, 177600, Note_on_c, 4, 62, 49
5, 178080, Note_off_c, 4, 62, 0
5, 178080, Note_on_c, 4, 61, 47
5, 178560, Note_off_c, 4, 61, 0
5, 178560, Note_on_c, 4, 62, 44
5, 178972, Note_off_c, 4, 62, 0
5, 179040, Note_on_c, 4, 60, 45
5, 180000, Note_off_c, 4, 60, 0
5, 180000, Note_on_c, 4, 62, 47
5, 180427, Note_off_c, 4, 62, 0
5, 182880, Note_on_c, 4, 53, 67
5, 182880, Note_on_c, 4, 45, 67
5, 182880, Note_on_c, 4, 48, 67
5, 183190, Note_off_c, 4, 48, 0
5, 183190, Note_off_c, 4, 45, 0
5, 183190, Note_off_c, 4, 53, 0
5, 183360, Note_on_c, 4, 57, 67
5, 183670, Note_off_c, 4, 57, 0
5, 184320, Note_on_c, 4, 53, 65
5, 184320, Note_on_c, 4, 48, 65
5, 184320, Note_on_c, 4, 45, 65
5, 184630, Note_off_c, 4, 45, 0
5, 184630, Note_off_c, 4, 48, 0
5, 184630, Note_off_c, 4, 53, 0
5, 184800, Note_on_c, 4, 57, 64
5, 185110, Note_off_c, 4, 57, 0
5, 185760, Note_on_c, 4, 53, 62
5, 185760, Note_on_c, 4, 45, 62
5, 185760, Note_on_c, 4, 48, 62
5, 186070, Note_off_c, 4, 48, 0
5, 186070, Note_off_c, 4, 45, 0
5, 186070, Note_off_c, 4, 53, 0
5, 186240, Note_on_c, 4, 57, 61
5, 186550, Note_off_c, 4, 57, 0
5, 187680, Note_on_c, 4, 60, 43
5, 188160, Note_off_c, 4, 60, 0
5, 188160, Note_on_c, 4, 62, 47
5, 188640, Note_off_c, 4, 62, 0
5, 188640, Note_on_c, 4, 63, 51
5, 189120, Note_off_c, 4, 63, 0
5, 189120, Note_on_c, 4, 62, 46
5, 189600, Note_off_c, 4, 62, 0
5, 189600, Note_on_c, 4, 61, 41
5, 190080, Note_off_c, 4, 61, 0
5, 190080, Note_on_c, 4, 62, 41
5, 190492, Note_off_c, 4, 62, 0
5, 190560, Note_on_c, 4, 58, 44
5, 191040, Note_off_c, 4, 58, 0
5, 191040, Note_on_c, 4, 60, 47
5, 191482, Note_off_c, 4, 60, 0
5, 191520, Note_on_c, 4, 62, 51
5, 192000, Note_off_c, 4, 62, 0
5, 192000, Note_on_c, 4, 60, 45
5, 192427, Note_off_c, 4, 60, 0
5, 192960, Note_on_c, 4, 57, 66
5, 192960, Note_on_c, 4, 53, 66
5, 193320, Note_off_c, 4, 53, 0
5, 193320, Note_off_c, 4, 57, 0
5, 193440, Note_on_c, 4, 57, 66
5, 193440, Note_on_c, 4, 53, 66
5, 193800, Note_off_c, 4, 53, 0
5, 193800, Note_off_c, 4, 57, 0
5, 193920, Note_on_c, 4, 57, 67
5, 193920, Note_on_c, 4, 53, 67
5, 194280, Note_off_c, 4, 53, 0
5, 194280, Note_off_c, 4, 57, 0
5, 194400, Note_on_c, 4, 57, 68
5, 194400, Note_on_c, 4, 53, 68
5, 194760, Note_off_c, 4, 53, 0
5, 194760, Note_off_c, 4, 57, 0
5, 194880, Note_on_c, 4, 57, 68
5, 194880, Note_on_c, 4, 53, 68
5, 195240, Note_off_c, 4, 53, 0
5, 195240, Note_off_c, 4, 57, 0
5, 195360, Note_on_c, 4, 57, 69
5, 195360, Note_on_c, 4, 53, 69
5, 195720, Note_off_c, 4, 53, 0
5, 195720, Note_off_c, 4, 57, 0
5, 195840, Note_on_c, 4, 58, 70
5, 195840, Note_on_c, 4, 55, 70
5, 196200, Note_off_c, 4, 55, 0
5, 196200, Note_off_c, 4, 58, 0
5, 196320, Note_on_c, 4, 58, 70
5, 196320, Note_on_c, 4, 55, 70
5, 196680, Note_off_c, 4, 55, 0
5, 196680, Note_off_c, 4, 58, 0
5, 196800, Note_on_c, 4, 58, 71
5, 196800, Note_on_c, 4, 55, 71
5, 197160, Note_off_c, 4, 55, 0
5, 197160, Note_off_c, 4, 58, 0
5, 197280, Note_on_c, 4, 58, 72
5, 197280, Note_on_c, 4, 52, 72
5, 197640, Note_off_c, 4, 52, 0
5, 197640, Note_off_c, 4, 58, 0
5, 197760, Note_on_c, 4, 58, 72
5, 197760, Note_on_c, 4, 52, 72
5, 198120, Note_off_c, 4, 52, 0
5, 198120, Note_off_c, 4, 58, 0
5, 198240, Note_on_c, 4, 55, 73
5, 198240, Note_on_c, 4, 52, 73
5, 198600, Note_off_c, 4, 52, 0
5, 198600, Note_off_c, 4, 55, 0
5, 198720, Note_on_c, 4, 57, 72
5, 198720, Note_on_c, 4, 53, 72
5, 199080, Note_off_c, 4, 53, 0
5, 199080, Note_off_c, 4, 57, 0
5, 199200, Note_on_c, 4, 57, 60
5, 199200, Note_on_c, 4, 53, 60
5, 199560, Note_off_c, 4, 53, 0
5, 199560, Note_off_c, 4, 57, 0
5, 199680, Note_on_c, 4, 57, 59
5, 199680, Note_on_c, 4, 53, 59
5, 200040, Note_off_c, 4, 53, 0
5, 200040, Note_off_c, 4, 57, 0
5, 200160, Note_on_c, 4, 57, 58
5, 200160, Note_on_c, 4, 53, 58
5, 200520, Note_off_c, 4, 53, 0
5, 200520, Note_off_c, 4, 57, 0
5, 200640, Note_on_c, 4, 57, 57
5, 200640, Note_on_c, 4, 53, 57
5, 201000, Note_off_c, 4, 53, 0
5, 201000, Note_off_c, 4, 57, 0
5, 201120, Note_on_c, 4, 57, 57
5, 201120, Note_on_c, 4, 53, 57
5, 201480, Note_off_c, 4, 53, 0
5, 201480, Note_off_c, 4, 57, 0
5, 201600, Note_on_c, 4, 58, 56
5, 201600, Note_on_c, 4, 55, 56
5, 201960, Note_off_c, 4, 55, 0
5, 201960, Note_off_c, 4, 58, 0
5, 202080, Note_on_c, 4, 58, 55
5, 202080, Note_on_c, 4, 55, 55
5, 202440, Note_off_c, 4, 55, 0
5, 202440, Note_off_c, 4, 58, 0
5, 202560, Note_on_c, 4, 58, 54
5, 202560, Note_on_c, 4, 55, 54
5, 202920, Note_off_c, 4, 55, 0
5, 202920, Note_off_c, 4, 58, 0
5, 203040, Note_on_c, 4, 58, 53
5, 203040, Note_on_c, 4, 52, 53
5, 203400, Note_off_c, 4, 52, 0
5, 203400, Note_off_c, 4, 58, 0
5, 203520, Note_on_c, 4, 58, 53
5, 203520, Note_on_c, 4, 52, 53
5, 203880, Note_off_c, 4, 52, 0
5, 203880, Note_off_c, 4, 58, 0
5, 204000, Note_on_c, 4, 55, 52
5, 204000, Note_on_c, 4, 52, 52
5, 204360, Note_off_c, 4, 52, 0
5, 204360, Note_off_c, 4, 55, 0
5, 215040, Note_on_c, 4, 48, 82
5, 215400, Note_off_c, 4, 48, 0
5, 218880, Note_on_c, 4, 54, 56
5, 218880, Note_on_c, 4, 57, 56
5, 219360, Note_off_c, 4, 57, 0
5, 219360, Note_off_c, 4, 54, 0
5, 219360, Note_on_c, 4, 58, 57
5, 219360, Note_on_c, 4, 55, 57
5, 219840, Note_off_c, 4, 55, 0
5, 219840, Note_off_c, 4, 58, 0
5, 219840, Note_on_c, 4, 60, 58
5, 219840, Note_on_c, 4, 57, 58
5, 220267, Note_off_c, 4, 57, 0
5, 220267, Note_off_c, 4, 60, 0
5, 224640, Note_on_c, 4, 52, 54
5, 224640, Note_on_c, 4, 55, 54
5, 225120, Note_off_c, 4, 55, 0
5, 225120, Note_off_c, 4, 52, 0
5, 225120, Note_on_c, 4, 57, 56
5, 225120, Note_on_c, 4, 53, 56
5, 225600, Note_off_c, 4, 53, 0
5, 225600, Note_off_c, 4, 57, 0
5, 225600, Note_on_c, 4, 55, 57
5, 225600, Note_on_c, 4, 58, 57
5, 226012, Note_off_c, 4, 58, 0
5, 226020, Note_off_c, 4, 55, 0
5, 228000, Note_on_c, 4, 53, 48
5, 228907, Note_off_c, 4, 53, 0
5, 228960, Note_on_c, 4, 53, 55
5, 230340, Note_off_c, 4, 53, 0
5, 230880, Note_on_c, 4, 65, 53
5, 231787, Note_off_c, 4, 65, 0
5, 231840, Note_on_c, 4, 65, 59
5, 232800, Note_off_c, 4, 65, 0
5, 233280, Note_on_c, 4, 62, 51
5, 233760, Note_off_c, 4, 62, 0
5, 233760, Note_on_c, 4, 67, 56
5, 235147, Note_off_c, 4, 67, 0
5, 241920, Note_on_c, 4, 53, 74
5, 242280, Note_off_c, 4, 53, 0
5, 242400, Note_on_c, 4, 53, 75
5, 242760, Note_off_c, 4, 53, 0
5, 242880, Note_on_c, 4, 53, 76
5, 243240, Note_off_c, 4, 53, 0
5, 243360, Note_on_c, 4, 53, 76
5, 243720, Note_off_c, 4, 53, 0
5, 243840, Note_on_c, 4, 53, 77
5, 244200, Note_off_c, 4, 53, 0
5, 244320, Note_on_c, 4, 53, 77
5, 244680, Note_off_c, 4, 53, 0
5, 244800, Note_on_c, 4, 55, 78
5, 245160, Note_off_c, 4, 55, 0
5, 245280, Note_on_c, 4, 55, 79
5, 245640, Note_off_c, 4, 55, 0
5, 245760, Note_on_c, 4, 55, 79
5, 246120, Note_off_c, 4, 55, 0
5, 246240, Note_on_c, 4, 52, 80
5, 246600, Note_off_c, 4, 52, 0
5, 246720, Note_on_c, 4, 52, 80
5, 247080, Note_off_c, 4, 52, 0
5, 247200, Note_on_c, 4, 52, 81
5, 247560, Note_off_c, 4, 52, 0
5, 249120, Note_on_c, 4, 63, 55
5, 249600, Note_off_c, 4, 63, 0
5, 249600, Note_on_c, 4, 62, 47
5, 249792, Note_off_c, 4, 62, 0
5, 250560, Note_on_c, 4, 61, 52
5, 251040, Note_off_c, 4, 61, 0
5, 251040, Note_on_c, 4, 60, 45
5, 251232, Note_off_c, 4, 60, 0
5, 252000, Note_on_c, 4, 62, 48
5, 252240, Note_off_c, 4, 62, 0
5, 252480, Note_on_c, 4, 62, 50
5, 252720, Note_off_c, 4, 62, 0
5, 252960, Note_on_c, 4, 62, 51
5, 253200, Note_off_c, 4, 62, 0
5, 253440, Note_on_c, 4, 67, 53
5, 253890, Note_off_c, 4, 67, 0
5, 253920, Note_on_c, 4, 69, 49
5, 254400, Note_off_c, 4, 69, 0
5, 254400, Note_on_c, 4, 70, 45
5, 254880, Note_off_c, 4, 70, 0
5, 254880, Note_on_c, 4, 69, 41
5, 255120, Note_off_c, 4, 69, 0
5, 255360, Note_on_c, 4, 60, 43
5, 255840, Note_off_c, 4, 60, 0
5, 255840, Note_on_c, 4, 58, 46
5, 256260, Note_off_c, 4, 58, 0
5, 256320, Note_on_c, 4, 57, 49
5, 256800, Note_off_c, 4, 57, 0
5, 256800, Note_on_c, 4, 58, 41
5, 257040, Note_off_c, 4, 58, 0
5, 257040, Note_on_c, 4, 58, 43
5, 257280, Note_off_c, 4, 58, 0
5, 257280, Note_on_c, 4, 62, 45
5, 257520, Note_off_c, 4, 62, 0
5, 257520, Note_on_c, 4, 58, 47
5, 257712, Note_off_c, 4, 58, 0
5, 257760, Note_on_c, 4, 55, 48
5, 258240, Note_off_c, 4, 55, 0
5, 258240, Note_on_c, 4, 57, 37
5, 258432, Note_off_c, 4, 57, 0
5, 259680, Note_on_c, 4, 62, 44
5, 259920, Note_off_c, 4, 62, 0
5, 260160, Note_on_c, 4, 62, 47
5, 260400, Note_off_c, 4, 62, 0
5, 260640, Note_on_c, 4, 58, 49
5, 261120, Note_off_c, 4, 58, 0
5, 261120, Note_on_c, 4, 57, 45
5, 261600, Note_off_c, 4, 57, 0
5, 261600, Note_on_c, 4, 55, 41
5, 262020, Note_off_c, 4, 55, 0
5, 280320, Note_on_c, 4, 67, 89
5, 280512, Note_off_c, 4, 67, 0
5, 280560, Note_on_c, 4, 70, 90
5, 280752, Note_off_c, 4, 70, 0
5, 280800, Note_on_c, 4, 69, 91
5, 281227, Note_off_c, 4, 69, 0
5, 281760, Note_on_c, 4, 67, 96
5, 281952, Note_off_c, 4, 67, 0
5, 282000, Note_on_c, 4, 70, 98
5, 282210, Note_off_c, 4, 70, 0
5, 282240, Note_on_c, 4, 69, 99
5, 282600, Note_off_c, 4, 69, 0
5, 284640, Note_on_c, 4, 65, 59
5, 284784, Note_off_c, 4, 65, 0
5, 284880, Note_on_c, 4, 65, 57
5, 285024, Note_off_c, 4, 65, 0
5, 285120, Note_on_c, 4, 62, 55
5, 285264, Note_off_c, 4, 62, 0
5, 285600, Note_on_c, 4, 64, 52
5, 285744, Note_off_c, 4, 64, 0
5, 285840, Note_on_c, 4, 64, 50
5, 285984, Note_off_c, 4, 64, 0
5, 286080, Note_on_c, 4, 60, 48
5, 286224, Note_off_c, 4, 60, 0
5, 288480, Note_on_c, 4, 65, 47
5, 288624, Note_off_c, 4, 65, 0
5, 288720, Note_on_c, 4, 65, 45
5, 288864, Note_off_c, 4, 65, 0
5, 288960, Note_on_c, 4, 58, 44
5, 289104, Note_off_c, 4, 58, 0
5, 289440, Note_on_c, 4, 64, 41
5, 289584, Note_off_c, 4, 64, 0
5, 289680, Note_on_c, 4, 64, 39
5, 289824, Note_off_c, 4, 64, 0
5, 289920, Note_on_c, 4, 57, 37
5, 290064, Note_off_c, 4, 57, 0
5, 290400, Note_on_c, 4, 62, 73
5, 291120, Note_off_c, 4, 62, 0
5, 291120, Note_on_c, 4, 70, 63
5, 291360, Note_off_c, 4, 70, 0
5, 291360, Note_on_c, 4, 69, 59
5, 291516, Note_off_c, 4, 69, 0
5, 291840, Note_on_c, 4, 65, 70
5, 292200, Note_off_c, 4, 65, 0
5, 292320, Note_on_c, 4, 64, 79
5, 292680, Note_off_c, 4, 64, 0
5, 292800, Note_on_c, 4, 59, 75
5, 293160, Note_off_c, 4, 59, 0
5, 293280, Note_on_c, 4, 60, 72
5, 293640, Note_off_c, 4, 60, 0
5, 293760, Note_on_c, 4, 52, 68
5, 294120, Note_off_c, 4, 52, 0
5, 294240, Note_on_c, 4, 53, 75
5, 294600, Note_off_c, 4, 53, 0
5, 294720, Note_on_c, 4, 54, 69
5, 295080, Note_off_c, 4, 54, 0
5, 296160, Note_on_c, 4, 60, 54
5, 296315, Note_off_c, 4, 60, 0
5, 296400, Note_on_c, 4, 60, 53
5, 296555, Note_off_c, 4, 60, 0
5, 296640, Note_on_c, 4, 57, 52
5, 296795, Note_off_c, 4, 57, 0
5, 297120, Note_on_c, 4, 59, 51
5, 297276, Note_off_c, 4, 59, 0
5, 297360, Note_on_c, 4, 59, 50
5, 297516, Note_off_c, 4, 59, 0
5, 297600, Note_on_c, 4, 55, 50
5, 297755, Note_off_c, 4, 55, 0
5, 298080, Note_on_c, 4, 60, 78
5, 298800, Note_off_c, 4, 60, 0
5, 298800, Note_on_c, 4, 59, 67
5, 299040, Note_off_c, 4, 59, 0
5, 300000, Note_on_c, 4, 64, 55
5, 300156, Note_off_c, 4, 64, 0
5, 300960, Note_on_c, 4, 64, 72
5, 301116, Note_off_c, 4, 64, 0
5, 303840, Note_on_c, 4, 65, 60
5, 303995, Note_off_c, 4, 65, 0
5, 304080, Note_on_c, 4, 65, 60
5, 304235, Note_off_c, 4, 65, 0
5, 304320, Note_on_c, 4, 62, 59
5, 304475, Note_off_c, 4, 62, 0
5, 304800, Note_on_c, 4, 64, 58
5, 304955, Note_off_c, 4, 64, 0
5, 305040, Note_on_c, 4, 64, 58
5, 305195, Note_off_c, 4, 64, 0
5, 305280, Note_on_c, 4, 60, 58
5, 305435, Note_off_c, 4, 60, 0
5, 307680, Note_on_c, 4, 65, 56
5, 307835, Note_off_c, 4, 65, 0
5, 307920, Note_on_c, 4, 65, 55
5, 308075, Note_off_c, 4, 65, 0
5, 308160, Note_on_c, 4, 58, 54
5, 308315, Note_off_c, 4, 58, 0
5, 308640, Note_on_c, 4, 64, 53
5, 308795, Note_off_c, 4, 64, 0
5, 308880, Note_on_c, 4, 64, 52
5, 309035, Note_off_c, 4, 64, 0
5, 309120, Note_on_c, 4, 57, 51
5, 309275, Note_off_c, 4, 57, 0
5, 309600, Note_on_c, 4, 62, 77
5, 310320, Note_off_c, 4, 62, 0
5, 310320, Note_on_c, 4, 70, 69
5, 310476, Note_off_c, 4, 70, 0
5, 310560, Note_on_c, 4, 69, 66
5, 310715, Note_off_c, 4, 69, 0
5, 311040, Note_on_c, 4, 69, 57
5, 311195, Note_off_c, 4, 69, 0
5, 311280, Note_on_c, 4, 69, 57
5, 311435, Note_off_c, 4, 69, 0
5, 311520, Note_on_c, 4, 65, 57
5, 311675, Note_off_c, 4, 65, 0
5, 312000, Note_on_c, 4, 67, 55
5, 312155, Note_off_c, 4, 67, 0
5, 312240, Note_on_c, 4, 67, 55
5, 312395, Note_off_c, 4, 67, 0
5, 312480, Note_on_c, 4, 64, 55
5, 312635, Note_off_c, 4, 64, 0
5, 317760, Note_on_c, 4, 50, 91
5, 318000, Note_off_c, 4, 50, 0
5, 318480, Note_on_c, 4, 49, 83
5, 318600, Note_off_c, 4, 49, 0
5, 318720, Note_on_c, 4, 52, 82
5, 318840, Note_off_c, 4, 52, 0
5, 318960, Note_on_c, 4, 49, 81
5, 319080, Note_off_c, 4, 49, 0
5, 319440, Note_on_c, 4, 50, 80
5, 319560, Note_off_c, 4, 50, 0
5, 319680, Note_on_c, 4, 53, 79
5, 319800, Note_off_c, 4, 53, 0
5, 319920, Note_on_c, 4, 50, 79
5, 320040, Note_off_c, 4, 50, 0
5, 320400, Note_on_c, 4, 49, 77
5, 320520, Note_off_c, 4, 49, 0
5, 320640, Note_on_c, 4, 52, 77
5, 320760, Note_off_c, 4, 52, 0
5, 320880, Note_on_c, 4, 49, 76
5, 321000, Note_off_c, 4, 49, 0
5, 321360, Note_on_c, 4, 50, 74
5, 321480, Note_off_c, 4, 50, 0
5, 321600, Note_on_c, 4, 53, 74
5, 321720, Note_off_c, 4, 53, 0
5, 321840, Note_on_c, 4, 50, 73
5, 321960, Note_off_c, 4, 50, 0
5, 324480, Note_on_c, 4, 65, 59
5, 324635, Note_off_c, 4, 65, 0
5, 324720, Note_on_c, 4, 65, 58
5, 324875, Note_off_c, 4, 65, 0
5, 324960, Note_on_c, 4, 62, 59
5, 325115, Note_off_c, 4, 62, 0
5, 325440, Note_on_c, 4, 64, 57
5, 325595, Note_off_c, 4, 64, 0
5, 325680, Note_on_c, 4, 64, 56
5, 325835, Note_off_c, 4, 64, 0
5, 325920, Note_on_c, 4, 61, 54
5, 326075, Note_off_c, 4, 61, 0
5, 329280, Note_on_c, 4, 65, 50
5, 329520, Note_off_c, 4, 65, 0
5, 329520, Note_on_c, 4, 64, 46
5, 329760, Note_off_c, 4, 64, 0
5, 334560, Note_on_c, 4, 65, 68
5, 334715, Note_off_c, 4, 65, 0
5, 334800, Note_on_c, 4, 65, 67
5, 334955, Note_off_c, 4, 65, 0
5, 335040, Note_on_c, 4, 62, 66
5, 335195, Note_off_c, 4, 62, 0
5, 335520, Note_on_c, 4, 64, 65
5, 335675, Note_off_c, 4, 64, 0
5, 335760, Note_on_c, 4, 64, 64
5, 335915, Note_off_c, 4, 64, 0
5, 336000, Note_on_c, 4, 60, 64
5, 336155, Note_off_c, 4, 60, 0
5, 338400, Note_on_c, 4, 65, 62
5, 338555, Note_off_c, 4, 65, 0
5, 338640, Note_on_c, 4, 65, 61
5, 338795, Note_off_c, 4, 65, 0
5, 338880, Note_on_c, 4, 58, 60
5, 339035, Note_off_c, 4, 58, 0
5, 339360, Note_on_c, 4, 64, 59
5, 339515, Note_off_c, 4, 64, 0
5, 339600, Note_on_c, 4, 64, 58
5, 339755, Note_off_c, 4, 64, 0
5, 339840, Note_on_c, 4, 57, 59
5, 339995, Note_off_c, 4, 57, 0
5, 340320, Note_on_c, 4, 62, 81
5, 341040, Note_off_c, 4, 62, 0
5, 341040, Note_on_c, 4, 70, 73
5, 341280, Note_off_c, 4, 70, 0
5, 341280, Note_on_c, 4, 69, 70
5, 341435, Note_off_c, 4, 69, 0
5, 341760, Note_on_c, 4, 58, 43
5, 342120, Note_off_c, 4, 58, 0
5, 342240, Note_on_c, 4, 57, 56
5, 342600, Note_off_c, 4, 57, 0
5, 342720, Note_on_c, 4, 58, 48
5, 343080, Note_off_c, 4, 58, 0
5, 343200, Note_on_c, 4, 57, 61
5, 343560, Note_off_c, 4, 57, 0
5, 343680, Note_on_c, 4, 45, 72
5, 344040, Note_off_c, 4, 45, 0
5, 344160, Note_on_c, 4, 46, 80
5, 344520, Note_off_c, 4, 46, 0
5, 344640, Note_on_c, 4, 48, 75
5, 345000, Note_off_c, 4, 48, 0
5, 345120, Note_on_c, 4, 53, 71
5, 345480, Note_off_c, 4, 53, 0
5, 345600, Note_on_c, 4, 58, 66
5, 345960, Note_off_c, 4, 58, 0
5, 346080, Note_on_c, 4, 57, 77
5, 346440, Note_off_c, 4, 57, 0
5, 346560, Note_on_c, 4, 58, 70
5, 346920, Note_off_c, 4, 58, 0
5, 347040, Note_on_c, 4, 57, 82
5, 347400, Note_off_c, 4, 57, 0
5, 347520, Note_on_c, 4, 45, 88
5, 347880, Note_off_c, 4, 45, 0
5, 348000, Note_on_c, 4, 46, 97
5, 348360, Note_off_c, 4, 46, 0
5, 348480, Note_on_c, 4, 48, 89
5, 348840, Note_off_c, 4, 48, 0
5, 348960, Note_on_c, 4, 57, 80
5, 349200, Note_off_c, 4, 57, 0
5, 350400, Note_on_c, 4, 55, 93
5, 350400, Note_on_c, 4, 52, 93
5, 350520, Note_off_c, 4, 52, 0
5, 350520, Note_off_c, 4, 55, 0
5, 350640, Note_on_c, 4, 55, 96
5, 350640, Note_on_c, 4, 58, 96
5, 350760, Note_off_c, 4, 58, 0
5, 350760, Note_off_c, 4, 55, 0
5, 350880, Note_on_c, 4, 57, 98
5, 351360, Note_off_c, 4, 57, 0
5, 352320, Note_on_c, 4, 55, 112
5, 352320, Note_on_c, 4, 52, 112
5, 352440, Note_off_c, 4, 52, 0
5, 352440, Note_off_c, 4, 55, 0
5, 352560, Note_on_c, 4, 55, 114
5, 352560, Note_on_c, 4, 58, 114
5, 352680, Note_off_c, 4, 58, 0
5, 352680, Note_off_c, 4, 55, 0
5, 352800, Note_on_c, 4, 57, 116
5, 352980, Note_off_c, 4, 57, 0
5, 353280, Note_on_c, 4, 60, 51
5, 353376, Note_off_c, 4, 60, 0
5, 353520, Note_on_c, 4, 60, 49
5, 353616, Note_off_c, 4, 60, 0
5, 353760, Note_on_c, 4, 57, 47
5, 353928, Note_off_c, 4, 57, 0
5, 355200, Note_on_c, 4, 60, 120
5, 355200, Note_on_c, 4, 57, 120
5, 355560, Note_off_c, 4, 57, 0
5, 355560, Note_off_c, 4, 60, 0
5, 355560, End_track
6, 0, Start_track
6, 0, Title_t, "Unnamed Track"
6, 0, Control_c, 5, 0, 0
6, 0, Control_c, 5, 32, 0
6, 0, Program_c, 5, 0
6, 0, Control_c, 5, 64, 0
6, 0, Control_c, 5, 7, 125
6, 0, Pitch_bend_c, 5, 8192
6, 0, Control_c, 5, 1, 0
6, 0, Control_c, 5, 93, 19
6, 0, Control_c, 5, 91, 100
6, 0, Control_c, 5, 10, 55
6, 0, Control_c, 5, 64, 0
6, 1440, Note_on_c, 5, 41, 73
6, 1750, Note_off_c, 5, 41, 0
6, 1920, Note_on_c, 5, 53, 72
6, 2230, Note_off_c, 5, 53, 0
6, 2880, Note_on_c, 5, 41, 70
6, 3190, Note_off_c, 5, 41, 0
6, 3360, Note_on_c, 5, 53, 69
6, 3670, Note_off_c, 5, 53, 0
6, 4320, Note_on_c, 5, 41, 67
6, 4630, Note_off_c, 5, 41, 0
6, 4800, Note_on_c, 5, 53, 66
6, 5110, Note_off_c, 5, 53, 0
6, 6240, Note_on_c, 5, 57, 48
6, 6720, Note_off_c, 5, 57, 0
6, 6720, Note_on_c, 5, 58, 51
6, 7200, Note_off_c, 5, 58, 0
6, 7200, Note_on_c, 5, 60, 53
6, 7680, Note_off_c, 5, 60, 0
6, 7680, Note_on_c, 5, 58, 49
6, 8160, Note_off_c, 5, 58, 0
6, 8160, Note_on_c, 5, 57, 44
6, 8640, Note_off_c, 5, 57, 0
6, 8640, Note_on_c, 5, 58, 44
6, 9120, Note_off_c, 5, 58, 0
6, 9120, Note_on_c, 5, 55, 46
6, 9600, Note_off_c, 5, 55, 0
6, 9600, Note_on_c, 5, 53, 47
6, 10080, Note_off_c, 5, 53, 0
6, 10080, Note_on_c, 5, 58, 49
6, 10500, Note_off_c, 5, 58, 0
6, 11040, Note_on_c, 5, 46, 52
6, 11280, Note_off_c, 5, 46, 0
6, 11280, Note_on_c, 5, 47, 52
6, 11520, Note_off_c, 5, 47, 0
6, 11520, Note_on_c, 5, 48, 55
6, 11940, Note_off_c, 5, 48, 0
6, 12960, Note_on_c, 5, 41, 67
6, 13270, Note_off_c, 5, 41, 0
6, 13440, Note_on_c, 5, 53, 67
6, 13750, Note_off_c, 5, 53, 0
6, 14400, Note_on_c, 5, 41, 65
6, 14710, Note_off_c, 5, 41, 0
6, 14880, Note_on_c, 5, 53, 64
6, 15190, Note_off_c, 5, 53, 0
6, 15840, Note_on_c, 5, 41, 62
6, 16150, Note_off_c, 5, 41, 0
6, 16320, Note_on_c, 5, 53, 62
6, 16630, Note_off_c, 5, 53, 0
6, 17760, Note_on_c, 5, 57, 44
6, 18240, Note_off_c, 5, 57, 0
6, 18240, Note_on_c, 5, 58, 47
6, 18720, Note_off_c, 5, 58, 0
6, 18720, Note_on_c, 5, 60, 50
6, 19200, Note_off_c, 5, 60, 0
6, 19200, Note_on_c, 5, 58, 49
6, 19680, Note_off_c, 5, 58, 0
6, 19680, Note_on_c, 5, 57, 45
6, 20160, Note_off_c, 5, 57, 0
6, 20160, Note_on_c, 5, 58, 43
6, 20580, Note_off_c, 5, 58, 0
6, 20640, Note_on_c, 5, 55, 46
6, 21120, Note_off_c, 5, 55, 0
6, 21120, Note_on_c, 5, 57, 48
6, 21540, Note_off_c, 5, 57, 0
6, 21600, Note_on_c, 5, 58, 52
6, 22080, Note_off_c, 5, 58, 0
6, 22560, Note_on_c, 5, 48, 44
6, 22920, Note_off_c, 5, 48, 0
6, 34560, Note_on_c, 5, 53, 71
6, 34560, Note_on_c, 5, 41, 71
6, 34870, Note_off_c, 5, 41, 0
6, 34870, Note_off_c, 5, 53, 0
6, 35040, Note_on_c, 5, 40, 70
6, 35040, Note_on_c, 5, 52, 70
6, 35350, Note_off_c, 5, 52, 0
6, 35350, Note_off_c, 5, 40, 0
6, 36000, Note_on_c, 5, 50, 68
6, 36000, Note_on_c, 5, 38, 68
6, 36310, Note_off_c, 5, 38, 0
6, 36310, Note_off_c, 5, 50, 0
6, 36480, Note_on_c, 5, 48, 66
6, 36480, Note_on_c, 5, 36, 66
6, 36790, Note_off_c, 5, 36, 0
6, 36790, Note_off_c, 5, 48, 0
6, 37440, Note_on_c, 5, 46, 64
6, 37440, Note_on_c, 5, 58, 64
6, 37750, Note_off_c, 5, 58, 0
6, 37750, Note_off_c, 5, 46, 0
6, 37920, Note_on_c, 5, 45, 62
6, 37920, Note_on_c, 5, 57, 62
6, 38230, Note_off_c, 5, 57, 0
6, 38230, Note_off_c, 5, 45, 0
6, 38400, Note_on_c, 5, 50, 61
6, 38400, Note_on_c, 5, 62, 61
6, 38710, Note_off_c, 5, 62, 0
6, 38710, Note_off_c, 5, 50, 0
6, 38880, Note_on_c, 5, 48, 60
6, 39120, Note_off_c, 5, 48, 0
6, 39840, Note_on_c, 5, 58, 63
6, 40080, Note_off_c, 5, 58, 0
6, 40080, Note_on_c, 5, 59, 64
6, 40320, Note_off_c, 5, 59, 0
6, 40320, Note_on_c, 5, 57, 65
6, 40560, Note_off_c, 5, 57, 0
6, 40800, Note_on_c, 5, 55, 66
6, 41040, Note_off_c, 5, 55, 0
6, 41280, Note_on_c, 5, 53, 68
6, 41520, Note_off_c, 5, 53, 0
6, 41760, Note_on_c, 5, 48, 70
6, 42000, Note_off_c, 5, 48, 0
6, 42720, Note_on_c, 5, 58, 73
6, 42960, Note_off_c, 5, 58, 0
6, 42960, Note_on_c, 5, 59, 74
6, 43200, Note_off_c, 5, 59, 0
6, 43200, Note_on_c, 5, 57, 75
6, 43440, Note_off_c, 5, 57, 0
6, 43680, Note_on_c, 5, 55, 77
6, 43920, Note_off_c, 5, 55, 0
6, 44160, Note_on_c, 5, 53, 79
6, 44400, Note_off_c, 5, 53, 0
6, 44640, Note_on_c, 5, 48, 80
6, 45000, Note_off_c, 5, 48, 0
6, 45120, Note_on_c, 5, 36, 74
6, 45120, Note_on_c, 5, 48, 74
6, 45480, Note_off_c, 5, 48, 0
6, 45480, Note_off_c, 5, 36, 0
6, 48960, Note_on_c, 5, 57, 59
6, 50347, Note_off_c, 5, 57, 0
6, 50640, Note_on_c, 5, 57, 64
6, 50796, Note_off_c, 5, 57, 0
6, 50880, Note_on_c, 5, 62, 60
6, 51036, Note_off_c, 5, 62, 0
6, 51120, Note_on_c, 5, 57, 57
6, 51276, Note_off_c, 5, 57, 0
6, 51360, Note_on_c, 5, 53, 53
6, 51516, Note_off_c, 5, 53, 0
6, 51600, Note_on_c, 5, 50, 49
6, 51756, Note_off_c, 5, 50, 0
6, 54720, Note_on_c, 5, 55, 56
6, 56107, Note_off_c, 5, 55, 0
6, 56400, Note_on_c, 5, 55, 62
6, 56556, Note_off_c, 5, 55, 0
6, 56640, Note_on_c, 5, 60, 60
6, 56796, Note_off_c, 5, 60, 0
6, 56880, Note_on_c, 5, 55, 57
6, 57036, Note_off_c, 5, 55, 0
6, 57120, Note_on_c, 5, 52, 55
6, 57276, Note_off_c, 5, 52, 0
6, 57360, Note_on_c, 5, 48, 52
6, 57516, Note_off_c, 5, 48, 0
6, 58080, Note_on_c, 5, 53, 52
6, 58560, Note_off_c, 5, 53, 0
6, 58560, Note_on_c, 5, 55, 54
6, 58987, Note_off_c, 5, 55, 0
6, 59040, Note_on_c, 5, 57, 59
6, 60000, Note_off_c, 5, 57, 0
6, 60000, Note_on_c, 5, 55, 54
6, 60427, Note_off_c, 5, 55, 0
6, 60960, Note_on_c, 5, 54, 58
6, 61440, Note_off_c, 5, 54, 0
6, 61440, Note_on_c, 5, 55, 61
6, 61867, Note_off_c, 5, 55, 0
6, 61920, Note_on_c, 5, 57, 63
6, 62880, Note_off_c, 5, 57, 0
6, 62880, Note_on_c, 5, 55, 56
6, 63300, Note_off_c, 5, 55, 0
6, 63360, Note_on_c, 5, 54, 57
6, 64320, Note_off_c, 5, 54, 0
6, 64320, Note_on_c, 5, 54, 63
6, 64800, Note_off_c, 5, 54, 0
6, 64800, Note_on_c, 5, 55, 64
6, 65227, Note_off_c, 5, 55, 0
6, 66240, Note_on_c, 5, 48, 63
6, 66480, Note_off_c, 5, 48, 0
6, 66720, Note_on_c, 5, 52, 66
6, 66960, Note_off_c, 5, 52, 0
6, 67200, Note_on_c, 5, 55, 69
6, 67440, Note_off_c, 5, 55, 0
6, 67680, Note_on_c, 5, 60, 72
6, 67920, Note_off_c, 5, 60, 0
6, 68160, Note_on_c, 5, 64, 76
6, 68880, Note_off_c, 5, 64, 0
6, 68880, Note_on_c, 5, 62, 70
6, 69000, Note_off_c, 5, 62, 0
6, 69000, Note_on_c, 5, 60, 69
6, 69120, Note_off_c, 5, 60, 0
6, 69120, Note_on_c, 5, 59, 68
6, 69360, Note_off_c, 5, 59, 0
6, 69600, Note_on_c, 5, 62, 75
6, 69840, Note_off_c, 5, 62, 0
6, 70080, Note_on_c, 5, 65, 85
6, 70800, Note_off_c, 5, 65, 0
6, 70800, Note_on_c, 5, 62, 79
6, 70955, Note_off_c, 5, 62, 0
6, 71040, Note_on_c, 5, 59, 77
6, 71195, Note_off_c, 5, 59, 0
6, 71280, Note_on_c, 5, 55, 76
6, 71435, Note_off_c, 5, 55, 0
6, 71520, Note_on_c, 5, 53, 74
6, 71675, Note_off_c, 5, 53, 0
6, 71760, Note_on_c, 5, 50, 72
6, 71915, Note_off_c, 5, 50, 0
6, 79200, Note_on_c, 5, 67, 65
6, 79680, Note_off_c, 5, 67, 0
6, 79680, Note_on_c, 5, 65, 56
6, 79872, Note_off_c, 5, 65, 0
6, 80640, Note_on_c, 5, 65, 62
6, 81120, Note_off_c, 5, 65, 0
6, 81120, Note_on_c, 5, 64, 54
6, 81312, Note_off_c, 5, 64, 0
6, 82080, Note_on_c, 5, 65, 58
6, 82320, Note_off_c, 5, 65, 0
6, 82560, Note_on_c, 5, 65, 61
6, 82800, Note_off_c, 5, 65, 0
6, 83040, Note_on_c, 5, 65, 63
6, 83287, Note_off_c, 5, 65, 0
6, 83520, Note_on_c, 5, 53, 67
6, 84000, Note_off_c, 5, 53, 0
6, 84000, Note_on_c, 5, 55, 61
6, 84960, Note_on_c, 5, 60, 49
6, 84967, Note_off_c, 5, 55, 0
6, 85200, Note_off_c, 5, 60, 0
6, 85440, Note_on_c, 5, 52, 48
6, 85920, Note_off_c, 5, 52, 0
6, 85920, Note_on_c, 5, 50, 52
6, 86347, Note_off_c, 5, 50, 0
6, 86400, Note_on_c, 5, 49, 55
6, 86880, Note_off_c, 5, 49, 0
6, 86880, Note_on_c, 5, 50, 46
6, 87072, Note_off_c, 5, 50, 0
6, 87120, Note_on_c, 5, 50, 48
6, 87360, Note_off_c, 5, 50, 0
6, 87360, Note_on_c, 5, 53, 49
6, 87600, Note_off_c, 5, 53, 0
6, 87600, Note_on_c, 5, 50, 51
6, 87792, Note_off_c, 5, 50, 0
6, 87840, Note_on_c, 5, 47, 53
6, 88320, Note_off_c, 5, 47, 0
6, 88320, Note_on_c, 5, 48, 43
6, 88512, Note_off_c, 5, 48, 0
6, 89280, Note_on_c, 5, 41, 47
6, 89520, Note_off_c, 5, 41, 0
6, 89760, Note_on_c, 5, 53, 50
6, 90000, Note_off_c, 5, 53, 0
6, 90240, Note_on_c, 5, 53, 52
6, 90480, Note_off_c, 5, 53, 0
6, 90720, Note_on_c, 5, 41, 55
6, 91200, Note_off_c, 5, 41, 0
6, 91200, Note_on_c, 5, 43, 50
6, 92160, Note_off_c, 5, 43, 0
6, 92160, Note_on_c, 5, 36, 52
6, 92280, Note_off_c, 5, 36, 0
6, 92280, Note_on_c, 5, 48, 52
6, 92400, Note_off_c, 5, 48, 0
6, 92400, Note_on_c, 5, 47, 52
6, 92520, Note_off_c, 5, 47, 0
6, 92520, Note_on_c, 5, 48, 53
6, 92640, Note_off_c, 5, 48, 0
6, 92640, Note_on_c, 5, 36, 53
6, 93067, Note_off_c, 5, 36, 0
6, 93600, Note_on_c, 5, 36, 55
6, 93720, Note_off_c, 5, 36, 0
6, 93720, Note_on_c, 5, 48, 55
6, 93840, Note_off_c, 5, 48, 0
6, 93840, Note_on_c, 5, 47, 55
6, 93960, Note_off_c, 5, 47, 0
6, 93960, Note_on_c, 5, 48, 56
6, 94080, Note_off_c, 5, 48, 0
6, 94080, Note_on_c, 5, 36, 56
6, 94507, Note_off_c, 5, 36, 0
6, 95040, Note_on_c, 5, 36, 58
6, 95160, Note_off_c, 5, 36, 0
6, 95160, Note_on_c, 5, 48, 58
6, 95280, Note_off_c, 5, 48, 0
6, 95280, Note_on_c, 5, 47, 59
6, 95400, Note_off_c, 5, 47, 0
6, 95400, Note_on_c, 5, 48, 59
6, 95520, Note_off_c, 5, 48, 0
6, 95520, Note_on_c, 5, 36, 59
6, 95947, Note_off_c, 5, 36, 0
6, 96480, Note_on_c, 5, 36, 61
6, 96600, Note_off_c, 5, 36, 0
6, 96600, Note_on_c, 5, 48, 62
6, 96720, Note_off_c, 5, 48, 0
6, 96720, Note_on_c, 5, 47, 62
6, 96840, Note_off_c, 5, 47, 0
6, 96840, Note_on_c, 5, 48, 62
6, 96960, Note_off_c, 5, 48, 0
6, 96960, Note_on_c, 5, 36, 62
6, 97387, Note_off_c, 5, 36, 0
6, 97920, Note_on_c, 5, 48, 65
6, 97920, Note_on_c, 5, 36, 65
6, 98332, Note_off_c, 5, 48, 0
6, 98340, Note_off_c, 5, 36, 0
6, 100920, Note_on_c, 5, 41, 71
6, 101040, Note_off_c, 5, 41, 0
6, 101040, Note_on_c, 5, 43, 72
6, 101160, Note_off_c, 5, 43, 0
6, 101160, Note_on_c, 5, 45, 72
6, 101280, Note_off_c, 5, 45, 0
6, 101280, Note_on_c, 5, 46, 72
6, 101400, Note_off_c, 5, 46, 0
6, 101400, Note_on_c, 5, 48, 72
6, 101520, Note_off_c, 5, 48, 0
6, 101520, Note_on_c, 5, 50, 73
6, 101640, Note_off_c, 5, 50, 0
6, 101640, Note_on_c, 5, 52, 73
6, 101760, Note_off_c, 5, 52, 0
6, 101760, Note_on_c, 5, 53, 73
6, 101880, Note_off_c, 5, 53, 0
6, 101880, Note_on_c, 5, 55, 73
6, 102000, Note_off_c, 5, 55, 0
6, 102000, Note_on_c, 5, 57, 74
6, 102120, Note_off_c, 5, 57, 0
6, 102120, Note_on_c, 5, 59, 74
6, 102240, Note_off_c, 5, 59, 0
6, 102240, Note_on_c, 5, 60, 75
6, 102432, Note_off_c, 5, 60, 0
6, 102480, Note_on_c, 5, 53, 73
6, 102672, Note_off_c, 5, 53, 0
6, 102720, Note_on_c, 5, 55, 70
6, 103132, Note_off_c, 5, 55, 0
6, 103200, Note_on_c, 5, 43, 65
6, 103620, Note_off_c, 5, 43, 0
6, 103680, Note_on_c, 5, 48, 66
6, 104092, Note_off_c, 5, 48, 0
6, 106680, Note_on_c, 5, 41, 78
6, 106800, Note_off_c, 5, 41, 0
6, 106800, Note_on_c, 5, 43, 78
6, 106920, Note_off_c, 5, 43, 0
6, 106920, Note_on_c, 5, 45, 78
6, 107040, Note_off_c, 5, 45, 0
6, 107040, Note_on_c, 5, 46, 79
6, 107160, Note_off_c, 5, 46, 0
6, 107160, Note_on_c, 5, 48, 79
6, 107280, Note_off_c, 5, 48, 0
6, 107280, Note_on_c, 5, 50, 80
6, 107400, Note_off_c, 5, 50, 0
6, 107400, Note_on_c, 5, 52, 80
6, 107520, Note_off_c, 5, 52, 0
6, 107520, Note_on_c, 5, 53, 81
6, 107640, Note_off_c, 5, 53, 0
6, 107640, Note_on_c, 5, 55, 81
6, 107760, Note_off_c, 5, 55, 0
6, 107760, Note_on_c, 5, 57, 82
6, 107880, Note_off_c, 5, 57, 0
6, 107880, Note_on_c, 5, 59, 82
6, 108000, Note_off_c, 5, 59, 0
6, 108000, Note_on_c, 5, 60, 83
6, 108192, Note_off_c, 5, 60, 0
6, 108240, Note_on_c, 5, 53, 81
6, 108432, Note_off_c, 5, 53, 0
6, 108480, Note_on_c, 5, 55, 79
6, 108907, Note_off_c, 5, 55, 0
6, 108960, Note_on_c, 5, 43, 75
6, 109380, Note_off_c, 5, 43, 0
6, 109440, Note_on_c, 5, 48, 72
6, 109860, Note_off_c, 5, 48, 0
6, 110400, Note_on_c, 5, 55, 78
6, 110827, Note_off_c, 5, 55, 0
6, 110880, Note_on_c, 5, 60, 80
6, 111307, Note_off_c, 5, 60, 0
6, 111840, Note_on_c, 5, 55, 86
6, 112267, Note_off_c, 5, 55, 0
6, 112320, Note_on_c, 5, 60, 89
6, 112680, Note_off_c, 5, 60, 0
6, 112800, Note_on_c, 5, 48, 86
6, 113152, Note_off_c, 5, 48, 0
6, 113760, Control_c, 5, 64, 0
6, 114240, Note_on_c, 5, 48, 44
6, 114600, Note_off_c, 5, 48, 0
6, 114720, Note_on_c, 5, 48, 42
6, 115080, Note_off_c, 5, 48, 0
6, 115680, Note_on_c, 5, 53, 40
6, 116040, Note_off_c, 5, 53, 0
6, 116160, Note_on_c, 5, 53, 39
6, 116520, Note_off_c, 5, 53, 0
6, 116640, Note_on_c, 5, 52, 36
6, 117007, Note_off_c, 5, 52, 0
6, 117600, Note_on_c, 5, 48, 42
6, 118080, Note_off_c, 5, 48, 0
6, 118080, Note_on_c, 5, 55, 45
6, 118560, Note_off_c, 5, 55, 0
6, 118560, Note_on_c, 5, 53, 43
6, 119040, Note_off_c, 5, 53, 0
6, 119040, Note_on_c, 5, 52, 40
6, 119460, Note_off_c, 5, 52, 0
6, 119520, Note_on_c, 5, 53, 39
6, 120960, Note_off_c, 5, 53, 0
6, 120960, Note_on_c, 5, 53, 43
6, 122332, Note_off_c, 5, 53, 0
6, 122400, Note_on_c, 5, 52, 48
6, 122820, Note_off_c, 5, 52, 0
6, 122880, Note_on_c, 5, 48, 50
6, 123307, Note_off_c, 5, 48, 0
6, 123360, Note_on_c, 5, 41, 52
6, 123780, Note_off_c, 5, 41, 0
6, 123840, Note_on_c, 5, 43, 53
6, 124560, Note_off_c, 5, 43, 0
6, 125520, Note_on_c, 5, 68, 52
6, 125675, Note_off_c, 5, 68, 0
6, 125760, Note_on_c, 5, 69, 52
6, 125915, Note_off_c, 5, 69, 0
6, 126000, Note_on_c, 5, 71, 51
6, 126155, Note_off_c, 5, 71, 0
6, 126240, Note_on_c, 5, 72, 51
6, 126395, Note_off_c, 5, 72, 0
6, 126480, Note_on_c, 5, 69, 50
6, 126635, Note_off_c, 5, 69, 0
6, 126720, Note_on_c, 5, 65, 49
6, 126875, Note_off_c, 5, 65, 0
6, 126960, Note_on_c, 5, 64, 49
6, 127115, Note_off_c, 5, 64, 0
6, 127200, Note_on_c, 5, 65, 48
6, 127355, Note_off_c, 5, 65, 0
6, 127440, Note_on_c, 5, 62, 47
6, 127595, Note_off_c, 5, 62, 0
6, 127680, Note_on_c, 5, 67, 47
6, 127835, Note_off_c, 5, 67, 0
6, 127920, Note_on_c, 5, 65, 46
6, 128075, Note_off_c, 5, 65, 0
6, 128160, Note_on_c, 5, 64, 46
6, 128315, Note_off_c, 5, 64, 0
6, 128400, Note_on_c, 5, 62, 47
6, 128555, Note_off_c, 5, 62, 0
6, 128640, Note_on_c, 5, 64, 48
6, 128795, Note_off_c, 5, 64, 0
6, 128880, Note_on_c, 5, 59, 49
6, 129035, Note_off_c, 5, 59, 0
6, 129120, Note_on_c, 5, 60, 51
6, 129275, Note_off_c, 5, 60, 0
6, 129360, Note_on_c, 5, 57, 52
6, 129515, Note_off_c, 5, 57, 0
6, 129600, Note_on_c, 5, 55, 53
6, 129840, Note_on_c, 5, 60, 52
6, 129960, Note_off_c, 5, 55, 0
6, 130080, Note_off_c, 5, 60, 0
6, 130080, Note_on_c, 5, 53, 51
6, 130320, Note_on_c, 5, 59, 50
6, 130440, Note_off_c, 5, 53, 0
6, 130560, Note_off_c, 5, 59, 0
6, 130560, Note_on_c, 5, 52, 49
6, 130800, Note_on_c, 5, 60, 48
6, 130920, Note_off_c, 5, 52, 0
6, 130980, Note_off_c, 5, 60, 0
6, 131040, Note_on_c, 5, 53, 48
6, 132480, Note_off_c, 5, 53, 0
6, 132480, Note_on_c, 5, 55, 55
6, 132960, Note_off_c, 5, 55, 0
6, 132960, Note_on_c, 5, 56, 57
6, 133440, Note_off_c, 5, 56, 0
6, 133440, Note_on_c, 5, 57, 59
6, 133867, Note_off_c, 5, 57, 0
6, 133920, Note_on_c, 5, 53, 62
6, 134377, Note_off_c, 5, 53, 0
6, 134400, Note_on_c, 5, 55, 58
6, 135360, Note_off_c, 5, 55, 0
6, 135360, Note_on_c, 5, 36, 60
6, 135480, Note_off_c, 5, 36, 0
6, 135480, Note_on_c, 5, 48, 60
6, 135600, Note_off_c, 5, 48, 0
6, 135600, Note_on_c, 5, 47, 60
6, 135720, Note_off_c, 5, 47, 0
6, 135720, Note_on_c, 5, 48, 60
6, 135840, Note_off_c, 5, 48, 0
6, 135840, Note_on_c, 5, 36, 60
6, 136260, Note_off_c, 5, 36, 0
6, 136800, Note_on_c, 5, 36, 61
6, 136920, Note_off_c, 5, 36, 0
6, 136920, Note_on_c, 5, 48, 61
6, 137040, Note_off_c, 5, 48, 0
6, 137040, Note_on_c, 5, 47, 62
6, 137160, Note_off_c, 5, 47, 0
6, 137160, Note_on_c, 5, 48, 62
6, 137280, Note_off_c, 5, 48, 0
6, 137280, Note_on_c, 5, 36, 62
6, 137707, Note_off_c, 5, 36, 0
6, 138240, Note_on_c, 5, 38, 63
6, 138360, Note_off_c, 5, 38, 0
6, 138360, Note_on_c, 5, 50, 63
6, 138480, Note_off_c, 5, 50, 0
6, 138480, Note_on_c, 5, 49, 63
6, 138600, Note_off_c, 5, 49, 0
6, 138600, Note_on_c, 5, 50, 64
6, 138720, Note_off_c, 5, 50, 0
6, 138720, Note_on_c, 5, 38, 64
6, 139147, Note_off_c, 5, 38, 0
6, 139680, Note_on_c, 5, 38, 65
6, 139800, Note_off_c, 5, 38, 0
6, 139800, Note_on_c, 5, 50, 65
6, 139920, Note_off_c, 5, 50, 0
6, 139920, Note_on_c, 5, 49, 65
6, 140040, Note_off_c, 5, 49, 0
6, 140040, Note_on_c, 5, 50, 65
6, 140160, Note_off_c, 5, 50, 0
6, 140160, Note_on_c, 5, 38, 66
6, 140587, Note_off_c, 5, 38, 0
6, 141120, Note_on_c, 5, 43, 67
6, 141240, Note_off_c, 5, 43, 0
6, 141240, Note_on_c, 5, 55, 67
6, 141360, Note_off_c, 5, 55, 0
6, 141360, Note_on_c, 5, 54, 67
6, 141480, Note_off_c, 5, 54, 0
6, 141480, Note_on_c, 5, 55, 67
6, 141600, Note_off_c, 5, 55, 0
6, 141600, Note_on_c, 5, 43, 67
6, 142027, Note_off_c, 5, 43, 0
6, 142560, Note_on_c, 5, 43, 69
6, 142680, Note_off_c, 5, 43, 0
6, 142680, Note_on_c, 5, 55, 69
6, 142800, Note_off_c, 5, 55, 0
6, 142800, Note_on_c, 5, 54, 69
6, 142920, Note_off_c, 5, 54, 0
6, 142920, Note_on_c, 5, 55, 69
6, 143040, Note_off_c, 5, 55, 0
6, 143040, Note_on_c, 5, 43, 69
6, 143460, Note_off_c, 5, 43, 0
6, 144000, Note_on_c, 5, 45, 70
6, 144120, Note_off_c, 5, 45, 0
6, 144120, Note_on_c, 5, 57, 71
6, 144240, Note_off_c, 5, 57, 0
6, 144240, Note_on_c, 5, 56, 71
6, 144360, Note_off_c, 5, 56, 0
6, 144360, Note_on_c, 5, 57, 71
6, 144480, Note_off_c, 5, 57, 0
6, 144480, Note_on_c, 5, 45, 71
6, 144907, Note_off_c, 5, 45, 0
6, 145440, Note_on_c, 5, 45, 72
6, 145560, Note_off_c, 5, 45, 0
6, 145560, Note_on_c, 5, 57, 72
6, 145680, Note_off_c, 5, 57, 0
6, 145680, Note_on_c, 5, 56, 73
6, 145800, Note_off_c, 5, 56, 0
6, 145800, Note_on_c, 5, 57, 73
6, 145920, Note_off_c, 5, 57, 0
6, 145920, Note_on_c, 5, 45, 73
6, 146347, Note_off_c, 5, 45, 0
6, 146880, Note_on_c, 5, 46, 74
6, 147000, Note_off_c, 5, 46, 0
6, 147000, Note_on_c, 5, 58, 74
6, 147120, Note_off_c, 5, 58, 0
6, 147120, Note_on_c, 5, 57, 74
6, 147240, Note_off_c, 5, 57, 0
6, 147240, Note_on_c, 5, 58, 74
6, 147360, Note_off_c, 5, 58, 0
6, 147360, Note_on_c, 5, 46, 75
6, 147780, Note_off_c, 5, 46, 0
6, 148320, Note_on_c, 5, 46, 76
6, 148440, Note_off_c, 5, 46, 0
6, 148440, Note_on_c, 5, 58, 76
6, 148560, Note_off_c, 5, 58, 0
6, 148560, Note_on_c, 5, 57, 76
6, 148680, Note_off_c, 5, 57, 0
6, 148680, Note_on_c, 5, 58, 76
6, 148800, Note_off_c, 5, 58, 0
6, 148800, Note_on_c, 5, 46, 76
6, 149227, Note_off_c, 5, 46, 0
6, 149760, Note_on_c, 5, 45, 78
6, 149880, Note_off_c, 5, 45, 0
6, 149880, Note_on_c, 5, 57, 78
6, 150000, Note_off_c, 5, 57, 0
6, 150000, Note_on_c, 5, 56, 78
6, 150120, Note_off_c, 5, 56, 0
6, 150120, Note_on_c, 5, 57, 78
6, 150240, Note_off_c, 5, 57, 0
6, 150240, Note_on_c, 5, 45, 78
6, 151147, Note_off_c, 5, 45, 0
6, 151200, Note_on_c, 5, 45, 79
6, 151320, Note_off_c, 5, 45, 0
6, 151320, Note_on_c, 5, 53, 80
6, 151440, Note_off_c, 5, 53, 0
6, 151440, Note_on_c, 5, 52, 80
6, 151560, Note_off_c, 5, 52, 0
6, 151560, Note_on_c, 5, 53, 80
6, 151680, Note_off_c, 5, 53, 0
6, 151680, Note_on_c, 5, 45, 80
6, 152587, Note_off_c, 5, 45, 0
6, 152640, Note_on_c, 5, 45, 81
6, 152760, Note_off_c, 5, 45, 0
6, 152760, Note_on_c, 5, 57, 81
6, 152880, Note_off_c, 5, 57, 0
6, 152880, Note_on_c, 5, 56, 82
6, 153000, Note_off_c, 5, 56, 0
6, 153000, Note_on_c, 5, 57, 82
6, 153120, Note_off_c, 5, 57, 0
6, 153120, Note_on_c, 5, 45, 82
6, 154020, Note_off_c, 5, 45, 0
6, 154080, Note_on_c, 5, 45, 83
6, 154200, Note_off_c, 5, 45, 0
6, 154200, Note_on_c, 5, 53, 83
6, 154320, Note_off_c, 5, 53, 0
6, 154320, Note_on_c, 5, 52, 83
6, 154440, Note_off_c, 5, 52, 0
6, 154440, Note_on_c, 5, 53, 84
6, 154560, Note_off_c, 5, 53, 0
6, 154560, Note_on_c, 5, 45, 84
6, 155467, Note_off_c, 5, 45, 0
6, 155520, Note_on_c, 5, 45, 85
6, 155640, Note_off_c, 5, 45, 0
6, 155640, Note_on_c, 5, 57, 85
6, 155760, Note_off_c, 5, 57, 0
6, 155760, Note_on_c, 5, 56, 85
6, 155880, Note_off_c, 5, 56, 0
6, 155880, Note_on_c, 5, 57, 85
6, 156000, Note_off_c, 5, 57, 0
6, 156000, Note_on_c, 5, 45, 86
6, 156155, Note_off_c, 5, 45, 0
6, 156240, Note_on_c, 5, 57, 86
6, 156395, Note_off_c, 5, 57, 0
6, 156480, Note_on_c, 5, 45, 86
6, 156635, Note_off_c, 5, 45, 0
6, 156720, Note_on_c, 5, 57, 86
6, 156875, Note_off_c, 5, 57, 0
6, 156960, Note_on_c, 5, 45, 87
6, 157080, Note_off_c, 5, 45, 0
6, 157080, Note_on_c, 5, 57, 87
6, 157200, Note_off_c, 5, 57, 0
6, 157200, Note_on_c, 5, 56, 87
6, 157320, Note_off_c, 5, 56, 0
6, 157320, Note_on_c, 5, 57, 87
6, 157440, Note_off_c, 5, 57, 0
6, 157440, Note_on_c, 5, 45, 87
6, 157595, Note_off_c, 5, 45, 0
6, 157680, Note_on_c, 5, 57, 88
6, 157835, Note_off_c, 5, 57, 0
6, 157920, Note_on_c, 5, 45, 88
6, 158075, Note_off_c, 5, 45, 0
6, 158160, Note_on_c, 5, 57, 88
6, 158315, Note_off_c, 5, 57, 0
6, 158400, Note_on_c, 5, 43, 89
6, 158520, Note_off_c, 5, 43, 0
6, 158520, Note_on_c, 5, 55, 89
6, 158640, Note_off_c, 5, 55, 0
6, 158640, Note_on_c, 5, 54, 89
6, 158760, Note_off_c, 5, 54, 0
6, 158760, Note_on_c, 5, 55, 89
6, 158880, Note_off_c, 5, 55, 0
6, 158880, Note_on_c, 5, 43, 89
6, 159035, Note_off_c, 5, 43, 0
6, 159120, Note_on_c, 5, 55, 89
6, 159275, Note_off_c, 5, 55, 0
6, 159360, Note_on_c, 5, 43, 90
6, 159515, Note_off_c, 5, 43, 0
6, 159600, Note_on_c, 5, 55, 90
6, 159755, Note_off_c, 5, 55, 0
6, 159840, Note_on_c, 5, 41, 90
6, 159960, Note_off_c, 5, 41, 0
6, 159960, Note_on_c, 5, 53, 91
6, 160080, Note_off_c, 5, 53, 0
6, 160080, Note_on_c, 5, 52, 91
6, 160200, Note_off_c, 5, 52, 0
6, 160200, Note_on_c, 5, 53, 91
6, 160320, Note_off_c, 5, 53, 0
6, 160320, Note_on_c, 5, 41, 91
6, 160475, Note_off_c, 5, 41, 0
6, 160560, Note_on_c, 5, 53, 91
6, 160715, Note_off_c, 5, 53, 0
6, 160800, Note_on_c, 5, 41, 92
6, 160955, Note_off_c, 5, 41, 0
6, 161040, Note_on_c, 5, 53, 92
6, 161195, Note_off_c, 5, 53, 0
6, 161280, Note_on_c, 5, 52, 92
6, 161700, Note_off_c, 5, 52, 0
6, 162000, Note_on_c, 5, 53, 93
6, 162146, Note_off_c, 5, 53, 0
6, 162240, Note_on_c, 5, 52, 93
6, 162386, Note_off_c, 5, 52, 0
6, 162480, Note_on_c, 5, 53, 94
6, 162626, Note_off_c, 5, 53, 0
6, 162720, Note_on_c, 5, 52, 94
6, 163140, Note_off_c, 5, 52, 0
6, 163440, Note_on_c, 5, 65, 95
6, 163586, Note_off_c, 5, 65, 0
6, 163680, Note_on_c, 5, 64, 95
6, 163826, Note_off_c, 5, 64, 0
6, 163920, Note_on_c, 5, 65, 95
6, 164066, Note_off_c, 5, 65, 0
6, 164160, Note_on_c, 5, 64, 97
6, 165600, Note_off_c, 5, 64, 0
6, 165600, Note_on_c, 5, 60, 89
6, 167040, Note_off_c, 5, 60, 0
6, 171360, Note_on_c, 5, 41, 79
6, 171670, Note_off_c, 5, 41, 0
6, 171840, Note_on_c, 5, 53, 78
6, 172150, Note_off_c, 5, 53, 0
6, 172800, Note_on_c, 5, 41, 76
6, 173110, Note_off_c, 5, 41, 0
6, 173280, Note_on_c, 5, 53, 74
6, 173590, Note_off_c, 5, 53, 0
6, 174240, Note_on_c, 5, 41, 72
6, 174550, Note_off_c, 5, 41, 0
6, 174720, Note_on_c, 5, 53, 70
6, 175030, Note_off_c, 5, 53, 0
6, 176160, Note_on_c, 5, 57, 43
6, 176640, Note_off_c, 5, 57, 0
6, 176640, Note_on_c, 5, 58, 47
6, 177120, Note_off_c, 5, 58, 0
6, 177120, Note_on_c, 5, 60, 51
6, 177600, Note_off_c, 5, 60, 0
6, 177600, Note_on_c, 5, 58, 49
6, 178080, Note_off_c, 5, 58, 0
6, 178080, Note_on_c, 5, 57, 47
6, 178560, Note_off_c, 5, 57, 0
6, 178560, Note_on_c, 5, 58, 44
6, 178987, Note_off_c, 5, 58, 0
6, 179040, Note_on_c, 5, 55, 45
6, 179520, Note_off_c, 5, 55, 0
6, 179520, Note_on_c, 5, 53, 46
6, 180000, Note_off_c, 5, 53, 0
6, 180000, Note_on_c, 5, 58, 47
6, 180420, Note_off_c, 5, 58, 0
6, 180960, Note_on_c, 5, 46, 50
6, 181200, Note_off_c, 5, 46, 0
6, 181200, Note_on_c, 5, 47, 50
6, 181417, Note_off_c, 5, 47, 0
6, 181440, Note_on_c, 5, 48, 53
6, 181867, Note_off_c, 5, 48, 0
6, 182880, Note_on_c, 5, 41, 67
6, 183190, Note_off_c, 5, 41, 0
6, 183360, Note_on_c, 5, 53, 67
6, 183670, Note_off_c, 5, 53, 0
6, 184320, Note_on_c, 5, 41, 65
6, 184630, Note_off_c, 5, 41, 0
6, 184800, Note_on_c, 5, 53, 64
6, 185110, Note_off_c, 5, 53, 0
6, 185760, Note_on_c, 5, 41, 62
6, 186070, Note_off_c, 5, 41, 0
6, 186240, Note_on_c, 5, 53, 61
6, 186550, Note_off_c, 5, 53, 0
6, 187680, Note_on_c, 5, 57, 43
6, 188160, Note_off_c, 5, 57, 0
6, 188160, Note_on_c, 5, 58, 47
6, 188640, Note_off_c, 5, 58, 0
6, 188640, Note_on_c, 5, 60, 51
6, 189120, Note_off_c, 5, 60, 0
6, 189120, Note_on_c, 5, 58, 46
6, 189600, Note_off_c, 5, 58, 0
6, 189600, Note_on_c, 5, 57, 41
6, 190080, Note_off_c, 5, 57, 0
6, 190080, Note_on_c, 5, 58, 41
6, 190507, Note_off_c, 5, 58, 0
6, 190560, Note_on_c, 5, 55, 44
6, 191040, Note_off_c, 5, 55, 0
6, 191040, Note_on_c, 5, 57, 47
6, 191497, Note_off_c, 5, 57, 0
6, 191520, Note_on_c, 5, 58, 51
6, 192000, Note_off_c, 5, 58, 0
6, 192480, Note_on_c, 5, 48, 39
6, 192907, Note_off_c, 5, 48, 0
6, 204480, Note_on_c, 5, 41, 83
6, 204480, Note_on_c, 5, 53, 83
6, 204790, Note_off_c, 5, 53, 0
6, 204790, Note_off_c, 5, 41, 0
6, 204960, Note_on_c, 5, 52, 81
6, 204960, Note_on_c, 5, 40, 81
6, 205270, Note_off_c, 5, 40, 0
6, 205270, Note_off_c, 5, 52, 0
6, 205920, Note_on_c, 5, 38, 78
6, 205920, Note_on_c, 5, 50, 78
6, 206230, Note_off_c, 5, 50, 0
6, 206230, Note_off_c, 5, 38, 0
6, 206400, Note_on_c, 5, 36, 77
6, 206400, Note_on_c, 5, 48, 77
6, 206710, Note_off_c, 5, 48, 0
6, 206710, Note_off_c, 5, 36, 0
6, 207360, Note_on_c, 5, 58, 74
6, 207360, Note_on_c, 5, 46, 74
6, 207670, Note_off_c, 5, 46, 0
6, 207670, Note_off_c, 5, 58, 0
6, 207840, Note_on_c, 5, 57, 72
6, 207840, Note_on_c, 5, 45, 72
6, 208150, Note_off_c, 5, 45, 0
6, 208150, Note_off_c, 5, 57, 0
6, 208320, Note_on_c, 5, 62, 71
6, 208320, Note_on_c, 5, 50, 71
6, 208630, Note_off_c, 5, 50, 0
6, 208630, Note_off_c, 5, 62, 0
6, 208800, Note_on_c, 5, 48, 70
6, 209040, Note_off_c, 5, 48, 0
6, 209760, Note_on_c, 5, 58, 73
6, 209940, Note_off_c, 5, 58, 0
6, 210000, Note_on_c, 5, 59, 73
6, 210180, Note_off_c, 5, 59, 0
6, 210240, Note_on_c, 5, 57, 74
6, 210480, Note_off_c, 5, 57, 0
6, 210720, Note_on_c, 5, 55, 76
6, 210960, Note_off_c, 5, 55, 0
6, 211200, Note_on_c, 5, 53, 77
6, 211440, Note_off_c, 5, 53, 0
6, 211680, Note_on_c, 5, 48, 79
6, 211920, Note_off_c, 5, 48, 0
6, 212640, Note_on_c, 5, 58, 81
6, 212820, Note_off_c, 5, 58, 0
6, 212880, Note_on_c, 5, 59, 82
6, 213060, Note_off_c, 5, 59, 0
6, 213120, Note_on_c, 5, 57, 83
6, 213360, Note_off_c, 5, 57, 0
6, 213600, Note_on_c, 5, 55, 84
6, 213840, Note_off_c, 5, 55, 0
6, 214080, Note_on_c, 5, 53, 86
6, 214320, Note_off_c, 5, 53, 0
6, 214560, Note_on_c, 5, 48, 87
6, 214920, Note_off_c, 5, 48, 0
6, 215040, Note_on_c, 5, 36, 82
6, 215400, Note_off_c, 5, 36, 0
6, 218880, Note_on_c, 5, 50, 56
6, 220275, Note_off_c, 5, 50, 0
6, 220560, Note_on_c, 5, 50, 56
6, 220716, Note_off_c, 5, 50, 0
6, 220800, Note_on_c, 5, 55, 54
6, 220956, Note_off_c, 5, 55, 0
6, 221040, Note_on_c, 5, 50, 51
6, 221196, Note_off_c, 5, 50, 0
6, 221280, Note_on_c, 5, 46, 49
6, 221436, Note_off_c, 5, 46, 0
6, 221520, Note_on_c, 5, 43, 47
6, 221676, Note_off_c, 5, 43, 0
6, 224640, Note_on_c, 5, 48, 54
6, 225600, Note_off_c, 5, 48, 0
6, 226320, Note_on_c, 5, 48, 57
6, 226476, Note_off_c, 5, 48, 0
6, 226560, Note_on_c, 5, 53, 55
6, 226716, Note_off_c, 5, 53, 0
6, 226800, Note_on_c, 5, 48, 54
6, 226956, Note_off_c, 5, 48, 0
6, 227040, Note_on_c, 5, 45, 52
6, 227196, Note_off_c, 5, 45, 0
6, 227280, Note_on_c, 5, 41, 50
6, 227436, Note_off_c, 5, 41, 0
6, 228000, Note_on_c, 5, 46, 48
6, 228480, Note_off_c, 5, 46, 0
6, 228480, Note_on_c, 5, 48, 51
6, 228885, Note_off_c, 5, 48, 0
6, 228960, Note_on_c, 5, 50, 55
6, 229920, Note_off_c, 5, 50, 0
6, 229920, Note_on_c, 5, 48, 51
6, 230347, Note_off_c, 5, 48, 0
6, 230880, Note_on_c, 5, 59, 53
6, 231360, Note_off_c, 5, 59, 0
6, 231360, Note_on_c, 5, 60, 56
6, 231787, Note_off_c, 5, 60, 0
6, 231840, Note_on_c, 5, 62, 59
6, 232800, Note_off_c, 5, 62, 0
6, 232800, Note_on_c, 5, 60, 51
6, 233227, Note_off_c, 5, 60, 0
6, 233280, Note_on_c, 5, 58, 51
6, 234240, Note_off_c, 5, 58, 0
6, 234240, Note_on_c, 5, 59, 60
6, 234720, Note_off_c, 5, 59, 0
6, 234720, Note_on_c, 5, 60, 66
6, 235140, Note_off_c, 5, 60, 0
6, 236160, Note_on_c, 5, 53, 65
6, 236160, Note_on_c, 5, 41, 65
6, 236400, Note_off_c, 5, 41, 0
6, 236400, Note_off_c, 5, 53, 0
6, 236640, Note_on_c, 5, 45, 69
6, 236640, Note_on_c, 5, 57, 69
6, 236880, Note_off_c, 5, 57, 0
6, 236880, Note_off_c, 5, 45, 0
6, 237120, Note_on_c, 5, 48, 73
6, 237120, Note_on_c, 5, 60, 73
6, 237360, Note_off_c, 5, 60, 0
6, 237360, Note_off_c, 5, 48, 0
6, 237600, Note_on_c, 5, 65, 76
6, 237600, Note_on_c, 5, 53, 76
6, 237840, Note_off_c, 5, 53, 0
6, 237840, Note_off_c, 5, 65, 0
6, 238080, Note_on_c, 5, 57, 83
6, 238080, Note_on_c, 5, 69, 83
6, 238800, Note_off_c, 5, 69, 0
6, 238800, Note_off_c, 5, 57, 0
6, 238800, Note_on_c, 5, 67, 75
6, 238920, Note_off_c, 5, 67, 0
6, 238920, Note_on_c, 5, 65, 74
6, 239040, Note_off_c, 5, 65, 0
6, 239040, Note_on_c, 5, 64, 72
6, 239280, Note_off_c, 5, 64, 0
6, 239520, Note_on_c, 5, 67, 81
6, 239760, Note_off_c, 5, 67, 0
6, 240000, Note_on_c, 5, 70, 92
6, 240720, Note_off_c, 5, 70, 0
6, 240720, Note_on_c, 5, 67, 86
6, 240875, Note_off_c, 5, 67, 0
6, 240960, Note_on_c, 5, 64, 83
6, 241115, Note_off_c, 5, 64, 0
6, 241200, Note_on_c, 5, 60, 81
6, 241355, Note_off_c, 5, 60, 0
6, 241440, Note_on_c, 5, 58, 79
6, 241595, Note_off_c, 5, 58, 0
6, 241680, Note_on_c, 5, 55, 76
6, 241835, Note_off_c, 5, 55, 0
6, 247680, Note_on_c, 5, 53, 81
6, 248107, Note_off_c, 5, 53, 0
6, 249120, Note_on_c, 5, 60, 55
6, 249600, Note_off_c, 5, 60, 0
6, 249600, Note_on_c, 5, 58, 47
6, 249792, Note_off_c, 5, 58, 0
6, 250560, Note_on_c, 5, 58, 52
6, 251040, Note_off_c, 5, 58, 0
6, 251040, Note_on_c, 5, 57, 45
6, 251232, Note_off_c, 5, 57, 0
6, 252000, Note_on_c, 5, 59, 48
6, 252240, Note_off_c, 5, 59, 0
6, 252480, Note_on_c, 5, 59, 50
6, 252720, Note_off_c, 5, 59, 0
6, 252960, Note_on_c, 5, 59, 51
6, 253200, Note_off_c, 5, 59, 0
6, 253440, Note_on_c, 5, 58, 53
6, 253882, Note_off_c, 5, 58, 0
6, 253920, Note_on_c, 5, 60, 49
6, 254880, Note_off_c, 5, 60, 0
6, 254880, Note_on_c, 5, 65, 41
6, 255120, Note_off_c, 5, 65, 0
6, 255360, Note_on_c, 5, 57, 43
6, 255840, Note_off_c, 5, 57, 0
6, 255840, Note_on_c, 5, 55, 46
6, 256260, Note_off_c, 5, 55, 0
6, 256320, Note_on_c, 5, 54, 49
6, 256800, Note_off_c, 5, 54, 0
6, 256800, Note_on_c, 5, 55, 41
6, 257040, Note_off_c, 5, 55, 0
6, 257040, Note_on_c, 5, 55, 43
6, 257280, Note_off_c, 5, 55, 0
6, 257280, Note_on_c, 5, 58, 45
6, 257520, Note_off_c, 5, 58, 0
6, 257520, Note_on_c, 5, 55, 47
6, 257712, Note_off_c, 5, 55, 0
6, 257760, Note_on_c, 5, 52, 48
6, 258240, Note_off_c, 5, 52, 0
6, 258240, Note_on_c, 5, 53, 37
6, 258432, Note_off_c, 5, 53, 0
6, 259200, Note_on_c, 5, 46, 42
6, 259440, Note_off_c, 5, 46, 0
6, 259680, Note_on_c, 5, 58, 44
6, 259920, Note_off_c, 5, 58, 0
6, 260160, Note_on_c, 5, 58, 47
6, 260400, Note_off_c, 5, 58, 0
6, 260640, Note_on_c, 5, 46, 49
6, 261120, Note_off_c, 5, 46, 0
6, 261120, Note_on_c, 5, 48, 45
6, 262027, Note_off_c, 5, 48, 0
6, 262080, Note_on_c, 5, 41, 36
6, 262200, Note_off_c, 5, 41, 0
6, 262200, Note_on_c, 5, 53, 54
6, 262320, Note_off_c, 5, 53, 0
6, 262320, Note_on_c, 5, 52, 54
6, 262440, Note_off_c, 5, 52, 0
6, 262440, Note_on_c, 5, 53, 54
6, 262560, Note_off_c, 5, 53, 0
6, 262560, Note_on_c, 5, 41, 55
6, 262987, Note_off_c, 5, 41, 0
6, 263520, Note_on_c, 5, 41, 57
6, 263640, Note_off_c, 5, 41, 0
6, 263640, Note_on_c, 5, 53, 58
6, 263760, Note_off_c, 5, 53, 0
6, 263760, Note_on_c, 5, 52, 58
6, 263880, Note_off_c, 5, 52, 0
6, 263880, Note_on_c, 5, 53, 58
6, 264000, Note_off_c, 5, 53, 0
6, 264000, Note_on_c, 5, 41, 59
6, 264420, Note_off_c, 5, 41, 0
6, 264960, Note_on_c, 5, 41, 61
6, 265080, Note_off_c, 5, 41, 0
6, 265080, Note_on_c, 5, 53, 62
6, 265200, Note_off_c, 5, 53, 0
6, 265200, Note_on_c, 5, 52, 62
6, 265320, Note_off_c, 5, 52, 0
6, 265320, Note_on_c, 5, 53, 62
6, 265440, Note_off_c, 5, 53, 0
6, 265440, Note_on_c, 5, 41, 63
6, 265852, Note_off_c, 5, 41, 0
6, 266400, Note_on_c, 5, 41, 65
6, 266520, Note_off_c, 5, 41, 0
6, 266520, Note_on_c, 5, 53, 66
6, 266640, Note_off_c, 5, 53, 0
6, 266640, Note_on_c, 5, 52, 66
6, 266760, Note_off_c, 5, 52, 0
6, 266760, Note_on_c, 5, 53, 66
6, 266880, Note_off_c, 5, 53, 0
6, 266880, Note_on_c, 5, 41, 67
6, 267300, Note_off_c, 5, 41, 0
6, 267840, Note_on_c, 5, 53, 69
6, 267840, Note_on_c, 5, 41, 69
6, 268260, Note_off_c, 5, 41, 0
6, 268260, Note_off_c, 5, 53, 0
6, 270840, Note_on_c, 5, 46, 78
6, 270960, Note_off_c, 5, 46, 0
6, 270960, Note_on_c, 5, 48, 78
6, 271080, Note_off_c, 5, 48, 0
6, 271080, Note_on_c, 5, 50, 78
6, 271200, Note_off_c, 5, 50, 0
6, 271200, Note_on_c, 5, 51, 79
6, 271320, Note_off_c, 5, 51, 0
6, 271320, Note_on_c, 5, 53, 79
6, 271440, Note_off_c, 5, 53, 0
6, 271440, Note_on_c, 5, 55, 79
6, 271560, Note_off_c, 5, 55, 0
6, 271560, Note_on_c, 5, 57, 80
6, 271680, Note_off_c, 5, 57, 0
6, 271680, Note_on_c, 5, 58, 80
6, 271800, Note_off_c, 5, 58, 0
6, 271800, Note_on_c, 5, 60, 80
6, 271920, Note_off_c, 5, 60, 0
6, 271920, Note_on_c, 5, 62, 81
6, 272040, Note_off_c, 5, 62, 0
6, 272040, Note_on_c, 5, 64, 81
6, 272160, Note_off_c, 5, 64, 0
6, 272160, Note_on_c, 5, 65, 81
6, 272400, Note_off_c, 5, 65, 0
6, 272400, Note_on_c, 5, 58, 79
6, 272640, Note_off_c, 5, 58, 0
6, 272640, Note_on_c, 5, 60, 78
6, 273067, Note_off_c, 5, 60, 0
6, 273120, Note_on_c, 5, 48, 74
6, 273540, Note_off_c, 5, 48, 0
6, 273600, Note_on_c, 5, 53, 72
6, 274035, Note_off_c, 5, 53, 0
6, 276600, Note_on_c, 5, 46, 84
6, 276720, Note_off_c, 5, 46, 0
6, 276720, Note_on_c, 5, 48, 84
6, 276840, Note_off_c, 5, 48, 0
6, 276840, Note_on_c, 5, 50, 85
6, 276960, Note_off_c, 5, 50, 0
6, 276960, Note_on_c, 5, 51, 85
6, 277080, Note_off_c, 5, 51, 0
6, 277080, Note_on_c, 5, 53, 86
6, 277200, Note_off_c, 5, 53, 0
6, 277200, Note_on_c, 5, 55, 86
6, 277320, Note_off_c, 5, 55, 0
6, 277320, Note_on_c, 5, 57, 87
6, 277440, Note_off_c, 5, 57, 0
6, 277440, Note_on_c, 5, 58, 87
6, 277560, Note_off_c, 5, 58, 0
6, 277560, Note_on_c, 5, 60, 88
6, 277680, Note_off_c, 5, 60, 0
6, 277680, Note_on_c, 5, 62, 88
6, 277800, Note_off_c, 5, 62, 0
6, 277800, Note_on_c, 5, 64, 88
6, 277920, Note_off_c, 5, 64, 0
6, 277920, Note_on_c, 5, 65, 89
6, 278112, Note_off_c, 5, 65, 0
6, 278160, Note_on_c, 5, 58, 88
6, 278352, Note_off_c, 5, 58, 0
6, 278400, Note_on_c, 5, 60, 87
6, 278820, Note_off_c, 5, 60, 0
6, 278880, Note_on_c, 5, 48, 85
6, 279307, Note_off_c, 5, 48, 0
6, 279360, Note_on_c, 5, 53, 84
6, 279795, Note_off_c, 5, 53, 0
6, 280320, Note_on_c, 5, 60, 89
6, 280740, Note_off_c, 5, 60, 0
6, 280800, Note_on_c, 5, 65, 91
6, 281220, Note_off_c, 5, 65, 0
6, 281760, Note_on_c, 5, 60, 96
6, 282187, Note_off_c, 5, 60, 0
6, 282240, Note_on_c, 5, 65, 99
6, 282600, Note_off_c, 5, 65, 0
6, 282720, Note_on_c, 5, 53, 96
6, 282720, Note_on_c, 5, 41, 96
6, 283080, Note_off_c, 5, 41, 0
6, 283087, Note_off_c, 5, 53, 0
6, 284640, Note_on_c, 5, 62, 59
6, 284784, Note_off_c, 5, 62, 0
6, 284880, Note_on_c, 5, 62, 57
6, 285024, Note_off_c, 5, 62, 0
6, 285120, Note_on_c, 5, 58, 55
6, 285264, Note_off_c, 5, 58, 0
6, 285600, Note_on_c, 5, 60, 52
6, 285744, Note_off_c, 5, 60, 0
6, 285840, Note_on_c, 5, 60, 50
6, 285984, Note_off_c, 5, 60, 0
6, 286080, Note_on_c, 5, 57, 48
6, 286224, Note_off_c, 5, 57, 0
6, 286560, Note_on_c, 5, 58, 77
6, 287280, Note_off_c, 5, 58, 0
6, 287280, Note_on_c, 5, 55, 69
6, 287520, Note_off_c, 5, 55, 0
6, 287520, Note_on_c, 5, 60, 66
6, 287760, Note_off_c, 5, 60, 0
6, 288480, Note_on_c, 5, 62, 47
6, 288624, Note_off_c, 5, 62, 0
6, 288720, Note_on_c, 5, 62, 45
6, 288864, Note_off_c, 5, 62, 0
6, 288960, Note_on_c, 5, 55, 44
6, 289104, Note_off_c, 5, 55, 0
6, 289440, Note_on_c, 5, 60, 41
6, 289584, Note_off_c, 5, 60, 0
6, 289680, Note_on_c, 5, 60, 39
6, 289824, Note_off_c, 5, 60, 0
6, 289920, Note_on_c, 5, 53, 37
6, 290064, Note_off_c, 5, 53, 0
6, 290400, Note_on_c, 5, 58, 73
6, 291120, Note_off_c, 5, 58, 0
6, 291120, Note_on_c, 5, 60, 63
6, 291360, Note_off_c, 5, 60, 0
6, 291360, Note_on_c, 5, 65, 59
6, 291516, Note_off_c, 5, 65, 0
6, 291600, Note_on_c, 5, 53, 56
6, 291756, Note_off_c, 5, 53, 0
6, 295200, Note_on_c, 5, 55, 63
6, 295390, Note_off_c, 5, 55, 0
6, 296160, Note_on_c, 5, 57, 54
6, 296315, Note_off_c, 5, 57, 0
6, 296400, Note_on_c, 5, 57, 53
6, 296555, Note_off_c, 5, 57, 0
6, 296640, Note_on_c, 5, 53, 52
6, 296795, Note_off_c, 5, 53, 0
6, 297120, Note_on_c, 5, 55, 51
6, 297275, Note_off_c, 5, 55, 0
6, 297360, Note_on_c, 5, 55, 50
6, 297515, Note_off_c, 5, 55, 0
6, 297600, Note_on_c, 5, 52, 50
6, 297755, Note_off_c, 5, 52, 0
6, 298080, Note_on_c, 5, 53, 78
6, 298560, Note_off_c, 5, 53, 0
6, 298560, Note_on_c, 5, 55, 71
6, 299040, Note_off_c, 5, 55, 0
6, 299040, Note_on_c, 5, 60, 64
6, 299196, Note_off_c, 5, 60, 0
6, 299280, Note_on_c, 5, 48, 64
6, 299448, Note_off_c, 5, 48, 0
6, 300000, Note_on_c, 5, 60, 55
6, 300156, Note_off_c, 5, 60, 0
6, 300240, Note_on_c, 5, 48, 49
6, 300408, Note_off_c, 5, 48, 0
6, 300960, Note_on_c, 5, 60, 72
6, 301116, Note_off_c, 5, 60, 0
6, 301200, Note_on_c, 5, 48, 68
6, 301368, Note_off_c, 5, 48, 0
6, 303840, Note_on_c, 5, 62, 60
6, 303995, Note_off_c, 5, 62, 0
6, 304080, Note_on_c, 5, 62, 60
6, 304235, Note_off_c, 5, 62, 0
6, 304320, Note_on_c, 5, 58, 59
6, 304475, Note_off_c, 5, 58, 0
6, 304800, Note_on_c, 5, 60, 58
6, 304955, Note_off_c, 5, 60, 0
6, 305040, Note_on_c, 5, 60, 58
6, 305195, Note_off_c, 5, 60, 0
6, 305280, Note_on_c, 5, 57, 58
6, 305435, Note_off_c, 5, 57, 0
6, 305760, Note_on_c, 5, 58, 83
6, 306480, Note_off_c, 5, 58, 0
6, 306480, Note_on_c, 5, 55, 77
6, 306720, Note_off_c, 5, 55, 0
6, 306720, Note_on_c, 5, 60, 75
6, 306960, Note_off_c, 5, 60, 0
6, 307680, Note_on_c, 5, 62, 56
6, 307835, Note_off_c, 5, 62, 0
6, 307920, Note_on_c, 5, 62, 55
6, 308075, Note_off_c, 5, 62, 0
6, 308160, Note_on_c, 5, 55, 54
6, 308315, Note_off_c, 5, 55, 0
6, 308640, Note_on_c, 5, 60, 53
6, 308795, Note_off_c, 5, 60, 0
6, 308880, Note_on_c, 5, 60, 52
6, 309035, Note_off_c, 5, 60, 0
6, 309120, Note_on_c, 5, 53, 51
6, 309275, Note_off_c, 5, 53, 0
6, 309600, Note_on_c, 5, 58, 77
6, 310320, Note_off_c, 5, 58, 0
6, 310320, Note_on_c, 5, 60, 69
6, 310476, Note_off_c, 5, 60, 0
6, 310560, Note_on_c, 5, 65, 66
6, 310715, Note_off_c, 5, 65, 0
6, 310800, Note_on_c, 5, 53, 57
6, 310955, Note_off_c, 5, 53, 0
6, 311040, Note_on_c, 5, 65, 57
6, 311195, Note_off_c, 5, 65, 0
6, 311280, Note_on_c, 5, 65, 57
6, 311435, Note_off_c, 5, 65, 0
6, 311520, Note_on_c, 5, 62, 57
6, 311675, Note_off_c, 5, 62, 0
6, 312000, Note_on_c, 5, 64, 55
6, 312155, Note_off_c, 5, 64, 0
6, 312240, Note_on_c, 5, 64, 55
6, 312395, Note_off_c, 5, 64, 0
6, 312480, Note_on_c, 5, 61, 55
6, 312635, Note_off_c, 5, 61, 0
6, 313440, Note_on_c, 5, 69, 53
6, 313560, Note_off_c, 5, 69, 0
6, 313560, Note_on_c, 5, 68, 51
6, 313680, Note_off_c, 5, 68, 0
6, 313680, Note_on_c, 5, 70, 49
6, 313800, Note_off_c, 5, 70, 0
6, 313800, Note_on_c, 5, 69, 46
6, 313920, Note_off_c, 5, 69, 0
6, 314400, Note_on_c, 5, 69, 51
6, 314520, Note_off_c, 5, 69, 0
6, 314520, Note_on_c, 5, 68, 49
6, 314640, Note_off_c, 5, 68, 0
6, 314640, Note_on_c, 5, 70, 47
6, 314760, Note_off_c, 5, 70, 0
6, 314760, Note_on_c, 5, 69, 44
6, 314880, Note_off_c, 5, 69, 0
6, 315120, Note_on_c, 5, 65, 68
6, 315360, Note_on_c, 5, 67, 75
6, 315367, Note_off_c, 5, 65, 0
6, 315840, Note_off_c, 5, 67, 0
6, 315840, Note_on_c, 5, 69, 79
6, 316320, Note_off_c, 5, 69, 0
6, 316320, Note_on_c, 5, 70, 84
6, 316560, Note_off_c, 5, 70, 0
6, 316560, Note_on_c, 5, 66, 86
6, 316800, Note_off_c, 5, 66, 0
6, 316800, Note_on_c, 5, 67, 90
6, 317040, Note_off_c, 5, 67, 0
6, 317040, Note_on_c, 5, 69, 92
6, 317280, Note_off_c, 5, 69, 0
6, 317280, Note_on_c, 5, 70, 96
6, 317520, Note_off_c, 5, 70, 0
6, 317760, Note_on_c, 5, 46, 91
6, 318000, Note_off_c, 5, 46, 0
6, 318240, Note_on_c, 5, 45, 83
6, 318960, Note_off_c, 5, 45, 0
6, 319200, Note_on_c, 5, 45, 81
6, 319920, Note_off_c, 5, 45, 0
6, 320160, Note_on_c, 5, 45, 78
6, 320880, Note_off_c, 5, 45, 0
6, 321120, Note_on_c, 5, 45, 75
6, 321840, Note_off_c, 5, 45, 0
6, 322080, Note_on_c, 5, 45, 72
6, 322270, Note_off_c, 5, 45, 0
6, 323040, Note_on_c, 5, 69, 64
6, 323160, Note_off_c, 5, 69, 0
6, 323160, Note_on_c, 5, 68, 62
6, 323280, Note_off_c, 5, 68, 0
6, 323280, Note_on_c, 5, 70, 59
6, 323400, Note_off_c, 5, 70, 0
6, 323400, Note_on_c, 5, 69, 57
6, 323520, Note_off_c, 5, 69, 0
6, 324000, Note_on_c, 5, 69, 59
6, 324120, Note_off_c, 5, 69, 0
6, 324120, Note_on_c, 5, 68, 58
6, 324240, Note_off_c, 5, 68, 0
6, 324240, Note_on_c, 5, 70, 57
6, 324360, Note_off_c, 5, 70, 0
6, 324360, Note_on_c, 5, 69, 56
6, 324480, Note_off_c, 5, 69, 0
6, 324480, Note_on_c, 5, 57, 59
6, 324635, Note_off_c, 5, 57, 0
6, 324720, Note_on_c, 5, 57, 58
6, 324875, Note_off_c, 5, 57, 0
6, 324960, Note_on_c, 5, 53, 59
6, 325115, Note_off_c, 5, 53, 0
6, 325440, Note_on_c, 5, 55, 57
6, 325595, Note_off_c, 5, 55, 0
6, 325680, Note_on_c, 5, 55, 56
6, 325835, Note_off_c, 5, 55, 0
6, 325920, Note_on_c, 5, 52, 54
6, 326075, Note_off_c, 5, 52, 0
6, 326400, Note_on_c, 5, 61, 57
6, 326880, Note_off_c, 5, 61, 0
6, 326880, Note_on_c, 5, 62, 60
6, 327070, Note_off_c, 5, 62, 0
6, 327120, Note_on_c, 5, 64, 59
6, 327310, Note_off_c, 5, 64, 0
6, 327360, Note_on_c, 5, 65, 60
6, 327550, Note_off_c, 5, 65, 0
6, 327600, Note_on_c, 5, 66, 61
6, 327790, Note_off_c, 5, 66, 0
6, 327840, Note_on_c, 5, 67, 60
6, 328030, Note_off_c, 5, 67, 0
6, 328080, Note_on_c, 5, 69, 59
6, 328270, Note_off_c, 5, 69, 0
6, 328320, Note_on_c, 5, 70, 57
6, 328510, Note_off_c, 5, 70, 0
6, 328560, Note_on_c, 5, 69, 58
6, 328750, Note_off_c, 5, 69, 0
6, 328800, Note_on_c, 5, 67, 56
6, 329040, Note_off_c, 5, 67, 0
6, 329280, Note_on_c, 5, 57, 50
6, 329760, Note_off_c, 5, 57, 0
6, 329760, Note_on_c, 5, 62, 48
6, 330120, Note_off_c, 5, 62, 0
6, 330240, Note_on_c, 5, 57, 50
6, 330600, Note_off_c, 5, 57, 0
6, 330720, Note_on_c, 5, 62, 52
6, 331080, Note_off_c, 5, 62, 0
6, 331200, Note_on_c, 5, 57, 54
6, 331560, Note_off_c, 5, 57, 0
6, 331680, Note_on_c, 5, 62, 55
6, 332040, Note_off_c, 5, 62, 0
6, 332160, Note_on_c, 5, 57, 58
6, 332520, Note_off_c, 5, 57, 0
6, 332640, Note_on_c, 5, 62, 63
6, 333000, Note_off_c, 5, 62, 0
6, 333120, Note_on_c, 5, 60, 73
6, 333480, Note_off_c, 5, 60, 0
6, 334560, Note_on_c, 5, 62, 68
6, 334715, Note_off_c, 5, 62, 0
6, 334800, Note_on_c, 5, 62, 67
6, 334955, Note_off_c, 5, 62, 0
6, 335040, Note_on_c, 5, 58, 66
6, 335195, Note_off_c, 5, 58, 0
6, 335520, Note_on_c, 5, 60, 65
6, 335675, Note_off_c, 5, 60, 0
6, 335760, Note_on_c, 5, 60, 64
6, 335915, Note_off_c, 5, 60, 0
6, 336000, Note_on_c, 5, 57, 64
6, 336155, Note_off_c, 5, 57, 0
6, 336480, Note_on_c, 5, 58, 85
6, 337200, Note_off_c, 5, 58, 0
6, 337200, Note_on_c, 5, 55, 79
6, 337440, Note_off_c, 5, 55, 0
6, 337440, Note_on_c, 5, 60, 78
6, 337680, Note_off_c, 5, 60, 0
6, 338400, Note_on_c, 5, 62, 62
6, 338555, Note_off_c, 5, 62, 0
6, 338640, Note_on_c, 5, 62, 61
6, 338795, Note_off_c, 5, 62, 0
6, 338880, Note_on_c, 5, 55, 60
6, 339035, Note_off_c, 5, 55, 0
6, 339360, Note_on_c, 5, 60, 59
6, 339515, Note_off_c, 5, 60, 0
6, 339600, Note_on_c, 5, 60, 58
6, 339755, Note_off_c, 5, 60, 0
6, 339840, Note_on_c, 5, 53, 59
6, 339995, Note_off_c, 5, 53, 0
6, 340320, Note_on_c, 5, 58, 81
6, 341040, Note_off_c, 5, 58, 0
6, 341040, Note_on_c, 5, 60, 73
6, 341280, Note_off_c, 5, 60, 0
6, 341280, Note_on_c, 5, 65, 70
6, 341435, Note_off_c, 5, 65, 0
6, 341520, Note_on_c, 5, 53, 68
6, 341675, Note_off_c, 5, 53, 0
6, 348960, Note_on_c, 5, 53, 80
6, 349200, Note_off_c, 5, 53, 0
6, 350400, Note_on_c, 5, 48, 93
6, 350520, Note_off_c, 5, 48, 0
6, 350640, Note_on_c, 5, 48, 96
6, 350760, Note_off_c, 5, 48, 0
6, 350880, Note_on_c, 5, 53, 98
6, 351360, Note_off_c, 5, 53, 0
6, 352320, Note_on_c, 5, 48, 112
6, 352440, Note_off_c, 5, 48, 0
6, 352560, Note_on_c, 5, 48, 114
6, 352680, Note_off_c, 5, 48, 0
6, 352800, Note_on_c, 5, 53, 116
6, 352980, Note_off_c, 5, 53, 0
6, 353280, Note_on_c, 5, 57, 51
6, 353376, Note_off_c, 5, 57, 0
6, 353520, Note_on_c, 5, 57, 49
6, 353616, Note_off_c, 5, 57, 0
6, 353760, Note_on_c, 5, 53, 47
6, 353928, Note_off_c, 5, 53, 0
6, 355200, Note_on_c, 5, 53, 120
6, 355200, Note_on_c, 5, 65, 120
6, 355560, Note_off_c, 5, 65, 0
6, 355560, Note_off_c, 5, 53, 0
6, 355680, Note_on_c, 5, 41, 121
6, 355680, Note_on_c, 5, 29, 121
6, 356160, Note_off_c, 5, 29, 0
6, 356160, Note_off_c, 5, 41, 0
6, 356160, End_track
0, 0, End_of_file
