0, 0, Header, 0, 1, 480
1, 0, Start_track
1, 0, Title_t, ""
1, 0, Text_t, ""
1, 0, Time_signature, 3, 2, 24, 8
1, 0, Key_signature, -1, "major"
1, 0, Tempo, 461538
1, 0, Control_c, 0, 0, 0
1, 0, Control_c, 0, 32, 0
1, 0, Program_c, 0, 0
1, 0, Control_c, 0, 91, 120
1, 0, Control_c, 0, 94, 30
1, 0, Control_c, 0, 64, 80
1, 0, Control_c, 0, 67, 70
1, 0, Control_c, 0, 10, 72
1, 0, Control_c, 1, 0, 0
1, 0, Control_c, 1, 32, 0
1, 0, Program_c, 1, 0
1, 0, Control_c, 1, 91, 120
1, 0, Control_c, 1, 94, 30
1, 0, Control_c, 1, 64, 80
1, 0, Control_c, 1, 67, 70
1, 0, Control_c, 1, 10, 56
1, 30, Control_c, 0, 91, 120
1, 30, Control_c, 0, 64, 80
1, 30, Control_c, 0, 67, 70
1, 30, Control_c, 0, 10, 72
1, 30, Control_c, 1, 91, 120
1, 30, Control_c, 1, 64, 80
1, 30, Control_c, 1, 67, 70
1, 30, Control_c, 1, 10, 56
1, 60, Control_c, 0, 91, 120
1, 60, Control_c, 0, 64, 80
1, 60, Control_c, 0, 10, 72
1, 60, Control_c, 1, 64, 80
1, 60, Control_c, 1, 10, 56
1, 86, Control_c, 0, 91, 120
1, 90, Control_c, 0, 10, 72
1, 90, Control_c, 1, 10, 56
1, 120, Control_c, 0, 10, 72
1, 120, Control_c, 1, 10, 56
1, 150, Control_c, 0, 10, 72
1, 150, Control_c, 1, 10, 56
1, 180, Control_c, 0, 10, 72
1, 180, Control_c, 1, 10, 56
1, 210, Control_c, 0, 10, 72
1, 210, Control_c, 1, 10, 56
1, 240, Control_c, 0, 10, 72
1, 240, Control_c, 1, 10, 56
1, 270, Control_c, 0, 10, 72
1, 270, Control_c, 1, 10, 56
1, 300, Control_c, 0, 10, 72
1, 300, Control_c, 1, 10, 56
1, 330, Control_c, 0, 10, 72
1, 330, Control_c, 1, 10, 56
1, 360, Control_c, 0, 10, 72
1, 360, Control_c, 1, 10, 56
1, 390, Control_c, 0, 10, 72
1, 390, Control_c, 1, 10, 56
1, 420, Control_c, 0, 10, 72
1, 420, Control_c, 1, 10, 56
1, 450, Control_c, 0, 10, 72
1, 450, Control_c, 1, 10, 56
1, 480, Control_c, 0, 10, 72
1, 480, Control_c, 1, 10, 56
1, 510, Control_c, 0, 10, 72
1, 510, Control_c, 1, 10, 56
1, 540, Control_c, 0, 10, 72
1, 540, Control_c, 1, 10, 56
1, 570, Control_c, 0, 10, 72
1, 570, Control_c, 1, 10, 56
1, 600, Control_c, 0, 10, 72
1, 600, Control_c, 1, 10, 56
1, 630, Control_c, 0, 10, 72
1, 630, Control_c, 1, 10, 56
1, 660, Control_c, 0, 10, 72
1, 660, Control_c, 1, 10, 56
1, 690, Control_c, 0, 10, 72
1, 690, Control_c, 1, 10, 56
1, 720, Control_c, 0, 10, 72
1, 720, Control_c, 1, 10, 56
1, 750, Control_c, 0, 10, 72
1, 750, Control_c, 1, 10, 56
1, 780, Control_c, 0, 10, 72
1, 780, Control_c, 1, 10, 56
1, 810, Control_c, 0, 10, 72
1, 810, Control_c, 1, 10, 56
1, 840, Control_c, 0, 10, 72
1, 840, Control_c, 1, 10, 56
1, 870, Control_c, 0, 10, 72
1, 870, Control_c, 1, 10, 56
1, 900, Control_c, 0, 10, 72
1, 900, Control_c, 1, 10, 56
1, 930, Control_c, 0, 10, 72
1, 930, Control_c, 1, 10, 56
1, 960, Control_c, 0, 10, 72
1, 960, Control_c, 1, 10, 56
1, 990, Control_c, 0, 10, 72
1, 990, Control_c, 1, 10, 56
1, 1020, Control_c, 0, 10, 72
1, 1020, Control_c, 1, 10, 56
1, 1050, Control_c, 0, 10, 72
1, 1050, Control_c, 1, 10, 56
1, 1080, Control_c, 0, 10, 72
1, 1080, Control_c, 1, 10, 56
1, 1110, Control_c, 0, 10, 72
1, 1110, Control_c, 1, 10, 56
1, 1140, Control_c, 0, 10, 72
1, 1140, Control_c, 1, 10, 56
1, 1170, Control_c, 0, 10, 72
1, 1170, Control_c, 1, 10, 56
1, 1200, Control_c, 0, 10, 72
1, 1200, Control_c, 1, 10, 56
1, 1230, Control_c, 0, 10, 72
1, 1230, Control_c, 1, 10, 56
1, 1260, Control_c, 0, 10, 72
1, 1260, Control_c, 1, 10, 56
1, 1290, Control_c, 0, 10, 72
1, 1290, Control_c, 1, 10, 56
1, 1320, Control_c, 0, 10, 72
1, 1320, Control_c, 1, 10, 56
1, 1350, Control_c, 0, 10, 72
1, 1350, Control_c, 1, 10, 56
1, 1380, Control_c, 0, 10, 72
1, 1380, Control_c, 1, 10, 56
1, 1410, Control_c, 0, 10, 72
1, 1410, Control_c, 1, 10, 56
1, 1440, Time_signature, 4, 2, 24, 8
1, 1440, Key_signature, -2, "major"
1, 1440, Tempo, 1090909
1, 1440, Note_on_c, 0, 70, 80
1, 1440, Note_on_c, 1, 58, 80
1, 1548, Note_on_c, 1, 58, 0
1, 1560, Note_on_c, 1, 65, 80
1, 1668, Note_on_c, 1, 65, 0
1, 1680, Note_on_c, 1, 62, 80
1, 1788, Note_on_c, 1, 62, 0
1, 1800, Note_on_c, 1, 65, 80
1, 1872, Note_on_c, 0, 70, 0
1, 1908, Note_on_c, 1, 65, 0
1, 1920, Note_on_c, 0, 74, 80
1, 1920, Note_on_c, 1, 58, 80
1, 2028, Note_on_c, 0, 74, 0
1, 2028, Note_on_c, 1, 58, 0
1, 2040, Note_on_c, 0, 74, 80
1, 2040, Note_on_c, 1, 65, 80
1, 2067, Note_on_c, 0, 74, 0
1, 2070, Note_on_c, 0, 75, 80
1, 2097, Note_on_c, 0, 75, 0
1, 2100, Note_on_c, 0, 74, 80
1, 2127, Note_on_c, 0, 74, 0
1, 2130, Note_on_c, 0, 72, 80
1, 2148, Note_on_c, 1, 65, 0
1, 2157, Note_on_c, 0, 72, 0
1, 2160, Note_on_c, 0, 74, 80
1, 2160, Note_on_c, 1, 62, 80
1, 2268, Note_on_c, 0, 74, 0
1, 2268, Note_on_c, 1, 62, 0
1, 2280, Note_on_c, 0, 75, 80
1, 2280, Note_on_c, 1, 65, 80
1, 2388, Note_on_c, 0, 75, 0
1, 2388, Note_on_c, 1, 65, 0
1, 2400, Note_on_c, 0, 76, 80
1, 2400, Note_on_c, 1, 57, 80
1, 2508, Note_on_c, 1, 57, 0
1, 2520, Note_on_c, 1, 65, 80
1, 2628, Note_on_c, 1, 65, 0
1, 2640, Note_on_c, 1, 60, 80
1, 2724, Note_on_c, 0, 76, 0
1, 2748, Note_on_c, 1, 60, 0
1, 2760, Note_on_c, 0, 77, 80
1, 2760, Note_on_c, 1, 65, 80
1, 2868, Note_on_c, 0, 77, 0
1, 2868, Note_on_c, 1, 65, 0
1, 2880, Note_on_c, 0, 72, 80
1, 2880, Note_on_c, 1, 57, 80
1, 2988, Note_on_c, 1, 57, 0
1, 3000, Note_on_c, 1, 65, 80
1, 3096, Note_on_c, 0, 72, 0
1, 3108, Note_on_c, 1, 65, 0
1, 3120, Note_on_c, 1, 60, 80
1, 3228, Note_on_c, 1, 60, 0
1, 3240, Note_on_c, 1, 65, 80
1, 3348, Note_on_c, 1, 65, 0
1, 3360, Note_on_c, 0, 75, 80
1, 3360, Note_on_c, 1, 55, 79
1, 3468, Note_on_c, 0, 75, 0
1, 3468, Note_on_c, 1, 55, 0
1, 3480, Note_on_c, 0, 75, 79
1, 3480, Note_on_c, 1, 63, 79
1, 3507, Note_on_c, 0, 75, 0
1, 3510, Note_on_c, 0, 77, 79
1, 3537, Note_on_c, 0, 77, 0
1, 3540, Note_on_c, 0, 75, 79
1, 3567, Note_on_c, 0, 75, 0
1, 3570, Note_on_c, 0, 74, 79
1, 3588, Note_on_c, 1, 63, 0
1, 3597, Note_on_c, 0, 74, 0
1, 3600, Note_on_c, 0, 75, 84
1, 3600, Note_on_c, 1, 58, 79
1, 3708, Note_on_c, 0, 75, 0
1, 3708, Note_on_c, 1, 58, 0
1, 3720, Note_on_c, 0, 77, 84
1, 3720, Note_on_c, 1, 63, 83
1, 3828, Note_on_c, 0, 77, 0
1, 3828, Note_on_c, 1, 63, 0
1, 3840, Note_on_c, 0, 79, 84
1, 3840, Note_on_c, 1, 51, 84
1, 3948, Note_on_c, 0, 79, 0
1, 3948, Note_on_c, 1, 51, 0
1, 3960, Note_on_c, 0, 79, 81
1, 3960, Note_on_c, 1, 58, 80
1, 3987, Note_on_c, 0, 79, 0
1, 3990, Note_on_c, 0, 81, 81
1, 4017, Note_on_c, 0, 81, 0
1, 4020, Note_on_c, 0, 79, 81
1, 4047, Note_on_c, 0, 79, 0
1, 4050, Note_on_c, 0, 77, 82
1, 4068, Note_on_c, 1, 58, 0
1, 4077, Note_on_c, 0, 77, 0
1, 4080, Note_on_c, 0, 79, 85
1, 4080, Note_on_c, 1, 55, 81
1, 4188, Note_on_c, 0, 79, 0
1, 4188, Note_on_c, 1, 55, 0
1, 4200, Note_on_c, 0, 81, 85
1, 4200, Note_on_c, 1, 58, 84
1, 4308, Note_on_c, 0, 81, 0
1, 4308, Note_on_c, 1, 58, 0
1, 4320, Note_on_c, 0, 81, 85
1, 4320, Note_on_c, 1, 50, 84
1, 4428, Note_on_c, 1, 50, 0
1, 4440, Note_on_c, 1, 58, 84
1, 4548, Note_on_c, 1, 58, 0
1, 4560, Note_on_c, 1, 53, 84
1, 4644, Note_on_c, 0, 81, 0
1, 4668, Note_on_c, 1, 53, 0
1, 4680, Note_on_c, 0, 82, 85
1, 4680, Note_on_c, 1, 58, 84
1, 4788, Note_on_c, 0, 82, 0
1, 4788, Note_on_c, 1, 58, 0
1, 4800, Note_on_c, 0, 77, 85
1, 4800, Note_on_c, 1, 50, 84
1, 4908, Note_on_c, 1, 50, 0
1, 4920, Note_on_c, 1, 58, 84
1, 5016, Note_on_c, 0, 77, 0
1, 5028, Note_on_c, 1, 58, 0
1, 5040, Note_on_c, 1, 53, 80
1, 5148, Note_on_c, 1, 53, 0
1, 5160, Note_on_c, 1, 58, 80
1, 5268, Note_on_c, 1, 58, 0
1, 5280, Note_on_c, 0, 79, 80
1, 5280, Note_on_c, 1, 51, 80
1, 5388, Note_on_c, 1, 51, 0
1, 5400, Note_on_c, 1, 55, 80
1, 5508, Note_on_c, 1, 55, 0
1, 5520, Note_on_c, 1, 51, 80
1, 5604, Note_on_c, 0, 79, 0
1, 5628, Note_on_c, 1, 51, 0
1, 5640, Note_on_c, 0, 80, 80
1, 5640, Note_on_c, 1, 59, 80
1, 5694, Note_on_c, 0, 80, 0
1, 5700, Note_on_c, 0, 79, 80
1, 5748, Note_on_c, 1, 59, 0
1, 5754, Note_on_c, 0, 79, 0
1, 5760, Note_on_c, 0, 77, 80
1, 5760, Note_on_c, 1, 51, 80
1, 5868, Note_on_c, 0, 77, 0
1, 5868, Note_on_c, 1, 51, 0
1, 5880, Note_on_c, 0, 75, 80
1, 5880, Note_on_c, 1, 60, 80
1, 5988, Note_on_c, 0, 75, 0
1, 5988, Note_on_c, 1, 60, 0
1, 6000, Note_on_c, 0, 74, 80
1, 6000, Note_on_c, 1, 51, 80
1, 6108, Note_on_c, 0, 74, 0
1, 6108, Note_on_c, 1, 51, 0
1, 6120, Note_on_c, 0, 72, 80
1, 6120, Note_on_c, 1, 63, 80
1, 6228, Note_on_c, 0, 72, 0
1, 6228, Note_on_c, 1, 63, 0
1, 6240, Note_on_c, 0, 76, 80
1, 6240, Note_on_c, 1, 50, 80
1, 6348, Note_on_c, 0, 76, 0
1, 6348, Note_on_c, 1, 50, 0
1, 6360, Note_on_c, 0, 77, 80
1, 6360, Note_on_c, 1, 53, 80
1, 6468, Note_on_c, 1, 53, 0
1, 6480, Note_on_c, 1, 50, 80
1, 6576, Note_on_c, 0, 77, 0
1, 6588, Note_on_c, 1, 50, 0
1, 6600, Note_on_c, 0, 79, 80
1, 6600, Note_on_c, 1, 57, 80
1, 6654, Note_on_c, 0, 79, 0
1, 6660, Note_on_c, 0, 77, 80
1, 6708, Note_on_c, 1, 57, 0
1, 6714, Note_on_c, 0, 77, 0
1, 6720, Note_on_c, 0, 75, 80
1, 6720, Note_on_c, 1, 50, 80
1, 6828, Note_on_c, 0, 75, 0
1, 6828, Note_on_c, 1, 50, 0
1, 6840, Note_on_c, 0, 74, 80
1, 6840, Note_on_c, 1, 58, 80
1, 6948, Note_on_c, 0, 74, 0
1, 6948, Note_on_c, 1, 58, 0
1, 6960, Note_on_c, 0, 72, 80
1, 6960, Note_on_c, 1, 50, 80
1, 7068, Note_on_c, 0, 72, 0
1, 7068, Note_on_c, 1, 50, 0
1, 7080, Note_on_c, 0, 70, 80
1, 7080, Note_on_c, 1, 62, 80
1, 7188, Note_on_c, 0, 70, 0
1, 7188, Note_on_c, 1, 62, 0
1, 7200, Note_on_c, 0, 77, 86
1, 7200, Note_on_c, 1, 57, 84
1, 7308, Note_on_c, 0, 77, 0
1, 7308, Note_on_c, 1, 57, 0
1, 7320, Note_on_c, 0, 75, 80
1, 7320, Note_on_c, 1, 65, 80
1, 7428, Note_on_c, 1, 65, 0
1, 7440, Note_on_c, 1, 60, 80
1, 7536, Note_on_c, 0, 75, 0
1, 7548, Note_on_c, 1, 60, 0
1, 7560, Note_on_c, 0, 72, 80
1, 7560, Note_on_c, 1, 65, 80
1, 7668, Note_on_c, 0, 72, 0
1, 7668, Note_on_c, 1, 65, 0
1, 7680, Note_on_c, 0, 75, 87
1, 7680, Note_on_c, 1, 58, 84
1, 7788, Note_on_c, 0, 75, 0
1, 7788, Note_on_c, 1, 58, 0
1, 7800, Note_on_c, 0, 74, 80
1, 7800, Note_on_c, 1, 65, 80
1, 7908, Note_on_c, 1, 65, 0
1, 7920, Note_on_c, 1, 62, 80
1, 8016, Note_on_c, 0, 74, 0
1, 8028, Note_on_c, 1, 62, 0
1, 8040, Note_on_c, 0, 70, 80
1, 8040, Note_on_c, 1, 65, 80
1, 8148, Note_on_c, 0, 70, 0
1, 8148, Note_on_c, 1, 65, 0
1, 8160, Note_on_c, 0, 74, 80
1, 8160, Note_on_c, 1, 53, 80
1, 8268, Note_on_c, 1, 53, 0
1, 8280, Note_on_c, 1, 62, 80
1, 8388, Note_on_c, 1, 62, 0
1, 8400, Note_on_c, 1, 58, 80
1, 8484, Note_on_c, 0, 74, 0
1, 8508, Note_on_c, 1, 58, 0
1, 8520, Note_on_c, 0, 75, 80
1, 8520, Note_on_c, 1, 62, 80
1, 8574, Note_on_c, 0, 75, 0
1, 8580, Note_on_c, 0, 74, 80
1, 8628, Note_on_c, 1, 62, 0
1, 8634, Note_on_c, 0, 74, 0
1, 8640, Note_on_c, 0, 72, 80
1, 8640, Note_on_c, 1, 60, 80
1, 8640, Note_on_c, 1, 53, 80
1, 8640, Note_on_c, 1, 57, 80
1, 8748, Note_on_c, 0, 72, 0
1, 8760, Note_on_c, 0, 77, 80
1, 8856, Note_on_c, 1, 60, 0
1, 8856, Note_on_c, 1, 53, 0
1, 8856, Note_on_c, 1, 57, 0
1, 8868, Note_on_c, 0, 77, 0
1, 8880, Note_on_c, 0, 75, 80
1, 8988, Note_on_c, 0, 75, 0
1, 9000, Note_on_c, 0, 72, 80
1, 9108, Note_on_c, 0, 72, 0
1, 9120, Note_on_c, 0, 70, 80
1, 9120, Note_on_c, 1, 58, 80
1, 9228, Note_on_c, 0, 70, 0
1, 9228, Note_on_c, 1, 58, 0
1, 9240, Note_on_c, 0, 70, 80
1, 9240, Note_on_c, 1, 65, 80
1, 9267, Note_on_c, 0, 70, 0
1, 9270, Note_on_c, 0, 72, 80
1, 9297, Note_on_c, 0, 72, 0
1, 9300, Note_on_c, 0, 70, 80
1, 9327, Note_on_c, 0, 70, 0
1, 9330, Note_on_c, 0, 69, 80
1, 9348, Note_on_c, 1, 65, 0
1, 9357, Note_on_c, 0, 69, 0
1, 9360, Note_on_c, 0, 70, 80
1, 9360, Note_on_c, 1, 61, 80
1, 9468, Note_on_c, 0, 70, 0
1, 9468, Note_on_c, 1, 61, 0
1, 9480, Note_on_c, 0, 72, 80
1, 9480, Note_on_c, 1, 65, 80
1, 9588, Note_on_c, 0, 72, 0
1, 9588, Note_on_c, 1, 65, 0
1, 9600, Note_on_c, 0, 73, 80
1, 9600, Note_on_c, 1, 58, 80
1, 9708, Note_on_c, 0, 73, 0
1, 9708, Note_on_c, 1, 58, 0
1, 9720, Note_on_c, 0, 73, 80
1, 9720, Note_on_c, 1, 65, 80
1, 9747, Note_on_c, 0, 73, 0
1, 9750, Note_on_c, 0, 75, 80
1, 9777, Note_on_c, 0, 75, 0
1, 9780, Note_on_c, 0, 73, 80
1, 9807, Note_on_c, 0, 73, 0
1, 9810, Note_on_c, 0, 72, 80
1, 9828, Note_on_c, 1, 65, 0
1, 9837, Note_on_c, 0, 72, 0
1, 9840, Note_on_c, 0, 73, 80
1, 9840, Note_on_c, 1, 61, 80
1, 9948, Note_on_c, 0, 73, 0
1, 9948, Note_on_c, 1, 61, 0
1, 9960, Note_on_c, 0, 75, 80
1, 9960, Note_on_c, 1, 65, 80
1, 10068, Note_on_c, 0, 75, 0
1, 10068, Note_on_c, 1, 65, 0
1, 10080, Note_on_c, 0, 76, 80
1, 10080, Note_on_c, 1, 56, 80
1, 10188, Note_on_c, 1, 56, 0
1, 10200, Note_on_c, 1, 65, 80
1, 10308, Note_on_c, 1, 65, 0
1, 10320, Note_on_c, 1, 60, 80
1, 10404, Note_on_c, 0, 76, 0
1, 10428, Note_on_c, 1, 60, 0
1, 10440, Note_on_c, 0, 77, 80
1, 10440, Note_on_c, 1, 65, 80
1, 10548, Note_on_c, 0, 77, 0
1, 10548, Note_on_c, 1, 65, 0
1, 10560, Note_on_c, 0, 72, 80
1, 10560, Note_on_c, 1, 56, 80
1, 10668, Note_on_c, 1, 56, 0
1, 10680, Note_on_c, 1, 65, 80
1, 10776, Note_on_c, 0, 72, 0
1, 10788, Note_on_c, 1, 65, 0
1, 10800, Note_on_c, 1, 60, 80
1, 10908, Note_on_c, 1, 60, 0
1, 10920, Note_on_c, 1, 65, 80
1, 11028, Note_on_c, 1, 65, 0
1, 11040, Note_on_c, 0, 75, 83
1, 11040, Note_on_c, 1, 54, 82
1, 11148, Note_on_c, 0, 75, 0
1, 11148, Note_on_c, 1, 54, 0
1, 11160, Note_on_c, 0, 75, 79
1, 11160, Note_on_c, 1, 63, 79
1, 11187, Note_on_c, 0, 75, 0
1, 11190, Note_on_c, 0, 77, 79
1, 11217, Note_on_c, 0, 77, 0
1, 11220, Note_on_c, 0, 75, 79
1, 11247, Note_on_c, 0, 75, 0
1, 11250, Note_on_c, 0, 74, 79
1, 11268, Note_on_c, 1, 63, 0
1, 11277, Note_on_c, 0, 74, 0
1, 11280, Note_on_c, 0, 75, 82
1, 11280, Note_on_c, 1, 58, 79
1, 11388, Note_on_c, 0, 75, 0
1, 11388, Note_on_c, 1, 58, 0
1, 11400, Note_on_c, 0, 77, 82
1, 11400, Note_on_c, 1, 63, 84
1, 11508, Note_on_c, 0, 77, 0
1, 11508, Note_on_c, 1, 63, 0
1, 11520, Note_on_c, 0, 78, 83
1, 11520, Note_on_c, 1, 51, 84
1, 11628, Note_on_c, 0, 78, 0
1, 11628, Note_on_c, 1, 51, 0
1, 11640, Note_on_c, 0, 78, 81
1, 11640, Note_on_c, 1, 58, 80
1, 11667, Note_on_c, 0, 78, 0
1, 11670, Note_on_c, 0, 80, 81
1, 11697, Note_on_c, 0, 80, 0
1, 11700, Note_on_c, 0, 78, 81
1, 11727, Note_on_c, 0, 78, 0
1, 11730, Note_on_c, 0, 77, 81
1, 11748, Note_on_c, 1, 58, 0
1, 11757, Note_on_c, 0, 77, 0
1, 11760, Note_on_c, 0, 78, 85
1, 11760, Note_on_c, 1, 54, 81
1, 11868, Note_on_c, 0, 78, 0
1, 11868, Note_on_c, 1, 54, 0
1, 11880, Note_on_c, 0, 80, 85
1, 11880, Note_on_c, 1, 58, 86
1, 11988, Note_on_c, 0, 80, 0
1, 11988, Note_on_c, 1, 58, 0
1, 12000, Note_on_c, 0, 81, 85
1, 12000, Note_on_c, 1, 50, 86
1, 12108, Note_on_c, 1, 50, 0
1, 12120, Note_on_c, 1, 58, 86
1, 12228, Note_on_c, 1, 58, 0
1, 12240, Note_on_c, 1, 53, 86
1, 12324, Note_on_c, 0, 81, 0
1, 12348, Note_on_c, 1, 53, 0
1, 12360, Note_on_c, 0, 82, 85
1, 12360, Note_on_c, 1, 58, 86
1, 12468, Note_on_c, 0, 82, 0
1, 12468, Note_on_c, 1, 58, 0
1, 12480, Note_on_c, 0, 77, 85
1, 12480, Note_on_c, 1, 49, 86
1, 12588, Note_on_c, 1, 49, 0
1, 12600, Note_on_c, 1, 58, 86
1, 12696, Note_on_c, 0, 77, 0
1, 12708, Note_on_c, 1, 58, 0
1, 12720, Note_on_c, 1, 53, 80
1, 12828, Note_on_c, 1, 53, 0
1, 12840, Note_on_c, 1, 58, 80
1, 12900, Note_on_c, 0, 76, 80
1, 12948, Note_on_c, 1, 58, 0
1, 12954, Note_on_c, 0, 76, 0
1, 12960, Note_on_c, 0, 85, 86
1, 12960, Note_on_c, 1, 48, 85
1, 13068, Note_on_c, 1, 48, 0
1, 13080, Note_on_c, 1, 58, 80
1, 13188, Note_on_c, 1, 58, 0
1, 13200, Note_on_c, 1, 55, 80
1, 13308, Note_on_c, 1, 55, 0
1, 13320, Note_on_c, 1, 58, 80
1, 13392, Note_on_c, 0, 85, 0
1, 13428, Note_on_c, 1, 58, 0
1, 13440, Note_on_c, 0, 85, 80
1, 13440, Note_on_c, 1, 48, 80
1, 13548, Note_on_c, 0, 85, 0
1, 13548, Note_on_c, 1, 48, 0
1, 13560, Note_on_c, 0, 84, 80
1, 13560, Note_on_c, 1, 58, 80
1, 13614, Note_on_c, 0, 84, 0
1, 13620, Note_on_c, 0, 82, 80
1, 13668, Note_on_c, 1, 58, 0
1, 13680, Note_on_c, 0, 80, 80
1, 13680, Note_on_c, 1, 55, 80
1, 13728, Note_on_c, 0, 82, 0
1, 13734, Note_on_c, 0, 80, 0
1, 13740, Note_on_c, 0, 79, 80
1, 13788, Note_on_c, 1, 55, 0
1, 13800, Note_on_c, 0, 77, 80
1, 13800, Note_on_c, 1, 58, 80
1, 13848, Note_on_c, 0, 79, 0
1, 13854, Note_on_c, 0, 77, 0
1, 13860, Note_on_c, 0, 76, 80
1, 13908, Note_on_c, 1, 58, 0
1, 13920, Note_on_c, 0, 79, 80
1, 13920, Note_on_c, 1, 49, 80
1, 13968, Note_on_c, 0, 76, 0
1, 14028, Note_on_c, 1, 49, 0
1, 14040, Note_on_c, 1, 56, 80
1, 14136, Note_on_c, 0, 79, 0
1, 14148, Note_on_c, 1, 56, 0
1, 14160, Note_on_c, 0, 77, 80
1, 14160, Note_on_c, 1, 53, 80
1, 14268, Note_on_c, 1, 53, 0
1, 14280, Note_on_c, 1, 56, 80
1, 14376, Note_on_c, 0, 77, 0
1, 14388, Note_on_c, 1, 56, 0
1, 14400, Note_on_c, 0, 77, 80
1, 14400, Note_on_c, 1, 46, 80
1, 14508, Note_on_c, 0, 77, 0
1, 14508, Note_on_c, 1, 46, 0
1, 14520, Note_on_c, 0, 75, 80
1, 14520, Note_on_c, 1, 55, 80
1, 14628, Note_on_c, 1, 55, 0
1, 14640, Note_on_c, 1, 49, 80
1, 14736, Note_on_c, 0, 75, 0
1, 14748, Note_on_c, 1, 49, 0
1, 14760, Note_on_c, 0, 73, 80
1, 14760, Note_on_c, 1, 55, 80
1, 14868, Note_on_c, 0, 73, 0
1, 14868, Note_on_c, 1, 55, 0
1, 14880, Note_on_c, 0, 72, 81
1, 14880, Note_on_c, 1, 48, 82
1, 14988, Note_on_c, 0, 72, 0
1, 14988, Note_on_c, 1, 48, 0
1, 15000, Note_on_c, 0, 72, 82
1, 15000, Note_on_c, 1, 56, 82
1, 15027, Note_on_c, 0, 72, 0
1, 15030, Note_on_c, 0, 73, 82
1, 15057, Note_on_c, 0, 73, 0
1, 15060, Note_on_c, 0, 72, 82
1, 15087, Note_on_c, 0, 72, 0
1, 15090, Note_on_c, 0, 70, 82
1, 15108, Note_on_c, 1, 56, 0
1, 15117, Note_on_c, 0, 70, 0
1, 15120, Note_on_c, 0, 72, 82
1, 15120, Note_on_c, 1, 53, 82
1, 15228, Note_on_c, 0, 72, 0
1, 15228, Note_on_c, 1, 53, 0
1, 15240, Note_on_c, 0, 73, 80
1, 15240, Note_on_c, 1, 56, 82
1, 15348, Note_on_c, 0, 73, 0
1, 15348, Note_on_c, 1, 56, 0
1, 15360, Note_on_c, 0, 65, 82
1, 15360, Note_on_c, 1, 48, 81
1, 15468, Note_on_c, 1, 48, 0
1, 15480, Note_on_c, 1, 58, 81
1, 15576, Note_on_c, 0, 65, 0
1, 15588, Note_on_c, 1, 58, 0
1, 15600, Note_on_c, 0, 64, 80
1, 15600, Note_on_c, 0, 68, 80
1, 15600, Note_on_c, 1, 55, 80
1, 15708, Note_on_c, 1, 55, 0
1, 15720, Note_on_c, 0, 67, 80
1, 15720, Note_on_c, 1, 58, 80
1, 15816, Note_on_c, 0, 64, 0
1, 15816, Note_on_c, 0, 68, 0
1, 15828, Note_on_c, 0, 67, 0
1, 15828, Note_on_c, 1, 58, 0
1, 15840, Note_on_c, 0, 65, 80
1, 15840, Note_on_c, 1, 57, 80
1, 15840, Note_on_c, 1, 53, 80
1, 15948, Note_on_c, 1, 57, 0
1, 15960, Note_on_c, 1, 60, 80
1, 16056, Note_on_c, 1, 53, 0
1, 16068, Note_on_c, 1, 60, 0
1, 16080, Note_on_c, 1, 60, 80
1, 16188, Note_on_c, 1, 60, 0
1, 16200, Note_on_c, 1, 60, 80
1, 16272, Note_on_c, 0, 65, 0
1, 16308, Note_on_c, 1, 60, 0
1, 16320, Note_on_c, 1, 57, 80
1, 16320, Note_on_c, 1, 53, 80
1, 16428, Note_on_c, 1, 57, 0
1, 16440, Note_on_c, 1, 60, 80
1, 16536, Note_on_c, 1, 53, 0
1, 16548, Note_on_c, 1, 60, 0
1, 16560, Note_on_c, 1, 58, 80
1, 16560, Note_on_c, 1, 55, 80
1, 16668, Note_on_c, 1, 58, 0
1, 16680, Note_on_c, 1, 60, 80
1, 16776, Note_on_c, 1, 55, 0
1, 16788, Note_on_c, 1, 60, 0
1, 16800, Note_on_c, 0, 70, 80
1, 16800, Note_on_c, 1, 55, 80
1, 16800, Note_on_c, 1, 52, 80
1, 16908, Note_on_c, 1, 55, 0
1, 16920, Note_on_c, 1, 60, 80
1, 17016, Note_on_c, 0, 70, 0
1, 17016, Note_on_c, 1, 52, 0
1, 17028, Note_on_c, 1, 60, 0
1, 17040, Note_on_c, 1, 60, 80
1, 17148, Note_on_c, 1, 60, 0
1, 17160, Note_on_c, 1, 60, 80
1, 17268, Note_on_c, 1, 60, 0
1, 17280, Note_on_c, 0, 67, 80
1, 17280, Note_on_c, 1, 52, 80
1, 17280, Note_on_c, 1, 48, 80
1, 17388, Note_on_c, 1, 52, 0
1, 17400, Note_on_c, 1, 60, 80
1, 17496, Note_on_c, 0, 67, 0
1, 17496, Note_on_c, 1, 48, 0
1, 17508, Note_on_c, 1, 60, 0
1, 17520, Note_on_c, 0, 64, 80
1, 17520, Note_on_c, 1, 58, 80
1, 17520, Note_on_c, 1, 55, 80
1, 17628, Note_on_c, 1, 58, 0
1, 17640, Note_on_c, 1, 60, 80
1, 17736, Note_on_c, 0, 64, 0
1, 17736, Note_on_c, 1, 55, 0
1, 17748, Note_on_c, 1, 60, 0
1, 17760, Note_on_c, 0, 72, 80
1, 17760, Note_on_c, 1, 57, 80
1, 17760, Note_on_c, 1, 53, 80
1, 17868, Note_on_c, 1, 57, 0
1, 17880, Note_on_c, 1, 60, 80
1, 17922, Note_on_c, 0, 72, 0
1, 17940, Note_on_c, 0, 69, 80
1, 17976, Note_on_c, 1, 53, 0
1, 17988, Note_on_c, 1, 60, 0
1, 17994, Note_on_c, 0, 69, 0
1, 18000, Note_on_c, 0, 72, 80
1, 18000, Note_on_c, 1, 60, 80
1, 18108, Note_on_c, 1, 60, 0
1, 18120, Note_on_c, 1, 60, 80
1, 18216, Note_on_c, 0, 72, 0
1, 18228, Note_on_c, 1, 60, 0
1, 18240, Note_on_c, 1, 57, 80
1, 18240, Note_on_c, 1, 53, 80
1, 18348, Note_on_c, 1, 57, 0
1, 18360, Note_on_c, 1, 60, 80
1, 18456, Note_on_c, 1, 53, 0
1, 18468, Note_on_c, 1, 60, 0
1, 18480, Note_on_c, 1, 58, 80
1, 18480, Note_on_c, 1, 55, 80
1, 18588, Note_on_c, 1, 58, 0
1, 18600, Note_on_c, 1, 60, 80
1, 18696, Note_on_c, 1, 55, 0
1, 18708, Note_on_c, 1, 60, 0
1, 18720, Note_on_c, 0, 70, 80
1, 18720, Note_on_c, 1, 55, 80
1, 18720, Note_on_c, 1, 52, 80
1, 18828, Note_on_c, 1, 55, 0
1, 18840, Note_on_c, 1, 60, 80
1, 18936, Note_on_c, 0, 70, 0
1, 18936, Note_on_c, 1, 52, 0
1, 18948, Note_on_c, 1, 60, 0
1, 18960, Note_on_c, 1, 60, 80
1, 19068, Note_on_c, 1, 60, 0
1, 19080, Note_on_c, 1, 60, 80
1, 19188, Note_on_c, 1, 60, 0
1, 19200, Note_on_c, 0, 67, 80
1, 19200, Note_on_c, 1, 48, 80
1, 19200, Note_on_c, 1, 52, 80
1, 19308, Note_on_c, 1, 52, 0
1, 19320, Note_on_c, 1, 60, 80
1, 19416, Note_on_c, 0, 67, 0
1, 19416, Note_on_c, 1, 48, 0
1, 19428, Note_on_c, 1, 60, 0
1, 19440, Note_on_c, 0, 64, 80
1, 19440, Note_on_c, 1, 55, 80
1, 19440, Note_on_c, 1, 58, 80
1, 19548, Note_on_c, 1, 58, 0
1, 19560, Note_on_c, 1, 60, 80
1, 19656, Note_on_c, 0, 64, 0
1, 19656, Note_on_c, 1, 55, 0
1, 19668, Note_on_c, 1, 60, 0
1, 19680, Note_on_c, 0, 72, 80
1, 19680, Note_on_c, 1, 57, 80
1, 19680, Note_on_c, 1, 53, 80
1, 19842, Note_on_c, 0, 72, 0
1, 19860, Note_on_c, 0, 69, 80
1, 19896, Note_on_c, 1, 57, 0
1, 19896, Note_on_c, 1, 53, 0
1, 19914, Note_on_c, 0, 69, 0
1, 19920, Note_on_c, 0, 72, 80
1, 20136, Note_on_c, 0, 72, 0
1, 20160, Note_on_c, 0, 77, 83
1, 20160, Note_on_c, 0, 81, 83
1, 20268, Note_on_c, 0, 77, 0
1, 20268, Note_on_c, 0, 81, 0
1, 20280, Note_on_c, 0, 76, 80
1, 20280, Note_on_c, 0, 79, 80
1, 20388, Note_on_c, 0, 76, 0
1, 20388, Note_on_c, 0, 79, 0
1, 20400, Note_on_c, 0, 74, 80
1, 20400, Note_on_c, 0, 77, 80
1, 20508, Note_on_c, 0, 74, 0
1, 20508, Note_on_c, 0, 77, 0
1, 20520, Note_on_c, 0, 76, 80
1, 20520, Note_on_c, 0, 73, 80
1, 20628, Note_on_c, 0, 76, 0
1, 20628, Note_on_c, 0, 73, 0
1, 20640, Note_on_c, 0, 74, 82
1, 20640, Note_on_c, 0, 77, 82
1, 20748, Note_on_c, 0, 74, 0
1, 20748, Note_on_c, 0, 77, 0
1, 20760, Note_on_c, 0, 72, 80
1, 20760, Note_on_c, 0, 76, 80
1, 20868, Note_on_c, 0, 72, 0
1, 20868, Note_on_c, 0, 76, 0
1, 20880, Note_on_c, 0, 70, 80
1, 20880, Note_on_c, 0, 74, 80
1, 20988, Note_on_c, 0, 70, 0
1, 20988, Note_on_c, 0, 74, 0
1, 21000, Note_on_c, 0, 73, 80
1, 21000, Note_on_c, 0, 69, 80
1, 21108, Note_on_c, 0, 73, 0
1, 21108, Note_on_c, 0, 69, 0
1, 21120, Note_on_c, 0, 74, 82
1, 21120, Note_on_c, 0, 70, 82
1, 21228, Note_on_c, 0, 74, 0
1, 21228, Note_on_c, 0, 70, 0
1, 21240, Note_on_c, 0, 72, 80
1, 21240, Note_on_c, 0, 69, 80
1, 21348, Note_on_c, 0, 72, 0
1, 21348, Note_on_c, 0, 69, 0
1, 21360, Note_on_c, 0, 67, 80
1, 21360, Note_on_c, 0, 70, 80
1, 21468, Note_on_c, 0, 67, 0
1, 21468, Note_on_c, 0, 70, 0
1, 21480, Note_on_c, 0, 66, 80
1, 21480, Note_on_c, 0, 69, 80
1, 21588, Note_on_c, 0, 66, 0
1, 21588, Note_on_c, 0, 69, 0
1, 21600, Note_on_c, 0, 62, 82
1, 21600, Note_on_c, 0, 69, 82
1, 21600, Note_on_c, 0, 66, 82
1, 21600, Note_on_c, 1, 50, 82
1, 21600, Note_on_c, 1, 57, 82
1, 21600, Note_on_c, 1, 54, 82
1, 21600, Note_on_c, 1, 60, 82
1, 22032, Note_on_c, 0, 62, 0
1, 22032, Note_on_c, 0, 69, 0
1, 22032, Note_on_c, 0, 66, 0
1, 22032, Note_on_c, 1, 50, 0
1, 22032, Note_on_c, 1, 57, 0
1, 22032, Note_on_c, 1, 54, 0
1, 22032, Note_on_c, 1, 60, 0
1, 22080, Note_on_c, 0, 72, 80
1, 22080, Note_on_c, 1, 55, 80
1, 22080, Note_on_c, 1, 58, 80
1, 22134, Note_on_c, 0, 72, 0
1, 22140, Note_on_c, 0, 70, 80
1, 22194, Note_on_c, 0, 70, 0
1, 22200, Note_on_c, 0, 69, 80
1, 22254, Note_on_c, 0, 69, 0
1, 22260, Note_on_c, 0, 70, 80
1, 22296, Note_on_c, 1, 58, 0
1, 22314, Note_on_c, 0, 70, 0
1, 22320, Note_on_c, 0, 72, 80
1, 22320, Note_on_c, 1, 64, 80
1, 22428, Note_on_c, 0, 72, 0
1, 22440, Note_on_c, 0, 74, 80
1, 22512, Note_on_c, 1, 55, 0
1, 22536, Note_on_c, 1, 64, 0
1, 22548, Note_on_c, 0, 74, 0
1, 22560, Note_on_c, 0, 72, 80
1, 22560, Note_on_c, 1, 57, 80
1, 22560, Note_on_c, 1, 65, 80
1, 22632, Note_on_c, 0, 72, 0
1, 22640, Note_on_c, 0, 70, 80
1, 22712, Note_on_c, 0, 70, 0
1, 22720, Note_on_c, 0, 69, 80
1, 22776, Note_on_c, 1, 57, 0
1, 22776, Note_on_c, 1, 65, 0
1, 22792, Note_on_c, 0, 69, 0
1, 22800, Note_on_c, 0, 67, 80
1, 22800, Note_on_c, 1, 58, 80
1, 22800, Note_on_c, 1, 62, 80
1, 22872, Note_on_c, 0, 67, 0
1, 22880, Note_on_c, 0, 70, 80
1, 22952, Note_on_c, 0, 70, 0
1, 22960, Note_on_c, 0, 74, 80
1, 23016, Note_on_c, 1, 58, 0
1, 23016, Note_on_c, 1, 62, 0
1, 23032, Note_on_c, 0, 74, 0
1, 23040, Note_on_c, 0, 65, 80
1, 23040, Note_on_c, 1, 48, 80
1, 23040, Note_on_c, 1, 57, 80
1, 23256, Note_on_c, 0, 65, 0
1, 23256, Note_on_c, 1, 57, 0
1, 23280, Note_on_c, 0, 67, 80
1, 23280, Note_on_c, 0, 64, 80
1, 23280, Note_on_c, 1, 58, 80
1, 23472, Note_on_c, 1, 48, 0
1, 23496, Note_on_c, 0, 67, 0
1, 23496, Note_on_c, 0, 64, 0
1, 23496, Note_on_c, 1, 58, 0
1, 23520, Note_on_c, 0, 67, 80
1, 23520, Note_on_c, 0, 64, 80
1, 23520, Note_on_c, 1, 57, 80
1, 23520, Note_on_c, 1, 53, 80
1, 23628, Note_on_c, 1, 57, 0
1, 23640, Note_on_c, 1, 60, 80
1, 23682, Note_on_c, 0, 67, 0
1, 23700, Note_on_c, 0, 68, 80
1, 23736, Note_on_c, 0, 64, 0
1, 23736, Note_on_c, 1, 53, 0
1, 23748, Note_on_c, 1, 60, 0
1, 23754, Note_on_c, 0, 68, 0
1, 23760, Note_on_c, 0, 69, 80
1, 23760, Note_on_c, 0, 65, 80
1, 23760, Note_on_c, 1, 60, 80
1, 23868, Note_on_c, 1, 60, 0
1, 23880, Note_on_c, 1, 60, 80
1, 23976, Note_on_c, 0, 69, 0
1, 23976, Note_on_c, 0, 65, 0
1, 23988, Note_on_c, 1, 60, 0
1, 24000, Note_on_c, 1, 57, 80
1, 24000, Note_on_c, 1, 53, 80
1, 24108, Note_on_c, 1, 57, 0
1, 24120, Note_on_c, 1, 60, 80
1, 24216, Note_on_c, 1, 53, 0
1, 24228, Note_on_c, 1, 60, 0
1, 24240, Note_on_c, 1, 58, 80
1, 24240, Note_on_c, 1, 55, 80
1, 24348, Note_on_c, 1, 58, 0
1, 24360, Note_on_c, 1, 60, 80
1, 24456, Note_on_c, 1, 55, 0
1, 24468, Note_on_c, 1, 60, 0
1, 24480, Note_on_c, 0, 70, 80
1, 24480, Note_on_c, 1, 55, 80
1, 24480, Note_on_c, 1, 52, 80
1, 24588, Note_on_c, 1, 55, 0
1, 24600, Note_on_c, 1, 60, 80
1, 24696, Note_on_c, 0, 70, 0
1, 24696, Note_on_c, 1, 52, 0
1, 24708, Note_on_c, 1, 60, 0
1, 24720, Note_on_c, 1, 60, 80
1, 24828, Note_on_c, 1, 60, 0
1, 24840, Note_on_c, 1, 60, 80
1, 24948, Note_on_c, 1, 60, 0
1, 24960, Note_on_c, 0, 67, 80
1, 24960, Note_on_c, 1, 52, 80
1, 24960, Note_on_c, 1, 48, 80
1, 25068, Note_on_c, 1, 52, 0
1, 25080, Note_on_c, 1, 60, 80
1, 25176, Note_on_c, 0, 67, 0
1, 25176, Note_on_c, 1, 48, 0
1, 25188, Note_on_c, 1, 60, 0
1, 25200, Note_on_c, 0, 64, 80
1, 25200, Note_on_c, 1, 58, 80
1, 25200, Note_on_c, 1, 55, 80
1, 25308, Note_on_c, 1, 58, 0
1, 25320, Note_on_c, 1, 60, 80
1, 25416, Note_on_c, 0, 64, 0
1, 25416, Note_on_c, 1, 55, 0
1, 25428, Note_on_c, 1, 60, 0
1, 25440, Note_on_c, 0, 72, 80
1, 25440, Note_on_c, 1, 57, 80
1, 25440, Note_on_c, 1, 53, 80
1, 25548, Note_on_c, 1, 57, 0
1, 25560, Note_on_c, 1, 60, 80
1, 25602, Note_on_c, 0, 72, 0
1, 25620, Note_on_c, 0, 69, 80
1, 25656, Note_on_c, 1, 53, 0
1, 25668, Note_on_c, 1, 60, 0
1, 25674, Note_on_c, 0, 69, 0
1, 25680, Note_on_c, 0, 72, 80
1, 25680, Note_on_c, 1, 60, 80
1, 25788, Note_on_c, 1, 60, 0
1, 25800, Note_on_c, 1, 60, 80
1, 25896, Note_on_c, 0, 72, 0
1, 25908, Note_on_c, 1, 60, 0
1, 25920, Note_on_c, 1, 57, 80
1, 25920, Note_on_c, 1, 53, 80
1, 26028, Note_on_c, 1, 57, 0
1, 26040, Note_on_c, 1, 60, 80
1, 26136, Note_on_c, 1, 53, 0
1, 26148, Note_on_c, 1, 60, 0
1, 26160, Note_on_c, 1, 58, 80
1, 26160, Note_on_c, 1, 55, 80
1, 26268, Note_on_c, 1, 58, 0
1, 26280, Note_on_c, 1, 60, 80
1, 26376, Note_on_c, 1, 55, 0
1, 26388, Note_on_c, 1, 60, 0
1, 26400, Note_on_c, 0, 70, 80
1, 26400, Note_on_c, 1, 55, 80
1, 26400, Note_on_c, 1, 52, 80
1, 26508, Note_on_c, 1, 55, 0
1, 26520, Note_on_c, 1, 60, 80
1, 26616, Note_on_c, 0, 70, 0
1, 26616, Note_on_c, 1, 52, 0
1, 26628, Note_on_c, 1, 60, 0
1, 26640, Note_on_c, 1, 60, 80
1, 26748, Note_on_c, 1, 60, 0
1, 26760, Note_on_c, 1, 60, 80
1, 26868, Note_on_c, 1, 60, 0
1, 26880, Note_on_c, 0, 67, 80
1, 26880, Note_on_c, 1, 48, 80
1, 26880, Note_on_c, 1, 52, 80
1, 26988, Note_on_c, 1, 52, 0
1, 27000, Note_on_c, 1, 60, 80
1, 27096, Note_on_c, 0, 67, 0
1, 27096, Note_on_c, 1, 48, 0
1, 27108, Note_on_c, 1, 60, 0
1, 27120, Note_on_c, 0, 64, 80
1, 27120, Note_on_c, 1, 55, 80
1, 27120, Note_on_c, 1, 58, 80
1, 27228, Note_on_c, 1, 58, 0
1, 27240, Note_on_c, 1, 60, 80
1, 27336, Note_on_c, 0, 64, 0
1, 27336, Note_on_c, 1, 55, 0
1, 27348, Note_on_c, 1, 60, 0
1, 27360, Note_on_c, 0, 72, 80
1, 27360, Note_on_c, 1, 57, 80
1, 27360, Note_on_c, 1, 53, 80
1, 27522, Note_on_c, 0, 72, 0
1, 27540, Note_on_c, 0, 77, 80
1, 27576, Note_on_c, 1, 57, 0
1, 27576, Note_on_c, 1, 53, 0
1, 27594, Note_on_c, 0, 77, 0
1, 27600, Note_on_c, 0, 72, 80
1, 27816, Note_on_c, 0, 72, 0
1, 27840, Note_on_c, 0, 77, 83
1, 27840, Note_on_c, 0, 81, 83
1, 27948, Note_on_c, 0, 77, 0
1, 27948, Note_on_c, 0, 81, 0
1, 27960, Note_on_c, 0, 76, 80
1, 27960, Note_on_c, 0, 79, 80
1, 28068, Note_on_c, 0, 76, 0
1, 28068, Note_on_c, 0, 79, 0
1, 28080, Note_on_c, 0, 74, 80
1, 28080, Note_on_c, 0, 77, 80
1, 28188, Note_on_c, 0, 74, 0
1, 28188, Note_on_c, 0, 77, 0
1, 28200, Note_on_c, 0, 76, 80
1, 28200, Note_on_c, 0, 73, 80
1, 28308, Note_on_c, 0, 76, 0
1, 28308, Note_on_c, 0, 73, 0
1, 28320, Note_on_c, 0, 74, 82
1, 28320, Note_on_c, 0, 77, 82
1, 28428, Note_on_c, 0, 74, 0
1, 28428, Note_on_c, 0, 77, 0
1, 28440, Note_on_c, 0, 72, 80
1, 28440, Note_on_c, 0, 76, 80
1, 28548, Note_on_c, 0, 72, 0
1, 28548, Note_on_c, 0, 76, 0
1, 28560, Note_on_c, 0, 70, 80
1, 28560, Note_on_c, 0, 74, 80
1, 28668, Note_on_c, 0, 70, 0
1, 28668, Note_on_c, 0, 74, 0
1, 28680, Note_on_c, 0, 73, 80
1, 28680, Note_on_c, 0, 69, 80
1, 28788, Note_on_c, 0, 73, 0
1, 28788, Note_on_c, 0, 69, 0
1, 28800, Note_on_c, 0, 74, 82
1, 28800, Note_on_c, 0, 70, 82
1, 28908, Note_on_c, 0, 74, 0
1, 28908, Note_on_c, 0, 70, 0
1, 28920, Note_on_c, 0, 72, 80
1, 28920, Note_on_c, 0, 69, 80
1, 29028, Note_on_c, 0, 72, 0
1, 29028, Note_on_c, 0, 69, 0
1, 29040, Note_on_c, 0, 67, 80
1, 29040, Note_on_c, 0, 70, 80
1, 29148, Note_on_c, 0, 67, 0
1, 29148, Note_on_c, 0, 70, 0
1, 29160, Note_on_c, 0, 66, 80
1, 29160, Note_on_c, 0, 69, 80
1, 29268, Note_on_c, 0, 66, 0
1, 29268, Note_on_c, 0, 69, 0
1, 29280, Note_on_c, 0, 62, 82
1, 29280, Note_on_c, 0, 69, 82
1, 29280, Note_on_c, 0, 66, 82
1, 29280, Note_on_c, 1, 50, 82
1, 29280, Note_on_c, 1, 57, 82
1, 29280, Note_on_c, 1, 54, 82
1, 29280, Note_on_c, 1, 60, 82
1, 29712, Note_on_c, 0, 62, 0
1, 29712, Note_on_c, 0, 69, 0
1, 29712, Note_on_c, 0, 66, 0
1, 29712, Note_on_c, 1, 50, 0
1, 29712, Note_on_c, 1, 57, 0
1, 29712, Note_on_c, 1, 54, 0
1, 29712, Note_on_c, 1, 60, 0
1, 29760, Note_on_c, 0, 72, 80
1, 29760, Note_on_c, 1, 58, 80
1, 29760, Note_on_c, 1, 55, 80
1, 29814, Note_on_c, 0, 72, 0
1, 29820, Note_on_c, 0, 70, 80
1, 29874, Note_on_c, 0, 70, 0
1, 29880, Note_on_c, 0, 69, 80
1, 29934, Note_on_c, 0, 69, 0
1, 29940, Note_on_c, 0, 70, 80
1, 29976, Note_on_c, 1, 58, 0
1, 29994, Note_on_c, 0, 70, 0
1, 30000, Note_on_c, 0, 72, 80
1, 30000, Note_on_c, 1, 64, 80
1, 30108, Note_on_c, 0, 72, 0
1, 30120, Note_on_c, 0, 74, 80
1, 30192, Note_on_c, 1, 55, 0
1, 30216, Note_on_c, 1, 64, 0
1, 30228, Note_on_c, 0, 74, 0
1, 30240, Note_on_c, 0, 72, 80
1, 30240, Note_on_c, 1, 65, 80
1, 30240, Note_on_c, 1, 57, 80
1, 30312, Note_on_c, 0, 72, 0
1, 30320, Note_on_c, 0, 77, 80
1, 30392, Note_on_c, 0, 77, 0
1, 30400, Note_on_c, 0, 69, 80
1, 30456, Note_on_c, 1, 65, 0
1, 30456, Note_on_c, 1, 57, 0
1, 30472, Note_on_c, 0, 69, 0
1, 30480, Note_on_c, 0, 67, 80
1, 30480, Note_on_c, 1, 62, 80
1, 30480, Note_on_c, 1, 58, 80
1, 30552, Note_on_c, 0, 67, 0
1, 30560, Note_on_c, 0, 70, 80
1, 30632, Note_on_c, 0, 70, 0
1, 30640, Note_on_c, 0, 74, 80
1, 30696, Note_on_c, 1, 62, 0
1, 30696, Note_on_c, 1, 58, 0
1, 30712, Note_on_c, 0, 74, 0
1, 30720, Note_on_c, 0, 65, 80
1, 30720, Note_on_c, 1, 48, 80
1, 30720, Note_on_c, 1, 57, 80
1, 30936, Note_on_c, 0, 65, 0
1, 30936, Note_on_c, 1, 57, 0
1, 30960, Note_on_c, 0, 64, 80
1, 30960, Note_on_c, 1, 55, 80
1, 31140, Note_on_c, 0, 69, 80
1, 31152, Note_on_c, 1, 48, 0
1, 31176, Note_on_c, 0, 64, 0
1, 31176, Note_on_c, 1, 55, 0
1, 31194, Note_on_c, 0, 69, 0
1, 31200, Note_on_c, 0, 81, 83
1, 31320, Note_on_c, 1, 53, 83
1, 31416, Note_on_c, 0, 81, 0
1, 31428, Note_on_c, 1, 53, 0
1, 31440, Note_on_c, 0, 81, 83
1, 31440, Note_on_c, 1, 57, 83
1, 31521, Note_on_c, 0, 81, 0
1, 31548, Note_on_c, 1, 57, 0
1, 31560, Note_on_c, 0, 77, 83
1, 31560, Note_on_c, 1, 62, 83
1, 31584, Note_on_c, 0, 77, 0
1, 31586, Note_on_c, 0, 79, 83
1, 31610, Note_on_c, 0, 79, 0
1, 31613, Note_on_c, 0, 77, 83
1, 31637, Note_on_c, 0, 77, 0
1, 31640, Note_on_c, 0, 76, 83
1, 31664, Note_on_c, 0, 76, 0
1, 31666, Note_on_c, 0, 77, 80
1, 31668, Note_on_c, 1, 62, 0
1, 31680, Note_on_c, 0, 82, 84
1, 31690, Note_on_c, 0, 77, 0
1, 31800, Note_on_c, 1, 55, 83
1, 31896, Note_on_c, 0, 82, 0
1, 31908, Note_on_c, 1, 55, 0
1, 31920, Note_on_c, 0, 82, 83
1, 31920, Note_on_c, 1, 58, 83
1, 32001, Note_on_c, 0, 82, 0
1, 32028, Note_on_c, 1, 58, 0
1, 32040, Note_on_c, 0, 79, 82
1, 32040, Note_on_c, 1, 64, 83
1, 32061, Note_on_c, 0, 79, 0
1, 32064, Note_on_c, 0, 81, 82
1, 32085, Note_on_c, 0, 81, 0
1, 32088, Note_on_c, 0, 79, 82
1, 32109, Note_on_c, 0, 79, 0
1, 32112, Note_on_c, 0, 78, 82
1, 32133, Note_on_c, 0, 78, 0
1, 32136, Note_on_c, 0, 79, 82
1, 32148, Note_on_c, 1, 64, 0
1, 32157, Note_on_c, 0, 79, 0
1, 32160, Note_on_c, 0, 84, 84
1, 32280, Note_on_c, 1, 57, 83
1, 32322, Note_on_c, 0, 84, 0
1, 32340, Note_on_c, 0, 81, 84
1, 32388, Note_on_c, 1, 57, 0
1, 32394, Note_on_c, 0, 81, 0
1, 32400, Note_on_c, 0, 77, 84
1, 32400, Note_on_c, 1, 60, 83
1, 32508, Note_on_c, 1, 60, 0
1, 32520, Note_on_c, 1, 65, 83
1, 32616, Note_on_c, 0, 77, 0
1, 32628, Note_on_c, 1, 65, 0
1, 32640, Note_on_c, 0, 77, 84
1, 32640, Note_on_c, 1, 65, 83
1, 32640, Note_on_c, 1, 57, 83
1, 32748, Note_on_c, 0, 77, 0
1, 32760, Note_on_c, 0, 75, 84
1, 32868, Note_on_c, 0, 75, 0
1, 32880, Note_on_c, 0, 74, 84
1, 32880, Note_on_c, 1, 63, 83
1, 32988, Note_on_c, 0, 74, 0
1, 33000, Note_on_c, 0, 73, 84
1, 33072, Note_on_c, 1, 65, 0
1, 33072, Note_on_c, 1, 57, 0
1, 33096, Note_on_c, 1, 63, 0
1, 33108, Note_on_c, 0, 73, 0
1, 33120, Note_on_c, 0, 74, 84
1, 33120, Note_on_c, 1, 58, 83
1, 33120, Note_on_c, 1, 65, 83
1, 33120, Note_on_c, 1, 62, 83
1, 33228, Note_on_c, 0, 74, 0
1, 33240, Note_on_c, 0, 76, 84
1, 33294, Note_on_c, 0, 76, 0
1, 33300, Note_on_c, 0, 78, 84
1, 33336, Note_on_c, 1, 58, 0
1, 33336, Note_on_c, 1, 65, 0
1, 33336, Note_on_c, 1, 62, 0
1, 33354, Note_on_c, 0, 78, 0
1, 33360, Note_on_c, 0, 79, 84
1, 33414, Note_on_c, 0, 79, 0
1, 33420, Note_on_c, 0, 81, 84
1, 33474, Note_on_c, 0, 81, 0
1, 33480, Note_on_c, 0, 82, 84
1, 33534, Note_on_c, 0, 82, 0
1, 33540, Note_on_c, 0, 85, 84
1, 33594, Note_on_c, 0, 85, 0
1, 33600, Note_on_c, 0, 86, 85
1, 33600, Note_on_c, 1, 58, 83
1, 33600, Note_on_c, 1, 67, 83
1, 33600, Note_on_c, 1, 62, 83
1, 33654, Note_on_c, 0, 86, 0
1, 33660, Note_on_c, 0, 84, 85
1, 33714, Note_on_c, 0, 84, 0
1, 33720, Note_on_c, 0, 82, 84
1, 33774, Note_on_c, 0, 82, 0
1, 33780, Note_on_c, 0, 81, 83
1, 33816, Note_on_c, 1, 58, 0
1, 33816, Note_on_c, 1, 67, 0
1, 33816, Note_on_c, 1, 62, 0
1, 33834, Note_on_c, 0, 81, 0
1, 33840, Note_on_c, 0, 79, 82
1, 33894, Note_on_c, 0, 79, 0
1, 33900, Note_on_c, 0, 77, 81
1, 33954, Note_on_c, 0, 77, 0
1, 33960, Note_on_c, 0, 76, 80
1, 34014, Note_on_c, 0, 76, 0
1, 34020, Note_on_c, 0, 74, 80
1, 34074, Note_on_c, 0, 74, 0
1, 34080, Note_on_c, 0, 72, 77
1, 34080, Note_on_c, 1, 48, 80
1, 34188, Note_on_c, 1, 48, 0
1, 34200, Note_on_c, 1, 57, 80
1, 34296, Note_on_c, 0, 72, 0
1, 34308, Note_on_c, 1, 57, 0
1, 34320, Note_on_c, 0, 84, 84
1, 34320, Note_on_c, 1, 53, 83
1, 34428, Note_on_c, 1, 53, 0
1, 34440, Note_on_c, 1, 57, 81
1, 34536, Note_on_c, 0, 84, 0
1, 34548, Note_on_c, 1, 57, 0
1, 34560, Note_on_c, 0, 84, 80
1, 34560, Note_on_c, 1, 48, 80
1, 34632, Note_on_c, 0, 84, 0
1, 34640, Note_on_c, 0, 81, 80
1, 34668, Note_on_c, 1, 48, 0
1, 34680, Note_on_c, 1, 57, 80
1, 34712, Note_on_c, 0, 81, 0
1, 34720, Note_on_c, 0, 77, 80
1, 34788, Note_on_c, 1, 57, 0
1, 34792, Note_on_c, 0, 77, 0
1, 34800, Note_on_c, 0, 72, 80
1, 34800, Note_on_c, 1, 53, 80
1, 34854, Note_on_c, 0, 72, 0
1, 34860, Note_on_c, 0, 69, 80
1, 34908, Note_on_c, 1, 53, 0
1, 34914, Note_on_c, 0, 69, 0
1, 34920, Note_on_c, 0, 77, 80
1, 34920, Note_on_c, 1, 57, 80
1, 34974, Note_on_c, 0, 77, 0
1, 35028, Note_on_c, 1, 57, 0
1, 35040, Note_on_c, 1, 48, 80
1, 35100, Note_on_c, 0, 65, 80
1, 35148, Note_on_c, 1, 48, 0
1, 35154, Note_on_c, 0, 65, 0
1, 35160, Note_on_c, 0, 67, 82
1, 35160, Note_on_c, 1, 58, 80
1, 35196, Note_on_c, 0, 67, 0
1, 35200, Note_on_c, 0, 69, 83
1, 35236, Note_on_c, 0, 69, 0
1, 35240, Note_on_c, 0, 67, 83
1, 35268, Note_on_c, 1, 58, 0
1, 35276, Note_on_c, 0, 67, 0
1, 35280, Note_on_c, 0, 69, 84
1, 35280, Note_on_c, 1, 52, 83
1, 35316, Note_on_c, 0, 69, 0
1, 35320, Note_on_c, 0, 67, 85
1, 35356, Note_on_c, 0, 67, 0
1, 35360, Note_on_c, 0, 69, 85
1, 35388, Note_on_c, 1, 52, 0
1, 35396, Note_on_c, 0, 69, 0
1, 35400, Note_on_c, 0, 67, 85
1, 35400, Note_on_c, 1, 58, 83
1, 35436, Note_on_c, 0, 67, 0
1, 35440, Note_on_c, 0, 69, 85
1, 35476, Note_on_c, 0, 69, 0
1, 35480, Note_on_c, 0, 67, 85
1, 35508, Note_on_c, 1, 58, 0
1, 35516, Note_on_c, 0, 67, 0
1, 35520, Note_on_c, 0, 69, 85
1, 35520, Note_on_c, 1, 48, 83
1, 35556, Note_on_c, 0, 69, 0
1, 35560, Note_on_c, 0, 67, 85
1, 35596, Note_on_c, 0, 67, 0
1, 35600, Note_on_c, 0, 69, 85
1, 35628, Note_on_c, 1, 48, 0
1, 35636, Note_on_c, 0, 69, 0
1, 35640, Note_on_c, 0, 67, 85
1, 35640, Note_on_c, 1, 58, 83
1, 35676, Note_on_c, 0, 67, 0
1, 35680, Note_on_c, 0, 69, 85
1, 35716, Note_on_c, 0, 69, 0
1, 35720, Note_on_c, 0, 67, 85
1, 35748, Note_on_c, 1, 58, 0
1, 35756, Note_on_c, 0, 67, 0
1, 35760, Note_on_c, 0, 69, 85
1, 35760, Note_on_c, 1, 52, 83
1, 35796, Note_on_c, 0, 69, 0
1, 35800, Note_on_c, 0, 67, 85
1, 35836, Note_on_c, 0, 67, 0
1, 35840, Note_on_c, 0, 69, 85
1, 35868, Note_on_c, 1, 52, 0
1, 35876, Note_on_c, 0, 69, 0
1, 35880, Note_on_c, 0, 65, 80
1, 35880, Note_on_c, 1, 58, 80
1, 35934, Note_on_c, 0, 65, 0
1, 35940, Note_on_c, 0, 67, 80
1, 35988, Note_on_c, 1, 58, 0
1, 35994, Note_on_c, 0, 67, 0
1, 36000, Note_on_c, 0, 65, 83
1, 36000, Note_on_c, 1, 53, 82
1, 36120, Note_on_c, 1, 60, 82
1, 36216, Note_on_c, 0, 65, 0
1, 36228, Note_on_c, 1, 60, 0
1, 36240, Note_on_c, 1, 65, 82
1, 36300, Note_on_c, 0, 77, 80
1, 36348, Note_on_c, 1, 65, 0
1, 36354, Note_on_c, 0, 77, 0
1, 36360, Note_on_c, 0, 77, 80
1, 36360, Note_on_c, 1, 63, 82
1, 36381, Note_on_c, 0, 77, 0
1, 36384, Note_on_c, 0, 79, 80
1, 36405, Note_on_c, 0, 79, 0
1, 36408, Note_on_c, 0, 77, 80
1, 36429, Note_on_c, 0, 77, 0
1, 36432, Note_on_c, 0, 76, 80
1, 36453, Note_on_c, 0, 76, 0
1, 36456, Note_on_c, 0, 77, 80
1, 36468, Note_on_c, 1, 63, 0
1, 36477, Note_on_c, 0, 77, 0
1, 36480, Note_on_c, 0, 84, 80
1, 36480, Note_on_c, 1, 62, 80
1, 36588, Note_on_c, 0, 84, 0
1, 36600, Note_on_c, 0, 82, 80
1, 36696, Note_on_c, 1, 62, 0
1, 36708, Note_on_c, 0, 82, 0
1, 36720, Note_on_c, 0, 81, 80
1, 36720, Note_on_c, 1, 58, 80
1, 36828, Note_on_c, 0, 81, 0
1, 36840, Note_on_c, 0, 79, 80
1, 36864, Note_on_c, 1, 53, 0
1, 36936, Note_on_c, 1, 58, 0
1, 36948, Note_on_c, 0, 79, 0
1, 36960, Note_on_c, 0, 79, 80
1, 36960, Note_on_c, 1, 57, 80
1, 36960, Note_on_c, 1, 53, 80
1, 37068, Note_on_c, 0, 79, 0
1, 37068, Note_on_c, 1, 57, 0
1, 37080, Note_on_c, 0, 77, 80
1, 37080, Note_on_c, 1, 60, 80
1, 37188, Note_on_c, 0, 77, 0
1, 37188, Note_on_c, 1, 60, 0
1, 37200, Note_on_c, 0, 77, 80
1, 37200, Note_on_c, 1, 65, 80
1, 37254, Note_on_c, 0, 77, 0
1, 37260, Note_on_c, 0, 77, 80
1, 37281, Note_on_c, 0, 77, 0
1, 37284, Note_on_c, 0, 79, 80
1, 37305, Note_on_c, 0, 79, 0
1, 37308, Note_on_c, 1, 65, 0
1, 37308, Note_on_c, 0, 77, 80
1, 37320, Note_on_c, 1, 63, 80
1, 37329, Note_on_c, 0, 77, 0
1, 37332, Note_on_c, 0, 76, 80
1, 37353, Note_on_c, 0, 76, 0
1, 37356, Note_on_c, 0, 77, 80
1, 37377, Note_on_c, 0, 77, 0
1, 37428, Note_on_c, 1, 63, 0
1, 37440, Note_on_c, 0, 84, 80
1, 37440, Note_on_c, 1, 62, 80
1, 37548, Note_on_c, 0, 84, 0
1, 37560, Note_on_c, 0, 82, 80
1, 37656, Note_on_c, 1, 62, 0
1, 37668, Note_on_c, 0, 82, 0
1, 37680, Note_on_c, 0, 81, 80
1, 37680, Note_on_c, 1, 58, 80
1, 37788, Note_on_c, 0, 81, 0
1, 37800, Note_on_c, 0, 79, 80
1, 37824, Note_on_c, 1, 53, 0
1, 37860, Note_on_c, 0, 79, 0
1, 37860, Note_on_c, 0, 79, 80
1, 37896, Note_on_c, 1, 58, 0
1, 37914, Note_on_c, 0, 79, 0
1, 37920, Note_on_c, 0, 77, 80
1, 37920, Note_on_c, 1, 53, 80
1, 37920, Note_on_c, 1, 57, 80
1, 38028, Note_on_c, 1, 57, 0
1, 38028, Note_on_c, 1, 53, 0
1, 38040, Note_on_c, 1, 55, 80
1, 38040, Note_on_c, 1, 58, 80
1, 38136, Note_on_c, 0, 77, 0
1, 38148, Note_on_c, 1, 55, 0
1, 38148, Note_on_c, 1, 58, 0
1, 38160, Note_on_c, 0, 77, 80
1, 38160, Note_on_c, 1, 60, 80
1, 38160, Note_on_c, 1, 57, 80
1, 38268, Note_on_c, 1, 60, 0
1, 38268, Note_on_c, 1, 57, 0
1, 38280, Note_on_c, 1, 62, 80
1, 38280, Note_on_c, 1, 58, 80
1, 38376, Note_on_c, 0, 77, 0
1, 38388, Note_on_c, 1, 62, 0
1, 38388, Note_on_c, 1, 58, 0
1, 38400, Note_on_c, 0, 77, 80
1, 38400, Note_on_c, 1, 63, 80
1, 38400, Note_on_c, 1, 60, 80
1, 38508, Note_on_c, 1, 63, 0
1, 38508, Note_on_c, 1, 60, 0
1, 38520, Note_on_c, 1, 62, 80
1, 38520, Note_on_c, 1, 59, 80
1, 38616, Note_on_c, 0, 77, 0
1, 38628, Note_on_c, 1, 62, 0
1, 38628, Note_on_c, 1, 59, 0
1, 38640, Note_on_c, 0, 77, 80
1, 38640, Note_on_c, 1, 63, 80
1, 38640, Note_on_c, 1, 60, 80
1, 38748, Note_on_c, 1, 63, 0
1, 38748, Note_on_c, 1, 60, 0
1, 38760, Note_on_c, 1, 62, 80
1, 38760, Note_on_c, 1, 59, 80
1, 38856, Note_on_c, 0, 77, 0
1, 38868, Note_on_c, 1, 62, 0
1, 38868, Note_on_c, 1, 59, 0
1, 38880, Note_on_c, 0, 77, 80
1, 38880, Note_on_c, 1, 53, 80
1, 38880, Note_on_c, 1, 63, 80
1, 38880, Note_on_c, 1, 60, 80
1, 39312, Note_on_c, 0, 77, 0
1, 39312, Note_on_c, 1, 53, 0
1, 39312, Note_on_c, 1, 63, 0
1, 39312, Note_on_c, 1, 60, 0
1, 39360, Note_on_c, 0, 76, 80
1, 39414, Note_on_c, 0, 76, 0
1, 39420, Note_on_c, 0, 77, 80
1, 39474, Note_on_c, 0, 77, 0
1, 39480, Note_on_c, 0, 79, 80
1, 39534, Note_on_c, 0, 79, 0
1, 39540, Note_on_c, 0, 77, 80
1, 39594, Note_on_c, 0, 77, 0
1, 39600, Note_on_c, 0, 77, 80
1, 39654, Note_on_c, 0, 77, 0
1, 39660, Note_on_c, 0, 75, 80
1, 39714, Note_on_c, 0, 75, 0
1, 39720, Note_on_c, 0, 74, 80
1, 39774, Note_on_c, 0, 74, 0
1, 39780, Note_on_c, 0, 72, 80
1, 39834, Note_on_c, 0, 72, 0
1, 39840, Note_on_c, 0, 70, 80
1, 39840, Note_on_c, 1, 58, 80
1, 39948, Note_on_c, 0, 70, 0
1, 39948, Note_on_c, 1, 58, 0
1, 39960, Note_on_c, 0, 70, 80
1, 39960, Note_on_c, 1, 65, 80
1, 39987, Note_on_c, 0, 70, 0
1, 39990, Note_on_c, 0, 72, 80
1, 40017, Note_on_c, 0, 72, 0
1, 40020, Note_on_c, 0, 70, 80
1, 40047, Note_on_c, 0, 70, 0
1, 40050, Note_on_c, 0, 69, 80
1, 40068, Note_on_c, 1, 65, 0
1, 40077, Note_on_c, 0, 69, 0
1, 40080, Note_on_c, 0, 70, 80
1, 40080, Note_on_c, 1, 62, 80
1, 40188, Note_on_c, 0, 70, 0
1, 40188, Note_on_c, 1, 62, 0
1, 40200, Note_on_c, 0, 72, 80
1, 40200, Note_on_c, 1, 65, 80
1, 40308, Note_on_c, 0, 72, 0
1, 40308, Note_on_c, 1, 65, 0
1, 40320, Note_on_c, 0, 74, 80
1, 40320, Note_on_c, 1, 58, 80
1, 40428, Note_on_c, 0, 74, 0
1, 40428, Note_on_c, 1, 58, 0
1, 40440, Note_on_c, 0, 74, 80
1, 40440, Note_on_c, 1, 65, 80
1, 40467, Note_on_c, 0, 74, 0
1, 40470, Note_on_c, 0, 75, 80
1, 40497, Note_on_c, 0, 75, 0
1, 40500, Note_on_c, 0, 74, 80
1, 40527, Note_on_c, 0, 74, 0
1, 40530, Note_on_c, 0, 72, 80
1, 40548, Note_on_c, 1, 65, 0
1, 40557, Note_on_c, 0, 72, 0
1, 40560, Note_on_c, 0, 74, 80
1, 40560, Note_on_c, 1, 62, 80
1, 40668, Note_on_c, 0, 74, 0
1, 40668, Note_on_c, 1, 62, 0
1, 40680, Note_on_c, 0, 75, 80
1, 40680, Note_on_c, 1, 65, 80
1, 40788, Note_on_c, 0, 75, 0
1, 40788, Note_on_c, 1, 65, 0
1, 40800, Note_on_c, 0, 76, 80
1, 40800, Note_on_c, 1, 57, 80
1, 40908, Note_on_c, 1, 57, 0
1, 40920, Note_on_c, 1, 65, 80
1, 41028, Note_on_c, 1, 65, 0
1, 41040, Note_on_c, 1, 60, 80
1, 41124, Note_on_c, 0, 76, 0
1, 41148, Note_on_c, 1, 60, 0
1, 41160, Note_on_c, 0, 77, 80
1, 41160, Note_on_c, 1, 65, 80
1, 41268, Note_on_c, 0, 77, 0
1, 41268, Note_on_c, 1, 65, 0
1, 41280, Note_on_c, 0, 72, 80
1, 41280, Note_on_c, 1, 57, 80
1, 41388, Note_on_c, 1, 57, 0
1, 41400, Note_on_c, 1, 65, 80
1, 41496, Note_on_c, 0, 72, 0
1, 41508, Note_on_c, 1, 65, 0
1, 41520, Note_on_c, 1, 60, 80
1, 41628, Note_on_c, 1, 60, 0
1, 41640, Note_on_c, 1, 65, 80
1, 41748, Note_on_c, 1, 65, 0
1, 41760, Note_on_c, 0, 75, 80
1, 41760, Note_on_c, 1, 55, 80
1, 41868, Note_on_c, 0, 75, 0
1, 41868, Note_on_c, 1, 55, 0
1, 41880, Note_on_c, 0, 75, 80
1, 41880, Note_on_c, 1, 63, 80
1, 41907, Note_on_c, 0, 75, 0
1, 41910, Note_on_c, 0, 77, 80
1, 41937, Note_on_c, 0, 77, 0
1, 41940, Note_on_c, 0, 75, 80
1, 41967, Note_on_c, 0, 75, 0
1, 41970, Note_on_c, 0, 74, 80
1, 41988, Note_on_c, 1, 63, 0
1, 41997, Note_on_c, 0, 74, 0
1, 42000, Note_on_c, 0, 75, 80
1, 42000, Note_on_c, 1, 58, 80
1, 42108, Note_on_c, 0, 75, 0
1, 42108, Note_on_c, 1, 58, 0
1, 42120, Note_on_c, 0, 77, 80
1, 42120, Note_on_c, 1, 63, 80
1, 42228, Note_on_c, 0, 77, 0
1, 42228, Note_on_c, 1, 63, 0
1, 42240, Note_on_c, 0, 79, 80
1, 42240, Note_on_c, 1, 51, 80
1, 42348, Note_on_c, 0, 79, 0
1, 42348, Note_on_c, 1, 51, 0
1, 42360, Note_on_c, 0, 79, 80
1, 42360, Note_on_c, 1, 58, 80
1, 42387, Note_on_c, 0, 79, 0
1, 42390, Note_on_c, 0, 81, 80
1, 42417, Note_on_c, 0, 81, 0
1, 42420, Note_on_c, 0, 79, 80
1, 42447, Note_on_c, 0, 79, 0
1, 42450, Note_on_c, 0, 77, 80
1, 42468, Note_on_c, 1, 58, 0
1, 42477, Note_on_c, 0, 77, 0
1, 42480, Note_on_c, 0, 79, 80
1, 42480, Note_on_c, 1, 55, 80
1, 42588, Note_on_c, 0, 79, 0
1, 42588, Note_on_c, 1, 55, 0
1, 42600, Note_on_c, 0, 81, 80
1, 42600, Note_on_c, 1, 58, 80
1, 42708, Note_on_c, 0, 81, 0
1, 42708, Note_on_c, 1, 58, 0
1, 42720, Note_on_c, 0, 81, 80
1, 42720, Note_on_c, 1, 50, 80
1, 42828, Note_on_c, 1, 50, 0
1, 42840, Note_on_c, 1, 58, 80
1, 42948, Note_on_c, 1, 58, 0
1, 42960, Note_on_c, 1, 53, 80
1, 43044, Note_on_c, 0, 81, 0
1, 43068, Note_on_c, 1, 53, 0
1, 43080, Note_on_c, 0, 82, 80
1, 43080, Note_on_c, 1, 58, 80
1, 43188, Note_on_c, 0, 82, 0
1, 43188, Note_on_c, 1, 58, 0
1, 43200, Note_on_c, 0, 77, 80
1, 43200, Note_on_c, 1, 50, 80
1, 43308, Note_on_c, 1, 50, 0
1, 43320, Note_on_c, 1, 58, 80
1, 43416, Note_on_c, 0, 77, 0
1, 43428, Note_on_c, 1, 58, 0
1, 43440, Note_on_c, 1, 53, 80
1, 43548, Note_on_c, 1, 53, 0
1, 43560, Note_on_c, 1, 58, 80
1, 43620, Note_on_c, 0, 78, 80
1, 43668, Note_on_c, 1, 58, 0
1, 43674, Note_on_c, 0, 78, 0
1, 43680, Note_on_c, 0, 79, 80
1, 43680, Note_on_c, 1, 51, 80
1, 43788, Note_on_c, 1, 51, 0
1, 43800, Note_on_c, 1, 55, 80
1, 43908, Note_on_c, 1, 55, 0
1, 43920, Note_on_c, 1, 51, 80
1, 44004, Note_on_c, 0, 79, 0
1, 44028, Note_on_c, 1, 51, 0
1, 44040, Note_on_c, 0, 80, 80
1, 44040, Note_on_c, 1, 59, 80
1, 44094, Note_on_c, 0, 80, 0
1, 44100, Note_on_c, 0, 79, 80
1, 44148, Note_on_c, 1, 59, 0
1, 44154, Note_on_c, 0, 79, 0
1, 44160, Note_on_c, 0, 77, 80
1, 44160, Note_on_c, 1, 51, 80
1, 44268, Note_on_c, 0, 77, 0
1, 44268, Note_on_c, 1, 51, 0
1, 44280, Note_on_c, 0, 75, 80
1, 44280, Note_on_c, 1, 60, 80
1, 44388, Note_on_c, 0, 75, 0
1, 44388, Note_on_c, 1, 60, 0
1, 44400, Note_on_c, 0, 74, 80
1, 44400, Note_on_c, 1, 51, 80
1, 44508, Note_on_c, 0, 74, 0
1, 44508, Note_on_c, 1, 51, 0
1, 44520, Note_on_c, 0, 72, 80
1, 44520, Note_on_c, 1, 63, 80
1, 44580, Note_on_c, 0, 79, 80
1, 44628, Note_on_c, 0, 72, 0
1, 44628, Note_on_c, 1, 63, 0
1, 44634, Note_on_c, 0, 79, 0
1, 44640, Note_on_c, 0, 77, 80
1, 44640, Note_on_c, 1, 50, 80
1, 44748, Note_on_c, 1, 50, 0
1, 44760, Note_on_c, 1, 53, 80
1, 44868, Note_on_c, 1, 53, 0
1, 44880, Note_on_c, 1, 50, 80
1, 44964, Note_on_c, 0, 77, 0
1, 44988, Note_on_c, 1, 50, 0
1, 45000, Note_on_c, 0, 79, 80
1, 45000, Note_on_c, 1, 57, 80
1, 45054, Note_on_c, 0, 79, 0
1, 45060, Note_on_c, 0, 77, 80
1, 45108, Note_on_c, 1, 57, 0
1, 45114, Note_on_c, 0, 77, 0
1, 45120, Note_on_c, 0, 77, 80
1, 45120, Note_on_c, 1, 50, 80
1, 45174, Note_on_c, 0, 77, 0
1, 45180, Note_on_c, 0, 75, 80
1, 45228, Note_on_c, 1, 50, 0
1, 45234, Note_on_c, 0, 75, 0
1, 45240, Note_on_c, 0, 75, 80
1, 45240, Note_on_c, 1, 58, 80
1, 45294, Note_on_c, 0, 75, 0
1, 45300, Note_on_c, 0, 74, 80
1, 45348, Note_on_c, 1, 58, 0
1, 45354, Note_on_c, 0, 74, 0
1, 45360, Note_on_c, 0, 74, 80
1, 45360, Note_on_c, 1, 50, 80
1, 45414, Note_on_c, 0, 74, 0
1, 45420, Note_on_c, 0, 72, 80
1, 45468, Note_on_c, 1, 50, 0
1, 45474, Note_on_c, 0, 72, 0
1, 45480, Note_on_c, 0, 72, 80
1, 45480, Note_on_c, 1, 62, 80
1, 45534, Note_on_c, 0, 72, 0
1, 45540, Note_on_c, 0, 70, 80
1, 45588, Note_on_c, 1, 62, 0
1, 45594, Note_on_c, 0, 70, 0
1, 45600, Note_on_c, 0, 77, 80
1, 45600, Note_on_c, 1, 57, 80
1, 45654, Note_on_c, 0, 77, 0
1, 45660, Note_on_c, 0, 76, 80
1, 45708, Note_on_c, 1, 57, 0
1, 45714, Note_on_c, 0, 76, 0
1, 45720, Note_on_c, 0, 75, 80
1, 45720, Note_on_c, 1, 65, 80
1, 45828, Note_on_c, 1, 65, 0
1, 45840, Note_on_c, 1, 60, 80
1, 45936, Note_on_c, 0, 75, 0
1, 45948, Note_on_c, 1, 60, 0
1, 45960, Note_on_c, 0, 72, 80
1, 45960, Note_on_c, 1, 65, 80
1, 46068, Note_on_c, 0, 72, 0
1, 46068, Note_on_c, 1, 65, 0
1, 46080, Note_on_c, 0, 75, 80
1, 46080, Note_on_c, 1, 58, 80
1, 46134, Note_on_c, 0, 75, 0
1, 46140, Note_on_c, 0, 73, 80
1, 46188, Note_on_c, 1, 58, 0
1, 46194, Note_on_c, 0, 73, 0
1, 46200, Note_on_c, 0, 74, 80
1, 46200, Note_on_c, 1, 65, 80
1, 46308, Note_on_c, 1, 65, 0
1, 46320, Note_on_c, 1, 62, 80
1, 46416, Note_on_c, 0, 74, 0
1, 46428, Note_on_c, 1, 62, 0
1, 46440, Note_on_c, 0, 70, 80
1, 46440, Note_on_c, 1, 65, 80
1, 46548, Note_on_c, 0, 70, 0
1, 46548, Note_on_c, 1, 65, 0
1, 46560, Note_on_c, 0, 74, 80
1, 46560, Note_on_c, 1, 53, 80
1, 46668, Note_on_c, 1, 53, 0
1, 46680, Note_on_c, 1, 62, 80
1, 46788, Note_on_c, 1, 62, 0
1, 46800, Note_on_c, 1, 58, 80
1, 46884, Note_on_c, 0, 74, 0
1, 46908, Note_on_c, 1, 58, 0
1, 46920, Note_on_c, 0, 75, 80
1, 46920, Note_on_c, 1, 62, 80
1, 46974, Note_on_c, 0, 75, 0
1, 46980, Note_on_c, 0, 74, 80
1, 47028, Note_on_c, 1, 62, 0
1, 47034, Note_on_c, 0, 74, 0
1, 47040, Note_on_c, 0, 72, 80
1, 47040, Note_on_c, 1, 60, 80
1, 47040, Note_on_c, 1, 53, 80
1, 47040, Note_on_c, 1, 57, 80
1, 47112, Note_on_c, 0, 72, 0
1, 47120, Note_on_c, 0, 77, 80
1, 47192, Note_on_c, 0, 77, 0
1, 47200, Note_on_c, 0, 76, 80
1, 47256, Note_on_c, 1, 60, 0
1, 47256, Note_on_c, 1, 53, 0
1, 47256, Note_on_c, 1, 57, 0
1, 47272, Note_on_c, 0, 76, 0
1, 47280, Note_on_c, 0, 75, 80
1, 47334, Note_on_c, 0, 75, 0
1, 47340, Note_on_c, 0, 74, 80
1, 47394, Note_on_c, 0, 74, 0
1, 47400, Note_on_c, 0, 75, 80
1, 47454, Note_on_c, 0, 75, 0
1, 47460, Note_on_c, 0, 72, 80
1, 47514, Note_on_c, 0, 72, 0
1, 47520, Note_on_c, 0, 70, 80
1, 47520, Note_on_c, 1, 58, 80
1, 47628, Note_on_c, 0, 70, 0
1, 47628, Note_on_c, 1, 58, 0
1, 47640, Note_on_c, 0, 70, 80
1, 47640, Note_on_c, 1, 65, 80
1, 47667, Note_on_c, 0, 70, 0
1, 47670, Note_on_c, 0, 72, 80
1, 47697, Note_on_c, 0, 72, 0
1, 47700, Note_on_c, 0, 70, 80
1, 47727, Note_on_c, 0, 70, 0
1, 47730, Note_on_c, 0, 69, 80
1, 47748, Note_on_c, 1, 65, 0
1, 47757, Note_on_c, 0, 69, 0
1, 47760, Note_on_c, 0, 70, 80
1, 47760, Note_on_c, 1, 61, 80
1, 47868, Note_on_c, 0, 70, 0
1, 47868, Note_on_c, 1, 61, 0
1, 47880, Note_on_c, 0, 72, 80
1, 47880, Note_on_c, 1, 65, 80
1, 47988, Note_on_c, 0, 72, 0
1, 47988, Note_on_c, 1, 65, 0
1, 48000, Note_on_c, 0, 73, 80
1, 48000, Note_on_c, 1, 58, 80
1, 48108, Note_on_c, 0, 73, 0
1, 48108, Note_on_c, 1, 58, 0
1, 48120, Note_on_c, 0, 73, 80
1, 48120, Note_on_c, 1, 65, 80
1, 48147, Note_on_c, 0, 73, 0
1, 48150, Note_on_c, 0, 75, 80
1, 48177, Note_on_c, 0, 75, 0
1, 48180, Note_on_c, 0, 73, 80
1, 48207, Note_on_c, 0, 73, 0
1, 48210, Note_on_c, 0, 72, 80
1, 48228, Note_on_c, 1, 65, 0
1, 48237, Note_on_c, 0, 72, 0
1, 48240, Note_on_c, 0, 73, 80
1, 48240, Note_on_c, 1, 61, 80
1, 48348, Note_on_c, 0, 73, 0
1, 48348, Note_on_c, 1, 61, 0
1, 48360, Note_on_c, 0, 75, 80
1, 48360, Note_on_c, 1, 65, 80
1, 48468, Note_on_c, 0, 75, 0
1, 48468, Note_on_c, 1, 65, 0
1, 48480, Note_on_c, 0, 76, 80
1, 48480, Note_on_c, 1, 56, 80
1, 48588, Note_on_c, 1, 56, 0
1, 48600, Note_on_c, 1, 65, 80
1, 48708, Note_on_c, 1, 65, 0
1, 48720, Note_on_c, 1, 60, 80
1, 48804, Note_on_c, 0, 76, 0
1, 48828, Note_on_c, 1, 60, 0
1, 48840, Note_on_c, 0, 77, 80
1, 48840, Note_on_c, 1, 65, 80
1, 48948, Note_on_c, 0, 77, 0
1, 48948, Note_on_c, 1, 65, 0
1, 48960, Note_on_c, 0, 72, 80
1, 48960, Note_on_c, 1, 56, 80
1, 49068, Note_on_c, 1, 56, 0
1, 49080, Note_on_c, 1, 65, 80
1, 49176, Note_on_c, 0, 72, 0
1, 49188, Note_on_c, 1, 65, 0
1, 49200, Note_on_c, 1, 60, 80
1, 49308, Note_on_c, 1, 60, 0
1, 49320, Note_on_c, 1, 65, 80
1, 49428, Note_on_c, 1, 65, 0
1, 49440, Note_on_c, 0, 63, 80
1, 49440, Note_on_c, 1, 54, 80
1, 49548, Note_on_c, 1, 54, 0
1, 49560, Note_on_c, 1, 63, 80
1, 49656, Note_on_c, 0, 63, 0
1, 49668, Note_on_c, 1, 63, 0
1, 49680, Note_on_c, 0, 63, 80
1, 49680, Note_on_c, 1, 58, 80
1, 49710, Note_on_c, 0, 63, 0
1, 49714, Note_on_c, 0, 65, 80
1, 49744, Note_on_c, 0, 65, 0
1, 49748, Note_on_c, 0, 63, 80
1, 49778, Note_on_c, 0, 63, 0
1, 49782, Note_on_c, 0, 62, 80
1, 49788, Note_on_c, 1, 58, 0
1, 49800, Note_on_c, 1, 63, 80
1, 49812, Note_on_c, 0, 62, 0
1, 49817, Note_on_c, 0, 63, 80
1, 49847, Note_on_c, 0, 63, 0
1, 49851, Note_on_c, 0, 63, 80
1, 49881, Note_on_c, 0, 63, 0
1, 49885, Note_on_c, 0, 65, 80
1, 49908, Note_on_c, 1, 63, 0
1, 49915, Note_on_c, 0, 65, 0
1, 49920, Note_on_c, 0, 66, 80
1, 49920, Note_on_c, 1, 51, 80
1, 49947, Note_on_c, 0, 66, 0
1, 49950, Note_on_c, 0, 66, 80
1, 49977, Note_on_c, 0, 66, 0
1, 49980, Note_on_c, 0, 68, 80
1, 50007, Note_on_c, 0, 68, 0
1, 50010, Note_on_c, 0, 69, 80
1, 50028, Note_on_c, 1, 51, 0
1, 50037, Note_on_c, 0, 69, 0
1, 50040, Note_on_c, 0, 70, 80
1, 50040, Note_on_c, 1, 58, 80
1, 50067, Note_on_c, 0, 70, 0
1, 50070, Note_on_c, 0, 71, 80
1, 50097, Note_on_c, 0, 71, 0
1, 50100, Note_on_c, 0, 72, 80
1, 50127, Note_on_c, 0, 72, 0
1, 50130, Note_on_c, 0, 73, 80
1, 50148, Note_on_c, 1, 58, 0
1, 50157, Note_on_c, 0, 73, 0
1, 50160, Note_on_c, 0, 73, 80
1, 50160, Note_on_c, 1, 54, 80
1, 50187, Note_on_c, 0, 73, 0
1, 50190, Note_on_c, 0, 75, 80
1, 50217, Note_on_c, 0, 75, 0
1, 50220, Note_on_c, 0, 75, 80
1, 50247, Note_on_c, 0, 75, 0
1, 50250, Note_on_c, 0, 77, 80
1, 50268, Note_on_c, 1, 54, 0
1, 50277, Note_on_c, 0, 77, 0
1, 50280, Note_on_c, 0, 78, 80
1, 50280, Note_on_c, 1, 58, 80
1, 50307, Note_on_c, 0, 78, 0
1, 50310, Note_on_c, 0, 79, 80
1, 50337, Note_on_c, 0, 79, 0
1, 50340, Note_on_c, 0, 80, 80
1, 50367, Note_on_c, 0, 80, 0
1, 50370, Note_on_c, 0, 81, 80
1, 50388, Note_on_c, 1, 58, 0
1, 50397, Note_on_c, 0, 81, 0
1, 50400, Note_on_c, 0, 80, 80
1, 50400, Note_on_c, 1, 50, 80
1, 50508, Note_on_c, 0, 80, 0
1, 50508, Note_on_c, 1, 50, 0
1, 50520, Note_on_c, 0, 80, 80
1, 50520, Note_on_c, 1, 58, 80
1, 50547, Note_on_c, 0, 80, 0
1, 50550, Note_on_c, 0, 82, 80
1, 50577, Note_on_c, 0, 82, 0
1, 50580, Note_on_c, 0, 80, 80
1, 50607, Note_on_c, 0, 80, 0
1, 50610, Note_on_c, 0, 78, 80
1, 50628, Note_on_c, 1, 58, 0
1, 50637, Note_on_c, 0, 78, 0
1, 50640, Note_on_c, 0, 80, 80
1, 50640, Note_on_c, 1, 53, 80
1, 50748, Note_on_c, 0, 80, 0
1, 50748, Note_on_c, 1, 53, 0
1, 50760, Note_on_c, 0, 82, 80
1, 50760, Note_on_c, 1, 58, 80
1, 50868, Note_on_c, 0, 82, 0
1, 50868, Note_on_c, 1, 58, 0
1, 50880, Note_on_c, 0, 77, 80
1, 50880, Note_on_c, 1, 49, 80
1, 50988, Note_on_c, 1, 49, 0
1, 51000, Note_on_c, 1, 58, 80
1, 51096, Note_on_c, 0, 77, 0
1, 51108, Note_on_c, 1, 58, 0
1, 51120, Note_on_c, 1, 53, 80
1, 51228, Note_on_c, 1, 53, 0
1, 51240, Note_on_c, 1, 58, 80
1, 51300, Note_on_c, 0, 76, 80
1, 51348, Note_on_c, 1, 58, 0
1, 51354, Note_on_c, 0, 76, 0
1, 51360, Note_on_c, 0, 85, 80
1, 51360, Note_on_c, 1, 48, 80
1, 51468, Note_on_c, 1, 48, 0
1, 51480, Note_on_c, 1, 58, 80
1, 51588, Note_on_c, 1, 58, 0
1, 51600, Note_on_c, 1, 55, 80
1, 51708, Note_on_c, 1, 55, 0
1, 51720, Note_on_c, 1, 58, 80
1, 51792, Note_on_c, 0, 85, 0
1, 51828, Note_on_c, 1, 58, 0
1, 51840, Note_on_c, 0, 85, 80
1, 51840, Note_on_c, 1, 48, 80
1, 51948, Note_on_c, 0, 85, 0
1, 51948, Note_on_c, 1, 48, 0
1, 51960, Note_on_c, 0, 84, 80
1, 51960, Note_on_c, 1, 58, 80
1, 52014, Note_on_c, 0, 84, 0
1, 52020, Note_on_c, 0, 82, 80
1, 52068, Note_on_c, 1, 58, 0
1, 52080, Note_on_c, 0, 80, 80
1, 52080, Note_on_c, 1, 55, 80
1, 52128, Note_on_c, 0, 82, 0
1, 52134, Note_on_c, 0, 80, 0
1, 52140, Note_on_c, 0, 79, 80
1, 52188, Note_on_c, 1, 55, 0
1, 52200, Note_on_c, 0, 77, 80
1, 52200, Note_on_c, 1, 58, 80
1, 52248, Note_on_c, 0, 79, 0
1, 52254, Note_on_c, 0, 77, 0
1, 52260, Note_on_c, 0, 76, 80
1, 52308, Note_on_c, 1, 58, 0
1, 52320, Note_on_c, 0, 79, 80
1, 52320, Note_on_c, 1, 49, 80
1, 52368, Note_on_c, 0, 76, 0
1, 52428, Note_on_c, 1, 49, 0
1, 52440, Note_on_c, 1, 56, 80
1, 52536, Note_on_c, 0, 79, 0
1, 52548, Note_on_c, 1, 56, 0
1, 52560, Note_on_c, 0, 77, 80
1, 52560, Note_on_c, 1, 53, 80
1, 52668, Note_on_c, 1, 53, 0
1, 52680, Note_on_c, 1, 56, 80
1, 52776, Note_on_c, 0, 77, 0
1, 52788, Note_on_c, 1, 56, 0
1, 52800, Note_on_c, 0, 77, 80
1, 52800, Note_on_c, 1, 46, 80
1, 52908, Note_on_c, 0, 77, 0
1, 52908, Note_on_c, 1, 46, 0
1, 52920, Note_on_c, 0, 76, 80
1, 52920, Note_on_c, 1, 55, 80
1, 53028, Note_on_c, 0, 76, 0
1, 53028, Note_on_c, 1, 55, 0
1, 53040, Note_on_c, 0, 75, 80
1, 53040, Note_on_c, 1, 49, 80
1, 53112, Note_on_c, 0, 75, 0
1, 53120, Note_on_c, 0, 74, 80
1, 53148, Note_on_c, 1, 49, 0
1, 53160, Note_on_c, 1, 55, 80
1, 53192, Note_on_c, 0, 74, 0
1, 53200, Note_on_c, 0, 73, 80
1, 53268, Note_on_c, 1, 55, 0
1, 53272, Note_on_c, 0, 73, 0
1, 53280, Note_on_c, 0, 72, 80
1, 53280, Note_on_c, 1, 48, 80
1, 53388, Note_on_c, 0, 72, 0
1, 53388, Note_on_c, 1, 48, 0
1, 53400, Note_on_c, 0, 72, 80
1, 53400, Note_on_c, 1, 56, 80
1, 53427, Note_on_c, 0, 72, 0
1, 53430, Note_on_c, 0, 73, 80
1, 53457, Note_on_c, 0, 73, 0
1, 53460, Note_on_c, 0, 72, 80
1, 53487, Note_on_c, 0, 72, 0
1, 53490, Note_on_c, 0, 70, 80
1, 53508, Note_on_c, 1, 56, 0
1, 53517, Note_on_c, 0, 70, 0
1, 53520, Note_on_c, 0, 72, 80
1, 53520, Note_on_c, 1, 53, 80
1, 53628, Note_on_c, 0, 72, 0
1, 53628, Note_on_c, 1, 53, 0
1, 53640, Note_on_c, 0, 73, 80
1, 53640, Note_on_c, 1, 56, 80
1, 53748, Note_on_c, 0, 73, 0
1, 53748, Note_on_c, 1, 56, 0
1, 53760, Note_on_c, 0, 65, 80
1, 53760, Note_on_c, 1, 48, 80
1, 53868, Note_on_c, 1, 48, 0
1, 53880, Note_on_c, 1, 58, 80
1, 53976, Note_on_c, 0, 65, 0
1, 53988, Note_on_c, 1, 58, 0
1, 54000, Note_on_c, 0, 64, 80
1, 54000, Note_on_c, 0, 68, 80
1, 54000, Note_on_c, 1, 55, 80
1, 54108, Note_on_c, 1, 55, 0
1, 54120, Note_on_c, 0, 67, 80
1, 54120, Note_on_c, 1, 58, 80
1, 54216, Note_on_c, 0, 64, 0
1, 54216, Note_on_c, 0, 68, 0
1, 54228, Note_on_c, 0, 67, 0
1, 54228, Note_on_c, 1, 58, 0
1, 54240, Note_on_c, 0, 65, 80
1, 54240, Note_on_c, 1, 53, 80
1, 54240, Note_on_c, 1, 57, 80
1, 54348, Note_on_c, 1, 57, 0
1, 54360, Note_on_c, 1, 65, 80
1, 54456, Note_on_c, 1, 53, 0
1, 54468, Note_on_c, 1, 65, 0
1, 54480, Note_on_c, 1, 65, 80
1, 54588, Note_on_c, 1, 65, 0
1, 54600, Note_on_c, 1, 65, 80
1, 54672, Note_on_c, 0, 65, 0
1, 54708, Note_on_c, 1, 65, 0
1, 54720, Note_on_c, 1, 58, 80
1, 54720, Note_on_c, 1, 62, 80
1, 54828, Note_on_c, 1, 62, 0
1, 54840, Note_on_c, 1, 65, 80
1, 54936, Note_on_c, 1, 58, 0
1, 54948, Note_on_c, 1, 65, 0
1, 54960, Note_on_c, 1, 60, 80
1, 54960, Note_on_c, 1, 63, 80
1, 55068, Note_on_c, 1, 63, 0
1, 55080, Note_on_c, 1, 65, 80
1, 55176, Note_on_c, 1, 60, 0
1, 55188, Note_on_c, 1, 65, 0
1, 55200, Note_on_c, 0, 75, 80
1, 55200, Note_on_c, 1, 57, 80
1, 55200, Note_on_c, 1, 60, 80
1, 55308, Note_on_c, 1, 60, 0
1, 55320, Note_on_c, 1, 65, 80
1, 55416, Note_on_c, 0, 75, 0
1, 55416, Note_on_c, 1, 57, 0
1, 55428, Note_on_c, 1, 65, 0
1, 55440, Note_on_c, 1, 65, 80
1, 55548, Note_on_c, 1, 65, 0
1, 55560, Note_on_c, 1, 65, 80
1, 55668, Note_on_c, 1, 65, 0
1, 55680, Note_on_c, 0, 72, 80
1, 55680, Note_on_c, 1, 53, 80
1, 55680, Note_on_c, 1, 57, 80
1, 55788, Note_on_c, 1, 57, 0
1, 55800, Note_on_c, 1, 65, 80
1, 55896, Note_on_c, 0, 72, 0
1, 55896, Note_on_c, 1, 53, 0
1, 55908, Note_on_c, 1, 65, 0
1, 55920, Note_on_c, 0, 69, 80
1, 55920, Note_on_c, 1, 60, 80
1, 55920, Note_on_c, 1, 63, 80
1, 56028, Note_on_c, 1, 63, 0
1, 56040, Note_on_c, 1, 65, 80
1, 56136, Note_on_c, 0, 69, 0
1, 56136, Note_on_c, 1, 60, 0
1, 56148, Note_on_c, 1, 65, 0
1, 56160, Note_on_c, 0, 77, 80
1, 56160, Note_on_c, 1, 58, 80
1, 56160, Note_on_c, 1, 62, 80
1, 56268, Note_on_c, 1, 62, 0
1, 56280, Note_on_c, 1, 65, 80
1, 56322, Note_on_c, 0, 77, 0
1, 56340, Note_on_c, 0, 74, 80
1, 56376, Note_on_c, 1, 58, 0
1, 56388, Note_on_c, 1, 65, 0
1, 56394, Note_on_c, 0, 74, 0
1, 56400, Note_on_c, 0, 77, 80
1, 56400, Note_on_c, 1, 65, 80
1, 56508, Note_on_c, 1, 65, 0
1, 56520, Note_on_c, 1, 65, 80
1, 56616, Note_on_c, 0, 77, 0
1, 56628, Note_on_c, 1, 65, 0
1, 56640, Note_on_c, 1, 58, 80
1, 56640, Note_on_c, 1, 62, 80
1, 56748, Note_on_c, 1, 62, 0
1, 56760, Note_on_c, 1, 65, 80
1, 56856, Note_on_c, 1, 58, 0
1, 56868, Note_on_c, 1, 65, 0
1, 56880, Note_on_c, 1, 60, 80
1, 56880, Note_on_c, 1, 63, 80
1, 56988, Note_on_c, 1, 63, 0
1, 57000, Note_on_c, 1, 65, 80
1, 57096, Note_on_c, 1, 60, 0
1, 57108, Note_on_c, 1, 65, 0
1, 57120, Note_on_c, 0, 77, 80
1, 57120, Note_on_c, 1, 57, 80
1, 57120, Note_on_c, 1, 60, 80
1, 57228, Note_on_c, 0, 77, 0
1, 57228, Note_on_c, 1, 60, 0
1, 57240, Note_on_c, 0, 75, 80
1, 57240, Note_on_c, 1, 65, 80
1, 57336, Note_on_c, 1, 57, 0
1, 57348, Note_on_c, 0, 75, 0
1, 57348, Note_on_c, 1, 65, 0
1, 57360, Note_on_c, 1, 65, 80
1, 57468, Note_on_c, 1, 65, 0
1, 57480, Note_on_c, 1, 65, 80
1, 57588, Note_on_c, 1, 65, 0
1, 57600, Note_on_c, 0, 74, 80
1, 57600, Note_on_c, 1, 53, 80
1, 57600, Note_on_c, 1, 57, 80
1, 57708, Note_on_c, 0, 74, 0
1, 57708, Note_on_c, 1, 57, 0
1, 57720, Note_on_c, 0, 72, 80
1, 57720, Note_on_c, 1, 65, 80
1, 57774, Note_on_c, 0, 72, 0
1, 57816, Note_on_c, 1, 53, 0
1, 57828, Note_on_c, 1, 65, 0
1, 57840, Note_on_c, 0, 70, 80
1, 57840, Note_on_c, 1, 60, 80
1, 57840, Note_on_c, 1, 63, 80
1, 57948, Note_on_c, 0, 70, 0
1, 57948, Note_on_c, 1, 63, 0
1, 57960, Note_on_c, 0, 69, 80
1, 57960, Note_on_c, 1, 65, 80
1, 58014, Note_on_c, 0, 69, 0
1, 58056, Note_on_c, 1, 60, 0
1, 58068, Note_on_c, 1, 65, 0
1, 58080, Note_on_c, 0, 77, 80
1, 58080, Note_on_c, 1, 62, 80
1, 58080, Note_on_c, 1, 58, 80
1, 58242, Note_on_c, 0, 77, 0
1, 58260, Note_on_c, 0, 74, 80
1, 58296, Note_on_c, 1, 62, 0
1, 58296, Note_on_c, 1, 58, 0
1, 58314, Note_on_c, 0, 74, 0
1, 58320, Note_on_c, 0, 77, 80
1, 58536, Note_on_c, 0, 77, 0
1, 58560, Note_on_c, 0, 86, 80
1, 58560, Note_on_c, 0, 82, 80
1, 58560, Note_on_c, 1, 74, 80
1, 58560, Note_on_c, 1, 70, 80
1, 58668, Note_on_c, 0, 86, 0
1, 58668, Note_on_c, 0, 82, 0
1, 58668, Note_on_c, 1, 74, 0
1, 58668, Note_on_c, 1, 70, 0
1, 58680, Note_on_c, 0, 84, 80
1, 58680, Note_on_c, 0, 81, 80
1, 58680, Note_on_c, 1, 72, 80
1, 58680, Note_on_c, 1, 69, 80
1, 58788, Note_on_c, 0, 84, 0
1, 58788, Note_on_c, 0, 81, 0
1, 58788, Note_on_c, 1, 72, 0
1, 58788, Note_on_c, 1, 69, 0
1, 58800, Note_on_c, 0, 82, 80
1, 58800, Note_on_c, 0, 79, 80
1, 58800, Note_on_c, 1, 70, 80
1, 58800, Note_on_c, 1, 67, 80
1, 58908, Note_on_c, 0, 82, 0
1, 58908, Note_on_c, 0, 79, 0
1, 58908, Note_on_c, 1, 70, 0
1, 58908, Note_on_c, 1, 67, 0
1, 58920, Note_on_c, 0, 78, 80
1, 58920, Note_on_c, 0, 81, 80
1, 58920, Note_on_c, 1, 69, 80
1, 58920, Note_on_c, 1, 66, 80
1, 59028, Note_on_c, 0, 78, 0
1, 59028, Note_on_c, 0, 81, 0
1, 59028, Note_on_c, 1, 69, 0
1, 59028, Note_on_c, 1, 66, 0
1, 59040, Note_on_c, 0, 82, 80
1, 59040, Note_on_c, 0, 79, 80
1, 59040, Note_on_c, 1, 70, 80
1, 59040, Note_on_c, 1, 67, 80
1, 59148, Note_on_c, 0, 82, 0
1, 59148, Note_on_c, 0, 79, 0
1, 59148, Note_on_c, 1, 70, 0
1, 59148, Note_on_c, 1, 67, 0
1, 59160, Note_on_c, 0, 77, 80
1, 59160, Note_on_c, 0, 81, 80
1, 59160, Note_on_c, 1, 65, 80
1, 59160, Note_on_c, 1, 69, 80
1, 59268, Note_on_c, 0, 77, 0
1, 59268, Note_on_c, 0, 81, 0
1, 59268, Note_on_c, 1, 65, 0
1, 59268, Note_on_c, 1, 69, 0
1, 59280, Note_on_c, 0, 75, 80
1, 59280, Note_on_c, 0, 79, 80
1, 59280, Note_on_c, 1, 63, 80
1, 59280, Note_on_c, 1, 67, 80
1, 59388, Note_on_c, 0, 75, 0
1, 59388, Note_on_c, 0, 79, 0
1, 59388, Note_on_c, 1, 63, 0
1, 59388, Note_on_c, 1, 67, 0
1, 59400, Note_on_c, 0, 78, 80
1, 59400, Note_on_c, 0, 74, 80
1, 59400, Note_on_c, 1, 66, 80
1, 59400, Note_on_c, 1, 62, 80
1, 59508, Note_on_c, 0, 78, 0
1, 59508, Note_on_c, 0, 74, 0
1, 59508, Note_on_c, 1, 66, 0
1, 59508, Note_on_c, 1, 62, 0
1, 59520, Note_on_c, 0, 79, 80
1, 59520, Note_on_c, 0, 75, 80
1, 59520, Note_on_c, 1, 67, 80
1, 59520, Note_on_c, 1, 63, 80
1, 59628, Note_on_c, 0, 79, 0
1, 59628, Note_on_c, 0, 75, 0
1, 59628, Note_on_c, 1, 67, 0
1, 59628, Note_on_c, 1, 63, 0
1, 59640, Note_on_c, 0, 77, 80
1, 59640, Note_on_c, 0, 74, 80
1, 59640, Note_on_c, 1, 65, 80
1, 59640, Note_on_c, 1, 62, 80
1, 59748, Note_on_c, 0, 77, 0
1, 59748, Note_on_c, 0, 74, 0
1, 59748, Note_on_c, 1, 65, 0
1, 59748, Note_on_c, 1, 62, 0
1, 59760, Note_on_c, 0, 72, 80
1, 59760, Note_on_c, 0, 75, 80
1, 59760, Note_on_c, 1, 63, 80
1, 59760, Note_on_c, 1, 60, 80
1, 59868, Note_on_c, 0, 72, 0
1, 59868, Note_on_c, 0, 75, 0
1, 59868, Note_on_c, 1, 63, 0
1, 59868, Note_on_c, 1, 60, 0
1, 59880, Note_on_c, 0, 71, 80
1, 59880, Note_on_c, 0, 74, 80
1, 59880, Note_on_c, 1, 59, 80
1, 59880, Note_on_c, 1, 62, 80
1, 59988, Note_on_c, 0, 71, 0
1, 59988, Note_on_c, 0, 74, 0
1, 59988, Note_on_c, 1, 59, 0
1, 59988, Note_on_c, 1, 62, 0
1, 60000, Note_on_c, 0, 71, 80
1, 60000, Note_on_c, 0, 67, 80
1, 60000, Note_on_c, 0, 74, 80
1, 60000, Note_on_c, 1, 62, 80
1, 60000, Note_on_c, 1, 55, 80
1, 60000, Note_on_c, 1, 65, 80
1, 60000, Note_on_c, 1, 59, 80
1, 60432, Note_on_c, 0, 71, 0
1, 60432, Note_on_c, 0, 67, 0
1, 60432, Note_on_c, 0, 74, 0
1, 60432, Note_on_c, 1, 62, 0
1, 60432, Note_on_c, 1, 55, 0
1, 60432, Note_on_c, 1, 65, 0
1, 60432, Note_on_c, 1, 59, 0
1, 60480, Note_on_c, 0, 77, 80
1, 60480, Note_on_c, 1, 63, 80
1, 60480, Note_on_c, 1, 60, 80
1, 60534, Note_on_c, 0, 77, 0
1, 60540, Note_on_c, 0, 75, 80
1, 60594, Note_on_c, 0, 75, 0
1, 60600, Note_on_c, 0, 74, 80
1, 60654, Note_on_c, 0, 74, 0
1, 60660, Note_on_c, 0, 75, 80
1, 60696, Note_on_c, 1, 63, 0
1, 60714, Note_on_c, 0, 75, 0
1, 60720, Note_on_c, 0, 77, 80
1, 60720, Note_on_c, 1, 69, 80
1, 60828, Note_on_c, 0, 77, 0
1, 60840, Note_on_c, 0, 79, 80
1, 60912, Note_on_c, 1, 60, 0
1, 60936, Note_on_c, 1, 69, 0
1, 60948, Note_on_c, 0, 79, 0
1, 60960, Note_on_c, 0, 79, 80
1, 60960, Note_on_c, 1, 70, 80
1, 60960, Note_on_c, 1, 62, 80
1, 61014, Note_on_c, 0, 79, 0
1, 61020, Note_on_c, 0, 77, 80
1, 61074, Note_on_c, 0, 77, 0
1, 61080, Note_on_c, 0, 75, 80
1, 61134, Note_on_c, 0, 75, 0
1, 61140, Note_on_c, 0, 74, 80
1, 61176, Note_on_c, 1, 70, 0
1, 61176, Note_on_c, 1, 62, 0
1, 61194, Note_on_c, 0, 74, 0
1, 61200, Note_on_c, 0, 71, 80
1, 61200, Note_on_c, 1, 67, 80
1, 61200, Note_on_c, 1, 63, 80
1, 61254, Note_on_c, 0, 71, 0
1, 61260, Note_on_c, 0, 72, 80
1, 61314, Note_on_c, 0, 72, 0
1, 61320, Note_on_c, 0, 75, 80
1, 61374, Note_on_c, 0, 75, 0
1, 61380, Note_on_c, 0, 79, 80
1, 61416, Note_on_c, 1, 67, 0
1, 61416, Note_on_c, 1, 63, 0
1, 61434, Note_on_c, 0, 79, 0
1, 61440, Note_on_c, 0, 70, 80
1, 61440, Note_on_c, 1, 53, 80
1, 61440, Note_on_c, 1, 62, 80
1, 61656, Note_on_c, 0, 70, 0
1, 61656, Note_on_c, 1, 62, 0
1, 61680, Note_on_c, 0, 72, 80
1, 61680, Note_on_c, 0, 69, 80
1, 61680, Note_on_c, 1, 63, 80
1, 61872, Note_on_c, 1, 53, 0
1, 61896, Note_on_c, 0, 72, 0
1, 61896, Note_on_c, 0, 69, 0
1, 61896, Note_on_c, 1, 63, 0
1, 61920, Note_on_c, 0, 72, 80
1, 61920, Note_on_c, 0, 69, 80
1, 61920, Note_on_c, 1, 58, 80
1, 61920, Note_on_c, 1, 62, 80
1, 62028, Note_on_c, 1, 62, 0
1, 62040, Note_on_c, 1, 65, 80
1, 62082, Note_on_c, 0, 72, 0
1, 62100, Note_on_c, 0, 73, 80
1, 62136, Note_on_c, 0, 69, 0
1, 62136, Note_on_c, 1, 58, 0
1, 62148, Note_on_c, 1, 65, 0
1, 62154, Note_on_c, 0, 73, 0
1, 62160, Note_on_c, 0, 74, 80
1, 62160, Note_on_c, 0, 70, 80
1, 62160, Note_on_c, 1, 65, 80
1, 62268, Note_on_c, 1, 65, 0
1, 62280, Note_on_c, 1, 65, 80
1, 62376, Note_on_c, 0, 74, 0
1, 62376, Note_on_c, 0, 70, 0
1, 62388, Note_on_c, 1, 65, 0
1, 62400, Note_on_c, 1, 58, 80
1, 62400, Note_on_c, 1, 62, 80
1, 62508, Note_on_c, 1, 62, 0
1, 62520, Note_on_c, 1, 65, 80
1, 62616, Note_on_c, 1, 58, 0
1, 62628, Note_on_c, 1, 65, 0
1, 62640, Note_on_c, 1, 60, 80
1, 62640, Note_on_c, 1, 63, 80
1, 62748, Note_on_c, 1, 63, 0
1, 62760, Note_on_c, 1, 65, 80
1, 62856, Note_on_c, 1, 60, 0
1, 62868, Note_on_c, 1, 65, 0
1, 62880, Note_on_c, 0, 77, 80
1, 62880, Note_on_c, 1, 57, 80
1, 62880, Note_on_c, 1, 60, 80
1, 62988, Note_on_c, 0, 77, 0
1, 62988, Note_on_c, 1, 60, 0
1, 63000, Note_on_c, 0, 75, 80
1, 63000, Note_on_c, 1, 65, 80
1, 63096, Note_on_c, 1, 57, 0
1, 63108, Note_on_c, 0, 75, 0
1, 63108, Note_on_c, 1, 65, 0
1, 63120, Note_on_c, 1, 65, 80
1, 63228, Note_on_c, 1, 65, 0
1, 63240, Note_on_c, 1, 65, 80
1, 63348, Note_on_c, 1, 65, 0
1, 63360, Note_on_c, 0, 74, 80
1, 63360, Note_on_c, 1, 53, 80
1, 63360, Note_on_c, 1, 57, 80
1, 63468, Note_on_c, 0, 74, 0
1, 63468, Note_on_c, 1, 57, 0
1, 63480, Note_on_c, 0, 72, 80
1, 63480, Note_on_c, 1, 65, 80
1, 63576, Note_on_c, 1, 53, 0
1, 63588, Note_on_c, 0, 72, 0
1, 63588, Note_on_c, 1, 65, 0
1, 63600, Note_on_c, 0, 70, 80
1, 63600, Note_on_c, 1, 60, 80
1, 63600, Note_on_c, 1, 63, 80
1, 63708, Note_on_c, 0, 70, 0
1, 63708, Note_on_c, 1, 63, 0
1, 63720, Note_on_c, 0, 69, 80
1, 63720, Note_on_c, 1, 65, 80
1, 63816, Note_on_c, 1, 60, 0
1, 63828, Note_on_c, 0, 69, 0
1, 63828, Note_on_c, 1, 65, 0
1, 63840, Note_on_c, 0, 77, 80
1, 63840, Note_on_c, 1, 58, 80
1, 63840, Note_on_c, 1, 62, 80
1, 63948, Note_on_c, 1, 62, 0
1, 63960, Note_on_c, 1, 65, 80
1, 64002, Note_on_c, 0, 77, 0
1, 64020, Note_on_c, 0, 74, 80
1, 64056, Note_on_c, 1, 58, 0
1, 64068, Note_on_c, 1, 65, 0
1, 64074, Note_on_c, 0, 74, 0
1, 64080, Note_on_c, 0, 77, 80
1, 64080, Note_on_c, 1, 65, 80
1, 64188, Note_on_c, 1, 65, 0
1, 64200, Note_on_c, 1, 65, 80
1, 64296, Note_on_c, 0, 77, 0
1, 64308, Note_on_c, 1, 65, 0
1, 64320, Note_on_c, 1, 58, 80
1, 64320, Note_on_c, 1, 62, 80
1, 64428, Note_on_c, 1, 62, 0
1, 64440, Note_on_c, 1, 65, 80
1, 64536, Note_on_c, 1, 58, 0
1, 64548, Note_on_c, 1, 65, 0
1, 64560, Note_on_c, 1, 60, 80
1, 64560, Note_on_c, 1, 63, 80
1, 64668, Note_on_c, 1, 63, 0
1, 64680, Note_on_c, 1, 65, 80
1, 64776, Note_on_c, 1, 60, 0
1, 64788, Note_on_c, 1, 65, 0
1, 64800, Note_on_c, 0, 77, 80
1, 64800, Note_on_c, 1, 57, 80
1, 64800, Note_on_c, 1, 60, 80
1, 64854, Note_on_c, 0, 77, 0
1, 64860, Note_on_c, 0, 76, 80
1, 64908, Note_on_c, 1, 60, 0
1, 64920, Note_on_c, 0, 75, 80
1, 64920, Note_on_c, 1, 65, 80
1, 64968, Note_on_c, 0, 76, 0
1, 65016, Note_on_c, 1, 57, 0
1, 65028, Note_on_c, 0, 75, 0
1, 65028, Note_on_c, 1, 65, 0
1, 65040, Note_on_c, 1, 65, 80
1, 65148, Note_on_c, 1, 65, 0
1, 65160, Note_on_c, 1, 65, 80
1, 65268, Note_on_c, 1, 65, 0
1, 65280, Note_on_c, 0, 74, 80
1, 65280, Note_on_c, 1, 53, 80
1, 65280, Note_on_c, 1, 57, 80
1, 65334, Note_on_c, 0, 74, 0
1, 65340, Note_on_c, 0, 74, 80
1, 65388, Note_on_c, 1, 57, 0
1, 65394, Note_on_c, 0, 74, 0
1, 65400, Note_on_c, 0, 75, 80
1, 65400, Note_on_c, 1, 65, 80
1, 65454, Note_on_c, 0, 75, 0
1, 65460, Note_on_c, 0, 72, 80
1, 65496, Note_on_c, 1, 53, 0
1, 65508, Note_on_c, 1, 65, 0
1, 65514, Note_on_c, 0, 72, 0
1, 65520, Note_on_c, 0, 70, 80
1, 65520, Note_on_c, 1, 60, 80
1, 65520, Note_on_c, 1, 63, 80
1, 65574, Note_on_c, 0, 70, 0
1, 65580, Note_on_c, 0, 70, 80
1, 65628, Note_on_c, 1, 63, 0
1, 65634, Note_on_c, 0, 70, 0
1, 65640, Note_on_c, 0, 72, 80
1, 65640, Note_on_c, 1, 65, 80
1, 65694, Note_on_c, 0, 72, 0
1, 65700, Note_on_c, 0, 69, 80
1, 65736, Note_on_c, 1, 60, 0
1, 65748, Note_on_c, 1, 65, 0
1, 65754, Note_on_c, 0, 69, 0
1, 65760, Note_on_c, 0, 77, 80
1, 65760, Note_on_c, 1, 62, 80
1, 65760, Note_on_c, 1, 58, 80
1, 65814, Note_on_c, 0, 77, 0
1, 65820, Note_on_c, 0, 79, 80
1, 65874, Note_on_c, 0, 79, 0
1, 65880, Note_on_c, 0, 77, 80
1, 65934, Note_on_c, 0, 77, 0
1, 65940, Note_on_c, 0, 76, 80
1, 65976, Note_on_c, 1, 62, 0
1, 65976, Note_on_c, 1, 58, 0
1, 66060, Note_on_c, 0, 77, 80
1, 66114, Note_on_c, 0, 77, 0
1, 66120, Note_on_c, 0, 82, 80
1, 66156, Note_on_c, 0, 76, 0
1, 66174, Note_on_c, 0, 82, 0
1, 66180, Note_on_c, 0, 77, 80
1, 66240, Note_on_c, 1, 74, 80
1, 66240, Note_on_c, 1, 70, 80
1, 66300, Note_on_c, 0, 86, 80
1, 66300, Note_on_c, 0, 82, 80
1, 66348, Note_on_c, 1, 74, 0
1, 66348, Note_on_c, 1, 70, 0
1, 66360, Note_on_c, 1, 72, 80
1, 66360, Note_on_c, 1, 69, 80
1, 66396, Note_on_c, 0, 77, 0
1, 66408, Note_on_c, 0, 86, 0
1, 66408, Note_on_c, 0, 82, 0
1, 66420, Note_on_c, 0, 84, 80
1, 66420, Note_on_c, 0, 81, 80
1, 66468, Note_on_c, 1, 72, 0
1, 66468, Note_on_c, 1, 69, 0
1, 66480, Note_on_c, 1, 70, 80
1, 66480, Note_on_c, 1, 67, 80
1, 66528, Note_on_c, 0, 84, 0
1, 66528, Note_on_c, 0, 81, 0
1, 66540, Note_on_c, 0, 82, 80
1, 66540, Note_on_c, 0, 79, 80
1, 66588, Note_on_c, 1, 70, 0
1, 66588, Note_on_c, 1, 67, 0
1, 66600, Note_on_c, 1, 69, 80
1, 66600, Note_on_c, 1, 66, 80
1, 66648, Note_on_c, 0, 82, 0
1, 66648, Note_on_c, 0, 79, 0
1, 66660, Note_on_c, 0, 78, 80
1, 66660, Note_on_c, 0, 81, 80
1, 66708, Note_on_c, 1, 69, 0
1, 66708, Note_on_c, 1, 66, 0
1, 66714, Note_on_c, 0, 78, 0
1, 66714, Note_on_c, 0, 81, 0
1, 66720, Note_on_c, 0, 81, 80
1, 66720, Note_on_c, 0, 78, 80
1, 66720, Note_on_c, 1, 70, 80
1, 66720, Note_on_c, 1, 67, 80
1, 66774, Note_on_c, 0, 81, 0
1, 66774, Note_on_c, 0, 78, 0
1, 66780, Note_on_c, 0, 82, 80
1, 66780, Note_on_c, 0, 79, 80
1, 66828, Note_on_c, 1, 70, 0
1, 66828, Note_on_c, 1, 67, 0
1, 66840, Note_on_c, 1, 65, 80
1, 66840, Note_on_c, 1, 69, 80
1, 66888, Note_on_c, 0, 82, 0
1, 66888, Note_on_c, 0, 79, 0
1, 66900, Note_on_c, 0, 77, 80
1, 66900, Note_on_c, 0, 81, 80
1, 66948, Note_on_c, 1, 65, 0
1, 66948, Note_on_c, 1, 69, 0
1, 66960, Note_on_c, 1, 63, 80
1, 66960, Note_on_c, 1, 67, 80
1, 67008, Note_on_c, 0, 77, 0
1, 67008, Note_on_c, 0, 81, 0
1, 67020, Note_on_c, 0, 75, 80
1, 67020, Note_on_c, 0, 79, 80
1, 67068, Note_on_c, 1, 63, 0
1, 67068, Note_on_c, 1, 67, 0
1, 67080, Note_on_c, 1, 66, 80
1, 67080, Note_on_c, 1, 62, 80
1, 67128, Note_on_c, 0, 75, 0
1, 67128, Note_on_c, 0, 79, 0
1, 67140, Note_on_c, 0, 78, 80
1, 67140, Note_on_c, 0, 74, 80
1, 67188, Note_on_c, 1, 66, 0
1, 67188, Note_on_c, 1, 62, 0
1, 67200, Note_on_c, 1, 67, 80
1, 67200, Note_on_c, 1, 63, 80
1, 67248, Note_on_c, 0, 78, 0
1, 67248, Note_on_c, 0, 74, 0
1, 67260, Note_on_c, 0, 79, 80
1, 67260, Note_on_c, 0, 75, 80
1, 67308, Note_on_c, 1, 67, 0
1, 67308, Note_on_c, 1, 63, 0
1, 67320, Note_on_c, 1, 65, 80
1, 67320, Note_on_c, 1, 62, 80
1, 67368, Note_on_c, 0, 79, 0
1, 67368, Note_on_c, 0, 75, 0
1, 67380, Note_on_c, 0, 74, 80
1, 67380, Note_on_c, 0, 77, 80
1, 67428, Note_on_c, 1, 65, 0
1, 67428, Note_on_c, 1, 62, 0
1, 67440, Note_on_c, 1, 63, 80
1, 67440, Note_on_c, 1, 60, 80
1, 67488, Note_on_c, 0, 74, 0
1, 67488, Note_on_c, 0, 77, 0
1, 67500, Note_on_c, 0, 72, 80
1, 67500, Note_on_c, 0, 75, 80
1, 67548, Note_on_c, 1, 63, 0
1, 67548, Note_on_c, 1, 60, 0
1, 67560, Note_on_c, 1, 59, 80
1, 67560, Note_on_c, 1, 62, 80
1, 67608, Note_on_c, 0, 72, 0
1, 67608, Note_on_c, 0, 75, 0
1, 67620, Note_on_c, 0, 71, 80
1, 67620, Note_on_c, 0, 74, 80
1, 67668, Note_on_c, 1, 59, 0
1, 67668, Note_on_c, 1, 62, 0
1, 67680, Note_on_c, 0, 71, 0
1, 67680, Note_on_c, 0, 74, 0
1, 67680, Note_on_c, 0, 74, 80
1, 67680, Note_on_c, 0, 67, 80
1, 67680, Note_on_c, 0, 71, 80
1, 67680, Note_on_c, 1, 62, 80
1, 67680, Note_on_c, 1, 55, 80
1, 67680, Note_on_c, 1, 65, 80
1, 67680, Note_on_c, 1, 59, 80
1, 68112, Note_on_c, 0, 74, 0
1, 68112, Note_on_c, 0, 67, 0
1, 68112, Note_on_c, 0, 71, 0
1, 68112, Note_on_c, 1, 62, 0
1, 68112, Note_on_c, 1, 55, 0
1, 68112, Note_on_c, 1, 65, 0
1, 68112, Note_on_c, 1, 59, 0
1, 68160, Note_on_c, 0, 77, 80
1, 68160, Note_on_c, 1, 63, 80
1, 68160, Note_on_c, 1, 60, 80
1, 68214, Note_on_c, 0, 77, 0
1, 68220, Note_on_c, 0, 75, 80
1, 68274, Note_on_c, 0, 75, 0
1, 68280, Note_on_c, 0, 74, 80
1, 68334, Note_on_c, 0, 74, 0
1, 68340, Note_on_c, 0, 75, 80
1, 68376, Note_on_c, 1, 63, 0
1, 68394, Note_on_c, 0, 75, 0
1, 68400, Note_on_c, 0, 77, 80
1, 68400, Note_on_c, 1, 69, 80
1, 68508, Note_on_c, 0, 77, 0
1, 68520, Note_on_c, 0, 79, 80
1, 68592, Note_on_c, 1, 60, 0
1, 68616, Note_on_c, 1, 69, 0
1, 68628, Note_on_c, 0, 79, 0
1, 68640, Note_on_c, 0, 77, 80
1, 68640, Note_on_c, 1, 70, 80
1, 68640, Note_on_c, 1, 62, 80
1, 68712, Note_on_c, 0, 77, 0
1, 68720, Note_on_c, 0, 82, 80
1, 68792, Note_on_c, 0, 82, 0
1, 68800, Note_on_c, 0, 74, 80
1, 68856, Note_on_c, 1, 70, 0
1, 68856, Note_on_c, 1, 62, 0
1, 68872, Note_on_c, 0, 74, 0
1, 68880, Note_on_c, 0, 72, 80
1, 68880, Note_on_c, 1, 67, 80
1, 68880, Note_on_c, 1, 63, 80
1, 68952, Note_on_c, 0, 72, 0
1, 68960, Note_on_c, 0, 75, 80
1, 69032, Note_on_c, 0, 75, 0
1, 69040, Note_on_c, 0, 79, 80
1, 69096, Note_on_c, 1, 67, 0
1, 69096, Note_on_c, 1, 63, 0
1, 69112, Note_on_c, 0, 79, 0
1, 69120, Note_on_c, 0, 70, 80
1, 69120, Note_on_c, 1, 53, 80
1, 69120, Note_on_c, 1, 62, 80
1, 69336, Note_on_c, 0, 70, 0
1, 69336, Note_on_c, 1, 62, 0
1, 69360, Note_on_c, 0, 69, 80
1, 69360, Note_on_c, 1, 60, 80
1, 69540, Note_on_c, 0, 62, 80
1, 69552, Note_on_c, 1, 53, 0
1, 69576, Note_on_c, 0, 69, 0
1, 69576, Note_on_c, 1, 60, 0
1, 69594, Note_on_c, 0, 62, 0
1, 69600, Note_on_c, 0, 74, 80
1, 69720, Note_on_c, 1, 46, 80
1, 69816, Note_on_c, 0, 74, 0
1, 69828, Note_on_c, 1, 46, 0
1, 69840, Note_on_c, 0, 74, 80
1, 69840, Note_on_c, 1, 50, 80
1, 69921, Note_on_c, 0, 74, 0
1, 69948, Note_on_c, 1, 50, 0
1, 69960, Note_on_c, 0, 70, 80
1, 69960, Note_on_c, 1, 55, 80
1, 69981, Note_on_c, 0, 70, 0
1, 69984, Note_on_c, 0, 72, 80
1, 70005, Note_on_c, 0, 72, 0
1, 70008, Note_on_c, 0, 70, 80
1, 70029, Note_on_c, 0, 70, 0
1, 70032, Note_on_c, 0, 69, 80
1, 70053, Note_on_c, 0, 69, 0
1, 70056, Note_on_c, 0, 70, 80
1, 70068, Note_on_c, 1, 55, 0
1, 70077, Note_on_c, 0, 70, 0
1, 70080, Note_on_c, 0, 75, 80
1, 70200, Note_on_c, 1, 48, 80
1, 70296, Note_on_c, 0, 75, 0
1, 70308, Note_on_c, 1, 48, 0
1, 70320, Note_on_c, 0, 75, 80
1, 70320, Note_on_c, 1, 51, 80
1, 70401, Note_on_c, 0, 75, 0
1, 70428, Note_on_c, 1, 51, 0
1, 70440, Note_on_c, 0, 70, 80
1, 70440, Note_on_c, 1, 57, 80
1, 70461, Note_on_c, 0, 70, 0
1, 70464, Note_on_c, 0, 72, 80
1, 70485, Note_on_c, 0, 72, 0
1, 70488, Note_on_c, 0, 70, 80
1, 70509, Note_on_c, 0, 70, 0
1, 70512, Note_on_c, 0, 69, 80
1, 70533, Note_on_c, 0, 69, 0
1, 70536, Note_on_c, 0, 70, 80
1, 70548, Note_on_c, 1, 57, 0
1, 70557, Note_on_c, 0, 70, 0
1, 70560, Note_on_c, 0, 77, 80
1, 70680, Note_on_c, 1, 50, 80
1, 70722, Note_on_c, 0, 77, 0
1, 70740, Note_on_c, 0, 74, 80
1, 70788, Note_on_c, 1, 50, 0
1, 70794, Note_on_c, 0, 74, 0
1, 70800, Note_on_c, 0, 82, 80
1, 70800, Note_on_c, 1, 53, 80
1, 70908, Note_on_c, 1, 53, 0
1, 70920, Note_on_c, 1, 58, 80
1, 71016, Note_on_c, 0, 82, 0
1, 71028, Note_on_c, 1, 58, 0
1, 71040, Note_on_c, 0, 82, 80
1, 71040, Note_on_c, 1, 50, 80
1, 71040, Note_on_c, 1, 58, 80
1, 71148, Note_on_c, 0, 82, 0
1, 71160, Note_on_c, 0, 80, 80
1, 71268, Note_on_c, 0, 80, 0
1, 71280, Note_on_c, 0, 79, 80
1, 71280, Note_on_c, 1, 56, 80
1, 71388, Note_on_c, 0, 79, 0
1, 71400, Note_on_c, 0, 78, 80
1, 71472, Note_on_c, 1, 50, 0
1, 71472, Note_on_c, 1, 58, 0
1, 71496, Note_on_c, 1, 56, 0
1, 71508, Note_on_c, 0, 78, 0
1, 71520, Note_on_c, 0, 78, 80
1, 71520, Note_on_c, 1, 55, 80
1, 71520, Note_on_c, 1, 58, 80
1, 71520, Note_on_c, 1, 51, 80
1, 71574, Note_on_c, 0, 78, 0
1, 71580, Note_on_c, 0, 79, 80
1, 71634, Note_on_c, 0, 79, 0
1, 71640, Note_on_c, 0, 82, 80
1, 71694, Note_on_c, 0, 82, 0
1, 71700, Note_on_c, 0, 79, 80
1, 71736, Note_on_c, 1, 55, 0
1, 71736, Note_on_c, 1, 58, 0
1, 71736, Note_on_c, 1, 51, 0
1, 71754, Note_on_c, 0, 79, 0
1, 71760, Note_on_c, 0, 74, 80
1, 71814, Note_on_c, 0, 74, 0
1, 71820, Note_on_c, 0, 75, 80
1, 71874, Note_on_c, 0, 75, 0
1, 71880, Note_on_c, 0, 79, 80
1, 71934, Note_on_c, 0, 79, 0
1, 71940, Note_on_c, 0, 75, 80
1, 71994, Note_on_c, 0, 75, 0
1, 72000, Note_on_c, 0, 71, 80
1, 72000, Note_on_c, 1, 55, 80
1, 72000, Note_on_c, 1, 51, 80
1, 72000, Note_on_c, 1, 60, 80
1, 72054, Note_on_c, 0, 71, 0
1, 72060, Note_on_c, 0, 72, 80
1, 72114, Note_on_c, 0, 72, 0
1, 72120, Note_on_c, 0, 75, 80
1, 72174, Note_on_c, 0, 75, 0
1, 72180, Note_on_c, 0, 74, 80
1, 72216, Note_on_c, 1, 55, 0
1, 72216, Note_on_c, 1, 51, 0
1, 72216, Note_on_c, 1, 60, 0
1, 72234, Note_on_c, 0, 74, 0
1, 72240, Note_on_c, 0, 77, 80
1, 72294, Note_on_c, 0, 77, 0
1, 72300, Note_on_c, 0, 75, 80
1, 72354, Note_on_c, 0, 75, 0
1, 72360, Note_on_c, 0, 74, 80
1, 72414, Note_on_c, 0, 74, 0
1, 72420, Note_on_c, 0, 72, 80
1, 72474, Note_on_c, 0, 72, 0
1, 72480, Note_on_c, 0, 77, 80
1, 72480, Note_on_c, 1, 53, 80
1, 72588, Note_on_c, 0, 77, 0
1, 72588, Note_on_c, 1, 53, 0
1, 72600, Note_on_c, 0, 77, 80
1, 72600, Note_on_c, 1, 62, 80
1, 72708, Note_on_c, 1, 62, 0
1, 72720, Note_on_c, 1, 58, 80
1, 72816, Note_on_c, 0, 77, 0
1, 72828, Note_on_c, 1, 58, 0
1, 72840, Note_on_c, 0, 77, 80
1, 72840, Note_on_c, 1, 62, 80
1, 72948, Note_on_c, 0, 77, 0
1, 72948, Note_on_c, 1, 62, 0
1, 72960, Note_on_c, 0, 77, 80
1, 72960, Note_on_c, 1, 53, 80
1, 73014, Note_on_c, 0, 77, 0
1, 73020, Note_on_c, 0, 75, 80
1, 73068, Note_on_c, 1, 53, 0
1, 73074, Note_on_c, 0, 75, 0
1, 73080, Note_on_c, 0, 74, 80
1, 73080, Note_on_c, 1, 62, 80
1, 73134, Note_on_c, 0, 74, 0
1, 73140, Note_on_c, 0, 75, 80
1, 73188, Note_on_c, 1, 62, 0
1, 73194, Note_on_c, 0, 75, 0
1, 73200, Note_on_c, 0, 77, 80
1, 73200, Note_on_c, 1, 58, 80
1, 73254, Note_on_c, 0, 77, 0
1, 73260, Note_on_c, 0, 79, 80
1, 73308, Note_on_c, 1, 58, 0
1, 73314, Note_on_c, 0, 79, 0
1, 73320, Note_on_c, 0, 81, 80
1, 73320, Note_on_c, 1, 62, 80
1, 73374, Note_on_c, 0, 81, 0
1, 73380, Note_on_c, 0, 82, 80
1, 73428, Note_on_c, 1, 62, 0
1, 73434, Note_on_c, 0, 82, 0
1, 73440, Note_on_c, 0, 70, 80
1, 73440, Note_on_c, 1, 53, 80
1, 73483, Note_on_c, 0, 70, 0
1, 73488, Note_on_c, 0, 72, 80
1, 73531, Note_on_c, 0, 72, 0
1, 73536, Note_on_c, 0, 74, 80
1, 73548, Note_on_c, 1, 53, 0
1, 73560, Note_on_c, 0, 72, 80
1, 73560, Note_on_c, 1, 63, 80
1, 73579, Note_on_c, 0, 74, 0
1, 73596, Note_on_c, 0, 72, 0
1, 73600, Note_on_c, 0, 74, 80
1, 73636, Note_on_c, 0, 74, 0
1, 73640, Note_on_c, 0, 72, 80
1, 73668, Note_on_c, 1, 63, 0
1, 73676, Note_on_c, 0, 72, 0
1, 73680, Note_on_c, 0, 74, 80
1, 73680, Note_on_c, 1, 57, 80
1, 73716, Note_on_c, 0, 74, 0
1, 73720, Note_on_c, 0, 72, 80
1, 73756, Note_on_c, 0, 72, 0
1, 73760, Note_on_c, 0, 74, 80
1, 73788, Note_on_c, 1, 57, 0
1, 73796, Note_on_c, 0, 74, 0
1, 73800, Note_on_c, 0, 72, 80
1, 73800, Note_on_c, 1, 63, 80
1, 73836, Note_on_c, 0, 72, 0
1, 73840, Note_on_c, 0, 74, 80
1, 73876, Note_on_c, 0, 74, 0
1, 73880, Note_on_c, 0, 72, 80
1, 73908, Note_on_c, 1, 63, 0
1, 73916, Note_on_c, 0, 72, 0
1, 73920, Note_on_c, 0, 74, 80
1, 73920, Note_on_c, 1, 53, 80
1, 73956, Note_on_c, 0, 74, 0
1, 73960, Note_on_c, 0, 72, 80
1, 73996, Note_on_c, 0, 72, 0
1, 74000, Note_on_c, 0, 74, 80
1, 74028, Note_on_c, 1, 53, 0
1, 74036, Note_on_c, 0, 74, 0
1, 74040, Note_on_c, 0, 72, 80
1, 74040, Note_on_c, 1, 63, 80
1, 74076, Note_on_c, 0, 72, 0
1, 74080, Note_on_c, 0, 74, 80
1, 74116, Note_on_c, 0, 74, 0
1, 74120, Note_on_c, 0, 72, 80
1, 74148, Note_on_c, 1, 63, 0
1, 74156, Note_on_c, 0, 72, 0
1, 74160, Note_on_c, 0, 74, 80
1, 74160, Note_on_c, 1, 57, 80
1, 74196, Note_on_c, 0, 74, 0
1, 74200, Note_on_c, 0, 72, 80
1, 74236, Note_on_c, 0, 72, 0
1, 74240, Note_on_c, 0, 74, 80
1, 74268, Note_on_c, 1, 57, 0
1, 74276, Note_on_c, 0, 74, 0
1, 74280, Note_on_c, 0, 70, 80
1, 74280, Note_on_c, 1, 63, 80
1, 74334, Note_on_c, 0, 70, 0
1, 74340, Note_on_c, 0, 72, 80
1, 74388, Note_on_c, 1, 63, 0
1, 74394, Note_on_c, 0, 72, 0
1, 74400, Note_on_c, 0, 70, 80
1, 74400, Note_on_c, 1, 58, 80
1, 74520, Note_on_c, 1, 62, 80
1, 74616, Note_on_c, 0, 70, 0
1, 74628, Note_on_c, 1, 62, 0
1, 74640, Note_on_c, 1, 65, 80
1, 74700, Note_on_c, 0, 70, 80
1, 74748, Note_on_c, 1, 65, 0
1, 74754, Note_on_c, 0, 70, 0
1, 74760, Note_on_c, 0, 70, 80
1, 74760, Note_on_c, 1, 68, 80
1, 74778, Note_on_c, 0, 70, 0
1, 74780, Note_on_c, 0, 72, 80
1, 74798, Note_on_c, 0, 72, 0
1, 74800, Note_on_c, 0, 70, 80
1, 74818, Note_on_c, 0, 70, 0
1, 74820, Note_on_c, 0, 72, 80
1, 74838, Note_on_c, 0, 72, 0
1, 74840, Note_on_c, 0, 70, 80
1, 74858, Note_on_c, 0, 70, 0
1, 74860, Note_on_c, 0, 72, 80
1, 74868, Note_on_c, 1, 68, 0
1, 74878, Note_on_c, 0, 72, 0
1, 74880, Note_on_c, 0, 77, 80
1, 74880, Note_on_c, 1, 67, 80
1, 74940, Note_on_c, 0, 75, 80
1, 74988, Note_on_c, 0, 77, 0
1, 75000, Note_on_c, 0, 74, 80
1, 75048, Note_on_c, 0, 75, 0
1, 75060, Note_on_c, 0, 72, 80
1, 75096, Note_on_c, 1, 67, 0
1, 75108, Note_on_c, 0, 74, 0
1, 75120, Note_on_c, 1, 63, 80
1, 75168, Note_on_c, 0, 72, 0
1, 75264, Note_on_c, 1, 58, 0
1, 75336, Note_on_c, 1, 63, 0
1, 75360, Note_on_c, 0, 72, 80
1, 75360, Note_on_c, 1, 62, 80
1, 75360, Note_on_c, 1, 58, 80
1, 75468, Note_on_c, 0, 72, 0
1, 75468, Note_on_c, 1, 62, 0
1, 75480, Note_on_c, 0, 70, 80
1, 75480, Note_on_c, 1, 65, 80
1, 75588, Note_on_c, 0, 70, 0
1, 75588, Note_on_c, 1, 65, 0
1, 75600, Note_on_c, 1, 68, 80
1, 75660, Note_on_c, 0, 70, 80
1, 75708, Note_on_c, 1, 68, 0
1, 75714, Note_on_c, 0, 70, 0
1, 75720, Note_on_c, 0, 70, 80
1, 75720, Note_on_c, 1, 66, 80
1, 75738, Note_on_c, 0, 70, 0
1, 75740, Note_on_c, 0, 72, 80
1, 75758, Note_on_c, 0, 72, 0
1, 75760, Note_on_c, 0, 70, 80
1, 75778, Note_on_c, 0, 70, 0
1, 75780, Note_on_c, 0, 72, 80
1, 75798, Note_on_c, 0, 72, 0
1, 75800, Note_on_c, 0, 70, 80
1, 75818, Note_on_c, 0, 70, 0
1, 75820, Note_on_c, 0, 72, 80
1, 75828, Note_on_c, 1, 66, 0
1, 75838, Note_on_c, 0, 72, 0
1, 75840, Note_on_c, 0, 77, 80
1, 75840, Note_on_c, 1, 67, 80
1, 75948, Note_on_c, 0, 77, 0
1, 75960, Note_on_c, 0, 75, 80
1, 76056, Note_on_c, 1, 67, 0
1, 76068, Note_on_c, 0, 75, 0
1, 76080, Note_on_c, 0, 74, 80
1, 76080, Note_on_c, 1, 63, 80
1, 76188, Note_on_c, 0, 74, 0
1, 76200, Note_on_c, 0, 72, 80
1, 76224, Note_on_c, 1, 58, 0
1, 76296, Note_on_c, 1, 63, 0
1, 76308, Note_on_c, 0, 72, 0
1, 76320, Note_on_c, 0, 70, 80
1, 76320, Note_on_c, 1, 58, 80
1, 76428, Note_on_c, 0, 70, 0
1, 76440, Note_on_c, 1, 62, 80
1, 76440, Note_on_c, 1, 65, 80
1, 76548, Note_on_c, 1, 62, 0
1, 76548, Note_on_c, 1, 65, 0
1, 76560, Note_on_c, 0, 75, 80
1, 76560, Note_on_c, 1, 63, 80
1, 76560, Note_on_c, 1, 67, 80
1, 76668, Note_on_c, 1, 63, 0
1, 76668, Note_on_c, 1, 67, 0
1, 76680, Note_on_c, 1, 63, 80
1, 76680, Note_on_c, 1, 60, 80
1, 76722, Note_on_c, 0, 75, 0
1, 76740, Note_on_c, 0, 67, 80
1, 76752, Note_on_c, 1, 58, 0
1, 76788, Note_on_c, 1, 63, 0
1, 76788, Note_on_c, 1, 60, 0
1, 76794, Note_on_c, 0, 67, 0
1, 76800, Note_on_c, 0, 70, 80
1, 76800, Note_on_c, 1, 58, 80
1, 76800, Note_on_c, 1, 62, 80
1, 76908, Note_on_c, 0, 70, 0
1, 76908, Note_on_c, 1, 62, 0
1, 76920, Note_on_c, 1, 62, 80
1, 76920, Note_on_c, 1, 65, 80
1, 77028, Note_on_c, 1, 62, 0
1, 77028, Note_on_c, 1, 65, 0
1, 77040, Note_on_c, 0, 79, 80
1, 77040, Note_on_c, 1, 67, 80
1, 77040, Note_on_c, 1, 63, 80
1, 77148, Note_on_c, 1, 67, 0
1, 77148, Note_on_c, 1, 63, 0
1, 77160, Note_on_c, 1, 60, 80
1, 77160, Note_on_c, 1, 63, 80
1, 77202, Note_on_c, 0, 79, 0
1, 77220, Note_on_c, 0, 69, 80
1, 77232, Note_on_c, 1, 58, 0
1, 77268, Note_on_c, 1, 60, 0
1, 77268, Note_on_c, 1, 63, 0
1, 77274, Note_on_c, 0, 69, 0
1, 77280, Note_on_c, 0, 63, 80
1, 77280, Note_on_c, 0, 69, 80
1, 77280, Note_on_c, 0, 60, 80
1, 77280, Note_on_c, 0, 65, 80
1, 77280, Note_on_c, 1, 58, 80
1, 77280, Note_on_c, 1, 46, 80
1, 77712, Note_on_c, 0, 63, 0
1, 77712, Note_on_c, 0, 69, 0
1, 77712, Note_on_c, 0, 60, 0
1, 77712, Note_on_c, 0, 65, 0
1, 77712, Note_on_c, 1, 58, 0
1, 77712, Note_on_c, 1, 46, 0
1, 77760, Note_on_c, 0, 62, 80
1, 77760, Note_on_c, 0, 70, 80
1, 77760, Note_on_c, 0, 65, 80
1, 77760, Note_on_c, 1, 58, 80
1, 77760, Note_on_c, 1, 46, 80
1, 77976, Note_on_c, 0, 62, 0
1, 77976, Note_on_c, 0, 70, 0
1, 77976, Note_on_c, 0, 65, 0
1, 77976, Note_on_c, 1, 58, 0
1, 77976, Note_on_c, 1, 46, 0
1, 77976, End_track
0, 0, End_of_file
