0, 0, Header, 1, 6, 192
1, 0, Start_track
1, 0, Tempo, 1333333
1, 0, Time_signature, 4, 2, 24, 8
1, 0, Key_signature, 0, "major"
1, 21504, Time_signature, 6, 2, 24, 8
1, 22656, Time_signature, 5, 2, 24, 8
1, 23616, Time_signature, 4, 2, 24, 8
1, 23616, End_track
2, 0, Start_track
2, 0, Title_t, "Piano"
2, 0, Channel_prefix, 0
2, 0, Control_c, 0, 7, 46
2, 0, Program_c, 0, 0
2, 0, Note_on_c, 0, 70, 80
2, 0, Note_on_c, 0, 51, 80
2, 38, Note_off_c, 0, 51, 0
2, 48, Note_on_c, 0, 55, 80
2, 86, Note_off_c, 0, 55, 0
2, 96, Note_on_c, 0, 58, 80
2, 134, Note_off_c, 0, 58, 0
2, 144, Note_on_c, 0, 55, 80
2, 153, Note_off_c, 0, 70, 0
2, 182, Note_off_c, 0, 55, 0
2, 192, Note_on_c, 0, 67, 80
2, 192, Note_on_c, 0, 51, 80
2, 230, Note_off_c, 0, 51, 0
2, 240, Note_on_c, 0, 55, 80
2, 268, Note_off_c, 0, 67, 0
2, 278, Note_off_c, 0, 55, 0
2, 288, Note_on_c, 0, 67, 80
2, 288, Note_on_c, 0, 58, 80
2, 326, Note_off_c, 0, 58, 0
2, 336, Note_on_c, 0, 55, 80
2, 364, Note_off_c, 0, 67, 0
2, 374, Note_off_c, 0, 55, 0
2, 384, Note_on_c, 0, 67, 80
2, 384, Note_on_c, 0, 46, 80
2, 384, Note_on_c, 0, 63, 80
2, 422, Note_off_c, 0, 46, 0
2, 432, Note_on_c, 0, 51, 80
2, 470, Note_off_c, 0, 51, 0
2, 480, Note_on_c, 0, 55, 80
2, 518, Note_off_c, 0, 67, 0
2, 518, Note_off_c, 0, 63, 0
2, 518, Note_off_c, 0, 55, 0
2, 528, Note_on_c, 0, 51, 80
2, 552, Note_on_c, 0, 68, 80
2, 566, Note_off_c, 0, 51, 0
2, 571, Note_off_c, 0, 68, 0
2, 576, Note_on_c, 0, 46, 80
2, 576, Note_on_c, 0, 62, 80
2, 576, Note_on_c, 0, 65, 80
2, 614, Note_off_c, 0, 46, 0
2, 624, Note_on_c, 0, 50, 80
2, 652, Note_off_c, 0, 62, 0
2, 652, Note_off_c, 0, 65, 0
2, 662, Note_off_c, 0, 50, 0
2, 672, Note_on_c, 0, 53, 80
2, 710, Note_off_c, 0, 53, 0
2, 720, Note_on_c, 0, 50, 80
2, 758, Note_off_c, 0, 50, 0
2, 768, Note_on_c, 0, 63, 80
2, 768, Note_on_c, 0, 55, 80
2, 768, Note_on_c, 0, 51, 80
2, 806, Note_off_c, 0, 55, 0
2, 816, Note_on_c, 0, 58, 80
2, 854, Note_off_c, 0, 58, 0
2, 864, Note_on_c, 0, 55, 80
2, 902, Note_off_c, 0, 55, 0
2, 912, Note_on_c, 0, 58, 80
2, 921, Note_off_c, 0, 63, 0
2, 921, Note_off_c, 0, 51, 0
2, 950, Note_off_c, 0, 58, 0
2, 960, Note_on_c, 0, 46, 80
2, 960, Note_on_c, 0, 62, 80
2, 960, Note_on_c, 0, 65, 80
2, 998, Note_off_c, 0, 62, 0
2, 1008, Note_on_c, 0, 58, 80
2, 1046, Note_off_c, 0, 58, 0
2, 1056, Note_on_c, 0, 62, 80
2, 1094, Note_off_c, 0, 62, 0
2, 1104, Note_on_c, 0, 58, 80
2, 1113, Note_off_c, 0, 46, 0
2, 1113, Note_off_c, 0, 65, 0
2, 1142, Note_off_c, 0, 58, 0
2, 1152, Note_on_c, 0, 67, 80
2, 1152, Note_on_c, 0, 39, 80
2, 1209, Note_off_c, 0, 67, 0
2, 1224, Note_on_c, 0, 68, 80
2, 1229, Note_on_c, 0, 67, 80
2, 1229, Note_on_c, 0, 65, 80
2, 1236, Note_off_c, 0, 65, 0
2, 1236, Note_off_c, 0, 67, 0
2, 1236, Note_on_c, 0, 67, 80
2, 1242, Note_off_c, 0, 67, 0
2, 1243, Note_off_c, 0, 68, 0
2, 1248, Note_on_c, 0, 68, 80
2, 1267, Note_off_c, 0, 68, 0
2, 1272, Note_on_c, 0, 70, 80
2, 1295, Note_off_c, 0, 70, 0
2, 1296, Note_on_c, 0, 72, 80
2, 1305, Note_off_c, 0, 39, 0
2, 1319, Note_off_c, 0, 72, 0
2, 1320, Note_on_c, 0, 74, 80
2, 1343, Note_off_c, 0, 74, 0
2, 1344, Note_on_c, 0, 75, 80
2, 1367, Note_off_c, 0, 75, 0
2, 1368, Note_on_c, 0, 70, 80
2, 1391, Note_off_c, 0, 70, 0
2, 1440, Note_on_c, 0, 79, 80
2, 1440, Note_on_c, 0, 75, 80
2, 1485, Note_off_c, 0, 75, 0
2, 1485, Note_off_c, 0, 79, 0
2, 1488, Note_on_c, 0, 74, 80
2, 1488, Note_on_c, 0, 77, 80
2, 1533, Note_off_c, 0, 77, 0
2, 1533, Note_off_c, 0, 74, 0
2, 1536, Note_on_c, 0, 72, 80
2, 1536, Note_on_c, 0, 75, 80
2, 1574, Note_off_c, 0, 75, 0
2, 1574, Note_off_c, 0, 72, 0
2, 1584, Note_on_c, 0, 74, 80
2, 1584, Note_on_c, 0, 70, 80
2, 1622, Note_off_c, 0, 70, 0
2, 1622, Note_off_c, 0, 74, 0
2, 1632, Note_on_c, 0, 50, 80
2, 1632, Note_on_c, 0, 68, 80
2, 1632, Note_on_c, 0, 72, 80
2, 1670, Note_off_c, 0, 72, 0
2, 1670, Note_off_c, 0, 68, 0
2, 1670, Note_off_c, 0, 50, 0
2, 1680, Note_on_c, 0, 51, 80
2, 1680, Note_on_c, 0, 70, 80
2, 1680, Note_on_c, 0, 67, 80
2, 1718, Note_off_c, 0, 67, 0
2, 1718, Note_off_c, 0, 70, 0
2, 1718, Note_off_c, 0, 51, 0
2, 1728, Note_on_c, 0, 68, 80
2, 1728, Note_on_c, 0, 65, 80
2, 1728, Note_on_c, 0, 53, 80
2, 1766, Note_off_c, 0, 53, 0
2, 1766, Note_off_c, 0, 65, 0
2, 1766, Note_off_c, 0, 68, 0
2, 1776, Note_on_c, 0, 63, 80
2, 1776, Note_on_c, 0, 55, 80
2, 1776, Note_on_c, 0, 67, 80
2, 1814, Note_off_c, 0, 67, 0
2, 1814, Note_off_c, 0, 55, 0
2, 1814, Note_off_c, 0, 63, 0
2, 1824, Note_on_c, 0, 56, 80
2, 1824, Note_on_c, 0, 72, 80
2, 1824, Note_on_c, 0, 68, 80
2, 1862, Note_off_c, 0, 68, 0
2, 1862, Note_off_c, 0, 72, 0
2, 1862, Note_off_c, 0, 56, 0
2, 1872, Note_on_c, 0, 68, 80
2, 1872, Note_on_c, 0, 65, 80
2, 1872, Note_on_c, 0, 53, 80
2, 1910, Note_off_c, 0, 53, 0
2, 1910, Note_off_c, 0, 65, 0
2, 1910, Note_off_c, 0, 68, 0
2, 1920, Note_on_c, 0, 63, 80
2, 1920, Note_on_c, 0, 57, 80
2, 1920, Note_on_c, 0, 67, 80
2, 1958, Note_off_c, 0, 57, 0
2, 1968, Note_on_c, 0, 58, 80
2, 2006, Note_off_c, 0, 58, 0
2, 2016, Note_on_c, 0, 55, 80
2, 2054, Note_off_c, 0, 55, 0
2, 2064, Note_on_c, 0, 51, 80
2, 2073, Note_off_c, 0, 63, 0
2, 2073, Note_off_c, 0, 67, 0
2, 2102, Note_off_c, 0, 51, 0
2, 2112, Note_on_c, 0, 46, 80
2, 2112, Note_on_c, 0, 62, 80
2, 2112, Note_on_c, 0, 65, 80
2, 2150, Note_off_c, 0, 65, 0
2, 2150, Note_off_c, 0, 62, 0
2, 2160, Note_on_c, 0, 67, 80
2, 2188, Note_off_c, 0, 46, 0
2, 2198, Note_off_c, 0, 67, 0
2, 2208, Note_on_c, 0, 68, 80
2, 2246, Note_off_c, 0, 68, 0
2, 2256, Note_on_c, 0, 69, 80
2, 2294, Note_off_c, 0, 69, 0
2, 2304, Note_on_c, 0, 51, 80
2, 2304, Note_on_c, 0, 70, 80
2, 2342, Note_off_c, 0, 51, 0
2, 2352, Note_on_c, 0, 55, 80
2, 2390, Note_off_c, 0, 55, 0
2, 2400, Note_on_c, 0, 58, 80
2, 2419, Note_off_c, 0, 70, 0
2, 2424, Note_on_c, 0, 74, 80
2, 2438, Note_off_c, 0, 58, 0
2, 2443, Note_off_c, 0, 74, 0
2, 2448, Note_on_c, 0, 55, 80
2, 2448, Note_on_c, 0, 75, 80
2, 2467, Note_off_c, 0, 75, 0
2, 2472, Note_on_c, 0, 70, 80
2, 2486, Note_off_c, 0, 55, 0
2, 2491, Note_off_c, 0, 70, 0
2, 2496, Note_on_c, 0, 51, 80
2, 2496, Note_on_c, 0, 67, 80
2, 2534, Note_off_c, 0, 67, 0
2, 2534, Note_off_c, 0, 51, 0
2, 2544, Note_on_c, 0, 67, 80
2, 2544, Note_on_c, 0, 55, 80
2, 2582, Note_off_c, 0, 55, 0
2, 2582, Note_off_c, 0, 67, 0
2, 2592, Note_on_c, 0, 58, 80
2, 2592, Note_on_c, 0, 67, 80
2, 2630, Note_off_c, 0, 67, 0
2, 2630, Note_off_c, 0, 58, 0
2, 2640, Note_on_c, 0, 55, 80
2, 2640, Note_on_c, 0, 67, 80
2, 2678, Note_off_c, 0, 67, 0
2, 2678, Note_off_c, 0, 55, 0
2, 2688, Note_on_c, 0, 63, 80
2, 2688, Note_on_c, 0, 67, 80
2, 2688, Note_on_c, 0, 46, 80
2, 2726, Note_off_c, 0, 46, 0
2, 2736, Note_on_c, 0, 51, 80
2, 2774, Note_off_c, 0, 51, 0
2, 2784, Note_on_c, 0, 55, 80
2, 2822, Note_off_c, 0, 67, 0
2, 2822, Note_off_c, 0, 63, 0
2, 2822, Note_off_c, 0, 55, 0
2, 2832, Note_on_c, 0, 68, 80
2, 2832, Note_on_c, 0, 67, 80
2, 2832, Note_on_c, 0, 51, 80
2, 2837, Note_on_c, 0, 65, 80
2, 2838, Note_off_c, 0, 67, 0
2, 2838, Note_off_c, 0, 68, 0
2, 2844, Note_off_c, 0, 65, 0
2, 2844, Note_on_c, 0, 67, 80
2, 2850, Note_off_c, 0, 67, 0
2, 2856, Note_on_c, 0, 68, 80
2, 2870, Note_off_c, 0, 51, 0
2, 2875, Note_off_c, 0, 68, 0
2, 2880, Note_on_c, 0, 62, 80
2, 2880, Note_on_c, 0, 65, 80
2, 2880, Note_on_c, 0, 46, 80
2, 2918, Note_off_c, 0, 46, 0
2, 2928, Note_on_c, 0, 50, 80
2, 2956, Note_off_c, 0, 65, 0
2, 2956, Note_off_c, 0, 62, 0
2, 2966, Note_off_c, 0, 50, 0
2, 2976, Note_on_c, 0, 53, 80
2, 3000, Note_on_c, 0, 70, 80
2, 3014, Note_off_c, 0, 53, 0
2, 3019, Note_off_c, 0, 70, 0
2, 3024, Note_on_c, 0, 50, 80
2, 3024, Note_on_c, 0, 68, 80
2, 3043, Note_off_c, 0, 68, 0
2, 3048, Note_on_c, 0, 65, 80
2, 3062, Note_off_c, 0, 50, 0
2, 3067, Note_off_c, 0, 65, 0
2, 3072, Note_on_c, 0, 51, 80
2, 3072, Note_on_c, 0, 63, 80
2, 3120, Note_on_c, 0, 55, 80
2, 3158, Note_off_c, 0, 55, 0
2, 3168, Note_on_c, 0, 58, 80
2, 3206, Note_off_c, 0, 58, 0
2, 3216, Note_on_c, 0, 55, 80
2, 3225, Note_off_c, 0, 63, 0
2, 3225, Note_off_c, 0, 51, 0
2, 3254, Note_off_c, 0, 55, 0
2, 3264, Note_on_c, 0, 46, 80
2, 3264, Note_on_c, 0, 65, 80
2, 3312, Note_on_c, 0, 58, 80
2, 3350, Note_off_c, 0, 58, 0
2, 3360, Note_on_c, 0, 62, 80
2, 3398, Note_off_c, 0, 62, 0
2, 3408, Note_on_c, 0, 58, 80
2, 3417, Note_off_c, 0, 65, 0
2, 3417, Note_off_c, 0, 46, 0
2, 3446, Note_off_c, 0, 58, 0
2, 3456, Note_on_c, 0, 67, 80
2, 3456, Note_on_c, 0, 39, 80
2, 3504, Note_on_c, 0, 68, 80
2, 3504, Note_on_c, 0, 67, 80
2, 3509, Note_on_c, 0, 65, 80
2, 3510, Note_off_c, 0, 68, 0
2, 3510, Note_off_c, 0, 67, 0
2, 3513, Note_off_c, 0, 67, 0
2, 3516, Note_off_c, 0, 65, 0
2, 3516, Note_on_c, 0, 67, 80
2, 3522, Note_off_c, 0, 67, 0
2, 3528, Note_on_c, 0, 68, 80
2, 3547, Note_off_c, 0, 68, 0
2, 3552, Note_on_c, 0, 70, 80
2, 3571, Note_off_c, 0, 70, 0
2, 3576, Note_on_c, 0, 72, 80
2, 3595, Note_off_c, 0, 72, 0
2, 3600, Note_on_c, 0, 74, 80
2, 3609, Note_off_c, 0, 39, 0
2, 3619, Note_off_c, 0, 74, 0
2, 3624, Note_on_c, 0, 75, 80
2, 3643, Note_off_c, 0, 75, 0
2, 3648, Note_on_c, 0, 70, 80
2, 3686, Note_off_c, 0, 70, 0
2, 3744, Note_on_c, 0, 75, 80
2, 3763, Note_off_c, 0, 75, 0
2, 3768, Note_on_c, 0, 74, 80
2, 3787, Note_off_c, 0, 74, 0
2, 3792, Note_on_c, 0, 73, 80
2, 3811, Note_off_c, 0, 73, 0
2, 3816, Note_on_c, 0, 72, 80
2, 3835, Note_off_c, 0, 72, 0
2, 3840, Note_on_c, 0, 71, 80
2, 3878, Note_off_c, 0, 71, 0
2, 3888, Note_on_c, 0, 63, 80
2, 3888, Note_on_c, 0, 55, 80
2, 3926, Note_off_c, 0, 55, 0
2, 3926, Note_off_c, 0, 63, 0
2, 3936, Note_on_c, 0, 75, 80
2, 3955, Note_off_c, 0, 75, 0
2, 3960, Note_on_c, 0, 74, 80
2, 3979, Note_off_c, 0, 74, 0
2, 3984, Note_on_c, 0, 73, 80
2, 4003, Note_off_c, 0, 73, 0
2, 4008, Note_on_c, 0, 72, 80
2, 4027, Note_off_c, 0, 72, 0
2, 4032, Note_on_c, 0, 71, 80
2, 4070, Note_off_c, 0, 71, 0
2, 4080, Note_on_c, 0, 55, 80
2, 4080, Note_on_c, 0, 63, 80
2, 4118, Note_off_c, 0, 63, 0
2, 4118, Note_off_c, 0, 55, 0
2, 4128, Note_on_c, 0, 75, 80
2, 4147, Note_off_c, 0, 75, 0
2, 4152, Note_on_c, 0, 74, 80
2, 4171, Note_off_c, 0, 74, 0
2, 4176, Note_on_c, 0, 73, 80
2, 4195, Note_off_c, 0, 73, 0
2, 4200, Note_on_c, 0, 72, 80
2, 4219, Note_off_c, 0, 72, 0
2, 4224, Note_on_c, 0, 63, 80
2, 4224, Note_on_c, 0, 55, 80
2, 4224, Note_on_c, 0, 71, 80
2, 4377, Note_off_c, 0, 71, 0
2, 4377, Note_off_c, 0, 55, 0
2, 4416, Note_on_c, 0, 72, 80
2, 4416, Note_on_c, 0, 56, 80
2, 4454, Note_off_c, 0, 56, 0
2, 4454, Note_off_c, 0, 63, 0
2, 4454, Note_off_c, 0, 72, 0
2, 4512, Note_on_c, 0, 65, 80
2, 4531, Note_off_c, 0, 65, 0
2, 4536, Note_on_c, 0, 67, 80
2, 4555, Note_off_c, 0, 67, 0
2, 4560, Note_on_c, 0, 68, 80
2, 4579, Note_off_c, 0, 68, 0
2, 4584, Note_on_c, 0, 69, 80
2, 4603, Note_off_c, 0, 69, 0
2, 4608, Note_on_c, 0, 70, 80
2, 4704, Note_on_c, 0, 43, 80
2, 4704, Note_on_c, 0, 51, 80
2, 4723, Note_off_c, 0, 70, 0
2, 4728, Note_on_c, 0, 72, 80
2, 4747, Note_off_c, 0, 72, 0
2, 4752, Note_on_c, 0, 74, 80
2, 4771, Note_off_c, 0, 74, 0
2, 4776, Note_on_c, 0, 75, 80
2, 4780, Note_off_c, 0, 43, 0
2, 4780, Note_off_c, 0, 51, 0
2, 4795, Note_off_c, 0, 75, 0
2, 4800, Note_on_c, 0, 63, 80
2, 4800, Note_on_c, 0, 58, 80
2, 4800, Note_on_c, 0, 55, 80
2, 4800, Note_on_c, 0, 46, 80
2, 4876, Note_off_c, 0, 46, 0
2, 4876, Note_off_c, 0, 55, 0
2, 4896, Note_on_c, 0, 56, 80
2, 4915, Note_off_c, 0, 58, 0
2, 4915, Note_off_c, 0, 63, 0
2, 4944, Note_on_c, 0, 67, 80
2, 4944, Note_on_c, 0, 62, 80
2, 4963, Note_off_c, 0, 62, 0
2, 4963, Note_off_c, 0, 67, 0
2, 4968, Note_on_c, 0, 65, 80
2, 4972, Note_off_c, 0, 56, 0
2, 4987, Note_off_c, 0, 65, 0
2, 4992, Note_on_c, 0, 51, 80
2, 4992, Note_on_c, 0, 55, 80
2, 4992, Note_on_c, 0, 63, 80
2, 5068, Note_off_c, 0, 63, 0
2, 5068, Note_off_c, 0, 55, 0
2, 5068, Note_off_c, 0, 51, 0
2, 5088, Note_on_c, 0, 51, 80
2, 5088, Note_on_c, 0, 55, 80
2, 5088, Note_on_c, 0, 63, 80
2, 5164, Note_off_c, 0, 63, 0
2, 5164, Note_off_c, 0, 55, 0
2, 5164, Note_off_c, 0, 51, 0
2, 5376, Note_on_c, 0, 74, 80
2, 5376, Note_on_c, 0, 58, 80
2, 5376, Note_on_c, 0, 77, 80
2, 5414, Note_off_c, 0, 77, 0
2, 5414, Note_off_c, 0, 74, 0
2, 5424, Note_on_c, 0, 65, 80
2, 5462, Note_off_c, 0, 65, 0
2, 5472, Note_on_c, 0, 74, 80
2, 5510, Note_off_c, 0, 74, 0
2, 5520, Note_on_c, 0, 65, 80
2, 5558, Note_off_c, 0, 65, 0
2, 5568, Note_on_c, 0, 70, 80
2, 5568, Note_on_c, 0, 74, 80
2, 5606, Note_off_c, 0, 74, 0
2, 5606, Note_off_c, 0, 70, 0
2, 5616, Note_on_c, 0, 65, 80
2, 5654, Note_off_c, 0, 65, 0
2, 5664, Note_on_c, 0, 70, 80
2, 5683, Note_off_c, 0, 58, 0
2, 5702, Note_off_c, 0, 70, 0
2, 5712, Note_on_c, 0, 65, 80
2, 5750, Note_off_c, 0, 65, 0
2, 5760, Note_on_c, 0, 74, 80
2, 5760, Note_on_c, 0, 53, 80
2, 5760, Note_on_c, 0, 77, 80
2, 5760, Note_on_c, 0, 41, 80
2, 5875, Note_off_c, 0, 77, 0
2, 5875, Note_off_c, 0, 74, 0
2, 5880, Note_on_c, 0, 76, 80
2, 5880, Note_on_c, 0, 73, 80
2, 5899, Note_off_c, 0, 73, 0
2, 5899, Note_off_c, 0, 76, 0
2, 5904, Note_on_c, 0, 72, 80
2, 5904, Note_on_c, 0, 75, 80
2, 5923, Note_off_c, 0, 75, 0
2, 5923, Note_off_c, 0, 72, 0
2, 5928, Note_on_c, 0, 74, 80
2, 5928, Note_on_c, 0, 70, 80
2, 5947, Note_off_c, 0, 70, 0
2, 5947, Note_off_c, 0, 74, 0
2, 5952, Note_on_c, 0, 69, 80
2, 5952, Note_on_c, 0, 72, 80
2, 5990, Note_off_c, 0, 72, 0
2, 5990, Note_off_c, 0, 53, 0
2, 5990, Note_off_c, 0, 41, 0
2, 5990, Note_off_c, 0, 69, 0
2, 6048, Note_on_c, 0, 74, 80
2, 6048, Note_on_c, 0, 78, 80
2, 6067, Note_off_c, 0, 78, 0
2, 6067, Note_off_c, 0, 74, 0
2, 6072, Note_on_c, 0, 75, 80
2, 6072, Note_on_c, 0, 79, 80
2, 6091, Note_off_c, 0, 79, 0
2, 6091, Note_off_c, 0, 75, 0
2, 6096, Note_on_c, 0, 74, 80
2, 6096, Note_on_c, 0, 78, 80
2, 6115, Note_off_c, 0, 78, 0
2, 6115, Note_off_c, 0, 74, 0
2, 6120, Note_on_c, 0, 75, 80
2, 6120, Note_on_c, 0, 79, 80
2, 6139, Note_off_c, 0, 79, 0
2, 6139, Note_off_c, 0, 75, 0
2, 6144, Note_on_c, 0, 66, 80
2, 6144, Note_on_c, 0, 72, 80
2, 6144, Note_on_c, 0, 69, 80
2, 6163, Note_off_c, 0, 66, 0
2, 6168, Note_on_c, 0, 65, 80
2, 6182, Note_off_c, 0, 72, 0
2, 6182, Note_off_c, 0, 69, 0
2, 6187, Note_off_c, 0, 65, 0
2, 6192, Note_on_c, 0, 66, 80
2, 6211, Note_off_c, 0, 66, 0
2, 6216, Note_on_c, 0, 65, 80
2, 6235, Note_off_c, 0, 65, 0
2, 6240, Note_on_c, 0, 78, 80
2, 6240, Note_on_c, 0, 74, 80
2, 6259, Note_off_c, 0, 74, 0
2, 6259, Note_off_c, 0, 78, 0
2, 6264, Note_on_c, 0, 75, 80
2, 6264, Note_on_c, 0, 79, 80
2, 6283, Note_off_c, 0, 79, 0
2, 6283, Note_off_c, 0, 75, 0
2, 6288, Note_on_c, 0, 78, 80
2, 6288, Note_on_c, 0, 74, 80
2, 6307, Note_off_c, 0, 74, 0
2, 6307, Note_off_c, 0, 78, 0
2, 6312, Note_on_c, 0, 79, 80
2, 6312, Note_on_c, 0, 75, 80
2, 6331, Note_off_c, 0, 75, 0
2, 6331, Note_off_c, 0, 79, 0
2, 6336, Note_on_c, 0, 66, 80
2, 6336, Note_on_c, 0, 72, 80
2, 6336, Note_on_c, 0, 69, 80
2, 6355, Note_off_c, 0, 66, 0
2, 6360, Note_on_c, 0, 65, 80
2, 6374, Note_off_c, 0, 72, 0
2, 6374, Note_off_c, 0, 69, 0
2, 6379, Note_off_c, 0, 65, 0
2, 6384, Note_on_c, 0, 66, 80
2, 6403, Note_off_c, 0, 66, 0
2, 6408, Note_on_c, 0, 65, 80
2, 6427, Note_off_c, 0, 65, 0
2, 6432, Note_on_c, 0, 71, 80
2, 6451, Note_off_c, 0, 71, 0
2, 6456, Note_on_c, 0, 72, 80
2, 6475, Note_off_c, 0, 72, 0
2, 6480, Note_on_c, 0, 74, 80
2, 6499, Note_off_c, 0, 74, 0
2, 6504, Note_on_c, 0, 75, 80
2, 6523, Note_off_c, 0, 75, 0
2, 6528, Note_on_c, 0, 58, 80
2, 6528, Note_on_c, 0, 77, 80
2, 6566, Note_off_c, 0, 58, 0
2, 6576, Note_on_c, 0, 60, 80
2, 6614, Note_off_c, 0, 60, 0
2, 6624, Note_on_c, 0, 63, 80
2, 6643, Note_off_c, 0, 77, 0
2, 6648, Note_on_c, 0, 79, 80
2, 6648, Note_on_c, 0, 77, 80
2, 6653, Note_on_c, 0, 76, 80
2, 6654, Note_off_c, 0, 77, 0
2, 6654, Note_off_c, 0, 79, 0
2, 6660, Note_off_c, 0, 76, 0
2, 6660, Note_on_c, 0, 77, 80
2, 6662, Note_off_c, 0, 63, 0
2, 6666, Note_off_c, 0, 77, 0
2, 6672, Note_on_c, 0, 79, 80
2, 6672, Note_on_c, 0, 69, 80
2, 6691, Note_off_c, 0, 79, 0
2, 6696, Note_on_c, 0, 75, 80
2, 6710, Note_off_c, 0, 69, 0
2, 6715, Note_off_c, 0, 75, 0
2, 6720, Note_on_c, 0, 70, 80
2, 6720, Note_on_c, 0, 58, 80
2, 6720, Note_on_c, 0, 74, 80
2, 6758, Note_off_c, 0, 74, 0
2, 6758, Note_off_c, 0, 58, 0
2, 6758, Note_off_c, 0, 70, 0
2, 6816, Note_on_c, 0, 77, 80
2, 6844, Note_off_c, 0, 77, 0
2, 6852, Note_on_c, 0, 74, 80
2, 6861, Note_off_c, 0, 74, 0
2, 6864, Note_on_c, 0, 77, 80
2, 6892, Note_off_c, 0, 77, 0
2, 6900, Note_on_c, 0, 74, 80
2, 6909, Note_off_c, 0, 74, 0
2, 6912, Note_on_c, 0, 82, 80
2, 6912, Note_on_c, 0, 50, 80
2, 6950, Note_off_c, 0, 50, 0
2, 6960, Note_on_c, 0, 53, 80
2, 6988, Note_off_c, 0, 82, 0
2, 6998, Note_off_c, 0, 53, 0
2, 7008, Note_on_c, 0, 82, 80
2, 7008, Note_on_c, 0, 58, 80
2, 7046, Note_off_c, 0, 58, 0
2, 7056, Note_on_c, 0, 53, 80
2, 7094, Note_off_c, 0, 53, 0
2, 7104, Note_on_c, 0, 50, 80
2, 7142, Note_off_c, 0, 50, 0
2, 7152, Note_on_c, 0, 53, 80
2, 7161, Note_off_c, 0, 82, 0
2, 7190, Note_off_c, 0, 53, 0
2, 7200, Note_on_c, 0, 82, 80
2, 7200, Note_on_c, 0, 58, 80
2, 7219, Note_off_c, 0, 82, 0
2, 7224, Note_on_c, 0, 84, 80
2, 7238, Note_off_c, 0, 58, 0
2, 7243, Note_off_c, 0, 84, 0
2, 7248, Note_on_c, 0, 53, 80
2, 7248, Note_on_c, 0, 86, 80
2, 7267, Note_off_c, 0, 86, 0
2, 7272, Note_on_c, 0, 82, 80
2, 7286, Note_off_c, 0, 53, 0
2, 7291, Note_off_c, 0, 82, 0
2, 7296, Note_on_c, 0, 81, 80
2, 7296, Note_on_c, 0, 51, 80
2, 7334, Note_off_c, 0, 51, 0
2, 7334, Note_off_c, 0, 81, 0
2, 7344, Note_on_c, 0, 79, 80
2, 7344, Note_on_c, 0, 55, 80
2, 7382, Note_off_c, 0, 55, 0
2, 7382, Note_off_c, 0, 79, 0
2, 7392, Note_on_c, 0, 79, 80
2, 7392, Note_on_c, 0, 58, 80
2, 7430, Note_off_c, 0, 58, 0
2, 7440, Note_on_c, 0, 55, 80
2, 7478, Note_off_c, 0, 55, 0
2, 7488, Note_on_c, 0, 51, 80
2, 7526, Note_off_c, 0, 51, 0
2, 7536, Note_on_c, 0, 55, 80
2, 7545, Note_off_c, 0, 79, 0
2, 7574, Note_off_c, 0, 55, 0
2, 7584, Note_on_c, 0, 58, 80
2, 7584, Note_on_c, 0, 79, 80
2, 7603, Note_off_c, 0, 79, 0
2, 7608, Note_on_c, 0, 81, 80
2, 7622, Note_off_c, 0, 58, 0
2, 7627, Note_off_c, 0, 81, 0
2, 7632, Note_on_c, 0, 55, 80
2, 7632, Note_on_c, 0, 82, 80
2, 7651, Note_off_c, 0, 82, 0
2, 7656, Note_on_c, 0, 79, 80
2, 7670, Note_off_c, 0, 55, 0
2, 7675, Note_off_c, 0, 79, 0
2, 7680, Note_on_c, 0, 53, 80
2, 7680, Note_on_c, 0, 77, 80
2, 7718, Note_off_c, 0, 77, 0
2, 7718, Note_off_c, 0, 53, 0
2, 7728, Note_on_c, 0, 57, 80
2, 7728, Note_on_c, 0, 75, 80
2, 7766, Note_off_c, 0, 75, 0
2, 7766, Note_off_c, 0, 57, 0
2, 7776, Note_on_c, 0, 60, 80
2, 7776, Note_on_c, 0, 75, 80
2, 7814, Note_off_c, 0, 60, 0
2, 7824, Note_on_c, 0, 57, 80
2, 7862, Note_off_c, 0, 57, 0
2, 7872, Note_on_c, 0, 53, 80
2, 7910, Note_off_c, 0, 75, 0
2, 7910, Note_off_c, 0, 53, 0
2, 7920, Note_on_c, 0, 75, 80
2, 7920, Note_on_c, 0, 57, 80
2, 7958, Note_off_c, 0, 57, 0
2, 7958, Note_off_c, 0, 75, 0
2, 7968, Note_on_c, 0, 60, 80
2, 7968, Note_on_c, 0, 75, 80
2, 8006, Note_off_c, 0, 75, 0
2, 8006, Note_off_c, 0, 60, 0
2, 8016, Note_on_c, 0, 75, 80
2, 8016, Note_on_c, 0, 57, 80
2, 8054, Note_off_c, 0, 57, 0
2, 8054, Note_off_c, 0, 75, 0
2, 8064, Note_on_c, 0, 55, 80
2, 8064, Note_on_c, 0, 73, 80
2, 8102, Note_off_c, 0, 55, 0
2, 8112, Note_on_c, 0, 58, 80
2, 8140, Note_off_c, 0, 73, 0
2, 8150, Note_off_c, 0, 58, 0
2, 8160, Note_on_c, 0, 62, 80
2, 8160, Note_on_c, 0, 74, 80
2, 8198, Note_off_c, 0, 62, 0
2, 8208, Note_on_c, 0, 58, 80
2, 8236, Note_off_c, 0, 74, 0
2, 8246, Note_off_c, 0, 58, 0
2, 8256, Note_on_c, 0, 55, 80
2, 8280, Note_on_c, 0, 70, 80
2, 8294, Note_off_c, 0, 55, 0
2, 8299, Note_off_c, 0, 70, 0
2, 8304, Note_on_c, 0, 58, 80
2, 8304, Note_on_c, 0, 72, 80
2, 8323, Note_off_c, 0, 72, 0
2, 8328, Note_on_c, 0, 74, 80
2, 8342, Note_off_c, 0, 58, 0
2, 8347, Note_off_c, 0, 74, 0
2, 8352, Note_on_c, 0, 62, 80
2, 8352, Note_on_c, 0, 75, 80
2, 8371, Note_off_c, 0, 75, 0
2, 8376, Note_on_c, 0, 77, 80
2, 8390, Note_off_c, 0, 62, 0
2, 8395, Note_off_c, 0, 77, 0
2, 8400, Note_on_c, 0, 58, 80
2, 8400, Note_on_c, 0, 79, 80
2, 8419, Note_off_c, 0, 79, 0
2, 8424, Note_on_c, 0, 81, 80
2, 8438, Note_off_c, 0, 58, 0
2, 8443, Note_off_c, 0, 81, 0
2, 8448, Note_on_c, 0, 50, 80
2, 8448, Note_on_c, 0, 82, 80
2, 8476, Note_off_c, 0, 82, 0
2, 8484, Note_on_c, 0, 77, 80
2, 8486, Note_off_c, 0, 50, 0
2, 8493, Note_off_c, 0, 77, 0
2, 8496, Note_on_c, 0, 53, 80
2, 8496, Note_on_c, 0, 86, 80
2, 8524, Note_off_c, 0, 86, 0
2, 8532, Note_on_c, 0, 82, 80
2, 8534, Note_off_c, 0, 53, 0
2, 8541, Note_off_c, 0, 82, 0
2, 8544, Note_on_c, 0, 89, 80
2, 8544, Note_on_c, 0, 58, 80
2, 8582, Note_off_c, 0, 58, 0
2, 8592, Note_on_c, 0, 53, 80
2, 8620, Note_off_c, 0, 89, 0
2, 8630, Note_off_c, 0, 53, 0
2, 8640, Note_on_c, 0, 50, 80
2, 8640, Note_on_c, 0, 89, 80
2, 8659, Note_off_c, 0, 89, 0
2, 8664, Note_on_c, 0, 86, 80
2, 8678, Note_off_c, 0, 50, 0
2, 8683, Note_off_c, 0, 86, 0
2, 8688, Note_on_c, 0, 83, 80
2, 8688, Note_on_c, 0, 53, 80
2, 8707, Note_off_c, 0, 83, 0
2, 8712, Note_on_c, 0, 80, 80
2, 8726, Note_off_c, 0, 53, 0
2, 8731, Note_off_c, 0, 80, 0
2, 8736, Note_on_c, 0, 77, 80
2, 8736, Note_on_c, 0, 56, 80
2, 8755, Note_off_c, 0, 77, 0
2, 8760, Note_on_c, 0, 74, 80
2, 8774, Note_off_c, 0, 56, 0
2, 8779, Note_off_c, 0, 74, 0
2, 8784, Note_on_c, 0, 53, 80
2, 8784, Note_on_c, 0, 71, 80
2, 8803, Note_off_c, 0, 71, 0
2, 8808, Note_on_c, 0, 68, 80
2, 8822, Note_off_c, 0, 53, 0
2, 8827, Note_off_c, 0, 68, 0
2, 8832, Note_on_c, 0, 67, 80
2, 8832, Note_on_c, 0, 51, 80
2, 8870, Note_off_c, 0, 51, 0
2, 8870, Note_off_c, 0, 67, 0
2, 8880, Note_on_c, 0, 78, 80
2, 8880, Note_on_c, 0, 55, 80
2, 8918, Note_off_c, 0, 55, 0
2, 8928, Note_on_c, 0, 60, 80
2, 8952, Note_on_c, 0, 78, 80
2, 8952, Note_on_c, 0, 75, 80
2, 8956, Note_off_c, 0, 78, 0
2, 8957, Note_on_c, 0, 74, 80
2, 8958, Note_off_c, 0, 78, 0
2, 8958, Note_off_c, 0, 75, 0
2, 8964, Note_off_c, 0, 74, 0
2, 8964, Note_on_c, 0, 75, 80
2, 8966, Note_off_c, 0, 60, 0
2, 8970, Note_off_c, 0, 75, 0
2, 8976, Note_on_c, 0, 79, 80
2, 8976, Note_on_c, 0, 55, 80
2, 9014, Note_off_c, 0, 55, 0
2, 9024, Note_on_c, 0, 52, 80
2, 9052, Note_off_c, 0, 79, 0
2, 9062, Note_off_c, 0, 52, 0
2, 9072, Note_on_c, 0, 79, 80
2, 9072, Note_on_c, 0, 55, 80
2, 9077, Note_on_c, 0, 76, 80
2, 9077, Note_on_c, 0, 78, 80
2, 9084, Note_off_c, 0, 78, 0
2, 9084, Note_off_c, 0, 76, 0
2, 9084, Note_on_c, 0, 78, 80
2, 9090, Note_off_c, 0, 78, 0
2, 9091, Note_off_c, 0, 79, 0
2, 9096, Note_on_c, 0, 81, 80
2, 9110, Note_off_c, 0, 55, 0
2, 9120, Note_on_c, 0, 61, 80
2, 9158, Note_off_c, 0, 61, 0
2, 9168, Note_on_c, 0, 55, 80
2, 9172, Note_off_c, 0, 81, 0
2, 9192, Note_on_c, 0, 82, 80
2, 9206, Note_off_c, 0, 55, 0
2, 9216, Note_on_c, 0, 82, 80
2, 9216, Note_on_c, 0, 53, 80
2, 9230, Note_off_c, 0, 82, 0
2, 9254, Note_off_c, 0, 82, 0
2, 9254, Note_off_c, 0, 53, 0
2, 9264, Note_on_c, 0, 86, 80
2, 9264, Note_on_c, 0, 58, 80
2, 9283, Note_off_c, 0, 86, 0
2, 9288, Note_on_c, 0, 89, 80
2, 9302, Note_off_c, 0, 58, 0
2, 9307, Note_off_c, 0, 89, 0
2, 9312, Note_on_c, 0, 62, 80
2, 9312, Note_on_c, 0, 77, 80
2, 9350, Note_off_c, 0, 62, 0
2, 9360, Note_on_c, 0, 58, 80
2, 9388, Note_off_c, 0, 77, 0
2, 9398, Note_off_c, 0, 58, 0
2, 9408, Note_on_c, 0, 77, 80
2, 9408, Note_on_c, 0, 53, 80
2, 9427, Note_off_c, 0, 77, 0
2, 9432, Note_on_c, 0, 78, 80
2, 9446, Note_off_c, 0, 53, 0
2, 9451, Note_off_c, 0, 78, 0
2, 9456, Note_on_c, 0, 79, 80
2, 9456, Note_on_c, 0, 57, 80
2, 9475, Note_off_c, 0, 79, 0
2, 9480, Note_on_c, 0, 77, 80
2, 9494, Note_off_c, 0, 57, 0
2, 9499, Note_off_c, 0, 77, 0
2, 9504, Note_on_c, 0, 60, 80
2, 9504, Note_on_c, 0, 77, 80
2, 9523, Note_off_c, 0, 77, 0
2, 9528, Note_on_c, 0, 75, 80
2, 9542, Note_off_c, 0, 60, 0
2, 9547, Note_off_c, 0, 75, 0
2, 9552, Note_on_c, 0, 74, 80
2, 9552, Note_on_c, 0, 57, 80
2, 9571, Note_off_c, 0, 74, 0
2, 9576, Note_on_c, 0, 72, 80
2, 9590, Note_off_c, 0, 57, 0
2, 9595, Note_off_c, 0, 72, 0
2, 9600, Note_on_c, 0, 58, 80
2, 9600, Note_on_c, 0, 70, 80
2, 9619, Note_off_c, 0, 58, 0
2, 9624, Note_on_c, 0, 62, 80
2, 9643, Note_off_c, 0, 62, 0
2, 9648, Note_on_c, 0, 65, 80
2, 9667, Note_off_c, 0, 65, 0
2, 9672, Note_on_c, 0, 62, 80
2, 9690, Note_off_c, 0, 70, 0
2, 9691, Note_off_c, 0, 62, 0
2, 9696, Note_on_c, 0, 65, 80
2, 9715, Note_off_c, 0, 65, 0
2, 9720, Note_on_c, 0, 62, 80
2, 9739, Note_off_c, 0, 62, 0
2, 9744, Note_on_c, 0, 65, 80
2, 9763, Note_off_c, 0, 65, 0
2, 9768, Note_on_c, 0, 62, 80
2, 9787, Note_off_c, 0, 62, 0
2, 9792, Note_on_c, 0, 53, 80
2, 9792, Note_on_c, 0, 63, 80
2, 9792, Note_on_c, 0, 69, 80
2, 9811, Note_off_c, 0, 69, 0
2, 9816, Note_on_c, 0, 72, 80
2, 9835, Note_off_c, 0, 72, 0
2, 9840, Note_on_c, 0, 79, 80
2, 9859, Note_off_c, 0, 79, 0
2, 9864, Note_on_c, 0, 77, 80
2, 9868, Note_off_c, 0, 63, 0
2, 9868, Note_off_c, 0, 53, 0
2, 9883, Note_off_c, 0, 77, 0
2, 9888, Note_on_c, 0, 79, 80
2, 9907, Note_off_c, 0, 79, 0
2, 9912, Note_on_c, 0, 77, 80
2, 9931, Note_off_c, 0, 77, 0
2, 9936, Note_on_c, 0, 79, 80
2, 9955, Note_off_c, 0, 79, 0
2, 9960, Note_on_c, 0, 77, 80
2, 9979, Note_off_c, 0, 77, 0
2, 9984, Note_on_c, 0, 77, 80
2, 9984, Note_on_c, 0, 58, 80
2, 10003, Note_off_c, 0, 58, 0
2, 10008, Note_on_c, 0, 62, 80
2, 10027, Note_off_c, 0, 62, 0
2, 10032, Note_on_c, 0, 65, 80
2, 10051, Note_off_c, 0, 65, 0
2, 10056, Note_on_c, 0, 62, 80
2, 10060, Note_off_c, 0, 77, 0
2, 10075, Note_off_c, 0, 62, 0
2, 10080, Note_on_c, 0, 82, 80
2, 10080, Note_on_c, 0, 65, 80
2, 10099, Note_off_c, 0, 65, 0
2, 10104, Note_on_c, 0, 62, 80
2, 10118, Note_off_c, 0, 82, 0
2, 10123, Note_off_c, 0, 62, 0
2, 10128, Note_on_c, 0, 65, 80
2, 10147, Note_off_c, 0, 65, 0
2, 10152, Note_on_c, 0, 62, 80
2, 10171, Note_off_c, 0, 62, 0
2, 10176, Note_on_c, 0, 53, 80
2, 10176, Note_on_c, 0, 69, 80
2, 10176, Note_on_c, 0, 63, 80
2, 10195, Note_off_c, 0, 69, 0
2, 10200, Note_on_c, 0, 72, 80
2, 10219, Note_off_c, 0, 72, 0
2, 10224, Note_on_c, 0, 79, 80
2, 10243, Note_off_c, 0, 79, 0
2, 10248, Note_on_c, 0, 77, 80
2, 10252, Note_off_c, 0, 53, 0
2, 10252, Note_off_c, 0, 63, 0
2, 10267, Note_off_c, 0, 77, 0
2, 10272, Note_on_c, 0, 79, 80
2, 10291, Note_off_c, 0, 79, 0
2, 10296, Note_on_c, 0, 77, 80
2, 10315, Note_off_c, 0, 77, 0
2, 10320, Note_on_c, 0, 79, 80
2, 10339, Note_off_c, 0, 79, 0
2, 10344, Note_on_c, 0, 77, 80
2, 10363, Note_off_c, 0, 77, 0
2, 10368, Note_on_c, 0, 58, 80
2, 10368, Note_on_c, 0, 77, 80
2, 10387, Note_off_c, 0, 58, 0
2, 10392, Note_on_c, 0, 62, 80
2, 10411, Note_off_c, 0, 62, 0
2, 10416, Note_on_c, 0, 65, 80
2, 10435, Note_off_c, 0, 65, 0
2, 10440, Note_on_c, 0, 62, 80
2, 10444, Note_off_c, 0, 77, 0
2, 10459, Note_off_c, 0, 62, 0
2, 10464, Note_on_c, 0, 65, 80
2, 10464, Note_on_c, 0, 70, 80
2, 10483, Note_off_c, 0, 65, 0
2, 10488, Note_on_c, 0, 62, 80
2, 10502, Note_off_c, 0, 70, 0
2, 10507, Note_off_c, 0, 62, 0
2, 10512, Note_on_c, 0, 65, 80
2, 10531, Note_off_c, 0, 65, 0
2, 10536, Note_on_c, 0, 62, 80
2, 10555, Note_off_c, 0, 62, 0
2, 10560, Note_on_c, 0, 53, 80
2, 10560, Note_on_c, 0, 63, 80
2, 10560, Note_on_c, 0, 69, 80
2, 10579, Note_off_c, 0, 69, 0
2, 10584, Note_on_c, 0, 72, 80
2, 10603, Note_off_c, 0, 72, 0
2, 10608, Note_on_c, 0, 79, 80
2, 10627, Note_off_c, 0, 79, 0
2, 10632, Note_on_c, 0, 77, 80
2, 10651, Note_off_c, 0, 77, 0
2, 10656, Note_on_c, 0, 79, 80
2, 10675, Note_off_c, 0, 79, 0
2, 10680, Note_on_c, 0, 77, 80
2, 10699, Note_off_c, 0, 77, 0
2, 10704, Note_on_c, 0, 79, 80
2, 10713, Note_off_c, 0, 63, 0
2, 10713, Note_off_c, 0, 53, 0
2, 10723, Note_off_c, 0, 79, 0
2, 10728, Note_on_c, 0, 77, 80
2, 10747, Note_off_c, 0, 77, 0
2, 10752, Note_on_c, 0, 58, 80
2, 10752, Note_on_c, 0, 62, 80
2, 10752, Note_on_c, 0, 77, 80
2, 10771, Note_off_c, 0, 77, 0
2, 10776, Note_on_c, 0, 70, 80
2, 10795, Note_off_c, 0, 70, 0
2, 10800, Note_on_c, 0, 82, 80
2, 10819, Note_off_c, 0, 82, 0
2, 10824, Note_on_c, 0, 82, 80
2, 10828, Note_off_c, 0, 62, 0
2, 10828, Note_off_c, 0, 58, 0
2, 10843, Note_off_c, 0, 82, 0
2, 10848, Note_on_c, 0, 82, 80
2, 10867, Note_off_c, 0, 82, 0
2, 10872, Note_on_c, 0, 74, 80
2, 10891, Note_off_c, 0, 74, 0
2, 10896, Note_on_c, 0, 86, 80
2, 10915, Note_off_c, 0, 86, 0
2, 10920, Note_on_c, 0, 86, 80
2, 10939, Note_off_c, 0, 86, 0
2, 10944, Note_on_c, 0, 86, 80
2, 10963, Note_off_c, 0, 86, 0
2, 10968, Note_on_c, 0, 77, 80
2, 10987, Note_off_c, 0, 77, 0
2, 10992, Note_on_c, 0, 89, 80
2, 11011, Note_off_c, 0, 89, 0
2, 11016, Note_on_c, 0, 89, 80
2, 11035, Note_off_c, 0, 89, 0
2, 11040, Note_on_c, 0, 65, 80
2, 11040, Note_on_c, 0, 75, 80
2, 11040, Note_on_c, 0, 89, 80
2, 11040, Note_on_c, 0, 69, 80
2, 11059, Note_off_c, 0, 89, 0
2, 11064, Note_on_c, 0, 89, 80
2, 11083, Note_off_c, 0, 89, 0
2, 11088, Note_on_c, 0, 89, 80
2, 11107, Note_off_c, 0, 89, 0
2, 11112, Note_on_c, 0, 89, 80
2, 11116, Note_off_c, 0, 75, 0
2, 11116, Note_off_c, 0, 65, 0
2, 11116, Note_off_c, 0, 69, 0
2, 11131, Note_off_c, 0, 89, 0
2, 11136, Note_on_c, 0, 74, 80
2, 11136, Note_on_c, 0, 82, 80
2, 11136, Note_on_c, 0, 70, 80
2, 11174, Note_off_c, 0, 70, 0
2, 11174, Note_off_c, 0, 82, 0
2, 11174, Note_off_c, 0, 74, 0
2, 11232, Note_on_c, 0, 89, 80
2, 11232, Note_on_c, 0, 65, 80
2, 11232, Note_on_c, 0, 75, 80
2, 11232, Note_on_c, 0, 69, 80
2, 11251, Note_off_c, 0, 89, 0
2, 11256, Note_on_c, 0, 89, 80
2, 11275, Note_off_c, 0, 89, 0
2, 11280, Note_on_c, 0, 89, 80
2, 11299, Note_off_c, 0, 89, 0
2, 11304, Note_on_c, 0, 89, 80
2, 11308, Note_off_c, 0, 65, 0
2, 11308, Note_off_c, 0, 75, 0
2, 11308, Note_off_c, 0, 69, 0
2, 11323, Note_off_c, 0, 89, 0
2, 11328, Note_on_c, 0, 70, 80
2, 11328, Note_on_c, 0, 82, 80
2, 11328, Note_on_c, 0, 74, 80
2, 11366, Note_off_c, 0, 74, 0
2, 11366, Note_off_c, 0, 70, 0
2, 11373, Note_off_c, 0, 82, 0
2, 11424, Note_on_c, 0, 65, 80
2, 11424, Note_on_c, 0, 69, 80
2, 11424, Note_on_c, 0, 75, 80
2, 11424, Note_on_c, 0, 89, 80
2, 11443, Note_off_c, 0, 89, 0
2, 11448, Note_on_c, 0, 89, 80
2, 11467, Note_off_c, 0, 89, 0
2, 11472, Note_on_c, 0, 89, 80
2, 11491, Note_off_c, 0, 89, 0
2, 11496, Note_on_c, 0, 89, 80
2, 11500, Note_off_c, 0, 75, 0
2, 11500, Note_off_c, 0, 69, 0
2, 11500, Note_off_c, 0, 65, 0
2, 11515, Note_off_c, 0, 89, 0
2, 11520, Note_on_c, 0, 70, 80
2, 11520, Note_on_c, 0, 82, 80
2, 11520, Note_on_c, 0, 74, 80
2, 11558, Note_off_c, 0, 74, 0
2, 11558, Note_off_c, 0, 82, 0
2, 11558, Note_off_c, 0, 70, 0
2, 11616, Note_on_c, 0, 36, 80
2, 11616, Note_on_c, 0, 48, 80
2, 11712, Note_on_c, 0, 53, 80
2, 11712, Note_on_c, 0, 51, 80
2, 11712, Note_on_c, 0, 56, 80
2, 11769, Note_off_c, 0, 48, 0
2, 11769, Note_off_c, 0, 36, 0
2, 11808, Note_on_c, 0, 35, 80
2, 11808, Note_on_c, 0, 47, 80
2, 11865, Note_off_c, 0, 53, 0
2, 11865, Note_off_c, 0, 51, 0
2, 11865, Note_off_c, 0, 56, 0
2, 11884, Note_off_c, 0, 35, 0
2, 11884, Note_off_c, 0, 47, 0
2, 11904, Note_on_c, 0, 34, 80
2, 11904, Note_on_c, 0, 46, 80
2, 11904, Note_on_c, 0, 50, 80
2, 11904, Note_on_c, 0, 53, 80
2, 11904, Note_on_c, 0, 56, 80
2, 11980, Note_off_c, 0, 56, 0
2, 11980, Note_off_c, 0, 53, 0
2, 11980, Note_off_c, 0, 50, 0
2, 12000, Note_on_c, 0, 51, 80
2, 12019, Note_off_c, 0, 51, 0
2, 12024, Note_on_c, 0, 50, 80
2, 12043, Note_off_c, 0, 50, 0
2, 12048, Note_on_c, 0, 53, 80
2, 12057, Note_off_c, 0, 46, 0
2, 12057, Note_off_c, 0, 34, 0
2, 12067, Note_off_c, 0, 53, 0
2, 12072, Note_on_c, 0, 56, 80
2, 12091, Note_off_c, 0, 56, 0
2, 12096, Note_on_c, 0, 62, 80
2, 12115, Note_off_c, 0, 62, 0
2, 12120, Note_on_c, 0, 65, 80
2, 12139, Note_off_c, 0, 65, 0
2, 12144, Note_on_c, 0, 68, 80
2, 12163, Note_off_c, 0, 68, 0
2, 12168, Note_on_c, 0, 74, 80
2, 12187, Note_off_c, 0, 74, 0
2, 12192, Note_on_c, 0, 77, 80
2, 12211, Note_off_c, 0, 77, 0
2, 12216, Note_on_c, 0, 80, 80
2, 12235, Note_off_c, 0, 80, 0
2, 12288, Note_on_c, 0, 70, 80
2, 12288, Note_on_c, 0, 51, 80
2, 12326, Note_off_c, 0, 51, 0
2, 12336, Note_on_c, 0, 55, 80
2, 12374, Note_off_c, 0, 55, 0
2, 12384, Note_on_c, 0, 58, 80
2, 12403, Note_off_c, 0, 70, 0
2, 12408, Note_on_c, 0, 69, 80
2, 12417, Note_off_c, 0, 69, 0
2, 12420, Note_on_c, 0, 70, 80
2, 12422, Note_off_c, 0, 58, 0
2, 12429, Note_off_c, 0, 70, 0
2, 12432, Note_on_c, 0, 55, 80
2, 12432, Note_on_c, 0, 72, 80
2, 12441, Note_off_c, 0, 72, 0
2, 12444, Note_on_c, 0, 70, 80
2, 12453, Note_off_c, 0, 70, 0
2, 12456, Note_on_c, 0, 69, 80
2, 12465, Note_off_c, 0, 69, 0
2, 12468, Note_on_c, 0, 70, 80
2, 12470, Note_off_c, 0, 55, 0
2, 12477, Note_off_c, 0, 70, 0
2, 12480, Note_on_c, 0, 67, 80
2, 12480, Note_on_c, 0, 51, 80
2, 12518, Note_off_c, 0, 51, 0
2, 12528, Note_on_c, 0, 55, 80
2, 12556, Note_off_c, 0, 67, 0
2, 12566, Note_off_c, 0, 55, 0
2, 12576, Note_on_c, 0, 58, 80
2, 12576, Note_on_c, 0, 67, 80
2, 12614, Note_off_c, 0, 58, 0
2, 12624, Note_on_c, 0, 55, 80
2, 12652, Note_off_c, 0, 67, 0
2, 12662, Note_off_c, 0, 55, 0
2, 12672, Note_on_c, 0, 67, 80
2, 12672, Note_on_c, 0, 63, 80
2, 12672, Note_on_c, 0, 46, 80
2, 12710, Note_off_c, 0, 46, 0
2, 12720, Note_on_c, 0, 51, 80
2, 12758, Note_off_c, 0, 51, 0
2, 12768, Note_on_c, 0, 55, 80
2, 12806, Note_off_c, 0, 63, 0
2, 12806, Note_off_c, 0, 67, 0
2, 12806, Note_off_c, 0, 55, 0
2, 12816, Note_on_c, 0, 51, 80
2, 12816, Note_on_c, 0, 65, 80
2, 12816, Note_on_c, 0, 63, 80
2, 12821, Note_on_c, 0, 65, 80
2, 12822, Note_off_c, 0, 63, 0
2, 12822, Note_off_c, 0, 65, 0
2, 12828, Note_off_c, 0, 65, 0
2, 12828, Note_on_c, 0, 67, 80
2, 12834, Note_off_c, 0, 67, 0
2, 12840, Note_on_c, 0, 68, 80
2, 12854, Note_off_c, 0, 51, 0
2, 12859, Note_off_c, 0, 68, 0
2, 12864, Note_on_c, 0, 62, 80
2, 12864, Note_on_c, 0, 46, 80
2, 12864, Note_on_c, 0, 58, 80
2, 12902, Note_off_c, 0, 46, 0
2, 12912, Note_on_c, 0, 50, 80
2, 12940, Note_off_c, 0, 62, 0
2, 12940, Note_off_c, 0, 58, 0
2, 12950, Note_off_c, 0, 50, 0
2, 12960, Note_on_c, 0, 53, 80
2, 12984, Note_on_c, 0, 70, 80
2, 12998, Note_off_c, 0, 53, 0
2, 13003, Note_off_c, 0, 70, 0
2, 13008, Note_on_c, 0, 50, 80
2, 13008, Note_on_c, 0, 68, 80
2, 13027, Note_off_c, 0, 68, 0
2, 13032, Note_on_c, 0, 65, 80
2, 13046, Note_off_c, 0, 50, 0
2, 13051, Note_off_c, 0, 65, 0
2, 13056, Note_on_c, 0, 51, 80
2, 13056, Note_on_c, 0, 55, 80
2, 13056, Note_on_c, 0, 63, 80
2, 13094, Note_off_c, 0, 55, 0
2, 13104, Note_on_c, 0, 58, 80
2, 13142, Note_off_c, 0, 58, 0
2, 13152, Note_on_c, 0, 55, 80
2, 13190, Note_off_c, 0, 55, 0
2, 13200, Note_on_c, 0, 58, 80
2, 13209, Note_off_c, 0, 51, 0
2, 13209, Note_off_c, 0, 63, 0
2, 13238, Note_off_c, 0, 58, 0
2, 13248, Note_on_c, 0, 58, 80
2, 13248, Note_on_c, 0, 46, 80
2, 13248, Note_on_c, 0, 65, 80
2, 13286, Note_off_c, 0, 58, 0
2, 13296, Note_on_c, 0, 62, 80
2, 13334, Note_off_c, 0, 62, 0
2, 13344, Note_on_c, 0, 58, 80
2, 13382, Note_off_c, 0, 58, 0
2, 13392, Note_on_c, 0, 62, 80
2, 13401, Note_off_c, 0, 46, 0
2, 13401, Note_off_c, 0, 65, 0
2, 13430, Note_off_c, 0, 62, 0
2, 13440, Note_on_c, 0, 39, 80
2, 13440, Note_on_c, 0, 63, 80
2, 13440, Note_on_c, 0, 67, 80
2, 13488, Note_on_c, 0, 67, 80
2, 13488, Note_on_c, 0, 68, 80
2, 13493, Note_on_c, 0, 65, 80
2, 13494, Note_off_c, 0, 68, 0
2, 13494, Note_off_c, 0, 67, 0
2, 13497, Note_off_c, 0, 63, 0
2, 13497, Note_off_c, 0, 67, 0
2, 13500, Note_off_c, 0, 65, 0
2, 13500, Note_on_c, 0, 67, 80
2, 13506, Note_off_c, 0, 67, 0
2, 13512, Note_on_c, 0, 68, 80
2, 13531, Note_off_c, 0, 68, 0
2, 13536, Note_on_c, 0, 70, 80
2, 13555, Note_off_c, 0, 70, 0
2, 13560, Note_on_c, 0, 72, 80
2, 13579, Note_off_c, 0, 72, 0
2, 13584, Note_on_c, 0, 74, 80
2, 13593, Note_off_c, 0, 39, 0
2, 13603, Note_off_c, 0, 74, 0
2, 13608, Note_on_c, 0, 75, 80
2, 13627, Note_off_c, 0, 75, 0
2, 13632, Note_on_c, 0, 70, 80
2, 13670, Note_off_c, 0, 70, 0
2, 13728, Note_on_c, 0, 79, 80
2, 13728, Note_on_c, 0, 75, 80
2, 13766, Note_off_c, 0, 75, 0
2, 13766, Note_off_c, 0, 79, 0
2, 13776, Note_on_c, 0, 74, 80
2, 13776, Note_on_c, 0, 77, 80
2, 13814, Note_off_c, 0, 77, 0
2, 13814, Note_off_c, 0, 74, 0
2, 13824, Note_on_c, 0, 72, 80
2, 13824, Note_on_c, 0, 75, 80
2, 13862, Note_off_c, 0, 75, 0
2, 13862, Note_off_c, 0, 72, 0
2, 13872, Note_on_c, 0, 70, 80
2, 13872, Note_on_c, 0, 74, 80
2, 13920, Note_on_c, 0, 38, 80
2, 13920, Note_on_c, 0, 50, 80
2, 13939, Note_off_c, 0, 74, 0
2, 13939, Note_off_c, 0, 70, 0
2, 13944, Note_on_c, 0, 68, 80
2, 13944, Note_on_c, 0, 72, 80
2, 13958, Note_off_c, 0, 38, 0
2, 13958, Note_off_c, 0, 50, 0
2, 13968, Note_on_c, 0, 51, 80
2, 13968, Note_on_c, 0, 39, 80
2, 13982, Note_off_c, 0, 68, 0
2, 13982, Note_off_c, 0, 72, 0
2, 13992, Note_on_c, 0, 67, 80
2, 13992, Note_on_c, 0, 70, 80
2, 14006, Note_off_c, 0, 51, 0
2, 14006, Note_off_c, 0, 39, 0
2, 14016, Note_on_c, 0, 41, 80
2, 14016, Note_on_c, 0, 53, 80
2, 14030, Note_off_c, 0, 67, 0
2, 14030, Note_off_c, 0, 70, 0
2, 14040, Note_on_c, 0, 65, 80
2, 14040, Note_on_c, 0, 68, 80
2, 14054, Note_off_c, 0, 41, 0
2, 14054, Note_off_c, 0, 53, 0
2, 14064, Note_on_c, 0, 55, 80
2, 14064, Note_on_c, 0, 43, 80
2, 14078, Note_off_c, 0, 65, 0
2, 14078, Note_off_c, 0, 68, 0
2, 14088, Note_on_c, 0, 63, 80
2, 14088, Note_on_c, 0, 67, 80
2, 14102, Note_off_c, 0, 55, 0
2, 14102, Note_off_c, 0, 43, 0
2, 14112, Note_on_c, 0, 44, 80
2, 14112, Note_on_c, 0, 56, 80
2, 14126, Note_off_c, 0, 63, 0
2, 14126, Note_off_c, 0, 67, 0
2, 14136, Note_on_c, 0, 60, 80
2, 14136, Note_on_c, 0, 72, 80
2, 14150, Note_off_c, 0, 44, 0
2, 14150, Note_off_c, 0, 56, 0
2, 14160, Note_on_c, 0, 53, 80
2, 14160, Note_on_c, 0, 43, 80
2, 14174, Note_off_c, 0, 60, 0
2, 14174, Note_off_c, 0, 72, 0
2, 14184, Note_on_c, 0, 68, 80
2, 14184, Note_on_c, 0, 65, 80
2, 14198, Note_off_c, 0, 53, 0
2, 14198, Note_off_c, 0, 43, 0
2, 14203, Note_off_c, 0, 68, 0
2, 14203, Note_off_c, 0, 65, 0
2, 14208, Note_on_c, 0, 57, 80
2, 14208, Note_on_c, 0, 67, 80
2, 14208, Note_on_c, 0, 63, 80
2, 14246, Note_off_c, 0, 57, 0
2, 14256, Note_on_c, 0, 58, 80
2, 14294, Note_off_c, 0, 58, 0
2, 14304, Note_on_c, 0, 55, 80
2, 14342, Note_off_c, 0, 55, 0
2, 14352, Note_on_c, 0, 51, 80
2, 14361, Note_off_c, 0, 67, 0
2, 14361, Note_off_c, 0, 63, 0
2, 14390, Note_off_c, 0, 51, 0
2, 14400, Note_on_c, 0, 46, 80
2, 14400, Note_on_c, 0, 65, 80
2, 14400, Note_on_c, 0, 62, 80
2, 14438, Note_off_c, 0, 62, 0
2, 14438, Note_off_c, 0, 65, 0
2, 14448, Note_on_c, 0, 67, 80
2, 14476, Note_off_c, 0, 46, 0
2, 14486, Note_off_c, 0, 67, 0
2, 14496, Note_on_c, 0, 68, 80
2, 14534, Note_off_c, 0, 68, 0
2, 14544, Note_on_c, 0, 69, 80
2, 14582, Note_off_c, 0, 69, 0
2, 14592, Note_on_c, 0, 70, 80
2, 14592, Note_on_c, 0, 51, 80
2, 14630, Note_off_c, 0, 51, 0
2, 14640, Note_on_c, 0, 55, 80
2, 14678, Note_off_c, 0, 55, 0
2, 14688, Note_on_c, 0, 58, 80
2, 14707, Note_off_c, 0, 70, 0
2, 14712, Note_on_c, 0, 74, 80
2, 14726, Note_off_c, 0, 58, 0
2, 14731, Note_off_c, 0, 74, 0
2, 14736, Note_on_c, 0, 75, 80
2, 14736, Note_on_c, 0, 55, 80
2, 14755, Note_off_c, 0, 75, 0
2, 14760, Note_on_c, 0, 70, 80
2, 14774, Note_off_c, 0, 55, 0
2, 14779, Note_off_c, 0, 70, 0
2, 14784, Note_on_c, 0, 51, 80
2, 14784, Note_on_c, 0, 67, 80
2, 14822, Note_off_c, 0, 67, 0
2, 14822, Note_off_c, 0, 51, 0
2, 14832, Note_on_c, 0, 67, 80
2, 14832, Note_on_c, 0, 55, 80
2, 14870, Note_off_c, 0, 55, 0
2, 14870, Note_off_c, 0, 67, 0
2, 14880, Note_on_c, 0, 58, 80
2, 14880, Note_on_c, 0, 67, 80
2, 14918, Note_off_c, 0, 67, 0
2, 14918, Note_off_c, 0, 58, 0
2, 14928, Note_on_c, 0, 67, 80
2, 14928, Note_on_c, 0, 55, 80
2, 14966, Note_off_c, 0, 55, 0
2, 14966, Note_off_c, 0, 67, 0
2, 14976, Note_on_c, 0, 46, 80
2, 14976, Note_on_c, 0, 63, 80
2, 14976, Note_on_c, 0, 67, 80
2, 15014, Note_off_c, 0, 46, 0
2, 15024, Note_on_c, 0, 51, 80
2, 15062, Note_off_c, 0, 51, 0
2, 15072, Note_on_c, 0, 55, 80
2, 15110, Note_off_c, 0, 63, 0
2, 15110, Note_off_c, 0, 67, 0
2, 15110, Note_off_c, 0, 55, 0
2, 15120, Note_on_c, 0, 51, 80
2, 15144, Note_on_c, 0, 68, 80
2, 15158, Note_off_c, 0, 51, 0
2, 15163, Note_off_c, 0, 68, 0
2, 15168, Note_on_c, 0, 62, 80
2, 15168, Note_on_c, 0, 46, 80
2, 15168, Note_on_c, 0, 65, 80
2, 15206, Note_off_c, 0, 46, 0
2, 15216, Note_on_c, 0, 50, 80
2, 15244, Note_off_c, 0, 62, 0
2, 15244, Note_off_c, 0, 65, 0
2, 15254, Note_off_c, 0, 50, 0
2, 15264, Note_on_c, 0, 53, 80
2, 15288, Note_on_c, 0, 58, 80
2, 15302, Note_off_c, 0, 53, 0
2, 15307, Note_off_c, 0, 58, 0
2, 15312, Note_on_c, 0, 46, 80
2, 15312, Note_on_c, 0, 60, 80
2, 15331, Note_off_c, 0, 60, 0
2, 15336, Note_on_c, 0, 62, 80
2, 15350, Note_off_c, 0, 46, 0
2, 15355, Note_off_c, 0, 62, 0
2, 15360, Note_on_c, 0, 51, 80
2, 15408, Note_on_c, 0, 58, 80
2, 15446, Note_off_c, 0, 58, 0
2, 15456, Note_on_c, 0, 55, 80
2, 15494, Note_off_c, 0, 55, 0
2, 15504, Note_on_c, 0, 58, 80
2, 15513, Note_off_c, 0, 51, 0
2, 15542, Note_off_c, 0, 58, 0
2, 15552, Note_on_c, 0, 62, 80
2, 15552, Note_on_c, 0, 46, 80
2, 15590, Note_off_c, 0, 62, 0
2, 15600, Note_on_c, 0, 58, 80
2, 15638, Note_off_c, 0, 58, 0
2, 15648, Note_on_c, 0, 62, 80
2, 15686, Note_off_c, 0, 62, 0
2, 15696, Note_on_c, 0, 58, 80
2, 15705, Note_off_c, 0, 46, 0
2, 15734, Note_off_c, 0, 58, 0
2, 15744, Note_on_c, 0, 67, 80
2, 15744, Note_on_c, 0, 63, 80
2, 15744, Note_on_c, 0, 39, 80
2, 15801, Note_off_c, 0, 63, 0
2, 15801, Note_off_c, 0, 67, 0
2, 15816, Note_on_c, 0, 68, 80
2, 15835, Note_off_c, 0, 68, 0
2, 15840, Note_on_c, 0, 70, 80
2, 15859, Note_off_c, 0, 70, 0
2, 15864, Note_on_c, 0, 72, 80
2, 15883, Note_off_c, 0, 72, 0
2, 15888, Note_on_c, 0, 74, 80
2, 15897, Note_off_c, 0, 39, 0
2, 15907, Note_off_c, 0, 74, 0
2, 15912, Note_on_c, 0, 75, 80
2, 15931, Note_off_c, 0, 75, 0
2, 15936, Note_on_c, 0, 70, 80
2, 15974, Note_off_c, 0, 70, 0
2, 16032, Note_on_c, 0, 75, 80
2, 16051, Note_off_c, 0, 75, 0
2, 16056, Note_on_c, 0, 74, 80
2, 16075, Note_off_c, 0, 74, 0
2, 16080, Note_on_c, 0, 73, 80
2, 16099, Note_off_c, 0, 73, 0
2, 16104, Note_on_c, 0, 72, 80
2, 16123, Note_off_c, 0, 72, 0
2, 16128, Note_on_c, 0, 71, 80
2, 16166, Note_off_c, 0, 71, 0
2, 16176, Note_on_c, 0, 63, 80
2, 16176, Note_on_c, 0, 55, 80
2, 16214, Note_off_c, 0, 55, 0
2, 16214, Note_off_c, 0, 63, 0
2, 16224, Note_on_c, 0, 75, 80
2, 16243, Note_off_c, 0, 75, 0
2, 16248, Note_on_c, 0, 74, 80
2, 16267, Note_off_c, 0, 74, 0
2, 16272, Note_on_c, 0, 73, 80
2, 16291, Note_off_c, 0, 73, 0
2, 16296, Note_on_c, 0, 72, 80
2, 16315, Note_off_c, 0, 72, 0
2, 16320, Note_on_c, 0, 71, 80
2, 16358, Note_off_c, 0, 71, 0
2, 16368, Note_on_c, 0, 63, 80
2, 16368, Note_on_c, 0, 55, 80
2, 16406, Note_off_c, 0, 55, 0
2, 16406, Note_off_c, 0, 63, 0
2, 16416, Note_on_c, 0, 75, 80
2, 16435, Note_off_c, 0, 75, 0
2, 16440, Note_on_c, 0, 74, 80
2, 16459, Note_off_c, 0, 74, 0
2, 16464, Note_on_c, 0, 73, 80
2, 16483, Note_off_c, 0, 73, 0
2, 16488, Note_on_c, 0, 72, 80
2, 16507, Note_off_c, 0, 72, 0
2, 16512, Note_on_c, 0, 71, 80
2, 16512, Note_on_c, 0, 55, 80
2, 16512, Note_on_c, 0, 61, 80
2, 16512, Note_on_c, 0, 63, 80
2, 16665, Note_off_c, 0, 61, 0
2, 16665, Note_off_c, 0, 55, 0
2, 16665, Note_off_c, 0, 71, 0
2, 16704, Note_on_c, 0, 72, 80
2, 16704, Note_on_c, 0, 56, 80
2, 16704, Note_on_c, 0, 60, 80
2, 16742, Note_off_c, 0, 72, 0
2, 16780, Note_off_c, 0, 63, 0
2, 16780, Note_off_c, 0, 56, 0
2, 16780, Note_off_c, 0, 60, 0
2, 16800, Note_on_c, 0, 65, 80
2, 16819, Note_off_c, 0, 65, 0
2, 16824, Note_on_c, 0, 67, 80
2, 16843, Note_off_c, 0, 67, 0
2, 16848, Note_on_c, 0, 68, 80
2, 16867, Note_off_c, 0, 68, 0
2, 16872, Note_on_c, 0, 69, 80
2, 16891, Note_off_c, 0, 69, 0
2, 16896, Note_on_c, 0, 70, 80
2, 16992, Note_on_c, 0, 43, 80
2, 16992, Note_on_c, 0, 51, 80
2, 17011, Note_off_c, 0, 70, 0
2, 17016, Note_on_c, 0, 74, 80
2, 17025, Note_off_c, 0, 74, 0
2, 17028, Note_on_c, 0, 72, 80
2, 17037, Note_off_c, 0, 72, 0
2, 17040, Note_on_c, 0, 75, 80
2, 17049, Note_off_c, 0, 75, 0
2, 17052, Note_on_c, 0, 74, 80
2, 17061, Note_off_c, 0, 74, 0
2, 17064, Note_on_c, 0, 77, 80
2, 17068, Note_off_c, 0, 43, 0
2, 17068, Note_off_c, 0, 51, 0
2, 17073, Note_off_c, 0, 77, 0
2, 17076, Note_on_c, 0, 75, 80
2, 17085, Note_off_c, 0, 75, 0
2, 17088, Note_on_c, 0, 63, 80
2, 17088, Note_on_c, 0, 46, 80
2, 17088, Note_on_c, 0, 55, 80
2, 17088, Note_on_c, 0, 58, 80
2, 17164, Note_off_c, 0, 55, 0
2, 17164, Note_off_c, 0, 46, 0
2, 17184, Note_on_c, 0, 56, 80
2, 17203, Note_off_c, 0, 63, 0
2, 17203, Note_off_c, 0, 58, 0
2, 17232, Note_on_c, 0, 62, 80
2, 17232, Note_on_c, 0, 67, 80
2, 17251, Note_off_c, 0, 67, 0
2, 17251, Note_off_c, 0, 62, 0
2, 17256, Note_on_c, 0, 65, 80
2, 17260, Note_off_c, 0, 56, 0
2, 17275, Note_off_c, 0, 65, 0
2, 17280, Note_on_c, 0, 51, 80
2, 17280, Note_on_c, 0, 63, 80
2, 17280, Note_on_c, 0, 55, 80
2, 17356, Note_off_c, 0, 55, 0
2, 17356, Note_off_c, 0, 63, 0
2, 17356, Note_off_c, 0, 51, 0
2, 17376, Note_on_c, 0, 55, 80
2, 17376, Note_on_c, 0, 51, 80
2, 17376, Note_on_c, 0, 63, 80
2, 17452, Note_off_c, 0, 63, 0
2, 17452, Note_off_c, 0, 51, 0
2, 17452, Note_off_c, 0, 55, 0
2, 17664, Note_on_c, 0, 32, 80
2, 17664, Note_on_c, 0, 60, 80
2, 17664, Note_on_c, 0, 51, 80
2, 17702, Note_off_c, 0, 32, 0
2, 17712, Note_on_c, 0, 44, 80
2, 17750, Note_off_c, 0, 44, 0
2, 17760, Note_on_c, 0, 44, 80
2, 17798, Note_off_c, 0, 44, 0
2, 17808, Note_on_c, 0, 44, 80
2, 17817, Note_off_c, 0, 60, 0
2, 17817, Note_off_c, 0, 51, 0
2, 17846, Note_off_c, 0, 44, 0
2, 17856, Note_on_c, 0, 44, 80
2, 17856, Note_on_c, 0, 58, 80
2, 17856, Note_on_c, 0, 49, 80
2, 17894, Note_off_c, 0, 44, 0
2, 17904, Note_on_c, 0, 44, 80
2, 17942, Note_off_c, 0, 44, 0
2, 17952, Note_on_c, 0, 44, 80
2, 17990, Note_off_c, 0, 44, 0
2, 18000, Note_on_c, 0, 44, 80
2, 18009, Note_off_c, 0, 58, 0
2, 18009, Note_off_c, 0, 49, 0
2, 18038, Note_off_c, 0, 44, 0
2, 18048, Note_on_c, 0, 48, 80
2, 18048, Note_on_c, 0, 56, 80
2, 18048, Note_on_c, 0, 44, 80
2, 18048, Note_on_c, 0, 63, 80
2, 18086, Note_off_c, 0, 44, 0
2, 18086, Note_off_c, 0, 48, 0
2, 18096, Note_on_c, 0, 44, 80
2, 18134, Note_off_c, 0, 44, 0
2, 18144, Note_on_c, 0, 44, 80
2, 18182, Note_off_c, 0, 44, 0
2, 18192, Note_on_c, 0, 44, 80
2, 18201, Note_off_c, 0, 56, 0
2, 18230, Note_off_c, 0, 44, 0
2, 18240, Note_on_c, 0, 46, 80
2, 18240, Note_on_c, 0, 39, 80
2, 18240, Note_on_c, 0, 55, 80
2, 18259, Note_off_c, 0, 63, 0
2, 18264, Note_on_c, 0, 65, 80
2, 18278, Note_off_c, 0, 46, 0
2, 18278, Note_off_c, 0, 39, 0
2, 18283, Note_off_c, 0, 65, 0
2, 18288, Note_on_c, 0, 39, 80
2, 18288, Note_on_c, 0, 63, 80
2, 18307, Note_off_c, 0, 63, 0
2, 18312, Note_on_c, 0, 65, 80
2, 18326, Note_off_c, 0, 39, 0
2, 18331, Note_off_c, 0, 65, 0
2, 18336, Note_on_c, 0, 39, 80
2, 18336, Note_on_c, 0, 61, 80
2, 18355, Note_off_c, 0, 61, 0
2, 18360, Note_on_c, 0, 63, 80
2, 18374, Note_off_c, 0, 39, 0
2, 18379, Note_off_c, 0, 63, 0
2, 18384, Note_on_c, 0, 39, 80
2, 18384, Note_on_c, 0, 61, 80
2, 18393, Note_off_c, 0, 55, 0
2, 18403, Note_off_c, 0, 61, 0
2, 18408, Note_on_c, 0, 63, 80
2, 18422, Note_off_c, 0, 39, 0
2, 18427, Note_off_c, 0, 63, 0
2, 18432, Note_on_c, 0, 51, 80
2, 18432, Note_on_c, 0, 60, 80
2, 18432, Note_on_c, 0, 32, 80
2, 18470, Note_off_c, 0, 32, 0
2, 18480, Note_on_c, 0, 44, 80
2, 18518, Note_off_c, 0, 44, 0
2, 18528, Note_on_c, 0, 44, 80
2, 18566, Note_off_c, 0, 44, 0
2, 18576, Note_on_c, 0, 44, 80
2, 18585, Note_off_c, 0, 60, 0
2, 18585, Note_off_c, 0, 51, 0
2, 18614, Note_off_c, 0, 44, 0
2, 18624, Note_on_c, 0, 44, 80
2, 18624, Note_on_c, 0, 58, 80
2, 18624, Note_on_c, 0, 49, 80
2, 18662, Note_off_c, 0, 44, 0
2, 18672, Note_on_c, 0, 44, 80
2, 18710, Note_off_c, 0, 44, 0
2, 18720, Note_on_c, 0, 44, 80
2, 18758, Note_off_c, 0, 44, 0
2, 18768, Note_on_c, 0, 44, 80
2, 18777, Note_off_c, 0, 58, 0
2, 18777, Note_off_c, 0, 49, 0
2, 18806, Note_off_c, 0, 44, 0
2, 18816, Note_on_c, 0, 56, 80
2, 18816, Note_on_c, 0, 63, 80
2, 18816, Note_on_c, 0, 44, 80
2, 18816, Note_on_c, 0, 48, 80
2, 18854, Note_off_c, 0, 48, 0
2, 18854, Note_off_c, 0, 44, 0
2, 18864, Note_on_c, 0, 44, 80
2, 18902, Note_off_c, 0, 44, 0
2, 18912, Note_on_c, 0, 44, 80
2, 18950, Note_off_c, 0, 44, 0
2, 18960, Note_on_c, 0, 44, 80
2, 18969, Note_off_c, 0, 56, 0
2, 18998, Note_off_c, 0, 44, 0
2, 19008, Note_on_c, 0, 46, 80
2, 19008, Note_on_c, 0, 39, 80
2, 19008, Note_on_c, 0, 55, 80
2, 19027, Note_off_c, 0, 63, 0
2, 19032, Note_on_c, 0, 65, 80
2, 19046, Note_off_c, 0, 46, 0
2, 19046, Note_off_c, 0, 39, 0
2, 19051, Note_off_c, 0, 65, 0
2, 19056, Note_on_c, 0, 39, 80
2, 19056, Note_on_c, 0, 63, 80
2, 19075, Note_off_c, 0, 63, 0
2, 19080, Note_on_c, 0, 65, 80
2, 19094, Note_off_c, 0, 39, 0
2, 19099, Note_off_c, 0, 65, 0
2, 19104, Note_on_c, 0, 39, 80
2, 19104, Note_on_c, 0, 61, 80
2, 19123, Note_off_c, 0, 61, 0
2, 19128, Note_on_c, 0, 63, 80
2, 19142, Note_off_c, 0, 39, 0
2, 19147, Note_off_c, 0, 63, 0
2, 19152, Note_on_c, 0, 39, 80
2, 19152, Note_on_c, 0, 61, 80
2, 19161, Note_off_c, 0, 55, 0
2, 19171, Note_off_c, 0, 61, 0
2, 19176, Note_on_c, 0, 63, 80
2, 19190, Note_off_c, 0, 39, 0
2, 19195, Note_off_c, 0, 63, 0
2, 19200, Note_on_c, 0, 56, 80
2, 19200, Note_on_c, 0, 60, 80
2, 19200, Note_on_c, 0, 44, 80
2, 19238, Note_off_c, 0, 44, 0
2, 19248, Note_on_c, 0, 56, 80
2, 19276, Note_off_c, 0, 60, 0
2, 19276, Note_off_c, 0, 56, 0
2, 19286, Note_off_c, 0, 56, 0
2, 19296, Note_on_c, 0, 60, 80
2, 19296, Note_on_c, 0, 68, 80
2, 19296, Note_on_c, 0, 56, 80
2, 19334, Note_off_c, 0, 56, 0
2, 19344, Note_on_c, 0, 56, 80
2, 19382, Note_off_c, 0, 56, 0
2, 19392, Note_on_c, 0, 56, 80
2, 19430, Note_off_c, 0, 56, 0
2, 19440, Note_on_c, 0, 56, 80
2, 19449, Note_off_c, 0, 68, 0
2, 19449, Note_off_c, 0, 60, 0
2, 19478, Note_off_c, 0, 56, 0
2, 19488, Note_on_c, 0, 67, 80
2, 19488, Note_on_c, 0, 63, 80
2, 19488, Note_on_c, 0, 56, 80
2, 19526, Note_off_c, 0, 56, 0
2, 19536, Note_on_c, 0, 56, 80
2, 19564, Note_off_c, 0, 63, 0
2, 19564, Note_off_c, 0, 67, 0
2, 19574, Note_off_c, 0, 56, 0
2, 19584, Note_on_c, 0, 63, 80
2, 19584, Note_on_c, 0, 56, 80
2, 19584, Note_on_c, 0, 67, 80
2, 19622, Note_off_c, 0, 67, 0
2, 19622, Note_off_c, 0, 63, 0
2, 19632, Note_on_c, 0, 61, 80
2, 19632, Note_on_c, 0, 65, 80
2, 19670, Note_off_c, 0, 65, 0
2, 19670, Note_off_c, 0, 61, 0
2, 19680, Note_on_c, 0, 63, 80
2, 19680, Note_on_c, 0, 60, 80
2, 19737, Note_off_c, 0, 56, 0
2, 19756, Note_off_c, 0, 63, 0
2, 19756, Note_off_c, 0, 60, 0
2, 19776, Note_on_c, 0, 74, 80
2, 19814, Note_off_c, 0, 74, 0
2, 19824, Note_on_c, 0, 75, 80
2, 19862, Note_off_c, 0, 75, 0
2, 19872, Note_on_c, 0, 77, 80
2, 19910, Note_off_c, 0, 77, 0
2, 19920, Note_on_c, 0, 75, 80
2, 19958, Note_off_c, 0, 75, 0
2, 19968, Note_on_c, 0, 75, 80
2, 19968, Note_on_c, 0, 51, 80
2, 20006, Note_off_c, 0, 51, 0
2, 20006, Note_off_c, 0, 75, 0
2, 20016, Note_on_c, 0, 58, 80
2, 20016, Note_on_c, 0, 67, 80
2, 20054, Note_off_c, 0, 67, 0
2, 20054, Note_off_c, 0, 58, 0
2, 20064, Note_on_c, 0, 67, 80
2, 20064, Note_on_c, 0, 61, 80
2, 20102, Note_off_c, 0, 61, 0
2, 20112, Note_on_c, 0, 58, 80
2, 20140, Note_off_c, 0, 67, 0
2, 20150, Note_off_c, 0, 58, 0
2, 20160, Note_on_c, 0, 51, 80
2, 20160, Note_on_c, 0, 67, 80
2, 20198, Note_off_c, 0, 67, 0
2, 20198, Note_off_c, 0, 51, 0
2, 20208, Note_on_c, 0, 67, 80
2, 20208, Note_on_c, 0, 58, 80
2, 20246, Note_off_c, 0, 58, 0
2, 20246, Note_off_c, 0, 67, 0
2, 20256, Note_on_c, 0, 61, 80
2, 20256, Note_on_c, 0, 68, 80
2, 20294, Note_off_c, 0, 68, 0
2, 20294, Note_off_c, 0, 61, 0
2, 20304, Note_on_c, 0, 70, 80
2, 20304, Note_on_c, 0, 58, 80
2, 20342, Note_off_c, 0, 58, 0
2, 20342, Note_off_c, 0, 70, 0
2, 20352, Note_on_c, 0, 58, 80
2, 20352, Note_on_c, 0, 70, 80
2, 20390, Note_off_c, 0, 58, 0
2, 20400, Note_on_c, 0, 51, 80
2, 20409, Note_off_c, 0, 70, 0
2, 20424, Note_on_c, 0, 72, 80
2, 20438, Note_off_c, 0, 51, 0
2, 20443, Note_off_c, 0, 72, 0
2, 20448, Note_on_c, 0, 56, 80
2, 20448, Note_on_c, 0, 68, 80
2, 20486, Note_off_c, 0, 56, 0
2, 20496, Note_on_c, 0, 60, 80
2, 20524, Note_off_c, 0, 68, 0
2, 20534, Note_off_c, 0, 60, 0
2, 20544, Note_on_c, 0, 56, 80
2, 20544, Note_on_c, 0, 74, 80
2, 20563, Note_off_c, 0, 74, 0
2, 20568, Note_on_c, 0, 75, 80
2, 20582, Note_off_c, 0, 56, 0
2, 20587, Note_off_c, 0, 75, 0
2, 20592, Note_on_c, 0, 51, 80
2, 20592, Note_on_c, 0, 74, 80
2, 20611, Note_off_c, 0, 74, 0
2, 20616, Note_on_c, 0, 75, 80
2, 20630, Note_off_c, 0, 51, 0
2, 20635, Note_off_c, 0, 75, 0
2, 20640, Note_on_c, 0, 56, 80
2, 20640, Note_on_c, 0, 74, 80
2, 20659, Note_off_c, 0, 74, 0
2, 20664, Note_on_c, 0, 75, 80
2, 20678, Note_off_c, 0, 56, 0
2, 20683, Note_off_c, 0, 75, 0
2, 20688, Note_on_c, 0, 60, 80
2, 20688, Note_on_c, 0, 77, 80
2, 20707, Note_off_c, 0, 77, 0
2, 20712, Note_on_c, 0, 75, 80
2, 20726, Note_off_c, 0, 60, 0
2, 20731, Note_off_c, 0, 75, 0
2, 20736, Note_on_c, 0, 75, 80
2, 20736, Note_on_c, 0, 56, 80
2, 20774, Note_off_c, 0, 56, 0
2, 20774, Note_off_c, 0, 75, 0
2, 20784, Note_on_c, 0, 51, 80
2, 20784, Note_on_c, 0, 70, 80
2, 20822, Note_off_c, 0, 70, 0
2, 20822, Note_off_c, 0, 51, 0
2, 20832, Note_on_c, 0, 70, 80
2, 20832, Note_on_c, 0, 55, 80
2, 20870, Note_off_c, 0, 55, 0
2, 20880, Note_on_c, 0, 58, 80
2, 20908, Note_off_c, 0, 70, 0
2, 20918, Note_off_c, 0, 58, 0
2, 20928, Note_on_c, 0, 55, 80
2, 20928, Note_on_c, 0, 70, 80
2, 20966, Note_off_c, 0, 70, 0
2, 20966, Note_off_c, 0, 55, 0
2, 20976, Note_on_c, 0, 51, 80
2, 20976, Note_on_c, 0, 70, 80
2, 21014, Note_off_c, 0, 70, 0
2, 21014, Note_off_c, 0, 51, 0
2, 21024, Note_on_c, 0, 72, 80
2, 21024, Note_on_c, 0, 55, 80
2, 21062, Note_off_c, 0, 55, 0
2, 21062, Note_off_c, 0, 72, 0
2, 21072, Note_on_c, 0, 73, 80
2, 21072, Note_on_c, 0, 58, 80
2, 21110, Note_off_c, 0, 58, 0
2, 21110, Note_off_c, 0, 73, 0
2, 21120, Note_on_c, 0, 55, 80
2, 21120, Note_on_c, 0, 71, 80
2, 21158, Note_off_c, 0, 55, 0
2, 21168, Note_on_c, 0, 56, 80
2, 21196, Note_off_c, 0, 71, 0
2, 21206, Note_off_c, 0, 56, 0
2, 21216, Note_on_c, 0, 72, 80
2, 21216, Note_on_c, 0, 60, 80
2, 21254, Note_off_c, 0, 60, 0
2, 21254, Note_off_c, 0, 72, 0
2, 21264, Note_on_c, 0, 56, 80
2, 21302, Note_off_c, 0, 56, 0
2, 21312, Note_on_c, 0, 71, 80
2, 21312, Note_on_c, 0, 51, 80
2, 21331, Note_off_c, 0, 71, 0
2, 21336, Note_on_c, 0, 72, 80
2, 21355, Note_off_c, 0, 72, 0
2, 21360, Note_on_c, 0, 71, 80
2, 21379, Note_off_c, 0, 71, 0
2, 21384, Note_on_c, 0, 72, 80
2, 21388, Note_off_c, 0, 51, 0
2, 21403, Note_off_c, 0, 72, 0
2, 21408, Note_on_c, 0, 71, 80
2, 21427, Note_off_c, 0, 71, 0
2, 21432, Note_on_c, 0, 72, 80
2, 21451, Note_off_c, 0, 72, 0
2, 21456, Note_on_c, 0, 73, 80
2, 21475, Note_off_c, 0, 73, 0
2, 21480, Note_on_c, 0, 72, 80
2, 21499, Note_off_c, 0, 72, 0
2, 21504, Note_on_c, 0, 77, 80
2, 21504, Note_on_c, 0, 70, 80
2, 21504, Note_on_c, 0, 80, 80
2, 21504, Note_on_c, 0, 74, 80
2, 21504, Note_on_c, 0, 50, 80
2, 21542, Note_off_c, 0, 50, 0
2, 21552, Note_on_c, 0, 53, 80
2, 21590, Note_off_c, 0, 53, 0
2, 21600, Note_on_c, 0, 58, 80
2, 21638, Note_off_c, 0, 58, 0
2, 21648, Note_on_c, 0, 53, 80
2, 21657, Note_off_c, 0, 74, 0
2, 21657, Note_off_c, 0, 80, 0
2, 21657, Note_off_c, 0, 70, 0
2, 21657, Note_off_c, 0, 77, 0
2, 21686, Note_off_c, 0, 53, 0
2, 21696, Note_on_c, 0, 50, 80
2, 21696, Note_on_c, 0, 80, 80
2, 21772, Note_off_c, 0, 50, 0
2, 21849, Note_off_c, 0, 80, 0
2, 21888, Note_on_c, 0, 79, 80
2, 21907, Note_off_c, 0, 79, 0
2, 21912, Note_on_c, 0, 80, 80
2, 21931, Note_off_c, 0, 80, 0
2, 21936, Note_on_c, 0, 82, 80
2, 21955, Note_off_c, 0, 82, 0
2, 21960, Note_on_c, 0, 80, 80
2, 21979, Note_off_c, 0, 80, 0
2, 21984, Note_on_c, 0, 79, 80
2, 22003, Note_off_c, 0, 79, 0
2, 22008, Note_on_c, 0, 77, 80
2, 22017, Note_off_c, 0, 77, 0
2, 22020, Note_on_c, 0, 75, 80
2, 22029, Note_off_c, 0, 75, 0
2, 22032, Note_on_c, 0, 74, 80
2, 22041, Note_off_c, 0, 74, 0
2, 22044, Note_on_c, 0, 72, 80
2, 22053, Note_off_c, 0, 72, 0
2, 22056, Note_on_c, 0, 70, 80
2, 22065, Note_off_c, 0, 70, 0
2, 22068, Note_on_c, 0, 68, 80
2, 22077, Note_off_c, 0, 68, 0
2, 22080, Note_on_c, 0, 67, 80
2, 22089, Note_off_c, 0, 67, 0
2, 22092, Note_on_c, 0, 65, 80
2, 22101, Note_off_c, 0, 65, 0
2, 22104, Note_on_c, 0, 63, 80
2, 22113, Note_off_c, 0, 63, 0
2, 22116, Note_on_c, 0, 62, 80
2, 22125, Note_off_c, 0, 62, 0
2, 22128, Note_on_c, 0, 60, 80
2, 22137, Note_off_c, 0, 60, 0
2, 22140, Note_on_c, 0, 58, 80
2, 22149, Note_off_c, 0, 58, 0
2, 22152, Note_on_c, 0, 56, 80
2, 22161, Note_off_c, 0, 56, 0
2, 22164, Note_on_c, 0, 55, 80
2, 22240, Note_off_c, 0, 55, 0
2, 22260, Note_on_c, 0, 53, 80
2, 22279, Note_off_c, 0, 53, 0
2, 22284, Note_on_c, 0, 51, 80
2, 22303, Note_off_c, 0, 51, 0
2, 22308, Note_on_c, 0, 50, 80
2, 22327, Note_off_c, 0, 50, 0
2, 22332, Note_on_c, 0, 51, 80
2, 22351, Note_off_c, 0, 51, 0
2, 22356, Note_on_c, 0, 53, 80
2, 22375, Note_off_c, 0, 53, 0
2, 22380, Note_on_c, 0, 55, 80
2, 22399, Note_off_c, 0, 55, 0
2, 22404, Note_on_c, 0, 56, 80
2, 22423, Note_off_c, 0, 56, 0
2, 22428, Note_on_c, 0, 58, 80
2, 22447, Note_off_c, 0, 58, 0
2, 22452, Note_on_c, 0, 60, 80
2, 22461, Note_off_c, 0, 60, 0
2, 22464, Note_on_c, 0, 62, 80
2, 22473, Note_off_c, 0, 62, 0
2, 22476, Note_on_c, 0, 63, 80
2, 22485, Note_off_c, 0, 63, 0
2, 22488, Note_on_c, 0, 65, 80
2, 22497, Note_off_c, 0, 65, 0
2, 22500, Note_on_c, 0, 67, 80
2, 22509, Note_off_c, 0, 67, 0
2, 22512, Note_on_c, 0, 68, 80
2, 22521, Note_off_c, 0, 68, 0
2, 22524, Note_on_c, 0, 70, 80
2, 22533, Note_off_c, 0, 70, 0
2, 22536, Note_on_c, 0, 72, 80
2, 22545, Note_off_c, 0, 72, 0
2, 22548, Note_on_c, 0, 74, 80
2, 22557, Note_off_c, 0, 74, 0
2, 22560, Note_on_c, 0, 75, 80
2, 22569, Note_off_c, 0, 75, 0
2, 22572, Note_on_c, 0, 77, 80
2, 22581, Note_off_c, 0, 77, 0
2, 22584, Note_on_c, 0, 79, 80
2, 22593, Note_off_c, 0, 79, 0
2, 22596, Note_on_c, 0, 80, 80
2, 22605, Note_off_c, 0, 80, 0
2, 22608, Note_on_c, 0, 82, 80
2, 22617, Note_off_c, 0, 82, 0
2, 22620, Note_on_c, 0, 84, 80
2, 22629, Note_off_c, 0, 84, 0
2, 22632, Note_on_c, 0, 86, 80
2, 22641, Note_off_c, 0, 86, 0
2, 22656, Note_on_c, 0, 87, 80
2, 22656, Note_on_c, 0, 48, 80
2, 22694, Note_off_c, 0, 48, 0
2, 22704, Note_on_c, 0, 51, 80
2, 22732, Note_off_c, 0, 87, 0
2, 22742, Note_off_c, 0, 51, 0
2, 22752, Note_on_c, 0, 57, 80
2, 22752, Note_on_c, 0, 87, 80
2, 22790, Note_off_c, 0, 57, 0
2, 22800, Note_on_c, 0, 51, 80
2, 22838, Note_off_c, 0, 51, 0
2, 22848, Note_on_c, 0, 48, 80
2, 22905, Note_off_c, 0, 87, 0
2, 22924, Note_off_c, 0, 48, 0
2, 22944, Note_on_c, 0, 86, 80
2, 22963, Note_off_c, 0, 86, 0
2, 22968, Note_on_c, 0, 87, 80
2, 22987, Note_off_c, 0, 87, 0
2, 22992, Note_on_c, 0, 89, 80
2, 23011, Note_off_c, 0, 89, 0
2, 23016, Note_on_c, 0, 87, 80
2, 23035, Note_off_c, 0, 87, 0
2, 23040, Note_on_c, 0, 86, 80
2, 23059, Note_off_c, 0, 86, 0
2, 23064, Note_on_c, 0, 84, 80
2, 23083, Note_off_c, 0, 84, 0
2, 23088, Note_on_c, 0, 82, 80
2, 23107, Note_off_c, 0, 82, 0
2, 23112, Note_on_c, 0, 81, 80
2, 23121, Note_off_c, 0, 81, 0
2, 23124, Note_on_c, 0, 79, 80
2, 23133, Note_off_c, 0, 79, 0
2, 23136, Note_on_c, 0, 77, 80
2, 23145, Note_off_c, 0, 77, 0
2, 23148, Note_on_c, 0, 75, 80
2, 23157, Note_off_c, 0, 75, 0
2, 23160, Note_on_c, 0, 74, 80
2, 23169, Note_off_c, 0, 74, 0
2, 23172, Note_on_c, 0, 72, 80
2, 23181, Note_off_c, 0, 72, 0
2, 23184, Note_on_c, 0, 70, 80
2, 23193, Note_off_c, 0, 70, 0
2, 23196, Note_on_c, 0, 69, 80
2, 23205, Note_off_c, 0, 69, 0
2, 23208, Note_on_c, 0, 67, 80
2, 23217, Note_off_c, 0, 67, 0
2, 23220, Note_on_c, 0, 65, 80
2, 23229, Note_off_c, 0, 65, 0
2, 23232, Note_on_c, 0, 62, 80
2, 23270, Note_off_c, 0, 62, 0
2, 23280, Note_on_c, 0, 65, 80
2, 23318, Note_off_c, 0, 65, 0
2, 23328, Note_on_c, 0, 70, 80
2, 23404, Note_off_c, 0, 70, 0
2, 23424, Note_on_c, 0, 70, 80
2, 23510, Note_off_c, 0, 70, 0
2, 23520, Note_on_c, 0, 75, 80
2, 23558, Note_off_c, 0, 75, 0
2, 23568, Note_on_c, 0, 72, 80
2, 23606, Note_off_c, 0, 72, 0
2, 23616, Note_on_c, 0, 65, 80
2, 23616, Note_on_c, 0, 62, 80
2, 23616, Note_on_c, 0, 70, 80
2, 23654, Note_off_c, 0, 70, 0
2, 23654, Note_off_c, 0, 62, 0
2, 23654, Note_off_c, 0, 65, 0
2, 23664, Note_on_c, 0, 75, 80
2, 23702, Note_off_c, 0, 75, 0
2, 23712, Note_on_c, 0, 66, 80
2, 23712, Note_on_c, 0, 71, 80
2, 23712, Note_on_c, 0, 63, 80
2, 23750, Note_off_c, 0, 71, 0
2, 23760, Note_on_c, 0, 69, 80
2, 23788, Note_off_c, 0, 66, 0
2, 23788, Note_off_c, 0, 63, 0
2, 23798, Note_off_c, 0, 69, 0
2, 23808, Note_on_c, 0, 70, 80
2, 23808, Note_on_c, 0, 65, 80
2, 23808, Note_on_c, 0, 62, 80
2, 23846, Note_off_c, 0, 62, 0
2, 23846, Note_off_c, 0, 65, 0
2, 23846, Note_off_c, 0, 70, 0
2, 23856, Note_on_c, 0, 75, 80
2, 23894, Note_off_c, 0, 75, 0
2, 23904, Note_on_c, 0, 63, 80
2, 23904, Note_on_c, 0, 71, 80
2, 23904, Note_on_c, 0, 66, 80
2, 23942, Note_off_c, 0, 71, 0
2, 23952, Note_on_c, 0, 69, 80
2, 23980, Note_off_c, 0, 63, 0
2, 23980, Note_off_c, 0, 66, 0
2, 23990, Note_off_c, 0, 69, 0
2, 24000, Note_on_c, 0, 65, 80
2, 24000, Note_on_c, 0, 70, 80
2, 24000, Note_on_c, 0, 62, 80
2, 24038, Note_off_c, 0, 62, 0
2, 24038, Note_off_c, 0, 70, 0
2, 24038, Note_off_c, 0, 65, 0
2, 24048, Note_on_c, 0, 70, 80
2, 24086, Note_off_c, 0, 70, 0
2, 24096, Note_on_c, 0, 69, 80
2, 24134, Note_off_c, 0, 69, 0
2, 24144, Note_on_c, 0, 70, 80
2, 24182, Note_off_c, 0, 70, 0
2, 24192, Note_on_c, 0, 69, 80
2, 24230, Note_off_c, 0, 69, 0
2, 24240, Note_on_c, 0, 70, 80
2, 24278, Note_off_c, 0, 70, 0
2, 24288, Note_on_c, 0, 71, 80
2, 24326, Note_off_c, 0, 71, 0
2, 24336, Note_on_c, 0, 70, 80
2, 24374, Note_off_c, 0, 70, 0
2, 24384, Note_on_c, 0, 42, 80
2, 24384, Note_on_c, 0, 70, 80
2, 24384, Note_on_c, 0, 61, 80
2, 24422, Note_off_c, 0, 42, 0
2, 24432, Note_on_c, 0, 54, 80
2, 24470, Note_off_c, 0, 54, 0
2, 24480, Note_on_c, 0, 54, 80
2, 24518, Note_off_c, 0, 54, 0
2, 24528, Note_on_c, 0, 54, 80
2, 24537, Note_off_c, 0, 70, 0
2, 24537, Note_off_c, 0, 61, 0
2, 24566, Note_off_c, 0, 54, 0
2, 24576, Note_on_c, 0, 54, 80
2, 24576, Note_on_c, 0, 68, 80
2, 24576, Note_on_c, 0, 59, 80
2, 24614, Note_off_c, 0, 54, 0
2, 24624, Note_on_c, 0, 54, 80
2, 24662, Note_off_c, 0, 54, 0
2, 24672, Note_on_c, 0, 54, 80
2, 24710, Note_off_c, 0, 54, 0
2, 24720, Note_on_c, 0, 54, 80
2, 24729, Note_off_c, 0, 68, 0
2, 24729, Note_off_c, 0, 59, 0
2, 24758, Note_off_c, 0, 54, 0
2, 24768, Note_on_c, 0, 73, 80
2, 24768, Note_on_c, 0, 66, 80
2, 24768, Note_on_c, 0, 54, 80
2, 24768, Note_on_c, 0, 58, 80
2, 24806, Note_off_c, 0, 58, 0
2, 24806, Note_off_c, 0, 54, 0
2, 24816, Note_on_c, 0, 54, 80
2, 24854, Note_off_c, 0, 54, 0
2, 24864, Note_on_c, 0, 54, 80
2, 24902, Note_off_c, 0, 54, 0
2, 24912, Note_on_c, 0, 54, 80
2, 24921, Note_off_c, 0, 66, 0
2, 24950, Note_off_c, 0, 54, 0
2, 24960, Note_on_c, 0, 56, 80
2, 24960, Note_on_c, 0, 49, 80
2, 24960, Note_on_c, 0, 65, 80
2, 24979, Note_off_c, 0, 73, 0
2, 24984, Note_on_c, 0, 75, 80
2, 24998, Note_off_c, 0, 56, 0
2, 24998, Note_off_c, 0, 49, 0
2, 25003, Note_off_c, 0, 75, 0
2, 25008, Note_on_c, 0, 49, 80
2, 25008, Note_on_c, 0, 73, 80
2, 25027, Note_off_c, 0, 73, 0
2, 25032, Note_on_c, 0, 75, 80
2, 25046, Note_off_c, 0, 49, 0
2, 25051, Note_off_c, 0, 75, 0
2, 25056, Note_on_c, 0, 49, 80
2, 25056, Note_on_c, 0, 71, 80
2, 25075, Note_off_c, 0, 71, 0
2, 25080, Note_on_c, 0, 73, 80
2, 25094, Note_off_c, 0, 49, 0
2, 25099, Note_off_c, 0, 73, 0
2, 25104, Note_on_c, 0, 49, 80
2, 25104, Note_on_c, 0, 71, 80
2, 25113, Note_off_c, 0, 65, 0
2, 25123, Note_off_c, 0, 71, 0
2, 25128, Note_on_c, 0, 73, 80
2, 25142, Note_off_c, 0, 49, 0
2, 25147, Note_off_c, 0, 73, 0
2, 25152, Note_on_c, 0, 70, 80
2, 25152, Note_on_c, 0, 61, 80
2, 25152, Note_on_c, 0, 42, 80
2, 25190, Note_off_c, 0, 42, 0
2, 25200, Note_on_c, 0, 54, 80
2, 25238, Note_off_c, 0, 54, 0
2, 25248, Note_on_c, 0, 54, 80
2, 25286, Note_off_c, 0, 54, 0
2, 25296, Note_on_c, 0, 54, 80
2, 25305, Note_off_c, 0, 61, 0
2, 25305, Note_off_c, 0, 70, 0
2, 25334, Note_off_c, 0, 54, 0
2, 25344, Note_on_c, 0, 68, 80
2, 25344, Note_on_c, 0, 54, 80
2, 25344, Note_on_c, 0, 59, 80
2, 25382, Note_off_c, 0, 54, 0
2, 25392, Note_on_c, 0, 54, 80
2, 25430, Note_off_c, 0, 54, 0
2, 25440, Note_on_c, 0, 54, 80
2, 25478, Note_off_c, 0, 54, 0
2, 25488, Note_on_c, 0, 54, 80
2, 25497, Note_off_c, 0, 68, 0
2, 25497, Note_off_c, 0, 59, 0
2, 25526, Note_off_c, 0, 54, 0
2, 25536, Note_on_c, 0, 58, 80
2, 25536, Note_on_c, 0, 73, 80
2, 25536, Note_on_c, 0, 54, 80
2, 25536, Note_on_c, 0, 66, 80
2, 25574, Note_off_c, 0, 54, 0
2, 25574, Note_off_c, 0, 58, 0
2, 25584, Note_on_c, 0, 54, 80
2, 25622, Note_off_c, 0, 54, 0
2, 25632, Note_on_c, 0, 54, 80
2, 25670, Note_off_c, 0, 54, 0
2, 25680, Note_on_c, 0, 54, 80
2, 25689, Note_off_c, 0, 73, 0
2, 25689, Note_off_c, 0, 66, 0
2, 25718, Note_off_c, 0, 54, 0
2, 25728, Note_on_c, 0, 56, 80
2, 25728, Note_on_c, 0, 49, 80
2, 25728, Note_on_c, 0, 73, 80
2, 25728, Note_on_c, 0, 65, 80
2, 25747, Note_off_c, 0, 73, 0
2, 25752, Note_on_c, 0, 75, 80
2, 25766, Note_off_c, 0, 49, 0
2, 25766, Note_off_c, 0, 56, 0
2, 25771, Note_off_c, 0, 75, 0
2, 25776, Note_on_c, 0, 49, 80
2, 25776, Note_on_c, 0, 73, 80
2, 25795, Note_off_c, 0, 73, 0
2, 25800, Note_on_c, 0, 75, 80
2, 25814, Note_off_c, 0, 49, 0
2, 25819, Note_off_c, 0, 75, 0
2, 25824, Note_on_c, 0, 49, 80
2, 25824, Note_on_c, 0, 71, 80
2, 25843, Note_off_c, 0, 71, 0
2, 25848, Note_on_c, 0, 73, 80
2, 25862, Note_off_c, 0, 49, 0
2, 25867, Note_off_c, 0, 73, 0
2, 25872, Note_on_c, 0, 49, 80
2, 25872, Note_on_c, 0, 71, 80
2, 25881, Note_off_c, 0, 65, 0
2, 25891, Note_off_c, 0, 71, 0
2, 25896, Note_on_c, 0, 73, 80
2, 25910, Note_off_c, 0, 49, 0
2, 25915, Note_off_c, 0, 73, 0
2, 25920, Note_on_c, 0, 70, 80
2, 25920, Note_on_c, 0, 54, 80
2, 25958, Note_off_c, 0, 54, 0
2, 25968, Note_on_c, 0, 61, 80
2, 25996, Note_off_c, 0, 70, 0
2, 26006, Note_off_c, 0, 61, 0
2, 26016, Note_on_c, 0, 73, 80
2, 26016, Note_on_c, 0, 58, 80
2, 26054, Note_off_c, 0, 58, 0
2, 26064, Note_on_c, 0, 61, 80
2, 26102, Note_off_c, 0, 61, 0
2, 26112, Note_on_c, 0, 53, 80
2, 26150, Note_off_c, 0, 53, 0
2, 26160, Note_on_c, 0, 61, 80
2, 26169, Note_off_c, 0, 73, 0
2, 26198, Note_off_c, 0, 61, 0
2, 26208, Note_on_c, 0, 52, 80
2, 26208, Note_on_c, 0, 71, 80
2, 26246, Note_off_c, 0, 71, 0
2, 26246, Note_off_c, 0, 52, 0
2, 26256, Note_on_c, 0, 70, 80
2, 26256, Note_on_c, 0, 61, 80
2, 26294, Note_off_c, 0, 61, 0
2, 26294, Note_off_c, 0, 70, 0
2, 26304, Note_on_c, 0, 51, 80
2, 26304, Note_on_c, 0, 68, 80
2, 26342, Note_off_c, 0, 68, 0
2, 26342, Note_off_c, 0, 51, 0
2, 26352, Note_on_c, 0, 67, 80
2, 26352, Note_on_c, 0, 61, 80
2, 26390, Note_off_c, 0, 61, 0
2, 26390, Note_off_c, 0, 67, 0
2, 26400, Note_on_c, 0, 51, 80
2, 26438, Note_off_c, 0, 51, 0
2, 26448, Note_on_c, 0, 61, 80
2, 26472, Note_on_c, 0, 67, 80
2, 26486, Note_off_c, 0, 61, 0
2, 26491, Note_off_c, 0, 67, 0
2, 26496, Note_on_c, 0, 51, 80
2, 26496, Note_on_c, 0, 70, 80
2, 26534, Note_off_c, 0, 51, 0
2, 26544, Note_on_c, 0, 59, 80
2, 26553, Note_off_c, 0, 70, 0
2, 26568, Note_on_c, 0, 68, 80
2, 26582, Note_off_c, 0, 59, 0
2, 26587, Note_off_c, 0, 68, 0
2, 26592, Note_on_c, 0, 51, 80
2, 26592, Note_on_c, 0, 71, 80
2, 26630, Note_off_c, 0, 51, 0
2, 26637, Note_off_c, 0, 71, 0
2, 26640, Note_on_c, 0, 55, 80
2, 26640, Note_on_c, 0, 70, 80
2, 26663, Note_off_c, 0, 70, 0
2, 26678, Note_off_c, 0, 55, 0
2, 26688, Note_on_c, 0, 56, 80
2, 26688, Note_on_c, 0, 73, 80
2, 26726, Note_off_c, 0, 56, 0
2, 26736, Note_on_c, 0, 63, 80
2, 26745, Note_off_c, 0, 73, 0
2, 26760, Note_on_c, 0, 71, 80
2, 26774, Note_off_c, 0, 63, 0
2, 26779, Note_off_c, 0, 71, 0
2, 26784, Note_on_c, 0, 59, 80
2, 26784, Note_on_c, 0, 75, 80
2, 26822, Note_off_c, 0, 59, 0
2, 26832, Note_on_c, 0, 63, 80
2, 26870, Note_off_c, 0, 63, 0
2, 26880, Note_on_c, 0, 55, 80
2, 26918, Note_off_c, 0, 75, 0
2, 26918, Note_off_c, 0, 55, 0
2, 26928, Note_on_c, 0, 63, 80
2, 26928, Note_on_c, 0, 74, 80
2, 26947, Note_off_c, 0, 74, 0
2, 26952, Note_on_c, 0, 75, 80
2, 26966, Note_off_c, 0, 63, 0
2, 26971, Note_off_c, 0, 75, 0
2, 26976, Note_on_c, 0, 77, 80
2, 26976, Note_on_c, 0, 54, 80
2, 26995, Note_off_c, 0, 77, 0
2, 27000, Note_on_c, 0, 75, 80
2, 27014, Note_off_c, 0, 54, 0
2, 27019, Note_off_c, 0, 75, 0
2, 27024, Note_on_c, 0, 73, 80
2, 27024, Note_on_c, 0, 63, 80
2, 27043, Note_off_c, 0, 73, 0
2, 27048, Note_on_c, 0, 72, 80
2, 27062, Note_off_c, 0, 63, 0
2, 27067, Note_off_c, 0, 72, 0
2, 27072, Note_on_c, 0, 53, 80
2, 27072, Note_on_c, 0, 70, 80
2, 27110, Note_off_c, 0, 70, 0
2, 27110, Note_off_c, 0, 53, 0
2, 27120, Note_on_c, 0, 69, 80
2, 27120, Note_on_c, 0, 63, 80
2, 27158, Note_off_c, 0, 63, 0
2, 27158, Note_off_c, 0, 69, 0
2, 27168, Note_on_c, 0, 53, 80
2, 27206, Note_off_c, 0, 53, 0
2, 27216, Note_on_c, 0, 63, 80
2, 27240, Note_on_c, 0, 68, 80
2, 27254, Note_off_c, 0, 63, 0
2, 27259, Note_off_c, 0, 68, 0
2, 27264, Note_on_c, 0, 53, 80
2, 27264, Note_on_c, 0, 72, 80
2, 27302, Note_off_c, 0, 53, 0
2, 27312, Note_on_c, 0, 61, 80
2, 27321, Note_off_c, 0, 72, 0
2, 27336, Note_on_c, 0, 70, 80
2, 27350, Note_off_c, 0, 61, 0
2, 27355, Note_off_c, 0, 70, 0
2, 27360, Note_on_c, 0, 53, 80
2, 27360, Note_on_c, 0, 73, 80
2, 27398, Note_off_c, 0, 53, 0
2, 27408, Note_on_c, 0, 57, 80
2, 27417, Note_off_c, 0, 73, 0
2, 27432, Note_on_c, 0, 72, 80
2, 27446, Note_off_c, 0, 57, 0
2, 27451, Note_off_c, 0, 72, 0
2, 27456, Note_on_c, 0, 58, 80
2, 27456, Note_on_c, 0, 75, 80
2, 27494, Note_off_c, 0, 58, 0
2, 27504, Note_on_c, 0, 65, 80
2, 27513, Note_off_c, 0, 75, 0
2, 27528, Note_on_c, 0, 73, 80
2, 27542, Note_off_c, 0, 65, 0
2, 27547, Note_off_c, 0, 73, 0
2, 27552, Note_on_c, 0, 61, 80
2, 27552, Note_on_c, 0, 77, 80
2, 27590, Note_off_c, 0, 61, 0
2, 27600, Note_on_c, 0, 65, 80
2, 27638, Note_off_c, 0, 65, 0
2, 27648, Note_on_c, 0, 57, 80
2, 27686, Note_off_c, 0, 77, 0
2, 27686, Note_off_c, 0, 57, 0
2, 27696, Note_on_c, 0, 65, 80
2, 27696, Note_on_c, 0, 76, 80
2, 27715, Note_off_c, 0, 76, 0
2, 27720, Note_on_c, 0, 77, 80
2, 27734, Note_off_c, 0, 65, 0
2, 27739, Note_off_c, 0, 77, 0
2, 27744, Note_on_c, 0, 79, 80
2, 27744, Note_on_c, 0, 56, 80
2, 27763, Note_off_c, 0, 79, 0
2, 27768, Note_on_c, 0, 77, 80
2, 27782, Note_off_c, 0, 56, 0
2, 27787, Note_off_c, 0, 77, 0
2, 27792, Note_on_c, 0, 75, 80
2, 27792, Note_on_c, 0, 65, 80
2, 27811, Note_off_c, 0, 75, 0
2, 27816, Note_on_c, 0, 74, 80
2, 27830, Note_off_c, 0, 65, 0
2, 27835, Note_off_c, 0, 74, 0
2, 27840, Note_on_c, 0, 55, 80
2, 27840, Note_on_c, 0, 72, 80
2, 27878, Note_off_c, 0, 72, 0
2, 27878, Note_off_c, 0, 55, 0
2, 27888, Note_on_c, 0, 71, 80
2, 27888, Note_on_c, 0, 67, 80
2, 27926, Note_off_c, 0, 67, 0
2, 27926, Note_off_c, 0, 71, 0
2, 27936, Note_on_c, 0, 65, 80
2, 27974, Note_off_c, 0, 65, 0
2, 27984, Note_on_c, 0, 67, 80
2, 28008, Note_on_c, 0, 71, 80
2, 28022, Note_off_c, 0, 67, 0
2, 28027, Note_off_c, 0, 71, 0
2, 28032, Note_on_c, 0, 63, 80
2, 28032, Note_on_c, 0, 74, 80
2, 28070, Note_off_c, 0, 63, 0
2, 28080, Note_on_c, 0, 67, 80
2, 28089, Note_off_c, 0, 74, 0
2, 28104, Note_on_c, 0, 72, 80
2, 28118, Note_off_c, 0, 67, 0
2, 28123, Note_off_c, 0, 72, 0
2, 28128, Note_on_c, 0, 59, 80
2, 28128, Note_on_c, 0, 75, 80
2, 28166, Note_off_c, 0, 59, 0
2, 28176, Note_on_c, 0, 67, 80
2, 28185, Note_off_c, 0, 75, 0
2, 28200, Note_on_c, 0, 74, 80
2, 28214, Note_off_c, 0, 67, 0
2, 28219, Note_off_c, 0, 74, 0
2, 28224, Note_on_c, 0, 60, 80
2, 28224, Note_on_c, 0, 77, 80
2, 28262, Note_off_c, 0, 60, 0
2, 28272, Note_on_c, 0, 67, 80
2, 28281, Note_off_c, 0, 77, 0
2, 28296, Note_on_c, 0, 75, 80
2, 28310, Note_off_c, 0, 67, 0
2, 28315, Note_off_c, 0, 75, 0
2, 28320, Note_on_c, 0, 63, 80
2, 28320, Note_on_c, 0, 79, 80
2, 28358, Note_off_c, 0, 63, 0
2, 28368, Note_on_c, 0, 67, 80
2, 28406, Note_off_c, 0, 67, 0
2, 28416, Note_on_c, 0, 58, 80
2, 28454, Note_off_c, 0, 79, 0
2, 28454, Note_off_c, 0, 58, 0
2, 28464, Note_on_c, 0, 67, 80
2, 28464, Note_on_c, 0, 78, 80
2, 28483, Note_off_c, 0, 78, 0
2, 28488, Note_on_c, 0, 79, 80
2, 28502, Note_off_c, 0, 67, 0
2, 28507, Note_off_c, 0, 79, 0
2, 28512, Note_on_c, 0, 80, 80
2, 28512, Note_on_c, 0, 62, 80
2, 28531, Note_off_c, 0, 80, 0
2, 28536, Note_on_c, 0, 79, 80
2, 28550, Note_off_c, 0, 62, 0
2, 28555, Note_off_c, 0, 79, 0
2, 28560, Note_on_c, 0, 77, 80
2, 28560, Note_on_c, 0, 67, 80
2, 28579, Note_off_c, 0, 77, 0
2, 28584, Note_on_c, 0, 75, 80
2, 28598, Note_off_c, 0, 67, 0
2, 28603, Note_off_c, 0, 75, 0
2, 28608, Note_on_c, 0, 56, 80
2, 28608, Note_on_c, 0, 74, 80
2, 28646, Note_off_c, 0, 56, 0
2, 28656, Note_on_c, 0, 67, 80
2, 28665, Note_off_c, 0, 74, 0
2, 28680, Note_on_c, 0, 72, 80
2, 28694, Note_off_c, 0, 67, 0
2, 28699, Note_off_c, 0, 72, 0
2, 28704, Note_on_c, 0, 63, 80
2, 28704, Note_on_c, 0, 84, 80
2, 28742, Note_off_c, 0, 63, 0
2, 28752, Note_on_c, 0, 67, 80
2, 28780, Note_off_c, 0, 84, 0
2, 28790, Note_off_c, 0, 67, 0
2, 28800, Note_on_c, 0, 56, 80
2, 28800, Note_on_c, 0, 84, 80
2, 28838, Note_off_c, 0, 56, 0
2, 28848, Note_on_c, 0, 66, 80
2, 28857, Note_off_c, 0, 84, 0
2, 28872, Note_on_c, 0, 86, 80
2, 28886, Note_off_c, 0, 66, 0
2, 28891, Note_off_c, 0, 86, 0
2, 28896, Note_on_c, 0, 63, 80
2, 28896, Note_on_c, 0, 87, 80
2, 28934, Note_off_c, 0, 63, 0
2, 28944, Note_on_c, 0, 60, 80
2, 28953, Note_off_c, 0, 87, 0
2, 28968, Note_on_c, 0, 78, 80
2, 28982, Note_off_c, 0, 60, 0
2, 28987, Note_off_c, 0, 78, 0
2, 28992, Note_on_c, 0, 79, 80
2, 29011, Note_off_c, 0, 79, 0
2, 29016, Note_on_c, 0, 55, 80
2, 29035, Note_off_c, 0, 55, 0
2, 29040, Note_on_c, 0, 59, 80
2, 29059, Note_off_c, 0, 59, 0
2, 29064, Note_on_c, 0, 62, 80
2, 29083, Note_off_c, 0, 62, 0
2, 29088, Note_on_c, 0, 67, 80
2, 29107, Note_off_c, 0, 67, 0
2, 29112, Note_on_c, 0, 71, 80
2, 29131, Note_off_c, 0, 71, 0
2, 29136, Note_on_c, 0, 74, 80
2, 29155, Note_off_c, 0, 74, 0
2, 29160, Note_on_c, 0, 79, 80
2, 29179, Note_off_c, 0, 79, 0
2, 29184, Note_on_c, 0, 78, 80
2, 29203, Note_off_c, 0, 78, 0
2, 29208, Note_on_c, 0, 55, 80
2, 29227, Note_off_c, 0, 55, 0
2, 29232, Note_on_c, 0, 60, 80
2, 29251, Note_off_c, 0, 60, 0
2, 29256, Note_on_c, 0, 63, 80
2, 29275, Note_off_c, 0, 63, 0
2, 29280, Note_on_c, 0, 66, 80
2, 29299, Note_off_c, 0, 66, 0
2, 29304, Note_on_c, 0, 69, 80
2, 29323, Note_off_c, 0, 69, 0
2, 29328, Note_on_c, 0, 72, 80
2, 29347, Note_off_c, 0, 72, 0
2, 29352, Note_on_c, 0, 78, 80
2, 29371, Note_off_c, 0, 78, 0
2, 29376, Note_on_c, 0, 79, 80
2, 29395, Note_off_c, 0, 79, 0
2, 29400, Note_on_c, 0, 55, 80
2, 29419, Note_off_c, 0, 55, 0
2, 29424, Note_on_c, 0, 59, 80
2, 29443, Note_off_c, 0, 59, 0
2, 29448, Note_on_c, 0, 62, 80
2, 29467, Note_off_c, 0, 62, 0
2, 29472, Note_on_c, 0, 67, 80
2, 29491, Note_off_c, 0, 67, 0
2, 29496, Note_on_c, 0, 71, 80
2, 29515, Note_off_c, 0, 71, 0
2, 29520, Note_on_c, 0, 74, 80
2, 29539, Note_off_c, 0, 74, 0
2, 29544, Note_on_c, 0, 79, 80
2, 29563, Note_off_c, 0, 79, 0
2, 29568, Note_on_c, 0, 78, 80
2, 29587, Note_off_c, 0, 78, 0
2, 29592, Note_on_c, 0, 55, 80
2, 29611, Note_off_c, 0, 55, 0
2, 29616, Note_on_c, 0, 60, 80
2, 29635, Note_off_c, 0, 60, 0
2, 29640, Note_on_c, 0, 63, 80
2, 29659, Note_off_c, 0, 63, 0
2, 29664, Note_on_c, 0, 66, 80
2, 29683, Note_off_c, 0, 66, 0
2, 29688, Note_on_c, 0, 69, 80
2, 29707, Note_off_c, 0, 69, 0
2, 29712, Note_on_c, 0, 72, 80
2, 29731, Note_off_c, 0, 72, 0
2, 29736, Note_on_c, 0, 78, 80
2, 29755, Note_off_c, 0, 78, 0
2, 29760, Note_on_c, 0, 79, 80
2, 29779, Note_off_c, 0, 79, 0
2, 29784, Note_on_c, 0, 55, 80
2, 29803, Note_off_c, 0, 55, 0
2, 29808, Note_on_c, 0, 59, 80
2, 29827, Note_off_c, 0, 59, 0
2, 29832, Note_on_c, 0, 62, 80
2, 29851, Note_off_c, 0, 62, 0
2, 29856, Note_on_c, 0, 67, 80
2, 29875, Note_off_c, 0, 67, 0
2, 29880, Note_on_c, 0, 71, 80
2, 29899, Note_off_c, 0, 71, 0
2, 29904, Note_on_c, 0, 74, 80
2, 29923, Note_off_c, 0, 74, 0
2, 29928, Note_on_c, 0, 78, 80
2, 29947, Note_off_c, 0, 78, 0
2, 29952, Note_on_c, 0, 79, 80
2, 29971, Note_off_c, 0, 79, 0
2, 29976, Note_on_c, 0, 55, 80
2, 29995, Note_off_c, 0, 55, 0
2, 30000, Note_on_c, 0, 59, 80
2, 30019, Note_off_c, 0, 59, 0
2, 30024, Note_on_c, 0, 62, 80
2, 30043, Note_off_c, 0, 62, 0
2, 30048, Note_on_c, 0, 67, 80
2, 30067, Note_off_c, 0, 67, 0
2, 30072, Note_on_c, 0, 71, 80
2, 30091, Note_off_c, 0, 71, 0
2, 30096, Note_on_c, 0, 74, 80
2, 30115, Note_off_c, 0, 74, 0
2, 30120, Note_on_c, 0, 79, 80
2, 30139, Note_off_c, 0, 79, 0
2, 30144, Note_on_c, 0, 80, 80
2, 30163, Note_off_c, 0, 80, 0
2, 30168, Note_on_c, 0, 53, 80
2, 30187, Note_off_c, 0, 53, 0
2, 30192, Note_on_c, 0, 59, 80
2, 30211, Note_off_c, 0, 59, 0
2, 30216, Note_on_c, 0, 62, 80
2, 30235, Note_off_c, 0, 62, 0
2, 30240, Note_on_c, 0, 65, 80
2, 30259, Note_off_c, 0, 65, 0
2, 30264, Note_on_c, 0, 71, 80
2, 30283, Note_off_c, 0, 71, 0
2, 30288, Note_on_c, 0, 74, 80
2, 30307, Note_off_c, 0, 74, 0
2, 30312, Note_on_c, 0, 80, 80
2, 30331, Note_off_c, 0, 80, 0
2, 30336, Note_on_c, 0, 81, 80
2, 30355, Note_off_c, 0, 81, 0
2, 30360, Note_on_c, 0, 51, 80
2, 30379, Note_off_c, 0, 51, 0
2, 30384, Note_on_c, 0, 57, 80
2, 30403, Note_off_c, 0, 57, 0
2, 30408, Note_on_c, 0, 60, 80
2, 30427, Note_off_c, 0, 60, 0
2, 30432, Note_on_c, 0, 63, 80
2, 30451, Note_off_c, 0, 63, 0
2, 30456, Note_on_c, 0, 72, 80
2, 30475, Note_off_c, 0, 72, 0
2, 30480, Note_on_c, 0, 77, 80
2, 30499, Note_off_c, 0, 77, 0
2, 30504, Note_on_c, 0, 80, 80
2, 30523, Note_off_c, 0, 80, 0
2, 30528, Note_on_c, 0, 50, 80
2, 30528, Note_on_c, 0, 82, 80
2, 30547, Note_off_c, 0, 82, 0
2, 30552, Note_on_c, 0, 83, 80
2, 30571, Note_off_c, 0, 83, 0
2, 30576, Note_on_c, 0, 84, 80
2, 30595, Note_off_c, 0, 84, 0
2, 30600, Note_on_c, 0, 82, 80
2, 30619, Note_off_c, 0, 82, 0
2, 30624, Note_on_c, 0, 80, 80
2, 30643, Note_off_c, 0, 80, 0
2, 30648, Note_on_c, 0, 79, 80
2, 30667, Note_off_c, 0, 79, 0
2, 30672, Note_on_c, 0, 77, 80
2, 30681, Note_off_c, 0, 50, 0
2, 30691, Note_off_c, 0, 77, 0
2, 30696, Note_on_c, 0, 75, 80
2, 30715, Note_off_c, 0, 75, 0
2, 30720, Note_on_c, 0, 74, 80
2, 30739, Note_off_c, 0, 74, 0
2, 30744, Note_on_c, 0, 72, 80
2, 30763, Note_off_c, 0, 72, 0
2, 30768, Note_on_c, 0, 70, 80
2, 30787, Note_off_c, 0, 70, 0
2, 30792, Note_on_c, 0, 69, 80
2, 30811, Note_off_c, 0, 69, 0
2, 30816, Note_on_c, 0, 68, 80
2, 30835, Note_off_c, 0, 68, 0
2, 30840, Note_on_c, 0, 67, 80
2, 30859, Note_off_c, 0, 67, 0
2, 30864, Note_on_c, 0, 65, 80
2, 30883, Note_off_c, 0, 65, 0
2, 30888, Note_on_c, 0, 63, 80
2, 30907, Note_off_c, 0, 63, 0
2, 30912, Note_on_c, 0, 56, 80
2, 30912, Note_on_c, 0, 53, 80
2, 30912, Note_on_c, 0, 62, 80
2, 30912, Note_on_c, 0, 46, 80
2, 30931, Note_off_c, 0, 62, 0
2, 30936, Note_on_c, 0, 60, 80
2, 30955, Note_off_c, 0, 60, 0
2, 30960, Note_on_c, 0, 58, 80
2, 30979, Note_off_c, 0, 58, 0
2, 30984, Note_on_c, 0, 60, 80
2, 31003, Note_off_c, 0, 60, 0
2, 31008, Note_on_c, 0, 62, 80
2, 31027, Note_off_c, 0, 62, 0
2, 31032, Note_on_c, 0, 63, 80
2, 31051, Note_off_c, 0, 63, 0
2, 31056, Note_on_c, 0, 65, 80
2, 31075, Note_off_c, 0, 65, 0
2, 31080, Note_on_c, 0, 67, 80
2, 31099, Note_off_c, 0, 67, 0
2, 31104, Note_on_c, 0, 68, 80
2, 31123, Note_off_c, 0, 68, 0
2, 31128, Note_on_c, 0, 67, 80
2, 31147, Note_off_c, 0, 67, 0
2, 31152, Note_on_c, 0, 65, 80
2, 31171, Note_off_c, 0, 65, 0
2, 31176, Note_on_c, 0, 64, 80
2, 31195, Note_off_c, 0, 64, 0
2, 31200, Note_on_c, 0, 65, 80
2, 31219, Note_off_c, 0, 53, 0
2, 31219, Note_off_c, 0, 56, 0
2, 31219, Note_off_c, 0, 46, 0
2, 31219, Note_off_c, 0, 65, 0
2, 31224, Note_on_c, 0, 67, 80
2, 31243, Note_off_c, 0, 67, 0
2, 31248, Note_on_c, 0, 68, 80
2, 31267, Note_off_c, 0, 68, 0
2, 31272, Note_on_c, 0, 69, 80
2, 31291, Note_off_c, 0, 69, 0
2, 31296, Note_on_c, 0, 70, 80
2, 31296, Note_on_c, 0, 51, 80
2, 31334, Note_off_c, 0, 51, 0
2, 31344, Note_on_c, 0, 55, 80
2, 31382, Note_off_c, 0, 55, 0
2, 31392, Note_on_c, 0, 58, 80
2, 31411, Note_off_c, 0, 70, 0
2, 31416, Note_on_c, 0, 72, 80
2, 31430, Note_off_c, 0, 58, 0
2, 31435, Note_off_c, 0, 72, 0
2, 31440, Note_on_c, 0, 74, 80
2, 31440, Note_on_c, 0, 55, 80
2, 31459, Note_off_c, 0, 74, 0
2, 31464, Note_on_c, 0, 75, 80
2, 31478, Note_off_c, 0, 55, 0
2, 31483, Note_off_c, 0, 75, 0
2, 31488, Note_on_c, 0, 51, 80
2, 31488, Note_on_c, 0, 75, 80
2, 31526, Note_off_c, 0, 75, 0
2, 31526, Note_off_c, 0, 51, 0
2, 31536, Note_on_c, 0, 70, 80
2, 31536, Note_on_c, 0, 55, 80
2, 31574, Note_off_c, 0, 55, 0
2, 31574, Note_off_c, 0, 70, 0
2, 31584, Note_on_c, 0, 58, 80
2, 31584, Note_on_c, 0, 70, 80
2, 31622, Note_off_c, 0, 70, 0
2, 31622, Note_off_c, 0, 58, 0
2, 31632, Note_on_c, 0, 70, 80
2, 31632, Note_on_c, 0, 55, 80
2, 31670, Note_off_c, 0, 55, 0
2, 31670, Note_off_c, 0, 70, 0
2, 31680, Note_on_c, 0, 46, 80
2, 31680, Note_on_c, 0, 67, 80
2, 31680, Note_on_c, 0, 63, 80
2, 31718, Note_off_c, 0, 46, 0
2, 31728, Note_on_c, 0, 51, 80
2, 31766, Note_off_c, 0, 51, 0
2, 31776, Note_on_c, 0, 55, 80
2, 31814, Note_off_c, 0, 67, 0
2, 31814, Note_off_c, 0, 63, 0
2, 31814, Note_off_c, 0, 55, 0
2, 31824, Note_on_c, 0, 51, 80
2, 31848, Note_on_c, 0, 68, 80
2, 31862, Note_off_c, 0, 51, 0
2, 31867, Note_off_c, 0, 68, 0
2, 31872, Note_on_c, 0, 65, 80
2, 31872, Note_on_c, 0, 46, 80
2, 31872, Note_on_c, 0, 62, 80
2, 31910, Note_off_c, 0, 46, 0
2, 31920, Note_on_c, 0, 50, 80
2, 31948, Note_off_c, 0, 65, 0
2, 31948, Note_off_c, 0, 62, 0
2, 31958, Note_off_c, 0, 50, 0
2, 31968, Note_on_c, 0, 53, 80
2, 31984, Note_on_c, 0, 70, 80
2, 31996, Note_off_c, 0, 70, 0
2, 32000, Note_on_c, 0, 69, 80
2, 32006, Note_off_c, 0, 53, 0
2, 32012, Note_off_c, 0, 69, 0
2, 32016, Note_on_c, 0, 50, 80
2, 32016, Note_on_c, 0, 68, 80
2, 32028, Note_off_c, 0, 68, 0
2, 32032, Note_on_c, 0, 67, 80
2, 32044, Note_off_c, 0, 67, 0
2, 32048, Note_on_c, 0, 65, 80
2, 32054, Note_off_c, 0, 50, 0
2, 32060, Note_off_c, 0, 65, 0
2, 32064, Note_on_c, 0, 51, 80
2, 32064, Note_on_c, 0, 55, 80
2, 32102, Note_off_c, 0, 55, 0
2, 32112, Note_on_c, 0, 58, 80
2, 32150, Note_off_c, 0, 58, 0
2, 32160, Note_on_c, 0, 55, 80
2, 32198, Note_off_c, 0, 55, 0
2, 32208, Note_on_c, 0, 58, 80
2, 32217, Note_off_c, 0, 51, 0
2, 32246, Note_off_c, 0, 58, 0
2, 32256, Note_on_c, 0, 46, 80
2, 32256, Note_on_c, 0, 62, 80
2, 32294, Note_off_c, 0, 62, 0
2, 32304, Note_on_c, 0, 58, 80
2, 32342, Note_off_c, 0, 58, 0
2, 32352, Note_on_c, 0, 62, 80
2, 32390, Note_off_c, 0, 62, 0
2, 32400, Note_on_c, 0, 58, 80
2, 32409, Note_off_c, 0, 46, 0
2, 32438, Note_off_c, 0, 58, 0
2, 32448, Note_on_c, 0, 63, 80
2, 32448, Note_on_c, 0, 39, 80
2, 32448, Note_on_c, 0, 67, 80
2, 32505, Note_off_c, 0, 67, 0
2, 32505, Note_off_c, 0, 63, 0
2, 32520, Note_on_c, 0, 68, 80
2, 32539, Note_off_c, 0, 68, 0
2, 32544, Note_on_c, 0, 70, 80
2, 32563, Note_off_c, 0, 70, 0
2, 32568, Note_on_c, 0, 72, 80
2, 32587, Note_off_c, 0, 72, 0
2, 32592, Note_on_c, 0, 74, 80
2, 32601, Note_off_c, 0, 39, 0
2, 32611, Note_off_c, 0, 74, 0
2, 32616, Note_on_c, 0, 75, 80
2, 32635, Note_off_c, 0, 75, 0
2, 32640, Note_on_c, 0, 70, 80
2, 32678, Note_off_c, 0, 70, 0
2, 32736, Note_on_c, 0, 75, 80
2, 32755, Note_off_c, 0, 75, 0
2, 32760, Note_on_c, 0, 79, 80
2, 32779, Note_off_c, 0, 79, 0
2, 32784, Note_on_c, 0, 74, 80
2, 32803, Note_off_c, 0, 74, 0
2, 32808, Note_on_c, 0, 77, 80
2, 32827, Note_off_c, 0, 77, 0
2, 32832, Note_on_c, 0, 72, 80
2, 32851, Note_off_c, 0, 72, 0
2, 32856, Note_on_c, 0, 75, 80
2, 32875, Note_off_c, 0, 75, 0
2, 32880, Note_on_c, 0, 70, 80
2, 32899, Note_off_c, 0, 70, 0
2, 32904, Note_on_c, 0, 74, 80
2, 32923, Note_off_c, 0, 74, 0
2, 32928, Note_on_c, 0, 68, 80
2, 32928, Note_on_c, 0, 38, 80
2, 32947, Note_off_c, 0, 38, 0
2, 32947, Note_off_c, 0, 68, 0
2, 32952, Note_on_c, 0, 50, 80
2, 32952, Note_on_c, 0, 72, 80
2, 32971, Note_off_c, 0, 72, 0
2, 32971, Note_off_c, 0, 50, 0
2, 32976, Note_on_c, 0, 67, 80
2, 32976, Note_on_c, 0, 39, 80
2, 32995, Note_off_c, 0, 39, 0
2, 32995, Note_off_c, 0, 67, 0
2, 33000, Note_on_c, 0, 51, 80
2, 33000, Note_on_c, 0, 70, 80
2, 33019, Note_off_c, 0, 70, 0
2, 33019, Note_off_c, 0, 51, 0
2, 33024, Note_on_c, 0, 65, 80
2, 33024, Note_on_c, 0, 41, 80
2, 33043, Note_off_c, 0, 41, 0
2, 33043, Note_off_c, 0, 65, 0
2, 33048, Note_on_c, 0, 53, 80
2, 33048, Note_on_c, 0, 68, 80
2, 33067, Note_off_c, 0, 68, 0
2, 33067, Note_off_c, 0, 53, 0
2, 33072, Note_on_c, 0, 63, 80
2, 33072, Note_on_c, 0, 43, 80
2, 33091, Note_off_c, 0, 43, 0
2, 33091, Note_off_c, 0, 63, 0
2, 33096, Note_on_c, 0, 55, 80
2, 33096, Note_on_c, 0, 67, 80
2, 33115, Note_off_c, 0, 67, 0
2, 33115, Note_off_c, 0, 55, 0
2, 33120, Note_on_c, 0, 60, 80
2, 33120, Note_on_c, 0, 44, 80
2, 33139, Note_off_c, 0, 44, 0
2, 33139, Note_off_c, 0, 60, 0
2, 33144, Note_on_c, 0, 56, 80
2, 33144, Note_on_c, 0, 72, 80
2, 33163, Note_off_c, 0, 72, 0
2, 33163, Note_off_c, 0, 56, 0
2, 33168, Note_on_c, 0, 65, 80
2, 33168, Note_on_c, 0, 41, 80
2, 33187, Note_off_c, 0, 41, 0
2, 33187, Note_off_c, 0, 65, 0
2, 33192, Note_on_c, 0, 53, 80
2, 33192, Note_on_c, 0, 68, 80
2, 33211, Note_off_c, 0, 68, 0
2, 33211, Note_off_c, 0, 53, 0
2, 33216, Note_on_c, 0, 57, 80
2, 33216, Note_on_c, 0, 67, 80
2, 33216, Note_on_c, 0, 63, 80
2, 33235, Note_off_c, 0, 57, 0
2, 33240, Note_on_c, 0, 58, 80
2, 33259, Note_off_c, 0, 58, 0
2, 33264, Note_on_c, 0, 60, 80
2, 33283, Note_off_c, 0, 60, 0
2, 33288, Note_on_c, 0, 58, 80
2, 33307, Note_off_c, 0, 58, 0
2, 33312, Note_on_c, 0, 57, 80
2, 33331, Note_off_c, 0, 57, 0
2, 33336, Note_on_c, 0, 58, 80
2, 33355, Note_off_c, 0, 58, 0
2, 33360, Note_on_c, 0, 55, 80
2, 33369, Note_off_c, 0, 67, 0
2, 33369, Note_off_c, 0, 63, 0
2, 33379, Note_off_c, 0, 55, 0
2, 33384, Note_on_c, 0, 51, 80
2, 33403, Note_off_c, 0, 51, 0
2, 33408, Note_on_c, 0, 46, 80
2, 33408, Note_on_c, 0, 62, 80
2, 33408, Note_on_c, 0, 65, 80
2, 33427, Note_off_c, 0, 65, 0
2, 33427, Note_off_c, 0, 62, 0
2, 33432, Note_on_c, 0, 63, 80
2, 33451, Note_off_c, 0, 63, 0
2, 33456, Note_on_c, 0, 62, 80
2, 33475, Note_off_c, 0, 62, 0
2, 33480, Note_on_c, 0, 63, 80
2, 33484, Note_off_c, 0, 46, 0
2, 33499, Note_off_c, 0, 63, 0
2, 33504, Note_on_c, 0, 65, 80
2, 33523, Note_off_c, 0, 65, 0
2, 33528, Note_on_c, 0, 67, 80
2, 33547, Note_off_c, 0, 67, 0
2, 33552, Note_on_c, 0, 68, 80
2, 33571, Note_off_c, 0, 68, 0
2, 33576, Note_on_c, 0, 69, 80
2, 33595, Note_off_c, 0, 69, 0
2, 33600, Note_on_c, 0, 70, 80
2, 33600, Note_on_c, 0, 51, 80
2, 33638, Note_off_c, 0, 51, 0
2, 33648, Note_on_c, 0, 55, 80
2, 33686, Note_off_c, 0, 55, 0
2, 33696, Note_on_c, 0, 58, 80
2, 33715, Note_off_c, 0, 70, 0
2, 33720, Note_on_c, 0, 74, 80
2, 33729, Note_off_c, 0, 74, 0
2, 33732, Note_on_c, 0, 72, 80
2, 33734, Note_off_c, 0, 58, 0
2, 33741, Note_off_c, 0, 72, 0
2, 33744, Note_on_c, 0, 75, 80
2, 33744, Note_on_c, 0, 55, 80
2, 33753, Note_off_c, 0, 75, 0
2, 33756, Note_on_c, 0, 74, 80
2, 33765, Note_off_c, 0, 74, 0
2, 33768, Note_on_c, 0, 77, 80
2, 33777, Note_off_c, 0, 77, 0
2, 33780, Note_on_c, 0, 75, 80
2, 33782, Note_off_c, 0, 55, 0
2, 33789, Note_off_c, 0, 75, 0
2, 33792, Note_on_c, 0, 51, 80
2, 33792, Note_on_c, 0, 75, 80
2, 33830, Note_off_c, 0, 75, 0
2, 33830, Note_off_c, 0, 51, 0
2, 33840, Note_on_c, 0, 55, 80
2, 33840, Note_on_c, 0, 67, 80
2, 33878, Note_off_c, 0, 67, 0
2, 33878, Note_off_c, 0, 55, 0
2, 33888, Note_on_c, 0, 67, 80
2, 33888, Note_on_c, 0, 58, 80
2, 33926, Note_off_c, 0, 58, 0
2, 33926, Note_off_c, 0, 67, 0
2, 33936, Note_on_c, 0, 67, 80
2, 33936, Note_on_c, 0, 55, 80
2, 33974, Note_off_c, 0, 55, 0
2, 33974, Note_off_c, 0, 67, 0
2, 33984, Note_on_c, 0, 46, 80
2, 33984, Note_on_c, 0, 63, 80
2, 33984, Note_on_c, 0, 67, 80
2, 34022, Note_off_c, 0, 46, 0
2, 34032, Note_on_c, 0, 51, 80
2, 34060, Note_off_c, 0, 63, 0
2, 34060, Note_off_c, 0, 67, 0
2, 34070, Note_off_c, 0, 51, 0
2, 34080, Note_on_c, 0, 55, 80
2, 34080, Note_on_c, 0, 70, 80
2, 34118, Note_off_c, 0, 55, 0
2, 34128, Note_on_c, 0, 51, 80
2, 34156, Note_off_c, 0, 70, 0
2, 34166, Note_off_c, 0, 51, 0
2, 34176, Note_on_c, 0, 46, 80
2, 34176, Note_on_c, 0, 70, 80
2, 34176, Note_on_c, 0, 62, 80
2, 34195, Note_off_c, 0, 62, 0
2, 34195, Note_off_c, 0, 70, 0
2, 34200, Note_on_c, 0, 69, 80
2, 34214, Note_off_c, 0, 46, 0
2, 34219, Note_off_c, 0, 69, 0
2, 34224, Note_on_c, 0, 50, 80
2, 34224, Note_on_c, 0, 68, 80
2, 34243, Note_off_c, 0, 68, 0
2, 34248, Note_on_c, 0, 67, 80
2, 34262, Note_off_c, 0, 50, 0
2, 34267, Note_off_c, 0, 67, 0
2, 34272, Note_on_c, 0, 53, 80
2, 34272, Note_on_c, 0, 70, 80
2, 34291, Note_off_c, 0, 70, 0
2, 34296, Note_on_c, 0, 68, 80
2, 34310, Note_off_c, 0, 53, 0
2, 34315, Note_off_c, 0, 68, 0
2, 34320, Note_on_c, 0, 50, 80
2, 34320, Note_on_c, 0, 67, 80
2, 34339, Note_off_c, 0, 67, 0
2, 34344, Note_on_c, 0, 65, 80
2, 34358, Note_off_c, 0, 50, 0
2, 34363, Note_off_c, 0, 65, 0
2, 34368, Note_on_c, 0, 51, 80
2, 34368, Note_on_c, 0, 39, 80
2, 34368, Note_on_c, 0, 63, 80
2, 34502, Note_off_c, 0, 63, 0
2, 34521, Note_off_c, 0, 39, 0
2, 34521, Note_off_c, 0, 51, 0
2, 34536, Note_on_c, 0, 64, 80
2, 34555, Note_off_c, 0, 64, 0
2, 34560, Note_on_c, 0, 34, 80
2, 34560, Note_on_c, 0, 46, 80
2, 34560, Note_on_c, 0, 65, 80
2, 34694, Note_off_c, 0, 65, 0
2, 34713, Note_off_c, 0, 46, 0
2, 34713, Note_off_c, 0, 34, 0
2, 34728, Note_on_c, 0, 66, 80
2, 34747, Note_off_c, 0, 66, 0
2, 34752, Note_on_c, 0, 63, 80
2, 34752, Note_on_c, 0, 39, 80
2, 34752, Note_on_c, 0, 67, 80
2, 34752, Note_on_c, 0, 51, 80
2, 34809, Note_off_c, 0, 67, 0
2, 34809, Note_off_c, 0, 63, 0
2, 34824, Note_on_c, 0, 68, 80
2, 34843, Note_off_c, 0, 68, 0
2, 34848, Note_on_c, 0, 69, 80
2, 34873, Note_off_c, 0, 69, 0
2, 34880, Note_on_c, 0, 68, 80
2, 34905, Note_off_c, 0, 39, 0
2, 34905, Note_off_c, 0, 51, 0
2, 34905, Note_off_c, 0, 68, 0
2, 34912, Note_on_c, 0, 71, 80
2, 34937, Note_off_c, 0, 71, 0
2, 34944, Note_on_c, 0, 72, 80
2, 34963, Note_off_c, 0, 72, 0
2, 34968, Note_on_c, 0, 73, 80
2, 34987, Note_off_c, 0, 73, 0
2, 34992, Note_on_c, 0, 74, 80
2, 35011, Note_off_c, 0, 74, 0
2, 35016, Note_on_c, 0, 75, 80
2, 35035, Note_off_c, 0, 75, 0
2, 35040, Note_on_c, 0, 70, 80
2, 35078, Note_off_c, 0, 70, 0
2, 35136, Note_on_c, 0, 71, 80
2, 35136, Note_on_c, 0, 63, 80
2, 35155, Note_off_c, 0, 63, 0
2, 35160, Note_on_c, 0, 62, 80
2, 35179, Note_off_c, 0, 62, 0
2, 35184, Note_on_c, 0, 61, 80
2, 35203, Note_off_c, 0, 61, 0
2, 35208, Note_on_c, 0, 60, 80
2, 35212, Note_off_c, 0, 71, 0
2, 35227, Note_off_c, 0, 60, 0
2, 35232, Note_on_c, 0, 55, 80
2, 35232, Note_on_c, 0, 59, 80
2, 35270, Note_off_c, 0, 59, 0
2, 35270, Note_off_c, 0, 55, 0
2, 35280, Note_on_c, 0, 75, 80
2, 35299, Note_off_c, 0, 75, 0
2, 35304, Note_on_c, 0, 74, 80
2, 35323, Note_off_c, 0, 74, 0
2, 35328, Note_on_c, 0, 63, 80
2, 35328, Note_on_c, 0, 73, 80
2, 35347, Note_off_c, 0, 73, 0
2, 35347, Note_off_c, 0, 63, 0
2, 35352, Note_on_c, 0, 72, 80
2, 35352, Note_on_c, 0, 62, 80
2, 35371, Note_off_c, 0, 62, 0
2, 35371, Note_off_c, 0, 72, 0
2, 35376, Note_on_c, 0, 61, 80
2, 35395, Note_off_c, 0, 61, 0
2, 35400, Note_on_c, 0, 60, 80
2, 35419, Note_off_c, 0, 60, 0
2, 35424, Note_on_c, 0, 55, 80
2, 35424, Note_on_c, 0, 75, 80
2, 35424, Note_on_c, 0, 59, 80
2, 35443, Note_off_c, 0, 75, 0
2, 35448, Note_on_c, 0, 74, 80
2, 35462, Note_off_c, 0, 55, 0
2, 35462, Note_off_c, 0, 59, 0
2, 35467, Note_off_c, 0, 74, 0
2, 35472, Note_on_c, 0, 73, 80
2, 35491, Note_off_c, 0, 73, 0
2, 35496, Note_on_c, 0, 72, 80
2, 35515, Note_off_c, 0, 72, 0
2, 35520, Note_on_c, 0, 63, 80
2, 35520, Note_on_c, 0, 71, 80
2, 35520, Note_on_c, 0, 55, 80
2, 35635, Note_off_c, 0, 71, 0
2, 35664, Note_on_c, 0, 74, 80
2, 35673, Note_off_c, 0, 55, 0
2, 35692, Note_off_c, 0, 74, 0
2, 35700, Note_on_c, 0, 72, 80
2, 35709, Note_off_c, 0, 72, 0
2, 35712, Note_on_c, 0, 56, 80
2, 35712, Note_on_c, 0, 72, 80
2, 35750, Note_off_c, 0, 72, 0
2, 35750, Note_off_c, 0, 63, 0
2, 35750, Note_off_c, 0, 56, 0
2, 35808, Note_on_c, 0, 65, 80
2, 35827, Note_off_c, 0, 65, 0
2, 35832, Note_on_c, 0, 67, 80
2, 35851, Note_off_c, 0, 67, 0
2, 35856, Note_on_c, 0, 68, 80
2, 35875, Note_off_c, 0, 68, 0
2, 35880, Note_on_c, 0, 69, 80
2, 35899, Note_off_c, 0, 69, 0
2, 35904, Note_on_c, 0, 70, 80
2, 35980, Note_off_c, 0, 70, 0
2, 36000, Note_on_c, 0, 51, 80
2, 36000, Note_on_c, 0, 70, 80
2, 36000, Note_on_c, 0, 43, 80
2, 36012, Note_off_c, 0, 70, 0
2, 36016, Note_on_c, 0, 71, 80
2, 36028, Note_off_c, 0, 71, 0
2, 36032, Note_on_c, 0, 72, 80
2, 36044, Note_off_c, 0, 72, 0
2, 36048, Note_on_c, 0, 73, 80
2, 36060, Note_off_c, 0, 73, 0
2, 36064, Note_on_c, 0, 74, 80
2, 36076, Note_off_c, 0, 51, 0
2, 36076, Note_off_c, 0, 43, 0
2, 36076, Note_off_c, 0, 74, 0
2, 36080, Note_on_c, 0, 75, 80
2, 36092, Note_off_c, 0, 75, 0
2, 36096, Note_on_c, 0, 63, 80
2, 36096, Note_on_c, 0, 55, 80
2, 36096, Note_on_c, 0, 46, 80
2, 36172, Note_off_c, 0, 46, 0
2, 36172, Note_off_c, 0, 55, 0
2, 36192, Note_on_c, 0, 56, 80
2, 36211, Note_off_c, 0, 63, 0
2, 36240, Note_on_c, 0, 62, 80
2, 36240, Note_on_c, 0, 67, 80
2, 36259, Note_off_c, 0, 67, 0
2, 36259, Note_off_c, 0, 62, 0
2, 36264, Note_on_c, 0, 65, 80
2, 36268, Note_off_c, 0, 56, 0
2, 36283, Note_off_c, 0, 65, 0
2, 36288, Note_on_c, 0, 51, 80
2, 36288, Note_on_c, 0, 63, 80
2, 36326, Note_off_c, 0, 51, 0
2, 36336, Note_on_c, 0, 55, 80
2, 36364, Note_off_c, 0, 63, 0
2, 36374, Note_off_c, 0, 55, 0
2, 36384, Note_on_c, 0, 58, 80
2, 36422, Note_off_c, 0, 58, 0
2, 36432, Note_on_c, 0, 55, 80
2, 36470, Note_off_c, 0, 55, 0
2, 36480, Note_on_c, 0, 51, 80
2, 36480, Note_on_c, 0, 72, 80
2, 36518, Note_off_c, 0, 51, 0
2, 36528, Note_on_c, 0, 56, 80
2, 36566, Note_off_c, 0, 56, 0
2, 36576, Note_on_c, 0, 60, 80
2, 36595, Note_off_c, 0, 72, 0
2, 36614, Note_off_c, 0, 60, 0
2, 36624, Note_on_c, 0, 56, 80
2, 36624, Note_on_c, 0, 75, 80
2, 36643, Note_off_c, 0, 75, 0
2, 36648, Note_on_c, 0, 72, 80
2, 36662, Note_off_c, 0, 56, 0
2, 36667, Note_off_c, 0, 72, 0
2, 36672, Note_on_c, 0, 51, 80
2, 36672, Note_on_c, 0, 70, 80
2, 36691, Note_off_c, 0, 70, 0
2, 36696, Note_on_c, 0, 79, 80
2, 36710, Note_off_c, 0, 51, 0
2, 36715, Note_off_c, 0, 79, 0
2, 36720, Note_on_c, 0, 55, 80
2, 36720, Note_on_c, 0, 77, 80
2, 36739, Note_off_c, 0, 77, 0
2, 36744, Note_on_c, 0, 75, 80
2, 36758, Note_off_c, 0, 55, 0
2, 36763, Note_off_c, 0, 75, 0
2, 36768, Note_on_c, 0, 74, 80
2, 36768, Note_on_c, 0, 58, 80
2, 36787, Note_off_c, 0, 74, 0
2, 36792, Note_on_c, 0, 75, 80
2, 36806, Note_off_c, 0, 58, 0
2, 36811, Note_off_c, 0, 75, 0
2, 36816, Note_on_c, 0, 77, 80
2, 36816, Note_on_c, 0, 55, 80
2, 36835, Note_off_c, 0, 77, 0
2, 36840, Note_on_c, 0, 75, 80
2, 36854, Note_off_c, 0, 55, 0
2, 36859, Note_off_c, 0, 75, 0
2, 36864, Note_on_c, 0, 72, 80
2, 36864, Note_on_c, 0, 51, 80
2, 36902, Note_off_c, 0, 51, 0
2, 36912, Note_on_c, 0, 56, 80
2, 36950, Note_off_c, 0, 56, 0
2, 36960, Note_on_c, 0, 60, 80
2, 36979, Note_off_c, 0, 72, 0
2, 36998, Note_off_c, 0, 60, 0
2, 37008, Note_on_c, 0, 75, 80
2, 37008, Note_on_c, 0, 56, 80
2, 37027, Note_off_c, 0, 75, 0
2, 37032, Note_on_c, 0, 72, 80
2, 37046, Note_off_c, 0, 56, 0
2, 37051, Note_off_c, 0, 72, 0
2, 37056, Note_on_c, 0, 55, 80
2, 37056, Note_on_c, 0, 70, 80
2, 37056, Note_on_c, 0, 51, 80
2, 37056, Note_on_c, 0, 58, 80
2, 37075, Note_off_c, 0, 70, 0
2, 37080, Note_on_c, 0, 79, 80
2, 37099, Note_off_c, 0, 79, 0
2, 37104, Note_on_c, 0, 77, 80
2, 37123, Note_off_c, 0, 77, 0
2, 37128, Note_on_c, 0, 75, 80
2, 37132, Note_off_c, 0, 55, 0
2, 37132, Note_off_c, 0, 51, 0
2, 37132, Note_off_c, 0, 58, 0
2, 37147, Note_off_c, 0, 75, 0
2, 37152, Note_on_c, 0, 74, 80
2, 37171, Note_off_c, 0, 74, 0
2, 37176, Note_on_c, 0, 75, 80
2, 37195, Note_off_c, 0, 75, 0
2, 37200, Note_on_c, 0, 77, 80
2, 37219, Note_off_c, 0, 77, 0
2, 37224, Note_on_c, 0, 75, 80
2, 37243, Note_off_c, 0, 75, 0
2, 37248, Note_on_c, 0, 48, 80
2, 37248, Note_on_c, 0, 53, 80
2, 37248, Note_on_c, 0, 44, 80
2, 37272, Note_on_c, 0, 75, 80
2, 37291, Note_off_c, 0, 75, 0
2, 37296, Note_on_c, 0, 74, 80
2, 37315, Note_off_c, 0, 74, 0
2, 37320, Note_on_c, 0, 72, 80
2, 37324, Note_off_c, 0, 44, 0
2, 37324, Note_off_c, 0, 53, 0
2, 37324, Note_off_c, 0, 48, 0
2, 37339, Note_off_c, 0, 72, 0
2, 37344, Note_on_c, 0, 71, 80
2, 37363, Note_off_c, 0, 71, 0
2, 37368, Note_on_c, 0, 72, 80
2, 37387, Note_off_c, 0, 72, 0
2, 37392, Note_on_c, 0, 74, 80
2, 37411, Note_off_c, 0, 74, 0
2, 37416, Note_on_c, 0, 72, 80
2, 37435, Note_off_c, 0, 72, 0
2, 37440, Note_on_c, 0, 46, 80
2, 37440, Note_on_c, 0, 55, 80
2, 37464, Note_on_c, 0, 70, 80
2, 37478, Note_off_c, 0, 55, 0
2, 37478, Note_off_c, 0, 46, 0
2, 37483, Note_off_c, 0, 70, 0
2, 37488, Note_on_c, 0, 75, 80
2, 37507, Note_off_c, 0, 75, 0
2, 37512, Note_on_c, 0, 70, 80
2, 37531, Note_off_c, 0, 70, 0
2, 37536, Note_on_c, 0, 46, 80
2, 37536, Note_on_c, 0, 51, 80
2, 37560, Note_on_c, 0, 67, 80
2, 37574, Note_off_c, 0, 51, 0
2, 37574, Note_off_c, 0, 46, 0
2, 37579, Note_off_c, 0, 67, 0
2, 37584, Note_on_c, 0, 70, 80
2, 37603, Note_off_c, 0, 70, 0
2, 37608, Note_on_c, 0, 67, 80
2, 37627, Note_off_c, 0, 67, 0
2, 37632, Note_on_c, 0, 46, 80
2, 37632, Note_on_c, 0, 53, 80
2, 37656, Note_on_c, 0, 68, 80
2, 37670, Note_off_c, 0, 53, 0
2, 37670, Note_off_c, 0, 46, 0
2, 37675, Note_off_c, 0, 68, 0
2, 37680, Note_on_c, 0, 72, 80
2, 37699, Note_off_c, 0, 72, 0
2, 37704, Note_on_c, 0, 68, 80
2, 37723, Note_off_c, 0, 68, 0
2, 37728, Note_on_c, 0, 46, 80
2, 37728, Note_on_c, 0, 56, 80
2, 37752, Note_on_c, 0, 62, 80
2, 37766, Note_off_c, 0, 56, 0
2, 37766, Note_off_c, 0, 46, 0
2, 37771, Note_off_c, 0, 62, 0
2, 37776, Note_on_c, 0, 65, 80
2, 37795, Note_off_c, 0, 65, 0
2, 37800, Note_on_c, 0, 62, 80
2, 37819, Note_off_c, 0, 62, 0
2, 37824, Note_on_c, 0, 51, 80
2, 37824, Note_on_c, 0, 63, 80
2, 37862, Note_off_c, 0, 51, 0
2, 37872, Note_on_c, 0, 55, 80
2, 37900, Note_off_c, 0, 63, 0
2, 37910, Note_off_c, 0, 55, 0
2, 37920, Note_on_c, 0, 58, 80
2, 37944, Note_on_c, 0, 75, 80
2, 37958, Note_off_c, 0, 58, 0
2, 37963, Note_off_c, 0, 75, 0
2, 37968, Note_on_c, 0, 74, 80
2, 37968, Note_on_c, 0, 55, 80
2, 37987, Note_off_c, 0, 74, 0
2, 37992, Note_on_c, 0, 73, 80
2, 38006, Note_off_c, 0, 55, 0
2, 38011, Note_off_c, 0, 73, 0
2, 38016, Note_on_c, 0, 51, 80
2, 38016, Note_on_c, 0, 71, 80
2, 38054, Note_off_c, 0, 71, 0
2, 38054, Note_off_c, 0, 51, 0
2, 38064, Note_on_c, 0, 56, 80
2, 38064, Note_on_c, 0, 72, 80
2, 38102, Note_off_c, 0, 72, 0
2, 38102, Note_off_c, 0, 56, 0
2, 38112, Note_on_c, 0, 60, 80
2, 38112, Note_on_c, 0, 72, 80
2, 38131, Note_off_c, 0, 72, 0
2, 38136, Note_on_c, 0, 75, 80
2, 38145, Note_off_c, 0, 75, 0
2, 38148, Note_on_c, 0, 74, 80
2, 38150, Note_off_c, 0, 60, 0
2, 38157, Note_off_c, 0, 74, 0
2, 38160, Note_on_c, 0, 56, 80
2, 38160, Note_on_c, 0, 77, 80
2, 38169, Note_off_c, 0, 77, 0
2, 38172, Note_on_c, 0, 75, 80
2, 38181, Note_off_c, 0, 75, 0
2, 38184, Note_on_c, 0, 74, 80
2, 38193, Note_off_c, 0, 74, 0
2, 38196, Note_on_c, 0, 72, 80
2, 38198, Note_off_c, 0, 56, 0
2, 38205, Note_off_c, 0, 72, 0
2, 38208, Note_on_c, 0, 70, 80
2, 38208, Note_on_c, 0, 51, 80
2, 38227, Note_off_c, 0, 70, 0
2, 38232, Note_on_c, 0, 79, 80
2, 38246, Note_off_c, 0, 51, 0
2, 38251, Note_off_c, 0, 79, 0
2, 38256, Note_on_c, 0, 55, 80
2, 38256, Note_on_c, 0, 77, 80
2, 38275, Note_off_c, 0, 77, 0
2, 38280, Note_on_c, 0, 75, 80
2, 38294, Note_off_c, 0, 55, 0
2, 38299, Note_off_c, 0, 75, 0
2, 38304, Note_on_c, 0, 74, 80
2, 38304, Note_on_c, 0, 58, 80
2, 38323, Note_off_c, 0, 74, 0
2, 38328, Note_on_c, 0, 75, 80
2, 38342, Note_off_c, 0, 58, 0
2, 38347, Note_off_c, 0, 75, 0
2, 38352, Note_on_c, 0, 55, 80
2, 38352, Note_on_c, 0, 77, 80
2, 38371, Note_off_c, 0, 77, 0
2, 38376, Note_on_c, 0, 75, 80
2, 38390, Note_off_c, 0, 55, 0
2, 38395, Note_off_c, 0, 75, 0
2, 38400, Note_on_c, 0, 74, 80
2, 38400, Note_on_c, 0, 51, 80
2, 38428, Note_off_c, 0, 74, 0
2, 38436, Note_on_c, 0, 72, 80
2, 38438, Note_off_c, 0, 51, 0
2, 38445, Note_off_c, 0, 72, 0
2, 38448, Note_on_c, 0, 56, 80
2, 38448, Note_on_c, 0, 84, 80
2, 38486, Note_off_c, 0, 56, 0
2, 38496, Note_on_c, 0, 60, 80
2, 38505, Note_off_c, 0, 84, 0
2, 38508, Note_on_c, 0, 82, 80
2, 38517, Note_off_c, 0, 82, 0
2, 38520, Note_on_c, 0, 80, 80
2, 38529, Note_off_c, 0, 80, 0
2, 38532, Note_on_c, 0, 79, 80
2, 38534, Note_off_c, 0, 60, 0
2, 38541, Note_off_c, 0, 79, 0
2, 38544, Note_on_c, 0, 56, 80
2, 38544, Note_on_c, 0, 77, 80
2, 38553, Note_off_c, 0, 77, 0
2, 38556, Note_on_c, 0, 75, 80
2, 38565, Note_off_c, 0, 75, 0
2, 38568, Note_on_c, 0, 74, 80
2, 38577, Note_off_c, 0, 74, 0
2, 38580, Note_on_c, 0, 72, 80
2, 38582, Note_off_c, 0, 56, 0
2, 38589, Note_off_c, 0, 72, 0
2, 38592, Note_on_c, 0, 58, 80
2, 38592, Note_on_c, 0, 55, 80
2, 38592, Note_on_c, 0, 70, 80
2, 38592, Note_on_c, 0, 51, 80
2, 38611, Note_off_c, 0, 70, 0
2, 38616, Note_on_c, 0, 79, 80
2, 38635, Note_off_c, 0, 79, 0
2, 38640, Note_on_c, 0, 77, 80
2, 38659, Note_off_c, 0, 77, 0
2, 38664, Note_on_c, 0, 75, 80
2, 38668, Note_off_c, 0, 55, 0
2, 38668, Note_off_c, 0, 58, 0
2, 38668, Note_off_c, 0, 51, 0
2, 38683, Note_off_c, 0, 75, 0
2, 38688, Note_on_c, 0, 74, 80
2, 38707, Note_off_c, 0, 74, 0
2, 38712, Note_on_c, 0, 75, 80
2, 38731, Note_off_c, 0, 75, 0
2, 38736, Note_on_c, 0, 77, 80
2, 38755, Note_off_c, 0, 77, 0
2, 38760, Note_on_c, 0, 75, 80
2, 38779, Note_off_c, 0, 75, 0
2, 38784, Note_on_c, 0, 62, 80
2, 38784, Note_on_c, 0, 58, 80
2, 38784, Note_on_c, 0, 53, 80
2, 38784, Note_on_c, 0, 56, 80
2, 38808, Note_on_c, 0, 80, 80
2, 38827, Note_off_c, 0, 80, 0
2, 38832, Note_on_c, 0, 79, 80
2, 38851, Note_off_c, 0, 79, 0
2, 38856, Note_on_c, 0, 77, 80
2, 38860, Note_off_c, 0, 56, 0
2, 38860, Note_off_c, 0, 53, 0
2, 38860, Note_off_c, 0, 58, 0
2, 38860, Note_off_c, 0, 62, 0
2, 38875, Note_off_c, 0, 77, 0
2, 38880, Note_on_c, 0, 76, 80
2, 38899, Note_off_c, 0, 76, 0
2, 38904, Note_on_c, 0, 77, 80
2, 38923, Note_off_c, 0, 77, 0
2, 38928, Note_on_c, 0, 79, 80
2, 38947, Note_off_c, 0, 79, 0
2, 38952, Note_on_c, 0, 77, 80
2, 38971, Note_off_c, 0, 77, 0
2, 38976, Note_on_c, 0, 82, 80
2, 39024, Note_on_c, 0, 55, 80
2, 39062, Note_off_c, 0, 55, 0
2, 39072, Note_on_c, 0, 58, 80
2, 39110, Note_off_c, 0, 58, 0
2, 39120, Note_on_c, 0, 63, 80
2, 39129, Note_off_c, 0, 82, 0
2, 39158, Note_off_c, 0, 63, 0
2, 39168, Note_on_c, 0, 55, 80
2, 39216, Note_on_c, 0, 36, 80
2, 39254, Note_off_c, 0, 36, 0
2, 39264, Note_on_c, 0, 39, 80
2, 39302, Note_off_c, 0, 39, 0
2, 39312, Note_on_c, 0, 48, 80
2, 39321, Note_off_c, 0, 55, 0
2, 39350, Note_off_c, 0, 48, 0
2, 39360, Note_on_c, 0, 53, 80
2, 39408, Note_on_c, 0, 32, 80
2, 39446, Note_off_c, 0, 32, 0
2, 39456, Note_on_c, 0, 36, 80
2, 39494, Note_off_c, 0, 36, 0
2, 39504, Note_on_c, 0, 41, 80
2, 39513, Note_off_c, 0, 53, 0
2, 39542, Note_off_c, 0, 41, 0
2, 39552, Note_on_c, 0, 51, 80
2, 39600, Note_on_c, 0, 33, 80
2, 39638, Note_off_c, 0, 33, 0
2, 39648, Note_on_c, 0, 36, 80
2, 39686, Note_off_c, 0, 36, 0
2, 39696, Note_on_c, 0, 39, 80
2, 39734, Note_off_c, 0, 39, 0
2, 39744, Note_on_c, 0, 34, 80
2, 39782, Note_off_c, 0, 51, 0
2, 39792, Note_on_c, 0, 50, 80
2, 39820, Note_off_c, 0, 34, 0
2, 39840, Note_on_c, 0, 39, 80
2, 39868, Note_off_c, 0, 50, 0
2, 39888, Note_on_c, 0, 48, 80
2, 39916, Note_off_c, 0, 39, 0
2, 39936, Note_on_c, 0, 38, 80
2, 39964, Note_off_c, 0, 48, 0
2, 39984, Note_on_c, 0, 46, 80
2, 40012, Note_off_c, 0, 38, 0
2, 40032, Note_on_c, 0, 36, 80
2, 40060, Note_off_c, 0, 46, 0
2, 40080, Note_on_c, 0, 45, 80
2, 40108, Note_off_c, 0, 36, 0
2, 40128, Note_on_c, 0, 34, 80
2, 40128, Note_on_c, 0, 38, 80
2, 40128, Note_on_c, 0, 41, 80
2, 40128, Note_on_c, 0, 44, 80
2, 40156, Note_off_c, 0, 45, 0
2, 40435, Note_off_c, 0, 34, 0
2, 40435, Note_off_c, 0, 38, 0
2, 40435, Note_off_c, 0, 41, 0
2, 40435, Note_off_c, 0, 44, 0
2, 40512, Note_on_c, 0, 46, 80
2, 40521, Note_off_c, 0, 46, 0
2, 40524, Note_on_c, 0, 44, 80
2, 40533, Note_off_c, 0, 44, 0
2, 40536, Note_on_c, 0, 43, 80
2, 40545, Note_off_c, 0, 43, 0
2, 40548, Note_on_c, 0, 44, 80
2, 40557, Note_off_c, 0, 44, 0
2, 40560, Note_on_c, 0, 46, 80
2, 40569, Note_off_c, 0, 46, 0
2, 40572, Note_on_c, 0, 48, 80
2, 40581, Note_off_c, 0, 48, 0
2, 40584, Note_on_c, 0, 50, 80
2, 40593, Note_off_c, 0, 50, 0
2, 40596, Note_on_c, 0, 51, 80
2, 40605, Note_off_c, 0, 51, 0
2, 40608, Note_on_c, 0, 53, 80
2, 40617, Note_off_c, 0, 53, 0
2, 40620, Note_on_c, 0, 55, 80
2, 40629, Note_off_c, 0, 55, 0
2, 40632, Note_on_c, 0, 56, 80
2, 40641, Note_off_c, 0, 56, 0
2, 40644, Note_on_c, 0, 58, 80
2, 40653, Note_off_c, 0, 58, 0
2, 40656, Note_on_c, 0, 60, 80
2, 40665, Note_off_c, 0, 60, 0
2, 40668, Note_on_c, 0, 62, 80
2, 40677, Note_off_c, 0, 62, 0
2, 40680, Note_on_c, 0, 63, 80
2, 40689, Note_off_c, 0, 63, 0
2, 40692, Note_on_c, 0, 65, 80
2, 40701, Note_off_c, 0, 65, 0
2, 40704, Note_on_c, 0, 67, 80
2, 40713, Note_off_c, 0, 67, 0
2, 40716, Note_on_c, 0, 68, 80
2, 40725, Note_off_c, 0, 68, 0
2, 40728, Note_on_c, 0, 70, 80
2, 40737, Note_off_c, 0, 70, 0
2, 40740, Note_on_c, 0, 72, 80
2, 40749, Note_off_c, 0, 72, 0
2, 40752, Note_on_c, 0, 74, 80
2, 40761, Note_off_c, 0, 74, 0
2, 40764, Note_on_c, 0, 75, 80
2, 40773, Note_off_c, 0, 75, 0
2, 40776, Note_on_c, 0, 77, 80
2, 40785, Note_off_c, 0, 77, 0
2, 40788, Note_on_c, 0, 79, 80
2, 40797, Note_off_c, 0, 79, 0
2, 40800, Note_on_c, 0, 80, 80
2, 40809, Note_off_c, 0, 80, 0
2, 40812, Note_on_c, 0, 82, 80
2, 40821, Note_off_c, 0, 82, 0
2, 40824, Note_on_c, 0, 84, 80
2, 40833, Note_off_c, 0, 84, 0
2, 40836, Note_on_c, 0, 86, 80
2, 40845, Note_off_c, 0, 86, 0
2, 40848, Note_on_c, 0, 87, 80
2, 40857, Note_off_c, 0, 87, 0
2, 40860, Note_on_c, 0, 89, 80
2, 40879, Note_off_c, 0, 89, 0
2, 40884, Note_on_c, 0, 86, 80
2, 40903, Note_off_c, 0, 86, 0
2, 40908, Note_on_c, 0, 82, 80
2, 40927, Note_off_c, 0, 82, 0
2, 40932, Note_on_c, 0, 81, 80
2, 41008, Note_off_c, 0, 81, 0
2, 41028, Note_on_c, 0, 80, 80
2, 41181, Note_off_c, 0, 80, 0
2, 41280, Note_on_c, 0, 51, 80
2, 41304, Note_on_c, 0, 79, 80
2, 41318, Note_off_c, 0, 51, 0
2, 41323, Note_off_c, 0, 79, 0
2, 41328, Note_on_c, 0, 82, 80
2, 41347, Note_off_c, 0, 82, 0
2, 41352, Note_on_c, 0, 79, 80
2, 41371, Note_off_c, 0, 79, 0
2, 41376, Note_on_c, 0, 55, 80
2, 41400, Note_on_c, 0, 75, 80
2, 41414, Note_off_c, 0, 55, 0
2, 41419, Note_off_c, 0, 75, 0
2, 41424, Note_on_c, 0, 79, 80
2, 41443, Note_off_c, 0, 79, 0
2, 41448, Note_on_c, 0, 75, 80
2, 41467, Note_off_c, 0, 75, 0
2, 41472, Note_on_c, 0, 56, 80
2, 41496, Note_on_c, 0, 72, 80
2, 41510, Note_off_c, 0, 56, 0
2, 41515, Note_off_c, 0, 72, 0
2, 41520, Note_on_c, 0, 75, 80
2, 41539, Note_off_c, 0, 75, 0
2, 41544, Note_on_c, 0, 72, 80
2, 41563, Note_off_c, 0, 72, 0
2, 41568, Note_on_c, 0, 60, 80
2, 41592, Note_on_c, 0, 68, 80
2, 41606, Note_off_c, 0, 60, 0
2, 41611, Note_off_c, 0, 68, 0
2, 41616, Note_on_c, 0, 72, 80
2, 41635, Note_off_c, 0, 72, 0
2, 41640, Note_on_c, 0, 68, 80
2, 41659, Note_off_c, 0, 68, 0
2, 41664, Note_on_c, 0, 46, 80
2, 41664, Note_on_c, 0, 67, 80
2, 41683, Note_off_c, 0, 67, 0
2, 41688, Note_on_c, 0, 70, 80
2, 41702, Note_off_c, 0, 46, 0
2, 41712, Note_on_c, 0, 55, 80
2, 41726, Note_off_c, 0, 70, 0
2, 41736, Note_on_c, 0, 69, 80
2, 41750, Note_off_c, 0, 55, 0
2, 41760, Note_on_c, 0, 51, 80
2, 41774, Note_off_c, 0, 69, 0
2, 41784, Note_on_c, 0, 68, 80
2, 41798, Note_off_c, 0, 51, 0
2, 41808, Note_on_c, 0, 55, 80
2, 41822, Note_off_c, 0, 68, 0
2, 41832, Note_on_c, 0, 67, 80
2, 41846, Note_off_c, 0, 55, 0
2, 41851, Note_off_c, 0, 67, 0
2, 41856, Note_on_c, 0, 46, 80
2, 41856, Note_on_c, 0, 65, 80
2, 41865, Note_off_c, 0, 65, 0
2, 41868, Note_on_c, 0, 67, 80
2, 41877, Note_off_c, 0, 67, 0
2, 41880, Note_on_c, 0, 65, 80
2, 41889, Note_off_c, 0, 65, 0
2, 41892, Note_on_c, 0, 67, 80
2, 41894, Note_off_c, 0, 46, 0
2, 41901, Note_off_c, 0, 67, 0
2, 41904, Note_on_c, 0, 56, 80
2, 41904, Note_on_c, 0, 65, 80
2, 41913, Note_off_c, 0, 65, 0
2, 41916, Note_on_c, 0, 67, 80
2, 41925, Note_off_c, 0, 67, 0
2, 41928, Note_on_c, 0, 65, 80
2, 41937, Note_off_c, 0, 65, 0
2, 41940, Note_on_c, 0, 67, 80
2, 41942, Note_off_c, 0, 56, 0
2, 41949, Note_off_c, 0, 67, 0
2, 41952, Note_on_c, 0, 53, 80
2, 41952, Note_on_c, 0, 65, 80
2, 41961, Note_off_c, 0, 65, 0
2, 41964, Note_on_c, 0, 67, 80
2, 41973, Note_off_c, 0, 67, 0
2, 41976, Note_on_c, 0, 65, 80
2, 41985, Note_off_c, 0, 65, 0
2, 41988, Note_on_c, 0, 67, 80
2, 41990, Note_off_c, 0, 53, 0
2, 41997, Note_off_c, 0, 67, 0
2, 42000, Note_on_c, 0, 56, 80
2, 42000, Note_on_c, 0, 63, 80
2, 42019, Note_off_c, 0, 63, 0
2, 42024, Note_on_c, 0, 65, 80
2, 42038, Note_off_c, 0, 56, 0
2, 42043, Note_off_c, 0, 65, 0
2, 42048, Note_on_c, 0, 63, 80
2, 42048, Note_on_c, 0, 51, 80
2, 42067, Note_off_c, 0, 51, 0
2, 42072, Note_on_c, 0, 55, 80
2, 42091, Note_off_c, 0, 55, 0
2, 42096, Note_on_c, 0, 58, 80
2, 42115, Note_off_c, 0, 58, 0
2, 42120, Note_on_c, 0, 55, 80
2, 42124, Note_off_c, 0, 63, 0
2, 42139, Note_off_c, 0, 55, 0
2, 42144, Note_on_c, 0, 58, 80
2, 42163, Note_off_c, 0, 58, 0
2, 42168, Note_on_c, 0, 55, 80
2, 42187, Note_off_c, 0, 55, 0
2, 42192, Note_on_c, 0, 58, 80
2, 42211, Note_off_c, 0, 58, 0
2, 42216, Note_on_c, 0, 55, 80
2, 42235, Note_off_c, 0, 55, 0
2, 42240, Note_on_c, 0, 46, 80
2, 42240, Note_on_c, 0, 56, 80
2, 42240, Note_on_c, 0, 62, 80
2, 42259, Note_off_c, 0, 62, 0
2, 42264, Note_on_c, 0, 65, 80
2, 42283, Note_off_c, 0, 65, 0
2, 42288, Note_on_c, 0, 72, 80
2, 42307, Note_off_c, 0, 72, 0
2, 42312, Note_on_c, 0, 70, 80
2, 42316, Note_off_c, 0, 56, 0
2, 42316, Note_off_c, 0, 46, 0
2, 42331, Note_off_c, 0, 70, 0
2, 42336, Note_on_c, 0, 72, 80
2, 42355, Note_off_c, 0, 72, 0
2, 42360, Note_on_c, 0, 70, 80
2, 42379, Note_off_c, 0, 70, 0
2, 42384, Note_on_c, 0, 72, 80
2, 42403, Note_off_c, 0, 72, 0
2, 42408, Note_on_c, 0, 70, 80
2, 42427, Note_off_c, 0, 70, 0
2, 42432, Note_on_c, 0, 70, 80
2, 42432, Note_on_c, 0, 51, 80
2, 42451, Note_off_c, 0, 51, 0
2, 42456, Note_on_c, 0, 55, 80
2, 42475, Note_off_c, 0, 55, 0
2, 42480, Note_on_c, 0, 58, 80
2, 42499, Note_off_c, 0, 58, 0
2, 42504, Note_on_c, 0, 55, 80
2, 42508, Note_off_c, 0, 70, 0
2, 42523, Note_off_c, 0, 55, 0
2, 42528, Note_on_c, 0, 75, 80
2, 42528, Note_on_c, 0, 58, 80
2, 42547, Note_off_c, 0, 58, 0
2, 42552, Note_on_c, 0, 55, 80
2, 42566, Note_off_c, 0, 75, 0
2, 42571, Note_off_c, 0, 55, 0
2, 42576, Note_on_c, 0, 58, 80
2, 42595, Note_off_c, 0, 58, 0
2, 42600, Note_on_c, 0, 55, 80
2, 42619, Note_off_c, 0, 55, 0
2, 42624, Note_on_c, 0, 46, 80
2, 42624, Note_on_c, 0, 56, 80
2, 42624, Note_on_c, 0, 62, 80
2, 42643, Note_off_c, 0, 62, 0
2, 42648, Note_on_c, 0, 65, 80
2, 42667, Note_off_c, 0, 65, 0
2, 42672, Note_on_c, 0, 72, 80
2, 42691, Note_off_c, 0, 72, 0
2, 42696, Note_on_c, 0, 70, 80
2, 42700, Note_off_c, 0, 56, 0
2, 42700, Note_off_c, 0, 46, 0
2, 42715, Note_off_c, 0, 70, 0
2, 42720, Note_on_c, 0, 72, 80
2, 42739, Note_off_c, 0, 72, 0
2, 42744, Note_on_c, 0, 70, 80
2, 42763, Note_off_c, 0, 70, 0
2, 42768, Note_on_c, 0, 72, 80
2, 42787, Note_off_c, 0, 72, 0
2, 42792, Note_on_c, 0, 70, 80
2, 42811, Note_off_c, 0, 70, 0
2, 42816, Note_on_c, 0, 70, 80
2, 42816, Note_on_c, 0, 51, 80
2, 42835, Note_off_c, 0, 51, 0
2, 42840, Note_on_c, 0, 55, 80
2, 42859, Note_off_c, 0, 55, 0
2, 42864, Note_on_c, 0, 58, 80
2, 42883, Note_off_c, 0, 58, 0
2, 42888, Note_on_c, 0, 55, 80
2, 42892, Note_off_c, 0, 70, 0
2, 42907, Note_off_c, 0, 55, 0
2, 42912, Note_on_c, 0, 63, 80
2, 42912, Note_on_c, 0, 58, 80
2, 42931, Note_off_c, 0, 58, 0
2, 42936, Note_on_c, 0, 55, 80
2, 42950, Note_off_c, 0, 63, 0
2, 42955, Note_off_c, 0, 55, 0
2, 42960, Note_on_c, 0, 58, 80
2, 42979, Note_off_c, 0, 58, 0
2, 42984, Note_on_c, 0, 55, 80
2, 43003, Note_off_c, 0, 55, 0
2, 43008, Note_on_c, 0, 46, 80
2, 43008, Note_on_c, 0, 62, 80
2, 43008, Note_on_c, 0, 56, 80
2, 43027, Note_off_c, 0, 62, 0
2, 43032, Note_on_c, 0, 65, 80
2, 43051, Note_off_c, 0, 65, 0
2, 43056, Note_on_c, 0, 72, 80
2, 43075, Note_off_c, 0, 72, 0
2, 43080, Note_on_c, 0, 70, 80
2, 43099, Note_off_c, 0, 70, 0
2, 43104, Note_on_c, 0, 72, 80
2, 43123, Note_off_c, 0, 72, 0
2, 43128, Note_on_c, 0, 70, 80
2, 43147, Note_off_c, 0, 70, 0
2, 43152, Note_on_c, 0, 72, 80
2, 43161, Note_off_c, 0, 46, 0
2, 43161, Note_off_c, 0, 56, 0
2, 43171, Note_off_c, 0, 72, 0
2, 43176, Note_on_c, 0, 70, 80
2, 43195, Note_off_c, 0, 70, 0
2, 43200, Note_on_c, 0, 70, 80
2, 43200, Note_on_c, 0, 51, 80
2, 43200, Note_on_c, 0, 55, 80
2, 43219, Note_off_c, 0, 70, 0
2, 43224, Note_on_c, 0, 63, 80
2, 43243, Note_off_c, 0, 63, 0
2, 43248, Note_on_c, 0, 75, 80
2, 43267, Note_off_c, 0, 75, 0
2, 43272, Note_on_c, 0, 75, 80
2, 43276, Note_off_c, 0, 51, 0
2, 43276, Note_off_c, 0, 55, 0
2, 43291, Note_off_c, 0, 75, 0
2, 43296, Note_on_c, 0, 75, 80
2, 43315, Note_off_c, 0, 75, 0
2, 43320, Note_on_c, 0, 67, 80
2, 43339, Note_off_c, 0, 67, 0
2, 43344, Note_on_c, 0, 79, 80
2, 43363, Note_off_c, 0, 79, 0
2, 43368, Note_on_c, 0, 79, 80
2, 43387, Note_off_c, 0, 79, 0
2, 43392, Note_on_c, 0, 79, 80
2, 43411, Note_off_c, 0, 79, 0
2, 43416, Note_on_c, 0, 70, 80
2, 43435, Note_off_c, 0, 70, 0
2, 43440, Note_on_c, 0, 82, 80
2, 43459, Note_off_c, 0, 82, 0
2, 43464, Note_on_c, 0, 82, 80
2, 43483, Note_off_c, 0, 82, 0
2, 43488, Note_on_c, 0, 58, 80
2, 43488, Note_on_c, 0, 62, 80
2, 43488, Note_on_c, 0, 68, 80
2, 43488, Note_on_c, 0, 82, 80
2, 43507, Note_off_c, 0, 82, 0
2, 43512, Note_on_c, 0, 82, 80
2, 43531, Note_off_c, 0, 82, 0
2, 43536, Note_on_c, 0, 82, 80
2, 43555, Note_off_c, 0, 82, 0
2, 43560, Note_on_c, 0, 82, 80
2, 43564, Note_off_c, 0, 68, 0
2, 43564, Note_off_c, 0, 62, 0
2, 43564, Note_off_c, 0, 58, 0
2, 43579, Note_off_c, 0, 82, 0
2, 43584, Note_on_c, 0, 75, 80
2, 43584, Note_on_c, 0, 67, 80
2, 43584, Note_on_c, 0, 63, 80
2, 43622, Note_off_c, 0, 63, 0
2, 43622, Note_off_c, 0, 67, 0
2, 43622, Note_off_c, 0, 75, 0
2, 43680, Note_on_c, 0, 68, 80
2, 43680, Note_on_c, 0, 58, 80
2, 43680, Note_on_c, 0, 62, 80
2, 43680, Note_on_c, 0, 82, 80
2, 43699, Note_off_c, 0, 82, 0
2, 43704, Note_on_c, 0, 82, 80
2, 43723, Note_off_c, 0, 82, 0
2, 43728, Note_on_c, 0, 82, 80
2, 43747, Note_off_c, 0, 82, 0
2, 43752, Note_on_c, 0, 82, 80
2, 43756, Note_off_c, 0, 62, 0
2, 43756, Note_off_c, 0, 58, 0
2, 43756, Note_off_c, 0, 68, 0
2, 43771, Note_off_c, 0, 82, 0
2, 43776, Note_on_c, 0, 63, 80
2, 43776, Note_on_c, 0, 75, 80
2, 43776, Note_on_c, 0, 67, 80
2, 43814, Note_off_c, 0, 67, 0
2, 43814, Note_off_c, 0, 75, 0
2, 43814, Note_off_c, 0, 63, 0
2, 43872, Note_on_c, 0, 62, 80
2, 43872, Note_on_c, 0, 68, 80
2, 43872, Note_on_c, 0, 58, 80
2, 43872, Note_on_c, 0, 82, 80
2, 43891, Note_off_c, 0, 82, 0
2, 43896, Note_on_c, 0, 82, 80
2, 43915, Note_off_c, 0, 82, 0
2, 43920, Note_on_c, 0, 82, 80
2, 43939, Note_off_c, 0, 82, 0
2, 43944, Note_on_c, 0, 82, 80
2, 43948, Note_off_c, 0, 58, 0
2, 43948, Note_off_c, 0, 68, 0
2, 43948, Note_off_c, 0, 62, 0
2, 43963, Note_off_c, 0, 82, 0
2, 43968, Note_on_c, 0, 63, 80
2, 43968, Note_on_c, 0, 67, 80
2, 43968, Note_on_c, 0, 87, 80
2, 44006, Note_off_c, 0, 87, 0
2, 44006, Note_off_c, 0, 67, 0
2, 44006, Note_off_c, 0, 63, 0
2, 44160, Note_on_c, 0, 46, 80
2, 44160, Note_on_c, 0, 56, 80
2, 44160, Note_on_c, 0, 58, 80
2, 44160, Note_on_c, 0, 62, 80
2, 44179, Note_off_c, 0, 46, 0
2, 44184, Note_on_c, 0, 46, 80
2, 44203, Note_off_c, 0, 46, 0
2, 44208, Note_on_c, 0, 46, 80
2, 44227, Note_off_c, 0, 46, 0
2, 44232, Note_on_c, 0, 46, 80
2, 44251, Note_off_c, 0, 46, 0
2, 44256, Note_on_c, 0, 46, 80
2, 44275, Note_off_c, 0, 46, 0
2, 44280, Note_on_c, 0, 46, 80
2, 44299, Note_off_c, 0, 46, 0
2, 44304, Note_on_c, 0, 46, 80
2, 44313, Note_off_c, 0, 56, 0
2, 44313, Note_off_c, 0, 58, 0
2, 44313, Note_off_c, 0, 62, 0
2, 44323, Note_off_c, 0, 46, 0
2, 44328, Note_on_c, 0, 46, 80
2, 44347, Note_off_c, 0, 46, 0
2, 44352, Note_on_c, 0, 55, 80
2, 44352, Note_on_c, 0, 39, 80
2, 44352, Note_on_c, 0, 58, 80
2, 44352, Note_on_c, 0, 63, 80
2, 44390, Note_off_c, 0, 63, 0
2, 44390, Note_off_c, 0, 58, 0
2, 44390, Note_off_c, 0, 39, 0
2, 44390, Note_off_c, 0, 55, 0
2, 44448, Note_on_c, 0, 46, 80
2, 44448, Note_on_c, 0, 56, 80
2, 44448, Note_on_c, 0, 58, 80
2, 44448, Note_on_c, 0, 62, 80
2, 44448, Note_on_c, 0, 65, 80
2, 44467, Note_off_c, 0, 46, 0
2, 44472, Note_on_c, 0, 46, 80
2, 44491, Note_off_c, 0, 46, 0
2, 44496, Note_on_c, 0, 46, 80
2, 44515, Note_off_c, 0, 46, 0
2, 44520, Note_on_c, 0, 46, 80
2, 44524, Note_off_c, 0, 56, 0
2, 44524, Note_off_c, 0, 58, 0
2, 44524, Note_off_c, 0, 62, 0
2, 44524, Note_off_c, 0, 65, 0
2, 44539, Note_off_c, 0, 46, 0
2, 44544, Note_on_c, 0, 63, 80
2, 44544, Note_on_c, 0, 39, 80
2, 44544, Note_on_c, 0, 55, 80
2, 44544, Note_on_c, 0, 58, 80
2, 44582, Note_off_c, 0, 58, 0
2, 44582, Note_off_c, 0, 55, 0
2, 44582, Note_off_c, 0, 39, 0
2, 44582, Note_off_c, 0, 63, 0
2, 44640, Note_on_c, 0, 34, 80
2, 44640, Note_on_c, 0, 56, 80
2, 44640, Note_on_c, 0, 58, 80
2, 44640, Note_on_c, 0, 62, 80
2, 44640, Note_on_c, 0, 65, 80
2, 44659, Note_off_c, 0, 34, 0
2, 44664, Note_on_c, 0, 34, 80
2, 44683, Note_off_c, 0, 34, 0
2, 44688, Note_on_c, 0, 34, 80
2, 44707, Note_off_c, 0, 34, 0
2, 44712, Note_on_c, 0, 34, 80
2, 44716, Note_off_c, 0, 56, 0
2, 44716, Note_off_c, 0, 58, 0
2, 44716, Note_off_c, 0, 62, 0
2, 44716, Note_off_c, 0, 65, 0
2, 44731, Note_off_c, 0, 34, 0
2, 44736, Note_on_c, 0, 39, 80
2, 44736, Note_on_c, 0, 55, 80
2, 44736, Note_on_c, 0, 58, 80
2, 44736, Note_on_c, 0, 63, 80
2, 44774, Note_off_c, 0, 63, 0
2, 44774, Note_off_c, 0, 58, 0
2, 44774, Note_off_c, 0, 55, 0
2, 44774, Note_off_c, 0, 39, 0
2, 44774, End_track
3, 0, Start_track
3, 0, Title_t, "Piano Sonata no. 14 mov.2"
3, 0, Channel_prefix, 1
3, 0, Control_c, 1, 7, 100
3, 0, Program_c, 1, 0
3, 0, End_track
4, 0, Start_track
4, 0, Title_t, "by Wolfgang Amadeus Mozart"
4, 0, Channel_prefix, 2
4, 0, Control_c, 2, 7, 100
4, 0, Program_c, 2, 0
4, 0, End_track
5, 0, Start_track
5, 0, Title_t, "Sequenced by Dan Szymborski"
5, 0, Channel_prefix, 3
5, 0, Control_c, 3, 7, 100
5, 0, Program_c, 3, 0
5, 0, End_track
6, 0, Start_track
6, 0, Title_t, "Czerny@msn.com\\"
6, 0, Channel_prefix, 4
6, 0, Control_c, 4, 7, 100
6, 0, Program_c, 4, 0
6, 0, End_track
0, 0, End_of_file
