0, 0, Header, 1, 2, 240
1, 0, Start_track
1, 0, Time_signature, 3, 2, 24, 8
1, 0, Tempo, 413793
1, 40320, Time_signature, 3, 2, 24, 8
1, 40320, End_track
2, 0, Start_track
2, 0, Title_t, "Piano"
2, 0, Note_on_c, 0, 41, 80
2, 0, Note_on_c, 0, 53, 80
2, 0, Note_on_c, 0, 72, 80
2, 0, Note_on_c, 0, 69, 80
2, 0, Note_on_c, 0, 65, 80
2, 0, Note_on_c, 0, 60, 80
2, 192, Note_off_c, 0, 60, 64
2, 192, Note_off_c, 0, 65, 64
2, 192, Note_off_c, 0, 69, 64
2, 192, Note_off_c, 0, 72, 64
2, 192, Note_off_c, 0, 53, 64
2, 192, Note_off_c, 0, 41, 64
2, 240, Note_on_c, 0, 48, 80
2, 240, Note_on_c, 0, 72, 80
2, 240, Note_on_c, 0, 69, 80
2, 432, Note_off_c, 0, 69, 64
2, 432, Note_off_c, 0, 72, 64
2, 432, Note_off_c, 0, 48, 64
2, 480, Note_on_c, 0, 45, 80
2, 480, Note_on_c, 0, 72, 80
2, 480, Note_on_c, 0, 69, 80
2, 672, Note_off_c, 0, 69, 64
2, 672, Note_off_c, 0, 72, 64
2, 672, Note_off_c, 0, 45, 64
2, 720, Note_on_c, 0, 72, 80
2, 720, Note_on_c, 0, 69, 80
2, 720, Note_on_c, 0, 41, 80
2, 912, Note_off_c, 0, 41, 64
2, 960, Note_on_c, 0, 29, 80
2, 1008, Note_off_c, 0, 69, 64
2, 1008, Note_off_c, 0, 72, 64
2, 1080, Note_on_c, 0, 74, 80
2, 1128, Note_off_c, 0, 74, 64
2, 1140, Note_on_c, 0, 72, 80
2, 1152, Note_off_c, 0, 29, 64
2, 1188, Note_off_c, 0, 72, 64
2, 1200, Note_on_c, 0, 71, 80
2, 1224, Note_off_c, 0, 71, 64
2, 1230, Note_on_c, 0, 72, 80
2, 1254, Note_off_c, 0, 72, 64
2, 1260, Note_on_c, 0, 69, 80
2, 1308, Note_off_c, 0, 69, 64
2, 1320, Note_on_c, 0, 67, 80
2, 1368, Note_off_c, 0, 67, 64
2, 1380, Note_on_c, 0, 65, 80
2, 1428, Note_off_c, 0, 65, 64
2, 1440, Note_on_c, 0, 53, 80
2, 1440, Note_on_c, 0, 77, 80
2, 1440, Note_on_c, 0, 57, 80
2, 1536, Note_off_c, 0, 57, 64
2, 1536, Note_off_c, 0, 53, 64
2, 1560, Note_on_c, 0, 57, 80
2, 1560, Note_on_c, 0, 53, 80
2, 1632, Note_off_c, 0, 77, 64
2, 1656, Note_off_c, 0, 53, 64
2, 1656, Note_off_c, 0, 57, 64
2, 1680, Note_on_c, 0, 53, 80
2, 1680, Note_on_c, 0, 58, 80
2, 1680, Note_on_c, 0, 55, 80
2, 1680, Note_on_c, 0, 76, 80
2, 1776, Note_off_c, 0, 55, 64
2, 1776, Note_off_c, 0, 58, 64
2, 1776, Note_off_c, 0, 53, 64
2, 1800, Note_on_c, 0, 53, 80
2, 1800, Note_on_c, 0, 55, 80
2, 1800, Note_on_c, 0, 58, 80
2, 1872, Note_off_c, 0, 76, 64
2, 1896, Note_off_c, 0, 58, 64
2, 1896, Note_off_c, 0, 55, 64
2, 1896, Note_off_c, 0, 53, 64
2, 1920, Note_on_c, 0, 53, 80
2, 1920, Note_on_c, 0, 57, 80
2, 1920, Note_on_c, 0, 60, 80
2, 1920, Note_on_c, 0, 75, 80
2, 2016, Note_off_c, 0, 60, 64
2, 2016, Note_off_c, 0, 57, 64
2, 2016, Note_off_c, 0, 53, 64
2, 2040, Note_on_c, 0, 53, 80
2, 2040, Note_on_c, 0, 57, 80
2, 2040, Note_on_c, 0, 60, 80
2, 2112, Note_off_c, 0, 75, 64
2, 2136, Note_off_c, 0, 60, 64
2, 2136, Note_off_c, 0, 57, 64
2, 2136, Note_off_c, 0, 53, 64
2, 2160, Note_on_c, 0, 58, 80
2, 2160, Note_on_c, 0, 53, 80
2, 2160, Note_on_c, 0, 62, 80
2, 2160, Note_on_c, 0, 74, 80
2, 2256, Note_off_c, 0, 62, 64
2, 2256, Note_off_c, 0, 53, 64
2, 2256, Note_off_c, 0, 58, 64
2, 2280, Note_on_c, 0, 62, 80
2, 2280, Note_on_c, 0, 58, 80
2, 2280, Note_on_c, 0, 53, 80
2, 2352, Note_off_c, 0, 74, 64
2, 2376, Note_off_c, 0, 53, 64
2, 2376, Note_off_c, 0, 58, 64
2, 2376, Note_off_c, 0, 62, 64
2, 2400, Note_on_c, 0, 53, 80
2, 2400, Note_on_c, 0, 58, 80
2, 2400, Note_on_c, 0, 62, 80
2, 2496, Note_off_c, 0, 62, 64
2, 2496, Note_off_c, 0, 58, 64
2, 2496, Note_off_c, 0, 53, 64
2, 2520, Note_on_c, 0, 53, 80
2, 2520, Note_on_c, 0, 58, 80
2, 2520, Note_on_c, 0, 62, 80
2, 2616, Note_off_c, 0, 62, 64
2, 2616, Note_off_c, 0, 58, 64
2, 2616, Note_off_c, 0, 53, 64
2, 2640, Note_on_c, 0, 53, 80
2, 2640, Note_on_c, 0, 58, 80
2, 2640, Note_on_c, 0, 62, 80
2, 2736, Note_off_c, 0, 62, 64
2, 2736, Note_off_c, 0, 58, 64
2, 2736, Note_off_c, 0, 53, 64
2, 2760, Note_on_c, 0, 53, 80
2, 2760, Note_on_c, 0, 58, 80
2, 2760, Note_on_c, 0, 62, 80
2, 2856, Note_off_c, 0, 62, 64
2, 2856, Note_off_c, 0, 58, 64
2, 2856, Note_off_c, 0, 53, 64
2, 2880, Note_on_c, 0, 55, 80
2, 2880, Note_on_c, 0, 53, 80
2, 2880, Note_on_c, 0, 64, 80
2, 2880, Note_on_c, 0, 72, 80
2, 2976, Note_off_c, 0, 72, 64
2, 2976, Note_off_c, 0, 64, 64
2, 2976, Note_off_c, 0, 53, 64
2, 2976, Note_off_c, 0, 55, 64
2, 3000, Note_on_c, 0, 70, 80
2, 3000, Note_on_c, 0, 64, 80
2, 3000, Note_on_c, 0, 53, 80
2, 3000, Note_on_c, 0, 55, 80
2, 3096, Note_off_c, 0, 55, 64
2, 3096, Note_off_c, 0, 53, 64
2, 3096, Note_off_c, 0, 64, 64
2, 3096, Note_off_c, 0, 70, 64
2, 3120, Note_on_c, 0, 53, 80
2, 3120, Note_on_c, 0, 55, 80
2, 3120, Note_on_c, 0, 70, 80
2, 3120, Note_on_c, 0, 64, 80
2, 3216, Note_off_c, 0, 64, 64
2, 3216, Note_off_c, 0, 55, 64
2, 3216, Note_off_c, 0, 53, 64
2, 3240, Note_on_c, 0, 53, 80
2, 3240, Note_on_c, 0, 55, 80
2, 3240, Note_on_c, 0, 64, 80
2, 3312, Note_off_c, 0, 70, 64
2, 3336, Note_off_c, 0, 64, 64
2, 3336, Note_off_c, 0, 55, 64
2, 3336, Note_off_c, 0, 53, 64
2, 3360, Note_on_c, 0, 53, 80
2, 3360, Note_on_c, 0, 55, 80
2, 3360, Note_on_c, 0, 64, 80
2, 3456, Note_off_c, 0, 64, 64
2, 3456, Note_off_c, 0, 55, 64
2, 3456, Note_off_c, 0, 53, 64
2, 3480, Note_on_c, 0, 53, 80
2, 3480, Note_on_c, 0, 55, 80
2, 3480, Note_on_c, 0, 64, 80
2, 3576, Note_off_c, 0, 64, 64
2, 3576, Note_off_c, 0, 55, 64
2, 3576, Note_off_c, 0, 53, 64
2, 3600, Note_on_c, 0, 57, 80
2, 3600, Note_on_c, 0, 53, 80
2, 3600, Note_on_c, 0, 65, 80
2, 3600, Note_on_c, 0, 74, 80
2, 3696, Note_off_c, 0, 74, 64
2, 3696, Note_off_c, 0, 65, 64
2, 3696, Note_off_c, 0, 53, 64
2, 3696, Note_off_c, 0, 57, 64
2, 3720, Note_on_c, 0, 72, 80
2, 3720, Note_on_c, 0, 65, 80
2, 3720, Note_on_c, 0, 53, 80
2, 3720, Note_on_c, 0, 57, 80
2, 3816, Note_off_c, 0, 57, 64
2, 3816, Note_off_c, 0, 53, 64
2, 3816, Note_off_c, 0, 65, 64
2, 3816, Note_off_c, 0, 72, 64
2, 3840, Note_on_c, 0, 53, 80
2, 3840, Note_on_c, 0, 57, 80
2, 3840, Note_on_c, 0, 72, 80
2, 3840, Note_on_c, 0, 65, 80
2, 3936, Note_off_c, 0, 65, 64
2, 3936, Note_off_c, 0, 57, 64
2, 3936, Note_off_c, 0, 53, 64
2, 3960, Note_on_c, 0, 53, 80
2, 3960, Note_on_c, 0, 57, 80
2, 3960, Note_on_c, 0, 65, 80
2, 4032, Note_off_c, 0, 72, 64
2, 4056, Note_off_c, 0, 65, 64
2, 4056, Note_off_c, 0, 57, 64
2, 4056, Note_off_c, 0, 53, 64
2, 4080, Note_on_c, 0, 53, 80
2, 4080, Note_on_c, 0, 57, 80
2, 4080, Note_on_c, 0, 65, 80
2, 4176, Note_off_c, 0, 65, 64
2, 4176, Note_off_c, 0, 57, 64
2, 4176, Note_off_c, 0, 53, 64
2, 4200, Note_on_c, 0, 53, 80
2, 4200, Note_on_c, 0, 57, 80
2, 4200, Note_on_c, 0, 65, 80
2, 4296, Note_off_c, 0, 65, 64
2, 4296, Note_off_c, 0, 57, 64
2, 4296, Note_off_c, 0, 53, 64
2, 4320, Note_on_c, 0, 55, 80
2, 4320, Note_on_c, 0, 82, 80
2, 4320, Note_on_c, 0, 52, 80
2, 4320, Note_on_c, 0, 60, 80
2, 4368, Note_off_c, 0, 82, 64
2, 4380, Note_on_c, 0, 81, 80
2, 4428, Note_off_c, 0, 81, 64
2, 4440, Note_on_c, 0, 79, 80
2, 4488, Note_off_c, 0, 79, 64
2, 4500, Note_on_c, 0, 81, 80
2, 4512, Note_off_c, 0, 60, 64
2, 4512, Note_off_c, 0, 52, 64
2, 4512, Note_off_c, 0, 55, 64
2, 4548, Note_off_c, 0, 81, 64
2, 4560, Note_on_c, 0, 79, 80
2, 4608, Note_off_c, 0, 79, 64
2, 4620, Note_on_c, 0, 77, 80
2, 4668, Note_off_c, 0, 77, 64
2, 4680, Note_on_c, 0, 76, 80
2, 4728, Note_off_c, 0, 76, 64
2, 4740, Note_on_c, 0, 77, 80
2, 4788, Note_off_c, 0, 77, 64
2, 4800, Note_on_c, 0, 76, 80
2, 4848, Note_off_c, 0, 76, 64
2, 4860, Note_on_c, 0, 74, 80
2, 4908, Note_off_c, 0, 74, 64
2, 4920, Note_on_c, 0, 72, 80
2, 4968, Note_off_c, 0, 72, 64
2, 4980, Note_on_c, 0, 70, 80
2, 5028, Note_off_c, 0, 70, 64
2, 5040, Note_on_c, 0, 69, 80
2, 5040, Note_on_c, 0, 53, 80
2, 5088, Note_off_c, 0, 53, 64
2, 5100, Note_on_c, 0, 60, 80
2, 5136, Note_off_c, 0, 69, 64
2, 5148, Note_off_c, 0, 60, 64
2, 5160, Note_on_c, 0, 77, 80
2, 5160, Note_on_c, 0, 57, 80
2, 5208, Note_off_c, 0, 57, 64
2, 5220, Note_on_c, 0, 60, 80
2, 5268, Note_off_c, 0, 60, 64
2, 5280, Note_on_c, 0, 55, 80
2, 5328, Note_off_c, 0, 55, 64
2, 5340, Note_on_c, 0, 60, 80
2, 5352, Note_off_c, 0, 77, 64
2, 5388, Note_off_c, 0, 60, 64
2, 5400, Note_on_c, 0, 76, 80
2, 5400, Note_on_c, 0, 58, 80
2, 5448, Note_off_c, 0, 58, 64
2, 5460, Note_on_c, 0, 60, 80
2, 5508, Note_off_c, 0, 60, 64
2, 5520, Note_on_c, 0, 57, 80
2, 5568, Note_off_c, 0, 57, 64
2, 5580, Note_on_c, 0, 60, 80
2, 5592, Note_off_c, 0, 76, 64
2, 5628, Note_off_c, 0, 60, 64
2, 5640, Note_on_c, 0, 57, 80
2, 5640, Note_on_c, 0, 77, 80
2, 5688, Note_off_c, 0, 57, 64
2, 5700, Note_on_c, 0, 60, 80
2, 5736, Note_off_c, 0, 77, 64
2, 5748, Note_off_c, 0, 60, 64
2, 5760, Note_on_c, 0, 58, 80
2, 5856, Note_off_c, 0, 58, 64
2, 5880, Note_on_c, 0, 65, 80
2, 5880, Note_on_c, 0, 74, 80
2, 5976, Note_off_c, 0, 74, 64
2, 5976, Note_off_c, 0, 65, 64
2, 6000, Note_on_c, 0, 46, 80
2, 6096, Note_off_c, 0, 46, 64
2, 6120, Note_on_c, 0, 58, 80
2, 6120, Note_on_c, 0, 67, 80
2, 6216, Note_off_c, 0, 67, 64
2, 6216, Note_off_c, 0, 58, 64
2, 6240, Note_on_c, 0, 48, 80
2, 6336, Note_off_c, 0, 48, 64
2, 6360, Note_on_c, 0, 55, 80
2, 6360, Note_on_c, 0, 64, 80
2, 6456, Note_off_c, 0, 64, 64
2, 6456, Note_off_c, 0, 55, 64
2, 6480, Note_on_c, 0, 55, 80
2, 6480, Note_on_c, 0, 82, 80
2, 6480, Note_on_c, 0, 52, 80
2, 6480, Note_on_c, 0, 60, 80
2, 6528, Note_off_c, 0, 82, 64
2, 6540, Note_on_c, 0, 81, 80
2, 6588, Note_off_c, 0, 81, 64
2, 6600, Note_on_c, 0, 79, 80
2, 6648, Note_off_c, 0, 79, 64
2, 6660, Note_on_c, 0, 81, 80
2, 6672, Note_off_c, 0, 60, 64
2, 6672, Note_off_c, 0, 52, 64
2, 6672, Note_off_c, 0, 55, 64
2, 6708, Note_off_c, 0, 81, 64
2, 6720, Note_on_c, 0, 79, 80
2, 6768, Note_off_c, 0, 79, 64
2, 6780, Note_on_c, 0, 77, 80
2, 6828, Note_off_c, 0, 77, 64
2, 6840, Note_on_c, 0, 76, 80
2, 6888, Note_off_c, 0, 76, 64
2, 6900, Note_on_c, 0, 77, 80
2, 6948, Note_off_c, 0, 77, 64
2, 6960, Note_on_c, 0, 76, 80
2, 7008, Note_off_c, 0, 76, 64
2, 7020, Note_on_c, 0, 74, 80
2, 7068, Note_off_c, 0, 74, 64
2, 7080, Note_on_c, 0, 72, 80
2, 7128, Note_off_c, 0, 72, 64
2, 7140, Note_on_c, 0, 70, 80
2, 7188, Note_off_c, 0, 70, 64
2, 7200, Note_on_c, 0, 69, 80
2, 7200, Note_on_c, 0, 53, 80
2, 7248, Note_off_c, 0, 53, 64
2, 7260, Note_on_c, 0, 60, 80
2, 7296, Note_off_c, 0, 69, 64
2, 7308, Note_off_c, 0, 60, 64
2, 7320, Note_on_c, 0, 81, 80
2, 7320, Note_on_c, 0, 57, 80
2, 7368, Note_off_c, 0, 57, 64
2, 7380, Note_on_c, 0, 60, 80
2, 7428, Note_off_c, 0, 60, 64
2, 7440, Note_on_c, 0, 55, 80
2, 7488, Note_off_c, 0, 55, 64
2, 7500, Note_on_c, 0, 64, 80
2, 7512, Note_off_c, 0, 81, 64
2, 7548, Note_off_c, 0, 64, 64
2, 7560, Note_on_c, 0, 79, 80
2, 7560, Note_on_c, 0, 58, 80
2, 7608, Note_off_c, 0, 58, 64
2, 7620, Note_on_c, 0, 64, 80
2, 7668, Note_off_c, 0, 64, 64
2, 7680, Note_on_c, 0, 57, 80
2, 7728, Note_off_c, 0, 57, 64
2, 7740, Note_on_c, 0, 65, 80
2, 7752, Note_off_c, 0, 79, 64
2, 7788, Note_off_c, 0, 65, 64
2, 7800, Note_on_c, 0, 60, 80
2, 7800, Note_on_c, 0, 77, 80
2, 7848, Note_off_c, 0, 60, 64
2, 7860, Note_on_c, 0, 65, 80
2, 7896, Note_off_c, 0, 77, 64
2, 7908, Note_off_c, 0, 65, 64
2, 7920, Note_on_c, 0, 58, 80
2, 8016, Note_off_c, 0, 58, 64
2, 8040, Note_on_c, 0, 65, 80
2, 8040, Note_on_c, 0, 74, 80
2, 8136, Note_off_c, 0, 74, 64
2, 8136, Note_off_c, 0, 65, 64
2, 8160, Note_on_c, 0, 46, 80
2, 8256, Note_off_c, 0, 46, 64
2, 8280, Note_on_c, 0, 58, 80
2, 8280, Note_on_c, 0, 67, 80
2, 8376, Note_off_c, 0, 67, 64
2, 8376, Note_off_c, 0, 58, 64
2, 8400, Note_on_c, 0, 48, 80
2, 8496, Note_off_c, 0, 48, 64
2, 8520, Note_on_c, 0, 55, 80
2, 8520, Note_on_c, 0, 64, 80
2, 8616, Note_off_c, 0, 64, 64
2, 8616, Note_off_c, 0, 55, 64
2, 8640, Note_on_c, 0, 53, 80
2, 8640, Note_on_c, 0, 57, 80
2, 8640, Note_on_c, 0, 41, 80
2, 8704, Note_off_c, 0, 57, 64
2, 8720, Note_on_c, 0, 65, 80
2, 8784, Note_off_c, 0, 65, 64
2, 8800, Note_on_c, 0, 60, 80
2, 8832, Note_off_c, 0, 41, 64
2, 8832, Note_off_c, 0, 53, 64
2, 8864, Note_off_c, 0, 60, 64
2, 8880, Note_on_c, 0, 69, 80
2, 8944, Note_off_c, 0, 69, 64
2, 8960, Note_on_c, 0, 65, 80
2, 9024, Note_off_c, 0, 65, 64
2, 9040, Note_on_c, 0, 60, 80
2, 9104, Note_off_c, 0, 60, 64
2, 9120, Note_on_c, 0, 36, 80
2, 9120, Note_on_c, 0, 48, 80
2, 9120, Note_on_c, 0, 58, 80
2, 9184, Note_off_c, 0, 58, 64
2, 9200, Note_on_c, 0, 67, 80
2, 9264, Note_off_c, 0, 67, 64
2, 9280, Note_on_c, 0, 64, 80
2, 9312, Note_off_c, 0, 48, 64
2, 9312, Note_off_c, 0, 36, 64
2, 9344, Note_off_c, 0, 64, 64
2, 9360, Note_on_c, 0, 41, 80
2, 9360, Note_on_c, 0, 65, 80
2, 9360, Note_on_c, 0, 29, 80
2, 9424, Note_off_c, 0, 65, 64
2, 9440, Note_on_c, 0, 57, 80
2, 9504, Note_off_c, 0, 57, 64
2, 9520, Note_on_c, 0, 60, 80
2, 9552, Note_off_c, 0, 29, 64
2, 9552, Note_off_c, 0, 41, 64
2, 9584, Note_off_c, 0, 60, 64
2, 9600, Note_on_c, 0, 67, 80
2, 9664, Note_off_c, 0, 67, 64
2, 9680, Note_on_c, 0, 60, 80
2, 9744, Note_off_c, 0, 60, 64
2, 9760, Note_on_c, 0, 64, 80
2, 9824, Note_off_c, 0, 64, 64
2, 9840, Note_on_c, 0, 69, 80
2, 9904, Note_off_c, 0, 69, 64
2, 9920, Note_on_c, 0, 60, 80
2, 9984, Note_off_c, 0, 60, 64
2, 10000, Note_on_c, 0, 65, 80
2, 10064, Note_off_c, 0, 65, 64
2, 10080, Note_on_c, 0, 48, 80
2, 10080, Note_on_c, 0, 60, 80
2, 10080, Note_on_c, 0, 36, 80
2, 10144, Note_off_c, 0, 60, 64
2, 10160, Note_on_c, 0, 67, 80
2, 10224, Note_off_c, 0, 67, 64
2, 10240, Note_on_c, 0, 64, 80
2, 10272, Note_off_c, 0, 36, 64
2, 10272, Note_off_c, 0, 48, 64
2, 10304, Note_off_c, 0, 64, 64
2, 10320, Note_on_c, 0, 70, 80
2, 10384, Note_off_c, 0, 70, 64
2, 10400, Note_on_c, 0, 67, 80
2, 10464, Note_off_c, 0, 67, 64
2, 10480, Note_on_c, 0, 64, 80
2, 10544, Note_off_c, 0, 64, 64
2, 10560, Note_on_c, 0, 41, 80
2, 10560, Note_on_c, 0, 53, 80
2, 10560, Note_on_c, 0, 60, 80
2, 10624, Note_off_c, 0, 60, 64
2, 10640, Note_on_c, 0, 69, 80
2, 10704, Note_off_c, 0, 69, 64
2, 10720, Note_on_c, 0, 65, 80
2, 10752, Note_off_c, 0, 53, 64
2, 10752, Note_off_c, 0, 41, 64
2, 10784, Note_off_c, 0, 65, 64
2, 10800, Note_on_c, 0, 48, 80
2, 10800, Note_on_c, 0, 60, 80
2, 10800, Note_on_c, 0, 67, 80
2, 10864, Note_off_c, 0, 67, 64
2, 10880, Note_on_c, 0, 60, 80
2, 10944, Note_off_c, 0, 60, 64
2, 10960, Note_on_c, 0, 64, 80
2, 10992, Note_off_c, 0, 60, 64
2, 10992, Note_off_c, 0, 48, 64
2, 11024, Note_off_c, 0, 64, 64
2, 11040, Note_on_c, 0, 69, 80
2, 11104, Note_off_c, 0, 69, 64
2, 11120, Note_on_c, 0, 60, 80
2, 11184, Note_off_c, 0, 60, 64
2, 11200, Note_on_c, 0, 65, 80
2, 11264, Note_off_c, 0, 65, 64
2, 11280, Note_on_c, 0, 70, 80
2, 11344, Note_off_c, 0, 70, 64
2, 11360, Note_on_c, 0, 60, 80
2, 11424, Note_off_c, 0, 60, 64
2, 11440, Note_on_c, 0, 67, 80
2, 11504, Note_off_c, 0, 67, 64
2, 11520, Note_on_c, 0, 53, 80
2, 11520, Note_on_c, 0, 69, 80
2, 11520, Note_on_c, 0, 41, 80
2, 11584, Note_off_c, 0, 69, 64
2, 11600, Note_on_c, 0, 72, 80
2, 11664, Note_off_c, 0, 72, 64
2, 11680, Note_on_c, 0, 77, 80
2, 11712, Note_off_c, 0, 41, 64
2, 11712, Note_off_c, 0, 53, 64
2, 11744, Note_off_c, 0, 77, 64
2, 11760, Note_on_c, 0, 81, 80
2, 11824, Note_off_c, 0, 81, 64
2, 11840, Note_on_c, 0, 77, 80
2, 11904, Note_off_c, 0, 77, 64
2, 11920, Note_on_c, 0, 74, 80
2, 11984, Note_off_c, 0, 74, 64
2, 12000, Note_on_c, 0, 72, 80
2, 12064, Note_off_c, 0, 72, 64
2, 12080, Note_on_c, 0, 77, 80
2, 12144, Note_off_c, 0, 77, 64
2, 12160, Note_on_c, 0, 81, 80
2, 12224, Note_off_c, 0, 81, 64
2, 12240, Note_on_c, 0, 53, 80
2, 12240, Note_on_c, 0, 65, 80
2, 12240, Note_on_c, 0, 80, 80
2, 12304, Note_off_c, 0, 80, 64
2, 12320, Note_on_c, 0, 74, 80
2, 12384, Note_off_c, 0, 74, 64
2, 12400, Note_on_c, 0, 71, 80
2, 12432, Note_off_c, 0, 65, 64
2, 12432, Note_off_c, 0, 53, 64
2, 12464, Note_off_c, 0, 71, 64
2, 12480, Note_on_c, 0, 64, 80
2, 12480, Note_on_c, 0, 52, 80
2, 12480, Note_on_c, 0, 72, 80
2, 12544, Note_off_c, 0, 72, 64
2, 12560, Note_on_c, 0, 76, 80
2, 12624, Note_off_c, 0, 76, 64
2, 12640, Note_on_c, 0, 79, 80
2, 12672, Note_off_c, 0, 52, 64
2, 12672, Note_off_c, 0, 64, 64
2, 12704, Note_off_c, 0, 79, 64
2, 12720, Note_on_c, 0, 75, 80
2, 12784, Note_off_c, 0, 75, 64
2, 12800, Note_on_c, 0, 72, 80
2, 12864, Note_off_c, 0, 72, 64
2, 12880, Note_on_c, 0, 70, 80
2, 12944, Note_off_c, 0, 70, 64
2, 12960, Note_on_c, 0, 69, 80
2, 12960, Note_on_c, 0, 51, 80
2, 12960, Note_on_c, 0, 63, 80
2, 13024, Note_off_c, 0, 69, 64
2, 13040, Note_on_c, 0, 72, 80
2, 13104, Note_off_c, 0, 72, 64
2, 13120, Note_on_c, 0, 78, 80
2, 13152, Note_off_c, 0, 63, 64
2, 13152, Note_off_c, 0, 51, 64
2, 13184, Note_off_c, 0, 78, 64
2, 13200, Note_on_c, 0, 50, 80
2, 13200, Note_on_c, 0, 77, 80
2, 13200, Note_on_c, 0, 62, 80
2, 13264, Note_off_c, 0, 77, 64
2, 13280, Note_on_c, 0, 74, 80
2, 13344, Note_off_c, 0, 74, 64
2, 13360, Note_on_c, 0, 70, 80
2, 13392, Note_off_c, 0, 62, 64
2, 13392, Note_off_c, 0, 50, 64
2, 13424, Note_off_c, 0, 70, 64
2, 13440, Note_on_c, 0, 69, 80
2, 13504, Note_off_c, 0, 69, 64
2, 13520, Note_on_c, 0, 74, 80
2, 13584, Note_off_c, 0, 74, 64
2, 13600, Note_on_c, 0, 77, 80
2, 13664, Note_off_c, 0, 77, 64
2, 13680, Note_on_c, 0, 77, 80
2, 13680, Note_on_c, 0, 50, 80
2, 13680, Note_on_c, 0, 62, 80
2, 13744, Note_off_c, 0, 77, 64
2, 13760, Note_on_c, 0, 71, 80
2, 13824, Note_off_c, 0, 71, 64
2, 13840, Note_on_c, 0, 68, 80
2, 13872, Note_off_c, 0, 62, 64
2, 13872, Note_off_c, 0, 50, 64
2, 13904, Note_off_c, 0, 68, 64
2, 13920, Note_on_c, 0, 49, 80
2, 13920, Note_on_c, 0, 69, 80
2, 13920, Note_on_c, 0, 61, 80
2, 13984, Note_off_c, 0, 69, 64
2, 14000, Note_on_c, 0, 73, 80
2, 14064, Note_off_c, 0, 73, 64
2, 14080, Note_on_c, 0, 76, 80
2, 14112, Note_off_c, 0, 61, 64
2, 14112, Note_off_c, 0, 49, 64
2, 14144, Note_off_c, 0, 76, 64
2, 14160, Note_on_c, 0, 72, 80
2, 14224, Note_off_c, 0, 72, 64
2, 14240, Note_on_c, 0, 69, 80
2, 14304, Note_off_c, 0, 69, 64
2, 14320, Note_on_c, 0, 67, 80
2, 14384, Note_off_c, 0, 67, 64
2, 14400, Note_on_c, 0, 66, 80
2, 14400, Note_on_c, 0, 48, 80
2, 14400, Note_on_c, 0, 60, 80
2, 14464, Note_off_c, 0, 66, 64
2, 14480, Note_on_c, 0, 69, 80
2, 14544, Note_off_c, 0, 69, 64
2, 14560, Note_on_c, 0, 75, 80
2, 14592, Note_off_c, 0, 60, 64
2, 14592, Note_off_c, 0, 48, 64
2, 14624, Note_off_c, 0, 75, 64
2, 14640, Note_on_c, 0, 47, 80
2, 14640, Note_on_c, 0, 74, 80
2, 14640, Note_on_c, 0, 59, 80
2, 14704, Note_off_c, 0, 74, 64
2, 14720, Note_on_c, 0, 71, 80
2, 14784, Note_off_c, 0, 71, 64
2, 14800, Note_on_c, 0, 67, 80
2, 14832, Note_off_c, 0, 59, 64
2, 14832, Note_off_c, 0, 47, 64
2, 14864, Note_off_c, 0, 67, 64
2, 14880, Note_on_c, 0, 65, 80
2, 14944, Note_off_c, 0, 65, 64
2, 14960, Note_on_c, 0, 70, 80
2, 15024, Note_off_c, 0, 70, 64
2, 15040, Note_on_c, 0, 74, 80
2, 15104, Note_off_c, 0, 74, 64
2, 15120, Note_on_c, 0, 73, 80
2, 15120, Note_on_c, 0, 46, 80
2, 15120, Note_on_c, 0, 58, 80
2, 15184, Note_off_c, 0, 73, 64
2, 15200, Note_on_c, 0, 67, 80
2, 15264, Note_off_c, 0, 67, 64
2, 15280, Note_on_c, 0, 64, 80
2, 15312, Note_off_c, 0, 58, 64
2, 15312, Note_off_c, 0, 46, 64
2, 15344, Note_off_c, 0, 64, 64
2, 15360, Note_on_c, 0, 57, 80
2, 15360, Note_on_c, 0, 45, 80
2, 15360, Note_on_c, 0, 65, 80
2, 15424, Note_off_c, 0, 65, 64
2, 15440, Note_on_c, 0, 69, 80
2, 15504, Note_off_c, 0, 69, 64
2, 15520, Note_on_c, 0, 72, 80
2, 15552, Note_off_c, 0, 45, 64
2, 15552, Note_off_c, 0, 57, 64
2, 15584, Note_off_c, 0, 72, 64
2, 15600, Note_on_c, 0, 77, 80
2, 15664, Note_off_c, 0, 77, 64
2, 15680, Note_on_c, 0, 72, 80
2, 15744, Note_off_c, 0, 72, 64
2, 15760, Note_on_c, 0, 69, 80
2, 15824, Note_off_c, 0, 69, 64
2, 15840, Note_on_c, 0, 58, 80
2, 15840, Note_on_c, 0, 67, 80
2, 15840, Note_on_c, 0, 46, 80
2, 15904, Note_off_c, 0, 67, 64
2, 15920, Note_on_c, 0, 70, 80
2, 15984, Note_off_c, 0, 70, 64
2, 16000, Note_on_c, 0, 69, 80
2, 16032, Note_off_c, 0, 46, 64
2, 16032, Note_off_c, 0, 58, 64
2, 16064, Note_off_c, 0, 69, 64
2, 16080, Note_on_c, 0, 70, 80
2, 16144, Note_off_c, 0, 70, 64
2, 16160, Note_on_c, 0, 74, 80
2, 16224, Note_off_c, 0, 74, 64
2, 16240, Note_on_c, 0, 73, 80
2, 16304, Note_off_c, 0, 73, 64
2, 16320, Note_on_c, 0, 74, 80
2, 16384, Note_off_c, 0, 74, 64
2, 16400, Note_on_c, 0, 79, 80
2, 16464, Note_off_c, 0, 79, 64
2, 16480, Note_on_c, 0, 78, 80
2, 16544, Note_off_c, 0, 78, 64
2, 16560, Note_on_c, 0, 79, 80
2, 16624, Note_off_c, 0, 79, 64
2, 16640, Note_on_c, 0, 82, 80
2, 16704, Note_off_c, 0, 82, 64
2, 16720, Note_on_c, 0, 81, 80
2, 16784, Note_off_c, 0, 81, 64
2, 16800, Note_on_c, 0, 82, 80
2, 16864, Note_off_c, 0, 82, 64
2, 16880, Note_on_c, 0, 86, 80
2, 16944, Note_off_c, 0, 86, 64
2, 16960, Note_on_c, 0, 85, 80
2, 17024, Note_off_c, 0, 85, 64
2, 17040, Note_on_c, 0, 86, 80
2, 17104, Note_off_c, 0, 86, 64
2, 17120, Note_on_c, 0, 82, 80
2, 17184, Note_off_c, 0, 82, 64
2, 17200, Note_on_c, 0, 81, 80
2, 17264, Note_off_c, 0, 81, 64
2, 17280, Note_on_c, 0, 82, 80
2, 17344, Note_off_c, 0, 82, 64
2, 17360, Note_on_c, 0, 79, 80
2, 17424, Note_off_c, 0, 79, 64
2, 17440, Note_on_c, 0, 78, 80
2, 17504, Note_off_c, 0, 78, 64
2, 17520, Note_on_c, 0, 79, 80
2, 17584, Note_off_c, 0, 79, 64
2, 17600, Note_on_c, 0, 74, 80
2, 17664, Note_off_c, 0, 74, 64
2, 17680, Note_on_c, 0, 73, 80
2, 17744, Note_off_c, 0, 73, 64
2, 17760, Note_on_c, 0, 46, 80
2, 17760, Note_on_c, 0, 58, 80
2, 17760, Note_on_c, 0, 74, 80
2, 17824, Note_off_c, 0, 74, 64
2, 17840, Note_on_c, 0, 70, 80
2, 17904, Note_off_c, 0, 70, 64
2, 17920, Note_on_c, 0, 67, 80
2, 17952, Note_off_c, 0, 58, 64
2, 17952, Note_off_c, 0, 46, 64
2, 17984, Note_off_c, 0, 67, 64
2, 18000, Note_on_c, 0, 57, 80
2, 18000, Note_on_c, 0, 48, 80
2, 18000, Note_on_c, 0, 65, 80
2, 18192, Note_off_c, 0, 65, 64
2, 18192, Note_off_c, 0, 48, 64
2, 18192, Note_off_c, 0, 57, 64
2, 18240, Note_on_c, 0, 55, 80
2, 18240, Note_on_c, 0, 64, 80
2, 18432, Note_off_c, 0, 64, 64
2, 18432, Note_off_c, 0, 55, 64
2, 18720, Note_on_c, 0, 48, 80
2, 18720, Note_on_c, 0, 36, 80
2, 18912, Note_off_c, 0, 36, 64
2, 18912, Note_off_c, 0, 48, 64
2, 18960, Note_on_c, 0, 40, 80
2, 18960, Note_on_c, 0, 52, 80
2, 19152, Note_off_c, 0, 52, 64
2, 19152, Note_off_c, 0, 40, 64
2, 19200, Note_on_c, 0, 43, 80
2, 19200, Note_on_c, 0, 55, 80
2, 19392, Note_off_c, 0, 55, 64
2, 19392, Note_off_c, 0, 43, 64
2, 19440, Note_on_c, 0, 79, 80
2, 19488, Note_off_c, 0, 79, 64
2, 19500, Note_on_c, 0, 81, 80
2, 19548, Note_off_c, 0, 81, 64
2, 19560, Note_on_c, 0, 79, 80
2, 19608, Note_off_c, 0, 79, 64
2, 19620, Note_on_c, 0, 76, 80
2, 19668, Note_off_c, 0, 76, 64
2, 19680, Note_on_c, 0, 79, 80
2, 19728, Note_off_c, 0, 79, 64
2, 19740, Note_on_c, 0, 81, 80
2, 19788, Note_off_c, 0, 81, 64
2, 19800, Note_on_c, 0, 79, 80
2, 19848, Note_off_c, 0, 79, 64
2, 19860, Note_on_c, 0, 76, 80
2, 19908, Note_off_c, 0, 76, 64
2, 19920, Note_on_c, 0, 77, 80
2, 19968, Note_off_c, 0, 77, 64
2, 19980, Note_on_c, 0, 79, 80
2, 20028, Note_off_c, 0, 79, 64
2, 20040, Note_on_c, 0, 77, 80
2, 20088, Note_off_c, 0, 77, 64
2, 20100, Note_on_c, 0, 74, 80
2, 20148, Note_off_c, 0, 74, 64
2, 20160, Note_on_c, 0, 76, 80
2, 20160, Note_on_c, 0, 67, 80
2, 20208, Note_off_c, 0, 67, 64
2, 20208, Note_off_c, 0, 76, 64
2, 20220, Note_on_c, 0, 69, 80
2, 20220, Note_on_c, 0, 77, 80
2, 20268, Note_off_c, 0, 77, 64
2, 20268, Note_off_c, 0, 69, 64
2, 20280, Note_on_c, 0, 67, 80
2, 20280, Note_on_c, 0, 76, 80
2, 20328, Note_off_c, 0, 76, 64
2, 20328, Note_off_c, 0, 67, 64
2, 20340, Note_on_c, 0, 72, 80
2, 20340, Note_on_c, 0, 64, 80
2, 20388, Note_off_c, 0, 64, 64
2, 20388, Note_off_c, 0, 72, 64
2, 20400, Note_on_c, 0, 76, 80
2, 20400, Note_on_c, 0, 67, 80
2, 20448, Note_off_c, 0, 67, 64
2, 20448, Note_off_c, 0, 76, 64
2, 20460, Note_on_c, 0, 77, 80
2, 20460, Note_on_c, 0, 69, 80
2, 20508, Note_off_c, 0, 69, 64
2, 20508, Note_off_c, 0, 77, 64
2, 20520, Note_on_c, 0, 67, 80
2, 20520, Note_on_c, 0, 76, 80
2, 20568, Note_off_c, 0, 76, 64
2, 20568, Note_off_c, 0, 67, 64
2, 20580, Note_on_c, 0, 72, 80
2, 20580, Note_on_c, 0, 64, 80
2, 20628, Note_off_c, 0, 64, 64
2, 20628, Note_off_c, 0, 72, 64
2, 20640, Note_on_c, 0, 65, 80
2, 20640, Note_on_c, 0, 74, 80
2, 20688, Note_off_c, 0, 74, 64
2, 20688, Note_off_c, 0, 65, 64
2, 20700, Note_on_c, 0, 67, 80
2, 20700, Note_on_c, 0, 76, 80
2, 20748, Note_off_c, 0, 76, 64
2, 20748, Note_off_c, 0, 67, 64
2, 20760, Note_on_c, 0, 65, 80
2, 20760, Note_on_c, 0, 74, 80
2, 20808, Note_off_c, 0, 74, 64
2, 20808, Note_off_c, 0, 65, 64
2, 20820, Note_on_c, 0, 62, 80
2, 20820, Note_on_c, 0, 71, 80
2, 20868, Note_off_c, 0, 71, 64
2, 20868, Note_off_c, 0, 62, 64
2, 20880, Note_on_c, 0, 72, 80
2, 20880, Note_on_c, 0, 64, 80
2, 20976, Note_off_c, 0, 64, 64
2, 21000, Note_on_c, 0, 55, 80
2, 21096, Note_off_c, 0, 55, 64
2, 21120, Note_on_c, 0, 60, 80
2, 21168, Note_off_c, 0, 72, 64
2, 21216, Note_off_c, 0, 60, 64
2, 21240, Note_on_c, 0, 55, 80
2, 21240, Note_on_c, 0, 74, 80
2, 21288, Note_off_c, 0, 74, 64
2, 21300, Note_on_c, 0, 76, 80
2, 21336, Note_off_c, 0, 55, 64
2, 21348, Note_off_c, 0, 76, 64
2, 21360, Note_on_c, 0, 59, 80
2, 21360, Note_on_c, 0, 74, 80
2, 21552, Note_off_c, 0, 74, 64
2, 21552, Note_off_c, 0, 59, 64
2, 21600, Note_on_c, 0, 31, 80
2, 21600, Note_on_c, 0, 43, 80
2, 21792, Note_off_c, 0, 43, 64
2, 21792, Note_off_c, 0, 31, 64
2, 21840, Note_on_c, 0, 35, 80
2, 21840, Note_on_c, 0, 47, 80
2, 22032, Note_off_c, 0, 47, 64
2, 22032, Note_off_c, 0, 35, 64
2, 22080, Note_on_c, 0, 38, 80
2, 22080, Note_on_c, 0, 50, 80
2, 22272, Note_off_c, 0, 50, 64
2, 22272, Note_off_c, 0, 38, 64
2, 22320, Note_on_c, 0, 77, 80
2, 22368, Note_off_c, 0, 77, 64
2, 22380, Note_on_c, 0, 79, 80
2, 22428, Note_off_c, 0, 79, 64
2, 22440, Note_on_c, 0, 77, 80
2, 22488, Note_off_c, 0, 77, 64
2, 22500, Note_on_c, 0, 74, 80
2, 22548, Note_off_c, 0, 74, 64
2, 22560, Note_on_c, 0, 77, 80
2, 22608, Note_off_c, 0, 77, 64
2, 22620, Note_on_c, 0, 79, 80
2, 22668, Note_off_c, 0, 79, 64
2, 22680, Note_on_c, 0, 77, 80
2, 22728, Note_off_c, 0, 77, 64
2, 22740, Note_on_c, 0, 74, 80
2, 22788, Note_off_c, 0, 74, 64
2, 22800, Note_on_c, 0, 76, 80
2, 22848, Note_off_c, 0, 76, 64
2, 22860, Note_on_c, 0, 77, 80
2, 22908, Note_off_c, 0, 77, 64
2, 22920, Note_on_c, 0, 76, 80
2, 22968, Note_off_c, 0, 76, 64
2, 22980, Note_on_c, 0, 72, 80
2, 23028, Note_off_c, 0, 72, 64
2, 23040, Note_on_c, 0, 74, 80
2, 23040, Note_on_c, 0, 65, 80
2, 23088, Note_off_c, 0, 65, 64
2, 23088, Note_off_c, 0, 74, 64
2, 23100, Note_on_c, 0, 67, 80
2, 23100, Note_on_c, 0, 76, 80
2, 23148, Note_off_c, 0, 76, 64
2, 23148, Note_off_c, 0, 67, 64
2, 23160, Note_on_c, 0, 65, 80
2, 23160, Note_on_c, 0, 74, 80
2, 23208, Note_off_c, 0, 74, 64
2, 23208, Note_off_c, 0, 65, 64
2, 23220, Note_on_c, 0, 71, 80
2, 23220, Note_on_c, 0, 62, 80
2, 23268, Note_off_c, 0, 62, 64
2, 23268, Note_off_c, 0, 71, 64
2, 23280, Note_on_c, 0, 74, 80
2, 23280, Note_on_c, 0, 65, 80
2, 23328, Note_off_c, 0, 65, 64
2, 23328, Note_off_c, 0, 74, 64
2, 23340, Note_on_c, 0, 76, 80
2, 23340, Note_on_c, 0, 67, 80
2, 23388, Note_off_c, 0, 67, 64
2, 23388, Note_off_c, 0, 76, 64
2, 23400, Note_on_c, 0, 65, 80
2, 23400, Note_on_c, 0, 74, 80
2, 23448, Note_off_c, 0, 74, 64
2, 23448, Note_off_c, 0, 65, 64
2, 23460, Note_on_c, 0, 71, 80
2, 23460, Note_on_c, 0, 62, 80
2, 23508, Note_off_c, 0, 62, 64
2, 23508, Note_off_c, 0, 71, 64
2, 23520, Note_on_c, 0, 64, 80
2, 23520, Note_on_c, 0, 72, 80
2, 23568, Note_off_c, 0, 72, 64
2, 23568, Note_off_c, 0, 64, 64
2, 23580, Note_on_c, 0, 65, 80
2, 23580, Note_on_c, 0, 71, 80
2, 23628, Note_off_c, 0, 71, 64
2, 23628, Note_off_c, 0, 65, 64
2, 23640, Note_on_c, 0, 64, 80
2, 23640, Note_on_c, 0, 72, 80
2, 23688, Note_off_c, 0, 72, 64
2, 23688, Note_off_c, 0, 64, 64
2, 23700, Note_on_c, 0, 60, 80
2, 23700, Note_on_c, 0, 76, 80
2, 23748, Note_off_c, 0, 76, 64
2, 23748, Note_off_c, 0, 60, 64
2, 23760, Note_on_c, 0, 74, 80
2, 23760, Note_on_c, 0, 65, 80
2, 23856, Note_off_c, 0, 65, 64
2, 23880, Note_on_c, 0, 62, 80
2, 23976, Note_off_c, 0, 62, 64
2, 24000, Note_on_c, 0, 59, 80
2, 24048, Note_off_c, 0, 74, 64
2, 24096, Note_off_c, 0, 59, 64
2, 24120, Note_on_c, 0, 55, 80
2, 24120, Note_on_c, 0, 76, 80
2, 24168, Note_off_c, 0, 76, 64
2, 24180, Note_on_c, 0, 77, 80
2, 24216, Note_off_c, 0, 55, 64
2, 24228, Note_off_c, 0, 77, 64
2, 24240, Note_on_c, 0, 60, 80
2, 24240, Note_on_c, 0, 76, 80
2, 24432, Note_off_c, 0, 76, 64
2, 24432, Note_off_c, 0, 60, 64
2, 24480, Note_on_c, 0, 40, 80
2, 24480, Note_on_c, 0, 52, 80
2, 24560, Note_on_c, 0, 79, 80
2, 24624, Note_off_c, 0, 79, 64
2, 24640, Note_on_c, 0, 77, 80
2, 24672, Note_off_c, 0, 52, 64
2, 24672, Note_off_c, 0, 40, 64
2, 24704, Note_off_c, 0, 77, 64
2, 24720, Note_on_c, 0, 76, 80
2, 24784, Note_off_c, 0, 76, 64
2, 24800, Note_on_c, 0, 79, 80
2, 24864, Note_off_c, 0, 79, 64
2, 24880, Note_on_c, 0, 74, 80
2, 24944, Note_off_c, 0, 74, 64
2, 24960, Note_on_c, 0, 72, 80
2, 25024, Note_off_c, 0, 72, 64
2, 25040, Note_on_c, 0, 79, 80
2, 25104, Note_off_c, 0, 79, 64
2, 25120, Note_on_c, 0, 70, 80
2, 25184, Note_off_c, 0, 70, 64
2, 25200, Note_on_c, 0, 41, 80
2, 25200, Note_on_c, 0, 53, 80
2, 25280, Note_on_c, 0, 70, 80
2, 25344, Note_off_c, 0, 70, 64
2, 25360, Note_on_c, 0, 68, 80
2, 25392, Note_off_c, 0, 53, 64
2, 25392, Note_off_c, 0, 41, 64
2, 25424, Note_off_c, 0, 68, 64
2, 25440, Note_on_c, 0, 69, 80
2, 25504, Note_off_c, 0, 69, 64
2, 25520, Note_on_c, 0, 74, 80
2, 25584, Note_off_c, 0, 74, 64
2, 25600, Note_on_c, 0, 73, 80
2, 25664, Note_off_c, 0, 73, 64
2, 25680, Note_on_c, 0, 76, 80
2, 25744, Note_off_c, 0, 76, 64
2, 25760, Note_on_c, 0, 74, 80
2, 25824, Note_off_c, 0, 74, 64
2, 25840, Note_on_c, 0, 77, 80
2, 25904, Note_off_c, 0, 77, 64
2, 25920, Note_on_c, 0, 42, 80
2, 25920, Note_on_c, 0, 54, 80
2, 26000, Note_on_c, 0, 81, 80
2, 26064, Note_off_c, 0, 81, 64
2, 26080, Note_on_c, 0, 79, 80
2, 26112, Note_off_c, 0, 54, 64
2, 26112, Note_off_c, 0, 42, 64
2, 26144, Note_off_c, 0, 79, 64
2, 26160, Note_on_c, 0, 78, 80
2, 26224, Note_off_c, 0, 78, 64
2, 26240, Note_on_c, 0, 81, 80
2, 26304, Note_off_c, 0, 81, 64
2, 26320, Note_on_c, 0, 76, 80
2, 26384, Note_off_c, 0, 76, 64
2, 26400, Note_on_c, 0, 74, 80
2, 26464, Note_off_c, 0, 74, 64
2, 26480, Note_on_c, 0, 81, 80
2, 26544, Note_off_c, 0, 81, 64
2, 26560, Note_on_c, 0, 72, 80
2, 26624, Note_off_c, 0, 72, 64
2, 26640, Note_on_c, 0, 43, 80
2, 26640, Note_on_c, 0, 55, 80
2, 26720, Note_on_c, 0, 72, 80
2, 26784, Note_off_c, 0, 72, 64
2, 26800, Note_on_c, 0, 70, 80
2, 26832, Note_off_c, 0, 55, 64
2, 26832, Note_off_c, 0, 43, 64
2, 26864, Note_off_c, 0, 70, 64
2, 26880, Note_on_c, 0, 71, 80
2, 26944, Note_off_c, 0, 71, 64
2, 26960, Note_on_c, 0, 76, 80
2, 27024, Note_off_c, 0, 76, 64
2, 27040, Note_on_c, 0, 75, 80
2, 27104, Note_off_c, 0, 75, 64
2, 27120, Note_on_c, 0, 78, 80
2, 27184, Note_off_c, 0, 78, 64
2, 27200, Note_on_c, 0, 76, 80
2, 27264, Note_off_c, 0, 76, 64
2, 27280, Note_on_c, 0, 79, 80
2, 27344, Note_off_c, 0, 79, 64
2, 27360, Note_on_c, 0, 44, 80
2, 27360, Note_on_c, 0, 56, 80
2, 27440, Note_on_c, 0, 83, 80
2, 27504, Note_off_c, 0, 83, 64
2, 27520, Note_on_c, 0, 81, 80
2, 27552, Note_off_c, 0, 56, 64
2, 27552, Note_off_c, 0, 44, 64
2, 27584, Note_off_c, 0, 81, 64
2, 27600, Note_on_c, 0, 80, 80
2, 27664, Note_off_c, 0, 80, 64
2, 27680, Note_on_c, 0, 83, 80
2, 27744, Note_off_c, 0, 83, 64
2, 27760, Note_on_c, 0, 77, 80
2, 27824, Note_off_c, 0, 77, 64
2, 27840, Note_on_c, 0, 76, 80
2, 27904, Note_off_c, 0, 76, 64
2, 27920, Note_on_c, 0, 83, 80
2, 27984, Note_off_c, 0, 83, 64
2, 28000, Note_on_c, 0, 74, 80
2, 28064, Note_off_c, 0, 74, 64
2, 28080, Note_on_c, 0, 45, 80
2, 28080, Note_on_c, 0, 57, 80
2, 28160, Note_on_c, 0, 71, 80
2, 28224, Note_off_c, 0, 71, 64
2, 28240, Note_on_c, 0, 72, 80
2, 28272, Note_off_c, 0, 57, 64
2, 28272, Note_off_c, 0, 45, 64
2, 28304, Note_off_c, 0, 72, 64
2, 28320, Note_on_c, 0, 77, 80
2, 28400, Note_on_c, 0, 68, 80
2, 28464, Note_off_c, 0, 68, 64
2, 28480, Note_on_c, 0, 69, 80
2, 28512, Note_off_c, 0, 77, 64
2, 28544, Note_off_c, 0, 69, 64
2, 28560, Note_on_c, 0, 76, 80
2, 28640, Note_on_c, 0, 66, 80
2, 28704, Note_off_c, 0, 66, 64
2, 28720, Note_on_c, 0, 67, 80
2, 28752, Note_off_c, 0, 76, 64
2, 28784, Note_off_c, 0, 67, 64
2, 28800, Note_on_c, 0, 65, 80
2, 28880, Note_on_c, 0, 73, 80
2, 28944, Note_off_c, 0, 73, 64
2, 28960, Note_on_c, 0, 74, 80
2, 28992, Note_off_c, 0, 65, 64
2, 29024, Note_off_c, 0, 74, 64
2, 29040, Note_on_c, 0, 81, 80
2, 29120, Note_on_c, 0, 64, 80
2, 29184, Note_off_c, 0, 64, 64
2, 29200, Note_on_c, 0, 65, 80
2, 29232, Note_off_c, 0, 81, 64
2, 29264, Note_off_c, 0, 65, 64
2, 29280, Note_on_c, 0, 79, 80
2, 29360, Note_on_c, 0, 63, 80
2, 29424, Note_off_c, 0, 63, 64
2, 29440, Note_on_c, 0, 64, 80
2, 29472, Note_off_c, 0, 79, 64
2, 29504, Note_off_c, 0, 64, 64
2, 29520, Note_on_c, 0, 74, 80
2, 29520, Note_on_c, 0, 79, 80
2, 29520, Note_on_c, 0, 77, 80
2, 29520, Note_on_c, 0, 62, 80
2, 29535, Note_off_c, 0, 79, 64
2, 29616, Note_off_c, 0, 77, 64
2, 29640, Note_on_c, 0, 76, 80
2, 29688, Note_off_c, 0, 76, 64
2, 29700, Note_on_c, 0, 74, 80
2, 29712, Note_off_c, 0, 62, 64
2, 29712, Note_off_c, 0, 74, 64
2, 29748, Note_off_c, 0, 74, 64
2, 29760, Note_on_c, 0, 72, 80
2, 29760, Note_on_c, 0, 64, 80
2, 29760, Note_on_c, 0, 55, 80
2, 29952, Note_off_c, 0, 55, 64
2, 29952, Note_off_c, 0, 64, 64
2, 29952, Note_off_c, 0, 72, 64
2, 30000, Note_on_c, 0, 65, 80
2, 30000, Note_on_c, 0, 71, 80
2, 30024, Note_off_c, 0, 71, 64
2, 30030, Note_on_c, 0, 72, 80
2, 30054, Note_off_c, 0, 72, 64
2, 30060, Note_on_c, 0, 71, 80
2, 30084, Note_off_c, 0, 71, 64
2, 30090, Note_on_c, 0, 72, 80
2, 30114, Note_off_c, 0, 72, 64
2, 30120, Note_on_c, 0, 71, 80
2, 30144, Note_off_c, 0, 71, 64
2, 30150, Note_on_c, 0, 72, 80
2, 30174, Note_off_c, 0, 72, 64
2, 30180, Note_on_c, 0, 69, 80
2, 30192, Note_off_c, 0, 65, 64
2, 30204, Note_off_c, 0, 69, 64
2, 30210, Note_on_c, 0, 71, 80
2, 30234, Note_off_c, 0, 71, 64
2, 30240, Note_on_c, 0, 48, 80
2, 30240, Note_on_c, 0, 72, 80
2, 30288, Note_off_c, 0, 48, 64
2, 30300, Note_on_c, 0, 52, 80
2, 30348, Note_off_c, 0, 52, 64
2, 30360, Note_on_c, 0, 55, 80
2, 30408, Note_off_c, 0, 55, 64
2, 30420, Note_on_c, 0, 60, 80
2, 30432, Note_off_c, 0, 72, 64
2, 30468, Note_off_c, 0, 60, 64
2, 30480, Note_on_c, 0, 64, 80
2, 30540, Note_on_c, 0, 71, 80
2, 30576, Note_off_c, 0, 64, 64
2, 30588, Note_off_c, 0, 71, 64
2, 30600, Note_on_c, 0, 72, 80
2, 30648, Note_off_c, 0, 72, 64
2, 30660, Note_on_c, 0, 74, 80
2, 30705, Note_on_c, 0, 77, 80
2, 30708, Note_off_c, 0, 74, 64
2, 30720, Note_off_c, 0, 77, 64
2, 30720, Note_on_c, 0, 76, 80
2, 30816, Note_off_c, 0, 76, 64
2, 30840, Note_on_c, 0, 74, 80
2, 30888, Note_off_c, 0, 74, 64
2, 30900, Note_on_c, 0, 72, 80
2, 30948, Note_off_c, 0, 72, 64
2, 30960, Note_on_c, 0, 50, 80
2, 30960, Note_on_c, 0, 71, 80
2, 31008, Note_off_c, 0, 50, 64
2, 31020, Note_on_c, 0, 53, 80
2, 31068, Note_off_c, 0, 53, 64
2, 31080, Note_on_c, 0, 59, 80
2, 31128, Note_off_c, 0, 59, 64
2, 31140, Note_on_c, 0, 62, 80
2, 31152, Note_off_c, 0, 71, 64
2, 31188, Note_off_c, 0, 62, 64
2, 31200, Note_on_c, 0, 65, 80
2, 31260, Note_on_c, 0, 73, 80
2, 31296, Note_off_c, 0, 65, 64
2, 31308, Note_off_c, 0, 73, 64
2, 31320, Note_on_c, 0, 74, 80
2, 31368, Note_off_c, 0, 74, 64
2, 31380, Note_on_c, 0, 76, 80
2, 31425, Note_on_c, 0, 79, 80
2, 31428, Note_off_c, 0, 76, 64
2, 31440, Note_off_c, 0, 79, 64
2, 31440, Note_on_c, 0, 77, 80
2, 31536, Note_off_c, 0, 77, 64
2, 31560, Note_on_c, 0, 76, 80
2, 31608, Note_off_c, 0, 76, 64
2, 31620, Note_on_c, 0, 74, 80
2, 31668, Note_off_c, 0, 74, 64
2, 31680, Note_on_c, 0, 52, 80
2, 31680, Note_on_c, 0, 72, 80
2, 31728, Note_off_c, 0, 52, 64
2, 31740, Note_on_c, 0, 55, 80
2, 31788, Note_off_c, 0, 55, 64
2, 31800, Note_on_c, 0, 60, 80
2, 31848, Note_off_c, 0, 60, 64
2, 31860, Note_on_c, 0, 64, 80
2, 31872, Note_off_c, 0, 72, 64
2, 31908, Note_off_c, 0, 64, 64
2, 31920, Note_on_c, 0, 67, 80
2, 31980, Note_on_c, 0, 75, 80
2, 32016, Note_off_c, 0, 67, 64
2, 32028, Note_off_c, 0, 75, 64
2, 32040, Note_on_c, 0, 76, 80
2, 32088, Note_off_c, 0, 76, 64
2, 32100, Note_on_c, 0, 77, 80
2, 32145, Note_on_c, 0, 81, 80
2, 32148, Note_off_c, 0, 77, 64
2, 32160, Note_off_c, 0, 81, 64
2, 32160, Note_on_c, 0, 79, 80
2, 32273, Note_off_c, 0, 79, 64
2, 32280, Note_on_c, 0, 77, 80
2, 32328, Note_off_c, 0, 77, 64
2, 32340, Note_on_c, 0, 76, 80
2, 32388, Note_off_c, 0, 76, 64
2, 32400, Note_on_c, 0, 69, 80
2, 32400, Note_on_c, 0, 73, 80
2, 32400, Note_on_c, 0, 65, 80
2, 32448, Note_off_c, 0, 73, 64
2, 32460, Note_on_c, 0, 74, 80
2, 32508, Note_off_c, 0, 74, 64
2, 32520, Note_on_c, 0, 77, 80
2, 32568, Note_off_c, 0, 77, 64
2, 32580, Note_on_c, 0, 76, 80
2, 32592, Note_off_c, 0, 65, 64
2, 32592, Note_off_c, 0, 69, 64
2, 32628, Note_off_c, 0, 76, 64
2, 32640, Note_on_c, 0, 69, 80
2, 32640, Note_on_c, 0, 65, 80
2, 32640, Note_on_c, 0, 73, 80
2, 32688, Note_off_c, 0, 73, 64
2, 32700, Note_on_c, 0, 74, 80
2, 32748, Note_off_c, 0, 74, 64
2, 32760, Note_on_c, 0, 77, 80
2, 32808, Note_off_c, 0, 77, 64
2, 32820, Note_on_c, 0, 76, 80
2, 32832, Note_off_c, 0, 65, 64
2, 32832, Note_off_c, 0, 69, 64
2, 32865, Note_on_c, 0, 79, 80
2, 32868, Note_off_c, 0, 76, 64
2, 32880, Note_off_c, 0, 79, 64
2, 32880, Note_on_c, 0, 65, 80
2, 32880, Note_on_c, 0, 69, 80
2, 32880, Note_on_c, 0, 77, 80
2, 32976, Note_off_c, 0, 77, 64
2, 33000, Note_on_c, 0, 76, 80
2, 33048, Note_off_c, 0, 76, 64
2, 33060, Note_on_c, 0, 74, 80
2, 33072, Note_off_c, 0, 69, 64
2, 33072, Note_off_c, 0, 65, 64
2, 33108, Note_off_c, 0, 74, 64
2, 33120, Note_on_c, 0, 65, 80
2, 33120, Note_on_c, 0, 81, 80
2, 33120, Note_on_c, 0, 69, 80
2, 33120, Note_on_c, 0, 72, 80
2, 33168, Note_off_c, 0, 81, 64
2, 33180, Note_on_c, 0, 77, 80
2, 33228, Note_off_c, 0, 77, 64
2, 33240, Note_on_c, 0, 76, 80
2, 33288, Note_off_c, 0, 76, 64
2, 33300, Note_on_c, 0, 74, 80
2, 33312, Note_off_c, 0, 72, 64
2, 33312, Note_off_c, 0, 69, 64
2, 33312, Note_off_c, 0, 65, 64
2, 33337, Note_on_c, 0, 72, 80
2, 33337, Note_on_c, 0, 74, 80
2, 33345, Note_off_c, 0, 74, 64
2, 33345, Note_off_c, 0, 72, 64
2, 33345, Note_on_c, 0, 76, 80
2, 33348, Note_off_c, 0, 74, 64
2, 33353, Note_off_c, 0, 76, 64
2, 33360, Note_on_c, 0, 72, 80
2, 33360, Note_on_c, 0, 67, 80
2, 33375, Note_on_c, 0, 74, 80
2, 33399, Note_off_c, 0, 74, 64
2, 33405, Note_on_c, 0, 76, 80
2, 33429, Note_off_c, 0, 76, 64
2, 33435, Note_on_c, 0, 74, 80
2, 33459, Note_off_c, 0, 74, 64
2, 33465, Note_on_c, 0, 76, 80
2, 33489, Note_off_c, 0, 76, 64
2, 33495, Note_on_c, 0, 74, 80
2, 33519, Note_off_c, 0, 74, 64
2, 33525, Note_on_c, 0, 76, 80
2, 33549, Note_off_c, 0, 76, 64
2, 33552, Note_off_c, 0, 67, 64
2, 33552, Note_off_c, 0, 72, 64
2, 33555, Note_on_c, 0, 74, 80
2, 33579, Note_off_c, 0, 74, 64
2, 33585, Note_on_c, 0, 76, 80
2, 33600, Note_on_c, 0, 71, 80
2, 33609, Note_off_c, 0, 76, 64
2, 33615, Note_on_c, 0, 74, 80
2, 33639, Note_off_c, 0, 74, 64
2, 33645, Note_on_c, 0, 76, 80
2, 33669, Note_off_c, 0, 76, 64
2, 33675, Note_on_c, 0, 74, 80
2, 33699, Note_off_c, 0, 74, 64
2, 33705, Note_on_c, 0, 76, 80
2, 33729, Note_off_c, 0, 76, 64
2, 33735, Note_on_c, 0, 74, 80
2, 33759, Note_off_c, 0, 74, 64
2, 33765, Note_on_c, 0, 76, 80
2, 33789, Note_off_c, 0, 76, 64
2, 33792, Note_off_c, 0, 71, 64
2, 33795, Note_on_c, 0, 74, 80
2, 33819, Note_off_c, 0, 74, 64
2, 33825, Note_on_c, 0, 76, 80
2, 33840, Note_on_c, 0, 67, 80
2, 33840, Note_on_c, 0, 72, 80
2, 33840, Note_on_c, 0, 36, 80
2, 33840, Note_on_c, 0, 64, 80
2, 33849, Note_off_c, 0, 76, 64
2, 33888, Note_off_c, 0, 36, 64
2, 33900, Note_on_c, 0, 40, 80
2, 33948, Note_off_c, 0, 40, 64
2, 33960, Note_on_c, 0, 43, 80
2, 34008, Note_off_c, 0, 43, 64
2, 34020, Note_on_c, 0, 48, 80
2, 34032, Note_off_c, 0, 64, 64
2, 34032, Note_off_c, 0, 72, 64
2, 34032, Note_off_c, 0, 67, 64
2, 34068, Note_off_c, 0, 48, 64
2, 34080, Note_on_c, 0, 52, 80
2, 34140, Note_on_c, 0, 59, 80
2, 34176, Note_off_c, 0, 52, 64
2, 34188, Note_off_c, 0, 59, 64
2, 34200, Note_on_c, 0, 60, 80
2, 34248, Note_off_c, 0, 60, 64
2, 34260, Note_on_c, 0, 62, 80
2, 34305, Note_on_c, 0, 65, 80
2, 34308, Note_off_c, 0, 62, 64
2, 34320, Note_off_c, 0, 65, 64
2, 34320, Note_on_c, 0, 64, 80
2, 34416, Note_off_c, 0, 64, 64
2, 34440, Note_on_c, 0, 62, 80
2, 34488, Note_off_c, 0, 62, 64
2, 34500, Note_on_c, 0, 60, 80
2, 34548, Note_off_c, 0, 60, 64
2, 34560, Note_on_c, 0, 38, 80
2, 34560, Note_on_c, 0, 59, 80
2, 34608, Note_off_c, 0, 38, 64
2, 34620, Note_on_c, 0, 41, 80
2, 34668, Note_off_c, 0, 41, 64
2, 34680, Note_on_c, 0, 47, 80
2, 34728, Note_off_c, 0, 47, 64
2, 34740, Note_on_c, 0, 50, 80
2, 34752, Note_off_c, 0, 59, 64
2, 34788, Note_off_c, 0, 50, 64
2, 34800, Note_on_c, 0, 53, 80
2, 34860, Note_on_c, 0, 61, 80
2, 34896, Note_off_c, 0, 53, 64
2, 34908, Note_off_c, 0, 61, 64
2, 34920, Note_on_c, 0, 62, 80
2, 34968, Note_off_c, 0, 62, 64
2, 34980, Note_on_c, 0, 64, 80
2, 35025, Note_on_c, 0, 67, 80
2, 35028, Note_off_c, 0, 64, 64
2, 35040, Note_off_c, 0, 67, 64
2, 35040, Note_on_c, 0, 65, 80
2, 35136, Note_off_c, 0, 65, 64
2, 35160, Note_on_c, 0, 64, 80
2, 35208, Note_off_c, 0, 64, 64
2, 35220, Note_on_c, 0, 62, 80
2, 35268, Note_off_c, 0, 62, 64
2, 35280, Note_on_c, 0, 40, 80
2, 35280, Note_on_c, 0, 60, 80
2, 35328, Note_off_c, 0, 40, 64
2, 35340, Note_on_c, 0, 43, 80
2, 35388, Note_off_c, 0, 43, 64
2, 35400, Note_on_c, 0, 48, 80
2, 35448, Note_off_c, 0, 48, 64
2, 35460, Note_on_c, 0, 52, 80
2, 35472, Note_off_c, 0, 60, 64
2, 35508, Note_off_c, 0, 52, 64
2, 35520, Note_on_c, 0, 55, 80
2, 35580, Note_on_c, 0, 63, 80
2, 35616, Note_off_c, 0, 55, 64
2, 35628, Note_off_c, 0, 63, 64
2, 35640, Note_on_c, 0, 64, 80
2, 35688, Note_off_c, 0, 64, 64
2, 35700, Note_on_c, 0, 65, 80
2, 35745, Note_on_c, 0, 69, 80
2, 35748, Note_off_c, 0, 65, 64
2, 35760, Note_off_c, 0, 69, 64
2, 35760, Note_on_c, 0, 67, 80
2, 35856, Note_off_c, 0, 67, 64
2, 35880, Note_on_c, 0, 65, 80
2, 35928, Note_off_c, 0, 65, 64
2, 35940, Note_on_c, 0, 64, 80
2, 35988, Note_off_c, 0, 64, 64
2, 36000, Note_on_c, 0, 41, 80
2, 36000, Note_on_c, 0, 62, 80
2, 36048, Note_off_c, 0, 41, 64
2, 36060, Note_on_c, 0, 45, 80
2, 36108, Note_off_c, 0, 45, 64
2, 36120, Note_on_c, 0, 50, 80
2, 36168, Note_off_c, 0, 50, 64
2, 36180, Note_on_c, 0, 53, 80
2, 36192, Note_off_c, 0, 62, 64
2, 36228, Note_off_c, 0, 53, 64
2, 36240, Note_on_c, 0, 57, 80
2, 36300, Note_on_c, 0, 62, 80
2, 36336, Note_off_c, 0, 57, 64
2, 36348, Note_off_c, 0, 62, 64
2, 36360, Note_on_c, 0, 65, 80
2, 36408, Note_off_c, 0, 65, 64
2, 36420, Note_on_c, 0, 69, 80
2, 36468, Note_off_c, 0, 69, 64
2, 36480, Note_on_c, 0, 74, 80
2, 36540, Note_on_c, 0, 53, 80
2, 36576, Note_off_c, 0, 74, 64
2, 36588, Note_off_c, 0, 53, 64
2, 36600, Note_on_c, 0, 57, 80
2, 36648, Note_off_c, 0, 57, 64
2, 36660, Note_on_c, 0, 62, 80
2, 36708, Note_off_c, 0, 62, 64
2, 36720, Note_on_c, 0, 65, 80
2, 36780, Note_on_c, 0, 69, 80
2, 36816, Note_off_c, 0, 65, 64
2, 36828, Note_off_c, 0, 69, 64
2, 36840, Note_on_c, 0, 74, 80
2, 36888, Note_off_c, 0, 74, 64
2, 36900, Note_on_c, 0, 77, 80
2, 36948, Note_off_c, 0, 77, 64
2, 36960, Note_on_c, 0, 81, 80
2, 37020, Note_on_c, 0, 65, 80
2, 37056, Note_off_c, 0, 81, 64
2, 37068, Note_off_c, 0, 65, 64
2, 37080, Note_on_c, 0, 69, 80
2, 37128, Note_off_c, 0, 69, 64
2, 37140, Note_on_c, 0, 74, 80
2, 37188, Note_off_c, 0, 74, 64
2, 37200, Note_on_c, 0, 77, 80
2, 37260, Note_on_c, 0, 83, 80
2, 37296, Note_off_c, 0, 77, 64
2, 37308, Note_off_c, 0, 83, 64
2, 37320, Note_on_c, 0, 84, 80
2, 37368, Note_off_c, 0, 84, 64
2, 37380, Note_on_c, 0, 80, 80
2, 37428, Note_off_c, 0, 80, 64
2, 37440, Note_on_c, 0, 81, 80
2, 37488, Note_off_c, 0, 81, 64
2, 37500, Note_on_c, 0, 76, 80
2, 37548, Note_off_c, 0, 76, 64
2, 37560, Note_on_c, 0, 77, 80
2, 37608, Note_off_c, 0, 77, 64
2, 37620, Note_on_c, 0, 74, 80
2, 37657, Note_on_c, 0, 74, 80
2, 37657, Note_on_c, 0, 72, 80
2, 37665, Note_off_c, 0, 72, 64
2, 37665, Note_off_c, 0, 74, 64
2, 37665, Note_on_c, 0, 76, 80
2, 37668, Note_off_c, 0, 74, 64
2, 37673, Note_off_c, 0, 76, 64
2, 37680, Note_on_c, 0, 55, 80
2, 37680, Note_on_c, 0, 60, 80
2, 37695, Note_on_c, 0, 74, 80
2, 37719, Note_off_c, 0, 74, 64
2, 37725, Note_on_c, 0, 76, 80
2, 37749, Note_off_c, 0, 76, 64
2, 37755, Note_on_c, 0, 74, 80
2, 37779, Note_off_c, 0, 74, 64
2, 37785, Note_on_c, 0, 76, 80
2, 37809, Note_off_c, 0, 76, 64
2, 37815, Note_on_c, 0, 74, 80
2, 37839, Note_off_c, 0, 74, 64
2, 37845, Note_on_c, 0, 76, 80
2, 37869, Note_off_c, 0, 76, 64
2, 37872, Note_off_c, 0, 60, 64
2, 37872, Note_off_c, 0, 55, 64
2, 37875, Note_on_c, 0, 74, 80
2, 37899, Note_off_c, 0, 74, 64
2, 37905, Note_on_c, 0, 76, 80
2, 37920, Note_on_c, 0, 59, 80
2, 37929, Note_off_c, 0, 76, 64
2, 37935, Note_on_c, 0, 74, 80
2, 37959, Note_off_c, 0, 74, 64
2, 37965, Note_on_c, 0, 76, 80
2, 37989, Note_off_c, 0, 76, 64
2, 37995, Note_on_c, 0, 74, 80
2, 38019, Note_off_c, 0, 74, 64
2, 38025, Note_on_c, 0, 76, 80
2, 38049, Note_off_c, 0, 76, 64
2, 38055, Note_on_c, 0, 74, 80
2, 38079, Note_off_c, 0, 74, 64
2, 38085, Note_on_c, 0, 76, 80
2, 38109, Note_off_c, 0, 76, 64
2, 38112, Note_off_c, 0, 59, 64
2, 38115, Note_on_c, 0, 74, 80
2, 38139, Note_off_c, 0, 74, 64
2, 38145, Note_on_c, 0, 76, 80
2, 38160, Note_on_c, 0, 60, 80
2, 38160, Note_on_c, 0, 72, 80
2, 38169, Note_off_c, 0, 76, 64
2, 38208, Note_off_c, 0, 60, 64
2, 38220, Note_on_c, 0, 67, 80
2, 38256, Note_off_c, 0, 72, 64
2, 38268, Note_off_c, 0, 67, 64
2, 38280, Note_on_c, 0, 64, 80
2, 38280, Note_on_c, 0, 76, 80
2, 38328, Note_off_c, 0, 64, 64
2, 38340, Note_on_c, 0, 67, 80
2, 38376, Note_off_c, 0, 76, 64
2, 38388, Note_off_c, 0, 67, 64
2, 38400, Note_on_c, 0, 79, 80
2, 38400, Note_on_c, 0, 60, 80
2, 38448, Note_off_c, 0, 60, 64
2, 38460, Note_on_c, 0, 67, 80
2, 38508, Note_off_c, 0, 67, 64
2, 38520, Note_on_c, 0, 64, 80
2, 38568, Note_off_c, 0, 64, 64
2, 38580, Note_on_c, 0, 67, 80
2, 38592, Note_off_c, 0, 79, 64
2, 38628, Note_off_c, 0, 67, 64
2, 38640, Note_on_c, 0, 55, 80
2, 38640, Note_on_c, 0, 83, 80
2, 38664, Note_off_c, 0, 83, 64
2, 38670, Note_on_c, 0, 84, 80
2, 38688, Note_off_c, 0, 55, 64
2, 38694, Note_off_c, 0, 84, 64
2, 38700, Note_on_c, 0, 65, 80
2, 38700, Note_on_c, 0, 83, 80
2, 38724, Note_off_c, 0, 83, 64
2, 38730, Note_on_c, 0, 84, 80
2, 38748, Note_off_c, 0, 65, 64
2, 38754, Note_off_c, 0, 84, 64
2, 38760, Note_on_c, 0, 62, 80
2, 38760, Note_on_c, 0, 83, 80
2, 38784, Note_off_c, 0, 83, 64
2, 38790, Note_on_c, 0, 84, 80
2, 38808, Note_off_c, 0, 62, 64
2, 38814, Note_off_c, 0, 84, 64
2, 38820, Note_on_c, 0, 65, 80
2, 38820, Note_on_c, 0, 81, 80
2, 38844, Note_off_c, 0, 81, 64
2, 38850, Note_on_c, 0, 83, 80
2, 38868, Note_off_c, 0, 65, 64
2, 38874, Note_off_c, 0, 83, 64
2, 38880, Note_on_c, 0, 84, 80
2, 38880, Note_on_c, 0, 60, 80
2, 38928, Note_off_c, 0, 60, 64
2, 38940, Note_on_c, 0, 67, 80
2, 38976, Note_off_c, 0, 84, 64
2, 38988, Note_off_c, 0, 67, 64
2, 39000, Note_on_c, 0, 76, 80
2, 39000, Note_on_c, 0, 64, 80
2, 39048, Note_off_c, 0, 64, 64
2, 39060, Note_on_c, 0, 67, 80
2, 39096, Note_off_c, 0, 76, 64
2, 39108, Note_off_c, 0, 67, 64
2, 39120, Note_on_c, 0, 79, 80
2, 39120, Note_on_c, 0, 60, 80
2, 39168, Note_off_c, 0, 60, 64
2, 39180, Note_on_c, 0, 67, 80
2, 39228, Note_off_c, 0, 67, 64
2, 39240, Note_on_c, 0, 64, 80
2, 39288, Note_off_c, 0, 64, 64
2, 39300, Note_on_c, 0, 67, 80
2, 39312, Note_off_c, 0, 79, 64
2, 39348, Note_off_c, 0, 67, 64
2, 39360, Note_on_c, 0, 55, 80
2, 39360, Note_on_c, 0, 83, 80
2, 39384, Note_off_c, 0, 83, 64
2, 39390, Note_on_c, 0, 84, 80
2, 39408, Note_off_c, 0, 55, 64
2, 39414, Note_off_c, 0, 84, 64
2, 39420, Note_on_c, 0, 65, 80
2, 39420, Note_on_c, 0, 83, 80
2, 39444, Note_off_c, 0, 83, 64
2, 39450, Note_on_c, 0, 84, 80
2, 39468, Note_off_c, 0, 65, 64
2, 39474, Note_off_c, 0, 84, 64
2, 39480, Note_on_c, 0, 62, 80
2, 39480, Note_on_c, 0, 83, 80
2, 39504, Note_off_c, 0, 83, 64
2, 39510, Note_on_c, 0, 84, 80
2, 39528, Note_off_c, 0, 62, 64
2, 39534, Note_off_c, 0, 84, 64
2, 39540, Note_on_c, 0, 65, 80
2, 39540, Note_on_c, 0, 81, 80
2, 39564, Note_off_c, 0, 81, 64
2, 39570, Note_on_c, 0, 83, 80
2, 39588, Note_off_c, 0, 65, 64
2, 39594, Note_off_c, 0, 83, 64
2, 39600, Note_on_c, 0, 84, 80
2, 39600, Note_on_c, 0, 60, 80
2, 39600, Note_on_c, 0, 64, 80
2, 39792, Note_off_c, 0, 64, 64
2, 39792, Note_off_c, 0, 60, 64
2, 39792, Note_off_c, 0, 84, 64
2, 39840, Note_on_c, 0, 48, 80
2, 39840, Note_on_c, 0, 52, 80
2, 39840, Note_on_c, 0, 55, 80
2, 39840, Note_on_c, 0, 72, 80
2, 39840, Note_on_c, 0, 67, 80
2, 39840, Note_on_c, 0, 64, 80
2, 40032, Note_off_c, 0, 64, 64
2, 40032, Note_off_c, 0, 67, 64
2, 40032, Note_off_c, 0, 72, 64
2, 40032, Note_off_c, 0, 55, 64
2, 40032, Note_off_c, 0, 52, 64
2, 40032, Note_off_c, 0, 48, 64
2, 40320, Note_on_c, 0, 41, 80
2, 40320, Note_on_c, 0, 53, 80
2, 40320, Note_on_c, 0, 72, 80
2, 40320, Note_on_c, 0, 69, 80
2, 40320, Note_on_c, 0, 65, 80
2, 40320, Note_on_c, 0, 60, 80
2, 40512, Note_off_c, 0, 60, 64
2, 40512, Note_off_c, 0, 65, 64
2, 40512, Note_off_c, 0, 69, 64
2, 40512, Note_off_c, 0, 72, 64
2, 40512, Note_off_c, 0, 53, 64
2, 40512, Note_off_c, 0, 41, 64
2, 40560, Note_on_c, 0, 48, 80
2, 40560, Note_on_c, 0, 72, 80
2, 40560, Note_on_c, 0, 69, 80
2, 40752, Note_off_c, 0, 69, 64
2, 40752, Note_off_c, 0, 72, 64
2, 40752, Note_off_c, 0, 48, 64
2, 40800, Note_on_c, 0, 45, 80
2, 40800, Note_on_c, 0, 72, 80
2, 40800, Note_on_c, 0, 69, 80
2, 40992, Note_off_c, 0, 69, 64
2, 40992, Note_off_c, 0, 72, 64
2, 40992, Note_off_c, 0, 45, 64
2, 41040, Note_on_c, 0, 72, 80
2, 41040, Note_on_c, 0, 69, 80
2, 41040, Note_on_c, 0, 41, 80
2, 41232, Note_off_c, 0, 41, 64
2, 41280, Note_on_c, 0, 29, 80
2, 41328, Note_off_c, 0, 69, 64
2, 41328, Note_off_c, 0, 72, 64
2, 41400, Note_on_c, 0, 74, 80
2, 41448, Note_off_c, 0, 74, 64
2, 41460, Note_on_c, 0, 72, 80
2, 41472, Note_off_c, 0, 29, 64
2, 41508, Note_off_c, 0, 72, 64
2, 41520, Note_on_c, 0, 71, 80
2, 41544, Note_off_c, 0, 71, 64
2, 41550, Note_on_c, 0, 72, 80
2, 41574, Note_off_c, 0, 72, 64
2, 41580, Note_on_c, 0, 69, 80
2, 41628, Note_off_c, 0, 69, 64
2, 41640, Note_on_c, 0, 67, 80
2, 41688, Note_off_c, 0, 67, 64
2, 41700, Note_on_c, 0, 65, 80
2, 41748, Note_off_c, 0, 65, 64
2, 41760, Note_on_c, 0, 53, 80
2, 41760, Note_on_c, 0, 77, 80
2, 41760, Note_on_c, 0, 57, 80
2, 41856, Note_off_c, 0, 57, 64
2, 41856, Note_off_c, 0, 53, 64
2, 41880, Note_on_c, 0, 57, 80
2, 41880, Note_on_c, 0, 53, 80
2, 41952, Note_off_c, 0, 77, 64
2, 41976, Note_off_c, 0, 53, 64
2, 41976, Note_off_c, 0, 57, 64
2, 42000, Note_on_c, 0, 53, 80
2, 42000, Note_on_c, 0, 58, 80
2, 42000, Note_on_c, 0, 55, 80
2, 42000, Note_on_c, 0, 76, 80
2, 42096, Note_off_c, 0, 55, 64
2, 42096, Note_off_c, 0, 58, 64
2, 42096, Note_off_c, 0, 53, 64
2, 42120, Note_on_c, 0, 53, 80
2, 42120, Note_on_c, 0, 55, 80
2, 42120, Note_on_c, 0, 58, 80
2, 42192, Note_off_c, 0, 76, 64
2, 42216, Note_off_c, 0, 58, 64
2, 42216, Note_off_c, 0, 55, 64
2, 42216, Note_off_c, 0, 53, 64
2, 42240, Note_on_c, 0, 53, 80
2, 42240, Note_on_c, 0, 57, 80
2, 42240, Note_on_c, 0, 60, 80
2, 42240, Note_on_c, 0, 75, 80
2, 42336, Note_off_c, 0, 60, 64
2, 42336, Note_off_c, 0, 57, 64
2, 42336, Note_off_c, 0, 53, 64
2, 42360, Note_on_c, 0, 53, 80
2, 42360, Note_on_c, 0, 57, 80
2, 42360, Note_on_c, 0, 60, 80
2, 42432, Note_off_c, 0, 75, 64
2, 42456, Note_off_c, 0, 60, 64
2, 42456, Note_off_c, 0, 57, 64
2, 42456, Note_off_c, 0, 53, 64
2, 42480, Note_on_c, 0, 58, 80
2, 42480, Note_on_c, 0, 53, 80
2, 42480, Note_on_c, 0, 62, 80
2, 42480, Note_on_c, 0, 74, 80
2, 42576, Note_off_c, 0, 62, 64
2, 42576, Note_off_c, 0, 53, 64
2, 42576, Note_off_c, 0, 58, 64
2, 42600, Note_on_c, 0, 62, 80
2, 42600, Note_on_c, 0, 58, 80
2, 42600, Note_on_c, 0, 53, 80
2, 42672, Note_off_c, 0, 74, 64
2, 42696, Note_off_c, 0, 53, 64
2, 42696, Note_off_c, 0, 58, 64
2, 42696, Note_off_c, 0, 62, 64
2, 42720, Note_on_c, 0, 53, 80
2, 42720, Note_on_c, 0, 58, 80
2, 42720, Note_on_c, 0, 62, 80
2, 42816, Note_off_c, 0, 62, 64
2, 42816, Note_off_c, 0, 58, 64
2, 42816, Note_off_c, 0, 53, 64
2, 42840, Note_on_c, 0, 53, 80
2, 42840, Note_on_c, 0, 58, 80
2, 42840, Note_on_c, 0, 62, 80
2, 42936, Note_off_c, 0, 62, 64
2, 42936, Note_off_c, 0, 58, 64
2, 42936, Note_off_c, 0, 53, 64
2, 42960, Note_on_c, 0, 53, 80
2, 42960, Note_on_c, 0, 58, 80
2, 42960, Note_on_c, 0, 62, 80
2, 43056, Note_off_c, 0, 62, 64
2, 43056, Note_off_c, 0, 58, 64
2, 43056, Note_off_c, 0, 53, 64
2, 43080, Note_on_c, 0, 53, 80
2, 43080, Note_on_c, 0, 58, 80
2, 43080, Note_on_c, 0, 62, 80
2, 43176, Note_off_c, 0, 62, 64
2, 43176, Note_off_c, 0, 58, 64
2, 43176, Note_off_c, 0, 53, 64
2, 43200, Note_on_c, 0, 55, 80
2, 43200, Note_on_c, 0, 53, 80
2, 43200, Note_on_c, 0, 64, 80
2, 43200, Note_on_c, 0, 72, 80
2, 43296, Note_off_c, 0, 72, 64
2, 43296, Note_off_c, 0, 64, 64
2, 43296, Note_off_c, 0, 53, 64
2, 43296, Note_off_c, 0, 55, 64
2, 43320, Note_on_c, 0, 70, 80
2, 43320, Note_on_c, 0, 64, 80
2, 43320, Note_on_c, 0, 53, 80
2, 43320, Note_on_c, 0, 55, 80
2, 43416, Note_off_c, 0, 55, 64
2, 43416, Note_off_c, 0, 53, 64
2, 43416, Note_off_c, 0, 64, 64
2, 43416, Note_off_c, 0, 70, 64
2, 43440, Note_on_c, 0, 53, 80
2, 43440, Note_on_c, 0, 55, 80
2, 43440, Note_on_c, 0, 70, 80
2, 43440, Note_on_c, 0, 64, 80
2, 43536, Note_off_c, 0, 64, 64
2, 43536, Note_off_c, 0, 55, 64
2, 43536, Note_off_c, 0, 53, 64
2, 43560, Note_on_c, 0, 53, 80
2, 43560, Note_on_c, 0, 55, 80
2, 43560, Note_on_c, 0, 64, 80
2, 43632, Note_off_c, 0, 70, 64
2, 43656, Note_off_c, 0, 64, 64
2, 43656, Note_off_c, 0, 55, 64
2, 43656, Note_off_c, 0, 53, 64
2, 43680, Note_on_c, 0, 53, 80
2, 43680, Note_on_c, 0, 55, 80
2, 43680, Note_on_c, 0, 64, 80
2, 43776, Note_off_c, 0, 64, 64
2, 43776, Note_off_c, 0, 55, 64
2, 43776, Note_off_c, 0, 53, 64
2, 43800, Note_on_c, 0, 53, 80
2, 43800, Note_on_c, 0, 55, 80
2, 43800, Note_on_c, 0, 64, 80
2, 43896, Note_off_c, 0, 64, 64
2, 43896, Note_off_c, 0, 55, 64
2, 43896, Note_off_c, 0, 53, 64
2, 43920, Note_on_c, 0, 57, 80
2, 43920, Note_on_c, 0, 53, 80
2, 43920, Note_on_c, 0, 65, 80
2, 43920, Note_on_c, 0, 74, 80
2, 44016, Note_off_c, 0, 74, 64
2, 44016, Note_off_c, 0, 65, 64
2, 44016, Note_off_c, 0, 53, 64
2, 44016, Note_off_c, 0, 57, 64
2, 44040, Note_on_c, 0, 72, 80
2, 44040, Note_on_c, 0, 65, 80
2, 44040, Note_on_c, 0, 53, 80
2, 44040, Note_on_c, 0, 57, 80
2, 44136, Note_off_c, 0, 57, 64
2, 44136, Note_off_c, 0, 53, 64
2, 44136, Note_off_c, 0, 65, 64
2, 44136, Note_off_c, 0, 72, 64
2, 44160, Note_on_c, 0, 53, 80
2, 44160, Note_on_c, 0, 57, 80
2, 44160, Note_on_c, 0, 72, 80
2, 44160, Note_on_c, 0, 65, 80
2, 44256, Note_off_c, 0, 65, 64
2, 44256, Note_off_c, 0, 57, 64
2, 44256, Note_off_c, 0, 53, 64
2, 44280, Note_on_c, 0, 53, 80
2, 44280, Note_on_c, 0, 57, 80
2, 44280, Note_on_c, 0, 65, 80
2, 44352, Note_off_c, 0, 72, 64
2, 44376, Note_off_c, 0, 65, 64
2, 44376, Note_off_c, 0, 57, 64
2, 44376, Note_off_c, 0, 53, 64
2, 44400, Note_on_c, 0, 53, 80
2, 44400, Note_on_c, 0, 57, 80
2, 44400, Note_on_c, 0, 65, 80
2, 44496, Note_off_c, 0, 65, 64
2, 44496, Note_off_c, 0, 57, 64
2, 44496, Note_off_c, 0, 53, 64
2, 44520, Note_on_c, 0, 53, 80
2, 44520, Note_on_c, 0, 57, 80
2, 44520, Note_on_c, 0, 65, 80
2, 44616, Note_off_c, 0, 65, 64
2, 44616, Note_off_c, 0, 57, 64
2, 44616, Note_off_c, 0, 53, 64
2, 44640, Note_on_c, 0, 55, 80
2, 44640, Note_on_c, 0, 82, 80
2, 44640, Note_on_c, 0, 52, 80
2, 44640, Note_on_c, 0, 60, 80
2, 44688, Note_off_c, 0, 82, 64
2, 44700, Note_on_c, 0, 81, 80
2, 44748, Note_off_c, 0, 81, 64
2, 44760, Note_on_c, 0, 79, 80
2, 44808, Note_off_c, 0, 79, 64
2, 44820, Note_on_c, 0, 81, 80
2, 44832, Note_off_c, 0, 60, 64
2, 44832, Note_off_c, 0, 52, 64
2, 44832, Note_off_c, 0, 55, 64
2, 44868, Note_off_c, 0, 81, 64
2, 44880, Note_on_c, 0, 79, 80
2, 44928, Note_off_c, 0, 79, 64
2, 44940, Note_on_c, 0, 77, 80
2, 44988, Note_off_c, 0, 77, 64
2, 45000, Note_on_c, 0, 76, 80
2, 45048, Note_off_c, 0, 76, 64
2, 45060, Note_on_c, 0, 77, 80
2, 45108, Note_off_c, 0, 77, 64
2, 45120, Note_on_c, 0, 76, 80
2, 45168, Note_off_c, 0, 76, 64
2, 45180, Note_on_c, 0, 74, 80
2, 45228, Note_off_c, 0, 74, 64
2, 45240, Note_on_c, 0, 72, 80
2, 45288, Note_off_c, 0, 72, 64
2, 45300, Note_on_c, 0, 70, 80
2, 45348, Note_off_c, 0, 70, 64
2, 45360, Note_on_c, 0, 69, 80
2, 45360, Note_on_c, 0, 53, 80
2, 45408, Note_off_c, 0, 53, 64
2, 45420, Note_on_c, 0, 60, 80
2, 45456, Note_off_c, 0, 69, 64
2, 45468, Note_off_c, 0, 60, 64
2, 45480, Note_on_c, 0, 77, 80
2, 45480, Note_on_c, 0, 57, 80
2, 45528, Note_off_c, 0, 57, 64
2, 45540, Note_on_c, 0, 60, 80
2, 45588, Note_off_c, 0, 60, 64
2, 45600, Note_on_c, 0, 55, 80
2, 45648, Note_off_c, 0, 55, 64
2, 45660, Note_on_c, 0, 60, 80
2, 45672, Note_off_c, 0, 77, 64
2, 45708, Note_off_c, 0, 60, 64
2, 45720, Note_on_c, 0, 76, 80
2, 45720, Note_on_c, 0, 58, 80
2, 45768, Note_off_c, 0, 58, 64
2, 45780, Note_on_c, 0, 60, 80
2, 45828, Note_off_c, 0, 60, 64
2, 45840, Note_on_c, 0, 57, 80
2, 45888, Note_off_c, 0, 57, 64
2, 45900, Note_on_c, 0, 60, 80
2, 45912, Note_off_c, 0, 76, 64
2, 45948, Note_off_c, 0, 60, 64
2, 45960, Note_on_c, 0, 57, 80
2, 45960, Note_on_c, 0, 77, 80
2, 46008, Note_off_c, 0, 57, 64
2, 46020, Note_on_c, 0, 60, 80
2, 46056, Note_off_c, 0, 77, 64
2, 46068, Note_off_c, 0, 60, 64
2, 46080, Note_on_c, 0, 58, 80
2, 46176, Note_off_c, 0, 58, 64
2, 46200, Note_on_c, 0, 65, 80
2, 46200, Note_on_c, 0, 74, 80
2, 46296, Note_off_c, 0, 74, 64
2, 46296, Note_off_c, 0, 65, 64
2, 46320, Note_on_c, 0, 46, 80
2, 46416, Note_off_c, 0, 46, 64
2, 46440, Note_on_c, 0, 58, 80
2, 46440, Note_on_c, 0, 67, 80
2, 46536, Note_off_c, 0, 67, 64
2, 46536, Note_off_c, 0, 58, 64
2, 46560, Note_on_c, 0, 48, 80
2, 46656, Note_off_c, 0, 48, 64
2, 46680, Note_on_c, 0, 55, 80
2, 46680, Note_on_c, 0, 64, 80
2, 46776, Note_off_c, 0, 64, 64
2, 46776, Note_off_c, 0, 55, 64
2, 46800, Note_on_c, 0, 55, 80
2, 46800, Note_on_c, 0, 82, 80
2, 46800, Note_on_c, 0, 52, 80
2, 46800, Note_on_c, 0, 60, 80
2, 46848, Note_off_c, 0, 82, 64
2, 46860, Note_on_c, 0, 81, 80
2, 46908, Note_off_c, 0, 81, 64
2, 46920, Note_on_c, 0, 79, 80
2, 46968, Note_off_c, 0, 79, 64
2, 46980, Note_on_c, 0, 81, 80
2, 46992, Note_off_c, 0, 60, 64
2, 46992, Note_off_c, 0, 52, 64
2, 46992, Note_off_c, 0, 55, 64
2, 47028, Note_off_c, 0, 81, 64
2, 47040, Note_on_c, 0, 79, 80
2, 47088, Note_off_c, 0, 79, 64
2, 47100, Note_on_c, 0, 77, 80
2, 47148, Note_off_c, 0, 77, 64
2, 47160, Note_on_c, 0, 76, 80
2, 47208, Note_off_c, 0, 76, 64
2, 47220, Note_on_c, 0, 77, 80
2, 47268, Note_off_c, 0, 77, 64
2, 47280, Note_on_c, 0, 76, 80
2, 47328, Note_off_c, 0, 76, 64
2, 47340, Note_on_c, 0, 74, 80
2, 47388, Note_off_c, 0, 74, 64
2, 47400, Note_on_c, 0, 72, 80
2, 47448, Note_off_c, 0, 72, 64
2, 47460, Note_on_c, 0, 70, 80
2, 47508, Note_off_c, 0, 70, 64
2, 47520, Note_on_c, 0, 69, 80
2, 47520, Note_on_c, 0, 53, 80
2, 47568, Note_off_c, 0, 53, 64
2, 47580, Note_on_c, 0, 60, 80
2, 47616, Note_off_c, 0, 69, 64
2, 47628, Note_off_c, 0, 60, 64
2, 47640, Note_on_c, 0, 81, 80
2, 47640, Note_on_c, 0, 57, 80
2, 47688, Note_off_c, 0, 57, 64
2, 47700, Note_on_c, 0, 60, 80
2, 47748, Note_off_c, 0, 60, 64
2, 47760, Note_on_c, 0, 55, 80
2, 47808, Note_off_c, 0, 55, 64
2, 47820, Note_on_c, 0, 64, 80
2, 47832, Note_off_c, 0, 81, 64
2, 47868, Note_off_c, 0, 64, 64
2, 47880, Note_on_c, 0, 79, 80
2, 47880, Note_on_c, 0, 58, 80
2, 47928, Note_off_c, 0, 58, 64
2, 47940, Note_on_c, 0, 64, 80
2, 47988, Note_off_c, 0, 64, 64
2, 48000, Note_on_c, 0, 57, 80
2, 48048, Note_off_c, 0, 57, 64
2, 48060, Note_on_c, 0, 65, 80
2, 48072, Note_off_c, 0, 79, 64
2, 48108, Note_off_c, 0, 65, 64
2, 48120, Note_on_c, 0, 60, 80
2, 48120, Note_on_c, 0, 77, 80
2, 48168, Note_off_c, 0, 60, 64
2, 48180, Note_on_c, 0, 65, 80
2, 48216, Note_off_c, 0, 77, 64
2, 48228, Note_off_c, 0, 65, 64
2, 48240, Note_on_c, 0, 58, 80
2, 48336, Note_off_c, 0, 58, 64
2, 48360, Note_on_c, 0, 65, 80
2, 48360, Note_on_c, 0, 74, 80
2, 48456, Note_off_c, 0, 74, 64
2, 48456, Note_off_c, 0, 65, 64
2, 48480, Note_on_c, 0, 46, 80
2, 48576, Note_off_c, 0, 46, 64
2, 48600, Note_on_c, 0, 58, 80
2, 48600, Note_on_c, 0, 67, 80
2, 48696, Note_off_c, 0, 67, 64
2, 48696, Note_off_c, 0, 58, 64
2, 48720, Note_on_c, 0, 48, 80
2, 48816, Note_off_c, 0, 48, 64
2, 48840, Note_on_c, 0, 55, 80
2, 48840, Note_on_c, 0, 64, 80
2, 48936, Note_off_c, 0, 64, 64
2, 48936, Note_off_c, 0, 55, 64
2, 48960, Note_on_c, 0, 53, 80
2, 48960, Note_on_c, 0, 57, 80
2, 48960, Note_on_c, 0, 41, 80
2, 49024, Note_off_c, 0, 57, 64
2, 49040, Note_on_c, 0, 65, 80
2, 49104, Note_off_c, 0, 65, 64
2, 49120, Note_on_c, 0, 60, 80
2, 49152, Note_off_c, 0, 41, 64
2, 49152, Note_off_c, 0, 53, 64
2, 49184, Note_off_c, 0, 60, 64
2, 49200, Note_on_c, 0, 69, 80
2, 49264, Note_off_c, 0, 69, 64
2, 49280, Note_on_c, 0, 65, 80
2, 49344, Note_off_c, 0, 65, 64
2, 49360, Note_on_c, 0, 60, 80
2, 49424, Note_off_c, 0, 60, 64
2, 49440, Note_on_c, 0, 36, 80
2, 49440, Note_on_c, 0, 48, 80
2, 49440, Note_on_c, 0, 58, 80
2, 49504, Note_off_c, 0, 58, 64
2, 49520, Note_on_c, 0, 67, 80
2, 49584, Note_off_c, 0, 67, 64
2, 49600, Note_on_c, 0, 64, 80
2, 49632, Note_off_c, 0, 48, 64
2, 49632, Note_off_c, 0, 36, 64
2, 49664, Note_off_c, 0, 64, 64
2, 49680, Note_on_c, 0, 41, 80
2, 49680, Note_on_c, 0, 65, 80
2, 49680, Note_on_c, 0, 29, 80
2, 49744, Note_off_c, 0, 65, 64
2, 49760, Note_on_c, 0, 57, 80
2, 49824, Note_off_c, 0, 57, 64
2, 49840, Note_on_c, 0, 60, 80
2, 49872, Note_off_c, 0, 29, 64
2, 49872, Note_off_c, 0, 41, 64
2, 49904, Note_off_c, 0, 60, 64
2, 49920, Note_on_c, 0, 67, 80
2, 49984, Note_off_c, 0, 67, 64
2, 50000, Note_on_c, 0, 60, 80
2, 50064, Note_off_c, 0, 60, 64
2, 50080, Note_on_c, 0, 64, 80
2, 50144, Note_off_c, 0, 64, 64
2, 50160, Note_on_c, 0, 69, 80
2, 50224, Note_off_c, 0, 69, 64
2, 50240, Note_on_c, 0, 60, 80
2, 50304, Note_off_c, 0, 60, 64
2, 50320, Note_on_c, 0, 65, 80
2, 50384, Note_off_c, 0, 65, 64
2, 50400, Note_on_c, 0, 48, 80
2, 50400, Note_on_c, 0, 60, 80
2, 50400, Note_on_c, 0, 36, 80
2, 50464, Note_off_c, 0, 60, 64
2, 50480, Note_on_c, 0, 67, 80
2, 50544, Note_off_c, 0, 67, 64
2, 50560, Note_on_c, 0, 64, 80
2, 50592, Note_off_c, 0, 36, 64
2, 50592, Note_off_c, 0, 48, 64
2, 50624, Note_off_c, 0, 64, 64
2, 50640, Note_on_c, 0, 70, 80
2, 50704, Note_off_c, 0, 70, 64
2, 50720, Note_on_c, 0, 67, 80
2, 50784, Note_off_c, 0, 67, 64
2, 50800, Note_on_c, 0, 64, 80
2, 50864, Note_off_c, 0, 64, 64
2, 50880, Note_on_c, 0, 41, 80
2, 50880, Note_on_c, 0, 53, 80
2, 50880, Note_on_c, 0, 60, 80
2, 50944, Note_off_c, 0, 60, 64
2, 50960, Note_on_c, 0, 69, 80
2, 51024, Note_off_c, 0, 69, 64
2, 51040, Note_on_c, 0, 65, 80
2, 51072, Note_off_c, 0, 53, 64
2, 51072, Note_off_c, 0, 41, 64
2, 51104, Note_off_c, 0, 65, 64
2, 51120, Note_on_c, 0, 48, 80
2, 51120, Note_on_c, 0, 60, 80
2, 51120, Note_on_c, 0, 67, 80
2, 51184, Note_off_c, 0, 67, 64
2, 51200, Note_on_c, 0, 60, 80
2, 51264, Note_off_c, 0, 60, 64
2, 51280, Note_on_c, 0, 64, 80
2, 51312, Note_off_c, 0, 60, 64
2, 51312, Note_off_c, 0, 48, 64
2, 51344, Note_off_c, 0, 64, 64
2, 51360, Note_on_c, 0, 69, 80
2, 51424, Note_off_c, 0, 69, 64
2, 51440, Note_on_c, 0, 60, 80
2, 51504, Note_off_c, 0, 60, 64
2, 51520, Note_on_c, 0, 65, 80
2, 51584, Note_off_c, 0, 65, 64
2, 51600, Note_on_c, 0, 70, 80
2, 51664, Note_off_c, 0, 70, 64
2, 51680, Note_on_c, 0, 60, 80
2, 51744, Note_off_c, 0, 60, 64
2, 51760, Note_on_c, 0, 67, 80
2, 51824, Note_off_c, 0, 67, 64
2, 51840, Note_on_c, 0, 53, 80
2, 51840, Note_on_c, 0, 69, 80
2, 51840, Note_on_c, 0, 41, 80
2, 51904, Note_off_c, 0, 69, 64
2, 51920, Note_on_c, 0, 72, 80
2, 51984, Note_off_c, 0, 72, 64
2, 52000, Note_on_c, 0, 77, 80
2, 52032, Note_off_c, 0, 41, 64
2, 52032, Note_off_c, 0, 53, 64
2, 52064, Note_off_c, 0, 77, 64
2, 52080, Note_on_c, 0, 81, 80
2, 52144, Note_off_c, 0, 81, 64
2, 52160, Note_on_c, 0, 77, 80
2, 52224, Note_off_c, 0, 77, 64
2, 52240, Note_on_c, 0, 74, 80
2, 52304, Note_off_c, 0, 74, 64
2, 52320, Note_on_c, 0, 72, 80
2, 52384, Note_off_c, 0, 72, 64
2, 52400, Note_on_c, 0, 77, 80
2, 52464, Note_off_c, 0, 77, 64
2, 52480, Note_on_c, 0, 81, 80
2, 52544, Note_off_c, 0, 81, 64
2, 52560, Note_on_c, 0, 53, 80
2, 52560, Note_on_c, 0, 65, 80
2, 52560, Note_on_c, 0, 80, 80
2, 52624, Note_off_c, 0, 80, 64
2, 52640, Note_on_c, 0, 74, 80
2, 52704, Note_off_c, 0, 74, 64
2, 52720, Note_on_c, 0, 71, 80
2, 52752, Note_off_c, 0, 65, 64
2, 52752, Note_off_c, 0, 53, 64
2, 52784, Note_off_c, 0, 71, 64
2, 52800, Note_on_c, 0, 64, 80
2, 52800, Note_on_c, 0, 52, 80
2, 52800, Note_on_c, 0, 72, 80
2, 52864, Note_off_c, 0, 72, 64
2, 52880, Note_on_c, 0, 76, 80
2, 52944, Note_off_c, 0, 76, 64
2, 52960, Note_on_c, 0, 79, 80
2, 52992, Note_off_c, 0, 52, 64
2, 52992, Note_off_c, 0, 64, 64
2, 53024, Note_off_c, 0, 79, 64
2, 53040, Note_on_c, 0, 75, 80
2, 53104, Note_off_c, 0, 75, 64
2, 53120, Note_on_c, 0, 72, 80
2, 53184, Note_off_c, 0, 72, 64
2, 53200, Note_on_c, 0, 70, 80
2, 53264, Note_off_c, 0, 70, 64
2, 53280, Note_on_c, 0, 69, 80
2, 53280, Note_on_c, 0, 51, 80
2, 53280, Note_on_c, 0, 63, 80
2, 53344, Note_off_c, 0, 69, 64
2, 53360, Note_on_c, 0, 72, 80
2, 53424, Note_off_c, 0, 72, 64
2, 53440, Note_on_c, 0, 78, 80
2, 53472, Note_off_c, 0, 63, 64
2, 53472, Note_off_c, 0, 51, 64
2, 53504, Note_off_c, 0, 78, 64
2, 53520, Note_on_c, 0, 50, 80
2, 53520, Note_on_c, 0, 77, 80
2, 53520, Note_on_c, 0, 62, 80
2, 53584, Note_off_c, 0, 77, 64
2, 53600, Note_on_c, 0, 74, 80
2, 53664, Note_off_c, 0, 74, 64
2, 53680, Note_on_c, 0, 70, 80
2, 53712, Note_off_c, 0, 62, 64
2, 53712, Note_off_c, 0, 50, 64
2, 53744, Note_off_c, 0, 70, 64
2, 53760, Note_on_c, 0, 69, 80
2, 53824, Note_off_c, 0, 69, 64
2, 53840, Note_on_c, 0, 74, 80
2, 53904, Note_off_c, 0, 74, 64
2, 53920, Note_on_c, 0, 77, 80
2, 53984, Note_off_c, 0, 77, 64
2, 54000, Note_on_c, 0, 77, 80
2, 54000, Note_on_c, 0, 50, 80
2, 54000, Note_on_c, 0, 62, 80
2, 54064, Note_off_c, 0, 77, 64
2, 54080, Note_on_c, 0, 71, 80
2, 54144, Note_off_c, 0, 71, 64
2, 54160, Note_on_c, 0, 68, 80
2, 54192, Note_off_c, 0, 62, 64
2, 54192, Note_off_c, 0, 50, 64
2, 54224, Note_off_c, 0, 68, 64
2, 54240, Note_on_c, 0, 49, 80
2, 54240, Note_on_c, 0, 69, 80
2, 54240, Note_on_c, 0, 61, 80
2, 54304, Note_off_c, 0, 69, 64
2, 54320, Note_on_c, 0, 73, 80
2, 54384, Note_off_c, 0, 73, 64
2, 54400, Note_on_c, 0, 76, 80
2, 54432, Note_off_c, 0, 61, 64
2, 54432, Note_off_c, 0, 49, 64
2, 54464, Note_off_c, 0, 76, 64
2, 54480, Note_on_c, 0, 72, 80
2, 54544, Note_off_c, 0, 72, 64
2, 54560, Note_on_c, 0, 69, 80
2, 54624, Note_off_c, 0, 69, 64
2, 54640, Note_on_c, 0, 67, 80
2, 54704, Note_off_c, 0, 67, 64
2, 54720, Note_on_c, 0, 66, 80
2, 54720, Note_on_c, 0, 48, 80
2, 54720, Note_on_c, 0, 60, 80
2, 54784, Note_off_c, 0, 66, 64
2, 54800, Note_on_c, 0, 69, 80
2, 54864, Note_off_c, 0, 69, 64
2, 54880, Note_on_c, 0, 75, 80
2, 54912, Note_off_c, 0, 60, 64
2, 54912, Note_off_c, 0, 48, 64
2, 54944, Note_off_c, 0, 75, 64
2, 54960, Note_on_c, 0, 47, 80
2, 54960, Note_on_c, 0, 74, 80
2, 54960, Note_on_c, 0, 59, 80
2, 55024, Note_off_c, 0, 74, 64
2, 55040, Note_on_c, 0, 71, 80
2, 55104, Note_off_c, 0, 71, 64
2, 55120, Note_on_c, 0, 67, 80
2, 55152, Note_off_c, 0, 59, 64
2, 55152, Note_off_c, 0, 47, 64
2, 55184, Note_off_c, 0, 67, 64
2, 55200, Note_on_c, 0, 65, 80
2, 55264, Note_off_c, 0, 65, 64
2, 55280, Note_on_c, 0, 70, 80
2, 55344, Note_off_c, 0, 70, 64
2, 55360, Note_on_c, 0, 74, 80
2, 55424, Note_off_c, 0, 74, 64
2, 55440, Note_on_c, 0, 73, 80
2, 55440, Note_on_c, 0, 46, 80
2, 55440, Note_on_c, 0, 58, 80
2, 55504, Note_off_c, 0, 73, 64
2, 55520, Note_on_c, 0, 67, 80
2, 55584, Note_off_c, 0, 67, 64
2, 55600, Note_on_c, 0, 64, 80
2, 55632, Note_off_c, 0, 58, 64
2, 55632, Note_off_c, 0, 46, 64
2, 55664, Note_off_c, 0, 64, 64
2, 55680, Note_on_c, 0, 57, 80
2, 55680, Note_on_c, 0, 45, 80
2, 55680, Note_on_c, 0, 65, 80
2, 55744, Note_off_c, 0, 65, 64
2, 55760, Note_on_c, 0, 69, 80
2, 55824, Note_off_c, 0, 69, 64
2, 55840, Note_on_c, 0, 72, 80
2, 55872, Note_off_c, 0, 45, 64
2, 55872, Note_off_c, 0, 57, 64
2, 55904, Note_off_c, 0, 72, 64
2, 55920, Note_on_c, 0, 77, 80
2, 55984, Note_off_c, 0, 77, 64
2, 56000, Note_on_c, 0, 72, 80
2, 56064, Note_off_c, 0, 72, 64
2, 56080, Note_on_c, 0, 69, 80
2, 56144, Note_off_c, 0, 69, 64
2, 56160, Note_on_c, 0, 58, 80
2, 56160, Note_on_c, 0, 67, 80
2, 56160, Note_on_c, 0, 46, 80
2, 56224, Note_off_c, 0, 67, 64
2, 56240, Note_on_c, 0, 70, 80
2, 56304, Note_off_c, 0, 70, 64
2, 56320, Note_on_c, 0, 69, 80
2, 56352, Note_off_c, 0, 46, 64
2, 56352, Note_off_c, 0, 58, 64
2, 56384, Note_off_c, 0, 69, 64
2, 56400, Note_on_c, 0, 70, 80
2, 56464, Note_off_c, 0, 70, 64
2, 56480, Note_on_c, 0, 74, 80
2, 56544, Note_off_c, 0, 74, 64
2, 56560, Note_on_c, 0, 73, 80
2, 56624, Note_off_c, 0, 73, 64
2, 56640, Note_on_c, 0, 74, 80
2, 56704, Note_off_c, 0, 74, 64
2, 56720, Note_on_c, 0, 79, 80
2, 56784, Note_off_c, 0, 79, 64
2, 56800, Note_on_c, 0, 78, 80
2, 56864, Note_off_c, 0, 78, 64
2, 56880, Note_on_c, 0, 79, 80
2, 56944, Note_off_c, 0, 79, 64
2, 56960, Note_on_c, 0, 82, 80
2, 57024, Note_off_c, 0, 82, 64
2, 57040, Note_on_c, 0, 81, 80
2, 57104, Note_off_c, 0, 81, 64
2, 57120, Note_on_c, 0, 82, 80
2, 57184, Note_off_c, 0, 82, 64
2, 57200, Note_on_c, 0, 86, 80
2, 57264, Note_off_c, 0, 86, 64
2, 57280, Note_on_c, 0, 85, 80
2, 57344, Note_off_c, 0, 85, 64
2, 57360, Note_on_c, 0, 86, 80
2, 57424, Note_off_c, 0, 86, 64
2, 57440, Note_on_c, 0, 82, 80
2, 57504, Note_off_c, 0, 82, 64
2, 57520, Note_on_c, 0, 81, 80
2, 57584, Note_off_c, 0, 81, 64
2, 57600, Note_on_c, 0, 82, 80
2, 57664, Note_off_c, 0, 82, 64
2, 57680, Note_on_c, 0, 79, 80
2, 57744, Note_off_c, 0, 79, 64
2, 57760, Note_on_c, 0, 78, 80
2, 57824, Note_off_c, 0, 78, 64
2, 57840, Note_on_c, 0, 79, 80
2, 57904, Note_off_c, 0, 79, 64
2, 57920, Note_on_c, 0, 74, 80
2, 57984, Note_off_c, 0, 74, 64
2, 58000, Note_on_c, 0, 73, 80
2, 58064, Note_off_c, 0, 73, 64
2, 58080, Note_on_c, 0, 46, 80
2, 58080, Note_on_c, 0, 58, 80
2, 58080, Note_on_c, 0, 74, 80
2, 58144, Note_off_c, 0, 74, 64
2, 58160, Note_on_c, 0, 70, 80
2, 58224, Note_off_c, 0, 70, 64
2, 58240, Note_on_c, 0, 67, 80
2, 58272, Note_off_c, 0, 58, 64
2, 58272, Note_off_c, 0, 46, 64
2, 58304, Note_off_c, 0, 67, 64
2, 58320, Note_on_c, 0, 57, 80
2, 58320, Note_on_c, 0, 48, 80
2, 58320, Note_on_c, 0, 65, 80
2, 58512, Note_off_c, 0, 65, 64
2, 58512, Note_off_c, 0, 48, 64
2, 58512, Note_off_c, 0, 57, 64
2, 58560, Note_on_c, 0, 55, 80
2, 58560, Note_on_c, 0, 64, 80
2, 58752, Note_off_c, 0, 64, 64
2, 58752, Note_off_c, 0, 55, 64
2, 59040, Note_on_c, 0, 48, 80
2, 59040, Note_on_c, 0, 36, 80
2, 59232, Note_off_c, 0, 36, 64
2, 59232, Note_off_c, 0, 48, 64
2, 59280, Note_on_c, 0, 40, 80
2, 59280, Note_on_c, 0, 52, 80
2, 59472, Note_off_c, 0, 52, 64
2, 59472, Note_off_c, 0, 40, 64
2, 59520, Note_on_c, 0, 43, 80
2, 59520, Note_on_c, 0, 55, 80
2, 59712, Note_off_c, 0, 55, 64
2, 59712, Note_off_c, 0, 43, 64
2, 59760, Note_on_c, 0, 79, 80
2, 59808, Note_off_c, 0, 79, 64
2, 59820, Note_on_c, 0, 81, 80
2, 59868, Note_off_c, 0, 81, 64
2, 59880, Note_on_c, 0, 79, 80
2, 59928, Note_off_c, 0, 79, 64
2, 59940, Note_on_c, 0, 76, 80
2, 59988, Note_off_c, 0, 76, 64
2, 60000, Note_on_c, 0, 79, 80
2, 60048, Note_off_c, 0, 79, 64
2, 60060, Note_on_c, 0, 81, 80
2, 60108, Note_off_c, 0, 81, 64
2, 60120, Note_on_c, 0, 79, 80
2, 60168, Note_off_c, 0, 79, 64
2, 60180, Note_on_c, 0, 76, 80
2, 60228, Note_off_c, 0, 76, 64
2, 60240, Note_on_c, 0, 77, 80
2, 60288, Note_off_c, 0, 77, 64
2, 60300, Note_on_c, 0, 79, 80
2, 60348, Note_off_c, 0, 79, 64
2, 60360, Note_on_c, 0, 77, 80
2, 60408, Note_off_c, 0, 77, 64
2, 60420, Note_on_c, 0, 74, 80
2, 60468, Note_off_c, 0, 74, 64
2, 60480, Note_on_c, 0, 76, 80
2, 60480, Note_on_c, 0, 67, 80
2, 60528, Note_off_c, 0, 67, 64
2, 60528, Note_off_c, 0, 76, 64
2, 60540, Note_on_c, 0, 69, 80
2, 60540, Note_on_c, 0, 77, 80
2, 60588, Note_off_c, 0, 77, 64
2, 60588, Note_off_c, 0, 69, 64
2, 60600, Note_on_c, 0, 67, 80
2, 60600, Note_on_c, 0, 76, 80
2, 60648, Note_off_c, 0, 76, 64
2, 60648, Note_off_c, 0, 67, 64
2, 60660, Note_on_c, 0, 72, 80
2, 60660, Note_on_c, 0, 64, 80
2, 60708, Note_off_c, 0, 64, 64
2, 60708, Note_off_c, 0, 72, 64
2, 60720, Note_on_c, 0, 76, 80
2, 60720, Note_on_c, 0, 67, 80
2, 60768, Note_off_c, 0, 67, 64
2, 60768, Note_off_c, 0, 76, 64
2, 60780, Note_on_c, 0, 77, 80
2, 60780, Note_on_c, 0, 69, 80
2, 60828, Note_off_c, 0, 69, 64
2, 60828, Note_off_c, 0, 77, 64
2, 60840, Note_on_c, 0, 67, 80
2, 60840, Note_on_c, 0, 76, 80
2, 60888, Note_off_c, 0, 76, 64
2, 60888, Note_off_c, 0, 67, 64
2, 60900, Note_on_c, 0, 72, 80
2, 60900, Note_on_c, 0, 64, 80
2, 60948, Note_off_c, 0, 64, 64
2, 60948, Note_off_c, 0, 72, 64
2, 60960, Note_on_c, 0, 65, 80
2, 60960, Note_on_c, 0, 74, 80
2, 61008, Note_off_c, 0, 74, 64
2, 61008, Note_off_c, 0, 65, 64
2, 61020, Note_on_c, 0, 67, 80
2, 61020, Note_on_c, 0, 76, 80
2, 61068, Note_off_c, 0, 76, 64
2, 61068, Note_off_c, 0, 67, 64
2, 61080, Note_on_c, 0, 65, 80
2, 61080, Note_on_c, 0, 74, 80
2, 61128, Note_off_c, 0, 74, 64
2, 61128, Note_off_c, 0, 65, 64
2, 61140, Note_on_c, 0, 62, 80
2, 61140, Note_on_c, 0, 71, 80
2, 61188, Note_off_c, 0, 71, 64
2, 61188, Note_off_c, 0, 62, 64
2, 61200, Note_on_c, 0, 72, 80
2, 61200, Note_on_c, 0, 64, 80
2, 61296, Note_off_c, 0, 64, 64
2, 61320, Note_on_c, 0, 55, 80
2, 61416, Note_off_c, 0, 55, 64
2, 61440, Note_on_c, 0, 60, 80
2, 61488, Note_off_c, 0, 72, 64
2, 61536, Note_off_c, 0, 60, 64
2, 61560, Note_on_c, 0, 55, 80
2, 61560, Note_on_c, 0, 74, 80
2, 61608, Note_off_c, 0, 74, 64
2, 61620, Note_on_c, 0, 76, 80
2, 61656, Note_off_c, 0, 55, 64
2, 61668, Note_off_c, 0, 76, 64
2, 61680, Note_on_c, 0, 59, 80
2, 61680, Note_on_c, 0, 74, 80
2, 61872, Note_off_c, 0, 74, 64
2, 61872, Note_off_c, 0, 59, 64
2, 61920, Note_on_c, 0, 31, 80
2, 61920, Note_on_c, 0, 43, 80
2, 62112, Note_off_c, 0, 43, 64
2, 62112, Note_off_c, 0, 31, 64
2, 62160, Note_on_c, 0, 35, 80
2, 62160, Note_on_c, 0, 47, 80
2, 62352, Note_off_c, 0, 47, 64
2, 62352, Note_off_c, 0, 35, 64
2, 62400, Note_on_c, 0, 38, 80
2, 62400, Note_on_c, 0, 50, 80
2, 62592, Note_off_c, 0, 50, 64
2, 62592, Note_off_c, 0, 38, 64
2, 62640, Note_on_c, 0, 77, 80
2, 62688, Note_off_c, 0, 77, 64
2, 62700, Note_on_c, 0, 79, 80
2, 62748, Note_off_c, 0, 79, 64
2, 62760, Note_on_c, 0, 77, 80
2, 62808, Note_off_c, 0, 77, 64
2, 62820, Note_on_c, 0, 74, 80
2, 62868, Note_off_c, 0, 74, 64
2, 62880, Note_on_c, 0, 77, 80
2, 62928, Note_off_c, 0, 77, 64
2, 62940, Note_on_c, 0, 79, 80
2, 62988, Note_off_c, 0, 79, 64
2, 63000, Note_on_c, 0, 77, 80
2, 63048, Note_off_c, 0, 77, 64
2, 63060, Note_on_c, 0, 74, 80
2, 63108, Note_off_c, 0, 74, 64
2, 63120, Note_on_c, 0, 76, 80
2, 63168, Note_off_c, 0, 76, 64
2, 63180, Note_on_c, 0, 77, 80
2, 63228, Note_off_c, 0, 77, 64
2, 63240, Note_on_c, 0, 76, 80
2, 63288, Note_off_c, 0, 76, 64
2, 63300, Note_on_c, 0, 72, 80
2, 63348, Note_off_c, 0, 72, 64
2, 63360, Note_on_c, 0, 74, 80
2, 63360, Note_on_c, 0, 65, 80
2, 63408, Note_off_c, 0, 65, 64
2, 63408, Note_off_c, 0, 74, 64
2, 63420, Note_on_c, 0, 67, 80
2, 63420, Note_on_c, 0, 76, 80
2, 63468, Note_off_c, 0, 76, 64
2, 63468, Note_off_c, 0, 67, 64
2, 63480, Note_on_c, 0, 65, 80
2, 63480, Note_on_c, 0, 74, 80
2, 63528, Note_off_c, 0, 74, 64
2, 63528, Note_off_c, 0, 65, 64
2, 63540, Note_on_c, 0, 71, 80
2, 63540, Note_on_c, 0, 62, 80
2, 63588, Note_off_c, 0, 62, 64
2, 63588, Note_off_c, 0, 71, 64
2, 63600, Note_on_c, 0, 74, 80
2, 63600, Note_on_c, 0, 65, 80
2, 63648, Note_off_c, 0, 65, 64
2, 63648, Note_off_c, 0, 74, 64
2, 63660, Note_on_c, 0, 76, 80
2, 63660, Note_on_c, 0, 67, 80
2, 63708, Note_off_c, 0, 67, 64
2, 63708, Note_off_c, 0, 76, 64
2, 63720, Note_on_c, 0, 65, 80
2, 63720, Note_on_c, 0, 74, 80
2, 63768, Note_off_c, 0, 74, 64
2, 63768, Note_off_c, 0, 65, 64
2, 63780, Note_on_c, 0, 71, 80
2, 63780, Note_on_c, 0, 62, 80
2, 63828, Note_off_c, 0, 62, 64
2, 63828, Note_off_c, 0, 71, 64
2, 63840, Note_on_c, 0, 64, 80
2, 63840, Note_on_c, 0, 72, 80
2, 63888, Note_off_c, 0, 72, 64
2, 63888, Note_off_c, 0, 64, 64
2, 63900, Note_on_c, 0, 65, 80
2, 63900, Note_on_c, 0, 71, 80
2, 63948, Note_off_c, 0, 71, 64
2, 63948, Note_off_c, 0, 65, 64
2, 63960, Note_on_c, 0, 64, 80
2, 63960, Note_on_c, 0, 72, 80
2, 64008, Note_off_c, 0, 72, 64
2, 64008, Note_off_c, 0, 64, 64
2, 64020, Note_on_c, 0, 60, 80
2, 64020, Note_on_c, 0, 76, 80
2, 64068, Note_off_c, 0, 76, 64
2, 64068, Note_off_c, 0, 60, 64
2, 64080, Note_on_c, 0, 74, 80
2, 64080, Note_on_c, 0, 65, 80
2, 64176, Note_off_c, 0, 65, 64
2, 64200, Note_on_c, 0, 62, 80
2, 64296, Note_off_c, 0, 62, 64
2, 64320, Note_on_c, 0, 59, 80
2, 64368, Note_off_c, 0, 74, 64
2, 64416, Note_off_c, 0, 59, 64
2, 64440, Note_on_c, 0, 55, 80
2, 64440, Note_on_c, 0, 76, 80
2, 64488, Note_off_c, 0, 76, 64
2, 64500, Note_on_c, 0, 77, 80
2, 64536, Note_off_c, 0, 55, 64
2, 64548, Note_off_c, 0, 77, 64
2, 64560, Note_on_c, 0, 60, 80
2, 64560, Note_on_c, 0, 76, 80
2, 64752, Note_off_c, 0, 76, 64
2, 64752, Note_off_c, 0, 60, 64
2, 64800, Note_on_c, 0, 40, 80
2, 64800, Note_on_c, 0, 52, 80
2, 64880, Note_on_c, 0, 79, 80
2, 64944, Note_off_c, 0, 79, 64
2, 64960, Note_on_c, 0, 77, 80
2, 64992, Note_off_c, 0, 52, 64
2, 64992, Note_off_c, 0, 40, 64
2, 65024, Note_off_c, 0, 77, 64
2, 65040, Note_on_c, 0, 76, 80
2, 65104, Note_off_c, 0, 76, 64
2, 65120, Note_on_c, 0, 79, 80
2, 65184, Note_off_c, 0, 79, 64
2, 65200, Note_on_c, 0, 74, 80
2, 65264, Note_off_c, 0, 74, 64
2, 65280, Note_on_c, 0, 72, 80
2, 65344, Note_off_c, 0, 72, 64
2, 65360, Note_on_c, 0, 79, 80
2, 65424, Note_off_c, 0, 79, 64
2, 65440, Note_on_c, 0, 70, 80
2, 65504, Note_off_c, 0, 70, 64
2, 65520, Note_on_c, 0, 41, 80
2, 65520, Note_on_c, 0, 53, 80
2, 65600, Note_on_c, 0, 70, 80
2, 65664, Note_off_c, 0, 70, 64
2, 65680, Note_on_c, 0, 68, 80
2, 65712, Note_off_c, 0, 53, 64
2, 65712, Note_off_c, 0, 41, 64
2, 65744, Note_off_c, 0, 68, 64
2, 65760, Note_on_c, 0, 69, 80
2, 65824, Note_off_c, 0, 69, 64
2, 65840, Note_on_c, 0, 74, 80
2, 65904, Note_off_c, 0, 74, 64
2, 65920, Note_on_c, 0, 73, 80
2, 65984, Note_off_c, 0, 73, 64
2, 66000, Note_on_c, 0, 76, 80
2, 66064, Note_off_c, 0, 76, 64
2, 66080, Note_on_c, 0, 74, 80
2, 66144, Note_off_c, 0, 74, 64
2, 66160, Note_on_c, 0, 77, 80
2, 66224, Note_off_c, 0, 77, 64
2, 66240, Note_on_c, 0, 42, 80
2, 66240, Note_on_c, 0, 54, 80
2, 66320, Note_on_c, 0, 81, 80
2, 66384, Note_off_c, 0, 81, 64
2, 66400, Note_on_c, 0, 79, 80
2, 66432, Note_off_c, 0, 54, 64
2, 66432, Note_off_c, 0, 42, 64
2, 66464, Note_off_c, 0, 79, 64
2, 66480, Note_on_c, 0, 78, 80
2, 66544, Note_off_c, 0, 78, 64
2, 66560, Note_on_c, 0, 81, 80
2, 66624, Note_off_c, 0, 81, 64
2, 66640, Note_on_c, 0, 76, 80
2, 66704, Note_off_c, 0, 76, 64
2, 66720, Note_on_c, 0, 74, 80
2, 66784, Note_off_c, 0, 74, 64
2, 66800, Note_on_c, 0, 81, 80
2, 66864, Note_off_c, 0, 81, 64
2, 66880, Note_on_c, 0, 72, 80
2, 66944, Note_off_c, 0, 72, 64
2, 66960, Note_on_c, 0, 43, 80
2, 66960, Note_on_c, 0, 55, 80
2, 67040, Note_on_c, 0, 72, 80
2, 67104, Note_off_c, 0, 72, 64
2, 67120, Note_on_c, 0, 70, 80
2, 67152, Note_off_c, 0, 55, 64
2, 67152, Note_off_c, 0, 43, 64
2, 67184, Note_off_c, 0, 70, 64
2, 67200, Note_on_c, 0, 71, 80
2, 67264, Note_off_c, 0, 71, 64
2, 67280, Note_on_c, 0, 76, 80
2, 67344, Note_off_c, 0, 76, 64
2, 67360, Note_on_c, 0, 75, 80
2, 67424, Note_off_c, 0, 75, 64
2, 67440, Note_on_c, 0, 78, 80
2, 67504, Note_off_c, 0, 78, 64
2, 67520, Note_on_c, 0, 76, 80
2, 67584, Note_off_c, 0, 76, 64
2, 67600, Note_on_c, 0, 79, 80
2, 67664, Note_off_c, 0, 79, 64
2, 67680, Note_on_c, 0, 44, 80
2, 67680, Note_on_c, 0, 56, 80
2, 67760, Note_on_c, 0, 83, 80
2, 67824, Note_off_c, 0, 83, 64
2, 67840, Note_on_c, 0, 81, 80
2, 67872, Note_off_c, 0, 56, 64
2, 67872, Note_off_c, 0, 44, 64
2, 67904, Note_off_c, 0, 81, 64
2, 67920, Note_on_c, 0, 80, 80
2, 67984, Note_off_c, 0, 80, 64
2, 68000, Note_on_c, 0, 83, 80
2, 68064, Note_off_c, 0, 83, 64
2, 68080, Note_on_c, 0, 77, 80
2, 68144, Note_off_c, 0, 77, 64
2, 68160, Note_on_c, 0, 76, 80
2, 68224, Note_off_c, 0, 76, 64
2, 68240, Note_on_c, 0, 83, 80
2, 68304, Note_off_c, 0, 83, 64
2, 68320, Note_on_c, 0, 74, 80
2, 68384, Note_off_c, 0, 74, 64
2, 68400, Note_on_c, 0, 45, 80
2, 68400, Note_on_c, 0, 57, 80
2, 68480, Note_on_c, 0, 71, 80
2, 68544, Note_off_c, 0, 71, 64
2, 68560, Note_on_c, 0, 72, 80
2, 68592, Note_off_c, 0, 57, 64
2, 68592, Note_off_c, 0, 45, 64
2, 68624, Note_off_c, 0, 72, 64
2, 68640, Note_on_c, 0, 77, 80
2, 68720, Note_on_c, 0, 68, 80
2, 68784, Note_off_c, 0, 68, 64
2, 68800, Note_on_c, 0, 69, 80
2, 68832, Note_off_c, 0, 77, 64
2, 68864, Note_off_c, 0, 69, 64
2, 68880, Note_on_c, 0, 76, 80
2, 68960, Note_on_c, 0, 66, 80
2, 69024, Note_off_c, 0, 66, 64
2, 69040, Note_on_c, 0, 67, 80
2, 69072, Note_off_c, 0, 76, 64
2, 69104, Note_off_c, 0, 67, 64
2, 69120, Note_on_c, 0, 65, 80
2, 69200, Note_on_c, 0, 73, 80
2, 69264, Note_off_c, 0, 73, 64
2, 69280, Note_on_c, 0, 74, 80
2, 69312, Note_off_c, 0, 65, 64
2, 69344, Note_off_c, 0, 74, 64
2, 69360, Note_on_c, 0, 81, 80
2, 69440, Note_on_c, 0, 64, 80
2, 69504, Note_off_c, 0, 64, 64
2, 69520, Note_on_c, 0, 65, 80
2, 69552, Note_off_c, 0, 81, 64
2, 69584, Note_off_c, 0, 65, 64
2, 69600, Note_on_c, 0, 79, 80
2, 69680, Note_on_c, 0, 63, 80
2, 69744, Note_off_c, 0, 63, 64
2, 69760, Note_on_c, 0, 64, 80
2, 69792, Note_off_c, 0, 79, 64
2, 69824, Note_off_c, 0, 64, 64
2, 69840, Note_on_c, 0, 74, 80
2, 69840, Note_on_c, 0, 79, 80
2, 69840, Note_on_c, 0, 77, 80
2, 69840, Note_on_c, 0, 62, 80
2, 69855, Note_off_c, 0, 79, 64
2, 69936, Note_off_c, 0, 77, 64
2, 69960, Note_on_c, 0, 76, 80
2, 70008, Note_off_c, 0, 76, 64
2, 70020, Note_on_c, 0, 74, 80
2, 70032, Note_off_c, 0, 62, 64
2, 70032, Note_off_c, 0, 74, 64
2, 70068, Note_off_c, 0, 74, 64
2, 70080, Note_on_c, 0, 72, 80
2, 70080, Note_on_c, 0, 64, 80
2, 70080, Note_on_c, 0, 55, 80
2, 70272, Note_off_c, 0, 55, 64
2, 70272, Note_off_c, 0, 64, 64
2, 70272, Note_off_c, 0, 72, 64
2, 70320, Note_on_c, 0, 65, 80
2, 70320, Note_on_c, 0, 71, 80
2, 70344, Note_off_c, 0, 71, 64
2, 70350, Note_on_c, 0, 72, 80
2, 70374, Note_off_c, 0, 72, 64
2, 70380, Note_on_c, 0, 71, 80
2, 70404, Note_off_c, 0, 71, 64
2, 70410, Note_on_c, 0, 72, 80
2, 70434, Note_off_c, 0, 72, 64
2, 70440, Note_on_c, 0, 71, 80
2, 70464, Note_off_c, 0, 71, 64
2, 70470, Note_on_c, 0, 72, 80
2, 70494, Note_off_c, 0, 72, 64
2, 70500, Note_on_c, 0, 69, 80
2, 70512, Note_off_c, 0, 65, 64
2, 70524, Note_off_c, 0, 69, 64
2, 70530, Note_on_c, 0, 71, 80
2, 70554, Note_off_c, 0, 71, 64
2, 70560, Note_on_c, 0, 48, 80
2, 70560, Note_on_c, 0, 72, 80
2, 70608, Note_off_c, 0, 48, 64
2, 70620, Note_on_c, 0, 52, 80
2, 70668, Note_off_c, 0, 52, 64
2, 70680, Note_on_c, 0, 55, 80
2, 70728, Note_off_c, 0, 55, 64
2, 70740, Note_on_c, 0, 60, 80
2, 70752, Note_off_c, 0, 72, 64
2, 70788, Note_off_c, 0, 60, 64
2, 70800, Note_on_c, 0, 64, 80
2, 70860, Note_on_c, 0, 71, 80
2, 70896, Note_off_c, 0, 64, 64
2, 70908, Note_off_c, 0, 71, 64
2, 70920, Note_on_c, 0, 72, 80
2, 70968, Note_off_c, 0, 72, 64
2, 70980, Note_on_c, 0, 74, 80
2, 71025, Note_on_c, 0, 77, 80
2, 71028, Note_off_c, 0, 74, 64
2, 71040, Note_off_c, 0, 77, 64
2, 71040, Note_on_c, 0, 76, 80
2, 71136, Note_off_c, 0, 76, 64
2, 71160, Note_on_c, 0, 74, 80
2, 71208, Note_off_c, 0, 74, 64
2, 71220, Note_on_c, 0, 72, 80
2, 71268, Note_off_c, 0, 72, 64
2, 71280, Note_on_c, 0, 50, 80
2, 71280, Note_on_c, 0, 71, 80
2, 71328, Note_off_c, 0, 50, 64
2, 71340, Note_on_c, 0, 53, 80
2, 71388, Note_off_c, 0, 53, 64
2, 71400, Note_on_c, 0, 59, 80
2, 71448, Note_off_c, 0, 59, 64
2, 71460, Note_on_c, 0, 62, 80
2, 71472, Note_off_c, 0, 71, 64
2, 71508, Note_off_c, 0, 62, 64
2, 71520, Note_on_c, 0, 65, 80
2, 71580, Note_on_c, 0, 73, 80
2, 71616, Note_off_c, 0, 65, 64
2, 71628, Note_off_c, 0, 73, 64
2, 71640, Note_on_c, 0, 74, 80
2, 71688, Note_off_c, 0, 74, 64
2, 71700, Note_on_c, 0, 76, 80
2, 71745, Note_on_c, 0, 79, 80
2, 71748, Note_off_c, 0, 76, 64
2, 71760, Note_off_c, 0, 79, 64
2, 71760, Note_on_c, 0, 77, 80
2, 71856, Note_off_c, 0, 77, 64
2, 71880, Note_on_c, 0, 76, 80
2, 71928, Note_off_c, 0, 76, 64
2, 71940, Note_on_c, 0, 74, 80
2, 71988, Note_off_c, 0, 74, 64
2, 72000, Note_on_c, 0, 52, 80
2, 72000, Note_on_c, 0, 72, 80
2, 72048, Note_off_c, 0, 52, 64
2, 72060, Note_on_c, 0, 55, 80
2, 72108, Note_off_c, 0, 55, 64
2, 72120, Note_on_c, 0, 60, 80
2, 72168, Note_off_c, 0, 60, 64
2, 72180, Note_on_c, 0, 64, 80
2, 72192, Note_off_c, 0, 72, 64
2, 72228, Note_off_c, 0, 64, 64
2, 72240, Note_on_c, 0, 67, 80
2, 72300, Note_on_c, 0, 75, 80
2, 72336, Note_off_c, 0, 67, 64
2, 72348, Note_off_c, 0, 75, 64
2, 72360, Note_on_c, 0, 76, 80
2, 72408, Note_off_c, 0, 76, 64
2, 72420, Note_on_c, 0, 77, 80
2, 72465, Note_on_c, 0, 81, 80
2, 72468, Note_off_c, 0, 77, 64
2, 72480, Note_off_c, 0, 81, 64
2, 72480, Note_on_c, 0, 79, 80
2, 72593, Note_off_c, 0, 79, 64
2, 72600, Note_on_c, 0, 77, 80
2, 72648, Note_off_c, 0, 77, 64
2, 72660, Note_on_c, 0, 76, 80
2, 72708, Note_off_c, 0, 76, 64
2, 72720, Note_on_c, 0, 69, 80
2, 72720, Note_on_c, 0, 73, 80
2, 72720, Note_on_c, 0, 65, 80
2, 72768, Note_off_c, 0, 73, 64
2, 72780, Note_on_c, 0, 74, 80
2, 72828, Note_off_c, 0, 74, 64
2, 72840, Note_on_c, 0, 77, 80
2, 72888, Note_off_c, 0, 77, 64
2, 72900, Note_on_c, 0, 76, 80
2, 72912, Note_off_c, 0, 65, 64
2, 72912, Note_off_c, 0, 69, 64
2, 72948, Note_off_c, 0, 76, 64
2, 72960, Note_on_c, 0, 69, 80
2, 72960, Note_on_c, 0, 65, 80
2, 72960, Note_on_c, 0, 73, 80
2, 73008, Note_off_c, 0, 73, 64
2, 73020, Note_on_c, 0, 74, 80
2, 73068, Note_off_c, 0, 74, 64
2, 73080, Note_on_c, 0, 77, 80
2, 73128, Note_off_c, 0, 77, 64
2, 73140, Note_on_c, 0, 76, 80
2, 73152, Note_off_c, 0, 65, 64
2, 73152, Note_off_c, 0, 69, 64
2, 73185, Note_on_c, 0, 79, 80
2, 73188, Note_off_c, 0, 76, 64
2, 73200, Note_off_c, 0, 79, 64
2, 73200, Note_on_c, 0, 65, 80
2, 73200, Note_on_c, 0, 69, 80
2, 73200, Note_on_c, 0, 77, 80
2, 73296, Note_off_c, 0, 77, 64
2, 73320, Note_on_c, 0, 76, 80
2, 73368, Note_off_c, 0, 76, 64
2, 73380, Note_on_c, 0, 74, 80
2, 73392, Note_off_c, 0, 69, 64
2, 73392, Note_off_c, 0, 65, 64
2, 73428, Note_off_c, 0, 74, 64
2, 73440, Note_on_c, 0, 65, 80
2, 73440, Note_on_c, 0, 81, 80
2, 73440, Note_on_c, 0, 69, 80
2, 73440, Note_on_c, 0, 72, 80
2, 73488, Note_off_c, 0, 81, 64
2, 73500, Note_on_c, 0, 77, 80
2, 73548, Note_off_c, 0, 77, 64
2, 73560, Note_on_c, 0, 76, 80
2, 73608, Note_off_c, 0, 76, 64
2, 73620, Note_on_c, 0, 74, 80
2, 73632, Note_off_c, 0, 72, 64
2, 73632, Note_off_c, 0, 69, 64
2, 73632, Note_off_c, 0, 65, 64
2, 73657, Note_on_c, 0, 72, 80
2, 73657, Note_on_c, 0, 74, 80
2, 73665, Note_off_c, 0, 74, 64
2, 73665, Note_off_c, 0, 72, 64
2, 73665, Note_on_c, 0, 76, 80
2, 73668, Note_off_c, 0, 74, 64
2, 73673, Note_off_c, 0, 76, 64
2, 73680, Note_on_c, 0, 72, 80
2, 73680, Note_on_c, 0, 67, 80
2, 73695, Note_on_c, 0, 74, 80
2, 73719, Note_off_c, 0, 74, 64
2, 73725, Note_on_c, 0, 76, 80
2, 73749, Note_off_c, 0, 76, 64
2, 73755, Note_on_c, 0, 74, 80
2, 73779, Note_off_c, 0, 74, 64
2, 73785, Note_on_c, 0, 76, 80
2, 73809, Note_off_c, 0, 76, 64
2, 73815, Note_on_c, 0, 74, 80
2, 73839, Note_off_c, 0, 74, 64
2, 73845, Note_on_c, 0, 76, 80
2, 73869, Note_off_c, 0, 76, 64
2, 73872, Note_off_c, 0, 67, 64
2, 73872, Note_off_c, 0, 72, 64
2, 73875, Note_on_c, 0, 74, 80
2, 73899, Note_off_c, 0, 74, 64
2, 73905, Note_on_c, 0, 76, 80
2, 73920, Note_on_c, 0, 71, 80
2, 73929, Note_off_c, 0, 76, 64
2, 73935, Note_on_c, 0, 74, 80
2, 73959, Note_off_c, 0, 74, 64
2, 73965, Note_on_c, 0, 76, 80
2, 73989, Note_off_c, 0, 76, 64
2, 73995, Note_on_c, 0, 74, 80
2, 74019, Note_off_c, 0, 74, 64
2, 74025, Note_on_c, 0, 76, 80
2, 74049, Note_off_c, 0, 76, 64
2, 74055, Note_on_c, 0, 74, 80
2, 74079, Note_off_c, 0, 74, 64
2, 74085, Note_on_c, 0, 76, 80
2, 74109, Note_off_c, 0, 76, 64
2, 74112, Note_off_c, 0, 71, 64
2, 74115, Note_on_c, 0, 74, 80
2, 74139, Note_off_c, 0, 74, 64
2, 74145, Note_on_c, 0, 76, 80
2, 74160, Note_on_c, 0, 67, 80
2, 74160, Note_on_c, 0, 72, 80
2, 74160, Note_on_c, 0, 36, 80
2, 74160, Note_on_c, 0, 64, 80
2, 74169, Note_off_c, 0, 76, 64
2, 74208, Note_off_c, 0, 36, 64
2, 74220, Note_on_c, 0, 40, 80
2, 74268, Note_off_c, 0, 40, 64
2, 74280, Note_on_c, 0, 43, 80
2, 74328, Note_off_c, 0, 43, 64
2, 74340, Note_on_c, 0, 48, 80
2, 74352, Note_off_c, 0, 64, 64
2, 74352, Note_off_c, 0, 72, 64
2, 74352, Note_off_c, 0, 67, 64
2, 74388, Note_off_c, 0, 48, 64
2, 74400, Note_on_c, 0, 52, 80
2, 74460, Note_on_c, 0, 59, 80
2, 74496, Note_off_c, 0, 52, 64
2, 74508, Note_off_c, 0, 59, 64
2, 74520, Note_on_c, 0, 60, 80
2, 74568, Note_off_c, 0, 60, 64
2, 74580, Note_on_c, 0, 62, 80
2, 74625, Note_on_c, 0, 65, 80
2, 74628, Note_off_c, 0, 62, 64
2, 74640, Note_off_c, 0, 65, 64
2, 74640, Note_on_c, 0, 64, 80
2, 74736, Note_off_c, 0, 64, 64
2, 74760, Note_on_c, 0, 62, 80
2, 74808, Note_off_c, 0, 62, 64
2, 74820, Note_on_c, 0, 60, 80
2, 74868, Note_off_c, 0, 60, 64
2, 74880, Note_on_c, 0, 38, 80
2, 74880, Note_on_c, 0, 59, 80
2, 74928, Note_off_c, 0, 38, 64
2, 74940, Note_on_c, 0, 41, 80
2, 74988, Note_off_c, 0, 41, 64
2, 75000, Note_on_c, 0, 47, 80
2, 75048, Note_off_c, 0, 47, 64
2, 75060, Note_on_c, 0, 50, 80
2, 75072, Note_off_c, 0, 59, 64
2, 75108, Note_off_c, 0, 50, 64
2, 75120, Note_on_c, 0, 53, 80
2, 75180, Note_on_c, 0, 61, 80
2, 75216, Note_off_c, 0, 53, 64
2, 75228, Note_off_c, 0, 61, 64
2, 75240, Note_on_c, 0, 62, 80
2, 75288, Note_off_c, 0, 62, 64
2, 75300, Note_on_c, 0, 64, 80
2, 75345, Note_on_c, 0, 67, 80
2, 75348, Note_off_c, 0, 64, 64
2, 75360, Note_off_c, 0, 67, 64
2, 75360, Note_on_c, 0, 65, 80
2, 75456, Note_off_c, 0, 65, 64
2, 75480, Note_on_c, 0, 64, 80
2, 75528, Note_off_c, 0, 64, 64
2, 75540, Note_on_c, 0, 62, 80
2, 75588, Note_off_c, 0, 62, 64
2, 75600, Note_on_c, 0, 40, 80
2, 75600, Note_on_c, 0, 60, 80
2, 75648, Note_off_c, 0, 40, 64
2, 75660, Note_on_c, 0, 43, 80
2, 75708, Note_off_c, 0, 43, 64
2, 75720, Note_on_c, 0, 48, 80
2, 75768, Note_off_c, 0, 48, 64
2, 75780, Note_on_c, 0, 52, 80
2, 75792, Note_off_c, 0, 60, 64
2, 75828, Note_off_c, 0, 52, 64
2, 75840, Note_on_c, 0, 55, 80
2, 75900, Note_on_c, 0, 63, 80
2, 75936, Note_off_c, 0, 55, 64
2, 75948, Note_off_c, 0, 63, 64
2, 75960, Note_on_c, 0, 64, 80
2, 76008, Note_off_c, 0, 64, 64
2, 76020, Note_on_c, 0, 65, 80
2, 76065, Note_on_c, 0, 69, 80
2, 76068, Note_off_c, 0, 65, 64
2, 76080, Note_off_c, 0, 69, 64
2, 76080, Note_on_c, 0, 67, 80
2, 76176, Note_off_c, 0, 67, 64
2, 76200, Note_on_c, 0, 65, 80
2, 76248, Note_off_c, 0, 65, 64
2, 76260, Note_on_c, 0, 64, 80
2, 76308, Note_off_c, 0, 64, 64
2, 76320, Note_on_c, 0, 41, 80
2, 76320, Note_on_c, 0, 62, 80
2, 76368, Note_off_c, 0, 41, 64
2, 76380, Note_on_c, 0, 45, 80
2, 76428, Note_off_c, 0, 45, 64
2, 76440, Note_on_c, 0, 50, 80
2, 76488, Note_off_c, 0, 50, 64
2, 76500, Note_on_c, 0, 53, 80
2, 76512, Note_off_c, 0, 62, 64
2, 76548, Note_off_c, 0, 53, 64
2, 76560, Note_on_c, 0, 57, 80
2, 76620, Note_on_c, 0, 62, 80
2, 76656, Note_off_c, 0, 57, 64
2, 76668, Note_off_c, 0, 62, 64
2, 76680, Note_on_c, 0, 65, 80
2, 76728, Note_off_c, 0, 65, 64
2, 76740, Note_on_c, 0, 69, 80
2, 76788, Note_off_c, 0, 69, 64
2, 76800, Note_on_c, 0, 74, 80
2, 76860, Note_on_c, 0, 53, 80
2, 76896, Note_off_c, 0, 74, 64
2, 76908, Note_off_c, 0, 53, 64
2, 76920, Note_on_c, 0, 57, 80
2, 76968, Note_off_c, 0, 57, 64
2, 76980, Note_on_c, 0, 62, 80
2, 77028, Note_off_c, 0, 62, 64
2, 77040, Note_on_c, 0, 65, 80
2, 77100, Note_on_c, 0, 69, 80
2, 77136, Note_off_c, 0, 65, 64
2, 77148, Note_off_c, 0, 69, 64
2, 77160, Note_on_c, 0, 74, 80
2, 77208, Note_off_c, 0, 74, 64
2, 77220, Note_on_c, 0, 77, 80
2, 77268, Note_off_c, 0, 77, 64
2, 77280, Note_on_c, 0, 81, 80
2, 77340, Note_on_c, 0, 65, 80
2, 77376, Note_off_c, 0, 81, 64
2, 77388, Note_off_c, 0, 65, 64
2, 77400, Note_on_c, 0, 69, 80
2, 77448, Note_off_c, 0, 69, 64
2, 77460, Note_on_c, 0, 74, 80
2, 77508, Note_off_c, 0, 74, 64
2, 77520, Note_on_c, 0, 77, 80
2, 77580, Note_on_c, 0, 83, 80
2, 77616, Note_off_c, 0, 77, 64
2, 77628, Note_off_c, 0, 83, 64
2, 77640, Note_on_c, 0, 84, 80
2, 77688, Note_off_c, 0, 84, 64
2, 77700, Note_on_c, 0, 80, 80
2, 77748, Note_off_c, 0, 80, 64
2, 77760, Note_on_c, 0, 81, 80
2, 77808, Note_off_c, 0, 81, 64
2, 77820, Note_on_c, 0, 76, 80
2, 77868, Note_off_c, 0, 76, 64
2, 77880, Note_on_c, 0, 77, 80
2, 77928, Note_off_c, 0, 77, 64
2, 77940, Note_on_c, 0, 74, 80
2, 77977, Note_on_c, 0, 74, 80
2, 77977, Note_on_c, 0, 72, 80
2, 77985, Note_off_c, 0, 72, 64
2, 77985, Note_off_c, 0, 74, 64
2, 77985, Note_on_c, 0, 76, 80
2, 77988, Note_off_c, 0, 74, 64
2, 77993, Note_off_c, 0, 76, 64
2, 78000, Note_on_c, 0, 55, 80
2, 78000, Note_on_c, 0, 60, 80
2, 78015, Note_on_c, 0, 74, 80
2, 78039, Note_off_c, 0, 74, 64
2, 78045, Note_on_c, 0, 76, 80
2, 78069, Note_off_c, 0, 76, 64
2, 78075, Note_on_c, 0, 74, 80
2, 78099, Note_off_c, 0, 74, 64
2, 78105, Note_on_c, 0, 76, 80
2, 78129, Note_off_c, 0, 76, 64
2, 78135, Note_on_c, 0, 74, 80
2, 78159, Note_off_c, 0, 74, 64
2, 78165, Note_on_c, 0, 76, 80
2, 78189, Note_off_c, 0, 76, 64
2, 78192, Note_off_c, 0, 60, 64
2, 78192, Note_off_c, 0, 55, 64
2, 78195, Note_on_c, 0, 74, 80
2, 78219, Note_off_c, 0, 74, 64
2, 78225, Note_on_c, 0, 76, 80
2, 78240, Note_on_c, 0, 59, 80
2, 78249, Note_off_c, 0, 76, 64
2, 78255, Note_on_c, 0, 74, 80
2, 78279, Note_off_c, 0, 74, 64
2, 78285, Note_on_c, 0, 76, 80
2, 78309, Note_off_c, 0, 76, 64
2, 78315, Note_on_c, 0, 74, 80
2, 78339, Note_off_c, 0, 74, 64
2, 78345, Note_on_c, 0, 76, 80
2, 78369, Note_off_c, 0, 76, 64
2, 78375, Note_on_c, 0, 74, 80
2, 78399, Note_off_c, 0, 74, 64
2, 78405, Note_on_c, 0, 76, 80
2, 78429, Note_off_c, 0, 76, 64
2, 78432, Note_off_c, 0, 59, 64
2, 78435, Note_on_c, 0, 74, 80
2, 78459, Note_off_c, 0, 74, 64
2, 78465, Note_on_c, 0, 76, 80
2, 78480, Note_on_c, 0, 60, 80
2, 78480, Note_on_c, 0, 72, 80
2, 78489, Note_off_c, 0, 76, 64
2, 78528, Note_off_c, 0, 60, 64
2, 78540, Note_on_c, 0, 67, 80
2, 78576, Note_off_c, 0, 72, 64
2, 78588, Note_off_c, 0, 67, 64
2, 78600, Note_on_c, 0, 64, 80
2, 78600, Note_on_c, 0, 76, 80
2, 78648, Note_off_c, 0, 64, 64
2, 78660, Note_on_c, 0, 67, 80
2, 78696, Note_off_c, 0, 76, 64
2, 78708, Note_off_c, 0, 67, 64
2, 78720, Note_on_c, 0, 79, 80
2, 78720, Note_on_c, 0, 60, 80
2, 78768, Note_off_c, 0, 60, 64
2, 78780, Note_on_c, 0, 67, 80
2, 78828, Note_off_c, 0, 67, 64
2, 78840, Note_on_c, 0, 64, 80
2, 78888, Note_off_c, 0, 64, 64
2, 78900, Note_on_c, 0, 67, 80
2, 78912, Note_off_c, 0, 79, 64
2, 78948, Note_off_c, 0, 67, 64
2, 78960, Note_on_c, 0, 55, 80
2, 78960, Note_on_c, 0, 83, 80
2, 78984, Note_off_c, 0, 83, 64
2, 78990, Note_on_c, 0, 84, 80
2, 79008, Note_off_c, 0, 55, 64
2, 79014, Note_off_c, 0, 84, 64
2, 79020, Note_on_c, 0, 65, 80
2, 79020, Note_on_c, 0, 83, 80
2, 79044, Note_off_c, 0, 83, 64
2, 79050, Note_on_c, 0, 84, 80
2, 79068, Note_off_c, 0, 65, 64
2, 79074, Note_off_c, 0, 84, 64
2, 79080, Note_on_c, 0, 62, 80
2, 79080, Note_on_c, 0, 83, 80
2, 79104, Note_off_c, 0, 83, 64
2, 79110, Note_on_c, 0, 84, 80
2, 79128, Note_off_c, 0, 62, 64
2, 79134, Note_off_c, 0, 84, 64
2, 79140, Note_on_c, 0, 65, 80
2, 79140, Note_on_c, 0, 81, 80
2, 79164, Note_off_c, 0, 81, 64
2, 79170, Note_on_c, 0, 83, 80
2, 79188, Note_off_c, 0, 65, 64
2, 79194, Note_off_c, 0, 83, 64
2, 79200, Note_on_c, 0, 84, 80
2, 79200, Note_on_c, 0, 60, 80
2, 79248, Note_off_c, 0, 60, 64
2, 79260, Note_on_c, 0, 67, 80
2, 79296, Note_off_c, 0, 84, 64
2, 79308, Note_off_c, 0, 67, 64
2, 79320, Note_on_c, 0, 76, 80
2, 79320, Note_on_c, 0, 64, 80
2, 79368, Note_off_c, 0, 64, 64
2, 79380, Note_on_c, 0, 67, 80
2, 79416, Note_off_c, 0, 76, 64
2, 79428, Note_off_c, 0, 67, 64
2, 79440, Note_on_c, 0, 79, 80
2, 79440, Note_on_c, 0, 60, 80
2, 79488, Note_off_c, 0, 60, 64
2, 79500, Note_on_c, 0, 67, 80
2, 79548, Note_off_c, 0, 67, 64
2, 79560, Note_on_c, 0, 64, 80
2, 79608, Note_off_c, 0, 64, 64
2, 79620, Note_on_c, 0, 67, 80
2, 79632, Note_off_c, 0, 79, 64
2, 79668, Note_off_c, 0, 67, 64
2, 79680, Note_on_c, 0, 55, 80
2, 79680, Note_on_c, 0, 83, 80
2, 79704, Note_off_c, 0, 83, 64
2, 79710, Note_on_c, 0, 84, 80
2, 79728, Note_off_c, 0, 55, 64
2, 79734, Note_off_c, 0, 84, 64
2, 79740, Note_on_c, 0, 65, 80
2, 79740, Note_on_c, 0, 83, 80
2, 79764, Note_off_c, 0, 83, 64
2, 79770, Note_on_c, 0, 84, 80
2, 79788, Note_off_c, 0, 65, 64
2, 79794, Note_off_c, 0, 84, 64
2, 79800, Note_on_c, 0, 62, 80
2, 79800, Note_on_c, 0, 83, 80
2, 79824, Note_off_c, 0, 83, 64
2, 79830, Note_on_c, 0, 84, 80
2, 79848, Note_off_c, 0, 62, 64
2, 79854, Note_off_c, 0, 84, 64
2, 79860, Note_on_c, 0, 65, 80
2, 79860, Note_on_c, 0, 81, 80
2, 79884, Note_off_c, 0, 81, 64
2, 79890, Note_on_c, 0, 83, 80
2, 79908, Note_off_c, 0, 65, 64
2, 79914, Note_off_c, 0, 83, 64
2, 79920, Note_on_c, 0, 84, 80
2, 79920, Note_on_c, 0, 60, 80
2, 79920, Note_on_c, 0, 64, 80
2, 80112, Note_off_c, 0, 64, 64
2, 80112, Note_off_c, 0, 60, 64
2, 80112, Note_off_c, 0, 84, 64
2, 80160, Note_on_c, 0, 48, 80
2, 80160, Note_on_c, 0, 52, 80
2, 80160, Note_on_c, 0, 55, 80
2, 80160, Note_on_c, 0, 72, 80
2, 80160, Note_on_c, 0, 67, 80
2, 80160, Note_on_c, 0, 64, 80
2, 80352, Note_off_c, 0, 64, 64
2, 80352, Note_off_c, 0, 67, 64
2, 80352, Note_off_c, 0, 72, 64
2, 80352, Note_off_c, 0, 55, 64
2, 80352, Note_off_c, 0, 52, 64
2, 80352, Note_off_c, 0, 48, 64
2, 80640, Note_on_c, 0, 76, 80
2, 80640, Note_on_c, 0, 79, 80
2, 80720, Note_on_c, 0, 48, 80
2, 80784, Note_off_c, 0, 48, 64
2, 80800, Note_on_c, 0, 47, 80
2, 80832, Note_off_c, 0, 79, 64
2, 80832, Note_off_c, 0, 76, 64
2, 80864, Note_off_c, 0, 47, 64
2, 80880, Note_on_c, 0, 48, 80
2, 80944, Note_off_c, 0, 48, 64
2, 80960, Note_on_c, 0, 52, 80
2, 81024, Note_off_c, 0, 52, 64
2, 81040, Note_on_c, 0, 51, 80
2, 81104, Note_off_c, 0, 51, 64
2, 81120, Note_on_c, 0, 52, 80
2, 81184, Note_off_c, 0, 52, 64
2, 81200, Note_on_c, 0, 55, 80
2, 81264, Note_off_c, 0, 55, 64
2, 81280, Note_on_c, 0, 54, 80
2, 81344, Note_off_c, 0, 54, 64
2, 81360, Note_on_c, 0, 55, 80
2, 81552, Note_off_c, 0, 55, 64
2, 81600, Note_on_c, 0, 79, 80
2, 81600, Note_on_c, 0, 76, 80
2, 81744, Note_off_c, 0, 76, 64
2, 81744, Note_off_c, 0, 79, 64
2, 81780, Note_on_c, 0, 73, 80
2, 81780, Note_on_c, 0, 76, 80
2, 81828, Note_off_c, 0, 76, 64
2, 81828, Note_off_c, 0, 73, 64
2, 81840, Note_on_c, 0, 76, 80
2, 81840, Note_on_c, 0, 79, 80
2, 81984, Note_off_c, 0, 79, 64
2, 81984, Note_off_c, 0, 76, 64
2, 82020, Note_on_c, 0, 76, 80
2, 82020, Note_on_c, 0, 73, 80
2, 82068, Note_off_c, 0, 73, 64
2, 82068, Note_off_c, 0, 76, 64
2, 82080, Note_on_c, 0, 74, 80
2, 82080, Note_on_c, 0, 77, 80
2, 82160, Note_on_c, 0, 55, 80
2, 82224, Note_off_c, 0, 55, 64
2, 82240, Note_on_c, 0, 54, 80
2, 82272, Note_off_c, 0, 77, 64
2, 82272, Note_off_c, 0, 74, 64
2, 82304, Note_off_c, 0, 54, 64
2, 82320, Note_on_c, 0, 55, 80
2, 82384, Note_off_c, 0, 55, 64
2, 82400, Note_on_c, 0, 59, 80
2, 82464, Note_off_c, 0, 59, 64
2, 82480, Note_on_c, 0, 58, 80
2, 82544, Note_off_c, 0, 58, 64
2, 82560, Note_on_c, 0, 59, 80
2, 82624, Note_off_c, 0, 59, 64
2, 82640, Note_on_c, 0, 62, 80
2, 82704, Note_off_c, 0, 62, 64
2, 82720, Note_on_c, 0, 61, 80
2, 82784, Note_off_c, 0, 61, 64
2, 82800, Note_on_c, 0, 62, 80
2, 82992, Note_off_c, 0, 62, 64
2, 83040, Note_on_c, 0, 74, 80
2, 83040, Note_on_c, 0, 65, 80
2, 83184, Note_off_c, 0, 65, 64
2, 83184, Note_off_c, 0, 74, 64
2, 83220, Note_on_c, 0, 62, 80
2, 83220, Note_on_c, 0, 71, 80
2, 83268, Note_off_c, 0, 71, 64
2, 83268, Note_off_c, 0, 62, 64
2, 83280, Note_on_c, 0, 65, 80
2, 83280, Note_on_c, 0, 74, 80
2, 83424, Note_off_c, 0, 74, 64
2, 83424, Note_off_c, 0, 65, 64
2, 83460, Note_on_c, 0, 71, 80
2, 83460, Note_on_c, 0, 62, 80
2, 83508, Note_off_c, 0, 62, 64
2, 83508, Note_off_c, 0, 71, 64
2, 83520, Note_on_c, 0, 64, 80
2, 83520, Note_on_c, 0, 72, 80
2, 83528, Note_off_c, 0, 64, 64
2, 83528, Note_on_c, 0, 67, 80
2, 83536, Note_off_c, 0, 67, 64
2, 83760, Note_on_c, 0, 60, 80
2, 83904, Note_off_c, 0, 60, 64
2, 83940, Note_on_c, 0, 55, 80
2, 83988, Note_off_c, 0, 55, 64
2, 84000, Note_on_c, 0, 57, 80
2, 84096, Note_off_c, 0, 72, 64
2, 84144, Note_off_c, 0, 57, 64
2, 84180, Note_on_c, 0, 52, 80
2, 84228, Note_off_c, 0, 52, 64
2, 84240, Note_on_c, 0, 53, 80
2, 84240, Note_on_c, 0, 72, 80
2, 84432, Note_off_c, 0, 72, 64
2, 84480, Note_on_c, 0, 74, 80
2, 84624, Note_off_c, 0, 74, 64
2, 84660, Note_on_c, 0, 69, 80
2, 84708, Note_off_c, 0, 69, 64
2, 84720, Note_on_c, 0, 71, 80
2, 84816, Note_off_c, 0, 53, 64
2, 84864, Note_off_c, 0, 71, 64
2, 84900, Note_on_c, 0, 67, 80
2, 84948, Note_off_c, 0, 67, 64
2, 84960, Note_on_c, 0, 52, 80
2, 84960, Note_on_c, 0, 79, 80
2, 85152, Note_off_c, 0, 79, 64
2, 85152, Note_off_c, 0, 52, 64
2, 85200, Note_on_c, 0, 67, 80
2, 85200, Note_on_c, 0, 72, 80
2, 85200, Note_on_c, 0, 64, 80
2, 85344, Note_off_c, 0, 72, 64
2, 85380, Note_on_c, 0, 74, 80
2, 85392, Note_off_c, 0, 64, 64
2, 85392, Note_off_c, 0, 67, 64
2, 85428, Note_off_c, 0, 74, 64
2, 85440, Note_on_c, 0, 65, 80
2, 85440, Note_on_c, 0, 62, 80
2, 85440, Note_on_c, 0, 71, 80
2, 85584, Note_off_c, 0, 71, 64
2, 85620, Note_on_c, 0, 72, 80
2, 85632, Note_off_c, 0, 62, 64
2, 85632, Note_off_c, 0, 65, 64
2, 85668, Note_off_c, 0, 72, 64
2, 85680, Note_on_c, 0, 79, 80
2, 85680, Note_on_c, 0, 64, 80
2, 85680, Note_on_c, 0, 61, 80
2, 85680, Note_on_c, 0, 70, 80
2, 85872, Note_off_c, 0, 70, 64
2, 85872, Note_off_c, 0, 79, 64
2, 85920, Note_on_c, 0, 69, 80
2, 85920, Note_on_c, 0, 79, 80
2, 86064, Note_off_c, 0, 79, 64
2, 86064, Note_off_c, 0, 69, 64
2, 86064, Note_off_c, 0, 61, 64
2, 86064, Note_off_c, 0, 64, 64
2, 86100, Note_on_c, 0, 76, 80
2, 86148, Note_off_c, 0, 76, 64
2, 86160, Note_on_c, 0, 79, 80
2, 86304, Note_off_c, 0, 79, 64
2, 86340, Note_on_c, 0, 76, 80
2, 86388, Note_off_c, 0, 76, 64
2, 86400, Note_on_c, 0, 79, 80
2, 86592, Note_off_c, 0, 79, 64
2, 86640, Note_on_c, 0, 67, 80
2, 86640, Note_on_c, 0, 72, 80
2, 86640, Note_on_c, 0, 64, 80
2, 86784, Note_off_c, 0, 72, 64
2, 86820, Note_on_c, 0, 74, 80
2, 86832, Note_off_c, 0, 64, 64
2, 86832, Note_off_c, 0, 67, 64
2, 86868, Note_off_c, 0, 74, 64
2, 86880, Note_on_c, 0, 65, 80
2, 86880, Note_on_c, 0, 62, 80
2, 86880, Note_on_c, 0, 71, 80
2, 87024, Note_off_c, 0, 71, 64
2, 87060, Note_on_c, 0, 72, 80
2, 87072, Note_off_c, 0, 62, 64
2, 87072, Note_off_c, 0, 65, 64
2, 87108, Note_off_c, 0, 72, 64
2, 87120, Note_on_c, 0, 64, 80
2, 87120, Note_on_c, 0, 61, 80
2, 87120, Note_on_c, 0, 70, 80
2, 87120, Note_on_c, 0, 79, 80
2, 87312, Note_off_c, 0, 79, 64
2, 87312, Note_off_c, 0, 70, 64
2, 87360, Note_on_c, 0, 69, 80
2, 87504, Note_off_c, 0, 61, 64
2, 87504, Note_off_c, 0, 64, 64
2, 87552, Note_off_c, 0, 69, 64
2, 87840, Note_on_c, 0, 38, 80
2, 87840, Note_on_c, 0, 50, 80
2, 88032, Note_off_c, 0, 50, 64
2, 88032, Note_off_c, 0, 38, 64
2, 88080, Note_on_c, 0, 41, 80
2, 88080, Note_on_c, 0, 53, 80
2, 88272, Note_off_c, 0, 53, 64
2, 88272, Note_off_c, 0, 41, 64
2, 88320, Note_on_c, 0, 45, 80
2, 88320, Note_on_c, 0, 57, 80
2, 88512, Note_off_c, 0, 57, 64
2, 88512, Note_off_c, 0, 45, 64
2, 88560, Note_on_c, 0, 81, 80
2, 88608, Note_off_c, 0, 81, 64
2, 88620, Note_on_c, 0, 82, 80
2, 88668, Note_off_c, 0, 82, 64
2, 88680, Note_on_c, 0, 81, 80
2, 88728, Note_off_c, 0, 81, 64
2, 88740, Note_on_c, 0, 77, 80
2, 88788, Note_off_c, 0, 77, 64
2, 88800, Note_on_c, 0, 79, 80
2, 88848, Note_off_c, 0, 79, 64
2, 88860, Note_on_c, 0, 81, 80
2, 88908, Note_off_c, 0, 81, 64
2, 88920, Note_on_c, 0, 79, 80
2, 88968, Note_off_c, 0, 79, 64
2, 88980, Note_on_c, 0, 76, 80
2, 89028, Note_off_c, 0, 76, 64
2, 89040, Note_on_c, 0, 77, 80
2, 89088, Note_off_c, 0, 77, 64
2, 89100, Note_on_c, 0, 79, 80
2, 89148, Note_off_c, 0, 79, 64
2, 89160, Note_on_c, 0, 77, 80
2, 89208, Note_off_c, 0, 77, 64
2, 89220, Note_on_c, 0, 74, 80
2, 89268, Note_off_c, 0, 74, 64
2, 89280, Note_on_c, 0, 31, 80
2, 89280, Note_on_c, 0, 43, 80
2, 89280, Note_on_c, 0, 74, 80
2, 89280, Note_on_c, 0, 70, 80
2, 89280, Note_on_c, 0, 82, 80
2, 89280, Note_on_c, 0, 79, 80
2, 89472, Note_off_c, 0, 79, 64
2, 89472, Note_off_c, 0, 82, 64
2, 89472, Note_off_c, 0, 70, 64
2, 89472, Note_off_c, 0, 74, 64
2, 89472, Note_off_c, 0, 43, 64
2, 89472, Note_off_c, 0, 31, 64
2, 89520, Note_on_c, 0, 34, 80
2, 89520, Note_on_c, 0, 46, 80
2, 89712, Note_off_c, 0, 46, 64
2, 89712, Note_off_c, 0, 34, 64
2, 89760, Note_on_c, 0, 38, 80
2, 89760, Note_on_c, 0, 50, 80
2, 89952, Note_off_c, 0, 50, 64
2, 89952, Note_off_c, 0, 38, 64
2, 90000, Note_on_c, 0, 74, 80
2, 90048, Note_off_c, 0, 74, 64
2, 90060, Note_on_c, 0, 75, 80
2, 90108, Note_off_c, 0, 75, 64
2, 90120, Note_on_c, 0, 74, 80
2, 90168, Note_off_c, 0, 74, 64
2, 90180, Note_on_c, 0, 70, 80
2, 90228, Note_off_c, 0, 70, 64
2, 90240, Note_on_c, 0, 72, 80
2, 90288, Note_off_c, 0, 72, 64
2, 90300, Note_on_c, 0, 74, 80
2, 90348, Note_off_c, 0, 74, 64
2, 90360, Note_on_c, 0, 72, 80
2, 90408, Note_off_c, 0, 72, 64
2, 90420, Note_on_c, 0, 69, 80
2, 90468, Note_off_c, 0, 69, 64
2, 90480, Note_on_c, 0, 70, 80
2, 90528, Note_off_c, 0, 70, 64
2, 90540, Note_on_c, 0, 72, 80
2, 90588, Note_off_c, 0, 72, 64
2, 90600, Note_on_c, 0, 70, 80
2, 90648, Note_off_c, 0, 70, 64
2, 90660, Note_on_c, 0, 67, 80
2, 90708, Note_off_c, 0, 67, 64
2, 90720, Note_on_c, 0, 36, 80
2, 90720, Note_on_c, 0, 48, 80
2, 90720, Note_on_c, 0, 76, 80
2, 90720, Note_on_c, 0, 72, 80
2, 90720, Note_on_c, 0, 67, 80
2, 90720, Note_on_c, 0, 64, 80
2, 90912, Note_off_c, 0, 64, 64
2, 90912, Note_off_c, 0, 67, 64
2, 90912, Note_off_c, 0, 72, 64
2, 90912, Note_off_c, 0, 76, 64
2, 90912, Note_off_c, 0, 48, 64
2, 90912, Note_off_c, 0, 36, 64
2, 90960, Note_on_c, 0, 40, 80
2, 90960, Note_on_c, 0, 52, 80
2, 91152, Note_off_c, 0, 52, 64
2, 91152, Note_off_c, 0, 40, 64
2, 91200, Note_on_c, 0, 43, 80
2, 91200, Note_on_c, 0, 55, 80
2, 91392, Note_off_c, 0, 55, 64
2, 91392, Note_off_c, 0, 43, 64
2, 91440, Note_on_c, 0, 79, 80
2, 91488, Note_off_c, 0, 79, 64
2, 91500, Note_on_c, 0, 81, 80
2, 91548, Note_off_c, 0, 81, 64
2, 91560, Note_on_c, 0, 79, 80
2, 91608, Note_off_c, 0, 79, 64
2, 91620, Note_on_c, 0, 76, 80
2, 91668, Note_off_c, 0, 76, 64
2, 91680, Note_on_c, 0, 77, 80
2, 91728, Note_off_c, 0, 77, 64
2, 91740, Note_on_c, 0, 79, 80
2, 91788, Note_off_c, 0, 79, 64
2, 91800, Note_on_c, 0, 77, 80
2, 91848, Note_off_c, 0, 77, 64
2, 91860, Note_on_c, 0, 74, 80
2, 91908, Note_off_c, 0, 74, 64
2, 91920, Note_on_c, 0, 76, 80
2, 91968, Note_off_c, 0, 76, 64
2, 91980, Note_on_c, 0, 77, 80
2, 92028, Note_off_c, 0, 77, 64
2, 92040, Note_on_c, 0, 76, 80
2, 92088, Note_off_c, 0, 76, 64
2, 92100, Note_on_c, 0, 72, 80
2, 92148, Note_off_c, 0, 72, 64
2, 92160, Note_on_c, 0, 29, 80
2, 92160, Note_on_c, 0, 41, 80
2, 92160, Note_on_c, 0, 81, 80
2, 92160, Note_on_c, 0, 77, 80
2, 92160, Note_on_c, 0, 72, 80
2, 92160, Note_on_c, 0, 69, 80
2, 92352, Note_off_c, 0, 69, 64
2, 92352, Note_off_c, 0, 72, 64
2, 92352, Note_off_c, 0, 77, 64
2, 92352, Note_off_c, 0, 81, 64
2, 92352, Note_off_c, 0, 41, 64
2, 92352, Note_off_c, 0, 29, 64
2, 92400, Note_on_c, 0, 33, 80
2, 92400, Note_on_c, 0, 45, 80
2, 92592, Note_off_c, 0, 45, 64
2, 92592, Note_off_c, 0, 33, 64
2, 92640, Note_on_c, 0, 36, 80
2, 92640, Note_on_c, 0, 48, 80
2, 92832, Note_off_c, 0, 48, 64
2, 92832, Note_off_c, 0, 36, 64
2, 92880, Note_on_c, 0, 72, 80
2, 92928, Note_off_c, 0, 72, 64
2, 92940, Note_on_c, 0, 74, 80
2, 92988, Note_off_c, 0, 74, 64
2, 93000, Note_on_c, 0, 72, 80
2, 93048, Note_off_c, 0, 72, 64
2, 93060, Note_on_c, 0, 69, 80
2, 93108, Note_off_c, 0, 69, 64
2, 93120, Note_on_c, 0, 70, 80
2, 93168, Note_off_c, 0, 70, 64
2, 93180, Note_on_c, 0, 72, 80
2, 93228, Note_off_c, 0, 72, 64
2, 93240, Note_on_c, 0, 70, 80
2, 93288, Note_off_c, 0, 70, 64
2, 93300, Note_on_c, 0, 67, 80
2, 93348, Note_off_c, 0, 67, 64
2, 93360, Note_on_c, 0, 69, 80
2, 93408, Note_off_c, 0, 69, 64
2, 93420, Note_on_c, 0, 70, 80
2, 93468, Note_off_c, 0, 70, 64
2, 93480, Note_on_c, 0, 69, 80
2, 93528, Note_off_c, 0, 69, 64
2, 93540, Note_on_c, 0, 65, 80
2, 93588, Note_off_c, 0, 65, 64
2, 93600, Note_on_c, 0, 46, 80
2, 93600, Note_on_c, 0, 58, 80
2, 93600, Note_on_c, 0, 86, 80
2, 93600, Note_on_c, 0, 80, 80
2, 93600, Note_on_c, 0, 77, 80
2, 93600, Note_on_c, 0, 74, 80
2, 93792, Note_off_c, 0, 74, 64
2, 93792, Note_off_c, 0, 77, 64
2, 93792, Note_off_c, 0, 80, 64
2, 93792, Note_off_c, 0, 86, 64
2, 93792, Note_off_c, 0, 58, 64
2, 93792, Note_off_c, 0, 46, 64
2, 93840, Note_on_c, 0, 61, 80
2, 93840, Note_on_c, 0, 64, 80
2, 94032, Note_off_c, 0, 64, 64
2, 94032, Note_off_c, 0, 61, 64
2, 94080, Note_on_c, 0, 62, 80
2, 94080, Note_on_c, 0, 65, 80
2, 94272, Note_off_c, 0, 65, 64
2, 94272, Note_off_c, 0, 62, 64
2, 94320, Note_on_c, 0, 45, 80
2, 94320, Note_on_c, 0, 57, 80
2, 94320, Note_on_c, 0, 86, 80
2, 94320, Note_on_c, 0, 81, 80
2, 94320, Note_on_c, 0, 77, 80
2, 94320, Note_on_c, 0, 74, 80
2, 94512, Note_off_c, 0, 74, 64
2, 94512, Note_off_c, 0, 77, 64
2, 94512, Note_off_c, 0, 81, 64
2, 94512, Note_off_c, 0, 86, 64
2, 94512, Note_off_c, 0, 57, 64
2, 94512, Note_off_c, 0, 45, 64
2, 94560, Note_on_c, 0, 61, 80
2, 94560, Note_on_c, 0, 64, 80
2, 94752, Note_off_c, 0, 64, 64
2, 94752, Note_off_c, 0, 61, 64
2, 94800, Note_on_c, 0, 62, 80
2, 94800, Note_on_c, 0, 65, 80
2, 94992, Note_off_c, 0, 65, 64
2, 94992, Note_off_c, 0, 62, 64
2, 95040, Note_on_c, 0, 44, 80
2, 95040, Note_on_c, 0, 56, 80
2, 95040, Note_on_c, 0, 86, 80
2, 95040, Note_on_c, 0, 83, 80
2, 95040, Note_on_c, 0, 77, 80
2, 95040, Note_on_c, 0, 74, 80
2, 95232, Note_off_c, 0, 74, 64
2, 95232, Note_off_c, 0, 77, 64
2, 95232, Note_off_c, 0, 83, 64
2, 95232, Note_off_c, 0, 86, 64
2, 95232, Note_off_c, 0, 56, 64
2, 95232, Note_off_c, 0, 44, 64
2, 95280, Note_on_c, 0, 61, 80
2, 95280, Note_on_c, 0, 64, 80
2, 95472, Note_off_c, 0, 64, 64
2, 95472, Note_off_c, 0, 61, 64
2, 95520, Note_on_c, 0, 62, 80
2, 95520, Note_on_c, 0, 65, 80
2, 95712, Note_off_c, 0, 65, 64
2, 95712, Note_off_c, 0, 62, 64
2, 95760, Note_on_c, 0, 57, 80
2, 95760, Note_on_c, 0, 61, 80
2, 95760, Note_on_c, 0, 45, 80
2, 95824, Note_off_c, 0, 61, 64
2, 95840, Note_on_c, 0, 69, 80
2, 95904, Note_off_c, 0, 69, 64
2, 95920, Note_on_c, 0, 64, 80
2, 95984, Note_off_c, 0, 64, 64
2, 96000, Note_on_c, 0, 62, 80
2, 96064, Note_off_c, 0, 62, 64
2, 96080, Note_on_c, 0, 70, 80
2, 96144, Note_off_c, 0, 70, 64
2, 96160, Note_on_c, 0, 65, 80
2, 96224, Note_off_c, 0, 65, 64
2, 96240, Note_on_c, 0, 62, 80
2, 96304, Note_off_c, 0, 62, 64
2, 96320, Note_on_c, 0, 68, 80
2, 96384, Note_off_c, 0, 68, 64
2, 96400, Note_on_c, 0, 65, 80
2, 96464, Note_off_c, 0, 65, 64
2, 96480, Note_on_c, 0, 61, 80
2, 96544, Note_off_c, 0, 61, 64
2, 96560, Note_on_c, 0, 69, 80
2, 96624, Note_off_c, 0, 69, 64
2, 96640, Note_on_c, 0, 64, 80
2, 96704, Note_off_c, 0, 64, 64
2, 96720, Note_on_c, 0, 62, 80
2, 96784, Note_off_c, 0, 62, 64
2, 96800, Note_on_c, 0, 70, 80
2, 96864, Note_off_c, 0, 70, 64
2, 96880, Note_on_c, 0, 65, 80
2, 96944, Note_off_c, 0, 65, 64
2, 96960, Note_on_c, 0, 62, 80
2, 97024, Note_off_c, 0, 62, 64
2, 97040, Note_on_c, 0, 68, 80
2, 97056, Note_off_c, 0, 45, 64
2, 97056, Note_off_c, 0, 57, 64
2, 97104, Note_off_c, 0, 68, 64
2, 97120, Note_on_c, 0, 65, 80
2, 97184, Note_off_c, 0, 65, 64
2, 97200, Note_on_c, 0, 61, 80
2, 97200, Note_on_c, 0, 64, 80
2, 97200, Note_on_c, 0, 57, 80
2, 97392, Note_off_c, 0, 57, 64
2, 97392, Note_off_c, 0, 64, 64
2, 97392, Note_off_c, 0, 61, 64
2, 97440, Note_on_c, 0, 70, 80
2, 97536, Note_off_c, 0, 70, 64
2, 97560, Note_on_c, 0, 69, 80
2, 97656, Note_off_c, 0, 69, 64
2, 97680, Note_on_c, 0, 69, 80
2, 97872, Note_off_c, 0, 69, 64
2, 97920, Note_on_c, 0, 65, 80
2, 97920, Note_on_c, 0, 56, 80
2, 97920, Note_on_c, 0, 62, 80
2, 98112, Note_off_c, 0, 62, 64
2, 98112, Note_off_c, 0, 56, 64
2, 98112, Note_off_c, 0, 65, 64
2, 98160, Note_on_c, 0, 72, 80
2, 98256, Note_off_c, 0, 72, 64
2, 98280, Note_on_c, 0, 71, 80
2, 98376, Note_off_c, 0, 71, 64
2, 98400, Note_on_c, 0, 71, 80
2, 98592, Note_off_c, 0, 71, 64
2, 98640, Note_on_c, 0, 55, 80
2, 98640, Note_on_c, 0, 64, 80
2, 98640, Note_on_c, 0, 60, 80
2, 98832, Note_off_c, 0, 60, 64
2, 98832, Note_off_c, 0, 64, 64
2, 98832, Note_off_c, 0, 55, 64
2, 98880, Note_on_c, 0, 72, 80
2, 98976, Note_off_c, 0, 72, 64
2, 99000, Note_on_c, 0, 70, 80
2, 99096, Note_off_c, 0, 70, 64
2, 99120, Note_on_c, 0, 70, 80
2, 99312, Note_off_c, 0, 70, 64
2, 99360, Note_on_c, 0, 41, 80
2, 99360, Note_on_c, 0, 53, 80
2, 99360, Note_on_c, 0, 72, 80
2, 99360, Note_on_c, 0, 69, 80
2, 99360, Note_on_c, 0, 65, 80
2, 99360, Note_on_c, 0, 60, 80
2, 99552, Note_off_c, 0, 60, 64
2, 99552, Note_off_c, 0, 65, 64
2, 99552, Note_off_c, 0, 69, 64
2, 99552, Note_off_c, 0, 72, 64
2, 99552, Note_off_c, 0, 53, 64
2, 99552, Note_off_c, 0, 41, 64
2, 99600, Note_on_c, 0, 48, 80
2, 99600, Note_on_c, 0, 72, 80
2, 99600, Note_on_c, 0, 69, 80
2, 99792, Note_off_c, 0, 69, 64
2, 99792, Note_off_c, 0, 72, 64
2, 99792, Note_off_c, 0, 48, 64
2, 99840, Note_on_c, 0, 45, 80
2, 99840, Note_on_c, 0, 72, 80
2, 99840, Note_on_c, 0, 69, 80
2, 100032, Note_off_c, 0, 69, 64
2, 100032, Note_off_c, 0, 72, 64
2, 100032, Note_off_c, 0, 45, 64
2, 100080, Note_on_c, 0, 41, 80
2, 100080, Note_on_c, 0, 69, 80
2, 100080, Note_on_c, 0, 72, 80
2, 100272, Note_off_c, 0, 41, 64
2, 100320, Note_on_c, 0, 29, 80
2, 100368, Note_off_c, 0, 72, 64
2, 100368, Note_off_c, 0, 69, 64
2, 100440, Note_on_c, 0, 74, 80
2, 100488, Note_off_c, 0, 74, 64
2, 100500, Note_on_c, 0, 72, 80
2, 100512, Note_off_c, 0, 29, 64
2, 100548, Note_off_c, 0, 72, 64
2, 100560, Note_on_c, 0, 71, 80
2, 100584, Note_off_c, 0, 71, 64
2, 100590, Note_on_c, 0, 72, 80
2, 100614, Note_off_c, 0, 72, 64
2, 100620, Note_on_c, 0, 69, 80
2, 100668, Note_off_c, 0, 69, 64
2, 100680, Note_on_c, 0, 67, 80
2, 100728, Note_off_c, 0, 67, 64
2, 100740, Note_on_c, 0, 65, 80
2, 100788, Note_off_c, 0, 65, 64
2, 100800, Note_on_c, 0, 57, 80
2, 100800, Note_on_c, 0, 77, 80
2, 100800, Note_on_c, 0, 53, 80
2, 100896, Note_off_c, 0, 53, 64
2, 100896, Note_off_c, 0, 57, 64
2, 100920, Note_on_c, 0, 53, 80
2, 100920, Note_on_c, 0, 57, 80
2, 100992, Note_off_c, 0, 77, 64
2, 101016, Note_off_c, 0, 57, 64
2, 101016, Note_off_c, 0, 53, 64
2, 101040, Note_on_c, 0, 76, 80
2, 101040, Note_on_c, 0, 53, 80
2, 101040, Note_on_c, 0, 58, 80
2, 101040, Note_on_c, 0, 55, 80
2, 101136, Note_off_c, 0, 55, 64
2, 101136, Note_off_c, 0, 58, 64
2, 101136, Note_off_c, 0, 53, 64
2, 101160, Note_on_c, 0, 58, 80
2, 101160, Note_on_c, 0, 53, 80
2, 101160, Note_on_c, 0, 55, 80
2, 101232, Note_off_c, 0, 76, 64
2, 101256, Note_off_c, 0, 55, 64
2, 101256, Note_off_c, 0, 53, 64
2, 101256, Note_off_c, 0, 58, 64
2, 101280, Note_on_c, 0, 53, 80
2, 101280, Note_on_c, 0, 57, 80
2, 101280, Note_on_c, 0, 60, 80
2, 101280, Note_on_c, 0, 75, 80
2, 101376, Note_off_c, 0, 60, 64
2, 101376, Note_off_c, 0, 57, 64
2, 101376, Note_off_c, 0, 53, 64
2, 101400, Note_on_c, 0, 53, 80
2, 101400, Note_on_c, 0, 57, 80
2, 101400, Note_on_c, 0, 60, 80
2, 101472, Note_off_c, 0, 75, 64
2, 101496, Note_off_c, 0, 60, 64
2, 101496, Note_off_c, 0, 57, 64
2, 101496, Note_off_c, 0, 53, 64
2, 101520, Note_on_c, 0, 74, 80
2, 101520, Note_on_c, 0, 62, 80
2, 101520, Note_on_c, 0, 58, 80
2, 101520, Note_on_c, 0, 53, 80
2, 101616, Note_off_c, 0, 53, 64
2, 101616, Note_off_c, 0, 58, 64
2, 101616, Note_off_c, 0, 62, 64
2, 101640, Note_on_c, 0, 53, 80
2, 101640, Note_on_c, 0, 58, 80
2, 101640, Note_on_c, 0, 62, 80
2, 101712, Note_off_c, 0, 74, 64
2, 101736, Note_off_c, 0, 62, 64
2, 101736, Note_off_c, 0, 58, 64
2, 101736, Note_off_c, 0, 53, 64
2, 101760, Note_on_c, 0, 62, 80
2, 101760, Note_on_c, 0, 53, 80
2, 101760, Note_on_c, 0, 58, 80
2, 101856, Note_off_c, 0, 58, 64
2, 101856, Note_off_c, 0, 53, 64
2, 101856, Note_off_c, 0, 62, 64
2, 101880, Note_on_c, 0, 62, 80
2, 101880, Note_on_c, 0, 53, 80
2, 101880, Note_on_c, 0, 58, 80
2, 101976, Note_off_c, 0, 58, 64
2, 101976, Note_off_c, 0, 53, 64
2, 101976, Note_off_c, 0, 62, 64
2, 102000, Note_on_c, 0, 53, 80
2, 102000, Note_on_c, 0, 58, 80
2, 102000, Note_on_c, 0, 62, 80
2, 102096, Note_off_c, 0, 62, 64
2, 102096, Note_off_c, 0, 58, 64
2, 102096, Note_off_c, 0, 53, 64
2, 102120, Note_on_c, 0, 53, 80
2, 102120, Note_on_c, 0, 58, 80
2, 102120, Note_on_c, 0, 62, 80
2, 102216, Note_off_c, 0, 62, 64
2, 102216, Note_off_c, 0, 58, 64
2, 102216, Note_off_c, 0, 53, 64
2, 102240, Note_on_c, 0, 72, 80
2, 102240, Note_on_c, 0, 64, 80
2, 102240, Note_on_c, 0, 55, 80
2, 102240, Note_on_c, 0, 53, 80
2, 102336, Note_off_c, 0, 53, 64
2, 102336, Note_off_c, 0, 55, 64
2, 102336, Note_off_c, 0, 64, 64
2, 102336, Note_off_c, 0, 72, 64
2, 102360, Note_on_c, 0, 55, 80
2, 102360, Note_on_c, 0, 53, 80
2, 102360, Note_on_c, 0, 70, 80
2, 102360, Note_on_c, 0, 64, 80
2, 102456, Note_off_c, 0, 64, 64
2, 102456, Note_off_c, 0, 70, 64
2, 102456, Note_off_c, 0, 53, 64
2, 102456, Note_off_c, 0, 55, 64
2, 102480, Note_on_c, 0, 64, 80
2, 102480, Note_on_c, 0, 53, 80
2, 102480, Note_on_c, 0, 55, 80
2, 102480, Note_on_c, 0, 70, 80
2, 102576, Note_off_c, 0, 55, 64
2, 102576, Note_off_c, 0, 53, 64
2, 102576, Note_off_c, 0, 64, 64
2, 102600, Note_on_c, 0, 64, 80
2, 102600, Note_on_c, 0, 53, 80
2, 102600, Note_on_c, 0, 55, 80
2, 102672, Note_off_c, 0, 70, 64
2, 102696, Note_off_c, 0, 55, 64
2, 102696, Note_off_c, 0, 53, 64
2, 102696, Note_off_c, 0, 64, 64
2, 102720, Note_on_c, 0, 53, 80
2, 102720, Note_on_c, 0, 55, 80
2, 102720, Note_on_c, 0, 64, 80
2, 102816, Note_off_c, 0, 64, 64
2, 102816, Note_off_c, 0, 55, 64
2, 102816, Note_off_c, 0, 53, 64
2, 102840, Note_on_c, 0, 53, 80
2, 102840, Note_on_c, 0, 55, 80
2, 102840, Note_on_c, 0, 64, 80
2, 102936, Note_off_c, 0, 64, 64
2, 102936, Note_off_c, 0, 55, 64
2, 102936, Note_off_c, 0, 53, 64
2, 102960, Note_on_c, 0, 74, 80
2, 102960, Note_on_c, 0, 65, 80
2, 102960, Note_on_c, 0, 57, 80
2, 102960, Note_on_c, 0, 53, 80
2, 103056, Note_off_c, 0, 53, 64
2, 103056, Note_off_c, 0, 57, 64
2, 103056, Note_off_c, 0, 65, 64
2, 103056, Note_off_c, 0, 74, 64
2, 103080, Note_on_c, 0, 57, 80
2, 103080, Note_on_c, 0, 53, 80
2, 103080, Note_on_c, 0, 72, 80
2, 103080, Note_on_c, 0, 65, 80
2, 103176, Note_off_c, 0, 65, 64
2, 103176, Note_off_c, 0, 72, 64
2, 103176, Note_off_c, 0, 53, 64
2, 103176, Note_off_c, 0, 57, 64
2, 103200, Note_on_c, 0, 65, 80
2, 103200, Note_on_c, 0, 53, 80
2, 103200, Note_on_c, 0, 57, 80
2, 103200, Note_on_c, 0, 72, 80
2, 103296, Note_off_c, 0, 57, 64
2, 103296, Note_off_c, 0, 53, 64
2, 103296, Note_off_c, 0, 65, 64
2, 103320, Note_on_c, 0, 65, 80
2, 103320, Note_on_c, 0, 53, 80
2, 103320, Note_on_c, 0, 57, 80
2, 103392, Note_off_c, 0, 72, 64
2, 103416, Note_off_c, 0, 57, 64
2, 103416, Note_off_c, 0, 53, 64
2, 103416, Note_off_c, 0, 65, 64
2, 103440, Note_on_c, 0, 53, 80
2, 103440, Note_on_c, 0, 57, 80
2, 103440, Note_on_c, 0, 65, 80
2, 103536, Note_off_c, 0, 65, 64
2, 103536, Note_off_c, 0, 57, 64
2, 103536, Note_off_c, 0, 53, 64
2, 103560, Note_on_c, 0, 53, 80
2, 103560, Note_on_c, 0, 57, 80
2, 103560, Note_on_c, 0, 65, 80
2, 103656, Note_off_c, 0, 65, 64
2, 103656, Note_off_c, 0, 57, 64
2, 103656, Note_off_c, 0, 53, 64
2, 103680, Note_on_c, 0, 60, 80
2, 103680, Note_on_c, 0, 52, 80
2, 103680, Note_on_c, 0, 55, 80
2, 103680, Note_on_c, 0, 82, 80
2, 103728, Note_off_c, 0, 82, 64
2, 103740, Note_on_c, 0, 81, 80
2, 103788, Note_off_c, 0, 81, 64
2, 103800, Note_on_c, 0, 79, 80
2, 103848, Note_off_c, 0, 79, 64
2, 103860, Note_on_c, 0, 81, 80
2, 103872, Note_off_c, 0, 55, 64
2, 103872, Note_off_c, 0, 52, 64
2, 103872, Note_off_c, 0, 60, 64
2, 103908, Note_off_c, 0, 81, 64
2, 103920, Note_on_c, 0, 79, 80
2, 103968, Note_off_c, 0, 79, 64
2, 103980, Note_on_c, 0, 77, 80
2, 104028, Note_off_c, 0, 77, 64
2, 104040, Note_on_c, 0, 76, 80
2, 104088, Note_off_c, 0, 76, 64
2, 104100, Note_on_c, 0, 77, 80
2, 104148, Note_off_c, 0, 77, 64
2, 104160, Note_on_c, 0, 76, 80
2, 104208, Note_off_c, 0, 76, 64
2, 104220, Note_on_c, 0, 74, 80
2, 104268, Note_off_c, 0, 74, 64
2, 104280, Note_on_c, 0, 72, 80
2, 104328, Note_off_c, 0, 72, 64
2, 104340, Note_on_c, 0, 70, 80
2, 104388, Note_off_c, 0, 70, 64
2, 104400, Note_on_c, 0, 53, 80
2, 104400, Note_on_c, 0, 69, 80
2, 104448, Note_off_c, 0, 53, 64
2, 104460, Note_on_c, 0, 60, 80
2, 104496, Note_off_c, 0, 69, 64
2, 104508, Note_off_c, 0, 60, 64
2, 104520, Note_on_c, 0, 57, 80
2, 104520, Note_on_c, 0, 77, 80
2, 104568, Note_off_c, 0, 57, 64
2, 104580, Note_on_c, 0, 60, 80
2, 104628, Note_off_c, 0, 60, 64
2, 104640, Note_on_c, 0, 55, 80
2, 104688, Note_off_c, 0, 55, 64
2, 104700, Note_on_c, 0, 60, 80
2, 104712, Note_off_c, 0, 77, 64
2, 104748, Note_off_c, 0, 60, 64
2, 104760, Note_on_c, 0, 58, 80
2, 104760, Note_on_c, 0, 76, 80
2, 104808, Note_off_c, 0, 58, 64
2, 104820, Note_on_c, 0, 60, 80
2, 104868, Note_off_c, 0, 60, 64
2, 104880, Note_on_c, 0, 57, 80
2, 104928, Note_off_c, 0, 57, 64
2, 104940, Note_on_c, 0, 60, 80
2, 104952, Note_off_c, 0, 76, 64
2, 104988, Note_off_c, 0, 60, 64
2, 105000, Note_on_c, 0, 57, 80
2, 105000, Note_on_c, 0, 77, 80
2, 105048, Note_off_c, 0, 57, 64
2, 105060, Note_on_c, 0, 60, 80
2, 105096, Note_off_c, 0, 77, 64
2, 105108, Note_off_c, 0, 60, 64
2, 105120, Note_on_c, 0, 58, 80
2, 105216, Note_off_c, 0, 58, 64
2, 105240, Note_on_c, 0, 65, 80
2, 105240, Note_on_c, 0, 74, 80
2, 105336, Note_off_c, 0, 74, 64
2, 105336, Note_off_c, 0, 65, 64
2, 105360, Note_on_c, 0, 46, 80
2, 105456, Note_off_c, 0, 46, 64
2, 105480, Note_on_c, 0, 58, 80
2, 105480, Note_on_c, 0, 67, 80
2, 105576, Note_off_c, 0, 67, 64
2, 105576, Note_off_c, 0, 58, 64
2, 105600, Note_on_c, 0, 48, 80
2, 105696, Note_off_c, 0, 48, 64
2, 105720, Note_on_c, 0, 55, 80
2, 105720, Note_on_c, 0, 64, 80
2, 105816, Note_off_c, 0, 64, 64
2, 105816, Note_off_c, 0, 55, 64
2, 105840, Note_on_c, 0, 60, 80
2, 105840, Note_on_c, 0, 52, 80
2, 105840, Note_on_c, 0, 55, 80
2, 105840, Note_on_c, 0, 82, 80
2, 105888, Note_off_c, 0, 82, 64
2, 105900, Note_on_c, 0, 81, 80
2, 105948, Note_off_c, 0, 81, 64
2, 105960, Note_on_c, 0, 79, 80
2, 106008, Note_off_c, 0, 79, 64
2, 106020, Note_on_c, 0, 81, 80
2, 106032, Note_off_c, 0, 55, 64
2, 106032, Note_off_c, 0, 52, 64
2, 106032, Note_off_c, 0, 60, 64
2, 106068, Note_off_c, 0, 81, 64
2, 106080, Note_on_c, 0, 79, 80
2, 106128, Note_off_c, 0, 79, 64
2, 106140, Note_on_c, 0, 77, 80
2, 106188, Note_off_c, 0, 77, 64
2, 106200, Note_on_c, 0, 76, 80
2, 106248, Note_off_c, 0, 76, 64
2, 106260, Note_on_c, 0, 77, 80
2, 106308, Note_off_c, 0, 77, 64
2, 106320, Note_on_c, 0, 76, 80
2, 106368, Note_off_c, 0, 76, 64
2, 106380, Note_on_c, 0, 74, 80
2, 106428, Note_off_c, 0, 74, 64
2, 106440, Note_on_c, 0, 72, 80
2, 106488, Note_off_c, 0, 72, 64
2, 106500, Note_on_c, 0, 70, 80
2, 106548, Note_off_c, 0, 70, 64
2, 106560, Note_on_c, 0, 53, 80
2, 106560, Note_on_c, 0, 69, 80
2, 106608, Note_off_c, 0, 53, 64
2, 106620, Note_on_c, 0, 60, 80
2, 106656, Note_off_c, 0, 69, 64
2, 106668, Note_off_c, 0, 60, 64
2, 106680, Note_on_c, 0, 57, 80
2, 106680, Note_on_c, 0, 81, 80
2, 106728, Note_off_c, 0, 57, 64
2, 106740, Note_on_c, 0, 60, 80
2, 106788, Note_off_c, 0, 60, 64
2, 106800, Note_on_c, 0, 55, 80
2, 106848, Note_off_c, 0, 55, 64
2, 106860, Note_on_c, 0, 64, 80
2, 106872, Note_off_c, 0, 81, 64
2, 106908, Note_off_c, 0, 64, 64
2, 106920, Note_on_c, 0, 58, 80
2, 106920, Note_on_c, 0, 79, 80
2, 106968, Note_off_c, 0, 58, 64
2, 106980, Note_on_c, 0, 64, 80
2, 107028, Note_off_c, 0, 64, 64
2, 107040, Note_on_c, 0, 57, 80
2, 107088, Note_off_c, 0, 57, 64
2, 107100, Note_on_c, 0, 65, 80
2, 107112, Note_off_c, 0, 79, 64
2, 107148, Note_off_c, 0, 65, 64
2, 107160, Note_on_c, 0, 60, 80
2, 107160, Note_on_c, 0, 77, 80
2, 107208, Note_off_c, 0, 60, 64
2, 107220, Note_on_c, 0, 65, 80
2, 107256, Note_off_c, 0, 77, 64
2, 107268, Note_off_c, 0, 65, 64
2, 107280, Note_on_c, 0, 58, 80
2, 107376, Note_off_c, 0, 58, 64
2, 107400, Note_on_c, 0, 65, 80
2, 107400, Note_on_c, 0, 74, 80
2, 107496, Note_off_c, 0, 74, 64
2, 107496, Note_off_c, 0, 65, 64
2, 107520, Note_on_c, 0, 46, 80
2, 107616, Note_off_c, 0, 46, 64
2, 107640, Note_on_c, 0, 58, 80
2, 107640, Note_on_c, 0, 67, 80
2, 107736, Note_off_c, 0, 67, 64
2, 107736, Note_off_c, 0, 58, 64
2, 107760, Note_on_c, 0, 48, 80
2, 107856, Note_off_c, 0, 48, 64
2, 107880, Note_on_c, 0, 55, 80
2, 107880, Note_on_c, 0, 64, 80
2, 107976, Note_off_c, 0, 64, 64
2, 107976, Note_off_c, 0, 55, 64
2, 108000, Note_on_c, 0, 57, 80
2, 108000, Note_on_c, 0, 41, 80
2, 108000, Note_on_c, 0, 53, 80
2, 108064, Note_off_c, 0, 57, 64
2, 108080, Note_on_c, 0, 65, 80
2, 108144, Note_off_c, 0, 65, 64
2, 108160, Note_on_c, 0, 60, 80
2, 108192, Note_off_c, 0, 53, 64
2, 108192, Note_off_c, 0, 41, 64
2, 108224, Note_off_c, 0, 60, 64
2, 108240, Note_on_c, 0, 69, 80
2, 108304, Note_off_c, 0, 69, 64
2, 108320, Note_on_c, 0, 65, 80
2, 108384, Note_off_c, 0, 65, 64
2, 108400, Note_on_c, 0, 60, 80
2, 108464, Note_off_c, 0, 60, 64
2, 108480, Note_on_c, 0, 36, 80
2, 108480, Note_on_c, 0, 48, 80
2, 108480, Note_on_c, 0, 58, 80
2, 108544, Note_off_c, 0, 58, 64
2, 108560, Note_on_c, 0, 67, 80
2, 108624, Note_off_c, 0, 67, 64
2, 108640, Note_on_c, 0, 64, 80
2, 108672, Note_off_c, 0, 48, 64
2, 108672, Note_off_c, 0, 36, 64
2, 108704, Note_off_c, 0, 64, 64
2, 108720, Note_on_c, 0, 65, 80
2, 108720, Note_on_c, 0, 29, 80
2, 108720, Note_on_c, 0, 41, 80
2, 108784, Note_off_c, 0, 65, 64
2, 108800, Note_on_c, 0, 57, 80
2, 108864, Note_off_c, 0, 57, 64
2, 108880, Note_on_c, 0, 60, 80
2, 108912, Note_off_c, 0, 41, 64
2, 108912, Note_off_c, 0, 29, 64
2, 108944, Note_off_c, 0, 60, 64
2, 108960, Note_on_c, 0, 67, 80
2, 109024, Note_off_c, 0, 67, 64
2, 109040, Note_on_c, 0, 60, 80
2, 109104, Note_off_c, 0, 60, 64
2, 109120, Note_on_c, 0, 64, 80
2, 109184, Note_off_c, 0, 64, 64
2, 109200, Note_on_c, 0, 69, 80
2, 109264, Note_off_c, 0, 69, 64
2, 109280, Note_on_c, 0, 60, 80
2, 109344, Note_off_c, 0, 60, 64
2, 109360, Note_on_c, 0, 65, 80
2, 109424, Note_off_c, 0, 65, 64
2, 109440, Note_on_c, 0, 60, 80
2, 109440, Note_on_c, 0, 36, 80
2, 109440, Note_on_c, 0, 48, 80
2, 109504, Note_off_c, 0, 60, 64
2, 109520, Note_on_c, 0, 67, 80
2, 109584, Note_off_c, 0, 67, 64
2, 109600, Note_on_c, 0, 64, 80
2, 109632, Note_off_c, 0, 48, 64
2, 109632, Note_off_c, 0, 36, 64
2, 109664, Note_off_c, 0, 64, 64
2, 109680, Note_on_c, 0, 70, 80
2, 109744, Note_off_c, 0, 70, 64
2, 109760, Note_on_c, 0, 67, 80
2, 109824, Note_off_c, 0, 67, 64
2, 109840, Note_on_c, 0, 64, 80
2, 109904, Note_off_c, 0, 64, 64
2, 109920, Note_on_c, 0, 41, 80
2, 109920, Note_on_c, 0, 53, 80
2, 109920, Note_on_c, 0, 60, 80
2, 109984, Note_off_c, 0, 60, 64
2, 110000, Note_on_c, 0, 69, 80
2, 110064, Note_off_c, 0, 69, 64
2, 110080, Note_on_c, 0, 65, 80
2, 110112, Note_off_c, 0, 53, 64
2, 110112, Note_off_c, 0, 41, 64
2, 110144, Note_off_c, 0, 65, 64
2, 110160, Note_on_c, 0, 60, 80
2, 110160, Note_on_c, 0, 67, 80
2, 110160, Note_on_c, 0, 48, 80
2, 110224, Note_off_c, 0, 67, 64
2, 110240, Note_on_c, 0, 60, 80
2, 110304, Note_off_c, 0, 60, 64
2, 110320, Note_on_c, 0, 64, 80
2, 110352, Note_off_c, 0, 48, 64
2, 110352, Note_off_c, 0, 60, 64
2, 110384, Note_off_c, 0, 64, 64
2, 110400, Note_on_c, 0, 69, 80
2, 110464, Note_off_c, 0, 69, 64
2, 110480, Note_on_c, 0, 60, 80
2, 110544, Note_off_c, 0, 60, 64
2, 110560, Note_on_c, 0, 65, 80
2, 110624, Note_off_c, 0, 65, 64
2, 110640, Note_on_c, 0, 70, 80
2, 110704, Note_off_c, 0, 70, 64
2, 110720, Note_on_c, 0, 60, 80
2, 110784, Note_off_c, 0, 60, 64
2, 110800, Note_on_c, 0, 67, 80
2, 110864, Note_off_c, 0, 67, 64
2, 110880, Note_on_c, 0, 69, 80
2, 110880, Note_on_c, 0, 41, 80
2, 110880, Note_on_c, 0, 53, 80
2, 110944, Note_off_c, 0, 69, 64
2, 110960, Note_on_c, 0, 72, 80
2, 111024, Note_off_c, 0, 72, 64
2, 111040, Note_on_c, 0, 77, 80
2, 111072, Note_off_c, 0, 53, 64
2, 111072, Note_off_c, 0, 41, 64
2, 111104, Note_off_c, 0, 77, 64
2, 111120, Note_on_c, 0, 81, 80
2, 111184, Note_off_c, 0, 81, 64
2, 111200, Note_on_c, 0, 77, 80
2, 111264, Note_off_c, 0, 77, 64
2, 111280, Note_on_c, 0, 74, 80
2, 111344, Note_off_c, 0, 74, 64
2, 111360, Note_on_c, 0, 72, 80
2, 111424, Note_off_c, 0, 72, 64
2, 111440, Note_on_c, 0, 77, 80
2, 111504, Note_off_c, 0, 77, 64
2, 111520, Note_on_c, 0, 81, 80
2, 111584, Note_off_c, 0, 81, 64
2, 111600, Note_on_c, 0, 65, 80
2, 111600, Note_on_c, 0, 80, 80
2, 111600, Note_on_c, 0, 53, 80
2, 111664, Note_off_c, 0, 80, 64
2, 111680, Note_on_c, 0, 74, 80
2, 111744, Note_off_c, 0, 74, 64
2, 111760, Note_on_c, 0, 71, 80
2, 111792, Note_off_c, 0, 53, 64
2, 111792, Note_off_c, 0, 65, 64
2, 111824, Note_off_c, 0, 71, 64
2, 111840, Note_on_c, 0, 72, 80
2, 111840, Note_on_c, 0, 64, 80
2, 111840, Note_on_c, 0, 52, 80
2, 111904, Note_off_c, 0, 72, 64
2, 111920, Note_on_c, 0, 76, 80
2, 111984, Note_off_c, 0, 76, 64
2, 112000, Note_on_c, 0, 79, 80
2, 112032, Note_off_c, 0, 52, 64
2, 112032, Note_off_c, 0, 64, 64
2, 112064, Note_off_c, 0, 79, 64
2, 112080, Note_on_c, 0, 75, 80
2, 112144, Note_off_c, 0, 75, 64
2, 112160, Note_on_c, 0, 72, 80
2, 112224, Note_off_c, 0, 72, 64
2, 112240, Note_on_c, 0, 70, 80
2, 112304, Note_off_c, 0, 70, 64
2, 112320, Note_on_c, 0, 51, 80
2, 112320, Note_on_c, 0, 63, 80
2, 112320, Note_on_c, 0, 69, 80
2, 112384, Note_off_c, 0, 69, 64
2, 112400, Note_on_c, 0, 72, 80
2, 112464, Note_off_c, 0, 72, 64
2, 112480, Note_on_c, 0, 78, 80
2, 112512, Note_off_c, 0, 63, 64
2, 112512, Note_off_c, 0, 51, 64
2, 112544, Note_off_c, 0, 78, 64
2, 112560, Note_on_c, 0, 62, 80
2, 112560, Note_on_c, 0, 50, 80
2, 112560, Note_on_c, 0, 77, 80
2, 112624, Note_off_c, 0, 77, 64
2, 112640, Note_on_c, 0, 74, 80
2, 112704, Note_off_c, 0, 74, 64
2, 112720, Note_on_c, 0, 70, 80
2, 112752, Note_off_c, 0, 50, 64
2, 112752, Note_off_c, 0, 62, 64
2, 112784, Note_off_c, 0, 70, 64
2, 112800, Note_on_c, 0, 69, 80
2, 112864, Note_off_c, 0, 69, 64
2, 112880, Note_on_c, 0, 74, 80
2, 112944, Note_off_c, 0, 74, 64
2, 112960, Note_on_c, 0, 77, 80
2, 113024, Note_off_c, 0, 77, 64
2, 113040, Note_on_c, 0, 50, 80
2, 113040, Note_on_c, 0, 62, 80
2, 113040, Note_on_c, 0, 77, 80
2, 113104, Note_off_c, 0, 77, 64
2, 113120, Note_on_c, 0, 71, 80
2, 113184, Note_off_c, 0, 71, 64
2, 113200, Note_on_c, 0, 68, 80
2, 113232, Note_off_c, 0, 62, 64
2, 113232, Note_off_c, 0, 50, 64
2, 113264, Note_off_c, 0, 68, 64
2, 113280, Note_on_c, 0, 61, 80
2, 113280, Note_on_c, 0, 49, 80
2, 113280, Note_on_c, 0, 69, 80
2, 113344, Note_off_c, 0, 69, 64
2, 113360, Note_on_c, 0, 73, 80
2, 113424, Note_off_c, 0, 73, 64
2, 113440, Note_on_c, 0, 76, 80
2, 113472, Note_off_c, 0, 49, 64
2, 113472, Note_off_c, 0, 61, 64
2, 113504, Note_off_c, 0, 76, 64
2, 113520, Note_on_c, 0, 72, 80
2, 113584, Note_off_c, 0, 72, 64
2, 113600, Note_on_c, 0, 69, 80
2, 113664, Note_off_c, 0, 69, 64
2, 113680, Note_on_c, 0, 67, 80
2, 113744, Note_off_c, 0, 67, 64
2, 113760, Note_on_c, 0, 48, 80
2, 113760, Note_on_c, 0, 60, 80
2, 113760, Note_on_c, 0, 66, 80
2, 113824, Note_off_c, 0, 66, 64
2, 113840, Note_on_c, 0, 69, 80
2, 113904, Note_off_c, 0, 69, 64
2, 113920, Note_on_c, 0, 75, 80
2, 113952, Note_off_c, 0, 60, 64
2, 113952, Note_off_c, 0, 48, 64
2, 113984, Note_off_c, 0, 75, 64
2, 114000, Note_on_c, 0, 59, 80
2, 114000, Note_on_c, 0, 47, 80
2, 114000, Note_on_c, 0, 74, 80
2, 114064, Note_off_c, 0, 74, 64
2, 114080, Note_on_c, 0, 71, 80
2, 114144, Note_off_c, 0, 71, 64
2, 114160, Note_on_c, 0, 67, 80
2, 114192, Note_off_c, 0, 47, 64
2, 114192, Note_off_c, 0, 59, 64
2, 114224, Note_off_c, 0, 67, 64
2, 114240, Note_on_c, 0, 65, 80
2, 114304, Note_off_c, 0, 65, 64
2, 114320, Note_on_c, 0, 70, 80
2, 114384, Note_off_c, 0, 70, 64
2, 114400, Note_on_c, 0, 74, 80
2, 114464, Note_off_c, 0, 74, 64
2, 114480, Note_on_c, 0, 46, 80
2, 114480, Note_on_c, 0, 58, 80
2, 114480, Note_on_c, 0, 73, 80
2, 114544, Note_off_c, 0, 73, 64
2, 114560, Note_on_c, 0, 67, 80
2, 114624, Note_off_c, 0, 67, 64
2, 114640, Note_on_c, 0, 64, 80
2, 114672, Note_off_c, 0, 58, 64
2, 114672, Note_off_c, 0, 46, 64
2, 114704, Note_off_c, 0, 64, 64
2, 114720, Note_on_c, 0, 65, 80
2, 114720, Note_on_c, 0, 57, 80
2, 114720, Note_on_c, 0, 45, 80
2, 114784, Note_off_c, 0, 65, 64
2, 114800, Note_on_c, 0, 69, 80
2, 114864, Note_off_c, 0, 69, 64
2, 114880, Note_on_c, 0, 72, 80
2, 114912, Note_off_c, 0, 45, 64
2, 114912, Note_off_c, 0, 57, 64
2, 114944, Note_off_c, 0, 72, 64
2, 114960, Note_on_c, 0, 77, 80
2, 115024, Note_off_c, 0, 77, 64
2, 115040, Note_on_c, 0, 72, 80
2, 115104, Note_off_c, 0, 72, 64
2, 115120, Note_on_c, 0, 69, 80
2, 115184, Note_off_c, 0, 69, 64
2, 115200, Note_on_c, 0, 67, 80
2, 115200, Note_on_c, 0, 46, 80
2, 115200, Note_on_c, 0, 58, 80
2, 115264, Note_off_c, 0, 67, 64
2, 115280, Note_on_c, 0, 70, 80
2, 115344, Note_off_c, 0, 70, 64
2, 115360, Note_on_c, 0, 69, 80
2, 115392, Note_off_c, 0, 58, 64
2, 115392, Note_off_c, 0, 46, 64
2, 115424, Note_off_c, 0, 69, 64
2, 115440, Note_on_c, 0, 70, 80
2, 115504, Note_off_c, 0, 70, 64
2, 115520, Note_on_c, 0, 74, 80
2, 115584, Note_off_c, 0, 74, 64
2, 115600, Note_on_c, 0, 73, 80
2, 115664, Note_off_c, 0, 73, 64
2, 115680, Note_on_c, 0, 74, 80
2, 115744, Note_off_c, 0, 74, 64
2, 115760, Note_on_c, 0, 79, 80
2, 115824, Note_off_c, 0, 79, 64
2, 115840, Note_on_c, 0, 78, 80
2, 115904, Note_off_c, 0, 78, 64
2, 115920, Note_on_c, 0, 79, 80
2, 115984, Note_off_c, 0, 79, 64
2, 116000, Note_on_c, 0, 82, 80
2, 116064, Note_off_c, 0, 82, 64
2, 116080, Note_on_c, 0, 81, 80
2, 116144, Note_off_c, 0, 81, 64
2, 116160, Note_on_c, 0, 82, 80
2, 116224, Note_off_c, 0, 82, 64
2, 116240, Note_on_c, 0, 86, 80
2, 116304, Note_off_c, 0, 86, 64
2, 116320, Note_on_c, 0, 85, 80
2, 116384, Note_off_c, 0, 85, 64
2, 116400, Note_on_c, 0, 86, 80
2, 116464, Note_off_c, 0, 86, 64
2, 116480, Note_on_c, 0, 82, 80
2, 116544, Note_off_c, 0, 82, 64
2, 116560, Note_on_c, 0, 81, 80
2, 116624, Note_off_c, 0, 81, 64
2, 116640, Note_on_c, 0, 82, 80
2, 116704, Note_off_c, 0, 82, 64
2, 116720, Note_on_c, 0, 79, 80
2, 116784, Note_off_c, 0, 79, 64
2, 116800, Note_on_c, 0, 78, 80
2, 116864, Note_off_c, 0, 78, 64
2, 116880, Note_on_c, 0, 79, 80
2, 116944, Note_off_c, 0, 79, 64
2, 116960, Note_on_c, 0, 74, 80
2, 117024, Note_off_c, 0, 74, 64
2, 117040, Note_on_c, 0, 73, 80
2, 117104, Note_off_c, 0, 73, 64
2, 117120, Note_on_c, 0, 46, 80
2, 117120, Note_on_c, 0, 58, 80
2, 117120, Note_on_c, 0, 74, 80
2, 117184, Note_off_c, 0, 74, 64
2, 117200, Note_on_c, 0, 70, 80
2, 117264, Note_off_c, 0, 70, 64
2, 117280, Note_on_c, 0, 67, 80
2, 117312, Note_off_c, 0, 58, 64
2, 117312, Note_off_c, 0, 46, 64
2, 117344, Note_off_c, 0, 67, 64
2, 117360, Note_on_c, 0, 57, 80
2, 117360, Note_on_c, 0, 48, 80
2, 117360, Note_on_c, 0, 65, 80
2, 117552, Note_off_c, 0, 65, 64
2, 117552, Note_off_c, 0, 48, 64
2, 117552, Note_off_c, 0, 57, 64
2, 117600, Note_on_c, 0, 55, 80
2, 117600, Note_on_c, 0, 64, 80
2, 117792, Note_off_c, 0, 64, 64
2, 117792, Note_off_c, 0, 55, 64
2, 118080, Note_on_c, 0, 29, 80
2, 118080, Note_on_c, 0, 41, 80
2, 118272, Note_off_c, 0, 41, 64
2, 118272, Note_off_c, 0, 29, 64
2, 118320, Note_on_c, 0, 33, 80
2, 118320, Note_on_c, 0, 45, 80
2, 118512, Note_off_c, 0, 45, 64
2, 118512, Note_off_c, 0, 33, 64
2, 118560, Note_on_c, 0, 36, 80
2, 118560, Note_on_c, 0, 48, 80
2, 118752, Note_off_c, 0, 48, 64
2, 118752, Note_off_c, 0, 36, 64
2, 118800, Note_on_c, 0, 84, 80
2, 118848, Note_off_c, 0, 84, 64
2, 118860, Note_on_c, 0, 86, 80
2, 118908, Note_off_c, 0, 86, 64
2, 118920, Note_on_c, 0, 84, 80
2, 118968, Note_off_c, 0, 84, 64
2, 118980, Note_on_c, 0, 81, 80
2, 119028, Note_off_c, 0, 81, 64
2, 119040, Note_on_c, 0, 84, 80
2, 119088, Note_off_c, 0, 84, 64
2, 119100, Note_on_c, 0, 86, 80
2, 119148, Note_off_c, 0, 86, 64
2, 119160, Note_on_c, 0, 84, 80
2, 119208, Note_off_c, 0, 84, 64
2, 119220, Note_on_c, 0, 81, 80
2, 119268, Note_off_c, 0, 81, 64
2, 119280, Note_on_c, 0, 82, 80
2, 119328, Note_off_c, 0, 82, 64
2, 119340, Note_on_c, 0, 84, 80
2, 119388, Note_off_c, 0, 84, 64
2, 119400, Note_on_c, 0, 82, 80
2, 119448, Note_off_c, 0, 82, 64
2, 119460, Note_on_c, 0, 79, 80
2, 119508, Note_off_c, 0, 79, 64
2, 119520, Note_on_c, 0, 81, 80
2, 119520, Note_on_c, 0, 72, 80
2, 119568, Note_off_c, 0, 72, 64
2, 119568, Note_off_c, 0, 81, 64
2, 119580, Note_on_c, 0, 74, 80
2, 119580, Note_on_c, 0, 82, 80
2, 119628, Note_off_c, 0, 82, 64
2, 119628, Note_off_c, 0, 74, 64
2, 119640, Note_on_c, 0, 72, 80
2, 119640, Note_on_c, 0, 81, 80
2, 119688, Note_off_c, 0, 81, 64
2, 119688, Note_off_c, 0, 72, 64
2, 119700, Note_on_c, 0, 77, 80
2, 119700, Note_on_c, 0, 69, 80
2, 119748, Note_off_c, 0, 69, 64
2, 119748, Note_off_c, 0, 77, 64
2, 119760, Note_on_c, 0, 81, 80
2, 119760, Note_on_c, 0, 72, 80
2, 119808, Note_off_c, 0, 72, 64
2, 119808, Note_off_c, 0, 81, 64
2, 119820, Note_on_c, 0, 82, 80
2, 119820, Note_on_c, 0, 74, 80
2, 119868, Note_off_c, 0, 74, 64
2, 119868, Note_off_c, 0, 82, 64
2, 119880, Note_on_c, 0, 72, 80
2, 119880, Note_on_c, 0, 81, 80
2, 119928, Note_off_c, 0, 81, 64
2, 119928, Note_off_c, 0, 72, 64
2, 119940, Note_on_c, 0, 77, 80
2, 119940, Note_on_c, 0, 69, 80
2, 119988, Note_off_c, 0, 69, 64
2, 119988, Note_off_c, 0, 77, 64
2, 120000, Note_on_c, 0, 70, 80
2, 120000, Note_on_c, 0, 79, 80
2, 120048, Note_off_c, 0, 79, 64
2, 120048, Note_off_c, 0, 70, 64
2, 120060, Note_on_c, 0, 72, 80
2, 120060, Note_on_c, 0, 81, 80
2, 120108, Note_off_c, 0, 81, 64
2, 120108, Note_off_c, 0, 72, 64
2, 120120, Note_on_c, 0, 70, 80
2, 120120, Note_on_c, 0, 79, 80
2, 120168, Note_off_c, 0, 79, 64
2, 120168, Note_off_c, 0, 70, 64
2, 120180, Note_on_c, 0, 67, 80
2, 120180, Note_on_c, 0, 76, 80
2, 120228, Note_off_c, 0, 76, 64
2, 120228, Note_off_c, 0, 67, 64
2, 120240, Note_on_c, 0, 77, 80
2, 120240, Note_on_c, 0, 69, 80
2, 120336, Note_off_c, 0, 69, 64
2, 120360, Note_on_c, 0, 60, 80
2, 120456, Note_off_c, 0, 60, 64
2, 120480, Note_on_c, 0, 65, 80
2, 120528, Note_off_c, 0, 77, 64
2, 120576, Note_off_c, 0, 65, 64
2, 120600, Note_on_c, 0, 60, 80
2, 120600, Note_on_c, 0, 79, 80
2, 120648, Note_off_c, 0, 79, 64
2, 120660, Note_on_c, 0, 81, 80
2, 120696, Note_off_c, 0, 60, 64
2, 120708, Note_off_c, 0, 81, 64
2, 120720, Note_on_c, 0, 64, 80
2, 120720, Note_on_c, 0, 79, 80
2, 120912, Note_off_c, 0, 79, 64
2, 120912, Note_off_c, 0, 64, 64
2, 120960, Note_on_c, 0, 48, 80
2, 120960, Note_on_c, 0, 36, 80
2, 121152, Note_off_c, 0, 36, 64
2, 121152, Note_off_c, 0, 48, 64
2, 121200, Note_on_c, 0, 52, 80
2, 121200, Note_on_c, 0, 40, 80
2, 121392, Note_off_c, 0, 40, 64
2, 121392, Note_off_c, 0, 52, 64
2, 121440, Note_on_c, 0, 55, 80
2, 121440, Note_on_c, 0, 43, 80
2, 121632, Note_off_c, 0, 43, 64
2, 121632, Note_off_c, 0, 55, 64
2, 121680, Note_on_c, 0, 82, 80
2, 121728, Note_off_c, 0, 82, 64
2, 121740, Note_on_c, 0, 84, 80
2, 121788, Note_off_c, 0, 84, 64
2, 121800, Note_on_c, 0, 82, 80
2, 121848, Note_off_c, 0, 82, 64
2, 121860, Note_on_c, 0, 79, 80
2, 121908, Note_off_c, 0, 79, 64
2, 121920, Note_on_c, 0, 82, 80
2, 121968, Note_off_c, 0, 82, 64
2, 121980, Note_on_c, 0, 84, 80
2, 122028, Note_off_c, 0, 84, 64
2, 122040, Note_on_c, 0, 82, 80
2, 122088, Note_off_c, 0, 82, 64
2, 122100, Note_on_c, 0, 79, 80
2, 122148, Note_off_c, 0, 79, 64
2, 122160, Note_on_c, 0, 81, 80
2, 122208, Note_off_c, 0, 81, 64
2, 122220, Note_on_c, 0, 82, 80
2, 122268, Note_off_c, 0, 82, 64
2, 122280, Note_on_c, 0, 81, 80
2, 122328, Note_off_c, 0, 81, 64
2, 122340, Note_on_c, 0, 77, 80
2, 122388, Note_off_c, 0, 77, 64
2, 122400, Note_on_c, 0, 79, 80
2, 122400, Note_on_c, 0, 70, 80
2, 122448, Note_off_c, 0, 70, 64
2, 122448, Note_off_c, 0, 79, 64
2, 122460, Note_on_c, 0, 72, 80
2, 122460, Note_on_c, 0, 81, 80
2, 122508, Note_off_c, 0, 81, 64
2, 122508, Note_off_c, 0, 72, 64
2, 122520, Note_on_c, 0, 70, 80
2, 122520, Note_on_c, 0, 79, 80
2, 122568, Note_off_c, 0, 79, 64
2, 122568, Note_off_c, 0, 70, 64
2, 122580, Note_on_c, 0, 76, 80
2, 122580, Note_on_c, 0, 67, 80
2, 122628, Note_off_c, 0, 67, 64
2, 122628, Note_off_c, 0, 76, 64
2, 122640, Note_on_c, 0, 79, 80
2, 122640, Note_on_c, 0, 70, 80
2, 122688, Note_off_c, 0, 70, 64
2, 122688, Note_off_c, 0, 79, 64
2, 122700, Note_on_c, 0, 81, 80
2, 122700, Note_on_c, 0, 72, 80
2, 122748, Note_off_c, 0, 72, 64
2, 122748, Note_off_c, 0, 81, 64
2, 122760, Note_on_c, 0, 70, 80
2, 122760, Note_on_c, 0, 79, 80
2, 122808, Note_off_c, 0, 79, 64
2, 122808, Note_off_c, 0, 70, 64
2, 122820, Note_on_c, 0, 76, 80
2, 122820, Note_on_c, 0, 67, 80
2, 122868, Note_off_c, 0, 67, 64
2, 122868, Note_off_c, 0, 76, 64
2, 122880, Note_on_c, 0, 69, 80
2, 122880, Note_on_c, 0, 77, 80
2, 122928, Note_off_c, 0, 77, 64
2, 122928, Note_off_c, 0, 69, 64
2, 122940, Note_on_c, 0, 70, 80
2, 122940, Note_on_c, 0, 76, 80
2, 122988, Note_off_c, 0, 76, 64
2, 122988, Note_off_c, 0, 70, 64
2, 123000, Note_on_c, 0, 69, 80
2, 123000, Note_on_c, 0, 77, 80
2, 123048, Note_off_c, 0, 77, 64
2, 123048, Note_off_c, 0, 69, 64
2, 123060, Note_on_c, 0, 65, 80
2, 123060, Note_on_c, 0, 81, 80
2, 123108, Note_off_c, 0, 81, 64
2, 123108, Note_off_c, 0, 65, 64
2, 123120, Note_on_c, 0, 79, 80
2, 123120, Note_on_c, 0, 70, 80
2, 123216, Note_off_c, 0, 70, 64
2, 123240, Note_on_c, 0, 67, 80
2, 123336, Note_off_c, 0, 67, 64
2, 123360, Note_on_c, 0, 64, 80
2, 123408, Note_off_c, 0, 79, 64
2, 123456, Note_off_c, 0, 64, 64
2, 123480, Note_on_c, 0, 60, 80
2, 123480, Note_on_c, 0, 81, 80
2, 123528, Note_off_c, 0, 81, 64
2, 123540, Note_on_c, 0, 82, 80
2, 123576, Note_off_c, 0, 60, 64
2, 123588, Note_off_c, 0, 82, 64
2, 123600, Note_on_c, 0, 65, 80
2, 123600, Note_on_c, 0, 81, 80
2, 123792, Note_off_c, 0, 81, 64
2, 123792, Note_off_c, 0, 65, 64
2, 123840, Note_on_c, 0, 41, 80
2, 123840, Note_on_c, 0, 53, 80
2, 123900, Note_on_c, 0, 84, 80
2, 123948, Note_off_c, 0, 84, 64
2, 123960, Note_on_c, 0, 82, 80
2, 124008, Note_off_c, 0, 82, 64
2, 124020, Note_on_c, 0, 84, 80
2, 124032, Note_off_c, 0, 53, 64
2, 124032, Note_off_c, 0, 41, 64
2, 124068, Note_off_c, 0, 84, 64
2, 124080, Note_on_c, 0, 45, 80
2, 124080, Note_on_c, 0, 81, 80
2, 124080, Note_on_c, 0, 57, 80
2, 124128, Note_off_c, 0, 81, 64
2, 124140, Note_on_c, 0, 82, 80
2, 124188, Note_off_c, 0, 82, 64
2, 124200, Note_on_c, 0, 79, 80
2, 124248, Note_off_c, 0, 79, 64
2, 124260, Note_on_c, 0, 81, 80
2, 124272, Note_off_c, 0, 57, 64
2, 124272, Note_off_c, 0, 45, 64
2, 124308, Note_off_c, 0, 81, 64
2, 124320, Note_on_c, 0, 48, 80
2, 124320, Note_on_c, 0, 60, 80
2, 124320, Note_on_c, 0, 77, 80
2, 124368, Note_off_c, 0, 77, 64
2, 124380, Note_on_c, 0, 79, 80
2, 124428, Note_off_c, 0, 79, 64
2, 124440, Note_on_c, 0, 76, 80
2, 124488, Note_off_c, 0, 76, 64
2, 124500, Note_on_c, 0, 77, 80
2, 124512, Note_off_c, 0, 60, 64
2, 124512, Note_off_c, 0, 48, 64
2, 124548, Note_off_c, 0, 77, 64
2, 124560, Note_on_c, 0, 74, 80
2, 124560, Note_on_c, 0, 62, 80
2, 124620, Note_on_c, 0, 50, 80
2, 124668, Note_off_c, 0, 50, 64
2, 124680, Note_on_c, 0, 48, 80
2, 124728, Note_off_c, 0, 48, 64
2, 124740, Note_on_c, 0, 50, 80
2, 124752, Note_off_c, 0, 62, 64
2, 124752, Note_off_c, 0, 74, 64
2, 124788, Note_off_c, 0, 50, 64
2, 124800, Note_on_c, 0, 46, 80
2, 124800, Note_on_c, 0, 77, 80
2, 124800, Note_on_c, 0, 65, 80
2, 124848, Note_off_c, 0, 46, 64
2, 124860, Note_on_c, 0, 48, 80
2, 124908, Note_off_c, 0, 48, 64
2, 124920, Note_on_c, 0, 45, 80
2, 124968, Note_off_c, 0, 45, 64
2, 124980, Note_on_c, 0, 46, 80
2, 124992, Note_off_c, 0, 65, 64
2, 124992, Note_off_c, 0, 77, 64
2, 125028, Note_off_c, 0, 46, 64
2, 125040, Note_on_c, 0, 43, 80
2, 125040, Note_on_c, 0, 82, 80
2, 125040, Note_on_c, 0, 70, 80
2, 125088, Note_off_c, 0, 43, 64
2, 125100, Note_on_c, 0, 45, 80
2, 125148, Note_off_c, 0, 45, 64
2, 125160, Note_on_c, 0, 41, 80
2, 125208, Note_off_c, 0, 41, 64
2, 125220, Note_on_c, 0, 43, 80
2, 125232, Note_off_c, 0, 70, 64
2, 125232, Note_off_c, 0, 82, 64
2, 125268, Note_off_c, 0, 43, 64
2, 125280, Note_on_c, 0, 40, 80
2, 125280, Note_on_c, 0, 52, 80
2, 125340, Note_on_c, 0, 82, 80
2, 125388, Note_off_c, 0, 82, 64
2, 125400, Note_on_c, 0, 81, 80
2, 125448, Note_off_c, 0, 81, 64
2, 125460, Note_on_c, 0, 82, 80
2, 125472, Note_off_c, 0, 52, 64
2, 125472, Note_off_c, 0, 40, 64
2, 125508, Note_off_c, 0, 82, 64
2, 125520, Note_on_c, 0, 43, 80
2, 125520, Note_on_c, 0, 79, 80
2, 125520, Note_on_c, 0, 55, 80
2, 125568, Note_off_c, 0, 79, 64
2, 125580, Note_on_c, 0, 81, 80
2, 125628, Note_off_c, 0, 81, 64
2, 125640, Note_on_c, 0, 77, 80
2, 125688, Note_off_c, 0, 77, 64
2, 125700, Note_on_c, 0, 79, 80
2, 125712, Note_off_c, 0, 55, 64
2, 125712, Note_off_c, 0, 43, 64
2, 125748, Note_off_c, 0, 79, 64
2, 125760, Note_on_c, 0, 46, 80
2, 125760, Note_on_c, 0, 58, 80
2, 125760, Note_on_c, 0, 76, 80
2, 125808, Note_off_c, 0, 76, 64
2, 125820, Note_on_c, 0, 77, 80
2, 125868, Note_off_c, 0, 77, 64
2, 125880, Note_on_c, 0, 74, 80
2, 125928, Note_off_c, 0, 74, 64
2, 125940, Note_on_c, 0, 76, 80
2, 125952, Note_off_c, 0, 58, 64
2, 125952, Note_off_c, 0, 46, 64
2, 125988, Note_off_c, 0, 76, 64
2, 126000, Note_on_c, 0, 72, 80
2, 126000, Note_on_c, 0, 60, 80
2, 126060, Note_on_c, 0, 48, 80
2, 126108, Note_off_c, 0, 48, 64
2, 126120, Note_on_c, 0, 46, 80
2, 126168, Note_off_c, 0, 46, 64
2, 126180, Note_on_c, 0, 48, 80
2, 126192, Note_off_c, 0, 60, 64
2, 126192, Note_off_c, 0, 72, 64
2, 126228, Note_off_c, 0, 48, 64
2, 126240, Note_on_c, 0, 45, 80
2, 126240, Note_on_c, 0, 76, 80
2, 126240, Note_on_c, 0, 64, 80
2, 126288, Note_off_c, 0, 45, 64
2, 126300, Note_on_c, 0, 46, 80
2, 126348, Note_off_c, 0, 46, 64
2, 126360, Note_on_c, 0, 43, 80
2, 126408, Note_off_c, 0, 43, 64
2, 126420, Note_on_c, 0, 45, 80
2, 126432, Note_off_c, 0, 64, 64
2, 126432, Note_off_c, 0, 76, 64
2, 126468, Note_off_c, 0, 45, 64
2, 126480, Note_on_c, 0, 41, 80
2, 126480, Note_on_c, 0, 81, 80
2, 126480, Note_on_c, 0, 69, 80
2, 126528, Note_off_c, 0, 41, 64
2, 126540, Note_on_c, 0, 43, 80
2, 126588, Note_off_c, 0, 43, 64
2, 126600, Note_on_c, 0, 40, 80
2, 126648, Note_off_c, 0, 40, 64
2, 126660, Note_on_c, 0, 41, 80
2, 126672, Note_off_c, 0, 69, 64
2, 126672, Note_off_c, 0, 81, 64
2, 126708, Note_off_c, 0, 41, 64
2, 126720, Note_on_c, 0, 38, 80
2, 126720, Note_on_c, 0, 50, 80
2, 126780, Note_on_c, 0, 81, 80
2, 126828, Note_off_c, 0, 81, 64
2, 126840, Note_on_c, 0, 79, 80
2, 126888, Note_off_c, 0, 79, 64
2, 126900, Note_on_c, 0, 81, 80
2, 126912, Note_off_c, 0, 50, 64
2, 126912, Note_off_c, 0, 38, 64
2, 126948, Note_off_c, 0, 81, 64
2, 126960, Note_on_c, 0, 77, 80
2, 127008, Note_off_c, 0, 77, 64
2, 127020, Note_on_c, 0, 79, 80
2, 127020, Note_on_c, 0, 64, 80
2, 127068, Note_off_c, 0, 64, 64
2, 127068, Note_off_c, 0, 79, 64
2, 127080, Note_on_c, 0, 60, 80
2, 127080, Note_on_c, 0, 76, 80
2, 127128, Note_off_c, 0, 76, 64
2, 127128, Note_off_c, 0, 60, 64
2, 127140, Note_on_c, 0, 77, 80
2, 127140, Note_on_c, 0, 62, 80
2, 127188, Note_off_c, 0, 62, 64
2, 127188, Note_off_c, 0, 77, 64
2, 127200, Note_on_c, 0, 58, 80
2, 127200, Note_on_c, 0, 74, 80
2, 127248, Note_off_c, 0, 74, 64
2, 127248, Note_off_c, 0, 58, 64
2, 127260, Note_on_c, 0, 60, 80
2, 127260, Note_on_c, 0, 76, 80
2, 127308, Note_off_c, 0, 76, 64
2, 127308, Note_off_c, 0, 60, 64
2, 127320, Note_on_c, 0, 57, 80
2, 127320, Note_on_c, 0, 72, 80
2, 127368, Note_off_c, 0, 72, 64
2, 127368, Note_off_c, 0, 57, 64
2, 127380, Note_on_c, 0, 58, 80
2, 127380, Note_on_c, 0, 74, 80
2, 127428, Note_off_c, 0, 74, 64
2, 127428, Note_off_c, 0, 58, 64
2, 127440, Note_on_c, 0, 70, 80
2, 127440, Note_on_c, 0, 55, 80
2, 127488, Note_off_c, 0, 55, 64
2, 127488, Note_off_c, 0, 70, 64
2, 127500, Note_on_c, 0, 57, 80
2, 127500, Note_on_c, 0, 72, 80
2, 127548, Note_off_c, 0, 72, 64
2, 127548, Note_off_c, 0, 57, 64
2, 127560, Note_on_c, 0, 53, 80
2, 127560, Note_on_c, 0, 69, 80
2, 127608, Note_off_c, 0, 69, 64
2, 127608, Note_off_c, 0, 53, 64
2, 127620, Note_on_c, 0, 70, 80
2, 127620, Note_on_c, 0, 55, 80
2, 127668, Note_off_c, 0, 55, 64
2, 127668, Note_off_c, 0, 70, 64
2, 127680, Note_on_c, 0, 67, 80
2, 127680, Note_on_c, 0, 52, 80
2, 127728, Note_off_c, 0, 52, 64
2, 127728, Note_off_c, 0, 67, 64
2, 127740, Note_on_c, 0, 69, 80
2, 127740, Note_on_c, 0, 53, 80
2, 127788, Note_off_c, 0, 53, 64
2, 127788, Note_off_c, 0, 69, 64
2, 127800, Note_on_c, 0, 50, 80
2, 127800, Note_on_c, 0, 65, 80
2, 127848, Note_off_c, 0, 65, 64
2, 127848, Note_off_c, 0, 50, 64
2, 127860, Note_on_c, 0, 67, 80
2, 127860, Note_on_c, 0, 52, 80
2, 127908, Note_off_c, 0, 52, 64
2, 127908, Note_off_c, 0, 67, 64
2, 127920, Note_on_c, 0, 48, 80
2, 127920, Note_on_c, 0, 64, 80
2, 127968, Note_off_c, 0, 64, 64
2, 127968, Note_off_c, 0, 48, 64
2, 127980, Note_on_c, 0, 50, 80
2, 127980, Note_on_c, 0, 65, 80
2, 128028, Note_off_c, 0, 65, 64
2, 128028, Note_off_c, 0, 50, 64
2, 128040, Note_on_c, 0, 46, 80
2, 128040, Note_on_c, 0, 62, 80
2, 128088, Note_off_c, 0, 62, 64
2, 128088, Note_off_c, 0, 46, 64
2, 128100, Note_on_c, 0, 48, 80
2, 128100, Note_on_c, 0, 64, 80
2, 128148, Note_off_c, 0, 64, 64
2, 128148, Note_off_c, 0, 48, 64
2, 128160, Note_on_c, 0, 45, 80
2, 128160, Note_on_c, 0, 60, 80
2, 128160, Note_on_c, 0, 33, 80
2, 128224, Note_off_c, 0, 60, 64
2, 128240, Note_on_c, 0, 72, 80
2, 128304, Note_off_c, 0, 72, 64
2, 128320, Note_on_c, 0, 70, 80
2, 128352, Note_off_c, 0, 33, 64
2, 128352, Note_off_c, 0, 45, 64
2, 128384, Note_off_c, 0, 70, 64
2, 128400, Note_on_c, 0, 69, 80
2, 128464, Note_off_c, 0, 69, 64
2, 128480, Note_on_c, 0, 72, 80
2, 128544, Note_off_c, 0, 72, 64
2, 128560, Note_on_c, 0, 67, 80
2, 128624, Note_off_c, 0, 67, 64
2, 128640, Note_on_c, 0, 65, 80
2, 128704, Note_off_c, 0, 65, 64
2, 128720, Note_on_c, 0, 72, 80
2, 128784, Note_off_c, 0, 72, 64
2, 128800, Note_on_c, 0, 63, 80
2, 128864, Note_off_c, 0, 63, 64
2, 128880, Note_on_c, 0, 34, 80
2, 128880, Note_on_c, 0, 46, 80
2, 128960, Note_on_c, 0, 63, 80
2, 129024, Note_off_c, 0, 63, 64
2, 129040, Note_on_c, 0, 61, 80
2, 129072, Note_off_c, 0, 46, 64
2, 129072, Note_off_c, 0, 34, 64
2, 129104, Note_off_c, 0, 61, 64
2, 129120, Note_on_c, 0, 62, 80
2, 129184, Note_off_c, 0, 62, 64
2, 129200, Note_on_c, 0, 67, 80
2, 129264, Note_off_c, 0, 67, 64
2, 129280, Note_on_c, 0, 66, 80
2, 129344, Note_off_c, 0, 66, 64
2, 129360, Note_on_c, 0, 69, 80
2, 129424, Note_off_c, 0, 69, 64
2, 129440, Note_on_c, 0, 67, 80
2, 129504, Note_off_c, 0, 67, 64
2, 129520, Note_on_c, 0, 70, 80
2, 129584, Note_off_c, 0, 70, 64
2, 129600, Note_on_c, 0, 35, 80
2, 129600, Note_on_c, 0, 47, 80
2, 129680, Note_on_c, 0, 74, 80
2, 129744, Note_off_c, 0, 74, 64
2, 129760, Note_on_c, 0, 72, 80
2, 129792, Note_off_c, 0, 47, 64
2, 129792, Note_off_c, 0, 35, 64
2, 129824, Note_off_c, 0, 72, 64
2, 129840, Note_on_c, 0, 71, 80
2, 129904, Note_off_c, 0, 71, 64
2, 129920, Note_on_c, 0, 74, 80
2, 129984, Note_off_c, 0, 74, 64
2, 130000, Note_on_c, 0, 69, 80
2, 130064, Note_off_c, 0, 69, 64
2, 130080, Note_on_c, 0, 67, 80
2, 130144, Note_off_c, 0, 67, 64
2, 130160, Note_on_c, 0, 74, 80
2, 130224, Note_off_c, 0, 74, 64
2, 130240, Note_on_c, 0, 65, 80
2, 130304, Note_off_c, 0, 65, 64
2, 130320, Note_on_c, 0, 36, 80
2, 130320, Note_on_c, 0, 48, 80
2, 130400, Note_on_c, 0, 65, 80
2, 130464, Note_off_c, 0, 65, 64
2, 130480, Note_on_c, 0, 63, 80
2, 130512, Note_off_c, 0, 48, 64
2, 130512, Note_off_c, 0, 36, 64
2, 130544, Note_off_c, 0, 63, 64
2, 130560, Note_on_c, 0, 64, 80
2, 130624, Note_off_c, 0, 64, 64
2, 130640, Note_on_c, 0, 69, 80
2, 130704, Note_off_c, 0, 69, 64
2, 130720, Note_on_c, 0, 68, 80
2, 130784, Note_off_c, 0, 68, 64
2, 130800, Note_on_c, 0, 71, 80
2, 130864, Note_off_c, 0, 71, 64
2, 130880, Note_on_c, 0, 69, 80
2, 130944, Note_off_c, 0, 69, 64
2, 130960, Note_on_c, 0, 72, 80
2, 131024, Note_off_c, 0, 72, 64
2, 131040, Note_on_c, 0, 37, 80
2, 131040, Note_on_c, 0, 49, 80
2, 131120, Note_on_c, 0, 76, 80
2, 131184, Note_off_c, 0, 76, 64
2, 131200, Note_on_c, 0, 74, 80
2, 131232, Note_off_c, 0, 49, 64
2, 131232, Note_off_c, 0, 37, 64
2, 131264, Note_off_c, 0, 74, 64
2, 131280, Note_on_c, 0, 73, 80
2, 131344, Note_off_c, 0, 73, 64
2, 131360, Note_on_c, 0, 76, 80
2, 131424, Note_off_c, 0, 76, 64
2, 131440, Note_on_c, 0, 70, 80
2, 131504, Note_off_c, 0, 70, 64
2, 131520, Note_on_c, 0, 69, 80
2, 131584, Note_off_c, 0, 69, 64
2, 131600, Note_on_c, 0, 76, 80
2, 131664, Note_off_c, 0, 76, 64
2, 131680, Note_on_c, 0, 67, 80
2, 131744, Note_off_c, 0, 67, 64
2, 131760, Note_on_c, 0, 38, 80
2, 131760, Note_on_c, 0, 50, 80
2, 131840, Note_on_c, 0, 64, 80
2, 131904, Note_off_c, 0, 64, 64
2, 131920, Note_on_c, 0, 65, 80
2, 131952, Note_off_c, 0, 50, 64
2, 131952, Note_off_c, 0, 38, 64
2, 131984, Note_off_c, 0, 65, 64
2, 132000, Note_on_c, 0, 70, 80
2, 132080, Note_on_c, 0, 61, 80
2, 132144, Note_off_c, 0, 61, 64
2, 132160, Note_on_c, 0, 62, 80
2, 132192, Note_off_c, 0, 70, 64
2, 132224, Note_off_c, 0, 62, 64
2, 132240, Note_on_c, 0, 69, 80
2, 132320, Note_on_c, 0, 59, 80
2, 132384, Note_off_c, 0, 59, 64
2, 132400, Note_on_c, 0, 60, 80
2, 132432, Note_off_c, 0, 69, 64
2, 132464, Note_off_c, 0, 60, 64
2, 132480, Note_on_c, 0, 58, 80
2, 132560, Note_on_c, 0, 66, 80
2, 132624, Note_off_c, 0, 66, 64
2, 132640, Note_on_c, 0, 67, 80
2, 132672, Note_off_c, 0, 58, 64
2, 132704, Note_off_c, 0, 67, 64
2, 132720, Note_on_c, 0, 74, 80
2, 132800, Note_on_c, 0, 57, 80
2, 132864, Note_off_c, 0, 57, 64
2, 132880, Note_on_c, 0, 58, 80
2, 132912, Note_off_c, 0, 74, 64
2, 132944, Note_off_c, 0, 58, 64
2, 132960, Note_on_c, 0, 72, 80
2, 133040, Note_on_c, 0, 56, 80
2, 133104, Note_off_c, 0, 56, 64
2, 133120, Note_on_c, 0, 57, 80
2, 133152, Note_off_c, 0, 72, 64
2, 133184, Note_off_c, 0, 57, 64
2, 133200, Note_on_c, 0, 46, 80
2, 133200, Note_on_c, 0, 72, 80
2, 133200, Note_on_c, 0, 55, 80
2, 133200, Note_on_c, 0, 70, 80
2, 133215, Note_off_c, 0, 72, 64
2, 133260, Note_on_c, 0, 69, 80
2, 133296, Note_off_c, 0, 70, 64
2, 133308, Note_off_c, 0, 69, 64
2, 133320, Note_on_c, 0, 67, 80
2, 133368, Note_off_c, 0, 67, 64
2, 133380, Note_on_c, 0, 65, 80
2, 133392, Note_off_c, 0, 55, 64
2, 133392, Note_off_c, 0, 46, 64
2, 133440, Note_on_c, 0, 48, 80
2, 133440, Note_on_c, 0, 57, 80
2, 133572, Note_off_c, 0, 65, 64
2, 133620, Note_on_c, 0, 64, 80
2, 133632, Note_off_c, 0, 57, 64
2, 133632, Note_off_c, 0, 48, 64
2, 133644, Note_off_c, 0, 64, 64
2, 133650, Note_on_c, 0, 65, 80
2, 133674, Note_off_c, 0, 65, 64
2, 133680, Note_on_c, 0, 58, 80
2, 133680, Note_on_c, 0, 64, 80
2, 133704, Note_off_c, 0, 64, 64
2, 133710, Note_on_c, 0, 65, 80
2, 133734, Note_off_c, 0, 65, 64
2, 133740, Note_on_c, 0, 64, 80
2, 133764, Note_off_c, 0, 64, 64
2, 133770, Note_on_c, 0, 65, 80
2, 133794, Note_off_c, 0, 65, 64
2, 133800, Note_on_c, 0, 62, 80
2, 133824, Note_off_c, 0, 62, 64
2, 133830, Note_on_c, 0, 64, 80
2, 133854, Note_off_c, 0, 64, 64
2, 133860, Note_on_c, 0, 64, 80
2, 133872, Note_off_c, 0, 58, 64
2, 133884, Note_off_c, 0, 64, 64
2, 133890, Note_on_c, 0, 65, 80
2, 133914, Note_off_c, 0, 65, 64
2, 133920, Note_on_c, 0, 53, 80
2, 133920, Note_on_c, 0, 65, 80
2, 133968, Note_off_c, 0, 53, 64
2, 133980, Note_on_c, 0, 57, 80
2, 134028, Note_off_c, 0, 57, 64
2, 134040, Note_on_c, 0, 60, 80
2, 134088, Note_off_c, 0, 60, 64
2, 134100, Note_on_c, 0, 65, 80
2, 134112, Note_off_c, 0, 65, 64
2, 134148, Note_off_c, 0, 65, 64
2, 134160, Note_on_c, 0, 69, 80
2, 134220, Note_on_c, 0, 76, 80
2, 134256, Note_off_c, 0, 69, 64
2, 134268, Note_off_c, 0, 76, 64
2, 134280, Note_on_c, 0, 77, 80
2, 134328, Note_off_c, 0, 77, 64
2, 134340, Note_on_c, 0, 79, 80
2, 134385, Note_on_c, 0, 82, 80
2, 134388, Note_off_c, 0, 79, 64
2, 134400, Note_off_c, 0, 82, 64
2, 134400, Note_on_c, 0, 81, 80
2, 134496, Note_off_c, 0, 81, 64
2, 134520, Note_on_c, 0, 79, 80
2, 134568, Note_off_c, 0, 79, 64
2, 134580, Note_on_c, 0, 77, 80
2, 134628, Note_off_c, 0, 77, 64
2, 134640, Note_on_c, 0, 55, 80
2, 134640, Note_on_c, 0, 76, 80
2, 134688, Note_off_c, 0, 55, 64
2, 134700, Note_on_c, 0, 58, 80
2, 134748, Note_off_c, 0, 58, 64
2, 134760, Note_on_c, 0, 62, 80
2, 134808, Note_off_c, 0, 62, 64
2, 134820, Note_on_c, 0, 67, 80
2, 134832, Note_off_c, 0, 76, 64
2, 134868, Note_off_c, 0, 67, 64
2, 134880, Note_on_c, 0, 70, 80
2, 134940, Note_on_c, 0, 78, 80
2, 134976, Note_off_c, 0, 70, 64
2, 134988, Note_off_c, 0, 78, 64
2, 135000, Note_on_c, 0, 79, 80
2, 135048, Note_off_c, 0, 79, 64
2, 135060, Note_on_c, 0, 81, 80
2, 135105, Note_on_c, 0, 84, 80
2, 135108, Note_off_c, 0, 81, 64
2, 135120, Note_off_c, 0, 84, 64
2, 135120, Note_on_c, 0, 82, 80
2, 135216, Note_off_c, 0, 82, 64
2, 135240, Note_on_c, 0, 81, 80
2, 135288, Note_off_c, 0, 81, 64
2, 135300, Note_on_c, 0, 79, 80
2, 135348, Note_off_c, 0, 79, 64
2, 135360, Note_on_c, 0, 57, 80
2, 135360, Note_on_c, 0, 77, 80
2, 135408, Note_off_c, 0, 57, 64
2, 135420, Note_on_c, 0, 60, 80
2, 135468, Note_off_c, 0, 60, 64
2, 135480, Note_on_c, 0, 65, 80
2, 135528, Note_off_c, 0, 65, 64
2, 135540, Note_on_c, 0, 69, 80
2, 135552, Note_off_c, 0, 77, 64
2, 135588, Note_off_c, 0, 69, 64
2, 135600, Note_on_c, 0, 72, 80
2, 135660, Note_on_c, 0, 80, 80
2, 135696, Note_off_c, 0, 72, 64
2, 135708, Note_off_c, 0, 80, 64
2, 135720, Note_on_c, 0, 81, 80
2, 135768, Note_off_c, 0, 81, 64
2, 135780, Note_on_c, 0, 82, 80
2, 135825, Note_on_c, 0, 86, 80
2, 135828, Note_off_c, 0, 82, 64
2, 135840, Note_off_c, 0, 86, 64
2, 135840, Note_on_c, 0, 84, 80
2, 135953, Note_off_c, 0, 84, 64
2, 135960, Note_on_c, 0, 82, 80
2, 136008, Note_off_c, 0, 82, 64
2, 136020, Note_on_c, 0, 81, 80
2, 136068, Note_off_c, 0, 81, 64
2, 136080, Note_on_c, 0, 74, 80
2, 136080, Note_on_c, 0, 78, 80
2, 136080, Note_on_c, 0, 70, 80
2, 136128, Note_off_c, 0, 78, 64
2, 136140, Note_on_c, 0, 79, 80
2, 136188, Note_off_c, 0, 79, 64
2, 136200, Note_on_c, 0, 82, 80
2, 136248, Note_off_c, 0, 82, 64
2, 136260, Note_on_c, 0, 81, 80
2, 136272, Note_off_c, 0, 70, 64
2, 136272, Note_off_c, 0, 74, 64
2, 136308, Note_off_c, 0, 81, 64
2, 136320, Note_on_c, 0, 70, 80
2, 136320, Note_on_c, 0, 78, 80
2, 136320, Note_on_c, 0, 74, 80
2, 136368, Note_off_c, 0, 78, 64
2, 136380, Note_on_c, 0, 79, 80
2, 136428, Note_off_c, 0, 79, 64
2, 136440, Note_on_c, 0, 82, 80
2, 136488, Note_off_c, 0, 82, 64
2, 136500, Note_on_c, 0, 81, 80
2, 136512, Note_off_c, 0, 74, 64
2, 136512, Note_off_c, 0, 70, 64
2, 136545, Note_on_c, 0, 84, 80
2, 136548, Note_off_c, 0, 81, 64
2, 136560, Note_off_c, 0, 84, 64
2, 136560, Note_on_c, 0, 70, 80
2, 136560, Note_on_c, 0, 74, 80
2, 136560, Note_on_c, 0, 82, 80
2, 136673, Note_off_c, 0, 82, 64
2, 136680, Note_on_c, 0, 81, 80
2, 136728, Note_off_c, 0, 81, 64
2, 136740, Note_on_c, 0, 79, 80
2, 136752, Note_off_c, 0, 74, 64
2, 136752, Note_off_c, 0, 70, 64
2, 136788, Note_off_c, 0, 79, 64
2, 136800, Note_on_c, 0, 74, 80
2, 136800, Note_on_c, 0, 77, 80
2, 136800, Note_on_c, 0, 86, 80
2, 136800, Note_on_c, 0, 70, 80
2, 136848, Note_off_c, 0, 86, 64
2, 136860, Note_on_c, 0, 82, 80
2, 136908, Note_off_c, 0, 82, 64
2, 136920, Note_on_c, 0, 81, 80
2, 136968, Note_off_c, 0, 81, 64
2, 136980, Note_on_c, 0, 79, 80
2, 136992, Note_off_c, 0, 70, 64
2, 136992, Note_off_c, 0, 77, 64
2, 136992, Note_off_c, 0, 74, 64
2, 136995, Note_on_c, 0, 79, 80
2, 136995, Note_on_c, 0, 77, 80
2, 137010, Note_off_c, 0, 77, 64
2, 137010, Note_off_c, 0, 79, 64
2, 137010, Note_on_c, 0, 81, 80
2, 137025, Note_off_c, 0, 81, 64
2, 137028, Note_off_c, 0, 79, 64
2, 137040, Note_on_c, 0, 72, 80
2, 137040, Note_on_c, 0, 77, 80
2, 137070, Note_on_c, 0, 79, 80
2, 137094, Note_off_c, 0, 79, 64
2, 137100, Note_on_c, 0, 81, 80
2, 137124, Note_off_c, 0, 81, 64
2, 137130, Note_on_c, 0, 79, 80
2, 137154, Note_off_c, 0, 79, 64
2, 137160, Note_on_c, 0, 81, 80
2, 137184, Note_off_c, 0, 81, 64
2, 137190, Note_on_c, 0, 79, 80
2, 137214, Note_off_c, 0, 79, 64
2, 137220, Note_on_c, 0, 81, 80
2, 137232, Note_off_c, 0, 77, 64
2, 137232, Note_off_c, 0, 72, 64
2, 137244, Note_off_c, 0, 81, 64
2, 137250, Note_on_c, 0, 79, 80
2, 137274, Note_off_c, 0, 79, 64
2, 137280, Note_on_c, 0, 76, 80
2, 137280, Note_on_c, 0, 81, 80
2, 137304, Note_off_c, 0, 81, 64
2, 137310, Note_on_c, 0, 79, 80
2, 137334, Note_off_c, 0, 79, 64
2, 137340, Note_on_c, 0, 81, 80
2, 137364, Note_off_c, 0, 81, 64
2, 137370, Note_on_c, 0, 79, 80
2, 137394, Note_off_c, 0, 79, 64
2, 137400, Note_on_c, 0, 81, 80
2, 137424, Note_off_c, 0, 81, 64
2, 137430, Note_on_c, 0, 79, 80
2, 137454, Note_off_c, 0, 79, 64
2, 137460, Note_on_c, 0, 81, 80
2, 137472, Note_off_c, 0, 76, 64
2, 137484, Note_off_c, 0, 81, 64
2, 137490, Note_on_c, 0, 79, 80
2, 137514, Note_off_c, 0, 79, 64
2, 137520, Note_on_c, 0, 72, 80
2, 137520, Note_on_c, 0, 69, 80
2, 137520, Note_on_c, 0, 41, 80
2, 137520, Note_on_c, 0, 77, 80
2, 137568, Note_off_c, 0, 41, 64
2, 137580, Note_on_c, 0, 45, 80
2, 137628, Note_off_c, 0, 45, 64
2, 137640, Note_on_c, 0, 48, 80
2, 137688, Note_off_c, 0, 48, 64
2, 137700, Note_on_c, 0, 53, 80
2, 137712, Note_off_c, 0, 77, 64
2, 137712, Note_off_c, 0, 69, 64
2, 137712, Note_off_c, 0, 72, 64
2, 137748, Note_off_c, 0, 53, 64
2, 137760, Note_on_c, 0, 57, 80
2, 137820, Note_on_c, 0, 64, 80
2, 137856, Note_off_c, 0, 57, 64
2, 137868, Note_off_c, 0, 64, 64
2, 137880, Note_on_c, 0, 65, 80
2, 137928, Note_off_c, 0, 65, 64
2, 137940, Note_on_c, 0, 67, 80
2, 137985, Note_on_c, 0, 70, 80
2, 137988, Note_off_c, 0, 67, 64
2, 138000, Note_off_c, 0, 70, 64
2, 138000, Note_on_c, 0, 69, 80
2, 138096, Note_off_c, 0, 69, 64
2, 138120, Note_on_c, 0, 67, 80
2, 138168, Note_off_c, 0, 67, 64
2, 138180, Note_on_c, 0, 65, 80
2, 138228, Note_off_c, 0, 65, 64
2, 138240, Note_on_c, 0, 43, 80
2, 138240, Note_on_c, 0, 64, 80
2, 138288, Note_off_c, 0, 43, 64
2, 138300, Note_on_c, 0, 46, 80
2, 138348, Note_off_c, 0, 46, 64
2, 138360, Note_on_c, 0, 52, 80
2, 138408, Note_off_c, 0, 52, 64
2, 138420, Note_on_c, 0, 55, 80
2, 138432, Note_off_c, 0, 64, 64
2, 138468, Note_off_c, 0, 55, 64
2, 138480, Note_on_c, 0, 58, 80
2, 138540, Note_on_c, 0, 66, 80
2, 138576, Note_off_c, 0, 58, 64
2, 138588, Note_off_c, 0, 66, 64
2, 138600, Note_on_c, 0, 67, 80
2, 138648, Note_off_c, 0, 67, 64
2, 138660, Note_on_c, 0, 69, 80
2, 138705, Note_on_c, 0, 72, 80
2, 138708, Note_off_c, 0, 69, 64
2, 138720, Note_off_c, 0, 72, 64
2, 138720, Note_on_c, 0, 70, 80
2, 138816, Note_off_c, 0, 70, 64
2, 138840, Note_on_c, 0, 69, 80
2, 138888, Note_off_c, 0, 69, 64
2, 138900, Note_on_c, 0, 67, 80
2, 138948, Note_off_c, 0, 67, 64
2, 138960, Note_on_c, 0, 45, 80
2, 138960, Note_on_c, 0, 65, 80
2, 139008, Note_off_c, 0, 45, 64
2, 139020, Note_on_c, 0, 48, 80
2, 139068, Note_off_c, 0, 48, 64
2, 139080, Note_on_c, 0, 53, 80
2, 139128, Note_off_c, 0, 53, 64
2, 139140, Note_on_c, 0, 57, 80
2, 139152, Note_off_c, 0, 65, 64
2, 139188, Note_off_c, 0, 57, 64
2, 139200, Note_on_c, 0, 60, 80
2, 139260, Note_on_c, 0, 68, 80
2, 139296, Note_off_c, 0, 60, 64
2, 139308, Note_off_c, 0, 68, 64
2, 139320, Note_on_c, 0, 69, 80
2, 139368, Note_off_c, 0, 69, 64
2, 139380, Note_on_c, 0, 70, 80
2, 139425, Note_on_c, 0, 74, 80
2, 139428, Note_off_c, 0, 70, 64
2, 139440, Note_off_c, 0, 74, 64
2, 139440, Note_on_c, 0, 72, 80
2, 139536, Note_off_c, 0, 72, 64
2, 139560, Note_on_c, 0, 70, 80
2, 139608, Note_off_c, 0, 70, 64
2, 139620, Note_on_c, 0, 69, 80
2, 139668, Note_off_c, 0, 69, 64
2, 139680, Note_on_c, 0, 46, 80
2, 139680, Note_on_c, 0, 67, 80
2, 139728, Note_off_c, 0, 46, 64
2, 139740, Note_on_c, 0, 50, 80
2, 139788, Note_off_c, 0, 50, 64
2, 139800, Note_on_c, 0, 55, 80
2, 139848, Note_off_c, 0, 55, 64
2, 139860, Note_on_c, 0, 58, 80
2, 139872, Note_off_c, 0, 67, 64
2, 139908, Note_off_c, 0, 58, 64
2, 139920, Note_on_c, 0, 62, 80
2, 139968, Note_off_c, 0, 62, 64
2, 139980, Note_on_c, 0, 55, 80
2, 140028, Note_off_c, 0, 55, 64
2, 140040, Note_on_c, 0, 58, 80
2, 140088, Note_off_c, 0, 58, 64
2, 140100, Note_on_c, 0, 62, 80
2, 140148, Note_off_c, 0, 62, 64
2, 140160, Note_on_c, 0, 46, 80
2, 140160, Note_on_c, 0, 67, 80
2, 140208, Note_off_c, 0, 46, 64
2, 140220, Note_on_c, 0, 50, 80
2, 140256, Note_off_c, 0, 67, 64
2, 140268, Note_off_c, 0, 50, 64
2, 140280, Note_on_c, 0, 55, 80
2, 140328, Note_off_c, 0, 55, 64
2, 140400, Note_on_c, 0, 58, 80
2, 140460, Note_on_c, 0, 62, 80
2, 140496, Note_off_c, 0, 58, 64
2, 140508, Note_off_c, 0, 62, 64
2, 140520, Note_on_c, 0, 67, 80
2, 140568, Note_off_c, 0, 67, 64
2, 140580, Note_on_c, 0, 70, 80
2, 140628, Note_off_c, 0, 70, 64
2, 140640, Note_on_c, 0, 74, 80
2, 140700, Note_on_c, 0, 58, 80
2, 140736, Note_off_c, 0, 74, 64
2, 140748, Note_off_c, 0, 58, 64
2, 140760, Note_on_c, 0, 62, 80
2, 140808, Note_off_c, 0, 62, 64
2, 140820, Note_on_c, 0, 67, 80
2, 140868, Note_off_c, 0, 67, 64
2, 140880, Note_on_c, 0, 70, 80
2, 140940, Note_on_c, 0, 76, 80
2, 140976, Note_off_c, 0, 70, 64
2, 140988, Note_off_c, 0, 76, 64
2, 141000, Note_on_c, 0, 77, 80
2, 141048, Note_off_c, 0, 77, 64
2, 141060, Note_on_c, 0, 73, 80
2, 141108, Note_off_c, 0, 73, 64
2, 141120, Note_on_c, 0, 74, 80
2, 141168, Note_off_c, 0, 74, 64
2, 141180, Note_on_c, 0, 69, 80
2, 141228, Note_off_c, 0, 69, 64
2, 141240, Note_on_c, 0, 70, 80
2, 141288, Note_off_c, 0, 70, 64
2, 141300, Note_on_c, 0, 67, 80
2, 141348, Note_off_c, 0, 67, 64
2, 141360, Note_on_c, 0, 65, 80
2, 141360, Note_on_c, 0, 53, 80
2, 141360, Note_on_c, 0, 48, 80
2, 141384, Note_off_c, 0, 65, 64
2, 141390, Note_on_c, 0, 67, 80
2, 141414, Note_off_c, 0, 67, 64
2, 141420, Note_on_c, 0, 69, 80
2, 141444, Note_off_c, 0, 69, 64
2, 141450, Note_on_c, 0, 67, 80
2, 141474, Note_off_c, 0, 67, 64
2, 141480, Note_on_c, 0, 69, 80
2, 141504, Note_off_c, 0, 69, 64
2, 141510, Note_on_c, 0, 67, 80
2, 141534, Note_off_c, 0, 67, 64
2, 141540, Note_on_c, 0, 69, 80
2, 141552, Note_off_c, 0, 48, 64
2, 141552, Note_off_c, 0, 53, 64
2, 141564, Note_off_c, 0, 69, 64
2, 141570, Note_on_c, 0, 67, 80
2, 141594, Note_off_c, 0, 67, 64
2, 141600, Note_on_c, 0, 52, 80
2, 141600, Note_on_c, 0, 69, 80
2, 141624, Note_off_c, 0, 69, 64
2, 141630, Note_on_c, 0, 67, 80
2, 141654, Note_off_c, 0, 67, 64
2, 141660, Note_on_c, 0, 69, 80
2, 141684, Note_off_c, 0, 69, 64
2, 141690, Note_on_c, 0, 67, 80
2, 141714, Note_off_c, 0, 67, 64
2, 141720, Note_on_c, 0, 69, 80
2, 141744, Note_off_c, 0, 69, 64
2, 141750, Note_on_c, 0, 67, 80
2, 141774, Note_off_c, 0, 67, 64
2, 141780, Note_on_c, 0, 69, 80
2, 141792, Note_off_c, 0, 52, 64
2, 141804, Note_off_c, 0, 69, 64
2, 141810, Note_on_c, 0, 67, 80
2, 141834, Note_off_c, 0, 67, 64
2, 141840, Note_on_c, 0, 53, 80
2, 141840, Note_on_c, 0, 65, 80
2, 141888, Note_off_c, 0, 53, 64
2, 141900, Note_on_c, 0, 60, 80
2, 141936, Note_off_c, 0, 65, 64
2, 141948, Note_off_c, 0, 60, 64
2, 141960, Note_on_c, 0, 57, 80
2, 141960, Note_on_c, 0, 69, 80
2, 142008, Note_off_c, 0, 57, 64
2, 142020, Note_on_c, 0, 60, 80
2, 142056, Note_off_c, 0, 69, 64
2, 142068, Note_off_c, 0, 60, 64
2, 142080, Note_on_c, 0, 72, 80
2, 142080, Note_on_c, 0, 53, 80
2, 142128, Note_off_c, 0, 53, 64
2, 142140, Note_on_c, 0, 60, 80
2, 142188, Note_off_c, 0, 60, 64
2, 142200, Note_on_c, 0, 57, 80
2, 142248, Note_off_c, 0, 57, 64
2, 142260, Note_on_c, 0, 60, 80
2, 142272, Note_off_c, 0, 72, 64
2, 142308, Note_off_c, 0, 60, 64
2, 142320, Note_on_c, 0, 48, 80
2, 142320, Note_on_c, 0, 76, 80
2, 142344, Note_off_c, 0, 76, 64
2, 142350, Note_on_c, 0, 77, 80
2, 142368, Note_off_c, 0, 48, 64
2, 142374, Note_off_c, 0, 77, 64
2, 142380, Note_on_c, 0, 58, 80
2, 142380, Note_on_c, 0, 76, 80
2, 142404, Note_off_c, 0, 76, 64
2, 142410, Note_on_c, 0, 77, 80
2, 142428, Note_off_c, 0, 58, 64
2, 142434, Note_off_c, 0, 77, 64
2, 142440, Note_on_c, 0, 55, 80
2, 142440, Note_on_c, 0, 76, 80
2, 142464, Note_off_c, 0, 76, 64
2, 142470, Note_on_c, 0, 77, 80
2, 142488, Note_off_c, 0, 55, 64
2, 142494, Note_off_c, 0, 77, 64
2, 142500, Note_on_c, 0, 58, 80
2, 142500, Note_on_c, 0, 74, 80
2, 142524, Note_off_c, 0, 74, 64
2, 142530, Note_on_c, 0, 76, 80
2, 142548, Note_off_c, 0, 58, 64
2, 142554, Note_off_c, 0, 76, 64
2, 142560, Note_on_c, 0, 53, 80
2, 142560, Note_on_c, 0, 77, 80
2, 142608, Note_off_c, 0, 53, 64
2, 142620, Note_on_c, 0, 60, 80
2, 142656, Note_off_c, 0, 77, 64
2, 142668, Note_off_c, 0, 60, 64
2, 142680, Note_on_c, 0, 57, 80
2, 142680, Note_on_c, 0, 69, 80
2, 142728, Note_off_c, 0, 57, 64
2, 142740, Note_on_c, 0, 60, 80
2, 142776, Note_off_c, 0, 69, 64
2, 142788, Note_off_c, 0, 60, 64
2, 142800, Note_on_c, 0, 72, 80
2, 142800, Note_on_c, 0, 53, 80
2, 142848, Note_off_c, 0, 53, 64
2, 142860, Note_on_c, 0, 60, 80
2, 142908, Note_off_c, 0, 60, 64
2, 142920, Note_on_c, 0, 57, 80
2, 142968, Note_off_c, 0, 57, 64
2, 142980, Note_on_c, 0, 60, 80
2, 142992, Note_off_c, 0, 72, 64
2, 143028, Note_off_c, 0, 60, 64
2, 143040, Note_on_c, 0, 48, 80
2, 143040, Note_on_c, 0, 76, 80
2, 143064, Note_off_c, 0, 76, 64
2, 143070, Note_on_c, 0, 77, 80
2, 143088, Note_off_c, 0, 48, 64
2, 143094, Note_off_c, 0, 77, 64
2, 143100, Note_on_c, 0, 58, 80
2, 143100, Note_on_c, 0, 76, 80
2, 143124, Note_off_c, 0, 76, 64
2, 143130, Note_on_c, 0, 77, 80
2, 143148, Note_off_c, 0, 58, 64
2, 143154, Note_off_c, 0, 77, 64
2, 143160, Note_on_c, 0, 55, 80
2, 143160, Note_on_c, 0, 76, 80
2, 143184, Note_off_c, 0, 76, 64
2, 143190, Note_on_c, 0, 77, 80
2, 143208, Note_off_c, 0, 55, 64
2, 143214, Note_off_c, 0, 77, 64
2, 143220, Note_on_c, 0, 58, 80
2, 143220, Note_on_c, 0, 74, 80
2, 143244, Note_off_c, 0, 74, 64
2, 143250, Note_on_c, 0, 76, 80
2, 143268, Note_off_c, 0, 58, 64
2, 143274, Note_off_c, 0, 76, 64
2, 143280, Note_on_c, 0, 53, 80
2, 143280, Note_on_c, 0, 57, 80
2, 143280, Note_on_c, 0, 77, 80
2, 143472, Note_off_c, 0, 77, 64
2, 143472, Note_off_c, 0, 57, 64
2, 143472, Note_off_c, 0, 53, 64
2, 143520, Note_on_c, 0, 41, 80
2, 143520, Note_on_c, 0, 53, 80
2, 143520, Note_on_c, 0, 57, 80
2, 143520, Note_on_c, 0, 60, 80
2, 143520, Note_on_c, 0, 65, 80
2, 143712, Note_off_c, 0, 65, 64
2, 143712, Note_off_c, 0, 60, 64
2, 143712, Note_off_c, 0, 57, 64
2, 143712, Note_off_c, 0, 53, 64
2, 143712, Note_off_c, 0, 41, 64
2, 143712, End_track
0, 0, End_of_file
