0, 0, Header, 1, 9, 480
1, 0, Start_track
1, 0, Text_t, "Seq-1"
1, 0, SMPTE_offset, 96, 0, 0, 0, 0
1, 0, Time_signature, 3, 3, 12, 8
1, 0, Key_signature, -1, "major"
1, 0, Tempo, 500000
1, 0, End_track
2, 0, Start_track
2, 0, Text_t, "Right Hand"
2, 480, Note_on_c, 0, 84, 77
2, 600, Note_off_c, 0, 84, 64
2, 600, Note_on_c, 0, 81, 78
2, 720, Note_off_c, 0, 81, 64
2, 720, Note_on_c, 0, 77, 75
2, 960, Note_off_c, 0, 77, 64
2, 960, Note_on_c, 0, 77, 73
2, 1200, Note_off_c, 0, 77, 64
2, 1200, Note_on_c, 0, 77, 75
2, 1380, Note_off_c, 0, 77, 64
2, 1380, Note_on_c, 0, 76, 77
2, 1440, Note_off_c, 0, 76, 64
2, 1440, Note_on_c, 0, 82, 51
2, 1680, Note_off_c, 0, 82, 64
2, 2100, Note_on_c, 0, 77, 46
2, 2160, Note_off_c, 0, 77, 64
2, 2160, Note_on_c, 0, 81, 50
2, 2400, Note_off_c, 0, 81, 64
2, 2820, Note_on_c, 0, 76, 48
2, 2880, Note_off_c, 0, 76, 64
2, 2880, Note_on_c, 0, 79, 48
2, 3120, Note_off_c, 0, 79, 64
2, 3600, Note_on_c, 0, 77, 75
2, 3720, Note_off_c, 0, 77, 64
2, 3720, Note_on_c, 0, 79, 76
2, 3840, Note_off_c, 0, 79, 64
2, 3840, Note_on_c, 0, 81, 70
2, 3960, Note_off_c, 0, 81, 64
2, 3960, Note_on_c, 0, 77, 76
2, 4080, Note_off_c, 0, 77, 64
2, 4080, Note_on_c, 0, 72, 72
2, 4200, Note_off_c, 0, 72, 64
2, 4200, Note_on_c, 0, 73, 78
2, 4320, Note_off_c, 0, 73, 64
2, 4320, Note_on_c, 0, 74, 77
2, 4440, Note_off_c, 0, 74, 64
2, 4440, Note_on_c, 0, 76, 78
2, 4560, Note_off_c, 0, 76, 64
2, 4560, Note_on_c, 0, 77, 78
2, 4680, Note_off_c, 0, 77, 64
2, 4680, Note_on_c, 0, 74, 76
2, 4800, Note_off_c, 0, 74, 64
2, 4800, Note_on_c, 0, 67, 71
2, 4920, Note_off_c, 0, 67, 64
2, 4920, Note_on_c, 0, 69, 76
2, 5040, Note_off_c, 0, 69, 64
2, 5040, Note_on_c, 0, 70, 73
2, 5160, Note_off_c, 0, 70, 64
2, 5160, Note_on_c, 0, 72, 70
2, 5280, Note_off_c, 0, 72, 64
2, 5280, Note_on_c, 0, 74, 78
2, 5400, Note_off_c, 0, 74, 64
2, 5400, Note_on_c, 0, 70, 77
2, 5520, Note_off_c, 0, 70, 64
2, 5520, Note_on_c, 0, 62, 72
2, 5640, Note_off_c, 0, 62, 64
2, 5640, Note_on_c, 0, 65, 70
2, 5760, Note_off_c, 0, 65, 64
2, 5760, Note_on_c, 0, 64, 75
2, 5880, Note_off_c, 0, 64, 64
2, 5880, Note_on_c, 0, 65, 71
2, 6000, Note_off_c, 0, 65, 64
2, 6000, Note_on_c, 0, 67, 79
2, 6120, Note_off_c, 0, 67, 64
2, 6120, Note_on_c, 0, 64, 70
2, 6240, Note_off_c, 0, 64, 64
2, 6240, Note_on_c, 0, 72, 70
2, 6360, Note_off_c, 0, 72, 64
2, 6360, Note_on_c, 0, 69, 76
2, 6480, Note_off_c, 0, 69, 64
2, 6480, Note_on_c, 0, 65, 72
2, 6720, Note_off_c, 0, 65, 64
2, 6720, Note_on_c, 0, 65, 78
2, 6960, Note_off_c, 0, 65, 64
2, 6960, Note_on_c, 0, 65, 73
2, 7140, Note_off_c, 0, 65, 64
2, 7140, Note_on_c, 0, 64, 74
2, 7200, Note_off_c, 0, 64, 64
2, 7200, Note_on_c, 0, 70, 48
2, 7440, Note_off_c, 0, 70, 64
2, 7860, Note_on_c, 0, 65, 51
2, 7920, Note_off_c, 0, 65, 64
2, 7920, Note_on_c, 0, 69, 51
2, 8160, Note_off_c, 0, 69, 64
2, 8580, Note_on_c, 0, 64, 45
2, 8640, Note_off_c, 0, 64, 64
2, 8640, Note_on_c, 0, 67, 53
2, 8880, Note_off_c, 0, 67, 64
2, 9360, Note_on_c, 0, 65, 77
2, 9480, Note_off_c, 0, 65, 64
2, 9480, Note_on_c, 0, 67, 78
2, 9600, Note_off_c, 0, 67, 64
2, 9600, Note_on_c, 0, 69, 74
2, 9720, Note_off_c, 0, 69, 64
2, 9720, Note_on_c, 0, 70, 72
2, 9840, Note_off_c, 0, 70, 64
2, 9840, Note_on_c, 0, 72, 79
2, 9960, Note_off_c, 0, 72, 64
2, 9960, Note_on_c, 0, 73, 79
2, 10080, Note_off_c, 0, 73, 64
2, 10080, Note_on_c, 0, 74, 75
2, 10200, Note_off_c, 0, 74, 64
2, 10200, Note_on_c, 0, 76, 73
2, 10320, Note_off_c, 0, 76, 64
2, 10320, Note_on_c, 0, 77, 77
2, 10440, Note_off_c, 0, 77, 64
2, 10440, Note_on_c, 0, 79, 70
2, 10560, Note_off_c, 0, 79, 64
2, 10560, Note_on_c, 0, 81, 72
2, 10680, Note_off_c, 0, 81, 64
2, 10680, Note_on_c, 0, 82, 76
2, 10800, Note_off_c, 0, 82, 64
2, 10800, Note_on_c, 0, 84, 73
2, 11040, Note_off_c, 0, 84, 64
2, 11040, Note_on_c, 0, 69, 70
2, 11040, Note_on_c, 0, 77, 72
2, 11280, Note_off_c, 0, 69, 64
2, 11280, Note_off_c, 0, 77, 64
2, 11280, Note_on_c, 0, 76, 74
2, 11280, Note_on_c, 0, 67, 72
2, 11520, Note_off_c, 0, 76, 64
2, 11520, Note_off_c, 0, 67, 64
2, 11520, Note_on_c, 0, 69, 73
2, 11520, Note_on_c, 0, 77, 79
2, 12000, Note_off_c, 0, 69, 64
2, 12000, Note_off_c, 0, 77, 64
2, 12240, Note_on_c, 0, 62, 50
2, 12240, Note_on_c, 0, 70, 50
2, 12480, Note_off_c, 0, 62, 64
2, 12480, Note_off_c, 0, 70, 64
2, 12480, Note_on_c, 0, 69, 48
2, 12480, Note_on_c, 0, 60, 47
2, 12720, Note_off_c, 0, 69, 64
2, 12720, Note_off_c, 0, 60, 64
2, 12720, Note_on_c, 0, 58, 54
2, 12720, Note_on_c, 0, 67, 49
2, 12960, Note_off_c, 0, 58, 64
2, 12960, Note_off_c, 0, 67, 64
2, 12960, Note_on_c, 0, 58, 45
2, 12960, Note_on_c, 0, 67, 45
2, 13200, Note_off_c, 0, 58, 64
2, 13200, Note_off_c, 0, 67, 64
2, 13200, Note_on_c, 0, 57, 51
2, 13200, Note_on_c, 0, 65, 53
2, 13440, Note_off_c, 0, 57, 64
2, 13440, Note_off_c, 0, 65, 64
2, 13440, Note_on_c, 0, 65, 49
2, 13440, Note_on_c, 0, 57, 48
2, 13680, Note_off_c, 0, 65, 64
2, 13680, Note_off_c, 0, 57, 64
2, 13680, Note_on_c, 0, 65, 49
2, 13680, Note_on_c, 0, 57, 51
2, 13920, Note_off_c, 0, 65, 64
2, 13920, Note_off_c, 0, 57, 64
2, 13920, Note_on_c, 0, 67, 52
2, 13920, Note_on_c, 0, 58, 51
2, 14160, Note_off_c, 0, 67, 64
2, 14160, Note_off_c, 0, 58, 64
2, 14160, Note_on_c, 0, 55, 53
2, 14160, Note_on_c, 0, 64, 46
2, 14400, Note_off_c, 0, 55, 64
2, 14400, Note_off_c, 0, 64, 64
2, 14400, Note_on_c, 0, 65, 54
2, 14400, Note_on_c, 0, 57, 45
2, 14640, Note_off_c, 0, 65, 64
2, 14640, Note_off_c, 0, 57, 64
2, 15120, Note_on_c, 0, 70, 49
2, 15120, Note_on_c, 0, 74, 45
2, 15360, Note_off_c, 0, 70, 64
2, 15360, Note_off_c, 0, 74, 64
2, 15360, Note_on_c, 0, 72, 50
2, 15360, Note_on_c, 0, 69, 51
2, 15600, Note_off_c, 0, 72, 64
2, 15600, Note_off_c, 0, 69, 64
2, 15600, Note_on_c, 0, 67, 46
2, 15600, Note_on_c, 0, 70, 54
2, 15840, Note_off_c, 0, 67, 64
2, 15840, Note_off_c, 0, 70, 64
2, 15840, Note_on_c, 0, 67, 46
2, 15840, Note_on_c, 0, 70, 53
2, 16080, Note_off_c, 0, 67, 64
2, 16080, Note_off_c, 0, 70, 64
2, 16080, Note_on_c, 0, 65, 53
2, 16080, Note_on_c, 0, 69, 47
2, 16320, Note_off_c, 0, 65, 64
2, 16320, Note_off_c, 0, 69, 64
2, 16320, Note_on_c, 0, 69, 45
2, 16320, Note_on_c, 0, 65, 53
2, 16560, Note_off_c, 0, 69, 64
2, 16560, Note_off_c, 0, 65, 64
2, 16560, Note_on_c, 0, 69, 53
2, 16560, Note_on_c, 0, 65, 50
2, 16800, Note_off_c, 0, 69, 64
2, 16800, Note_off_c, 0, 65, 64
2, 16800, Note_on_c, 0, 67, 49
2, 16800, Note_on_c, 0, 70, 52
2, 17040, Note_off_c, 0, 67, 64
2, 17040, Note_off_c, 0, 70, 64
2, 17040, Note_on_c, 0, 64, 48
2, 17040, Note_on_c, 0, 67, 48
2, 17280, Note_off_c, 0, 64, 64
2, 17280, Note_off_c, 0, 67, 64
2, 17280, Note_on_c, 0, 69, 49
2, 17280, Note_on_c, 0, 65, 50
2, 17520, Note_off_c, 0, 69, 64
2, 17520, Note_off_c, 0, 65, 64
2, 18120, Note_on_c, 0, 69, 79
2, 18240, Note_off_c, 0, 69, 64
2, 18240, Note_on_c, 0, 74, 73
2, 18360, Note_off_c, 0, 74, 64
2, 18360, Note_on_c, 0, 77, 78
2, 18480, Note_off_c, 0, 77, 64
2, 18480, Note_on_c, 0, 81, 72
2, 18720, Note_off_c, 0, 81, 64
2, 18840, Note_on_c, 0, 67, 79
2, 18960, Note_off_c, 0, 67, 64
2, 18960, Note_on_c, 0, 72, 70
2, 19080, Note_off_c, 0, 72, 64
2, 19080, Note_on_c, 0, 76, 75
2, 19200, Note_off_c, 0, 76, 64
2, 19200, Note_on_c, 0, 79, 74
2, 19440, Note_off_c, 0, 79, 64
2, 19560, Note_on_c, 0, 65, 75
2, 19680, Note_off_c, 0, 65, 64
2, 19680, Note_on_c, 0, 71, 75
2, 19800, Note_off_c, 0, 71, 64
2, 19800, Note_on_c, 0, 74, 78
2, 19920, Note_off_c, 0, 74, 64
2, 19920, Note_on_c, 0, 77, 75
2, 20160, Note_off_c, 0, 77, 64
2, 20280, Note_on_c, 0, 64, 74
2, 20400, Note_off_c, 0, 64, 64
2, 20400, Note_on_c, 0, 67, 70
2, 20520, Note_off_c, 0, 67, 64
2, 20520, Note_on_c, 0, 72, 73
2, 20640, Note_off_c, 0, 72, 64
2, 20640, Note_on_c, 0, 76, 72
2, 20880, Note_off_c, 0, 76, 64
2, 21000, Note_on_c, 0, 69, 70
2, 21120, Note_off_c, 0, 69, 64
2, 21120, Note_on_c, 0, 74, 76
2, 21240, Note_off_c, 0, 74, 64
2, 21240, Note_on_c, 0, 73, 78
2, 21360, Note_off_c, 0, 73, 64
2, 21360, Note_on_c, 0, 76, 76
2, 21480, Note_off_c, 0, 76, 64
2, 21480, Note_on_c, 0, 74, 71
2, 21600, Note_off_c, 0, 74, 64
2, 21600, Note_on_c, 0, 77, 72
2, 21720, Note_off_c, 0, 77, 64
2, 21720, Note_on_c, 0, 76, 70
2, 21840, Note_off_c, 0, 76, 64
2, 21840, Note_on_c, 0, 79, 75
2, 21960, Note_off_c, 0, 79, 64
2, 21960, Note_on_c, 0, 77, 74
2, 22080, Note_off_c, 0, 77, 64
2, 22080, Note_on_c, 0, 81, 78
2, 22200, Note_off_c, 0, 81, 64
2, 22200, Note_on_c, 0, 80, 79
2, 22320, Note_off_c, 0, 80, 64
2, 22320, Note_on_c, 0, 81, 79
2, 22560, Note_off_c, 0, 81, 64
2, 22800, Note_on_c, 0, 72, 54
2, 22800, Note_on_c, 0, 64, 46
2, 23040, Note_off_c, 0, 72, 64
2, 23040, Note_off_c, 0, 64, 64
2, 23040, Note_on_c, 0, 71, 46
2, 23040, Note_on_c, 0, 62, 45
2, 23280, Note_off_c, 0, 71, 64
2, 23280, Note_off_c, 0, 62, 64
2, 24240, Note_on_c, 0, 84, 49
2, 24240, Note_on_c, 0, 76, 51
2, 24480, Note_off_c, 0, 84, 64
2, 24480, Note_off_c, 0, 76, 64
2, 24480, Note_on_c, 0, 83, 48
2, 24480, Note_on_c, 0, 74, 48
2, 24720, Note_off_c, 0, 83, 64
2, 24720, Note_off_c, 0, 74, 64
2, 25680, Note_on_c, 0, 72, 53
2, 25680, Note_on_c, 0, 64, 48
2, 25920, Note_off_c, 0, 72, 64
2, 25920, Note_off_c, 0, 64, 64
2, 25920, Note_on_c, 0, 71, 48
2, 25920, Note_on_c, 0, 62, 53
2, 26160, Note_off_c, 0, 71, 64
2, 26160, Note_off_c, 0, 62, 64
2, 27360, Note_on_c, 0, 77, 47
2, 27720, Note_off_c, 0, 77, 64
2, 27720, Note_on_c, 0, 77, 53
2, 27840, Note_off_c, 0, 77, 64
2, 27840, Note_on_c, 0, 77, 50
2, 27960, Note_off_c, 0, 77, 64
2, 27960, Note_on_c, 0, 77, 46
2, 28020, Note_off_c, 0, 77, 64
2, 28020, Note_on_c, 0, 79, 46
2, 28080, Note_off_c, 0, 79, 64
2, 28080, Note_on_c, 0, 81, 54
2, 28440, Note_off_c, 0, 81, 64
2, 28440, Note_on_c, 0, 79, 48
2, 28560, Note_off_c, 0, 79, 64
2, 28560, Note_on_c, 0, 77, 52
2, 28800, Note_off_c, 0, 77, 64
2, 28800, Note_on_c, 0, 77, 47
2, 29160, Note_off_c, 0, 77, 64
2, 29160, Note_on_c, 0, 77, 48
2, 29280, Note_off_c, 0, 77, 64
2, 29280, Note_on_c, 0, 77, 51
2, 29400, Note_off_c, 0, 77, 64
2, 29400, Note_on_c, 0, 77, 50
2, 29460, Note_off_c, 0, 77, 64
2, 29460, Note_on_c, 0, 79, 50
2, 29520, Note_off_c, 0, 79, 64
2, 29520, Note_on_c, 0, 81, 54
2, 29880, Note_off_c, 0, 81, 64
2, 29880, Note_on_c, 0, 79, 49
2, 30000, Note_off_c, 0, 79, 64
2, 30000, Note_on_c, 0, 77, 49
2, 30240, Note_off_c, 0, 77, 64
2, 30240, Note_on_c, 0, 76, 52
2, 30480, Note_off_c, 0, 76, 64
2, 30720, Note_on_c, 0, 76, 45
2, 30960, Note_off_c, 0, 76, 64
2, 30960, Note_on_c, 0, 79, 84
2, 31440, Note_off_c, 0, 79, 64
2, 31440, Note_on_c, 0, 77, 52
2, 31680, Note_off_c, 0, 77, 64
2, 31680, Note_on_c, 0, 76, 46
2, 31920, Note_off_c, 0, 76, 64
2, 32160, Note_on_c, 0, 76, 45
2, 32400, Note_off_c, 0, 76, 64
2, 32400, Note_on_c, 0, 79, 88
2, 32880, Note_off_c, 0, 79, 64
2, 32880, Note_on_c, 0, 77, 52
2, 33120, Note_off_c, 0, 77, 64
2, 33120, Note_on_c, 0, 76, 50
2, 33360, Note_off_c, 0, 76, 64
2, 33600, Note_on_c, 0, 76, 53
2, 33840, Note_off_c, 0, 76, 64
2, 33840, Note_on_c, 0, 79, 75
2, 34080, Note_off_c, 0, 79, 64
2, 34080, Note_on_c, 0, 77, 76
2, 34320, Note_off_c, 0, 77, 64
2, 34320, Note_on_c, 0, 76, 88
2, 34560, Note_off_c, 0, 76, 64
2, 34560, Note_on_c, 0, 76, 88
2, 34800, Note_off_c, 0, 76, 64
2, 34800, Note_on_c, 0, 74, 85
2, 35040, Note_off_c, 0, 74, 64
2, 35040, Note_on_c, 0, 72, 85
2, 35280, Note_off_c, 0, 72, 64
2, 35280, Note_on_c, 0, 74, 50
2, 35340, Note_off_c, 0, 74, 64
2, 35340, Note_on_c, 0, 72, 45
2, 35400, Note_off_c, 0, 72, 64
2, 35400, Note_on_c, 0, 74, 54
2, 35460, Note_off_c, 0, 74, 64
2, 35460, Note_on_c, 0, 72, 49
2, 35520, Note_off_c, 0, 72, 64
2, 35520, Note_on_c, 0, 74, 54
2, 35580, Note_off_c, 0, 74, 64
2, 35580, Note_on_c, 0, 72, 47
2, 35640, Note_off_c, 0, 72, 64
2, 35640, Note_on_c, 0, 74, 47
2, 35760, Note_off_c, 0, 74, 64
2, 35760, Note_on_c, 0, 71, 47
2, 36000, Note_off_c, 0, 71, 64
2, 36000, Note_on_c, 0, 77, 47
2, 36360, Note_off_c, 0, 77, 64
2, 36360, Note_on_c, 0, 77, 54
2, 36480, Note_off_c, 0, 77, 64
2, 36480, Note_on_c, 0, 77, 47
2, 36600, Note_off_c, 0, 77, 64
2, 36600, Note_on_c, 0, 77, 47
2, 36660, Note_off_c, 0, 77, 64
2, 36660, Note_on_c, 0, 79, 51
2, 36720, Note_off_c, 0, 79, 64
2, 36720, Note_on_c, 0, 81, 47
2, 37080, Note_off_c, 0, 81, 64
2, 37080, Note_on_c, 0, 79, 50
2, 37200, Note_off_c, 0, 79, 64
2, 37200, Note_on_c, 0, 77, 46
2, 37440, Note_off_c, 0, 77, 64
2, 37440, Note_on_c, 0, 77, 48
2, 37800, Note_off_c, 0, 77, 64
2, 37800, Note_on_c, 0, 77, 51
2, 37920, Note_off_c, 0, 77, 64
2, 37920, Note_on_c, 0, 77, 53
2, 38040, Note_off_c, 0, 77, 64
2, 38040, Note_on_c, 0, 77, 46
2, 38100, Note_off_c, 0, 77, 64
2, 38100, Note_on_c, 0, 79, 47
2, 38160, Note_off_c, 0, 79, 64
2, 38160, Note_on_c, 0, 81, 49
2, 38520, Note_off_c, 0, 81, 64
2, 38520, Note_on_c, 0, 79, 47
2, 38640, Note_off_c, 0, 79, 64
2, 38640, Note_on_c, 0, 77, 50
2, 38880, Note_off_c, 0, 77, 64
2, 38880, Note_on_c, 0, 76, 51
2, 39000, Note_off_c, 0, 76, 64
2, 39000, Note_on_c, 0, 72, 51
2, 39120, Note_off_c, 0, 72, 64
2, 39120, Note_on_c, 0, 67, 53
2, 39240, Note_off_c, 0, 67, 64
2, 39240, Note_on_c, 0, 72, 54
2, 39360, Note_off_c, 0, 72, 64
2, 39360, Note_on_c, 0, 76, 53
2, 39480, Note_off_c, 0, 76, 64
2, 39480, Note_on_c, 0, 72, 45
2, 39600, Note_off_c, 0, 72, 64
2, 39600, Note_on_c, 0, 79, 84
2, 39720, Note_off_c, 0, 79, 64
2, 39720, Note_on_c, 0, 67, 89
2, 39840, Note_off_c, 0, 67, 64
2, 39840, Note_on_c, 0, 78, 47
2, 39960, Note_off_c, 0, 78, 64
2, 39960, Note_on_c, 0, 67, 50
2, 40080, Note_off_c, 0, 67, 64
2, 40080, Note_on_c, 0, 77, 50
2, 40200, Note_off_c, 0, 77, 64
2, 40200, Note_on_c, 0, 67, 49
2, 40320, Note_off_c, 0, 67, 64
2, 40320, Note_on_c, 0, 76, 53
2, 40440, Note_off_c, 0, 76, 64
2, 40440, Note_on_c, 0, 72, 50
2, 40560, Note_off_c, 0, 72, 64
2, 40560, Note_on_c, 0, 67, 48
2, 40680, Note_off_c, 0, 67, 64
2, 40680, Note_on_c, 0, 72, 50
2, 40800, Note_off_c, 0, 72, 64
2, 40800, Note_on_c, 0, 76, 48
2, 40920, Note_off_c, 0, 76, 64
2, 40920, Note_on_c, 0, 72, 51
2, 41040, Note_off_c, 0, 72, 64
2, 41040, Note_on_c, 0, 79, 88
2, 41160, Note_off_c, 0, 79, 64
2, 41160, Note_on_c, 0, 67, 83
2, 41280, Note_off_c, 0, 67, 64
2, 41280, Note_on_c, 0, 78, 50
2, 41400, Note_off_c, 0, 78, 64
2, 41400, Note_on_c, 0, 67, 54
2, 41520, Note_off_c, 0, 67, 64
2, 41520, Note_on_c, 0, 77, 51
2, 41640, Note_off_c, 0, 77, 64
2, 41640, Note_on_c, 0, 67, 47
2, 41760, Note_off_c, 0, 67, 64
2, 41760, Note_on_c, 0, 76, 48
2, 41880, Note_off_c, 0, 76, 64
2, 41880, Note_on_c, 0, 79, 54
2, 42000, Note_off_c, 0, 79, 64
2, 42000, Note_on_c, 0, 84, 49
2, 42120, Note_off_c, 0, 84, 64
2, 42120, Note_on_c, 0, 83, 46
2, 42240, Note_off_c, 0, 83, 64
2, 42240, Note_on_c, 0, 81, 47
2, 42360, Note_off_c, 0, 81, 64
2, 42360, Note_on_c, 0, 79, 49
2, 42480, Note_off_c, 0, 79, 64
2, 42480, Note_on_c, 0, 77, 77
2, 42600, Note_off_c, 0, 77, 64
2, 42600, Note_on_c, 0, 79, 73
2, 42720, Note_off_c, 0, 79, 64
2, 42720, Note_on_c, 0, 81, 73
2, 42840, Note_off_c, 0, 81, 64
2, 42840, Note_on_c, 0, 77, 77
2, 42960, Note_off_c, 0, 77, 64
2, 42960, Note_on_c, 0, 75, 53
2, 43080, Note_off_c, 0, 75, 64
2, 43080, Note_on_c, 0, 76, 49
2, 43200, Note_off_c, 0, 76, 64
2, 43200, Note_on_c, 0, 74, 79
2, 43320, Note_off_c, 0, 74, 64
2, 43320, Note_on_c, 0, 76, 72
2, 43440, Note_off_c, 0, 76, 64
2, 43440, Note_on_c, 0, 77, 73
2, 43560, Note_off_c, 0, 77, 64
2, 43560, Note_on_c, 0, 74, 73
2, 43680, Note_off_c, 0, 74, 64
2, 43680, Note_on_c, 0, 71, 50
2, 43800, Note_off_c, 0, 71, 64
2, 43800, Note_on_c, 0, 72, 45
2, 43920, Note_off_c, 0, 72, 64
2, 43920, Note_on_c, 0, 74, 75
2, 44040, Note_off_c, 0, 74, 64
2, 44040, Note_on_c, 0, 77, 76
2, 44160, Note_off_c, 0, 77, 64
2, 44160, Note_on_c, 0, 76, 76
2, 44280, Note_off_c, 0, 76, 64
2, 44280, Note_on_c, 0, 72, 72
2, 44400, Note_off_c, 0, 72, 64
2, 44400, Note_on_c, 0, 71, 78
2, 44520, Note_off_c, 0, 71, 64
2, 44520, Note_on_c, 0, 74, 72
2, 44640, Note_off_c, 0, 74, 64
2, 44640, Note_on_c, 0, 72, 75
2, 44760, Note_off_c, 0, 72, 64
2, 44760, Note_on_c, 0, 74, 74
2, 44880, Note_off_c, 0, 74, 64
2, 44880, Note_on_c, 0, 76, 73
2, 45000, Note_off_c, 0, 76, 64
2, 45000, Note_on_c, 0, 72, 75
2, 45120, Note_off_c, 0, 72, 64
2, 45120, Note_on_c, 0, 69, 75
2, 45240, Note_off_c, 0, 69, 64
2, 45240, Note_on_c, 0, 67, 74
2, 45360, Note_off_c, 0, 67, 64
2, 45360, Note_on_c, 0, 65, 77
2, 45480, Note_off_c, 0, 65, 64
2, 45480, Note_on_c, 0, 67, 75
2, 45600, Note_off_c, 0, 67, 64
2, 45600, Note_on_c, 0, 69, 70
2, 45720, Note_off_c, 0, 69, 64
2, 45720, Note_on_c, 0, 65, 74
2, 45840, Note_off_c, 0, 65, 64
2, 45840, Note_on_c, 0, 63, 48
2, 45960, Note_off_c, 0, 63, 64
2, 45960, Note_on_c, 0, 64, 45
2, 46080, Note_off_c, 0, 64, 64
2, 46080, Note_on_c, 0, 62, 73
2, 46200, Note_off_c, 0, 62, 64
2, 46200, Note_on_c, 0, 64, 70
2, 46320, Note_off_c, 0, 64, 64
2, 46320, Note_on_c, 0, 65, 73
2, 46440, Note_off_c, 0, 65, 64
2, 46440, Note_on_c, 0, 62, 73
2, 46560, Note_off_c, 0, 62, 64
2, 46560, Note_on_c, 0, 59, 51
2, 46680, Note_off_c, 0, 59, 64
2, 46680, Note_on_c, 0, 60, 47
2, 46800, Note_off_c, 0, 60, 64
2, 46800, Note_on_c, 0, 62, 79
2, 46920, Note_off_c, 0, 62, 64
2, 46920, Note_on_c, 0, 65, 78
2, 47040, Note_off_c, 0, 65, 64
2, 47040, Note_on_c, 0, 64, 79
2, 47160, Note_off_c, 0, 64, 64
2, 47160, Note_on_c, 0, 60, 79
2, 47280, Note_off_c, 0, 60, 64
2, 47280, Note_on_c, 0, 59, 79
2, 47400, Note_off_c, 0, 59, 64
2, 47400, Note_on_c, 0, 62, 79
2, 47520, Note_off_c, 0, 62, 64
2, 47520, Note_on_c, 0, 60, 75
2, 47760, Note_off_c, 0, 60, 64
2, 47760, Note_on_c, 0, 67, 45
2, 48000, Note_off_c, 0, 67, 64
2, 48000, Note_on_c, 0, 64, 48
2, 48240, Note_off_c, 0, 64, 64
2, 48240, Note_on_c, 0, 60, 46
2, 48480, Note_off_c, 0, 60, 64
2, 49200, Note_on_c, 0, 72, 45
2, 49440, Note_off_c, 0, 72, 64
2, 49440, Note_on_c, 0, 69, 48
2, 49680, Note_off_c, 0, 69, 64
2, 49680, Note_on_c, 0, 65, 45
2, 49920, Note_off_c, 0, 65, 64
2, 50640, Note_on_c, 0, 77, 49
2, 50880, Note_off_c, 0, 77, 64
2, 50880, Note_on_c, 0, 74, 51
2, 51120, Note_off_c, 0, 74, 64
2, 51120, Note_on_c, 0, 71, 54
2, 51360, Note_off_c, 0, 71, 64
2, 51960, Note_on_c, 0, 72, 79
2, 52080, Note_off_c, 0, 72, 64
2, 52080, Note_on_c, 0, 71, 72
2, 52200, Note_off_c, 0, 71, 64
2, 52200, Note_on_c, 0, 72, 70
2, 52320, Note_off_c, 0, 72, 64
2, 52320, Note_on_c, 0, 76, 75
2, 52440, Note_off_c, 0, 76, 64
2, 52440, Note_on_c, 0, 79, 73
2, 52560, Note_off_c, 0, 79, 64
2, 52680, Note_on_c, 0, 77, 74
2, 52800, Note_off_c, 0, 77, 64
2, 52800, Note_on_c, 0, 76, 78
2, 52920, Note_off_c, 0, 76, 64
2, 52920, Note_on_c, 0, 77, 79
2, 53040, Note_off_c, 0, 77, 64
2, 53040, Note_on_c, 0, 74, 70
2, 53160, Note_off_c, 0, 74, 64
2, 53160, Note_on_c, 0, 71, 71
2, 53280, Note_off_c, 0, 71, 64
2, 53400, Note_on_c, 0, 72, 75
2, 53520, Note_off_c, 0, 72, 64
2, 53520, Note_on_c, 0, 71, 75
2, 53640, Note_off_c, 0, 71, 64
2, 53640, Note_on_c, 0, 72, 72
2, 53760, Note_off_c, 0, 72, 64
2, 53760, Note_on_c, 0, 76, 75
2, 53880, Note_off_c, 0, 76, 64
2, 53880, Note_on_c, 0, 79, 76
2, 54000, Note_off_c, 0, 79, 64
2, 54120, Note_on_c, 0, 77, 79
2, 54240, Note_off_c, 0, 77, 64
2, 54240, Note_on_c, 0, 76, 78
2, 54360, Note_off_c, 0, 76, 64
2, 54360, Note_on_c, 0, 77, 79
2, 54480, Note_off_c, 0, 77, 64
2, 54480, Note_on_c, 0, 74, 73
2, 54600, Note_off_c, 0, 74, 64
2, 54600, Note_on_c, 0, 71, 78
2, 54720, Note_off_c, 0, 71, 64
2, 54720, Note_on_c, 0, 72, 72
2, 54960, Note_off_c, 0, 72, 64
2, 54960, Note_on_c, 0, 84, 70
2, 54960, Note_on_c, 0, 76, 78
2, 55200, Note_off_c, 0, 84, 64
2, 55200, Note_off_c, 0, 76, 64
2, 55200, Note_on_c, 0, 84, 71
2, 55200, Note_on_c, 0, 76, 78
2, 55440, Note_off_c, 0, 84, 64
2, 55440, Note_off_c, 0, 76, 64
2, 55440, Note_on_c, 0, 84, 70
2, 55440, Note_on_c, 0, 76, 74
2, 55680, Note_off_c, 0, 84, 64
2, 55680, Note_off_c, 0, 76, 64
2, 55920, Note_on_c, 0, 84, 77
2, 56040, Note_off_c, 0, 84, 64
2, 56040, Note_on_c, 0, 81, 78
2, 56160, Note_off_c, 0, 81, 64
2, 56160, Note_on_c, 0, 77, 75
2, 56400, Note_off_c, 0, 77, 64
2, 56400, Note_on_c, 0, 77, 73
2, 56640, Note_off_c, 0, 77, 64
2, 56640, Note_on_c, 0, 77, 75
2, 56820, Note_off_c, 0, 77, 64
2, 56820, Note_on_c, 0, 76, 77
2, 56880, Note_off_c, 0, 76, 64
2, 56880, Note_on_c, 0, 82, 51
2, 57120, Note_off_c, 0, 82, 64
2, 57540, Note_on_c, 0, 77, 46
2, 57600, Note_off_c, 0, 77, 64
2, 57600, Note_on_c, 0, 81, 50
2, 57840, Note_off_c, 0, 81, 64
2, 58260, Note_on_c, 0, 76, 48
2, 58320, Note_off_c, 0, 76, 64
2, 58320, Note_on_c, 0, 79, 48
2, 58560, Note_off_c, 0, 79, 64
2, 59040, Note_on_c, 0, 77, 75
2, 59160, Note_off_c, 0, 77, 64
2, 59160, Note_on_c, 0, 79, 76
2, 59280, Note_off_c, 0, 79, 64
2, 59280, Note_on_c, 0, 81, 70
2, 59400, Note_off_c, 0, 81, 64
2, 59400, Note_on_c, 0, 77, 76
2, 59520, Note_off_c, 0, 77, 64
2, 59520, Note_on_c, 0, 72, 72
2, 59640, Note_off_c, 0, 72, 64
2, 59640, Note_on_c, 0, 73, 78
2, 59760, Note_off_c, 0, 73, 64
2, 59760, Note_on_c, 0, 74, 77
2, 59880, Note_off_c, 0, 74, 64
2, 59880, Note_on_c, 0, 76, 78
2, 60000, Note_off_c, 0, 76, 64
2, 60000, Note_on_c, 0, 77, 78
2, 60120, Note_off_c, 0, 77, 64
2, 60120, Note_on_c, 0, 74, 76
2, 60240, Note_off_c, 0, 74, 64
2, 60240, Note_on_c, 0, 67, 71
2, 60360, Note_off_c, 0, 67, 64
2, 60360, Note_on_c, 0, 69, 76
2, 60480, Note_off_c, 0, 69, 64
2, 60480, Note_on_c, 0, 70, 73
2, 60600, Note_off_c, 0, 70, 64
2, 60600, Note_on_c, 0, 72, 70
2, 60720, Note_off_c, 0, 72, 64
2, 60720, Note_on_c, 0, 74, 78
2, 60840, Note_off_c, 0, 74, 64
2, 60840, Note_on_c, 0, 70, 77
2, 60960, Note_off_c, 0, 70, 64
2, 60960, Note_on_c, 0, 62, 72
2, 61080, Note_off_c, 0, 62, 64
2, 61080, Note_on_c, 0, 65, 70
2, 61200, Note_off_c, 0, 65, 64
2, 61200, Note_on_c, 0, 64, 75
2, 61320, Note_off_c, 0, 64, 64
2, 61320, Note_on_c, 0, 65, 71
2, 61440, Note_off_c, 0, 65, 64
2, 61440, Note_on_c, 0, 67, 79
2, 61560, Note_off_c, 0, 67, 64
2, 61560, Note_on_c, 0, 64, 70
2, 61680, Note_off_c, 0, 64, 64
2, 61680, Note_on_c, 0, 72, 70
2, 61800, Note_off_c, 0, 72, 64
2, 61800, Note_on_c, 0, 69, 76
2, 61920, Note_off_c, 0, 69, 64
2, 61920, Note_on_c, 0, 65, 72
2, 62160, Note_off_c, 0, 65, 64
2, 62160, Note_on_c, 0, 65, 78
2, 62400, Note_off_c, 0, 65, 64
2, 62400, Note_on_c, 0, 65, 73
2, 62580, Note_off_c, 0, 65, 64
2, 62580, Note_on_c, 0, 64, 74
2, 62640, Note_off_c, 0, 64, 64
2, 62640, Note_on_c, 0, 70, 48
2, 62880, Note_off_c, 0, 70, 64
2, 63300, Note_on_c, 0, 65, 51
2, 63360, Note_off_c, 0, 65, 64
2, 63360, Note_on_c, 0, 69, 51
2, 63600, Note_off_c, 0, 69, 64
2, 64020, Note_on_c, 0, 64, 45
2, 64080, Note_off_c, 0, 64, 64
2, 64080, Note_on_c, 0, 67, 53
2, 64320, Note_off_c, 0, 67, 64
2, 64800, Note_on_c, 0, 65, 77
2, 64920, Note_off_c, 0, 65, 64
2, 64920, Note_on_c, 0, 67, 78
2, 65040, Note_off_c, 0, 67, 64
2, 65040, Note_on_c, 0, 69, 74
2, 65160, Note_off_c, 0, 69, 64
2, 65160, Note_on_c, 0, 70, 72
2, 65280, Note_off_c, 0, 70, 64
2, 65280, Note_on_c, 0, 72, 79
2, 65400, Note_off_c, 0, 72, 64
2, 65400, Note_on_c, 0, 73, 79
2, 65520, Note_off_c, 0, 73, 64
2, 65520, Note_on_c, 0, 74, 75
2, 65640, Note_off_c, 0, 74, 64
2, 65640, Note_on_c, 0, 76, 73
2, 65760, Note_off_c, 0, 76, 64
2, 65760, Note_on_c, 0, 77, 77
2, 65880, Note_off_c, 0, 77, 64
2, 65880, Note_on_c, 0, 79, 70
2, 66000, Note_off_c, 0, 79, 64
2, 66000, Note_on_c, 0, 81, 72
2, 66120, Note_off_c, 0, 81, 64
2, 66120, Note_on_c, 0, 82, 76
2, 66240, Note_off_c, 0, 82, 64
2, 66240, Note_on_c, 0, 84, 73
2, 66480, Note_off_c, 0, 84, 64
2, 66480, Note_on_c, 0, 69, 70
2, 66480, Note_on_c, 0, 77, 72
2, 66720, Note_off_c, 0, 69, 64
2, 66720, Note_off_c, 0, 77, 64
2, 66720, Note_on_c, 0, 76, 74
2, 66720, Note_on_c, 0, 67, 72
2, 66960, Note_off_c, 0, 76, 64
2, 66960, Note_off_c, 0, 67, 64
2, 66960, Note_on_c, 0, 69, 73
2, 66960, Note_on_c, 0, 77, 79
2, 67440, Note_off_c, 0, 69, 64
2, 67440, Note_off_c, 0, 77, 64
2, 67680, Note_on_c, 0, 62, 50
2, 67680, Note_on_c, 0, 70, 50
2, 67920, Note_off_c, 0, 62, 64
2, 67920, Note_off_c, 0, 70, 64
2, 67920, Note_on_c, 0, 69, 48
2, 67920, Note_on_c, 0, 60, 47
2, 68160, Note_off_c, 0, 69, 64
2, 68160, Note_off_c, 0, 60, 64
2, 68160, Note_on_c, 0, 58, 54
2, 68160, Note_on_c, 0, 67, 49
2, 68400, Note_off_c, 0, 58, 64
2, 68400, Note_off_c, 0, 67, 64
2, 68400, Note_on_c, 0, 58, 45
2, 68400, Note_on_c, 0, 67, 45
2, 68640, Note_off_c, 0, 58, 64
2, 68640, Note_off_c, 0, 67, 64
2, 68640, Note_on_c, 0, 57, 51
2, 68640, Note_on_c, 0, 65, 53
2, 68880, Note_off_c, 0, 57, 64
2, 68880, Note_off_c, 0, 65, 64
2, 68880, Note_on_c, 0, 65, 49
2, 68880, Note_on_c, 0, 57, 48
2, 69120, Note_off_c, 0, 65, 64
2, 69120, Note_off_c, 0, 57, 64
2, 69120, Note_on_c, 0, 65, 49
2, 69120, Note_on_c, 0, 57, 51
2, 69360, Note_off_c, 0, 65, 64
2, 69360, Note_off_c, 0, 57, 64
2, 69360, Note_on_c, 0, 67, 52
2, 69360, Note_on_c, 0, 58, 51
2, 69600, Note_off_c, 0, 67, 64
2, 69600, Note_off_c, 0, 58, 64
2, 69600, Note_on_c, 0, 55, 53
2, 69600, Note_on_c, 0, 64, 46
2, 69840, Note_off_c, 0, 55, 64
2, 69840, Note_off_c, 0, 64, 64
2, 69840, Note_on_c, 0, 65, 54
2, 69840, Note_on_c, 0, 57, 45
2, 70080, Note_off_c, 0, 65, 64
2, 70080, Note_off_c, 0, 57, 64
2, 70560, Note_on_c, 0, 70, 49
2, 70560, Note_on_c, 0, 74, 45
2, 70800, Note_off_c, 0, 70, 64
2, 70800, Note_off_c, 0, 74, 64
2, 70800, Note_on_c, 0, 72, 50
2, 70800, Note_on_c, 0, 69, 51
2, 71040, Note_off_c, 0, 72, 64
2, 71040, Note_off_c, 0, 69, 64
2, 71040, Note_on_c, 0, 67, 46
2, 71040, Note_on_c, 0, 70, 54
2, 71280, Note_off_c, 0, 67, 64
2, 71280, Note_off_c, 0, 70, 64
2, 71280, Note_on_c, 0, 67, 46
2, 71280, Note_on_c, 0, 70, 53
2, 71520, Note_off_c, 0, 67, 64
2, 71520, Note_off_c, 0, 70, 64
2, 71520, Note_on_c, 0, 65, 53
2, 71520, Note_on_c, 0, 69, 47
2, 71760, Note_off_c, 0, 65, 64
2, 71760, Note_off_c, 0, 69, 64
2, 71760, Note_on_c, 0, 69, 45
2, 71760, Note_on_c, 0, 65, 53
2, 72000, Note_off_c, 0, 69, 64
2, 72000, Note_off_c, 0, 65, 64
2, 72000, Note_on_c, 0, 69, 53
2, 72000, Note_on_c, 0, 65, 50
2, 72240, Note_off_c, 0, 69, 64
2, 72240, Note_off_c, 0, 65, 64
2, 72240, Note_on_c, 0, 67, 49
2, 72240, Note_on_c, 0, 70, 52
2, 72480, Note_off_c, 0, 67, 64
2, 72480, Note_off_c, 0, 70, 64
2, 72480, Note_on_c, 0, 64, 48
2, 72480, Note_on_c, 0, 67, 48
2, 72720, Note_off_c, 0, 64, 64
2, 72720, Note_off_c, 0, 67, 64
2, 72720, Note_on_c, 0, 69, 49
2, 72720, Note_on_c, 0, 65, 50
2, 72960, Note_off_c, 0, 69, 64
2, 72960, Note_off_c, 0, 65, 64
2, 73560, Note_on_c, 0, 69, 79
2, 73680, Note_off_c, 0, 69, 64
2, 73680, Note_on_c, 0, 74, 73
2, 73800, Note_off_c, 0, 74, 64
2, 73800, Note_on_c, 0, 77, 78
2, 73920, Note_off_c, 0, 77, 64
2, 73920, Note_on_c, 0, 81, 72
2, 74160, Note_off_c, 0, 81, 64
2, 74280, Note_on_c, 0, 67, 79
2, 74400, Note_off_c, 0, 67, 64
2, 74400, Note_on_c, 0, 72, 70
2, 74520, Note_off_c, 0, 72, 64
2, 74520, Note_on_c, 0, 76, 75
2, 74640, Note_off_c, 0, 76, 64
2, 74640, Note_on_c, 0, 79, 74
2, 74880, Note_off_c, 0, 79, 64
2, 75000, Note_on_c, 0, 65, 75
2, 75120, Note_off_c, 0, 65, 64
2, 75120, Note_on_c, 0, 71, 75
2, 75240, Note_off_c, 0, 71, 64
2, 75240, Note_on_c, 0, 74, 78
2, 75360, Note_off_c, 0, 74, 64
2, 75360, Note_on_c, 0, 77, 75
2, 75600, Note_off_c, 0, 77, 64
2, 75720, Note_on_c, 0, 64, 74
2, 75840, Note_off_c, 0, 64, 64
2, 75840, Note_on_c, 0, 67, 70
2, 75960, Note_off_c, 0, 67, 64
2, 75960, Note_on_c, 0, 72, 73
2, 76080, Note_off_c, 0, 72, 64
2, 76080, Note_on_c, 0, 76, 72
2, 76320, Note_off_c, 0, 76, 64
2, 76440, Note_on_c, 0, 69, 70
2, 76560, Note_off_c, 0, 69, 64
2, 76560, Note_on_c, 0, 74, 76
2, 76680, Note_off_c, 0, 74, 64
2, 76680, Note_on_c, 0, 73, 78
2, 76800, Note_off_c, 0, 73, 64
2, 76800, Note_on_c, 0, 76, 76
2, 76920, Note_off_c, 0, 76, 64
2, 76920, Note_on_c, 0, 74, 71
2, 77040, Note_off_c, 0, 74, 64
2, 77040, Note_on_c, 0, 77, 72
2, 77160, Note_off_c, 0, 77, 64
2, 77160, Note_on_c, 0, 76, 70
2, 77280, Note_off_c, 0, 76, 64
2, 77280, Note_on_c, 0, 79, 75
2, 77400, Note_off_c, 0, 79, 64
2, 77400, Note_on_c, 0, 77, 74
2, 77520, Note_off_c, 0, 77, 64
2, 77520, Note_on_c, 0, 81, 78
2, 77640, Note_off_c, 0, 81, 64
2, 77640, Note_on_c, 0, 80, 79
2, 77760, Note_off_c, 0, 80, 64
2, 77760, Note_on_c, 0, 81, 79
2, 78000, Note_off_c, 0, 81, 64
2, 78240, Note_on_c, 0, 72, 54
2, 78240, Note_on_c, 0, 64, 46
2, 78480, Note_off_c, 0, 72, 64
2, 78480, Note_off_c, 0, 64, 64
2, 78480, Note_on_c, 0, 71, 46
2, 78480, Note_on_c, 0, 62, 45
2, 78720, Note_off_c, 0, 71, 64
2, 78720, Note_off_c, 0, 62, 64
2, 79680, Note_on_c, 0, 84, 49
2, 79680, Note_on_c, 0, 76, 51
2, 79920, Note_off_c, 0, 84, 64
2, 79920, Note_off_c, 0, 76, 64
2, 79920, Note_on_c, 0, 83, 48
2, 79920, Note_on_c, 0, 74, 48
2, 80160, Note_off_c, 0, 83, 64
2, 80160, Note_off_c, 0, 74, 64
2, 81120, Note_on_c, 0, 72, 53
2, 81120, Note_on_c, 0, 64, 48
2, 81360, Note_off_c, 0, 72, 64
2, 81360, Note_off_c, 0, 64, 64
2, 81360, Note_on_c, 0, 71, 48
2, 81360, Note_on_c, 0, 62, 53
2, 81600, Note_off_c, 0, 71, 64
2, 81600, Note_off_c, 0, 62, 64
2, 82800, Note_on_c, 0, 77, 47
2, 83160, Note_off_c, 0, 77, 64
2, 83160, Note_on_c, 0, 77, 53
2, 83280, Note_off_c, 0, 77, 64
2, 83280, Note_on_c, 0, 77, 50
2, 83400, Note_off_c, 0, 77, 64
2, 83400, Note_on_c, 0, 77, 46
2, 83460, Note_off_c, 0, 77, 64
2, 83460, Note_on_c, 0, 79, 46
2, 83520, Note_off_c, 0, 79, 64
2, 83520, Note_on_c, 0, 81, 54
2, 83880, Note_off_c, 0, 81, 64
2, 83880, Note_on_c, 0, 79, 48
2, 84000, Note_off_c, 0, 79, 64
2, 84000, Note_on_c, 0, 77, 52
2, 84240, Note_off_c, 0, 77, 64
2, 84240, Note_on_c, 0, 77, 47
2, 84600, Note_off_c, 0, 77, 64
2, 84600, Note_on_c, 0, 77, 48
2, 84720, Note_off_c, 0, 77, 64
2, 84720, Note_on_c, 0, 77, 51
2, 84840, Note_off_c, 0, 77, 64
2, 84840, Note_on_c, 0, 77, 50
2, 84900, Note_off_c, 0, 77, 64
2, 84900, Note_on_c, 0, 79, 50
2, 84960, Note_off_c, 0, 79, 64
2, 84960, Note_on_c, 0, 81, 54
2, 85320, Note_off_c, 0, 81, 64
2, 85320, Note_on_c, 0, 79, 49
2, 85440, Note_off_c, 0, 79, 64
2, 85440, Note_on_c, 0, 77, 49
2, 85680, Note_off_c, 0, 77, 64
2, 85680, Note_on_c, 0, 76, 52
2, 85920, Note_off_c, 0, 76, 64
2, 86160, Note_on_c, 0, 76, 45
2, 86400, Note_off_c, 0, 76, 64
2, 86400, Note_on_c, 0, 79, 84
2, 86880, Note_off_c, 0, 79, 64
2, 86880, Note_on_c, 0, 77, 52
2, 87120, Note_off_c, 0, 77, 64
2, 87120, Note_on_c, 0, 76, 46
2, 87360, Note_off_c, 0, 76, 64
2, 87600, Note_on_c, 0, 76, 45
2, 87840, Note_off_c, 0, 76, 64
2, 87840, Note_on_c, 0, 79, 88
2, 88320, Note_off_c, 0, 79, 64
2, 88320, Note_on_c, 0, 77, 52
2, 88560, Note_off_c, 0, 77, 64
2, 88560, Note_on_c, 0, 76, 50
2, 88800, Note_off_c, 0, 76, 64
2, 89040, Note_on_c, 0, 76, 53
2, 89280, Note_off_c, 0, 76, 64
2, 89280, Note_on_c, 0, 79, 75
2, 89520, Note_off_c, 0, 79, 64
2, 89520, Note_on_c, 0, 77, 76
2, 89760, Note_off_c, 0, 77, 64
2, 89760, Note_on_c, 0, 76, 88
2, 90000, Note_off_c, 0, 76, 64
2, 90000, Note_on_c, 0, 76, 88
2, 90240, Note_off_c, 0, 76, 64
2, 90240, Note_on_c, 0, 74, 85
2, 90480, Note_off_c, 0, 74, 64
2, 90480, Note_on_c, 0, 72, 85
2, 90720, Note_off_c, 0, 72, 64
2, 90720, Note_on_c, 0, 74, 50
2, 90780, Note_off_c, 0, 74, 64
2, 90780, Note_on_c, 0, 72, 45
2, 90840, Note_off_c, 0, 72, 64
2, 90840, Note_on_c, 0, 74, 54
2, 90900, Note_off_c, 0, 74, 64
2, 90900, Note_on_c, 0, 72, 49
2, 90960, Note_off_c, 0, 72, 64
2, 90960, Note_on_c, 0, 74, 54
2, 91020, Note_off_c, 0, 74, 64
2, 91020, Note_on_c, 0, 72, 47
2, 91080, Note_off_c, 0, 72, 64
2, 91080, Note_on_c, 0, 74, 47
2, 91200, Note_off_c, 0, 74, 64
2, 91200, Note_on_c, 0, 71, 47
2, 91440, Note_off_c, 0, 71, 64
2, 91440, Note_on_c, 0, 77, 47
2, 91800, Note_off_c, 0, 77, 64
2, 91800, Note_on_c, 0, 77, 54
2, 91920, Note_off_c, 0, 77, 64
2, 91920, Note_on_c, 0, 77, 47
2, 92040, Note_off_c, 0, 77, 64
2, 92040, Note_on_c, 0, 77, 47
2, 92100, Note_off_c, 0, 77, 64
2, 92100, Note_on_c, 0, 79, 51
2, 92160, Note_off_c, 0, 79, 64
2, 92160, Note_on_c, 0, 81, 47
2, 92520, Note_off_c, 0, 81, 64
2, 92520, Note_on_c, 0, 79, 50
2, 92640, Note_off_c, 0, 79, 64
2, 92640, Note_on_c, 0, 77, 46
2, 92880, Note_off_c, 0, 77, 64
2, 92880, Note_on_c, 0, 77, 48
2, 93240, Note_off_c, 0, 77, 64
2, 93240, Note_on_c, 0, 77, 51
2, 93360, Note_off_c, 0, 77, 64
2, 93360, Note_on_c, 0, 77, 53
2, 93480, Note_off_c, 0, 77, 64
2, 93480, Note_on_c, 0, 77, 46
2, 93540, Note_off_c, 0, 77, 64
2, 93540, Note_on_c, 0, 79, 47
2, 93600, Note_off_c, 0, 79, 64
2, 93600, Note_on_c, 0, 81, 49
2, 93960, Note_off_c, 0, 81, 64
2, 93960, Note_on_c, 0, 79, 47
2, 94080, Note_off_c, 0, 79, 64
2, 94080, Note_on_c, 0, 77, 50
2, 94320, Note_off_c, 0, 77, 64
2, 94320, Note_on_c, 0, 76, 51
2, 94440, Note_off_c, 0, 76, 64
2, 94440, Note_on_c, 0, 72, 51
2, 94560, Note_off_c, 0, 72, 64
2, 94560, Note_on_c, 0, 67, 53
2, 94680, Note_off_c, 0, 67, 64
2, 94680, Note_on_c, 0, 72, 54
2, 94800, Note_off_c, 0, 72, 64
2, 94800, Note_on_c, 0, 76, 53
2, 94920, Note_off_c, 0, 76, 64
2, 94920, Note_on_c, 0, 72, 45
2, 95040, Note_off_c, 0, 72, 64
2, 95040, Note_on_c, 0, 79, 84
2, 95160, Note_off_c, 0, 79, 64
2, 95160, Note_on_c, 0, 67, 89
2, 95280, Note_off_c, 0, 67, 64
2, 95280, Note_on_c, 0, 78, 47
2, 95400, Note_off_c, 0, 78, 64
2, 95400, Note_on_c, 0, 67, 50
2, 95520, Note_off_c, 0, 67, 64
2, 95520, Note_on_c, 0, 77, 50
2, 95640, Note_off_c, 0, 77, 64
2, 95640, Note_on_c, 0, 67, 49
2, 95760, Note_off_c, 0, 67, 64
2, 95760, Note_on_c, 0, 76, 53
2, 95880, Note_off_c, 0, 76, 64
2, 95880, Note_on_c, 0, 72, 50
2, 96000, Note_off_c, 0, 72, 64
2, 96000, Note_on_c, 0, 67, 48
2, 96120, Note_off_c, 0, 67, 64
2, 96120, Note_on_c, 0, 72, 50
2, 96240, Note_off_c, 0, 72, 64
2, 96240, Note_on_c, 0, 76, 48
2, 96360, Note_off_c, 0, 76, 64
2, 96360, Note_on_c, 0, 72, 51
2, 96480, Note_off_c, 0, 72, 64
2, 96480, Note_on_c, 0, 79, 88
2, 96600, Note_off_c, 0, 79, 64
2, 96600, Note_on_c, 0, 67, 83
2, 96720, Note_off_c, 0, 67, 64
2, 96720, Note_on_c, 0, 78, 50
2, 96840, Note_off_c, 0, 78, 64
2, 96840, Note_on_c, 0, 67, 54
2, 96960, Note_off_c, 0, 67, 64
2, 96960, Note_on_c, 0, 77, 51
2, 97080, Note_off_c, 0, 77, 64
2, 97080, Note_on_c, 0, 67, 47
2, 97200, Note_off_c, 0, 67, 64
2, 97200, Note_on_c, 0, 76, 48
2, 97320, Note_off_c, 0, 76, 64
2, 97320, Note_on_c, 0, 79, 54
2, 97440, Note_off_c, 0, 79, 64
2, 97440, Note_on_c, 0, 84, 49
2, 97560, Note_off_c, 0, 84, 64
2, 97560, Note_on_c, 0, 83, 46
2, 97680, Note_off_c, 0, 83, 64
2, 97680, Note_on_c, 0, 81, 47
2, 97800, Note_off_c, 0, 81, 64
2, 97800, Note_on_c, 0, 79, 49
2, 97920, Note_off_c, 0, 79, 64
2, 97920, Note_on_c, 0, 77, 77
2, 98040, Note_off_c, 0, 77, 64
2, 98040, Note_on_c, 0, 79, 73
2, 98160, Note_off_c, 0, 79, 64
2, 98160, Note_on_c, 0, 81, 73
2, 98280, Note_off_c, 0, 81, 64
2, 98280, Note_on_c, 0, 77, 77
2, 98400, Note_off_c, 0, 77, 64
2, 98400, Note_on_c, 0, 75, 53
2, 98520, Note_off_c, 0, 75, 64
2, 98520, Note_on_c, 0, 76, 49
2, 98640, Note_off_c, 0, 76, 64
2, 98640, Note_on_c, 0, 74, 79
2, 98760, Note_off_c, 0, 74, 64
2, 98760, Note_on_c, 0, 76, 72
2, 98880, Note_off_c, 0, 76, 64
2, 98880, Note_on_c, 0, 77, 73
2, 99000, Note_off_c, 0, 77, 64
2, 99000, Note_on_c, 0, 74, 73
2, 99120, Note_off_c, 0, 74, 64
2, 99120, Note_on_c, 0, 71, 50
2, 99240, Note_off_c, 0, 71, 64
2, 99240, Note_on_c, 0, 72, 45
2, 99360, Note_off_c, 0, 72, 64
2, 99360, Note_on_c, 0, 74, 75
2, 99480, Note_off_c, 0, 74, 64
2, 99480, Note_on_c, 0, 77, 76
2, 99600, Note_off_c, 0, 77, 64
2, 99600, Note_on_c, 0, 76, 76
2, 99720, Note_off_c, 0, 76, 64
2, 99720, Note_on_c, 0, 72, 72
2, 99840, Note_off_c, 0, 72, 64
2, 99840, Note_on_c, 0, 71, 78
2, 99960, Note_off_c, 0, 71, 64
2, 99960, Note_on_c, 0, 74, 72
2, 100080, Note_off_c, 0, 74, 64
2, 100080, Note_on_c, 0, 72, 75
2, 100200, Note_off_c, 0, 72, 64
2, 100200, Note_on_c, 0, 74, 74
2, 100320, Note_off_c, 0, 74, 64
2, 100320, Note_on_c, 0, 76, 73
2, 100440, Note_off_c, 0, 76, 64
2, 100440, Note_on_c, 0, 72, 75
2, 100560, Note_off_c, 0, 72, 64
2, 100560, Note_on_c, 0, 69, 75
2, 100680, Note_off_c, 0, 69, 64
2, 100680, Note_on_c, 0, 67, 74
2, 100800, Note_off_c, 0, 67, 64
2, 100800, Note_on_c, 0, 65, 77
2, 100920, Note_off_c, 0, 65, 64
2, 100920, Note_on_c, 0, 67, 75
2, 101040, Note_off_c, 0, 67, 64
2, 101040, Note_on_c, 0, 69, 70
2, 101160, Note_off_c, 0, 69, 64
2, 101160, Note_on_c, 0, 65, 74
2, 101280, Note_off_c, 0, 65, 64
2, 101280, Note_on_c, 0, 63, 48
2, 101400, Note_off_c, 0, 63, 64
2, 101400, Note_on_c, 0, 64, 45
2, 101520, Note_off_c, 0, 64, 64
2, 101520, Note_on_c, 0, 62, 73
2, 101640, Note_off_c, 0, 62, 64
2, 101640, Note_on_c, 0, 64, 70
2, 101760, Note_off_c, 0, 64, 64
2, 101760, Note_on_c, 0, 65, 73
2, 101880, Note_off_c, 0, 65, 64
2, 101880, Note_on_c, 0, 62, 73
2, 102000, Note_off_c, 0, 62, 64
2, 102000, Note_on_c, 0, 59, 51
2, 102120, Note_off_c, 0, 59, 64
2, 102120, Note_on_c, 0, 60, 47
2, 102240, Note_off_c, 0, 60, 64
2, 102240, Note_on_c, 0, 62, 79
2, 102360, Note_off_c, 0, 62, 64
2, 102360, Note_on_c, 0, 65, 78
2, 102480, Note_off_c, 0, 65, 64
2, 102480, Note_on_c, 0, 64, 79
2, 102600, Note_off_c, 0, 64, 64
2, 102600, Note_on_c, 0, 60, 79
2, 102720, Note_off_c, 0, 60, 64
2, 102720, Note_on_c, 0, 59, 79
2, 102840, Note_off_c, 0, 59, 64
2, 102840, Note_on_c, 0, 62, 79
2, 102960, Note_off_c, 0, 62, 64
2, 102960, Note_on_c, 0, 60, 75
2, 103200, Note_off_c, 0, 60, 64
2, 103200, Note_on_c, 0, 67, 45
2, 103440, Note_off_c, 0, 67, 64
2, 103440, Note_on_c, 0, 64, 48
2, 103680, Note_off_c, 0, 64, 64
2, 103680, Note_on_c, 0, 60, 46
2, 103920, Note_off_c, 0, 60, 64
2, 104640, Note_on_c, 0, 72, 45
2, 104880, Note_off_c, 0, 72, 64
2, 104880, Note_on_c, 0, 69, 48
2, 105120, Note_off_c, 0, 69, 64
2, 105120, Note_on_c, 0, 65, 45
2, 105360, Note_off_c, 0, 65, 64
2, 106080, Note_on_c, 0, 77, 49
2, 106320, Note_off_c, 0, 77, 64
2, 106320, Note_on_c, 0, 74, 51
2, 106560, Note_off_c, 0, 74, 64
2, 106560, Note_on_c, 0, 71, 54
2, 106800, Note_off_c, 0, 71, 64
2, 107400, Note_on_c, 0, 72, 79
2, 107520, Note_off_c, 0, 72, 64
2, 107520, Note_on_c, 0, 71, 72
2, 107640, Note_off_c, 0, 71, 64
2, 107640, Note_on_c, 0, 72, 70
2, 107760, Note_off_c, 0, 72, 64
2, 107760, Note_on_c, 0, 76, 75
2, 107880, Note_off_c, 0, 76, 64
2, 107880, Note_on_c, 0, 79, 73
2, 108000, Note_off_c, 0, 79, 64
2, 108120, Note_on_c, 0, 77, 74
2, 108240, Note_off_c, 0, 77, 64
2, 108240, Note_on_c, 0, 76, 78
2, 108360, Note_off_c, 0, 76, 64
2, 108360, Note_on_c, 0, 77, 79
2, 108480, Note_off_c, 0, 77, 64
2, 108480, Note_on_c, 0, 74, 70
2, 108600, Note_off_c, 0, 74, 64
2, 108600, Note_on_c, 0, 71, 71
2, 108720, Note_off_c, 0, 71, 64
2, 108840, Note_on_c, 0, 72, 75
2, 108960, Note_off_c, 0, 72, 64
2, 108960, Note_on_c, 0, 71, 75
2, 109080, Note_off_c, 0, 71, 64
2, 109080, Note_on_c, 0, 72, 72
2, 109200, Note_off_c, 0, 72, 64
2, 109200, Note_on_c, 0, 76, 75
2, 109320, Note_off_c, 0, 76, 64
2, 109320, Note_on_c, 0, 79, 76
2, 109440, Note_off_c, 0, 79, 64
2, 109560, Note_on_c, 0, 77, 79
2, 109680, Note_off_c, 0, 77, 64
2, 109680, Note_on_c, 0, 76, 78
2, 109800, Note_off_c, 0, 76, 64
2, 109800, Note_on_c, 0, 77, 79
2, 109920, Note_off_c, 0, 77, 64
2, 109920, Note_on_c, 0, 74, 73
2, 110040, Note_off_c, 0, 74, 64
2, 110040, Note_on_c, 0, 71, 78
2, 110160, Note_off_c, 0, 71, 64
2, 110160, Note_on_c, 0, 72, 72
2, 110400, Note_off_c, 0, 72, 64
2, 110400, Note_on_c, 0, 84, 70
2, 110400, Note_on_c, 0, 76, 78
2, 110640, Note_off_c, 0, 84, 64
2, 110640, Note_off_c, 0, 76, 64
2, 110640, Note_on_c, 0, 84, 71
2, 110640, Note_on_c, 0, 76, 78
2, 110880, Note_off_c, 0, 84, 64
2, 110880, Note_off_c, 0, 76, 64
2, 110880, Note_on_c, 0, 84, 70
2, 110880, Note_on_c, 0, 76, 74
2, 111120, Note_off_c, 0, 84, 64
2, 111120, Note_off_c, 0, 76, 64
2, 111600, Note_on_c, 0, 72, 51
2, 111960, Note_off_c, 0, 72, 64
2, 111960, Note_on_c, 0, 72, 54
2, 112080, Note_off_c, 0, 72, 64
2, 112080, Note_on_c, 0, 72, 49
2, 112200, Note_off_c, 0, 72, 64
2, 112200, Note_on_c, 0, 72, 51
2, 112260, Note_off_c, 0, 72, 64
2, 112260, Note_on_c, 0, 74, 46
2, 112320, Note_off_c, 0, 74, 64
2, 112320, Note_on_c, 0, 75, 49
2, 112680, Note_off_c, 0, 75, 64
2, 112680, Note_on_c, 0, 74, 49
2, 112800, Note_off_c, 0, 74, 64
2, 112800, Note_on_c, 0, 72, 48
2, 113040, Note_off_c, 0, 72, 64
2, 113040, Note_on_c, 0, 72, 48
2, 113400, Note_off_c, 0, 72, 64
2, 113400, Note_on_c, 0, 72, 50
2, 113520, Note_off_c, 0, 72, 64
2, 113520, Note_on_c, 0, 72, 53
2, 113640, Note_off_c, 0, 72, 64
2, 113640, Note_on_c, 0, 72, 46
2, 113700, Note_off_c, 0, 72, 64
2, 113700, Note_on_c, 0, 74, 52
2, 113760, Note_off_c, 0, 74, 64
2, 113760, Note_on_c, 0, 75, 51
2, 114120, Note_off_c, 0, 75, 64
2, 114120, Note_on_c, 0, 74, 53
2, 114240, Note_off_c, 0, 74, 64
2, 114240, Note_on_c, 0, 72, 52
2, 114480, Note_off_c, 0, 72, 64
2, 114480, Note_on_c, 0, 84, 79
2, 114480, Note_on_c, 0, 81, 74
2, 115200, Note_off_c, 0, 84, 64
2, 115200, Note_off_c, 0, 81, 64
2, 115200, Note_on_c, 0, 79, 70
2, 115200, Note_on_c, 0, 82, 76
2, 115920, Note_off_c, 0, 82, 64
2, 115920, Note_on_c, 0, 81, 75
2, 116400, Note_off_c, 0, 79, 64
2, 116400, Note_on_c, 0, 78, 77
2, 116640, Note_off_c, 0, 81, 64
2, 116640, Note_off_c, 0, 78, 64
2, 116640, Note_on_c, 0, 79, 78
2, 117120, Note_off_c, 0, 79, 64
2, 117360, Note_on_c, 0, 70, 53
2, 117720, Note_off_c, 0, 70, 64
2, 117720, Note_on_c, 0, 70, 52
2, 117840, Note_off_c, 0, 70, 64
2, 117840, Note_on_c, 0, 70, 49
2, 117960, Note_off_c, 0, 70, 64
2, 117960, Note_on_c, 0, 70, 47
2, 118020, Note_off_c, 0, 70, 64
2, 118020, Note_on_c, 0, 72, 50
2, 118080, Note_off_c, 0, 72, 64
2, 118080, Note_on_c, 0, 73, 49
2, 118440, Note_off_c, 0, 73, 64
2, 118440, Note_on_c, 0, 72, 52
2, 118560, Note_off_c, 0, 72, 64
2, 118560, Note_on_c, 0, 70, 50
2, 118800, Note_off_c, 0, 70, 64
2, 118800, Note_on_c, 0, 70, 47
2, 119160, Note_off_c, 0, 70, 64
2, 119160, Note_on_c, 0, 70, 47
2, 119280, Note_off_c, 0, 70, 64
2, 119280, Note_on_c, 0, 70, 45
2, 119400, Note_off_c, 0, 70, 64
2, 119400, Note_on_c, 0, 70, 49
2, 119460, Note_off_c, 0, 70, 64
2, 119460, Note_on_c, 0, 72, 48
2, 119520, Note_off_c, 0, 72, 64
2, 119520, Note_on_c, 0, 73, 53
2, 119880, Note_off_c, 0, 73, 64
2, 119880, Note_on_c, 0, 72, 46
2, 120000, Note_off_c, 0, 72, 64
2, 120000, Note_on_c, 0, 70, 49
2, 120240, Note_off_c, 0, 70, 64
2, 120240, Note_on_c, 0, 60, 70
2, 120360, Note_off_c, 0, 60, 64
2, 120360, Note_on_c, 0, 72, 78
2, 120480, Note_off_c, 0, 72, 64
2, 120480, Note_on_c, 0, 62, 72
2, 120600, Note_off_c, 0, 62, 64
2, 120600, Note_on_c, 0, 74, 75
2, 120720, Note_off_c, 0, 74, 64
2, 120720, Note_on_c, 0, 64, 78
2, 120840, Note_off_c, 0, 64, 64
2, 120840, Note_on_c, 0, 76, 75
2, 120960, Note_off_c, 0, 76, 64
2, 120960, Note_on_c, 0, 65, 79
2, 121080, Note_off_c, 0, 65, 64
2, 121080, Note_on_c, 0, 77, 71
2, 121200, Note_off_c, 0, 77, 64
2, 121200, Note_on_c, 0, 67, 76
2, 121320, Note_off_c, 0, 67, 64
2, 121320, Note_on_c, 0, 79, 70
2, 121440, Note_off_c, 0, 79, 64
2, 121440, Note_on_c, 0, 69, 77
2, 121560, Note_off_c, 0, 69, 64
2, 121560, Note_on_c, 0, 81, 78
2, 121680, Note_off_c, 0, 81, 64
2, 121680, Note_on_c, 0, 79, 71
2, 121680, Note_on_c, 0, 82, 74
2, 122400, Note_off_c, 0, 79, 64
2, 122400, Note_off_c, 0, 82, 64
2, 122400, Note_on_c, 0, 77, 78
2, 122400, Note_on_c, 0, 81, 70
2, 123120, Note_off_c, 0, 77, 64
2, 123120, Note_off_c, 0, 81, 64
2, 123120, Note_on_c, 0, 57, 78
2, 123240, Note_off_c, 0, 57, 64
2, 123240, Note_on_c, 0, 69, 75
2, 123360, Note_off_c, 0, 69, 64
2, 123360, Note_on_c, 0, 59, 74
2, 123480, Note_off_c, 0, 59, 64
2, 123480, Note_on_c, 0, 71, 79
2, 123600, Note_off_c, 0, 71, 64
2, 123600, Note_on_c, 0, 61, 78
2, 123720, Note_off_c, 0, 61, 64
2, 123720, Note_on_c, 0, 73, 75
2, 123840, Note_off_c, 0, 73, 64
2, 123840, Note_on_c, 0, 62, 78
2, 123960, Note_off_c, 0, 62, 64
2, 123960, Note_on_c, 0, 74, 71
2, 124080, Note_off_c, 0, 74, 64
2, 124080, Note_on_c, 0, 64, 71
2, 124200, Note_off_c, 0, 64, 64
2, 124200, Note_on_c, 0, 76, 78
2, 124320, Note_off_c, 0, 76, 64
2, 124320, Note_on_c, 0, 65, 74
2, 124440, Note_off_c, 0, 65, 64
2, 124440, Note_on_c, 0, 77, 75
2, 124560, Note_off_c, 0, 77, 64
2, 124560, Note_on_c, 0, 76, 76
2, 124560, Note_on_c, 0, 79, 76
2, 125280, Note_off_c, 0, 76, 64
2, 125280, Note_off_c, 0, 79, 64
2, 125280, Note_on_c, 0, 77, 76
2, 125280, Note_on_c, 0, 74, 77
2, 126000, Note_off_c, 0, 77, 64
2, 126000, Note_off_c, 0, 74, 64
2, 126120, Note_on_c, 0, 75, 46
2, 126240, Note_off_c, 0, 75, 64
2, 126240, Note_on_c, 0, 74, 49
2, 126360, Note_off_c, 0, 74, 64
2, 126360, Note_on_c, 0, 75, 51
2, 126480, Note_off_c, 0, 75, 64
2, 126480, Note_on_c, 0, 79, 49
2, 126600, Note_off_c, 0, 79, 64
2, 126600, Note_on_c, 0, 75, 53
2, 126720, Note_off_c, 0, 75, 64
2, 126840, Note_on_c, 0, 74, 51
2, 126960, Note_off_c, 0, 74, 64
2, 126960, Note_on_c, 0, 73, 52
2, 127080, Note_off_c, 0, 73, 64
2, 127080, Note_on_c, 0, 74, 48
2, 127200, Note_off_c, 0, 74, 64
2, 127200, Note_on_c, 0, 77, 47
2, 127320, Note_off_c, 0, 77, 64
2, 127320, Note_on_c, 0, 74, 46
2, 127440, Note_off_c, 0, 74, 64
2, 127560, Note_on_c, 0, 73, 47
2, 127680, Note_off_c, 0, 73, 64
2, 127680, Note_on_c, 0, 71, 50
2, 127800, Note_off_c, 0, 71, 64
2, 127800, Note_on_c, 0, 73, 50
2, 127920, Note_off_c, 0, 73, 64
2, 127920, Note_on_c, 0, 76, 48
2, 128040, Note_off_c, 0, 76, 64
2, 128040, Note_on_c, 0, 73, 53
2, 128160, Note_off_c, 0, 73, 64
2, 128280, Note_on_c, 0, 74, 47
2, 128400, Note_off_c, 0, 74, 64
2, 128400, Note_on_c, 0, 73, 47
2, 128520, Note_off_c, 0, 73, 64
2, 128520, Note_on_c, 0, 74, 52
2, 128640, Note_off_c, 0, 74, 64
2, 128640, Note_on_c, 0, 77, 48
2, 128760, Note_off_c, 0, 77, 64
2, 128760, Note_on_c, 0, 74, 47
2, 128880, Note_off_c, 0, 74, 64
2, 128880, Note_on_c, 0, 80, 78
2, 128880, Note_on_c, 0, 74, 77
2, 128880, Note_on_c, 0, 86, 77
2, 129120, Note_off_c, 0, 80, 64
2, 129120, Note_off_c, 0, 86, 64
2, 129120, Note_off_c, 0, 74, 64
2, 129600, Note_on_c, 0, 76, 76
2, 129600, Note_on_c, 0, 85, 71
2, 129600, Note_on_c, 0, 81, 78
2, 129840, Note_off_c, 0, 76, 64
2, 129840, Note_off_c, 0, 81, 64
2, 129840, Note_off_c, 0, 85, 64
2, 130320, Note_on_c, 0, 80, 70
2, 130320, Note_on_c, 0, 74, 73
2, 130320, Note_on_c, 0, 86, 74
2, 130560, Note_off_c, 0, 80, 64
2, 130560, Note_off_c, 0, 86, 64
2, 130560, Note_off_c, 0, 74, 64
2, 131040, Note_on_c, 0, 85, 77
2, 131040, Note_on_c, 0, 81, 75
2, 131040, Note_on_c, 0, 76, 73
2, 131280, Note_off_c, 0, 85, 64
2, 131280, Note_off_c, 0, 76, 64
2, 131280, Note_off_c, 0, 81, 64
2, 132960, Note_on_c, 0, 84, 72
2, 133080, Note_off_c, 0, 84, 64
2, 133080, Note_on_c, 0, 81, 71
2, 133200, Note_off_c, 0, 81, 64
2, 133200, Note_on_c, 0, 77, 78
2, 133440, Note_off_c, 0, 77, 64
2, 133440, Note_on_c, 0, 77, 74
2, 133680, Note_off_c, 0, 77, 64
2, 133680, Note_on_c, 0, 77, 70
2, 133860, Note_off_c, 0, 77, 64
2, 133860, Note_on_c, 0, 76, 73
2, 133920, Note_off_c, 0, 76, 64
2, 133920, Note_on_c, 0, 82, 47
2, 134160, Note_off_c, 0, 82, 64
2, 134580, Note_on_c, 0, 77, 53
2, 134640, Note_off_c, 0, 77, 64
2, 134640, Note_on_c, 0, 81, 54
2, 134880, Note_off_c, 0, 81, 64
2, 135300, Note_on_c, 0, 76, 47
2, 135360, Note_off_c, 0, 76, 64
2, 135360, Note_on_c, 0, 79, 47
2, 135600, Note_off_c, 0, 79, 64
2, 136080, Note_on_c, 0, 77, 70
2, 136200, Note_off_c, 0, 77, 64
2, 136200, Note_on_c, 0, 79, 78
2, 136320, Note_off_c, 0, 79, 64
2, 136320, Note_on_c, 0, 81, 79
2, 136440, Note_off_c, 0, 81, 64
2, 136440, Note_on_c, 0, 77, 72
2, 136560, Note_off_c, 0, 77, 64
2, 136560, Note_on_c, 0, 72, 78
2, 136680, Note_off_c, 0, 72, 64
2, 136680, Note_on_c, 0, 73, 79
2, 136800, Note_off_c, 0, 73, 64
2, 136800, Note_on_c, 0, 74, 78
2, 136920, Note_off_c, 0, 74, 64
2, 136920, Note_on_c, 0, 76, 76
2, 137040, Note_off_c, 0, 76, 64
2, 137040, Note_on_c, 0, 77, 73
2, 137160, Note_off_c, 0, 77, 64
2, 137160, Note_on_c, 0, 74, 77
2, 137280, Note_off_c, 0, 74, 64
2, 137280, Note_on_c, 0, 67, 72
2, 137400, Note_off_c, 0, 67, 64
2, 137400, Note_on_c, 0, 69, 70
2, 137520, Note_off_c, 0, 69, 64
2, 137520, Note_on_c, 0, 70, 70
2, 137640, Note_off_c, 0, 70, 64
2, 137640, Note_on_c, 0, 72, 75
2, 137760, Note_off_c, 0, 72, 64
2, 137760, Note_on_c, 0, 74, 73
2, 137880, Note_off_c, 0, 74, 64
2, 137880, Note_on_c, 0, 70, 73
2, 138000, Note_off_c, 0, 70, 64
2, 138000, Note_on_c, 0, 62, 74
2, 138120, Note_off_c, 0, 62, 64
2, 138120, Note_on_c, 0, 65, 73
2, 138240, Note_off_c, 0, 65, 64
2, 138240, Note_on_c, 0, 64, 72
2, 138360, Note_off_c, 0, 64, 64
2, 138360, Note_on_c, 0, 65, 70
2, 138480, Note_off_c, 0, 65, 64
2, 138480, Note_on_c, 0, 67, 78
2, 138600, Note_off_c, 0, 67, 64
2, 138600, Note_on_c, 0, 64, 77
2, 138720, Note_off_c, 0, 64, 64
2, 138720, Note_on_c, 0, 72, 74
2, 138840, Note_off_c, 0, 72, 64
2, 138840, Note_on_c, 0, 69, 77
2, 138960, Note_off_c, 0, 69, 64
2, 138960, Note_on_c, 0, 65, 75
2, 139200, Note_off_c, 0, 65, 64
2, 139200, Note_on_c, 0, 65, 76
2, 139440, Note_off_c, 0, 65, 64
2, 139440, Note_on_c, 0, 65, 72
2, 139620, Note_off_c, 0, 65, 64
2, 139620, Note_on_c, 0, 64, 71
2, 139680, Note_off_c, 0, 64, 64
2, 139680, Note_on_c, 0, 70, 52
2, 139920, Note_off_c, 0, 70, 64
2, 140340, Note_on_c, 0, 65, 45
2, 140400, Note_off_c, 0, 65, 64
2, 140400, Note_on_c, 0, 69, 48
2, 140640, Note_off_c, 0, 69, 64
2, 141060, Note_on_c, 0, 64, 46
2, 141120, Note_off_c, 0, 64, 64
2, 141120, Note_on_c, 0, 67, 52
2, 141360, Note_off_c, 0, 67, 64
2, 141840, Note_on_c, 0, 65, 70
2, 141960, Note_off_c, 0, 65, 64
2, 141960, Note_on_c, 0, 67, 70
2, 142080, Note_off_c, 0, 67, 64
2, 142080, Note_on_c, 0, 69, 70
2, 142200, Note_off_c, 0, 69, 64
2, 142200, Note_on_c, 0, 70, 77
2, 142320, Note_off_c, 0, 70, 64
2, 142320, Note_on_c, 0, 72, 71
2, 142440, Note_off_c, 0, 72, 64
2, 142440, Note_on_c, 0, 73, 71
2, 142560, Note_off_c, 0, 73, 64
2, 142560, Note_on_c, 0, 74, 77
2, 142680, Note_off_c, 0, 74, 64
2, 142680, Note_on_c, 0, 76, 79
2, 142800, Note_off_c, 0, 76, 64
2, 142800, Note_on_c, 0, 77, 73
2, 142920, Note_off_c, 0, 77, 64
2, 142920, Note_on_c, 0, 79, 76
2, 143040, Note_off_c, 0, 79, 64
2, 143040, Note_on_c, 0, 81, 75
2, 143160, Note_off_c, 0, 81, 64
2, 143160, Note_on_c, 0, 82, 71
2, 143280, Note_off_c, 0, 82, 64
2, 143280, Note_on_c, 0, 84, 77
2, 143520, Note_off_c, 0, 84, 64
2, 143520, Note_on_c, 0, 77, 76
2, 143520, Note_on_c, 0, 69, 75
2, 143760, Note_off_c, 0, 77, 64
2, 143760, Note_off_c, 0, 69, 64
2, 143760, Note_on_c, 0, 76, 73
2, 143760, Note_on_c, 0, 67, 74
2, 144000, Note_off_c, 0, 76, 64
2, 144000, Note_off_c, 0, 67, 64
2, 144000, Note_on_c, 0, 69, 70
2, 144000, Note_on_c, 0, 77, 73
2, 144480, Note_off_c, 0, 69, 64
2, 144480, Note_off_c, 0, 77, 64
2, 144720, Note_on_c, 0, 70, 49
2, 144720, Note_on_c, 0, 62, 50
2, 144960, Note_off_c, 0, 70, 64
2, 144960, Note_off_c, 0, 62, 64
2, 144960, Note_on_c, 0, 69, 50
2, 144960, Note_on_c, 0, 60, 49
2, 145200, Note_off_c, 0, 69, 64
2, 145200, Note_off_c, 0, 60, 64
2, 145200, Note_on_c, 0, 58, 46
2, 145200, Note_on_c, 0, 67, 46
2, 145440, Note_off_c, 0, 58, 64
2, 145440, Note_off_c, 0, 67, 64
2, 145440, Note_on_c, 0, 58, 45
2, 145440, Note_on_c, 0, 67, 52
2, 145680, Note_off_c, 0, 58, 64
2, 145680, Note_off_c, 0, 67, 64
2, 145680, Note_on_c, 0, 57, 48
2, 145680, Note_on_c, 0, 65, 53
2, 145920, Note_off_c, 0, 57, 64
2, 145920, Note_off_c, 0, 65, 64
2, 145920, Note_on_c, 0, 57, 47
2, 145920, Note_on_c, 0, 65, 52
2, 146160, Note_off_c, 0, 57, 64
2, 146160, Note_off_c, 0, 65, 64
2, 146160, Note_on_c, 0, 65, 54
2, 146160, Note_on_c, 0, 57, 54
2, 146400, Note_off_c, 0, 65, 64
2, 146400, Note_off_c, 0, 57, 64
2, 146400, Note_on_c, 0, 58, 54
2, 146400, Note_on_c, 0, 67, 51
2, 146640, Note_off_c, 0, 58, 64
2, 146640, Note_off_c, 0, 67, 64
2, 146640, Note_on_c, 0, 64, 49
2, 146640, Note_on_c, 0, 55, 45
2, 146880, Note_off_c, 0, 64, 64
2, 146880, Note_off_c, 0, 55, 64
2, 146880, Note_on_c, 0, 57, 49
2, 146880, Note_on_c, 0, 65, 54
2, 147120, Note_off_c, 0, 57, 64
2, 147120, Note_off_c, 0, 65, 64
2, 147600, Note_on_c, 0, 70, 50
2, 147600, Note_on_c, 0, 74, 45
2, 147840, Note_off_c, 0, 70, 64
2, 147840, Note_off_c, 0, 74, 64
2, 147840, Note_on_c, 0, 69, 48
2, 147840, Note_on_c, 0, 72, 53
2, 148080, Note_off_c, 0, 69, 64
2, 148080, Note_off_c, 0, 72, 64
2, 148080, Note_on_c, 0, 67, 54
2, 148080, Note_on_c, 0, 70, 54
2, 148320, Note_off_c, 0, 67, 64
2, 148320, Note_off_c, 0, 70, 64
2, 148320, Note_on_c, 0, 67, 51
2, 148320, Note_on_c, 0, 70, 47
2, 148560, Note_off_c, 0, 67, 64
2, 148560, Note_off_c, 0, 70, 64
2, 148560, Note_on_c, 0, 65, 47
2, 148560, Note_on_c, 0, 69, 49
2, 148800, Note_off_c, 0, 65, 64
2, 148800, Note_off_c, 0, 69, 64
2, 148800, Note_on_c, 0, 69, 54
2, 148800, Note_on_c, 0, 65, 46
2, 149040, Note_off_c, 0, 69, 64
2, 149040, Note_off_c, 0, 65, 64
2, 149040, Note_on_c, 0, 65, 53
2, 149040, Note_on_c, 0, 69, 51
2, 149280, Note_off_c, 0, 65, 64
2, 149280, Note_off_c, 0, 69, 64
2, 149280, Note_on_c, 0, 70, 52
2, 149280, Note_on_c, 0, 67, 45
2, 149520, Note_off_c, 0, 70, 64
2, 149520, Note_off_c, 0, 67, 64
2, 149520, Note_on_c, 0, 64, 46
2, 149520, Note_on_c, 0, 67, 53
2, 149760, Note_off_c, 0, 64, 64
2, 149760, Note_off_c, 0, 67, 64
2, 149760, Note_on_c, 0, 69, 53
2, 149760, Note_on_c, 0, 65, 48
2, 150000, Note_off_c, 0, 69, 64
2, 150000, Note_off_c, 0, 65, 64
2, 150600, Note_on_c, 0, 69, 74
2, 150720, Note_off_c, 0, 69, 64
2, 150720, Note_on_c, 0, 74, 78
2, 150840, Note_off_c, 0, 74, 64
2, 150840, Note_on_c, 0, 77, 71
2, 150960, Note_off_c, 0, 77, 64
2, 150960, Note_on_c, 0, 81, 78
2, 151200, Note_off_c, 0, 81, 64
2, 151320, Note_on_c, 0, 67, 77
2, 151440, Note_off_c, 0, 67, 64
2, 151440, Note_on_c, 0, 72, 78
2, 151560, Note_off_c, 0, 72, 64
2, 151560, Note_on_c, 0, 76, 70
2, 151680, Note_off_c, 0, 76, 64
2, 151680, Note_on_c, 0, 79, 71
2, 151920, Note_off_c, 0, 79, 64
2, 152040, Note_on_c, 0, 65, 72
2, 152160, Note_off_c, 0, 65, 64
2, 152160, Note_on_c, 0, 71, 76
2, 152280, Note_off_c, 0, 71, 64
2, 152280, Note_on_c, 0, 74, 78
2, 152400, Note_off_c, 0, 74, 64
2, 152400, Note_on_c, 0, 77, 73
2, 152640, Note_off_c, 0, 77, 64
2, 152760, Note_on_c, 0, 64, 78
2, 152880, Note_off_c, 0, 64, 64
2, 152880, Note_on_c, 0, 67, 75
2, 153000, Note_off_c, 0, 67, 64
2, 153000, Note_on_c, 0, 72, 76
2, 153120, Note_off_c, 0, 72, 64
2, 153120, Note_on_c, 0, 76, 78
2, 153360, Note_off_c, 0, 76, 64
2, 153480, Note_on_c, 0, 74, 71
2, 153600, Note_off_c, 0, 74, 64
2, 153600, Note_on_c, 0, 79, 78
2, 153720, Note_off_c, 0, 79, 64
2, 153720, Note_on_c, 0, 82, 75
2, 153840, Note_off_c, 0, 82, 64
2, 153840, Note_on_c, 0, 86, 79
2, 154080, Note_off_c, 0, 86, 64
2, 154200, Note_on_c, 0, 72, 71
2, 154320, Note_off_c, 0, 72, 64
2, 154320, Note_on_c, 0, 77, 74
2, 154440, Note_off_c, 0, 77, 64
2, 154440, Note_on_c, 0, 81, 76
2, 154560, Note_off_c, 0, 81, 64
2, 154560, Note_on_c, 0, 84, 70
2, 154800, Note_off_c, 0, 84, 64
2, 154920, Note_on_c, 0, 71, 77
2, 155040, Note_off_c, 0, 71, 64
2, 155040, Note_on_c, 0, 76, 74
2, 155160, Note_off_c, 0, 76, 64
2, 155160, Note_on_c, 0, 79, 71
2, 155280, Note_off_c, 0, 79, 64
2, 155280, Note_on_c, 0, 83, 79
2, 155520, Note_off_c, 0, 83, 64
2, 155640, Note_on_c, 0, 69, 74
2, 155760, Note_off_c, 0, 69, 64
2, 155760, Note_on_c, 0, 72, 73
2, 155880, Note_off_c, 0, 72, 64
2, 155880, Note_on_c, 0, 77, 73
2, 156000, Note_off_c, 0, 77, 64
2, 156000, Note_on_c, 0, 81, 71
2, 156240, Note_off_c, 0, 81, 64
2, 156360, Note_on_c, 0, 74, 76
2, 156480, Note_off_c, 0, 74, 64
2, 156480, Note_on_c, 0, 79, 77
2, 156600, Note_off_c, 0, 79, 64
2, 156600, Note_on_c, 0, 78, 78
2, 156720, Note_off_c, 0, 78, 64
2, 156720, Note_on_c, 0, 81, 78
2, 156840, Note_off_c, 0, 81, 64
2, 156840, Note_on_c, 0, 79, 79
2, 156960, Note_off_c, 0, 79, 64
2, 156960, Note_on_c, 0, 82, 73
2, 157080, Note_off_c, 0, 82, 64
2, 157080, Note_on_c, 0, 81, 78
2, 157200, Note_off_c, 0, 81, 64
2, 157200, Note_on_c, 0, 84, 73
2, 157320, Note_off_c, 0, 84, 64
2, 157320, Note_on_c, 0, 82, 75
2, 157440, Note_off_c, 0, 82, 64
2, 157440, Note_on_c, 0, 86, 75
2, 157560, Note_off_c, 0, 86, 64
2, 157560, Note_on_c, 0, 85, 70
2, 157680, Note_off_c, 0, 85, 64
2, 157680, Note_on_c, 0, 86, 75
2, 157920, Note_off_c, 0, 86, 64
2, 158160, Note_on_c, 0, 77, 53
2, 158160, Note_on_c, 0, 69, 52
2, 158400, Note_off_c, 0, 77, 64
2, 158400, Note_off_c, 0, 69, 64
2, 158400, Note_on_c, 0, 76, 52
2, 158400, Note_on_c, 0, 67, 48
2, 158640, Note_off_c, 0, 76, 64
2, 158640, Note_off_c, 0, 67, 64
2, 159600, Note_on_c, 0, 89, 49
2, 159600, Note_on_c, 0, 81, 47
2, 159840, Note_off_c, 0, 89, 64
2, 159840, Note_off_c, 0, 81, 64
2, 159840, Note_on_c, 0, 88, 50
2, 159840, Note_on_c, 0, 79, 53
2, 160080, Note_off_c, 0, 88, 64
2, 160080, Note_off_c, 0, 79, 64
2, 161040, Note_on_c, 0, 77, 47
2, 161040, Note_on_c, 0, 69, 52
2, 161280, Note_off_c, 0, 77, 64
2, 161280, Note_off_c, 0, 69, 64
2, 161280, Note_on_c, 0, 76, 45
2, 161280, Note_on_c, 0, 67, 46
2, 161520, Note_off_c, 0, 76, 64
2, 161520, Note_off_c, 0, 67, 64
2, 162720, Note_on_c, 0, 82, 52
2, 163080, Note_off_c, 0, 82, 64
2, 163080, Note_on_c, 0, 82, 54
2, 163200, Note_off_c, 0, 82, 64
2, 163200, Note_on_c, 0, 82, 49
2, 163320, Note_off_c, 0, 82, 64
2, 163320, Note_on_c, 0, 82, 46
2, 163380, Note_off_c, 0, 82, 64
2, 163380, Note_on_c, 0, 84, 48
2, 163440, Note_off_c, 0, 84, 64
2, 163440, Note_on_c, 0, 86, 49
2, 163800, Note_off_c, 0, 86, 64
2, 163800, Note_on_c, 0, 84, 48
2, 163920, Note_off_c, 0, 84, 64
2, 163920, Note_on_c, 0, 82, 52
2, 164160, Note_off_c, 0, 82, 64
2, 164160, Note_on_c, 0, 82, 45
2, 164520, Note_off_c, 0, 82, 64
2, 164520, Note_on_c, 0, 82, 50
2, 164640, Note_off_c, 0, 82, 64
2, 164640, Note_on_c, 0, 82, 47
2, 164760, Note_off_c, 0, 82, 64
2, 164760, Note_on_c, 0, 82, 50
2, 164820, Note_off_c, 0, 82, 64
2, 164820, Note_on_c, 0, 84, 48
2, 164880, Note_off_c, 0, 84, 64
2, 164880, Note_on_c, 0, 86, 52
2, 165240, Note_off_c, 0, 86, 64
2, 165240, Note_on_c, 0, 84, 47
2, 165360, Note_off_c, 0, 84, 64
2, 165360, Note_on_c, 0, 82, 48
2, 165600, Note_off_c, 0, 82, 64
2, 165600, Note_on_c, 0, 81, 51
2, 165840, Note_off_c, 0, 81, 64
2, 166080, Note_on_c, 0, 81, 48
2, 166320, Note_off_c, 0, 81, 64
2, 166320, Note_on_c, 0, 84, 86
2, 166800, Note_off_c, 0, 84, 64
2, 166800, Note_on_c, 0, 82, 47
2, 167040, Note_off_c, 0, 82, 64
2, 167040, Note_on_c, 0, 81, 53
2, 167280, Note_off_c, 0, 81, 64
2, 167520, Note_on_c, 0, 81, 53
2, 167760, Note_off_c, 0, 81, 64
2, 167760, Note_on_c, 0, 84, 83
2, 168240, Note_off_c, 0, 84, 64
2, 168240, Note_on_c, 0, 82, 45
2, 168480, Note_off_c, 0, 82, 64
2, 168480, Note_on_c, 0, 81, 49
2, 168720, Note_off_c, 0, 81, 64
2, 168960, Note_on_c, 0, 81, 46
2, 169200, Note_off_c, 0, 81, 64
2, 169200, Note_on_c, 0, 84, 76
2, 169440, Note_off_c, 0, 84, 64
2, 169440, Note_on_c, 0, 82, 78
2, 169680, Note_off_c, 0, 82, 64
2, 169680, Note_on_c, 0, 81, 45
2, 169920, Note_off_c, 0, 81, 64
2, 169920, Note_on_c, 0, 81, 79
2, 170160, Note_off_c, 0, 81, 64
2, 170160, Note_on_c, 0, 79, 74
2, 170400, Note_off_c, 0, 79, 64
2, 170400, Note_on_c, 0, 77, 46
2, 170640, Note_off_c, 0, 77, 64
2, 170640, Note_on_c, 0, 79, 47
2, 170700, Note_off_c, 0, 79, 64
2, 170700, Note_on_c, 0, 77, 50
2, 170760, Note_off_c, 0, 77, 64
2, 170760, Note_on_c, 0, 79, 53
2, 170820, Note_off_c, 0, 79, 64
2, 170820, Note_on_c, 0, 77, 48
2, 170880, Note_off_c, 0, 77, 64
2, 170880, Note_on_c, 0, 79, 45
2, 170940, Note_off_c, 0, 79, 64
2, 170940, Note_on_c, 0, 77, 49
2, 171000, Note_off_c, 0, 77, 64
2, 171000, Note_on_c, 0, 79, 46
2, 171120, Note_off_c, 0, 79, 64
2, 171120, Note_on_c, 0, 76, 52
2, 171360, Note_off_c, 0, 76, 64
2, 171360, Note_on_c, 0, 70, 49
2, 171720, Note_off_c, 0, 70, 64
2, 171720, Note_on_c, 0, 70, 50
2, 171840, Note_off_c, 0, 70, 64
2, 171840, Note_on_c, 0, 70, 50
2, 171960, Note_off_c, 0, 70, 64
2, 171960, Note_on_c, 0, 70, 50
2, 172020, Note_off_c, 0, 70, 64
2, 172020, Note_on_c, 0, 72, 49
2, 172080, Note_off_c, 0, 72, 64
2, 172080, Note_on_c, 0, 74, 49
2, 172440, Note_off_c, 0, 74, 64
2, 172440, Note_on_c, 0, 72, 46
2, 172560, Note_off_c, 0, 72, 64
2, 172560, Note_on_c, 0, 70, 52
2, 172800, Note_off_c, 0, 70, 64
2, 172800, Note_on_c, 0, 70, 52
2, 173160, Note_off_c, 0, 70, 64
2, 173160, Note_on_c, 0, 70, 54
2, 173280, Note_off_c, 0, 70, 64
2, 173280, Note_on_c, 0, 70, 48
2, 173400, Note_off_c, 0, 70, 64
2, 173400, Note_on_c, 0, 70, 53
2, 173460, Note_off_c, 0, 70, 64
2, 173460, Note_on_c, 0, 72, 54
2, 173520, Note_off_c, 0, 72, 64
2, 173520, Note_on_c, 0, 74, 50
2, 173880, Note_off_c, 0, 74, 64
2, 173880, Note_on_c, 0, 72, 45
2, 174000, Note_off_c, 0, 72, 64
2, 174000, Note_on_c, 0, 70, 49
2, 174240, Note_off_c, 0, 70, 64
2, 174240, Note_on_c, 0, 69, 51
2, 174360, Note_off_c, 0, 69, 64
2, 174360, Note_on_c, 0, 65, 46
2, 174480, Note_off_c, 0, 65, 64
2, 174480, Note_on_c, 0, 60, 46
2, 174600, Note_off_c, 0, 60, 64
2, 174600, Note_on_c, 0, 65, 54
2, 174720, Note_off_c, 0, 65, 64
2, 174720, Note_on_c, 0, 69, 54
2, 174840, Note_off_c, 0, 69, 64
2, 174840, Note_on_c, 0, 65, 47
2, 174960, Note_off_c, 0, 65, 64
2, 174960, Note_on_c, 0, 72, 80
2, 175080, Note_off_c, 0, 72, 64
2, 175080, Note_on_c, 0, 60, 49
2, 175200, Note_off_c, 0, 60, 64
2, 175200, Note_on_c, 0, 71, 52
2, 175320, Note_off_c, 0, 71, 64
2, 175320, Note_on_c, 0, 60, 49
2, 175440, Note_off_c, 0, 60, 64
2, 175440, Note_on_c, 0, 70, 47
2, 175560, Note_off_c, 0, 70, 64
2, 175560, Note_on_c, 0, 60, 52
2, 175680, Note_off_c, 0, 60, 64
2, 175680, Note_on_c, 0, 69, 46
2, 175800, Note_off_c, 0, 69, 64
2, 175800, Note_on_c, 0, 65, 50
2, 175920, Note_off_c, 0, 65, 64
2, 175920, Note_on_c, 0, 60, 52
2, 176040, Note_off_c, 0, 60, 64
2, 176040, Note_on_c, 0, 65, 47
2, 176160, Note_off_c, 0, 65, 64
2, 176160, Note_on_c, 0, 69, 49
2, 176280, Note_off_c, 0, 69, 64
2, 176280, Note_on_c, 0, 60, 53
2, 176400, Note_off_c, 0, 60, 64
2, 176400, Note_on_c, 0, 72, 82
2, 176520, Note_off_c, 0, 72, 64
2, 176520, Note_on_c, 0, 60, 45
2, 176640, Note_off_c, 0, 60, 64
2, 176640, Note_on_c, 0, 71, 45
2, 176760, Note_off_c, 0, 71, 64
2, 176760, Note_on_c, 0, 60, 48
2, 176880, Note_off_c, 0, 60, 64
2, 176880, Note_on_c, 0, 70, 52
2, 177000, Note_off_c, 0, 70, 64
2, 177000, Note_on_c, 0, 60, 52
2, 177120, Note_off_c, 0, 60, 64
2, 177120, Note_on_c, 0, 69, 49
2, 177240, Note_off_c, 0, 69, 64
2, 177240, Note_on_c, 0, 72, 48
2, 177360, Note_off_c, 0, 72, 64
2, 177360, Note_on_c, 0, 77, 45
2, 177480, Note_off_c, 0, 77, 64
2, 177480, Note_on_c, 0, 76, 51
2, 177600, Note_off_c, 0, 76, 64
2, 177600, Note_on_c, 0, 74, 53
2, 177720, Note_off_c, 0, 74, 64
2, 177720, Note_on_c, 0, 72, 52
2, 177840, Note_off_c, 0, 72, 64
2, 177840, Note_on_c, 0, 70, 71
2, 177960, Note_off_c, 0, 70, 64
2, 177960, Note_on_c, 0, 72, 77
2, 178080, Note_off_c, 0, 72, 64
2, 178080, Note_on_c, 0, 74, 74
2, 178200, Note_off_c, 0, 74, 64
2, 178200, Note_on_c, 0, 70, 75
2, 178320, Note_off_c, 0, 70, 64
2, 178320, Note_on_c, 0, 68, 54
2, 178440, Note_off_c, 0, 68, 64
2, 178440, Note_on_c, 0, 69, 52
2, 178560, Note_off_c, 0, 69, 64
2, 178560, Note_on_c, 0, 67, 71
2, 178680, Note_off_c, 0, 67, 64
2, 178680, Note_on_c, 0, 69, 75
2, 178800, Note_off_c, 0, 69, 64
2, 178800, Note_on_c, 0, 70, 78
2, 178920, Note_off_c, 0, 70, 64
2, 178920, Note_on_c, 0, 67, 77
2, 179040, Note_off_c, 0, 67, 64
2, 179040, Note_on_c, 0, 64, 47
2, 179160, Note_off_c, 0, 64, 64
2, 179160, Note_on_c, 0, 65, 49
2, 179280, Note_off_c, 0, 65, 64
2, 179280, Note_on_c, 0, 67, 77
2, 179400, Note_off_c, 0, 67, 64
2, 179400, Note_on_c, 0, 70, 72
2, 179520, Note_off_c, 0, 70, 64
2, 179520, Note_on_c, 0, 69, 71
2, 179640, Note_off_c, 0, 69, 64
2, 179640, Note_on_c, 0, 65, 78
2, 179760, Note_off_c, 0, 65, 64
2, 179760, Note_on_c, 0, 64, 78
2, 179880, Note_off_c, 0, 64, 64
2, 179880, Note_on_c, 0, 67, 75
2, 180000, Note_off_c, 0, 67, 64
2, 180000, Note_on_c, 0, 65, 73
2, 180120, Note_off_c, 0, 65, 64
2, 180120, Note_on_c, 0, 67, 71
2, 180240, Note_off_c, 0, 67, 64
2, 180240, Note_on_c, 0, 69, 72
2, 180360, Note_off_c, 0, 69, 64
2, 180360, Note_on_c, 0, 65, 74
2, 180480, Note_off_c, 0, 65, 64
2, 180480, Note_on_c, 0, 62, 71
2, 180600, Note_off_c, 0, 62, 64
2, 180600, Note_on_c, 0, 60, 71
2, 180720, Note_off_c, 0, 60, 64
2, 180720, Note_on_c, 0, 58, 75
2, 180840, Note_off_c, 0, 58, 64
2, 180840, Note_on_c, 0, 60, 72
2, 180960, Note_off_c, 0, 60, 64
2, 180960, Note_on_c, 0, 62, 77
2, 181080, Note_off_c, 0, 62, 64
2, 181080, Note_on_c, 0, 58, 78
2, 181200, Note_off_c, 0, 58, 64
2, 181200, Note_on_c, 0, 56, 53
2, 181320, Note_off_c, 0, 56, 64
2, 181320, Note_on_c, 0, 57, 53
2, 181440, Note_off_c, 0, 57, 64
2, 181440, Note_on_c, 0, 55, 74
2, 181560, Note_off_c, 0, 55, 64
2, 181560, Note_on_c, 0, 57, 74
2, 181680, Note_off_c, 0, 57, 64
2, 181680, Note_on_c, 0, 58, 78
2, 181800, Note_off_c, 0, 58, 64
2, 181800, Note_on_c, 0, 55, 73
2, 181920, Note_off_c, 0, 55, 64
2, 181920, Note_on_c, 0, 52, 45
2, 182040, Note_off_c, 0, 52, 64
2, 182040, Note_on_c, 0, 53, 52
2, 182160, Note_off_c, 0, 53, 64
2, 182160, Note_on_c, 0, 55, 75
2, 182280, Note_off_c, 0, 55, 64
2, 182280, Note_on_c, 0, 58, 70
2, 182400, Note_off_c, 0, 58, 64
2, 182400, Note_on_c, 0, 57, 75
2, 182520, Note_off_c, 0, 57, 64
2, 182520, Note_on_c, 0, 53, 75
2, 182640, Note_off_c, 0, 53, 64
2, 182640, Note_on_c, 0, 52, 79
2, 182760, Note_off_c, 0, 52, 64
2, 182760, Note_on_c, 0, 55, 74
2, 182880, Note_off_c, 0, 55, 64
2, 182880, Note_on_c, 0, 53, 75
2, 183120, Note_off_c, 0, 53, 64
2, 183120, Note_on_c, 0, 72, 49
2, 183360, Note_off_c, 0, 72, 64
2, 183360, Note_on_c, 0, 69, 45
2, 183600, Note_off_c, 0, 69, 64
2, 183600, Note_on_c, 0, 65, 50
2, 183840, Note_off_c, 0, 65, 64
2, 184560, Note_on_c, 0, 77, 50
2, 184800, Note_off_c, 0, 77, 64
2, 184800, Note_on_c, 0, 74, 53
2, 185040, Note_off_c, 0, 74, 64
2, 185040, Note_on_c, 0, 70, 51
2, 185280, Note_off_c, 0, 70, 64
2, 186000, Note_on_c, 0, 82, 50
2, 186240, Note_off_c, 0, 82, 64
2, 186240, Note_on_c, 0, 79, 54
2, 186480, Note_off_c, 0, 79, 64
2, 186480, Note_on_c, 0, 76, 51
2, 186720, Note_off_c, 0, 76, 64
2, 187320, Note_on_c, 0, 77, 79
2, 187440, Note_off_c, 0, 77, 64
2, 187440, Note_on_c, 0, 76, 72
2, 187560, Note_off_c, 0, 76, 64
2, 187560, Note_on_c, 0, 77, 78
2, 187680, Note_off_c, 0, 77, 64
2, 187680, Note_on_c, 0, 81, 75
2, 187800, Note_off_c, 0, 81, 64
2, 187800, Note_on_c, 0, 84, 78
2, 187920, Note_off_c, 0, 84, 64
2, 188040, Note_on_c, 0, 82, 75
2, 188160, Note_off_c, 0, 82, 64
2, 188160, Note_on_c, 0, 81, 70
2, 188280, Note_off_c, 0, 81, 64
2, 188280, Note_on_c, 0, 82, 72
2, 188400, Note_off_c, 0, 82, 64
2, 188400, Note_on_c, 0, 79, 73
2, 188520, Note_off_c, 0, 79, 64
2, 188520, Note_on_c, 0, 76, 70
2, 188640, Note_off_c, 0, 76, 64
2, 188760, Note_on_c, 0, 77, 76
2, 188880, Note_off_c, 0, 77, 64
2, 188880, Note_on_c, 0, 76, 77
2, 189000, Note_off_c, 0, 76, 64
2, 189000, Note_on_c, 0, 77, 73
2, 189120, Note_off_c, 0, 77, 64
2, 189120, Note_on_c, 0, 72, 74
2, 189240, Note_off_c, 0, 72, 64
2, 189240, Note_on_c, 0, 69, 79
2, 189360, Note_off_c, 0, 69, 64
2, 189480, Note_on_c, 0, 70, 76
2, 189600, Note_off_c, 0, 70, 64
2, 189600, Note_on_c, 0, 69, 72
2, 189720, Note_off_c, 0, 69, 64
2, 189720, Note_on_c, 0, 70, 71
2, 189840, Note_off_c, 0, 70, 64
2, 189840, Note_on_c, 0, 67, 77
2, 189960, Note_off_c, 0, 67, 64
2, 189960, Note_on_c, 0, 64, 76
2, 190080, Note_off_c, 0, 64, 64
2, 190080, Note_on_c, 0, 65, 70
2, 190560, Note_off_c, 0, 65, 64
2, 190800, Note_on_c, 0, 72, 78
2, 190800, Note_on_c, 0, 69, 70
2, 190800, Note_on_c, 0, 65, 72
2, 191280, Note_off_c, 0, 72, 64
2, 191280, Note_off_c, 0, 65, 64
2, 191280, Note_off_c, 0, 69, 64
2, 191520, Note_on_c, 0, 72, 71
2, 191520, Note_on_c, 0, 69, 78
2, 191520, Note_on_c, 0, 77, 71
2, 191760, Note_off_c, 0, 72, 64
2, 191760, Note_off_c, 0, 77, 64
2, 191760, Note_off_c, 0, 69, 64
2, 191760, Note_on_c, 0, 72, 77
2, 191760, Note_on_c, 0, 69, 77
2, 191760, Note_on_c, 0, 77, 75
2, 192000, Note_off_c, 0, 72, 64
2, 192000, Note_off_c, 0, 77, 64
2, 192000, Note_off_c, 0, 69, 64
2, 192000, Note_on_c, 0, 72, 75
2, 192000, Note_on_c, 0, 77, 70
2, 192000, Note_on_c, 0, 69, 74
2, 192240, Note_off_c, 0, 72, 64
2, 192240, Note_off_c, 0, 69, 64
2, 192240, Note_off_c, 0, 77, 64
2, 192240, Note_on_c, 0, 72, 76
2, 192240, Note_on_c, 0, 77, 79
2, 192240, Note_on_c, 0, 69, 79
2, 192480, Note_off_c, 0, 72, 64
2, 192480, Note_off_c, 0, 69, 64
2, 192480, Note_off_c, 0, 77, 64
2, 192960, Note_on_c, 0, 72, 51
2, 193320, Note_off_c, 0, 72, 64
2, 193320, Note_on_c, 0, 72, 54
2, 193440, Note_off_c, 0, 72, 64
2, 193440, Note_on_c, 0, 72, 49
2, 193560, Note_off_c, 0, 72, 64
2, 193560, Note_on_c, 0, 72, 51
2, 193620, Note_off_c, 0, 72, 64
2, 193620, Note_on_c, 0, 74, 46
2, 193680, Note_off_c, 0, 74, 64
2, 193680, Note_on_c, 0, 75, 49
2, 194040, Note_off_c, 0, 75, 64
2, 194040, Note_on_c, 0, 74, 49
2, 194160, Note_off_c, 0, 74, 64
2, 194160, Note_on_c, 0, 72, 48
2, 194400, Note_off_c, 0, 72, 64
2, 194400, Note_on_c, 0, 72, 48
2, 194760, Note_off_c, 0, 72, 64
2, 194760, Note_on_c, 0, 72, 50
2, 194880, Note_off_c, 0, 72, 64
2, 194880, Note_on_c, 0, 72, 53
2, 195000, Note_off_c, 0, 72, 64
2, 195000, Note_on_c, 0, 72, 46
2, 195060, Note_off_c, 0, 72, 64
2, 195060, Note_on_c, 0, 74, 52
2, 195120, Note_off_c, 0, 74, 64
2, 195120, Note_on_c, 0, 75, 51
2, 195480, Note_off_c, 0, 75, 64
2, 195480, Note_on_c, 0, 74, 53
2, 195600, Note_off_c, 0, 74, 64
2, 195600, Note_on_c, 0, 72, 52
2, 195840, Note_off_c, 0, 72, 64
2, 195840, Note_on_c, 0, 84, 79
2, 195840, Note_on_c, 0, 81, 74
2, 196560, Note_off_c, 0, 84, 64
2, 196560, Note_off_c, 0, 81, 64
2, 196560, Note_on_c, 0, 79, 70
2, 196560, Note_on_c, 0, 82, 76
2, 197280, Note_off_c, 0, 82, 64
2, 197280, Note_on_c, 0, 81, 75
2, 197760, Note_off_c, 0, 79, 64
2, 197760, Note_on_c, 0, 78, 77
2, 198000, Note_off_c, 0, 81, 64
2, 198000, Note_off_c, 0, 78, 64
2, 198000, Note_on_c, 0, 79, 78
2, 198480, Note_off_c, 0, 79, 64
2, 198720, Note_on_c, 0, 70, 53
2, 199080, Note_off_c, 0, 70, 64
2, 199080, Note_on_c, 0, 70, 52
2, 199200, Note_off_c, 0, 70, 64
2, 199200, Note_on_c, 0, 70, 49
2, 199320, Note_off_c, 0, 70, 64
2, 199320, Note_on_c, 0, 70, 47
2, 199380, Note_off_c, 0, 70, 64
2, 199380, Note_on_c, 0, 72, 50
2, 199440, Note_off_c, 0, 72, 64
2, 199440, Note_on_c, 0, 73, 49
2, 199800, Note_off_c, 0, 73, 64
2, 199800, Note_on_c, 0, 72, 52
2, 199920, Note_off_c, 0, 72, 64
2, 199920, Note_on_c, 0, 70, 50
2, 200160, Note_off_c, 0, 70, 64
2, 200160, Note_on_c, 0, 70, 47
2, 200520, Note_off_c, 0, 70, 64
2, 200520, Note_on_c, 0, 70, 47
2, 200640, Note_off_c, 0, 70, 64
2, 200640, Note_on_c, 0, 70, 45
2, 200760, Note_off_c, 0, 70, 64
2, 200760, Note_on_c, 0, 70, 49
2, 200820, Note_off_c, 0, 70, 64
2, 200820, Note_on_c, 0, 72, 48
2, 200880, Note_off_c, 0, 72, 64
2, 200880, Note_on_c, 0, 73, 53
2, 201240, Note_off_c, 0, 73, 64
2, 201240, Note_on_c, 0, 72, 46
2, 201360, Note_off_c, 0, 72, 64
2, 201360, Note_on_c, 0, 70, 49
2, 201600, Note_off_c, 0, 70, 64
2, 201600, Note_on_c, 0, 60, 70
2, 201720, Note_off_c, 0, 60, 64
2, 201720, Note_on_c, 0, 72, 78
2, 201840, Note_off_c, 0, 72, 64
2, 201840, Note_on_c, 0, 62, 72
2, 201960, Note_off_c, 0, 62, 64
2, 201960, Note_on_c, 0, 74, 75
2, 202080, Note_off_c, 0, 74, 64
2, 202080, Note_on_c, 0, 64, 78
2, 202200, Note_off_c, 0, 64, 64
2, 202200, Note_on_c, 0, 76, 75
2, 202320, Note_off_c, 0, 76, 64
2, 202320, Note_on_c, 0, 65, 79
2, 202440, Note_off_c, 0, 65, 64
2, 202440, Note_on_c, 0, 77, 71
2, 202560, Note_off_c, 0, 77, 64
2, 202560, Note_on_c, 0, 67, 76
2, 202680, Note_off_c, 0, 67, 64
2, 202680, Note_on_c, 0, 79, 70
2, 202800, Note_off_c, 0, 79, 64
2, 202800, Note_on_c, 0, 69, 77
2, 202920, Note_off_c, 0, 69, 64
2, 202920, Note_on_c, 0, 81, 78
2, 203040, Note_off_c, 0, 81, 64
2, 203040, Note_on_c, 0, 79, 71
2, 203040, Note_on_c, 0, 82, 74
2, 203760, Note_off_c, 0, 79, 64
2, 203760, Note_off_c, 0, 82, 64
2, 203760, Note_on_c, 0, 77, 78
2, 203760, Note_on_c, 0, 81, 70
2, 204480, Note_off_c, 0, 77, 64
2, 204480, Note_off_c, 0, 81, 64
2, 204480, Note_on_c, 0, 57, 78
2, 204600, Note_off_c, 0, 57, 64
2, 204600, Note_on_c, 0, 69, 75
2, 204720, Note_off_c, 0, 69, 64
2, 204720, Note_on_c, 0, 59, 74
2, 204840, Note_off_c, 0, 59, 64
2, 204840, Note_on_c, 0, 71, 79
2, 204960, Note_off_c, 0, 71, 64
2, 204960, Note_on_c, 0, 61, 78
2, 205080, Note_off_c, 0, 61, 64
2, 205080, Note_on_c, 0, 73, 75
2, 205200, Note_off_c, 0, 73, 64
2, 205200, Note_on_c, 0, 62, 78
2, 205320, Note_off_c, 0, 62, 64
2, 205320, Note_on_c, 0, 74, 71
2, 205440, Note_off_c, 0, 74, 64
2, 205440, Note_on_c, 0, 64, 71
2, 205560, Note_off_c, 0, 64, 64
2, 205560, Note_on_c, 0, 76, 78
2, 205680, Note_off_c, 0, 76, 64
2, 205680, Note_on_c, 0, 65, 74
2, 205800, Note_off_c, 0, 65, 64
2, 205800, Note_on_c, 0, 77, 75
2, 205920, Note_off_c, 0, 77, 64
2, 205920, Note_on_c, 0, 76, 76
2, 205920, Note_on_c, 0, 79, 76
2, 206640, Note_off_c, 0, 76, 64
2, 206640, Note_off_c, 0, 79, 64
2, 206640, Note_on_c, 0, 77, 76
2, 206640, Note_on_c, 0, 74, 77
2, 207360, Note_off_c, 0, 77, 64
2, 207360, Note_off_c, 0, 74, 64
2, 207480, Note_on_c, 0, 75, 46
2, 207600, Note_off_c, 0, 75, 64
2, 207600, Note_on_c, 0, 74, 49
2, 207720, Note_off_c, 0, 74, 64
2, 207720, Note_on_c, 0, 75, 51
2, 207840, Note_off_c, 0, 75, 64
2, 207840, Note_on_c, 0, 79, 49
2, 207960, Note_off_c, 0, 79, 64
2, 207960, Note_on_c, 0, 75, 53
2, 208080, Note_off_c, 0, 75, 64
2, 208200, Note_on_c, 0, 74, 51
2, 208320, Note_off_c, 0, 74, 64
2, 208320, Note_on_c, 0, 73, 52
2, 208440, Note_off_c, 0, 73, 64
2, 208440, Note_on_c, 0, 74, 48
2, 208560, Note_off_c, 0, 74, 64
2, 208560, Note_on_c, 0, 77, 47
2, 208680, Note_off_c, 0, 77, 64
2, 208680, Note_on_c, 0, 74, 46
2, 208800, Note_off_c, 0, 74, 64
2, 208920, Note_on_c, 0, 73, 47
2, 209040, Note_off_c, 0, 73, 64
2, 209040, Note_on_c, 0, 71, 50
2, 209160, Note_off_c, 0, 71, 64
2, 209160, Note_on_c, 0, 73, 50
2, 209280, Note_off_c, 0, 73, 64
2, 209280, Note_on_c, 0, 76, 48
2, 209400, Note_off_c, 0, 76, 64
2, 209400, Note_on_c, 0, 73, 53
2, 209520, Note_off_c, 0, 73, 64
2, 209640, Note_on_c, 0, 74, 47
2, 209760, Note_off_c, 0, 74, 64
2, 209760, Note_on_c, 0, 73, 47
2, 209880, Note_off_c, 0, 73, 64
2, 209880, Note_on_c, 0, 74, 52
2, 210000, Note_off_c, 0, 74, 64
2, 210000, Note_on_c, 0, 77, 48
2, 210120, Note_off_c, 0, 77, 64
2, 210120, Note_on_c, 0, 74, 47
2, 210240, Note_off_c, 0, 74, 64
2, 210240, Note_on_c, 0, 80, 78
2, 210240, Note_on_c, 0, 74, 77
2, 210240, Note_on_c, 0, 86, 77
2, 210480, Note_off_c, 0, 80, 64
2, 210480, Note_off_c, 0, 86, 64
2, 210480, Note_off_c, 0, 74, 64
2, 210960, Note_on_c, 0, 76, 76
2, 210960, Note_on_c, 0, 85, 71
2, 210960, Note_on_c, 0, 81, 78
2, 211200, Note_off_c, 0, 76, 64
2, 211200, Note_off_c, 0, 81, 64
2, 211200, Note_off_c, 0, 85, 64
2, 211680, Note_on_c, 0, 80, 70
2, 211680, Note_on_c, 0, 74, 73
2, 211680, Note_on_c, 0, 86, 74
2, 211920, Note_off_c, 0, 80, 64
2, 211920, Note_off_c, 0, 86, 64
2, 211920, Note_off_c, 0, 74, 64
2, 212400, Note_on_c, 0, 85, 77
2, 212400, Note_on_c, 0, 81, 75
2, 212400, Note_on_c, 0, 76, 73
2, 212640, Note_off_c, 0, 85, 64
2, 212640, Note_off_c, 0, 76, 64
2, 212640, Note_off_c, 0, 81, 64
2, 214320, Note_on_c, 0, 84, 72
2, 214440, Note_off_c, 0, 84, 64
2, 214440, Note_on_c, 0, 81, 71
2, 214560, Note_off_c, 0, 81, 64
2, 214560, Note_on_c, 0, 77, 78
2, 214800, Note_off_c, 0, 77, 64
2, 214800, Note_on_c, 0, 77, 74
2, 215040, Note_off_c, 0, 77, 64
2, 215040, Note_on_c, 0, 77, 70
2, 215220, Note_off_c, 0, 77, 64
2, 215220, Note_on_c, 0, 76, 73
2, 215280, Note_off_c, 0, 76, 64
2, 215280, Note_on_c, 0, 82, 47
2, 215520, Note_off_c, 0, 82, 64
2, 215940, Note_on_c, 0, 77, 53
2, 216000, Note_off_c, 0, 77, 64
2, 216000, Note_on_c, 0, 81, 54
2, 216240, Note_off_c, 0, 81, 64
2, 216660, Note_on_c, 0, 76, 47
2, 216720, Note_off_c, 0, 76, 64
2, 216720, Note_on_c, 0, 79, 47
2, 216960, Note_off_c, 0, 79, 64
2, 217440, Note_on_c, 0, 77, 70
2, 217560, Note_off_c, 0, 77, 64
2, 217560, Note_on_c, 0, 79, 78
2, 217680, Note_off_c, 0, 79, 64
2, 217680, Note_on_c, 0, 81, 79
2, 217800, Note_off_c, 0, 81, 64
2, 217800, Note_on_c, 0, 77, 72
2, 217920, Note_off_c, 0, 77, 64
2, 217920, Note_on_c, 0, 72, 78
2, 218040, Note_off_c, 0, 72, 64
2, 218040, Note_on_c, 0, 73, 79
2, 218160, Note_off_c, 0, 73, 64
2, 218160, Note_on_c, 0, 74, 78
2, 218280, Note_off_c, 0, 74, 64
2, 218280, Note_on_c, 0, 76, 76
2, 218400, Note_off_c, 0, 76, 64
2, 218400, Note_on_c, 0, 77, 73
2, 218520, Note_off_c, 0, 77, 64
2, 218520, Note_on_c, 0, 74, 77
2, 218640, Note_off_c, 0, 74, 64
2, 218640, Note_on_c, 0, 67, 72
2, 218760, Note_off_c, 0, 67, 64
2, 218760, Note_on_c, 0, 69, 70
2, 218880, Note_off_c, 0, 69, 64
2, 218880, Note_on_c, 0, 70, 70
2, 219000, Note_off_c, 0, 70, 64
2, 219000, Note_on_c, 0, 72, 75
2, 219120, Note_off_c, 0, 72, 64
2, 219120, Note_on_c, 0, 74, 73
2, 219240, Note_off_c, 0, 74, 64
2, 219240, Note_on_c, 0, 70, 73
2, 219360, Note_off_c, 0, 70, 64
2, 219360, Note_on_c, 0, 62, 74
2, 219480, Note_off_c, 0, 62, 64
2, 219480, Note_on_c, 0, 65, 73
2, 219600, Note_off_c, 0, 65, 64
2, 219600, Note_on_c, 0, 64, 72
2, 219720, Note_off_c, 0, 64, 64
2, 219720, Note_on_c, 0, 65, 70
2, 219840, Note_off_c, 0, 65, 64
2, 219840, Note_on_c, 0, 67, 78
2, 219960, Note_off_c, 0, 67, 64
2, 219960, Note_on_c, 0, 64, 77
2, 220080, Note_off_c, 0, 64, 64
2, 220080, Note_on_c, 0, 72, 74
2, 220200, Note_off_c, 0, 72, 64
2, 220200, Note_on_c, 0, 69, 77
2, 220320, Note_off_c, 0, 69, 64
2, 220320, Note_on_c, 0, 65, 75
2, 220560, Note_off_c, 0, 65, 64
2, 220560, Note_on_c, 0, 65, 76
2, 220800, Note_off_c, 0, 65, 64
2, 220800, Note_on_c, 0, 65, 72
2, 220980, Note_off_c, 0, 65, 64
2, 220980, Note_on_c, 0, 64, 71
2, 221040, Note_off_c, 0, 64, 64
2, 221040, Note_on_c, 0, 70, 52
2, 221280, Note_off_c, 0, 70, 64
2, 221700, Note_on_c, 0, 65, 45
2, 221760, Note_off_c, 0, 65, 64
2, 221760, Note_on_c, 0, 69, 48
2, 222000, Note_off_c, 0, 69, 64
2, 222420, Note_on_c, 0, 64, 46
2, 222480, Note_off_c, 0, 64, 64
2, 222480, Note_on_c, 0, 67, 52
2, 222720, Note_off_c, 0, 67, 64
2, 223200, Note_on_c, 0, 65, 70
2, 223320, Note_off_c, 0, 65, 64
2, 223320, Note_on_c, 0, 67, 70
2, 223440, Note_off_c, 0, 67, 64
2, 223440, Note_on_c, 0, 69, 70
2, 223560, Note_off_c, 0, 69, 64
2, 223560, Note_on_c, 0, 70, 77
2, 223680, Note_off_c, 0, 70, 64
2, 223680, Note_on_c, 0, 72, 71
2, 223800, Note_off_c, 0, 72, 64
2, 223800, Note_on_c, 0, 73, 71
2, 223920, Note_off_c, 0, 73, 64
2, 223920, Note_on_c, 0, 74, 77
2, 224040, Note_off_c, 0, 74, 64
2, 224040, Note_on_c, 0, 76, 79
2, 224160, Note_off_c, 0, 76, 64
2, 224160, Note_on_c, 0, 77, 73
2, 224280, Note_off_c, 0, 77, 64
2, 224280, Note_on_c, 0, 79, 76
2, 224400, Note_off_c, 0, 79, 64
2, 224400, Note_on_c, 0, 81, 75
2, 224520, Note_off_c, 0, 81, 64
2, 224520, Note_on_c, 0, 82, 71
2, 224640, Note_off_c, 0, 82, 64
2, 224640, Note_on_c, 0, 84, 77
2, 224880, Note_off_c, 0, 84, 64
2, 224880, Note_on_c, 0, 77, 76
2, 224880, Note_on_c, 0, 69, 75
2, 225120, Note_off_c, 0, 77, 64
2, 225120, Note_off_c, 0, 69, 64
2, 225120, Note_on_c, 0, 76, 73
2, 225120, Note_on_c, 0, 67, 74
2, 225360, Note_off_c, 0, 76, 64
2, 225360, Note_off_c, 0, 67, 64
2, 225360, Note_on_c, 0, 69, 70
2, 225360, Note_on_c, 0, 77, 73
2, 225840, Note_off_c, 0, 69, 64
2, 225840, Note_off_c, 0, 77, 64
2, 226080, Note_on_c, 0, 70, 49
2, 226080, Note_on_c, 0, 62, 50
2, 226320, Note_off_c, 0, 70, 64
2, 226320, Note_off_c, 0, 62, 64
2, 226320, Note_on_c, 0, 69, 50
2, 226320, Note_on_c, 0, 60, 49
2, 226560, Note_off_c, 0, 69, 64
2, 226560, Note_off_c, 0, 60, 64
2, 226560, Note_on_c, 0, 58, 46
2, 226560, Note_on_c, 0, 67, 46
2, 226800, Note_off_c, 0, 58, 64
2, 226800, Note_off_c, 0, 67, 64
2, 226800, Note_on_c, 0, 58, 45
2, 226800, Note_on_c, 0, 67, 52
2, 227040, Note_off_c, 0, 58, 64
2, 227040, Note_off_c, 0, 67, 64
2, 227040, Note_on_c, 0, 57, 48
2, 227040, Note_on_c, 0, 65, 53
2, 227280, Note_off_c, 0, 57, 64
2, 227280, Note_off_c, 0, 65, 64
2, 227280, Note_on_c, 0, 57, 47
2, 227280, Note_on_c, 0, 65, 52
2, 227520, Note_off_c, 0, 57, 64
2, 227520, Note_off_c, 0, 65, 64
2, 227520, Note_on_c, 0, 65, 54
2, 227520, Note_on_c, 0, 57, 54
2, 227760, Note_off_c, 0, 65, 64
2, 227760, Note_off_c, 0, 57, 64
2, 227760, Note_on_c, 0, 58, 54
2, 227760, Note_on_c, 0, 67, 51
2, 228000, Note_off_c, 0, 58, 64
2, 228000, Note_off_c, 0, 67, 64
2, 228000, Note_on_c, 0, 64, 49
2, 228000, Note_on_c, 0, 55, 45
2, 228240, Note_off_c, 0, 64, 64
2, 228240, Note_off_c, 0, 55, 64
2, 228240, Note_on_c, 0, 57, 49
2, 228240, Note_on_c, 0, 65, 54
2, 228480, Note_off_c, 0, 57, 64
2, 228480, Note_off_c, 0, 65, 64
2, 228960, Note_on_c, 0, 70, 50
2, 228960, Note_on_c, 0, 74, 45
2, 229200, Note_off_c, 0, 70, 64
2, 229200, Note_off_c, 0, 74, 64
2, 229200, Note_on_c, 0, 69, 48
2, 229200, Note_on_c, 0, 72, 53
2, 229440, Note_off_c, 0, 69, 64
2, 229440, Note_off_c, 0, 72, 64
2, 229440, Note_on_c, 0, 67, 54
2, 229440, Note_on_c, 0, 70, 54
2, 229680, Note_off_c, 0, 67, 64
2, 229680, Note_off_c, 0, 70, 64
2, 229680, Note_on_c, 0, 67, 51
2, 229680, Note_on_c, 0, 70, 47
2, 229920, Note_off_c, 0, 67, 64
2, 229920, Note_off_c, 0, 70, 64
2, 229920, Note_on_c, 0, 65, 47
2, 229920, Note_on_c, 0, 69, 49
2, 230160, Note_off_c, 0, 65, 64
2, 230160, Note_off_c, 0, 69, 64
2, 230160, Note_on_c, 0, 69, 54
2, 230160, Note_on_c, 0, 65, 46
2, 230400, Note_off_c, 0, 69, 64
2, 230400, Note_off_c, 0, 65, 64
2, 230400, Note_on_c, 0, 65, 53
2, 230400, Note_on_c, 0, 69, 51
2, 230640, Note_off_c, 0, 65, 64
2, 230640, Note_off_c, 0, 69, 64
2, 230640, Note_on_c, 0, 70, 52
2, 230640, Note_on_c, 0, 67, 45
2, 230880, Note_off_c, 0, 70, 64
2, 230880, Note_off_c, 0, 67, 64
2, 230880, Note_on_c, 0, 64, 46
2, 230880, Note_on_c, 0, 67, 53
2, 231120, Note_off_c, 0, 64, 64
2, 231120, Note_off_c, 0, 67, 64
2, 231120, Note_on_c, 0, 69, 53
2, 231120, Note_on_c, 0, 65, 48
2, 231360, Note_off_c, 0, 69, 64
2, 231360, Note_off_c, 0, 65, 64
2, 231960, Note_on_c, 0, 69, 74
2, 232080, Note_off_c, 0, 69, 64
2, 232080, Note_on_c, 0, 74, 78
2, 232200, Note_off_c, 0, 74, 64
2, 232200, Note_on_c, 0, 77, 71
2, 232320, Note_off_c, 0, 77, 64
2, 232320, Note_on_c, 0, 81, 78
2, 232560, Note_off_c, 0, 81, 64
2, 232680, Note_on_c, 0, 67, 77
2, 232800, Note_off_c, 0, 67, 64
2, 232800, Note_on_c, 0, 72, 78
2, 232920, Note_off_c, 0, 72, 64
2, 232920, Note_on_c, 0, 76, 70
2, 233040, Note_off_c, 0, 76, 64
2, 233040, Note_on_c, 0, 79, 71
2, 233280, Note_off_c, 0, 79, 64
2, 233400, Note_on_c, 0, 65, 72
2, 233520, Note_off_c, 0, 65, 64
2, 233520, Note_on_c, 0, 71, 76
2, 233640, Note_off_c, 0, 71, 64
2, 233640, Note_on_c, 0, 74, 78
2, 233760, Note_off_c, 0, 74, 64
2, 233760, Note_on_c, 0, 77, 73
2, 234000, Note_off_c, 0, 77, 64
2, 234120, Note_on_c, 0, 64, 78
2, 234240, Note_off_c, 0, 64, 64
2, 234240, Note_on_c, 0, 67, 75
2, 234360, Note_off_c, 0, 67, 64
2, 234360, Note_on_c, 0, 72, 76
2, 234480, Note_off_c, 0, 72, 64
2, 234480, Note_on_c, 0, 76, 78
2, 234720, Note_off_c, 0, 76, 64
2, 234840, Note_on_c, 0, 74, 71
2, 234960, Note_off_c, 0, 74, 64
2, 234960, Note_on_c, 0, 79, 78
2, 235080, Note_off_c, 0, 79, 64
2, 235080, Note_on_c, 0, 82, 75
2, 235200, Note_off_c, 0, 82, 64
2, 235200, Note_on_c, 0, 86, 79
2, 235440, Note_off_c, 0, 86, 64
2, 235560, Note_on_c, 0, 72, 71
2, 235680, Note_off_c, 0, 72, 64
2, 235680, Note_on_c, 0, 77, 74
2, 235800, Note_off_c, 0, 77, 64
2, 235800, Note_on_c, 0, 81, 76
2, 235920, Note_off_c, 0, 81, 64
2, 235920, Note_on_c, 0, 84, 70
2, 236160, Note_off_c, 0, 84, 64
2, 236280, Note_on_c, 0, 71, 77
2, 236400, Note_off_c, 0, 71, 64
2, 236400, Note_on_c, 0, 76, 74
2, 236520, Note_off_c, 0, 76, 64
2, 236520, Note_on_c, 0, 79, 71
2, 236640, Note_off_c, 0, 79, 64
2, 236640, Note_on_c, 0, 83, 79
2, 236880, Note_off_c, 0, 83, 64
2, 237000, Note_on_c, 0, 69, 74
2, 237120, Note_off_c, 0, 69, 64
2, 237120, Note_on_c, 0, 72, 73
2, 237240, Note_off_c, 0, 72, 64
2, 237240, Note_on_c, 0, 77, 73
2, 237360, Note_off_c, 0, 77, 64
2, 237360, Note_on_c, 0, 81, 71
2, 237600, Note_off_c, 0, 81, 64
2, 237720, Note_on_c, 0, 74, 76
2, 237840, Note_off_c, 0, 74, 64
2, 237840, Note_on_c, 0, 79, 77
2, 237960, Note_off_c, 0, 79, 64
2, 237960, Note_on_c, 0, 78, 78
2, 238080, Note_off_c, 0, 78, 64
2, 238080, Note_on_c, 0, 81, 78
2, 238200, Note_off_c, 0, 81, 64
2, 238200, Note_on_c, 0, 79, 79
2, 238320, Note_off_c, 0, 79, 64
2, 238320, Note_on_c, 0, 82, 73
2, 238440, Note_off_c, 0, 82, 64
2, 238440, Note_on_c, 0, 81, 78
2, 238560, Note_off_c, 0, 81, 64
2, 238560, Note_on_c, 0, 84, 73
2, 238680, Note_off_c, 0, 84, 64
2, 238680, Note_on_c, 0, 82, 75
2, 238800, Note_off_c, 0, 82, 64
2, 238800, Note_on_c, 0, 86, 75
2, 238920, Note_off_c, 0, 86, 64
2, 238920, Note_on_c, 0, 85, 70
2, 239040, Note_off_c, 0, 85, 64
2, 239040, Note_on_c, 0, 86, 75
2, 239280, Note_off_c, 0, 86, 64
2, 239520, Note_on_c, 0, 77, 53
2, 239520, Note_on_c, 0, 69, 52
2, 239760, Note_off_c, 0, 77, 64
2, 239760, Note_off_c, 0, 69, 64
2, 239760, Note_on_c, 0, 76, 52
2, 239760, Note_on_c, 0, 67, 48
2, 240000, Note_off_c, 0, 76, 64
2, 240000, Note_off_c, 0, 67, 64
2, 240960, Note_on_c, 0, 89, 49
2, 240960, Note_on_c, 0, 81, 47
2, 241200, Note_off_c, 0, 89, 64
2, 241200, Note_off_c, 0, 81, 64
2, 241200, Note_on_c, 0, 88, 50
2, 241200, Note_on_c, 0, 79, 53
2, 241440, Note_off_c, 0, 88, 64
2, 241440, Note_off_c, 0, 79, 64
2, 242400, Note_on_c, 0, 77, 47
2, 242400, Note_on_c, 0, 69, 52
2, 242640, Note_off_c, 0, 77, 64
2, 242640, Note_off_c, 0, 69, 64
2, 242640, Note_on_c, 0, 76, 45
2, 242640, Note_on_c, 0, 67, 46
2, 242880, Note_off_c, 0, 76, 64
2, 242880, Note_off_c, 0, 67, 64
2, 244080, Note_on_c, 0, 82, 52
2, 244440, Note_off_c, 0, 82, 64
2, 244440, Note_on_c, 0, 82, 54
2, 244560, Note_off_c, 0, 82, 64
2, 244560, Note_on_c, 0, 82, 49
2, 244680, Note_off_c, 0, 82, 64
2, 244680, Note_on_c, 0, 82, 46
2, 244740, Note_off_c, 0, 82, 64
2, 244740, Note_on_c, 0, 84, 48
2, 244800, Note_off_c, 0, 84, 64
2, 244800, Note_on_c, 0, 86, 49
2, 245160, Note_off_c, 0, 86, 64
2, 245160, Note_on_c, 0, 84, 48
2, 245280, Note_off_c, 0, 84, 64
2, 245280, Note_on_c, 0, 82, 52
2, 245520, Note_off_c, 0, 82, 64
2, 245520, Note_on_c, 0, 82, 45
2, 245880, Note_off_c, 0, 82, 64
2, 245880, Note_on_c, 0, 82, 50
2, 246000, Note_off_c, 0, 82, 64
2, 246000, Note_on_c, 0, 82, 47
2, 246120, Note_off_c, 0, 82, 64
2, 246120, Note_on_c, 0, 82, 50
2, 246180, Note_off_c, 0, 82, 64
2, 246180, Note_on_c, 0, 84, 48
2, 246240, Note_off_c, 0, 84, 64
2, 246240, Note_on_c, 0, 86, 52
2, 246600, Note_off_c, 0, 86, 64
2, 246600, Note_on_c, 0, 84, 47
2, 246720, Note_off_c, 0, 84, 64
2, 246720, Note_on_c, 0, 82, 48
2, 246960, Note_off_c, 0, 82, 64
2, 246960, Note_on_c, 0, 81, 51
2, 247200, Note_off_c, 0, 81, 64
2, 247440, Note_on_c, 0, 81, 48
2, 247680, Note_off_c, 0, 81, 64
2, 247680, Note_on_c, 0, 84, 86
2, 248160, Note_off_c, 0, 84, 64
2, 248160, Note_on_c, 0, 82, 47
2, 248400, Note_off_c, 0, 82, 64
2, 248400, Note_on_c, 0, 81, 53
2, 248640, Note_off_c, 0, 81, 64
2, 248880, Note_on_c, 0, 81, 53
2, 249120, Note_off_c, 0, 81, 64
2, 249120, Note_on_c, 0, 84, 83
2, 249600, Note_off_c, 0, 84, 64
2, 249600, Note_on_c, 0, 82, 45
2, 249840, Note_off_c, 0, 82, 64
2, 249840, Note_on_c, 0, 81, 49
2, 250080, Note_off_c, 0, 81, 64
2, 250320, Note_on_c, 0, 81, 46
2, 250560, Note_off_c, 0, 81, 64
2, 250560, Note_on_c, 0, 84, 76
2, 250800, Note_off_c, 0, 84, 64
2, 250800, Note_on_c, 0, 82, 78
2, 251040, Note_off_c, 0, 82, 64
2, 251040, Note_on_c, 0, 81, 45
2, 251280, Note_off_c, 0, 81, 64
2, 251280, Note_on_c, 0, 81, 79
2, 251520, Note_off_c, 0, 81, 64
2, 251520, Note_on_c, 0, 79, 74
2, 251760, Note_off_c, 0, 79, 64
2, 251760, Note_on_c, 0, 77, 46
2, 252000, Note_off_c, 0, 77, 64
2, 252000, Note_on_c, 0, 79, 47
2, 252060, Note_off_c, 0, 79, 64
2, 252060, Note_on_c, 0, 77, 50
2, 252120, Note_off_c, 0, 77, 64
2, 252120, Note_on_c, 0, 79, 53
2, 252180, Note_off_c, 0, 79, 64
2, 252180, Note_on_c, 0, 77, 48
2, 252240, Note_off_c, 0, 77, 64
2, 252240, Note_on_c, 0, 79, 45
2, 252300, Note_off_c, 0, 79, 64
2, 252300, Note_on_c, 0, 77, 49
2, 252360, Note_off_c, 0, 77, 64
2, 252360, Note_on_c, 0, 79, 46
2, 252480, Note_off_c, 0, 79, 64
2, 252480, Note_on_c, 0, 76, 52
2, 252720, Note_off_c, 0, 76, 64
2, 252720, Note_on_c, 0, 70, 49
2, 253080, Note_off_c, 0, 70, 64
2, 253080, Note_on_c, 0, 70, 50
2, 253200, Note_off_c, 0, 70, 64
2, 253200, Note_on_c, 0, 70, 50
2, 253320, Note_off_c, 0, 70, 64
2, 253320, Note_on_c, 0, 70, 50
2, 253380, Note_off_c, 0, 70, 64
2, 253380, Note_on_c, 0, 72, 49
2, 253440, Note_off_c, 0, 72, 64
2, 253440, Note_on_c, 0, 74, 49
2, 253800, Note_off_c, 0, 74, 64
2, 253800, Note_on_c, 0, 72, 46
2, 253920, Note_off_c, 0, 72, 64
2, 253920, Note_on_c, 0, 70, 52
2, 254160, Note_off_c, 0, 70, 64
2, 254160, Note_on_c, 0, 70, 52
2, 254520, Note_off_c, 0, 70, 64
2, 254520, Note_on_c, 0, 70, 54
2, 254640, Note_off_c, 0, 70, 64
2, 254640, Note_on_c, 0, 70, 48
2, 254760, Note_off_c, 0, 70, 64
2, 254760, Note_on_c, 0, 70, 53
2, 254820, Note_off_c, 0, 70, 64
2, 254820, Note_on_c, 0, 72, 54
2, 254880, Note_off_c, 0, 72, 64
2, 254880, Note_on_c, 0, 74, 50
2, 255240, Note_off_c, 0, 74, 64
2, 255240, Note_on_c, 0, 72, 45
2, 255360, Note_off_c, 0, 72, 64
2, 255360, Note_on_c, 0, 70, 49
2, 255600, Note_off_c, 0, 70, 64
2, 255600, Note_on_c, 0, 69, 51
2, 255720, Note_off_c, 0, 69, 64
2, 255720, Note_on_c, 0, 65, 46
2, 255840, Note_off_c, 0, 65, 64
2, 255840, Note_on_c, 0, 60, 46
2, 255960, Note_off_c, 0, 60, 64
2, 255960, Note_on_c, 0, 65, 54
2, 256080, Note_off_c, 0, 65, 64
2, 256080, Note_on_c, 0, 69, 54
2, 256200, Note_off_c, 0, 69, 64
2, 256200, Note_on_c, 0, 65, 47
2, 256320, Note_off_c, 0, 65, 64
2, 256320, Note_on_c, 0, 72, 80
2, 256440, Note_off_c, 0, 72, 64
2, 256440, Note_on_c, 0, 60, 49
2, 256560, Note_off_c, 0, 60, 64
2, 256560, Note_on_c, 0, 71, 52
2, 256680, Note_off_c, 0, 71, 64
2, 256680, Note_on_c, 0, 60, 49
2, 256800, Note_off_c, 0, 60, 64
2, 256800, Note_on_c, 0, 70, 47
2, 256920, Note_off_c, 0, 70, 64
2, 256920, Note_on_c, 0, 60, 52
2, 257040, Note_off_c, 0, 60, 64
2, 257040, Note_on_c, 0, 69, 46
2, 257160, Note_off_c, 0, 69, 64
2, 257160, Note_on_c, 0, 65, 50
2, 257280, Note_off_c, 0, 65, 64
2, 257280, Note_on_c, 0, 60, 52
2, 257400, Note_off_c, 0, 60, 64
2, 257400, Note_on_c, 0, 65, 47
2, 257520, Note_off_c, 0, 65, 64
2, 257520, Note_on_c, 0, 69, 49
2, 257640, Note_off_c, 0, 69, 64
2, 257640, Note_on_c, 0, 60, 53
2, 257760, Note_off_c, 0, 60, 64
2, 257760, Note_on_c, 0, 72, 82
2, 257880, Note_off_c, 0, 72, 64
2, 257880, Note_on_c, 0, 60, 45
2, 258000, Note_off_c, 0, 60, 64
2, 258000, Note_on_c, 0, 71, 45
2, 258120, Note_off_c, 0, 71, 64
2, 258120, Note_on_c, 0, 60, 48
2, 258240, Note_off_c, 0, 60, 64
2, 258240, Note_on_c, 0, 70, 52
2, 258360, Note_off_c, 0, 70, 64
2, 258360, Note_on_c, 0, 60, 52
2, 258480, Note_off_c, 0, 60, 64
2, 258480, Note_on_c, 0, 69, 49
2, 258600, Note_off_c, 0, 69, 64
2, 258600, Note_on_c, 0, 72, 48
2, 258720, Note_off_c, 0, 72, 64
2, 258720, Note_on_c, 0, 77, 45
2, 258840, Note_off_c, 0, 77, 64
2, 258840, Note_on_c, 0, 76, 51
2, 258960, Note_off_c, 0, 76, 64
2, 258960, Note_on_c, 0, 74, 53
2, 259080, Note_off_c, 0, 74, 64
2, 259080, Note_on_c, 0, 72, 52
2, 259200, Note_off_c, 0, 72, 64
2, 259200, Note_on_c, 0, 70, 71
2, 259320, Note_off_c, 0, 70, 64
2, 259320, Note_on_c, 0, 72, 77
2, 259440, Note_off_c, 0, 72, 64
2, 259440, Note_on_c, 0, 74, 74
2, 259560, Note_off_c, 0, 74, 64
2, 259560, Note_on_c, 0, 70, 75
2, 259680, Note_off_c, 0, 70, 64
2, 259680, Note_on_c, 0, 68, 54
2, 259800, Note_off_c, 0, 68, 64
2, 259800, Note_on_c, 0, 69, 52
2, 259920, Note_off_c, 0, 69, 64
2, 259920, Note_on_c, 0, 67, 71
2, 260040, Note_off_c, 0, 67, 64
2, 260040, Note_on_c, 0, 69, 75
2, 260160, Note_off_c, 0, 69, 64
2, 260160, Note_on_c, 0, 70, 78
2, 260280, Note_off_c, 0, 70, 64
2, 260280, Note_on_c, 0, 67, 77
2, 260400, Note_off_c, 0, 67, 64
2, 260400, Note_on_c, 0, 64, 47
2, 260520, Note_off_c, 0, 64, 64
2, 260520, Note_on_c, 0, 65, 49
2, 260640, Note_off_c, 0, 65, 64
2, 260640, Note_on_c, 0, 67, 77
2, 260760, Note_off_c, 0, 67, 64
2, 260760, Note_on_c, 0, 70, 72
2, 260880, Note_off_c, 0, 70, 64
2, 260880, Note_on_c, 0, 69, 71
2, 261000, Note_off_c, 0, 69, 64
2, 261000, Note_on_c, 0, 65, 78
2, 261120, Note_off_c, 0, 65, 64
2, 261120, Note_on_c, 0, 64, 78
2, 261240, Note_off_c, 0, 64, 64
2, 261240, Note_on_c, 0, 67, 75
2, 261360, Note_off_c, 0, 67, 64
2, 261360, Note_on_c, 0, 65, 73
2, 261480, Note_off_c, 0, 65, 64
2, 261480, Note_on_c, 0, 67, 71
2, 261600, Note_off_c, 0, 67, 64
2, 261600, Note_on_c, 0, 69, 72
2, 261720, Note_off_c, 0, 69, 64
2, 261720, Note_on_c, 0, 65, 74
2, 261840, Note_off_c, 0, 65, 64
2, 261840, Note_on_c, 0, 62, 71
2, 261960, Note_off_c, 0, 62, 64
2, 261960, Note_on_c, 0, 60, 71
2, 262080, Note_off_c, 0, 60, 64
2, 262080, Note_on_c, 0, 58, 75
2, 262200, Note_off_c, 0, 58, 64
2, 262200, Note_on_c, 0, 60, 72
2, 262320, Note_off_c, 0, 60, 64
2, 262320, Note_on_c, 0, 62, 77
2, 262440, Note_off_c, 0, 62, 64
2, 262440, Note_on_c, 0, 58, 78
2, 262560, Note_off_c, 0, 58, 64
2, 262560, Note_on_c, 0, 56, 53
2, 262680, Note_off_c, 0, 56, 64
2, 262680, Note_on_c, 0, 57, 53
2, 262800, Note_off_c, 0, 57, 64
2, 262800, Note_on_c, 0, 55, 74
2, 262920, Note_off_c, 0, 55, 64
2, 262920, Note_on_c, 0, 57, 74
2, 263040, Note_off_c, 0, 57, 64
2, 263040, Note_on_c, 0, 58, 78
2, 263160, Note_off_c, 0, 58, 64
2, 263160, Note_on_c, 0, 55, 73
2, 263280, Note_off_c, 0, 55, 64
2, 263280, Note_on_c, 0, 52, 45
2, 263400, Note_off_c, 0, 52, 64
2, 263400, Note_on_c, 0, 53, 52
2, 263520, Note_off_c, 0, 53, 64
2, 263520, Note_on_c, 0, 55, 75
2, 263640, Note_off_c, 0, 55, 64
2, 263640, Note_on_c, 0, 58, 70
2, 263760, Note_off_c, 0, 58, 64
2, 263760, Note_on_c, 0, 57, 75
2, 263880, Note_off_c, 0, 57, 64
2, 263880, Note_on_c, 0, 53, 75
2, 264000, Note_off_c, 0, 53, 64
2, 264000, Note_on_c, 0, 52, 79
2, 264120, Note_off_c, 0, 52, 64
2, 264120, Note_on_c, 0, 55, 74
2, 264240, Note_off_c, 0, 55, 64
2, 264240, Note_on_c, 0, 53, 75
2, 264480, Note_off_c, 0, 53, 64
2, 264480, Note_on_c, 0, 72, 49
2, 264720, Note_off_c, 0, 72, 64
2, 264720, Note_on_c, 0, 69, 45
2, 264960, Note_off_c, 0, 69, 64
2, 264960, Note_on_c, 0, 65, 50
2, 265200, Note_off_c, 0, 65, 64
2, 265920, Note_on_c, 0, 77, 50
2, 266160, Note_off_c, 0, 77, 64
2, 266160, Note_on_c, 0, 74, 53
2, 266400, Note_off_c, 0, 74, 64
2, 266400, Note_on_c, 0, 70, 51
2, 266640, Note_off_c, 0, 70, 64
2, 267360, Note_on_c, 0, 82, 50
2, 267600, Note_off_c, 0, 82, 64
2, 267600, Note_on_c, 0, 79, 54
2, 267840, Note_off_c, 0, 79, 64
2, 267840, Note_on_c, 0, 76, 51
2, 268080, Note_off_c, 0, 76, 64
2, 268680, Note_on_c, 0, 77, 79
2, 268800, Note_off_c, 0, 77, 64
2, 268800, Note_on_c, 0, 76, 72
2, 268920, Note_off_c, 0, 76, 64
2, 268920, Note_on_c, 0, 77, 78
2, 269040, Note_off_c, 0, 77, 64
2, 269040, Note_on_c, 0, 81, 75
2, 269160, Note_off_c, 0, 81, 64
2, 269160, Note_on_c, 0, 84, 78
2, 269280, Note_off_c, 0, 84, 64
2, 269400, Note_on_c, 0, 82, 75
2, 269520, Note_off_c, 0, 82, 64
2, 269520, Note_on_c, 0, 81, 70
2, 269640, Note_off_c, 0, 81, 64
2, 269640, Note_on_c, 0, 82, 72
2, 269760, Note_off_c, 0, 82, 64
2, 269760, Note_on_c, 0, 79, 73
2, 269880, Note_off_c, 0, 79, 64
2, 269880, Note_on_c, 0, 76, 70
2, 270000, Note_off_c, 0, 76, 64
2, 270120, Note_on_c, 0, 77, 76
2, 270240, Note_off_c, 0, 77, 64
2, 270240, Note_on_c, 0, 76, 77
2, 270360, Note_off_c, 0, 76, 64
2, 270360, Note_on_c, 0, 77, 73
2, 270480, Note_off_c, 0, 77, 64
2, 270480, Note_on_c, 0, 72, 74
2, 270600, Note_off_c, 0, 72, 64
2, 270600, Note_on_c, 0, 69, 79
2, 270720, Note_off_c, 0, 69, 64
2, 270840, Note_on_c, 0, 70, 76
2, 270960, Note_off_c, 0, 70, 64
2, 270960, Note_on_c, 0, 69, 72
2, 271080, Note_off_c, 0, 69, 64
2, 271080, Note_on_c, 0, 70, 71
2, 271200, Note_off_c, 0, 70, 64
2, 271200, Note_on_c, 0, 67, 77
2, 271320, Note_off_c, 0, 67, 64
2, 271320, Note_on_c, 0, 64, 76
2, 271440, Note_off_c, 0, 64, 64
2, 271440, Note_on_c, 0, 65, 70
2, 271920, Note_off_c, 0, 65, 64
2, 272160, Note_on_c, 0, 72, 78
2, 272160, Note_on_c, 0, 69, 70
2, 272160, Note_on_c, 0, 65, 72
2, 272640, Note_off_c, 0, 72, 64
2, 272640, Note_off_c, 0, 65, 64
2, 272640, Note_off_c, 0, 69, 64
2, 272880, Note_on_c, 0, 72, 71
2, 272880, Note_on_c, 0, 69, 78
2, 272880, Note_on_c, 0, 77, 71
2, 273120, Note_off_c, 0, 72, 64
2, 273120, Note_off_c, 0, 77, 64
2, 273120, Note_off_c, 0, 69, 64
2, 273120, Note_on_c, 0, 72, 77
2, 273120, Note_on_c, 0, 69, 77
2, 273120, Note_on_c, 0, 77, 75
2, 273360, Note_off_c, 0, 72, 64
2, 273360, Note_off_c, 0, 77, 64
2, 273360, Note_off_c, 0, 69, 64
2, 273360, Note_on_c, 0, 72, 75
2, 273360, Note_on_c, 0, 77, 70
2, 273360, Note_on_c, 0, 69, 74
2, 273600, Note_off_c, 0, 72, 64
2, 273600, Note_off_c, 0, 69, 64
2, 273600, Note_off_c, 0, 77, 64
2, 273600, Note_on_c, 0, 72, 76
2, 273600, Note_on_c, 0, 77, 79
2, 273600, Note_on_c, 0, 69, 79
2, 273840, Note_off_c, 0, 72, 64
2, 273840, Note_off_c, 0, 69, 64
2, 273840, Note_off_c, 0, 77, 64
2, 273840, End_track
3, 0, Start_track
3, 0, Text_t, "Left Hand"
3, 1440, Note_on_c, 1, 72, 50
3, 1440, Note_on_c, 1, 67, 51
3, 1680, Note_off_c, 1, 72, 64
3, 1680, Note_off_c, 1, 67, 64
3, 2160, Note_on_c, 1, 72, 47
3, 2160, Note_on_c, 1, 65, 51
3, 2400, Note_off_c, 1, 72, 64
3, 2400, Note_off_c, 1, 65, 64
3, 2880, Note_on_c, 1, 72, 50
3, 2880, Note_on_c, 1, 70, 45
3, 3120, Note_off_c, 1, 72, 64
3, 3120, Note_off_c, 1, 70, 64
3, 3600, Note_on_c, 1, 69, 72
3, 4320, Note_off_c, 1, 69, 64
3, 4320, Note_on_c, 1, 70, 74
3, 4560, Note_off_c, 1, 70, 64
3, 5040, Note_on_c, 1, 55, 70
3, 5280, Note_off_c, 1, 55, 64
3, 5280, Note_on_c, 1, 58, 70
3, 5520, Note_off_c, 1, 58, 64
3, 5520, Note_on_c, 1, 59, 73
3, 5760, Note_off_c, 1, 59, 64
3, 5760, Note_on_c, 1, 60, 72
3, 6000, Note_off_c, 1, 60, 64
3, 7200, Note_on_c, 1, 55, 53
3, 7200, Note_on_c, 1, 60, 46
3, 7440, Note_off_c, 1, 55, 64
3, 7440, Note_off_c, 1, 60, 64
3, 7920, Note_on_c, 1, 53, 49
3, 7920, Note_on_c, 1, 60, 46
3, 8160, Note_off_c, 1, 53, 64
3, 8160, Note_off_c, 1, 60, 64
3, 8640, Note_on_c, 1, 60, 47
3, 8640, Note_on_c, 1, 58, 45
3, 8880, Note_off_c, 1, 60, 64
3, 8880, Note_off_c, 1, 58, 64
3, 9360, Note_on_c, 1, 45, 75
3, 9360, Note_on_c, 1, 57, 77
3, 10080, Note_off_c, 1, 45, 64
3, 10080, Note_off_c, 1, 57, 64
3, 10080, Note_on_c, 1, 58, 70
3, 10080, Note_on_c, 1, 46, 75
3, 10320, Note_off_c, 1, 58, 64
3, 10320, Note_off_c, 1, 46, 64
3, 11040, Note_on_c, 1, 60, 71
3, 11280, Note_off_c, 1, 60, 64
3, 11280, Note_on_c, 1, 48, 71
3, 11520, Note_off_c, 1, 48, 64
3, 11520, Note_on_c, 1, 53, 76
3, 11760, Note_off_c, 1, 53, 64
3, 11760, Note_on_c, 1, 41, 70
3, 12000, Note_off_c, 1, 41, 64
3, 12000, Note_on_c, 1, 41, 72
3, 12240, Note_off_c, 1, 41, 64
3, 12240, Note_on_c, 1, 41, 48
3, 12480, Note_off_c, 1, 41, 64
3, 12480, Note_on_c, 1, 41, 48
3, 12720, Note_off_c, 1, 41, 64
3, 12720, Note_on_c, 1, 41, 47
3, 12960, Note_off_c, 1, 41, 64
3, 12960, Note_on_c, 1, 41, 54
3, 13200, Note_off_c, 1, 41, 64
3, 13200, Note_on_c, 1, 41, 49
3, 13440, Note_off_c, 1, 41, 64
3, 13440, Note_on_c, 1, 41, 52
3, 13680, Note_off_c, 1, 41, 64
3, 13680, Note_on_c, 1, 41, 53
3, 13920, Note_off_c, 1, 41, 64
3, 13920, Note_on_c, 1, 41, 54
3, 14160, Note_off_c, 1, 41, 64
3, 14160, Note_on_c, 1, 41, 48
3, 14400, Note_off_c, 1, 41, 64
3, 14400, Note_on_c, 1, 41, 54
3, 14640, Note_off_c, 1, 41, 64
3, 14640, Note_on_c, 1, 53, 48
3, 14880, Note_off_c, 1, 53, 64
3, 14880, Note_on_c, 1, 53, 47
3, 15120, Note_off_c, 1, 53, 64
3, 15120, Note_on_c, 1, 53, 47
3, 15360, Note_off_c, 1, 53, 64
3, 15360, Note_on_c, 1, 53, 54
3, 15600, Note_off_c, 1, 53, 64
3, 15600, Note_on_c, 1, 53, 47
3, 15840, Note_off_c, 1, 53, 64
3, 15840, Note_on_c, 1, 53, 52
3, 16080, Note_off_c, 1, 53, 64
3, 16080, Note_on_c, 1, 53, 50
3, 16320, Note_off_c, 1, 53, 64
3, 16320, Note_on_c, 1, 53, 51
3, 16560, Note_off_c, 1, 53, 64
3, 16560, Note_on_c, 1, 53, 48
3, 16800, Note_off_c, 1, 53, 64
3, 16800, Note_on_c, 1, 53, 53
3, 17040, Note_off_c, 1, 53, 64
3, 17040, Note_on_c, 1, 53, 53
3, 17280, Note_off_c, 1, 53, 64
3, 17280, Note_on_c, 1, 53, 51
3, 17520, Note_off_c, 1, 53, 64
3, 17520, Note_on_c, 1, 53, 50
3, 17760, Note_off_c, 1, 53, 64
3, 17760, Note_on_c, 1, 53, 47
3, 18000, Note_off_c, 1, 53, 64
3, 18000, Note_on_c, 1, 65, 75
3, 18240, Note_off_c, 1, 65, 64
3, 18600, Note_on_c, 1, 65, 79
3, 18720, Note_off_c, 1, 65, 64
3, 18720, Note_on_c, 1, 64, 73
3, 18960, Note_off_c, 1, 64, 64
3, 19320, Note_on_c, 1, 64, 71
3, 19440, Note_off_c, 1, 64, 64
3, 19440, Note_on_c, 1, 62, 74
3, 19680, Note_off_c, 1, 62, 64
3, 20040, Note_on_c, 1, 62, 71
3, 20160, Note_off_c, 1, 62, 64
3, 20160, Note_on_c, 1, 60, 73
3, 20400, Note_off_c, 1, 60, 64
3, 20760, Note_on_c, 1, 60, 75
3, 20880, Note_off_c, 1, 60, 64
3, 20880, Note_on_c, 1, 65, 72
3, 21360, Note_off_c, 1, 65, 64
3, 22800, Note_on_c, 1, 54, 47
3, 23040, Note_off_c, 1, 54, 64
3, 23040, Note_on_c, 1, 55, 53
3, 23280, Note_off_c, 1, 55, 64
3, 23520, Note_on_c, 1, 42, 75
3, 23760, Note_off_c, 1, 42, 64
3, 23760, Note_on_c, 1, 43, 75
3, 24000, Note_off_c, 1, 43, 64
3, 24240, Note_on_c, 1, 66, 54
3, 24480, Note_off_c, 1, 66, 64
3, 24480, Note_on_c, 1, 67, 50
3, 24720, Note_off_c, 1, 67, 64
3, 24960, Note_on_c, 1, 78, 75
3, 25200, Note_off_c, 1, 78, 64
3, 25200, Note_on_c, 1, 79, 73
3, 25440, Note_off_c, 1, 79, 64
3, 25680, Note_on_c, 1, 54, 54
3, 25920, Note_off_c, 1, 54, 64
3, 25920, Note_on_c, 1, 55, 49
3, 26160, Note_off_c, 1, 55, 64
3, 26400, Note_on_c, 1, 42, 75
3, 26640, Note_off_c, 1, 42, 64
3, 26640, Note_on_c, 1, 43, 74
3, 26880, Note_off_c, 1, 43, 64
3, 30240, Note_on_c, 1, 60, 45
3, 30360, Note_off_c, 1, 60, 64
3, 30360, Note_on_c, 1, 67, 54
3, 30480, Note_off_c, 1, 67, 64
3, 30480, Note_on_c, 1, 64, 53
3, 30600, Note_off_c, 1, 64, 64
3, 30600, Note_on_c, 1, 67, 53
3, 30720, Note_off_c, 1, 67, 64
3, 30720, Note_on_c, 1, 60, 53
3, 30840, Note_off_c, 1, 60, 64
3, 30840, Note_on_c, 1, 67, 45
3, 30960, Note_off_c, 1, 67, 64
3, 30960, Note_on_c, 1, 59, 84
3, 31080, Note_off_c, 1, 59, 64
3, 31080, Note_on_c, 1, 67, 53
3, 31200, Note_off_c, 1, 67, 64
3, 31200, Note_on_c, 1, 62, 48
3, 31320, Note_off_c, 1, 62, 64
3, 31320, Note_on_c, 1, 67, 47
3, 31440, Note_off_c, 1, 67, 64
3, 31440, Note_on_c, 1, 59, 53
3, 31560, Note_off_c, 1, 59, 64
3, 31560, Note_on_c, 1, 67, 46
3, 31680, Note_off_c, 1, 67, 64
3, 31680, Note_on_c, 1, 60, 54
3, 31800, Note_off_c, 1, 60, 64
3, 31800, Note_on_c, 1, 67, 50
3, 31920, Note_off_c, 1, 67, 64
3, 31920, Note_on_c, 1, 64, 50
3, 32040, Note_off_c, 1, 64, 64
3, 32040, Note_on_c, 1, 67, 47
3, 32160, Note_off_c, 1, 67, 64
3, 32160, Note_on_c, 1, 60, 51
3, 32280, Note_off_c, 1, 60, 64
3, 32280, Note_on_c, 1, 67, 54
3, 32400, Note_off_c, 1, 67, 64
3, 32400, Note_on_c, 1, 59, 84
3, 32520, Note_off_c, 1, 59, 64
3, 32520, Note_on_c, 1, 67, 47
3, 32640, Note_off_c, 1, 67, 64
3, 32640, Note_on_c, 1, 62, 46
3, 32760, Note_off_c, 1, 62, 64
3, 32760, Note_on_c, 1, 67, 47
3, 32880, Note_off_c, 1, 67, 64
3, 32880, Note_on_c, 1, 59, 48
3, 33000, Note_off_c, 1, 59, 64
3, 33000, Note_on_c, 1, 67, 50
3, 33120, Note_off_c, 1, 67, 64
3, 33120, Note_on_c, 1, 60, 51
3, 33240, Note_off_c, 1, 60, 64
3, 33240, Note_on_c, 1, 64, 45
3, 33360, Note_off_c, 1, 64, 64
3, 33360, Note_on_c, 1, 67, 50
3, 33480, Note_off_c, 1, 67, 64
3, 33480, Note_on_c, 1, 72, 46
3, 33600, Note_off_c, 1, 72, 64
3, 33600, Note_on_c, 1, 71, 51
3, 33720, Note_off_c, 1, 71, 64
3, 33720, Note_on_c, 1, 72, 47
3, 33840, Note_off_c, 1, 72, 64
3, 33840, Note_on_c, 1, 72, 73
3, 33840, Note_on_c, 1, 69, 70
3, 34320, Note_off_c, 1, 72, 64
3, 34320, Note_off_c, 1, 69, 64
3, 34320, Note_on_c, 1, 67, 87
3, 34320, Note_on_c, 1, 71, 87
3, 34560, Note_off_c, 1, 67, 64
3, 34560, Note_off_c, 1, 71, 64
3, 34560, Note_on_c, 1, 65, 78
3, 34560, Note_on_c, 1, 69, 88
3, 35040, Note_off_c, 1, 65, 64
3, 35040, Note_off_c, 1, 69, 64
3, 35040, Note_on_c, 1, 66, 86
3, 35280, Note_off_c, 1, 66, 64
3, 35280, Note_on_c, 1, 67, 50
3, 35520, Note_off_c, 1, 67, 64
3, 36000, Note_on_c, 1, 62, 51
3, 36360, Note_off_c, 1, 62, 64
3, 36360, Note_on_c, 1, 62, 45
3, 36480, Note_off_c, 1, 62, 64
3, 36480, Note_on_c, 1, 62, 52
3, 36600, Note_off_c, 1, 62, 64
3, 36600, Note_on_c, 1, 62, 45
3, 36660, Note_off_c, 1, 62, 64
3, 36660, Note_on_c, 1, 64, 45
3, 36720, Note_off_c, 1, 64, 64
3, 36720, Note_on_c, 1, 65, 52
3, 37080, Note_off_c, 1, 65, 64
3, 37080, Note_on_c, 1, 64, 51
3, 37200, Note_off_c, 1, 64, 64
3, 37200, Note_on_c, 1, 62, 50
3, 37440, Note_off_c, 1, 62, 64
3, 37440, Note_on_c, 1, 62, 48
3, 37800, Note_off_c, 1, 62, 64
3, 37800, Note_on_c, 1, 62, 46
3, 37920, Note_off_c, 1, 62, 64
3, 37920, Note_on_c, 1, 62, 45
3, 38040, Note_off_c, 1, 62, 64
3, 38040, Note_on_c, 1, 62, 49
3, 38100, Note_off_c, 1, 62, 64
3, 38100, Note_on_c, 1, 64, 49
3, 38160, Note_off_c, 1, 64, 64
3, 38160, Note_on_c, 1, 65, 53
3, 38520, Note_off_c, 1, 65, 64
3, 38520, Note_on_c, 1, 64, 50
3, 38640, Note_off_c, 1, 64, 64
3, 38640, Note_on_c, 1, 62, 48
3, 38880, Note_off_c, 1, 62, 64
3, 38880, Note_on_c, 1, 60, 54
3, 39120, Note_off_c, 1, 60, 64
3, 39600, Note_on_c, 1, 59, 86
3, 39600, Note_on_c, 1, 47, 83
3, 40320, Note_off_c, 1, 59, 64
3, 40320, Note_off_c, 1, 47, 64
3, 40320, Note_on_c, 1, 48, 49
3, 40320, Note_on_c, 1, 60, 52
3, 40560, Note_off_c, 1, 48, 64
3, 40560, Note_off_c, 1, 60, 64
3, 41040, Note_on_c, 1, 59, 85
3, 41040, Note_on_c, 1, 47, 87
3, 41760, Note_off_c, 1, 59, 64
3, 41760, Note_off_c, 1, 47, 64
3, 41760, Note_on_c, 1, 48, 52
3, 41760, Note_on_c, 1, 60, 48
3, 42000, Note_off_c, 1, 48, 64
3, 42000, Note_off_c, 1, 60, 64
3, 42480, Note_on_c, 1, 72, 75
3, 42480, Note_on_c, 1, 69, 74
3, 42960, Note_off_c, 1, 72, 64
3, 42960, Note_off_c, 1, 69, 64
3, 42960, Note_on_c, 1, 67, 50
3, 42960, Note_on_c, 1, 71, 52
3, 43200, Note_off_c, 1, 67, 64
3, 43200, Note_off_c, 1, 71, 64
3, 43200, Note_on_c, 1, 69, 76
3, 43200, Note_on_c, 1, 65, 73
3, 43680, Note_off_c, 1, 69, 64
3, 43680, Note_off_c, 1, 65, 64
3, 43680, Note_on_c, 1, 64, 48
3, 43680, Note_on_c, 1, 67, 49
3, 43920, Note_off_c, 1, 64, 64
3, 43920, Note_off_c, 1, 67, 64
3, 43920, Note_on_c, 1, 65, 73
3, 44160, Note_off_c, 1, 65, 64
3, 44160, Note_on_c, 1, 67, 74
3, 44400, Note_off_c, 1, 67, 64
3, 44400, Note_on_c, 1, 55, 76
3, 44640, Note_off_c, 1, 55, 64
3, 44640, Note_on_c, 1, 60, 76
3, 44880, Note_off_c, 1, 60, 64
3, 45360, Note_on_c, 1, 57, 79
3, 45360, Note_on_c, 1, 60, 74
3, 45840, Note_off_c, 1, 57, 64
3, 45840, Note_off_c, 1, 60, 64
3, 45840, Note_on_c, 1, 59, 51
3, 45840, Note_on_c, 1, 55, 51
3, 46080, Note_off_c, 1, 59, 64
3, 46080, Note_off_c, 1, 55, 64
3, 46080, Note_on_c, 1, 53, 73
3, 46080, Note_on_c, 1, 57, 76
3, 46560, Note_off_c, 1, 53, 64
3, 46560, Note_off_c, 1, 57, 64
3, 46560, Note_on_c, 1, 55, 46
3, 46560, Note_on_c, 1, 52, 54
3, 46800, Note_off_c, 1, 55, 64
3, 46800, Note_off_c, 1, 52, 64
3, 46800, Note_on_c, 1, 53, 77
3, 47040, Note_off_c, 1, 53, 64
3, 47040, Note_on_c, 1, 55, 78
3, 47280, Note_off_c, 1, 55, 64
3, 47280, Note_on_c, 1, 43, 70
3, 47520, Note_off_c, 1, 43, 64
3, 47520, Note_on_c, 1, 48, 72
3, 47760, Note_off_c, 1, 48, 64
3, 48480, Note_on_c, 1, 52, 51
3, 48480, Note_on_c, 1, 58, 46
3, 48720, Note_off_c, 1, 52, 64
3, 48720, Note_off_c, 1, 58, 64
3, 48720, Note_on_c, 1, 52, 54
3, 48720, Note_on_c, 1, 58, 47
3, 48960, Note_off_c, 1, 52, 64
3, 48960, Note_off_c, 1, 58, 64
3, 48960, Note_on_c, 1, 57, 53
3, 48960, Note_on_c, 1, 53, 52
3, 49200, Note_off_c, 1, 57, 64
3, 49200, Note_off_c, 1, 53, 64
3, 49920, Note_on_c, 1, 57, 48
3, 49920, Note_on_c, 1, 60, 49
3, 50160, Note_off_c, 1, 57, 64
3, 50160, Note_off_c, 1, 60, 64
3, 50160, Note_on_c, 1, 60, 45
3, 50160, Note_on_c, 1, 57, 48
3, 50400, Note_off_c, 1, 60, 64
3, 50400, Note_off_c, 1, 57, 64
3, 50400, Note_on_c, 1, 59, 49
3, 50400, Note_on_c, 1, 55, 45
3, 50640, Note_off_c, 1, 59, 64
3, 50640, Note_off_c, 1, 55, 64
3, 51360, Note_on_c, 1, 55, 46
3, 51360, Note_on_c, 1, 65, 48
3, 51600, Note_off_c, 1, 55, 64
3, 51600, Note_off_c, 1, 65, 64
3, 51600, Note_on_c, 1, 55, 49
3, 51600, Note_on_c, 1, 65, 46
3, 51840, Note_off_c, 1, 55, 64
3, 51840, Note_off_c, 1, 65, 64
3, 51840, Note_on_c, 1, 64, 76
3, 51840, Note_on_c, 1, 60, 76
3, 52080, Note_off_c, 1, 64, 64
3, 52080, Note_off_c, 1, 60, 64
3, 52560, Note_on_c, 1, 55, 76
3, 52560, Note_on_c, 1, 62, 70
3, 52800, Note_off_c, 1, 55, 64
3, 52800, Note_off_c, 1, 62, 64
3, 53280, Note_on_c, 1, 64, 77
3, 53280, Note_on_c, 1, 60, 70
3, 53520, Note_off_c, 1, 64, 64
3, 53520, Note_off_c, 1, 60, 64
3, 54000, Note_on_c, 1, 55, 73
3, 54000, Note_on_c, 1, 62, 76
3, 54240, Note_off_c, 1, 55, 64
3, 54240, Note_off_c, 1, 62, 64
3, 54720, Note_on_c, 1, 48, 76
3, 54840, Note_off_c, 1, 48, 64
3, 54840, Note_on_c, 1, 60, 72
3, 54960, Note_off_c, 1, 60, 64
3, 54960, Note_on_c, 1, 64, 75
3, 55080, Note_off_c, 1, 64, 64
3, 55080, Note_on_c, 1, 60, 72
3, 55200, Note_off_c, 1, 60, 64
3, 55200, Note_on_c, 1, 55, 76
3, 55320, Note_off_c, 1, 55, 64
3, 55320, Note_on_c, 1, 52, 73
3, 55440, Note_off_c, 1, 52, 64
3, 55440, Note_on_c, 1, 48, 73
3, 55680, Note_off_c, 1, 48, 64
3, 56880, Note_on_c, 1, 72, 50
3, 56880, Note_on_c, 1, 67, 51
3, 57120, Note_off_c, 1, 72, 64
3, 57120, Note_off_c, 1, 67, 64
3, 57600, Note_on_c, 1, 72, 47
3, 57600, Note_on_c, 1, 65, 51
3, 57840, Note_off_c, 1, 72, 64
3, 57840, Note_off_c, 1, 65, 64
3, 58320, Note_on_c, 1, 72, 50
3, 58320, Note_on_c, 1, 70, 45
3, 58560, Note_off_c, 1, 72, 64
3, 58560, Note_off_c, 1, 70, 64
3, 59040, Note_on_c, 1, 69, 72
3, 59760, Note_off_c, 1, 69, 64
3, 59760, Note_on_c, 1, 70, 74
3, 60000, Note_off_c, 1, 70, 64
3, 60480, Note_on_c, 1, 55, 70
3, 60720, Note_off_c, 1, 55, 64
3, 60720, Note_on_c, 1, 58, 70
3, 60960, Note_off_c, 1, 58, 64
3, 60960, Note_on_c, 1, 59, 73
3, 61200, Note_off_c, 1, 59, 64
3, 61200, Note_on_c, 1, 60, 72
3, 61440, Note_off_c, 1, 60, 64
3, 62640, Note_on_c, 1, 55, 53
3, 62640, Note_on_c, 1, 60, 46
3, 62880, Note_off_c, 1, 55, 64
3, 62880, Note_off_c, 1, 60, 64
3, 63360, Note_on_c, 1, 53, 49
3, 63360, Note_on_c, 1, 60, 46
3, 63600, Note_off_c, 1, 53, 64
3, 63600, Note_off_c, 1, 60, 64
3, 64080, Note_on_c, 1, 60, 47
3, 64080, Note_on_c, 1, 58, 45
3, 64320, Note_off_c, 1, 60, 64
3, 64320, Note_off_c, 1, 58, 64
3, 64800, Note_on_c, 1, 45, 75
3, 64800, Note_on_c, 1, 57, 77
3, 65520, Note_off_c, 1, 45, 64
3, 65520, Note_off_c, 1, 57, 64
3, 65520, Note_on_c, 1, 58, 70
3, 65520, Note_on_c, 1, 46, 75
3, 65760, Note_off_c, 1, 58, 64
3, 65760, Note_off_c, 1, 46, 64
3, 66480, Note_on_c, 1, 60, 71
3, 66720, Note_off_c, 1, 60, 64
3, 66720, Note_on_c, 1, 48, 71
3, 66960, Note_off_c, 1, 48, 64
3, 66960, Note_on_c, 1, 53, 76
3, 67200, Note_off_c, 1, 53, 64
3, 67200, Note_on_c, 1, 41, 70
3, 67440, Note_off_c, 1, 41, 64
3, 67440, Note_on_c, 1, 41, 72
3, 67680, Note_off_c, 1, 41, 64
3, 67680, Note_on_c, 1, 41, 48
3, 67920, Note_off_c, 1, 41, 64
3, 67920, Note_on_c, 1, 41, 48
3, 68160, Note_off_c, 1, 41, 64
3, 68160, Note_on_c, 1, 41, 47
3, 68400, Note_off_c, 1, 41, 64
3, 68400, Note_on_c, 1, 41, 54
3, 68640, Note_off_c, 1, 41, 64
3, 68640, Note_on_c, 1, 41, 49
3, 68880, Note_off_c, 1, 41, 64
3, 68880, Note_on_c, 1, 41, 52
3, 69120, Note_off_c, 1, 41, 64
3, 69120, Note_on_c, 1, 41, 53
3, 69360, Note_off_c, 1, 41, 64
3, 69360, Note_on_c, 1, 41, 54
3, 69600, Note_off_c, 1, 41, 64
3, 69600, Note_on_c, 1, 41, 48
3, 69840, Note_off_c, 1, 41, 64
3, 69840, Note_on_c, 1, 41, 54
3, 70080, Note_off_c, 1, 41, 64
3, 70080, Note_on_c, 1, 53, 48
3, 70320, Note_off_c, 1, 53, 64
3, 70320, Note_on_c, 1, 53, 47
3, 70560, Note_off_c, 1, 53, 64
3, 70560, Note_on_c, 1, 53, 47
3, 70800, Note_off_c, 1, 53, 64
3, 70800, Note_on_c, 1, 53, 54
3, 71040, Note_off_c, 1, 53, 64
3, 71040, Note_on_c, 1, 53, 47
3, 71280, Note_off_c, 1, 53, 64
3, 71280, Note_on_c, 1, 53, 52
3, 71520, Note_off_c, 1, 53, 64
3, 71520, Note_on_c, 1, 53, 50
3, 71760, Note_off_c, 1, 53, 64
3, 71760, Note_on_c, 1, 53, 51
3, 72000, Note_off_c, 1, 53, 64
3, 72000, Note_on_c, 1, 53, 48
3, 72240, Note_off_c, 1, 53, 64
3, 72240, Note_on_c, 1, 53, 53
3, 72480, Note_off_c, 1, 53, 64
3, 72480, Note_on_c, 1, 53, 53
3, 72720, Note_off_c, 1, 53, 64
3, 72720, Note_on_c, 1, 53, 51
3, 72960, Note_off_c, 1, 53, 64
3, 72960, Note_on_c, 1, 53, 50
3, 73200, Note_off_c, 1, 53, 64
3, 73200, Note_on_c, 1, 53, 47
3, 73440, Note_off_c, 1, 53, 64
3, 73440, Note_on_c, 1, 65, 75
3, 73680, Note_off_c, 1, 65, 64
3, 74040, Note_on_c, 1, 65, 79
3, 74160, Note_off_c, 1, 65, 64
3, 74160, Note_on_c, 1, 64, 73
3, 74400, Note_off_c, 1, 64, 64
3, 74760, Note_on_c, 1, 64, 71
3, 74880, Note_off_c, 1, 64, 64
3, 74880, Note_on_c, 1, 62, 74
3, 75120, Note_off_c, 1, 62, 64
3, 75480, Note_on_c, 1, 62, 71
3, 75600, Note_off_c, 1, 62, 64
3, 75600, Note_on_c, 1, 60, 73
3, 75840, Note_off_c, 1, 60, 64
3, 76200, Note_on_c, 1, 60, 75
3, 76320, Note_off_c, 1, 60, 64
3, 76320, Note_on_c, 1, 65, 72
3, 76800, Note_off_c, 1, 65, 64
3, 78240, Note_on_c, 1, 54, 47
3, 78480, Note_off_c, 1, 54, 64
3, 78480, Note_on_c, 1, 55, 53
3, 78720, Note_off_c, 1, 55, 64
3, 78960, Note_on_c, 1, 42, 75
3, 79200, Note_off_c, 1, 42, 64
3, 79200, Note_on_c, 1, 43, 75
3, 79440, Note_off_c, 1, 43, 64
3, 79680, Note_on_c, 1, 66, 54
3, 79920, Note_off_c, 1, 66, 64
3, 79920, Note_on_c, 1, 67, 50
3, 80160, Note_off_c, 1, 67, 64
3, 80400, Note_on_c, 1, 78, 75
3, 80640, Note_off_c, 1, 78, 64
3, 80640, Note_on_c, 1, 79, 73
3, 80880, Note_off_c, 1, 79, 64
3, 81120, Note_on_c, 1, 54, 54
3, 81360, Note_off_c, 1, 54, 64
3, 81360, Note_on_c, 1, 55, 49
3, 81600, Note_off_c, 1, 55, 64
3, 81840, Note_on_c, 1, 42, 75
3, 82080, Note_off_c, 1, 42, 64
3, 82080, Note_on_c, 1, 43, 74
3, 82320, Note_off_c, 1, 43, 64
3, 85680, Note_on_c, 1, 60, 45
3, 85800, Note_off_c, 1, 60, 64
3, 85800, Note_on_c, 1, 67, 54
3, 85920, Note_off_c, 1, 67, 64
3, 85920, Note_on_c, 1, 64, 53
3, 86040, Note_off_c, 1, 64, 64
3, 86040, Note_on_c, 1, 67, 53
3, 86160, Note_off_c, 1, 67, 64
3, 86160, Note_on_c, 1, 60, 53
3, 86280, Note_off_c, 1, 60, 64
3, 86280, Note_on_c, 1, 67, 45
3, 86400, Note_off_c, 1, 67, 64
3, 86400, Note_on_c, 1, 59, 84
3, 86520, Note_off_c, 1, 59, 64
3, 86520, Note_on_c, 1, 67, 53
3, 86640, Note_off_c, 1, 67, 64
3, 86640, Note_on_c, 1, 62, 48
3, 86760, Note_off_c, 1, 62, 64
3, 86760, Note_on_c, 1, 67, 47
3, 86880, Note_off_c, 1, 67, 64
3, 86880, Note_on_c, 1, 59, 53
3, 87000, Note_off_c, 1, 59, 64
3, 87000, Note_on_c, 1, 67, 46
3, 87120, Note_off_c, 1, 67, 64
3, 87120, Note_on_c, 1, 60, 54
3, 87240, Note_off_c, 1, 60, 64
3, 87240, Note_on_c, 1, 67, 50
3, 87360, Note_off_c, 1, 67, 64
3, 87360, Note_on_c, 1, 64, 50
3, 87480, Note_off_c, 1, 64, 64
3, 87480, Note_on_c, 1, 67, 47
3, 87600, Note_off_c, 1, 67, 64
3, 87600, Note_on_c, 1, 60, 51
3, 87720, Note_off_c, 1, 60, 64
3, 87720, Note_on_c, 1, 67, 54
3, 87840, Note_off_c, 1, 67, 64
3, 87840, Note_on_c, 1, 59, 84
3, 87960, Note_off_c, 1, 59, 64
3, 87960, Note_on_c, 1, 67, 47
3, 88080, Note_off_c, 1, 67, 64
3, 88080, Note_on_c, 1, 62, 46
3, 88200, Note_off_c, 1, 62, 64
3, 88200, Note_on_c, 1, 67, 47
3, 88320, Note_off_c, 1, 67, 64
3, 88320, Note_on_c, 1, 59, 48
3, 88440, Note_off_c, 1, 59, 64
3, 88440, Note_on_c, 1, 67, 50
3, 88560, Note_off_c, 1, 67, 64
3, 88560, Note_on_c, 1, 60, 51
3, 88680, Note_off_c, 1, 60, 64
3, 88680, Note_on_c, 1, 64, 45
3, 88800, Note_off_c, 1, 64, 64
3, 88800, Note_on_c, 1, 67, 50
3, 88920, Note_off_c, 1, 67, 64
3, 88920, Note_on_c, 1, 72, 46
3, 89040, Note_off_c, 1, 72, 64
3, 89040, Note_on_c, 1, 71, 51
3, 89160, Note_off_c, 1, 71, 64
3, 89160, Note_on_c, 1, 72, 47
3, 89280, Note_off_c, 1, 72, 64
3, 89280, Note_on_c, 1, 72, 73
3, 89280, Note_on_c, 1, 69, 70
3, 89760, Note_off_c, 1, 72, 64
3, 89760, Note_off_c, 1, 69, 64
3, 89760, Note_on_c, 1, 67, 87
3, 89760, Note_on_c, 1, 71, 87
3, 90000, Note_off_c, 1, 67, 64
3, 90000, Note_off_c, 1, 71, 64
3, 90000, Note_on_c, 1, 65, 78
3, 90000, Note_on_c, 1, 69, 88
3, 90480, Note_off_c, 1, 65, 64
3, 90480, Note_off_c, 1, 69, 64
3, 90480, Note_on_c, 1, 66, 86
3, 90720, Note_off_c, 1, 66, 64
3, 90720, Note_on_c, 1, 67, 50
3, 90960, Note_off_c, 1, 67, 64
3, 91440, Note_on_c, 1, 62, 51
3, 91800, Note_off_c, 1, 62, 64
3, 91800, Note_on_c, 1, 62, 45
3, 91920, Note_off_c, 1, 62, 64
3, 91920, Note_on_c, 1, 62, 52
3, 92040, Note_off_c, 1, 62, 64
3, 92040, Note_on_c, 1, 62, 45
3, 92100, Note_off_c, 1, 62, 64
3, 92100, Note_on_c, 1, 64, 45
3, 92160, Note_off_c, 1, 64, 64
3, 92160, Note_on_c, 1, 65, 52
3, 92520, Note_off_c, 1, 65, 64
3, 92520, Note_on_c, 1, 64, 51
3, 92640, Note_off_c, 1, 64, 64
3, 92640, Note_on_c, 1, 62, 50
3, 92880, Note_off_c, 1, 62, 64
3, 92880, Note_on_c, 1, 62, 48
3, 93240, Note_off_c, 1, 62, 64
3, 93240, Note_on_c, 1, 62, 46
3, 93360, Note_off_c, 1, 62, 64
3, 93360, Note_on_c, 1, 62, 45
3, 93480, Note_off_c, 1, 62, 64
3, 93480, Note_on_c, 1, 62, 49
3, 93540, Note_off_c, 1, 62, 64
3, 93540, Note_on_c, 1, 64, 49
3, 93600, Note_off_c, 1, 64, 64
3, 93600, Note_on_c, 1, 65, 53
3, 93960, Note_off_c, 1, 65, 64
3, 93960, Note_on_c, 1, 64, 50
3, 94080, Note_off_c, 1, 64, 64
3, 94080, Note_on_c, 1, 62, 48
3, 94320, Note_off_c, 1, 62, 64
3, 94320, Note_on_c, 1, 60, 54
3, 94560, Note_off_c, 1, 60, 64
3, 95040, Note_on_c, 1, 59, 86
3, 95040, Note_on_c, 1, 47, 83
3, 95760, Note_off_c, 1, 59, 64
3, 95760, Note_off_c, 1, 47, 64
3, 95760, Note_on_c, 1, 48, 49
3, 95760, Note_on_c, 1, 60, 52
3, 96000, Note_off_c, 1, 48, 64
3, 96000, Note_off_c, 1, 60, 64
3, 96480, Note_on_c, 1, 59, 85
3, 96480, Note_on_c, 1, 47, 87
3, 97200, Note_off_c, 1, 59, 64
3, 97200, Note_off_c, 1, 47, 64
3, 97200, Note_on_c, 1, 48, 52
3, 97200, Note_on_c, 1, 60, 48
3, 97440, Note_off_c, 1, 48, 64
3, 97440, Note_off_c, 1, 60, 64
3, 97920, Note_on_c, 1, 72, 75
3, 97920, Note_on_c, 1, 69, 74
3, 98400, Note_off_c, 1, 72, 64
3, 98400, Note_off_c, 1, 69, 64
3, 98400, Note_on_c, 1, 67, 50
3, 98400, Note_on_c, 1, 71, 52
3, 98640, Note_off_c, 1, 67, 64
3, 98640, Note_off_c, 1, 71, 64
3, 98640, Note_on_c, 1, 69, 76
3, 98640, Note_on_c, 1, 65, 73
3, 99120, Note_off_c, 1, 69, 64
3, 99120, Note_off_c, 1, 65, 64
3, 99120, Note_on_c, 1, 64, 48
3, 99120, Note_on_c, 1, 67, 49
3, 99360, Note_off_c, 1, 64, 64
3, 99360, Note_off_c, 1, 67, 64
3, 99360, Note_on_c, 1, 65, 73
3, 99600, Note_off_c, 1, 65, 64
3, 99600, Note_on_c, 1, 67, 74
3, 99840, Note_off_c, 1, 67, 64
3, 99840, Note_on_c, 1, 55, 76
3, 100080, Note_off_c, 1, 55, 64
3, 100080, Note_on_c, 1, 60, 76
3, 100320, Note_off_c, 1, 60, 64
3, 100800, Note_on_c, 1, 57, 79
3, 100800, Note_on_c, 1, 60, 74
3, 101280, Note_off_c, 1, 57, 64
3, 101280, Note_off_c, 1, 60, 64
3, 101280, Note_on_c, 1, 59, 51
3, 101280, Note_on_c, 1, 55, 51
3, 101520, Note_off_c, 1, 59, 64
3, 101520, Note_off_c, 1, 55, 64
3, 101520, Note_on_c, 1, 53, 73
3, 101520, Note_on_c, 1, 57, 76
3, 102000, Note_off_c, 1, 53, 64
3, 102000, Note_off_c, 1, 57, 64
3, 102000, Note_on_c, 1, 55, 46
3, 102000, Note_on_c, 1, 52, 54
3, 102240, Note_off_c, 1, 55, 64
3, 102240, Note_off_c, 1, 52, 64
3, 102240, Note_on_c, 1, 53, 77
3, 102480, Note_off_c, 1, 53, 64
3, 102480, Note_on_c, 1, 55, 78
3, 102720, Note_off_c, 1, 55, 64
3, 102720, Note_on_c, 1, 43, 70
3, 102960, Note_off_c, 1, 43, 64
3, 102960, Note_on_c, 1, 48, 72
3, 103200, Note_off_c, 1, 48, 64
3, 103920, Note_on_c, 1, 52, 51
3, 103920, Note_on_c, 1, 58, 46
3, 104160, Note_off_c, 1, 52, 64
3, 104160, Note_off_c, 1, 58, 64
3, 104160, Note_on_c, 1, 52, 54
3, 104160, Note_on_c, 1, 58, 47
3, 104400, Note_off_c, 1, 52, 64
3, 104400, Note_off_c, 1, 58, 64
3, 104400, Note_on_c, 1, 57, 53
3, 104400, Note_on_c, 1, 53, 52
3, 104640, Note_off_c, 1, 57, 64
3, 104640, Note_off_c, 1, 53, 64
3, 105360, Note_on_c, 1, 57, 48
3, 105360, Note_on_c, 1, 60, 49
3, 105600, Note_off_c, 1, 57, 64
3, 105600, Note_off_c, 1, 60, 64
3, 105600, Note_on_c, 1, 60, 45
3, 105600, Note_on_c, 1, 57, 48
3, 105840, Note_off_c, 1, 60, 64
3, 105840, Note_off_c, 1, 57, 64
3, 105840, Note_on_c, 1, 59, 49
3, 105840, Note_on_c, 1, 55, 45
3, 106080, Note_off_c, 1, 59, 64
3, 106080, Note_off_c, 1, 55, 64
3, 106800, Note_on_c, 1, 55, 46
3, 106800, Note_on_c, 1, 65, 48
3, 107040, Note_off_c, 1, 55, 64
3, 107040, Note_off_c, 1, 65, 64
3, 107040, Note_on_c, 1, 55, 49
3, 107040, Note_on_c, 1, 65, 46
3, 107280, Note_off_c, 1, 55, 64
3, 107280, Note_off_c, 1, 65, 64
3, 107280, Note_on_c, 1, 64, 76
3, 107280, Note_on_c, 1, 60, 76
3, 107520, Note_off_c, 1, 64, 64
3, 107520, Note_off_c, 1, 60, 64
3, 108000, Note_on_c, 1, 55, 76
3, 108000, Note_on_c, 1, 62, 70
3, 108240, Note_off_c, 1, 55, 64
3, 108240, Note_off_c, 1, 62, 64
3, 108720, Note_on_c, 1, 64, 77
3, 108720, Note_on_c, 1, 60, 70
3, 108960, Note_off_c, 1, 64, 64
3, 108960, Note_off_c, 1, 60, 64
3, 109440, Note_on_c, 1, 55, 73
3, 109440, Note_on_c, 1, 62, 76
3, 109680, Note_off_c, 1, 55, 64
3, 109680, Note_off_c, 1, 62, 64
3, 110160, Note_on_c, 1, 48, 76
3, 110280, Note_off_c, 1, 48, 64
3, 110280, Note_on_c, 1, 60, 72
3, 110400, Note_off_c, 1, 60, 64
3, 110400, Note_on_c, 1, 64, 75
3, 110520, Note_off_c, 1, 64, 64
3, 110520, Note_on_c, 1, 60, 72
3, 110640, Note_off_c, 1, 60, 64
3, 110640, Note_on_c, 1, 55, 76
3, 110760, Note_off_c, 1, 55, 64
3, 110760, Note_on_c, 1, 52, 73
3, 110880, Note_off_c, 1, 52, 64
3, 110880, Note_on_c, 1, 48, 73
3, 111120, Note_off_c, 1, 48, 64
3, 114480, Note_on_c, 1, 38, 74
3, 114600, Note_off_c, 1, 38, 64
3, 114600, Note_on_c, 1, 50, 70
3, 114720, Note_off_c, 1, 50, 64
3, 114720, Note_on_c, 1, 40, 79
3, 114840, Note_off_c, 1, 40, 64
3, 114840, Note_on_c, 1, 52, 77
3, 114960, Note_off_c, 1, 52, 64
3, 114960, Note_on_c, 1, 42, 78
3, 115080, Note_off_c, 1, 42, 64
3, 115080, Note_on_c, 1, 54, 70
3, 115200, Note_off_c, 1, 54, 64
3, 115200, Note_on_c, 1, 43, 74
3, 115320, Note_off_c, 1, 43, 64
3, 115320, Note_on_c, 1, 55, 75
3, 115440, Note_off_c, 1, 55, 64
3, 115440, Note_on_c, 1, 45, 76
3, 115560, Note_off_c, 1, 45, 64
3, 115560, Note_on_c, 1, 57, 74
3, 115680, Note_off_c, 1, 57, 64
3, 115680, Note_on_c, 1, 46, 70
3, 115800, Note_off_c, 1, 46, 64
3, 115800, Note_on_c, 1, 58, 77
3, 115920, Note_off_c, 1, 58, 64
3, 115920, Note_on_c, 1, 48, 72
3, 116040, Note_off_c, 1, 48, 64
3, 116040, Note_on_c, 1, 60, 72
3, 116160, Note_off_c, 1, 60, 64
3, 116160, Note_on_c, 1, 45, 77
3, 116280, Note_off_c, 1, 45, 64
3, 116280, Note_on_c, 1, 57, 79
3, 116400, Note_off_c, 1, 57, 64
3, 116400, Note_on_c, 1, 50, 70
3, 116520, Note_off_c, 1, 50, 64
3, 116520, Note_on_c, 1, 62, 73
3, 116640, Note_off_c, 1, 62, 64
3, 116640, Note_on_c, 1, 58, 76
3, 116640, Note_on_c, 1, 55, 74
3, 117120, Note_off_c, 1, 58, 64
3, 117120, Note_off_c, 1, 55, 64
3, 120240, Note_on_c, 1, 58, 79
3, 120240, Note_on_c, 1, 55, 75
3, 120960, Note_off_c, 1, 58, 64
3, 120960, Note_off_c, 1, 55, 64
3, 120960, Note_on_c, 1, 53, 76
3, 120960, Note_on_c, 1, 57, 78
3, 121680, Note_off_c, 1, 53, 64
3, 121680, Note_off_c, 1, 57, 64
3, 121680, Note_on_c, 1, 36, 71
3, 121800, Note_off_c, 1, 36, 64
3, 121800, Note_on_c, 1, 48, 79
3, 121920, Note_off_c, 1, 48, 64
3, 121920, Note_on_c, 1, 38, 73
3, 122040, Note_off_c, 1, 38, 64
3, 122040, Note_on_c, 1, 50, 78
3, 122160, Note_off_c, 1, 50, 64
3, 122160, Note_on_c, 1, 40, 74
3, 122280, Note_off_c, 1, 40, 64
3, 122280, Note_on_c, 1, 52, 75
3, 122400, Note_off_c, 1, 52, 64
3, 122400, Note_on_c, 1, 41, 78
3, 122520, Note_off_c, 1, 41, 64
3, 122520, Note_on_c, 1, 53, 78
3, 122640, Note_off_c, 1, 53, 64
3, 122640, Note_on_c, 1, 43, 71
3, 122760, Note_off_c, 1, 43, 64
3, 122760, Note_on_c, 1, 55, 73
3, 122880, Note_off_c, 1, 55, 64
3, 122880, Note_on_c, 1, 45, 73
3, 123000, Note_off_c, 1, 45, 64
3, 123000, Note_on_c, 1, 57, 72
3, 123120, Note_off_c, 1, 57, 64
3, 123120, Note_on_c, 1, 55, 72
3, 123120, Note_on_c, 1, 52, 71
3, 123840, Note_off_c, 1, 55, 64
3, 123840, Note_off_c, 1, 52, 64
3, 123840, Note_on_c, 1, 50, 79
3, 123840, Note_on_c, 1, 53, 74
3, 124560, Note_off_c, 1, 50, 64
3, 124560, Note_off_c, 1, 53, 64
3, 124560, Note_on_c, 1, 33, 70
3, 124680, Note_off_c, 1, 33, 64
3, 124680, Note_on_c, 1, 45, 73
3, 124800, Note_off_c, 1, 45, 64
3, 124800, Note_on_c, 1, 35, 75
3, 124920, Note_off_c, 1, 35, 64
3, 124920, Note_on_c, 1, 47, 78
3, 125040, Note_off_c, 1, 47, 64
3, 125040, Note_on_c, 1, 37, 74
3, 125160, Note_off_c, 1, 37, 64
3, 125160, Note_on_c, 1, 49, 76
3, 125280, Note_off_c, 1, 49, 64
3, 125280, Note_on_c, 1, 38, 73
3, 125400, Note_off_c, 1, 38, 64
3, 125400, Note_on_c, 1, 50, 73
3, 125520, Note_off_c, 1, 50, 64
3, 125520, Note_on_c, 1, 40, 78
3, 125640, Note_off_c, 1, 40, 64
3, 125640, Note_on_c, 1, 52, 78
3, 125760, Note_off_c, 1, 52, 64
3, 125760, Note_on_c, 1, 41, 71
3, 125880, Note_off_c, 1, 41, 64
3, 125880, Note_on_c, 1, 53, 72
3, 126000, Note_off_c, 1, 53, 64
3, 126000, Note_on_c, 1, 55, 53
3, 126240, Note_off_c, 1, 55, 64
3, 126480, Note_on_c, 1, 67, 50
3, 126480, Note_on_c, 1, 70, 45
3, 126720, Note_off_c, 1, 67, 64
3, 126720, Note_off_c, 1, 70, 64
3, 126720, Note_on_c, 1, 69, 52
3, 126720, Note_on_c, 1, 65, 52
3, 126960, Note_off_c, 1, 69, 64
3, 126960, Note_off_c, 1, 65, 64
3, 127200, Note_on_c, 1, 65, 50
3, 127200, Note_on_c, 1, 69, 49
3, 127440, Note_off_c, 1, 65, 64
3, 127440, Note_off_c, 1, 69, 64
3, 127440, Note_on_c, 1, 64, 47
3, 127440, Note_on_c, 1, 67, 51
3, 127680, Note_off_c, 1, 64, 64
3, 127680, Note_off_c, 1, 67, 64
3, 127920, Note_on_c, 1, 64, 45
3, 127920, Note_on_c, 1, 67, 54
3, 128160, Note_off_c, 1, 64, 64
3, 128160, Note_off_c, 1, 67, 64
3, 128160, Note_on_c, 1, 69, 46
3, 128160, Note_on_c, 1, 65, 49
3, 128400, Note_off_c, 1, 69, 64
3, 128400, Note_off_c, 1, 65, 64
3, 128640, Note_on_c, 1, 65, 50
3, 128640, Note_on_c, 1, 69, 54
3, 128880, Note_off_c, 1, 65, 64
3, 128880, Note_off_c, 1, 69, 64
3, 129000, Note_on_c, 1, 58, 76
3, 129120, Note_off_c, 1, 58, 64
3, 129120, Note_on_c, 1, 57, 74
3, 129240, Note_off_c, 1, 57, 64
3, 129240, Note_on_c, 1, 58, 73
3, 129360, Note_off_c, 1, 58, 64
3, 129360, Note_on_c, 1, 62, 77
3, 129480, Note_off_c, 1, 62, 64
3, 129480, Note_on_c, 1, 58, 72
3, 129600, Note_off_c, 1, 58, 64
3, 129720, Note_on_c, 1, 57, 74
3, 129840, Note_off_c, 1, 57, 64
3, 129840, Note_on_c, 1, 56, 74
3, 129960, Note_off_c, 1, 56, 64
3, 129960, Note_on_c, 1, 57, 78
3, 130080, Note_off_c, 1, 57, 64
3, 130080, Note_on_c, 1, 61, 78
3, 130200, Note_off_c, 1, 61, 64
3, 130200, Note_on_c, 1, 57, 74
3, 130320, Note_off_c, 1, 57, 64
3, 130440, Note_on_c, 1, 46, 71
3, 130560, Note_off_c, 1, 46, 64
3, 130560, Note_on_c, 1, 45, 76
3, 130680, Note_off_c, 1, 45, 64
3, 130680, Note_on_c, 1, 46, 75
3, 130800, Note_off_c, 1, 46, 64
3, 130800, Note_on_c, 1, 50, 78
3, 130920, Note_off_c, 1, 50, 64
3, 130920, Note_on_c, 1, 46, 71
3, 131040, Note_off_c, 1, 46, 64
3, 131160, Note_on_c, 1, 45, 75
3, 131280, Note_off_c, 1, 45, 64
3, 131280, Note_on_c, 1, 44, 73
3, 131400, Note_off_c, 1, 44, 64
3, 131400, Note_on_c, 1, 45, 75
3, 131520, Note_off_c, 1, 45, 64
3, 131520, Note_on_c, 1, 49, 76
3, 131640, Note_off_c, 1, 49, 64
3, 131640, Note_on_c, 1, 45, 72
3, 131760, Note_off_c, 1, 45, 64
3, 131760, Note_on_c, 1, 33, 77
3, 132000, Note_off_c, 1, 33, 64
3, 133920, Note_on_c, 1, 67, 51
3, 133920, Note_on_c, 1, 72, 51
3, 134160, Note_off_c, 1, 67, 64
3, 134160, Note_off_c, 1, 72, 64
3, 134640, Note_on_c, 1, 65, 52
3, 134640, Note_on_c, 1, 72, 51
3, 134880, Note_off_c, 1, 65, 64
3, 134880, Note_off_c, 1, 72, 64
3, 135360, Note_on_c, 1, 70, 49
3, 135360, Note_on_c, 1, 72, 47
3, 135600, Note_off_c, 1, 70, 64
3, 135600, Note_off_c, 1, 72, 64
3, 136080, Note_on_c, 1, 69, 79
3, 136800, Note_off_c, 1, 69, 64
3, 136800, Note_on_c, 1, 70, 70
3, 137040, Note_off_c, 1, 70, 64
3, 137520, Note_on_c, 1, 55, 75
3, 137760, Note_off_c, 1, 55, 64
3, 137760, Note_on_c, 1, 58, 75
3, 138000, Note_off_c, 1, 58, 64
3, 138000, Note_on_c, 1, 59, 73
3, 138240, Note_off_c, 1, 59, 64
3, 138240, Note_on_c, 1, 60, 76
3, 138480, Note_off_c, 1, 60, 64
3, 139680, Note_on_c, 1, 72, 48
3, 139680, Note_on_c, 1, 67, 54
3, 139920, Note_off_c, 1, 72, 64
3, 139920, Note_off_c, 1, 67, 64
3, 140400, Note_on_c, 1, 72, 52
3, 140640, Note_off_c, 1, 72, 64
3, 141120, Note_on_c, 1, 72, 45
3, 141120, Note_on_c, 1, 70, 52
3, 141360, Note_off_c, 1, 72, 64
3, 141360, Note_off_c, 1, 70, 64
3, 141840, Note_on_c, 1, 45, 76
3, 141840, Note_on_c, 1, 57, 73
3, 142560, Note_off_c, 1, 45, 64
3, 142560, Note_off_c, 1, 57, 64
3, 142560, Note_on_c, 1, 46, 78
3, 142560, Note_on_c, 1, 58, 72
3, 142800, Note_off_c, 1, 46, 64
3, 142800, Note_off_c, 1, 58, 64
3, 143520, Note_on_c, 1, 60, 75
3, 143760, Note_off_c, 1, 60, 64
3, 143760, Note_on_c, 1, 48, 74
3, 144000, Note_off_c, 1, 48, 64
3, 144000, Note_on_c, 1, 53, 70
3, 144240, Note_off_c, 1, 53, 64
3, 144240, Note_on_c, 1, 41, 75
3, 144480, Note_off_c, 1, 41, 64
3, 144480, Note_on_c, 1, 41, 79
3, 144720, Note_off_c, 1, 41, 64
3, 144720, Note_on_c, 1, 41, 52
3, 144960, Note_off_c, 1, 41, 64
3, 144960, Note_on_c, 1, 41, 45
3, 145200, Note_off_c, 1, 41, 64
3, 145200, Note_on_c, 1, 41, 54
3, 145440, Note_off_c, 1, 41, 64
3, 145440, Note_on_c, 1, 41, 52
3, 145680, Note_off_c, 1, 41, 64
3, 145680, Note_on_c, 1, 41, 54
3, 145920, Note_off_c, 1, 41, 64
3, 145920, Note_on_c, 1, 41, 45
3, 146160, Note_off_c, 1, 41, 64
3, 146160, Note_on_c, 1, 41, 54
3, 146400, Note_off_c, 1, 41, 64
3, 146400, Note_on_c, 1, 41, 50
3, 146640, Note_off_c, 1, 41, 64
3, 146640, Note_on_c, 1, 41, 52
3, 146880, Note_off_c, 1, 41, 64
3, 146880, Note_on_c, 1, 41, 47
3, 147120, Note_off_c, 1, 41, 64
3, 147120, Note_on_c, 1, 53, 49
3, 147360, Note_off_c, 1, 53, 64
3, 147360, Note_on_c, 1, 53, 45
3, 147600, Note_off_c, 1, 53, 64
3, 147600, Note_on_c, 1, 53, 47
3, 147840, Note_off_c, 1, 53, 64
3, 147840, Note_on_c, 1, 53, 47
3, 148080, Note_off_c, 1, 53, 64
3, 148080, Note_on_c, 1, 53, 53
3, 148320, Note_off_c, 1, 53, 64
3, 148320, Note_on_c, 1, 53, 52
3, 148560, Note_off_c, 1, 53, 64
3, 148560, Note_on_c, 1, 53, 54
3, 148800, Note_off_c, 1, 53, 64
3, 148800, Note_on_c, 1, 53, 50
3, 149040, Note_off_c, 1, 53, 64
3, 149040, Note_on_c, 1, 53, 52
3, 149280, Note_off_c, 1, 53, 64
3, 149280, Note_on_c, 1, 53, 46
3, 149520, Note_off_c, 1, 53, 64
3, 149520, Note_on_c, 1, 53, 54
3, 149760, Note_off_c, 1, 53, 64
3, 149760, Note_on_c, 1, 53, 45
3, 150000, Note_off_c, 1, 53, 64
3, 150000, Note_on_c, 1, 53, 53
3, 150240, Note_off_c, 1, 53, 64
3, 150240, Note_on_c, 1, 53, 49
3, 150480, Note_off_c, 1, 53, 64
3, 150480, Note_on_c, 1, 65, 78
3, 150720, Note_off_c, 1, 65, 64
3, 151080, Note_on_c, 1, 65, 71
3, 151200, Note_off_c, 1, 65, 64
3, 151200, Note_on_c, 1, 64, 71
3, 151440, Note_off_c, 1, 64, 64
3, 151800, Note_on_c, 1, 64, 74
3, 151920, Note_off_c, 1, 64, 64
3, 151920, Note_on_c, 1, 62, 78
3, 152160, Note_off_c, 1, 62, 64
3, 152520, Note_on_c, 1, 62, 75
3, 152640, Note_off_c, 1, 62, 64
3, 152640, Note_on_c, 1, 60, 76
3, 152880, Note_off_c, 1, 60, 64
3, 153240, Note_on_c, 1, 72, 76
3, 153360, Note_off_c, 1, 72, 64
3, 153360, Note_on_c, 1, 70, 72
3, 153600, Note_off_c, 1, 70, 64
3, 153960, Note_on_c, 1, 70, 78
3, 154080, Note_off_c, 1, 70, 64
3, 154080, Note_on_c, 1, 69, 78
3, 154320, Note_off_c, 1, 69, 64
3, 154680, Note_on_c, 1, 69, 78
3, 154800, Note_off_c, 1, 69, 64
3, 154800, Note_on_c, 1, 67, 70
3, 155040, Note_off_c, 1, 67, 64
3, 155400, Note_on_c, 1, 67, 71
3, 155520, Note_off_c, 1, 67, 64
3, 155520, Note_on_c, 1, 65, 74
3, 155760, Note_off_c, 1, 65, 64
3, 156120, Note_on_c, 1, 65, 71
3, 156240, Note_off_c, 1, 65, 64
3, 156240, Note_on_c, 1, 70, 77
3, 156720, Note_off_c, 1, 70, 64
3, 158160, Note_on_c, 1, 59, 52
3, 158400, Note_off_c, 1, 59, 64
3, 158400, Note_on_c, 1, 60, 51
3, 158640, Note_off_c, 1, 60, 64
3, 158880, Note_on_c, 1, 47, 75
3, 159120, Note_off_c, 1, 47, 64
3, 159120, Note_on_c, 1, 48, 75
3, 159360, Note_off_c, 1, 48, 64
3, 159600, Note_on_c, 1, 71, 51
3, 159840, Note_off_c, 1, 71, 64
3, 159840, Note_on_c, 1, 72, 45
3, 160080, Note_off_c, 1, 72, 64
3, 160320, Note_on_c, 1, 59, 79
3, 160560, Note_off_c, 1, 59, 64
3, 160560, Note_on_c, 1, 60, 77
3, 160800, Note_off_c, 1, 60, 64
3, 161040, Note_on_c, 1, 47, 54
3, 161280, Note_off_c, 1, 47, 64
3, 161280, Note_on_c, 1, 48, 48
3, 161520, Note_off_c, 1, 48, 64
3, 161760, Note_on_c, 1, 35, 71
3, 162000, Note_off_c, 1, 35, 64
3, 162000, Note_on_c, 1, 36, 71
3, 162240, Note_off_c, 1, 36, 64
3, 165600, Note_on_c, 1, 65, 50
3, 165720, Note_off_c, 1, 65, 64
3, 165720, Note_on_c, 1, 72, 46
3, 165840, Note_off_c, 1, 72, 64
3, 165840, Note_on_c, 1, 69, 46
3, 165960, Note_off_c, 1, 69, 64
3, 165960, Note_on_c, 1, 72, 54
3, 166080, Note_off_c, 1, 72, 64
3, 166080, Note_on_c, 1, 65, 47
3, 166200, Note_off_c, 1, 65, 64
3, 166200, Note_on_c, 1, 72, 49
3, 166320, Note_off_c, 1, 72, 64
3, 166320, Note_on_c, 1, 64, 85
3, 166440, Note_off_c, 1, 64, 64
3, 166440, Note_on_c, 1, 72, 47
3, 166560, Note_off_c, 1, 72, 64
3, 166560, Note_on_c, 1, 67, 47
3, 166680, Note_off_c, 1, 67, 64
3, 166680, Note_on_c, 1, 72, 49
3, 166800, Note_off_c, 1, 72, 64
3, 166800, Note_on_c, 1, 64, 51
3, 166920, Note_off_c, 1, 64, 64
3, 166920, Note_on_c, 1, 72, 46
3, 167040, Note_off_c, 1, 72, 64
3, 167040, Note_on_c, 1, 65, 49
3, 167160, Note_off_c, 1, 65, 64
3, 167160, Note_on_c, 1, 72, 50
3, 167280, Note_off_c, 1, 72, 64
3, 167280, Note_on_c, 1, 69, 51
3, 167400, Note_off_c, 1, 69, 64
3, 167400, Note_on_c, 1, 72, 47
3, 167520, Note_off_c, 1, 72, 64
3, 167520, Note_on_c, 1, 65, 52
3, 167640, Note_off_c, 1, 65, 64
3, 167640, Note_on_c, 1, 72, 50
3, 167760, Note_off_c, 1, 72, 64
3, 167760, Note_on_c, 1, 64, 80
3, 167880, Note_off_c, 1, 64, 64
3, 167880, Note_on_c, 1, 72, 51
3, 168000, Note_off_c, 1, 72, 64
3, 168000, Note_on_c, 1, 67, 45
3, 168120, Note_off_c, 1, 67, 64
3, 168120, Note_on_c, 1, 72, 47
3, 168240, Note_off_c, 1, 72, 64
3, 168240, Note_on_c, 1, 64, 53
3, 168360, Note_off_c, 1, 64, 64
3, 168360, Note_on_c, 1, 72, 52
3, 168480, Note_off_c, 1, 72, 64
3, 168480, Note_on_c, 1, 65, 46
3, 168600, Note_off_c, 1, 65, 64
3, 168600, Note_on_c, 1, 69, 50
3, 168720, Note_off_c, 1, 69, 64
3, 168720, Note_on_c, 1, 72, 46
3, 168840, Note_off_c, 1, 72, 64
3, 168840, Note_on_c, 1, 77, 48
3, 168960, Note_off_c, 1, 77, 64
3, 168960, Note_on_c, 1, 76, 49
3, 169080, Note_off_c, 1, 76, 64
3, 169080, Note_on_c, 1, 77, 52
3, 169200, Note_off_c, 1, 77, 64
3, 169200, Note_on_c, 1, 77, 79
3, 169200, Note_on_c, 1, 74, 70
3, 169680, Note_off_c, 1, 77, 64
3, 169680, Note_off_c, 1, 74, 64
3, 169680, Note_on_c, 1, 76, 54
3, 169680, Note_on_c, 1, 72, 47
3, 169920, Note_off_c, 1, 76, 64
3, 169920, Note_off_c, 1, 72, 64
3, 169920, Note_on_c, 1, 70, 77
3, 169920, Note_on_c, 1, 74, 75
3, 170400, Note_off_c, 1, 70, 64
3, 170400, Note_off_c, 1, 74, 64
3, 170400, Note_on_c, 1, 71, 47
3, 170640, Note_off_c, 1, 71, 64
3, 170640, Note_on_c, 1, 72, 48
3, 170880, Note_off_c, 1, 72, 64
3, 171360, Note_on_c, 1, 55, 49
3, 171720, Note_off_c, 1, 55, 64
3, 171720, Note_on_c, 1, 55, 47
3, 171840, Note_off_c, 1, 55, 64
3, 171840, Note_on_c, 1, 55, 54
3, 171960, Note_off_c, 1, 55, 64
3, 171960, Note_on_c, 1, 55, 45
3, 172020, Note_off_c, 1, 55, 64
3, 172020, Note_on_c, 1, 57, 53
3, 172080, Note_off_c, 1, 57, 64
3, 172080, Note_on_c, 1, 58, 52
3, 172440, Note_off_c, 1, 58, 64
3, 172440, Note_on_c, 1, 57, 50
3, 172560, Note_off_c, 1, 57, 64
3, 172560, Note_on_c, 1, 55, 54
3, 172800, Note_off_c, 1, 55, 64
3, 172800, Note_on_c, 1, 55, 47
3, 173160, Note_off_c, 1, 55, 64
3, 173160, Note_on_c, 1, 55, 51
3, 173280, Note_off_c, 1, 55, 64
3, 173280, Note_on_c, 1, 55, 53
3, 173400, Note_off_c, 1, 55, 64
3, 173400, Note_on_c, 1, 55, 53
3, 173460, Note_off_c, 1, 55, 64
3, 173460, Note_on_c, 1, 57, 49
3, 173520, Note_off_c, 1, 57, 64
3, 173520, Note_on_c, 1, 58, 45
3, 173880, Note_off_c, 1, 58, 64
3, 173880, Note_on_c, 1, 57, 46
3, 174000, Note_off_c, 1, 57, 64
3, 174000, Note_on_c, 1, 55, 46
3, 174240, Note_off_c, 1, 55, 64
3, 174240, Note_on_c, 1, 53, 51
3, 174480, Note_off_c, 1, 53, 64
3, 174960, Note_on_c, 1, 52, 81
3, 174960, Note_on_c, 1, 40, 81
3, 175680, Note_off_c, 1, 52, 64
3, 175680, Note_off_c, 1, 40, 64
3, 175680, Note_on_c, 1, 41, 45
3, 175680, Note_on_c, 1, 53, 48
3, 175920, Note_off_c, 1, 41, 64
3, 175920, Note_off_c, 1, 53, 64
3, 176400, Note_on_c, 1, 52, 81
3, 176400, Note_on_c, 1, 40, 88
3, 177120, Note_off_c, 1, 52, 64
3, 177120, Note_off_c, 1, 40, 64
3, 177120, Note_on_c, 1, 41, 45
3, 177120, Note_on_c, 1, 53, 54
3, 177360, Note_off_c, 1, 41, 64
3, 177360, Note_off_c, 1, 53, 64
3, 177840, Note_on_c, 1, 62, 74
3, 177840, Note_on_c, 1, 65, 75
3, 178320, Note_off_c, 1, 62, 64
3, 178320, Note_off_c, 1, 65, 64
3, 178320, Note_on_c, 1, 64, 45
3, 178320, Note_on_c, 1, 60, 53
3, 178560, Note_off_c, 1, 64, 64
3, 178560, Note_off_c, 1, 60, 64
3, 178560, Note_on_c, 1, 58, 71
3, 178560, Note_on_c, 1, 62, 71
3, 179040, Note_off_c, 1, 58, 64
3, 179040, Note_off_c, 1, 62, 64
3, 179040, Note_on_c, 1, 60, 45
3, 179040, Note_on_c, 1, 57, 49
3, 179280, Note_off_c, 1, 60, 64
3, 179280, Note_off_c, 1, 57, 64
3, 179280, Note_on_c, 1, 58, 76
3, 179520, Note_off_c, 1, 58, 64
3, 179520, Note_on_c, 1, 60, 76
3, 179760, Note_off_c, 1, 60, 64
3, 179760, Note_on_c, 1, 48, 78
3, 180000, Note_off_c, 1, 48, 64
3, 180000, Note_on_c, 1, 53, 75
3, 180240, Note_off_c, 1, 53, 64
3, 180720, Note_on_c, 1, 53, 73
3, 180720, Note_on_c, 1, 50, 78
3, 181200, Note_off_c, 1, 53, 64
3, 181200, Note_off_c, 1, 50, 64
3, 181200, Note_on_c, 1, 52, 53
3, 181200, Note_on_c, 1, 48, 48
3, 181440, Note_off_c, 1, 52, 64
3, 181440, Note_off_c, 1, 48, 64
3, 181440, Note_on_c, 1, 46, 78
3, 181440, Note_on_c, 1, 50, 77
3, 181920, Note_off_c, 1, 46, 64
3, 181920, Note_off_c, 1, 50, 64
3, 181920, Note_on_c, 1, 48, 50
3, 181920, Note_on_c, 1, 45, 46
3, 182160, Note_off_c, 1, 48, 64
3, 182160, Note_off_c, 1, 45, 64
3, 182160, Note_on_c, 1, 46, 79
3, 182400, Note_off_c, 1, 46, 64
3, 182400, Note_on_c, 1, 48, 79
3, 182640, Note_off_c, 1, 48, 64
3, 182640, Note_on_c, 1, 36, 72
3, 182880, Note_off_c, 1, 36, 64
3, 182880, Note_on_c, 1, 41, 78
3, 183120, Note_off_c, 1, 41, 64
3, 183840, Note_on_c, 1, 57, 54
3, 183840, Note_on_c, 1, 63, 46
3, 184080, Note_off_c, 1, 57, 64
3, 184080, Note_off_c, 1, 63, 64
3, 184080, Note_on_c, 1, 57, 47
3, 184080, Note_on_c, 1, 63, 50
3, 184320, Note_off_c, 1, 57, 64
3, 184320, Note_off_c, 1, 63, 64
3, 184320, Note_on_c, 1, 58, 53
3, 184320, Note_on_c, 1, 62, 54
3, 184560, Note_off_c, 1, 58, 64
3, 184560, Note_off_c, 1, 62, 64
3, 185280, Note_on_c, 1, 65, 46
3, 185280, Note_on_c, 1, 62, 46
3, 185520, Note_off_c, 1, 65, 64
3, 185520, Note_off_c, 1, 62, 64
3, 185520, Note_on_c, 1, 62, 47
3, 185520, Note_on_c, 1, 65, 48
3, 185760, Note_off_c, 1, 62, 64
3, 185760, Note_off_c, 1, 65, 64
3, 185760, Note_on_c, 1, 60, 47
3, 185760, Note_on_c, 1, 64, 50
3, 186000, Note_off_c, 1, 60, 64
3, 186000, Note_off_c, 1, 64, 64
3, 186720, Note_on_c, 1, 60, 49
3, 186720, Note_on_c, 1, 70, 46
3, 186960, Note_off_c, 1, 60, 64
3, 186960, Note_off_c, 1, 70, 64
3, 186960, Note_on_c, 1, 70, 45
3, 186960, Note_on_c, 1, 60, 46
3, 187200, Note_off_c, 1, 70, 64
3, 187200, Note_off_c, 1, 60, 64
3, 187200, Note_on_c, 1, 69, 75
3, 187200, Note_on_c, 1, 65, 74
3, 187440, Note_off_c, 1, 69, 64
3, 187440, Note_off_c, 1, 65, 64
3, 187920, Note_on_c, 1, 70, 77
3, 187920, Note_on_c, 1, 67, 77
3, 187920, Note_on_c, 1, 60, 74
3, 188160, Note_off_c, 1, 70, 64
3, 188160, Note_off_c, 1, 60, 64
3, 188160, Note_off_c, 1, 67, 64
3, 188640, Note_on_c, 1, 65, 79
3, 188640, Note_on_c, 1, 69, 73
3, 188880, Note_off_c, 1, 65, 64
3, 188880, Note_off_c, 1, 69, 64
3, 189360, Note_on_c, 1, 52, 72
3, 189360, Note_on_c, 1, 55, 73
3, 189360, Note_on_c, 1, 48, 70
3, 189600, Note_off_c, 1, 52, 64
3, 189600, Note_off_c, 1, 48, 64
3, 189600, Note_off_c, 1, 55, 64
3, 190080, Note_on_c, 1, 41, 72
3, 190200, Note_off_c, 1, 41, 64
3, 190200, Note_on_c, 1, 53, 72
3, 190320, Note_off_c, 1, 53, 64
3, 190320, Note_on_c, 1, 52, 73
3, 190440, Note_off_c, 1, 52, 64
3, 190440, Note_on_c, 1, 53, 75
3, 190560, Note_off_c, 1, 53, 64
3, 190560, Note_on_c, 1, 55, 77
3, 190680, Note_off_c, 1, 55, 64
3, 190680, Note_on_c, 1, 53, 70
3, 190800, Note_off_c, 1, 53, 64
3, 190800, Note_on_c, 1, 57, 76
3, 190920, Note_off_c, 1, 57, 64
3, 190920, Note_on_c, 1, 53, 76
3, 191040, Note_off_c, 1, 53, 64
3, 191040, Note_on_c, 1, 48, 78
3, 191160, Note_off_c, 1, 48, 64
3, 191160, Note_on_c, 1, 53, 79
3, 191280, Note_off_c, 1, 53, 64
3, 191280, Note_on_c, 1, 45, 74
3, 191400, Note_off_c, 1, 45, 64
3, 191400, Note_on_c, 1, 48, 71
3, 191520, Note_off_c, 1, 48, 64
3, 191520, Note_on_c, 1, 41, 76
3, 191760, Note_off_c, 1, 41, 64
3, 191760, Note_on_c, 1, 45, 78
3, 192000, Note_off_c, 1, 45, 64
3, 192000, Note_on_c, 1, 48, 70
3, 192240, Note_off_c, 1, 48, 64
3, 192240, Note_on_c, 1, 41, 74
3, 192480, Note_off_c, 1, 41, 64
3, 195840, Note_on_c, 1, 38, 74
3, 195960, Note_off_c, 1, 38, 64
3, 195960, Note_on_c, 1, 50, 70
3, 196080, Note_off_c, 1, 50, 64
3, 196080, Note_on_c, 1, 40, 79
3, 196200, Note_off_c, 1, 40, 64
3, 196200, Note_on_c, 1, 52, 77
3, 196320, Note_off_c, 1, 52, 64
3, 196320, Note_on_c, 1, 42, 78
3, 196440, Note_off_c, 1, 42, 64
3, 196440, Note_on_c, 1, 54, 70
3, 196560, Note_off_c, 1, 54, 64
3, 196560, Note_on_c, 1, 43, 74
3, 196680, Note_off_c, 1, 43, 64
3, 196680, Note_on_c, 1, 55, 75
3, 196800, Note_off_c, 1, 55, 64
3, 196800, Note_on_c, 1, 45, 76
3, 196920, Note_off_c, 1, 45, 64
3, 196920, Note_on_c, 1, 57, 74
3, 197040, Note_off_c, 1, 57, 64
3, 197040, Note_on_c, 1, 46, 70
3, 197160, Note_off_c, 1, 46, 64
3, 197160, Note_on_c, 1, 58, 77
3, 197280, Note_off_c, 1, 58, 64
3, 197280, Note_on_c, 1, 48, 72
3, 197400, Note_off_c, 1, 48, 64
3, 197400, Note_on_c, 1, 60, 72
3, 197520, Note_off_c, 1, 60, 64
3, 197520, Note_on_c, 1, 45, 77
3, 197640, Note_off_c, 1, 45, 64
3, 197640, Note_on_c, 1, 57, 79
3, 197760, Note_off_c, 1, 57, 64
3, 197760, Note_on_c, 1, 50, 70
3, 197880, Note_off_c, 1, 50, 64
3, 197880, Note_on_c, 1, 62, 73
3, 198000, Note_off_c, 1, 62, 64
3, 198000, Note_on_c, 1, 58, 76
3, 198000, Note_on_c, 1, 55, 74
3, 198480, Note_off_c, 1, 58, 64
3, 198480, Note_off_c, 1, 55, 64
3, 201600, Note_on_c, 1, 58, 79
3, 201600, Note_on_c, 1, 55, 75
3, 202320, Note_off_c, 1, 58, 64
3, 202320, Note_off_c, 1, 55, 64
3, 202320, Note_on_c, 1, 53, 76
3, 202320, Note_on_c, 1, 57, 78
3, 203040, Note_off_c, 1, 53, 64
3, 203040, Note_off_c, 1, 57, 64
3, 203040, Note_on_c, 1, 36, 71
3, 203160, Note_off_c, 1, 36, 64
3, 203160, Note_on_c, 1, 48, 79
3, 203280, Note_off_c, 1, 48, 64
3, 203280, Note_on_c, 1, 38, 73
3, 203400, Note_off_c, 1, 38, 64
3, 203400, Note_on_c, 1, 50, 78
3, 203520, Note_off_c, 1, 50, 64
3, 203520, Note_on_c, 1, 40, 74
3, 203640, Note_off_c, 1, 40, 64
3, 203640, Note_on_c, 1, 52, 75
3, 203760, Note_off_c, 1, 52, 64
3, 203760, Note_on_c, 1, 41, 78
3, 203880, Note_off_c, 1, 41, 64
3, 203880, Note_on_c, 1, 53, 78
3, 204000, Note_off_c, 1, 53, 64
3, 204000, Note_on_c, 1, 43, 71
3, 204120, Note_off_c, 1, 43, 64
3, 204120, Note_on_c, 1, 55, 73
3, 204240, Note_off_c, 1, 55, 64
3, 204240, Note_on_c, 1, 45, 73
3, 204360, Note_off_c, 1, 45, 64
3, 204360, Note_on_c, 1, 57, 72
3, 204480, Note_off_c, 1, 57, 64
3, 204480, Note_on_c, 1, 55, 72
3, 204480, Note_on_c, 1, 52, 71
3, 205200, Note_off_c, 1, 55, 64
3, 205200, Note_off_c, 1, 52, 64
3, 205200, Note_on_c, 1, 50, 79
3, 205200, Note_on_c, 1, 53, 74
3, 205920, Note_off_c, 1, 50, 64
3, 205920, Note_off_c, 1, 53, 64
3, 205920, Note_on_c, 1, 33, 70
3, 206040, Note_off_c, 1, 33, 64
3, 206040, Note_on_c, 1, 45, 73
3, 206160, Note_off_c, 1, 45, 64
3, 206160, Note_on_c, 1, 35, 75
3, 206280, Note_off_c, 1, 35, 64
3, 206280, Note_on_c, 1, 47, 78
3, 206400, Note_off_c, 1, 47, 64
3, 206400, Note_on_c, 1, 37, 74
3, 206520, Note_off_c, 1, 37, 64
3, 206520, Note_on_c, 1, 49, 76
3, 206640, Note_off_c, 1, 49, 64
3, 206640, Note_on_c, 1, 38, 73
3, 206760, Note_off_c, 1, 38, 64
3, 206760, Note_on_c, 1, 50, 73
3, 206880, Note_off_c, 1, 50, 64
3, 206880, Note_on_c, 1, 40, 78
3, 207000, Note_off_c, 1, 40, 64
3, 207000, Note_on_c, 1, 52, 78
3, 207120, Note_off_c, 1, 52, 64
3, 207120, Note_on_c, 1, 41, 71
3, 207240, Note_off_c, 1, 41, 64
3, 207240, Note_on_c, 1, 53, 72
3, 207360, Note_off_c, 1, 53, 64
3, 207360, Note_on_c, 1, 55, 53
3, 207600, Note_off_c, 1, 55, 64
3, 207840, Note_on_c, 1, 67, 50
3, 207840, Note_on_c, 1, 70, 45
3, 208080, Note_off_c, 1, 67, 64
3, 208080, Note_off_c, 1, 70, 64
3, 208080, Note_on_c, 1, 69, 52
3, 208080, Note_on_c, 1, 65, 52
3, 208320, Note_off_c, 1, 69, 64
3, 208320, Note_off_c, 1, 65, 64
3, 208560, Note_on_c, 1, 65, 50
3, 208560, Note_on_c, 1, 69, 49
3, 208800, Note_off_c, 1, 65, 64
3, 208800, Note_off_c, 1, 69, 64
3, 208800, Note_on_c, 1, 64, 47
3, 208800, Note_on_c, 1, 67, 51
3, 209040, Note_off_c, 1, 64, 64
3, 209040, Note_off_c, 1, 67, 64
3, 209280, Note_on_c, 1, 64, 45
3, 209280, Note_on_c, 1, 67, 54
3, 209520, Note_off_c, 1, 64, 64
3, 209520, Note_off_c, 1, 67, 64
3, 209520, Note_on_c, 1, 69, 46
3, 209520, Note_on_c, 1, 65, 49
3, 209760, Note_off_c, 1, 69, 64
3, 209760, Note_off_c, 1, 65, 64
3, 210000, Note_on_c, 1, 65, 50
3, 210000, Note_on_c, 1, 69, 54
3, 210240, Note_off_c, 1, 65, 64
3, 210240, Note_off_c, 1, 69, 64
3, 210360, Note_on_c, 1, 58, 76
3, 210480, Note_off_c, 1, 58, 64
3, 210480, Note_on_c, 1, 57, 74
3, 210600, Note_off_c, 1, 57, 64
3, 210600, Note_on_c, 1, 58, 73
3, 210720, Note_off_c, 1, 58, 64
3, 210720, Note_on_c, 1, 62, 77
3, 210840, Note_off_c, 1, 62, 64
3, 210840, Note_on_c, 1, 58, 72
3, 210960, Note_off_c, 1, 58, 64
3, 211080, Note_on_c, 1, 57, 74
3, 211200, Note_off_c, 1, 57, 64
3, 211200, Note_on_c, 1, 56, 74
3, 211320, Note_off_c, 1, 56, 64
3, 211320, Note_on_c, 1, 57, 78
3, 211440, Note_off_c, 1, 57, 64
3, 211440, Note_on_c, 1, 61, 78
3, 211560, Note_off_c, 1, 61, 64
3, 211560, Note_on_c, 1, 57, 74
3, 211680, Note_off_c, 1, 57, 64
3, 211800, Note_on_c, 1, 46, 71
3, 211920, Note_off_c, 1, 46, 64
3, 211920, Note_on_c, 1, 45, 76
3, 212040, Note_off_c, 1, 45, 64
3, 212040, Note_on_c, 1, 46, 75
3, 212160, Note_off_c, 1, 46, 64
3, 212160, Note_on_c, 1, 50, 78
3, 212280, Note_off_c, 1, 50, 64
3, 212280, Note_on_c, 1, 46, 71
3, 212400, Note_off_c, 1, 46, 64
3, 212520, Note_on_c, 1, 45, 75
3, 212640, Note_off_c, 1, 45, 64
3, 212640, Note_on_c, 1, 44, 73
3, 212760, Note_off_c, 1, 44, 64
3, 212760, Note_on_c, 1, 45, 75
3, 212880, Note_off_c, 1, 45, 64
3, 212880, Note_on_c, 1, 49, 76
3, 213000, Note_off_c, 1, 49, 64
3, 213000, Note_on_c, 1, 45, 72
3, 213120, Note_off_c, 1, 45, 64
3, 213120, Note_on_c, 1, 33, 77
3, 213360, Note_off_c, 1, 33, 64
3, 215280, Note_on_c, 1, 67, 51
3, 215280, Note_on_c, 1, 72, 51
3, 215520, Note_off_c, 1, 67, 64
3, 215520, Note_off_c, 1, 72, 64
3, 216000, Note_on_c, 1, 65, 52
3, 216000, Note_on_c, 1, 72, 51
3, 216240, Note_off_c, 1, 65, 64
3, 216240, Note_off_c, 1, 72, 64
3, 216720, Note_on_c, 1, 70, 49
3, 216720, Note_on_c, 1, 72, 47
3, 216960, Note_off_c, 1, 70, 64
3, 216960, Note_off_c, 1, 72, 64
3, 217440, Note_on_c, 1, 69, 79
3, 218160, Note_off_c, 1, 69, 64
3, 218160, Note_on_c, 1, 70, 70
3, 218400, Note_off_c, 1, 70, 64
3, 218880, Note_on_c, 1, 55, 75
3, 219120, Note_off_c, 1, 55, 64
3, 219120, Note_on_c, 1, 58, 75
3, 219360, Note_off_c, 1, 58, 64
3, 219360, Note_on_c, 1, 59, 73
3, 219600, Note_off_c, 1, 59, 64
3, 219600, Note_on_c, 1, 60, 76
3, 219840, Note_off_c, 1, 60, 64
3, 221040, Note_on_c, 1, 72, 48
3, 221040, Note_on_c, 1, 67, 54
3, 221280, Note_off_c, 1, 72, 64
3, 221280, Note_off_c, 1, 67, 64
3, 221760, Note_on_c, 1, 72, 52
3, 222000, Note_off_c, 1, 72, 64
3, 222480, Note_on_c, 1, 72, 45
3, 222480, Note_on_c, 1, 70, 52
3, 222720, Note_off_c, 1, 72, 64
3, 222720, Note_off_c, 1, 70, 64
3, 223200, Note_on_c, 1, 45, 76
3, 223200, Note_on_c, 1, 57, 73
3, 223920, Note_off_c, 1, 45, 64
3, 223920, Note_off_c, 1, 57, 64
3, 223920, Note_on_c, 1, 46, 78
3, 223920, Note_on_c, 1, 58, 72
3, 224160, Note_off_c, 1, 46, 64
3, 224160, Note_off_c, 1, 58, 64
3, 224880, Note_on_c, 1, 60, 75
3, 225120, Note_off_c, 1, 60, 64
3, 225120, Note_on_c, 1, 48, 74
3, 225360, Note_off_c, 1, 48, 64
3, 225360, Note_on_c, 1, 53, 70
3, 225600, Note_off_c, 1, 53, 64
3, 225600, Note_on_c, 1, 41, 75
3, 225840, Note_off_c, 1, 41, 64
3, 225840, Note_on_c, 1, 41, 79
3, 226080, Note_off_c, 1, 41, 64
3, 226080, Note_on_c, 1, 41, 52
3, 226320, Note_off_c, 1, 41, 64
3, 226320, Note_on_c, 1, 41, 45
3, 226560, Note_off_c, 1, 41, 64
3, 226560, Note_on_c, 1, 41, 54
3, 226800, Note_off_c, 1, 41, 64
3, 226800, Note_on_c, 1, 41, 52
3, 227040, Note_off_c, 1, 41, 64
3, 227040, Note_on_c, 1, 41, 54
3, 227280, Note_off_c, 1, 41, 64
3, 227280, Note_on_c, 1, 41, 45
3, 227520, Note_off_c, 1, 41, 64
3, 227520, Note_on_c, 1, 41, 54
3, 227760, Note_off_c, 1, 41, 64
3, 227760, Note_on_c, 1, 41, 50
3, 228000, Note_off_c, 1, 41, 64
3, 228000, Note_on_c, 1, 41, 52
3, 228240, Note_off_c, 1, 41, 64
3, 228240, Note_on_c, 1, 41, 47
3, 228480, Note_off_c, 1, 41, 64
3, 228480, Note_on_c, 1, 53, 49
3, 228720, Note_off_c, 1, 53, 64
3, 228720, Note_on_c, 1, 53, 45
3, 228960, Note_off_c, 1, 53, 64
3, 228960, Note_on_c, 1, 53, 47
3, 229200, Note_off_c, 1, 53, 64
3, 229200, Note_on_c, 1, 53, 47
3, 229440, Note_off_c, 1, 53, 64
3, 229440, Note_on_c, 1, 53, 53
3, 229680, Note_off_c, 1, 53, 64
3, 229680, Note_on_c, 1, 53, 52
3, 229920, Note_off_c, 1, 53, 64
3, 229920, Note_on_c, 1, 53, 54
3, 230160, Note_off_c, 1, 53, 64
3, 230160, Note_on_c, 1, 53, 50
3, 230400, Note_off_c, 1, 53, 64
3, 230400, Note_on_c, 1, 53, 52
3, 230640, Note_off_c, 1, 53, 64
3, 230640, Note_on_c, 1, 53, 46
3, 230880, Note_off_c, 1, 53, 64
3, 230880, Note_on_c, 1, 53, 54
3, 231120, Note_off_c, 1, 53, 64
3, 231120, Note_on_c, 1, 53, 45
3, 231360, Note_off_c, 1, 53, 64
3, 231360, Note_on_c, 1, 53, 53
3, 231600, Note_off_c, 1, 53, 64
3, 231600, Note_on_c, 1, 53, 49
3, 231840, Note_off_c, 1, 53, 64
3, 231840, Note_on_c, 1, 65, 78
3, 232080, Note_off_c, 1, 65, 64
3, 232440, Note_on_c, 1, 65, 71
3, 232560, Note_off_c, 1, 65, 64
3, 232560, Note_on_c, 1, 64, 71
3, 232800, Note_off_c, 1, 64, 64
3, 233160, Note_on_c, 1, 64, 74
3, 233280, Note_off_c, 1, 64, 64
3, 233280, Note_on_c, 1, 62, 78
3, 233520, Note_off_c, 1, 62, 64
3, 233880, Note_on_c, 1, 62, 75
3, 234000, Note_off_c, 1, 62, 64
3, 234000, Note_on_c, 1, 60, 76
3, 234240, Note_off_c, 1, 60, 64
3, 234600, Note_on_c, 1, 72, 76
3, 234720, Note_off_c, 1, 72, 64
3, 234720, Note_on_c, 1, 70, 72
3, 234960, Note_off_c, 1, 70, 64
3, 235320, Note_on_c, 1, 70, 78
3, 235440, Note_off_c, 1, 70, 64
3, 235440, Note_on_c, 1, 69, 78
3, 235680, Note_off_c, 1, 69, 64
3, 236040, Note_on_c, 1, 69, 78
3, 236160, Note_off_c, 1, 69, 64
3, 236160, Note_on_c, 1, 67, 70
3, 236400, Note_off_c, 1, 67, 64
3, 236760, Note_on_c, 1, 67, 71
3, 236880, Note_off_c, 1, 67, 64
3, 236880, Note_on_c, 1, 65, 74
3, 237120, Note_off_c, 1, 65, 64
3, 237480, Note_on_c, 1, 65, 71
3, 237600, Note_off_c, 1, 65, 64
3, 237600, Note_on_c, 1, 70, 77
3, 238080, Note_off_c, 1, 70, 64
3, 239520, Note_on_c, 1, 59, 52
3, 239760, Note_off_c, 1, 59, 64
3, 239760, Note_on_c, 1, 60, 51
3, 240000, Note_off_c, 1, 60, 64
3, 240240, Note_on_c, 1, 47, 75
3, 240480, Note_off_c, 1, 47, 64
3, 240480, Note_on_c, 1, 48, 75
3, 240720, Note_off_c, 1, 48, 64
3, 240960, Note_on_c, 1, 71, 51
3, 241200, Note_off_c, 1, 71, 64
3, 241200, Note_on_c, 1, 72, 45
3, 241440, Note_off_c, 1, 72, 64
3, 241680, Note_on_c, 1, 59, 79
3, 241920, Note_off_c, 1, 59, 64
3, 241920, Note_on_c, 1, 60, 77
3, 242160, Note_off_c, 1, 60, 64
3, 242400, Note_on_c, 1, 47, 54
3, 242640, Note_off_c, 1, 47, 64
3, 242640, Note_on_c, 1, 48, 48
3, 242880, Note_off_c, 1, 48, 64
3, 243120, Note_on_c, 1, 35, 71
3, 243360, Note_off_c, 1, 35, 64
3, 243360, Note_on_c, 1, 36, 71
3, 243600, Note_off_c, 1, 36, 64
3, 246960, Note_on_c, 1, 65, 50
3, 247080, Note_off_c, 1, 65, 64
3, 247080, Note_on_c, 1, 72, 46
3, 247200, Note_off_c, 1, 72, 64
3, 247200, Note_on_c, 1, 69, 46
3, 247320, Note_off_c, 1, 69, 64
3, 247320, Note_on_c, 1, 72, 54
3, 247440, Note_off_c, 1, 72, 64
3, 247440, Note_on_c, 1, 65, 47
3, 247560, Note_off_c, 1, 65, 64
3, 247560, Note_on_c, 1, 72, 49
3, 247680, Note_off_c, 1, 72, 64
3, 247680, Note_on_c, 1, 64, 85
3, 247800, Note_off_c, 1, 64, 64
3, 247800, Note_on_c, 1, 72, 47
3, 247920, Note_off_c, 1, 72, 64
3, 247920, Note_on_c, 1, 67, 47
3, 248040, Note_off_c, 1, 67, 64
3, 248040, Note_on_c, 1, 72, 49
3, 248160, Note_off_c, 1, 72, 64
3, 248160, Note_on_c, 1, 64, 51
3, 248280, Note_off_c, 1, 64, 64
3, 248280, Note_on_c, 1, 72, 46
3, 248400, Note_off_c, 1, 72, 64
3, 248400, Note_on_c, 1, 65, 49
3, 248520, Note_off_c, 1, 65, 64
3, 248520, Note_on_c, 1, 72, 50
3, 248640, Note_off_c, 1, 72, 64
3, 248640, Note_on_c, 1, 69, 51
3, 248760, Note_off_c, 1, 69, 64
3, 248760, Note_on_c, 1, 72, 47
3, 248880, Note_off_c, 1, 72, 64
3, 248880, Note_on_c, 1, 65, 52
3, 249000, Note_off_c, 1, 65, 64
3, 249000, Note_on_c, 1, 72, 50
3, 249120, Note_off_c, 1, 72, 64
3, 249120, Note_on_c, 1, 64, 80
3, 249240, Note_off_c, 1, 64, 64
3, 249240, Note_on_c, 1, 72, 51
3, 249360, Note_off_c, 1, 72, 64
3, 249360, Note_on_c, 1, 67, 45
3, 249480, Note_off_c, 1, 67, 64
3, 249480, Note_on_c, 1, 72, 47
3, 249600, Note_off_c, 1, 72, 64
3, 249600, Note_on_c, 1, 64, 53
3, 249720, Note_off_c, 1, 64, 64
3, 249720, Note_on_c, 1, 72, 52
3, 249840, Note_off_c, 1, 72, 64
3, 249840, Note_on_c, 1, 65, 46
3, 249960, Note_off_c, 1, 65, 64
3, 249960, Note_on_c, 1, 69, 50
3, 250080, Note_off_c, 1, 69, 64
3, 250080, Note_on_c, 1, 72, 46
3, 250200, Note_off_c, 1, 72, 64
3, 250200, Note_on_c, 1, 77, 48
3, 250320, Note_off_c, 1, 77, 64
3, 250320, Note_on_c, 1, 76, 49
3, 250440, Note_off_c, 1, 76, 64
3, 250440, Note_on_c, 1, 77, 52
3, 250560, Note_off_c, 1, 77, 64
3, 250560, Note_on_c, 1, 77, 79
3, 250560, Note_on_c, 1, 74, 70
3, 251040, Note_off_c, 1, 77, 64
3, 251040, Note_off_c, 1, 74, 64
3, 251040, Note_on_c, 1, 76, 54
3, 251040, Note_on_c, 1, 72, 47
3, 251280, Note_off_c, 1, 76, 64
3, 251280, Note_off_c, 1, 72, 64
3, 251280, Note_on_c, 1, 70, 77
3, 251280, Note_on_c, 1, 74, 75
3, 251760, Note_off_c, 1, 70, 64
3, 251760, Note_off_c, 1, 74, 64
3, 251760, Note_on_c, 1, 71, 47
3, 252000, Note_off_c, 1, 71, 64
3, 252000, Note_on_c, 1, 72, 48
3, 252240, Note_off_c, 1, 72, 64
3, 252720, Note_on_c, 1, 55, 49
3, 253080, Note_off_c, 1, 55, 64
3, 253080, Note_on_c, 1, 55, 47
3, 253200, Note_off_c, 1, 55, 64
3, 253200, Note_on_c, 1, 55, 54
3, 253320, Note_off_c, 1, 55, 64
3, 253320, Note_on_c, 1, 55, 45
3, 253380, Note_off_c, 1, 55, 64
3, 253380, Note_on_c, 1, 57, 53
3, 253440, Note_off_c, 1, 57, 64
3, 253440, Note_on_c, 1, 58, 52
3, 253800, Note_off_c, 1, 58, 64
3, 253800, Note_on_c, 1, 57, 50
3, 253920, Note_off_c, 1, 57, 64
3, 253920, Note_on_c, 1, 55, 54
3, 254160, Note_off_c, 1, 55, 64
3, 254160, Note_on_c, 1, 55, 47
3, 254520, Note_off_c, 1, 55, 64
3, 254520, Note_on_c, 1, 55, 51
3, 254640, Note_off_c, 1, 55, 64
3, 254640, Note_on_c, 1, 55, 53
3, 254760, Note_off_c, 1, 55, 64
3, 254760, Note_on_c, 1, 55, 53
3, 254820, Note_off_c, 1, 55, 64
3, 254820, Note_on_c, 1, 57, 49
3, 254880, Note_off_c, 1, 57, 64
3, 254880, Note_on_c, 1, 58, 45
3, 255240, Note_off_c, 1, 58, 64
3, 255240, Note_on_c, 1, 57, 46
3, 255360, Note_off_c, 1, 57, 64
3, 255360, Note_on_c, 1, 55, 46
3, 255600, Note_off_c, 1, 55, 64
3, 255600, Note_on_c, 1, 53, 51
3, 255840, Note_off_c, 1, 53, 64
3, 256320, Note_on_c, 1, 52, 81
3, 256320, Note_on_c, 1, 40, 81
3, 257040, Note_off_c, 1, 52, 64
3, 257040, Note_off_c, 1, 40, 64
3, 257040, Note_on_c, 1, 41, 45
3, 257040, Note_on_c, 1, 53, 48
3, 257280, Note_off_c, 1, 41, 64
3, 257280, Note_off_c, 1, 53, 64
3, 257760, Note_on_c, 1, 52, 81
3, 257760, Note_on_c, 1, 40, 88
3, 258480, Note_off_c, 1, 52, 64
3, 258480, Note_off_c, 1, 40, 64
3, 258480, Note_on_c, 1, 41, 45
3, 258480, Note_on_c, 1, 53, 54
3, 258720, Note_off_c, 1, 41, 64
3, 258720, Note_off_c, 1, 53, 64
3, 259200, Note_on_c, 1, 62, 74
3, 259200, Note_on_c, 1, 65, 75
3, 259680, Note_off_c, 1, 62, 64
3, 259680, Note_off_c, 1, 65, 64
3, 259680, Note_on_c, 1, 64, 45
3, 259680, Note_on_c, 1, 60, 53
3, 259920, Note_off_c, 1, 64, 64
3, 259920, Note_off_c, 1, 60, 64
3, 259920, Note_on_c, 1, 58, 71
3, 259920, Note_on_c, 1, 62, 71
3, 260400, Note_off_c, 1, 58, 64
3, 260400, Note_off_c, 1, 62, 64
3, 260400, Note_on_c, 1, 60, 45
3, 260400, Note_on_c, 1, 57, 49
3, 260640, Note_off_c, 1, 60, 64
3, 260640, Note_off_c, 1, 57, 64
3, 260640, Note_on_c, 1, 58, 76
3, 260880, Note_off_c, 1, 58, 64
3, 260880, Note_on_c, 1, 60, 76
3, 261120, Note_off_c, 1, 60, 64
3, 261120, Note_on_c, 1, 48, 78
3, 261360, Note_off_c, 1, 48, 64
3, 261360, Note_on_c, 1, 53, 75
3, 261600, Note_off_c, 1, 53, 64
3, 262080, Note_on_c, 1, 53, 73
3, 262080, Note_on_c, 1, 50, 78
3, 262560, Note_off_c, 1, 53, 64
3, 262560, Note_off_c, 1, 50, 64
3, 262560, Note_on_c, 1, 52, 53
3, 262560, Note_on_c, 1, 48, 48
3, 262800, Note_off_c, 1, 52, 64
3, 262800, Note_off_c, 1, 48, 64
3, 262800, Note_on_c, 1, 46, 78
3, 262800, Note_on_c, 1, 50, 77
3, 263280, Note_off_c, 1, 46, 64
3, 263280, Note_off_c, 1, 50, 64
3, 263280, Note_on_c, 1, 48, 50
3, 263280, Note_on_c, 1, 45, 46
3, 263520, Note_off_c, 1, 48, 64
3, 263520, Note_off_c, 1, 45, 64
3, 263520, Note_on_c, 1, 46, 79
3, 263760, Note_off_c, 1, 46, 64
3, 263760, Note_on_c, 1, 48, 79
3, 264000, Note_off_c, 1, 48, 64
3, 264000, Note_on_c, 1, 36, 72
3, 264240, Note_off_c, 1, 36, 64
3, 264240, Note_on_c, 1, 41, 78
3, 264480, Note_off_c, 1, 41, 64
3, 265200, Note_on_c, 1, 57, 54
3, 265200, Note_on_c, 1, 63, 46
3, 265440, Note_off_c, 1, 57, 64
3, 265440, Note_off_c, 1, 63, 64
3, 265440, Note_on_c, 1, 57, 47
3, 265440, Note_on_c, 1, 63, 50
3, 265680, Note_off_c, 1, 57, 64
3, 265680, Note_off_c, 1, 63, 64
3, 265680, Note_on_c, 1, 58, 53
3, 265680, Note_on_c, 1, 62, 54
3, 265920, Note_off_c, 1, 58, 64
3, 265920, Note_off_c, 1, 62, 64
3, 266640, Note_on_c, 1, 65, 46
3, 266640, Note_on_c, 1, 62, 46
3, 266880, Note_off_c, 1, 65, 64
3, 266880, Note_off_c, 1, 62, 64
3, 266880, Note_on_c, 1, 62, 47
3, 266880, Note_on_c, 1, 65, 48
3, 267120, Note_off_c, 1, 62, 64
3, 267120, Note_off_c, 1, 65, 64
3, 267120, Note_on_c, 1, 60, 47
3, 267120, Note_on_c, 1, 64, 50
3, 267360, Note_off_c, 1, 60, 64
3, 267360, Note_off_c, 1, 64, 64
3, 268080, Note_on_c, 1, 60, 49
3, 268080, Note_on_c, 1, 70, 46
3, 268320, Note_off_c, 1, 60, 64
3, 268320, Note_off_c, 1, 70, 64
3, 268320, Note_on_c, 1, 70, 45
3, 268320, Note_on_c, 1, 60, 46
3, 268560, Note_off_c, 1, 70, 64
3, 268560, Note_off_c, 1, 60, 64
3, 268560, Note_on_c, 1, 69, 75
3, 268560, Note_on_c, 1, 65, 74
3, 268800, Note_off_c, 1, 69, 64
3, 268800, Note_off_c, 1, 65, 64
3, 269280, Note_on_c, 1, 70, 77
3, 269280, Note_on_c, 1, 67, 77
3, 269280, Note_on_c, 1, 60, 74
3, 269520, Note_off_c, 1, 70, 64
3, 269520, Note_off_c, 1, 60, 64
3, 269520, Note_off_c, 1, 67, 64
3, 270000, Note_on_c, 1, 65, 79
3, 270000, Note_on_c, 1, 69, 73
3, 270240, Note_off_c, 1, 65, 64
3, 270240, Note_off_c, 1, 69, 64
3, 270720, Note_on_c, 1, 52, 72
3, 270720, Note_on_c, 1, 55, 73
3, 270720, Note_on_c, 1, 48, 70
3, 270960, Note_off_c, 1, 52, 64
3, 270960, Note_off_c, 1, 48, 64
3, 270960, Note_off_c, 1, 55, 64
3, 271440, Note_on_c, 1, 41, 72
3, 271560, Note_off_c, 1, 41, 64
3, 271560, Note_on_c, 1, 53, 72
3, 271680, Note_off_c, 1, 53, 64
3, 271680, Note_on_c, 1, 52, 73
3, 271800, Note_off_c, 1, 52, 64
3, 271800, Note_on_c, 1, 53, 75
3, 271920, Note_off_c, 1, 53, 64
3, 271920, Note_on_c, 1, 55, 77
3, 272040, Note_off_c, 1, 55, 64
3, 272040, Note_on_c, 1, 53, 70
3, 272160, Note_off_c, 1, 53, 64
3, 272160, Note_on_c, 1, 57, 76
3, 272280, Note_off_c, 1, 57, 64
3, 272280, Note_on_c, 1, 53, 76
3, 272400, Note_off_c, 1, 53, 64
3, 272400, Note_on_c, 1, 48, 78
3, 272520, Note_off_c, 1, 48, 64
3, 272520, Note_on_c, 1, 53, 79
3, 272640, Note_off_c, 1, 53, 64
3, 272640, Note_on_c, 1, 45, 74
3, 272760, Note_off_c, 1, 45, 64
3, 272760, Note_on_c, 1, 48, 71
3, 272880, Note_off_c, 1, 48, 64
3, 272880, Note_on_c, 1, 41, 76
3, 273120, Note_off_c, 1, 41, 64
3, 273120, Note_on_c, 1, 45, 78
3, 273360, Note_off_c, 1, 45, 64
3, 273360, Note_on_c, 1, 48, 70
3, 273600, Note_off_c, 1, 48, 64
3, 273600, Note_on_c, 1, 41, 74
3, 273840, Note_off_c, 1, 41, 64
3, 273840, End_track
4, 0, Start_track
4, 0, Text_t, "Wolfgang Amadeus Mozart"
4, 0, Channel_prefix, 2
4, 0, End_track
5, 0, Start_track
5, 0, Text_t, "Piano Sonata No. 2 in F Major"
5, 0, Channel_prefix, 3
5, 0, End_track
6, 0, Start_track
6, 0, Text_t, "Mvt 3: Presto"
6, 0, Channel_prefix, 4
6, 0, End_track
7, 0, Start_track
7, 0, Text_t, "Sequenced: Chuck Latshaw"
7, 0, Channel_prefix, 5
7, 0, End_track
8, 0, Start_track
8, 0, Text_t, "Track-7"
8, 0, Channel_prefix, 6
8, 0, End_track
9, 0, Start_track
9, 0, Text_t, "Track-8"
9, 0, Channel_prefix, 7
9, 0, End_track
0, 0, End_of_file
