0, 0, Header, 1, 9, 480
1, 0, Start_track
1, 0, Text_t, "Seq-1"
1, 0, SMPTE_offset, 96, 0, 0, 0, 0
1, 0, Time_signature, 6, 3, 36, 8
1, 0, Key_signature, -4, "minor"
1, 0, Tempo, 666666
1, 0, End_track
2, 0, Start_track
2, 0, Text_t, "Right Hand"
2, 0, Program_c, 0, 0
2, 0, Note_on_c, 0, 72, 72
2, 60, Note_off_c, 0, 72, 64
2, 60, Note_on_c, 0, 73, 70
2, 120, Note_off_c, 0, 73, 64
2, 120, Note_on_c, 0, 72, 70
2, 180, Note_off_c, 0, 72, 64
2, 180, Note_on_c, 0, 73, 73
2, 240, Note_off_c, 0, 73, 64
2, 240, Note_on_c, 0, 72, 76
2, 300, Note_off_c, 0, 72, 64
2, 300, Note_on_c, 0, 73, 79
2, 360, Note_off_c, 0, 73, 64
2, 360, Note_on_c, 0, 73, 77
2, 480, Note_off_c, 0, 73, 64
2, 480, Note_on_c, 0, 72, 75
2, 720, Note_off_c, 0, 72, 64
2, 720, Note_on_c, 0, 72, 74
2, 1200, Note_off_c, 0, 72, 64
2, 1200, Note_on_c, 0, 77, 72
2, 1440, Note_off_c, 0, 77, 64
2, 1440, Note_on_c, 0, 77, 77
2, 1440, Note_on_c, 0, 67, 79
2, 1800, Note_off_c, 0, 67, 64
2, 1800, Note_on_c, 0, 68, 74
2, 1920, Note_off_c, 0, 68, 64
2, 1920, Note_on_c, 0, 67, 73
2, 2160, Note_off_c, 0, 67, 64
2, 2160, Note_on_c, 0, 67, 73
2, 2400, Note_off_c, 0, 77, 64
2, 2400, Note_off_c, 0, 67, 64
2, 2400, Note_on_c, 0, 75, 73
2, 2640, Note_off_c, 0, 75, 64
2, 2640, Note_on_c, 0, 73, 77
2, 2880, Note_off_c, 0, 73, 64
2, 2880, Note_on_c, 0, 72, 52
2, 2880, Note_on_c, 0, 67, 47
2, 2880, Note_on_c, 0, 64, 54
2, 3840, Note_off_c, 0, 67, 64
2, 3840, Note_off_c, 0, 64, 64
2, 3840, Note_on_c, 0, 68, 51
2, 3840, Note_on_c, 0, 65, 53
2, 4080, Note_off_c, 0, 68, 64
2, 4080, Note_off_c, 0, 65, 64
2, 4080, Note_on_c, 0, 70, 48
2, 4080, Note_on_c, 0, 67, 48
2, 4320, Note_off_c, 0, 72, 64
2, 4320, Note_off_c, 0, 67, 64
2, 4320, Note_off_c, 0, 70, 64
2, 4320, Note_on_c, 0, 67, 72
2, 4320, Note_on_c, 0, 70, 76
2, 4680, Note_off_c, 0, 67, 64
2, 4680, Note_off_c, 0, 70, 64
2, 4680, Note_on_c, 0, 65, 71
2, 4680, Note_on_c, 0, 68, 73
2, 4800, Note_off_c, 0, 65, 64
2, 4800, Note_off_c, 0, 68, 64
2, 4800, Note_on_c, 0, 64, 72
2, 4800, Note_on_c, 0, 67, 76
2, 5040, Note_off_c, 0, 64, 64
2, 5040, Note_off_c, 0, 67, 64
2, 5040, Note_on_c, 0, 65, 79
2, 5040, Note_on_c, 0, 68, 78
2, 6120, Note_off_c, 0, 65, 64
2, 6120, Note_off_c, 0, 68, 64
2, 6120, Note_on_c, 0, 67, 54
2, 6120, Note_on_c, 0, 70, 52
2, 6240, Note_off_c, 0, 67, 64
2, 6240, Note_off_c, 0, 70, 64
2, 6240, Note_on_c, 0, 65, 50
2, 6240, Note_on_c, 0, 68, 53
2, 6480, Note_off_c, 0, 65, 64
2, 6480, Note_off_c, 0, 68, 64
2, 6480, Note_on_c, 0, 64, 45
2, 6480, Note_on_c, 0, 67, 53
2, 6720, Note_off_c, 0, 64, 64
2, 6720, Note_off_c, 0, 67, 64
2, 6720, Note_on_c, 0, 65, 46
2, 6720, Note_on_c, 0, 68, 49
2, 6960, Note_off_c, 0, 65, 64
2, 6960, Note_off_c, 0, 68, 64
2, 6960, Note_on_c, 0, 67, 50
2, 6960, Note_on_c, 0, 70, 45
2, 7200, Note_off_c, 0, 67, 64
2, 7200, Note_off_c, 0, 70, 64
2, 7200, Note_on_c, 0, 67, 75
2, 7200, Note_on_c, 0, 70, 77
2, 7560, Note_off_c, 0, 67, 64
2, 7560, Note_off_c, 0, 70, 64
2, 7560, Note_on_c, 0, 65, 74
2, 7560, Note_on_c, 0, 68, 70
2, 7680, Note_off_c, 0, 65, 64
2, 7680, Note_off_c, 0, 68, 64
2, 7680, Note_on_c, 0, 64, 77
2, 7680, Note_on_c, 0, 67, 72
2, 7920, Note_off_c, 0, 64, 64
2, 7920, Note_off_c, 0, 67, 64
2, 7920, Note_on_c, 0, 65, 70
2, 7920, Note_on_c, 0, 68, 74
2, 9000, Note_off_c, 0, 65, 64
2, 9000, Note_off_c, 0, 68, 64
2, 9000, Note_on_c, 0, 64, 54
2, 9000, Note_on_c, 0, 67, 48
2, 9120, Note_off_c, 0, 64, 64
2, 9120, Note_off_c, 0, 67, 64
2, 9120, Note_on_c, 0, 65, 49
2, 9120, Note_on_c, 0, 68, 52
2, 9360, Note_off_c, 0, 65, 64
2, 9360, Note_off_c, 0, 68, 64
2, 9360, Note_on_c, 0, 67, 47
2, 9360, Note_on_c, 0, 70, 45
2, 9600, Note_off_c, 0, 67, 64
2, 9600, Note_off_c, 0, 70, 64
2, 9600, Note_on_c, 0, 65, 46
2, 9600, Note_on_c, 0, 68, 54
2, 9840, Note_off_c, 0, 65, 64
2, 9840, Note_off_c, 0, 68, 64
2, 9840, Note_on_c, 0, 64, 46
2, 9840, Note_on_c, 0, 67, 47
2, 10080, Note_off_c, 0, 64, 64
2, 10080, Note_off_c, 0, 67, 64
2, 10080, Note_on_c, 0, 64, 78
2, 10080, Note_on_c, 0, 67, 75
2, 10800, Note_off_c, 0, 64, 64
2, 10800, Note_off_c, 0, 67, 64
2, 10800, Note_on_c, 0, 65, 77
2, 11040, Note_off_c, 0, 65, 64
2, 11520, Note_on_c, 0, 68, 48
2, 11760, Note_off_c, 0, 68, 64
2, 12000, Note_on_c, 0, 68, 51
2, 12240, Note_off_c, 0, 68, 64
2, 12240, Note_on_c, 0, 70, 47
2, 12480, Note_off_c, 0, 70, 64
2, 12720, Note_on_c, 0, 70, 54
2, 12960, Note_off_c, 0, 70, 64
2, 12960, Note_on_c, 0, 70, 72
2, 13680, Note_off_c, 0, 70, 64
2, 13680, Note_on_c, 0, 72, 76
2, 13920, Note_off_c, 0, 72, 64
2, 14160, Note_on_c, 0, 68, 75
2, 14400, Note_off_c, 0, 68, 64
2, 14400, Note_on_c, 0, 73, 77
2, 14640, Note_off_c, 0, 73, 64
2, 14880, Note_on_c, 0, 72, 76
2, 15120, Note_off_c, 0, 72, 64
2, 15120, Note_on_c, 0, 77, 79
2, 15360, Note_off_c, 0, 77, 64
2, 15600, Note_on_c, 0, 65, 47
2, 15840, Note_off_c, 0, 65, 64
2, 15840, Note_on_c, 0, 68, 49
2, 16560, Note_off_c, 0, 68, 64
2, 16560, Note_on_c, 0, 67, 53
2, 16800, Note_off_c, 0, 67, 64
2, 17040, Note_on_c, 0, 75, 52
2, 17280, Note_off_c, 0, 75, 64
2, 17280, Note_on_c, 0, 74, 71
2, 18000, Note_off_c, 0, 74, 64
2, 18000, Note_on_c, 0, 80, 79
2, 18240, Note_off_c, 0, 80, 64
2, 18720, Note_on_c, 0, 79, 52
2, 19440, Note_off_c, 0, 79, 64
2, 19440, Note_on_c, 0, 82, 51
2, 19680, Note_off_c, 0, 82, 64
2, 20160, Note_on_c, 0, 83, 77
2, 20880, Note_off_c, 0, 83, 64
2, 20880, Note_on_c, 0, 80, 77
2, 21120, Note_off_c, 0, 80, 64
2, 21600, Note_on_c, 0, 87, 51
2, 22320, Note_off_c, 0, 87, 64
2, 22320, Note_on_c, 0, 79, 45
2, 22560, Note_off_c, 0, 79, 64
2, 23280, Note_on_c, 0, 80, 47
2, 23520, Note_off_c, 0, 80, 64
2, 23520, Note_on_c, 0, 80, 45
2, 23760, Note_off_c, 0, 80, 64
2, 24000, Note_on_c, 0, 77, 48
2, 24240, Note_off_c, 0, 77, 64
2, 24240, Note_on_c, 0, 77, 45
2, 24480, Note_off_c, 0, 77, 64
2, 24720, Note_on_c, 0, 75, 48
2, 24960, Note_off_c, 0, 75, 64
2, 24960, Note_on_c, 0, 75, 51
2, 25200, Note_off_c, 0, 75, 64
2, 25440, Note_on_c, 0, 79, 49
2, 25680, Note_off_c, 0, 79, 64
2, 25680, Note_on_c, 0, 79, 53
2, 25920, Note_off_c, 0, 79, 64
2, 25920, Note_on_c, 0, 80, 79
2, 26400, Note_off_c, 0, 80, 64
2, 26400, Note_on_c, 0, 84, 78
2, 26520, Note_off_c, 0, 84, 64
2, 26520, Note_on_c, 0, 80, 78
2, 26640, Note_off_c, 0, 80, 64
2, 26640, Note_on_c, 0, 79, 74
2, 26760, Note_off_c, 0, 79, 64
2, 26760, Note_on_c, 0, 77, 76
2, 27000, Note_off_c, 0, 77, 64
2, 27000, Note_on_c, 0, 80, 71
2, 27120, Note_off_c, 0, 80, 64
2, 27120, Note_on_c, 0, 79, 70
2, 27240, Note_off_c, 0, 79, 64
2, 27240, Note_on_c, 0, 77, 73
2, 27360, Note_off_c, 0, 77, 64
2, 27360, Note_on_c, 0, 77, 78
2, 27480, Note_off_c, 0, 77, 64
2, 27480, Note_on_c, 0, 75, 75
2, 27720, Note_off_c, 0, 75, 64
2, 27720, Note_on_c, 0, 77, 71
2, 27780, Note_off_c, 0, 77, 64
2, 27780, Note_on_c, 0, 75, 79
2, 27840, Note_off_c, 0, 75, 64
2, 27840, Note_on_c, 0, 73, 73
2, 27900, Note_off_c, 0, 73, 64
2, 27900, Note_on_c, 0, 72, 73
2, 27960, Note_off_c, 0, 72, 64
2, 27960, Note_on_c, 0, 70, 77
2, 28020, Note_off_c, 0, 70, 64
2, 28020, Note_on_c, 0, 68, 79
2, 28080, Note_off_c, 0, 68, 64
2, 28080, Note_on_c, 0, 70, 79
2, 28140, Note_off_c, 0, 70, 64
2, 28140, Note_on_c, 0, 72, 79
2, 28200, Note_off_c, 0, 72, 64
2, 28200, Note_on_c, 0, 70, 74
2, 28260, Note_off_c, 0, 70, 64
2, 28260, Note_on_c, 0, 72, 77
2, 28320, Note_off_c, 0, 72, 64
2, 28320, Note_on_c, 0, 70, 75
2, 28380, Note_off_c, 0, 70, 64
2, 28380, Note_on_c, 0, 72, 74
2, 28440, Note_off_c, 0, 72, 64
2, 28440, Note_on_c, 0, 70, 72
2, 28500, Note_off_c, 0, 70, 64
2, 28500, Note_on_c, 0, 72, 77
2, 28560, Note_off_c, 0, 72, 64
2, 28560, Note_on_c, 0, 70, 71
2, 28620, Note_off_c, 0, 70, 64
2, 28620, Note_on_c, 0, 72, 75
2, 28680, Note_off_c, 0, 72, 64
2, 28680, Note_on_c, 0, 68, 79
2, 28740, Note_off_c, 0, 68, 64
2, 28740, Note_on_c, 0, 70, 73
2, 28800, Note_off_c, 0, 70, 64
2, 28800, Note_on_c, 0, 68, 73
2, 29040, Note_off_c, 0, 68, 64
2, 29280, Note_on_c, 0, 72, 51
2, 29280, Note_on_c, 0, 70, 52
2, 29280, Note_on_c, 0, 67, 48
2, 29520, Note_off_c, 0, 72, 64
2, 29520, Note_off_c, 0, 67, 64
2, 29520, Note_off_c, 0, 70, 64
2, 29520, Note_on_c, 0, 72, 45
2, 29520, Note_on_c, 0, 68, 53
2, 29520, Note_on_c, 0, 65, 51
2, 29760, Note_off_c, 0, 72, 64
2, 29760, Note_off_c, 0, 65, 64
2, 29760, Note_off_c, 0, 68, 64
2, 30000, Note_on_c, 0, 73, 71
2, 30000, Note_on_c, 0, 70, 78
2, 30000, Note_on_c, 0, 65, 72
2, 30240, Note_off_c, 0, 73, 64
2, 30240, Note_off_c, 0, 65, 64
2, 30240, Note_off_c, 0, 70, 64
2, 30240, Note_on_c, 0, 72, 76
2, 30240, Note_on_c, 0, 68, 79
2, 30240, Note_on_c, 0, 63, 70
2, 30600, Note_off_c, 0, 72, 64
2, 30600, Note_off_c, 0, 68, 64
2, 30600, Note_on_c, 0, 73, 71
2, 30600, Note_on_c, 0, 70, 71
2, 30720, Note_off_c, 0, 63, 64
2, 30720, Note_off_c, 0, 70, 64
2, 30720, Note_off_c, 0, 73, 64
2, 30720, Note_on_c, 0, 70, 73
2, 30720, Note_on_c, 0, 67, 71
2, 30720, Note_on_c, 0, 61, 77
2, 30960, Note_off_c, 0, 70, 64
2, 30960, Note_off_c, 0, 61, 64
2, 30960, Note_off_c, 0, 67, 64
2, 30960, Note_on_c, 0, 68, 74
2, 30960, Note_on_c, 0, 63, 70
2, 30960, Note_on_c, 0, 60, 74
2, 31200, Note_off_c, 0, 68, 64
2, 31200, Note_off_c, 0, 60, 64
2, 31200, Note_off_c, 0, 63, 64
2, 31440, Note_on_c, 0, 60, 50
2, 31440, Note_on_c, 0, 58, 49
2, 31440, Note_on_c, 0, 55, 45
2, 31680, Note_off_c, 0, 60, 64
2, 31680, Note_off_c, 0, 55, 64
2, 31680, Note_off_c, 0, 58, 64
2, 31680, Note_on_c, 0, 60, 50
2, 31680, Note_on_c, 0, 56, 50
2, 31680, Note_on_c, 0, 53, 48
2, 31920, Note_off_c, 0, 60, 64
2, 31920, Note_off_c, 0, 53, 64
2, 31920, Note_off_c, 0, 56, 64
2, 32160, Note_on_c, 0, 61, 73
2, 32160, Note_on_c, 0, 58, 71
2, 32160, Note_on_c, 0, 53, 73
2, 32400, Note_off_c, 0, 61, 64
2, 32400, Note_off_c, 0, 53, 64
2, 32400, Note_off_c, 0, 58, 64
2, 32400, Note_on_c, 0, 60, 74
2, 32400, Note_on_c, 0, 56, 75
2, 32760, Note_off_c, 0, 60, 64
2, 32760, Note_off_c, 0, 56, 64
2, 32760, Note_on_c, 0, 61, 78
2, 32760, Note_on_c, 0, 58, 73
2, 32880, Note_off_c, 0, 61, 64
2, 32880, Note_off_c, 0, 58, 64
2, 32880, Note_on_c, 0, 58, 76
2, 32880, Note_on_c, 0, 55, 75
2, 33120, Note_off_c, 0, 58, 64
2, 33120, Note_off_c, 0, 55, 64
2, 33120, Note_on_c, 0, 58, 77
2, 33120, Note_on_c, 0, 55, 71
2, 33120, Note_on_c, 0, 49, 77
2, 33840, Note_off_c, 0, 58, 64
2, 33840, Note_off_c, 0, 49, 64
2, 33840, Note_off_c, 0, 55, 64
2, 33840, Note_on_c, 0, 56, 75
2, 33840, Note_on_c, 0, 48, 74
2, 34080, Note_off_c, 0, 56, 64
2, 34080, Note_off_c, 0, 48, 64
2, 34560, Note_on_c, 0, 72, 72
2, 34620, Note_off_c, 0, 72, 64
2, 34620, Note_on_c, 0, 73, 70
2, 34680, Note_off_c, 0, 73, 64
2, 34680, Note_on_c, 0, 72, 70
2, 34740, Note_off_c, 0, 72, 64
2, 34740, Note_on_c, 0, 73, 73
2, 34800, Note_off_c, 0, 73, 64
2, 34800, Note_on_c, 0, 72, 76
2, 34860, Note_off_c, 0, 72, 64
2, 34860, Note_on_c, 0, 73, 79
2, 34920, Note_off_c, 0, 73, 64
2, 34920, Note_on_c, 0, 73, 77
2, 35040, Note_off_c, 0, 73, 64
2, 35040, Note_on_c, 0, 72, 75
2, 35280, Note_off_c, 0, 72, 64
2, 35280, Note_on_c, 0, 72, 74
2, 35760, Note_off_c, 0, 72, 64
2, 35760, Note_on_c, 0, 77, 72
2, 36000, Note_off_c, 0, 77, 64
2, 36000, Note_on_c, 0, 77, 77
2, 36000, Note_on_c, 0, 67, 79
2, 36360, Note_off_c, 0, 67, 64
2, 36360, Note_on_c, 0, 68, 74
2, 36480, Note_off_c, 0, 68, 64
2, 36480, Note_on_c, 0, 67, 73
2, 36720, Note_off_c, 0, 67, 64
2, 36720, Note_on_c, 0, 67, 73
2, 36960, Note_off_c, 0, 77, 64
2, 36960, Note_off_c, 0, 67, 64
2, 36960, Note_on_c, 0, 75, 73
2, 37200, Note_off_c, 0, 75, 64
2, 37200, Note_on_c, 0, 73, 77
2, 37440, Note_off_c, 0, 73, 64
2, 37440, Note_on_c, 0, 72, 52
2, 37440, Note_on_c, 0, 67, 47
2, 37440, Note_on_c, 0, 64, 54
2, 38400, Note_off_c, 0, 67, 64
2, 38400, Note_off_c, 0, 64, 64
2, 38400, Note_on_c, 0, 68, 51
2, 38400, Note_on_c, 0, 65, 53
2, 38640, Note_off_c, 0, 68, 64
2, 38640, Note_off_c, 0, 65, 64
2, 38640, Note_on_c, 0, 70, 48
2, 38640, Note_on_c, 0, 67, 48
2, 38880, Note_off_c, 0, 72, 64
2, 38880, Note_off_c, 0, 67, 64
2, 38880, Note_off_c, 0, 70, 64
2, 38880, Note_on_c, 0, 67, 72
2, 38880, Note_on_c, 0, 70, 76
2, 39240, Note_off_c, 0, 67, 64
2, 39240, Note_off_c, 0, 70, 64
2, 39240, Note_on_c, 0, 65, 71
2, 39240, Note_on_c, 0, 68, 73
2, 39360, Note_off_c, 0, 65, 64
2, 39360, Note_off_c, 0, 68, 64
2, 39360, Note_on_c, 0, 64, 72
2, 39360, Note_on_c, 0, 67, 76
2, 39600, Note_off_c, 0, 64, 64
2, 39600, Note_off_c, 0, 67, 64
2, 39600, Note_on_c, 0, 65, 79
2, 39600, Note_on_c, 0, 68, 78
2, 40680, Note_off_c, 0, 65, 64
2, 40680, Note_off_c, 0, 68, 64
2, 40680, Note_on_c, 0, 67, 54
2, 40680, Note_on_c, 0, 70, 52
2, 40800, Note_off_c, 0, 67, 64
2, 40800, Note_off_c, 0, 70, 64
2, 40800, Note_on_c, 0, 65, 50
2, 40800, Note_on_c, 0, 68, 53
2, 41040, Note_off_c, 0, 65, 64
2, 41040, Note_off_c, 0, 68, 64
2, 41040, Note_on_c, 0, 64, 45
2, 41040, Note_on_c, 0, 67, 53
2, 41280, Note_off_c, 0, 64, 64
2, 41280, Note_off_c, 0, 67, 64
2, 41280, Note_on_c, 0, 65, 46
2, 41280, Note_on_c, 0, 68, 49
2, 41520, Note_off_c, 0, 65, 64
2, 41520, Note_off_c, 0, 68, 64
2, 41520, Note_on_c, 0, 67, 50
2, 41520, Note_on_c, 0, 70, 45
2, 41760, Note_off_c, 0, 67, 64
2, 41760, Note_off_c, 0, 70, 64
2, 41760, Note_on_c, 0, 67, 75
2, 41760, Note_on_c, 0, 70, 77
2, 42120, Note_off_c, 0, 67, 64
2, 42120, Note_off_c, 0, 70, 64
2, 42120, Note_on_c, 0, 65, 74
2, 42120, Note_on_c, 0, 68, 70
2, 42240, Note_off_c, 0, 65, 64
2, 42240, Note_off_c, 0, 68, 64
2, 42240, Note_on_c, 0, 64, 77
2, 42240, Note_on_c, 0, 67, 72
2, 42480, Note_off_c, 0, 64, 64
2, 42480, Note_off_c, 0, 67, 64
2, 42480, Note_on_c, 0, 65, 70
2, 42480, Note_on_c, 0, 68, 74
2, 43560, Note_off_c, 0, 65, 64
2, 43560, Note_off_c, 0, 68, 64
2, 43560, Note_on_c, 0, 64, 54
2, 43560, Note_on_c, 0, 67, 48
2, 43680, Note_off_c, 0, 64, 64
2, 43680, Note_off_c, 0, 67, 64
2, 43680, Note_on_c, 0, 65, 49
2, 43680, Note_on_c, 0, 68, 52
2, 43920, Note_off_c, 0, 65, 64
2, 43920, Note_off_c, 0, 68, 64
2, 43920, Note_on_c, 0, 67, 47
2, 43920, Note_on_c, 0, 70, 45
2, 44160, Note_off_c, 0, 67, 64
2, 44160, Note_off_c, 0, 70, 64
2, 44160, Note_on_c, 0, 65, 46
2, 44160, Note_on_c, 0, 68, 54
2, 44400, Note_off_c, 0, 65, 64
2, 44400, Note_off_c, 0, 68, 64
2, 44400, Note_on_c, 0, 64, 46
2, 44400, Note_on_c, 0, 67, 47
2, 44640, Note_off_c, 0, 64, 64
2, 44640, Note_off_c, 0, 67, 64
2, 44640, Note_on_c, 0, 64, 78
2, 44640, Note_on_c, 0, 67, 75
2, 45360, Note_off_c, 0, 64, 64
2, 45360, Note_off_c, 0, 67, 64
2, 45360, Note_on_c, 0, 65, 77
2, 45600, Note_off_c, 0, 65, 64
2, 46080, Note_on_c, 0, 68, 48
2, 46320, Note_off_c, 0, 68, 64
2, 46560, Note_on_c, 0, 68, 51
2, 46800, Note_off_c, 0, 68, 64
2, 46800, Note_on_c, 0, 70, 47
2, 47040, Note_off_c, 0, 70, 64
2, 47280, Note_on_c, 0, 70, 54
2, 47520, Note_off_c, 0, 70, 64
2, 47520, Note_on_c, 0, 70, 72
2, 48240, Note_off_c, 0, 70, 64
2, 48240, Note_on_c, 0, 72, 76
2, 48480, Note_off_c, 0, 72, 64
2, 48720, Note_on_c, 0, 68, 75
2, 48960, Note_off_c, 0, 68, 64
2, 48960, Note_on_c, 0, 73, 77
2, 49200, Note_off_c, 0, 73, 64
2, 49440, Note_on_c, 0, 72, 76
2, 49680, Note_off_c, 0, 72, 64
2, 49680, Note_on_c, 0, 77, 79
2, 49920, Note_off_c, 0, 77, 64
2, 50160, Note_on_c, 0, 65, 47
2, 50400, Note_off_c, 0, 65, 64
2, 50400, Note_on_c, 0, 68, 49
2, 51120, Note_off_c, 0, 68, 64
2, 51120, Note_on_c, 0, 67, 53
2, 51360, Note_off_c, 0, 67, 64
2, 51600, Note_on_c, 0, 75, 52
2, 51840, Note_off_c, 0, 75, 64
2, 51840, Note_on_c, 0, 74, 71
2, 52560, Note_off_c, 0, 74, 64
2, 52560, Note_on_c, 0, 80, 79
2, 52800, Note_off_c, 0, 80, 64
2, 53280, Note_on_c, 0, 79, 52
2, 54000, Note_off_c, 0, 79, 64
2, 54000, Note_on_c, 0, 82, 51
2, 54240, Note_off_c, 0, 82, 64
2, 54720, Note_on_c, 0, 83, 77
2, 55440, Note_off_c, 0, 83, 64
2, 55440, Note_on_c, 0, 80, 77
2, 55680, Note_off_c, 0, 80, 64
2, 56160, Note_on_c, 0, 87, 51
2, 56880, Note_off_c, 0, 87, 64
2, 56880, Note_on_c, 0, 79, 45
2, 57120, Note_off_c, 0, 79, 64
2, 57840, Note_on_c, 0, 80, 47
2, 58080, Note_off_c, 0, 80, 64
2, 58080, Note_on_c, 0, 80, 45
2, 58320, Note_off_c, 0, 80, 64
2, 58560, Note_on_c, 0, 77, 48
2, 58800, Note_off_c, 0, 77, 64
2, 58800, Note_on_c, 0, 77, 45
2, 59040, Note_off_c, 0, 77, 64
2, 59280, Note_on_c, 0, 75, 48
2, 59520, Note_off_c, 0, 75, 64
2, 59520, Note_on_c, 0, 75, 51
2, 59760, Note_off_c, 0, 75, 64
2, 60000, Note_on_c, 0, 79, 49
2, 60240, Note_off_c, 0, 79, 64
2, 60240, Note_on_c, 0, 79, 53
2, 60480, Note_off_c, 0, 79, 64
2, 60480, Note_on_c, 0, 80, 79
2, 60960, Note_off_c, 0, 80, 64
2, 60960, Note_on_c, 0, 84, 78
2, 61080, Note_off_c, 0, 84, 64
2, 61080, Note_on_c, 0, 80, 78
2, 61200, Note_off_c, 0, 80, 64
2, 61200, Note_on_c, 0, 79, 74
2, 61320, Note_off_c, 0, 79, 64
2, 61320, Note_on_c, 0, 77, 76
2, 61560, Note_off_c, 0, 77, 64
2, 61560, Note_on_c, 0, 80, 71
2, 61680, Note_off_c, 0, 80, 64
2, 61680, Note_on_c, 0, 79, 70
2, 61800, Note_off_c, 0, 79, 64
2, 61800, Note_on_c, 0, 77, 73
2, 61920, Note_off_c, 0, 77, 64
2, 61920, Note_on_c, 0, 77, 78
2, 62040, Note_off_c, 0, 77, 64
2, 62040, Note_on_c, 0, 75, 75
2, 62280, Note_off_c, 0, 75, 64
2, 62280, Note_on_c, 0, 77, 71
2, 62340, Note_off_c, 0, 77, 64
2, 62340, Note_on_c, 0, 75, 79
2, 62400, Note_off_c, 0, 75, 64
2, 62400, Note_on_c, 0, 73, 73
2, 62460, Note_off_c, 0, 73, 64
2, 62460, Note_on_c, 0, 72, 73
2, 62520, Note_off_c, 0, 72, 64
2, 62520, Note_on_c, 0, 70, 77
2, 62580, Note_off_c, 0, 70, 64
2, 62580, Note_on_c, 0, 68, 79
2, 62640, Note_off_c, 0, 68, 64
2, 62640, Note_on_c, 0, 70, 79
2, 62700, Note_off_c, 0, 70, 64
2, 62700, Note_on_c, 0, 72, 79
2, 62760, Note_off_c, 0, 72, 64
2, 62760, Note_on_c, 0, 70, 74
2, 62820, Note_off_c, 0, 70, 64
2, 62820, Note_on_c, 0, 72, 77
2, 62880, Note_off_c, 0, 72, 64
2, 62880, Note_on_c, 0, 70, 75
2, 62940, Note_off_c, 0, 70, 64
2, 62940, Note_on_c, 0, 72, 74
2, 63000, Note_off_c, 0, 72, 64
2, 63000, Note_on_c, 0, 70, 72
2, 63060, Note_off_c, 0, 70, 64
2, 63060, Note_on_c, 0, 72, 77
2, 63120, Note_off_c, 0, 72, 64
2, 63120, Note_on_c, 0, 70, 71
2, 63180, Note_off_c, 0, 70, 64
2, 63180, Note_on_c, 0, 72, 75
2, 63240, Note_off_c, 0, 72, 64
2, 63240, Note_on_c, 0, 68, 79
2, 63300, Note_off_c, 0, 68, 64
2, 63300, Note_on_c, 0, 70, 73
2, 63360, Note_off_c, 0, 70, 64
2, 63360, Note_on_c, 0, 68, 73
2, 63600, Note_off_c, 0, 68, 64
2, 63840, Note_on_c, 0, 72, 51
2, 63840, Note_on_c, 0, 70, 52
2, 63840, Note_on_c, 0, 67, 48
2, 64080, Note_off_c, 0, 72, 64
2, 64080, Note_off_c, 0, 67, 64
2, 64080, Note_off_c, 0, 70, 64
2, 64080, Note_on_c, 0, 72, 45
2, 64080, Note_on_c, 0, 68, 53
2, 64080, Note_on_c, 0, 65, 51
2, 64320, Note_off_c, 0, 72, 64
2, 64320, Note_off_c, 0, 65, 64
2, 64320, Note_off_c, 0, 68, 64
2, 64560, Note_on_c, 0, 73, 71
2, 64560, Note_on_c, 0, 70, 78
2, 64560, Note_on_c, 0, 65, 72
2, 64800, Note_off_c, 0, 73, 64
2, 64800, Note_off_c, 0, 65, 64
2, 64800, Note_off_c, 0, 70, 64
2, 64800, Note_on_c, 0, 72, 76
2, 64800, Note_on_c, 0, 68, 79
2, 64800, Note_on_c, 0, 63, 70
2, 65160, Note_off_c, 0, 72, 64
2, 65160, Note_off_c, 0, 68, 64
2, 65160, Note_on_c, 0, 73, 71
2, 65160, Note_on_c, 0, 70, 71
2, 65280, Note_off_c, 0, 63, 64
2, 65280, Note_off_c, 0, 70, 64
2, 65280, Note_off_c, 0, 73, 64
2, 65280, Note_on_c, 0, 70, 73
2, 65280, Note_on_c, 0, 67, 71
2, 65280, Note_on_c, 0, 61, 77
2, 65520, Note_off_c, 0, 70, 64
2, 65520, Note_off_c, 0, 61, 64
2, 65520, Note_off_c, 0, 67, 64
2, 65520, Note_on_c, 0, 68, 74
2, 65520, Note_on_c, 0, 63, 70
2, 65520, Note_on_c, 0, 60, 74
2, 65760, Note_off_c, 0, 68, 64
2, 65760, Note_off_c, 0, 60, 64
2, 65760, Note_off_c, 0, 63, 64
2, 66000, Note_on_c, 0, 60, 50
2, 66000, Note_on_c, 0, 58, 49
2, 66000, Note_on_c, 0, 55, 45
2, 66240, Note_off_c, 0, 60, 64
2, 66240, Note_off_c, 0, 55, 64
2, 66240, Note_off_c, 0, 58, 64
2, 66240, Note_on_c, 0, 60, 50
2, 66240, Note_on_c, 0, 56, 50
2, 66240, Note_on_c, 0, 53, 48
2, 66480, Note_off_c, 0, 60, 64
2, 66480, Note_off_c, 0, 53, 64
2, 66480, Note_off_c, 0, 56, 64
2, 66720, Note_on_c, 0, 61, 73
2, 66720, Note_on_c, 0, 58, 71
2, 66720, Note_on_c, 0, 53, 73
2, 66960, Note_off_c, 0, 61, 64
2, 66960, Note_off_c, 0, 53, 64
2, 66960, Note_off_c, 0, 58, 64
2, 66960, Note_on_c, 0, 60, 74
2, 66960, Note_on_c, 0, 56, 75
2, 67320, Note_off_c, 0, 60, 64
2, 67320, Note_off_c, 0, 56, 64
2, 67320, Note_on_c, 0, 61, 78
2, 67320, Note_on_c, 0, 58, 73
2, 67440, Note_off_c, 0, 61, 64
2, 67440, Note_off_c, 0, 58, 64
2, 67440, Note_on_c, 0, 58, 76
2, 67440, Note_on_c, 0, 55, 75
2, 67680, Note_off_c, 0, 58, 64
2, 67680, Note_off_c, 0, 55, 64
2, 67680, Note_on_c, 0, 58, 77
2, 67680, Note_on_c, 0, 55, 71
2, 67680, Note_on_c, 0, 49, 77
2, 68400, Note_off_c, 0, 58, 64
2, 68400, Note_off_c, 0, 49, 64
2, 68400, Note_off_c, 0, 55, 64
2, 68400, Note_on_c, 0, 56, 75
2, 68400, Note_on_c, 0, 48, 74
2, 68640, Note_off_c, 0, 56, 64
2, 68640, Note_off_c, 0, 48, 64
2, 69120, Note_on_c, 0, 77, 45
2, 69180, Note_off_c, 0, 77, 64
2, 69180, Note_on_c, 0, 75, 45
2, 69240, Note_off_c, 0, 75, 64
2, 69240, Note_on_c, 0, 77, 49
2, 69300, Note_off_c, 0, 77, 64
2, 69300, Note_on_c, 0, 75, 50
2, 69360, Note_off_c, 0, 75, 64
2, 69360, Note_on_c, 0, 77, 48
2, 69420, Note_off_c, 0, 77, 64
2, 69420, Note_on_c, 0, 75, 50
2, 69480, Note_off_c, 0, 75, 64
2, 69480, Note_on_c, 0, 77, 46
2, 69600, Note_off_c, 0, 77, 64
2, 69600, Note_on_c, 0, 75, 52
2, 69840, Note_off_c, 0, 75, 64
2, 69840, Note_on_c, 0, 75, 45
2, 70320, Note_off_c, 0, 75, 64
2, 70320, Note_on_c, 0, 75, 50
2, 70560, Note_off_c, 0, 75, 64
2, 70560, Note_on_c, 0, 69, 71
2, 70560, Note_on_c, 0, 72, 70
2, 70560, Note_on_c, 0, 75, 75
2, 71040, Note_off_c, 0, 75, 64
2, 71040, Note_on_c, 0, 77, 73
2, 71280, Note_off_c, 0, 77, 64
2, 71280, Note_on_c, 0, 78, 73
2, 71520, Note_off_c, 0, 69, 64
2, 71520, Note_off_c, 0, 78, 64
2, 71520, Note_off_c, 0, 72, 64
2, 72000, Note_on_c, 0, 57, 46
2, 72000, Note_on_c, 0, 60, 52
2, 72000, Note_on_c, 0, 63, 46
2, 72480, Note_off_c, 0, 63, 64
2, 72480, Note_on_c, 0, 65, 45
2, 72720, Note_off_c, 0, 65, 64
2, 72720, Note_on_c, 0, 66, 47
2, 72960, Note_off_c, 0, 57, 64
2, 72960, Note_off_c, 0, 66, 64
2, 72960, Note_off_c, 0, 60, 64
2, 73440, Note_on_c, 0, 70, 78
2, 73440, Note_on_c, 0, 65, 78
2, 73680, Note_off_c, 0, 70, 64
2, 73680, Note_off_c, 0, 65, 64
2, 73680, Note_on_c, 0, 63, 77
2, 73680, Note_on_c, 0, 69, 76
2, 73920, Note_off_c, 0, 63, 64
2, 73920, Note_off_c, 0, 69, 64
2, 73920, Note_on_c, 0, 70, 71
2, 73920, Note_on_c, 0, 61, 71
2, 74160, Note_off_c, 0, 70, 64
2, 74160, Note_off_c, 0, 61, 64
2, 74160, Note_on_c, 0, 65, 78
2, 74160, Note_on_c, 0, 75, 72
2, 74160, Note_on_c, 0, 72, 77
2, 74400, Note_off_c, 0, 65, 64
2, 74400, Note_off_c, 0, 72, 64
2, 74400, Note_off_c, 0, 75, 64
2, 75000, Note_on_c, 0, 73, 52
2, 75120, Note_off_c, 0, 73, 64
2, 75120, Note_on_c, 0, 72, 51
2, 75240, Note_off_c, 0, 72, 64
2, 75240, Note_on_c, 0, 73, 48
2, 75360, Note_off_c, 0, 73, 64
2, 75360, Note_on_c, 0, 75, 52
2, 75480, Note_off_c, 0, 75, 64
2, 75480, Note_on_c, 0, 73, 53
2, 75600, Note_off_c, 0, 73, 64
2, 75600, Note_on_c, 0, 78, 46
2, 75720, Note_on_c, 0, 73, 49
2, 75840, Note_off_c, 0, 73, 64
2, 75840, Note_on_c, 0, 72, 46
2, 75960, Note_off_c, 0, 72, 64
2, 75960, Note_on_c, 0, 73, 49
2, 76080, Note_off_c, 0, 73, 64
2, 76080, Note_on_c, 0, 75, 45
2, 76200, Note_off_c, 0, 75, 64
2, 76200, Note_on_c, 0, 73, 54
2, 76320, Note_off_c, 0, 73, 64
2, 76320, Note_on_c, 0, 72, 45
2, 76440, Note_off_c, 0, 78, 64
2, 76440, Note_on_c, 0, 78, 51
2, 76560, Note_off_c, 0, 78, 64
2, 76560, Note_on_c, 0, 77, 53
2, 76680, Note_off_c, 0, 77, 64
2, 76680, Note_on_c, 0, 78, 49
2, 76800, Note_off_c, 0, 78, 64
2, 76800, Note_on_c, 0, 80, 46
2, 76920, Note_off_c, 0, 80, 64
2, 76920, Note_on_c, 0, 78, 54
2, 77040, Note_off_c, 0, 78, 64
2, 77040, Note_on_c, 0, 77, 54
2, 77160, Note_off_c, 0, 72, 64
2, 77160, Note_on_c, 0, 72, 46
2, 77280, Note_off_c, 0, 72, 64
2, 77280, Note_on_c, 0, 71, 49
2, 77400, Note_off_c, 0, 71, 64
2, 77400, Note_on_c, 0, 72, 46
2, 77520, Note_off_c, 0, 72, 64
2, 77520, Note_on_c, 0, 73, 51
2, 77640, Note_off_c, 0, 73, 64
2, 77640, Note_on_c, 0, 72, 47
2, 77760, Note_off_c, 0, 72, 64
2, 77760, Note_on_c, 0, 71, 46
2, 77880, Note_off_c, 0, 77, 64
2, 77880, Note_on_c, 0, 77, 51
2, 78000, Note_off_c, 0, 71, 64
2, 78000, Note_off_c, 0, 77, 64
2, 78000, Note_on_c, 0, 76, 53
2, 78120, Note_off_c, 0, 76, 64
2, 78120, Note_on_c, 0, 77, 50
2, 78240, Note_off_c, 0, 77, 64
2, 78240, Note_on_c, 0, 79, 50
2, 78360, Note_off_c, 0, 79, 64
2, 78360, Note_on_c, 0, 77, 53
2, 78480, Note_off_c, 0, 77, 64
2, 78600, Note_on_c, 0, 75, 54
2, 78720, Note_off_c, 0, 75, 64
2, 78720, Note_on_c, 0, 74, 46
2, 78840, Note_off_c, 0, 74, 64
2, 78840, Note_on_c, 0, 75, 51
2, 78960, Note_off_c, 0, 75, 64
2, 78960, Note_on_c, 0, 77, 54
2, 79080, Note_off_c, 0, 77, 64
2, 79080, Note_on_c, 0, 75, 53
2, 79200, Note_off_c, 0, 75, 64
2, 79200, Note_on_c, 0, 74, 79
2, 79200, Note_on_c, 0, 71, 76
2, 79440, Note_off_c, 0, 74, 64
2, 79440, Note_off_c, 0, 71, 64
2, 80640, Note_on_c, 0, 68, 73
2, 80700, Note_off_c, 0, 68, 64
2, 80700, Note_on_c, 0, 67, 74
2, 80760, Note_off_c, 0, 67, 64
2, 80760, Note_on_c, 0, 68, 74
2, 80820, Note_off_c, 0, 68, 64
2, 80820, Note_on_c, 0, 67, 76
2, 80880, Note_off_c, 0, 67, 64
2, 80880, Note_on_c, 0, 68, 74
2, 80940, Note_off_c, 0, 68, 64
2, 80940, Note_on_c, 0, 67, 71
2, 81000, Note_off_c, 0, 67, 64
2, 81000, Note_on_c, 0, 68, 70
2, 81120, Note_off_c, 0, 68, 64
2, 81120, Note_on_c, 0, 67, 79
2, 81360, Note_off_c, 0, 67, 64
2, 81360, Note_on_c, 0, 67, 73
2, 81840, Note_off_c, 0, 67, 64
2, 81840, Note_on_c, 0, 72, 70
2, 82080, Note_off_c, 0, 72, 64
2, 82080, Note_on_c, 0, 62, 70
2, 82080, Note_on_c, 0, 72, 75
2, 82440, Note_off_c, 0, 62, 64
2, 82440, Note_on_c, 0, 63, 76
2, 82560, Note_off_c, 0, 63, 64
2, 82560, Note_on_c, 0, 62, 76
2, 82800, Note_off_c, 0, 62, 64
2, 82800, Note_on_c, 0, 62, 79
2, 83040, Note_off_c, 0, 72, 64
2, 83040, Note_off_c, 0, 62, 64
2, 83040, Note_on_c, 0, 70, 78
2, 83280, Note_off_c, 0, 70, 64
2, 83280, Note_on_c, 0, 68, 70
2, 83520, Note_off_c, 0, 68, 64
2, 83520, Note_on_c, 0, 59, 49
2, 83520, Note_on_c, 0, 62, 48
2, 83520, Note_on_c, 0, 67, 51
2, 84480, Note_off_c, 0, 59, 64
2, 84480, Note_off_c, 0, 62, 64
2, 84480, Note_on_c, 0, 63, 51
2, 84480, Note_on_c, 0, 60, 49
2, 84720, Note_off_c, 0, 63, 64
2, 84720, Note_off_c, 0, 60, 64
2, 84720, Note_on_c, 0, 65, 46
2, 84720, Note_on_c, 0, 62, 50
2, 84960, Note_off_c, 0, 65, 64
2, 84960, Note_off_c, 0, 62, 64
2, 84960, Note_on_c, 0, 65, 47
2, 84960, Note_on_c, 0, 60, 50
2, 85680, Note_off_c, 0, 65, 64
2, 85680, Note_off_c, 0, 60, 64
2, 85680, Note_on_c, 0, 60, 53
2, 85680, Note_on_c, 0, 64, 47
2, 85920, Note_off_c, 0, 67, 64
2, 85920, Note_off_c, 0, 64, 64
2, 85920, Note_off_c, 0, 60, 64
2, 85920, Note_on_c, 0, 68, 50
2, 85920, Note_on_c, 0, 65, 50
2, 86160, Note_off_c, 0, 68, 64
2, 86160, Note_off_c, 0, 65, 64
2, 86160, Note_on_c, 0, 70, 49
2, 86160, Note_on_c, 0, 67, 47
2, 86400, Note_off_c, 0, 70, 64
2, 86400, Note_off_c, 0, 67, 64
2, 86400, Note_on_c, 0, 68, 72
2, 86400, Note_on_c, 0, 72, 72
2, 86460, Note_off_c, 0, 72, 64
2, 86460, Note_on_c, 0, 73, 72
2, 86520, Note_off_c, 0, 73, 64
2, 86520, Note_on_c, 0, 72, 70
2, 86580, Note_off_c, 0, 72, 64
2, 86580, Note_on_c, 0, 73, 70
2, 86640, Note_off_c, 0, 73, 64
2, 86640, Note_on_c, 0, 72, 74
2, 86700, Note_off_c, 0, 72, 64
2, 86700, Note_on_c, 0, 73, 79
2, 86760, Note_off_c, 0, 68, 64
2, 86760, Note_off_c, 0, 73, 64
2, 86760, Note_on_c, 0, 73, 75
2, 86880, Note_off_c, 0, 73, 64
2, 86880, Note_on_c, 0, 72, 75
2, 87120, Note_off_c, 0, 72, 64
2, 87120, Note_on_c, 0, 72, 70
2, 87600, Note_off_c, 0, 72, 64
2, 87600, Note_on_c, 0, 77, 76
2, 87840, Note_off_c, 0, 77, 64
2, 87840, Note_on_c, 0, 67, 72
2, 87840, Note_on_c, 0, 77, 73
2, 88200, Note_off_c, 0, 67, 64
2, 88200, Note_on_c, 0, 68, 71
2, 88320, Note_off_c, 0, 68, 64
2, 88320, Note_on_c, 0, 67, 73
2, 88560, Note_off_c, 0, 67, 64
2, 88560, Note_on_c, 0, 67, 70
2, 88800, Note_off_c, 0, 77, 64
2, 88800, Note_off_c, 0, 67, 64
2, 88800, Note_on_c, 0, 75, 72
2, 89040, Note_off_c, 0, 75, 64
2, 89040, Note_on_c, 0, 73, 78
2, 89280, Note_off_c, 0, 73, 64
2, 89280, Note_on_c, 0, 64, 48
2, 89280, Note_on_c, 0, 67, 53
2, 89280, Note_on_c, 0, 72, 51
2, 90240, Note_off_c, 0, 64, 64
2, 90240, Note_off_c, 0, 67, 64
2, 90240, Note_on_c, 0, 68, 53
2, 90240, Note_on_c, 0, 65, 51
2, 90480, Note_off_c, 0, 68, 64
2, 90480, Note_off_c, 0, 65, 64
2, 90480, Note_on_c, 0, 70, 45
2, 90480, Note_on_c, 0, 67, 50
2, 90720, Note_off_c, 0, 72, 64
2, 90720, Note_off_c, 0, 67, 64
2, 90720, Note_off_c, 0, 70, 64
2, 90720, Note_on_c, 0, 67, 71
2, 90720, Note_on_c, 0, 70, 72
2, 91080, Note_off_c, 0, 67, 64
2, 91080, Note_off_c, 0, 70, 64
2, 91080, Note_on_c, 0, 68, 74
2, 91080, Note_on_c, 0, 65, 71
2, 91200, Note_off_c, 0, 68, 64
2, 91200, Note_off_c, 0, 65, 64
2, 91200, Note_on_c, 0, 67, 70
2, 91200, Note_on_c, 0, 64, 76
2, 91440, Note_off_c, 0, 67, 64
2, 91440, Note_off_c, 0, 64, 64
2, 91440, Note_on_c, 0, 68, 76
2, 91440, Note_on_c, 0, 65, 73
2, 92520, Note_off_c, 0, 68, 64
2, 92520, Note_off_c, 0, 65, 64
2, 92520, Note_on_c, 0, 67, 54
2, 92520, Note_on_c, 0, 64, 48
2, 92640, Note_off_c, 0, 67, 64
2, 92640, Note_off_c, 0, 64, 64
2, 92640, Note_on_c, 0, 68, 49
2, 92640, Note_on_c, 0, 65, 47
2, 92880, Note_off_c, 0, 68, 64
2, 92880, Note_off_c, 0, 65, 64
2, 92880, Note_on_c, 0, 67, 45
2, 92880, Note_on_c, 0, 70, 50
2, 93120, Note_off_c, 0, 67, 64
2, 93120, Note_off_c, 0, 70, 64
2, 93120, Note_on_c, 0, 65, 46
2, 93120, Note_on_c, 0, 68, 46
2, 93360, Note_off_c, 0, 65, 64
2, 93360, Note_off_c, 0, 68, 64
2, 93360, Note_on_c, 0, 64, 54
2, 93360, Note_on_c, 0, 67, 50
2, 93600, Note_off_c, 0, 64, 64
2, 93600, Note_off_c, 0, 67, 64
2, 93600, Note_on_c, 0, 64, 78
2, 93600, Note_on_c, 0, 67, 75
2, 94320, Note_off_c, 0, 64, 64
2, 94320, Note_off_c, 0, 67, 64
2, 94320, Note_on_c, 0, 65, 70
2, 94560, Note_off_c, 0, 65, 64
2, 95040, Note_on_c, 0, 72, 45
2, 95280, Note_off_c, 0, 72, 64
2, 95520, Note_on_c, 0, 72, 52
2, 95760, Note_off_c, 0, 72, 64
2, 95760, Note_on_c, 0, 72, 54
2, 96000, Note_off_c, 0, 72, 64
2, 96240, Note_on_c, 0, 72, 47
2, 96480, Note_off_c, 0, 72, 64
2, 96480, Note_on_c, 0, 72, 70
2, 97200, Note_off_c, 0, 72, 64
2, 97200, Note_on_c, 0, 70, 70
2, 97440, Note_off_c, 0, 70, 64
2, 97680, Note_on_c, 0, 68, 74
2, 97920, Note_off_c, 0, 68, 64
2, 97920, Note_on_c, 0, 66, 71
2, 98160, Note_off_c, 0, 66, 64
2, 98400, Note_on_c, 0, 70, 71
2, 98640, Note_off_c, 0, 70, 64
2, 98640, Note_on_c, 0, 66, 72
2, 98880, Note_off_c, 0, 66, 64
2, 99120, Note_on_c, 0, 65, 75
2, 99360, Note_off_c, 0, 65, 64
2, 99360, Note_on_c, 0, 65, 48
2, 100080, Note_off_c, 0, 65, 64
2, 100080, Note_on_c, 0, 64, 45
2, 100320, Note_off_c, 0, 64, 64
2, 100560, Note_on_c, 0, 72, 52
2, 100800, Note_off_c, 0, 72, 64
2, 100800, Note_on_c, 0, 71, 70
2, 101520, Note_off_c, 0, 71, 64
2, 101520, Note_on_c, 0, 77, 74
2, 101760, Note_off_c, 0, 77, 64
2, 102240, Note_on_c, 0, 76, 52
2, 102960, Note_off_c, 0, 76, 64
2, 102960, Note_on_c, 0, 79, 47
2, 103200, Note_off_c, 0, 79, 64
2, 103680, Note_on_c, 0, 80, 71
2, 104400, Note_off_c, 0, 80, 64
2, 104400, Note_on_c, 0, 77, 71
2, 104640, Note_off_c, 0, 77, 64
2, 105120, Note_on_c, 0, 85, 54
2, 105840, Note_off_c, 0, 85, 64
2, 105840, Note_on_c, 0, 76, 45
2, 106080, Note_off_c, 0, 76, 64
2, 106800, Note_on_c, 0, 77, 50
2, 107040, Note_off_c, 0, 77, 64
2, 107040, Note_on_c, 0, 77, 53
2, 107280, Note_off_c, 0, 77, 64
2, 107520, Note_on_c, 0, 73, 50
2, 107760, Note_off_c, 0, 73, 64
2, 107760, Note_on_c, 0, 73, 46
2, 108000, Note_off_c, 0, 73, 64
2, 108240, Note_on_c, 0, 72, 47
2, 108480, Note_off_c, 0, 72, 64
2, 108480, Note_on_c, 0, 72, 50
2, 108720, Note_off_c, 0, 72, 64
2, 108960, Note_on_c, 0, 76, 53
2, 109200, Note_off_c, 0, 76, 64
2, 109200, Note_on_c, 0, 76, 50
2, 109440, Note_off_c, 0, 76, 64
2, 109440, Note_on_c, 0, 77, 71
2, 109920, Note_off_c, 0, 77, 64
2, 109920, Note_on_c, 0, 84, 72
2, 110040, Note_off_c, 0, 84, 64
2, 110040, Note_on_c, 0, 80, 71
2, 110160, Note_off_c, 0, 80, 64
2, 110160, Note_on_c, 0, 80, 79
2, 110280, Note_off_c, 0, 80, 64
2, 110280, Note_on_c, 0, 79, 71
2, 110400, Note_off_c, 0, 79, 64
2, 110400, Note_on_c, 0, 85, 79
2, 110520, Note_off_c, 0, 85, 64
2, 110520, Note_on_c, 0, 82, 79
2, 110640, Note_off_c, 0, 82, 64
2, 110640, Note_on_c, 0, 82, 78
2, 110760, Note_off_c, 0, 82, 64
2, 110760, Note_on_c, 0, 79, 76
2, 110880, Note_off_c, 0, 79, 64
2, 110880, Note_on_c, 0, 77, 45
2, 111600, Note_off_c, 0, 77, 64
2, 111600, Note_on_c, 0, 78, 76
2, 111660, Note_off_c, 0, 78, 64
2, 111660, Note_on_c, 0, 79, 71
2, 111720, Note_off_c, 0, 79, 64
2, 111720, Note_on_c, 0, 78, 74
2, 111780, Note_off_c, 0, 78, 64
2, 111780, Note_on_c, 0, 79, 74
2, 111840, Note_off_c, 0, 79, 64
2, 111840, Note_on_c, 0, 78, 79
2, 111900, Note_off_c, 0, 78, 64
2, 111900, Note_on_c, 0, 79, 75
2, 111960, Note_off_c, 0, 79, 64
2, 111960, Note_on_c, 0, 78, 79
2, 112020, Note_off_c, 0, 78, 64
2, 112020, Note_on_c, 0, 79, 71
2, 112080, Note_off_c, 0, 79, 64
2, 112080, Note_on_c, 0, 78, 77
2, 112140, Note_off_c, 0, 78, 64
2, 112140, Note_on_c, 0, 79, 70
2, 112200, Note_off_c, 0, 79, 64
2, 112200, Note_on_c, 0, 78, 79
2, 112260, Note_off_c, 0, 78, 64
2, 112260, Note_on_c, 0, 79, 77
2, 112320, Note_off_c, 0, 79, 64
2, 112320, Note_on_c, 0, 77, 46
2, 112560, Note_off_c, 0, 77, 64
2, 112560, Note_on_c, 0, 79, 45
2, 112800, Note_off_c, 0, 79, 64
2, 112800, Note_on_c, 0, 80, 51
2, 113040, Note_off_c, 0, 80, 64
2, 113040, Note_on_c, 0, 69, 54
2, 113280, Note_off_c, 0, 69, 64
2, 113280, Note_on_c, 0, 70, 54
2, 113520, Note_off_c, 0, 70, 64
2, 113520, Note_on_c, 0, 71, 52
2, 113760, Note_off_c, 0, 71, 64
2, 113760, Note_on_c, 0, 72, 77
2, 113880, Note_off_c, 0, 72, 64
2, 113880, Note_on_c, 0, 73, 72
2, 114000, Note_off_c, 0, 73, 64
2, 114000, Note_on_c, 0, 74, 74
2, 114120, Note_off_c, 0, 74, 64
2, 114120, Note_on_c, 0, 75, 70
2, 114240, Note_off_c, 0, 75, 64
2, 114240, Note_on_c, 0, 76, 71
2, 114360, Note_off_c, 0, 76, 64
2, 114360, Note_on_c, 0, 77, 72
2, 114480, Note_off_c, 0, 77, 64
2, 114480, Note_on_c, 0, 67, 75
2, 114540, Note_off_c, 0, 67, 64
2, 114540, Note_on_c, 0, 68, 77
2, 114600, Note_off_c, 0, 68, 64
2, 114600, Note_on_c, 0, 67, 78
2, 114660, Note_off_c, 0, 67, 64
2, 114660, Note_on_c, 0, 68, 71
2, 114720, Note_off_c, 0, 68, 64
2, 114720, Note_on_c, 0, 67, 78
2, 114780, Note_off_c, 0, 67, 64
2, 114780, Note_on_c, 0, 68, 74
2, 114840, Note_off_c, 0, 68, 64
2, 114840, Note_on_c, 0, 67, 70
2, 114900, Note_off_c, 0, 67, 64
2, 114900, Note_on_c, 0, 68, 76
2, 114960, Note_off_c, 0, 68, 64
2, 114960, Note_on_c, 0, 67, 72
2, 115020, Note_off_c, 0, 67, 64
2, 115020, Note_on_c, 0, 68, 78
2, 115080, Note_off_c, 0, 68, 64
2, 115080, Note_on_c, 0, 65, 70
2, 115140, Note_off_c, 0, 65, 64
2, 115140, Note_on_c, 0, 67, 75
2, 115200, Note_off_c, 0, 67, 64
2, 115200, Note_on_c, 0, 65, 78
2, 115440, Note_off_c, 0, 65, 64
2, 115680, Note_on_c, 0, 65, 48
2, 115680, Note_on_c, 0, 63, 54
2, 115680, Note_on_c, 0, 60, 49
2, 115920, Note_off_c, 0, 65, 64
2, 115920, Note_off_c, 0, 60, 64
2, 115920, Note_off_c, 0, 63, 64
2, 115920, Note_on_c, 0, 65, 54
2, 115920, Note_on_c, 0, 61, 48
2, 115920, Note_on_c, 0, 58, 50
2, 116160, Note_off_c, 0, 65, 64
2, 116160, Note_off_c, 0, 58, 64
2, 116160, Note_off_c, 0, 61, 64
2, 116400, Note_on_c, 0, 73, 79
2, 116400, Note_on_c, 0, 65, 74
2, 116640, Note_off_c, 0, 73, 64
2, 116640, Note_off_c, 0, 65, 64
2, 116640, Note_on_c, 0, 68, 74
2, 116640, Note_on_c, 0, 65, 75
2, 116640, Note_on_c, 0, 60, 77
2, 117000, Note_off_c, 0, 68, 64
2, 117000, Note_off_c, 0, 65, 64
2, 117000, Note_on_c, 0, 70, 73
2, 117000, Note_on_c, 0, 67, 74
2, 117120, Note_off_c, 0, 60, 64
2, 117120, Note_off_c, 0, 67, 64
2, 117120, Note_off_c, 0, 70, 64
2, 117120, Note_on_c, 0, 67, 76
2, 117120, Note_on_c, 0, 64, 72
2, 117120, Note_on_c, 0, 58, 71
2, 117360, Note_off_c, 0, 67, 64
2, 117360, Note_off_c, 0, 58, 64
2, 117360, Note_off_c, 0, 64, 64
2, 117360, Note_on_c, 0, 65, 76
2, 117360, Note_on_c, 0, 56, 75
2, 117600, Note_off_c, 0, 65, 64
2, 117600, Note_off_c, 0, 56, 64
2, 117840, Note_on_c, 0, 75, 46
2, 117840, Note_on_c, 0, 66, 53
2, 118080, Note_off_c, 0, 75, 64
2, 118080, Note_off_c, 0, 66, 64
2, 118080, Note_on_c, 0, 73, 49
2, 118080, Note_on_c, 0, 65, 45
2, 118320, Note_off_c, 0, 73, 64
2, 118320, Note_off_c, 0, 65, 64
2, 118560, Note_on_c, 0, 77, 73
2, 118560, Note_on_c, 0, 68, 73
2, 118800, Note_off_c, 0, 77, 64
2, 118800, Note_off_c, 0, 68, 64
2, 118800, Note_on_c, 0, 68, 75
2, 118800, Note_on_c, 0, 65, 79
2, 119160, Note_off_c, 0, 68, 64
2, 119160, Note_off_c, 0, 65, 64
2, 119160, Note_on_c, 0, 70, 78
2, 119160, Note_on_c, 0, 67, 72
2, 119280, Note_off_c, 0, 70, 64
2, 119280, Note_off_c, 0, 67, 64
2, 119280, Note_on_c, 0, 67, 72
2, 119280, Note_on_c, 0, 64, 74
2, 119520, Note_off_c, 0, 67, 64
2, 119520, Note_off_c, 0, 64, 64
2, 119520, Note_on_c, 0, 67, 76
2, 119520, Note_on_c, 0, 64, 78
2, 119520, Note_on_c, 0, 58, 77
2, 120240, Note_off_c, 0, 67, 64
2, 120240, Note_off_c, 0, 58, 64
2, 120240, Note_off_c, 0, 64, 64
2, 120240, Note_on_c, 0, 65, 73
2, 120240, Note_on_c, 0, 56, 74
2, 120480, Note_off_c, 0, 65, 64
2, 120480, Note_off_c, 0, 56, 64
2, 120960, Note_on_c, 0, 77, 45
2, 121020, Note_off_c, 0, 77, 64
2, 121020, Note_on_c, 0, 75, 45
2, 121080, Note_off_c, 0, 75, 64
2, 121080, Note_on_c, 0, 77, 49
2, 121140, Note_off_c, 0, 77, 64
2, 121140, Note_on_c, 0, 75, 50
2, 121200, Note_off_c, 0, 75, 64
2, 121200, Note_on_c, 0, 77, 48
2, 121260, Note_off_c, 0, 77, 64
2, 121260, Note_on_c, 0, 75, 50
2, 121320, Note_off_c, 0, 75, 64
2, 121320, Note_on_c, 0, 77, 46
2, 121440, Note_off_c, 0, 77, 64
2, 121440, Note_on_c, 0, 75, 52
2, 121680, Note_off_c, 0, 75, 64
2, 121680, Note_on_c, 0, 75, 45
2, 122160, Note_off_c, 0, 75, 64
2, 122160, Note_on_c, 0, 75, 50
2, 122400, Note_off_c, 0, 75, 64
2, 122400, Note_on_c, 0, 69, 71
2, 122400, Note_on_c, 0, 72, 70
2, 122400, Note_on_c, 0, 75, 75
2, 122880, Note_off_c, 0, 75, 64
2, 122880, Note_on_c, 0, 77, 73
2, 123120, Note_off_c, 0, 77, 64
2, 123120, Note_on_c, 0, 78, 73
2, 123360, Note_off_c, 0, 69, 64
2, 123360, Note_off_c, 0, 78, 64
2, 123360, Note_off_c, 0, 72, 64
2, 123840, Note_on_c, 0, 57, 46
2, 123840, Note_on_c, 0, 60, 52
2, 123840, Note_on_c, 0, 63, 46
2, 124320, Note_off_c, 0, 63, 64
2, 124320, Note_on_c, 0, 65, 45
2, 124560, Note_off_c, 0, 65, 64
2, 124560, Note_on_c, 0, 66, 47
2, 124800, Note_off_c, 0, 57, 64
2, 124800, Note_off_c, 0, 66, 64
2, 124800, Note_off_c, 0, 60, 64
2, 125280, Note_on_c, 0, 70, 78
2, 125280, Note_on_c, 0, 65, 78
2, 125520, Note_off_c, 0, 70, 64
2, 125520, Note_off_c, 0, 65, 64
2, 125520, Note_on_c, 0, 63, 77
2, 125520, Note_on_c, 0, 69, 76
2, 125760, Note_off_c, 0, 63, 64
2, 125760, Note_off_c, 0, 69, 64
2, 125760, Note_on_c, 0, 70, 71
2, 125760, Note_on_c, 0, 61, 71
2, 126000, Note_off_c, 0, 70, 64
2, 126000, Note_off_c, 0, 61, 64
2, 126000, Note_on_c, 0, 65, 78
2, 126000, Note_on_c, 0, 75, 72
2, 126000, Note_on_c, 0, 72, 77
2, 126240, Note_off_c, 0, 65, 64
2, 126240, Note_off_c, 0, 72, 64
2, 126240, Note_off_c, 0, 75, 64
2, 126840, Note_on_c, 0, 73, 52
2, 126960, Note_off_c, 0, 73, 64
2, 126960, Note_on_c, 0, 72, 51
2, 127080, Note_off_c, 0, 72, 64
2, 127080, Note_on_c, 0, 73, 48
2, 127200, Note_off_c, 0, 73, 64
2, 127200, Note_on_c, 0, 75, 52
2, 127320, Note_off_c, 0, 75, 64
2, 127320, Note_on_c, 0, 73, 53
2, 127440, Note_off_c, 0, 73, 64
2, 127440, Note_on_c, 0, 78, 46
2, 127560, Note_on_c, 0, 73, 49
2, 127680, Note_off_c, 0, 73, 64
2, 127680, Note_on_c, 0, 72, 46
2, 127800, Note_off_c, 0, 72, 64
2, 127800, Note_on_c, 0, 73, 49
2, 127920, Note_off_c, 0, 73, 64
2, 127920, Note_on_c, 0, 75, 45
2, 128040, Note_off_c, 0, 75, 64
2, 128040, Note_on_c, 0, 73, 54
2, 128160, Note_off_c, 0, 73, 64
2, 128160, Note_on_c, 0, 72, 45
2, 128280, Note_off_c, 0, 78, 64
2, 128280, Note_on_c, 0, 78, 51
2, 128400, Note_off_c, 0, 78, 64
2, 128400, Note_on_c, 0, 77, 53
2, 128520, Note_off_c, 0, 77, 64
2, 128520, Note_on_c, 0, 78, 49
2, 128640, Note_off_c, 0, 78, 64
2, 128640, Note_on_c, 0, 80, 46
2, 128760, Note_off_c, 0, 80, 64
2, 128760, Note_on_c, 0, 78, 54
2, 128880, Note_off_c, 0, 78, 64
2, 128880, Note_on_c, 0, 77, 54
2, 129000, Note_off_c, 0, 72, 64
2, 129000, Note_on_c, 0, 72, 46
2, 129120, Note_off_c, 0, 72, 64
2, 129120, Note_on_c, 0, 71, 49
2, 129240, Note_off_c, 0, 71, 64
2, 129240, Note_on_c, 0, 72, 46
2, 129360, Note_off_c, 0, 72, 64
2, 129360, Note_on_c, 0, 73, 51
2, 129480, Note_off_c, 0, 73, 64
2, 129480, Note_on_c, 0, 72, 47
2, 129600, Note_off_c, 0, 72, 64
2, 129600, Note_on_c, 0, 71, 46
2, 129720, Note_off_c, 0, 77, 64
2, 129720, Note_on_c, 0, 77, 51
2, 129840, Note_off_c, 0, 71, 64
2, 129840, Note_off_c, 0, 77, 64
2, 129840, Note_on_c, 0, 76, 53
2, 129960, Note_off_c, 0, 76, 64
2, 129960, Note_on_c, 0, 77, 50
2, 130080, Note_off_c, 0, 77, 64
2, 130080, Note_on_c, 0, 79, 50
2, 130200, Note_off_c, 0, 79, 64
2, 130200, Note_on_c, 0, 77, 53
2, 130320, Note_off_c, 0, 77, 64
2, 130440, Note_on_c, 0, 75, 54
2, 130560, Note_off_c, 0, 75, 64
2, 130560, Note_on_c, 0, 74, 46
2, 130680, Note_off_c, 0, 74, 64
2, 130680, Note_on_c, 0, 75, 51
2, 130800, Note_off_c, 0, 75, 64
2, 130800, Note_on_c, 0, 77, 54
2, 130920, Note_off_c, 0, 77, 64
2, 130920, Note_on_c, 0, 75, 53
2, 131040, Note_off_c, 0, 75, 64
2, 131040, Note_on_c, 0, 74, 79
2, 131040, Note_on_c, 0, 71, 76
2, 131280, Note_off_c, 0, 74, 64
2, 131280, Note_off_c, 0, 71, 64
2, 132480, Note_on_c, 0, 68, 73
2, 132540, Note_off_c, 0, 68, 64
2, 132540, Note_on_c, 0, 67, 74
2, 132600, Note_off_c, 0, 67, 64
2, 132600, Note_on_c, 0, 68, 74
2, 132660, Note_off_c, 0, 68, 64
2, 132660, Note_on_c, 0, 67, 76
2, 132720, Note_off_c, 0, 67, 64
2, 132720, Note_on_c, 0, 68, 74
2, 132780, Note_off_c, 0, 68, 64
2, 132780, Note_on_c, 0, 67, 71
2, 132840, Note_off_c, 0, 67, 64
2, 132840, Note_on_c, 0, 68, 70
2, 132960, Note_off_c, 0, 68, 64
2, 132960, Note_on_c, 0, 67, 79
2, 133200, Note_off_c, 0, 67, 64
2, 133200, Note_on_c, 0, 67, 73
2, 133680, Note_off_c, 0, 67, 64
2, 133680, Note_on_c, 0, 72, 70
2, 133920, Note_off_c, 0, 72, 64
2, 133920, Note_on_c, 0, 62, 70
2, 133920, Note_on_c, 0, 72, 75
2, 134280, Note_off_c, 0, 62, 64
2, 134280, Note_on_c, 0, 63, 76
2, 134400, Note_off_c, 0, 63, 64
2, 134400, Note_on_c, 0, 62, 76
2, 134640, Note_off_c, 0, 62, 64
2, 134640, Note_on_c, 0, 62, 79
2, 134880, Note_off_c, 0, 72, 64
2, 134880, Note_off_c, 0, 62, 64
2, 134880, Note_on_c, 0, 70, 78
2, 135120, Note_off_c, 0, 70, 64
2, 135120, Note_on_c, 0, 68, 70
2, 135360, Note_off_c, 0, 68, 64
2, 135360, Note_on_c, 0, 59, 49
2, 135360, Note_on_c, 0, 62, 48
2, 135360, Note_on_c, 0, 67, 51
2, 136320, Note_off_c, 0, 59, 64
2, 136320, Note_off_c, 0, 62, 64
2, 136320, Note_on_c, 0, 63, 51
2, 136320, Note_on_c, 0, 60, 49
2, 136560, Note_off_c, 0, 63, 64
2, 136560, Note_off_c, 0, 60, 64
2, 136560, Note_on_c, 0, 65, 46
2, 136560, Note_on_c, 0, 62, 50
2, 136800, Note_off_c, 0, 65, 64
2, 136800, Note_off_c, 0, 62, 64
2, 136800, Note_on_c, 0, 65, 47
2, 136800, Note_on_c, 0, 60, 50
2, 137520, Note_off_c, 0, 65, 64
2, 137520, Note_off_c, 0, 60, 64
2, 137520, Note_on_c, 0, 60, 53
2, 137520, Note_on_c, 0, 64, 47
2, 137760, Note_off_c, 0, 67, 64
2, 137760, Note_off_c, 0, 64, 64
2, 137760, Note_off_c, 0, 60, 64
2, 137760, Note_on_c, 0, 68, 50
2, 137760, Note_on_c, 0, 65, 50
2, 138000, Note_off_c, 0, 68, 64
2, 138000, Note_off_c, 0, 65, 64
2, 138000, Note_on_c, 0, 70, 49
2, 138000, Note_on_c, 0, 67, 47
2, 138240, Note_off_c, 0, 70, 64
2, 138240, Note_off_c, 0, 67, 64
2, 138240, Note_on_c, 0, 68, 72
2, 138240, Note_on_c, 0, 72, 72
2, 138300, Note_off_c, 0, 72, 64
2, 138300, Note_on_c, 0, 73, 72
2, 138360, Note_off_c, 0, 73, 64
2, 138360, Note_on_c, 0, 72, 70
2, 138420, Note_off_c, 0, 72, 64
2, 138420, Note_on_c, 0, 73, 70
2, 138480, Note_off_c, 0, 73, 64
2, 138480, Note_on_c, 0, 72, 74
2, 138540, Note_off_c, 0, 72, 64
2, 138540, Note_on_c, 0, 73, 79
2, 138600, Note_off_c, 0, 68, 64
2, 138600, Note_off_c, 0, 73, 64
2, 138600, Note_on_c, 0, 73, 75
2, 138720, Note_off_c, 0, 73, 64
2, 138720, Note_on_c, 0, 72, 75
2, 138960, Note_off_c, 0, 72, 64
2, 138960, Note_on_c, 0, 72, 70
2, 139440, Note_off_c, 0, 72, 64
2, 139440, Note_on_c, 0, 77, 76
2, 139680, Note_off_c, 0, 77, 64
2, 139680, Note_on_c, 0, 67, 72
2, 139680, Note_on_c, 0, 77, 73
2, 140040, Note_off_c, 0, 67, 64
2, 140040, Note_on_c, 0, 68, 71
2, 140160, Note_off_c, 0, 68, 64
2, 140160, Note_on_c, 0, 67, 73
2, 140400, Note_off_c, 0, 67, 64
2, 140400, Note_on_c, 0, 67, 70
2, 140640, Note_off_c, 0, 77, 64
2, 140640, Note_off_c, 0, 67, 64
2, 140640, Note_on_c, 0, 75, 72
2, 140880, Note_off_c, 0, 75, 64
2, 140880, Note_on_c, 0, 73, 78
2, 141120, Note_off_c, 0, 73, 64
2, 141120, Note_on_c, 0, 64, 48
2, 141120, Note_on_c, 0, 67, 53
2, 141120, Note_on_c, 0, 72, 51
2, 142080, Note_off_c, 0, 64, 64
2, 142080, Note_off_c, 0, 67, 64
2, 142080, Note_on_c, 0, 68, 53
2, 142080, Note_on_c, 0, 65, 51
2, 142320, Note_off_c, 0, 68, 64
2, 142320, Note_off_c, 0, 65, 64
2, 142320, Note_on_c, 0, 70, 45
2, 142320, Note_on_c, 0, 67, 50
2, 142560, Note_off_c, 0, 72, 64
2, 142560, Note_off_c, 0, 67, 64
2, 142560, Note_off_c, 0, 70, 64
2, 142560, Note_on_c, 0, 67, 71
2, 142560, Note_on_c, 0, 70, 72
2, 142920, Note_off_c, 0, 67, 64
2, 142920, Note_off_c, 0, 70, 64
2, 142920, Note_on_c, 0, 68, 74
2, 142920, Note_on_c, 0, 65, 71
2, 143040, Note_off_c, 0, 68, 64
2, 143040, Note_off_c, 0, 65, 64
2, 143040, Note_on_c, 0, 67, 70
2, 143040, Note_on_c, 0, 64, 76
2, 143280, Note_off_c, 0, 67, 64
2, 143280, Note_off_c, 0, 64, 64
2, 143280, Note_on_c, 0, 68, 76
2, 143280, Note_on_c, 0, 65, 73
2, 144360, Note_off_c, 0, 68, 64
2, 144360, Note_off_c, 0, 65, 64
2, 144360, Note_on_c, 0, 67, 54
2, 144360, Note_on_c, 0, 64, 48
2, 144480, Note_off_c, 0, 67, 64
2, 144480, Note_off_c, 0, 64, 64
2, 144480, Note_on_c, 0, 68, 49
2, 144480, Note_on_c, 0, 65, 47
2, 144720, Note_off_c, 0, 68, 64
2, 144720, Note_off_c, 0, 65, 64
2, 144720, Note_on_c, 0, 67, 45
2, 144720, Note_on_c, 0, 70, 50
2, 144960, Note_off_c, 0, 67, 64
2, 144960, Note_off_c, 0, 70, 64
2, 144960, Note_on_c, 0, 65, 46
2, 144960, Note_on_c, 0, 68, 46
2, 145200, Note_off_c, 0, 65, 64
2, 145200, Note_off_c, 0, 68, 64
2, 145200, Note_on_c, 0, 64, 54
2, 145200, Note_on_c, 0, 67, 50
2, 145440, Note_off_c, 0, 64, 64
2, 145440, Note_off_c, 0, 67, 64
2, 145440, Note_on_c, 0, 64, 78
2, 145440, Note_on_c, 0, 67, 75
2, 146160, Note_off_c, 0, 64, 64
2, 146160, Note_off_c, 0, 67, 64
2, 146160, Note_on_c, 0, 65, 70
2, 146400, Note_off_c, 0, 65, 64
2, 146880, Note_on_c, 0, 72, 45
2, 147120, Note_off_c, 0, 72, 64
2, 147360, Note_on_c, 0, 72, 52
2, 147600, Note_off_c, 0, 72, 64
2, 147600, Note_on_c, 0, 72, 54
2, 147840, Note_off_c, 0, 72, 64
2, 148080, Note_on_c, 0, 72, 47
2, 148320, Note_off_c, 0, 72, 64
2, 148320, Note_on_c, 0, 72, 70
2, 149040, Note_off_c, 0, 72, 64
2, 149040, Note_on_c, 0, 70, 70
2, 149280, Note_off_c, 0, 70, 64
2, 149520, Note_on_c, 0, 68, 74
2, 149760, Note_off_c, 0, 68, 64
2, 149760, Note_on_c, 0, 66, 71
2, 150000, Note_off_c, 0, 66, 64
2, 150240, Note_on_c, 0, 70, 71
2, 150480, Note_off_c, 0, 70, 64
2, 150480, Note_on_c, 0, 66, 72
2, 150720, Note_off_c, 0, 66, 64
2, 150960, Note_on_c, 0, 65, 75
2, 151200, Note_off_c, 0, 65, 64
2, 151200, Note_on_c, 0, 65, 48
2, 151920, Note_off_c, 0, 65, 64
2, 151920, Note_on_c, 0, 64, 45
2, 152160, Note_off_c, 0, 64, 64
2, 152400, Note_on_c, 0, 72, 52
2, 152640, Note_off_c, 0, 72, 64
2, 152640, Note_on_c, 0, 71, 70
2, 153360, Note_off_c, 0, 71, 64
2, 153360, Note_on_c, 0, 77, 74
2, 153600, Note_off_c, 0, 77, 64
2, 154080, Note_on_c, 0, 76, 52
2, 154800, Note_off_c, 0, 76, 64
2, 154800, Note_on_c, 0, 79, 47
2, 155040, Note_off_c, 0, 79, 64
2, 155520, Note_on_c, 0, 80, 71
2, 156240, Note_off_c, 0, 80, 64
2, 156240, Note_on_c, 0, 77, 71
2, 156480, Note_off_c, 0, 77, 64
2, 156960, Note_on_c, 0, 85, 54
2, 157680, Note_off_c, 0, 85, 64
2, 157680, Note_on_c, 0, 76, 45
2, 157920, Note_off_c, 0, 76, 64
2, 158640, Note_on_c, 0, 77, 50
2, 158880, Note_off_c, 0, 77, 64
2, 158880, Note_on_c, 0, 77, 53
2, 159120, Note_off_c, 0, 77, 64
2, 159360, Note_on_c, 0, 73, 50
2, 159600, Note_off_c, 0, 73, 64
2, 159600, Note_on_c, 0, 73, 46
2, 159840, Note_off_c, 0, 73, 64
2, 160080, Note_on_c, 0, 72, 47
2, 160320, Note_off_c, 0, 72, 64
2, 160320, Note_on_c, 0, 72, 50
2, 160560, Note_off_c, 0, 72, 64
2, 160800, Note_on_c, 0, 76, 53
2, 161040, Note_off_c, 0, 76, 64
2, 161040, Note_on_c, 0, 76, 50
2, 161280, Note_off_c, 0, 76, 64
2, 161280, Note_on_c, 0, 77, 71
2, 161760, Note_off_c, 0, 77, 64
2, 161760, Note_on_c, 0, 84, 72
2, 161880, Note_off_c, 0, 84, 64
2, 161880, Note_on_c, 0, 80, 71
2, 162000, Note_off_c, 0, 80, 64
2, 162000, Note_on_c, 0, 80, 79
2, 162120, Note_off_c, 0, 80, 64
2, 162120, Note_on_c, 0, 79, 71
2, 162240, Note_off_c, 0, 79, 64
2, 162240, Note_on_c, 0, 85, 79
2, 162360, Note_off_c, 0, 85, 64
2, 162360, Note_on_c, 0, 82, 79
2, 162480, Note_off_c, 0, 82, 64
2, 162480, Note_on_c, 0, 82, 78
2, 162600, Note_off_c, 0, 82, 64
2, 162600, Note_on_c, 0, 79, 76
2, 162720, Note_off_c, 0, 79, 64
2, 162720, Note_on_c, 0, 77, 45
2, 163440, Note_off_c, 0, 77, 64
2, 163440, Note_on_c, 0, 78, 76
2, 163500, Note_off_c, 0, 78, 64
2, 163500, Note_on_c, 0, 79, 71
2, 163560, Note_off_c, 0, 79, 64
2, 163560, Note_on_c, 0, 78, 74
2, 163620, Note_off_c, 0, 78, 64
2, 163620, Note_on_c, 0, 79, 74
2, 163680, Note_off_c, 0, 79, 64
2, 163680, Note_on_c, 0, 78, 79
2, 163740, Note_off_c, 0, 78, 64
2, 163740, Note_on_c, 0, 79, 75
2, 163800, Note_off_c, 0, 79, 64
2, 163800, Note_on_c, 0, 78, 79
2, 163860, Note_off_c, 0, 78, 64
2, 163860, Note_on_c, 0, 79, 71
2, 163920, Note_off_c, 0, 79, 64
2, 163920, Note_on_c, 0, 78, 77
2, 163980, Note_off_c, 0, 78, 64
2, 163980, Note_on_c, 0, 79, 70
2, 164040, Note_off_c, 0, 79, 64
2, 164040, Note_on_c, 0, 78, 79
2, 164100, Note_off_c, 0, 78, 64
2, 164100, Note_on_c, 0, 79, 77
2, 164160, Note_off_c, 0, 79, 64
2, 164160, Note_on_c, 0, 77, 46
2, 164400, Note_off_c, 0, 77, 64
2, 164400, Note_on_c, 0, 79, 45
2, 164640, Note_off_c, 0, 79, 64
2, 164640, Note_on_c, 0, 80, 51
2, 164880, Note_off_c, 0, 80, 64
2, 164880, Note_on_c, 0, 69, 54
2, 165120, Note_off_c, 0, 69, 64
2, 165120, Note_on_c, 0, 70, 54
2, 165360, Note_off_c, 0, 70, 64
2, 165360, Note_on_c, 0, 71, 52
2, 165600, Note_off_c, 0, 71, 64
2, 165600, Note_on_c, 0, 72, 77
2, 165720, Note_off_c, 0, 72, 64
2, 165720, Note_on_c, 0, 73, 72
2, 165840, Note_off_c, 0, 73, 64
2, 165840, Note_on_c, 0, 74, 74
2, 165960, Note_off_c, 0, 74, 64
2, 165960, Note_on_c, 0, 75, 70
2, 166080, Note_off_c, 0, 75, 64
2, 166080, Note_on_c, 0, 76, 71
2, 166200, Note_off_c, 0, 76, 64
2, 166200, Note_on_c, 0, 77, 72
2, 166320, Note_off_c, 0, 77, 64
2, 166320, Note_on_c, 0, 67, 75
2, 166380, Note_off_c, 0, 67, 64
2, 166380, Note_on_c, 0, 68, 77
2, 166440, Note_off_c, 0, 68, 64
2, 166440, Note_on_c, 0, 67, 78
2, 166500, Note_off_c, 0, 67, 64
2, 166500, Note_on_c, 0, 68, 71
2, 166560, Note_off_c, 0, 68, 64
2, 166560, Note_on_c, 0, 67, 78
2, 166620, Note_off_c, 0, 67, 64
2, 166620, Note_on_c, 0, 68, 74
2, 166680, Note_off_c, 0, 68, 64
2, 166680, Note_on_c, 0, 67, 70
2, 166740, Note_off_c, 0, 67, 64
2, 166740, Note_on_c, 0, 68, 76
2, 166800, Note_off_c, 0, 68, 64
2, 166800, Note_on_c, 0, 67, 72
2, 166860, Note_off_c, 0, 67, 64
2, 166860, Note_on_c, 0, 68, 78
2, 166920, Note_off_c, 0, 68, 64
2, 166920, Note_on_c, 0, 65, 70
2, 166980, Note_off_c, 0, 65, 64
2, 166980, Note_on_c, 0, 67, 75
2, 167040, Note_off_c, 0, 67, 64
2, 167040, Note_on_c, 0, 65, 78
2, 167280, Note_off_c, 0, 65, 64
2, 167520, Note_on_c, 0, 65, 48
2, 167520, Note_on_c, 0, 63, 54
2, 167520, Note_on_c, 0, 60, 49
2, 167760, Note_off_c, 0, 65, 64
2, 167760, Note_off_c, 0, 60, 64
2, 167760, Note_off_c, 0, 63, 64
2, 167760, Note_on_c, 0, 65, 54
2, 167760, Note_on_c, 0, 61, 48
2, 167760, Note_on_c, 0, 58, 50
2, 168000, Note_off_c, 0, 65, 64
2, 168000, Note_off_c, 0, 58, 64
2, 168000, Note_off_c, 0, 61, 64
2, 168240, Note_on_c, 0, 73, 79
2, 168240, Note_on_c, 0, 65, 74
2, 168480, Note_off_c, 0, 73, 64
2, 168480, Note_off_c, 0, 65, 64
2, 168480, Note_on_c, 0, 68, 74
2, 168480, Note_on_c, 0, 65, 75
2, 168480, Note_on_c, 0, 60, 77
2, 168840, Note_off_c, 0, 68, 64
2, 168840, Note_off_c, 0, 65, 64
2, 168840, Note_on_c, 0, 70, 73
2, 168840, Note_on_c, 0, 67, 74
2, 168960, Note_off_c, 0, 60, 64
2, 168960, Note_off_c, 0, 67, 64
2, 168960, Note_off_c, 0, 70, 64
2, 168960, Note_on_c, 0, 67, 76
2, 168960, Note_on_c, 0, 64, 72
2, 168960, Note_on_c, 0, 58, 71
2, 169200, Note_off_c, 0, 67, 64
2, 169200, Note_off_c, 0, 58, 64
2, 169200, Note_off_c, 0, 64, 64
2, 169200, Note_on_c, 0, 65, 76
2, 169200, Note_on_c, 0, 56, 75
2, 169440, Note_off_c, 0, 65, 64
2, 169440, Note_off_c, 0, 56, 64
2, 169680, Note_on_c, 0, 75, 46
2, 169680, Note_on_c, 0, 66, 53
2, 169920, Note_off_c, 0, 75, 64
2, 169920, Note_off_c, 0, 66, 64
2, 169920, Note_on_c, 0, 73, 49
2, 169920, Note_on_c, 0, 65, 45
2, 170160, Note_off_c, 0, 73, 64
2, 170160, Note_off_c, 0, 65, 64
2, 170400, Note_on_c, 0, 77, 73
2, 170400, Note_on_c, 0, 68, 73
2, 170640, Note_off_c, 0, 77, 64
2, 170640, Note_off_c, 0, 68, 64
2, 170640, Note_on_c, 0, 68, 75
2, 170640, Note_on_c, 0, 65, 79
2, 171000, Note_off_c, 0, 68, 64
2, 171000, Note_off_c, 0, 65, 64
2, 171000, Note_on_c, 0, 70, 78
2, 171000, Note_on_c, 0, 67, 72
2, 171120, Note_off_c, 0, 70, 64
2, 171120, Note_off_c, 0, 67, 64
2, 171120, Note_on_c, 0, 67, 72
2, 171120, Note_on_c, 0, 64, 74
2, 171360, Note_off_c, 0, 67, 64
2, 171360, Note_off_c, 0, 64, 64
2, 171360, Note_on_c, 0, 67, 76
2, 171360, Note_on_c, 0, 64, 78
2, 171360, Note_on_c, 0, 58, 77
2, 172080, Note_off_c, 0, 67, 64
2, 172080, Note_off_c, 0, 58, 64
2, 172080, Note_off_c, 0, 64, 64
2, 172080, Note_on_c, 0, 65, 73
2, 172080, Note_on_c, 0, 56, 74
2, 172320, Note_off_c, 0, 65, 64
2, 172320, Note_off_c, 0, 56, 64
2, 172320, End_track
3, 0, Start_track
3, 0, Text_t, "Left Hand"
3, 0, Program_c, 1, 0
3, 0, Note_on_c, 1, 56, 73
3, 0, Note_on_c, 1, 53, 72
3, 480, Note_off_c, 1, 56, 64
3, 480, Note_off_c, 1, 53, 64
3, 1440, Note_on_c, 1, 61, 71
3, 1440, Note_on_c, 1, 58, 72
3, 2400, Note_off_c, 1, 61, 64
3, 2400, Note_off_c, 1, 58, 64
3, 2880, Note_on_c, 1, 60, 53
3, 3240, Note_off_c, 1, 60, 64
3, 3240, Note_on_c, 1, 61, 48
3, 3360, Note_off_c, 1, 61, 64
3, 3360, Note_on_c, 1, 60, 48
3, 3600, Note_off_c, 1, 60, 64
3, 3600, Note_on_c, 1, 60, 47
3, 4320, Note_off_c, 1, 60, 64
3, 4320, Note_on_c, 1, 49, 79
3, 4320, Note_on_c, 1, 61, 76
3, 5400, Note_off_c, 1, 61, 64
3, 5400, Note_on_c, 1, 60, 74
3, 5520, Note_off_c, 1, 60, 64
3, 5520, Note_on_c, 1, 59, 73
3, 5760, Note_off_c, 1, 49, 64
3, 5760, Note_off_c, 1, 59, 64
3, 5760, Note_on_c, 1, 48, 46
3, 5760, Note_on_c, 1, 60, 48
3, 7200, Note_off_c, 1, 48, 64
3, 7200, Note_off_c, 1, 60, 64
3, 7200, Note_on_c, 1, 49, 77
3, 7200, Note_on_c, 1, 61, 76
3, 8280, Note_off_c, 1, 61, 64
3, 8280, Note_on_c, 1, 60, 75
3, 8400, Note_off_c, 1, 60, 64
3, 8400, Note_on_c, 1, 59, 75
3, 8640, Note_off_c, 1, 49, 64
3, 8640, Note_off_c, 1, 59, 64
3, 8640, Note_on_c, 1, 48, 52
3, 8640, Note_on_c, 1, 60, 46
3, 9840, Note_off_c, 1, 60, 64
3, 9840, Note_on_c, 1, 58, 47
3, 10080, Note_off_c, 1, 48, 64
3, 10080, Note_off_c, 1, 58, 64
3, 10080, Note_on_c, 1, 53, 72
3, 10080, Note_on_c, 1, 58, 78
3, 10800, Note_off_c, 1, 58, 64
3, 10800, Note_on_c, 1, 56, 72
3, 11040, Note_off_c, 1, 53, 64
3, 11040, Note_off_c, 1, 56, 64
3, 11520, Note_on_c, 1, 51, 50
3, 11640, Note_off_c, 1, 51, 64
3, 11640, Note_on_c, 1, 56, 47
3, 11760, Note_off_c, 1, 56, 64
3, 11760, Note_on_c, 1, 60, 48
3, 11880, Note_off_c, 1, 60, 64
3, 11880, Note_on_c, 1, 56, 47
3, 12000, Note_off_c, 1, 56, 64
3, 12000, Note_on_c, 1, 51, 48
3, 12120, Note_off_c, 1, 51, 64
3, 12120, Note_on_c, 1, 56, 49
3, 12240, Note_off_c, 1, 56, 64
3, 12240, Note_on_c, 1, 51, 45
3, 12360, Note_off_c, 1, 51, 64
3, 12360, Note_on_c, 1, 55, 52
3, 12480, Note_off_c, 1, 55, 64
3, 12480, Note_on_c, 1, 58, 46
3, 12600, Note_off_c, 1, 58, 64
3, 12600, Note_on_c, 1, 55, 51
3, 12720, Note_off_c, 1, 55, 64
3, 12720, Note_on_c, 1, 51, 45
3, 12840, Note_off_c, 1, 51, 64
3, 12840, Note_on_c, 1, 55, 54
3, 12960, Note_off_c, 1, 55, 64
3, 12960, Note_on_c, 1, 51, 77
3, 13080, Note_off_c, 1, 51, 64
3, 13080, Note_on_c, 1, 55, 77
3, 13200, Note_off_c, 1, 55, 64
3, 13200, Note_on_c, 1, 58, 79
3, 13320, Note_off_c, 1, 58, 64
3, 13320, Note_on_c, 1, 55, 75
3, 13440, Note_off_c, 1, 55, 64
3, 13440, Note_on_c, 1, 51, 76
3, 13560, Note_off_c, 1, 51, 64
3, 13560, Note_on_c, 1, 55, 76
3, 13680, Note_off_c, 1, 55, 64
3, 13680, Note_on_c, 1, 51, 73
3, 13800, Note_off_c, 1, 51, 64
3, 13800, Note_on_c, 1, 56, 77
3, 13920, Note_off_c, 1, 56, 64
3, 13920, Note_on_c, 1, 60, 72
3, 14040, Note_off_c, 1, 60, 64
3, 14040, Note_on_c, 1, 56, 74
3, 14160, Note_off_c, 1, 56, 64
3, 14160, Note_on_c, 1, 51, 71
3, 14280, Note_off_c, 1, 51, 64
3, 14280, Note_on_c, 1, 56, 74
3, 14400, Note_off_c, 1, 56, 64
3, 14400, Note_on_c, 1, 53, 77
3, 14520, Note_off_c, 1, 53, 64
3, 14520, Note_on_c, 1, 56, 77
3, 14640, Note_off_c, 1, 56, 64
3, 14640, Note_on_c, 1, 61, 72
3, 14760, Note_off_c, 1, 61, 64
3, 14760, Note_on_c, 1, 56, 76
3, 14880, Note_off_c, 1, 56, 64
3, 14880, Note_on_c, 1, 51, 71
3, 15000, Note_off_c, 1, 51, 64
3, 15000, Note_on_c, 1, 56, 72
3, 15120, Note_off_c, 1, 56, 64
3, 15120, Note_on_c, 1, 50, 71
3, 15240, Note_off_c, 1, 50, 64
3, 15240, Note_on_c, 1, 53, 73
3, 15360, Note_off_c, 1, 53, 64
3, 15360, Note_on_c, 1, 58, 71
3, 15480, Note_off_c, 1, 58, 64
3, 15480, Note_on_c, 1, 53, 77
3, 15600, Note_off_c, 1, 53, 64
3, 15600, Note_on_c, 1, 50, 45
3, 15720, Note_off_c, 1, 50, 64
3, 15720, Note_on_c, 1, 53, 49
3, 15840, Note_off_c, 1, 53, 64
3, 15840, Note_on_c, 1, 51, 49
3, 15960, Note_off_c, 1, 51, 64
3, 15960, Note_on_c, 1, 56, 50
3, 16080, Note_off_c, 1, 56, 64
3, 16080, Note_on_c, 1, 60, 49
3, 16200, Note_off_c, 1, 60, 64
3, 16200, Note_on_c, 1, 56, 47
3, 16320, Note_off_c, 1, 56, 64
3, 16320, Note_on_c, 1, 51, 49
3, 16440, Note_off_c, 1, 51, 64
3, 16440, Note_on_c, 1, 56, 50
3, 16560, Note_off_c, 1, 56, 64
3, 16560, Note_on_c, 1, 51, 49
3, 16680, Note_off_c, 1, 51, 64
3, 16680, Note_on_c, 1, 55, 47
3, 16800, Note_off_c, 1, 55, 64
3, 16800, Note_on_c, 1, 58, 48
3, 16920, Note_off_c, 1, 58, 64
3, 16920, Note_on_c, 1, 55, 46
3, 17040, Note_off_c, 1, 55, 64
3, 17040, Note_on_c, 1, 51, 49
3, 17160, Note_off_c, 1, 51, 64
3, 17160, Note_on_c, 1, 55, 46
3, 17280, Note_off_c, 1, 55, 64
3, 17280, Note_on_c, 1, 52, 71
3, 17400, Note_off_c, 1, 52, 64
3, 17400, Note_on_c, 1, 56, 74
3, 17520, Note_off_c, 1, 56, 64
3, 17520, Note_on_c, 1, 59, 79
3, 17640, Note_off_c, 1, 59, 64
3, 17640, Note_on_c, 1, 56, 76
3, 17760, Note_off_c, 1, 56, 64
3, 17760, Note_on_c, 1, 52, 77
3, 17880, Note_off_c, 1, 52, 64
3, 17880, Note_on_c, 1, 56, 77
3, 18000, Note_off_c, 1, 56, 64
3, 18000, Note_on_c, 1, 52, 75
3, 18120, Note_off_c, 1, 52, 64
3, 18120, Note_on_c, 1, 56, 76
3, 18240, Note_off_c, 1, 56, 64
3, 18240, Note_on_c, 1, 59, 70
3, 18360, Note_off_c, 1, 59, 64
3, 18360, Note_on_c, 1, 56, 77
3, 18480, Note_off_c, 1, 56, 64
3, 18480, Note_on_c, 1, 52, 75
3, 18600, Note_off_c, 1, 52, 64
3, 18600, Note_on_c, 1, 56, 75
3, 18720, Note_off_c, 1, 56, 64
3, 18720, Note_on_c, 1, 51, 47
3, 18840, Note_off_c, 1, 51, 64
3, 18840, Note_on_c, 1, 55, 45
3, 18960, Note_off_c, 1, 55, 64
3, 18960, Note_on_c, 1, 58, 50
3, 19080, Note_off_c, 1, 58, 64
3, 19080, Note_on_c, 1, 55, 45
3, 19200, Note_off_c, 1, 55, 64
3, 19200, Note_on_c, 1, 51, 54
3, 19320, Note_off_c, 1, 51, 64
3, 19320, Note_on_c, 1, 55, 53
3, 19440, Note_off_c, 1, 55, 64
3, 19440, Note_on_c, 1, 51, 47
3, 19560, Note_off_c, 1, 51, 64
3, 19560, Note_on_c, 1, 55, 45
3, 19680, Note_off_c, 1, 55, 64
3, 19680, Note_on_c, 1, 58, 46
3, 19800, Note_off_c, 1, 58, 64
3, 19800, Note_on_c, 1, 55, 48
3, 19920, Note_off_c, 1, 55, 64
3, 19920, Note_on_c, 1, 63, 48
3, 20040, Note_off_c, 1, 63, 64
3, 20040, Note_on_c, 1, 58, 46
3, 20160, Note_off_c, 1, 58, 64
3, 20160, Note_on_c, 1, 62, 72
3, 20280, Note_off_c, 1, 62, 64
3, 20280, Note_on_c, 1, 65, 77
3, 20400, Note_off_c, 1, 65, 64
3, 20400, Note_on_c, 1, 68, 72
3, 20520, Note_off_c, 1, 68, 64
3, 20520, Note_on_c, 1, 65, 77
3, 20640, Note_off_c, 1, 65, 64
3, 20640, Note_on_c, 1, 62, 77
3, 20760, Note_off_c, 1, 62, 64
3, 20760, Note_on_c, 1, 65, 78
3, 20880, Note_off_c, 1, 65, 64
3, 20880, Note_on_c, 1, 62, 78
3, 21000, Note_off_c, 1, 62, 64
3, 21000, Note_on_c, 1, 65, 76
3, 21120, Note_off_c, 1, 65, 64
3, 21120, Note_on_c, 1, 71, 76
3, 21240, Note_off_c, 1, 71, 64
3, 21240, Note_on_c, 1, 65, 75
3, 21360, Note_off_c, 1, 65, 64
3, 21360, Note_on_c, 1, 62, 76
3, 21480, Note_off_c, 1, 62, 64
3, 21480, Note_on_c, 1, 65, 70
3, 21600, Note_off_c, 1, 65, 64
3, 21600, Note_on_c, 1, 61, 50
3, 21720, Note_off_c, 1, 61, 64
3, 21720, Note_on_c, 1, 67, 45
3, 21840, Note_off_c, 1, 67, 64
3, 21840, Note_on_c, 1, 70, 47
3, 21960, Note_off_c, 1, 70, 64
3, 21960, Note_on_c, 1, 67, 46
3, 22080, Note_off_c, 1, 67, 64
3, 22080, Note_on_c, 1, 61, 49
3, 22200, Note_off_c, 1, 61, 64
3, 22200, Note_on_c, 1, 67, 47
3, 22320, Note_off_c, 1, 67, 64
3, 22320, Note_on_c, 1, 61, 47
3, 22440, Note_off_c, 1, 61, 64
3, 22440, Note_on_c, 1, 63, 47
3, 22560, Note_off_c, 1, 63, 64
3, 22560, Note_on_c, 1, 70, 54
3, 22680, Note_off_c, 1, 70, 64
3, 22680, Note_on_c, 1, 63, 54
3, 22800, Note_off_c, 1, 63, 64
3, 22800, Note_on_c, 1, 61, 48
3, 22920, Note_off_c, 1, 61, 64
3, 22920, Note_on_c, 1, 63, 51
3, 23040, Note_off_c, 1, 63, 64
3, 23040, Note_on_c, 1, 60, 54
3, 23160, Note_off_c, 1, 60, 64
3, 23160, Note_on_c, 1, 63, 45
3, 23280, Note_off_c, 1, 63, 64
3, 23280, Note_on_c, 1, 68, 54
3, 23400, Note_off_c, 1, 68, 64
3, 23400, Note_on_c, 1, 63, 48
3, 23520, Note_off_c, 1, 63, 64
3, 23520, Note_on_c, 1, 60, 47
3, 23640, Note_off_c, 1, 60, 64
3, 23640, Note_on_c, 1, 63, 53
3, 23760, Note_off_c, 1, 63, 64
3, 23760, Note_on_c, 1, 61, 54
3, 23880, Note_off_c, 1, 61, 64
3, 23880, Note_on_c, 1, 65, 54
3, 24000, Note_off_c, 1, 65, 64
3, 24000, Note_on_c, 1, 68, 46
3, 24120, Note_off_c, 1, 68, 64
3, 24120, Note_on_c, 1, 65, 48
3, 24240, Note_off_c, 1, 65, 64
3, 24240, Note_on_c, 1, 61, 47
3, 24360, Note_off_c, 1, 61, 64
3, 24360, Note_on_c, 1, 65, 45
3, 24480, Note_off_c, 1, 65, 64
3, 24480, Note_on_c, 1, 63, 47
3, 24600, Note_off_c, 1, 63, 64
3, 24600, Note_on_c, 1, 68, 46
3, 24720, Note_off_c, 1, 68, 64
3, 24720, Note_on_c, 1, 72, 48
3, 24840, Note_off_c, 1, 72, 64
3, 24840, Note_on_c, 1, 68, 46
3, 24960, Note_off_c, 1, 68, 64
3, 24960, Note_on_c, 1, 63, 54
3, 25080, Note_off_c, 1, 63, 64
3, 25080, Note_on_c, 1, 68, 47
3, 25200, Note_off_c, 1, 68, 64
3, 25200, Note_on_c, 1, 63, 51
3, 25320, Note_off_c, 1, 63, 64
3, 25320, Note_on_c, 1, 70, 54
3, 25440, Note_off_c, 1, 70, 64
3, 25440, Note_on_c, 1, 73, 51
3, 25560, Note_off_c, 1, 73, 64
3, 25560, Note_on_c, 1, 70, 49
3, 25680, Note_off_c, 1, 70, 64
3, 25680, Note_on_c, 1, 73, 45
3, 25800, Note_off_c, 1, 73, 64
3, 25800, Note_on_c, 1, 70, 49
3, 25920, Note_off_c, 1, 70, 64
3, 25920, Note_on_c, 1, 65, 75
3, 26040, Note_off_c, 1, 65, 64
3, 26040, Note_on_c, 1, 68, 76
3, 26160, Note_off_c, 1, 68, 64
3, 26160, Note_on_c, 1, 72, 72
3, 26280, Note_off_c, 1, 72, 64
3, 26280, Note_on_c, 1, 68, 76
3, 26400, Note_off_c, 1, 68, 64
3, 26400, Note_on_c, 1, 65, 70
3, 26520, Note_off_c, 1, 65, 64
3, 26520, Note_on_c, 1, 68, 77
3, 26640, Note_off_c, 1, 68, 64
3, 26640, Note_on_c, 1, 61, 74
3, 26760, Note_off_c, 1, 61, 64
3, 26760, Note_on_c, 1, 65, 74
3, 26880, Note_off_c, 1, 65, 64
3, 26880, Note_on_c, 1, 68, 76
3, 27000, Note_off_c, 1, 68, 64
3, 27000, Note_on_c, 1, 65, 71
3, 27120, Note_off_c, 1, 65, 64
3, 27120, Note_on_c, 1, 61, 71
3, 27240, Note_off_c, 1, 61, 64
3, 27240, Note_on_c, 1, 65, 70
3, 27360, Note_off_c, 1, 65, 64
3, 27360, Note_on_c, 1, 51, 79
3, 27480, Note_off_c, 1, 51, 64
3, 27480, Note_on_c, 1, 56, 73
3, 27600, Note_off_c, 1, 56, 64
3, 27600, Note_on_c, 1, 60, 79
3, 27720, Note_off_c, 1, 60, 64
3, 27720, Note_on_c, 1, 56, 76
3, 27840, Note_off_c, 1, 56, 64
3, 27840, Note_on_c, 1, 51, 76
3, 27960, Note_off_c, 1, 51, 64
3, 27960, Note_on_c, 1, 56, 71
3, 28080, Note_off_c, 1, 56, 64
3, 28080, Note_on_c, 1, 51, 75
3, 28200, Note_off_c, 1, 51, 64
3, 28200, Note_on_c, 1, 55, 72
3, 28320, Note_off_c, 1, 55, 64
3, 28320, Note_on_c, 1, 61, 72
3, 28440, Note_off_c, 1, 61, 64
3, 28440, Note_on_c, 1, 55, 70
3, 28560, Note_off_c, 1, 55, 64
3, 28560, Note_on_c, 1, 51, 77
3, 28680, Note_off_c, 1, 51, 64
3, 28680, Note_on_c, 1, 55, 73
3, 28800, Note_off_c, 1, 55, 64
3, 28800, Note_on_c, 1, 56, 73
3, 29040, Note_off_c, 1, 56, 64
3, 29280, Note_on_c, 1, 52, 47
3, 29520, Note_off_c, 1, 52, 64
3, 29520, Note_on_c, 1, 53, 47
3, 29760, Note_off_c, 1, 53, 64
3, 30000, Note_on_c, 1, 49, 74
3, 30240, Note_off_c, 1, 49, 64
3, 30240, Note_on_c, 1, 51, 73
3, 30720, Note_off_c, 1, 51, 64
3, 30720, Note_on_c, 1, 39, 76
3, 30960, Note_off_c, 1, 39, 64
3, 30960, Note_on_c, 1, 44, 75
3, 31200, Note_off_c, 1, 44, 64
3, 31440, Note_on_c, 1, 40, 53
3, 31680, Note_off_c, 1, 40, 64
3, 31680, Note_on_c, 1, 41, 53
3, 31920, Note_off_c, 1, 41, 64
3, 32160, Note_on_c, 1, 37, 77
3, 32400, Note_off_c, 1, 37, 64
3, 32400, Note_on_c, 1, 39, 76
3, 32880, Note_off_c, 1, 39, 64
3, 32880, Note_on_c, 1, 39, 79
3, 33120, Note_off_c, 1, 39, 64
3, 33120, Note_on_c, 1, 44, 72
3, 33840, Note_off_c, 1, 44, 64
3, 33840, Note_on_c, 1, 32, 77
3, 34080, Note_off_c, 1, 32, 64
3, 34560, Note_on_c, 1, 56, 73
3, 34560, Note_on_c, 1, 53, 72
3, 35040, Note_off_c, 1, 56, 64
3, 35040, Note_off_c, 1, 53, 64
3, 36000, Note_on_c, 1, 61, 71
3, 36000, Note_on_c, 1, 58, 72
3, 36960, Note_off_c, 1, 61, 64
3, 36960, Note_off_c, 1, 58, 64
3, 37440, Note_on_c, 1, 60, 53
3, 37800, Note_off_c, 1, 60, 64
3, 37800, Note_on_c, 1, 61, 48
3, 37920, Note_off_c, 1, 61, 64
3, 37920, Note_on_c, 1, 60, 48
3, 38160, Note_off_c, 1, 60, 64
3, 38160, Note_on_c, 1, 60, 47
3, 38880, Note_off_c, 1, 60, 64
3, 38880, Note_on_c, 1, 49, 79
3, 38880, Note_on_c, 1, 61, 76
3, 39960, Note_off_c, 1, 61, 64
3, 39960, Note_on_c, 1, 60, 74
3, 40080, Note_off_c, 1, 60, 64
3, 40080, Note_on_c, 1, 59, 73
3, 40320, Note_off_c, 1, 49, 64
3, 40320, Note_off_c, 1, 59, 64
3, 40320, Note_on_c, 1, 48, 46
3, 40320, Note_on_c, 1, 60, 48
3, 41760, Note_off_c, 1, 48, 64
3, 41760, Note_off_c, 1, 60, 64
3, 41760, Note_on_c, 1, 49, 77
3, 41760, Note_on_c, 1, 61, 76
3, 42840, Note_off_c, 1, 61, 64
3, 42840, Note_on_c, 1, 60, 75
3, 42960, Note_off_c, 1, 60, 64
3, 42960, Note_on_c, 1, 59, 75
3, 43200, Note_off_c, 1, 49, 64
3, 43200, Note_off_c, 1, 59, 64
3, 43200, Note_on_c, 1, 48, 52
3, 43200, Note_on_c, 1, 60, 46
3, 44400, Note_off_c, 1, 60, 64
3, 44400, Note_on_c, 1, 58, 47
3, 44640, Note_off_c, 1, 48, 64
3, 44640, Note_off_c, 1, 58, 64
3, 44640, Note_on_c, 1, 53, 72
3, 44640, Note_on_c, 1, 58, 78
3, 45360, Note_off_c, 1, 58, 64
3, 45360, Note_on_c, 1, 56, 72
3, 45600, Note_off_c, 1, 53, 64
3, 45600, Note_off_c, 1, 56, 64
3, 46080, Note_on_c, 1, 51, 50
3, 46200, Note_off_c, 1, 51, 64
3, 46200, Note_on_c, 1, 56, 47
3, 46320, Note_off_c, 1, 56, 64
3, 46320, Note_on_c, 1, 60, 48
3, 46440, Note_off_c, 1, 60, 64
3, 46440, Note_on_c, 1, 56, 47
3, 46560, Note_off_c, 1, 56, 64
3, 46560, Note_on_c, 1, 51, 48
3, 46680, Note_off_c, 1, 51, 64
3, 46680, Note_on_c, 1, 56, 49
3, 46800, Note_off_c, 1, 56, 64
3, 46800, Note_on_c, 1, 51, 45
3, 46920, Note_off_c, 1, 51, 64
3, 46920, Note_on_c, 1, 55, 52
3, 47040, Note_off_c, 1, 55, 64
3, 47040, Note_on_c, 1, 58, 46
3, 47160, Note_off_c, 1, 58, 64
3, 47160, Note_on_c, 1, 55, 51
3, 47280, Note_off_c, 1, 55, 64
3, 47280, Note_on_c, 1, 51, 45
3, 47400, Note_off_c, 1, 51, 64
3, 47400, Note_on_c, 1, 55, 54
3, 47520, Note_off_c, 1, 55, 64
3, 47520, Note_on_c, 1, 51, 77
3, 47640, Note_off_c, 1, 51, 64
3, 47640, Note_on_c, 1, 55, 77
3, 47760, Note_off_c, 1, 55, 64
3, 47760, Note_on_c, 1, 58, 79
3, 47880, Note_off_c, 1, 58, 64
3, 47880, Note_on_c, 1, 55, 75
3, 48000, Note_off_c, 1, 55, 64
3, 48000, Note_on_c, 1, 51, 76
3, 48120, Note_off_c, 1, 51, 64
3, 48120, Note_on_c, 1, 55, 76
3, 48240, Note_off_c, 1, 55, 64
3, 48240, Note_on_c, 1, 51, 73
3, 48360, Note_off_c, 1, 51, 64
3, 48360, Note_on_c, 1, 56, 77
3, 48480, Note_off_c, 1, 56, 64
3, 48480, Note_on_c, 1, 60, 72
3, 48600, Note_off_c, 1, 60, 64
3, 48600, Note_on_c, 1, 56, 74
3, 48720, Note_off_c, 1, 56, 64
3, 48720, Note_on_c, 1, 51, 71
3, 48840, Note_off_c, 1, 51, 64
3, 48840, Note_on_c, 1, 56, 74
3, 48960, Note_off_c, 1, 56, 64
3, 48960, Note_on_c, 1, 53, 77
3, 49080, Note_off_c, 1, 53, 64
3, 49080, Note_on_c, 1, 56, 77
3, 49200, Note_off_c, 1, 56, 64
3, 49200, Note_on_c, 1, 61, 72
3, 49320, Note_off_c, 1, 61, 64
3, 49320, Note_on_c, 1, 56, 76
3, 49440, Note_off_c, 1, 56, 64
3, 49440, Note_on_c, 1, 51, 71
3, 49560, Note_off_c, 1, 51, 64
3, 49560, Note_on_c, 1, 56, 72
3, 49680, Note_off_c, 1, 56, 64
3, 49680, Note_on_c, 1, 50, 71
3, 49800, Note_off_c, 1, 50, 64
3, 49800, Note_on_c, 1, 53, 73
3, 49920, Note_off_c, 1, 53, 64
3, 49920, Note_on_c, 1, 58, 71
3, 50040, Note_off_c, 1, 58, 64
3, 50040, Note_on_c, 1, 53, 77
3, 50160, Note_off_c, 1, 53, 64
3, 50160, Note_on_c, 1, 50, 45
3, 50280, Note_off_c, 1, 50, 64
3, 50280, Note_on_c, 1, 53, 49
3, 50400, Note_off_c, 1, 53, 64
3, 50400, Note_on_c, 1, 51, 49
3, 50520, Note_off_c, 1, 51, 64
3, 50520, Note_on_c, 1, 56, 50
3, 50640, Note_off_c, 1, 56, 64
3, 50640, Note_on_c, 1, 60, 49
3, 50760, Note_off_c, 1, 60, 64
3, 50760, Note_on_c, 1, 56, 47
3, 50880, Note_off_c, 1, 56, 64
3, 50880, Note_on_c, 1, 51, 49
3, 51000, Note_off_c, 1, 51, 64
3, 51000, Note_on_c, 1, 56, 50
3, 51120, Note_off_c, 1, 56, 64
3, 51120, Note_on_c, 1, 51, 49
3, 51240, Note_off_c, 1, 51, 64
3, 51240, Note_on_c, 1, 55, 47
3, 51360, Note_off_c, 1, 55, 64
3, 51360, Note_on_c, 1, 58, 48
3, 51480, Note_off_c, 1, 58, 64
3, 51480, Note_on_c, 1, 55, 46
3, 51600, Note_off_c, 1, 55, 64
3, 51600, Note_on_c, 1, 51, 49
3, 51720, Note_off_c, 1, 51, 64
3, 51720, Note_on_c, 1, 55, 46
3, 51840, Note_off_c, 1, 55, 64
3, 51840, Note_on_c, 1, 52, 71
3, 51960, Note_off_c, 1, 52, 64
3, 51960, Note_on_c, 1, 56, 74
3, 52080, Note_off_c, 1, 56, 64
3, 52080, Note_on_c, 1, 59, 79
3, 52200, Note_off_c, 1, 59, 64
3, 52200, Note_on_c, 1, 56, 76
3, 52320, Note_off_c, 1, 56, 64
3, 52320, Note_on_c, 1, 52, 77
3, 52440, Note_off_c, 1, 52, 64
3, 52440, Note_on_c, 1, 56, 77
3, 52560, Note_off_c, 1, 56, 64
3, 52560, Note_on_c, 1, 52, 75
3, 52680, Note_off_c, 1, 52, 64
3, 52680, Note_on_c, 1, 56, 76
3, 52800, Note_off_c, 1, 56, 64
3, 52800, Note_on_c, 1, 59, 70
3, 52920, Note_off_c, 1, 59, 64
3, 52920, Note_on_c, 1, 56, 77
3, 53040, Note_off_c, 1, 56, 64
3, 53040, Note_on_c, 1, 52, 75
3, 53160, Note_off_c, 1, 52, 64
3, 53160, Note_on_c, 1, 56, 75
3, 53280, Note_off_c, 1, 56, 64
3, 53280, Note_on_c, 1, 51, 47
3, 53400, Note_off_c, 1, 51, 64
3, 53400, Note_on_c, 1, 55, 45
3, 53520, Note_off_c, 1, 55, 64
3, 53520, Note_on_c, 1, 58, 50
3, 53640, Note_off_c, 1, 58, 64
3, 53640, Note_on_c, 1, 55, 45
3, 53760, Note_off_c, 1, 55, 64
3, 53760, Note_on_c, 1, 51, 54
3, 53880, Note_off_c, 1, 51, 64
3, 53880, Note_on_c, 1, 55, 53
3, 54000, Note_off_c, 1, 55, 64
3, 54000, Note_on_c, 1, 51, 47
3, 54120, Note_off_c, 1, 51, 64
3, 54120, Note_on_c, 1, 55, 45
3, 54240, Note_off_c, 1, 55, 64
3, 54240, Note_on_c, 1, 58, 46
3, 54360, Note_off_c, 1, 58, 64
3, 54360, Note_on_c, 1, 55, 48
3, 54480, Note_off_c, 1, 55, 64
3, 54480, Note_on_c, 1, 63, 48
3, 54600, Note_off_c, 1, 63, 64
3, 54600, Note_on_c, 1, 58, 46
3, 54720, Note_off_c, 1, 58, 64
3, 54720, Note_on_c, 1, 62, 72
3, 54840, Note_off_c, 1, 62, 64
3, 54840, Note_on_c, 1, 65, 77
3, 54960, Note_off_c, 1, 65, 64
3, 54960, Note_on_c, 1, 68, 72
3, 55080, Note_off_c, 1, 68, 64
3, 55080, Note_on_c, 1, 65, 77
3, 55200, Note_off_c, 1, 65, 64
3, 55200, Note_on_c, 1, 62, 77
3, 55320, Note_off_c, 1, 62, 64
3, 55320, Note_on_c, 1, 65, 78
3, 55440, Note_off_c, 1, 65, 64
3, 55440, Note_on_c, 1, 62, 78
3, 55560, Note_off_c, 1, 62, 64
3, 55560, Note_on_c, 1, 65, 76
3, 55680, Note_off_c, 1, 65, 64
3, 55680, Note_on_c, 1, 71, 76
3, 55800, Note_off_c, 1, 71, 64
3, 55800, Note_on_c, 1, 65, 75
3, 55920, Note_off_c, 1, 65, 64
3, 55920, Note_on_c, 1, 62, 76
3, 56040, Note_off_c, 1, 62, 64
3, 56040, Note_on_c, 1, 65, 70
3, 56160, Note_off_c, 1, 65, 64
3, 56160, Note_on_c, 1, 61, 50
3, 56280, Note_off_c, 1, 61, 64
3, 56280, Note_on_c, 1, 67, 45
3, 56400, Note_off_c, 1, 67, 64
3, 56400, Note_on_c, 1, 70, 47
3, 56520, Note_off_c, 1, 70, 64
3, 56520, Note_on_c, 1, 67, 46
3, 56640, Note_off_c, 1, 67, 64
3, 56640, Note_on_c, 1, 61, 49
3, 56760, Note_off_c, 1, 61, 64
3, 56760, Note_on_c, 1, 67, 47
3, 56880, Note_off_c, 1, 67, 64
3, 56880, Note_on_c, 1, 61, 47
3, 57000, Note_off_c, 1, 61, 64
3, 57000, Note_on_c, 1, 63, 47
3, 57120, Note_off_c, 1, 63, 64
3, 57120, Note_on_c, 1, 70, 54
3, 57240, Note_off_c, 1, 70, 64
3, 57240, Note_on_c, 1, 63, 54
3, 57360, Note_off_c, 1, 63, 64
3, 57360, Note_on_c, 1, 61, 48
3, 57480, Note_off_c, 1, 61, 64
3, 57480, Note_on_c, 1, 63, 51
3, 57600, Note_off_c, 1, 63, 64
3, 57600, Note_on_c, 1, 60, 54
3, 57720, Note_off_c, 1, 60, 64
3, 57720, Note_on_c, 1, 63, 45
3, 57840, Note_off_c, 1, 63, 64
3, 57840, Note_on_c, 1, 68, 54
3, 57960, Note_off_c, 1, 68, 64
3, 57960, Note_on_c, 1, 63, 48
3, 58080, Note_off_c, 1, 63, 64
3, 58080, Note_on_c, 1, 60, 47
3, 58200, Note_off_c, 1, 60, 64
3, 58200, Note_on_c, 1, 63, 53
3, 58320, Note_off_c, 1, 63, 64
3, 58320, Note_on_c, 1, 61, 54
3, 58440, Note_off_c, 1, 61, 64
3, 58440, Note_on_c, 1, 65, 54
3, 58560, Note_off_c, 1, 65, 64
3, 58560, Note_on_c, 1, 68, 46
3, 58680, Note_off_c, 1, 68, 64
3, 58680, Note_on_c, 1, 65, 48
3, 58800, Note_off_c, 1, 65, 64
3, 58800, Note_on_c, 1, 61, 47
3, 58920, Note_off_c, 1, 61, 64
3, 58920, Note_on_c, 1, 65, 45
3, 59040, Note_off_c, 1, 65, 64
3, 59040, Note_on_c, 1, 63, 47
3, 59160, Note_off_c, 1, 63, 64
3, 59160, Note_on_c, 1, 68, 46
3, 59280, Note_off_c, 1, 68, 64
3, 59280, Note_on_c, 1, 72, 48
3, 59400, Note_off_c, 1, 72, 64
3, 59400, Note_on_c, 1, 68, 46
3, 59520, Note_off_c, 1, 68, 64
3, 59520, Note_on_c, 1, 63, 54
3, 59640, Note_off_c, 1, 63, 64
3, 59640, Note_on_c, 1, 68, 47
3, 59760, Note_off_c, 1, 68, 64
3, 59760, Note_on_c, 1, 63, 51
3, 59880, Note_off_c, 1, 63, 64
3, 59880, Note_on_c, 1, 70, 54
3, 60000, Note_off_c, 1, 70, 64
3, 60000, Note_on_c, 1, 73, 51
3, 60120, Note_off_c, 1, 73, 64
3, 60120, Note_on_c, 1, 70, 49
3, 60240, Note_off_c, 1, 70, 64
3, 60240, Note_on_c, 1, 73, 45
3, 60360, Note_off_c, 1, 73, 64
3, 60360, Note_on_c, 1, 70, 49
3, 60480, Note_off_c, 1, 70, 64
3, 60480, Note_on_c, 1, 65, 75
3, 60600, Note_off_c, 1, 65, 64
3, 60600, Note_on_c, 1, 68, 76
3, 60720, Note_off_c, 1, 68, 64
3, 60720, Note_on_c, 1, 72, 72
3, 60840, Note_off_c, 1, 72, 64
3, 60840, Note_on_c, 1, 68, 76
3, 60960, Note_off_c, 1, 68, 64
3, 60960, Note_on_c, 1, 65, 70
3, 61080, Note_off_c, 1, 65, 64
3, 61080, Note_on_c, 1, 68, 77
3, 61200, Note_off_c, 1, 68, 64
3, 61200, Note_on_c, 1, 61, 74
3, 61320, Note_off_c, 1, 61, 64
3, 61320, Note_on_c, 1, 65, 74
3, 61440, Note_off_c, 1, 65, 64
3, 61440, Note_on_c, 1, 68, 76
3, 61560, Note_off_c, 1, 68, 64
3, 61560, Note_on_c, 1, 65, 71
3, 61680, Note_off_c, 1, 65, 64
3, 61680, Note_on_c, 1, 61, 71
3, 61800, Note_off_c, 1, 61, 64
3, 61800, Note_on_c, 1, 65, 70
3, 61920, Note_off_c, 1, 65, 64
3, 61920, Note_on_c, 1, 51, 79
3, 62040, Note_off_c, 1, 51, 64
3, 62040, Note_on_c, 1, 56, 73
3, 62160, Note_off_c, 1, 56, 64
3, 62160, Note_on_c, 1, 60, 79
3, 62280, Note_off_c, 1, 60, 64
3, 62280, Note_on_c, 1, 56, 76
3, 62400, Note_off_c, 1, 56, 64
3, 62400, Note_on_c, 1, 51, 76
3, 62520, Note_off_c, 1, 51, 64
3, 62520, Note_on_c, 1, 56, 71
3, 62640, Note_off_c, 1, 56, 64
3, 62640, Note_on_c, 1, 51, 75
3, 62760, Note_off_c, 1, 51, 64
3, 62760, Note_on_c, 1, 55, 72
3, 62880, Note_off_c, 1, 55, 64
3, 62880, Note_on_c, 1, 61, 72
3, 63000, Note_off_c, 1, 61, 64
3, 63000, Note_on_c, 1, 55, 70
3, 63120, Note_off_c, 1, 55, 64
3, 63120, Note_on_c, 1, 51, 77
3, 63240, Note_off_c, 1, 51, 64
3, 63240, Note_on_c, 1, 55, 73
3, 63360, Note_off_c, 1, 55, 64
3, 63360, Note_on_c, 1, 56, 73
3, 63600, Note_off_c, 1, 56, 64
3, 63840, Note_on_c, 1, 52, 47
3, 64080, Note_off_c, 1, 52, 64
3, 64080, Note_on_c, 1, 53, 47
3, 64320, Note_off_c, 1, 53, 64
3, 64560, Note_on_c, 1, 49, 74
3, 64800, Note_off_c, 1, 49, 64
3, 64800, Note_on_c, 1, 51, 73
3, 65280, Note_off_c, 1, 51, 64
3, 65280, Note_on_c, 1, 39, 76
3, 65520, Note_off_c, 1, 39, 64
3, 65520, Note_on_c, 1, 44, 75
3, 65760, Note_off_c, 1, 44, 64
3, 66000, Note_on_c, 1, 40, 53
3, 66240, Note_off_c, 1, 40, 64
3, 66240, Note_on_c, 1, 41, 53
3, 66480, Note_off_c, 1, 41, 64
3, 66720, Note_on_c, 1, 37, 77
3, 66960, Note_off_c, 1, 37, 64
3, 66960, Note_on_c, 1, 39, 76
3, 67440, Note_off_c, 1, 39, 64
3, 67440, Note_on_c, 1, 39, 79
3, 67680, Note_off_c, 1, 39, 64
3, 67680, Note_on_c, 1, 44, 72
3, 68400, Note_off_c, 1, 44, 64
3, 68400, Note_on_c, 1, 32, 77
3, 68640, Note_off_c, 1, 32, 64
3, 70560, Note_on_c, 1, 66, 74
3, 71040, Note_off_c, 1, 66, 64
3, 71040, Note_on_c, 1, 65, 74
3, 71280, Note_off_c, 1, 65, 64
3, 71280, Note_on_c, 1, 63, 72
3, 71520, Note_off_c, 1, 63, 64
3, 72000, Note_on_c, 1, 54, 50
3, 72480, Note_off_c, 1, 54, 64
3, 72480, Note_on_c, 1, 53, 47
3, 72720, Note_off_c, 1, 53, 64
3, 72720, Note_on_c, 1, 51, 45
3, 72960, Note_off_c, 1, 51, 64
3, 73440, Note_on_c, 1, 61, 74
3, 73440, Note_on_c, 1, 49, 78
3, 73680, Note_off_c, 1, 61, 64
3, 73680, Note_off_c, 1, 49, 64
3, 73680, Note_on_c, 1, 48, 74
3, 73680, Note_on_c, 1, 60, 73
3, 73920, Note_off_c, 1, 48, 64
3, 73920, Note_off_c, 1, 60, 64
3, 73920, Note_on_c, 1, 58, 71
3, 73920, Note_on_c, 1, 46, 79
3, 74160, Note_off_c, 1, 58, 64
3, 74160, Note_off_c, 1, 46, 64
3, 74160, Note_on_c, 1, 57, 70
3, 74160, Note_on_c, 1, 45, 76
3, 74400, Note_off_c, 1, 57, 64
3, 74400, Note_off_c, 1, 45, 64
3, 74880, Note_on_c, 1, 46, 46
3, 75120, Note_off_c, 1, 46, 64
3, 75720, Note_on_c, 1, 58, 48
3, 75840, Note_off_c, 1, 58, 64
3, 75840, Note_on_c, 1, 57, 49
3, 75960, Note_off_c, 1, 57, 64
3, 75960, Note_on_c, 1, 58, 53
3, 76080, Note_off_c, 1, 58, 64
3, 76080, Note_on_c, 1, 60, 47
3, 76200, Note_off_c, 1, 60, 64
3, 76200, Note_on_c, 1, 58, 49
3, 76320, Note_off_c, 1, 58, 64
3, 76320, Note_on_c, 1, 57, 49
3, 77160, Note_off_c, 1, 57, 64
3, 77160, Note_on_c, 1, 56, 47
3, 77280, Note_off_c, 1, 56, 64
3, 77280, Note_on_c, 1, 55, 54
3, 77400, Note_off_c, 1, 55, 64
3, 77400, Note_on_c, 1, 56, 52
3, 77520, Note_off_c, 1, 56, 64
3, 77520, Note_on_c, 1, 58, 46
3, 77640, Note_off_c, 1, 58, 64
3, 77640, Note_on_c, 1, 56, 51
3, 77760, Note_off_c, 1, 56, 64
3, 77760, Note_on_c, 1, 55, 46
3, 77880, Note_on_c, 1, 62, 54
3, 78000, Note_off_c, 1, 55, 64
3, 78000, Note_off_c, 1, 62, 64
3, 78000, Note_on_c, 1, 61, 47
3, 78120, Note_off_c, 1, 61, 64
3, 78120, Note_on_c, 1, 62, 46
3, 78240, Note_off_c, 1, 62, 64
3, 78240, Note_on_c, 1, 63, 47
3, 78360, Note_off_c, 1, 63, 64
3, 78360, Note_on_c, 1, 62, 54
3, 78480, Note_off_c, 1, 62, 64
3, 78480, Note_on_c, 1, 54, 47
3, 78600, Note_on_c, 1, 60, 49
3, 78720, Note_off_c, 1, 54, 64
3, 78720, Note_off_c, 1, 60, 64
3, 78720, Note_on_c, 1, 59, 53
3, 78840, Note_off_c, 1, 59, 64
3, 78840, Note_on_c, 1, 60, 45
3, 78960, Note_off_c, 1, 60, 64
3, 78960, Note_on_c, 1, 62, 50
3, 79080, Note_off_c, 1, 62, 64
3, 79080, Note_on_c, 1, 60, 52
3, 79200, Note_off_c, 1, 60, 64
3, 79320, Note_on_c, 1, 55, 75
3, 79440, Note_off_c, 1, 55, 64
3, 79440, Note_on_c, 1, 54, 70
3, 79560, Note_off_c, 1, 54, 64
3, 79560, Note_on_c, 1, 55, 70
3, 79680, Note_off_c, 1, 55, 64
3, 79680, Note_on_c, 1, 56, 71
3, 79800, Note_off_c, 1, 56, 64
3, 79800, Note_on_c, 1, 55, 70
3, 79920, Note_off_c, 1, 55, 64
3, 79920, Note_on_c, 1, 43, 79
3, 80160, Note_off_c, 1, 43, 64
3, 80640, Note_on_c, 1, 51, 75
3, 80640, Note_on_c, 1, 48, 76
3, 81120, Note_off_c, 1, 51, 64
3, 81120, Note_off_c, 1, 48, 64
3, 82080, Note_on_c, 1, 56, 71
3, 82080, Note_on_c, 1, 53, 78
3, 83040, Note_off_c, 1, 56, 64
3, 83040, Note_off_c, 1, 53, 64
3, 83520, Note_on_c, 1, 55, 52
3, 83880, Note_off_c, 1, 55, 64
3, 83880, Note_on_c, 1, 56, 54
3, 84000, Note_off_c, 1, 56, 64
3, 84000, Note_on_c, 1, 55, 53
3, 84240, Note_off_c, 1, 55, 64
3, 84240, Note_on_c, 1, 55, 53
3, 84960, Note_off_c, 1, 55, 64
3, 84960, Note_on_c, 1, 48, 50
3, 85320, Note_off_c, 1, 48, 64
3, 85320, Note_on_c, 1, 49, 51
3, 85440, Note_off_c, 1, 49, 64
3, 85440, Note_on_c, 1, 48, 47
3, 85680, Note_off_c, 1, 48, 64
3, 85680, Note_on_c, 1, 48, 50
3, 86400, Note_off_c, 1, 48, 64
3, 86400, Note_on_c, 1, 56, 72
3, 86400, Note_on_c, 1, 53, 73
3, 86880, Note_off_c, 1, 56, 64
3, 86880, Note_off_c, 1, 53, 64
3, 87840, Note_on_c, 1, 58, 71
3, 87840, Note_on_c, 1, 61, 77
3, 88800, Note_off_c, 1, 58, 64
3, 88800, Note_off_c, 1, 61, 64
3, 89280, Note_on_c, 1, 60, 53
3, 89640, Note_off_c, 1, 60, 64
3, 89640, Note_on_c, 1, 61, 50
3, 89760, Note_off_c, 1, 61, 64
3, 89760, Note_on_c, 1, 60, 47
3, 90000, Note_off_c, 1, 60, 64
3, 90000, Note_on_c, 1, 60, 53
3, 90720, Note_off_c, 1, 60, 64
3, 90720, Note_on_c, 1, 49, 70
3, 90720, Note_on_c, 1, 61, 76
3, 91800, Note_off_c, 1, 61, 64
3, 91800, Note_on_c, 1, 60, 76
3, 91920, Note_off_c, 1, 60, 64
3, 91920, Note_on_c, 1, 59, 77
3, 92160, Note_off_c, 1, 49, 64
3, 92160, Note_off_c, 1, 59, 64
3, 92160, Note_on_c, 1, 48, 46
3, 92160, Note_on_c, 1, 60, 51
3, 93360, Note_off_c, 1, 60, 64
3, 93360, Note_on_c, 1, 58, 52
3, 93600, Note_off_c, 1, 48, 64
3, 93600, Note_off_c, 1, 58, 64
3, 93600, Note_on_c, 1, 58, 78
3, 93600, Note_on_c, 1, 53, 74
3, 94320, Note_off_c, 1, 58, 64
3, 94320, Note_off_c, 1, 53, 64
3, 94320, Note_on_c, 1, 56, 71
3, 94320, Note_on_c, 1, 53, 71
3, 94560, Note_off_c, 1, 56, 64
3, 94560, Note_off_c, 1, 53, 64
3, 95040, Note_on_c, 1, 53, 54
3, 95160, Note_off_c, 1, 53, 64
3, 95160, Note_on_c, 1, 56, 47
3, 95280, Note_off_c, 1, 56, 64
3, 95280, Note_on_c, 1, 60, 47
3, 95400, Note_off_c, 1, 60, 64
3, 95400, Note_on_c, 1, 56, 48
3, 95520, Note_off_c, 1, 56, 64
3, 95520, Note_on_c, 1, 53, 48
3, 95640, Note_off_c, 1, 53, 64
3, 95640, Note_on_c, 1, 56, 46
3, 95760, Note_off_c, 1, 56, 64
3, 95760, Note_on_c, 1, 51, 50
3, 95880, Note_off_c, 1, 51, 64
3, 95880, Note_on_c, 1, 54, 45
3, 96000, Note_off_c, 1, 54, 64
3, 96000, Note_on_c, 1, 57, 54
3, 96120, Note_off_c, 1, 57, 64
3, 96120, Note_on_c, 1, 54, 52
3, 96240, Note_off_c, 1, 54, 64
3, 96240, Note_on_c, 1, 51, 45
3, 96360, Note_off_c, 1, 51, 64
3, 96360, Note_on_c, 1, 54, 50
3, 96480, Note_off_c, 1, 54, 64
3, 96480, Note_on_c, 1, 49, 72
3, 96600, Note_off_c, 1, 49, 64
3, 96600, Note_on_c, 1, 53, 71
3, 96720, Note_off_c, 1, 53, 64
3, 96720, Note_on_c, 1, 57, 79
3, 96840, Note_off_c, 1, 57, 64
3, 96840, Note_on_c, 1, 53, 77
3, 96960, Note_off_c, 1, 53, 64
3, 96960, Note_on_c, 1, 49, 70
3, 97080, Note_off_c, 1, 49, 64
3, 97080, Note_on_c, 1, 53, 73
3, 97200, Note_off_c, 1, 53, 64
3, 97200, Note_on_c, 1, 49, 70
3, 97320, Note_off_c, 1, 49, 64
3, 97320, Note_on_c, 1, 53, 73
3, 97440, Note_off_c, 1, 53, 64
3, 97440, Note_on_c, 1, 58, 73
3, 97560, Note_off_c, 1, 58, 64
3, 97560, Note_on_c, 1, 53, 72
3, 97680, Note_off_c, 1, 53, 64
3, 97680, Note_on_c, 1, 48, 73
3, 97800, Note_off_c, 1, 48, 64
3, 97800, Note_on_c, 1, 53, 75
3, 97920, Note_off_c, 1, 53, 64
3, 97920, Note_on_c, 1, 46, 76
3, 98040, Note_off_c, 1, 46, 64
3, 98040, Note_on_c, 1, 49, 70
3, 98160, Note_off_c, 1, 49, 64
3, 98160, Note_on_c, 1, 58, 72
3, 98280, Note_off_c, 1, 58, 64
3, 98280, Note_on_c, 1, 49, 77
3, 98400, Note_off_c, 1, 49, 64
3, 98400, Note_on_c, 1, 46, 73
3, 98520, Note_off_c, 1, 46, 64
3, 98520, Note_on_c, 1, 49, 70
3, 98640, Note_off_c, 1, 49, 64
3, 98640, Note_on_c, 1, 46, 74
3, 98760, Note_off_c, 1, 46, 64
3, 98760, Note_on_c, 1, 49, 79
3, 98880, Note_off_c, 1, 49, 64
3, 98880, Note_on_c, 1, 58, 74
3, 99000, Note_off_c, 1, 58, 64
3, 99000, Note_on_c, 1, 49, 71
3, 99120, Note_off_c, 1, 49, 64
3, 99120, Note_on_c, 1, 47, 79
3, 99240, Note_off_c, 1, 47, 64
3, 99240, Note_on_c, 1, 56, 79
3, 99360, Note_off_c, 1, 56, 64
3, 99360, Note_on_c, 1, 48, 45
3, 99480, Note_off_c, 1, 48, 64
3, 99480, Note_on_c, 1, 53, 49
3, 99600, Note_off_c, 1, 53, 64
3, 99600, Note_on_c, 1, 56, 47
3, 99720, Note_off_c, 1, 56, 64
3, 99720, Note_on_c, 1, 53, 53
3, 99840, Note_off_c, 1, 53, 64
3, 99840, Note_on_c, 1, 48, 54
3, 99960, Note_off_c, 1, 48, 64
3, 99960, Note_on_c, 1, 53, 53
3, 100080, Note_off_c, 1, 53, 64
3, 100080, Note_on_c, 1, 48, 47
3, 100200, Note_off_c, 1, 48, 64
3, 100200, Note_on_c, 1, 52, 49
3, 100320, Note_off_c, 1, 52, 64
3, 100320, Note_on_c, 1, 55, 47
3, 100440, Note_off_c, 1, 55, 64
3, 100440, Note_on_c, 1, 52, 51
3, 100560, Note_off_c, 1, 52, 64
3, 100560, Note_on_c, 1, 48, 47
3, 100680, Note_off_c, 1, 48, 64
3, 100680, Note_on_c, 1, 52, 50
3, 100800, Note_off_c, 1, 52, 64
3, 100800, Note_on_c, 1, 49, 71
3, 100920, Note_off_c, 1, 49, 64
3, 100920, Note_on_c, 1, 53, 74
3, 101040, Note_off_c, 1, 53, 64
3, 101040, Note_on_c, 1, 56, 77
3, 101160, Note_off_c, 1, 56, 64
3, 101160, Note_on_c, 1, 53, 73
3, 101280, Note_off_c, 1, 53, 64
3, 101280, Note_on_c, 1, 49, 73
3, 101400, Note_off_c, 1, 49, 64
3, 101400, Note_on_c, 1, 53, 72
3, 101520, Note_off_c, 1, 53, 64
3, 101520, Note_on_c, 1, 49, 77
3, 101640, Note_off_c, 1, 49, 64
3, 101640, Note_on_c, 1, 53, 71
3, 101760, Note_off_c, 1, 53, 64
3, 101760, Note_on_c, 1, 56, 72
3, 101880, Note_off_c, 1, 56, 64
3, 101880, Note_on_c, 1, 53, 77
3, 102000, Note_off_c, 1, 53, 64
3, 102000, Note_on_c, 1, 49, 70
3, 102120, Note_off_c, 1, 49, 64
3, 102120, Note_on_c, 1, 53, 76
3, 102240, Note_off_c, 1, 53, 64
3, 102240, Note_on_c, 1, 48, 48
3, 102360, Note_off_c, 1, 48, 64
3, 102360, Note_on_c, 1, 52, 53
3, 102480, Note_off_c, 1, 52, 64
3, 102480, Note_on_c, 1, 55, 52
3, 102600, Note_off_c, 1, 55, 64
3, 102600, Note_on_c, 1, 52, 49
3, 102720, Note_off_c, 1, 52, 64
3, 102720, Note_on_c, 1, 48, 52
3, 102840, Note_off_c, 1, 48, 64
3, 102840, Note_on_c, 1, 52, 50
3, 102960, Note_off_c, 1, 52, 64
3, 102960, Note_on_c, 1, 48, 53
3, 103080, Note_off_c, 1, 48, 64
3, 103080, Note_on_c, 1, 52, 49
3, 103200, Note_off_c, 1, 52, 64
3, 103200, Note_on_c, 1, 55, 45
3, 103320, Note_off_c, 1, 55, 64
3, 103320, Note_on_c, 1, 52, 49
3, 103440, Note_off_c, 1, 52, 64
3, 103440, Note_on_c, 1, 60, 46
3, 103560, Note_off_c, 1, 60, 64
3, 103560, Note_on_c, 1, 55, 50
3, 103680, Note_off_c, 1, 55, 64
3, 103680, Note_on_c, 1, 59, 71
3, 103800, Note_off_c, 1, 59, 64
3, 103800, Note_on_c, 1, 62, 73
3, 103920, Note_off_c, 1, 62, 64
3, 103920, Note_on_c, 1, 65, 73
3, 104040, Note_off_c, 1, 65, 64
3, 104040, Note_on_c, 1, 62, 78
3, 104160, Note_off_c, 1, 62, 64
3, 104160, Note_on_c, 1, 59, 74
3, 104280, Note_off_c, 1, 59, 64
3, 104280, Note_on_c, 1, 62, 77
3, 104400, Note_off_c, 1, 62, 64
3, 104400, Note_on_c, 1, 59, 76
3, 104520, Note_off_c, 1, 59, 64
3, 104520, Note_on_c, 1, 62, 75
3, 104640, Note_off_c, 1, 62, 64
3, 104640, Note_on_c, 1, 68, 79
3, 104760, Note_off_c, 1, 68, 64
3, 104760, Note_on_c, 1, 62, 71
3, 104880, Note_off_c, 1, 62, 64
3, 104880, Note_on_c, 1, 59, 75
3, 105000, Note_off_c, 1, 59, 64
3, 105000, Note_on_c, 1, 62, 78
3, 105120, Note_off_c, 1, 62, 64
3, 105120, Note_on_c, 1, 58, 50
3, 105240, Note_off_c, 1, 58, 64
3, 105240, Note_on_c, 1, 64, 51
3, 105360, Note_off_c, 1, 64, 64
3, 105360, Note_on_c, 1, 67, 52
3, 105480, Note_off_c, 1, 67, 64
3, 105480, Note_on_c, 1, 64, 54
3, 105600, Note_off_c, 1, 64, 64
3, 105600, Note_on_c, 1, 58, 48
3, 105720, Note_off_c, 1, 58, 64
3, 105720, Note_on_c, 1, 67, 46
3, 105840, Note_off_c, 1, 67, 64
3, 105840, Note_on_c, 1, 58, 45
3, 105960, Note_off_c, 1, 58, 64
3, 105960, Note_on_c, 1, 61, 46
3, 106080, Note_off_c, 1, 61, 64
3, 106080, Note_on_c, 1, 67, 54
3, 106200, Note_off_c, 1, 67, 64
3, 106200, Note_on_c, 1, 61, 54
3, 106320, Note_off_c, 1, 61, 64
3, 106320, Note_on_c, 1, 58, 46
3, 106440, Note_off_c, 1, 58, 64
3, 106440, Note_on_c, 1, 67, 45
3, 106560, Note_off_c, 1, 67, 64
3, 106560, Note_on_c, 1, 56, 48
3, 106680, Note_off_c, 1, 56, 64
3, 106680, Note_on_c, 1, 60, 53
3, 106800, Note_off_c, 1, 60, 64
3, 106800, Note_on_c, 1, 65, 48
3, 106920, Note_off_c, 1, 65, 64
3, 106920, Note_on_c, 1, 60, 46
3, 107040, Note_off_c, 1, 60, 64
3, 107040, Note_on_c, 1, 56, 45
3, 107160, Note_off_c, 1, 56, 64
3, 107160, Note_on_c, 1, 60, 52
3, 107280, Note_off_c, 1, 60, 64
3, 107280, Note_on_c, 1, 58, 50
3, 107400, Note_off_c, 1, 58, 64
3, 107400, Note_on_c, 1, 61, 45
3, 107520, Note_off_c, 1, 61, 64
3, 107520, Note_on_c, 1, 65, 47
3, 107640, Note_off_c, 1, 65, 64
3, 107640, Note_on_c, 1, 61, 45
3, 107760, Note_off_c, 1, 61, 64
3, 107760, Note_on_c, 1, 58, 53
3, 107880, Note_off_c, 1, 58, 64
3, 107880, Note_on_c, 1, 61, 47
3, 108000, Note_off_c, 1, 61, 64
3, 108000, Note_on_c, 1, 60, 45
3, 108120, Note_off_c, 1, 60, 64
3, 108120, Note_on_c, 1, 65, 48
3, 108240, Note_off_c, 1, 65, 64
3, 108240, Note_on_c, 1, 68, 45
3, 108360, Note_off_c, 1, 68, 64
3, 108360, Note_on_c, 1, 65, 53
3, 108480, Note_off_c, 1, 65, 64
3, 108480, Note_on_c, 1, 60, 45
3, 108600, Note_off_c, 1, 60, 64
3, 108600, Note_on_c, 1, 65, 48
3, 108720, Note_off_c, 1, 65, 64
3, 108720, Note_on_c, 1, 60, 49
3, 108840, Note_off_c, 1, 60, 64
3, 108840, Note_on_c, 1, 67, 50
3, 108960, Note_off_c, 1, 67, 64
3, 108960, Note_on_c, 1, 70, 48
3, 109080, Note_off_c, 1, 70, 64
3, 109080, Note_on_c, 1, 67, 53
3, 109200, Note_off_c, 1, 67, 64
3, 109200, Note_on_c, 1, 70, 50
3, 109320, Note_off_c, 1, 70, 64
3, 109320, Note_on_c, 1, 67, 51
3, 109440, Note_off_c, 1, 67, 64
3, 109440, Note_on_c, 1, 56, 74
3, 109560, Note_off_c, 1, 56, 64
3, 109560, Note_on_c, 1, 60, 75
3, 109680, Note_off_c, 1, 60, 64
3, 109680, Note_on_c, 1, 65, 73
3, 109800, Note_off_c, 1, 65, 64
3, 109800, Note_on_c, 1, 60, 76
3, 109920, Note_off_c, 1, 60, 64
3, 109920, Note_on_c, 1, 56, 76
3, 110040, Note_off_c, 1, 56, 64
3, 110040, Note_on_c, 1, 60, 72
3, 110160, Note_off_c, 1, 60, 64
3, 110160, Note_on_c, 1, 58, 74
3, 110280, Note_off_c, 1, 58, 64
3, 110280, Note_on_c, 1, 61, 74
3, 110400, Note_off_c, 1, 61, 64
3, 110400, Note_on_c, 1, 65, 70
3, 110520, Note_off_c, 1, 65, 64
3, 110520, Note_on_c, 1, 61, 75
3, 110640, Note_off_c, 1, 61, 64
3, 110640, Note_on_c, 1, 58, 77
3, 110760, Note_off_c, 1, 58, 64
3, 110760, Note_on_c, 1, 61, 78
3, 110880, Note_off_c, 1, 61, 64
3, 110880, Note_on_c, 1, 60, 49
3, 111000, Note_off_c, 1, 60, 64
3, 111000, Note_on_c, 1, 65, 47
3, 111120, Note_off_c, 1, 65, 64
3, 111120, Note_on_c, 1, 68, 54
3, 111240, Note_off_c, 1, 68, 64
3, 111240, Note_on_c, 1, 65, 53
3, 111360, Note_off_c, 1, 65, 64
3, 111360, Note_on_c, 1, 60, 51
3, 111480, Note_off_c, 1, 60, 64
3, 111480, Note_on_c, 1, 65, 46
3, 111600, Note_off_c, 1, 65, 64
3, 111600, Note_on_c, 1, 48, 76
3, 111720, Note_off_c, 1, 48, 64
3, 111720, Note_on_c, 1, 51, 78
3, 111840, Note_off_c, 1, 51, 64
3, 111840, Note_on_c, 1, 57, 78
3, 111960, Note_off_c, 1, 57, 64
3, 111960, Note_on_c, 1, 51, 79
3, 112080, Note_off_c, 1, 51, 64
3, 112080, Note_on_c, 1, 48, 74
3, 112200, Note_off_c, 1, 48, 64
3, 112200, Note_on_c, 1, 51, 71
3, 112320, Note_off_c, 1, 51, 64
3, 112320, Note_on_c, 1, 49, 45
3, 112440, Note_off_c, 1, 49, 64
3, 112440, Note_on_c, 1, 53, 48
3, 112560, Note_off_c, 1, 53, 64
3, 112560, Note_on_c, 1, 59, 46
3, 112680, Note_off_c, 1, 59, 64
3, 112680, Note_on_c, 1, 53, 49
3, 112800, Note_off_c, 1, 53, 64
3, 112800, Note_on_c, 1, 49, 51
3, 112920, Note_off_c, 1, 49, 64
3, 112920, Note_on_c, 1, 53, 48
3, 113040, Note_off_c, 1, 53, 64
3, 113040, Note_on_c, 1, 50, 51
3, 113160, Note_off_c, 1, 50, 64
3, 113160, Note_on_c, 1, 53, 54
3, 113280, Note_off_c, 1, 53, 64
3, 113280, Note_on_c, 1, 56, 48
3, 113400, Note_off_c, 1, 56, 64
3, 113400, Note_on_c, 1, 53, 45
3, 113520, Note_off_c, 1, 53, 64
3, 113520, Note_on_c, 1, 50, 54
3, 113640, Note_off_c, 1, 50, 64
3, 113640, Note_on_c, 1, 53, 51
3, 113760, Note_off_c, 1, 53, 64
3, 113760, Note_on_c, 1, 48, 78
3, 114000, Note_off_c, 1, 48, 64
3, 114480, Note_on_c, 1, 48, 75
3, 114600, Note_off_c, 1, 48, 64
3, 114600, Note_on_c, 1, 52, 78
3, 114720, Note_off_c, 1, 52, 64
3, 114720, Note_on_c, 1, 58, 73
3, 114840, Note_off_c, 1, 58, 64
3, 114840, Note_on_c, 1, 52, 73
3, 114960, Note_off_c, 1, 52, 64
3, 114960, Note_on_c, 1, 48, 77
3, 115080, Note_off_c, 1, 48, 64
3, 115080, Note_on_c, 1, 52, 70
3, 115200, Note_off_c, 1, 52, 64
3, 115200, Note_on_c, 1, 53, 71
3, 115440, Note_off_c, 1, 53, 64
3, 115680, Note_on_c, 1, 45, 50
3, 115920, Note_off_c, 1, 45, 64
3, 115920, Note_on_c, 1, 46, 54
3, 116160, Note_off_c, 1, 46, 64
3, 116400, Note_on_c, 1, 46, 79
3, 116640, Note_off_c, 1, 46, 64
3, 116640, Note_on_c, 1, 48, 74
3, 117120, Note_off_c, 1, 48, 64
3, 117120, Note_on_c, 1, 36, 72
3, 117360, Note_off_c, 1, 36, 64
3, 117360, Note_on_c, 1, 41, 73
3, 117600, Note_off_c, 1, 41, 64
3, 117840, Note_on_c, 1, 57, 54
3, 117840, Note_on_c, 1, 45, 52
3, 118080, Note_off_c, 1, 57, 64
3, 118080, Note_off_c, 1, 45, 64
3, 118080, Note_on_c, 1, 58, 50
3, 118080, Note_on_c, 1, 46, 52
3, 118320, Note_off_c, 1, 58, 64
3, 118320, Note_off_c, 1, 46, 64
3, 118560, Note_on_c, 1, 62, 78
3, 118560, Note_on_c, 1, 59, 77
3, 118800, Note_off_c, 1, 62, 64
3, 118800, Note_off_c, 1, 59, 64
3, 118800, Note_on_c, 1, 60, 71
3, 119280, Note_off_c, 1, 60, 64
3, 119280, Note_on_c, 1, 58, 79
3, 119280, Note_on_c, 1, 48, 73
3, 119520, Note_off_c, 1, 58, 64
3, 119520, Note_off_c, 1, 48, 64
3, 119520, Note_on_c, 1, 53, 72
3, 120240, Note_off_c, 1, 53, 64
3, 120240, Note_on_c, 1, 41, 72
3, 120480, Note_off_c, 1, 41, 64
3, 122400, Note_on_c, 1, 66, 74
3, 122880, Note_off_c, 1, 66, 64
3, 122880, Note_on_c, 1, 65, 74
3, 123120, Note_off_c, 1, 65, 64
3, 123120, Note_on_c, 1, 63, 72
3, 123360, Note_off_c, 1, 63, 64
3, 123840, Note_on_c, 1, 54, 50
3, 124320, Note_off_c, 1, 54, 64
3, 124320, Note_on_c, 1, 53, 47
3, 124560, Note_off_c, 1, 53, 64
3, 124560, Note_on_c, 1, 51, 45
3, 124800, Note_off_c, 1, 51, 64
3, 125280, Note_on_c, 1, 61, 74
3, 125280, Note_on_c, 1, 49, 78
3, 125520, Note_off_c, 1, 61, 64
3, 125520, Note_off_c, 1, 49, 64
3, 125520, Note_on_c, 1, 48, 74
3, 125520, Note_on_c, 1, 60, 73
3, 125760, Note_off_c, 1, 48, 64
3, 125760, Note_off_c, 1, 60, 64
3, 125760, Note_on_c, 1, 58, 71
3, 125760, Note_on_c, 1, 46, 79
3, 126000, Note_off_c, 1, 58, 64
3, 126000, Note_off_c, 1, 46, 64
3, 126000, Note_on_c, 1, 57, 70
3, 126000, Note_on_c, 1, 45, 76
3, 126240, Note_off_c, 1, 57, 64
3, 126240, Note_off_c, 1, 45, 64
3, 126720, Note_on_c, 1, 46, 46
3, 126960, Note_off_c, 1, 46, 64
3, 127560, Note_on_c, 1, 58, 48
3, 127680, Note_off_c, 1, 58, 64
3, 127680, Note_on_c, 1, 57, 49
3, 127800, Note_off_c, 1, 57, 64
3, 127800, Note_on_c, 1, 58, 53
3, 127920, Note_off_c, 1, 58, 64
3, 127920, Note_on_c, 1, 60, 47
3, 128040, Note_off_c, 1, 60, 64
3, 128040, Note_on_c, 1, 58, 49
3, 128160, Note_off_c, 1, 58, 64
3, 128160, Note_on_c, 1, 57, 49
3, 129000, Note_off_c, 1, 57, 64
3, 129000, Note_on_c, 1, 56, 47
3, 129120, Note_off_c, 1, 56, 64
3, 129120, Note_on_c, 1, 55, 54
3, 129240, Note_off_c, 1, 55, 64
3, 129240, Note_on_c, 1, 56, 52
3, 129360, Note_off_c, 1, 56, 64
3, 129360, Note_on_c, 1, 58, 46
3, 129480, Note_off_c, 1, 58, 64
3, 129480, Note_on_c, 1, 56, 51
3, 129600, Note_off_c, 1, 56, 64
3, 129600, Note_on_c, 1, 55, 46
3, 129720, Note_on_c, 1, 62, 54
3, 129840, Note_off_c, 1, 55, 64
3, 129840, Note_off_c, 1, 62, 64
3, 129840, Note_on_c, 1, 61, 47
3, 129960, Note_off_c, 1, 61, 64
3, 129960, Note_on_c, 1, 62, 46
3, 130080, Note_off_c, 1, 62, 64
3, 130080, Note_on_c, 1, 63, 47
3, 130200, Note_off_c, 1, 63, 64
3, 130200, Note_on_c, 1, 62, 54
3, 130320, Note_off_c, 1, 62, 64
3, 130320, Note_on_c, 1, 54, 47
3, 130440, Note_on_c, 1, 60, 49
3, 130560, Note_off_c, 1, 54, 64
3, 130560, Note_off_c, 1, 60, 64
3, 130560, Note_on_c, 1, 59, 53
3, 130680, Note_off_c, 1, 59, 64
3, 130680, Note_on_c, 1, 60, 45
3, 130800, Note_off_c, 1, 60, 64
3, 130800, Note_on_c, 1, 62, 50
3, 130920, Note_off_c, 1, 62, 64
3, 130920, Note_on_c, 1, 60, 52
3, 131040, Note_off_c, 1, 60, 64
3, 131160, Note_on_c, 1, 55, 75
3, 131280, Note_off_c, 1, 55, 64
3, 131280, Note_on_c, 1, 54, 70
3, 131400, Note_off_c, 1, 54, 64
3, 131400, Note_on_c, 1, 55, 70
3, 131520, Note_off_c, 1, 55, 64
3, 131520, Note_on_c, 1, 56, 71
3, 131640, Note_off_c, 1, 56, 64
3, 131640, Note_on_c, 1, 55, 70
3, 131760, Note_off_c, 1, 55, 64
3, 131760, Note_on_c, 1, 43, 79
3, 132000, Note_off_c, 1, 43, 64
3, 132480, Note_on_c, 1, 51, 75
3, 132480, Note_on_c, 1, 48, 76
3, 132960, Note_off_c, 1, 51, 64
3, 132960, Note_off_c, 1, 48, 64
3, 133920, Note_on_c, 1, 56, 71
3, 133920, Note_on_c, 1, 53, 78
3, 134880, Note_off_c, 1, 56, 64
3, 134880, Note_off_c, 1, 53, 64
3, 135360, Note_on_c, 1, 55, 52
3, 135720, Note_off_c, 1, 55, 64
3, 135720, Note_on_c, 1, 56, 54
3, 135840, Note_off_c, 1, 56, 64
3, 135840, Note_on_c, 1, 55, 53
3, 136080, Note_off_c, 1, 55, 64
3, 136080, Note_on_c, 1, 55, 53
3, 136800, Note_off_c, 1, 55, 64
3, 136800, Note_on_c, 1, 48, 50
3, 137160, Note_off_c, 1, 48, 64
3, 137160, Note_on_c, 1, 49, 51
3, 137280, Note_off_c, 1, 49, 64
3, 137280, Note_on_c, 1, 48, 47
3, 137520, Note_off_c, 1, 48, 64
3, 137520, Note_on_c, 1, 48, 50
3, 138240, Note_off_c, 1, 48, 64
3, 138240, Note_on_c, 1, 56, 72
3, 138240, Note_on_c, 1, 53, 73
3, 138720, Note_off_c, 1, 56, 64
3, 138720, Note_off_c, 1, 53, 64
3, 139680, Note_on_c, 1, 58, 71
3, 139680, Note_on_c, 1, 61, 77
3, 140640, Note_off_c, 1, 58, 64
3, 140640, Note_off_c, 1, 61, 64
3, 141120, Note_on_c, 1, 60, 53
3, 141480, Note_off_c, 1, 60, 64
3, 141480, Note_on_c, 1, 61, 50
3, 141600, Note_off_c, 1, 61, 64
3, 141600, Note_on_c, 1, 60, 47
3, 141840, Note_off_c, 1, 60, 64
3, 141840, Note_on_c, 1, 60, 53
3, 142560, Note_off_c, 1, 60, 64
3, 142560, Note_on_c, 1, 49, 70
3, 142560, Note_on_c, 1, 61, 76
3, 143640, Note_off_c, 1, 61, 64
3, 143640, Note_on_c, 1, 60, 76
3, 143760, Note_off_c, 1, 60, 64
3, 143760, Note_on_c, 1, 59, 77
3, 144000, Note_off_c, 1, 49, 64
3, 144000, Note_off_c, 1, 59, 64
3, 144000, Note_on_c, 1, 48, 46
3, 144000, Note_on_c, 1, 60, 51
3, 145200, Note_off_c, 1, 60, 64
3, 145200, Note_on_c, 1, 58, 52
3, 145440, Note_off_c, 1, 48, 64
3, 145440, Note_off_c, 1, 58, 64
3, 145440, Note_on_c, 1, 58, 78
3, 145440, Note_on_c, 1, 53, 74
3, 146160, Note_off_c, 1, 58, 64
3, 146160, Note_off_c, 1, 53, 64
3, 146160, Note_on_c, 1, 56, 71
3, 146160, Note_on_c, 1, 53, 71
3, 146400, Note_off_c, 1, 56, 64
3, 146400, Note_off_c, 1, 53, 64
3, 146880, Note_on_c, 1, 53, 54
3, 147000, Note_off_c, 1, 53, 64
3, 147000, Note_on_c, 1, 56, 47
3, 147120, Note_off_c, 1, 56, 64
3, 147120, Note_on_c, 1, 60, 47
3, 147240, Note_off_c, 1, 60, 64
3, 147240, Note_on_c, 1, 56, 48
3, 147360, Note_off_c, 1, 56, 64
3, 147360, Note_on_c, 1, 53, 48
3, 147480, Note_off_c, 1, 53, 64
3, 147480, Note_on_c, 1, 56, 46
3, 147600, Note_off_c, 1, 56, 64
3, 147600, Note_on_c, 1, 51, 50
3, 147720, Note_off_c, 1, 51, 64
3, 147720, Note_on_c, 1, 54, 45
3, 147840, Note_off_c, 1, 54, 64
3, 147840, Note_on_c, 1, 57, 54
3, 147960, Note_off_c, 1, 57, 64
3, 147960, Note_on_c, 1, 54, 52
3, 148080, Note_off_c, 1, 54, 64
3, 148080, Note_on_c, 1, 51, 45
3, 148200, Note_off_c, 1, 51, 64
3, 148200, Note_on_c, 1, 54, 50
3, 148320, Note_off_c, 1, 54, 64
3, 148320, Note_on_c, 1, 49, 72
3, 148440, Note_off_c, 1, 49, 64
3, 148440, Note_on_c, 1, 53, 71
3, 148560, Note_off_c, 1, 53, 64
3, 148560, Note_on_c, 1, 57, 79
3, 148680, Note_off_c, 1, 57, 64
3, 148680, Note_on_c, 1, 53, 77
3, 148800, Note_off_c, 1, 53, 64
3, 148800, Note_on_c, 1, 49, 70
3, 148920, Note_off_c, 1, 49, 64
3, 148920, Note_on_c, 1, 53, 73
3, 149040, Note_off_c, 1, 53, 64
3, 149040, Note_on_c, 1, 49, 70
3, 149160, Note_off_c, 1, 49, 64
3, 149160, Note_on_c, 1, 53, 73
3, 149280, Note_off_c, 1, 53, 64
3, 149280, Note_on_c, 1, 58, 73
3, 149400, Note_off_c, 1, 58, 64
3, 149400, Note_on_c, 1, 53, 72
3, 149520, Note_off_c, 1, 53, 64
3, 149520, Note_on_c, 1, 48, 73
3, 149640, Note_off_c, 1, 48, 64
3, 149640, Note_on_c, 1, 53, 75
3, 149760, Note_off_c, 1, 53, 64
3, 149760, Note_on_c, 1, 46, 76
3, 149880, Note_off_c, 1, 46, 64
3, 149880, Note_on_c, 1, 49, 70
3, 150000, Note_off_c, 1, 49, 64
3, 150000, Note_on_c, 1, 58, 72
3, 150120, Note_off_c, 1, 58, 64
3, 150120, Note_on_c, 1, 49, 77
3, 150240, Note_off_c, 1, 49, 64
3, 150240, Note_on_c, 1, 46, 73
3, 150360, Note_off_c, 1, 46, 64
3, 150360, Note_on_c, 1, 49, 70
3, 150480, Note_off_c, 1, 49, 64
3, 150480, Note_on_c, 1, 46, 74
3, 150600, Note_off_c, 1, 46, 64
3, 150600, Note_on_c, 1, 49, 79
3, 150720, Note_off_c, 1, 49, 64
3, 150720, Note_on_c, 1, 58, 74
3, 150840, Note_off_c, 1, 58, 64
3, 150840, Note_on_c, 1, 49, 71
3, 150960, Note_off_c, 1, 49, 64
3, 150960, Note_on_c, 1, 47, 79
3, 151080, Note_off_c, 1, 47, 64
3, 151080, Note_on_c, 1, 56, 79
3, 151200, Note_off_c, 1, 56, 64
3, 151200, Note_on_c, 1, 48, 45
3, 151320, Note_off_c, 1, 48, 64
3, 151320, Note_on_c, 1, 53, 49
3, 151440, Note_off_c, 1, 53, 64
3, 151440, Note_on_c, 1, 56, 47
3, 151560, Note_off_c, 1, 56, 64
3, 151560, Note_on_c, 1, 53, 53
3, 151680, Note_off_c, 1, 53, 64
3, 151680, Note_on_c, 1, 48, 54
3, 151800, Note_off_c, 1, 48, 64
3, 151800, Note_on_c, 1, 53, 53
3, 151920, Note_off_c, 1, 53, 64
3, 151920, Note_on_c, 1, 48, 47
3, 152040, Note_off_c, 1, 48, 64
3, 152040, Note_on_c, 1, 52, 49
3, 152160, Note_off_c, 1, 52, 64
3, 152160, Note_on_c, 1, 55, 47
3, 152280, Note_off_c, 1, 55, 64
3, 152280, Note_on_c, 1, 52, 51
3, 152400, Note_off_c, 1, 52, 64
3, 152400, Note_on_c, 1, 48, 47
3, 152520, Note_off_c, 1, 48, 64
3, 152520, Note_on_c, 1, 52, 50
3, 152640, Note_off_c, 1, 52, 64
3, 152640, Note_on_c, 1, 49, 71
3, 152760, Note_off_c, 1, 49, 64
3, 152760, Note_on_c, 1, 53, 74
3, 152880, Note_off_c, 1, 53, 64
3, 152880, Note_on_c, 1, 56, 77
3, 153000, Note_off_c, 1, 56, 64
3, 153000, Note_on_c, 1, 53, 73
3, 153120, Note_off_c, 1, 53, 64
3, 153120, Note_on_c, 1, 49, 73
3, 153240, Note_off_c, 1, 49, 64
3, 153240, Note_on_c, 1, 53, 72
3, 153360, Note_off_c, 1, 53, 64
3, 153360, Note_on_c, 1, 49, 77
3, 153480, Note_off_c, 1, 49, 64
3, 153480, Note_on_c, 1, 53, 71
3, 153600, Note_off_c, 1, 53, 64
3, 153600, Note_on_c, 1, 56, 72
3, 153720, Note_off_c, 1, 56, 64
3, 153720, Note_on_c, 1, 53, 77
3, 153840, Note_off_c, 1, 53, 64
3, 153840, Note_on_c, 1, 49, 70
3, 153960, Note_off_c, 1, 49, 64
3, 153960, Note_on_c, 1, 53, 76
3, 154080, Note_off_c, 1, 53, 64
3, 154080, Note_on_c, 1, 48, 48
3, 154200, Note_off_c, 1, 48, 64
3, 154200, Note_on_c, 1, 52, 53
3, 154320, Note_off_c, 1, 52, 64
3, 154320, Note_on_c, 1, 55, 52
3, 154440, Note_off_c, 1, 55, 64
3, 154440, Note_on_c, 1, 52, 49
3, 154560, Note_off_c, 1, 52, 64
3, 154560, Note_on_c, 1, 48, 52
3, 154680, Note_off_c, 1, 48, 64
3, 154680, Note_on_c, 1, 52, 50
3, 154800, Note_off_c, 1, 52, 64
3, 154800, Note_on_c, 1, 48, 53
3, 154920, Note_off_c, 1, 48, 64
3, 154920, Note_on_c, 1, 52, 49
3, 155040, Note_off_c, 1, 52, 64
3, 155040, Note_on_c, 1, 55, 45
3, 155160, Note_off_c, 1, 55, 64
3, 155160, Note_on_c, 1, 52, 49
3, 155280, Note_off_c, 1, 52, 64
3, 155280, Note_on_c, 1, 60, 46
3, 155400, Note_off_c, 1, 60, 64
3, 155400, Note_on_c, 1, 55, 50
3, 155520, Note_off_c, 1, 55, 64
3, 155520, Note_on_c, 1, 59, 71
3, 155640, Note_off_c, 1, 59, 64
3, 155640, Note_on_c, 1, 62, 73
3, 155760, Note_off_c, 1, 62, 64
3, 155760, Note_on_c, 1, 65, 73
3, 155880, Note_off_c, 1, 65, 64
3, 155880, Note_on_c, 1, 62, 78
3, 156000, Note_off_c, 1, 62, 64
3, 156000, Note_on_c, 1, 59, 74
3, 156120, Note_off_c, 1, 59, 64
3, 156120, Note_on_c, 1, 62, 77
3, 156240, Note_off_c, 1, 62, 64
3, 156240, Note_on_c, 1, 59, 76
3, 156360, Note_off_c, 1, 59, 64
3, 156360, Note_on_c, 1, 62, 75
3, 156480, Note_off_c, 1, 62, 64
3, 156480, Note_on_c, 1, 68, 79
3, 156600, Note_off_c, 1, 68, 64
3, 156600, Note_on_c, 1, 62, 71
3, 156720, Note_off_c, 1, 62, 64
3, 156720, Note_on_c, 1, 59, 75
3, 156840, Note_off_c, 1, 59, 64
3, 156840, Note_on_c, 1, 62, 78
3, 156960, Note_off_c, 1, 62, 64
3, 156960, Note_on_c, 1, 58, 50
3, 157080, Note_off_c, 1, 58, 64
3, 157080, Note_on_c, 1, 64, 51
3, 157200, Note_off_c, 1, 64, 64
3, 157200, Note_on_c, 1, 67, 52
3, 157320, Note_off_c, 1, 67, 64
3, 157320, Note_on_c, 1, 64, 54
3, 157440, Note_off_c, 1, 64, 64
3, 157440, Note_on_c, 1, 58, 48
3, 157560, Note_off_c, 1, 58, 64
3, 157560, Note_on_c, 1, 67, 46
3, 157680, Note_off_c, 1, 67, 64
3, 157680, Note_on_c, 1, 58, 45
3, 157800, Note_off_c, 1, 58, 64
3, 157800, Note_on_c, 1, 61, 46
3, 157920, Note_off_c, 1, 61, 64
3, 157920, Note_on_c, 1, 67, 54
3, 158040, Note_off_c, 1, 67, 64
3, 158040, Note_on_c, 1, 61, 54
3, 158160, Note_off_c, 1, 61, 64
3, 158160, Note_on_c, 1, 58, 46
3, 158280, Note_off_c, 1, 58, 64
3, 158280, Note_on_c, 1, 67, 45
3, 158400, Note_off_c, 1, 67, 64
3, 158400, Note_on_c, 1, 56, 48
3, 158520, Note_off_c, 1, 56, 64
3, 158520, Note_on_c, 1, 60, 53
3, 158640, Note_off_c, 1, 60, 64
3, 158640, Note_on_c, 1, 65, 48
3, 158760, Note_off_c, 1, 65, 64
3, 158760, Note_on_c, 1, 60, 46
3, 158880, Note_off_c, 1, 60, 64
3, 158880, Note_on_c, 1, 56, 45
3, 159000, Note_off_c, 1, 56, 64
3, 159000, Note_on_c, 1, 60, 52
3, 159120, Note_off_c, 1, 60, 64
3, 159120, Note_on_c, 1, 58, 50
3, 159240, Note_off_c, 1, 58, 64
3, 159240, Note_on_c, 1, 61, 45
3, 159360, Note_off_c, 1, 61, 64
3, 159360, Note_on_c, 1, 65, 47
3, 159480, Note_off_c, 1, 65, 64
3, 159480, Note_on_c, 1, 61, 45
3, 159600, Note_off_c, 1, 61, 64
3, 159600, Note_on_c, 1, 58, 53
3, 159720, Note_off_c, 1, 58, 64
3, 159720, Note_on_c, 1, 61, 47
3, 159840, Note_off_c, 1, 61, 64
3, 159840, Note_on_c, 1, 60, 45
3, 159960, Note_off_c, 1, 60, 64
3, 159960, Note_on_c, 1, 65, 48
3, 160080, Note_off_c, 1, 65, 64
3, 160080, Note_on_c, 1, 68, 45
3, 160200, Note_off_c, 1, 68, 64
3, 160200, Note_on_c, 1, 65, 53
3, 160320, Note_off_c, 1, 65, 64
3, 160320, Note_on_c, 1, 60, 45
3, 160440, Note_off_c, 1, 60, 64
3, 160440, Note_on_c, 1, 65, 48
3, 160560, Note_off_c, 1, 65, 64
3, 160560, Note_on_c, 1, 60, 49
3, 160680, Note_off_c, 1, 60, 64
3, 160680, Note_on_c, 1, 67, 50
3, 160800, Note_off_c, 1, 67, 64
3, 160800, Note_on_c, 1, 70, 48
3, 160920, Note_off_c, 1, 70, 64
3, 160920, Note_on_c, 1, 67, 53
3, 161040, Note_off_c, 1, 67, 64
3, 161040, Note_on_c, 1, 70, 50
3, 161160, Note_off_c, 1, 70, 64
3, 161160, Note_on_c, 1, 67, 51
3, 161280, Note_off_c, 1, 67, 64
3, 161280, Note_on_c, 1, 56, 74
3, 161400, Note_off_c, 1, 56, 64
3, 161400, Note_on_c, 1, 60, 75
3, 161520, Note_off_c, 1, 60, 64
3, 161520, Note_on_c, 1, 65, 73
3, 161640, Note_off_c, 1, 65, 64
3, 161640, Note_on_c, 1, 60, 76
3, 161760, Note_off_c, 1, 60, 64
3, 161760, Note_on_c, 1, 56, 76
3, 161880, Note_off_c, 1, 56, 64
3, 161880, Note_on_c, 1, 60, 72
3, 162000, Note_off_c, 1, 60, 64
3, 162000, Note_on_c, 1, 58, 74
3, 162120, Note_off_c, 1, 58, 64
3, 162120, Note_on_c, 1, 61, 74
3, 162240, Note_off_c, 1, 61, 64
3, 162240, Note_on_c, 1, 65, 70
3, 162360, Note_off_c, 1, 65, 64
3, 162360, Note_on_c, 1, 61, 75
3, 162480, Note_off_c, 1, 61, 64
3, 162480, Note_on_c, 1, 58, 77
3, 162600, Note_off_c, 1, 58, 64
3, 162600, Note_on_c, 1, 61, 78
3, 162720, Note_off_c, 1, 61, 64
3, 162720, Note_on_c, 1, 60, 49
3, 162840, Note_off_c, 1, 60, 64
3, 162840, Note_on_c, 1, 65, 47
3, 162960, Note_off_c, 1, 65, 64
3, 162960, Note_on_c, 1, 68, 54
3, 163080, Note_off_c, 1, 68, 64
3, 163080, Note_on_c, 1, 65, 53
3, 163200, Note_off_c, 1, 65, 64
3, 163200, Note_on_c, 1, 60, 51
3, 163320, Note_off_c, 1, 60, 64
3, 163320, Note_on_c, 1, 65, 46
3, 163440, Note_off_c, 1, 65, 64
3, 163440, Note_on_c, 1, 48, 76
3, 163560, Note_off_c, 1, 48, 64
3, 163560, Note_on_c, 1, 51, 78
3, 163680, Note_off_c, 1, 51, 64
3, 163680, Note_on_c, 1, 57, 78
3, 163800, Note_off_c, 1, 57, 64
3, 163800, Note_on_c, 1, 51, 79
3, 163920, Note_off_c, 1, 51, 64
3, 163920, Note_on_c, 1, 48, 74
3, 164040, Note_off_c, 1, 48, 64
3, 164040, Note_on_c, 1, 51, 71
3, 164160, Note_off_c, 1, 51, 64
3, 164160, Note_on_c, 1, 49, 45
3, 164280, Note_off_c, 1, 49, 64
3, 164280, Note_on_c, 1, 53, 48
3, 164400, Note_off_c, 1, 53, 64
3, 164400, Note_on_c, 1, 59, 46
3, 164520, Note_off_c, 1, 59, 64
3, 164520, Note_on_c, 1, 53, 49
3, 164640, Note_off_c, 1, 53, 64
3, 164640, Note_on_c, 1, 49, 51
3, 164760, Note_off_c, 1, 49, 64
3, 164760, Note_on_c, 1, 53, 48
3, 164880, Note_off_c, 1, 53, 64
3, 164880, Note_on_c, 1, 50, 51
3, 165000, Note_off_c, 1, 50, 64
3, 165000, Note_on_c, 1, 53, 54
3, 165120, Note_off_c, 1, 53, 64
3, 165120, Note_on_c, 1, 56, 48
3, 165240, Note_off_c, 1, 56, 64
3, 165240, Note_on_c, 1, 53, 45
3, 165360, Note_off_c, 1, 53, 64
3, 165360, Note_on_c, 1, 50, 54
3, 165480, Note_off_c, 1, 50, 64
3, 165480, Note_on_c, 1, 53, 51
3, 165600, Note_off_c, 1, 53, 64
3, 165600, Note_on_c, 1, 48, 78
3, 165840, Note_off_c, 1, 48, 64
3, 166320, Note_on_c, 1, 48, 75
3, 166440, Note_off_c, 1, 48, 64
3, 166440, Note_on_c, 1, 52, 78
3, 166560, Note_off_c, 1, 52, 64
3, 166560, Note_on_c, 1, 58, 73
3, 166680, Note_off_c, 1, 58, 64
3, 166680, Note_on_c, 1, 52, 73
3, 166800, Note_off_c, 1, 52, 64
3, 166800, Note_on_c, 1, 48, 77
3, 166920, Note_off_c, 1, 48, 64
3, 166920, Note_on_c, 1, 52, 70
3, 167040, Note_off_c, 1, 52, 64
3, 167040, Note_on_c, 1, 53, 71
3, 167280, Note_off_c, 1, 53, 64
3, 167520, Note_on_c, 1, 45, 50
3, 167760, Note_off_c, 1, 45, 64
3, 167760, Note_on_c, 1, 46, 54
3, 168000, Note_off_c, 1, 46, 64
3, 168240, Note_on_c, 1, 46, 79
3, 168480, Note_off_c, 1, 46, 64
3, 168480, Note_on_c, 1, 48, 74
3, 168960, Note_off_c, 1, 48, 64
3, 168960, Note_on_c, 1, 36, 72
3, 169200, Note_off_c, 1, 36, 64
3, 169200, Note_on_c, 1, 41, 73
3, 169440, Note_off_c, 1, 41, 64
3, 169680, Note_on_c, 1, 57, 54
3, 169680, Note_on_c, 1, 45, 52
3, 169920, Note_off_c, 1, 57, 64
3, 169920, Note_off_c, 1, 45, 64
3, 169920, Note_on_c, 1, 58, 50
3, 169920, Note_on_c, 1, 46, 52
3, 170160, Note_off_c, 1, 58, 64
3, 170160, Note_off_c, 1, 46, 64
3, 170400, Note_on_c, 1, 62, 78
3, 170400, Note_on_c, 1, 59, 77
3, 170640, Note_off_c, 1, 62, 64
3, 170640, Note_off_c, 1, 59, 64
3, 170640, Note_on_c, 1, 60, 71
3, 171120, Note_off_c, 1, 60, 64
3, 171120, Note_on_c, 1, 58, 79
3, 171120, Note_on_c, 1, 48, 73
3, 171360, Note_off_c, 1, 58, 64
3, 171360, Note_off_c, 1, 48, 64
3, 171360, Note_on_c, 1, 53, 72
3, 172080, Note_off_c, 1, 53, 64
3, 172080, Note_on_c, 1, 41, 72
3, 172320, Note_off_c, 1, 41, 64
3, 172320, End_track
4, 0, Start_track
4, 0, Text_t, "Wolfgang Amadeus Mozart"
4, 0, Channel_prefix, 2
4, 0, End_track
5, 0, Start_track
5, 0, Text_t, "Sonata No. 2 in F Major"
5, 0, Channel_prefix, 3
5, 0, End_track
6, 0, Start_track
6, 0, Text_t, "Mvt. 2: Adagio"
6, 0, Channel_prefix, 4
6, 0, End_track
7, 0, Start_track
7, 0, Text_t, "Sequenced: Chuck Latshaw"
7, 0, Channel_prefix, 5
7, 0, End_track
8, 0, Start_track
8, 0, Text_t, "Track-7"
8, 0, Channel_prefix, 6
8, 0, End_track
9, 0, Start_track
9, 0, Text_t, "Track-8"
9, 0, Channel_prefix, 7
9, 0, End_track
0, 0, End_of_file
