0, 0, Header, 1, 3, 240
1, 0, Start_track
1, 0, Time_signature, 4, 2, 24, 8
1, 0, Key_signature, 0, "major"
1, 0, Tempo, 300000
1, 0, End_track
2, 0, Start_track
2, 0, MIDI_port, 0
2, 0, Program_c, 0, 0
2, 0, Control_c, 0, 7, 93
2, 0, Control_c, 0, 0, 0
2, 0, Note_on_c, 0, 60, 95
2, 382, Note_on_c, 0, 60, 0
2, 480, Note_on_c, 0, 63, 95
2, 670, Note_on_c, 0, 63, 0
2, 720, Note_on_c, 0, 67, 95
2, 910, Note_on_c, 0, 67, 0
2, 960, Note_on_c, 0, 72, 95
2, 960, Note_on_c, 0, 60, 95
2, 1150, Note_on_c, 0, 60, 0
2, 1150, Note_on_c, 0, 72, 0
2, 1200, Note_on_c, 0, 63, 95
2, 1200, Note_on_c, 0, 75, 95
2, 1390, Note_on_c, 0, 75, 0
2, 1390, Note_on_c, 0, 63, 0
2, 1620, Note_on_c, 0, 75, 65
2, 1667, Note_on_c, 0, 75, 0
2, 1680, Note_on_c, 0, 75, 65
2, 1702, Note_on_c, 0, 75, 0
2, 1710, Note_on_c, 0, 77, 65
2, 1732, Note_on_c, 0, 77, 0
2, 1740, Note_on_c, 0, 75, 65
2, 1762, Note_on_c, 0, 75, 0
2, 1770, Note_on_c, 0, 77, 65
2, 1792, Note_on_c, 0, 77, 0
2, 1800, Note_on_c, 0, 74, 65
2, 1847, Note_on_c, 0, 74, 0
2, 1860, Note_on_c, 0, 75, 65
2, 1907, Note_on_c, 0, 75, 0
2, 1920, Note_on_c, 0, 79, 65
2, 2110, Note_on_c, 0, 79, 0
2, 2160, Note_on_c, 0, 63, 65
2, 2160, Note_on_c, 0, 67, 65
2, 2160, Note_on_c, 0, 72, 65
2, 2350, Note_on_c, 0, 72, 0
2, 2350, Note_on_c, 0, 67, 0
2, 2350, Note_on_c, 0, 63, 0
2, 2400, Note_on_c, 0, 63, 65
2, 2400, Note_on_c, 0, 67, 65
2, 2400, Note_on_c, 0, 72, 65
2, 2590, Note_on_c, 0, 72, 0
2, 2590, Note_on_c, 0, 67, 0
2, 2590, Note_on_c, 0, 63, 0
2, 2640, Note_on_c, 0, 63, 65
2, 2640, Note_on_c, 0, 67, 65
2, 2640, Note_on_c, 0, 72, 65
2, 2830, Note_on_c, 0, 72, 0
2, 2830, Note_on_c, 0, 67, 0
2, 2830, Note_on_c, 0, 63, 0
2, 2880, Note_on_c, 0, 80, 65
2, 3070, Note_on_c, 0, 80, 0
2, 3120, Note_on_c, 0, 68, 75
2, 3120, Note_on_c, 0, 65, 75
2, 3120, Note_on_c, 0, 62, 76
2, 3120, Note_on_c, 0, 71, 75
2, 3310, Note_on_c, 0, 71, 0
2, 3310, Note_on_c, 0, 68, 0
2, 3310, Note_on_c, 0, 65, 0
2, 3310, Note_on_c, 0, 62, 0
2, 3360, Note_on_c, 0, 62, 85
2, 3360, Note_on_c, 0, 65, 84
2, 3360, Note_on_c, 0, 68, 86
2, 3360, Note_on_c, 0, 71, 87
2, 3550, Note_on_c, 0, 71, 0
2, 3550, Note_on_c, 0, 62, 0
2, 3550, Note_on_c, 0, 65, 0
2, 3550, Note_on_c, 0, 68, 0
2, 4560, Note_on_c, 0, 62, 95
2, 4750, Note_on_c, 0, 62, 0
2, 4800, Note_on_c, 0, 67, 95
2, 4990, Note_on_c, 0, 67, 0
2, 5040, Note_on_c, 0, 71, 95
2, 5230, Note_on_c, 0, 71, 0
2, 5460, Note_on_c, 0, 74, 65
2, 5507, Note_on_c, 0, 74, 0
2, 5520, Note_on_c, 0, 74, 66
2, 5542, Note_on_c, 0, 74, 0
2, 5550, Note_on_c, 0, 75, 66
2, 5572, Note_on_c, 0, 75, 0
2, 5580, Note_on_c, 0, 74, 65
2, 5602, Note_on_c, 0, 74, 0
2, 5610, Note_on_c, 0, 75, 65
2, 5632, Note_on_c, 0, 75, 0
2, 5640, Note_on_c, 0, 72, 65
2, 5687, Note_on_c, 0, 72, 0
2, 5700, Note_on_c, 0, 74, 65
2, 5747, Note_on_c, 0, 74, 0
2, 5760, Note_on_c, 0, 77, 65
2, 5950, Note_on_c, 0, 77, 0
2, 6000, Note_on_c, 0, 62, 65
2, 6000, Note_on_c, 0, 65, 65
2, 6000, Note_on_c, 0, 68, 65
2, 6000, Note_on_c, 0, 71, 65
2, 6190, Note_on_c, 0, 71, 0
2, 6190, Note_on_c, 0, 62, 0
2, 6190, Note_on_c, 0, 65, 0
2, 6190, Note_on_c, 0, 68, 0
2, 6240, Note_on_c, 0, 62, 65
2, 6240, Note_on_c, 0, 65, 65
2, 6240, Note_on_c, 0, 68, 65
2, 6240, Note_on_c, 0, 71, 65
2, 6430, Note_on_c, 0, 71, 0
2, 6430, Note_on_c, 0, 62, 0
2, 6430, Note_on_c, 0, 65, 0
2, 6430, Note_on_c, 0, 68, 0
2, 6480, Note_on_c, 0, 62, 65
2, 6480, Note_on_c, 0, 65, 65
2, 6480, Note_on_c, 0, 68, 65
2, 6480, Note_on_c, 0, 71, 65
2, 6670, Note_on_c, 0, 71, 0
2, 6670, Note_on_c, 0, 62, 0
2, 6670, Note_on_c, 0, 65, 0
2, 6670, Note_on_c, 0, 68, 0
2, 6720, Note_on_c, 0, 79, 65
2, 6910, Note_on_c, 0, 79, 0
2, 6960, Note_on_c, 0, 63, 65
2, 6960, Note_on_c, 0, 67, 65
2, 6960, Note_on_c, 0, 72, 65
2, 7150, Note_on_c, 0, 72, 0
2, 7150, Note_on_c, 0, 67, 0
2, 7150, Note_on_c, 0, 63, 0
2, 7200, Note_on_c, 0, 63, 65
2, 7200, Note_on_c, 0, 67, 65
2, 7200, Note_on_c, 0, 72, 65
2, 7390, Note_on_c, 0, 72, 0
2, 7390, Note_on_c, 0, 67, 0
2, 7390, Note_on_c, 0, 63, 0
2, 7680, Note_on_c, 0, 67, 95
2, 8255, Note_on_c, 0, 67, 0
2, 8400, Note_on_c, 0, 67, 65
2, 8400, Note_on_c, 0, 75, 65
2, 8590, Note_on_c, 0, 67, 0
2, 8640, Note_on_c, 0, 66, 95
2, 8830, Note_on_c, 0, 66, 0
2, 8830, Note_on_c, 0, 75, 0
2, 8880, Note_on_c, 0, 65, 95
2, 8880, Note_on_c, 0, 74, 95
2, 9070, Note_on_c, 0, 65, 0
2, 9120, Note_on_c, 0, 64, 95
2, 9262, Note_on_c, 0, 74, 0
2, 9310, Note_on_c, 0, 64, 0
2, 9360, Note_on_c, 0, 63, 95
2, 9360, Note_on_c, 0, 72, 95
2, 9550, Note_on_c, 0, 63, 0
2, 9600, Note_on_c, 0, 62, 95
2, 9790, Note_on_c, 0, 72, 0
2, 9840, Note_on_c, 0, 71, 95
2, 9982, Note_on_c, 0, 62, 0
2, 10030, Note_on_c, 0, 71, 0
2, 10320, Note_on_c, 0, 79, 79
2, 10320, Note_on_c, 0, 75, 63
2, 10510, Note_on_c, 0, 75, 0
2, 10510, Note_on_c, 0, 79, 0
2, 10560, Note_on_c, 0, 75, 65
2, 10560, Note_on_c, 0, 78, 65
2, 10750, Note_on_c, 0, 78, 0
2, 10750, Note_on_c, 0, 75, 0
2, 10800, Note_on_c, 0, 74, 65
2, 10800, Note_on_c, 0, 77, 65
2, 10990, Note_on_c, 0, 77, 0
2, 11040, Note_on_c, 0, 76, 65
2, 11182, Note_on_c, 0, 74, 0
2, 11230, Note_on_c, 0, 76, 0
2, 11280, Note_on_c, 0, 72, 82
2, 11280, Note_on_c, 0, 75, 80
2, 11470, Note_on_c, 0, 75, 0
2, 11470, Note_on_c, 0, 72, 0
2, 11520, Note_on_c, 0, 74, 95
2, 11520, Note_on_c, 0, 72, 95
2, 11710, Note_on_c, 0, 72, 0
2, 11760, Note_on_c, 0, 71, 95
2, 11902, Note_on_c, 0, 74, 0
2, 11950, Note_on_c, 0, 71, 0
2, 12240, Note_on_c, 0, 71, 95
2, 12240, Note_on_c, 0, 74, 95
2, 12240, Note_on_c, 0, 80, 95
2, 12670, Note_on_c, 0, 80, 0
2, 12670, Note_on_c, 0, 74, 0
2, 12670, Note_on_c, 0, 71, 0
2, 12720, Note_on_c, 0, 72, 95
2, 12720, Note_on_c, 0, 75, 95
2, 12720, Note_on_c, 0, 79, 95
2, 12910, Note_on_c, 0, 79, 0
2, 12910, Note_on_c, 0, 75, 0
2, 12910, Note_on_c, 0, 72, 0
2, 13140, Note_on_c, 0, 67, 95
2, 13187, Note_on_c, 0, 67, 0
2, 13200, Note_on_c, 0, 74, 95
2, 13342, Note_on_c, 0, 74, 0
2, 13380, Note_on_c, 0, 77, 95
2, 13427, Note_on_c, 0, 77, 0
2, 13440, Note_on_c, 0, 75, 95
2, 13462, Note_on_c, 0, 75, 0
2, 13470, Note_on_c, 0, 77, 95
2, 13492, Note_on_c, 0, 77, 0
2, 13500, Note_on_c, 0, 74, 95
2, 13547, Note_on_c, 0, 74, 0
2, 13560, Note_on_c, 0, 75, 95
2, 13607, Note_on_c, 0, 75, 0
2, 13620, Note_on_c, 0, 77, 95
2, 13667, Note_on_c, 0, 77, 0
2, 13680, Note_on_c, 0, 79, 95
2, 13870, Note_on_c, 0, 79, 0
2, 14160, Note_on_c, 0, 71, 95
2, 14160, Note_on_c, 0, 74, 95
2, 14160, Note_on_c, 0, 80, 95
2, 14590, Note_on_c, 0, 80, 0
2, 14590, Note_on_c, 0, 74, 0
2, 14590, Note_on_c, 0, 71, 0
2, 14640, Note_on_c, 0, 72, 95
2, 14640, Note_on_c, 0, 75, 95
2, 14640, Note_on_c, 0, 79, 95
2, 14830, Note_on_c, 0, 79, 0
2, 14830, Note_on_c, 0, 75, 0
2, 14830, Note_on_c, 0, 72, 0
2, 15060, Note_on_c, 0, 77, 95
2, 15107, Note_on_c, 0, 77, 0
2, 15120, Note_on_c, 0, 83, 95
2, 15262, Note_on_c, 0, 83, 0
2, 15300, Note_on_c, 0, 86, 95
2, 15347, Note_on_c, 0, 86, 0
2, 15360, Note_on_c, 0, 87, 81
2, 15455, Note_on_c, 0, 87, 0
2, 15480, Note_on_c, 0, 79, 65
2, 15575, Note_on_c, 0, 79, 0
2, 15600, Note_on_c, 0, 84, 65
2, 15695, Note_on_c, 0, 84, 0
2, 15720, Note_on_c, 0, 79, 65
2, 15815, Note_on_c, 0, 79, 0
2, 15960, Note_on_c, 0, 77, 65
2, 16055, Note_on_c, 0, 77, 0
2, 16080, Note_on_c, 0, 80, 65
2, 16175, Note_on_c, 0, 80, 0
2, 16200, Note_on_c, 0, 74, 65
2, 16295, Note_on_c, 0, 74, 0
2, 16440, Note_on_c, 0, 75, 65
2, 16535, Note_on_c, 0, 75, 0
2, 16560, Note_on_c, 0, 79, 65
2, 16655, Note_on_c, 0, 79, 0
2, 16680, Note_on_c, 0, 72, 65
2, 16775, Note_on_c, 0, 72, 0
2, 16920, Note_on_c, 0, 74, 65
2, 17015, Note_on_c, 0, 74, 0
2, 17040, Note_on_c, 0, 77, 80
2, 17135, Note_on_c, 0, 77, 0
2, 17160, Note_on_c, 0, 71, 80
2, 17255, Note_on_c, 0, 71, 0
2, 17280, Note_on_c, 0, 60, 95
2, 17280, Note_on_c, 0, 72, 95
2, 17662, Note_on_c, 0, 72, 0
2, 17662, Note_on_c, 0, 60, 0
2, 17760, Note_on_c, 0, 63, 95
2, 17760, Note_on_c, 0, 75, 95
2, 17950, Note_on_c, 0, 75, 0
2, 17950, Note_on_c, 0, 63, 0
2, 18000, Note_on_c, 0, 67, 95
2, 18000, Note_on_c, 0, 79, 95
2, 18190, Note_on_c, 0, 79, 0
2, 18190, Note_on_c, 0, 67, 0
2, 18240, Note_on_c, 0, 84, 95
2, 18240, Note_on_c, 0, 72, 95
2, 18430, Note_on_c, 0, 72, 0
2, 18430, Note_on_c, 0, 84, 0
2, 18480, Note_on_c, 0, 75, 95
2, 18480, Note_on_c, 0, 87, 95
2, 18670, Note_on_c, 0, 87, 0
2, 18670, Note_on_c, 0, 75, 0
2, 18900, Note_on_c, 0, 75, 95
2, 18947, Note_on_c, 0, 75, 0
2, 18960, Note_on_c, 0, 75, 95
2, 18982, Note_on_c, 0, 75, 0
2, 18990, Note_on_c, 0, 77, 95
2, 19012, Note_on_c, 0, 77, 0
2, 19020, Note_on_c, 0, 75, 95
2, 19042, Note_on_c, 0, 75, 0
2, 19050, Note_on_c, 0, 77, 95
2, 19072, Note_on_c, 0, 77, 0
2, 19080, Note_on_c, 0, 74, 95
2, 19127, Note_on_c, 0, 74, 0
2, 19140, Note_on_c, 0, 75, 95
2, 19187, Note_on_c, 0, 75, 0
2, 19200, Note_on_c, 0, 80, 95
2, 19262, Note_on_c, 0, 80, 0
2, 19280, Note_on_c, 0, 82, 95
2, 19342, Note_on_c, 0, 82, 0
2, 19360, Note_on_c, 0, 84, 95
2, 19422, Note_on_c, 0, 84, 0
2, 19440, Note_on_c, 0, 82, 95
2, 19502, Note_on_c, 0, 82, 0
2, 19520, Note_on_c, 0, 80, 95
2, 19582, Note_on_c, 0, 80, 0
2, 19600, Note_on_c, 0, 79, 95
2, 19662, Note_on_c, 0, 79, 0
2, 19680, Note_on_c, 0, 77, 95
2, 19742, Note_on_c, 0, 77, 0
2, 19760, Note_on_c, 0, 79, 95
2, 19822, Note_on_c, 0, 79, 0
2, 19840, Note_on_c, 0, 80, 95
2, 19902, Note_on_c, 0, 80, 0
2, 19920, Note_on_c, 0, 79, 95
2, 19982, Note_on_c, 0, 79, 0
2, 20000, Note_on_c, 0, 77, 95
2, 20062, Note_on_c, 0, 77, 0
2, 20080, Note_on_c, 0, 75, 95
2, 20142, Note_on_c, 0, 75, 0
2, 20160, Note_on_c, 0, 74, 95
2, 20222, Note_on_c, 0, 74, 0
2, 20240, Note_on_c, 0, 75, 95
2, 20302, Note_on_c, 0, 75, 0
2, 20320, Note_on_c, 0, 77, 95
2, 20382, Note_on_c, 0, 77, 0
2, 20400, Note_on_c, 0, 62, 95
2, 20400, Note_on_c, 0, 75, 95
2, 20462, Note_on_c, 0, 75, 0
2, 20480, Note_on_c, 0, 74, 95
2, 20542, Note_on_c, 0, 74, 0
2, 20560, Note_on_c, 0, 72, 95
2, 20590, Note_on_c, 0, 62, 0
2, 20622, Note_on_c, 0, 72, 0
2, 20640, Note_on_c, 0, 70, 95
2, 20702, Note_on_c, 0, 70, 0
2, 20720, Note_on_c, 0, 72, 95
2, 20782, Note_on_c, 0, 72, 0
2, 20800, Note_on_c, 0, 70, 95
2, 20862, Note_on_c, 0, 70, 0
2, 20880, Note_on_c, 0, 68, 95
2, 20942, Note_on_c, 0, 68, 0
2, 20960, Note_on_c, 0, 70, 95
2, 21022, Note_on_c, 0, 70, 0
2, 21040, Note_on_c, 0, 68, 95
2, 21102, Note_on_c, 0, 68, 0
2, 21120, Note_on_c, 0, 67, 50
2, 21407, Note_on_c, 0, 67, 0
2, 21480, Note_on_c, 0, 68, 50
2, 21502, Note_on_c, 0, 68, 0
2, 21510, Note_on_c, 0, 67, 50
2, 21532, Note_on_c, 0, 67, 0
2, 21540, Note_on_c, 0, 65, 50
2, 21562, Note_on_c, 0, 65, 0
2, 21570, Note_on_c, 0, 67, 50
2, 21592, Note_on_c, 0, 67, 0
2, 21600, Note_on_c, 0, 68, 50
2, 21790, Note_on_c, 0, 68, 0
2, 21840, Note_on_c, 0, 62, 50
2, 22030, Note_on_c, 0, 62, 0
2, 22080, Note_on_c, 0, 63, 50
2, 22175, Note_on_c, 0, 63, 0
2, 22200, Note_on_c, 0, 67, 50
2, 22295, Note_on_c, 0, 67, 0
2, 22320, Note_on_c, 0, 70, 50
2, 22607, Note_on_c, 0, 70, 0
2, 22680, Note_on_c, 0, 69, 50
2, 22775, Note_on_c, 0, 69, 0
2, 22800, Note_on_c, 0, 68, 50
2, 22895, Note_on_c, 0, 68, 0
2, 22920, Note_on_c, 0, 66, 50
2, 23015, Note_on_c, 0, 66, 0
2, 23040, Note_on_c, 0, 67, 50
2, 23327, Note_on_c, 0, 67, 0
2, 23400, Note_on_c, 0, 68, 50
2, 23422, Note_on_c, 0, 68, 0
2, 23430, Note_on_c, 0, 67, 50
2, 23452, Note_on_c, 0, 67, 0
2, 23460, Note_on_c, 0, 65, 50
2, 23482, Note_on_c, 0, 65, 0
2, 23490, Note_on_c, 0, 67, 50
2, 23512, Note_on_c, 0, 67, 0
2, 23520, Note_on_c, 0, 68, 50
2, 23710, Note_on_c, 0, 68, 0
2, 23760, Note_on_c, 0, 62, 50
2, 23950, Note_on_c, 0, 62, 0
2, 24000, Note_on_c, 0, 63, 50
2, 24095, Note_on_c, 0, 63, 0
2, 24120, Note_on_c, 0, 75, 50
2, 24215, Note_on_c, 0, 75, 0
2, 24240, Note_on_c, 0, 74, 50
2, 24335, Note_on_c, 0, 74, 0
2, 24360, Note_on_c, 0, 72, 50
2, 24455, Note_on_c, 0, 72, 0
2, 24480, Note_on_c, 0, 71, 50
2, 24575, Note_on_c, 0, 71, 0
2, 24600, Note_on_c, 0, 69, 50
2, 24695, Note_on_c, 0, 69, 0
2, 24720, Note_on_c, 0, 68, 50
2, 24815, Note_on_c, 0, 68, 0
2, 24840, Note_on_c, 0, 66, 50
2, 24935, Note_on_c, 0, 66, 0
2, 24960, Note_on_c, 0, 67, 50
2, 25150, Note_on_c, 0, 67, 0
2, 25200, Note_on_c, 0, 70, 50
2, 25390, Note_on_c, 0, 70, 0
2, 25560, Note_on_c, 0, 70, 55
2, 25655, Note_on_c, 0, 70, 0
2, 25680, Note_on_c, 0, 70, 60
2, 25775, Note_on_c, 0, 70, 0
2, 25800, Note_on_c, 0, 70, 60
2, 25895, Note_on_c, 0, 70, 0
2, 25920, Note_on_c, 0, 77, 65
2, 26015, Note_on_c, 0, 77, 0
2, 26040, Note_on_c, 0, 75, 66
2, 26135, Note_on_c, 0, 75, 0
2, 26160, Note_on_c, 0, 75, 70
2, 26350, Note_on_c, 0, 75, 0
2, 26520, Note_on_c, 0, 75, 73
2, 26615, Note_on_c, 0, 75, 0
2, 26640, Note_on_c, 0, 75, 85
2, 26735, Note_on_c, 0, 75, 0
2, 26760, Note_on_c, 0, 75, 85
2, 26855, Note_on_c, 0, 75, 0
2, 26880, Note_on_c, 0, 75, 95
2, 26975, Note_on_c, 0, 75, 0
2, 27000, Note_on_c, 0, 77, 95
2, 27047, Note_on_c, 0, 77, 0
2, 27060, Note_on_c, 0, 79, 95
2, 27107, Note_on_c, 0, 79, 0
2, 27120, Note_on_c, 0, 77, 95
2, 27215, Note_on_c, 0, 77, 0
2, 27240, Note_on_c, 0, 75, 95
2, 27335, Note_on_c, 0, 75, 0
2, 27360, Note_on_c, 0, 74, 95
2, 27455, Note_on_c, 0, 74, 0
2, 27480, Note_on_c, 0, 72, 95
2, 27575, Note_on_c, 0, 72, 0
2, 27600, Note_on_c, 0, 70, 95
2, 27695, Note_on_c, 0, 70, 0
2, 27720, Note_on_c, 0, 69, 95
2, 27815, Note_on_c, 0, 69, 0
2, 27840, Note_on_c, 0, 72, 95
2, 28030, Note_on_c, 0, 72, 0
2, 28080, Note_on_c, 0, 62, 95
2, 28080, Note_on_c, 0, 70, 95
2, 28270, Note_on_c, 0, 70, 0
2, 28270, Note_on_c, 0, 62, 0
2, 28320, Note_on_c, 0, 63, 95
2, 28510, Note_on_c, 0, 63, 0
2, 28560, Note_on_c, 0, 75, 95
2, 28655, Note_on_c, 0, 75, 0
2, 28680, Note_on_c, 0, 75, 95
2, 28775, Note_on_c, 0, 75, 0
2, 28800, Note_on_c, 0, 82, 65
2, 28990, Note_on_c, 0, 82, 0
2, 29040, Note_on_c, 0, 62, 65
2, 29230, Note_on_c, 0, 62, 0
2, 29280, Note_on_c, 0, 63, 65
2, 29470, Note_on_c, 0, 63, 0
2, 29520, Note_on_c, 0, 75, 65
2, 29615, Note_on_c, 0, 75, 0
2, 29640, Note_on_c, 0, 75, 65
2, 29735, Note_on_c, 0, 75, 0
2, 29760, Note_on_c, 0, 82, 65
2, 29950, Note_on_c, 0, 82, 0
2, 30000, Note_on_c, 0, 62, 65
2, 30190, Note_on_c, 0, 62, 0
2, 30240, Note_on_c, 0, 63, 65
2, 30430, Note_on_c, 0, 63, 0
2, 30480, Note_on_c, 0, 75, 65
2, 30575, Note_on_c, 0, 75, 0
2, 30600, Note_on_c, 0, 75, 65
2, 30695, Note_on_c, 0, 75, 0
2, 30720, Note_on_c, 0, 62, 65
2, 30720, Note_on_c, 0, 82, 65
2, 30910, Note_on_c, 0, 82, 0
2, 30910, Note_on_c, 0, 62, 0
2, 30960, Note_on_c, 0, 63, 65
2, 30960, Note_on_c, 0, 75, 65
2, 31055, Note_on_c, 0, 75, 0
2, 31080, Note_on_c, 0, 75, 65
2, 31150, Note_on_c, 0, 63, 0
2, 31175, Note_on_c, 0, 75, 0
2, 31200, Note_on_c, 0, 62, 65
2, 31200, Note_on_c, 0, 82, 65
2, 31390, Note_on_c, 0, 82, 0
2, 31390, Note_on_c, 0, 62, 0
2, 31440, Note_on_c, 0, 75, 65
2, 31440, Note_on_c, 0, 63, 65
2, 31535, Note_on_c, 0, 75, 0
2, 31560, Note_on_c, 0, 75, 65
2, 31630, Note_on_c, 0, 63, 0
2, 31655, Note_on_c, 0, 75, 0
2, 31680, Note_on_c, 0, 62, 65
2, 31680, Note_on_c, 0, 82, 65
2, 31870, Note_on_c, 0, 82, 0
2, 31870, Note_on_c, 0, 62, 0
2, 31920, Note_on_c, 0, 82, 65
2, 32110, Note_on_c, 0, 82, 0
2, 32160, Note_on_c, 0, 82, 65
2, 32350, Note_on_c, 0, 82, 0
2, 32400, Note_on_c, 0, 82, 65
2, 32590, Note_on_c, 0, 82, 0
2, 32640, Note_on_c, 0, 82, 65
2, 32735, Note_on_c, 0, 82, 0
2, 32760, Note_on_c, 0, 81, 65
2, 32855, Note_on_c, 0, 81, 0
2, 32880, Note_on_c, 0, 80, 65
2, 32975, Note_on_c, 0, 80, 0
2, 33000, Note_on_c, 0, 77, 65
2, 33095, Note_on_c, 0, 77, 0
2, 33120, Note_on_c, 0, 82, 65
2, 33215, Note_on_c, 0, 82, 0
2, 33240, Note_on_c, 0, 81, 65
2, 33335, Note_on_c, 0, 81, 0
2, 33360, Note_on_c, 0, 80, 65
2, 33455, Note_on_c, 0, 80, 0
2, 33480, Note_on_c, 0, 77, 65
2, 33575, Note_on_c, 0, 77, 0
2, 33600, Note_on_c, 0, 75, 65
2, 33600, Note_on_c, 0, 67, 65
2, 33695, Note_on_c, 0, 67, 0
2, 33720, Note_on_c, 0, 70, 65
2, 33815, Note_on_c, 0, 70, 0
2, 33840, Note_on_c, 0, 67, 65
2, 33887, Note_on_c, 0, 75, 0
2, 33935, Note_on_c, 0, 67, 0
2, 33960, Note_on_c, 0, 70, 65
2, 33960, Note_on_c, 0, 77, 65
2, 34007, Note_on_c, 0, 77, 0
2, 34020, Note_on_c, 0, 75, 65
2, 34055, Note_on_c, 0, 70, 0
2, 34067, Note_on_c, 0, 75, 0
2, 34080, Note_on_c, 0, 65, 65
2, 34080, Note_on_c, 0, 74, 65
2, 34175, Note_on_c, 0, 65, 0
2, 34200, Note_on_c, 0, 70, 65
2, 34270, Note_on_c, 0, 74, 0
2, 34295, Note_on_c, 0, 70, 0
2, 34320, Note_on_c, 0, 67, 65
2, 34320, Note_on_c, 0, 75, 65
2, 34415, Note_on_c, 0, 67, 0
2, 34440, Note_on_c, 0, 70, 65
2, 34510, Note_on_c, 0, 75, 0
2, 34535, Note_on_c, 0, 70, 0
2, 34560, Note_on_c, 0, 67, 65
2, 34560, Note_on_c, 0, 76, 65
2, 34655, Note_on_c, 0, 67, 0
2, 34680, Note_on_c, 0, 70, 65
2, 34775, Note_on_c, 0, 70, 0
2, 34800, Note_on_c, 0, 67, 65
2, 34895, Note_on_c, 0, 67, 0
2, 34920, Note_on_c, 0, 70, 65
2, 34942, Note_on_c, 0, 76, 0
2, 35015, Note_on_c, 0, 70, 0
2, 35040, Note_on_c, 0, 68, 65
2, 35040, Note_on_c, 0, 77, 65
2, 35135, Note_on_c, 0, 68, 0
2, 35160, Note_on_c, 0, 70, 65
2, 35230, Note_on_c, 0, 77, 0
2, 35255, Note_on_c, 0, 70, 0
2, 35280, Note_on_c, 0, 68, 65
2, 35375, Note_on_c, 0, 68, 0
2, 35400, Note_on_c, 0, 70, 65
2, 35495, Note_on_c, 0, 70, 0
2, 35520, Note_on_c, 0, 65, 65
2, 35615, Note_on_c, 0, 65, 0
2, 35640, Note_on_c, 0, 70, 65
2, 35735, Note_on_c, 0, 70, 0
2, 35760, Note_on_c, 0, 65, 65
2, 35855, Note_on_c, 0, 65, 0
2, 35880, Note_on_c, 0, 70, 65
2, 35975, Note_on_c, 0, 70, 0
2, 36000, Note_on_c, 0, 65, 65
2, 36095, Note_on_c, 0, 65, 0
2, 36120, Note_on_c, 0, 70, 65
2, 36215, Note_on_c, 0, 70, 0
2, 36240, Note_on_c, 0, 67, 65
2, 36335, Note_on_c, 0, 67, 0
2, 36360, Note_on_c, 0, 70, 65
2, 36455, Note_on_c, 0, 70, 0
2, 36480, Note_on_c, 0, 68, 65
2, 36575, Note_on_c, 0, 68, 0
2, 36600, Note_on_c, 0, 70, 65
2, 36695, Note_on_c, 0, 70, 0
2, 36720, Note_on_c, 0, 65, 65
2, 36815, Note_on_c, 0, 65, 0
2, 36840, Note_on_c, 0, 70, 65
2, 36935, Note_on_c, 0, 70, 0
2, 36960, Note_on_c, 0, 68, 65
2, 37055, Note_on_c, 0, 68, 0
2, 37080, Note_on_c, 0, 70, 65
2, 37175, Note_on_c, 0, 70, 0
2, 37200, Note_on_c, 0, 65, 65
2, 37295, Note_on_c, 0, 65, 0
2, 37320, Note_on_c, 0, 70, 65
2, 37415, Note_on_c, 0, 70, 0
2, 37440, Note_on_c, 0, 77, 65
2, 37440, Note_on_c, 0, 62, 65
2, 37535, Note_on_c, 0, 62, 0
2, 37560, Note_on_c, 0, 70, 65
2, 37655, Note_on_c, 0, 70, 0
2, 37680, Note_on_c, 0, 62, 65
2, 37727, Note_on_c, 0, 77, 0
2, 37775, Note_on_c, 0, 62, 0
2, 37800, Note_on_c, 0, 70, 65
2, 37800, Note_on_c, 0, 79, 65
2, 37847, Note_on_c, 0, 79, 0
2, 37860, Note_on_c, 0, 77, 65
2, 37895, Note_on_c, 0, 70, 0
2, 37907, Note_on_c, 0, 77, 0
2, 37920, Note_on_c, 0, 60, 65
2, 37920, Note_on_c, 0, 75, 65
2, 38015, Note_on_c, 0, 60, 0
2, 38040, Note_on_c, 0, 70, 65
2, 38110, Note_on_c, 0, 75, 0
2, 38135, Note_on_c, 0, 70, 0
2, 38160, Note_on_c, 0, 62, 65
2, 38160, Note_on_c, 0, 77, 65
2, 38255, Note_on_c, 0, 62, 0
2, 38280, Note_on_c, 0, 70, 65
2, 38350, Note_on_c, 0, 77, 0
2, 38375, Note_on_c, 0, 70, 0
2, 38400, Note_on_c, 0, 62, 65
2, 38400, Note_on_c, 0, 78, 65
2, 38495, Note_on_c, 0, 62, 0
2, 38520, Note_on_c, 0, 70, 65
2, 38615, Note_on_c, 0, 70, 0
2, 38640, Note_on_c, 0, 62, 65
2, 38735, Note_on_c, 0, 62, 0
2, 38760, Note_on_c, 0, 70, 65
2, 38782, Note_on_c, 0, 78, 0
2, 38855, Note_on_c, 0, 70, 0
2, 38880, Note_on_c, 0, 63, 65
2, 38880, Note_on_c, 0, 79, 65
2, 38975, Note_on_c, 0, 63, 0
2, 39000, Note_on_c, 0, 70, 65
2, 39070, Note_on_c, 0, 79, 0
2, 39095, Note_on_c, 0, 70, 0
2, 39120, Note_on_c, 0, 63, 65
2, 39215, Note_on_c, 0, 63, 0
2, 39240, Note_on_c, 0, 70, 65
2, 39335, Note_on_c, 0, 70, 0
2, 39360, Note_on_c, 0, 67, 65
2, 39455, Note_on_c, 0, 67, 0
2, 39480, Note_on_c, 0, 70, 65
2, 39575, Note_on_c, 0, 70, 0
2, 39600, Note_on_c, 0, 63, 65
2, 39695, Note_on_c, 0, 63, 0
2, 39720, Note_on_c, 0, 70, 65
2, 39815, Note_on_c, 0, 70, 0
2, 39840, Note_on_c, 0, 60, 65
2, 39840, Note_on_c, 0, 67, 65
2, 39935, Note_on_c, 0, 67, 0
2, 39935, Note_on_c, 0, 60, 0
2, 39960, Note_on_c, 0, 70, 65
2, 40055, Note_on_c, 0, 70, 0
2, 40080, Note_on_c, 0, 63, 65
2, 40175, Note_on_c, 0, 63, 0
2, 40200, Note_on_c, 0, 70, 65
2, 40295, Note_on_c, 0, 70, 0
2, 40320, Note_on_c, 0, 68, 65
2, 40415, Note_on_c, 0, 68, 0
2, 40440, Note_on_c, 0, 70, 65
2, 40535, Note_on_c, 0, 70, 0
2, 40560, Note_on_c, 0, 65, 65
2, 40655, Note_on_c, 0, 65, 0
2, 40680, Note_on_c, 0, 70, 65
2, 40775, Note_on_c, 0, 70, 0
2, 40800, Note_on_c, 0, 67, 75
2, 40895, Note_on_c, 0, 67, 0
2, 40920, Note_on_c, 0, 70, 75
2, 41015, Note_on_c, 0, 70, 0
2, 41040, Note_on_c, 0, 63, 85
2, 41135, Note_on_c, 0, 63, 0
2, 41160, Note_on_c, 0, 70, 84
2, 41255, Note_on_c, 0, 70, 0
2, 41280, Note_on_c, 0, 63, 95
2, 41280, Note_on_c, 0, 70, 95
2, 41280, Note_on_c, 0, 82, 95
2, 41375, Note_on_c, 0, 63, 0
2, 41400, Note_on_c, 0, 67, 95
2, 41495, Note_on_c, 0, 67, 0
2, 41520, Note_on_c, 0, 63, 95
2, 41615, Note_on_c, 0, 63, 0
2, 41640, Note_on_c, 0, 67, 95
2, 41662, Note_on_c, 0, 82, 0
2, 41662, Note_on_c, 0, 70, 0
2, 41735, Note_on_c, 0, 67, 0
2, 41760, Note_on_c, 0, 71, 95
2, 41760, Note_on_c, 0, 83, 95
2, 41760, Note_on_c, 0, 61, 95
2, 41855, Note_on_c, 0, 61, 0
2, 41880, Note_on_c, 0, 65, 95
2, 41975, Note_on_c, 0, 65, 0
2, 42000, Note_on_c, 0, 61, 95
2, 42095, Note_on_c, 0, 61, 0
2, 42120, Note_on_c, 0, 65, 95
2, 42142, Note_on_c, 0, 83, 0
2, 42142, Note_on_c, 0, 71, 0
2, 42215, Note_on_c, 0, 65, 0
2, 42240, Note_on_c, 0, 60, 95
2, 42240, Note_on_c, 0, 72, 95
2, 42240, Note_on_c, 0, 84, 95
2, 42335, Note_on_c, 0, 60, 0
2, 42360, Note_on_c, 0, 64, 95
2, 42430, Note_on_c, 0, 84, 0
2, 42430, Note_on_c, 0, 72, 0
2, 42455, Note_on_c, 0, 64, 0
2, 42480, Note_on_c, 0, 64, 95
2, 42480, Note_on_c, 0, 73, 95
2, 42480, Note_on_c, 0, 85, 95
2, 42670, Note_on_c, 0, 85, 0
2, 42670, Note_on_c, 0, 73, 0
2, 42670, Note_on_c, 0, 64, 0
2, 43200, Note_on_c, 0, 65, 65
2, 43320, Note_on_c, 0, 84, 65
2, 43390, Note_on_c, 0, 65, 0
2, 43415, Note_on_c, 0, 84, 0
2, 43440, Note_on_c, 0, 82, 65
2, 43535, Note_on_c, 0, 82, 0
2, 43560, Note_on_c, 0, 80, 65
2, 43655, Note_on_c, 0, 80, 0
2, 43680, Note_on_c, 0, 79, 65
2, 43775, Note_on_c, 0, 79, 0
2, 43800, Note_on_c, 0, 77, 65
2, 43895, Note_on_c, 0, 77, 0
2, 43920, Note_on_c, 0, 79, 65
2, 44015, Note_on_c, 0, 79, 0
2, 44040, Note_on_c, 0, 80, 65
2, 44135, Note_on_c, 0, 80, 0
2, 44160, Note_on_c, 0, 75, 65
2, 44400, Note_on_c, 0, 67, 65
2, 44590, Note_on_c, 0, 67, 0
2, 44640, Note_on_c, 0, 68, 65
2, 44735, Note_on_c, 0, 75, 0
2, 44880, Note_on_c, 0, 79, 65
2, 44880, Note_on_c, 0, 74, 65
2, 44975, Note_on_c, 0, 79, 0
2, 45000, Note_on_c, 0, 77, 65
2, 45022, Note_on_c, 0, 68, 0
2, 45070, Note_on_c, 0, 74, 0
2, 45095, Note_on_c, 0, 77, 0
2, 45120, Note_on_c, 0, 75, 65
2, 45120, Note_on_c, 0, 67, 65
2, 45120, Note_on_c, 0, 60, 65
2, 45310, Note_on_c, 0, 60, 0
2, 45310, Note_on_c, 0, 67, 0
2, 45310, Note_on_c, 0, 75, 0
2, 45480, Note_on_c, 0, 75, 65
2, 45575, Note_on_c, 0, 75, 0
2, 45600, Note_on_c, 0, 74, 76
2, 45695, Note_on_c, 0, 74, 0
2, 45720, Note_on_c, 0, 73, 76
2, 45815, Note_on_c, 0, 73, 0
2, 45840, Note_on_c, 0, 72, 85
2, 45935, Note_on_c, 0, 72, 0
2, 45960, Note_on_c, 0, 71, 85
2, 46055, Note_on_c, 0, 71, 0
2, 46080, Note_on_c, 0, 70, 95
2, 46462, Note_on_c, 0, 70, 0
2, 46560, Note_on_c, 0, 71, 95
2, 46942, Note_on_c, 0, 71, 0
2, 47040, Note_on_c, 0, 60, 95
2, 47040, Note_on_c, 0, 72, 95
2, 47230, Note_on_c, 0, 72, 0
2, 47230, Note_on_c, 0, 60, 0
2, 47280, Note_on_c, 0, 61, 95
2, 47280, Note_on_c, 0, 73, 95
2, 47470, Note_on_c, 0, 73, 0
2, 47470, Note_on_c, 0, 61, 0
2, 48000, Note_on_c, 0, 72, 95
2, 48062, Note_on_c, 0, 72, 0
2, 48080, Note_on_c, 0, 77, 95
2, 48142, Note_on_c, 0, 77, 0
2, 48160, Note_on_c, 0, 67, 95
2, 48222, Note_on_c, 0, 67, 0
2, 48240, Note_on_c, 0, 68, 95
2, 48302, Note_on_c, 0, 68, 0
2, 48320, Note_on_c, 0, 72, 95
2, 48382, Note_on_c, 0, 72, 0
2, 48400, Note_on_c, 0, 64, 95
2, 48462, Note_on_c, 0, 64, 0
2, 48480, Note_on_c, 0, 65, 95
2, 48542, Note_on_c, 0, 65, 0
2, 48560, Note_on_c, 0, 68, 95
2, 48622, Note_on_c, 0, 68, 0
2, 48720, Note_on_c, 0, 60, 95
2, 48782, Note_on_c, 0, 60, 0
2, 48800, Note_on_c, 0, 65, 95
2, 48862, Note_on_c, 0, 65, 0
2, 49040, Note_on_c, 0, 60, 95
2, 49102, Note_on_c, 0, 60, 0
2, 51360, Note_on_c, 0, 60, 95
2, 51455, Note_on_c, 0, 60, 0
2, 51600, Note_on_c, 0, 65, 95
2, 51695, Note_on_c, 0, 65, 0
2, 51720, Note_on_c, 0, 60, 95
2, 51815, Note_on_c, 0, 60, 0
2, 51840, Note_on_c, 0, 68, 95
2, 51935, Note_on_c, 0, 68, 0
2, 51960, Note_on_c, 0, 65, 95
2, 52055, Note_on_c, 0, 65, 0
2, 52080, Note_on_c, 0, 72, 95
2, 52175, Note_on_c, 0, 72, 0
2, 52200, Note_on_c, 0, 68, 95
2, 52295, Note_on_c, 0, 68, 0
2, 52320, Note_on_c, 0, 77, 95
2, 52415, Note_on_c, 0, 77, 0
2, 52440, Note_on_c, 0, 72, 95
2, 52535, Note_on_c, 0, 72, 0
2, 52560, Note_on_c, 0, 80, 95
2, 52655, Note_on_c, 0, 80, 0
2, 52680, Note_on_c, 0, 77, 95
2, 52775, Note_on_c, 0, 77, 0
2, 52800, Note_on_c, 0, 84, 95
2, 52990, Note_on_c, 0, 84, 0
2, 53040, Note_on_c, 0, 65, 95
2, 53040, Note_on_c, 0, 60, 95
2, 53230, Note_on_c, 0, 60, 0
2, 53230, Note_on_c, 0, 65, 0
2, 53280, Note_on_c, 0, 87, 95
2, 53470, Note_on_c, 0, 87, 0
2, 53520, Note_on_c, 0, 66, 95
2, 53520, Note_on_c, 0, 60, 95
2, 53710, Note_on_c, 0, 60, 0
2, 53710, Note_on_c, 0, 66, 0
2, 53760, Note_on_c, 0, 63, 94
2, 53760, Note_on_c, 0, 67, 93
2, 53880, Note_on_c, 0, 70, 65
2, 53950, Note_on_c, 0, 67, 0
2, 53950, Note_on_c, 0, 63, 0
2, 53975, Note_on_c, 0, 70, 0
2, 54000, Note_on_c, 0, 82, 65
2, 54095, Note_on_c, 0, 82, 0
2, 54120, Note_on_c, 0, 81, 65
2, 54215, Note_on_c, 0, 81, 0
2, 54240, Note_on_c, 0, 80, 65
2, 54335, Note_on_c, 0, 80, 0
2, 54360, Note_on_c, 0, 79, 65
2, 54455, Note_on_c, 0, 79, 0
2, 54480, Note_on_c, 0, 78, 65
2, 54575, Note_on_c, 0, 78, 0
2, 54600, Note_on_c, 0, 77, 65
2, 54695, Note_on_c, 0, 77, 0
2, 54720, Note_on_c, 0, 77, 65
2, 54815, Note_on_c, 0, 77, 0
2, 54840, Note_on_c, 0, 75, 65
2, 54935, Note_on_c, 0, 75, 0
2, 54960, Note_on_c, 0, 75, 65
2, 54960, Note_on_c, 0, 67, 65
2, 55150, Note_on_c, 0, 67, 0
2, 55200, Note_on_c, 0, 68, 65
2, 55342, Note_on_c, 0, 75, 0
2, 55440, Note_on_c, 0, 74, 65
2, 55440, Note_on_c, 0, 79, 65
2, 55535, Note_on_c, 0, 79, 0
2, 55535, Note_on_c, 0, 74, 0
2, 55560, Note_on_c, 0, 77, 65
2, 55582, Note_on_c, 0, 68, 0
2, 55655, Note_on_c, 0, 77, 0
2, 55680, Note_on_c, 0, 75, 65
2, 55680, Note_on_c, 0, 63, 65
2, 55775, Note_on_c, 0, 63, 0
2, 55800, Note_on_c, 0, 70, 65
2, 55870, Note_on_c, 0, 75, 0
2, 55895, Note_on_c, 0, 70, 0
2, 55920, Note_on_c, 0, 67, 65
2, 56015, Note_on_c, 0, 67, 0
2, 56040, Note_on_c, 0, 70, 65
2, 56040, Note_on_c, 0, 75, 65
2, 56135, Note_on_c, 0, 75, 0
2, 56135, Note_on_c, 0, 70, 0
2, 56160, Note_on_c, 0, 62, 65
2, 56160, Note_on_c, 0, 76, 65
2, 56255, Note_on_c, 0, 76, 0
2, 56255, Note_on_c, 0, 62, 0
2, 56280, Note_on_c, 0, 70, 65
2, 56280, Note_on_c, 0, 77, 65
2, 56375, Note_on_c, 0, 77, 0
2, 56375, Note_on_c, 0, 70, 0
2, 56400, Note_on_c, 0, 68, 65
2, 56495, Note_on_c, 0, 68, 0
2, 56520, Note_on_c, 0, 70, 65
2, 56520, Note_on_c, 0, 77, 65
2, 56615, Note_on_c, 0, 77, 0
2, 56615, Note_on_c, 0, 70, 0
2, 56640, Note_on_c, 0, 63, 65
2, 56640, Note_on_c, 0, 78, 65
2, 56735, Note_on_c, 0, 78, 0
2, 56735, Note_on_c, 0, 63, 0
2, 56760, Note_on_c, 0, 70, 65
2, 56760, Note_on_c, 0, 79, 65
2, 56855, Note_on_c, 0, 79, 0
2, 56855, Note_on_c, 0, 70, 0
2, 56880, Note_on_c, 0, 67, 65
2, 56975, Note_on_c, 0, 67, 0
2, 57000, Note_on_c, 0, 70, 65
2, 57000, Note_on_c, 0, 79, 65
2, 57095, Note_on_c, 0, 79, 0
2, 57095, Note_on_c, 0, 70, 0
2, 57120, Note_on_c, 0, 82, 65
2, 57215, Note_on_c, 0, 82, 0
2, 57240, Note_on_c, 0, 62, 65
2, 57240, Note_on_c, 0, 80, 65
2, 57335, Note_on_c, 0, 80, 0
2, 57335, Note_on_c, 0, 62, 0
2, 57480, Note_on_c, 0, 62, 65
2, 57480, Note_on_c, 0, 80, 65
2, 57575, Note_on_c, 0, 80, 0
2, 57575, Note_on_c, 0, 62, 0
2, 57600, Note_on_c, 0, 81, 65
2, 57695, Note_on_c, 0, 81, 0
2, 57720, Note_on_c, 0, 63, 65
2, 57720, Note_on_c, 0, 82, 65
2, 57815, Note_on_c, 0, 82, 0
2, 57815, Note_on_c, 0, 63, 0
2, 57960, Note_on_c, 0, 63, 65
2, 57960, Note_on_c, 0, 82, 65
2, 58055, Note_on_c, 0, 82, 0
2, 58055, Note_on_c, 0, 63, 0
2, 58080, Note_on_c, 0, 83, 65
2, 58175, Note_on_c, 0, 83, 0
2, 58200, Note_on_c, 0, 63, 65
2, 58200, Note_on_c, 0, 84, 65
2, 58295, Note_on_c, 0, 84, 0
2, 58295, Note_on_c, 0, 63, 0
2, 58320, Note_on_c, 0, 60, 65
2, 58415, Note_on_c, 0, 60, 0
2, 58440, Note_on_c, 0, 63, 65
2, 58440, Note_on_c, 0, 87, 65
2, 58535, Note_on_c, 0, 87, 0
2, 58535, Note_on_c, 0, 63, 0
2, 58560, Note_on_c, 0, 87, 65
2, 58655, Note_on_c, 0, 87, 0
2, 58680, Note_on_c, 0, 67, 65
2, 58680, Note_on_c, 0, 75, 65
2, 58775, Note_on_c, 0, 75, 0
2, 58775, Note_on_c, 0, 67, 0
2, 58800, Note_on_c, 0, 75, 65
2, 58800, Note_on_c, 0, 63, 65
2, 58895, Note_on_c, 0, 63, 0
2, 58920, Note_on_c, 0, 67, 65
2, 59015, Note_on_c, 0, 67, 0
2, 59160, Note_on_c, 0, 68, 76
2, 59182, Note_on_c, 0, 75, 0
2, 59255, Note_on_c, 0, 68, 0
2, 59280, Note_on_c, 0, 62, 87
2, 59280, Note_on_c, 0, 79, 87
2, 59375, Note_on_c, 0, 79, 0
2, 59375, Note_on_c, 0, 62, 0
2, 59400, Note_on_c, 0, 68, 86
2, 59400, Note_on_c, 0, 77, 85
2, 59495, Note_on_c, 0, 77, 0
2, 59495, Note_on_c, 0, 68, 0
2, 59520, Note_on_c, 0, 75, 95
2, 59615, Note_on_c, 0, 75, 0
2, 59640, Note_on_c, 0, 75, 95
2, 59735, Note_on_c, 0, 75, 0
2, 59760, Note_on_c, 0, 75, 95
2, 59782, Note_on_c, 0, 75, 0
2, 59790, Note_on_c, 0, 77, 95
2, 59812, Note_on_c, 0, 77, 0
2, 59820, Note_on_c, 0, 75, 95
2, 59842, Note_on_c, 0, 75, 0
2, 59850, Note_on_c, 0, 77, 95
2, 59872, Note_on_c, 0, 77, 0
2, 59880, Note_on_c, 0, 74, 95
2, 59927, Note_on_c, 0, 74, 0
2, 59940, Note_on_c, 0, 75, 95
2, 59987, Note_on_c, 0, 75, 0
2, 60000, Note_on_c, 0, 77, 95
2, 60095, Note_on_c, 0, 77, 0
2, 60120, Note_on_c, 0, 77, 95
2, 60215, Note_on_c, 0, 77, 0
2, 60240, Note_on_c, 0, 77, 95
2, 60262, Note_on_c, 0, 77, 0
2, 60270, Note_on_c, 0, 79, 95
2, 60292, Note_on_c, 0, 79, 0
2, 60300, Note_on_c, 0, 77, 95
2, 60322, Note_on_c, 0, 77, 0
2, 60330, Note_on_c, 0, 79, 95
2, 60352, Note_on_c, 0, 79, 0
2, 60360, Note_on_c, 0, 75, 95
2, 60407, Note_on_c, 0, 75, 0
2, 60420, Note_on_c, 0, 77, 95
2, 60467, Note_on_c, 0, 77, 0
2, 60480, Note_on_c, 0, 79, 95
2, 60575, Note_on_c, 0, 79, 0
2, 60600, Note_on_c, 0, 79, 95
2, 60695, Note_on_c, 0, 79, 0
2, 60720, Note_on_c, 0, 79, 95
2, 60742, Note_on_c, 0, 79, 0
2, 60750, Note_on_c, 0, 80, 95
2, 60772, Note_on_c, 0, 80, 0
2, 60780, Note_on_c, 0, 79, 95
2, 60802, Note_on_c, 0, 79, 0
2, 60810, Note_on_c, 0, 80, 95
2, 60832, Note_on_c, 0, 80, 0
2, 60840, Note_on_c, 0, 77, 95
2, 60887, Note_on_c, 0, 77, 0
2, 60900, Note_on_c, 0, 79, 95
2, 60947, Note_on_c, 0, 79, 0
2, 60960, Note_on_c, 0, 80, 95
2, 61055, Note_on_c, 0, 80, 0
2, 61080, Note_on_c, 0, 62, 95
2, 61080, Note_on_c, 0, 80, 95
2, 61175, Note_on_c, 0, 80, 0
2, 61175, Note_on_c, 0, 62, 0
2, 61200, Note_on_c, 0, 80, 95
2, 61222, Note_on_c, 0, 80, 0
2, 61230, Note_on_c, 0, 82, 95
2, 61252, Note_on_c, 0, 82, 0
2, 61260, Note_on_c, 0, 80, 95
2, 61282, Note_on_c, 0, 80, 0
2, 61290, Note_on_c, 0, 82, 95
2, 61312, Note_on_c, 0, 82, 0
2, 61320, Note_on_c, 0, 79, 95
2, 61320, Note_on_c, 0, 62, 95
2, 61342, Note_on_c, 0, 79, 0
2, 61350, Note_on_c, 0, 80, 95
2, 61372, Note_on_c, 0, 80, 0
2, 61415, Note_on_c, 0, 62, 0
2, 61440, Note_on_c, 0, 63, 95
2, 61440, Note_on_c, 0, 82, 95
2, 61502, Note_on_c, 0, 82, 0
2, 61520, Note_on_c, 0, 84, 95
2, 61582, Note_on_c, 0, 84, 0
2, 61600, Note_on_c, 0, 86, 95
2, 61630, Note_on_c, 0, 63, 0
2, 61662, Note_on_c, 0, 86, 0
2, 61680, Note_on_c, 0, 87, 95
2, 61742, Note_on_c, 0, 87, 0
2, 61760, Note_on_c, 0, 86, 95
2, 61822, Note_on_c, 0, 86, 0
2, 61840, Note_on_c, 0, 84, 95
2, 61902, Note_on_c, 0, 84, 0
2, 61920, Note_on_c, 0, 82, 95
2, 61982, Note_on_c, 0, 82, 0
2, 62000, Note_on_c, 0, 80, 95
2, 62062, Note_on_c, 0, 80, 0
2, 62080, Note_on_c, 0, 79, 95
2, 62142, Note_on_c, 0, 79, 0
2, 62160, Note_on_c, 0, 77, 95
2, 62222, Note_on_c, 0, 77, 0
2, 62240, Note_on_c, 0, 75, 95
2, 62302, Note_on_c, 0, 75, 0
2, 62320, Note_on_c, 0, 74, 95
2, 62382, Note_on_c, 0, 74, 0
2, 62400, Note_on_c, 0, 72, 95
2, 62590, Note_on_c, 0, 72, 0
2, 62640, Note_on_c, 0, 84, 95
2, 62640, Note_on_c, 0, 80, 95
2, 62640, Note_on_c, 0, 75, 95
2, 62830, Note_on_c, 0, 75, 0
2, 62830, Note_on_c, 0, 80, 0
2, 62830, Note_on_c, 0, 84, 0
2, 62880, Note_on_c, 0, 82, 95
2, 62880, Note_on_c, 0, 79, 95
2, 62880, Note_on_c, 0, 75, 95
2, 63070, Note_on_c, 0, 75, 0
2, 63070, Note_on_c, 0, 79, 0
2, 63070, Note_on_c, 0, 82, 0
2, 63120, Note_on_c, 0, 74, 95
2, 63120, Note_on_c, 0, 68, 95
2, 63120, Note_on_c, 0, 65, 95
2, 63310, Note_on_c, 0, 65, 0
2, 63310, Note_on_c, 0, 68, 0
2, 63310, Note_on_c, 0, 74, 0
2, 63360, Note_on_c, 0, 75, 95
2, 63360, Note_on_c, 0, 67, 95
2, 63550, Note_on_c, 0, 67, 0
2, 63550, Note_on_c, 0, 75, 0
2, 63600, Note_on_c, 0, 82, 95
2, 63662, Note_on_c, 0, 82, 0
2, 63680, Note_on_c, 0, 80, 95
2, 63742, Note_on_c, 0, 80, 0
2, 63760, Note_on_c, 0, 79, 95
2, 63822, Note_on_c, 0, 79, 0
2, 63840, Note_on_c, 0, 77, 95
2, 63902, Note_on_c, 0, 77, 0
2, 63920, Note_on_c, 0, 75, 95
2, 63982, Note_on_c, 0, 75, 0
2, 64000, Note_on_c, 0, 74, 95
2, 64062, Note_on_c, 0, 74, 0
2, 64080, Note_on_c, 0, 67, 95
2, 64080, Note_on_c, 0, 75, 95
2, 64080, Note_on_c, 0, 63, 95
2, 64142, Note_on_c, 0, 75, 0
2, 64160, Note_on_c, 0, 73, 95
2, 64222, Note_on_c, 0, 73, 0
2, 64240, Note_on_c, 0, 71, 95
2, 64270, Note_on_c, 0, 63, 0
2, 64270, Note_on_c, 0, 67, 0
2, 64302, Note_on_c, 0, 71, 0
2, 64320, Note_on_c, 0, 72, 95
2, 64320, Note_on_c, 0, 68, 95
2, 64320, Note_on_c, 0, 63, 95
2, 64510, Note_on_c, 0, 63, 0
2, 64510, Note_on_c, 0, 68, 0
2, 64510, Note_on_c, 0, 72, 0
2, 64560, Note_on_c, 0, 84, 95
2, 64622, Note_on_c, 0, 84, 0
2, 64640, Note_on_c, 0, 82, 95
2, 64702, Note_on_c, 0, 82, 0
2, 64720, Note_on_c, 0, 80, 95
2, 64782, Note_on_c, 0, 80, 0
2, 64800, Note_on_c, 0, 79, 95
2, 64862, Note_on_c, 0, 79, 0
2, 64880, Note_on_c, 0, 77, 95
2, 64942, Note_on_c, 0, 77, 0
2, 64960, Note_on_c, 0, 75, 95
2, 65022, Note_on_c, 0, 75, 0
2, 65040, Note_on_c, 0, 68, 95
2, 65040, Note_on_c, 0, 74, 95
2, 65040, Note_on_c, 0, 63, 95
2, 65040, Note_on_c, 0, 65, 95
2, 65102, Note_on_c, 0, 74, 0
2, 65120, Note_on_c, 0, 80, 95
2, 65182, Note_on_c, 0, 80, 0
2, 65200, Note_on_c, 0, 77, 95
2, 65230, Note_on_c, 0, 65, 0
2, 65230, Note_on_c, 0, 68, 0
2, 65230, Note_on_c, 0, 63, 0
2, 65262, Note_on_c, 0, 77, 0
2, 65280, Note_on_c, 0, 63, 95
2, 65280, Note_on_c, 0, 75, 95
2, 65280, Note_on_c, 0, 67, 95
2, 65470, Note_on_c, 0, 67, 0
2, 65470, Note_on_c, 0, 75, 0
2, 65470, Note_on_c, 0, 63, 0
2, 65520, Note_on_c, 0, 70, 95
2, 65582, Note_on_c, 0, 70, 0
2, 65600, Note_on_c, 0, 68, 95
2, 65662, Note_on_c, 0, 68, 0
2, 65680, Note_on_c, 0, 67, 95
2, 65742, Note_on_c, 0, 67, 0
2, 65760, Note_on_c, 0, 65, 95
2, 65822, Note_on_c, 0, 65, 0
2, 65840, Note_on_c, 0, 63, 95
2, 65902, Note_on_c, 0, 63, 0
2, 65920, Note_on_c, 0, 62, 95
2, 65982, Note_on_c, 0, 62, 0
2, 66000, Note_on_c, 0, 63, 95
2, 66062, Note_on_c, 0, 63, 0
2, 66080, Note_on_c, 0, 61, 95
2, 66142, Note_on_c, 0, 61, 0
2, 66240, Note_on_c, 0, 60, 95
2, 66430, Note_on_c, 0, 60, 0
2, 66480, Note_on_c, 0, 72, 95
2, 66542, Note_on_c, 0, 72, 0
2, 66560, Note_on_c, 0, 70, 95
2, 66622, Note_on_c, 0, 70, 0
2, 66640, Note_on_c, 0, 68, 95
2, 66702, Note_on_c, 0, 68, 0
2, 66720, Note_on_c, 0, 67, 95
2, 66782, Note_on_c, 0, 67, 0
2, 66800, Note_on_c, 0, 65, 95
2, 66862, Note_on_c, 0, 65, 0
2, 66880, Note_on_c, 0, 63, 95
2, 66942, Note_on_c, 0, 63, 0
2, 66960, Note_on_c, 0, 62, 95
2, 67022, Note_on_c, 0, 62, 0
2, 67040, Note_on_c, 0, 68, 95
2, 67102, Note_on_c, 0, 68, 0
2, 67120, Note_on_c, 0, 65, 95
2, 67182, Note_on_c, 0, 65, 0
2, 67200, Note_on_c, 0, 63, 95
2, 67582, Note_on_c, 0, 63, 0
2, 67680, Note_on_c, 0, 67, 95
2, 67870, Note_on_c, 0, 67, 0
2, 67920, Note_on_c, 0, 70, 95
2, 68110, Note_on_c, 0, 70, 0
2, 68160, Note_on_c, 0, 75, 95
2, 68350, Note_on_c, 0, 75, 0
2, 68400, Note_on_c, 0, 79, 95
2, 68590, Note_on_c, 0, 79, 0
2, 68820, Note_on_c, 0, 79, 95
2, 68867, Note_on_c, 0, 79, 0
2, 68880, Note_on_c, 0, 79, 95
2, 68902, Note_on_c, 0, 79, 0
2, 68910, Note_on_c, 0, 80, 95
2, 68932, Note_on_c, 0, 80, 0
2, 68940, Note_on_c, 0, 79, 95
2, 68962, Note_on_c, 0, 79, 0
2, 68970, Note_on_c, 0, 80, 95
2, 68992, Note_on_c, 0, 80, 0
2, 69000, Note_on_c, 0, 77, 95
2, 69047, Note_on_c, 0, 77, 0
2, 69060, Note_on_c, 0, 79, 95
2, 69107, Note_on_c, 0, 79, 0
2, 69120, Note_on_c, 0, 63, 95
2, 69120, Note_on_c, 0, 82, 95
2, 69310, Note_on_c, 0, 82, 0
2, 69310, Note_on_c, 0, 63, 0
2, 69360, Note_on_c, 0, 67, 95
2, 69360, Note_on_c, 0, 75, 95
2, 69550, Note_on_c, 0, 75, 0
2, 69550, Note_on_c, 0, 67, 0
2, 69600, Note_on_c, 0, 75, 95
2, 69790, Note_on_c, 0, 75, 0
2, 69840, Note_on_c, 0, 75, 95
2, 70030, Note_on_c, 0, 75, 0
2, 70080, Note_on_c, 0, 65, 64
2, 70080, Note_on_c, 0, 62, 70
2, 70080, Note_on_c, 0, 80, 66
2, 70270, Note_on_c, 0, 80, 0
2, 70320, Note_on_c, 0, 71, 69
2, 70510, Note_on_c, 0, 71, 0
2, 70560, Note_on_c, 0, 71, 62
2, 70655, Note_on_c, 0, 62, 0
2, 70655, Note_on_c, 0, 65, 0
2, 70750, Note_on_c, 0, 71, 0
2, 71040, Control_c, 0, 0, 0
2, 71040, Note_on_c, 0, 60, 95
2, 71422, Note_on_c, 0, 60, 0
2, 71520, Note_on_c, 0, 63, 95
2, 71710, Note_on_c, 0, 63, 0
2, 71760, Note_on_c, 0, 67, 95
2, 71950, Note_on_c, 0, 67, 0
2, 72000, Note_on_c, 0, 72, 95
2, 72000, Note_on_c, 0, 60, 95
2, 72190, Note_on_c, 0, 60, 0
2, 72190, Note_on_c, 0, 72, 0
2, 72240, Note_on_c, 0, 63, 95
2, 72240, Note_on_c, 0, 75, 95
2, 72430, Note_on_c, 0, 75, 0
2, 72430, Note_on_c, 0, 63, 0
2, 72660, Note_on_c, 0, 75, 65
2, 72707, Note_on_c, 0, 75, 0
2, 72720, Note_on_c, 0, 75, 65
2, 72742, Note_on_c, 0, 75, 0
2, 72750, Note_on_c, 0, 77, 65
2, 72772, Note_on_c, 0, 77, 0
2, 72780, Note_on_c, 0, 75, 65
2, 72802, Note_on_c, 0, 75, 0
2, 72810, Note_on_c, 0, 77, 65
2, 72832, Note_on_c, 0, 77, 0
2, 72840, Note_on_c, 0, 74, 65
2, 72887, Note_on_c, 0, 74, 0
2, 72900, Note_on_c, 0, 75, 65
2, 72947, Note_on_c, 0, 75, 0
2, 72960, Note_on_c, 0, 79, 65
2, 73150, Note_on_c, 0, 79, 0
2, 73200, Note_on_c, 0, 63, 65
2, 73200, Note_on_c, 0, 67, 65
2, 73200, Note_on_c, 0, 72, 65
2, 73390, Note_on_c, 0, 72, 0
2, 73390, Note_on_c, 0, 67, 0
2, 73390, Note_on_c, 0, 63, 0
2, 73440, Note_on_c, 0, 63, 65
2, 73440, Note_on_c, 0, 67, 65
2, 73440, Note_on_c, 0, 72, 65
2, 73630, Note_on_c, 0, 72, 0
2, 73630, Note_on_c, 0, 67, 0
2, 73630, Note_on_c, 0, 63, 0
2, 73680, Note_on_c, 0, 63, 65
2, 73680, Note_on_c, 0, 67, 65
2, 73680, Note_on_c, 0, 72, 65
2, 73870, Note_on_c, 0, 72, 0
2, 73870, Note_on_c, 0, 67, 0
2, 73870, Note_on_c, 0, 63, 0
2, 73920, Note_on_c, 0, 80, 65
2, 74110, Note_on_c, 0, 80, 0
2, 74160, Note_on_c, 0, 68, 75
2, 74160, Note_on_c, 0, 65, 75
2, 74160, Note_on_c, 0, 62, 76
2, 74160, Note_on_c, 0, 71, 75
2, 74350, Note_on_c, 0, 71, 0
2, 74350, Note_on_c, 0, 68, 0
2, 74350, Note_on_c, 0, 65, 0
2, 74350, Note_on_c, 0, 62, 0
2, 74400, Note_on_c, 0, 62, 85
2, 74400, Note_on_c, 0, 65, 84
2, 74400, Note_on_c, 0, 68, 86
2, 74400, Note_on_c, 0, 71, 87
2, 74590, Note_on_c, 0, 71, 0
2, 74590, Note_on_c, 0, 62, 0
2, 74590, Note_on_c, 0, 65, 0
2, 74590, Note_on_c, 0, 68, 0
2, 75600, Note_on_c, 0, 62, 95
2, 75790, Note_on_c, 0, 62, 0
2, 75840, Note_on_c, 0, 67, 95
2, 76030, Note_on_c, 0, 67, 0
2, 76080, Note_on_c, 0, 71, 95
2, 76270, Note_on_c, 0, 71, 0
2, 76500, Note_on_c, 0, 74, 65
2, 76547, Note_on_c, 0, 74, 0
2, 76560, Note_on_c, 0, 74, 66
2, 76582, Note_on_c, 0, 74, 0
2, 76590, Note_on_c, 0, 75, 66
2, 76612, Note_on_c, 0, 75, 0
2, 76620, Note_on_c, 0, 74, 65
2, 76642, Note_on_c, 0, 74, 0
2, 76650, Note_on_c, 0, 75, 65
2, 76672, Note_on_c, 0, 75, 0
2, 76680, Note_on_c, 0, 72, 65
2, 76727, Note_on_c, 0, 72, 0
2, 76740, Note_on_c, 0, 74, 65
2, 76787, Note_on_c, 0, 74, 0
2, 76800, Note_on_c, 0, 77, 65
2, 76990, Note_on_c, 0, 77, 0
2, 77040, Note_on_c, 0, 62, 65
2, 77040, Note_on_c, 0, 65, 65
2, 77040, Note_on_c, 0, 68, 65
2, 77040, Note_on_c, 0, 71, 65
2, 77230, Note_on_c, 0, 71, 0
2, 77230, Note_on_c, 0, 62, 0
2, 77230, Note_on_c, 0, 65, 0
2, 77230, Note_on_c, 0, 68, 0
2, 77280, Note_on_c, 0, 62, 65
2, 77280, Note_on_c, 0, 65, 65
2, 77280, Note_on_c, 0, 68, 65
2, 77280, Note_on_c, 0, 71, 65
2, 77470, Note_on_c, 0, 71, 0
2, 77470, Note_on_c, 0, 62, 0
2, 77470, Note_on_c, 0, 65, 0
2, 77470, Note_on_c, 0, 68, 0
2, 77520, Note_on_c, 0, 62, 65
2, 77520, Note_on_c, 0, 65, 65
2, 77520, Note_on_c, 0, 68, 65
2, 77520, Note_on_c, 0, 71, 65
2, 77710, Note_on_c, 0, 71, 0
2, 77710, Note_on_c, 0, 62, 0
2, 77710, Note_on_c, 0, 65, 0
2, 77710, Note_on_c, 0, 68, 0
2, 77760, Note_on_c, 0, 79, 65
2, 77950, Note_on_c, 0, 79, 0
2, 78000, Note_on_c, 0, 63, 65
2, 78000, Note_on_c, 0, 67, 65
2, 78000, Note_on_c, 0, 72, 65
2, 78190, Note_on_c, 0, 72, 0
2, 78190, Note_on_c, 0, 67, 0
2, 78190, Note_on_c, 0, 63, 0
2, 78240, Note_on_c, 0, 63, 65
2, 78240, Note_on_c, 0, 67, 65
2, 78240, Note_on_c, 0, 72, 65
2, 78430, Note_on_c, 0, 72, 0
2, 78430, Note_on_c, 0, 67, 0
2, 78430, Note_on_c, 0, 63, 0
2, 78720, Note_on_c, 0, 67, 95
2, 79295, Note_on_c, 0, 67, 0
2, 79440, Note_on_c, 0, 67, 65
2, 79440, Note_on_c, 0, 75, 65
2, 79630, Note_on_c, 0, 67, 0
2, 79680, Note_on_c, 0, 66, 95
2, 79870, Note_on_c, 0, 66, 0
2, 79870, Note_on_c, 0, 75, 0
2, 79920, Note_on_c, 0, 65, 95
2, 79920, Note_on_c, 0, 74, 95
2, 80110, Note_on_c, 0, 65, 0
2, 80160, Note_on_c, 0, 64, 95
2, 80302, Note_on_c, 0, 74, 0
2, 80350, Note_on_c, 0, 64, 0
2, 80400, Note_on_c, 0, 63, 95
2, 80400, Note_on_c, 0, 72, 95
2, 80590, Note_on_c, 0, 63, 0
2, 80640, Note_on_c, 0, 62, 95
2, 80830, Note_on_c, 0, 72, 0
2, 80880, Note_on_c, 0, 71, 95
2, 81022, Note_on_c, 0, 62, 0
2, 81070, Note_on_c, 0, 71, 0
2, 81360, Note_on_c, 0, 79, 79
2, 81360, Note_on_c, 0, 75, 63
2, 81550, Note_on_c, 0, 75, 0
2, 81550, Note_on_c, 0, 79, 0
2, 81600, Note_on_c, 0, 75, 65
2, 81600, Note_on_c, 0, 78, 65
2, 81790, Note_on_c, 0, 78, 0
2, 81790, Note_on_c, 0, 75, 0
2, 81840, Note_on_c, 0, 74, 65
2, 81840, Note_on_c, 0, 77, 65
2, 82030, Note_on_c, 0, 77, 0
2, 82080, Note_on_c, 0, 76, 65
2, 82222, Note_on_c, 0, 74, 0
2, 82270, Note_on_c, 0, 76, 0
2, 82320, Note_on_c, 0, 72, 82
2, 82320, Note_on_c, 0, 75, 80
2, 82510, Note_on_c, 0, 75, 0
2, 82510, Note_on_c, 0, 72, 0
2, 82560, Note_on_c, 0, 74, 95
2, 82560, Note_on_c, 0, 72, 95
2, 82750, Note_on_c, 0, 72, 0
2, 82800, Note_on_c, 0, 71, 95
2, 82942, Note_on_c, 0, 74, 0
2, 82990, Note_on_c, 0, 71, 0
2, 83280, Note_on_c, 0, 71, 95
2, 83280, Note_on_c, 0, 74, 95
2, 83280, Note_on_c, 0, 80, 95
2, 83710, Note_on_c, 0, 80, 0
2, 83710, Note_on_c, 0, 74, 0
2, 83710, Note_on_c, 0, 71, 0
2, 83760, Note_on_c, 0, 72, 95
2, 83760, Note_on_c, 0, 75, 95
2, 83760, Note_on_c, 0, 79, 95
2, 83950, Note_on_c, 0, 79, 0
2, 83950, Note_on_c, 0, 75, 0
2, 83950, Note_on_c, 0, 72, 0
2, 84180, Note_on_c, 0, 67, 95
2, 84227, Note_on_c, 0, 67, 0
2, 84240, Note_on_c, 0, 74, 95
2, 84382, Note_on_c, 0, 74, 0
2, 84420, Note_on_c, 0, 77, 95
2, 84467, Note_on_c, 0, 77, 0
2, 84480, Note_on_c, 0, 75, 95
2, 84502, Note_on_c, 0, 75, 0
2, 84510, Note_on_c, 0, 77, 95
2, 84532, Note_on_c, 0, 77, 0
2, 84540, Note_on_c, 0, 74, 95
2, 84587, Note_on_c, 0, 74, 0
2, 84600, Note_on_c, 0, 75, 95
2, 84647, Note_on_c, 0, 75, 0
2, 84660, Note_on_c, 0, 77, 95
2, 84707, Note_on_c, 0, 77, 0
2, 84720, Note_on_c, 0, 79, 95
2, 84910, Note_on_c, 0, 79, 0
2, 85200, Note_on_c, 0, 71, 95
2, 85200, Note_on_c, 0, 74, 95
2, 85200, Note_on_c, 0, 80, 95
2, 85630, Note_on_c, 0, 80, 0
2, 85630, Note_on_c, 0, 74, 0
2, 85630, Note_on_c, 0, 71, 0
2, 85680, Note_on_c, 0, 72, 95
2, 85680, Note_on_c, 0, 75, 95
2, 85680, Note_on_c, 0, 79, 95
2, 85870, Note_on_c, 0, 79, 0
2, 85870, Note_on_c, 0, 75, 0
2, 85870, Note_on_c, 0, 72, 0
2, 86100, Note_on_c, 0, 77, 95
2, 86147, Note_on_c, 0, 77, 0
2, 86160, Note_on_c, 0, 83, 95
2, 86302, Note_on_c, 0, 83, 0
2, 86340, Note_on_c, 0, 86, 95
2, 86387, Note_on_c, 0, 86, 0
2, 86400, Note_on_c, 0, 87, 81
2, 86495, Note_on_c, 0, 87, 0
2, 86520, Note_on_c, 0, 79, 65
2, 86615, Note_on_c, 0, 79, 0
2, 86640, Note_on_c, 0, 84, 65
2, 86735, Note_on_c, 0, 84, 0
2, 86760, Note_on_c, 0, 79, 65
2, 86855, Note_on_c, 0, 79, 0
2, 87000, Note_on_c, 0, 77, 65
2, 87095, Note_on_c, 0, 77, 0
2, 87120, Note_on_c, 0, 80, 65
2, 87215, Note_on_c, 0, 80, 0
2, 87240, Note_on_c, 0, 74, 65
2, 87335, Note_on_c, 0, 74, 0
2, 87480, Note_on_c, 0, 75, 65
2, 87575, Note_on_c, 0, 75, 0
2, 87600, Note_on_c, 0, 79, 65
2, 87695, Note_on_c, 0, 79, 0
2, 87720, Note_on_c, 0, 72, 65
2, 87815, Note_on_c, 0, 72, 0
2, 87960, Note_on_c, 0, 74, 65
2, 88055, Note_on_c, 0, 74, 0
2, 88080, Note_on_c, 0, 77, 80
2, 88175, Note_on_c, 0, 77, 0
2, 88200, Note_on_c, 0, 71, 80
2, 88295, Note_on_c, 0, 71, 0
2, 88320, Note_on_c, 0, 60, 95
2, 88320, Note_on_c, 0, 72, 95
2, 88702, Note_on_c, 0, 72, 0
2, 88702, Note_on_c, 0, 60, 0
2, 88800, Note_on_c, 0, 63, 95
2, 88800, Note_on_c, 0, 75, 95
2, 88990, Note_on_c, 0, 75, 0
2, 88990, Note_on_c, 0, 63, 0
2, 89040, Note_on_c, 0, 67, 95
2, 89040, Note_on_c, 0, 79, 95
2, 89230, Note_on_c, 0, 79, 0
2, 89230, Note_on_c, 0, 67, 0
2, 89280, Note_on_c, 0, 84, 95
2, 89280, Note_on_c, 0, 72, 95
2, 89470, Note_on_c, 0, 72, 0
2, 89470, Note_on_c, 0, 84, 0
2, 89520, Note_on_c, 0, 75, 95
2, 89520, Note_on_c, 0, 87, 95
2, 89710, Note_on_c, 0, 87, 0
2, 89710, Note_on_c, 0, 75, 0
2, 89940, Note_on_c, 0, 75, 95
2, 89987, Note_on_c, 0, 75, 0
2, 90000, Note_on_c, 0, 75, 95
2, 90022, Note_on_c, 0, 75, 0
2, 90030, Note_on_c, 0, 77, 95
2, 90052, Note_on_c, 0, 77, 0
2, 90060, Note_on_c, 0, 75, 95
2, 90082, Note_on_c, 0, 75, 0
2, 90090, Note_on_c, 0, 77, 95
2, 90112, Note_on_c, 0, 77, 0
2, 90120, Note_on_c, 0, 74, 95
2, 90167, Note_on_c, 0, 74, 0
2, 90180, Note_on_c, 0, 75, 95
2, 90227, Note_on_c, 0, 75, 0
2, 90240, Note_on_c, 0, 80, 95
2, 90302, Note_on_c, 0, 80, 0
2, 90320, Note_on_c, 0, 82, 95
2, 90382, Note_on_c, 0, 82, 0
2, 90400, Note_on_c, 0, 84, 95
2, 90462, Note_on_c, 0, 84, 0
2, 90480, Note_on_c, 0, 82, 95
2, 90542, Note_on_c, 0, 82, 0
2, 90560, Note_on_c, 0, 80, 95
2, 90622, Note_on_c, 0, 80, 0
2, 90640, Note_on_c, 0, 79, 95
2, 90702, Note_on_c, 0, 79, 0
2, 90720, Note_on_c, 0, 77, 95
2, 90782, Note_on_c, 0, 77, 0
2, 90800, Note_on_c, 0, 79, 95
2, 90862, Note_on_c, 0, 79, 0
2, 90880, Note_on_c, 0, 80, 95
2, 90942, Note_on_c, 0, 80, 0
2, 90960, Note_on_c, 0, 79, 95
2, 91022, Note_on_c, 0, 79, 0
2, 91040, Note_on_c, 0, 77, 95
2, 91102, Note_on_c, 0, 77, 0
2, 91120, Note_on_c, 0, 75, 95
2, 91182, Note_on_c, 0, 75, 0
2, 91200, Note_on_c, 0, 74, 95
2, 91262, Note_on_c, 0, 74, 0
2, 91280, Note_on_c, 0, 75, 95
2, 91342, Note_on_c, 0, 75, 0
2, 91360, Note_on_c, 0, 77, 95
2, 91422, Note_on_c, 0, 77, 0
2, 91440, Note_on_c, 0, 62, 95
2, 91440, Note_on_c, 0, 75, 95
2, 91502, Note_on_c, 0, 75, 0
2, 91520, Note_on_c, 0, 74, 95
2, 91582, Note_on_c, 0, 74, 0
2, 91600, Note_on_c, 0, 72, 95
2, 91630, Note_on_c, 0, 62, 0
2, 91662, Note_on_c, 0, 72, 0
2, 91680, Note_on_c, 0, 70, 95
2, 91742, Note_on_c, 0, 70, 0
2, 91760, Note_on_c, 0, 72, 95
2, 91822, Note_on_c, 0, 72, 0
2, 91840, Note_on_c, 0, 70, 95
2, 91902, Note_on_c, 0, 70, 0
2, 91920, Note_on_c, 0, 68, 95
2, 91982, Note_on_c, 0, 68, 0
2, 92000, Note_on_c, 0, 70, 95
2, 92062, Note_on_c, 0, 70, 0
2, 92080, Note_on_c, 0, 68, 95
2, 92142, Note_on_c, 0, 68, 0
2, 92160, Note_on_c, 0, 67, 50
2, 92447, Note_on_c, 0, 67, 0
2, 92520, Note_on_c, 0, 68, 50
2, 92542, Note_on_c, 0, 68, 0
2, 92550, Note_on_c, 0, 67, 50
2, 92572, Note_on_c, 0, 67, 0
2, 92580, Note_on_c, 0, 65, 50
2, 92602, Note_on_c, 0, 65, 0
2, 92610, Note_on_c, 0, 67, 50
2, 92632, Note_on_c, 0, 67, 0
2, 92640, Note_on_c, 0, 68, 50
2, 92830, Note_on_c, 0, 68, 0
2, 92880, Note_on_c, 0, 62, 50
2, 93070, Note_on_c, 0, 62, 0
2, 93120, Note_on_c, 0, 63, 50
2, 93215, Note_on_c, 0, 63, 0
2, 93240, Note_on_c, 0, 67, 50
2, 93335, Note_on_c, 0, 67, 0
2, 93360, Note_on_c, 0, 70, 50
2, 93647, Note_on_c, 0, 70, 0
2, 93720, Note_on_c, 0, 69, 50
2, 93815, Note_on_c, 0, 69, 0
2, 93840, Note_on_c, 0, 68, 50
2, 93935, Note_on_c, 0, 68, 0
2, 93960, Note_on_c, 0, 66, 50
2, 94055, Note_on_c, 0, 66, 0
2, 94080, Note_on_c, 0, 67, 50
2, 94367, Note_on_c, 0, 67, 0
2, 94440, Note_on_c, 0, 68, 50
2, 94462, Note_on_c, 0, 68, 0
2, 94470, Note_on_c, 0, 67, 50
2, 94492, Note_on_c, 0, 67, 0
2, 94500, Note_on_c, 0, 65, 50
2, 94522, Note_on_c, 0, 65, 0
2, 94530, Note_on_c, 0, 67, 50
2, 94552, Note_on_c, 0, 67, 0
2, 94560, Note_on_c, 0, 68, 50
2, 94750, Note_on_c, 0, 68, 0
2, 94800, Note_on_c, 0, 62, 50
2, 94990, Note_on_c, 0, 62, 0
2, 95040, Note_on_c, 0, 63, 50
2, 95135, Note_on_c, 0, 63, 0
2, 95160, Note_on_c, 0, 75, 50
2, 95255, Note_on_c, 0, 75, 0
2, 95280, Note_on_c, 0, 74, 50
2, 95375, Note_on_c, 0, 74, 0
2, 95400, Note_on_c, 0, 72, 50
2, 95495, Note_on_c, 0, 72, 0
2, 95520, Note_on_c, 0, 71, 50
2, 95615, Note_on_c, 0, 71, 0
2, 95640, Note_on_c, 0, 69, 50
2, 95735, Note_on_c, 0, 69, 0
2, 95760, Note_on_c, 0, 68, 50
2, 95855, Note_on_c, 0, 68, 0
2, 95880, Note_on_c, 0, 66, 50
2, 95975, Note_on_c, 0, 66, 0
2, 96000, Note_on_c, 0, 67, 50
2, 96190, Note_on_c, 0, 67, 0
2, 96240, Note_on_c, 0, 70, 50
2, 96430, Note_on_c, 0, 70, 0
2, 96600, Note_on_c, 0, 70, 55
2, 96695, Note_on_c, 0, 70, 0
2, 96720, Note_on_c, 0, 70, 60
2, 96815, Note_on_c, 0, 70, 0
2, 96840, Note_on_c, 0, 70, 60
2, 96935, Note_on_c, 0, 70, 0
2, 96960, Note_on_c, 0, 77, 65
2, 97055, Note_on_c, 0, 77, 0
2, 97080, Note_on_c, 0, 75, 66
2, 97175, Note_on_c, 0, 75, 0
2, 97200, Note_on_c, 0, 75, 70
2, 97390, Note_on_c, 0, 75, 0
2, 97560, Note_on_c, 0, 75, 73
2, 97655, Note_on_c, 0, 75, 0
2, 97680, Note_on_c, 0, 75, 85
2, 97775, Note_on_c, 0, 75, 0
2, 97800, Note_on_c, 0, 75, 85
2, 97895, Note_on_c, 0, 75, 0
2, 97920, Note_on_c, 0, 75, 95
2, 98015, Note_on_c, 0, 75, 0
2, 98040, Note_on_c, 0, 77, 95
2, 98087, Note_on_c, 0, 77, 0
2, 98100, Note_on_c, 0, 79, 95
2, 98147, Note_on_c, 0, 79, 0
2, 98160, Note_on_c, 0, 77, 95
2, 98255, Note_on_c, 0, 77, 0
2, 98280, Note_on_c, 0, 75, 95
2, 98375, Note_on_c, 0, 75, 0
2, 98400, Note_on_c, 0, 74, 95
2, 98495, Note_on_c, 0, 74, 0
2, 98520, Note_on_c, 0, 72, 95
2, 98615, Note_on_c, 0, 72, 0
2, 98640, Note_on_c, 0, 70, 95
2, 98735, Note_on_c, 0, 70, 0
2, 98760, Note_on_c, 0, 69, 95
2, 98855, Note_on_c, 0, 69, 0
2, 98880, Note_on_c, 0, 72, 95
2, 99070, Note_on_c, 0, 72, 0
2, 99120, Note_on_c, 0, 62, 95
2, 99120, Note_on_c, 0, 70, 95
2, 99310, Note_on_c, 0, 70, 0
2, 99310, Note_on_c, 0, 62, 0
2, 99360, Note_on_c, 0, 63, 95
2, 99550, Note_on_c, 0, 63, 0
2, 99600, Note_on_c, 0, 75, 95
2, 99695, Note_on_c, 0, 75, 0
2, 99720, Note_on_c, 0, 75, 95
2, 99815, Note_on_c, 0, 75, 0
2, 99840, Note_on_c, 0, 82, 65
2, 100030, Note_on_c, 0, 82, 0
2, 100080, Note_on_c, 0, 62, 65
2, 100270, Note_on_c, 0, 62, 0
2, 100320, Note_on_c, 0, 63, 65
2, 100510, Note_on_c, 0, 63, 0
2, 100560, Note_on_c, 0, 75, 65
2, 100655, Note_on_c, 0, 75, 0
2, 100680, Note_on_c, 0, 75, 65
2, 100775, Note_on_c, 0, 75, 0
2, 100800, Note_on_c, 0, 82, 65
2, 100990, Note_on_c, 0, 82, 0
2, 101040, Note_on_c, 0, 62, 65
2, 101230, Note_on_c, 0, 62, 0
2, 101280, Note_on_c, 0, 63, 65
2, 101470, Note_on_c, 0, 63, 0
2, 101520, Note_on_c, 0, 75, 65
2, 101615, Note_on_c, 0, 75, 0
2, 101640, Note_on_c, 0, 75, 65
2, 101735, Note_on_c, 0, 75, 0
2, 101760, Note_on_c, 0, 62, 65
2, 101760, Note_on_c, 0, 82, 65
2, 101950, Note_on_c, 0, 82, 0
2, 101950, Note_on_c, 0, 62, 0
2, 102000, Note_on_c, 0, 63, 65
2, 102000, Note_on_c, 0, 75, 65
2, 102095, Note_on_c, 0, 75, 0
2, 102120, Note_on_c, 0, 75, 65
2, 102190, Note_on_c, 0, 63, 0
2, 102215, Note_on_c, 0, 75, 0
2, 102240, Note_on_c, 0, 62, 65
2, 102240, Note_on_c, 0, 82, 65
2, 102430, Note_on_c, 0, 82, 0
2, 102430, Note_on_c, 0, 62, 0
2, 102480, Note_on_c, 0, 75, 65
2, 102480, Note_on_c, 0, 63, 65
2, 102575, Note_on_c, 0, 75, 0
2, 102600, Note_on_c, 0, 75, 65
2, 102670, Note_on_c, 0, 63, 0
2, 102695, Note_on_c, 0, 75, 0
2, 102720, Note_on_c, 0, 62, 65
2, 102720, Note_on_c, 0, 82, 65
2, 102910, Note_on_c, 0, 82, 0
2, 102910, Note_on_c, 0, 62, 0
2, 102960, Note_on_c, 0, 82, 65
2, 103150, Note_on_c, 0, 82, 0
2, 103200, Note_on_c, 0, 82, 65
2, 103390, Note_on_c, 0, 82, 0
2, 103440, Note_on_c, 0, 82, 65
2, 103630, Note_on_c, 0, 82, 0
2, 103680, Note_on_c, 0, 82, 65
2, 103775, Note_on_c, 0, 82, 0
2, 103800, Note_on_c, 0, 81, 65
2, 103895, Note_on_c, 0, 81, 0
2, 103920, Note_on_c, 0, 80, 65
2, 104015, Note_on_c, 0, 80, 0
2, 104040, Note_on_c, 0, 77, 65
2, 104135, Note_on_c, 0, 77, 0
2, 104160, Note_on_c, 0, 82, 65
2, 104255, Note_on_c, 0, 82, 0
2, 104280, Note_on_c, 0, 81, 65
2, 104375, Note_on_c, 0, 81, 0
2, 104400, Note_on_c, 0, 80, 65
2, 104495, Note_on_c, 0, 80, 0
2, 104520, Note_on_c, 0, 77, 65
2, 104615, Note_on_c, 0, 77, 0
2, 104640, Note_on_c, 0, 75, 65
2, 104640, Note_on_c, 0, 67, 65
2, 104735, Note_on_c, 0, 67, 0
2, 104760, Note_on_c, 0, 70, 65
2, 104855, Note_on_c, 0, 70, 0
2, 104880, Note_on_c, 0, 67, 65
2, 104927, Note_on_c, 0, 75, 0
2, 104975, Note_on_c, 0, 67, 0
2, 105000, Note_on_c, 0, 70, 65
2, 105000, Note_on_c, 0, 77, 65
2, 105047, Note_on_c, 0, 77, 0
2, 105060, Note_on_c, 0, 75, 65
2, 105095, Note_on_c, 0, 70, 0
2, 105107, Note_on_c, 0, 75, 0
2, 105120, Note_on_c, 0, 65, 65
2, 105120, Note_on_c, 0, 74, 65
2, 105215, Note_on_c, 0, 65, 0
2, 105240, Note_on_c, 0, 70, 65
2, 105310, Note_on_c, 0, 74, 0
2, 105335, Note_on_c, 0, 70, 0
2, 105360, Note_on_c, 0, 67, 65
2, 105360, Note_on_c, 0, 75, 65
2, 105455, Note_on_c, 0, 67, 0
2, 105480, Note_on_c, 0, 70, 65
2, 105550, Note_on_c, 0, 75, 0
2, 105575, Note_on_c, 0, 70, 0
2, 105600, Note_on_c, 0, 67, 65
2, 105600, Note_on_c, 0, 76, 65
2, 105695, Note_on_c, 0, 67, 0
2, 105720, Note_on_c, 0, 70, 65
2, 105815, Note_on_c, 0, 70, 0
2, 105840, Note_on_c, 0, 67, 65
2, 105935, Note_on_c, 0, 67, 0
2, 105960, Note_on_c, 0, 70, 65
2, 105982, Note_on_c, 0, 76, 0
2, 106055, Note_on_c, 0, 70, 0
2, 106080, Note_on_c, 0, 68, 65
2, 106080, Note_on_c, 0, 77, 65
2, 106175, Note_on_c, 0, 68, 0
2, 106200, Note_on_c, 0, 70, 65
2, 106270, Note_on_c, 0, 77, 0
2, 106295, Note_on_c, 0, 70, 0
2, 106320, Note_on_c, 0, 68, 65
2, 106415, Note_on_c, 0, 68, 0
2, 106440, Note_on_c, 0, 70, 65
2, 106535, Note_on_c, 0, 70, 0
2, 106560, Note_on_c, 0, 65, 65
2, 106655, Note_on_c, 0, 65, 0
2, 106680, Note_on_c, 0, 70, 65
2, 106775, Note_on_c, 0, 70, 0
2, 106800, Note_on_c, 0, 65, 65
2, 106895, Note_on_c, 0, 65, 0
2, 106920, Note_on_c, 0, 70, 65
2, 107015, Note_on_c, 0, 70, 0
2, 107040, Note_on_c, 0, 65, 65
2, 107135, Note_on_c, 0, 65, 0
2, 107160, Note_on_c, 0, 70, 65
2, 107255, Note_on_c, 0, 70, 0
2, 107280, Note_on_c, 0, 67, 65
2, 107375, Note_on_c, 0, 67, 0
2, 107400, Note_on_c, 0, 70, 65
2, 107495, Note_on_c, 0, 70, 0
2, 107520, Note_on_c, 0, 68, 65
2, 107615, Note_on_c, 0, 68, 0
2, 107640, Note_on_c, 0, 70, 65
2, 107735, Note_on_c, 0, 70, 0
2, 107760, Note_on_c, 0, 65, 65
2, 107855, Note_on_c, 0, 65, 0
2, 107880, Note_on_c, 0, 70, 65
2, 107975, Note_on_c, 0, 70, 0
2, 108000, Note_on_c, 0, 68, 65
2, 108095, Note_on_c, 0, 68, 0
2, 108120, Note_on_c, 0, 70, 65
2, 108215, Note_on_c, 0, 70, 0
2, 108240, Note_on_c, 0, 65, 65
2, 108335, Note_on_c, 0, 65, 0
2, 108360, Note_on_c, 0, 70, 65
2, 108455, Note_on_c, 0, 70, 0
2, 108480, Note_on_c, 0, 77, 65
2, 108480, Note_on_c, 0, 62, 65
2, 108575, Note_on_c, 0, 62, 0
2, 108600, Note_on_c, 0, 70, 65
2, 108695, Note_on_c, 0, 70, 0
2, 108720, Note_on_c, 0, 62, 65
2, 108767, Note_on_c, 0, 77, 0
2, 108815, Note_on_c, 0, 62, 0
2, 108840, Note_on_c, 0, 70, 65
2, 108840, Note_on_c, 0, 79, 65
2, 108887, Note_on_c, 0, 79, 0
2, 108900, Note_on_c, 0, 77, 65
2, 108935, Note_on_c, 0, 70, 0
2, 108947, Note_on_c, 0, 77, 0
2, 108960, Note_on_c, 0, 60, 65
2, 108960, Note_on_c, 0, 75, 65
2, 109055, Note_on_c, 0, 60, 0
2, 109080, Note_on_c, 0, 70, 65
2, 109150, Note_on_c, 0, 75, 0
2, 109175, Note_on_c, 0, 70, 0
2, 109200, Note_on_c, 0, 62, 65
2, 109200, Note_on_c, 0, 77, 65
2, 109295, Note_on_c, 0, 62, 0
2, 109320, Note_on_c, 0, 70, 65
2, 109390, Note_on_c, 0, 77, 0
2, 109415, Note_on_c, 0, 70, 0
2, 109440, Note_on_c, 0, 62, 65
2, 109440, Note_on_c, 0, 78, 65
2, 109535, Note_on_c, 0, 62, 0
2, 109560, Note_on_c, 0, 70, 65
2, 109655, Note_on_c, 0, 70, 0
2, 109680, Note_on_c, 0, 62, 65
2, 109775, Note_on_c, 0, 62, 0
2, 109800, Note_on_c, 0, 70, 65
2, 109822, Note_on_c, 0, 78, 0
2, 109895, Note_on_c, 0, 70, 0
2, 109920, Note_on_c, 0, 63, 65
2, 109920, Note_on_c, 0, 79, 65
2, 110015, Note_on_c, 0, 63, 0
2, 110040, Note_on_c, 0, 70, 65
2, 110110, Note_on_c, 0, 79, 0
2, 110135, Note_on_c, 0, 70, 0
2, 110160, Note_on_c, 0, 63, 65
2, 110255, Note_on_c, 0, 63, 0
2, 110280, Note_on_c, 0, 70, 65
2, 110375, Note_on_c, 0, 70, 0
2, 110400, Note_on_c, 0, 67, 65
2, 110495, Note_on_c, 0, 67, 0
2, 110520, Note_on_c, 0, 70, 65
2, 110615, Note_on_c, 0, 70, 0
2, 110640, Note_on_c, 0, 63, 65
2, 110735, Note_on_c, 0, 63, 0
2, 110760, Note_on_c, 0, 70, 65
2, 110855, Note_on_c, 0, 70, 0
2, 110880, Note_on_c, 0, 60, 65
2, 110880, Note_on_c, 0, 67, 65
2, 110975, Note_on_c, 0, 67, 0
2, 110975, Note_on_c, 0, 60, 0
2, 111000, Note_on_c, 0, 70, 65
2, 111095, Note_on_c, 0, 70, 0
2, 111120, Note_on_c, 0, 63, 65
2, 111215, Note_on_c, 0, 63, 0
2, 111240, Note_on_c, 0, 70, 65
2, 111335, Note_on_c, 0, 70, 0
2, 111360, Note_on_c, 0, 68, 65
2, 111455, Note_on_c, 0, 68, 0
2, 111480, Note_on_c, 0, 70, 65
2, 111575, Note_on_c, 0, 70, 0
2, 111600, Note_on_c, 0, 65, 65
2, 111695, Note_on_c, 0, 65, 0
2, 111720, Note_on_c, 0, 70, 65
2, 111815, Note_on_c, 0, 70, 0
2, 111840, Note_on_c, 0, 67, 75
2, 111935, Note_on_c, 0, 67, 0
2, 111960, Note_on_c, 0, 70, 75
2, 112055, Note_on_c, 0, 70, 0
2, 112080, Note_on_c, 0, 63, 85
2, 112175, Note_on_c, 0, 63, 0
2, 112200, Note_on_c, 0, 70, 84
2, 112295, Note_on_c, 0, 70, 0
2, 112320, Note_on_c, 0, 63, 95
2, 112320, Note_on_c, 0, 70, 95
2, 112320, Note_on_c, 0, 82, 95
2, 112415, Note_on_c, 0, 63, 0
2, 112440, Note_on_c, 0, 67, 95
2, 112535, Note_on_c, 0, 67, 0
2, 112560, Note_on_c, 0, 63, 95
2, 112655, Note_on_c, 0, 63, 0
2, 112680, Note_on_c, 0, 67, 95
2, 112702, Note_on_c, 0, 82, 0
2, 112702, Note_on_c, 0, 70, 0
2, 112775, Note_on_c, 0, 67, 0
2, 112800, Note_on_c, 0, 71, 95
2, 112800, Note_on_c, 0, 83, 95
2, 112800, Note_on_c, 0, 61, 95
2, 112895, Note_on_c, 0, 61, 0
2, 112920, Note_on_c, 0, 65, 95
2, 113015, Note_on_c, 0, 65, 0
2, 113040, Note_on_c, 0, 61, 95
2, 113135, Note_on_c, 0, 61, 0
2, 113160, Note_on_c, 0, 65, 95
2, 113182, Note_on_c, 0, 83, 0
2, 113182, Note_on_c, 0, 71, 0
2, 113255, Note_on_c, 0, 65, 0
2, 113280, Note_on_c, 0, 60, 95
2, 113280, Note_on_c, 0, 72, 95
2, 113280, Note_on_c, 0, 84, 95
2, 113375, Note_on_c, 0, 60, 0
2, 113400, Note_on_c, 0, 64, 95
2, 113470, Note_on_c, 0, 84, 0
2, 113470, Note_on_c, 0, 72, 0
2, 113495, Note_on_c, 0, 64, 0
2, 113520, Note_on_c, 0, 64, 95
2, 113520, Note_on_c, 0, 73, 95
2, 113520, Note_on_c, 0, 85, 95
2, 113710, Note_on_c, 0, 85, 0
2, 113710, Note_on_c, 0, 73, 0
2, 113710, Note_on_c, 0, 64, 0
2, 114240, Note_on_c, 0, 65, 65
2, 114360, Note_on_c, 0, 84, 65
2, 114430, Note_on_c, 0, 65, 0
2, 114455, Note_on_c, 0, 84, 0
2, 114480, Note_on_c, 0, 82, 65
2, 114575, Note_on_c, 0, 82, 0
2, 114600, Note_on_c, 0, 80, 65
2, 114695, Note_on_c, 0, 80, 0
2, 114720, Note_on_c, 0, 79, 65
2, 114815, Note_on_c, 0, 79, 0
2, 114840, Note_on_c, 0, 77, 65
2, 114935, Note_on_c, 0, 77, 0
2, 114960, Note_on_c, 0, 79, 65
2, 115055, Note_on_c, 0, 79, 0
2, 115080, Note_on_c, 0, 80, 65
2, 115175, Note_on_c, 0, 80, 0
2, 115200, Note_on_c, 0, 75, 65
2, 115440, Note_on_c, 0, 67, 65
2, 115630, Note_on_c, 0, 67, 0
2, 115680, Note_on_c, 0, 68, 65
2, 115775, Note_on_c, 0, 75, 0
2, 115920, Note_on_c, 0, 79, 65
2, 115920, Note_on_c, 0, 74, 65
2, 116015, Note_on_c, 0, 79, 0
2, 116040, Note_on_c, 0, 77, 65
2, 116062, Note_on_c, 0, 68, 0
2, 116110, Note_on_c, 0, 74, 0
2, 116135, Note_on_c, 0, 77, 0
2, 116160, Note_on_c, 0, 75, 65
2, 116160, Note_on_c, 0, 67, 65
2, 116160, Note_on_c, 0, 60, 65
2, 116350, Note_on_c, 0, 60, 0
2, 116350, Note_on_c, 0, 67, 0
2, 116350, Note_on_c, 0, 75, 0
2, 116520, Note_on_c, 0, 75, 65
2, 116615, Note_on_c, 0, 75, 0
2, 116640, Note_on_c, 0, 74, 76
2, 116735, Note_on_c, 0, 74, 0
2, 116760, Note_on_c, 0, 73, 76
2, 116855, Note_on_c, 0, 73, 0
2, 116880, Note_on_c, 0, 72, 85
2, 116975, Note_on_c, 0, 72, 0
2, 117000, Note_on_c, 0, 71, 85
2, 117095, Note_on_c, 0, 71, 0
2, 117120, Note_on_c, 0, 70, 95
2, 117502, Note_on_c, 0, 70, 0
2, 117600, Note_on_c, 0, 71, 95
2, 117982, Note_on_c, 0, 71, 0
2, 118080, Note_on_c, 0, 60, 95
2, 118080, Note_on_c, 0, 72, 95
2, 118270, Note_on_c, 0, 72, 0
2, 118270, Note_on_c, 0, 60, 0
2, 118320, Note_on_c, 0, 61, 95
2, 118320, Note_on_c, 0, 73, 95
2, 118510, Note_on_c, 0, 73, 0
2, 118510, Note_on_c, 0, 61, 0
2, 119040, Note_on_c, 0, 72, 95
2, 119102, Note_on_c, 0, 72, 0
2, 119120, Note_on_c, 0, 77, 95
2, 119182, Note_on_c, 0, 77, 0
2, 119200, Note_on_c, 0, 67, 95
2, 119262, Note_on_c, 0, 67, 0
2, 119280, Note_on_c, 0, 68, 95
2, 119342, Note_on_c, 0, 68, 0
2, 119360, Note_on_c, 0, 72, 95
2, 119422, Note_on_c, 0, 72, 0
2, 119440, Note_on_c, 0, 64, 95
2, 119502, Note_on_c, 0, 64, 0
2, 119520, Note_on_c, 0, 65, 95
2, 119582, Note_on_c, 0, 65, 0
2, 119600, Note_on_c, 0, 68, 95
2, 119662, Note_on_c, 0, 68, 0
2, 119760, Note_on_c, 0, 60, 95
2, 119822, Note_on_c, 0, 60, 0
2, 119840, Note_on_c, 0, 65, 95
2, 119902, Note_on_c, 0, 65, 0
2, 120080, Note_on_c, 0, 60, 95
2, 120142, Note_on_c, 0, 60, 0
2, 122400, Note_on_c, 0, 60, 95
2, 122495, Note_on_c, 0, 60, 0
2, 122640, Note_on_c, 0, 65, 95
2, 122735, Note_on_c, 0, 65, 0
2, 122760, Note_on_c, 0, 60, 95
2, 122855, Note_on_c, 0, 60, 0
2, 122880, Note_on_c, 0, 68, 95
2, 122975, Note_on_c, 0, 68, 0
2, 123000, Note_on_c, 0, 65, 95
2, 123095, Note_on_c, 0, 65, 0
2, 123120, Note_on_c, 0, 72, 95
2, 123215, Note_on_c, 0, 72, 0
2, 123240, Note_on_c, 0, 68, 95
2, 123335, Note_on_c, 0, 68, 0
2, 123360, Note_on_c, 0, 77, 95
2, 123455, Note_on_c, 0, 77, 0
2, 123480, Note_on_c, 0, 72, 95
2, 123575, Note_on_c, 0, 72, 0
2, 123600, Note_on_c, 0, 80, 95
2, 123695, Note_on_c, 0, 80, 0
2, 123720, Note_on_c, 0, 77, 95
2, 123815, Note_on_c, 0, 77, 0
2, 123840, Note_on_c, 0, 84, 95
2, 124030, Note_on_c, 0, 84, 0
2, 124080, Note_on_c, 0, 65, 95
2, 124080, Note_on_c, 0, 60, 95
2, 124270, Note_on_c, 0, 60, 0
2, 124270, Note_on_c, 0, 65, 0
2, 124320, Note_on_c, 0, 87, 95
2, 124510, Note_on_c, 0, 87, 0
2, 124560, Note_on_c, 0, 66, 95
2, 124560, Note_on_c, 0, 60, 95
2, 124750, Note_on_c, 0, 60, 0
2, 124750, Note_on_c, 0, 66, 0
2, 124800, Note_on_c, 0, 63, 94
2, 124800, Note_on_c, 0, 67, 93
2, 124920, Note_on_c, 0, 70, 65
2, 124990, Note_on_c, 0, 67, 0
2, 124990, Note_on_c, 0, 63, 0
2, 125015, Note_on_c, 0, 70, 0
2, 125040, Note_on_c, 0, 82, 65
2, 125135, Note_on_c, 0, 82, 0
2, 125160, Note_on_c, 0, 81, 65
2, 125255, Note_on_c, 0, 81, 0
2, 125280, Note_on_c, 0, 80, 65
2, 125375, Note_on_c, 0, 80, 0
2, 125400, Note_on_c, 0, 79, 65
2, 125495, Note_on_c, 0, 79, 0
2, 125520, Note_on_c, 0, 78, 65
2, 125615, Note_on_c, 0, 78, 0
2, 125640, Note_on_c, 0, 77, 65
2, 125735, Note_on_c, 0, 77, 0
2, 125760, Note_on_c, 0, 77, 65
2, 125855, Note_on_c, 0, 77, 0
2, 125880, Note_on_c, 0, 75, 65
2, 125975, Note_on_c, 0, 75, 0
2, 126000, Note_on_c, 0, 75, 65
2, 126000, Note_on_c, 0, 67, 65
2, 126190, Note_on_c, 0, 67, 0
2, 126240, Note_on_c, 0, 68, 65
2, 126382, Note_on_c, 0, 75, 0
2, 126480, Note_on_c, 0, 74, 65
2, 126480, Note_on_c, 0, 79, 65
2, 126575, Note_on_c, 0, 79, 0
2, 126575, Note_on_c, 0, 74, 0
2, 126600, Note_on_c, 0, 77, 65
2, 126622, Note_on_c, 0, 68, 0
2, 126695, Note_on_c, 0, 77, 0
2, 126720, Note_on_c, 0, 75, 65
2, 126720, Note_on_c, 0, 63, 65
2, 126815, Note_on_c, 0, 63, 0
2, 126840, Note_on_c, 0, 70, 65
2, 126910, Note_on_c, 0, 75, 0
2, 126935, Note_on_c, 0, 70, 0
2, 126960, Note_on_c, 0, 67, 65
2, 127055, Note_on_c, 0, 67, 0
2, 127080, Note_on_c, 0, 70, 65
2, 127080, Note_on_c, 0, 75, 65
2, 127175, Note_on_c, 0, 75, 0
2, 127175, Note_on_c, 0, 70, 0
2, 127200, Note_on_c, 0, 62, 65
2, 127200, Note_on_c, 0, 76, 65
2, 127295, Note_on_c, 0, 76, 0
2, 127295, Note_on_c, 0, 62, 0
2, 127320, Note_on_c, 0, 70, 65
2, 127320, Note_on_c, 0, 77, 65
2, 127415, Note_on_c, 0, 77, 0
2, 127415, Note_on_c, 0, 70, 0
2, 127440, Note_on_c, 0, 68, 65
2, 127535, Note_on_c, 0, 68, 0
2, 127560, Note_on_c, 0, 70, 65
2, 127560, Note_on_c, 0, 77, 65
2, 127655, Note_on_c, 0, 77, 0
2, 127655, Note_on_c, 0, 70, 0
2, 127680, Note_on_c, 0, 63, 65
2, 127680, Note_on_c, 0, 78, 65
2, 127775, Note_on_c, 0, 78, 0
2, 127775, Note_on_c, 0, 63, 0
2, 127800, Note_on_c, 0, 70, 65
2, 127800, Note_on_c, 0, 79, 65
2, 127895, Note_on_c, 0, 79, 0
2, 127895, Note_on_c, 0, 70, 0
2, 127920, Note_on_c, 0, 67, 65
2, 128015, Note_on_c, 0, 67, 0
2, 128040, Note_on_c, 0, 70, 65
2, 128040, Note_on_c, 0, 79, 65
2, 128135, Note_on_c, 0, 79, 0
2, 128135, Note_on_c, 0, 70, 0
2, 128160, Note_on_c, 0, 82, 65
2, 128255, Note_on_c, 0, 82, 0
2, 128280, Note_on_c, 0, 62, 65
2, 128280, Note_on_c, 0, 80, 65
2, 128375, Note_on_c, 0, 80, 0
2, 128375, Note_on_c, 0, 62, 0
2, 128520, Note_on_c, 0, 62, 65
2, 128520, Note_on_c, 0, 80, 65
2, 128615, Note_on_c, 0, 80, 0
2, 128615, Note_on_c, 0, 62, 0
2, 128640, Note_on_c, 0, 81, 65
2, 128735, Note_on_c, 0, 81, 0
2, 128760, Note_on_c, 0, 63, 65
2, 128760, Note_on_c, 0, 82, 65
2, 128855, Note_on_c, 0, 82, 0
2, 128855, Note_on_c, 0, 63, 0
2, 129000, Note_on_c, 0, 63, 65
2, 129000, Note_on_c, 0, 82, 65
2, 129095, Note_on_c, 0, 82, 0
2, 129095, Note_on_c, 0, 63, 0
2, 129120, Note_on_c, 0, 83, 65
2, 129215, Note_on_c, 0, 83, 0
2, 129240, Note_on_c, 0, 63, 65
2, 129240, Note_on_c, 0, 84, 65
2, 129335, Note_on_c, 0, 84, 0
2, 129335, Note_on_c, 0, 63, 0
2, 129360, Note_on_c, 0, 60, 65
2, 129455, Note_on_c, 0, 60, 0
2, 129480, Note_on_c, 0, 63, 65
2, 129480, Note_on_c, 0, 87, 65
2, 129575, Note_on_c, 0, 87, 0
2, 129575, Note_on_c, 0, 63, 0
2, 129600, Note_on_c, 0, 87, 65
2, 129695, Note_on_c, 0, 87, 0
2, 129720, Note_on_c, 0, 67, 65
2, 129720, Note_on_c, 0, 75, 65
2, 129815, Note_on_c, 0, 75, 0
2, 129815, Note_on_c, 0, 67, 0
2, 129840, Note_on_c, 0, 75, 65
2, 129840, Note_on_c, 0, 63, 65
2, 129935, Note_on_c, 0, 63, 0
2, 129960, Note_on_c, 0, 67, 65
2, 130055, Note_on_c, 0, 67, 0
2, 130200, Note_on_c, 0, 68, 76
2, 130222, Note_on_c, 0, 75, 0
2, 130295, Note_on_c, 0, 68, 0
2, 130320, Note_on_c, 0, 62, 87
2, 130320, Note_on_c, 0, 79, 87
2, 130415, Note_on_c, 0, 79, 0
2, 130415, Note_on_c, 0, 62, 0
2, 130440, Note_on_c, 0, 68, 86
2, 130440, Note_on_c, 0, 77, 85
2, 130535, Note_on_c, 0, 77, 0
2, 130535, Note_on_c, 0, 68, 0
2, 130560, Note_on_c, 0, 75, 95
2, 130655, Note_on_c, 0, 75, 0
2, 130680, Note_on_c, 0, 75, 95
2, 130775, Note_on_c, 0, 75, 0
2, 130800, Note_on_c, 0, 75, 95
2, 130822, Note_on_c, 0, 75, 0
2, 130830, Note_on_c, 0, 77, 95
2, 130852, Note_on_c, 0, 77, 0
2, 130860, Note_on_c, 0, 75, 95
2, 130882, Note_on_c, 0, 75, 0
2, 130890, Note_on_c, 0, 77, 95
2, 130912, Note_on_c, 0, 77, 0
2, 130920, Note_on_c, 0, 74, 95
2, 130967, Note_on_c, 0, 74, 0
2, 130980, Note_on_c, 0, 75, 95
2, 131027, Note_on_c, 0, 75, 0
2, 131040, Note_on_c, 0, 77, 95
2, 131135, Note_on_c, 0, 77, 0
2, 131160, Note_on_c, 0, 77, 95
2, 131255, Note_on_c, 0, 77, 0
2, 131280, Note_on_c, 0, 77, 95
2, 131302, Note_on_c, 0, 77, 0
2, 131310, Note_on_c, 0, 79, 95
2, 131332, Note_on_c, 0, 79, 0
2, 131340, Note_on_c, 0, 77, 95
2, 131362, Note_on_c, 0, 77, 0
2, 131370, Note_on_c, 0, 79, 95
2, 131392, Note_on_c, 0, 79, 0
2, 131400, Note_on_c, 0, 75, 95
2, 131447, Note_on_c, 0, 75, 0
2, 131460, Note_on_c, 0, 77, 95
2, 131507, Note_on_c, 0, 77, 0
2, 131520, Note_on_c, 0, 79, 95
2, 131615, Note_on_c, 0, 79, 0
2, 131640, Note_on_c, 0, 79, 95
2, 131735, Note_on_c, 0, 79, 0
2, 131760, Note_on_c, 0, 79, 95
2, 131782, Note_on_c, 0, 79, 0
2, 131790, Note_on_c, 0, 80, 95
2, 131812, Note_on_c, 0, 80, 0
2, 131820, Note_on_c, 0, 79, 95
2, 131842, Note_on_c, 0, 79, 0
2, 131850, Note_on_c, 0, 80, 95
2, 131872, Note_on_c, 0, 80, 0
2, 131880, Note_on_c, 0, 77, 95
2, 131927, Note_on_c, 0, 77, 0
2, 131940, Note_on_c, 0, 79, 95
2, 131987, Note_on_c, 0, 79, 0
2, 132000, Note_on_c, 0, 80, 95
2, 132095, Note_on_c, 0, 80, 0
2, 132120, Note_on_c, 0, 62, 95
2, 132120, Note_on_c, 0, 80, 95
2, 132215, Note_on_c, 0, 80, 0
2, 132215, Note_on_c, 0, 62, 0
2, 132240, Note_on_c, 0, 80, 95
2, 132262, Note_on_c, 0, 80, 0
2, 132270, Note_on_c, 0, 82, 95
2, 132292, Note_on_c, 0, 82, 0
2, 132300, Note_on_c, 0, 80, 95
2, 132322, Note_on_c, 0, 80, 0
2, 132330, Note_on_c, 0, 82, 95
2, 132352, Note_on_c, 0, 82, 0
2, 132360, Note_on_c, 0, 79, 95
2, 132360, Note_on_c, 0, 62, 95
2, 132382, Note_on_c, 0, 79, 0
2, 132390, Note_on_c, 0, 80, 95
2, 132412, Note_on_c, 0, 80, 0
2, 132455, Note_on_c, 0, 62, 0
2, 132480, Note_on_c, 0, 63, 95
2, 132480, Note_on_c, 0, 82, 95
2, 132542, Note_on_c, 0, 82, 0
2, 132560, Note_on_c, 0, 84, 95
2, 132622, Note_on_c, 0, 84, 0
2, 132640, Note_on_c, 0, 86, 95
2, 132670, Note_on_c, 0, 63, 0
2, 132702, Note_on_c, 0, 86, 0
2, 132720, Note_on_c, 0, 87, 95
2, 132782, Note_on_c, 0, 87, 0
2, 132800, Note_on_c, 0, 86, 95
2, 132862, Note_on_c, 0, 86, 0
2, 132880, Note_on_c, 0, 84, 95
2, 132942, Note_on_c, 0, 84, 0
2, 132960, Note_on_c, 0, 82, 95
2, 133022, Note_on_c, 0, 82, 0
2, 133040, Note_on_c, 0, 80, 95
2, 133102, Note_on_c, 0, 80, 0
2, 133120, Note_on_c, 0, 79, 95
2, 133182, Note_on_c, 0, 79, 0
2, 133200, Note_on_c, 0, 77, 95
2, 133262, Note_on_c, 0, 77, 0
2, 133280, Note_on_c, 0, 75, 95
2, 133342, Note_on_c, 0, 75, 0
2, 133360, Note_on_c, 0, 74, 95
2, 133422, Note_on_c, 0, 74, 0
2, 133440, Note_on_c, 0, 72, 95
2, 133630, Note_on_c, 0, 72, 0
2, 133680, Note_on_c, 0, 84, 95
2, 133680, Note_on_c, 0, 80, 95
2, 133680, Note_on_c, 0, 75, 95
2, 133870, Note_on_c, 0, 75, 0
2, 133870, Note_on_c, 0, 80, 0
2, 133870, Note_on_c, 0, 84, 0
2, 133920, Note_on_c, 0, 82, 95
2, 133920, Note_on_c, 0, 79, 95
2, 133920, Note_on_c, 0, 75, 95
2, 134110, Note_on_c, 0, 75, 0
2, 134110, Note_on_c, 0, 79, 0
2, 134110, Note_on_c, 0, 82, 0
2, 134160, Note_on_c, 0, 74, 95
2, 134160, Note_on_c, 0, 68, 95
2, 134160, Note_on_c, 0, 65, 95
2, 134350, Note_on_c, 0, 65, 0
2, 134350, Note_on_c, 0, 68, 0
2, 134350, Note_on_c, 0, 74, 0
2, 134400, Note_on_c, 0, 75, 95
2, 134400, Note_on_c, 0, 67, 95
2, 134590, Note_on_c, 0, 67, 0
2, 134590, Note_on_c, 0, 75, 0
2, 134640, Note_on_c, 0, 82, 95
2, 134702, Note_on_c, 0, 82, 0
2, 134720, Note_on_c, 0, 80, 95
2, 134782, Note_on_c, 0, 80, 0
2, 134800, Note_on_c, 0, 79, 95
2, 134862, Note_on_c, 0, 79, 0
2, 134880, Note_on_c, 0, 77, 95
2, 134942, Note_on_c, 0, 77, 0
2, 134960, Note_on_c, 0, 75, 95
2, 135022, Note_on_c, 0, 75, 0
2, 135040, Note_on_c, 0, 74, 95
2, 135102, Note_on_c, 0, 74, 0
2, 135120, Note_on_c, 0, 67, 95
2, 135120, Note_on_c, 0, 75, 95
2, 135120, Note_on_c, 0, 63, 95
2, 135182, Note_on_c, 0, 75, 0
2, 135200, Note_on_c, 0, 73, 95
2, 135262, Note_on_c, 0, 73, 0
2, 135280, Note_on_c, 0, 71, 95
2, 135310, Note_on_c, 0, 63, 0
2, 135310, Note_on_c, 0, 67, 0
2, 135342, Note_on_c, 0, 71, 0
2, 135360, Note_on_c, 0, 72, 95
2, 135360, Note_on_c, 0, 68, 95
2, 135360, Note_on_c, 0, 63, 95
2, 135550, Note_on_c, 0, 63, 0
2, 135550, Note_on_c, 0, 68, 0
2, 135550, Note_on_c, 0, 72, 0
2, 135600, Note_on_c, 0, 84, 95
2, 135662, Note_on_c, 0, 84, 0
2, 135680, Note_on_c, 0, 82, 95
2, 135742, Note_on_c, 0, 82, 0
2, 135760, Note_on_c, 0, 80, 95
2, 135822, Note_on_c, 0, 80, 0
2, 135840, Note_on_c, 0, 79, 95
2, 135902, Note_on_c, 0, 79, 0
2, 135920, Note_on_c, 0, 77, 95
2, 135982, Note_on_c, 0, 77, 0
2, 136000, Note_on_c, 0, 75, 95
2, 136062, Note_on_c, 0, 75, 0
2, 136080, Note_on_c, 0, 68, 95
2, 136080, Note_on_c, 0, 74, 95
2, 136080, Note_on_c, 0, 63, 95
2, 136080, Note_on_c, 0, 65, 95
2, 136142, Note_on_c, 0, 74, 0
2, 136160, Note_on_c, 0, 80, 95
2, 136222, Note_on_c, 0, 80, 0
2, 136240, Note_on_c, 0, 77, 95
2, 136270, Note_on_c, 0, 65, 0
2, 136270, Note_on_c, 0, 68, 0
2, 136270, Note_on_c, 0, 63, 0
2, 136302, Note_on_c, 0, 77, 0
2, 136320, Note_on_c, 0, 63, 95
2, 136320, Note_on_c, 0, 75, 95
2, 136320, Note_on_c, 0, 67, 95
2, 136510, Note_on_c, 0, 67, 0
2, 136510, Note_on_c, 0, 75, 0
2, 136510, Note_on_c, 0, 63, 0
2, 136560, Note_on_c, 0, 70, 95
2, 136622, Note_on_c, 0, 70, 0
2, 136640, Note_on_c, 0, 68, 95
2, 136702, Note_on_c, 0, 68, 0
2, 136720, Note_on_c, 0, 67, 95
2, 136782, Note_on_c, 0, 67, 0
2, 136800, Note_on_c, 0, 65, 95
2, 136862, Note_on_c, 0, 65, 0
2, 136880, Note_on_c, 0, 63, 95
2, 136942, Note_on_c, 0, 63, 0
2, 136960, Note_on_c, 0, 62, 95
2, 137022, Note_on_c, 0, 62, 0
2, 137040, Note_on_c, 0, 63, 95
2, 137102, Note_on_c, 0, 63, 0
2, 137120, Note_on_c, 0, 61, 95
2, 137182, Note_on_c, 0, 61, 0
2, 137280, Note_on_c, 0, 60, 95
2, 137470, Note_on_c, 0, 60, 0
2, 137520, Note_on_c, 0, 72, 95
2, 137582, Note_on_c, 0, 72, 0
2, 137600, Note_on_c, 0, 70, 95
2, 137662, Note_on_c, 0, 70, 0
2, 137680, Note_on_c, 0, 68, 95
2, 137742, Note_on_c, 0, 68, 0
2, 137760, Note_on_c, 0, 67, 95
2, 137822, Note_on_c, 0, 67, 0
2, 137840, Note_on_c, 0, 65, 95
2, 137902, Note_on_c, 0, 65, 0
2, 137920, Note_on_c, 0, 63, 95
2, 137982, Note_on_c, 0, 63, 0
2, 138000, Note_on_c, 0, 62, 95
2, 138062, Note_on_c, 0, 62, 0
2, 138080, Note_on_c, 0, 68, 95
2, 138142, Note_on_c, 0, 68, 0
2, 138160, Note_on_c, 0, 65, 95
2, 138222, Note_on_c, 0, 65, 0
2, 138240, Note_on_c, 0, 63, 95
2, 138622, Note_on_c, 0, 63, 0
2, 138720, Note_on_c, 0, 67, 95
2, 138910, Note_on_c, 0, 67, 0
2, 138960, Note_on_c, 0, 70, 95
2, 139150, Note_on_c, 0, 70, 0
2, 139200, Note_on_c, 0, 75, 95
2, 139390, Note_on_c, 0, 75, 0
2, 139440, Note_on_c, 0, 79, 95
2, 139630, Note_on_c, 0, 79, 0
2, 139860, Note_on_c, 0, 79, 95
2, 139907, Note_on_c, 0, 79, 0
2, 139920, Note_on_c, 0, 79, 95
2, 139942, Note_on_c, 0, 79, 0
2, 139950, Note_on_c, 0, 80, 95
2, 139972, Note_on_c, 0, 80, 0
2, 139980, Note_on_c, 0, 79, 95
2, 140002, Note_on_c, 0, 79, 0
2, 140010, Note_on_c, 0, 80, 95
2, 140032, Note_on_c, 0, 80, 0
2, 140040, Note_on_c, 0, 77, 95
2, 140087, Note_on_c, 0, 77, 0
2, 140100, Note_on_c, 0, 79, 95
2, 140147, Note_on_c, 0, 79, 0
2, 140160, Note_on_c, 0, 63, 95
2, 140160, Note_on_c, 0, 82, 95
2, 140350, Note_on_c, 0, 82, 0
2, 140350, Note_on_c, 0, 63, 0
2, 140400, Note_on_c, 0, 67, 95
2, 140400, Note_on_c, 0, 75, 95
2, 140590, Note_on_c, 0, 75, 0
2, 140590, Note_on_c, 0, 67, 0
2, 140640, Note_on_c, 0, 75, 95
2, 140830, Note_on_c, 0, 75, 0
2, 140880, Note_on_c, 0, 75, 95
2, 141070, Note_on_c, 0, 75, 0
2, 141120, Note_on_c, 0, 65, 64
2, 141120, Note_on_c, 0, 62, 70
2, 141120, Note_on_c, 0, 80, 66
2, 141310, Note_on_c, 0, 80, 0
2, 141360, Note_on_c, 0, 71, 69
2, 141550, Note_on_c, 0, 71, 0
2, 141600, Note_on_c, 0, 71, 62
2, 141695, Note_on_c, 0, 62, 0
2, 141695, Note_on_c, 0, 65, 0
2, 141790, Note_on_c, 0, 71, 0
2, 142080, Note_on_c, 0, 60, 80
2, 142462, Note_on_c, 0, 60, 0
2, 142560, Note_on_c, 0, 64, 80
2, 142750, Note_on_c, 0, 64, 0
2, 142800, Note_on_c, 0, 67, 80
2, 142990, Note_on_c, 0, 67, 0
2, 143040, Note_on_c, 0, 60, 95
2, 143040, Note_on_c, 0, 72, 95
2, 143230, Note_on_c, 0, 72, 0
2, 143230, Note_on_c, 0, 60, 0
2, 143280, Note_on_c, 0, 76, 95
2, 143280, Note_on_c, 0, 64, 95
2, 143470, Note_on_c, 0, 64, 0
2, 143470, Note_on_c, 0, 76, 0
2, 143700, Note_on_c, 0, 79, 95
2, 143747, Note_on_c, 0, 79, 0
2, 143760, Note_on_c, 0, 79, 95
2, 143782, Note_on_c, 0, 79, 0
2, 143790, Note_on_c, 0, 80, 95
2, 143812, Note_on_c, 0, 80, 0
2, 143820, Note_on_c, 0, 79, 95
2, 143842, Note_on_c, 0, 79, 0
2, 143850, Note_on_c, 0, 80, 95
2, 143872, Note_on_c, 0, 80, 0
2, 143880, Note_on_c, 0, 77, 95
2, 143927, Note_on_c, 0, 77, 0
2, 143940, Note_on_c, 0, 79, 95
2, 143987, Note_on_c, 0, 79, 0
2, 144000, Note_on_c, 0, 82, 95
2, 144062, Note_on_c, 0, 82, 0
2, 144080, Note_on_c, 0, 84, 95
2, 144142, Note_on_c, 0, 84, 0
2, 144160, Note_on_c, 0, 85, 95
2, 144222, Note_on_c, 0, 85, 0
2, 144240, Note_on_c, 0, 84, 95
2, 144302, Note_on_c, 0, 84, 0
2, 144320, Note_on_c, 0, 82, 95
2, 144382, Note_on_c, 0, 82, 0
2, 144400, Note_on_c, 0, 80, 95
2, 144462, Note_on_c, 0, 80, 0
2, 144480, Note_on_c, 0, 79, 95
2, 144542, Note_on_c, 0, 79, 0
2, 144560, Note_on_c, 0, 80, 95
2, 144622, Note_on_c, 0, 80, 0
2, 144640, Note_on_c, 0, 82, 95
2, 144702, Note_on_c, 0, 82, 0
2, 144720, Note_on_c, 0, 80, 95
2, 144782, Note_on_c, 0, 80, 0
2, 144800, Note_on_c, 0, 79, 95
2, 144862, Note_on_c, 0, 79, 0
2, 144880, Note_on_c, 0, 77, 95
2, 144942, Note_on_c, 0, 77, 0
2, 144960, Note_on_c, 0, 76, 95
2, 145022, Note_on_c, 0, 76, 0
2, 145040, Note_on_c, 0, 79, 95
2, 145102, Note_on_c, 0, 79, 0
2, 145120, Note_on_c, 0, 76, 95
2, 145182, Note_on_c, 0, 76, 0
2, 145200, Note_on_c, 0, 61, 95
2, 145200, Note_on_c, 0, 73, 95
2, 145262, Note_on_c, 0, 73, 0
2, 145280, Note_on_c, 0, 76, 95
2, 145342, Note_on_c, 0, 76, 0
2, 145360, Note_on_c, 0, 73, 95
2, 145390, Note_on_c, 0, 61, 0
2, 145422, Note_on_c, 0, 73, 0
2, 145440, Note_on_c, 0, 70, 84
2, 145502, Note_on_c, 0, 70, 0
2, 145520, Note_on_c, 0, 73, 83
2, 145582, Note_on_c, 0, 73, 0
2, 145600, Note_on_c, 0, 70, 84
2, 145662, Note_on_c, 0, 70, 0
2, 145680, Note_on_c, 0, 67, 75
2, 145742, Note_on_c, 0, 67, 0
2, 145760, Note_on_c, 0, 70, 73
2, 145822, Note_on_c, 0, 70, 0
2, 145840, Note_on_c, 0, 67, 75
2, 145902, Note_on_c, 0, 67, 0
2, 145920, Note_on_c, 0, 68, 65
2, 146040, Note_on_c, 0, 60, 65
2, 146135, Note_on_c, 0, 60, 0
2, 146207, Note_on_c, 0, 68, 0
2, 146280, Note_on_c, 0, 70, 65
2, 146280, Note_on_c, 0, 60, 65
2, 146302, Note_on_c, 0, 70, 0
2, 146310, Note_on_c, 0, 68, 65
2, 146332, Note_on_c, 0, 68, 0
2, 146340, Note_on_c, 0, 67, 65
2, 146362, Note_on_c, 0, 67, 0
2, 146370, Note_on_c, 0, 68, 65
2, 146375, Note_on_c, 0, 60, 0
2, 146392, Note_on_c, 0, 68, 0
2, 146400, Note_on_c, 0, 70, 65
2, 146520, Note_on_c, 0, 60, 65
2, 146590, Note_on_c, 0, 70, 0
2, 146615, Note_on_c, 0, 60, 0
2, 146640, Note_on_c, 0, 64, 65
2, 146760, Note_on_c, 0, 60, 65
2, 146830, Note_on_c, 0, 64, 0
2, 146855, Note_on_c, 0, 60, 0
2, 146880, Note_on_c, 0, 65, 65
2, 146975, Note_on_c, 0, 65, 0
2, 147000, Note_on_c, 0, 60, 65
2, 147000, Note_on_c, 0, 68, 65
2, 147095, Note_on_c, 0, 68, 0
2, 147095, Note_on_c, 0, 60, 0
2, 147120, Note_on_c, 0, 72, 65
2, 147240, Note_on_c, 0, 60, 65
2, 147335, Note_on_c, 0, 60, 0
2, 147407, Note_on_c, 0, 72, 0
2, 147480, Note_on_c, 0, 71, 65
2, 147480, Note_on_c, 0, 60, 65
2, 147575, Note_on_c, 0, 60, 0
2, 147575, Note_on_c, 0, 71, 0
2, 147600, Note_on_c, 0, 70, 65
2, 147695, Note_on_c, 0, 70, 0
2, 147720, Note_on_c, 0, 60, 65
2, 147720, Note_on_c, 0, 67, 65
2, 147815, Note_on_c, 0, 67, 0
2, 147815, Note_on_c, 0, 60, 0
2, 147840, Note_on_c, 0, 68, 65
2, 147960, Note_on_c, 0, 60, 65
2, 148055, Note_on_c, 0, 60, 0
2, 148127, Note_on_c, 0, 68, 0
2, 148200, Note_on_c, 0, 70, 65
2, 148200, Note_on_c, 0, 60, 65
2, 148227, Note_on_c, 0, 70, 0
2, 148230, Note_on_c, 0, 68, 65
2, 148257, Note_on_c, 0, 68, 0
2, 148260, Note_on_c, 0, 67, 65
2, 148287, Note_on_c, 0, 67, 0
2, 148290, Note_on_c, 0, 68, 65
2, 148295, Note_on_c, 0, 60, 0
2, 148317, Note_on_c, 0, 68, 0
2, 148320, Note_on_c, 0, 70, 65
2, 148440, Note_on_c, 0, 60, 65
2, 148510, Note_on_c, 0, 70, 0
2, 148535, Note_on_c, 0, 60, 0
2, 148560, Note_on_c, 0, 64, 65
2, 148680, Note_on_c, 0, 60, 65
2, 148750, Note_on_c, 0, 64, 0
2, 148775, Note_on_c, 0, 60, 0
2, 148800, Note_on_c, 0, 65, 65
2, 148895, Note_on_c, 0, 65, 0
2, 148920, Note_on_c, 0, 60, 65
2, 148920, Note_on_c, 0, 77, 65
2, 149015, Note_on_c, 0, 77, 0
2, 149015, Note_on_c, 0, 60, 0
2, 149040, Note_on_c, 0, 75, 65
2, 149135, Note_on_c, 0, 75, 0
2, 149160, Note_on_c, 0, 60, 65
2, 149160, Note_on_c, 0, 73, 65
2, 149255, Note_on_c, 0, 73, 0
2, 149255, Note_on_c, 0, 60, 0
2, 149280, Note_on_c, 0, 72, 76
2, 149375, Note_on_c, 0, 72, 0
2, 149400, Note_on_c, 0, 60, 75
2, 149400, Note_on_c, 0, 71, 76
2, 149495, Note_on_c, 0, 71, 0
2, 149495, Note_on_c, 0, 60, 0
2, 149520, Note_on_c, 0, 70, 85
2, 149615, Note_on_c, 0, 70, 0
2, 149640, Note_on_c, 0, 60, 85
2, 149640, Note_on_c, 0, 67, 86
2, 149735, Note_on_c, 0, 67, 0
2, 149735, Note_on_c, 0, 60, 0
2, 149760, Note_on_c, 0, 68, 95
2, 149920, Note_on_c, 0, 60, 95
2, 149982, Note_on_c, 0, 60, 0
2, 150142, Note_on_c, 0, 68, 0
2, 150240, Note_on_c, 0, 72, 95
2, 150400, Note_on_c, 0, 60, 95
2, 150430, Note_on_c, 0, 72, 0
2, 150462, Note_on_c, 0, 60, 0
2, 150480, Note_on_c, 0, 77, 95
2, 150670, Note_on_c, 0, 77, 0
2, 150720, Note_on_c, 0, 80, 95
2, 150880, Note_on_c, 0, 60, 95
2, 150910, Note_on_c, 0, 80, 0
2, 150942, Note_on_c, 0, 60, 0
2, 150960, Note_on_c, 0, 84, 95
2, 151150, Note_on_c, 0, 84, 0
2, 151680, Note_on_c, 0, 84, 95
2, 151742, Note_on_c, 0, 84, 0
2, 151760, Note_on_c, 0, 86, 95
2, 151822, Note_on_c, 0, 86, 0
2, 151840, Note_on_c, 0, 87, 95
2, 151902, Note_on_c, 0, 87, 0
2, 151920, Note_on_c, 0, 86, 95
2, 151982, Note_on_c, 0, 86, 0
2, 152000, Note_on_c, 0, 84, 95
2, 152062, Note_on_c, 0, 84, 0
2, 152080, Note_on_c, 0, 82, 95
2, 152142, Note_on_c, 0, 82, 0
2, 152160, Note_on_c, 0, 81, 95
2, 152222, Note_on_c, 0, 81, 0
2, 152240, Note_on_c, 0, 82, 95
2, 152302, Note_on_c, 0, 82, 0
2, 152320, Note_on_c, 0, 84, 95
2, 152382, Note_on_c, 0, 84, 0
2, 152400, Note_on_c, 0, 82, 95
2, 152462, Note_on_c, 0, 82, 0
2, 152480, Note_on_c, 0, 81, 95
2, 152542, Note_on_c, 0, 81, 0
2, 152560, Note_on_c, 0, 79, 95
2, 152622, Note_on_c, 0, 79, 0
2, 152640, Note_on_c, 0, 62, 95
2, 152640, Note_on_c, 0, 78, 95
2, 152702, Note_on_c, 0, 78, 0
2, 152720, Note_on_c, 0, 81, 95
2, 152782, Note_on_c, 0, 81, 0
2, 152800, Note_on_c, 0, 78, 95
2, 152830, Note_on_c, 0, 62, 0
2, 152862, Note_on_c, 0, 78, 0
2, 152880, Note_on_c, 0, 66, 95
2, 152880, Note_on_c, 0, 75, 95
2, 152942, Note_on_c, 0, 75, 0
2, 152960, Note_on_c, 0, 81, 95
2, 153022, Note_on_c, 0, 81, 0
2, 153040, Note_on_c, 0, 75, 95
2, 153070, Note_on_c, 0, 66, 0
2, 153102, Note_on_c, 0, 75, 0
2, 153120, Note_on_c, 0, 74, 95
2, 153182, Note_on_c, 0, 74, 0
2, 153200, Note_on_c, 0, 81, 95
2, 153262, Note_on_c, 0, 81, 0
2, 153280, Note_on_c, 0, 74, 95
2, 153342, Note_on_c, 0, 74, 0
2, 153360, Note_on_c, 0, 72, 95
2, 153422, Note_on_c, 0, 72, 0
2, 153440, Note_on_c, 0, 81, 95
2, 153502, Note_on_c, 0, 81, 0
2, 153520, Note_on_c, 0, 72, 95
2, 153582, Note_on_c, 0, 72, 0
2, 153600, Note_on_c, 0, 70, 95
2, 153760, Note_on_c, 0, 62, 95
2, 153822, Note_on_c, 0, 62, 0
2, 153840, Note_on_c, 0, 60, 95
2, 153902, Note_on_c, 0, 60, 0
2, 153982, Note_on_c, 0, 70, 0
2, 154080, Note_on_c, 0, 74, 95
2, 154240, Note_on_c, 0, 62, 95
2, 154270, Note_on_c, 0, 74, 0
2, 154302, Note_on_c, 0, 62, 0
2, 154320, Note_on_c, 0, 77, 95
2, 154320, Note_on_c, 0, 60, 95
2, 154382, Note_on_c, 0, 60, 0
2, 154510, Note_on_c, 0, 77, 0
2, 154560, Note_on_c, 0, 82, 95
2, 154720, Note_on_c, 0, 62, 95
2, 154750, Note_on_c, 0, 82, 0
2, 154782, Note_on_c, 0, 62, 0
2, 154800, Note_on_c, 0, 86, 95
2, 154800, Note_on_c, 0, 60, 95
2, 154862, Note_on_c, 0, 60, 0
2, 154990, Note_on_c, 0, 86, 0
2, 155200, Note_on_c, 0, 62, 95
2, 155262, Note_on_c, 0, 62, 0
2, 155440, Note_on_c, 0, 62, 95
2, 155502, Note_on_c, 0, 62, 0
2, 155520, Note_on_c, 0, 71, 95
2, 155680, Note_on_c, 0, 62, 95
2, 155742, Note_on_c, 0, 62, 0
2, 155902, Note_on_c, 0, 71, 0
2, 155920, Note_on_c, 0, 62, 95
2, 155982, Note_on_c, 0, 62, 0
2, 156000, Note_on_c, 0, 74, 95
2, 156160, Note_on_c, 0, 62, 95
2, 156190, Note_on_c, 0, 74, 0
2, 156222, Note_on_c, 0, 62, 0
2, 156240, Note_on_c, 0, 77, 95
2, 156400, Note_on_c, 0, 62, 95
2, 156430, Note_on_c, 0, 77, 0
2, 156462, Note_on_c, 0, 62, 0
2, 156480, Note_on_c, 0, 83, 95
2, 156640, Note_on_c, 0, 62, 95
2, 156670, Note_on_c, 0, 83, 0
2, 156702, Note_on_c, 0, 62, 0
2, 156720, Note_on_c, 0, 86, 95
2, 156880, Note_on_c, 0, 62, 95
2, 156910, Note_on_c, 0, 86, 0
2, 156942, Note_on_c, 0, 62, 0
2, 157120, Note_on_c, 0, 62, 95
2, 157182, Note_on_c, 0, 62, 0
2, 157360, Note_on_c, 0, 62, 95
2, 157422, Note_on_c, 0, 62, 0
2, 157440, Note_on_c, 0, 72, 95
2, 157600, Note_on_c, 0, 60, 95
2, 157662, Note_on_c, 0, 60, 0
2, 157822, Note_on_c, 0, 72, 0
2, 157840, Note_on_c, 0, 60, 95
2, 157902, Note_on_c, 0, 60, 0
2, 157920, Note_on_c, 0, 75, 95
2, 158080, Note_on_c, 0, 60, 95
2, 158110, Note_on_c, 0, 75, 0
2, 158142, Note_on_c, 0, 60, 0
2, 158160, Note_on_c, 0, 79, 95
2, 158320, Note_on_c, 0, 60, 95
2, 158350, Note_on_c, 0, 79, 0
2, 158382, Note_on_c, 0, 60, 0
2, 158400, Note_on_c, 0, 84, 95
2, 158560, Note_on_c, 0, 60, 95
2, 158590, Note_on_c, 0, 84, 0
2, 158622, Note_on_c, 0, 60, 0
2, 158640, Note_on_c, 0, 87, 95
2, 158800, Note_on_c, 0, 60, 95
2, 158830, Note_on_c, 0, 87, 0
2, 158862, Note_on_c, 0, 60, 0
2, 159040, Note_on_c, 0, 60, 95
2, 159102, Note_on_c, 0, 60, 0
2, 159360, Note_on_c, 0, 74, 95
2, 159360, Note_on_c, 0, 62, 95
2, 159742, Note_on_c, 0, 62, 0
2, 159742, Note_on_c, 0, 74, 0
2, 159840, Note_on_c, 0, 65, 95
2, 159840, Note_on_c, 0, 77, 95
2, 160030, Note_on_c, 0, 77, 0
2, 160030, Note_on_c, 0, 65, 0
2, 160080, Note_on_c, 0, 79, 95
2, 160080, Note_on_c, 0, 67, 95
2, 160270, Note_on_c, 0, 67, 0
2, 160270, Note_on_c, 0, 79, 0
2, 160320, Note_on_c, 0, 86, 95
2, 160320, Note_on_c, 0, 74, 95
2, 160510, Note_on_c, 0, 74, 0
2, 160510, Note_on_c, 0, 86, 0
2, 160560, Note_on_c, 0, 77, 95
2, 160560, Note_on_c, 0, 89, 95
2, 160750, Note_on_c, 0, 89, 0
2, 160750, Note_on_c, 0, 77, 0
2, 161280, Note_on_c, 0, 77, 65
2, 161470, Note_on_c, 0, 77, 0
2, 161520, Note_on_c, 0, 80, 65
2, 161710, Note_on_c, 0, 80, 0
2, 161760, Note_on_c, 0, 62, 65
2, 161760, Note_on_c, 0, 71, 65
2, 162142, Note_on_c, 0, 71, 0
2, 162142, Note_on_c, 0, 62, 0
2, 162240, Note_on_c, 0, 74, 65
2, 162430, Note_on_c, 0, 74, 0
2, 162480, Note_on_c, 0, 77, 65
2, 162670, Note_on_c, 0, 77, 0
2, 162720, Note_on_c, 0, 68, 65
2, 163102, Note_on_c, 0, 68, 0
2, 163200, Note_on_c, 0, 71, 65
2, 163390, Note_on_c, 0, 71, 0
2, 163440, Note_on_c, 0, 74, 65
2, 163630, Note_on_c, 0, 74, 0
2, 163680, Note_on_c, 0, 62, 65
2, 163870, Note_on_c, 0, 62, 0
2, 163920, Note_on_c, 0, 65, 65
2, 164110, Note_on_c, 0, 65, 0
2, 166080, Note_on_c, 0, 60, 95
2, 166462, Note_on_c, 0, 60, 0
2, 166560, Note_on_c, 0, 63, 95
2, 166750, Note_on_c, 0, 63, 0
2, 166800, Note_on_c, 0, 67, 95
2, 166990, Note_on_c, 0, 67, 0
2, 167040, Note_on_c, 0, 72, 95
2, 167040, Note_on_c, 0, 60, 95
2, 167230, Note_on_c, 0, 60, 0
2, 167230, Note_on_c, 0, 72, 0
2, 167280, Note_on_c, 0, 63, 95
2, 167280, Note_on_c, 0, 75, 95
2, 167470, Note_on_c, 0, 75, 0
2, 167470, Note_on_c, 0, 63, 0
2, 167700, Note_on_c, 0, 75, 65
2, 167747, Note_on_c, 0, 75, 0
2, 167760, Note_on_c, 0, 75, 64
2, 167782, Note_on_c, 0, 75, 0
2, 167790, Note_on_c, 0, 77, 65
2, 167812, Note_on_c, 0, 77, 0
2, 167820, Note_on_c, 0, 75, 64
2, 167842, Note_on_c, 0, 75, 0
2, 167850, Note_on_c, 0, 77, 63
2, 167872, Note_on_c, 0, 77, 0
2, 167880, Note_on_c, 0, 74, 66
2, 167927, Note_on_c, 0, 74, 0
2, 167940, Note_on_c, 0, 75, 64
2, 167987, Note_on_c, 0, 75, 0
2, 168000, Note_on_c, 0, 79, 65
2, 168190, Note_on_c, 0, 79, 0
2, 168240, Note_on_c, 0, 63, 65
2, 168240, Note_on_c, 0, 67, 65
2, 168240, Note_on_c, 0, 72, 65
2, 168430, Note_on_c, 0, 72, 0
2, 168430, Note_on_c, 0, 67, 0
2, 168430, Note_on_c, 0, 63, 0
2, 168480, Note_on_c, 0, 63, 65
2, 168480, Note_on_c, 0, 67, 65
2, 168480, Note_on_c, 0, 72, 65
2, 168670, Note_on_c, 0, 72, 0
2, 168670, Note_on_c, 0, 67, 0
2, 168670, Note_on_c, 0, 63, 0
2, 168720, Note_on_c, 0, 63, 65
2, 168720, Note_on_c, 0, 67, 65
2, 168720, Note_on_c, 0, 72, 65
2, 168910, Note_on_c, 0, 72, 0
2, 168910, Note_on_c, 0, 67, 0
2, 168910, Note_on_c, 0, 63, 0
2, 168960, Note_on_c, 0, 80, 65
2, 169150, Note_on_c, 0, 80, 0
2, 169200, Note_on_c, 0, 62, 65
2, 169200, Note_on_c, 0, 71, 65
2, 169200, Note_on_c, 0, 68, 65
2, 169200, Note_on_c, 0, 65, 65
2, 169390, Note_on_c, 0, 65, 0
2, 169390, Note_on_c, 0, 62, 0
2, 169390, Note_on_c, 0, 71, 0
2, 169390, Note_on_c, 0, 68, 0
2, 169440, Note_on_c, 0, 62, 65
2, 169440, Note_on_c, 0, 71, 65
2, 169440, Note_on_c, 0, 68, 65
2, 169440, Note_on_c, 0, 65, 65
2, 169630, Note_on_c, 0, 65, 0
2, 169630, Note_on_c, 0, 62, 0
2, 169630, Note_on_c, 0, 71, 0
2, 169630, Note_on_c, 0, 68, 0
2, 170640, Note_on_c, 0, 62, 95
2, 170830, Note_on_c, 0, 62, 0
2, 170880, Note_on_c, 0, 67, 95
2, 171070, Note_on_c, 0, 67, 0
2, 171120, Note_on_c, 0, 71, 95
2, 171310, Note_on_c, 0, 71, 0
2, 171540, Note_on_c, 0, 74, 65
2, 171587, Note_on_c, 0, 74, 0
2, 171600, Note_on_c, 0, 74, 64
2, 171622, Note_on_c, 0, 74, 0
2, 171630, Note_on_c, 0, 75, 65
2, 171652, Note_on_c, 0, 75, 0
2, 171660, Note_on_c, 0, 74, 66
2, 171682, Note_on_c, 0, 74, 0
2, 171690, Note_on_c, 0, 75, 65
2, 171712, Note_on_c, 0, 75, 0
2, 171720, Note_on_c, 0, 72, 65
2, 171767, Note_on_c, 0, 72, 0
2, 171780, Note_on_c, 0, 74, 65
2, 171827, Note_on_c, 0, 74, 0
2, 171840, Note_on_c, 0, 77, 65
2, 172030, Note_on_c, 0, 77, 0
2, 172080, Note_on_c, 0, 68, 65
2, 172080, Note_on_c, 0, 65, 65
2, 172080, Note_on_c, 0, 62, 65
2, 172080, Note_on_c, 0, 71, 65
2, 172270, Note_on_c, 0, 71, 0
2, 172270, Note_on_c, 0, 68, 0
2, 172270, Note_on_c, 0, 65, 0
2, 172270, Note_on_c, 0, 62, 0
2, 172320, Note_on_c, 0, 62, 65
2, 172320, Note_on_c, 0, 65, 65
2, 172320, Note_on_c, 0, 68, 65
2, 172320, Note_on_c, 0, 71, 65
2, 172510, Note_on_c, 0, 71, 0
2, 172510, Note_on_c, 0, 62, 0
2, 172510, Note_on_c, 0, 65, 0
2, 172510, Note_on_c, 0, 68, 0
2, 172560, Note_on_c, 0, 62, 65
2, 172560, Note_on_c, 0, 65, 65
2, 172560, Note_on_c, 0, 68, 65
2, 172560, Note_on_c, 0, 71, 65
2, 172750, Note_on_c, 0, 71, 0
2, 172750, Note_on_c, 0, 62, 0
2, 172750, Note_on_c, 0, 65, 0
2, 172750, Note_on_c, 0, 68, 0
2, 172800, Note_on_c, 0, 79, 65
2, 172990, Note_on_c, 0, 79, 0
2, 173040, Note_on_c, 0, 63, 65
2, 173040, Note_on_c, 0, 67, 65
2, 173040, Note_on_c, 0, 72, 65
2, 173230, Note_on_c, 0, 72, 0
2, 173230, Note_on_c, 0, 67, 0
2, 173230, Note_on_c, 0, 63, 0
2, 173280, Note_on_c, 0, 63, 65
2, 173280, Note_on_c, 0, 67, 65
2, 173280, Note_on_c, 0, 72, 65
2, 173470, Note_on_c, 0, 72, 0
2, 173470, Note_on_c, 0, 67, 0
2, 173470, Note_on_c, 0, 63, 0
2, 173760, Note_on_c, 0, 67, 95
2, 174335, Note_on_c, 0, 67, 0
2, 174480, Note_on_c, 0, 67, 65
2, 174480, Note_on_c, 0, 75, 65
2, 174670, Note_on_c, 0, 67, 0
2, 174720, Note_on_c, 0, 66, 65
2, 174910, Note_on_c, 0, 66, 0
2, 174910, Note_on_c, 0, 75, 0
2, 174960, Note_on_c, 0, 65, 65
2, 174960, Note_on_c, 0, 74, 65
2, 175150, Note_on_c, 0, 65, 0
2, 175200, Note_on_c, 0, 64, 65
2, 175342, Note_on_c, 0, 74, 0
2, 175390, Note_on_c, 0, 64, 0
2, 175440, Note_on_c, 0, 63, 65
2, 175440, Note_on_c, 0, 72, 65
2, 175630, Note_on_c, 0, 63, 0
2, 175680, Note_on_c, 0, 62, 95
2, 175870, Note_on_c, 0, 72, 0
2, 175920, Note_on_c, 0, 71, 95
2, 176062, Note_on_c, 0, 62, 0
2, 176110, Note_on_c, 0, 71, 0
2, 176400, Note_on_c, 0, 79, 65
2, 176400, Note_on_c, 0, 75, 65
2, 176590, Note_on_c, 0, 75, 0
2, 176590, Note_on_c, 0, 79, 0
2, 176640, Note_on_c, 0, 78, 65
2, 176640, Note_on_c, 0, 75, 65
2, 176830, Note_on_c, 0, 75, 0
2, 176830, Note_on_c, 0, 78, 0
2, 176880, Note_on_c, 0, 74, 65
2, 176880, Note_on_c, 0, 77, 65
2, 177070, Note_on_c, 0, 77, 0
2, 177120, Note_on_c, 0, 76, 76
2, 177262, Note_on_c, 0, 74, 0
2, 177310, Note_on_c, 0, 76, 0
2, 177360, Note_on_c, 0, 72, 65
2, 177360, Note_on_c, 0, 75, 65
2, 177550, Note_on_c, 0, 75, 0
2, 177550, Note_on_c, 0, 72, 0
2, 177600, Note_on_c, 0, 74, 95
2, 177600, Note_on_c, 0, 72, 95
2, 177790, Note_on_c, 0, 72, 0
2, 177840, Note_on_c, 0, 71, 95
2, 177982, Note_on_c, 0, 74, 0
2, 178030, Note_on_c, 0, 71, 0
2, 178320, Note_on_c, 0, 71, 95
2, 178320, Note_on_c, 0, 74, 95
2, 178320, Note_on_c, 0, 80, 95
2, 178750, Note_on_c, 0, 80, 0
2, 178750, Note_on_c, 0, 74, 0
2, 178750, Note_on_c, 0, 71, 0
2, 178800, Note_on_c, 0, 79, 95
2, 178800, Note_on_c, 0, 75, 95
2, 178800, Note_on_c, 0, 72, 95
2, 178990, Note_on_c, 0, 72, 0
2, 178990, Note_on_c, 0, 75, 0
2, 178990, Note_on_c, 0, 79, 0
2, 179220, Note_on_c, 0, 67, 95
2, 179267, Note_on_c, 0, 67, 0
2, 179280, Note_on_c, 0, 74, 95
2, 179422, Note_on_c, 0, 74, 0
2, 179460, Note_on_c, 0, 77, 95
2, 179507, Note_on_c, 0, 77, 0
2, 179520, Note_on_c, 0, 75, 95
2, 179542, Note_on_c, 0, 75, 0
2, 179550, Note_on_c, 0, 77, 95
2, 179572, Note_on_c, 0, 77, 0
2, 179580, Note_on_c, 0, 74, 95
2, 179627, Note_on_c, 0, 74, 0
2, 179640, Note_on_c, 0, 75, 95
2, 179687, Note_on_c, 0, 75, 0
2, 179700, Note_on_c, 0, 77, 95
2, 179747, Note_on_c, 0, 77, 0
2, 179760, Note_on_c, 0, 79, 95
2, 179950, Note_on_c, 0, 79, 0
2, 180240, Note_on_c, 0, 71, 95
2, 180240, Note_on_c, 0, 74, 95
2, 180240, Note_on_c, 0, 80, 95
2, 180670, Note_on_c, 0, 80, 0
2, 180670, Note_on_c, 0, 74, 0
2, 180670, Note_on_c, 0, 71, 0
2, 180720, Note_on_c, 0, 79, 95
2, 180720, Note_on_c, 0, 75, 95
2, 180720, Note_on_c, 0, 72, 95
2, 180910, Note_on_c, 0, 72, 0
2, 180910, Note_on_c, 0, 75, 0
2, 180910, Note_on_c, 0, 79, 0
2, 181140, Note_on_c, 0, 77, 95
2, 181187, Note_on_c, 0, 77, 0
2, 181200, Note_on_c, 0, 83, 95
2, 181342, Note_on_c, 0, 83, 0
2, 181380, Note_on_c, 0, 86, 95
2, 181427, Note_on_c, 0, 86, 0
2, 181440, Note_on_c, 0, 87, 84
2, 181535, Note_on_c, 0, 87, 0
2, 181560, Note_on_c, 0, 79, 65
2, 181655, Note_on_c, 0, 79, 0
2, 181680, Note_on_c, 0, 84, 65
2, 181775, Note_on_c, 0, 84, 0
2, 181800, Note_on_c, 0, 79, 65
2, 181895, Note_on_c, 0, 79, 0
2, 182040, Note_on_c, 0, 77, 65
2, 182135, Note_on_c, 0, 77, 0
2, 182160, Note_on_c, 0, 80, 65
2, 182255, Note_on_c, 0, 80, 0
2, 182280, Note_on_c, 0, 74, 65
2, 182375, Note_on_c, 0, 74, 0
2, 182520, Note_on_c, 0, 75, 65
2, 182615, Note_on_c, 0, 75, 0
2, 182640, Note_on_c, 0, 79, 65
2, 182735, Note_on_c, 0, 79, 0
2, 182760, Note_on_c, 0, 72, 65
2, 182855, Note_on_c, 0, 72, 0
2, 183000, Note_on_c, 0, 74, 75
2, 183095, Note_on_c, 0, 74, 0
2, 183120, Note_on_c, 0, 77, 85
2, 183215, Note_on_c, 0, 77, 0
2, 183240, Note_on_c, 0, 71, 86
2, 183335, Note_on_c, 0, 71, 0
2, 183360, Note_on_c, 0, 72, 95
2, 183742, Note_on_c, 0, 72, 0
2, 183840, Note_on_c, 0, 75, 95
2, 183840, Note_on_c, 0, 60, 95
2, 184030, Note_on_c, 0, 75, 0
2, 184080, Note_on_c, 0, 79, 95
2, 184222, Note_on_c, 0, 60, 0
2, 184270, Note_on_c, 0, 79, 0
2, 184320, Note_on_c, 0, 63, 95
2, 184320, Note_on_c, 0, 84, 95
2, 184510, Note_on_c, 0, 84, 0
2, 184510, Note_on_c, 0, 63, 0
2, 184560, Note_on_c, 0, 67, 95
2, 184560, Note_on_c, 0, 87, 95
2, 184750, Note_on_c, 0, 87, 0
2, 184750, Note_on_c, 0, 67, 0
2, 184800, Note_on_c, 0, 72, 95
2, 184800, Note_on_c, 0, 80, 95
2, 184990, Note_on_c, 0, 80, 0
2, 184990, Note_on_c, 0, 72, 0
2, 185040, Note_on_c, 0, 75, 95
2, 185040, Note_on_c, 0, 84, 95
2, 185230, Note_on_c, 0, 84, 0
2, 185230, Note_on_c, 0, 75, 0
2, 185280, Note_on_c, 0, 68, 95
2, 185280, Note_on_c, 0, 77, 95
2, 185470, Note_on_c, 0, 77, 0
2, 185470, Note_on_c, 0, 68, 0
2, 185520, Note_on_c, 0, 72, 95
2, 185520, Note_on_c, 0, 80, 95
2, 185710, Note_on_c, 0, 80, 0
2, 185710, Note_on_c, 0, 72, 0
2, 185760, Note_on_c, 0, 65, 82
2, 185760, Note_on_c, 0, 73, 84
2, 185950, Note_on_c, 0, 73, 0
2, 185950, Note_on_c, 0, 65, 0
2, 186000, Note_on_c, 0, 68, 75
2, 186000, Note_on_c, 0, 77, 76
2, 186190, Note_on_c, 0, 77, 0
2, 186190, Note_on_c, 0, 68, 0
2, 186240, Note_on_c, 0, 72, 65
2, 186360, Note_on_c, 0, 66, 65
2, 186455, Note_on_c, 0, 66, 0
2, 186480, Note_on_c, 0, 63, 65
2, 186575, Note_on_c, 0, 63, 0
2, 186600, Note_on_c, 0, 66, 65
2, 186695, Note_on_c, 0, 66, 0
2, 186815, Note_on_c, 0, 72, 0
2, 186840, Note_on_c, 0, 66, 65
2, 186935, Note_on_c, 0, 66, 0
2, 186960, Note_on_c, 0, 63, 65
2, 186960, Note_on_c, 0, 80, 65
2, 187055, Note_on_c, 0, 63, 0
2, 187080, Note_on_c, 0, 66, 65
2, 187150, Note_on_c, 0, 80, 0
2, 187175, Note_on_c, 0, 66, 0
2, 187200, Note_on_c, 0, 80, 65
2, 187320, Note_on_c, 0, 65, 65
2, 187415, Note_on_c, 0, 65, 0
2, 187440, Note_on_c, 0, 61, 65
2, 187487, Note_on_c, 0, 80, 0
2, 187535, Note_on_c, 0, 61, 0
2, 187560, Note_on_c, 0, 65, 65
2, 187560, Note_on_c, 0, 77, 65
2, 187655, Note_on_c, 0, 77, 0
2, 187655, Note_on_c, 0, 65, 0
2, 187680, Note_on_c, 0, 73, 65
2, 187800, Note_on_c, 0, 65, 65
2, 187870, Note_on_c, 0, 73, 0
2, 187895, Note_on_c, 0, 65, 0
2, 187920, Note_on_c, 0, 61, 65
2, 188015, Note_on_c, 0, 61, 0
2, 188040, Note_on_c, 0, 65, 65
2, 188135, Note_on_c, 0, 65, 0
2, 188160, Note_on_c, 0, 72, 65
2, 188280, Note_on_c, 0, 66, 65
2, 188375, Note_on_c, 0, 66, 0
2, 188400, Note_on_c, 0, 63, 65
2, 188495, Note_on_c, 0, 63, 0
2, 188520, Note_on_c, 0, 66, 65
2, 188542, Note_on_c, 0, 72, 0
2, 188615, Note_on_c, 0, 66, 0
2, 188640, Note_on_c, 0, 72, 65
2, 188735, Note_on_c, 0, 72, 0
2, 188760, Note_on_c, 0, 66, 65
2, 188760, Note_on_c, 0, 80, 65
2, 188855, Note_on_c, 0, 80, 0
2, 188855, Note_on_c, 0, 66, 0
2, 188880, Note_on_c, 0, 63, 65
2, 188880, Note_on_c, 0, 82, 65
2, 188975, Note_on_c, 0, 82, 0
2, 188975, Note_on_c, 0, 63, 0
2, 189000, Note_on_c, 0, 66, 65
2, 189000, Note_on_c, 0, 80, 65
2, 189095, Note_on_c, 0, 80, 0
2, 189095, Note_on_c, 0, 66, 0
2, 189120, Note_on_c, 0, 80, 65
2, 189240, Note_on_c, 0, 65, 65
2, 189335, Note_on_c, 0, 65, 0
2, 189360, Note_on_c, 0, 61, 65
2, 189407, Note_on_c, 0, 80, 0
2, 189455, Note_on_c, 0, 61, 0
2, 189480, Note_on_c, 0, 65, 65
2, 189480, Note_on_c, 0, 77, 65
2, 189575, Note_on_c, 0, 77, 0
2, 189575, Note_on_c, 0, 65, 0
2, 189600, Note_on_c, 0, 73, 65
2, 189720, Note_on_c, 0, 65, 65
2, 189790, Note_on_c, 0, 73, 0
2, 189815, Note_on_c, 0, 65, 0
2, 189840, Note_on_c, 0, 61, 65
2, 189840, Note_on_c, 0, 73, 65
2, 189935, Note_on_c, 0, 61, 0
2, 189960, Note_on_c, 0, 65, 65
2, 190030, Note_on_c, 0, 73, 0
2, 190055, Note_on_c, 0, 65, 0
2, 190080, Note_on_c, 0, 73, 65
2, 190080, Note_on_c, 0, 60, 65
2, 190080, Note_on_c, 0, 66, 65
2, 190080, Note_on_c, 0, 63, 65
2, 190175, Note_on_c, 0, 73, 0
2, 190200, Note_on_c, 0, 71, 65
2, 190295, Note_on_c, 0, 71, 0
2, 190320, Note_on_c, 0, 72, 65
2, 190415, Note_on_c, 0, 72, 0
2, 190440, Note_on_c, 0, 74, 65
2, 190535, Note_on_c, 0, 74, 0
2, 190560, Note_on_c, 0, 77, 65
2, 190655, Note_on_c, 0, 77, 0
2, 190680, Note_on_c, 0, 75, 65
2, 190775, Note_on_c, 0, 75, 0
2, 190800, Note_on_c, 0, 74, 65
2, 190847, Note_on_c, 0, 63, 0
2, 190847, Note_on_c, 0, 60, 0
2, 190847, Note_on_c, 0, 66, 0
2, 190895, Note_on_c, 0, 74, 0
2, 190920, Note_on_c, 0, 72, 65
2, 191015, Note_on_c, 0, 72, 0
2, 191040, Note_on_c, 0, 79, 65
2, 191230, Note_on_c, 0, 79, 0
2, 191520, Note_on_c, 0, 60, 65
2, 191710, Note_on_c, 0, 60, 0
2, 191760, Note_on_c, 0, 72, 65
2, 191855, Note_on_c, 0, 72, 0
2, 191880, Note_on_c, 0, 72, 65
2, 191975, Note_on_c, 0, 72, 0
2, 192000, Note_on_c, 0, 79, 65
2, 192190, Note_on_c, 0, 79, 0
2, 192480, Note_on_c, 0, 60, 65
2, 192670, Note_on_c, 0, 60, 0
2, 192720, Note_on_c, 0, 72, 65
2, 192815, Note_on_c, 0, 72, 0
2, 192840, Note_on_c, 0, 72, 65
2, 192935, Note_on_c, 0, 72, 0
2, 192960, Note_on_c, 0, 79, 65
2, 193150, Note_on_c, 0, 79, 0
2, 193200, Note_on_c, 0, 60, 65
2, 193200, Note_on_c, 0, 72, 65
2, 193295, Note_on_c, 0, 72, 0
2, 193320, Note_on_c, 0, 72, 65
2, 193390, Note_on_c, 0, 60, 0
2, 193415, Note_on_c, 0, 72, 0
2, 193440, Note_on_c, 0, 79, 65
2, 193630, Note_on_c, 0, 79, 0
2, 193680, Note_on_c, 0, 72, 65
2, 193680, Note_on_c, 0, 60, 65
2, 193775, Note_on_c, 0, 72, 0
2, 193800, Note_on_c, 0, 72, 65
2, 193870, Note_on_c, 0, 60, 0
2, 193895, Note_on_c, 0, 72, 0
2, 193920, Note_on_c, 0, 79, 65
2, 194110, Note_on_c, 0, 79, 0
2, 194160, Note_on_c, 0, 79, 65
2, 194350, Note_on_c, 0, 79, 0
2, 194400, Note_on_c, 0, 79, 65
2, 194590, Note_on_c, 0, 79, 0
2, 194640, Note_on_c, 0, 79, 65
2, 194830, Note_on_c, 0, 79, 0
2, 194880, Note_on_c, 0, 79, 65
2, 194975, Note_on_c, 0, 79, 0
2, 195000, Note_on_c, 0, 78, 65
2, 195095, Note_on_c, 0, 78, 0
2, 195120, Note_on_c, 0, 77, 65
2, 195215, Note_on_c, 0, 77, 0
2, 195240, Note_on_c, 0, 74, 65
2, 195335, Note_on_c, 0, 74, 0
2, 195360, Note_on_c, 0, 79, 65
2, 195455, Note_on_c, 0, 79, 0
2, 195480, Note_on_c, 0, 78, 65
2, 195575, Note_on_c, 0, 78, 0
2, 195600, Note_on_c, 0, 77, 65
2, 195695, Note_on_c, 0, 77, 0
2, 195720, Note_on_c, 0, 74, 65
2, 195815, Note_on_c, 0, 74, 0
2, 195840, Note_on_c, 0, 72, 65
2, 195840, Note_on_c, 0, 63, 65
2, 195935, Note_on_c, 0, 63, 0
2, 195960, Note_on_c, 0, 67, 65
2, 196055, Note_on_c, 0, 67, 0
2, 196080, Note_on_c, 0, 63, 65
2, 196127, Note_on_c, 0, 72, 0
2, 196175, Note_on_c, 0, 63, 0
2, 196200, Note_on_c, 0, 67, 65
2, 196200, Note_on_c, 0, 74, 65
2, 196247, Note_on_c, 0, 74, 0
2, 196260, Note_on_c, 0, 72, 65
2, 196295, Note_on_c, 0, 67, 0
2, 196307, Note_on_c, 0, 72, 0
2, 196320, Note_on_c, 0, 62, 65
2, 196320, Note_on_c, 0, 71, 65
2, 196415, Note_on_c, 0, 62, 0
2, 196440, Note_on_c, 0, 67, 65
2, 196510, Note_on_c, 0, 71, 0
2, 196535, Note_on_c, 0, 67, 0
2, 196560, Note_on_c, 0, 63, 65
2, 196560, Note_on_c, 0, 72, 65
2, 196655, Note_on_c, 0, 63, 0
2, 196680, Note_on_c, 0, 67, 65
2, 196750, Note_on_c, 0, 72, 0
2, 196775, Note_on_c, 0, 67, 0
2, 196800, Note_on_c, 0, 64, 65
2, 196800, Note_on_c, 0, 73, 65
2, 196895, Note_on_c, 0, 64, 0
2, 196920, Note_on_c, 0, 67, 65
2, 197015, Note_on_c, 0, 67, 0
2, 197040, Note_on_c, 0, 64, 65
2, 197135, Note_on_c, 0, 64, 0
2, 197160, Note_on_c, 0, 67, 65
2, 197182, Note_on_c, 0, 73, 0
2, 197255, Note_on_c, 0, 67, 0
2, 197280, Note_on_c, 0, 65, 65
2, 197280, Note_on_c, 0, 74, 65
2, 197375, Note_on_c, 0, 65, 0
2, 197400, Note_on_c, 0, 67, 65
2, 197470, Note_on_c, 0, 74, 0
2, 197495, Note_on_c, 0, 67, 0
2, 197520, Note_on_c, 0, 65, 65
2, 197615, Note_on_c, 0, 65, 0
2, 197640, Note_on_c, 0, 67, 65
2, 197735, Note_on_c, 0, 67, 0
2, 197760, Note_on_c, 0, 62, 65
2, 197855, Note_on_c, 0, 62, 0
2, 197880, Note_on_c, 0, 67, 65
2, 197975, Note_on_c, 0, 67, 0
2, 198000, Note_on_c, 0, 62, 65
2, 198095, Note_on_c, 0, 62, 0
2, 198120, Note_on_c, 0, 67, 65
2, 198215, Note_on_c, 0, 67, 0
2, 198240, Note_on_c, 0, 62, 65
2, 198335, Note_on_c, 0, 62, 0
2, 198360, Note_on_c, 0, 67, 65
2, 198455, Note_on_c, 0, 67, 0
2, 198480, Note_on_c, 0, 63, 65
2, 198575, Note_on_c, 0, 63, 0
2, 198600, Note_on_c, 0, 67, 65
2, 198695, Note_on_c, 0, 67, 0
2, 198720, Note_on_c, 0, 65, 65
2, 198815, Note_on_c, 0, 65, 0
2, 198840, Note_on_c, 0, 67, 65
2, 198935, Note_on_c, 0, 67, 0
2, 198960, Note_on_c, 0, 62, 65
2, 199055, Note_on_c, 0, 62, 0
2, 199080, Note_on_c, 0, 67, 65
2, 199175, Note_on_c, 0, 67, 0
2, 199200, Note_on_c, 0, 65, 65
2, 199295, Note_on_c, 0, 65, 0
2, 199320, Note_on_c, 0, 67, 65
2, 199415, Note_on_c, 0, 67, 0
2, 199440, Note_on_c, 0, 62, 65
2, 199535, Note_on_c, 0, 62, 0
2, 199560, Note_on_c, 0, 67, 65
2, 199655, Note_on_c, 0, 67, 0
2, 199680, Note_on_c, 0, 74, 65
2, 199800, Note_on_c, 0, 67, 65
2, 199895, Note_on_c, 0, 67, 0
2, 199967, Note_on_c, 0, 74, 0
2, 200040, Note_on_c, 0, 75, 65
2, 200040, Note_on_c, 0, 67, 65
2, 200062, Note_on_c, 0, 75, 0
2, 200070, Note_on_c, 0, 74, 65
2, 200092, Note_on_c, 0, 74, 0
2, 200100, Note_on_c, 0, 72, 65
2, 200122, Note_on_c, 0, 72, 0
2, 200130, Note_on_c, 0, 74, 65
2, 200135, Note_on_c, 0, 67, 0
2, 200152, Note_on_c, 0, 74, 0
2, 200160, Note_on_c, 0, 60, 65
2, 200160, Note_on_c, 0, 75, 65
2, 200255, Note_on_c, 0, 60, 0
2, 200280, Note_on_c, 0, 67, 65
2, 200350, Note_on_c, 0, 75, 0
2, 200375, Note_on_c, 0, 67, 0
2, 200400, Note_on_c, 0, 62, 65
2, 200400, Note_on_c, 0, 77, 65
2, 200495, Note_on_c, 0, 62, 0
2, 200520, Note_on_c, 0, 67, 65
2, 200590, Note_on_c, 0, 77, 0
2, 200615, Note_on_c, 0, 67, 0
2, 200640, Note_on_c, 0, 62, 65
2, 200640, Note_on_c, 0, 78, 65
2, 200735, Note_on_c, 0, 62, 0
2, 200760, Note_on_c, 0, 67, 65
2, 200855, Note_on_c, 0, 67, 0
2, 200880, Note_on_c, 0, 62, 65
2, 200975, Note_on_c, 0, 62, 0
2, 201000, Note_on_c, 0, 67, 65
2, 201022, Note_on_c, 0, 78, 0
2, 201095, Note_on_c, 0, 67, 0
2, 201120, Note_on_c, 0, 63, 65
2, 201120, Note_on_c, 0, 79, 65
2, 201215, Note_on_c, 0, 63, 0
2, 201240, Note_on_c, 0, 67, 65
2, 201310, Note_on_c, 0, 79, 0
2, 201335, Note_on_c, 0, 67, 0
2, 201360, Note_on_c, 0, 63, 65
2, 201455, Note_on_c, 0, 63, 0
2, 201480, Note_on_c, 0, 67, 65
2, 201575, Note_on_c, 0, 67, 0
2, 201600, Note_on_c, 0, 63, 65
2, 201695, Note_on_c, 0, 63, 0
2, 201720, Note_on_c, 0, 67, 65
2, 201815, Note_on_c, 0, 67, 0
2, 201840, Note_on_c, 0, 60, 65
2, 201935, Note_on_c, 0, 60, 0
2, 201960, Note_on_c, 0, 67, 65
2, 202055, Note_on_c, 0, 67, 0
2, 202080, Note_on_c, 0, 63, 65
2, 202175, Note_on_c, 0, 63, 0
2, 202200, Note_on_c, 0, 67, 65
2, 202295, Note_on_c, 0, 67, 0
2, 202320, Note_on_c, 0, 60, 65
2, 202415, Note_on_c, 0, 60, 0
2, 202440, Note_on_c, 0, 67, 65
2, 202535, Note_on_c, 0, 67, 0
2, 202560, Note_on_c, 0, 65, 65
2, 202655, Note_on_c, 0, 65, 0
2, 202680, Note_on_c, 0, 67, 65
2, 202775, Note_on_c, 0, 67, 0
2, 202800, Note_on_c, 0, 62, 65
2, 202895, Note_on_c, 0, 62, 0
2, 202920, Note_on_c, 0, 67, 65
2, 203015, Note_on_c, 0, 67, 0
2, 203040, Note_on_c, 0, 63, 78
2, 203135, Note_on_c, 0, 63, 0
2, 203160, Note_on_c, 0, 67, 76
2, 203255, Note_on_c, 0, 67, 0
2, 203280, Note_on_c, 0, 60, 85
2, 203375, Note_on_c, 0, 60, 0
2, 203400, Note_on_c, 0, 67, 87
2, 203495, Note_on_c, 0, 67, 0
2, 203520, Note_on_c, 0, 63, 95
2, 203520, Note_on_c, 0, 72, 95
2, 203520, Note_on_c, 0, 84, 95
2, 203520, Note_on_c, 0, 60, 95
2, 203615, Note_on_c, 0, 60, 0
2, 203615, Note_on_c, 0, 63, 0
2, 203640, Note_on_c, 0, 67, 95
2, 203735, Note_on_c, 0, 67, 0
2, 203760, Note_on_c, 0, 60, 95
2, 203760, Note_on_c, 0, 63, 95
2, 203855, Note_on_c, 0, 63, 0
2, 203855, Note_on_c, 0, 60, 0
2, 203880, Note_on_c, 0, 67, 95
2, 203902, Note_on_c, 0, 84, 0
2, 203902, Note_on_c, 0, 72, 0
2, 203975, Note_on_c, 0, 67, 0
2, 204000, Note_on_c, 0, 73, 95
2, 204000, Note_on_c, 0, 85, 95
2, 204000, Note_on_c, 0, 64, 95
2, 204095, Note_on_c, 0, 64, 0
2, 204120, Note_on_c, 0, 67, 95
2, 204215, Note_on_c, 0, 67, 0
2, 204240, Note_on_c, 0, 64, 95
2, 204335, Note_on_c, 0, 64, 0
2, 204360, Note_on_c, 0, 67, 95
2, 204382, Note_on_c, 0, 85, 0
2, 204382, Note_on_c, 0, 73, 0
2, 204455, Note_on_c, 0, 67, 0
2, 204480, Note_on_c, 0, 84, 95
2, 204480, Note_on_c, 0, 60, 95
2, 204480, Note_on_c, 0, 72, 95
2, 204575, Note_on_c, 0, 60, 0
2, 204600, Note_on_c, 0, 65, 95
2, 204670, Note_on_c, 0, 72, 0
2, 204670, Note_on_c, 0, 84, 0
2, 204695, Note_on_c, 0, 65, 0
2, 204720, Note_on_c, 0, 87, 95
2, 204720, Note_on_c, 0, 66, 95
2, 204720, Note_on_c, 0, 75, 95
2, 204720, Note_on_c, 0, 60, 95
2, 204910, Note_on_c, 0, 60, 0
2, 204910, Note_on_c, 0, 87, 0
2, 204910, Note_on_c, 0, 66, 0
2, 204910, Note_on_c, 0, 75, 0
2, 205080, Note_on_c, 0, 87, 70
2, 205175, Note_on_c, 0, 87, 0
2, 205200, Note_on_c, 0, 86, 66
2, 205295, Note_on_c, 0, 86, 0
2, 205320, Note_on_c, 0, 84, 65
2, 205415, Note_on_c, 0, 84, 0
2, 205440, Note_on_c, 0, 83, 65
2, 205535, Note_on_c, 0, 83, 0
2, 205560, Note_on_c, 0, 86, 65
2, 205655, Note_on_c, 0, 86, 0
2, 205680, Note_on_c, 0, 77, 65
2, 205870, Note_on_c, 0, 77, 0
2, 205920, Note_on_c, 0, 62, 65
2, 206040, Note_on_c, 0, 80, 65
2, 206110, Note_on_c, 0, 62, 0
2, 206135, Note_on_c, 0, 80, 0
2, 206160, Note_on_c, 0, 79, 65
2, 206255, Note_on_c, 0, 79, 0
2, 206280, Note_on_c, 0, 77, 65
2, 206375, Note_on_c, 0, 77, 0
2, 206400, Note_on_c, 0, 76, 65
2, 206495, Note_on_c, 0, 76, 0
2, 206520, Note_on_c, 0, 79, 65
2, 206615, Note_on_c, 0, 79, 0
2, 206640, Note_on_c, 0, 70, 65
2, 206830, Note_on_c, 0, 70, 0
2, 207000, Note_on_c, 0, 73, 65
2, 207095, Note_on_c, 0, 73, 0
2, 207120, Note_on_c, 0, 72, 65
2, 207215, Note_on_c, 0, 72, 0
2, 207240, Note_on_c, 0, 70, 65
2, 207335, Note_on_c, 0, 70, 0
2, 207360, Note_on_c, 0, 68, 65
2, 207455, Note_on_c, 0, 68, 0
2, 207480, Note_on_c, 0, 80, 65
2, 207575, Note_on_c, 0, 80, 0
2, 207600, Note_on_c, 0, 79, 65
2, 207695, Note_on_c, 0, 79, 0
2, 207720, Note_on_c, 0, 77, 65
2, 207815, Note_on_c, 0, 77, 0
2, 207840, Note_on_c, 0, 75, 65
2, 207935, Note_on_c, 0, 75, 0
2, 207960, Note_on_c, 0, 74, 65
2, 208055, Note_on_c, 0, 74, 0
2, 208080, Note_on_c, 0, 75, 65
2, 208175, Note_on_c, 0, 75, 0
2, 208200, Note_on_c, 0, 77, 65
2, 208295, Note_on_c, 0, 77, 0
2, 208320, Note_on_c, 0, 72, 65
2, 208560, Note_on_c, 0, 67, 65
2, 208560, Note_on_c, 0, 63, 65
2, 208702, Note_on_c, 0, 72, 0
2, 208750, Note_on_c, 0, 63, 0
2, 208750, Note_on_c, 0, 67, 0
2, 208800, Note_on_c, 0, 65, 75
2, 208800, Note_on_c, 0, 62, 75
2, 209040, Note_on_c, 0, 75, 86
2, 209040, Note_on_c, 0, 71, 85
2, 209135, Note_on_c, 0, 71, 0
2, 209135, Note_on_c, 0, 75, 0
2, 209160, Note_on_c, 0, 74, 86
2, 209182, Note_on_c, 0, 62, 0
2, 209182, Note_on_c, 0, 65, 0
2, 209255, Note_on_c, 0, 74, 0
2, 209280, Note_on_c, 0, 60, 95
2, 209280, Note_on_c, 0, 72, 95
2, 209662, Note_on_c, 0, 72, 0
2, 209662, Note_on_c, 0, 60, 0
2, 209760, Note_on_c, 0, 61, 95
2, 209760, Note_on_c, 0, 73, 95
2, 210142, Note_on_c, 0, 73, 0
2, 210142, Note_on_c, 0, 61, 0
2, 210240, Note_on_c, 0, 72, 95
2, 210240, Note_on_c, 0, 60, 95
2, 210430, Note_on_c, 0, 60, 0
2, 210430, Note_on_c, 0, 72, 0
2, 210480, Note_on_c, 0, 63, 95
2, 210480, Note_on_c, 0, 75, 95
2, 210670, Note_on_c, 0, 75, 0
2, 210670, Note_on_c, 0, 63, 0
2, 210840, Note_on_c, 0, 75, 76
2, 210935, Note_on_c, 0, 75, 0
2, 210960, Note_on_c, 0, 74, 71
2, 211055, Note_on_c, 0, 74, 0
2, 211080, Note_on_c, 0, 72, 71
2, 211175, Note_on_c, 0, 72, 0
2, 211200, Note_on_c, 0, 71, 65
2, 211295, Note_on_c, 0, 71, 0
2, 211320, Note_on_c, 0, 74, 65
2, 211415, Note_on_c, 0, 74, 0
2, 211440, Note_on_c, 0, 65, 65
2, 211630, Note_on_c, 0, 65, 0
2, 211800, Note_on_c, 0, 68, 65
2, 211895, Note_on_c, 0, 68, 0
2, 211920, Note_on_c, 0, 67, 65
2, 212015, Note_on_c, 0, 67, 0
2, 212040, Note_on_c, 0, 65, 65
2, 212135, Note_on_c, 0, 65, 0
2, 212160, Note_on_c, 0, 64, 65
2, 212255, Note_on_c, 0, 64, 0
2, 212280, Note_on_c, 0, 67, 65
2, 212375, Note_on_c, 0, 67, 0
2, 212760, Note_on_c, 0, 61, 77
2, 212855, Note_on_c, 0, 61, 0
2, 212880, Note_on_c, 0, 60, 85
2, 212975, Note_on_c, 0, 60, 0
2, 213200, Note_on_c, 0, 60, 95
2, 213262, Note_on_c, 0, 60, 0
2, 215280, Note_on_c, 0, 60, 95
2, 215342, Note_on_c, 0, 60, 0
2, 215440, Note_on_c, 0, 60, 95
2, 215502, Note_on_c, 0, 60, 0
2, 215520, Note_on_c, 0, 65, 95
2, 215582, Note_on_c, 0, 65, 0
2, 215600, Note_on_c, 0, 60, 95
2, 215662, Note_on_c, 0, 60, 0
2, 215680, Note_on_c, 0, 65, 95
2, 215742, Note_on_c, 0, 65, 0
2, 215760, Note_on_c, 0, 68, 95
2, 215822, Note_on_c, 0, 68, 0
2, 215840, Note_on_c, 0, 65, 95
2, 215902, Note_on_c, 0, 65, 0
2, 215920, Note_on_c, 0, 68, 95
2, 215982, Note_on_c, 0, 68, 0
2, 216000, Note_on_c, 0, 72, 95
2, 216062, Note_on_c, 0, 72, 0
2, 216080, Note_on_c, 0, 68, 95
2, 216142, Note_on_c, 0, 68, 0
2, 216160, Note_on_c, 0, 72, 95
2, 216222, Note_on_c, 0, 72, 0
2, 216240, Note_on_c, 0, 77, 95
2, 216302, Note_on_c, 0, 77, 0
2, 216320, Note_on_c, 0, 72, 95
2, 216382, Note_on_c, 0, 72, 0
2, 216400, Note_on_c, 0, 77, 95
2, 216462, Note_on_c, 0, 77, 0
2, 216480, Note_on_c, 0, 80, 85
2, 216542, Note_on_c, 0, 80, 0
2, 216560, Note_on_c, 0, 77, 85
2, 216622, Note_on_c, 0, 77, 0
2, 216640, Note_on_c, 0, 80, 85
2, 216702, Note_on_c, 0, 80, 0
2, 216720, Note_on_c, 0, 84, 75
2, 216815, Note_on_c, 0, 84, 0
2, 216840, Note_on_c, 0, 79, 75
2, 216935, Note_on_c, 0, 79, 0
2, 216960, Note_on_c, 0, 80, 65
2, 217055, Note_on_c, 0, 80, 0
2, 217080, Note_on_c, 0, 76, 65
2, 217175, Note_on_c, 0, 76, 0
2, 217200, Note_on_c, 0, 77, 65
2, 217295, Note_on_c, 0, 77, 0
2, 217320, Note_on_c, 0, 73, 65
2, 217415, Note_on_c, 0, 73, 0
2, 217440, Note_on_c, 0, 74, 65
2, 217535, Note_on_c, 0, 74, 0
2, 217560, Note_on_c, 0, 80, 65
2, 217655, Note_on_c, 0, 80, 0
2, 217680, Note_on_c, 0, 77, 65
2, 217775, Note_on_c, 0, 77, 0
2, 217800, Note_on_c, 0, 74, 65
2, 217895, Note_on_c, 0, 74, 0
2, 217920, Note_on_c, 0, 63, 65
2, 217920, Note_on_c, 0, 60, 65
2, 218040, Note_on_c, 0, 67, 65
2, 218110, Note_on_c, 0, 60, 0
2, 218110, Note_on_c, 0, 63, 0
2, 218135, Note_on_c, 0, 67, 0
2, 218160, Note_on_c, 0, 79, 65
2, 218255, Note_on_c, 0, 79, 0
2, 218280, Note_on_c, 0, 78, 65
2, 218375, Note_on_c, 0, 78, 0
2, 218400, Note_on_c, 0, 77, 65
2, 218495, Note_on_c, 0, 77, 0
2, 218520, Note_on_c, 0, 76, 65
2, 218615, Note_on_c, 0, 76, 0
2, 218640, Note_on_c, 0, 75, 65
2, 218735, Note_on_c, 0, 75, 0
2, 218760, Note_on_c, 0, 74, 65
2, 218855, Note_on_c, 0, 74, 0
2, 218880, Note_on_c, 0, 74, 65
2, 218880, Note_on_c, 0, 63, 65
2, 218975, Note_on_c, 0, 63, 0
2, 218975, Note_on_c, 0, 74, 0
2, 219000, Note_on_c, 0, 67, 65
2, 219000, Note_on_c, 0, 72, 65
2, 219095, Note_on_c, 0, 72, 0
2, 219095, Note_on_c, 0, 67, 0
2, 219120, Note_on_c, 0, 63, 65
2, 219120, Note_on_c, 0, 72, 65
2, 219215, Note_on_c, 0, 63, 0
2, 219240, Note_on_c, 0, 67, 65
2, 219335, Note_on_c, 0, 67, 0
2, 219360, Note_on_c, 0, 65, 65
2, 219455, Note_on_c, 0, 65, 0
2, 219480, Note_on_c, 0, 67, 65
2, 219502, Note_on_c, 0, 72, 0
2, 219575, Note_on_c, 0, 67, 0
2, 219600, Note_on_c, 0, 65, 65
2, 219600, Note_on_c, 0, 75, 65
2, 219600, Note_on_c, 0, 71, 65
2, 219695, Note_on_c, 0, 71, 0
2, 219695, Note_on_c, 0, 75, 0
2, 219695, Note_on_c, 0, 65, 0
2, 219720, Note_on_c, 0, 67, 65
2, 219720, Note_on_c, 0, 74, 65
2, 219815, Note_on_c, 0, 74, 0
2, 219815, Note_on_c, 0, 67, 0
2, 219840, Note_on_c, 0, 72, 65
2, 219840, Note_on_c, 0, 60, 65
2, 219935, Note_on_c, 0, 60, 0
2, 219960, Note_on_c, 0, 67, 65
2, 220030, Note_on_c, 0, 72, 0
2, 220055, Note_on_c, 0, 67, 0
2, 220080, Note_on_c, 0, 63, 65
2, 220175, Note_on_c, 0, 63, 0
2, 220200, Note_on_c, 0, 67, 65
2, 220200, Note_on_c, 0, 72, 65
2, 220295, Note_on_c, 0, 72, 0
2, 220295, Note_on_c, 0, 67, 0
2, 220320, Note_on_c, 0, 73, 65
2, 220415, Note_on_c, 0, 73, 0
2, 220440, Note_on_c, 0, 67, 65
2, 220440, Note_on_c, 0, 74, 65
2, 220535, Note_on_c, 0, 74, 0
2, 220535, Note_on_c, 0, 67, 0
2, 220560, Note_on_c, 0, 65, 65
2, 220655, Note_on_c, 0, 65, 0
2, 220680, Note_on_c, 0, 67, 65
2, 220680, Note_on_c, 0, 74, 65
2, 220775, Note_on_c, 0, 74, 0
2, 220775, Note_on_c, 0, 67, 0
2, 220800, Note_on_c, 0, 60, 65
2, 220800, Note_on_c, 0, 77, 65
2, 220895, Note_on_c, 0, 77, 0
2, 220895, Note_on_c, 0, 60, 0
2, 220920, Note_on_c, 0, 67, 65
2, 220920, Note_on_c, 0, 75, 65
2, 221015, Note_on_c, 0, 75, 0
2, 221015, Note_on_c, 0, 67, 0
2, 221040, Note_on_c, 0, 63, 65
2, 221135, Note_on_c, 0, 63, 0
2, 221160, Note_on_c, 0, 67, 65
2, 221160, Note_on_c, 0, 75, 65
2, 221255, Note_on_c, 0, 75, 0
2, 221255, Note_on_c, 0, 67, 0
2, 221280, Note_on_c, 0, 76, 65
2, 221375, Note_on_c, 0, 76, 0
2, 221400, Note_on_c, 0, 77, 65
2, 221495, Note_on_c, 0, 77, 0
2, 221640, Note_on_c, 0, 77, 65
2, 221735, Note_on_c, 0, 77, 0
2, 221760, Note_on_c, 0, 78, 65
2, 221855, Note_on_c, 0, 78, 0
2, 221880, Note_on_c, 0, 60, 65
2, 221880, Note_on_c, 0, 79, 65
2, 221975, Note_on_c, 0, 79, 0
2, 221975, Note_on_c, 0, 60, 0
2, 222120, Note_on_c, 0, 60, 65
2, 222120, Note_on_c, 0, 79, 65
2, 222215, Note_on_c, 0, 79, 0
2, 222215, Note_on_c, 0, 60, 0
2, 222240, Note_on_c, 0, 82, 65
2, 222335, Note_on_c, 0, 82, 0
2, 222360, Note_on_c, 0, 60, 65
2, 222360, Note_on_c, 0, 80, 65
2, 222455, Note_on_c, 0, 80, 0
2, 222455, Note_on_c, 0, 60, 0
2, 222600, Note_on_c, 0, 63, 65
2, 222600, Note_on_c, 0, 84, 65
2, 222695, Note_on_c, 0, 84, 0
2, 222695, Note_on_c, 0, 63, 0
2, 222720, Note_on_c, 0, 84, 65
2, 222815, Note_on_c, 0, 84, 0
2, 222840, Note_on_c, 0, 63, 65
2, 222840, Note_on_c, 0, 72, 65
2, 222935, Note_on_c, 0, 72, 0
2, 222935, Note_on_c, 0, 63, 0
2, 222960, Note_on_c, 0, 72, 65
2, 222960, Note_on_c, 0, 60, 65
2, 223055, Note_on_c, 0, 60, 0
2, 223080, Note_on_c, 0, 63, 65
2, 223175, Note_on_c, 0, 63, 0
2, 223320, Note_on_c, 0, 65, 65
2, 223342, Note_on_c, 0, 72, 0
2, 223415, Note_on_c, 0, 65, 0
2, 223440, Note_on_c, 0, 62, 65
2, 223440, Note_on_c, 0, 75, 65
2, 223535, Note_on_c, 0, 75, 0
2, 223535, Note_on_c, 0, 62, 0
2, 223560, Note_on_c, 0, 65, 65
2, 223560, Note_on_c, 0, 74, 65
2, 223655, Note_on_c, 0, 74, 0
2, 223655, Note_on_c, 0, 65, 0
2, 223680, Note_on_c, 0, 72, 95
2, 223775, Note_on_c, 0, 72, 0
2, 223800, Note_on_c, 0, 72, 95
2, 223895, Note_on_c, 0, 72, 0
2, 223920, Note_on_c, 0, 72, 95
2, 223942, Note_on_c, 0, 72, 0
2, 223950, Note_on_c, 0, 74, 95
2, 223972, Note_on_c, 0, 74, 0
2, 223980, Note_on_c, 0, 72, 95
2, 224002, Note_on_c, 0, 72, 0
2, 224010, Note_on_c, 0, 74, 95
2, 224032, Note_on_c, 0, 74, 0
2, 224040, Note_on_c, 0, 71, 95
2, 224087, Note_on_c, 0, 71, 0
2, 224100, Note_on_c, 0, 72, 95
2, 224147, Note_on_c, 0, 72, 0
2, 224160, Note_on_c, 0, 74, 95
2, 224255, Note_on_c, 0, 74, 0
2, 224280, Note_on_c, 0, 74, 95
2, 224375, Note_on_c, 0, 74, 0
2, 224400, Note_on_c, 0, 74, 95
2, 224422, Note_on_c, 0, 74, 0
2, 224430, Note_on_c, 0, 75, 95
2, 224452, Note_on_c, 0, 75, 0
2, 224460, Note_on_c, 0, 74, 95
2, 224482, Note_on_c, 0, 74, 0
2, 224490, Note_on_c, 0, 75, 95
2, 224512, Note_on_c, 0, 75, 0
2, 224520, Note_on_c, 0, 72, 95
2, 224567, Note_on_c, 0, 72, 0
2, 224580, Note_on_c, 0, 74, 95
2, 224627, Note_on_c, 0, 74, 0
2, 224640, Note_on_c, 0, 75, 95
2, 224735, Note_on_c, 0, 75, 0
2, 224760, Note_on_c, 0, 75, 95
2, 224855, Note_on_c, 0, 75, 0
2, 224880, Note_on_c, 0, 75, 95
2, 224902, Note_on_c, 0, 75, 0
2, 224910, Note_on_c, 0, 77, 95
2, 224932, Note_on_c, 0, 77, 0
2, 224940, Note_on_c, 0, 75, 95
2, 224962, Note_on_c, 0, 75, 0
2, 224970, Note_on_c, 0, 77, 95
2, 224992, Note_on_c, 0, 77, 0
2, 225000, Note_on_c, 0, 74, 95
2, 225047, Note_on_c, 0, 74, 0
2, 225060, Note_on_c, 0, 75, 95
2, 225107, Note_on_c, 0, 75, 0
2, 225120, Note_on_c, 0, 77, 95
2, 225215, Note_on_c, 0, 77, 0
2, 225240, Note_on_c, 0, 77, 95
2, 225335, Note_on_c, 0, 77, 0
2, 225360, Note_on_c, 0, 77, 95
2, 225382, Note_on_c, 0, 77, 0
2, 225390, Note_on_c, 0, 79, 95
2, 225412, Note_on_c, 0, 79, 0
2, 225420, Note_on_c, 0, 77, 95
2, 225442, Note_on_c, 0, 77, 0
2, 225450, Note_on_c, 0, 79, 95
2, 225472, Note_on_c, 0, 79, 0
2, 225480, Note_on_c, 0, 75, 95
2, 225527, Note_on_c, 0, 75, 0
2, 225540, Note_on_c, 0, 77, 95
2, 225587, Note_on_c, 0, 77, 0
2, 225600, Note_on_c, 0, 79, 95
2, 225600, Note_on_c, 0, 60, 95
2, 225662, Note_on_c, 0, 79, 0
2, 225680, Note_on_c, 0, 84, 95
2, 225742, Note_on_c, 0, 84, 0
2, 225760, Note_on_c, 0, 82, 95
2, 225822, Note_on_c, 0, 82, 0
2, 225840, Note_on_c, 0, 80, 95
2, 225902, Note_on_c, 0, 80, 0
2, 225920, Note_on_c, 0, 79, 95
2, 225982, Note_on_c, 0, 79, 0
2, 226000, Note_on_c, 0, 77, 95
2, 226062, Note_on_c, 0, 77, 0
2, 226080, Note_on_c, 0, 75, 95
2, 226142, Note_on_c, 0, 75, 0
2, 226160, Note_on_c, 0, 74, 95
2, 226175, Note_on_c, 0, 60, 0
2, 226222, Note_on_c, 0, 74, 0
2, 226240, Note_on_c, 0, 72, 95
2, 226302, Note_on_c, 0, 72, 0
2, 226320, Note_on_c, 0, 70, 95
2, 226382, Note_on_c, 0, 70, 0
2, 226400, Note_on_c, 0, 68, 95
2, 226462, Note_on_c, 0, 68, 0
2, 226480, Note_on_c, 0, 67, 95
2, 226542, Note_on_c, 0, 67, 0
2, 226560, Note_on_c, 0, 60, 95
2, 226560, Note_on_c, 0, 68, 95
2, 226750, Note_on_c, 0, 68, 0
2, 226750, Note_on_c, 0, 60, 0
2, 226800, Note_on_c, 0, 72, 95
2, 226800, Note_on_c, 0, 80, 95
2, 226800, Note_on_c, 0, 77, 95
2, 226990, Note_on_c, 0, 77, 0
2, 226990, Note_on_c, 0, 80, 0
2, 226990, Note_on_c, 0, 72, 0
2, 227040, Note_on_c, 0, 72, 95
2, 227040, Note_on_c, 0, 75, 95
2, 227040, Note_on_c, 0, 79, 95
2, 227230, Note_on_c, 0, 79, 0
2, 227230, Note_on_c, 0, 75, 0
2, 227230, Note_on_c, 0, 72, 0
2, 227280, Note_on_c, 0, 62, 95
2, 227280, Note_on_c, 0, 65, 95
2, 227280, Note_on_c, 0, 71, 95
2, 227470, Note_on_c, 0, 71, 0
2, 227470, Note_on_c, 0, 65, 0
2, 227470, Note_on_c, 0, 62, 0
2, 227520, Note_on_c, 0, 72, 95
2, 227520, Note_on_c, 0, 63, 95
2, 227710, Note_on_c, 0, 63, 0
2, 227710, Note_on_c, 0, 72, 0
2, 227760, Note_on_c, 0, 79, 95
2, 227822, Note_on_c, 0, 79, 0
2, 227840, Note_on_c, 0, 78, 95
2, 227902, Note_on_c, 0, 78, 0
2, 227920, Note_on_c, 0, 80, 95
2, 227982, Note_on_c, 0, 80, 0
2, 228000, Note_on_c, 0, 79, 95
2, 228062, Note_on_c, 0, 79, 0
2, 228080, Note_on_c, 0, 77, 95
2, 228142, Note_on_c, 0, 77, 0
2, 228160, Note_on_c, 0, 75, 95
2, 228222, Note_on_c, 0, 75, 0
2, 228240, Note_on_c, 0, 60, 95
2, 228240, Note_on_c, 0, 74, 95
2, 228240, Note_on_c, 0, 63, 95
2, 228302, Note_on_c, 0, 74, 0
2, 228320, Note_on_c, 0, 75, 95
2, 228382, Note_on_c, 0, 75, 0
2, 228400, Note_on_c, 0, 72, 95
2, 228430, Note_on_c, 0, 63, 0
2, 228430, Note_on_c, 0, 60, 0
2, 228462, Note_on_c, 0, 72, 0
2, 228480, Note_on_c, 0, 71, 95
2, 228480, Note_on_c, 0, 65, 95
2, 228480, Note_on_c, 0, 62, 95
2, 228670, Note_on_c, 0, 62, 0
2, 228670, Note_on_c, 0, 65, 0
2, 228670, Note_on_c, 0, 71, 0
2, 228720, Note_on_c, 0, 77, 95
2, 228782, Note_on_c, 0, 77, 0
2, 228800, Note_on_c, 0, 76, 95
2, 228862, Note_on_c, 0, 76, 0
2, 228880, Note_on_c, 0, 79, 95
2, 228942, Note_on_c, 0, 79, 0
2, 228960, Note_on_c, 0, 77, 95
2, 229022, Note_on_c, 0, 77, 0
2, 229040, Note_on_c, 0, 75, 95
2, 229102, Note_on_c, 0, 75, 0
2, 229120, Note_on_c, 0, 74, 95
2, 229182, Note_on_c, 0, 74, 0
2, 229200, Note_on_c, 0, 65, 95
2, 229200, Note_on_c, 0, 72, 95
2, 229200, Note_on_c, 0, 62, 95
2, 229262, Note_on_c, 0, 72, 0
2, 229280, Note_on_c, 0, 71, 95
2, 229342, Note_on_c, 0, 71, 0
2, 229360, Note_on_c, 0, 74, 95
2, 229390, Note_on_c, 0, 62, 0
2, 229390, Note_on_c, 0, 65, 0
2, 229422, Note_on_c, 0, 74, 0
2, 229440, Note_on_c, 0, 60, 95
2, 229440, Note_on_c, 0, 72, 95
2, 229440, Note_on_c, 0, 63, 95
2, 229630, Note_on_c, 0, 63, 0
2, 229630, Note_on_c, 0, 72, 0
2, 229630, Note_on_c, 0, 60, 0
2, 229680, Note_on_c, 0, 79, 95
2, 229742, Note_on_c, 0, 79, 0
2, 229760, Note_on_c, 0, 78, 95
2, 229822, Note_on_c, 0, 78, 0
2, 229840, Note_on_c, 0, 80, 95
2, 229902, Note_on_c, 0, 80, 0
2, 229920, Note_on_c, 0, 79, 95
2, 229982, Note_on_c, 0, 79, 0
2, 230000, Note_on_c, 0, 77, 95
2, 230062, Note_on_c, 0, 77, 0
2, 230080, Note_on_c, 0, 75, 95
2, 230142, Note_on_c, 0, 75, 0
2, 230160, Note_on_c, 0, 74, 95
2, 230222, Note_on_c, 0, 74, 0
2, 230240, Note_on_c, 0, 75, 95
2, 230302, Note_on_c, 0, 75, 0
2, 230320, Note_on_c, 0, 72, 95
2, 230382, Note_on_c, 0, 72, 0
2, 230400, Note_on_c, 0, 80, 95
2, 230462, Note_on_c, 0, 80, 0
2, 230480, Note_on_c, 0, 79, 95
2, 230542, Note_on_c, 0, 79, 0
2, 230560, Note_on_c, 0, 77, 95
2, 230622, Note_on_c, 0, 77, 0
2, 230640, Note_on_c, 0, 75, 95
2, 230702, Note_on_c, 0, 75, 0
2, 230720, Note_on_c, 0, 74, 95
2, 230782, Note_on_c, 0, 74, 0
2, 230800, Note_on_c, 0, 72, 95
2, 230862, Note_on_c, 0, 72, 0
2, 230880, Note_on_c, 0, 71, 95
2, 230942, Note_on_c, 0, 71, 0
2, 230960, Note_on_c, 0, 68, 95
2, 231022, Note_on_c, 0, 68, 0
2, 231040, Note_on_c, 0, 67, 95
2, 231102, Note_on_c, 0, 67, 0
2, 231120, Note_on_c, 0, 65, 95
2, 231182, Note_on_c, 0, 65, 0
2, 231200, Note_on_c, 0, 63, 95
2, 231262, Note_on_c, 0, 63, 0
2, 231280, Note_on_c, 0, 62, 95
2, 231342, Note_on_c, 0, 62, 0
2, 231360, Note_on_c, 0, 60, 80
2, 231742, Note_on_c, 0, 60, 0
2, 231840, Note_on_c, 0, 64, 80
2, 232030, Note_on_c, 0, 64, 0
2, 232080, Note_on_c, 0, 67, 80
2, 232270, Note_on_c, 0, 67, 0
2, 232320, Note_on_c, 0, 60, 95
2, 232320, Note_on_c, 0, 72, 95
2, 232510, Note_on_c, 0, 72, 0
2, 232510, Note_on_c, 0, 60, 0
2, 232560, Note_on_c, 0, 76, 95
2, 232560, Note_on_c, 0, 64, 95
2, 232750, Note_on_c, 0, 64, 0
2, 232750, Note_on_c, 0, 76, 0
2, 232980, Note_on_c, 0, 79, 95
2, 233027, Note_on_c, 0, 79, 0
2, 233040, Note_on_c, 0, 79, 95
2, 233062, Note_on_c, 0, 79, 0
2, 233070, Note_on_c, 0, 80, 95
2, 233092, Note_on_c, 0, 80, 0
2, 233100, Note_on_c, 0, 79, 95
2, 233122, Note_on_c, 0, 79, 0
2, 233130, Note_on_c, 0, 80, 95
2, 233152, Note_on_c, 0, 80, 0
2, 233160, Note_on_c, 0, 77, 95
2, 233207, Note_on_c, 0, 77, 0
2, 233220, Note_on_c, 0, 79, 95
2, 233267, Note_on_c, 0, 79, 0
2, 233280, Note_on_c, 0, 82, 95
2, 233342, Note_on_c, 0, 82, 0
2, 233360, Note_on_c, 0, 84, 95
2, 233422, Note_on_c, 0, 84, 0
2, 233440, Note_on_c, 0, 85, 95
2, 233502, Note_on_c, 0, 85, 0
2, 233520, Note_on_c, 0, 84, 95
2, 233582, Note_on_c, 0, 84, 0
2, 233600, Note_on_c, 0, 82, 95
2, 233662, Note_on_c, 0, 82, 0
2, 233680, Note_on_c, 0, 80, 95
2, 233742, Note_on_c, 0, 80, 0
2, 233760, Note_on_c, 0, 79, 95
2, 233822, Note_on_c, 0, 79, 0
2, 233840, Note_on_c, 0, 80, 95
2, 233902, Note_on_c, 0, 80, 0
2, 233920, Note_on_c, 0, 82, 95
2, 233982, Note_on_c, 0, 82, 0
2, 234000, Note_on_c, 0, 80, 95
2, 234062, Note_on_c, 0, 80, 0
2, 234080, Note_on_c, 0, 79, 95
2, 234142, Note_on_c, 0, 79, 0
2, 234160, Note_on_c, 0, 77, 95
2, 234222, Note_on_c, 0, 77, 0
2, 234240, Note_on_c, 0, 76, 95
2, 234302, Note_on_c, 0, 76, 0
2, 234320, Note_on_c, 0, 79, 95
2, 234382, Note_on_c, 0, 79, 0
2, 234400, Note_on_c, 0, 76, 95
2, 234462, Note_on_c, 0, 76, 0
2, 234480, Note_on_c, 0, 61, 95
2, 234480, Note_on_c, 0, 73, 95
2, 234542, Note_on_c, 0, 73, 0
2, 234560, Note_on_c, 0, 76, 95
2, 234622, Note_on_c, 0, 76, 0
2, 234640, Note_on_c, 0, 73, 95
2, 234670, Note_on_c, 0, 61, 0
2, 234702, Note_on_c, 0, 73, 0
2, 234720, Note_on_c, 0, 70, 84
2, 234782, Note_on_c, 0, 70, 0
2, 234800, Note_on_c, 0, 73, 83
2, 234862, Note_on_c, 0, 73, 0
2, 234880, Note_on_c, 0, 70, 84
2, 234942, Note_on_c, 0, 70, 0
2, 234960, Note_on_c, 0, 67, 75
2, 235022, Note_on_c, 0, 67, 0
2, 235040, Note_on_c, 0, 70, 73
2, 235102, Note_on_c, 0, 70, 0
2, 235120, Note_on_c, 0, 67, 75
2, 235182, Note_on_c, 0, 67, 0
2, 235200, Note_on_c, 0, 68, 65
2, 235320, Note_on_c, 0, 60, 65
2, 235415, Note_on_c, 0, 60, 0
2, 235487, Note_on_c, 0, 68, 0
2, 235560, Note_on_c, 0, 70, 65
2, 235560, Note_on_c, 0, 60, 65
2, 235582, Note_on_c, 0, 70, 0
2, 235590, Note_on_c, 0, 68, 65
2, 235612, Note_on_c, 0, 68, 0
2, 235620, Note_on_c, 0, 67, 65
2, 235642, Note_on_c, 0, 67, 0
2, 235650, Note_on_c, 0, 68, 65
2, 235655, Note_on_c, 0, 60, 0
2, 235672, Note_on_c, 0, 68, 0
2, 235680, Note_on_c, 0, 70, 65
2, 235800, Note_on_c, 0, 60, 65
2, 235870, Note_on_c, 0, 70, 0
2, 235895, Note_on_c, 0, 60, 0
2, 235920, Note_on_c, 0, 64, 65
2, 236040, Note_on_c, 0, 60, 65
2, 236110, Note_on_c, 0, 64, 0
2, 236135, Note_on_c, 0, 60, 0
2, 236160, Note_on_c, 0, 65, 65
2, 236255, Note_on_c, 0, 65, 0
2, 236280, Note_on_c, 0, 60, 65
2, 236280, Note_on_c, 0, 68, 65
2, 236375, Note_on_c, 0, 68, 0
2, 236375, Note_on_c, 0, 60, 0
2, 236400, Note_on_c, 0, 72, 65
2, 236520, Note_on_c, 0, 60, 65
2, 236615, Note_on_c, 0, 60, 0
2, 236687, Note_on_c, 0, 72, 0
2, 236760, Note_on_c, 0, 71, 65
2, 236760, Note_on_c, 0, 60, 65
2, 236855, Note_on_c, 0, 60, 0
2, 236855, Note_on_c, 0, 71, 0
2, 236880, Note_on_c, 0, 70, 65
2, 236975, Note_on_c, 0, 70, 0
2, 237000, Note_on_c, 0, 60, 65
2, 237000, Note_on_c, 0, 67, 65
2, 237095, Note_on_c, 0, 67, 0
2, 237095, Note_on_c, 0, 60, 0
2, 237120, Note_on_c, 0, 68, 65
2, 237240, Note_on_c, 0, 60, 65
2, 237335, Note_on_c, 0, 60, 0
2, 237407, Note_on_c, 0, 68, 0
2, 237480, Note_on_c, 0, 70, 65
2, 237480, Note_on_c, 0, 60, 65
2, 237507, Note_on_c, 0, 70, 0
2, 237510, Note_on_c, 0, 68, 65
2, 237537, Note_on_c, 0, 68, 0
2, 237540, Note_on_c, 0, 67, 65
2, 237567, Note_on_c, 0, 67, 0
2, 237570, Note_on_c, 0, 68, 65
2, 237575, Note_on_c, 0, 60, 0
2, 237597, Note_on_c, 0, 68, 0
2, 237600, Note_on_c, 0, 70, 65
2, 237720, Note_on_c, 0, 60, 65
2, 237790, Note_on_c, 0, 70, 0
2, 237815, Note_on_c, 0, 60, 0
2, 237840, Note_on_c, 0, 64, 65
2, 237960, Note_on_c, 0, 60, 65
2, 238030, Note_on_c, 0, 64, 0
2, 238055, Note_on_c, 0, 60, 0
2, 238080, Note_on_c, 0, 65, 65
2, 238175, Note_on_c, 0, 65, 0
2, 238200, Note_on_c, 0, 60, 65
2, 238200, Note_on_c, 0, 77, 65
2, 238295, Note_on_c, 0, 77, 0
2, 238295, Note_on_c, 0, 60, 0
2, 238320, Note_on_c, 0, 75, 65
2, 238415, Note_on_c, 0, 75, 0
2, 238440, Note_on_c, 0, 60, 65
2, 238440, Note_on_c, 0, 73, 65
2, 238535, Note_on_c, 0, 73, 0
2, 238535, Note_on_c, 0, 60, 0
2, 238560, Note_on_c, 0, 72, 76
2, 238655, Note_on_c, 0, 72, 0
2, 238680, Note_on_c, 0, 60, 75
2, 238680, Note_on_c, 0, 71, 76
2, 238775, Note_on_c, 0, 71, 0
2, 238775, Note_on_c, 0, 60, 0
2, 238800, Note_on_c, 0, 70, 85
2, 238895, Note_on_c, 0, 70, 0
2, 238920, Note_on_c, 0, 60, 85
2, 238920, Note_on_c, 0, 67, 86
2, 239015, Note_on_c, 0, 67, 0
2, 239015, Note_on_c, 0, 60, 0
2, 239040, Note_on_c, 0, 68, 95
2, 239200, Note_on_c, 0, 60, 95
2, 239262, Note_on_c, 0, 60, 0
2, 239422, Note_on_c, 0, 68, 0
2, 239520, Note_on_c, 0, 72, 95
2, 239680, Note_on_c, 0, 60, 95
2, 239710, Note_on_c, 0, 72, 0
2, 239742, Note_on_c, 0, 60, 0
2, 239760, Note_on_c, 0, 77, 95
2, 239950, Note_on_c, 0, 77, 0
2, 240000, Note_on_c, 0, 80, 95
2, 240160, Note_on_c, 0, 60, 95
2, 240190, Note_on_c, 0, 80, 0
2, 240222, Note_on_c, 0, 60, 0
2, 240240, Note_on_c, 0, 84, 95
2, 240430, Note_on_c, 0, 84, 0
2, 240960, Note_on_c, 0, 84, 95
2, 241022, Note_on_c, 0, 84, 0
2, 241040, Note_on_c, 0, 86, 95
2, 241102, Note_on_c, 0, 86, 0
2, 241120, Note_on_c, 0, 87, 95
2, 241182, Note_on_c, 0, 87, 0
2, 241200, Note_on_c, 0, 86, 95
2, 241262, Note_on_c, 0, 86, 0
2, 241280, Note_on_c, 0, 84, 95
2, 241342, Note_on_c, 0, 84, 0
2, 241360, Note_on_c, 0, 82, 95
2, 241422, Note_on_c, 0, 82, 0
2, 241440, Note_on_c, 0, 81, 95
2, 241502, Note_on_c, 0, 81, 0
2, 241520, Note_on_c, 0, 82, 95
2, 241582, Note_on_c, 0, 82, 0
2, 241600, Note_on_c, 0, 84, 95
2, 241662, Note_on_c, 0, 84, 0
2, 241680, Note_on_c, 0, 82, 95
2, 241742, Note_on_c, 0, 82, 0
2, 241760, Note_on_c, 0, 81, 95
2, 241822, Note_on_c, 0, 81, 0
2, 241840, Note_on_c, 0, 79, 95
2, 241902, Note_on_c, 0, 79, 0
2, 241920, Note_on_c, 0, 62, 95
2, 241920, Note_on_c, 0, 78, 95
2, 241982, Note_on_c, 0, 78, 0
2, 242000, Note_on_c, 0, 81, 95
2, 242062, Note_on_c, 0, 81, 0
2, 242080, Note_on_c, 0, 78, 95
2, 242110, Note_on_c, 0, 62, 0
2, 242142, Note_on_c, 0, 78, 0
2, 242160, Note_on_c, 0, 66, 95
2, 242160, Note_on_c, 0, 75, 95
2, 242222, Note_on_c, 0, 75, 0
2, 242240, Note_on_c, 0, 81, 95
2, 242302, Note_on_c, 0, 81, 0
2, 242320, Note_on_c, 0, 75, 95
2, 242350, Note_on_c, 0, 66, 0
2, 242382, Note_on_c, 0, 75, 0
2, 242400, Note_on_c, 0, 74, 95
2, 242462, Note_on_c, 0, 74, 0
2, 242480, Note_on_c, 0, 81, 95
2, 242542, Note_on_c, 0, 81, 0
2, 242560, Note_on_c, 0, 74, 95
2, 242622, Note_on_c, 0, 74, 0
2, 242640, Note_on_c, 0, 72, 95
2, 242702, Note_on_c, 0, 72, 0
2, 242720, Note_on_c, 0, 81, 95
2, 242782, Note_on_c, 0, 81, 0
2, 242800, Note_on_c, 0, 72, 95
2, 242862, Note_on_c, 0, 72, 0
2, 242880, Note_on_c, 0, 70, 95
2, 243040, Note_on_c, 0, 62, 95
2, 243102, Note_on_c, 0, 62, 0
2, 243120, Note_on_c, 0, 60, 95
2, 243182, Note_on_c, 0, 60, 0
2, 243262, Note_on_c, 0, 70, 0
2, 243360, Note_on_c, 0, 74, 95
2, 243520, Note_on_c, 0, 62, 95
2, 243550, Note_on_c, 0, 74, 0
2, 243582, Note_on_c, 0, 62, 0
2, 243600, Note_on_c, 0, 77, 95
2, 243600, Note_on_c, 0, 60, 95
2, 243662, Note_on_c, 0, 60, 0
2, 243790, Note_on_c, 0, 77, 0
2, 243840, Note_on_c, 0, 82, 95
2, 244000, Note_on_c, 0, 62, 95
2, 244030, Note_on_c, 0, 82, 0
2, 244062, Note_on_c, 0, 62, 0
2, 244080, Note_on_c, 0, 86, 95
2, 244080, Note_on_c, 0, 60, 95
2, 244142, Note_on_c, 0, 60, 0
2, 244270, Note_on_c, 0, 86, 0
2, 244480, Note_on_c, 0, 62, 95
2, 244542, Note_on_c, 0, 62, 0
2, 244720, Note_on_c, 0, 62, 95
2, 244782, Note_on_c, 0, 62, 0
2, 244800, Note_on_c, 0, 71, 95
2, 244960, Note_on_c, 0, 62, 95
2, 245022, Note_on_c, 0, 62, 0
2, 245182, Note_on_c, 0, 71, 0
2, 245200, Note_on_c, 0, 62, 95
2, 245262, Note_on_c, 0, 62, 0
2, 245280, Note_on_c, 0, 74, 95
2, 245440, Note_on_c, 0, 62, 95
2, 245470, Note_on_c, 0, 74, 0
2, 245502, Note_on_c, 0, 62, 0
2, 245520, Note_on_c, 0, 77, 95
2, 245680, Note_on_c, 0, 62, 95
2, 245710, Note_on_c, 0, 77, 0
2, 245742, Note_on_c, 0, 62, 0
2, 245760, Note_on_c, 0, 83, 95
2, 245920, Note_on_c, 0, 62, 95
2, 245950, Note_on_c, 0, 83, 0
2, 245982, Note_on_c, 0, 62, 0
2, 246000, Note_on_c, 0, 86, 95
2, 246160, Note_on_c, 0, 62, 95
2, 246190, Note_on_c, 0, 86, 0
2, 246222, Note_on_c, 0, 62, 0
2, 246400, Note_on_c, 0, 62, 95
2, 246462, Note_on_c, 0, 62, 0
2, 246640, Note_on_c, 0, 62, 95
2, 246702, Note_on_c, 0, 62, 0
2, 246720, Note_on_c, 0, 72, 95
2, 246880, Note_on_c, 0, 60, 95
2, 246942, Note_on_c, 0, 60, 0
2, 247102, Note_on_c, 0, 72, 0
2, 247120, Note_on_c, 0, 60, 95
2, 247182, Note_on_c, 0, 60, 0
2, 247200, Note_on_c, 0, 75, 95
2, 247360, Note_on_c, 0, 60, 95
2, 247390, Note_on_c, 0, 75, 0
2, 247422, Note_on_c, 0, 60, 0
2, 247440, Note_on_c, 0, 79, 95
2, 247600, Note_on_c, 0, 60, 95
2, 247630, Note_on_c, 0, 79, 0
2, 247662, Note_on_c, 0, 60, 0
2, 247680, Note_on_c, 0, 84, 95
2, 247840, Note_on_c, 0, 60, 95
2, 247870, Note_on_c, 0, 84, 0
2, 247902, Note_on_c, 0, 60, 0
2, 247920, Note_on_c, 0, 87, 95
2, 248080, Note_on_c, 0, 60, 95
2, 248110, Note_on_c, 0, 87, 0
2, 248142, Note_on_c, 0, 60, 0
2, 248320, Note_on_c, 0, 60, 95
2, 248382, Note_on_c, 0, 60, 0
2, 248640, Note_on_c, 0, 74, 95
2, 248640, Note_on_c, 0, 62, 95
2, 249022, Note_on_c, 0, 62, 0
2, 249022, Note_on_c, 0, 74, 0
2, 249120, Note_on_c, 0, 65, 95
2, 249120, Note_on_c, 0, 77, 95
2, 249310, Note_on_c, 0, 77, 0
2, 249310, Note_on_c, 0, 65, 0
2, 249360, Note_on_c, 0, 79, 95
2, 249360, Note_on_c, 0, 67, 95
2, 249550, Note_on_c, 0, 67, 0
2, 249550, Note_on_c, 0, 79, 0
2, 249600, Note_on_c, 0, 86, 95
2, 249600, Note_on_c, 0, 74, 95
2, 249790, Note_on_c, 0, 74, 0
2, 249790, Note_on_c, 0, 86, 0
2, 249840, Note_on_c, 0, 77, 95
2, 249840, Note_on_c, 0, 89, 95
2, 250030, Note_on_c, 0, 89, 0
2, 250030, Note_on_c, 0, 77, 0
2, 250560, Note_on_c, 0, 77, 65
2, 250750, Note_on_c, 0, 77, 0
2, 250800, Note_on_c, 0, 80, 65
2, 250990, Note_on_c, 0, 80, 0
2, 251040, Note_on_c, 0, 62, 65
2, 251040, Note_on_c, 0, 71, 65
2, 251422, Note_on_c, 0, 71, 0
2, 251422, Note_on_c, 0, 62, 0
2, 251520, Note_on_c, 0, 74, 65
2, 251710, Note_on_c, 0, 74, 0
2, 251760, Note_on_c, 0, 77, 65
2, 251950, Note_on_c, 0, 77, 0
2, 252000, Note_on_c, 0, 68, 65
2, 252382, Note_on_c, 0, 68, 0
2, 252480, Note_on_c, 0, 71, 65
2, 252670, Note_on_c, 0, 71, 0
2, 252720, Note_on_c, 0, 74, 65
2, 252910, Note_on_c, 0, 74, 0
2, 252960, Note_on_c, 0, 62, 65
2, 253150, Note_on_c, 0, 62, 0
2, 253200, Note_on_c, 0, 65, 65
2, 253390, Note_on_c, 0, 65, 0
2, 255360, Note_on_c, 0, 60, 95
2, 255742, Note_on_c, 0, 60, 0
2, 255840, Note_on_c, 0, 63, 95
2, 256030, Note_on_c, 0, 63, 0
2, 256080, Note_on_c, 0, 67, 95
2, 256270, Note_on_c, 0, 67, 0
2, 256320, Note_on_c, 0, 72, 95
2, 256320, Note_on_c, 0, 60, 95
2, 256510, Note_on_c, 0, 60, 0
2, 256510, Note_on_c, 0, 72, 0
2, 256560, Note_on_c, 0, 63, 95
2, 256560, Note_on_c, 0, 75, 95
2, 256750, Note_on_c, 0, 75, 0
2, 256750, Note_on_c, 0, 63, 0
2, 256980, Note_on_c, 0, 75, 65
2, 257027, Note_on_c, 0, 75, 0
2, 257040, Note_on_c, 0, 75, 64
2, 257062, Note_on_c, 0, 75, 0
2, 257070, Note_on_c, 0, 77, 65
2, 257092, Note_on_c, 0, 77, 0
2, 257100, Note_on_c, 0, 75, 64
2, 257122, Note_on_c, 0, 75, 0
2, 257130, Note_on_c, 0, 77, 63
2, 257152, Note_on_c, 0, 77, 0
2, 257160, Note_on_c, 0, 74, 66
2, 257207, Note_on_c, 0, 74, 0
2, 257220, Note_on_c, 0, 75, 64
2, 257267, Note_on_c, 0, 75, 0
2, 257280, Note_on_c, 0, 79, 65
2, 257470, Note_on_c, 0, 79, 0
2, 257520, Note_on_c, 0, 63, 65
2, 257520, Note_on_c, 0, 67, 65
2, 257520, Note_on_c, 0, 72, 65
2, 257710, Note_on_c, 0, 72, 0
2, 257710, Note_on_c, 0, 67, 0
2, 257710, Note_on_c, 0, 63, 0
2, 257760, Note_on_c, 0, 63, 65
2, 257760, Note_on_c, 0, 67, 65
2, 257760, Note_on_c, 0, 72, 65
2, 257950, Note_on_c, 0, 72, 0
2, 257950, Note_on_c, 0, 67, 0
2, 257950, Note_on_c, 0, 63, 0
2, 258000, Note_on_c, 0, 63, 65
2, 258000, Note_on_c, 0, 67, 65
2, 258000, Note_on_c, 0, 72, 65
2, 258190, Note_on_c, 0, 72, 0
2, 258190, Note_on_c, 0, 67, 0
2, 258190, Note_on_c, 0, 63, 0
2, 258240, Note_on_c, 0, 80, 65
2, 258430, Note_on_c, 0, 80, 0
2, 258480, Note_on_c, 0, 62, 65
2, 258480, Note_on_c, 0, 71, 65
2, 258480, Note_on_c, 0, 68, 65
2, 258480, Note_on_c, 0, 65, 65
2, 258670, Note_on_c, 0, 65, 0
2, 258670, Note_on_c, 0, 62, 0
2, 258670, Note_on_c, 0, 71, 0
2, 258670, Note_on_c, 0, 68, 0
2, 258720, Note_on_c, 0, 62, 65
2, 258720, Note_on_c, 0, 71, 65
2, 258720, Note_on_c, 0, 68, 65
2, 258720, Note_on_c, 0, 65, 65
2, 258910, Note_on_c, 0, 65, 0
2, 258910, Note_on_c, 0, 62, 0
2, 258910, Note_on_c, 0, 71, 0
2, 258910, Note_on_c, 0, 68, 0
2, 259920, Note_on_c, 0, 62, 95
2, 260110, Note_on_c, 0, 62, 0
2, 260160, Note_on_c, 0, 67, 95
2, 260350, Note_on_c, 0, 67, 0
2, 260400, Note_on_c, 0, 71, 95
2, 260590, Note_on_c, 0, 71, 0
2, 260820, Note_on_c, 0, 74, 65
2, 260867, Note_on_c, 0, 74, 0
2, 260880, Note_on_c, 0, 74, 64
2, 260902, Note_on_c, 0, 74, 0
2, 260910, Note_on_c, 0, 75, 65
2, 260932, Note_on_c, 0, 75, 0
2, 260940, Note_on_c, 0, 74, 66
2, 260962, Note_on_c, 0, 74, 0
2, 260970, Note_on_c, 0, 75, 65
2, 260992, Note_on_c, 0, 75, 0
2, 261000, Note_on_c, 0, 72, 65
2, 261047, Note_on_c, 0, 72, 0
2, 261060, Note_on_c, 0, 74, 65
2, 261107, Note_on_c, 0, 74, 0
2, 261120, Note_on_c, 0, 77, 65
2, 261310, Note_on_c, 0, 77, 0
2, 261360, Note_on_c, 0, 68, 65
2, 261360, Note_on_c, 0, 65, 65
2, 261360, Note_on_c, 0, 62, 65
2, 261360, Note_on_c, 0, 71, 65
2, 261550, Note_on_c, 0, 71, 0
2, 261550, Note_on_c, 0, 68, 0
2, 261550, Note_on_c, 0, 65, 0
2, 261550, Note_on_c, 0, 62, 0
2, 261600, Note_on_c, 0, 62, 65
2, 261600, Note_on_c, 0, 65, 65
2, 261600, Note_on_c, 0, 68, 65
2, 261600, Note_on_c, 0, 71, 65
2, 261790, Note_on_c, 0, 71, 0
2, 261790, Note_on_c, 0, 62, 0
2, 261790, Note_on_c, 0, 65, 0
2, 261790, Note_on_c, 0, 68, 0
2, 261840, Note_on_c, 0, 62, 65
2, 261840, Note_on_c, 0, 65, 65
2, 261840, Note_on_c, 0, 68, 65
2, 261840, Note_on_c, 0, 71, 65
2, 262030, Note_on_c, 0, 71, 0
2, 262030, Note_on_c, 0, 62, 0
2, 262030, Note_on_c, 0, 65, 0
2, 262030, Note_on_c, 0, 68, 0
2, 262080, Note_on_c, 0, 79, 65
2, 262270, Note_on_c, 0, 79, 0
2, 262320, Note_on_c, 0, 63, 65
2, 262320, Note_on_c, 0, 67, 65
2, 262320, Note_on_c, 0, 72, 65
2, 262510, Note_on_c, 0, 72, 0
2, 262510, Note_on_c, 0, 67, 0
2, 262510, Note_on_c, 0, 63, 0
2, 262560, Note_on_c, 0, 63, 65
2, 262560, Note_on_c, 0, 67, 65
2, 262560, Note_on_c, 0, 72, 65
2, 262750, Note_on_c, 0, 72, 0
2, 262750, Note_on_c, 0, 67, 0
2, 262750, Note_on_c, 0, 63, 0
2, 263040, Note_on_c, 0, 67, 95
2, 263615, Note_on_c, 0, 67, 0
2, 263760, Note_on_c, 0, 67, 65
2, 263760, Note_on_c, 0, 75, 65
2, 263950, Note_on_c, 0, 67, 0
2, 264000, Note_on_c, 0, 66, 65
2, 264190, Note_on_c, 0, 66, 0
2, 264190, Note_on_c, 0, 75, 0
2, 264240, Note_on_c, 0, 65, 65
2, 264240, Note_on_c, 0, 74, 65
2, 264430, Note_on_c, 0, 65, 0
2, 264480, Note_on_c, 0, 64, 65
2, 264622, Note_on_c, 0, 74, 0
2, 264670, Note_on_c, 0, 64, 0
2, 264720, Note_on_c, 0, 63, 65
2, 264720, Note_on_c, 0, 72, 65
2, 264910, Note_on_c, 0, 63, 0
2, 264960, Note_on_c, 0, 62, 95
2, 265150, Note_on_c, 0, 72, 0
2, 265200, Note_on_c, 0, 71, 95
2, 265342, Note_on_c, 0, 62, 0
2, 265390, Note_on_c, 0, 71, 0
2, 265680, Note_on_c, 0, 79, 65
2, 265680, Note_on_c, 0, 75, 65
2, 265870, Note_on_c, 0, 75, 0
2, 265870, Note_on_c, 0, 79, 0
2, 265920, Note_on_c, 0, 78, 65
2, 265920, Note_on_c, 0, 75, 65
2, 266110, Note_on_c, 0, 75, 0
2, 266110, Note_on_c, 0, 78, 0
2, 266160, Note_on_c, 0, 74, 65
2, 266160, Note_on_c, 0, 77, 65
2, 266350, Note_on_c, 0, 77, 0
2, 266400, Note_on_c, 0, 76, 76
2, 266542, Note_on_c, 0, 74, 0
2, 266590, Note_on_c, 0, 76, 0
2, 266640, Note_on_c, 0, 72, 65
2, 266640, Note_on_c, 0, 75, 65
2, 266830, Note_on_c, 0, 75, 0
2, 266830, Note_on_c, 0, 72, 0
2, 266880, Note_on_c, 0, 74, 95
2, 266880, Note_on_c, 0, 72, 95
2, 267070, Note_on_c, 0, 72, 0
2, 267120, Note_on_c, 0, 71, 95
2, 267262, Note_on_c, 0, 74, 0
2, 267310, Note_on_c, 0, 71, 0
2, 267600, Note_on_c, 0, 71, 95
2, 267600, Note_on_c, 0, 74, 95
2, 267600, Note_on_c, 0, 80, 95
2, 268030, Note_on_c, 0, 80, 0
2, 268030, Note_on_c, 0, 74, 0
2, 268030, Note_on_c, 0, 71, 0
2, 268080, Note_on_c, 0, 79, 95
2, 268080, Note_on_c, 0, 75, 95
2, 268080, Note_on_c, 0, 72, 95
2, 268270, Note_on_c, 0, 72, 0
2, 268270, Note_on_c, 0, 75, 0
2, 268270, Note_on_c, 0, 79, 0
2, 268500, Note_on_c, 0, 67, 95
2, 268547, Note_on_c, 0, 67, 0
2, 268560, Note_on_c, 0, 74, 95
2, 268702, Note_on_c, 0, 74, 0
2, 268740, Note_on_c, 0, 77, 95
2, 268787, Note_on_c, 0, 77, 0
2, 268800, Note_on_c, 0, 75, 95
2, 268822, Note_on_c, 0, 75, 0
2, 268830, Note_on_c, 0, 77, 95
2, 268852, Note_on_c, 0, 77, 0
2, 268860, Note_on_c, 0, 74, 95
2, 268907, Note_on_c, 0, 74, 0
2, 268920, Note_on_c, 0, 75, 95
2, 268967, Note_on_c, 0, 75, 0
2, 268980, Note_on_c, 0, 77, 95
2, 269027, Note_on_c, 0, 77, 0
2, 269040, Note_on_c, 0, 79, 95
2, 269230, Note_on_c, 0, 79, 0
2, 269520, Note_on_c, 0, 71, 95
2, 269520, Note_on_c, 0, 74, 95
2, 269520, Note_on_c, 0, 80, 95
2, 269950, Note_on_c, 0, 80, 0
2, 269950, Note_on_c, 0, 74, 0
2, 269950, Note_on_c, 0, 71, 0
2, 270000, Note_on_c, 0, 79, 95
2, 270000, Note_on_c, 0, 75, 95
2, 270000, Note_on_c, 0, 72, 95
2, 270190, Note_on_c, 0, 72, 0
2, 270190, Note_on_c, 0, 75, 0
2, 270190, Note_on_c, 0, 79, 0
2, 270420, Note_on_c, 0, 77, 95
2, 270467, Note_on_c, 0, 77, 0
2, 270480, Note_on_c, 0, 83, 95
2, 270622, Note_on_c, 0, 83, 0
2, 270660, Note_on_c, 0, 86, 95
2, 270707, Note_on_c, 0, 86, 0
2, 270720, Note_on_c, 0, 87, 84
2, 270815, Note_on_c, 0, 87, 0
2, 270840, Note_on_c, 0, 79, 65
2, 270935, Note_on_c, 0, 79, 0
2, 270960, Note_on_c, 0, 84, 65
2, 271055, Note_on_c, 0, 84, 0
2, 271080, Note_on_c, 0, 79, 65
2, 271175, Note_on_c, 0, 79, 0
2, 271320, Note_on_c, 0, 77, 65
2, 271415, Note_on_c, 0, 77, 0
2, 271440, Note_on_c, 0, 80, 65
2, 271535, Note_on_c, 0, 80, 0
2, 271560, Note_on_c, 0, 74, 65
2, 271655, Note_on_c, 0, 74, 0
2, 271800, Note_on_c, 0, 75, 65
2, 271895, Note_on_c, 0, 75, 0
2, 271920, Note_on_c, 0, 79, 65
2, 272015, Note_on_c, 0, 79, 0
2, 272040, Note_on_c, 0, 72, 65
2, 272135, Note_on_c, 0, 72, 0
2, 272280, Note_on_c, 0, 74, 75
2, 272375, Note_on_c, 0, 74, 0
2, 272400, Note_on_c, 0, 77, 85
2, 272495, Note_on_c, 0, 77, 0
2, 272520, Note_on_c, 0, 71, 86
2, 272615, Note_on_c, 0, 71, 0
2, 272640, Note_on_c, 0, 72, 95
2, 273022, Note_on_c, 0, 72, 0
2, 273120, Note_on_c, 0, 75, 95
2, 273120, Note_on_c, 0, 60, 95
2, 273310, Note_on_c, 0, 75, 0
2, 273360, Note_on_c, 0, 79, 95
2, 273502, Note_on_c, 0, 60, 0
2, 273550, Note_on_c, 0, 79, 0
2, 273600, Note_on_c, 0, 63, 95
2, 273600, Note_on_c, 0, 84, 95
2, 273790, Note_on_c, 0, 84, 0
2, 273790, Note_on_c, 0, 63, 0
2, 273840, Note_on_c, 0, 67, 95
2, 273840, Note_on_c, 0, 87, 95
2, 274030, Note_on_c, 0, 87, 0
2, 274030, Note_on_c, 0, 67, 0
2, 274080, Note_on_c, 0, 72, 95
2, 274080, Note_on_c, 0, 80, 95
2, 274270, Note_on_c, 0, 80, 0
2, 274270, Note_on_c, 0, 72, 0
2, 274320, Note_on_c, 0, 75, 95
2, 274320, Note_on_c, 0, 84, 95
2, 274510, Note_on_c, 0, 84, 0
2, 274510, Note_on_c, 0, 75, 0
2, 274560, Note_on_c, 0, 68, 95
2, 274560, Note_on_c, 0, 77, 95
2, 274750, Note_on_c, 0, 77, 0
2, 274750, Note_on_c, 0, 68, 0
2, 274800, Note_on_c, 0, 72, 95
2, 274800, Note_on_c, 0, 80, 95
2, 274990, Note_on_c, 0, 80, 0
2, 274990, Note_on_c, 0, 72, 0
2, 275040, Note_on_c, 0, 65, 82
2, 275040, Note_on_c, 0, 73, 84
2, 275230, Note_on_c, 0, 73, 0
2, 275230, Note_on_c, 0, 65, 0
2, 275280, Note_on_c, 0, 68, 75
2, 275280, Note_on_c, 0, 77, 76
2, 275470, Note_on_c, 0, 77, 0
2, 275470, Note_on_c, 0, 68, 0
2, 275520, Note_on_c, 0, 72, 65
2, 275640, Note_on_c, 0, 66, 65
2, 275735, Note_on_c, 0, 66, 0
2, 275760, Note_on_c, 0, 63, 65
2, 275855, Note_on_c, 0, 63, 0
2, 275880, Note_on_c, 0, 66, 65
2, 275975, Note_on_c, 0, 66, 0
2, 276095, Note_on_c, 0, 72, 0
2, 276120, Note_on_c, 0, 66, 65
2, 276215, Note_on_c, 0, 66, 0
2, 276240, Note_on_c, 0, 63, 65
2, 276240, Note_on_c, 0, 80, 65
2, 276335, Note_on_c, 0, 63, 0
2, 276360, Note_on_c, 0, 66, 65
2, 276430, Note_on_c, 0, 80, 0
2, 276455, Note_on_c, 0, 66, 0
2, 276480, Note_on_c, 0, 80, 65
2, 276600, Note_on_c, 0, 65, 65
2, 276695, Note_on_c, 0, 65, 0
2, 276720, Note_on_c, 0, 61, 65
2, 276767, Note_on_c, 0, 80, 0
2, 276815, Note_on_c, 0, 61, 0
2, 276840, Note_on_c, 0, 65, 65
2, 276840, Note_on_c, 0, 77, 65
2, 276935, Note_on_c, 0, 77, 0
2, 276935, Note_on_c, 0, 65, 0
2, 276960, Note_on_c, 0, 73, 65
2, 277080, Note_on_c, 0, 65, 65
2, 277150, Note_on_c, 0, 73, 0
2, 277175, Note_on_c, 0, 65, 0
2, 277200, Note_on_c, 0, 61, 65
2, 277295, Note_on_c, 0, 61, 0
2, 277320, Note_on_c, 0, 65, 65
2, 277415, Note_on_c, 0, 65, 0
2, 277440, Note_on_c, 0, 72, 65
2, 277560, Note_on_c, 0, 66, 65
2, 277655, Note_on_c, 0, 66, 0
2, 277680, Note_on_c, 0, 63, 65
2, 277775, Note_on_c, 0, 63, 0
2, 277800, Note_on_c, 0, 66, 65
2, 277822, Note_on_c, 0, 72, 0
2, 277895, Note_on_c, 0, 66, 0
2, 277920, Note_on_c, 0, 72, 65
2, 278015, Note_on_c, 0, 72, 0
2, 278040, Note_on_c, 0, 66, 65
2, 278040, Note_on_c, 0, 80, 65
2, 278135, Note_on_c, 0, 80, 0
2, 278135, Note_on_c, 0, 66, 0
2, 278160, Note_on_c, 0, 63, 65
2, 278160, Note_on_c, 0, 82, 65
2, 278255, Note_on_c, 0, 82, 0
2, 278255, Note_on_c, 0, 63, 0
2, 278280, Note_on_c, 0, 66, 65
2, 278280, Note_on_c, 0, 80, 65
2, 278375, Note_on_c, 0, 80, 0
2, 278375, Note_on_c, 0, 66, 0
2, 278400, Note_on_c, 0, 80, 65
2, 278520, Note_on_c, 0, 65, 65
2, 278615, Note_on_c, 0, 65, 0
2, 278640, Note_on_c, 0, 61, 65
2, 278687, Note_on_c, 0, 80, 0
2, 278735, Note_on_c, 0, 61, 0
2, 278760, Note_on_c, 0, 65, 65
2, 278760, Note_on_c, 0, 77, 65
2, 278855, Note_on_c, 0, 77, 0
2, 278855, Note_on_c, 0, 65, 0
2, 278880, Note_on_c, 0, 73, 65
2, 279000, Note_on_c, 0, 65, 65
2, 279070, Note_on_c, 0, 73, 0
2, 279095, Note_on_c, 0, 65, 0
2, 279120, Note_on_c, 0, 61, 65
2, 279120, Note_on_c, 0, 73, 65
2, 279215, Note_on_c, 0, 61, 0
2, 279240, Note_on_c, 0, 65, 65
2, 279310, Note_on_c, 0, 73, 0
2, 279335, Note_on_c, 0, 65, 0
2, 279360, Note_on_c, 0, 73, 65
2, 279360, Note_on_c, 0, 60, 65
2, 279360, Note_on_c, 0, 66, 65
2, 279360, Note_on_c, 0, 63, 65
2, 279455, Note_on_c, 0, 73, 0
2, 279480, Note_on_c, 0, 71, 65
2, 279575, Note_on_c, 0, 71, 0
2, 279600, Note_on_c, 0, 72, 65
2, 279695, Note_on_c, 0, 72, 0
2, 279720, Note_on_c, 0, 74, 65
2, 279815, Note_on_c, 0, 74, 0
2, 279840, Note_on_c, 0, 77, 65
2, 279935, Note_on_c, 0, 77, 0
2, 279960, Note_on_c, 0, 75, 65
2, 280055, Note_on_c, 0, 75, 0
2, 280080, Note_on_c, 0, 74, 65
2, 280127, Note_on_c, 0, 63, 0
2, 280127, Note_on_c, 0, 60, 0
2, 280127, Note_on_c, 0, 66, 0
2, 280175, Note_on_c, 0, 74, 0
2, 280200, Note_on_c, 0, 72, 65
2, 280295, Note_on_c, 0, 72, 0
2, 280320, Note_on_c, 0, 79, 65
2, 280510, Note_on_c, 0, 79, 0
2, 280800, Note_on_c, 0, 60, 65
2, 280990, Note_on_c, 0, 60, 0
2, 281040, Note_on_c, 0, 72, 65
2, 281135, Note_on_c, 0, 72, 0
2, 281160, Note_on_c, 0, 72, 65
2, 281255, Note_on_c, 0, 72, 0
2, 281280, Note_on_c, 0, 79, 65
2, 281470, Note_on_c, 0, 79, 0
2, 281760, Note_on_c, 0, 60, 65
2, 281950, Note_on_c, 0, 60, 0
2, 282000, Note_on_c, 0, 72, 65
2, 282095, Note_on_c, 0, 72, 0
2, 282120, Note_on_c, 0, 72, 65
2, 282215, Note_on_c, 0, 72, 0
2, 282240, Note_on_c, 0, 79, 65
2, 282430, Note_on_c, 0, 79, 0
2, 282480, Note_on_c, 0, 60, 65
2, 282480, Note_on_c, 0, 72, 65
2, 282575, Note_on_c, 0, 72, 0
2, 282600, Note_on_c, 0, 72, 65
2, 282670, Note_on_c, 0, 60, 0
2, 282695, Note_on_c, 0, 72, 0
2, 282720, Note_on_c, 0, 79, 65
2, 282910, Note_on_c, 0, 79, 0
2, 282960, Note_on_c, 0, 72, 65
2, 282960, Note_on_c, 0, 60, 65
2, 283055, Note_on_c, 0, 72, 0
2, 283080, Note_on_c, 0, 72, 65
2, 283150, Note_on_c, 0, 60, 0
2, 283175, Note_on_c, 0, 72, 0
2, 283200, Note_on_c, 0, 79, 65
2, 283390, Note_on_c, 0, 79, 0
2, 283440, Note_on_c, 0, 79, 65
2, 283630, Note_on_c, 0, 79, 0
2, 283680, Note_on_c, 0, 79, 65
2, 283870, Note_on_c, 0, 79, 0
2, 283920, Note_on_c, 0, 79, 65
2, 284110, Note_on_c, 0, 79, 0
2, 284160, Note_on_c, 0, 79, 65
2, 284255, Note_on_c, 0, 79, 0
2, 284280, Note_on_c, 0, 78, 65
2, 284375, Note_on_c, 0, 78, 0
2, 284400, Note_on_c, 0, 77, 65
2, 284495, Note_on_c, 0, 77, 0
2, 284520, Note_on_c, 0, 74, 65
2, 284615, Note_on_c, 0, 74, 0
2, 284640, Note_on_c, 0, 79, 65
2, 284735, Note_on_c, 0, 79, 0
2, 284760, Note_on_c, 0, 78, 65
2, 284855, Note_on_c, 0, 78, 0
2, 284880, Note_on_c, 0, 77, 65
2, 284975, Note_on_c, 0, 77, 0
2, 285000, Note_on_c, 0, 74, 65
2, 285095, Note_on_c, 0, 74, 0
2, 285120, Note_on_c, 0, 72, 65
2, 285120, Note_on_c, 0, 63, 65
2, 285215, Note_on_c, 0, 63, 0
2, 285240, Note_on_c, 0, 67, 65
2, 285335, Note_on_c, 0, 67, 0
2, 285360, Note_on_c, 0, 63, 65
2, 285407, Note_on_c, 0, 72, 0
2, 285455, Note_on_c, 0, 63, 0
2, 285480, Note_on_c, 0, 67, 65
2, 285480, Note_on_c, 0, 74, 65
2, 285527, Note_on_c, 0, 74, 0
2, 285540, Note_on_c, 0, 72, 65
2, 285575, Note_on_c, 0, 67, 0
2, 285587, Note_on_c, 0, 72, 0
2, 285600, Note_on_c, 0, 62, 65
2, 285600, Note_on_c, 0, 71, 65
2, 285695, Note_on_c, 0, 62, 0
2, 285720, Note_on_c, 0, 67, 65
2, 285790, Note_on_c, 0, 71, 0
2, 285815, Note_on_c, 0, 67, 0
2, 285840, Note_on_c, 0, 63, 65
2, 285840, Note_on_c, 0, 72, 65
2, 285935, Note_on_c, 0, 63, 0
2, 285960, Note_on_c, 0, 67, 65
2, 286030, Note_on_c, 0, 72, 0
2, 286055, Note_on_c, 0, 67, 0
2, 286080, Note_on_c, 0, 64, 65
2, 286080, Note_on_c, 0, 73, 65
2, 286175, Note_on_c, 0, 64, 0
2, 286200, Note_on_c, 0, 67, 65
2, 286295, Note_on_c, 0, 67, 0
2, 286320, Note_on_c, 0, 64, 65
2, 286415, Note_on_c, 0, 64, 0
2, 286440, Note_on_c, 0, 67, 65
2, 286462, Note_on_c, 0, 73, 0
2, 286535, Note_on_c, 0, 67, 0
2, 286560, Note_on_c, 0, 65, 65
2, 286560, Note_on_c, 0, 74, 65
2, 286655, Note_on_c, 0, 65, 0
2, 286680, Note_on_c, 0, 67, 65
2, 286750, Note_on_c, 0, 74, 0
2, 286775, Note_on_c, 0, 67, 0
2, 286800, Note_on_c, 0, 65, 65
2, 286895, Note_on_c, 0, 65, 0
2, 286920, Note_on_c, 0, 67, 65
2, 287015, Note_on_c, 0, 67, 0
2, 287040, Note_on_c, 0, 62, 65
2, 287135, Note_on_c, 0, 62, 0
2, 287160, Note_on_c, 0, 67, 65
2, 287255, Note_on_c, 0, 67, 0
2, 287280, Note_on_c, 0, 62, 65
2, 287375, Note_on_c, 0, 62, 0
2, 287400, Note_on_c, 0, 67, 65
2, 287495, Note_on_c, 0, 67, 0
2, 287520, Note_on_c, 0, 62, 65
2, 287615, Note_on_c, 0, 62, 0
2, 287640, Note_on_c, 0, 67, 65
2, 287735, Note_on_c, 0, 67, 0
2, 287760, Note_on_c, 0, 63, 65
2, 287855, Note_on_c, 0, 63, 0
2, 287880, Note_on_c, 0, 67, 65
2, 287975, Note_on_c, 0, 67, 0
2, 288000, Note_on_c, 0, 65, 65
2, 288095, Note_on_c, 0, 65, 0
2, 288120, Note_on_c, 0, 67, 65
2, 288215, Note_on_c, 0, 67, 0
2, 288240, Note_on_c, 0, 62, 65
2, 288335, Note_on_c, 0, 62, 0
2, 288360, Note_on_c, 0, 67, 65
2, 288455, Note_on_c, 0, 67, 0
2, 288480, Note_on_c, 0, 65, 65
2, 288575, Note_on_c, 0, 65, 0
2, 288600, Note_on_c, 0, 67, 65
2, 288695, Note_on_c, 0, 67, 0
2, 288720, Note_on_c, 0, 62, 65
2, 288815, Note_on_c, 0, 62, 0
2, 288840, Note_on_c, 0, 67, 65
2, 288935, Note_on_c, 0, 67, 0
2, 288960, Note_on_c, 0, 74, 65
2, 289080, Note_on_c, 0, 67, 65
2, 289175, Note_on_c, 0, 67, 0
2, 289247, Note_on_c, 0, 74, 0
2, 289320, Note_on_c, 0, 75, 65
2, 289320, Note_on_c, 0, 67, 65
2, 289342, Note_on_c, 0, 75, 0
2, 289350, Note_on_c, 0, 74, 65
2, 289372, Note_on_c, 0, 74, 0
2, 289380, Note_on_c, 0, 72, 65
2, 289402, Note_on_c, 0, 72, 0
2, 289410, Note_on_c, 0, 74, 65
2, 289415, Note_on_c, 0, 67, 0
2, 289432, Note_on_c, 0, 74, 0
2, 289440, Note_on_c, 0, 60, 65
2, 289440, Note_on_c, 0, 75, 65
2, 289535, Note_on_c, 0, 60, 0
2, 289560, Note_on_c, 0, 67, 65
2, 289630, Note_on_c, 0, 75, 0
2, 289655, Note_on_c, 0, 67, 0
2, 289680, Note_on_c, 0, 62, 65
2, 289680, Note_on_c, 0, 77, 65
2, 289775, Note_on_c, 0, 62, 0
2, 289800, Note_on_c, 0, 67, 65
2, 289870, Note_on_c, 0, 77, 0
2, 289895, Note_on_c, 0, 67, 0
2, 289920, Note_on_c, 0, 62, 65
2, 289920, Note_on_c, 0, 78, 65
2, 290015, Note_on_c, 0, 62, 0
2, 290040, Note_on_c, 0, 67, 65
2, 290135, Note_on_c, 0, 67, 0
2, 290160, Note_on_c, 0, 62, 65
2, 290255, Note_on_c, 0, 62, 0
2, 290280, Note_on_c, 0, 67, 65
2, 290302, Note_on_c, 0, 78, 0
2, 290375, Note_on_c, 0, 67, 0
2, 290400, Note_on_c, 0, 63, 65
2, 290400, Note_on_c, 0, 79, 65
2, 290495, Note_on_c, 0, 63, 0
2, 290520, Note_on_c, 0, 67, 65
2, 290590, Note_on_c, 0, 79, 0
2, 290615, Note_on_c, 0, 67, 0
2, 290640, Note_on_c, 0, 63, 65
2, 290735, Note_on_c, 0, 63, 0
2, 290760, Note_on_c, 0, 67, 65
2, 290855, Note_on_c, 0, 67, 0
2, 290880, Note_on_c, 0, 63, 65
2, 290975, Note_on_c, 0, 63, 0
2, 291000, Note_on_c, 0, 67, 65
2, 291095, Note_on_c, 0, 67, 0
2, 291120, Note_on_c, 0, 60, 65
2, 291215, Note_on_c, 0, 60, 0
2, 291240, Note_on_c, 0, 67, 65
2, 291335, Note_on_c, 0, 67, 0
2, 291360, Note_on_c, 0, 63, 65
2, 291455, Note_on_c, 0, 63, 0
2, 291480, Note_on_c, 0, 67, 65
2, 291575, Note_on_c, 0, 67, 0
2, 291600, Note_on_c, 0, 60, 65
2, 291695, Note_on_c, 0, 60, 0
2, 291720, Note_on_c, 0, 67, 65
2, 291815, Note_on_c, 0, 67, 0
2, 291840, Note_on_c, 0, 65, 65
2, 291935, Note_on_c, 0, 65, 0
2, 291960, Note_on_c, 0, 67, 65
2, 292055, Note_on_c, 0, 67, 0
2, 292080, Note_on_c, 0, 62, 65
2, 292175, Note_on_c, 0, 62, 0
2, 292200, Note_on_c, 0, 67, 65
2, 292295, Note_on_c, 0, 67, 0
2, 292320, Note_on_c, 0, 63, 78
2, 292415, Note_on_c, 0, 63, 0
2, 292440, Note_on_c, 0, 67, 76
2, 292535, Note_on_c, 0, 67, 0
2, 292560, Note_on_c, 0, 60, 85
2, 292655, Note_on_c, 0, 60, 0
2, 292680, Note_on_c, 0, 67, 87
2, 292775, Note_on_c, 0, 67, 0
2, 292800, Note_on_c, 0, 63, 95
2, 292800, Note_on_c, 0, 72, 95
2, 292800, Note_on_c, 0, 84, 95
2, 292800, Note_on_c, 0, 60, 95
2, 292895, Note_on_c, 0, 60, 0
2, 292895, Note_on_c, 0, 63, 0
2, 292920, Note_on_c, 0, 67, 95
2, 293015, Note_on_c, 0, 67, 0
2, 293040, Note_on_c, 0, 60, 95
2, 293040, Note_on_c, 0, 63, 95
2, 293135, Note_on_c, 0, 63, 0
2, 293135, Note_on_c, 0, 60, 0
2, 293160, Note_on_c, 0, 67, 95
2, 293182, Note_on_c, 0, 84, 0
2, 293182, Note_on_c, 0, 72, 0
2, 293255, Note_on_c, 0, 67, 0
2, 293280, Note_on_c, 0, 73, 95
2, 293280, Note_on_c, 0, 85, 95
2, 293280, Note_on_c, 0, 64, 95
2, 293375, Note_on_c, 0, 64, 0
2, 293400, Note_on_c, 0, 67, 95
2, 293495, Note_on_c, 0, 67, 0
2, 293520, Note_on_c, 0, 64, 95
2, 293615, Note_on_c, 0, 64, 0
2, 293640, Note_on_c, 0, 67, 95
2, 293662, Note_on_c, 0, 85, 0
2, 293662, Note_on_c, 0, 73, 0
2, 293735, Note_on_c, 0, 67, 0
2, 293760, Note_on_c, 0, 84, 95
2, 293760, Note_on_c, 0, 60, 95
2, 293760, Note_on_c, 0, 72, 95
2, 293855, Note_on_c, 0, 60, 0
2, 293880, Note_on_c, 0, 65, 95
2, 293950, Note_on_c, 0, 72, 0
2, 293950, Note_on_c, 0, 84, 0
2, 293975, Note_on_c, 0, 65, 0
2, 294000, Note_on_c, 0, 87, 95
2, 294000, Note_on_c, 0, 66, 95
2, 294000, Note_on_c, 0, 75, 95
2, 294000, Note_on_c, 0, 60, 95
2, 294190, Note_on_c, 0, 60, 0
2, 294190, Note_on_c, 0, 87, 0
2, 294190, Note_on_c, 0, 66, 0
2, 294190, Note_on_c, 0, 75, 0
2, 294360, Note_on_c, 0, 87, 70
2, 294455, Note_on_c, 0, 87, 0
2, 294480, Note_on_c, 0, 86, 66
2, 294575, Note_on_c, 0, 86, 0
2, 294600, Note_on_c, 0, 84, 65
2, 294695, Note_on_c, 0, 84, 0
2, 294720, Note_on_c, 0, 83, 65
2, 294815, Note_on_c, 0, 83, 0
2, 294840, Note_on_c, 0, 86, 65
2, 294935, Note_on_c, 0, 86, 0
2, 294960, Note_on_c, 0, 77, 65
2, 295150, Note_on_c, 0, 77, 0
2, 295200, Note_on_c, 0, 62, 65
2, 295320, Note_on_c, 0, 80, 65
2, 295390, Note_on_c, 0, 62, 0
2, 295415, Note_on_c, 0, 80, 0
2, 295440, Note_on_c, 0, 79, 65
2, 295535, Note_on_c, 0, 79, 0
2, 295560, Note_on_c, 0, 77, 65
2, 295655, Note_on_c, 0, 77, 0
2, 295680, Note_on_c, 0, 76, 65
2, 295775, Note_on_c, 0, 76, 0
2, 295800, Note_on_c, 0, 79, 65
2, 295895, Note_on_c, 0, 79, 0
2, 295920, Note_on_c, 0, 70, 65
2, 296110, Note_on_c, 0, 70, 0
2, 296280, Note_on_c, 0, 73, 65
2, 296375, Note_on_c, 0, 73, 0
2, 296400, Note_on_c, 0, 72, 65
2, 296495, Note_on_c, 0, 72, 0
2, 296520, Note_on_c, 0, 70, 65
2, 296615, Note_on_c, 0, 70, 0
2, 296640, Note_on_c, 0, 68, 65
2, 296735, Note_on_c, 0, 68, 0
2, 296760, Note_on_c, 0, 80, 65
2, 296855, Note_on_c, 0, 80, 0
2, 296880, Note_on_c, 0, 79, 65
2, 296975, Note_on_c, 0, 79, 0
2, 297000, Note_on_c, 0, 77, 65
2, 297095, Note_on_c, 0, 77, 0
2, 297120, Note_on_c, 0, 75, 65
2, 297215, Note_on_c, 0, 75, 0
2, 297240, Note_on_c, 0, 74, 65
2, 297335, Note_on_c, 0, 74, 0
2, 297360, Note_on_c, 0, 75, 65
2, 297455, Note_on_c, 0, 75, 0
2, 297480, Note_on_c, 0, 77, 65
2, 297575, Note_on_c, 0, 77, 0
2, 297600, Note_on_c, 0, 72, 65
2, 297840, Note_on_c, 0, 67, 65
2, 297840, Note_on_c, 0, 63, 65
2, 297982, Note_on_c, 0, 72, 0
2, 298030, Note_on_c, 0, 63, 0
2, 298030, Note_on_c, 0, 67, 0
2, 298080, Note_on_c, 0, 65, 75
2, 298080, Note_on_c, 0, 62, 75
2, 298320, Note_on_c, 0, 75, 86
2, 298320, Note_on_c, 0, 71, 85
2, 298415, Note_on_c, 0, 71, 0
2, 298415, Note_on_c, 0, 75, 0
2, 298440, Note_on_c, 0, 74, 86
2, 298462, Note_on_c, 0, 62, 0
2, 298462, Note_on_c, 0, 65, 0
2, 298535, Note_on_c, 0, 74, 0
2, 298560, Note_on_c, 0, 60, 95
2, 298560, Note_on_c, 0, 72, 95
2, 298942, Note_on_c, 0, 72, 0
2, 298942, Note_on_c, 0, 60, 0
2, 299040, Note_on_c, 0, 61, 95
2, 299040, Note_on_c, 0, 73, 95
2, 299422, Note_on_c, 0, 73, 0
2, 299422, Note_on_c, 0, 61, 0
2, 299520, Note_on_c, 0, 72, 95
2, 299520, Note_on_c, 0, 60, 95
2, 299710, Note_on_c, 0, 60, 0
2, 299710, Note_on_c, 0, 72, 0
2, 299760, Note_on_c, 0, 63, 95
2, 299760, Note_on_c, 0, 75, 95
2, 299950, Note_on_c, 0, 75, 0
2, 299950, Note_on_c, 0, 63, 0
2, 300120, Note_on_c, 0, 75, 76
2, 300215, Note_on_c, 0, 75, 0
2, 300240, Note_on_c, 0, 74, 71
2, 300335, Note_on_c, 0, 74, 0
2, 300360, Note_on_c, 0, 72, 71
2, 300455, Note_on_c, 0, 72, 0
2, 300480, Note_on_c, 0, 71, 65
2, 300575, Note_on_c, 0, 71, 0
2, 300600, Note_on_c, 0, 74, 65
2, 300695, Note_on_c, 0, 74, 0
2, 300720, Note_on_c, 0, 65, 65
2, 300910, Note_on_c, 0, 65, 0
2, 301080, Note_on_c, 0, 68, 65
2, 301175, Note_on_c, 0, 68, 0
2, 301200, Note_on_c, 0, 67, 65
2, 301295, Note_on_c, 0, 67, 0
2, 301320, Note_on_c, 0, 65, 65
2, 301415, Note_on_c, 0, 65, 0
2, 301440, Note_on_c, 0, 64, 65
2, 301535, Note_on_c, 0, 64, 0
2, 301560, Note_on_c, 0, 67, 65
2, 301655, Note_on_c, 0, 67, 0
2, 302040, Note_on_c, 0, 61, 77
2, 302135, Note_on_c, 0, 61, 0
2, 302160, Note_on_c, 0, 60, 85
2, 302255, Note_on_c, 0, 60, 0
2, 302480, Note_on_c, 0, 60, 95
2, 302542, Note_on_c, 0, 60, 0
2, 304560, Note_on_c, 0, 60, 95
2, 304622, Note_on_c, 0, 60, 0
2, 304720, Note_on_c, 0, 60, 95
2, 304782, Note_on_c, 0, 60, 0
2, 304800, Note_on_c, 0, 65, 95
2, 304862, Note_on_c, 0, 65, 0
2, 304880, Note_on_c, 0, 60, 95
2, 304942, Note_on_c, 0, 60, 0
2, 304960, Note_on_c, 0, 65, 95
2, 305022, Note_on_c, 0, 65, 0
2, 305040, Note_on_c, 0, 68, 95
2, 305102, Note_on_c, 0, 68, 0
2, 305120, Note_on_c, 0, 65, 95
2, 305182, Note_on_c, 0, 65, 0
2, 305200, Note_on_c, 0, 68, 95
2, 305262, Note_on_c, 0, 68, 0
2, 305280, Note_on_c, 0, 72, 95
2, 305342, Note_on_c, 0, 72, 0
2, 305360, Note_on_c, 0, 68, 95
2, 305422, Note_on_c, 0, 68, 0
2, 305440, Note_on_c, 0, 72, 95
2, 305502, Note_on_c, 0, 72, 0
2, 305520, Note_on_c, 0, 77, 95
2, 305582, Note_on_c, 0, 77, 0
2, 305600, Note_on_c, 0, 72, 95
2, 305662, Note_on_c, 0, 72, 0
2, 305680, Note_on_c, 0, 77, 95
2, 305742, Note_on_c, 0, 77, 0
2, 305760, Note_on_c, 0, 80, 85
2, 305822, Note_on_c, 0, 80, 0
2, 305840, Note_on_c, 0, 77, 85
2, 305902, Note_on_c, 0, 77, 0
2, 305920, Note_on_c, 0, 80, 85
2, 305982, Note_on_c, 0, 80, 0
2, 306000, Note_on_c, 0, 84, 75
2, 306095, Note_on_c, 0, 84, 0
2, 306120, Note_on_c, 0, 79, 75
2, 306215, Note_on_c, 0, 79, 0
2, 306240, Note_on_c, 0, 80, 65
2, 306335, Note_on_c, 0, 80, 0
2, 306360, Note_on_c, 0, 76, 65
2, 306455, Note_on_c, 0, 76, 0
2, 306480, Note_on_c, 0, 77, 65
2, 306575, Note_on_c, 0, 77, 0
2, 306600, Note_on_c, 0, 73, 65
2, 306695, Note_on_c, 0, 73, 0
2, 306720, Note_on_c, 0, 74, 65
2, 306815, Note_on_c, 0, 74, 0
2, 306840, Note_on_c, 0, 80, 65
2, 306935, Note_on_c, 0, 80, 0
2, 306960, Note_on_c, 0, 77, 65
2, 307055, Note_on_c, 0, 77, 0
2, 307080, Note_on_c, 0, 74, 65
2, 307175, Note_on_c, 0, 74, 0
2, 307200, Note_on_c, 0, 63, 65
2, 307200, Note_on_c, 0, 60, 65
2, 307320, Note_on_c, 0, 67, 65
2, 307390, Note_on_c, 0, 60, 0
2, 307390, Note_on_c, 0, 63, 0
2, 307415, Note_on_c, 0, 67, 0
2, 307440, Note_on_c, 0, 79, 65
2, 307535, Note_on_c, 0, 79, 0
2, 307560, Note_on_c, 0, 78, 65
2, 307655, Note_on_c, 0, 78, 0
2, 307680, Note_on_c, 0, 77, 65
2, 307775, Note_on_c, 0, 77, 0
2, 307800, Note_on_c, 0, 76, 65
2, 307895, Note_on_c, 0, 76, 0
2, 307920, Note_on_c, 0, 75, 65
2, 308015, Note_on_c, 0, 75, 0
2, 308040, Note_on_c, 0, 74, 65
2, 308135, Note_on_c, 0, 74, 0
2, 308160, Note_on_c, 0, 74, 65
2, 308160, Note_on_c, 0, 63, 65
2, 308255, Note_on_c, 0, 63, 0
2, 308255, Note_on_c, 0, 74, 0
2, 308280, Note_on_c, 0, 67, 65
2, 308280, Note_on_c, 0, 72, 65
2, 308375, Note_on_c, 0, 72, 0
2, 308375, Note_on_c, 0, 67, 0
2, 308400, Note_on_c, 0, 63, 65
2, 308400, Note_on_c, 0, 72, 65
2, 308495, Note_on_c, 0, 63, 0
2, 308520, Note_on_c, 0, 67, 65
2, 308615, Note_on_c, 0, 67, 0
2, 308640, Note_on_c, 0, 65, 65
2, 308735, Note_on_c, 0, 65, 0
2, 308760, Note_on_c, 0, 67, 65
2, 308782, Note_on_c, 0, 72, 0
2, 308855, Note_on_c, 0, 67, 0
2, 308880, Note_on_c, 0, 65, 65
2, 308880, Note_on_c, 0, 75, 65
2, 308880, Note_on_c, 0, 71, 65
2, 308975, Note_on_c, 0, 71, 0
2, 308975, Note_on_c, 0, 75, 0
2, 308975, Note_on_c, 0, 65, 0
2, 309000, Note_on_c, 0, 67, 65
2, 309000, Note_on_c, 0, 74, 65
2, 309095, Note_on_c, 0, 74, 0
2, 309095, Note_on_c, 0, 67, 0
2, 309120, Note_on_c, 0, 72, 65
2, 309120, Note_on_c, 0, 60, 65
2, 309215, Note_on_c, 0, 60, 0
2, 309240, Note_on_c, 0, 67, 65
2, 309310, Note_on_c, 0, 72, 0
2, 309335, Note_on_c, 0, 67, 0
2, 309360, Note_on_c, 0, 63, 65
2, 309455, Note_on_c, 0, 63, 0
2, 309480, Note_on_c, 0, 67, 65
2, 309480, Note_on_c, 0, 72, 65
2, 309575, Note_on_c, 0, 72, 0
2, 309575, Note_on_c, 0, 67, 0
2, 309600, Note_on_c, 0, 73, 65
2, 309695, Note_on_c, 0, 73, 0
2, 309720, Note_on_c, 0, 67, 65
2, 309720, Note_on_c, 0, 74, 65
2, 309815, Note_on_c, 0, 74, 0
2, 309815, Note_on_c, 0, 67, 0
2, 309840, Note_on_c, 0, 65, 65
2, 309935, Note_on_c, 0, 65, 0
2, 309960, Note_on_c, 0, 67, 65
2, 309960, Note_on_c, 0, 74, 65
2, 310055, Note_on_c, 0, 74, 0
2, 310055, Note_on_c, 0, 67, 0
2, 310080, Note_on_c, 0, 60, 65
2, 310080, Note_on_c, 0, 77, 65
2, 310175, Note_on_c, 0, 77, 0
2, 310175, Note_on_c, 0, 60, 0
2, 310200, Note_on_c, 0, 67, 65
2, 310200, Note_on_c, 0, 75, 65
2, 310295, Note_on_c, 0, 75, 0
2, 310295, Note_on_c, 0, 67, 0
2, 310320, Note_on_c, 0, 63, 65
2, 310415, Note_on_c, 0, 63, 0
2, 310440, Note_on_c, 0, 67, 65
2, 310440, Note_on_c, 0, 75, 65
2, 310535, Note_on_c, 0, 75, 0
2, 310535, Note_on_c, 0, 67, 0
2, 310560, Note_on_c, 0, 76, 65
2, 310655, Note_on_c, 0, 76, 0
2, 310680, Note_on_c, 0, 77, 65
2, 310775, Note_on_c, 0, 77, 0
2, 310920, Note_on_c, 0, 77, 65
2, 311015, Note_on_c, 0, 77, 0
2, 311040, Note_on_c, 0, 78, 65
2, 311135, Note_on_c, 0, 78, 0
2, 311160, Note_on_c, 0, 60, 65
2, 311160, Note_on_c, 0, 79, 65
2, 311255, Note_on_c, 0, 79, 0
2, 311255, Note_on_c, 0, 60, 0
2, 311400, Note_on_c, 0, 60, 65
2, 311400, Note_on_c, 0, 79, 65
2, 311495, Note_on_c, 0, 79, 0
2, 311495, Note_on_c, 0, 60, 0
2, 311520, Note_on_c, 0, 82, 65
2, 311615, Note_on_c, 0, 82, 0
2, 311640, Note_on_c, 0, 60, 65
2, 311640, Note_on_c, 0, 80, 65
2, 311735, Note_on_c, 0, 80, 0
2, 311735, Note_on_c, 0, 60, 0
2, 311880, Note_on_c, 0, 63, 65
2, 311880, Note_on_c, 0, 84, 65
2, 311975, Note_on_c, 0, 84, 0
2, 311975, Note_on_c, 0, 63, 0
2, 312000, Note_on_c, 0, 84, 65
2, 312095, Note_on_c, 0, 84, 0
2, 312120, Note_on_c, 0, 63, 65
2, 312120, Note_on_c, 0, 72, 65
2, 312215, Note_on_c, 0, 72, 0
2, 312215, Note_on_c, 0, 63, 0
2, 312240, Note_on_c, 0, 72, 65
2, 312240, Note_on_c, 0, 60, 65
2, 312335, Note_on_c, 0, 60, 0
2, 312360, Note_on_c, 0, 63, 65
2, 312455, Note_on_c, 0, 63, 0
2, 312600, Note_on_c, 0, 65, 65
2, 312622, Note_on_c, 0, 72, 0
2, 312695, Note_on_c, 0, 65, 0
2, 312720, Note_on_c, 0, 62, 65
2, 312720, Note_on_c, 0, 75, 65
2, 312815, Note_on_c, 0, 75, 0
2, 312815, Note_on_c, 0, 62, 0
2, 312840, Note_on_c, 0, 65, 65
2, 312840, Note_on_c, 0, 74, 65
2, 312935, Note_on_c, 0, 74, 0
2, 312935, Note_on_c, 0, 65, 0
2, 312960, Note_on_c, 0, 72, 95
2, 313055, Note_on_c, 0, 72, 0
2, 313080, Note_on_c, 0, 72, 95
2, 313175, Note_on_c, 0, 72, 0
2, 313200, Note_on_c, 0, 72, 95
2, 313222, Note_on_c, 0, 72, 0
2, 313230, Note_on_c, 0, 74, 95
2, 313252, Note_on_c, 0, 74, 0
2, 313260, Note_on_c, 0, 72, 95
2, 313282, Note_on_c, 0, 72, 0
2, 313290, Note_on_c, 0, 74, 95
2, 313312, Note_on_c, 0, 74, 0
2, 313320, Note_on_c, 0, 71, 95
2, 313367, Note_on_c, 0, 71, 0
2, 313380, Note_on_c, 0, 72, 95
2, 313427, Note_on_c, 0, 72, 0
2, 313440, Note_on_c, 0, 74, 95
2, 313535, Note_on_c, 0, 74, 0
2, 313560, Note_on_c, 0, 74, 95
2, 313655, Note_on_c, 0, 74, 0
2, 313680, Note_on_c, 0, 74, 95
2, 313702, Note_on_c, 0, 74, 0
2, 313710, Note_on_c, 0, 75, 95
2, 313732, Note_on_c, 0, 75, 0
2, 313740, Note_on_c, 0, 74, 95
2, 313762, Note_on_c, 0, 74, 0
2, 313770, Note_on_c, 0, 75, 95
2, 313792, Note_on_c, 0, 75, 0
2, 313800, Note_on_c, 0, 72, 95
2, 313847, Note_on_c, 0, 72, 0
2, 313860, Note_on_c, 0, 74, 95
2, 313907, Note_on_c, 0, 74, 0
2, 313920, Note_on_c, 0, 75, 95
2, 314015, Note_on_c, 0, 75, 0
2, 314040, Note_on_c, 0, 75, 95
2, 314135, Note_on_c, 0, 75, 0
2, 314160, Note_on_c, 0, 75, 95
2, 314182, Note_on_c, 0, 75, 0
2, 314190, Note_on_c, 0, 77, 95
2, 314212, Note_on_c, 0, 77, 0
2, 314220, Note_on_c, 0, 75, 95
2, 314242, Note_on_c, 0, 75, 0
2, 314250, Note_on_c, 0, 77, 95
2, 314272, Note_on_c, 0, 77, 0
2, 314280, Note_on_c, 0, 74, 95
2, 314327, Note_on_c, 0, 74, 0
2, 314340, Note_on_c, 0, 75, 95
2, 314387, Note_on_c, 0, 75, 0
2, 314400, Note_on_c, 0, 77, 95
2, 314495, Note_on_c, 0, 77, 0
2, 314520, Note_on_c, 0, 77, 95
2, 314615, Note_on_c, 0, 77, 0
2, 314640, Note_on_c, 0, 77, 95
2, 314662, Note_on_c, 0, 77, 0
2, 314670, Note_on_c, 0, 79, 95
2, 314692, Note_on_c, 0, 79, 0
2, 314700, Note_on_c, 0, 77, 95
2, 314722, Note_on_c, 0, 77, 0
2, 314730, Note_on_c, 0, 79, 95
2, 314752, Note_on_c, 0, 79, 0
2, 314760, Note_on_c, 0, 75, 95
2, 314807, Note_on_c, 0, 75, 0
2, 314820, Note_on_c, 0, 77, 95
2, 314867, Note_on_c, 0, 77, 0
2, 314880, Note_on_c, 0, 79, 95
2, 314880, Note_on_c, 0, 60, 95
2, 314942, Note_on_c, 0, 79, 0
2, 314960, Note_on_c, 0, 84, 95
2, 315022, Note_on_c, 0, 84, 0
2, 315040, Note_on_c, 0, 82, 95
2, 315102, Note_on_c, 0, 82, 0
2, 315120, Note_on_c, 0, 80, 95
2, 315182, Note_on_c, 0, 80, 0
2, 315200, Note_on_c, 0, 79, 95
2, 315262, Note_on_c, 0, 79, 0
2, 315280, Note_on_c, 0, 77, 95
2, 315342, Note_on_c, 0, 77, 0
2, 315360, Note_on_c, 0, 75, 95
2, 315422, Note_on_c, 0, 75, 0
2, 315440, Note_on_c, 0, 74, 95
2, 315455, Note_on_c, 0, 60, 0
2, 315502, Note_on_c, 0, 74, 0
2, 315520, Note_on_c, 0, 72, 95
2, 315582, Note_on_c, 0, 72, 0
2, 315600, Note_on_c, 0, 70, 95
2, 315662, Note_on_c, 0, 70, 0
2, 315680, Note_on_c, 0, 68, 95
2, 315742, Note_on_c, 0, 68, 0
2, 315760, Note_on_c, 0, 67, 95
2, 315822, Note_on_c, 0, 67, 0
2, 315840, Note_on_c, 0, 60, 95
2, 315840, Note_on_c, 0, 68, 95
2, 316030, Note_on_c, 0, 68, 0
2, 316030, Note_on_c, 0, 60, 0
2, 316080, Note_on_c, 0, 72, 95
2, 316080, Note_on_c, 0, 80, 95
2, 316080, Note_on_c, 0, 77, 95
2, 316270, Note_on_c, 0, 77, 0
2, 316270, Note_on_c, 0, 80, 0
2, 316270, Note_on_c, 0, 72, 0
2, 316320, Note_on_c, 0, 72, 95
2, 316320, Note_on_c, 0, 75, 95
2, 316320, Note_on_c, 0, 79, 95
2, 316510, Note_on_c, 0, 79, 0
2, 316510, Note_on_c, 0, 75, 0
2, 316510, Note_on_c, 0, 72, 0
2, 316560, Note_on_c, 0, 62, 95
2, 316560, Note_on_c, 0, 65, 95
2, 316560, Note_on_c, 0, 71, 95
2, 316750, Note_on_c, 0, 71, 0
2, 316750, Note_on_c, 0, 65, 0
2, 316750, Note_on_c, 0, 62, 0
2, 316800, Note_on_c, 0, 72, 95
2, 316800, Note_on_c, 0, 63, 95
2, 316990, Note_on_c, 0, 63, 0
2, 316990, Note_on_c, 0, 72, 0
2, 317040, Note_on_c, 0, 79, 95
2, 317102, Note_on_c, 0, 79, 0
2, 317120, Note_on_c, 0, 78, 95
2, 317182, Note_on_c, 0, 78, 0
2, 317200, Note_on_c, 0, 80, 95
2, 317262, Note_on_c, 0, 80, 0
2, 317280, Note_on_c, 0, 79, 95
2, 317342, Note_on_c, 0, 79, 0
2, 317360, Note_on_c, 0, 77, 95
2, 317422, Note_on_c, 0, 77, 0
2, 317440, Note_on_c, 0, 75, 95
2, 317502, Note_on_c, 0, 75, 0
2, 317520, Note_on_c, 0, 60, 95
2, 317520, Note_on_c, 0, 74, 95
2, 317520, Note_on_c, 0, 63, 95
2, 317582, Note_on_c, 0, 74, 0
2, 317600, Note_on_c, 0, 75, 95
2, 317662, Note_on_c, 0, 75, 0
2, 317680, Note_on_c, 0, 72, 95
2, 317710, Note_on_c, 0, 63, 0
2, 317710, Note_on_c, 0, 60, 0
2, 317742, Note_on_c, 0, 72, 0
2, 317760, Note_on_c, 0, 71, 95
2, 317760, Note_on_c, 0, 65, 95
2, 317760, Note_on_c, 0, 62, 95
2, 317950, Note_on_c, 0, 62, 0
2, 317950, Note_on_c, 0, 65, 0
2, 317950, Note_on_c, 0, 71, 0
2, 318000, Note_on_c, 0, 77, 95
2, 318062, Note_on_c, 0, 77, 0
2, 318080, Note_on_c, 0, 76, 95
2, 318142, Note_on_c, 0, 76, 0
2, 318160, Note_on_c, 0, 79, 95
2, 318222, Note_on_c, 0, 79, 0
2, 318240, Note_on_c, 0, 77, 95
2, 318302, Note_on_c, 0, 77, 0
2, 318320, Note_on_c, 0, 75, 95
2, 318382, Note_on_c, 0, 75, 0
2, 318400, Note_on_c, 0, 74, 95
2, 318462, Note_on_c, 0, 74, 0
2, 318480, Note_on_c, 0, 65, 95
2, 318480, Note_on_c, 0, 72, 95
2, 318480, Note_on_c, 0, 62, 95
2, 318542, Note_on_c, 0, 72, 0
2, 318560, Note_on_c, 0, 71, 95
2, 318622, Note_on_c, 0, 71, 0
2, 318640, Note_on_c, 0, 74, 95
2, 318670, Note_on_c, 0, 62, 0
2, 318670, Note_on_c, 0, 65, 0
2, 318702, Note_on_c, 0, 74, 0
2, 318720, Note_on_c, 0, 60, 95
2, 318720, Note_on_c, 0, 72, 95
2, 318720, Note_on_c, 0, 63, 95
2, 318910, Note_on_c, 0, 63, 0
2, 318910, Note_on_c, 0, 72, 0
2, 318910, Note_on_c, 0, 60, 0
2, 318960, Note_on_c, 0, 79, 95
2, 319022, Note_on_c, 0, 79, 0
2, 319040, Note_on_c, 0, 78, 95
2, 319102, Note_on_c, 0, 78, 0
2, 319120, Note_on_c, 0, 80, 95
2, 319182, Note_on_c, 0, 80, 0
2, 319200, Note_on_c, 0, 79, 95
2, 319262, Note_on_c, 0, 79, 0
2, 319280, Note_on_c, 0, 77, 95
2, 319342, Note_on_c, 0, 77, 0
2, 319360, Note_on_c, 0, 75, 95
2, 319422, Note_on_c, 0, 75, 0
2, 319440, Note_on_c, 0, 74, 95
2, 319502, Note_on_c, 0, 74, 0
2, 319520, Note_on_c, 0, 75, 95
2, 319582, Note_on_c, 0, 75, 0
2, 319600, Note_on_c, 0, 72, 95
2, 319662, Note_on_c, 0, 72, 0
2, 319680, Note_on_c, 0, 80, 95
2, 319742, Note_on_c, 0, 80, 0
2, 319760, Note_on_c, 0, 79, 95
2, 319822, Note_on_c, 0, 79, 0
2, 319840, Note_on_c, 0, 77, 95
2, 319902, Note_on_c, 0, 77, 0
2, 319920, Note_on_c, 0, 75, 95
2, 319982, Note_on_c, 0, 75, 0
2, 320000, Note_on_c, 0, 74, 95
2, 320062, Note_on_c, 0, 74, 0
2, 320080, Note_on_c, 0, 72, 95
2, 320142, Note_on_c, 0, 72, 0
2, 320160, Note_on_c, 0, 71, 95
2, 320222, Note_on_c, 0, 71, 0
2, 320240, Note_on_c, 0, 68, 95
2, 320302, Note_on_c, 0, 68, 0
2, 320320, Note_on_c, 0, 67, 95
2, 320382, Note_on_c, 0, 67, 0
2, 320400, Note_on_c, 0, 65, 95
2, 320462, Note_on_c, 0, 65, 0
2, 320480, Note_on_c, 0, 63, 95
2, 320542, Note_on_c, 0, 63, 0
2, 320560, Note_on_c, 0, 62, 95
2, 320622, Note_on_c, 0, 62, 0
2, 320640, Note_on_c, 0, 60, 95
2, 320830, Note_on_c, 0, 60, 0
2, 321600, Note_on_c, 0, 60, 95
2, 321600, Note_on_c, 0, 72, 95
2, 321790, Note_on_c, 0, 60, 0
2, 321840, Note_on_c, 0, 63, 95
2, 321982, Note_on_c, 0, 72, 0
2, 322030, Note_on_c, 0, 63, 0
2, 322080, Note_on_c, 0, 75, 95
2, 322270, Note_on_c, 0, 75, 0
2, 322320, Note_on_c, 0, 79, 95
2, 322510, Note_on_c, 0, 79, 0
2, 322560, Note_on_c, 0, 84, 95
2, 322750, Note_on_c, 0, 84, 0
2, 322800, Note_on_c, 0, 87, 95
2, 322990, Note_on_c, 0, 87, 0
2, 323520, Note_on_c, 0, 68, 95
2, 323760, Note_on_c, 0, 60, 95
2, 323902, Note_on_c, 0, 68, 0
2, 323950, Note_on_c, 0, 60, 0
2, 324000, Note_on_c, 0, 72, 95
2, 324190, Note_on_c, 0, 72, 0
2, 324240, Note_on_c, 0, 75, 95
2, 324430, Note_on_c, 0, 75, 0
2, 324480, Note_on_c, 0, 81, 95
2, 324670, Note_on_c, 0, 81, 0
2, 324720, Note_on_c, 0, 84, 95
2, 324910, Note_on_c, 0, 84, 0
2, 325200, Note_on_c, 0, 84, 95
2, 325262, Note_on_c, 0, 84, 0
2, 325280, Note_on_c, 0, 87, 95
2, 325342, Note_on_c, 0, 87, 0
2, 325360, Note_on_c, 0, 84, 95
2, 325422, Note_on_c, 0, 84, 0
2, 325440, Note_on_c, 0, 81, 95
2, 325502, Note_on_c, 0, 81, 0
2, 325520, Note_on_c, 0, 84, 95
2, 325582, Note_on_c, 0, 84, 0
2, 325600, Note_on_c, 0, 81, 95
2, 325662, Note_on_c, 0, 81, 0
2, 325680, Note_on_c, 0, 78, 95
2, 325742, Note_on_c, 0, 78, 0
2, 325760, Note_on_c, 0, 81, 95
2, 325822, Note_on_c, 0, 81, 0
2, 325840, Note_on_c, 0, 78, 95
2, 325902, Note_on_c, 0, 78, 0
2, 325920, Note_on_c, 0, 75, 95
2, 325920, Note_on_c, 0, 60, 95
2, 325982, Note_on_c, 0, 75, 0
2, 326000, Note_on_c, 0, 78, 95
2, 326062, Note_on_c, 0, 78, 0
2, 326080, Note_on_c, 0, 75, 95
2, 326110, Note_on_c, 0, 60, 0
2, 326142, Note_on_c, 0, 75, 0
2, 326160, Note_on_c, 0, 63, 95
2, 326160, Note_on_c, 0, 72, 95
2, 326222, Note_on_c, 0, 72, 0
2, 326240, Note_on_c, 0, 75, 95
2, 326302, Note_on_c, 0, 75, 0
2, 326320, Note_on_c, 0, 72, 95
2, 326350, Note_on_c, 0, 63, 0
2, 326382, Note_on_c, 0, 72, 0
2, 326400, Note_on_c, 0, 67, 95
2, 326480, Note_on_c, 0, 60, 95
2, 326542, Note_on_c, 0, 60, 0
2, 326560, Note_on_c, 0, 63, 95
2, 326590, Note_on_c, 0, 67, 0
2, 326622, Note_on_c, 0, 63, 0
2, 326640, Note_on_c, 0, 79, 95
2, 326720, Note_on_c, 0, 60, 95
2, 326782, Note_on_c, 0, 60, 0
2, 326800, Note_on_c, 0, 63, 95
2, 326862, Note_on_c, 0, 63, 0
2, 326960, Note_on_c, 0, 60, 95
2, 327022, Note_on_c, 0, 60, 0
2, 327022, Note_on_c, 0, 79, 0
2, 327040, Note_on_c, 0, 63, 95
2, 327102, Note_on_c, 0, 63, 0
2, 327120, Note_on_c, 0, 77, 95
2, 327167, Note_on_c, 0, 77, 0
2, 327180, Note_on_c, 0, 75, 95
2, 327200, Note_on_c, 0, 60, 95
2, 327227, Note_on_c, 0, 75, 0
2, 327240, Note_on_c, 0, 74, 95
2, 327262, Note_on_c, 0, 60, 0
2, 327280, Note_on_c, 0, 63, 95
2, 327287, Note_on_c, 0, 74, 0
2, 327300, Note_on_c, 0, 72, 95
2, 327342, Note_on_c, 0, 63, 0
2, 327347, Note_on_c, 0, 72, 0
2, 327360, Note_on_c, 0, 74, 95
2, 327407, Note_on_c, 0, 74, 0
2, 327420, Note_on_c, 0, 75, 95
2, 327467, Note_on_c, 0, 75, 0
2, 327480, Note_on_c, 0, 74, 95
2, 327520, Note_on_c, 0, 65, 95
2, 327527, Note_on_c, 0, 74, 0
2, 327540, Note_on_c, 0, 75, 95
2, 327582, Note_on_c, 0, 65, 0
2, 327587, Note_on_c, 0, 75, 0
2, 327600, Note_on_c, 0, 74, 95
2, 327647, Note_on_c, 0, 74, 0
2, 327660, Note_on_c, 0, 75, 95
2, 327707, Note_on_c, 0, 75, 0
2, 327720, Note_on_c, 0, 74, 95
2, 327760, Note_on_c, 0, 65, 95
2, 327767, Note_on_c, 0, 74, 0
2, 327780, Note_on_c, 0, 75, 95
2, 327822, Note_on_c, 0, 65, 0
2, 327827, Note_on_c, 0, 75, 0
2, 327840, Note_on_c, 0, 74, 95
2, 327887, Note_on_c, 0, 74, 0
2, 327900, Note_on_c, 0, 75, 95
2, 327947, Note_on_c, 0, 75, 0
2, 327960, Note_on_c, 0, 74, 95
2, 328000, Note_on_c, 0, 65, 95
2, 328007, Note_on_c, 0, 74, 0
2, 328020, Note_on_c, 0, 75, 95
2, 328062, Note_on_c, 0, 65, 0
2, 328067, Note_on_c, 0, 75, 0
2, 328080, Note_on_c, 0, 74, 95
2, 328127, Note_on_c, 0, 74, 0
2, 328140, Note_on_c, 0, 75, 95
2, 328187, Note_on_c, 0, 75, 0
2, 328200, Note_on_c, 0, 72, 95
2, 328240, Note_on_c, 0, 65, 95
2, 328247, Note_on_c, 0, 72, 0
2, 328260, Note_on_c, 0, 74, 95
2, 328302, Note_on_c, 0, 65, 0
2, 328307, Note_on_c, 0, 74, 0
2, 328320, Note_on_c, 0, 60, 65
2, 328400, Note_on_c, 0, 72, 65
2, 328462, Note_on_c, 0, 72, 0
2, 328480, Note_on_c, 0, 84, 65
2, 328510, Note_on_c, 0, 60, 0
2, 328542, Note_on_c, 0, 84, 0
2, 328640, Note_on_c, 0, 71, 65
2, 328702, Note_on_c, 0, 71, 0
2, 328720, Note_on_c, 0, 83, 65
2, 328782, Note_on_c, 0, 83, 0
2, 328800, Note_on_c, 0, 60, 65
2, 328880, Note_on_c, 0, 72, 65
2, 328942, Note_on_c, 0, 72, 0
2, 328960, Note_on_c, 0, 84, 65
2, 328990, Note_on_c, 0, 60, 0
2, 329022, Note_on_c, 0, 84, 0
2, 329120, Note_on_c, 0, 67, 95
2, 329182, Note_on_c, 0, 67, 0
2, 329200, Note_on_c, 0, 79, 95
2, 329262, Note_on_c, 0, 79, 0
2, 329360, Note_on_c, 0, 68, 65
2, 329422, Note_on_c, 0, 68, 0
2, 329440, Note_on_c, 0, 80, 65
2, 329502, Note_on_c, 0, 80, 0
2, 329600, Note_on_c, 0, 67, 65
2, 329662, Note_on_c, 0, 67, 0
2, 329680, Note_on_c, 0, 79, 65
2, 329742, Note_on_c, 0, 79, 0
2, 329840, Note_on_c, 0, 68, 65
2, 329902, Note_on_c, 0, 68, 0
2, 329920, Note_on_c, 0, 80, 65
2, 329982, Note_on_c, 0, 80, 0
2, 330080, Note_on_c, 0, 63, 95
2, 330142, Note_on_c, 0, 63, 0
2, 330160, Note_on_c, 0, 75, 95
2, 330222, Note_on_c, 0, 75, 0
2, 330320, Note_on_c, 0, 65, 65
2, 330382, Note_on_c, 0, 65, 0
2, 330400, Note_on_c, 0, 77, 65
2, 330462, Note_on_c, 0, 77, 0
2, 330560, Note_on_c, 0, 66, 65
2, 330622, Note_on_c, 0, 66, 0
2, 330640, Note_on_c, 0, 78, 65
2, 330702, Note_on_c, 0, 78, 0
2, 330800, Note_on_c, 0, 67, 65
2, 330862, Note_on_c, 0, 67, 0
2, 330880, Note_on_c, 0, 79, 65
2, 330942, Note_on_c, 0, 79, 0
2, 331120, Note_on_c, 0, 67, 65
2, 331182, Note_on_c, 0, 67, 0
2, 331280, Note_on_c, 0, 60, 65
2, 331342, Note_on_c, 0, 60, 0
2, 331360, Note_on_c, 0, 72, 65
2, 331422, Note_on_c, 0, 72, 0
2, 331600, Note_on_c, 0, 71, 65
2, 331662, Note_on_c, 0, 71, 0
2, 331760, Note_on_c, 0, 60, 65
2, 331822, Note_on_c, 0, 60, 0
2, 331840, Note_on_c, 0, 72, 65
2, 331902, Note_on_c, 0, 72, 0
2, 332080, Note_on_c, 0, 67, 97
2, 332142, Note_on_c, 0, 67, 0
2, 332320, Note_on_c, 0, 68, 65
2, 332382, Note_on_c, 0, 68, 0
2, 332560, Note_on_c, 0, 67, 65
2, 332622, Note_on_c, 0, 67, 0
2, 332800, Note_on_c, 0, 68, 65
2, 332862, Note_on_c, 0, 68, 0
2, 333040, Note_on_c, 0, 63, 96
2, 333102, Note_on_c, 0, 63, 0
2, 333280, Note_on_c, 0, 65, 65
2, 333342, Note_on_c, 0, 65, 0
2, 333520, Note_on_c, 0, 66, 65
2, 333582, Note_on_c, 0, 66, 0
2, 333760, Note_on_c, 0, 67, 65
2, 333822, Note_on_c, 0, 67, 0
2, 333822, End_track
3, 0, Start_track
3, 0, MIDI_port, 0
3, 0, Program_c, 1, 0
3, 0, Control_c, 1, 0, 0
3, 0, Note_on_c, 1, 36, 95
3, 0, Note_on_c, 1, 48, 95
3, 382, Note_on_c, 1, 48, 0
3, 382, Note_on_c, 1, 36, 0
3, 480, Note_on_c, 1, 39, 95
3, 480, Note_on_c, 1, 51, 95
3, 670, Note_on_c, 1, 51, 0
3, 670, Note_on_c, 1, 39, 0
3, 720, Note_on_c, 1, 43, 95
3, 720, Note_on_c, 1, 55, 95
3, 910, Note_on_c, 1, 55, 0
3, 910, Note_on_c, 1, 43, 0
3, 3840, Note_on_c, 1, 31, 95
3, 3840, Note_on_c, 1, 43, 95
3, 3840, Note_on_c, 1, 55, 95
3, 4222, Note_on_c, 1, 55, 0
3, 4222, Note_on_c, 1, 43, 0
3, 4222, Note_on_c, 1, 31, 0
3, 4320, Note_on_c, 1, 35, 95
3, 4320, Note_on_c, 1, 47, 95
3, 4320, Note_on_c, 1, 59, 95
3, 4510, Note_on_c, 1, 59, 0
3, 4510, Note_on_c, 1, 47, 0
3, 4510, Note_on_c, 1, 35, 0
3, 4560, Note_on_c, 1, 38, 95
3, 4560, Note_on_c, 1, 50, 95
3, 4750, Note_on_c, 1, 50, 0
3, 4750, Note_on_c, 1, 38, 0
3, 4800, Note_on_c, 1, 43, 95
3, 4800, Note_on_c, 1, 55, 95
3, 4990, Note_on_c, 1, 55, 0
3, 4990, Note_on_c, 1, 43, 0
3, 5040, Note_on_c, 1, 59, 95
3, 5040, Note_on_c, 1, 47, 95
3, 5230, Note_on_c, 1, 47, 0
3, 5230, Note_on_c, 1, 59, 0
3, 7680, Note_on_c, 1, 43, 95
3, 7775, Note_on_c, 1, 43, 0
3, 7800, Note_on_c, 1, 55, 95
3, 7895, Note_on_c, 1, 55, 0
3, 7920, Note_on_c, 1, 43, 95
3, 8015, Note_on_c, 1, 43, 0
3, 8040, Note_on_c, 1, 55, 95
3, 8135, Note_on_c, 1, 55, 0
3, 8160, Note_on_c, 1, 43, 73
3, 8255, Note_on_c, 1, 43, 0
3, 8280, Note_on_c, 1, 55, 75
3, 8375, Note_on_c, 1, 55, 0
3, 8400, Note_on_c, 1, 43, 65
3, 8495, Note_on_c, 1, 43, 0
3, 8520, Note_on_c, 1, 55, 65
3, 8615, Note_on_c, 1, 55, 0
3, 8640, Note_on_c, 1, 43, 95
3, 8735, Note_on_c, 1, 43, 0
3, 8760, Note_on_c, 1, 55, 95
3, 8855, Note_on_c, 1, 55, 0
3, 8880, Note_on_c, 1, 43, 95
3, 8975, Note_on_c, 1, 43, 0
3, 9000, Note_on_c, 1, 55, 95
3, 9095, Note_on_c, 1, 55, 0
3, 9120, Note_on_c, 1, 43, 95
3, 9215, Note_on_c, 1, 43, 0
3, 9240, Note_on_c, 1, 55, 95
3, 9335, Note_on_c, 1, 55, 0
3, 9360, Note_on_c, 1, 43, 95
3, 9455, Note_on_c, 1, 43, 0
3, 9480, Note_on_c, 1, 55, 95
3, 9575, Note_on_c, 1, 55, 0
3, 9600, Note_on_c, 1, 43, 95
3, 9695, Note_on_c, 1, 43, 0
3, 9720, Note_on_c, 1, 55, 95
3, 9815, Note_on_c, 1, 55, 0
3, 9840, Note_on_c, 1, 43, 95
3, 9935, Note_on_c, 1, 43, 0
3, 9960, Note_on_c, 1, 55, 95
3, 10055, Note_on_c, 1, 55, 0
3, 10080, Note_on_c, 1, 43, 76
3, 10175, Note_on_c, 1, 43, 0
3, 10200, Note_on_c, 1, 55, 80
3, 10295, Note_on_c, 1, 55, 0
3, 10320, Note_on_c, 1, 43, 77
3, 10415, Note_on_c, 1, 43, 0
3, 10440, Note_on_c, 1, 55, 64
3, 10535, Note_on_c, 1, 55, 0
3, 10560, Note_on_c, 1, 43, 65
3, 10655, Note_on_c, 1, 43, 0
3, 10680, Note_on_c, 1, 55, 65
3, 10775, Note_on_c, 1, 55, 0
3, 10800, Note_on_c, 1, 43, 65
3, 10895, Note_on_c, 1, 43, 0
3, 10920, Note_on_c, 1, 55, 65
3, 11015, Note_on_c, 1, 55, 0
3, 11040, Note_on_c, 1, 43, 65
3, 11135, Note_on_c, 1, 43, 0
3, 11160, Note_on_c, 1, 55, 65
3, 11255, Note_on_c, 1, 55, 0
3, 11280, Note_on_c, 1, 43, 80
3, 11375, Note_on_c, 1, 43, 0
3, 11400, Note_on_c, 1, 55, 81
3, 11495, Note_on_c, 1, 55, 0
3, 11520, Note_on_c, 1, 43, 95
3, 11615, Note_on_c, 1, 43, 0
3, 11640, Note_on_c, 1, 55, 95
3, 11735, Note_on_c, 1, 55, 0
3, 11760, Note_on_c, 1, 55, 95
3, 11855, Note_on_c, 1, 55, 0
3, 11880, Note_on_c, 1, 55, 95
3, 11975, Note_on_c, 1, 55, 0
3, 12000, Note_on_c, 1, 41, 95
3, 12095, Note_on_c, 1, 41, 0
3, 12120, Note_on_c, 1, 53, 95
3, 12215, Note_on_c, 1, 53, 0
3, 12240, Note_on_c, 1, 53, 95
3, 12335, Note_on_c, 1, 53, 0
3, 12360, Note_on_c, 1, 53, 95
3, 12455, Note_on_c, 1, 53, 0
3, 12480, Note_on_c, 1, 39, 95
3, 12575, Note_on_c, 1, 39, 0
3, 12600, Note_on_c, 1, 51, 95
3, 12695, Note_on_c, 1, 51, 0
3, 12720, Note_on_c, 1, 51, 95
3, 12815, Note_on_c, 1, 51, 0
3, 12840, Note_on_c, 1, 51, 95
3, 12935, Note_on_c, 1, 51, 0
3, 12960, Note_on_c, 1, 35, 95
3, 13055, Note_on_c, 1, 35, 0
3, 13080, Note_on_c, 1, 47, 95
3, 13175, Note_on_c, 1, 47, 0
3, 13200, Note_on_c, 1, 47, 95
3, 13295, Note_on_c, 1, 47, 0
3, 13320, Note_on_c, 1, 47, 95
3, 13415, Note_on_c, 1, 47, 0
3, 13440, Note_on_c, 1, 36, 95
3, 13535, Note_on_c, 1, 36, 0
3, 13560, Note_on_c, 1, 48, 95
3, 13655, Note_on_c, 1, 48, 0
3, 13680, Note_on_c, 1, 48, 95
3, 13775, Note_on_c, 1, 48, 0
3, 13800, Note_on_c, 1, 48, 95
3, 13895, Note_on_c, 1, 48, 0
3, 13920, Note_on_c, 1, 41, 95
3, 14015, Note_on_c, 1, 41, 0
3, 14040, Note_on_c, 1, 53, 95
3, 14135, Note_on_c, 1, 53, 0
3, 14160, Note_on_c, 1, 53, 95
3, 14255, Note_on_c, 1, 53, 0
3, 14280, Note_on_c, 1, 53, 95
3, 14375, Note_on_c, 1, 53, 0
3, 14400, Note_on_c, 1, 39, 95
3, 14495, Note_on_c, 1, 39, 0
3, 14520, Note_on_c, 1, 51, 95
3, 14615, Note_on_c, 1, 51, 0
3, 14640, Note_on_c, 1, 51, 95
3, 14735, Note_on_c, 1, 51, 0
3, 14760, Note_on_c, 1, 51, 95
3, 14855, Note_on_c, 1, 51, 0
3, 14880, Note_on_c, 1, 38, 95
3, 14975, Note_on_c, 1, 38, 0
3, 15000, Note_on_c, 1, 50, 95
3, 15095, Note_on_c, 1, 50, 0
3, 15120, Note_on_c, 1, 50, 95
3, 15215, Note_on_c, 1, 50, 0
3, 15240, Note_on_c, 1, 50, 95
3, 15335, Note_on_c, 1, 50, 0
3, 15360, Note_on_c, 1, 48, 81
3, 15550, Note_on_c, 1, 48, 0
3, 15840, Note_on_c, 1, 53, 65
3, 16030, Note_on_c, 1, 53, 0
3, 16320, Note_on_c, 1, 55, 65
3, 16510, Note_on_c, 1, 55, 0
3, 16800, Note_on_c, 1, 43, 65
3, 16990, Note_on_c, 1, 43, 0
3, 19200, Note_on_c, 1, 46, 95
3, 19200, Note_on_c, 1, 34, 95
3, 19582, Note_on_c, 1, 34, 0
3, 19582, Note_on_c, 1, 46, 0
3, 19680, Note_on_c, 1, 50, 95
3, 19680, Note_on_c, 1, 38, 95
3, 19870, Note_on_c, 1, 38, 0
3, 19870, Note_on_c, 1, 50, 0
3, 19920, Note_on_c, 1, 41, 95
3, 19920, Note_on_c, 1, 53, 95
3, 20110, Note_on_c, 1, 53, 0
3, 20110, Note_on_c, 1, 41, 0
3, 20160, Note_on_c, 1, 58, 95
3, 20160, Note_on_c, 1, 46, 95
3, 20350, Note_on_c, 1, 46, 0
3, 20350, Note_on_c, 1, 58, 0
3, 20400, Note_on_c, 1, 50, 95
3, 20590, Note_on_c, 1, 50, 0
3, 21120, Note_on_c, 1, 51, 50
3, 21215, Note_on_c, 1, 51, 0
3, 21240, Note_on_c, 1, 58, 50
3, 21335, Note_on_c, 1, 58, 0
3, 21360, Note_on_c, 1, 55, 50
3, 21455, Note_on_c, 1, 55, 0
3, 21480, Note_on_c, 1, 58, 50
3, 21575, Note_on_c, 1, 58, 0
3, 21600, Note_on_c, 1, 53, 50
3, 21695, Note_on_c, 1, 53, 0
3, 21720, Note_on_c, 1, 58, 50
3, 21815, Note_on_c, 1, 58, 0
3, 21840, Note_on_c, 1, 56, 50
3, 21935, Note_on_c, 1, 56, 0
3, 21960, Note_on_c, 1, 58, 50
3, 22055, Note_on_c, 1, 58, 0
3, 22080, Note_on_c, 1, 55, 50
3, 22175, Note_on_c, 1, 55, 0
3, 22200, Note_on_c, 1, 58, 50
3, 22295, Note_on_c, 1, 58, 0
3, 22320, Note_on_c, 1, 51, 50
3, 22415, Note_on_c, 1, 51, 0
3, 22440, Note_on_c, 1, 58, 50
3, 22535, Note_on_c, 1, 58, 0
3, 22560, Note_on_c, 1, 50, 50
3, 22655, Note_on_c, 1, 50, 0
3, 22680, Note_on_c, 1, 58, 50
3, 22775, Note_on_c, 1, 58, 0
3, 22800, Note_on_c, 1, 46, 50
3, 22895, Note_on_c, 1, 46, 0
3, 22920, Note_on_c, 1, 58, 50
3, 23015, Note_on_c, 1, 58, 0
3, 23040, Note_on_c, 1, 51, 50
3, 23135, Note_on_c, 1, 51, 0
3, 23160, Note_on_c, 1, 58, 50
3, 23255, Note_on_c, 1, 58, 0
3, 23280, Note_on_c, 1, 55, 50
3, 23375, Note_on_c, 1, 55, 0
3, 23400, Note_on_c, 1, 58, 50
3, 23495, Note_on_c, 1, 58, 0
3, 23520, Note_on_c, 1, 53, 50
3, 23615, Note_on_c, 1, 53, 0
3, 23640, Note_on_c, 1, 58, 50
3, 23735, Note_on_c, 1, 58, 0
3, 23760, Note_on_c, 1, 56, 50
3, 23855, Note_on_c, 1, 56, 0
3, 23880, Note_on_c, 1, 58, 50
3, 23975, Note_on_c, 1, 58, 0
3, 24000, Note_on_c, 1, 55, 50
3, 24095, Note_on_c, 1, 55, 0
3, 24120, Note_on_c, 1, 58, 50
3, 24215, Note_on_c, 1, 58, 0
3, 24240, Note_on_c, 1, 51, 50
3, 24335, Note_on_c, 1, 51, 0
3, 24360, Note_on_c, 1, 58, 50
3, 24455, Note_on_c, 1, 58, 0
3, 24480, Note_on_c, 1, 50, 50
3, 24575, Note_on_c, 1, 50, 0
3, 24600, Note_on_c, 1, 58, 50
3, 24695, Note_on_c, 1, 58, 0
3, 24720, Note_on_c, 1, 46, 50
3, 24815, Note_on_c, 1, 46, 0
3, 24840, Note_on_c, 1, 58, 50
3, 24935, Note_on_c, 1, 58, 0
3, 24960, Note_on_c, 1, 51, 50
3, 25055, Note_on_c, 1, 51, 0
3, 25080, Note_on_c, 1, 58, 50
3, 25175, Note_on_c, 1, 58, 0
3, 25200, Note_on_c, 1, 55, 50
3, 25295, Note_on_c, 1, 55, 0
3, 25320, Note_on_c, 1, 58, 50
3, 25415, Note_on_c, 1, 58, 0
3, 25440, Note_on_c, 1, 50, 55
3, 25535, Note_on_c, 1, 50, 0
3, 25560, Note_on_c, 1, 58, 55
3, 25655, Note_on_c, 1, 58, 0
3, 25680, Note_on_c, 1, 53, 61
3, 25775, Note_on_c, 1, 53, 0
3, 25800, Note_on_c, 1, 58, 60
3, 25895, Note_on_c, 1, 58, 0
3, 25920, Note_on_c, 1, 48, 65
3, 26015, Note_on_c, 1, 48, 0
3, 26040, Note_on_c, 1, 58, 65
3, 26135, Note_on_c, 1, 58, 0
3, 26160, Note_on_c, 1, 55, 70
3, 26255, Note_on_c, 1, 55, 0
3, 26280, Note_on_c, 1, 58, 70
3, 26375, Note_on_c, 1, 58, 0
3, 26400, Note_on_c, 1, 48, 74
3, 26495, Note_on_c, 1, 48, 0
3, 26520, Note_on_c, 1, 58, 74
3, 26615, Note_on_c, 1, 58, 0
3, 26640, Note_on_c, 1, 55, 80
3, 26735, Note_on_c, 1, 55, 0
3, 26760, Note_on_c, 1, 58, 86
3, 26855, Note_on_c, 1, 58, 0
3, 26880, Note_on_c, 1, 53, 95
3, 26880, Note_on_c, 1, 48, 95
3, 26880, Note_on_c, 1, 57, 95
3, 27647, Note_on_c, 1, 57, 0
3, 27647, Note_on_c, 1, 48, 0
3, 27647, Note_on_c, 1, 53, 0
3, 28080, Note_on_c, 1, 58, 95
3, 28270, Note_on_c, 1, 58, 0
3, 28320, Note_on_c, 1, 59, 95
3, 28510, Note_on_c, 1, 59, 0
3, 29040, Note_on_c, 1, 58, 65
3, 29230, Note_on_c, 1, 58, 0
3, 29280, Note_on_c, 1, 59, 65
3, 29470, Note_on_c, 1, 59, 0
3, 30000, Note_on_c, 1, 58, 65
3, 30190, Note_on_c, 1, 58, 0
3, 30240, Note_on_c, 1, 59, 65
3, 30430, Note_on_c, 1, 59, 0
3, 30720, Note_on_c, 1, 58, 65
3, 30910, Note_on_c, 1, 58, 0
3, 30960, Note_on_c, 1, 59, 65
3, 31150, Note_on_c, 1, 59, 0
3, 31200, Note_on_c, 1, 58, 65
3, 31390, Note_on_c, 1, 58, 0
3, 31440, Note_on_c, 1, 59, 65
3, 31630, Note_on_c, 1, 59, 0
3, 31680, Note_on_c, 1, 58, 65
3, 31870, Note_on_c, 1, 58, 0
3, 35520, Note_on_c, 1, 56, 65
3, 35807, Note_on_c, 1, 56, 0
3, 35880, Note_on_c, 1, 55, 65
3, 35927, Note_on_c, 1, 55, 0
3, 35940, Note_on_c, 1, 56, 65
3, 35987, Note_on_c, 1, 56, 0
3, 36000, Note_on_c, 1, 58, 65
3, 36095, Note_on_c, 1, 58, 0
3, 36120, Note_on_c, 1, 56, 65
3, 36215, Note_on_c, 1, 56, 0
3, 36240, Note_on_c, 1, 55, 65
3, 36335, Note_on_c, 1, 55, 0
3, 36360, Note_on_c, 1, 53, 65
3, 36455, Note_on_c, 1, 53, 0
3, 36480, Note_on_c, 1, 51, 65
3, 36862, Note_on_c, 1, 51, 0
3, 36960, Note_on_c, 1, 50, 65
3, 37150, Note_on_c, 1, 50, 0
3, 39360, Note_on_c, 1, 58, 65
3, 39647, Note_on_c, 1, 58, 0
3, 39720, Note_on_c, 1, 57, 65
3, 39767, Note_on_c, 1, 57, 0
3, 39780, Note_on_c, 1, 58, 65
3, 39827, Note_on_c, 1, 58, 0
3, 39960, Note_on_c, 1, 58, 65
3, 40055, Note_on_c, 1, 58, 0
3, 40080, Note_on_c, 1, 56, 65
3, 40175, Note_on_c, 1, 56, 0
3, 40200, Note_on_c, 1, 55, 65
3, 40295, Note_on_c, 1, 55, 0
3, 40320, Note_on_c, 1, 53, 65
3, 40702, Note_on_c, 1, 53, 0
3, 40800, Note_on_c, 1, 51, 75
3, 40990, Note_on_c, 1, 51, 0
3, 42480, Note_on_c, 1, 58, 95
3, 42670, Note_on_c, 1, 58, 0
3, 43200, Note_on_c, 1, 56, 65
3, 43390, Note_on_c, 1, 56, 0
3, 44400, Note_on_c, 1, 58, 65
3, 44782, Note_on_c, 1, 58, 0
3, 44880, Note_on_c, 1, 59, 65
3, 45070, Note_on_c, 1, 59, 0
3, 46080, Note_on_c, 1, 51, 95
3, 46175, Note_on_c, 1, 51, 0
3, 46200, Note_on_c, 1, 55, 95
3, 46295, Note_on_c, 1, 55, 0
3, 46320, Note_on_c, 1, 51, 95
3, 46415, Note_on_c, 1, 51, 0
3, 46440, Note_on_c, 1, 55, 95
3, 46535, Note_on_c, 1, 55, 0
3, 46560, Note_on_c, 1, 59, 95
3, 46560, Note_on_c, 1, 49, 95
3, 46655, Note_on_c, 1, 49, 0
3, 46680, Note_on_c, 1, 53, 95
3, 46775, Note_on_c, 1, 53, 0
3, 46800, Note_on_c, 1, 49, 95
3, 46895, Note_on_c, 1, 49, 0
3, 46920, Note_on_c, 1, 53, 95
3, 46942, Note_on_c, 1, 59, 0
3, 47015, Note_on_c, 1, 53, 0
3, 47040, Note_on_c, 1, 48, 95
3, 47135, Note_on_c, 1, 48, 0
3, 47160, Note_on_c, 1, 52, 95
3, 47255, Note_on_c, 1, 52, 0
3, 47280, Note_on_c, 1, 46, 95
3, 47280, Note_on_c, 1, 52, 95
3, 47470, Note_on_c, 1, 52, 0
3, 47470, Note_on_c, 1, 46, 0
3, 48000, Note_on_c, 1, 48, 95
3, 48000, Note_on_c, 1, 44, 95
3, 48000, Note_on_c, 1, 53, 95
3, 48640, Note_on_c, 1, 59, 95
3, 48702, Note_on_c, 1, 59, 0
3, 48767, Note_on_c, 1, 48, 0
3, 48767, Note_on_c, 1, 44, 0
3, 48767, Note_on_c, 1, 53, 0
3, 48880, Note_on_c, 1, 55, 95
3, 48942, Note_on_c, 1, 55, 0
3, 48960, Note_on_c, 1, 41, 95
3, 48960, Note_on_c, 1, 29, 95
3, 48960, Note_on_c, 1, 56, 95
3, 49022, Note_on_c, 1, 56, 0
3, 49120, Note_on_c, 1, 52, 95
3, 49182, Note_on_c, 1, 52, 0
3, 49200, Note_on_c, 1, 53, 95
3, 49262, Note_on_c, 1, 53, 0
3, 49280, Note_on_c, 1, 56, 95
3, 49342, Note_on_c, 1, 56, 0
3, 49360, Note_on_c, 1, 47, 95
3, 49422, Note_on_c, 1, 47, 0
3, 49440, Note_on_c, 1, 48, 95
3, 49502, Note_on_c, 1, 48, 0
3, 49520, Note_on_c, 1, 53, 95
3, 49582, Note_on_c, 1, 53, 0
3, 49600, Note_on_c, 1, 43, 95
3, 49662, Note_on_c, 1, 43, 0
3, 49680, Note_on_c, 1, 44, 95
3, 49727, Note_on_c, 1, 29, 0
3, 49727, Note_on_c, 1, 41, 0
3, 49742, Note_on_c, 1, 44, 0
3, 49760, Note_on_c, 1, 48, 95
3, 49822, Note_on_c, 1, 48, 0
3, 49840, Note_on_c, 1, 40, 95
3, 49902, Note_on_c, 1, 40, 0
3, 49920, Note_on_c, 1, 41, 95
3, 50207, Note_on_c, 1, 41, 0
3, 50280, Note_on_c, 1, 36, 95
3, 50375, Note_on_c, 1, 36, 0
3, 50400, Note_on_c, 1, 44, 95
3, 50495, Note_on_c, 1, 44, 0
3, 50520, Note_on_c, 1, 41, 95
3, 50615, Note_on_c, 1, 41, 0
3, 50640, Note_on_c, 1, 48, 95
3, 50735, Note_on_c, 1, 48, 0
3, 50760, Note_on_c, 1, 44, 95
3, 50855, Note_on_c, 1, 44, 0
3, 50880, Note_on_c, 1, 53, 95
3, 50975, Note_on_c, 1, 53, 0
3, 51000, Note_on_c, 1, 48, 95
3, 51095, Note_on_c, 1, 48, 0
3, 51120, Note_on_c, 1, 56, 95
3, 51215, Note_on_c, 1, 56, 0
3, 51240, Note_on_c, 1, 53, 95
3, 51335, Note_on_c, 1, 53, 0
3, 51480, Note_on_c, 1, 56, 95
3, 51575, Note_on_c, 1, 56, 0
3, 53040, Note_on_c, 1, 56, 95
3, 53230, Note_on_c, 1, 56, 0
3, 53520, Note_on_c, 1, 57, 95
3, 53710, Note_on_c, 1, 57, 0
3, 53760, Note_on_c, 1, 58, 94
3, 53950, Note_on_c, 1, 58, 0
3, 54960, Note_on_c, 1, 58, 65
3, 55535, Note_on_c, 1, 58, 0
3, 57120, Note_on_c, 1, 53, 65
3, 57215, Note_on_c, 1, 53, 0
3, 57360, Note_on_c, 1, 56, 65
3, 57455, Note_on_c, 1, 56, 0
3, 57600, Note_on_c, 1, 55, 65
3, 57695, Note_on_c, 1, 55, 0
3, 57840, Note_on_c, 1, 58, 65
3, 57935, Note_on_c, 1, 58, 0
3, 58080, Note_on_c, 1, 56, 65
3, 58175, Note_on_c, 1, 56, 0
3, 58560, Note_on_c, 1, 58, 65
3, 58655, Note_on_c, 1, 58, 0
3, 59040, Note_on_c, 1, 58, 76
3, 59135, Note_on_c, 1, 58, 0
3, 59520, Note_on_c, 1, 51, 95
3, 59615, Note_on_c, 1, 51, 0
3, 59640, Note_on_c, 1, 58, 95
3, 59735, Note_on_c, 1, 58, 0
3, 59760, Note_on_c, 1, 55, 95
3, 59855, Note_on_c, 1, 55, 0
3, 59880, Note_on_c, 1, 58, 95
3, 59975, Note_on_c, 1, 58, 0
3, 60000, Note_on_c, 1, 50, 95
3, 60095, Note_on_c, 1, 50, 0
3, 60120, Note_on_c, 1, 58, 95
3, 60215, Note_on_c, 1, 58, 0
3, 60240, Note_on_c, 1, 56, 95
3, 60335, Note_on_c, 1, 56, 0
3, 60360, Note_on_c, 1, 58, 95
3, 60455, Note_on_c, 1, 58, 0
3, 60480, Note_on_c, 1, 51, 95
3, 60575, Note_on_c, 1, 51, 0
3, 60600, Note_on_c, 1, 58, 95
3, 60695, Note_on_c, 1, 58, 0
3, 60720, Note_on_c, 1, 55, 95
3, 60815, Note_on_c, 1, 55, 0
3, 60840, Note_on_c, 1, 58, 95
3, 60935, Note_on_c, 1, 58, 0
3, 60960, Note_on_c, 1, 53, 95
3, 61055, Note_on_c, 1, 53, 0
3, 61200, Note_on_c, 1, 58, 95
3, 61295, Note_on_c, 1, 58, 0
3, 61440, Note_on_c, 1, 58, 95
3, 61440, Note_on_c, 1, 55, 95
3, 61630, Note_on_c, 1, 55, 0
3, 61630, Note_on_c, 1, 58, 0
3, 62640, Note_on_c, 1, 56, 95
3, 62830, Note_on_c, 1, 56, 0
3, 62880, Note_on_c, 1, 58, 95
3, 63070, Note_on_c, 1, 58, 0
3, 63120, Note_on_c, 1, 46, 95
3, 63310, Note_on_c, 1, 46, 0
3, 63360, Note_on_c, 1, 51, 95
3, 63550, Note_on_c, 1, 51, 0
3, 66000, Note_on_c, 1, 51, 95
3, 66000, Note_on_c, 1, 55, 95
3, 66160, Note_on_c, 1, 59, 95
3, 66190, Note_on_c, 1, 55, 0
3, 66190, Note_on_c, 1, 51, 0
3, 66222, Note_on_c, 1, 59, 0
3, 66240, Note_on_c, 1, 51, 95
3, 66240, Note_on_c, 1, 56, 95
3, 66430, Note_on_c, 1, 56, 0
3, 66430, Note_on_c, 1, 51, 0
3, 66960, Note_on_c, 1, 51, 95
3, 66960, Note_on_c, 1, 53, 95
3, 66960, Note_on_c, 1, 56, 95
3, 67150, Note_on_c, 1, 56, 0
3, 67150, Note_on_c, 1, 53, 0
3, 67150, Note_on_c, 1, 51, 0
3, 67200, Note_on_c, 1, 51, 95
3, 67200, Note_on_c, 1, 55, 95
3, 67390, Note_on_c, 1, 55, 0
3, 67390, Note_on_c, 1, 51, 0
3, 68160, Note_on_c, 1, 39, 95
3, 68160, Note_on_c, 1, 51, 95
3, 68542, Note_on_c, 1, 51, 0
3, 68542, Note_on_c, 1, 39, 0
3, 68640, Note_on_c, 1, 55, 95
3, 68640, Note_on_c, 1, 43, 95
3, 68830, Note_on_c, 1, 43, 0
3, 68830, Note_on_c, 1, 55, 0
3, 68880, Note_on_c, 1, 46, 95
3, 68880, Note_on_c, 1, 58, 95
3, 69070, Note_on_c, 1, 58, 0
3, 69070, Note_on_c, 1, 46, 0
3, 69120, Note_on_c, 1, 51, 95
3, 69310, Note_on_c, 1, 51, 0
3, 69360, Note_on_c, 1, 55, 95
3, 69550, Note_on_c, 1, 55, 0
3, 70080, Note_on_c, 1, 55, 69
3, 70655, Note_on_c, 1, 55, 0
3, 71040, Control_c, 1, 0, 0
3, 71040, Note_on_c, 1, 36, 95
3, 71040, Note_on_c, 1, 48, 95
3, 71422, Note_on_c, 1, 48, 0
3, 71422, Note_on_c, 1, 36, 0
3, 71520, Note_on_c, 1, 39, 95
3, 71520, Note_on_c, 1, 51, 95
3, 71710, Note_on_c, 1, 51, 0
3, 71710, Note_on_c, 1, 39, 0
3, 71760, Note_on_c, 1, 43, 95
3, 71760, Note_on_c, 1, 55, 95
3, 71950, Note_on_c, 1, 55, 0
3, 71950, Note_on_c, 1, 43, 0
3, 74880, Note_on_c, 1, 31, 95
3, 74880, Note_on_c, 1, 43, 95
3, 74880, Note_on_c, 1, 55, 95
3, 75262, Note_on_c, 1, 55, 0
3, 75262, Note_on_c, 1, 43, 0
3, 75262, Note_on_c, 1, 31, 0
3, 75360, Note_on_c, 1, 35, 95
3, 75360, Note_on_c, 1, 47, 95
3, 75360, Note_on_c, 1, 59, 95
3, 75550, Note_on_c, 1, 59, 0
3, 75550, Note_on_c, 1, 47, 0
3, 75550, Note_on_c, 1, 35, 0
3, 75600, Note_on_c, 1, 38, 95
3, 75600, Note_on_c, 1, 50, 95
3, 75790, Note_on_c, 1, 50, 0
3, 75790, Note_on_c, 1, 38, 0
3, 75840, Note_on_c, 1, 43, 95
3, 75840, Note_on_c, 1, 55, 95
3, 76030, Note_on_c, 1, 55, 0
3, 76030, Note_on_c, 1, 43, 0
3, 76080, Note_on_c, 1, 59, 95
3, 76080, Note_on_c, 1, 47, 95
3, 76270, Note_on_c, 1, 47, 0
3, 76270, Note_on_c, 1, 59, 0
3, 78720, Note_on_c, 1, 43, 95
3, 78815, Note_on_c, 1, 43, 0
3, 78840, Note_on_c, 1, 55, 95
3, 78935, Note_on_c, 1, 55, 0
3, 78960, Note_on_c, 1, 43, 95
3, 79055, Note_on_c, 1, 43, 0
3, 79080, Note_on_c, 1, 55, 95
3, 79175, Note_on_c, 1, 55, 0
3, 79200, Note_on_c, 1, 43, 73
3, 79295, Note_on_c, 1, 43, 0
3, 79320, Note_on_c, 1, 55, 75
3, 79415, Note_on_c, 1, 55, 0
3, 79440, Note_on_c, 1, 43, 65
3, 79535, Note_on_c, 1, 43, 0
3, 79560, Note_on_c, 1, 55, 65
3, 79655, Note_on_c, 1, 55, 0
3, 79680, Note_on_c, 1, 43, 95
3, 79775, Note_on_c, 1, 43, 0
3, 79800, Note_on_c, 1, 55, 95
3, 79895, Note_on_c, 1, 55, 0
3, 79920, Note_on_c, 1, 43, 95
3, 80015, Note_on_c, 1, 43, 0
3, 80040, Note_on_c, 1, 55, 95
3, 80135, Note_on_c, 1, 55, 0
3, 80160, Note_on_c, 1, 43, 95
3, 80255, Note_on_c, 1, 43, 0
3, 80280, Note_on_c, 1, 55, 95
3, 80375, Note_on_c, 1, 55, 0
3, 80400, Note_on_c, 1, 43, 95
3, 80495, Note_on_c, 1, 43, 0
3, 80520, Note_on_c, 1, 55, 95
3, 80615, Note_on_c, 1, 55, 0
3, 80640, Note_on_c, 1, 43, 95
3, 80735, Note_on_c, 1, 43, 0
3, 80760, Note_on_c, 1, 55, 95
3, 80855, Note_on_c, 1, 55, 0
3, 80880, Note_on_c, 1, 43, 95
3, 80975, Note_on_c, 1, 43, 0
3, 81000, Note_on_c, 1, 55, 95
3, 81095, Note_on_c, 1, 55, 0
3, 81120, Note_on_c, 1, 43, 76
3, 81215, Note_on_c, 1, 43, 0
3, 81240, Note_on_c, 1, 55, 80
3, 81335, Note_on_c, 1, 55, 0
3, 81360, Note_on_c, 1, 43, 77
3, 81455, Note_on_c, 1, 43, 0
3, 81480, Note_on_c, 1, 55, 64
3, 81575, Note_on_c, 1, 55, 0
3, 81600, Note_on_c, 1, 43, 65
3, 81695, Note_on_c, 1, 43, 0
3, 81720, Note_on_c, 1, 55, 65
3, 81815, Note_on_c, 1, 55, 0
3, 81840, Note_on_c, 1, 43, 65
3, 81935, Note_on_c, 1, 43, 0
3, 81960, Note_on_c, 1, 55, 65
3, 82055, Note_on_c, 1, 55, 0
3, 82080, Note_on_c, 1, 43, 65
3, 82175, Note_on_c, 1, 43, 0
3, 82200, Note_on_c, 1, 55, 65
3, 82295, Note_on_c, 1, 55, 0
3, 82320, Note_on_c, 1, 43, 80
3, 82415, Note_on_c, 1, 43, 0
3, 82440, Note_on_c, 1, 55, 81
3, 82535, Note_on_c, 1, 55, 0
3, 82560, Note_on_c, 1, 43, 95
3, 82655, Note_on_c, 1, 43, 0
3, 82680, Note_on_c, 1, 55, 95
3, 82775, Note_on_c, 1, 55, 0
3, 82800, Note_on_c, 1, 55, 95
3, 82895, Note_on_c, 1, 55, 0
3, 82920, Note_on_c, 1, 55, 95
3, 83015, Note_on_c, 1, 55, 0
3, 83040, Note_on_c, 1, 41, 95
3, 83135, Note_on_c, 1, 41, 0
3, 83160, Note_on_c, 1, 53, 95
3, 83255, Note_on_c, 1, 53, 0
3, 83280, Note_on_c, 1, 53, 95
3, 83375, Note_on_c, 1, 53, 0
3, 83400, Note_on_c, 1, 53, 95
3, 83495, Note_on_c, 1, 53, 0
3, 83520, Note_on_c, 1, 39, 95
3, 83615, Note_on_c, 1, 39, 0
3, 83640, Note_on_c, 1, 51, 95
3, 83735, Note_on_c, 1, 51, 0
3, 83760, Note_on_c, 1, 51, 95
3, 83855, Note_on_c, 1, 51, 0
3, 83880, Note_on_c, 1, 51, 95
3, 83975, Note_on_c, 1, 51, 0
3, 84000, Note_on_c, 1, 35, 95
3, 84095, Note_on_c, 1, 35, 0
3, 84120, Note_on_c, 1, 47, 95
3, 84215, Note_on_c, 1, 47, 0
3, 84240, Note_on_c, 1, 47, 95
3, 84335, Note_on_c, 1, 47, 0
3, 84360, Note_on_c, 1, 47, 95
3, 84455, Note_on_c, 1, 47, 0
3, 84480, Note_on_c, 1, 36, 95
3, 84575, Note_on_c, 1, 36, 0
3, 84600, Note_on_c, 1, 48, 95
3, 84695, Note_on_c, 1, 48, 0
3, 84720, Note_on_c, 1, 48, 95
3, 84815, Note_on_c, 1, 48, 0
3, 84840, Note_on_c, 1, 48, 95
3, 84935, Note_on_c, 1, 48, 0
3, 84960, Note_on_c, 1, 41, 95
3, 85055, Note_on_c, 1, 41, 0
3, 85080, Note_on_c, 1, 53, 95
3, 85175, Note_on_c, 1, 53, 0
3, 85200, Note_on_c, 1, 53, 95
3, 85295, Note_on_c, 1, 53, 0
3, 85320, Note_on_c, 1, 53, 95
3, 85415, Note_on_c, 1, 53, 0
3, 85440, Note_on_c, 1, 39, 95
3, 85535, Note_on_c, 1, 39, 0
3, 85560, Note_on_c, 1, 51, 95
3, 85655, Note_on_c, 1, 51, 0
3, 85680, Note_on_c, 1, 51, 95
3, 85775, Note_on_c, 1, 51, 0
3, 85800, Note_on_c, 1, 51, 95
3, 85895, Note_on_c, 1, 51, 0
3, 85920, Note_on_c, 1, 38, 95
3, 86015, Note_on_c, 1, 38, 0
3, 86040, Note_on_c, 1, 50, 95
3, 86135, Note_on_c, 1, 50, 0
3, 86160, Note_on_c, 1, 50, 95
3, 86255, Note_on_c, 1, 50, 0
3, 86280, Note_on_c, 1, 50, 95
3, 86375, Note_on_c, 1, 50, 0
3, 86400, Note_on_c, 1, 48, 81
3, 86590, Note_on_c, 1, 48, 0
3, 86880, Note_on_c, 1, 53, 65
3, 87070, Note_on_c, 1, 53, 0
3, 87360, Note_on_c, 1, 55, 65
3, 87550, Note_on_c, 1, 55, 0
3, 87840, Note_on_c, 1, 43, 65
3, 88030, Note_on_c, 1, 43, 0
3, 90240, Note_on_c, 1, 46, 95
3, 90240, Note_on_c, 1, 34, 95
3, 90622, Note_on_c, 1, 34, 0
3, 90622, Note_on_c, 1, 46, 0
3, 90720, Note_on_c, 1, 50, 95
3, 90720, Note_on_c, 1, 38, 95
3, 90910, Note_on_c, 1, 38, 0
3, 90910, Note_on_c, 1, 50, 0
3, 90960, Note_on_c, 1, 41, 95
3, 90960, Note_on_c, 1, 53, 95
3, 91150, Note_on_c, 1, 53, 0
3, 91150, Note_on_c, 1, 41, 0
3, 91200, Note_on_c, 1, 58, 95
3, 91200, Note_on_c, 1, 46, 95
3, 91390, Note_on_c, 1, 46, 0
3, 91390, Note_on_c, 1, 58, 0
3, 91440, Note_on_c, 1, 50, 95
3, 91630, Note_on_c, 1, 50, 0
3, 92160, Note_on_c, 1, 51, 50
3, 92255, Note_on_c, 1, 51, 0
3, 92280, Note_on_c, 1, 58, 50
3, 92375, Note_on_c, 1, 58, 0
3, 92400, Note_on_c, 1, 55, 50
3, 92495, Note_on_c, 1, 55, 0
3, 92520, Note_on_c, 1, 58, 50
3, 92615, Note_on_c, 1, 58, 0
3, 92640, Note_on_c, 1, 53, 50
3, 92735, Note_on_c, 1, 53, 0
3, 92760, Note_on_c, 1, 58, 50
3, 92855, Note_on_c, 1, 58, 0
3, 92880, Note_on_c, 1, 56, 50
3, 92975, Note_on_c, 1, 56, 0
3, 93000, Note_on_c, 1, 58, 50
3, 93095, Note_on_c, 1, 58, 0
3, 93120, Note_on_c, 1, 55, 50
3, 93215, Note_on_c, 1, 55, 0
3, 93240, Note_on_c, 1, 58, 50
3, 93335, Note_on_c, 1, 58, 0
3, 93360, Note_on_c, 1, 51, 50
3, 93455, Note_on_c, 1, 51, 0
3, 93480, Note_on_c, 1, 58, 50
3, 93575, Note_on_c, 1, 58, 0
3, 93600, Note_on_c, 1, 50, 50
3, 93695, Note_on_c, 1, 50, 0
3, 93720, Note_on_c, 1, 58, 50
3, 93815, Note_on_c, 1, 58, 0
3, 93840, Note_on_c, 1, 46, 50
3, 93935, Note_on_c, 1, 46, 0
3, 93960, Note_on_c, 1, 58, 50
3, 94055, Note_on_c, 1, 58, 0
3, 94080, Note_on_c, 1, 51, 50
3, 94175, Note_on_c, 1, 51, 0
3, 94200, Note_on_c, 1, 58, 50
3, 94295, Note_on_c, 1, 58, 0
3, 94320, Note_on_c, 1, 55, 50
3, 94415, Note_on_c, 1, 55, 0
3, 94440, Note_on_c, 1, 58, 50
3, 94535, Note_on_c, 1, 58, 0
3, 94560, Note_on_c, 1, 53, 50
3, 94655, Note_on_c, 1, 53, 0
3, 94680, Note_on_c, 1, 58, 50
3, 94775, Note_on_c, 1, 58, 0
3, 94800, Note_on_c, 1, 56, 50
3, 94895, Note_on_c, 1, 56, 0
3, 94920, Note_on_c, 1, 58, 50
3, 95015, Note_on_c, 1, 58, 0
3, 95040, Note_on_c, 1, 55, 50
3, 95135, Note_on_c, 1, 55, 0
3, 95160, Note_on_c, 1, 58, 50
3, 95255, Note_on_c, 1, 58, 0
3, 95280, Note_on_c, 1, 51, 50
3, 95375, Note_on_c, 1, 51, 0
3, 95400, Note_on_c, 1, 58, 50
3, 95495, Note_on_c, 1, 58, 0
3, 95520, Note_on_c, 1, 50, 50
3, 95615, Note_on_c, 1, 50, 0
3, 95640, Note_on_c, 1, 58, 50
3, 95735, Note_on_c, 1, 58, 0
3, 95760, Note_on_c, 1, 46, 50
3, 95855, Note_on_c, 1, 46, 0
3, 95880, Note_on_c, 1, 58, 50
3, 95975, Note_on_c, 1, 58, 0
3, 96000, Note_on_c, 1, 51, 50
3, 96095, Note_on_c, 1, 51, 0
3, 96120, Note_on_c, 1, 58, 50
3, 96215, Note_on_c, 1, 58, 0
3, 96240, Note_on_c, 1, 55, 50
3, 96335, Note_on_c, 1, 55, 0
3, 96360, Note_on_c, 1, 58, 50
3, 96455, Note_on_c, 1, 58, 0
3, 96480, Note_on_c, 1, 50, 55
3, 96575, Note_on_c, 1, 50, 0
3, 96600, Note_on_c, 1, 58, 55
3, 96695, Note_on_c, 1, 58, 0
3, 96720, Note_on_c, 1, 53, 61
3, 96815, Note_on_c, 1, 53, 0
3, 96840, Note_on_c, 1, 58, 60
3, 96935, Note_on_c, 1, 58, 0
3, 96960, Note_on_c, 1, 48, 65
3, 97055, Note_on_c, 1, 48, 0
3, 97080, Note_on_c, 1, 58, 65
3, 97175, Note_on_c, 1, 58, 0
3, 97200, Note_on_c, 1, 55, 70
3, 97295, Note_on_c, 1, 55, 0
3, 97320, Note_on_c, 1, 58, 70
3, 97415, Note_on_c, 1, 58, 0
3, 97440, Note_on_c, 1, 48, 74
3, 97535, Note_on_c, 1, 48, 0
3, 97560, Note_on_c, 1, 58, 74
3, 97655, Note_on_c, 1, 58, 0
3, 97680, Note_on_c, 1, 55, 80
3, 97775, Note_on_c, 1, 55, 0
3, 97800, Note_on_c, 1, 58, 86
3, 97895, Note_on_c, 1, 58, 0
3, 97920, Note_on_c, 1, 53, 95
3, 97920, Note_on_c, 1, 48, 95
3, 97920, Note_on_c, 1, 57, 95
3, 98687, Note_on_c, 1, 57, 0
3, 98687, Note_on_c, 1, 48, 0
3, 98687, Note_on_c, 1, 53, 0
3, 99120, Note_on_c, 1, 58, 95
3, 99310, Note_on_c, 1, 58, 0
3, 99360, Note_on_c, 1, 59, 95
3, 99550, Note_on_c, 1, 59, 0
3, 100080, Note_on_c, 1, 58, 65
3, 100270, Note_on_c, 1, 58, 0
3, 100320, Note_on_c, 1, 59, 65
3, 100510, Note_on_c, 1, 59, 0
3, 101040, Note_on_c, 1, 58, 65
3, 101230, Note_on_c, 1, 58, 0
3, 101280, Note_on_c, 1, 59, 65
3, 101470, Note_on_c, 1, 59, 0
3, 101760, Note_on_c, 1, 58, 65
3, 101950, Note_on_c, 1, 58, 0
3, 102000, Note_on_c, 1, 59, 65
3, 102190, Note_on_c, 1, 59, 0
3, 102240, Note_on_c, 1, 58, 65
3, 102430, Note_on_c, 1, 58, 0
3, 102480, Note_on_c, 1, 59, 65
3, 102670, Note_on_c, 1, 59, 0
3, 102720, Note_on_c, 1, 58, 65
3, 102910, Note_on_c, 1, 58, 0
3, 106560, Note_on_c, 1, 56, 65
3, 106847, Note_on_c, 1, 56, 0
3, 106920, Note_on_c, 1, 55, 65
3, 106967, Note_on_c, 1, 55, 0
3, 106980, Note_on_c, 1, 56, 65
3, 107027, Note_on_c, 1, 56, 0
3, 107040, Note_on_c, 1, 58, 65
3, 107135, Note_on_c, 1, 58, 0
3, 107160, Note_on_c, 1, 56, 65
3, 107255, Note_on_c, 1, 56, 0
3, 107280, Note_on_c, 1, 55, 65
3, 107375, Note_on_c, 1, 55, 0
3, 107400, Note_on_c, 1, 53, 65
3, 107495, Note_on_c, 1, 53, 0
3, 107520, Note_on_c, 1, 51, 65
3, 107902, Note_on_c, 1, 51, 0
3, 108000, Note_on_c, 1, 50, 65
3, 108190, Note_on_c, 1, 50, 0
3, 110400, Note_on_c, 1, 58, 65
3, 110687, Note_on_c, 1, 58, 0
3, 110760, Note_on_c, 1, 57, 65
3, 110807, Note_on_c, 1, 57, 0
3, 110820, Note_on_c, 1, 58, 65
3, 110867, Note_on_c, 1, 58, 0
3, 111000, Note_on_c, 1, 58, 65
3, 111095, Note_on_c, 1, 58, 0
3, 111120, Note_on_c, 1, 56, 65
3, 111215, Note_on_c, 1, 56, 0
3, 111240, Note_on_c, 1, 55, 65
3, 111335, Note_on_c, 1, 55, 0
3, 111360, Note_on_c, 1, 53, 65
3, 111742, Note_on_c, 1, 53, 0
3, 111840, Note_on_c, 1, 51, 75
3, 112030, Note_on_c, 1, 51, 0
3, 113520, Note_on_c, 1, 58, 95
3, 113710, Note_on_c, 1, 58, 0
3, 114240, Note_on_c, 1, 56, 65
3, 114430, Note_on_c, 1, 56, 0
3, 115440, Note_on_c, 1, 58, 65
3, 115822, Note_on_c, 1, 58, 0
3, 115920, Note_on_c, 1, 59, 65
3, 116110, Note_on_c, 1, 59, 0
3, 117120, Note_on_c, 1, 51, 95
3, 117215, Note_on_c, 1, 51, 0
3, 117240, Note_on_c, 1, 55, 95
3, 117335, Note_on_c, 1, 55, 0
3, 117360, Note_on_c, 1, 51, 95
3, 117455, Note_on_c, 1, 51, 0
3, 117480, Note_on_c, 1, 55, 95
3, 117575, Note_on_c, 1, 55, 0
3, 117600, Note_on_c, 1, 59, 95
3, 117600, Note_on_c, 1, 49, 95
3, 117695, Note_on_c, 1, 49, 0
3, 117720, Note_on_c, 1, 53, 95
3, 117815, Note_on_c, 1, 53, 0
3, 117840, Note_on_c, 1, 49, 95
3, 117935, Note_on_c, 1, 49, 0
3, 117960, Note_on_c, 1, 53, 95
3, 117982, Note_on_c, 1, 59, 0
3, 118055, Note_on_c, 1, 53, 0
3, 118080, Note_on_c, 1, 48, 95
3, 118175, Note_on_c, 1, 48, 0
3, 118200, Note_on_c, 1, 52, 95
3, 118295, Note_on_c, 1, 52, 0
3, 118320, Note_on_c, 1, 46, 95
3, 118320, Note_on_c, 1, 52, 95
3, 118510, Note_on_c, 1, 52, 0
3, 118510, Note_on_c, 1, 46, 0
3, 119040, Note_on_c, 1, 48, 95
3, 119040, Note_on_c, 1, 44, 95
3, 119040, Note_on_c, 1, 53, 95
3, 119680, Note_on_c, 1, 59, 95
3, 119742, Note_on_c, 1, 59, 0
3, 119807, Note_on_c, 1, 48, 0
3, 119807, Note_on_c, 1, 44, 0
3, 119807, Note_on_c, 1, 53, 0
3, 119920, Note_on_c, 1, 55, 95
3, 119982, Note_on_c, 1, 55, 0
3, 120000, Note_on_c, 1, 41, 95
3, 120000, Note_on_c, 1, 29, 95
3, 120000, Note_on_c, 1, 56, 95
3, 120062, Note_on_c, 1, 56, 0
3, 120160, Note_on_c, 1, 52, 95
3, 120222, Note_on_c, 1, 52, 0
3, 120240, Note_on_c, 1, 53, 95
3, 120302, Note_on_c, 1, 53, 0
3, 120320, Note_on_c, 1, 56, 95
3, 120382, Note_on_c, 1, 56, 0
3, 120400, Note_on_c, 1, 47, 95
3, 120462, Note_on_c, 1, 47, 0
3, 120480, Note_on_c, 1, 48, 95
3, 120542, Note_on_c, 1, 48, 0
3, 120560, Note_on_c, 1, 53, 95
3, 120622, Note_on_c, 1, 53, 0
3, 120640, Note_on_c, 1, 43, 95
3, 120702, Note_on_c, 1, 43, 0
3, 120720, Note_on_c, 1, 44, 95
3, 120767, Note_on_c, 1, 29, 0
3, 120767, Note_on_c, 1, 41, 0
3, 120782, Note_on_c, 1, 44, 0
3, 120800, Note_on_c, 1, 48, 95
3, 120862, Note_on_c, 1, 48, 0
3, 120880, Note_on_c, 1, 40, 95
3, 120942, Note_on_c, 1, 40, 0
3, 120960, Note_on_c, 1, 41, 95
3, 121247, Note_on_c, 1, 41, 0
3, 121320, Note_on_c, 1, 36, 95
3, 121415, Note_on_c, 1, 36, 0
3, 121440, Note_on_c, 1, 44, 95
3, 121535, Note_on_c, 1, 44, 0
3, 121560, Note_on_c, 1, 41, 95
3, 121655, Note_on_c, 1, 41, 0
3, 121680, Note_on_c, 1, 48, 95
3, 121775, Note_on_c, 1, 48, 0
3, 121800, Note_on_c, 1, 44, 95
3, 121895, Note_on_c, 1, 44, 0
3, 121920, Note_on_c, 1, 53, 95
3, 122015, Note_on_c, 1, 53, 0
3, 122040, Note_on_c, 1, 48, 95
3, 122135, Note_on_c, 1, 48, 0
3, 122160, Note_on_c, 1, 56, 95
3, 122255, Note_on_c, 1, 56, 0
3, 122280, Note_on_c, 1, 53, 95
3, 122375, Note_on_c, 1, 53, 0
3, 122520, Note_on_c, 1, 56, 95
3, 122615, Note_on_c, 1, 56, 0
3, 124080, Note_on_c, 1, 56, 95
3, 124270, Note_on_c, 1, 56, 0
3, 124560, Note_on_c, 1, 57, 95
3, 124750, Note_on_c, 1, 57, 0
3, 124800, Note_on_c, 1, 58, 94
3, 124990, Note_on_c, 1, 58, 0
3, 126000, Note_on_c, 1, 58, 65
3, 126575, Note_on_c, 1, 58, 0
3, 128160, Note_on_c, 1, 53, 65
3, 128255, Note_on_c, 1, 53, 0
3, 128400, Note_on_c, 1, 56, 65
3, 128495, Note_on_c, 1, 56, 0
3, 128640, Note_on_c, 1, 55, 65
3, 128735, Note_on_c, 1, 55, 0
3, 128880, Note_on_c, 1, 58, 65
3, 128975, Note_on_c, 1, 58, 0
3, 129120, Note_on_c, 1, 56, 65
3, 129215, Note_on_c, 1, 56, 0
3, 129600, Note_on_c, 1, 58, 65
3, 129695, Note_on_c, 1, 58, 0
3, 130080, Note_on_c, 1, 58, 76
3, 130175, Note_on_c, 1, 58, 0
3, 130560, Note_on_c, 1, 51, 95
3, 130655, Note_on_c, 1, 51, 0
3, 130680, Note_on_c, 1, 58, 95
3, 130775, Note_on_c, 1, 58, 0
3, 130800, Note_on_c, 1, 55, 95
3, 130895, Note_on_c, 1, 55, 0
3, 130920, Note_on_c, 1, 58, 95
3, 131015, Note_on_c, 1, 58, 0
3, 131040, Note_on_c, 1, 50, 95
3, 131135, Note_on_c, 1, 50, 0
3, 131160, Note_on_c, 1, 58, 95
3, 131255, Note_on_c, 1, 58, 0
3, 131280, Note_on_c, 1, 56, 95
3, 131375, Note_on_c, 1, 56, 0
3, 131400, Note_on_c, 1, 58, 95
3, 131495, Note_on_c, 1, 58, 0
3, 131520, Note_on_c, 1, 51, 95
3, 131615, Note_on_c, 1, 51, 0
3, 131640, Note_on_c, 1, 58, 95
3, 131735, Note_on_c, 1, 58, 0
3, 131760, Note_on_c, 1, 55, 95
3, 131855, Note_on_c, 1, 55, 0
3, 131880, Note_on_c, 1, 58, 95
3, 131975, Note_on_c, 1, 58, 0
3, 132000, Note_on_c, 1, 53, 95
3, 132095, Note_on_c, 1, 53, 0
3, 132240, Note_on_c, 1, 58, 95
3, 132335, Note_on_c, 1, 58, 0
3, 132480, Note_on_c, 1, 58, 95
3, 132480, Note_on_c, 1, 55, 95
3, 132670, Note_on_c, 1, 55, 0
3, 132670, Note_on_c, 1, 58, 0
3, 133680, Note_on_c, 1, 56, 95
3, 133870, Note_on_c, 1, 56, 0
3, 133920, Note_on_c, 1, 58, 95
3, 134110, Note_on_c, 1, 58, 0
3, 134160, Note_on_c, 1, 46, 95
3, 134350, Note_on_c, 1, 46, 0
3, 134400, Note_on_c, 1, 51, 95
3, 134590, Note_on_c, 1, 51, 0
3, 137040, Note_on_c, 1, 51, 95
3, 137040, Note_on_c, 1, 55, 95
3, 137200, Note_on_c, 1, 59, 95
3, 137230, Note_on_c, 1, 55, 0
3, 137230, Note_on_c, 1, 51, 0
3, 137262, Note_on_c, 1, 59, 0
3, 137280, Note_on_c, 1, 51, 95
3, 137280, Note_on_c, 1, 56, 95
3, 137470, Note_on_c, 1, 56, 0
3, 137470, Note_on_c, 1, 51, 0
3, 138000, Note_on_c, 1, 51, 95
3, 138000, Note_on_c, 1, 53, 95
3, 138000, Note_on_c, 1, 56, 95
3, 138190, Note_on_c, 1, 56, 0
3, 138190, Note_on_c, 1, 53, 0
3, 138190, Note_on_c, 1, 51, 0
3, 138240, Note_on_c, 1, 51, 95
3, 138240, Note_on_c, 1, 55, 95
3, 138430, Note_on_c, 1, 55, 0
3, 138430, Note_on_c, 1, 51, 0
3, 139200, Note_on_c, 1, 39, 95
3, 139200, Note_on_c, 1, 51, 95
3, 139582, Note_on_c, 1, 51, 0
3, 139582, Note_on_c, 1, 39, 0
3, 139680, Note_on_c, 1, 55, 95
3, 139680, Note_on_c, 1, 43, 95
3, 139870, Note_on_c, 1, 43, 0
3, 139870, Note_on_c, 1, 55, 0
3, 139920, Note_on_c, 1, 46, 95
3, 139920, Note_on_c, 1, 58, 95
3, 140110, Note_on_c, 1, 58, 0
3, 140110, Note_on_c, 1, 46, 0
3, 140160, Note_on_c, 1, 51, 95
3, 140350, Note_on_c, 1, 51, 0
3, 140400, Note_on_c, 1, 55, 95
3, 140590, Note_on_c, 1, 55, 0
3, 141120, Note_on_c, 1, 55, 69
3, 141695, Note_on_c, 1, 55, 0
3, 142080, Note_on_c, 1, 36, 80
3, 142080, Note_on_c, 1, 48, 80
3, 142462, Note_on_c, 1, 48, 0
3, 142462, Note_on_c, 1, 36, 0
3, 142560, Note_on_c, 1, 40, 80
3, 142560, Note_on_c, 1, 52, 80
3, 142750, Note_on_c, 1, 52, 0
3, 142750, Note_on_c, 1, 40, 0
3, 142800, Note_on_c, 1, 43, 80
3, 142800, Note_on_c, 1, 55, 80
3, 142990, Note_on_c, 1, 55, 0
3, 142990, Note_on_c, 1, 43, 0
3, 143040, Note_on_c, 1, 48, 95
3, 143230, Note_on_c, 1, 48, 0
3, 143280, Note_on_c, 1, 52, 95
3, 143470, Note_on_c, 1, 52, 0
3, 144000, Note_on_c, 1, 46, 95
3, 144000, Note_on_c, 1, 34, 95
3, 144382, Note_on_c, 1, 34, 0
3, 144382, Note_on_c, 1, 46, 0
3, 144480, Note_on_c, 1, 40, 95
3, 144480, Note_on_c, 1, 52, 95
3, 144670, Note_on_c, 1, 52, 0
3, 144670, Note_on_c, 1, 40, 0
3, 144720, Note_on_c, 1, 43, 95
3, 144720, Note_on_c, 1, 55, 95
3, 144910, Note_on_c, 1, 55, 0
3, 144910, Note_on_c, 1, 43, 0
3, 144960, Note_on_c, 1, 58, 95
3, 144960, Note_on_c, 1, 46, 95
3, 145150, Note_on_c, 1, 46, 0
3, 145150, Note_on_c, 1, 58, 0
3, 145200, Note_on_c, 1, 49, 95
3, 145390, Note_on_c, 1, 49, 0
3, 145920, Note_on_c, 1, 53, 65
3, 146015, Note_on_c, 1, 53, 0
3, 146160, Note_on_c, 1, 56, 65
3, 146255, Note_on_c, 1, 56, 0
3, 146400, Note_on_c, 1, 55, 65
3, 146495, Note_on_c, 1, 55, 0
3, 146640, Note_on_c, 1, 58, 65
3, 146735, Note_on_c, 1, 58, 0
3, 146880, Note_on_c, 1, 56, 65
3, 146975, Note_on_c, 1, 56, 0
3, 147120, Note_on_c, 1, 53, 65
3, 147215, Note_on_c, 1, 53, 0
3, 147360, Note_on_c, 1, 52, 65
3, 147455, Note_on_c, 1, 52, 0
3, 147600, Note_on_c, 1, 48, 65
3, 147695, Note_on_c, 1, 48, 0
3, 147840, Note_on_c, 1, 53, 65
3, 147935, Note_on_c, 1, 53, 0
3, 148080, Note_on_c, 1, 56, 65
3, 148175, Note_on_c, 1, 56, 0
3, 148320, Note_on_c, 1, 55, 65
3, 148415, Note_on_c, 1, 55, 0
3, 148560, Note_on_c, 1, 58, 65
3, 148655, Note_on_c, 1, 58, 0
3, 148800, Note_on_c, 1, 56, 65
3, 148895, Note_on_c, 1, 56, 0
3, 149040, Note_on_c, 1, 53, 65
3, 149135, Note_on_c, 1, 53, 0
3, 149280, Note_on_c, 1, 52, 75
3, 149375, Note_on_c, 1, 52, 0
3, 149520, Note_on_c, 1, 48, 85
3, 149615, Note_on_c, 1, 48, 0
3, 149760, Note_on_c, 1, 53, 95
3, 149822, Note_on_c, 1, 53, 0
3, 149840, Note_on_c, 1, 56, 95
3, 149902, Note_on_c, 1, 56, 0
3, 150000, Note_on_c, 1, 58, 95
3, 150062, Note_on_c, 1, 58, 0
3, 150080, Note_on_c, 1, 56, 95
3, 150142, Note_on_c, 1, 56, 0
3, 150160, Note_on_c, 1, 55, 95
3, 150222, Note_on_c, 1, 55, 0
3, 150240, Note_on_c, 1, 53, 95
3, 150302, Note_on_c, 1, 53, 0
3, 150320, Note_on_c, 1, 56, 95
3, 150382, Note_on_c, 1, 56, 0
3, 150480, Note_on_c, 1, 58, 95
3, 150542, Note_on_c, 1, 58, 0
3, 150560, Note_on_c, 1, 56, 95
3, 150622, Note_on_c, 1, 56, 0
3, 150640, Note_on_c, 1, 55, 95
3, 150702, Note_on_c, 1, 55, 0
3, 150720, Note_on_c, 1, 53, 95
3, 150782, Note_on_c, 1, 53, 0
3, 150800, Note_on_c, 1, 56, 95
3, 150862, Note_on_c, 1, 56, 0
3, 150960, Note_on_c, 1, 58, 95
3, 151022, Note_on_c, 1, 58, 0
3, 151040, Note_on_c, 1, 56, 95
3, 151102, Note_on_c, 1, 56, 0
3, 151120, Note_on_c, 1, 55, 95
3, 151182, Note_on_c, 1, 55, 0
3, 151200, Note_on_c, 1, 53, 95
3, 151262, Note_on_c, 1, 53, 0
3, 151280, Note_on_c, 1, 55, 95
3, 151342, Note_on_c, 1, 55, 0
3, 151360, Note_on_c, 1, 53, 95
3, 151422, Note_on_c, 1, 53, 0
3, 151440, Note_on_c, 1, 51, 95
3, 151502, Note_on_c, 1, 51, 0
3, 151520, Note_on_c, 1, 53, 95
3, 151582, Note_on_c, 1, 53, 0
3, 151600, Note_on_c, 1, 51, 95
3, 151662, Note_on_c, 1, 51, 0
3, 151680, Note_on_c, 1, 50, 95
3, 151680, Note_on_c, 1, 38, 95
3, 152062, Note_on_c, 1, 38, 0
3, 152062, Note_on_c, 1, 50, 0
3, 152160, Note_on_c, 1, 42, 95
3, 152160, Note_on_c, 1, 54, 95
3, 152350, Note_on_c, 1, 54, 0
3, 152350, Note_on_c, 1, 42, 0
3, 152400, Note_on_c, 1, 45, 95
3, 152400, Note_on_c, 1, 57, 95
3, 152590, Note_on_c, 1, 57, 0
3, 152590, Note_on_c, 1, 45, 0
3, 152640, Note_on_c, 1, 50, 95
3, 152830, Note_on_c, 1, 50, 0
3, 152880, Note_on_c, 1, 54, 95
3, 153070, Note_on_c, 1, 54, 0
3, 153600, Note_on_c, 1, 55, 95
3, 153662, Note_on_c, 1, 55, 0
3, 153680, Note_on_c, 1, 58, 95
3, 153742, Note_on_c, 1, 58, 0
3, 153920, Note_on_c, 1, 58, 95
3, 153982, Note_on_c, 1, 58, 0
3, 154000, Note_on_c, 1, 57, 95
3, 154062, Note_on_c, 1, 57, 0
3, 154080, Note_on_c, 1, 55, 95
3, 154142, Note_on_c, 1, 55, 0
3, 154160, Note_on_c, 1, 58, 95
3, 154222, Note_on_c, 1, 58, 0
3, 154400, Note_on_c, 1, 58, 95
3, 154462, Note_on_c, 1, 58, 0
3, 154480, Note_on_c, 1, 57, 95
3, 154542, Note_on_c, 1, 57, 0
3, 154560, Note_on_c, 1, 55, 95
3, 154622, Note_on_c, 1, 55, 0
3, 154640, Note_on_c, 1, 58, 95
3, 154702, Note_on_c, 1, 58, 0
3, 154880, Note_on_c, 1, 58, 95
3, 154942, Note_on_c, 1, 58, 0
3, 154960, Note_on_c, 1, 57, 95
3, 155022, Note_on_c, 1, 57, 0
3, 155040, Note_on_c, 1, 55, 95
3, 155102, Note_on_c, 1, 55, 0
3, 155120, Note_on_c, 1, 58, 95
3, 155182, Note_on_c, 1, 58, 0
3, 155280, Note_on_c, 1, 55, 95
3, 155342, Note_on_c, 1, 55, 0
3, 155360, Note_on_c, 1, 58, 95
3, 155422, Note_on_c, 1, 58, 0
3, 155520, Note_on_c, 1, 53, 95
3, 155582, Note_on_c, 1, 53, 0
3, 155600, Note_on_c, 1, 59, 95
3, 155662, Note_on_c, 1, 59, 0
3, 155760, Note_on_c, 1, 55, 95
3, 155822, Note_on_c, 1, 55, 0
3, 155840, Note_on_c, 1, 59, 95
3, 155902, Note_on_c, 1, 59, 0
3, 156000, Note_on_c, 1, 56, 95
3, 156062, Note_on_c, 1, 56, 0
3, 156080, Note_on_c, 1, 59, 95
3, 156142, Note_on_c, 1, 59, 0
3, 156240, Note_on_c, 1, 55, 95
3, 156302, Note_on_c, 1, 55, 0
3, 156320, Note_on_c, 1, 59, 95
3, 156382, Note_on_c, 1, 59, 0
3, 156480, Note_on_c, 1, 53, 95
3, 156542, Note_on_c, 1, 53, 0
3, 156560, Note_on_c, 1, 59, 95
3, 156622, Note_on_c, 1, 59, 0
3, 156720, Note_on_c, 1, 55, 95
3, 156782, Note_on_c, 1, 55, 0
3, 156800, Note_on_c, 1, 59, 95
3, 156862, Note_on_c, 1, 59, 0
3, 156960, Note_on_c, 1, 56, 95
3, 157022, Note_on_c, 1, 56, 0
3, 157040, Note_on_c, 1, 59, 95
3, 157102, Note_on_c, 1, 59, 0
3, 157200, Note_on_c, 1, 53, 95
3, 157262, Note_on_c, 1, 53, 0
3, 157280, Note_on_c, 1, 59, 95
3, 157342, Note_on_c, 1, 59, 0
3, 157440, Note_on_c, 1, 51, 95
3, 157502, Note_on_c, 1, 51, 0
3, 157520, Note_on_c, 1, 55, 95
3, 157582, Note_on_c, 1, 55, 0
3, 157680, Note_on_c, 1, 53, 95
3, 157742, Note_on_c, 1, 53, 0
3, 157760, Note_on_c, 1, 56, 95
3, 157822, Note_on_c, 1, 56, 0
3, 157920, Note_on_c, 1, 51, 95
3, 157982, Note_on_c, 1, 51, 0
3, 158000, Note_on_c, 1, 55, 95
3, 158062, Note_on_c, 1, 55, 0
3, 158160, Note_on_c, 1, 50, 95
3, 158222, Note_on_c, 1, 50, 0
3, 158240, Note_on_c, 1, 53, 95
3, 158302, Note_on_c, 1, 53, 0
3, 158400, Note_on_c, 1, 51, 95
3, 158462, Note_on_c, 1, 51, 0
3, 158480, Note_on_c, 1, 55, 95
3, 158542, Note_on_c, 1, 55, 0
3, 158640, Note_on_c, 1, 50, 95
3, 158702, Note_on_c, 1, 50, 0
3, 158720, Note_on_c, 1, 53, 95
3, 158782, Note_on_c, 1, 53, 0
3, 158880, Note_on_c, 1, 51, 95
3, 158942, Note_on_c, 1, 51, 0
3, 158960, Note_on_c, 1, 55, 95
3, 159022, Note_on_c, 1, 55, 0
3, 159120, Note_on_c, 1, 48, 95
3, 159182, Note_on_c, 1, 48, 0
3, 159200, Note_on_c, 1, 51, 95
3, 159262, Note_on_c, 1, 51, 0
3, 159280, Note_on_c, 1, 55, 95
3, 159342, Note_on_c, 1, 55, 0
3, 159360, Note_on_c, 1, 47, 95
3, 159422, Note_on_c, 1, 47, 0
3, 159440, Note_on_c, 1, 50, 95
3, 159502, Note_on_c, 1, 50, 0
3, 159520, Note_on_c, 1, 55, 95
3, 159582, Note_on_c, 1, 55, 0
3, 159600, Note_on_c, 1, 48, 95
3, 159662, Note_on_c, 1, 48, 0
3, 159680, Note_on_c, 1, 50, 95
3, 159742, Note_on_c, 1, 50, 0
3, 159760, Note_on_c, 1, 55, 95
3, 159822, Note_on_c, 1, 55, 0
3, 159840, Note_on_c, 1, 47, 95
3, 159902, Note_on_c, 1, 47, 0
3, 159920, Note_on_c, 1, 50, 95
3, 159982, Note_on_c, 1, 50, 0
3, 160000, Note_on_c, 1, 55, 95
3, 160062, Note_on_c, 1, 55, 0
3, 160080, Note_on_c, 1, 45, 95
3, 160142, Note_on_c, 1, 45, 0
3, 160160, Note_on_c, 1, 50, 95
3, 160222, Note_on_c, 1, 50, 0
3, 160240, Note_on_c, 1, 55, 95
3, 160302, Note_on_c, 1, 55, 0
3, 160320, Note_on_c, 1, 47, 95
3, 160382, Note_on_c, 1, 47, 0
3, 160400, Note_on_c, 1, 50, 95
3, 160462, Note_on_c, 1, 50, 0
3, 160480, Note_on_c, 1, 55, 95
3, 160542, Note_on_c, 1, 55, 0
3, 160560, Note_on_c, 1, 43, 95
3, 160750, Note_on_c, 1, 43, 0
3, 162720, Note_on_c, 1, 59, 65
3, 163102, Note_on_c, 1, 59, 0
3, 164160, Note_on_c, 1, 56, 50
3, 164160, Note_on_c, 1, 34, 50
3, 164160, Note_on_c, 1, 46, 50
3, 164160, Note_on_c, 1, 50, 50
3, 164160, Note_on_c, 1, 53, 50
3, 164927, Note_on_c, 1, 56, 0
3, 165120, Note_on_c, 1, 55, 50
3, 165310, Note_on_c, 1, 55, 0
3, 165310, Note_on_c, 1, 53, 0
3, 165310, Note_on_c, 1, 34, 0
3, 165310, Note_on_c, 1, 46, 0
3, 165310, Note_on_c, 1, 50, 0
3, 166080, Note_on_c, 1, 36, 95
3, 166080, Note_on_c, 1, 48, 95
3, 166462, Note_on_c, 1, 48, 0
3, 166462, Note_on_c, 1, 36, 0
3, 166560, Note_on_c, 1, 39, 95
3, 166560, Note_on_c, 1, 51, 95
3, 166750, Note_on_c, 1, 51, 0
3, 166750, Note_on_c, 1, 39, 0
3, 166800, Note_on_c, 1, 43, 95
3, 166800, Note_on_c, 1, 55, 95
3, 166990, Note_on_c, 1, 55, 0
3, 166990, Note_on_c, 1, 43, 0
3, 167040, Note_on_c, 1, 48, 95
3, 167230, Note_on_c, 1, 48, 0
3, 167280, Note_on_c, 1, 51, 95
3, 167470, Note_on_c, 1, 51, 0
3, 169920, Note_on_c, 1, 31, 95
3, 169920, Note_on_c, 1, 43, 95
3, 169920, Note_on_c, 1, 55, 95
3, 170302, Note_on_c, 1, 55, 0
3, 170302, Note_on_c, 1, 43, 0
3, 170302, Note_on_c, 1, 31, 0
3, 170400, Note_on_c, 1, 35, 95
3, 170400, Note_on_c, 1, 47, 95
3, 170400, Note_on_c, 1, 59, 95
3, 170590, Note_on_c, 1, 59, 0
3, 170590, Note_on_c, 1, 47, 0
3, 170590, Note_on_c, 1, 35, 0
3, 170640, Note_on_c, 1, 38, 95
3, 170640, Note_on_c, 1, 50, 95
3, 170830, Note_on_c, 1, 50, 0
3, 170830, Note_on_c, 1, 38, 0
3, 170880, Note_on_c, 1, 43, 95
3, 170880, Note_on_c, 1, 55, 95
3, 171070, Note_on_c, 1, 55, 0
3, 171070, Note_on_c, 1, 43, 0
3, 171120, Note_on_c, 1, 47, 95
3, 171120, Note_on_c, 1, 59, 95
3, 171310, Note_on_c, 1, 59, 0
3, 171310, Note_on_c, 1, 47, 0
3, 173760, Note_on_c, 1, 43, 95
3, 173855, Note_on_c, 1, 43, 0
3, 173880, Note_on_c, 1, 55, 95
3, 173975, Note_on_c, 1, 55, 0
3, 174000, Note_on_c, 1, 43, 95
3, 174095, Note_on_c, 1, 43, 0
3, 174120, Note_on_c, 1, 55, 95
3, 174215, Note_on_c, 1, 55, 0
3, 174240, Note_on_c, 1, 43, 65
3, 174335, Note_on_c, 1, 43, 0
3, 174360, Note_on_c, 1, 55, 65
3, 174455, Note_on_c, 1, 55, 0
3, 174480, Note_on_c, 1, 43, 65
3, 174575, Note_on_c, 1, 43, 0
3, 174600, Note_on_c, 1, 55, 65
3, 174695, Note_on_c, 1, 55, 0
3, 174720, Note_on_c, 1, 43, 65
3, 174815, Note_on_c, 1, 43, 0
3, 174840, Note_on_c, 1, 55, 65
3, 174935, Note_on_c, 1, 55, 0
3, 174960, Note_on_c, 1, 43, 65
3, 175055, Note_on_c, 1, 43, 0
3, 175080, Note_on_c, 1, 55, 65
3, 175175, Note_on_c, 1, 55, 0
3, 175200, Note_on_c, 1, 43, 65
3, 175295, Note_on_c, 1, 43, 0
3, 175320, Note_on_c, 1, 55, 65
3, 175415, Note_on_c, 1, 55, 0
3, 175440, Note_on_c, 1, 43, 65
3, 175535, Note_on_c, 1, 43, 0
3, 175560, Note_on_c, 1, 55, 65
3, 175655, Note_on_c, 1, 55, 0
3, 175680, Note_on_c, 1, 43, 95
3, 175775, Note_on_c, 1, 43, 0
3, 175800, Note_on_c, 1, 55, 95
3, 175895, Note_on_c, 1, 55, 0
3, 175920, Note_on_c, 1, 43, 95
3, 176015, Note_on_c, 1, 43, 0
3, 176040, Note_on_c, 1, 55, 95
3, 176135, Note_on_c, 1, 55, 0
3, 176160, Note_on_c, 1, 43, 65
3, 176255, Note_on_c, 1, 43, 0
3, 176280, Note_on_c, 1, 55, 65
3, 176375, Note_on_c, 1, 55, 0
3, 176400, Note_on_c, 1, 43, 64
3, 176495, Note_on_c, 1, 43, 0
3, 176520, Note_on_c, 1, 55, 65
3, 176615, Note_on_c, 1, 55, 0
3, 176640, Note_on_c, 1, 43, 65
3, 176735, Note_on_c, 1, 43, 0
3, 176760, Note_on_c, 1, 55, 65
3, 176855, Note_on_c, 1, 55, 0
3, 176880, Note_on_c, 1, 43, 65
3, 176975, Note_on_c, 1, 43, 0
3, 177000, Note_on_c, 1, 55, 65
3, 177095, Note_on_c, 1, 55, 0
3, 177120, Note_on_c, 1, 43, 75
3, 177215, Note_on_c, 1, 43, 0
3, 177240, Note_on_c, 1, 55, 76
3, 177335, Note_on_c, 1, 55, 0
3, 177360, Note_on_c, 1, 43, 65
3, 177455, Note_on_c, 1, 43, 0
3, 177480, Note_on_c, 1, 55, 65
3, 177575, Note_on_c, 1, 55, 0
3, 177600, Note_on_c, 1, 43, 95
3, 177695, Note_on_c, 1, 43, 0
3, 177720, Note_on_c, 1, 55, 95
3, 177815, Note_on_c, 1, 55, 0
3, 177840, Note_on_c, 1, 55, 95
3, 177935, Note_on_c, 1, 55, 0
3, 177960, Note_on_c, 1, 55, 95
3, 178055, Note_on_c, 1, 55, 0
3, 178080, Note_on_c, 1, 41, 95
3, 178175, Note_on_c, 1, 41, 0
3, 178200, Note_on_c, 1, 53, 95
3, 178295, Note_on_c, 1, 53, 0
3, 178320, Note_on_c, 1, 53, 95
3, 178415, Note_on_c, 1, 53, 0
3, 178440, Note_on_c, 1, 53, 95
3, 178535, Note_on_c, 1, 53, 0
3, 178560, Note_on_c, 1, 39, 95
3, 178655, Note_on_c, 1, 39, 0
3, 178680, Note_on_c, 1, 51, 95
3, 178775, Note_on_c, 1, 51, 0
3, 178800, Note_on_c, 1, 51, 95
3, 178895, Note_on_c, 1, 51, 0
3, 178920, Note_on_c, 1, 51, 95
3, 179015, Note_on_c, 1, 51, 0
3, 179040, Note_on_c, 1, 35, 95
3, 179135, Note_on_c, 1, 35, 0
3, 179160, Note_on_c, 1, 47, 95
3, 179255, Note_on_c, 1, 47, 0
3, 179280, Note_on_c, 1, 47, 95
3, 179375, Note_on_c, 1, 47, 0
3, 179400, Note_on_c, 1, 47, 95
3, 179495, Note_on_c, 1, 47, 0
3, 179520, Note_on_c, 1, 36, 95
3, 179615, Note_on_c, 1, 36, 0
3, 179640, Note_on_c, 1, 48, 95
3, 179735, Note_on_c, 1, 48, 0
3, 179760, Note_on_c, 1, 48, 95
3, 179855, Note_on_c, 1, 48, 0
3, 179880, Note_on_c, 1, 48, 95
3, 179975, Note_on_c, 1, 48, 0
3, 180000, Note_on_c, 1, 41, 95
3, 180095, Note_on_c, 1, 41, 0
3, 180120, Note_on_c, 1, 53, 95
3, 180215, Note_on_c, 1, 53, 0
3, 180240, Note_on_c, 1, 53, 95
3, 180335, Note_on_c, 1, 53, 0
3, 180360, Note_on_c, 1, 53, 95
3, 180455, Note_on_c, 1, 53, 0
3, 180480, Note_on_c, 1, 39, 95
3, 180575, Note_on_c, 1, 39, 0
3, 180600, Note_on_c, 1, 51, 95
3, 180695, Note_on_c, 1, 51, 0
3, 180720, Note_on_c, 1, 51, 95
3, 180815, Note_on_c, 1, 51, 0
3, 180840, Note_on_c, 1, 51, 95
3, 180935, Note_on_c, 1, 51, 0
3, 180960, Note_on_c, 1, 38, 95
3, 181055, Note_on_c, 1, 38, 0
3, 181080, Note_on_c, 1, 50, 95
3, 181175, Note_on_c, 1, 50, 0
3, 181200, Note_on_c, 1, 50, 95
3, 181295, Note_on_c, 1, 50, 0
3, 181320, Note_on_c, 1, 50, 95
3, 181415, Note_on_c, 1, 50, 0
3, 181440, Note_on_c, 1, 48, 86
3, 181630, Note_on_c, 1, 48, 0
3, 181920, Note_on_c, 1, 53, 65
3, 182110, Note_on_c, 1, 53, 0
3, 182400, Note_on_c, 1, 55, 65
3, 182590, Note_on_c, 1, 55, 0
3, 182880, Note_on_c, 1, 43, 76
3, 183070, Note_on_c, 1, 43, 0
3, 184800, Note_on_c, 1, 32, 95
3, 184800, Note_on_c, 1, 44, 95
3, 185182, Note_on_c, 1, 44, 0
3, 185182, Note_on_c, 1, 32, 0
3, 185280, Note_on_c, 1, 36, 95
3, 185280, Note_on_c, 1, 48, 95
3, 185470, Note_on_c, 1, 48, 0
3, 185470, Note_on_c, 1, 36, 0
3, 185520, Note_on_c, 1, 41, 95
3, 185520, Note_on_c, 1, 53, 95
3, 185710, Note_on_c, 1, 53, 0
3, 185710, Note_on_c, 1, 41, 0
3, 185760, Note_on_c, 1, 44, 83
3, 185760, Note_on_c, 1, 56, 83
3, 186142, Note_on_c, 1, 56, 0
3, 186142, Note_on_c, 1, 44, 0
3, 186720, Note_on_c, 1, 56, 65
3, 186815, Note_on_c, 1, 56, 0
3, 187200, Note_on_c, 1, 56, 65
3, 187295, Note_on_c, 1, 56, 0
3, 187680, Note_on_c, 1, 56, 65
3, 187775, Note_on_c, 1, 56, 0
3, 188160, Note_on_c, 1, 56, 65
3, 188255, Note_on_c, 1, 56, 0
3, 188640, Note_on_c, 1, 56, 65
3, 188735, Note_on_c, 1, 56, 0
3, 189120, Note_on_c, 1, 56, 65
3, 189215, Note_on_c, 1, 56, 0
3, 189600, Note_on_c, 1, 56, 65
3, 189695, Note_on_c, 1, 56, 0
3, 190080, Note_on_c, 1, 57, 65
3, 190847, Note_on_c, 1, 57, 0
3, 191280, Note_on_c, 1, 55, 65
3, 191280, Note_on_c, 1, 59, 65
3, 191470, Note_on_c, 1, 59, 0
3, 191470, Note_on_c, 1, 55, 0
3, 191520, Note_on_c, 1, 56, 65
3, 191710, Note_on_c, 1, 56, 0
3, 192240, Note_on_c, 1, 55, 65
3, 192240, Note_on_c, 1, 59, 65
3, 192430, Note_on_c, 1, 59, 0
3, 192430, Note_on_c, 1, 55, 0
3, 192480, Note_on_c, 1, 56, 65
3, 192670, Note_on_c, 1, 56, 0
3, 192960, Note_on_c, 1, 59, 65
3, 192960, Note_on_c, 1, 55, 65
3, 193150, Note_on_c, 1, 55, 0
3, 193150, Note_on_c, 1, 59, 0
3, 193200, Note_on_c, 1, 56, 65
3, 193390, Note_on_c, 1, 56, 0
3, 193440, Note_on_c, 1, 55, 65
3, 193440, Note_on_c, 1, 59, 65
3, 193630, Note_on_c, 1, 59, 0
3, 193630, Note_on_c, 1, 55, 0
3, 193680, Note_on_c, 1, 56, 65
3, 193870, Note_on_c, 1, 56, 0
3, 193920, Note_on_c, 1, 55, 65
3, 193920, Note_on_c, 1, 59, 65
3, 194110, Note_on_c, 1, 59, 0
3, 194110, Note_on_c, 1, 55, 0
3, 197760, Note_on_c, 1, 53, 65
3, 198047, Note_on_c, 1, 53, 0
3, 198120, Note_on_c, 1, 52, 65
3, 198175, Note_on_c, 1, 52, 0
3, 198180, Note_on_c, 1, 53, 65
3, 198235, Note_on_c, 1, 53, 0
3, 198240, Note_on_c, 1, 55, 65
3, 198335, Note_on_c, 1, 55, 0
3, 198360, Note_on_c, 1, 53, 65
3, 198455, Note_on_c, 1, 53, 0
3, 198480, Note_on_c, 1, 51, 65
3, 198575, Note_on_c, 1, 51, 0
3, 198600, Note_on_c, 1, 50, 65
3, 198695, Note_on_c, 1, 50, 0
3, 198720, Note_on_c, 1, 48, 65
3, 199102, Note_on_c, 1, 48, 0
3, 199200, Note_on_c, 1, 47, 65
3, 199390, Note_on_c, 1, 47, 0
3, 199680, Note_on_c, 1, 59, 65
3, 199775, Note_on_c, 1, 59, 0
3, 199920, Note_on_c, 1, 59, 65
3, 200015, Note_on_c, 1, 59, 0
3, 201600, Note_on_c, 1, 55, 65
3, 201887, Note_on_c, 1, 55, 0
3, 201960, Note_on_c, 1, 54, 65
3, 202007, Note_on_c, 1, 54, 0
3, 202020, Note_on_c, 1, 55, 65
3, 202067, Note_on_c, 1, 55, 0
3, 202080, Note_on_c, 1, 56, 65
3, 202175, Note_on_c, 1, 56, 0
3, 202200, Note_on_c, 1, 55, 65
3, 202295, Note_on_c, 1, 55, 0
3, 202320, Note_on_c, 1, 53, 65
3, 202415, Note_on_c, 1, 53, 0
3, 202440, Note_on_c, 1, 51, 65
3, 202535, Note_on_c, 1, 51, 0
3, 202560, Note_on_c, 1, 50, 65
3, 202942, Note_on_c, 1, 50, 0
3, 203040, Note_on_c, 1, 48, 75
3, 203230, Note_on_c, 1, 48, 0
3, 204000, Note_on_c, 1, 58, 95
3, 204095, Note_on_c, 1, 58, 0
3, 204240, Note_on_c, 1, 58, 95
3, 204335, Note_on_c, 1, 58, 0
3, 204480, Note_on_c, 1, 57, 95
3, 204575, Note_on_c, 1, 57, 0
3, 204720, Note_on_c, 1, 56, 95
3, 204910, Note_on_c, 1, 56, 0
3, 205680, Note_on_c, 1, 55, 65
3, 205680, Note_on_c, 1, 59, 65
3, 205870, Note_on_c, 1, 59, 0
3, 205870, Note_on_c, 1, 55, 0
3, 205920, Note_on_c, 1, 59, 65
3, 206110, Note_on_c, 1, 59, 0
3, 206640, Note_on_c, 1, 48, 65
3, 206640, Note_on_c, 1, 52, 65
3, 206830, Note_on_c, 1, 52, 0
3, 206830, Note_on_c, 1, 48, 0
3, 206880, Note_on_c, 1, 55, 65
3, 206880, Note_on_c, 1, 52, 65
3, 207070, Note_on_c, 1, 52, 0
3, 207070, Note_on_c, 1, 55, 0
3, 207360, Note_on_c, 1, 53, 65
3, 207550, Note_on_c, 1, 53, 0
3, 208320, Note_on_c, 1, 55, 65
3, 209087, Note_on_c, 1, 55, 0
3, 209280, Note_on_c, 1, 48, 95
3, 209280, Note_on_c, 1, 51, 95
3, 209375, Note_on_c, 1, 51, 0
3, 209375, Note_on_c, 1, 48, 0
3, 209400, Note_on_c, 1, 55, 95
3, 209495, Note_on_c, 1, 55, 0
3, 209520, Note_on_c, 1, 48, 95
3, 209520, Note_on_c, 1, 51, 95
3, 209615, Note_on_c, 1, 51, 0
3, 209615, Note_on_c, 1, 48, 0
3, 209640, Note_on_c, 1, 55, 95
3, 209735, Note_on_c, 1, 55, 0
3, 209760, Note_on_c, 1, 46, 95
3, 209760, Note_on_c, 1, 52, 95
3, 209855, Note_on_c, 1, 52, 0
3, 209855, Note_on_c, 1, 46, 0
3, 209880, Note_on_c, 1, 55, 95
3, 209975, Note_on_c, 1, 55, 0
3, 210000, Note_on_c, 1, 46, 95
3, 210000, Note_on_c, 1, 52, 95
3, 210095, Note_on_c, 1, 52, 0
3, 210095, Note_on_c, 1, 46, 0
3, 210120, Note_on_c, 1, 55, 95
3, 210215, Note_on_c, 1, 55, 0
3, 210240, Note_on_c, 1, 45, 95
3, 210240, Note_on_c, 1, 48, 95
3, 210335, Note_on_c, 1, 48, 0
3, 210335, Note_on_c, 1, 45, 0
3, 210360, Note_on_c, 1, 53, 95
3, 210455, Note_on_c, 1, 53, 0
3, 210480, Note_on_c, 1, 44, 95
3, 210480, Note_on_c, 1, 48, 95
3, 210480, Note_on_c, 1, 54, 95
3, 210670, Note_on_c, 1, 54, 0
3, 210670, Note_on_c, 1, 48, 0
3, 210670, Note_on_c, 1, 44, 0
3, 211440, Note_on_c, 1, 43, 65
3, 211440, Note_on_c, 1, 47, 65
3, 211630, Note_on_c, 1, 47, 0
3, 211630, Note_on_c, 1, 43, 0
3, 211680, Note_on_c, 1, 47, 65
3, 211680, Note_on_c, 1, 50, 65
3, 211870, Note_on_c, 1, 50, 0
3, 211870, Note_on_c, 1, 47, 0
3, 212400, Note_on_c, 1, 58, 65
3, 212400, Note_on_c, 1, 40, 65
3, 212400, Note_on_c, 1, 36, 65
3, 212590, Note_on_c, 1, 36, 0
3, 212590, Note_on_c, 1, 40, 0
3, 212590, Note_on_c, 1, 58, 0
3, 212640, Note_on_c, 1, 43, 75
3, 212640, Note_on_c, 1, 40, 77
3, 212830, Note_on_c, 1, 40, 0
3, 212830, Note_on_c, 1, 43, 0
3, 213000, Note_on_c, 1, 58, 85
3, 213095, Note_on_c, 1, 58, 0
3, 213120, Note_on_c, 1, 41, 95
3, 213120, Note_on_c, 1, 29, 95
3, 213120, Note_on_c, 1, 56, 95
3, 213182, Note_on_c, 1, 56, 0
3, 213280, Note_on_c, 1, 52, 95
3, 213342, Note_on_c, 1, 52, 0
3, 213360, Note_on_c, 1, 53, 95
3, 213422, Note_on_c, 1, 53, 0
3, 213440, Note_on_c, 1, 56, 95
3, 213502, Note_on_c, 1, 56, 0
3, 213520, Note_on_c, 1, 47, 95
3, 213582, Note_on_c, 1, 47, 0
3, 213600, Note_on_c, 1, 48, 95
3, 213662, Note_on_c, 1, 48, 0
3, 213680, Note_on_c, 1, 53, 95
3, 213742, Note_on_c, 1, 53, 0
3, 213760, Note_on_c, 1, 43, 95
3, 213822, Note_on_c, 1, 43, 0
3, 213840, Note_on_c, 1, 44, 95
3, 213887, Note_on_c, 1, 29, 0
3, 213887, Note_on_c, 1, 41, 0
3, 213902, Note_on_c, 1, 44, 0
3, 213920, Note_on_c, 1, 48, 95
3, 213982, Note_on_c, 1, 48, 0
3, 214000, Note_on_c, 1, 40, 95
3, 214062, Note_on_c, 1, 40, 0
3, 214080, Note_on_c, 1, 41, 95
3, 214142, Note_on_c, 1, 41, 0
3, 214160, Note_on_c, 1, 36, 95
3, 214222, Note_on_c, 1, 36, 0
3, 214240, Note_on_c, 1, 41, 95
3, 214302, Note_on_c, 1, 41, 0
3, 214320, Note_on_c, 1, 44, 95
3, 214382, Note_on_c, 1, 44, 0
3, 214400, Note_on_c, 1, 41, 95
3, 214462, Note_on_c, 1, 41, 0
3, 214480, Note_on_c, 1, 44, 95
3, 214542, Note_on_c, 1, 44, 0
3, 214560, Note_on_c, 1, 48, 95
3, 214622, Note_on_c, 1, 48, 0
3, 214640, Note_on_c, 1, 44, 95
3, 214702, Note_on_c, 1, 44, 0
3, 214720, Note_on_c, 1, 48, 95
3, 214782, Note_on_c, 1, 48, 0
3, 214800, Note_on_c, 1, 53, 95
3, 214862, Note_on_c, 1, 53, 0
3, 214880, Note_on_c, 1, 48, 95
3, 214942, Note_on_c, 1, 48, 0
3, 214960, Note_on_c, 1, 53, 95
3, 215022, Note_on_c, 1, 53, 0
3, 215040, Note_on_c, 1, 56, 95
3, 215102, Note_on_c, 1, 56, 0
3, 215120, Note_on_c, 1, 53, 95
3, 215182, Note_on_c, 1, 53, 0
3, 215200, Note_on_c, 1, 56, 95
3, 215262, Note_on_c, 1, 56, 0
3, 215360, Note_on_c, 1, 56, 95
3, 215422, Note_on_c, 1, 56, 0
3, 217920, Note_on_c, 1, 55, 65
3, 218110, Note_on_c, 1, 55, 0
3, 218880, Note_on_c, 1, 55, 65
3, 218975, Note_on_c, 1, 55, 0
3, 220320, Note_on_c, 1, 59, 65
3, 220415, Note_on_c, 1, 59, 0
3, 221280, Note_on_c, 1, 50, 65
3, 221375, Note_on_c, 1, 50, 0
3, 221400, Note_on_c, 1, 59, 65
3, 221495, Note_on_c, 1, 59, 0
3, 221520, Note_on_c, 1, 53, 65
3, 221615, Note_on_c, 1, 53, 0
3, 221640, Note_on_c, 1, 59, 65
3, 221735, Note_on_c, 1, 59, 0
3, 221760, Note_on_c, 1, 51, 65
3, 221855, Note_on_c, 1, 51, 0
3, 222000, Note_on_c, 1, 52, 65
3, 222095, Note_on_c, 1, 52, 0
3, 222240, Note_on_c, 1, 53, 65
3, 222335, Note_on_c, 1, 53, 0
3, 222480, Note_on_c, 1, 54, 65
3, 222575, Note_on_c, 1, 54, 0
3, 222720, Note_on_c, 1, 55, 65
3, 222815, Note_on_c, 1, 55, 0
3, 223200, Note_on_c, 1, 55, 65
3, 223295, Note_on_c, 1, 55, 0
3, 223680, Note_on_c, 1, 48, 95
3, 223775, Note_on_c, 1, 48, 0
3, 223800, Note_on_c, 1, 55, 95
3, 223895, Note_on_c, 1, 55, 0
3, 223920, Note_on_c, 1, 51, 95
3, 224015, Note_on_c, 1, 51, 0
3, 224040, Note_on_c, 1, 55, 95
3, 224135, Note_on_c, 1, 55, 0
3, 224160, Note_on_c, 1, 47, 95
3, 224255, Note_on_c, 1, 47, 0
3, 224280, Note_on_c, 1, 55, 95
3, 224375, Note_on_c, 1, 55, 0
3, 224400, Note_on_c, 1, 53, 95
3, 224495, Note_on_c, 1, 53, 0
3, 224520, Note_on_c, 1, 55, 95
3, 224615, Note_on_c, 1, 55, 0
3, 224640, Note_on_c, 1, 48, 95
3, 224735, Note_on_c, 1, 48, 0
3, 224760, Note_on_c, 1, 55, 95
3, 224855, Note_on_c, 1, 55, 0
3, 224880, Note_on_c, 1, 51, 95
3, 224975, Note_on_c, 1, 51, 0
3, 225000, Note_on_c, 1, 55, 95
3, 225095, Note_on_c, 1, 55, 0
3, 225120, Note_on_c, 1, 50, 95
3, 225215, Note_on_c, 1, 50, 0
3, 225240, Note_on_c, 1, 59, 95
3, 225335, Note_on_c, 1, 59, 0
3, 225360, Note_on_c, 1, 55, 95
3, 225455, Note_on_c, 1, 55, 0
3, 225480, Note_on_c, 1, 59, 95
3, 225575, Note_on_c, 1, 59, 0
3, 225600, Note_on_c, 1, 48, 95
3, 226175, Note_on_c, 1, 48, 0
3, 226320, Note_on_c, 1, 52, 95
3, 226510, Note_on_c, 1, 52, 0
3, 226560, Note_on_c, 1, 53, 95
3, 226750, Note_on_c, 1, 53, 0
3, 226800, Note_on_c, 1, 53, 95
3, 226990, Note_on_c, 1, 53, 0
3, 227040, Note_on_c, 1, 55, 95
3, 227230, Note_on_c, 1, 55, 0
3, 227280, Note_on_c, 1, 43, 95
3, 227470, Note_on_c, 1, 43, 0
3, 227520, Note_on_c, 1, 48, 95
3, 227710, Note_on_c, 1, 48, 0
3, 228480, Note_on_c, 1, 55, 95
3, 228670, Note_on_c, 1, 55, 0
3, 229200, Note_on_c, 1, 56, 95
3, 229390, Note_on_c, 1, 56, 0
3, 230160, Note_on_c, 1, 48, 95
3, 230160, Note_on_c, 1, 51, 95
3, 230350, Note_on_c, 1, 51, 0
3, 230350, Note_on_c, 1, 48, 0
3, 230400, Note_on_c, 1, 50, 95
3, 230400, Note_on_c, 1, 53, 95
3, 230400, Note_on_c, 1, 47, 95
3, 230400, Note_on_c, 1, 43, 95
3, 231167, Note_on_c, 1, 43, 0
3, 231167, Note_on_c, 1, 50, 0
3, 231167, Note_on_c, 1, 53, 0
3, 231167, Note_on_c, 1, 47, 0
3, 231360, Note_on_c, 1, 36, 80
3, 231360, Note_on_c, 1, 48, 80
3, 231742, Note_on_c, 1, 48, 0
3, 231742, Note_on_c, 1, 36, 0
3, 231840, Note_on_c, 1, 40, 80
3, 231840, Note_on_c, 1, 52, 80
3, 232030, Note_on_c, 1, 52, 0
3, 232030, Note_on_c, 1, 40, 0
3, 232080, Note_on_c, 1, 43, 80
3, 232080, Note_on_c, 1, 55, 80
3, 232270, Note_on_c, 1, 55, 0
3, 232270, Note_on_c, 1, 43, 0
3, 232320, Note_on_c, 1, 48, 95
3, 232510, Note_on_c, 1, 48, 0
3, 232560, Note_on_c, 1, 52, 95
3, 232750, Note_on_c, 1, 52, 0
3, 233280, Note_on_c, 1, 46, 95
3, 233280, Note_on_c, 1, 34, 95
3, 233662, Note_on_c, 1, 34, 0
3, 233662, Note_on_c, 1, 46, 0
3, 233760, Note_on_c, 1, 40, 95
3, 233760, Note_on_c, 1, 52, 95
3, 233950, Note_on_c, 1, 52, 0
3, 233950, Note_on_c, 1, 40, 0
3, 234000, Note_on_c, 1, 43, 95
3, 234000, Note_on_c, 1, 55, 95
3, 234190, Note_on_c, 1, 55, 0
3, 234190, Note_on_c, 1, 43, 0
3, 234240, Note_on_c, 1, 58, 95
3, 234240, Note_on_c, 1, 46, 95
3, 234430, Note_on_c, 1, 46, 0
3, 234430, Note_on_c, 1, 58, 0
3, 234480, Note_on_c, 1, 49, 95
3, 234670, Note_on_c, 1, 49, 0
3, 235200, Note_on_c, 1, 53, 65
3, 235295, Note_on_c, 1, 53, 0
3, 235440, Note_on_c, 1, 56, 65
3, 235535, Note_on_c, 1, 56, 0
3, 235680, Note_on_c, 1, 55, 65
3, 235775, Note_on_c, 1, 55, 0
3, 235920, Note_on_c, 1, 58, 65
3, 236015, Note_on_c, 1, 58, 0
3, 236160, Note_on_c, 1, 56, 65
3, 236255, Note_on_c, 1, 56, 0
3, 236400, Note_on_c, 1, 53, 65
3, 236495, Note_on_c, 1, 53, 0
3, 236640, Note_on_c, 1, 52, 65
3, 236735, Note_on_c, 1, 52, 0
3, 236880, Note_on_c, 1, 48, 65
3, 236975, Note_on_c, 1, 48, 0
3, 237120, Note_on_c, 1, 53, 65
3, 237215, Note_on_c, 1, 53, 0
3, 237360, Note_on_c, 1, 56, 65
3, 237455, Note_on_c, 1, 56, 0
3, 237600, Note_on_c, 1, 55, 65
3, 237695, Note_on_c, 1, 55, 0
3, 237840, Note_on_c, 1, 58, 65
3, 237935, Note_on_c, 1, 58, 0
3, 238080, Note_on_c, 1, 56, 65
3, 238175, Note_on_c, 1, 56, 0
3, 238320, Note_on_c, 1, 53, 65
3, 238415, Note_on_c, 1, 53, 0
3, 238560, Note_on_c, 1, 52, 75
3, 238655, Note_on_c, 1, 52, 0
3, 238800, Note_on_c, 1, 48, 85
3, 238895, Note_on_c, 1, 48, 0
3, 239040, Note_on_c, 1, 53, 95
3, 239102, Note_on_c, 1, 53, 0
3, 239120, Note_on_c, 1, 56, 95
3, 239182, Note_on_c, 1, 56, 0
3, 239280, Note_on_c, 1, 58, 95
3, 239342, Note_on_c, 1, 58, 0
3, 239360, Note_on_c, 1, 56, 95
3, 239422, Note_on_c, 1, 56, 0
3, 239440, Note_on_c, 1, 55, 95
3, 239502, Note_on_c, 1, 55, 0
3, 239520, Note_on_c, 1, 53, 95
3, 239582, Note_on_c, 1, 53, 0
3, 239600, Note_on_c, 1, 56, 95
3, 239662, Note_on_c, 1, 56, 0
3, 239760, Note_on_c, 1, 58, 95
3, 239822, Note_on_c, 1, 58, 0
3, 239840, Note_on_c, 1, 56, 95
3, 239902, Note_on_c, 1, 56, 0
3, 239920, Note_on_c, 1, 55, 95
3, 239982, Note_on_c, 1, 55, 0
3, 240000, Note_on_c, 1, 53, 95
3, 240062, Note_on_c, 1, 53, 0
3, 240080, Note_on_c, 1, 56, 95
3, 240142, Note_on_c, 1, 56, 0
3, 240240, Note_on_c, 1, 58, 95
3, 240302, Note_on_c, 1, 58, 0
3, 240320, Note_on_c, 1, 56, 95
3, 240382, Note_on_c, 1, 56, 0
3, 240400, Note_on_c, 1, 55, 95
3, 240462, Note_on_c, 1, 55, 0
3, 240480, Note_on_c, 1, 53, 95
3, 240542, Note_on_c, 1, 53, 0
3, 240560, Note_on_c, 1, 55, 95
3, 240622, Note_on_c, 1, 55, 0
3, 240640, Note_on_c, 1, 53, 95
3, 240702, Note_on_c, 1, 53, 0
3, 240720, Note_on_c, 1, 51, 95
3, 240782, Note_on_c, 1, 51, 0
3, 240800, Note_on_c, 1, 53, 95
3, 240862, Note_on_c, 1, 53, 0
3, 240880, Note_on_c, 1, 51, 95
3, 240942, Note_on_c, 1, 51, 0
3, 240960, Note_on_c, 1, 50, 95
3, 240960, Note_on_c, 1, 38, 95
3, 241342, Note_on_c, 1, 38, 0
3, 241342, Note_on_c, 1, 50, 0
3, 241440, Note_on_c, 1, 42, 95
3, 241440, Note_on_c, 1, 54, 95
3, 241630, Note_on_c, 1, 54, 0
3, 241630, Note_on_c, 1, 42, 0
3, 241680, Note_on_c, 1, 45, 95
3, 241680, Note_on_c, 1, 57, 95
3, 241870, Note_on_c, 1, 57, 0
3, 241870, Note_on_c, 1, 45, 0
3, 241920, Note_on_c, 1, 50, 95
3, 242110, Note_on_c, 1, 50, 0
3, 242160, Note_on_c, 1, 54, 95
3, 242350, Note_on_c, 1, 54, 0
3, 242880, Note_on_c, 1, 55, 95
3, 242942, Note_on_c, 1, 55, 0
3, 242960, Note_on_c, 1, 58, 95
3, 243022, Note_on_c, 1, 58, 0
3, 243200, Note_on_c, 1, 58, 95
3, 243262, Note_on_c, 1, 58, 0
3, 243280, Note_on_c, 1, 57, 95
3, 243342, Note_on_c, 1, 57, 0
3, 243360, Note_on_c, 1, 55, 95
3, 243422, Note_on_c, 1, 55, 0
3, 243440, Note_on_c, 1, 58, 95
3, 243502, Note_on_c, 1, 58, 0
3, 243680, Note_on_c, 1, 58, 95
3, 243742, Note_on_c, 1, 58, 0
3, 243760, Note_on_c, 1, 57, 95
3, 243822, Note_on_c, 1, 57, 0
3, 243840, Note_on_c, 1, 55, 95
3, 243902, Note_on_c, 1, 55, 0
3, 243920, Note_on_c, 1, 58, 95
3, 243982, Note_on_c, 1, 58, 0
3, 244160, Note_on_c, 1, 58, 95
3, 244222, Note_on_c, 1, 58, 0
3, 244240, Note_on_c, 1, 57, 95
3, 244302, Note_on_c, 1, 57, 0
3, 244320, Note_on_c, 1, 55, 95
3, 244382, Note_on_c, 1, 55, 0
3, 244400, Note_on_c, 1, 58, 95
3, 244462, Note_on_c, 1, 58, 0
3, 244560, Note_on_c, 1, 55, 95
3, 244622, Note_on_c, 1, 55, 0
3, 244640, Note_on_c, 1, 58, 95
3, 244702, Note_on_c, 1, 58, 0
3, 244800, Note_on_c, 1, 53, 95
3, 244862, Note_on_c, 1, 53, 0
3, 244880, Note_on_c, 1, 59, 95
3, 244942, Note_on_c, 1, 59, 0
3, 245040, Note_on_c, 1, 55, 95
3, 245102, Note_on_c, 1, 55, 0
3, 245120, Note_on_c, 1, 59, 95
3, 245182, Note_on_c, 1, 59, 0
3, 245280, Note_on_c, 1, 56, 95
3, 245342, Note_on_c, 1, 56, 0
3, 245360, Note_on_c, 1, 59, 95
3, 245422, Note_on_c, 1, 59, 0
3, 245520, Note_on_c, 1, 55, 95
3, 245582, Note_on_c, 1, 55, 0
3, 245600, Note_on_c, 1, 59, 95
3, 245662, Note_on_c, 1, 59, 0
3, 245760, Note_on_c, 1, 53, 95
3, 245822, Note_on_c, 1, 53, 0
3, 245840, Note_on_c, 1, 59, 95
3, 245902, Note_on_c, 1, 59, 0
3, 246000, Note_on_c, 1, 55, 95
3, 246062, Note_on_c, 1, 55, 0
3, 246080, Note_on_c, 1, 59, 95
3, 246142, Note_on_c, 1, 59, 0
3, 246240, Note_on_c, 1, 56, 95
3, 246302, Note_on_c, 1, 56, 0
3, 246320, Note_on_c, 1, 59, 95
3, 246382, Note_on_c, 1, 59, 0
3, 246480, Note_on_c, 1, 53, 95
3, 246542, Note_on_c, 1, 53, 0
3, 246560, Note_on_c, 1, 59, 95
3, 246622, Note_on_c, 1, 59, 0
3, 246720, Note_on_c, 1, 51, 95
3, 246782, Note_on_c, 1, 51, 0
3, 246800, Note_on_c, 1, 55, 95
3, 246862, Note_on_c, 1, 55, 0
3, 246960, Note_on_c, 1, 53, 95
3, 247022, Note_on_c, 1, 53, 0
3, 247040, Note_on_c, 1, 56, 95
3, 247102, Note_on_c, 1, 56, 0
3, 247200, Note_on_c, 1, 51, 95
3, 247262, Note_on_c, 1, 51, 0
3, 247280, Note_on_c, 1, 55, 95
3, 247342, Note_on_c, 1, 55, 0
3, 247440, Note_on_c, 1, 50, 95
3, 247502, Note_on_c, 1, 50, 0
3, 247520, Note_on_c, 1, 53, 95
3, 247582, Note_on_c, 1, 53, 0
3, 247680, Note_on_c, 1, 51, 95
3, 247742, Note_on_c, 1, 51, 0
3, 247760, Note_on_c, 1, 55, 95
3, 247822, Note_on_c, 1, 55, 0
3, 247920, Note_on_c, 1, 50, 95
3, 247982, Note_on_c, 1, 50, 0
3, 248000, Note_on_c, 1, 53, 95
3, 248062, Note_on_c, 1, 53, 0
3, 248160, Note_on_c, 1, 51, 95
3, 248222, Note_on_c, 1, 51, 0
3, 248240, Note_on_c, 1, 55, 95
3, 248302, Note_on_c, 1, 55, 0
3, 248400, Note_on_c, 1, 48, 95
3, 248462, Note_on_c, 1, 48, 0
3, 248480, Note_on_c, 1, 51, 95
3, 248542, Note_on_c, 1, 51, 0
3, 248560, Note_on_c, 1, 55, 95
3, 248622, Note_on_c, 1, 55, 0
3, 248640, Note_on_c, 1, 47, 95
3, 248702, Note_on_c, 1, 47, 0
3, 248720, Note_on_c, 1, 50, 95
3, 248782, Note_on_c, 1, 50, 0
3, 248800, Note_on_c, 1, 55, 95
3, 248862, Note_on_c, 1, 55, 0
3, 248880, Note_on_c, 1, 48, 95
3, 248942, Note_on_c, 1, 48, 0
3, 248960, Note_on_c, 1, 50, 95
3, 249022, Note_on_c, 1, 50, 0
3, 249040, Note_on_c, 1, 55, 95
3, 249102, Note_on_c, 1, 55, 0
3, 249120, Note_on_c, 1, 47, 95
3, 249182, Note_on_c, 1, 47, 0
3, 249200, Note_on_c, 1, 50, 95
3, 249262, Note_on_c, 1, 50, 0
3, 249280, Note_on_c, 1, 55, 95
3, 249342, Note_on_c, 1, 55, 0
3, 249360, Note_on_c, 1, 45, 95
3, 249422, Note_on_c, 1, 45, 0
3, 249440, Note_on_c, 1, 50, 95
3, 249502, Note_on_c, 1, 50, 0
3, 249520, Note_on_c, 1, 55, 95
3, 249582, Note_on_c, 1, 55, 0
3, 249600, Note_on_c, 1, 47, 95
3, 249662, Note_on_c, 1, 47, 0
3, 249680, Note_on_c, 1, 50, 95
3, 249742, Note_on_c, 1, 50, 0
3, 249760, Note_on_c, 1, 55, 95
3, 249822, Note_on_c, 1, 55, 0
3, 249840, Note_on_c, 1, 43, 95
3, 250030, Note_on_c, 1, 43, 0
3, 252000, Note_on_c, 1, 59, 65
3, 252382, Note_on_c, 1, 59, 0
3, 253440, Note_on_c, 1, 56, 50
3, 253440, Note_on_c, 1, 34, 50
3, 253440, Note_on_c, 1, 46, 50
3, 253440, Note_on_c, 1, 50, 50
3, 253440, Note_on_c, 1, 53, 50
3, 254207, Note_on_c, 1, 56, 0
3, 254400, Note_on_c, 1, 55, 50
3, 254590, Note_on_c, 1, 55, 0
3, 254590, Note_on_c, 1, 53, 0
3, 254590, Note_on_c, 1, 34, 0
3, 254590, Note_on_c, 1, 46, 0
3, 254590, Note_on_c, 1, 50, 0
3, 255360, Note_on_c, 1, 36, 95
3, 255360, Note_on_c, 1, 48, 95
3, 255742, Note_on_c, 1, 48, 0
3, 255742, Note_on_c, 1, 36, 0
3, 255840, Note_on_c, 1, 39, 95
3, 255840, Note_on_c, 1, 51, 95
3, 256030, Note_on_c, 1, 51, 0
3, 256030, Note_on_c, 1, 39, 0
3, 256080, Note_on_c, 1, 43, 95
3, 256080, Note_on_c, 1, 55, 95
3, 256270, Note_on_c, 1, 55, 0
3, 256270, Note_on_c, 1, 43, 0
3, 256320, Note_on_c, 1, 48, 95
3, 256510, Note_on_c, 1, 48, 0
3, 256560, Note_on_c, 1, 51, 95
3, 256750, Note_on_c, 1, 51, 0
3, 259200, Note_on_c, 1, 31, 95
3, 259200, Note_on_c, 1, 43, 95
3, 259200, Note_on_c, 1, 55, 95
3, 259582, Note_on_c, 1, 55, 0
3, 259582, Note_on_c, 1, 43, 0
3, 259582, Note_on_c, 1, 31, 0
3, 259680, Note_on_c, 1, 35, 95
3, 259680, Note_on_c, 1, 47, 95
3, 259680, Note_on_c, 1, 59, 95
3, 259870, Note_on_c, 1, 59, 0
3, 259870, Note_on_c, 1, 47, 0
3, 259870, Note_on_c, 1, 35, 0
3, 259920, Note_on_c, 1, 38, 95
3, 259920, Note_on_c, 1, 50, 95
3, 260110, Note_on_c, 1, 50, 0
3, 260110, Note_on_c, 1, 38, 0
3, 260160, Note_on_c, 1, 43, 95
3, 260160, Note_on_c, 1, 55, 95
3, 260350, Note_on_c, 1, 55, 0
3, 260350, Note_on_c, 1, 43, 0
3, 260400, Note_on_c, 1, 47, 95
3, 260400, Note_on_c, 1, 59, 95
3, 260590, Note_on_c, 1, 59, 0
3, 260590, Note_on_c, 1, 47, 0
3, 263040, Note_on_c, 1, 43, 95
3, 263135, Note_on_c, 1, 43, 0
3, 263160, Note_on_c, 1, 55, 95
3, 263255, Note_on_c, 1, 55, 0
3, 263280, Note_on_c, 1, 43, 95
3, 263375, Note_on_c, 1, 43, 0
3, 263400, Note_on_c, 1, 55, 95
3, 263495, Note_on_c, 1, 55, 0
3, 263520, Note_on_c, 1, 43, 65
3, 263615, Note_on_c, 1, 43, 0
3, 263640, Note_on_c, 1, 55, 65
3, 263735, Note_on_c, 1, 55, 0
3, 263760, Note_on_c, 1, 43, 65
3, 263855, Note_on_c, 1, 43, 0
3, 263880, Note_on_c, 1, 55, 65
3, 263975, Note_on_c, 1, 55, 0
3, 264000, Note_on_c, 1, 43, 65
3, 264095, Note_on_c, 1, 43, 0
3, 264120, Note_on_c, 1, 55, 65
3, 264215, Note_on_c, 1, 55, 0
3, 264240, Note_on_c, 1, 43, 65
3, 264335, Note_on_c, 1, 43, 0
3, 264360, Note_on_c, 1, 55, 65
3, 264455, Note_on_c, 1, 55, 0
3, 264480, Note_on_c, 1, 43, 65
3, 264575, Note_on_c, 1, 43, 0
3, 264600, Note_on_c, 1, 55, 65
3, 264695, Note_on_c, 1, 55, 0
3, 264720, Note_on_c, 1, 43, 65
3, 264815, Note_on_c, 1, 43, 0
3, 264840, Note_on_c, 1, 55, 65
3, 264935, Note_on_c, 1, 55, 0
3, 264960, Note_on_c, 1, 43, 95
3, 265055, Note_on_c, 1, 43, 0
3, 265080, Note_on_c, 1, 55, 95
3, 265175, Note_on_c, 1, 55, 0
3, 265200, Note_on_c, 1, 43, 95
3, 265295, Note_on_c, 1, 43, 0
3, 265320, Note_on_c, 1, 55, 95
3, 265415, Note_on_c, 1, 55, 0
3, 265440, Note_on_c, 1, 43, 65
3, 265535, Note_on_c, 1, 43, 0
3, 265560, Note_on_c, 1, 55, 65
3, 265655, Note_on_c, 1, 55, 0
3, 265680, Note_on_c, 1, 43, 64
3, 265775, Note_on_c, 1, 43, 0
3, 265800, Note_on_c, 1, 55, 65
3, 265895, Note_on_c, 1, 55, 0
3, 265920, Note_on_c, 1, 43, 65
3, 266015, Note_on_c, 1, 43, 0
3, 266040, Note_on_c, 1, 55, 65
3, 266135, Note_on_c, 1, 55, 0
3, 266160, Note_on_c, 1, 43, 65
3, 266255, Note_on_c, 1, 43, 0
3, 266280, Note_on_c, 1, 55, 65
3, 266375, Note_on_c, 1, 55, 0
3, 266400, Note_on_c, 1, 43, 75
3, 266495, Note_on_c, 1, 43, 0
3, 266520, Note_on_c, 1, 55, 76
3, 266615, Note_on_c, 1, 55, 0
3, 266640, Note_on_c, 1, 43, 65
3, 266735, Note_on_c, 1, 43, 0
3, 266760, Note_on_c, 1, 55, 65
3, 266855, Note_on_c, 1, 55, 0
3, 266880, Note_on_c, 1, 43, 95
3, 266975, Note_on_c, 1, 43, 0
3, 267000, Note_on_c, 1, 55, 95
3, 267095, Note_on_c, 1, 55, 0
3, 267120, Note_on_c, 1, 55, 95
3, 267215, Note_on_c, 1, 55, 0
3, 267240, Note_on_c, 1, 55, 95
3, 267335, Note_on_c, 1, 55, 0
3, 267360, Note_on_c, 1, 41, 95
3, 267455, Note_on_c, 1, 41, 0
3, 267480, Note_on_c, 1, 53, 95
3, 267575, Note_on_c, 1, 53, 0
3, 267600, Note_on_c, 1, 53, 95
3, 267695, Note_on_c, 1, 53, 0
3, 267720, Note_on_c, 1, 53, 95
3, 267815, Note_on_c, 1, 53, 0
3, 267840, Note_on_c, 1, 39, 95
3, 267935, Note_on_c, 1, 39, 0
3, 267960, Note_on_c, 1, 51, 95
3, 268055, Note_on_c, 1, 51, 0
3, 268080, Note_on_c, 1, 51, 95
3, 268175, Note_on_c, 1, 51, 0
3, 268200, Note_on_c, 1, 51, 95
3, 268295, Note_on_c, 1, 51, 0
3, 268320, Note_on_c, 1, 35, 95
3, 268415, Note_on_c, 1, 35, 0
3, 268440, Note_on_c, 1, 47, 95
3, 268535, Note_on_c, 1, 47, 0
3, 268560, Note_on_c, 1, 47, 95
3, 268655, Note_on_c, 1, 47, 0
3, 268680, Note_on_c, 1, 47, 95
3, 268775, Note_on_c, 1, 47, 0
3, 268800, Note_on_c, 1, 36, 95
3, 268895, Note_on_c, 1, 36, 0
3, 268920, Note_on_c, 1, 48, 95
3, 269015, Note_on_c, 1, 48, 0
3, 269040, Note_on_c, 1, 48, 95
3, 269135, Note_on_c, 1, 48, 0
3, 269160, Note_on_c, 1, 48, 95
3, 269255, Note_on_c, 1, 48, 0
3, 269280, Note_on_c, 1, 41, 95
3, 269375, Note_on_c, 1, 41, 0
3, 269400, Note_on_c, 1, 53, 95
3, 269495, Note_on_c, 1, 53, 0
3, 269520, Note_on_c, 1, 53, 95
3, 269615, Note_on_c, 1, 53, 0
3, 269640, Note_on_c, 1, 53, 95
3, 269735, Note_on_c, 1, 53, 0
3, 269760, Note_on_c, 1, 39, 95
3, 269855, Note_on_c, 1, 39, 0
3, 269880, Note_on_c, 1, 51, 95
3, 269975, Note_on_c, 1, 51, 0
3, 270000, Note_on_c, 1, 51, 95
3, 270095, Note_on_c, 1, 51, 0
3, 270120, Note_on_c, 1, 51, 95
3, 270215, Note_on_c, 1, 51, 0
3, 270240, Note_on_c, 1, 38, 95
3, 270335, Note_on_c, 1, 38, 0
3, 270360, Note_on_c, 1, 50, 95
3, 270455, Note_on_c, 1, 50, 0
3, 270480, Note_on_c, 1, 50, 95
3, 270575, Note_on_c, 1, 50, 0
3, 270600, Note_on_c, 1, 50, 95
3, 270695, Note_on_c, 1, 50, 0
3, 270720, Note_on_c, 1, 48, 86
3, 270910, Note_on_c, 1, 48, 0
3, 271200, Note_on_c, 1, 53, 65
3, 271390, Note_on_c, 1, 53, 0
3, 271680, Note_on_c, 1, 55, 65
3, 271870, Note_on_c, 1, 55, 0
3, 272160, Note_on_c, 1, 43, 76
3, 272350, Note_on_c, 1, 43, 0
3, 274080, Note_on_c, 1, 32, 95
3, 274080, Note_on_c, 1, 44, 95
3, 274462, Note_on_c, 1, 44, 0
3, 274462, Note_on_c, 1, 32, 0
3, 274560, Note_on_c, 1, 36, 95
3, 274560, Note_on_c, 1, 48, 95
3, 274750, Note_on_c, 1, 48, 0
3, 274750, Note_on_c, 1, 36, 0
3, 274800, Note_on_c, 1, 41, 95
3, 274800, Note_on_c, 1, 53, 95
3, 274990, Note_on_c, 1, 53, 0
3, 274990, Note_on_c, 1, 41, 0
3, 275040, Note_on_c, 1, 44, 83
3, 275040, Note_on_c, 1, 56, 83
3, 275422, Note_on_c, 1, 56, 0
3, 275422, Note_on_c, 1, 44, 0
3, 276000, Note_on_c, 1, 56, 65
3, 276095, Note_on_c, 1, 56, 0
3, 276480, Note_on_c, 1, 56, 65
3, 276575, Note_on_c, 1, 56, 0
3, 276960, Note_on_c, 1, 56, 65
3, 277055, Note_on_c, 1, 56, 0
3, 277440, Note_on_c, 1, 56, 65
3, 277535, Note_on_c, 1, 56, 0
3, 277920, Note_on_c, 1, 56, 65
3, 278015, Note_on_c, 1, 56, 0
3, 278400, Note_on_c, 1, 56, 65
3, 278495, Note_on_c, 1, 56, 0
3, 278880, Note_on_c, 1, 56, 65
3, 278975, Note_on_c, 1, 56, 0
3, 279360, Note_on_c, 1, 57, 65
3, 280127, Note_on_c, 1, 57, 0
3, 280560, Note_on_c, 1, 55, 65
3, 280560, Note_on_c, 1, 59, 65
3, 280750, Note_on_c, 1, 59, 0
3, 280750, Note_on_c, 1, 55, 0
3, 280800, Note_on_c, 1, 56, 65
3, 280990, Note_on_c, 1, 56, 0
3, 281520, Note_on_c, 1, 55, 65
3, 281520, Note_on_c, 1, 59, 65
3, 281710, Note_on_c, 1, 59, 0
3, 281710, Note_on_c, 1, 55, 0
3, 281760, Note_on_c, 1, 56, 65
3, 281950, Note_on_c, 1, 56, 0
3, 282240, Note_on_c, 1, 59, 65
3, 282240, Note_on_c, 1, 55, 65
3, 282430, Note_on_c, 1, 55, 0
3, 282430, Note_on_c, 1, 59, 0
3, 282480, Note_on_c, 1, 56, 65
3, 282670, Note_on_c, 1, 56, 0
3, 282720, Note_on_c, 1, 55, 65
3, 282720, Note_on_c, 1, 59, 65
3, 282910, Note_on_c, 1, 59, 0
3, 282910, Note_on_c, 1, 55, 0
3, 282960, Note_on_c, 1, 56, 65
3, 283150, Note_on_c, 1, 56, 0
3, 283200, Note_on_c, 1, 55, 65
3, 283200, Note_on_c, 1, 59, 65
3, 283390, Note_on_c, 1, 59, 0
3, 283390, Note_on_c, 1, 55, 0
3, 287040, Note_on_c, 1, 53, 65
3, 287327, Note_on_c, 1, 53, 0
3, 287400, Note_on_c, 1, 52, 65
3, 287455, Note_on_c, 1, 52, 0
3, 287460, Note_on_c, 1, 53, 65
3, 287515, Note_on_c, 1, 53, 0
3, 287520, Note_on_c, 1, 55, 65
3, 287615, Note_on_c, 1, 55, 0
3, 287640, Note_on_c, 1, 53, 65
3, 287735, Note_on_c, 1, 53, 0
3, 287760, Note_on_c, 1, 51, 65
3, 287855, Note_on_c, 1, 51, 0
3, 287880, Note_on_c, 1, 50, 65
3, 287975, Note_on_c, 1, 50, 0
3, 288000, Note_on_c, 1, 48, 65
3, 288382, Note_on_c, 1, 48, 0
3, 288480, Note_on_c, 1, 47, 65
3, 288670, Note_on_c, 1, 47, 0
3, 288960, Note_on_c, 1, 59, 65
3, 289055, Note_on_c, 1, 59, 0
3, 289200, Note_on_c, 1, 59, 65
3, 289295, Note_on_c, 1, 59, 0
3, 290880, Note_on_c, 1, 55, 65
3, 291167, Note_on_c, 1, 55, 0
3, 291240, Note_on_c, 1, 54, 65
3, 291287, Note_on_c, 1, 54, 0
3, 291300, Note_on_c, 1, 55, 65
3, 291347, Note_on_c, 1, 55, 0
3, 291360, Note_on_c, 1, 56, 65
3, 291455, Note_on_c, 1, 56, 0
3, 291480, Note_on_c, 1, 55, 65
3, 291575, Note_on_c, 1, 55, 0
3, 291600, Note_on_c, 1, 53, 65
3, 291695, Note_on_c, 1, 53, 0
3, 291720, Note_on_c, 1, 51, 65
3, 291815, Note_on_c, 1, 51, 0
3, 291840, Note_on_c, 1, 50, 65
3, 292222, Note_on_c, 1, 50, 0
3, 292320, Note_on_c, 1, 48, 75
3, 292510, Note_on_c, 1, 48, 0
3, 293280, Note_on_c, 1, 58, 95
3, 293375, Note_on_c, 1, 58, 0
3, 293520, Note_on_c, 1, 58, 95
3, 293615, Note_on_c, 1, 58, 0
3, 293760, Note_on_c, 1, 57, 95
3, 293855, Note_on_c, 1, 57, 0
3, 294000, Note_on_c, 1, 56, 95
3, 294190, Note_on_c, 1, 56, 0
3, 294960, Note_on_c, 1, 55, 65
3, 294960, Note_on_c, 1, 59, 65
3, 295150, Note_on_c, 1, 59, 0
3, 295150, Note_on_c, 1, 55, 0
3, 295200, Note_on_c, 1, 59, 65
3, 295390, Note_on_c, 1, 59, 0
3, 295920, Note_on_c, 1, 48, 65
3, 295920, Note_on_c, 1, 52, 65
3, 296110, Note_on_c, 1, 52, 0
3, 296110, Note_on_c, 1, 48, 0
3, 296160, Note_on_c, 1, 55, 65
3, 296160, Note_on_c, 1, 52, 65
3, 296350, Note_on_c, 1, 52, 0
3, 296350, Note_on_c, 1, 55, 0
3, 296640, Note_on_c, 1, 53, 65
3, 296830, Note_on_c, 1, 53, 0
3, 297600, Note_on_c, 1, 55, 65
3, 298367, Note_on_c, 1, 55, 0
3, 298560, Note_on_c, 1, 48, 95
3, 298560, Note_on_c, 1, 51, 95
3, 298655, Note_on_c, 1, 51, 0
3, 298655, Note_on_c, 1, 48, 0
3, 298680, Note_on_c, 1, 55, 95
3, 298775, Note_on_c, 1, 55, 0
3, 298800, Note_on_c, 1, 48, 95
3, 298800, Note_on_c, 1, 51, 95
3, 298895, Note_on_c, 1, 51, 0
3, 298895, Note_on_c, 1, 48, 0
3, 298920, Note_on_c, 1, 55, 95
3, 299015, Note_on_c, 1, 55, 0
3, 299040, Note_on_c, 1, 46, 95
3, 299040, Note_on_c, 1, 52, 95
3, 299135, Note_on_c, 1, 52, 0
3, 299135, Note_on_c, 1, 46, 0
3, 299160, Note_on_c, 1, 55, 95
3, 299255, Note_on_c, 1, 55, 0
3, 299280, Note_on_c, 1, 46, 95
3, 299280, Note_on_c, 1, 52, 95
3, 299375, Note_on_c, 1, 52, 0
3, 299375, Note_on_c, 1, 46, 0
3, 299400, Note_on_c, 1, 55, 95
3, 299495, Note_on_c, 1, 55, 0
3, 299520, Note_on_c, 1, 45, 95
3, 299520, Note_on_c, 1, 48, 95
3, 299615, Note_on_c, 1, 48, 0
3, 299615, Note_on_c, 1, 45, 0
3, 299640, Note_on_c, 1, 53, 95
3, 299735, Note_on_c, 1, 53, 0
3, 299760, Note_on_c, 1, 44, 95
3, 299760, Note_on_c, 1, 48, 95
3, 299760, Note_on_c, 1, 54, 95
3, 299950, Note_on_c, 1, 54, 0
3, 299950, Note_on_c, 1, 48, 0
3, 299950, Note_on_c, 1, 44, 0
3, 300720, Note_on_c, 1, 43, 65
3, 300720, Note_on_c, 1, 47, 65
3, 300910, Note_on_c, 1, 47, 0
3, 300910, Note_on_c, 1, 43, 0
3, 300960, Note_on_c, 1, 47, 65
3, 300960, Note_on_c, 1, 50, 65
3, 301150, Note_on_c, 1, 50, 0
3, 301150, Note_on_c, 1, 47, 0
3, 301680, Note_on_c, 1, 58, 65
3, 301680, Note_on_c, 1, 40, 65
3, 301680, Note_on_c, 1, 36, 65
3, 301870, Note_on_c, 1, 36, 0
3, 301870, Note_on_c, 1, 40, 0
3, 301870, Note_on_c, 1, 58, 0
3, 301920, Note_on_c, 1, 43, 75
3, 301920, Note_on_c, 1, 40, 77
3, 302110, Note_on_c, 1, 40, 0
3, 302110, Note_on_c, 1, 43, 0
3, 302280, Note_on_c, 1, 58, 85
3, 302375, Note_on_c, 1, 58, 0
3, 302400, Note_on_c, 1, 41, 95
3, 302400, Note_on_c, 1, 29, 95
3, 302400, Note_on_c, 1, 56, 95
3, 302462, Note_on_c, 1, 56, 0
3, 302560, Note_on_c, 1, 52, 95
3, 302622, Note_on_c, 1, 52, 0
3, 302640, Note_on_c, 1, 53, 95
3, 302702, Note_on_c, 1, 53, 0
3, 302720, Note_on_c, 1, 56, 95
3, 302782, Note_on_c, 1, 56, 0
3, 302800, Note_on_c, 1, 47, 95
3, 302862, Note_on_c, 1, 47, 0
3, 302880, Note_on_c, 1, 48, 95
3, 302942, Note_on_c, 1, 48, 0
3, 302960, Note_on_c, 1, 53, 95
3, 303022, Note_on_c, 1, 53, 0
3, 303040, Note_on_c, 1, 43, 95
3, 303102, Note_on_c, 1, 43, 0
3, 303120, Note_on_c, 1, 44, 95
3, 303167, Note_on_c, 1, 29, 0
3, 303167, Note_on_c, 1, 41, 0
3, 303182, Note_on_c, 1, 44, 0
3, 303200, Note_on_c, 1, 48, 95
3, 303262, Note_on_c, 1, 48, 0
3, 303280, Note_on_c, 1, 40, 95
3, 303342, Note_on_c, 1, 40, 0
3, 303360, Note_on_c, 1, 41, 95
3, 303422, Note_on_c, 1, 41, 0
3, 303440, Note_on_c, 1, 36, 95
3, 303502, Note_on_c, 1, 36, 0
3, 303520, Note_on_c, 1, 41, 95
3, 303582, Note_on_c, 1, 41, 0
3, 303600, Note_on_c, 1, 44, 95
3, 303662, Note_on_c, 1, 44, 0
3, 303680, Note_on_c, 1, 41, 95
3, 303742, Note_on_c, 1, 41, 0
3, 303760, Note_on_c, 1, 44, 95
3, 303822, Note_on_c, 1, 44, 0
3, 303840, Note_on_c, 1, 48, 95
3, 303902, Note_on_c, 1, 48, 0
3, 303920, Note_on_c, 1, 44, 95
3, 303982, Note_on_c, 1, 44, 0
3, 304000, Note_on_c, 1, 48, 95
3, 304062, Note_on_c, 1, 48, 0
3, 304080, Note_on_c, 1, 53, 95
3, 304142, Note_on_c, 1, 53, 0
3, 304160, Note_on_c, 1, 48, 95
3, 304222, Note_on_c, 1, 48, 0
3, 304240, Note_on_c, 1, 53, 95
3, 304302, Note_on_c, 1, 53, 0
3, 304320, Note_on_c, 1, 56, 95
3, 304382, Note_on_c, 1, 56, 0
3, 304400, Note_on_c, 1, 53, 95
3, 304462, Note_on_c, 1, 53, 0
3, 304480, Note_on_c, 1, 56, 95
3, 304542, Note_on_c, 1, 56, 0
3, 304640, Note_on_c, 1, 56, 95
3, 304702, Note_on_c, 1, 56, 0
3, 307200, Note_on_c, 1, 55, 65
3, 307390, Note_on_c, 1, 55, 0
3, 308160, Note_on_c, 1, 55, 65
3, 308255, Note_on_c, 1, 55, 0
3, 309600, Note_on_c, 1, 59, 65
3, 309695, Note_on_c, 1, 59, 0
3, 310560, Note_on_c, 1, 50, 65
3, 310655, Note_on_c, 1, 50, 0
3, 310680, Note_on_c, 1, 59, 65
3, 310775, Note_on_c, 1, 59, 0
3, 310800, Note_on_c, 1, 53, 65
3, 310895, Note_on_c, 1, 53, 0
3, 310920, Note_on_c, 1, 59, 65
3, 311015, Note_on_c, 1, 59, 0
3, 311040, Note_on_c, 1, 51, 65
3, 311135, Note_on_c, 1, 51, 0
3, 311280, Note_on_c, 1, 52, 65
3, 311375, Note_on_c, 1, 52, 0
3, 311520, Note_on_c, 1, 53, 65
3, 311615, Note_on_c, 1, 53, 0
3, 311760, Note_on_c, 1, 54, 65
3, 311855, Note_on_c, 1, 54, 0
3, 312000, Note_on_c, 1, 55, 65
3, 312095, Note_on_c, 1, 55, 0
3, 312480, Note_on_c, 1, 55, 65
3, 312575, Note_on_c, 1, 55, 0
3, 312960, Note_on_c, 1, 48, 95
3, 313055, Note_on_c, 1, 48, 0
3, 313080, Note_on_c, 1, 55, 95
3, 313175, Note_on_c, 1, 55, 0
3, 313200, Note_on_c, 1, 51, 95
3, 313295, Note_on_c, 1, 51, 0
3, 313320, Note_on_c, 1, 55, 95
3, 313415, Note_on_c, 1, 55, 0
3, 313440, Note_on_c, 1, 47, 95
3, 313535, Note_on_c, 1, 47, 0
3, 313560, Note_on_c, 1, 55, 95
3, 313655, Note_on_c, 1, 55, 0
3, 313680, Note_on_c, 1, 53, 95
3, 313775, Note_on_c, 1, 53, 0
3, 313800, Note_on_c, 1, 55, 95
3, 313895, Note_on_c, 1, 55, 0
3, 313920, Note_on_c, 1, 48, 95
3, 314015, Note_on_c, 1, 48, 0
3, 314040, Note_on_c, 1, 55, 95
3, 314135, Note_on_c, 1, 55, 0
3, 314160, Note_on_c, 1, 51, 95
3, 314255, Note_on_c, 1, 51, 0
3, 314280, Note_on_c, 1, 55, 95
3, 314375, Note_on_c, 1, 55, 0
3, 314400, Note_on_c, 1, 50, 95
3, 314495, Note_on_c, 1, 50, 0
3, 314520, Note_on_c, 1, 59, 95
3, 314615, Note_on_c, 1, 59, 0
3, 314640, Note_on_c, 1, 55, 95
3, 314735, Note_on_c, 1, 55, 0
3, 314760, Note_on_c, 1, 59, 95
3, 314855, Note_on_c, 1, 59, 0
3, 314880, Note_on_c, 1, 48, 95
3, 315455, Note_on_c, 1, 48, 0
3, 315600, Note_on_c, 1, 52, 95
3, 315790, Note_on_c, 1, 52, 0
3, 315840, Note_on_c, 1, 53, 95
3, 316030, Note_on_c, 1, 53, 0
3, 316080, Note_on_c, 1, 53, 95
3, 316270, Note_on_c, 1, 53, 0
3, 316320, Note_on_c, 1, 55, 95
3, 316510, Note_on_c, 1, 55, 0
3, 316560, Note_on_c, 1, 43, 95
3, 316750, Note_on_c, 1, 43, 0
3, 316800, Note_on_c, 1, 48, 95
3, 316990, Note_on_c, 1, 48, 0
3, 317760, Note_on_c, 1, 55, 95
3, 317950, Note_on_c, 1, 55, 0
3, 318480, Note_on_c, 1, 56, 95
3, 318670, Note_on_c, 1, 56, 0
3, 319440, Note_on_c, 1, 48, 95
3, 319440, Note_on_c, 1, 51, 95
3, 319630, Note_on_c, 1, 51, 0
3, 319630, Note_on_c, 1, 48, 0
3, 319680, Note_on_c, 1, 50, 95
3, 319680, Note_on_c, 1, 53, 95
3, 319680, Note_on_c, 1, 47, 95
3, 319680, Note_on_c, 1, 43, 95
3, 320447, Note_on_c, 1, 43, 0
3, 320447, Note_on_c, 1, 50, 0
3, 320447, Note_on_c, 1, 53, 0
3, 320447, Note_on_c, 1, 47, 0
3, 320640, Note_on_c, 1, 36, 95
3, 320640, Note_on_c, 1, 48, 95
3, 321022, Note_on_c, 1, 48, 0
3, 321022, Note_on_c, 1, 36, 0
3, 321120, Note_on_c, 1, 39, 95
3, 321120, Note_on_c, 1, 51, 95
3, 321310, Note_on_c, 1, 51, 0
3, 321310, Note_on_c, 1, 39, 0
3, 321360, Note_on_c, 1, 43, 95
3, 321360, Note_on_c, 1, 55, 95
3, 321550, Note_on_c, 1, 55, 0
3, 321550, Note_on_c, 1, 43, 0
3, 321600, Note_on_c, 1, 48, 95
3, 321790, Note_on_c, 1, 48, 0
3, 321840, Note_on_c, 1, 51, 95
3, 322030, Note_on_c, 1, 51, 0
3, 322560, Note_on_c, 1, 32, 95
3, 322560, Note_on_c, 1, 44, 95
3, 322942, Note_on_c, 1, 44, 0
3, 322942, Note_on_c, 1, 32, 0
3, 323040, Note_on_c, 1, 36, 95
3, 323040, Note_on_c, 1, 48, 95
3, 323230, Note_on_c, 1, 48, 0
3, 323230, Note_on_c, 1, 36, 0
3, 323280, Note_on_c, 1, 39, 95
3, 323280, Note_on_c, 1, 51, 95
3, 323470, Note_on_c, 1, 51, 0
3, 323470, Note_on_c, 1, 39, 0
3, 323520, Note_on_c, 1, 44, 95
3, 323520, Note_on_c, 1, 56, 95
3, 323710, Note_on_c, 1, 56, 0
3, 323710, Note_on_c, 1, 44, 0
3, 323760, Note_on_c, 1, 48, 95
3, 323950, Note_on_c, 1, 48, 0
3, 324480, Note_on_c, 1, 30, 95
3, 324480, Note_on_c, 1, 42, 95
3, 324862, Note_on_c, 1, 42, 0
3, 324862, Note_on_c, 1, 30, 0
3, 324960, Note_on_c, 1, 45, 95
3, 324960, Note_on_c, 1, 33, 95
3, 325150, Note_on_c, 1, 33, 0
3, 325150, Note_on_c, 1, 45, 0
3, 325200, Note_on_c, 1, 36, 95
3, 325200, Note_on_c, 1, 48, 95
3, 325390, Note_on_c, 1, 48, 0
3, 325390, Note_on_c, 1, 36, 0
3, 325440, Note_on_c, 1, 42, 95
3, 325440, Note_on_c, 1, 54, 95
3, 325630, Note_on_c, 1, 54, 0
3, 325630, Note_on_c, 1, 42, 0
3, 325680, Note_on_c, 1, 57, 95
3, 325680, Note_on_c, 1, 45, 95
3, 325870, Note_on_c, 1, 45, 0
3, 325870, Note_on_c, 1, 57, 0
3, 325920, Note_on_c, 1, 48, 95
3, 326110, Note_on_c, 1, 48, 0
3, 326160, Note_on_c, 1, 51, 95
3, 326350, Note_on_c, 1, 51, 0
3, 326400, Note_on_c, 1, 55, 95
3, 326462, Note_on_c, 1, 55, 0
3, 326640, Note_on_c, 1, 55, 95
3, 326702, Note_on_c, 1, 55, 0
3, 326880, Note_on_c, 1, 55, 95
3, 326942, Note_on_c, 1, 55, 0
3, 327120, Note_on_c, 1, 55, 95
3, 327182, Note_on_c, 1, 55, 0
3, 327360, Note_on_c, 1, 55, 95
3, 327422, Note_on_c, 1, 55, 0
3, 327440, Note_on_c, 1, 59, 95
3, 327502, Note_on_c, 1, 59, 0
3, 327600, Note_on_c, 1, 55, 95
3, 327662, Note_on_c, 1, 55, 0
3, 327680, Note_on_c, 1, 59, 95
3, 327742, Note_on_c, 1, 59, 0
3, 327840, Note_on_c, 1, 55, 95
3, 327902, Note_on_c, 1, 55, 0
3, 327920, Note_on_c, 1, 59, 95
3, 327982, Note_on_c, 1, 59, 0
3, 328080, Note_on_c, 1, 55, 95
3, 328142, Note_on_c, 1, 55, 0
3, 328160, Note_on_c, 1, 59, 95
3, 328222, Note_on_c, 1, 59, 0
3, 328560, Note_on_c, 1, 59, 65
3, 328750, Note_on_c, 1, 59, 0
3, 329040, Note_on_c, 1, 55, 95
3, 329230, Note_on_c, 1, 55, 0
3, 329280, Note_on_c, 1, 56, 65
3, 329470, Note_on_c, 1, 56, 0
3, 329520, Note_on_c, 1, 55, 65
3, 329710, Note_on_c, 1, 55, 0
3, 329760, Note_on_c, 1, 56, 65
3, 329950, Note_on_c, 1, 56, 0
3, 330000, Note_on_c, 1, 51, 95
3, 330190, Note_on_c, 1, 51, 0
3, 330240, Note_on_c, 1, 53, 65
3, 330430, Note_on_c, 1, 53, 0
3, 330480, Note_on_c, 1, 54, 65
3, 330670, Note_on_c, 1, 54, 0
3, 330720, Note_on_c, 1, 55, 65
3, 330910, Note_on_c, 1, 55, 0
3, 330960, Note_on_c, 1, 43, 65
3, 331040, Note_on_c, 1, 55, 65
3, 331102, Note_on_c, 1, 55, 0
3, 331150, Note_on_c, 1, 43, 0
3, 331200, Note_on_c, 1, 48, 65
3, 331390, Note_on_c, 1, 48, 0
3, 331440, Note_on_c, 1, 47, 65
3, 331520, Note_on_c, 1, 59, 65
3, 331582, Note_on_c, 1, 59, 0
3, 331630, Note_on_c, 1, 47, 0
3, 331680, Note_on_c, 1, 48, 65
3, 331870, Note_on_c, 1, 48, 0
3, 331920, Note_on_c, 1, 43, 95
3, 332000, Note_on_c, 1, 55, 95
3, 332062, Note_on_c, 1, 55, 0
3, 332110, Note_on_c, 1, 43, 0
3, 332160, Note_on_c, 1, 44, 65
3, 332240, Note_on_c, 1, 56, 65
3, 332302, Note_on_c, 1, 56, 0
3, 332350, Note_on_c, 1, 44, 0
3, 332400, Note_on_c, 1, 43, 65
3, 332480, Note_on_c, 1, 55, 65
3, 332542, Note_on_c, 1, 55, 0
3, 332590, Note_on_c, 1, 43, 0
3, 332640, Note_on_c, 1, 44, 65
3, 332720, Note_on_c, 1, 56, 65
3, 332782, Note_on_c, 1, 56, 0
3, 332830, Note_on_c, 1, 44, 0
3, 332880, Note_on_c, 1, 39, 96
3, 332960, Note_on_c, 1, 51, 97
3, 333022, Note_on_c, 1, 51, 0
3, 333070, Note_on_c, 1, 39, 0
3, 333120, Note_on_c, 1, 41, 65
3, 333200, Note_on_c, 1, 53, 65
3, 333262, Note_on_c, 1, 53, 0
3, 333310, Note_on_c, 1, 41, 0
3, 333360, Note_on_c, 1, 42, 65
3, 333440, Note_on_c, 1, 54, 65
3, 333502, Note_on_c, 1, 54, 0
3, 333550, Note_on_c, 1, 42, 0
3, 333600, Note_on_c, 1, 43, 65
3, 333680, Note_on_c, 1, 55, 65
3, 333742, Note_on_c, 1, 55, 0
3, 333790, Note_on_c, 1, 43, 0
3, 333840, Note_on_c, 1, 31, 65
3, 333920, Note_on_c, 1, 43, 65
3, 333982, Note_on_c, 1, 43, 0
3, 334000, Note_on_c, 1, 55, 65
3, 334030, Note_on_c, 1, 31, 0
3, 334062, Note_on_c, 1, 55, 0
3, 334080, Note_on_c, 1, 36, 65
3, 334160, Note_on_c, 1, 48, 65
3, 334222, Note_on_c, 1, 48, 0
3, 334240, Note_on_c, 1, 51, 65
3, 334302, Note_on_c, 1, 51, 0
3, 334320, Note_on_c, 1, 55, 65
3, 334382, Note_on_c, 1, 55, 0
3, 334400, Note_on_c, 1, 51, 65
3, 334462, Note_on_c, 1, 51, 0
3, 334480, Note_on_c, 1, 48, 65
3, 334542, Note_on_c, 1, 48, 0
3, 334560, Note_on_c, 1, 55, 65
3, 334622, Note_on_c, 1, 55, 0
3, 334640, Note_on_c, 1, 51, 65
3, 334655, Note_on_c, 1, 36, 0
3, 334702, Note_on_c, 1, 51, 0
3, 334720, Note_on_c, 1, 48, 65
3, 334782, Note_on_c, 1, 48, 0
3, 334800, Note_on_c, 1, 31, 65
3, 334800, Note_on_c, 1, 53, 65
3, 334862, Note_on_c, 1, 53, 0
3, 334880, Note_on_c, 1, 50, 65
3, 334942, Note_on_c, 1, 50, 0
3, 334960, Note_on_c, 1, 47, 65
3, 334990, Note_on_c, 1, 31, 0
3, 335022, Note_on_c, 1, 47, 0
3, 335040, Note_on_c, 1, 36, 65
3, 335120, Note_on_c, 1, 43, 65
3, 335182, Note_on_c, 1, 43, 0
3, 335200, Note_on_c, 1, 48, 65
3, 335262, Note_on_c, 1, 48, 0
3, 335280, Note_on_c, 1, 51, 65
3, 335342, Note_on_c, 1, 51, 0
3, 335360, Note_on_c, 1, 48, 65
3, 335422, Note_on_c, 1, 48, 0
3, 335440, Note_on_c, 1, 43, 65
3, 335502, Note_on_c, 1, 43, 0
3, 335520, Note_on_c, 1, 51, 65
3, 335582, Note_on_c, 1, 51, 0
3, 335600, Note_on_c, 1, 48, 65
3, 335615, Note_on_c, 1, 36, 0
3, 335662, Note_on_c, 1, 48, 0
3, 335680, Note_on_c, 1, 43, 65
3, 335742, Note_on_c, 1, 43, 0
3, 335760, Note_on_c, 1, 31, 65
3, 335760, Note_on_c, 1, 50, 65
3, 335822, Note_on_c, 1, 50, 0
3, 335840, Note_on_c, 1, 47, 65
3, 335902, Note_on_c, 1, 47, 0
3, 335920, Note_on_c, 1, 43, 65
3, 335950, Note_on_c, 1, 31, 0
3, 335982, Note_on_c, 1, 43, 0
3, 336000, Note_on_c, 1, 36, 65
3, 336000, Note_on_c, 1, 48, 65
3, 336190, Note_on_c, 1, 48, 0
3, 336190, Note_on_c, 1, 36, 0
3, 336480, Note_on_c, 1, 39, 65
3, 336480, Note_on_c, 1, 36, 65
3, 336480, Note_on_c, 1, 43, 65
3, 336480, Note_on_c, 1, 48, 65
3, 336670, Note_on_c, 1, 48, 0
3, 336670, Note_on_c, 1, 39, 0
3, 336670, Note_on_c, 1, 36, 0
3, 336670, Note_on_c, 1, 43, 0
3, 336960, Note_on_c, 1, 36, 50
3, 336960, Note_on_c, 1, 39, 50
3, 336960, Note_on_c, 1, 43, 50
3, 336960, Note_on_c, 1, 48, 50
3, 337342, Note_on_c, 1, 48, 0
3, 337342, Note_on_c, 1, 36, 0
3, 337342, Note_on_c, 1, 39, 0
3, 337342, Note_on_c, 1, 43, 0
3, 337342, End_track
0, 0, End_of_file
