0, 0, Header, 1, 3, 96
1, 0, Start_track
1, 0, Time_signature, 3, 2, 96, 8
1, 0, Tempo, 750000
1, 0, End_track
2, 0, Start_track
2, 0, Control_c, 0, 0, 0
2, 0, Time_signature, 3, 2, 96, 8
2, 0, Tempo, 750000
2, 0, Note_on_c, 0, 72, 94
2, 64, Note_on_c, 0, 60, 94
2, 76, Note_off_c, 0, 72, 64
2, 84, Note_on_c, 0, 71, 94
2, 88, Note_off_c, 0, 60, 64
2, 96, Note_off_c, 0, 71, 64
2, 96, Note_on_c, 0, 72, 94
2, 160, Note_on_c, 0, 60, 94
2, 172, Note_off_c, 0, 72, 64
2, 182, Note_on_c, 0, 72, 94
2, 182, Note_on_c, 0, 71, 94
2, 184, Note_off_c, 0, 60, 64
2, 186, Note_off_c, 0, 72, 64
2, 186, Note_off_c, 0, 71, 64
2, 186, Note_on_c, 0, 74, 94
2, 188, Note_off_c, 0, 74, 64
2, 192, Note_on_c, 0, 72, 94
2, 256, Note_on_c, 0, 60, 94
2, 268, Note_off_c, 0, 72, 64
2, 280, Note_off_c, 0, 60, 64
2, 288, Note_on_c, 0, 82, 94
2, 352, Note_on_c, 0, 60, 94
2, 364, Note_off_c, 0, 82, 64
2, 376, Note_off_c, 0, 60, 64
2, 384, Note_on_c, 0, 70, 94
2, 460, Note_off_c, 0, 70, 64
2, 528, Note_on_c, 0, 69, 66
2, 544, Note_on_c, 0, 60, 66
2, 566, Note_off_c, 0, 69, 64
2, 568, Note_off_c, 0, 60, 64
2, 576, Note_on_c, 0, 67, 80
2, 600, Note_off_c, 0, 67, 64
2, 608, Note_on_c, 0, 70, 80
2, 632, Note_off_c, 0, 70, 64
2, 640, Note_on_c, 0, 67, 80
2, 664, Note_off_c, 0, 67, 64
2, 672, Note_on_c, 0, 65, 80
2, 696, Note_off_c, 0, 65, 64
2, 704, Note_on_c, 0, 69, 80
2, 728, Note_off_c, 0, 69, 64
2, 736, Note_on_c, 0, 65, 80
2, 760, Note_off_c, 0, 65, 64
2, 768, Note_on_c, 0, 64, 80
2, 792, Note_off_c, 0, 64, 64
2, 800, Note_on_c, 0, 67, 80
2, 824, Note_off_c, 0, 67, 64
2, 832, Note_on_c, 0, 64, 80
2, 856, Note_off_c, 0, 64, 64
2, 864, Note_on_c, 0, 82, 52
2, 940, Note_off_c, 0, 82, 64
2, 960, Note_on_c, 0, 70, 52
2, 1024, Note_on_c, 0, 60, 52
2, 1036, Note_off_c, 0, 70, 64
2, 1048, Note_off_c, 0, 60, 64
2, 1104, Note_on_c, 0, 69, 52
2, 1120, Note_on_c, 0, 60, 52
2, 1142, Note_off_c, 0, 69, 64
2, 1144, Note_off_c, 0, 60, 64
2, 1152, Note_on_c, 0, 67, 52
2, 1176, Note_off_c, 0, 67, 64
2, 1184, Note_on_c, 0, 70, 52
2, 1208, Note_off_c, 0, 70, 64
2, 1216, Note_on_c, 0, 69, 52
2, 1240, Note_off_c, 0, 69, 64
2, 1248, Note_on_c, 0, 65, 52
2, 1272, Note_off_c, 0, 65, 64
2, 1280, Note_on_c, 0, 69, 52
2, 1304, Note_off_c, 0, 69, 64
2, 1312, Note_on_c, 0, 65, 52
2, 1336, Note_off_c, 0, 65, 64
2, 1344, Note_on_c, 0, 64, 52
2, 1368, Note_off_c, 0, 64, 64
2, 1376, Note_on_c, 0, 67, 52
2, 1400, Note_off_c, 0, 67, 64
2, 1408, Note_on_c, 0, 64, 52
2, 1432, Note_off_c, 0, 64, 64
2, 1440, Note_on_c, 0, 65, 96
2, 1472, Note_on_c, 0, 60, 96
2, 1496, Note_off_c, 0, 60, 64
2, 1516, Note_off_c, 0, 65, 64
2, 1568, Note_on_c, 0, 64, 52
2, 1592, Note_off_c, 0, 64, 64
2, 1600, Note_on_c, 0, 65, 52
2, 1624, Note_off_c, 0, 65, 64
2, 1632, Note_on_c, 0, 67, 52
2, 1656, Note_off_c, 0, 67, 64
2, 1664, Note_on_c, 0, 65, 52
2, 1688, Note_off_c, 0, 65, 64
2, 1696, Note_on_c, 0, 67, 52
2, 1696, Note_on_c, 0, 70, 52
2, 1720, Note_off_c, 0, 67, 64
2, 1720, Note_off_c, 0, 70, 64
2, 1728, Note_on_c, 0, 69, 96
2, 1728, Note_on_c, 0, 65, 96
2, 1752, Note_off_c, 0, 69, 64
2, 1752, Note_off_c, 0, 65, 64
2, 1760, Note_on_c, 0, 67, 96
2, 1760, Note_on_c, 0, 64, 96
2, 1784, Note_off_c, 0, 67, 64
2, 1784, Note_off_c, 0, 64, 64
2, 1792, Note_on_c, 0, 66, 96
2, 1792, Note_on_c, 0, 63, 96
2, 1816, Note_off_c, 0, 66, 64
2, 1816, Note_off_c, 0, 63, 64
2, 1824, Note_on_c, 0, 64, 52
2, 1824, Note_on_c, 0, 67, 52
2, 1848, Note_off_c, 0, 64, 64
2, 1848, Note_off_c, 0, 67, 64
2, 1856, Note_on_c, 0, 66, 52
2, 1880, Note_off_c, 0, 66, 64
2, 1888, Note_on_c, 0, 67, 52
2, 1912, Note_off_c, 0, 67, 64
2, 1920, Note_on_c, 0, 69, 52
2, 1944, Note_off_c, 0, 69, 64
2, 1952, Note_on_c, 0, 67, 52
2, 1976, Note_off_c, 0, 67, 64
2, 1984, Note_on_c, 0, 69, 52
2, 1984, Note_on_c, 0, 72, 52
2, 2008, Note_off_c, 0, 69, 64
2, 2008, Note_off_c, 0, 72, 64
2, 2016, Note_on_c, 0, 70, 94
2, 2016, Note_on_c, 0, 67, 94
2, 2040, Note_off_c, 0, 70, 64
2, 2040, Note_off_c, 0, 67, 64
2, 2048, Note_on_c, 0, 69, 94
2, 2048, Note_on_c, 0, 65, 94
2, 2072, Note_off_c, 0, 69, 64
2, 2072, Note_off_c, 0, 65, 64
2, 2080, Note_on_c, 0, 68, 94
2, 2080, Note_on_c, 0, 64, 94
2, 2104, Note_off_c, 0, 68, 64
2, 2104, Note_off_c, 0, 64, 64
2, 2112, Note_on_c, 0, 69, 94
2, 2112, Note_on_c, 0, 65, 94
2, 2144, Note_on_c, 0, 63, 94
2, 2168, Note_off_c, 0, 63, 64
2, 2176, Note_on_c, 0, 62, 94
2, 2188, Note_off_c, 0, 69, 64
2, 2188, Note_off_c, 0, 65, 64
2, 2200, Note_off_c, 0, 62, 64
2, 2208, Note_on_c, 0, 84, 94
2, 2208, Note_on_c, 0, 75, 94
2, 2208, Note_on_c, 0, 60, 94
2, 2232, Note_off_c, 0, 60, 64
2, 2284, Note_off_c, 0, 75, 64
2, 2336, Note_on_c, 0, 85, 94
2, 2360, Note_off_c, 0, 85, 64
2, 2368, Note_on_c, 0, 86, 94
2, 2392, Note_off_c, 0, 86, 64
2, 2400, Note_on_c, 0, 84, 94
2, 2424, Note_off_c, 0, 84, 64
2, 2424, Note_off_c, 0, 84, 64
2, 2432, Note_on_c, 0, 82, 94
2, 2456, Note_off_c, 0, 82, 64
2, 2464, Note_on_c, 0, 81, 94
2, 2488, Note_off_c, 0, 81, 64
2, 2496, Note_on_c, 0, 81, 94
2, 2520, Note_off_c, 0, 81, 64
2, 2528, Note_on_c, 0, 79, 94
2, 2552, Note_off_c, 0, 79, 64
2, 2560, Note_on_c, 0, 77, 94
2, 2584, Note_off_c, 0, 77, 64
2, 2592, Note_on_c, 0, 72, 94
2, 2592, Note_on_c, 0, 76, 52
2, 2616, Note_off_c, 0, 72, 64
2, 2616, Note_off_c, 0, 76, 64
2, 2624, Note_on_c, 0, 79, 52
2, 2648, Note_off_c, 0, 79, 64
2, 2656, Note_on_c, 0, 79, 52
2, 2680, Note_off_c, 0, 79, 64
2, 2688, Note_on_c, 0, 79, 52
2, 2712, Note_off_c, 0, 79, 64
2, 2720, Note_on_c, 0, 79, 52
2, 2744, Note_off_c, 0, 79, 64
2, 2752, Note_on_c, 0, 79, 52
2, 2776, Note_off_c, 0, 79, 64
2, 2784, Note_on_c, 0, 79, 52
2, 2808, Note_off_c, 0, 79, 64
2, 2816, Note_on_c, 0, 79, 52
2, 2840, Note_off_c, 0, 79, 64
2, 2848, Note_on_c, 0, 79, 52
2, 2872, Note_off_c, 0, 79, 64
2, 2880, Note_on_c, 0, 79, 94
2, 2904, Note_off_c, 0, 79, 64
2, 2912, Note_on_c, 0, 71, 94
2, 2912, Note_on_c, 0, 62, 94
2, 2936, Note_off_c, 0, 71, 64
2, 2936, Note_off_c, 0, 62, 64
2, 2944, Note_on_c, 0, 74, 94
2, 2944, Note_on_c, 0, 65, 94
2, 2968, Note_off_c, 0, 74, 64
2, 2968, Note_off_c, 0, 65, 64
2, 2976, Note_on_c, 0, 64, 52
2, 2976, Note_on_c, 0, 72, 52
2, 3000, Note_off_c, 0, 64, 64
2, 3000, Note_off_c, 0, 72, 64
2, 3008, Note_on_c, 0, 71, 52
2, 3008, Note_on_c, 0, 62, 52
2, 3032, Note_off_c, 0, 71, 64
2, 3032, Note_off_c, 0, 62, 64
2, 3040, Note_on_c, 0, 74, 52
2, 3040, Note_on_c, 0, 65, 52
2, 3064, Note_off_c, 0, 74, 64
2, 3064, Note_off_c, 0, 65, 64
2, 3072, Note_on_c, 0, 72, 52
2, 3072, Note_on_c, 0, 64, 52
2, 3096, Note_off_c, 0, 72, 64
2, 3096, Note_off_c, 0, 64, 64
2, 3104, Note_on_c, 0, 71, 52
2, 3104, Note_on_c, 0, 62, 52
2, 3128, Note_off_c, 0, 71, 64
2, 3128, Note_off_c, 0, 62, 64
2, 3136, Note_on_c, 0, 74, 52
2, 3136, Note_on_c, 0, 65, 52
2, 3160, Note_off_c, 0, 74, 64
2, 3160, Note_off_c, 0, 65, 64
2, 3168, Note_on_c, 0, 79, 52
2, 3192, Note_off_c, 0, 79, 64
2, 3200, Note_on_c, 0, 72, 52
2, 3200, Note_on_c, 0, 64, 52
2, 3224, Note_off_c, 0, 72, 64
2, 3224, Note_off_c, 0, 64, 64
2, 3232, Note_on_c, 0, 76, 52
2, 3232, Note_on_c, 0, 67, 52
2, 3256, Note_off_c, 0, 76, 64
2, 3256, Note_off_c, 0, 67, 64
2, 3264, Note_on_c, 0, 65, 94
2, 3264, Note_on_c, 0, 74, 94
2, 3288, Note_off_c, 0, 65, 64
2, 3288, Note_off_c, 0, 74, 64
2, 3296, Note_on_c, 0, 72, 94
2, 3296, Note_on_c, 0, 64, 94
2, 3320, Note_off_c, 0, 72, 64
2, 3320, Note_off_c, 0, 64, 64
2, 3328, Note_on_c, 0, 76, 94
2, 3328, Note_on_c, 0, 67, 94
2, 3352, Note_off_c, 0, 76, 64
2, 3352, Note_off_c, 0, 67, 64
2, 3360, Note_on_c, 0, 74, 52
2, 3360, Note_on_c, 0, 65, 52
2, 3384, Note_off_c, 0, 74, 64
2, 3384, Note_off_c, 0, 65, 64
2, 3392, Note_on_c, 0, 72, 52
2, 3392, Note_on_c, 0, 64, 52
2, 3416, Note_off_c, 0, 72, 64
2, 3416, Note_off_c, 0, 64, 64
2, 3424, Note_on_c, 0, 76, 52
2, 3424, Note_on_c, 0, 67, 52
2, 3448, Note_off_c, 0, 76, 64
2, 3448, Note_off_c, 0, 67, 64
2, 3456, Note_on_c, 0, 79, 52
2, 3480, Note_off_c, 0, 79, 64
2, 3488, Note_on_c, 0, 74, 52
2, 3512, Note_off_c, 0, 74, 64
2, 3520, Note_on_c, 0, 77, 52
2, 3520, Note_on_c, 0, 62, 52
2, 3544, Note_off_c, 0, 77, 64
2, 3544, Note_off_c, 0, 62, 64
2, 3552, Note_on_c, 0, 60, 52
2, 3552, Note_on_c, 0, 76, 52
2, 3576, Note_off_c, 0, 60, 64
2, 3576, Note_off_c, 0, 76, 64
2, 3584, Note_on_c, 0, 74, 52
2, 3608, Note_off_c, 0, 74, 64
2, 3616, Note_on_c, 0, 62, 52
2, 3616, Note_on_c, 0, 77, 52
2, 3640, Note_off_c, 0, 62, 64
2, 3640, Note_off_c, 0, 77, 64
2, 3648, Note_on_c, 0, 76, 94
2, 3648, Note_on_c, 0, 60, 94
2, 3672, Note_off_c, 0, 76, 64
2, 3672, Note_off_c, 0, 60, 64
2, 3680, Note_on_c, 0, 74, 94
2, 3704, Note_off_c, 0, 74, 64
2, 3712, Note_on_c, 0, 77, 94
2, 3712, Note_on_c, 0, 62, 94
2, 3736, Note_off_c, 0, 77, 64
2, 3736, Note_off_c, 0, 62, 64
2, 3744, Note_on_c, 0, 60, 52
2, 3776, Note_on_c, 0, 76, 52
2, 3800, Note_off_c, 0, 76, 64
2, 3808, Note_on_c, 0, 77, 52
2, 3820, Note_off_c, 0, 60, 64
2, 3832, Note_off_c, 0, 77, 64
2, 3840, Note_on_c, 0, 78, 52
2, 3864, Note_off_c, 0, 78, 64
2, 3872, Note_on_c, 0, 79, 52
2, 3896, Note_off_c, 0, 79, 64
2, 3904, Note_on_c, 0, 80, 52
2, 3928, Note_off_c, 0, 80, 64
2, 3936, Note_on_c, 0, 81, 52
2, 3960, Note_off_c, 0, 81, 64
2, 3968, Note_on_c, 0, 83, 52
2, 3992, Note_off_c, 0, 83, 64
2, 4000, Note_on_c, 0, 84, 52
2, 4024, Note_off_c, 0, 84, 64
2, 4032, Note_on_c, 0, 74, 94
2, 4032, Note_on_c, 0, 60, 94
2, 4108, Note_off_c, 0, 74, 64
2, 4108, Note_off_c, 0, 60, 64
2, 4128, Note_on_c, 0, 74, 52
2, 4152, Note_off_c, 0, 74, 64
2, 4160, Note_on_c, 0, 81, 52
2, 4184, Note_off_c, 0, 81, 64
2, 4192, Note_on_c, 0, 79, 52
2, 4216, Note_off_c, 0, 79, 64
2, 4224, Note_on_c, 0, 77, 94
2, 4256, Note_off_c, 0, 77, 64
2, 4256, Note_on_c, 0, 76, 94
2, 4280, Note_off_c, 0, 76, 64
2, 4288, Note_on_c, 0, 74, 94
2, 4312, Note_off_c, 0, 74, 64
2, 4320, Note_on_c, 0, 79, 94
2, 4320, Note_on_c, 0, 60, 94
2, 4344, Note_off_c, 0, 79, 64
2, 4352, Note_on_c, 0, 80, 94
2, 4358, Note_off_c, 0, 60, 64
2, 4376, Note_off_c, 0, 80, 64
2, 4384, Note_on_c, 0, 81, 94
2, 4408, Note_off_c, 0, 81, 64
2, 4416, Note_on_c, 0, 72, 94
2, 4448, Note_on_c, 0, 60, 94
2, 4472, Note_off_c, 0, 60, 64
2, 4480, Note_on_c, 0, 64, 94
2, 4492, Note_off_c, 0, 72, 64
2, 4504, Note_off_c, 0, 64, 64
2, 4512, Note_on_c, 0, 71, 94
2, 4520, Note_off_c, 0, 71, 64
2, 4524, Note_on_c, 0, 72, 94
2, 4532, Note_off_c, 0, 72, 64
2, 4536, Note_on_c, 0, 71, 94
2, 4544, Note_off_c, 0, 71, 64
2, 4544, Note_on_c, 0, 62, 94
2, 4548, Note_on_c, 0, 72, 94
2, 4556, Note_off_c, 0, 72, 64
2, 4560, Note_on_c, 0, 71, 94
2, 4568, Note_off_c, 0, 62, 64
2, 4568, Note_off_c, 0, 71, 64
2, 4572, Note_on_c, 0, 72, 94
2, 4576, Note_on_c, 0, 65, 94
2, 4580, Note_off_c, 0, 72, 64
2, 4584, Note_on_c, 0, 69, 94
2, 4592, Note_off_c, 0, 69, 64
2, 4596, Note_on_c, 0, 71, 94
2, 4600, Note_off_c, 0, 65, 64
2, 4604, Note_off_c, 0, 71, 64
2, 4608, Note_on_c, 0, 72, 94
2, 4684, Note_off_c, 0, 72, 64
2, 4928, Note_on_c, 0, 74, 94
2, 4928, Note_on_c, 0, 83, 94
2, 4952, Note_off_c, 0, 74, 64
2, 4952, Note_off_c, 0, 83, 64
2, 4960, Note_on_c, 0, 84, 94
2, 4960, Note_on_c, 0, 75, 94
2, 4984, Note_off_c, 0, 84, 64
2, 4984, Note_off_c, 0, 75, 64
2, 5024, Note_on_c, 0, 84, 66
2, 5024, Note_on_c, 0, 75, 66
2, 5048, Note_off_c, 0, 84, 64
2, 5048, Note_off_c, 0, 75, 64
2, 5056, Note_on_c, 0, 83, 66
2, 5056, Note_on_c, 0, 74, 66
2, 5080, Note_off_c, 0, 83, 64
2, 5080, Note_off_c, 0, 74, 64
2, 5120, Note_on_c, 0, 76, 94
2, 5120, Note_on_c, 0, 80, 94
2, 5144, Note_off_c, 0, 76, 64
2, 5144, Note_off_c, 0, 80, 64
2, 5152, Note_on_c, 0, 77, 94
2, 5152, Note_on_c, 0, 81, 94
2, 5176, Note_off_c, 0, 77, 64
2, 5176, Note_off_c, 0, 81, 64
2, 5184, Note_on_c, 0, 60, 52
2, 5216, Note_on_c, 0, 81, 52
2, 5216, Note_on_c, 0, 77, 52
2, 5240, Note_off_c, 0, 81, 64
2, 5240, Note_off_c, 0, 77, 64
2, 5248, Note_on_c, 0, 79, 52
2, 5248, Note_on_c, 0, 76, 52
2, 5260, Note_off_c, 0, 60, 64
2, 5272, Note_off_c, 0, 79, 64
2, 5272, Note_off_c, 0, 76, 64
2, 5312, Note_on_c, 0, 79, 94
2, 5312, Note_on_c, 0, 76, 95
2, 5336, Note_off_c, 0, 79, 64
2, 5336, Note_off_c, 0, 76, 64
2, 5344, Note_on_c, 0, 74, 94
2, 5344, Note_on_c, 0, 77, 94
2, 5368, Note_off_c, 0, 74, 64
2, 5368, Note_off_c, 0, 77, 64
2, 5408, Note_on_c, 0, 77, 52
2, 5408, Note_on_c, 0, 74, 52
2, 5432, Note_off_c, 0, 77, 64
2, 5432, Note_off_c, 0, 74, 64
2, 5440, Note_on_c, 0, 76, 52
2, 5440, Note_on_c, 0, 72, 52
2, 5464, Note_off_c, 0, 76, 64
2, 5464, Note_off_c, 0, 72, 64
2, 5472, Note_on_c, 0, 69, 52
2, 5472, Note_on_c, 0, 65, 52
2, 5496, Note_off_c, 0, 69, 64
2, 5504, Note_on_c, 0, 76, 52
2, 5528, Note_off_c, 0, 76, 64
2, 5536, Note_on_c, 0, 74, 52
2, 5548, Note_off_c, 0, 65, 64
2, 5560, Note_off_c, 0, 74, 64
2, 5568, Note_on_c, 0, 64, 52
2, 5568, Note_on_c, 0, 67, 52
2, 5592, Note_off_c, 0, 67, 64
2, 5600, Note_on_c, 0, 74, 52
2, 5624, Note_off_c, 0, 74, 64
2, 5632, Note_on_c, 0, 72, 52
2, 5644, Note_off_c, 0, 64, 64
2, 5656, Note_off_c, 0, 72, 64
2, 5664, Note_on_c, 0, 62, 52
2, 5664, Note_on_c, 0, 65, 52
2, 5688, Note_off_c, 0, 65, 64
2, 5696, Note_on_c, 0, 72, 52
2, 5720, Note_off_c, 0, 72, 64
2, 5728, Note_on_c, 0, 71, 52
2, 5740, Note_off_c, 0, 62, 64
2, 5752, Note_off_c, 0, 71, 64
2, 5760, Note_on_c, 0, 79, 94
2, 5760, Note_on_c, 0, 76, 94
2, 5836, Note_off_c, 0, 79, 64
2, 5836, Note_off_c, 0, 76, 64
2, 5856, Note_on_c, 0, 77, 94
2, 5856, Note_on_c, 0, 74, 94
2, 5932, Note_off_c, 0, 77, 64
2, 5932, Note_off_c, 0, 74, 64
2, 5952, Note_on_c, 0, 72, 94
2, 5952, Note_on_c, 0, 76, 94
2, 6028, Note_off_c, 0, 72, 64
2, 6028, Note_off_c, 0, 76, 64
2, 6048, Note_on_c, 0, 76, 66
2, 6080, Note_off_c, 0, 76, 64
2, 6080, Note_on_c, 0, 74, 66
2, 6080, Note_on_c, 0, 60, 66
2, 6104, Note_off_c, 0, 60, 64
2, 6112, Note_off_c, 0, 74, 64
2, 6112, Note_on_c, 0, 60, 66
2, 6136, Note_off_c, 0, 60, 64
2, 6144, Note_on_c, 0, 60, 66
2, 6168, Note_off_c, 0, 60, 64
2, 6176, Note_on_c, 0, 60, 66
2, 6200, Note_off_c, 0, 60, 64
2, 6208, Note_on_c, 0, 60, 66
2, 6232, Note_off_c, 0, 60, 64
2, 6240, Note_on_c, 0, 60, 66
2, 6264, Note_off_c, 0, 60, 64
2, 6272, Note_on_c, 0, 60, 66
2, 6296, Note_off_c, 0, 60, 64
2, 6304, Note_on_c, 0, 60, 66
2, 6328, Note_off_c, 0, 60, 64
2, 6336, Note_on_c, 0, 74, 94
2, 6360, Note_off_c, 0, 74, 64
2, 6368, Note_on_c, 0, 60, 94
2, 6368, Note_on_c, 0, 75, 94
2, 6392, Note_off_c, 0, 60, 64
2, 6392, Note_off_c, 0, 75, 64
2, 6400, Note_on_c, 0, 60, 94
2, 6424, Note_off_c, 0, 60, 64
2, 6432, Note_on_c, 0, 60, 94
2, 6456, Note_off_c, 0, 60, 64
2, 6464, Note_on_c, 0, 60, 94
2, 6488, Note_off_c, 0, 60, 64
2, 6496, Note_on_c, 0, 60, 94
2, 6520, Note_off_c, 0, 60, 64
2, 6528, Note_on_c, 0, 60, 94
2, 6552, Note_off_c, 0, 60, 64
2, 6560, Note_on_c, 0, 60, 94
2, 6584, Note_off_c, 0, 60, 64
2, 6592, Note_on_c, 0, 60, 94
2, 6616, Note_off_c, 0, 60, 64
2, 6624, Note_on_c, 0, 75, 52
2, 6656, Note_off_c, 0, 75, 64
2, 6656, Note_on_c, 0, 64, 52
2, 6656, Note_on_c, 0, 60, 52
2, 6656, Note_on_c, 0, 76, 52
2, 6680, Note_off_c, 0, 64, 64
2, 6680, Note_off_c, 0, 60, 64
2, 6688, Note_off_c, 0, 76, 64
2, 6688, Note_on_c, 0, 60, 52
2, 6688, Note_on_c, 0, 64, 52
2, 6712, Note_off_c, 0, 60, 64
2, 6712, Note_off_c, 0, 64, 64
2, 6720, Note_on_c, 0, 60, 52
2, 6720, Note_on_c, 0, 64, 52
2, 6744, Note_off_c, 0, 60, 64
2, 6744, Note_off_c, 0, 64, 64
2, 6752, Note_on_c, 0, 64, 52
2, 6752, Note_on_c, 0, 60, 52
2, 6776, Note_off_c, 0, 64, 64
2, 6776, Note_off_c, 0, 60, 64
2, 6784, Note_on_c, 0, 64, 52
2, 6784, Note_on_c, 0, 60, 52
2, 6808, Note_off_c, 0, 64, 64
2, 6808, Note_off_c, 0, 60, 64
2, 6816, Note_on_c, 0, 78, 52
2, 6816, Note_on_c, 0, 60, 52
2, 6816, Note_on_c, 0, 64, 52
2, 6840, Note_off_c, 0, 60, 64
2, 6840, Note_off_c, 0, 64, 64
2, 6848, Note_off_c, 0, 78, 64
2, 6848, Note_on_c, 0, 60, 52
2, 6848, Note_on_c, 0, 64, 52
2, 6848, Note_on_c, 0, 79, 52
2, 6872, Note_off_c, 0, 60, 64
2, 6872, Note_off_c, 0, 64, 64
2, 6872, Note_off_c, 0, 79, 64
2, 6880, Note_on_c, 0, 60, 52
2, 6880, Note_on_c, 0, 64, 52
2, 6904, Note_off_c, 0, 60, 64
2, 6904, Note_off_c, 0, 64, 64
2, 6912, Note_on_c, 0, 60, 80
2, 6936, Note_off_c, 0, 60, 64
2, 6944, Note_on_c, 0, 60, 80
2, 6968, Note_off_c, 0, 60, 64
2, 6976, Note_on_c, 0, 60, 80
2, 6998, Note_on_c, 0, 72, 80
2, 6998, Note_on_c, 0, 74, 80
2, 7000, Note_off_c, 0, 60, 64
2, 7002, Note_off_c, 0, 72, 64
2, 7002, Note_off_c, 0, 74, 64
2, 7002, Note_on_c, 0, 76, 80
2, 7004, Note_off_c, 0, 76, 64
2, 7008, Note_on_c, 0, 60, 80
2, 7008, Note_on_c, 0, 74, 80
2, 7016, Note_off_c, 0, 74, 64
2, 7020, Note_on_c, 0, 76, 80
2, 7028, Note_off_c, 0, 76, 64
2, 7032, Note_off_c, 0, 60, 64
2, 7032, Note_on_c, 0, 74, 80
2, 7040, Note_off_c, 0, 74, 64
2, 7040, Note_on_c, 0, 60, 80
2, 7044, Note_on_c, 0, 76, 80
2, 7052, Note_off_c, 0, 76, 64
2, 7056, Note_on_c, 0, 74, 80
2, 7064, Note_off_c, 0, 60, 64
2, 7064, Note_off_c, 0, 74, 64
2, 7068, Note_on_c, 0, 76, 80
2, 7072, Note_on_c, 0, 60, 80
2, 7076, Note_off_c, 0, 76, 64
2, 7080, Note_on_c, 0, 74, 80
2, 7088, Note_off_c, 0, 74, 64
2, 7092, Note_on_c, 0, 76, 80
2, 7096, Note_off_c, 0, 60, 64
2, 7100, Note_off_c, 0, 76, 64
2, 7104, Note_on_c, 0, 74, 80
2, 7112, Note_off_c, 0, 74, 64
2, 7116, Note_on_c, 0, 76, 80
2, 7124, Note_off_c, 0, 76, 64
2, 7128, Note_on_c, 0, 74, 80
2, 7136, Note_off_c, 0, 74, 64
2, 7140, Note_on_c, 0, 76, 80
2, 7148, Note_off_c, 0, 76, 64
2, 7152, Note_on_c, 0, 74, 80
2, 7160, Note_off_c, 0, 74, 64
2, 7164, Note_on_c, 0, 72, 80
2, 7182, Note_off_c, 0, 72, 64
2, 7188, Note_on_c, 0, 74, 80
2, 7200, Note_on_c, 0, 72, 80
2, 7200, Note_on_c, 0, 60, 80
2, 7206, Note_off_c, 0, 74, 64
2, 7224, Note_off_c, 0, 72, 64
2, 7232, Note_on_c, 0, 76, 80
2, 7256, Note_off_c, 0, 76, 64
2, 7264, Note_on_c, 0, 79, 80
2, 7276, Note_off_c, 0, 60, 64
2, 7288, Note_off_c, 0, 79, 64
2, 7296, Note_on_c, 0, 79, 80
2, 7304, Note_off_c, 0, 79, 64
2, 7308, Note_on_c, 0, 81, 80
2, 7316, Note_off_c, 0, 81, 64
2, 7320, Note_on_c, 0, 79, 80
2, 7328, Note_off_c, 0, 79, 64
2, 7328, Note_on_c, 0, 60, 80
2, 7332, Note_on_c, 0, 81, 80
2, 7340, Note_off_c, 0, 81, 64
2, 7344, Note_on_c, 0, 79, 80
2, 7352, Note_off_c, 0, 60, 64
2, 7352, Note_off_c, 0, 79, 64
2, 7356, Note_on_c, 0, 81, 80
2, 7360, Note_on_c, 0, 64, 80
2, 7364, Note_off_c, 0, 81, 64
2, 7368, Note_on_c, 0, 78, 80
2, 7376, Note_off_c, 0, 78, 64
2, 7380, Note_on_c, 0, 79, 80
2, 7384, Note_off_c, 0, 64, 64
2, 7388, Note_off_c, 0, 79, 64
2, 7392, Note_on_c, 0, 65, 80
2, 7416, Note_off_c, 0, 65, 64
2, 7424, Note_on_c, 0, 77, 80
2, 7424, Note_on_c, 0, 62, 80
2, 7448, Note_off_c, 0, 77, 64
2, 7448, Note_off_c, 0, 62, 64
2, 7456, Note_on_c, 0, 74, 80
2, 7480, Note_off_c, 0, 74, 64
2, 7488, Note_on_c, 0, 72, 80
2, 7488, Note_on_c, 0, 60, 80
2, 7512, Note_off_c, 0, 72, 64
2, 7520, Note_on_c, 0, 76, 80
2, 7544, Note_off_c, 0, 76, 64
2, 7552, Note_on_c, 0, 67, 80
2, 7564, Note_off_c, 0, 60, 64
2, 7576, Note_off_c, 0, 67, 64
2, 7584, Note_on_c, 0, 67, 80
2, 7592, Note_off_c, 0, 67, 64
2, 7596, Note_on_c, 0, 69, 80
2, 7604, Note_off_c, 0, 69, 64
2, 7608, Note_on_c, 0, 67, 80
2, 7616, Note_off_c, 0, 67, 64
2, 7620, Note_on_c, 0, 69, 80
2, 7628, Note_off_c, 0, 69, 64
2, 7632, Note_on_c, 0, 67, 80
2, 7640, Note_off_c, 0, 67, 64
2, 7644, Note_on_c, 0, 69, 80
2, 7652, Note_off_c, 0, 69, 64
2, 7656, Note_on_c, 0, 66, 80
2, 7664, Note_off_c, 0, 66, 64
2, 7668, Note_on_c, 0, 67, 80
2, 7676, Note_off_c, 0, 67, 64
2, 7712, Note_on_c, 0, 65, 94
2, 7736, Note_off_c, 0, 65, 64
2, 7744, Note_on_c, 0, 62, 94
2, 7768, Note_off_c, 0, 62, 64
2, 7776, Note_on_c, 0, 62, 52
2, 7928, Note_off_c, 0, 62, 64
2, 7968, Note_on_c, 0, 60, 52
2, 8006, Note_off_c, 0, 60, 64
2, 8040, Note_on_c, 0, 69, 52
2, 8058, Note_off_c, 0, 69, 64
2, 8064, Control_c, 0, 0, 0
2, 8064, Note_on_c, 0, 72, 94
2, 8128, Note_on_c, 0, 60, 94
2, 8140, Note_off_c, 0, 72, 64
2, 8148, Note_on_c, 0, 71, 94
2, 8152, Note_off_c, 0, 60, 64
2, 8160, Note_off_c, 0, 71, 64
2, 8160, Note_on_c, 0, 72, 94
2, 8224, Note_on_c, 0, 60, 94
2, 8236, Note_off_c, 0, 72, 64
2, 8246, Note_on_c, 0, 72, 94
2, 8246, Note_on_c, 0, 71, 94
2, 8248, Note_off_c, 0, 60, 64
2, 8250, Note_off_c, 0, 72, 64
2, 8250, Note_off_c, 0, 71, 64
2, 8250, Note_on_c, 0, 74, 94
2, 8252, Note_off_c, 0, 74, 64
2, 8256, Note_on_c, 0, 72, 94
2, 8320, Note_on_c, 0, 60, 94
2, 8332, Note_off_c, 0, 72, 64
2, 8344, Note_off_c, 0, 60, 64
2, 8352, Note_on_c, 0, 82, 94
2, 8416, Note_on_c, 0, 60, 94
2, 8428, Note_off_c, 0, 82, 64
2, 8440, Note_off_c, 0, 60, 64
2, 8448, Note_on_c, 0, 70, 94
2, 8524, Note_off_c, 0, 70, 64
2, 8592, Note_on_c, 0, 69, 66
2, 8608, Note_on_c, 0, 60, 66
2, 8630, Note_off_c, 0, 69, 64
2, 8632, Note_off_c, 0, 60, 64
2, 8640, Note_on_c, 0, 67, 80
2, 8664, Note_off_c, 0, 67, 64
2, 8672, Note_on_c, 0, 70, 80
2, 8696, Note_off_c, 0, 70, 64
2, 8704, Note_on_c, 0, 67, 80
2, 8728, Note_off_c, 0, 67, 64
2, 8736, Note_on_c, 0, 65, 80
2, 8760, Note_off_c, 0, 65, 64
2, 8768, Note_on_c, 0, 69, 80
2, 8792, Note_off_c, 0, 69, 64
2, 8800, Note_on_c, 0, 65, 80
2, 8824, Note_off_c, 0, 65, 64
2, 8832, Note_on_c, 0, 64, 80
2, 8856, Note_off_c, 0, 64, 64
2, 8864, Note_on_c, 0, 67, 80
2, 8888, Note_off_c, 0, 67, 64
2, 8896, Note_on_c, 0, 64, 80
2, 8920, Note_off_c, 0, 64, 64
2, 8928, Note_on_c, 0, 82, 52
2, 9004, Note_off_c, 0, 82, 64
2, 9024, Note_on_c, 0, 70, 52
2, 9088, Note_on_c, 0, 60, 52
2, 9100, Note_off_c, 0, 70, 64
2, 9112, Note_off_c, 0, 60, 64
2, 9168, Note_on_c, 0, 69, 52
2, 9184, Note_on_c, 0, 60, 52
2, 9206, Note_off_c, 0, 69, 64
2, 9208, Note_off_c, 0, 60, 64
2, 9216, Note_on_c, 0, 67, 52
2, 9240, Note_off_c, 0, 67, 64
2, 9248, Note_on_c, 0, 70, 52
2, 9272, Note_off_c, 0, 70, 64
2, 9280, Note_on_c, 0, 69, 52
2, 9304, Note_off_c, 0, 69, 64
2, 9312, Note_on_c, 0, 65, 52
2, 9336, Note_off_c, 0, 65, 64
2, 9344, Note_on_c, 0, 69, 52
2, 9368, Note_off_c, 0, 69, 64
2, 9376, Note_on_c, 0, 65, 52
2, 9400, Note_off_c, 0, 65, 64
2, 9408, Note_on_c, 0, 64, 52
2, 9432, Note_off_c, 0, 64, 64
2, 9440, Note_on_c, 0, 67, 52
2, 9464, Note_off_c, 0, 67, 64
2, 9472, Note_on_c, 0, 64, 52
2, 9496, Note_off_c, 0, 64, 64
2, 9504, Note_on_c, 0, 65, 96
2, 9536, Note_on_c, 0, 60, 96
2, 9560, Note_off_c, 0, 60, 64
2, 9580, Note_off_c, 0, 65, 64
2, 9632, Note_on_c, 0, 64, 52
2, 9656, Note_off_c, 0, 64, 64
2, 9664, Note_on_c, 0, 65, 52
2, 9688, Note_off_c, 0, 65, 64
2, 9696, Note_on_c, 0, 67, 52
2, 9720, Note_off_c, 0, 67, 64
2, 9728, Note_on_c, 0, 65, 52
2, 9752, Note_off_c, 0, 65, 64
2, 9760, Note_on_c, 0, 67, 52
2, 9760, Note_on_c, 0, 70, 52
2, 9784, Note_off_c, 0, 67, 64
2, 9784, Note_off_c, 0, 70, 64
2, 9792, Note_on_c, 0, 69, 96
2, 9792, Note_on_c, 0, 65, 96
2, 9816, Note_off_c, 0, 69, 64
2, 9816, Note_off_c, 0, 65, 64
2, 9824, Note_on_c, 0, 67, 96
2, 9824, Note_on_c, 0, 64, 96
2, 9848, Note_off_c, 0, 67, 64
2, 9848, Note_off_c, 0, 64, 64
2, 9856, Note_on_c, 0, 66, 96
2, 9856, Note_on_c, 0, 63, 96
2, 9880, Note_off_c, 0, 66, 64
2, 9880, Note_off_c, 0, 63, 64
2, 9888, Note_on_c, 0, 64, 52
2, 9888, Note_on_c, 0, 67, 52
2, 9912, Note_off_c, 0, 64, 64
2, 9912, Note_off_c, 0, 67, 64
2, 9920, Note_on_c, 0, 66, 52
2, 9944, Note_off_c, 0, 66, 64
2, 9952, Note_on_c, 0, 67, 52
2, 9976, Note_off_c, 0, 67, 64
2, 9984, Note_on_c, 0, 69, 52
2, 10008, Note_off_c, 0, 69, 64
2, 10016, Note_on_c, 0, 67, 52
2, 10040, Note_off_c, 0, 67, 64
2, 10048, Note_on_c, 0, 69, 52
2, 10048, Note_on_c, 0, 72, 52
2, 10072, Note_off_c, 0, 69, 64
2, 10072, Note_off_c, 0, 72, 64
2, 10080, Note_on_c, 0, 70, 94
2, 10080, Note_on_c, 0, 67, 94
2, 10104, Note_off_c, 0, 70, 64
2, 10104, Note_off_c, 0, 67, 64
2, 10112, Note_on_c, 0, 69, 94
2, 10112, Note_on_c, 0, 65, 94
2, 10136, Note_off_c, 0, 69, 64
2, 10136, Note_off_c, 0, 65, 64
2, 10144, Note_on_c, 0, 68, 94
2, 10144, Note_on_c, 0, 64, 94
2, 10168, Note_off_c, 0, 68, 64
2, 10168, Note_off_c, 0, 64, 64
2, 10176, Note_on_c, 0, 69, 94
2, 10176, Note_on_c, 0, 65, 94
2, 10208, Note_on_c, 0, 63, 94
2, 10232, Note_off_c, 0, 63, 64
2, 10240, Note_on_c, 0, 62, 94
2, 10252, Note_off_c, 0, 69, 64
2, 10252, Note_off_c, 0, 65, 64
2, 10264, Note_off_c, 0, 62, 64
2, 10272, Note_on_c, 0, 84, 94
2, 10272, Note_on_c, 0, 75, 94
2, 10272, Note_on_c, 0, 60, 94
2, 10296, Note_off_c, 0, 60, 64
2, 10348, Note_off_c, 0, 75, 64
2, 10400, Note_on_c, 0, 85, 94
2, 10424, Note_off_c, 0, 85, 64
2, 10432, Note_on_c, 0, 86, 94
2, 10456, Note_off_c, 0, 86, 64
2, 10464, Note_on_c, 0, 84, 94
2, 10488, Note_off_c, 0, 84, 64
2, 10488, Note_off_c, 0, 84, 64
2, 10496, Note_on_c, 0, 82, 94
2, 10520, Note_off_c, 0, 82, 64
2, 10528, Note_on_c, 0, 81, 94
2, 10552, Note_off_c, 0, 81, 64
2, 10560, Note_on_c, 0, 81, 94
2, 10584, Note_off_c, 0, 81, 64
2, 10592, Note_on_c, 0, 79, 94
2, 10616, Note_off_c, 0, 79, 64
2, 10624, Note_on_c, 0, 77, 94
2, 10648, Note_off_c, 0, 77, 64
2, 10656, Note_on_c, 0, 72, 94
2, 10656, Note_on_c, 0, 76, 52
2, 10680, Note_off_c, 0, 72, 64
2, 10680, Note_off_c, 0, 76, 64
2, 10688, Note_on_c, 0, 79, 52
2, 10712, Note_off_c, 0, 79, 64
2, 10720, Note_on_c, 0, 79, 52
2, 10744, Note_off_c, 0, 79, 64
2, 10752, Note_on_c, 0, 79, 52
2, 10776, Note_off_c, 0, 79, 64
2, 10784, Note_on_c, 0, 79, 52
2, 10808, Note_off_c, 0, 79, 64
2, 10816, Note_on_c, 0, 79, 52
2, 10840, Note_off_c, 0, 79, 64
2, 10848, Note_on_c, 0, 79, 52
2, 10872, Note_off_c, 0, 79, 64
2, 10880, Note_on_c, 0, 79, 52
2, 10904, Note_off_c, 0, 79, 64
2, 10912, Note_on_c, 0, 79, 52
2, 10936, Note_off_c, 0, 79, 64
2, 10944, Note_on_c, 0, 79, 94
2, 10968, Note_off_c, 0, 79, 64
2, 10976, Note_on_c, 0, 71, 94
2, 10976, Note_on_c, 0, 62, 94
2, 11000, Note_off_c, 0, 71, 64
2, 11000, Note_off_c, 0, 62, 64
2, 11008, Note_on_c, 0, 74, 94
2, 11008, Note_on_c, 0, 65, 94
2, 11032, Note_off_c, 0, 74, 64
2, 11032, Note_off_c, 0, 65, 64
2, 11040, Note_on_c, 0, 64, 52
2, 11040, Note_on_c, 0, 72, 52
2, 11064, Note_off_c, 0, 64, 64
2, 11064, Note_off_c, 0, 72, 64
2, 11072, Note_on_c, 0, 71, 52
2, 11072, Note_on_c, 0, 62, 52
2, 11096, Note_off_c, 0, 71, 64
2, 11096, Note_off_c, 0, 62, 64
2, 11104, Note_on_c, 0, 74, 52
2, 11104, Note_on_c, 0, 65, 52
2, 11128, Note_off_c, 0, 74, 64
2, 11128, Note_off_c, 0, 65, 64
2, 11136, Note_on_c, 0, 72, 52
2, 11136, Note_on_c, 0, 64, 52
2, 11160, Note_off_c, 0, 72, 64
2, 11160, Note_off_c, 0, 64, 64
2, 11168, Note_on_c, 0, 71, 52
2, 11168, Note_on_c, 0, 62, 52
2, 11192, Note_off_c, 0, 71, 64
2, 11192, Note_off_c, 0, 62, 64
2, 11200, Note_on_c, 0, 74, 52
2, 11200, Note_on_c, 0, 65, 52
2, 11224, Note_off_c, 0, 74, 64
2, 11224, Note_off_c, 0, 65, 64
2, 11232, Note_on_c, 0, 79, 52
2, 11256, Note_off_c, 0, 79, 64
2, 11264, Note_on_c, 0, 72, 52
2, 11264, Note_on_c, 0, 64, 52
2, 11288, Note_off_c, 0, 72, 64
2, 11288, Note_off_c, 0, 64, 64
2, 11296, Note_on_c, 0, 76, 52
2, 11296, Note_on_c, 0, 67, 52
2, 11320, Note_off_c, 0, 76, 64
2, 11320, Note_off_c, 0, 67, 64
2, 11328, Note_on_c, 0, 65, 94
2, 11328, Note_on_c, 0, 74, 94
2, 11352, Note_off_c, 0, 65, 64
2, 11352, Note_off_c, 0, 74, 64
2, 11360, Note_on_c, 0, 72, 94
2, 11360, Note_on_c, 0, 64, 94
2, 11384, Note_off_c, 0, 72, 64
2, 11384, Note_off_c, 0, 64, 64
2, 11392, Note_on_c, 0, 76, 94
2, 11392, Note_on_c, 0, 67, 94
2, 11416, Note_off_c, 0, 76, 64
2, 11416, Note_off_c, 0, 67, 64
2, 11424, Note_on_c, 0, 74, 52
2, 11424, Note_on_c, 0, 65, 52
2, 11448, Note_off_c, 0, 74, 64
2, 11448, Note_off_c, 0, 65, 64
2, 11456, Note_on_c, 0, 72, 52
2, 11456, Note_on_c, 0, 64, 52
2, 11480, Note_off_c, 0, 72, 64
2, 11480, Note_off_c, 0, 64, 64
2, 11488, Note_on_c, 0, 76, 52
2, 11488, Note_on_c, 0, 67, 52
2, 11512, Note_off_c, 0, 76, 64
2, 11512, Note_off_c, 0, 67, 64
2, 11520, Note_on_c, 0, 79, 52
2, 11544, Note_off_c, 0, 79, 64
2, 11552, Note_on_c, 0, 74, 52
2, 11576, Note_off_c, 0, 74, 64
2, 11584, Note_on_c, 0, 77, 52
2, 11584, Note_on_c, 0, 62, 52
2, 11608, Note_off_c, 0, 77, 64
2, 11608, Note_off_c, 0, 62, 64
2, 11616, Note_on_c, 0, 60, 52
2, 11616, Note_on_c, 0, 76, 52
2, 11640, Note_off_c, 0, 60, 64
2, 11640, Note_off_c, 0, 76, 64
2, 11648, Note_on_c, 0, 74, 52
2, 11672, Note_off_c, 0, 74, 64
2, 11680, Note_on_c, 0, 62, 52
2, 11680, Note_on_c, 0, 77, 52
2, 11704, Note_off_c, 0, 62, 64
2, 11704, Note_off_c, 0, 77, 64
2, 11712, Note_on_c, 0, 76, 94
2, 11712, Note_on_c, 0, 60, 94
2, 11736, Note_off_c, 0, 76, 64
2, 11736, Note_off_c, 0, 60, 64
2, 11744, Note_on_c, 0, 74, 94
2, 11768, Note_off_c, 0, 74, 64
2, 11776, Note_on_c, 0, 77, 94
2, 11776, Note_on_c, 0, 62, 94
2, 11800, Note_off_c, 0, 77, 64
2, 11800, Note_off_c, 0, 62, 64
2, 11808, Note_on_c, 0, 60, 52
2, 11840, Note_on_c, 0, 76, 52
2, 11864, Note_off_c, 0, 76, 64
2, 11872, Note_on_c, 0, 77, 52
2, 11884, Note_off_c, 0, 60, 64
2, 11896, Note_off_c, 0, 77, 64
2, 11904, Note_on_c, 0, 78, 52
2, 11928, Note_off_c, 0, 78, 64
2, 11936, Note_on_c, 0, 79, 52
2, 11960, Note_off_c, 0, 79, 64
2, 11968, Note_on_c, 0, 80, 52
2, 11992, Note_off_c, 0, 80, 64
2, 12000, Note_on_c, 0, 81, 52
2, 12024, Note_off_c, 0, 81, 64
2, 12032, Note_on_c, 0, 83, 52
2, 12056, Note_off_c, 0, 83, 64
2, 12064, Note_on_c, 0, 84, 52
2, 12088, Note_off_c, 0, 84, 64
2, 12096, Note_on_c, 0, 74, 94
2, 12096, Note_on_c, 0, 60, 94
2, 12172, Note_off_c, 0, 74, 64
2, 12172, Note_off_c, 0, 60, 64
2, 12192, Note_on_c, 0, 74, 52
2, 12216, Note_off_c, 0, 74, 64
2, 12224, Note_on_c, 0, 81, 52
2, 12248, Note_off_c, 0, 81, 64
2, 12256, Note_on_c, 0, 79, 52
2, 12280, Note_off_c, 0, 79, 64
2, 12288, Note_on_c, 0, 77, 94
2, 12320, Note_off_c, 0, 77, 64
2, 12320, Note_on_c, 0, 76, 94
2, 12344, Note_off_c, 0, 76, 64
2, 12352, Note_on_c, 0, 74, 94
2, 12376, Note_off_c, 0, 74, 64
2, 12384, Note_on_c, 0, 79, 94
2, 12384, Note_on_c, 0, 60, 94
2, 12408, Note_off_c, 0, 79, 64
2, 12416, Note_on_c, 0, 80, 94
2, 12422, Note_off_c, 0, 60, 64
2, 12440, Note_off_c, 0, 80, 64
2, 12448, Note_on_c, 0, 81, 94
2, 12472, Note_off_c, 0, 81, 64
2, 12480, Note_on_c, 0, 72, 94
2, 12512, Note_on_c, 0, 60, 94
2, 12536, Note_off_c, 0, 60, 64
2, 12544, Note_on_c, 0, 64, 94
2, 12556, Note_off_c, 0, 72, 64
2, 12568, Note_off_c, 0, 64, 64
2, 12576, Note_on_c, 0, 71, 94
2, 12584, Note_off_c, 0, 71, 64
2, 12588, Note_on_c, 0, 72, 94
2, 12596, Note_off_c, 0, 72, 64
2, 12600, Note_on_c, 0, 71, 94
2, 12608, Note_off_c, 0, 71, 64
2, 12608, Note_on_c, 0, 62, 94
2, 12612, Note_on_c, 0, 72, 94
2, 12620, Note_off_c, 0, 72, 64
2, 12624, Note_on_c, 0, 71, 94
2, 12632, Note_off_c, 0, 62, 64
2, 12632, Note_off_c, 0, 71, 64
2, 12636, Note_on_c, 0, 72, 94
2, 12640, Note_on_c, 0, 65, 94
2, 12644, Note_off_c, 0, 72, 64
2, 12648, Note_on_c, 0, 69, 94
2, 12656, Note_off_c, 0, 69, 64
2, 12660, Note_on_c, 0, 71, 94
2, 12664, Note_off_c, 0, 65, 64
2, 12668, Note_off_c, 0, 71, 64
2, 12672, Note_on_c, 0, 72, 94
2, 12748, Note_off_c, 0, 72, 64
2, 12992, Note_on_c, 0, 74, 94
2, 12992, Note_on_c, 0, 83, 94
2, 13016, Note_off_c, 0, 74, 64
2, 13016, Note_off_c, 0, 83, 64
2, 13024, Note_on_c, 0, 84, 94
2, 13024, Note_on_c, 0, 75, 94
2, 13048, Note_off_c, 0, 84, 64
2, 13048, Note_off_c, 0, 75, 64
2, 13088, Note_on_c, 0, 84, 66
2, 13088, Note_on_c, 0, 75, 66
2, 13112, Note_off_c, 0, 84, 64
2, 13112, Note_off_c, 0, 75, 64
2, 13120, Note_on_c, 0, 83, 66
2, 13120, Note_on_c, 0, 74, 66
2, 13144, Note_off_c, 0, 83, 64
2, 13144, Note_off_c, 0, 74, 64
2, 13184, Note_on_c, 0, 76, 94
2, 13184, Note_on_c, 0, 80, 94
2, 13208, Note_off_c, 0, 76, 64
2, 13208, Note_off_c, 0, 80, 64
2, 13216, Note_on_c, 0, 77, 94
2, 13216, Note_on_c, 0, 81, 94
2, 13240, Note_off_c, 0, 77, 64
2, 13240, Note_off_c, 0, 81, 64
2, 13248, Note_on_c, 0, 60, 52
2, 13280, Note_on_c, 0, 81, 52
2, 13280, Note_on_c, 0, 77, 52
2, 13304, Note_off_c, 0, 81, 64
2, 13304, Note_off_c, 0, 77, 64
2, 13312, Note_on_c, 0, 79, 52
2, 13312, Note_on_c, 0, 76, 52
2, 13324, Note_off_c, 0, 60, 64
2, 13336, Note_off_c, 0, 79, 64
2, 13336, Note_off_c, 0, 76, 64
2, 13376, Note_on_c, 0, 79, 94
2, 13376, Note_on_c, 0, 76, 95
2, 13400, Note_off_c, 0, 79, 64
2, 13400, Note_off_c, 0, 76, 64
2, 13408, Note_on_c, 0, 74, 94
2, 13408, Note_on_c, 0, 77, 94
2, 13432, Note_off_c, 0, 74, 64
2, 13432, Note_off_c, 0, 77, 64
2, 13472, Note_on_c, 0, 77, 52
2, 13472, Note_on_c, 0, 74, 52
2, 13496, Note_off_c, 0, 77, 64
2, 13496, Note_off_c, 0, 74, 64
2, 13504, Note_on_c, 0, 76, 52
2, 13504, Note_on_c, 0, 72, 52
2, 13528, Note_off_c, 0, 76, 64
2, 13528, Note_off_c, 0, 72, 64
2, 13536, Note_on_c, 0, 69, 52
2, 13536, Note_on_c, 0, 65, 52
2, 13560, Note_off_c, 0, 69, 64
2, 13568, Note_on_c, 0, 76, 52
2, 13592, Note_off_c, 0, 76, 64
2, 13600, Note_on_c, 0, 74, 52
2, 13612, Note_off_c, 0, 65, 64
2, 13624, Note_off_c, 0, 74, 64
2, 13632, Note_on_c, 0, 64, 52
2, 13632, Note_on_c, 0, 67, 52
2, 13656, Note_off_c, 0, 67, 64
2, 13664, Note_on_c, 0, 74, 52
2, 13688, Note_off_c, 0, 74, 64
2, 13696, Note_on_c, 0, 72, 52
2, 13708, Note_off_c, 0, 64, 64
2, 13720, Note_off_c, 0, 72, 64
2, 13728, Note_on_c, 0, 62, 52
2, 13728, Note_on_c, 0, 65, 52
2, 13752, Note_off_c, 0, 65, 64
2, 13760, Note_on_c, 0, 72, 52
2, 13784, Note_off_c, 0, 72, 64
2, 13792, Note_on_c, 0, 71, 52
2, 13804, Note_off_c, 0, 62, 64
2, 13816, Note_off_c, 0, 71, 64
2, 13824, Note_on_c, 0, 79, 94
2, 13824, Note_on_c, 0, 76, 94
2, 13900, Note_off_c, 0, 79, 64
2, 13900, Note_off_c, 0, 76, 64
2, 13920, Note_on_c, 0, 77, 94
2, 13920, Note_on_c, 0, 74, 94
2, 13996, Note_off_c, 0, 77, 64
2, 13996, Note_off_c, 0, 74, 64
2, 14016, Note_on_c, 0, 72, 94
2, 14016, Note_on_c, 0, 76, 94
2, 14092, Note_off_c, 0, 72, 64
2, 14092, Note_off_c, 0, 76, 64
2, 14112, Note_on_c, 0, 76, 66
2, 14144, Note_off_c, 0, 76, 64
2, 14144, Note_on_c, 0, 74, 66
2, 14144, Note_on_c, 0, 60, 66
2, 14168, Note_off_c, 0, 60, 64
2, 14176, Note_off_c, 0, 74, 64
2, 14176, Note_on_c, 0, 60, 66
2, 14200, Note_off_c, 0, 60, 64
2, 14208, Note_on_c, 0, 60, 66
2, 14232, Note_off_c, 0, 60, 64
2, 14240, Note_on_c, 0, 60, 66
2, 14264, Note_off_c, 0, 60, 64
2, 14272, Note_on_c, 0, 60, 66
2, 14296, Note_off_c, 0, 60, 64
2, 14304, Note_on_c, 0, 60, 66
2, 14328, Note_off_c, 0, 60, 64
2, 14336, Note_on_c, 0, 60, 66
2, 14360, Note_off_c, 0, 60, 64
2, 14368, Note_on_c, 0, 60, 66
2, 14392, Note_off_c, 0, 60, 64
2, 14400, Note_on_c, 0, 74, 94
2, 14424, Note_off_c, 0, 74, 64
2, 14432, Note_on_c, 0, 60, 94
2, 14432, Note_on_c, 0, 75, 94
2, 14456, Note_off_c, 0, 60, 64
2, 14456, Note_off_c, 0, 75, 64
2, 14464, Note_on_c, 0, 60, 94
2, 14488, Note_off_c, 0, 60, 64
2, 14496, Note_on_c, 0, 60, 94
2, 14520, Note_off_c, 0, 60, 64
2, 14528, Note_on_c, 0, 60, 94
2, 14552, Note_off_c, 0, 60, 64
2, 14560, Note_on_c, 0, 60, 94
2, 14584, Note_off_c, 0, 60, 64
2, 14592, Note_on_c, 0, 60, 94
2, 14616, Note_off_c, 0, 60, 64
2, 14624, Note_on_c, 0, 60, 94
2, 14648, Note_off_c, 0, 60, 64
2, 14656, Note_on_c, 0, 60, 94
2, 14680, Note_off_c, 0, 60, 64
2, 14688, Note_on_c, 0, 75, 52
2, 14720, Note_off_c, 0, 75, 64
2, 14720, Note_on_c, 0, 64, 52
2, 14720, Note_on_c, 0, 60, 52
2, 14720, Note_on_c, 0, 76, 52
2, 14744, Note_off_c, 0, 64, 64
2, 14744, Note_off_c, 0, 60, 64
2, 14752, Note_off_c, 0, 76, 64
2, 14752, Note_on_c, 0, 60, 52
2, 14752, Note_on_c, 0, 64, 52
2, 14776, Note_off_c, 0, 60, 64
2, 14776, Note_off_c, 0, 64, 64
2, 14784, Note_on_c, 0, 60, 52
2, 14784, Note_on_c, 0, 64, 52
2, 14808, Note_off_c, 0, 60, 64
2, 14808, Note_off_c, 0, 64, 64
2, 14816, Note_on_c, 0, 64, 52
2, 14816, Note_on_c, 0, 60, 52
2, 14840, Note_off_c, 0, 64, 64
2, 14840, Note_off_c, 0, 60, 64
2, 14848, Note_on_c, 0, 64, 52
2, 14848, Note_on_c, 0, 60, 52
2, 14872, Note_off_c, 0, 64, 64
2, 14872, Note_off_c, 0, 60, 64
2, 14880, Note_on_c, 0, 78, 52
2, 14880, Note_on_c, 0, 60, 52
2, 14880, Note_on_c, 0, 64, 52
2, 14904, Note_off_c, 0, 60, 64
2, 14904, Note_off_c, 0, 64, 64
2, 14912, Note_off_c, 0, 78, 64
2, 14912, Note_on_c, 0, 60, 52
2, 14912, Note_on_c, 0, 64, 52
2, 14912, Note_on_c, 0, 79, 52
2, 14936, Note_off_c, 0, 60, 64
2, 14936, Note_off_c, 0, 64, 64
2, 14936, Note_off_c, 0, 79, 64
2, 14944, Note_on_c, 0, 60, 52
2, 14944, Note_on_c, 0, 64, 52
2, 14968, Note_off_c, 0, 60, 64
2, 14968, Note_off_c, 0, 64, 64
2, 14976, Note_on_c, 0, 60, 80
2, 15000, Note_off_c, 0, 60, 64
2, 15008, Note_on_c, 0, 60, 80
2, 15032, Note_off_c, 0, 60, 64
2, 15040, Note_on_c, 0, 60, 80
2, 15062, Note_on_c, 0, 72, 80
2, 15062, Note_on_c, 0, 74, 80
2, 15064, Note_off_c, 0, 60, 64
2, 15066, Note_off_c, 0, 72, 64
2, 15066, Note_off_c, 0, 74, 64
2, 15066, Note_on_c, 0, 76, 80
2, 15068, Note_off_c, 0, 76, 64
2, 15072, Note_on_c, 0, 60, 80
2, 15072, Note_on_c, 0, 74, 80
2, 15080, Note_off_c, 0, 74, 64
2, 15084, Note_on_c, 0, 76, 80
2, 15092, Note_off_c, 0, 76, 64
2, 15096, Note_off_c, 0, 60, 64
2, 15096, Note_on_c, 0, 74, 80
2, 15104, Note_off_c, 0, 74, 64
2, 15104, Note_on_c, 0, 60, 80
2, 15108, Note_on_c, 0, 76, 80
2, 15116, Note_off_c, 0, 76, 64
2, 15120, Note_on_c, 0, 74, 80
2, 15128, Note_off_c, 0, 60, 64
2, 15128, Note_off_c, 0, 74, 64
2, 15132, Note_on_c, 0, 76, 80
2, 15136, Note_on_c, 0, 60, 80
2, 15140, Note_off_c, 0, 76, 64
2, 15144, Note_on_c, 0, 74, 80
2, 15152, Note_off_c, 0, 74, 64
2, 15156, Note_on_c, 0, 76, 80
2, 15160, Note_off_c, 0, 60, 64
2, 15164, Note_off_c, 0, 76, 64
2, 15168, Note_on_c, 0, 74, 80
2, 15176, Note_off_c, 0, 74, 64
2, 15180, Note_on_c, 0, 76, 80
2, 15188, Note_off_c, 0, 76, 64
2, 15192, Note_on_c, 0, 74, 80
2, 15200, Note_off_c, 0, 74, 64
2, 15204, Note_on_c, 0, 76, 80
2, 15212, Note_off_c, 0, 76, 64
2, 15216, Note_on_c, 0, 74, 80
2, 15224, Note_off_c, 0, 74, 64
2, 15228, Note_on_c, 0, 72, 80
2, 15246, Note_off_c, 0, 72, 64
2, 15252, Note_on_c, 0, 74, 80
2, 15264, Note_on_c, 0, 72, 80
2, 15264, Note_on_c, 0, 60, 80
2, 15270, Note_off_c, 0, 74, 64
2, 15288, Note_off_c, 0, 72, 64
2, 15296, Note_on_c, 0, 76, 80
2, 15320, Note_off_c, 0, 76, 64
2, 15328, Note_on_c, 0, 79, 80
2, 15340, Note_off_c, 0, 60, 64
2, 15352, Note_off_c, 0, 79, 64
2, 15360, Note_on_c, 0, 79, 80
2, 15368, Note_off_c, 0, 79, 64
2, 15372, Note_on_c, 0, 81, 80
2, 15380, Note_off_c, 0, 81, 64
2, 15384, Note_on_c, 0, 79, 80
2, 15392, Note_off_c, 0, 79, 64
2, 15392, Note_on_c, 0, 60, 80
2, 15396, Note_on_c, 0, 81, 80
2, 15404, Note_off_c, 0, 81, 64
2, 15408, Note_on_c, 0, 79, 80
2, 15416, Note_off_c, 0, 60, 64
2, 15416, Note_off_c, 0, 79, 64
2, 15420, Note_on_c, 0, 81, 80
2, 15424, Note_on_c, 0, 64, 80
2, 15428, Note_off_c, 0, 81, 64
2, 15432, Note_on_c, 0, 78, 80
2, 15440, Note_off_c, 0, 78, 64
2, 15444, Note_on_c, 0, 79, 80
2, 15448, Note_off_c, 0, 64, 64
2, 15452, Note_off_c, 0, 79, 64
2, 15456, Note_on_c, 0, 65, 80
2, 15480, Note_off_c, 0, 65, 64
2, 15488, Note_on_c, 0, 77, 80
2, 15488, Note_on_c, 0, 62, 80
2, 15512, Note_off_c, 0, 77, 64
2, 15512, Note_off_c, 0, 62, 64
2, 15520, Note_on_c, 0, 74, 80
2, 15544, Note_off_c, 0, 74, 64
2, 15552, Note_on_c, 0, 72, 80
2, 15552, Note_on_c, 0, 60, 80
2, 15576, Note_off_c, 0, 72, 64
2, 15584, Note_on_c, 0, 76, 80
2, 15608, Note_off_c, 0, 76, 64
2, 15616, Note_on_c, 0, 67, 80
2, 15628, Note_off_c, 0, 60, 64
2, 15640, Note_off_c, 0, 67, 64
2, 15648, Note_on_c, 0, 67, 80
2, 15656, Note_off_c, 0, 67, 64
2, 15660, Note_on_c, 0, 69, 80
2, 15668, Note_off_c, 0, 69, 64
2, 15672, Note_on_c, 0, 67, 80
2, 15680, Note_off_c, 0, 67, 64
2, 15684, Note_on_c, 0, 69, 80
2, 15692, Note_off_c, 0, 69, 64
2, 15696, Note_on_c, 0, 67, 80
2, 15704, Note_off_c, 0, 67, 64
2, 15708, Note_on_c, 0, 69, 80
2, 15716, Note_off_c, 0, 69, 64
2, 15720, Note_on_c, 0, 66, 80
2, 15728, Note_off_c, 0, 66, 64
2, 15732, Note_on_c, 0, 67, 80
2, 15740, Note_off_c, 0, 67, 64
2, 15776, Note_on_c, 0, 65, 94
2, 15800, Note_off_c, 0, 65, 64
2, 15808, Note_on_c, 0, 62, 94
2, 15832, Note_off_c, 0, 62, 64
2, 15840, Note_on_c, 0, 62, 52
2, 15992, Note_off_c, 0, 62, 64
2, 16032, Note_on_c, 0, 60, 52
2, 16070, Note_off_c, 0, 60, 64
2, 16104, Note_on_c, 0, 69, 52
2, 16122, Note_off_c, 0, 69, 64
2, 16128, Note_on_c, 0, 60, 94
2, 16128, Note_on_c, 0, 79, 94
2, 16152, Note_off_c, 0, 60, 64
2, 16160, Note_on_c, 0, 64, 94
2, 16184, Note_off_c, 0, 64, 64
2, 16192, Note_on_c, 0, 67, 94
2, 16204, Note_off_c, 0, 79, 64
2, 16216, Note_off_c, 0, 67, 64
2, 16224, Note_on_c, 0, 79, 94
2, 16224, Note_on_c, 0, 60, 94
2, 16248, Note_off_c, 0, 60, 64
2, 16256, Note_on_c, 0, 64, 94
2, 16280, Note_off_c, 0, 64, 64
2, 16288, Note_on_c, 0, 67, 94
2, 16300, Note_off_c, 0, 79, 64
2, 16312, Note_off_c, 0, 67, 64
2, 16320, Note_on_c, 0, 79, 94
2, 16320, Note_on_c, 0, 60, 94
2, 16344, Note_off_c, 0, 60, 64
2, 16352, Note_on_c, 0, 64, 94
2, 16376, Note_off_c, 0, 64, 64
2, 16384, Note_on_c, 0, 67, 94
2, 16396, Note_off_c, 0, 79, 64
2, 16408, Note_off_c, 0, 67, 64
2, 16416, Note_on_c, 0, 78, 94
2, 16424, Note_off_c, 0, 78, 64
2, 16428, Note_on_c, 0, 79, 94
2, 16436, Note_off_c, 0, 79, 64
2, 16440, Note_on_c, 0, 78, 94
2, 16448, Note_off_c, 0, 78, 64
2, 16448, Note_on_c, 0, 62, 94
2, 16452, Note_on_c, 0, 79, 94
2, 16460, Note_off_c, 0, 79, 64
2, 16464, Note_on_c, 0, 78, 94
2, 16472, Note_off_c, 0, 62, 64
2, 16472, Note_off_c, 0, 78, 64
2, 16476, Note_on_c, 0, 79, 94
2, 16480, Note_on_c, 0, 67, 94
2, 16484, Note_off_c, 0, 79, 64
2, 16488, Note_on_c, 0, 79, 94
2, 16496, Note_off_c, 0, 79, 64
2, 16500, Note_on_c, 0, 81, 94
2, 16504, Note_off_c, 0, 67, 64
2, 16508, Note_off_c, 0, 81, 64
2, 16512, Note_on_c, 0, 79, 94
2, 16544, Note_on_c, 0, 62, 94
2, 16568, Note_off_c, 0, 62, 64
2, 16576, Note_on_c, 0, 67, 94
2, 16588, Note_off_c, 0, 79, 64
2, 16600, Note_off_c, 0, 67, 64
2, 16640, Note_on_c, 0, 62, 94
2, 16664, Note_off_c, 0, 62, 64
2, 16672, Note_on_c, 0, 67, 94
2, 16680, Note_on_c, 0, 79, 94
2, 16696, Note_off_c, 0, 67, 64
2, 16698, Note_off_c, 0, 79, 64
2, 16704, Note_on_c, 0, 79, 52
2, 16736, Note_on_c, 0, 62, 52
2, 16760, Note_off_c, 0, 62, 64
2, 16768, Note_on_c, 0, 67, 52
2, 16792, Note_off_c, 0, 67, 64
2, 16824, Note_off_c, 0, 79, 64
2, 16832, Note_on_c, 0, 62, 52
2, 16832, Note_on_c, 0, 82, 52
2, 16856, Note_off_c, 0, 62, 64
2, 16856, Note_off_c, 0, 82, 64
2, 16864, Note_on_c, 0, 81, 52
2, 16864, Note_on_c, 0, 67, 52
2, 16888, Note_off_c, 0, 81, 64
2, 16888, Note_off_c, 0, 67, 64
2, 16896, Note_on_c, 0, 79, 52
2, 16920, Note_off_c, 0, 79, 64
2, 16928, Note_on_c, 0, 77, 52
2, 16928, Note_on_c, 0, 62, 52
2, 16952, Note_off_c, 0, 77, 64
2, 16952, Note_off_c, 0, 62, 64
2, 16960, Note_on_c, 0, 76, 52
2, 16960, Note_on_c, 0, 67, 52
2, 16984, Note_off_c, 0, 76, 64
2, 16984, Note_off_c, 0, 67, 64
2, 16992, Note_on_c, 0, 74, 52
2, 17024, Note_on_c, 0, 62, 52
2, 17048, Note_off_c, 0, 62, 64
2, 17056, Note_on_c, 0, 65, 52
2, 17068, Note_off_c, 0, 74, 64
2, 17080, Note_off_c, 0, 65, 64
2, 17088, Note_on_c, 0, 73, 52
2, 17120, Note_on_c, 0, 61, 52
2, 17144, Note_off_c, 0, 61, 64
2, 17152, Note_on_c, 0, 64, 52
2, 17164, Note_off_c, 0, 73, 64
2, 17176, Note_off_c, 0, 64, 64
2, 17216, Note_on_c, 0, 61, 52
2, 17240, Note_off_c, 0, 61, 64
2, 17248, Note_on_c, 0, 64, 52
2, 17256, Note_on_c, 0, 69, 52
2, 17272, Note_off_c, 0, 64, 64
2, 17274, Note_off_c, 0, 69, 64
2, 17280, Note_on_c, 0, 73, 94
2, 17280, Note_on_c, 0, 82, 94
2, 17312, Note_on_c, 0, 61, 94
2, 17336, Note_off_c, 0, 61, 64
2, 17344, Note_on_c, 0, 64, 94
2, 17356, Note_off_c, 0, 73, 64
2, 17356, Note_off_c, 0, 82, 64
2, 17368, Note_off_c, 0, 64, 64
2, 17376, Note_on_c, 0, 74, 94
2, 17376, Note_on_c, 0, 81, 94
2, 17440, Note_on_c, 0, 62, 94
2, 17452, Note_off_c, 0, 74, 64
2, 17452, Note_off_c, 0, 81, 64
2, 17464, Note_off_c, 0, 62, 64
2, 17520, Note_on_c, 0, 77, 94
2, 17558, Note_off_c, 0, 77, 64
2, 17568, Note_on_c, 0, 76, 52
2, 17592, Note_off_c, 0, 76, 64
2, 17600, Note_on_c, 0, 79, 52
2, 17624, Note_off_c, 0, 79, 64
2, 17632, Note_on_c, 0, 64, 52
2, 17632, Note_on_c, 0, 76, 52
2, 17656, Note_off_c, 0, 64, 64
2, 17656, Note_off_c, 0, 76, 64
2, 17664, Note_on_c, 0, 74, 52
2, 17688, Note_off_c, 0, 74, 64
2, 17696, Note_on_c, 0, 62, 52
2, 17696, Note_on_c, 0, 77, 52
2, 17720, Note_off_c, 0, 62, 64
2, 17720, Note_off_c, 0, 77, 64
2, 17728, Note_on_c, 0, 74, 52
2, 17728, Note_on_c, 0, 65, 52
2, 17752, Note_off_c, 0, 74, 64
2, 17752, Note_off_c, 0, 65, 64
2, 17760, Note_on_c, 0, 73, 52
2, 17784, Note_off_c, 0, 73, 64
2, 17792, Note_on_c, 0, 76, 52
2, 17792, Note_on_c, 0, 61, 52
2, 17816, Note_off_c, 0, 76, 64
2, 17816, Note_off_c, 0, 61, 64
2, 17824, Note_on_c, 0, 73, 52
2, 17824, Note_on_c, 0, 64, 52
2, 17848, Note_off_c, 0, 73, 64
2, 17848, Note_off_c, 0, 64, 64
2, 17856, Note_on_c, 0, 76, 94
2, 17856, Note_on_c, 0, 85, 94
2, 17888, Note_on_c, 0, 61, 94
2, 17912, Note_off_c, 0, 61, 64
2, 17920, Note_on_c, 0, 64, 94
2, 17932, Note_off_c, 0, 76, 64
2, 17932, Note_off_c, 0, 85, 64
2, 17944, Note_off_c, 0, 64, 64
2, 17952, Note_on_c, 0, 77, 94
2, 17952, Note_on_c, 0, 86, 94
2, 18016, Note_on_c, 0, 62, 94
2, 18028, Note_off_c, 0, 77, 64
2, 18028, Note_off_c, 0, 86, 64
2, 18040, Note_off_c, 0, 62, 64
2, 18120, Note_on_c, 0, 77, 94
2, 18138, Note_off_c, 0, 77, 64
2, 18144, Note_on_c, 0, 76, 52
2, 18168, Note_off_c, 0, 76, 64
2, 18176, Note_on_c, 0, 79, 52
2, 18200, Note_off_c, 0, 79, 64
2, 18208, Note_on_c, 0, 64, 52
2, 18208, Note_on_c, 0, 76, 52
2, 18232, Note_off_c, 0, 64, 64
2, 18232, Note_off_c, 0, 76, 64
2, 18240, Note_on_c, 0, 74, 52
2, 18264, Note_off_c, 0, 74, 64
2, 18272, Note_on_c, 0, 62, 52
2, 18272, Note_on_c, 0, 77, 52
2, 18296, Note_off_c, 0, 62, 64
2, 18296, Note_off_c, 0, 77, 64
2, 18304, Note_on_c, 0, 74, 52
2, 18304, Note_on_c, 0, 65, 52
2, 18328, Note_off_c, 0, 74, 64
2, 18328, Note_off_c, 0, 65, 64
2, 18336, Note_on_c, 0, 73, 52
2, 18360, Note_off_c, 0, 73, 64
2, 18368, Note_on_c, 0, 76, 52
2, 18368, Note_on_c, 0, 61, 52
2, 18392, Note_off_c, 0, 76, 64
2, 18392, Note_off_c, 0, 61, 64
2, 18400, Note_on_c, 0, 73, 52
2, 18400, Note_on_c, 0, 64, 52
2, 18424, Note_off_c, 0, 73, 64
2, 18424, Note_off_c, 0, 64, 64
2, 18432, Note_on_c, 0, 72, 94
2, 18464, Note_on_c, 0, 63, 94
2, 18488, Note_off_c, 0, 63, 64
2, 18496, Note_on_c, 0, 66, 94
2, 18508, Note_off_c, 0, 72, 64
2, 18520, Note_off_c, 0, 66, 64
2, 18528, Note_on_c, 0, 75, 94
2, 18536, Note_off_c, 0, 75, 64
2, 18540, Note_on_c, 0, 77, 94
2, 18548, Note_off_c, 0, 77, 64
2, 18552, Note_on_c, 0, 75, 94
2, 18560, Note_off_c, 0, 75, 64
2, 18560, Note_on_c, 0, 60, 94
2, 18564, Note_on_c, 0, 77, 94
2, 18572, Note_off_c, 0, 77, 64
2, 18576, Note_on_c, 0, 75, 94
2, 18584, Note_off_c, 0, 60, 64
2, 18584, Note_off_c, 0, 75, 64
2, 18588, Note_on_c, 0, 77, 94
2, 18592, Note_on_c, 0, 66, 94
2, 18596, Note_off_c, 0, 77, 64
2, 18600, Note_on_c, 0, 75, 94
2, 18608, Note_off_c, 0, 75, 64
2, 18612, Note_on_c, 0, 77, 94
2, 18616, Note_off_c, 0, 66, 64
2, 18620, Note_off_c, 0, 77, 64
2, 18624, Note_on_c, 0, 75, 94
2, 18632, Note_off_c, 0, 75, 64
2, 18636, Note_on_c, 0, 77, 94
2, 18644, Note_off_c, 0, 77, 64
2, 18648, Note_on_c, 0, 75, 94
2, 18656, Note_off_c, 0, 75, 64
2, 18656, Note_on_c, 0, 60, 94
2, 18660, Note_on_c, 0, 77, 94
2, 18668, Note_off_c, 0, 77, 64
2, 18672, Note_on_c, 0, 74, 94
2, 18680, Note_off_c, 0, 60, 64
2, 18688, Note_on_c, 0, 66, 94
2, 18690, Note_off_c, 0, 74, 64
2, 18696, Note_on_c, 0, 75, 94
2, 18712, Note_off_c, 0, 66, 64
2, 18714, Note_off_c, 0, 75, 64
2, 18720, Note_on_c, 0, 74, 80
2, 18720, Note_on_c, 0, 67, 80
2, 18720, Note_on_c, 0, 62, 80
2, 18744, Note_off_c, 0, 67, 64
2, 18744, Note_off_c, 0, 62, 64
2, 18752, Note_on_c, 0, 70, 80
2, 18776, Note_off_c, 0, 70, 64
2, 18784, Note_on_c, 0, 69, 80
2, 18796, Note_off_c, 0, 74, 64
2, 18808, Note_off_c, 0, 69, 64
2, 18816, Note_on_c, 0, 70, 80
2, 18848, Note_on_c, 0, 79, 80
2, 18872, Note_off_c, 0, 79, 64
2, 18880, Note_on_c, 0, 78, 80
2, 18892, Note_off_c, 0, 70, 64
2, 18904, Note_off_c, 0, 78, 64
2, 18912, Note_on_c, 0, 79, 80
2, 18944, Note_on_c, 0, 74, 80
2, 18944, Note_on_c, 0, 70, 80
2, 18968, Note_off_c, 0, 74, 64
2, 18968, Note_off_c, 0, 70, 64
2, 18976, Note_on_c, 0, 73, 80
2, 18976, Note_on_c, 0, 69, 80
2, 18988, Note_off_c, 0, 79, 64
2, 19000, Note_off_c, 0, 73, 64
2, 19000, Note_off_c, 0, 69, 64
2, 19008, Note_on_c, 0, 74, 80
2, 19008, Note_on_c, 0, 70, 80
2, 19040, Note_on_c, 0, 82, 80
2, 19064, Note_off_c, 0, 82, 64
2, 19072, Note_on_c, 0, 81, 80
2, 19084, Note_off_c, 0, 74, 64
2, 19084, Note_off_c, 0, 70, 64
2, 19096, Note_off_c, 0, 81, 64
2, 19104, Note_on_c, 0, 82, 80
2, 19136, Note_on_c, 0, 79, 80
2, 19136, Note_on_c, 0, 70, 80
2, 19160, Note_off_c, 0, 79, 64
2, 19160, Note_off_c, 0, 70, 64
2, 19168, Note_on_c, 0, 78, 80
2, 19168, Note_on_c, 0, 69, 80
2, 19180, Note_off_c, 0, 82, 64
2, 19192, Note_off_c, 0, 78, 64
2, 19192, Note_off_c, 0, 69, 64
2, 19200, Note_on_c, 0, 70, 80
2, 19200, Note_on_c, 0, 79, 80
2, 19232, Note_on_c, 0, 86, 80
2, 19256, Note_off_c, 0, 86, 64
2, 19264, Note_on_c, 0, 85, 80
2, 19276, Note_off_c, 0, 70, 64
2, 19276, Note_off_c, 0, 79, 64
2, 19288, Note_off_c, 0, 85, 64
2, 19296, Note_on_c, 0, 86, 80
2, 19320, Note_off_c, 0, 86, 64
2, 19328, Note_on_c, 0, 82, 80
2, 19352, Note_off_c, 0, 82, 64
2, 19360, Note_on_c, 0, 79, 80
2, 19384, Note_off_c, 0, 79, 64
2, 19392, Note_on_c, 0, 86, 80
2, 19416, Note_off_c, 0, 86, 64
2, 19424, Note_on_c, 0, 82, 80
2, 19448, Note_off_c, 0, 82, 64
2, 19456, Note_on_c, 0, 79, 80
2, 19480, Note_off_c, 0, 79, 64
2, 19488, Note_on_c, 0, 86, 80
2, 19512, Note_off_c, 0, 86, 64
2, 19520, Note_on_c, 0, 82, 80
2, 19544, Note_off_c, 0, 82, 64
2, 19552, Note_on_c, 0, 79, 80
2, 19576, Note_off_c, 0, 79, 64
2, 19584, Note_on_c, 0, 69, 98
2, 19584, Note_on_c, 0, 65, 98
2, 19584, Note_on_c, 0, 77, 94
2, 19584, Note_on_c, 0, 60, 94
2, 19660, Note_off_c, 0, 69, 64
2, 19660, Note_off_c, 0, 65, 64
2, 19660, Note_off_c, 0, 60, 64
2, 19680, Note_on_c, 0, 70, 52
2, 19680, Note_on_c, 0, 67, 53
2, 19704, Note_off_c, 0, 77, 64
2, 19712, Note_on_c, 0, 76, 52
2, 19736, Note_off_c, 0, 76, 64
2, 19744, Note_on_c, 0, 77, 52
2, 19756, Note_off_c, 0, 70, 64
2, 19756, Note_off_c, 0, 67, 64
2, 19768, Note_off_c, 0, 77, 64
2, 19776, Note_on_c, 0, 79, 52
2, 19800, Note_off_c, 0, 79, 64
2, 19808, Note_on_c, 0, 81, 52
2, 19832, Note_off_c, 0, 81, 64
2, 19840, Note_on_c, 0, 82, 52
2, 19864, Note_off_c, 0, 82, 64
2, 19872, Note_on_c, 0, 83, 94
2, 19890, Note_off_c, 0, 83, 64
2, 19896, Note_on_c, 0, 84, 94
2, 19914, Note_off_c, 0, 84, 64
2, 19920, Note_on_c, 0, 86, 94
2, 19938, Note_off_c, 0, 86, 64
2, 19944, Note_on_c, 0, 84, 94
2, 19962, Note_off_c, 0, 84, 64
2, 19962, Note_on_c, 0, 84, 94
2, 19968, Note_off_c, 0, 84, 64
2, 19968, Note_on_c, 0, 82, 52
2, 20006, Note_off_c, 0, 82, 64
2, 20016, Note_on_c, 0, 81, 52
2, 20034, Note_off_c, 0, 81, 64
2, 20040, Note_on_c, 0, 79, 52
2, 20058, Note_off_c, 0, 79, 64
2, 20058, Note_on_c, 0, 79, 52
2, 20064, Note_off_c, 0, 79, 64
2, 20064, Note_on_c, 0, 77, 52
2, 20102, Note_off_c, 0, 77, 64
2, 20112, Note_on_c, 0, 76, 52
2, 20130, Note_off_c, 0, 76, 64
2, 20136, Note_on_c, 0, 74, 52
2, 20154, Note_off_c, 0, 74, 64
2, 20160, Note_on_c, 0, 72, 94
2, 20224, Note_on_c, 0, 60, 94
2, 20236, Note_off_c, 0, 72, 64
2, 20244, Note_on_c, 0, 71, 94
2, 20248, Note_off_c, 0, 60, 64
2, 20256, Note_off_c, 0, 71, 64
2, 20256, Note_on_c, 0, 72, 94
2, 20320, Note_on_c, 0, 60, 94
2, 20332, Note_off_c, 0, 72, 64
2, 20340, Note_on_c, 0, 74, 94
2, 20344, Note_off_c, 0, 60, 64
2, 20352, Note_off_c, 0, 74, 64
2, 20352, Note_on_c, 0, 72, 94
2, 20416, Note_on_c, 0, 60, 94
2, 20428, Note_off_c, 0, 72, 64
2, 20440, Note_off_c, 0, 60, 64
2, 20448, Note_on_c, 0, 82, 94
2, 20512, Note_on_c, 0, 60, 94
2, 20524, Note_off_c, 0, 82, 64
2, 20536, Note_off_c, 0, 60, 64
2, 20544, Note_on_c, 0, 70, 94
2, 20620, Note_off_c, 0, 70, 64
2, 20688, Note_on_c, 0, 69, 94
2, 20704, Note_on_c, 0, 60, 94
2, 20726, Note_off_c, 0, 69, 64
2, 20728, Note_off_c, 0, 60, 64
2, 20736, Note_on_c, 0, 67, 52
2, 20760, Note_off_c, 0, 67, 64
2, 20768, Note_on_c, 0, 70, 52
2, 20792, Note_off_c, 0, 70, 64
2, 20800, Note_on_c, 0, 67, 52
2, 20824, Note_off_c, 0, 67, 64
2, 20832, Note_on_c, 0, 65, 52
2, 20856, Note_off_c, 0, 65, 64
2, 20864, Note_on_c, 0, 69, 52
2, 20888, Note_off_c, 0, 69, 64
2, 20896, Note_on_c, 0, 65, 52
2, 20920, Note_off_c, 0, 65, 64
2, 20928, Note_on_c, 0, 64, 52
2, 20952, Note_off_c, 0, 64, 64
2, 20960, Note_on_c, 0, 67, 52
2, 20984, Note_off_c, 0, 67, 64
2, 20992, Note_on_c, 0, 64, 52
2, 21016, Note_off_c, 0, 64, 64
2, 21024, Note_on_c, 0, 82, 94
2, 21100, Note_off_c, 0, 82, 64
2, 21120, Note_on_c, 0, 70, 94
2, 21196, Note_off_c, 0, 70, 64
2, 21288, Note_on_c, 0, 70, 94
2, 21306, Note_off_c, 0, 70, 64
2, 21312, Note_on_c, 0, 82, 94
2, 21388, Note_off_c, 0, 82, 64
2, 21408, Note_on_c, 0, 70, 94
2, 21484, Note_off_c, 0, 70, 64
2, 21552, Note_on_c, 0, 69, 94
2, 21590, Note_off_c, 0, 69, 64
2, 21600, Note_on_c, 0, 69, 94
2, 21624, Note_off_c, 0, 69, 64
2, 21632, Note_on_c, 0, 65, 94
2, 21632, Note_on_c, 0, 67, 94
2, 21632, Note_on_c, 0, 62, 94
2, 21656, Note_off_c, 0, 65, 64
2, 21656, Note_off_c, 0, 67, 64
2, 21656, Note_off_c, 0, 62, 64
2, 21664, Note_on_c, 0, 62, 94
2, 21664, Note_on_c, 0, 65, 94
2, 21688, Note_off_c, 0, 62, 64
2, 21688, Note_off_c, 0, 65, 64
2, 21696, Note_on_c, 0, 62, 94
2, 21696, Note_on_c, 0, 65, 94
2, 21720, Note_off_c, 0, 62, 64
2, 21720, Note_off_c, 0, 65, 64
2, 21728, Note_on_c, 0, 62, 94
2, 21728, Note_on_c, 0, 65, 94
2, 21752, Note_off_c, 0, 62, 64
2, 21752, Note_off_c, 0, 65, 64
2, 21760, Note_on_c, 0, 65, 94
2, 21760, Note_on_c, 0, 62, 94
2, 21784, Note_off_c, 0, 65, 64
2, 21784, Note_off_c, 0, 62, 64
2, 21792, Note_on_c, 0, 62, 94
2, 21792, Note_on_c, 0, 65, 94
2, 21816, Note_off_c, 0, 62, 64
2, 21816, Note_off_c, 0, 65, 64
2, 21824, Note_on_c, 0, 62, 94
2, 21824, Note_on_c, 0, 65, 94
2, 21848, Note_off_c, 0, 62, 64
2, 21848, Note_off_c, 0, 65, 64
2, 21856, Note_on_c, 0, 62, 94
2, 21856, Note_on_c, 0, 65, 94
2, 21880, Note_off_c, 0, 62, 64
2, 21880, Note_off_c, 0, 65, 64
2, 21888, Note_on_c, 0, 77, 94
2, 21912, Note_off_c, 0, 77, 64
2, 21920, Note_on_c, 0, 71, 94
2, 21944, Note_off_c, 0, 71, 64
2, 22176, Note_on_c, 0, 72, 66
2, 22176, Note_on_c, 0, 60, 66
2, 22200, Note_off_c, 0, 72, 64
2, 22208, Note_on_c, 0, 84, 66
2, 22232, Note_off_c, 0, 84, 64
2, 22240, Note_on_c, 0, 84, 66
2, 22252, Note_off_c, 0, 60, 64
2, 22264, Note_off_c, 0, 84, 64
2, 22272, Note_on_c, 0, 84, 66
2, 22296, Note_off_c, 0, 84, 64
2, 22304, Note_on_c, 0, 84, 66
2, 22328, Note_off_c, 0, 84, 64
2, 22336, Note_on_c, 0, 84, 66
2, 22360, Note_off_c, 0, 84, 64
2, 22368, Note_on_c, 0, 84, 66
2, 22392, Note_off_c, 0, 84, 64
2, 22400, Note_on_c, 0, 84, 66
2, 22424, Note_off_c, 0, 84, 64
2, 22432, Note_on_c, 0, 84, 66
2, 22456, Note_off_c, 0, 84, 64
2, 22464, Note_on_c, 0, 84, 94
2, 22488, Note_off_c, 0, 84, 64
2, 22496, Note_on_c, 0, 67, 94
2, 22496, Note_on_c, 0, 76, 94
2, 22520, Note_off_c, 0, 67, 64
2, 22520, Note_off_c, 0, 76, 64
2, 22528, Note_on_c, 0, 70, 94
2, 22528, Note_on_c, 0, 79, 94
2, 22552, Note_off_c, 0, 70, 64
2, 22552, Note_off_c, 0, 79, 64
2, 22560, Note_on_c, 0, 69, 66
2, 22560, Note_on_c, 0, 77, 66
2, 22584, Note_off_c, 0, 69, 64
2, 22584, Note_off_c, 0, 77, 64
2, 22592, Note_on_c, 0, 67, 66
2, 22592, Note_on_c, 0, 76, 66
2, 22616, Note_off_c, 0, 67, 64
2, 22616, Note_off_c, 0, 76, 64
2, 22624, Note_on_c, 0, 79, 66
2, 22624, Note_on_c, 0, 70, 66
2, 22648, Note_off_c, 0, 79, 64
2, 22648, Note_off_c, 0, 70, 64
2, 22656, Note_on_c, 0, 77, 66
2, 22656, Note_on_c, 0, 69, 66
2, 22680, Note_off_c, 0, 77, 64
2, 22680, Note_off_c, 0, 69, 64
2, 22688, Note_on_c, 0, 76, 66
2, 22688, Note_on_c, 0, 67, 66
2, 22712, Note_off_c, 0, 76, 64
2, 22712, Note_off_c, 0, 67, 64
2, 22720, Note_on_c, 0, 79, 66
2, 22720, Note_on_c, 0, 70, 66
2, 22744, Note_off_c, 0, 79, 64
2, 22744, Note_off_c, 0, 70, 64
2, 22752, Note_on_c, 0, 84, 94
2, 22776, Note_off_c, 0, 84, 64
2, 22784, Note_on_c, 0, 69, 94
2, 22784, Note_on_c, 0, 77, 94
2, 22808, Note_off_c, 0, 69, 64
2, 22808, Note_off_c, 0, 77, 64
2, 22816, Note_on_c, 0, 72, 96
2, 22816, Note_on_c, 0, 81, 95
2, 22840, Note_off_c, 0, 72, 64
2, 22840, Note_off_c, 0, 81, 64
2, 22848, Note_on_c, 0, 70, 66
2, 22848, Note_on_c, 0, 79, 66
2, 22872, Note_off_c, 0, 70, 64
2, 22872, Note_off_c, 0, 79, 64
2, 22880, Note_on_c, 0, 69, 66
2, 22880, Note_on_c, 0, 77, 66
2, 22904, Note_off_c, 0, 69, 64
2, 22904, Note_off_c, 0, 77, 64
2, 22912, Note_on_c, 0, 81, 66
2, 22912, Note_on_c, 0, 72, 66
2, 22936, Note_off_c, 0, 81, 64
2, 22936, Note_off_c, 0, 72, 64
2, 22944, Note_on_c, 0, 79, 66
2, 22944, Note_on_c, 0, 70, 66
2, 22968, Note_off_c, 0, 79, 64
2, 22968, Note_off_c, 0, 70, 64
2, 22976, Note_on_c, 0, 77, 66
2, 22976, Note_on_c, 0, 69, 66
2, 23000, Note_off_c, 0, 77, 64
2, 23000, Note_off_c, 0, 69, 64
2, 23008, Note_on_c, 0, 81, 66
2, 23008, Note_on_c, 0, 72, 66
2, 23032, Note_off_c, 0, 81, 64
2, 23032, Note_off_c, 0, 72, 64
2, 23040, Note_on_c, 0, 84, 94
2, 23064, Note_off_c, 0, 84, 64
2, 23072, Note_on_c, 0, 64, 94
2, 23072, Note_on_c, 0, 79, 94
2, 23096, Note_off_c, 0, 64, 64
2, 23096, Note_off_c, 0, 79, 64
2, 23104, Note_on_c, 0, 67, 94
2, 23104, Note_on_c, 0, 82, 94
2, 23128, Note_off_c, 0, 67, 64
2, 23128, Note_off_c, 0, 82, 64
2, 23136, Note_on_c, 0, 65, 66
2, 23136, Note_on_c, 0, 81, 66
2, 23160, Note_off_c, 0, 65, 64
2, 23160, Note_off_c, 0, 81, 64
2, 23168, Note_on_c, 0, 64, 66
2, 23168, Note_on_c, 0, 79, 66
2, 23192, Note_off_c, 0, 64, 64
2, 23192, Note_off_c, 0, 79, 64
2, 23200, Note_on_c, 0, 82, 66
2, 23200, Note_on_c, 0, 67, 66
2, 23224, Note_off_c, 0, 82, 64
2, 23224, Note_off_c, 0, 67, 64
2, 23232, Note_on_c, 0, 81, 66
2, 23232, Note_on_c, 0, 65, 66
2, 23256, Note_off_c, 0, 81, 64
2, 23256, Note_off_c, 0, 65, 64
2, 23264, Note_on_c, 0, 79, 66
2, 23264, Note_on_c, 0, 64, 66
2, 23288, Note_off_c, 0, 79, 64
2, 23288, Note_off_c, 0, 64, 64
2, 23296, Note_on_c, 0, 82, 66
2, 23296, Note_on_c, 0, 67, 66
2, 23320, Note_off_c, 0, 82, 64
2, 23320, Note_off_c, 0, 67, 64
2, 23328, Note_on_c, 0, 65, 66
2, 23360, Note_on_c, 0, 69, 66
2, 23384, Note_off_c, 0, 69, 64
2, 23392, Note_on_c, 0, 70, 66
2, 23404, Note_off_c, 0, 65, 64
2, 23416, Note_off_c, 0, 70, 64
2, 23424, Note_on_c, 0, 71, 66
2, 23448, Note_off_c, 0, 71, 64
2, 23456, Note_on_c, 0, 72, 66
2, 23480, Note_off_c, 0, 72, 64
2, 23488, Note_on_c, 0, 73, 66
2, 23512, Note_off_c, 0, 73, 64
2, 23520, Note_on_c, 0, 74, 66
2, 23544, Note_off_c, 0, 74, 64
2, 23552, Note_on_c, 0, 76, 66
2, 23576, Note_off_c, 0, 76, 64
2, 23584, Note_on_c, 0, 77, 66
2, 23608, Note_off_c, 0, 77, 64
2, 23616, Note_on_c, 0, 62, 94
2, 23616, Note_on_c, 0, 65, 94
2, 23616, Note_on_c, 0, 67, 94
2, 23692, Note_off_c, 0, 62, 64
2, 23692, Note_off_c, 0, 65, 64
2, 23692, Note_off_c, 0, 67, 64
2, 23712, Note_on_c, 0, 64, 66
2, 23712, Note_on_c, 0, 60, 66
2, 23712, Note_on_c, 0, 67, 66
2, 23736, Note_off_c, 0, 67, 64
2, 23744, Note_on_c, 0, 74, 66
2, 23768, Note_off_c, 0, 74, 64
2, 23776, Note_on_c, 0, 72, 66
2, 23788, Note_off_c, 0, 64, 64
2, 23788, Note_off_c, 0, 60, 64
2, 23800, Note_off_c, 0, 72, 64
2, 23808, Note_on_c, 0, 70, 94
2, 23832, Note_off_c, 0, 70, 64
2, 23840, Note_on_c, 0, 69, 94
2, 23864, Note_off_c, 0, 69, 64
2, 23872, Note_on_c, 0, 67, 94
2, 23896, Note_off_c, 0, 67, 64
2, 23904, Note_on_c, 0, 72, 94
2, 23928, Note_off_c, 0, 72, 64
2, 23936, Note_on_c, 0, 73, 94
2, 23960, Note_off_c, 0, 73, 64
2, 23968, Note_on_c, 0, 74, 94
2, 23992, Note_off_c, 0, 74, 64
2, 24000, Note_on_c, 0, 65, 94
2, 24076, Note_off_c, 0, 65, 64
2, 24096, Note_on_c, 0, 64, 94
2, 24104, Note_off_c, 0, 64, 64
2, 24108, Note_on_c, 0, 65, 94
2, 24116, Note_off_c, 0, 65, 64
2, 24120, Note_on_c, 0, 64, 94
2, 24128, Note_off_c, 0, 64, 64
2, 24132, Note_on_c, 0, 65, 94
2, 24140, Note_off_c, 0, 65, 64
2, 24144, Note_on_c, 0, 64, 94
2, 24152, Note_off_c, 0, 64, 64
2, 24156, Note_on_c, 0, 65, 94
2, 24164, Note_off_c, 0, 65, 64
2, 24168, Note_on_c, 0, 62, 94
2, 24176, Note_off_c, 0, 62, 64
2, 24180, Note_on_c, 0, 64, 94
2, 24188, Note_off_c, 0, 64, 64
2, 24192, Note_on_c, 0, 65, 94
2, 24268, Note_off_c, 0, 65, 64
2, 24512, Note_on_c, 0, 76, 94
2, 24512, Note_on_c, 0, 67, 94
2, 24536, Note_off_c, 0, 76, 64
2, 24536, Note_off_c, 0, 67, 64
2, 24544, Note_on_c, 0, 68, 94
2, 24544, Note_on_c, 0, 77, 94
2, 24568, Note_off_c, 0, 68, 64
2, 24568, Note_off_c, 0, 77, 64
2, 24608, Note_on_c, 0, 68, 62
2, 24608, Note_on_c, 0, 77, 66
2, 24632, Note_off_c, 0, 68, 64
2, 24632, Note_off_c, 0, 77, 64
2, 24640, Note_on_c, 0, 67, 65
2, 24640, Note_on_c, 0, 76, 66
2, 24664, Note_off_c, 0, 67, 64
2, 24664, Note_off_c, 0, 76, 64
2, 24704, Note_on_c, 0, 73, 94
2, 24704, Note_on_c, 0, 69, 94
2, 24728, Note_off_c, 0, 73, 64
2, 24728, Note_off_c, 0, 69, 64
2, 24736, Note_on_c, 0, 70, 94
2, 24736, Note_on_c, 0, 74, 94
2, 24760, Note_off_c, 0, 70, 64
2, 24760, Note_off_c, 0, 74, 64
2, 24800, Note_on_c, 0, 70, 66
2, 24800, Note_on_c, 0, 74, 66
2, 24824, Note_off_c, 0, 70, 64
2, 24824, Note_off_c, 0, 74, 64
2, 24832, Note_on_c, 0, 69, 66
2, 24832, Note_on_c, 0, 72, 66
2, 24856, Note_off_c, 0, 69, 64
2, 24856, Note_off_c, 0, 72, 64
2, 24864, Note_on_c, 0, 61, 66
2, 24896, Note_on_c, 0, 81, 66
2, 24896, Note_on_c, 0, 84, 66
2, 24920, Note_off_c, 0, 81, 64
2, 24920, Note_off_c, 0, 84, 64
2, 24928, Note_on_c, 0, 79, 66
2, 24928, Note_on_c, 0, 82, 66
2, 24940, Note_off_c, 0, 61, 64
2, 24952, Note_off_c, 0, 79, 64
2, 24952, Note_off_c, 0, 82, 64
2, 24960, Note_on_c, 0, 62, 95
2, 24992, Note_on_c, 0, 82, 95
2, 24992, Note_on_c, 0, 79, 94
2, 25016, Note_off_c, 0, 82, 64
2, 25016, Note_off_c, 0, 79, 64
2, 25024, Note_on_c, 0, 81, 94
2, 25024, Note_on_c, 0, 77, 94
2, 25036, Note_off_c, 0, 62, 64
2, 25048, Note_off_c, 0, 81, 64
2, 25048, Note_off_c, 0, 77, 64
2, 25056, Note_on_c, 0, 74, 80
2, 25056, Note_on_c, 0, 70, 80
2, 25080, Note_off_c, 0, 74, 64
2, 25088, Note_on_c, 0, 81, 80
2, 25112, Note_off_c, 0, 81, 64
2, 25120, Note_on_c, 0, 79, 80
2, 25132, Note_off_c, 0, 70, 64
2, 25144, Note_off_c, 0, 79, 64
2, 25152, Note_on_c, 0, 60, 80
2, 25152, Note_on_c, 0, 69, 80
2, 25152, Note_on_c, 0, 72, 80
2, 25176, Note_off_c, 0, 72, 64
2, 25184, Note_on_c, 0, 79, 80
2, 25208, Note_off_c, 0, 79, 64
2, 25216, Note_on_c, 0, 77, 80
2, 25228, Note_off_c, 0, 60, 64
2, 25228, Note_off_c, 0, 69, 64
2, 25240, Note_off_c, 0, 77, 64
2, 25248, Note_on_c, 0, 67, 80
2, 25248, Note_on_c, 0, 70, 80
2, 25272, Note_off_c, 0, 70, 64
2, 25280, Note_on_c, 0, 77, 80
2, 25304, Note_off_c, 0, 77, 64
2, 25312, Note_on_c, 0, 76, 80
2, 25324, Note_off_c, 0, 67, 64
2, 25336, Note_off_c, 0, 76, 64
2, 25344, Note_on_c, 0, 84, 94
2, 25344, Note_on_c, 0, 81, 94
2, 25376, Note_on_c, 0, 64, 94
2, 25400, Note_off_c, 0, 64, 64
2, 25408, Note_on_c, 0, 65, 94
2, 25420, Note_off_c, 0, 84, 64
2, 25420, Note_off_c, 0, 81, 64
2, 25432, Note_off_c, 0, 65, 64
2, 25440, Note_on_c, 0, 82, 94
2, 25440, Note_on_c, 0, 79, 94
2, 25472, Note_on_c, 0, 66, 94
2, 25496, Note_off_c, 0, 66, 64
2, 25504, Note_on_c, 0, 67, 94
2, 25516, Note_off_c, 0, 82, 64
2, 25516, Note_off_c, 0, 79, 64
2, 25528, Note_off_c, 0, 67, 64
2, 25536, Note_on_c, 0, 77, 94
2, 25536, Note_on_c, 0, 81, 94
2, 25568, Note_on_c, 0, 68, 94
2, 25592, Note_off_c, 0, 68, 64
2, 25600, Note_on_c, 0, 69, 94
2, 25612, Note_off_c, 0, 77, 64
2, 25612, Note_off_c, 0, 81, 64
2, 25624, Note_off_c, 0, 69, 64
2, 25632, Note_on_c, 0, 62, 66
2, 25656, Note_off_c, 0, 62, 64
2, 25664, Note_on_c, 0, 69, 66
2, 25688, Note_off_c, 0, 69, 64
2, 25696, Note_on_c, 0, 67, 66
2, 25720, Note_off_c, 0, 67, 64
2, 25728, Note_on_c, 0, 60, 66
2, 25752, Note_off_c, 0, 60, 64
2, 25760, Note_on_c, 0, 67, 66
2, 25784, Note_off_c, 0, 67, 64
2, 25792, Note_on_c, 0, 65, 66
2, 25816, Note_off_c, 0, 65, 64
2, 25856, Note_on_c, 0, 65, 66
2, 25880, Note_off_c, 0, 65, 64
2, 25888, Note_on_c, 0, 64, 66
2, 25912, Note_off_c, 0, 64, 64
2, 25920, Note_on_c, 0, 69, 94
2, 25920, Note_on_c, 0, 72, 94
2, 25996, Note_off_c, 0, 69, 64
2, 25996, Note_off_c, 0, 72, 64
2, 26016, Note_on_c, 0, 67, 94
2, 26016, Note_on_c, 0, 70, 94
2, 26092, Note_off_c, 0, 67, 64
2, 26092, Note_off_c, 0, 70, 64
2, 26112, Note_on_c, 0, 65, 94
2, 26112, Note_on_c, 0, 69, 94
2, 26188, Note_off_c, 0, 65, 64
2, 26188, Note_off_c, 0, 69, 64
2, 26208, Note_on_c, 0, 69, 66
2, 26232, Note_off_c, 0, 69, 64
2, 26240, Note_on_c, 0, 62, 66
2, 26240, Note_on_c, 0, 67, 66
2, 26240, Note_on_c, 0, 65, 66
2, 26264, Note_off_c, 0, 62, 64
2, 26264, Note_off_c, 0, 67, 64
2, 26264, Note_off_c, 0, 65, 64
2, 26272, Note_on_c, 0, 65, 66
2, 26272, Note_on_c, 0, 62, 66
2, 26296, Note_off_c, 0, 65, 64
2, 26296, Note_off_c, 0, 62, 64
2, 26304, Note_on_c, 0, 65, 66
2, 26304, Note_on_c, 0, 62, 66
2, 26328, Note_off_c, 0, 65, 64
2, 26328, Note_off_c, 0, 62, 64
2, 26336, Note_on_c, 0, 62, 66
2, 26336, Note_on_c, 0, 65, 66
2, 26360, Note_off_c, 0, 62, 64
2, 26360, Note_off_c, 0, 65, 64
2, 26368, Note_on_c, 0, 65, 66
2, 26368, Note_on_c, 0, 62, 66
2, 26392, Note_off_c, 0, 65, 64
2, 26392, Note_off_c, 0, 62, 64
2, 26400, Note_on_c, 0, 65, 66
2, 26400, Note_on_c, 0, 62, 66
2, 26424, Note_off_c, 0, 65, 64
2, 26424, Note_off_c, 0, 62, 64
2, 26432, Note_on_c, 0, 65, 66
2, 26432, Note_on_c, 0, 62, 66
2, 26456, Note_off_c, 0, 65, 64
2, 26456, Note_off_c, 0, 62, 64
2, 26464, Note_on_c, 0, 65, 66
2, 26464, Note_on_c, 0, 62, 66
2, 26488, Note_off_c, 0, 65, 64
2, 26488, Note_off_c, 0, 62, 64
2, 26496, Note_on_c, 0, 67, 94
2, 26520, Note_off_c, 0, 67, 64
2, 26528, Note_on_c, 0, 65, 94
2, 26528, Note_on_c, 0, 68, 94
2, 26528, Note_on_c, 0, 62, 94
2, 26552, Note_off_c, 0, 65, 64
2, 26552, Note_off_c, 0, 68, 64
2, 26552, Note_off_c, 0, 62, 64
2, 26560, Note_on_c, 0, 62, 94
2, 26560, Note_on_c, 0, 65, 94
2, 26584, Note_off_c, 0, 62, 64
2, 26584, Note_off_c, 0, 65, 64
2, 26592, Note_on_c, 0, 62, 94
2, 26592, Note_on_c, 0, 65, 94
2, 26616, Note_off_c, 0, 62, 64
2, 26616, Note_off_c, 0, 65, 64
2, 26624, Note_on_c, 0, 62, 94
2, 26624, Note_on_c, 0, 65, 94
2, 26648, Note_off_c, 0, 62, 64
2, 26648, Note_off_c, 0, 65, 64
2, 26656, Note_on_c, 0, 65, 94
2, 26656, Note_on_c, 0, 62, 94
2, 26680, Note_off_c, 0, 65, 64
2, 26680, Note_off_c, 0, 62, 64
2, 26688, Note_on_c, 0, 65, 94
2, 26688, Note_on_c, 0, 62, 94
2, 26712, Note_off_c, 0, 65, 64
2, 26712, Note_off_c, 0, 62, 64
2, 26720, Note_on_c, 0, 65, 94
2, 26720, Note_on_c, 0, 62, 94
2, 26744, Note_off_c, 0, 65, 64
2, 26744, Note_off_c, 0, 62, 64
2, 26752, Note_on_c, 0, 65, 94
2, 26752, Note_on_c, 0, 62, 94
2, 26776, Note_off_c, 0, 65, 64
2, 26776, Note_off_c, 0, 62, 64
2, 26784, Note_on_c, 0, 68, 66
2, 26808, Note_off_c, 0, 68, 64
2, 26816, Note_on_c, 0, 69, 66
2, 26816, Note_on_c, 0, 60, 66
2, 26816, Note_on_c, 0, 65, 66
2, 26840, Note_off_c, 0, 69, 64
2, 26840, Note_off_c, 0, 60, 64
2, 26840, Note_off_c, 0, 65, 64
2, 26848, Note_on_c, 0, 65, 66
2, 26848, Note_on_c, 0, 60, 66
2, 26872, Note_off_c, 0, 65, 64
2, 26872, Note_off_c, 0, 60, 64
2, 26880, Note_on_c, 0, 69, 66
2, 26880, Note_on_c, 0, 60, 66
2, 26880, Note_on_c, 0, 65, 66
2, 26904, Note_off_c, 0, 69, 64
2, 26904, Note_off_c, 0, 60, 64
2, 26904, Note_off_c, 0, 65, 64
2, 26912, Note_on_c, 0, 69, 66
2, 26912, Note_on_c, 0, 60, 66
2, 26912, Note_on_c, 0, 65, 66
2, 26936, Note_off_c, 0, 69, 64
2, 26936, Note_off_c, 0, 60, 64
2, 26936, Note_off_c, 0, 65, 64
2, 26944, Note_on_c, 0, 60, 66
2, 26944, Note_on_c, 0, 69, 66
2, 26944, Note_on_c, 0, 65, 66
2, 26968, Note_off_c, 0, 60, 64
2, 26968, Note_off_c, 0, 69, 64
2, 26968, Note_off_c, 0, 65, 64
2, 26976, Note_on_c, 0, 83, 94
2, 27000, Note_off_c, 0, 83, 64
2, 27008, Note_on_c, 0, 84, 94
2, 27008, Note_on_c, 0, 69, 94
2, 27008, Note_on_c, 0, 65, 94
2, 27008, Note_on_c, 0, 60, 94
2, 27032, Note_off_c, 0, 84, 64
2, 27032, Note_off_c, 0, 69, 64
2, 27032, Note_off_c, 0, 65, 64
2, 27032, Note_off_c, 0, 60, 64
2, 27040, Note_on_c, 0, 69, 96
2, 27040, Note_on_c, 0, 65, 97
2, 27040, Note_on_c, 0, 60, 94
2, 27064, Note_off_c, 0, 69, 64
2, 27064, Note_off_c, 0, 65, 64
2, 27064, Note_off_c, 0, 60, 64
2, 27072, Note_on_c, 0, 67, 94
2, 27072, Note_on_c, 0, 65, 94
2, 27096, Note_off_c, 0, 67, 64
2, 27096, Note_off_c, 0, 65, 64
2, 27104, Note_on_c, 0, 65, 94
2, 27104, Note_on_c, 0, 67, 94
2, 27128, Note_off_c, 0, 65, 64
2, 27128, Note_off_c, 0, 67, 64
2, 27136, Note_on_c, 0, 65, 94
2, 27136, Note_on_c, 0, 67, 94
2, 27158, Note_on_c, 0, 77, 94
2, 27158, Note_on_c, 0, 79, 94
2, 27160, Note_off_c, 0, 65, 64
2, 27160, Note_off_c, 0, 67, 64
2, 27162, Note_off_c, 0, 77, 64
2, 27162, Note_off_c, 0, 79, 64
2, 27162, Note_on_c, 0, 81, 94
2, 27164, Note_off_c, 0, 81, 64
2, 27168, Note_on_c, 0, 65, 94
2, 27168, Note_on_c, 0, 60, 94
2, 27168, Note_on_c, 0, 67, 94
2, 27174, Note_on_c, 0, 79, 94
2, 27182, Note_off_c, 0, 79, 64
2, 27186, Note_on_c, 0, 81, 94
2, 27192, Note_off_c, 0, 65, 64
2, 27192, Note_off_c, 0, 60, 64
2, 27192, Note_off_c, 0, 67, 64
2, 27194, Note_off_c, 0, 81, 64
2, 27198, Note_on_c, 0, 79, 94
2, 27200, Note_on_c, 0, 60, 94
2, 27200, Note_on_c, 0, 65, 94
2, 27200, Note_on_c, 0, 67, 94
2, 27206, Note_off_c, 0, 79, 64
2, 27210, Note_on_c, 0, 81, 94
2, 27218, Note_off_c, 0, 81, 64
2, 27222, Note_on_c, 0, 79, 94
2, 27224, Note_off_c, 0, 60, 64
2, 27224, Note_off_c, 0, 65, 64
2, 27224, Note_off_c, 0, 67, 64
2, 27230, Note_off_c, 0, 79, 64
2, 27232, Note_on_c, 0, 65, 94
2, 27232, Note_on_c, 0, 60, 94
2, 27232, Note_on_c, 0, 67, 94
2, 27234, Note_on_c, 0, 81, 94
2, 27242, Note_off_c, 0, 81, 64
2, 27246, Note_on_c, 0, 79, 94
2, 27254, Note_off_c, 0, 79, 64
2, 27256, Note_off_c, 0, 65, 64
2, 27256, Note_off_c, 0, 60, 64
2, 27256, Note_off_c, 0, 67, 64
2, 27258, Note_on_c, 0, 81, 94
2, 27264, Note_on_c, 0, 70, 94
2, 27264, Note_on_c, 0, 60, 94
2, 27264, Note_on_c, 0, 64, 94
2, 27266, Note_off_c, 0, 81, 64
2, 27270, Note_on_c, 0, 79, 94
2, 27278, Note_off_c, 0, 79, 64
2, 27282, Note_on_c, 0, 81, 94
2, 27288, Note_off_c, 0, 70, 64
2, 27288, Note_off_c, 0, 60, 64
2, 27288, Note_off_c, 0, 64, 64
2, 27290, Note_off_c, 0, 81, 64
2, 27294, Note_on_c, 0, 79, 94
2, 27296, Note_on_c, 0, 70, 94
2, 27296, Note_on_c, 0, 60, 94
2, 27296, Note_on_c, 0, 64, 94
2, 27302, Note_off_c, 0, 79, 64
2, 27306, Note_on_c, 0, 77, 94
2, 27320, Note_off_c, 0, 70, 64
2, 27320, Note_off_c, 0, 60, 64
2, 27320, Note_off_c, 0, 64, 64
2, 27324, Note_off_c, 0, 77, 64
2, 27328, Note_on_c, 0, 60, 94
2, 27328, Note_on_c, 0, 70, 94
2, 27328, Note_on_c, 0, 64, 94
2, 27330, Note_on_c, 0, 79, 94
2, 27348, Note_off_c, 0, 79, 64
2, 27352, Note_off_c, 0, 60, 64
2, 27352, Note_off_c, 0, 70, 64
2, 27352, Note_off_c, 0, 64, 64
2, 27360, Note_on_c, 0, 69, 96
2, 27360, Note_on_c, 0, 77, 94
2, 27360, Note_on_c, 0, 65, 94
2, 27384, Note_off_c, 0, 69, 64
2, 27384, Note_off_c, 0, 65, 64
2, 27392, Note_on_c, 0, 60, 94
2, 27416, Note_off_c, 0, 60, 64
2, 27436, Note_off_c, 0, 77, 64
2, 27488, Note_on_c, 0, 64, 66
2, 27512, Note_off_c, 0, 64, 64
2, 27520, Note_on_c, 0, 65, 66
2, 27544, Note_off_c, 0, 65, 64
2, 27552, Note_on_c, 0, 67, 66
2, 27576, Note_off_c, 0, 67, 64
2, 27584, Note_on_c, 0, 65, 66
2, 27608, Note_off_c, 0, 65, 64
2, 27616, Note_on_c, 0, 70, 66
2, 27616, Note_on_c, 0, 67, 66
2, 27640, Note_off_c, 0, 70, 64
2, 27640, Note_off_c, 0, 67, 64
2, 27648, Note_on_c, 0, 69, 94
2, 27648, Note_on_c, 0, 65, 96
2, 27672, Note_off_c, 0, 69, 64
2, 27672, Note_off_c, 0, 65, 64
2, 27680, Note_on_c, 0, 67, 95
2, 27680, Note_on_c, 0, 64, 94
2, 27704, Note_off_c, 0, 67, 64
2, 27704, Note_off_c, 0, 64, 64
2, 27712, Note_on_c, 0, 63, 93
2, 27712, Note_on_c, 0, 66, 95
2, 27736, Note_off_c, 0, 63, 64
2, 27736, Note_off_c, 0, 66, 64
2, 27744, Note_on_c, 0, 64, 66
2, 27744, Note_on_c, 0, 67, 66
2, 27768, Note_off_c, 0, 64, 64
2, 27768, Note_off_c, 0, 67, 64
2, 27776, Note_on_c, 0, 66, 66
2, 27800, Note_off_c, 0, 66, 64
2, 27808, Note_on_c, 0, 67, 66
2, 27832, Note_off_c, 0, 67, 64
2, 27840, Note_on_c, 0, 69, 66
2, 27864, Note_off_c, 0, 69, 64
2, 27872, Note_on_c, 0, 67, 66
2, 27896, Note_off_c, 0, 67, 64
2, 27904, Note_on_c, 0, 72, 66
2, 27904, Note_on_c, 0, 69, 66
2, 27928, Note_off_c, 0, 72, 64
2, 27928, Note_off_c, 0, 69, 64
2, 27936, Note_on_c, 0, 70, 94
2, 27936, Note_on_c, 0, 67, 94
2, 27960, Note_off_c, 0, 70, 64
2, 27960, Note_off_c, 0, 67, 64
2, 27968, Note_on_c, 0, 69, 94
2, 27968, Note_on_c, 0, 65, 94
2, 27992, Note_off_c, 0, 69, 64
2, 27992, Note_off_c, 0, 65, 64
2, 28000, Note_on_c, 0, 68, 94
2, 28000, Note_on_c, 0, 64, 94
2, 28024, Note_off_c, 0, 68, 64
2, 28024, Note_off_c, 0, 64, 64
2, 28032, Note_on_c, 0, 69, 94
2, 28032, Note_on_c, 0, 65, 94
2, 28064, Note_on_c, 0, 63, 94
2, 28088, Note_off_c, 0, 63, 64
2, 28096, Note_on_c, 0, 62, 94
2, 28108, Note_off_c, 0, 69, 64
2, 28108, Note_off_c, 0, 65, 64
2, 28120, Note_off_c, 0, 62, 64
2, 28128, Note_on_c, 0, 84, 94
2, 28128, Note_on_c, 0, 75, 94
2, 28128, Note_on_c, 0, 60, 94
2, 28152, Note_off_c, 0, 60, 64
2, 28256, Note_on_c, 0, 74, 91
2, 28256, Note_on_c, 0, 82, 96
2, 28280, Note_off_c, 0, 74, 64
2, 28280, Note_off_c, 0, 82, 64
2, 28288, Note_on_c, 0, 72, 96
2, 28288, Note_on_c, 0, 81, 93
2, 28320, Note_on_c, 0, 60, 66
2, 28344, Note_off_c, 0, 75, 64
2, 28344, Note_off_c, 0, 84, 64
2, 28344, Note_off_c, 0, 72, 64
2, 28344, Note_off_c, 0, 81, 64
2, 28352, Note_on_c, 0, 70, 66
2, 28352, Note_on_c, 0, 79, 66
2, 28376, Note_off_c, 0, 70, 64
2, 28376, Note_off_c, 0, 79, 64
2, 28384, Note_on_c, 0, 77, 66
2, 28384, Note_on_c, 0, 69, 66
2, 28396, Note_off_c, 0, 60, 64
2, 28440, Note_off_c, 0, 77, 64
2, 28440, Note_off_c, 0, 69, 64
2, 28448, Note_on_c, 0, 70, 66
2, 28448, Note_on_c, 0, 79, 66
2, 28472, Note_off_c, 0, 70, 64
2, 28472, Note_off_c, 0, 79, 64
2, 28480, Note_on_c, 0, 67, 66
2, 28480, Note_on_c, 0, 76, 66
2, 28504, Note_off_c, 0, 67, 64
2, 28504, Note_off_c, 0, 76, 64
2, 28512, Note_on_c, 0, 77, 94
2, 28536, Note_off_c, 0, 77, 64
2, 28544, Note_on_c, 0, 81, 94
2, 28568, Note_off_c, 0, 81, 64
2, 28576, Note_on_c, 0, 84, 94
2, 28600, Note_off_c, 0, 84, 64
2, 28608, Note_on_c, 0, 84, 94
2, 28616, Note_off_c, 0, 84, 64
2, 28620, Note_on_c, 0, 86, 94
2, 28628, Note_off_c, 0, 86, 64
2, 28632, Note_on_c, 0, 84, 94
2, 28640, Note_off_c, 0, 84, 64
2, 28640, Note_on_c, 0, 65, 94
2, 28644, Note_on_c, 0, 86, 94
2, 28652, Note_off_c, 0, 86, 64
2, 28656, Note_on_c, 0, 84, 94
2, 28664, Note_off_c, 0, 65, 64
2, 28664, Note_off_c, 0, 84, 64
2, 28668, Note_on_c, 0, 86, 94
2, 28672, Note_on_c, 0, 69, 94
2, 28676, Note_off_c, 0, 86, 64
2, 28680, Note_on_c, 0, 83, 94
2, 28688, Note_off_c, 0, 83, 64
2, 28692, Note_on_c, 0, 84, 94
2, 28696, Note_off_c, 0, 69, 64
2, 28700, Note_off_c, 0, 84, 64
2, 28704, Note_on_c, 0, 60, 94
2, 28704, Note_on_c, 0, 70, 94
2, 28728, Note_off_c, 0, 60, 64
2, 28728, Note_off_c, 0, 70, 64
2, 28736, Note_on_c, 0, 82, 94
2, 28736, Note_on_c, 0, 67, 94
2, 28760, Note_off_c, 0, 82, 64
2, 28760, Note_off_c, 0, 67, 64
2, 28768, Note_on_c, 0, 79, 94
2, 28768, Note_on_c, 0, 64, 94
2, 28792, Note_off_c, 0, 79, 64
2, 28792, Note_off_c, 0, 64, 64
2, 28800, Note_on_c, 0, 77, 94
2, 28800, Note_on_c, 0, 65, 94
2, 28824, Note_off_c, 0, 77, 64
2, 28832, Note_on_c, 0, 81, 94
2, 28856, Note_off_c, 0, 81, 64
2, 28864, Note_on_c, 0, 72, 94
2, 28876, Note_off_c, 0, 65, 64
2, 28888, Note_off_c, 0, 72, 64
2, 28896, Note_on_c, 0, 72, 94
2, 28904, Note_off_c, 0, 72, 64
2, 28908, Note_on_c, 0, 74, 94
2, 28916, Note_off_c, 0, 74, 64
2, 28920, Note_on_c, 0, 72, 94
2, 28928, Note_off_c, 0, 72, 64
2, 28932, Note_on_c, 0, 74, 94
2, 28940, Note_off_c, 0, 74, 64
2, 28944, Note_on_c, 0, 72, 94
2, 28952, Note_off_c, 0, 72, 64
2, 28956, Note_on_c, 0, 74, 94
2, 28964, Note_off_c, 0, 74, 64
2, 28968, Note_on_c, 0, 71, 94
2, 28976, Note_off_c, 0, 71, 64
2, 28980, Note_on_c, 0, 72, 94
2, 28988, Note_off_c, 0, 72, 64
2, 29024, Note_on_c, 0, 70, 63
2, 29048, Note_off_c, 0, 70, 64
2, 29056, Note_on_c, 0, 67, 66
2, 29056, Note_on_c, 0, 64, 64
2, 29080, Note_off_c, 0, 67, 64
2, 29080, Note_off_c, 0, 64, 64
2, 29088, Note_on_c, 0, 64, 66
2, 29088, Note_on_c, 0, 67, 66
2, 29240, Note_off_c, 0, 64, 64
2, 29240, Note_off_c, 0, 67, 64
2, 29280, Note_on_c, 0, 60, 66
2, 29280, Note_on_c, 0, 65, 66
2, 29318, Note_off_c, 0, 60, 64
2, 29318, Note_off_c, 0, 65, 64
2, 29318, End_track
3, 0, Start_track
3, 0, Control_c, 1, 0, 0
3, 0, Time_signature, 3, 2, 96, 8
3, 0, Tempo, 750000
3, 0, Note_on_c, 1, 53, 81
3, 24, Note_off_c, 1, 53, 64
3, 32, Note_on_c, 1, 57, 81
3, 56, Note_off_c, 1, 57, 64
3, 96, Note_on_c, 1, 55, 81
3, 120, Note_off_c, 1, 55, 64
3, 128, Note_on_c, 1, 58, 81
3, 152, Note_off_c, 1, 58, 64
3, 192, Note_on_c, 1, 53, 81
3, 216, Note_off_c, 1, 53, 64
3, 224, Note_on_c, 1, 57, 81
3, 248, Note_off_c, 1, 57, 64
3, 288, Note_on_c, 1, 52, 81
3, 312, Note_off_c, 1, 52, 64
3, 320, Note_on_c, 1, 55, 81
3, 344, Note_off_c, 1, 55, 64
3, 384, Note_on_c, 1, 48, 81
3, 408, Note_off_c, 1, 48, 64
3, 416, Note_on_c, 1, 52, 81
3, 440, Note_off_c, 1, 52, 64
3, 448, Note_on_c, 1, 55, 81
3, 472, Note_off_c, 1, 55, 64
3, 480, Note_on_c, 1, 53, 57
3, 504, Note_off_c, 1, 53, 64
3, 512, Note_on_c, 1, 57, 57
3, 536, Note_off_c, 1, 57, 64
3, 576, Note_on_c, 1, 46, 69
3, 600, Note_off_c, 1, 46, 64
3, 608, Note_on_c, 1, 50, 69
3, 632, Note_off_c, 1, 50, 64
3, 640, Note_on_c, 1, 55, 69
3, 664, Note_off_c, 1, 55, 64
3, 672, Note_on_c, 1, 48, 69
3, 696, Note_off_c, 1, 48, 64
3, 704, Note_on_c, 1, 53, 69
3, 728, Note_off_c, 1, 53, 64
3, 736, Note_on_c, 1, 57, 69
3, 760, Note_off_c, 1, 57, 64
3, 768, Note_on_c, 1, 48, 69
3, 792, Note_off_c, 1, 48, 64
3, 800, Note_on_c, 1, 55, 69
3, 824, Note_off_c, 1, 55, 64
3, 832, Note_on_c, 1, 58, 69
3, 856, Note_off_c, 1, 58, 64
3, 864, Note_on_c, 1, 50, 45
3, 888, Note_off_c, 1, 50, 64
3, 896, Note_on_c, 1, 53, 45
3, 920, Note_off_c, 1, 53, 64
3, 928, Note_on_c, 1, 58, 45
3, 952, Note_off_c, 1, 58, 64
3, 960, Note_on_c, 1, 52, 45
3, 984, Note_off_c, 1, 52, 64
3, 992, Note_on_c, 1, 55, 45
3, 1016, Note_off_c, 1, 55, 64
3, 1056, Note_on_c, 1, 53, 45
3, 1080, Note_off_c, 1, 53, 64
3, 1088, Note_on_c, 1, 57, 45
3, 1112, Note_off_c, 1, 57, 64
3, 1152, Note_on_c, 1, 46, 45
3, 1176, Note_off_c, 1, 46, 64
3, 1184, Note_on_c, 1, 50, 45
3, 1208, Note_off_c, 1, 50, 64
3, 1216, Note_on_c, 1, 55, 45
3, 1240, Note_off_c, 1, 55, 64
3, 1248, Note_on_c, 1, 48, 45
3, 1272, Note_off_c, 1, 48, 64
3, 1280, Note_on_c, 1, 53, 45
3, 1304, Note_off_c, 1, 53, 64
3, 1312, Note_on_c, 1, 57, 45
3, 1336, Note_off_c, 1, 57, 64
3, 1344, Note_on_c, 1, 48, 45
3, 1368, Note_off_c, 1, 48, 64
3, 1376, Note_on_c, 1, 55, 45
3, 1400, Note_off_c, 1, 55, 64
3, 1408, Note_on_c, 1, 58, 45
3, 1432, Note_off_c, 1, 58, 64
3, 1440, Note_on_c, 1, 57, 83
3, 1464, Note_off_c, 1, 57, 64
3, 1504, Note_on_c, 1, 57, 83
3, 1528, Note_off_c, 1, 57, 64
3, 1536, Note_on_c, 1, 53, 45
3, 1612, Note_off_c, 1, 53, 64
3, 1728, Note_on_c, 1, 48, 83
3, 1728, Note_on_c, 1, 36, 83
3, 1804, Note_off_c, 1, 48, 64
3, 1804, Note_off_c, 1, 36, 64
3, 2016, Note_on_c, 1, 41, 81
3, 2016, Note_on_c, 1, 53, 81
3, 2092, Note_off_c, 1, 41, 64
3, 2092, Note_off_c, 1, 53, 64
3, 2144, Note_on_c, 1, 51, 81
3, 2168, Note_off_c, 1, 51, 64
3, 2176, Note_on_c, 1, 50, 81
3, 2200, Note_off_c, 1, 50, 64
3, 2208, Note_on_c, 1, 48, 81
3, 2232, Note_off_c, 1, 48, 64
3, 2240, Note_on_c, 1, 58, 81
3, 2240, Note_on_c, 1, 46, 81
3, 2264, Note_off_c, 1, 58, 64
3, 2264, Note_off_c, 1, 46, 64
3, 2272, Note_on_c, 1, 57, 81
3, 2272, Note_on_c, 1, 45, 81
3, 2296, Note_off_c, 1, 57, 64
3, 2296, Note_off_c, 1, 45, 64
3, 2304, Note_on_c, 1, 46, 81
3, 2304, Note_on_c, 1, 58, 81
3, 2380, Note_off_c, 1, 46, 64
3, 2380, Note_off_c, 1, 58, 64
3, 2400, Note_on_c, 1, 46, 81
3, 2476, Note_off_c, 1, 46, 64
3, 2496, Note_on_c, 1, 47, 81
3, 2572, Note_off_c, 1, 47, 64
3, 2592, Note_on_c, 1, 48, 81
3, 2668, Note_off_c, 1, 48, 64
3, 3488, Note_on_c, 1, 59, 45
3, 3512, Note_off_c, 1, 59, 64
3, 3584, Note_on_c, 1, 59, 45
3, 3608, Note_off_c, 1, 59, 64
3, 3680, Note_on_c, 1, 59, 81
3, 3704, Note_off_c, 1, 59, 64
3, 4032, Note_on_c, 1, 57, 81
3, 4032, Note_on_c, 1, 54, 81
3, 4108, Note_off_c, 1, 57, 64
3, 4108, Note_off_c, 1, 54, 64
3, 4128, Note_on_c, 1, 58, 45
3, 4128, Note_on_c, 1, 55, 45
3, 4204, Note_off_c, 1, 58, 64
3, 4204, Note_off_c, 1, 55, 64
3, 4272, Note_on_c, 1, 58, 81
3, 4272, Note_on_c, 1, 55, 81
3, 4272, Note_on_c, 1, 53, 81
3, 4310, Note_off_c, 1, 58, 64
3, 4310, Note_off_c, 1, 55, 64
3, 4310, Note_off_c, 1, 53, 64
3, 4320, Note_on_c, 1, 52, 81
3, 4358, Note_off_c, 1, 52, 64
3, 4368, Note_on_c, 1, 53, 81
3, 4406, Note_off_c, 1, 53, 64
3, 4416, Note_on_c, 1, 55, 81
3, 4440, Note_off_c, 1, 55, 64
3, 4512, Note_on_c, 1, 55, 81
3, 4536, Note_off_c, 1, 55, 64
3, 4640, Note_on_c, 1, 52, 45
3, 4664, Note_off_c, 1, 52, 64
3, 4672, Note_on_c, 1, 53, 45
3, 4696, Note_off_c, 1, 53, 64
3, 4704, Note_on_c, 1, 54, 45
3, 4728, Note_off_c, 1, 54, 64
3, 4736, Note_on_c, 1, 55, 45
3, 4760, Note_off_c, 1, 55, 64
3, 4768, Note_on_c, 1, 56, 45
3, 4792, Note_off_c, 1, 56, 64
3, 4800, Note_on_c, 1, 57, 45
3, 4824, Note_off_c, 1, 57, 64
3, 4832, Note_on_c, 1, 58, 45
3, 4856, Note_off_c, 1, 58, 64
3, 4864, Note_on_c, 1, 59, 45
3, 4888, Note_off_c, 1, 59, 64
3, 4896, Note_on_c, 1, 42, 81
3, 4896, Note_on_c, 1, 54, 81
3, 4972, Note_off_c, 1, 42, 64
3, 4972, Note_off_c, 1, 54, 64
3, 4992, Note_on_c, 1, 55, 57
3, 4992, Note_on_c, 1, 43, 57
3, 5068, Note_off_c, 1, 55, 64
3, 5068, Note_off_c, 1, 43, 64
3, 5088, Note_on_c, 1, 59, 81
3, 5088, Note_on_c, 1, 47, 81
3, 5164, Note_off_c, 1, 59, 64
3, 5164, Note_off_c, 1, 47, 64
3, 5184, Note_on_c, 1, 48, 45
3, 5260, Note_off_c, 1, 48, 64
3, 5280, Note_on_c, 1, 56, 81
3, 5280, Note_on_c, 1, 44, 81
3, 5356, Note_off_c, 1, 56, 64
3, 5356, Note_off_c, 1, 44, 64
3, 5376, Note_on_c, 1, 57, 45
3, 5376, Note_on_c, 1, 45, 45
3, 5452, Note_off_c, 1, 57, 64
3, 5452, Note_off_c, 1, 45, 64
3, 5472, Note_on_c, 1, 53, 45
3, 5548, Note_off_c, 1, 53, 64
3, 5568, Note_on_c, 1, 55, 45
3, 5644, Note_off_c, 1, 55, 64
3, 5792, Note_on_c, 1, 47, 81
3, 5792, Note_on_c, 1, 35, 81
3, 5816, Note_off_c, 1, 47, 64
3, 5816, Note_off_c, 1, 35, 64
3, 5824, Note_on_c, 1, 48, 81
3, 5824, Note_on_c, 1, 36, 81
3, 5848, Note_off_c, 1, 48, 64
3, 5848, Note_off_c, 1, 36, 64
3, 5888, Note_on_c, 1, 49, 81
3, 5888, Note_on_c, 1, 37, 81
3, 5912, Note_off_c, 1, 49, 64
3, 5912, Note_off_c, 1, 37, 64
3, 5920, Note_on_c, 1, 38, 81
3, 5920, Note_on_c, 1, 50, 81
3, 5944, Note_off_c, 1, 38, 64
3, 5944, Note_off_c, 1, 50, 64
3, 5984, Note_on_c, 1, 51, 81
3, 5984, Note_on_c, 1, 39, 81
3, 6008, Note_off_c, 1, 51, 64
3, 6008, Note_off_c, 1, 39, 64
3, 6016, Note_on_c, 1, 52, 81
3, 6016, Note_on_c, 1, 40, 81
3, 6040, Note_off_c, 1, 52, 64
3, 6040, Note_off_c, 1, 40, 64
3, 6080, Note_on_c, 1, 53, 57
3, 6080, Note_on_c, 1, 57, 57
3, 6104, Note_off_c, 1, 53, 64
3, 6104, Note_off_c, 1, 57, 64
3, 6112, Note_on_c, 1, 57, 57
3, 6112, Note_on_c, 1, 53, 57
3, 6136, Note_off_c, 1, 57, 64
3, 6136, Note_off_c, 1, 53, 64
3, 6144, Note_on_c, 1, 53, 57
3, 6144, Note_on_c, 1, 57, 57
3, 6168, Note_off_c, 1, 53, 64
3, 6168, Note_off_c, 1, 57, 64
3, 6176, Note_on_c, 1, 57, 57
3, 6176, Note_on_c, 1, 53, 57
3, 6200, Note_off_c, 1, 57, 64
3, 6200, Note_off_c, 1, 53, 64
3, 6208, Note_on_c, 1, 57, 57
3, 6208, Note_on_c, 1, 53, 57
3, 6232, Note_off_c, 1, 57, 64
3, 6232, Note_off_c, 1, 53, 64
3, 6240, Note_on_c, 1, 57, 57
3, 6240, Note_on_c, 1, 53, 57
3, 6264, Note_off_c, 1, 57, 64
3, 6264, Note_off_c, 1, 53, 64
3, 6272, Note_on_c, 1, 57, 57
3, 6272, Note_on_c, 1, 53, 57
3, 6296, Note_off_c, 1, 57, 64
3, 6296, Note_off_c, 1, 53, 64
3, 6304, Note_on_c, 1, 57, 57
3, 6304, Note_on_c, 1, 53, 57
3, 6328, Note_off_c, 1, 57, 64
3, 6328, Note_off_c, 1, 53, 64
3, 6368, Note_on_c, 1, 57, 81
3, 6368, Note_on_c, 1, 54, 81
3, 6392, Note_off_c, 1, 57, 64
3, 6392, Note_off_c, 1, 54, 64
3, 6400, Note_on_c, 1, 57, 81
3, 6400, Note_on_c, 1, 54, 81
3, 6424, Note_off_c, 1, 57, 64
3, 6424, Note_off_c, 1, 54, 64
3, 6432, Note_on_c, 1, 54, 81
3, 6432, Note_on_c, 1, 57, 81
3, 6456, Note_off_c, 1, 54, 64
3, 6456, Note_off_c, 1, 57, 64
3, 6464, Note_on_c, 1, 57, 81
3, 6464, Note_on_c, 1, 54, 81
3, 6488, Note_off_c, 1, 57, 64
3, 6488, Note_off_c, 1, 54, 64
3, 6496, Note_on_c, 1, 57, 81
3, 6496, Note_on_c, 1, 54, 81
3, 6520, Note_off_c, 1, 57, 64
3, 6520, Note_off_c, 1, 54, 64
3, 6528, Note_on_c, 1, 57, 81
3, 6528, Note_on_c, 1, 54, 81
3, 6552, Note_off_c, 1, 57, 64
3, 6552, Note_off_c, 1, 54, 64
3, 6560, Note_on_c, 1, 57, 81
3, 6560, Note_on_c, 1, 54, 81
3, 6584, Note_off_c, 1, 57, 64
3, 6584, Note_off_c, 1, 54, 64
3, 6592, Note_on_c, 1, 57, 81
3, 6592, Note_on_c, 1, 54, 81
3, 6616, Note_off_c, 1, 57, 64
3, 6616, Note_off_c, 1, 54, 64
3, 6656, Note_on_c, 1, 55, 45
3, 6680, Note_off_c, 1, 55, 64
3, 6688, Note_on_c, 1, 55, 45
3, 6712, Note_off_c, 1, 55, 64
3, 6720, Note_on_c, 1, 55, 45
3, 6744, Note_off_c, 1, 55, 64
3, 6752, Note_on_c, 1, 55, 45
3, 6776, Note_off_c, 1, 55, 64
3, 6784, Note_on_c, 1, 55, 45
3, 6808, Note_off_c, 1, 55, 64
3, 6816, Note_on_c, 1, 55, 45
3, 6840, Note_off_c, 1, 55, 64
3, 6848, Note_on_c, 1, 55, 45
3, 6872, Note_off_c, 1, 55, 64
3, 6880, Note_on_c, 1, 55, 45
3, 6904, Note_off_c, 1, 55, 64
3, 6912, Note_on_c, 1, 54, 69
3, 6912, Note_on_c, 1, 57, 69
3, 6936, Note_off_c, 1, 54, 64
3, 6936, Note_off_c, 1, 57, 64
3, 6944, Note_on_c, 1, 57, 69
3, 6944, Note_on_c, 1, 54, 69
3, 6968, Note_off_c, 1, 57, 64
3, 6968, Note_off_c, 1, 54, 64
3, 6976, Note_on_c, 1, 57, 69
3, 6976, Note_on_c, 1, 54, 69
3, 7000, Note_off_c, 1, 57, 64
3, 7000, Note_off_c, 1, 54, 64
3, 7008, Note_on_c, 1, 55, 69
3, 7032, Note_off_c, 1, 55, 64
3, 7040, Note_on_c, 1, 55, 69
3, 7064, Note_off_c, 1, 55, 64
3, 7072, Note_on_c, 1, 55, 69
3, 7096, Note_off_c, 1, 55, 64
3, 7104, Note_on_c, 1, 55, 69
3, 7104, Note_on_c, 1, 59, 69
3, 7128, Note_off_c, 1, 55, 64
3, 7128, Note_off_c, 1, 59, 64
3, 7136, Note_on_c, 1, 55, 69
3, 7136, Note_on_c, 1, 59, 69
3, 7160, Note_off_c, 1, 55, 64
3, 7160, Note_off_c, 1, 59, 64
3, 7168, Note_on_c, 1, 59, 69
3, 7168, Note_on_c, 1, 55, 69
3, 7192, Note_off_c, 1, 59, 64
3, 7192, Note_off_c, 1, 55, 64
3, 7200, Note_on_c, 1, 48, 69
3, 7276, Note_off_c, 1, 48, 64
3, 7392, Note_on_c, 1, 55, 69
3, 7416, Note_off_c, 1, 55, 64
3, 7456, Note_on_c, 1, 59, 69
3, 7480, Note_off_c, 1, 59, 64
3, 7488, Note_on_c, 1, 48, 69
3, 7564, Note_off_c, 1, 48, 64
3, 7616, Note_on_c, 1, 52, 69
3, 7640, Note_off_c, 1, 52, 64
3, 7648, Note_on_c, 1, 48, 69
3, 7672, Note_off_c, 1, 48, 64
3, 7680, Note_on_c, 1, 43, 81
3, 7744, Note_on_c, 1, 59, 81
3, 7744, Note_on_c, 1, 53, 81
3, 7756, Note_off_c, 1, 43, 64
3, 7768, Note_off_c, 1, 59, 64
3, 7768, Note_off_c, 1, 53, 64
3, 7776, Note_on_c, 1, 59, 45
3, 7776, Note_on_c, 1, 53, 45
3, 7776, Note_on_c, 1, 36, 45
3, 7928, Note_off_c, 1, 59, 64
3, 7928, Note_off_c, 1, 53, 64
3, 7968, Note_on_c, 1, 55, 45
3, 7968, Note_on_c, 1, 52, 45
3, 8006, Note_off_c, 1, 36, 64
3, 8006, Note_off_c, 1, 55, 64
3, 8006, Note_off_c, 1, 52, 64
3, 8064, Note_on_c, 1, 53, 81
3, 8088, Note_off_c, 1, 53, 64
3, 8096, Note_on_c, 1, 57, 81
3, 8120, Note_off_c, 1, 57, 64
3, 8160, Note_on_c, 1, 55, 81
3, 8184, Note_off_c, 1, 55, 64
3, 8192, Note_on_c, 1, 58, 81
3, 8216, Note_off_c, 1, 58, 64
3, 8256, Note_on_c, 1, 53, 81
3, 8280, Note_off_c, 1, 53, 64
3, 8288, Note_on_c, 1, 57, 81
3, 8312, Note_off_c, 1, 57, 64
3, 8352, Note_on_c, 1, 52, 81
3, 8376, Note_off_c, 1, 52, 64
3, 8384, Note_on_c, 1, 55, 81
3, 8408, Note_off_c, 1, 55, 64
3, 8448, Note_on_c, 1, 48, 81
3, 8472, Note_off_c, 1, 48, 64
3, 8480, Note_on_c, 1, 52, 81
3, 8504, Note_off_c, 1, 52, 64
3, 8512, Note_on_c, 1, 55, 81
3, 8536, Note_off_c, 1, 55, 64
3, 8544, Note_on_c, 1, 53, 57
3, 8568, Note_off_c, 1, 53, 64
3, 8576, Note_on_c, 1, 57, 57
3, 8600, Note_off_c, 1, 57, 64
3, 8640, Note_on_c, 1, 46, 69
3, 8664, Note_off_c, 1, 46, 64
3, 8672, Note_on_c, 1, 50, 69
3, 8696, Note_off_c, 1, 50, 64
3, 8704, Note_on_c, 1, 55, 69
3, 8728, Note_off_c, 1, 55, 64
3, 8736, Note_on_c, 1, 48, 69
3, 8760, Note_off_c, 1, 48, 64
3, 8768, Note_on_c, 1, 53, 69
3, 8792, Note_off_c, 1, 53, 64
3, 8800, Note_on_c, 1, 57, 69
3, 8824, Note_off_c, 1, 57, 64
3, 8832, Note_on_c, 1, 48, 69
3, 8856, Note_off_c, 1, 48, 64
3, 8864, Note_on_c, 1, 55, 69
3, 8888, Note_off_c, 1, 55, 64
3, 8896, Note_on_c, 1, 58, 69
3, 8920, Note_off_c, 1, 58, 64
3, 8928, Note_on_c, 1, 50, 45
3, 8952, Note_off_c, 1, 50, 64
3, 8960, Note_on_c, 1, 53, 45
3, 8984, Note_off_c, 1, 53, 64
3, 8992, Note_on_c, 1, 58, 45
3, 9016, Note_off_c, 1, 58, 64
3, 9024, Note_on_c, 1, 52, 45
3, 9048, Note_off_c, 1, 52, 64
3, 9056, Note_on_c, 1, 55, 45
3, 9080, Note_off_c, 1, 55, 64
3, 9120, Note_on_c, 1, 53, 45
3, 9144, Note_off_c, 1, 53, 64
3, 9152, Note_on_c, 1, 57, 45
3, 9176, Note_off_c, 1, 57, 64
3, 9216, Note_on_c, 1, 46, 45
3, 9240, Note_off_c, 1, 46, 64
3, 9248, Note_on_c, 1, 50, 45
3, 9272, Note_off_c, 1, 50, 64
3, 9280, Note_on_c, 1, 55, 45
3, 9304, Note_off_c, 1, 55, 64
3, 9312, Note_on_c, 1, 48, 45
3, 9336, Note_off_c, 1, 48, 64
3, 9344, Note_on_c, 1, 53, 45
3, 9368, Note_off_c, 1, 53, 64
3, 9376, Note_on_c, 1, 57, 45
3, 9400, Note_off_c, 1, 57, 64
3, 9408, Note_on_c, 1, 48, 45
3, 9432, Note_off_c, 1, 48, 64
3, 9440, Note_on_c, 1, 55, 45
3, 9464, Note_off_c, 1, 55, 64
3, 9472, Note_on_c, 1, 58, 45
3, 9496, Note_off_c, 1, 58, 64
3, 9504, Note_on_c, 1, 57, 83
3, 9528, Note_off_c, 1, 57, 64
3, 9568, Note_on_c, 1, 57, 83
3, 9592, Note_off_c, 1, 57, 64
3, 9600, Note_on_c, 1, 53, 45
3, 9676, Note_off_c, 1, 53, 64
3, 9792, Note_on_c, 1, 48, 83
3, 9792, Note_on_c, 1, 36, 83
3, 9868, Note_off_c, 1, 48, 64
3, 9868, Note_off_c, 1, 36, 64
3, 10080, Note_on_c, 1, 41, 81
3, 10080, Note_on_c, 1, 53, 81
3, 10156, Note_off_c, 1, 41, 64
3, 10156, Note_off_c, 1, 53, 64
3, 10208, Note_on_c, 1, 51, 81
3, 10232, Note_off_c, 1, 51, 64
3, 10240, Note_on_c, 1, 50, 81
3, 10264, Note_off_c, 1, 50, 64
3, 10272, Note_on_c, 1, 48, 81
3, 10296, Note_off_c, 1, 48, 64
3, 10304, Note_on_c, 1, 58, 81
3, 10304, Note_on_c, 1, 46, 81
3, 10328, Note_off_c, 1, 58, 64
3, 10328, Note_off_c, 1, 46, 64
3, 10336, Note_on_c, 1, 57, 81
3, 10336, Note_on_c, 1, 45, 81
3, 10360, Note_off_c, 1, 57, 64
3, 10360, Note_off_c, 1, 45, 64
3, 10368, Note_on_c, 1, 46, 81
3, 10368, Note_on_c, 1, 58, 81
3, 10444, Note_off_c, 1, 46, 64
3, 10444, Note_off_c, 1, 58, 64
3, 10464, Note_on_c, 1, 46, 81
3, 10540, Note_off_c, 1, 46, 64
3, 10560, Note_on_c, 1, 47, 81
3, 10636, Note_off_c, 1, 47, 64
3, 10656, Note_on_c, 1, 48, 81
3, 10732, Note_off_c, 1, 48, 64
3, 11552, Note_on_c, 1, 59, 45
3, 11576, Note_off_c, 1, 59, 64
3, 11648, Note_on_c, 1, 59, 45
3, 11672, Note_off_c, 1, 59, 64
3, 11744, Note_on_c, 1, 59, 81
3, 11768, Note_off_c, 1, 59, 64
3, 12096, Note_on_c, 1, 57, 81
3, 12096, Note_on_c, 1, 54, 81
3, 12172, Note_off_c, 1, 57, 64
3, 12172, Note_off_c, 1, 54, 64
3, 12192, Note_on_c, 1, 58, 45
3, 12192, Note_on_c, 1, 55, 45
3, 12268, Note_off_c, 1, 58, 64
3, 12268, Note_off_c, 1, 55, 64
3, 12336, Note_on_c, 1, 58, 81
3, 12336, Note_on_c, 1, 55, 81
3, 12336, Note_on_c, 1, 53, 81
3, 12374, Note_off_c, 1, 58, 64
3, 12374, Note_off_c, 1, 55, 64
3, 12374, Note_off_c, 1, 53, 64
3, 12384, Note_on_c, 1, 52, 81
3, 12422, Note_off_c, 1, 52, 64
3, 12432, Note_on_c, 1, 53, 81
3, 12470, Note_off_c, 1, 53, 64
3, 12480, Note_on_c, 1, 55, 81
3, 12504, Note_off_c, 1, 55, 64
3, 12576, Note_on_c, 1, 55, 81
3, 12600, Note_off_c, 1, 55, 64
3, 12704, Note_on_c, 1, 52, 45
3, 12728, Note_off_c, 1, 52, 64
3, 12736, Note_on_c, 1, 53, 45
3, 12760, Note_off_c, 1, 53, 64
3, 12768, Note_on_c, 1, 54, 45
3, 12792, Note_off_c, 1, 54, 64
3, 12800, Note_on_c, 1, 55, 45
3, 12824, Note_off_c, 1, 55, 64
3, 12832, Note_on_c, 1, 56, 45
3, 12856, Note_off_c, 1, 56, 64
3, 12864, Note_on_c, 1, 57, 45
3, 12888, Note_off_c, 1, 57, 64
3, 12896, Note_on_c, 1, 58, 45
3, 12920, Note_off_c, 1, 58, 64
3, 12928, Note_on_c, 1, 59, 45
3, 12952, Note_off_c, 1, 59, 64
3, 12960, Note_on_c, 1, 42, 81
3, 12960, Note_on_c, 1, 54, 81
3, 13036, Note_off_c, 1, 42, 64
3, 13036, Note_off_c, 1, 54, 64
3, 13056, Note_on_c, 1, 55, 57
3, 13056, Note_on_c, 1, 43, 57
3, 13132, Note_off_c, 1, 55, 64
3, 13132, Note_off_c, 1, 43, 64
3, 13152, Note_on_c, 1, 59, 81
3, 13152, Note_on_c, 1, 47, 81
3, 13228, Note_off_c, 1, 59, 64
3, 13228, Note_off_c, 1, 47, 64
3, 13248, Note_on_c, 1, 48, 45
3, 13324, Note_off_c, 1, 48, 64
3, 13344, Note_on_c, 1, 56, 81
3, 13344, Note_on_c, 1, 44, 81
3, 13420, Note_off_c, 1, 56, 64
3, 13420, Note_off_c, 1, 44, 64
3, 13440, Note_on_c, 1, 57, 45
3, 13440, Note_on_c, 1, 45, 45
3, 13516, Note_off_c, 1, 57, 64
3, 13516, Note_off_c, 1, 45, 64
3, 13536, Note_on_c, 1, 53, 45
3, 13612, Note_off_c, 1, 53, 64
3, 13632, Note_on_c, 1, 55, 45
3, 13708, Note_off_c, 1, 55, 64
3, 13856, Note_on_c, 1, 47, 81
3, 13856, Note_on_c, 1, 35, 81
3, 13880, Note_off_c, 1, 47, 64
3, 13880, Note_off_c, 1, 35, 64
3, 13888, Note_on_c, 1, 48, 81
3, 13888, Note_on_c, 1, 36, 81
3, 13912, Note_off_c, 1, 48, 64
3, 13912, Note_off_c, 1, 36, 64
3, 13952, Note_on_c, 1, 49, 81
3, 13952, Note_on_c, 1, 37, 81
3, 13976, Note_off_c, 1, 49, 64
3, 13976, Note_off_c, 1, 37, 64
3, 13984, Note_on_c, 1, 38, 81
3, 13984, Note_on_c, 1, 50, 81
3, 14008, Note_off_c, 1, 38, 64
3, 14008, Note_off_c, 1, 50, 64
3, 14048, Note_on_c, 1, 51, 81
3, 14048, Note_on_c, 1, 39, 81
3, 14072, Note_off_c, 1, 51, 64
3, 14072, Note_off_c, 1, 39, 64
3, 14080, Note_on_c, 1, 52, 81
3, 14080, Note_on_c, 1, 40, 81
3, 14104, Note_off_c, 1, 52, 64
3, 14104, Note_off_c, 1, 40, 64
3, 14144, Note_on_c, 1, 53, 57
3, 14144, Note_on_c, 1, 57, 57
3, 14168, Note_off_c, 1, 53, 64
3, 14168, Note_off_c, 1, 57, 64
3, 14176, Note_on_c, 1, 57, 57
3, 14176, Note_on_c, 1, 53, 57
3, 14200, Note_off_c, 1, 57, 64
3, 14200, Note_off_c, 1, 53, 64
3, 14208, Note_on_c, 1, 53, 57
3, 14208, Note_on_c, 1, 57, 57
3, 14232, Note_off_c, 1, 53, 64
3, 14232, Note_off_c, 1, 57, 64
3, 14240, Note_on_c, 1, 57, 57
3, 14240, Note_on_c, 1, 53, 57
3, 14264, Note_off_c, 1, 57, 64
3, 14264, Note_off_c, 1, 53, 64
3, 14272, Note_on_c, 1, 57, 57
3, 14272, Note_on_c, 1, 53, 57
3, 14296, Note_off_c, 1, 57, 64
3, 14296, Note_off_c, 1, 53, 64
3, 14304, Note_on_c, 1, 57, 57
3, 14304, Note_on_c, 1, 53, 57
3, 14328, Note_off_c, 1, 57, 64
3, 14328, Note_off_c, 1, 53, 64
3, 14336, Note_on_c, 1, 57, 57
3, 14336, Note_on_c, 1, 53, 57
3, 14360, Note_off_c, 1, 57, 64
3, 14360, Note_off_c, 1, 53, 64
3, 14368, Note_on_c, 1, 57, 57
3, 14368, Note_on_c, 1, 53, 57
3, 14392, Note_off_c, 1, 57, 64
3, 14392, Note_off_c, 1, 53, 64
3, 14432, Note_on_c, 1, 57, 81
3, 14432, Note_on_c, 1, 54, 81
3, 14456, Note_off_c, 1, 57, 64
3, 14456, Note_off_c, 1, 54, 64
3, 14464, Note_on_c, 1, 57, 81
3, 14464, Note_on_c, 1, 54, 81
3, 14488, Note_off_c, 1, 57, 64
3, 14488, Note_off_c, 1, 54, 64
3, 14496, Note_on_c, 1, 54, 81
3, 14496, Note_on_c, 1, 57, 81
3, 14520, Note_off_c, 1, 54, 64
3, 14520, Note_off_c, 1, 57, 64
3, 14528, Note_on_c, 1, 57, 81
3, 14528, Note_on_c, 1, 54, 81
3, 14552, Note_off_c, 1, 57, 64
3, 14552, Note_off_c, 1, 54, 64
3, 14560, Note_on_c, 1, 57, 81
3, 14560, Note_on_c, 1, 54, 81
3, 14584, Note_off_c, 1, 57, 64
3, 14584, Note_off_c, 1, 54, 64
3, 14592, Note_on_c, 1, 57, 81
3, 14592, Note_on_c, 1, 54, 81
3, 14616, Note_off_c, 1, 57, 64
3, 14616, Note_off_c, 1, 54, 64
3, 14624, Note_on_c, 1, 57, 81
3, 14624, Note_on_c, 1, 54, 81
3, 14648, Note_off_c, 1, 57, 64
3, 14648, Note_off_c, 1, 54, 64
3, 14656, Note_on_c, 1, 57, 81
3, 14656, Note_on_c, 1, 54, 81
3, 14680, Note_off_c, 1, 57, 64
3, 14680, Note_off_c, 1, 54, 64
3, 14720, Note_on_c, 1, 55, 45
3, 14744, Note_off_c, 1, 55, 64
3, 14752, Note_on_c, 1, 55, 45
3, 14776, Note_off_c, 1, 55, 64
3, 14784, Note_on_c, 1, 55, 45
3, 14808, Note_off_c, 1, 55, 64
3, 14816, Note_on_c, 1, 55, 45
3, 14840, Note_off_c, 1, 55, 64
3, 14848, Note_on_c, 1, 55, 45
3, 14872, Note_off_c, 1, 55, 64
3, 14880, Note_on_c, 1, 55, 45
3, 14904, Note_off_c, 1, 55, 64
3, 14912, Note_on_c, 1, 55, 45
3, 14936, Note_off_c, 1, 55, 64
3, 14944, Note_on_c, 1, 55, 45
3, 14968, Note_off_c, 1, 55, 64
3, 14976, Note_on_c, 1, 54, 69
3, 14976, Note_on_c, 1, 57, 69
3, 15000, Note_off_c, 1, 54, 64
3, 15000, Note_off_c, 1, 57, 64
3, 15008, Note_on_c, 1, 57, 69
3, 15008, Note_on_c, 1, 54, 69
3, 15032, Note_off_c, 1, 57, 64
3, 15032, Note_off_c, 1, 54, 64
3, 15040, Note_on_c, 1, 57, 69
3, 15040, Note_on_c, 1, 54, 69
3, 15064, Note_off_c, 1, 57, 64
3, 15064, Note_off_c, 1, 54, 64
3, 15072, Note_on_c, 1, 55, 69
3, 15096, Note_off_c, 1, 55, 64
3, 15104, Note_on_c, 1, 55, 69
3, 15128, Note_off_c, 1, 55, 64
3, 15136, Note_on_c, 1, 55, 69
3, 15160, Note_off_c, 1, 55, 64
3, 15168, Note_on_c, 1, 55, 69
3, 15168, Note_on_c, 1, 59, 69
3, 15192, Note_off_c, 1, 55, 64
3, 15192, Note_off_c, 1, 59, 64
3, 15200, Note_on_c, 1, 55, 69
3, 15200, Note_on_c, 1, 59, 69
3, 15224, Note_off_c, 1, 55, 64
3, 15224, Note_off_c, 1, 59, 64
3, 15232, Note_on_c, 1, 59, 69
3, 15232, Note_on_c, 1, 55, 69
3, 15256, Note_off_c, 1, 59, 64
3, 15256, Note_off_c, 1, 55, 64
3, 15264, Note_on_c, 1, 48, 69
3, 15340, Note_off_c, 1, 48, 64
3, 15456, Note_on_c, 1, 55, 69
3, 15480, Note_off_c, 1, 55, 64
3, 15520, Note_on_c, 1, 59, 69
3, 15544, Note_off_c, 1, 59, 64
3, 15552, Note_on_c, 1, 48, 69
3, 15628, Note_off_c, 1, 48, 64
3, 15680, Note_on_c, 1, 52, 69
3, 15704, Note_off_c, 1, 52, 64
3, 15712, Note_on_c, 1, 48, 69
3, 15736, Note_off_c, 1, 48, 64
3, 15744, Note_on_c, 1, 43, 81
3, 15808, Note_on_c, 1, 59, 81
3, 15808, Note_on_c, 1, 53, 81
3, 15820, Note_off_c, 1, 43, 64
3, 15832, Note_off_c, 1, 59, 64
3, 15832, Note_off_c, 1, 53, 64
3, 15840, Note_on_c, 1, 59, 45
3, 15840, Note_on_c, 1, 53, 45
3, 15840, Note_on_c, 1, 36, 45
3, 15992, Note_off_c, 1, 59, 64
3, 15992, Note_off_c, 1, 53, 64
3, 16032, Note_on_c, 1, 55, 45
3, 16032, Note_on_c, 1, 52, 45
3, 16070, Note_off_c, 1, 36, 64
3, 16070, Note_off_c, 1, 55, 64
3, 16070, Note_off_c, 1, 52, 64
3, 16416, Note_on_c, 1, 59, 81
3, 16440, Note_off_c, 1, 59, 64
3, 16512, Note_on_c, 1, 59, 81
3, 16536, Note_off_c, 1, 59, 64
3, 16608, Note_on_c, 1, 59, 81
3, 16632, Note_off_c, 1, 59, 64
3, 16704, Note_on_c, 1, 58, 45
3, 16728, Note_off_c, 1, 58, 64
3, 16800, Note_on_c, 1, 58, 45
3, 16824, Note_off_c, 1, 58, 64
3, 16896, Note_on_c, 1, 58, 45
3, 16920, Note_off_c, 1, 58, 64
3, 16992, Note_on_c, 1, 57, 45
3, 17016, Note_off_c, 1, 57, 64
3, 17088, Note_on_c, 1, 57, 45
3, 17112, Note_off_c, 1, 57, 64
3, 17184, Note_on_c, 1, 57, 45
3, 17208, Note_off_c, 1, 57, 64
3, 17280, Note_on_c, 1, 55, 81
3, 17304, Note_off_c, 1, 55, 64
3, 17376, Note_on_c, 1, 53, 81
3, 17400, Note_off_c, 1, 53, 64
3, 17408, Note_on_c, 1, 57, 81
3, 17432, Note_off_c, 1, 57, 64
3, 17472, Note_on_c, 1, 50, 81
3, 17496, Note_off_c, 1, 50, 64
3, 17504, Note_on_c, 1, 53, 81
3, 17528, Note_off_c, 1, 53, 64
3, 17536, Note_on_c, 1, 57, 81
3, 17560, Note_off_c, 1, 57, 64
3, 17568, Note_on_c, 1, 55, 45
3, 17592, Note_off_c, 1, 55, 64
3, 17600, Note_on_c, 1, 58, 45
3, 17624, Note_off_c, 1, 58, 64
3, 17664, Note_on_c, 1, 57, 45
3, 17688, Note_off_c, 1, 57, 64
3, 17760, Note_on_c, 1, 57, 45
3, 17784, Note_off_c, 1, 57, 64
3, 17856, Note_on_c, 1, 55, 81
3, 17880, Note_off_c, 1, 55, 64
3, 17952, Note_on_c, 1, 53, 81
3, 17976, Note_off_c, 1, 53, 64
3, 17984, Note_on_c, 1, 57, 81
3, 18008, Note_off_c, 1, 57, 64
3, 18048, Note_on_c, 1, 50, 81
3, 18072, Note_off_c, 1, 50, 64
3, 18080, Note_on_c, 1, 53, 81
3, 18104, Note_off_c, 1, 53, 64
3, 18112, Note_on_c, 1, 57, 81
3, 18136, Note_off_c, 1, 57, 64
3, 18144, Note_on_c, 1, 55, 45
3, 18168, Note_off_c, 1, 55, 64
3, 18176, Note_on_c, 1, 58, 45
3, 18200, Note_off_c, 1, 58, 64
3, 18240, Note_on_c, 1, 57, 45
3, 18264, Note_off_c, 1, 57, 64
3, 18336, Note_on_c, 1, 57, 45
3, 18360, Note_off_c, 1, 57, 64
3, 18432, Note_on_c, 1, 57, 81
3, 18456, Note_off_c, 1, 57, 64
3, 18528, Note_on_c, 1, 57, 81
3, 18552, Note_off_c, 1, 57, 64
3, 18624, Note_on_c, 1, 57, 81
3, 18648, Note_off_c, 1, 57, 64
3, 18720, Note_on_c, 1, 58, 69
3, 18744, Note_off_c, 1, 58, 64
3, 20160, Note_on_c, 1, 53, 81
3, 20184, Note_off_c, 1, 53, 64
3, 20192, Note_on_c, 1, 57, 81
3, 20216, Note_off_c, 1, 57, 64
3, 20256, Note_on_c, 1, 55, 81
3, 20280, Note_off_c, 1, 55, 64
3, 20288, Note_on_c, 1, 58, 81
3, 20312, Note_off_c, 1, 58, 64
3, 20352, Note_on_c, 1, 53, 81
3, 20376, Note_off_c, 1, 53, 64
3, 20384, Note_on_c, 1, 57, 81
3, 20408, Note_off_c, 1, 57, 64
3, 20448, Note_on_c, 1, 52, 81
3, 20472, Note_off_c, 1, 52, 64
3, 20480, Note_on_c, 1, 55, 81
3, 20504, Note_off_c, 1, 55, 64
3, 20544, Note_on_c, 1, 48, 81
3, 20568, Note_off_c, 1, 48, 64
3, 20576, Note_on_c, 1, 52, 81
3, 20600, Note_off_c, 1, 52, 64
3, 20608, Note_on_c, 1, 55, 81
3, 20632, Note_off_c, 1, 55, 64
3, 20640, Note_on_c, 1, 53, 81
3, 20664, Note_off_c, 1, 53, 64
3, 20672, Note_on_c, 1, 57, 81
3, 20696, Note_off_c, 1, 57, 64
3, 20736, Note_on_c, 1, 46, 45
3, 20760, Note_off_c, 1, 46, 64
3, 20768, Note_on_c, 1, 50, 45
3, 20792, Note_off_c, 1, 50, 64
3, 20800, Note_on_c, 1, 55, 45
3, 20824, Note_off_c, 1, 55, 64
3, 20832, Note_on_c, 1, 48, 45
3, 20856, Note_off_c, 1, 48, 64
3, 20864, Note_on_c, 1, 53, 45
3, 20888, Note_off_c, 1, 53, 64
3, 20896, Note_on_c, 1, 57, 45
3, 20920, Note_off_c, 1, 57, 64
3, 20928, Note_on_c, 1, 48, 45
3, 20952, Note_off_c, 1, 48, 64
3, 20960, Note_on_c, 1, 55, 45
3, 20984, Note_off_c, 1, 55, 64
3, 20992, Note_on_c, 1, 58, 45
3, 21016, Note_off_c, 1, 58, 64
3, 21024, Note_on_c, 1, 49, 81
3, 21048, Note_off_c, 1, 49, 64
3, 21056, Note_on_c, 1, 52, 81
3, 21080, Note_off_c, 1, 52, 64
3, 21088, Note_on_c, 1, 55, 81
3, 21112, Note_off_c, 1, 55, 64
3, 21120, Note_on_c, 1, 49, 81
3, 21144, Note_off_c, 1, 49, 64
3, 21152, Note_on_c, 1, 52, 81
3, 21176, Note_off_c, 1, 52, 64
3, 21184, Note_on_c, 1, 55, 81
3, 21208, Note_off_c, 1, 55, 64
3, 21216, Note_on_c, 1, 49, 81
3, 21240, Note_off_c, 1, 49, 64
3, 21248, Note_on_c, 1, 52, 81
3, 21272, Note_off_c, 1, 52, 64
3, 21280, Note_on_c, 1, 55, 81
3, 21304, Note_off_c, 1, 55, 64
3, 21312, Note_on_c, 1, 48, 81
3, 21336, Note_off_c, 1, 48, 64
3, 21344, Note_on_c, 1, 52, 81
3, 21368, Note_off_c, 1, 52, 64
3, 21376, Note_on_c, 1, 55, 81
3, 21400, Note_off_c, 1, 55, 64
3, 21408, Note_on_c, 1, 49, 81
3, 21432, Note_off_c, 1, 49, 64
3, 21440, Note_on_c, 1, 52, 81
3, 21464, Note_off_c, 1, 52, 64
3, 21472, Note_on_c, 1, 55, 81
3, 21496, Note_off_c, 1, 55, 64
3, 21504, Note_on_c, 1, 50, 81
3, 21528, Note_off_c, 1, 50, 64
3, 21536, Note_on_c, 1, 53, 81
3, 21560, Note_off_c, 1, 53, 64
3, 21568, Note_on_c, 1, 57, 81
3, 21592, Note_off_c, 1, 57, 64
3, 21632, Note_on_c, 1, 59, 81
3, 21656, Note_off_c, 1, 59, 64
3, 21664, Note_on_c, 1, 59, 81
3, 21688, Note_off_c, 1, 59, 64
3, 21696, Note_on_c, 1, 59, 81
3, 21720, Note_off_c, 1, 59, 64
3, 21728, Note_on_c, 1, 59, 81
3, 21752, Note_off_c, 1, 59, 64
3, 21760, Note_on_c, 1, 59, 81
3, 21784, Note_off_c, 1, 59, 64
3, 21792, Note_on_c, 1, 59, 81
3, 21816, Note_off_c, 1, 59, 64
3, 21824, Note_on_c, 1, 59, 81
3, 21848, Note_off_c, 1, 59, 64
3, 21856, Note_on_c, 1, 59, 81
3, 21880, Note_off_c, 1, 59, 64
3, 21920, Note_on_c, 1, 50, 81
3, 21920, Note_on_c, 1, 53, 81
3, 21920, Note_on_c, 1, 59, 81
3, 21944, Note_off_c, 1, 50, 64
3, 21944, Note_off_c, 1, 53, 64
3, 21944, Note_off_c, 1, 59, 64
3, 21952, Note_on_c, 1, 50, 81
3, 21952, Note_on_c, 1, 59, 81
3, 21952, Note_on_c, 1, 53, 81
3, 21976, Note_off_c, 1, 50, 64
3, 21976, Note_off_c, 1, 59, 64
3, 21976, Note_off_c, 1, 53, 64
3, 21984, Note_on_c, 1, 59, 81
3, 21984, Note_on_c, 1, 53, 81
3, 21984, Note_on_c, 1, 50, 81
3, 22008, Note_off_c, 1, 59, 64
3, 22008, Note_off_c, 1, 53, 64
3, 22008, Note_off_c, 1, 50, 64
3, 22016, Note_on_c, 1, 59, 81
3, 22016, Note_on_c, 1, 53, 81
3, 22016, Note_on_c, 1, 50, 81
3, 22040, Note_off_c, 1, 59, 64
3, 22040, Note_off_c, 1, 53, 64
3, 22040, Note_off_c, 1, 50, 64
3, 22048, Note_on_c, 1, 53, 81
3, 22048, Note_on_c, 1, 50, 81
3, 22048, Note_on_c, 1, 59, 81
3, 22072, Note_off_c, 1, 53, 64
3, 22072, Note_off_c, 1, 50, 64
3, 22072, Note_off_c, 1, 59, 64
3, 22080, Note_on_c, 1, 59, 81
3, 22080, Note_on_c, 1, 53, 81
3, 22080, Note_on_c, 1, 50, 81
3, 22104, Note_off_c, 1, 59, 64
3, 22104, Note_off_c, 1, 53, 64
3, 22104, Note_off_c, 1, 50, 64
3, 22112, Note_on_c, 1, 59, 81
3, 22112, Note_on_c, 1, 53, 81
3, 22112, Note_on_c, 1, 50, 81
3, 22136, Note_off_c, 1, 59, 64
3, 22136, Note_off_c, 1, 53, 64
3, 22136, Note_off_c, 1, 50, 64
3, 22144, Note_on_c, 1, 59, 81
3, 22144, Note_on_c, 1, 53, 81
3, 22144, Note_on_c, 1, 50, 81
3, 22168, Note_off_c, 1, 59, 64
3, 22168, Note_off_c, 1, 53, 64
3, 22168, Note_off_c, 1, 50, 64
3, 22176, Note_on_c, 1, 52, 57
3, 22176, Note_on_c, 1, 55, 57
3, 22176, Note_on_c, 1, 48, 57
3, 22252, Note_off_c, 1, 52, 64
3, 22252, Note_off_c, 1, 55, 64
3, 22252, Note_off_c, 1, 48, 64
3, 23616, Note_on_c, 1, 59, 81
3, 23692, Note_off_c, 1, 59, 64
3, 23856, Note_on_c, 1, 52, 81
3, 23856, Note_on_c, 1, 48, 81
3, 23856, Note_on_c, 1, 46, 81
3, 23894, Note_off_c, 1, 52, 64
3, 23894, Note_off_c, 1, 48, 64
3, 23894, Note_off_c, 1, 46, 64
3, 23904, Note_on_c, 1, 53, 81
3, 23904, Note_on_c, 1, 45, 81
3, 23942, Note_off_c, 1, 53, 64
3, 23942, Note_off_c, 1, 45, 64
3, 23952, Note_on_c, 1, 46, 81
3, 23990, Note_off_c, 1, 46, 64
3, 24000, Note_on_c, 1, 48, 81
3, 24024, Note_off_c, 1, 48, 64
3, 24032, Note_on_c, 1, 53, 81
3, 24056, Note_off_c, 1, 53, 64
3, 24064, Note_on_c, 1, 57, 81
3, 24088, Note_off_c, 1, 57, 64
3, 24096, Note_on_c, 1, 48, 81
3, 24120, Note_off_c, 1, 48, 64
3, 24128, Note_on_c, 1, 55, 81
3, 24152, Note_off_c, 1, 55, 64
3, 24160, Note_on_c, 1, 58, 81
3, 24184, Note_off_c, 1, 58, 64
3, 24224, Note_on_c, 1, 45, 81
3, 24248, Note_off_c, 1, 45, 64
3, 24256, Note_on_c, 1, 46, 81
3, 24280, Note_off_c, 1, 46, 64
3, 24288, Note_on_c, 1, 47, 81
3, 24312, Note_off_c, 1, 47, 64
3, 24320, Note_on_c, 1, 48, 81
3, 24344, Note_off_c, 1, 48, 64
3, 24352, Note_on_c, 1, 49, 81
3, 24376, Note_off_c, 1, 49, 64
3, 24384, Note_on_c, 1, 50, 81
3, 24408, Note_off_c, 1, 50, 64
3, 24416, Note_on_c, 1, 52, 81
3, 24440, Note_off_c, 1, 52, 64
3, 24448, Note_on_c, 1, 53, 81
3, 24472, Note_off_c, 1, 53, 64
3, 24480, Note_on_c, 1, 47, 81
3, 24480, Note_on_c, 1, 35, 81
3, 24556, Note_off_c, 1, 47, 64
3, 24556, Note_off_c, 1, 35, 64
3, 24576, Note_on_c, 1, 36, 57
3, 24576, Note_on_c, 1, 48, 57
3, 24652, Note_off_c, 1, 36, 64
3, 24652, Note_off_c, 1, 48, 64
3, 24672, Note_on_c, 1, 52, 81
3, 24672, Note_on_c, 1, 40, 81
3, 24748, Note_off_c, 1, 52, 64
3, 24748, Note_off_c, 1, 40, 64
3, 24768, Note_on_c, 1, 53, 57
3, 24768, Note_on_c, 1, 41, 57
3, 24844, Note_off_c, 1, 53, 64
3, 24844, Note_off_c, 1, 41, 64
3, 24864, Note_on_c, 1, 49, 57
3, 24940, Note_off_c, 1, 49, 64
3, 24960, Note_on_c, 1, 50, 80
3, 25036, Note_off_c, 1, 50, 64
3, 25056, Note_on_c, 1, 58, 69
3, 25132, Note_off_c, 1, 58, 64
3, 25376, Note_on_c, 1, 52, 81
3, 25400, Note_off_c, 1, 52, 64
3, 25408, Note_on_c, 1, 53, 81
3, 25432, Note_off_c, 1, 53, 64
3, 25472, Note_on_c, 1, 54, 81
3, 25496, Note_off_c, 1, 54, 64
3, 25504, Note_on_c, 1, 55, 81
3, 25528, Note_off_c, 1, 55, 64
3, 25568, Note_on_c, 1, 56, 81
3, 25592, Note_off_c, 1, 56, 64
3, 25600, Note_on_c, 1, 57, 81
3, 25624, Note_off_c, 1, 57, 64
3, 25632, Note_on_c, 1, 58, 57
3, 25632, Note_on_c, 1, 46, 57
3, 25708, Note_off_c, 1, 58, 64
3, 25708, Note_off_c, 1, 46, 64
3, 25728, Note_on_c, 1, 48, 57
3, 25728, Note_on_c, 1, 57, 57
3, 25804, Note_off_c, 1, 48, 64
3, 25804, Note_off_c, 1, 57, 64
3, 25824, Note_on_c, 1, 55, 57
3, 25824, Note_on_c, 1, 58, 57
3, 25848, Note_off_c, 1, 58, 64
3, 25900, Note_off_c, 1, 55, 64
3, 25952, Note_on_c, 1, 52, 81
3, 25976, Note_off_c, 1, 52, 64
3, 25984, Note_on_c, 1, 53, 81
3, 26008, Note_off_c, 1, 53, 64
3, 26048, Note_on_c, 1, 54, 81
3, 26072, Note_off_c, 1, 54, 64
3, 26080, Note_on_c, 1, 55, 81
3, 26104, Note_off_c, 1, 55, 64
3, 26144, Note_on_c, 1, 56, 81
3, 26168, Note_off_c, 1, 56, 64
3, 26176, Note_on_c, 1, 57, 81
3, 26200, Note_off_c, 1, 57, 64
3, 26240, Note_on_c, 1, 58, 57
3, 26264, Note_off_c, 1, 58, 64
3, 26272, Note_on_c, 1, 58, 57
3, 26296, Note_off_c, 1, 58, 64
3, 26304, Note_on_c, 1, 58, 57
3, 26328, Note_off_c, 1, 58, 64
3, 26336, Note_on_c, 1, 58, 57
3, 26360, Note_off_c, 1, 58, 64
3, 26368, Note_on_c, 1, 58, 57
3, 26392, Note_off_c, 1, 58, 64
3, 26400, Note_on_c, 1, 58, 57
3, 26424, Note_off_c, 1, 58, 64
3, 26432, Note_on_c, 1, 58, 57
3, 26456, Note_off_c, 1, 58, 64
3, 26464, Note_on_c, 1, 58, 57
3, 26488, Note_off_c, 1, 58, 64
3, 26528, Note_on_c, 1, 59, 81
3, 26552, Note_off_c, 1, 59, 64
3, 26560, Note_on_c, 1, 59, 81
3, 26584, Note_off_c, 1, 59, 64
3, 26592, Note_on_c, 1, 59, 81
3, 26616, Note_off_c, 1, 59, 64
3, 26624, Note_on_c, 1, 59, 81
3, 26648, Note_off_c, 1, 59, 64
3, 26656, Note_on_c, 1, 59, 81
3, 26680, Note_off_c, 1, 59, 64
3, 26688, Note_on_c, 1, 59, 81
3, 26712, Note_off_c, 1, 59, 64
3, 26720, Note_on_c, 1, 59, 81
3, 26744, Note_off_c, 1, 59, 64
3, 26752, Note_on_c, 1, 59, 81
3, 26776, Note_off_c, 1, 59, 64
3, 27072, Note_on_c, 1, 59, 81
3, 27096, Note_off_c, 1, 59, 64
3, 27104, Note_on_c, 1, 59, 81
3, 27128, Note_off_c, 1, 59, 64
3, 27136, Note_on_c, 1, 59, 81
3, 27160, Note_off_c, 1, 59, 64
3, 27424, Note_on_c, 1, 57, 81
3, 27448, Note_off_c, 1, 57, 64
3, 27456, Note_on_c, 1, 53, 57
3, 27456, Note_on_c, 1, 41, 57
3, 27532, Note_off_c, 1, 53, 64
3, 27532, Note_off_c, 1, 41, 64
3, 27648, Note_on_c, 1, 48, 80
3, 27648, Note_on_c, 1, 36, 81
3, 27724, Note_off_c, 1, 48, 64
3, 27724, Note_off_c, 1, 36, 64
3, 27936, Note_on_c, 1, 53, 81
3, 27936, Note_on_c, 1, 41, 81
3, 28012, Note_off_c, 1, 53, 64
3, 28012, Note_off_c, 1, 41, 64
3, 28064, Note_on_c, 1, 51, 81
3, 28088, Note_off_c, 1, 51, 64
3, 28096, Note_on_c, 1, 50, 81
3, 28120, Note_off_c, 1, 50, 64
3, 28128, Note_on_c, 1, 48, 81
3, 28152, Note_off_c, 1, 48, 64
3, 28160, Note_on_c, 1, 58, 81
3, 28160, Note_on_c, 1, 46, 81
3, 28184, Note_off_c, 1, 58, 64
3, 28184, Note_off_c, 1, 46, 64
3, 28192, Note_on_c, 1, 57, 81
3, 28192, Note_on_c, 1, 45, 81
3, 28216, Note_off_c, 1, 57, 64
3, 28216, Note_off_c, 1, 45, 64
3, 28224, Note_on_c, 1, 46, 83
3, 28224, Note_on_c, 1, 58, 81
3, 28300, Note_off_c, 1, 46, 64
3, 28300, Note_off_c, 1, 58, 64
3, 28320, Note_on_c, 1, 48, 57
3, 28396, Note_off_c, 1, 48, 64
3, 28416, Note_on_c, 1, 48, 57
3, 28416, Note_on_c, 1, 36, 57
3, 28492, Note_off_c, 1, 48, 64
3, 28492, Note_off_c, 1, 36, 64
3, 28512, Note_on_c, 1, 53, 81
3, 28512, Note_on_c, 1, 41, 81
3, 28588, Note_off_c, 1, 53, 64
3, 28588, Note_off_c, 1, 41, 64
3, 28800, Note_on_c, 1, 53, 81
3, 28876, Note_off_c, 1, 53, 64
3, 28928, Note_on_c, 1, 57, 81
3, 28952, Note_off_c, 1, 57, 64
3, 28960, Note_on_c, 1, 53, 81
3, 28984, Note_off_c, 1, 53, 64
3, 28992, Note_on_c, 1, 36, 59
3, 28992, Note_on_c, 1, 48, 62
3, 29056, Note_on_c, 1, 58, 57
3, 29068, Note_off_c, 1, 36, 64
3, 29068, Note_off_c, 1, 48, 64
3, 29080, Note_off_c, 1, 58, 64
3, 29088, Note_on_c, 1, 41, 57
3, 29088, Note_on_c, 1, 58, 57
3, 29240, Note_off_c, 1, 58, 64
3, 29280, Note_on_c, 1, 57, 57
3, 29318, Note_off_c, 1, 41, 64
3, 29318, Note_off_c, 1, 57, 64
3, 29318, End_track
0, 0, End_of_file
