0, 0, Header, 1, 9, 192
1, 0, Start_track
1, 0, Tempo, 324324
1, 0, Time_signature, 2, 2, 24, 8
1, 0, Key_signature, 0, "major"
1, 0, End_track
2, 0, Start_track
2, 0, Title_t, "MOPS9M3"
2, 0, End_track
3, 0, Start_track
3, 0, Title_t, "Piano"
3, 0, Channel_prefix, 0
3, 0, Control_c, 0, 7, 127
3, 0, Control_c, 0, 10, 64
3, 0, Program_c, 0, 0
3, 0, Note_on_c, 0, 69, 45
3, 0, Note_on_c, 0, 72, 45
3, 288, Note_off_c, 0, 72, 0
3, 288, Note_off_c, 0, 69, 0
3, 288, Note_on_c, 0, 68, 45
3, 288, Note_on_c, 0, 71, 45
3, 382, Note_off_c, 0, 71, 0
3, 382, Note_off_c, 0, 68, 0
3, 384, Note_on_c, 0, 64, 45
3, 384, Note_on_c, 0, 69, 45
3, 672, Note_off_c, 0, 69, 0
3, 672, Note_off_c, 0, 64, 0
3, 672, Note_on_c, 0, 68, 45
3, 766, Note_off_c, 0, 68, 0
3, 768, Note_on_c, 0, 64, 45
3, 768, Note_on_c, 0, 69, 45
3, 1056, Note_off_c, 0, 69, 0
3, 1056, Note_off_c, 0, 64, 0
3, 1056, Note_on_c, 0, 71, 45
3, 1150, Note_off_c, 0, 71, 0
3, 1152, Note_on_c, 0, 69, 45
3, 1152, Note_on_c, 0, 72, 45
3, 1312, Note_off_c, 0, 72, 0
3, 1312, Note_off_c, 0, 69, 0
3, 1344, Note_on_c, 0, 68, 45
3, 1344, Note_on_c, 0, 71, 45
3, 1504, Note_off_c, 0, 71, 0
3, 1504, Note_off_c, 0, 68, 0
3, 1536, Note_on_c, 0, 69, 45
3, 1536, Note_on_c, 0, 74, 45
3, 1824, Note_off_c, 0, 74, 0
3, 1824, Note_off_c, 0, 69, 0
3, 1824, Note_on_c, 0, 72, 45
3, 1918, Note_off_c, 0, 72, 0
3, 1920, Note_on_c, 0, 69, 45
3, 1920, Note_on_c, 0, 77, 45
3, 2208, Note_off_c, 0, 77, 0
3, 2208, Note_off_c, 0, 69, 0
3, 2208, Note_on_c, 0, 76, 45
3, 2302, Note_off_c, 0, 76, 0
3, 2304, Note_on_c, 0, 68, 45
3, 2304, Note_on_c, 0, 74, 45
3, 2496, Note_off_c, 0, 74, 0
3, 2496, Note_off_c, 0, 68, 0
3, 2592, Note_on_c, 0, 69, 45
3, 2592, Note_on_c, 0, 72, 45
3, 2686, Note_off_c, 0, 72, 0
3, 2686, Note_off_c, 0, 69, 0
3, 2688, Note_on_c, 0, 68, 45
3, 2688, Note_on_c, 0, 71, 45
3, 2848, Note_off_c, 0, 71, 0
3, 2848, Note_off_c, 0, 68, 0
3, 2880, Note_on_c, 0, 68, 45
3, 2974, Note_off_c, 0, 68, 0
3, 2976, Note_on_c, 0, 64, 45
3, 3070, Note_off_c, 0, 64, 0
3, 3072, Note_on_c, 0, 69, 45
3, 3072, Note_on_c, 0, 72, 45
3, 3360, Note_off_c, 0, 72, 0
3, 3360, Note_off_c, 0, 69, 0
3, 3360, Note_on_c, 0, 68, 45
3, 3360, Note_on_c, 0, 71, 45
3, 3454, Note_off_c, 0, 71, 0
3, 3454, Note_off_c, 0, 68, 0
3, 3456, Note_on_c, 0, 64, 45
3, 3456, Note_on_c, 0, 69, 45
3, 3744, Note_off_c, 0, 69, 0
3, 3744, Note_off_c, 0, 64, 0
3, 3744, Note_on_c, 0, 68, 45
3, 3838, Note_off_c, 0, 68, 0
3, 3840, Note_on_c, 0, 64, 45
3, 3840, Note_on_c, 0, 69, 45
3, 4128, Note_off_c, 0, 69, 0
3, 4128, Note_off_c, 0, 64, 0
3, 4128, Note_on_c, 0, 71, 45
3, 4222, Note_off_c, 0, 71, 0
3, 4224, Note_on_c, 0, 69, 45
3, 4224, Note_on_c, 0, 72, 45
3, 4384, Note_off_c, 0, 72, 0
3, 4384, Note_off_c, 0, 69, 0
3, 4416, Note_on_c, 0, 68, 45
3, 4416, Note_on_c, 0, 71, 45
3, 4576, Note_off_c, 0, 71, 0
3, 4576, Note_off_c, 0, 68, 0
3, 4608, Note_on_c, 0, 69, 45
3, 4608, Note_on_c, 0, 77, 45
3, 4896, Note_off_c, 0, 77, 0
3, 4896, Note_off_c, 0, 69, 0
3, 4896, Note_on_c, 0, 74, 45
3, 4990, Note_off_c, 0, 74, 0
3, 4992, Note_on_c, 0, 69, 45
3, 4992, Note_on_c, 0, 74, 45
3, 5280, Note_off_c, 0, 74, 0
3, 5280, Note_off_c, 0, 69, 0
3, 5280, Note_on_c, 0, 72, 45
3, 5374, Note_off_c, 0, 72, 0
3, 5376, Note_on_c, 0, 71, 46
3, 5536, Note_off_c, 0, 71, 0
3, 5568, Note_on_c, 0, 69, 47
3, 5662, Note_off_c, 0, 69, 0
3, 5664, Note_on_c, 0, 68, 48
3, 5758, Note_off_c, 0, 68, 0
3, 5760, Note_on_c, 0, 69, 49
3, 5854, Note_off_c, 0, 69, 0
3, 5856, Note_on_c, 0, 73, 50
3, 5950, Note_off_c, 0, 73, 0
3, 5952, Note_on_c, 0, 74, 51
3, 6046, Note_off_c, 0, 74, 0
3, 6048, Note_on_c, 0, 76, 52
3, 6142, Note_off_c, 0, 76, 0
3, 6144, Note_on_c, 0, 77, 92
3, 6400, Note_off_c, 0, 77, 0
3, 6432, Note_on_c, 0, 76, 92
3, 6526, Note_off_c, 0, 76, 0
3, 6528, Note_on_c, 0, 74, 92
3, 6528, Note_on_c, 0, 80, 92
3, 6784, Note_off_c, 0, 80, 0
3, 6784, Note_off_c, 0, 74, 0
3, 6816, Note_on_c, 0, 72, 92
3, 6816, Note_on_c, 0, 81, 92
3, 6910, Note_off_c, 0, 81, 0
3, 6910, Note_off_c, 0, 72, 0
3, 6912, Note_on_c, 0, 71, 92
3, 6912, Note_on_c, 0, 74, 92
3, 7072, Note_off_c, 0, 74, 0
3, 7072, Note_off_c, 0, 71, 0
3, 7104, Note_on_c, 0, 69, 92
3, 7104, Note_on_c, 0, 72, 92
3, 7198, Note_off_c, 0, 72, 0
3, 7198, Note_off_c, 0, 69, 0
3, 7200, Note_on_c, 0, 68, 92
3, 7200, Note_on_c, 0, 71, 92
3, 7294, Note_off_c, 0, 71, 0
3, 7294, Note_off_c, 0, 68, 0
3, 7296, Note_on_c, 0, 69, 92
3, 7390, Note_off_c, 0, 69, 0
3, 7392, Note_on_c, 0, 72, 92
3, 7486, Note_off_c, 0, 72, 0
3, 7488, Note_on_c, 0, 74, 92
3, 7582, Note_off_c, 0, 74, 0
3, 7584, Note_on_c, 0, 76, 92
3, 7678, Note_off_c, 0, 76, 0
3, 7680, Note_on_c, 0, 77, 45
3, 7968, Note_off_c, 0, 77, 0
3, 7968, Note_on_c, 0, 81, 45
3, 8062, Note_off_c, 0, 81, 0
3, 8064, Note_on_c, 0, 77, 45
3, 8160, Note_off_c, 0, 77, 0
3, 8160, Note_on_c, 0, 76, 45
3, 8256, Note_off_c, 0, 76, 0
3, 8256, Note_on_c, 0, 75, 45
3, 8352, Note_off_c, 0, 75, 0
3, 8352, Note_on_c, 0, 76, 45
3, 8446, Note_off_c, 0, 76, 0
3, 8448, Note_on_c, 0, 81, 45
3, 8736, Note_off_c, 0, 81, 0
3, 8736, Note_on_c, 0, 84, 45
3, 8830, Note_off_c, 0, 84, 0
3, 8832, Note_on_c, 0, 81, 45
3, 8928, Note_off_c, 0, 81, 0
3, 8928, Note_on_c, 0, 79, 45
3, 9024, Note_off_c, 0, 79, 0
3, 9024, Note_on_c, 0, 78, 45
3, 9120, Note_off_c, 0, 78, 0
3, 9120, Note_on_c, 0, 79, 45
3, 9214, Note_off_c, 0, 79, 0
3, 9216, Note_on_c, 0, 84, 45
3, 9504, Note_off_c, 0, 84, 0
3, 9504, Note_on_c, 0, 83, 45
3, 9598, Note_off_c, 0, 83, 0
3, 9600, Note_on_c, 0, 83, 45
3, 9696, Note_off_c, 0, 83, 0
3, 9696, Note_on_c, 0, 81, 46
3, 9790, Note_off_c, 0, 81, 0
3, 9792, Note_on_c, 0, 81, 47
3, 9888, Note_off_c, 0, 81, 0
3, 9888, Note_on_c, 0, 79, 48
3, 9982, Note_off_c, 0, 79, 0
3, 9984, Note_on_c, 0, 79, 49
3, 10008, Note_off_c, 0, 79, 0
3, 10008, Note_on_c, 0, 81, 50
3, 10032, Note_off_c, 0, 81, 0
3, 10032, Note_on_c, 0, 79, 51
3, 10056, Note_off_c, 0, 79, 0
3, 10056, Note_on_c, 0, 81, 52
3, 10080, Note_off_c, 0, 81, 0
3, 10080, Note_on_c, 0, 77, 53
3, 10174, Note_off_c, 0, 77, 0
3, 10176, Note_on_c, 0, 77, 54
3, 10200, Note_off_c, 0, 77, 0
3, 10200, Note_on_c, 0, 79, 55
3, 10224, Note_off_c, 0, 79, 0
3, 10224, Note_on_c, 0, 77, 56
3, 10248, Note_off_c, 0, 77, 0
3, 10248, Note_on_c, 0, 79, 57
3, 10272, Note_off_c, 0, 79, 0
3, 10272, Note_on_c, 0, 76, 58
3, 10366, Note_off_c, 0, 76, 0
3, 10368, Note_on_c, 0, 72, 92
3, 10368, Note_on_c, 0, 76, 92
3, 10560, Note_off_c, 0, 76, 0
3, 10560, Note_off_c, 0, 72, 0
3, 10560, Note_on_c, 0, 71, 92
3, 10560, Note_on_c, 0, 74, 92
3, 10720, Note_off_c, 0, 74, 0
3, 10720, Note_off_c, 0, 71, 0
3, 10752, Note_on_c, 0, 72, 30
3, 10752, Note_on_c, 0, 75, 30
3, 11040, Note_off_c, 0, 75, 0
3, 11040, Note_off_c, 0, 72, 0
3, 11040, Note_on_c, 0, 71, 30
3, 11040, Note_on_c, 0, 74, 30
3, 11134, Note_off_c, 0, 74, 0
3, 11134, Note_off_c, 0, 71, 0
3, 11136, Note_on_c, 0, 72, 30
3, 11424, Note_off_c, 0, 72, 0
3, 11424, Note_on_c, 0, 71, 30
3, 11424, Note_on_c, 0, 74, 30
3, 11518, Note_off_c, 0, 74, 0
3, 11518, Note_off_c, 0, 71, 0
3, 11520, Note_on_c, 0, 72, 30
3, 11520, Note_on_c, 0, 75, 30
3, 11808, Note_off_c, 0, 75, 0
3, 11808, Note_off_c, 0, 72, 0
3, 11808, Note_on_c, 0, 77, 30
3, 11902, Note_off_c, 0, 77, 0
3, 11904, Note_on_c, 0, 72, 30
3, 11904, Note_on_c, 0, 75, 30
3, 12096, Note_off_c, 0, 75, 0
3, 12096, Note_off_c, 0, 72, 0
3, 12096, Note_on_c, 0, 71, 30
3, 12096, Note_on_c, 0, 74, 30
3, 12256, Note_off_c, 0, 74, 0
3, 12256, Note_off_c, 0, 71, 0
3, 12288, Note_on_c, 0, 74, 30
3, 12288, Note_on_c, 0, 77, 30
3, 12576, Note_off_c, 0, 77, 0
3, 12576, Note_off_c, 0, 74, 0
3, 12576, Note_on_c, 0, 72, 30
3, 12576, Note_on_c, 0, 76, 30
3, 12670, Note_off_c, 0, 76, 0
3, 12670, Note_off_c, 0, 72, 0
3, 12672, Note_on_c, 0, 71, 30
3, 12672, Note_on_c, 0, 74, 30
3, 12960, Note_off_c, 0, 74, 0
3, 12960, Note_off_c, 0, 71, 0
3, 12960, Note_on_c, 0, 72, 30
3, 12960, Note_on_c, 0, 76, 30
3, 13054, Note_off_c, 0, 76, 0
3, 13054, Note_off_c, 0, 72, 0
3, 13056, Note_on_c, 0, 74, 31
3, 13056, Note_on_c, 0, 77, 31
3, 13344, Note_off_c, 0, 77, 0
3, 13344, Note_off_c, 0, 74, 0
3, 13344, Note_on_c, 0, 76, 32
3, 13344, Note_on_c, 0, 79, 32
3, 13438, Note_off_c, 0, 79, 0
3, 13438, Note_off_c, 0, 76, 0
3, 13440, Note_on_c, 0, 74, 33
3, 13440, Note_on_c, 0, 77, 33
3, 13632, Note_off_c, 0, 77, 0
3, 13632, Note_off_c, 0, 74, 0
3, 13632, Note_on_c, 0, 72, 34
3, 13632, Note_on_c, 0, 76, 34
3, 13792, Note_off_c, 0, 76, 0
3, 13792, Note_off_c, 0, 72, 0
3, 13824, Note_on_c, 0, 79, 92
3, 13824, Note_on_c, 0, 84, 92
3, 14080, Note_off_c, 0, 84, 0
3, 14080, Note_off_c, 0, 79, 0
3, 14112, Note_on_c, 0, 77, 92
3, 14112, Note_on_c, 0, 83, 92
3, 14206, Note_off_c, 0, 83, 0
3, 14206, Note_off_c, 0, 77, 0
3, 14208, Note_on_c, 0, 76, 92
3, 14208, Note_on_c, 0, 81, 92
3, 14464, Note_off_c, 0, 81, 0
3, 14464, Note_off_c, 0, 76, 0
3, 14496, Note_on_c, 0, 74, 92
3, 14496, Note_on_c, 0, 79, 92
3, 14590, Note_off_c, 0, 79, 0
3, 14590, Note_off_c, 0, 74, 0
3, 14592, Note_on_c, 0, 72, 92
3, 14592, Note_on_c, 0, 77, 92
3, 14848, Note_off_c, 0, 77, 0
3, 14848, Note_off_c, 0, 72, 0
3, 14880, Note_on_c, 0, 71, 92
3, 14880, Note_on_c, 0, 76, 92
3, 14974, Note_off_c, 0, 76, 0
3, 14974, Note_off_c, 0, 71, 0
3, 14976, Note_on_c, 0, 69, 92
3, 14976, Note_on_c, 0, 74, 92
3, 15232, Note_off_c, 0, 74, 0
3, 15232, Note_off_c, 0, 69, 0
3, 15264, Note_on_c, 0, 67, 92
3, 15264, Note_on_c, 0, 73, 92
3, 15358, Note_off_c, 0, 73, 0
3, 15358, Note_off_c, 0, 67, 0
3, 15360, Note_on_c, 0, 74, 92
3, 15454, Note_off_c, 0, 74, 0
3, 15456, Note_on_c, 0, 69, 92
3, 15550, Note_off_c, 0, 69, 0
3, 15552, Note_on_c, 0, 76, 92
3, 15646, Note_off_c, 0, 76, 0
3, 15648, Note_on_c, 0, 69, 92
3, 15742, Note_off_c, 0, 69, 0
3, 15744, Note_on_c, 0, 77, 92
3, 15838, Note_off_c, 0, 77, 0
3, 15840, Note_on_c, 0, 81, 92
3, 15934, Note_off_c, 0, 81, 0
3, 15936, Note_on_c, 0, 77, 92
3, 16030, Note_off_c, 0, 77, 0
3, 16032, Note_on_c, 0, 74, 92
3, 16126, Note_off_c, 0, 74, 0
3, 16128, Note_on_c, 0, 64, 92
3, 16128, Note_on_c, 0, 67, 92
3, 16128, Note_on_c, 0, 72, 92
3, 16288, Note_off_c, 0, 72, 0
3, 16288, Note_off_c, 0, 67, 0
3, 16288, Note_off_c, 0, 64, 0
3, 16320, Note_on_c, 0, 67, 92
3, 16320, Note_on_c, 0, 71, 92
3, 16320, Note_on_c, 0, 74, 92
3, 16480, Note_off_c, 0, 74, 0
3, 16480, Note_off_c, 0, 71, 0
3, 16480, Note_off_c, 0, 67, 0
3, 16512, Note_on_c, 0, 74, 92
3, 16608, Note_off_c, 0, 74, 0
3, 16608, Note_on_c, 0, 75, 92
3, 16704, Note_off_c, 0, 75, 0
3, 16704, Note_on_c, 0, 76, 92
3, 16798, Note_off_c, 0, 76, 0
3, 16800, Note_on_c, 0, 79, 92
3, 16894, Note_off_c, 0, 79, 0
3, 16896, Note_on_c, 0, 79, 92
3, 16896, Note_on_c, 0, 84, 92
3, 17152, Note_off_c, 0, 84, 0
3, 17152, Note_off_c, 0, 79, 0
3, 17184, Note_on_c, 0, 77, 92
3, 17184, Note_on_c, 0, 83, 92
3, 17278, Note_off_c, 0, 83, 0
3, 17278, Note_off_c, 0, 77, 0
3, 17280, Note_on_c, 0, 76, 92
3, 17280, Note_on_c, 0, 81, 92
3, 17536, Note_off_c, 0, 81, 0
3, 17536, Note_off_c, 0, 76, 0
3, 17568, Note_on_c, 0, 74, 92
3, 17568, Note_on_c, 0, 79, 92
3, 17662, Note_off_c, 0, 79, 0
3, 17662, Note_off_c, 0, 74, 0
3, 17664, Note_on_c, 0, 72, 92
3, 17664, Note_on_c, 0, 77, 92
3, 17920, Note_off_c, 0, 77, 0
3, 17920, Note_off_c, 0, 72, 0
3, 17952, Note_on_c, 0, 71, 92
3, 17952, Note_on_c, 0, 76, 92
3, 18046, Note_off_c, 0, 76, 0
3, 18046, Note_off_c, 0, 71, 0
3, 18048, Note_on_c, 0, 69, 92
3, 18048, Note_on_c, 0, 74, 92
3, 18304, Note_off_c, 0, 74, 0
3, 18304, Note_off_c, 0, 69, 0
3, 18336, Note_on_c, 0, 67, 92
3, 18336, Note_on_c, 0, 73, 92
3, 18430, Note_off_c, 0, 73, 0
3, 18430, Note_off_c, 0, 67, 0
3, 18432, Note_on_c, 0, 74, 92
3, 18526, Note_off_c, 0, 74, 0
3, 18528, Note_on_c, 0, 69, 92
3, 18622, Note_off_c, 0, 69, 0
3, 18624, Note_on_c, 0, 76, 92
3, 18718, Note_off_c, 0, 76, 0
3, 18720, Note_on_c, 0, 69, 92
3, 18814, Note_off_c, 0, 69, 0
3, 18816, Note_on_c, 0, 77, 92
3, 18910, Note_off_c, 0, 77, 0
3, 18912, Note_on_c, 0, 79, 92
3, 19006, Note_off_c, 0, 79, 0
3, 19008, Note_on_c, 0, 81, 92
3, 19102, Note_off_c, 0, 81, 0
3, 19104, Note_on_c, 0, 77, 92
3, 19198, Note_off_c, 0, 77, 0
3, 19200, Note_on_c, 0, 67, 92
3, 19200, Note_on_c, 0, 72, 92
3, 19200, Note_on_c, 0, 76, 92
3, 19360, Note_off_c, 0, 76, 0
3, 19360, Note_off_c, 0, 72, 0
3, 19360, Note_off_c, 0, 67, 0
3, 19392, Note_on_c, 0, 67, 92
3, 19392, Note_on_c, 0, 71, 92
3, 19392, Note_on_c, 0, 74, 92
3, 19552, Note_off_c, 0, 74, 0
3, 19552, Note_off_c, 0, 71, 0
3, 19552, Note_off_c, 0, 67, 0
3, 19584, Note_on_c, 0, 73, 92
3, 19678, Note_off_c, 0, 73, 0
3, 19680, Note_on_c, 0, 67, 92
3, 19774, Note_off_c, 0, 67, 0
3, 19776, Note_on_c, 0, 69, 92
3, 19870, Note_off_c, 0, 69, 0
3, 19872, Note_on_c, 0, 70, 92
3, 19966, Note_off_c, 0, 70, 0
3, 19968, Note_on_c, 0, 74, 92
3, 20062, Note_off_c, 0, 74, 0
3, 20064, Note_on_c, 0, 69, 92
3, 20158, Note_off_c, 0, 69, 0
3, 20160, Note_on_c, 0, 76, 92
3, 20254, Note_off_c, 0, 76, 0
3, 20256, Note_on_c, 0, 69, 92
3, 20350, Note_off_c, 0, 69, 0
3, 20352, Note_on_c, 0, 77, 92
3, 20446, Note_off_c, 0, 77, 0
3, 20448, Note_on_c, 0, 79, 92
3, 20542, Note_off_c, 0, 79, 0
3, 20544, Note_on_c, 0, 81, 92
3, 20638, Note_off_c, 0, 81, 0
3, 20640, Note_on_c, 0, 77, 92
3, 20734, Note_off_c, 0, 77, 0
3, 20736, Note_on_c, 0, 67, 92
3, 20736, Note_on_c, 0, 72, 92
3, 20736, Note_on_c, 0, 76, 92
3, 20896, Note_off_c, 0, 76, 0
3, 20896, Note_off_c, 0, 72, 0
3, 20896, Note_off_c, 0, 67, 0
3, 20928, Note_on_c, 0, 67, 92
3, 20928, Note_on_c, 0, 71, 92
3, 20928, Note_on_c, 0, 74, 92
3, 21088, Note_off_c, 0, 74, 0
3, 21088, Note_off_c, 0, 71, 0
3, 21088, Note_off_c, 0, 67, 0
3, 21120, Note_on_c, 0, 73, 92
3, 21216, Note_off_c, 0, 73, 0
3, 21216, Note_on_c, 0, 67, 92
3, 21312, Note_off_c, 0, 67, 0
3, 21312, Note_on_c, 0, 69, 92
3, 21408, Note_off_c, 0, 69, 0
3, 21408, Note_on_c, 0, 70, 92
3, 21504, Note_off_c, 0, 70, 0
3, 21504, Note_on_c, 0, 74, 92
3, 21600, Note_off_c, 0, 74, 0
3, 21600, Note_on_c, 0, 76, 92
3, 21696, Note_off_c, 0, 76, 0
3, 21696, Note_on_c, 0, 77, 92
3, 21792, Note_off_c, 0, 77, 0
3, 21792, Note_on_c, 0, 74, 92
3, 21886, Note_off_c, 0, 74, 0
3, 21888, Note_on_c, 0, 75, 92
3, 21984, Note_off_c, 0, 75, 0
3, 21984, Note_on_c, 0, 69, 92
3, 22080, Note_off_c, 0, 69, 0
3, 22080, Note_on_c, 0, 71, 92
3, 22176, Note_off_c, 0, 71, 0
3, 22176, Note_on_c, 0, 72, 92
3, 22272, Note_off_c, 0, 72, 0
3, 22272, Note_on_c, 0, 76, 92
3, 22368, Note_off_c, 0, 76, 0
3, 22368, Note_on_c, 0, 78, 92
3, 22464, Note_off_c, 0, 78, 0
3, 22464, Note_on_c, 0, 79, 92
3, 22558, Note_off_c, 0, 79, 0
3, 22560, Note_on_c, 0, 76, 92
3, 22654, Note_off_c, 0, 76, 0
3, 22656, Note_on_c, 0, 76, 92
3, 22656, Note_on_c, 0, 84, 92
3, 22912, Note_off_c, 0, 84, 0
3, 22912, Note_off_c, 0, 76, 0
3, 22944, Note_on_c, 0, 83, 92
3, 23038, Note_off_c, 0, 83, 0
3, 23040, Note_on_c, 0, 76, 92
3, 23040, Note_on_c, 0, 81, 92
3, 23296, Note_off_c, 0, 81, 0
3, 23296, Note_off_c, 0, 76, 0
3, 23328, Note_on_c, 0, 79, 92
3, 23422, Note_off_c, 0, 79, 0
3, 23424, Note_on_c, 0, 72, 92
3, 23424, Note_on_c, 0, 78, 92
3, 23680, Note_off_c, 0, 78, 0
3, 23680, Note_off_c, 0, 72, 0
3, 23712, Note_on_c, 0, 73, 91
3, 23712, Note_on_c, 0, 76, 91
3, 23806, Note_off_c, 0, 76, 0
3, 23806, Note_off_c, 0, 73, 0
3, 23808, Note_on_c, 0, 71, 90
3, 23808, Note_on_c, 0, 75, 90
3, 23968, Note_off_c, 0, 75, 0
3, 23968, Note_off_c, 0, 71, 0
3, 24000, Note_on_c, 0, 73, 89
3, 24094, Note_off_c, 0, 73, 0
3, 24096, Note_on_c, 0, 71, 88
3, 24190, Note_off_c, 0, 71, 0
3, 24288, Note_on_c, 0, 71, 45
3, 24384, Note_off_c, 0, 71, 0
3, 24384, Note_on_c, 0, 76, 45
3, 24480, Note_off_c, 0, 76, 0
3, 24480, Note_on_c, 0, 75, 45
3, 24576, Note_off_c, 0, 75, 0
3, 24672, Note_on_c, 0, 71, 45
3, 24768, Note_off_c, 0, 71, 0
3, 24768, Note_on_c, 0, 79, 45
3, 24864, Note_off_c, 0, 79, 0
3, 24864, Note_on_c, 0, 78, 45
3, 24958, Note_off_c, 0, 78, 0
3, 25056, Note_on_c, 0, 71, 45
3, 25152, Note_off_c, 0, 71, 0
3, 25152, Note_on_c, 0, 79, 45
3, 25248, Note_off_c, 0, 79, 0
3, 25248, Note_on_c, 0, 81, 45
3, 25342, Note_off_c, 0, 81, 0
3, 25440, Note_on_c, 0, 71, 45
3, 25536, Note_off_c, 0, 71, 0
3, 25536, Note_on_c, 0, 79, 45
3, 25632, Note_off_c, 0, 79, 0
3, 25632, Note_on_c, 0, 78, 45
3, 25726, Note_off_c, 0, 78, 0
3, 25824, Note_on_c, 0, 71, 45
3, 25920, Note_off_c, 0, 71, 0
3, 25920, Note_on_c, 0, 81, 45
3, 26016, Note_off_c, 0, 81, 0
3, 26016, Note_on_c, 0, 79, 45
3, 26110, Note_off_c, 0, 79, 0
3, 26208, Note_on_c, 0, 71, 45
3, 26304, Note_off_c, 0, 71, 0
3, 26304, Note_on_c, 0, 78, 45
3, 26400, Note_off_c, 0, 78, 0
3, 26400, Note_on_c, 0, 79, 45
3, 26494, Note_off_c, 0, 79, 0
3, 26592, Note_on_c, 0, 71, 45
3, 26688, Note_off_c, 0, 71, 0
3, 26688, Note_on_c, 0, 81, 46
3, 26784, Note_off_c, 0, 81, 0
3, 26784, Note_on_c, 0, 83, 47
3, 26878, Note_off_c, 0, 83, 0
3, 26976, Note_on_c, 0, 71, 49
3, 27072, Note_off_c, 0, 71, 0
3, 27072, Note_on_c, 0, 81, 50
3, 27168, Note_off_c, 0, 81, 0
3, 27168, Note_on_c, 0, 79, 51
3, 27262, Note_off_c, 0, 79, 0
3, 27264, Note_on_c, 0, 71, 92
3, 27358, Note_off_c, 0, 71, 0
3, 27360, Note_on_c, 0, 83, 92
3, 27454, Note_off_c, 0, 83, 0
3, 27456, Note_on_c, 0, 88, 92
3, 27550, Note_off_c, 0, 88, 0
3, 27552, Note_on_c, 0, 87, 92
3, 27646, Note_off_c, 0, 87, 0
3, 27648, Note_on_c, 0, 67, 92
3, 27742, Note_off_c, 0, 67, 0
3, 27744, Note_on_c, 0, 79, 92
3, 27838, Note_off_c, 0, 79, 0
3, 27840, Note_on_c, 0, 84, 92
3, 27934, Note_off_c, 0, 84, 0
3, 27936, Note_on_c, 0, 83, 92
3, 28030, Note_off_c, 0, 83, 0
3, 28032, Note_on_c, 0, 64, 92
3, 28126, Note_off_c, 0, 64, 0
3, 28128, Note_on_c, 0, 76, 92
3, 28222, Note_off_c, 0, 76, 0
3, 28224, Note_on_c, 0, 81, 92
3, 28318, Note_off_c, 0, 81, 0
3, 28320, Note_on_c, 0, 79, 92
3, 28414, Note_off_c, 0, 79, 0
3, 28416, Note_on_c, 0, 60, 92
3, 28510, Note_off_c, 0, 60, 0
3, 28512, Note_on_c, 0, 72, 92
3, 28606, Note_off_c, 0, 72, 0
3, 28608, Note_on_c, 0, 77, 92
3, 28702, Note_off_c, 0, 77, 0
3, 28704, Note_on_c, 0, 76, 92
3, 28798, Note_off_c, 0, 76, 0
3, 28800, Note_on_c, 0, 75, 92
3, 28894, Note_off_c, 0, 75, 0
3, 28896, Note_on_c, 0, 78, 92
3, 28990, Note_off_c, 0, 78, 0
3, 28992, Note_on_c, 0, 71, 92
3, 29086, Note_off_c, 0, 71, 0
3, 29088, Note_on_c, 0, 81, 92
3, 29182, Note_off_c, 0, 81, 0
3, 29184, Note_on_c, 0, 79, 92
3, 29278, Note_off_c, 0, 79, 0
3, 29280, Note_on_c, 0, 76, 92
3, 29374, Note_off_c, 0, 76, 0
3, 29376, Note_on_c, 0, 84, 92
3, 29470, Note_off_c, 0, 84, 0
3, 29472, Note_on_c, 0, 81, 92
3, 29566, Note_off_c, 0, 81, 0
3, 29568, Note_on_c, 0, 79, 92
3, 29662, Note_off_c, 0, 79, 0
3, 29664, Note_on_c, 0, 83, 92
3, 29758, Note_off_c, 0, 83, 0
3, 29760, Note_on_c, 0, 75, 92
3, 29854, Note_off_c, 0, 75, 0
3, 29856, Note_on_c, 0, 78, 92
3, 29950, Note_off_c, 0, 78, 0
3, 29952, Note_on_c, 0, 76, 92
3, 30046, Note_off_c, 0, 76, 0
3, 30048, Note_on_c, 0, 71, 92
3, 30142, Note_off_c, 0, 71, 0
3, 30144, Note_on_c, 0, 67, 92
3, 30238, Note_off_c, 0, 67, 0
3, 30240, Note_on_c, 0, 64, 92
3, 30334, Note_off_c, 0, 64, 0
3, 30336, Note_on_c, 0, 71, 92
3, 30430, Note_off_c, 0, 71, 0
3, 30432, Note_on_c, 0, 83, 92
3, 30526, Note_off_c, 0, 83, 0
3, 30528, Note_on_c, 0, 88, 92
3, 30622, Note_off_c, 0, 88, 0
3, 30624, Note_on_c, 0, 87, 92
3, 30718, Note_off_c, 0, 87, 0
3, 30720, Note_on_c, 0, 67, 92
3, 30814, Note_off_c, 0, 67, 0
3, 30816, Note_on_c, 0, 79, 92
3, 30910, Note_off_c, 0, 79, 0
3, 30912, Note_on_c, 0, 84, 92
3, 31006, Note_off_c, 0, 84, 0
3, 31008, Note_on_c, 0, 83, 92
3, 31102, Note_off_c, 0, 83, 0
3, 31104, Note_on_c, 0, 64, 92
3, 31198, Note_off_c, 0, 64, 0
3, 31200, Note_on_c, 0, 76, 92
3, 31294, Note_off_c, 0, 76, 0
3, 31296, Note_on_c, 0, 81, 92
3, 31390, Note_off_c, 0, 81, 0
3, 31392, Note_on_c, 0, 79, 92
3, 31486, Note_off_c, 0, 79, 0
3, 31488, Note_on_c, 0, 60, 92
3, 31582, Note_off_c, 0, 60, 0
3, 31584, Note_on_c, 0, 72, 92
3, 31678, Note_off_c, 0, 72, 0
3, 31680, Note_on_c, 0, 77, 92
3, 31774, Note_off_c, 0, 77, 0
3, 31776, Note_on_c, 0, 76, 92
3, 31870, Note_off_c, 0, 76, 0
3, 31872, Note_on_c, 0, 75, 92
3, 31966, Note_off_c, 0, 75, 0
3, 31968, Note_on_c, 0, 78, 92
3, 32062, Note_off_c, 0, 78, 0
3, 32064, Note_on_c, 0, 71, 92
3, 32158, Note_off_c, 0, 71, 0
3, 32160, Note_on_c, 0, 81, 92
3, 32254, Note_off_c, 0, 81, 0
3, 32256, Note_on_c, 0, 79, 92
3, 32350, Note_off_c, 0, 79, 0
3, 32352, Note_on_c, 0, 76, 92
3, 32446, Note_off_c, 0, 76, 0
3, 32448, Note_on_c, 0, 88, 92
3, 32542, Note_off_c, 0, 88, 0
3, 32544, Note_on_c, 0, 84, 92
3, 32638, Note_off_c, 0, 84, 0
3, 32640, Note_on_c, 0, 79, 92
3, 32734, Note_off_c, 0, 79, 0
3, 32736, Note_on_c, 0, 83, 92
3, 32830, Note_off_c, 0, 83, 0
3, 32832, Note_on_c, 0, 75, 92
3, 32926, Note_off_c, 0, 75, 0
3, 32928, Note_on_c, 0, 78, 92
3, 33022, Note_off_c, 0, 78, 0
3, 33024, Note_on_c, 0, 76, 92
3, 33312, Note_off_c, 0, 76, 0
3, 33312, Note_on_c, 0, 74, 92
3, 33408, Note_off_c, 0, 74, 0
3, 33408, Note_on_c, 0, 72, 92
3, 33408, Note_on_c, 0, 76, 92
3, 33502, Note_off_c, 0, 76, 0
3, 33502, Note_off_c, 0, 72, 0
3, 33504, Note_on_c, 0, 71, 92
3, 33598, Note_off_c, 0, 71, 0
3, 33600, Note_on_c, 0, 69, 92
3, 33694, Note_off_c, 0, 69, 0
3, 33696, Note_on_c, 0, 72, 92
3, 33790, Note_off_c, 0, 72, 0
3, 33792, Note_on_c, 0, 74, 92
3, 33792, Note_on_c, 0, 77, 92
3, 34048, Note_off_c, 0, 77, 0
3, 34048, Note_off_c, 0, 74, 0
3, 34080, Note_on_c, 0, 72, 92
3, 34174, Note_off_c, 0, 72, 0
3, 34176, Note_on_c, 0, 71, 92
3, 34270, Note_off_c, 0, 71, 0
3, 34272, Note_on_c, 0, 69, 92
3, 34366, Note_off_c, 0, 69, 0
3, 34368, Note_on_c, 0, 67, 92
3, 34462, Note_off_c, 0, 67, 0
3, 34464, Note_on_c, 0, 71, 92
3, 34558, Note_off_c, 0, 71, 0
3, 34560, Note_on_c, 0, 72, 92
3, 34560, Note_on_c, 0, 76, 92
3, 34816, Note_off_c, 0, 76, 0
3, 34816, Note_off_c, 0, 72, 0
3, 34848, Note_on_c, 0, 71, 92
3, 34942, Note_off_c, 0, 71, 0
3, 34944, Note_on_c, 0, 69, 92
3, 35038, Note_off_c, 0, 69, 0
3, 35040, Note_on_c, 0, 67, 92
3, 35134, Note_off_c, 0, 67, 0
3, 35136, Note_on_c, 0, 65, 92
3, 35230, Note_off_c, 0, 65, 0
3, 35232, Note_on_c, 0, 69, 92
3, 35326, Note_off_c, 0, 69, 0
3, 35328, Note_on_c, 0, 71, 92
3, 35328, Note_on_c, 0, 74, 92
3, 35584, Note_off_c, 0, 74, 0
3, 35584, Note_off_c, 0, 71, 0
3, 35616, Note_on_c, 0, 69, 92
3, 35710, Note_off_c, 0, 69, 0
3, 35712, Note_on_c, 0, 68, 92
3, 35806, Note_off_c, 0, 68, 0
3, 35808, Note_on_c, 0, 69, 92
3, 35902, Note_off_c, 0, 69, 0
3, 35904, Note_on_c, 0, 71, 92
3, 35998, Note_off_c, 0, 71, 0
3, 36000, Note_on_c, 0, 68, 92
3, 36094, Note_off_c, 0, 68, 0
3, 36096, Note_on_c, 0, 72, 92
3, 36190, Note_off_c, 0, 72, 0
3, 36192, Note_on_c, 0, 69, 92
3, 36286, Note_off_c, 0, 69, 0
3, 36288, Note_on_c, 0, 76, 92
3, 36382, Note_off_c, 0, 76, 0
3, 36384, Note_on_c, 0, 71, 92
3, 36478, Note_off_c, 0, 71, 0
3, 36480, Note_on_c, 0, 69, 92
3, 36574, Note_off_c, 0, 69, 0
3, 36576, Note_on_c, 0, 77, 92
3, 36670, Note_off_c, 0, 77, 0
3, 36672, Note_on_c, 0, 74, 92
3, 36766, Note_off_c, 0, 74, 0
3, 36768, Note_on_c, 0, 71, 92
3, 36862, Note_off_c, 0, 71, 0
3, 36864, Note_on_c, 0, 68, 92
3, 36958, Note_off_c, 0, 68, 0
3, 36960, Note_on_c, 0, 76, 92
3, 37054, Note_off_c, 0, 76, 0
3, 37056, Note_on_c, 0, 72, 92
3, 37150, Note_off_c, 0, 72, 0
3, 37152, Note_on_c, 0, 69, 92
3, 37246, Note_off_c, 0, 69, 0
3, 37248, Note_on_c, 0, 66, 92
3, 37342, Note_off_c, 0, 66, 0
3, 37344, Note_on_c, 0, 74, 92
3, 37438, Note_off_c, 0, 74, 0
3, 37440, Note_on_c, 0, 71, 92
3, 37534, Note_off_c, 0, 71, 0
3, 37536, Note_on_c, 0, 69, 92
3, 37630, Note_off_c, 0, 69, 0
3, 37632, Note_on_c, 0, 64, 92
3, 37632, Note_on_c, 0, 68, 92
3, 37726, Note_off_c, 0, 68, 0
3, 37726, Note_off_c, 0, 64, 0
3, 37728, Note_on_c, 0, 71, 92
3, 37824, Note_off_c, 0, 71, 0
3, 37824, Note_on_c, 0, 76, 92
3, 37920, Note_off_c, 0, 76, 0
3, 37920, Note_on_c, 0, 71, 92
3, 38014, Note_off_c, 0, 71, 0
3, 38016, Note_on_c, 0, 69, 92
3, 38112, Note_off_c, 0, 69, 0
3, 38112, Note_on_c, 0, 76, 92
3, 38208, Note_off_c, 0, 76, 0
3, 38208, Note_on_c, 0, 75, 92
3, 38304, Note_off_c, 0, 75, 0
3, 38304, Note_on_c, 0, 69, 92
3, 38398, Note_off_c, 0, 69, 0
3, 38400, Note_on_c, 0, 68, 92
3, 38496, Note_off_c, 0, 68, 0
3, 38496, Note_on_c, 0, 71, 92
3, 38592, Note_off_c, 0, 71, 0
3, 38592, Note_on_c, 0, 76, 92
3, 38688, Note_off_c, 0, 76, 0
3, 38688, Note_on_c, 0, 68, 92
3, 38782, Note_off_c, 0, 68, 0
3, 38784, Note_on_c, 0, 69, 92
3, 38880, Note_off_c, 0, 69, 0
3, 38880, Note_on_c, 0, 76, 92
3, 38976, Note_off_c, 0, 76, 0
3, 38976, Note_on_c, 0, 75, 92
3, 39072, Note_off_c, 0, 75, 0
3, 39072, Note_on_c, 0, 69, 92
3, 39166, Note_off_c, 0, 69, 0
3, 39168, Note_on_c, 0, 68, 92
3, 39264, Note_off_c, 0, 68, 0
3, 39264, Note_on_c, 0, 71, 92
3, 39360, Note_off_c, 0, 71, 0
3, 39360, Note_on_c, 0, 76, 92
3, 39456, Note_off_c, 0, 76, 0
3, 39456, Note_on_c, 0, 68, 92
3, 39550, Note_off_c, 0, 68, 0
3, 39552, Note_on_c, 0, 69, 92
3, 39648, Note_off_c, 0, 69, 0
3, 39648, Note_on_c, 0, 76, 91
3, 39744, Note_off_c, 0, 76, 0
3, 39744, Note_on_c, 0, 75, 90
3, 39840, Note_off_c, 0, 75, 0
3, 39840, Note_on_c, 0, 69, 89
3, 39934, Note_off_c, 0, 69, 0
3, 39936, Note_on_c, 0, 68, 88
3, 40032, Note_off_c, 0, 68, 0
3, 40032, Note_on_c, 0, 71, 87
3, 40128, Note_off_c, 0, 71, 0
3, 40128, Note_on_c, 0, 76, 86
3, 40224, Note_off_c, 0, 76, 0
3, 40224, Note_on_c, 0, 75, 85
3, 40320, Note_off_c, 0, 75, 0
3, 40320, Note_on_c, 0, 74, 84
3, 40416, Note_off_c, 0, 74, 0
3, 40416, Note_on_c, 0, 73, 83
3, 40512, Note_off_c, 0, 73, 0
3, 40512, Note_on_c, 0, 74, 82
3, 40608, Note_off_c, 0, 74, 0
3, 40608, Note_on_c, 0, 71, 81
3, 40702, Note_off_c, 0, 71, 0
3, 40704, Note_on_c, 0, 69, 45
3, 40704, Note_on_c, 0, 72, 45
3, 40992, Note_off_c, 0, 72, 0
3, 40992, Note_off_c, 0, 69, 0
3, 40992, Note_on_c, 0, 68, 45
3, 40992, Note_on_c, 0, 71, 45
3, 41086, Note_off_c, 0, 71, 0
3, 41086, Note_off_c, 0, 68, 0
3, 41088, Note_on_c, 0, 64, 45
3, 41088, Note_on_c, 0, 69, 45
3, 41376, Note_off_c, 0, 69, 0
3, 41376, Note_off_c, 0, 64, 0
3, 41376, Note_on_c, 0, 68, 45
3, 41470, Note_off_c, 0, 68, 0
3, 41472, Note_on_c, 0, 64, 45
3, 41472, Note_on_c, 0, 69, 45
3, 41760, Note_off_c, 0, 69, 0
3, 41760, Note_off_c, 0, 64, 0
3, 41760, Note_on_c, 0, 71, 45
3, 41854, Note_off_c, 0, 71, 0
3, 41856, Note_on_c, 0, 69, 45
3, 41856, Note_on_c, 0, 72, 45
3, 42016, Note_off_c, 0, 72, 0
3, 42016, Note_off_c, 0, 69, 0
3, 42048, Note_on_c, 0, 68, 45
3, 42048, Note_on_c, 0, 71, 45
3, 42208, Note_off_c, 0, 71, 0
3, 42208, Note_off_c, 0, 68, 0
3, 42240, Note_on_c, 0, 69, 45
3, 42240, Note_on_c, 0, 74, 45
3, 42528, Note_off_c, 0, 74, 0
3, 42528, Note_off_c, 0, 69, 0
3, 42528, Note_on_c, 0, 72, 45
3, 42622, Note_off_c, 0, 72, 0
3, 42624, Note_on_c, 0, 69, 45
3, 42624, Note_on_c, 0, 77, 45
3, 42912, Note_off_c, 0, 77, 0
3, 42912, Note_off_c, 0, 69, 0
3, 42912, Note_on_c, 0, 76, 45
3, 43006, Note_off_c, 0, 76, 0
3, 43008, Note_on_c, 0, 68, 45
3, 43008, Note_on_c, 0, 74, 45
3, 43168, Note_off_c, 0, 74, 0
3, 43168, Note_off_c, 0, 68, 0
3, 43296, Note_on_c, 0, 69, 45
3, 43296, Note_on_c, 0, 72, 45
3, 43390, Note_off_c, 0, 72, 0
3, 43390, Note_off_c, 0, 69, 0
3, 43392, Note_on_c, 0, 68, 45
3, 43392, Note_on_c, 0, 71, 45
3, 43552, Note_off_c, 0, 71, 0
3, 43552, Note_off_c, 0, 68, 0
3, 43584, Note_on_c, 0, 68, 45
3, 43678, Note_off_c, 0, 68, 0
3, 43680, Note_on_c, 0, 64, 45
3, 43774, Note_off_c, 0, 64, 0
3, 43776, Note_on_c, 0, 69, 45
3, 43776, Note_on_c, 0, 72, 45
3, 44064, Note_off_c, 0, 72, 0
3, 44064, Note_off_c, 0, 69, 0
3, 44064, Note_on_c, 0, 68, 45
3, 44064, Note_on_c, 0, 71, 45
3, 44158, Note_off_c, 0, 71, 0
3, 44158, Note_off_c, 0, 68, 0
3, 44160, Note_on_c, 0, 64, 45
3, 44160, Note_on_c, 0, 69, 45
3, 44448, Note_off_c, 0, 69, 0
3, 44448, Note_off_c, 0, 64, 0
3, 44448, Note_on_c, 0, 68, 45
3, 44542, Note_off_c, 0, 68, 0
3, 44544, Note_on_c, 0, 64, 45
3, 44544, Note_on_c, 0, 69, 45
3, 44832, Note_off_c, 0, 69, 0
3, 44832, Note_off_c, 0, 64, 0
3, 44832, Note_on_c, 0, 71, 45
3, 44926, Note_off_c, 0, 71, 0
3, 44928, Note_on_c, 0, 69, 45
3, 44928, Note_on_c, 0, 72, 45
3, 45088, Note_off_c, 0, 72, 0
3, 45088, Note_off_c, 0, 69, 0
3, 45120, Note_on_c, 0, 68, 45
3, 45120, Note_on_c, 0, 71, 45
3, 45280, Note_off_c, 0, 71, 0
3, 45280, Note_off_c, 0, 68, 0
3, 45312, Note_on_c, 0, 69, 45
3, 45312, Note_on_c, 0, 77, 45
3, 45600, Note_off_c, 0, 77, 0
3, 45600, Note_off_c, 0, 69, 0
3, 45600, Note_on_c, 0, 74, 45
3, 45694, Note_off_c, 0, 74, 0
3, 45696, Note_on_c, 0, 69, 45
3, 45696, Note_on_c, 0, 74, 45
3, 45984, Note_off_c, 0, 74, 0
3, 45984, Note_off_c, 0, 69, 0
3, 45984, Note_on_c, 0, 72, 46
3, 46078, Note_off_c, 0, 72, 0
3, 46080, Note_on_c, 0, 71, 47
3, 46240, Note_off_c, 0, 71, 0
3, 46272, Note_on_c, 0, 69, 48
3, 46366, Note_off_c, 0, 69, 0
3, 46368, Note_on_c, 0, 68, 49
3, 46462, Note_off_c, 0, 68, 0
3, 46464, Note_on_c, 0, 69, 50
3, 46558, Note_off_c, 0, 69, 0
3, 46560, Note_on_c, 0, 73, 51
3, 46654, Note_off_c, 0, 73, 0
3, 46656, Note_on_c, 0, 74, 52
3, 46750, Note_off_c, 0, 74, 0
3, 46752, Note_on_c, 0, 76, 53
3, 46846, Note_off_c, 0, 76, 0
3, 46848, Note_on_c, 0, 77, 92
3, 47104, Note_off_c, 0, 77, 0
3, 47136, Note_on_c, 0, 76, 92
3, 47230, Note_off_c, 0, 76, 0
3, 47232, Note_on_c, 0, 74, 92
3, 47232, Note_on_c, 0, 80, 92
3, 47488, Note_off_c, 0, 80, 0
3, 47488, Note_off_c, 0, 74, 0
3, 47520, Note_on_c, 0, 72, 92
3, 47520, Note_on_c, 0, 81, 92
3, 47614, Note_off_c, 0, 81, 0
3, 47614, Note_off_c, 0, 72, 0
3, 47616, Note_on_c, 0, 76, 92
3, 47616, Note_on_c, 0, 83, 92
3, 47872, Note_off_c, 0, 83, 0
3, 47872, Note_off_c, 0, 76, 0
3, 47904, Note_on_c, 0, 81, 92
3, 47904, Note_on_c, 0, 84, 92
3, 47998, Note_off_c, 0, 84, 0
3, 47998, Note_off_c, 0, 81, 0
3, 48000, Note_on_c, 0, 80, 92
3, 48000, Note_on_c, 0, 86, 92
3, 48160, Note_off_c, 0, 86, 0
3, 48160, Note_off_c, 0, 80, 0
3, 48192, Note_on_c, 0, 81, 92
3, 48286, Note_off_c, 0, 81, 0
3, 48288, Note_on_c, 0, 83, 92
3, 48382, Note_off_c, 0, 83, 0
3, 48384, Note_on_c, 0, 81, 92
3, 48384, Note_on_c, 0, 84, 92
3, 48640, Note_off_c, 0, 84, 0
3, 48640, Note_off_c, 0, 81, 0
3, 48672, Note_on_c, 0, 83, 92
3, 48766, Note_off_c, 0, 83, 0
3, 48768, Note_on_c, 0, 77, 92
3, 48768, Note_on_c, 0, 81, 92
3, 49024, Note_off_c, 0, 81, 0
3, 49024, Note_off_c, 0, 77, 0
3, 49056, Note_on_c, 0, 76, 92
3, 49056, Note_on_c, 0, 79, 92
3, 49150, Note_off_c, 0, 79, 0
3, 49150, Note_off_c, 0, 76, 0
3, 49152, Note_on_c, 0, 74, 92
3, 49152, Note_on_c, 0, 77, 92
3, 49408, Note_off_c, 0, 77, 0
3, 49408, Note_off_c, 0, 74, 0
3, 49440, Note_on_c, 0, 72, 92
3, 49440, Note_on_c, 0, 76, 92
3, 49534, Note_off_c, 0, 76, 0
3, 49534, Note_off_c, 0, 72, 0
3, 49536, Note_on_c, 0, 71, 92
3, 49536, Note_on_c, 0, 74, 92
3, 49792, Note_off_c, 0, 74, 0
3, 49792, Note_off_c, 0, 71, 0
3, 49824, Note_on_c, 0, 69, 92
3, 49824, Note_on_c, 0, 72, 92
3, 49918, Note_off_c, 0, 72, 0
3, 49918, Note_off_c, 0, 69, 0
3, 49920, Note_on_c, 0, 65, 92
3, 49920, Note_on_c, 0, 68, 92
3, 49920, Note_on_c, 0, 71, 92
3, 50080, Note_off_c, 0, 71, 0
3, 50080, Note_off_c, 0, 68, 0
3, 50080, Note_off_c, 0, 65, 0
3, 50112, Note_on_c, 0, 74, 92
3, 50206, Note_off_c, 0, 74, 0
3, 50208, Note_on_c, 0, 77, 92
3, 50302, Note_off_c, 0, 77, 0
3, 50304, Note_on_c, 0, 69, 92
3, 50304, Note_on_c, 0, 77, 92
3, 50398, Note_off_c, 0, 77, 0
3, 50398, Note_off_c, 0, 69, 0
3, 50400, Note_on_c, 0, 76, 92
3, 50494, Note_off_c, 0, 76, 0
3, 50496, Note_on_c, 0, 74, 92
3, 50590, Note_off_c, 0, 74, 0
3, 50592, Note_on_c, 0, 72, 92
3, 50686, Note_off_c, 0, 72, 0
3, 50688, Note_on_c, 0, 72, 92
3, 50782, Note_off_c, 0, 72, 0
3, 50784, Note_on_c, 0, 71, 92
3, 50878, Note_off_c, 0, 71, 0
3, 50880, Note_on_c, 0, 69, 92
3, 50974, Note_off_c, 0, 69, 0
3, 50976, Note_on_c, 0, 68, 92
3, 51070, Note_off_c, 0, 68, 0
3, 51072, Note_on_c, 0, 69, 92
3, 51166, Note_off_c, 0, 69, 0
3, 51168, Note_on_c, 0, 72, 92
3, 51262, Note_off_c, 0, 72, 0
3, 51264, Note_on_c, 0, 76, 92
3, 51358, Note_off_c, 0, 76, 0
3, 51360, Note_on_c, 0, 80, 92
3, 51454, Note_off_c, 0, 80, 0
3, 51456, Note_on_c, 0, 81, 92
3, 51456, Note_on_c, 0, 84, 92
3, 51712, Note_off_c, 0, 84, 0
3, 51712, Note_off_c, 0, 81, 0
3, 51744, Note_on_c, 0, 79, 92
3, 51744, Note_on_c, 0, 83, 92
3, 51838, Note_off_c, 0, 83, 0
3, 51838, Note_off_c, 0, 79, 0
3, 51840, Note_on_c, 0, 77, 92
3, 51840, Note_on_c, 0, 81, 92
3, 52096, Note_off_c, 0, 81, 0
3, 52096, Note_off_c, 0, 77, 0
3, 52128, Note_on_c, 0, 76, 92
3, 52128, Note_on_c, 0, 79, 92
3, 52222, Note_off_c, 0, 79, 0
3, 52222, Note_off_c, 0, 76, 0
3, 52224, Note_on_c, 0, 74, 92
3, 52224, Note_on_c, 0, 77, 92
3, 52480, Note_off_c, 0, 77, 0
3, 52480, Note_off_c, 0, 74, 0
3, 52512, Note_on_c, 0, 72, 92
3, 52512, Note_on_c, 0, 76, 92
3, 52606, Note_off_c, 0, 76, 0
3, 52606, Note_off_c, 0, 72, 0
3, 52608, Note_on_c, 0, 71, 92
3, 52608, Note_on_c, 0, 74, 92
3, 52864, Note_off_c, 0, 74, 0
3, 52864, Note_off_c, 0, 71, 0
3, 52896, Note_on_c, 0, 69, 92
3, 52896, Note_on_c, 0, 72, 92
3, 52990, Note_off_c, 0, 72, 0
3, 52990, Note_off_c, 0, 69, 0
3, 52992, Note_on_c, 0, 65, 92
3, 52992, Note_on_c, 0, 68, 92
3, 52992, Note_on_c, 0, 71, 92
3, 53152, Note_off_c, 0, 71, 0
3, 53152, Note_off_c, 0, 68, 0
3, 53152, Note_off_c, 0, 65, 0
3, 53184, Note_on_c, 0, 74, 91
3, 53278, Note_off_c, 0, 74, 0
3, 53280, Note_on_c, 0, 77, 90
3, 53374, Note_off_c, 0, 77, 0
3, 53376, Note_on_c, 0, 69, 89
3, 53376, Note_on_c, 0, 77, 89
3, 53472, Note_off_c, 0, 77, 0
3, 53472, Note_off_c, 0, 69, 0
3, 53472, Note_on_c, 0, 76, 88
3, 53566, Note_off_c, 0, 76, 0
3, 53568, Note_on_c, 0, 74, 87
3, 53662, Note_off_c, 0, 74, 0
3, 53664, Note_on_c, 0, 72, 86
3, 53758, Note_off_c, 0, 72, 0
3, 53760, Note_on_c, 0, 72, 85
3, 53856, Note_off_c, 0, 72, 0
3, 53856, Note_on_c, 0, 71, 84
3, 53950, Note_off_c, 0, 71, 0
3, 53952, Note_on_c, 0, 69, 83
3, 54046, Note_off_c, 0, 69, 0
3, 54048, Note_on_c, 0, 68, 82
3, 54142, Note_off_c, 0, 68, 0
3, 54144, Note_on_c, 0, 69, 81
3, 54238, Note_off_c, 0, 69, 0
3, 54240, Note_on_c, 0, 64, 80
3, 54334, Note_off_c, 0, 64, 0
3, 54336, Note_on_c, 0, 69, 79
3, 54430, Note_off_c, 0, 69, 0
3, 54432, Note_on_c, 0, 71, 78
3, 54526, Note_off_c, 0, 71, 0
3, 54528, Note_on_c, 0, 69, 45
3, 54528, Note_on_c, 0, 73, 45
3, 54816, Note_off_c, 0, 73, 0
3, 54816, Note_off_c, 0, 69, 0
3, 54816, Note_on_c, 0, 73, 45
3, 54816, Note_on_c, 0, 76, 45
3, 54910, Note_off_c, 0, 76, 0
3, 54910, Note_off_c, 0, 73, 0
3, 54912, Note_on_c, 0, 71, 45
3, 54912, Note_on_c, 0, 74, 45
3, 55072, Note_off_c, 0, 74, 0
3, 55072, Note_off_c, 0, 71, 0
3, 55104, Note_on_c, 0, 71, 45
3, 55104, Note_on_c, 0, 74, 45
3, 55198, Note_off_c, 0, 74, 0
3, 55198, Note_off_c, 0, 71, 0
3, 55200, Note_on_c, 0, 69, 45
3, 55200, Note_on_c, 0, 73, 45
3, 55294, Note_off_c, 0, 73, 0
3, 55294, Note_off_c, 0, 69, 0
3, 55296, Note_on_c, 0, 68, 45
3, 55296, Note_on_c, 0, 71, 45
3, 55456, Note_off_c, 0, 71, 0
3, 55456, Note_off_c, 0, 68, 0
3, 55488, Note_on_c, 0, 68, 45
3, 55488, Note_on_c, 0, 71, 45
3, 55582, Note_off_c, 0, 71, 0
3, 55582, Note_off_c, 0, 68, 0
3, 55584, Note_on_c, 0, 71, 45
3, 55584, Note_on_c, 0, 74, 45
3, 55678, Note_off_c, 0, 74, 0
3, 55678, Note_off_c, 0, 71, 0
3, 55680, Note_on_c, 0, 69, 45
3, 55680, Note_on_c, 0, 73, 45
3, 55840, Note_off_c, 0, 73, 0
3, 55840, Note_off_c, 0, 69, 0
3, 55872, Note_on_c, 0, 69, 45
3, 55872, Note_on_c, 0, 73, 45
3, 56032, Note_off_c, 0, 73, 0
3, 56032, Note_off_c, 0, 69, 0
3, 56064, Note_on_c, 0, 73, 45
3, 56064, Note_on_c, 0, 81, 45
3, 56224, Note_off_c, 0, 81, 0
3, 56224, Note_off_c, 0, 73, 0
3, 56352, Note_on_c, 0, 76, 45
3, 56352, Note_on_c, 0, 80, 45
3, 56446, Note_off_c, 0, 80, 0
3, 56446, Note_off_c, 0, 76, 0
3, 56448, Note_on_c, 0, 74, 45
3, 56448, Note_on_c, 0, 78, 45
3, 56608, Note_off_c, 0, 78, 0
3, 56608, Note_off_c, 0, 74, 0
3, 56640, Note_on_c, 0, 74, 45
3, 56640, Note_on_c, 0, 78, 45
3, 56734, Note_off_c, 0, 78, 0
3, 56734, Note_off_c, 0, 74, 0
3, 56736, Note_on_c, 0, 73, 45
3, 56736, Note_on_c, 0, 76, 45
3, 56830, Note_off_c, 0, 76, 0
3, 56830, Note_off_c, 0, 73, 0
3, 56832, Note_on_c, 0, 71, 45
3, 56832, Note_on_c, 0, 74, 45
3, 56992, Note_off_c, 0, 74, 0
3, 56992, Note_off_c, 0, 71, 0
3, 57024, Note_on_c, 0, 71, 45
3, 57024, Note_on_c, 0, 74, 45
3, 57118, Note_off_c, 0, 74, 0
3, 57118, Note_off_c, 0, 71, 0
3, 57120, Note_on_c, 0, 69, 45
3, 57120, Note_on_c, 0, 73, 45
3, 57214, Note_off_c, 0, 73, 0
3, 57214, Note_off_c, 0, 69, 0
3, 57216, Note_on_c, 0, 68, 45
3, 57216, Note_on_c, 0, 71, 45
3, 57376, Note_off_c, 0, 71, 0
3, 57376, Note_off_c, 0, 68, 0
3, 57408, Note_on_c, 0, 69, 45
3, 57568, Note_off_c, 0, 69, 0
3, 57600, Note_on_c, 0, 69, 45
3, 57600, Note_on_c, 0, 73, 45
3, 57888, Note_off_c, 0, 73, 0
3, 57888, Note_off_c, 0, 69, 0
3, 57888, Note_on_c, 0, 73, 45
3, 57888, Note_on_c, 0, 76, 45
3, 57982, Note_off_c, 0, 76, 0
3, 57982, Note_off_c, 0, 73, 0
3, 57984, Note_on_c, 0, 71, 45
3, 57984, Note_on_c, 0, 74, 45
3, 58144, Note_off_c, 0, 74, 0
3, 58144, Note_off_c, 0, 71, 0
3, 58176, Note_on_c, 0, 71, 45
3, 58176, Note_on_c, 0, 74, 45
3, 58270, Note_off_c, 0, 74, 0
3, 58270, Note_off_c, 0, 71, 0
3, 58272, Note_on_c, 0, 69, 45
3, 58272, Note_on_c, 0, 73, 45
3, 58366, Note_off_c, 0, 73, 0
3, 58366, Note_off_c, 0, 69, 0
3, 58368, Note_on_c, 0, 68, 45
3, 58368, Note_on_c, 0, 71, 45
3, 58528, Note_off_c, 0, 71, 0
3, 58528, Note_off_c, 0, 68, 0
3, 58560, Note_on_c, 0, 68, 45
3, 58560, Note_on_c, 0, 71, 45
3, 58654, Note_off_c, 0, 71, 0
3, 58654, Note_off_c, 0, 68, 0
3, 58656, Note_on_c, 0, 71, 45
3, 58656, Note_on_c, 0, 74, 45
3, 58750, Note_off_c, 0, 74, 0
3, 58750, Note_off_c, 0, 71, 0
3, 58752, Note_on_c, 0, 69, 45
3, 58752, Note_on_c, 0, 73, 45
3, 58912, Note_off_c, 0, 73, 0
3, 58912, Note_off_c, 0, 69, 0
3, 58944, Note_on_c, 0, 69, 45
3, 58944, Note_on_c, 0, 73, 45
3, 59104, Note_off_c, 0, 73, 0
3, 59104, Note_off_c, 0, 69, 0
3, 59136, Note_on_c, 0, 69, 45
3, 59136, Note_on_c, 0, 71, 45
3, 59392, Note_off_c, 0, 71, 0
3, 59392, Note_off_c, 0, 69, 0
3, 59424, Note_on_c, 0, 69, 45
3, 59424, Note_on_c, 0, 71, 45
3, 59518, Note_off_c, 0, 71, 0
3, 59518, Note_off_c, 0, 69, 0
3, 59520, Note_on_c, 0, 68, 45
3, 59520, Note_on_c, 0, 71, 45
3, 59614, Note_off_c, 0, 71, 0
3, 59614, Note_off_c, 0, 68, 0
3, 59616, Note_on_c, 0, 76, 45
3, 59710, Note_off_c, 0, 76, 0
3, 59712, Note_on_c, 0, 69, 45
3, 59712, Note_on_c, 0, 73, 45
3, 59806, Note_off_c, 0, 73, 0
3, 59806, Note_off_c, 0, 69, 0
3, 59808, Note_on_c, 0, 78, 45
3, 59902, Note_off_c, 0, 78, 0
3, 59904, Note_on_c, 0, 71, 45
3, 59904, Note_on_c, 0, 76, 45
3, 60064, Note_off_c, 0, 76, 0
3, 60064, Note_off_c, 0, 71, 0
3, 60096, Note_on_c, 0, 75, 45
3, 60118, Note_off_c, 0, 75, 0
3, 60120, Note_on_c, 0, 76, 45
3, 60142, Note_off_c, 0, 76, 0
3, 60144, Note_on_c, 0, 75, 45
3, 60166, Note_off_c, 0, 75, 0
3, 60168, Note_on_c, 0, 76, 45
3, 60190, Note_off_c, 0, 76, 0
3, 60192, Note_on_c, 0, 75, 45
3, 60214, Note_off_c, 0, 75, 0
3, 60216, Note_on_c, 0, 76, 45
3, 60238, Note_off_c, 0, 76, 0
3, 60240, Note_on_c, 0, 75, 45
3, 60262, Note_off_c, 0, 75, 0
3, 60264, Note_on_c, 0, 76, 45
3, 60286, Note_off_c, 0, 76, 0
3, 60288, Note_on_c, 0, 76, 45
3, 60448, Note_off_c, 0, 76, 0
3, 60672, Note_on_c, 0, 76, 45
3, 60768, Note_off_c, 0, 76, 0
3, 60768, Note_on_c, 0, 75, 45
3, 60864, Note_off_c, 0, 75, 0
3, 60864, Note_on_c, 0, 76, 45
3, 60960, Note_off_c, 0, 76, 0
3, 60960, Note_on_c, 0, 78, 45
3, 61056, Note_off_c, 0, 78, 0
3, 61056, Note_on_c, 0, 76, 45
3, 61152, Note_off_c, 0, 76, 0
3, 61152, Note_on_c, 0, 74, 45
3, 61248, Note_off_c, 0, 74, 0
3, 61248, Note_on_c, 0, 73, 45
3, 61344, Note_off_c, 0, 73, 0
3, 61344, Note_on_c, 0, 71, 45
3, 61438, Note_off_c, 0, 71, 0
3, 61440, Note_on_c, 0, 70, 45
3, 61536, Note_off_c, 0, 70, 0
3, 61536, Note_on_c, 0, 71, 45
3, 61632, Note_off_c, 0, 71, 0
3, 61632, Note_on_c, 0, 73, 45
3, 61728, Note_off_c, 0, 73, 0
3, 61728, Note_on_c, 0, 70, 45
3, 61824, Note_off_c, 0, 70, 0
3, 61824, Note_on_c, 0, 71, 45
3, 61920, Note_off_c, 0, 71, 0
3, 61920, Note_on_c, 0, 70, 45
3, 62016, Note_off_c, 0, 70, 0
3, 62016, Note_on_c, 0, 71, 45
3, 62110, Note_off_c, 0, 71, 0
3, 62112, Note_on_c, 0, 73, 45
3, 62206, Note_off_c, 0, 73, 0
3, 62208, Note_on_c, 0, 74, 45
3, 62232, Note_off_c, 0, 74, 0
3, 62232, Note_on_c, 0, 76, 45
3, 62256, Note_off_c, 0, 76, 0
3, 62256, Note_on_c, 0, 74, 45
3, 62280, Note_off_c, 0, 74, 0
3, 62280, Note_on_c, 0, 76, 45
3, 62304, Note_off_c, 0, 76, 0
3, 62304, Note_on_c, 0, 73, 45
3, 62400, Note_off_c, 0, 73, 0
3, 62400, Note_on_c, 0, 74, 45
3, 62496, Note_off_c, 0, 74, 0
3, 62496, Note_on_c, 0, 76, 45
3, 62592, Note_off_c, 0, 76, 0
3, 62592, Note_on_c, 0, 74, 45
3, 62688, Note_off_c, 0, 74, 0
3, 62688, Note_on_c, 0, 72, 45
3, 62784, Note_off_c, 0, 72, 0
3, 62784, Note_on_c, 0, 71, 45
3, 62878, Note_off_c, 0, 71, 0
3, 62880, Note_on_c, 0, 69, 45
3, 62974, Note_off_c, 0, 69, 0
3, 62976, Note_on_c, 0, 68, 45
3, 63072, Note_off_c, 0, 68, 0
3, 63072, Note_on_c, 0, 69, 45
3, 63168, Note_off_c, 0, 69, 0
3, 63168, Note_on_c, 0, 71, 45
3, 63264, Note_off_c, 0, 71, 0
3, 63264, Note_on_c, 0, 68, 45
3, 63360, Note_off_c, 0, 68, 0
3, 63360, Note_on_c, 0, 69, 45
3, 63456, Note_off_c, 0, 69, 0
3, 63456, Note_on_c, 0, 73, 45
3, 63552, Note_off_c, 0, 73, 0
3, 63552, Note_on_c, 0, 76, 45
3, 63646, Note_off_c, 0, 76, 0
3, 63648, Note_on_c, 0, 73, 45
3, 63742, Note_off_c, 0, 73, 0
3, 63744, Note_on_c, 0, 73, 45
3, 63744, Note_on_c, 0, 81, 45
3, 64000, Note_off_c, 0, 81, 0
3, 64000, Note_off_c, 0, 73, 0
3, 64032, Note_on_c, 0, 76, 45
3, 64032, Note_on_c, 0, 80, 45
3, 64126, Note_off_c, 0, 80, 0
3, 64126, Note_off_c, 0, 76, 0
3, 64128, Note_on_c, 0, 74, 45
3, 64128, Note_on_c, 0, 78, 45
3, 64288, Note_off_c, 0, 78, 0
3, 64288, Note_off_c, 0, 74, 0
3, 64320, Note_on_c, 0, 74, 45
3, 64320, Note_on_c, 0, 78, 45
3, 64414, Note_off_c, 0, 78, 0
3, 64414, Note_off_c, 0, 74, 0
3, 64416, Note_on_c, 0, 73, 45
3, 64416, Note_on_c, 0, 76, 45
3, 64510, Note_off_c, 0, 76, 0
3, 64510, Note_off_c, 0, 73, 0
3, 64512, Note_on_c, 0, 71, 45
3, 64512, Note_on_c, 0, 74, 45
3, 64672, Note_off_c, 0, 74, 0
3, 64672, Note_off_c, 0, 71, 0
3, 64704, Note_on_c, 0, 71, 45
3, 64704, Note_on_c, 0, 74, 45
3, 64798, Note_off_c, 0, 74, 0
3, 64798, Note_off_c, 0, 71, 0
3, 64800, Note_on_c, 0, 69, 45
3, 64800, Note_on_c, 0, 73, 45
3, 64894, Note_off_c, 0, 73, 0
3, 64894, Note_off_c, 0, 69, 0
3, 64896, Note_on_c, 0, 68, 45
3, 64896, Note_on_c, 0, 71, 45
3, 65056, Note_off_c, 0, 71, 0
3, 65056, Note_off_c, 0, 68, 0
3, 65088, Note_on_c, 0, 69, 45
3, 65248, Note_off_c, 0, 69, 0
3, 65280, Note_on_c, 0, 68, 45
3, 65280, Note_on_c, 0, 71, 45
3, 65536, Note_off_c, 0, 71, 0
3, 65536, Note_off_c, 0, 68, 0
3, 65568, Note_on_c, 0, 71, 45
3, 65662, Note_off_c, 0, 71, 0
3, 65664, Note_on_c, 0, 69, 45
3, 65824, Note_off_c, 0, 69, 0
3, 65856, Note_on_c, 0, 69, 45
3, 66016, Note_off_c, 0, 69, 0
3, 66048, Note_on_c, 0, 71, 45
3, 66304, Note_off_c, 0, 71, 0
3, 66336, Note_on_c, 0, 73, 45
3, 66430, Note_off_c, 0, 73, 0
3, 66432, Note_on_c, 0, 69, 45
3, 66526, Note_off_c, 0, 69, 0
3, 66528, Note_on_c, 0, 64, 45
3, 66622, Note_off_c, 0, 64, 0
3, 66624, Note_on_c, 0, 69, 45
3, 66718, Note_off_c, 0, 69, 0
3, 66720, Note_on_c, 0, 71, 45
3, 66814, Note_off_c, 0, 71, 0
3, 66816, Note_on_c, 0, 69, 45
3, 66816, Note_on_c, 0, 72, 45
3, 67104, Note_off_c, 0, 72, 0
3, 67104, Note_off_c, 0, 69, 0
3, 67104, Note_on_c, 0, 68, 45
3, 67104, Note_on_c, 0, 71, 45
3, 67198, Note_off_c, 0, 71, 0
3, 67198, Note_off_c, 0, 68, 0
3, 67200, Note_on_c, 0, 64, 45
3, 67200, Note_on_c, 0, 69, 45
3, 67488, Note_off_c, 0, 69, 0
3, 67488, Note_off_c, 0, 64, 0
3, 67488, Note_on_c, 0, 68, 45
3, 67582, Note_off_c, 0, 68, 0
3, 67584, Note_on_c, 0, 64, 45
3, 67584, Note_on_c, 0, 69, 45
3, 67872, Note_off_c, 0, 69, 0
3, 67872, Note_off_c, 0, 64, 0
3, 67872, Note_on_c, 0, 71, 45
3, 67966, Note_off_c, 0, 71, 0
3, 67968, Note_on_c, 0, 69, 45
3, 67968, Note_on_c, 0, 72, 45
3, 68160, Note_off_c, 0, 72, 0
3, 68160, Note_off_c, 0, 69, 0
3, 68160, Note_on_c, 0, 68, 45
3, 68160, Note_on_c, 0, 71, 45
3, 68320, Note_off_c, 0, 71, 0
3, 68320, Note_off_c, 0, 68, 0
3, 68352, Note_on_c, 0, 69, 45
3, 68352, Note_on_c, 0, 74, 45
3, 68640, Note_off_c, 0, 74, 0
3, 68640, Note_off_c, 0, 69, 0
3, 68640, Note_on_c, 0, 72, 45
3, 68734, Note_off_c, 0, 72, 0
3, 68736, Note_on_c, 0, 69, 45
3, 68736, Note_on_c, 0, 77, 45
3, 69024, Note_off_c, 0, 77, 0
3, 69024, Note_off_c, 0, 69, 0
3, 69024, Note_on_c, 0, 76, 45
3, 69118, Note_off_c, 0, 76, 0
3, 69120, Note_on_c, 0, 68, 45
3, 69120, Note_on_c, 0, 74, 45
3, 69280, Note_off_c, 0, 74, 0
3, 69280, Note_off_c, 0, 68, 0
3, 69408, Note_on_c, 0, 69, 45
3, 69408, Note_on_c, 0, 72, 45
3, 69502, Note_off_c, 0, 72, 0
3, 69502, Note_off_c, 0, 69, 0
3, 69504, Note_on_c, 0, 68, 45
3, 69504, Note_on_c, 0, 71, 45
3, 69664, Note_off_c, 0, 71, 0
3, 69664, Note_off_c, 0, 68, 0
3, 69696, Note_on_c, 0, 68, 45
3, 69790, Note_off_c, 0, 68, 0
3, 69792, Note_on_c, 0, 64, 45
3, 69886, Note_off_c, 0, 64, 0
3, 69888, Note_on_c, 0, 69, 45
3, 69888, Note_on_c, 0, 72, 45
3, 70176, Note_off_c, 0, 72, 0
3, 70176, Note_off_c, 0, 69, 0
3, 70176, Note_on_c, 0, 68, 45
3, 70176, Note_on_c, 0, 71, 45
3, 70270, Note_off_c, 0, 71, 0
3, 70270, Note_off_c, 0, 68, 0
3, 70272, Note_on_c, 0, 64, 45
3, 70272, Note_on_c, 0, 69, 45
3, 70560, Note_off_c, 0, 69, 0
3, 70560, Note_off_c, 0, 64, 0
3, 70560, Note_on_c, 0, 68, 45
3, 70654, Note_off_c, 0, 68, 0
3, 70656, Note_on_c, 0, 64, 45
3, 70656, Note_on_c, 0, 69, 45
3, 70944, Note_off_c, 0, 69, 0
3, 70944, Note_off_c, 0, 64, 0
3, 70944, Note_on_c, 0, 71, 45
3, 71038, Note_off_c, 0, 71, 0
3, 71040, Note_on_c, 0, 69, 45
3, 71040, Note_on_c, 0, 72, 45
3, 71200, Note_off_c, 0, 72, 0
3, 71200, Note_off_c, 0, 69, 0
3, 71232, Note_on_c, 0, 68, 45
3, 71232, Note_on_c, 0, 71, 45
3, 71392, Note_off_c, 0, 71, 0
3, 71392, Note_off_c, 0, 68, 0
3, 71424, Note_on_c, 0, 69, 45
3, 71424, Note_on_c, 0, 77, 45
3, 71712, Note_off_c, 0, 77, 0
3, 71712, Note_off_c, 0, 69, 0
3, 71712, Note_on_c, 0, 74, 47
3, 71806, Note_off_c, 0, 74, 0
3, 71808, Note_on_c, 0, 69, 48
3, 71808, Note_on_c, 0, 74, 48
3, 72096, Note_off_c, 0, 74, 0
3, 72096, Note_off_c, 0, 69, 0
3, 72096, Note_on_c, 0, 72, 50
3, 72190, Note_off_c, 0, 72, 0
3, 72192, Note_on_c, 0, 71, 51
3, 72352, Note_off_c, 0, 71, 0
3, 72384, Note_on_c, 0, 69, 52
3, 72478, Note_off_c, 0, 69, 0
3, 72480, Note_on_c, 0, 68, 53
3, 72574, Note_off_c, 0, 68, 0
3, 72576, Note_on_c, 0, 69, 54
3, 72670, Note_off_c, 0, 69, 0
3, 72672, Note_on_c, 0, 73, 55
3, 72766, Note_off_c, 0, 73, 0
3, 72768, Note_on_c, 0, 74, 56
3, 72862, Note_off_c, 0, 74, 0
3, 72864, Note_on_c, 0, 76, 57
3, 72958, Note_off_c, 0, 76, 0
3, 72960, Note_on_c, 0, 77, 92
3, 73216, Note_off_c, 0, 77, 0
3, 73248, Note_on_c, 0, 76, 92
3, 73342, Note_off_c, 0, 76, 0
3, 73344, Note_on_c, 0, 74, 92
3, 73344, Note_on_c, 0, 80, 92
3, 73600, Note_off_c, 0, 80, 0
3, 73600, Note_off_c, 0, 74, 0
3, 73632, Note_on_c, 0, 72, 92
3, 73632, Note_on_c, 0, 81, 92
3, 73726, Note_off_c, 0, 81, 0
3, 73726, Note_off_c, 0, 72, 0
3, 73728, Note_on_c, 0, 71, 92
3, 73728, Note_on_c, 0, 74, 92
3, 73888, Note_off_c, 0, 74, 0
3, 73888, Note_off_c, 0, 71, 0
3, 73920, Note_on_c, 0, 69, 92
3, 73920, Note_on_c, 0, 72, 92
3, 74014, Note_off_c, 0, 72, 0
3, 74014, Note_off_c, 0, 69, 0
3, 74016, Note_on_c, 0, 68, 92
3, 74016, Note_on_c, 0, 71, 92
3, 74110, Note_off_c, 0, 71, 0
3, 74110, Note_off_c, 0, 68, 0
3, 74112, Note_on_c, 0, 69, 92
3, 74206, Note_off_c, 0, 69, 0
3, 74208, Note_on_c, 0, 72, 92
3, 74302, Note_off_c, 0, 72, 0
3, 74304, Note_on_c, 0, 74, 92
3, 74398, Note_off_c, 0, 74, 0
3, 74400, Note_on_c, 0, 76, 92
3, 74494, Note_off_c, 0, 76, 0
3, 74496, Note_on_c, 0, 82, 92
3, 74784, Note_off_c, 0, 82, 0
3, 74784, Note_on_c, 0, 79, 92
3, 74878, Note_off_c, 0, 79, 0
3, 74880, Note_on_c, 0, 79, 92
3, 74974, Note_off_c, 0, 79, 0
3, 74976, Note_on_c, 0, 77, 92
3, 75070, Note_off_c, 0, 77, 0
3, 75072, Note_on_c, 0, 76, 92
3, 75166, Note_off_c, 0, 76, 0
3, 75168, Note_on_c, 0, 74, 92
3, 75262, Note_off_c, 0, 74, 0
3, 75264, Note_on_c, 0, 84, 92
3, 75520, Note_off_c, 0, 84, 0
3, 75552, Note_on_c, 0, 81, 92
3, 75646, Note_off_c, 0, 81, 0
3, 75648, Note_on_c, 0, 81, 92
3, 75744, Note_off_c, 0, 81, 0
3, 75744, Note_on_c, 0, 80, 92
3, 75838, Note_off_c, 0, 80, 0
3, 75840, Note_on_c, 0, 78, 92
3, 75934, Note_off_c, 0, 78, 0
3, 75936, Note_on_c, 0, 76, 92
3, 76030, Note_off_c, 0, 76, 0
3, 76032, Note_on_c, 0, 81, 92
3, 76032, Note_on_c, 0, 86, 92
3, 76288, Note_off_c, 0, 86, 0
3, 76288, Note_off_c, 0, 81, 0
3, 76320, Note_on_c, 0, 80, 92
3, 76414, Note_off_c, 0, 80, 0
3, 76416, Note_on_c, 0, 81, 92
3, 76416, Note_on_c, 0, 86, 92
3, 76672, Note_off_c, 0, 86, 0
3, 76672, Note_off_c, 0, 81, 0
3, 76704, Note_on_c, 0, 80, 92
3, 76798, Note_off_c, 0, 80, 0
3, 76800, Note_on_c, 0, 81, 92
3, 76800, Note_on_c, 0, 86, 92
3, 77056, Note_off_c, 0, 86, 0
3, 77056, Note_off_c, 0, 81, 0
3, 77088, Note_on_c, 0, 80, 92
3, 77182, Note_off_c, 0, 80, 0
3, 77184, Note_on_c, 0, 81, 92
3, 77184, Note_on_c, 0, 86, 92
3, 77440, Note_off_c, 0, 86, 0
3, 77440, Note_off_c, 0, 81, 0
3, 77472, Note_on_c, 0, 80, 92
3, 77566, Note_off_c, 0, 80, 0
3, 77664, Note_on_c, 0, 64, 60
3, 77760, Note_off_c, 0, 64, 0
3, 77760, Note_on_c, 0, 76, 60
3, 77856, Note_off_c, 0, 76, 0
3, 77856, Note_on_c, 0, 74, 60
3, 77950, Note_off_c, 0, 74, 0
3, 78048, Note_on_c, 0, 64, 60
3, 78144, Note_off_c, 0, 64, 0
3, 78144, Note_on_c, 0, 72, 60
3, 78240, Note_off_c, 0, 72, 0
3, 78240, Note_on_c, 0, 71, 60
3, 78334, Note_off_c, 0, 71, 0
3, 78432, Note_on_c, 0, 64, 60
3, 78528, Note_off_c, 0, 64, 0
3, 78528, Note_on_c, 0, 69, 60
3, 78624, Note_off_c, 0, 69, 0
3, 78624, Note_on_c, 0, 71, 60
3, 78718, Note_off_c, 0, 71, 0
3, 78816, Note_on_c, 0, 64, 60
3, 78912, Note_off_c, 0, 64, 0
3, 78912, Note_on_c, 0, 69, 60
3, 79008, Note_off_c, 0, 69, 0
3, 79008, Note_on_c, 0, 68, 60
3, 79102, Note_off_c, 0, 68, 0
3, 79104, Note_on_c, 0, 62, 60
3, 79104, Note_on_c, 0, 74, 60
3, 79264, Note_off_c, 0, 74, 0
3, 79264, Note_off_c, 0, 62, 0
3, 79392, Note_on_c, 0, 60, 60
3, 79392, Note_on_c, 0, 72, 60
3, 79486, Note_off_c, 0, 72, 0
3, 79486, Note_off_c, 0, 60, 0
3, 79488, Note_on_c, 0, 59, 60
3, 79488, Note_on_c, 0, 71, 60
3, 79776, Note_off_c, 0, 71, 0
3, 79776, Note_off_c, 0, 59, 0
3, 79776, Note_on_c, 0, 60, 60
3, 79776, Note_on_c, 0, 72, 60
3, 79870, Note_off_c, 0, 72, 0
3, 79870, Note_off_c, 0, 60, 0
3, 79872, Note_on_c, 0, 62, 60
3, 79872, Note_on_c, 0, 74, 60
3, 80160, Note_off_c, 0, 74, 0
3, 80160, Note_off_c, 0, 62, 0
3, 80160, Note_on_c, 0, 64, 61
3, 80160, Note_on_c, 0, 76, 61
3, 80254, Note_off_c, 0, 76, 0
3, 80254, Note_off_c, 0, 64, 0
3, 80256, Note_on_c, 0, 62, 62
3, 80256, Note_on_c, 0, 74, 62
3, 80448, Note_off_c, 0, 74, 0
3, 80448, Note_off_c, 0, 62, 0
3, 80448, Note_on_c, 0, 60, 63
3, 80448, Note_on_c, 0, 72, 63
3, 80608, Note_off_c, 0, 72, 0
3, 80608, Note_off_c, 0, 60, 0
3, 80640, Note_on_c, 0, 76, 92
3, 80640, Note_on_c, 0, 81, 92
3, 80896, Note_off_c, 0, 81, 0
3, 80896, Note_off_c, 0, 76, 0
3, 80928, Note_on_c, 0, 74, 92
3, 80928, Note_on_c, 0, 79, 92
3, 81022, Note_off_c, 0, 79, 0
3, 81022, Note_off_c, 0, 74, 0
3, 81024, Note_on_c, 0, 72, 92
3, 81024, Note_on_c, 0, 77, 92
3, 81280, Note_off_c, 0, 77, 0
3, 81280, Note_off_c, 0, 72, 0
3, 81312, Note_on_c, 0, 71, 92
3, 81312, Note_on_c, 0, 76, 92
3, 81406, Note_off_c, 0, 76, 0
3, 81406, Note_off_c, 0, 71, 0
3, 81408, Note_on_c, 0, 69, 92
3, 81408, Note_on_c, 0, 74, 92
3, 81664, Note_off_c, 0, 74, 0
3, 81664, Note_off_c, 0, 69, 0
3, 81696, Note_on_c, 0, 72, 92
3, 81790, Note_off_c, 0, 72, 0
3, 81792, Note_on_c, 0, 71, 92
3, 82048, Note_off_c, 0, 71, 0
3, 82080, Note_on_c, 0, 69, 92
3, 82174, Note_off_c, 0, 69, 0
3, 82176, Note_on_c, 0, 68, 92
3, 82270, Note_off_c, 0, 68, 0
3, 82272, Note_on_c, 0, 71, 92
3, 82366, Note_off_c, 0, 71, 0
3, 82368, Note_on_c, 0, 64, 92
3, 82462, Note_off_c, 0, 64, 0
3, 82464, Note_on_c, 0, 74, 92
3, 82558, Note_off_c, 0, 74, 0
3, 82560, Note_on_c, 0, 72, 92
3, 82654, Note_off_c, 0, 72, 0
3, 82656, Note_on_c, 0, 69, 92
3, 82750, Note_off_c, 0, 69, 0
3, 82752, Note_on_c, 0, 77, 92
3, 82846, Note_off_c, 0, 77, 0
3, 82848, Note_on_c, 0, 74, 92
3, 82942, Note_off_c, 0, 74, 0
3, 82944, Note_on_c, 0, 64, 92
3, 82944, Note_on_c, 0, 69, 92
3, 82944, Note_on_c, 0, 72, 92
3, 83104, Note_off_c, 0, 72, 0
3, 83104, Note_off_c, 0, 69, 0
3, 83104, Note_off_c, 0, 64, 0
3, 83136, Note_on_c, 0, 64, 92
3, 83136, Note_on_c, 0, 68, 92
3, 83136, Note_on_c, 0, 71, 92
3, 83296, Note_off_c, 0, 71, 0
3, 83296, Note_off_c, 0, 68, 0
3, 83296, Note_off_c, 0, 64, 0
3, 83328, Note_on_c, 0, 69, 92
3, 83488, Note_off_c, 0, 69, 0
3, 83712, Note_on_c, 0, 64, 92
3, 83806, Note_off_c, 0, 64, 0
3, 83808, Note_on_c, 0, 76, 92
3, 83902, Note_off_c, 0, 76, 0
3, 83904, Note_on_c, 0, 81, 92
3, 83998, Note_off_c, 0, 81, 0
3, 84000, Note_on_c, 0, 79, 92
3, 84094, Note_off_c, 0, 79, 0
3, 84096, Note_on_c, 0, 60, 92
3, 84190, Note_off_c, 0, 60, 0
3, 84192, Note_on_c, 0, 72, 92
3, 84286, Note_off_c, 0, 72, 0
3, 84288, Note_on_c, 0, 77, 92
3, 84382, Note_off_c, 0, 77, 0
3, 84384, Note_on_c, 0, 76, 92
3, 84478, Note_off_c, 0, 76, 0
3, 84480, Note_on_c, 0, 57, 92
3, 84574, Note_off_c, 0, 57, 0
3, 84576, Note_on_c, 0, 69, 92
3, 84670, Note_off_c, 0, 69, 0
3, 84672, Note_on_c, 0, 74, 92
3, 84766, Note_off_c, 0, 74, 0
3, 84768, Note_on_c, 0, 72, 92
3, 84862, Note_off_c, 0, 72, 0
3, 84864, Note_on_c, 0, 53, 92
3, 84958, Note_off_c, 0, 53, 0
3, 84960, Note_on_c, 0, 65, 92
3, 85054, Note_off_c, 0, 65, 0
3, 85056, Note_on_c, 0, 71, 92
3, 85150, Note_off_c, 0, 71, 0
3, 85152, Note_on_c, 0, 69, 92
3, 85246, Note_off_c, 0, 69, 0
3, 85248, Note_on_c, 0, 68, 92
3, 85342, Note_off_c, 0, 68, 0
3, 85344, Note_on_c, 0, 71, 92
3, 85438, Note_off_c, 0, 71, 0
3, 85440, Note_on_c, 0, 64, 92
3, 85534, Note_off_c, 0, 64, 0
3, 85536, Note_on_c, 0, 74, 92
3, 85630, Note_off_c, 0, 74, 0
3, 85632, Note_on_c, 0, 72, 92
3, 85726, Note_off_c, 0, 72, 0
3, 85728, Note_on_c, 0, 69, 92
3, 85822, Note_off_c, 0, 69, 0
3, 85824, Note_on_c, 0, 77, 92
3, 85918, Note_off_c, 0, 77, 0
3, 85920, Note_on_c, 0, 74, 92
3, 86014, Note_off_c, 0, 74, 0
3, 86016, Note_on_c, 0, 64, 92
3, 86016, Note_on_c, 0, 69, 92
3, 86016, Note_on_c, 0, 72, 92
3, 86176, Note_off_c, 0, 72, 0
3, 86176, Note_off_c, 0, 69, 0
3, 86176, Note_off_c, 0, 64, 0
3, 86208, Note_on_c, 0, 64, 92
3, 86208, Note_on_c, 0, 68, 92
3, 86208, Note_on_c, 0, 71, 92
3, 86368, Note_off_c, 0, 71, 0
3, 86368, Note_off_c, 0, 68, 0
3, 86368, Note_off_c, 0, 64, 0
3, 86400, Note_on_c, 0, 73, 92
3, 86494, Note_off_c, 0, 73, 0
3, 86496, Note_on_c, 0, 67, 92
3, 86590, Note_off_c, 0, 67, 0
3, 86592, Note_on_c, 0, 69, 92
3, 86686, Note_off_c, 0, 69, 0
3, 86688, Note_on_c, 0, 70, 92
3, 86782, Note_off_c, 0, 70, 0
3, 86784, Note_on_c, 0, 69, 92
3, 86784, Note_on_c, 0, 74, 92
3, 86880, Note_off_c, 0, 74, 0
3, 86880, Note_off_c, 0, 69, 0
3, 86880, Note_on_c, 0, 76, 92
3, 86976, Note_off_c, 0, 76, 0
3, 86976, Note_on_c, 0, 77, 92
3, 87072, Note_off_c, 0, 77, 0
3, 87072, Note_on_c, 0, 74, 92
3, 87166, Note_off_c, 0, 74, 0
3, 87168, Note_on_c, 0, 75, 92
3, 87262, Note_off_c, 0, 75, 0
3, 87264, Note_on_c, 0, 69, 92
3, 87358, Note_off_c, 0, 69, 0
3, 87360, Note_on_c, 0, 71, 92
3, 87454, Note_off_c, 0, 71, 0
3, 87456, Note_on_c, 0, 72, 92
3, 87550, Note_off_c, 0, 72, 0
3, 87552, Note_on_c, 0, 71, 92
3, 87552, Note_on_c, 0, 76, 92
3, 87648, Note_off_c, 0, 76, 0
3, 87648, Note_off_c, 0, 71, 0
3, 87648, Note_on_c, 0, 78, 92
3, 87744, Note_off_c, 0, 78, 0
3, 87744, Note_on_c, 0, 80, 92
3, 87838, Note_off_c, 0, 80, 0
3, 87840, Note_on_c, 0, 76, 92
3, 87934, Note_off_c, 0, 76, 0
3, 87936, Note_on_c, 0, 80, 92
3, 88030, Note_off_c, 0, 80, 0
3, 88032, Note_on_c, 0, 74, 92
3, 88126, Note_off_c, 0, 74, 0
3, 88128, Note_on_c, 0, 76, 92
3, 88222, Note_off_c, 0, 76, 0
3, 88224, Note_on_c, 0, 77, 92
3, 88318, Note_off_c, 0, 77, 0
3, 88320, Note_on_c, 0, 76, 92
3, 88320, Note_on_c, 0, 81, 92
3, 88414, Note_off_c, 0, 81, 0
3, 88414, Note_off_c, 0, 76, 0
3, 88416, Note_on_c, 0, 76, 92
3, 88510, Note_off_c, 0, 76, 0
3, 88512, Note_on_c, 0, 77, 92
3, 88606, Note_off_c, 0, 77, 0
3, 88608, Note_on_c, 0, 74, 92
3, 88702, Note_off_c, 0, 74, 0
3, 88704, Note_on_c, 0, 72, 92
3, 88798, Note_off_c, 0, 72, 0
3, 88800, Note_on_c, 0, 69, 92
3, 88894, Note_off_c, 0, 69, 0
3, 88896, Note_on_c, 0, 76, 92
3, 88990, Note_off_c, 0, 76, 0
3, 88992, Note_on_c, 0, 68, 92
3, 89086, Note_off_c, 0, 68, 0
3, 89088, Note_on_c, 0, 84, 45
3, 89182, Note_off_c, 0, 84, 0
3, 89184, Note_on_c, 0, 76, 45
3, 89278, Note_off_c, 0, 76, 0
3, 89280, Note_on_c, 0, 81, 45
3, 89374, Note_off_c, 0, 81, 0
3, 89376, Note_on_c, 0, 79, 45
3, 89376, Note_on_c, 0, 83, 45
3, 89470, Note_off_c, 0, 83, 0
3, 89470, Note_off_c, 0, 79, 0
3, 89472, Note_on_c, 0, 81, 45
3, 89566, Note_off_c, 0, 81, 0
3, 89568, Note_on_c, 0, 72, 45
3, 89662, Note_off_c, 0, 72, 0
3, 89664, Note_on_c, 0, 77, 45
3, 89758, Note_off_c, 0, 77, 0
3, 89760, Note_on_c, 0, 76, 45
3, 89760, Note_on_c, 0, 79, 45
3, 89854, Note_off_c, 0, 79, 0
3, 89854, Note_off_c, 0, 76, 0
3, 89856, Note_on_c, 0, 77, 45
3, 89950, Note_off_c, 0, 77, 0
3, 89952, Note_on_c, 0, 69, 45
3, 90046, Note_off_c, 0, 69, 0
3, 90048, Note_on_c, 0, 74, 45
3, 90142, Note_off_c, 0, 74, 0
3, 90144, Note_on_c, 0, 72, 45
3, 90144, Note_on_c, 0, 76, 45
3, 90238, Note_off_c, 0, 76, 0
3, 90238, Note_off_c, 0, 72, 0
3, 90240, Note_on_c, 0, 74, 45
3, 90334, Note_off_c, 0, 74, 0
3, 90336, Note_on_c, 0, 65, 45
3, 90430, Note_off_c, 0, 65, 0
3, 90432, Note_on_c, 0, 71, 45
3, 90526, Note_off_c, 0, 71, 0
3, 90528, Note_on_c, 0, 69, 45
3, 90528, Note_on_c, 0, 72, 45
3, 90622, Note_off_c, 0, 72, 0
3, 90622, Note_off_c, 0, 69, 0
3, 90624, Note_on_c, 0, 71, 45
3, 90784, Note_off_c, 0, 71, 0
3, 90816, Note_on_c, 0, 65, 92
3, 90816, Note_on_c, 0, 71, 92
3, 90816, Note_on_c, 0, 77, 92
3, 90976, Note_off_c, 0, 77, 0
3, 90976, Note_off_c, 0, 71, 0
3, 90976, Note_off_c, 0, 65, 0
3, 91008, Note_on_c, 0, 69, 92
3, 91008, Note_on_c, 0, 72, 92
3, 91008, Note_on_c, 0, 76, 92
3, 91168, Note_off_c, 0, 76, 0
3, 91168, Note_off_c, 0, 72, 0
3, 91168, Note_off_c, 0, 69, 0
3, 91200, Note_on_c, 0, 59, 92
3, 91200, Note_on_c, 0, 64, 92
3, 91200, Note_on_c, 0, 68, 92
3, 91360, Note_off_c, 0, 68, 0
3, 91360, Note_off_c, 0, 64, 0
3, 91360, Note_off_c, 0, 59, 0
3, 91392, Note_on_c, 0, 84, 45
3, 91486, Note_off_c, 0, 84, 0
3, 91488, Note_on_c, 0, 76, 45
3, 91582, Note_off_c, 0, 76, 0
3, 91584, Note_on_c, 0, 81, 45
3, 91678, Note_off_c, 0, 81, 0
3, 91680, Note_on_c, 0, 79, 45
3, 91680, Note_on_c, 0, 83, 45
3, 91774, Note_off_c, 0, 83, 0
3, 91774, Note_off_c, 0, 79, 0
3, 91776, Note_on_c, 0, 81, 45
3, 91870, Note_off_c, 0, 81, 0
3, 91872, Note_on_c, 0, 72, 46
3, 91966, Note_off_c, 0, 72, 0
3, 91968, Note_on_c, 0, 77, 47
3, 92062, Note_off_c, 0, 77, 0
3, 92064, Note_on_c, 0, 76, 48
3, 92064, Note_on_c, 0, 79, 48
3, 92158, Note_off_c, 0, 79, 0
3, 92158, Note_off_c, 0, 76, 0
3, 92160, Note_on_c, 0, 77, 49
3, 92254, Note_off_c, 0, 77, 0
3, 92256, Note_on_c, 0, 69, 50
3, 92350, Note_off_c, 0, 69, 0
3, 92352, Note_on_c, 0, 74, 51
3, 92446, Note_off_c, 0, 74, 0
3, 92448, Note_on_c, 0, 72, 52
3, 92448, Note_on_c, 0, 76, 52
3, 92542, Note_off_c, 0, 76, 0
3, 92542, Note_off_c, 0, 72, 0
3, 92544, Note_on_c, 0, 74, 53
3, 92638, Note_off_c, 0, 74, 0
3, 92640, Note_on_c, 0, 65, 54
3, 92734, Note_off_c, 0, 65, 0
3, 92736, Note_on_c, 0, 71, 55
3, 92830, Note_off_c, 0, 71, 0
3, 92832, Note_on_c, 0, 69, 56
3, 92832, Note_on_c, 0, 72, 56
3, 92926, Note_off_c, 0, 72, 0
3, 92926, Note_off_c, 0, 69, 0
3, 92928, Note_on_c, 0, 71, 57
3, 93088, Note_off_c, 0, 71, 0
3, 93120, Note_on_c, 0, 65, 92
3, 93120, Note_on_c, 0, 71, 92
3, 93120, Note_on_c, 0, 77, 92
3, 93280, Note_off_c, 0, 77, 0
3, 93280, Note_off_c, 0, 71, 0
3, 93280, Note_off_c, 0, 65, 0
3, 93312, Note_on_c, 0, 69, 92
3, 93312, Note_on_c, 0, 72, 92
3, 93312, Note_on_c, 0, 76, 92
3, 93472, Note_off_c, 0, 76, 0
3, 93472, Note_off_c, 0, 72, 0
3, 93472, Note_off_c, 0, 69, 0
3, 93504, Note_on_c, 0, 59, 92
3, 93504, Note_on_c, 0, 64, 92
3, 93504, Note_on_c, 0, 68, 92
3, 93664, Note_off_c, 0, 68, 0
3, 93664, Note_off_c, 0, 64, 0
3, 93664, Note_off_c, 0, 59, 0
3, 93696, Note_on_c, 0, 69, 92
3, 93790, Note_off_c, 0, 69, 0
3, 93792, Note_on_c, 0, 64, 92
3, 93886, Note_off_c, 0, 64, 0
3, 93888, Note_on_c, 0, 72, 92
3, 93982, Note_off_c, 0, 72, 0
3, 93984, Note_on_c, 0, 69, 92
3, 94078, Note_off_c, 0, 69, 0
3, 94080, Note_on_c, 0, 76, 92
3, 94174, Note_off_c, 0, 76, 0
3, 94176, Note_on_c, 0, 72, 92
3, 94270, Note_off_c, 0, 72, 0
3, 94272, Note_on_c, 0, 71, 92
3, 94366, Note_off_c, 0, 71, 0
3, 94368, Note_on_c, 0, 68, 92
3, 94462, Note_off_c, 0, 68, 0
3, 94464, Note_on_c, 0, 69, 92
3, 94558, Note_off_c, 0, 69, 0
3, 94560, Note_on_c, 0, 64, 92
3, 94560, Note_on_c, 0, 76, 92
3, 94654, Note_off_c, 0, 76, 0
3, 94654, Note_off_c, 0, 64, 0
3, 94656, Note_on_c, 0, 64, 92
3, 94656, Note_on_c, 0, 76, 92
3, 94750, Note_off_c, 0, 76, 0
3, 94750, Note_off_c, 0, 64, 0
3, 94752, Note_on_c, 0, 64, 92
3, 94752, Note_on_c, 0, 76, 92
3, 94846, Note_off_c, 0, 76, 0
3, 94846, Note_off_c, 0, 64, 0
3, 94848, Note_on_c, 0, 64, 92
3, 94848, Note_on_c, 0, 76, 92
3, 94942, Note_off_c, 0, 76, 0
3, 94942, Note_off_c, 0, 64, 0
3, 94944, Note_on_c, 0, 64, 92
3, 94944, Note_on_c, 0, 76, 92
3, 95038, Note_off_c, 0, 76, 0
3, 95038, Note_off_c, 0, 64, 0
3, 95040, Note_on_c, 0, 64, 92
3, 95040, Note_on_c, 0, 76, 92
3, 95134, Note_off_c, 0, 76, 0
3, 95134, Note_off_c, 0, 64, 0
3, 95136, Note_on_c, 0, 64, 92
3, 95136, Note_on_c, 0, 76, 92
3, 95230, Note_off_c, 0, 76, 0
3, 95230, Note_off_c, 0, 64, 0
3, 95232, Note_on_c, 0, 64, 92
3, 95232, Note_on_c, 0, 76, 92
3, 95392, Note_off_c, 0, 76, 0
3, 95392, Note_off_c, 0, 64, 0
3, 95424, Note_on_c, 0, 72, 92
3, 95424, Note_on_c, 0, 76, 92
3, 95424, Note_on_c, 0, 81, 92
3, 95584, Note_off_c, 0, 81, 0
3, 95584, Note_off_c, 0, 76, 0
3, 95584, Note_off_c, 0, 72, 0
3, 95616, Note_on_c, 0, 76, 92
3, 95616, Note_on_c, 0, 81, 92
3, 95616, Note_on_c, 0, 84, 92
3, 95776, Note_off_c, 0, 84, 0
3, 95776, Note_off_c, 0, 81, 0
3, 95776, Note_off_c, 0, 76, 0
3, 95808, Note_on_c, 0, 76, 92
3, 95808, Note_on_c, 0, 80, 92
3, 95808, Note_on_c, 0, 83, 92
3, 95968, Note_off_c, 0, 83, 0
3, 95968, Note_off_c, 0, 80, 0
3, 95968, Note_off_c, 0, 76, 0
3, 96000, Note_on_c, 0, 81, 92
3, 96160, Note_off_c, 0, 81, 0
3, 96192, Note_on_c, 0, 60, 92
3, 96192, Note_on_c, 0, 64, 92
3, 96192, Note_on_c, 0, 69, 92
3, 96352, Note_off_c, 0, 69, 0
3, 96352, Note_off_c, 0, 64, 0
3, 96352, Note_off_c, 0, 60, 0
3, 96384, Note_on_c, 0, 60, 92
3, 96384, Note_on_c, 0, 64, 92
3, 96384, Note_on_c, 0, 69, 92
3, 96544, Note_off_c, 0, 69, 0
3, 96544, Note_off_c, 0, 64, 0
3, 96544, Note_off_c, 0, 60, 0
3, 96544, End_track
4, 0, Start_track
4, 0, Title_t, "Piano"
4, 0, Channel_prefix, 1
4, 0, Control_c, 1, 7, 127
4, 0, Control_c, 1, 10, 64
4, 0, Program_c, 1, 0
4, 96, Note_on_c, 1, 57, 45
4, 192, Note_off_c, 1, 57, 0
4, 192, Note_on_c, 1, 64, 45
4, 288, Note_off_c, 1, 64, 0
4, 288, Note_on_c, 1, 62, 45
4, 382, Note_off_c, 1, 62, 0
4, 480, Note_on_c, 1, 57, 45
4, 576, Note_off_c, 1, 57, 0
4, 576, Note_on_c, 1, 60, 45
4, 672, Note_off_c, 1, 60, 0
4, 672, Note_on_c, 1, 59, 45
4, 766, Note_off_c, 1, 59, 0
4, 864, Note_on_c, 1, 57, 45
4, 960, Note_off_c, 1, 57, 0
4, 960, Note_on_c, 1, 60, 45
4, 1056, Note_off_c, 1, 60, 0
4, 1056, Note_on_c, 1, 56, 45
4, 1150, Note_off_c, 1, 56, 0
4, 1248, Note_on_c, 1, 57, 45
4, 1344, Note_off_c, 1, 57, 0
4, 1344, Note_on_c, 1, 64, 45
4, 1440, Note_off_c, 1, 64, 0
4, 1440, Note_on_c, 1, 52, 45
4, 1534, Note_off_c, 1, 52, 0
4, 1632, Note_on_c, 1, 53, 45
4, 1728, Note_off_c, 1, 53, 0
4, 1728, Note_on_c, 1, 65, 45
4, 1824, Note_off_c, 1, 65, 0
4, 1824, Note_on_c, 1, 64, 45
4, 1918, Note_off_c, 1, 64, 0
4, 2016, Note_on_c, 1, 50, 45
4, 2112, Note_off_c, 1, 50, 0
4, 2112, Note_on_c, 1, 62, 45
4, 2208, Note_off_c, 1, 62, 0
4, 2208, Note_on_c, 1, 60, 45
4, 2302, Note_off_c, 1, 60, 0
4, 2400, Note_on_c, 1, 47, 45
4, 2496, Note_off_c, 1, 47, 0
4, 2496, Note_on_c, 1, 59, 45
4, 2592, Note_off_c, 1, 59, 0
4, 2592, Note_on_c, 1, 57, 45
4, 2686, Note_off_c, 1, 57, 0
4, 2688, Note_on_c, 1, 52, 45
4, 2688, Note_on_c, 1, 64, 45
4, 2848, Note_off_c, 1, 64, 0
4, 2848, Note_off_c, 1, 52, 0
4, 2880, Note_on_c, 1, 52, 45
4, 3040, Note_off_c, 1, 52, 0
4, 3168, Note_on_c, 1, 57, 45
4, 3264, Note_off_c, 1, 57, 0
4, 3264, Note_on_c, 1, 64, 45
4, 3360, Note_off_c, 1, 64, 0
4, 3360, Note_on_c, 1, 62, 45
4, 3454, Note_off_c, 1, 62, 0
4, 3552, Note_on_c, 1, 57, 45
4, 3648, Note_off_c, 1, 57, 0
4, 3648, Note_on_c, 1, 60, 45
4, 3744, Note_off_c, 1, 60, 0
4, 3744, Note_on_c, 1, 59, 45
4, 3838, Note_off_c, 1, 59, 0
4, 3936, Note_on_c, 1, 57, 45
4, 4032, Note_off_c, 1, 57, 0
4, 4032, Note_on_c, 1, 60, 45
4, 4128, Note_off_c, 1, 60, 0
4, 4128, Note_on_c, 1, 56, 45
4, 4222, Note_off_c, 1, 56, 0
4, 4320, Note_on_c, 1, 57, 45
4, 4416, Note_off_c, 1, 57, 0
4, 4416, Note_on_c, 1, 64, 45
4, 4512, Note_off_c, 1, 64, 0
4, 4512, Note_on_c, 1, 52, 45
4, 4606, Note_off_c, 1, 52, 0
4, 4704, Note_on_c, 1, 50, 45
4, 4800, Note_off_c, 1, 50, 0
4, 4800, Note_on_c, 1, 62, 45
4, 4896, Note_off_c, 1, 62, 0
4, 4896, Note_on_c, 1, 60, 45
4, 4990, Note_off_c, 1, 60, 0
4, 5088, Note_on_c, 1, 53, 45
4, 5184, Note_off_c, 1, 53, 0
4, 5184, Note_on_c, 1, 65, 45
4, 5280, Note_off_c, 1, 65, 0
4, 5280, Note_on_c, 1, 64, 45
4, 5374, Note_off_c, 1, 64, 0
4, 5376, Note_on_c, 1, 62, 46
4, 5536, Note_off_c, 1, 62, 0
4, 5568, Note_on_c, 1, 64, 47
4, 5728, Note_off_c, 1, 64, 0
4, 5760, Note_on_c, 1, 65, 48
4, 5920, Note_off_c, 1, 65, 0
4, 6240, Note_on_c, 1, 50, 92
4, 6334, Note_off_c, 1, 50, 0
4, 6336, Note_on_c, 1, 62, 92
4, 6430, Note_off_c, 1, 62, 0
4, 6432, Note_on_c, 1, 60, 92
4, 6526, Note_off_c, 1, 60, 0
4, 6624, Note_on_c, 1, 47, 92
4, 6718, Note_off_c, 1, 47, 0
4, 6720, Note_on_c, 1, 59, 92
4, 6814, Note_off_c, 1, 59, 0
4, 6816, Note_on_c, 1, 57, 92
4, 6910, Note_off_c, 1, 57, 0
4, 6912, Note_on_c, 1, 62, 92
4, 7072, Note_off_c, 1, 62, 0
4, 7104, Note_on_c, 1, 64, 92
4, 7264, Note_off_c, 1, 64, 0
4, 7296, Note_on_c, 1, 57, 92
4, 7456, Note_off_c, 1, 57, 0
4, 7776, Note_on_c, 1, 57, 45
4, 7872, Note_off_c, 1, 57, 0
4, 7872, Note_on_c, 1, 60, 45
4, 7968, Note_off_c, 1, 60, 0
4, 7968, Note_on_c, 1, 65, 45
4, 8062, Note_off_c, 1, 65, 0
4, 8160, Note_on_c, 1, 55, 45
4, 8256, Note_off_c, 1, 55, 0
4, 8256, Note_on_c, 1, 60, 45
4, 8352, Note_off_c, 1, 60, 0
4, 8352, Note_on_c, 1, 64, 45
4, 8446, Note_off_c, 1, 64, 0
4, 8544, Note_on_c, 1, 53, 45
4, 8640, Note_off_c, 1, 53, 0
4, 8640, Note_on_c, 1, 57, 45
4, 8736, Note_off_c, 1, 57, 0
4, 8736, Note_on_c, 1, 60, 45
4, 8830, Note_off_c, 1, 60, 0
4, 8928, Note_on_c, 1, 52, 45
4, 9022, Note_off_c, 1, 52, 0
4, 9024, Note_on_c, 1, 55, 45
4, 9118, Note_off_c, 1, 55, 0
4, 9120, Note_on_c, 1, 60, 45
4, 9214, Note_off_c, 1, 60, 0
4, 9312, Note_on_c, 1, 64, 45
4, 9408, Note_off_c, 1, 64, 0
4, 9408, Note_on_c, 1, 67, 45
4, 9504, Note_off_c, 1, 67, 0
4, 9504, Note_on_c, 1, 72, 45
4, 9598, Note_off_c, 1, 72, 0
4, 9600, Note_on_c, 1, 65, 45
4, 9694, Note_off_c, 1, 65, 0
4, 9696, Note_on_c, 1, 72, 46
4, 9790, Note_off_c, 1, 72, 0
4, 9792, Note_on_c, 1, 64, 47
4, 9886, Note_off_c, 1, 64, 0
4, 9888, Note_on_c, 1, 72, 48
4, 9982, Note_off_c, 1, 72, 0
4, 9984, Note_on_c, 1, 62, 49
4, 10078, Note_off_c, 1, 62, 0
4, 10080, Note_on_c, 1, 72, 50
4, 10174, Note_off_c, 1, 72, 0
4, 10176, Note_on_c, 1, 60, 51
4, 10270, Note_off_c, 1, 60, 0
4, 10272, Note_on_c, 1, 72, 52
4, 10366, Note_off_c, 1, 72, 0
4, 10368, Note_on_c, 1, 67, 92
4, 10528, Note_off_c, 1, 67, 0
4, 10560, Note_on_c, 1, 55, 92
4, 10720, Note_off_c, 1, 55, 0
4, 10848, Note_on_c, 1, 60, 30
4, 10944, Note_off_c, 1, 60, 0
4, 10944, Note_on_c, 1, 67, 30
4, 11040, Note_off_c, 1, 67, 0
4, 11040, Note_on_c, 1, 65, 30
4, 11134, Note_off_c, 1, 65, 0
4, 11232, Note_on_c, 1, 60, 30
4, 11328, Note_off_c, 1, 60, 0
4, 11328, Note_on_c, 1, 63, 30
4, 11424, Note_off_c, 1, 63, 0
4, 11424, Note_on_c, 1, 62, 30
4, 11518, Note_off_c, 1, 62, 0
4, 11616, Note_on_c, 1, 60, 30
4, 11712, Note_off_c, 1, 60, 0
4, 11712, Note_on_c, 1, 63, 30
4, 11808, Note_off_c, 1, 63, 0
4, 11808, Note_on_c, 1, 56, 30
4, 11902, Note_off_c, 1, 56, 0
4, 12000, Note_on_c, 1, 55, 30
4, 12096, Note_off_c, 1, 55, 0
4, 12096, Note_on_c, 1, 54, 30
4, 12192, Note_off_c, 1, 54, 0
4, 12192, Note_on_c, 1, 55, 30
4, 12286, Note_off_c, 1, 55, 0
4, 12384, Note_on_c, 1, 55, 30
4, 12480, Note_off_c, 1, 55, 0
4, 12480, Note_on_c, 1, 59, 30
4, 12576, Note_off_c, 1, 59, 0
4, 12576, Note_on_c, 1, 60, 30
4, 12670, Note_off_c, 1, 60, 0
4, 12768, Note_on_c, 1, 55, 30
4, 12864, Note_off_c, 1, 55, 0
4, 12864, Note_on_c, 1, 65, 30
4, 12960, Note_off_c, 1, 65, 0
4, 12960, Note_on_c, 1, 64, 31
4, 13054, Note_off_c, 1, 64, 0
4, 13152, Note_on_c, 1, 62, 33
4, 13248, Note_off_c, 1, 62, 0
4, 13248, Note_on_c, 1, 59, 34
4, 13344, Note_off_c, 1, 59, 0
4, 13344, Note_on_c, 1, 55, 35
4, 13438, Note_off_c, 1, 55, 0
4, 13536, Note_on_c, 1, 59, 37
4, 13632, Note_off_c, 1, 59, 0
4, 13632, Note_on_c, 1, 60, 38
4, 13728, Note_off_c, 1, 60, 0
4, 13728, Note_on_c, 1, 48, 39
4, 13822, Note_off_c, 1, 48, 0
4, 13824, Note_on_c, 1, 52, 92
4, 13918, Note_off_c, 1, 52, 0
4, 13920, Note_on_c, 1, 64, 92
4, 14014, Note_off_c, 1, 64, 0
4, 14016, Note_on_c, 1, 67, 92
4, 14110, Note_off_c, 1, 67, 0
4, 14112, Note_on_c, 1, 62, 92
4, 14206, Note_off_c, 1, 62, 0
4, 14208, Note_on_c, 1, 48, 92
4, 14302, Note_off_c, 1, 48, 0
4, 14304, Note_on_c, 1, 60, 92
4, 14398, Note_off_c, 1, 60, 0
4, 14400, Note_on_c, 1, 64, 92
4, 14494, Note_off_c, 1, 64, 0
4, 14496, Note_on_c, 1, 59, 92
4, 14590, Note_off_c, 1, 59, 0
4, 14592, Note_on_c, 1, 45, 92
4, 14686, Note_off_c, 1, 45, 0
4, 14688, Note_on_c, 1, 57, 92
4, 14782, Note_off_c, 1, 57, 0
4, 14784, Note_on_c, 1, 60, 92
4, 14878, Note_off_c, 1, 60, 0
4, 14880, Note_on_c, 1, 55, 92
4, 14974, Note_off_c, 1, 55, 0
4, 14976, Note_on_c, 1, 41, 92
4, 15070, Note_off_c, 1, 41, 0
4, 15072, Note_on_c, 1, 53, 92
4, 15166, Note_off_c, 1, 53, 0
4, 15168, Note_on_c, 1, 57, 92
4, 15262, Note_off_c, 1, 57, 0
4, 15264, Note_on_c, 1, 52, 92
4, 15358, Note_off_c, 1, 52, 0
4, 15360, Note_on_c, 1, 53, 92
4, 15520, Note_off_c, 1, 53, 0
4, 15552, Note_on_c, 1, 49, 92
4, 15712, Note_off_c, 1, 49, 0
4, 15744, Note_on_c, 1, 50, 92
4, 15904, Note_off_c, 1, 50, 0
4, 16032, Note_on_c, 1, 50, 92
4, 16126, Note_off_c, 1, 50, 0
4, 16128, Note_on_c, 1, 55, 92
4, 16288, Note_off_c, 1, 55, 0
4, 16320, Note_on_c, 1, 43, 92
4, 16480, Note_off_c, 1, 43, 0
4, 16512, Note_on_c, 1, 48, 92
4, 16848, Note_off_c, 1, 48, 0
4, 16896, Note_on_c, 1, 52, 92
4, 16990, Note_off_c, 1, 52, 0
4, 16992, Note_on_c, 1, 64, 92
4, 17086, Note_off_c, 1, 64, 0
4, 17088, Note_on_c, 1, 67, 92
4, 17182, Note_off_c, 1, 67, 0
4, 17184, Note_on_c, 1, 62, 92
4, 17278, Note_off_c, 1, 62, 0
4, 17280, Note_on_c, 1, 48, 92
4, 17374, Note_off_c, 1, 48, 0
4, 17376, Note_on_c, 1, 60, 92
4, 17470, Note_off_c, 1, 60, 0
4, 17472, Note_on_c, 1, 64, 92
4, 17566, Note_off_c, 1, 64, 0
4, 17568, Note_on_c, 1, 59, 92
4, 17662, Note_off_c, 1, 59, 0
4, 17664, Note_on_c, 1, 45, 92
4, 17758, Note_off_c, 1, 45, 0
4, 17760, Note_on_c, 1, 57, 92
4, 17854, Note_off_c, 1, 57, 0
4, 17856, Note_on_c, 1, 60, 92
4, 17950, Note_off_c, 1, 60, 0
4, 17952, Note_on_c, 1, 55, 92
4, 18046, Note_off_c, 1, 55, 0
4, 18048, Note_on_c, 1, 41, 92
4, 18142, Note_off_c, 1, 41, 0
4, 18144, Note_on_c, 1, 53, 92
4, 18238, Note_off_c, 1, 53, 0
4, 18240, Note_on_c, 1, 57, 92
4, 18334, Note_off_c, 1, 57, 0
4, 18336, Note_on_c, 1, 52, 92
4, 18430, Note_off_c, 1, 52, 0
4, 18432, Note_on_c, 1, 53, 92
4, 18592, Note_off_c, 1, 53, 0
4, 18624, Note_on_c, 1, 49, 92
4, 18784, Note_off_c, 1, 49, 0
4, 18816, Note_on_c, 1, 50, 92
4, 18910, Note_off_c, 1, 50, 0
4, 18912, Note_on_c, 1, 52, 92
4, 19006, Note_off_c, 1, 52, 0
4, 19008, Note_on_c, 1, 53, 92
4, 19102, Note_off_c, 1, 53, 0
4, 19104, Note_on_c, 1, 50, 92
4, 19198, Note_off_c, 1, 50, 0
4, 19200, Note_on_c, 1, 55, 92
4, 19294, Note_off_c, 1, 55, 0
4, 19296, Note_on_c, 1, 54, 92
4, 19390, Note_off_c, 1, 54, 0
4, 19392, Note_on_c, 1, 55, 92
4, 19486, Note_off_c, 1, 55, 0
4, 19488, Note_on_c, 1, 43, 92
4, 19582, Note_off_c, 1, 43, 0
4, 19680, Note_on_c, 1, 58, 92
4, 19774, Note_off_c, 1, 58, 0
4, 19776, Note_on_c, 1, 57, 92
4, 19870, Note_off_c, 1, 57, 0
4, 19872, Note_on_c, 1, 55, 92
4, 19966, Note_off_c, 1, 55, 0
4, 19968, Note_on_c, 1, 53, 92
4, 20128, Note_off_c, 1, 53, 0
4, 20160, Note_on_c, 1, 49, 92
4, 20320, Note_off_c, 1, 49, 0
4, 20352, Note_on_c, 1, 50, 92
4, 20446, Note_off_c, 1, 50, 0
4, 20448, Note_on_c, 1, 52, 92
4, 20542, Note_off_c, 1, 52, 0
4, 20544, Note_on_c, 1, 53, 92
4, 20638, Note_off_c, 1, 53, 0
4, 20640, Note_on_c, 1, 50, 92
4, 20734, Note_off_c, 1, 50, 0
4, 20736, Note_on_c, 1, 55, 92
4, 20830, Note_off_c, 1, 55, 0
4, 20832, Note_on_c, 1, 54, 92
4, 20926, Note_off_c, 1, 54, 0
4, 20928, Note_on_c, 1, 55, 92
4, 21022, Note_off_c, 1, 55, 0
4, 21024, Note_on_c, 1, 43, 92
4, 21118, Note_off_c, 1, 43, 0
4, 21216, Note_on_c, 1, 58, 92
4, 21312, Note_off_c, 1, 58, 0
4, 21312, Note_on_c, 1, 57, 92
4, 21408, Note_off_c, 1, 57, 0
4, 21408, Note_on_c, 1, 55, 92
4, 21504, Note_off_c, 1, 55, 0
4, 21504, Note_on_c, 1, 53, 92
4, 21600, Note_off_c, 1, 53, 0
4, 21600, Note_on_c, 1, 52, 92
4, 21696, Note_off_c, 1, 52, 0
4, 21696, Note_on_c, 1, 50, 92
4, 21792, Note_off_c, 1, 50, 0
4, 21792, Note_on_c, 1, 53, 92
4, 21886, Note_off_c, 1, 53, 0
4, 21984, Note_on_c, 1, 60, 92
4, 22080, Note_off_c, 1, 60, 0
4, 22080, Note_on_c, 1, 59, 92
4, 22176, Note_off_c, 1, 59, 0
4, 22176, Note_on_c, 1, 57, 92
4, 22272, Note_off_c, 1, 57, 0
4, 22272, Note_on_c, 1, 55, 92
4, 22368, Note_off_c, 1, 55, 0
4, 22368, Note_on_c, 1, 54, 92
4, 22464, Note_off_c, 1, 54, 0
4, 22464, Note_on_c, 1, 52, 92
4, 22560, Note_off_c, 1, 52, 0
4, 22560, Note_on_c, 1, 55, 92
4, 22654, Note_off_c, 1, 55, 0
4, 22656, Note_on_c, 1, 57, 92
4, 22750, Note_off_c, 1, 57, 0
4, 22752, Note_on_c, 1, 45, 92
4, 22846, Note_off_c, 1, 45, 0
4, 22848, Note_on_c, 1, 57, 92
4, 22942, Note_off_c, 1, 57, 0
4, 22944, Note_on_c, 1, 59, 92
4, 23038, Note_off_c, 1, 59, 0
4, 23040, Note_on_c, 1, 60, 92
4, 23134, Note_off_c, 1, 60, 0
4, 23136, Note_on_c, 1, 48, 92
4, 23230, Note_off_c, 1, 48, 0
4, 23232, Note_on_c, 1, 60, 92
4, 23326, Note_off_c, 1, 60, 0
4, 23328, Note_on_c, 1, 59, 92
4, 23422, Note_off_c, 1, 59, 0
4, 23424, Note_on_c, 1, 57, 92
4, 23518, Note_off_c, 1, 57, 0
4, 23520, Note_on_c, 1, 45, 91
4, 23614, Note_off_c, 1, 45, 0
4, 23616, Note_on_c, 1, 57, 90
4, 23710, Note_off_c, 1, 57, 0
4, 23712, Note_on_c, 1, 58, 89
4, 23806, Note_off_c, 1, 58, 0
4, 23808, Note_on_c, 1, 59, 88
4, 23968, Note_off_c, 1, 59, 0
4, 24192, Note_on_c, 1, 43, 45
4, 24192, Note_on_c, 1, 55, 45
4, 24448, Note_off_c, 1, 55, 0
4, 24448, Note_off_c, 1, 43, 0
4, 24480, Note_on_c, 1, 42, 45
4, 24480, Note_on_c, 1, 54, 45
4, 24574, Note_off_c, 1, 54, 0
4, 24574, Note_off_c, 1, 42, 0
4, 24576, Note_on_c, 1, 40, 45
4, 24576, Note_on_c, 1, 52, 45
4, 24832, Note_off_c, 1, 52, 0
4, 24832, Note_off_c, 1, 40, 0
4, 24864, Note_on_c, 1, 39, 45
4, 24864, Note_on_c, 1, 51, 45
4, 24958, Note_off_c, 1, 51, 0
4, 24958, Note_off_c, 1, 39, 0
4, 24960, Note_on_c, 1, 40, 45
4, 24960, Note_on_c, 1, 52, 45
4, 25216, Note_off_c, 1, 52, 0
4, 25216, Note_off_c, 1, 40, 0
4, 25248, Note_on_c, 1, 42, 45
4, 25248, Note_on_c, 1, 54, 45
4, 25342, Note_off_c, 1, 54, 0
4, 25342, Note_off_c, 1, 42, 0
4, 25344, Note_on_c, 1, 40, 45
4, 25344, Note_on_c, 1, 52, 45
4, 25600, Note_off_c, 1, 52, 0
4, 25600, Note_off_c, 1, 40, 0
4, 25632, Note_on_c, 1, 39, 45
4, 25632, Note_on_c, 1, 51, 45
4, 25726, Note_off_c, 1, 51, 0
4, 25726, Note_off_c, 1, 39, 0
4, 25728, Note_on_c, 1, 42, 45
4, 25728, Note_on_c, 1, 54, 45
4, 25984, Note_off_c, 1, 54, 0
4, 25984, Note_off_c, 1, 42, 0
4, 26016, Note_on_c, 1, 40, 45
4, 26016, Note_on_c, 1, 52, 45
4, 26110, Note_off_c, 1, 52, 0
4, 26110, Note_off_c, 1, 40, 0
4, 26112, Note_on_c, 1, 39, 45
4, 26112, Note_on_c, 1, 51, 45
4, 26368, Note_off_c, 1, 51, 0
4, 26368, Note_off_c, 1, 39, 0
4, 26400, Note_on_c, 1, 40, 45
4, 26400, Note_on_c, 1, 52, 45
4, 26494, Note_off_c, 1, 52, 0
4, 26494, Note_off_c, 1, 40, 0
4, 26496, Note_on_c, 1, 42, 45
4, 26496, Note_on_c, 1, 54, 45
4, 26752, Note_off_c, 1, 54, 0
4, 26752, Note_off_c, 1, 42, 0
4, 26784, Note_on_c, 1, 43, 45
4, 26784, Note_on_c, 1, 55, 45
4, 26878, Note_off_c, 1, 55, 0
4, 26878, Note_off_c, 1, 43, 0
4, 26880, Note_on_c, 1, 42, 48
4, 26880, Note_on_c, 1, 54, 48
4, 27040, Note_off_c, 1, 54, 0
4, 27040, Note_off_c, 1, 42, 0
4, 27072, Note_on_c, 1, 40, 55
4, 27072, Note_on_c, 1, 52, 55
4, 27232, Note_off_c, 1, 52, 0
4, 27232, Note_off_c, 1, 40, 0
4, 27264, Note_on_c, 1, 55, 92
4, 27264, Note_on_c, 1, 59, 92
4, 27520, Note_off_c, 1, 59, 0
4, 27520, Note_off_c, 1, 55, 0
4, 27552, Note_on_c, 1, 54, 92
4, 27552, Note_on_c, 1, 57, 92
4, 27646, Note_off_c, 1, 57, 0
4, 27646, Note_off_c, 1, 54, 0
4, 27648, Note_on_c, 1, 52, 92
4, 27648, Note_on_c, 1, 55, 92
4, 27904, Note_off_c, 1, 55, 0
4, 27904, Note_off_c, 1, 52, 0
4, 27936, Note_on_c, 1, 50, 92
4, 27936, Note_on_c, 1, 54, 92
4, 28030, Note_off_c, 1, 54, 0
4, 28030, Note_off_c, 1, 50, 0
4, 28032, Note_on_c, 1, 48, 92
4, 28032, Note_on_c, 1, 52, 92
4, 28288, Note_off_c, 1, 52, 0
4, 28288, Note_off_c, 1, 48, 0
4, 28320, Note_on_c, 1, 47, 92
4, 28320, Note_on_c, 1, 50, 92
4, 28414, Note_off_c, 1, 50, 0
4, 28414, Note_off_c, 1, 47, 0
4, 28416, Note_on_c, 1, 45, 92
4, 28416, Note_on_c, 1, 48, 92
4, 28672, Note_off_c, 1, 48, 0
4, 28672, Note_off_c, 1, 45, 0
4, 28704, Note_on_c, 1, 43, 92
4, 28704, Note_on_c, 1, 47, 92
4, 28798, Note_off_c, 1, 47, 0
4, 28798, Note_off_c, 1, 43, 0
4, 28800, Note_on_c, 1, 42, 92
4, 28800, Note_on_c, 1, 45, 92
4, 28960, Note_off_c, 1, 45, 0
4, 28960, Note_off_c, 1, 42, 0
4, 28992, Note_on_c, 1, 39, 92
4, 28992, Note_on_c, 1, 47, 92
4, 29152, Note_off_c, 1, 47, 0
4, 29152, Note_off_c, 1, 39, 0
4, 29184, Note_on_c, 1, 40, 92
4, 29344, Note_off_c, 1, 40, 0
4, 29376, Note_on_c, 1, 45, 92
4, 29536, Note_off_c, 1, 45, 0
4, 29568, Note_on_c, 1, 47, 92
4, 29728, Note_off_c, 1, 47, 0
4, 29760, Note_on_c, 1, 35, 92
4, 29920, Note_off_c, 1, 35, 0
4, 29952, Note_on_c, 1, 40, 92
4, 30112, Note_off_c, 1, 40, 0
4, 30336, Note_on_c, 1, 55, 92
4, 30336, Note_on_c, 1, 59, 92
4, 30592, Note_off_c, 1, 59, 0
4, 30592, Note_off_c, 1, 55, 0
4, 30624, Note_on_c, 1, 54, 92
4, 30624, Note_on_c, 1, 57, 92
4, 30718, Note_off_c, 1, 57, 0
4, 30718, Note_off_c, 1, 54, 0
4, 30720, Note_on_c, 1, 52, 92
4, 30720, Note_on_c, 1, 55, 92
4, 30976, Note_off_c, 1, 55, 0
4, 30976, Note_off_c, 1, 52, 0
4, 31008, Note_on_c, 1, 50, 92
4, 31008, Note_on_c, 1, 54, 92
4, 31102, Note_off_c, 1, 54, 0
4, 31102, Note_off_c, 1, 50, 0
4, 31104, Note_on_c, 1, 48, 92
4, 31104, Note_on_c, 1, 52, 92
4, 31360, Note_off_c, 1, 52, 0
4, 31360, Note_off_c, 1, 48, 0
4, 31392, Note_on_c, 1, 47, 92
4, 31392, Note_on_c, 1, 50, 92
4, 31486, Note_off_c, 1, 50, 0
4, 31486, Note_off_c, 1, 47, 0
4, 31488, Note_on_c, 1, 45, 92
4, 31488, Note_on_c, 1, 48, 92
4, 31744, Note_off_c, 1, 48, 0
4, 31744, Note_off_c, 1, 45, 0
4, 31776, Note_on_c, 1, 43, 92
4, 31776, Note_on_c, 1, 47, 92
4, 31870, Note_off_c, 1, 47, 0
4, 31870, Note_off_c, 1, 43, 0
4, 31872, Note_on_c, 1, 42, 92
4, 31872, Note_on_c, 1, 45, 92
4, 32032, Note_off_c, 1, 45, 0
4, 32032, Note_off_c, 1, 42, 0
4, 32064, Note_on_c, 1, 39, 92
4, 32064, Note_on_c, 1, 47, 92
4, 32224, Note_off_c, 1, 47, 0
4, 32224, Note_off_c, 1, 39, 0
4, 32256, Note_on_c, 1, 40, 92
4, 32416, Note_off_c, 1, 40, 0
4, 32448, Note_on_c, 1, 45, 92
4, 32608, Note_off_c, 1, 45, 0
4, 32640, Note_on_c, 1, 47, 92
4, 32800, Note_off_c, 1, 47, 0
4, 32832, Note_on_c, 1, 35, 92
4, 32992, Note_off_c, 1, 35, 0
4, 33120, Note_on_c, 1, 52, 92
4, 33216, Note_off_c, 1, 52, 0
4, 33216, Note_on_c, 1, 54, 92
4, 33312, Note_off_c, 1, 54, 0
4, 33312, Note_on_c, 1, 56, 92
4, 33408, Note_off_c, 1, 56, 0
4, 33408, Note_on_c, 1, 57, 92
4, 33504, Note_off_c, 1, 57, 0
4, 33504, Note_on_c, 1, 59, 92
4, 33600, Note_off_c, 1, 59, 0
4, 33600, Note_on_c, 1, 60, 92
4, 33696, Note_off_c, 1, 60, 0
4, 33696, Note_on_c, 1, 57, 92
4, 33790, Note_off_c, 1, 57, 0
4, 33888, Note_on_c, 1, 50, 92
4, 33984, Note_off_c, 1, 50, 0
4, 33984, Note_on_c, 1, 52, 92
4, 34080, Note_off_c, 1, 52, 0
4, 34080, Note_on_c, 1, 53, 92
4, 34176, Note_off_c, 1, 53, 0
4, 34176, Note_on_c, 1, 55, 92
4, 34272, Note_off_c, 1, 55, 0
4, 34272, Note_on_c, 1, 57, 92
4, 34368, Note_off_c, 1, 57, 0
4, 34368, Note_on_c, 1, 59, 92
4, 34464, Note_off_c, 1, 59, 0
4, 34464, Note_on_c, 1, 55, 92
4, 34558, Note_off_c, 1, 55, 0
4, 34656, Note_on_c, 1, 48, 92
4, 34752, Note_off_c, 1, 48, 0
4, 34752, Note_on_c, 1, 50, 92
4, 34848, Note_off_c, 1, 50, 0
4, 34848, Note_on_c, 1, 52, 92
4, 34944, Note_off_c, 1, 52, 0
4, 34944, Note_on_c, 1, 53, 92
4, 35040, Note_off_c, 1, 53, 0
4, 35040, Note_on_c, 1, 55, 92
4, 35136, Note_off_c, 1, 55, 0
4, 35136, Note_on_c, 1, 57, 92
4, 35232, Note_off_c, 1, 57, 0
4, 35232, Note_on_c, 1, 53, 92
4, 35326, Note_off_c, 1, 53, 0
4, 35424, Note_on_c, 1, 47, 92
4, 35520, Note_off_c, 1, 47, 0
4, 35520, Note_on_c, 1, 48, 92
4, 35616, Note_off_c, 1, 48, 0
4, 35616, Note_on_c, 1, 50, 92
4, 35712, Note_off_c, 1, 50, 0
4, 35712, Note_on_c, 1, 52, 92
4, 35808, Note_off_c, 1, 52, 0
4, 35808, Note_on_c, 1, 54, 92
4, 35904, Note_off_c, 1, 54, 0
4, 35904, Note_on_c, 1, 56, 92
4, 36000, Note_off_c, 1, 56, 0
4, 36000, Note_on_c, 1, 52, 92
4, 36094, Note_off_c, 1, 52, 0
4, 36096, Note_on_c, 1, 57, 92
4, 36256, Note_off_c, 1, 57, 0
4, 36384, Note_on_c, 1, 55, 92
4, 36478, Note_off_c, 1, 55, 0
4, 36480, Note_on_c, 1, 53, 92
4, 36736, Note_off_c, 1, 53, 0
4, 36768, Note_on_c, 1, 50, 92
4, 36862, Note_off_c, 1, 50, 0
4, 36864, Note_on_c, 1, 52, 92
4, 37120, Note_off_c, 1, 52, 0
4, 37152, Note_on_c, 1, 48, 92
4, 37246, Note_off_c, 1, 48, 0
4, 37248, Note_on_c, 1, 50, 92
4, 37504, Note_off_c, 1, 50, 0
4, 37536, Note_on_c, 1, 51, 92
4, 37630, Note_off_c, 1, 51, 0
4, 37632, Note_on_c, 1, 52, 92
4, 37968, Note_off_c, 1, 52, 0
4, 38016, Note_on_c, 1, 53, 92
4, 38016, Note_on_c, 1, 57, 92
4, 38352, Note_off_c, 1, 57, 0
4, 38352, Note_off_c, 1, 53, 0
4, 38400, Note_on_c, 1, 52, 92
4, 38400, Note_on_c, 1, 59, 92
4, 38736, Note_off_c, 1, 59, 0
4, 38736, Note_off_c, 1, 52, 0
4, 38784, Note_on_c, 1, 53, 92
4, 38784, Note_on_c, 1, 57, 92
4, 39120, Note_off_c, 1, 57, 0
4, 39120, Note_off_c, 1, 53, 0
4, 39168, Note_on_c, 1, 52, 92
4, 39168, Note_on_c, 1, 59, 92
4, 39504, Note_off_c, 1, 59, 0
4, 39504, Note_off_c, 1, 52, 0
4, 39552, Note_on_c, 1, 53, 92
4, 39552, Note_on_c, 1, 57, 92
4, 39888, Note_off_c, 1, 57, 0
4, 39888, Note_off_c, 1, 53, 0
4, 39936, Note_on_c, 1, 52, 90
4, 39936, Note_on_c, 1, 59, 90
4, 40096, Note_off_c, 1, 59, 0
4, 40096, Note_off_c, 1, 52, 0
4, 40800, Note_on_c, 1, 57, 45
4, 40896, Note_off_c, 1, 57, 0
4, 40896, Note_on_c, 1, 64, 45
4, 40992, Note_off_c, 1, 64, 0
4, 40992, Note_on_c, 1, 62, 45
4, 41086, Note_off_c, 1, 62, 0
4, 41184, Note_on_c, 1, 57, 45
4, 41280, Note_off_c, 1, 57, 0
4, 41280, Note_on_c, 1, 60, 45
4, 41376, Note_off_c, 1, 60, 0
4, 41376, Note_on_c, 1, 59, 45
4, 41470, Note_off_c, 1, 59, 0
4, 41568, Note_on_c, 1, 57, 45
4, 41664, Note_off_c, 1, 57, 0
4, 41664, Note_on_c, 1, 60, 45
4, 41760, Note_off_c, 1, 60, 0
4, 41760, Note_on_c, 1, 56, 45
4, 41854, Note_off_c, 1, 56, 0
4, 41952, Note_on_c, 1, 57, 45
4, 42048, Note_off_c, 1, 57, 0
4, 42048, Note_on_c, 1, 64, 45
4, 42144, Note_off_c, 1, 64, 0
4, 42144, Note_on_c, 1, 52, 45
4, 42238, Note_off_c, 1, 52, 0
4, 42336, Note_on_c, 1, 53, 45
4, 42432, Note_off_c, 1, 53, 0
4, 42432, Note_on_c, 1, 65, 45
4, 42528, Note_off_c, 1, 65, 0
4, 42528, Note_on_c, 1, 64, 45
4, 42622, Note_off_c, 1, 64, 0
4, 42720, Note_on_c, 1, 50, 45
4, 42816, Note_off_c, 1, 50, 0
4, 42816, Note_on_c, 1, 62, 45
4, 42912, Note_off_c, 1, 62, 0
4, 42912, Note_on_c, 1, 60, 45
4, 43006, Note_off_c, 1, 60, 0
4, 43104, Note_on_c, 1, 47, 45
4, 43200, Note_off_c, 1, 47, 0
4, 43200, Note_on_c, 1, 59, 45
4, 43296, Note_off_c, 1, 59, 0
4, 43296, Note_on_c, 1, 57, 45
4, 43390, Note_off_c, 1, 57, 0
4, 43392, Note_on_c, 1, 52, 45
4, 43392, Note_on_c, 1, 64, 45
4, 43552, Note_off_c, 1, 64, 0
4, 43552, Note_off_c, 1, 52, 0
4, 43584, Note_on_c, 1, 52, 45
4, 43744, Note_off_c, 1, 52, 0
4, 43872, Note_on_c, 1, 57, 45
4, 43968, Note_off_c, 1, 57, 0
4, 43968, Note_on_c, 1, 64, 45
4, 44064, Note_off_c, 1, 64, 0
4, 44064, Note_on_c, 1, 62, 45
4, 44158, Note_off_c, 1, 62, 0
4, 44256, Note_on_c, 1, 57, 45
4, 44352, Note_off_c, 1, 57, 0
4, 44352, Note_on_c, 1, 60, 45
4, 44448, Note_off_c, 1, 60, 0
4, 44448, Note_on_c, 1, 59, 45
4, 44542, Note_off_c, 1, 59, 0
4, 44640, Note_on_c, 1, 57, 45
4, 44736, Note_off_c, 1, 57, 0
4, 44736, Note_on_c, 1, 60, 45
4, 44832, Note_off_c, 1, 60, 0
4, 44832, Note_on_c, 1, 56, 45
4, 44926, Note_off_c, 1, 56, 0
4, 45024, Note_on_c, 1, 57, 45
4, 45120, Note_off_c, 1, 57, 0
4, 45120, Note_on_c, 1, 64, 45
4, 45216, Note_off_c, 1, 64, 0
4, 45216, Note_on_c, 1, 52, 45
4, 45310, Note_off_c, 1, 52, 0
4, 45408, Note_on_c, 1, 50, 45
4, 45504, Note_off_c, 1, 50, 0
4, 45504, Note_on_c, 1, 62, 45
4, 45600, Note_off_c, 1, 62, 0
4, 45600, Note_on_c, 1, 60, 45
4, 45694, Note_off_c, 1, 60, 0
4, 45792, Note_on_c, 1, 53, 46
4, 45888, Note_off_c, 1, 53, 0
4, 45888, Note_on_c, 1, 65, 47
4, 45984, Note_off_c, 1, 65, 0
4, 45984, Note_on_c, 1, 64, 48
4, 46078, Note_off_c, 1, 64, 0
4, 46080, Note_on_c, 1, 62, 49
4, 46240, Note_off_c, 1, 62, 0
4, 46272, Note_on_c, 1, 64, 50
4, 46432, Note_off_c, 1, 64, 0
4, 46464, Note_on_c, 1, 65, 51
4, 46624, Note_off_c, 1, 65, 0
4, 46944, Note_on_c, 1, 50, 92
4, 47038, Note_off_c, 1, 50, 0
4, 47040, Note_on_c, 1, 62, 92
4, 47134, Note_off_c, 1, 62, 0
4, 47136, Note_on_c, 1, 60, 92
4, 47230, Note_off_c, 1, 60, 0
4, 47328, Note_on_c, 1, 47, 92
4, 47422, Note_off_c, 1, 47, 0
4, 47424, Note_on_c, 1, 59, 92
4, 47518, Note_off_c, 1, 59, 0
4, 47520, Note_on_c, 1, 57, 92
4, 47614, Note_off_c, 1, 57, 0
4, 47712, Note_on_c, 1, 44, 92
4, 47806, Note_off_c, 1, 44, 0
4, 47808, Note_on_c, 1, 56, 92
4, 47902, Note_off_c, 1, 56, 0
4, 47904, Note_on_c, 1, 54, 92
4, 47998, Note_off_c, 1, 54, 0
4, 48000, Note_on_c, 1, 52, 92
4, 48094, Note_off_c, 1, 52, 0
4, 48096, Note_on_c, 1, 40, 92
4, 48190, Note_off_c, 1, 40, 0
4, 48192, Note_on_c, 1, 42, 92
4, 48286, Note_off_c, 1, 42, 0
4, 48288, Note_on_c, 1, 44, 92
4, 48382, Note_off_c, 1, 44, 0
4, 48384, Note_on_c, 1, 45, 92
4, 48478, Note_off_c, 1, 45, 0
4, 48480, Note_on_c, 1, 57, 92
4, 48574, Note_off_c, 1, 57, 0
4, 48576, Note_on_c, 1, 59, 92
4, 48670, Note_off_c, 1, 59, 0
4, 48672, Note_on_c, 1, 64, 92
4, 48766, Note_off_c, 1, 64, 0
4, 48768, Note_on_c, 1, 41, 92
4, 48862, Note_off_c, 1, 41, 0
4, 48864, Note_on_c, 1, 53, 92
4, 48958, Note_off_c, 1, 53, 0
4, 48960, Note_on_c, 1, 57, 92
4, 49054, Note_off_c, 1, 57, 0
4, 49056, Note_on_c, 1, 60, 92
4, 49150, Note_off_c, 1, 60, 0
4, 49152, Note_on_c, 1, 38, 92
4, 49246, Note_off_c, 1, 38, 0
4, 49248, Note_on_c, 1, 50, 92
4, 49342, Note_off_c, 1, 50, 0
4, 49344, Note_on_c, 1, 53, 92
4, 49438, Note_off_c, 1, 53, 0
4, 49440, Note_on_c, 1, 57, 92
4, 49534, Note_off_c, 1, 57, 0
4, 49536, Note_on_c, 1, 35, 92
4, 49630, Note_off_c, 1, 35, 0
4, 49632, Note_on_c, 1, 47, 92
4, 49726, Note_off_c, 1, 47, 0
4, 49728, Note_on_c, 1, 50, 92
4, 49822, Note_off_c, 1, 50, 0
4, 49824, Note_on_c, 1, 53, 92
4, 49918, Note_off_c, 1, 53, 0
4, 49920, Note_on_c, 1, 38, 92
4, 50014, Note_off_c, 1, 38, 0
4, 50016, Note_on_c, 1, 50, 92
4, 50110, Note_off_c, 1, 50, 0
4, 50112, Note_on_c, 1, 53, 92
4, 50206, Note_off_c, 1, 53, 0
4, 50208, Note_on_c, 1, 50, 92
4, 50302, Note_off_c, 1, 50, 0
4, 50304, Note_on_c, 1, 48, 92
4, 50464, Note_off_c, 1, 48, 0
4, 50496, Note_on_c, 1, 53, 92
4, 50656, Note_off_c, 1, 53, 0
4, 50688, Note_on_c, 1, 50, 92
4, 50848, Note_off_c, 1, 50, 0
4, 50880, Note_on_c, 1, 52, 92
4, 51040, Note_off_c, 1, 52, 0
4, 51072, Note_on_c, 1, 45, 92
4, 51232, Note_off_c, 1, 45, 0
4, 51456, Note_on_c, 1, 45, 92
4, 51550, Note_off_c, 1, 45, 0
4, 51552, Note_on_c, 1, 57, 92
4, 51646, Note_off_c, 1, 57, 0
4, 51648, Note_on_c, 1, 60, 92
4, 51742, Note_off_c, 1, 60, 0
4, 51744, Note_on_c, 1, 64, 92
4, 51838, Note_off_c, 1, 64, 0
4, 51840, Note_on_c, 1, 41, 92
4, 51934, Note_off_c, 1, 41, 0
4, 51936, Note_on_c, 1, 53, 92
4, 52030, Note_off_c, 1, 53, 0
4, 52032, Note_on_c, 1, 57, 92
4, 52126, Note_off_c, 1, 57, 0
4, 52128, Note_on_c, 1, 60, 92
4, 52222, Note_off_c, 1, 60, 0
4, 52224, Note_on_c, 1, 38, 92
4, 52318, Note_off_c, 1, 38, 0
4, 52320, Note_on_c, 1, 50, 92
4, 52414, Note_off_c, 1, 50, 0
4, 52416, Note_on_c, 1, 53, 92
4, 52510, Note_off_c, 1, 53, 0
4, 52512, Note_on_c, 1, 57, 92
4, 52606, Note_off_c, 1, 57, 0
4, 52608, Note_on_c, 1, 35, 92
4, 52702, Note_off_c, 1, 35, 0
4, 52704, Note_on_c, 1, 47, 92
4, 52798, Note_off_c, 1, 47, 0
4, 52800, Note_on_c, 1, 50, 92
4, 52894, Note_off_c, 1, 50, 0
4, 52896, Note_on_c, 1, 53, 92
4, 52990, Note_off_c, 1, 53, 0
4, 52992, Note_on_c, 1, 38, 92
4, 53086, Note_off_c, 1, 38, 0
4, 53088, Note_on_c, 1, 50, 91
4, 53182, Note_off_c, 1, 50, 0
4, 53184, Note_on_c, 1, 53, 90
4, 53278, Note_off_c, 1, 53, 0
4, 53280, Note_on_c, 1, 50, 89
4, 53374, Note_off_c, 1, 50, 0
4, 53376, Note_on_c, 1, 48, 88
4, 53536, Note_off_c, 1, 48, 0
4, 53568, Note_on_c, 1, 41, 87
4, 53568, Note_on_c, 1, 53, 87
4, 53728, Note_off_c, 1, 53, 0
4, 53728, Note_off_c, 1, 41, 0
4, 53760, Note_on_c, 1, 38, 86
4, 53760, Note_on_c, 1, 50, 86
4, 53920, Note_off_c, 1, 50, 0
4, 53920, Note_off_c, 1, 38, 0
4, 53952, Note_on_c, 1, 40, 85
4, 53952, Note_on_c, 1, 52, 85
4, 54112, Note_off_c, 1, 52, 0
4, 54112, Note_off_c, 1, 40, 0
4, 54144, Note_on_c, 1, 33, 84
4, 54144, Note_on_c, 1, 45, 84
4, 54304, Note_off_c, 1, 45, 0
4, 54304, Note_off_c, 1, 33, 0
4, 54528, Note_on_c, 1, 57, 45
4, 54622, Note_off_c, 1, 57, 0
4, 54624, Note_on_c, 1, 61, 45
4, 54718, Note_off_c, 1, 61, 0
4, 54720, Note_on_c, 1, 64, 45
4, 54814, Note_off_c, 1, 64, 0
4, 54816, Note_on_c, 1, 61, 45
4, 54910, Note_off_c, 1, 61, 0
4, 54912, Note_on_c, 1, 57, 45
4, 55006, Note_off_c, 1, 57, 0
4, 55008, Note_on_c, 1, 62, 45
4, 55102, Note_off_c, 1, 62, 0
4, 55104, Note_on_c, 1, 66, 45
4, 55198, Note_off_c, 1, 66, 0
4, 55200, Note_on_c, 1, 62, 45
4, 55294, Note_off_c, 1, 62, 0
4, 55296, Note_on_c, 1, 57, 45
4, 55390, Note_off_c, 1, 57, 0
4, 55392, Note_on_c, 1, 59, 45
4, 55486, Note_off_c, 1, 59, 0
4, 55488, Note_on_c, 1, 62, 45
4, 55582, Note_off_c, 1, 62, 0
4, 55584, Note_on_c, 1, 59, 45
4, 55678, Note_off_c, 1, 59, 0
4, 55680, Note_on_c, 1, 57, 45
4, 55774, Note_off_c, 1, 57, 0
4, 55776, Note_on_c, 1, 61, 45
4, 55870, Note_off_c, 1, 61, 0
4, 55872, Note_on_c, 1, 64, 45
4, 55966, Note_off_c, 1, 64, 0
4, 55968, Note_on_c, 1, 61, 45
4, 56062, Note_off_c, 1, 61, 0
4, 56064, Note_on_c, 1, 57, 45
4, 56158, Note_off_c, 1, 57, 0
4, 56160, Note_on_c, 1, 61, 45
4, 56254, Note_off_c, 1, 61, 0
4, 56256, Note_on_c, 1, 64, 45
4, 56350, Note_off_c, 1, 64, 0
4, 56352, Note_on_c, 1, 61, 45
4, 56446, Note_off_c, 1, 61, 0
4, 56448, Note_on_c, 1, 57, 45
4, 56542, Note_off_c, 1, 57, 0
4, 56544, Note_on_c, 1, 62, 45
4, 56638, Note_off_c, 1, 62, 0
4, 56640, Note_on_c, 1, 66, 45
4, 56734, Note_off_c, 1, 66, 0
4, 56736, Note_on_c, 1, 64, 45
4, 56830, Note_off_c, 1, 64, 0
4, 56832, Note_on_c, 1, 57, 45
4, 56926, Note_off_c, 1, 57, 0
4, 56928, Note_on_c, 1, 59, 45
4, 57022, Note_off_c, 1, 59, 0
4, 57024, Note_on_c, 1, 62, 45
4, 57118, Note_off_c, 1, 62, 0
4, 57120, Note_on_c, 1, 61, 45
4, 57214, Note_off_c, 1, 61, 0
4, 57216, Note_on_c, 1, 62, 45
4, 57310, Note_off_c, 1, 62, 0
4, 57312, Note_on_c, 1, 64, 45
4, 57406, Note_off_c, 1, 64, 0
4, 57408, Note_on_c, 1, 61, 45
4, 57502, Note_off_c, 1, 61, 0
4, 57504, Note_on_c, 1, 57, 45
4, 57598, Note_off_c, 1, 57, 0
4, 57600, Note_on_c, 1, 57, 45
4, 57694, Note_off_c, 1, 57, 0
4, 57696, Note_on_c, 1, 61, 45
4, 57790, Note_off_c, 1, 61, 0
4, 57792, Note_on_c, 1, 64, 45
4, 57886, Note_off_c, 1, 64, 0
4, 57888, Note_on_c, 1, 61, 45
4, 57982, Note_off_c, 1, 61, 0
4, 57984, Note_on_c, 1, 57, 45
4, 58078, Note_off_c, 1, 57, 0
4, 58080, Note_on_c, 1, 62, 45
4, 58174, Note_off_c, 1, 62, 0
4, 58176, Note_on_c, 1, 66, 45
4, 58270, Note_off_c, 1, 66, 0
4, 58272, Note_on_c, 1, 62, 45
4, 58366, Note_off_c, 1, 62, 0
4, 58368, Note_on_c, 1, 57, 45
4, 58462, Note_off_c, 1, 57, 0
4, 58464, Note_on_c, 1, 59, 45
4, 58558, Note_off_c, 1, 59, 0
4, 58560, Note_on_c, 1, 62, 45
4, 58654, Note_off_c, 1, 62, 0
4, 58656, Note_on_c, 1, 59, 45
4, 58750, Note_off_c, 1, 59, 0
4, 58752, Note_on_c, 1, 57, 45
4, 58846, Note_off_c, 1, 57, 0
4, 58848, Note_on_c, 1, 61, 45
4, 58942, Note_off_c, 1, 61, 0
4, 58944, Note_on_c, 1, 64, 45
4, 59038, Note_off_c, 1, 64, 0
4, 59040, Note_on_c, 1, 61, 45
4, 59134, Note_off_c, 1, 61, 0
4, 59136, Note_on_c, 1, 59, 45
4, 59230, Note_off_c, 1, 59, 0
4, 59232, Note_on_c, 1, 63, 45
4, 59326, Note_off_c, 1, 63, 0
4, 59328, Note_on_c, 1, 66, 45
4, 59422, Note_off_c, 1, 66, 0
4, 59424, Note_on_c, 1, 63, 45
4, 59518, Note_off_c, 1, 63, 0
4, 59520, Note_on_c, 1, 64, 45
4, 59680, Note_off_c, 1, 64, 0
4, 59712, Note_on_c, 1, 57, 45
4, 59872, Note_off_c, 1, 57, 0
4, 59904, Note_on_c, 1, 59, 45
4, 59904, Note_on_c, 1, 68, 45
4, 60064, Note_off_c, 1, 68, 0
4, 60064, Note_off_c, 1, 59, 0
4, 60096, Note_on_c, 1, 66, 45
4, 60256, Note_off_c, 1, 66, 0
4, 60288, Note_on_c, 1, 64, 45
4, 60448, Note_off_c, 1, 64, 0
4, 60480, Note_on_c, 1, 52, 45
4, 60640, Note_off_c, 1, 52, 0
4, 61440, Note_on_c, 1, 64, 45
4, 61440, Note_on_c, 1, 67, 45
4, 61600, Note_off_c, 1, 67, 0
4, 61600, Note_off_c, 1, 64, 0
4, 61632, Note_on_c, 1, 64, 45
4, 61632, Note_on_c, 1, 67, 45
4, 61792, Note_off_c, 1, 67, 0
4, 61792, Note_off_c, 1, 64, 0
4, 61824, Note_on_c, 1, 62, 45
4, 61824, Note_on_c, 1, 66, 45
4, 61984, Note_off_c, 1, 66, 0
4, 61984, Note_off_c, 1, 62, 0
4, 62976, Note_on_c, 1, 62, 45
4, 62976, Note_on_c, 1, 65, 45
4, 63136, Note_off_c, 1, 65, 0
4, 63136, Note_off_c, 1, 62, 0
4, 63168, Note_on_c, 1, 62, 45
4, 63168, Note_on_c, 1, 65, 45
4, 63328, Note_off_c, 1, 65, 0
4, 63328, Note_off_c, 1, 62, 0
4, 63360, Note_on_c, 1, 61, 45
4, 63360, Note_on_c, 1, 64, 45
4, 63520, Note_off_c, 1, 64, 0
4, 63520, Note_off_c, 1, 61, 0
4, 63744, Note_on_c, 1, 57, 45
4, 63838, Note_off_c, 1, 57, 0
4, 63840, Note_on_c, 1, 61, 45
4, 63934, Note_off_c, 1, 61, 0
4, 63936, Note_on_c, 1, 64, 45
4, 64030, Note_off_c, 1, 64, 0
4, 64032, Note_on_c, 1, 61, 45
4, 64126, Note_off_c, 1, 61, 0
4, 64128, Note_on_c, 1, 57, 45
4, 64128, Note_on_c, 1, 59, 45
4, 64222, Note_off_c, 1, 59, 0
4, 64222, Note_off_c, 1, 57, 0
4, 64224, Note_on_c, 1, 62, 45
4, 64318, Note_off_c, 1, 62, 0
4, 64320, Note_on_c, 1, 66, 45
4, 64414, Note_off_c, 1, 66, 0
4, 64416, Note_on_c, 1, 64, 45
4, 64510, Note_off_c, 1, 64, 0
4, 64512, Note_on_c, 1, 57, 45
4, 64606, Note_off_c, 1, 57, 0
4, 64608, Note_on_c, 1, 59, 45
4, 64702, Note_off_c, 1, 59, 0
4, 64704, Note_on_c, 1, 62, 45
4, 64798, Note_off_c, 1, 62, 0
4, 64800, Note_on_c, 1, 61, 45
4, 64894, Note_off_c, 1, 61, 0
4, 64896, Note_on_c, 1, 57, 45
4, 64896, Note_on_c, 1, 62, 45
4, 64990, Note_off_c, 1, 62, 0
4, 64990, Note_off_c, 1, 57, 0
4, 64992, Note_on_c, 1, 64, 45
4, 65086, Note_off_c, 1, 64, 0
4, 65088, Note_on_c, 1, 61, 45
4, 65182, Note_off_c, 1, 61, 0
4, 65184, Note_on_c, 1, 57, 45
4, 65278, Note_off_c, 1, 57, 0
4, 65280, Note_on_c, 1, 57, 45
4, 65280, Note_on_c, 1, 62, 45
4, 65374, Note_off_c, 1, 62, 0
4, 65374, Note_off_c, 1, 57, 0
4, 65376, Note_on_c, 1, 64, 45
4, 65470, Note_off_c, 1, 64, 0
4, 65472, Note_on_c, 1, 57, 45
4, 65472, Note_on_c, 1, 62, 45
4, 65566, Note_off_c, 1, 62, 0
4, 65566, Note_off_c, 1, 57, 0
4, 65568, Note_on_c, 1, 64, 45
4, 65662, Note_off_c, 1, 64, 0
4, 65664, Note_on_c, 1, 57, 45
4, 65664, Note_on_c, 1, 61, 45
4, 65758, Note_off_c, 1, 61, 0
4, 65758, Note_off_c, 1, 57, 0
4, 65760, Note_on_c, 1, 64, 45
4, 65854, Note_off_c, 1, 64, 0
4, 65856, Note_on_c, 1, 61, 45
4, 65950, Note_off_c, 1, 61, 0
4, 65952, Note_on_c, 1, 64, 45
4, 66046, Note_off_c, 1, 64, 0
4, 66048, Note_on_c, 1, 57, 45
4, 66048, Note_on_c, 1, 62, 45
4, 66142, Note_off_c, 1, 62, 0
4, 66142, Note_off_c, 1, 57, 0
4, 66144, Note_on_c, 1, 64, 45
4, 66238, Note_off_c, 1, 64, 0
4, 66240, Note_on_c, 1, 57, 45
4, 66240, Note_on_c, 1, 62, 45
4, 66334, Note_off_c, 1, 62, 0
4, 66334, Note_off_c, 1, 57, 0
4, 66336, Note_on_c, 1, 64, 45
4, 66430, Note_off_c, 1, 64, 0
4, 66432, Note_on_c, 1, 61, 45
4, 66592, Note_off_c, 1, 61, 0
4, 66912, Note_on_c, 1, 57, 45
4, 67008, Note_off_c, 1, 57, 0
4, 67008, Note_on_c, 1, 64, 45
4, 67104, Note_off_c, 1, 64, 0
4, 67104, Note_on_c, 1, 62, 45
4, 67198, Note_off_c, 1, 62, 0
4, 67296, Note_on_c, 1, 57, 45
4, 67392, Note_off_c, 1, 57, 0
4, 67392, Note_on_c, 1, 60, 45
4, 67488, Note_off_c, 1, 60, 0
4, 67488, Note_on_c, 1, 59, 45
4, 67582, Note_off_c, 1, 59, 0
4, 67680, Note_on_c, 1, 57, 45
4, 67776, Note_off_c, 1, 57, 0
4, 67776, Note_on_c, 1, 60, 45
4, 67872, Note_off_c, 1, 60, 0
4, 67872, Note_on_c, 1, 56, 45
4, 67966, Note_off_c, 1, 56, 0
4, 68064, Note_on_c, 1, 57, 45
4, 68160, Note_off_c, 1, 57, 0
4, 68160, Note_on_c, 1, 64, 45
4, 68256, Note_off_c, 1, 64, 0
4, 68256, Note_on_c, 1, 52, 45
4, 68350, Note_off_c, 1, 52, 0
4, 68448, Note_on_c, 1, 53, 45
4, 68544, Note_off_c, 1, 53, 0
4, 68544, Note_on_c, 1, 65, 45
4, 68640, Note_off_c, 1, 65, 0
4, 68640, Note_on_c, 1, 64, 45
4, 68734, Note_off_c, 1, 64, 0
4, 68832, Note_on_c, 1, 50, 45
4, 68928, Note_off_c, 1, 50, 0
4, 68928, Note_on_c, 1, 62, 45
4, 69024, Note_off_c, 1, 62, 0
4, 69024, Note_on_c, 1, 60, 45
4, 69118, Note_off_c, 1, 60, 0
4, 69216, Note_on_c, 1, 47, 45
4, 69312, Note_off_c, 1, 47, 0
4, 69312, Note_on_c, 1, 59, 45
4, 69408, Note_off_c, 1, 59, 0
4, 69408, Note_on_c, 1, 57, 45
4, 69502, Note_off_c, 1, 57, 0
4, 69504, Note_on_c, 1, 52, 45
4, 69504, Note_on_c, 1, 64, 45
4, 69664, Note_off_c, 1, 64, 0
4, 69664, Note_off_c, 1, 52, 0
4, 69696, Note_on_c, 1, 52, 45
4, 69856, Note_off_c, 1, 52, 0
4, 69984, Note_on_c, 1, 57, 45
4, 70080, Note_off_c, 1, 57, 0
4, 70080, Note_on_c, 1, 64, 45
4, 70176, Note_off_c, 1, 64, 0
4, 70176, Note_on_c, 1, 62, 45
4, 70270, Note_off_c, 1, 62, 0
4, 70368, Note_on_c, 1, 57, 45
4, 70464, Note_off_c, 1, 57, 0
4, 70464, Note_on_c, 1, 60, 45
4, 70560, Note_off_c, 1, 60, 0
4, 70560, Note_on_c, 1, 59, 45
4, 70654, Note_off_c, 1, 59, 0
4, 70752, Note_on_c, 1, 57, 45
4, 70848, Note_off_c, 1, 57, 0
4, 70848, Note_on_c, 1, 60, 45
4, 70944, Note_off_c, 1, 60, 0
4, 70944, Note_on_c, 1, 56, 45
4, 71038, Note_off_c, 1, 56, 0
4, 71136, Note_on_c, 1, 57, 45
4, 71232, Note_off_c, 1, 57, 0
4, 71232, Note_on_c, 1, 64, 45
4, 71328, Note_off_c, 1, 64, 0
4, 71328, Note_on_c, 1, 52, 45
4, 71422, Note_off_c, 1, 52, 0
4, 71520, Note_on_c, 1, 50, 46
4, 71616, Note_off_c, 1, 50, 0
4, 71616, Note_on_c, 1, 62, 47
4, 71712, Note_off_c, 1, 62, 0
4, 71712, Note_on_c, 1, 60, 48
4, 71806, Note_off_c, 1, 60, 0
4, 71904, Note_on_c, 1, 53, 50
4, 72000, Note_off_c, 1, 53, 0
4, 72000, Note_on_c, 1, 65, 51
4, 72096, Note_off_c, 1, 65, 0
4, 72096, Note_on_c, 1, 64, 52
4, 72190, Note_off_c, 1, 64, 0
4, 72192, Note_on_c, 1, 62, 53
4, 72352, Note_off_c, 1, 62, 0
4, 72384, Note_on_c, 1, 64, 54
4, 72544, Note_off_c, 1, 64, 0
4, 72576, Note_on_c, 1, 65, 55
4, 72736, Note_off_c, 1, 65, 0
4, 73056, Note_on_c, 1, 50, 92
4, 73150, Note_off_c, 1, 50, 0
4, 73152, Note_on_c, 1, 62, 92
4, 73246, Note_off_c, 1, 62, 0
4, 73248, Note_on_c, 1, 60, 92
4, 73342, Note_off_c, 1, 60, 0
4, 73440, Note_on_c, 1, 47, 92
4, 73534, Note_off_c, 1, 47, 0
4, 73536, Note_on_c, 1, 59, 92
4, 73630, Note_off_c, 1, 59, 0
4, 73632, Note_on_c, 1, 57, 92
4, 73726, Note_off_c, 1, 57, 0
4, 73728, Note_on_c, 1, 62, 92
4, 73888, Note_off_c, 1, 62, 0
4, 73920, Note_on_c, 1, 64, 92
4, 74080, Note_off_c, 1, 64, 0
4, 74112, Note_on_c, 1, 57, 92
4, 74272, Note_off_c, 1, 57, 0
4, 74592, Note_on_c, 1, 61, 92
4, 74686, Note_off_c, 1, 61, 0
4, 74688, Note_on_c, 1, 67, 92
4, 74782, Note_off_c, 1, 67, 0
4, 74784, Note_on_c, 1, 70, 92
4, 74878, Note_off_c, 1, 70, 0
4, 74976, Note_on_c, 1, 62, 92
4, 75070, Note_off_c, 1, 62, 0
4, 75072, Note_on_c, 1, 65, 92
4, 75166, Note_off_c, 1, 65, 0
4, 75168, Note_on_c, 1, 69, 92
4, 75262, Note_off_c, 1, 69, 0
4, 75360, Note_on_c, 1, 63, 92
4, 75454, Note_off_c, 1, 63, 0
4, 75456, Note_on_c, 1, 69, 92
4, 75550, Note_off_c, 1, 69, 0
4, 75552, Note_on_c, 1, 72, 92
4, 75646, Note_off_c, 1, 72, 0
4, 75744, Note_on_c, 1, 64, 92
4, 75838, Note_off_c, 1, 64, 0
4, 75840, Note_on_c, 1, 68, 92
4, 75934, Note_off_c, 1, 68, 0
4, 75936, Note_on_c, 1, 71, 92
4, 76030, Note_off_c, 1, 71, 0
4, 76128, Note_on_c, 1, 53, 92
4, 76222, Note_off_c, 1, 53, 0
4, 76224, Note_on_c, 1, 65, 92
4, 76318, Note_off_c, 1, 65, 0
4, 76320, Note_on_c, 1, 64, 92
4, 76414, Note_off_c, 1, 64, 0
4, 76512, Note_on_c, 1, 53, 92
4, 76606, Note_off_c, 1, 53, 0
4, 76608, Note_on_c, 1, 65, 92
4, 76702, Note_off_c, 1, 65, 0
4, 76704, Note_on_c, 1, 64, 92
4, 76798, Note_off_c, 1, 64, 0
4, 76896, Note_on_c, 1, 53, 92
4, 76990, Note_off_c, 1, 53, 0
4, 76992, Note_on_c, 1, 65, 92
4, 77086, Note_off_c, 1, 65, 0
4, 77088, Note_on_c, 1, 64, 92
4, 77182, Note_off_c, 1, 64, 0
4, 77280, Note_on_c, 1, 53, 92
4, 77374, Note_off_c, 1, 53, 0
4, 77376, Note_on_c, 1, 65, 92
4, 77470, Note_off_c, 1, 65, 0
4, 77472, Note_on_c, 1, 64, 92
4, 77566, Note_off_c, 1, 64, 0
4, 77568, Note_on_c, 1, 36, 60
4, 77568, Note_on_c, 1, 48, 60
4, 77856, Note_off_c, 1, 48, 0
4, 77856, Note_off_c, 1, 36, 0
4, 77856, Note_on_c, 1, 35, 60
4, 77856, Note_on_c, 1, 47, 60
4, 77950, Note_off_c, 1, 47, 0
4, 77950, Note_off_c, 1, 35, 0
4, 77952, Note_on_c, 1, 33, 60
4, 77952, Note_on_c, 1, 45, 60
4, 78240, Note_off_c, 1, 45, 0
4, 78240, Note_off_c, 1, 33, 0
4, 78240, Note_on_c, 1, 35, 60
4, 78240, Note_on_c, 1, 47, 60
4, 78334, Note_off_c, 1, 47, 0
4, 78334, Note_off_c, 1, 35, 0
4, 78336, Note_on_c, 1, 36, 60
4, 78336, Note_on_c, 1, 48, 60
4, 78624, Note_off_c, 1, 48, 0
4, 78624, Note_off_c, 1, 36, 0
4, 78624, Note_on_c, 1, 38, 60
4, 78624, Note_on_c, 1, 50, 60
4, 78718, Note_off_c, 1, 50, 0
4, 78718, Note_off_c, 1, 38, 0
4, 78720, Note_on_c, 1, 36, 60
4, 78720, Note_on_c, 1, 48, 60
4, 78912, Note_off_c, 1, 48, 0
4, 78912, Note_off_c, 1, 36, 0
4, 78912, Note_on_c, 1, 35, 60
4, 78912, Note_on_c, 1, 47, 60
4, 79072, Note_off_c, 1, 47, 0
4, 79072, Note_off_c, 1, 35, 0
4, 79200, Note_on_c, 1, 52, 60
4, 79294, Note_off_c, 1, 52, 0
4, 79296, Note_on_c, 1, 59, 60
4, 79390, Note_off_c, 1, 59, 0
4, 79392, Note_on_c, 1, 57, 60
4, 79486, Note_off_c, 1, 57, 0
4, 79584, Note_on_c, 1, 52, 60
4, 79680, Note_off_c, 1, 52, 0
4, 79680, Note_on_c, 1, 56, 60
4, 79776, Note_off_c, 1, 56, 0
4, 79776, Note_on_c, 1, 57, 60
4, 79870, Note_off_c, 1, 57, 0
4, 79968, Note_on_c, 1, 52, 61
4, 80064, Note_off_c, 1, 52, 0
4, 80064, Note_on_c, 1, 59, 62
4, 80160, Note_off_c, 1, 59, 0
4, 80160, Note_on_c, 1, 60, 63
4, 80254, Note_off_c, 1, 60, 0
4, 80352, Note_on_c, 1, 52, 65
4, 80448, Note_off_c, 1, 52, 0
4, 80448, Note_on_c, 1, 59, 66
4, 80544, Note_off_c, 1, 59, 0
4, 80544, Note_on_c, 1, 57, 67
4, 80638, Note_off_c, 1, 57, 0
4, 80640, Note_on_c, 1, 48, 92
4, 80734, Note_off_c, 1, 48, 0
4, 80736, Note_on_c, 1, 60, 92
4, 80830, Note_off_c, 1, 60, 0
4, 80832, Note_on_c, 1, 64, 92
4, 80926, Note_off_c, 1, 64, 0
4, 80928, Note_on_c, 1, 59, 92
4, 81022, Note_off_c, 1, 59, 0
4, 81024, Note_on_c, 1, 45, 92
4, 81118, Note_off_c, 1, 45, 0
4, 81120, Note_on_c, 1, 57, 92
4, 81214, Note_off_c, 1, 57, 0
4, 81216, Note_on_c, 1, 60, 92
4, 81310, Note_off_c, 1, 60, 0
4, 81312, Note_on_c, 1, 55, 92
4, 81406, Note_off_c, 1, 55, 0
4, 81408, Note_on_c, 1, 41, 92
4, 81502, Note_off_c, 1, 41, 0
4, 81504, Note_on_c, 1, 53, 92
4, 81598, Note_off_c, 1, 53, 0
4, 81600, Note_on_c, 1, 57, 92
4, 81694, Note_off_c, 1, 57, 0
4, 81696, Note_on_c, 1, 52, 92
4, 81790, Note_off_c, 1, 52, 0
4, 81792, Note_on_c, 1, 38, 92
4, 81886, Note_off_c, 1, 38, 0
4, 81888, Note_on_c, 1, 50, 92
4, 81982, Note_off_c, 1, 50, 0
4, 81984, Note_on_c, 1, 53, 92
4, 82078, Note_off_c, 1, 53, 0
4, 82080, Note_on_c, 1, 45, 92
4, 82174, Note_off_c, 1, 45, 0
4, 82176, Note_on_c, 1, 47, 92
4, 82336, Note_off_c, 1, 47, 0
4, 82368, Note_on_c, 1, 44, 92
4, 82528, Note_off_c, 1, 44, 0
4, 82560, Note_on_c, 1, 45, 92
4, 82720, Note_off_c, 1, 45, 0
4, 82752, Note_on_c, 1, 50, 92
4, 82912, Note_off_c, 1, 50, 0
4, 82944, Note_on_c, 1, 52, 92
4, 83104, Note_off_c, 1, 52, 0
4, 83136, Note_on_c, 1, 40, 92
4, 83296, Note_off_c, 1, 40, 0
4, 83328, Note_on_c, 1, 33, 92
4, 83422, Note_off_c, 1, 33, 0
4, 83424, Note_on_c, 1, 36, 92
4, 83518, Note_off_c, 1, 36, 0
4, 83520, Note_on_c, 1, 40, 92
4, 83614, Note_off_c, 1, 40, 0
4, 83616, Note_on_c, 1, 45, 92
4, 83710, Note_off_c, 1, 45, 0
4, 83712, Note_on_c, 1, 48, 92
4, 83712, Note_on_c, 1, 52, 92
4, 83968, Note_off_c, 1, 52, 0
4, 83968, Note_off_c, 1, 48, 0
4, 84000, Note_on_c, 1, 47, 92
4, 84000, Note_on_c, 1, 50, 92
4, 84094, Note_off_c, 1, 50, 0
4, 84094, Note_off_c, 1, 47, 0
4, 84096, Note_on_c, 1, 45, 92
4, 84096, Note_on_c, 1, 48, 92
4, 84352, Note_off_c, 1, 48, 0
4, 84352, Note_off_c, 1, 45, 0
4, 84384, Note_on_c, 1, 43, 92
4, 84384, Note_on_c, 1, 47, 92
4, 84478, Note_off_c, 1, 47, 0
4, 84478, Note_off_c, 1, 43, 0
4, 84480, Note_on_c, 1, 41, 92
4, 84480, Note_on_c, 1, 45, 92
4, 84736, Note_off_c, 1, 45, 0
4, 84736, Note_off_c, 1, 41, 0
4, 84768, Note_on_c, 1, 40, 92
4, 84768, Note_on_c, 1, 43, 92
4, 84862, Note_off_c, 1, 43, 0
4, 84862, Note_off_c, 1, 40, 0
4, 84864, Note_on_c, 1, 38, 92
4, 84864, Note_on_c, 1, 41, 92
4, 85120, Note_off_c, 1, 41, 0
4, 85120, Note_off_c, 1, 38, 0
4, 85152, Note_on_c, 1, 36, 92
4, 85152, Note_on_c, 1, 40, 92
4, 85246, Note_off_c, 1, 40, 0
4, 85246, Note_off_c, 1, 36, 0
4, 85248, Note_on_c, 1, 35, 92
4, 85248, Note_on_c, 1, 38, 92
4, 85408, Note_off_c, 1, 38, 0
4, 85408, Note_off_c, 1, 35, 0
4, 85440, Note_on_c, 1, 44, 92
4, 85440, Note_on_c, 1, 52, 92
4, 85600, Note_off_c, 1, 52, 0
4, 85600, Note_off_c, 1, 44, 0
4, 85632, Note_on_c, 1, 45, 92
4, 85792, Note_off_c, 1, 45, 0
4, 85824, Note_on_c, 1, 50, 92
4, 85984, Note_off_c, 1, 50, 0
4, 86016, Note_on_c, 1, 52, 92
4, 86110, Note_off_c, 1, 52, 0
4, 86112, Note_on_c, 1, 51, 92
4, 86206, Note_off_c, 1, 51, 0
4, 86208, Note_on_c, 1, 52, 92
4, 86302, Note_off_c, 1, 52, 0
4, 86304, Note_on_c, 1, 40, 92
4, 86398, Note_off_c, 1, 40, 0
4, 86496, Note_on_c, 1, 58, 92
4, 86590, Note_off_c, 1, 58, 0
4, 86592, Note_on_c, 1, 57, 92
4, 86686, Note_off_c, 1, 57, 0
4, 86688, Note_on_c, 1, 55, 92
4, 86782, Note_off_c, 1, 55, 0
4, 86784, Note_on_c, 1, 53, 92
4, 86880, Note_off_c, 1, 53, 0
4, 86880, Note_on_c, 1, 52, 92
4, 86976, Note_off_c, 1, 52, 0
4, 86976, Note_on_c, 1, 50, 92
4, 87072, Note_off_c, 1, 50, 0
4, 87072, Note_on_c, 1, 53, 92
4, 87166, Note_off_c, 1, 53, 0
4, 87264, Note_on_c, 1, 60, 92
4, 87358, Note_off_c, 1, 60, 0
4, 87360, Note_on_c, 1, 59, 92
4, 87454, Note_off_c, 1, 59, 0
4, 87456, Note_on_c, 1, 57, 92
4, 87550, Note_off_c, 1, 57, 0
4, 87552, Note_on_c, 1, 56, 92
4, 87648, Note_off_c, 1, 56, 0
4, 87648, Note_on_c, 1, 54, 92
4, 87744, Note_off_c, 1, 54, 0
4, 87744, Note_on_c, 1, 52, 92
4, 87840, Note_off_c, 1, 52, 0
4, 87840, Note_on_c, 1, 56, 92
4, 87934, Note_off_c, 1, 56, 0
4, 88032, Note_on_c, 1, 65, 92
4, 88126, Note_off_c, 1, 65, 0
4, 88128, Note_on_c, 1, 64, 92
4, 88222, Note_off_c, 1, 64, 0
4, 88224, Note_on_c, 1, 62, 92
4, 88318, Note_off_c, 1, 62, 0
4, 88320, Note_on_c, 1, 60, 92
4, 88480, Note_off_c, 1, 60, 0
4, 88512, Note_on_c, 1, 62, 92
4, 88672, Note_off_c, 1, 62, 0
4, 88704, Note_on_c, 1, 64, 92
4, 88864, Note_off_c, 1, 64, 0
4, 88896, Note_on_c, 1, 52, 92
4, 89056, Note_off_c, 1, 52, 0
4, 90816, Note_on_c, 1, 50, 92
4, 90816, Note_on_c, 1, 53, 92
4, 90816, Note_on_c, 1, 59, 92
4, 90976, Note_off_c, 1, 59, 0
4, 90976, Note_off_c, 1, 53, 0
4, 90976, Note_off_c, 1, 50, 0
4, 91008, Note_on_c, 1, 52, 92
4, 91008, Note_on_c, 1, 57, 92
4, 91008, Note_on_c, 1, 60, 92
4, 91168, Note_off_c, 1, 60, 0
4, 91168, Note_off_c, 1, 57, 0
4, 91168, Note_off_c, 1, 52, 0
4, 91200, Note_on_c, 1, 40, 92
4, 91200, Note_on_c, 1, 52, 92
4, 91360, Note_off_c, 1, 52, 0
4, 91360, Note_off_c, 1, 40, 0
4, 93120, Note_on_c, 1, 50, 92
4, 93120, Note_on_c, 1, 53, 92
4, 93120, Note_on_c, 1, 59, 92
4, 93280, Note_off_c, 1, 59, 0
4, 93280, Note_off_c, 1, 53, 0
4, 93280, Note_off_c, 1, 50, 0
4, 93312, Note_on_c, 1, 52, 92
4, 93312, Note_on_c, 1, 57, 92
4, 93312, Note_on_c, 1, 60, 92
4, 93472, Note_off_c, 1, 60, 0
4, 93472, Note_off_c, 1, 57, 0
4, 93472, Note_off_c, 1, 52, 0
4, 93504, Note_on_c, 1, 40, 92
4, 93504, Note_on_c, 1, 52, 92
4, 93664, Note_off_c, 1, 52, 0
4, 93664, Note_off_c, 1, 40, 0
4, 93696, Note_on_c, 1, 45, 92
4, 93856, Note_off_c, 1, 45, 0
4, 94464, Note_on_c, 1, 45, 92
4, 94558, Note_off_c, 1, 45, 0
4, 94560, Note_on_c, 1, 40, 92
4, 94654, Note_off_c, 1, 40, 0
4, 94656, Note_on_c, 1, 48, 92
4, 94750, Note_off_c, 1, 48, 0
4, 94752, Note_on_c, 1, 45, 92
4, 94846, Note_off_c, 1, 45, 0
4, 94848, Note_on_c, 1, 52, 92
4, 94942, Note_off_c, 1, 52, 0
4, 94944, Note_on_c, 1, 48, 92
4, 95038, Note_off_c, 1, 48, 0
4, 95040, Note_on_c, 1, 47, 92
4, 95134, Note_off_c, 1, 47, 0
4, 95136, Note_on_c, 1, 44, 92
4, 95230, Note_off_c, 1, 44, 0
4, 95232, Note_on_c, 1, 45, 92
4, 95326, Note_off_c, 1, 45, 0
4, 95328, Note_on_c, 1, 40, 92
4, 95328, Note_on_c, 1, 52, 92
4, 95422, Note_off_c, 1, 52, 0
4, 95422, Note_off_c, 1, 40, 0
4, 95424, Note_on_c, 1, 40, 92
4, 95424, Note_on_c, 1, 52, 92
4, 95518, Note_off_c, 1, 52, 0
4, 95518, Note_off_c, 1, 40, 0
4, 95520, Note_on_c, 1, 40, 92
4, 95520, Note_on_c, 1, 52, 92
4, 95614, Note_off_c, 1, 52, 0
4, 95614, Note_off_c, 1, 40, 0
4, 95616, Note_on_c, 1, 40, 92
4, 95616, Note_on_c, 1, 52, 92
4, 95710, Note_off_c, 1, 52, 0
4, 95710, Note_off_c, 1, 40, 0
4, 95712, Note_on_c, 1, 40, 92
4, 95712, Note_on_c, 1, 52, 92
4, 95806, Note_off_c, 1, 52, 0
4, 95806, Note_off_c, 1, 40, 0
4, 95808, Note_on_c, 1, 40, 92
4, 95808, Note_on_c, 1, 52, 92
4, 95902, Note_off_c, 1, 52, 0
4, 95902, Note_off_c, 1, 40, 0
4, 95904, Note_on_c, 1, 40, 92
4, 95904, Note_on_c, 1, 52, 92
4, 95998, Note_off_c, 1, 52, 0
4, 95998, Note_off_c, 1, 40, 0
4, 96000, Note_on_c, 1, 45, 92
4, 96000, Note_on_c, 1, 57, 92
4, 96160, Note_off_c, 1, 57, 0
4, 96160, Note_off_c, 1, 45, 0
4, 96192, Note_on_c, 1, 33, 92
4, 96192, Note_on_c, 1, 45, 92
4, 96352, Note_off_c, 1, 45, 0
4, 96352, Note_off_c, 1, 33, 0
4, 96384, Note_on_c, 1, 33, 92
4, 96384, Note_on_c, 1, 45, 92
4, 96544, Note_off_c, 1, 45, 0
4, 96544, Note_off_c, 1, 33, 0
4, 96544, End_track
5, 0, Start_track
5, 0, Title_t, "Wolfgang Amadeus Mozart"
5, 0, Channel_prefix, 2
5, 0, Control_c, 2, 7, 100
5, 0, Program_c, 2, 0
5, 0, End_track
6, 0, Start_track
6, 0, Title_t, "Piano Sonata no. 8 mov.3  K.310"
6, 0, Channel_prefix, 3
6, 0, Control_c, 3, 7, 100
6, 0, Program_c, 3, 0
6, 0, End_track
7, 0, Start_track
7, 0, Title_t, "Sequenced by Dan Szymborski"
7, 0, Channel_prefix, 4
7, 0, Control_c, 4, 7, 100
7, 0, Program_c, 4, 0
7, 0, End_track
8, 0, Start_track
8, 0, Title_t, "Czerny@msn.com"
8, 0, Channel_prefix, 5
8, 0, Control_c, 5, 7, 100
8, 0, Program_c, 5, 0
8, 0, End_track
9, 0, Start_track
9, 0, Title_t, "www.netcom.com/~czerny"
9, 0, Channel_prefix, 6
9, 0, Control_c, 6, 7, 100
9, 0, Program_c, 6, 0
9, 0, End_track
0, 0, End_of_file
