0, 0, Header, 1, 6, 192
1, 0, Start_track
1, 0, Tempo, 476190
1, 0, Time_signature, 2, 2, 24, 8
1, 0, Key_signature, 0, "major"
1, 0, End_track
2, 0, Start_track
2, 0, Title_t, "Piano"
2, 0, Channel_prefix, 0
2, 0, Control_c, 0, 7, 109
2, 0, Program_c, 0, 0
2, 0, Note_on_c, 0, 72, 80
2, 96, Note_on_c, 0, 64, 80
2, 96, Note_on_c, 0, 67, 80
2, 172, Note_off_c, 0, 67, 0
2, 172, Note_off_c, 0, 64, 0
2, 192, Note_on_c, 0, 62, 80
2, 192, Note_on_c, 0, 65, 80
2, 268, Note_off_c, 0, 65, 0
2, 268, Note_off_c, 0, 62, 0
2, 288, Note_on_c, 0, 60, 80
2, 288, Note_on_c, 0, 64, 80
2, 307, Note_off_c, 0, 72, 0
2, 364, Note_off_c, 0, 60, 0
2, 364, Note_off_c, 0, 64, 0
2, 384, Note_on_c, 0, 77, 80
2, 480, Note_on_c, 0, 59, 80
2, 480, Note_on_c, 0, 62, 80
2, 556, Note_off_c, 0, 62, 0
2, 556, Note_off_c, 0, 59, 0
2, 576, Note_on_c, 0, 57, 80
2, 576, Note_on_c, 0, 60, 80
2, 652, Note_off_c, 0, 60, 0
2, 652, Note_off_c, 0, 57, 0
2, 672, Note_on_c, 0, 55, 80
2, 672, Note_on_c, 0, 59, 80
2, 691, Note_off_c, 0, 77, 0
2, 748, Note_off_c, 0, 55, 0
2, 748, Note_off_c, 0, 59, 0
2, 768, Note_on_c, 0, 60, 80
2, 768, Note_on_c, 0, 76, 80
2, 806, Note_off_c, 0, 76, 0
2, 816, Note_on_c, 0, 79, 80
2, 844, Note_off_c, 0, 60, 0
2, 854, Note_off_c, 0, 79, 0
2, 864, Note_on_c, 0, 77, 80
2, 864, Note_on_c, 0, 72, 80
2, 902, Note_off_c, 0, 77, 0
2, 912, Note_on_c, 0, 76, 80
2, 940, Note_off_c, 0, 72, 0
2, 950, Note_off_c, 0, 76, 0
2, 960, Note_on_c, 0, 65, 80
2, 960, Note_on_c, 0, 81, 80
2, 998, Note_off_c, 0, 81, 0
2, 1008, Note_on_c, 0, 77, 80
2, 1036, Note_off_c, 0, 65, 0
2, 1046, Note_off_c, 0, 77, 0
2, 1056, Note_on_c, 0, 66, 80
2, 1056, Note_on_c, 0, 74, 80
2, 1094, Note_off_c, 0, 74, 0
2, 1104, Note_on_c, 0, 72, 80
2, 1132, Note_off_c, 0, 66, 0
2, 1142, Note_off_c, 0, 72, 0
2, 1152, Note_on_c, 0, 67, 80
2, 1152, Note_on_c, 0, 71, 80
2, 1190, Note_off_c, 0, 71, 0
2, 1200, Note_on_c, 0, 72, 80
2, 1238, Note_off_c, 0, 72, 0
2, 1248, Note_on_c, 0, 74, 80
2, 1286, Note_off_c, 0, 74, 0
2, 1296, Note_on_c, 0, 71, 80
2, 1305, Note_off_c, 0, 67, 0
2, 1334, Note_off_c, 0, 71, 0
2, 1344, Note_on_c, 0, 55, 80
2, 1344, Note_on_c, 0, 69, 80
2, 1382, Note_off_c, 0, 69, 0
2, 1392, Note_on_c, 0, 67, 80
2, 1430, Note_off_c, 0, 67, 0
2, 1440, Note_on_c, 0, 66, 80
2, 1478, Note_off_c, 0, 66, 0
2, 1488, Note_on_c, 0, 67, 80
2, 1497, Note_off_c, 0, 55, 0
2, 1526, Note_off_c, 0, 67, 0
2, 1536, Note_on_c, 0, 60, 80
2, 1632, Note_on_c, 0, 52, 80
2, 1632, Note_on_c, 0, 55, 80
2, 1708, Note_off_c, 0, 55, 0
2, 1708, Note_off_c, 0, 52, 0
2, 1728, Note_on_c, 0, 50, 80
2, 1728, Note_on_c, 0, 53, 80
2, 1804, Note_off_c, 0, 53, 0
2, 1804, Note_off_c, 0, 50, 0
2, 1824, Note_on_c, 0, 48, 80
2, 1824, Note_on_c, 0, 52, 80
2, 1843, Note_off_c, 0, 60, 0
2, 1900, Note_off_c, 0, 48, 0
2, 1900, Note_off_c, 0, 52, 0
2, 1920, Note_on_c, 0, 65, 80
2, 2016, Note_on_c, 0, 50, 80
2, 2016, Note_on_c, 0, 47, 80
2, 2092, Note_off_c, 0, 47, 0
2, 2092, Note_off_c, 0, 50, 0
2, 2112, Note_on_c, 0, 48, 80
2, 2112, Note_on_c, 0, 45, 80
2, 2188, Note_off_c, 0, 45, 0
2, 2188, Note_off_c, 0, 48, 0
2, 2208, Note_on_c, 0, 47, 80
2, 2208, Note_on_c, 0, 43, 80
2, 2227, Note_off_c, 0, 65, 0
2, 2284, Note_off_c, 0, 47, 0
2, 2284, Note_off_c, 0, 43, 0
2, 2304, Note_on_c, 0, 48, 80
2, 2304, Note_on_c, 0, 64, 80
2, 2342, Note_off_c, 0, 64, 0
2, 2352, Note_on_c, 0, 67, 80
2, 2380, Note_off_c, 0, 48, 0
2, 2390, Note_off_c, 0, 67, 0
2, 2400, Note_on_c, 0, 72, 80
2, 2400, Note_on_c, 0, 52, 80
2, 2438, Note_off_c, 0, 72, 0
2, 2448, Note_on_c, 0, 67, 80
2, 2476, Note_off_c, 0, 52, 0
2, 2486, Note_off_c, 0, 67, 0
2, 2496, Note_on_c, 0, 50, 80
2, 2496, Note_on_c, 0, 66, 80
2, 2534, Note_off_c, 0, 66, 0
2, 2544, Note_on_c, 0, 67, 80
2, 2572, Note_off_c, 0, 50, 0
2, 2582, Note_off_c, 0, 67, 0
2, 2592, Note_on_c, 0, 47, 80
2, 2592, Note_on_c, 0, 65, 80
2, 2630, Note_off_c, 0, 65, 0
2, 2640, Note_on_c, 0, 67, 80
2, 2668, Note_off_c, 0, 47, 0
2, 2678, Note_off_c, 0, 67, 0
2, 2688, Note_on_c, 0, 48, 80
2, 2688, Note_on_c, 0, 64, 80
2, 2726, Note_off_c, 0, 64, 0
2, 2736, Note_on_c, 0, 67, 80
2, 2764, Note_off_c, 0, 48, 0
2, 2774, Note_off_c, 0, 67, 0
2, 2784, Note_on_c, 0, 72, 80
2, 2784, Note_on_c, 0, 52, 80
2, 2822, Note_off_c, 0, 72, 0
2, 2832, Note_on_c, 0, 67, 80
2, 2860, Note_off_c, 0, 52, 0
2, 2870, Note_off_c, 0, 67, 0
2, 2880, Note_on_c, 0, 50, 80
2, 2880, Note_on_c, 0, 66, 80
2, 2918, Note_off_c, 0, 66, 0
2, 2928, Note_on_c, 0, 67, 80
2, 2956, Note_off_c, 0, 50, 0
2, 2966, Note_off_c, 0, 67, 0
2, 2976, Note_on_c, 0, 47, 80
2, 2976, Note_on_c, 0, 65, 80
2, 3014, Note_off_c, 0, 65, 0
2, 3024, Note_on_c, 0, 67, 80
2, 3052, Note_off_c, 0, 47, 0
2, 3062, Note_off_c, 0, 67, 0
2, 3072, Note_on_c, 0, 48, 80
2, 3072, Note_on_c, 0, 64, 80
2, 3110, Note_off_c, 0, 64, 0
2, 3120, Note_on_c, 0, 67, 80
2, 3148, Note_off_c, 0, 48, 0
2, 3158, Note_off_c, 0, 67, 0
2, 3168, Note_on_c, 0, 60, 80
2, 3168, Note_on_c, 0, 52, 80
2, 3206, Note_off_c, 0, 60, 0
2, 3216, Note_on_c, 0, 64, 80
2, 3244, Note_off_c, 0, 52, 0
2, 3254, Note_off_c, 0, 64, 0
2, 3264, Note_on_c, 0, 53, 80
2, 3264, Note_on_c, 0, 62, 80
2, 3302, Note_off_c, 0, 62, 0
2, 3312, Note_on_c, 0, 65, 80
2, 3340, Note_off_c, 0, 53, 0
2, 3350, Note_off_c, 0, 65, 0
2, 3360, Note_on_c, 0, 55, 80
2, 3360, Note_on_c, 0, 59, 80
2, 3398, Note_off_c, 0, 59, 0
2, 3408, Note_on_c, 0, 62, 80
2, 3436, Note_off_c, 0, 55, 0
2, 3446, Note_off_c, 0, 62, 0
2, 3456, Note_on_c, 0, 60, 80
2, 3456, Note_on_c, 0, 48, 80
2, 3532, Note_off_c, 0, 48, 0
2, 3552, Note_on_c, 0, 43, 80
2, 3609, Note_off_c, 0, 60, 0
2, 3628, Note_off_c, 0, 43, 0
2, 3648, Note_on_c, 0, 36, 80
2, 3744, Note_on_c, 0, 67, 80
2, 3763, Note_off_c, 0, 67, 0
2, 3768, Note_on_c, 0, 69, 80
2, 3787, Note_off_c, 0, 69, 0
2, 3792, Note_on_c, 0, 67, 80
2, 3801, Note_off_c, 0, 36, 0
2, 3811, Note_off_c, 0, 67, 0
2, 3816, Note_on_c, 0, 69, 80
2, 3835, Note_off_c, 0, 69, 0
2, 3840, Note_on_c, 0, 72, 80
2, 3840, Note_on_c, 0, 67, 80
2, 3840, Note_on_c, 0, 60, 80
2, 3840, Note_on_c, 0, 64, 80
2, 3878, Note_off_c, 0, 72, 0
2, 3888, Note_on_c, 0, 67, 80
2, 3926, Note_off_c, 0, 67, 0
2, 3936, Note_on_c, 0, 76, 80
2, 3974, Note_off_c, 0, 76, 0
2, 3984, Note_on_c, 0, 72, 80
2, 3993, Note_off_c, 0, 60, 0
2, 3993, Note_off_c, 0, 64, 0
2, 3993, Note_off_c, 0, 67, 0
2, 4022, Note_off_c, 0, 72, 0
2, 4032, Note_on_c, 0, 79, 80
2, 4070, Note_off_c, 0, 79, 0
2, 4080, Note_on_c, 0, 78, 80
2, 4118, Note_off_c, 0, 78, 0
2, 4128, Note_on_c, 0, 79, 80
2, 4166, Note_off_c, 0, 79, 0
2, 4176, Note_on_c, 0, 76, 80
2, 4214, Note_off_c, 0, 76, 0
2, 4224, Note_on_c, 0, 76, 80
2, 4224, Note_on_c, 0, 67, 80
2, 4224, Note_on_c, 0, 59, 80
2, 4224, Note_on_c, 0, 62, 80
2, 4262, Note_off_c, 0, 76, 0
2, 4272, Note_on_c, 0, 74, 80
2, 4310, Note_off_c, 0, 74, 0
2, 4320, Note_on_c, 0, 73, 80
2, 4358, Note_off_c, 0, 73, 0
2, 4368, Note_on_c, 0, 74, 80
2, 4377, Note_off_c, 0, 67, 0
2, 4377, Note_off_c, 0, 59, 0
2, 4377, Note_off_c, 0, 62, 0
2, 4406, Note_off_c, 0, 74, 0
2, 4416, Note_on_c, 0, 73, 80
2, 4454, Note_off_c, 0, 73, 0
2, 4464, Note_on_c, 0, 74, 80
2, 4502, Note_off_c, 0, 74, 0
2, 4512, Note_on_c, 0, 73, 80
2, 4550, Note_off_c, 0, 73, 0
2, 4560, Note_on_c, 0, 74, 80
2, 4598, Note_off_c, 0, 74, 0
2, 4608, Note_on_c, 0, 79, 80
2, 4608, Note_on_c, 0, 67, 80
2, 4608, Note_on_c, 0, 59, 80
2, 4608, Note_on_c, 0, 62, 80
2, 4646, Note_off_c, 0, 79, 0
2, 4656, Note_on_c, 0, 81, 80
2, 4694, Note_off_c, 0, 81, 0
2, 4704, Note_on_c, 0, 83, 80
2, 4742, Note_off_c, 0, 83, 0
2, 4752, Note_on_c, 0, 78, 80
2, 4761, Note_off_c, 0, 67, 0
2, 4761, Note_off_c, 0, 59, 0
2, 4761, Note_off_c, 0, 62, 0
2, 4790, Note_off_c, 0, 78, 0
2, 4800, Note_on_c, 0, 79, 80
2, 4838, Note_off_c, 0, 79, 0
2, 4848, Note_on_c, 0, 74, 80
2, 4886, Note_off_c, 0, 74, 0
2, 4896, Note_on_c, 0, 76, 80
2, 4934, Note_off_c, 0, 76, 0
2, 4944, Note_on_c, 0, 71, 80
2, 4982, Note_off_c, 0, 71, 0
2, 4992, Note_on_c, 0, 60, 80
2, 4992, Note_on_c, 0, 74, 80
2, 4992, Note_on_c, 0, 57, 80
2, 4992, Note_on_c, 0, 66, 80
2, 5030, Note_off_c, 0, 74, 0
2, 5040, Note_on_c, 0, 72, 80
2, 5078, Note_off_c, 0, 72, 0
2, 5088, Note_on_c, 0, 71, 80
2, 5126, Note_off_c, 0, 71, 0
2, 5136, Note_on_c, 0, 72, 80
2, 5145, Note_off_c, 0, 60, 0
2, 5145, Note_off_c, 0, 57, 0
2, 5145, Note_off_c, 0, 66, 0
2, 5174, Note_off_c, 0, 72, 0
2, 5184, Note_on_c, 0, 71, 80
2, 5222, Note_off_c, 0, 71, 0
2, 5232, Note_on_c, 0, 72, 80
2, 5270, Note_off_c, 0, 72, 0
2, 5280, Note_on_c, 0, 71, 80
2, 5318, Note_off_c, 0, 71, 0
2, 5328, Note_on_c, 0, 72, 80
2, 5366, Note_off_c, 0, 72, 0
2, 5376, Note_on_c, 0, 81, 80
2, 5376, Note_on_c, 0, 66, 80
2, 5376, Note_on_c, 0, 62, 80
2, 5414, Note_off_c, 0, 81, 0
2, 5424, Note_on_c, 0, 83, 80
2, 5462, Note_off_c, 0, 83, 0
2, 5472, Note_on_c, 0, 84, 80
2, 5510, Note_off_c, 0, 84, 0
2, 5520, Note_on_c, 0, 81, 80
2, 5558, Note_off_c, 0, 81, 0
2, 5568, Note_on_c, 0, 78, 80
2, 5606, Note_off_c, 0, 78, 0
2, 5616, Note_on_c, 0, 76, 80
2, 5654, Note_off_c, 0, 76, 0
2, 5664, Note_on_c, 0, 74, 80
2, 5683, Note_off_c, 0, 66, 0
2, 5683, Note_off_c, 0, 62, 0
2, 5702, Note_off_c, 0, 74, 0
2, 5712, Note_on_c, 0, 72, 80
2, 5750, Note_off_c, 0, 72, 0
2, 5760, Note_on_c, 0, 64, 80
2, 5760, Note_on_c, 0, 67, 80
2, 5760, Note_on_c, 0, 72, 80
2, 5798, Note_off_c, 0, 72, 0
2, 5808, Note_on_c, 0, 71, 80
2, 5846, Note_off_c, 0, 71, 0
2, 5856, Note_on_c, 0, 70, 80
2, 5894, Note_off_c, 0, 70, 0
2, 5904, Note_on_c, 0, 71, 80
2, 5913, Note_off_c, 0, 67, 0
2, 5913, Note_off_c, 0, 64, 0
2, 5942, Note_off_c, 0, 71, 0
2, 5952, Note_on_c, 0, 66, 80
2, 5952, Note_on_c, 0, 62, 80
2, 5952, Note_on_c, 0, 72, 80
2, 5990, Note_off_c, 0, 72, 0
2, 6000, Note_on_c, 0, 71, 80
2, 6038, Note_off_c, 0, 71, 0
2, 6048, Note_on_c, 0, 70, 80
2, 6086, Note_off_c, 0, 70, 0
2, 6096, Note_on_c, 0, 71, 80
2, 6105, Note_off_c, 0, 62, 0
2, 6105, Note_off_c, 0, 66, 0
2, 6134, Note_off_c, 0, 71, 0
2, 6144, Note_on_c, 0, 69, 80
2, 6144, Note_on_c, 0, 64, 80
2, 6144, Note_on_c, 0, 61, 80
2, 6182, Note_off_c, 0, 69, 0
2, 6192, Note_on_c, 0, 72, 80
2, 6230, Note_off_c, 0, 72, 0
2, 6240, Note_on_c, 0, 76, 80
2, 6278, Note_off_c, 0, 76, 0
2, 6288, Note_on_c, 0, 74, 80
2, 6326, Note_off_c, 0, 74, 0
2, 6336, Note_on_c, 0, 72, 80
2, 6374, Note_off_c, 0, 64, 0
2, 6374, Note_off_c, 0, 61, 0
2, 6374, Note_off_c, 0, 72, 0
2, 6384, Note_on_c, 0, 71, 80
2, 6422, Note_off_c, 0, 71, 0
2, 6432, Note_on_c, 0, 61, 80
2, 6432, Note_on_c, 0, 64, 80
2, 6432, Note_on_c, 0, 69, 80
2, 6470, Note_off_c, 0, 69, 0
2, 6480, Note_on_c, 0, 67, 80
2, 6508, Note_off_c, 0, 64, 0
2, 6508, Note_off_c, 0, 61, 0
2, 6518, Note_off_c, 0, 67, 0
2, 6528, Note_on_c, 0, 66, 80
2, 6528, Note_on_c, 0, 62, 80
2, 6566, Note_off_c, 0, 62, 0
2, 6576, Note_on_c, 0, 74, 80
2, 6604, Note_off_c, 0, 66, 0
2, 6614, Note_off_c, 0, 74, 0
2, 6624, Note_on_c, 0, 73, 80
2, 6662, Note_off_c, 0, 73, 0
2, 6672, Note_on_c, 0, 74, 80
2, 6710, Note_off_c, 0, 74, 0
2, 6720, Note_on_c, 0, 72, 80
2, 6720, Note_on_c, 0, 78, 80
2, 6758, Note_off_c, 0, 72, 0
2, 6768, Note_on_c, 0, 74, 80
2, 6796, Note_off_c, 0, 78, 0
2, 6806, Note_off_c, 0, 74, 0
2, 6816, Note_on_c, 0, 71, 80
2, 6816, Note_on_c, 0, 79, 80
2, 6854, Note_off_c, 0, 71, 0
2, 6864, Note_on_c, 0, 74, 80
2, 6892, Note_off_c, 0, 79, 0
2, 6902, Note_off_c, 0, 74, 0
2, 6912, Note_on_c, 0, 81, 80
2, 6912, Note_on_c, 0, 69, 80
2, 6950, Note_off_c, 0, 69, 0
2, 6960, Note_on_c, 0, 74, 80
2, 6988, Note_off_c, 0, 81, 0
2, 6998, Note_off_c, 0, 74, 0
2, 7008, Note_on_c, 0, 83, 80
2, 7008, Note_on_c, 0, 67, 80
2, 7046, Note_off_c, 0, 67, 0
2, 7056, Note_on_c, 0, 74, 80
2, 7084, Note_off_c, 0, 83, 0
2, 7094, Note_off_c, 0, 74, 0
2, 7104, Note_on_c, 0, 66, 80
2, 7104, Note_on_c, 0, 81, 80
2, 7104, Note_on_c, 0, 84, 80
2, 7142, Note_off_c, 0, 66, 0
2, 7152, Note_on_c, 0, 74, 80
2, 7180, Note_off_c, 0, 81, 0
2, 7180, Note_off_c, 0, 84, 0
2, 7190, Note_off_c, 0, 74, 0
2, 7200, Note_on_c, 0, 67, 80
2, 7200, Note_on_c, 0, 79, 80
2, 7200, Note_on_c, 0, 83, 80
2, 7238, Note_off_c, 0, 67, 0
2, 7248, Note_on_c, 0, 74, 80
2, 7276, Note_off_c, 0, 79, 0
2, 7276, Note_off_c, 0, 83, 0
2, 7286, Note_off_c, 0, 74, 0
2, 7296, Note_on_c, 0, 81, 80
2, 7296, Note_on_c, 0, 78, 80
2, 7296, Note_on_c, 0, 62, 80
2, 7334, Note_off_c, 0, 62, 0
2, 7344, Note_on_c, 0, 62, 80
2, 7372, Note_off_c, 0, 78, 0
2, 7372, Note_off_c, 0, 81, 0
2, 7382, Note_off_c, 0, 62, 0
2, 7392, Note_on_c, 0, 61, 80
2, 7430, Note_off_c, 0, 61, 0
2, 7440, Note_on_c, 0, 62, 80
2, 7478, Note_off_c, 0, 62, 0
2, 7488, Note_on_c, 0, 60, 80
2, 7488, Note_on_c, 0, 66, 80
2, 7526, Note_off_c, 0, 60, 0
2, 7536, Note_on_c, 0, 62, 80
2, 7564, Note_off_c, 0, 66, 0
2, 7574, Note_off_c, 0, 62, 0
2, 7584, Note_on_c, 0, 59, 80
2, 7584, Note_on_c, 0, 67, 80
2, 7603, Note_off_c, 0, 67, 0
2, 7608, Note_on_c, 0, 69, 80
2, 7622, Note_off_c, 0, 59, 0
2, 7627, Note_off_c, 0, 69, 0
2, 7632, Note_on_c, 0, 62, 80
2, 7632, Note_on_c, 0, 67, 80
2, 7651, Note_off_c, 0, 67, 0
2, 7656, Note_on_c, 0, 69, 80
2, 7670, Note_off_c, 0, 62, 0
2, 7675, Note_off_c, 0, 69, 0
2, 7680, Note_on_c, 0, 69, 80
2, 7680, Note_on_c, 0, 57, 80
2, 7718, Note_off_c, 0, 57, 0
2, 7728, Note_on_c, 0, 62, 80
2, 7756, Note_off_c, 0, 69, 0
2, 7766, Note_off_c, 0, 62, 0
2, 7776, Note_on_c, 0, 55, 80
2, 7776, Note_on_c, 0, 71, 80
2, 7795, Note_off_c, 0, 71, 0
2, 7800, Note_on_c, 0, 72, 80
2, 7814, Note_off_c, 0, 55, 0
2, 7819, Note_off_c, 0, 72, 0
2, 7824, Note_on_c, 0, 71, 80
2, 7824, Note_on_c, 0, 62, 80
2, 7843, Note_off_c, 0, 71, 0
2, 7848, Note_on_c, 0, 72, 80
2, 7862, Note_off_c, 0, 62, 0
2, 7867, Note_off_c, 0, 72, 0
2, 7872, Note_on_c, 0, 54, 80
2, 7872, Note_on_c, 0, 69, 80
2, 7872, Note_on_c, 0, 72, 80
2, 7910, Note_off_c, 0, 54, 0
2, 7920, Note_on_c, 0, 62, 80
2, 7948, Note_off_c, 0, 69, 0
2, 7948, Note_off_c, 0, 72, 0
2, 7958, Note_off_c, 0, 62, 0
2, 7968, Note_on_c, 0, 55, 80
2, 7968, Note_on_c, 0, 67, 80
2, 7968, Note_on_c, 0, 71, 80
2, 8006, Note_off_c, 0, 55, 0
2, 8016, Note_on_c, 0, 62, 80
2, 8044, Note_off_c, 0, 67, 0
2, 8044, Note_off_c, 0, 71, 0
2, 8054, Note_off_c, 0, 62, 0
2, 8064, Note_on_c, 0, 50, 80
2, 8064, Note_on_c, 0, 69, 80
2, 8064, Note_on_c, 0, 66, 80
2, 8217, Note_off_c, 0, 66, 0
2, 8217, Note_off_c, 0, 69, 0
2, 8217, Note_off_c, 0, 50, 0
2, 8352, Note_on_c, 0, 74, 80
2, 8428, Note_off_c, 0, 74, 0
2, 8448, Note_on_c, 0, 74, 80
2, 8524, Note_off_c, 0, 74, 0
2, 8544, Note_on_c, 0, 74, 80
2, 8620, Note_off_c, 0, 74, 0
2, 8640, Note_on_c, 0, 74, 80
2, 8716, Note_off_c, 0, 74, 0
2, 8736, Note_on_c, 0, 74, 80
2, 8812, Note_off_c, 0, 74, 0
2, 8832, Note_on_c, 0, 79, 80
2, 8928, Note_on_c, 0, 64, 80
2, 8928, Note_on_c, 0, 71, 80
2, 9004, Note_off_c, 0, 71, 0
2, 9004, Note_off_c, 0, 64, 0
2, 9024, Note_on_c, 0, 73, 80
2, 9062, Note_off_c, 0, 79, 0
2, 9100, Note_off_c, 0, 73, 0
2, 9120, Note_on_c, 0, 78, 80
2, 9120, Note_on_c, 0, 62, 80
2, 9120, Note_on_c, 0, 74, 80
2, 9196, Note_off_c, 0, 74, 0
2, 9196, Note_off_c, 0, 62, 0
2, 9196, Note_off_c, 0, 78, 0
2, 9216, Note_on_c, 0, 71, 80
2, 9292, Note_off_c, 0, 71, 0
2, 9312, Note_on_c, 0, 71, 80
2, 9388, Note_off_c, 0, 71, 0
2, 9408, Note_on_c, 0, 71, 80
2, 9484, Note_off_c, 0, 71, 0
2, 9504, Note_on_c, 0, 71, 80
2, 9580, Note_off_c, 0, 71, 0
2, 9600, Note_on_c, 0, 76, 80
2, 9696, Note_on_c, 0, 60, 80
2, 9696, Note_on_c, 0, 67, 80
2, 9772, Note_off_c, 0, 67, 0
2, 9772, Note_off_c, 0, 60, 0
2, 9792, Note_on_c, 0, 69, 80
2, 9830, Note_off_c, 0, 76, 0
2, 9868, Note_off_c, 0, 69, 0
2, 9888, Note_on_c, 0, 59, 80
2, 9888, Note_on_c, 0, 71, 80
2, 9888, Note_on_c, 0, 74, 80
2, 9964, Note_off_c, 0, 74, 0
2, 9964, Note_off_c, 0, 71, 0
2, 9964, Note_off_c, 0, 59, 0
2, 9984, Note_on_c, 0, 67, 80
2, 10060, Note_off_c, 0, 67, 0
2, 10080, Note_on_c, 0, 67, 80
2, 10156, Note_off_c, 0, 67, 0
2, 10176, Note_on_c, 0, 67, 80
2, 10252, Note_off_c, 0, 67, 0
2, 10272, Note_on_c, 0, 67, 80
2, 10348, Note_off_c, 0, 67, 0
2, 10368, Note_on_c, 0, 72, 80
2, 10464, Note_on_c, 0, 64, 80
2, 10464, Note_on_c, 0, 57, 80
2, 10521, Note_off_c, 0, 72, 0
2, 10540, Note_off_c, 0, 64, 0
2, 10540, Note_off_c, 0, 57, 0
2, 10560, Note_on_c, 0, 66, 80
2, 10636, Note_off_c, 0, 66, 0
2, 10656, Note_on_c, 0, 55, 80
2, 10656, Note_on_c, 0, 67, 80
2, 10656, Note_on_c, 0, 71, 80
2, 10732, Note_off_c, 0, 71, 0
2, 10732, Note_off_c, 0, 67, 0
2, 10732, Note_off_c, 0, 55, 0
2, 10752, Note_on_c, 0, 76, 80
2, 10848, Note_on_c, 0, 60, 80
2, 10905, Note_off_c, 0, 76, 0
2, 10924, Note_off_c, 0, 60, 0
2, 10944, Note_on_c, 0, 61, 80
2, 11040, Note_on_c, 0, 67, 80
2, 11097, Note_off_c, 0, 61, 0
2, 11116, Note_off_c, 0, 67, 0
2, 11136, Note_on_c, 0, 62, 80
2, 11136, Note_on_c, 0, 66, 80
2, 11212, Note_off_c, 0, 62, 0
2, 11232, Note_on_c, 0, 73, 80
2, 11308, Note_off_c, 0, 73, 0
2, 11316, Note_off_c, 0, 66, 0
2, 11328, Note_on_c, 0, 74, 80
2, 11424, Note_on_c, 0, 67, 80
2, 11424, Note_on_c, 0, 70, 80
2, 11500, Note_off_c, 0, 70, 0
2, 11500, Note_off_c, 0, 67, 0
2, 11508, Note_off_c, 0, 74, 0
2, 11520, Note_on_c, 0, 66, 80
2, 11520, Note_on_c, 0, 69, 80
2, 11616, Note_on_c, 0, 61, 80
2, 11692, Note_off_c, 0, 61, 0
2, 11700, Note_off_c, 0, 69, 0
2, 11700, Note_off_c, 0, 66, 0
2, 11712, Note_on_c, 0, 62, 80
2, 11808, Note_on_c, 0, 55, 80
2, 11808, Note_on_c, 0, 58, 80
2, 11865, Note_off_c, 0, 62, 0
2, 11884, Note_off_c, 0, 55, 0
2, 11884, Note_off_c, 0, 58, 0
2, 11904, Note_on_c, 0, 54, 80
2, 11904, Note_on_c, 0, 57, 80
2, 12000, Note_on_c, 0, 51, 80
2, 12000, Note_on_c, 0, 39, 80
2, 12057, Note_off_c, 0, 57, 0
2, 12057, Note_off_c, 0, 54, 0
2, 12076, Note_off_c, 0, 51, 0
2, 12076, Note_off_c, 0, 39, 0
2, 12096, Note_on_c, 0, 40, 80
2, 12096, Note_on_c, 0, 52, 80
2, 12172, Note_off_c, 0, 52, 0
2, 12172, Note_off_c, 0, 40, 0
2, 12192, Note_on_c, 0, 42, 80
2, 12192, Note_on_c, 0, 54, 80
2, 12268, Note_off_c, 0, 54, 0
2, 12268, Note_off_c, 0, 42, 0
2, 12288, Note_on_c, 0, 43, 80
2, 12288, Note_on_c, 0, 55, 80
2, 12364, Note_off_c, 0, 55, 0
2, 12364, Note_off_c, 0, 43, 0
2, 12384, Note_on_c, 0, 35, 80
2, 12384, Note_on_c, 0, 47, 80
2, 12460, Note_off_c, 0, 47, 0
2, 12460, Note_off_c, 0, 35, 0
2, 12480, Note_on_c, 0, 36, 80
2, 12480, Note_on_c, 0, 48, 80
2, 12556, Note_off_c, 0, 48, 0
2, 12556, Note_off_c, 0, 36, 0
2, 12576, Note_on_c, 0, 38, 80
2, 12576, Note_on_c, 0, 50, 80
2, 12652, Note_off_c, 0, 50, 0
2, 12652, Note_off_c, 0, 38, 0
2, 12672, Note_on_c, 0, 52, 80
2, 12672, Note_on_c, 0, 40, 80
2, 12748, Note_off_c, 0, 40, 0
2, 12748, Note_off_c, 0, 52, 0
2, 12768, Note_on_c, 0, 79, 80
2, 12768, Note_on_c, 0, 76, 80
2, 12806, Note_off_c, 0, 79, 0
2, 12816, Note_on_c, 0, 84, 80
2, 12844, Note_off_c, 0, 76, 0
2, 12854, Note_off_c, 0, 84, 0
2, 12864, Note_on_c, 0, 74, 80
2, 12864, Note_on_c, 0, 83, 80
2, 12902, Note_off_c, 0, 83, 0
2, 12912, Note_on_c, 0, 78, 80
2, 12940, Note_off_c, 0, 74, 0
2, 12950, Note_off_c, 0, 78, 0
2, 12960, Note_on_c, 0, 72, 80
2, 12960, Note_on_c, 0, 76, 80
2, 12998, Note_off_c, 0, 76, 0
2, 13008, Note_on_c, 0, 81, 80
2, 13036, Note_off_c, 0, 72, 0
2, 13046, Note_off_c, 0, 81, 0
2, 13056, Note_on_c, 0, 71, 80
2, 13056, Note_on_c, 0, 79, 80
2, 13094, Note_off_c, 0, 79, 0
2, 13104, Note_on_c, 0, 74, 80
2, 13132, Note_off_c, 0, 71, 0
2, 13142, Note_off_c, 0, 74, 0
2, 13152, Note_on_c, 0, 72, 80
2, 13152, Note_on_c, 0, 69, 80
2, 13190, Note_off_c, 0, 72, 0
2, 13200, Note_on_c, 0, 78, 80
2, 13228, Note_off_c, 0, 69, 0
2, 13238, Note_off_c, 0, 78, 0
2, 13248, Note_on_c, 0, 67, 80
2, 13248, Note_on_c, 0, 76, 80
2, 13286, Note_off_c, 0, 76, 0
2, 13296, Note_on_c, 0, 71, 80
2, 13324, Note_off_c, 0, 67, 0
2, 13334, Note_off_c, 0, 71, 0
2, 13344, Note_on_c, 0, 66, 80
2, 13344, Note_on_c, 0, 69, 80
2, 13382, Note_off_c, 0, 69, 0
2, 13392, Note_on_c, 0, 74, 80
2, 13420, Note_off_c, 0, 66, 0
2, 13430, Note_off_c, 0, 74, 0
2, 13440, Note_on_c, 0, 64, 80
2, 13440, Note_on_c, 0, 72, 80
2, 13478, Note_off_c, 0, 72, 0
2, 13488, Note_on_c, 0, 67, 80
2, 13516, Note_off_c, 0, 64, 0
2, 13526, Note_off_c, 0, 67, 0
2, 13536, Note_on_c, 0, 66, 80
2, 13536, Note_on_c, 0, 62, 80
2, 13574, Note_off_c, 0, 66, 0
2, 13584, Note_on_c, 0, 71, 80
2, 13612, Note_off_c, 0, 62, 0
2, 13622, Note_off_c, 0, 71, 0
2, 13632, Note_on_c, 0, 60, 80
2, 13632, Note_on_c, 0, 69, 80
2, 13670, Note_off_c, 0, 69, 0
2, 13680, Note_on_c, 0, 64, 80
2, 13708, Note_off_c, 0, 60, 0
2, 13718, Note_off_c, 0, 64, 0
2, 13728, Note_on_c, 0, 59, 80
2, 13728, Note_on_c, 0, 62, 80
2, 13766, Note_off_c, 0, 62, 0
2, 13776, Note_on_c, 0, 67, 80
2, 13804, Note_off_c, 0, 59, 0
2, 13814, Note_off_c, 0, 67, 0
2, 13824, Note_on_c, 0, 48, 80
2, 13920, Note_on_c, 0, 76, 80
2, 13920, Note_on_c, 0, 72, 80
2, 13977, Note_off_c, 0, 48, 0
2, 13996, Note_off_c, 0, 76, 0
2, 13996, Note_off_c, 0, 72, 0
2, 14016, Note_on_c, 0, 50, 80
2, 14016, Note_on_c, 0, 71, 80
2, 14016, Note_on_c, 0, 74, 80
2, 14092, Note_off_c, 0, 74, 0
2, 14092, Note_off_c, 0, 71, 0
2, 14112, Note_on_c, 0, 66, 80
2, 14112, Note_on_c, 0, 69, 80
2, 14169, Note_off_c, 0, 50, 0
2, 14188, Note_off_c, 0, 66, 0
2, 14188, Note_off_c, 0, 69, 0
2, 14208, Note_on_c, 0, 43, 80
2, 14208, Note_on_c, 0, 67, 80
2, 14246, Note_off_c, 0, 43, 0
2, 14256, Note_on_c, 0, 55, 80
2, 14294, Note_off_c, 0, 55, 0
2, 14304, Note_on_c, 0, 54, 80
2, 14342, Note_off_c, 0, 54, 0
2, 14352, Note_on_c, 0, 55, 80
2, 14361, Note_off_c, 0, 67, 0
2, 14388, Note_on_c, 0, 60, 80
2, 14390, Note_off_c, 0, 55, 0
2, 14400, Note_on_c, 0, 52, 80
2, 14400, Note_on_c, 0, 72, 80
2, 14433, Note_off_c, 0, 60, 0
2, 14438, Note_off_c, 0, 52, 0
2, 14448, Note_on_c, 0, 55, 80
2, 14486, Note_off_c, 0, 55, 0
2, 14490, Note_off_c, 0, 72, 0
2, 14496, Note_on_c, 0, 54, 80
2, 14534, Note_off_c, 0, 54, 0
2, 14544, Note_on_c, 0, 55, 80
2, 14582, Note_off_c, 0, 55, 0
2, 14592, Note_on_c, 0, 50, 80
2, 14592, Note_on_c, 0, 59, 80
2, 14592, Note_on_c, 0, 71, 80
2, 14630, Note_off_c, 0, 50, 0
2, 14637, Note_off_c, 0, 59, 0
2, 14640, Note_on_c, 0, 55, 80
2, 14668, Note_off_c, 0, 71, 0
2, 14678, Note_off_c, 0, 55, 0
2, 14688, Note_on_c, 0, 54, 80
2, 14726, Note_off_c, 0, 54, 0
2, 14736, Note_on_c, 0, 55, 80
2, 14772, Note_on_c, 0, 57, 80
2, 14774, Note_off_c, 0, 55, 0
2, 14784, Note_off_c, 0, 57, 0
2, 14784, Note_on_c, 0, 48, 80
2, 14784, Note_on_c, 0, 69, 80
2, 14822, Note_off_c, 0, 48, 0
2, 14832, Note_on_c, 0, 55, 80
2, 14860, Note_off_c, 0, 69, 0
2, 14870, Note_off_c, 0, 55, 0
2, 14880, Note_on_c, 0, 54, 80
2, 14918, Note_off_c, 0, 54, 0
2, 14928, Note_on_c, 0, 55, 80
2, 14966, Note_off_c, 0, 55, 0
2, 14976, Note_on_c, 0, 47, 80
2, 14976, Note_on_c, 0, 55, 80
2, 14976, Note_on_c, 0, 67, 80
2, 14988, Note_off_c, 0, 55, 0
2, 15014, Note_off_c, 0, 47, 0
2, 15024, Note_on_c, 0, 55, 80
2, 15052, Note_off_c, 0, 67, 0
2, 15062, Note_off_c, 0, 55, 0
2, 15072, Note_on_c, 0, 54, 80
2, 15108, Note_on_c, 0, 60, 80
2, 15110, Note_off_c, 0, 54, 0
2, 15120, Note_on_c, 0, 55, 80
2, 15144, Note_on_c, 0, 72, 80
2, 15153, Note_off_c, 0, 60, 0
2, 15158, Note_off_c, 0, 55, 0
2, 15168, Note_on_c, 0, 48, 80
2, 15206, Note_off_c, 0, 48, 0
2, 15216, Note_on_c, 0, 55, 80
2, 15220, Note_off_c, 0, 72, 0
2, 15240, Note_on_c, 0, 72, 80
2, 15254, Note_off_c, 0, 55, 0
2, 15264, Note_on_c, 0, 54, 80
2, 15302, Note_off_c, 0, 54, 0
2, 15312, Note_on_c, 0, 55, 80
2, 15316, Note_off_c, 0, 72, 0
2, 15350, Note_off_c, 0, 55, 0
2, 15360, Note_on_c, 0, 50, 80
2, 15360, Note_on_c, 0, 59, 80
2, 15360, Note_on_c, 0, 71, 80
2, 15372, Note_off_c, 0, 59, 0
2, 15398, Note_off_c, 0, 50, 0
2, 15408, Note_on_c, 0, 55, 80
2, 15436, Note_off_c, 0, 71, 0
2, 15446, Note_off_c, 0, 55, 0
2, 15456, Note_on_c, 0, 71, 80
2, 15456, Note_on_c, 0, 54, 80
2, 15494, Note_off_c, 0, 54, 0
2, 15504, Note_on_c, 0, 55, 80
2, 15532, Note_off_c, 0, 71, 0
2, 15540, Note_on_c, 0, 57, 80
2, 15542, Note_off_c, 0, 55, 0
2, 15552, Note_off_c, 0, 57, 0
2, 15552, Note_on_c, 0, 48, 80
2, 15552, Note_on_c, 0, 69, 80
2, 15590, Note_off_c, 0, 48, 0
2, 15600, Note_on_c, 0, 55, 80
2, 15628, Note_off_c, 0, 69, 0
2, 15638, Note_off_c, 0, 55, 0
2, 15648, Note_on_c, 0, 54, 80
2, 15648, Note_on_c, 0, 69, 80
2, 15686, Note_off_c, 0, 54, 0
2, 15696, Note_on_c, 0, 55, 80
2, 15724, Note_off_c, 0, 69, 0
2, 15734, Note_off_c, 0, 55, 0
2, 15744, Note_on_c, 0, 62, 80
2, 15744, Note_on_c, 0, 47, 80
2, 15744, Note_on_c, 0, 74, 80
2, 15756, Note_off_c, 0, 62, 0
2, 15782, Note_off_c, 0, 47, 0
2, 15792, Note_on_c, 0, 55, 80
2, 15820, Note_off_c, 0, 74, 0
2, 15830, Note_off_c, 0, 55, 0
2, 15840, Note_on_c, 0, 54, 80
2, 15876, Note_on_c, 0, 71, 80
2, 15878, Note_off_c, 0, 54, 0
2, 15888, Note_off_c, 0, 71, 0
2, 15888, Note_on_c, 0, 72, 80
2, 15888, Note_on_c, 0, 55, 80
2, 15926, Note_off_c, 0, 55, 0
2, 15936, Note_on_c, 0, 64, 80
2, 15964, Note_off_c, 0, 72, 0
2, 15974, Note_off_c, 0, 64, 0
2, 15984, Note_on_c, 0, 67, 80
2, 15984, Note_on_c, 0, 72, 80
2, 16022, Note_off_c, 0, 67, 0
2, 16032, Note_on_c, 0, 66, 80
2, 16060, Note_off_c, 0, 72, 0
2, 16070, Note_off_c, 0, 66, 0
2, 16080, Note_on_c, 0, 67, 80
2, 16118, Note_off_c, 0, 67, 0
2, 16128, Note_on_c, 0, 62, 80
2, 16128, Note_on_c, 0, 70, 80
2, 16128, Note_on_c, 0, 71, 80
2, 16140, Note_off_c, 0, 70, 0
2, 16166, Note_off_c, 0, 62, 0
2, 16176, Note_on_c, 0, 67, 80
2, 16204, Note_off_c, 0, 71, 0
2, 16214, Note_off_c, 0, 67, 0
2, 16224, Note_on_c, 0, 71, 80
2, 16224, Note_on_c, 0, 66, 80
2, 16262, Note_off_c, 0, 66, 0
2, 16272, Note_on_c, 0, 67, 80
2, 16300, Note_off_c, 0, 71, 0
2, 16308, Note_on_c, 0, 68, 80
2, 16310, Note_off_c, 0, 67, 0
2, 16320, Note_off_c, 0, 68, 0
2, 16320, Note_on_c, 0, 60, 80
2, 16320, Note_on_c, 0, 69, 80
2, 16358, Note_off_c, 0, 60, 0
2, 16368, Note_on_c, 0, 67, 80
2, 16396, Note_off_c, 0, 69, 0
2, 16406, Note_off_c, 0, 67, 0
2, 16416, Note_on_c, 0, 66, 80
2, 16416, Note_on_c, 0, 69, 80
2, 16454, Note_off_c, 0, 66, 0
2, 16464, Note_on_c, 0, 67, 80
2, 16492, Note_off_c, 0, 69, 0
2, 16502, Note_off_c, 0, 67, 0
2, 16512, Note_on_c, 0, 73, 80
2, 16512, Note_on_c, 0, 59, 80
2, 16512, Note_on_c, 0, 74, 80
2, 16524, Note_off_c, 0, 73, 0
2, 16550, Note_off_c, 0, 59, 0
2, 16560, Note_on_c, 0, 67, 80
2, 16588, Note_off_c, 0, 74, 0
2, 16598, Note_off_c, 0, 67, 0
2, 16608, Note_on_c, 0, 66, 80
2, 16646, Note_off_c, 0, 66, 0
2, 16656, Note_on_c, 0, 72, 80
2, 16656, Note_on_c, 0, 67, 80
2, 16694, Note_off_c, 0, 67, 0
2, 16694, Note_off_c, 0, 72, 0
2, 16704, Note_on_c, 0, 74, 80
2, 16704, Note_on_c, 0, 69, 80
2, 16704, Note_on_c, 0, 64, 80
2, 16704, Note_on_c, 0, 60, 80
2, 16742, Note_off_c, 0, 74, 0
2, 16752, Note_on_c, 0, 76, 80
2, 16790, Note_off_c, 0, 76, 0
2, 16800, Note_on_c, 0, 74, 80
2, 16838, Note_off_c, 0, 74, 0
2, 16857, Note_off_c, 0, 69, 0
2, 16857, Note_off_c, 0, 64, 0
2, 16857, Note_off_c, 0, 60, 0
2, 16896, Note_on_c, 0, 62, 80
2, 16896, Note_on_c, 0, 67, 80
2, 16896, Note_on_c, 0, 71, 80
2, 16934, Note_off_c, 0, 71, 0
2, 16944, Note_on_c, 0, 72, 80
2, 16982, Note_off_c, 0, 72, 0
2, 16992, Note_on_c, 0, 74, 80
2, 17030, Note_off_c, 0, 74, 0
2, 17040, Note_on_c, 0, 71, 80
2, 17049, Note_off_c, 0, 67, 0
2, 17049, Note_off_c, 0, 62, 0
2, 17078, Note_off_c, 0, 71, 0
2, 17088, Note_on_c, 0, 62, 80
2, 17088, Note_on_c, 0, 66, 80
2, 17088, Note_on_c, 0, 69, 80
2, 17126, Note_off_c, 0, 69, 0
2, 17136, Note_on_c, 0, 71, 80
2, 17174, Note_off_c, 0, 71, 0
2, 17184, Note_on_c, 0, 72, 80
2, 17222, Note_off_c, 0, 72, 0
2, 17232, Note_on_c, 0, 69, 80
2, 17241, Note_off_c, 0, 66, 0
2, 17241, Note_off_c, 0, 62, 0
2, 17270, Note_off_c, 0, 69, 0
2, 17280, Note_on_c, 0, 67, 80
2, 17280, Note_on_c, 0, 55, 80
2, 17280, Note_on_c, 0, 67, 80
2, 17318, Note_off_c, 0, 67, 0
2, 17328, Note_on_c, 0, 79, 80
2, 17366, Note_off_c, 0, 79, 0
2, 17376, Note_on_c, 0, 83, 80
2, 17414, Note_off_c, 0, 83, 0
2, 17424, Note_on_c, 0, 81, 80
2, 17433, Note_off_c, 0, 55, 0
2, 17433, Note_off_c, 0, 67, 0
2, 17462, Note_off_c, 0, 81, 0
2, 17472, Note_on_c, 0, 79, 80
2, 17510, Note_off_c, 0, 79, 0
2, 17520, Note_on_c, 0, 78, 80
2, 17558, Note_off_c, 0, 78, 0
2, 17568, Note_on_c, 0, 76, 80
2, 17606, Note_off_c, 0, 76, 0
2, 17616, Note_on_c, 0, 74, 80
2, 17654, Note_off_c, 0, 74, 0
2, 17664, Note_on_c, 0, 67, 80
2, 17664, Note_on_c, 0, 73, 80
2, 17664, Note_on_c, 0, 64, 80
2, 17817, Note_off_c, 0, 64, 0
2, 17817, Note_off_c, 0, 73, 0
2, 17817, Note_off_c, 0, 67, 0
2, 17856, Note_on_c, 0, 69, 80
2, 17856, Note_on_c, 0, 66, 80
2, 17856, Note_on_c, 0, 72, 80
2, 17932, Note_off_c, 0, 72, 0
2, 17932, Note_off_c, 0, 66, 0
2, 17932, Note_off_c, 0, 69, 0
2, 17952, Note_on_c, 0, 67, 80
2, 17952, Note_on_c, 0, 71, 80
2, 18028, Note_off_c, 0, 71, 0
2, 18028, Note_off_c, 0, 67, 0
2, 18048, Note_on_c, 0, 64, 80
2, 18048, Note_on_c, 0, 69, 80
2, 18048, Note_on_c, 0, 60, 80
2, 18124, Note_off_c, 0, 60, 0
2, 18124, Note_off_c, 0, 69, 0
2, 18124, Note_off_c, 0, 64, 0
2, 18240, Note_on_c, 0, 60, 80
2, 18240, Note_on_c, 0, 76, 80
2, 18278, Note_off_c, 0, 76, 0
2, 18278, Note_off_c, 0, 60, 0
2, 18288, Note_on_c, 0, 69, 80
2, 18288, Note_on_c, 0, 84, 80
2, 18326, Note_off_c, 0, 84, 0
2, 18326, Note_off_c, 0, 69, 0
2, 18336, Note_on_c, 0, 68, 80
2, 18336, Note_on_c, 0, 83, 80
2, 18374, Note_off_c, 0, 83, 0
2, 18374, Note_off_c, 0, 68, 0
2, 18384, Note_on_c, 0, 69, 80
2, 18384, Note_on_c, 0, 84, 80
2, 18422, Note_off_c, 0, 84, 0
2, 18422, Note_off_c, 0, 69, 0
2, 18432, Note_on_c, 0, 74, 80
2, 18432, Note_on_c, 0, 62, 80
2, 18470, Note_off_c, 0, 62, 0
2, 18470, Note_off_c, 0, 74, 0
2, 18480, Note_on_c, 0, 67, 80
2, 18480, Note_on_c, 0, 83, 80
2, 18518, Note_off_c, 0, 83, 0
2, 18518, Note_off_c, 0, 67, 0
2, 18528, Note_on_c, 0, 81, 80
2, 18528, Note_on_c, 0, 66, 80
2, 18566, Note_off_c, 0, 66, 0
2, 18566, Note_off_c, 0, 81, 0
2, 18576, Note_on_c, 0, 67, 80
2, 18576, Note_on_c, 0, 83, 80
2, 18614, Note_off_c, 0, 83, 0
2, 18614, Note_off_c, 0, 67, 0
2, 18624, Note_on_c, 0, 62, 80
2, 18624, Note_on_c, 0, 74, 80
2, 18662, Note_off_c, 0, 74, 0
2, 18662, Note_off_c, 0, 62, 0
2, 18672, Note_on_c, 0, 66, 80
2, 18672, Note_on_c, 0, 81, 80
2, 18710, Note_off_c, 0, 81, 0
2, 18710, Note_off_c, 0, 66, 0
2, 18720, Note_on_c, 0, 64, 80
2, 18720, Note_on_c, 0, 79, 80
2, 18758, Note_off_c, 0, 79, 0
2, 18758, Note_off_c, 0, 64, 0
2, 18768, Note_on_c, 0, 66, 80
2, 18768, Note_on_c, 0, 81, 80
2, 18806, Note_off_c, 0, 81, 0
2, 18806, Note_off_c, 0, 66, 0
2, 18816, Note_on_c, 0, 67, 80
2, 18816, Note_on_c, 0, 79, 80
2, 18854, Note_off_c, 0, 79, 0
2, 18864, Note_on_c, 0, 67, 80
2, 18902, Note_off_c, 0, 67, 0
2, 18912, Note_on_c, 0, 71, 80
2, 18950, Note_off_c, 0, 71, 0
2, 18960, Note_on_c, 0, 69, 80
2, 18969, Note_off_c, 0, 67, 0
2, 18998, Note_off_c, 0, 69, 0
2, 19008, Note_on_c, 0, 67, 80
2, 19046, Note_off_c, 0, 67, 0
2, 19056, Note_on_c, 0, 66, 80
2, 19094, Note_off_c, 0, 66, 0
2, 19104, Note_on_c, 0, 64, 80
2, 19142, Note_off_c, 0, 64, 0
2, 19152, Note_on_c, 0, 62, 80
2, 19190, Note_off_c, 0, 62, 0
2, 19200, Note_on_c, 0, 52, 80
2, 19200, Note_on_c, 0, 55, 80
2, 19200, Note_on_c, 0, 61, 80
2, 19353, Note_off_c, 0, 61, 0
2, 19353, Note_off_c, 0, 55, 0
2, 19353, Note_off_c, 0, 52, 0
2, 19392, Note_on_c, 0, 54, 80
2, 19392, Note_on_c, 0, 57, 80
2, 19392, Note_on_c, 0, 60, 80
2, 19468, Note_off_c, 0, 60, 0
2, 19468, Note_off_c, 0, 57, 0
2, 19468, Note_off_c, 0, 54, 0
2, 19488, Note_on_c, 0, 55, 80
2, 19488, Note_on_c, 0, 59, 80
2, 19564, Note_off_c, 0, 59, 0
2, 19564, Note_off_c, 0, 55, 0
2, 19584, Note_on_c, 0, 48, 80
2, 19584, Note_on_c, 0, 57, 80
2, 19584, Note_on_c, 0, 52, 80
2, 19660, Note_off_c, 0, 52, 0
2, 19660, Note_off_c, 0, 57, 0
2, 19660, Note_off_c, 0, 48, 0
2, 19776, Note_on_c, 0, 48, 80
2, 19776, Note_on_c, 0, 64, 80
2, 19814, Note_off_c, 0, 64, 0
2, 19814, Note_off_c, 0, 48, 0
2, 19824, Note_on_c, 0, 57, 80
2, 19824, Note_on_c, 0, 72, 80
2, 19862, Note_off_c, 0, 72, 0
2, 19862, Note_off_c, 0, 57, 0
2, 19872, Note_on_c, 0, 56, 80
2, 19872, Note_on_c, 0, 71, 80
2, 19910, Note_off_c, 0, 71, 0
2, 19910, Note_off_c, 0, 56, 0
2, 19920, Note_on_c, 0, 57, 80
2, 19920, Note_on_c, 0, 72, 80
2, 19958, Note_off_c, 0, 72, 0
2, 19958, Note_off_c, 0, 57, 0
2, 19968, Note_on_c, 0, 62, 80
2, 19968, Note_on_c, 0, 50, 80
2, 20006, Note_off_c, 0, 50, 0
2, 20006, Note_off_c, 0, 62, 0
2, 20016, Note_on_c, 0, 71, 80
2, 20016, Note_on_c, 0, 55, 80
2, 20054, Note_off_c, 0, 55, 0
2, 20054, Note_off_c, 0, 71, 0
2, 20064, Note_on_c, 0, 54, 80
2, 20064, Note_on_c, 0, 69, 80
2, 20102, Note_off_c, 0, 69, 0
2, 20102, Note_off_c, 0, 54, 0
2, 20112, Note_on_c, 0, 71, 80
2, 20112, Note_on_c, 0, 55, 80
2, 20150, Note_off_c, 0, 55, 0
2, 20150, Note_off_c, 0, 71, 0
2, 20160, Note_on_c, 0, 50, 80
2, 20160, Note_on_c, 0, 62, 80
2, 20198, Note_off_c, 0, 62, 0
2, 20198, Note_off_c, 0, 50, 0
2, 20208, Note_on_c, 0, 54, 80
2, 20208, Note_on_c, 0, 69, 80
2, 20246, Note_off_c, 0, 69, 0
2, 20246, Note_off_c, 0, 54, 0
2, 20256, Note_on_c, 0, 52, 80
2, 20256, Note_on_c, 0, 67, 80
2, 20294, Note_off_c, 0, 67, 0
2, 20294, Note_off_c, 0, 52, 0
2, 20304, Note_on_c, 0, 54, 80
2, 20304, Note_on_c, 0, 69, 80
2, 20342, Note_off_c, 0, 69, 0
2, 20342, Note_off_c, 0, 54, 0
2, 20352, Note_on_c, 0, 67, 80
2, 20352, Note_on_c, 0, 55, 80
2, 20390, Note_off_c, 0, 67, 0
2, 20400, Note_on_c, 0, 62, 80
2, 20438, Note_off_c, 0, 62, 0
2, 20448, Note_on_c, 0, 67, 80
2, 20486, Note_off_c, 0, 67, 0
2, 20496, Note_on_c, 0, 71, 80
2, 20505, Note_off_c, 0, 55, 0
2, 20534, Note_off_c, 0, 71, 0
2, 20544, Note_on_c, 0, 50, 80
2, 20544, Note_on_c, 0, 57, 80
2, 20544, Note_on_c, 0, 74, 80
2, 20582, Note_off_c, 0, 74, 0
2, 20592, Note_on_c, 0, 72, 80
2, 20630, Note_off_c, 0, 72, 0
2, 20640, Note_on_c, 0, 69, 80
2, 20678, Note_off_c, 0, 69, 0
2, 20688, Note_on_c, 0, 66, 80
2, 20697, Note_off_c, 0, 57, 0
2, 20697, Note_off_c, 0, 50, 0
2, 20726, Note_off_c, 0, 66, 0
2, 20736, Note_on_c, 0, 55, 80
2, 20736, Note_on_c, 0, 59, 80
2, 20736, Note_on_c, 0, 67, 80
2, 20774, Note_off_c, 0, 67, 0
2, 20784, Note_on_c, 0, 79, 80
2, 20822, Note_off_c, 0, 79, 0
2, 20832, Note_on_c, 0, 74, 80
2, 20870, Note_off_c, 0, 74, 0
2, 20880, Note_on_c, 0, 71, 80
2, 20889, Note_off_c, 0, 59, 0
2, 20889, Note_off_c, 0, 55, 0
2, 20918, Note_off_c, 0, 71, 0
2, 20928, Note_on_c, 0, 50, 80
2, 20928, Note_on_c, 0, 57, 80
2, 20928, Note_on_c, 0, 60, 80
2, 20928, Note_on_c, 0, 74, 80
2, 20966, Note_off_c, 0, 74, 0
2, 20976, Note_on_c, 0, 72, 80
2, 21014, Note_off_c, 0, 72, 0
2, 21024, Note_on_c, 0, 69, 80
2, 21062, Note_off_c, 0, 69, 0
2, 21072, Note_on_c, 0, 66, 80
2, 21081, Note_off_c, 0, 60, 0
2, 21081, Note_off_c, 0, 57, 0
2, 21081, Note_off_c, 0, 50, 0
2, 21110, Note_off_c, 0, 66, 0
2, 21120, Note_on_c, 0, 55, 80
2, 21120, Note_on_c, 0, 59, 80
2, 21120, Note_on_c, 0, 67, 80
2, 21273, Note_off_c, 0, 67, 0
2, 21273, Note_off_c, 0, 59, 0
2, 21273, Note_off_c, 0, 55, 0
2, 21408, Note_on_c, 0, 74, 80
2, 21484, Note_off_c, 0, 74, 0
2, 21504, Note_on_c, 0, 72, 80
2, 21600, Note_on_c, 0, 64, 80
2, 21600, Note_on_c, 0, 67, 80
2, 21676, Note_off_c, 0, 67, 0
2, 21676, Note_off_c, 0, 64, 0
2, 21696, Note_on_c, 0, 62, 80
2, 21696, Note_on_c, 0, 65, 80
2, 21772, Note_off_c, 0, 65, 0
2, 21772, Note_off_c, 0, 62, 0
2, 21792, Note_on_c, 0, 60, 80
2, 21792, Note_on_c, 0, 64, 80
2, 21811, Note_off_c, 0, 72, 0
2, 21868, Note_off_c, 0, 60, 0
2, 21868, Note_off_c, 0, 64, 0
2, 21888, Note_on_c, 0, 77, 80
2, 21984, Note_on_c, 0, 59, 80
2, 21984, Note_on_c, 0, 62, 80
2, 22060, Note_off_c, 0, 62, 0
2, 22060, Note_off_c, 0, 59, 0
2, 22080, Note_on_c, 0, 57, 80
2, 22080, Note_on_c, 0, 60, 80
2, 22156, Note_off_c, 0, 60, 0
2, 22156, Note_off_c, 0, 57, 0
2, 22176, Note_on_c, 0, 55, 80
2, 22176, Note_on_c, 0, 59, 80
2, 22195, Note_off_c, 0, 77, 0
2, 22252, Note_off_c, 0, 55, 0
2, 22252, Note_off_c, 0, 59, 0
2, 22272, Note_on_c, 0, 60, 80
2, 22272, Note_on_c, 0, 76, 80
2, 22310, Note_off_c, 0, 76, 0
2, 22320, Note_on_c, 0, 79, 80
2, 22348, Note_off_c, 0, 60, 0
2, 22358, Note_off_c, 0, 79, 0
2, 22368, Note_on_c, 0, 77, 80
2, 22368, Note_on_c, 0, 72, 80
2, 22406, Note_off_c, 0, 77, 0
2, 22416, Note_on_c, 0, 76, 80
2, 22444, Note_off_c, 0, 72, 0
2, 22454, Note_off_c, 0, 76, 0
2, 22464, Note_on_c, 0, 65, 80
2, 22464, Note_on_c, 0, 81, 80
2, 22502, Note_off_c, 0, 81, 0
2, 22512, Note_on_c, 0, 77, 80
2, 22540, Note_off_c, 0, 65, 0
2, 22550, Note_off_c, 0, 77, 0
2, 22560, Note_on_c, 0, 66, 80
2, 22560, Note_on_c, 0, 74, 80
2, 22598, Note_off_c, 0, 74, 0
2, 22608, Note_on_c, 0, 72, 80
2, 22636, Note_off_c, 0, 66, 0
2, 22646, Note_off_c, 0, 72, 0
2, 22656, Note_on_c, 0, 67, 80
2, 22656, Note_on_c, 0, 71, 80
2, 22694, Note_off_c, 0, 71, 0
2, 22704, Note_on_c, 0, 72, 80
2, 22742, Note_off_c, 0, 72, 0
2, 22752, Note_on_c, 0, 74, 80
2, 22790, Note_off_c, 0, 74, 0
2, 22800, Note_on_c, 0, 71, 80
2, 22809, Note_off_c, 0, 67, 0
2, 22838, Note_off_c, 0, 71, 0
2, 22848, Note_on_c, 0, 55, 80
2, 22848, Note_on_c, 0, 69, 80
2, 22886, Note_off_c, 0, 69, 0
2, 22896, Note_on_c, 0, 67, 80
2, 22934, Note_off_c, 0, 67, 0
2, 22944, Note_on_c, 0, 66, 80
2, 22982, Note_off_c, 0, 66, 0
2, 22992, Note_on_c, 0, 67, 80
2, 23001, Note_off_c, 0, 55, 0
2, 23030, Note_off_c, 0, 67, 0
2, 23040, Note_on_c, 0, 60, 80
2, 23136, Note_on_c, 0, 52, 80
2, 23136, Note_on_c, 0, 55, 80
2, 23212, Note_off_c, 0, 55, 0
2, 23212, Note_off_c, 0, 52, 0
2, 23232, Note_on_c, 0, 50, 80
2, 23232, Note_on_c, 0, 53, 80
2, 23308, Note_off_c, 0, 53, 0
2, 23308, Note_off_c, 0, 50, 0
2, 23328, Note_on_c, 0, 48, 80
2, 23328, Note_on_c, 0, 52, 80
2, 23347, Note_off_c, 0, 60, 0
2, 23404, Note_off_c, 0, 48, 0
2, 23404, Note_off_c, 0, 52, 0
2, 23424, Note_on_c, 0, 65, 80
2, 23520, Note_on_c, 0, 50, 80
2, 23520, Note_on_c, 0, 47, 80
2, 23596, Note_off_c, 0, 47, 0
2, 23596, Note_off_c, 0, 50, 0
2, 23616, Note_on_c, 0, 48, 80
2, 23616, Note_on_c, 0, 45, 80
2, 23692, Note_off_c, 0, 45, 0
2, 23692, Note_off_c, 0, 48, 0
2, 23712, Note_on_c, 0, 47, 80
2, 23712, Note_on_c, 0, 43, 80
2, 23731, Note_off_c, 0, 65, 0
2, 23788, Note_off_c, 0, 47, 0
2, 23788, Note_off_c, 0, 43, 0
2, 23808, Note_on_c, 0, 48, 80
2, 23808, Note_on_c, 0, 64, 80
2, 23846, Note_off_c, 0, 64, 0
2, 23856, Note_on_c, 0, 67, 80
2, 23884, Note_off_c, 0, 48, 0
2, 23894, Note_off_c, 0, 67, 0
2, 23904, Note_on_c, 0, 72, 80
2, 23904, Note_on_c, 0, 52, 80
2, 23942, Note_off_c, 0, 72, 0
2, 23952, Note_on_c, 0, 67, 80
2, 23980, Note_off_c, 0, 52, 0
2, 23990, Note_off_c, 0, 67, 0
2, 24000, Note_on_c, 0, 50, 80
2, 24000, Note_on_c, 0, 66, 80
2, 24038, Note_off_c, 0, 66, 0
2, 24048, Note_on_c, 0, 67, 80
2, 24076, Note_off_c, 0, 50, 0
2, 24086, Note_off_c, 0, 67, 0
2, 24096, Note_on_c, 0, 47, 80
2, 24096, Note_on_c, 0, 65, 80
2, 24134, Note_off_c, 0, 65, 0
2, 24144, Note_on_c, 0, 67, 80
2, 24172, Note_off_c, 0, 47, 0
2, 24182, Note_off_c, 0, 67, 0
2, 24192, Note_on_c, 0, 48, 80
2, 24192, Note_on_c, 0, 64, 80
2, 24230, Note_off_c, 0, 64, 0
2, 24240, Note_on_c, 0, 67, 80
2, 24268, Note_off_c, 0, 48, 0
2, 24278, Note_off_c, 0, 67, 0
2, 24288, Note_on_c, 0, 72, 80
2, 24288, Note_on_c, 0, 52, 80
2, 24326, Note_off_c, 0, 72, 0
2, 24336, Note_on_c, 0, 67, 80
2, 24364, Note_off_c, 0, 52, 0
2, 24374, Note_off_c, 0, 67, 0
2, 24384, Note_on_c, 0, 50, 80
2, 24384, Note_on_c, 0, 66, 80
2, 24422, Note_off_c, 0, 66, 0
2, 24432, Note_on_c, 0, 67, 80
2, 24460, Note_off_c, 0, 50, 0
2, 24470, Note_off_c, 0, 67, 0
2, 24480, Note_on_c, 0, 47, 80
2, 24480, Note_on_c, 0, 65, 80
2, 24518, Note_off_c, 0, 65, 0
2, 24528, Note_on_c, 0, 67, 80
2, 24556, Note_off_c, 0, 47, 0
2, 24566, Note_off_c, 0, 67, 0
2, 24576, Note_on_c, 0, 48, 80
2, 24576, Note_on_c, 0, 64, 80
2, 24614, Note_off_c, 0, 64, 0
2, 24624, Note_on_c, 0, 67, 80
2, 24652, Note_off_c, 0, 48, 0
2, 24662, Note_off_c, 0, 67, 0
2, 24672, Note_on_c, 0, 60, 80
2, 24672, Note_on_c, 0, 52, 80
2, 24710, Note_off_c, 0, 60, 0
2, 24720, Note_on_c, 0, 64, 80
2, 24748, Note_off_c, 0, 52, 0
2, 24758, Note_off_c, 0, 64, 0
2, 24768, Note_on_c, 0, 53, 80
2, 24768, Note_on_c, 0, 62, 80
2, 24806, Note_off_c, 0, 62, 0
2, 24816, Note_on_c, 0, 65, 80
2, 24844, Note_off_c, 0, 53, 0
2, 24854, Note_off_c, 0, 65, 0
2, 24864, Note_on_c, 0, 55, 80
2, 24864, Note_on_c, 0, 59, 80
2, 24902, Note_off_c, 0, 59, 0
2, 24912, Note_on_c, 0, 62, 80
2, 24940, Note_off_c, 0, 55, 0
2, 24950, Note_off_c, 0, 62, 0
2, 24960, Note_on_c, 0, 60, 80
2, 24960, Note_on_c, 0, 48, 80
2, 25036, Note_off_c, 0, 48, 0
2, 25056, Note_on_c, 0, 43, 80
2, 25113, Note_off_c, 0, 60, 0
2, 25132, Note_off_c, 0, 43, 0
2, 25152, Note_on_c, 0, 36, 80
2, 25248, Note_on_c, 0, 67, 80
2, 25267, Note_off_c, 0, 67, 0
2, 25272, Note_on_c, 0, 69, 80
2, 25291, Note_off_c, 0, 69, 0
2, 25296, Note_on_c, 0, 67, 80
2, 25305, Note_off_c, 0, 36, 0
2, 25315, Note_off_c, 0, 67, 0
2, 25320, Note_on_c, 0, 69, 80
2, 25339, Note_off_c, 0, 69, 0
2, 25344, Note_on_c, 0, 72, 80
2, 25344, Note_on_c, 0, 67, 80
2, 25344, Note_on_c, 0, 60, 80
2, 25344, Note_on_c, 0, 64, 80
2, 25382, Note_off_c, 0, 72, 0
2, 25392, Note_on_c, 0, 67, 80
2, 25430, Note_off_c, 0, 67, 0
2, 25440, Note_on_c, 0, 76, 80
2, 25478, Note_off_c, 0, 76, 0
2, 25488, Note_on_c, 0, 72, 80
2, 25497, Note_off_c, 0, 60, 0
2, 25497, Note_off_c, 0, 64, 0
2, 25497, Note_off_c, 0, 67, 0
2, 25526, Note_off_c, 0, 72, 0
2, 25536, Note_on_c, 0, 79, 80
2, 25574, Note_off_c, 0, 79, 0
2, 25584, Note_on_c, 0, 78, 80
2, 25622, Note_off_c, 0, 78, 0
2, 25632, Note_on_c, 0, 79, 80
2, 25670, Note_off_c, 0, 79, 0
2, 25680, Note_on_c, 0, 76, 80
2, 25718, Note_off_c, 0, 76, 0
2, 25728, Note_on_c, 0, 76, 80
2, 25728, Note_on_c, 0, 67, 80
2, 25728, Note_on_c, 0, 59, 80
2, 25728, Note_on_c, 0, 62, 80
2, 25766, Note_off_c, 0, 76, 0
2, 25776, Note_on_c, 0, 74, 80
2, 25814, Note_off_c, 0, 74, 0
2, 25824, Note_on_c, 0, 73, 80
2, 25862, Note_off_c, 0, 73, 0
2, 25872, Note_on_c, 0, 74, 80
2, 25881, Note_off_c, 0, 67, 0
2, 25881, Note_off_c, 0, 59, 0
2, 25881, Note_off_c, 0, 62, 0
2, 25910, Note_off_c, 0, 74, 0
2, 25920, Note_on_c, 0, 73, 80
2, 25958, Note_off_c, 0, 73, 0
2, 25968, Note_on_c, 0, 74, 80
2, 26006, Note_off_c, 0, 74, 0
2, 26016, Note_on_c, 0, 73, 80
2, 26054, Note_off_c, 0, 73, 0
2, 26064, Note_on_c, 0, 74, 80
2, 26102, Note_off_c, 0, 74, 0
2, 26112, Note_on_c, 0, 79, 80
2, 26112, Note_on_c, 0, 67, 80
2, 26112, Note_on_c, 0, 59, 80
2, 26112, Note_on_c, 0, 62, 80
2, 26150, Note_off_c, 0, 79, 0
2, 26160, Note_on_c, 0, 81, 80
2, 26198, Note_off_c, 0, 81, 0
2, 26208, Note_on_c, 0, 83, 80
2, 26246, Note_off_c, 0, 83, 0
2, 26256, Note_on_c, 0, 78, 80
2, 26265, Note_off_c, 0, 67, 0
2, 26265, Note_off_c, 0, 59, 0
2, 26265, Note_off_c, 0, 62, 0
2, 26294, Note_off_c, 0, 78, 0
2, 26304, Note_on_c, 0, 79, 80
2, 26342, Note_off_c, 0, 79, 0
2, 26352, Note_on_c, 0, 74, 80
2, 26390, Note_off_c, 0, 74, 0
2, 26400, Note_on_c, 0, 76, 80
2, 26438, Note_off_c, 0, 76, 0
2, 26448, Note_on_c, 0, 71, 80
2, 26486, Note_off_c, 0, 71, 0
2, 26496, Note_on_c, 0, 60, 80
2, 26496, Note_on_c, 0, 74, 80
2, 26496, Note_on_c, 0, 57, 80
2, 26496, Note_on_c, 0, 66, 80
2, 26534, Note_off_c, 0, 74, 0
2, 26544, Note_on_c, 0, 72, 80
2, 26582, Note_off_c, 0, 72, 0
2, 26592, Note_on_c, 0, 71, 80
2, 26630, Note_off_c, 0, 71, 0
2, 26640, Note_on_c, 0, 72, 80
2, 26649, Note_off_c, 0, 60, 0
2, 26649, Note_off_c, 0, 57, 0
2, 26649, Note_off_c, 0, 66, 0
2, 26678, Note_off_c, 0, 72, 0
2, 26688, Note_on_c, 0, 71, 80
2, 26726, Note_off_c, 0, 71, 0
2, 26736, Note_on_c, 0, 72, 80
2, 26774, Note_off_c, 0, 72, 0
2, 26784, Note_on_c, 0, 71, 80
2, 26822, Note_off_c, 0, 71, 0
2, 26832, Note_on_c, 0, 72, 80
2, 26870, Note_off_c, 0, 72, 0
2, 26880, Note_on_c, 0, 81, 80
2, 26880, Note_on_c, 0, 66, 80
2, 26880, Note_on_c, 0, 62, 80
2, 26918, Note_off_c, 0, 81, 0
2, 26928, Note_on_c, 0, 83, 80
2, 26966, Note_off_c, 0, 83, 0
2, 26976, Note_on_c, 0, 84, 80
2, 27014, Note_off_c, 0, 84, 0
2, 27024, Note_on_c, 0, 81, 80
2, 27062, Note_off_c, 0, 81, 0
2, 27072, Note_on_c, 0, 78, 80
2, 27110, Note_off_c, 0, 78, 0
2, 27120, Note_on_c, 0, 76, 80
2, 27158, Note_off_c, 0, 76, 0
2, 27168, Note_on_c, 0, 74, 80
2, 27187, Note_off_c, 0, 66, 0
2, 27187, Note_off_c, 0, 62, 0
2, 27206, Note_off_c, 0, 74, 0
2, 27216, Note_on_c, 0, 72, 80
2, 27254, Note_off_c, 0, 72, 0
2, 27264, Note_on_c, 0, 64, 80
2, 27264, Note_on_c, 0, 67, 80
2, 27264, Note_on_c, 0, 72, 80
2, 27302, Note_off_c, 0, 72, 0
2, 27312, Note_on_c, 0, 71, 80
2, 27350, Note_off_c, 0, 71, 0
2, 27360, Note_on_c, 0, 70, 80
2, 27398, Note_off_c, 0, 70, 0
2, 27408, Note_on_c, 0, 71, 80
2, 27417, Note_off_c, 0, 67, 0
2, 27417, Note_off_c, 0, 64, 0
2, 27446, Note_off_c, 0, 71, 0
2, 27456, Note_on_c, 0, 66, 80
2, 27456, Note_on_c, 0, 62, 80
2, 27456, Note_on_c, 0, 72, 80
2, 27494, Note_off_c, 0, 72, 0
2, 27504, Note_on_c, 0, 71, 80
2, 27542, Note_off_c, 0, 71, 0
2, 27552, Note_on_c, 0, 70, 80
2, 27590, Note_off_c, 0, 70, 0
2, 27600, Note_on_c, 0, 71, 80
2, 27609, Note_off_c, 0, 62, 0
2, 27609, Note_off_c, 0, 66, 0
2, 27638, Note_off_c, 0, 71, 0
2, 27648, Note_on_c, 0, 69, 80
2, 27648, Note_on_c, 0, 64, 80
2, 27648, Note_on_c, 0, 61, 80
2, 27686, Note_off_c, 0, 69, 0
2, 27696, Note_on_c, 0, 72, 80
2, 27734, Note_off_c, 0, 72, 0
2, 27744, Note_on_c, 0, 76, 80
2, 27782, Note_off_c, 0, 76, 0
2, 27792, Note_on_c, 0, 74, 80
2, 27830, Note_off_c, 0, 74, 0
2, 27840, Note_on_c, 0, 72, 80
2, 27878, Note_off_c, 0, 64, 0
2, 27878, Note_off_c, 0, 61, 0
2, 27878, Note_off_c, 0, 72, 0
2, 27888, Note_on_c, 0, 71, 80
2, 27926, Note_off_c, 0, 71, 0
2, 27936, Note_on_c, 0, 61, 80
2, 27936, Note_on_c, 0, 64, 80
2, 27936, Note_on_c, 0, 69, 80
2, 27974, Note_off_c, 0, 69, 0
2, 27984, Note_on_c, 0, 67, 80
2, 28012, Note_off_c, 0, 64, 0
2, 28012, Note_off_c, 0, 61, 0
2, 28022, Note_off_c, 0, 67, 0
2, 28032, Note_on_c, 0, 66, 80
2, 28032, Note_on_c, 0, 62, 80
2, 28070, Note_off_c, 0, 62, 0
2, 28080, Note_on_c, 0, 74, 80
2, 28108, Note_off_c, 0, 66, 0
2, 28118, Note_off_c, 0, 74, 0
2, 28128, Note_on_c, 0, 73, 80
2, 28166, Note_off_c, 0, 73, 0
2, 28176, Note_on_c, 0, 74, 80
2, 28214, Note_off_c, 0, 74, 0
2, 28224, Note_on_c, 0, 72, 80
2, 28224, Note_on_c, 0, 78, 80
2, 28262, Note_off_c, 0, 72, 0
2, 28272, Note_on_c, 0, 74, 80
2, 28300, Note_off_c, 0, 78, 0
2, 28310, Note_off_c, 0, 74, 0
2, 28320, Note_on_c, 0, 71, 80
2, 28320, Note_on_c, 0, 79, 80
2, 28358, Note_off_c, 0, 71, 0
2, 28368, Note_on_c, 0, 74, 80
2, 28396, Note_off_c, 0, 79, 0
2, 28406, Note_off_c, 0, 74, 0
2, 28416, Note_on_c, 0, 81, 80
2, 28416, Note_on_c, 0, 69, 80
2, 28454, Note_off_c, 0, 69, 0
2, 28464, Note_on_c, 0, 74, 80
2, 28492, Note_off_c, 0, 81, 0
2, 28502, Note_off_c, 0, 74, 0
2, 28512, Note_on_c, 0, 83, 80
2, 28512, Note_on_c, 0, 67, 80
2, 28550, Note_off_c, 0, 67, 0
2, 28560, Note_on_c, 0, 74, 80
2, 28588, Note_off_c, 0, 83, 0
2, 28598, Note_off_c, 0, 74, 0
2, 28608, Note_on_c, 0, 66, 80
2, 28608, Note_on_c, 0, 81, 80
2, 28608, Note_on_c, 0, 84, 80
2, 28646, Note_off_c, 0, 66, 0
2, 28656, Note_on_c, 0, 74, 80
2, 28684, Note_off_c, 0, 81, 0
2, 28684, Note_off_c, 0, 84, 0
2, 28694, Note_off_c, 0, 74, 0
2, 28704, Note_on_c, 0, 67, 80
2, 28704, Note_on_c, 0, 79, 80
2, 28704, Note_on_c, 0, 83, 80
2, 28742, Note_off_c, 0, 67, 0
2, 28752, Note_on_c, 0, 74, 80
2, 28780, Note_off_c, 0, 79, 0
2, 28780, Note_off_c, 0, 83, 0
2, 28790, Note_off_c, 0, 74, 0
2, 28800, Note_on_c, 0, 81, 80
2, 28800, Note_on_c, 0, 78, 80
2, 28800, Note_on_c, 0, 62, 80
2, 28838, Note_off_c, 0, 62, 0
2, 28848, Note_on_c, 0, 62, 80
2, 28876, Note_off_c, 0, 78, 0
2, 28876, Note_off_c, 0, 81, 0
2, 28886, Note_off_c, 0, 62, 0
2, 28896, Note_on_c, 0, 61, 80
2, 28934, Note_off_c, 0, 61, 0
2, 28944, Note_on_c, 0, 62, 80
2, 28982, Note_off_c, 0, 62, 0
2, 28992, Note_on_c, 0, 60, 80
2, 28992, Note_on_c, 0, 66, 80
2, 29030, Note_off_c, 0, 60, 0
2, 29040, Note_on_c, 0, 62, 80
2, 29068, Note_off_c, 0, 66, 0
2, 29078, Note_off_c, 0, 62, 0
2, 29088, Note_on_c, 0, 59, 80
2, 29088, Note_on_c, 0, 67, 80
2, 29107, Note_off_c, 0, 67, 0
2, 29112, Note_on_c, 0, 69, 80
2, 29126, Note_off_c, 0, 59, 0
2, 29131, Note_off_c, 0, 69, 0
2, 29136, Note_on_c, 0, 62, 80
2, 29136, Note_on_c, 0, 67, 80
2, 29155, Note_off_c, 0, 67, 0
2, 29160, Note_on_c, 0, 69, 80
2, 29174, Note_off_c, 0, 62, 0
2, 29179, Note_off_c, 0, 69, 0
2, 29184, Note_on_c, 0, 69, 80
2, 29184, Note_on_c, 0, 57, 80
2, 29222, Note_off_c, 0, 57, 0
2, 29232, Note_on_c, 0, 62, 80
2, 29260, Note_off_c, 0, 69, 0
2, 29270, Note_off_c, 0, 62, 0
2, 29280, Note_on_c, 0, 55, 80
2, 29280, Note_on_c, 0, 71, 80
2, 29299, Note_off_c, 0, 71, 0
2, 29304, Note_on_c, 0, 72, 80
2, 29318, Note_off_c, 0, 55, 0
2, 29323, Note_off_c, 0, 72, 0
2, 29328, Note_on_c, 0, 71, 80
2, 29328, Note_on_c, 0, 62, 80
2, 29347, Note_off_c, 0, 71, 0
2, 29352, Note_on_c, 0, 72, 80
2, 29366, Note_off_c, 0, 62, 0
2, 29371, Note_off_c, 0, 72, 0
2, 29376, Note_on_c, 0, 54, 80
2, 29376, Note_on_c, 0, 69, 80
2, 29376, Note_on_c, 0, 72, 80
2, 29414, Note_off_c, 0, 54, 0
2, 29424, Note_on_c, 0, 62, 80
2, 29452, Note_off_c, 0, 69, 0
2, 29452, Note_off_c, 0, 72, 0
2, 29462, Note_off_c, 0, 62, 0
2, 29472, Note_on_c, 0, 55, 80
2, 29472, Note_on_c, 0, 67, 80
2, 29472, Note_on_c, 0, 71, 80
2, 29510, Note_off_c, 0, 55, 0
2, 29520, Note_on_c, 0, 62, 80
2, 29548, Note_off_c, 0, 67, 0
2, 29548, Note_off_c, 0, 71, 0
2, 29558, Note_off_c, 0, 62, 0
2, 29568, Note_on_c, 0, 50, 80
2, 29568, Note_on_c, 0, 69, 80
2, 29568, Note_on_c, 0, 66, 80
2, 29721, Note_off_c, 0, 66, 0
2, 29721, Note_off_c, 0, 69, 0
2, 29721, Note_off_c, 0, 50, 0
2, 29856, Note_on_c, 0, 74, 80
2, 29932, Note_off_c, 0, 74, 0
2, 29952, Note_on_c, 0, 74, 80
2, 30028, Note_off_c, 0, 74, 0
2, 30048, Note_on_c, 0, 74, 80
2, 30124, Note_off_c, 0, 74, 0
2, 30144, Note_on_c, 0, 74, 80
2, 30220, Note_off_c, 0, 74, 0
2, 30240, Note_on_c, 0, 74, 80
2, 30316, Note_off_c, 0, 74, 0
2, 30336, Note_on_c, 0, 79, 80
2, 30432, Note_on_c, 0, 64, 80
2, 30432, Note_on_c, 0, 71, 80
2, 30508, Note_off_c, 0, 71, 0
2, 30508, Note_off_c, 0, 64, 0
2, 30528, Note_on_c, 0, 73, 80
2, 30566, Note_off_c, 0, 79, 0
2, 30604, Note_off_c, 0, 73, 0
2, 30624, Note_on_c, 0, 78, 80
2, 30624, Note_on_c, 0, 62, 80
2, 30624, Note_on_c, 0, 74, 80
2, 30700, Note_off_c, 0, 74, 0
2, 30700, Note_off_c, 0, 62, 0
2, 30700, Note_off_c, 0, 78, 0
2, 30720, Note_on_c, 0, 71, 80
2, 30796, Note_off_c, 0, 71, 0
2, 30816, Note_on_c, 0, 71, 80
2, 30892, Note_off_c, 0, 71, 0
2, 30912, Note_on_c, 0, 71, 80
2, 30988, Note_off_c, 0, 71, 0
2, 31008, Note_on_c, 0, 71, 80
2, 31084, Note_off_c, 0, 71, 0
2, 31104, Note_on_c, 0, 76, 80
2, 31200, Note_on_c, 0, 60, 80
2, 31200, Note_on_c, 0, 67, 80
2, 31276, Note_off_c, 0, 67, 0
2, 31276, Note_off_c, 0, 60, 0
2, 31296, Note_on_c, 0, 69, 80
2, 31334, Note_off_c, 0, 76, 0
2, 31372, Note_off_c, 0, 69, 0
2, 31392, Note_on_c, 0, 59, 80
2, 31392, Note_on_c, 0, 71, 80
2, 31392, Note_on_c, 0, 74, 80
2, 31468, Note_off_c, 0, 74, 0
2, 31468, Note_off_c, 0, 71, 0
2, 31468, Note_off_c, 0, 59, 0
2, 31488, Note_on_c, 0, 67, 80
2, 31564, Note_off_c, 0, 67, 0
2, 31584, Note_on_c, 0, 67, 80
2, 31660, Note_off_c, 0, 67, 0
2, 31680, Note_on_c, 0, 67, 80
2, 31756, Note_off_c, 0, 67, 0
2, 31776, Note_on_c, 0, 67, 80
2, 31852, Note_off_c, 0, 67, 0
2, 31872, Note_on_c, 0, 72, 80
2, 31968, Note_on_c, 0, 64, 80
2, 31968, Note_on_c, 0, 57, 80
2, 32025, Note_off_c, 0, 72, 0
2, 32044, Note_off_c, 0, 64, 0
2, 32044, Note_off_c, 0, 57, 0
2, 32064, Note_on_c, 0, 66, 80
2, 32140, Note_off_c, 0, 66, 0
2, 32160, Note_on_c, 0, 55, 80
2, 32160, Note_on_c, 0, 67, 80
2, 32160, Note_on_c, 0, 71, 80
2, 32236, Note_off_c, 0, 71, 0
2, 32236, Note_off_c, 0, 67, 0
2, 32236, Note_off_c, 0, 55, 0
2, 32256, Note_on_c, 0, 76, 80
2, 32352, Note_on_c, 0, 60, 80
2, 32409, Note_off_c, 0, 76, 0
2, 32428, Note_off_c, 0, 60, 0
2, 32448, Note_on_c, 0, 61, 80
2, 32544, Note_on_c, 0, 67, 80
2, 32601, Note_off_c, 0, 61, 0
2, 32620, Note_off_c, 0, 67, 0
2, 32640, Note_on_c, 0, 62, 80
2, 32640, Note_on_c, 0, 66, 80
2, 32716, Note_off_c, 0, 62, 0
2, 32736, Note_on_c, 0, 73, 80
2, 32812, Note_off_c, 0, 73, 0
2, 32820, Note_off_c, 0, 66, 0
2, 32832, Note_on_c, 0, 74, 80
2, 32928, Note_on_c, 0, 67, 80
2, 32928, Note_on_c, 0, 70, 80
2, 33004, Note_off_c, 0, 70, 0
2, 33004, Note_off_c, 0, 67, 0
2, 33012, Note_off_c, 0, 74, 0
2, 33024, Note_on_c, 0, 66, 80
2, 33024, Note_on_c, 0, 69, 80
2, 33120, Note_on_c, 0, 61, 80
2, 33196, Note_off_c, 0, 61, 0
2, 33204, Note_off_c, 0, 69, 0
2, 33204, Note_off_c, 0, 66, 0
2, 33216, Note_on_c, 0, 62, 80
2, 33312, Note_on_c, 0, 55, 80
2, 33312, Note_on_c, 0, 58, 80
2, 33369, Note_off_c, 0, 62, 0
2, 33388, Note_off_c, 0, 55, 0
2, 33388, Note_off_c, 0, 58, 0
2, 33408, Note_on_c, 0, 54, 80
2, 33408, Note_on_c, 0, 57, 80
2, 33504, Note_on_c, 0, 51, 80
2, 33504, Note_on_c, 0, 39, 80
2, 33561, Note_off_c, 0, 57, 0
2, 33561, Note_off_c, 0, 54, 0
2, 33580, Note_off_c, 0, 51, 0
2, 33580, Note_off_c, 0, 39, 0
2, 33600, Note_on_c, 0, 40, 80
2, 33600, Note_on_c, 0, 52, 80
2, 33676, Note_off_c, 0, 52, 0
2, 33676, Note_off_c, 0, 40, 0
2, 33696, Note_on_c, 0, 42, 80
2, 33696, Note_on_c, 0, 54, 80
2, 33772, Note_off_c, 0, 54, 0
2, 33772, Note_off_c, 0, 42, 0
2, 33792, Note_on_c, 0, 43, 80
2, 33792, Note_on_c, 0, 55, 80
2, 33868, Note_off_c, 0, 55, 0
2, 33868, Note_off_c, 0, 43, 0
2, 33888, Note_on_c, 0, 35, 80
2, 33888, Note_on_c, 0, 47, 80
2, 33964, Note_off_c, 0, 47, 0
2, 33964, Note_off_c, 0, 35, 0
2, 33984, Note_on_c, 0, 36, 80
2, 33984, Note_on_c, 0, 48, 80
2, 34060, Note_off_c, 0, 48, 0
2, 34060, Note_off_c, 0, 36, 0
2, 34080, Note_on_c, 0, 38, 80
2, 34080, Note_on_c, 0, 50, 80
2, 34156, Note_off_c, 0, 50, 0
2, 34156, Note_off_c, 0, 38, 0
2, 34176, Note_on_c, 0, 52, 80
2, 34176, Note_on_c, 0, 40, 80
2, 34252, Note_off_c, 0, 40, 0
2, 34252, Note_off_c, 0, 52, 0
2, 34272, Note_on_c, 0, 79, 80
2, 34272, Note_on_c, 0, 76, 80
2, 34310, Note_off_c, 0, 79, 0
2, 34320, Note_on_c, 0, 84, 80
2, 34348, Note_off_c, 0, 76, 0
2, 34358, Note_off_c, 0, 84, 0
2, 34368, Note_on_c, 0, 74, 80
2, 34368, Note_on_c, 0, 83, 80
2, 34406, Note_off_c, 0, 83, 0
2, 34416, Note_on_c, 0, 78, 80
2, 34444, Note_off_c, 0, 74, 0
2, 34454, Note_off_c, 0, 78, 0
2, 34464, Note_on_c, 0, 72, 80
2, 34464, Note_on_c, 0, 76, 80
2, 34502, Note_off_c, 0, 76, 0
2, 34512, Note_on_c, 0, 81, 80
2, 34540, Note_off_c, 0, 72, 0
2, 34550, Note_off_c, 0, 81, 0
2, 34560, Note_on_c, 0, 71, 80
2, 34560, Note_on_c, 0, 79, 80
2, 34598, Note_off_c, 0, 79, 0
2, 34608, Note_on_c, 0, 74, 80
2, 34636, Note_off_c, 0, 71, 0
2, 34646, Note_off_c, 0, 74, 0
2, 34656, Note_on_c, 0, 72, 80
2, 34656, Note_on_c, 0, 69, 80
2, 34694, Note_off_c, 0, 72, 0
2, 34704, Note_on_c, 0, 78, 80
2, 34732, Note_off_c, 0, 69, 0
2, 34742, Note_off_c, 0, 78, 0
2, 34752, Note_on_c, 0, 67, 80
2, 34752, Note_on_c, 0, 76, 80
2, 34790, Note_off_c, 0, 76, 0
2, 34800, Note_on_c, 0, 71, 80
2, 34828, Note_off_c, 0, 67, 0
2, 34838, Note_off_c, 0, 71, 0
2, 34848, Note_on_c, 0, 66, 80
2, 34848, Note_on_c, 0, 69, 80
2, 34886, Note_off_c, 0, 69, 0
2, 34896, Note_on_c, 0, 74, 80
2, 34924, Note_off_c, 0, 66, 0
2, 34934, Note_off_c, 0, 74, 0
2, 34944, Note_on_c, 0, 64, 80
2, 34944, Note_on_c, 0, 72, 80
2, 34982, Note_off_c, 0, 72, 0
2, 34992, Note_on_c, 0, 67, 80
2, 35020, Note_off_c, 0, 64, 0
2, 35030, Note_off_c, 0, 67, 0
2, 35040, Note_on_c, 0, 66, 80
2, 35040, Note_on_c, 0, 62, 80
2, 35078, Note_off_c, 0, 66, 0
2, 35088, Note_on_c, 0, 71, 80
2, 35116, Note_off_c, 0, 62, 0
2, 35126, Note_off_c, 0, 71, 0
2, 35136, Note_on_c, 0, 60, 80
2, 35136, Note_on_c, 0, 69, 80
2, 35174, Note_off_c, 0, 69, 0
2, 35184, Note_on_c, 0, 64, 80
2, 35212, Note_off_c, 0, 60, 0
2, 35222, Note_off_c, 0, 64, 0
2, 35232, Note_on_c, 0, 59, 80
2, 35232, Note_on_c, 0, 62, 80
2, 35270, Note_off_c, 0, 62, 0
2, 35280, Note_on_c, 0, 67, 80
2, 35308, Note_off_c, 0, 59, 0
2, 35318, Note_off_c, 0, 67, 0
2, 35328, Note_on_c, 0, 48, 80
2, 35424, Note_on_c, 0, 76, 80
2, 35424, Note_on_c, 0, 72, 80
2, 35481, Note_off_c, 0, 48, 0
2, 35500, Note_off_c, 0, 76, 0
2, 35500, Note_off_c, 0, 72, 0
2, 35520, Note_on_c, 0, 50, 80
2, 35520, Note_on_c, 0, 71, 80
2, 35520, Note_on_c, 0, 74, 80
2, 35596, Note_off_c, 0, 74, 0
2, 35596, Note_off_c, 0, 71, 0
2, 35616, Note_on_c, 0, 66, 80
2, 35616, Note_on_c, 0, 69, 80
2, 35673, Note_off_c, 0, 50, 0
2, 35692, Note_off_c, 0, 66, 0
2, 35692, Note_off_c, 0, 69, 0
2, 35712, Note_on_c, 0, 43, 80
2, 35712, Note_on_c, 0, 67, 80
2, 35750, Note_off_c, 0, 43, 0
2, 35760, Note_on_c, 0, 55, 80
2, 35798, Note_off_c, 0, 55, 0
2, 35808, Note_on_c, 0, 54, 80
2, 35846, Note_off_c, 0, 54, 0
2, 35856, Note_on_c, 0, 55, 80
2, 35865, Note_off_c, 0, 67, 0
2, 35892, Note_on_c, 0, 60, 80
2, 35894, Note_off_c, 0, 55, 0
2, 35904, Note_on_c, 0, 52, 80
2, 35904, Note_on_c, 0, 72, 80
2, 35937, Note_off_c, 0, 60, 0
2, 35942, Note_off_c, 0, 52, 0
2, 35952, Note_on_c, 0, 55, 80
2, 35990, Note_off_c, 0, 55, 0
2, 35994, Note_off_c, 0, 72, 0
2, 36000, Note_on_c, 0, 54, 80
2, 36038, Note_off_c, 0, 54, 0
2, 36048, Note_on_c, 0, 55, 80
2, 36086, Note_off_c, 0, 55, 0
2, 36096, Note_on_c, 0, 50, 80
2, 36096, Note_on_c, 0, 59, 80
2, 36096, Note_on_c, 0, 71, 80
2, 36134, Note_off_c, 0, 50, 0
2, 36141, Note_off_c, 0, 59, 0
2, 36144, Note_on_c, 0, 55, 80
2, 36172, Note_off_c, 0, 71, 0
2, 36182, Note_off_c, 0, 55, 0
2, 36192, Note_on_c, 0, 54, 80
2, 36230, Note_off_c, 0, 54, 0
2, 36240, Note_on_c, 0, 55, 80
2, 36276, Note_on_c, 0, 57, 80
2, 36278, Note_off_c, 0, 55, 0
2, 36288, Note_off_c, 0, 57, 0
2, 36288, Note_on_c, 0, 48, 80
2, 36288, Note_on_c, 0, 69, 80
2, 36326, Note_off_c, 0, 48, 0
2, 36336, Note_on_c, 0, 55, 80
2, 36364, Note_off_c, 0, 69, 0
2, 36374, Note_off_c, 0, 55, 0
2, 36384, Note_on_c, 0, 54, 80
2, 36422, Note_off_c, 0, 54, 0
2, 36432, Note_on_c, 0, 55, 80
2, 36470, Note_off_c, 0, 55, 0
2, 36480, Note_on_c, 0, 47, 80
2, 36480, Note_on_c, 0, 55, 80
2, 36480, Note_on_c, 0, 67, 80
2, 36492, Note_off_c, 0, 55, 0
2, 36518, Note_off_c, 0, 47, 0
2, 36528, Note_on_c, 0, 55, 80
2, 36556, Note_off_c, 0, 67, 0
2, 36566, Note_off_c, 0, 55, 0
2, 36576, Note_on_c, 0, 54, 80
2, 36612, Note_on_c, 0, 60, 80
2, 36614, Note_off_c, 0, 54, 0
2, 36624, Note_on_c, 0, 55, 80
2, 36648, Note_on_c, 0, 72, 80
2, 36657, Note_off_c, 0, 60, 0
2, 36662, Note_off_c, 0, 55, 0
2, 36672, Note_on_c, 0, 48, 80
2, 36710, Note_off_c, 0, 48, 0
2, 36720, Note_on_c, 0, 55, 80
2, 36724, Note_off_c, 0, 72, 0
2, 36744, Note_on_c, 0, 72, 80
2, 36758, Note_off_c, 0, 55, 0
2, 36768, Note_on_c, 0, 54, 80
2, 36806, Note_off_c, 0, 54, 0
2, 36816, Note_on_c, 0, 55, 80
2, 36820, Note_off_c, 0, 72, 0
2, 36854, Note_off_c, 0, 55, 0
2, 36864, Note_on_c, 0, 50, 80
2, 36864, Note_on_c, 0, 59, 80
2, 36864, Note_on_c, 0, 71, 80
2, 36876, Note_off_c, 0, 59, 0
2, 36902, Note_off_c, 0, 50, 0
2, 36912, Note_on_c, 0, 55, 80
2, 36940, Note_off_c, 0, 71, 0
2, 36950, Note_off_c, 0, 55, 0
2, 36960, Note_on_c, 0, 71, 80
2, 36960, Note_on_c, 0, 54, 80
2, 36998, Note_off_c, 0, 54, 0
2, 37008, Note_on_c, 0, 55, 80
2, 37036, Note_off_c, 0, 71, 0
2, 37044, Note_on_c, 0, 57, 80
2, 37046, Note_off_c, 0, 55, 0
2, 37056, Note_off_c, 0, 57, 0
2, 37056, Note_on_c, 0, 48, 80
2, 37056, Note_on_c, 0, 69, 80
2, 37094, Note_off_c, 0, 48, 0
2, 37104, Note_on_c, 0, 55, 80
2, 37132, Note_off_c, 0, 69, 0
2, 37142, Note_off_c, 0, 55, 0
2, 37152, Note_on_c, 0, 54, 80
2, 37152, Note_on_c, 0, 69, 80
2, 37190, Note_off_c, 0, 54, 0
2, 37200, Note_on_c, 0, 55, 80
2, 37228, Note_off_c, 0, 69, 0
2, 37238, Note_off_c, 0, 55, 0
2, 37248, Note_on_c, 0, 62, 80
2, 37248, Note_on_c, 0, 47, 80
2, 37248, Note_on_c, 0, 74, 80
2, 37260, Note_off_c, 0, 62, 0
2, 37286, Note_off_c, 0, 47, 0
2, 37296, Note_on_c, 0, 55, 80
2, 37324, Note_off_c, 0, 74, 0
2, 37334, Note_off_c, 0, 55, 0
2, 37344, Note_on_c, 0, 54, 80
2, 37380, Note_on_c, 0, 71, 80
2, 37382, Note_off_c, 0, 54, 0
2, 37392, Note_off_c, 0, 71, 0
2, 37392, Note_on_c, 0, 72, 80
2, 37392, Note_on_c, 0, 55, 80
2, 37430, Note_off_c, 0, 55, 0
2, 37440, Note_on_c, 0, 64, 80
2, 37468, Note_off_c, 0, 72, 0
2, 37478, Note_off_c, 0, 64, 0
2, 37488, Note_on_c, 0, 67, 80
2, 37488, Note_on_c, 0, 72, 80
2, 37526, Note_off_c, 0, 67, 0
2, 37536, Note_on_c, 0, 66, 80
2, 37564, Note_off_c, 0, 72, 0
2, 37574, Note_off_c, 0, 66, 0
2, 37584, Note_on_c, 0, 67, 80
2, 37622, Note_off_c, 0, 67, 0
2, 37632, Note_on_c, 0, 62, 80
2, 37632, Note_on_c, 0, 70, 80
2, 37632, Note_on_c, 0, 71, 80
2, 37644, Note_off_c, 0, 70, 0
2, 37670, Note_off_c, 0, 62, 0
2, 37680, Note_on_c, 0, 67, 80
2, 37708, Note_off_c, 0, 71, 0
2, 37718, Note_off_c, 0, 67, 0
2, 37728, Note_on_c, 0, 71, 80
2, 37728, Note_on_c, 0, 66, 80
2, 37766, Note_off_c, 0, 66, 0
2, 37776, Note_on_c, 0, 67, 80
2, 37804, Note_off_c, 0, 71, 0
2, 37812, Note_on_c, 0, 68, 80
2, 37814, Note_off_c, 0, 67, 0
2, 37824, Note_off_c, 0, 68, 0
2, 37824, Note_on_c, 0, 60, 80
2, 37824, Note_on_c, 0, 69, 80
2, 37862, Note_off_c, 0, 60, 0
2, 37872, Note_on_c, 0, 67, 80
2, 37900, Note_off_c, 0, 69, 0
2, 37910, Note_off_c, 0, 67, 0
2, 37920, Note_on_c, 0, 66, 80
2, 37920, Note_on_c, 0, 69, 80
2, 37958, Note_off_c, 0, 66, 0
2, 37968, Note_on_c, 0, 67, 80
2, 37996, Note_off_c, 0, 69, 0
2, 38006, Note_off_c, 0, 67, 0
2, 38016, Note_on_c, 0, 73, 80
2, 38016, Note_on_c, 0, 59, 80
2, 38016, Note_on_c, 0, 74, 80
2, 38028, Note_off_c, 0, 73, 0
2, 38054, Note_off_c, 0, 59, 0
2, 38064, Note_on_c, 0, 67, 80
2, 38092, Note_off_c, 0, 74, 0
2, 38102, Note_off_c, 0, 67, 0
2, 38112, Note_on_c, 0, 66, 80
2, 38150, Note_off_c, 0, 66, 0
2, 38160, Note_on_c, 0, 72, 80
2, 38160, Note_on_c, 0, 67, 80
2, 38198, Note_off_c, 0, 67, 0
2, 38198, Note_off_c, 0, 72, 0
2, 38208, Note_on_c, 0, 74, 80
2, 38208, Note_on_c, 0, 69, 80
2, 38208, Note_on_c, 0, 64, 80
2, 38208, Note_on_c, 0, 60, 80
2, 38246, Note_off_c, 0, 74, 0
2, 38256, Note_on_c, 0, 76, 80
2, 38294, Note_off_c, 0, 76, 0
2, 38304, Note_on_c, 0, 74, 80
2, 38342, Note_off_c, 0, 74, 0
2, 38361, Note_off_c, 0, 69, 0
2, 38361, Note_off_c, 0, 64, 0
2, 38361, Note_off_c, 0, 60, 0
2, 38400, Note_on_c, 0, 62, 80
2, 38400, Note_on_c, 0, 67, 80
2, 38400, Note_on_c, 0, 71, 80
2, 38438, Note_off_c, 0, 71, 0
2, 38448, Note_on_c, 0, 72, 80
2, 38486, Note_off_c, 0, 72, 0
2, 38496, Note_on_c, 0, 74, 80
2, 38534, Note_off_c, 0, 74, 0
2, 38544, Note_on_c, 0, 71, 80
2, 38553, Note_off_c, 0, 67, 0
2, 38553, Note_off_c, 0, 62, 0
2, 38582, Note_off_c, 0, 71, 0
2, 38592, Note_on_c, 0, 62, 80
2, 38592, Note_on_c, 0, 66, 80
2, 38592, Note_on_c, 0, 69, 80
2, 38630, Note_off_c, 0, 69, 0
2, 38640, Note_on_c, 0, 71, 80
2, 38678, Note_off_c, 0, 71, 0
2, 38688, Note_on_c, 0, 72, 80
2, 38726, Note_off_c, 0, 72, 0
2, 38736, Note_on_c, 0, 69, 80
2, 38745, Note_off_c, 0, 66, 0
2, 38745, Note_off_c, 0, 62, 0
2, 38774, Note_off_c, 0, 69, 0
2, 38784, Note_on_c, 0, 67, 80
2, 38784, Note_on_c, 0, 55, 80
2, 38784, Note_on_c, 0, 67, 80
2, 38822, Note_off_c, 0, 67, 0
2, 38832, Note_on_c, 0, 79, 80
2, 38870, Note_off_c, 0, 79, 0
2, 38880, Note_on_c, 0, 83, 80
2, 38918, Note_off_c, 0, 83, 0
2, 38928, Note_on_c, 0, 81, 80
2, 38937, Note_off_c, 0, 55, 0
2, 38937, Note_off_c, 0, 67, 0
2, 38966, Note_off_c, 0, 81, 0
2, 38976, Note_on_c, 0, 79, 80
2, 39014, Note_off_c, 0, 79, 0
2, 39024, Note_on_c, 0, 78, 80
2, 39062, Note_off_c, 0, 78, 0
2, 39072, Note_on_c, 0, 76, 80
2, 39110, Note_off_c, 0, 76, 0
2, 39120, Note_on_c, 0, 74, 80
2, 39158, Note_off_c, 0, 74, 0
2, 39168, Note_on_c, 0, 67, 80
2, 39168, Note_on_c, 0, 73, 80
2, 39168, Note_on_c, 0, 64, 80
2, 39321, Note_off_c, 0, 64, 0
2, 39321, Note_off_c, 0, 73, 0
2, 39321, Note_off_c, 0, 67, 0
2, 39360, Note_on_c, 0, 69, 80
2, 39360, Note_on_c, 0, 66, 80
2, 39360, Note_on_c, 0, 72, 80
2, 39436, Note_off_c, 0, 72, 0
2, 39436, Note_off_c, 0, 66, 0
2, 39436, Note_off_c, 0, 69, 0
2, 39456, Note_on_c, 0, 67, 80
2, 39456, Note_on_c, 0, 71, 80
2, 39532, Note_off_c, 0, 71, 0
2, 39532, Note_off_c, 0, 67, 0
2, 39552, Note_on_c, 0, 64, 80
2, 39552, Note_on_c, 0, 69, 80
2, 39552, Note_on_c, 0, 60, 80
2, 39628, Note_off_c, 0, 60, 0
2, 39628, Note_off_c, 0, 69, 0
2, 39628, Note_off_c, 0, 64, 0
2, 39744, Note_on_c, 0, 60, 80
2, 39744, Note_on_c, 0, 76, 80
2, 39782, Note_off_c, 0, 76, 0
2, 39782, Note_off_c, 0, 60, 0
2, 39792, Note_on_c, 0, 69, 80
2, 39792, Note_on_c, 0, 84, 80
2, 39830, Note_off_c, 0, 84, 0
2, 39830, Note_off_c, 0, 69, 0
2, 39840, Note_on_c, 0, 68, 80
2, 39840, Note_on_c, 0, 83, 80
2, 39878, Note_off_c, 0, 83, 0
2, 39878, Note_off_c, 0, 68, 0
2, 39888, Note_on_c, 0, 69, 80
2, 39888, Note_on_c, 0, 84, 80
2, 39926, Note_off_c, 0, 84, 0
2, 39926, Note_off_c, 0, 69, 0
2, 39936, Note_on_c, 0, 74, 80
2, 39936, Note_on_c, 0, 62, 80
2, 39974, Note_off_c, 0, 62, 0
2, 39974, Note_off_c, 0, 74, 0
2, 39984, Note_on_c, 0, 67, 80
2, 39984, Note_on_c, 0, 83, 80
2, 40022, Note_off_c, 0, 83, 0
2, 40022, Note_off_c, 0, 67, 0
2, 40032, Note_on_c, 0, 81, 80
2, 40032, Note_on_c, 0, 66, 80
2, 40070, Note_off_c, 0, 66, 0
2, 40070, Note_off_c, 0, 81, 0
2, 40080, Note_on_c, 0, 67, 80
2, 40080, Note_on_c, 0, 83, 80
2, 40118, Note_off_c, 0, 83, 0
2, 40118, Note_off_c, 0, 67, 0
2, 40128, Note_on_c, 0, 62, 80
2, 40128, Note_on_c, 0, 74, 80
2, 40166, Note_off_c, 0, 74, 0
2, 40166, Note_off_c, 0, 62, 0
2, 40176, Note_on_c, 0, 66, 80
2, 40176, Note_on_c, 0, 81, 80
2, 40214, Note_off_c, 0, 81, 0
2, 40214, Note_off_c, 0, 66, 0
2, 40224, Note_on_c, 0, 64, 80
2, 40224, Note_on_c, 0, 79, 80
2, 40262, Note_off_c, 0, 79, 0
2, 40262, Note_off_c, 0, 64, 0
2, 40272, Note_on_c, 0, 66, 80
2, 40272, Note_on_c, 0, 81, 80
2, 40310, Note_off_c, 0, 81, 0
2, 40310, Note_off_c, 0, 66, 0
2, 40320, Note_on_c, 0, 67, 80
2, 40320, Note_on_c, 0, 79, 80
2, 40358, Note_off_c, 0, 79, 0
2, 40368, Note_on_c, 0, 67, 80
2, 40406, Note_off_c, 0, 67, 0
2, 40416, Note_on_c, 0, 71, 80
2, 40454, Note_off_c, 0, 71, 0
2, 40464, Note_on_c, 0, 69, 80
2, 40473, Note_off_c, 0, 67, 0
2, 40502, Note_off_c, 0, 69, 0
2, 40512, Note_on_c, 0, 67, 80
2, 40550, Note_off_c, 0, 67, 0
2, 40560, Note_on_c, 0, 66, 80
2, 40598, Note_off_c, 0, 66, 0
2, 40608, Note_on_c, 0, 64, 80
2, 40646, Note_off_c, 0, 64, 0
2, 40656, Note_on_c, 0, 62, 80
2, 40694, Note_off_c, 0, 62, 0
2, 40704, Note_on_c, 0, 52, 80
2, 40704, Note_on_c, 0, 55, 80
2, 40704, Note_on_c, 0, 61, 80
2, 40857, Note_off_c, 0, 61, 0
2, 40857, Note_off_c, 0, 55, 0
2, 40857, Note_off_c, 0, 52, 0
2, 40896, Note_on_c, 0, 54, 80
2, 40896, Note_on_c, 0, 57, 80
2, 40896, Note_on_c, 0, 60, 80
2, 40972, Note_off_c, 0, 60, 0
2, 40972, Note_off_c, 0, 57, 0
2, 40972, Note_off_c, 0, 54, 0
2, 40992, Note_on_c, 0, 55, 80
2, 40992, Note_on_c, 0, 59, 80
2, 41068, Note_off_c, 0, 59, 0
2, 41068, Note_off_c, 0, 55, 0
2, 41088, Note_on_c, 0, 48, 80
2, 41088, Note_on_c, 0, 57, 80
2, 41088, Note_on_c, 0, 52, 80
2, 41164, Note_off_c, 0, 52, 0
2, 41164, Note_off_c, 0, 57, 0
2, 41164, Note_off_c, 0, 48, 0
2, 41280, Note_on_c, 0, 48, 80
2, 41280, Note_on_c, 0, 64, 80
2, 41318, Note_off_c, 0, 64, 0
2, 41318, Note_off_c, 0, 48, 0
2, 41328, Note_on_c, 0, 57, 80
2, 41328, Note_on_c, 0, 72, 80
2, 41366, Note_off_c, 0, 72, 0
2, 41366, Note_off_c, 0, 57, 0
2, 41376, Note_on_c, 0, 56, 80
2, 41376, Note_on_c, 0, 71, 80
2, 41414, Note_off_c, 0, 71, 0
2, 41414, Note_off_c, 0, 56, 0
2, 41424, Note_on_c, 0, 57, 80
2, 41424, Note_on_c, 0, 72, 80
2, 41462, Note_off_c, 0, 72, 0
2, 41462, Note_off_c, 0, 57, 0
2, 41472, Note_on_c, 0, 62, 80
2, 41472, Note_on_c, 0, 50, 80
2, 41510, Note_off_c, 0, 50, 0
2, 41510, Note_off_c, 0, 62, 0
2, 41520, Note_on_c, 0, 71, 80
2, 41520, Note_on_c, 0, 55, 80
2, 41558, Note_off_c, 0, 55, 0
2, 41558, Note_off_c, 0, 71, 0
2, 41568, Note_on_c, 0, 54, 80
2, 41568, Note_on_c, 0, 69, 80
2, 41606, Note_off_c, 0, 69, 0
2, 41606, Note_off_c, 0, 54, 0
2, 41616, Note_on_c, 0, 71, 80
2, 41616, Note_on_c, 0, 55, 80
2, 41654, Note_off_c, 0, 55, 0
2, 41654, Note_off_c, 0, 71, 0
2, 41664, Note_on_c, 0, 50, 80
2, 41664, Note_on_c, 0, 62, 80
2, 41702, Note_off_c, 0, 62, 0
2, 41702, Note_off_c, 0, 50, 0
2, 41712, Note_on_c, 0, 54, 80
2, 41712, Note_on_c, 0, 69, 80
2, 41750, Note_off_c, 0, 69, 0
2, 41750, Note_off_c, 0, 54, 0
2, 41760, Note_on_c, 0, 52, 80
2, 41760, Note_on_c, 0, 67, 80
2, 41798, Note_off_c, 0, 67, 0
2, 41798, Note_off_c, 0, 52, 0
2, 41808, Note_on_c, 0, 54, 80
2, 41808, Note_on_c, 0, 69, 80
2, 41846, Note_off_c, 0, 69, 0
2, 41846, Note_off_c, 0, 54, 0
2, 41856, Note_on_c, 0, 67, 80
2, 41856, Note_on_c, 0, 55, 80
2, 41894, Note_off_c, 0, 67, 0
2, 41904, Note_on_c, 0, 62, 80
2, 41942, Note_off_c, 0, 62, 0
2, 41952, Note_on_c, 0, 67, 80
2, 41990, Note_off_c, 0, 67, 0
2, 42000, Note_on_c, 0, 71, 80
2, 42009, Note_off_c, 0, 55, 0
2, 42038, Note_off_c, 0, 71, 0
2, 42048, Note_on_c, 0, 50, 80
2, 42048, Note_on_c, 0, 57, 80
2, 42048, Note_on_c, 0, 74, 80
2, 42086, Note_off_c, 0, 74, 0
2, 42096, Note_on_c, 0, 72, 80
2, 42134, Note_off_c, 0, 72, 0
2, 42144, Note_on_c, 0, 69, 80
2, 42182, Note_off_c, 0, 69, 0
2, 42192, Note_on_c, 0, 66, 80
2, 42201, Note_off_c, 0, 57, 0
2, 42201, Note_off_c, 0, 50, 0
2, 42230, Note_off_c, 0, 66, 0
2, 42240, Note_on_c, 0, 55, 80
2, 42240, Note_on_c, 0, 59, 80
2, 42240, Note_on_c, 0, 67, 80
2, 42278, Note_off_c, 0, 67, 0
2, 42288, Note_on_c, 0, 79, 80
2, 42326, Note_off_c, 0, 79, 0
2, 42336, Note_on_c, 0, 74, 80
2, 42374, Note_off_c, 0, 74, 0
2, 42384, Note_on_c, 0, 71, 80
2, 42393, Note_off_c, 0, 59, 0
2, 42393, Note_off_c, 0, 55, 0
2, 42422, Note_off_c, 0, 71, 0
2, 42432, Note_on_c, 0, 50, 80
2, 42432, Note_on_c, 0, 57, 80
2, 42432, Note_on_c, 0, 60, 80
2, 42432, Note_on_c, 0, 74, 80
2, 42470, Note_off_c, 0, 74, 0
2, 42480, Note_on_c, 0, 72, 80
2, 42518, Note_off_c, 0, 72, 0
2, 42528, Note_on_c, 0, 69, 80
2, 42566, Note_off_c, 0, 69, 0
2, 42576, Note_on_c, 0, 66, 80
2, 42585, Note_off_c, 0, 60, 0
2, 42585, Note_off_c, 0, 57, 0
2, 42585, Note_off_c, 0, 50, 0
2, 42614, Note_off_c, 0, 66, 0
2, 42624, Note_on_c, 0, 55, 80
2, 42624, Note_on_c, 0, 59, 80
2, 42624, Note_on_c, 0, 67, 80
2, 42777, Note_off_c, 0, 67, 0
2, 42777, Note_off_c, 0, 59, 0
2, 42777, Note_off_c, 0, 55, 0
2, 42912, Note_on_c, 0, 74, 80
2, 42988, Note_off_c, 0, 74, 0
2, 43008, Note_on_c, 0, 74, 80
2, 43084, Note_off_c, 0, 74, 0
2, 43104, Note_on_c, 0, 74, 80
2, 43180, Note_off_c, 0, 74, 0
2, 43200, Note_on_c, 0, 74, 80
2, 43276, Note_off_c, 0, 74, 0
2, 43296, Note_on_c, 0, 74, 80
2, 43372, Note_off_c, 0, 74, 0
2, 43392, Note_on_c, 0, 79, 80
2, 43488, Note_on_c, 0, 62, 80
2, 43488, Note_on_c, 0, 59, 80
2, 43564, Note_off_c, 0, 59, 0
2, 43564, Note_off_c, 0, 62, 0
2, 43584, Note_on_c, 0, 71, 80
2, 43584, Note_on_c, 0, 61, 80
2, 43622, Note_off_c, 0, 79, 0
2, 43660, Note_off_c, 0, 71, 0
2, 43660, Note_off_c, 0, 61, 0
2, 43680, Note_on_c, 0, 69, 80
2, 43680, Note_on_c, 0, 62, 80
2, 43680, Note_on_c, 0, 78, 80
2, 43756, Note_off_c, 0, 78, 0
2, 43756, Note_off_c, 0, 62, 0
2, 43756, Note_off_c, 0, 69, 0
2, 43776, Note_on_c, 0, 71, 80
2, 43852, Note_off_c, 0, 71, 0
2, 43872, Note_on_c, 0, 71, 80
2, 43948, Note_off_c, 0, 71, 0
2, 43968, Note_on_c, 0, 71, 80
2, 44044, Note_off_c, 0, 71, 0
2, 44064, Note_on_c, 0, 71, 80
2, 44140, Note_off_c, 0, 71, 0
2, 44160, Note_on_c, 0, 76, 80
2, 44256, Note_on_c, 0, 55, 80
2, 44256, Note_on_c, 0, 59, 80
2, 44332, Note_off_c, 0, 59, 0
2, 44332, Note_off_c, 0, 55, 0
2, 44352, Note_on_c, 0, 67, 80
2, 44352, Note_on_c, 0, 58, 80
2, 44390, Note_off_c, 0, 76, 0
2, 44428, Note_off_c, 0, 67, 0
2, 44428, Note_off_c, 0, 58, 0
2, 44448, Note_on_c, 0, 59, 80
2, 44448, Note_on_c, 0, 66, 80
2, 44448, Note_on_c, 0, 74, 80
2, 44524, Note_off_c, 0, 74, 0
2, 44524, Note_off_c, 0, 66, 0
2, 44524, Note_off_c, 0, 59, 0
2, 44544, Note_on_c, 0, 59, 80
2, 44544, Note_on_c, 0, 65, 80
2, 44544, Note_on_c, 0, 67, 80
2, 44620, Note_off_c, 0, 67, 0
2, 44640, Note_on_c, 0, 67, 80
2, 44697, Note_off_c, 0, 65, 0
2, 44697, Note_off_c, 0, 59, 0
2, 44716, Note_off_c, 0, 67, 0
2, 44736, Note_on_c, 0, 60, 80
2, 44736, Note_on_c, 0, 64, 80
2, 44736, Note_on_c, 0, 67, 80
2, 44812, Note_off_c, 0, 67, 0
2, 44832, Note_on_c, 0, 67, 80
2, 44889, Note_off_c, 0, 64, 0
2, 44889, Note_off_c, 0, 60, 0
2, 44908, Note_off_c, 0, 67, 0
2, 44928, Note_on_c, 0, 57, 80
2, 44928, Note_on_c, 0, 69, 80
2, 45004, Note_off_c, 0, 69, 0
2, 45024, Note_on_c, 0, 64, 80
2, 45081, Note_off_c, 0, 57, 0
2, 45100, Note_off_c, 0, 64, 0
2, 45120, Note_on_c, 0, 69, 80
2, 45196, Note_off_c, 0, 69, 0
2, 45216, Note_on_c, 0, 64, 80
2, 45216, Note_on_c, 0, 71, 80
2, 45216, Note_on_c, 0, 68, 80
2, 45292, Note_off_c, 0, 68, 0
2, 45292, Note_off_c, 0, 71, 0
2, 45292, Note_off_c, 0, 64, 0
2, 45312, Note_on_c, 0, 64, 80
2, 45388, Note_off_c, 0, 64, 0
2, 45408, Note_on_c, 0, 64, 80
2, 45484, Note_off_c, 0, 64, 0
2, 45504, Note_on_c, 0, 64, 80
2, 45580, Note_off_c, 0, 64, 0
2, 45600, Note_on_c, 0, 64, 80
2, 45676, Note_off_c, 0, 64, 0
2, 45696, Note_on_c, 0, 69, 80
2, 45792, Note_on_c, 0, 72, 80
2, 45792, Note_on_c, 0, 76, 80
2, 45868, Note_off_c, 0, 76, 0
2, 45868, Note_off_c, 0, 72, 0
2, 45888, Note_on_c, 0, 75, 80
2, 45888, Note_on_c, 0, 84, 80
2, 45926, Note_off_c, 0, 69, 0
2, 45964, Note_off_c, 0, 75, 0
2, 45964, Note_off_c, 0, 84, 0
2, 45984, Note_on_c, 0, 67, 80
2, 45984, Note_on_c, 0, 76, 80
2, 45984, Note_on_c, 0, 83, 80
2, 46060, Note_off_c, 0, 83, 0
2, 46060, Note_off_c, 0, 76, 0
2, 46060, Note_off_c, 0, 67, 0
2, 46080, Note_on_c, 0, 60, 80
2, 46156, Note_off_c, 0, 60, 0
2, 46176, Note_on_c, 0, 60, 80
2, 46252, Note_off_c, 0, 60, 0
2, 46272, Note_on_c, 0, 60, 80
2, 46348, Note_off_c, 0, 60, 0
2, 46368, Note_on_c, 0, 60, 80
2, 46444, Note_off_c, 0, 60, 0
2, 46464, Note_on_c, 0, 65, 80
2, 46560, Note_on_c, 0, 67, 80
2, 46560, Note_on_c, 0, 72, 80
2, 46636, Note_off_c, 0, 72, 0
2, 46636, Note_off_c, 0, 67, 0
2, 46656, Note_on_c, 0, 71, 80
2, 46656, Note_on_c, 0, 81, 80
2, 46694, Note_off_c, 0, 65, 0
2, 46732, Note_off_c, 0, 71, 0
2, 46732, Note_off_c, 0, 81, 0
2, 46752, Note_on_c, 0, 64, 80
2, 46752, Note_on_c, 0, 72, 80
2, 46752, Note_on_c, 0, 79, 80
2, 46828, Note_off_c, 0, 79, 0
2, 46828, Note_off_c, 0, 72, 0
2, 46828, Note_off_c, 0, 64, 0
2, 46848, Note_on_c, 0, 57, 80
2, 46924, Note_off_c, 0, 57, 0
2, 46944, Note_on_c, 0, 57, 80
2, 47020, Note_off_c, 0, 57, 0
2, 47040, Note_on_c, 0, 57, 80
2, 47116, Note_off_c, 0, 57, 0
2, 47136, Note_on_c, 0, 57, 80
2, 47212, Note_off_c, 0, 57, 0
2, 47232, Note_on_c, 0, 62, 80
2, 47328, Note_on_c, 0, 65, 80
2, 47328, Note_on_c, 0, 69, 80
2, 47404, Note_off_c, 0, 69, 0
2, 47404, Note_off_c, 0, 65, 0
2, 47424, Note_on_c, 0, 68, 80
2, 47424, Note_on_c, 0, 77, 80
2, 47462, Note_off_c, 0, 62, 0
2, 47500, Note_off_c, 0, 68, 0
2, 47500, Note_off_c, 0, 77, 0
2, 47520, Note_on_c, 0, 60, 80
2, 47520, Note_on_c, 0, 69, 80
2, 47520, Note_on_c, 0, 76, 80
2, 47596, Note_off_c, 0, 76, 0
2, 47596, Note_off_c, 0, 69, 0
2, 47596, Note_off_c, 0, 60, 0
2, 47616, Note_on_c, 0, 65, 80
2, 47616, Note_on_c, 0, 53, 80
2, 47712, Note_on_c, 0, 81, 80
2, 47750, Note_off_c, 0, 81, 0
2, 47760, Note_on_c, 0, 75, 80
2, 47769, Note_off_c, 0, 53, 0
2, 47769, Note_off_c, 0, 65, 0
2, 47798, Note_off_c, 0, 75, 0
2, 47808, Note_on_c, 0, 84, 80
2, 47884, Note_off_c, 0, 84, 0
2, 47904, Note_on_c, 0, 41, 80
2, 47904, Note_on_c, 0, 53, 80
2, 47904, Note_on_c, 0, 81, 80
2, 47980, Note_off_c, 0, 81, 0
2, 47980, Note_off_c, 0, 53, 0
2, 47980, Note_off_c, 0, 41, 0
2, 48000, Note_on_c, 0, 52, 80
2, 48000, Note_on_c, 0, 40, 80
2, 48096, Note_on_c, 0, 80, 80
2, 48134, Note_off_c, 0, 80, 0
2, 48144, Note_on_c, 0, 76, 80
2, 48153, Note_off_c, 0, 40, 0
2, 48153, Note_off_c, 0, 52, 0
2, 48182, Note_off_c, 0, 76, 0
2, 48192, Note_on_c, 0, 83, 80
2, 48268, Note_off_c, 0, 83, 0
2, 48288, Note_on_c, 0, 52, 80
2, 48288, Note_on_c, 0, 64, 80
2, 48288, Note_on_c, 0, 80, 80
2, 48364, Note_off_c, 0, 80, 0
2, 48364, Note_off_c, 0, 64, 0
2, 48364, Note_off_c, 0, 52, 0
2, 48384, Note_on_c, 0, 65, 80
2, 48384, Note_on_c, 0, 53, 80
2, 48480, Note_on_c, 0, 81, 80
2, 48518, Note_off_c, 0, 81, 0
2, 48528, Note_on_c, 0, 75, 80
2, 48537, Note_off_c, 0, 53, 0
2, 48537, Note_off_c, 0, 65, 0
2, 48566, Note_off_c, 0, 75, 0
2, 48576, Note_on_c, 0, 84, 80
2, 48652, Note_off_c, 0, 84, 0
2, 48672, Note_on_c, 0, 41, 80
2, 48672, Note_on_c, 0, 53, 80
2, 48672, Note_on_c, 0, 81, 80
2, 48748, Note_off_c, 0, 81, 0
2, 48748, Note_off_c, 0, 53, 0
2, 48748, Note_off_c, 0, 41, 0
2, 48768, Note_on_c, 0, 40, 80
2, 48768, Note_on_c, 0, 80, 80
2, 48768, Note_on_c, 0, 52, 80
2, 48844, Note_off_c, 0, 80, 0
2, 48858, Note_off_c, 0, 40, 0
2, 48858, Note_off_c, 0, 52, 0
2, 48864, Note_on_c, 0, 84, 80
2, 48902, Note_off_c, 0, 84, 0
2, 48912, Note_on_c, 0, 76, 80
2, 48950, Note_off_c, 0, 76, 0
2, 48960, Note_on_c, 0, 69, 80
2, 48960, Note_on_c, 0, 83, 80
2, 48998, Note_off_c, 0, 83, 0
2, 49008, Note_on_c, 0, 76, 80
2, 49036, Note_off_c, 0, 69, 0
2, 49046, Note_off_c, 0, 76, 0
2, 49056, Note_on_c, 0, 68, 80
2, 49056, Note_on_c, 0, 81, 80
2, 49094, Note_off_c, 0, 81, 0
2, 49104, Note_on_c, 0, 76, 80
2, 49132, Note_off_c, 0, 68, 0
2, 49142, Note_off_c, 0, 76, 0
2, 49152, Note_on_c, 0, 71, 80
2, 49152, Note_on_c, 0, 80, 80
2, 49152, Note_on_c, 0, 64, 80
2, 49190, Note_off_c, 0, 80, 0
2, 49200, Note_on_c, 0, 76, 80
2, 49228, Note_off_c, 0, 71, 0
2, 49228, Note_off_c, 0, 64, 0
2, 49238, Note_off_c, 0, 76, 0
2, 49248, Note_on_c, 0, 84, 80
2, 49248, Note_on_c, 0, 69, 80
2, 49286, Note_off_c, 0, 84, 0
2, 49296, Note_on_c, 0, 76, 80
2, 49324, Note_off_c, 0, 69, 0
2, 49334, Note_off_c, 0, 76, 0
2, 49344, Note_on_c, 0, 68, 80
2, 49344, Note_on_c, 0, 83, 80
2, 49382, Note_off_c, 0, 83, 0
2, 49392, Note_on_c, 0, 76, 80
2, 49420, Note_off_c, 0, 68, 0
2, 49430, Note_off_c, 0, 76, 0
2, 49440, Note_on_c, 0, 64, 80
2, 49440, Note_on_c, 0, 72, 80
2, 49440, Note_on_c, 0, 81, 80
2, 49478, Note_off_c, 0, 81, 0
2, 49488, Note_on_c, 0, 76, 80
2, 49516, Note_off_c, 0, 72, 0
2, 49516, Note_off_c, 0, 64, 0
2, 49526, Note_off_c, 0, 76, 0
2, 49536, Note_on_c, 0, 80, 80
2, 49536, Note_on_c, 0, 64, 80
2, 49536, Note_on_c, 0, 71, 80
2, 49574, Note_off_c, 0, 80, 0
2, 49584, Note_on_c, 0, 76, 80
2, 49612, Note_off_c, 0, 64, 0
2, 49612, Note_off_c, 0, 71, 0
2, 49622, Note_off_c, 0, 76, 0
2, 49632, Note_on_c, 0, 72, 80
2, 49632, Note_on_c, 0, 81, 80
2, 49670, Note_off_c, 0, 81, 0
2, 49680, Note_on_c, 0, 76, 80
2, 49708, Note_off_c, 0, 72, 0
2, 49718, Note_off_c, 0, 76, 0
2, 49728, Note_on_c, 0, 68, 80
2, 49728, Note_on_c, 0, 83, 80
2, 49766, Note_off_c, 0, 83, 0
2, 49776, Note_on_c, 0, 76, 80
2, 49804, Note_off_c, 0, 68, 0
2, 49814, Note_off_c, 0, 76, 0
2, 49824, Note_on_c, 0, 69, 80
2, 49824, Note_on_c, 0, 84, 80
2, 49862, Note_off_c, 0, 84, 0
2, 49872, Note_on_c, 0, 76, 80
2, 49900, Note_off_c, 0, 69, 0
2, 49910, Note_off_c, 0, 76, 0
2, 49920, Note_on_c, 0, 64, 80
2, 49920, Note_on_c, 0, 68, 80
2, 49920, Note_on_c, 0, 83, 80
2, 50073, Note_off_c, 0, 83, 0
2, 50073, Note_off_c, 0, 68, 0
2, 50073, Note_off_c, 0, 64, 0
2, 50100, Note_on_c, 0, 63, 80
2, 50100, Note_on_c, 0, 75, 80
2, 50112, Note_off_c, 0, 75, 0
2, 50112, Note_off_c, 0, 63, 0
2, 50112, Note_on_c, 0, 76, 80
2, 50112, Note_on_c, 0, 64, 80
2, 50265, Note_off_c, 0, 64, 0
2, 50265, Note_off_c, 0, 76, 0
2, 50304, Note_on_c, 0, 40, 80
2, 50304, Note_on_c, 0, 52, 80
2, 50304, Note_on_c, 0, 64, 80
2, 50457, Note_off_c, 0, 64, 0
2, 50457, Note_off_c, 0, 52, 0
2, 50457, Note_off_c, 0, 40, 0
2, 50592, Note_on_c, 0, 59, 80
2, 50668, Note_off_c, 0, 59, 0
2, 50688, Note_on_c, 0, 64, 80
2, 50784, Note_on_c, 0, 59, 80
2, 50784, Note_on_c, 0, 55, 80
2, 50860, Note_off_c, 0, 55, 0
2, 50860, Note_off_c, 0, 59, 0
2, 50880, Note_on_c, 0, 54, 80
2, 50880, Note_on_c, 0, 57, 80
2, 50956, Note_off_c, 0, 57, 0
2, 50956, Note_off_c, 0, 54, 0
2, 50976, Note_on_c, 0, 52, 80
2, 50976, Note_on_c, 0, 55, 80
2, 50995, Note_off_c, 0, 64, 0
2, 51052, Note_off_c, 0, 52, 0
2, 51052, Note_off_c, 0, 55, 0
2, 51072, Note_on_c, 0, 69, 80
2, 51168, Note_on_c, 0, 54, 80
2, 51168, Note_on_c, 0, 51, 80
2, 51244, Note_off_c, 0, 51, 0
2, 51244, Note_off_c, 0, 54, 0
2, 51264, Note_on_c, 0, 48, 80
2, 51264, Note_on_c, 0, 52, 80
2, 51340, Note_off_c, 0, 52, 0
2, 51340, Note_off_c, 0, 48, 0
2, 51360, Note_on_c, 0, 47, 80
2, 51360, Note_on_c, 0, 51, 80
2, 51379, Note_off_c, 0, 69, 0
2, 51436, Note_off_c, 0, 47, 0
2, 51436, Note_off_c, 0, 51, 0
2, 51456, Note_on_c, 0, 52, 80
2, 51456, Note_on_c, 0, 40, 80
2, 51456, Note_on_c, 0, 67, 80
2, 51532, Note_off_c, 0, 67, 0
2, 51552, Note_on_c, 0, 70, 80
2, 51590, Note_off_c, 0, 70, 0
2, 51600, Note_on_c, 0, 69, 80
2, 51638, Note_off_c, 0, 69, 0
2, 51648, Note_on_c, 0, 67, 80
2, 51686, Note_off_c, 0, 67, 0
2, 51696, Note_on_c, 0, 65, 80
2, 51734, Note_off_c, 0, 65, 0
2, 51744, Note_on_c, 0, 64, 80
2, 51763, Note_off_c, 0, 40, 0
2, 51763, Note_off_c, 0, 52, 0
2, 51782, Note_off_c, 0, 64, 0
2, 51792, Note_on_c, 0, 62, 80
2, 51830, Note_off_c, 0, 62, 0
2, 51840, Note_on_c, 0, 55, 80
2, 51840, Note_on_c, 0, 43, 80
2, 51840, Note_on_c, 0, 61, 80
2, 51916, Note_off_c, 0, 61, 0
2, 51936, Note_on_c, 0, 64, 80
2, 51974, Note_off_c, 0, 64, 0
2, 51984, Note_on_c, 0, 62, 80
2, 52022, Note_off_c, 0, 62, 0
2, 52032, Note_on_c, 0, 61, 80
2, 52070, Note_off_c, 0, 61, 0
2, 52080, Note_on_c, 0, 57, 80
2, 52118, Note_off_c, 0, 57, 0
2, 52128, Note_on_c, 0, 59, 80
2, 52147, Note_off_c, 0, 43, 0
2, 52147, Note_off_c, 0, 55, 0
2, 52166, Note_off_c, 0, 59, 0
2, 52176, Note_on_c, 0, 61, 80
2, 52214, Note_off_c, 0, 61, 0
2, 52224, Note_on_c, 0, 53, 80
2, 52224, Note_on_c, 0, 41, 80
2, 52224, Note_on_c, 0, 62, 80
2, 52300, Note_off_c, 0, 41, 0
2, 52300, Note_off_c, 0, 53, 0
2, 52320, Note_on_c, 0, 53, 80
2, 52320, Note_on_c, 0, 57, 80
2, 52396, Note_off_c, 0, 57, 0
2, 52396, Note_off_c, 0, 53, 0
2, 52416, Note_on_c, 0, 52, 80
2, 52416, Note_on_c, 0, 55, 80
2, 52492, Note_off_c, 0, 55, 0
2, 52492, Note_off_c, 0, 52, 0
2, 52512, Note_on_c, 0, 50, 80
2, 52512, Note_on_c, 0, 53, 80
2, 52531, Note_off_c, 0, 62, 0
2, 52588, Note_off_c, 0, 50, 0
2, 52588, Note_off_c, 0, 53, 0
2, 52608, Note_on_c, 0, 67, 80
2, 52704, Note_on_c, 0, 49, 80
2, 52704, Note_on_c, 0, 52, 80
2, 52780, Note_off_c, 0, 52, 0
2, 52780, Note_off_c, 0, 49, 0
2, 52800, Note_on_c, 0, 47, 80
2, 52800, Note_on_c, 0, 50, 80
2, 52876, Note_off_c, 0, 50, 0
2, 52876, Note_off_c, 0, 47, 0
2, 52896, Note_on_c, 0, 45, 80
2, 52896, Note_on_c, 0, 49, 80
2, 52915, Note_off_c, 0, 67, 0
2, 52972, Note_off_c, 0, 45, 0
2, 52972, Note_off_c, 0, 49, 0
2, 52992, Note_on_c, 0, 50, 80
2, 52992, Note_on_c, 0, 38, 80
2, 52992, Note_on_c, 0, 65, 80
2, 53068, Note_off_c, 0, 65, 0
2, 53088, Note_on_c, 0, 69, 80
2, 53126, Note_off_c, 0, 69, 0
2, 53136, Note_on_c, 0, 67, 80
2, 53174, Note_off_c, 0, 67, 0
2, 53184, Note_on_c, 0, 65, 80
2, 53222, Note_off_c, 0, 65, 0
2, 53232, Note_on_c, 0, 64, 80
2, 53270, Note_off_c, 0, 64, 0
2, 53280, Note_on_c, 0, 62, 80
2, 53299, Note_off_c, 0, 38, 0
2, 53299, Note_off_c, 0, 50, 0
2, 53318, Note_off_c, 0, 62, 0
2, 53328, Note_on_c, 0, 60, 80
2, 53366, Note_off_c, 0, 60, 0
2, 53376, Note_on_c, 0, 53, 80
2, 53376, Note_on_c, 0, 41, 80
2, 53376, Note_on_c, 0, 59, 80
2, 53452, Note_off_c, 0, 59, 0
2, 53472, Note_on_c, 0, 62, 80
2, 53510, Note_off_c, 0, 62, 0
2, 53520, Note_on_c, 0, 60, 80
2, 53558, Note_off_c, 0, 60, 0
2, 53568, Note_on_c, 0, 59, 80
2, 53606, Note_off_c, 0, 59, 0
2, 53616, Note_on_c, 0, 55, 80
2, 53654, Note_off_c, 0, 55, 0
2, 53664, Note_on_c, 0, 57, 80
2, 53683, Note_off_c, 0, 41, 0
2, 53683, Note_off_c, 0, 53, 0
2, 53702, Note_off_c, 0, 57, 0
2, 53712, Note_on_c, 0, 59, 80
2, 53750, Note_off_c, 0, 59, 0
2, 53760, Note_on_c, 0, 40, 80
2, 53760, Note_on_c, 0, 52, 80
2, 53760, Note_on_c, 0, 60, 80
2, 53836, Note_off_c, 0, 52, 0
2, 53836, Note_off_c, 0, 40, 0
2, 53856, Note_on_c, 0, 52, 80
2, 53856, Note_on_c, 0, 55, 80
2, 53932, Note_off_c, 0, 55, 0
2, 53932, Note_off_c, 0, 52, 0
2, 53952, Note_on_c, 0, 50, 80
2, 53952, Note_on_c, 0, 53, 80
2, 54028, Note_off_c, 0, 53, 0
2, 54028, Note_off_c, 0, 50, 0
2, 54048, Note_on_c, 0, 48, 80
2, 54048, Note_on_c, 0, 52, 80
2, 54067, Note_off_c, 0, 60, 0
2, 54124, Note_off_c, 0, 48, 0
2, 54124, Note_off_c, 0, 52, 0
2, 54144, Note_on_c, 0, 65, 80
2, 54240, Note_on_c, 0, 47, 80
2, 54240, Note_on_c, 0, 50, 80
2, 54316, Note_off_c, 0, 50, 0
2, 54316, Note_off_c, 0, 47, 0
2, 54336, Note_on_c, 0, 45, 80
2, 54336, Note_on_c, 0, 48, 80
2, 54412, Note_off_c, 0, 48, 0
2, 54412, Note_off_c, 0, 45, 0
2, 54432, Note_on_c, 0, 43, 80
2, 54432, Note_on_c, 0, 47, 80
2, 54451, Note_off_c, 0, 65, 0
2, 54508, Note_off_c, 0, 43, 0
2, 54508, Note_off_c, 0, 47, 0
2, 54528, Note_on_c, 0, 64, 80
2, 54528, Note_on_c, 0, 72, 80
2, 54540, Note_off_c, 0, 64, 0
2, 54624, Note_on_c, 0, 64, 80
2, 54624, Note_on_c, 0, 67, 80
2, 54700, Note_off_c, 0, 67, 0
2, 54700, Note_off_c, 0, 64, 0
2, 54720, Note_on_c, 0, 62, 80
2, 54720, Note_on_c, 0, 65, 80
2, 54796, Note_off_c, 0, 65, 0
2, 54796, Note_off_c, 0, 62, 0
2, 54816, Note_on_c, 0, 60, 80
2, 54816, Note_on_c, 0, 64, 80
2, 54835, Note_off_c, 0, 72, 0
2, 54892, Note_off_c, 0, 60, 0
2, 54892, Note_off_c, 0, 64, 0
2, 54912, Note_on_c, 0, 77, 80
2, 55008, Note_on_c, 0, 59, 80
2, 55008, Note_on_c, 0, 62, 80
2, 55084, Note_off_c, 0, 62, 0
2, 55084, Note_off_c, 0, 59, 0
2, 55104, Note_on_c, 0, 57, 80
2, 55104, Note_on_c, 0, 60, 80
2, 55180, Note_off_c, 0, 60, 0
2, 55180, Note_off_c, 0, 57, 0
2, 55200, Note_on_c, 0, 55, 80
2, 55200, Note_on_c, 0, 59, 80
2, 55219, Note_off_c, 0, 77, 0
2, 55276, Note_off_c, 0, 55, 0
2, 55276, Note_off_c, 0, 59, 0
2, 55296, Note_on_c, 0, 60, 80
2, 55296, Note_on_c, 0, 76, 80
2, 55334, Note_off_c, 0, 76, 0
2, 55344, Note_on_c, 0, 79, 80
2, 55372, Note_off_c, 0, 60, 0
2, 55382, Note_off_c, 0, 79, 0
2, 55392, Note_on_c, 0, 77, 80
2, 55392, Note_on_c, 0, 72, 80
2, 55430, Note_off_c, 0, 77, 0
2, 55440, Note_on_c, 0, 76, 80
2, 55468, Note_off_c, 0, 72, 0
2, 55478, Note_off_c, 0, 76, 0
2, 55488, Note_on_c, 0, 65, 80
2, 55488, Note_on_c, 0, 81, 80
2, 55526, Note_off_c, 0, 81, 0
2, 55536, Note_on_c, 0, 77, 80
2, 55564, Note_off_c, 0, 65, 0
2, 55574, Note_off_c, 0, 77, 0
2, 55584, Note_on_c, 0, 66, 80
2, 55584, Note_on_c, 0, 74, 80
2, 55622, Note_off_c, 0, 74, 0
2, 55632, Note_on_c, 0, 72, 80
2, 55660, Note_off_c, 0, 66, 0
2, 55670, Note_off_c, 0, 72, 0
2, 55680, Note_on_c, 0, 67, 80
2, 55680, Note_on_c, 0, 71, 80
2, 55718, Note_off_c, 0, 71, 0
2, 55728, Note_on_c, 0, 72, 80
2, 55766, Note_off_c, 0, 72, 0
2, 55776, Note_on_c, 0, 74, 80
2, 55814, Note_off_c, 0, 74, 0
2, 55824, Note_on_c, 0, 71, 80
2, 55833, Note_off_c, 0, 67, 0
2, 55862, Note_off_c, 0, 71, 0
2, 55872, Note_on_c, 0, 55, 80
2, 55872, Note_on_c, 0, 69, 80
2, 55910, Note_off_c, 0, 69, 0
2, 55920, Note_on_c, 0, 67, 80
2, 55958, Note_off_c, 0, 67, 0
2, 55968, Note_on_c, 0, 66, 80
2, 56006, Note_off_c, 0, 66, 0
2, 56016, Note_on_c, 0, 67, 80
2, 56025, Note_off_c, 0, 55, 0
2, 56054, Note_off_c, 0, 67, 0
2, 56064, Note_on_c, 0, 48, 80
2, 56064, Note_on_c, 0, 36, 80
2, 56160, Note_on_c, 0, 76, 80
2, 56160, Note_on_c, 0, 79, 80
2, 56236, Note_off_c, 0, 79, 0
2, 56236, Note_off_c, 0, 76, 0
2, 56256, Note_on_c, 0, 74, 80
2, 56256, Note_on_c, 0, 77, 80
2, 56332, Note_off_c, 0, 77, 0
2, 56332, Note_off_c, 0, 74, 0
2, 56352, Note_on_c, 0, 72, 80
2, 56352, Note_on_c, 0, 76, 80
2, 56371, Note_off_c, 0, 36, 0
2, 56371, Note_off_c, 0, 48, 0
2, 56428, Note_off_c, 0, 72, 0
2, 56428, Note_off_c, 0, 76, 0
2, 56448, Note_on_c, 0, 53, 80
2, 56448, Note_on_c, 0, 41, 80
2, 56544, Note_on_c, 0, 71, 80
2, 56544, Note_on_c, 0, 74, 80
2, 56620, Note_off_c, 0, 74, 0
2, 56620, Note_off_c, 0, 71, 0
2, 56640, Note_on_c, 0, 69, 80
2, 56640, Note_on_c, 0, 72, 80
2, 56716, Note_off_c, 0, 72, 0
2, 56716, Note_off_c, 0, 69, 0
2, 56736, Note_on_c, 0, 67, 80
2, 56736, Note_on_c, 0, 71, 80
2, 56755, Note_off_c, 0, 41, 0
2, 56755, Note_off_c, 0, 53, 0
2, 56812, Note_off_c, 0, 67, 0
2, 56812, Note_off_c, 0, 71, 0
2, 56832, Note_on_c, 0, 72, 80
2, 56832, Note_on_c, 0, 52, 80
2, 56870, Note_off_c, 0, 52, 0
2, 56880, Note_on_c, 0, 55, 80
2, 56908, Note_off_c, 0, 72, 0
2, 56918, Note_off_c, 0, 55, 0
2, 56928, Note_on_c, 0, 76, 80
2, 56928, Note_on_c, 0, 60, 80
2, 56966, Note_off_c, 0, 60, 0
2, 56976, Note_on_c, 0, 55, 80
2, 57004, Note_off_c, 0, 76, 0
2, 57014, Note_off_c, 0, 55, 0
2, 57024, Note_on_c, 0, 54, 80
2, 57024, Note_on_c, 0, 74, 80
2, 57062, Note_off_c, 0, 54, 0
2, 57072, Note_on_c, 0, 55, 80
2, 57100, Note_off_c, 0, 74, 0
2, 57110, Note_off_c, 0, 55, 0
2, 57120, Note_on_c, 0, 53, 80
2, 57120, Note_on_c, 0, 71, 80
2, 57158, Note_off_c, 0, 53, 0
2, 57168, Note_on_c, 0, 55, 80
2, 57196, Note_off_c, 0, 71, 0
2, 57206, Note_off_c, 0, 55, 0
2, 57216, Note_on_c, 0, 52, 80
2, 57216, Note_on_c, 0, 72, 80
2, 57254, Note_off_c, 0, 72, 0
2, 57264, Note_on_c, 0, 76, 80
2, 57292, Note_off_c, 0, 52, 0
2, 57302, Note_off_c, 0, 76, 0
2, 57312, Note_on_c, 0, 72, 80
2, 57312, Note_on_c, 0, 52, 80
2, 57350, Note_off_c, 0, 72, 0
2, 57360, Note_on_c, 0, 67, 80
2, 57388, Note_off_c, 0, 52, 0
2, 57398, Note_off_c, 0, 67, 0
2, 57408, Note_on_c, 0, 50, 80
2, 57408, Note_on_c, 0, 66, 80
2, 57446, Note_off_c, 0, 66, 0
2, 57456, Note_on_c, 0, 67, 80
2, 57484, Note_off_c, 0, 50, 0
2, 57494, Note_off_c, 0, 67, 0
2, 57504, Note_on_c, 0, 47, 80
2, 57504, Note_on_c, 0, 65, 80
2, 57542, Note_off_c, 0, 65, 0
2, 57552, Note_on_c, 0, 67, 80
2, 57580, Note_off_c, 0, 47, 0
2, 57590, Note_off_c, 0, 67, 0
2, 57600, Note_on_c, 0, 48, 80
2, 57600, Note_on_c, 0, 64, 80
2, 57638, Note_off_c, 0, 64, 0
2, 57648, Note_on_c, 0, 67, 80
2, 57676, Note_off_c, 0, 48, 0
2, 57686, Note_off_c, 0, 67, 0
2, 57696, Note_on_c, 0, 60, 80
2, 57696, Note_on_c, 0, 52, 80
2, 57734, Note_off_c, 0, 60, 0
2, 57744, Note_on_c, 0, 67, 80
2, 57772, Note_off_c, 0, 52, 0
2, 57782, Note_off_c, 0, 67, 0
2, 57792, Note_on_c, 0, 53, 80
2, 57792, Note_on_c, 0, 62, 80
2, 57830, Note_off_c, 0, 62, 0
2, 57840, Note_on_c, 0, 65, 80
2, 57868, Note_off_c, 0, 53, 0
2, 57878, Note_off_c, 0, 65, 0
2, 57888, Note_on_c, 0, 55, 80
2, 57888, Note_on_c, 0, 59, 80
2, 57926, Note_off_c, 0, 59, 0
2, 57936, Note_on_c, 0, 62, 80
2, 57964, Note_off_c, 0, 55, 0
2, 57974, Note_off_c, 0, 62, 0
2, 57984, Note_on_c, 0, 60, 80
2, 57984, Note_on_c, 0, 48, 80
2, 58060, Note_off_c, 0, 48, 0
2, 58080, Note_on_c, 0, 43, 80
2, 58137, Note_off_c, 0, 60, 0
2, 58156, Note_off_c, 0, 43, 0
2, 58176, Note_on_c, 0, 36, 80
2, 58272, Note_on_c, 0, 72, 80
2, 58291, Note_off_c, 0, 72, 0
2, 58296, Note_on_c, 0, 74, 80
2, 58315, Note_off_c, 0, 74, 0
2, 58320, Note_on_c, 0, 72, 80
2, 58329, Note_off_c, 0, 36, 0
2, 58339, Note_off_c, 0, 72, 0
2, 58344, Note_on_c, 0, 74, 80
2, 58363, Note_off_c, 0, 74, 0
2, 58368, Note_on_c, 0, 70, 80
2, 58368, Note_on_c, 0, 76, 80
2, 58368, Note_on_c, 0, 60, 80
2, 58368, Note_on_c, 0, 67, 80
2, 58406, Note_off_c, 0, 76, 0
2, 58416, Note_on_c, 0, 72, 80
2, 58454, Note_off_c, 0, 72, 0
2, 58464, Note_on_c, 0, 79, 80
2, 58502, Note_off_c, 0, 79, 0
2, 58512, Note_on_c, 0, 76, 80
2, 58521, Note_off_c, 0, 70, 0
2, 58521, Note_off_c, 0, 60, 0
2, 58521, Note_off_c, 0, 67, 0
2, 58550, Note_off_c, 0, 76, 0
2, 58560, Note_on_c, 0, 82, 80
2, 58598, Note_off_c, 0, 82, 0
2, 58608, Note_on_c, 0, 81, 80
2, 58646, Note_off_c, 0, 81, 0
2, 58656, Note_on_c, 0, 82, 80
2, 58694, Note_off_c, 0, 82, 0
2, 58704, Note_on_c, 0, 79, 80
2, 58742, Note_off_c, 0, 79, 0
2, 58752, Note_on_c, 0, 79, 80
2, 58752, Note_on_c, 0, 69, 80
2, 58752, Note_on_c, 0, 60, 80
2, 58752, Note_on_c, 0, 65, 80
2, 58790, Note_off_c, 0, 79, 0
2, 58800, Note_on_c, 0, 77, 80
2, 58838, Note_off_c, 0, 77, 0
2, 58848, Note_on_c, 0, 76, 80
2, 58886, Note_off_c, 0, 76, 0
2, 58896, Note_on_c, 0, 77, 80
2, 58905, Note_off_c, 0, 69, 0
2, 58905, Note_off_c, 0, 60, 0
2, 58905, Note_off_c, 0, 65, 0
2, 58934, Note_off_c, 0, 77, 0
2, 58944, Note_on_c, 0, 76, 80
2, 58982, Note_off_c, 0, 76, 0
2, 58992, Note_on_c, 0, 77, 80
2, 59030, Note_off_c, 0, 77, 0
2, 59040, Note_on_c, 0, 76, 80
2, 59078, Note_off_c, 0, 76, 0
2, 59088, Note_on_c, 0, 77, 80
2, 59126, Note_off_c, 0, 77, 0
2, 59136, Note_on_c, 0, 77, 80
2, 59136, Note_on_c, 0, 69, 80
2, 59136, Note_on_c, 0, 60, 80
2, 59136, Note_on_c, 0, 65, 80
2, 59174, Note_off_c, 0, 77, 0
2, 59184, Note_on_c, 0, 72, 80
2, 59222, Note_off_c, 0, 72, 0
2, 59232, Note_on_c, 0, 81, 80
2, 59270, Note_off_c, 0, 81, 0
2, 59280, Note_on_c, 0, 79, 80
2, 59289, Note_off_c, 0, 69, 0
2, 59289, Note_off_c, 0, 60, 0
2, 59289, Note_off_c, 0, 65, 0
2, 59318, Note_off_c, 0, 79, 0
2, 59328, Note_on_c, 0, 84, 80
2, 59366, Note_off_c, 0, 84, 0
2, 59376, Note_on_c, 0, 83, 80
2, 59414, Note_off_c, 0, 83, 0
2, 59424, Note_on_c, 0, 84, 80
2, 59462, Note_off_c, 0, 84, 0
2, 59472, Note_on_c, 0, 81, 80
2, 59510, Note_off_c, 0, 81, 0
2, 59520, Note_on_c, 0, 81, 80
2, 59520, Note_on_c, 0, 67, 80
2, 59520, Note_on_c, 0, 60, 80
2, 59520, Note_on_c, 0, 64, 80
2, 59558, Note_off_c, 0, 81, 0
2, 59568, Note_on_c, 0, 79, 80
2, 59606, Note_off_c, 0, 79, 0
2, 59616, Note_on_c, 0, 78, 80
2, 59654, Note_off_c, 0, 78, 0
2, 59664, Note_on_c, 0, 79, 80
2, 59673, Note_off_c, 0, 67, 0
2, 59673, Note_off_c, 0, 60, 0
2, 59673, Note_off_c, 0, 64, 0
2, 59702, Note_off_c, 0, 79, 0
2, 59712, Note_on_c, 0, 78, 80
2, 59750, Note_off_c, 0, 78, 0
2, 59760, Note_on_c, 0, 79, 80
2, 59798, Note_off_c, 0, 79, 0
2, 59808, Note_on_c, 0, 78, 80
2, 59846, Note_off_c, 0, 78, 0
2, 59856, Note_on_c, 0, 79, 80
2, 59894, Note_off_c, 0, 79, 0
2, 59904, Note_on_c, 0, 64, 80
2, 59904, Note_on_c, 0, 67, 80
2, 59904, Note_on_c, 0, 84, 80
2, 59942, Note_off_c, 0, 84, 0
2, 59952, Note_on_c, 0, 83, 80
2, 59990, Note_off_c, 0, 83, 0
2, 60000, Note_on_c, 0, 81, 80
2, 60038, Note_off_c, 0, 81, 0
2, 60048, Note_on_c, 0, 79, 80
2, 60057, Note_off_c, 0, 67, 0
2, 60057, Note_off_c, 0, 64, 0
2, 60086, Note_off_c, 0, 79, 0
2, 60096, Note_on_c, 0, 77, 80
2, 60134, Note_off_c, 0, 77, 0
2, 60144, Note_on_c, 0, 76, 80
2, 60182, Note_off_c, 0, 76, 0
2, 60192, Note_on_c, 0, 74, 80
2, 60230, Note_off_c, 0, 74, 0
2, 60240, Note_on_c, 0, 72, 80
2, 60278, Note_off_c, 0, 72, 0
2, 60288, Note_on_c, 0, 65, 80
2, 60288, Note_on_c, 0, 69, 80
2, 60288, Note_on_c, 0, 76, 80
2, 60326, Note_off_c, 0, 76, 0
2, 60336, Note_on_c, 0, 74, 80
2, 60374, Note_off_c, 0, 74, 0
2, 60384, Note_on_c, 0, 73, 80
2, 60422, Note_off_c, 0, 73, 0
2, 60432, Note_on_c, 0, 74, 80
2, 60441, Note_off_c, 0, 69, 0
2, 60441, Note_off_c, 0, 65, 0
2, 60470, Note_off_c, 0, 74, 0
2, 60480, Note_on_c, 0, 76, 80
2, 60518, Note_off_c, 0, 76, 0
2, 60528, Note_on_c, 0, 74, 80
2, 60566, Note_off_c, 0, 74, 0
2, 60576, Note_on_c, 0, 73, 80
2, 60614, Note_off_c, 0, 73, 0
2, 60624, Note_on_c, 0, 74, 80
2, 60662, Note_off_c, 0, 74, 0
2, 60672, Note_on_c, 0, 65, 80
2, 60672, Note_on_c, 0, 69, 80
2, 60672, Note_on_c, 0, 74, 80
2, 60710, Note_off_c, 0, 74, 0
2, 60720, Note_on_c, 0, 77, 80
2, 60758, Note_off_c, 0, 77, 0
2, 60768, Note_on_c, 0, 81, 80
2, 60806, Note_off_c, 0, 81, 0
2, 60816, Note_on_c, 0, 79, 80
2, 60854, Note_off_c, 0, 79, 0
2, 60864, Note_on_c, 0, 77, 80
2, 60902, Note_off_c, 0, 69, 0
2, 60902, Note_off_c, 0, 65, 0
2, 60902, Note_off_c, 0, 77, 0
2, 60912, Note_on_c, 0, 76, 80
2, 60950, Note_off_c, 0, 76, 0
2, 60960, Note_on_c, 0, 69, 80
2, 60960, Note_on_c, 0, 66, 80
2, 60960, Note_on_c, 0, 74, 80
2, 60998, Note_off_c, 0, 74, 0
2, 61008, Note_on_c, 0, 72, 80
2, 61036, Note_off_c, 0, 66, 0
2, 61036, Note_off_c, 0, 69, 0
2, 61046, Note_off_c, 0, 72, 0
2, 61056, Note_on_c, 0, 71, 80
2, 61056, Note_on_c, 0, 55, 80
2, 61094, Note_off_c, 0, 55, 0
2, 61104, Note_on_c, 0, 67, 80
2, 61132, Note_off_c, 0, 71, 0
2, 61142, Note_off_c, 0, 67, 0
2, 61152, Note_on_c, 0, 66, 80
2, 61190, Note_off_c, 0, 66, 0
2, 61200, Note_on_c, 0, 67, 80
2, 61238, Note_off_c, 0, 67, 0
2, 61248, Note_on_c, 0, 65, 80
2, 61248, Note_on_c, 0, 71, 80
2, 61286, Note_off_c, 0, 65, 0
2, 61296, Note_on_c, 0, 67, 80
2, 61324, Note_off_c, 0, 71, 0
2, 61334, Note_off_c, 0, 67, 0
2, 61344, Note_on_c, 0, 64, 80
2, 61344, Note_on_c, 0, 72, 80
2, 61382, Note_off_c, 0, 64, 0
2, 61392, Note_on_c, 0, 67, 80
2, 61420, Note_off_c, 0, 72, 0
2, 61430, Note_off_c, 0, 67, 0
2, 61440, Note_on_c, 0, 74, 80
2, 61440, Note_on_c, 0, 62, 80
2, 61478, Note_off_c, 0, 62, 0
2, 61488, Note_on_c, 0, 67, 80
2, 61516, Note_off_c, 0, 74, 0
2, 61526, Note_off_c, 0, 67, 0
2, 61536, Note_on_c, 0, 76, 80
2, 61536, Note_on_c, 0, 60, 80
2, 61574, Note_off_c, 0, 60, 0
2, 61584, Note_on_c, 0, 67, 80
2, 61612, Note_off_c, 0, 76, 0
2, 61622, Note_off_c, 0, 67, 0
2, 61632, Note_on_c, 0, 59, 80
2, 61632, Note_on_c, 0, 74, 80
2, 61632, Note_on_c, 0, 77, 80
2, 61670, Note_off_c, 0, 59, 0
2, 61680, Note_on_c, 0, 67, 80
2, 61708, Note_off_c, 0, 74, 0
2, 61708, Note_off_c, 0, 77, 0
2, 61718, Note_off_c, 0, 67, 0
2, 61728, Note_on_c, 0, 60, 80
2, 61728, Note_on_c, 0, 72, 80
2, 61728, Note_on_c, 0, 76, 80
2, 61766, Note_off_c, 0, 60, 0
2, 61776, Note_on_c, 0, 67, 80
2, 61804, Note_off_c, 0, 72, 0
2, 61804, Note_off_c, 0, 76, 0
2, 61814, Note_off_c, 0, 67, 0
2, 61824, Note_on_c, 0, 55, 80
2, 61824, Note_on_c, 0, 74, 80
2, 61824, Note_on_c, 0, 71, 80
2, 61862, Note_off_c, 0, 55, 0
2, 61872, Note_on_c, 0, 55, 80
2, 61900, Note_off_c, 0, 74, 0
2, 61900, Note_off_c, 0, 71, 0
2, 61910, Note_off_c, 0, 55, 0
2, 61920, Note_on_c, 0, 54, 80
2, 61958, Note_off_c, 0, 54, 0
2, 61968, Note_on_c, 0, 55, 80
2, 62006, Note_off_c, 0, 55, 0
2, 62016, Note_on_c, 0, 53, 80
2, 62016, Note_on_c, 0, 59, 80
2, 62054, Note_off_c, 0, 53, 0
2, 62064, Note_on_c, 0, 55, 80
2, 62092, Note_off_c, 0, 59, 0
2, 62102, Note_off_c, 0, 55, 0
2, 62112, Note_on_c, 0, 52, 80
2, 62112, Note_on_c, 0, 60, 80
2, 62131, Note_off_c, 0, 60, 0
2, 62136, Note_on_c, 0, 62, 80
2, 62150, Note_off_c, 0, 52, 0
2, 62155, Note_off_c, 0, 62, 0
2, 62160, Note_on_c, 0, 55, 80
2, 62160, Note_on_c, 0, 60, 80
2, 62179, Note_off_c, 0, 60, 0
2, 62184, Note_on_c, 0, 62, 80
2, 62198, Note_off_c, 0, 55, 0
2, 62203, Note_off_c, 0, 62, 0
2, 62208, Note_on_c, 0, 62, 80
2, 62208, Note_on_c, 0, 50, 80
2, 62246, Note_off_c, 0, 50, 0
2, 62256, Note_on_c, 0, 55, 80
2, 62284, Note_off_c, 0, 62, 0
2, 62294, Note_off_c, 0, 55, 0
2, 62304, Note_on_c, 0, 48, 80
2, 62304, Note_on_c, 0, 64, 80
2, 62327, Note_off_c, 0, 64, 0
2, 62328, Note_on_c, 0, 65, 80
2, 62342, Note_off_c, 0, 48, 0
2, 62351, Note_off_c, 0, 65, 0
2, 62352, Note_on_c, 0, 64, 80
2, 62352, Note_on_c, 0, 55, 80
2, 62375, Note_off_c, 0, 64, 0
2, 62376, Note_on_c, 0, 65, 80
2, 62390, Note_off_c, 0, 55, 0
2, 62399, Note_off_c, 0, 65, 0
2, 62400, Note_on_c, 0, 47, 80
2, 62400, Note_on_c, 0, 62, 80
2, 62400, Note_on_c, 0, 65, 80
2, 62438, Note_off_c, 0, 47, 0
2, 62448, Note_on_c, 0, 55, 80
2, 62476, Note_off_c, 0, 62, 0
2, 62476, Note_off_c, 0, 65, 0
2, 62486, Note_off_c, 0, 55, 0
2, 62496, Note_on_c, 0, 48, 80
2, 62496, Note_on_c, 0, 60, 80
2, 62496, Note_on_c, 0, 64, 80
2, 62534, Note_off_c, 0, 48, 0
2, 62544, Note_on_c, 0, 55, 80
2, 62572, Note_off_c, 0, 60, 0
2, 62572, Note_off_c, 0, 64, 0
2, 62582, Note_off_c, 0, 55, 0
2, 62592, Note_on_c, 0, 43, 80
2, 62592, Note_on_c, 0, 62, 80
2, 62592, Note_on_c, 0, 59, 80
2, 62745, Note_off_c, 0, 59, 0
2, 62745, Note_off_c, 0, 62, 0
2, 62745, Note_off_c, 0, 43, 0
2, 62880, Note_on_c, 0, 79, 80
2, 62956, Note_off_c, 0, 79, 0
2, 62976, Note_on_c, 0, 79, 80
2, 63052, Note_off_c, 0, 79, 0
2, 63072, Note_on_c, 0, 79, 80
2, 63148, Note_off_c, 0, 79, 0
2, 63168, Note_on_c, 0, 79, 80
2, 63244, Note_off_c, 0, 79, 0
2, 63264, Note_on_c, 0, 79, 80
2, 63340, Note_off_c, 0, 79, 0
2, 63360, Note_on_c, 0, 84, 80
2, 63456, Note_on_c, 0, 76, 80
2, 63456, Note_on_c, 0, 69, 80
2, 63532, Note_off_c, 0, 69, 0
2, 63532, Note_off_c, 0, 76, 0
2, 63552, Note_on_c, 0, 78, 80
2, 63590, Note_off_c, 0, 84, 0
2, 63628, Note_off_c, 0, 78, 0
2, 63648, Note_on_c, 0, 67, 80
2, 63648, Note_on_c, 0, 79, 80
2, 63648, Note_on_c, 0, 83, 80
2, 63724, Note_off_c, 0, 83, 0
2, 63724, Note_off_c, 0, 79, 0
2, 63724, Note_off_c, 0, 67, 0
2, 63744, Note_on_c, 0, 76, 80
2, 63820, Note_off_c, 0, 76, 0
2, 63840, Note_on_c, 0, 76, 80
2, 63916, Note_off_c, 0, 76, 0
2, 63936, Note_on_c, 0, 76, 80
2, 64012, Note_off_c, 0, 76, 0
2, 64032, Note_on_c, 0, 76, 80
2, 64108, Note_off_c, 0, 76, 0
2, 64128, Note_on_c, 0, 81, 80
2, 64224, Note_on_c, 0, 65, 80
2, 64224, Note_on_c, 0, 72, 80
2, 64300, Note_off_c, 0, 72, 0
2, 64300, Note_off_c, 0, 65, 0
2, 64320, Note_on_c, 0, 74, 80
2, 64358, Note_off_c, 0, 81, 0
2, 64396, Note_off_c, 0, 74, 0
2, 64416, Note_on_c, 0, 64, 80
2, 64416, Note_on_c, 0, 76, 80
2, 64416, Note_on_c, 0, 79, 80
2, 64492, Note_off_c, 0, 79, 0
2, 64492, Note_off_c, 0, 76, 0
2, 64492, Note_off_c, 0, 64, 0
2, 64512, Note_on_c, 0, 72, 80
2, 64588, Note_off_c, 0, 72, 0
2, 64608, Note_on_c, 0, 72, 80
2, 64684, Note_off_c, 0, 72, 0
2, 64704, Note_on_c, 0, 72, 80
2, 64780, Note_off_c, 0, 72, 0
2, 64800, Note_on_c, 0, 72, 80
2, 64876, Note_off_c, 0, 72, 0
2, 64896, Note_on_c, 0, 77, 80
2, 64992, Note_on_c, 0, 62, 80
2, 64992, Note_on_c, 0, 69, 80
2, 65049, Note_off_c, 0, 77, 0
2, 65068, Note_off_c, 0, 62, 0
2, 65068, Note_off_c, 0, 69, 0
2, 65088, Note_on_c, 0, 71, 80
2, 65164, Note_off_c, 0, 71, 0
2, 65184, Note_on_c, 0, 60, 80
2, 65184, Note_on_c, 0, 72, 80
2, 65184, Note_on_c, 0, 76, 80
2, 65260, Note_off_c, 0, 76, 0
2, 65260, Note_off_c, 0, 72, 0
2, 65260, Note_off_c, 0, 60, 0
2, 65280, Note_on_c, 0, 81, 80
2, 65376, Note_on_c, 0, 65, 80
2, 65433, Note_off_c, 0, 81, 0
2, 65452, Note_off_c, 0, 65, 0
2, 65472, Note_on_c, 0, 66, 80
2, 65568, Note_on_c, 0, 72, 80
2, 65625, Note_off_c, 0, 66, 0
2, 65644, Note_off_c, 0, 72, 0
2, 65664, Note_on_c, 0, 67, 80
2, 65664, Note_on_c, 0, 71, 80
2, 65740, Note_off_c, 0, 67, 0
2, 65760, Note_on_c, 0, 78, 80
2, 65817, Note_off_c, 0, 71, 0
2, 65836, Note_off_c, 0, 78, 0
2, 65856, Note_on_c, 0, 79, 80
2, 65952, Note_on_c, 0, 72, 80
2, 65952, Note_on_c, 0, 76, 80
2, 66009, Note_off_c, 0, 79, 0
2, 66028, Note_off_c, 0, 72, 0
2, 66028, Note_off_c, 0, 76, 0
2, 66048, Note_on_c, 0, 71, 80
2, 66048, Note_on_c, 0, 74, 80
2, 66144, Note_on_c, 0, 66, 80
2, 66201, Note_off_c, 0, 74, 0
2, 66201, Note_off_c, 0, 71, 0
2, 66220, Note_off_c, 0, 66, 0
2, 66240, Note_on_c, 0, 67, 80
2, 66336, Note_on_c, 0, 60, 80
2, 66336, Note_on_c, 0, 63, 80
2, 66393, Note_off_c, 0, 67, 0
2, 66412, Note_off_c, 0, 60, 0
2, 66412, Note_off_c, 0, 63, 0
2, 66432, Note_on_c, 0, 59, 80
2, 66432, Note_on_c, 0, 62, 80
2, 66528, Note_on_c, 0, 56, 80
2, 66528, Note_on_c, 0, 44, 80
2, 66585, Note_off_c, 0, 62, 0
2, 66585, Note_off_c, 0, 59, 0
2, 66604, Note_off_c, 0, 56, 0
2, 66604, Note_off_c, 0, 44, 0
2, 66624, Note_on_c, 0, 45, 80
2, 66624, Note_on_c, 0, 57, 80
2, 66700, Note_off_c, 0, 57, 0
2, 66700, Note_off_c, 0, 45, 0
2, 66720, Note_on_c, 0, 47, 80
2, 66720, Note_on_c, 0, 59, 80
2, 66796, Note_off_c, 0, 59, 0
2, 66796, Note_off_c, 0, 47, 0
2, 66816, Note_on_c, 0, 48, 80
2, 66816, Note_on_c, 0, 60, 80
2, 66892, Note_off_c, 0, 60, 0
2, 66892, Note_off_c, 0, 48, 0
2, 66912, Note_on_c, 0, 40, 80
2, 66912, Note_on_c, 0, 52, 80
2, 66988, Note_off_c, 0, 52, 0
2, 66988, Note_off_c, 0, 40, 0
2, 67008, Note_on_c, 0, 41, 80
2, 67008, Note_on_c, 0, 53, 80
2, 67084, Note_off_c, 0, 53, 0
2, 67084, Note_off_c, 0, 41, 0
2, 67104, Note_on_c, 0, 43, 80
2, 67104, Note_on_c, 0, 55, 80
2, 67180, Note_off_c, 0, 55, 0
2, 67180, Note_off_c, 0, 43, 0
2, 67200, Note_on_c, 0, 57, 80
2, 67200, Note_on_c, 0, 45, 80
2, 67276, Note_off_c, 0, 45, 0
2, 67276, Note_off_c, 0, 57, 0
2, 67296, Note_on_c, 0, 72, 80
2, 67296, Note_on_c, 0, 69, 80
2, 67334, Note_off_c, 0, 72, 0
2, 67344, Note_on_c, 0, 77, 80
2, 67372, Note_off_c, 0, 69, 0
2, 67382, Note_off_c, 0, 77, 0
2, 67392, Note_on_c, 0, 67, 80
2, 67392, Note_on_c, 0, 76, 80
2, 67430, Note_off_c, 0, 76, 0
2, 67440, Note_on_c, 0, 71, 80
2, 67468, Note_off_c, 0, 67, 0
2, 67478, Note_off_c, 0, 71, 0
2, 67488, Note_on_c, 0, 65, 80
2, 67488, Note_on_c, 0, 69, 80
2, 67526, Note_off_c, 0, 69, 0
2, 67536, Note_on_c, 0, 74, 80
2, 67564, Note_off_c, 0, 65, 0
2, 67574, Note_off_c, 0, 74, 0
2, 67584, Note_on_c, 0, 64, 80
2, 67584, Note_on_c, 0, 72, 80
2, 67622, Note_off_c, 0, 72, 0
2, 67632, Note_on_c, 0, 67, 80
2, 67660, Note_off_c, 0, 64, 0
2, 67670, Note_off_c, 0, 67, 0
2, 67680, Note_on_c, 0, 65, 80
2, 67680, Note_on_c, 0, 62, 80
2, 67718, Note_off_c, 0, 65, 0
2, 67728, Note_on_c, 0, 71, 80
2, 67756, Note_off_c, 0, 62, 0
2, 67766, Note_off_c, 0, 71, 0
2, 67776, Note_on_c, 0, 60, 80
2, 67776, Note_on_c, 0, 69, 80
2, 67814, Note_off_c, 0, 69, 0
2, 67824, Note_on_c, 0, 64, 80
2, 67852, Note_off_c, 0, 60, 0
2, 67862, Note_off_c, 0, 64, 0
2, 67872, Note_on_c, 0, 59, 80
2, 67872, Note_on_c, 0, 62, 80
2, 67910, Note_off_c, 0, 62, 0
2, 67920, Note_on_c, 0, 67, 80
2, 67948, Note_off_c, 0, 59, 0
2, 67958, Note_off_c, 0, 67, 0
2, 67968, Note_on_c, 0, 57, 80
2, 67968, Note_on_c, 0, 65, 80
2, 68006, Note_off_c, 0, 65, 0
2, 68016, Note_on_c, 0, 60, 80
2, 68044, Note_off_c, 0, 57, 0
2, 68054, Note_off_c, 0, 60, 0
2, 68064, Note_on_c, 0, 59, 80
2, 68064, Note_on_c, 0, 55, 80
2, 68102, Note_off_c, 0, 59, 0
2, 68112, Note_on_c, 0, 64, 80
2, 68140, Note_off_c, 0, 55, 0
2, 68150, Note_off_c, 0, 64, 0
2, 68160, Note_on_c, 0, 53, 80
2, 68160, Note_on_c, 0, 62, 80
2, 68198, Note_off_c, 0, 62, 0
2, 68208, Note_on_c, 0, 57, 80
2, 68236, Note_off_c, 0, 53, 0
2, 68246, Note_off_c, 0, 57, 0
2, 68256, Note_on_c, 0, 52, 80
2, 68256, Note_on_c, 0, 55, 80
2, 68294, Note_off_c, 0, 55, 0
2, 68304, Note_on_c, 0, 60, 80
2, 68332, Note_off_c, 0, 52, 0
2, 68342, Note_off_c, 0, 60, 0
2, 68352, Note_on_c, 0, 53, 80
2, 68448, Note_on_c, 0, 81, 80
2, 68448, Note_on_c, 0, 77, 80
2, 68505, Note_off_c, 0, 53, 0
2, 68524, Note_off_c, 0, 81, 0
2, 68524, Note_off_c, 0, 77, 0
2, 68544, Note_on_c, 0, 55, 80
2, 68544, Note_on_c, 0, 79, 80
2, 68544, Note_on_c, 0, 76, 80
2, 68620, Note_off_c, 0, 76, 0
2, 68620, Note_off_c, 0, 79, 0
2, 68640, Note_on_c, 0, 74, 80
2, 68640, Note_on_c, 0, 71, 80
2, 68697, Note_off_c, 0, 55, 0
2, 68716, Note_off_c, 0, 74, 0
2, 68716, Note_off_c, 0, 71, 0
2, 68736, Note_on_c, 0, 48, 80
2, 68736, Note_on_c, 0, 72, 80
2, 68774, Note_off_c, 0, 48, 0
2, 68784, Note_on_c, 0, 60, 80
2, 68822, Note_off_c, 0, 60, 0
2, 68832, Note_on_c, 0, 59, 80
2, 68870, Note_off_c, 0, 59, 0
2, 68880, Note_on_c, 0, 60, 80
2, 68889, Note_off_c, 0, 72, 0
2, 68916, Note_on_c, 0, 65, 80
2, 68918, Note_off_c, 0, 60, 0
2, 68928, Note_off_c, 0, 65, 0
2, 68928, Note_on_c, 0, 57, 80
2, 68928, Note_on_c, 0, 77, 80
2, 68966, Note_off_c, 0, 57, 0
2, 68976, Note_on_c, 0, 60, 80
2, 69004, Note_off_c, 0, 77, 0
2, 69014, Note_off_c, 0, 60, 0
2, 69024, Note_on_c, 0, 59, 80
2, 69062, Note_off_c, 0, 59, 0
2, 69072, Note_on_c, 0, 60, 80
2, 69110, Note_off_c, 0, 60, 0
2, 69120, Note_on_c, 0, 55, 80
2, 69120, Note_on_c, 0, 64, 80
2, 69120, Note_on_c, 0, 76, 80
2, 69132, Note_off_c, 0, 64, 0
2, 69158, Note_off_c, 0, 55, 0
2, 69168, Note_on_c, 0, 60, 80
2, 69196, Note_off_c, 0, 76, 0
2, 69206, Note_off_c, 0, 60, 0
2, 69216, Note_on_c, 0, 59, 80
2, 69254, Note_off_c, 0, 59, 0
2, 69264, Note_on_c, 0, 60, 80
2, 69302, Note_off_c, 0, 60, 0
2, 69312, Note_on_c, 0, 53, 80
2, 69312, Note_on_c, 0, 62, 80
2, 69312, Note_on_c, 0, 74, 80
2, 69324, Note_off_c, 0, 62, 0
2, 69350, Note_off_c, 0, 53, 0
2, 69360, Note_on_c, 0, 60, 80
2, 69388, Note_off_c, 0, 74, 0
2, 69398, Note_off_c, 0, 60, 0
2, 69408, Note_on_c, 0, 59, 80
2, 69446, Note_off_c, 0, 59, 0
2, 69456, Note_on_c, 0, 60, 80
2, 69494, Note_off_c, 0, 60, 0
2, 69504, Note_on_c, 0, 52, 80
2, 69504, Note_on_c, 0, 60, 80
2, 69504, Note_on_c, 0, 72, 80
2, 69516, Note_off_c, 0, 60, 0
2, 69542, Note_off_c, 0, 52, 0
2, 69552, Note_on_c, 0, 60, 80
2, 69580, Note_off_c, 0, 72, 0
2, 69590, Note_off_c, 0, 60, 0
2, 69600, Note_on_c, 0, 59, 80
2, 69636, Note_on_c, 0, 65, 80
2, 69638, Note_off_c, 0, 59, 0
2, 69648, Note_off_c, 0, 65, 0
2, 69648, Note_on_c, 0, 77, 80
2, 69648, Note_on_c, 0, 60, 80
2, 69686, Note_off_c, 0, 60, 0
2, 69696, Note_on_c, 0, 57, 80
2, 69724, Note_off_c, 0, 77, 0
2, 69734, Note_off_c, 0, 57, 0
2, 69744, Note_on_c, 0, 60, 80
2, 69744, Note_on_c, 0, 77, 80
2, 69782, Note_off_c, 0, 60, 0
2, 69792, Note_on_c, 0, 59, 80
2, 69820, Note_off_c, 0, 77, 0
2, 69830, Note_off_c, 0, 59, 0
2, 69840, Note_on_c, 0, 60, 80
2, 69878, Note_off_c, 0, 60, 0
2, 69888, Note_on_c, 0, 55, 80
2, 69888, Note_on_c, 0, 64, 80
2, 69888, Note_on_c, 0, 72, 80
2, 69900, Note_off_c, 0, 64, 0
2, 69926, Note_off_c, 0, 55, 0
2, 69936, Note_on_c, 0, 60, 80
2, 69964, Note_off_c, 0, 72, 0
2, 69974, Note_off_c, 0, 60, 0
2, 69984, Note_on_c, 0, 72, 80
2, 69984, Note_on_c, 0, 59, 80
2, 70022, Note_off_c, 0, 59, 0
2, 70032, Note_on_c, 0, 60, 80
2, 70060, Note_off_c, 0, 72, 0
2, 70068, Note_on_c, 0, 62, 80
2, 70070, Note_off_c, 0, 60, 0
2, 70080, Note_off_c, 0, 62, 0
2, 70080, Note_on_c, 0, 53, 80
2, 70080, Note_on_c, 0, 74, 80
2, 70118, Note_off_c, 0, 53, 0
2, 70128, Note_on_c, 0, 60, 80
2, 70156, Note_off_c, 0, 74, 0
2, 70166, Note_off_c, 0, 60, 0
2, 70176, Note_on_c, 0, 59, 80
2, 70176, Note_on_c, 0, 74, 80
2, 70214, Note_off_c, 0, 59, 0
2, 70224, Note_on_c, 0, 60, 80
2, 70252, Note_off_c, 0, 74, 0
2, 70262, Note_off_c, 0, 60, 0
2, 70272, Note_on_c, 0, 79, 80
2, 70272, Note_on_c, 0, 52, 80
2, 70272, Note_on_c, 0, 67, 80
2, 70284, Note_off_c, 0, 67, 0
2, 70310, Note_off_c, 0, 52, 0
2, 70320, Note_on_c, 0, 60, 80
2, 70348, Note_off_c, 0, 79, 0
2, 70358, Note_off_c, 0, 60, 0
2, 70368, Note_on_c, 0, 59, 80
2, 70404, Note_on_c, 0, 76, 80
2, 70406, Note_off_c, 0, 59, 0
2, 70416, Note_off_c, 0, 76, 0
2, 70416, Note_on_c, 0, 77, 80
2, 70416, Note_on_c, 0, 60, 80
2, 70454, Note_off_c, 0, 60, 0
2, 70464, Note_on_c, 0, 69, 80
2, 70492, Note_off_c, 0, 77, 0
2, 70502, Note_off_c, 0, 69, 0
2, 70512, Note_on_c, 0, 72, 80
2, 70512, Note_on_c, 0, 77, 80
2, 70550, Note_off_c, 0, 72, 0
2, 70560, Note_on_c, 0, 71, 80
2, 70588, Note_off_c, 0, 77, 0
2, 70598, Note_off_c, 0, 71, 0
2, 70608, Note_on_c, 0, 72, 80
2, 70646, Note_off_c, 0, 72, 0
2, 70656, Note_on_c, 0, 67, 80
2, 70656, Note_on_c, 0, 75, 80
2, 70656, Note_on_c, 0, 76, 80
2, 70668, Note_off_c, 0, 75, 0
2, 70694, Note_off_c, 0, 67, 0
2, 70704, Note_on_c, 0, 72, 80
2, 70732, Note_off_c, 0, 76, 0
2, 70742, Note_off_c, 0, 72, 0
2, 70752, Note_on_c, 0, 76, 80
2, 70752, Note_on_c, 0, 71, 80
2, 70790, Note_off_c, 0, 71, 0
2, 70800, Note_on_c, 0, 72, 80
2, 70828, Note_off_c, 0, 76, 0
2, 70836, Note_on_c, 0, 73, 80
2, 70838, Note_off_c, 0, 72, 0
2, 70848, Note_off_c, 0, 73, 0
2, 70848, Note_on_c, 0, 65, 80
2, 70848, Note_on_c, 0, 74, 80
2, 70886, Note_off_c, 0, 65, 0
2, 70896, Note_on_c, 0, 72, 80
2, 70924, Note_off_c, 0, 74, 0
2, 70934, Note_off_c, 0, 72, 0
2, 70944, Note_on_c, 0, 69, 80
2, 70944, Note_on_c, 0, 74, 80
2, 70982, Note_off_c, 0, 69, 0
2, 70992, Note_on_c, 0, 72, 80
2, 71020, Note_off_c, 0, 74, 0
2, 71030, Note_off_c, 0, 72, 0
2, 71040, Note_on_c, 0, 64, 80
2, 71040, Note_on_c, 0, 79, 80
2, 71040, Note_on_c, 0, 78, 80
2, 71052, Note_off_c, 0, 78, 0
2, 71078, Note_off_c, 0, 64, 0
2, 71088, Note_on_c, 0, 72, 80
2, 71116, Note_off_c, 0, 79, 0
2, 71126, Note_off_c, 0, 72, 0
2, 71136, Note_on_c, 0, 71, 80
2, 71174, Note_off_c, 0, 71, 0
2, 71184, Note_on_c, 0, 72, 80
2, 71222, Note_off_c, 0, 72, 0
2, 71232, Note_on_c, 0, 77, 80
2, 71232, Note_on_c, 0, 65, 80
2, 71232, Note_on_c, 0, 69, 80
2, 71232, Note_on_c, 0, 74, 80
2, 71270, Note_off_c, 0, 77, 0
2, 71280, Note_on_c, 0, 79, 80
2, 71318, Note_off_c, 0, 79, 0
2, 71328, Note_on_c, 0, 81, 80
2, 71366, Note_off_c, 0, 81, 0
2, 71376, Note_on_c, 0, 77, 80
2, 71385, Note_off_c, 0, 65, 0
2, 71385, Note_off_c, 0, 69, 0
2, 71385, Note_off_c, 0, 74, 0
2, 71414, Note_off_c, 0, 77, 0
2, 71424, Note_on_c, 0, 67, 80
2, 71424, Note_on_c, 0, 76, 80
2, 71424, Note_on_c, 0, 72, 80
2, 71462, Note_off_c, 0, 76, 0
2, 71472, Note_on_c, 0, 77, 80
2, 71510, Note_off_c, 0, 77, 0
2, 71520, Note_on_c, 0, 79, 80
2, 71558, Note_off_c, 0, 79, 0
2, 71568, Note_on_c, 0, 76, 80
2, 71577, Note_off_c, 0, 67, 0
2, 71577, Note_off_c, 0, 72, 0
2, 71606, Note_off_c, 0, 76, 0
2, 71616, Note_on_c, 0, 67, 80
2, 71616, Note_on_c, 0, 71, 80
2, 71616, Note_on_c, 0, 74, 80
2, 71654, Note_off_c, 0, 74, 0
2, 71664, Note_on_c, 0, 76, 80
2, 71702, Note_off_c, 0, 76, 0
2, 71712, Note_on_c, 0, 77, 80
2, 71750, Note_off_c, 0, 77, 0
2, 71760, Note_on_c, 0, 74, 80
2, 71769, Note_off_c, 0, 71, 0
2, 71769, Note_off_c, 0, 67, 0
2, 71798, Note_off_c, 0, 74, 0
2, 71808, Note_on_c, 0, 72, 80
2, 71904, Note_on_c, 0, 78, 80
2, 71961, Note_off_c, 0, 72, 0
2, 71980, Note_off_c, 0, 78, 0
2, 72000, Note_on_c, 0, 79, 80
2, 72096, Note_on_c, 0, 72, 80
2, 72096, Note_on_c, 0, 75, 80
2, 72153, Note_off_c, 0, 79, 0
2, 72172, Note_off_c, 0, 72, 0
2, 72172, Note_off_c, 0, 75, 0
2, 72192, Note_on_c, 0, 71, 80
2, 72192, Note_on_c, 0, 74, 80
2, 72288, Note_on_c, 0, 54, 80
2, 72364, Note_off_c, 0, 54, 0
2, 72372, Note_off_c, 0, 74, 0
2, 72372, Note_off_c, 0, 71, 0
2, 72384, Note_on_c, 0, 55, 80
2, 72480, Note_on_c, 0, 60, 80
2, 72480, Note_on_c, 0, 63, 80
2, 72537, Note_off_c, 0, 55, 0
2, 72556, Note_off_c, 0, 60, 0
2, 72556, Note_off_c, 0, 63, 0
2, 72576, Note_on_c, 0, 59, 80
2, 72576, Note_on_c, 0, 62, 80
2, 72672, Note_on_c, 0, 42, 80
2, 72729, Note_off_c, 0, 62, 0
2, 72729, Note_off_c, 0, 59, 0
2, 72748, Note_off_c, 0, 42, 0
2, 72768, Note_on_c, 0, 43, 80
2, 72921, Note_off_c, 0, 43, 0
2, 73248, Note_on_c, 0, 79, 80
2, 73324, Note_off_c, 0, 79, 0
2, 73344, Note_on_c, 0, 79, 80
2, 73420, Note_off_c, 0, 79, 0
2, 73440, Note_on_c, 0, 79, 80
2, 73516, Note_off_c, 0, 79, 0
2, 73536, Note_on_c, 0, 79, 80
2, 73612, Note_off_c, 0, 79, 0
2, 73632, Note_on_c, 0, 79, 80
2, 73708, Note_off_c, 0, 79, 0
2, 73728, Note_on_c, 0, 84, 80
2, 73804, Note_off_c, 0, 84, 0
2, 73824, Note_on_c, 0, 81, 80
2, 73900, Note_off_c, 0, 81, 0
2, 73920, Note_on_c, 0, 78, 80
2, 73996, Note_off_c, 0, 78, 0
2, 74016, Note_on_c, 0, 79, 80
2, 74016, Note_on_c, 0, 83, 80
2, 74092, Note_off_c, 0, 83, 0
2, 74092, Note_off_c, 0, 79, 0
2, 74112, Note_on_c, 0, 81, 80
2, 74188, Note_off_c, 0, 81, 0
2, 74208, Note_on_c, 0, 77, 80
2, 74284, Note_off_c, 0, 77, 0
2, 74304, Note_on_c, 0, 75, 80
2, 74380, Note_off_c, 0, 75, 0
2, 74400, Note_on_c, 0, 76, 80
2, 74400, Note_on_c, 0, 79, 80
2, 74476, Note_off_c, 0, 79, 0
2, 74476, Note_off_c, 0, 76, 0
2, 74496, Note_on_c, 0, 77, 80
2, 74572, Note_off_c, 0, 77, 0
2, 74592, Note_on_c, 0, 74, 80
2, 74668, Note_off_c, 0, 74, 0
2, 74688, Note_on_c, 0, 71, 80
2, 74764, Note_off_c, 0, 71, 0
2, 74784, Note_on_c, 0, 43, 80
2, 74784, Note_on_c, 0, 55, 80
2, 74784, Note_on_c, 0, 76, 80
2, 74784, Note_on_c, 0, 72, 80
2, 74860, Note_off_c, 0, 72, 0
2, 74860, Note_off_c, 0, 76, 0
2, 74860, Note_off_c, 0, 55, 0
2, 74860, Note_off_c, 0, 43, 0
2, 74880, Note_on_c, 0, 43, 80
2, 74880, Note_on_c, 0, 55, 80
2, 74956, Note_off_c, 0, 55, 0
2, 74956, Note_off_c, 0, 43, 0
2, 74976, Note_on_c, 0, 43, 80
2, 74976, Note_on_c, 0, 55, 80
2, 75052, Note_off_c, 0, 55, 0
2, 75052, Note_off_c, 0, 43, 0
2, 75072, Note_on_c, 0, 43, 80
2, 75072, Note_on_c, 0, 55, 80
2, 75148, Note_off_c, 0, 55, 0
2, 75148, Note_off_c, 0, 43, 0
2, 75168, Note_on_c, 0, 43, 80
2, 75168, Note_on_c, 0, 55, 80
2, 75244, Note_off_c, 0, 55, 0
2, 75244, Note_off_c, 0, 43, 0
2, 75264, Note_on_c, 0, 48, 80
2, 75264, Note_on_c, 0, 60, 80
2, 75360, Note_on_c, 0, 76, 80
2, 75360, Note_on_c, 0, 69, 80
2, 75436, Note_off_c, 0, 69, 0
2, 75436, Note_off_c, 0, 76, 0
2, 75456, Note_on_c, 0, 78, 80
2, 75494, Note_off_c, 0, 60, 0
2, 75494, Note_off_c, 0, 48, 0
2, 75532, Note_off_c, 0, 78, 0
2, 75552, Note_on_c, 0, 47, 80
2, 75552, Note_on_c, 0, 59, 80
2, 75552, Note_on_c, 0, 67, 80
2, 75552, Note_on_c, 0, 79, 80
2, 75628, Note_off_c, 0, 79, 0
2, 75628, Note_off_c, 0, 67, 0
2, 75628, Note_off_c, 0, 59, 0
2, 75628, Note_off_c, 0, 47, 0
2, 75648, Note_on_c, 0, 40, 80
2, 75648, Note_on_c, 0, 52, 80
2, 75724, Note_off_c, 0, 52, 0
2, 75724, Note_off_c, 0, 40, 0
2, 75744, Note_on_c, 0, 40, 80
2, 75744, Note_on_c, 0, 52, 80
2, 75820, Note_off_c, 0, 52, 0
2, 75820, Note_off_c, 0, 40, 0
2, 75840, Note_on_c, 0, 40, 80
2, 75840, Note_on_c, 0, 52, 80
2, 75916, Note_off_c, 0, 52, 0
2, 75916, Note_off_c, 0, 40, 0
2, 75936, Note_on_c, 0, 40, 80
2, 75936, Note_on_c, 0, 52, 80
2, 76012, Note_off_c, 0, 52, 0
2, 76012, Note_off_c, 0, 40, 0
2, 76032, Note_on_c, 0, 45, 80
2, 76032, Note_on_c, 0, 57, 80
2, 76128, Note_on_c, 0, 72, 80
2, 76128, Note_on_c, 0, 66, 80
2, 76204, Note_off_c, 0, 66, 0
2, 76204, Note_off_c, 0, 72, 0
2, 76224, Note_on_c, 0, 75, 80
2, 76262, Note_off_c, 0, 57, 0
2, 76262, Note_off_c, 0, 45, 0
2, 76300, Note_off_c, 0, 75, 0
2, 76320, Note_on_c, 0, 43, 80
2, 76320, Note_on_c, 0, 55, 80
2, 76320, Note_on_c, 0, 64, 80
2, 76320, Note_on_c, 0, 76, 80
2, 76396, Note_off_c, 0, 76, 0
2, 76396, Note_off_c, 0, 64, 0
2, 76396, Note_off_c, 0, 55, 0
2, 76396, Note_off_c, 0, 43, 0
2, 76416, Note_on_c, 0, 36, 80
2, 76416, Note_on_c, 0, 48, 80
2, 76492, Note_off_c, 0, 48, 0
2, 76492, Note_off_c, 0, 36, 0
2, 76512, Note_on_c, 0, 36, 80
2, 76512, Note_on_c, 0, 48, 80
2, 76588, Note_off_c, 0, 48, 0
2, 76588, Note_off_c, 0, 36, 0
2, 76608, Note_on_c, 0, 36, 80
2, 76608, Note_on_c, 0, 48, 80
2, 76684, Note_off_c, 0, 48, 0
2, 76684, Note_off_c, 0, 36, 0
2, 76704, Note_on_c, 0, 36, 80
2, 76704, Note_on_c, 0, 48, 80
2, 76780, Note_off_c, 0, 48, 0
2, 76780, Note_off_c, 0, 36, 0
2, 76800, Note_on_c, 0, 41, 80
2, 76800, Note_on_c, 0, 53, 80
2, 76896, Note_on_c, 0, 62, 80
2, 76896, Note_on_c, 0, 69, 80
2, 76972, Note_off_c, 0, 69, 0
2, 76972, Note_off_c, 0, 62, 0
2, 76992, Note_on_c, 0, 71, 80
2, 77030, Note_off_c, 0, 53, 0
2, 77030, Note_off_c, 0, 41, 0
2, 77068, Note_off_c, 0, 71, 0
2, 77088, Note_on_c, 0, 40, 80
2, 77088, Note_on_c, 0, 52, 80
2, 77088, Note_on_c, 0, 60, 80
2, 77088, Note_on_c, 0, 72, 80
2, 77164, Note_off_c, 0, 72, 0
2, 77164, Note_off_c, 0, 60, 0
2, 77164, Note_off_c, 0, 52, 0
2, 77164, Note_off_c, 0, 40, 0
2, 77184, Note_on_c, 0, 53, 80
2, 77184, Note_on_c, 0, 41, 80
2, 77280, Note_on_c, 0, 77, 80
2, 77280, Note_on_c, 0, 81, 80
2, 77337, Note_off_c, 0, 41, 0
2, 77337, Note_off_c, 0, 53, 0
2, 77356, Note_off_c, 0, 77, 0
2, 77356, Note_off_c, 0, 81, 0
2, 77376, Note_on_c, 0, 43, 80
2, 77376, Note_on_c, 0, 55, 80
2, 77376, Note_on_c, 0, 76, 80
2, 77376, Note_on_c, 0, 79, 80
2, 77452, Note_off_c, 0, 79, 0
2, 77452, Note_off_c, 0, 76, 0
2, 77472, Note_on_c, 0, 71, 80
2, 77472, Note_on_c, 0, 74, 80
2, 77529, Note_off_c, 0, 55, 0
2, 77529, Note_off_c, 0, 43, 0
2, 77548, Note_off_c, 0, 71, 0
2, 77548, Note_off_c, 0, 74, 0
2, 77568, Note_on_c, 0, 48, 80
2, 77568, Note_on_c, 0, 72, 80
2, 77606, Note_off_c, 0, 72, 0
2, 77616, Note_on_c, 0, 84, 80
2, 77654, Note_off_c, 0, 84, 0
2, 77664, Note_on_c, 0, 88, 80
2, 77702, Note_off_c, 0, 88, 0
2, 77712, Note_on_c, 0, 86, 80
2, 77721, Note_off_c, 0, 48, 0
2, 77750, Note_off_c, 0, 86, 0
2, 77760, Note_on_c, 0, 84, 80
2, 77798, Note_off_c, 0, 84, 0
2, 77808, Note_on_c, 0, 83, 80
2, 77846, Note_off_c, 0, 83, 0
2, 77856, Note_on_c, 0, 81, 80
2, 77894, Note_off_c, 0, 81, 0
2, 77904, Note_on_c, 0, 79, 80
2, 77942, Note_off_c, 0, 79, 0
2, 77952, Note_on_c, 0, 72, 80
2, 77952, Note_on_c, 0, 78, 80
2, 77952, Note_on_c, 0, 69, 80
2, 78105, Note_off_c, 0, 69, 0
2, 78105, Note_off_c, 0, 78, 0
2, 78105, Note_off_c, 0, 72, 0
2, 78144, Note_on_c, 0, 71, 80
2, 78144, Note_on_c, 0, 74, 80
2, 78144, Note_on_c, 0, 77, 80
2, 78220, Note_off_c, 0, 77, 0
2, 78220, Note_off_c, 0, 74, 0
2, 78220, Note_off_c, 0, 71, 0
2, 78240, Note_on_c, 0, 72, 80
2, 78240, Note_on_c, 0, 76, 80
2, 78316, Note_off_c, 0, 76, 0
2, 78316, Note_off_c, 0, 72, 0
2, 78336, Note_on_c, 0, 65, 80
2, 78336, Note_on_c, 0, 74, 80
2, 78336, Note_on_c, 0, 69, 80
2, 78412, Note_off_c, 0, 69, 0
2, 78412, Note_off_c, 0, 74, 0
2, 78412, Note_off_c, 0, 65, 0
2, 78528, Note_on_c, 0, 53, 80
2, 78528, Note_on_c, 0, 69, 80
2, 78566, Note_off_c, 0, 69, 0
2, 78566, Note_off_c, 0, 53, 0
2, 78576, Note_on_c, 0, 62, 80
2, 78576, Note_on_c, 0, 77, 80
2, 78614, Note_off_c, 0, 77, 0
2, 78614, Note_off_c, 0, 62, 0
2, 78624, Note_on_c, 0, 61, 80
2, 78624, Note_on_c, 0, 76, 80
2, 78662, Note_off_c, 0, 76, 0
2, 78662, Note_off_c, 0, 61, 0
2, 78672, Note_on_c, 0, 62, 80
2, 78672, Note_on_c, 0, 77, 80
2, 78710, Note_off_c, 0, 77, 0
2, 78710, Note_off_c, 0, 62, 0
2, 78720, Note_on_c, 0, 67, 80
2, 78720, Note_on_c, 0, 55, 80
2, 78758, Note_off_c, 0, 55, 0
2, 78758, Note_off_c, 0, 67, 0
2, 78768, Note_on_c, 0, 76, 80
2, 78768, Note_on_c, 0, 60, 80
2, 78806, Note_off_c, 0, 60, 0
2, 78806, Note_off_c, 0, 76, 0
2, 78816, Note_on_c, 0, 59, 80
2, 78816, Note_on_c, 0, 74, 80
2, 78854, Note_off_c, 0, 74, 0
2, 78854, Note_off_c, 0, 59, 0
2, 78864, Note_on_c, 0, 76, 80
2, 78864, Note_on_c, 0, 60, 80
2, 78902, Note_off_c, 0, 60, 0
2, 78902, Note_off_c, 0, 76, 0
2, 78912, Note_on_c, 0, 55, 80
2, 78912, Note_on_c, 0, 67, 80
2, 78950, Note_off_c, 0, 67, 0
2, 78950, Note_off_c, 0, 55, 0
2, 78960, Note_on_c, 0, 59, 80
2, 78960, Note_on_c, 0, 74, 80
2, 78998, Note_off_c, 0, 74, 0
2, 78998, Note_off_c, 0, 59, 0
2, 79008, Note_on_c, 0, 57, 80
2, 79008, Note_on_c, 0, 72, 80
2, 79046, Note_off_c, 0, 72, 0
2, 79046, Note_off_c, 0, 57, 0
2, 79056, Note_on_c, 0, 59, 80
2, 79056, Note_on_c, 0, 74, 80
2, 79094, Note_off_c, 0, 74, 0
2, 79094, Note_off_c, 0, 59, 0
2, 79104, Note_on_c, 0, 60, 80
2, 79104, Note_on_c, 0, 48, 80
2, 79104, Note_on_c, 0, 72, 80
2, 79142, Note_off_c, 0, 72, 0
2, 79152, Note_on_c, 0, 72, 80
2, 79190, Note_off_c, 0, 72, 0
2, 79200, Note_on_c, 0, 76, 80
2, 79238, Note_off_c, 0, 76, 0
2, 79248, Note_on_c, 0, 74, 80
2, 79257, Note_off_c, 0, 48, 0
2, 79257, Note_off_c, 0, 60, 0
2, 79286, Note_off_c, 0, 74, 0
2, 79296, Note_on_c, 0, 72, 80
2, 79334, Note_off_c, 0, 72, 0
2, 79344, Note_on_c, 0, 71, 80
2, 79382, Note_off_c, 0, 71, 0
2, 79392, Note_on_c, 0, 69, 80
2, 79430, Note_off_c, 0, 69, 0
2, 79440, Note_on_c, 0, 67, 80
2, 79478, Note_off_c, 0, 67, 0
2, 79488, Note_on_c, 0, 57, 80
2, 79488, Note_on_c, 0, 66, 80
2, 79488, Note_on_c, 0, 60, 80
2, 79641, Note_off_c, 0, 60, 0
2, 79641, Note_off_c, 0, 66, 0
2, 79641, Note_off_c, 0, 57, 0
2, 79680, Note_on_c, 0, 62, 80
2, 79680, Note_on_c, 0, 59, 80
2, 79680, Note_on_c, 0, 65, 80
2, 79756, Note_off_c, 0, 65, 0
2, 79756, Note_off_c, 0, 59, 0
2, 79756, Note_off_c, 0, 62, 0
2, 79776, Note_on_c, 0, 60, 80
2, 79776, Note_on_c, 0, 64, 80
2, 79852, Note_off_c, 0, 64, 0
2, 79852, Note_off_c, 0, 60, 0
2, 79872, Note_on_c, 0, 53, 80
2, 79872, Note_on_c, 0, 62, 80
2, 79872, Note_on_c, 0, 57, 80
2, 79948, Note_off_c, 0, 57, 0
2, 79948, Note_off_c, 0, 62, 0
2, 79948, Note_off_c, 0, 53, 0
2, 80064, Note_on_c, 0, 41, 80
2, 80064, Note_on_c, 0, 57, 80
2, 80102, Note_off_c, 0, 57, 0
2, 80102, Note_off_c, 0, 41, 0
2, 80112, Note_on_c, 0, 50, 80
2, 80112, Note_on_c, 0, 65, 80
2, 80150, Note_off_c, 0, 65, 0
2, 80150, Note_off_c, 0, 50, 0
2, 80160, Note_on_c, 0, 49, 80
2, 80160, Note_on_c, 0, 64, 80
2, 80198, Note_off_c, 0, 64, 0
2, 80198, Note_off_c, 0, 49, 0
2, 80208, Note_on_c, 0, 50, 80
2, 80208, Note_on_c, 0, 65, 80
2, 80246, Note_off_c, 0, 65, 0
2, 80246, Note_off_c, 0, 50, 0
2, 80256, Note_on_c, 0, 55, 80
2, 80256, Note_on_c, 0, 43, 80
2, 80294, Note_off_c, 0, 43, 0
2, 80294, Note_off_c, 0, 55, 0
2, 80304, Note_on_c, 0, 64, 80
2, 80304, Note_on_c, 0, 48, 80
2, 80342, Note_off_c, 0, 48, 0
2, 80342, Note_off_c, 0, 64, 0
2, 80352, Note_on_c, 0, 47, 80
2, 80352, Note_on_c, 0, 62, 80
2, 80390, Note_off_c, 0, 62, 0
2, 80390, Note_off_c, 0, 47, 0
2, 80400, Note_on_c, 0, 64, 80
2, 80400, Note_on_c, 0, 48, 80
2, 80438, Note_off_c, 0, 48, 0
2, 80438, Note_off_c, 0, 64, 0
2, 80448, Note_on_c, 0, 43, 80
2, 80448, Note_on_c, 0, 55, 80
2, 80486, Note_off_c, 0, 55, 0
2, 80486, Note_off_c, 0, 43, 0
2, 80496, Note_on_c, 0, 47, 80
2, 80496, Note_on_c, 0, 62, 80
2, 80534, Note_off_c, 0, 62, 0
2, 80534, Note_off_c, 0, 47, 0
2, 80544, Note_on_c, 0, 45, 80
2, 80544, Note_on_c, 0, 60, 80
2, 80582, Note_off_c, 0, 60, 0
2, 80582, Note_off_c, 0, 45, 0
2, 80592, Note_on_c, 0, 47, 80
2, 80592, Note_on_c, 0, 62, 80
2, 80630, Note_off_c, 0, 62, 0
2, 80630, Note_off_c, 0, 47, 0
2, 80640, Note_on_c, 0, 60, 80
2, 80640, Note_on_c, 0, 48, 80
2, 80678, Note_off_c, 0, 60, 0
2, 80688, Note_on_c, 0, 55, 80
2, 80726, Note_off_c, 0, 55, 0
2, 80736, Note_on_c, 0, 60, 80
2, 80774, Note_off_c, 0, 60, 0
2, 80784, Note_on_c, 0, 64, 80
2, 80793, Note_off_c, 0, 48, 0
2, 80822, Note_off_c, 0, 64, 0
2, 80832, Note_on_c, 0, 43, 80
2, 80832, Note_on_c, 0, 50, 80
2, 80832, Note_on_c, 0, 67, 80
2, 80870, Note_off_c, 0, 67, 0
2, 80880, Note_on_c, 0, 65, 80
2, 80918, Note_off_c, 0, 65, 0
2, 80928, Note_on_c, 0, 62, 80
2, 80966, Note_off_c, 0, 62, 0
2, 80976, Note_on_c, 0, 59, 80
2, 80985, Note_off_c, 0, 50, 0
2, 80985, Note_off_c, 0, 43, 0
2, 81014, Note_off_c, 0, 59, 0
2, 81024, Note_on_c, 0, 52, 80
2, 81024, Note_on_c, 0, 60, 80
2, 81024, Note_on_c, 0, 48, 80
2, 81062, Note_off_c, 0, 60, 0
2, 81072, Note_on_c, 0, 67, 80
2, 81110, Note_off_c, 0, 67, 0
2, 81120, Note_on_c, 0, 72, 80
2, 81158, Note_off_c, 0, 72, 0
2, 81168, Note_on_c, 0, 76, 80
2, 81177, Note_off_c, 0, 52, 0
2, 81177, Note_off_c, 0, 48, 0
2, 81206, Note_off_c, 0, 76, 0
2, 81216, Note_on_c, 0, 62, 80
2, 81216, Note_on_c, 0, 55, 80
2, 81216, Note_on_c, 0, 79, 80
2, 81254, Note_off_c, 0, 79, 0
2, 81264, Note_on_c, 0, 77, 80
2, 81302, Note_off_c, 0, 77, 0
2, 81312, Note_on_c, 0, 74, 80
2, 81350, Note_off_c, 0, 74, 0
2, 81360, Note_on_c, 0, 71, 80
2, 81369, Note_off_c, 0, 55, 0
2, 81369, Note_off_c, 0, 62, 0
2, 81398, Note_off_c, 0, 71, 0
2, 81408, Note_on_c, 0, 64, 80
2, 81408, Note_on_c, 0, 60, 80
2, 81408, Note_on_c, 0, 72, 80
2, 81561, Note_off_c, 0, 72, 0
2, 81561, Note_off_c, 0, 60, 0
2, 81561, Note_off_c, 0, 64, 0
2, 81600, Note_on_c, 0, 43, 80
2, 81600, Note_on_c, 0, 55, 80
2, 81600, Note_on_c, 0, 74, 80
2, 81600, Note_on_c, 0, 77, 80
2, 81600, Note_on_c, 0, 83, 80
2, 81753, Note_off_c, 0, 83, 0
2, 81753, Note_off_c, 0, 77, 0
2, 81753, Note_off_c, 0, 74, 0
2, 81753, Note_off_c, 0, 55, 0
2, 81753, Note_off_c, 0, 43, 0
2, 81792, Note_on_c, 0, 36, 80
2, 81792, Note_on_c, 0, 48, 80
2, 81792, Note_on_c, 0, 72, 80
2, 81792, Note_on_c, 0, 76, 80
2, 81792, Note_on_c, 0, 79, 80
2, 81792, Note_on_c, 0, 84, 80
2, 81945, Note_off_c, 0, 84, 0
2, 81945, Note_off_c, 0, 79, 0
2, 81945, Note_off_c, 0, 76, 0
2, 81945, Note_off_c, 0, 72, 0
2, 81945, Note_off_c, 0, 48, 0
2, 81945, Note_off_c, 0, 36, 0
2, 81945, End_track
3, 0, Start_track
3, 0, Title_t, "Mozart Piano Sonata no.1"
3, 0, Channel_prefix, 1
3, 0, Control_c, 1, 7, 100
3, 0, Program_c, 1, 0
3, 0, End_track
4, 0, Start_track
4, 0, Title_t, "Movement 3"
4, 0, Channel_prefix, 2
4, 0, Control_c, 2, 7, 100
4, 0, Program_c, 2, 0
4, 0, End_track
5, 0, Start_track
5, 0, Title_t, "Sequenced by Dan Szymborski"
5, 0, Channel_prefix, 3
5, 0, Control_c, 3, 7, 100
5, 0, Program_c, 3, 0
5, 0, End_track
6, 0, Start_track
6, 0, Title_t, "Czerny@msn.com"
6, 0, Channel_prefix, 4
6, 0, Control_c, 4, 7, 100
6, 0, Program_c, 4, 0
6, 0, End_track
0, 0, End_of_file
