0, 0, Header, 1, 7, 192
1, 0, Start_track
1, 0, Tempo, 300000
1, 0, Time_signature, 4, 2, 96, 8
1, 0, Key_signature, 0, "major"
1, 768, Time_signature, 3, 2, 24, 8
1, 768, End_track
2, 0, Start_track
2, 0, Title_t, "Piano"
2, 0, Channel_prefix, 0
2, 0, Control_c, 0, 7, 100
2, 0, Program_c, 0, 0
2, 0, Control_c, 0, 0, 0
2, 0, Note_on_c, 0, 79, 60
2, 192, Note_on_c, 0, 60, 60
2, 192, Note_on_c, 0, 63, 60
2, 344, Note_off_c, 0, 79, 0
2, 384, Note_on_c, 0, 75, 60
2, 536, Note_off_c, 0, 75, 0
2, 576, Note_on_c, 0, 72, 60
2, 652, Note_off_c, 0, 60, 0
2, 652, Note_off_c, 0, 63, 0
2, 768, Note_on_c, 0, 62, 60
2, 768, Note_on_c, 0, 65, 60
2, 920, Note_off_c, 0, 72, 0
2, 960, Note_on_c, 0, 71, 60
2, 1112, Note_off_c, 0, 71, 0
2, 1152, Note_on_c, 0, 80, 60
2, 1228, Note_off_c, 0, 62, 0
2, 1228, Note_off_c, 0, 65, 0
2, 1344, Note_on_c, 0, 62, 60
2, 1496, Note_off_c, 0, 80, 0
2, 1536, Note_on_c, 0, 79, 60
2, 1688, Note_off_c, 0, 79, 0
2, 1728, Note_on_c, 0, 77, 60
2, 1804, Note_off_c, 0, 62, 0
2, 1920, Note_on_c, 0, 60, 60
2, 1920, Note_on_c, 0, 67, 60
2, 2072, Note_off_c, 0, 77, 0
2, 2112, Note_on_c, 0, 75, 60
2, 2264, Note_off_c, 0, 75, 0
2, 2304, Note_on_c, 0, 79, 60
2, 2380, Note_off_c, 0, 60, 0
2, 2380, Note_off_c, 0, 67, 0
2, 2496, Note_on_c, 0, 63, 60
2, 2496, Note_on_c, 0, 67, 60
2, 2648, Note_off_c, 0, 79, 0
2, 2688, Note_on_c, 0, 84, 60
2, 2802, Note_off_c, 0, 63, 0
2, 2802, Note_off_c, 0, 67, 0
2, 2840, Note_off_c, 0, 84, 0
2, 2880, Note_on_c, 0, 82, 60
2, 2880, Note_on_c, 0, 64, 60
2, 3032, Note_off_c, 0, 64, 0
2, 3072, Note_on_c, 0, 65, 60
2, 3072, Note_on_c, 0, 68, 60
2, 3224, Note_off_c, 0, 82, 0
2, 3264, Note_on_c, 0, 80, 60
2, 3378, Note_off_c, 0, 65, 0
2, 3378, Note_off_c, 0, 68, 0
2, 3416, Note_off_c, 0, 80, 0
2, 3456, Note_on_c, 0, 79, 60
2, 3456, Note_on_c, 0, 67, 60
2, 3456, Note_on_c, 0, 70, 60
2, 3608, Note_off_c, 0, 70, 0
2, 3608, Note_off_c, 0, 67, 0
2, 3648, Note_on_c, 0, 68, 60
2, 3648, Note_on_c, 0, 72, 60
2, 3800, Note_off_c, 0, 79, 0
2, 3840, Note_on_c, 0, 77, 60
2, 3954, Note_off_c, 0, 68, 0
2, 3954, Note_off_c, 0, 72, 0
2, 3992, Note_off_c, 0, 77, 0
2, 4032, Note_on_c, 0, 78, 60
2, 4032, Note_on_c, 0, 69, 60
2, 4184, Note_off_c, 0, 69, 0
2, 4224, Note_on_c, 0, 72, 60
2, 4224, Note_on_c, 0, 67, 60
2, 4376, Note_off_c, 0, 67, 0
2, 4376, Note_off_c, 0, 78, 0
2, 4376, Note_off_c, 0, 72, 0
2, 4416, Note_on_c, 0, 71, 60
2, 4416, Note_on_c, 0, 79, 60
2, 4568, Note_off_c, 0, 79, 0
2, 4568, Note_off_c, 0, 71, 0
2, 4608, Note_on_c, 0, 67, 60
2, 4952, Note_off_c, 0, 67, 0
2, 4992, Note_on_c, 0, 63, 60
2, 5144, Note_off_c, 0, 63, 0
2, 5184, Note_on_c, 0, 60, 60
2, 5528, Note_off_c, 0, 60, 0
2, 5760, Note_on_c, 0, 68, 60
2, 6104, Note_off_c, 0, 68, 0
2, 6144, Note_on_c, 0, 67, 60
2, 6296, Note_off_c, 0, 67, 0
2, 6336, Note_on_c, 0, 65, 60
2, 6680, Note_off_c, 0, 65, 0
2, 6720, Note_on_c, 0, 64, 60
2, 6872, Note_off_c, 0, 64, 0
2, 6912, Note_on_c, 0, 73, 60
2, 7256, Note_off_c, 0, 73, 0
2, 7296, Note_on_c, 0, 72, 60
2, 7448, Note_off_c, 0, 72, 0
2, 7488, Note_on_c, 0, 60, 60
2, 7488, Note_on_c, 0, 70, 60
2, 7640, Note_off_c, 0, 70, 0
2, 7680, Note_on_c, 0, 68, 60
2, 7832, Note_off_c, 0, 60, 0
2, 7832, Note_off_c, 0, 68, 0
2, 7872, Note_on_c, 0, 67, 60
2, 8024, Note_off_c, 0, 67, 0
2, 8064, Note_on_c, 0, 66, 60
2, 8216, Note_off_c, 0, 66, 0
2, 8256, Note_on_c, 0, 67, 60
2, 8256, Note_on_c, 0, 63, 60
2, 8408, Note_off_c, 0, 63, 0
2, 8408, Note_off_c, 0, 67, 0
2, 8448, Note_on_c, 0, 63, 60
2, 8448, Note_on_c, 0, 60, 60
2, 8600, Note_off_c, 0, 60, 0
2, 8600, Note_off_c, 0, 63, 0
2, 8640, Note_on_c, 0, 62, 60
2, 8792, Note_off_c, 0, 62, 0
2, 8832, Note_on_c, 0, 60, 60
2, 8984, Note_off_c, 0, 60, 0
2, 9204, Note_on_c, 0, 77, 100
2, 9216, Note_off_c, 0, 77, 0
2, 9216, Note_on_c, 0, 75, 100
2, 9292, Note_off_c, 0, 75, 0
2, 9312, Note_on_c, 0, 74, 100
2, 9350, Note_off_c, 0, 74, 0
2, 9360, Note_on_c, 0, 72, 100
2, 9398, Note_off_c, 0, 72, 0
2, 9408, Note_on_c, 0, 79, 100
2, 9408, Note_on_c, 0, 62, 100
2, 9484, Note_off_c, 0, 62, 0
2, 9560, Note_off_c, 0, 79, 0
2, 9600, Note_on_c, 0, 79, 100
2, 9600, Note_on_c, 0, 63, 100
2, 9600, Note_on_c, 0, 60, 100
2, 9600, Note_on_c, 0, 67, 100
2, 9676, Note_off_c, 0, 60, 0
2, 9676, Note_off_c, 0, 63, 0
2, 9752, Note_off_c, 0, 79, 0
2, 9752, Note_off_c, 0, 67, 0
2, 9792, Note_on_c, 0, 62, 100
2, 9792, Note_on_c, 0, 65, 100
2, 9792, Note_on_c, 0, 79, 100
2, 9792, Note_on_c, 0, 67, 100
2, 9868, Note_off_c, 0, 65, 0
2, 9868, Note_off_c, 0, 62, 0
2, 9944, Note_off_c, 0, 79, 0
2, 9944, Note_off_c, 0, 67, 0
2, 9984, Note_on_c, 0, 63, 100
2, 9984, Note_on_c, 0, 67, 100
2, 9984, Note_on_c, 0, 79, 100
2, 9984, Note_on_c, 0, 60, 100
2, 10060, Note_off_c, 0, 60, 0
2, 10060, Note_off_c, 0, 63, 0
2, 10176, Note_on_c, 0, 63, 100
2, 10176, Note_on_c, 0, 60, 100
2, 10252, Note_off_c, 0, 60, 0
2, 10252, Note_off_c, 0, 63, 0
2, 10290, Note_off_c, 0, 67, 0
2, 10290, Note_off_c, 0, 79, 0
2, 10356, Note_on_c, 0, 77, 100
2, 10368, Note_off_c, 0, 77, 0
2, 10368, Note_on_c, 0, 75, 100
2, 10368, Note_on_c, 0, 60, 100
2, 10368, Note_on_c, 0, 63, 100
2, 10444, Note_off_c, 0, 63, 0
2, 10444, Note_off_c, 0, 60, 0
2, 10444, Note_off_c, 0, 75, 0
2, 10464, Note_on_c, 0, 74, 100
2, 10502, Note_off_c, 0, 74, 0
2, 10512, Note_on_c, 0, 72, 100
2, 10550, Note_off_c, 0, 72, 0
2, 10560, Note_on_c, 0, 79, 100
2, 10560, Note_on_c, 0, 62, 100
2, 10636, Note_off_c, 0, 62, 0
2, 10712, Note_off_c, 0, 79, 0
2, 10752, Note_on_c, 0, 79, 100
2, 10752, Note_on_c, 0, 60, 100
2, 10752, Note_on_c, 0, 63, 100
2, 10752, Note_on_c, 0, 67, 100
2, 10828, Note_off_c, 0, 63, 0
2, 10828, Note_off_c, 0, 60, 0
2, 10904, Note_off_c, 0, 79, 0
2, 10904, Note_off_c, 0, 67, 0
2, 10944, Note_on_c, 0, 62, 100
2, 10944, Note_on_c, 0, 65, 100
2, 10944, Note_on_c, 0, 79, 100
2, 10944, Note_on_c, 0, 67, 100
2, 11020, Note_off_c, 0, 65, 0
2, 11020, Note_off_c, 0, 62, 0
2, 11096, Note_off_c, 0, 79, 0
2, 11096, Note_off_c, 0, 67, 0
2, 11136, Note_on_c, 0, 63, 100
2, 11136, Note_on_c, 0, 67, 100
2, 11136, Note_on_c, 0, 79, 100
2, 11136, Note_on_c, 0, 60, 100
2, 11212, Note_off_c, 0, 60, 0
2, 11212, Note_off_c, 0, 63, 0
2, 11328, Note_on_c, 0, 63, 100
2, 11328, Note_on_c, 0, 60, 100
2, 11404, Note_off_c, 0, 60, 0
2, 11404, Note_off_c, 0, 63, 0
2, 11442, Note_off_c, 0, 67, 0
2, 11442, Note_off_c, 0, 79, 0
2, 11508, Note_on_c, 0, 77, 100
2, 11520, Note_off_c, 0, 77, 0
2, 11520, Note_on_c, 0, 75, 100
2, 11520, Note_on_c, 0, 60, 100
2, 11520, Note_on_c, 0, 63, 100
2, 11596, Note_off_c, 0, 63, 0
2, 11596, Note_off_c, 0, 60, 0
2, 11596, Note_off_c, 0, 75, 0
2, 11616, Note_on_c, 0, 74, 100
2, 11654, Note_off_c, 0, 74, 0
2, 11664, Note_on_c, 0, 72, 100
2, 11702, Note_off_c, 0, 72, 0
2, 11712, Note_on_c, 0, 80, 100
2, 11712, Note_on_c, 0, 74, 100
2, 11712, Note_on_c, 0, 71, 100
2, 11864, Note_off_c, 0, 71, 0
2, 11864, Note_off_c, 0, 74, 0
2, 11864, Note_off_c, 0, 80, 0
2, 12096, Note_on_c, 0, 65, 100
2, 12248, Note_off_c, 0, 65, 0
2, 12288, Note_on_c, 0, 72, 100
2, 12288, Note_on_c, 0, 75, 100
2, 12288, Note_on_c, 0, 79, 100
2, 12440, Note_off_c, 0, 79, 0
2, 12440, Note_off_c, 0, 75, 0
2, 12440, Note_off_c, 0, 72, 0
2, 12672, Note_on_c, 0, 63, 100
2, 12824, Note_off_c, 0, 63, 0
2, 12864, Note_on_c, 0, 62, 100
2, 13016, Note_off_c, 0, 62, 0
2, 13056, Note_on_c, 0, 83, 100
2, 13056, Note_on_c, 0, 77, 100
2, 13056, Note_on_c, 0, 74, 100
2, 13208, Note_off_c, 0, 74, 0
2, 13208, Note_off_c, 0, 77, 0
2, 13208, Note_off_c, 0, 83, 0
2, 13248, Note_on_c, 0, 86, 100
2, 13248, Note_on_c, 0, 83, 100
2, 13248, Note_on_c, 0, 77, 100
2, 13400, Note_off_c, 0, 77, 0
2, 13400, Note_off_c, 0, 83, 0
2, 13400, Note_off_c, 0, 86, 0
2, 13440, Note_on_c, 0, 79, 100
2, 13440, Note_on_c, 0, 86, 100
2, 13440, Note_on_c, 0, 89, 100
2, 13592, Note_off_c, 0, 89, 0
2, 13592, Note_off_c, 0, 86, 0
2, 13592, Note_off_c, 0, 79, 0
2, 14592, Note_on_c, 0, 75, 60
2, 15052, Note_off_c, 0, 75, 0
2, 15168, Note_on_c, 0, 66, 60
2, 15168, Note_on_c, 0, 60, 60
2, 15168, Note_on_c, 0, 63, 60
2, 15628, Note_off_c, 0, 63, 0
2, 15628, Note_off_c, 0, 60, 0
2, 15628, Note_off_c, 0, 66, 0
2, 15744, Note_on_c, 0, 67, 60
2, 15744, Note_on_c, 0, 62, 60
2, 15744, Note_on_c, 0, 65, 60
2, 15974, Note_off_c, 0, 67, 0
2, 16032, Note_on_c, 0, 68, 60
2, 16050, Note_off_c, 0, 62, 0
2, 16050, Note_off_c, 0, 65, 0
2, 16108, Note_off_c, 0, 68, 0
2, 16128, Note_on_c, 0, 67, 60
2, 16128, Note_on_c, 0, 60, 60
2, 16128, Note_on_c, 0, 63, 60
2, 16280, Note_off_c, 0, 63, 0
2, 16280, Note_off_c, 0, 60, 0
2, 16280, Note_off_c, 0, 67, 0
2, 16320, Note_on_c, 0, 63, 60
2, 16332, Note_off_c, 0, 63, 0
2, 16332, Note_on_c, 0, 67, 60
2, 16332, Note_on_c, 0, 62, 60
2, 16332, Note_on_c, 0, 65, 60
2, 16344, Note_off_c, 0, 67, 0
2, 16484, Note_off_c, 0, 62, 0
2, 16484, Note_off_c, 0, 65, 0
2, 16524, Note_on_c, 0, 63, 60
2, 16524, Note_on_c, 0, 60, 60
2, 16676, Note_off_c, 0, 60, 0
2, 16676, Note_off_c, 0, 63, 0
2, 16716, Note_on_c, 0, 62, 60
2, 16868, Note_off_c, 0, 62, 0
2, 16896, Note_on_c, 0, 60, 60
2, 17048, Note_off_c, 0, 60, 0
2, 17268, Note_on_c, 0, 77, 100
2, 17280, Note_off_c, 0, 77, 0
2, 17280, Note_on_c, 0, 75, 100
2, 17356, Note_off_c, 0, 75, 0
2, 17376, Note_on_c, 0, 74, 100
2, 17414, Note_off_c, 0, 74, 0
2, 17424, Note_on_c, 0, 72, 100
2, 17462, Note_off_c, 0, 72, 0
2, 17472, Note_on_c, 0, 79, 100
2, 17472, Note_on_c, 0, 62, 100
2, 17548, Note_off_c, 0, 62, 0
2, 17624, Note_off_c, 0, 79, 0
2, 17664, Note_on_c, 0, 79, 100
2, 17664, Note_on_c, 0, 63, 100
2, 17664, Note_on_c, 0, 60, 100
2, 17740, Note_off_c, 0, 60, 0
2, 17740, Note_off_c, 0, 63, 0
2, 17816, Note_off_c, 0, 79, 0
2, 17856, Note_on_c, 0, 62, 100
2, 17856, Note_on_c, 0, 65, 100
2, 17856, Note_on_c, 0, 79, 100
2, 17932, Note_off_c, 0, 65, 0
2, 17932, Note_off_c, 0, 62, 0
2, 18008, Note_off_c, 0, 79, 0
2, 18048, Note_on_c, 0, 63, 100
2, 18048, Note_on_c, 0, 79, 100
2, 18048, Note_on_c, 0, 60, 100
2, 18124, Note_off_c, 0, 60, 0
2, 18124, Note_off_c, 0, 63, 0
2, 18240, Note_on_c, 0, 63, 100
2, 18240, Note_on_c, 0, 60, 100
2, 18316, Note_off_c, 0, 60, 0
2, 18316, Note_off_c, 0, 63, 0
2, 18354, Note_off_c, 0, 79, 0
2, 18420, Note_on_c, 0, 77, 100
2, 18432, Note_off_c, 0, 77, 0
2, 18432, Note_on_c, 0, 75, 100
2, 18432, Note_on_c, 0, 60, 100
2, 18432, Note_on_c, 0, 63, 100
2, 18508, Note_off_c, 0, 63, 0
2, 18508, Note_off_c, 0, 60, 0
2, 18508, Note_off_c, 0, 75, 0
2, 18528, Note_on_c, 0, 74, 100
2, 18566, Note_off_c, 0, 74, 0
2, 18576, Note_on_c, 0, 72, 100
2, 18614, Note_off_c, 0, 72, 0
2, 18624, Note_on_c, 0, 79, 100
2, 18624, Note_on_c, 0, 62, 100
2, 18700, Note_off_c, 0, 62, 0
2, 18776, Note_off_c, 0, 79, 0
2, 18816, Note_on_c, 0, 79, 100
2, 18816, Note_on_c, 0, 63, 100
2, 18816, Note_on_c, 0, 60, 100
2, 18892, Note_off_c, 0, 60, 0
2, 18892, Note_off_c, 0, 63, 0
2, 18968, Note_off_c, 0, 79, 0
2, 19008, Note_on_c, 0, 62, 100
2, 19008, Note_on_c, 0, 65, 100
2, 19008, Note_on_c, 0, 79, 100
2, 19084, Note_off_c, 0, 65, 0
2, 19084, Note_off_c, 0, 62, 0
2, 19160, Note_off_c, 0, 79, 0
2, 19200, Note_on_c, 0, 63, 100
2, 19200, Note_on_c, 0, 79, 100
2, 19200, Note_on_c, 0, 60, 100
2, 19276, Note_off_c, 0, 60, 0
2, 19276, Note_off_c, 0, 63, 0
2, 19392, Note_on_c, 0, 63, 100
2, 19392, Note_on_c, 0, 60, 100
2, 19468, Note_off_c, 0, 60, 0
2, 19468, Note_off_c, 0, 63, 0
2, 19506, Note_off_c, 0, 79, 0
2, 19572, Note_on_c, 0, 77, 100
2, 19584, Note_off_c, 0, 77, 0
2, 19584, Note_on_c, 0, 75, 100
2, 19584, Note_on_c, 0, 60, 100
2, 19584, Note_on_c, 0, 63, 100
2, 19660, Note_off_c, 0, 63, 0
2, 19660, Note_off_c, 0, 60, 0
2, 19660, Note_off_c, 0, 75, 0
2, 19680, Note_on_c, 0, 74, 100
2, 19718, Note_off_c, 0, 74, 0
2, 19728, Note_on_c, 0, 72, 100
2, 19766, Note_off_c, 0, 72, 0
2, 19776, Note_on_c, 0, 80, 100
2, 19776, Note_on_c, 0, 74, 100
2, 19776, Note_on_c, 0, 71, 100
2, 19928, Note_off_c, 0, 71, 0
2, 19928, Note_off_c, 0, 74, 0
2, 19928, Note_off_c, 0, 80, 0
2, 20160, Note_on_c, 0, 65, 100
2, 20312, Note_off_c, 0, 65, 0
2, 20352, Note_on_c, 0, 79, 100
2, 20352, Note_on_c, 0, 75, 100
2, 20352, Note_on_c, 0, 72, 100
2, 20504, Note_off_c, 0, 72, 0
2, 20504, Note_off_c, 0, 75, 0
2, 20504, Note_off_c, 0, 79, 0
2, 20736, Note_on_c, 0, 63, 100
2, 20888, Note_off_c, 0, 63, 0
2, 20928, Note_on_c, 0, 62, 100
2, 21080, Note_off_c, 0, 62, 0
2, 21120, Note_on_c, 0, 83, 100
2, 21120, Note_on_c, 0, 77, 100
2, 21120, Note_on_c, 0, 74, 100
2, 21272, Note_off_c, 0, 74, 0
2, 21272, Note_off_c, 0, 77, 0
2, 21272, Note_off_c, 0, 83, 0
2, 21312, Note_on_c, 0, 86, 100
2, 21312, Note_on_c, 0, 83, 100
2, 21312, Note_on_c, 0, 77, 100
2, 21464, Note_off_c, 0, 77, 0
2, 21464, Note_off_c, 0, 83, 0
2, 21464, Note_off_c, 0, 86, 0
2, 21504, Note_on_c, 0, 89, 100
2, 21504, Note_on_c, 0, 86, 100
2, 21504, Note_on_c, 0, 79, 100
2, 21656, Note_off_c, 0, 79, 0
2, 21656, Note_off_c, 0, 86, 0
2, 21656, Note_off_c, 0, 89, 0
2, 22656, Note_on_c, 0, 75, 60
2, 23116, Note_off_c, 0, 75, 0
2, 23232, Note_on_c, 0, 66, 60
2, 23232, Note_on_c, 0, 60, 60
2, 23232, Note_on_c, 0, 63, 60
2, 23692, Note_off_c, 0, 63, 0
2, 23692, Note_off_c, 0, 60, 0
2, 23692, Note_off_c, 0, 66, 0
2, 23808, Note_on_c, 0, 67, 60
2, 23808, Note_on_c, 0, 62, 60
2, 23808, Note_on_c, 0, 65, 60
2, 24038, Note_off_c, 0, 67, 0
2, 24096, Note_on_c, 0, 68, 60
2, 24114, Note_off_c, 0, 62, 0
2, 24114, Note_off_c, 0, 65, 0
2, 24172, Note_off_c, 0, 68, 0
2, 24192, Note_on_c, 0, 67, 60
2, 24192, Note_on_c, 0, 60, 60
2, 24192, Note_on_c, 0, 63, 60
2, 24344, Note_off_c, 0, 63, 0
2, 24344, Note_off_c, 0, 60, 0
2, 24344, Note_off_c, 0, 67, 0
2, 24384, Note_on_c, 0, 63, 60
2, 24396, Note_off_c, 0, 63, 0
2, 24396, Note_on_c, 0, 67, 60
2, 24396, Note_on_c, 0, 65, 60
2, 24396, Note_on_c, 0, 62, 60
2, 24408, Note_off_c, 0, 67, 0
2, 24548, Note_off_c, 0, 65, 0
2, 24548, Note_off_c, 0, 62, 0
2, 24588, Note_on_c, 0, 63, 60
2, 24588, Note_on_c, 0, 60, 60
2, 24740, Note_off_c, 0, 60, 0
2, 24740, Note_off_c, 0, 63, 0
2, 24780, Note_on_c, 0, 62, 60
2, 24932, Note_off_c, 0, 62, 0
2, 24960, Note_on_c, 0, 60, 60
2, 25112, Note_off_c, 0, 60, 0
2, 25536, Note_on_c, 0, 62, 100
2, 25996, Note_off_c, 0, 62, 0
2, 26880, Note_on_c, 0, 70, 60
2, 27032, Note_off_c, 0, 70, 0
2, 27072, Note_on_c, 0, 70, 60
2, 27224, Note_off_c, 0, 70, 0
2, 27264, Note_on_c, 0, 70, 60
2, 27494, Note_off_c, 0, 70, 0
2, 27552, Note_on_c, 0, 72, 60
2, 27628, Note_off_c, 0, 72, 0
2, 27648, Note_on_c, 0, 70, 60
2, 27800, Note_off_c, 0, 70, 0
2, 27840, Note_on_c, 0, 80, 60
2, 28146, Note_off_c, 0, 80, 0
2, 28224, Note_on_c, 0, 74, 60
2, 28376, Note_off_c, 0, 74, 0
2, 28416, Note_on_c, 0, 77, 60
2, 28722, Note_off_c, 0, 77, 0
2, 28800, Note_on_c, 0, 75, 60
2, 28952, Note_off_c, 0, 75, 0
2, 29184, Note_on_c, 0, 70, 60
2, 29336, Note_off_c, 0, 70, 0
2, 29376, Note_on_c, 0, 70, 60
2, 29528, Note_off_c, 0, 70, 0
2, 29568, Note_on_c, 0, 69, 60
2, 29644, Note_off_c, 0, 69, 0
2, 29664, Note_on_c, 0, 70, 60
2, 29740, Note_off_c, 0, 70, 0
2, 29760, Note_on_c, 0, 72, 67
2, 29836, Note_off_c, 0, 72, 0
2, 29856, Note_on_c, 0, 73, 67
2, 29932, Note_off_c, 0, 73, 0
2, 29952, Note_on_c, 0, 74, 74
2, 30028, Note_off_c, 0, 74, 0
2, 30048, Note_on_c, 0, 75, 74
2, 30124, Note_off_c, 0, 75, 0
2, 30144, Note_on_c, 0, 76, 80
2, 30220, Note_off_c, 0, 76, 0
2, 30240, Note_on_c, 0, 77, 80
2, 30316, Note_off_c, 0, 77, 0
2, 30336, Note_on_c, 0, 78, 87
2, 30412, Note_off_c, 0, 78, 0
2, 30432, Note_on_c, 0, 79, 87
2, 30508, Note_off_c, 0, 79, 0
2, 30528, Note_on_c, 0, 80, 94
2, 30604, Note_off_c, 0, 80, 0
2, 30624, Note_on_c, 0, 74, 94
2, 30700, Note_off_c, 0, 74, 0
2, 30720, Note_on_c, 0, 77, 60
2, 31080, Note_off_c, 0, 77, 0
2, 31104, Note_on_c, 0, 75, 60
2, 31256, Note_off_c, 0, 75, 0
2, 31488, Note_on_c, 0, 75, 60
2, 31640, Note_off_c, 0, 75, 0
2, 31680, Note_on_c, 0, 75, 60
2, 31832, Note_off_c, 0, 75, 0
2, 31872, Note_on_c, 0, 75, 100
2, 32102, Note_off_c, 0, 75, 0
2, 32160, Note_on_c, 0, 77, 100
2, 32184, Note_off_c, 0, 77, 0
2, 32192, Note_on_c, 0, 75, 100
2, 32216, Note_off_c, 0, 75, 0
2, 32224, Note_on_c, 0, 74, 100
2, 32248, Note_off_c, 0, 74, 0
2, 32256, Note_on_c, 0, 75, 100
2, 32332, Note_off_c, 0, 75, 0
2, 32352, Note_on_c, 0, 77, 100
2, 32428, Note_off_c, 0, 77, 0
2, 32448, Note_on_c, 0, 78, 100
2, 32808, Note_off_c, 0, 78, 0
2, 32832, Note_on_c, 0, 69, 100
2, 32984, Note_off_c, 0, 69, 0
2, 33024, Note_on_c, 0, 70, 100
2, 33176, Note_off_c, 0, 70, 0
2, 33312, Note_on_c, 0, 70, 60
2, 33388, Note_off_c, 0, 70, 0
2, 33408, Note_on_c, 0, 69, 60
2, 33484, Note_off_c, 0, 69, 0
2, 33504, Note_on_c, 0, 70, 60
2, 33580, Note_off_c, 0, 70, 0
2, 33600, Note_on_c, 0, 71, 60
2, 33676, Note_off_c, 0, 71, 0
2, 33696, Note_on_c, 0, 72, 60
2, 33772, Note_off_c, 0, 72, 0
2, 33792, Note_on_c, 0, 73, 60
2, 33868, Note_off_c, 0, 73, 0
2, 33888, Note_on_c, 0, 74, 60
2, 33964, Note_off_c, 0, 74, 0
2, 33984, Note_on_c, 0, 75, 60
2, 33984, Note_on_c, 0, 63, 60
2, 34060, Note_off_c, 0, 75, 0
2, 34080, Note_on_c, 0, 69, 60
2, 34136, Note_off_c, 0, 63, 0
2, 34156, Note_off_c, 0, 69, 0
2, 34176, Note_on_c, 0, 70, 60
2, 34176, Note_on_c, 0, 62, 60
2, 34328, Note_off_c, 0, 62, 0
2, 34328, Note_off_c, 0, 70, 0
2, 34848, Note_on_c, 0, 60, 60
2, 34924, Note_off_c, 0, 60, 0
2, 34944, Note_on_c, 0, 61, 60
2, 35020, Note_off_c, 0, 61, 0
2, 35040, Note_on_c, 0, 62, 60
2, 35116, Note_off_c, 0, 62, 0
2, 35136, Note_on_c, 0, 63, 60
2, 35212, Note_off_c, 0, 63, 0
2, 35616, Note_on_c, 0, 81, 60
2, 35692, Note_off_c, 0, 81, 0
2, 35712, Note_on_c, 0, 82, 60
2, 35788, Note_off_c, 0, 82, 0
2, 35808, Note_on_c, 0, 81, 60
2, 35884, Note_off_c, 0, 81, 0
2, 35904, Note_on_c, 0, 82, 60
2, 36056, Note_off_c, 0, 82, 0
2, 36192, Note_on_c, 0, 69, 60
2, 36268, Note_off_c, 0, 69, 0
2, 36288, Note_on_c, 0, 70, 60
2, 36364, Note_off_c, 0, 70, 0
2, 36384, Note_on_c, 0, 69, 60
2, 36460, Note_off_c, 0, 69, 0
2, 36480, Note_on_c, 0, 70, 60
2, 36632, Note_off_c, 0, 70, 0
2, 39360, Note_on_c, 0, 87, 100
2, 39360, Note_on_c, 0, 75, 100
2, 39820, Note_off_c, 0, 75, 0
2, 39820, Note_off_c, 0, 87, 0
2, 39936, Note_on_c, 0, 87, 100
2, 39936, Note_on_c, 0, 75, 100
2, 40088, Note_off_c, 0, 75, 0
2, 40088, Note_off_c, 0, 87, 0
2, 40128, Note_on_c, 0, 83, 100
2, 40128, Note_on_c, 0, 71, 100
2, 40280, Note_off_c, 0, 71, 0
2, 40280, Note_off_c, 0, 83, 0
2, 40320, Note_on_c, 0, 84, 100
2, 40320, Note_on_c, 0, 72, 100
2, 40472, Note_off_c, 0, 72, 0
2, 40472, Note_off_c, 0, 84, 0
2, 40512, Note_on_c, 0, 60, 100
2, 40512, Note_on_c, 0, 76, 100
2, 40512, Note_on_c, 0, 64, 100
2, 40664, Note_off_c, 0, 64, 0
2, 40664, Note_off_c, 0, 76, 0
2, 40704, Note_on_c, 0, 77, 100
2, 40704, Note_on_c, 0, 65, 100
2, 40856, Note_off_c, 0, 65, 0
2, 40856, Note_off_c, 0, 77, 0
2, 40896, Note_on_c, 0, 80, 100
2, 40896, Note_on_c, 0, 68, 100
2, 40972, Note_off_c, 0, 60, 0
2, 41048, Note_off_c, 0, 80, 0
2, 41048, Note_off_c, 0, 68, 0
2, 41088, Note_on_c, 0, 75, 60
2, 41472, Note_on_c, 0, 66, 60
2, 41624, Note_off_c, 0, 66, 0
2, 41664, Note_on_c, 0, 67, 60
2, 41970, Note_off_c, 0, 75, 0
2, 41970, Note_off_c, 0, 67, 0
2, 42048, Note_on_c, 0, 72, 60
2, 42048, Note_on_c, 0, 79, 60
2, 42048, Note_on_c, 0, 68, 60
2, 42124, Note_off_c, 0, 79, 0
2, 42124, Note_off_c, 0, 72, 0
2, 42144, Note_on_c, 0, 77, 60
2, 42200, Note_off_c, 0, 68, 0
2, 42220, Note_off_c, 0, 77, 0
2, 42240, Note_on_c, 0, 75, 100
2, 42392, Note_off_c, 0, 75, 0
2, 42528, Note_on_c, 0, 75, 60
2, 42604, Note_off_c, 0, 75, 0
2, 42624, Note_on_c, 0, 74, 60
2, 42700, Note_off_c, 0, 74, 0
2, 42720, Note_on_c, 0, 75, 60
2, 42796, Note_off_c, 0, 75, 0
2, 42816, Note_on_c, 0, 76, 100
2, 42892, Note_off_c, 0, 76, 0
2, 42912, Note_on_c, 0, 77, 100
2, 42988, Note_off_c, 0, 77, 0
2, 43104, Note_on_c, 0, 77, 60
2, 43180, Note_off_c, 0, 77, 0
2, 43200, Note_on_c, 0, 76, 60
2, 43276, Note_off_c, 0, 76, 0
2, 43296, Note_on_c, 0, 77, 60
2, 43372, Note_off_c, 0, 77, 0
2, 43392, Note_on_c, 0, 78, 100
2, 43468, Note_off_c, 0, 78, 0
2, 43488, Note_on_c, 0, 79, 100
2, 43564, Note_off_c, 0, 79, 0
2, 43680, Note_on_c, 0, 79, 60
2, 43756, Note_off_c, 0, 79, 0
2, 43776, Note_on_c, 0, 78, 60
2, 43852, Note_off_c, 0, 78, 0
2, 43872, Note_on_c, 0, 79, 60
2, 43948, Note_off_c, 0, 79, 0
2, 43968, Note_on_c, 0, 79, 100
2, 44044, Note_off_c, 0, 79, 0
2, 44064, Note_on_c, 0, 80, 100
2, 44140, Note_off_c, 0, 80, 0
2, 44256, Note_on_c, 0, 80, 60
2, 44332, Note_off_c, 0, 80, 0
2, 44352, Note_on_c, 0, 79, 60
2, 44428, Note_off_c, 0, 79, 0
2, 44448, Note_on_c, 0, 80, 60
2, 44524, Note_off_c, 0, 80, 0
2, 44544, Note_on_c, 0, 82, 60
2, 44620, Note_off_c, 0, 82, 0
2, 44640, Note_on_c, 0, 79, 60
2, 44716, Note_off_c, 0, 79, 0
2, 44736, Note_on_c, 0, 87, 60
2, 44812, Note_off_c, 0, 87, 0
2, 44832, Note_on_c, 0, 87, 60
2, 44908, Note_off_c, 0, 87, 0
2, 44928, Note_on_c, 0, 87, 60
2, 45004, Note_off_c, 0, 87, 0
2, 45024, Note_on_c, 0, 87, 60
2, 45100, Note_off_c, 0, 87, 0
2, 45120, Note_on_c, 0, 65, 60
2, 45216, Note_on_c, 0, 77, 60
2, 45272, Note_off_c, 0, 65, 0
2, 45292, Note_off_c, 0, 77, 0
2, 45312, Note_on_c, 0, 84, 60
2, 45388, Note_off_c, 0, 84, 0
2, 45408, Note_on_c, 0, 84, 60
2, 45484, Note_off_c, 0, 84, 0
2, 45504, Note_on_c, 0, 84, 60
2, 45580, Note_off_c, 0, 84, 0
2, 45600, Note_on_c, 0, 84, 60
2, 45676, Note_off_c, 0, 84, 0
2, 45696, Note_on_c, 0, 67, 60
2, 45792, Note_on_c, 0, 75, 60
2, 45848, Note_off_c, 0, 67, 0
2, 45868, Note_off_c, 0, 75, 0
2, 45888, Note_on_c, 0, 82, 60
2, 45964, Note_off_c, 0, 82, 0
2, 45984, Note_on_c, 0, 82, 60
2, 46060, Note_off_c, 0, 82, 0
2, 46080, Note_on_c, 0, 82, 60
2, 46156, Note_off_c, 0, 82, 0
2, 46176, Note_on_c, 0, 82, 60
2, 46252, Note_off_c, 0, 82, 0
2, 46272, Note_on_c, 0, 65, 60
2, 46368, Note_on_c, 0, 68, 60
2, 46424, Note_off_c, 0, 65, 0
2, 46444, Note_off_c, 0, 68, 0
2, 46464, Note_on_c, 0, 74, 60
2, 46540, Note_off_c, 0, 74, 0
2, 46560, Note_on_c, 0, 74, 60
2, 46636, Note_off_c, 0, 74, 0
2, 46656, Note_on_c, 0, 74, 60
2, 46732, Note_off_c, 0, 74, 0
2, 46752, Note_on_c, 0, 74, 60
2, 46828, Note_off_c, 0, 74, 0
2, 46848, Note_on_c, 0, 75, 100
2, 46848, Note_on_c, 0, 67, 100
2, 46848, Note_on_c, 0, 70, 100
2, 47000, Note_off_c, 0, 70, 0
2, 47000, Note_off_c, 0, 67, 0
2, 47000, Note_off_c, 0, 75, 0
2, 47136, Note_on_c, 0, 63, 60
2, 47212, Note_off_c, 0, 63, 0
2, 47232, Note_on_c, 0, 62, 60
2, 47308, Note_off_c, 0, 62, 0
2, 47328, Note_on_c, 0, 63, 60
2, 47404, Note_off_c, 0, 63, 0
2, 47424, Note_on_c, 0, 64, 100
2, 47500, Note_off_c, 0, 64, 0
2, 47520, Note_on_c, 0, 65, 100
2, 47596, Note_off_c, 0, 65, 0
2, 47712, Note_on_c, 0, 65, 60
2, 47788, Note_off_c, 0, 65, 0
2, 47808, Note_on_c, 0, 64, 60
2, 47884, Note_off_c, 0, 64, 0
2, 47904, Note_on_c, 0, 65, 60
2, 47980, Note_off_c, 0, 65, 0
2, 48000, Note_on_c, 0, 66, 100
2, 48076, Note_off_c, 0, 66, 0
2, 48096, Note_on_c, 0, 67, 100
2, 48172, Note_off_c, 0, 67, 0
2, 48288, Note_on_c, 0, 67, 60
2, 48364, Note_off_c, 0, 67, 0
2, 48384, Note_on_c, 0, 66, 60
2, 48460, Note_off_c, 0, 66, 0
2, 48480, Note_on_c, 0, 67, 60
2, 48556, Note_off_c, 0, 67, 0
2, 48576, Note_on_c, 0, 67, 60
2, 48652, Note_off_c, 0, 67, 0
2, 48672, Note_on_c, 0, 68, 60
2, 48748, Note_off_c, 0, 68, 0
2, 48864, Note_on_c, 0, 68, 60
2, 48940, Note_off_c, 0, 68, 0
2, 48960, Note_on_c, 0, 67, 60
2, 49036, Note_off_c, 0, 67, 0
2, 49056, Note_on_c, 0, 68, 60
2, 49132, Note_off_c, 0, 68, 0
2, 49152, Note_on_c, 0, 70, 60
2, 49228, Note_off_c, 0, 70, 0
2, 49248, Note_on_c, 0, 67, 60
2, 49324, Note_off_c, 0, 67, 0
2, 49344, Note_on_c, 0, 75, 60
2, 49420, Note_off_c, 0, 75, 0
2, 49440, Note_on_c, 0, 75, 60
2, 49516, Note_off_c, 0, 75, 0
2, 49536, Note_on_c, 0, 75, 60
2, 49612, Note_off_c, 0, 75, 0
2, 49632, Note_on_c, 0, 75, 60
2, 49708, Note_off_c, 0, 75, 0
2, 49824, Note_on_c, 0, 65, 60
2, 49900, Note_off_c, 0, 65, 0
2, 49920, Note_on_c, 0, 72, 60
2, 49996, Note_off_c, 0, 72, 0
2, 50016, Note_on_c, 0, 72, 60
2, 50092, Note_off_c, 0, 72, 0
2, 50112, Note_on_c, 0, 72, 60
2, 50188, Note_off_c, 0, 72, 0
2, 50208, Note_on_c, 0, 72, 60
2, 50284, Note_off_c, 0, 72, 0
2, 50400, Note_on_c, 0, 63, 60
2, 50476, Note_off_c, 0, 63, 0
2, 50496, Note_on_c, 0, 70, 60
2, 50572, Note_off_c, 0, 70, 0
2, 50592, Note_on_c, 0, 70, 60
2, 50668, Note_off_c, 0, 70, 0
2, 50688, Note_on_c, 0, 70, 60
2, 50764, Note_off_c, 0, 70, 0
2, 50784, Note_on_c, 0, 70, 60
2, 50860, Note_off_c, 0, 70, 0
2, 51072, Note_on_c, 0, 62, 60
2, 51148, Note_off_c, 0, 62, 0
2, 51168, Note_on_c, 0, 62, 60
2, 51244, Note_off_c, 0, 62, 0
2, 51264, Note_on_c, 0, 62, 60
2, 51340, Note_off_c, 0, 62, 0
2, 51360, Note_on_c, 0, 62, 60
2, 51436, Note_off_c, 0, 62, 0
2, 51456, Note_on_c, 0, 63, 60
2, 51532, Note_off_c, 0, 63, 0
2, 53376, Note_on_c, 0, 60, 60
2, 53528, Note_off_c, 0, 60, 0
2, 53568, Note_on_c, 0, 62, 60
2, 53720, Note_off_c, 0, 62, 0
2, 53760, Note_on_c, 0, 63, 60
2, 53912, Note_off_c, 0, 63, 0
2, 54336, Note_on_c, 0, 70, 60
2, 54488, Note_off_c, 0, 70, 0
2, 54528, Note_on_c, 0, 72, 60
2, 54680, Note_off_c, 0, 72, 0
2, 54720, Note_on_c, 0, 74, 60
2, 54872, Note_off_c, 0, 74, 0
2, 54912, Note_on_c, 0, 75, 60
2, 55064, Note_off_c, 0, 75, 0
2, 56448, Note_on_c, 0, 60, 60
2, 56524, Note_off_c, 0, 60, 0
2, 56640, Note_on_c, 0, 65, 60
2, 56716, Note_off_c, 0, 65, 0
2, 56736, Note_on_c, 0, 60, 60
2, 56812, Note_off_c, 0, 60, 0
2, 56832, Note_on_c, 0, 69, 60
2, 56908, Note_off_c, 0, 69, 0
2, 56928, Note_on_c, 0, 65, 60
2, 57004, Note_off_c, 0, 65, 0
2, 57024, Note_on_c, 0, 72, 60
2, 57100, Note_off_c, 0, 72, 0
2, 57120, Note_on_c, 0, 69, 60
2, 57196, Note_off_c, 0, 69, 0
2, 57216, Note_on_c, 0, 68, 60
2, 57292, Note_off_c, 0, 68, 0
2, 57312, Note_on_c, 0, 65, 60
2, 57388, Note_off_c, 0, 65, 0
2, 57408, Note_on_c, 0, 71, 60
2, 57484, Note_off_c, 0, 71, 0
2, 57504, Note_on_c, 0, 68, 60
2, 57580, Note_off_c, 0, 68, 0
2, 57600, Note_on_c, 0, 74, 60
2, 57676, Note_off_c, 0, 74, 0
2, 57696, Note_on_c, 0, 71, 60
2, 57772, Note_off_c, 0, 71, 0
2, 57792, Note_on_c, 0, 77, 60
2, 57868, Note_off_c, 0, 77, 0
2, 57888, Note_on_c, 0, 74, 60
2, 57964, Note_off_c, 0, 74, 0
2, 57984, Note_on_c, 0, 80, 60
2, 58060, Note_off_c, 0, 80, 0
2, 58080, Note_on_c, 0, 77, 60
2, 58156, Note_off_c, 0, 77, 0
2, 58176, Note_on_c, 0, 86, 60
2, 58252, Note_off_c, 0, 86, 0
2, 58272, Note_on_c, 0, 80, 60
2, 58348, Note_off_c, 0, 80, 0
2, 58368, Note_on_c, 0, 89, 60
2, 58520, Note_off_c, 0, 89, 0
2, 59328, Note_on_c, 0, 79, 60
2, 59480, Note_off_c, 0, 79, 0
2, 59520, Note_on_c, 0, 60, 60
2, 59520, Note_on_c, 0, 63, 60
2, 59712, Note_on_c, 0, 75, 60
2, 59864, Note_off_c, 0, 75, 0
2, 59904, Note_on_c, 0, 72, 60
2, 59980, Note_off_c, 0, 63, 0
2, 59980, Note_off_c, 0, 60, 0
2, 60056, Note_off_c, 0, 72, 0
2, 60096, Note_on_c, 0, 62, 60
2, 60096, Note_on_c, 0, 65, 60
2, 60288, Note_on_c, 0, 71, 60
2, 60440, Note_off_c, 0, 71, 0
2, 60480, Note_on_c, 0, 80, 60
2, 60556, Note_off_c, 0, 65, 0
2, 60556, Note_off_c, 0, 62, 0
2, 60672, Note_on_c, 0, 62, 60
2, 60824, Note_off_c, 0, 80, 0
2, 60864, Note_on_c, 0, 79, 60
2, 61016, Note_off_c, 0, 79, 0
2, 61056, Note_on_c, 0, 77, 60
2, 61132, Note_off_c, 0, 62, 0
2, 61248, Note_on_c, 0, 60, 60
2, 61248, Note_on_c, 0, 67, 60
2, 61400, Note_off_c, 0, 77, 0
2, 61440, Note_on_c, 0, 75, 60
2, 61592, Note_off_c, 0, 75, 0
2, 61632, Note_on_c, 0, 79, 60
2, 61708, Note_off_c, 0, 60, 0
2, 61708, Note_off_c, 0, 67, 0
2, 61824, Note_on_c, 0, 67, 60
2, 61824, Note_on_c, 0, 63, 60
2, 61976, Note_off_c, 0, 79, 0
2, 62016, Note_on_c, 0, 84, 60
2, 62130, Note_off_c, 0, 67, 0
2, 62130, Note_off_c, 0, 63, 0
2, 62168, Note_off_c, 0, 84, 0
2, 62208, Note_on_c, 0, 82, 60
2, 62208, Note_on_c, 0, 64, 60
2, 62360, Note_off_c, 0, 64, 0
2, 62400, Note_on_c, 0, 68, 60
2, 62400, Note_on_c, 0, 65, 60
2, 62552, Note_off_c, 0, 82, 0
2, 62592, Note_on_c, 0, 80, 60
2, 62706, Note_off_c, 0, 68, 0
2, 62706, Note_off_c, 0, 65, 0
2, 62744, Note_off_c, 0, 80, 0
2, 62784, Note_on_c, 0, 79, 60
2, 62784, Note_on_c, 0, 67, 60
2, 62784, Note_on_c, 0, 70, 60
2, 62936, Note_off_c, 0, 70, 0
2, 62936, Note_off_c, 0, 67, 0
2, 62976, Note_on_c, 0, 72, 60
2, 62976, Note_on_c, 0, 68, 60
2, 63128, Note_off_c, 0, 79, 0
2, 63168, Note_on_c, 0, 77, 60
2, 63282, Note_off_c, 0, 72, 0
2, 63282, Note_off_c, 0, 68, 0
2, 63320, Note_off_c, 0, 77, 0
2, 63360, Note_on_c, 0, 78, 60
2, 63360, Note_on_c, 0, 69, 60
2, 63512, Note_off_c, 0, 69, 0
2, 63552, Note_on_c, 0, 67, 60
2, 63552, Note_on_c, 0, 72, 60
2, 63704, Note_off_c, 0, 72, 0
2, 63704, Note_off_c, 0, 78, 0
2, 63704, Note_off_c, 0, 67, 0
2, 63744, Note_on_c, 0, 79, 60
2, 63744, Note_on_c, 0, 71, 60
2, 63896, Note_off_c, 0, 71, 0
2, 63896, Note_off_c, 0, 79, 0
2, 63936, Note_on_c, 0, 67, 60
2, 64280, Note_off_c, 0, 67, 0
2, 64320, Note_on_c, 0, 63, 60
2, 64472, Note_off_c, 0, 63, 0
2, 64512, Note_on_c, 0, 60, 60
2, 64856, Note_off_c, 0, 60, 0
2, 65088, Note_on_c, 0, 68, 60
2, 65432, Note_off_c, 0, 68, 0
2, 65472, Note_on_c, 0, 67, 60
2, 65624, Note_off_c, 0, 67, 0
2, 65664, Note_on_c, 0, 65, 60
2, 66008, Note_off_c, 0, 65, 0
2, 66048, Note_on_c, 0, 64, 60
2, 66200, Note_off_c, 0, 64, 0
2, 66240, Note_on_c, 0, 73, 60
2, 66584, Note_off_c, 0, 73, 0
2, 66624, Note_on_c, 0, 72, 60
2, 66776, Note_off_c, 0, 72, 0
2, 66816, Note_on_c, 0, 60, 60
2, 66816, Note_on_c, 0, 70, 60
2, 66968, Note_off_c, 0, 70, 0
2, 67008, Note_on_c, 0, 68, 60
2, 67160, Note_off_c, 0, 60, 0
2, 67160, Note_off_c, 0, 68, 0
2, 67200, Note_on_c, 0, 67, 60
2, 67352, Note_off_c, 0, 67, 0
2, 67392, Note_on_c, 0, 66, 60
2, 67544, Note_off_c, 0, 66, 0
2, 67584, Note_on_c, 0, 67, 60
2, 67584, Note_on_c, 0, 63, 60
2, 67736, Note_off_c, 0, 63, 0
2, 67736, Note_off_c, 0, 67, 0
2, 67776, Note_on_c, 0, 63, 60
2, 67776, Note_on_c, 0, 60, 60
2, 67928, Note_off_c, 0, 60, 0
2, 67928, Note_off_c, 0, 63, 0
2, 67968, Note_on_c, 0, 62, 60
2, 68120, Note_off_c, 0, 62, 0
2, 68160, Note_on_c, 0, 60, 60
2, 68312, Note_off_c, 0, 60, 0
2, 68532, Note_on_c, 0, 77, 100
2, 68544, Note_off_c, 0, 77, 0
2, 68544, Note_on_c, 0, 75, 100
2, 68620, Note_off_c, 0, 75, 0
2, 68640, Note_on_c, 0, 74, 100
2, 68678, Note_off_c, 0, 74, 0
2, 68688, Note_on_c, 0, 72, 100
2, 68726, Note_off_c, 0, 72, 0
2, 68736, Note_on_c, 0, 79, 100
2, 68736, Note_on_c, 0, 62, 100
2, 68812, Note_off_c, 0, 62, 0
2, 68888, Note_off_c, 0, 79, 0
2, 68928, Note_on_c, 0, 67, 100
2, 68928, Note_on_c, 0, 63, 100
2, 68928, Note_on_c, 0, 60, 100
2, 68928, Note_on_c, 0, 79, 100
2, 69004, Note_off_c, 0, 60, 0
2, 69004, Note_off_c, 0, 63, 0
2, 69080, Note_off_c, 0, 67, 0
2, 69080, Note_off_c, 0, 79, 0
2, 69120, Note_on_c, 0, 62, 100
2, 69120, Note_on_c, 0, 65, 100
2, 69120, Note_on_c, 0, 79, 100
2, 69120, Note_on_c, 0, 67, 100
2, 69196, Note_off_c, 0, 65, 0
2, 69196, Note_off_c, 0, 62, 0
2, 69272, Note_off_c, 0, 79, 0
2, 69272, Note_off_c, 0, 67, 0
2, 69312, Note_on_c, 0, 60, 100
2, 69312, Note_on_c, 0, 67, 100
2, 69312, Note_on_c, 0, 79, 100
2, 69312, Note_on_c, 0, 63, 100
2, 69388, Note_off_c, 0, 63, 0
2, 69388, Note_off_c, 0, 60, 0
2, 69504, Note_on_c, 0, 63, 100
2, 69504, Note_on_c, 0, 60, 100
2, 69580, Note_off_c, 0, 60, 0
2, 69580, Note_off_c, 0, 63, 0
2, 69618, Note_off_c, 0, 67, 0
2, 69618, Note_off_c, 0, 79, 0
2, 69684, Note_on_c, 0, 77, 100
2, 69696, Note_off_c, 0, 77, 0
2, 69696, Note_on_c, 0, 75, 100
2, 69696, Note_on_c, 0, 60, 100
2, 69696, Note_on_c, 0, 63, 100
2, 69772, Note_off_c, 0, 63, 0
2, 69772, Note_off_c, 0, 60, 0
2, 69772, Note_off_c, 0, 75, 0
2, 69792, Note_on_c, 0, 74, 100
2, 69830, Note_off_c, 0, 74, 0
2, 69840, Note_on_c, 0, 72, 100
2, 69878, Note_off_c, 0, 72, 0
2, 69888, Note_on_c, 0, 79, 100
2, 69888, Note_on_c, 0, 62, 100
2, 69964, Note_off_c, 0, 62, 0
2, 70040, Note_off_c, 0, 79, 0
2, 70080, Note_on_c, 0, 67, 100
2, 70080, Note_on_c, 0, 60, 100
2, 70080, Note_on_c, 0, 63, 100
2, 70080, Note_on_c, 0, 79, 100
2, 70156, Note_off_c, 0, 63, 0
2, 70156, Note_off_c, 0, 60, 0
2, 70232, Note_off_c, 0, 67, 0
2, 70232, Note_off_c, 0, 79, 0
2, 70272, Note_on_c, 0, 62, 100
2, 70272, Note_on_c, 0, 65, 100
2, 70272, Note_on_c, 0, 79, 100
2, 70272, Note_on_c, 0, 67, 100
2, 70348, Note_off_c, 0, 65, 0
2, 70348, Note_off_c, 0, 62, 0
2, 70424, Note_off_c, 0, 79, 0
2, 70424, Note_off_c, 0, 67, 0
2, 70464, Note_on_c, 0, 60, 100
2, 70464, Note_on_c, 0, 67, 100
2, 70464, Note_on_c, 0, 79, 100
2, 70464, Note_on_c, 0, 63, 100
2, 70540, Note_off_c, 0, 63, 0
2, 70540, Note_off_c, 0, 60, 0
2, 70656, Note_on_c, 0, 63, 100
2, 70656, Note_on_c, 0, 60, 100
2, 70732, Note_off_c, 0, 60, 0
2, 70732, Note_off_c, 0, 63, 0
2, 70770, Note_off_c, 0, 67, 0
2, 70770, Note_off_c, 0, 79, 0
2, 70836, Note_on_c, 0, 77, 100
2, 70848, Note_off_c, 0, 77, 0
2, 70848, Note_on_c, 0, 75, 100
2, 70848, Note_on_c, 0, 60, 100
2, 70848, Note_on_c, 0, 63, 100
2, 70924, Note_off_c, 0, 63, 0
2, 70924, Note_off_c, 0, 60, 0
2, 70924, Note_off_c, 0, 75, 0
2, 70944, Note_on_c, 0, 74, 100
2, 70982, Note_off_c, 0, 74, 0
2, 70992, Note_on_c, 0, 72, 100
2, 71030, Note_off_c, 0, 72, 0
2, 71040, Note_on_c, 0, 80, 100
2, 71040, Note_on_c, 0, 74, 100
2, 71040, Note_on_c, 0, 71, 100
2, 71192, Note_off_c, 0, 71, 0
2, 71192, Note_off_c, 0, 74, 0
2, 71192, Note_off_c, 0, 80, 0
2, 71424, Note_on_c, 0, 65, 100
2, 71576, Note_off_c, 0, 65, 0
2, 71616, Note_on_c, 0, 72, 100
2, 71616, Note_on_c, 0, 75, 100
2, 71616, Note_on_c, 0, 79, 100
2, 71768, Note_off_c, 0, 79, 0
2, 71768, Note_off_c, 0, 75, 0
2, 71768, Note_off_c, 0, 72, 0
2, 72000, Note_on_c, 0, 63, 100
2, 72152, Note_off_c, 0, 63, 0
2, 72192, Note_on_c, 0, 62, 100
2, 72344, Note_off_c, 0, 62, 0
2, 72384, Note_on_c, 0, 83, 100
2, 72384, Note_on_c, 0, 77, 100
2, 72384, Note_on_c, 0, 74, 100
2, 72536, Note_off_c, 0, 74, 0
2, 72536, Note_off_c, 0, 77, 0
2, 72536, Note_off_c, 0, 83, 0
2, 72576, Note_on_c, 0, 86, 100
2, 72576, Note_on_c, 0, 83, 100
2, 72576, Note_on_c, 0, 77, 100
2, 72728, Note_off_c, 0, 77, 0
2, 72728, Note_off_c, 0, 83, 0
2, 72728, Note_off_c, 0, 86, 0
2, 72768, Note_on_c, 0, 79, 100
2, 72768, Note_on_c, 0, 86, 100
2, 72768, Note_on_c, 0, 89, 100
2, 72920, Note_off_c, 0, 89, 0
2, 72920, Note_off_c, 0, 86, 0
2, 72920, Note_off_c, 0, 79, 0
2, 73920, Note_on_c, 0, 75, 60
2, 74380, Note_off_c, 0, 75, 0
2, 74496, Note_on_c, 0, 66, 60
2, 74496, Note_on_c, 0, 60, 60
2, 74496, Note_on_c, 0, 63, 60
2, 74956, Note_off_c, 0, 63, 0
2, 74956, Note_off_c, 0, 60, 0
2, 74956, Note_off_c, 0, 66, 0
2, 75072, Note_on_c, 0, 67, 60
2, 75072, Note_on_c, 0, 62, 60
2, 75072, Note_on_c, 0, 65, 60
2, 75302, Note_off_c, 0, 67, 0
2, 75360, Note_on_c, 0, 68, 60
2, 75378, Note_off_c, 0, 62, 0
2, 75378, Note_off_c, 0, 65, 0
2, 75436, Note_off_c, 0, 68, 0
2, 75456, Note_on_c, 0, 67, 73
2, 75456, Note_on_c, 0, 60, 70
2, 75456, Note_on_c, 0, 63, 77
2, 75608, Note_off_c, 0, 63, 0
2, 75608, Note_off_c, 0, 60, 0
2, 75608, Note_off_c, 0, 67, 0
2, 75660, Note_on_c, 0, 62, 80
2, 75660, Note_on_c, 0, 65, 80
2, 75812, Note_off_c, 0, 65, 0
2, 75812, Note_off_c, 0, 62, 0
2, 75852, Note_on_c, 0, 63, 80
2, 75852, Note_on_c, 0, 60, 80
2, 76004, Note_off_c, 0, 60, 0
2, 76004, Note_off_c, 0, 63, 0
2, 76044, Note_on_c, 0, 62, 80
2, 76196, Note_off_c, 0, 62, 0
2, 76224, Note_on_c, 0, 60, 80
2, 76376, Note_off_c, 0, 60, 0
2, 76596, Note_on_c, 0, 77, 100
2, 76608, Note_off_c, 0, 77, 0
2, 76608, Note_on_c, 0, 75, 100
2, 76684, Note_off_c, 0, 75, 0
2, 76704, Note_on_c, 0, 74, 100
2, 76742, Note_off_c, 0, 74, 0
2, 76752, Note_on_c, 0, 72, 100
2, 76790, Note_off_c, 0, 72, 0
2, 76800, Note_on_c, 0, 79, 100
2, 76800, Note_on_c, 0, 62, 100
2, 76876, Note_off_c, 0, 62, 0
2, 76952, Note_off_c, 0, 79, 0
2, 76992, Note_on_c, 0, 79, 100
2, 76992, Note_on_c, 0, 60, 100
2, 76992, Note_on_c, 0, 63, 100
2, 77068, Note_off_c, 0, 63, 0
2, 77068, Note_off_c, 0, 60, 0
2, 77144, Note_off_c, 0, 79, 0
2, 77184, Note_on_c, 0, 62, 100
2, 77184, Note_on_c, 0, 65, 100
2, 77184, Note_on_c, 0, 79, 100
2, 77260, Note_off_c, 0, 65, 0
2, 77260, Note_off_c, 0, 62, 0
2, 77336, Note_off_c, 0, 79, 0
2, 77376, Note_on_c, 0, 63, 100
2, 77376, Note_on_c, 0, 79, 100
2, 77376, Note_on_c, 0, 60, 100
2, 77452, Note_off_c, 0, 60, 0
2, 77452, Note_off_c, 0, 63, 0
2, 77568, Note_on_c, 0, 63, 100
2, 77568, Note_on_c, 0, 60, 100
2, 77644, Note_off_c, 0, 60, 0
2, 77644, Note_off_c, 0, 63, 0
2, 77682, Note_off_c, 0, 79, 0
2, 77748, Note_on_c, 0, 77, 100
2, 77760, Note_off_c, 0, 77, 0
2, 77760, Note_on_c, 0, 75, 100
2, 77760, Note_on_c, 0, 60, 100
2, 77760, Note_on_c, 0, 63, 100
2, 77836, Note_off_c, 0, 63, 0
2, 77836, Note_off_c, 0, 60, 0
2, 77836, Note_off_c, 0, 75, 0
2, 77856, Note_on_c, 0, 74, 100
2, 77894, Note_off_c, 0, 74, 0
2, 77904, Note_on_c, 0, 72, 100
2, 77942, Note_off_c, 0, 72, 0
2, 77952, Note_on_c, 0, 79, 100
2, 77952, Note_on_c, 0, 62, 100
2, 78028, Note_off_c, 0, 62, 0
2, 78104, Note_off_c, 0, 79, 0
2, 78144, Note_on_c, 0, 79, 100
2, 78144, Note_on_c, 0, 60, 100
2, 78144, Note_on_c, 0, 63, 100
2, 78220, Note_off_c, 0, 63, 0
2, 78220, Note_off_c, 0, 60, 0
2, 78296, Note_off_c, 0, 79, 0
2, 78336, Note_on_c, 0, 62, 100
2, 78336, Note_on_c, 0, 65, 100
2, 78336, Note_on_c, 0, 79, 100
2, 78412, Note_off_c, 0, 65, 0
2, 78412, Note_off_c, 0, 62, 0
2, 78488, Note_off_c, 0, 79, 0
2, 78528, Note_on_c, 0, 63, 100
2, 78528, Note_on_c, 0, 79, 100
2, 78528, Note_on_c, 0, 60, 100
2, 78604, Note_off_c, 0, 60, 0
2, 78604, Note_off_c, 0, 63, 0
2, 78720, Note_on_c, 0, 63, 100
2, 78720, Note_on_c, 0, 60, 100
2, 78796, Note_off_c, 0, 60, 0
2, 78796, Note_off_c, 0, 63, 0
2, 78834, Note_off_c, 0, 79, 0
2, 78900, Note_on_c, 0, 77, 100
2, 78912, Note_off_c, 0, 77, 0
2, 78912, Note_on_c, 0, 75, 100
2, 78912, Note_on_c, 0, 60, 100
2, 78912, Note_on_c, 0, 63, 100
2, 78988, Note_off_c, 0, 63, 0
2, 78988, Note_off_c, 0, 60, 0
2, 78988, Note_off_c, 0, 75, 0
2, 79008, Note_on_c, 0, 74, 100
2, 79046, Note_off_c, 0, 74, 0
2, 79056, Note_on_c, 0, 72, 100
2, 79094, Note_off_c, 0, 72, 0
2, 79104, Note_on_c, 0, 80, 100
2, 79104, Note_on_c, 0, 74, 100
2, 79104, Note_on_c, 0, 71, 100
2, 79256, Note_off_c, 0, 71, 0
2, 79256, Note_off_c, 0, 74, 0
2, 79256, Note_off_c, 0, 80, 0
2, 79488, Note_on_c, 0, 65, 100
2, 79640, Note_off_c, 0, 65, 0
2, 79680, Note_on_c, 0, 79, 100
2, 79680, Note_on_c, 0, 75, 100
2, 79680, Note_on_c, 0, 72, 100
2, 79832, Note_off_c, 0, 72, 0
2, 79832, Note_off_c, 0, 75, 0
2, 79832, Note_off_c, 0, 79, 0
2, 80064, Note_on_c, 0, 63, 100
2, 80216, Note_off_c, 0, 63, 0
2, 80256, Note_on_c, 0, 62, 100
2, 80408, Note_off_c, 0, 62, 0
2, 80448, Note_on_c, 0, 83, 100
2, 80448, Note_on_c, 0, 77, 100
2, 80448, Note_on_c, 0, 74, 100
2, 80600, Note_off_c, 0, 74, 0
2, 80600, Note_off_c, 0, 77, 0
2, 80600, Note_off_c, 0, 83, 0
2, 80640, Note_on_c, 0, 86, 100
2, 80640, Note_on_c, 0, 83, 100
2, 80640, Note_on_c, 0, 77, 100
2, 80792, Note_off_c, 0, 77, 0
2, 80792, Note_off_c, 0, 83, 0
2, 80792, Note_off_c, 0, 86, 0
2, 80832, Note_on_c, 0, 89, 100
2, 80832, Note_on_c, 0, 86, 100
2, 80832, Note_on_c, 0, 79, 100
2, 80984, Note_off_c, 0, 79, 0
2, 80984, Note_off_c, 0, 86, 0
2, 80984, Note_off_c, 0, 89, 0
2, 81984, Note_on_c, 0, 61, 100
2, 82136, Note_off_c, 0, 61, 0
2, 82176, Note_on_c, 0, 76, 100
2, 82176, Note_on_c, 0, 70, 100
2, 82176, Note_on_c, 0, 67, 100
2, 82328, Note_off_c, 0, 67, 0
2, 82328, Note_off_c, 0, 70, 0
2, 82328, Note_off_c, 0, 76, 0
2, 82368, Note_on_c, 0, 79, 100
2, 82368, Note_on_c, 0, 76, 100
2, 82368, Note_on_c, 0, 70, 100
2, 82520, Note_off_c, 0, 70, 0
2, 82520, Note_off_c, 0, 76, 0
2, 82520, Note_off_c, 0, 79, 0
2, 82560, Note_on_c, 0, 73, 100
2, 82560, Note_on_c, 0, 79, 100
2, 82560, Note_on_c, 0, 82, 100
2, 82712, Note_off_c, 0, 82, 0
2, 82712, Note_off_c, 0, 79, 0
2, 82712, Note_off_c, 0, 73, 0
2, 84096, Note_on_c, 0, 60, 60
2, 84248, Note_off_c, 0, 60, 0
2, 84864, Note_on_c, 0, 72, 60
2, 85016, Note_off_c, 0, 72, 0
2, 85248, Note_on_c, 0, 60, 60
2, 85400, Note_off_c, 0, 60, 0
2, 85440, Note_on_c, 0, 72, 60
2, 85592, Note_off_c, 0, 72, 0
2, 85920, Note_on_c, 0, 72, 60
2, 85996, Note_off_c, 0, 72, 0
2, 86016, Note_on_c, 0, 73, 60
2, 86322, Note_off_c, 0, 73, 0
2, 86400, Note_on_c, 0, 72, 60
2, 86400, Note_on_c, 0, 60, 60
2, 86552, Note_off_c, 0, 60, 0
2, 86552, Note_off_c, 0, 72, 0
2, 87072, Note_on_c, 0, 84, 60
2, 87148, Note_off_c, 0, 84, 0
2, 87168, Note_on_c, 0, 85, 60
2, 87474, Note_off_c, 0, 85, 0
2, 87552, Note_on_c, 0, 84, 60
2, 87552, Note_on_c, 0, 60, 60
2, 87704, Note_off_c, 0, 60, 0
2, 87704, Note_off_c, 0, 84, 0
2, 88128, Note_on_c, 0, 60, 60
2, 88280, Note_off_c, 0, 60, 0
2, 88320, Note_on_c, 0, 62, 100
2, 88472, Note_off_c, 0, 62, 0
2, 88512, Note_on_c, 0, 78, 100
2, 88512, Note_on_c, 0, 72, 100
2, 88512, Note_on_c, 0, 69, 100
2, 88512, Note_on_c, 0, 60, 100
2, 88664, Note_off_c, 0, 60, 0
2, 88664, Note_off_c, 0, 69, 0
2, 88664, Note_off_c, 0, 72, 0
2, 88664, Note_off_c, 0, 78, 0
2, 88704, Note_on_c, 0, 81, 100
2, 88704, Note_on_c, 0, 78, 100
2, 88704, Note_on_c, 0, 72, 100
2, 88856, Note_off_c, 0, 72, 0
2, 88856, Note_off_c, 0, 78, 0
2, 88856, Note_off_c, 0, 81, 0
2, 88896, Note_on_c, 0, 84, 100
2, 88896, Note_on_c, 0, 81, 100
2, 88896, Note_on_c, 0, 75, 100
2, 89048, Note_off_c, 0, 75, 0
2, 89048, Note_off_c, 0, 81, 0
2, 89048, Note_off_c, 0, 84, 0
2, 90432, Note_on_c, 0, 62, 60
2, 90584, Note_off_c, 0, 62, 0
2, 91008, Note_on_c, 0, 60, 60
2, 91160, Note_off_c, 0, 60, 0
2, 91200, Note_on_c, 0, 74, 60
2, 91352, Note_off_c, 0, 74, 0
2, 91584, Note_on_c, 0, 62, 60
2, 91736, Note_off_c, 0, 62, 0
2, 91776, Note_on_c, 0, 74, 60
2, 91928, Note_off_c, 0, 74, 0
2, 92160, Note_on_c, 0, 60, 60
2, 92256, Note_on_c, 0, 74, 60
2, 92312, Note_off_c, 0, 60, 0
2, 92332, Note_off_c, 0, 74, 0
2, 92352, Note_on_c, 0, 75, 60
2, 92658, Note_off_c, 0, 75, 0
2, 92736, Note_on_c, 0, 74, 60
2, 92736, Note_on_c, 0, 62, 60
2, 92888, Note_off_c, 0, 62, 0
2, 92888, Note_off_c, 0, 74, 0
2, 93312, Note_on_c, 0, 60, 74
2, 93408, Note_on_c, 0, 86, 74
2, 93464, Note_off_c, 0, 60, 0
2, 93484, Note_off_c, 0, 86, 0
2, 93504, Note_on_c, 0, 87, 80
2, 93810, Note_off_c, 0, 87, 0
2, 93888, Note_on_c, 0, 86, 94
2, 93888, Note_on_c, 0, 62, 94
2, 94040, Note_off_c, 0, 62, 0
2, 94040, Note_off_c, 0, 86, 0
2, 94464, Note_on_c, 0, 62, 114
2, 94560, Note_on_c, 0, 79, 114
2, 94560, Note_on_c, 0, 67, 114
2, 94616, Note_off_c, 0, 62, 0
2, 94636, Note_off_c, 0, 79, 0
2, 94636, Note_off_c, 0, 67, 0
2, 94656, Note_on_c, 0, 68, 120
2, 94656, Note_on_c, 0, 80, 120
2, 94656, Note_on_c, 0, 65, 60
2, 94656, Note_on_c, 0, 62, 60
2, 95116, Note_off_c, 0, 80, 0
2, 95116, Note_off_c, 0, 68, 0
2, 95232, Note_on_c, 0, 79, 60
2, 95232, Note_on_c, 0, 67, 60
2, 95384, Note_off_c, 0, 67, 0
2, 95384, Note_off_c, 0, 79, 0
2, 95692, Note_off_c, 0, 65, 0
2, 95692, Note_off_c, 0, 62, 0
2, 96576, Note_on_c, 0, 67, 60
2, 96728, Note_off_c, 0, 67, 0
2, 96768, Note_on_c, 0, 67, 60
2, 96920, Note_off_c, 0, 67, 0
2, 96960, Note_on_c, 0, 67, 60
2, 97190, Note_off_c, 0, 67, 0
2, 97248, Note_on_c, 0, 68, 60
2, 97324, Note_off_c, 0, 68, 0
2, 97344, Note_on_c, 0, 67, 60
2, 97496, Note_off_c, 0, 67, 0
2, 97536, Note_on_c, 0, 77, 60
2, 97842, Note_off_c, 0, 77, 0
2, 97920, Note_on_c, 0, 71, 60
2, 98072, Note_off_c, 0, 71, 0
2, 98112, Note_on_c, 0, 74, 60
2, 98418, Note_off_c, 0, 74, 0
2, 98496, Note_on_c, 0, 72, 60
2, 98648, Note_off_c, 0, 72, 0
2, 98880, Note_on_c, 0, 79, 60
2, 99032, Note_off_c, 0, 79, 0
2, 99072, Note_on_c, 0, 79, 60
2, 99224, Note_off_c, 0, 79, 0
2, 99264, Note_on_c, 0, 78, 60
2, 99340, Note_off_c, 0, 78, 0
2, 99360, Note_on_c, 0, 79, 60
2, 99436, Note_off_c, 0, 79, 0
2, 99456, Note_on_c, 0, 80, 60
2, 99532, Note_off_c, 0, 80, 0
2, 99552, Note_on_c, 0, 79, 60
2, 99628, Note_off_c, 0, 79, 0
2, 99648, Note_on_c, 0, 77, 60
2, 99724, Note_off_c, 0, 77, 0
2, 99744, Note_on_c, 0, 75, 60
2, 99820, Note_off_c, 0, 75, 0
2, 99840, Note_on_c, 0, 74, 60
2, 99916, Note_off_c, 0, 74, 0
2, 99936, Note_on_c, 0, 72, 60
2, 100012, Note_off_c, 0, 72, 0
2, 100032, Note_on_c, 0, 71, 60
2, 100108, Note_off_c, 0, 71, 0
2, 100128, Note_on_c, 0, 74, 60
2, 100204, Note_off_c, 0, 74, 0
2, 100224, Note_on_c, 0, 77, 60
2, 100300, Note_off_c, 0, 77, 0
2, 100320, Note_on_c, 0, 71, 60
2, 100396, Note_off_c, 0, 71, 0
2, 100416, Note_on_c, 0, 74, 60
2, 100776, Note_off_c, 0, 74, 0
2, 100800, Note_on_c, 0, 72, 60
2, 100980, Note_off_c, 0, 72, 0
2, 101184, Note_on_c, 0, 72, 80
2, 101336, Note_off_c, 0, 72, 0
2, 101376, Note_on_c, 0, 72, 90
2, 101528, Note_off_c, 0, 72, 0
2, 101568, Note_on_c, 0, 72, 100
2, 101798, Note_off_c, 0, 72, 0
2, 101856, Note_on_c, 0, 74, 100
2, 101880, Note_off_c, 0, 74, 0
2, 101888, Note_on_c, 0, 72, 100
2, 101912, Note_off_c, 0, 72, 0
2, 101920, Note_on_c, 0, 71, 100
2, 101944, Note_off_c, 0, 71, 0
2, 101952, Note_on_c, 0, 72, 100
2, 102028, Note_off_c, 0, 72, 0
2, 102048, Note_on_c, 0, 74, 100
2, 102124, Note_off_c, 0, 74, 0
2, 102144, Note_on_c, 0, 75, 100
2, 102450, Note_off_c, 0, 75, 0
2, 102528, Note_on_c, 0, 66, 100
2, 102680, Note_off_c, 0, 66, 0
2, 102720, Note_on_c, 0, 67, 100
2, 102872, Note_off_c, 0, 67, 0
2, 103008, Note_on_c, 0, 67, 100
2, 103084, Note_off_c, 0, 67, 0
2, 103104, Note_on_c, 0, 66, 100
2, 103180, Note_off_c, 0, 66, 0
2, 103200, Note_on_c, 0, 67, 100
2, 103276, Note_off_c, 0, 67, 0
2, 103296, Note_on_c, 0, 68, 60
2, 103372, Note_off_c, 0, 68, 0
2, 103392, Note_on_c, 0, 69, 60
2, 103468, Note_off_c, 0, 69, 0
2, 103488, Note_on_c, 0, 70, 60
2, 103564, Note_off_c, 0, 70, 0
2, 103584, Note_on_c, 0, 71, 60
2, 103660, Note_off_c, 0, 71, 0
2, 103680, Note_on_c, 0, 72, 60
2, 103680, Note_on_c, 0, 60, 60
2, 103756, Note_off_c, 0, 72, 0
2, 103776, Note_on_c, 0, 66, 60
2, 103832, Note_off_c, 0, 60, 0
2, 103852, Note_off_c, 0, 66, 0
2, 103872, Note_on_c, 0, 67, 60
2, 104024, Note_off_c, 0, 67, 0
2, 104832, Note_on_c, 0, 60, 60
2, 104908, Note_off_c, 0, 60, 0
2, 105312, Note_on_c, 0, 78, 60
2, 105388, Note_off_c, 0, 78, 0
2, 105408, Note_on_c, 0, 79, 60
2, 105484, Note_off_c, 0, 79, 0
2, 105504, Note_on_c, 0, 78, 60
2, 105580, Note_off_c, 0, 78, 0
2, 105600, Note_on_c, 0, 79, 60
2, 105752, Note_off_c, 0, 79, 0
2, 105888, Note_on_c, 0, 66, 60
2, 105964, Note_off_c, 0, 66, 0
2, 105984, Note_on_c, 0, 67, 60
2, 106060, Note_off_c, 0, 67, 0
2, 106080, Note_on_c, 0, 66, 60
2, 106156, Note_off_c, 0, 66, 0
2, 106176, Note_on_c, 0, 67, 60
2, 106328, Note_off_c, 0, 67, 0
2, 109248, Note_on_c, 0, 62, 100
2, 109324, Note_off_c, 0, 62, 0
2, 109344, Note_on_c, 0, 67, 100
2, 109420, Note_off_c, 0, 67, 0
2, 109440, Note_on_c, 0, 71, 100
2, 109516, Note_off_c, 0, 71, 0
2, 109536, Note_on_c, 0, 74, 100
2, 109612, Note_off_c, 0, 74, 0
2, 109632, Note_on_c, 0, 89, 100
2, 109632, Note_on_c, 0, 77, 100
2, 110092, Note_off_c, 0, 77, 0
2, 110092, Note_off_c, 0, 89, 0
2, 110208, Note_on_c, 0, 83, 100
2, 110208, Note_on_c, 0, 71, 100
2, 110976, Note_on_c, 0, 84, 100
2, 110976, Note_on_c, 0, 72, 100
2, 111128, Note_off_c, 0, 72, 0
2, 111128, Note_off_c, 0, 84, 0
2, 111168, Note_on_c, 0, 76, 100
2, 111168, Note_on_c, 0, 64, 100
2, 111512, Note_off_c, 0, 64, 0
2, 111512, Note_off_c, 0, 76, 0
2, 111552, Note_on_c, 0, 65, 100
2, 111552, Note_on_c, 0, 77, 100
2, 111704, Note_off_c, 0, 77, 0
2, 111704, Note_off_c, 0, 65, 0
2, 111744, Note_on_c, 0, 78, 60
2, 112088, Note_off_c, 0, 78, 0
2, 112128, Note_on_c, 0, 79, 60
2, 112280, Note_off_c, 0, 79, 0
2, 112320, Note_on_c, 0, 81, 60
2, 112320, Note_on_c, 0, 72, 60
2, 112320, Note_on_c, 0, 63, 60
2, 112472, Note_off_c, 0, 63, 0
2, 112472, Note_off_c, 0, 72, 0
2, 112472, Note_off_c, 0, 81, 0
2, 112512, Note_on_c, 0, 67, 60
2, 112512, Note_on_c, 0, 63, 60
2, 112512, Note_on_c, 0, 72, 60
2, 112818, Note_off_c, 0, 72, 0
2, 112818, Note_off_c, 0, 63, 0
2, 112818, Note_off_c, 0, 67, 0
2, 112896, Note_on_c, 0, 71, 60
2, 112896, Note_on_c, 0, 75, 60
2, 112896, Note_on_c, 0, 65, 60
2, 112972, Note_off_c, 0, 75, 0
2, 112972, Note_off_c, 0, 71, 0
2, 112992, Note_on_c, 0, 74, 60
2, 113048, Note_off_c, 0, 65, 0
2, 113068, Note_off_c, 0, 74, 0
2, 113088, Note_on_c, 0, 72, 100
2, 113240, Note_off_c, 0, 72, 0
2, 113376, Note_on_c, 0, 72, 60
2, 113452, Note_off_c, 0, 72, 0
2, 113472, Note_on_c, 0, 71, 60
2, 113548, Note_off_c, 0, 71, 0
2, 113568, Note_on_c, 0, 72, 60
2, 113644, Note_off_c, 0, 72, 0
2, 113664, Note_on_c, 0, 73, 100
2, 113740, Note_off_c, 0, 73, 0
2, 113760, Note_on_c, 0, 74, 100
2, 113836, Note_off_c, 0, 74, 0
2, 113952, Note_on_c, 0, 74, 60
2, 114028, Note_off_c, 0, 74, 0
2, 114048, Note_on_c, 0, 73, 60
2, 114124, Note_off_c, 0, 73, 0
2, 114144, Note_on_c, 0, 74, 60
2, 114220, Note_off_c, 0, 74, 0
2, 114240, Note_on_c, 0, 75, 100
2, 114316, Note_off_c, 0, 75, 0
2, 114336, Note_on_c, 0, 76, 100
2, 114412, Note_off_c, 0, 76, 0
2, 114528, Note_on_c, 0, 76, 60
2, 114604, Note_off_c, 0, 76, 0
2, 114624, Note_on_c, 0, 75, 60
2, 114700, Note_off_c, 0, 75, 0
2, 114720, Note_on_c, 0, 76, 60
2, 114796, Note_off_c, 0, 76, 0
2, 114816, Note_on_c, 0, 76, 100
2, 114892, Note_off_c, 0, 76, 0
2, 114912, Note_on_c, 0, 77, 100
2, 114988, Note_off_c, 0, 77, 0
2, 115104, Note_on_c, 0, 77, 60
2, 115180, Note_off_c, 0, 77, 0
2, 115200, Note_on_c, 0, 76, 60
2, 115276, Note_off_c, 0, 76, 0
2, 115296, Note_on_c, 0, 77, 60
2, 115372, Note_off_c, 0, 77, 0
2, 115392, Note_on_c, 0, 79, 60
2, 115468, Note_off_c, 0, 79, 0
2, 115488, Note_on_c, 0, 72, 60
2, 115564, Note_off_c, 0, 72, 0
2, 115584, Note_on_c, 0, 84, 60
2, 115660, Note_off_c, 0, 84, 0
2, 115680, Note_on_c, 0, 84, 60
2, 115756, Note_off_c, 0, 84, 0
2, 115776, Note_on_c, 0, 84, 60
2, 115852, Note_off_c, 0, 84, 0
2, 115872, Note_on_c, 0, 84, 60
2, 115948, Note_off_c, 0, 84, 0
2, 115968, Note_on_c, 0, 62, 60
2, 116064, Note_on_c, 0, 74, 60
2, 116120, Note_off_c, 0, 62, 0
2, 116140, Note_off_c, 0, 74, 0
2, 116160, Note_on_c, 0, 80, 60
2, 116236, Note_off_c, 0, 80, 0
2, 116256, Note_on_c, 0, 80, 60
2, 116332, Note_off_c, 0, 80, 0
2, 116352, Note_on_c, 0, 80, 60
2, 116428, Note_off_c, 0, 80, 0
2, 116448, Note_on_c, 0, 80, 60
2, 116524, Note_off_c, 0, 80, 0
2, 116544, Note_on_c, 0, 63, 60
2, 116640, Note_on_c, 0, 72, 60
2, 116696, Note_off_c, 0, 63, 0
2, 116716, Note_off_c, 0, 72, 0
2, 116736, Note_on_c, 0, 79, 60
2, 116812, Note_off_c, 0, 79, 0
2, 116832, Note_on_c, 0, 79, 60
2, 116908, Note_off_c, 0, 79, 0
2, 116928, Note_on_c, 0, 79, 60
2, 117004, Note_off_c, 0, 79, 0
2, 117024, Note_on_c, 0, 79, 60
2, 117100, Note_off_c, 0, 79, 0
2, 117120, Note_on_c, 0, 62, 60
2, 117216, Note_on_c, 0, 65, 60
2, 117272, Note_off_c, 0, 62, 0
2, 117292, Note_off_c, 0, 65, 0
2, 117312, Note_on_c, 0, 71, 60
2, 117388, Note_off_c, 0, 71, 0
2, 117408, Note_on_c, 0, 71, 60
2, 117484, Note_off_c, 0, 71, 0
2, 117504, Note_on_c, 0, 71, 60
2, 117580, Note_off_c, 0, 71, 0
2, 117600, Note_on_c, 0, 71, 60
2, 117676, Note_off_c, 0, 71, 0
2, 117696, Note_on_c, 0, 72, 100
2, 117696, Note_on_c, 0, 67, 100
2, 117696, Note_on_c, 0, 63, 100
2, 117848, Note_off_c, 0, 63, 0
2, 117848, Note_off_c, 0, 67, 0
2, 117848, Note_off_c, 0, 72, 0
2, 117984, Note_on_c, 0, 60, 60
2, 118060, Note_off_c, 0, 60, 0
2, 118176, Note_on_c, 0, 60, 60
2, 118252, Note_off_c, 0, 60, 0
2, 118272, Note_on_c, 0, 61, 100
2, 118348, Note_off_c, 0, 61, 0
2, 118368, Note_on_c, 0, 62, 100
2, 118444, Note_off_c, 0, 62, 0
2, 118560, Note_on_c, 0, 62, 60
2, 118636, Note_off_c, 0, 62, 0
2, 118656, Note_on_c, 0, 61, 60
2, 118732, Note_off_c, 0, 61, 0
2, 118752, Note_on_c, 0, 62, 60
2, 118828, Note_off_c, 0, 62, 0
2, 118848, Note_on_c, 0, 63, 100
2, 118924, Note_off_c, 0, 63, 0
2, 118944, Note_on_c, 0, 64, 100
2, 119020, Note_off_c, 0, 64, 0
2, 119136, Note_on_c, 0, 64, 60
2, 119212, Note_off_c, 0, 64, 0
2, 119232, Note_on_c, 0, 63, 60
2, 119308, Note_off_c, 0, 63, 0
2, 119328, Note_on_c, 0, 64, 60
2, 119404, Note_off_c, 0, 64, 0
2, 119424, Note_on_c, 0, 64, 100
2, 119500, Note_off_c, 0, 64, 0
2, 119520, Note_on_c, 0, 65, 100
2, 119596, Note_off_c, 0, 65, 0
2, 119712, Note_on_c, 0, 65, 60
2, 119788, Note_off_c, 0, 65, 0
2, 119808, Note_on_c, 0, 64, 60
2, 119884, Note_off_c, 0, 64, 0
2, 119904, Note_on_c, 0, 65, 60
2, 119980, Note_off_c, 0, 65, 0
2, 120000, Note_on_c, 0, 65, 100
2, 120076, Note_off_c, 0, 65, 0
2, 120096, Note_on_c, 0, 66, 100
2, 120172, Note_off_c, 0, 66, 0
2, 120288, Note_on_c, 0, 66, 60
2, 120364, Note_off_c, 0, 66, 0
2, 120384, Note_on_c, 0, 65, 60
2, 120460, Note_off_c, 0, 65, 0
2, 120480, Note_on_c, 0, 66, 60
2, 120556, Note_off_c, 0, 66, 0
2, 120576, Note_on_c, 0, 66, 100
2, 120652, Note_off_c, 0, 66, 0
2, 120672, Note_on_c, 0, 67, 100
2, 120748, Note_off_c, 0, 67, 0
2, 120864, Note_on_c, 0, 67, 60
2, 120940, Note_off_c, 0, 67, 0
2, 120960, Note_on_c, 0, 66, 60
2, 121036, Note_off_c, 0, 66, 0
2, 121056, Note_on_c, 0, 67, 60
2, 121132, Note_off_c, 0, 67, 0
2, 121152, Note_on_c, 0, 69, 60
2, 121304, Note_off_c, 0, 69, 0
2, 121344, Note_on_c, 0, 72, 60
2, 121496, Note_off_c, 0, 72, 0
2, 121536, Note_on_c, 0, 75, 60
2, 121880, Note_off_c, 0, 75, 0
2, 121920, Note_on_c, 0, 74, 60
2, 122072, Note_off_c, 0, 74, 0
2, 122112, Note_on_c, 0, 72, 60
2, 122304, Note_on_c, 0, 62, 60
2, 122304, Note_on_c, 0, 65, 60
2, 122456, Note_off_c, 0, 72, 0
2, 122496, Note_on_c, 0, 71, 60
2, 122648, Note_off_c, 0, 71, 0
2, 122688, Note_on_c, 0, 77, 60
2, 122764, Note_off_c, 0, 62, 0
2, 122764, Note_off_c, 0, 65, 0
2, 122880, Note_on_c, 0, 65, 63
2, 122880, Note_on_c, 0, 62, 63
2, 123032, Note_off_c, 0, 77, 0
2, 123072, Note_on_c, 0, 74, 66
2, 123224, Note_off_c, 0, 74, 0
2, 123264, Note_on_c, 0, 83, 69
2, 123340, Note_off_c, 0, 65, 0
2, 123340, Note_off_c, 0, 62, 0
2, 123456, Note_on_c, 0, 65, 72
2, 123456, Note_on_c, 0, 62, 72
2, 123608, Note_off_c, 0, 83, 0
2, 123648, Note_on_c, 0, 77, 78
2, 123800, Note_off_c, 0, 77, 0
2, 123840, Note_on_c, 0, 86, 78
2, 123916, Note_off_c, 0, 65, 0
2, 123916, Note_off_c, 0, 62, 0
2, 124032, Note_on_c, 0, 62, 84
2, 124032, Note_on_c, 0, 65, 84
2, 124184, Note_off_c, 0, 86, 0
2, 124224, Note_on_c, 0, 83, 89
2, 124376, Note_off_c, 0, 83, 0
2, 124416, Note_on_c, 0, 89, 97
2, 124492, Note_off_c, 0, 62, 0
2, 124492, Note_off_c, 0, 65, 0
2, 124568, Note_off_c, 0, 89, 0
2, 124608, Note_on_c, 0, 62, 100
2, 124608, Note_on_c, 0, 89, 100
2, 124608, Note_on_c, 0, 65, 100
2, 124684, Note_off_c, 0, 89, 0
2, 124704, Note_on_c, 0, 86, 100
2, 124760, Note_off_c, 0, 62, 0
2, 124760, Note_off_c, 0, 65, 0
2, 124780, Note_off_c, 0, 86, 0
2, 124800, Note_on_c, 0, 83, 100
2, 124876, Note_off_c, 0, 83, 0
2, 124896, Note_on_c, 0, 80, 100
2, 124972, Note_off_c, 0, 80, 0
2, 124992, Note_on_c, 0, 77, 100
2, 125068, Note_off_c, 0, 77, 0
2, 125088, Note_on_c, 0, 74, 100
2, 125164, Note_off_c, 0, 74, 0
2, 125184, Note_on_c, 0, 71, 100
2, 125260, Note_off_c, 0, 71, 0
2, 125280, Note_on_c, 0, 68, 100
2, 125356, Note_off_c, 0, 68, 0
2, 125376, Note_on_c, 0, 65, 100
2, 125452, Note_off_c, 0, 65, 0
2, 125472, Note_on_c, 0, 62, 100
2, 125548, Note_off_c, 0, 62, 0
2, 125856, Note_on_c, 0, 67, 100
2, 125932, Note_off_c, 0, 67, 0
2, 125952, Note_on_c, 0, 68, 100
2, 126028, Note_off_c, 0, 68, 0
2, 126048, Note_on_c, 0, 69, 100
2, 126124, Note_off_c, 0, 69, 0
2, 126144, Note_on_c, 0, 70, 100
2, 126220, Note_off_c, 0, 70, 0
2, 126240, Note_on_c, 0, 71, 100
2, 126316, Note_off_c, 0, 71, 0
2, 126336, Note_on_c, 0, 72, 100
2, 126412, Note_off_c, 0, 72, 0
2, 126432, Note_on_c, 0, 74, 100
2, 126508, Note_off_c, 0, 74, 0
2, 126528, Note_on_c, 0, 75, 100
2, 126604, Note_off_c, 0, 75, 0
2, 126624, Note_on_c, 0, 76, 100
2, 126700, Note_off_c, 0, 76, 0
2, 126720, Note_on_c, 0, 77, 100
2, 126796, Note_off_c, 0, 77, 0
2, 126816, Note_on_c, 0, 78, 100
2, 126892, Note_off_c, 0, 78, 0
2, 126912, Note_on_c, 0, 60, 60
2, 126912, Note_on_c, 0, 63, 60
2, 127104, Note_on_c, 0, 75, 60
2, 127256, Note_off_c, 0, 75, 0
2, 127296, Note_on_c, 0, 72, 60
2, 127372, Note_off_c, 0, 63, 0
2, 127372, Note_off_c, 0, 60, 0
2, 127488, Note_on_c, 0, 62, 60
2, 127488, Note_on_c, 0, 65, 60
2, 127640, Note_off_c, 0, 72, 0
2, 127680, Note_on_c, 0, 71, 60
2, 127832, Note_off_c, 0, 71, 0
2, 127872, Note_on_c, 0, 80, 60
2, 127948, Note_off_c, 0, 62, 0
2, 127948, Note_off_c, 0, 65, 0
2, 128064, Note_on_c, 0, 62, 60
2, 128216, Note_off_c, 0, 80, 0
2, 128256, Note_on_c, 0, 79, 60
2, 128408, Note_off_c, 0, 79, 0
2, 128448, Note_on_c, 0, 77, 60
2, 128524, Note_off_c, 0, 62, 0
2, 128640, Note_on_c, 0, 60, 60
2, 128640, Note_on_c, 0, 67, 60
2, 128792, Note_off_c, 0, 77, 0
2, 128832, Note_on_c, 0, 75, 60
2, 128984, Note_off_c, 0, 75, 0
2, 129024, Note_on_c, 0, 79, 60
2, 129100, Note_off_c, 0, 60, 0
2, 129100, Note_off_c, 0, 67, 0
2, 129216, Note_on_c, 0, 67, 60
2, 129216, Note_on_c, 0, 63, 60
2, 129368, Note_off_c, 0, 79, 0
2, 129408, Note_on_c, 0, 84, 60
2, 129522, Note_off_c, 0, 67, 0
2, 129522, Note_off_c, 0, 63, 0
2, 129560, Note_off_c, 0, 84, 0
2, 129600, Note_on_c, 0, 82, 60
2, 129600, Note_on_c, 0, 64, 60
2, 129752, Note_off_c, 0, 64, 0
2, 129792, Note_on_c, 0, 68, 60
2, 129792, Note_on_c, 0, 65, 60
2, 129944, Note_off_c, 0, 82, 0
2, 129984, Note_on_c, 0, 80, 60
2, 130098, Note_off_c, 0, 68, 0
2, 130098, Note_off_c, 0, 65, 0
2, 130136, Note_off_c, 0, 80, 0
2, 130176, Note_on_c, 0, 79, 60
2, 130176, Note_on_c, 0, 67, 60
2, 130176, Note_on_c, 0, 70, 60
2, 130328, Note_off_c, 0, 70, 0
2, 130328, Note_off_c, 0, 67, 0
2, 130368, Note_on_c, 0, 72, 60
2, 130368, Note_on_c, 0, 68, 60
2, 130520, Note_off_c, 0, 79, 0
2, 130752, Note_on_c, 0, 78, 60
2, 130752, Note_on_c, 0, 69, 60
2, 130904, Note_off_c, 0, 69, 0
2, 130944, Note_on_c, 0, 67, 60
2, 130944, Note_on_c, 0, 72, 60
2, 131096, Note_off_c, 0, 72, 0
2, 131096, Note_off_c, 0, 78, 0
2, 131096, Note_off_c, 0, 67, 0
2, 131136, Note_on_c, 0, 79, 60
2, 131136, Note_on_c, 0, 71, 60
2, 131288, Note_off_c, 0, 71, 0
2, 131288, Note_off_c, 0, 79, 0
2, 131328, Note_on_c, 0, 67, 60
2, 131672, Note_off_c, 0, 67, 0
2, 131712, Note_on_c, 0, 63, 60
2, 131864, Note_off_c, 0, 63, 0
2, 131904, Note_on_c, 0, 60, 60
2, 132056, Note_off_c, 0, 60, 0
2, 132096, Note_on_c, 0, 60, 60
2, 132556, Note_off_c, 0, 60, 0
2, 133632, Note_on_c, 0, 68, 60
2, 133976, Note_off_c, 0, 68, 0
2, 134016, Note_on_c, 0, 67, 60
2, 134168, Note_off_c, 0, 67, 0
2, 134208, Note_on_c, 0, 65, 60
2, 134360, Note_off_c, 0, 65, 0
2, 134400, Note_on_c, 0, 65, 60
2, 134860, Note_off_c, 0, 65, 0
2, 134976, Note_on_c, 0, 64, 60
2, 135128, Note_off_c, 0, 64, 0
2, 135936, Note_on_c, 0, 70, 60
2, 136128, Note_on_c, 0, 60, 60
2, 136280, Note_off_c, 0, 70, 0
2, 136320, Note_on_c, 0, 68, 60
2, 136472, Note_off_c, 0, 68, 0
2, 136512, Note_on_c, 0, 67, 60
2, 136588, Note_off_c, 0, 60, 0
2, 136664, Note_off_c, 0, 67, 0
2, 136704, Note_on_c, 0, 67, 60
2, 136704, Note_on_c, 0, 60, 60
2, 137164, Note_off_c, 0, 67, 0
2, 137280, Note_on_c, 0, 68, 60
2, 137432, Note_off_c, 0, 68, 0
2, 137432, Note_off_c, 0, 60, 0
2, 138240, Note_on_c, 0, 71, 60
2, 138584, Note_off_c, 0, 71, 0
2, 138624, Note_on_c, 0, 72, 60
2, 138776, Note_off_c, 0, 72, 0
2, 138816, Note_on_c, 0, 74, 60
2, 138968, Note_off_c, 0, 74, 0
2, 139008, Note_on_c, 0, 74, 60
2, 139468, Note_off_c, 0, 74, 0
2, 139584, Note_on_c, 0, 77, 60
2, 139584, Note_on_c, 0, 75, 60
2, 139608, Note_off_c, 0, 77, 0
2, 139736, Note_off_c, 0, 75, 0
2, 140544, Note_on_c, 0, 72, 60
2, 140696, Note_off_c, 0, 72, 0
2, 140736, Note_on_c, 0, 63, 60
2, 140736, Note_on_c, 0, 66, 60
2, 140736, Note_on_c, 0, 74, 60
2, 140736, Note_on_c, 0, 72, 60
2, 140748, Note_off_c, 0, 74, 0
2, 140888, Note_off_c, 0, 72, 0
2, 140928, Note_on_c, 0, 71, 60
2, 141080, Note_off_c, 0, 71, 0
2, 141120, Note_on_c, 0, 72, 60
2, 141196, Note_off_c, 0, 63, 0
2, 141196, Note_off_c, 0, 66, 0
2, 141272, Note_off_c, 0, 72, 0
2, 141312, Note_on_c, 0, 67, 60
2, 141312, Note_on_c, 0, 63, 60
2, 141464, Note_off_c, 0, 63, 0
2, 141464, Note_off_c, 0, 67, 0
2, 142464, Note_on_c, 0, 60, 60
2, 142616, Note_off_c, 0, 60, 0
2, 143040, Note_on_c, 0, 77, 100
2, 143052, Note_off_c, 0, 77, 0
2, 143052, Note_on_c, 0, 75, 100
2, 143128, Note_off_c, 0, 75, 0
2, 143148, Note_on_c, 0, 74, 100
2, 143186, Note_off_c, 0, 74, 0
2, 143196, Note_on_c, 0, 72, 100
2, 143234, Note_off_c, 0, 72, 0
2, 143244, Note_on_c, 0, 79, 100
2, 143244, Note_on_c, 0, 62, 100
2, 143320, Note_off_c, 0, 62, 0
2, 143396, Note_off_c, 0, 79, 0
2, 143436, Note_on_c, 0, 63, 100
2, 143436, Note_on_c, 0, 60, 100
2, 143436, Note_on_c, 0, 67, 100
2, 143436, Note_on_c, 0, 79, 100
2, 143512, Note_off_c, 0, 60, 0
2, 143512, Note_off_c, 0, 63, 0
2, 143588, Note_off_c, 0, 67, 0
2, 143588, Note_off_c, 0, 79, 0
2, 143616, Note_on_c, 0, 67, 100
2, 143616, Note_on_c, 0, 79, 100
2, 143616, Note_on_c, 0, 62, 100
2, 143616, Note_on_c, 0, 65, 100
2, 143692, Note_off_c, 0, 65, 0
2, 143692, Note_off_c, 0, 62, 0
2, 143768, Note_off_c, 0, 79, 0
2, 143768, Note_off_c, 0, 67, 0
2, 143808, Note_on_c, 0, 63, 100
2, 143808, Note_on_c, 0, 79, 100
2, 143808, Note_on_c, 0, 67, 100
2, 143808, Note_on_c, 0, 60, 100
2, 143884, Note_off_c, 0, 60, 0
2, 143884, Note_off_c, 0, 63, 0
2, 144000, Note_on_c, 0, 63, 100
2, 144000, Note_on_c, 0, 60, 100
2, 144076, Note_off_c, 0, 60, 0
2, 144076, Note_off_c, 0, 63, 0
2, 144114, Note_off_c, 0, 79, 0
2, 144114, Note_off_c, 0, 67, 0
2, 144180, Note_on_c, 0, 77, 100
2, 144192, Note_off_c, 0, 77, 0
2, 144192, Note_on_c, 0, 75, 100
2, 144192, Note_on_c, 0, 60, 100
2, 144192, Note_on_c, 0, 63, 100
2, 144268, Note_off_c, 0, 63, 0
2, 144268, Note_off_c, 0, 60, 0
2, 144268, Note_off_c, 0, 75, 0
2, 144288, Note_on_c, 0, 74, 100
2, 144326, Note_off_c, 0, 74, 0
2, 144336, Note_on_c, 0, 72, 100
2, 144374, Note_off_c, 0, 72, 0
2, 144384, Note_on_c, 0, 79, 100
2, 144384, Note_on_c, 0, 62, 100
2, 144460, Note_off_c, 0, 62, 0
2, 144536, Note_off_c, 0, 79, 0
2, 144576, Note_on_c, 0, 60, 100
2, 144576, Note_on_c, 0, 63, 100
2, 144576, Note_on_c, 0, 79, 100
2, 144576, Note_on_c, 0, 67, 100
2, 144652, Note_off_c, 0, 63, 0
2, 144652, Note_off_c, 0, 60, 0
2, 144728, Note_off_c, 0, 79, 0
2, 144728, Note_off_c, 0, 67, 0
2, 144768, Note_on_c, 0, 67, 100
2, 144768, Note_on_c, 0, 79, 100
2, 144768, Note_on_c, 0, 62, 100
2, 144768, Note_on_c, 0, 65, 100
2, 144844, Note_off_c, 0, 65, 0
2, 144844, Note_off_c, 0, 62, 0
2, 144920, Note_off_c, 0, 79, 0
2, 144920, Note_off_c, 0, 67, 0
2, 144960, Note_on_c, 0, 63, 100
2, 144960, Note_on_c, 0, 79, 100
2, 144960, Note_on_c, 0, 67, 100
2, 144960, Note_on_c, 0, 60, 100
2, 145036, Note_off_c, 0, 60, 0
2, 145036, Note_off_c, 0, 63, 0
2, 145152, Note_on_c, 0, 63, 100
2, 145152, Note_on_c, 0, 60, 100
2, 145228, Note_off_c, 0, 60, 0
2, 145228, Note_off_c, 0, 63, 0
2, 145266, Note_off_c, 0, 79, 0
2, 145266, Note_off_c, 0, 67, 0
2, 145332, Note_on_c, 0, 77, 100
2, 145344, Note_off_c, 0, 77, 0
2, 145344, Note_on_c, 0, 75, 100
2, 145344, Note_on_c, 0, 60, 100
2, 145344, Note_on_c, 0, 63, 100
2, 145420, Note_off_c, 0, 63, 0
2, 145420, Note_off_c, 0, 60, 0
2, 145420, Note_off_c, 0, 75, 0
2, 145440, Note_on_c, 0, 74, 100
2, 145478, Note_off_c, 0, 74, 0
2, 145488, Note_on_c, 0, 72, 100
2, 145526, Note_off_c, 0, 72, 0
2, 145536, Note_on_c, 0, 80, 100
2, 145536, Note_on_c, 0, 74, 100
2, 145536, Note_on_c, 0, 71, 100
2, 145688, Note_off_c, 0, 74, 0
2, 145688, Note_off_c, 0, 71, 0
2, 145688, Note_off_c, 0, 80, 0
2, 145920, Note_on_c, 0, 65, 100
2, 146072, Note_off_c, 0, 65, 0
2, 146112, Note_on_c, 0, 72, 100
2, 146112, Note_on_c, 0, 75, 100
2, 146112, Note_on_c, 0, 79, 100
2, 146264, Note_off_c, 0, 79, 0
2, 146264, Note_off_c, 0, 75, 0
2, 146264, Note_off_c, 0, 72, 0
2, 146496, Note_on_c, 0, 63, 100
2, 146648, Note_off_c, 0, 63, 0
2, 146688, Note_on_c, 0, 62, 100
2, 146840, Note_off_c, 0, 62, 0
2, 146880, Note_on_c, 0, 83, 100
2, 146880, Note_on_c, 0, 77, 100
2, 146880, Note_on_c, 0, 74, 100
2, 147032, Note_off_c, 0, 74, 0
2, 147032, Note_off_c, 0, 77, 0
2, 147032, Note_off_c, 0, 83, 0
2, 147072, Note_on_c, 0, 86, 100
2, 147072, Note_on_c, 0, 83, 100
2, 147072, Note_on_c, 0, 77, 100
2, 147224, Note_off_c, 0, 77, 0
2, 147224, Note_off_c, 0, 83, 0
2, 147224, Note_off_c, 0, 86, 0
2, 147264, Note_on_c, 0, 79, 100
2, 147264, Note_on_c, 0, 86, 100
2, 147264, Note_on_c, 0, 89, 100
2, 147416, Note_off_c, 0, 89, 0
2, 147416, Note_off_c, 0, 86, 0
2, 147416, Note_off_c, 0, 79, 0
2, 148224, Note_on_c, 0, 75, 60
2, 148684, Note_off_c, 0, 75, 0
2, 148800, Note_on_c, 0, 66, 60
2, 148800, Note_on_c, 0, 60, 60
2, 148800, Note_on_c, 0, 63, 60
2, 149260, Note_off_c, 0, 63, 0
2, 149260, Note_off_c, 0, 60, 0
2, 149260, Note_off_c, 0, 66, 0
2, 149376, Note_on_c, 0, 67, 60
2, 149376, Note_on_c, 0, 62, 60
2, 149376, Note_on_c, 0, 65, 60
2, 149606, Note_off_c, 0, 67, 0
2, 149664, Note_on_c, 0, 68, 60
2, 149682, Note_off_c, 0, 62, 0
2, 149682, Note_off_c, 0, 65, 0
2, 149740, Note_off_c, 0, 68, 0
2, 149760, Note_on_c, 0, 67, 60
2, 149760, Note_on_c, 0, 60, 60
2, 149760, Note_on_c, 0, 63, 60
2, 149912, Note_off_c, 0, 63, 0
2, 149912, Note_off_c, 0, 60, 0
2, 149912, Note_off_c, 0, 67, 0
2, 149964, Note_on_c, 0, 62, 60
2, 149964, Note_on_c, 0, 65, 60
2, 150116, Note_off_c, 0, 65, 0
2, 150116, Note_off_c, 0, 62, 0
2, 150156, Note_on_c, 0, 63, 60
2, 150156, Note_on_c, 0, 60, 60
2, 150308, Note_off_c, 0, 60, 0
2, 150308, Note_off_c, 0, 63, 0
2, 150348, Note_on_c, 0, 62, 60
2, 150500, Note_off_c, 0, 62, 0
2, 150528, Note_on_c, 0, 60, 60
2, 150680, Note_off_c, 0, 60, 0
2, 150900, Note_on_c, 0, 77, 60
2, 150912, Note_off_c, 0, 77, 0
2, 150912, Note_on_c, 0, 75, 100
2, 150988, Note_off_c, 0, 75, 0
2, 151008, Note_on_c, 0, 74, 100
2, 151046, Note_off_c, 0, 74, 0
2, 151056, Note_on_c, 0, 72, 100
2, 151094, Note_off_c, 0, 72, 0
2, 151104, Note_on_c, 0, 79, 100
2, 151104, Note_on_c, 0, 62, 100
2, 151180, Note_off_c, 0, 62, 0
2, 151256, Note_off_c, 0, 79, 0
2, 151296, Note_on_c, 0, 79, 100
2, 151296, Note_on_c, 0, 60, 100
2, 151296, Note_on_c, 0, 63, 100
2, 151372, Note_off_c, 0, 63, 0
2, 151372, Note_off_c, 0, 60, 0
2, 151448, Note_off_c, 0, 79, 0
2, 151488, Note_on_c, 0, 62, 100
2, 151488, Note_on_c, 0, 65, 100
2, 151488, Note_on_c, 0, 79, 100
2, 151564, Note_off_c, 0, 65, 0
2, 151564, Note_off_c, 0, 62, 0
2, 151640, Note_off_c, 0, 79, 0
2, 151680, Note_on_c, 0, 63, 100
2, 151680, Note_on_c, 0, 79, 100
2, 151680, Note_on_c, 0, 60, 100
2, 151756, Note_off_c, 0, 60, 0
2, 151756, Note_off_c, 0, 63, 0
2, 151872, Note_on_c, 0, 63, 100
2, 151872, Note_on_c, 0, 60, 100
2, 151948, Note_off_c, 0, 60, 0
2, 151948, Note_off_c, 0, 63, 0
2, 151986, Note_off_c, 0, 79, 0
2, 152052, Note_on_c, 0, 77, 100
2, 152064, Note_off_c, 0, 77, 0
2, 152064, Note_on_c, 0, 75, 100
2, 152064, Note_on_c, 0, 60, 100
2, 152064, Note_on_c, 0, 63, 100
2, 152140, Note_off_c, 0, 63, 0
2, 152140, Note_off_c, 0, 60, 0
2, 152140, Note_off_c, 0, 75, 0
2, 152160, Note_on_c, 0, 74, 100
2, 152198, Note_off_c, 0, 74, 0
2, 152208, Note_on_c, 0, 72, 100
2, 152246, Note_off_c, 0, 72, 0
2, 152256, Note_on_c, 0, 79, 100
2, 152256, Note_on_c, 0, 62, 100
2, 152332, Note_off_c, 0, 62, 0
2, 152408, Note_off_c, 0, 79, 0
2, 152448, Note_on_c, 0, 79, 100
2, 152448, Note_on_c, 0, 60, 100
2, 152448, Note_on_c, 0, 63, 100
2, 152524, Note_off_c, 0, 63, 0
2, 152524, Note_off_c, 0, 60, 0
2, 152600, Note_off_c, 0, 79, 0
2, 152640, Note_on_c, 0, 62, 100
2, 152640, Note_on_c, 0, 65, 100
2, 152640, Note_on_c, 0, 79, 100
2, 152716, Note_off_c, 0, 65, 0
2, 152716, Note_off_c, 0, 62, 0
2, 152792, Note_off_c, 0, 79, 0
2, 152832, Note_on_c, 0, 63, 100
2, 152832, Note_on_c, 0, 79, 100
2, 152832, Note_on_c, 0, 60, 100
2, 152908, Note_off_c, 0, 60, 0
2, 152908, Note_off_c, 0, 63, 0
2, 153024, Note_on_c, 0, 63, 100
2, 153024, Note_on_c, 0, 60, 100
2, 153100, Note_off_c, 0, 60, 0
2, 153100, Note_off_c, 0, 63, 0
2, 153138, Note_off_c, 0, 79, 0
2, 153204, Note_on_c, 0, 77, 100
2, 153216, Note_off_c, 0, 77, 0
2, 153216, Note_on_c, 0, 75, 100
2, 153216, Note_on_c, 0, 60, 100
2, 153216, Note_on_c, 0, 63, 100
2, 153292, Note_off_c, 0, 63, 0
2, 153292, Note_off_c, 0, 60, 0
2, 153292, Note_off_c, 0, 75, 0
2, 153312, Note_on_c, 0, 74, 100
2, 153350, Note_off_c, 0, 74, 0
2, 153360, Note_on_c, 0, 72, 100
2, 153398, Note_off_c, 0, 72, 0
2, 153408, Note_on_c, 0, 80, 100
2, 153408, Note_on_c, 0, 74, 100
2, 153408, Note_on_c, 0, 71, 100
2, 153560, Note_off_c, 0, 74, 0
2, 153560, Note_off_c, 0, 71, 0
2, 153560, Note_off_c, 0, 80, 0
2, 153792, Note_on_c, 0, 65, 100
2, 153944, Note_off_c, 0, 65, 0
2, 153984, Note_on_c, 0, 79, 100
2, 153984, Note_on_c, 0, 75, 100
2, 153984, Note_on_c, 0, 72, 100
2, 154136, Note_off_c, 0, 75, 0
2, 154136, Note_off_c, 0, 72, 0
2, 154136, Note_off_c, 0, 79, 0
2, 154368, Note_on_c, 0, 63, 100
2, 154520, Note_off_c, 0, 63, 0
2, 154560, Note_on_c, 0, 62, 100
2, 154712, Note_off_c, 0, 62, 0
2, 154752, Note_on_c, 0, 83, 100
2, 154752, Note_on_c, 0, 77, 100
2, 154752, Note_on_c, 0, 74, 100
2, 154904, Note_off_c, 0, 74, 0
2, 154904, Note_off_c, 0, 77, 0
2, 154904, Note_off_c, 0, 83, 0
2, 154944, Note_on_c, 0, 86, 100
2, 154944, Note_on_c, 0, 83, 100
2, 154944, Note_on_c, 0, 77, 100
2, 155096, Note_off_c, 0, 77, 0
2, 155096, Note_off_c, 0, 83, 0
2, 155096, Note_off_c, 0, 86, 0
2, 155136, Note_on_c, 0, 89, 100
2, 155136, Note_on_c, 0, 86, 100
2, 155136, Note_on_c, 0, 79, 100
2, 155288, Note_off_c, 0, 79, 0
2, 155288, Note_off_c, 0, 86, 0
2, 155288, Note_off_c, 0, 89, 0
2, 156288, Note_on_c, 0, 61, 100
2, 156440, Note_off_c, 0, 61, 0
2, 156480, Note_on_c, 0, 76, 100
2, 156480, Note_on_c, 0, 70, 100
2, 156480, Note_on_c, 0, 67, 100
2, 156632, Note_off_c, 0, 67, 0
2, 156632, Note_off_c, 0, 70, 0
2, 156632, Note_off_c, 0, 76, 0
2, 156672, Note_on_c, 0, 79, 100
2, 156672, Note_on_c, 0, 76, 100
2, 156672, Note_on_c, 0, 70, 100
2, 156824, Note_off_c, 0, 70, 0
2, 156824, Note_off_c, 0, 76, 0
2, 156824, Note_off_c, 0, 79, 0
2, 156864, Note_on_c, 0, 82, 100
2, 156864, Note_on_c, 0, 79, 100
2, 156864, Note_on_c, 0, 73, 100
2, 157016, Note_off_c, 0, 73, 0
2, 157016, Note_off_c, 0, 79, 0
2, 157016, Note_off_c, 0, 82, 0
2, 158400, Note_on_c, 0, 60, 60
2, 158552, Note_off_c, 0, 60, 0
2, 159168, Note_on_c, 0, 72, 60
2, 159320, Note_off_c, 0, 72, 0
2, 159552, Note_on_c, 0, 60, 60
2, 159704, Note_off_c, 0, 60, 0
2, 159744, Note_on_c, 0, 72, 60
2, 159896, Note_off_c, 0, 72, 0
2, 160224, Note_on_c, 0, 72, 60
2, 160300, Note_off_c, 0, 72, 0
2, 160320, Note_on_c, 0, 73, 60
2, 160626, Note_off_c, 0, 73, 0
2, 160704, Note_on_c, 0, 72, 60
2, 160704, Note_on_c, 0, 60, 60
2, 160856, Note_off_c, 0, 60, 0
2, 160856, Note_off_c, 0, 72, 0
2, 161376, Note_on_c, 0, 84, 60
2, 161452, Note_off_c, 0, 84, 0
2, 161472, Note_on_c, 0, 85, 60
2, 161778, Note_off_c, 0, 85, 0
2, 161856, Note_on_c, 0, 84, 60
2, 161856, Note_on_c, 0, 60, 60
2, 162008, Note_off_c, 0, 60, 0
2, 162008, Note_off_c, 0, 84, 0
2, 162528, Note_on_c, 0, 60, 60
2, 162604, Note_off_c, 0, 60, 0
2, 162624, Note_on_c, 0, 61, 60
2, 162930, Note_off_c, 0, 61, 0
2, 163008, Note_on_c, 0, 60, 60
2, 163160, Note_off_c, 0, 60, 0
2, 163584, Note_on_c, 0, 63, 90
2, 163680, Note_on_c, 0, 84, 90
2, 163736, Note_off_c, 0, 63, 0
2, 163756, Note_off_c, 0, 84, 0
2, 163776, Note_on_c, 0, 72, 100
2, 163968, Note_on_c, 0, 60, 100
2, 164120, Note_off_c, 0, 60, 0
2, 164160, Note_on_c, 0, 63, 100
2, 164236, Note_off_c, 0, 72, 0
2, 164312, Note_off_c, 0, 63, 0
2, 164352, Note_on_c, 0, 74, 100
2, 164390, Note_off_c, 0, 74, 0
2, 164400, Note_on_c, 0, 75, 100
2, 164438, Note_off_c, 0, 75, 0
2, 164448, Note_on_c, 0, 74, 100
2, 164486, Note_off_c, 0, 74, 0
2, 164496, Note_on_c, 0, 75, 100
2, 164534, Note_off_c, 0, 75, 0
2, 164544, Note_on_c, 0, 74, 100
2, 164544, Note_on_c, 0, 62, 100
2, 164582, Note_off_c, 0, 74, 0
2, 164592, Note_on_c, 0, 75, 100
2, 164630, Note_off_c, 0, 75, 0
2, 164640, Note_on_c, 0, 74, 100
2, 164678, Note_off_c, 0, 74, 0
2, 164688, Note_on_c, 0, 75, 100
2, 164696, Note_off_c, 0, 62, 0
2, 164726, Note_off_c, 0, 75, 0
2, 164736, Note_on_c, 0, 65, 100
2, 164736, Note_on_c, 0, 74, 100
2, 164774, Note_off_c, 0, 74, 0
2, 164784, Note_on_c, 0, 75, 100
2, 164822, Note_off_c, 0, 75, 0
2, 164832, Note_on_c, 0, 72, 100
2, 164870, Note_off_c, 0, 72, 0
2, 164880, Note_on_c, 0, 74, 100
2, 164888, Note_off_c, 0, 65, 0
2, 164918, Note_off_c, 0, 74, 0
2, 164928, Note_on_c, 0, 63, 60
2, 164928, Note_on_c, 0, 72, 60
2, 164928, Note_on_c, 0, 60, 60
2, 165004, Note_off_c, 0, 72, 0
2, 165024, Note_on_c, 0, 67, 60
2, 165080, Note_off_c, 0, 63, 0
2, 165080, Note_off_c, 0, 60, 0
2, 165100, Note_off_c, 0, 67, 0
2, 165120, Note_on_c, 0, 63, 60
2, 165196, Note_off_c, 0, 63, 0
2, 165216, Note_on_c, 0, 67, 60
2, 165292, Note_off_c, 0, 67, 0
2, 165312, Note_on_c, 0, 63, 60
2, 165388, Note_off_c, 0, 63, 0
2, 165408, Note_on_c, 0, 67, 60
2, 165484, Note_off_c, 0, 67, 0
2, 165504, Note_on_c, 0, 65, 60
2, 165580, Note_off_c, 0, 65, 0
2, 165600, Note_on_c, 0, 67, 60
2, 165676, Note_off_c, 0, 67, 0
2, 165696, Note_on_c, 0, 65, 60
2, 165772, Note_off_c, 0, 65, 0
2, 165792, Note_on_c, 0, 67, 60
2, 165868, Note_off_c, 0, 67, 0
2, 165888, Note_on_c, 0, 65, 60
2, 165964, Note_off_c, 0, 65, 0
2, 165984, Note_on_c, 0, 67, 60
2, 166060, Note_off_c, 0, 67, 0
2, 166080, Note_on_c, 0, 60, 60
2, 166080, Note_on_c, 0, 63, 60
2, 166156, Note_off_c, 0, 63, 0
2, 166176, Note_on_c, 0, 60, 60
2, 166232, Note_off_c, 0, 60, 0
2, 166252, Note_off_c, 0, 60, 0
2, 166368, Note_on_c, 0, 60, 60
2, 166444, Note_off_c, 0, 60, 0
2, 166656, Note_on_c, 0, 67, 60
2, 166808, Note_off_c, 0, 67, 0
2, 166848, Note_on_c, 0, 69, 60
2, 167000, Note_off_c, 0, 69, 0
2, 167040, Note_on_c, 0, 71, 60
2, 167192, Note_off_c, 0, 71, 0
2, 167232, Note_on_c, 0, 72, 60
2, 167384, Note_off_c, 0, 72, 0
2, 167808, Note_on_c, 0, 79, 60
2, 167960, Note_off_c, 0, 79, 0
2, 168000, Note_on_c, 0, 81, 60
2, 168152, Note_off_c, 0, 81, 0
2, 168192, Note_on_c, 0, 83, 60
2, 168344, Note_off_c, 0, 83, 0
2, 168384, Note_on_c, 0, 84, 60
2, 168844, Note_off_c, 0, 84, 0
2, 168960, Note_on_c, 0, 82, 60
2, 169056, Note_on_c, 0, 60, 60
2, 169132, Note_off_c, 0, 60, 0
2, 169248, Note_on_c, 0, 60, 60
2, 169324, Note_off_c, 0, 60, 0
2, 169420, Note_off_c, 0, 82, 0
2, 169440, Note_on_c, 0, 60, 60
2, 169516, Note_off_c, 0, 60, 0
2, 169536, Note_on_c, 0, 80, 60
2, 169632, Note_on_c, 0, 60, 60
2, 169708, Note_off_c, 0, 60, 0
2, 169824, Note_on_c, 0, 60, 60
2, 169900, Note_off_c, 0, 60, 0
2, 169996, Note_off_c, 0, 80, 0
2, 170016, Note_on_c, 0, 60, 60
2, 170092, Note_off_c, 0, 60, 0
2, 170112, Note_on_c, 0, 77, 60
2, 170572, Note_off_c, 0, 77, 0
2, 170688, Note_on_c, 0, 75, 60
2, 170784, Note_on_c, 0, 60, 60
2, 170860, Note_off_c, 0, 60, 0
2, 170976, Note_on_c, 0, 60, 60
2, 171052, Note_off_c, 0, 60, 0
2, 171148, Note_off_c, 0, 75, 0
2, 171168, Note_on_c, 0, 60, 60
2, 171244, Note_off_c, 0, 60, 0
2, 171264, Note_on_c, 0, 73, 60
2, 171724, Note_off_c, 0, 73, 0
2, 171840, Note_on_c, 0, 72, 60
2, 171936, Note_on_c, 0, 63, 60
2, 172012, Note_off_c, 0, 63, 0
2, 172128, Note_on_c, 0, 63, 60
2, 172204, Note_off_c, 0, 63, 0
2, 172300, Note_off_c, 0, 72, 0
2, 172320, Note_on_c, 0, 63, 60
2, 172396, Note_off_c, 0, 63, 0
2, 172416, Note_on_c, 0, 71, 60
2, 172512, Note_on_c, 0, 62, 60
2, 172588, Note_off_c, 0, 62, 0
2, 172704, Note_on_c, 0, 62, 60
2, 172780, Note_off_c, 0, 62, 0
2, 172876, Note_off_c, 0, 71, 0
2, 172896, Note_on_c, 0, 62, 60
2, 172972, Note_off_c, 0, 62, 0
2, 172992, Note_on_c, 0, 63, 60
2, 173068, Note_off_c, 0, 63, 0
2, 173088, Note_on_c, 0, 72, 60
2, 173164, Note_off_c, 0, 72, 0
2, 173184, Note_on_c, 0, 63, 60
2, 173260, Note_off_c, 0, 63, 0
2, 173280, Note_on_c, 0, 72, 60
2, 173356, Note_off_c, 0, 72, 0
2, 173376, Note_on_c, 0, 63, 60
2, 173452, Note_off_c, 0, 63, 0
2, 173472, Note_on_c, 0, 72, 60
2, 173548, Note_off_c, 0, 72, 0
2, 173568, Note_on_c, 0, 63, 60
2, 173568, Note_on_c, 0, 84, 60
2, 173644, Note_off_c, 0, 63, 0
2, 173664, Note_on_c, 0, 72, 60
2, 173740, Note_off_c, 0, 72, 0
2, 173760, Note_on_c, 0, 63, 60
2, 173836, Note_off_c, 0, 63, 0
2, 173856, Note_on_c, 0, 72, 60
2, 173932, Note_off_c, 0, 72, 0
2, 173952, Note_on_c, 0, 63, 60
2, 174028, Note_off_c, 0, 84, 0
2, 174028, Note_off_c, 0, 63, 0
2, 174048, Note_on_c, 0, 72, 60
2, 174124, Note_off_c, 0, 72, 0
2, 174144, Note_on_c, 0, 63, 60
2, 174144, Note_on_c, 0, 87, 60
2, 174220, Note_off_c, 0, 63, 0
2, 174240, Note_on_c, 0, 72, 60
2, 174316, Note_off_c, 0, 72, 0
2, 174336, Note_on_c, 0, 63, 60
2, 174412, Note_off_c, 0, 63, 0
2, 174432, Note_on_c, 0, 72, 60
2, 174508, Note_off_c, 0, 72, 0
2, 174528, Note_on_c, 0, 63, 60
2, 174604, Note_off_c, 0, 87, 0
2, 174604, Note_off_c, 0, 63, 0
2, 174624, Note_on_c, 0, 72, 60
2, 174700, Note_off_c, 0, 72, 0
2, 174720, Note_on_c, 0, 63, 60
2, 174796, Note_off_c, 0, 63, 0
2, 174816, Note_on_c, 0, 72, 60
2, 174892, Note_off_c, 0, 72, 0
2, 174912, Note_on_c, 0, 63, 60
2, 174988, Note_off_c, 0, 63, 0
2, 175008, Note_on_c, 0, 72, 60
2, 175084, Note_off_c, 0, 72, 0
2, 175104, Note_on_c, 0, 63, 60
2, 175180, Note_off_c, 0, 63, 0
2, 175200, Note_on_c, 0, 72, 60
2, 175276, Note_off_c, 0, 72, 0
2, 175296, Note_on_c, 0, 63, 60
2, 175372, Note_off_c, 0, 63, 0
2, 175392, Note_on_c, 0, 72, 60
2, 175468, Note_off_c, 0, 72, 0
2, 175488, Note_on_c, 0, 63, 60
2, 175564, Note_off_c, 0, 63, 0
2, 175584, Note_on_c, 0, 72, 60
2, 175660, Note_off_c, 0, 72, 0
2, 175680, Note_on_c, 0, 63, 60
2, 175756, Note_off_c, 0, 63, 0
2, 175776, Note_on_c, 0, 72, 60
2, 175852, Note_off_c, 0, 72, 0
2, 175872, Note_on_c, 0, 63, 60
2, 175948, Note_off_c, 0, 63, 0
2, 175968, Note_on_c, 0, 72, 60
2, 176044, Note_off_c, 0, 72, 0
2, 176064, Note_on_c, 0, 63, 60
2, 176140, Note_off_c, 0, 63, 0
2, 176160, Note_on_c, 0, 72, 60
2, 176236, Note_off_c, 0, 72, 0
2, 176256, Note_on_c, 0, 63, 60
2, 176332, Note_off_c, 0, 63, 0
2, 176352, Note_on_c, 0, 72, 60
2, 176428, Note_off_c, 0, 72, 0
2, 176448, Note_on_c, 0, 62, 60
2, 176524, Note_off_c, 0, 62, 0
2, 176544, Note_on_c, 0, 72, 60
2, 176620, Note_off_c, 0, 72, 0
2, 176640, Note_on_c, 0, 62, 60
2, 176716, Note_off_c, 0, 62, 0
2, 176736, Note_on_c, 0, 72, 60
2, 176812, Note_off_c, 0, 72, 0
2, 176832, Note_on_c, 0, 62, 60
2, 176908, Note_off_c, 0, 62, 0
2, 176928, Note_on_c, 0, 72, 60
2, 177004, Note_off_c, 0, 72, 0
2, 177024, Note_on_c, 0, 62, 60
2, 177100, Note_off_c, 0, 62, 0
2, 177120, Note_on_c, 0, 71, 60
2, 177196, Note_off_c, 0, 71, 0
2, 177216, Note_on_c, 0, 62, 60
2, 177292, Note_off_c, 0, 62, 0
2, 177312, Note_on_c, 0, 71, 60
2, 177388, Note_off_c, 0, 71, 0
2, 177408, Note_on_c, 0, 62, 60
2, 177484, Note_off_c, 0, 62, 0
2, 177504, Note_on_c, 0, 71, 60
2, 177580, Note_off_c, 0, 71, 0
2, 177600, Note_on_c, 0, 63, 60
2, 177676, Note_off_c, 0, 63, 0
2, 177696, Note_on_c, 0, 72, 60
2, 177772, Note_off_c, 0, 72, 0
2, 177792, Note_on_c, 0, 67, 60
2, 177868, Note_off_c, 0, 67, 0
2, 177888, Note_on_c, 0, 63, 60
2, 177964, Note_off_c, 0, 63, 0
2, 177984, Note_on_c, 0, 67, 60
2, 178060, Note_off_c, 0, 67, 0
2, 178080, Note_on_c, 0, 63, 60
2, 178156, Note_off_c, 0, 63, 0
2, 178176, Note_on_c, 0, 62, 60
2, 178252, Note_off_c, 0, 62, 0
2, 178272, Note_on_c, 0, 65, 60
2, 178348, Note_off_c, 0, 65, 0
2, 178368, Note_on_c, 0, 79, 60
2, 178368, Note_on_c, 0, 67, 60
2, 178444, Note_off_c, 0, 67, 0
2, 178444, Note_off_c, 0, 79, 0
2, 178464, Note_on_c, 0, 81, 60
2, 178464, Note_on_c, 0, 65, 60
2, 178540, Note_off_c, 0, 65, 0
2, 178540, Note_off_c, 0, 81, 0
2, 178560, Note_on_c, 0, 83, 60
2, 178560, Note_on_c, 0, 67, 60
2, 178636, Note_off_c, 0, 67, 0
2, 178636, Note_off_c, 0, 83, 0
2, 178656, Note_on_c, 0, 79, 60
2, 178656, Note_on_c, 0, 65, 60
2, 178732, Note_off_c, 0, 65, 0
2, 178732, Note_off_c, 0, 79, 0
2, 178752, Note_on_c, 0, 84, 60
2, 178752, Note_on_c, 0, 60, 60
2, 178828, Note_off_c, 0, 60, 0
2, 178848, Note_on_c, 0, 63, 60
2, 178904, Note_off_c, 0, 84, 0
2, 178924, Note_off_c, 0, 63, 0
2, 178944, Note_on_c, 0, 72, 60
2, 178944, Note_on_c, 0, 67, 60
2, 179020, Note_off_c, 0, 67, 0
2, 179020, Note_off_c, 0, 72, 0
2, 179040, Note_on_c, 0, 74, 60
2, 179040, Note_on_c, 0, 63, 60
2, 179116, Note_off_c, 0, 63, 0
2, 179116, Note_off_c, 0, 74, 0
2, 179136, Note_on_c, 0, 75, 60
2, 179136, Note_on_c, 0, 67, 60
2, 179212, Note_off_c, 0, 67, 0
2, 179212, Note_off_c, 0, 75, 0
2, 179232, Note_on_c, 0, 72, 60
2, 179232, Note_on_c, 0, 63, 60
2, 179308, Note_off_c, 0, 63, 0
2, 179308, Note_off_c, 0, 72, 0
2, 179328, Note_on_c, 0, 79, 60
2, 179328, Note_on_c, 0, 62, 60
2, 179404, Note_off_c, 0, 62, 0
2, 179424, Note_on_c, 0, 65, 60
2, 179480, Note_off_c, 0, 79, 0
2, 179500, Note_off_c, 0, 65, 0
2, 179520, Note_on_c, 0, 71, 60
2, 179520, Note_on_c, 0, 67, 60
2, 179596, Note_off_c, 0, 67, 0
2, 179596, Note_off_c, 0, 71, 0
2, 179616, Note_on_c, 0, 72, 60
2, 179616, Note_on_c, 0, 65, 60
2, 179692, Note_off_c, 0, 65, 0
2, 179692, Note_off_c, 0, 72, 0
2, 179712, Note_on_c, 0, 74, 60
2, 179712, Note_on_c, 0, 67, 60
2, 179788, Note_off_c, 0, 67, 0
2, 179788, Note_off_c, 0, 74, 0
2, 179808, Note_on_c, 0, 71, 60
2, 179808, Note_on_c, 0, 65, 60
2, 179884, Note_off_c, 0, 65, 0
2, 179884, Note_off_c, 0, 71, 0
2, 179904, Note_on_c, 0, 72, 60
2, 179904, Note_on_c, 0, 60, 60
2, 179980, Note_off_c, 0, 60, 0
2, 180000, Note_on_c, 0, 63, 60
2, 180056, Note_off_c, 0, 72, 0
2, 180076, Note_off_c, 0, 63, 0
2, 180096, Note_on_c, 0, 67, 60
2, 180172, Note_off_c, 0, 67, 0
2, 180192, Note_on_c, 0, 63, 60
2, 180268, Note_off_c, 0, 63, 0
2, 180288, Note_on_c, 0, 67, 60
2, 180364, Note_off_c, 0, 67, 0
2, 180384, Note_on_c, 0, 63, 60
2, 180460, Note_off_c, 0, 63, 0
2, 180480, Note_on_c, 0, 62, 60
2, 180556, Note_off_c, 0, 62, 0
2, 180576, Note_on_c, 0, 65, 60
2, 180652, Note_off_c, 0, 65, 0
2, 180672, Note_on_c, 0, 67, 60
2, 180748, Note_off_c, 0, 67, 0
2, 180768, Note_on_c, 0, 65, 60
2, 180844, Note_off_c, 0, 65, 0
2, 180864, Note_on_c, 0, 67, 60
2, 180940, Note_off_c, 0, 67, 0
2, 180960, Note_on_c, 0, 65, 60
2, 181036, Note_off_c, 0, 65, 0
2, 181056, Note_on_c, 0, 60, 60
2, 181132, Note_off_c, 0, 60, 0
2, 181152, Note_on_c, 0, 63, 60
2, 181228, Note_off_c, 0, 63, 0
2, 181248, Note_on_c, 0, 67, 60
2, 181324, Note_off_c, 0, 67, 0
2, 181344, Note_on_c, 0, 63, 60
2, 181420, Note_off_c, 0, 63, 0
2, 181440, Note_on_c, 0, 67, 60
2, 181516, Note_off_c, 0, 67, 0
2, 181536, Note_on_c, 0, 63, 60
2, 181612, Note_off_c, 0, 63, 0
2, 181632, Note_on_c, 0, 62, 60
2, 181708, Note_off_c, 0, 62, 0
2, 181728, Note_on_c, 0, 65, 60
2, 181804, Note_off_c, 0, 65, 0
2, 181824, Note_on_c, 0, 67, 60
2, 181900, Note_off_c, 0, 67, 0
2, 181920, Note_on_c, 0, 65, 60
2, 181996, Note_off_c, 0, 65, 0
2, 182016, Note_on_c, 0, 67, 60
2, 182092, Note_off_c, 0, 67, 0
2, 182112, Note_on_c, 0, 65, 60
2, 182188, Note_off_c, 0, 65, 0
2, 182208, Note_on_c, 0, 60, 60
2, 182208, Note_on_c, 0, 63, 60
2, 182360, Note_off_c, 0, 63, 0
2, 182360, Note_off_c, 0, 60, 0
2, 182784, Note_on_c, 0, 67, 60
2, 182784, Note_on_c, 0, 72, 60
2, 182784, Note_on_c, 0, 75, 60
2, 182784, Note_on_c, 0, 79, 60
2, 182784, Note_on_c, 0, 60, 60
2, 182936, Note_off_c, 0, 60, 0
2, 182936, Note_off_c, 0, 79, 0
2, 182936, Note_off_c, 0, 75, 0
2, 182936, Note_off_c, 0, 72, 0
2, 182936, Note_off_c, 0, 67, 0
2, 183360, Note_on_c, 0, 72, 60
2, 183360, Note_on_c, 0, 75, 60
2, 183360, Note_on_c, 0, 79, 60
2, 183360, Note_on_c, 0, 84, 60
2, 183512, Note_off_c, 0, 84, 0
2, 183512, Note_off_c, 0, 79, 0
2, 183512, Note_off_c, 0, 75, 0
2, 183512, Note_off_c, 0, 68, 0
2, 183512, Note_off_c, 0, 83, 0
2, 183512, Note_off_c, 0, 71, 0
2, 183512, Note_off_c, 0, 72, 0
2, 183512, Note_off_c, 0, 72, 0
2, 183512, End_track
3, 0, Start_track
3, 0, Title_t, "Piano"
3, 0, Channel_prefix, 1
3, 0, Control_c, 1, 7, 100
3, 0, Program_c, 1, 0
3, 0, Control_c, 1, 0, 0
3, 1344, Note_on_c, 1, 59, 60
3, 1804, Note_off_c, 1, 59, 0
3, 4800, Note_on_c, 1, 51, 60
3, 4800, Note_on_c, 1, 48, 60
3, 5260, Note_off_c, 1, 48, 0
3, 5260, Note_off_c, 1, 51, 0
3, 5376, Note_on_c, 1, 53, 60
3, 5376, Note_on_c, 1, 50, 60
3, 5568, Note_on_c, 1, 59, 60
3, 5720, Note_off_c, 1, 59, 0
3, 5836, Note_off_c, 1, 50, 0
3, 5836, Note_off_c, 1, 53, 0
3, 5952, Note_on_c, 1, 50, 60
3, 5952, Note_on_c, 1, 47, 60
3, 6412, Note_off_c, 1, 47, 0
3, 6412, Note_off_c, 1, 50, 0
3, 6528, Note_on_c, 1, 49, 60
3, 6528, Note_on_c, 1, 46, 60
3, 6988, Note_off_c, 1, 46, 0
3, 6988, Note_off_c, 1, 49, 0
3, 7104, Note_on_c, 1, 52, 60
3, 7104, Note_on_c, 1, 55, 60
3, 7410, Note_off_c, 1, 55, 0
3, 7410, Note_off_c, 1, 52, 0
3, 7680, Note_on_c, 1, 53, 60
3, 7832, Note_off_c, 1, 53, 0
3, 7872, Note_on_c, 1, 55, 60
3, 8024, Note_off_c, 1, 55, 0
3, 8064, Note_on_c, 1, 56, 60
3, 8216, Note_off_c, 1, 56, 0
3, 8256, Note_on_c, 1, 55, 60
3, 8408, Note_off_c, 1, 55, 0
3, 8640, Note_on_c, 1, 59, 60
3, 8640, Note_on_c, 1, 53, 60
3, 8640, Note_on_c, 1, 43, 60
3, 8792, Note_off_c, 1, 43, 0
3, 8792, Note_off_c, 1, 53, 0
3, 8792, Note_off_c, 1, 59, 0
3, 8832, Note_on_c, 1, 48, 60
3, 8832, Note_on_c, 1, 51, 60
3, 8984, Note_off_c, 1, 51, 0
3, 8984, Note_off_c, 1, 48, 0
3, 9408, Note_on_c, 1, 59, 100
3, 9484, Note_off_c, 1, 59, 0
3, 9504, Note_on_c, 1, 55, 100
3, 9580, Note_off_c, 1, 55, 0
3, 9696, Note_on_c, 1, 55, 100
3, 9772, Note_off_c, 1, 55, 0
3, 9888, Note_on_c, 1, 55, 100
3, 9964, Note_off_c, 1, 55, 0
3, 10080, Note_on_c, 1, 55, 100
3, 10156, Note_off_c, 1, 55, 0
3, 10272, Note_on_c, 1, 55, 100
3, 10348, Note_off_c, 1, 55, 0
3, 10464, Note_on_c, 1, 55, 100
3, 10540, Note_off_c, 1, 55, 0
3, 10560, Note_on_c, 1, 59, 100
3, 10636, Note_off_c, 1, 59, 0
3, 10656, Note_on_c, 1, 55, 100
3, 10732, Note_off_c, 1, 55, 0
3, 10848, Note_on_c, 1, 55, 100
3, 10924, Note_off_c, 1, 55, 0
3, 11040, Note_on_c, 1, 55, 100
3, 11116, Note_off_c, 1, 55, 0
3, 11232, Note_on_c, 1, 55, 100
3, 11308, Note_off_c, 1, 55, 0
3, 11424, Note_on_c, 1, 55, 100
3, 11500, Note_off_c, 1, 55, 0
3, 11616, Note_on_c, 1, 55, 100
3, 11692, Note_off_c, 1, 55, 0
3, 11904, Note_on_c, 1, 41, 100
3, 11904, Note_on_c, 1, 53, 100
3, 12056, Note_off_c, 1, 53, 0
3, 12056, Note_off_c, 1, 41, 0
3, 12096, Note_on_c, 1, 53, 100
3, 12248, Note_off_c, 1, 53, 0
3, 12480, Note_on_c, 1, 51, 100
3, 12480, Note_on_c, 1, 39, 100
3, 12632, Note_off_c, 1, 39, 0
3, 12632, Note_off_c, 1, 51, 0
3, 12672, Note_on_c, 1, 51, 100
3, 12824, Note_off_c, 1, 51, 0
3, 12864, Note_on_c, 1, 50, 100
3, 13016, Note_off_c, 1, 50, 0
3, 13440, Note_on_c, 1, 59, 100
3, 13440, Note_on_c, 1, 47, 100
3, 13592, Note_off_c, 1, 47, 0
3, 13592, Note_off_c, 1, 59, 0
3, 15744, Note_on_c, 1, 59, 60
3, 16050, Note_off_c, 1, 59, 0
3, 16320, Note_on_c, 1, 53, 60
3, 16472, Note_off_c, 1, 53, 0
3, 16512, Note_on_c, 1, 55, 60
3, 16664, Note_off_c, 1, 55, 0
3, 16704, Note_on_c, 1, 43, 60
3, 16716, Note_on_c, 1, 59, 60
3, 16856, Note_off_c, 1, 43, 0
3, 16868, Note_off_c, 1, 59, 0
3, 16896, Note_on_c, 1, 48, 60
3, 17048, Note_off_c, 1, 48, 0
3, 17472, Note_on_c, 1, 59, 100
3, 17548, Note_off_c, 1, 59, 0
3, 17568, Note_on_c, 1, 55, 100
3, 17644, Note_off_c, 1, 55, 0
3, 17760, Note_on_c, 1, 55, 100
3, 17836, Note_off_c, 1, 55, 0
3, 17952, Note_on_c, 1, 55, 100
3, 18028, Note_off_c, 1, 55, 0
3, 18144, Note_on_c, 1, 55, 100
3, 18220, Note_off_c, 1, 55, 0
3, 18336, Note_on_c, 1, 55, 100
3, 18412, Note_off_c, 1, 55, 0
3, 18528, Note_on_c, 1, 55, 100
3, 18604, Note_off_c, 1, 55, 0
3, 18624, Note_on_c, 1, 59, 100
3, 18700, Note_off_c, 1, 59, 0
3, 18720, Note_on_c, 1, 55, 100
3, 18796, Note_off_c, 1, 55, 0
3, 18912, Note_on_c, 1, 55, 100
3, 18988, Note_off_c, 1, 55, 0
3, 19104, Note_on_c, 1, 55, 100
3, 19180, Note_off_c, 1, 55, 0
3, 19296, Note_on_c, 1, 55, 100
3, 19372, Note_off_c, 1, 55, 0
3, 19488, Note_on_c, 1, 55, 100
3, 19564, Note_off_c, 1, 55, 0
3, 19680, Note_on_c, 1, 55, 100
3, 19756, Note_off_c, 1, 55, 0
3, 19968, Note_on_c, 1, 53, 100
3, 19968, Note_on_c, 1, 41, 100
3, 20120, Note_off_c, 1, 41, 0
3, 20120, Note_off_c, 1, 53, 0
3, 20160, Note_on_c, 1, 53, 100
3, 20312, Note_off_c, 1, 53, 0
3, 20544, Note_on_c, 1, 51, 100
3, 20544, Note_on_c, 1, 39, 100
3, 20696, Note_off_c, 1, 39, 0
3, 20696, Note_off_c, 1, 51, 0
3, 20736, Note_on_c, 1, 51, 100
3, 20888, Note_off_c, 1, 51, 0
3, 20928, Note_on_c, 1, 50, 100
3, 21080, Note_off_c, 1, 50, 0
3, 21504, Note_on_c, 1, 59, 100
3, 21504, Note_on_c, 1, 47, 100
3, 21656, Note_off_c, 1, 47, 0
3, 21656, Note_off_c, 1, 59, 0
3, 23808, Note_on_c, 1, 59, 60
3, 24114, Note_off_c, 1, 59, 0
3, 24384, Note_on_c, 1, 53, 60
3, 24536, Note_off_c, 1, 53, 0
3, 24576, Note_on_c, 1, 55, 60
3, 24728, Note_off_c, 1, 55, 0
3, 24768, Note_on_c, 1, 43, 60
3, 24780, Note_on_c, 1, 59, 60
3, 24920, Note_off_c, 1, 43, 0
3, 24932, Note_off_c, 1, 59, 0
3, 24960, Note_on_c, 1, 48, 60
3, 25112, Note_off_c, 1, 48, 0
3, 25536, Note_on_c, 1, 56, 100
3, 25536, Note_on_c, 1, 58, 100
3, 25536, Note_on_c, 1, 53, 100
3, 25536, Note_on_c, 1, 46, 100
3, 25536, Note_on_c, 1, 34, 100
3, 25996, Note_off_c, 1, 34, 0
3, 25996, Note_off_c, 1, 46, 0
3, 25996, Note_off_c, 1, 53, 0
3, 25996, Note_off_c, 1, 58, 0
3, 25996, Note_off_c, 1, 56, 0
3, 26112, Note_on_c, 1, 51, 60
3, 26188, Note_off_c, 1, 51, 0
3, 26208, Note_on_c, 1, 55, 60
3, 26284, Note_off_c, 1, 55, 0
3, 26304, Note_on_c, 1, 58, 60
3, 26380, Note_off_c, 1, 58, 0
3, 26400, Note_on_c, 1, 55, 60
3, 26476, Note_off_c, 1, 55, 0
3, 26496, Note_on_c, 1, 58, 60
3, 26572, Note_off_c, 1, 58, 0
3, 26592, Note_on_c, 1, 55, 60
3, 26668, Note_off_c, 1, 55, 0
3, 26688, Note_on_c, 1, 51, 60
3, 26764, Note_off_c, 1, 51, 0
3, 26784, Note_on_c, 1, 55, 60
3, 26860, Note_off_c, 1, 55, 0
3, 26880, Note_on_c, 1, 58, 60
3, 26956, Note_off_c, 1, 58, 0
3, 26976, Note_on_c, 1, 55, 60
3, 27052, Note_off_c, 1, 55, 0
3, 27072, Note_on_c, 1, 58, 60
3, 27148, Note_off_c, 1, 58, 0
3, 27168, Note_on_c, 1, 55, 60
3, 27244, Note_off_c, 1, 55, 0
3, 27264, Note_on_c, 1, 51, 60
3, 27340, Note_off_c, 1, 51, 0
3, 27360, Note_on_c, 1, 53, 60
3, 27436, Note_off_c, 1, 53, 0
3, 27456, Note_on_c, 1, 56, 60
3, 27532, Note_off_c, 1, 56, 0
3, 27552, Note_on_c, 1, 53, 60
3, 27628, Note_off_c, 1, 53, 0
3, 27648, Note_on_c, 1, 56, 60
3, 27724, Note_off_c, 1, 56, 0
3, 27744, Note_on_c, 1, 53, 60
3, 27820, Note_off_c, 1, 53, 0
3, 27840, Note_on_c, 1, 51, 60
3, 27916, Note_off_c, 1, 51, 0
3, 27936, Note_on_c, 1, 53, 60
3, 28012, Note_off_c, 1, 53, 0
3, 28032, Note_on_c, 1, 56, 60
3, 28108, Note_off_c, 1, 56, 0
3, 28128, Note_on_c, 1, 53, 60
3, 28204, Note_off_c, 1, 53, 0
3, 28224, Note_on_c, 1, 56, 60
3, 28300, Note_off_c, 1, 56, 0
3, 28320, Note_on_c, 1, 53, 60
3, 28396, Note_off_c, 1, 53, 0
3, 28416, Note_on_c, 1, 51, 60
3, 28492, Note_off_c, 1, 51, 0
3, 28512, Note_on_c, 1, 55, 60
3, 28588, Note_off_c, 1, 55, 0
3, 28608, Note_on_c, 1, 58, 60
3, 28684, Note_off_c, 1, 58, 0
3, 28704, Note_on_c, 1, 55, 60
3, 28780, Note_off_c, 1, 55, 0
3, 28800, Note_on_c, 1, 58, 60
3, 28876, Note_off_c, 1, 58, 0
3, 28896, Note_on_c, 1, 55, 60
3, 28972, Note_off_c, 1, 55, 0
3, 28992, Note_on_c, 1, 51, 60
3, 29068, Note_off_c, 1, 51, 0
3, 29088, Note_on_c, 1, 55, 60
3, 29164, Note_off_c, 1, 55, 0
3, 29184, Note_on_c, 1, 58, 60
3, 29260, Note_off_c, 1, 58, 0
3, 29280, Note_on_c, 1, 55, 60
3, 29356, Note_off_c, 1, 55, 0
3, 29376, Note_on_c, 1, 58, 60
3, 29452, Note_off_c, 1, 58, 0
3, 29472, Note_on_c, 1, 55, 60
3, 29548, Note_off_c, 1, 55, 0
3, 29568, Note_on_c, 1, 51, 60
3, 29644, Note_off_c, 1, 51, 0
3, 29664, Note_on_c, 1, 53, 60
3, 29740, Note_off_c, 1, 53, 0
3, 29760, Note_on_c, 1, 56, 67
3, 29836, Note_off_c, 1, 56, 0
3, 29856, Note_on_c, 1, 53, 67
3, 29932, Note_off_c, 1, 53, 0
3, 29952, Note_on_c, 1, 56, 74
3, 30028, Note_off_c, 1, 56, 0
3, 30048, Note_on_c, 1, 53, 74
3, 30124, Note_off_c, 1, 53, 0
3, 30144, Note_on_c, 1, 51, 80
3, 30220, Note_off_c, 1, 51, 0
3, 30240, Note_on_c, 1, 53, 80
3, 30316, Note_off_c, 1, 53, 0
3, 30336, Note_on_c, 1, 56, 87
3, 30412, Note_off_c, 1, 56, 0
3, 30432, Note_on_c, 1, 53, 87
3, 30508, Note_off_c, 1, 53, 0
3, 30528, Note_on_c, 1, 56, 94
3, 30604, Note_off_c, 1, 56, 0
3, 30624, Note_on_c, 1, 53, 94
3, 30700, Note_off_c, 1, 53, 0
3, 30720, Note_on_c, 1, 51, 60
3, 30796, Note_off_c, 1, 51, 0
3, 30816, Note_on_c, 1, 55, 60
3, 30892, Note_off_c, 1, 55, 0
3, 30912, Note_on_c, 1, 58, 60
3, 30988, Note_off_c, 1, 58, 0
3, 31008, Note_on_c, 1, 55, 60
3, 31084, Note_off_c, 1, 55, 0
3, 31104, Note_on_c, 1, 58, 60
3, 31180, Note_off_c, 1, 58, 0
3, 31200, Note_on_c, 1, 55, 60
3, 31276, Note_off_c, 1, 55, 0
3, 31296, Note_on_c, 1, 51, 60
3, 31372, Note_off_c, 1, 51, 0
3, 31392, Note_on_c, 1, 55, 60
3, 31468, Note_off_c, 1, 55, 0
3, 31488, Note_on_c, 1, 58, 60
3, 31564, Note_off_c, 1, 58, 0
3, 31584, Note_on_c, 1, 55, 60
3, 31660, Note_off_c, 1, 55, 0
3, 31680, Note_on_c, 1, 58, 60
3, 31756, Note_off_c, 1, 58, 0
3, 31776, Note_on_c, 1, 55, 60
3, 31852, Note_off_c, 1, 55, 0
3, 31872, Note_on_c, 1, 47, 100
3, 31948, Note_off_c, 1, 47, 0
3, 31968, Note_on_c, 1, 51, 100
3, 32044, Note_off_c, 1, 51, 0
3, 32064, Note_on_c, 1, 57, 100
3, 32140, Note_off_c, 1, 57, 0
3, 32160, Note_on_c, 1, 51, 100
3, 32236, Note_off_c, 1, 51, 0
3, 32256, Note_on_c, 1, 57, 100
3, 32332, Note_off_c, 1, 57, 0
3, 32352, Note_on_c, 1, 51, 100
3, 32428, Note_off_c, 1, 51, 0
3, 32448, Note_on_c, 1, 47, 100
3, 32524, Note_off_c, 1, 47, 0
3, 32544, Note_on_c, 1, 51, 100
3, 32620, Note_off_c, 1, 51, 0
3, 32640, Note_on_c, 1, 54, 100
3, 32716, Note_off_c, 1, 54, 0
3, 32736, Note_on_c, 1, 51, 100
3, 32812, Note_off_c, 1, 51, 0
3, 32832, Note_on_c, 1, 54, 100
3, 32908, Note_off_c, 1, 54, 0
3, 32928, Note_on_c, 1, 51, 100
3, 33004, Note_off_c, 1, 51, 0
3, 33024, Note_on_c, 1, 46, 100
3, 33024, Note_on_c, 1, 50, 100
3, 33176, Note_off_c, 1, 50, 0
3, 33176, Note_off_c, 1, 46, 0
3, 33216, Note_on_c, 1, 58, 100
3, 33368, Note_off_c, 1, 58, 0
3, 33984, Note_on_c, 1, 59, 60
3, 34136, Note_off_c, 1, 59, 0
3, 34176, Note_on_c, 1, 58, 60
3, 34328, Note_off_c, 1, 58, 0
3, 34368, Note_on_c, 1, 46, 60
3, 34464, Note_on_c, 1, 58, 60
3, 34520, Note_off_c, 1, 46, 0
3, 34540, Note_off_c, 1, 58, 0
3, 34560, Note_on_c, 1, 57, 60
3, 34636, Note_off_c, 1, 57, 0
3, 34656, Note_on_c, 1, 58, 60
3, 34732, Note_off_c, 1, 58, 0
3, 34752, Note_on_c, 1, 59, 60
3, 34828, Note_off_c, 1, 59, 0
3, 35136, Note_on_c, 1, 47, 60
3, 35136, Note_on_c, 1, 51, 60
3, 35232, Note_on_c, 1, 57, 60
3, 35288, Note_off_c, 1, 51, 0
3, 35288, Note_off_c, 1, 47, 0
3, 35308, Note_off_c, 1, 57, 0
3, 35328, Note_on_c, 1, 58, 60
3, 35328, Note_on_c, 1, 50, 60
3, 35328, Note_on_c, 1, 46, 60
3, 35480, Note_off_c, 1, 46, 0
3, 35480, Note_off_c, 1, 50, 0
3, 35480, Note_off_c, 1, 58, 0
3, 35520, Note_on_c, 1, 34, 60
3, 35672, Note_off_c, 1, 34, 0
3, 36096, Note_on_c, 1, 58, 60
3, 36248, Note_off_c, 1, 58, 0
3, 36672, Note_on_c, 1, 46, 60
3, 36768, Note_on_c, 1, 57, 60
3, 36824, Note_off_c, 1, 46, 0
3, 36844, Note_off_c, 1, 57, 0
3, 36864, Note_on_c, 1, 58, 60
3, 36940, Note_off_c, 1, 58, 0
3, 36960, Note_on_c, 1, 57, 60
3, 37036, Note_off_c, 1, 57, 0
3, 37056, Note_on_c, 1, 58, 60
3, 37208, Note_off_c, 1, 58, 0
3, 37248, Note_on_c, 1, 34, 60
3, 37344, Note_on_c, 1, 45, 60
3, 37400, Note_off_c, 1, 34, 0
3, 37420, Note_off_c, 1, 45, 0
3, 37440, Note_on_c, 1, 46, 60
3, 37516, Note_off_c, 1, 46, 0
3, 37536, Note_on_c, 1, 45, 60
3, 37612, Note_off_c, 1, 45, 0
3, 37632, Note_on_c, 1, 46, 60
3, 37708, Note_off_c, 1, 46, 0
3, 37728, Note_on_c, 1, 47, 60
3, 37804, Note_off_c, 1, 47, 0
3, 37824, Note_on_c, 1, 48, 60
3, 37900, Note_off_c, 1, 48, 0
3, 37920, Note_on_c, 1, 46, 60
3, 37996, Note_off_c, 1, 46, 0
3, 38016, Note_on_c, 1, 44, 60
3, 38092, Note_off_c, 1, 44, 0
3, 38112, Note_on_c, 1, 43, 60
3, 38188, Note_off_c, 1, 43, 0
3, 38208, Note_on_c, 1, 41, 60
3, 38284, Note_off_c, 1, 41, 0
3, 38304, Note_on_c, 1, 39, 60
3, 38380, Note_off_c, 1, 39, 0
3, 38400, Note_on_c, 1, 38, 60
3, 38476, Note_off_c, 1, 38, 0
3, 38496, Note_on_c, 1, 36, 60
3, 38572, Note_off_c, 1, 36, 0
3, 38592, Note_on_c, 1, 34, 60
3, 38668, Note_off_c, 1, 34, 0
3, 38688, Note_on_c, 1, 32, 60
3, 38764, Note_off_c, 1, 32, 0
3, 38784, Note_on_c, 1, 31, 100
3, 39244, Note_off_c, 1, 31, 0
3, 39360, Note_on_c, 1, 43, 100
3, 39820, Note_off_c, 1, 43, 0
3, 39936, Note_on_c, 1, 44, 100
3, 40396, Note_off_c, 1, 44, 0
3, 40512, Note_on_c, 1, 56, 100
3, 40972, Note_off_c, 1, 56, 0
3, 41472, Note_on_c, 1, 57, 60
3, 41624, Note_off_c, 1, 57, 0
3, 41664, Note_on_c, 1, 58, 60
3, 41970, Note_off_c, 1, 58, 0
3, 42240, Note_on_c, 1, 51, 100
3, 42316, Note_off_c, 1, 51, 0
3, 42336, Note_on_c, 1, 58, 100
3, 42412, Note_off_c, 1, 58, 0
3, 42432, Note_on_c, 1, 55, 61
3, 42508, Note_off_c, 1, 55, 0
3, 42528, Note_on_c, 1, 58, 60
3, 42604, Note_off_c, 1, 58, 0
3, 42624, Note_on_c, 1, 51, 60
3, 42700, Note_off_c, 1, 51, 0
3, 42720, Note_on_c, 1, 58, 60
3, 42796, Note_off_c, 1, 58, 0
3, 42816, Note_on_c, 1, 50, 100
3, 42892, Note_off_c, 1, 50, 0
3, 42912, Note_on_c, 1, 58, 100
3, 42988, Note_off_c, 1, 58, 0
3, 43008, Note_on_c, 1, 56, 60
3, 43084, Note_off_c, 1, 56, 0
3, 43104, Note_on_c, 1, 58, 60
3, 43180, Note_off_c, 1, 58, 0
3, 43200, Note_on_c, 1, 50, 60
3, 43276, Note_off_c, 1, 50, 0
3, 43296, Note_on_c, 1, 58, 60
3, 43372, Note_off_c, 1, 58, 0
3, 43392, Note_on_c, 1, 49, 100
3, 43468, Note_off_c, 1, 49, 0
3, 43488, Note_on_c, 1, 58, 100
3, 43564, Note_off_c, 1, 58, 0
3, 43584, Note_on_c, 1, 51, 60
3, 43660, Note_off_c, 1, 51, 0
3, 43680, Note_on_c, 1, 58, 60
3, 43756, Note_off_c, 1, 58, 0
3, 43776, Note_on_c, 1, 49, 60
3, 43852, Note_off_c, 1, 49, 0
3, 43872, Note_on_c, 1, 58, 60
3, 43948, Note_off_c, 1, 58, 0
3, 43968, Note_on_c, 1, 48, 100
3, 44044, Note_off_c, 1, 48, 0
3, 44064, Note_on_c, 1, 56, 100
3, 44140, Note_off_c, 1, 56, 0
3, 44160, Note_on_c, 1, 51, 60
3, 44236, Note_off_c, 1, 51, 0
3, 44256, Note_on_c, 1, 56, 60
3, 44332, Note_off_c, 1, 56, 0
3, 44352, Note_on_c, 1, 48, 60
3, 44428, Note_off_c, 1, 48, 0
3, 44448, Note_on_c, 1, 56, 60
3, 44524, Note_off_c, 1, 56, 0
3, 44544, Note_on_c, 1, 43, 60
3, 44696, Note_off_c, 1, 43, 0
3, 45120, Note_on_c, 1, 56, 60
3, 45272, Note_off_c, 1, 56, 0
3, 45696, Note_on_c, 1, 58, 60
3, 45848, Note_off_c, 1, 58, 0
3, 46272, Note_on_c, 1, 58, 60
3, 46424, Note_off_c, 1, 58, 0
3, 46848, Note_on_c, 1, 51, 100
3, 46924, Note_off_c, 1, 51, 0
3, 46944, Note_on_c, 1, 58, 100
3, 47020, Note_off_c, 1, 58, 0
3, 47040, Note_on_c, 1, 55, 60
3, 47116, Note_off_c, 1, 55, 0
3, 47136, Note_on_c, 1, 58, 60
3, 47212, Note_off_c, 1, 58, 0
3, 47232, Note_on_c, 1, 51, 60
3, 47308, Note_off_c, 1, 51, 0
3, 47328, Note_on_c, 1, 58, 60
3, 47404, Note_off_c, 1, 58, 0
3, 47424, Note_on_c, 1, 50, 100
3, 47500, Note_off_c, 1, 50, 0
3, 47520, Note_on_c, 1, 58, 100
3, 47596, Note_off_c, 1, 58, 0
3, 47616, Note_on_c, 1, 56, 60
3, 47692, Note_off_c, 1, 56, 0
3, 47712, Note_on_c, 1, 58, 60
3, 47788, Note_off_c, 1, 58, 0
3, 47808, Note_on_c, 1, 50, 60
3, 47884, Note_off_c, 1, 50, 0
3, 47904, Note_on_c, 1, 58, 60
3, 47980, Note_off_c, 1, 58, 0
3, 48000, Note_on_c, 1, 49, 100
3, 48076, Note_off_c, 1, 49, 0
3, 48096, Note_on_c, 1, 58, 100
3, 48172, Note_off_c, 1, 58, 0
3, 48192, Note_on_c, 1, 51, 60
3, 48268, Note_off_c, 1, 51, 0
3, 48288, Note_on_c, 1, 58, 60
3, 48364, Note_off_c, 1, 58, 0
3, 48384, Note_on_c, 1, 49, 60
3, 48460, Note_off_c, 1, 49, 0
3, 48480, Note_on_c, 1, 58, 60
3, 48556, Note_off_c, 1, 58, 0
3, 48576, Note_on_c, 1, 48, 60
3, 48652, Note_off_c, 1, 48, 0
3, 48672, Note_on_c, 1, 56, 60
3, 48748, Note_off_c, 1, 56, 0
3, 48768, Note_on_c, 1, 51, 60
3, 48844, Note_off_c, 1, 51, 0
3, 48864, Note_on_c, 1, 56, 60
3, 48940, Note_off_c, 1, 56, 0
3, 48960, Note_on_c, 1, 48, 60
3, 49036, Note_off_c, 1, 48, 0
3, 49056, Note_on_c, 1, 56, 60
3, 49132, Note_off_c, 1, 56, 0
3, 49152, Note_on_c, 1, 43, 60
3, 49304, Note_off_c, 1, 43, 0
3, 49728, Note_on_c, 1, 44, 60
3, 49728, Note_on_c, 1, 53, 60
3, 49880, Note_off_c, 1, 53, 0
3, 49880, Note_off_c, 1, 44, 0
3, 50304, Note_on_c, 1, 55, 60
3, 50304, Note_on_c, 1, 46, 60
3, 50456, Note_off_c, 1, 46, 0
3, 50456, Note_off_c, 1, 55, 0
3, 50880, Note_on_c, 1, 53, 60
3, 50880, Note_on_c, 1, 46, 60
3, 50976, Note_on_c, 1, 56, 60
3, 51032, Note_off_c, 1, 46, 0
3, 51032, Note_off_c, 1, 53, 0
3, 51052, Note_off_c, 1, 56, 0
3, 51456, Note_on_c, 1, 51, 60
3, 51552, Note_on_c, 1, 58, 60
3, 51608, Note_off_c, 1, 51, 0
3, 51628, Note_off_c, 1, 58, 0
3, 51648, Note_on_c, 1, 55, 60
3, 51724, Note_off_c, 1, 55, 0
3, 51744, Note_on_c, 1, 58, 60
3, 51820, Note_off_c, 1, 58, 0
3, 51840, Note_on_c, 1, 55, 60
3, 51916, Note_off_c, 1, 55, 0
3, 51936, Note_on_c, 1, 58, 60
3, 52012, Note_off_c, 1, 58, 0
3, 52032, Note_on_c, 1, 46, 60
3, 52032, Note_on_c, 1, 56, 60
3, 52108, Note_off_c, 1, 56, 0
3, 52128, Note_on_c, 1, 58, 60
3, 52184, Note_off_c, 1, 46, 0
3, 52204, Note_off_c, 1, 58, 0
3, 52224, Note_on_c, 1, 48, 60
3, 52224, Note_on_c, 1, 56, 60
3, 52300, Note_off_c, 1, 56, 0
3, 52320, Note_on_c, 1, 58, 60
3, 52376, Note_off_c, 1, 48, 0
3, 52396, Note_off_c, 1, 58, 0
3, 52416, Note_on_c, 1, 56, 60
3, 52416, Note_on_c, 1, 50, 60
3, 52492, Note_off_c, 1, 56, 0
3, 52512, Note_on_c, 1, 58, 60
3, 52568, Note_off_c, 1, 50, 0
3, 52588, Note_off_c, 1, 58, 0
3, 52608, Note_on_c, 1, 51, 60
3, 52608, Note_on_c, 1, 55, 60
3, 52684, Note_off_c, 1, 55, 0
3, 52704, Note_on_c, 1, 51, 60
3, 52760, Note_off_c, 1, 51, 0
3, 52780, Note_off_c, 1, 51, 0
3, 52800, Note_on_c, 1, 46, 60
3, 52876, Note_off_c, 1, 46, 0
3, 52896, Note_on_c, 1, 51, 60
3, 52972, Note_off_c, 1, 51, 0
3, 52992, Note_on_c, 1, 43, 60
3, 53068, Note_off_c, 1, 43, 0
3, 53088, Note_on_c, 1, 46, 60
3, 53164, Note_off_c, 1, 46, 0
3, 53184, Note_on_c, 1, 58, 60
3, 53184, Note_on_c, 1, 44, 60
3, 53260, Note_off_c, 1, 44, 0
3, 53280, Note_on_c, 1, 46, 60
3, 53336, Note_off_c, 1, 58, 0
3, 53356, Note_off_c, 1, 46, 0
3, 53376, Note_on_c, 1, 44, 60
3, 53452, Note_off_c, 1, 44, 0
3, 53472, Note_on_c, 1, 46, 60
3, 53548, Note_off_c, 1, 46, 0
3, 53568, Note_on_c, 1, 44, 60
3, 53644, Note_off_c, 1, 44, 0
3, 53664, Note_on_c, 1, 46, 60
3, 53740, Note_off_c, 1, 46, 0
3, 53760, Note_on_c, 1, 43, 60
3, 53836, Note_off_c, 1, 43, 0
3, 53856, Note_on_c, 1, 39, 60
3, 53932, Note_off_c, 1, 39, 0
3, 53952, Note_on_c, 1, 34, 60
3, 54028, Note_off_c, 1, 34, 0
3, 54048, Note_on_c, 1, 39, 60
3, 54124, Note_off_c, 1, 39, 0
3, 54144, Note_on_c, 1, 34, 60
3, 54220, Note_off_c, 1, 34, 0
3, 54240, Note_on_c, 1, 39, 60
3, 54316, Note_off_c, 1, 39, 0
3, 54336, Note_on_c, 1, 32, 60
3, 54412, Note_off_c, 1, 32, 0
3, 54432, Note_on_c, 1, 34, 60
3, 54508, Note_off_c, 1, 34, 0
3, 54528, Note_on_c, 1, 32, 60
3, 54604, Note_off_c, 1, 32, 0
3, 54624, Note_on_c, 1, 34, 60
3, 54700, Note_off_c, 1, 34, 0
3, 54720, Note_on_c, 1, 32, 60
3, 54796, Note_off_c, 1, 32, 0
3, 54816, Note_on_c, 1, 34, 60
3, 54892, Note_off_c, 1, 34, 0
3, 54912, Note_on_c, 1, 31, 60
3, 55142, Note_off_c, 1, 31, 0
3, 55200, Note_on_c, 1, 34, 60
3, 55276, Note_off_c, 1, 34, 0
3, 55296, Note_on_c, 1, 39, 60
3, 55372, Note_off_c, 1, 39, 0
3, 55392, Note_on_c, 1, 34, 60
3, 55468, Note_off_c, 1, 34, 0
3, 55488, Note_on_c, 1, 43, 60
3, 55564, Note_off_c, 1, 43, 0
3, 55584, Note_on_c, 1, 39, 60
3, 55660, Note_off_c, 1, 39, 0
3, 55680, Note_on_c, 1, 46, 60
3, 55756, Note_off_c, 1, 46, 0
3, 55776, Note_on_c, 1, 43, 60
3, 55852, Note_off_c, 1, 43, 0
3, 55872, Note_on_c, 1, 51, 60
3, 55948, Note_off_c, 1, 51, 0
3, 55968, Note_on_c, 1, 46, 60
3, 56044, Note_off_c, 1, 46, 0
3, 56064, Note_on_c, 1, 51, 60
3, 56064, Note_on_c, 1, 41, 60
3, 56064, Note_on_c, 1, 39, 60
3, 56064, Note_on_c, 1, 45, 60
3, 56140, Note_off_c, 1, 51, 0
3, 56160, Note_on_c, 1, 48, 60
3, 56236, Note_off_c, 1, 48, 0
3, 56256, Note_on_c, 1, 57, 60
3, 56332, Note_off_c, 1, 57, 0
3, 56352, Note_on_c, 1, 51, 60
3, 56428, Note_off_c, 1, 51, 0
3, 56524, Note_off_c, 1, 41, 0
3, 56524, Note_off_c, 1, 39, 0
3, 56524, Note_off_c, 1, 45, 0
3, 56544, Note_on_c, 1, 57, 60
3, 56620, Note_off_c, 1, 57, 0
3, 56640, Note_on_c, 1, 53, 60
3, 56640, Note_on_c, 1, 51, 60
3, 56640, Note_on_c, 1, 57, 60
3, 57100, Note_off_c, 1, 57, 0
3, 57100, Note_off_c, 1, 51, 0
3, 57100, Note_off_c, 1, 53, 0
3, 57216, Note_on_c, 1, 53, 60
3, 57216, Note_on_c, 1, 50, 60
3, 57216, Note_on_c, 1, 59, 60
3, 57676, Note_off_c, 1, 59, 0
3, 57676, Note_off_c, 1, 50, 0
3, 57676, Note_off_c, 1, 53, 0
3, 57792, Note_on_c, 1, 56, 60
3, 57792, Note_on_c, 1, 48, 60
3, 57792, Note_on_c, 1, 50, 60
3, 58252, Note_off_c, 1, 50, 0
3, 58252, Note_off_c, 1, 48, 0
3, 58252, Note_off_c, 1, 56, 0
3, 58368, Note_on_c, 1, 55, 60
3, 58368, Note_on_c, 1, 50, 60
3, 58368, Note_on_c, 1, 47, 60
3, 58520, Note_off_c, 1, 47, 0
3, 58520, Note_off_c, 1, 50, 0
3, 58520, Note_off_c, 1, 55, 0
3, 60672, Note_on_c, 1, 59, 60
3, 61132, Note_off_c, 1, 59, 0
3, 64128, Note_on_c, 1, 51, 60
3, 64128, Note_on_c, 1, 48, 60
3, 64588, Note_off_c, 1, 48, 0
3, 64588, Note_off_c, 1, 51, 0
3, 64704, Note_on_c, 1, 53, 60
3, 64704, Note_on_c, 1, 50, 60
3, 64896, Note_on_c, 1, 59, 60
3, 65048, Note_off_c, 1, 59, 0
3, 65164, Note_off_c, 1, 50, 0
3, 65164, Note_off_c, 1, 53, 0
3, 65280, Note_on_c, 1, 47, 60
3, 65280, Note_on_c, 1, 50, 60
3, 65740, Note_off_c, 1, 50, 0
3, 65740, Note_off_c, 1, 47, 0
3, 65856, Note_on_c, 1, 46, 60
3, 65856, Note_on_c, 1, 49, 60
3, 66316, Note_off_c, 1, 49, 0
3, 66316, Note_off_c, 1, 46, 0
3, 66432, Note_on_c, 1, 52, 60
3, 66432, Note_on_c, 1, 55, 60
3, 66738, Note_off_c, 1, 55, 0
3, 66738, Note_off_c, 1, 52, 0
3, 67008, Note_on_c, 1, 53, 60
3, 67160, Note_off_c, 1, 53, 0
3, 67200, Note_on_c, 1, 55, 60
3, 67352, Note_off_c, 1, 55, 0
3, 67392, Note_on_c, 1, 56, 60
3, 67544, Note_off_c, 1, 56, 0
3, 67584, Note_on_c, 1, 55, 60
3, 67736, Note_off_c, 1, 55, 0
3, 67968, Note_on_c, 1, 59, 60
3, 67968, Note_on_c, 1, 53, 60
3, 67968, Note_on_c, 1, 43, 60
3, 68120, Note_off_c, 1, 43, 0
3, 68120, Note_off_c, 1, 53, 0
3, 68120, Note_off_c, 1, 59, 0
3, 68160, Note_on_c, 1, 51, 60
3, 68160, Note_on_c, 1, 48, 60
3, 68312, Note_off_c, 1, 48, 0
3, 68312, Note_off_c, 1, 51, 0
3, 68736, Note_on_c, 1, 59, 100
3, 68812, Note_off_c, 1, 59, 0
3, 68832, Note_on_c, 1, 55, 100
3, 68908, Note_off_c, 1, 55, 0
3, 69024, Note_on_c, 1, 55, 100
3, 69100, Note_off_c, 1, 55, 0
3, 69216, Note_on_c, 1, 55, 100
3, 69292, Note_off_c, 1, 55, 0
3, 69408, Note_on_c, 1, 55, 100
3, 69484, Note_off_c, 1, 55, 0
3, 69600, Note_on_c, 1, 55, 100
3, 69676, Note_off_c, 1, 55, 0
3, 69792, Note_on_c, 1, 55, 100
3, 69868, Note_off_c, 1, 55, 0
3, 69888, Note_on_c, 1, 59, 100
3, 69964, Note_off_c, 1, 59, 0
3, 69984, Note_on_c, 1, 55, 100
3, 70060, Note_off_c, 1, 55, 0
3, 70176, Note_on_c, 1, 55, 100
3, 70252, Note_off_c, 1, 55, 0
3, 70368, Note_on_c, 1, 55, 100
3, 70444, Note_off_c, 1, 55, 0
3, 70560, Note_on_c, 1, 55, 100
3, 70636, Note_off_c, 1, 55, 0
3, 70752, Note_on_c, 1, 55, 100
3, 70828, Note_off_c, 1, 55, 0
3, 70944, Note_on_c, 1, 55, 100
3, 71020, Note_off_c, 1, 55, 0
3, 71232, Note_on_c, 1, 41, 100
3, 71232, Note_on_c, 1, 53, 100
3, 71384, Note_off_c, 1, 53, 0
3, 71384, Note_off_c, 1, 41, 0
3, 71424, Note_on_c, 1, 53, 100
3, 71576, Note_off_c, 1, 53, 0
3, 71808, Note_on_c, 1, 51, 100
3, 71808, Note_on_c, 1, 39, 100
3, 71960, Note_off_c, 1, 39, 0
3, 71960, Note_off_c, 1, 51, 0
3, 72000, Note_on_c, 1, 51, 100
3, 72152, Note_off_c, 1, 51, 0
3, 72192, Note_on_c, 1, 50, 100
3, 72344, Note_off_c, 1, 50, 0
3, 72768, Note_on_c, 1, 59, 100
3, 72768, Note_on_c, 1, 47, 100
3, 72920, Note_off_c, 1, 47, 0
3, 72920, Note_off_c, 1, 59, 0
3, 75072, Note_on_c, 1, 59, 60
3, 75378, Note_off_c, 1, 59, 0
3, 75648, Note_on_c, 1, 53, 80
3, 75800, Note_off_c, 1, 53, 0
3, 75840, Note_on_c, 1, 55, 80
3, 75992, Note_off_c, 1, 55, 0
3, 76032, Note_on_c, 1, 43, 80
3, 76044, Note_on_c, 1, 59, 80
3, 76184, Note_off_c, 1, 43, 0
3, 76196, Note_off_c, 1, 59, 0
3, 76224, Note_on_c, 1, 48, 80
3, 76376, Note_off_c, 1, 48, 0
3, 76800, Note_on_c, 1, 59, 100
3, 76876, Note_off_c, 1, 59, 0
3, 76896, Note_on_c, 1, 55, 100
3, 76972, Note_off_c, 1, 55, 0
3, 77088, Note_on_c, 1, 55, 100
3, 77164, Note_off_c, 1, 55, 0
3, 77280, Note_on_c, 1, 55, 100
3, 77356, Note_off_c, 1, 55, 0
3, 77472, Note_on_c, 1, 55, 100
3, 77548, Note_off_c, 1, 55, 0
3, 77664, Note_on_c, 1, 55, 100
3, 77740, Note_off_c, 1, 55, 0
3, 77856, Note_on_c, 1, 55, 100
3, 77932, Note_off_c, 1, 55, 0
3, 77952, Note_on_c, 1, 59, 100
3, 78028, Note_off_c, 1, 59, 0
3, 78048, Note_on_c, 1, 55, 100
3, 78124, Note_off_c, 1, 55, 0
3, 78240, Note_on_c, 1, 55, 100
3, 78316, Note_off_c, 1, 55, 0
3, 78432, Note_on_c, 1, 55, 100
3, 78508, Note_off_c, 1, 55, 0
3, 78624, Note_on_c, 1, 55, 100
3, 78700, Note_off_c, 1, 55, 0
3, 78816, Note_on_c, 1, 55, 100
3, 78892, Note_off_c, 1, 55, 0
3, 79008, Note_on_c, 1, 55, 100
3, 79084, Note_off_c, 1, 55, 0
3, 79296, Note_on_c, 1, 53, 100
3, 79296, Note_on_c, 1, 41, 100
3, 79448, Note_off_c, 1, 41, 0
3, 79448, Note_off_c, 1, 53, 0
3, 79488, Note_on_c, 1, 53, 100
3, 79640, Note_off_c, 1, 53, 0
3, 79872, Note_on_c, 1, 51, 100
3, 79872, Note_on_c, 1, 39, 100
3, 80024, Note_off_c, 1, 39, 0
3, 80024, Note_off_c, 1, 51, 0
3, 80064, Note_on_c, 1, 51, 100
3, 80216, Note_off_c, 1, 51, 0
3, 80256, Note_on_c, 1, 50, 100
3, 80408, Note_off_c, 1, 50, 0
3, 80832, Note_on_c, 1, 59, 100
3, 80832, Note_on_c, 1, 47, 100
3, 80984, Note_off_c, 1, 47, 0
3, 80984, Note_off_c, 1, 59, 0
3, 81984, Note_on_c, 1, 49, 100
3, 82136, Note_off_c, 1, 49, 0
3, 82176, Note_on_c, 1, 58, 100
3, 82176, Note_on_c, 1, 46, 100
3, 82328, Note_off_c, 1, 46, 0
3, 82328, Note_off_c, 1, 58, 0
3, 82368, Note_on_c, 1, 55, 100
3, 82368, Note_on_c, 1, 43, 100
3, 82520, Note_off_c, 1, 43, 0
3, 82520, Note_off_c, 1, 55, 0
3, 82560, Note_on_c, 1, 52, 100
3, 82560, Note_on_c, 1, 40, 100
3, 82712, Note_off_c, 1, 40, 0
3, 82712, Note_off_c, 1, 52, 0
3, 83712, Note_on_c, 1, 53, 60
3, 83864, Note_off_c, 1, 53, 0
3, 83904, Note_on_c, 1, 56, 60
3, 84056, Note_off_c, 1, 56, 0
3, 84288, Note_on_c, 1, 52, 60
3, 84440, Note_off_c, 1, 52, 0
3, 84480, Note_on_c, 1, 55, 60
3, 84632, Note_off_c, 1, 55, 0
3, 84672, Note_on_c, 1, 58, 60
3, 84824, Note_off_c, 1, 58, 0
3, 84864, Note_on_c, 1, 53, 60
3, 85016, Note_off_c, 1, 53, 0
3, 85056, Note_on_c, 1, 56, 60
3, 85208, Note_off_c, 1, 56, 0
3, 85440, Note_on_c, 1, 52, 60
3, 85592, Note_off_c, 1, 52, 0
3, 85632, Note_on_c, 1, 55, 60
3, 85784, Note_off_c, 1, 55, 0
3, 85824, Note_on_c, 1, 58, 60
3, 85976, Note_off_c, 1, 58, 0
3, 86016, Note_on_c, 1, 53, 60
3, 86168, Note_off_c, 1, 53, 0
3, 86208, Note_on_c, 1, 56, 60
3, 86360, Note_off_c, 1, 56, 0
3, 86592, Note_on_c, 1, 52, 60
3, 86744, Note_off_c, 1, 52, 0
3, 86784, Note_on_c, 1, 55, 60
3, 86936, Note_off_c, 1, 55, 0
3, 86976, Note_on_c, 1, 58, 60
3, 87128, Note_off_c, 1, 58, 0
3, 87168, Note_on_c, 1, 53, 60
3, 87320, Note_off_c, 1, 53, 0
3, 87360, Note_on_c, 1, 56, 60
3, 87512, Note_off_c, 1, 56, 0
3, 87744, Note_on_c, 1, 51, 60
3, 87896, Note_off_c, 1, 51, 0
3, 87936, Note_on_c, 1, 55, 60
3, 88088, Note_off_c, 1, 55, 0
3, 88320, Note_on_c, 1, 50, 100
3, 88472, Note_off_c, 1, 50, 0
3, 88512, Note_on_c, 1, 48, 100
3, 88664, Note_off_c, 1, 48, 0
3, 88704, Note_on_c, 1, 57, 100
3, 88704, Note_on_c, 1, 45, 100
3, 88856, Note_off_c, 1, 45, 0
3, 88856, Note_off_c, 1, 57, 0
3, 88896, Note_on_c, 1, 54, 100
3, 88896, Note_on_c, 1, 42, 100
3, 89048, Note_off_c, 1, 42, 0
3, 89048, Note_off_c, 1, 54, 0
3, 90048, Note_on_c, 1, 55, 60
3, 90200, Note_off_c, 1, 55, 0
3, 90240, Note_on_c, 1, 58, 60
3, 90392, Note_off_c, 1, 58, 0
3, 90624, Note_on_c, 1, 54, 60
3, 90776, Note_off_c, 1, 54, 0
3, 90816, Note_on_c, 1, 57, 60
3, 90968, Note_off_c, 1, 57, 0
3, 91200, Note_on_c, 1, 55, 60
3, 91352, Note_off_c, 1, 55, 0
3, 91392, Note_on_c, 1, 58, 60
3, 91544, Note_off_c, 1, 58, 0
3, 91776, Note_on_c, 1, 54, 60
3, 91928, Note_off_c, 1, 54, 0
3, 91968, Note_on_c, 1, 57, 60
3, 92120, Note_off_c, 1, 57, 0
3, 92352, Note_on_c, 1, 55, 60
3, 92504, Note_off_c, 1, 55, 0
3, 92544, Note_on_c, 1, 58, 60
3, 92696, Note_off_c, 1, 58, 0
3, 92928, Note_on_c, 1, 54, 60
3, 93080, Note_off_c, 1, 54, 0
3, 93120, Note_on_c, 1, 57, 67
3, 93272, Note_off_c, 1, 57, 0
3, 93504, Note_on_c, 1, 55, 80
3, 93656, Note_off_c, 1, 55, 0
3, 93696, Note_on_c, 1, 58, 87
3, 93848, Note_off_c, 1, 58, 0
3, 94080, Note_on_c, 1, 55, 100
3, 94232, Note_off_c, 1, 55, 0
3, 94272, Note_on_c, 1, 59, 107
3, 94424, Note_off_c, 1, 59, 0
3, 94656, Note_on_c, 1, 59, 60
3, 95692, Note_off_c, 1, 59, 0
3, 95808, Note_on_c, 1, 48, 60
3, 95884, Note_off_c, 1, 48, 0
3, 95904, Note_on_c, 1, 51, 60
3, 95980, Note_off_c, 1, 51, 0
3, 96000, Note_on_c, 1, 55, 60
3, 96076, Note_off_c, 1, 55, 0
3, 96096, Note_on_c, 1, 51, 60
3, 96172, Note_off_c, 1, 51, 0
3, 96192, Note_on_c, 1, 55, 60
3, 96268, Note_off_c, 1, 55, 0
3, 96288, Note_on_c, 1, 51, 60
3, 96364, Note_off_c, 1, 51, 0
3, 96384, Note_on_c, 1, 48, 60
3, 96460, Note_off_c, 1, 48, 0
3, 96480, Note_on_c, 1, 51, 60
3, 96556, Note_off_c, 1, 51, 0
3, 96576, Note_on_c, 1, 55, 60
3, 96652, Note_off_c, 1, 55, 0
3, 96672, Note_on_c, 1, 51, 60
3, 96748, Note_off_c, 1, 51, 0
3, 96768, Note_on_c, 1, 55, 60
3, 96844, Note_off_c, 1, 55, 0
3, 96864, Note_on_c, 1, 51, 60
3, 96940, Note_off_c, 1, 51, 0
3, 96960, Note_on_c, 1, 48, 60
3, 97036, Note_off_c, 1, 48, 0
3, 97056, Note_on_c, 1, 50, 60
3, 97132, Note_off_c, 1, 50, 0
3, 97152, Note_on_c, 1, 53, 60
3, 97228, Note_off_c, 1, 53, 0
3, 97248, Note_on_c, 1, 50, 60
3, 97324, Note_off_c, 1, 50, 0
3, 97344, Note_on_c, 1, 53, 60
3, 97420, Note_off_c, 1, 53, 0
3, 97440, Note_on_c, 1, 50, 60
3, 97516, Note_off_c, 1, 50, 0
3, 97536, Note_on_c, 1, 48, 60
3, 97612, Note_off_c, 1, 48, 0
3, 97632, Note_on_c, 1, 50, 60
3, 97708, Note_off_c, 1, 50, 0
3, 97728, Note_on_c, 1, 53, 60
3, 97804, Note_off_c, 1, 53, 0
3, 97824, Note_on_c, 1, 50, 60
3, 97900, Note_off_c, 1, 50, 0
3, 97920, Note_on_c, 1, 53, 60
3, 97996, Note_off_c, 1, 53, 0
3, 98016, Note_on_c, 1, 50, 60
3, 98092, Note_off_c, 1, 50, 0
3, 98112, Note_on_c, 1, 48, 60
3, 98188, Note_off_c, 1, 48, 0
3, 98208, Note_on_c, 1, 51, 60
3, 98284, Note_off_c, 1, 51, 0
3, 98304, Note_on_c, 1, 55, 60
3, 98380, Note_off_c, 1, 55, 0
3, 98400, Note_on_c, 1, 51, 60
3, 98476, Note_off_c, 1, 51, 0
3, 98496, Note_on_c, 1, 55, 60
3, 98572, Note_off_c, 1, 55, 0
3, 98592, Note_on_c, 1, 51, 60
3, 98668, Note_off_c, 1, 51, 0
3, 98688, Note_on_c, 1, 48, 60
3, 98764, Note_off_c, 1, 48, 0
3, 98784, Note_on_c, 1, 51, 60
3, 98860, Note_off_c, 1, 51, 0
3, 98880, Note_on_c, 1, 55, 60
3, 98956, Note_off_c, 1, 55, 0
3, 98976, Note_on_c, 1, 51, 60
3, 99052, Note_off_c, 1, 51, 0
3, 99072, Note_on_c, 1, 55, 60
3, 99148, Note_off_c, 1, 55, 0
3, 99168, Note_on_c, 1, 51, 60
3, 99244, Note_off_c, 1, 51, 0
3, 99264, Note_on_c, 1, 48, 60
3, 99340, Note_off_c, 1, 48, 0
3, 99360, Note_on_c, 1, 50, 60
3, 99436, Note_off_c, 1, 50, 0
3, 99456, Note_on_c, 1, 53, 60
3, 99532, Note_off_c, 1, 53, 0
3, 99552, Note_on_c, 1, 50, 60
3, 99628, Note_off_c, 1, 50, 0
3, 99648, Note_on_c, 1, 53, 60
3, 99724, Note_off_c, 1, 53, 0
3, 99744, Note_on_c, 1, 50, 60
3, 99820, Note_off_c, 1, 50, 0
3, 99840, Note_on_c, 1, 48, 60
3, 99916, Note_off_c, 1, 48, 0
3, 99936, Note_on_c, 1, 50, 60
3, 100012, Note_off_c, 1, 50, 0
3, 100032, Note_on_c, 1, 53, 60
3, 100108, Note_off_c, 1, 53, 0
3, 100128, Note_on_c, 1, 50, 60
3, 100204, Note_off_c, 1, 50, 0
3, 100224, Note_on_c, 1, 53, 60
3, 100300, Note_off_c, 1, 53, 0
3, 100320, Note_on_c, 1, 50, 60
3, 100396, Note_off_c, 1, 50, 0
3, 100416, Note_on_c, 1, 48, 60
3, 100492, Note_off_c, 1, 48, 0
3, 100512, Note_on_c, 1, 51, 60
3, 100588, Note_off_c, 1, 51, 0
3, 100608, Note_on_c, 1, 55, 60
3, 100684, Note_off_c, 1, 55, 0
3, 100704, Note_on_c, 1, 51, 60
3, 100780, Note_off_c, 1, 51, 0
3, 100800, Note_on_c, 1, 55, 60
3, 100876, Note_off_c, 1, 55, 0
3, 100896, Note_on_c, 1, 51, 60
3, 100972, Note_off_c, 1, 51, 0
3, 100992, Note_on_c, 1, 46, 70
3, 101068, Note_off_c, 1, 46, 0
3, 101088, Note_on_c, 1, 52, 70
3, 101164, Note_off_c, 1, 52, 0
3, 101184, Note_on_c, 1, 55, 80
3, 101260, Note_off_c, 1, 55, 0
3, 101280, Note_on_c, 1, 52, 80
3, 101356, Note_off_c, 1, 52, 0
3, 101376, Note_on_c, 1, 55, 90
3, 101452, Note_off_c, 1, 55, 0
3, 101472, Note_on_c, 1, 52, 90
3, 101548, Note_off_c, 1, 52, 0
3, 101568, Note_on_c, 1, 45, 100
3, 101644, Note_off_c, 1, 45, 0
3, 101664, Note_on_c, 1, 48, 100
3, 101740, Note_off_c, 1, 48, 0
3, 101760, Note_on_c, 1, 53, 100
3, 101836, Note_off_c, 1, 53, 0
3, 101856, Note_on_c, 1, 48, 100
3, 101932, Note_off_c, 1, 48, 0
3, 101952, Note_on_c, 1, 53, 100
3, 102028, Note_off_c, 1, 53, 0
3, 102048, Note_on_c, 1, 48, 100
3, 102124, Note_off_c, 1, 48, 0
3, 102144, Note_on_c, 1, 44, 100
3, 102220, Note_off_c, 1, 44, 0
3, 102240, Note_on_c, 1, 48, 100
3, 102316, Note_off_c, 1, 48, 0
3, 102336, Note_on_c, 1, 51, 100
3, 102412, Note_off_c, 1, 51, 0
3, 102432, Note_on_c, 1, 48, 100
3, 102508, Note_off_c, 1, 48, 0
3, 102528, Note_on_c, 1, 51, 100
3, 102604, Note_off_c, 1, 51, 0
3, 102624, Note_on_c, 1, 48, 100
3, 102700, Note_off_c, 1, 48, 0
3, 102720, Note_on_c, 1, 43, 100
3, 102720, Note_on_c, 1, 47, 100
3, 102872, Note_off_c, 1, 47, 0
3, 102872, Note_off_c, 1, 43, 0
3, 102912, Note_on_c, 1, 53, 100
3, 103064, Note_off_c, 1, 53, 0
3, 103680, Note_on_c, 1, 56, 60
3, 103832, Note_off_c, 1, 56, 0
3, 103872, Note_on_c, 1, 55, 60
3, 103872, Note_on_c, 1, 59, 60
3, 104024, Note_off_c, 1, 59, 0
3, 104024, Note_off_c, 1, 55, 0
3, 104064, Note_on_c, 1, 43, 60
3, 104160, Note_on_c, 1, 55, 60
3, 104216, Note_off_c, 1, 43, 0
3, 104236, Note_off_c, 1, 55, 0
3, 104256, Note_on_c, 1, 54, 60
3, 104332, Note_off_c, 1, 54, 0
3, 104352, Note_on_c, 1, 55, 60
3, 104428, Note_off_c, 1, 55, 0
3, 104448, Note_on_c, 1, 56, 60
3, 104524, Note_off_c, 1, 56, 0
3, 104544, Note_on_c, 1, 57, 60
3, 104620, Note_off_c, 1, 57, 0
3, 104640, Note_on_c, 1, 58, 60
3, 104716, Note_off_c, 1, 58, 0
3, 104736, Note_on_c, 1, 59, 60
3, 104812, Note_off_c, 1, 59, 0
3, 104832, Note_on_c, 1, 44, 60
3, 104832, Note_on_c, 1, 48, 60
3, 104928, Note_on_c, 1, 54, 60
3, 104984, Note_off_c, 1, 48, 0
3, 104984, Note_off_c, 1, 44, 0
3, 105004, Note_off_c, 1, 54, 0
3, 105024, Note_on_c, 1, 43, 60
3, 105024, Note_on_c, 1, 47, 60
3, 105024, Note_on_c, 1, 55, 60
3, 105176, Note_off_c, 1, 55, 0
3, 105176, Note_off_c, 1, 47, 0
3, 105176, Note_off_c, 1, 43, 0
3, 105216, Note_on_c, 1, 31, 60
3, 105368, Note_off_c, 1, 31, 0
3, 105792, Note_on_c, 1, 55, 60
3, 105944, Note_off_c, 1, 55, 0
3, 106368, Note_on_c, 1, 43, 60
3, 106464, Note_on_c, 1, 54, 60
3, 106520, Note_off_c, 1, 43, 0
3, 106540, Note_off_c, 1, 54, 0
3, 106560, Note_on_c, 1, 55, 60
3, 106636, Note_off_c, 1, 55, 0
3, 106656, Note_on_c, 1, 54, 60
3, 106732, Note_off_c, 1, 54, 0
3, 106752, Note_on_c, 1, 55, 60
3, 106904, Note_off_c, 1, 55, 0
3, 106944, Note_on_c, 1, 31, 60
3, 107040, Note_on_c, 1, 42, 100
3, 107096, Note_off_c, 1, 31, 0
3, 107116, Note_off_c, 1, 42, 0
3, 107136, Note_on_c, 1, 43, 100
3, 107212, Note_off_c, 1, 43, 0
3, 107232, Note_on_c, 1, 42, 100
3, 107308, Note_off_c, 1, 42, 0
3, 107328, Note_on_c, 1, 43, 100
3, 107404, Note_off_c, 1, 43, 0
3, 107424, Note_on_c, 1, 38, 100
3, 107500, Note_off_c, 1, 38, 0
3, 107520, Note_on_c, 1, 39, 100
3, 107596, Note_off_c, 1, 39, 0
3, 107616, Note_on_c, 1, 35, 100
3, 107692, Note_off_c, 1, 35, 0
3, 107712, Note_on_c, 1, 36, 100
3, 107788, Note_off_c, 1, 36, 0
3, 107808, Note_on_c, 1, 30, 100
3, 107884, Note_off_c, 1, 30, 0
3, 107904, Note_on_c, 1, 31, 100
3, 107980, Note_off_c, 1, 31, 0
3, 108000, Note_on_c, 1, 30, 100
3, 108076, Note_off_c, 1, 30, 0
3, 108096, Note_on_c, 1, 31, 100
3, 108172, Note_off_c, 1, 31, 0
3, 108192, Note_on_c, 1, 30, 100
3, 108268, Note_off_c, 1, 30, 0
3, 108288, Note_on_c, 1, 31, 100
3, 108364, Note_off_c, 1, 31, 0
3, 108384, Note_on_c, 1, 30, 100
3, 108460, Note_off_c, 1, 30, 0
3, 108480, Note_on_c, 1, 31, 100
3, 108556, Note_off_c, 1, 31, 0
3, 108576, Note_on_c, 1, 35, 100
3, 108652, Note_off_c, 1, 35, 0
3, 108672, Note_on_c, 1, 38, 100
3, 108748, Note_off_c, 1, 38, 0
3, 108768, Note_on_c, 1, 43, 100
3, 108844, Note_off_c, 1, 43, 0
3, 108864, Note_on_c, 1, 47, 100
3, 108940, Note_off_c, 1, 47, 0
3, 108960, Note_on_c, 1, 50, 100
3, 109036, Note_off_c, 1, 50, 0
3, 109056, Note_on_c, 1, 55, 100
3, 109132, Note_off_c, 1, 55, 0
3, 109152, Note_on_c, 1, 59, 100
3, 109228, Note_off_c, 1, 59, 0
3, 109824, Note_on_c, 1, 44, 100
3, 109824, Note_on_c, 1, 32, 100
3, 109976, Note_off_c, 1, 32, 0
3, 109976, Note_off_c, 1, 44, 0
3, 110016, Note_on_c, 1, 56, 100
3, 110016, Note_on_c, 1, 44, 100
3, 110168, Note_off_c, 1, 44, 0
3, 110168, Note_off_c, 1, 56, 0
3, 110208, Note_on_c, 1, 56, 100
3, 110208, Note_on_c, 1, 44, 100
3, 110360, Note_off_c, 1, 44, 0
3, 110360, Note_off_c, 1, 56, 0
3, 110400, Note_on_c, 1, 55, 100
3, 110400, Note_on_c, 1, 43, 100
3, 110552, Note_off_c, 1, 43, 0
3, 110552, Note_off_c, 1, 55, 0
3, 110592, Note_on_c, 1, 53, 100
3, 110592, Note_on_c, 1, 41, 100
3, 110744, Note_off_c, 1, 41, 0
3, 110744, Note_off_c, 1, 53, 0
3, 110784, Note_on_c, 1, 52, 100
3, 110784, Note_on_c, 1, 40, 100
3, 111090, Note_off_c, 1, 40, 0
3, 111090, Note_off_c, 1, 52, 0
3, 111168, Note_on_c, 1, 58, 100
3, 111168, Note_on_c, 1, 46, 100
3, 111320, Note_off_c, 1, 46, 0
3, 111320, Note_off_c, 1, 58, 0
3, 111360, Note_on_c, 1, 45, 100
3, 111360, Note_on_c, 1, 57, 100
3, 111666, Note_off_c, 1, 57, 0
3, 111666, Note_off_c, 1, 45, 0
3, 111744, Note_on_c, 1, 56, 60
3, 111896, Note_off_c, 1, 56, 0
3, 111936, Note_on_c, 1, 55, 60
3, 112242, Note_off_c, 1, 55, 0
3, 112320, Note_on_c, 1, 54, 60
3, 112472, Note_off_c, 1, 54, 0
3, 112512, Note_on_c, 1, 55, 60
3, 112818, Note_off_c, 1, 55, 0
3, 113088, Note_on_c, 1, 48, 100
3, 113164, Note_off_c, 1, 48, 0
3, 113184, Note_on_c, 1, 55, 100
3, 113260, Note_off_c, 1, 55, 0
3, 113280, Note_on_c, 1, 51, 60
3, 113356, Note_off_c, 1, 51, 0
3, 113376, Note_on_c, 1, 55, 60
3, 113452, Note_off_c, 1, 55, 0
3, 113472, Note_on_c, 1, 48, 60
3, 113548, Note_off_c, 1, 48, 0
3, 113568, Note_on_c, 1, 55, 60
3, 113644, Note_off_c, 1, 55, 0
3, 113664, Note_on_c, 1, 47, 100
3, 113740, Note_off_c, 1, 47, 0
3, 113760, Note_on_c, 1, 55, 100
3, 113836, Note_off_c, 1, 55, 0
3, 113856, Note_on_c, 1, 53, 60
3, 113932, Note_off_c, 1, 53, 0
3, 113952, Note_on_c, 1, 55, 60
3, 114028, Note_off_c, 1, 55, 0
3, 114048, Note_on_c, 1, 47, 60
3, 114124, Note_off_c, 1, 47, 0
3, 114144, Note_on_c, 1, 55, 60
3, 114220, Note_off_c, 1, 55, 0
3, 114240, Note_on_c, 1, 46, 100
3, 114316, Note_off_c, 1, 46, 0
3, 114336, Note_on_c, 1, 55, 100
3, 114412, Note_off_c, 1, 55, 0
3, 114432, Note_on_c, 1, 48, 60
3, 114508, Note_off_c, 1, 48, 0
3, 114528, Note_on_c, 1, 55, 60
3, 114604, Note_off_c, 1, 55, 0
3, 114624, Note_on_c, 1, 46, 60
3, 114700, Note_off_c, 1, 46, 0
3, 114720, Note_on_c, 1, 55, 60
3, 114796, Note_off_c, 1, 55, 0
3, 114816, Note_on_c, 1, 44, 100
3, 114892, Note_off_c, 1, 44, 0
3, 114912, Note_on_c, 1, 53, 100
3, 114988, Note_off_c, 1, 53, 0
3, 115008, Note_on_c, 1, 48, 60
3, 115084, Note_off_c, 1, 48, 0
3, 115104, Note_on_c, 1, 53, 60
3, 115180, Note_off_c, 1, 53, 0
3, 115200, Note_on_c, 1, 44, 60
3, 115276, Note_off_c, 1, 44, 0
3, 115296, Note_on_c, 1, 53, 60
3, 115372, Note_off_c, 1, 53, 0
3, 115392, Note_on_c, 1, 39, 60
3, 115544, Note_off_c, 1, 39, 0
3, 115968, Note_on_c, 1, 53, 60
3, 116120, Note_off_c, 1, 53, 0
3, 116544, Note_on_c, 1, 55, 60
3, 116696, Note_off_c, 1, 55, 0
3, 117120, Note_on_c, 1, 55, 60
3, 117272, Note_off_c, 1, 55, 0
3, 117696, Note_on_c, 1, 48, 100
3, 117772, Note_off_c, 1, 48, 0
3, 117792, Note_on_c, 1, 55, 100
3, 117868, Note_off_c, 1, 55, 0
3, 117888, Note_on_c, 1, 51, 60
3, 117964, Note_off_c, 1, 51, 0
3, 117984, Note_on_c, 1, 55, 60
3, 118060, Note_off_c, 1, 55, 0
3, 118080, Note_on_c, 1, 59, 60
3, 118080, Note_on_c, 1, 48, 60
3, 118156, Note_off_c, 1, 48, 0
3, 118156, Note_off_c, 1, 59, 0
3, 118176, Note_on_c, 1, 55, 60
3, 118252, Note_off_c, 1, 55, 0
3, 118272, Note_on_c, 1, 47, 100
3, 118348, Note_off_c, 1, 47, 0
3, 118368, Note_on_c, 1, 55, 100
3, 118444, Note_off_c, 1, 55, 0
3, 118464, Note_on_c, 1, 53, 60
3, 118540, Note_off_c, 1, 53, 0
3, 118560, Note_on_c, 1, 55, 60
3, 118636, Note_off_c, 1, 55, 0
3, 118656, Note_on_c, 1, 47, 60
3, 118732, Note_off_c, 1, 47, 0
3, 118752, Note_on_c, 1, 55, 60
3, 118828, Note_off_c, 1, 55, 0
3, 118848, Note_on_c, 1, 46, 100
3, 118924, Note_off_c, 1, 46, 0
3, 118944, Note_on_c, 1, 55, 100
3, 119020, Note_off_c, 1, 55, 0
3, 119040, Note_on_c, 1, 48, 60
3, 119116, Note_off_c, 1, 48, 0
3, 119136, Note_on_c, 1, 55, 60
3, 119212, Note_off_c, 1, 55, 0
3, 119232, Note_on_c, 1, 46, 60
3, 119308, Note_off_c, 1, 46, 0
3, 119328, Note_on_c, 1, 55, 60
3, 119404, Note_off_c, 1, 55, 0
3, 119424, Note_on_c, 1, 45, 100
3, 119500, Note_off_c, 1, 45, 0
3, 119520, Note_on_c, 1, 53, 100
3, 119596, Note_off_c, 1, 53, 0
3, 119616, Note_on_c, 1, 48, 60
3, 119692, Note_off_c, 1, 48, 0
3, 119712, Note_on_c, 1, 53, 60
3, 119788, Note_off_c, 1, 53, 0
3, 119808, Note_on_c, 1, 45, 60
3, 119884, Note_off_c, 1, 45, 0
3, 119904, Note_on_c, 1, 53, 60
3, 119980, Note_off_c, 1, 53, 0
3, 120000, Note_on_c, 1, 44, 100
3, 120076, Note_off_c, 1, 44, 0
3, 120096, Note_on_c, 1, 51, 100
3, 120172, Note_off_c, 1, 51, 0
3, 120192, Note_on_c, 1, 48, 60
3, 120268, Note_off_c, 1, 48, 0
3, 120288, Note_on_c, 1, 51, 60
3, 120364, Note_off_c, 1, 51, 0
3, 120384, Note_on_c, 1, 44, 60
3, 120460, Note_off_c, 1, 44, 0
3, 120480, Note_on_c, 1, 51, 60
3, 120556, Note_off_c, 1, 51, 0
3, 120576, Note_on_c, 1, 43, 100
3, 120652, Note_off_c, 1, 43, 0
3, 120672, Note_on_c, 1, 51, 100
3, 120748, Note_off_c, 1, 51, 0
3, 120768, Note_on_c, 1, 48, 60
3, 120844, Note_off_c, 1, 48, 0
3, 120864, Note_on_c, 1, 51, 60
3, 120940, Note_off_c, 1, 51, 0
3, 120960, Note_on_c, 1, 43, 60
3, 121036, Note_off_c, 1, 43, 0
3, 121056, Note_on_c, 1, 51, 60
3, 121132, Note_off_c, 1, 51, 0
3, 121152, Note_on_c, 1, 42, 60
3, 121612, Note_off_c, 1, 42, 0
3, 121728, Note_on_c, 1, 54, 60
3, 122188, Note_off_c, 1, 54, 0
3, 122304, Note_on_c, 1, 55, 60
3, 122764, Note_off_c, 1, 55, 0
3, 122880, Note_on_c, 1, 56, 63
3, 123340, Note_off_c, 1, 56, 0
3, 123456, Note_on_c, 1, 55, 72
3, 123916, Note_off_c, 1, 55, 0
3, 124032, Note_on_c, 1, 56, 84
3, 124492, Note_off_c, 1, 56, 0
3, 124608, Note_on_c, 1, 55, 100
3, 124760, Note_off_c, 1, 55, 0
3, 125568, Note_on_c, 1, 59, 100
3, 125644, Note_off_c, 1, 59, 0
3, 125664, Note_on_c, 1, 56, 100
3, 125740, Note_off_c, 1, 56, 0
3, 125760, Note_on_c, 1, 55, 100
3, 125912, Note_off_c, 1, 55, 0
3, 128064, Note_on_c, 1, 59, 60
3, 128524, Note_off_c, 1, 59, 0
3, 131520, Note_on_c, 1, 48, 60
3, 131520, Note_on_c, 1, 51, 60
3, 131980, Note_off_c, 1, 51, 0
3, 131980, Note_off_c, 1, 48, 0
3, 132096, Note_on_c, 1, 56, 60
3, 132096, Note_on_c, 1, 53, 60
3, 132096, Note_on_c, 1, 50, 60
3, 132672, Note_on_c, 1, 59, 60
3, 132824, Note_off_c, 1, 59, 0
3, 132824, Note_off_c, 1, 50, 0
3, 132824, Note_off_c, 1, 53, 0
3, 132824, Note_off_c, 1, 56, 0
3, 133824, Note_on_c, 1, 50, 60
3, 133824, Note_on_c, 1, 47, 60
3, 134284, Note_off_c, 1, 47, 0
3, 134284, Note_off_c, 1, 50, 0
3, 134400, Note_on_c, 1, 55, 60
3, 134400, Note_on_c, 1, 49, 60
3, 134400, Note_on_c, 1, 46, 60
3, 135128, Note_off_c, 1, 46, 0
3, 135128, Note_off_c, 1, 49, 0
3, 135128, Note_off_c, 1, 55, 0
3, 136128, Note_on_c, 1, 52, 60
3, 136588, Note_off_c, 1, 52, 0
3, 136704, Note_on_c, 1, 53, 60
3, 137432, Note_off_c, 1, 53, 0
3, 138432, Note_on_c, 1, 53, 60
3, 138432, Note_on_c, 1, 56, 60
3, 138892, Note_off_c, 1, 56, 0
3, 138892, Note_off_c, 1, 53, 0
3, 139008, Note_on_c, 1, 57, 60
3, 139008, Note_on_c, 1, 54, 60
3, 139736, Note_off_c, 1, 54, 0
3, 139736, Note_off_c, 1, 57, 0
3, 140736, Note_on_c, 1, 56, 60
3, 141196, Note_off_c, 1, 56, 0
3, 141312, Note_on_c, 1, 55, 60
3, 141464, Note_off_c, 1, 55, 0
3, 141888, Note_on_c, 1, 59, 60
3, 141888, Note_on_c, 1, 53, 60
3, 141888, Note_on_c, 1, 50, 60
3, 141888, Note_on_c, 1, 43, 60
3, 142040, Note_off_c, 1, 43, 0
3, 142040, Note_off_c, 1, 50, 0
3, 142040, Note_off_c, 1, 53, 0
3, 142040, Note_off_c, 1, 59, 0
3, 142464, Note_on_c, 1, 51, 60
3, 142464, Note_on_c, 1, 48, 60
3, 142464, Note_on_c, 1, 36, 60
3, 142616, Note_off_c, 1, 36, 0
3, 142616, Note_off_c, 1, 48, 0
3, 142616, Note_off_c, 1, 51, 0
3, 143244, Note_on_c, 1, 59, 100
3, 143320, Note_off_c, 1, 59, 0
3, 143340, Note_on_c, 1, 55, 100
3, 143416, Note_off_c, 1, 55, 0
3, 143532, Note_on_c, 1, 55, 100
3, 143608, Note_off_c, 1, 55, 0
3, 143712, Note_on_c, 1, 55, 100
3, 143788, Note_off_c, 1, 55, 0
3, 143904, Note_on_c, 1, 55, 100
3, 143980, Note_off_c, 1, 55, 0
3, 144096, Note_on_c, 1, 55, 100
3, 144172, Note_off_c, 1, 55, 0
3, 144288, Note_on_c, 1, 55, 100
3, 144364, Note_off_c, 1, 55, 0
3, 144384, Note_on_c, 1, 59, 100
3, 144460, Note_off_c, 1, 59, 0
3, 144480, Note_on_c, 1, 55, 100
3, 144556, Note_off_c, 1, 55, 0
3, 144672, Note_on_c, 1, 55, 100
3, 144748, Note_off_c, 1, 55, 0
3, 144864, Note_on_c, 1, 55, 100
3, 144940, Note_off_c, 1, 55, 0
3, 145056, Note_on_c, 1, 55, 100
3, 145132, Note_off_c, 1, 55, 0
3, 145248, Note_on_c, 1, 55, 100
3, 145324, Note_off_c, 1, 55, 0
3, 145440, Note_on_c, 1, 55, 100
3, 145516, Note_off_c, 1, 55, 0
3, 145728, Note_on_c, 1, 41, 100
3, 145728, Note_on_c, 1, 53, 100
3, 145880, Note_off_c, 1, 53, 0
3, 145880, Note_off_c, 1, 41, 0
3, 145920, Note_on_c, 1, 53, 100
3, 146072, Note_off_c, 1, 53, 0
3, 146304, Note_on_c, 1, 51, 100
3, 146304, Note_on_c, 1, 39, 100
3, 146456, Note_off_c, 1, 39, 0
3, 146456, Note_off_c, 1, 51, 0
3, 146496, Note_on_c, 1, 51, 100
3, 146648, Note_off_c, 1, 51, 0
3, 146688, Note_on_c, 1, 50, 100
3, 146840, Note_off_c, 1, 50, 0
3, 147264, Note_on_c, 1, 59, 100
3, 147264, Note_on_c, 1, 47, 100
3, 147416, Note_off_c, 1, 47, 0
3, 147416, Note_off_c, 1, 59, 0
3, 149376, Note_on_c, 1, 59, 60
3, 149682, Note_off_c, 1, 59, 0
3, 149952, Note_on_c, 1, 53, 60
3, 150104, Note_off_c, 1, 53, 0
3, 150144, Note_on_c, 1, 55, 60
3, 150296, Note_off_c, 1, 55, 0
3, 150336, Note_on_c, 1, 43, 60
3, 150348, Note_on_c, 1, 59, 60
3, 150488, Note_off_c, 1, 43, 0
3, 150500, Note_off_c, 1, 59, 0
3, 150528, Note_on_c, 1, 48, 60
3, 150680, Note_off_c, 1, 48, 0
3, 151104, Note_on_c, 1, 59, 100
3, 151180, Note_off_c, 1, 59, 0
3, 151200, Note_on_c, 1, 55, 100
3, 151276, Note_off_c, 1, 55, 0
3, 151392, Note_on_c, 1, 55, 100
3, 151468, Note_off_c, 1, 55, 0
3, 151584, Note_on_c, 1, 55, 100
3, 151660, Note_off_c, 1, 55, 0
3, 151776, Note_on_c, 1, 55, 100
3, 151852, Note_off_c, 1, 55, 0
3, 151968, Note_on_c, 1, 55, 100
3, 152044, Note_off_c, 1, 55, 0
3, 152160, Note_on_c, 1, 55, 100
3, 152236, Note_off_c, 1, 55, 0
3, 152256, Note_on_c, 1, 59, 100
3, 152332, Note_off_c, 1, 59, 0
3, 152352, Note_on_c, 1, 55, 100
3, 152428, Note_off_c, 1, 55, 0
3, 152544, Note_on_c, 1, 55, 100
3, 152620, Note_off_c, 1, 55, 0
3, 152736, Note_on_c, 1, 55, 100
3, 152812, Note_off_c, 1, 55, 0
3, 152928, Note_on_c, 1, 55, 100
3, 153004, Note_off_c, 1, 55, 0
3, 153120, Note_on_c, 1, 55, 100
3, 153196, Note_off_c, 1, 55, 0
3, 153312, Note_on_c, 1, 55, 100
3, 153388, Note_off_c, 1, 55, 0
3, 153600, Note_on_c, 1, 53, 100
3, 153600, Note_on_c, 1, 41, 100
3, 153752, Note_off_c, 1, 41, 0
3, 153752, Note_off_c, 1, 53, 0
3, 153792, Note_on_c, 1, 53, 100
3, 153944, Note_off_c, 1, 53, 0
3, 154176, Note_on_c, 1, 51, 100
3, 154176, Note_on_c, 1, 39, 100
3, 154328, Note_off_c, 1, 39, 0
3, 154328, Note_off_c, 1, 51, 0
3, 154368, Note_on_c, 1, 51, 100
3, 154520, Note_off_c, 1, 51, 0
3, 154560, Note_on_c, 1, 50, 100
3, 154712, Note_off_c, 1, 50, 0
3, 155136, Note_on_c, 1, 59, 100
3, 155136, Note_on_c, 1, 47, 100
3, 155288, Note_off_c, 1, 47, 0
3, 155288, Note_off_c, 1, 59, 0
3, 156288, Note_on_c, 1, 49, 100
3, 156440, Note_off_c, 1, 49, 0
3, 156480, Note_on_c, 1, 58, 100
3, 156480, Note_on_c, 1, 46, 100
3, 156632, Note_off_c, 1, 46, 0
3, 156632, Note_off_c, 1, 58, 0
3, 156672, Note_on_c, 1, 55, 100
3, 156672, Note_on_c, 1, 43, 100
3, 156824, Note_off_c, 1, 43, 0
3, 156824, Note_off_c, 1, 55, 0
3, 156864, Note_on_c, 1, 52, 100
3, 156864, Note_on_c, 1, 40, 100
3, 157016, Note_off_c, 1, 40, 0
3, 157016, Note_off_c, 1, 52, 0
3, 158016, Note_on_c, 1, 53, 60
3, 158168, Note_off_c, 1, 53, 0
3, 158208, Note_on_c, 1, 56, 60
3, 158360, Note_off_c, 1, 56, 0
3, 158592, Note_on_c, 1, 52, 60
3, 158744, Note_off_c, 1, 52, 0
3, 158784, Note_on_c, 1, 55, 60
3, 158936, Note_off_c, 1, 55, 0
3, 158976, Note_on_c, 1, 58, 60
3, 159128, Note_off_c, 1, 58, 0
3, 159168, Note_on_c, 1, 53, 60
3, 159320, Note_off_c, 1, 53, 0
3, 159360, Note_on_c, 1, 56, 60
3, 159512, Note_off_c, 1, 56, 0
3, 159744, Note_on_c, 1, 52, 60
3, 159896, Note_off_c, 1, 52, 0
3, 159936, Note_on_c, 1, 55, 60
3, 160088, Note_off_c, 1, 55, 0
3, 160128, Note_on_c, 1, 58, 60
3, 160280, Note_off_c, 1, 58, 0
3, 160320, Note_on_c, 1, 53, 60
3, 160472, Note_off_c, 1, 53, 0
3, 160512, Note_on_c, 1, 56, 60
3, 160664, Note_off_c, 1, 56, 0
3, 160896, Note_on_c, 1, 52, 60
3, 161048, Note_off_c, 1, 52, 0
3, 161088, Note_on_c, 1, 55, 60
3, 161240, Note_off_c, 1, 55, 0
3, 161280, Note_on_c, 1, 58, 60
3, 161432, Note_off_c, 1, 58, 0
3, 161472, Note_on_c, 1, 53, 60
3, 161624, Note_off_c, 1, 53, 0
3, 161664, Note_on_c, 1, 56, 60
3, 161816, Note_off_c, 1, 56, 0
3, 162048, Note_on_c, 1, 52, 60
3, 162200, Note_off_c, 1, 52, 0
3, 162240, Note_on_c, 1, 55, 60
3, 162392, Note_off_c, 1, 55, 0
3, 162432, Note_on_c, 1, 58, 60
3, 162584, Note_off_c, 1, 58, 0
3, 162624, Note_on_c, 1, 53, 60
3, 162776, Note_off_c, 1, 53, 0
3, 162816, Note_on_c, 1, 56, 60
3, 162968, Note_off_c, 1, 56, 0
3, 163008, Note_on_c, 1, 53, 60
3, 163160, Note_off_c, 1, 53, 0
3, 163200, Note_on_c, 1, 54, 70
3, 163352, Note_off_c, 1, 54, 0
3, 163392, Note_on_c, 1, 57, 80
3, 163544, Note_off_c, 1, 57, 0
3, 163776, Note_on_c, 1, 55, 100
3, 163928, Note_off_c, 1, 55, 0
3, 164352, Note_on_c, 1, 55, 100
3, 164504, Note_off_c, 1, 55, 0
3, 165504, Note_on_c, 1, 55, 60
3, 165656, Note_off_c, 1, 55, 0
3, 165696, Note_on_c, 1, 57, 60
3, 165848, Note_off_c, 1, 57, 0
3, 165888, Note_on_c, 1, 59, 60
3, 166040, Note_off_c, 1, 59, 0
3, 166272, Note_on_c, 1, 55, 60
3, 166348, Note_off_c, 1, 55, 0
3, 166464, Note_on_c, 1, 51, 60
3, 166540, Note_off_c, 1, 51, 0
3, 166560, Note_on_c, 1, 55, 60
3, 166636, Note_off_c, 1, 55, 0
3, 166656, Note_on_c, 1, 53, 60
3, 166732, Note_off_c, 1, 53, 0
3, 166752, Note_on_c, 1, 55, 60
3, 166828, Note_off_c, 1, 55, 0
3, 166848, Note_on_c, 1, 53, 60
3, 166924, Note_off_c, 1, 53, 0
3, 166944, Note_on_c, 1, 55, 60
3, 167020, Note_off_c, 1, 55, 0
3, 167040, Note_on_c, 1, 53, 60
3, 167116, Note_off_c, 1, 53, 0
3, 167136, Note_on_c, 1, 55, 60
3, 167212, Note_off_c, 1, 55, 0
3, 167232, Note_on_c, 1, 51, 60
3, 167308, Note_off_c, 1, 51, 0
3, 167328, Note_on_c, 1, 55, 60
3, 167404, Note_off_c, 1, 55, 0
3, 167424, Note_on_c, 1, 51, 60
3, 167500, Note_off_c, 1, 51, 0
3, 167520, Note_on_c, 1, 55, 60
3, 167596, Note_off_c, 1, 55, 0
3, 167616, Note_on_c, 1, 51, 60
3, 167692, Note_off_c, 1, 51, 0
3, 167712, Note_on_c, 1, 55, 60
3, 167788, Note_off_c, 1, 55, 0
3, 167808, Note_on_c, 1, 53, 60
3, 167884, Note_off_c, 1, 53, 0
3, 167904, Note_on_c, 1, 55, 60
3, 167980, Note_off_c, 1, 55, 0
3, 168000, Note_on_c, 1, 53, 60
3, 168076, Note_off_c, 1, 53, 0
3, 168096, Note_on_c, 1, 55, 60
3, 168172, Note_off_c, 1, 55, 0
3, 168192, Note_on_c, 1, 53, 60
3, 168268, Note_off_c, 1, 53, 0
3, 168288, Note_on_c, 1, 55, 60
3, 168364, Note_off_c, 1, 55, 0
3, 168384, Note_on_c, 1, 51, 60
3, 168460, Note_off_c, 1, 51, 0
3, 168480, Note_on_c, 1, 55, 60
3, 168556, Note_off_c, 1, 55, 0
3, 168576, Note_on_c, 1, 51, 60
3, 168652, Note_off_c, 1, 51, 0
3, 168672, Note_on_c, 1, 55, 60
3, 168748, Note_off_c, 1, 55, 0
3, 168768, Note_on_c, 1, 51, 60
3, 168844, Note_off_c, 1, 51, 0
3, 168864, Note_on_c, 1, 55, 60
3, 168940, Note_off_c, 1, 55, 0
3, 168960, Note_on_c, 1, 52, 60
3, 169036, Note_off_c, 1, 52, 0
3, 169152, Note_on_c, 1, 52, 60
3, 169228, Note_off_c, 1, 52, 0
3, 169344, Note_on_c, 1, 52, 60
3, 169420, Note_off_c, 1, 52, 0
3, 169536, Note_on_c, 1, 53, 60
3, 169612, Note_off_c, 1, 53, 0
3, 169728, Note_on_c, 1, 53, 60
3, 169804, Note_off_c, 1, 53, 0
3, 169920, Note_on_c, 1, 53, 60
3, 169996, Note_off_c, 1, 53, 0
3, 170112, Note_on_c, 1, 55, 60
3, 170188, Note_off_c, 1, 55, 0
3, 170208, Note_on_c, 1, 59, 60
3, 170284, Note_off_c, 1, 59, 0
3, 170304, Note_on_c, 1, 55, 60
3, 170380, Note_off_c, 1, 55, 0
3, 170400, Note_on_c, 1, 59, 60
3, 170476, Note_off_c, 1, 59, 0
3, 170496, Note_on_c, 1, 55, 60
3, 170572, Note_off_c, 1, 55, 0
3, 170592, Note_on_c, 1, 59, 60
3, 170668, Note_off_c, 1, 59, 0
3, 170688, Note_on_c, 1, 56, 60
3, 170764, Note_off_c, 1, 56, 0
3, 170880, Note_on_c, 1, 56, 60
3, 170956, Note_off_c, 1, 56, 0
3, 171072, Note_on_c, 1, 56, 60
3, 171148, Note_off_c, 1, 56, 0
3, 171264, Note_on_c, 1, 53, 60
3, 171340, Note_off_c, 1, 53, 0
3, 171360, Note_on_c, 1, 56, 60
3, 171436, Note_off_c, 1, 56, 0
3, 171456, Note_on_c, 1, 53, 60
3, 171532, Note_off_c, 1, 53, 0
3, 171552, Note_on_c, 1, 56, 60
3, 171628, Note_off_c, 1, 56, 0
3, 171648, Note_on_c, 1, 53, 60
3, 171724, Note_off_c, 1, 53, 0
3, 171744, Note_on_c, 1, 56, 60
3, 171820, Note_off_c, 1, 56, 0
3, 171840, Note_on_c, 1, 55, 60
3, 171916, Note_off_c, 1, 55, 0
3, 172032, Note_on_c, 1, 55, 60
3, 172108, Note_off_c, 1, 55, 0
3, 172224, Note_on_c, 1, 55, 60
3, 172300, Note_off_c, 1, 55, 0
3, 172416, Note_on_c, 1, 55, 60
3, 172492, Note_off_c, 1, 55, 0
3, 172608, Note_on_c, 1, 55, 60
3, 172684, Note_off_c, 1, 55, 0
3, 172800, Note_on_c, 1, 55, 60
3, 172876, Note_off_c, 1, 55, 0
3, 172992, Note_on_c, 1, 56, 60
3, 173452, Note_off_c, 1, 56, 0
3, 174720, Note_on_c, 1, 42, 60
3, 175180, Note_off_c, 1, 42, 0
3, 175296, Note_on_c, 1, 43, 60
3, 175756, Note_off_c, 1, 43, 0
3, 175872, Note_on_c, 1, 44, 60
3, 176332, Note_off_c, 1, 44, 0
3, 176448, Note_on_c, 1, 45, 60
3, 176908, Note_off_c, 1, 45, 0
3, 177024, Note_on_c, 1, 43, 60
3, 177484, Note_off_c, 1, 43, 0
3, 177600, Note_on_c, 1, 48, 60
3, 177752, Note_off_c, 1, 48, 0
3, 180672, Note_on_c, 1, 43, 60
3, 180748, Note_off_c, 1, 43, 0
3, 180768, Note_on_c, 1, 45, 60
3, 180844, Note_off_c, 1, 45, 0
3, 180864, Note_on_c, 1, 47, 60
3, 180940, Note_off_c, 1, 47, 0
3, 180960, Note_on_c, 1, 43, 60
3, 181036, Note_off_c, 1, 43, 0
3, 181056, Note_on_c, 1, 48, 60
3, 181208, Note_off_c, 1, 48, 0
3, 181248, Note_on_c, 1, 36, 60
3, 181324, Note_off_c, 1, 36, 0
3, 181344, Note_on_c, 1, 38, 60
3, 181420, Note_off_c, 1, 38, 0
3, 181440, Note_on_c, 1, 39, 60
3, 181516, Note_off_c, 1, 39, 0
3, 181536, Note_on_c, 1, 36, 60
3, 181612, Note_off_c, 1, 36, 0
3, 181632, Note_on_c, 1, 43, 60
3, 181784, Note_off_c, 1, 43, 0
3, 181824, Note_on_c, 1, 31, 60
3, 181900, Note_off_c, 1, 31, 0
3, 181920, Note_on_c, 1, 33, 60
3, 181996, Note_off_c, 1, 33, 0
3, 182016, Note_on_c, 1, 35, 60
3, 182092, Note_off_c, 1, 35, 0
3, 182112, Note_on_c, 1, 31, 60
3, 182188, Note_off_c, 1, 31, 0
3, 182208, Note_on_c, 1, 36, 60
3, 182360, Note_off_c, 1, 36, 0
3, 182784, Note_on_c, 1, 55, 60
3, 182784, Note_on_c, 1, 51, 60
3, 182784, Note_on_c, 1, 48, 60
3, 182936, Note_off_c, 1, 48, 0
3, 182936, Note_off_c, 1, 51, 0
3, 182936, Note_off_c, 1, 55, 0
3, 183360, Note_on_c, 1, 48, 60
3, 183360, Note_on_c, 1, 43, 60
3, 183360, Note_on_c, 1, 39, 60
3, 183360, Note_on_c, 1, 36, 60
3, 183512, Note_off_c, 1, 36, 0
3, 183512, Note_off_c, 1, 39, 0
3, 183512, Note_off_c, 1, 43, 0
3, 183512, Note_off_c, 1, 48, 0
3, 183512, End_track
4, 0, Start_track
4, 0, Title_t, "Piano Sonata no. 14 mov.3"
4, 0, Channel_prefix, 2
4, 0, Control_c, 2, 7, 100
4, 0, Program_c, 2, 0
4, 0, End_track
5, 0, Start_track
5, 0, Title_t, "by Wolfgang Amadeus Mozart"
5, 0, Channel_prefix, 3
5, 0, Control_c, 3, 7, 100
5, 0, Program_c, 3, 0
5, 0, End_track
6, 0, Start_track
6, 0, Title_t, "Sequenced by Dan Szymborski"
6, 0, Channel_prefix, 4
6, 0, Control_c, 4, 7, 100
6, 0, Program_c, 4, 0
6, 0, End_track
7, 0, Start_track
7, 0, Title_t, "Czerny@msn.com"
7, 0, Channel_prefix, 5
7, 0, Control_c, 5, 7, 100
7, 0, Program_c, 5, 0
7, 0, End_track
0, 0, End_of_file
