0, 0, Header, 1, 6, 192
1, 0, Start_track
1, 0, Tempo, 500000
1, 0, Time_signature, 4, 2, 96, 8
1, 0, Key_signature, 0, "major"
1, 0, End_track
2, 0, Start_track
2, 0, Title_t, "RH"
2, 0, Channel_prefix, 0
2, 0, Control_c, 0, 7, 127
2, 0, Program_c, 0, 0
2, 0, Control_c, 0, 0, 0
2, 0, Note_on_c, 0, 64, 94
2, 0, Note_on_c, 0, 67, 94
2, 0, Note_on_c, 0, 72, 94
2, 48, Note_on_c, 0, 60, 94
2, 85, Note_off_c, 0, 60, 0
2, 144, Note_on_c, 0, 60, 94
2, 152, Note_off_c, 0, 72, 0
2, 152, Note_off_c, 0, 67, 0
2, 152, Note_off_c, 0, 64, 0
2, 181, Note_off_c, 0, 60, 0
2, 288, Note_on_c, 0, 72, 94
2, 325, Note_off_c, 0, 72, 0
2, 336, Note_on_c, 0, 71, 94
2, 373, Note_off_c, 0, 71, 0
2, 384, Note_on_c, 0, 74, 94
2, 421, Note_off_c, 0, 74, 0
2, 432, Note_on_c, 0, 72, 94
2, 469, Note_off_c, 0, 72, 0
2, 480, Note_on_c, 0, 76, 94
2, 517, Note_off_c, 0, 76, 0
2, 528, Note_on_c, 0, 74, 94
2, 565, Note_off_c, 0, 74, 0
2, 576, Note_on_c, 0, 77, 94
2, 613, Note_off_c, 0, 77, 0
2, 624, Note_on_c, 0, 76, 94
2, 661, Note_off_c, 0, 76, 0
2, 672, Note_on_c, 0, 79, 94
2, 709, Note_off_c, 0, 79, 0
2, 720, Note_on_c, 0, 77, 94
2, 757, Note_off_c, 0, 77, 0
2, 768, Note_on_c, 0, 77, 94
2, 768, Note_on_c, 0, 74, 94
2, 768, Note_on_c, 0, 81, 94
2, 768, Note_on_c, 0, 69, 94
2, 920, Note_off_c, 0, 69, 0
2, 920, Note_off_c, 0, 81, 0
2, 920, Note_off_c, 0, 74, 0
2, 920, Note_off_c, 0, 77, 0
2, 960, Note_on_c, 0, 79, 94
2, 997, Note_off_c, 0, 79, 0
2, 1008, Note_on_c, 0, 77, 94
2, 1045, Note_off_c, 0, 77, 0
2, 1056, Note_on_c, 0, 76, 94
2, 1093, Note_off_c, 0, 76, 0
2, 1104, Note_on_c, 0, 74, 94
2, 1141, Note_off_c, 0, 74, 0
2, 1152, Note_on_c, 0, 72, 94
2, 1169, Note_off_c, 0, 72, 0
2, 1176, Note_on_c, 0, 74, 94
2, 1193, Note_off_c, 0, 74, 0
2, 1200, Note_on_c, 0, 71, 94
2, 1237, Note_off_c, 0, 71, 0
2, 1248, Note_on_c, 0, 72, 94
2, 1285, Note_off_c, 0, 72, 0
2, 1296, Note_on_c, 0, 76, 94
2, 1333, Note_off_c, 0, 76, 0
2, 1344, Note_on_c, 0, 74, 94
2, 1381, Note_off_c, 0, 74, 0
2, 1392, Note_on_c, 0, 77, 94
2, 1429, Note_off_c, 0, 77, 0
2, 1440, Note_on_c, 0, 71, 94
2, 1477, Note_off_c, 0, 71, 0
2, 1488, Note_on_c, 0, 74, 94
2, 1525, Note_off_c, 0, 74, 0
2, 1536, Note_on_c, 0, 64, 94
2, 1536, Note_on_c, 0, 67, 94
2, 1536, Note_on_c, 0, 72, 94
2, 1584, Note_on_c, 0, 60, 94
2, 1621, Note_off_c, 0, 60, 0
2, 1680, Note_on_c, 0, 60, 94
2, 1688, Note_off_c, 0, 72, 0
2, 1688, Note_off_c, 0, 67, 0
2, 1688, Note_off_c, 0, 64, 0
2, 1717, Note_off_c, 0, 60, 0
2, 1824, Note_on_c, 0, 72, 94
2, 1861, Note_off_c, 0, 72, 0
2, 1872, Note_on_c, 0, 71, 94
2, 1909, Note_off_c, 0, 71, 0
2, 1920, Note_on_c, 0, 74, 94
2, 1957, Note_off_c, 0, 74, 0
2, 1968, Note_on_c, 0, 72, 94
2, 2005, Note_off_c, 0, 72, 0
2, 2016, Note_on_c, 0, 76, 94
2, 2053, Note_off_c, 0, 76, 0
2, 2064, Note_on_c, 0, 74, 94
2, 2101, Note_off_c, 0, 74, 0
2, 2112, Note_on_c, 0, 77, 94
2, 2149, Note_off_c, 0, 77, 0
2, 2160, Note_on_c, 0, 76, 94
2, 2197, Note_off_c, 0, 76, 0
2, 2208, Note_on_c, 0, 79, 94
2, 2245, Note_off_c, 0, 79, 0
2, 2256, Note_on_c, 0, 76, 94
2, 2293, Note_off_c, 0, 76, 0
2, 2304, Note_on_c, 0, 77, 94
2, 2304, Note_on_c, 0, 74, 94
2, 2304, Note_on_c, 0, 81, 94
2, 2304, Note_on_c, 0, 69, 94
2, 2456, Note_off_c, 0, 69, 0
2, 2456, Note_off_c, 0, 81, 0
2, 2456, Note_off_c, 0, 74, 0
2, 2456, Note_off_c, 0, 77, 0
2, 2496, Note_on_c, 0, 79, 94
2, 2533, Note_off_c, 0, 79, 0
2, 2544, Note_on_c, 0, 77, 94
2, 2581, Note_off_c, 0, 77, 0
2, 2592, Note_on_c, 0, 76, 94
2, 2629, Note_off_c, 0, 76, 0
2, 2640, Note_on_c, 0, 74, 94
2, 2677, Note_off_c, 0, 74, 0
2, 2688, Note_on_c, 0, 72, 94
2, 2705, Note_off_c, 0, 72, 0
2, 2712, Note_on_c, 0, 74, 94
2, 2729, Note_off_c, 0, 74, 0
2, 2736, Note_on_c, 0, 71, 94
2, 2773, Note_off_c, 0, 71, 0
2, 2784, Note_on_c, 0, 72, 94
2, 2821, Note_off_c, 0, 72, 0
2, 2832, Note_on_c, 0, 76, 94
2, 2869, Note_off_c, 0, 76, 0
2, 2880, Note_on_c, 0, 74, 94
2, 2917, Note_off_c, 0, 74, 0
2, 2928, Note_on_c, 0, 77, 94
2, 2965, Note_off_c, 0, 77, 0
2, 2976, Note_on_c, 0, 71, 94
2, 3013, Note_off_c, 0, 71, 0
2, 3024, Note_on_c, 0, 74, 94
2, 3061, Note_off_c, 0, 74, 0
2, 3072, Note_on_c, 0, 60, 94
2, 3072, Note_on_c, 0, 72, 94
2, 3109, Note_off_c, 0, 60, 0
2, 3120, Note_on_c, 0, 67, 94
2, 3148, Note_off_c, 0, 72, 0
2, 3157, Note_off_c, 0, 67, 0
2, 3168, Note_on_c, 0, 64, 94
2, 3168, Note_on_c, 0, 74, 94
2, 3189, Note_off_c, 0, 74, 0
2, 3192, Note_on_c, 0, 72, 94
2, 3205, Note_off_c, 0, 64, 0
2, 3216, Note_on_c, 0, 67, 94
2, 3229, Note_off_c, 0, 72, 0
2, 3240, Note_on_c, 0, 71, 94
2, 3253, Note_off_c, 0, 67, 0
2, 3264, Note_on_c, 0, 60, 94
2, 3277, Note_off_c, 0, 71, 0
2, 3288, Note_on_c, 0, 72, 94
2, 3301, Note_off_c, 0, 60, 0
2, 3312, Note_on_c, 0, 67, 94
2, 3349, Note_off_c, 0, 67, 0
2, 3360, Note_on_c, 0, 64, 94
2, 3364, Note_off_c, 0, 72, 0
2, 3384, Note_on_c, 0, 76, 94
2, 3397, Note_off_c, 0, 64, 0
2, 3408, Note_on_c, 0, 67, 94
2, 3445, Note_off_c, 0, 67, 0
2, 3460, Note_off_c, 0, 76, 0
2, 3480, Note_on_c, 0, 73, 94
2, 3504, Note_on_c, 0, 67, 94
2, 3541, Note_off_c, 0, 67, 0
2, 3552, Note_on_c, 0, 62, 94
2, 3589, Note_off_c, 0, 62, 0
2, 3600, Note_on_c, 0, 67, 94
2, 3632, Note_off_c, 0, 73, 0
2, 3637, Note_off_c, 0, 67, 0
2, 3672, Note_on_c, 0, 74, 94
2, 3696, Note_on_c, 0, 67, 94
2, 3733, Note_off_c, 0, 67, 0
2, 3744, Note_on_c, 0, 62, 94
2, 3748, Note_off_c, 0, 74, 0
2, 3781, Note_off_c, 0, 62, 0
2, 3792, Note_on_c, 0, 67, 94
2, 3829, Note_off_c, 0, 67, 0
2, 3888, Note_on_c, 0, 67, 94
2, 3925, Note_off_c, 0, 67, 0
2, 3936, Note_on_c, 0, 76, 94
2, 3936, Note_on_c, 0, 62, 94
2, 3941, Note_off_c, 0, 76, 0
2, 3960, Note_on_c, 0, 74, 94
2, 3973, Note_off_c, 0, 62, 0
2, 3984, Note_on_c, 0, 67, 94
2, 3997, Note_off_c, 0, 74, 0
2, 4008, Note_on_c, 0, 73, 94
2, 4021, Note_off_c, 0, 67, 0
2, 4045, Note_off_c, 0, 73, 0
2, 4056, Note_on_c, 0, 74, 94
2, 4080, Note_on_c, 0, 67, 94
2, 4117, Note_off_c, 0, 67, 0
2, 4128, Note_on_c, 0, 62, 94
2, 4132, Note_off_c, 0, 74, 0
2, 4152, Note_on_c, 0, 77, 94
2, 4165, Note_off_c, 0, 62, 0
2, 4176, Note_on_c, 0, 67, 94
2, 4213, Note_off_c, 0, 67, 0
2, 4224, Note_on_c, 0, 60, 94
2, 4228, Note_off_c, 0, 77, 0
2, 4248, Note_on_c, 0, 75, 94
2, 4261, Note_off_c, 0, 60, 0
2, 4272, Note_on_c, 0, 67, 94
2, 4309, Note_off_c, 0, 67, 0
2, 4320, Note_on_c, 0, 64, 94
2, 4357, Note_off_c, 0, 64, 0
2, 4368, Note_on_c, 0, 67, 94
2, 4400, Note_off_c, 0, 75, 0
2, 4405, Note_off_c, 0, 67, 0
2, 4416, Note_on_c, 0, 60, 94
2, 4440, Note_on_c, 0, 76, 94
2, 4453, Note_off_c, 0, 60, 0
2, 4464, Note_on_c, 0, 67, 94
2, 4501, Note_off_c, 0, 67, 0
2, 4512, Note_on_c, 0, 64, 94
2, 4516, Note_off_c, 0, 76, 0
2, 4549, Note_off_c, 0, 64, 0
2, 4560, Note_on_c, 0, 67, 94
2, 4597, Note_off_c, 0, 67, 0
2, 4608, Note_on_c, 0, 60, 94
2, 4645, Note_off_c, 0, 60, 0
2, 4656, Note_on_c, 0, 67, 94
2, 4693, Note_off_c, 0, 67, 0
2, 4704, Note_on_c, 0, 64, 94
2, 4704, Note_on_c, 0, 79, 94
2, 4721, Note_off_c, 0, 79, 0
2, 4728, Note_on_c, 0, 78, 94
2, 4741, Note_off_c, 0, 64, 0
2, 4745, Note_off_c, 0, 78, 0
2, 4752, Note_on_c, 0, 67, 94
2, 4752, Note_on_c, 0, 79, 94
2, 4769, Note_off_c, 0, 79, 0
2, 4776, Note_on_c, 0, 81, 94
2, 4789, Note_off_c, 0, 67, 0
2, 4793, Note_off_c, 0, 81, 0
2, 4800, Note_on_c, 0, 60, 94
2, 4800, Note_on_c, 0, 84, 94
2, 4837, Note_off_c, 0, 60, 0
2, 4848, Note_on_c, 0, 67, 94
2, 4876, Note_off_c, 0, 84, 0
2, 4885, Note_off_c, 0, 67, 0
2, 4896, Note_on_c, 0, 82, 94
2, 4896, Note_on_c, 0, 64, 94
2, 4933, Note_off_c, 0, 64, 0
2, 4944, Note_on_c, 0, 67, 94
2, 4972, Note_off_c, 0, 82, 0
2, 4981, Note_off_c, 0, 67, 0
2, 4992, Note_on_c, 0, 60, 94
2, 4992, Note_on_c, 0, 80, 94
2, 5029, Note_off_c, 0, 60, 0
2, 5040, Note_on_c, 0, 69, 94
2, 5077, Note_off_c, 0, 69, 0
2, 5088, Note_on_c, 0, 65, 94
2, 5125, Note_off_c, 0, 65, 0
2, 5136, Note_on_c, 0, 69, 94
2, 5144, Note_off_c, 0, 80, 0
2, 5173, Note_off_c, 0, 69, 0
2, 5184, Note_on_c, 0, 60, 94
2, 5184, Note_on_c, 0, 81, 94
2, 5221, Note_off_c, 0, 60, 0
2, 5232, Note_on_c, 0, 69, 94
2, 5260, Note_off_c, 0, 81, 0
2, 5269, Note_off_c, 0, 69, 0
2, 5280, Note_on_c, 0, 65, 94
2, 5317, Note_off_c, 0, 65, 0
2, 5328, Note_on_c, 0, 69, 94
2, 5365, Note_off_c, 0, 69, 0
2, 5376, Note_on_c, 0, 60, 94
2, 5376, Note_on_c, 0, 84, 94
2, 5413, Note_off_c, 0, 60, 0
2, 5424, Note_on_c, 0, 69, 94
2, 5461, Note_off_c, 0, 69, 0
2, 5472, Note_on_c, 0, 65, 94
2, 5509, Note_off_c, 0, 65, 0
2, 5520, Note_on_c, 0, 69, 94
2, 5528, Note_off_c, 0, 84, 0
2, 5557, Note_off_c, 0, 69, 0
2, 5568, Note_on_c, 0, 60, 94
2, 5568, Note_on_c, 0, 83, 94
2, 5605, Note_off_c, 0, 83, 0
2, 5605, Note_off_c, 0, 60, 0
2, 5616, Note_on_c, 0, 81, 94
2, 5616, Note_on_c, 0, 69, 94
2, 5653, Note_off_c, 0, 69, 0
2, 5653, Note_off_c, 0, 81, 0
2, 5664, Note_on_c, 0, 79, 94
2, 5664, Note_on_c, 0, 65, 94
2, 5701, Note_off_c, 0, 65, 0
2, 5701, Note_off_c, 0, 79, 0
2, 5712, Note_on_c, 0, 77, 94
2, 5712, Note_on_c, 0, 69, 94
2, 5749, Note_off_c, 0, 69, 0
2, 5749, Note_off_c, 0, 77, 0
2, 5760, Note_on_c, 0, 60, 94
2, 5760, Note_on_c, 0, 78, 94
2, 5797, Note_off_c, 0, 60, 0
2, 5808, Note_on_c, 0, 67, 94
2, 5845, Note_off_c, 0, 67, 0
2, 5856, Note_on_c, 0, 64, 94
2, 5893, Note_off_c, 0, 64, 0
2, 5904, Note_on_c, 0, 67, 94
2, 5912, Note_off_c, 0, 78, 0
2, 5941, Note_off_c, 0, 67, 0
2, 5952, Note_on_c, 0, 60, 94
2, 5952, Note_on_c, 0, 79, 94
2, 5989, Note_off_c, 0, 60, 0
2, 6000, Note_on_c, 0, 67, 94
2, 6028, Note_off_c, 0, 79, 0
2, 6037, Note_off_c, 0, 67, 0
2, 6048, Note_on_c, 0, 64, 94
2, 6085, Note_off_c, 0, 64, 0
2, 6096, Note_on_c, 0, 67, 94
2, 6133, Note_off_c, 0, 67, 0
2, 6240, Note_on_c, 0, 60, 94
2, 6277, Note_off_c, 0, 60, 0
2, 6288, Note_on_c, 0, 64, 94
2, 6325, Note_off_c, 0, 64, 0
2, 6336, Note_on_c, 0, 67, 94
2, 6373, Note_off_c, 0, 67, 0
2, 6384, Note_on_c, 0, 72, 94
2, 6421, Note_off_c, 0, 72, 0
2, 6432, Note_on_c, 0, 76, 94
2, 6469, Note_off_c, 0, 76, 0
2, 6480, Note_on_c, 0, 79, 94
2, 6517, Note_off_c, 0, 79, 0
2, 6624, Note_on_c, 0, 60, 94
2, 6661, Note_off_c, 0, 60, 0
2, 6672, Note_on_c, 0, 65, 94
2, 6709, Note_off_c, 0, 65, 0
2, 6720, Note_on_c, 0, 69, 94
2, 6757, Note_off_c, 0, 69, 0
2, 6768, Note_on_c, 0, 72, 94
2, 6805, Note_off_c, 0, 72, 0
2, 6816, Note_on_c, 0, 77, 94
2, 6853, Note_off_c, 0, 77, 0
2, 6864, Note_on_c, 0, 81, 94
2, 6901, Note_off_c, 0, 81, 0
2, 6912, Note_on_c, 0, 79, 94
2, 6988, Note_off_c, 0, 79, 0
2, 7008, Note_on_c, 0, 60, 94
2, 7008, Note_on_c, 0, 77, 94
2, 7045, Note_off_c, 0, 77, 0
2, 7056, Note_on_c, 0, 77, 94
2, 7084, Note_off_c, 0, 60, 0
2, 7093, Note_off_c, 0, 77, 0
2, 7104, Note_on_c, 0, 74, 94
2, 7180, Note_off_c, 0, 74, 0
2, 7200, Note_on_c, 0, 76, 94
2, 7200, Note_on_c, 0, 62, 94
2, 7237, Note_off_c, 0, 76, 0
2, 7248, Note_on_c, 0, 77, 94
2, 7276, Note_off_c, 0, 62, 0
2, 7285, Note_off_c, 0, 77, 0
2, 7296, Note_on_c, 0, 62, 94
2, 7296, Note_on_c, 0, 77, 94
2, 7448, Note_off_c, 0, 77, 0
2, 7448, Note_off_c, 0, 62, 0
2, 7488, Note_on_c, 0, 60, 94
2, 7488, Note_on_c, 0, 76, 94
2, 7564, Note_off_c, 0, 76, 0
2, 7564, Note_off_c, 0, 60, 0
2, 7776, Note_on_c, 0, 60, 94
2, 7813, Note_off_c, 0, 60, 0
2, 7824, Note_on_c, 0, 64, 94
2, 7861, Note_off_c, 0, 64, 0
2, 7872, Note_on_c, 0, 67, 94
2, 7909, Note_off_c, 0, 67, 0
2, 7920, Note_on_c, 0, 72, 94
2, 7957, Note_off_c, 0, 72, 0
2, 7968, Note_on_c, 0, 76, 94
2, 8005, Note_off_c, 0, 76, 0
2, 8016, Note_on_c, 0, 79, 94
2, 8053, Note_off_c, 0, 79, 0
2, 8160, Note_on_c, 0, 62, 94
2, 8197, Note_off_c, 0, 62, 0
2, 8208, Note_on_c, 0, 65, 94
2, 8245, Note_off_c, 0, 65, 0
2, 8256, Note_on_c, 0, 69, 94
2, 8293, Note_off_c, 0, 69, 0
2, 8304, Note_on_c, 0, 72, 94
2, 8341, Note_off_c, 0, 72, 0
2, 8352, Note_on_c, 0, 77, 94
2, 8389, Note_off_c, 0, 77, 0
2, 8400, Note_on_c, 0, 81, 94
2, 8437, Note_off_c, 0, 81, 0
2, 8448, Note_on_c, 0, 79, 94
2, 8524, Note_off_c, 0, 79, 0
2, 8544, Note_on_c, 0, 60, 94
2, 8544, Note_on_c, 0, 77, 94
2, 8581, Note_off_c, 0, 77, 0
2, 8592, Note_on_c, 0, 76, 94
2, 8620, Note_off_c, 0, 60, 0
2, 8629, Note_off_c, 0, 76, 0
2, 8640, Note_on_c, 0, 74, 94
2, 8716, Note_off_c, 0, 74, 0
2, 8736, Note_on_c, 0, 65, 94
2, 8736, Note_on_c, 0, 72, 94
2, 8773, Note_off_c, 0, 72, 0
2, 8784, Note_on_c, 0, 71, 94
2, 8812, Note_off_c, 0, 65, 0
2, 8821, Note_off_c, 0, 71, 0
2, 8832, Note_on_c, 0, 72, 94
2, 8832, Note_on_c, 0, 64, 94
2, 8832, Note_on_c, 0, 60, 94
2, 8869, Note_off_c, 0, 60, 0
2, 8869, Note_off_c, 0, 64, 0
2, 8880, Note_on_c, 0, 60, 94
2, 8917, Note_off_c, 0, 60, 0
2, 8976, Note_on_c, 0, 60, 94
2, 8984, Note_off_c, 0, 72, 0
2, 9013, Note_off_c, 0, 60, 0
2, 9024, Note_on_c, 0, 67, 94
2, 9024, Note_on_c, 0, 70, 94
2, 9024, Note_on_c, 0, 76, 94
2, 9292, Note_off_c, 0, 76, 0
2, 9292, Note_off_c, 0, 70, 0
2, 9292, Note_off_c, 0, 67, 0
2, 9312, Note_on_c, 0, 69, 80
2, 9312, Note_on_c, 0, 77, 80
2, 9388, Note_off_c, 0, 77, 0
2, 9388, Note_off_c, 0, 69, 0
2, 9408, Note_on_c, 0, 69, 80
2, 9408, Note_on_c, 0, 65, 80
2, 9484, Note_off_c, 0, 65, 0
2, 9484, Note_off_c, 0, 69, 0
2, 9504, Note_on_c, 0, 62, 80
2, 9504, Note_on_c, 0, 71, 80
2, 9525, Note_off_c, 0, 71, 0
2, 9525, Note_off_c, 0, 62, 0
2, 9528, Note_on_c, 0, 72, 80
2, 9549, Note_off_c, 0, 72, 0
2, 9552, Note_on_c, 0, 71, 80
2, 9573, Note_off_c, 0, 71, 0
2, 9576, Note_on_c, 0, 72, 80
2, 9597, Note_off_c, 0, 72, 0
2, 9600, Note_on_c, 0, 64, 80
2, 9600, Note_on_c, 0, 72, 80
2, 9648, Note_on_c, 0, 60, 80
2, 9685, Note_off_c, 0, 60, 0
2, 9744, Note_on_c, 0, 60, 80
2, 9752, Note_off_c, 0, 72, 0
2, 9752, Note_off_c, 0, 64, 0
2, 9781, Note_off_c, 0, 60, 0
2, 9792, Note_on_c, 0, 67, 80
2, 9792, Note_on_c, 0, 70, 80
2, 9792, Note_on_c, 0, 76, 80
2, 10060, Note_off_c, 0, 76, 0
2, 10060, Note_off_c, 0, 70, 0
2, 10060, Note_off_c, 0, 67, 0
2, 10080, Note_on_c, 0, 77, 94
2, 10080, Note_on_c, 0, 69, 94
2, 10156, Note_off_c, 0, 69, 0
2, 10156, Note_off_c, 0, 77, 0
2, 10176, Note_on_c, 0, 65, 94
2, 10176, Note_on_c, 0, 69, 94
2, 10252, Note_off_c, 0, 69, 0
2, 10252, Note_off_c, 0, 65, 0
2, 10272, Note_on_c, 0, 62, 94
2, 10272, Note_on_c, 0, 71, 94
2, 10289, Note_off_c, 0, 71, 0
2, 10289, Note_off_c, 0, 62, 0
2, 10296, Note_on_c, 0, 72, 94
2, 10313, Note_off_c, 0, 72, 0
2, 10320, Note_on_c, 0, 71, 94
2, 10337, Note_off_c, 0, 71, 0
2, 10344, Note_on_c, 0, 72, 94
2, 10361, Note_off_c, 0, 72, 0
2, 10368, Note_on_c, 0, 64, 94
2, 10368, Note_on_c, 0, 72, 94
2, 10385, Note_off_c, 0, 72, 0
2, 10392, Note_on_c, 0, 74, 94
2, 10409, Note_off_c, 0, 74, 0
2, 10416, Note_on_c, 0, 71, 94
2, 10444, Note_off_c, 0, 64, 0
2, 10453, Note_off_c, 0, 71, 0
2, 10464, Note_on_c, 0, 72, 94
2, 10501, Note_off_c, 0, 72, 0
2, 10512, Note_on_c, 0, 76, 94
2, 10549, Note_off_c, 0, 76, 0
2, 10560, Note_on_c, 0, 74, 94
2, 10577, Note_off_c, 0, 74, 0
2, 10584, Note_on_c, 0, 76, 94
2, 10601, Note_off_c, 0, 76, 0
2, 10608, Note_on_c, 0, 72, 94
2, 10645, Note_off_c, 0, 72, 0
2, 10656, Note_on_c, 0, 74, 94
2, 10693, Note_off_c, 0, 74, 0
2, 10704, Note_on_c, 0, 77, 94
2, 10741, Note_off_c, 0, 77, 0
2, 10752, Note_on_c, 0, 60, 94
2, 10752, Note_on_c, 0, 76, 94
2, 10769, Note_off_c, 0, 76, 0
2, 10776, Note_on_c, 0, 77, 94
2, 10793, Note_off_c, 0, 77, 0
2, 10800, Note_on_c, 0, 74, 94
2, 10828, Note_off_c, 0, 60, 0
2, 10837, Note_off_c, 0, 74, 0
2, 10848, Note_on_c, 0, 76, 94
2, 10885, Note_off_c, 0, 76, 0
2, 10896, Note_on_c, 0, 79, 94
2, 10933, Note_off_c, 0, 79, 0
2, 10944, Note_on_c, 0, 62, 94
2, 10944, Note_on_c, 0, 77, 94
2, 10961, Note_off_c, 0, 77, 0
2, 10968, Note_on_c, 0, 79, 94
2, 10985, Note_off_c, 0, 79, 0
2, 10992, Note_on_c, 0, 76, 94
2, 11020, Note_off_c, 0, 62, 0
2, 11029, Note_off_c, 0, 76, 0
2, 11040, Note_on_c, 0, 77, 94
2, 11077, Note_off_c, 0, 77, 0
2, 11088, Note_on_c, 0, 81, 94
2, 11125, Note_off_c, 0, 81, 0
2, 11136, Note_on_c, 0, 79, 94
2, 11136, Note_on_c, 0, 64, 94
2, 11173, Note_off_c, 0, 79, 0
2, 11184, Note_on_c, 0, 84, 94
2, 11221, Note_off_c, 0, 84, 0
2, 11232, Note_on_c, 0, 88, 94
2, 11269, Note_off_c, 0, 88, 0
2, 11280, Note_on_c, 0, 83, 94
2, 11288, Note_off_c, 0, 64, 0
2, 11317, Note_off_c, 0, 83, 0
2, 11328, Note_on_c, 0, 84, 94
2, 11365, Note_off_c, 0, 84, 0
2, 11376, Note_on_c, 0, 79, 94
2, 11413, Note_off_c, 0, 79, 0
2, 11424, Note_on_c, 0, 81, 94
2, 11424, Note_on_c, 0, 62, 94
2, 11461, Note_off_c, 0, 81, 0
2, 11472, Note_on_c, 0, 77, 94
2, 11500, Note_off_c, 0, 62, 0
2, 11509, Note_off_c, 0, 77, 0
2, 11520, Note_on_c, 0, 76, 94
2, 11520, Note_on_c, 0, 60, 94
2, 11537, Note_off_c, 0, 76, 0
2, 11544, Note_on_c, 0, 77, 94
2, 11561, Note_off_c, 0, 77, 0
2, 11568, Note_on_c, 0, 76, 94
2, 11585, Note_off_c, 0, 76, 0
2, 11592, Note_on_c, 0, 77, 94
2, 11596, Note_off_c, 0, 60, 0
2, 11609, Note_off_c, 0, 77, 0
2, 11616, Note_on_c, 0, 74, 94
2, 11692, Note_off_c, 0, 74, 0
2, 11904, Note_on_c, 0, 75, 94
2, 11925, Note_off_c, 0, 75, 0
2, 11928, Note_on_c, 0, 76, 94
2, 12080, Note_off_c, 0, 76, 0
2, 12120, Note_on_c, 0, 75, 94
2, 12141, Note_off_c, 0, 75, 0
2, 12144, Note_on_c, 0, 76, 94
2, 12288, Note_on_c, 0, 71, 94
2, 12293, Note_off_c, 0, 71, 0
2, 12296, Note_off_c, 0, 76, 0
2, 12312, Note_on_c, 0, 74, 94
2, 12317, Note_off_c, 0, 74, 0
2, 12336, Note_on_c, 0, 80, 94
2, 12341, Note_off_c, 0, 80, 0
2, 12360, Note_on_c, 0, 83, 94
2, 12624, Note_on_c, 0, 64, 94
2, 12661, Note_off_c, 0, 64, 0
2, 12781, Note_off_c, 0, 83, 0
2, 12792, Note_on_c, 0, 81, 94
2, 12829, Note_off_c, 0, 81, 0
2, 12840, Note_on_c, 0, 80, 94
2, 12877, Note_off_c, 0, 80, 0
2, 12888, Note_on_c, 0, 77, 94
2, 12925, Note_off_c, 0, 77, 0
2, 12936, Note_on_c, 0, 76, 94
2, 12973, Note_off_c, 0, 76, 0
2, 12984, Note_on_c, 0, 74, 94
2, 13021, Note_off_c, 0, 74, 0
2, 13056, Note_on_c, 0, 72, 94
2, 13056, Note_on_c, 0, 74, 94
2, 13069, Note_off_c, 0, 72, 0
2, 13093, Note_off_c, 0, 74, 0
2, 13104, Note_on_c, 0, 72, 94
2, 13141, Note_off_c, 0, 72, 0
2, 13152, Note_on_c, 0, 71, 94
2, 13189, Note_off_c, 0, 71, 0
2, 13200, Note_on_c, 0, 72, 94
2, 13237, Note_off_c, 0, 72, 0
2, 13248, Note_on_c, 0, 71, 94
2, 13285, Note_off_c, 0, 71, 0
2, 13296, Note_on_c, 0, 72, 94
2, 13333, Note_off_c, 0, 72, 0
2, 13344, Note_on_c, 0, 74, 94
2, 13381, Note_off_c, 0, 74, 0
2, 13392, Note_on_c, 0, 72, 94
2, 13429, Note_off_c, 0, 72, 0
2, 13440, Note_on_c, 0, 71, 94
2, 13461, Note_off_c, 0, 71, 0
2, 13464, Note_on_c, 0, 72, 94
2, 13616, Note_off_c, 0, 72, 0
2, 13656, Note_on_c, 0, 71, 94
2, 13677, Note_off_c, 0, 71, 0
2, 13680, Note_on_c, 0, 72, 94
2, 13824, Note_on_c, 0, 69, 94
2, 13829, Note_off_c, 0, 69, 0
2, 13832, Note_off_c, 0, 72, 0
2, 13848, Note_on_c, 0, 72, 94
2, 13853, Note_off_c, 0, 72, 0
2, 13872, Note_on_c, 0, 78, 94
2, 13877, Note_off_c, 0, 78, 0
2, 13896, Note_on_c, 0, 81, 94
2, 14160, Note_on_c, 0, 62, 94
2, 14197, Note_off_c, 0, 62, 0
2, 14317, Note_off_c, 0, 81, 0
2, 14328, Note_on_c, 0, 79, 94
2, 14365, Note_off_c, 0, 79, 0
2, 14376, Note_on_c, 0, 78, 94
2, 14413, Note_off_c, 0, 78, 0
2, 14424, Note_on_c, 0, 76, 94
2, 14461, Note_off_c, 0, 76, 0
2, 14472, Note_on_c, 0, 74, 94
2, 14509, Note_off_c, 0, 74, 0
2, 14520, Note_on_c, 0, 72, 94
2, 14557, Note_off_c, 0, 72, 0
2, 14592, Note_on_c, 0, 71, 52
2, 14592, Note_on_c, 0, 71, 94
2, 14605, Note_off_c, 0, 71, 0
2, 14640, Note_on_c, 0, 67, 52
2, 14677, Note_off_c, 0, 67, 0
2, 14688, Note_on_c, 0, 66, 52
2, 14725, Note_off_c, 0, 66, 0
2, 14736, Note_on_c, 0, 67, 52
2, 14744, Note_off_c, 0, 71, 0
2, 14773, Note_off_c, 0, 67, 0
2, 14784, Note_on_c, 0, 74, 52
2, 14832, Note_on_c, 0, 67, 52
2, 14860, Note_off_c, 0, 74, 0
2, 14869, Note_off_c, 0, 67, 0
2, 14880, Note_on_c, 0, 74, 52
2, 14880, Note_on_c, 0, 66, 52
2, 14917, Note_off_c, 0, 66, 0
2, 14928, Note_on_c, 0, 67, 52
2, 14956, Note_off_c, 0, 74, 0
2, 14965, Note_off_c, 0, 67, 0
2, 14976, Note_on_c, 0, 76, 52
2, 14976, Note_on_c, 0, 60, 52
2, 15013, Note_off_c, 0, 60, 0
2, 15024, Note_on_c, 0, 67, 52
2, 15061, Note_off_c, 0, 67, 0
2, 15072, Note_on_c, 0, 66, 52
2, 15089, Note_off_c, 0, 76, 0
2, 15109, Note_off_c, 0, 66, 0
2, 15120, Note_on_c, 0, 67, 52
2, 15120, Note_on_c, 0, 78, 52
2, 15157, Note_off_c, 0, 78, 0
2, 15157, Note_off_c, 0, 67, 0
2, 15168, Note_on_c, 0, 60, 52
2, 15168, Note_on_c, 0, 79, 52
2, 15205, Note_off_c, 0, 60, 0
2, 15216, Note_on_c, 0, 67, 52
2, 15244, Note_off_c, 0, 79, 0
2, 15253, Note_off_c, 0, 67, 0
2, 15264, Note_on_c, 0, 66, 52
2, 15264, Note_on_c, 0, 78, 52
2, 15301, Note_off_c, 0, 78, 0
2, 15301, Note_off_c, 0, 66, 0
2, 15312, Note_on_c, 0, 67, 52
2, 15312, Note_on_c, 0, 76, 52
2, 15349, Note_off_c, 0, 76, 0
2, 15349, Note_off_c, 0, 67, 0
2, 15360, Note_on_c, 0, 74, 52
2, 15408, Note_on_c, 0, 67, 52
2, 15436, Note_off_c, 0, 74, 0
2, 15445, Note_off_c, 0, 67, 0
2, 15456, Note_on_c, 0, 66, 52
2, 15493, Note_off_c, 0, 66, 0
2, 15504, Note_on_c, 0, 67, 52
2, 15541, Note_off_c, 0, 67, 0
2, 15552, Note_on_c, 0, 74, 52
2, 15589, Note_off_c, 0, 74, 0
2, 15600, Note_on_c, 0, 71, 52
2, 15600, Note_on_c, 0, 67, 52
2, 15637, Note_off_c, 0, 67, 0
2, 15637, Note_off_c, 0, 71, 0
2, 15648, Note_on_c, 0, 66, 52
2, 15648, Note_on_c, 0, 74, 52
2, 15685, Note_off_c, 0, 74, 0
2, 15685, Note_off_c, 0, 66, 0
2, 15696, Note_on_c, 0, 67, 52
2, 15696, Note_on_c, 0, 71, 52
2, 15733, Note_off_c, 0, 71, 0
2, 15733, Note_off_c, 0, 67, 0
2, 15744, Note_on_c, 0, 76, 52
2, 15744, Note_on_c, 0, 60, 52
2, 15781, Note_off_c, 0, 60, 0
2, 15792, Note_on_c, 0, 67, 52
2, 15829, Note_off_c, 0, 67, 0
2, 15840, Note_on_c, 0, 66, 52
2, 15857, Note_off_c, 0, 76, 0
2, 15877, Note_off_c, 0, 66, 0
2, 15888, Note_on_c, 0, 67, 52
2, 15888, Note_on_c, 0, 78, 52
2, 15925, Note_off_c, 0, 78, 0
2, 15925, Note_off_c, 0, 67, 0
2, 15936, Note_on_c, 0, 60, 52
2, 15936, Note_on_c, 0, 79, 52
2, 15973, Note_off_c, 0, 60, 0
2, 15984, Note_on_c, 0, 67, 52
2, 16012, Note_off_c, 0, 79, 0
2, 16021, Note_off_c, 0, 67, 0
2, 16032, Note_on_c, 0, 66, 52
2, 16032, Note_on_c, 0, 78, 52
2, 16069, Note_off_c, 0, 78, 0
2, 16069, Note_off_c, 0, 66, 0
2, 16080, Note_on_c, 0, 67, 52
2, 16080, Note_on_c, 0, 76, 52
2, 16117, Note_off_c, 0, 76, 0
2, 16117, Note_off_c, 0, 67, 0
2, 16128, Note_on_c, 0, 74, 52
2, 16204, Note_off_c, 0, 74, 0
2, 16224, Note_on_c, 0, 83, 52
2, 16261, Note_off_c, 0, 83, 0
2, 16272, Note_on_c, 0, 81, 52
2, 16309, Note_off_c, 0, 81, 0
2, 16320, Note_on_c, 0, 79, 52
2, 16357, Note_off_c, 0, 79, 0
2, 16368, Note_on_c, 0, 78, 52
2, 16405, Note_off_c, 0, 78, 0
2, 16416, Note_on_c, 0, 68, 52
2, 16416, Note_on_c, 0, 76, 52
2, 16453, Note_off_c, 0, 76, 0
2, 16464, Note_on_c, 0, 74, 52
2, 16492, Note_off_c, 0, 68, 0
2, 16501, Note_off_c, 0, 74, 0
2, 16512, Note_on_c, 0, 72, 52
2, 16512, Note_on_c, 0, 69, 52
2, 16529, Note_off_c, 0, 72, 0
2, 16536, Note_on_c, 0, 74, 52
2, 16553, Note_off_c, 0, 74, 0
2, 16560, Note_on_c, 0, 72, 52
2, 16577, Note_off_c, 0, 72, 0
2, 16584, Note_on_c, 0, 74, 52
2, 16601, Note_off_c, 0, 74, 0
2, 16608, Note_on_c, 0, 81, 52
2, 16645, Note_off_c, 0, 81, 0
2, 16656, Note_on_c, 0, 79, 52
2, 16664, Note_off_c, 0, 69, 0
2, 16693, Note_off_c, 0, 79, 0
2, 16704, Note_on_c, 0, 78, 52
2, 16741, Note_off_c, 0, 78, 0
2, 16752, Note_on_c, 0, 76, 52
2, 16789, Note_off_c, 0, 76, 0
2, 16800, Note_on_c, 0, 74, 52
2, 16800, Note_on_c, 0, 66, 52
2, 16837, Note_off_c, 0, 74, 0
2, 16848, Note_on_c, 0, 72, 52
2, 16876, Note_off_c, 0, 66, 0
2, 16885, Note_off_c, 0, 72, 0
2, 16896, Note_on_c, 0, 71, 52
2, 16896, Note_on_c, 0, 67, 52
2, 16913, Note_off_c, 0, 71, 0
2, 16920, Note_on_c, 0, 72, 52
2, 16937, Note_off_c, 0, 72, 0
2, 16944, Note_on_c, 0, 71, 52
2, 16961, Note_off_c, 0, 71, 0
2, 16968, Note_on_c, 0, 72, 52
2, 16985, Note_off_c, 0, 72, 0
2, 16992, Note_on_c, 0, 79, 52
2, 17029, Note_off_c, 0, 79, 0
2, 17040, Note_on_c, 0, 78, 52
2, 17048, Note_off_c, 0, 67, 0
2, 17077, Note_off_c, 0, 78, 0
2, 17088, Note_on_c, 0, 76, 52
2, 17125, Note_off_c, 0, 76, 0
2, 17136, Note_on_c, 0, 74, 52
2, 17173, Note_off_c, 0, 74, 0
2, 17184, Note_on_c, 0, 64, 52
2, 17184, Note_on_c, 0, 72, 52
2, 17221, Note_off_c, 0, 72, 0
2, 17232, Note_on_c, 0, 71, 52
2, 17260, Note_off_c, 0, 64, 0
2, 17269, Note_off_c, 0, 71, 0
2, 17280, Note_on_c, 0, 69, 52
2, 17280, Note_on_c, 0, 60, 52
2, 17297, Note_off_c, 0, 69, 0
2, 17304, Note_on_c, 0, 71, 52
2, 17321, Note_off_c, 0, 71, 0
2, 17328, Note_on_c, 0, 69, 52
2, 17345, Note_off_c, 0, 69, 0
2, 17352, Note_on_c, 0, 71, 52
2, 17369, Note_off_c, 0, 71, 0
2, 17376, Note_on_c, 0, 76, 52
2, 17413, Note_off_c, 0, 76, 0
2, 17424, Note_on_c, 0, 74, 52
2, 17432, Note_off_c, 0, 60, 0
2, 17461, Note_off_c, 0, 74, 0
2, 17472, Note_on_c, 0, 72, 52
2, 17509, Note_off_c, 0, 72, 0
2, 17520, Note_on_c, 0, 71, 52
2, 17557, Note_off_c, 0, 71, 0
2, 17568, Note_on_c, 0, 69, 52
2, 17568, Note_on_c, 0, 61, 52
2, 17605, Note_off_c, 0, 69, 0
2, 17616, Note_on_c, 0, 67, 52
2, 17644, Note_off_c, 0, 61, 0
2, 17653, Note_off_c, 0, 67, 0
2, 17664, Note_on_c, 0, 66, 94
2, 17664, Note_on_c, 0, 62, 94
2, 17701, Note_off_c, 0, 66, 0
2, 17712, Note_on_c, 0, 74, 94
2, 17749, Note_off_c, 0, 74, 0
2, 17760, Note_on_c, 0, 83, 94
2, 17797, Note_off_c, 0, 83, 0
2, 17808, Note_on_c, 0, 81, 94
2, 17816, Note_off_c, 0, 62, 0
2, 17845, Note_off_c, 0, 81, 0
2, 17856, Note_on_c, 0, 79, 94
2, 17893, Note_off_c, 0, 79, 0
2, 17904, Note_on_c, 0, 78, 94
2, 17941, Note_off_c, 0, 78, 0
2, 17952, Note_on_c, 0, 68, 94
2, 17952, Note_on_c, 0, 76, 94
2, 17989, Note_off_c, 0, 76, 0
2, 18000, Note_on_c, 0, 74, 94
2, 18028, Note_off_c, 0, 68, 0
2, 18037, Note_off_c, 0, 74, 0
2, 18048, Note_on_c, 0, 74, 94
2, 18048, Note_on_c, 0, 69, 94
2, 18085, Note_off_c, 0, 74, 0
2, 18096, Note_on_c, 0, 73, 94
2, 18133, Note_off_c, 0, 73, 0
2, 18144, Note_on_c, 0, 81, 94
2, 18181, Note_off_c, 0, 81, 0
2, 18192, Note_on_c, 0, 79, 94
2, 18200, Note_off_c, 0, 69, 0
2, 18229, Note_off_c, 0, 79, 0
2, 18240, Note_on_c, 0, 78, 94
2, 18277, Note_off_c, 0, 78, 0
2, 18288, Note_on_c, 0, 76, 94
2, 18325, Note_off_c, 0, 76, 0
2, 18336, Note_on_c, 0, 74, 94
2, 18336, Note_on_c, 0, 66, 94
2, 18373, Note_off_c, 0, 74, 0
2, 18384, Note_on_c, 0, 72, 94
2, 18412, Note_off_c, 0, 66, 0
2, 18421, Note_off_c, 0, 72, 0
2, 18432, Note_on_c, 0, 72, 94
2, 18432, Note_on_c, 0, 67, 94
2, 18469, Note_off_c, 0, 72, 0
2, 18480, Note_on_c, 0, 71, 94
2, 18517, Note_off_c, 0, 71, 0
2, 18528, Note_on_c, 0, 79, 94
2, 18565, Note_off_c, 0, 79, 0
2, 18576, Note_on_c, 0, 78, 94
2, 18584, Note_off_c, 0, 67, 0
2, 18613, Note_off_c, 0, 78, 0
2, 18624, Note_on_c, 0, 76, 94
2, 18661, Note_off_c, 0, 76, 0
2, 18672, Note_on_c, 0, 74, 94
2, 18709, Note_off_c, 0, 74, 0
2, 18720, Note_on_c, 0, 64, 94
2, 18720, Note_on_c, 0, 72, 94
2, 18757, Note_off_c, 0, 72, 0
2, 18768, Note_on_c, 0, 71, 94
2, 18796, Note_off_c, 0, 64, 0
2, 18805, Note_off_c, 0, 71, 0
2, 18816, Note_on_c, 0, 60, 94
2, 18816, Note_on_c, 0, 69, 94
2, 18853, Note_off_c, 0, 60, 0
2, 18864, Note_on_c, 0, 67, 94
2, 18901, Note_off_c, 0, 67, 0
2, 18912, Note_on_c, 0, 66, 94
2, 18949, Note_off_c, 0, 66, 0
2, 18960, Note_on_c, 0, 67, 94
2, 18968, Note_off_c, 0, 69, 0
2, 18997, Note_off_c, 0, 67, 0
2, 19008, Note_on_c, 0, 71, 94
2, 19008, Note_on_c, 0, 62, 94
2, 19025, Note_off_c, 0, 71, 0
2, 19032, Note_on_c, 0, 72, 94
2, 19045, Note_off_c, 0, 62, 0
2, 19049, Note_off_c, 0, 72, 0
2, 19056, Note_on_c, 0, 71, 94
2, 19056, Note_on_c, 0, 67, 94
2, 19073, Note_off_c, 0, 71, 0
2, 19080, Note_on_c, 0, 72, 94
2, 19093, Note_off_c, 0, 67, 0
2, 19097, Note_off_c, 0, 72, 0
2, 19104, Note_on_c, 0, 71, 94
2, 19104, Note_on_c, 0, 66, 94
2, 19121, Note_off_c, 0, 71, 0
2, 19128, Note_on_c, 0, 72, 94
2, 19141, Note_off_c, 0, 66, 0
2, 19145, Note_off_c, 0, 72, 0
2, 19152, Note_on_c, 0, 69, 94
2, 19152, Note_on_c, 0, 67, 94
2, 19169, Note_off_c, 0, 69, 0
2, 19176, Note_on_c, 0, 71, 94
2, 19189, Note_off_c, 0, 67, 0
2, 19193, Note_off_c, 0, 71, 0
2, 19200, Note_on_c, 0, 64, 52
2, 19200, Note_on_c, 0, 72, 52
2, 19237, Note_off_c, 0, 64, 0
2, 19248, Note_on_c, 0, 67, 52
2, 19285, Note_off_c, 0, 67, 0
2, 19296, Note_on_c, 0, 66, 52
2, 19333, Note_off_c, 0, 66, 0
2, 19344, Note_on_c, 0, 67, 52
2, 19381, Note_off_c, 0, 67, 0
2, 19392, Note_on_c, 0, 62, 52
2, 19429, Note_off_c, 0, 72, 0
2, 19429, Note_off_c, 0, 62, 0
2, 19440, Note_on_c, 0, 67, 52
2, 19477, Note_off_c, 0, 67, 0
2, 19488, Note_on_c, 0, 71, 52
2, 19488, Note_on_c, 0, 66, 52
2, 19525, Note_off_c, 0, 66, 0
2, 19536, Note_on_c, 0, 67, 52
2, 19564, Note_off_c, 0, 71, 0
2, 19573, Note_off_c, 0, 67, 0
2, 19584, Note_on_c, 0, 69, 52
2, 19584, Note_on_c, 0, 60, 52
2, 19621, Note_off_c, 0, 60, 0
2, 19632, Note_on_c, 0, 67, 52
2, 19660, Note_off_c, 0, 69, 0
2, 19669, Note_off_c, 0, 67, 0
2, 19680, Note_on_c, 0, 66, 52
2, 19680, Note_on_c, 0, 68, 52
2, 19701, Note_off_c, 0, 68, 0
2, 19704, Note_on_c, 0, 69, 52
2, 19717, Note_off_c, 0, 66, 0
2, 19728, Note_on_c, 0, 67, 52
2, 19765, Note_off_c, 0, 67, 0
2, 19776, Note_on_c, 0, 62, 52
2, 19780, Note_off_c, 0, 69, 0
2, 19800, Note_on_c, 0, 71, 52
2, 19813, Note_off_c, 0, 62, 0
2, 19824, Note_on_c, 0, 67, 52
2, 19861, Note_off_c, 0, 67, 0
2, 19872, Note_on_c, 0, 66, 52
2, 19876, Note_off_c, 0, 71, 0
2, 19896, Note_on_c, 0, 71, 52
2, 19909, Note_off_c, 0, 66, 0
2, 19920, Note_on_c, 0, 67, 52
2, 19957, Note_off_c, 0, 67, 0
2, 19968, Note_on_c, 0, 71, 52
2, 19968, Note_on_c, 0, 64, 52
2, 19972, Note_off_c, 0, 71, 0
2, 19973, Note_off_c, 0, 71, 0
2, 19992, Note_on_c, 0, 74, 52
2, 19997, Note_off_c, 0, 74, 0
2, 20005, Note_off_c, 0, 64, 0
2, 20016, Note_on_c, 0, 67, 52
2, 20016, Note_on_c, 0, 72, 52
2, 20053, Note_off_c, 0, 67, 0
2, 20064, Note_on_c, 0, 66, 52
2, 20101, Note_off_c, 0, 66, 0
2, 20112, Note_on_c, 0, 67, 52
2, 20149, Note_off_c, 0, 67, 0
2, 20160, Note_on_c, 0, 62, 52
2, 20197, Note_off_c, 0, 62, 0
2, 20208, Note_on_c, 0, 67, 52
2, 20245, Note_off_c, 0, 72, 0
2, 20245, Note_off_c, 0, 67, 0
2, 20256, Note_on_c, 0, 66, 52
2, 20293, Note_off_c, 0, 66, 0
2, 20304, Note_on_c, 0, 71, 52
2, 20304, Note_on_c, 0, 67, 52
2, 20341, Note_off_c, 0, 67, 0
2, 20380, Note_off_c, 0, 71, 0
2, 20400, Note_on_c, 0, 68, 52
2, 20405, Note_off_c, 0, 68, 0
2, 20424, Note_on_c, 0, 69, 52
2, 20448, Note_on_c, 0, 64, 52
2, 20448, Note_on_c, 0, 60, 52
2, 20524, Note_off_c, 0, 60, 0
2, 20524, Note_off_c, 0, 64, 0
2, 20544, Note_on_c, 0, 60, 52
2, 20544, Note_on_c, 0, 62, 52
2, 20576, Note_off_c, 0, 69, 0
2, 20620, Note_off_c, 0, 60, 0
2, 20620, Note_off_c, 0, 62, 0
2, 20640, Note_on_c, 0, 64, 52
2, 20640, Note_on_c, 0, 60, 52
2, 20716, Note_off_c, 0, 60, 0
2, 20716, Note_off_c, 0, 64, 0
2, 20736, Note_on_c, 0, 71, 94
2, 20741, Note_off_c, 0, 71, 0
2, 20760, Note_on_c, 0, 72, 94
2, 20832, Note_on_c, 0, 60, 94
2, 20832, Note_on_c, 0, 64, 94
2, 20908, Note_off_c, 0, 64, 0
2, 20908, Note_off_c, 0, 60, 0
2, 20912, Note_off_c, 0, 72, 0
2, 20928, Note_on_c, 0, 63, 94
2, 21004, Note_off_c, 0, 63, 0
2, 21024, Note_on_c, 0, 60, 94
2, 21024, Note_on_c, 0, 64, 94
2, 21100, Note_off_c, 0, 64, 0
2, 21100, Note_off_c, 0, 60, 0
2, 21144, Note_on_c, 0, 75, 94
2, 21149, Note_off_c, 0, 75, 0
2, 21168, Note_on_c, 0, 76, 94
2, 21216, Note_on_c, 0, 64, 94
2, 21216, Note_on_c, 0, 60, 94
2, 21292, Note_off_c, 0, 60, 0
2, 21292, Note_off_c, 0, 64, 0
2, 21312, Note_on_c, 0, 63, 94
2, 21320, Note_off_c, 0, 76, 0
2, 21388, Note_off_c, 0, 63, 0
2, 21408, Note_on_c, 0, 60, 94
2, 21408, Note_on_c, 0, 64, 94
2, 21484, Note_off_c, 0, 64, 0
2, 21484, Note_off_c, 0, 60, 0
2, 21504, Note_on_c, 0, 68, 52
2, 21509, Note_off_c, 0, 68, 0
2, 21528, Note_on_c, 0, 69, 52
2, 21604, Note_off_c, 0, 69, 0
2, 21624, Note_on_c, 0, 71, 52
2, 21629, Note_off_c, 0, 71, 0
2, 21648, Note_on_c, 0, 72, 52
2, 21724, Note_off_c, 0, 72, 0
2, 21744, Note_on_c, 0, 75, 52
2, 21765, Note_off_c, 0, 75, 0
2, 21768, Note_on_c, 0, 76, 52
2, 21840, Note_on_c, 0, 80, 52
2, 21845, Note_off_c, 0, 80, 0
2, 21857, Note_off_c, 0, 76, 0
2, 21864, Note_on_c, 0, 81, 52
2, 21940, Note_off_c, 0, 81, 0
2, 21952, Note_on_c, 0, 83, 52
2, 21960, Note_off_c, 0, 83, 0
2, 21960, Note_on_c, 0, 84, 52
2, 22036, Note_off_c, 0, 84, 0
2, 22048, Note_on_c, 0, 80, 52
2, 22056, Note_off_c, 0, 80, 0
2, 22056, Note_on_c, 0, 81, 52
2, 22132, Note_off_c, 0, 81, 0
2, 22144, Note_on_c, 0, 75, 52
2, 22152, Note_off_c, 0, 75, 0
2, 22152, Note_on_c, 0, 76, 52
2, 22228, Note_off_c, 0, 76, 0
2, 22240, Note_on_c, 0, 71, 52
2, 22248, Note_off_c, 0, 71, 0
2, 22272, Note_on_c, 0, 74, 94
2, 22272, Note_on_c, 0, 72, 52
2, 22324, Note_off_c, 0, 72, 0
2, 22501, Note_off_c, 0, 74, 0
2, 22560, Note_on_c, 0, 71, 94
2, 22636, Note_off_c, 0, 71, 0
2, 22656, Note_on_c, 0, 68, 94
2, 22661, Note_off_c, 0, 68, 0
2, 22680, Note_on_c, 0, 69, 94
2, 22704, Note_on_c, 0, 60, 94
2, 22741, Note_off_c, 0, 60, 0
2, 22800, Note_on_c, 0, 60, 94
2, 22832, Note_off_c, 0, 69, 0
2, 22837, Note_off_c, 0, 60, 0
2, 22896, Note_on_c, 0, 60, 94
2, 22933, Note_off_c, 0, 60, 0
2, 22992, Note_on_c, 0, 60, 94
2, 23029, Note_off_c, 0, 60, 0
2, 23040, Note_on_c, 0, 67, 94
2, 23088, Note_on_c, 0, 62, 94
2, 23116, Note_off_c, 0, 67, 0
2, 23125, Note_off_c, 0, 62, 0
2, 23136, Note_on_c, 0, 79, 94
2, 23173, Note_off_c, 0, 79, 0
2, 23184, Note_on_c, 0, 62, 94
2, 23184, Note_on_c, 0, 79, 94
2, 23221, Note_off_c, 0, 79, 0
2, 23221, Note_off_c, 0, 62, 0
2, 23232, Note_on_c, 0, 79, 94
2, 23269, Note_off_c, 0, 79, 0
2, 23280, Note_on_c, 0, 74, 94
2, 23317, Note_off_c, 0, 74, 0
2, 23328, Note_on_c, 0, 71, 94
2, 23365, Note_off_c, 0, 71, 0
2, 23376, Note_on_c, 0, 67, 94
2, 23413, Note_off_c, 0, 67, 0
2, 23424, Note_on_c, 0, 69, 94
2, 23472, Note_on_c, 0, 62, 94
2, 23500, Note_off_c, 0, 69, 0
2, 23509, Note_off_c, 0, 62, 0
2, 23520, Note_on_c, 0, 81, 94
2, 23557, Note_off_c, 0, 81, 0
2, 23568, Note_on_c, 0, 62, 94
2, 23568, Note_on_c, 0, 81, 94
2, 23605, Note_off_c, 0, 81, 0
2, 23605, Note_off_c, 0, 62, 0
2, 23616, Note_on_c, 0, 81, 94
2, 23653, Note_off_c, 0, 81, 0
2, 23664, Note_on_c, 0, 78, 94
2, 23701, Note_off_c, 0, 78, 0
2, 23712, Note_on_c, 0, 74, 94
2, 23749, Note_off_c, 0, 74, 0
2, 23760, Note_on_c, 0, 69, 94
2, 23797, Note_off_c, 0, 69, 0
2, 23808, Note_on_c, 0, 71, 94
2, 23856, Note_on_c, 0, 62, 94
2, 23884, Note_off_c, 0, 71, 0
2, 23893, Note_off_c, 0, 62, 0
2, 23904, Note_on_c, 0, 83, 94
2, 23941, Note_off_c, 0, 83, 0
2, 23952, Note_on_c, 0, 62, 94
2, 23952, Note_on_c, 0, 83, 94
2, 23989, Note_off_c, 0, 83, 0
2, 23989, Note_off_c, 0, 62, 0
2, 24000, Note_on_c, 0, 83, 94
2, 24037, Note_off_c, 0, 83, 0
2, 24048, Note_on_c, 0, 79, 94
2, 24085, Note_off_c, 0, 79, 0
2, 24096, Note_on_c, 0, 74, 94
2, 24133, Note_off_c, 0, 74, 0
2, 24144, Note_on_c, 0, 71, 94
2, 24181, Note_off_c, 0, 71, 0
2, 24192, Note_on_c, 0, 75, 94
2, 24229, Note_off_c, 0, 75, 0
2, 24240, Note_on_c, 0, 76, 94
2, 24277, Note_off_c, 0, 76, 0
2, 24288, Note_on_c, 0, 72, 94
2, 24325, Note_off_c, 0, 72, 0
2, 24336, Note_on_c, 0, 69, 94
2, 24373, Note_off_c, 0, 69, 0
2, 24384, Note_on_c, 0, 60, 94
2, 24384, Note_on_c, 0, 71, 94
2, 24421, Note_off_c, 0, 71, 0
2, 24432, Note_on_c, 0, 72, 94
2, 24469, Note_off_c, 0, 72, 0
2, 24480, Note_on_c, 0, 69, 94
2, 24517, Note_off_c, 0, 69, 0
2, 24528, Note_on_c, 0, 66, 94
2, 24536, Note_off_c, 0, 60, 0
2, 24565, Note_off_c, 0, 66, 0
2, 24576, Note_on_c, 0, 67, 94
2, 24613, Note_off_c, 0, 67, 0
2, 24624, Note_on_c, 0, 78, 94
2, 24661, Note_off_c, 0, 78, 0
2, 24672, Note_on_c, 0, 79, 94
2, 24709, Note_off_c, 0, 79, 0
2, 24720, Note_on_c, 0, 78, 94
2, 24757, Note_off_c, 0, 78, 0
2, 24768, Note_on_c, 0, 79, 94
2, 24805, Note_off_c, 0, 79, 0
2, 24816, Note_on_c, 0, 74, 94
2, 24853, Note_off_c, 0, 74, 0
2, 24864, Note_on_c, 0, 71, 94
2, 24901, Note_off_c, 0, 71, 0
2, 24912, Note_on_c, 0, 67, 94
2, 24949, Note_off_c, 0, 67, 0
2, 24960, Note_on_c, 0, 69, 94
2, 24997, Note_off_c, 0, 69, 0
2, 25008, Note_on_c, 0, 80, 94
2, 25045, Note_off_c, 0, 80, 0
2, 25056, Note_on_c, 0, 81, 94
2, 25093, Note_off_c, 0, 81, 0
2, 25104, Note_on_c, 0, 80, 94
2, 25141, Note_off_c, 0, 80, 0
2, 25152, Note_on_c, 0, 81, 94
2, 25189, Note_off_c, 0, 81, 0
2, 25200, Note_on_c, 0, 78, 94
2, 25237, Note_off_c, 0, 78, 0
2, 25248, Note_on_c, 0, 74, 94
2, 25285, Note_off_c, 0, 74, 0
2, 25296, Note_on_c, 0, 69, 94
2, 25333, Note_off_c, 0, 69, 0
2, 25344, Note_on_c, 0, 71, 94
2, 25381, Note_off_c, 0, 71, 0
2, 25392, Note_on_c, 0, 82, 94
2, 25429, Note_off_c, 0, 82, 0
2, 25440, Note_on_c, 0, 83, 94
2, 25477, Note_off_c, 0, 83, 0
2, 25488, Note_on_c, 0, 82, 94
2, 25525, Note_off_c, 0, 82, 0
2, 25536, Note_on_c, 0, 83, 94
2, 25573, Note_off_c, 0, 83, 0
2, 25584, Note_on_c, 0, 79, 94
2, 25621, Note_off_c, 0, 79, 0
2, 25632, Note_on_c, 0, 74, 94
2, 25669, Note_off_c, 0, 74, 0
2, 25680, Note_on_c, 0, 71, 94
2, 25717, Note_off_c, 0, 71, 0
2, 25728, Note_on_c, 0, 75, 94
2, 25765, Note_off_c, 0, 75, 0
2, 25776, Note_on_c, 0, 76, 94
2, 25813, Note_off_c, 0, 76, 0
2, 25824, Note_on_c, 0, 72, 94
2, 25861, Note_off_c, 0, 72, 0
2, 25872, Note_on_c, 0, 69, 94
2, 25909, Note_off_c, 0, 69, 0
2, 25920, Note_on_c, 0, 60, 94
2, 25920, Note_on_c, 0, 71, 94
2, 25957, Note_off_c, 0, 71, 0
2, 25968, Note_on_c, 0, 72, 94
2, 26005, Note_off_c, 0, 72, 0
2, 26016, Note_on_c, 0, 69, 94
2, 26053, Note_off_c, 0, 69, 0
2, 26064, Note_on_c, 0, 66, 94
2, 26072, Note_off_c, 0, 60, 0
2, 26101, Note_off_c, 0, 66, 0
2, 26112, Note_on_c, 0, 67, 94
2, 26149, Note_off_c, 0, 67, 0
2, 26160, Note_on_c, 0, 79, 94
2, 26197, Note_off_c, 0, 79, 0
2, 26208, Note_on_c, 0, 83, 94
2, 26245, Note_off_c, 0, 83, 0
2, 26256, Note_on_c, 0, 81, 94
2, 26293, Note_off_c, 0, 81, 0
2, 26304, Note_on_c, 0, 79, 94
2, 26341, Note_off_c, 0, 79, 0
2, 26352, Note_on_c, 0, 78, 94
2, 26389, Note_off_c, 0, 78, 0
2, 26400, Note_on_c, 0, 76, 94
2, 26437, Note_off_c, 0, 76, 0
2, 26448, Note_on_c, 0, 74, 94
2, 26485, Note_off_c, 0, 74, 0
2, 26496, Note_on_c, 0, 72, 94
2, 26533, Note_off_c, 0, 72, 0
2, 26544, Note_on_c, 0, 71, 94
2, 26581, Note_off_c, 0, 71, 0
2, 26592, Note_on_c, 0, 69, 94
2, 26629, Note_off_c, 0, 69, 0
2, 26640, Note_on_c, 0, 67, 94
2, 26677, Note_off_c, 0, 67, 0
2, 26688, Note_on_c, 0, 66, 94
2, 26725, Note_off_c, 0, 66, 0
2, 26736, Note_on_c, 0, 64, 94
2, 26773, Note_off_c, 0, 64, 0
2, 26784, Note_on_c, 0, 62, 94
2, 26821, Note_off_c, 0, 62, 0
2, 26832, Note_on_c, 0, 61, 94
2, 26869, Note_off_c, 0, 61, 0
2, 26880, Note_on_c, 0, 60, 94
2, 27301, Note_off_c, 0, 60, 0
2, 27312, Note_on_c, 0, 62, 94
2, 27349, Note_off_c, 0, 62, 0
2, 27360, Note_on_c, 0, 64, 94
2, 27397, Note_off_c, 0, 64, 0
2, 27408, Note_on_c, 0, 62, 94
2, 27444, Note_on_c, 0, 66, 94
2, 27445, Note_off_c, 0, 62, 0
2, 27456, Note_off_c, 0, 66, 0
2, 27456, Note_on_c, 0, 64, 94
2, 27532, Note_off_c, 0, 64, 0
2, 27552, Note_on_c, 0, 62, 94
2, 27589, Note_off_c, 0, 62, 0
2, 27648, Note_on_c, 0, 60, 94
2, 27953, Note_off_c, 0, 60, 0
2, 28080, Note_on_c, 0, 67, 94
2, 28117, Note_off_c, 0, 67, 0
2, 28128, Note_on_c, 0, 66, 94
2, 28165, Note_off_c, 0, 66, 0
2, 28176, Note_on_c, 0, 67, 94
2, 28213, Note_off_c, 0, 67, 0
2, 28224, Note_on_c, 0, 62, 94
2, 28261, Note_off_c, 0, 62, 0
2, 28272, Note_on_c, 0, 74, 94
2, 28309, Note_off_c, 0, 74, 0
2, 28320, Note_on_c, 0, 73, 94
2, 28357, Note_off_c, 0, 73, 0
2, 28368, Note_on_c, 0, 74, 94
2, 28405, Note_off_c, 0, 74, 0
2, 28416, Note_on_c, 0, 71, 94
2, 28453, Note_off_c, 0, 71, 0
2, 28464, Note_on_c, 0, 79, 94
2, 28501, Note_off_c, 0, 79, 0
2, 28512, Note_on_c, 0, 78, 94
2, 28549, Note_off_c, 0, 78, 0
2, 28560, Note_on_c, 0, 79, 94
2, 28597, Note_off_c, 0, 79, 0
2, 28608, Note_on_c, 0, 74, 94
2, 28645, Note_off_c, 0, 74, 0
2, 28656, Note_on_c, 0, 83, 94
2, 28693, Note_off_c, 0, 83, 0
2, 28704, Note_on_c, 0, 81, 94
2, 28741, Note_off_c, 0, 81, 0
2, 28752, Note_on_c, 0, 83, 94
2, 28789, Note_off_c, 0, 83, 0
2, 28800, Note_on_c, 0, 79, 94
2, 28876, Note_off_c, 0, 79, 0
2, 29184, Control_c, 0, 0, 0
2, 29184, Note_on_c, 0, 72, 94
2, 29184, Note_on_c, 0, 67, 94
2, 29184, Note_on_c, 0, 64, 94
2, 29232, Note_on_c, 0, 60, 94
2, 29269, Note_off_c, 0, 60, 0
2, 29328, Note_on_c, 0, 60, 94
2, 29336, Note_off_c, 0, 64, 0
2, 29336, Note_off_c, 0, 67, 0
2, 29336, Note_off_c, 0, 72, 0
2, 29365, Note_off_c, 0, 60, 0
2, 29472, Note_on_c, 0, 72, 94
2, 29509, Note_off_c, 0, 72, 0
2, 29520, Note_on_c, 0, 71, 94
2, 29557, Note_off_c, 0, 71, 0
2, 29568, Note_on_c, 0, 74, 94
2, 29605, Note_off_c, 0, 74, 0
2, 29616, Note_on_c, 0, 72, 94
2, 29653, Note_off_c, 0, 72, 0
2, 29664, Note_on_c, 0, 76, 94
2, 29701, Note_off_c, 0, 76, 0
2, 29712, Note_on_c, 0, 74, 94
2, 29749, Note_off_c, 0, 74, 0
2, 29760, Note_on_c, 0, 77, 94
2, 29797, Note_off_c, 0, 77, 0
2, 29808, Note_on_c, 0, 76, 94
2, 29845, Note_off_c, 0, 76, 0
2, 29856, Note_on_c, 0, 79, 94
2, 29893, Note_off_c, 0, 79, 0
2, 29904, Note_on_c, 0, 77, 94
2, 29941, Note_off_c, 0, 77, 0
2, 29952, Note_on_c, 0, 81, 94
2, 29952, Note_on_c, 0, 69, 94
2, 29952, Note_on_c, 0, 77, 94
2, 29952, Note_on_c, 0, 74, 94
2, 30104, Note_off_c, 0, 74, 0
2, 30104, Note_off_c, 0, 77, 0
2, 30104, Note_off_c, 0, 69, 0
2, 30104, Note_off_c, 0, 81, 0
2, 30144, Note_on_c, 0, 79, 94
2, 30181, Note_off_c, 0, 79, 0
2, 30192, Note_on_c, 0, 77, 94
2, 30229, Note_off_c, 0, 77, 0
2, 30240, Note_on_c, 0, 76, 94
2, 30277, Note_off_c, 0, 76, 0
2, 30288, Note_on_c, 0, 74, 94
2, 30325, Note_off_c, 0, 74, 0
2, 30336, Note_on_c, 0, 72, 94
2, 30353, Note_off_c, 0, 72, 0
2, 30360, Note_on_c, 0, 74, 94
2, 30377, Note_off_c, 0, 74, 0
2, 30384, Note_on_c, 0, 71, 94
2, 30421, Note_off_c, 0, 71, 0
2, 30432, Note_on_c, 0, 72, 94
2, 30469, Note_off_c, 0, 72, 0
2, 30480, Note_on_c, 0, 76, 94
2, 30517, Note_off_c, 0, 76, 0
2, 30528, Note_on_c, 0, 74, 94
2, 30565, Note_off_c, 0, 74, 0
2, 30576, Note_on_c, 0, 77, 94
2, 30613, Note_off_c, 0, 77, 0
2, 30624, Note_on_c, 0, 71, 94
2, 30661, Note_off_c, 0, 71, 0
2, 30672, Note_on_c, 0, 74, 94
2, 30709, Note_off_c, 0, 74, 0
2, 30720, Note_on_c, 0, 72, 94
2, 30720, Note_on_c, 0, 67, 94
2, 30720, Note_on_c, 0, 64, 94
2, 30768, Note_on_c, 0, 60, 94
2, 30805, Note_off_c, 0, 60, 0
2, 30864, Note_on_c, 0, 60, 94
2, 30872, Note_off_c, 0, 64, 0
2, 30872, Note_off_c, 0, 67, 0
2, 30872, Note_off_c, 0, 72, 0
2, 30901, Note_off_c, 0, 60, 0
2, 31008, Note_on_c, 0, 72, 94
2, 31045, Note_off_c, 0, 72, 0
2, 31056, Note_on_c, 0, 71, 94
2, 31093, Note_off_c, 0, 71, 0
2, 31104, Note_on_c, 0, 74, 94
2, 31141, Note_off_c, 0, 74, 0
2, 31152, Note_on_c, 0, 72, 94
2, 31189, Note_off_c, 0, 72, 0
2, 31200, Note_on_c, 0, 76, 94
2, 31237, Note_off_c, 0, 76, 0
2, 31248, Note_on_c, 0, 74, 94
2, 31285, Note_off_c, 0, 74, 0
2, 31296, Note_on_c, 0, 77, 94
2, 31333, Note_off_c, 0, 77, 0
2, 31344, Note_on_c, 0, 76, 94
2, 31381, Note_off_c, 0, 76, 0
2, 31392, Note_on_c, 0, 79, 94
2, 31429, Note_off_c, 0, 79, 0
2, 31440, Note_on_c, 0, 76, 94
2, 31477, Note_off_c, 0, 76, 0
2, 31488, Note_on_c, 0, 81, 94
2, 31488, Note_on_c, 0, 69, 94
2, 31488, Note_on_c, 0, 77, 94
2, 31488, Note_on_c, 0, 74, 94
2, 31640, Note_off_c, 0, 74, 0
2, 31640, Note_off_c, 0, 77, 0
2, 31640, Note_off_c, 0, 69, 0
2, 31640, Note_off_c, 0, 81, 0
2, 31680, Note_on_c, 0, 79, 94
2, 31717, Note_off_c, 0, 79, 0
2, 31728, Note_on_c, 0, 77, 94
2, 31765, Note_off_c, 0, 77, 0
2, 31776, Note_on_c, 0, 76, 94
2, 31813, Note_off_c, 0, 76, 0
2, 31824, Note_on_c, 0, 74, 94
2, 31861, Note_off_c, 0, 74, 0
2, 31872, Note_on_c, 0, 72, 94
2, 31889, Note_off_c, 0, 72, 0
2, 31896, Note_on_c, 0, 74, 94
2, 31913, Note_off_c, 0, 74, 0
2, 31920, Note_on_c, 0, 71, 94
2, 31957, Note_off_c, 0, 71, 0
2, 31968, Note_on_c, 0, 72, 94
2, 32005, Note_off_c, 0, 72, 0
2, 32016, Note_on_c, 0, 76, 94
2, 32053, Note_off_c, 0, 76, 0
2, 32064, Note_on_c, 0, 74, 94
2, 32101, Note_off_c, 0, 74, 0
2, 32112, Note_on_c, 0, 77, 94
2, 32149, Note_off_c, 0, 77, 0
2, 32160, Note_on_c, 0, 71, 94
2, 32197, Note_off_c, 0, 71, 0
2, 32208, Note_on_c, 0, 74, 94
2, 32245, Note_off_c, 0, 74, 0
2, 32256, Note_on_c, 0, 60, 94
2, 32256, Note_on_c, 0, 72, 94
2, 32293, Note_off_c, 0, 60, 0
2, 32304, Note_on_c, 0, 67, 94
2, 32332, Note_off_c, 0, 72, 0
2, 32341, Note_off_c, 0, 67, 0
2, 32352, Note_on_c, 0, 74, 94
2, 32352, Note_on_c, 0, 64, 94
2, 32373, Note_off_c, 0, 74, 0
2, 32376, Note_on_c, 0, 72, 94
2, 32389, Note_off_c, 0, 64, 0
2, 32400, Note_on_c, 0, 67, 94
2, 32413, Note_off_c, 0, 72, 0
2, 32424, Note_on_c, 0, 71, 94
2, 32437, Note_off_c, 0, 67, 0
2, 32448, Note_on_c, 0, 60, 94
2, 32461, Note_off_c, 0, 71, 0
2, 32472, Note_on_c, 0, 72, 94
2, 32485, Note_off_c, 0, 60, 0
2, 32496, Note_on_c, 0, 67, 94
2, 32533, Note_off_c, 0, 67, 0
2, 32544, Note_on_c, 0, 64, 94
2, 32548, Note_off_c, 0, 72, 0
2, 32568, Note_on_c, 0, 76, 94
2, 32581, Note_off_c, 0, 64, 0
2, 32592, Note_on_c, 0, 67, 94
2, 32629, Note_off_c, 0, 67, 0
2, 32644, Note_off_c, 0, 76, 0
2, 32664, Note_on_c, 0, 73, 94
2, 32688, Note_on_c, 0, 67, 94
2, 32725, Note_off_c, 0, 67, 0
2, 32736, Note_on_c, 0, 62, 94
2, 32773, Note_off_c, 0, 62, 0
2, 32784, Note_on_c, 0, 67, 94
2, 32816, Note_off_c, 0, 73, 0
2, 32821, Note_off_c, 0, 67, 0
2, 32856, Note_on_c, 0, 74, 94
2, 32880, Note_on_c, 0, 67, 94
2, 32917, Note_off_c, 0, 67, 0
2, 32928, Note_on_c, 0, 62, 94
2, 32932, Note_off_c, 0, 74, 0
2, 32965, Note_off_c, 0, 62, 0
2, 32976, Note_on_c, 0, 67, 94
2, 33013, Note_off_c, 0, 67, 0
2, 33072, Note_on_c, 0, 67, 94
2, 33109, Note_off_c, 0, 67, 0
2, 33120, Note_on_c, 0, 76, 94
2, 33120, Note_on_c, 0, 62, 94
2, 33125, Note_off_c, 0, 76, 0
2, 33144, Note_on_c, 0, 74, 94
2, 33157, Note_off_c, 0, 62, 0
2, 33168, Note_on_c, 0, 67, 94
2, 33181, Note_off_c, 0, 74, 0
2, 33192, Note_on_c, 0, 73, 94
2, 33205, Note_off_c, 0, 67, 0
2, 33229, Note_off_c, 0, 73, 0
2, 33240, Note_on_c, 0, 74, 94
2, 33264, Note_on_c, 0, 67, 94
2, 33301, Note_off_c, 0, 67, 0
2, 33312, Note_on_c, 0, 62, 94
2, 33316, Note_off_c, 0, 74, 0
2, 33336, Note_on_c, 0, 77, 94
2, 33349, Note_off_c, 0, 62, 0
2, 33360, Note_on_c, 0, 67, 94
2, 33397, Note_off_c, 0, 67, 0
2, 33408, Note_on_c, 0, 60, 94
2, 33412, Note_off_c, 0, 77, 0
2, 33432, Note_on_c, 0, 75, 94
2, 33445, Note_off_c, 0, 60, 0
2, 33456, Note_on_c, 0, 67, 94
2, 33493, Note_off_c, 0, 67, 0
2, 33504, Note_on_c, 0, 64, 94
2, 33541, Note_off_c, 0, 64, 0
2, 33552, Note_on_c, 0, 67, 94
2, 33584, Note_off_c, 0, 75, 0
2, 33589, Note_off_c, 0, 67, 0
2, 33600, Note_on_c, 0, 60, 94
2, 33624, Note_on_c, 0, 76, 94
2, 33637, Note_off_c, 0, 60, 0
2, 33648, Note_on_c, 0, 67, 94
2, 33685, Note_off_c, 0, 67, 0
2, 33696, Note_on_c, 0, 64, 94
2, 33700, Note_off_c, 0, 76, 0
2, 33733, Note_off_c, 0, 64, 0
2, 33744, Note_on_c, 0, 67, 94
2, 33781, Note_off_c, 0, 67, 0
2, 33792, Note_on_c, 0, 60, 94
2, 33829, Note_off_c, 0, 60, 0
2, 33840, Note_on_c, 0, 67, 94
2, 33877, Note_off_c, 0, 67, 0
2, 33888, Note_on_c, 0, 79, 94
2, 33888, Note_on_c, 0, 64, 94
2, 33905, Note_off_c, 0, 79, 0
2, 33912, Note_on_c, 0, 78, 94
2, 33925, Note_off_c, 0, 64, 0
2, 33929, Note_off_c, 0, 78, 0
2, 33936, Note_on_c, 0, 79, 94
2, 33936, Note_on_c, 0, 67, 94
2, 33953, Note_off_c, 0, 79, 0
2, 33960, Note_on_c, 0, 81, 94
2, 33973, Note_off_c, 0, 67, 0
2, 33977, Note_off_c, 0, 81, 0
2, 33984, Note_on_c, 0, 60, 94
2, 33984, Note_on_c, 0, 84, 94
2, 34021, Note_off_c, 0, 60, 0
2, 34032, Note_on_c, 0, 67, 94
2, 34060, Note_off_c, 0, 84, 0
2, 34069, Note_off_c, 0, 67, 0
2, 34080, Note_on_c, 0, 64, 94
2, 34080, Note_on_c, 0, 82, 94
2, 34117, Note_off_c, 0, 64, 0
2, 34128, Note_on_c, 0, 67, 94
2, 34156, Note_off_c, 0, 82, 0
2, 34165, Note_off_c, 0, 67, 0
2, 34176, Note_on_c, 0, 80, 94
2, 34176, Note_on_c, 0, 60, 94
2, 34213, Note_off_c, 0, 60, 0
2, 34224, Note_on_c, 0, 69, 94
2, 34261, Note_off_c, 0, 69, 0
2, 34272, Note_on_c, 0, 65, 94
2, 34309, Note_off_c, 0, 65, 0
2, 34320, Note_on_c, 0, 69, 94
2, 34328, Note_off_c, 0, 80, 0
2, 34357, Note_off_c, 0, 69, 0
2, 34368, Note_on_c, 0, 60, 94
2, 34368, Note_on_c, 0, 81, 94
2, 34405, Note_off_c, 0, 60, 0
2, 34416, Note_on_c, 0, 69, 94
2, 34444, Note_off_c, 0, 81, 0
2, 34453, Note_off_c, 0, 69, 0
2, 34464, Note_on_c, 0, 65, 94
2, 34501, Note_off_c, 0, 65, 0
2, 34512, Note_on_c, 0, 69, 94
2, 34549, Note_off_c, 0, 69, 0
2, 34560, Note_on_c, 0, 84, 94
2, 34560, Note_on_c, 0, 60, 94
2, 34597, Note_off_c, 0, 60, 0
2, 34608, Note_on_c, 0, 69, 94
2, 34645, Note_off_c, 0, 69, 0
2, 34656, Note_on_c, 0, 65, 94
2, 34693, Note_off_c, 0, 65, 0
2, 34704, Note_on_c, 0, 69, 94
2, 34712, Note_off_c, 0, 84, 0
2, 34741, Note_off_c, 0, 69, 0
2, 34752, Note_on_c, 0, 83, 94
2, 34752, Note_on_c, 0, 60, 94
2, 34789, Note_off_c, 0, 60, 0
2, 34789, Note_off_c, 0, 83, 0
2, 34800, Note_on_c, 0, 69, 94
2, 34800, Note_on_c, 0, 81, 94
2, 34837, Note_off_c, 0, 81, 0
2, 34837, Note_off_c, 0, 69, 0
2, 34848, Note_on_c, 0, 65, 94
2, 34848, Note_on_c, 0, 79, 94
2, 34885, Note_off_c, 0, 79, 0
2, 34885, Note_off_c, 0, 65, 0
2, 34896, Note_on_c, 0, 69, 94
2, 34896, Note_on_c, 0, 77, 94
2, 34933, Note_off_c, 0, 77, 0
2, 34933, Note_off_c, 0, 69, 0
2, 34944, Note_on_c, 0, 78, 94
2, 34944, Note_on_c, 0, 60, 94
2, 34981, Note_off_c, 0, 60, 0
2, 34992, Note_on_c, 0, 67, 94
2, 35029, Note_off_c, 0, 67, 0
2, 35040, Note_on_c, 0, 64, 94
2, 35077, Note_off_c, 0, 64, 0
2, 35088, Note_on_c, 0, 67, 94
2, 35096, Note_off_c, 0, 78, 0
2, 35125, Note_off_c, 0, 67, 0
2, 35136, Note_on_c, 0, 60, 94
2, 35136, Note_on_c, 0, 79, 94
2, 35173, Note_off_c, 0, 60, 0
2, 35184, Note_on_c, 0, 67, 94
2, 35212, Note_off_c, 0, 79, 0
2, 35221, Note_off_c, 0, 67, 0
2, 35232, Note_on_c, 0, 64, 94
2, 35269, Note_off_c, 0, 64, 0
2, 35280, Note_on_c, 0, 67, 94
2, 35317, Note_off_c, 0, 67, 0
2, 35424, Note_on_c, 0, 60, 94
2, 35461, Note_off_c, 0, 60, 0
2, 35472, Note_on_c, 0, 64, 94
2, 35509, Note_off_c, 0, 64, 0
2, 35520, Note_on_c, 0, 67, 94
2, 35557, Note_off_c, 0, 67, 0
2, 35568, Note_on_c, 0, 72, 94
2, 35605, Note_off_c, 0, 72, 0
2, 35616, Note_on_c, 0, 76, 94
2, 35653, Note_off_c, 0, 76, 0
2, 35664, Note_on_c, 0, 79, 94
2, 35701, Note_off_c, 0, 79, 0
2, 35808, Note_on_c, 0, 60, 94
2, 35845, Note_off_c, 0, 60, 0
2, 35856, Note_on_c, 0, 65, 94
2, 35893, Note_off_c, 0, 65, 0
2, 35904, Note_on_c, 0, 69, 94
2, 35941, Note_off_c, 0, 69, 0
2, 35952, Note_on_c, 0, 72, 94
2, 35989, Note_off_c, 0, 72, 0
2, 36000, Note_on_c, 0, 77, 94
2, 36037, Note_off_c, 0, 77, 0
2, 36048, Note_on_c, 0, 81, 94
2, 36085, Note_off_c, 0, 81, 0
2, 36096, Note_on_c, 0, 79, 94
2, 36172, Note_off_c, 0, 79, 0
2, 36192, Note_on_c, 0, 77, 94
2, 36192, Note_on_c, 0, 60, 94
2, 36229, Note_off_c, 0, 77, 0
2, 36240, Note_on_c, 0, 77, 94
2, 36268, Note_off_c, 0, 60, 0
2, 36277, Note_off_c, 0, 77, 0
2, 36288, Note_on_c, 0, 74, 94
2, 36364, Note_off_c, 0, 74, 0
2, 36384, Note_on_c, 0, 76, 94
2, 36384, Note_on_c, 0, 62, 94
2, 36421, Note_off_c, 0, 76, 0
2, 36432, Note_on_c, 0, 77, 94
2, 36460, Note_off_c, 0, 62, 0
2, 36469, Note_off_c, 0, 77, 0
2, 36480, Note_on_c, 0, 62, 94
2, 36480, Note_on_c, 0, 77, 94
2, 36632, Note_off_c, 0, 77, 0
2, 36632, Note_off_c, 0, 62, 0
2, 36672, Note_on_c, 0, 60, 94
2, 36672, Note_on_c, 0, 76, 94
2, 36748, Note_off_c, 0, 76, 0
2, 36748, Note_off_c, 0, 60, 0
2, 36960, Note_on_c, 0, 60, 94
2, 36997, Note_off_c, 0, 60, 0
2, 37008, Note_on_c, 0, 64, 94
2, 37045, Note_off_c, 0, 64, 0
2, 37056, Note_on_c, 0, 67, 94
2, 37093, Note_off_c, 0, 67, 0
2, 37104, Note_on_c, 0, 72, 94
2, 37141, Note_off_c, 0, 72, 0
2, 37152, Note_on_c, 0, 76, 94
2, 37189, Note_off_c, 0, 76, 0
2, 37200, Note_on_c, 0, 79, 94
2, 37237, Note_off_c, 0, 79, 0
2, 37344, Note_on_c, 0, 62, 94
2, 37381, Note_off_c, 0, 62, 0
2, 37392, Note_on_c, 0, 65, 94
2, 37429, Note_off_c, 0, 65, 0
2, 37440, Note_on_c, 0, 69, 94
2, 37477, Note_off_c, 0, 69, 0
2, 37488, Note_on_c, 0, 72, 94
2, 37525, Note_off_c, 0, 72, 0
2, 37536, Note_on_c, 0, 77, 94
2, 37573, Note_off_c, 0, 77, 0
2, 37584, Note_on_c, 0, 81, 94
2, 37621, Note_off_c, 0, 81, 0
2, 37632, Note_on_c, 0, 79, 94
2, 37708, Note_off_c, 0, 79, 0
2, 37728, Note_on_c, 0, 77, 94
2, 37728, Note_on_c, 0, 60, 94
2, 37765, Note_off_c, 0, 77, 0
2, 37776, Note_on_c, 0, 76, 94
2, 37804, Note_off_c, 0, 60, 0
2, 37813, Note_off_c, 0, 76, 0
2, 37824, Note_on_c, 0, 74, 94
2, 37900, Note_off_c, 0, 74, 0
2, 37920, Note_on_c, 0, 72, 94
2, 37920, Note_on_c, 0, 65, 94
2, 37957, Note_off_c, 0, 72, 0
2, 37968, Note_on_c, 0, 71, 94
2, 37996, Note_off_c, 0, 65, 0
2, 38005, Note_off_c, 0, 71, 0
2, 38016, Note_on_c, 0, 60, 94
2, 38016, Note_on_c, 0, 72, 94
2, 38016, Note_on_c, 0, 64, 94
2, 38053, Note_off_c, 0, 64, 0
2, 38053, Note_off_c, 0, 60, 0
2, 38064, Note_on_c, 0, 60, 94
2, 38101, Note_off_c, 0, 60, 0
2, 38160, Note_on_c, 0, 60, 94
2, 38168, Note_off_c, 0, 72, 0
2, 38197, Note_off_c, 0, 60, 0
2, 38208, Note_on_c, 0, 67, 94
2, 38208, Note_on_c, 0, 70, 94
2, 38208, Note_on_c, 0, 76, 94
2, 38476, Note_off_c, 0, 76, 0
2, 38476, Note_off_c, 0, 70, 0
2, 38476, Note_off_c, 0, 67, 0
2, 38496, Note_on_c, 0, 77, 80
2, 38496, Note_on_c, 0, 69, 80
2, 38572, Note_off_c, 0, 69, 0
2, 38572, Note_off_c, 0, 77, 0
2, 38592, Note_on_c, 0, 65, 80
2, 38592, Note_on_c, 0, 69, 80
2, 38668, Note_off_c, 0, 69, 0
2, 38668, Note_off_c, 0, 65, 0
2, 38688, Note_on_c, 0, 71, 80
2, 38688, Note_on_c, 0, 62, 80
2, 38709, Note_off_c, 0, 62, 0
2, 38709, Note_off_c, 0, 71, 0
2, 38712, Note_on_c, 0, 72, 80
2, 38733, Note_off_c, 0, 72, 0
2, 38736, Note_on_c, 0, 71, 80
2, 38757, Note_off_c, 0, 71, 0
2, 38760, Note_on_c, 0, 72, 80
2, 38781, Note_off_c, 0, 72, 0
2, 38784, Note_on_c, 0, 64, 80
2, 38784, Note_on_c, 0, 72, 80
2, 38832, Note_on_c, 0, 60, 80
2, 38869, Note_off_c, 0, 60, 0
2, 38928, Note_on_c, 0, 60, 80
2, 38936, Note_off_c, 0, 72, 0
2, 38936, Note_off_c, 0, 64, 0
2, 38965, Note_off_c, 0, 60, 0
2, 38976, Note_on_c, 0, 67, 80
2, 38976, Note_on_c, 0, 70, 80
2, 38976, Note_on_c, 0, 76, 80
2, 39244, Note_off_c, 0, 76, 0
2, 39244, Note_off_c, 0, 70, 0
2, 39244, Note_off_c, 0, 67, 0
2, 39264, Note_on_c, 0, 77, 94
2, 39264, Note_on_c, 0, 69, 94
2, 39340, Note_off_c, 0, 69, 0
2, 39340, Note_off_c, 0, 77, 0
2, 39360, Note_on_c, 0, 69, 94
2, 39360, Note_on_c, 0, 65, 94
2, 39436, Note_off_c, 0, 65, 0
2, 39436, Note_off_c, 0, 69, 0
2, 39456, Note_on_c, 0, 71, 94
2, 39456, Note_on_c, 0, 62, 94
2, 39473, Note_off_c, 0, 62, 0
2, 39473, Note_off_c, 0, 71, 0
2, 39480, Note_on_c, 0, 72, 94
2, 39497, Note_off_c, 0, 72, 0
2, 39504, Note_on_c, 0, 71, 94
2, 39521, Note_off_c, 0, 71, 0
2, 39528, Note_on_c, 0, 72, 94
2, 39545, Note_off_c, 0, 72, 0
2, 39552, Note_on_c, 0, 72, 94
2, 39552, Note_on_c, 0, 64, 94
2, 39569, Note_off_c, 0, 72, 0
2, 39576, Note_on_c, 0, 74, 94
2, 39593, Note_off_c, 0, 74, 0
2, 39600, Note_on_c, 0, 71, 94
2, 39628, Note_off_c, 0, 64, 0
2, 39637, Note_off_c, 0, 71, 0
2, 39648, Note_on_c, 0, 72, 94
2, 39685, Note_off_c, 0, 72, 0
2, 39696, Note_on_c, 0, 76, 94
2, 39733, Note_off_c, 0, 76, 0
2, 39744, Note_on_c, 0, 74, 94
2, 39761, Note_off_c, 0, 74, 0
2, 39768, Note_on_c, 0, 76, 94
2, 39785, Note_off_c, 0, 76, 0
2, 39792, Note_on_c, 0, 72, 94
2, 39829, Note_off_c, 0, 72, 0
2, 39840, Note_on_c, 0, 74, 94
2, 39877, Note_off_c, 0, 74, 0
2, 39888, Note_on_c, 0, 77, 94
2, 39925, Note_off_c, 0, 77, 0
2, 39936, Note_on_c, 0, 60, 94
2, 39936, Note_on_c, 0, 76, 94
2, 39953, Note_off_c, 0, 76, 0
2, 39960, Note_on_c, 0, 77, 94
2, 39977, Note_off_c, 0, 77, 0
2, 39984, Note_on_c, 0, 74, 94
2, 40012, Note_off_c, 0, 60, 0
2, 40021, Note_off_c, 0, 74, 0
2, 40032, Note_on_c, 0, 76, 94
2, 40069, Note_off_c, 0, 76, 0
2, 40080, Note_on_c, 0, 79, 94
2, 40117, Note_off_c, 0, 79, 0
2, 40128, Note_on_c, 0, 77, 94
2, 40128, Note_on_c, 0, 62, 94
2, 40145, Note_off_c, 0, 77, 0
2, 40152, Note_on_c, 0, 79, 94
2, 40169, Note_off_c, 0, 79, 0
2, 40176, Note_on_c, 0, 76, 94
2, 40204, Note_off_c, 0, 62, 0
2, 40213, Note_off_c, 0, 76, 0
2, 40224, Note_on_c, 0, 77, 94
2, 40261, Note_off_c, 0, 77, 0
2, 40272, Note_on_c, 0, 81, 94
2, 40309, Note_off_c, 0, 81, 0
2, 40320, Note_on_c, 0, 64, 94
2, 40320, Note_on_c, 0, 79, 94
2, 40357, Note_off_c, 0, 79, 0
2, 40368, Note_on_c, 0, 84, 94
2, 40405, Note_off_c, 0, 84, 0
2, 40416, Note_on_c, 0, 88, 94
2, 40453, Note_off_c, 0, 88, 0
2, 40464, Note_on_c, 0, 83, 94
2, 40472, Note_off_c, 0, 64, 0
2, 40501, Note_off_c, 0, 83, 0
2, 40512, Note_on_c, 0, 84, 94
2, 40549, Note_off_c, 0, 84, 0
2, 40560, Note_on_c, 0, 79, 94
2, 40597, Note_off_c, 0, 79, 0
2, 40608, Note_on_c, 0, 81, 94
2, 40608, Note_on_c, 0, 62, 94
2, 40645, Note_off_c, 0, 81, 0
2, 40656, Note_on_c, 0, 77, 94
2, 40684, Note_off_c, 0, 62, 0
2, 40693, Note_off_c, 0, 77, 0
2, 40704, Note_on_c, 0, 60, 94
2, 40704, Note_on_c, 0, 76, 94
2, 40721, Note_off_c, 0, 76, 0
2, 40728, Note_on_c, 0, 77, 94
2, 40745, Note_off_c, 0, 77, 0
2, 40752, Note_on_c, 0, 76, 94
2, 40769, Note_off_c, 0, 76, 0
2, 40776, Note_on_c, 0, 77, 94
2, 40780, Note_off_c, 0, 60, 0
2, 40793, Note_off_c, 0, 77, 0
2, 40800, Note_on_c, 0, 74, 94
2, 40876, Note_off_c, 0, 74, 0
2, 41088, Note_on_c, 0, 75, 94
2, 41109, Note_off_c, 0, 75, 0
2, 41112, Note_on_c, 0, 76, 94
2, 41264, Note_off_c, 0, 76, 0
2, 41304, Note_on_c, 0, 75, 94
2, 41325, Note_off_c, 0, 75, 0
2, 41328, Note_on_c, 0, 76, 94
2, 41472, Note_on_c, 0, 71, 94
2, 41477, Note_off_c, 0, 71, 0
2, 41480, Note_off_c, 0, 76, 0
2, 41496, Note_on_c, 0, 74, 94
2, 41501, Note_off_c, 0, 74, 0
2, 41520, Note_on_c, 0, 80, 94
2, 41525, Note_off_c, 0, 80, 0
2, 41544, Note_on_c, 0, 83, 94
2, 41808, Note_on_c, 0, 64, 94
2, 41845, Note_off_c, 0, 64, 0
2, 41965, Note_off_c, 0, 83, 0
2, 41976, Note_on_c, 0, 81, 94
2, 42013, Note_off_c, 0, 81, 0
2, 42024, Note_on_c, 0, 80, 94
2, 42061, Note_off_c, 0, 80, 0
2, 42072, Note_on_c, 0, 77, 94
2, 42109, Note_off_c, 0, 77, 0
2, 42120, Note_on_c, 0, 76, 94
2, 42157, Note_off_c, 0, 76, 0
2, 42168, Note_on_c, 0, 74, 94
2, 42205, Note_off_c, 0, 74, 0
2, 42240, Note_on_c, 0, 72, 94
2, 42240, Note_on_c, 0, 74, 94
2, 42253, Note_off_c, 0, 72, 0
2, 42277, Note_off_c, 0, 74, 0
2, 42288, Note_on_c, 0, 72, 94
2, 42325, Note_off_c, 0, 72, 0
2, 42336, Note_on_c, 0, 71, 94
2, 42373, Note_off_c, 0, 71, 0
2, 42384, Note_on_c, 0, 72, 94
2, 42421, Note_off_c, 0, 72, 0
2, 42432, Note_on_c, 0, 71, 94
2, 42469, Note_off_c, 0, 71, 0
2, 42480, Note_on_c, 0, 72, 94
2, 42517, Note_off_c, 0, 72, 0
2, 42528, Note_on_c, 0, 74, 94
2, 42565, Note_off_c, 0, 74, 0
2, 42576, Note_on_c, 0, 72, 94
2, 42613, Note_off_c, 0, 72, 0
2, 42624, Note_on_c, 0, 71, 94
2, 42645, Note_off_c, 0, 71, 0
2, 42648, Note_on_c, 0, 72, 94
2, 42800, Note_off_c, 0, 72, 0
2, 42840, Note_on_c, 0, 71, 94
2, 42861, Note_off_c, 0, 71, 0
2, 42864, Note_on_c, 0, 72, 94
2, 43008, Note_on_c, 0, 69, 94
2, 43013, Note_off_c, 0, 69, 0
2, 43016, Note_off_c, 0, 72, 0
2, 43032, Note_on_c, 0, 72, 94
2, 43037, Note_off_c, 0, 72, 0
2, 43056, Note_on_c, 0, 78, 94
2, 43061, Note_off_c, 0, 78, 0
2, 43080, Note_on_c, 0, 81, 94
2, 43344, Note_on_c, 0, 62, 94
2, 43381, Note_off_c, 0, 62, 0
2, 43501, Note_off_c, 0, 81, 0
2, 43512, Note_on_c, 0, 79, 94
2, 43549, Note_off_c, 0, 79, 0
2, 43560, Note_on_c, 0, 78, 94
2, 43597, Note_off_c, 0, 78, 0
2, 43608, Note_on_c, 0, 76, 94
2, 43645, Note_off_c, 0, 76, 0
2, 43656, Note_on_c, 0, 74, 94
2, 43693, Note_off_c, 0, 74, 0
2, 43704, Note_on_c, 0, 72, 94
2, 43741, Note_off_c, 0, 72, 0
2, 43776, Note_on_c, 0, 71, 94
2, 43776, Note_on_c, 0, 71, 52
2, 43789, Note_off_c, 0, 71, 0
2, 43824, Note_on_c, 0, 67, 52
2, 43861, Note_off_c, 0, 67, 0
2, 43872, Note_on_c, 0, 66, 52
2, 43909, Note_off_c, 0, 66, 0
2, 43920, Note_on_c, 0, 67, 52
2, 43928, Note_off_c, 0, 71, 0
2, 43957, Note_off_c, 0, 67, 0
2, 43968, Note_on_c, 0, 74, 52
2, 44016, Note_on_c, 0, 67, 52
2, 44044, Note_off_c, 0, 74, 0
2, 44053, Note_off_c, 0, 67, 0
2, 44064, Note_on_c, 0, 66, 52
2, 44064, Note_on_c, 0, 74, 52
2, 44101, Note_off_c, 0, 66, 0
2, 44112, Note_on_c, 0, 67, 52
2, 44140, Note_off_c, 0, 74, 0
2, 44149, Note_off_c, 0, 67, 0
2, 44160, Note_on_c, 0, 60, 52
2, 44160, Note_on_c, 0, 76, 52
2, 44197, Note_off_c, 0, 60, 0
2, 44208, Note_on_c, 0, 67, 52
2, 44245, Note_off_c, 0, 67, 0
2, 44256, Note_on_c, 0, 66, 52
2, 44273, Note_off_c, 0, 76, 0
2, 44293, Note_off_c, 0, 66, 0
2, 44304, Note_on_c, 0, 78, 52
2, 44304, Note_on_c, 0, 67, 52
2, 44341, Note_off_c, 0, 67, 0
2, 44341, Note_off_c, 0, 78, 0
2, 44352, Note_on_c, 0, 60, 52
2, 44352, Note_on_c, 0, 79, 52
2, 44389, Note_off_c, 0, 60, 0
2, 44400, Note_on_c, 0, 67, 52
2, 44428, Note_off_c, 0, 79, 0
2, 44437, Note_off_c, 0, 67, 0
2, 44448, Note_on_c, 0, 66, 52
2, 44448, Note_on_c, 0, 78, 52
2, 44485, Note_off_c, 0, 78, 0
2, 44485, Note_off_c, 0, 66, 0
2, 44496, Note_on_c, 0, 67, 52
2, 44496, Note_on_c, 0, 76, 52
2, 44533, Note_off_c, 0, 76, 0
2, 44533, Note_off_c, 0, 67, 0
2, 44544, Note_on_c, 0, 74, 52
2, 44592, Note_on_c, 0, 67, 52
2, 44620, Note_off_c, 0, 74, 0
2, 44629, Note_off_c, 0, 67, 0
2, 44640, Note_on_c, 0, 66, 52
2, 44677, Note_off_c, 0, 66, 0
2, 44688, Note_on_c, 0, 67, 52
2, 44725, Note_off_c, 0, 67, 0
2, 44736, Note_on_c, 0, 74, 52
2, 44773, Note_off_c, 0, 74, 0
2, 44784, Note_on_c, 0, 67, 52
2, 44784, Note_on_c, 0, 71, 52
2, 44821, Note_off_c, 0, 71, 0
2, 44821, Note_off_c, 0, 67, 0
2, 44832, Note_on_c, 0, 74, 52
2, 44832, Note_on_c, 0, 66, 52
2, 44869, Note_off_c, 0, 66, 0
2, 44869, Note_off_c, 0, 74, 0
2, 44880, Note_on_c, 0, 71, 52
2, 44880, Note_on_c, 0, 67, 52
2, 44917, Note_off_c, 0, 67, 0
2, 44917, Note_off_c, 0, 71, 0
2, 44928, Note_on_c, 0, 60, 52
2, 44928, Note_on_c, 0, 76, 52
2, 44965, Note_off_c, 0, 60, 0
2, 44976, Note_on_c, 0, 67, 52
2, 45013, Note_off_c, 0, 67, 0
2, 45024, Note_on_c, 0, 66, 52
2, 45041, Note_off_c, 0, 76, 0
2, 45061, Note_off_c, 0, 66, 0
2, 45072, Note_on_c, 0, 78, 52
2, 45072, Note_on_c, 0, 67, 52
2, 45109, Note_off_c, 0, 67, 0
2, 45109, Note_off_c, 0, 78, 0
2, 45120, Note_on_c, 0, 60, 52
2, 45120, Note_on_c, 0, 79, 52
2, 45157, Note_off_c, 0, 60, 0
2, 45168, Note_on_c, 0, 67, 52
2, 45196, Note_off_c, 0, 79, 0
2, 45205, Note_off_c, 0, 67, 0
2, 45216, Note_on_c, 0, 66, 52
2, 45216, Note_on_c, 0, 78, 52
2, 45253, Note_off_c, 0, 78, 0
2, 45253, Note_off_c, 0, 66, 0
2, 45264, Note_on_c, 0, 67, 52
2, 45264, Note_on_c, 0, 76, 52
2, 45301, Note_off_c, 0, 76, 0
2, 45301, Note_off_c, 0, 67, 0
2, 45312, Note_on_c, 0, 74, 52
2, 45388, Note_off_c, 0, 74, 0
2, 45408, Note_on_c, 0, 83, 52
2, 45445, Note_off_c, 0, 83, 0
2, 45456, Note_on_c, 0, 81, 52
2, 45493, Note_off_c, 0, 81, 0
2, 45504, Note_on_c, 0, 79, 52
2, 45541, Note_off_c, 0, 79, 0
2, 45552, Note_on_c, 0, 78, 52
2, 45589, Note_off_c, 0, 78, 0
2, 45600, Note_on_c, 0, 76, 52
2, 45600, Note_on_c, 0, 68, 52
2, 45637, Note_off_c, 0, 76, 0
2, 45648, Note_on_c, 0, 74, 52
2, 45676, Note_off_c, 0, 68, 0
2, 45685, Note_off_c, 0, 74, 0
2, 45696, Note_on_c, 0, 69, 52
2, 45696, Note_on_c, 0, 72, 52
2, 45713, Note_off_c, 0, 72, 0
2, 45720, Note_on_c, 0, 74, 52
2, 45737, Note_off_c, 0, 74, 0
2, 45744, Note_on_c, 0, 72, 52
2, 45761, Note_off_c, 0, 72, 0
2, 45768, Note_on_c, 0, 74, 52
2, 45785, Note_off_c, 0, 74, 0
2, 45792, Note_on_c, 0, 81, 52
2, 45829, Note_off_c, 0, 81, 0
2, 45840, Note_on_c, 0, 79, 52
2, 45848, Note_off_c, 0, 69, 0
2, 45877, Note_off_c, 0, 79, 0
2, 45888, Note_on_c, 0, 78, 52
2, 45925, Note_off_c, 0, 78, 0
2, 45936, Note_on_c, 0, 76, 52
2, 45973, Note_off_c, 0, 76, 0
2, 45984, Note_on_c, 0, 74, 52
2, 45984, Note_on_c, 0, 66, 52
2, 46021, Note_off_c, 0, 74, 0
2, 46032, Note_on_c, 0, 72, 52
2, 46060, Note_off_c, 0, 66, 0
2, 46069, Note_off_c, 0, 72, 0
2, 46080, Note_on_c, 0, 67, 52
2, 46080, Note_on_c, 0, 71, 52
2, 46097, Note_off_c, 0, 71, 0
2, 46104, Note_on_c, 0, 72, 52
2, 46121, Note_off_c, 0, 72, 0
2, 46128, Note_on_c, 0, 71, 52
2, 46145, Note_off_c, 0, 71, 0
2, 46152, Note_on_c, 0, 72, 52
2, 46169, Note_off_c, 0, 72, 0
2, 46176, Note_on_c, 0, 79, 52
2, 46213, Note_off_c, 0, 79, 0
2, 46224, Note_on_c, 0, 78, 52
2, 46232, Note_off_c, 0, 67, 0
2, 46261, Note_off_c, 0, 78, 0
2, 46272, Note_on_c, 0, 76, 52
2, 46309, Note_off_c, 0, 76, 0
2, 46320, Note_on_c, 0, 74, 52
2, 46357, Note_off_c, 0, 74, 0
2, 46368, Note_on_c, 0, 72, 52
2, 46368, Note_on_c, 0, 64, 52
2, 46405, Note_off_c, 0, 72, 0
2, 46416, Note_on_c, 0, 71, 52
2, 46444, Note_off_c, 0, 64, 0
2, 46453, Note_off_c, 0, 71, 0
2, 46464, Note_on_c, 0, 60, 52
2, 46464, Note_on_c, 0, 69, 52
2, 46481, Note_off_c, 0, 69, 0
2, 46488, Note_on_c, 0, 71, 52
2, 46505, Note_off_c, 0, 71, 0
2, 46512, Note_on_c, 0, 69, 52
2, 46529, Note_off_c, 0, 69, 0
2, 46536, Note_on_c, 0, 71, 52
2, 46553, Note_off_c, 0, 71, 0
2, 46560, Note_on_c, 0, 76, 52
2, 46597, Note_off_c, 0, 76, 0
2, 46608, Note_on_c, 0, 74, 52
2, 46616, Note_off_c, 0, 60, 0
2, 46645, Note_off_c, 0, 74, 0
2, 46656, Note_on_c, 0, 72, 52
2, 46693, Note_off_c, 0, 72, 0
2, 46704, Note_on_c, 0, 71, 52
2, 46741, Note_off_c, 0, 71, 0
2, 46752, Note_on_c, 0, 69, 52
2, 46752, Note_on_c, 0, 61, 52
2, 46789, Note_off_c, 0, 69, 0
2, 46800, Note_on_c, 0, 67, 52
2, 46828, Note_off_c, 0, 61, 0
2, 46837, Note_off_c, 0, 67, 0
2, 46848, Note_on_c, 0, 62, 94
2, 46848, Note_on_c, 0, 66, 94
2, 46885, Note_off_c, 0, 66, 0
2, 46896, Note_on_c, 0, 74, 94
2, 46933, Note_off_c, 0, 74, 0
2, 46944, Note_on_c, 0, 83, 94
2, 46981, Note_off_c, 0, 83, 0
2, 46992, Note_on_c, 0, 81, 94
2, 47000, Note_off_c, 0, 62, 0
2, 47029, Note_off_c, 0, 81, 0
2, 47040, Note_on_c, 0, 79, 94
2, 47077, Note_off_c, 0, 79, 0
2, 47088, Note_on_c, 0, 78, 94
2, 47125, Note_off_c, 0, 78, 0
2, 47136, Note_on_c, 0, 76, 94
2, 47136, Note_on_c, 0, 68, 94
2, 47173, Note_off_c, 0, 76, 0
2, 47184, Note_on_c, 0, 74, 94
2, 47212, Note_off_c, 0, 68, 0
2, 47221, Note_off_c, 0, 74, 0
2, 47232, Note_on_c, 0, 69, 94
2, 47232, Note_on_c, 0, 74, 94
2, 47269, Note_off_c, 0, 74, 0
2, 47280, Note_on_c, 0, 73, 94
2, 47317, Note_off_c, 0, 73, 0
2, 47328, Note_on_c, 0, 81, 94
2, 47365, Note_off_c, 0, 81, 0
2, 47376, Note_on_c, 0, 79, 94
2, 47384, Note_off_c, 0, 69, 0
2, 47413, Note_off_c, 0, 79, 0
2, 47424, Note_on_c, 0, 78, 94
2, 47461, Note_off_c, 0, 78, 0
2, 47472, Note_on_c, 0, 76, 94
2, 47509, Note_off_c, 0, 76, 0
2, 47520, Note_on_c, 0, 74, 94
2, 47520, Note_on_c, 0, 66, 94
2, 47557, Note_off_c, 0, 74, 0
2, 47568, Note_on_c, 0, 72, 94
2, 47596, Note_off_c, 0, 66, 0
2, 47605, Note_off_c, 0, 72, 0
2, 47616, Note_on_c, 0, 67, 94
2, 47616, Note_on_c, 0, 72, 94
2, 47653, Note_off_c, 0, 72, 0
2, 47664, Note_on_c, 0, 71, 94
2, 47701, Note_off_c, 0, 71, 0
2, 47712, Note_on_c, 0, 79, 94
2, 47749, Note_off_c, 0, 79, 0
2, 47760, Note_on_c, 0, 78, 94
2, 47768, Note_off_c, 0, 67, 0
2, 47797, Note_off_c, 0, 78, 0
2, 47808, Note_on_c, 0, 76, 94
2, 47845, Note_off_c, 0, 76, 0
2, 47856, Note_on_c, 0, 74, 94
2, 47893, Note_off_c, 0, 74, 0
2, 47904, Note_on_c, 0, 72, 94
2, 47904, Note_on_c, 0, 64, 94
2, 47941, Note_off_c, 0, 72, 0
2, 47952, Note_on_c, 0, 71, 94
2, 47980, Note_off_c, 0, 64, 0
2, 47989, Note_off_c, 0, 71, 0
2, 48000, Note_on_c, 0, 69, 94
2, 48000, Note_on_c, 0, 60, 94
2, 48037, Note_off_c, 0, 60, 0
2, 48048, Note_on_c, 0, 67, 94
2, 48085, Note_off_c, 0, 67, 0
2, 48096, Note_on_c, 0, 66, 94
2, 48133, Note_off_c, 0, 66, 0
2, 48144, Note_on_c, 0, 67, 94
2, 48152, Note_off_c, 0, 69, 0
2, 48181, Note_off_c, 0, 67, 0
2, 48192, Note_on_c, 0, 71, 94
2, 48192, Note_on_c, 0, 62, 94
2, 48209, Note_off_c, 0, 71, 0
2, 48216, Note_on_c, 0, 72, 94
2, 48229, Note_off_c, 0, 62, 0
2, 48233, Note_off_c, 0, 72, 0
2, 48240, Note_on_c, 0, 71, 94
2, 48240, Note_on_c, 0, 67, 94
2, 48257, Note_off_c, 0, 71, 0
2, 48264, Note_on_c, 0, 72, 94
2, 48277, Note_off_c, 0, 67, 0
2, 48281, Note_off_c, 0, 72, 0
2, 48288, Note_on_c, 0, 71, 94
2, 48288, Note_on_c, 0, 66, 94
2, 48305, Note_off_c, 0, 71, 0
2, 48312, Note_on_c, 0, 72, 94
2, 48325, Note_off_c, 0, 66, 0
2, 48329, Note_off_c, 0, 72, 0
2, 48336, Note_on_c, 0, 69, 94
2, 48336, Note_on_c, 0, 67, 94
2, 48353, Note_off_c, 0, 69, 0
2, 48360, Note_on_c, 0, 71, 94
2, 48373, Note_off_c, 0, 67, 0
2, 48377, Note_off_c, 0, 71, 0
2, 48384, Note_on_c, 0, 72, 52
2, 48384, Note_on_c, 0, 64, 52
2, 48421, Note_off_c, 0, 64, 0
2, 48432, Note_on_c, 0, 67, 52
2, 48469, Note_off_c, 0, 67, 0
2, 48480, Note_on_c, 0, 66, 52
2, 48517, Note_off_c, 0, 66, 0
2, 48528, Note_on_c, 0, 67, 52
2, 48565, Note_off_c, 0, 67, 0
2, 48576, Note_on_c, 0, 62, 52
2, 48613, Note_off_c, 0, 72, 0
2, 48613, Note_off_c, 0, 62, 0
2, 48624, Note_on_c, 0, 67, 52
2, 48661, Note_off_c, 0, 67, 0
2, 48672, Note_on_c, 0, 66, 52
2, 48672, Note_on_c, 0, 71, 52
2, 48709, Note_off_c, 0, 66, 0
2, 48720, Note_on_c, 0, 67, 52
2, 48748, Note_off_c, 0, 71, 0
2, 48757, Note_off_c, 0, 67, 0
2, 48768, Note_on_c, 0, 60, 52
2, 48768, Note_on_c, 0, 69, 52
2, 48805, Note_off_c, 0, 60, 0
2, 48816, Note_on_c, 0, 67, 52
2, 48844, Note_off_c, 0, 69, 0
2, 48853, Note_off_c, 0, 67, 0
2, 48864, Note_on_c, 0, 68, 52
2, 48864, Note_on_c, 0, 66, 52
2, 48885, Note_off_c, 0, 68, 0
2, 48888, Note_on_c, 0, 69, 52
2, 48901, Note_off_c, 0, 66, 0
2, 48912, Note_on_c, 0, 67, 52
2, 48949, Note_off_c, 0, 67, 0
2, 48960, Note_on_c, 0, 62, 52
2, 48964, Note_off_c, 0, 69, 0
2, 48984, Note_on_c, 0, 71, 52
2, 48997, Note_off_c, 0, 62, 0
2, 49008, Note_on_c, 0, 67, 52
2, 49045, Note_off_c, 0, 67, 0
2, 49056, Note_on_c, 0, 66, 52
2, 49060, Note_off_c, 0, 71, 0
2, 49080, Note_on_c, 0, 71, 52
2, 49093, Note_off_c, 0, 66, 0
2, 49104, Note_on_c, 0, 67, 52
2, 49141, Note_off_c, 0, 67, 0
2, 49152, Note_on_c, 0, 71, 52
2, 49152, Note_on_c, 0, 64, 52
2, 49156, Note_off_c, 0, 71, 0
2, 49157, Note_off_c, 0, 71, 0
2, 49176, Note_on_c, 0, 74, 52
2, 49181, Note_off_c, 0, 74, 0
2, 49189, Note_off_c, 0, 64, 0
2, 49200, Note_on_c, 0, 67, 52
2, 49200, Note_on_c, 0, 72, 52
2, 49237, Note_off_c, 0, 67, 0
2, 49248, Note_on_c, 0, 66, 52
2, 49285, Note_off_c, 0, 66, 0
2, 49296, Note_on_c, 0, 67, 52
2, 49333, Note_off_c, 0, 67, 0
2, 49344, Note_on_c, 0, 62, 52
2, 49381, Note_off_c, 0, 62, 0
2, 49392, Note_on_c, 0, 67, 52
2, 49429, Note_off_c, 0, 72, 0
2, 49429, Note_off_c, 0, 67, 0
2, 49440, Note_on_c, 0, 66, 52
2, 49477, Note_off_c, 0, 66, 0
2, 49488, Note_on_c, 0, 67, 52
2, 49488, Note_on_c, 0, 71, 52
2, 49525, Note_off_c, 0, 67, 0
2, 49564, Note_off_c, 0, 71, 0
2, 49584, Note_on_c, 0, 68, 52
2, 49589, Note_off_c, 0, 68, 0
2, 49608, Note_on_c, 0, 69, 52
2, 49632, Note_on_c, 0, 60, 52
2, 49632, Note_on_c, 0, 64, 52
2, 49708, Note_off_c, 0, 64, 0
2, 49708, Note_off_c, 0, 60, 0
2, 49728, Note_on_c, 0, 60, 52
2, 49728, Note_on_c, 0, 62, 52
2, 49760, Note_off_c, 0, 69, 0
2, 49804, Note_off_c, 0, 60, 0
2, 49804, Note_off_c, 0, 62, 0
2, 49824, Note_on_c, 0, 64, 52
2, 49824, Note_on_c, 0, 60, 52
2, 49900, Note_off_c, 0, 60, 0
2, 49900, Note_off_c, 0, 64, 0
2, 49920, Note_on_c, 0, 71, 94
2, 49925, Note_off_c, 0, 71, 0
2, 49944, Note_on_c, 0, 72, 94
2, 50016, Note_on_c, 0, 64, 94
2, 50016, Note_on_c, 0, 60, 94
2, 50092, Note_off_c, 0, 60, 0
2, 50092, Note_off_c, 0, 64, 0
2, 50096, Note_off_c, 0, 72, 0
2, 50112, Note_on_c, 0, 63, 94
2, 50188, Note_off_c, 0, 63, 0
2, 50208, Note_on_c, 0, 64, 94
2, 50208, Note_on_c, 0, 60, 94
2, 50284, Note_off_c, 0, 60, 0
2, 50284, Note_off_c, 0, 64, 0
2, 50328, Note_on_c, 0, 75, 94
2, 50333, Note_off_c, 0, 75, 0
2, 50352, Note_on_c, 0, 76, 94
2, 50400, Note_on_c, 0, 60, 94
2, 50400, Note_on_c, 0, 64, 94
2, 50476, Note_off_c, 0, 64, 0
2, 50476, Note_off_c, 0, 60, 0
2, 50496, Note_on_c, 0, 63, 94
2, 50504, Note_off_c, 0, 76, 0
2, 50572, Note_off_c, 0, 63, 0
2, 50592, Note_on_c, 0, 60, 94
2, 50592, Note_on_c, 0, 64, 94
2, 50668, Note_off_c, 0, 64, 0
2, 50668, Note_off_c, 0, 60, 0
2, 50688, Note_on_c, 0, 68, 52
2, 50693, Note_off_c, 0, 68, 0
2, 50712, Note_on_c, 0, 69, 52
2, 50788, Note_off_c, 0, 69, 0
2, 50808, Note_on_c, 0, 71, 52
2, 50813, Note_off_c, 0, 71, 0
2, 50832, Note_on_c, 0, 72, 52
2, 50908, Note_off_c, 0, 72, 0
2, 50928, Note_on_c, 0, 75, 52
2, 50949, Note_off_c, 0, 75, 0
2, 50952, Note_on_c, 0, 76, 52
2, 51024, Note_on_c, 0, 80, 52
2, 51029, Note_off_c, 0, 80, 0
2, 51041, Note_off_c, 0, 76, 0
2, 51048, Note_on_c, 0, 81, 52
2, 51124, Note_off_c, 0, 81, 0
2, 51136, Note_on_c, 0, 83, 52
2, 51144, Note_off_c, 0, 83, 0
2, 51144, Note_on_c, 0, 84, 52
2, 51220, Note_off_c, 0, 84, 0
2, 51232, Note_on_c, 0, 80, 52
2, 51240, Note_off_c, 0, 80, 0
2, 51240, Note_on_c, 0, 81, 52
2, 51316, Note_off_c, 0, 81, 0
2, 51328, Note_on_c, 0, 75, 52
2, 51336, Note_off_c, 0, 75, 0
2, 51336, Note_on_c, 0, 76, 52
2, 51412, Note_off_c, 0, 76, 0
2, 51424, Note_on_c, 0, 71, 52
2, 51432, Note_off_c, 0, 71, 0
2, 51456, Note_on_c, 0, 72, 52
2, 51456, Note_on_c, 0, 74, 94
2, 51508, Note_off_c, 0, 72, 0
2, 51685, Note_off_c, 0, 74, 0
2, 51744, Note_on_c, 0, 71, 94
2, 51820, Note_off_c, 0, 71, 0
2, 51840, Note_on_c, 0, 68, 94
2, 51845, Note_off_c, 0, 68, 0
2, 51864, Note_on_c, 0, 69, 94
2, 51888, Note_on_c, 0, 60, 94
2, 51925, Note_off_c, 0, 60, 0
2, 51984, Note_on_c, 0, 60, 94
2, 52016, Note_off_c, 0, 69, 0
2, 52021, Note_off_c, 0, 60, 0
2, 52080, Note_on_c, 0, 60, 94
2, 52117, Note_off_c, 0, 60, 0
2, 52176, Note_on_c, 0, 60, 94
2, 52213, Note_off_c, 0, 60, 0
2, 52224, Note_on_c, 0, 67, 94
2, 52272, Note_on_c, 0, 62, 94
2, 52300, Note_off_c, 0, 67, 0
2, 52309, Note_off_c, 0, 62, 0
2, 52320, Note_on_c, 0, 79, 94
2, 52357, Note_off_c, 0, 79, 0
2, 52368, Note_on_c, 0, 62, 94
2, 52368, Note_on_c, 0, 79, 94
2, 52405, Note_off_c, 0, 79, 0
2, 52405, Note_off_c, 0, 62, 0
2, 52416, Note_on_c, 0, 79, 94
2, 52453, Note_off_c, 0, 79, 0
2, 52464, Note_on_c, 0, 74, 94
2, 52501, Note_off_c, 0, 74, 0
2, 52512, Note_on_c, 0, 71, 94
2, 52549, Note_off_c, 0, 71, 0
2, 52560, Note_on_c, 0, 67, 94
2, 52597, Note_off_c, 0, 67, 0
2, 52608, Note_on_c, 0, 69, 94
2, 52656, Note_on_c, 0, 62, 94
2, 52684, Note_off_c, 0, 69, 0
2, 52693, Note_off_c, 0, 62, 0
2, 52704, Note_on_c, 0, 81, 94
2, 52741, Note_off_c, 0, 81, 0
2, 52752, Note_on_c, 0, 81, 94
2, 52752, Note_on_c, 0, 62, 94
2, 52789, Note_off_c, 0, 62, 0
2, 52789, Note_off_c, 0, 81, 0
2, 52800, Note_on_c, 0, 81, 94
2, 52837, Note_off_c, 0, 81, 0
2, 52848, Note_on_c, 0, 78, 94
2, 52885, Note_off_c, 0, 78, 0
2, 52896, Note_on_c, 0, 74, 94
2, 52933, Note_off_c, 0, 74, 0
2, 52944, Note_on_c, 0, 69, 94
2, 52981, Note_off_c, 0, 69, 0
2, 52992, Note_on_c, 0, 71, 94
2, 53040, Note_on_c, 0, 62, 94
2, 53068, Note_off_c, 0, 71, 0
2, 53077, Note_off_c, 0, 62, 0
2, 53088, Note_on_c, 0, 83, 94
2, 53125, Note_off_c, 0, 83, 0
2, 53136, Note_on_c, 0, 83, 94
2, 53136, Note_on_c, 0, 62, 94
2, 53173, Note_off_c, 0, 62, 0
2, 53173, Note_off_c, 0, 83, 0
2, 53184, Note_on_c, 0, 83, 94
2, 53221, Note_off_c, 0, 83, 0
2, 53232, Note_on_c, 0, 79, 94
2, 53269, Note_off_c, 0, 79, 0
2, 53280, Note_on_c, 0, 74, 94
2, 53317, Note_off_c, 0, 74, 0
2, 53328, Note_on_c, 0, 71, 94
2, 53365, Note_off_c, 0, 71, 0
2, 53376, Note_on_c, 0, 75, 94
2, 53413, Note_off_c, 0, 75, 0
2, 53424, Note_on_c, 0, 76, 94
2, 53461, Note_off_c, 0, 76, 0
2, 53472, Note_on_c, 0, 72, 94
2, 53509, Note_off_c, 0, 72, 0
2, 53520, Note_on_c, 0, 69, 94
2, 53557, Note_off_c, 0, 69, 0
2, 53568, Note_on_c, 0, 60, 94
2, 53568, Note_on_c, 0, 71, 94
2, 53605, Note_off_c, 0, 71, 0
2, 53616, Note_on_c, 0, 72, 94
2, 53653, Note_off_c, 0, 72, 0
2, 53664, Note_on_c, 0, 69, 94
2, 53701, Note_off_c, 0, 69, 0
2, 53712, Note_on_c, 0, 66, 94
2, 53720, Note_off_c, 0, 60, 0
2, 53749, Note_off_c, 0, 66, 0
2, 53760, Note_on_c, 0, 67, 94
2, 53797, Note_off_c, 0, 67, 0
2, 53808, Note_on_c, 0, 78, 94
2, 53845, Note_off_c, 0, 78, 0
2, 53856, Note_on_c, 0, 79, 94
2, 53893, Note_off_c, 0, 79, 0
2, 53904, Note_on_c, 0, 78, 94
2, 53941, Note_off_c, 0, 78, 0
2, 53952, Note_on_c, 0, 79, 94
2, 53989, Note_off_c, 0, 79, 0
2, 54000, Note_on_c, 0, 74, 94
2, 54037, Note_off_c, 0, 74, 0
2, 54048, Note_on_c, 0, 71, 94
2, 54085, Note_off_c, 0, 71, 0
2, 54096, Note_on_c, 0, 67, 94
2, 54133, Note_off_c, 0, 67, 0
2, 54144, Note_on_c, 0, 69, 94
2, 54181, Note_off_c, 0, 69, 0
2, 54192, Note_on_c, 0, 80, 94
2, 54229, Note_off_c, 0, 80, 0
2, 54240, Note_on_c, 0, 81, 94
2, 54277, Note_off_c, 0, 81, 0
2, 54288, Note_on_c, 0, 80, 94
2, 54325, Note_off_c, 0, 80, 0
2, 54336, Note_on_c, 0, 81, 94
2, 54373, Note_off_c, 0, 81, 0
2, 54384, Note_on_c, 0, 78, 94
2, 54421, Note_off_c, 0, 78, 0
2, 54432, Note_on_c, 0, 74, 94
2, 54469, Note_off_c, 0, 74, 0
2, 54480, Note_on_c, 0, 69, 94
2, 54517, Note_off_c, 0, 69, 0
2, 54528, Note_on_c, 0, 71, 94
2, 54565, Note_off_c, 0, 71, 0
2, 54576, Note_on_c, 0, 82, 94
2, 54613, Note_off_c, 0, 82, 0
2, 54624, Note_on_c, 0, 83, 94
2, 54661, Note_off_c, 0, 83, 0
2, 54672, Note_on_c, 0, 82, 94
2, 54709, Note_off_c, 0, 82, 0
2, 54720, Note_on_c, 0, 83, 94
2, 54757, Note_off_c, 0, 83, 0
2, 54768, Note_on_c, 0, 79, 94
2, 54805, Note_off_c, 0, 79, 0
2, 54816, Note_on_c, 0, 74, 94
2, 54853, Note_off_c, 0, 74, 0
2, 54864, Note_on_c, 0, 71, 94
2, 54901, Note_off_c, 0, 71, 0
2, 54912, Note_on_c, 0, 75, 94
2, 54949, Note_off_c, 0, 75, 0
2, 54960, Note_on_c, 0, 76, 94
2, 54997, Note_off_c, 0, 76, 0
2, 55008, Note_on_c, 0, 72, 94
2, 55045, Note_off_c, 0, 72, 0
2, 55056, Note_on_c, 0, 69, 94
2, 55093, Note_off_c, 0, 69, 0
2, 55104, Note_on_c, 0, 60, 94
2, 55104, Note_on_c, 0, 71, 94
2, 55141, Note_off_c, 0, 71, 0
2, 55152, Note_on_c, 0, 72, 94
2, 55189, Note_off_c, 0, 72, 0
2, 55200, Note_on_c, 0, 69, 94
2, 55237, Note_off_c, 0, 69, 0
2, 55248, Note_on_c, 0, 66, 94
2, 55256, Note_off_c, 0, 60, 0
2, 55285, Note_off_c, 0, 66, 0
2, 55296, Note_on_c, 0, 67, 94
2, 55333, Note_off_c, 0, 67, 0
2, 55344, Note_on_c, 0, 79, 94
2, 55381, Note_off_c, 0, 79, 0
2, 55392, Note_on_c, 0, 83, 94
2, 55429, Note_off_c, 0, 83, 0
2, 55440, Note_on_c, 0, 81, 94
2, 55477, Note_off_c, 0, 81, 0
2, 55488, Note_on_c, 0, 79, 94
2, 55525, Note_off_c, 0, 79, 0
2, 55536, Note_on_c, 0, 78, 94
2, 55573, Note_off_c, 0, 78, 0
2, 55584, Note_on_c, 0, 76, 94
2, 55621, Note_off_c, 0, 76, 0
2, 55632, Note_on_c, 0, 74, 94
2, 55669, Note_off_c, 0, 74, 0
2, 55680, Note_on_c, 0, 72, 94
2, 55717, Note_off_c, 0, 72, 0
2, 55728, Note_on_c, 0, 71, 94
2, 55765, Note_off_c, 0, 71, 0
2, 55776, Note_on_c, 0, 69, 94
2, 55813, Note_off_c, 0, 69, 0
2, 55824, Note_on_c, 0, 67, 94
2, 55861, Note_off_c, 0, 67, 0
2, 55872, Note_on_c, 0, 66, 94
2, 55909, Note_off_c, 0, 66, 0
2, 55920, Note_on_c, 0, 64, 94
2, 55957, Note_off_c, 0, 64, 0
2, 55968, Note_on_c, 0, 62, 94
2, 56005, Note_off_c, 0, 62, 0
2, 56016, Note_on_c, 0, 61, 94
2, 56053, Note_off_c, 0, 61, 0
2, 56064, Note_on_c, 0, 60, 94
2, 56485, Note_off_c, 0, 60, 0
2, 56496, Note_on_c, 0, 62, 94
2, 56533, Note_off_c, 0, 62, 0
2, 56544, Note_on_c, 0, 64, 94
2, 56581, Note_off_c, 0, 64, 0
2, 56592, Note_on_c, 0, 62, 94
2, 56628, Note_on_c, 0, 66, 94
2, 56629, Note_off_c, 0, 62, 0
2, 56640, Note_off_c, 0, 66, 0
2, 56640, Note_on_c, 0, 64, 94
2, 56716, Note_off_c, 0, 64, 0
2, 56736, Note_on_c, 0, 62, 94
2, 56773, Note_off_c, 0, 62, 0
2, 56832, Note_on_c, 0, 60, 94
2, 57137, Note_off_c, 0, 60, 0
2, 57264, Note_on_c, 0, 67, 94
2, 57301, Note_off_c, 0, 67, 0
2, 57312, Note_on_c, 0, 66, 94
2, 57349, Note_off_c, 0, 66, 0
2, 57360, Note_on_c, 0, 67, 94
2, 57397, Note_off_c, 0, 67, 0
2, 57408, Note_on_c, 0, 62, 94
2, 57445, Note_off_c, 0, 62, 0
2, 57456, Note_on_c, 0, 74, 94
2, 57493, Note_off_c, 0, 74, 0
2, 57504, Note_on_c, 0, 73, 94
2, 57541, Note_off_c, 0, 73, 0
2, 57552, Note_on_c, 0, 74, 94
2, 57589, Note_off_c, 0, 74, 0
2, 57600, Note_on_c, 0, 71, 94
2, 57637, Note_off_c, 0, 71, 0
2, 57648, Note_on_c, 0, 79, 94
2, 57685, Note_off_c, 0, 79, 0
2, 57696, Note_on_c, 0, 78, 94
2, 57733, Note_off_c, 0, 78, 0
2, 57744, Note_on_c, 0, 79, 94
2, 57781, Note_off_c, 0, 79, 0
2, 57792, Note_on_c, 0, 74, 94
2, 57829, Note_off_c, 0, 74, 0
2, 57840, Note_on_c, 0, 83, 94
2, 57877, Note_off_c, 0, 83, 0
2, 57888, Note_on_c, 0, 81, 94
2, 57925, Note_off_c, 0, 81, 0
2, 57936, Note_on_c, 0, 83, 94
2, 57973, Note_off_c, 0, 83, 0
2, 57984, Note_on_c, 0, 79, 94
2, 58060, Note_off_c, 0, 79, 0
2, 58368, Note_on_c, 0, 67, 94
2, 58368, Note_on_c, 0, 62, 94
2, 58520, Note_off_c, 0, 62, 0
2, 58520, Note_off_c, 0, 67, 0
2, 58656, Note_on_c, 0, 67, 94
2, 58693, Note_off_c, 0, 67, 0
2, 58704, Note_on_c, 0, 62, 94
2, 58741, Note_off_c, 0, 62, 0
2, 58752, Note_on_c, 0, 70, 94
2, 58789, Note_off_c, 0, 70, 0
2, 58800, Note_on_c, 0, 67, 94
2, 58837, Note_off_c, 0, 67, 0
2, 58848, Note_on_c, 0, 74, 94
2, 58885, Note_off_c, 0, 74, 0
2, 58896, Note_on_c, 0, 70, 94
2, 58933, Note_off_c, 0, 70, 0
2, 58944, Note_on_c, 0, 79, 94
2, 58981, Note_off_c, 0, 79, 0
2, 58992, Note_on_c, 0, 74, 94
2, 59029, Note_off_c, 0, 74, 0
2, 59040, Note_on_c, 0, 70, 94
2, 59077, Note_off_c, 0, 70, 0
2, 59088, Note_on_c, 0, 67, 94
2, 59125, Note_off_c, 0, 67, 0
2, 59136, Note_on_c, 0, 64, 94
2, 59136, Note_on_c, 0, 69, 94
2, 59136, Note_on_c, 0, 73, 94
2, 59288, Note_off_c, 0, 73, 0
2, 59288, Note_off_c, 0, 69, 0
2, 59288, Note_off_c, 0, 64, 0
2, 59424, Note_on_c, 0, 69, 94
2, 59461, Note_off_c, 0, 69, 0
2, 59472, Note_on_c, 0, 64, 94
2, 59509, Note_off_c, 0, 64, 0
2, 59520, Note_on_c, 0, 72, 94
2, 59557, Note_off_c, 0, 72, 0
2, 59568, Note_on_c, 0, 69, 94
2, 59605, Note_off_c, 0, 69, 0
2, 59616, Note_on_c, 0, 76, 94
2, 59653, Note_off_c, 0, 76, 0
2, 59664, Note_on_c, 0, 72, 94
2, 59701, Note_off_c, 0, 72, 0
2, 59712, Note_on_c, 0, 81, 94
2, 59749, Note_off_c, 0, 81, 0
2, 59760, Note_on_c, 0, 76, 94
2, 59797, Note_off_c, 0, 76, 0
2, 59808, Note_on_c, 0, 72, 94
2, 59845, Note_off_c, 0, 72, 0
2, 59856, Note_on_c, 0, 69, 94
2, 59893, Note_off_c, 0, 69, 0
2, 59904, Note_on_c, 0, 74, 94
2, 59904, Note_on_c, 0, 69, 94
2, 59904, Note_on_c, 0, 65, 94
2, 60056, Note_off_c, 0, 65, 0
2, 60056, Note_off_c, 0, 69, 0
2, 60056, Note_off_c, 0, 74, 0
2, 60192, Note_on_c, 0, 69, 94
2, 60229, Note_off_c, 0, 69, 0
2, 60240, Note_on_c, 0, 65, 94
2, 60277, Note_off_c, 0, 65, 0
2, 60288, Note_on_c, 0, 74, 94
2, 60325, Note_off_c, 0, 74, 0
2, 60336, Note_on_c, 0, 69, 94
2, 60373, Note_off_c, 0, 69, 0
2, 60384, Note_on_c, 0, 77, 94
2, 60421, Note_off_c, 0, 77, 0
2, 60432, Note_on_c, 0, 74, 94
2, 60469, Note_off_c, 0, 74, 0
2, 60480, Note_on_c, 0, 81, 94
2, 60517, Note_off_c, 0, 81, 0
2, 60528, Note_on_c, 0, 77, 94
2, 60565, Note_off_c, 0, 77, 0
2, 60576, Note_on_c, 0, 74, 94
2, 60613, Note_off_c, 0, 74, 0
2, 60624, Note_on_c, 0, 69, 94
2, 60661, Note_off_c, 0, 69, 0
2, 60672, Note_on_c, 0, 62, 94
2, 60672, Note_on_c, 0, 67, 94
2, 60672, Note_on_c, 0, 71, 94
2, 60824, Note_off_c, 0, 71, 0
2, 60824, Note_off_c, 0, 67, 0
2, 60824, Note_off_c, 0, 62, 0
2, 60960, Note_on_c, 0, 67, 94
2, 60997, Note_off_c, 0, 67, 0
2, 61008, Note_on_c, 0, 62, 94
2, 61045, Note_off_c, 0, 62, 0
2, 61056, Note_on_c, 0, 71, 94
2, 61093, Note_off_c, 0, 71, 0
2, 61104, Note_on_c, 0, 67, 94
2, 61141, Note_off_c, 0, 67, 0
2, 61152, Note_on_c, 0, 74, 94
2, 61189, Note_off_c, 0, 74, 0
2, 61200, Note_on_c, 0, 71, 94
2, 61237, Note_off_c, 0, 71, 0
2, 61248, Note_on_c, 0, 79, 94
2, 61285, Note_off_c, 0, 79, 0
2, 61296, Note_on_c, 0, 74, 94
2, 61333, Note_off_c, 0, 74, 0
2, 61344, Note_on_c, 0, 71, 94
2, 61381, Note_off_c, 0, 71, 0
2, 61392, Note_on_c, 0, 67, 94
2, 61429, Note_off_c, 0, 67, 0
2, 61440, Note_on_c, 0, 64, 94
2, 61440, Note_on_c, 0, 67, 94
2, 61440, Note_on_c, 0, 72, 94
2, 61592, Note_off_c, 0, 72, 0
2, 61592, Note_off_c, 0, 67, 0
2, 61592, Note_off_c, 0, 64, 0
2, 61728, Note_on_c, 0, 67, 94
2, 61765, Note_off_c, 0, 67, 0
2, 61776, Note_on_c, 0, 64, 94
2, 61813, Note_off_c, 0, 64, 0
2, 61824, Note_on_c, 0, 72, 94
2, 61861, Note_off_c, 0, 72, 0
2, 61872, Note_on_c, 0, 67, 94
2, 61909, Note_off_c, 0, 67, 0
2, 61920, Note_on_c, 0, 76, 94
2, 61957, Note_off_c, 0, 76, 0
2, 61968, Note_on_c, 0, 72, 94
2, 62005, Note_off_c, 0, 72, 0
2, 62016, Note_on_c, 0, 79, 94
2, 62053, Note_off_c, 0, 79, 0
2, 62064, Note_on_c, 0, 76, 94
2, 62101, Note_off_c, 0, 76, 0
2, 62112, Note_on_c, 0, 72, 94
2, 62149, Note_off_c, 0, 72, 0
2, 62160, Note_on_c, 0, 67, 94
2, 62197, Note_off_c, 0, 67, 0
2, 62208, Note_on_c, 0, 70, 94
2, 62208, Note_on_c, 0, 62, 94
2, 62208, Note_on_c, 0, 65, 94
2, 62360, Note_off_c, 0, 65, 0
2, 62360, Note_off_c, 0, 62, 0
2, 62360, Note_off_c, 0, 70, 0
2, 62496, Note_on_c, 0, 65, 94
2, 62533, Note_off_c, 0, 65, 0
2, 62544, Note_on_c, 0, 62, 94
2, 62581, Note_off_c, 0, 62, 0
2, 62592, Note_on_c, 0, 70, 94
2, 62629, Note_off_c, 0, 70, 0
2, 62640, Note_on_c, 0, 65, 94
2, 62677, Note_off_c, 0, 65, 0
2, 62688, Note_on_c, 0, 74, 94
2, 62725, Note_off_c, 0, 74, 0
2, 62736, Note_on_c, 0, 70, 94
2, 62773, Note_off_c, 0, 70, 0
2, 62784, Note_on_c, 0, 77, 94
2, 62821, Note_off_c, 0, 77, 0
2, 62832, Note_on_c, 0, 74, 94
2, 62869, Note_off_c, 0, 74, 0
2, 62880, Note_on_c, 0, 82, 94
2, 62917, Note_off_c, 0, 82, 0
2, 62928, Note_on_c, 0, 77, 94
2, 62965, Note_off_c, 0, 77, 0
2, 62976, Note_on_c, 0, 80, 94
2, 63013, Note_off_c, 0, 80, 0
2, 63024, Note_on_c, 0, 83, 94
2, 63061, Note_off_c, 0, 83, 0
2, 63072, Note_on_c, 0, 77, 94
2, 63109, Note_off_c, 0, 77, 0
2, 63120, Note_on_c, 0, 83, 94
2, 63157, Note_off_c, 0, 83, 0
2, 63168, Note_on_c, 0, 76, 94
2, 63205, Note_off_c, 0, 76, 0
2, 63216, Note_on_c, 0, 83, 94
2, 63253, Note_off_c, 0, 83, 0
2, 63264, Note_on_c, 0, 74, 94
2, 63301, Note_off_c, 0, 74, 0
2, 63312, Note_on_c, 0, 83, 94
2, 63349, Note_off_c, 0, 83, 0
2, 63360, Note_on_c, 0, 72, 94
2, 63408, Note_on_c, 0, 60, 94
2, 63445, Note_off_c, 0, 60, 0
2, 63504, Note_on_c, 0, 60, 94
2, 63512, Note_off_c, 0, 72, 0
2, 63541, Note_off_c, 0, 60, 0
2, 63552, Note_on_c, 0, 81, 94
2, 63600, Note_on_c, 0, 60, 94
2, 63628, Note_off_c, 0, 81, 0
2, 63637, Note_off_c, 0, 60, 0
2, 63648, Note_on_c, 0, 79, 94
2, 63665, Note_off_c, 0, 79, 0
2, 63672, Note_on_c, 0, 81, 94
2, 63689, Note_off_c, 0, 81, 0
2, 63696, Note_on_c, 0, 79, 94
2, 63696, Note_on_c, 0, 60, 94
2, 63713, Note_off_c, 0, 79, 0
2, 63720, Note_on_c, 0, 81, 94
2, 63733, Note_off_c, 0, 60, 0
2, 63737, Note_off_c, 0, 81, 0
2, 63744, Note_on_c, 0, 78, 94
2, 63781, Note_off_c, 0, 78, 0
2, 63792, Note_on_c, 0, 81, 94
2, 63829, Note_off_c, 0, 81, 0
2, 63840, Note_on_c, 0, 75, 94
2, 63877, Note_off_c, 0, 75, 0
2, 63888, Note_on_c, 0, 81, 94
2, 63925, Note_off_c, 0, 81, 0
2, 63936, Note_on_c, 0, 74, 94
2, 63973, Note_off_c, 0, 74, 0
2, 63984, Note_on_c, 0, 81, 94
2, 64021, Note_off_c, 0, 81, 0
2, 64032, Note_on_c, 0, 72, 94
2, 64069, Note_off_c, 0, 72, 0
2, 64080, Note_on_c, 0, 81, 94
2, 64117, Note_off_c, 0, 81, 0
2, 64128, Note_on_c, 0, 70, 94
2, 64280, Note_off_c, 0, 70, 0
2, 64320, Note_on_c, 0, 79, 94
2, 64396, Note_off_c, 0, 79, 0
2, 64416, Note_on_c, 0, 77, 94
2, 64437, Note_off_c, 0, 77, 0
2, 64440, Note_on_c, 0, 79, 94
2, 64461, Note_off_c, 0, 79, 0
2, 64464, Note_on_c, 0, 77, 94
2, 64481, Note_off_c, 0, 77, 0
2, 64488, Note_on_c, 0, 79, 94
2, 64505, Note_off_c, 0, 79, 0
2, 64512, Note_on_c, 0, 76, 94
2, 64549, Note_off_c, 0, 76, 0
2, 64560, Note_on_c, 0, 79, 94
2, 64597, Note_off_c, 0, 79, 0
2, 64608, Note_on_c, 0, 74, 94
2, 64645, Note_off_c, 0, 74, 0
2, 64656, Note_on_c, 0, 79, 94
2, 64693, Note_off_c, 0, 79, 0
2, 64704, Note_on_c, 0, 72, 94
2, 64741, Note_off_c, 0, 72, 0
2, 64752, Note_on_c, 0, 79, 94
2, 64789, Note_off_c, 0, 79, 0
2, 64800, Note_on_c, 0, 70, 94
2, 64837, Note_off_c, 0, 70, 0
2, 64848, Note_on_c, 0, 79, 94
2, 64885, Note_off_c, 0, 79, 0
2, 64896, Note_on_c, 0, 69, 94
2, 64944, Note_on_c, 0, 60, 94
2, 64981, Note_off_c, 0, 60, 0
2, 65048, Note_off_c, 0, 69, 0
2, 65136, Note_on_c, 0, 60, 94
2, 65173, Note_off_c, 0, 60, 0
2, 65184, Note_on_c, 0, 62, 94
2, 65221, Note_off_c, 0, 62, 0
2, 65232, Note_on_c, 0, 64, 94
2, 65269, Note_off_c, 0, 64, 0
2, 65280, Note_on_c, 0, 65, 52
2, 65317, Note_off_c, 0, 65, 0
2, 65328, Note_on_c, 0, 72, 52
2, 65365, Note_off_c, 0, 72, 0
2, 65376, Note_on_c, 0, 69, 52
2, 65376, Note_on_c, 0, 81, 52
2, 65413, Note_off_c, 0, 81, 0
2, 65413, Note_off_c, 0, 69, 0
2, 65424, Note_on_c, 0, 72, 52
2, 65424, Note_on_c, 0, 83, 52
2, 65461, Note_off_c, 0, 83, 0
2, 65461, Note_off_c, 0, 72, 0
2, 65472, Note_on_c, 0, 65, 52
2, 65472, Note_on_c, 0, 84, 52
2, 65509, Note_off_c, 0, 65, 0
2, 65520, Note_on_c, 0, 72, 52
2, 65548, Note_off_c, 0, 84, 0
2, 65557, Note_off_c, 0, 72, 0
2, 65568, Note_on_c, 0, 84, 52
2, 65568, Note_on_c, 0, 69, 52
2, 65605, Note_off_c, 0, 69, 0
2, 65616, Note_on_c, 0, 72, 52
2, 65644, Note_off_c, 0, 84, 0
2, 65653, Note_off_c, 0, 72, 0
2, 65664, Note_on_c, 0, 64, 52
2, 65664, Note_on_c, 0, 84, 52
2, 65701, Note_off_c, 0, 64, 0
2, 65712, Note_on_c, 0, 72, 52
2, 65749, Note_off_c, 0, 72, 0
2, 65760, Note_on_c, 0, 67, 52
2, 65797, Note_off_c, 0, 67, 0
2, 65808, Note_on_c, 0, 72, 52
2, 65816, Note_off_c, 0, 84, 0
2, 65845, Note_off_c, 0, 72, 0
2, 65856, Note_on_c, 0, 64, 52
2, 65856, Note_on_c, 0, 79, 52
2, 65893, Note_off_c, 0, 64, 0
2, 65904, Note_on_c, 0, 72, 52
2, 65932, Note_off_c, 0, 79, 0
2, 65941, Note_off_c, 0, 72, 0
2, 65952, Note_on_c, 0, 67, 52
2, 65989, Note_off_c, 0, 67, 0
2, 66000, Note_on_c, 0, 72, 52
2, 66037, Note_off_c, 0, 72, 0
2, 66048, Note_on_c, 0, 62, 94
2, 66048, Note_on_c, 0, 77, 94
2, 66065, Note_off_c, 0, 77, 0
2, 66072, Note_on_c, 0, 79, 94
2, 66085, Note_off_c, 0, 62, 0
2, 66089, Note_off_c, 0, 79, 0
2, 66096, Note_on_c, 0, 71, 94
2, 66096, Note_on_c, 0, 77, 94
2, 66113, Note_off_c, 0, 77, 0
2, 66120, Note_on_c, 0, 79, 94
2, 66133, Note_off_c, 0, 71, 0
2, 66137, Note_off_c, 0, 79, 0
2, 66144, Note_on_c, 0, 67, 94
2, 66144, Note_on_c, 0, 77, 94
2, 66161, Note_off_c, 0, 77, 0
2, 66168, Note_on_c, 0, 79, 94
2, 66181, Note_off_c, 0, 67, 0
2, 66185, Note_off_c, 0, 79, 0
2, 66192, Note_on_c, 0, 71, 94
2, 66192, Note_on_c, 0, 76, 94
2, 66209, Note_off_c, 0, 76, 0
2, 66216, Note_on_c, 0, 77, 94
2, 66229, Note_off_c, 0, 71, 0
2, 66233, Note_off_c, 0, 77, 0
2, 66240, Note_on_c, 0, 62, 94
2, 66240, Note_on_c, 0, 79, 94
2, 66277, Note_off_c, 0, 62, 0
2, 66288, Note_on_c, 0, 71, 94
2, 66316, Note_off_c, 0, 79, 0
2, 66325, Note_off_c, 0, 71, 0
2, 66336, Note_on_c, 0, 77, 94
2, 66336, Note_on_c, 0, 67, 94
2, 66373, Note_off_c, 0, 67, 0
2, 66384, Note_on_c, 0, 71, 94
2, 66412, Note_off_c, 0, 77, 0
2, 66421, Note_off_c, 0, 71, 0
2, 66432, Note_on_c, 0, 60, 94
2, 66432, Note_on_c, 0, 75, 94
2, 66469, Note_off_c, 0, 60, 0
2, 66480, Note_on_c, 0, 72, 94
2, 66517, Note_off_c, 0, 72, 0
2, 66528, Note_on_c, 0, 67, 94
2, 66565, Note_off_c, 0, 67, 0
2, 66576, Note_on_c, 0, 72, 94
2, 66584, Note_off_c, 0, 75, 0
2, 66613, Note_off_c, 0, 72, 0
2, 66624, Note_on_c, 0, 60, 94
2, 66624, Note_on_c, 0, 76, 94
2, 66661, Note_off_c, 0, 60, 0
2, 66672, Note_on_c, 0, 72, 94
2, 66700, Note_off_c, 0, 76, 0
2, 66709, Note_off_c, 0, 72, 0
2, 66720, Note_on_c, 0, 67, 94
2, 66757, Note_off_c, 0, 67, 0
2, 66768, Note_on_c, 0, 72, 94
2, 66805, Note_off_c, 0, 72, 0
2, 66816, Note_on_c, 0, 60, 80
2, 66853, Note_off_c, 0, 60, 0
2, 66864, Note_on_c, 0, 67, 80
2, 66901, Note_off_c, 0, 67, 0
2, 66912, Note_on_c, 0, 64, 80
2, 66912, Note_on_c, 0, 76, 80
2, 66949, Note_off_c, 0, 76, 0
2, 66949, Note_off_c, 0, 64, 0
2, 66960, Note_on_c, 0, 67, 80
2, 66960, Note_on_c, 0, 77, 80
2, 66997, Note_off_c, 0, 77, 0
2, 66997, Note_off_c, 0, 67, 0
2, 67008, Note_on_c, 0, 79, 80
2, 67008, Note_on_c, 0, 60, 80
2, 67045, Note_off_c, 0, 60, 0
2, 67056, Note_on_c, 0, 67, 80
2, 67084, Note_off_c, 0, 79, 0
2, 67093, Note_off_c, 0, 67, 0
2, 67104, Note_on_c, 0, 79, 80
2, 67104, Note_on_c, 0, 64, 80
2, 67141, Note_off_c, 0, 64, 0
2, 67152, Note_on_c, 0, 67, 80
2, 67180, Note_off_c, 0, 79, 0
2, 67189, Note_off_c, 0, 67, 0
2, 67200, Note_on_c, 0, 79, 80
2, 67248, Note_on_c, 0, 67, 80
2, 67285, Note_off_c, 0, 67, 0
2, 67296, Note_on_c, 0, 62, 80
2, 67333, Note_off_c, 0, 62, 0
2, 67344, Note_on_c, 0, 67, 80
2, 67352, Note_off_c, 0, 79, 0
2, 67381, Note_off_c, 0, 67, 0
2, 67392, Note_on_c, 0, 74, 80
2, 67440, Note_on_c, 0, 67, 80
2, 67468, Note_off_c, 0, 74, 0
2, 67477, Note_off_c, 0, 67, 0
2, 67488, Note_on_c, 0, 62, 80
2, 67525, Note_off_c, 0, 62, 0
2, 67536, Note_on_c, 0, 67, 80
2, 67573, Note_off_c, 0, 67, 0
2, 67584, Note_on_c, 0, 72, 94
2, 67601, Note_off_c, 0, 72, 0
2, 67608, Note_on_c, 0, 74, 94
2, 67625, Note_off_c, 0, 74, 0
2, 67632, Note_on_c, 0, 66, 94
2, 67632, Note_on_c, 0, 72, 94
2, 67649, Note_off_c, 0, 72, 0
2, 67656, Note_on_c, 0, 74, 94
2, 67669, Note_off_c, 0, 66, 0
2, 67673, Note_off_c, 0, 74, 0
2, 67680, Note_on_c, 0, 60, 94
2, 67680, Note_on_c, 0, 72, 94
2, 67697, Note_off_c, 0, 72, 0
2, 67704, Note_on_c, 0, 74, 94
2, 67717, Note_off_c, 0, 60, 0
2, 67721, Note_off_c, 0, 74, 0
2, 67728, Note_on_c, 0, 66, 94
2, 67728, Note_on_c, 0, 71, 94
2, 67745, Note_off_c, 0, 71, 0
2, 67752, Note_on_c, 0, 72, 94
2, 67765, Note_off_c, 0, 66, 0
2, 67769, Note_off_c, 0, 72, 0
2, 67776, Note_on_c, 0, 74, 94
2, 67824, Note_on_c, 0, 66, 94
2, 67852, Note_off_c, 0, 74, 0
2, 67861, Note_off_c, 0, 66, 0
2, 67872, Note_on_c, 0, 72, 94
2, 67872, Note_on_c, 0, 60, 94
2, 67909, Note_off_c, 0, 60, 0
2, 67920, Note_on_c, 0, 66, 94
2, 67948, Note_off_c, 0, 72, 0
2, 67957, Note_off_c, 0, 66, 0
2, 67968, Note_on_c, 0, 71, 94
2, 67968, Note_on_c, 0, 67, 94
2, 68005, Note_off_c, 0, 71, 0
2, 68016, Note_on_c, 0, 67, 94
2, 68053, Note_off_c, 0, 67, 0
2, 68064, Note_on_c, 0, 72, 94
2, 68101, Note_off_c, 0, 72, 0
2, 68112, Note_on_c, 0, 69, 94
2, 68120, Note_off_c, 0, 67, 0
2, 68149, Note_off_c, 0, 69, 0
2, 68160, Note_on_c, 0, 74, 94
2, 68197, Note_off_c, 0, 74, 0
2, 68208, Note_on_c, 0, 71, 94
2, 68245, Note_off_c, 0, 71, 0
2, 68256, Note_on_c, 0, 76, 94
2, 68293, Note_off_c, 0, 76, 0
2, 68304, Note_on_c, 0, 72, 94
2, 68341, Note_off_c, 0, 72, 0
2, 68352, Note_on_c, 0, 74, 94
2, 68352, Note_on_c, 0, 77, 94
2, 68504, Note_off_c, 0, 77, 0
2, 68504, Note_off_c, 0, 74, 0
2, 68544, Note_on_c, 0, 86, 94
2, 68544, Note_on_c, 0, 77, 94
2, 68696, Note_off_c, 0, 77, 0
2, 68696, Note_off_c, 0, 86, 0
2, 68736, Note_on_c, 0, 76, 94
2, 68773, Note_off_c, 0, 76, 0
2, 68784, Note_on_c, 0, 72, 94
2, 68821, Note_off_c, 0, 72, 0
2, 68832, Note_on_c, 0, 77, 94
2, 68869, Note_off_c, 0, 77, 0
2, 68880, Note_on_c, 0, 74, 94
2, 68917, Note_off_c, 0, 74, 0
2, 68928, Note_on_c, 0, 79, 94
2, 68965, Note_off_c, 0, 79, 0
2, 68976, Note_on_c, 0, 76, 94
2, 69013, Note_off_c, 0, 76, 0
2, 69024, Note_on_c, 0, 81, 94
2, 69061, Note_off_c, 0, 81, 0
2, 69072, Note_on_c, 0, 77, 94
2, 69109, Note_off_c, 0, 77, 0
2, 69120, Note_on_c, 0, 76, 94
2, 69120, Note_on_c, 0, 79, 94
2, 69272, Note_off_c, 0, 79, 0
2, 69272, Note_off_c, 0, 76, 0
2, 69312, Note_on_c, 0, 84, 94
2, 69312, Note_on_c, 0, 76, 94
2, 69464, Note_off_c, 0, 76, 0
2, 69464, Note_off_c, 0, 84, 0
2, 69504, Note_on_c, 0, 71, 94
2, 69541, Note_off_c, 0, 71, 0
2, 69552, Note_on_c, 0, 67, 94
2, 69589, Note_off_c, 0, 67, 0
2, 69600, Note_on_c, 0, 72, 94
2, 69637, Note_off_c, 0, 72, 0
2, 69648, Note_on_c, 0, 69, 94
2, 69685, Note_off_c, 0, 69, 0
2, 69696, Note_on_c, 0, 74, 94
2, 69733, Note_off_c, 0, 74, 0
2, 69744, Note_on_c, 0, 71, 94
2, 69781, Note_off_c, 0, 71, 0
2, 69792, Note_on_c, 0, 76, 94
2, 69829, Note_off_c, 0, 76, 0
2, 69840, Note_on_c, 0, 72, 94
2, 69877, Note_off_c, 0, 72, 0
2, 69888, Note_on_c, 0, 74, 80
2, 69888, Note_on_c, 0, 77, 80
2, 69936, Note_on_c, 0, 67, 80
2, 69973, Note_off_c, 0, 67, 0
2, 69984, Note_on_c, 0, 66, 80
2, 70021, Note_off_c, 0, 66, 0
2, 70032, Note_on_c, 0, 67, 80
2, 70040, Note_off_c, 0, 77, 0
2, 70040, Note_off_c, 0, 74, 0
2, 70069, Note_off_c, 0, 67, 0
2, 70080, Note_on_c, 0, 69, 80
2, 70080, Note_on_c, 0, 86, 80
2, 70080, Note_on_c, 0, 77, 80
2, 70117, Note_off_c, 0, 69, 0
2, 70128, Note_on_c, 0, 67, 80
2, 70165, Note_off_c, 0, 67, 0
2, 70176, Note_on_c, 0, 66, 80
2, 70213, Note_off_c, 0, 66, 0
2, 70224, Note_on_c, 0, 67, 80
2, 70232, Note_off_c, 0, 86, 0
2, 70232, Note_off_c, 0, 77, 0
2, 70261, Note_off_c, 0, 67, 0
2, 70272, Note_on_c, 0, 76, 80
2, 70309, Note_off_c, 0, 76, 0
2, 70320, Note_on_c, 0, 72, 80
2, 70357, Note_off_c, 0, 72, 0
2, 70368, Note_on_c, 0, 77, 80
2, 70405, Note_off_c, 0, 77, 0
2, 70416, Note_on_c, 0, 74, 80
2, 70453, Note_off_c, 0, 74, 0
2, 70464, Note_on_c, 0, 79, 80
2, 70501, Note_off_c, 0, 79, 0
2, 70512, Note_on_c, 0, 76, 80
2, 70549, Note_off_c, 0, 76, 0
2, 70560, Note_on_c, 0, 81, 80
2, 70597, Note_off_c, 0, 81, 0
2, 70608, Note_on_c, 0, 77, 80
2, 70645, Note_off_c, 0, 77, 0
2, 70656, Note_on_c, 0, 76, 94
2, 70656, Note_on_c, 0, 79, 94
2, 70704, Note_on_c, 0, 67, 94
2, 70741, Note_off_c, 0, 67, 0
2, 70752, Note_on_c, 0, 66, 94
2, 70789, Note_off_c, 0, 66, 0
2, 70800, Note_on_c, 0, 67, 94
2, 70808, Note_off_c, 0, 79, 0
2, 70808, Note_off_c, 0, 76, 0
2, 70837, Note_off_c, 0, 67, 0
2, 70848, Note_on_c, 0, 69, 94
2, 70848, Note_on_c, 0, 84, 94
2, 70848, Note_on_c, 0, 76, 94
2, 70885, Note_off_c, 0, 69, 0
2, 70896, Note_on_c, 0, 67, 94
2, 70933, Note_off_c, 0, 67, 0
2, 70944, Note_on_c, 0, 66, 94
2, 70981, Note_off_c, 0, 66, 0
2, 70992, Note_on_c, 0, 67, 94
2, 71000, Note_off_c, 0, 84, 0
2, 71000, Note_off_c, 0, 76, 0
2, 71029, Note_off_c, 0, 67, 0
2, 71040, Note_on_c, 0, 74, 94
2, 71040, Note_on_c, 0, 83, 94
2, 71077, Note_off_c, 0, 83, 0
2, 71077, Note_off_c, 0, 74, 0
2, 71088, Note_on_c, 0, 79, 94
2, 71125, Note_off_c, 0, 79, 0
2, 71136, Note_on_c, 0, 78, 94
2, 71173, Note_off_c, 0, 78, 0
2, 71184, Note_on_c, 0, 79, 94
2, 71221, Note_off_c, 0, 79, 0
2, 71232, Note_on_c, 0, 84, 94
2, 71269, Note_off_c, 0, 84, 0
2, 71280, Note_on_c, 0, 79, 94
2, 71317, Note_off_c, 0, 79, 0
2, 71328, Note_on_c, 0, 76, 94
2, 71365, Note_off_c, 0, 76, 0
2, 71376, Note_on_c, 0, 72, 94
2, 71413, Note_off_c, 0, 72, 0
2, 71424, Note_on_c, 0, 79, 94
2, 71461, Note_off_c, 0, 79, 0
2, 71472, Note_on_c, 0, 67, 94
2, 71509, Note_off_c, 0, 67, 0
2, 71520, Note_on_c, 0, 66, 94
2, 71557, Note_off_c, 0, 66, 0
2, 71568, Note_on_c, 0, 67, 94
2, 71605, Note_off_c, 0, 67, 0
2, 71616, Note_on_c, 0, 60, 94
2, 71616, Note_on_c, 0, 72, 94
2, 71653, Note_off_c, 0, 72, 0
2, 71653, Note_off_c, 0, 60, 0
2, 71664, Note_on_c, 0, 67, 94
2, 71701, Note_off_c, 0, 67, 0
2, 71712, Note_on_c, 0, 64, 94
2, 71749, Note_off_c, 0, 64, 0
2, 71760, Note_on_c, 0, 60, 94
2, 71797, Note_off_c, 0, 60, 0
2, 71808, Note_on_c, 0, 67, 94
2, 71845, Note_off_c, 0, 67, 0
2, 72000, Note_on_c, 0, 60, 94
2, 72037, Note_off_c, 0, 60, 0
2, 72048, Note_on_c, 0, 62, 94
2, 72085, Note_off_c, 0, 62, 0
2, 72096, Note_on_c, 0, 64, 94
2, 72133, Note_off_c, 0, 64, 0
2, 72144, Note_on_c, 0, 66, 94
2, 72181, Note_off_c, 0, 66, 0
2, 72192, Note_on_c, 0, 67, 94
2, 72229, Note_off_c, 0, 67, 0
2, 72240, Note_on_c, 0, 69, 94
2, 72277, Note_off_c, 0, 69, 0
2, 72288, Note_on_c, 0, 71, 94
2, 72325, Note_off_c, 0, 71, 0
2, 72336, Note_on_c, 0, 72, 94
2, 72373, Note_off_c, 0, 72, 0
2, 72384, Note_on_c, 0, 74, 94
2, 72421, Note_off_c, 0, 74, 0
2, 72432, Note_on_c, 0, 76, 94
2, 72469, Note_off_c, 0, 76, 0
2, 72480, Note_on_c, 0, 78, 94
2, 72517, Note_off_c, 0, 78, 0
2, 72528, Note_on_c, 0, 79, 94
2, 72565, Note_off_c, 0, 79, 0
2, 72576, Note_on_c, 0, 80, 94
2, 72613, Note_off_c, 0, 80, 0
2, 72624, Note_on_c, 0, 81, 94
2, 72661, Note_off_c, 0, 81, 0
2, 72672, Note_on_c, 0, 77, 94
2, 72709, Note_off_c, 0, 77, 0
2, 72720, Note_on_c, 0, 74, 94
2, 72757, Note_off_c, 0, 74, 0
2, 72768, Note_on_c, 0, 76, 94
2, 72805, Note_off_c, 0, 76, 0
2, 72816, Note_on_c, 0, 77, 94
2, 72853, Note_off_c, 0, 77, 0
2, 72864, Note_on_c, 0, 74, 94
2, 72901, Note_off_c, 0, 74, 0
2, 72912, Note_on_c, 0, 71, 94
2, 72949, Note_off_c, 0, 71, 0
2, 72960, Note_on_c, 0, 64, 94
2, 72960, Note_on_c, 0, 67, 94
2, 72960, Note_on_c, 0, 72, 94
2, 73008, Note_on_c, 0, 60, 94
2, 73045, Note_off_c, 0, 60, 0
2, 73104, Note_on_c, 0, 60, 94
2, 73112, Note_off_c, 0, 72, 0
2, 73112, Note_off_c, 0, 67, 0
2, 73112, Note_off_c, 0, 64, 0
2, 73141, Note_off_c, 0, 60, 0
2, 73248, Note_on_c, 0, 72, 94
2, 73285, Note_off_c, 0, 72, 0
2, 73296, Note_on_c, 0, 71, 94
2, 73333, Note_off_c, 0, 71, 0
2, 73344, Note_on_c, 0, 74, 94
2, 73381, Note_off_c, 0, 74, 0
2, 73392, Note_on_c, 0, 72, 94
2, 73429, Note_off_c, 0, 72, 0
2, 73440, Note_on_c, 0, 76, 94
2, 73477, Note_off_c, 0, 76, 0
2, 73488, Note_on_c, 0, 74, 94
2, 73525, Note_off_c, 0, 74, 0
2, 73536, Note_on_c, 0, 77, 94
2, 73573, Note_off_c, 0, 77, 0
2, 73584, Note_on_c, 0, 76, 94
2, 73621, Note_off_c, 0, 76, 0
2, 73632, Note_on_c, 0, 79, 94
2, 73669, Note_off_c, 0, 79, 0
2, 73680, Note_on_c, 0, 77, 94
2, 73717, Note_off_c, 0, 77, 0
2, 73728, Note_on_c, 0, 77, 94
2, 73728, Note_on_c, 0, 74, 94
2, 73728, Note_on_c, 0, 81, 94
2, 73728, Note_on_c, 0, 69, 94
2, 73880, Note_off_c, 0, 69, 0
2, 73880, Note_off_c, 0, 81, 0
2, 73880, Note_off_c, 0, 74, 0
2, 73880, Note_off_c, 0, 77, 0
2, 73920, Note_on_c, 0, 79, 94
2, 73957, Note_off_c, 0, 79, 0
2, 73968, Note_on_c, 0, 77, 94
2, 74005, Note_off_c, 0, 77, 0
2, 74016, Note_on_c, 0, 76, 94
2, 74053, Note_off_c, 0, 76, 0
2, 74064, Note_on_c, 0, 74, 94
2, 74101, Note_off_c, 0, 74, 0
2, 74112, Note_on_c, 0, 72, 94
2, 74129, Note_off_c, 0, 72, 0
2, 74136, Note_on_c, 0, 74, 94
2, 74153, Note_off_c, 0, 74, 0
2, 74160, Note_on_c, 0, 71, 94
2, 74197, Note_off_c, 0, 71, 0
2, 74208, Note_on_c, 0, 72, 94
2, 74245, Note_off_c, 0, 72, 0
2, 74256, Note_on_c, 0, 76, 94
2, 74293, Note_off_c, 0, 76, 0
2, 74304, Note_on_c, 0, 74, 94
2, 74341, Note_off_c, 0, 74, 0
2, 74352, Note_on_c, 0, 77, 94
2, 74389, Note_off_c, 0, 77, 0
2, 74400, Note_on_c, 0, 71, 94
2, 74437, Note_off_c, 0, 71, 0
2, 74448, Note_on_c, 0, 74, 94
2, 74485, Note_off_c, 0, 74, 0
2, 74496, Note_on_c, 0, 72, 94
2, 74496, Note_on_c, 0, 67, 94
2, 74496, Note_on_c, 0, 64, 94
2, 74544, Note_on_c, 0, 60, 94
2, 74581, Note_off_c, 0, 60, 0
2, 74640, Note_on_c, 0, 60, 94
2, 74648, Note_off_c, 0, 64, 0
2, 74648, Note_off_c, 0, 67, 0
2, 74648, Note_off_c, 0, 72, 0
2, 74677, Note_off_c, 0, 60, 0
2, 74784, Note_on_c, 0, 72, 94
2, 74821, Note_off_c, 0, 72, 0
2, 74832, Note_on_c, 0, 71, 94
2, 74869, Note_off_c, 0, 71, 0
2, 74880, Note_on_c, 0, 74, 94
2, 74917, Note_off_c, 0, 74, 0
2, 74928, Note_on_c, 0, 72, 94
2, 74965, Note_off_c, 0, 72, 0
2, 74976, Note_on_c, 0, 76, 94
2, 75013, Note_off_c, 0, 76, 0
2, 75024, Note_on_c, 0, 74, 94
2, 75061, Note_off_c, 0, 74, 0
2, 75072, Note_on_c, 0, 77, 94
2, 75109, Note_off_c, 0, 77, 0
2, 75120, Note_on_c, 0, 76, 94
2, 75157, Note_off_c, 0, 76, 0
2, 75168, Note_on_c, 0, 79, 94
2, 75205, Note_off_c, 0, 79, 0
2, 75216, Note_on_c, 0, 77, 94
2, 75253, Note_off_c, 0, 77, 0
2, 75264, Note_on_c, 0, 77, 94
2, 75264, Note_on_c, 0, 74, 94
2, 75264, Note_on_c, 0, 81, 94
2, 75264, Note_on_c, 0, 69, 94
2, 75416, Note_off_c, 0, 69, 0
2, 75416, Note_off_c, 0, 81, 0
2, 75416, Note_off_c, 0, 74, 0
2, 75416, Note_off_c, 0, 77, 0
2, 75456, Note_on_c, 0, 79, 94
2, 75493, Note_off_c, 0, 79, 0
2, 75504, Note_on_c, 0, 77, 94
2, 75541, Note_off_c, 0, 77, 0
2, 75552, Note_on_c, 0, 76, 94
2, 75589, Note_off_c, 0, 76, 0
2, 75600, Note_on_c, 0, 74, 94
2, 75637, Note_off_c, 0, 74, 0
2, 75648, Note_on_c, 0, 72, 94
2, 75665, Note_off_c, 0, 72, 0
2, 75672, Note_on_c, 0, 74, 94
2, 75689, Note_off_c, 0, 74, 0
2, 75696, Note_on_c, 0, 71, 94
2, 75733, Note_off_c, 0, 71, 0
2, 75744, Note_on_c, 0, 72, 94
2, 75781, Note_off_c, 0, 72, 0
2, 75792, Note_on_c, 0, 76, 94
2, 75829, Note_off_c, 0, 76, 0
2, 75840, Note_on_c, 0, 74, 94
2, 75877, Note_off_c, 0, 74, 0
2, 75888, Note_on_c, 0, 77, 94
2, 75925, Note_off_c, 0, 77, 0
2, 75936, Note_on_c, 0, 71, 94
2, 75973, Note_off_c, 0, 71, 0
2, 75984, Note_on_c, 0, 74, 94
2, 76021, Note_off_c, 0, 74, 0
2, 76032, Note_on_c, 0, 72, 94
2, 76032, Note_on_c, 0, 60, 94
2, 76069, Note_off_c, 0, 60, 0
2, 76080, Note_on_c, 0, 67, 94
2, 76108, Note_off_c, 0, 72, 0
2, 76117, Note_off_c, 0, 67, 0
2, 76120, Note_on_c, 0, 74, 94
2, 76128, Note_off_c, 0, 74, 0
2, 76128, Note_on_c, 0, 64, 94
2, 76128, Note_on_c, 0, 72, 94
2, 76165, Note_off_c, 0, 72, 0
2, 76165, Note_off_c, 0, 64, 0
2, 76176, Note_on_c, 0, 67, 94
2, 76176, Note_on_c, 0, 71, 94
2, 76213, Note_off_c, 0, 71, 0
2, 76213, Note_off_c, 0, 67, 0
2, 76224, Note_on_c, 0, 72, 94
2, 76224, Note_on_c, 0, 60, 94
2, 76261, Note_off_c, 0, 60, 0
2, 76272, Note_on_c, 0, 67, 94
2, 76300, Note_off_c, 0, 72, 0
2, 76309, Note_off_c, 0, 67, 0
2, 76320, Note_on_c, 0, 79, 94
2, 76320, Note_on_c, 0, 64, 94
2, 76357, Note_off_c, 0, 64, 0
2, 76368, Note_on_c, 0, 67, 94
2, 76396, Note_off_c, 0, 79, 0
2, 76405, Note_off_c, 0, 67, 0
2, 76416, Note_on_c, 0, 77, 94
2, 76464, Note_on_c, 0, 67, 94
2, 76501, Note_off_c, 0, 67, 0
2, 76512, Note_on_c, 0, 60, 94
2, 76549, Note_off_c, 0, 60, 0
2, 76560, Note_on_c, 0, 67, 94
2, 76568, Note_off_c, 0, 77, 0
2, 76597, Note_off_c, 0, 67, 0
2, 76608, Note_on_c, 0, 76, 94
2, 76656, Note_on_c, 0, 67, 94
2, 76684, Note_off_c, 0, 76, 0
2, 76693, Note_off_c, 0, 67, 0
2, 76704, Note_on_c, 0, 60, 94
2, 76741, Note_off_c, 0, 60, 0
2, 76752, Note_on_c, 0, 67, 94
2, 76789, Note_off_c, 0, 67, 0
2, 76848, Note_on_c, 0, 67, 94
2, 76885, Note_off_c, 0, 67, 0
2, 76896, Note_on_c, 0, 76, 94
2, 76896, Note_on_c, 0, 60, 94
2, 76933, Note_off_c, 0, 60, 0
2, 76944, Note_on_c, 0, 67, 94
2, 76972, Note_off_c, 0, 76, 0
2, 76981, Note_off_c, 0, 67, 0
2, 76992, Note_on_c, 0, 84, 94
2, 77040, Note_on_c, 0, 67, 94
2, 77068, Note_off_c, 0, 84, 0
2, 77077, Note_off_c, 0, 67, 0
2, 77088, Note_on_c, 0, 76, 94
2, 77088, Note_on_c, 0, 60, 94
2, 77125, Note_off_c, 0, 60, 0
2, 77136, Note_on_c, 0, 67, 94
2, 77164, Note_off_c, 0, 76, 0
2, 77173, Note_off_c, 0, 67, 0
2, 77184, Note_on_c, 0, 79, 94
2, 77232, Note_on_c, 0, 65, 94
2, 77269, Note_off_c, 0, 65, 0
2, 77280, Note_on_c, 0, 60, 94
2, 77317, Note_off_c, 0, 60, 0
2, 77328, Note_on_c, 0, 65, 94
2, 77336, Note_off_c, 0, 79, 0
2, 77365, Note_off_c, 0, 65, 0
2, 77376, Note_on_c, 0, 77, 94
2, 77424, Note_on_c, 0, 65, 94
2, 77452, Note_off_c, 0, 77, 0
2, 77461, Note_off_c, 0, 65, 0
2, 77472, Note_on_c, 0, 60, 94
2, 77509, Note_off_c, 0, 60, 0
2, 77520, Note_on_c, 0, 65, 94
2, 77557, Note_off_c, 0, 65, 0
2, 77616, Note_on_c, 0, 65, 52
2, 77653, Note_off_c, 0, 65, 0
2, 77664, Note_on_c, 0, 77, 52
2, 77664, Note_on_c, 0, 60, 52
2, 77701, Note_off_c, 0, 60, 0
2, 77712, Note_on_c, 0, 65, 52
2, 77740, Note_off_c, 0, 77, 0
2, 77749, Note_off_c, 0, 65, 0
2, 77760, Note_on_c, 0, 79, 52
2, 77808, Note_on_c, 0, 65, 52
2, 77836, Note_off_c, 0, 79, 0
2, 77845, Note_off_c, 0, 65, 0
2, 77856, Note_on_c, 0, 81, 52
2, 77856, Note_on_c, 0, 60, 52
2, 77893, Note_off_c, 0, 60, 0
2, 77904, Note_on_c, 0, 65, 52
2, 77932, Note_off_c, 0, 81, 0
2, 77941, Note_off_c, 0, 65, 0
2, 77952, Note_on_c, 0, 82, 52
2, 78000, Note_on_c, 0, 64, 52
2, 78037, Note_off_c, 0, 64, 0
2, 78096, Note_on_c, 0, 64, 52
2, 78104, Note_off_c, 0, 82, 0
2, 78133, Note_off_c, 0, 64, 0
2, 78144, Note_on_c, 0, 73, 52
2, 78192, Note_on_c, 0, 64, 52
2, 78220, Note_off_c, 0, 73, 0
2, 78229, Note_off_c, 0, 64, 0
2, 78288, Note_on_c, 0, 64, 52
2, 78325, Note_off_c, 0, 64, 0
2, 78384, Note_on_c, 0, 64, 94
2, 78421, Note_off_c, 0, 64, 0
2, 78432, Note_on_c, 0, 76, 94
2, 78432, Note_on_c, 0, 61, 94
2, 78469, Note_off_c, 0, 61, 0
2, 78480, Note_on_c, 0, 64, 94
2, 78508, Note_off_c, 0, 76, 0
2, 78517, Note_off_c, 0, 64, 0
2, 78528, Note_on_c, 0, 77, 94
2, 78576, Note_on_c, 0, 64, 94
2, 78604, Note_off_c, 0, 77, 0
2, 78613, Note_off_c, 0, 64, 0
2, 78624, Note_on_c, 0, 79, 94
2, 78624, Note_on_c, 0, 61, 94
2, 78661, Note_off_c, 0, 61, 0
2, 78672, Note_on_c, 0, 64, 94
2, 78700, Note_off_c, 0, 79, 0
2, 78709, Note_off_c, 0, 64, 0
2, 78720, Note_on_c, 0, 80, 94
2, 78768, Note_on_c, 0, 62, 94
2, 78805, Note_off_c, 0, 62, 0
2, 78864, Note_on_c, 0, 62, 94
2, 78872, Note_off_c, 0, 80, 0
2, 78901, Note_off_c, 0, 62, 0
2, 78912, Note_on_c, 0, 71, 94
2, 78960, Note_on_c, 0, 62, 94
2, 78988, Note_off_c, 0, 71, 0
2, 78997, Note_off_c, 0, 62, 0
2, 79056, Note_on_c, 0, 62, 94
2, 79093, Note_off_c, 0, 62, 0
2, 79152, Note_on_c, 0, 60, 94
2, 79189, Note_off_c, 0, 60, 0
2, 79200, Note_on_c, 0, 72, 94
2, 79248, Note_on_c, 0, 60, 94
2, 79276, Note_off_c, 0, 72, 0
2, 79285, Note_off_c, 0, 60, 0
2, 79296, Note_on_c, 0, 79, 94
2, 79344, Note_on_c, 0, 60, 94
2, 79381, Note_off_c, 0, 60, 0
2, 79440, Note_on_c, 0, 60, 94
2, 79477, Note_off_c, 0, 60, 0
2, 79525, Note_off_c, 0, 79, 0
2, 79536, Note_on_c, 0, 60, 94
2, 79573, Note_off_c, 0, 60, 0
2, 79584, Note_on_c, 0, 78, 94
2, 79632, Note_on_c, 0, 60, 94
2, 79660, Note_off_c, 0, 78, 0
2, 79669, Note_off_c, 0, 60, 0
2, 79680, Note_on_c, 0, 77, 94
2, 79832, Note_off_c, 0, 77, 0
2, 79872, Note_on_c, 0, 77, 94
2, 79920, Note_on_c, 0, 60, 94
2, 79948, Note_off_c, 0, 77, 0
2, 79957, Note_off_c, 0, 60, 0
2, 79968, Note_on_c, 0, 76, 94
2, 80016, Note_on_c, 0, 60, 94
2, 80044, Note_off_c, 0, 76, 0
2, 80053, Note_off_c, 0, 60, 0
2, 80064, Note_on_c, 0, 75, 94
2, 80081, Note_off_c, 0, 75, 0
2, 80088, Note_on_c, 0, 76, 94
2, 80105, Note_off_c, 0, 76, 0
2, 80112, Note_on_c, 0, 75, 94
2, 80112, Note_on_c, 0, 60, 94
2, 80129, Note_off_c, 0, 75, 0
2, 80136, Note_on_c, 0, 76, 94
2, 80149, Note_off_c, 0, 60, 0
2, 80153, Note_off_c, 0, 76, 0
2, 80160, Note_on_c, 0, 75, 94
2, 80177, Note_off_c, 0, 75, 0
2, 80184, Note_on_c, 0, 76, 94
2, 80201, Note_off_c, 0, 76, 0
2, 80208, Note_on_c, 0, 60, 94
2, 80208, Note_on_c, 0, 74, 94
2, 80225, Note_off_c, 0, 74, 0
2, 80232, Note_on_c, 0, 75, 94
2, 80245, Note_off_c, 0, 60, 0
2, 80249, Note_off_c, 0, 75, 0
2, 80256, Note_on_c, 0, 74, 94
2, 80408, Note_off_c, 0, 74, 0
2, 80448, Note_on_c, 0, 74, 94
2, 80448, Note_on_c, 0, 77, 94
2, 80448, Note_on_c, 0, 83, 94
2, 80716, Note_off_c, 0, 83, 0
2, 80716, Note_off_c, 0, 77, 0
2, 80716, Note_off_c, 0, 74, 0
2, 80736, Note_on_c, 0, 76, 52
2, 80736, Note_on_c, 0, 84, 52
2, 80812, Note_off_c, 0, 84, 0
2, 80812, Note_off_c, 0, 76, 0
2, 80832, Note_on_c, 0, 72, 52
2, 80832, Note_on_c, 0, 76, 52
2, 80908, Note_off_c, 0, 76, 0
2, 80908, Note_off_c, 0, 72, 0
2, 80928, Note_on_c, 0, 78, 52
2, 80928, Note_on_c, 0, 69, 52
2, 80965, Note_off_c, 0, 69, 0
2, 80965, Note_off_c, 0, 78, 0
2, 80976, Note_on_c, 0, 79, 52
2, 80993, Note_off_c, 0, 79, 0
2, 81000, Note_on_c, 0, 78, 52
2, 81017, Note_off_c, 0, 78, 0
2, 81024, Note_on_c, 0, 79, 52
2, 81041, Note_off_c, 0, 79, 0
2, 81048, Note_on_c, 0, 79, 52
2, 81048, Note_on_c, 0, 71, 52
2, 81200, Note_off_c, 0, 71, 0
2, 81200, Note_off_c, 0, 79, 0
2, 81240, Note_on_c, 0, 65, 52
2, 81240, Note_on_c, 0, 71, 52
2, 81240, Note_on_c, 0, 62, 52
2, 81484, Note_off_c, 0, 62, 0
2, 81484, Note_off_c, 0, 71, 0
2, 81484, Note_off_c, 0, 65, 0
2, 81504, Note_on_c, 0, 72, 52
2, 81504, Note_on_c, 0, 64, 52
2, 81580, Note_off_c, 0, 64, 0
2, 81580, Note_off_c, 0, 72, 0
2, 81600, Note_on_c, 0, 60, 52
2, 81600, Note_on_c, 0, 64, 52
2, 81676, Note_off_c, 0, 64, 0
2, 81676, Note_off_c, 0, 60, 0
2, 81696, Note_on_c, 0, 66, 52
2, 81713, Note_off_c, 0, 66, 0
2, 81720, Note_on_c, 0, 67, 52
2, 81737, Note_off_c, 0, 67, 0
2, 81744, Note_on_c, 0, 66, 52
2, 81761, Note_off_c, 0, 66, 0
2, 81768, Note_on_c, 0, 67, 52
2, 81785, Note_off_c, 0, 67, 0
2, 81792, Note_on_c, 0, 67, 52
2, 81944, Note_off_c, 0, 67, 0
2, 82176, Note_on_c, 0, 66, 52
2, 82177, Note_off_c, 0, 66, 0
2, 82188, Note_on_c, 0, 67, 52
2, 82340, Note_off_c, 0, 67, 0
2, 82368, Note_on_c, 0, 66, 52
2, 82380, Note_off_c, 0, 66, 0
2, 82380, Note_on_c, 0, 67, 52
2, 82532, Note_off_c, 0, 67, 0
2, 82552, Note_on_c, 0, 64, 52
2, 82576, Note_on_c, 0, 67, 52
2, 82597, Note_off_c, 0, 64, 0
2, 82608, Note_on_c, 0, 73, 52
2, 82621, Note_off_c, 0, 67, 0
2, 82644, Note_on_c, 0, 76, 52
2, 82652, Note_off_c, 0, 73, 0
2, 82981, Note_off_c, 0, 76, 0
2, 82992, Note_on_c, 0, 67, 94
2, 83029, Note_off_c, 0, 67, 0
2, 83040, Note_on_c, 0, 69, 94
2, 83077, Note_off_c, 0, 69, 0
2, 83088, Note_on_c, 0, 73, 94
2, 83125, Note_off_c, 0, 73, 0
2, 83136, Note_on_c, 0, 76, 94
2, 83173, Note_off_c, 0, 76, 0
2, 83184, Note_on_c, 0, 79, 94
2, 83221, Note_off_c, 0, 79, 0
2, 83232, Note_on_c, 0, 81, 94
2, 83269, Note_off_c, 0, 81, 0
2, 83280, Note_on_c, 0, 85, 94
2, 83317, Note_off_c, 0, 85, 0
2, 83328, Note_on_c, 0, 88, 94
2, 83365, Note_off_c, 0, 88, 0
2, 83376, Note_on_c, 0, 86, 94
2, 83413, Note_off_c, 0, 86, 0
2, 83424, Note_on_c, 0, 85, 94
2, 83461, Note_off_c, 0, 85, 0
2, 83472, Note_on_c, 0, 82, 94
2, 83509, Note_off_c, 0, 82, 0
2, 83520, Note_on_c, 0, 81, 94
2, 83557, Note_off_c, 0, 81, 0
2, 83568, Note_on_c, 0, 79, 94
2, 83605, Note_off_c, 0, 79, 0
2, 83616, Note_on_c, 0, 77, 94
2, 83616, Note_on_c, 0, 61, 94
2, 83653, Note_off_c, 0, 77, 0
2, 83664, Note_on_c, 0, 76, 94
2, 83692, Note_off_c, 0, 61, 0
2, 83701, Note_off_c, 0, 76, 0
2, 83712, Note_on_c, 0, 79, 94
2, 83712, Note_on_c, 0, 62, 94
2, 83749, Note_off_c, 0, 79, 0
2, 83760, Note_on_c, 0, 77, 94
2, 83797, Note_off_c, 0, 77, 0
2, 83808, Note_on_c, 0, 76, 94
2, 83845, Note_off_c, 0, 76, 0
2, 83856, Note_on_c, 0, 77, 94
2, 83864, Note_off_c, 0, 62, 0
2, 83893, Note_off_c, 0, 77, 0
2, 83904, Note_on_c, 0, 76, 94
2, 83941, Note_off_c, 0, 76, 0
2, 83952, Note_on_c, 0, 77, 94
2, 83989, Note_off_c, 0, 77, 0
2, 84000, Note_on_c, 0, 79, 94
2, 84037, Note_off_c, 0, 79, 0
2, 84048, Note_on_c, 0, 77, 94
2, 84084, Note_on_c, 0, 64, 94
2, 84085, Note_off_c, 0, 77, 0
2, 84096, Note_off_c, 0, 64, 0
2, 84096, Note_on_c, 0, 65, 94
2, 84248, Note_off_c, 0, 65, 0
2, 84276, Note_on_c, 0, 64, 94
2, 84288, Note_off_c, 0, 64, 0
2, 84288, Note_on_c, 0, 65, 94
2, 84468, Note_off_c, 0, 65, 0
2, 84480, Note_on_c, 0, 74, 94
2, 84768, Note_on_c, 0, 62, 94
2, 84805, Note_off_c, 0, 62, 0
2, 84816, Note_on_c, 0, 67, 94
2, 84853, Note_off_c, 0, 67, 0
2, 84901, Note_off_c, 0, 74, 0
2, 84912, Note_on_c, 0, 65, 94
2, 84949, Note_off_c, 0, 65, 0
2, 84960, Note_on_c, 0, 67, 94
2, 84997, Note_off_c, 0, 67, 0
2, 85008, Note_on_c, 0, 71, 94
2, 85045, Note_off_c, 0, 71, 0
2, 85056, Note_on_c, 0, 74, 94
2, 85093, Note_off_c, 0, 74, 0
2, 85104, Note_on_c, 0, 77, 94
2, 85141, Note_off_c, 0, 77, 0
2, 85152, Note_on_c, 0, 79, 94
2, 85189, Note_off_c, 0, 79, 0
2, 85200, Note_on_c, 0, 83, 94
2, 85237, Note_off_c, 0, 83, 0
2, 85248, Note_on_c, 0, 86, 94
2, 85285, Note_off_c, 0, 86, 0
2, 85296, Note_on_c, 0, 84, 94
2, 85333, Note_off_c, 0, 84, 0
2, 85344, Note_on_c, 0, 83, 94
2, 85381, Note_off_c, 0, 83, 0
2, 85392, Note_on_c, 0, 81, 94
2, 85429, Note_off_c, 0, 81, 0
2, 85440, Note_on_c, 0, 79, 94
2, 85477, Note_off_c, 0, 79, 0
2, 85488, Note_on_c, 0, 77, 94
2, 85525, Note_off_c, 0, 77, 0
2, 85536, Note_on_c, 0, 76, 94
2, 85573, Note_off_c, 0, 76, 0
2, 85584, Note_on_c, 0, 74, 94
2, 85621, Note_off_c, 0, 74, 0
2, 85632, Note_on_c, 0, 60, 94
2, 85632, Note_on_c, 0, 76, 94
2, 85669, Note_off_c, 0, 60, 0
2, 85680, Note_on_c, 0, 67, 94
2, 85717, Note_off_c, 0, 67, 0
2, 85728, Note_on_c, 0, 64, 94
2, 85765, Note_off_c, 0, 64, 0
2, 85776, Note_on_c, 0, 67, 94
2, 85784, Note_off_c, 0, 76, 0
2, 85813, Note_off_c, 0, 67, 0
2, 85824, Note_on_c, 0, 60, 94
2, 85824, Note_on_c, 0, 79, 94
2, 85861, Note_off_c, 0, 60, 0
2, 85872, Note_on_c, 0, 67, 94
2, 85900, Note_off_c, 0, 79, 0
2, 85909, Note_off_c, 0, 67, 0
2, 85920, Note_on_c, 0, 64, 94
2, 85920, Note_on_c, 0, 79, 94
2, 85957, Note_off_c, 0, 64, 0
2, 85968, Note_on_c, 0, 67, 94
2, 85996, Note_off_c, 0, 79, 0
2, 86005, Note_off_c, 0, 67, 0
2, 86016, Note_on_c, 0, 60, 52
2, 86016, Note_on_c, 0, 81, 52
2, 86053, Note_off_c, 0, 60, 0
2, 86064, Note_on_c, 0, 69, 52
2, 86101, Note_off_c, 0, 69, 0
2, 86112, Note_on_c, 0, 65, 52
2, 86129, Note_off_c, 0, 81, 0
2, 86149, Note_off_c, 0, 65, 0
2, 86160, Note_on_c, 0, 69, 52
2, 86160, Note_on_c, 0, 83, 52
2, 86196, Note_on_c, 0, 86, 52
2, 86197, Note_off_c, 0, 83, 0
2, 86197, Note_off_c, 0, 69, 0
2, 86208, Note_off_c, 0, 86, 0
2, 86208, Note_on_c, 0, 84, 52
2, 86208, Note_on_c, 0, 60, 52
2, 86245, Note_off_c, 0, 60, 0
2, 86256, Note_on_c, 0, 69, 52
2, 86284, Note_off_c, 0, 84, 0
2, 86293, Note_off_c, 0, 69, 0
2, 86304, Note_on_c, 0, 83, 52
2, 86304, Note_on_c, 0, 65, 52
2, 86341, Note_off_c, 0, 65, 0
2, 86341, Note_off_c, 0, 83, 0
2, 86352, Note_on_c, 0, 69, 52
2, 86352, Note_on_c, 0, 81, 52
2, 86389, Note_off_c, 0, 81, 0
2, 86389, Note_off_c, 0, 69, 0
2, 86400, Note_on_c, 0, 79, 52
2, 86400, Note_on_c, 0, 60, 52
2, 86437, Note_off_c, 0, 60, 0
2, 86448, Note_on_c, 0, 67, 52
2, 86476, Note_off_c, 0, 79, 0
2, 86485, Note_off_c, 0, 67, 0
2, 86496, Note_on_c, 0, 64, 52
2, 86533, Note_off_c, 0, 64, 0
2, 86544, Note_on_c, 0, 67, 52
2, 86581, Note_off_c, 0, 67, 0
2, 86592, Note_on_c, 0, 60, 52
2, 86592, Note_on_c, 0, 79, 52
2, 86629, Note_off_c, 0, 79, 0
2, 86629, Note_off_c, 0, 60, 0
2, 86640, Note_on_c, 0, 67, 52
2, 86640, Note_on_c, 0, 76, 52
2, 86677, Note_off_c, 0, 76, 0
2, 86677, Note_off_c, 0, 67, 0
2, 86688, Note_on_c, 0, 64, 52
2, 86688, Note_on_c, 0, 79, 52
2, 86725, Note_off_c, 0, 79, 0
2, 86725, Note_off_c, 0, 64, 0
2, 86736, Note_on_c, 0, 67, 52
2, 86736, Note_on_c, 0, 76, 52
2, 86773, Note_off_c, 0, 76, 0
2, 86773, Note_off_c, 0, 67, 0
2, 86784, Note_on_c, 0, 60, 52
2, 86784, Note_on_c, 0, 81, 52
2, 86821, Note_off_c, 0, 60, 0
2, 86832, Note_on_c, 0, 69, 52
2, 86869, Note_off_c, 0, 69, 0
2, 86880, Note_on_c, 0, 65, 52
2, 86897, Note_off_c, 0, 81, 0
2, 86917, Note_off_c, 0, 65, 0
2, 86928, Note_on_c, 0, 69, 52
2, 86928, Note_on_c, 0, 83, 52
2, 86964, Note_on_c, 0, 86, 52
2, 86965, Note_off_c, 0, 83, 0
2, 86965, Note_off_c, 0, 69, 0
2, 86976, Note_off_c, 0, 86, 0
2, 86976, Note_on_c, 0, 84, 52
2, 86976, Note_on_c, 0, 60, 52
2, 87013, Note_off_c, 0, 60, 0
2, 87024, Note_on_c, 0, 69, 52
2, 87052, Note_off_c, 0, 84, 0
2, 87061, Note_off_c, 0, 69, 0
2, 87072, Note_on_c, 0, 83, 52
2, 87072, Note_on_c, 0, 65, 52
2, 87109, Note_off_c, 0, 65, 0
2, 87109, Note_off_c, 0, 83, 0
2, 87120, Note_on_c, 0, 69, 52
2, 87120, Note_on_c, 0, 81, 52
2, 87157, Note_off_c, 0, 81, 0
2, 87157, Note_off_c, 0, 69, 0
2, 87168, Note_on_c, 0, 60, 52
2, 87168, Note_on_c, 0, 79, 52
2, 87168, Note_on_c, 0, 64, 52
2, 87244, Note_off_c, 0, 79, 0
2, 87264, Note_on_c, 0, 88, 52
2, 87301, Note_off_c, 0, 88, 0
2, 87312, Note_on_c, 0, 86, 52
2, 87348, Note_off_c, 0, 60, 0
2, 87348, Note_off_c, 0, 64, 0
2, 87349, Note_off_c, 0, 86, 0
2, 87360, Note_on_c, 0, 84, 52
2, 87360, Note_on_c, 0, 73, 52
2, 87397, Note_off_c, 0, 84, 0
2, 87408, Note_on_c, 0, 83, 52
2, 87436, Note_off_c, 0, 73, 0
2, 87445, Note_off_c, 0, 83, 0
2, 87456, Note_on_c, 0, 81, 52
2, 87493, Note_off_c, 0, 81, 0
2, 87504, Note_on_c, 0, 79, 52
2, 87541, Note_off_c, 0, 79, 0
2, 87552, Note_on_c, 0, 77, 94
2, 87552, Note_on_c, 0, 74, 94
2, 87569, Note_off_c, 0, 77, 0
2, 87576, Note_on_c, 0, 79, 94
2, 87593, Note_off_c, 0, 79, 0
2, 87600, Note_on_c, 0, 77, 94
2, 87617, Note_off_c, 0, 77, 0
2, 87624, Note_on_c, 0, 79, 94
2, 87641, Note_off_c, 0, 79, 0
2, 87648, Note_on_c, 0, 86, 94
2, 87685, Note_off_c, 0, 86, 0
2, 87696, Note_on_c, 0, 84, 94
2, 87704, Note_off_c, 0, 74, 0
2, 87733, Note_off_c, 0, 84, 0
2, 87744, Note_on_c, 0, 83, 94
2, 87781, Note_off_c, 0, 83, 0
2, 87792, Note_on_c, 0, 81, 94
2, 87829, Note_off_c, 0, 81, 0
2, 87840, Note_on_c, 0, 71, 94
2, 87840, Note_on_c, 0, 79, 94
2, 87877, Note_off_c, 0, 79, 0
2, 87888, Note_on_c, 0, 77, 94
2, 87916, Note_off_c, 0, 71, 0
2, 87925, Note_off_c, 0, 77, 0
2, 87936, Note_on_c, 0, 76, 94
2, 87936, Note_on_c, 0, 72, 94
2, 87953, Note_off_c, 0, 76, 0
2, 87960, Note_on_c, 0, 77, 94
2, 87977, Note_off_c, 0, 77, 0
2, 87984, Note_on_c, 0, 76, 94
2, 88001, Note_off_c, 0, 76, 0
2, 88008, Note_on_c, 0, 77, 94
2, 88025, Note_off_c, 0, 77, 0
2, 88032, Note_on_c, 0, 84, 94
2, 88069, Note_off_c, 0, 84, 0
2, 88080, Note_on_c, 0, 83, 94
2, 88088, Note_off_c, 0, 72, 0
2, 88117, Note_off_c, 0, 83, 0
2, 88128, Note_on_c, 0, 81, 94
2, 88165, Note_off_c, 0, 81, 0
2, 88176, Note_on_c, 0, 79, 94
2, 88213, Note_off_c, 0, 79, 0
2, 88224, Note_on_c, 0, 77, 94
2, 88261, Note_off_c, 0, 77, 0
2, 88272, Note_on_c, 0, 76, 94
2, 88309, Note_off_c, 0, 76, 0
2, 88320, Note_on_c, 0, 74, 94
2, 88337, Note_off_c, 0, 74, 0
2, 88344, Note_on_c, 0, 76, 94
2, 88361, Note_off_c, 0, 76, 0
2, 88368, Note_on_c, 0, 74, 94
2, 88385, Note_off_c, 0, 74, 0
2, 88392, Note_on_c, 0, 76, 94
2, 88409, Note_off_c, 0, 76, 0
2, 88416, Note_on_c, 0, 81, 94
2, 88453, Note_off_c, 0, 81, 0
2, 88464, Note_on_c, 0, 79, 94
2, 88501, Note_off_c, 0, 79, 0
2, 88512, Note_on_c, 0, 77, 94
2, 88549, Note_off_c, 0, 77, 0
2, 88560, Note_on_c, 0, 76, 94
2, 88597, Note_off_c, 0, 76, 0
2, 88608, Note_on_c, 0, 66, 94
2, 88608, Note_on_c, 0, 74, 94
2, 88645, Note_off_c, 0, 74, 0
2, 88656, Note_on_c, 0, 72, 94
2, 88684, Note_off_c, 0, 66, 0
2, 88693, Note_off_c, 0, 72, 0
2, 88704, Note_on_c, 0, 71, 94
2, 88752, Note_on_c, 0, 67, 94
2, 88789, Note_off_c, 0, 67, 0
2, 88800, Note_on_c, 0, 66, 94
2, 88837, Note_off_c, 0, 66, 0
2, 88848, Note_on_c, 0, 67, 94
2, 88856, Note_off_c, 0, 71, 0
2, 88885, Note_off_c, 0, 67, 0
2, 88896, Note_on_c, 0, 67, 94
2, 88944, Note_on_c, 0, 60, 94
2, 88972, Note_off_c, 0, 67, 0
2, 88981, Note_off_c, 0, 60, 0
2, 88992, Note_on_c, 0, 67, 94
2, 89040, Note_on_c, 0, 60, 94
2, 89068, Note_off_c, 0, 67, 0
2, 89077, Note_off_c, 0, 60, 0
2, 89088, Note_on_c, 0, 69, 52
2, 89136, Note_on_c, 0, 60, 52
2, 89173, Note_off_c, 0, 60, 0
2, 89201, Note_off_c, 0, 69, 0
2, 89232, Note_on_c, 0, 60, 52
2, 89232, Note_on_c, 0, 71, 52
2, 89268, Note_on_c, 0, 74, 52
2, 89269, Note_off_c, 0, 71, 0
2, 89269, Note_off_c, 0, 60, 0
2, 89280, Note_off_c, 0, 74, 0
2, 89280, Note_on_c, 0, 72, 52
2, 89328, Note_on_c, 0, 60, 52
2, 89356, Note_off_c, 0, 72, 0
2, 89365, Note_off_c, 0, 60, 0
2, 89376, Note_on_c, 0, 71, 52
2, 89413, Note_off_c, 0, 71, 0
2, 89424, Note_on_c, 0, 60, 52
2, 89424, Note_on_c, 0, 69, 52
2, 89461, Note_off_c, 0, 69, 0
2, 89461, Note_off_c, 0, 60, 0
2, 89472, Note_on_c, 0, 67, 52
2, 89520, Note_on_c, 0, 60, 52
2, 89548, Note_off_c, 0, 67, 0
2, 89557, Note_off_c, 0, 60, 0
2, 89616, Note_on_c, 0, 60, 52
2, 89653, Note_off_c, 0, 60, 0
2, 89664, Note_on_c, 0, 67, 52
2, 89701, Note_off_c, 0, 67, 0
2, 89712, Note_on_c, 0, 60, 52
2, 89712, Note_on_c, 0, 64, 52
2, 89749, Note_off_c, 0, 64, 0
2, 89749, Note_off_c, 0, 60, 0
2, 89760, Note_on_c, 0, 67, 52
2, 89797, Note_off_c, 0, 67, 0
2, 89808, Note_on_c, 0, 60, 52
2, 89808, Note_on_c, 0, 64, 52
2, 89845, Note_off_c, 0, 64, 0
2, 89845, Note_off_c, 0, 60, 0
2, 89856, Note_on_c, 0, 69, 52
2, 89904, Note_on_c, 0, 60, 52
2, 89941, Note_off_c, 0, 60, 0
2, 89969, Note_off_c, 0, 69, 0
2, 90000, Note_on_c, 0, 60, 52
2, 90000, Note_on_c, 0, 71, 52
2, 90036, Note_on_c, 0, 74, 52
2, 90037, Note_off_c, 0, 71, 0
2, 90037, Note_off_c, 0, 60, 0
2, 90048, Note_off_c, 0, 74, 0
2, 90048, Note_on_c, 0, 72, 52
2, 90096, Note_on_c, 0, 60, 52
2, 90124, Note_off_c, 0, 72, 0
2, 90133, Note_off_c, 0, 60, 0
2, 90144, Note_on_c, 0, 71, 52
2, 90181, Note_off_c, 0, 71, 0
2, 90192, Note_on_c, 0, 69, 52
2, 90192, Note_on_c, 0, 60, 52
2, 90229, Note_off_c, 0, 60, 0
2, 90229, Note_off_c, 0, 69, 0
2, 90240, Note_on_c, 0, 67, 52
2, 90277, Note_off_c, 0, 67, 0
2, 90288, Note_on_c, 0, 72, 52
2, 90325, Note_off_c, 0, 72, 0
2, 90336, Note_on_c, 0, 76, 52
2, 90373, Note_off_c, 0, 76, 0
2, 90384, Note_on_c, 0, 74, 52
2, 90421, Note_off_c, 0, 74, 0
2, 90432, Note_on_c, 0, 72, 52
2, 90469, Note_off_c, 0, 72, 0
2, 90480, Note_on_c, 0, 71, 52
2, 90517, Note_off_c, 0, 71, 0
2, 90528, Note_on_c, 0, 69, 52
2, 90528, Note_on_c, 0, 61, 52
2, 90565, Note_off_c, 0, 69, 0
2, 90576, Note_on_c, 0, 67, 52
2, 90604, Note_off_c, 0, 61, 0
2, 90613, Note_off_c, 0, 67, 0
2, 90624, Note_on_c, 0, 67, 94
2, 90624, Note_on_c, 0, 62, 94
2, 90661, Note_off_c, 0, 67, 0
2, 90672, Note_on_c, 0, 66, 94
2, 90709, Note_off_c, 0, 66, 0
2, 90720, Note_on_c, 0, 74, 94
2, 90757, Note_off_c, 0, 74, 0
2, 90768, Note_on_c, 0, 72, 94
2, 90776, Note_off_c, 0, 62, 0
2, 90805, Note_off_c, 0, 72, 0
2, 90816, Note_on_c, 0, 71, 94
2, 90853, Note_off_c, 0, 71, 0
2, 90864, Note_on_c, 0, 69, 94
2, 90901, Note_off_c, 0, 69, 0
2, 90912, Note_on_c, 0, 67, 94
2, 90949, Note_off_c, 0, 67, 0
2, 90960, Note_on_c, 0, 65, 94
2, 90997, Note_off_c, 0, 65, 0
2, 91008, Note_on_c, 0, 65, 94
2, 91008, Note_on_c, 0, 60, 94
2, 91045, Note_off_c, 0, 65, 0
2, 91056, Note_on_c, 0, 64, 94
2, 91093, Note_off_c, 0, 64, 0
2, 91104, Note_on_c, 0, 72, 94
2, 91141, Note_off_c, 0, 72, 0
2, 91152, Note_on_c, 0, 71, 94
2, 91160, Note_off_c, 0, 60, 0
2, 91189, Note_off_c, 0, 71, 0
2, 91200, Note_on_c, 0, 69, 94
2, 91237, Note_off_c, 0, 69, 0
2, 91248, Note_on_c, 0, 67, 94
2, 91285, Note_off_c, 0, 67, 0
2, 91296, Note_on_c, 0, 65, 94
2, 91333, Note_off_c, 0, 65, 0
2, 91344, Note_on_c, 0, 64, 94
2, 91381, Note_off_c, 0, 64, 0
2, 91392, Note_on_c, 0, 62, 94
2, 91468, Note_off_c, 0, 62, 0
2, 91584, Note_on_c, 0, 62, 94
2, 91621, Note_off_c, 0, 62, 0
2, 91632, Note_on_c, 0, 65, 94
2, 91669, Note_off_c, 0, 65, 0
2, 91680, Note_on_c, 0, 69, 94
2, 91717, Note_off_c, 0, 69, 0
2, 91728, Note_on_c, 0, 74, 94
2, 91765, Note_off_c, 0, 74, 0
2, 91968, Note_on_c, 0, 64, 94
2, 92005, Note_off_c, 0, 64, 0
2, 92016, Note_on_c, 0, 67, 94
2, 92053, Note_off_c, 0, 67, 0
2, 92064, Note_on_c, 0, 71, 94
2, 92101, Note_off_c, 0, 71, 0
2, 92112, Note_on_c, 0, 76, 94
2, 92149, Note_off_c, 0, 76, 0
2, 92352, Note_on_c, 0, 65, 94
2, 92389, Note_off_c, 0, 65, 0
2, 92400, Note_on_c, 0, 69, 94
2, 92437, Note_off_c, 0, 69, 0
2, 92448, Note_on_c, 0, 72, 94
2, 92485, Note_off_c, 0, 72, 0
2, 92496, Note_on_c, 0, 77, 94
2, 92533, Note_off_c, 0, 77, 0
2, 92736, Note_on_c, 0, 86, 94
2, 92773, Note_off_c, 0, 86, 0
2, 92784, Note_on_c, 0, 83, 94
2, 92821, Note_off_c, 0, 83, 0
2, 92832, Note_on_c, 0, 79, 94
2, 92869, Note_off_c, 0, 79, 0
2, 92880, Note_on_c, 0, 77, 94
2, 92917, Note_off_c, 0, 77, 0
2, 92928, Note_on_c, 0, 74, 94
2, 92965, Note_off_c, 0, 74, 0
2, 92976, Note_on_c, 0, 71, 94
2, 93013, Note_off_c, 0, 71, 0
2, 93024, Note_on_c, 0, 67, 94
2, 93061, Note_off_c, 0, 67, 0
2, 93072, Note_on_c, 0, 65, 94
2, 93109, Note_off_c, 0, 65, 0
2, 93120, Note_on_c, 0, 62, 94
2, 93157, Note_off_c, 0, 62, 0
2, 93312, Note_on_c, 0, 72, 94
2, 93329, Note_off_c, 0, 72, 0
2, 93336, Note_on_c, 0, 74, 94
2, 93353, Note_off_c, 0, 74, 0
2, 93360, Note_on_c, 0, 71, 94
2, 93397, Note_off_c, 0, 71, 0
2, 93408, Note_on_c, 0, 72, 94
2, 93445, Note_off_c, 0, 72, 0
2, 93456, Note_on_c, 0, 76, 94
2, 93493, Note_off_c, 0, 76, 0
2, 93504, Note_on_c, 0, 74, 94
2, 93521, Note_off_c, 0, 74, 0
2, 93528, Note_on_c, 0, 76, 94
2, 93545, Note_off_c, 0, 76, 0
2, 93552, Note_on_c, 0, 72, 94
2, 93589, Note_off_c, 0, 72, 0
2, 93600, Note_on_c, 0, 74, 94
2, 93637, Note_off_c, 0, 74, 0
2, 93648, Note_on_c, 0, 77, 94
2, 93685, Note_off_c, 0, 77, 0
2, 93696, Note_on_c, 0, 60, 94
2, 93696, Note_on_c, 0, 76, 94
2, 93713, Note_off_c, 0, 76, 0
2, 93720, Note_on_c, 0, 77, 94
2, 93737, Note_off_c, 0, 77, 0
2, 93744, Note_on_c, 0, 74, 94
2, 93772, Note_off_c, 0, 60, 0
2, 93781, Note_off_c, 0, 74, 0
2, 93792, Note_on_c, 0, 76, 94
2, 93829, Note_off_c, 0, 76, 0
2, 93840, Note_on_c, 0, 79, 94
2, 93877, Note_off_c, 0, 79, 0
2, 93888, Note_on_c, 0, 62, 94
2, 93888, Note_on_c, 0, 77, 94
2, 93905, Note_off_c, 0, 77, 0
2, 93912, Note_on_c, 0, 79, 94
2, 93929, Note_off_c, 0, 79, 0
2, 93936, Note_on_c, 0, 76, 94
2, 93964, Note_off_c, 0, 62, 0
2, 93973, Note_off_c, 0, 76, 0
2, 93984, Note_on_c, 0, 77, 94
2, 94021, Note_off_c, 0, 77, 0
2, 94032, Note_on_c, 0, 81, 94
2, 94069, Note_off_c, 0, 81, 0
2, 94080, Note_on_c, 0, 79, 94
2, 94080, Note_on_c, 0, 64, 94
2, 94117, Note_off_c, 0, 79, 0
2, 94128, Note_on_c, 0, 84, 94
2, 94165, Note_off_c, 0, 84, 0
2, 94176, Note_on_c, 0, 88, 94
2, 94213, Note_off_c, 0, 88, 0
2, 94224, Note_on_c, 0, 83, 94
2, 94232, Note_off_c, 0, 64, 0
2, 94261, Note_off_c, 0, 83, 0
2, 94272, Note_on_c, 0, 84, 94
2, 94309, Note_off_c, 0, 84, 0
2, 94320, Note_on_c, 0, 79, 94
2, 94357, Note_off_c, 0, 79, 0
2, 94368, Note_on_c, 0, 81, 94
2, 94368, Note_on_c, 0, 62, 94
2, 94405, Note_off_c, 0, 81, 0
2, 94416, Note_on_c, 0, 77, 94
2, 94444, Note_off_c, 0, 62, 0
2, 94453, Note_off_c, 0, 77, 0
2, 94464, Note_on_c, 0, 76, 94
2, 94464, Note_on_c, 0, 60, 94
2, 94481, Note_off_c, 0, 76, 0
2, 94488, Note_on_c, 0, 77, 94
2, 94505, Note_off_c, 0, 77, 0
2, 94512, Note_on_c, 0, 76, 94
2, 94529, Note_off_c, 0, 76, 0
2, 94536, Note_on_c, 0, 77, 94
2, 94540, Note_off_c, 0, 60, 0
2, 94553, Note_off_c, 0, 77, 0
2, 94560, Note_on_c, 0, 74, 94
2, 94649, Note_off_c, 0, 74, 0
2, 94704, Note_on_c, 0, 79, 94
2, 94741, Note_off_c, 0, 79, 0
2, 94752, Note_on_c, 0, 77, 94
2, 94789, Note_off_c, 0, 77, 0
2, 94800, Note_on_c, 0, 76, 94
2, 94837, Note_off_c, 0, 76, 0
2, 94848, Note_on_c, 0, 65, 94
2, 94848, Note_on_c, 0, 74, 94
2, 94885, Note_off_c, 0, 65, 0
2, 94896, Note_on_c, 0, 72, 94
2, 94933, Note_off_c, 0, 72, 0
2, 94944, Note_on_c, 0, 71, 94
2, 94981, Note_off_c, 0, 71, 0
2, 94992, Note_on_c, 0, 72, 94
2, 95000, Note_off_c, 0, 74, 0
2, 95029, Note_off_c, 0, 72, 0
2, 95040, Note_on_c, 0, 76, 94
2, 95040, Note_on_c, 0, 67, 94
2, 95057, Note_off_c, 0, 76, 0
2, 95064, Note_on_c, 0, 77, 94
2, 95077, Note_off_c, 0, 67, 0
2, 95081, Note_off_c, 0, 77, 0
2, 95088, Note_on_c, 0, 76, 94
2, 95088, Note_on_c, 0, 72, 94
2, 95105, Note_off_c, 0, 76, 0
2, 95112, Note_on_c, 0, 77, 94
2, 95125, Note_off_c, 0, 72, 0
2, 95129, Note_off_c, 0, 77, 0
2, 95136, Note_on_c, 0, 76, 94
2, 95136, Note_on_c, 0, 71, 94
2, 95153, Note_off_c, 0, 76, 0
2, 95160, Note_on_c, 0, 77, 94
2, 95173, Note_off_c, 0, 71, 0
2, 95177, Note_off_c, 0, 77, 0
2, 95184, Note_on_c, 0, 74, 94
2, 95184, Note_on_c, 0, 72, 94
2, 95201, Note_off_c, 0, 74, 0
2, 95208, Note_on_c, 0, 76, 94
2, 95221, Note_off_c, 0, 72, 0
2, 95225, Note_off_c, 0, 76, 0
2, 95232, Note_on_c, 0, 69, 52
2, 95232, Note_on_c, 0, 77, 52
2, 95269, Note_off_c, 0, 69, 0
2, 95280, Note_on_c, 0, 72, 52
2, 95317, Note_off_c, 0, 72, 0
2, 95328, Note_on_c, 0, 71, 52
2, 95365, Note_off_c, 0, 71, 0
2, 95376, Note_on_c, 0, 72, 52
2, 95413, Note_off_c, 0, 72, 0
2, 95424, Note_on_c, 0, 67, 52
2, 95461, Note_off_c, 0, 77, 0
2, 95461, Note_off_c, 0, 67, 0
2, 95472, Note_on_c, 0, 72, 52
2, 95509, Note_off_c, 0, 72, 0
2, 95520, Note_on_c, 0, 76, 52
2, 95520, Note_on_c, 0, 71, 52
2, 95557, Note_off_c, 0, 71, 0
2, 95568, Note_on_c, 0, 72, 52
2, 95596, Note_off_c, 0, 76, 0
2, 95605, Note_off_c, 0, 72, 0
2, 95616, Note_on_c, 0, 74, 52
2, 95616, Note_on_c, 0, 65, 52
2, 95653, Note_off_c, 0, 65, 0
2, 95664, Note_on_c, 0, 72, 52
2, 95692, Note_off_c, 0, 74, 0
2, 95700, Note_on_c, 0, 73, 52
2, 95701, Note_off_c, 0, 72, 0
2, 95712, Note_off_c, 0, 73, 0
2, 95712, Note_on_c, 0, 74, 52
2, 95712, Note_on_c, 0, 71, 52
2, 95749, Note_off_c, 0, 71, 0
2, 95760, Note_on_c, 0, 72, 52
2, 95788, Note_off_c, 0, 74, 0
2, 95797, Note_off_c, 0, 72, 0
2, 95808, Note_on_c, 0, 67, 52
2, 95808, Note_on_c, 0, 76, 52
2, 95845, Note_off_c, 0, 67, 0
2, 95856, Note_on_c, 0, 72, 52
2, 95884, Note_off_c, 0, 76, 0
2, 95892, Note_on_c, 0, 75, 52
2, 95893, Note_off_c, 0, 72, 0
2, 95904, Note_off_c, 0, 75, 0
2, 95904, Note_on_c, 0, 71, 52
2, 95904, Note_on_c, 0, 76, 52
2, 95941, Note_off_c, 0, 71, 0
2, 95952, Note_on_c, 0, 72, 52
2, 95980, Note_off_c, 0, 76, 0
2, 95989, Note_off_c, 0, 72, 0
2, 96000, Note_on_c, 0, 69, 52
2, 96000, Note_on_c, 0, 77, 52
2, 96037, Note_off_c, 0, 69, 0
2, 96048, Note_on_c, 0, 72, 52
2, 96085, Note_off_c, 0, 72, 0
2, 96096, Note_on_c, 0, 71, 52
2, 96133, Note_off_c, 0, 71, 0
2, 96144, Note_on_c, 0, 72, 52
2, 96181, Note_off_c, 0, 72, 0
2, 96192, Note_on_c, 0, 67, 52
2, 96229, Note_off_c, 0, 77, 0
2, 96229, Note_off_c, 0, 67, 0
2, 96240, Note_on_c, 0, 72, 52
2, 96277, Note_off_c, 0, 72, 0
2, 96288, Note_on_c, 0, 76, 52
2, 96288, Note_on_c, 0, 71, 52
2, 96325, Note_off_c, 0, 71, 0
2, 96336, Note_on_c, 0, 72, 52
2, 96364, Note_off_c, 0, 76, 0
2, 96372, Note_on_c, 0, 73, 52
2, 96373, Note_off_c, 0, 72, 0
2, 96384, Note_off_c, 0, 73, 0
2, 96384, Note_on_c, 0, 74, 52
2, 96480, Note_on_c, 0, 65, 52
2, 96480, Note_on_c, 0, 69, 52
2, 96556, Note_off_c, 0, 69, 0
2, 96556, Note_off_c, 0, 65, 0
2, 96564, Note_off_c, 0, 74, 0
2, 96576, Note_on_c, 0, 64, 52
2, 96576, Note_on_c, 0, 68, 52
2, 96652, Note_off_c, 0, 68, 0
2, 96652, Note_off_c, 0, 64, 0
2, 96672, Note_on_c, 0, 69, 52
2, 96672, Note_on_c, 0, 65, 52
2, 96748, Note_off_c, 0, 65, 0
2, 96748, Note_off_c, 0, 69, 0
2, 96768, Note_on_c, 0, 80, 94
2, 96780, Note_off_c, 0, 80, 0
2, 96780, Note_on_c, 0, 81, 94
2, 96864, Note_on_c, 0, 65, 94
2, 96864, Note_on_c, 0, 69, 94
2, 96932, Note_off_c, 0, 81, 0
2, 96940, Note_off_c, 0, 65, 0
2, 96940, Note_off_c, 0, 69, 0
2, 96960, Note_on_c, 0, 64, 94
2, 96960, Note_on_c, 0, 68, 94
2, 97036, Note_off_c, 0, 68, 0
2, 97036, Note_off_c, 0, 64, 0
2, 97056, Note_on_c, 0, 65, 94
2, 97056, Note_on_c, 0, 69, 94
2, 97132, Note_off_c, 0, 69, 0
2, 97132, Note_off_c, 0, 65, 0
2, 97152, Note_on_c, 0, 83, 94
2, 97164, Note_off_c, 0, 83, 0
2, 97164, Note_on_c, 0, 84, 94
2, 97248, Note_on_c, 0, 65, 94
2, 97248, Note_on_c, 0, 69, 94
2, 97316, Note_off_c, 0, 84, 0
2, 97324, Note_off_c, 0, 65, 0
2, 97324, Note_off_c, 0, 69, 0
2, 97344, Note_on_c, 0, 64, 94
2, 97344, Note_on_c, 0, 68, 94
2, 97420, Note_off_c, 0, 68, 0
2, 97420, Note_off_c, 0, 64, 0
2, 97440, Note_on_c, 0, 65, 94
2, 97440, Note_on_c, 0, 69, 94
2, 97516, Note_off_c, 0, 69, 0
2, 97516, Note_off_c, 0, 65, 0
2, 97536, Note_on_c, 0, 80, 52
2, 97537, Note_off_c, 0, 80, 0
2, 97548, Note_on_c, 0, 81, 52
2, 97624, Note_off_c, 0, 81, 0
2, 97636, Note_on_c, 0, 83, 52
2, 97644, Note_off_c, 0, 83, 0
2, 97644, Note_on_c, 0, 84, 52
2, 97720, Note_off_c, 0, 84, 0
2, 97732, Note_on_c, 0, 76, 52
2, 97740, Note_off_c, 0, 76, 0
2, 97740, Note_on_c, 0, 77, 52
2, 97816, Note_off_c, 0, 77, 0
2, 97828, Note_on_c, 0, 80, 52
2, 97836, Note_off_c, 0, 80, 0
2, 97836, Note_on_c, 0, 81, 52
2, 97912, Note_off_c, 0, 81, 0
2, 97924, Note_on_c, 0, 73, 52
2, 97932, Note_off_c, 0, 73, 0
2, 97932, Note_on_c, 0, 74, 52
2, 98008, Note_off_c, 0, 74, 0
2, 98020, Note_on_c, 0, 76, 52
2, 98028, Note_off_c, 0, 76, 0
2, 98028, Note_on_c, 0, 77, 52
2, 98104, Note_off_c, 0, 77, 0
2, 98116, Note_on_c, 0, 68, 52
2, 98124, Note_off_c, 0, 68, 0
2, 98124, Note_on_c, 0, 69, 52
2, 98200, Note_off_c, 0, 69, 0
2, 98212, Note_on_c, 0, 71, 52
2, 98220, Note_off_c, 0, 71, 0
2, 98220, Note_on_c, 0, 72, 52
2, 98296, Note_off_c, 0, 72, 0
2, 98304, Note_on_c, 0, 67, 94
2, 98316, Note_off_c, 0, 67, 0
2, 98316, Note_on_c, 0, 72, 94
2, 98328, Note_off_c, 0, 72, 0
2, 98328, Note_on_c, 0, 76, 94
2, 98340, Note_off_c, 0, 76, 0
2, 98340, Note_on_c, 0, 79, 94
2, 98352, Note_on_c, 0, 64, 94
2, 98389, Note_off_c, 0, 64, 0
2, 98400, Note_on_c, 0, 60, 94
2, 98437, Note_off_c, 0, 60, 0
2, 98448, Note_on_c, 0, 64, 94
2, 98485, Note_off_c, 0, 64, 0
2, 98492, Note_off_c, 0, 79, 0
2, 98532, Note_on_c, 0, 77, 94
2, 98544, Note_on_c, 0, 64, 94
2, 98569, Note_off_c, 0, 77, 0
2, 98580, Note_on_c, 0, 76, 94
2, 98581, Note_off_c, 0, 64, 0
2, 98592, Note_on_c, 0, 60, 94
2, 98617, Note_off_c, 0, 76, 0
2, 98628, Note_on_c, 0, 74, 94
2, 98629, Note_off_c, 0, 60, 0
2, 98640, Note_on_c, 0, 64, 94
2, 98665, Note_off_c, 0, 74, 0
2, 98676, Note_on_c, 0, 72, 94
2, 98677, Note_off_c, 0, 64, 0
2, 98713, Note_off_c, 0, 72, 0
2, 98724, Note_on_c, 0, 74, 94
2, 98736, Note_on_c, 0, 65, 94
2, 98741, Note_off_c, 0, 74, 0
2, 98748, Note_on_c, 0, 76, 94
2, 98765, Note_off_c, 0, 76, 0
2, 98772, Note_on_c, 0, 74, 94
2, 98773, Note_off_c, 0, 65, 0
2, 98784, Note_on_c, 0, 62, 94
2, 98789, Note_off_c, 0, 74, 0
2, 98796, Note_on_c, 0, 76, 94
2, 98813, Note_off_c, 0, 76, 0
2, 98820, Note_on_c, 0, 74, 94
2, 98821, Note_off_c, 0, 62, 0
2, 98832, Note_on_c, 0, 65, 94
2, 98837, Note_off_c, 0, 74, 0
2, 98844, Note_on_c, 0, 76, 94
2, 98861, Note_off_c, 0, 76, 0
2, 98868, Note_on_c, 0, 74, 94
2, 98869, Note_off_c, 0, 65, 0
2, 98885, Note_off_c, 0, 74, 0
2, 98892, Note_on_c, 0, 76, 94
2, 98909, Note_off_c, 0, 76, 0
2, 98916, Note_on_c, 0, 74, 94
2, 98928, Note_on_c, 0, 65, 94
2, 98933, Note_off_c, 0, 74, 0
2, 98940, Note_on_c, 0, 76, 94
2, 98957, Note_off_c, 0, 76, 0
2, 98964, Note_on_c, 0, 74, 94
2, 98965, Note_off_c, 0, 65, 0
2, 98976, Note_on_c, 0, 62, 94
2, 98981, Note_off_c, 0, 74, 0
2, 98988, Note_on_c, 0, 76, 94
2, 99005, Note_off_c, 0, 76, 0
2, 99012, Note_on_c, 0, 74, 94
2, 99013, Note_off_c, 0, 62, 0
2, 99024, Note_on_c, 0, 67, 94
2, 99029, Note_off_c, 0, 74, 0
2, 99036, Note_on_c, 0, 76, 94
2, 99053, Note_off_c, 0, 76, 0
2, 99061, Note_off_c, 0, 67, 0
2, 99072, Note_on_c, 0, 60, 94
2, 99072, Note_on_c, 0, 74, 94
2, 99072, Note_on_c, 0, 72, 94
2, 99077, Note_off_c, 0, 74, 0
2, 99109, Note_off_c, 0, 60, 0
2, 99120, Note_on_c, 0, 67, 94
2, 99148, Note_off_c, 0, 72, 0
2, 99157, Note_off_c, 0, 67, 0
2, 99168, Note_on_c, 0, 84, 94
2, 99168, Note_on_c, 0, 64, 94
2, 99205, Note_off_c, 0, 64, 0
2, 99205, Note_off_c, 0, 84, 0
2, 99216, Note_on_c, 0, 84, 94
2, 99216, Note_on_c, 0, 67, 94
2, 99253, Note_off_c, 0, 67, 0
2, 99253, Note_off_c, 0, 84, 0
2, 99264, Note_on_c, 0, 84, 94
2, 99264, Note_on_c, 0, 60, 94
2, 99301, Note_off_c, 0, 84, 0
2, 99312, Note_on_c, 0, 79, 94
2, 99340, Note_off_c, 0, 60, 0
2, 99349, Note_off_c, 0, 79, 0
2, 99360, Note_on_c, 0, 76, 94
2, 99397, Note_off_c, 0, 76, 0
2, 99408, Note_on_c, 0, 72, 94
2, 99445, Note_off_c, 0, 72, 0
2, 99456, Note_on_c, 0, 74, 94
2, 99504, Note_on_c, 0, 67, 94
2, 99532, Note_off_c, 0, 74, 0
2, 99541, Note_off_c, 0, 67, 0
2, 99552, Note_on_c, 0, 86, 94
2, 99552, Note_on_c, 0, 62, 94
2, 99589, Note_off_c, 0, 62, 0
2, 99589, Note_off_c, 0, 86, 0
2, 99600, Note_on_c, 0, 67, 94
2, 99600, Note_on_c, 0, 86, 94
2, 99637, Note_off_c, 0, 86, 0
2, 99637, Note_off_c, 0, 67, 0
2, 99648, Note_on_c, 0, 86, 94
2, 99685, Note_off_c, 0, 86, 0
2, 99696, Note_on_c, 0, 83, 94
2, 99733, Note_off_c, 0, 83, 0
2, 99744, Note_on_c, 0, 79, 94
2, 99781, Note_off_c, 0, 79, 0
2, 99792, Note_on_c, 0, 74, 94
2, 99829, Note_off_c, 0, 74, 0
2, 99840, Note_on_c, 0, 60, 94
2, 99840, Note_on_c, 0, 76, 94
2, 99877, Note_off_c, 0, 60, 0
2, 99888, Note_on_c, 0, 67, 94
2, 99916, Note_off_c, 0, 76, 0
2, 99925, Note_off_c, 0, 67, 0
2, 99936, Note_on_c, 0, 88, 94
2, 99936, Note_on_c, 0, 64, 94
2, 99973, Note_off_c, 0, 64, 0
2, 99973, Note_off_c, 0, 88, 0
2, 99984, Note_on_c, 0, 67, 94
2, 99984, Note_on_c, 0, 88, 94
2, 100021, Note_off_c, 0, 88, 0
2, 100021, Note_off_c, 0, 67, 0
2, 100032, Note_on_c, 0, 88, 94
2, 100032, Note_on_c, 0, 60, 94
2, 100069, Note_off_c, 0, 88, 0
2, 100080, Note_on_c, 0, 84, 94
2, 100108, Note_off_c, 0, 60, 0
2, 100117, Note_off_c, 0, 84, 0
2, 100128, Note_on_c, 0, 79, 94
2, 100165, Note_off_c, 0, 79, 0
2, 100176, Note_on_c, 0, 76, 94
2, 100213, Note_off_c, 0, 76, 0
2, 100224, Note_on_c, 0, 80, 94
2, 100224, Note_on_c, 0, 62, 94
2, 100261, Note_off_c, 0, 80, 0
2, 100272, Note_on_c, 0, 81, 94
2, 100309, Note_off_c, 0, 81, 0
2, 100320, Note_on_c, 0, 77, 94
2, 100357, Note_off_c, 0, 77, 0
2, 100368, Note_on_c, 0, 74, 94
2, 100376, Note_off_c, 0, 62, 0
2, 100405, Note_off_c, 0, 74, 0
2, 100416, Note_on_c, 0, 65, 94
2, 100416, Note_on_c, 0, 62, 94
2, 100416, Note_on_c, 0, 76, 94
2, 100453, Note_off_c, 0, 76, 0
2, 100464, Note_on_c, 0, 77, 94
2, 100501, Note_off_c, 0, 77, 0
2, 100512, Note_on_c, 0, 74, 94
2, 100549, Note_off_c, 0, 74, 0
2, 100560, Note_on_c, 0, 71, 94
2, 100568, Note_off_c, 0, 62, 0
2, 100568, Note_off_c, 0, 65, 0
2, 100597, Note_off_c, 0, 71, 0
2, 100608, Note_on_c, 0, 60, 94
2, 100608, Note_on_c, 0, 64, 94
2, 100608, Note_on_c, 0, 72, 94
2, 100645, Note_off_c, 0, 72, 0
2, 100656, Note_on_c, 0, 71, 94
2, 100684, Note_off_c, 0, 64, 0
2, 100684, Note_off_c, 0, 60, 0
2, 100693, Note_off_c, 0, 71, 0
2, 100704, Note_on_c, 0, 72, 94
2, 100741, Note_off_c, 0, 72, 0
2, 100752, Note_on_c, 0, 71, 94
2, 100789, Note_off_c, 0, 71, 0
2, 100800, Note_on_c, 0, 72, 94
2, 100837, Note_off_c, 0, 72, 0
2, 100848, Note_on_c, 0, 67, 94
2, 100885, Note_off_c, 0, 67, 0
2, 100896, Note_on_c, 0, 64, 94
2, 100933, Note_off_c, 0, 64, 0
2, 100944, Note_on_c, 0, 60, 94
2, 100981, Note_off_c, 0, 60, 0
2, 100992, Note_on_c, 0, 62, 94
2, 101029, Note_off_c, 0, 62, 0
2, 101040, Note_on_c, 0, 73, 94
2, 101077, Note_off_c, 0, 73, 0
2, 101088, Note_on_c, 0, 74, 94
2, 101125, Note_off_c, 0, 74, 0
2, 101136, Note_on_c, 0, 73, 94
2, 101173, Note_off_c, 0, 73, 0
2, 101184, Note_on_c, 0, 74, 94
2, 101221, Note_off_c, 0, 74, 0
2, 101232, Note_on_c, 0, 71, 94
2, 101269, Note_off_c, 0, 71, 0
2, 101280, Note_on_c, 0, 67, 94
2, 101317, Note_off_c, 0, 67, 0
2, 101328, Note_on_c, 0, 62, 94
2, 101365, Note_off_c, 0, 62, 0
2, 101376, Note_on_c, 0, 60, 94
2, 101376, Note_on_c, 0, 64, 94
2, 101413, Note_off_c, 0, 64, 0
2, 101424, Note_on_c, 0, 75, 94
2, 101452, Note_off_c, 0, 60, 0
2, 101461, Note_off_c, 0, 75, 0
2, 101472, Note_on_c, 0, 76, 94
2, 101509, Note_off_c, 0, 76, 0
2, 101520, Note_on_c, 0, 75, 94
2, 101557, Note_off_c, 0, 75, 0
2, 101568, Note_on_c, 0, 76, 94
2, 101605, Note_off_c, 0, 76, 0
2, 101616, Note_on_c, 0, 72, 94
2, 101653, Note_off_c, 0, 72, 0
2, 101664, Note_on_c, 0, 67, 94
2, 101701, Note_off_c, 0, 67, 0
2, 101712, Note_on_c, 0, 64, 94
2, 101749, Note_off_c, 0, 64, 0
2, 101760, Note_on_c, 0, 68, 94
2, 101797, Note_off_c, 0, 68, 0
2, 101808, Note_on_c, 0, 69, 94
2, 101845, Note_off_c, 0, 69, 0
2, 101856, Note_on_c, 0, 65, 94
2, 101893, Note_off_c, 0, 65, 0
2, 101904, Note_on_c, 0, 62, 94
2, 101941, Note_off_c, 0, 62, 0
2, 101952, Note_on_c, 0, 64, 94
2, 101989, Note_off_c, 0, 64, 0
2, 102000, Note_on_c, 0, 65, 94
2, 102037, Note_off_c, 0, 65, 0
2, 102048, Note_on_c, 0, 62, 94
2, 102085, Note_off_c, 0, 62, 0
2, 102144, Note_on_c, 0, 60, 94
2, 102181, Note_off_c, 0, 60, 0
2, 102192, Note_on_c, 0, 72, 94
2, 102229, Note_off_c, 0, 72, 0
2, 102240, Note_on_c, 0, 76, 94
2, 102277, Note_off_c, 0, 76, 0
2, 102288, Note_on_c, 0, 74, 94
2, 102325, Note_off_c, 0, 74, 0
2, 102336, Note_on_c, 0, 72, 94
2, 102373, Note_off_c, 0, 72, 0
2, 102384, Note_on_c, 0, 71, 94
2, 102421, Note_off_c, 0, 71, 0
2, 102432, Note_on_c, 0, 69, 94
2, 102469, Note_off_c, 0, 69, 0
2, 102480, Note_on_c, 0, 67, 94
2, 102517, Note_off_c, 0, 67, 0
2, 102528, Note_on_c, 0, 65, 94
2, 102565, Note_off_c, 0, 65, 0
2, 102576, Note_on_c, 0, 64, 94
2, 102613, Note_off_c, 0, 64, 0
2, 102624, Note_on_c, 0, 62, 94
2, 102661, Note_off_c, 0, 62, 0
2, 102672, Note_on_c, 0, 60, 94
2, 102709, Note_off_c, 0, 60, 0
2, 104112, Note_on_c, 0, 60, 94
2, 104149, Note_off_c, 0, 60, 0
2, 104208, Note_on_c, 0, 60, 94
2, 104245, Note_off_c, 0, 60, 0
2, 104304, Note_on_c, 0, 67, 94
2, 104341, Note_off_c, 0, 67, 0
2, 104352, Note_on_c, 0, 66, 94
2, 104389, Note_off_c, 0, 66, 0
2, 104400, Note_on_c, 0, 67, 94
2, 104437, Note_off_c, 0, 67, 0
2, 104448, Note_on_c, 0, 64, 52
2, 104485, Note_off_c, 0, 64, 0
2, 104496, Note_on_c, 0, 72, 52
2, 104533, Note_off_c, 0, 72, 0
2, 104544, Note_on_c, 0, 71, 52
2, 104581, Note_off_c, 0, 71, 0
2, 104592, Note_on_c, 0, 72, 52
2, 104629, Note_off_c, 0, 72, 0
2, 104640, Note_on_c, 0, 67, 52
2, 104677, Note_off_c, 0, 67, 0
2, 104688, Note_on_c, 0, 76, 52
2, 104725, Note_off_c, 0, 76, 0
2, 104736, Note_on_c, 0, 74, 52
2, 104773, Note_off_c, 0, 74, 0
2, 104784, Note_on_c, 0, 76, 52
2, 104821, Note_off_c, 0, 76, 0
2, 104832, Note_on_c, 0, 72, 52
2, 104869, Note_off_c, 0, 72, 0
2, 104880, Note_on_c, 0, 72, 52
2, 104917, Note_off_c, 0, 72, 0
2, 104928, Note_on_c, 0, 71, 52
2, 104965, Note_off_c, 0, 71, 0
2, 104976, Note_on_c, 0, 72, 52
2, 105013, Note_off_c, 0, 72, 0
2, 105024, Note_on_c, 0, 76, 52
2, 105061, Note_off_c, 0, 76, 0
2, 105072, Note_on_c, 0, 72, 52
2, 105109, Note_off_c, 0, 72, 0
2, 105120, Note_on_c, 0, 79, 52
2, 105157, Note_off_c, 0, 79, 0
2, 105168, Note_on_c, 0, 76, 52
2, 105205, Note_off_c, 0, 76, 0
2, 105216, Note_on_c, 0, 84, 94
2, 105264, Note_on_c, 0, 60, 94
2, 105301, Note_off_c, 0, 60, 0
2, 105312, Note_on_c, 0, 64, 94
2, 105349, Note_off_c, 0, 64, 0
2, 105360, Note_on_c, 0, 60, 94
2, 105368, Note_off_c, 0, 84, 0
2, 105397, Note_off_c, 0, 60, 0
2, 105408, Note_on_c, 0, 76, 94
2, 105408, Note_on_c, 0, 79, 94
2, 105408, Note_on_c, 0, 84, 94
2, 105456, Note_on_c, 0, 60, 94
2, 105493, Note_off_c, 0, 60, 0
2, 105560, Note_off_c, 0, 84, 0
2, 105560, Note_off_c, 0, 79, 0
2, 105560, Note_off_c, 0, 76, 0
2, 105600, Note_on_c, 0, 76, 94
2, 105600, Note_on_c, 0, 79, 94
2, 105600, Note_on_c, 0, 84, 94
2, 105752, Note_off_c, 0, 84, 0
2, 105752, Note_off_c, 0, 79, 0
2, 105752, Note_off_c, 0, 76, 0
2, 105752, End_track
3, 0, Start_track
3, 0, Title_t, "LH"
3, 0, Channel_prefix, 1
3, 0, Control_c, 1, 7, 100
3, 0, Program_c, 1, 0
3, 0, Control_c, 1, 0, 0
3, 0, Note_on_c, 1, 48, 94
3, 37, Note_off_c, 1, 48, 0
3, 96, Note_on_c, 1, 59, 94
3, 133, Note_off_c, 1, 59, 0
3, 192, Note_on_c, 1, 48, 94
3, 268, Note_off_c, 1, 48, 0
3, 768, Note_on_c, 1, 53, 94
3, 768, Note_on_c, 1, 41, 94
3, 920, Note_off_c, 1, 41, 0
3, 920, Note_off_c, 1, 53, 0
3, 1248, Note_on_c, 1, 52, 94
3, 1324, Note_off_c, 1, 52, 0
3, 1344, Note_on_c, 1, 53, 94
3, 1420, Note_off_c, 1, 53, 0
3, 1440, Note_on_c, 1, 55, 94
3, 1516, Note_off_c, 1, 55, 0
3, 1536, Note_on_c, 1, 48, 94
3, 1573, Note_off_c, 1, 48, 0
3, 1632, Note_on_c, 1, 59, 94
3, 1669, Note_off_c, 1, 59, 0
3, 1728, Note_on_c, 1, 48, 94
3, 1765, Note_off_c, 1, 48, 0
3, 2304, Note_on_c, 1, 41, 94
3, 2304, Note_on_c, 1, 53, 94
3, 2456, Note_off_c, 1, 53, 0
3, 2456, Note_off_c, 1, 41, 0
3, 2784, Note_on_c, 1, 52, 94
3, 2860, Note_off_c, 1, 52, 0
3, 2880, Note_on_c, 1, 53, 94
3, 2956, Note_off_c, 1, 53, 0
3, 2976, Note_on_c, 1, 55, 94
3, 3052, Note_off_c, 1, 55, 0
3, 3456, Note_on_c, 1, 59, 94
3, 3493, Note_off_c, 1, 59, 0
3, 3648, Note_on_c, 1, 59, 94
3, 3685, Note_off_c, 1, 59, 0
3, 3840, Note_on_c, 1, 59, 94
3, 3877, Note_off_c, 1, 59, 0
3, 4032, Note_on_c, 1, 59, 94
3, 4069, Note_off_c, 1, 59, 0
3, 6144, Note_on_c, 1, 52, 94
3, 6181, Note_off_c, 1, 52, 0
3, 6192, Note_on_c, 1, 55, 94
3, 6229, Note_off_c, 1, 55, 0
3, 6528, Note_on_c, 1, 53, 94
3, 6565, Note_off_c, 1, 53, 0
3, 6576, Note_on_c, 1, 57, 94
3, 6613, Note_off_c, 1, 57, 0
3, 7008, Note_on_c, 1, 55, 94
3, 7084, Note_off_c, 1, 55, 0
3, 7104, Note_on_c, 1, 55, 94
3, 7104, Note_on_c, 1, 59, 94
3, 7180, Note_off_c, 1, 59, 0
3, 7180, Note_off_c, 1, 55, 0
3, 7200, Note_on_c, 1, 55, 94
3, 7276, Note_off_c, 1, 55, 0
3, 7296, Note_on_c, 1, 56, 94
3, 7448, Note_off_c, 1, 56, 0
3, 7488, Note_on_c, 1, 57, 94
3, 7564, Note_off_c, 1, 57, 0
3, 7680, Note_on_c, 1, 52, 94
3, 7717, Note_off_c, 1, 52, 0
3, 7728, Note_on_c, 1, 55, 94
3, 7765, Note_off_c, 1, 55, 0
3, 8064, Note_on_c, 1, 53, 94
3, 8101, Note_off_c, 1, 53, 0
3, 8112, Note_on_c, 1, 57, 94
3, 8149, Note_off_c, 1, 57, 0
3, 8544, Note_on_c, 1, 55, 94
3, 8620, Note_off_c, 1, 55, 0
3, 8640, Note_on_c, 1, 59, 94
3, 8640, Note_on_c, 1, 55, 94
3, 8716, Note_off_c, 1, 55, 0
3, 8716, Note_off_c, 1, 59, 0
3, 8736, Note_on_c, 1, 55, 94
3, 8812, Note_off_c, 1, 55, 0
3, 8928, Note_on_c, 1, 59, 94
3, 8965, Note_off_c, 1, 59, 0
3, 9024, Note_on_c, 1, 47, 94
3, 9061, Note_off_c, 1, 47, 0
3, 9072, Note_on_c, 1, 48, 94
3, 9109, Note_off_c, 1, 48, 0
3, 9120, Note_on_c, 1, 47, 94
3, 9157, Note_off_c, 1, 47, 0
3, 9168, Note_on_c, 1, 48, 94
3, 9205, Note_off_c, 1, 48, 0
3, 9216, Note_on_c, 1, 36, 80
3, 9292, Note_off_c, 1, 36, 0
3, 9600, Note_on_c, 1, 59, 80
3, 9637, Note_off_c, 1, 59, 0
3, 9696, Note_on_c, 1, 59, 80
3, 9733, Note_off_c, 1, 59, 0
3, 9792, Note_on_c, 1, 47, 80
3, 9829, Note_off_c, 1, 47, 0
3, 9840, Note_on_c, 1, 48, 80
3, 9877, Note_off_c, 1, 48, 0
3, 9888, Note_on_c, 1, 47, 80
3, 9925, Note_off_c, 1, 47, 0
3, 9936, Note_on_c, 1, 48, 80
3, 9973, Note_off_c, 1, 48, 0
3, 9984, Note_on_c, 1, 36, 94
3, 10060, Note_off_c, 1, 36, 0
3, 10464, Note_on_c, 1, 55, 94
3, 10540, Note_off_c, 1, 55, 0
3, 10560, Note_on_c, 1, 59, 94
3, 10636, Note_off_c, 1, 59, 0
3, 10656, Note_on_c, 1, 55, 94
3, 10732, Note_off_c, 1, 55, 0
3, 10848, Note_on_c, 1, 55, 94
3, 10924, Note_off_c, 1, 55, 0
3, 11040, Note_on_c, 1, 55, 94
3, 11116, Note_off_c, 1, 55, 0
3, 11424, Note_on_c, 1, 53, 94
3, 11500, Note_off_c, 1, 53, 0
3, 11520, Note_on_c, 1, 55, 94
3, 11596, Note_off_c, 1, 55, 0
3, 11616, Note_on_c, 1, 59, 94
3, 11692, Note_off_c, 1, 59, 0
3, 12336, Note_on_c, 1, 40, 94
3, 12373, Note_off_c, 1, 40, 0
3, 12384, Note_on_c, 1, 44, 94
3, 12421, Note_off_c, 1, 44, 0
3, 12432, Note_on_c, 1, 47, 94
3, 12469, Note_off_c, 1, 47, 0
3, 12480, Note_on_c, 1, 52, 94
3, 12517, Note_off_c, 1, 52, 0
3, 12528, Note_on_c, 1, 56, 94
3, 12565, Note_off_c, 1, 56, 0
3, 12576, Note_on_c, 1, 59, 94
3, 12613, Note_off_c, 1, 59, 0
3, 12672, Note_on_c, 1, 52, 94
3, 12824, Note_off_c, 1, 52, 0
3, 12960, Note_on_c, 1, 56, 94
3, 12960, Note_on_c, 1, 52, 94
3, 13036, Note_off_c, 1, 52, 0
3, 13036, Note_off_c, 1, 56, 0
3, 13056, Note_on_c, 1, 45, 94
3, 13056, Note_on_c, 1, 57, 94
3, 13132, Note_off_c, 1, 57, 0
3, 13132, Note_off_c, 1, 45, 0
3, 13872, Note_on_c, 1, 38, 94
3, 13909, Note_off_c, 1, 38, 0
3, 13920, Note_on_c, 1, 42, 94
3, 13957, Note_off_c, 1, 42, 0
3, 13968, Note_on_c, 1, 45, 94
3, 14005, Note_off_c, 1, 45, 0
3, 14016, Note_on_c, 1, 50, 94
3, 14053, Note_off_c, 1, 50, 0
3, 14064, Note_on_c, 1, 54, 94
3, 14101, Note_off_c, 1, 54, 0
3, 14112, Note_on_c, 1, 57, 94
3, 14149, Note_off_c, 1, 57, 0
3, 14208, Note_on_c, 1, 50, 94
3, 14360, Note_off_c, 1, 50, 0
3, 14496, Note_on_c, 1, 54, 94
3, 14496, Note_on_c, 1, 50, 94
3, 14572, Note_off_c, 1, 50, 0
3, 14572, Note_off_c, 1, 54, 0
3, 14592, Note_on_c, 1, 55, 52
3, 14629, Note_off_c, 1, 55, 0
3, 14784, Note_on_c, 1, 59, 52
3, 14821, Note_off_c, 1, 59, 0
3, 15360, Note_on_c, 1, 59, 52
3, 15397, Note_off_c, 1, 59, 0
3, 15552, Note_on_c, 1, 59, 52
3, 15589, Note_off_c, 1, 59, 0
3, 16128, Note_on_c, 1, 59, 52
3, 16280, Note_off_c, 1, 59, 0
3, 20928, Note_on_c, 1, 59, 94
3, 21004, Note_off_c, 1, 59, 0
3, 21312, Note_on_c, 1, 59, 94
3, 21388, Note_off_c, 1, 59, 0
3, 22272, Note_on_c, 1, 50, 94
3, 22309, Note_off_c, 1, 50, 0
3, 22320, Note_on_c, 1, 59, 94
3, 22357, Note_off_c, 1, 59, 0
3, 22368, Note_on_c, 1, 55, 94
3, 22405, Note_off_c, 1, 55, 0
3, 22416, Note_on_c, 1, 59, 94
3, 22453, Note_off_c, 1, 59, 0
3, 22464, Note_on_c, 1, 50, 94
3, 22501, Note_off_c, 1, 50, 0
3, 22512, Note_on_c, 1, 59, 94
3, 22549, Note_off_c, 1, 59, 0
3, 22560, Note_on_c, 1, 55, 94
3, 22597, Note_off_c, 1, 55, 0
3, 22608, Note_on_c, 1, 59, 94
3, 22645, Note_off_c, 1, 59, 0
3, 22656, Note_on_c, 1, 50, 94
3, 22693, Note_off_c, 1, 50, 0
3, 22752, Note_on_c, 1, 54, 94
3, 22789, Note_off_c, 1, 54, 0
3, 22848, Note_on_c, 1, 50, 94
3, 22885, Note_off_c, 1, 50, 0
3, 22944, Note_on_c, 1, 54, 94
3, 22981, Note_off_c, 1, 54, 0
3, 23040, Note_on_c, 1, 55, 94
3, 23077, Note_off_c, 1, 55, 0
3, 23136, Note_on_c, 1, 59, 94
3, 23173, Note_off_c, 1, 59, 0
3, 23232, Note_on_c, 1, 55, 94
3, 23308, Note_off_c, 1, 55, 0
3, 23424, Note_on_c, 1, 54, 94
3, 23461, Note_off_c, 1, 54, 0
3, 23520, Note_on_c, 1, 57, 94
3, 23557, Note_off_c, 1, 57, 0
3, 23616, Note_on_c, 1, 54, 94
3, 23692, Note_off_c, 1, 54, 0
3, 23808, Note_on_c, 1, 55, 94
3, 23845, Note_off_c, 1, 55, 0
3, 23904, Note_on_c, 1, 59, 94
3, 23941, Note_off_c, 1, 59, 0
3, 24000, Note_on_c, 1, 55, 94
3, 24076, Note_off_c, 1, 55, 0
3, 24192, Note_on_c, 1, 48, 94
3, 24192, Note_on_c, 1, 57, 94
3, 24192, Note_on_c, 1, 52, 94
3, 24344, Note_off_c, 1, 52, 0
3, 24344, Note_off_c, 1, 57, 0
3, 24344, Note_off_c, 1, 48, 0
3, 24384, Note_on_c, 1, 50, 94
3, 24384, Note_on_c, 1, 57, 94
3, 24536, Note_off_c, 1, 57, 0
3, 24536, Note_off_c, 1, 50, 0
3, 24576, Note_on_c, 1, 59, 94
3, 24576, Note_on_c, 1, 55, 94
3, 24652, Note_off_c, 1, 55, 0
3, 24652, Note_off_c, 1, 59, 0
3, 24768, Note_on_c, 1, 43, 94
3, 24805, Note_off_c, 1, 43, 0
3, 24816, Note_on_c, 1, 55, 94
3, 24853, Note_off_c, 1, 55, 0
3, 24864, Note_on_c, 1, 54, 94
3, 24901, Note_off_c, 1, 54, 0
3, 24912, Note_on_c, 1, 55, 94
3, 24949, Note_off_c, 1, 55, 0
3, 24960, Note_on_c, 1, 54, 94
3, 25036, Note_off_c, 1, 54, 0
3, 25152, Note_on_c, 1, 42, 94
3, 25189, Note_off_c, 1, 42, 0
3, 25200, Note_on_c, 1, 54, 94
3, 25237, Note_off_c, 1, 54, 0
3, 25248, Note_on_c, 1, 52, 94
3, 25285, Note_off_c, 1, 52, 0
3, 25296, Note_on_c, 1, 54, 94
3, 25333, Note_off_c, 1, 54, 0
3, 25344, Note_on_c, 1, 55, 94
3, 25420, Note_off_c, 1, 55, 0
3, 25536, Note_on_c, 1, 43, 94
3, 25573, Note_off_c, 1, 43, 0
3, 25584, Note_on_c, 1, 55, 94
3, 25621, Note_off_c, 1, 55, 0
3, 25632, Note_on_c, 1, 54, 94
3, 25669, Note_off_c, 1, 54, 0
3, 25680, Note_on_c, 1, 55, 94
3, 25717, Note_off_c, 1, 55, 0
3, 25728, Note_on_c, 1, 57, 94
3, 25728, Note_on_c, 1, 48, 94
3, 25728, Note_on_c, 1, 52, 94
3, 25880, Note_off_c, 1, 52, 0
3, 25880, Note_off_c, 1, 48, 0
3, 25880, Note_off_c, 1, 57, 0
3, 25920, Note_on_c, 1, 57, 94
3, 25920, Note_on_c, 1, 50, 94
3, 26072, Note_off_c, 1, 50, 0
3, 26072, Note_off_c, 1, 57, 0
3, 26112, Note_on_c, 1, 55, 94
3, 26112, Note_on_c, 1, 59, 94
3, 26264, Note_off_c, 1, 59, 0
3, 26264, Note_off_c, 1, 55, 0
3, 27072, Note_on_c, 1, 45, 94
3, 27072, Note_on_c, 1, 57, 94
3, 27224, Note_off_c, 1, 57, 0
3, 27224, Note_off_c, 1, 45, 0
3, 27264, Note_on_c, 1, 54, 94
3, 27264, Note_on_c, 1, 42, 94
3, 27416, Note_off_c, 1, 42, 0
3, 27416, Note_off_c, 1, 54, 0
3, 27456, Note_on_c, 1, 38, 94
3, 27456, Note_on_c, 1, 50, 94
3, 27608, Note_off_c, 1, 50, 0
3, 27608, Note_off_c, 1, 38, 0
3, 27648, Note_on_c, 1, 57, 94
3, 27648, Note_on_c, 1, 43, 94
3, 27685, Note_off_c, 1, 43, 0
3, 27696, Note_on_c, 1, 55, 94
3, 27733, Note_off_c, 1, 55, 0
3, 27744, Note_on_c, 1, 54, 94
3, 27781, Note_off_c, 1, 54, 0
3, 27792, Note_on_c, 1, 55, 94
3, 27829, Note_off_c, 1, 55, 0
3, 27840, Note_on_c, 1, 54, 94
3, 27877, Note_off_c, 1, 54, 0
3, 27888, Note_on_c, 1, 55, 94
3, 27925, Note_off_c, 1, 55, 0
3, 27936, Note_on_c, 1, 54, 94
3, 27953, Note_off_c, 1, 57, 0
3, 27973, Note_off_c, 1, 54, 0
3, 27984, Note_on_c, 1, 55, 94
3, 28021, Note_off_c, 1, 55, 0
3, 28032, Note_on_c, 1, 43, 94
3, 28032, Note_on_c, 1, 59, 94
3, 28032, Note_on_c, 1, 55, 94
3, 28076, Note_off_c, 1, 55, 0
3, 28076, Note_off_c, 1, 59, 0
3, 28184, Note_off_c, 1, 43, 0
3, 29184, Control_c, 1, 0, 0
3, 29184, Note_on_c, 1, 48, 94
3, 29221, Note_off_c, 1, 48, 0
3, 29280, Note_on_c, 1, 59, 94
3, 29317, Note_off_c, 1, 59, 0
3, 29376, Note_on_c, 1, 48, 94
3, 29452, Note_off_c, 1, 48, 0
3, 29952, Note_on_c, 1, 41, 94
3, 29952, Note_on_c, 1, 53, 94
3, 30104, Note_off_c, 1, 53, 0
3, 30104, Note_off_c, 1, 41, 0
3, 30432, Note_on_c, 1, 52, 94
3, 30508, Note_off_c, 1, 52, 0
3, 30528, Note_on_c, 1, 53, 94
3, 30604, Note_off_c, 1, 53, 0
3, 30624, Note_on_c, 1, 55, 94
3, 30700, Note_off_c, 1, 55, 0
3, 30720, Note_on_c, 1, 48, 94
3, 30757, Note_off_c, 1, 48, 0
3, 30816, Note_on_c, 1, 59, 94
3, 30853, Note_off_c, 1, 59, 0
3, 30912, Note_on_c, 1, 48, 94
3, 30949, Note_off_c, 1, 48, 0
3, 31488, Note_on_c, 1, 53, 94
3, 31488, Note_on_c, 1, 41, 94
3, 31640, Note_off_c, 1, 41, 0
3, 31640, Note_off_c, 1, 53, 0
3, 31968, Note_on_c, 1, 52, 94
3, 32044, Note_off_c, 1, 52, 0
3, 32064, Note_on_c, 1, 53, 94
3, 32140, Note_off_c, 1, 53, 0
3, 32160, Note_on_c, 1, 55, 94
3, 32236, Note_off_c, 1, 55, 0
3, 32640, Note_on_c, 1, 59, 94
3, 32677, Note_off_c, 1, 59, 0
3, 32832, Note_on_c, 1, 59, 94
3, 32869, Note_off_c, 1, 59, 0
3, 33024, Note_on_c, 1, 59, 94
3, 33061, Note_off_c, 1, 59, 0
3, 33216, Note_on_c, 1, 59, 94
3, 33253, Note_off_c, 1, 59, 0
3, 35328, Note_on_c, 1, 52, 94
3, 35365, Note_off_c, 1, 52, 0
3, 35376, Note_on_c, 1, 55, 94
3, 35413, Note_off_c, 1, 55, 0
3, 35712, Note_on_c, 1, 53, 94
3, 35749, Note_off_c, 1, 53, 0
3, 35760, Note_on_c, 1, 57, 94
3, 35797, Note_off_c, 1, 57, 0
3, 36192, Note_on_c, 1, 55, 94
3, 36268, Note_off_c, 1, 55, 0
3, 36288, Note_on_c, 1, 55, 94
3, 36288, Note_on_c, 1, 59, 94
3, 36364, Note_off_c, 1, 59, 0
3, 36364, Note_off_c, 1, 55, 0
3, 36384, Note_on_c, 1, 55, 94
3, 36460, Note_off_c, 1, 55, 0
3, 36480, Note_on_c, 1, 56, 94
3, 36632, Note_off_c, 1, 56, 0
3, 36672, Note_on_c, 1, 57, 94
3, 36748, Note_off_c, 1, 57, 0
3, 36864, Note_on_c, 1, 52, 94
3, 36901, Note_off_c, 1, 52, 0
3, 36912, Note_on_c, 1, 55, 94
3, 36949, Note_off_c, 1, 55, 0
3, 37248, Note_on_c, 1, 53, 94
3, 37285, Note_off_c, 1, 53, 0
3, 37296, Note_on_c, 1, 57, 94
3, 37333, Note_off_c, 1, 57, 0
3, 37728, Note_on_c, 1, 55, 94
3, 37804, Note_off_c, 1, 55, 0
3, 37824, Note_on_c, 1, 59, 94
3, 37824, Note_on_c, 1, 55, 94
3, 37900, Note_off_c, 1, 55, 0
3, 37900, Note_off_c, 1, 59, 0
3, 37920, Note_on_c, 1, 55, 94
3, 37996, Note_off_c, 1, 55, 0
3, 38112, Note_on_c, 1, 59, 94
3, 38149, Note_off_c, 1, 59, 0
3, 38208, Note_on_c, 1, 47, 94
3, 38245, Note_off_c, 1, 47, 0
3, 38256, Note_on_c, 1, 48, 94
3, 38293, Note_off_c, 1, 48, 0
3, 38304, Note_on_c, 1, 47, 94
3, 38341, Note_off_c, 1, 47, 0
3, 38352, Note_on_c, 1, 48, 94
3, 38389, Note_off_c, 1, 48, 0
3, 38400, Note_on_c, 1, 36, 80
3, 38476, Note_off_c, 1, 36, 0
3, 38784, Note_on_c, 1, 59, 80
3, 38821, Note_off_c, 1, 59, 0
3, 38880, Note_on_c, 1, 59, 80
3, 38917, Note_off_c, 1, 59, 0
3, 38976, Note_on_c, 1, 47, 80
3, 39013, Note_off_c, 1, 47, 0
3, 39024, Note_on_c, 1, 48, 80
3, 39061, Note_off_c, 1, 48, 0
3, 39072, Note_on_c, 1, 47, 80
3, 39109, Note_off_c, 1, 47, 0
3, 39120, Note_on_c, 1, 48, 80
3, 39157, Note_off_c, 1, 48, 0
3, 39168, Note_on_c, 1, 36, 94
3, 39244, Note_off_c, 1, 36, 0
3, 39648, Note_on_c, 1, 55, 94
3, 39724, Note_off_c, 1, 55, 0
3, 39744, Note_on_c, 1, 59, 94
3, 39820, Note_off_c, 1, 59, 0
3, 39840, Note_on_c, 1, 55, 94
3, 39916, Note_off_c, 1, 55, 0
3, 40032, Note_on_c, 1, 55, 94
3, 40108, Note_off_c, 1, 55, 0
3, 40224, Note_on_c, 1, 55, 94
3, 40300, Note_off_c, 1, 55, 0
3, 40608, Note_on_c, 1, 53, 94
3, 40684, Note_off_c, 1, 53, 0
3, 40704, Note_on_c, 1, 55, 94
3, 40780, Note_off_c, 1, 55, 0
3, 40800, Note_on_c, 1, 59, 94
3, 40876, Note_off_c, 1, 59, 0
3, 41520, Note_on_c, 1, 40, 94
3, 41557, Note_off_c, 1, 40, 0
3, 41568, Note_on_c, 1, 44, 94
3, 41605, Note_off_c, 1, 44, 0
3, 41616, Note_on_c, 1, 47, 94
3, 41653, Note_off_c, 1, 47, 0
3, 41664, Note_on_c, 1, 52, 94
3, 41701, Note_off_c, 1, 52, 0
3, 41712, Note_on_c, 1, 56, 94
3, 41749, Note_off_c, 1, 56, 0
3, 41760, Note_on_c, 1, 59, 94
3, 41797, Note_off_c, 1, 59, 0
3, 41856, Note_on_c, 1, 52, 94
3, 42008, Note_off_c, 1, 52, 0
3, 42144, Note_on_c, 1, 56, 94
3, 42144, Note_on_c, 1, 52, 94
3, 42220, Note_off_c, 1, 52, 0
3, 42220, Note_off_c, 1, 56, 0
3, 42240, Note_on_c, 1, 57, 94
3, 42240, Note_on_c, 1, 45, 94
3, 42316, Note_off_c, 1, 45, 0
3, 42316, Note_off_c, 1, 57, 0
3, 43056, Note_on_c, 1, 38, 94
3, 43093, Note_off_c, 1, 38, 0
3, 43104, Note_on_c, 1, 42, 94
3, 43141, Note_off_c, 1, 42, 0
3, 43152, Note_on_c, 1, 45, 94
3, 43189, Note_off_c, 1, 45, 0
3, 43200, Note_on_c, 1, 50, 94
3, 43237, Note_off_c, 1, 50, 0
3, 43248, Note_on_c, 1, 54, 94
3, 43285, Note_off_c, 1, 54, 0
3, 43296, Note_on_c, 1, 57, 94
3, 43333, Note_off_c, 1, 57, 0
3, 43392, Note_on_c, 1, 50, 94
3, 43544, Note_off_c, 1, 50, 0
3, 43680, Note_on_c, 1, 54, 94
3, 43680, Note_on_c, 1, 50, 94
3, 43756, Note_off_c, 1, 50, 0
3, 43756, Note_off_c, 1, 54, 0
3, 43776, Note_on_c, 1, 55, 52
3, 43813, Note_off_c, 1, 55, 0
3, 43968, Note_on_c, 1, 59, 52
3, 44005, Note_off_c, 1, 59, 0
3, 44544, Note_on_c, 1, 59, 52
3, 44581, Note_off_c, 1, 59, 0
3, 44736, Note_on_c, 1, 59, 52
3, 44773, Note_off_c, 1, 59, 0
3, 45312, Note_on_c, 1, 59, 52
3, 45464, Note_off_c, 1, 59, 0
3, 50112, Note_on_c, 1, 59, 94
3, 50188, Note_off_c, 1, 59, 0
3, 50496, Note_on_c, 1, 59, 94
3, 50572, Note_off_c, 1, 59, 0
3, 51456, Note_on_c, 1, 50, 94
3, 51493, Note_off_c, 1, 50, 0
3, 51504, Note_on_c, 1, 59, 94
3, 51541, Note_off_c, 1, 59, 0
3, 51552, Note_on_c, 1, 55, 94
3, 51589, Note_off_c, 1, 55, 0
3, 51600, Note_on_c, 1, 59, 94
3, 51637, Note_off_c, 1, 59, 0
3, 51648, Note_on_c, 1, 50, 94
3, 51685, Note_off_c, 1, 50, 0
3, 51696, Note_on_c, 1, 59, 94
3, 51733, Note_off_c, 1, 59, 0
3, 51744, Note_on_c, 1, 55, 94
3, 51781, Note_off_c, 1, 55, 0
3, 51792, Note_on_c, 1, 59, 94
3, 51829, Note_off_c, 1, 59, 0
3, 51840, Note_on_c, 1, 50, 94
3, 51877, Note_off_c, 1, 50, 0
3, 51936, Note_on_c, 1, 54, 94
3, 51973, Note_off_c, 1, 54, 0
3, 52032, Note_on_c, 1, 50, 94
3, 52069, Note_off_c, 1, 50, 0
3, 52128, Note_on_c, 1, 54, 94
3, 52165, Note_off_c, 1, 54, 0
3, 52224, Note_on_c, 1, 55, 94
3, 52261, Note_off_c, 1, 55, 0
3, 52320, Note_on_c, 1, 59, 94
3, 52357, Note_off_c, 1, 59, 0
3, 52416, Note_on_c, 1, 55, 94
3, 52492, Note_off_c, 1, 55, 0
3, 52608, Note_on_c, 1, 54, 94
3, 52645, Note_off_c, 1, 54, 0
3, 52704, Note_on_c, 1, 57, 94
3, 52741, Note_off_c, 1, 57, 0
3, 52800, Note_on_c, 1, 54, 94
3, 52876, Note_off_c, 1, 54, 0
3, 52992, Note_on_c, 1, 55, 94
3, 53029, Note_off_c, 1, 55, 0
3, 53088, Note_on_c, 1, 59, 94
3, 53125, Note_off_c, 1, 59, 0
3, 53184, Note_on_c, 1, 55, 94
3, 53260, Note_off_c, 1, 55, 0
3, 53376, Note_on_c, 1, 48, 94
3, 53376, Note_on_c, 1, 57, 94
3, 53376, Note_on_c, 1, 52, 94
3, 53528, Note_off_c, 1, 52, 0
3, 53528, Note_off_c, 1, 57, 0
3, 53528, Note_off_c, 1, 48, 0
3, 53568, Note_on_c, 1, 50, 94
3, 53568, Note_on_c, 1, 57, 94
3, 53720, Note_off_c, 1, 57, 0
3, 53720, Note_off_c, 1, 50, 0
3, 53760, Note_on_c, 1, 55, 94
3, 53760, Note_on_c, 1, 59, 94
3, 53836, Note_off_c, 1, 59, 0
3, 53836, Note_off_c, 1, 55, 0
3, 53952, Note_on_c, 1, 43, 94
3, 53989, Note_off_c, 1, 43, 0
3, 54000, Note_on_c, 1, 55, 94
3, 54037, Note_off_c, 1, 55, 0
3, 54048, Note_on_c, 1, 54, 94
3, 54085, Note_off_c, 1, 54, 0
3, 54096, Note_on_c, 1, 55, 94
3, 54133, Note_off_c, 1, 55, 0
3, 54144, Note_on_c, 1, 54, 94
3, 54220, Note_off_c, 1, 54, 0
3, 54336, Note_on_c, 1, 42, 94
3, 54373, Note_off_c, 1, 42, 0
3, 54384, Note_on_c, 1, 54, 94
3, 54421, Note_off_c, 1, 54, 0
3, 54432, Note_on_c, 1, 52, 94
3, 54469, Note_off_c, 1, 52, 0
3, 54480, Note_on_c, 1, 54, 94
3, 54517, Note_off_c, 1, 54, 0
3, 54528, Note_on_c, 1, 55, 94
3, 54604, Note_off_c, 1, 55, 0
3, 54720, Note_on_c, 1, 43, 94
3, 54757, Note_off_c, 1, 43, 0
3, 54768, Note_on_c, 1, 55, 94
3, 54805, Note_off_c, 1, 55, 0
3, 54816, Note_on_c, 1, 54, 94
3, 54853, Note_off_c, 1, 54, 0
3, 54864, Note_on_c, 1, 55, 94
3, 54901, Note_off_c, 1, 55, 0
3, 54912, Note_on_c, 1, 57, 94
3, 54912, Note_on_c, 1, 48, 94
3, 54912, Note_on_c, 1, 52, 94
3, 55064, Note_off_c, 1, 52, 0
3, 55064, Note_off_c, 1, 48, 0
3, 55064, Note_off_c, 1, 57, 0
3, 55104, Note_on_c, 1, 57, 94
3, 55104, Note_on_c, 1, 50, 94
3, 55256, Note_off_c, 1, 50, 0
3, 55256, Note_off_c, 1, 57, 0
3, 55296, Note_on_c, 1, 55, 94
3, 55296, Note_on_c, 1, 59, 94
3, 55448, Note_off_c, 1, 59, 0
3, 55448, Note_off_c, 1, 55, 0
3, 56256, Note_on_c, 1, 57, 94
3, 56256, Note_on_c, 1, 45, 94
3, 56408, Note_off_c, 1, 45, 0
3, 56408, Note_off_c, 1, 57, 0
3, 56448, Note_on_c, 1, 42, 94
3, 56448, Note_on_c, 1, 54, 94
3, 56600, Note_off_c, 1, 54, 0
3, 56600, Note_off_c, 1, 42, 0
3, 56640, Note_on_c, 1, 38, 94
3, 56640, Note_on_c, 1, 50, 94
3, 56792, Note_off_c, 1, 50, 0
3, 56792, Note_off_c, 1, 38, 0
3, 56832, Note_on_c, 1, 57, 94
3, 56832, Note_on_c, 1, 43, 94
3, 56869, Note_off_c, 1, 43, 0
3, 56880, Note_on_c, 1, 55, 94
3, 56917, Note_off_c, 1, 55, 0
3, 56928, Note_on_c, 1, 54, 94
3, 56965, Note_off_c, 1, 54, 0
3, 56976, Note_on_c, 1, 55, 94
3, 57013, Note_off_c, 1, 55, 0
3, 57024, Note_on_c, 1, 54, 94
3, 57061, Note_off_c, 1, 54, 0
3, 57072, Note_on_c, 1, 55, 94
3, 57109, Note_off_c, 1, 55, 0
3, 57120, Note_on_c, 1, 54, 94
3, 57137, Note_off_c, 1, 57, 0
3, 57157, Note_off_c, 1, 54, 0
3, 57168, Note_on_c, 1, 55, 94
3, 57205, Note_off_c, 1, 55, 0
3, 57216, Note_on_c, 1, 55, 94
3, 57216, Note_on_c, 1, 59, 94
3, 57216, Note_on_c, 1, 43, 94
3, 57260, Note_off_c, 1, 59, 0
3, 57260, Note_off_c, 1, 55, 0
3, 57368, Note_off_c, 1, 43, 0
3, 58368, Note_on_c, 1, 43, 94
3, 58368, Note_on_c, 1, 58, 94
3, 58405, Note_off_c, 1, 43, 0
3, 58416, Note_on_c, 1, 55, 94
3, 58453, Note_off_c, 1, 55, 0
3, 58464, Note_on_c, 1, 54, 94
3, 58501, Note_off_c, 1, 54, 0
3, 58512, Note_on_c, 1, 55, 94
3, 58520, Note_off_c, 1, 58, 0
3, 58549, Note_off_c, 1, 55, 0
3, 58560, Note_on_c, 1, 43, 94
3, 58636, Note_off_c, 1, 43, 0
3, 59136, Note_on_c, 1, 43, 94
3, 59173, Note_off_c, 1, 43, 0
3, 59184, Note_on_c, 1, 55, 94
3, 59221, Note_off_c, 1, 55, 0
3, 59232, Note_on_c, 1, 54, 94
3, 59269, Note_off_c, 1, 54, 0
3, 59280, Note_on_c, 1, 55, 94
3, 59317, Note_off_c, 1, 55, 0
3, 59328, Note_on_c, 1, 43, 94
3, 59404, Note_off_c, 1, 43, 0
3, 59904, Note_on_c, 1, 41, 94
3, 59941, Note_off_c, 1, 41, 0
3, 59952, Note_on_c, 1, 53, 94
3, 59989, Note_off_c, 1, 53, 0
3, 60000, Note_on_c, 1, 52, 94
3, 60037, Note_off_c, 1, 52, 0
3, 60048, Note_on_c, 1, 53, 94
3, 60085, Note_off_c, 1, 53, 0
3, 60096, Note_on_c, 1, 41, 94
3, 60172, Note_off_c, 1, 41, 0
3, 60672, Note_on_c, 1, 41, 94
3, 60709, Note_off_c, 1, 41, 0
3, 60720, Note_on_c, 1, 53, 94
3, 60757, Note_off_c, 1, 53, 0
3, 60768, Note_on_c, 1, 52, 94
3, 60805, Note_off_c, 1, 52, 0
3, 60816, Note_on_c, 1, 53, 94
3, 60853, Note_off_c, 1, 53, 0
3, 60864, Note_on_c, 1, 41, 94
3, 60940, Note_off_c, 1, 41, 0
3, 61440, Note_on_c, 1, 40, 94
3, 61477, Note_off_c, 1, 40, 0
3, 61488, Note_on_c, 1, 52, 94
3, 61525, Note_off_c, 1, 52, 0
3, 61536, Note_on_c, 1, 50, 94
3, 61573, Note_off_c, 1, 50, 0
3, 61584, Note_on_c, 1, 52, 94
3, 61621, Note_off_c, 1, 52, 0
3, 61632, Note_on_c, 1, 40, 94
3, 61708, Note_off_c, 1, 40, 0
3, 62208, Note_on_c, 1, 38, 94
3, 62245, Note_off_c, 1, 38, 0
3, 62256, Note_on_c, 1, 50, 94
3, 62293, Note_off_c, 1, 50, 0
3, 62304, Note_on_c, 1, 49, 94
3, 62341, Note_off_c, 1, 49, 0
3, 62352, Note_on_c, 1, 50, 94
3, 62389, Note_off_c, 1, 50, 0
3, 62400, Note_on_c, 1, 38, 94
3, 62476, Note_off_c, 1, 38, 0
3, 62976, Note_on_c, 1, 40, 94
3, 62976, Note_on_c, 1, 52, 94
3, 63128, Note_off_c, 1, 52, 0
3, 63128, Note_off_c, 1, 40, 0
3, 63264, Note_on_c, 1, 56, 94
3, 63340, Note_off_c, 1, 56, 0
3, 63360, Note_on_c, 1, 57, 94
3, 63397, Note_off_c, 1, 57, 0
3, 63456, Note_on_c, 1, 55, 94
3, 63493, Note_off_c, 1, 55, 0
3, 63552, Note_on_c, 1, 54, 94
3, 63589, Note_off_c, 1, 54, 0
3, 63648, Note_on_c, 1, 51, 94
3, 63685, Note_off_c, 1, 51, 0
3, 63744, Note_on_c, 1, 50, 94
3, 63896, Note_off_c, 1, 50, 0
3, 64032, Note_on_c, 1, 54, 94
3, 64108, Note_off_c, 1, 54, 0
3, 64128, Note_on_c, 1, 55, 94
3, 64165, Note_off_c, 1, 55, 0
3, 64176, Note_on_c, 1, 58, 94
3, 64213, Note_off_c, 1, 58, 0
3, 64224, Note_on_c, 1, 53, 94
3, 64261, Note_off_c, 1, 53, 0
3, 64272, Note_on_c, 1, 58, 94
3, 64309, Note_off_c, 1, 58, 0
3, 64320, Note_on_c, 1, 52, 94
3, 64357, Note_off_c, 1, 52, 0
3, 64368, Note_on_c, 1, 58, 94
3, 64405, Note_off_c, 1, 58, 0
3, 64416, Note_on_c, 1, 50, 94
3, 64453, Note_off_c, 1, 50, 0
3, 64464, Note_on_c, 1, 58, 94
3, 64501, Note_off_c, 1, 58, 0
3, 64512, Note_on_c, 1, 48, 94
3, 64664, Note_off_c, 1, 48, 0
3, 64800, Note_on_c, 1, 52, 94
3, 64876, Note_off_c, 1, 52, 0
3, 64896, Note_on_c, 1, 53, 94
3, 64933, Note_off_c, 1, 53, 0
3, 64992, Note_on_c, 1, 58, 94
3, 65029, Note_off_c, 1, 58, 0
3, 65040, Note_on_c, 1, 57, 94
3, 65077, Note_off_c, 1, 57, 0
3, 65088, Note_on_c, 1, 58, 94
3, 65125, Note_off_c, 1, 58, 0
3, 67200, Note_on_c, 1, 59, 80
3, 67237, Note_off_c, 1, 59, 0
3, 67392, Note_on_c, 1, 59, 80
3, 67429, Note_off_c, 1, 59, 0
3, 67584, Note_on_c, 1, 57, 94
3, 67621, Note_off_c, 1, 57, 0
3, 67776, Note_on_c, 1, 57, 94
3, 67813, Note_off_c, 1, 57, 0
3, 67968, Note_on_c, 1, 55, 94
3, 68120, Note_off_c, 1, 55, 0
3, 68352, Note_on_c, 1, 43, 94
3, 68389, Note_off_c, 1, 43, 0
3, 68400, Note_on_c, 1, 55, 94
3, 68437, Note_off_c, 1, 55, 0
3, 68448, Note_on_c, 1, 54, 94
3, 68485, Note_off_c, 1, 54, 0
3, 68496, Note_on_c, 1, 55, 94
3, 68533, Note_off_c, 1, 55, 0
3, 68544, Note_on_c, 1, 57, 94
3, 68581, Note_off_c, 1, 57, 0
3, 68592, Note_on_c, 1, 55, 94
3, 68629, Note_off_c, 1, 55, 0
3, 68640, Note_on_c, 1, 54, 94
3, 68677, Note_off_c, 1, 54, 0
3, 68688, Note_on_c, 1, 55, 94
3, 68725, Note_off_c, 1, 55, 0
3, 68736, Note_on_c, 1, 43, 94
3, 68888, Note_off_c, 1, 43, 0
3, 69120, Note_on_c, 1, 43, 94
3, 69157, Note_off_c, 1, 43, 0
3, 69168, Note_on_c, 1, 55, 94
3, 69205, Note_off_c, 1, 55, 0
3, 69216, Note_on_c, 1, 54, 94
3, 69253, Note_off_c, 1, 54, 0
3, 69264, Note_on_c, 1, 55, 94
3, 69301, Note_off_c, 1, 55, 0
3, 69312, Note_on_c, 1, 57, 94
3, 69349, Note_off_c, 1, 57, 0
3, 69360, Note_on_c, 1, 55, 94
3, 69397, Note_off_c, 1, 55, 0
3, 69408, Note_on_c, 1, 54, 94
3, 69445, Note_off_c, 1, 54, 0
3, 69456, Note_on_c, 1, 55, 94
3, 69493, Note_off_c, 1, 55, 0
3, 69504, Note_on_c, 1, 43, 94
3, 69656, Note_off_c, 1, 43, 0
3, 69888, Note_on_c, 1, 55, 80
3, 69925, Note_off_c, 1, 55, 0
3, 70272, Note_on_c, 1, 55, 80
3, 70424, Note_off_c, 1, 55, 0
3, 70656, Note_on_c, 1, 55, 94
3, 70693, Note_off_c, 1, 55, 0
3, 71040, Note_on_c, 1, 55, 94
3, 71192, Note_off_c, 1, 55, 0
3, 71472, Note_on_c, 1, 55, 94
3, 71509, Note_off_c, 1, 55, 0
3, 71520, Note_on_c, 1, 54, 94
3, 71557, Note_off_c, 1, 54, 0
3, 71568, Note_on_c, 1, 55, 94
3, 71605, Note_off_c, 1, 55, 0
3, 71664, Note_on_c, 1, 55, 94
3, 71701, Note_off_c, 1, 55, 0
3, 71712, Note_on_c, 1, 52, 94
3, 71749, Note_off_c, 1, 52, 0
3, 71760, Note_on_c, 1, 48, 94
3, 71797, Note_off_c, 1, 48, 0
3, 71808, Note_on_c, 1, 43, 94
3, 71856, Note_on_c, 1, 55, 94
3, 71893, Note_off_c, 1, 55, 0
3, 71904, Note_on_c, 1, 57, 94
3, 71941, Note_off_c, 1, 57, 0
3, 71952, Note_on_c, 1, 59, 94
3, 71960, Note_off_c, 1, 43, 0
3, 71989, Note_off_c, 1, 59, 0
3, 72960, Note_on_c, 1, 48, 94
3, 72997, Note_off_c, 1, 48, 0
3, 73056, Note_on_c, 1, 59, 94
3, 73093, Note_off_c, 1, 59, 0
3, 73152, Note_on_c, 1, 48, 94
3, 73228, Note_off_c, 1, 48, 0
3, 73728, Note_on_c, 1, 53, 94
3, 73728, Note_on_c, 1, 41, 94
3, 73880, Note_off_c, 1, 41, 0
3, 73880, Note_off_c, 1, 53, 0
3, 74208, Note_on_c, 1, 52, 94
3, 74284, Note_off_c, 1, 52, 0
3, 74304, Note_on_c, 1, 53, 94
3, 74380, Note_off_c, 1, 53, 0
3, 74400, Note_on_c, 1, 55, 94
3, 74476, Note_off_c, 1, 55, 0
3, 74496, Note_on_c, 1, 48, 94
3, 74533, Note_off_c, 1, 48, 0
3, 74592, Note_on_c, 1, 59, 94
3, 74629, Note_off_c, 1, 59, 0
3, 74688, Note_on_c, 1, 48, 94
3, 74764, Note_off_c, 1, 48, 0
3, 75264, Note_on_c, 1, 53, 94
3, 75264, Note_on_c, 1, 41, 94
3, 75416, Note_off_c, 1, 41, 0
3, 75416, Note_off_c, 1, 53, 0
3, 75744, Note_on_c, 1, 52, 94
3, 75820, Note_off_c, 1, 52, 0
3, 75840, Note_on_c, 1, 53, 94
3, 75916, Note_off_c, 1, 53, 0
3, 75936, Note_on_c, 1, 55, 94
3, 76012, Note_off_c, 1, 55, 0
3, 76416, Note_on_c, 1, 58, 94
3, 76453, Note_off_c, 1, 58, 0
3, 76608, Note_on_c, 1, 58, 94
3, 76645, Note_off_c, 1, 58, 0
3, 76800, Note_on_c, 1, 58, 94
3, 76837, Note_off_c, 1, 58, 0
3, 76992, Note_on_c, 1, 58, 94
3, 77029, Note_off_c, 1, 58, 0
3, 77184, Note_on_c, 1, 57, 94
3, 77221, Note_off_c, 1, 57, 0
3, 77376, Note_on_c, 1, 57, 94
3, 77413, Note_off_c, 1, 57, 0
3, 77568, Note_on_c, 1, 57, 52
3, 77605, Note_off_c, 1, 57, 0
3, 77760, Note_on_c, 1, 57, 52
3, 77797, Note_off_c, 1, 57, 0
3, 77952, Note_on_c, 1, 55, 52
3, 77989, Note_off_c, 1, 55, 0
3, 78048, Note_on_c, 1, 58, 52
3, 78085, Note_off_c, 1, 58, 0
3, 78144, Note_on_c, 1, 55, 52
3, 78181, Note_off_c, 1, 55, 0
3, 78240, Note_on_c, 1, 58, 52
3, 78277, Note_off_c, 1, 58, 0
3, 78336, Note_on_c, 1, 55, 94
3, 78373, Note_off_c, 1, 55, 0
3, 78528, Note_on_c, 1, 55, 94
3, 78565, Note_off_c, 1, 55, 0
3, 78720, Note_on_c, 1, 53, 94
3, 78757, Note_off_c, 1, 53, 0
3, 78816, Note_on_c, 1, 56, 94
3, 78853, Note_off_c, 1, 56, 0
3, 78912, Note_on_c, 1, 53, 94
3, 78949, Note_off_c, 1, 53, 0
3, 79008, Note_on_c, 1, 56, 94
3, 79045, Note_off_c, 1, 56, 0
3, 79104, Note_on_c, 1, 52, 94
3, 79141, Note_off_c, 1, 52, 0
3, 79200, Note_on_c, 1, 55, 94
3, 79237, Note_off_c, 1, 55, 0
3, 79296, Note_on_c, 1, 51, 94
3, 79333, Note_off_c, 1, 51, 0
3, 79392, Note_on_c, 1, 55, 94
3, 79429, Note_off_c, 1, 55, 0
3, 79488, Note_on_c, 1, 50, 94
3, 79525, Note_off_c, 1, 50, 0
3, 79584, Note_on_c, 1, 57, 94
3, 79621, Note_off_c, 1, 57, 0
3, 79680, Note_on_c, 1, 47, 94
3, 79717, Note_off_c, 1, 47, 0
3, 79728, Note_on_c, 1, 55, 94
3, 79765, Note_off_c, 1, 55, 0
3, 79776, Note_on_c, 1, 50, 94
3, 79813, Note_off_c, 1, 50, 0
3, 79824, Note_on_c, 1, 55, 94
3, 79861, Note_off_c, 1, 55, 0
3, 79872, Note_on_c, 1, 48, 94
3, 79909, Note_off_c, 1, 48, 0
3, 79968, Note_on_c, 1, 55, 94
3, 80005, Note_off_c, 1, 55, 0
3, 80064, Note_on_c, 1, 54, 94
3, 80101, Note_off_c, 1, 54, 0
3, 80160, Note_on_c, 1, 57, 94
3, 80197, Note_off_c, 1, 57, 0
3, 80256, Note_on_c, 1, 55, 94
3, 80293, Note_off_c, 1, 55, 0
3, 80304, Note_on_c, 1, 55, 94
3, 80341, Note_off_c, 1, 55, 0
3, 80352, Note_on_c, 1, 54, 94
3, 80389, Note_off_c, 1, 54, 0
3, 80400, Note_on_c, 1, 55, 94
3, 80437, Note_off_c, 1, 55, 0
3, 80448, Note_on_c, 1, 42, 94
3, 80485, Note_off_c, 1, 42, 0
3, 80496, Note_on_c, 1, 43, 94
3, 80533, Note_off_c, 1, 43, 0
3, 80544, Note_on_c, 1, 42, 94
3, 80581, Note_off_c, 1, 42, 0
3, 80592, Note_on_c, 1, 43, 94
3, 80629, Note_off_c, 1, 43, 0
3, 80640, Note_on_c, 1, 31, 52
3, 80792, Note_off_c, 1, 31, 0
3, 81024, Note_on_c, 1, 54, 52
3, 81061, Note_off_c, 1, 54, 0
3, 81072, Note_on_c, 1, 55, 52
3, 81109, Note_off_c, 1, 55, 0
3, 81120, Note_on_c, 1, 54, 52
3, 81157, Note_off_c, 1, 54, 0
3, 81168, Note_on_c, 1, 55, 52
3, 81205, Note_off_c, 1, 55, 0
3, 81216, Note_on_c, 1, 42, 52
3, 81253, Note_off_c, 1, 42, 0
3, 81264, Note_on_c, 1, 43, 52
3, 81301, Note_off_c, 1, 43, 0
3, 81312, Note_on_c, 1, 42, 52
3, 81349, Note_off_c, 1, 42, 0
3, 81360, Note_on_c, 1, 43, 52
3, 81397, Note_off_c, 1, 43, 0
3, 81408, Note_on_c, 1, 31, 52
3, 81560, Note_off_c, 1, 31, 0
3, 81696, Note_on_c, 1, 57, 52
3, 81713, Note_off_c, 1, 57, 0
3, 81792, Note_on_c, 1, 59, 52
3, 81944, Note_off_c, 1, 59, 0
3, 82608, Note_on_c, 1, 33, 52
3, 82645, Note_off_c, 1, 33, 0
3, 82656, Note_on_c, 1, 37, 52
3, 82693, Note_off_c, 1, 37, 0
3, 82704, Note_on_c, 1, 40, 52
3, 82741, Note_off_c, 1, 40, 0
3, 82752, Note_on_c, 1, 45, 52
3, 82789, Note_off_c, 1, 45, 0
3, 82800, Note_on_c, 1, 49, 52
3, 82837, Note_off_c, 1, 49, 0
3, 82848, Note_on_c, 1, 52, 52
3, 82885, Note_off_c, 1, 52, 0
3, 82896, Note_on_c, 1, 57, 52
3, 82933, Note_off_c, 1, 57, 0
3, 82944, Note_on_c, 1, 57, 94
3, 83096, Note_off_c, 1, 57, 0
3, 83328, Note_on_c, 1, 57, 94
3, 83328, Note_on_c, 1, 45, 94
3, 83480, Note_off_c, 1, 45, 0
3, 83480, Note_off_c, 1, 57, 0
3, 83616, Note_on_c, 1, 57, 94
3, 83692, Note_off_c, 1, 57, 0
3, 83712, Note_on_c, 1, 50, 94
3, 83864, Note_off_c, 1, 50, 0
3, 84528, Note_on_c, 1, 43, 94
3, 84565, Note_off_c, 1, 43, 0
3, 84576, Note_on_c, 1, 47, 94
3, 84613, Note_off_c, 1, 47, 0
3, 84624, Note_on_c, 1, 50, 94
3, 84661, Note_off_c, 1, 50, 0
3, 84672, Note_on_c, 1, 55, 94
3, 84709, Note_off_c, 1, 55, 0
3, 84720, Note_on_c, 1, 59, 94
3, 84757, Note_off_c, 1, 59, 0
3, 84864, Note_on_c, 1, 55, 94
3, 85016, Note_off_c, 1, 55, 0
3, 85248, Note_on_c, 1, 55, 94
3, 85248, Note_on_c, 1, 43, 94
3, 85400, Note_off_c, 1, 43, 0
3, 85400, Note_off_c, 1, 55, 0
3, 85536, Note_on_c, 1, 55, 94
3, 85536, Note_on_c, 1, 59, 94
3, 85612, Note_off_c, 1, 59, 0
3, 85612, Note_off_c, 1, 55, 0
3, 88224, Note_on_c, 1, 48, 94
3, 88300, Note_off_c, 1, 48, 0
3, 88320, Note_on_c, 1, 45, 94
3, 88472, Note_off_c, 1, 45, 0
3, 88704, Note_on_c, 1, 55, 94
3, 88741, Note_off_c, 1, 55, 0
3, 88896, Note_on_c, 1, 48, 94
3, 88933, Note_off_c, 1, 48, 0
3, 88992, Note_on_c, 1, 59, 94
3, 89029, Note_off_c, 1, 59, 0
3, 89088, Note_on_c, 1, 53, 52
3, 89125, Note_off_c, 1, 53, 0
3, 89184, Note_on_c, 1, 59, 52
3, 89221, Note_off_c, 1, 59, 0
3, 89280, Note_on_c, 1, 53, 52
3, 89317, Note_off_c, 1, 53, 0
3, 89376, Note_on_c, 1, 59, 52
3, 89413, Note_off_c, 1, 59, 0
3, 89472, Note_on_c, 1, 52, 52
3, 89509, Note_off_c, 1, 52, 0
3, 89568, Note_on_c, 1, 59, 52
3, 89605, Note_off_c, 1, 59, 0
3, 89664, Note_on_c, 1, 48, 52
3, 89701, Note_off_c, 1, 48, 0
3, 89760, Note_on_c, 1, 59, 52
3, 89797, Note_off_c, 1, 59, 0
3, 89856, Note_on_c, 1, 53, 52
3, 89893, Note_off_c, 1, 53, 0
3, 89952, Note_on_c, 1, 59, 52
3, 89989, Note_off_c, 1, 59, 0
3, 90048, Note_on_c, 1, 53, 52
3, 90085, Note_off_c, 1, 53, 0
3, 90144, Note_on_c, 1, 59, 52
3, 90181, Note_off_c, 1, 59, 0
3, 90240, Note_on_c, 1, 52, 52
3, 90392, Note_off_c, 1, 52, 0
3, 90912, Note_on_c, 1, 59, 94
3, 90988, Note_off_c, 1, 59, 0
3, 91296, Note_on_c, 1, 57, 94
3, 91372, Note_off_c, 1, 57, 0
3, 91392, Note_on_c, 1, 41, 94
3, 91429, Note_off_c, 1, 41, 0
3, 91440, Note_on_c, 1, 45, 94
3, 91477, Note_off_c, 1, 45, 0
3, 91488, Note_on_c, 1, 50, 94
3, 91525, Note_off_c, 1, 50, 0
3, 91536, Note_on_c, 1, 53, 94
3, 91573, Note_off_c, 1, 53, 0
3, 91776, Note_on_c, 1, 43, 94
3, 91813, Note_off_c, 1, 43, 0
3, 91824, Note_on_c, 1, 47, 94
3, 91861, Note_off_c, 1, 47, 0
3, 91872, Note_on_c, 1, 52, 94
3, 91909, Note_off_c, 1, 52, 0
3, 91920, Note_on_c, 1, 55, 94
3, 91957, Note_off_c, 1, 55, 0
3, 92160, Note_on_c, 1, 45, 94
3, 92197, Note_off_c, 1, 45, 0
3, 92208, Note_on_c, 1, 48, 94
3, 92245, Note_off_c, 1, 48, 0
3, 92256, Note_on_c, 1, 53, 94
3, 92293, Note_off_c, 1, 53, 0
3, 92304, Note_on_c, 1, 57, 94
3, 92341, Note_off_c, 1, 57, 0
3, 92544, Note_on_c, 1, 47, 94
3, 92581, Note_off_c, 1, 47, 0
3, 92592, Note_on_c, 1, 50, 94
3, 92629, Note_off_c, 1, 50, 0
3, 92640, Note_on_c, 1, 55, 94
3, 92677, Note_off_c, 1, 55, 0
3, 92688, Note_on_c, 1, 59, 94
3, 92725, Note_off_c, 1, 59, 0
3, 93168, Note_on_c, 1, 59, 94
3, 93205, Note_off_c, 1, 59, 0
3, 93216, Note_on_c, 1, 55, 94
3, 93253, Note_off_c, 1, 55, 0
3, 93264, Note_on_c, 1, 53, 94
3, 93301, Note_off_c, 1, 53, 0
3, 93312, Note_on_c, 1, 52, 94
3, 93388, Note_off_c, 1, 52, 0
3, 93408, Note_on_c, 1, 55, 94
3, 93484, Note_off_c, 1, 55, 0
3, 93504, Note_on_c, 1, 59, 94
3, 93580, Note_off_c, 1, 59, 0
3, 93600, Note_on_c, 1, 55, 94
3, 93676, Note_off_c, 1, 55, 0
3, 93792, Note_on_c, 1, 55, 94
3, 93868, Note_off_c, 1, 55, 0
3, 93984, Note_on_c, 1, 55, 94
3, 94060, Note_off_c, 1, 55, 0
3, 94368, Note_on_c, 1, 53, 94
3, 94444, Note_off_c, 1, 53, 0
3, 94464, Note_on_c, 1, 55, 94
3, 94540, Note_off_c, 1, 55, 0
3, 94560, Note_on_c, 1, 59, 94
3, 94636, Note_off_c, 1, 59, 0
3, 98304, Note_on_c, 1, 55, 94
3, 98341, Note_off_c, 1, 55, 0
3, 98496, Note_on_c, 1, 55, 94
3, 98533, Note_off_c, 1, 55, 0
3, 98688, Note_on_c, 1, 55, 94
3, 98725, Note_off_c, 1, 55, 0
3, 98880, Note_on_c, 1, 55, 94
3, 98917, Note_off_c, 1, 55, 0
3, 99456, Note_on_c, 1, 59, 94
3, 99493, Note_off_c, 1, 59, 0
3, 99648, Note_on_c, 1, 59, 94
3, 99724, Note_off_c, 1, 59, 0
3, 100224, Note_on_c, 1, 53, 94
3, 100224, Note_on_c, 1, 57, 94
3, 100376, Note_off_c, 1, 57, 0
3, 100376, Note_off_c, 1, 53, 0
3, 100416, Note_on_c, 1, 55, 94
3, 100568, Note_off_c, 1, 55, 0
3, 100800, Note_on_c, 1, 36, 94
3, 100837, Note_off_c, 1, 36, 0
3, 100848, Note_on_c, 1, 48, 94
3, 100885, Note_off_c, 1, 48, 0
3, 100896, Note_on_c, 1, 47, 94
3, 100933, Note_off_c, 1, 47, 0
3, 100944, Note_on_c, 1, 48, 94
3, 100981, Note_off_c, 1, 48, 0
3, 100992, Note_on_c, 1, 47, 94
3, 101068, Note_off_c, 1, 47, 0
3, 101184, Note_on_c, 1, 47, 94
3, 101221, Note_off_c, 1, 47, 0
3, 101232, Note_on_c, 1, 59, 94
3, 101269, Note_off_c, 1, 59, 0
3, 101280, Note_on_c, 1, 57, 94
3, 101317, Note_off_c, 1, 57, 0
3, 101328, Note_on_c, 1, 59, 94
3, 101365, Note_off_c, 1, 59, 0
3, 101568, Note_on_c, 1, 36, 94
3, 101605, Note_off_c, 1, 36, 0
3, 101616, Note_on_c, 1, 48, 94
3, 101653, Note_off_c, 1, 48, 0
3, 101664, Note_on_c, 1, 47, 94
3, 101701, Note_off_c, 1, 47, 0
3, 101712, Note_on_c, 1, 48, 94
3, 101749, Note_off_c, 1, 48, 0
3, 101760, Note_on_c, 1, 45, 94
3, 101760, Note_on_c, 1, 50, 94
3, 101760, Note_on_c, 1, 41, 94
3, 101912, Note_off_c, 1, 41, 0
3, 101912, Note_off_c, 1, 50, 0
3, 101912, Note_off_c, 1, 45, 0
3, 101952, Note_on_c, 1, 53, 94
3, 101952, Note_on_c, 1, 50, 94
3, 101952, Note_on_c, 1, 43, 94
3, 102096, Note_on_c, 1, 59, 94
3, 102104, Note_off_c, 1, 43, 0
3, 102104, Note_off_c, 1, 50, 0
3, 102104, Note_off_c, 1, 53, 0
3, 102133, Note_off_c, 1, 59, 0
3, 102144, Note_on_c, 1, 52, 94
3, 102144, Note_on_c, 1, 48, 94
3, 102296, Note_off_c, 1, 48, 0
3, 102296, Note_off_c, 1, 52, 0
3, 102720, Note_on_c, 1, 59, 94
3, 102757, Note_off_c, 1, 59, 0
3, 102768, Note_on_c, 1, 57, 94
3, 102805, Note_off_c, 1, 57, 0
3, 102816, Note_on_c, 1, 55, 94
3, 102853, Note_off_c, 1, 55, 0
3, 102864, Note_on_c, 1, 54, 94
3, 102901, Note_off_c, 1, 54, 0
3, 102912, Note_on_c, 1, 53, 94
3, 103104, Note_on_c, 1, 38, 94
3, 103104, Note_on_c, 1, 50, 94
3, 103256, Note_off_c, 1, 50, 0
3, 103256, Note_off_c, 1, 38, 0
3, 103296, Note_on_c, 1, 35, 94
3, 103296, Note_on_c, 1, 47, 94
3, 103333, Note_off_c, 1, 53, 0
3, 103344, Note_on_c, 1, 55, 94
3, 103381, Note_off_c, 1, 55, 0
3, 103392, Note_on_c, 1, 57, 94
3, 103429, Note_off_c, 1, 57, 0
3, 103440, Note_on_c, 1, 55, 94
3, 103448, Note_off_c, 1, 35, 0
3, 103448, Note_off_c, 1, 47, 0
3, 103476, Note_on_c, 1, 59, 94
3, 103477, Note_off_c, 1, 55, 0
3, 103488, Note_off_c, 1, 59, 0
3, 103488, Note_on_c, 1, 57, 94
3, 103488, Note_on_c, 1, 31, 94
3, 103488, Note_on_c, 1, 43, 94
3, 103564, Note_off_c, 1, 57, 0
3, 103584, Note_on_c, 1, 55, 94
3, 103621, Note_off_c, 1, 55, 0
3, 103632, Note_on_c, 1, 53, 94
3, 103640, Note_off_c, 1, 31, 0
3, 103640, Note_off_c, 1, 43, 0
3, 103669, Note_off_c, 1, 53, 0
3, 103680, Note_on_c, 1, 36, 94
3, 103680, Note_on_c, 1, 50, 94
3, 103680, Note_on_c, 1, 53, 94
3, 103717, Note_off_c, 1, 36, 0
3, 103728, Note_on_c, 1, 48, 94
3, 103765, Note_off_c, 1, 48, 0
3, 103776, Note_on_c, 1, 47, 94
3, 103813, Note_off_c, 1, 47, 0
3, 103824, Note_on_c, 1, 48, 94
3, 103861, Note_off_c, 1, 48, 0
3, 103872, Note_on_c, 1, 47, 94
3, 103909, Note_off_c, 1, 47, 0
3, 103920, Note_on_c, 1, 48, 94
3, 103957, Note_off_c, 1, 48, 0
3, 103968, Note_on_c, 1, 47, 94
3, 103985, Note_off_c, 1, 50, 0
3, 103985, Note_off_c, 1, 53, 0
3, 104005, Note_off_c, 1, 47, 0
3, 104016, Note_on_c, 1, 48, 94
3, 104053, Note_off_c, 1, 48, 0
3, 104064, Note_on_c, 1, 36, 94
3, 104064, Note_on_c, 1, 48, 94
3, 104064, Note_on_c, 1, 52, 94
3, 104101, Note_off_c, 1, 52, 0
3, 104101, Note_off_c, 1, 48, 0
3, 104160, Note_on_c, 1, 59, 94
3, 104197, Note_off_c, 1, 59, 0
3, 104216, Note_off_c, 1, 36, 0
3, 104256, Note_on_c, 1, 55, 94
3, 104293, Note_off_c, 1, 55, 0
3, 105216, Note_on_c, 1, 48, 94
3, 105253, Note_off_c, 1, 48, 0
3, 105408, Note_on_c, 1, 55, 94
3, 105445, Note_off_c, 1, 55, 0
3, 105504, Note_on_c, 1, 52, 94
3, 105541, Note_off_c, 1, 52, 0
3, 105552, Note_on_c, 1, 55, 94
3, 105589, Note_off_c, 1, 55, 0
3, 105600, Note_on_c, 1, 48, 94
3, 105752, Note_off_c, 1, 48, 0
3, 105752, End_track
4, 0, Start_track
4, 0, Title_t, "Piano Sonata no.1 mov.1"
4, 0, Channel_prefix, 2
4, 0, Control_c, 2, 7, 0
4, 0, Program_c, 2, 0
4, 0, End_track
5, 0, Start_track
5, 0, Title_t, "Wolfgang Amadeus Mozart"
5, 0, Channel_prefix, 3
5, 0, Control_c, 3, 7, 100
5, 0, Program_c, 3, 0
5, 0, End_track
6, 0, Start_track
6, 0, Title_t, "Sequenced by Dan Szymborski"
6, 0, Channel_prefix, 4
6, 0, Control_c, 4, 7, 100
6, 0, Program_c, 4, 0
6, 0, End_track
0, 0, End_of_file
