0, 0, Header, 1, 5, 240
1, 0, Start_track
1, 0, Time_signature, 4, 2, 24, 8
1, 0, Key_signature, 0, "major"
1, 0, Tempo, 476190
1, 5040, Tempo, 487805
1, 5280, Tempo, 495868
1, 5520, Tempo, 508475
1, 5760, Tempo, 476190
1, 7920, Tempo, 508475
1, 8160, Tempo, 540541
1, 8400, Tempo, 582524
1, 8640, Tempo, 476190
1, 14400, Tempo, 517241
1, 14640, Tempo, 504202
1, 14880, Tempo, 495868
1, 15120, Tempo, 483871
1, 15360, Tempo, 476190
1, 42480, Tempo, 487805
1, 42720, Tempo, 495868
1, 42960, Tempo, 508475
1, 43200, Tempo, 476190
1, 76080, Tempo, 508475
1, 76320, Tempo, 540541
1, 76560, Tempo, 582524
1, 76800, Tempo, 476190
1, 80880, Tempo, 487805
1, 81120, Tempo, 495868
1, 81360, Tempo, 508475
1, 81600, Tempo, 476190
1, 83760, Tempo, 495868
1, 84000, Tempo, 517241
1, 84240, Tempo, 540541
1, 84480, Tempo, 476190
1, 92400, Tempo, 487805
1, 92640, Tempo, 495868
1, 92880, Tempo, 508475
1, 93120, Tempo, 476190
1, 120240, Tempo, 487805
1, 120480, Tempo, 495868
1, 120720, Tempo, 508475
1, 120960, Tempo, 476190
1, 127920, Tempo, 517241
1, 128160, Tempo, 566038
1, 128400, Tempo, 625000
1, 128640, Tempo, 697674
1, 128640, End_track
2, 0, Start_track
2, 0, MIDI_port, 0
2, 0, Title_t, "Piano Sonata no.14 in a, K.310"
2, 0, Program_c, 0, 0
2, 0, Control_c, 0, 7, 127
2, 0, Control_c, 0, 10, 72
2, 960, Note_on_c, 0, 75, 80
2, 1020, Note_on_c, 0, 75, 0
2, 1020, Note_on_c, 0, 76, 80
2, 1110, Note_on_c, 0, 76, 0
2, 1200, Note_on_c, 0, 76, 80
2, 1380, Note_on_c, 0, 76, 0
2, 1380, Note_on_c, 0, 76, 84
2, 1440, Note_on_c, 0, 76, 0
2, 1440, Note_on_c, 0, 76, 88
2, 1680, Note_on_c, 0, 76, 0
2, 1680, Note_on_c, 0, 72, 80
2, 1860, Note_on_c, 0, 72, 0
2, 1860, Note_on_c, 0, 69, 80
2, 1920, Note_on_c, 0, 69, 0
2, 1920, Note_on_c, 0, 69, 80
2, 2040, Note_on_c, 0, 69, 0
2, 2040, Note_on_c, 0, 68, 80
2, 2112, Note_on_c, 0, 68, 0
2, 2160, Note_on_c, 0, 68, 80
2, 2640, Note_on_c, 0, 68, 0
2, 2640, Note_on_c, 0, 74, 80
2, 2820, Note_on_c, 0, 74, 0
2, 2820, Note_on_c, 0, 71, 80
2, 2880, Note_on_c, 0, 71, 0
2, 2880, Note_on_c, 0, 76, 80
2, 3120, Note_on_c, 0, 76, 0
2, 3120, Note_on_c, 0, 76, 84
2, 3300, Note_on_c, 0, 76, 0
2, 3300, Note_on_c, 0, 76, 88
2, 3360, Note_on_c, 0, 76, 0
2, 3360, Note_on_c, 0, 76, 92
2, 3480, Note_on_c, 0, 76, 0
2, 3480, Note_on_c, 0, 77, 80
2, 3540, Note_on_c, 0, 77, 0
2, 3540, Note_on_c, 0, 76, 80
2, 3600, Note_on_c, 0, 76, 0
2, 3600, Note_on_c, 0, 74, 80
2, 3660, Note_on_c, 0, 74, 0
2, 3660, Note_on_c, 0, 72, 80
2, 3720, Note_on_c, 0, 72, 0
2, 3720, Note_on_c, 0, 71, 80
2, 3780, Note_on_c, 0, 71, 0
2, 3780, Note_on_c, 0, 69, 80
2, 3840, Note_on_c, 0, 69, 0
2, 3840, Note_on_c, 0, 69, 80
2, 3897, Note_on_c, 0, 69, 0
2, 3900, Note_on_c, 0, 68, 80
2, 4044, Note_on_c, 0, 68, 0
2, 4080, Note_on_c, 0, 68, 80
2, 4560, Note_on_c, 0, 68, 0
2, 4560, Note_on_c, 0, 74, 80
2, 4740, Note_on_c, 0, 74, 0
2, 4740, Note_on_c, 0, 71, 80
2, 4800, Note_on_c, 0, 71, 0
2, 4800, Note_on_c, 0, 72, 80
2, 4800, Note_on_c, 0, 76, 80
2, 4980, Note_on_c, 0, 76, 0
2, 4980, Note_on_c, 0, 72, 0
2, 4980, Note_on_c, 0, 69, 80
2, 4980, Note_on_c, 0, 72, 80
2, 5040, Note_on_c, 0, 72, 0
2, 5040, Note_on_c, 0, 69, 0
2, 5040, Note_on_c, 0, 72, 80
2, 5040, Note_on_c, 0, 76, 80
2, 5280, Note_on_c, 0, 76, 0
2, 5280, Note_on_c, 0, 72, 0
2, 5400, Note_on_c, 0, 69, 64
2, 5400, Note_on_c, 0, 72, 64
2, 5436, Note_on_c, 0, 72, 0
2, 5436, Note_on_c, 0, 69, 0
2, 5520, Note_on_c, 0, 71, 64
2, 5520, Note_on_c, 0, 74, 64
2, 5556, Note_on_c, 0, 74, 0
2, 5556, Note_on_c, 0, 71, 0
2, 5640, Note_on_c, 0, 72, 64
2, 5640, Note_on_c, 0, 76, 64
2, 5676, Note_on_c, 0, 76, 0
2, 5676, Note_on_c, 0, 72, 0
2, 5760, Note_on_c, 0, 73, 72
2, 5760, Note_on_c, 0, 76, 72
2, 6000, Note_on_c, 0, 76, 0
2, 6000, Note_on_c, 0, 73, 0
2, 6000, Note_on_c, 0, 74, 64
2, 6000, Note_on_c, 0, 77, 64
2, 6225, Note_on_c, 0, 77, 0
2, 6225, Note_on_c, 0, 74, 0
2, 6360, Note_on_c, 0, 67, 56
2, 6360, Note_on_c, 0, 71, 56
2, 6480, Note_on_c, 0, 71, 0
2, 6480, Note_on_c, 0, 67, 0
2, 6480, Note_on_c, 0, 69, 56
2, 6480, Note_on_c, 0, 72, 56
2, 6516, Note_on_c, 0, 72, 0
2, 6516, Note_on_c, 0, 69, 0
2, 6600, Note_on_c, 0, 71, 56
2, 6600, Note_on_c, 0, 74, 56
2, 6636, Note_on_c, 0, 74, 0
2, 6636, Note_on_c, 0, 71, 0
2, 6720, Note_on_c, 0, 71, 64
2, 6720, Note_on_c, 0, 75, 64
2, 6960, Note_on_c, 0, 75, 0
2, 6960, Note_on_c, 0, 71, 0
2, 6960, Note_on_c, 0, 72, 56
2, 6960, Note_on_c, 0, 76, 56
2, 7185, Note_on_c, 0, 76, 0
2, 7185, Note_on_c, 0, 72, 0
2, 7320, Note_on_c, 0, 65, 48
2, 7320, Note_on_c, 0, 69, 48
2, 7440, Note_on_c, 0, 69, 0
2, 7440, Note_on_c, 0, 65, 0
2, 7440, Note_on_c, 0, 68, 48
2, 7440, Note_on_c, 0, 71, 48
2, 7560, Note_on_c, 0, 71, 0
2, 7560, Note_on_c, 0, 68, 0
2, 7560, Note_on_c, 0, 69, 48
2, 7560, Note_on_c, 0, 72, 48
2, 7596, Note_on_c, 0, 72, 0
2, 7596, Note_on_c, 0, 69, 0
2, 7680, Note_on_c, 0, 72, 56
2, 7860, Note_on_c, 0, 72, 0
2, 7860, Note_on_c, 0, 71, 48
2, 7920, Note_on_c, 0, 71, 0
2, 7920, Note_on_c, 0, 77, 48
2, 8100, Note_on_c, 0, 77, 0
2, 8100, Note_on_c, 0, 74, 48
2, 8160, Note_on_c, 0, 74, 0
2, 8160, Note_on_c, 0, 72, 48
2, 8340, Note_on_c, 0, 72, 0
2, 8340, Note_on_c, 0, 76, 48
2, 8400, Note_on_c, 0, 76, 0
2, 8400, Note_on_c, 0, 74, 48
2, 8580, Note_on_c, 0, 74, 0
2, 8580, Note_on_c, 0, 71, 48
2, 8640, Note_on_c, 0, 71, 0
2, 8640, Note_on_c, 0, 75, 88
2, 8700, Note_on_c, 0, 75, 0
2, 8700, Note_on_c, 0, 76, 80
2, 8808, Note_on_c, 0, 76, 0
2, 8880, Note_on_c, 0, 76, 80
2, 9060, Note_on_c, 0, 76, 0
2, 9060, Note_on_c, 0, 76, 80
2, 9090, Note_on_c, 0, 76, 0
2, 9120, Note_on_c, 0, 76, 80
2, 9240, Note_on_c, 0, 76, 0
2, 9240, Note_on_c, 0, 77, 80
2, 9300, Note_on_c, 0, 77, 0
2, 9300, Note_on_c, 0, 76, 80
2, 9360, Note_on_c, 0, 76, 0
2, 9360, Note_on_c, 0, 74, 80
2, 9420, Note_on_c, 0, 74, 0
2, 9420, Note_on_c, 0, 72, 80
2, 9480, Note_on_c, 0, 72, 0
2, 9480, Note_on_c, 0, 71, 80
2, 9540, Note_on_c, 0, 71, 0
2, 9540, Note_on_c, 0, 69, 80
2, 9600, Note_on_c, 0, 69, 0
2, 9600, Note_on_c, 0, 69, 88
2, 9720, Note_on_c, 0, 69, 0
2, 9720, Note_on_c, 0, 68, 80
2, 9840, Note_on_c, 0, 68, 0
2, 9840, Note_on_c, 0, 68, 80
2, 10260, Note_on_c, 0, 68, 0
2, 10260, Note_on_c, 0, 68, 80
2, 10320, Note_on_c, 0, 68, 0
2, 10320, Note_on_c, 0, 74, 80
2, 10500, Note_on_c, 0, 74, 0
2, 10500, Note_on_c, 0, 71, 80
2, 10560, Note_on_c, 0, 71, 0
2, 10560, Note_on_c, 0, 76, 88
2, 10800, Note_on_c, 0, 76, 0
2, 10800, Note_on_c, 0, 76, 80
2, 10980, Note_on_c, 0, 76, 0
2, 10980, Note_on_c, 0, 76, 80
2, 11040, Note_on_c, 0, 76, 0
2, 11040, Note_on_c, 0, 75, 80
2, 11100, Note_on_c, 0, 75, 0
2, 11100, Note_on_c, 0, 76, 80
2, 11160, Note_on_c, 0, 76, 0
2, 11160, Note_on_c, 0, 77, 80
2, 11220, Note_on_c, 0, 77, 0
2, 11220, Note_on_c, 0, 76, 80
2, 11280, Note_on_c, 0, 76, 0
2, 11280, Note_on_c, 0, 74, 80
2, 11340, Note_on_c, 0, 74, 0
2, 11340, Note_on_c, 0, 72, 80
2, 11400, Note_on_c, 0, 72, 0
2, 11400, Note_on_c, 0, 71, 80
2, 11460, Note_on_c, 0, 71, 0
2, 11460, Note_on_c, 0, 69, 80
2, 11520, Note_on_c, 0, 69, 0
2, 11520, Note_on_c, 0, 72, 80
2, 11640, Note_on_c, 0, 72, 0
2, 11640, Note_on_c, 0, 70, 80
2, 11700, Note_on_c, 0, 70, 0
2, 11760, Note_on_c, 0, 70, 80
2, 12180, Note_on_c, 0, 70, 0
2, 12180, Note_on_c, 0, 76, 80
2, 12240, Note_on_c, 0, 76, 0
2, 12240, Note_on_c, 0, 79, 80
2, 12420, Note_on_c, 0, 79, 0
2, 12420, Note_on_c, 0, 82, 80
2, 12480, Note_on_c, 0, 82, 0
2, 12480, Note_on_c, 0, 82, 88
2, 12600, Note_on_c, 0, 82, 0
2, 12600, Note_on_c, 0, 81, 80
2, 12636, Note_on_c, 0, 81, 0
2, 12720, Note_on_c, 0, 77, 80
2, 12756, Note_on_c, 0, 77, 0
2, 12840, Note_on_c, 0, 74, 80
2, 12876, Note_on_c, 0, 74, 0
2, 12960, Note_on_c, 0, 74, 80
2, 13080, Note_on_c, 0, 74, 0
2, 13080, Note_on_c, 0, 73, 80
2, 13200, Note_on_c, 0, 73, 0
2, 13200, Note_on_c, 0, 76, 80
2, 13236, Note_on_c, 0, 76, 0
2, 13320, Note_on_c, 0, 79, 80
2, 13356, Note_on_c, 0, 79, 0
2, 13440, Note_on_c, 0, 79, 80
2, 13560, Note_on_c, 0, 79, 0
2, 13560, Note_on_c, 0, 78, 80
2, 13620, Note_on_c, 0, 78, 0
2, 13800, Note_on_c, 0, 77, 80
2, 13860, Note_on_c, 0, 77, 0
2, 14040, Note_on_c, 0, 75, 80
2, 14100, Note_on_c, 0, 75, 0
2, 14280, Note_on_c, 0, 76, 80
2, 14364, Note_on_c, 0, 76, 0
2, 14400, Note_on_c, 0, 76, 72
2, 14520, Note_on_c, 0, 76, 0
2, 14520, Note_on_c, 0, 74, 40
2, 14580, Note_on_c, 0, 74, 0
2, 14640, Note_on_c, 0, 74, 40
2, 15000, Note_on_c, 0, 74, 0
2, 15000, Note_on_c, 0, 76, 68
2, 15030, Note_on_c, 0, 76, 0
2, 15060, Note_on_c, 0, 74, 70
2, 15090, Note_on_c, 0, 74, 0
2, 15120, Note_on_c, 0, 74, 72
2, 15180, Note_on_c, 0, 74, 0
2, 15180, Note_on_c, 0, 72, 74
2, 15240, Note_on_c, 0, 72, 0
2, 15240, Note_on_c, 0, 71, 76
2, 15300, Note_on_c, 0, 71, 0
2, 15300, Note_on_c, 0, 72, 78
2, 15360, Note_on_c, 0, 72, 0
2, 15360, Note_on_c, 0, 71, 80
2, 15600, Note_on_c, 0, 71, 0
2, 15600, Note_on_c, 0, 79, 80
2, 15780, Note_on_c, 0, 79, 0
2, 15780, Note_on_c, 0, 79, 80
2, 15840, Note_on_c, 0, 79, 0
2, 15840, Note_on_c, 0, 79, 80
2, 16080, Note_on_c, 0, 79, 0
2, 16080, Note_on_c, 0, 79, 80
2, 16320, Note_on_c, 0, 79, 0
2, 16320, Note_on_c, 0, 72, 88
2, 16320, Note_on_c, 0, 84, 88
2, 16680, Note_on_c, 0, 84, 0
2, 16680, Note_on_c, 0, 82, 80
2, 16740, Note_on_c, 0, 82, 0
2, 16740, Note_on_c, 0, 80, 80
2, 16800, Note_on_c, 0, 80, 0
2, 16800, Note_on_c, 0, 79, 80
2, 17040, Note_on_c, 0, 79, 0
2, 17040, Note_on_c, 0, 78, 80
2, 17280, Note_on_c, 0, 78, 0
2, 17280, Note_on_c, 0, 72, 0
2, 17280, Note_on_c, 0, 79, 48
2, 17280, Note_on_c, 0, 71, 48
2, 17520, Note_on_c, 0, 71, 0
2, 17520, Note_on_c, 0, 79, 0
2, 17520, Note_on_c, 0, 79, 48
2, 17700, Note_on_c, 0, 79, 0
2, 17700, Note_on_c, 0, 79, 48
2, 17760, Note_on_c, 0, 79, 0
2, 17760, Note_on_c, 0, 79, 48
2, 18000, Note_on_c, 0, 79, 0
2, 18000, Note_on_c, 0, 79, 48
2, 18180, Note_on_c, 0, 72, 40
2, 18240, Note_on_c, 0, 79, 0
2, 18240, Note_on_c, 0, 84, 56
2, 18600, Note_on_c, 0, 84, 0
2, 18600, Note_on_c, 0, 82, 48
2, 18660, Note_on_c, 0, 82, 0
2, 18660, Note_on_c, 0, 80, 48
2, 18720, Note_on_c, 0, 80, 0
2, 18720, Note_on_c, 0, 79, 48
2, 18960, Note_on_c, 0, 79, 0
2, 18960, Note_on_c, 0, 78, 48
2, 19200, Note_on_c, 0, 78, 0
2, 19200, Note_on_c, 0, 72, 0
2, 19200, Note_on_c, 0, 79, 80
2, 19260, Note_on_c, 0, 79, 0
2, 19260, Note_on_c, 0, 74, 80
2, 19290, Note_on_c, 0, 74, 0
2, 19320, Note_on_c, 0, 71, 80
2, 19350, Note_on_c, 0, 71, 0
2, 19380, Note_on_c, 0, 74, 80
2, 19410, Note_on_c, 0, 74, 0
2, 19440, Note_on_c, 0, 79, 80
2, 19500, Note_on_c, 0, 79, 0
2, 19500, Note_on_c, 0, 75, 80
2, 19530, Note_on_c, 0, 75, 0
2, 19560, Note_on_c, 0, 72, 80
2, 19590, Note_on_c, 0, 72, 0
2, 19620, Note_on_c, 0, 75, 80
2, 19650, Note_on_c, 0, 75, 0
2, 19680, Note_on_c, 0, 79, 80
2, 19740, Note_on_c, 0, 79, 0
2, 19740, Note_on_c, 0, 74, 80
2, 19800, Note_on_c, 0, 74, 0
2, 19800, Note_on_c, 0, 71, 80
2, 19830, Note_on_c, 0, 71, 0
2, 19860, Note_on_c, 0, 74, 80
2, 19890, Note_on_c, 0, 74, 0
2, 19920, Note_on_c, 0, 79, 80
2, 19980, Note_on_c, 0, 79, 0
2, 19980, Note_on_c, 0, 75, 80
2, 20040, Note_on_c, 0, 75, 0
2, 20040, Note_on_c, 0, 72, 80
2, 20070, Note_on_c, 0, 72, 0
2, 20100, Note_on_c, 0, 75, 80
2, 20130, Note_on_c, 0, 75, 0
2, 20160, Note_on_c, 0, 79, 80
2, 20220, Note_on_c, 0, 79, 0
2, 20220, Note_on_c, 0, 74, 80
2, 20280, Note_on_c, 0, 74, 0
2, 20280, Note_on_c, 0, 71, 80
2, 20340, Note_on_c, 0, 71, 0
2, 20340, Note_on_c, 0, 74, 80
2, 20400, Note_on_c, 0, 74, 0
2, 20400, Note_on_c, 0, 79, 80
2, 20460, Note_on_c, 0, 79, 0
2, 20460, Note_on_c, 0, 75, 80
2, 20520, Note_on_c, 0, 75, 0
2, 20520, Note_on_c, 0, 72, 80
2, 20580, Note_on_c, 0, 72, 0
2, 20580, Note_on_c, 0, 75, 80
2, 20640, Note_on_c, 0, 75, 0
2, 20640, Note_on_c, 0, 71, 80
2, 20640, Note_on_c, 0, 74, 80
2, 20700, Note_on_c, 0, 74, 0
2, 20700, Note_on_c, 0, 79, 80
2, 20760, Note_on_c, 0, 79, 0
2, 20760, Note_on_c, 0, 71, 0
2, 20760, Note_on_c, 0, 72, 80
2, 20760, Note_on_c, 0, 75, 80
2, 20820, Note_on_c, 0, 75, 0
2, 20820, Note_on_c, 0, 79, 80
2, 20880, Note_on_c, 0, 79, 0
2, 20880, Note_on_c, 0, 72, 0
2, 20880, Note_on_c, 0, 71, 80
2, 20880, Note_on_c, 0, 74, 80
2, 20940, Note_on_c, 0, 74, 0
2, 20940, Note_on_c, 0, 79, 80
2, 21000, Note_on_c, 0, 79, 0
2, 21000, Note_on_c, 0, 71, 0
2, 21000, Note_on_c, 0, 72, 80
2, 21000, Note_on_c, 0, 75, 80
2, 21060, Note_on_c, 0, 75, 0
2, 21060, Note_on_c, 0, 79, 80
2, 21120, Note_on_c, 0, 79, 0
2, 21120, Note_on_c, 0, 72, 0
2, 21120, Note_on_c, 0, 74, 80
2, 21120, Note_on_c, 0, 71, 80
2, 21240, Note_on_c, 0, 71, 0
2, 21240, Note_on_c, 0, 74, 0
2, 21360, Note_on_c, 0, 67, 80
2, 21360, Note_on_c, 0, 71, 80
2, 21360, Note_on_c, 0, 74, 80
2, 21360, Note_on_c, 0, 79, 80
2, 21600, Note_on_c, 0, 79, 0
2, 21600, Note_on_c, 0, 67, 0
2, 21600, Note_on_c, 0, 71, 0
2, 21600, Note_on_c, 0, 74, 0
2, 21720, Note_on_c, 0, 79, 32
2, 21756, Note_on_c, 0, 79, 0
2, 21840, Note_on_c, 0, 81, 32
2, 21876, Note_on_c, 0, 81, 0
2, 21960, Note_on_c, 0, 83, 32
2, 21996, Note_on_c, 0, 83, 0
2, 22080, Note_on_c, 0, 84, 32
2, 22140, Note_on_c, 0, 84, 0
2, 22140, Note_on_c, 0, 86, 32
2, 22170, Note_on_c, 0, 86, 0
2, 22200, Note_on_c, 0, 83, 32
2, 22230, Note_on_c, 0, 83, 0
2, 22260, Note_on_c, 0, 86, 32
2, 22290, Note_on_c, 0, 86, 0
2, 22320, Note_on_c, 0, 84, 32
2, 22380, Note_on_c, 0, 84, 0
2, 22380, Note_on_c, 0, 86, 32
2, 22410, Note_on_c, 0, 86, 0
2, 22440, Note_on_c, 0, 83, 32
2, 22470, Note_on_c, 0, 83, 0
2, 22500, Note_on_c, 0, 86, 32
2, 22530, Note_on_c, 0, 86, 0
2, 22560, Note_on_c, 0, 84, 32
2, 22620, Note_on_c, 0, 84, 0
2, 22620, Note_on_c, 0, 86, 32
2, 22680, Note_on_c, 0, 86, 0
2, 22680, Note_on_c, 0, 83, 32
2, 22740, Note_on_c, 0, 83, 0
2, 22740, Note_on_c, 0, 84, 32
2, 22800, Note_on_c, 0, 84, 0
2, 22800, Note_on_c, 0, 81, 32
2, 22860, Note_on_c, 0, 81, 0
2, 22860, Note_on_c, 0, 83, 32
2, 22920, Note_on_c, 0, 83, 0
2, 22920, Note_on_c, 0, 79, 32
2, 22980, Note_on_c, 0, 79, 0
2, 22980, Note_on_c, 0, 81, 32
2, 23040, Note_on_c, 0, 81, 0
2, 23040, Note_on_c, 0, 77, 32
2, 23100, Note_on_c, 0, 77, 0
2, 23100, Note_on_c, 0, 79, 32
2, 23160, Note_on_c, 0, 79, 0
2, 23160, Note_on_c, 0, 76, 32
2, 23190, Note_on_c, 0, 76, 0
2, 23220, Note_on_c, 0, 79, 32
2, 23250, Note_on_c, 0, 79, 0
2, 23280, Note_on_c, 0, 77, 32
2, 23340, Note_on_c, 0, 77, 0
2, 23340, Note_on_c, 0, 79, 32
2, 23400, Note_on_c, 0, 79, 0
2, 23400, Note_on_c, 0, 76, 32
2, 23430, Note_on_c, 0, 76, 0
2, 23460, Note_on_c, 0, 79, 32
2, 23490, Note_on_c, 0, 79, 0
2, 23520, Note_on_c, 0, 77, 32
2, 23580, Note_on_c, 0, 77, 0
2, 23580, Note_on_c, 0, 79, 32
2, 23640, Note_on_c, 0, 79, 0
2, 23640, Note_on_c, 0, 76, 32
2, 23700, Note_on_c, 0, 76, 0
2, 23700, Note_on_c, 0, 77, 32
2, 23760, Note_on_c, 0, 77, 0
2, 23760, Note_on_c, 0, 74, 32
2, 23820, Note_on_c, 0, 74, 0
2, 23820, Note_on_c, 0, 76, 32
2, 23880, Note_on_c, 0, 76, 0
2, 23880, Note_on_c, 0, 72, 32
2, 23940, Note_on_c, 0, 72, 0
2, 23940, Note_on_c, 0, 74, 32
2, 24000, Note_on_c, 0, 74, 0
2, 24000, Note_on_c, 0, 71, 32
2, 24060, Note_on_c, 0, 71, 0
2, 24060, Note_on_c, 0, 72, 32
2, 24090, Note_on_c, 0, 72, 0
2, 24120, Note_on_c, 0, 69, 32
2, 24150, Note_on_c, 0, 69, 0
2, 24180, Note_on_c, 0, 72, 32
2, 24210, Note_on_c, 0, 72, 0
2, 24240, Note_on_c, 0, 71, 32
2, 24300, Note_on_c, 0, 71, 0
2, 24300, Note_on_c, 0, 72, 32
2, 24330, Note_on_c, 0, 72, 0
2, 24360, Note_on_c, 0, 69, 32
2, 24390, Note_on_c, 0, 69, 0
2, 24420, Note_on_c, 0, 72, 32
2, 24450, Note_on_c, 0, 72, 0
2, 24480, Note_on_c, 0, 71, 32
2, 24540, Note_on_c, 0, 71, 0
2, 24540, Note_on_c, 0, 72, 32
2, 24600, Note_on_c, 0, 72, 0
2, 24600, Note_on_c, 0, 69, 32
2, 24660, Note_on_c, 0, 69, 0
2, 24660, Note_on_c, 0, 71, 32
2, 24720, Note_on_c, 0, 71, 0
2, 24720, Note_on_c, 0, 67, 32
2, 24780, Note_on_c, 0, 67, 0
2, 24780, Note_on_c, 0, 69, 32
2, 24840, Note_on_c, 0, 69, 0
2, 24840, Note_on_c, 0, 65, 32
2, 24900, Note_on_c, 0, 65, 0
2, 24900, Note_on_c, 0, 67, 32
2, 24960, Note_on_c, 0, 67, 0
2, 24960, Note_on_c, 0, 64, 32
2, 25020, Note_on_c, 0, 64, 0
2, 25020, Note_on_c, 0, 67, 33
2, 25080, Note_on_c, 0, 67, 0
2, 25080, Note_on_c, 0, 65, 34
2, 25140, Note_on_c, 0, 65, 0
2, 25140, Note_on_c, 0, 64, 35
2, 25200, Note_on_c, 0, 64, 0
2, 25200, Note_on_c, 0, 65, 36
2, 25260, Note_on_c, 0, 65, 0
2, 25260, Note_on_c, 0, 67, 37
2, 25320, Note_on_c, 0, 67, 0
2, 25320, Note_on_c, 0, 69, 38
2, 25350, Note_on_c, 0, 69, 0
2, 25380, Note_on_c, 0, 71, 39
2, 25410, Note_on_c, 0, 71, 0
2, 25440, Note_on_c, 0, 72, 40
2, 25500, Note_on_c, 0, 72, 0
2, 25500, Note_on_c, 0, 74, 41
2, 25560, Note_on_c, 0, 74, 0
2, 25560, Note_on_c, 0, 72, 42
2, 25620, Note_on_c, 0, 72, 0
2, 25620, Note_on_c, 0, 71, 43
2, 25680, Note_on_c, 0, 71, 0
2, 25680, Note_on_c, 0, 72, 44
2, 25740, Note_on_c, 0, 72, 0
2, 25740, Note_on_c, 0, 74, 45
2, 25758, Note_on_c, 0, 74, 0
2, 25800, Note_on_c, 0, 76, 46
2, 25818, Note_on_c, 0, 76, 0
2, 25860, Note_on_c, 0, 77, 47
2, 25878, Note_on_c, 0, 77, 0
2, 25920, Note_on_c, 0, 79, 32
2, 25980, Note_on_c, 0, 79, 0
2, 25980, Note_on_c, 0, 81, 33
2, 26010, Note_on_c, 0, 81, 0
2, 26040, Note_on_c, 0, 78, 34
2, 26058, Note_on_c, 0, 78, 0
2, 26100, Note_on_c, 0, 81, 35
2, 26118, Note_on_c, 0, 81, 0
2, 26160, Note_on_c, 0, 79, 36
2, 26220, Note_on_c, 0, 79, 0
2, 26220, Note_on_c, 0, 81, 37
2, 26250, Note_on_c, 0, 81, 0
2, 26280, Note_on_c, 0, 78, 38
2, 26298, Note_on_c, 0, 78, 0
2, 26340, Note_on_c, 0, 81, 39
2, 26358, Note_on_c, 0, 81, 0
2, 26400, Note_on_c, 0, 79, 40
2, 26460, Note_on_c, 0, 79, 0
2, 26460, Note_on_c, 0, 84, 41
2, 26520, Note_on_c, 0, 84, 0
2, 26520, Note_on_c, 0, 83, 42
2, 26580, Note_on_c, 0, 83, 0
2, 26580, Note_on_c, 0, 84, 43
2, 26640, Note_on_c, 0, 84, 0
2, 26640, Note_on_c, 0, 86, 44
2, 26700, Note_on_c, 0, 86, 0
2, 26700, Note_on_c, 0, 84, 45
2, 26760, Note_on_c, 0, 84, 0
2, 26760, Note_on_c, 0, 83, 46
2, 26820, Note_on_c, 0, 83, 0
2, 26820, Note_on_c, 0, 84, 47
2, 26880, Note_on_c, 0, 84, 0
2, 26880, Note_on_c, 0, 83, 48
2, 26940, Note_on_c, 0, 83, 0
2, 26940, Note_on_c, 0, 81, 47
2, 27000, Note_on_c, 0, 81, 0
2, 27000, Note_on_c, 0, 80, 45
2, 27060, Note_on_c, 0, 80, 0
2, 27060, Note_on_c, 0, 81, 44
2, 27120, Note_on_c, 0, 81, 0
2, 27120, Note_on_c, 0, 79, 42
2, 27180, Note_on_c, 0, 79, 0
2, 27180, Note_on_c, 0, 77, 41
2, 27240, Note_on_c, 0, 77, 0
2, 27240, Note_on_c, 0, 76, 40
2, 27300, Note_on_c, 0, 76, 0
2, 27300, Note_on_c, 0, 77, 38
2, 27360, Note_on_c, 0, 77, 0
2, 27360, Note_on_c, 0, 76, 37
2, 27420, Note_on_c, 0, 76, 0
2, 27420, Note_on_c, 0, 74, 35
2, 27480, Note_on_c, 0, 74, 0
2, 27480, Note_on_c, 0, 73, 34
2, 27540, Note_on_c, 0, 73, 0
2, 27540, Note_on_c, 0, 74, 33
2, 27600, Note_on_c, 0, 74, 0
2, 27600, Note_on_c, 0, 73, 34
2, 27660, Note_on_c, 0, 73, 0
2, 27660, Note_on_c, 0, 74, 37
2, 27720, Note_on_c, 0, 74, 0
2, 27720, Note_on_c, 0, 76, 41
2, 27780, Note_on_c, 0, 76, 0
2, 27780, Note_on_c, 0, 77, 45
2, 27840, Note_on_c, 0, 77, 0
2, 27840, Note_on_c, 0, 81, 48
2, 27900, Note_on_c, 0, 81, 0
2, 27900, Note_on_c, 0, 79, 47
2, 27960, Note_on_c, 0, 79, 0
2, 27960, Note_on_c, 0, 78, 45
2, 28020, Note_on_c, 0, 78, 0
2, 28020, Note_on_c, 0, 79, 44
2, 28080, Note_on_c, 0, 79, 0
2, 28080, Note_on_c, 0, 77, 42
2, 28140, Note_on_c, 0, 77, 0
2, 28140, Note_on_c, 0, 76, 41
2, 28200, Note_on_c, 0, 76, 0
2, 28200, Note_on_c, 0, 74, 40
2, 28260, Note_on_c, 0, 74, 0
2, 28260, Note_on_c, 0, 76, 38
2, 28320, Note_on_c, 0, 76, 0
2, 28320, Note_on_c, 0, 74, 37
2, 28380, Note_on_c, 0, 74, 0
2, 28380, Note_on_c, 0, 72, 35
2, 28440, Note_on_c, 0, 72, 0
2, 28440, Note_on_c, 0, 71, 34
2, 28500, Note_on_c, 0, 71, 0
2, 28500, Note_on_c, 0, 72, 33
2, 28560, Note_on_c, 0, 72, 0
2, 28560, Note_on_c, 0, 71, 34
2, 28620, Note_on_c, 0, 71, 0
2, 28620, Note_on_c, 0, 72, 38
2, 28680, Note_on_c, 0, 72, 0
2, 28680, Note_on_c, 0, 74, 41
2, 28740, Note_on_c, 0, 74, 0
2, 28740, Note_on_c, 0, 76, 45
2, 28800, Note_on_c, 0, 76, 0
2, 28800, Note_on_c, 0, 77, 48
2, 28860, Note_on_c, 0, 77, 0
2, 28860, Note_on_c, 0, 79, 47
2, 28920, Note_on_c, 0, 79, 0
2, 28920, Note_on_c, 0, 76, 46
2, 28980, Note_on_c, 0, 76, 0
2, 28980, Note_on_c, 0, 77, 45
2, 29040, Note_on_c, 0, 77, 0
2, 29040, Note_on_c, 0, 74, 44
2, 29100, Note_on_c, 0, 74, 0
2, 29100, Note_on_c, 0, 76, 43
2, 29160, Note_on_c, 0, 76, 0
2, 29160, Note_on_c, 0, 72, 42
2, 29220, Note_on_c, 0, 72, 0
2, 29220, Note_on_c, 0, 74, 41
2, 29280, Note_on_c, 0, 74, 0
2, 29280, Note_on_c, 0, 71, 40
2, 29340, Note_on_c, 0, 71, 0
2, 29340, Note_on_c, 0, 72, 39
2, 29400, Note_on_c, 0, 72, 0
2, 29400, Note_on_c, 0, 69, 38
2, 29460, Note_on_c, 0, 69, 0
2, 29460, Note_on_c, 0, 71, 37
2, 29520, Note_on_c, 0, 71, 0
2, 29520, Note_on_c, 0, 67, 36
2, 29580, Note_on_c, 0, 67, 0
2, 29580, Note_on_c, 0, 69, 35
2, 29640, Note_on_c, 0, 69, 0
2, 29640, Note_on_c, 0, 65, 34
2, 29700, Note_on_c, 0, 65, 0
2, 29700, Note_on_c, 0, 67, 33
2, 29760, Note_on_c, 0, 67, 0
2, 29760, Note_on_c, 0, 64, 32
2, 29820, Note_on_c, 0, 64, 0
2, 29820, Note_on_c, 0, 67, 33
2, 29880, Note_on_c, 0, 67, 0
2, 29880, Note_on_c, 0, 65, 34
2, 29940, Note_on_c, 0, 65, 0
2, 29940, Note_on_c, 0, 64, 35
2, 30000, Note_on_c, 0, 64, 0
2, 30000, Note_on_c, 0, 65, 36
2, 30060, Note_on_c, 0, 65, 0
2, 30060, Note_on_c, 0, 67, 37
2, 30120, Note_on_c, 0, 67, 0
2, 30120, Note_on_c, 0, 69, 38
2, 30180, Note_on_c, 0, 69, 0
2, 30180, Note_on_c, 0, 71, 39
2, 30240, Note_on_c, 0, 71, 0
2, 30240, Note_on_c, 0, 72, 40
2, 30300, Note_on_c, 0, 72, 0
2, 30300, Note_on_c, 0, 74, 41
2, 30360, Note_on_c, 0, 74, 0
2, 30360, Note_on_c, 0, 76, 42
2, 30420, Note_on_c, 0, 76, 0
2, 30420, Note_on_c, 0, 74, 43
2, 30480, Note_on_c, 0, 74, 0
2, 30480, Note_on_c, 0, 72, 44
2, 30540, Note_on_c, 0, 72, 0
2, 30540, Note_on_c, 0, 70, 45
2, 30600, Note_on_c, 0, 70, 0
2, 30600, Note_on_c, 0, 69, 46
2, 30660, Note_on_c, 0, 69, 0
2, 30660, Note_on_c, 0, 68, 47
2, 30720, Note_on_c, 0, 68, 0
2, 30720, Note_on_c, 0, 69, 48
2, 30780, Note_on_c, 0, 69, 0
2, 30780, Note_on_c, 0, 71, 50
2, 30840, Note_on_c, 0, 71, 0
2, 30840, Note_on_c, 0, 72, 52
2, 30900, Note_on_c, 0, 72, 0
2, 30900, Note_on_c, 0, 71, 54
2, 30960, Note_on_c, 0, 71, 0
2, 30960, Note_on_c, 0, 72, 56
2, 31020, Note_on_c, 0, 72, 0
2, 31020, Note_on_c, 0, 73, 58
2, 31080, Note_on_c, 0, 73, 0
2, 31080, Note_on_c, 0, 74, 60
2, 31140, Note_on_c, 0, 74, 0
2, 31140, Note_on_c, 0, 73, 62
2, 31200, Note_on_c, 0, 73, 0
2, 31200, Note_on_c, 0, 74, 64
2, 31260, Note_on_c, 0, 74, 0
2, 31260, Note_on_c, 0, 76, 66
2, 31320, Note_on_c, 0, 76, 0
2, 31320, Note_on_c, 0, 77, 68
2, 31380, Note_on_c, 0, 77, 0
2, 31380, Note_on_c, 0, 76, 70
2, 31440, Note_on_c, 0, 76, 0
2, 31440, Note_on_c, 0, 77, 72
2, 31500, Note_on_c, 0, 77, 0
2, 31500, Note_on_c, 0, 80, 74
2, 31560, Note_on_c, 0, 80, 0
2, 31560, Note_on_c, 0, 81, 76
2, 31620, Note_on_c, 0, 81, 0
2, 31620, Note_on_c, 0, 80, 78
2, 31680, Note_on_c, 0, 80, 0
2, 31680, Note_on_c, 0, 81, 80
2, 31740, Note_on_c, 0, 81, 0
2, 31740, Note_on_c, 0, 83, 80
2, 31800, Note_on_c, 0, 83, 0
2, 31800, Note_on_c, 0, 84, 80
2, 31860, Note_on_c, 0, 84, 0
2, 31860, Note_on_c, 0, 83, 80
2, 31920, Note_on_c, 0, 83, 0
2, 31920, Note_on_c, 0, 84, 80
2, 31980, Note_on_c, 0, 84, 0
2, 31980, Note_on_c, 0, 83, 80
2, 31998, Note_on_c, 0, 83, 0
2, 32040, Note_on_c, 0, 84, 80
2, 32058, Note_on_c, 0, 84, 0
2, 32100, Note_on_c, 0, 83, 80
2, 32118, Note_on_c, 0, 83, 0
2, 32160, Note_on_c, 0, 86, 88
2, 32220, Note_on_c, 0, 86, 0
2, 32220, Note_on_c, 0, 84, 80
2, 32280, Note_on_c, 0, 84, 0
2, 32280, Note_on_c, 0, 83, 80
2, 32340, Note_on_c, 0, 83, 0
2, 32340, Note_on_c, 0, 81, 80
2, 32400, Note_on_c, 0, 81, 0
2, 32400, Note_on_c, 0, 83, 88
2, 32460, Note_on_c, 0, 83, 0
2, 32460, Note_on_c, 0, 81, 80
2, 32520, Note_on_c, 0, 81, 0
2, 32520, Note_on_c, 0, 79, 80
2, 32538, Note_on_c, 0, 79, 0
2, 32580, Note_on_c, 0, 77, 80
2, 32598, Note_on_c, 0, 77, 0
2, 32640, Note_on_c, 0, 76, 80
2, 32670, Note_on_c, 0, 76, 0
2, 32700, Note_on_c, 0, 79, 80
2, 32760, Note_on_c, 0, 79, 0
2, 32760, Note_on_c, 0, 81, 80
2, 32820, Note_on_c, 0, 81, 0
2, 32820, Note_on_c, 0, 79, 80
2, 32880, Note_on_c, 0, 79, 0
2, 32880, Note_on_c, 0, 77, 80
2, 32940, Note_on_c, 0, 77, 0
2, 32940, Note_on_c, 0, 76, 80
2, 33000, Note_on_c, 0, 76, 0
2, 33000, Note_on_c, 0, 74, 80
2, 33060, Note_on_c, 0, 74, 0
2, 33060, Note_on_c, 0, 72, 80
2, 33120, Note_on_c, 0, 72, 0
2, 33120, Note_on_c, 0, 76, 78
2, 33150, Note_on_c, 0, 76, 0
2, 33150, Note_on_c, 0, 74, 76
2, 33180, Note_on_c, 0, 74, 0
2, 33180, Note_on_c, 0, 76, 75
2, 33210, Note_on_c, 0, 76, 0
2, 33210, Note_on_c, 0, 74, 73
2, 33240, Note_on_c, 0, 74, 0
2, 33240, Note_on_c, 0, 76, 71
2, 33270, Note_on_c, 0, 76, 0
2, 33270, Note_on_c, 0, 74, 69
2, 33300, Note_on_c, 0, 74, 0
2, 33300, Note_on_c, 0, 76, 67
2, 33330, Note_on_c, 0, 76, 0
2, 33330, Note_on_c, 0, 74, 65
2, 33360, Note_on_c, 0, 74, 0
2, 33360, Note_on_c, 0, 76, 63
2, 33390, Note_on_c, 0, 76, 0
2, 33390, Note_on_c, 0, 74, 61
2, 33420, Note_on_c, 0, 74, 0
2, 33420, Note_on_c, 0, 76, 59
2, 33450, Note_on_c, 0, 76, 0
2, 33450, Note_on_c, 0, 74, 57
2, 33480, Note_on_c, 0, 74, 0
2, 33480, Note_on_c, 0, 72, 55
2, 33540, Note_on_c, 0, 72, 0
2, 33540, Note_on_c, 0, 74, 52
2, 33600, Note_on_c, 0, 74, 0
2, 33660, Note_on_c, 0, 84, 48
2, 33678, Note_on_c, 0, 84, 0
2, 33720, Note_on_c, 0, 83, 48
2, 33738, Note_on_c, 0, 83, 0
2, 33780, Note_on_c, 0, 81, 48
2, 33798, Note_on_c, 0, 81, 0
2, 33840, Note_on_c, 0, 79, 48
2, 33900, Note_on_c, 0, 79, 0
2, 33900, Note_on_c, 0, 81, 48
2, 33918, Note_on_c, 0, 81, 0
2, 33960, Note_on_c, 0, 78, 48
2, 33978, Note_on_c, 0, 78, 0
2, 34020, Note_on_c, 0, 81, 48
2, 34038, Note_on_c, 0, 81, 0
2, 34080, Note_on_c, 0, 79, 48
2, 34140, Note_on_c, 0, 79, 0
2, 34140, Note_on_c, 0, 81, 48
2, 34158, Note_on_c, 0, 81, 0
2, 34200, Note_on_c, 0, 78, 48
2, 34218, Note_on_c, 0, 78, 0
2, 34260, Note_on_c, 0, 81, 48
2, 34278, Note_on_c, 0, 81, 0
2, 34320, Note_on_c, 0, 79, 48
2, 34380, Note_on_c, 0, 79, 0
2, 34380, Note_on_c, 0, 81, 48
2, 34440, Note_on_c, 0, 81, 0
2, 34440, Note_on_c, 0, 77, 48
2, 34500, Note_on_c, 0, 77, 0
2, 34500, Note_on_c, 0, 79, 48
2, 34560, Note_on_c, 0, 79, 0
2, 34560, Note_on_c, 0, 76, 32
2, 34620, Note_on_c, 0, 76, 0
2, 34620, Note_on_c, 0, 84, 32
2, 34680, Note_on_c, 0, 84, 0
2, 34680, Note_on_c, 0, 83, 32
2, 34740, Note_on_c, 0, 83, 0
2, 34740, Note_on_c, 0, 81, 32
2, 34800, Note_on_c, 0, 81, 0
2, 34800, Note_on_c, 0, 79, 32
2, 34860, Note_on_c, 0, 79, 0
2, 34860, Note_on_c, 0, 81, 32
2, 34920, Note_on_c, 0, 81, 0
2, 34920, Note_on_c, 0, 78, 32
2, 34980, Note_on_c, 0, 78, 0
2, 34980, Note_on_c, 0, 81, 32
2, 35040, Note_on_c, 0, 81, 0
2, 35040, Note_on_c, 0, 79, 32
2, 35100, Note_on_c, 0, 79, 0
2, 35100, Note_on_c, 0, 81, 32
2, 35160, Note_on_c, 0, 81, 0
2, 35160, Note_on_c, 0, 78, 32
2, 35220, Note_on_c, 0, 78, 0
2, 35220, Note_on_c, 0, 81, 32
2, 35280, Note_on_c, 0, 81, 0
2, 35280, Note_on_c, 0, 79, 32
2, 35340, Note_on_c, 0, 79, 0
2, 35340, Note_on_c, 0, 81, 32
2, 35400, Note_on_c, 0, 81, 0
2, 35400, Note_on_c, 0, 77, 32
2, 35460, Note_on_c, 0, 77, 0
2, 35460, Note_on_c, 0, 79, 32
2, 35520, Note_on_c, 0, 79, 0
2, 35520, Note_on_c, 0, 76, 32
2, 35580, Note_on_c, 0, 76, 0
2, 35580, Note_on_c, 0, 77, 34
2, 35640, Note_on_c, 0, 77, 0
2, 35640, Note_on_c, 0, 74, 35
2, 35700, Note_on_c, 0, 74, 0
2, 35700, Note_on_c, 0, 76, 37
2, 35760, Note_on_c, 0, 76, 0
2, 35760, Note_on_c, 0, 72, 38
2, 35820, Note_on_c, 0, 72, 0
2, 35820, Note_on_c, 0, 74, 40
2, 35880, Note_on_c, 0, 74, 0
2, 35880, Note_on_c, 0, 71, 41
2, 35940, Note_on_c, 0, 71, 0
2, 35940, Note_on_c, 0, 72, 43
2, 36000, Note_on_c, 0, 72, 0
2, 36000, Note_on_c, 0, 69, 44
2, 36060, Note_on_c, 0, 69, 0
2, 36060, Note_on_c, 0, 71, 46
2, 36120, Note_on_c, 0, 71, 0
2, 36120, Note_on_c, 0, 67, 47
2, 36180, Note_on_c, 0, 67, 0
2, 36180, Note_on_c, 0, 69, 49
2, 36240, Note_on_c, 0, 69, 0
2, 36240, Note_on_c, 0, 65, 50
2, 36300, Note_on_c, 0, 65, 0
2, 36300, Note_on_c, 0, 67, 52
2, 36360, Note_on_c, 0, 67, 0
2, 36360, Note_on_c, 0, 64, 53
2, 36420, Note_on_c, 0, 64, 0
2, 36420, Note_on_c, 0, 65, 55
2, 36480, Note_on_c, 0, 65, 0
2, 36480, Note_on_c, 0, 62, 56
2, 36576, Note_on_c, 0, 62, 0
2, 36600, Note_on_c, 0, 64, 59
2, 36660, Note_on_c, 0, 64, 0
2, 36660, Note_on_c, 0, 65, 61
2, 36720, Note_on_c, 0, 65, 0
2, 36720, Note_on_c, 0, 67, 62
2, 36780, Note_on_c, 0, 67, 0
2, 36780, Note_on_c, 0, 69, 64
2, 36840, Note_on_c, 0, 69, 0
2, 36840, Note_on_c, 0, 71, 65
2, 36900, Note_on_c, 0, 71, 0
2, 36900, Note_on_c, 0, 72, 67
2, 36960, Note_on_c, 0, 72, 0
2, 36960, Note_on_c, 0, 74, 68
2, 37020, Note_on_c, 0, 74, 0
2, 37020, Note_on_c, 0, 76, 70
2, 37080, Note_on_c, 0, 76, 0
2, 37080, Note_on_c, 0, 77, 71
2, 37140, Note_on_c, 0, 77, 0
2, 37140, Note_on_c, 0, 79, 73
2, 37200, Note_on_c, 0, 79, 0
2, 37200, Note_on_c, 0, 81, 74
2, 37260, Note_on_c, 0, 81, 0
2, 37260, Note_on_c, 0, 83, 76
2, 37320, Note_on_c, 0, 83, 0
2, 37320, Note_on_c, 0, 84, 77
2, 37380, Note_on_c, 0, 84, 0
2, 37380, Note_on_c, 0, 86, 79
2, 37440, Note_on_c, 0, 86, 0
2, 37440, Note_on_c, 0, 88, 80
2, 37500, Note_on_c, 0, 88, 0
2, 37500, Note_on_c, 0, 84, 80
2, 37560, Note_on_c, 0, 84, 0
2, 37560, Note_on_c, 0, 83, 80
2, 37620, Note_on_c, 0, 83, 0
2, 37620, Note_on_c, 0, 84, 80
2, 37680, Note_on_c, 0, 84, 0
2, 37680, Note_on_c, 0, 83, 80
2, 37740, Note_on_c, 0, 83, 0
2, 37740, Note_on_c, 0, 81, 80
2, 37758, Note_on_c, 0, 81, 0
2, 37800, Note_on_c, 0, 79, 80
2, 37818, Note_on_c, 0, 79, 0
2, 37860, Note_on_c, 0, 77, 80
2, 37878, Note_on_c, 0, 77, 0
2, 37920, Note_on_c, 0, 76, 80
2, 38160, Note_on_c, 0, 76, 0
2, 38160, Note_on_c, 0, 76, 71
2, 38190, Note_on_c, 0, 76, 0
2, 38190, Note_on_c, 0, 74, 69
2, 38220, Note_on_c, 0, 74, 0
2, 38220, Note_on_c, 0, 76, 67
2, 38250, Note_on_c, 0, 76, 0
2, 38250, Note_on_c, 0, 74, 65
2, 38280, Note_on_c, 0, 74, 0
2, 38280, Note_on_c, 0, 76, 63
2, 38310, Note_on_c, 0, 76, 0
2, 38310, Note_on_c, 0, 74, 61
2, 38340, Note_on_c, 0, 74, 0
2, 38340, Note_on_c, 0, 72, 59
2, 38370, Note_on_c, 0, 72, 0
2, 38370, Note_on_c, 0, 74, 57
2, 38400, Note_on_c, 0, 74, 0
2, 38400, Note_on_c, 0, 72, 55
2, 38460, Note_on_c, 0, 72, 0
2, 39120, Note_on_c, 0, 74, 48
2, 39120, Note_on_c, 0, 83, 48
2, 39156, Note_on_c, 0, 83, 0
2, 39240, Note_on_c, 0, 79, 48
2, 39276, Note_on_c, 0, 79, 0
2, 39276, Note_on_c, 0, 74, 0
2, 39360, Note_on_c, 0, 76, 48
2, 39360, Note_on_c, 0, 84, 48
2, 39600, Note_on_c, 0, 84, 0
2, 39600, Note_on_c, 0, 76, 0
2, 40080, Note_on_c, 0, 74, 32
2, 40080, Note_on_c, 0, 83, 32
2, 40200, Note_on_c, 0, 83, 0
2, 40200, Note_on_c, 0, 79, 32
2, 40320, Note_on_c, 0, 79, 0
2, 40320, Note_on_c, 0, 74, 0
2, 40320, Note_on_c, 0, 76, 32
2, 40320, Note_on_c, 0, 84, 32
2, 40560, Note_on_c, 0, 84, 0
2, 40560, Note_on_c, 0, 76, 0
2, 40560, Note_on_c, 0, 81, 38
2, 40590, Note_on_c, 0, 81, 0
2, 40590, Note_on_c, 0, 79, 39
2, 40620, Note_on_c, 0, 79, 0
2, 40620, Note_on_c, 0, 81, 40
2, 40650, Note_on_c, 0, 81, 0
2, 40650, Note_on_c, 0, 79, 40
2, 40680, Note_on_c, 0, 79, 0
2, 40680, Note_on_c, 0, 81, 41
2, 40710, Note_on_c, 0, 81, 0
2, 40710, Note_on_c, 0, 79, 42
2, 40740, Note_on_c, 0, 79, 0
2, 40740, Note_on_c, 0, 78, 43
2, 40770, Note_on_c, 0, 78, 0
2, 40770, Note_on_c, 0, 79, 43
2, 40800, Note_on_c, 0, 79, 0
2, 40800, Note_on_c, 0, 84, 44
2, 41040, Note_on_c, 0, 77, 50
2, 41070, Note_on_c, 0, 77, 0
2, 41070, Note_on_c, 0, 76, 51
2, 41100, Note_on_c, 0, 76, 0
2, 41100, Note_on_c, 0, 77, 52
2, 41130, Note_on_c, 0, 77, 0
2, 41130, Note_on_c, 0, 76, 52
2, 41160, Note_on_c, 0, 76, 0
2, 41160, Note_on_c, 0, 77, 53
2, 41190, Note_on_c, 0, 77, 0
2, 41190, Note_on_c, 0, 76, 54
2, 41220, Note_on_c, 0, 76, 0
2, 41220, Note_on_c, 0, 74, 55
2, 41250, Note_on_c, 0, 74, 0
2, 41250, Note_on_c, 0, 76, 55
2, 41280, Note_on_c, 0, 76, 0
2, 41280, Note_on_c, 0, 77, 56
2, 41520, Note_on_c, 0, 84, 0
2, 41520, Note_on_c, 0, 86, 62
2, 41700, Note_on_c, 0, 86, 0
2, 41700, Note_on_c, 0, 88, 67
2, 41760, Note_on_c, 0, 88, 0
2, 41760, Note_on_c, 0, 89, 68
2, 42000, Note_on_c, 0, 89, 0
2, 42000, Note_on_c, 0, 77, 0
2, 42000, Note_on_c, 0, 79, 74
2, 42000, Note_on_c, 0, 84, 74
2, 42030, Note_on_c, 0, 84, 0
2, 42030, Note_on_c, 0, 83, 75
2, 42060, Note_on_c, 0, 83, 0
2, 42060, Note_on_c, 0, 84, 76
2, 42090, Note_on_c, 0, 84, 0
2, 42090, Note_on_c, 0, 83, 76
2, 42120, Note_on_c, 0, 83, 0
2, 42120, Note_on_c, 0, 84, 77
2, 42150, Note_on_c, 0, 84, 0
2, 42150, Note_on_c, 0, 83, 78
2, 42180, Note_on_c, 0, 83, 0
2, 42180, Note_on_c, 0, 81, 79
2, 42210, Note_on_c, 0, 81, 0
2, 42210, Note_on_c, 0, 83, 79
2, 42240, Note_on_c, 0, 83, 0
2, 42240, Note_on_c, 0, 79, 0
2, 42240, Note_on_c, 0, 84, 80
2, 42240, Note_on_c, 0, 79, 80
2, 42300, Note_on_c, 0, 84, 0
2, 42300, Note_on_c, 0, 83, 80
2, 42360, Note_on_c, 0, 83, 0
2, 42360, Note_on_c, 0, 79, 0
2, 42360, Note_on_c, 0, 84, 80
2, 42378, Note_on_c, 0, 84, 0
2, 42420, Note_on_c, 0, 79, 80
2, 42438, Note_on_c, 0, 79, 0
2, 42480, Note_on_c, 0, 83, 80
2, 42480, Note_on_c, 0, 74, 80
2, 42540, Note_on_c, 0, 83, 0
2, 42540, Note_on_c, 0, 81, 80
2, 42600, Note_on_c, 0, 81, 0
2, 42600, Note_on_c, 0, 74, 0
2, 42600, Note_on_c, 0, 79, 80
2, 42660, Note_on_c, 0, 79, 0
2, 42660, Note_on_c, 0, 77, 80
2, 42720, Note_on_c, 0, 77, 0
2, 42720, Note_on_c, 0, 76, 80
2, 42720, Note_on_c, 0, 72, 80
2, 42780, Note_on_c, 0, 76, 0
2, 42780, Note_on_c, 0, 77, 80
2, 42798, Note_on_c, 0, 77, 0
2, 42840, Note_on_c, 0, 72, 0
2, 42840, Note_on_c, 0, 79, 80
2, 42858, Note_on_c, 0, 79, 0
2, 42900, Note_on_c, 0, 76, 80
2, 42918, Note_on_c, 0, 76, 0
2, 42960, Note_on_c, 0, 74, 80
2, 42960, Note_on_c, 0, 71, 80
2, 43020, Note_on_c, 0, 74, 0
2, 43020, Note_on_c, 0, 76, 80
2, 43080, Note_on_c, 0, 76, 0
2, 43080, Note_on_c, 0, 71, 0
2, 43080, Note_on_c, 0, 77, 80
2, 43140, Note_on_c, 0, 77, 0
2, 43140, Note_on_c, 0, 74, 80
2, 43200, Note_on_c, 0, 74, 0
2, 43200, Note_on_c, 0, 72, 32
2, 43440, Note_on_c, 0, 72, 0
2, 43440, Note_on_c, 0, 72, 36
2, 43440, Note_on_c, 0, 76, 36
2, 43530, Note_on_c, 0, 76, 0
2, 43530, Note_on_c, 0, 72, 0
2, 43620, Note_on_c, 0, 72, 39
2, 43620, Note_on_c, 0, 76, 39
2, 43650, Note_on_c, 0, 76, 0
2, 43650, Note_on_c, 0, 72, 0
2, 43680, Note_on_c, 0, 72, 40
2, 43680, Note_on_c, 0, 76, 40
2, 43920, Note_on_c, 0, 76, 0
2, 43920, Note_on_c, 0, 72, 0
2, 43920, Note_on_c, 0, 72, 44
2, 43920, Note_on_c, 0, 76, 44
2, 44010, Note_on_c, 0, 76, 0
2, 44010, Note_on_c, 0, 72, 0
2, 44100, Note_on_c, 0, 72, 47
2, 44100, Note_on_c, 0, 76, 47
2, 44130, Note_on_c, 0, 76, 0
2, 44130, Note_on_c, 0, 72, 0
2, 44160, Note_on_c, 0, 72, 48
2, 44160, Note_on_c, 0, 74, 48
2, 44400, Note_on_c, 0, 74, 0
2, 44400, Note_on_c, 0, 72, 0
2, 44400, Note_on_c, 0, 72, 52
2, 44400, Note_on_c, 0, 74, 52
2, 44490, Note_on_c, 0, 74, 0
2, 44490, Note_on_c, 0, 72, 0
2, 44580, Note_on_c, 0, 72, 55
2, 44580, Note_on_c, 0, 74, 55
2, 44610, Note_on_c, 0, 74, 0
2, 44610, Note_on_c, 0, 72, 0
2, 44640, Note_on_c, 0, 71, 56
2, 44640, Note_on_c, 0, 74, 56
2, 44880, Note_on_c, 0, 74, 0
2, 44880, Note_on_c, 0, 71, 0
2, 44880, Note_on_c, 0, 71, 60
2, 44880, Note_on_c, 0, 79, 60
2, 44970, Note_on_c, 0, 79, 0
2, 44970, Note_on_c, 0, 71, 0
2, 45060, Note_on_c, 0, 71, 63
2, 45060, Note_on_c, 0, 79, 63
2, 45090, Note_on_c, 0, 79, 0
2, 45090, Note_on_c, 0, 71, 0
2, 45120, Note_on_c, 0, 72, 64
2, 45120, Note_on_c, 0, 76, 64
2, 45360, Note_on_c, 0, 76, 0
2, 45360, Note_on_c, 0, 72, 0
2, 45360, Note_on_c, 0, 72, 68
2, 45360, Note_on_c, 0, 76, 68
2, 45360, Note_on_c, 0, 84, 68
2, 45450, Note_on_c, 0, 84, 0
2, 45450, Note_on_c, 0, 76, 0
2, 45450, Note_on_c, 0, 72, 0
2, 45540, Note_on_c, 0, 72, 71
2, 45540, Note_on_c, 0, 76, 71
2, 45540, Note_on_c, 0, 84, 71
2, 45570, Note_on_c, 0, 84, 0
2, 45570, Note_on_c, 0, 76, 0
2, 45570, Note_on_c, 0, 72, 0
2, 45600, Note_on_c, 0, 72, 72
2, 45600, Note_on_c, 0, 76, 72
2, 45600, Note_on_c, 0, 84, 72
2, 45840, Note_on_c, 0, 84, 0
2, 45840, Note_on_c, 0, 76, 0
2, 45840, Note_on_c, 0, 72, 0
2, 45840, Note_on_c, 0, 72, 76
2, 45840, Note_on_c, 0, 76, 76
2, 45840, Note_on_c, 0, 84, 76
2, 45930, Note_on_c, 0, 84, 0
2, 45930, Note_on_c, 0, 76, 0
2, 45930, Note_on_c, 0, 72, 0
2, 46020, Note_on_c, 0, 72, 79
2, 46020, Note_on_c, 0, 76, 79
2, 46020, Note_on_c, 0, 84, 79
2, 46050, Note_on_c, 0, 84, 0
2, 46050, Note_on_c, 0, 76, 0
2, 46050, Note_on_c, 0, 72, 0
2, 46080, Note_on_c, 0, 74, 80
2, 46080, Note_on_c, 0, 81, 80
2, 46080, Note_on_c, 0, 84, 80
2, 46320, Note_on_c, 0, 84, 0
2, 46320, Note_on_c, 0, 81, 0
2, 46320, Note_on_c, 0, 74, 0
2, 46320, Note_on_c, 0, 74, 84
2, 46320, Note_on_c, 0, 81, 84
2, 46320, Note_on_c, 0, 84, 84
2, 46500, Note_on_c, 0, 84, 0
2, 46500, Note_on_c, 0, 81, 0
2, 46500, Note_on_c, 0, 74, 0
2, 46500, Note_on_c, 0, 74, 87
2, 46500, Note_on_c, 0, 81, 87
2, 46500, Note_on_c, 0, 84, 87
2, 46560, Note_on_c, 0, 84, 0
2, 46560, Note_on_c, 0, 81, 0
2, 46560, Note_on_c, 0, 74, 0
2, 46560, Note_on_c, 0, 74, 88
2, 46560, Note_on_c, 0, 79, 88
2, 46560, Note_on_c, 0, 83, 88
2, 46800, Note_on_c, 0, 83, 0
2, 46800, Note_on_c, 0, 79, 0
2, 46800, Note_on_c, 0, 74, 0
2, 46800, Note_on_c, 0, 74, 92
2, 46800, Note_on_c, 0, 79, 92
2, 46800, Note_on_c, 0, 83, 92
2, 46980, Note_on_c, 0, 83, 0
2, 46980, Note_on_c, 0, 79, 0
2, 46980, Note_on_c, 0, 74, 0
2, 46980, Note_on_c, 0, 74, 95
2, 46980, Note_on_c, 0, 79, 95
2, 46980, Note_on_c, 0, 83, 95
2, 47040, Note_on_c, 0, 83, 0
2, 47040, Note_on_c, 0, 79, 0
2, 47040, Note_on_c, 0, 74, 0
2, 47040, Note_on_c, 0, 76, 96
2, 47040, Note_on_c, 0, 79, 96
2, 47040, Note_on_c, 0, 84, 96
2, 47208, Note_on_c, 0, 84, 0
2, 47208, Note_on_c, 0, 79, 0
2, 47208, Note_on_c, 0, 76, 0
2, 47280, Note_on_c, 0, 72, 96
2, 47280, Note_on_c, 0, 76, 96
2, 47280, Note_on_c, 0, 79, 96
2, 47448, Note_on_c, 0, 79, 0
2, 47448, Note_on_c, 0, 76, 0
2, 47448, Note_on_c, 0, 72, 0
2, 47520, Note_on_c, 0, 67, 96
2, 47520, Note_on_c, 0, 72, 96
2, 47520, Note_on_c, 0, 76, 96
2, 47760, Note_on_c, 0, 76, 0
2, 47760, Note_on_c, 0, 72, 0
2, 47760, Note_on_c, 0, 67, 0
2, 48000, Note_on_c, 0, 78, 80
2, 48060, Note_on_c, 0, 78, 0
2, 48060, Note_on_c, 0, 79, 80
2, 48240, Note_on_c, 0, 79, 0
2, 48240, Note_on_c, 0, 79, 80
2, 48420, Note_on_c, 0, 79, 0
2, 48420, Note_on_c, 0, 79, 84
2, 48480, Note_on_c, 0, 79, 0
2, 48480, Note_on_c, 0, 79, 88
2, 48720, Note_on_c, 0, 79, 0
2, 48720, Note_on_c, 0, 76, 80
2, 48900, Note_on_c, 0, 76, 0
2, 48900, Note_on_c, 0, 72, 80
2, 48960, Note_on_c, 0, 72, 0
2, 48960, Note_on_c, 0, 72, 80
2, 49080, Note_on_c, 0, 72, 0
2, 49080, Note_on_c, 0, 71, 80
2, 49140, Note_on_c, 0, 71, 0
2, 49200, Note_on_c, 0, 71, 80
2, 49680, Note_on_c, 0, 71, 0
2, 49680, Note_on_c, 0, 77, 80
2, 49860, Note_on_c, 0, 77, 0
2, 49860, Note_on_c, 0, 74, 80
2, 49920, Note_on_c, 0, 74, 0
2, 49920, Note_on_c, 0, 79, 80
2, 50160, Note_on_c, 0, 79, 0
2, 50160, Note_on_c, 0, 79, 84
2, 50340, Note_on_c, 0, 79, 0
2, 50340, Note_on_c, 0, 79, 88
2, 50400, Note_on_c, 0, 79, 0
2, 50400, Note_on_c, 0, 79, 92
2, 50520, Note_on_c, 0, 79, 0
2, 50520, Note_on_c, 0, 81, 80
2, 50580, Note_on_c, 0, 81, 0
2, 50580, Note_on_c, 0, 79, 80
2, 50640, Note_on_c, 0, 79, 0
2, 50640, Note_on_c, 0, 77, 80
2, 50700, Note_on_c, 0, 77, 0
2, 50700, Note_on_c, 0, 76, 80
2, 50760, Note_on_c, 0, 76, 0
2, 50760, Note_on_c, 0, 74, 80
2, 50820, Note_on_c, 0, 74, 0
2, 50820, Note_on_c, 0, 72, 80
2, 50880, Note_on_c, 0, 72, 0
2, 50880, Note_on_c, 0, 72, 80
2, 51000, Note_on_c, 0, 72, 0
2, 51000, Note_on_c, 0, 70, 80
2, 51060, Note_on_c, 0, 70, 0
2, 51120, Note_on_c, 0, 70, 80
2, 51480, Note_on_c, 0, 70, 0
2, 51480, Note_on_c, 0, 73, 80
2, 51540, Note_on_c, 0, 73, 0
2, 51600, Note_on_c, 0, 76, 84
2, 51636, Note_on_c, 0, 76, 0
2, 51720, Note_on_c, 0, 79, 88
2, 51756, Note_on_c, 0, 79, 0
2, 51840, Note_on_c, 0, 82, 92
2, 51960, Note_on_c, 0, 82, 0
2, 51960, Note_on_c, 0, 79, 64
2, 52020, Note_on_c, 0, 79, 0
2, 52080, Note_on_c, 0, 76, 64
2, 52116, Note_on_c, 0, 76, 0
2, 52200, Note_on_c, 0, 72, 64
2, 52236, Note_on_c, 0, 72, 0
2, 52320, Note_on_c, 0, 70, 64
2, 52440, Note_on_c, 0, 70, 0
2, 52440, Note_on_c, 0, 73, 80
2, 52500, Note_on_c, 0, 73, 0
2, 52560, Note_on_c, 0, 76, 84
2, 52596, Note_on_c, 0, 76, 0
2, 52680, Note_on_c, 0, 79, 88
2, 52716, Note_on_c, 0, 79, 0
2, 52800, Note_on_c, 0, 82, 92
2, 52920, Note_on_c, 0, 82, 0
2, 52920, Note_on_c, 0, 79, 64
2, 53040, Note_on_c, 0, 79, 0
2, 53040, Note_on_c, 0, 76, 64
2, 53160, Note_on_c, 0, 76, 0
2, 53160, Note_on_c, 0, 72, 64
2, 53280, Note_on_c, 0, 72, 0
2, 53280, Note_on_c, 0, 70, 64
2, 53400, Note_on_c, 0, 70, 0
2, 53400, Note_on_c, 0, 73, 80
2, 53520, Note_on_c, 0, 73, 0
2, 53520, Note_on_c, 0, 76, 80
2, 53640, Note_on_c, 0, 76, 0
2, 53640, Note_on_c, 0, 79, 80
2, 53760, Note_on_c, 0, 79, 0
2, 53760, Note_on_c, 0, 82, 80
2, 53820, Note_on_c, 0, 82, 0
2, 53820, Note_on_c, 0, 79, 80
2, 53838, Note_on_c, 0, 79, 0
2, 53880, Note_on_c, 0, 76, 80
2, 53898, Note_on_c, 0, 76, 0
2, 53940, Note_on_c, 0, 72, 80
2, 53958, Note_on_c, 0, 72, 0
2, 54000, Note_on_c, 0, 79, 80
2, 54060, Note_on_c, 0, 79, 0
2, 54060, Note_on_c, 0, 76, 80
2, 54120, Note_on_c, 0, 76, 0
2, 54120, Note_on_c, 0, 72, 80
2, 54180, Note_on_c, 0, 72, 0
2, 54180, Note_on_c, 0, 70, 80
2, 54240, Note_on_c, 0, 70, 0
2, 54240, Note_on_c, 0, 76, 80
2, 54300, Note_on_c, 0, 76, 0
2, 54300, Note_on_c, 0, 72, 80
2, 54318, Note_on_c, 0, 72, 0
2, 54360, Note_on_c, 0, 70, 80
2, 54378, Note_on_c, 0, 70, 0
2, 54420, Note_on_c, 0, 67, 80
2, 54438, Note_on_c, 0, 67, 0
2, 54480, Note_on_c, 0, 72, 80
2, 54540, Note_on_c, 0, 72, 0
2, 54540, Note_on_c, 0, 70, 80
2, 54600, Note_on_c, 0, 70, 0
2, 54600, Note_on_c, 0, 67, 80
2, 54660, Note_on_c, 0, 67, 0
2, 54660, Note_on_c, 0, 64, 80
2, 54720, Note_on_c, 0, 64, 0
2, 54720, Note_on_c, 0, 70, 80
2, 54780, Note_on_c, 0, 70, 0
2, 54780, Note_on_c, 0, 67, 80
2, 54840, Note_on_c, 0, 67, 0
2, 54840, Note_on_c, 0, 64, 80
2, 54900, Note_on_c, 0, 64, 0
2, 54900, Note_on_c, 0, 60, 80
2, 54960, Note_on_c, 0, 60, 0
2, 54960, Note_on_c, 0, 67, 80
2, 55020, Note_on_c, 0, 67, 0
2, 55020, Note_on_c, 0, 64, 80
2, 55080, Note_on_c, 0, 64, 0
2, 55080, Note_on_c, 0, 60, 80
2, 55140, Note_on_c, 0, 60, 0
2, 55140, Note_on_c, 0, 59, 80
2, 55200, Note_on_c, 0, 59, 0
2, 55200, Note_on_c, 0, 58, 80
2, 55260, Note_on_c, 0, 58, 0
2, 55260, Note_on_c, 0, 67, 80
2, 55320, Note_on_c, 0, 67, 0
2, 55320, Note_on_c, 0, 66, 80
2, 55380, Note_on_c, 0, 66, 0
2, 55380, Note_on_c, 0, 67, 80
2, 55440, Note_on_c, 0, 67, 0
2, 55440, Note_on_c, 0, 69, 80
2, 55500, Note_on_c, 0, 69, 0
2, 55500, Note_on_c, 0, 67, 80
2, 55560, Note_on_c, 0, 67, 0
2, 55560, Note_on_c, 0, 66, 80
2, 55620, Note_on_c, 0, 66, 0
2, 55620, Note_on_c, 0, 64, 80
2, 55680, Note_on_c, 0, 64, 0
2, 55680, Note_on_c, 0, 63, 80
2, 55680, Note_on_c, 0, 71, 80
2, 55920, Note_on_c, 0, 71, 0
2, 55920, Note_on_c, 0, 63, 0
2, 55920, Note_on_c, 0, 63, 80
2, 55920, Note_on_c, 0, 71, 80
2, 56010, Note_on_c, 0, 71, 0
2, 56010, Note_on_c, 0, 63, 0
2, 56100, Note_on_c, 0, 63, 80
2, 56100, Note_on_c, 0, 71, 80
2, 56130, Note_on_c, 0, 71, 0
2, 56130, Note_on_c, 0, 63, 0
2, 56160, Note_on_c, 0, 63, 80
2, 56160, Note_on_c, 0, 71, 80
2, 56400, Note_on_c, 0, 71, 0
2, 56400, Note_on_c, 0, 63, 0
2, 56400, Note_on_c, 0, 63, 80
2, 56400, Note_on_c, 0, 71, 80
2, 56640, Note_on_c, 0, 63, 0
2, 56640, Note_on_c, 0, 64, 80
2, 56640, Note_on_c, 0, 72, 80
2, 56820, Note_on_c, 0, 71, 0
2, 56820, Note_on_c, 0, 71, 80
2, 56880, Note_on_c, 0, 71, 0
2, 56880, Note_on_c, 0, 69, 80
2, 57060, Note_on_c, 0, 69, 0
2, 57060, Note_on_c, 0, 68, 80
2, 57120, Note_on_c, 0, 68, 0
2, 57120, Note_on_c, 0, 64, 0
2, 57120, Note_on_c, 0, 66, 80
2, 57120, Note_on_c, 0, 69, 80
2, 57300, Note_on_c, 0, 72, 0
2, 57300, Note_on_c, 0, 75, 80
2, 57360, Note_on_c, 0, 75, 0
2, 57360, Note_on_c, 0, 76, 80
2, 57540, Note_on_c, 0, 76, 0
2, 57540, Note_on_c, 0, 72, 80
2, 57600, Note_on_c, 0, 72, 0
2, 57600, Note_on_c, 0, 66, 0
2, 57600, Note_on_c, 0, 63, 80
2, 57600, Note_on_c, 0, 71, 80
2, 57780, Note_on_c, 0, 69, 0
2, 57780, Note_on_c, 0, 69, 80
2, 57840, Note_on_c, 0, 69, 0
2, 57840, Note_on_c, 0, 67, 80
2, 58020, Note_on_c, 0, 67, 0
2, 58020, Note_on_c, 0, 66, 80
2, 58080, Note_on_c, 0, 66, 0
2, 58080, Note_on_c, 0, 63, 0
2, 58080, Note_on_c, 0, 64, 80
2, 58080, Note_on_c, 0, 67, 80
2, 58260, Note_on_c, 0, 71, 0
2, 58260, Note_on_c, 0, 75, 80
2, 58320, Note_on_c, 0, 75, 0
2, 58320, Note_on_c, 0, 76, 80
2, 58500, Note_on_c, 0, 76, 0
2, 58500, Note_on_c, 0, 71, 80
2, 58560, Note_on_c, 0, 71, 0
2, 58560, Note_on_c, 0, 64, 0
2, 58560, Note_on_c, 0, 61, 80
2, 58560, Note_on_c, 0, 69, 80
2, 58740, Note_on_c, 0, 67, 0
2, 58740, Note_on_c, 0, 67, 80
2, 58800, Note_on_c, 0, 67, 0
2, 58800, Note_on_c, 0, 66, 80
2, 58980, Note_on_c, 0, 66, 0
2, 58980, Note_on_c, 0, 64, 80
2, 59040, Note_on_c, 0, 64, 0
2, 59040, Note_on_c, 0, 61, 0
2, 59040, Note_on_c, 0, 63, 80
2, 59040, Note_on_c, 0, 66, 80
2, 59220, Note_on_c, 0, 69, 0
2, 59220, Note_on_c, 0, 71, 80
2, 59280, Note_on_c, 0, 71, 0
2, 59280, Note_on_c, 0, 72, 80
2, 59460, Note_on_c, 0, 72, 0
2, 59460, Note_on_c, 0, 69, 80
2, 59520, Note_on_c, 0, 69, 0
2, 59520, Note_on_c, 0, 66, 0
2, 59520, Note_on_c, 0, 63, 0
2, 59520, Note_on_c, 0, 64, 56
2, 59520, Note_on_c, 0, 67, 56
2, 59640, Note_on_c, 0, 67, 0
2, 59640, Note_on_c, 0, 64, 0
2, 59760, Note_on_c, 0, 67, 56
2, 59760, Note_on_c, 0, 76, 56
2, 59850, Note_on_c, 0, 76, 0
2, 59850, Note_on_c, 0, 67, 0
2, 59940, Note_on_c, 0, 67, 56
2, 59940, Note_on_c, 0, 76, 56
2, 59970, Note_on_c, 0, 76, 0
2, 59970, Note_on_c, 0, 67, 0
2, 60000, Note_on_c, 0, 67, 56
2, 60000, Note_on_c, 0, 76, 56
2, 60240, Note_on_c, 0, 76, 0
2, 60240, Note_on_c, 0, 67, 0
2, 60240, Note_on_c, 0, 67, 56
2, 60240, Note_on_c, 0, 76, 56
2, 60480, Note_on_c, 0, 67, 0
2, 60480, Note_on_c, 0, 77, 56
2, 60480, Note_on_c, 0, 69, 56
2, 60660, Note_on_c, 0, 76, 0
2, 60660, Note_on_c, 0, 76, 56
2, 60720, Note_on_c, 0, 76, 0
2, 60720, Note_on_c, 0, 74, 56
2, 60900, Note_on_c, 0, 74, 0
2, 60900, Note_on_c, 0, 73, 56
2, 60960, Note_on_c, 0, 73, 0
2, 60960, Note_on_c, 0, 69, 0
2, 60960, Note_on_c, 0, 74, 56
2, 60960, Note_on_c, 0, 71, 56
2, 61140, Note_on_c, 0, 77, 0
2, 61140, Note_on_c, 0, 80, 56
2, 61200, Note_on_c, 0, 80, 0
2, 61200, Note_on_c, 0, 81, 56
2, 61380, Note_on_c, 0, 81, 0
2, 61380, Note_on_c, 0, 77, 56
2, 61440, Note_on_c, 0, 77, 0
2, 61440, Note_on_c, 0, 71, 0
2, 61440, Note_on_c, 0, 76, 56
2, 61440, Note_on_c, 0, 68, 56
2, 61620, Note_on_c, 0, 74, 0
2, 61620, Note_on_c, 0, 74, 56
2, 61680, Note_on_c, 0, 74, 0
2, 61680, Note_on_c, 0, 72, 56
2, 61860, Note_on_c, 0, 72, 0
2, 61860, Note_on_c, 0, 71, 56
2, 61920, Note_on_c, 0, 71, 0
2, 61920, Note_on_c, 0, 68, 0
2, 61920, Note_on_c, 0, 72, 56
2, 61920, Note_on_c, 0, 69, 56
2, 62100, Note_on_c, 0, 76, 0
2, 62100, Note_on_c, 0, 80, 56
2, 62160, Note_on_c, 0, 80, 0
2, 62160, Note_on_c, 0, 81, 56
2, 62340, Note_on_c, 0, 81, 0
2, 62340, Note_on_c, 0, 76, 56
2, 62400, Note_on_c, 0, 76, 0
2, 62400, Note_on_c, 0, 69, 0
2, 62400, Note_on_c, 0, 74, 56
2, 62400, Note_on_c, 0, 66, 56
2, 62580, Note_on_c, 0, 72, 0
2, 62580, Note_on_c, 0, 72, 56
2, 62640, Note_on_c, 0, 72, 0
2, 62640, Note_on_c, 0, 71, 56
2, 62820, Note_on_c, 0, 71, 0
2, 62820, Note_on_c, 0, 69, 56
2, 62880, Note_on_c, 0, 69, 0
2, 62880, Note_on_c, 0, 66, 0
2, 62880, Note_on_c, 0, 71, 56
2, 62880, Note_on_c, 0, 68, 56
2, 63060, Note_on_c, 0, 74, 0
2, 63060, Note_on_c, 0, 76, 56
2, 63120, Note_on_c, 0, 76, 0
2, 63120, Note_on_c, 0, 77, 56
2, 63300, Note_on_c, 0, 77, 0
2, 63300, Note_on_c, 0, 74, 56
2, 63360, Note_on_c, 0, 74, 0
2, 63360, Note_on_c, 0, 68, 0
2, 63360, Note_on_c, 0, 71, 0
2, 63360, Note_on_c, 0, 69, 80
2, 63360, Note_on_c, 0, 72, 80
2, 63480, Note_on_c, 0, 72, 0
2, 63480, Note_on_c, 0, 69, 0
2, 63600, Note_on_c, 0, 72, 80
2, 63600, Note_on_c, 0, 81, 80
2, 63690, Note_on_c, 0, 81, 0
2, 63690, Note_on_c, 0, 72, 0
2, 63780, Note_on_c, 0, 72, 80
2, 63780, Note_on_c, 0, 81, 80
2, 63810, Note_on_c, 0, 81, 0
2, 63810, Note_on_c, 0, 72, 0
2, 63840, Note_on_c, 0, 72, 80
2, 63840, Note_on_c, 0, 81, 80
2, 64080, Note_on_c, 0, 81, 0
2, 64080, Note_on_c, 0, 72, 0
2, 64080, Note_on_c, 0, 72, 80
2, 64080, Note_on_c, 0, 81, 80
2, 64320, Note_on_c, 0, 72, 0
2, 64320, Note_on_c, 0, 74, 80
2, 64320, Note_on_c, 0, 82, 80
2, 64500, Note_on_c, 0, 81, 0
2, 64500, Note_on_c, 0, 81, 80
2, 64560, Note_on_c, 0, 81, 0
2, 64560, Note_on_c, 0, 79, 80
2, 64740, Note_on_c, 0, 79, 0
2, 64740, Note_on_c, 0, 78, 80
2, 64800, Note_on_c, 0, 78, 0
2, 64800, Note_on_c, 0, 74, 0
2, 64800, Note_on_c, 0, 76, 80
2, 64800, Note_on_c, 0, 79, 80
2, 64980, Note_on_c, 0, 82, 0
2, 64980, Note_on_c, 0, 85, 80
2, 65040, Note_on_c, 0, 85, 0
2, 65040, Note_on_c, 0, 86, 80
2, 65220, Note_on_c, 0, 86, 0
2, 65220, Note_on_c, 0, 82, 80
2, 65280, Note_on_c, 0, 82, 0
2, 65280, Note_on_c, 0, 76, 0
2, 65280, Note_on_c, 0, 73, 80
2, 65280, Note_on_c, 0, 81, 80
2, 65460, Note_on_c, 0, 79, 0
2, 65460, Note_on_c, 0, 79, 80
2, 65520, Note_on_c, 0, 79, 0
2, 65520, Note_on_c, 0, 77, 80
2, 65700, Note_on_c, 0, 77, 0
2, 65700, Note_on_c, 0, 76, 80
2, 65760, Note_on_c, 0, 76, 0
2, 65760, Note_on_c, 0, 73, 0
2, 65760, Note_on_c, 0, 74, 80
2, 65760, Note_on_c, 0, 77, 80
2, 65940, Note_on_c, 0, 81, 0
2, 65940, Note_on_c, 0, 85, 80
2, 66000, Note_on_c, 0, 85, 0
2, 66000, Note_on_c, 0, 86, 80
2, 66180, Note_on_c, 0, 86, 0
2, 66180, Note_on_c, 0, 81, 80
2, 66240, Note_on_c, 0, 81, 0
2, 66240, Note_on_c, 0, 74, 0
2, 66240, Note_on_c, 0, 71, 80
2, 66240, Note_on_c, 0, 79, 80
2, 66420, Note_on_c, 0, 77, 0
2, 66420, Note_on_c, 0, 77, 80
2, 66480, Note_on_c, 0, 77, 0
2, 66480, Note_on_c, 0, 76, 80
2, 66660, Note_on_c, 0, 76, 0
2, 66660, Note_on_c, 0, 74, 80
2, 66720, Note_on_c, 0, 74, 0
2, 66720, Note_on_c, 0, 71, 0
2, 66720, Note_on_c, 0, 73, 80
2, 66720, Note_on_c, 0, 76, 80
2, 66900, Note_on_c, 0, 79, 0
2, 66900, Note_on_c, 0, 81, 80
2, 66960, Note_on_c, 0, 81, 0
2, 66960, Note_on_c, 0, 82, 80
2, 67140, Note_on_c, 0, 82, 0
2, 67140, Note_on_c, 0, 79, 80
2, 67200, Note_on_c, 0, 79, 0
2, 67200, Note_on_c, 0, 76, 0
2, 67200, Note_on_c, 0, 73, 0
2, 67200, Note_on_c, 0, 74, 88
2, 67200, Note_on_c, 0, 77, 88
2, 67440, Note_on_c, 0, 77, 0
2, 67440, Note_on_c, 0, 74, 0
2, 67620, Note_on_c, 0, 74, 80
2, 67620, Note_on_c, 0, 77, 80
2, 67680, Note_on_c, 0, 77, 0
2, 67680, Note_on_c, 0, 74, 0
2, 67680, Note_on_c, 0, 77, 88
2, 67680, Note_on_c, 0, 86, 88
2, 67920, Note_on_c, 0, 86, 0
2, 67920, Note_on_c, 0, 77, 0
2, 67920, Note_on_c, 0, 74, 69
2, 67920, Note_on_c, 0, 79, 69
2, 67950, Note_on_c, 0, 79, 0
2, 67950, Note_on_c, 0, 77, 70
2, 67980, Note_on_c, 0, 77, 0
2, 67980, Note_on_c, 0, 79, 71
2, 68010, Note_on_c, 0, 79, 0
2, 68010, Note_on_c, 0, 77, 73
2, 68040, Note_on_c, 0, 77, 0
2, 68040, Note_on_c, 0, 79, 74
2, 68070, Note_on_c, 0, 79, 0
2, 68070, Note_on_c, 0, 77, 76
2, 68100, Note_on_c, 0, 77, 0
2, 68100, Note_on_c, 0, 76, 77
2, 68130, Note_on_c, 0, 76, 0
2, 68130, Note_on_c, 0, 77, 79
2, 68160, Note_on_c, 0, 77, 0
2, 68160, Note_on_c, 0, 74, 0
2, 68160, Note_on_c, 0, 72, 88
2, 68160, Note_on_c, 0, 76, 88
2, 68400, Note_on_c, 0, 76, 0
2, 68400, Note_on_c, 0, 72, 0
2, 68580, Note_on_c, 0, 76, 80
2, 68580, Note_on_c, 0, 72, 80
2, 68640, Note_on_c, 0, 72, 0
2, 68640, Note_on_c, 0, 76, 0
2, 68640, Note_on_c, 0, 84, 88
2, 68640, Note_on_c, 0, 76, 88
2, 68880, Note_on_c, 0, 76, 0
2, 68880, Note_on_c, 0, 84, 0
2, 68880, Note_on_c, 0, 77, 68
2, 68880, Note_on_c, 0, 72, 68
2, 68910, Note_on_c, 0, 77, 0
2, 68910, Note_on_c, 0, 76, 69
2, 68940, Note_on_c, 0, 76, 0
2, 68940, Note_on_c, 0, 77, 71
2, 68970, Note_on_c, 0, 77, 0
2, 68970, Note_on_c, 0, 76, 72
2, 69000, Note_on_c, 0, 76, 0
2, 69000, Note_on_c, 0, 77, 74
2, 69030, Note_on_c, 0, 77, 0
2, 69030, Note_on_c, 0, 76, 75
2, 69060, Note_on_c, 0, 76, 0
2, 69060, Note_on_c, 0, 74, 77
2, 69090, Note_on_c, 0, 74, 0
2, 69090, Note_on_c, 0, 76, 79
2, 69120, Note_on_c, 0, 76, 0
2, 69120, Note_on_c, 0, 72, 0
2, 69120, Note_on_c, 0, 74, 88
2, 69120, Note_on_c, 0, 71, 88
2, 69360, Note_on_c, 0, 71, 0
2, 69360, Note_on_c, 0, 74, 0
2, 69540, Note_on_c, 0, 74, 80
2, 69540, Note_on_c, 0, 71, 80
2, 69600, Note_on_c, 0, 71, 0
2, 69600, Note_on_c, 0, 74, 0
2, 69600, Note_on_c, 0, 83, 88
2, 69600, Note_on_c, 0, 74, 88
2, 69840, Note_on_c, 0, 74, 0
2, 69840, Note_on_c, 0, 83, 0
2, 69840, Note_on_c, 0, 76, 80
2, 69840, Note_on_c, 0, 71, 80
2, 69870, Note_on_c, 0, 76, 0
2, 69870, Note_on_c, 0, 74, 80
2, 69900, Note_on_c, 0, 74, 0
2, 69900, Note_on_c, 0, 76, 80
2, 69930, Note_on_c, 0, 76, 0
2, 69930, Note_on_c, 0, 74, 80
2, 69960, Note_on_c, 0, 74, 0
2, 69960, Note_on_c, 0, 76, 80
2, 69990, Note_on_c, 0, 76, 0
2, 69990, Note_on_c, 0, 74, 80
2, 70020, Note_on_c, 0, 74, 0
2, 70020, Note_on_c, 0, 72, 80
2, 70050, Note_on_c, 0, 72, 0
2, 70050, Note_on_c, 0, 74, 80
2, 70080, Note_on_c, 0, 74, 0
2, 70080, Note_on_c, 0, 71, 0
2, 70080, Note_on_c, 0, 72, 80
2, 70140, Note_on_c, 0, 72, 0
2, 70140, Note_on_c, 0, 69, 80
2, 70200, Note_on_c, 0, 69, 0
2, 70200, Note_on_c, 0, 72, 80
2, 70260, Note_on_c, 0, 72, 0
2, 70260, Note_on_c, 0, 76, 80
2, 70320, Note_on_c, 0, 76, 0
2, 70320, Note_on_c, 0, 64, 80
2, 70380, Note_on_c, 0, 64, 0
2, 70380, Note_on_c, 0, 67, 80
2, 70398, Note_on_c, 0, 67, 0
2, 70440, Note_on_c, 0, 71, 80
2, 70458, Note_on_c, 0, 71, 0
2, 70500, Note_on_c, 0, 76, 80
2, 70518, Note_on_c, 0, 76, 0
2, 70560, Note_on_c, 0, 64, 80
2, 70620, Note_on_c, 0, 64, 0
2, 70620, Note_on_c, 0, 69, 80
2, 70680, Note_on_c, 0, 69, 0
2, 70680, Note_on_c, 0, 72, 80
2, 70740, Note_on_c, 0, 72, 0
2, 70740, Note_on_c, 0, 76, 80
2, 70800, Note_on_c, 0, 76, 0
2, 70800, Note_on_c, 0, 63, 80
2, 70860, Note_on_c, 0, 63, 0
2, 70860, Note_on_c, 0, 69, 80
2, 70920, Note_on_c, 0, 69, 0
2, 70920, Note_on_c, 0, 72, 80
2, 70980, Note_on_c, 0, 72, 0
2, 70980, Note_on_c, 0, 75, 80
2, 71040, Note_on_c, 0, 75, 0
2, 71040, Note_on_c, 0, 76, 80
2, 71100, Note_on_c, 0, 76, 0
2, 71100, Note_on_c, 0, 64, 80
2, 71160, Note_on_c, 0, 64, 0
2, 71160, Note_on_c, 0, 68, 80
2, 71220, Note_on_c, 0, 68, 0
2, 71220, Note_on_c, 0, 71, 80
2, 71280, Note_on_c, 0, 71, 0
2, 71280, Note_on_c, 0, 76, 80
2, 71340, Note_on_c, 0, 76, 0
2, 71340, Note_on_c, 0, 68, 80
2, 71400, Note_on_c, 0, 68, 0
2, 71400, Note_on_c, 0, 71, 80
2, 71460, Note_on_c, 0, 71, 0
2, 71460, Note_on_c, 0, 76, 80
2, 71520, Note_on_c, 0, 76, 0
2, 71520, Note_on_c, 0, 80, 80
2, 71580, Note_on_c, 0, 80, 0
2, 71580, Note_on_c, 0, 71, 80
2, 71640, Note_on_c, 0, 71, 0
2, 71640, Note_on_c, 0, 76, 80
2, 71700, Note_on_c, 0, 76, 0
2, 71700, Note_on_c, 0, 80, 80
2, 71760, Note_on_c, 0, 80, 0
2, 71760, Note_on_c, 0, 83, 80
2, 71820, Note_on_c, 0, 83, 0
2, 71820, Note_on_c, 0, 80, 80
2, 71880, Note_on_c, 0, 80, 0
2, 71880, Note_on_c, 0, 76, 80
2, 71940, Note_on_c, 0, 76, 0
2, 71940, Note_on_c, 0, 74, 80
2, 72000, Note_on_c, 0, 74, 0
2, 72000, Note_on_c, 0, 72, 80
2, 72060, Note_on_c, 0, 72, 0
2, 72060, Note_on_c, 0, 69, 80
2, 72120, Note_on_c, 0, 69, 0
2, 72120, Note_on_c, 0, 72, 80
2, 72180, Note_on_c, 0, 72, 0
2, 72180, Note_on_c, 0, 76, 80
2, 72240, Note_on_c, 0, 76, 0
2, 72240, Note_on_c, 0, 81, 80
2, 72300, Note_on_c, 0, 81, 0
2, 72300, Note_on_c, 0, 72, 80
2, 72360, Note_on_c, 0, 72, 0
2, 72360, Note_on_c, 0, 76, 80
2, 72420, Note_on_c, 0, 76, 0
2, 72420, Note_on_c, 0, 81, 80
2, 72480, Note_on_c, 0, 81, 0
2, 72480, Note_on_c, 0, 84, 80
2, 72540, Note_on_c, 0, 84, 0
2, 72540, Note_on_c, 0, 81, 80
2, 72600, Note_on_c, 0, 81, 0
2, 72600, Note_on_c, 0, 76, 80
2, 72660, Note_on_c, 0, 76, 0
2, 72660, Note_on_c, 0, 72, 80
2, 72720, Note_on_c, 0, 72, 0
2, 72720, Note_on_c, 0, 81, 27
2, 72780, Note_on_c, 0, 81, 0
2, 72780, Note_on_c, 0, 78, 22
2, 72840, Note_on_c, 0, 78, 0
2, 72840, Note_on_c, 0, 72, 17
2, 72900, Note_on_c, 0, 72, 0
2, 72900, Note_on_c, 0, 69, 12
2, 72960, Note_on_c, 0, 69, 0
2, 72960, Note_on_c, 0, 68, 48
2, 73020, Note_on_c, 0, 68, 0
2, 73020, Note_on_c, 0, 64, 48
2, 73080, Note_on_c, 0, 64, 0
2, 73080, Note_on_c, 0, 68, 48
2, 73140, Note_on_c, 0, 68, 0
2, 73140, Note_on_c, 0, 71, 48
2, 73200, Note_on_c, 0, 71, 0
2, 73200, Note_on_c, 0, 76, 48
2, 73260, Note_on_c, 0, 76, 0
2, 73260, Note_on_c, 0, 68, 48
2, 73320, Note_on_c, 0, 68, 0
2, 73320, Note_on_c, 0, 71, 48
2, 73380, Note_on_c, 0, 71, 0
2, 73380, Note_on_c, 0, 76, 48
2, 73440, Note_on_c, 0, 76, 0
2, 73440, Note_on_c, 0, 80, 48
2, 73500, Note_on_c, 0, 80, 0
2, 73500, Note_on_c, 0, 71, 48
2, 73560, Note_on_c, 0, 71, 0
2, 73560, Note_on_c, 0, 76, 48
2, 73620, Note_on_c, 0, 76, 0
2, 73620, Note_on_c, 0, 80, 48
2, 73680, Note_on_c, 0, 80, 0
2, 73680, Note_on_c, 0, 83, 48
2, 73740, Note_on_c, 0, 83, 0
2, 73740, Note_on_c, 0, 80, 48
2, 73800, Note_on_c, 0, 80, 0
2, 73800, Note_on_c, 0, 76, 48
2, 73860, Note_on_c, 0, 76, 0
2, 73860, Note_on_c, 0, 74, 48
2, 73920, Note_on_c, 0, 74, 0
2, 73920, Note_on_c, 0, 72, 48
2, 73980, Note_on_c, 0, 72, 0
2, 73980, Note_on_c, 0, 69, 48
2, 74040, Note_on_c, 0, 69, 0
2, 74040, Note_on_c, 0, 72, 48
2, 74100, Note_on_c, 0, 72, 0
2, 74100, Note_on_c, 0, 76, 48
2, 74160, Note_on_c, 0, 76, 0
2, 74160, Note_on_c, 0, 81, 48
2, 74220, Note_on_c, 0, 81, 0
2, 74220, Note_on_c, 0, 72, 48
2, 74280, Note_on_c, 0, 72, 0
2, 74280, Note_on_c, 0, 76, 48
2, 74340, Note_on_c, 0, 76, 0
2, 74340, Note_on_c, 0, 81, 48
2, 74400, Note_on_c, 0, 81, 0
2, 74400, Note_on_c, 0, 84, 48
2, 74460, Note_on_c, 0, 84, 0
2, 74460, Note_on_c, 0, 81, 48
2, 74520, Note_on_c, 0, 81, 0
2, 74520, Note_on_c, 0, 76, 48
2, 74580, Note_on_c, 0, 76, 0
2, 74580, Note_on_c, 0, 72, 48
2, 74640, Note_on_c, 0, 72, 0
2, 74640, Note_on_c, 0, 81, 48
2, 74700, Note_on_c, 0, 81, 0
2, 74700, Note_on_c, 0, 78, 48
2, 74760, Note_on_c, 0, 78, 0
2, 74760, Note_on_c, 0, 72, 48
2, 74820, Note_on_c, 0, 72, 0
2, 74820, Note_on_c, 0, 69, 48
2, 74880, Note_on_c, 0, 69, 0
2, 74880, Note_on_c, 0, 68, 48
2, 74940, Note_on_c, 0, 68, 0
2, 74940, Note_on_c, 0, 71, 50
2, 74958, Note_on_c, 0, 71, 0
2, 75000, Note_on_c, 0, 76, 52
2, 75018, Note_on_c, 0, 76, 0
2, 75060, Note_on_c, 0, 68, 54
2, 75078, Note_on_c, 0, 68, 0
2, 75120, Note_on_c, 0, 69, 56
2, 75180, Note_on_c, 0, 69, 0
2, 75180, Note_on_c, 0, 71, 58
2, 75240, Note_on_c, 0, 71, 0
2, 75240, Note_on_c, 0, 75, 60
2, 75300, Note_on_c, 0, 75, 0
2, 75300, Note_on_c, 0, 69, 62
2, 75360, Note_on_c, 0, 69, 0
2, 75360, Note_on_c, 0, 68, 64
2, 75420, Note_on_c, 0, 68, 0
2, 75420, Note_on_c, 0, 71, 66
2, 75438, Note_on_c, 0, 71, 0
2, 75480, Note_on_c, 0, 76, 68
2, 75498, Note_on_c, 0, 76, 0
2, 75540, Note_on_c, 0, 68, 70
2, 75558, Note_on_c, 0, 68, 0
2, 75600, Note_on_c, 0, 69, 72
2, 75660, Note_on_c, 0, 69, 0
2, 75660, Note_on_c, 0, 71, 74
2, 75720, Note_on_c, 0, 71, 0
2, 75720, Note_on_c, 0, 75, 76
2, 75780, Note_on_c, 0, 75, 0
2, 75780, Note_on_c, 0, 69, 78
2, 75840, Note_on_c, 0, 69, 0
2, 75840, Note_on_c, 0, 76, 88
2, 75840, Note_on_c, 0, 71, 88
2, 75840, Note_on_c, 0, 68, 88
2, 75900, Note_on_c, 0, 68, 0
2, 75900, Note_on_c, 0, 71, 0
2, 75900, Note_on_c, 0, 76, 0
2, 75960, Note_on_c, 0, 64, 82
2, 76020, Note_on_c, 0, 64, 0
2, 76020, Note_on_c, 0, 63, 79
2, 76080, Note_on_c, 0, 63, 0
2, 76080, Note_on_c, 0, 64, 76
2, 76140, Note_on_c, 0, 64, 0
2, 76140, Note_on_c, 0, 65, 73
2, 76200, Note_on_c, 0, 65, 0
2, 76200, Note_on_c, 0, 66, 70
2, 76260, Note_on_c, 0, 66, 0
2, 76260, Note_on_c, 0, 67, 67
2, 76320, Note_on_c, 0, 67, 0
2, 76320, Note_on_c, 0, 68, 64
2, 76380, Note_on_c, 0, 68, 0
2, 76380, Note_on_c, 0, 69, 61
2, 76440, Note_on_c, 0, 69, 0
2, 76440, Note_on_c, 0, 70, 58
2, 76500, Note_on_c, 0, 70, 0
2, 76500, Note_on_c, 0, 71, 55
2, 76560, Note_on_c, 0, 71, 0
2, 76560, Note_on_c, 0, 72, 52
2, 76620, Note_on_c, 0, 72, 0
2, 76620, Note_on_c, 0, 73, 49
2, 76680, Note_on_c, 0, 73, 0
2, 76680, Note_on_c, 0, 74, 46
2, 76740, Note_on_c, 0, 74, 0
2, 76740, Note_on_c, 0, 75, 43
2, 76800, Note_on_c, 0, 75, 0
2, 76800, Note_on_c, 0, 75, 80
2, 76860, Note_on_c, 0, 75, 0
2, 76860, Note_on_c, 0, 76, 80
2, 76950, Note_on_c, 0, 76, 0
2, 77040, Note_on_c, 0, 76, 80
2, 77220, Note_on_c, 0, 76, 0
2, 77220, Note_on_c, 0, 76, 84
2, 77280, Note_on_c, 0, 76, 0
2, 77280, Note_on_c, 0, 76, 88
2, 77520, Note_on_c, 0, 76, 0
2, 77520, Note_on_c, 0, 72, 80
2, 77700, Note_on_c, 0, 72, 0
2, 77700, Note_on_c, 0, 69, 80
2, 77760, Note_on_c, 0, 69, 0
2, 77760, Note_on_c, 0, 69, 80
2, 77880, Note_on_c, 0, 69, 0
2, 77880, Note_on_c, 0, 68, 80
2, 77952, Note_on_c, 0, 68, 0
2, 78000, Note_on_c, 0, 68, 80
2, 78480, Note_on_c, 0, 68, 0
2, 78480, Note_on_c, 0, 74, 80
2, 78660, Note_on_c, 0, 74, 0
2, 78660, Note_on_c, 0, 71, 80
2, 78720, Note_on_c, 0, 71, 0
2, 78720, Note_on_c, 0, 76, 80
2, 78960, Note_on_c, 0, 76, 0
2, 78960, Note_on_c, 0, 76, 84
2, 79140, Note_on_c, 0, 76, 0
2, 79140, Note_on_c, 0, 76, 88
2, 79200, Note_on_c, 0, 76, 0
2, 79200, Note_on_c, 0, 76, 92
2, 79320, Note_on_c, 0, 76, 0
2, 79320, Note_on_c, 0, 77, 80
2, 79380, Note_on_c, 0, 77, 0
2, 79380, Note_on_c, 0, 76, 80
2, 79440, Note_on_c, 0, 76, 0
2, 79440, Note_on_c, 0, 74, 80
2, 79500, Note_on_c, 0, 74, 0
2, 79500, Note_on_c, 0, 72, 80
2, 79560, Note_on_c, 0, 72, 0
2, 79560, Note_on_c, 0, 71, 80
2, 79620, Note_on_c, 0, 71, 0
2, 79620, Note_on_c, 0, 69, 80
2, 79680, Note_on_c, 0, 69, 0
2, 79680, Note_on_c, 0, 69, 80
2, 79737, Note_on_c, 0, 69, 0
2, 79740, Note_on_c, 0, 68, 80
2, 79884, Note_on_c, 0, 68, 0
2, 79920, Note_on_c, 0, 68, 80
2, 80400, Note_on_c, 0, 68, 0
2, 80400, Note_on_c, 0, 74, 80
2, 80580, Note_on_c, 0, 74, 0
2, 80580, Note_on_c, 0, 71, 80
2, 80640, Note_on_c, 0, 71, 0
2, 80640, Note_on_c, 0, 76, 80
2, 80640, Note_on_c, 0, 72, 80
2, 80820, Note_on_c, 0, 72, 0
2, 80820, Note_on_c, 0, 76, 0
2, 80820, Note_on_c, 0, 72, 80
2, 80820, Note_on_c, 0, 69, 80
2, 80880, Note_on_c, 0, 69, 0
2, 80880, Note_on_c, 0, 72, 0
2, 80880, Note_on_c, 0, 76, 80
2, 80880, Note_on_c, 0, 72, 80
2, 81120, Note_on_c, 0, 72, 0
2, 81120, Note_on_c, 0, 76, 0
2, 81240, Note_on_c, 0, 72, 64
2, 81240, Note_on_c, 0, 69, 64
2, 81276, Note_on_c, 0, 69, 0
2, 81276, Note_on_c, 0, 72, 0
2, 81360, Note_on_c, 0, 74, 64
2, 81360, Note_on_c, 0, 71, 64
2, 81396, Note_on_c, 0, 71, 0
2, 81396, Note_on_c, 0, 74, 0
2, 81480, Note_on_c, 0, 76, 64
2, 81480, Note_on_c, 0, 72, 64
2, 81516, Note_on_c, 0, 72, 0
2, 81516, Note_on_c, 0, 76, 0
2, 81600, Note_on_c, 0, 76, 72
2, 81600, Note_on_c, 0, 73, 72
2, 81840, Note_on_c, 0, 73, 0
2, 81840, Note_on_c, 0, 76, 0
2, 81840, Note_on_c, 0, 77, 64
2, 81840, Note_on_c, 0, 74, 64
2, 82065, Note_on_c, 0, 74, 0
2, 82065, Note_on_c, 0, 77, 0
2, 82200, Note_on_c, 0, 71, 56
2, 82200, Note_on_c, 0, 67, 56
2, 82320, Note_on_c, 0, 67, 0
2, 82320, Note_on_c, 0, 71, 0
2, 82320, Note_on_c, 0, 72, 56
2, 82320, Note_on_c, 0, 69, 56
2, 82356, Note_on_c, 0, 69, 0
2, 82356, Note_on_c, 0, 72, 0
2, 82440, Note_on_c, 0, 74, 56
2, 82440, Note_on_c, 0, 71, 56
2, 82476, Note_on_c, 0, 71, 0
2, 82476, Note_on_c, 0, 74, 0
2, 82560, Note_on_c, 0, 75, 64
2, 82560, Note_on_c, 0, 71, 64
2, 82800, Note_on_c, 0, 71, 0
2, 82800, Note_on_c, 0, 75, 0
2, 82800, Note_on_c, 0, 76, 56
2, 82800, Note_on_c, 0, 72, 56
2, 83025, Note_on_c, 0, 72, 0
2, 83025, Note_on_c, 0, 76, 0
2, 83160, Note_on_c, 0, 69, 48
2, 83160, Note_on_c, 0, 65, 48
2, 83280, Note_on_c, 0, 65, 0
2, 83280, Note_on_c, 0, 69, 0
2, 83280, Note_on_c, 0, 71, 48
2, 83280, Note_on_c, 0, 68, 48
2, 83400, Note_on_c, 0, 68, 0
2, 83400, Note_on_c, 0, 71, 0
2, 83400, Note_on_c, 0, 72, 48
2, 83400, Note_on_c, 0, 69, 48
2, 83436, Note_on_c, 0, 69, 0
2, 83436, Note_on_c, 0, 72, 0
2, 83520, Note_on_c, 0, 72, 56
2, 83700, Note_on_c, 0, 72, 0
2, 83700, Note_on_c, 0, 71, 48
2, 83760, Note_on_c, 0, 71, 0
2, 83760, Note_on_c, 0, 77, 48
2, 83940, Note_on_c, 0, 77, 0
2, 83940, Note_on_c, 0, 74, 48
2, 84000, Note_on_c, 0, 74, 0
2, 84000, Note_on_c, 0, 72, 48
2, 84180, Note_on_c, 0, 72, 0
2, 84180, Note_on_c, 0, 76, 48
2, 84240, Note_on_c, 0, 76, 0
2, 84240, Note_on_c, 0, 74, 48
2, 84420, Note_on_c, 0, 74, 0
2, 84420, Note_on_c, 0, 71, 48
2, 84480, Note_on_c, 0, 71, 0
2, 84480, Note_on_c, 0, 72, 48
2, 84540, Note_on_c, 0, 72, 0
2, 84540, Note_on_c, 0, 81, 48
2, 84600, Note_on_c, 0, 81, 0
2, 84600, Note_on_c, 0, 72, 48
2, 84660, Note_on_c, 0, 72, 0
2, 84660, Note_on_c, 0, 81, 48
2, 84720, Note_on_c, 0, 81, 0
2, 84720, Note_on_c, 0, 72, 48
2, 84780, Note_on_c, 0, 72, 0
2, 84780, Note_on_c, 0, 81, 48
2, 84840, Note_on_c, 0, 81, 0
2, 84840, Note_on_c, 0, 72, 48
2, 84900, Note_on_c, 0, 72, 0
2, 84900, Note_on_c, 0, 81, 48
2, 84960, Note_on_c, 0, 81, 0
2, 84960, Note_on_c, 0, 72, 48
2, 85020, Note_on_c, 0, 72, 0
2, 85020, Note_on_c, 0, 81, 48
2, 85080, Note_on_c, 0, 81, 0
2, 85080, Note_on_c, 0, 72, 48
2, 85140, Note_on_c, 0, 72, 0
2, 85140, Note_on_c, 0, 81, 48
2, 85200, Note_on_c, 0, 81, 0
2, 85200, Note_on_c, 0, 72, 48
2, 85260, Note_on_c, 0, 72, 0
2, 85260, Note_on_c, 0, 81, 48
2, 85320, Note_on_c, 0, 81, 0
2, 85320, Note_on_c, 0, 72, 48
2, 85380, Note_on_c, 0, 72, 0
2, 85380, Note_on_c, 0, 81, 48
2, 85440, Note_on_c, 0, 81, 0
2, 85440, Note_on_c, 0, 71, 48
2, 85500, Note_on_c, 0, 71, 0
2, 85500, Note_on_c, 0, 81, 48
2, 85560, Note_on_c, 0, 81, 0
2, 85560, Note_on_c, 0, 71, 48
2, 85620, Note_on_c, 0, 71, 0
2, 85620, Note_on_c, 0, 81, 48
2, 85680, Note_on_c, 0, 81, 0
2, 85680, Note_on_c, 0, 71, 48
2, 85740, Note_on_c, 0, 71, 0
2, 85740, Note_on_c, 0, 81, 48
2, 85800, Note_on_c, 0, 81, 0
2, 85800, Note_on_c, 0, 71, 48
2, 85860, Note_on_c, 0, 71, 0
2, 85860, Note_on_c, 0, 81, 48
2, 85920, Note_on_c, 0, 81, 0
2, 85920, Note_on_c, 0, 71, 48
2, 85980, Note_on_c, 0, 71, 0
2, 85980, Note_on_c, 0, 79, 48
2, 86040, Note_on_c, 0, 79, 0
2, 86040, Note_on_c, 0, 71, 48
2, 86100, Note_on_c, 0, 71, 0
2, 86100, Note_on_c, 0, 79, 48
2, 86160, Note_on_c, 0, 79, 0
2, 86160, Note_on_c, 0, 70, 48
2, 86220, Note_on_c, 0, 70, 0
2, 86220, Note_on_c, 0, 79, 48
2, 86280, Note_on_c, 0, 79, 0
2, 86280, Note_on_c, 0, 70, 48
2, 86340, Note_on_c, 0, 70, 0
2, 86340, Note_on_c, 0, 79, 48
2, 86400, Note_on_c, 0, 79, 0
2, 86400, Note_on_c, 0, 69, 48
2, 86460, Note_on_c, 0, 69, 0
2, 86460, Note_on_c, 0, 79, 48
2, 86520, Note_on_c, 0, 79, 0
2, 86520, Note_on_c, 0, 69, 48
2, 86580, Note_on_c, 0, 69, 0
2, 86580, Note_on_c, 0, 79, 48
2, 86640, Note_on_c, 0, 79, 0
2, 86640, Note_on_c, 0, 69, 48
2, 86700, Note_on_c, 0, 69, 0
2, 86700, Note_on_c, 0, 79, 48
2, 86760, Note_on_c, 0, 79, 0
2, 86760, Note_on_c, 0, 69, 48
2, 86820, Note_on_c, 0, 69, 0
2, 86820, Note_on_c, 0, 79, 48
2, 86880, Note_on_c, 0, 79, 0
2, 86880, Note_on_c, 0, 69, 48
2, 86940, Note_on_c, 0, 69, 0
2, 86940, Note_on_c, 0, 77, 48
2, 87000, Note_on_c, 0, 77, 0
2, 87000, Note_on_c, 0, 69, 48
2, 87060, Note_on_c, 0, 69, 0
2, 87060, Note_on_c, 0, 77, 48
2, 87120, Note_on_c, 0, 77, 0
2, 87120, Note_on_c, 0, 69, 48
2, 87180, Note_on_c, 0, 69, 0
2, 87180, Note_on_c, 0, 77, 48
2, 87240, Note_on_c, 0, 77, 0
2, 87240, Note_on_c, 0, 69, 48
2, 87300, Note_on_c, 0, 69, 0
2, 87300, Note_on_c, 0, 77, 48
2, 87360, Note_on_c, 0, 77, 0
2, 87360, Note_on_c, 0, 67, 48
2, 87420, Note_on_c, 0, 67, 0
2, 87420, Note_on_c, 0, 77, 48
2, 87480, Note_on_c, 0, 77, 0
2, 87480, Note_on_c, 0, 67, 48
2, 87540, Note_on_c, 0, 67, 0
2, 87540, Note_on_c, 0, 77, 48
2, 87600, Note_on_c, 0, 77, 0
2, 87600, Note_on_c, 0, 67, 48
2, 87660, Note_on_c, 0, 67, 0
2, 87660, Note_on_c, 0, 77, 48
2, 87720, Note_on_c, 0, 77, 0
2, 87720, Note_on_c, 0, 67, 48
2, 87780, Note_on_c, 0, 67, 0
2, 87780, Note_on_c, 0, 77, 48
2, 87840, Note_on_c, 0, 77, 0
2, 87840, Note_on_c, 0, 67, 48
2, 87900, Note_on_c, 0, 67, 0
2, 87900, Note_on_c, 0, 76, 48
2, 87960, Note_on_c, 0, 76, 0
2, 87960, Note_on_c, 0, 67, 48
2, 88020, Note_on_c, 0, 67, 0
2, 88020, Note_on_c, 0, 76, 48
2, 88080, Note_on_c, 0, 76, 0
2, 88080, Note_on_c, 0, 67, 48
2, 88140, Note_on_c, 0, 67, 0
2, 88140, Note_on_c, 0, 76, 48
2, 88200, Note_on_c, 0, 76, 0
2, 88200, Note_on_c, 0, 67, 48
2, 88260, Note_on_c, 0, 67, 0
2, 88260, Note_on_c, 0, 76, 48
2, 88320, Note_on_c, 0, 76, 0
2, 88320, Note_on_c, 0, 65, 48
2, 88380, Note_on_c, 0, 65, 0
2, 88380, Note_on_c, 0, 76, 48
2, 88440, Note_on_c, 0, 76, 0
2, 88440, Note_on_c, 0, 65, 48
2, 88500, Note_on_c, 0, 65, 0
2, 88500, Note_on_c, 0, 76, 48
2, 88560, Note_on_c, 0, 76, 0
2, 88560, Note_on_c, 0, 65, 48
2, 88620, Note_on_c, 0, 65, 0
2, 88620, Note_on_c, 0, 76, 48
2, 88680, Note_on_c, 0, 76, 0
2, 88680, Note_on_c, 0, 65, 48
2, 88740, Note_on_c, 0, 65, 0
2, 88740, Note_on_c, 0, 76, 48
2, 88800, Note_on_c, 0, 76, 0
2, 88800, Note_on_c, 0, 65, 48
2, 88860, Note_on_c, 0, 65, 0
2, 88860, Note_on_c, 0, 74, 48
2, 88920, Note_on_c, 0, 74, 0
2, 88920, Note_on_c, 0, 65, 48
2, 88980, Note_on_c, 0, 65, 0
2, 88980, Note_on_c, 0, 74, 48
2, 89040, Note_on_c, 0, 74, 0
2, 89040, Note_on_c, 0, 65, 48
2, 89100, Note_on_c, 0, 65, 0
2, 89100, Note_on_c, 0, 74, 48
2, 89160, Note_on_c, 0, 74, 0
2, 89160, Note_on_c, 0, 65, 48
2, 89220, Note_on_c, 0, 65, 0
2, 89220, Note_on_c, 0, 74, 48
2, 89280, Note_on_c, 0, 74, 0
2, 89280, Note_on_c, 0, 64, 48
2, 89340, Note_on_c, 0, 64, 0
2, 89340, Note_on_c, 0, 74, 50
2, 89400, Note_on_c, 0, 74, 0
2, 89400, Note_on_c, 0, 64, 52
2, 89460, Note_on_c, 0, 64, 0
2, 89460, Note_on_c, 0, 74, 54
2, 89520, Note_on_c, 0, 74, 0
2, 89520, Note_on_c, 0, 64, 56
2, 89580, Note_on_c, 0, 64, 0
2, 89580, Note_on_c, 0, 72, 58
2, 89640, Note_on_c, 0, 72, 0
2, 89640, Note_on_c, 0, 64, 60
2, 89700, Note_on_c, 0, 64, 0
2, 89700, Note_on_c, 0, 72, 62
2, 89760, Note_on_c, 0, 72, 0
2, 89760, Note_on_c, 0, 64, 64
2, 89820, Note_on_c, 0, 64, 0
2, 89820, Note_on_c, 0, 71, 66
2, 89880, Note_on_c, 0, 71, 0
2, 89880, Note_on_c, 0, 64, 68
2, 89940, Note_on_c, 0, 64, 0
2, 89940, Note_on_c, 0, 71, 70
2, 90000, Note_on_c, 0, 71, 0
2, 90000, Note_on_c, 0, 71, 72
2, 90000, Note_on_c, 0, 64, 72
2, 90060, Note_on_c, 0, 64, 0
2, 90060, Note_on_c, 0, 71, 0
2, 90060, Note_on_c, 0, 76, 74
2, 90120, Note_on_c, 0, 76, 0
2, 90120, Note_on_c, 0, 71, 76
2, 90120, Note_on_c, 0, 64, 76
2, 90180, Note_on_c, 0, 64, 0
2, 90180, Note_on_c, 0, 71, 0
2, 90180, Note_on_c, 0, 76, 78
2, 90240, Note_on_c, 0, 76, 0
2, 90240, Note_on_c, 0, 69, 80
2, 90240, Note_on_c, 0, 76, 80
2, 90360, Note_on_c, 0, 76, 0
2, 90360, Note_on_c, 0, 75, 76
2, 90480, Note_on_c, 0, 75, 0
2, 90480, Note_on_c, 0, 69, 0
2, 90600, Note_on_c, 0, 69, 68
2, 90600, Note_on_c, 0, 74, 68
2, 90660, Note_on_c, 0, 74, 0
2, 90660, Note_on_c, 0, 69, 0
2, 90720, Note_on_c, 0, 69, 64
2, 90720, Note_on_c, 0, 74, 64
2, 90840, Note_on_c, 0, 74, 0
2, 90840, Note_on_c, 0, 73, 60
2, 90960, Note_on_c, 0, 73, 0
2, 90960, Note_on_c, 0, 69, 0
2, 91080, Note_on_c, 0, 69, 52
2, 91080, Note_on_c, 0, 72, 52
2, 91140, Note_on_c, 0, 72, 0
2, 91140, Note_on_c, 0, 69, 0
2, 91200, Note_on_c, 0, 69, 48
2, 91200, Note_on_c, 0, 70, 48
2, 91320, Note_on_c, 0, 70, 0
2, 91320, Note_on_c, 0, 71, 50
2, 91440, Note_on_c, 0, 71, 0
2, 91440, Note_on_c, 0, 69, 0
2, 91560, Note_on_c, 0, 69, 54
2, 91560, Note_on_c, 0, 73, 54
2, 91620, Note_on_c, 0, 73, 0
2, 91620, Note_on_c, 0, 69, 0
2, 91800, Note_on_c, 0, 69, 58
2, 91800, Note_on_c, 0, 74, 58
2, 91860, Note_on_c, 0, 74, 0
2, 91860, Note_on_c, 0, 69, 0
2, 92040, Note_on_c, 0, 69, 62
2, 92040, Note_on_c, 0, 76, 62
2, 92160, Note_on_c, 0, 76, 0
2, 92160, Note_on_c, 0, 69, 0
2, 92160, Note_on_c, 0, 69, 64
2, 92160, Note_on_c, 0, 79, 72
2, 92280, Note_on_c, 0, 79, 0
2, 92280, Note_on_c, 0, 77, 62
2, 92520, Note_on_c, 0, 77, 0
2, 92520, Note_on_c, 0, 76, 58
2, 92640, Note_on_c, 0, 76, 0
2, 92640, Note_on_c, 0, 74, 56
2, 92760, Note_on_c, 0, 74, 0
2, 92760, Note_on_c, 0, 72, 54
2, 92880, Note_on_c, 0, 72, 0
2, 92880, Note_on_c, 0, 69, 0
2, 92880, Note_on_c, 0, 66, 52
2, 92880, Note_on_c, 0, 71, 52
2, 93000, Note_on_c, 0, 71, 0
2, 93000, Note_on_c, 0, 69, 50
2, 93120, Note_on_c, 0, 69, 0
2, 93120, Note_on_c, 0, 66, 0
2, 93120, Note_on_c, 0, 68, 80
2, 93150, Note_on_c, 0, 71, 80
2, 93180, Note_on_c, 0, 76, 80
2, 93360, Note_on_c, 0, 76, 0
2, 93360, Note_on_c, 0, 71, 0
2, 93360, Note_on_c, 0, 68, 0
2, 93360, Note_on_c, 0, 76, 80
2, 93450, Note_on_c, 0, 76, 0
2, 93540, Note_on_c, 0, 76, 80
2, 93570, Note_on_c, 0, 76, 0
2, 93600, Note_on_c, 0, 76, 80
2, 93840, Note_on_c, 0, 76, 0
2, 93840, Note_on_c, 0, 76, 80
2, 94080, Note_on_c, 0, 76, 0
2, 94080, Note_on_c, 0, 81, 88
2, 94080, Note_on_c, 0, 69, 80
2, 94440, Note_on_c, 0, 81, 0
2, 94440, Note_on_c, 0, 79, 80
2, 94500, Note_on_c, 0, 79, 0
2, 94500, Note_on_c, 0, 77, 80
2, 94560, Note_on_c, 0, 77, 0
2, 94560, Note_on_c, 0, 76, 80
2, 94800, Note_on_c, 0, 76, 0
2, 94800, Note_on_c, 0, 75, 80
2, 95040, Note_on_c, 0, 75, 0
2, 95040, Note_on_c, 0, 69, 0
2, 95040, Note_on_c, 0, 68, 40
2, 95070, Note_on_c, 0, 71, 40
2, 95100, Note_on_c, 0, 76, 40
2, 95280, Note_on_c, 0, 76, 0
2, 95280, Note_on_c, 0, 71, 0
2, 95280, Note_on_c, 0, 68, 0
2, 95280, Note_on_c, 0, 76, 40
2, 95370, Note_on_c, 0, 76, 0
2, 95460, Note_on_c, 0, 76, 40
2, 95490, Note_on_c, 0, 76, 0
2, 95520, Note_on_c, 0, 76, 40
2, 95760, Note_on_c, 0, 76, 0
2, 95760, Note_on_c, 0, 76, 40
2, 95940, Note_on_c, 0, 69, 48
2, 96000, Note_on_c, 0, 76, 0
2, 96000, Note_on_c, 0, 81, 64
2, 96360, Note_on_c, 0, 81, 0
2, 96360, Note_on_c, 0, 79, 40
2, 96420, Note_on_c, 0, 79, 0
2, 96420, Note_on_c, 0, 77, 40
2, 96480, Note_on_c, 0, 77, 0
2, 96480, Note_on_c, 0, 76, 40
2, 96720, Note_on_c, 0, 76, 0
2, 96720, Note_on_c, 0, 75, 40
2, 96960, Note_on_c, 0, 75, 0
2, 96960, Note_on_c, 0, 69, 0
2, 96960, Note_on_c, 0, 76, 80
2, 97020, Note_on_c, 0, 76, 0
2, 97020, Note_on_c, 0, 71, 80
2, 97038, Note_on_c, 0, 71, 0
2, 97080, Note_on_c, 0, 68, 80
2, 97098, Note_on_c, 0, 68, 0
2, 97140, Note_on_c, 0, 71, 80
2, 97158, Note_on_c, 0, 71, 0
2, 97200, Note_on_c, 0, 76, 80
2, 97260, Note_on_c, 0, 76, 0
2, 97260, Note_on_c, 0, 72, 80
2, 97320, Note_on_c, 0, 72, 0
2, 97320, Note_on_c, 0, 69, 80
2, 97380, Note_on_c, 0, 69, 0
2, 97380, Note_on_c, 0, 72, 80
2, 97440, Note_on_c, 0, 72, 0
2, 97440, Note_on_c, 0, 76, 80
2, 97500, Note_on_c, 0, 76, 0
2, 97500, Note_on_c, 0, 71, 80
2, 97518, Note_on_c, 0, 71, 0
2, 97560, Note_on_c, 0, 68, 80
2, 97578, Note_on_c, 0, 68, 0
2, 97620, Note_on_c, 0, 71, 80
2, 97638, Note_on_c, 0, 71, 0
2, 97680, Note_on_c, 0, 76, 80
2, 97740, Note_on_c, 0, 76, 0
2, 97740, Note_on_c, 0, 72, 80
2, 97800, Note_on_c, 0, 72, 0
2, 97800, Note_on_c, 0, 69, 80
2, 97860, Note_on_c, 0, 69, 0
2, 97860, Note_on_c, 0, 72, 80
2, 97920, Note_on_c, 0, 72, 0
2, 97920, Note_on_c, 0, 76, 80
2, 97980, Note_on_c, 0, 76, 0
2, 97980, Note_on_c, 0, 71, 80
2, 97998, Note_on_c, 0, 71, 0
2, 98040, Note_on_c, 0, 68, 80
2, 98058, Note_on_c, 0, 68, 0
2, 98100, Note_on_c, 0, 71, 80
2, 98118, Note_on_c, 0, 71, 0
2, 98160, Note_on_c, 0, 76, 80
2, 98220, Note_on_c, 0, 76, 0
2, 98220, Note_on_c, 0, 72, 80
2, 98280, Note_on_c, 0, 72, 0
2, 98280, Note_on_c, 0, 69, 80
2, 98340, Note_on_c, 0, 69, 0
2, 98340, Note_on_c, 0, 72, 80
2, 98400, Note_on_c, 0, 72, 0
2, 98400, Note_on_c, 0, 71, 80
2, 98400, Note_on_c, 0, 68, 80
2, 98460, Note_on_c, 0, 71, 0
2, 98460, Note_on_c, 0, 76, 80
2, 98520, Note_on_c, 0, 76, 0
2, 98520, Note_on_c, 0, 68, 0
2, 98520, Note_on_c, 0, 72, 80
2, 98520, Note_on_c, 0, 69, 80
2, 98580, Note_on_c, 0, 72, 0
2, 98580, Note_on_c, 0, 76, 80
2, 98640, Note_on_c, 0, 76, 0
2, 98640, Note_on_c, 0, 69, 0
2, 98640, Note_on_c, 0, 71, 80
2, 98640, Note_on_c, 0, 68, 80
2, 98700, Note_on_c, 0, 71, 0
2, 98700, Note_on_c, 0, 76, 80
2, 98760, Note_on_c, 0, 76, 0
2, 98760, Note_on_c, 0, 68, 0
2, 98760, Note_on_c, 0, 72, 80
2, 98760, Note_on_c, 0, 69, 80
2, 98820, Note_on_c, 0, 72, 0
2, 98820, Note_on_c, 0, 76, 80
2, 98880, Note_on_c, 0, 76, 0
2, 98880, Note_on_c, 0, 69, 0
2, 98880, Note_on_c, 0, 71, 80
2, 98880, Note_on_c, 0, 68, 80
2, 99000, Note_on_c, 0, 68, 0
2, 99000, Note_on_c, 0, 71, 0
2, 99120, Note_on_c, 0, 76, 88
2, 99120, Note_on_c, 0, 71, 88
2, 99120, Note_on_c, 0, 68, 88
2, 99120, Note_on_c, 0, 64, 88
2, 99360, Note_on_c, 0, 64, 0
2, 99360, Note_on_c, 0, 76, 0
2, 99360, Note_on_c, 0, 71, 0
2, 99360, Note_on_c, 0, 68, 0
2, 99480, Note_on_c, 0, 76, 56
2, 99516, Note_on_c, 0, 76, 0
2, 99600, Note_on_c, 0, 78, 56
2, 99636, Note_on_c, 0, 78, 0
2, 99720, Note_on_c, 0, 80, 56
2, 99756, Note_on_c, 0, 80, 0
2, 99840, Note_on_c, 0, 81, 56
2, 99900, Note_on_c, 0, 81, 0
2, 99900, Note_on_c, 0, 83, 56
2, 99930, Note_on_c, 0, 83, 0
2, 99960, Note_on_c, 0, 80, 56
2, 99990, Note_on_c, 0, 80, 0
2, 100020, Note_on_c, 0, 83, 56
2, 100050, Note_on_c, 0, 83, 0
2, 100080, Note_on_c, 0, 81, 56
2, 100140, Note_on_c, 0, 81, 0
2, 100140, Note_on_c, 0, 83, 56
2, 100170, Note_on_c, 0, 83, 0
2, 100200, Note_on_c, 0, 80, 56
2, 100230, Note_on_c, 0, 80, 0
2, 100260, Note_on_c, 0, 83, 56
2, 100290, Note_on_c, 0, 83, 0
2, 100320, Note_on_c, 0, 81, 56
2, 100380, Note_on_c, 0, 81, 0
2, 100380, Note_on_c, 0, 83, 56
2, 100440, Note_on_c, 0, 83, 0
2, 100440, Note_on_c, 0, 79, 56
2, 100500, Note_on_c, 0, 79, 0
2, 100500, Note_on_c, 0, 81, 56
2, 100560, Note_on_c, 0, 81, 0
2, 100560, Note_on_c, 0, 77, 56
2, 100620, Note_on_c, 0, 77, 0
2, 100620, Note_on_c, 0, 79, 56
2, 100680, Note_on_c, 0, 79, 0
2, 100680, Note_on_c, 0, 76, 56
2, 100740, Note_on_c, 0, 76, 0
2, 100740, Note_on_c, 0, 77, 56
2, 100800, Note_on_c, 0, 77, 0
2, 100800, Note_on_c, 0, 74, 56
2, 100860, Note_on_c, 0, 74, 0
2, 100860, Note_on_c, 0, 76, 56
2, 100920, Note_on_c, 0, 76, 0
2, 100920, Note_on_c, 0, 73, 56
2, 100980, Note_on_c, 0, 73, 0
2, 100980, Note_on_c, 0, 76, 56
2, 101040, Note_on_c, 0, 76, 0
2, 101040, Note_on_c, 0, 74, 56
2, 101100, Note_on_c, 0, 74, 0
2, 101100, Note_on_c, 0, 76, 56
2, 101130, Note_on_c, 0, 76, 0
2, 101160, Note_on_c, 0, 73, 56
2, 101190, Note_on_c, 0, 73, 0
2, 101220, Note_on_c, 0, 76, 56
2, 101250, Note_on_c, 0, 76, 0
2, 101280, Note_on_c, 0, 74, 56
2, 101340, Note_on_c, 0, 74, 0
2, 101340, Note_on_c, 0, 76, 56
2, 101400, Note_on_c, 0, 76, 0
2, 101400, Note_on_c, 0, 72, 56
2, 101460, Note_on_c, 0, 72, 0
2, 101460, Note_on_c, 0, 74, 56
2, 101520, Note_on_c, 0, 74, 0
2, 101520, Note_on_c, 0, 71, 56
2, 101580, Note_on_c, 0, 71, 0
2, 101580, Note_on_c, 0, 72, 56
2, 101640, Note_on_c, 0, 72, 0
2, 101640, Note_on_c, 0, 69, 56
2, 101700, Note_on_c, 0, 69, 0
2, 101700, Note_on_c, 0, 71, 56
2, 101760, Note_on_c, 0, 71, 0
2, 101760, Note_on_c, 0, 68, 56
2, 101820, Note_on_c, 0, 68, 0
2, 101820, Note_on_c, 0, 71, 56
2, 101880, Note_on_c, 0, 71, 0
2, 101880, Note_on_c, 0, 69, 56
2, 101940, Note_on_c, 0, 69, 0
2, 101940, Note_on_c, 0, 71, 56
2, 102000, Note_on_c, 0, 71, 0
2, 102000, Note_on_c, 0, 68, 56
2, 102060, Note_on_c, 0, 68, 0
2, 102060, Note_on_c, 0, 71, 56
2, 102120, Note_on_c, 0, 71, 0
2, 102120, Note_on_c, 0, 69, 56
2, 102150, Note_on_c, 0, 69, 0
2, 102180, Note_on_c, 0, 71, 56
2, 102210, Note_on_c, 0, 71, 0
2, 102240, Note_on_c, 0, 68, 56
2, 102300, Note_on_c, 0, 68, 0
2, 102300, Note_on_c, 0, 71, 56
2, 102360, Note_on_c, 0, 71, 0
2, 102360, Note_on_c, 0, 65, 56
2, 102420, Note_on_c, 0, 65, 0
2, 102420, Note_on_c, 0, 71, 56
2, 102480, Note_on_c, 0, 71, 0
2, 102480, Note_on_c, 0, 64, 56
2, 102540, Note_on_c, 0, 64, 0
2, 102540, Note_on_c, 0, 71, 56
2, 102600, Note_on_c, 0, 71, 0
2, 102600, Note_on_c, 0, 62, 56
2, 102660, Note_on_c, 0, 62, 0
2, 102660, Note_on_c, 0, 71, 56
2, 102720, Note_on_c, 0, 71, 0
2, 102720, Note_on_c, 0, 60, 56
2, 102780, Note_on_c, 0, 60, 0
2, 102780, Note_on_c, 0, 64, 57
2, 102840, Note_on_c, 0, 64, 0
2, 102840, Note_on_c, 0, 63, 58
2, 102900, Note_on_c, 0, 63, 0
2, 102900, Note_on_c, 0, 64, 59
2, 102960, Note_on_c, 0, 64, 0
2, 102960, Note_on_c, 0, 65, 60
2, 103020, Note_on_c, 0, 65, 0
2, 103020, Note_on_c, 0, 64, 61
2, 103080, Note_on_c, 0, 64, 0
2, 103080, Note_on_c, 0, 68, 62
2, 103140, Note_on_c, 0, 68, 0
2, 103140, Note_on_c, 0, 64, 63
2, 103200, Note_on_c, 0, 64, 0
2, 103200, Note_on_c, 0, 69, 64
2, 103260, Note_on_c, 0, 69, 0
2, 103260, Note_on_c, 0, 64, 65
2, 103320, Note_on_c, 0, 64, 0
2, 103320, Note_on_c, 0, 71, 66
2, 103380, Note_on_c, 0, 71, 0
2, 103380, Note_on_c, 0, 64, 67
2, 103440, Note_on_c, 0, 64, 0
2, 103440, Note_on_c, 0, 72, 68
2, 103500, Note_on_c, 0, 72, 0
2, 103500, Note_on_c, 0, 64, 69
2, 103560, Note_on_c, 0, 64, 0
2, 103560, Note_on_c, 0, 74, 70
2, 103578, Note_on_c, 0, 74, 0
2, 103620, Note_on_c, 0, 64, 71
2, 103638, Note_on_c, 0, 64, 0
2, 103680, Note_on_c, 0, 76, 56
2, 103740, Note_on_c, 0, 76, 0
2, 103740, Note_on_c, 0, 77, 57
2, 103770, Note_on_c, 0, 77, 0
2, 103800, Note_on_c, 0, 75, 58
2, 103830, Note_on_c, 0, 75, 0
2, 103860, Note_on_c, 0, 77, 59
2, 103890, Note_on_c, 0, 77, 0
2, 103920, Note_on_c, 0, 76, 60
2, 103980, Note_on_c, 0, 76, 0
2, 103980, Note_on_c, 0, 77, 61
2, 104010, Note_on_c, 0, 77, 0
2, 104040, Note_on_c, 0, 75, 62
2, 104070, Note_on_c, 0, 75, 0
2, 104100, Note_on_c, 0, 77, 63
2, 104130, Note_on_c, 0, 77, 0
2, 104160, Note_on_c, 0, 76, 64
2, 104220, Note_on_c, 0, 76, 0
2, 104220, Note_on_c, 0, 81, 65
2, 104280, Note_on_c, 0, 81, 0
2, 104280, Note_on_c, 0, 80, 66
2, 104340, Note_on_c, 0, 80, 0
2, 104340, Note_on_c, 0, 81, 67
2, 104400, Note_on_c, 0, 81, 0
2, 104400, Note_on_c, 0, 83, 68
2, 104460, Note_on_c, 0, 83, 0
2, 104460, Note_on_c, 0, 81, 69
2, 104520, Note_on_c, 0, 81, 0
2, 104520, Note_on_c, 0, 80, 70
2, 104580, Note_on_c, 0, 80, 0
2, 104580, Note_on_c, 0, 81, 71
2, 104640, Note_on_c, 0, 81, 0
2, 104640, Note_on_c, 0, 79, 72
2, 104700, Note_on_c, 0, 79, 0
2, 104700, Note_on_c, 0, 77, 67
2, 104760, Note_on_c, 0, 77, 0
2, 104760, Note_on_c, 0, 76, 63
2, 104820, Note_on_c, 0, 76, 0
2, 104820, Note_on_c, 0, 77, 58
2, 104880, Note_on_c, 0, 77, 0
2, 104880, Note_on_c, 0, 76, 56
2, 104940, Note_on_c, 0, 76, 0
2, 104940, Note_on_c, 0, 74, 56
2, 105000, Note_on_c, 0, 74, 0
2, 105000, Note_on_c, 0, 73, 56
2, 105060, Note_on_c, 0, 73, 0
2, 105060, Note_on_c, 0, 74, 56
2, 105120, Note_on_c, 0, 74, 0
2, 105120, Note_on_c, 0, 72, 56
2, 105180, Note_on_c, 0, 72, 0
2, 105180, Note_on_c, 0, 70, 56
2, 105240, Note_on_c, 0, 70, 0
2, 105240, Note_on_c, 0, 69, 56
2, 105300, Note_on_c, 0, 69, 0
2, 105300, Note_on_c, 0, 70, 56
2, 105360, Note_on_c, 0, 70, 0
2, 105360, Note_on_c, 0, 69, 58
2, 105420, Note_on_c, 0, 69, 0
2, 105420, Note_on_c, 0, 70, 61
2, 105480, Note_on_c, 0, 70, 0
2, 105480, Note_on_c, 0, 72, 65
2, 105540, Note_on_c, 0, 72, 0
2, 105540, Note_on_c, 0, 74, 69
2, 105600, Note_on_c, 0, 74, 0
2, 105600, Note_on_c, 0, 77, 72
2, 105660, Note_on_c, 0, 77, 0
2, 105660, Note_on_c, 0, 76, 67
2, 105720, Note_on_c, 0, 76, 0
2, 105720, Note_on_c, 0, 75, 63
2, 105780, Note_on_c, 0, 75, 0
2, 105780, Note_on_c, 0, 76, 58
2, 105840, Note_on_c, 0, 76, 0
2, 105840, Note_on_c, 0, 74, 56
2, 105900, Note_on_c, 0, 74, 0
2, 105900, Note_on_c, 0, 72, 56
2, 105960, Note_on_c, 0, 72, 0
2, 105960, Note_on_c, 0, 71, 56
2, 106020, Note_on_c, 0, 71, 0
2, 106020, Note_on_c, 0, 72, 56
2, 106080, Note_on_c, 0, 72, 0
2, 106080, Note_on_c, 0, 71, 56
2, 106140, Note_on_c, 0, 71, 0
2, 106140, Note_on_c, 0, 69, 56
2, 106200, Note_on_c, 0, 69, 0
2, 106200, Note_on_c, 0, 68, 56
2, 106260, Note_on_c, 0, 68, 0
2, 106260, Note_on_c, 0, 69, 56
2, 106320, Note_on_c, 0, 69, 0
2, 106320, Note_on_c, 0, 68, 57
2, 106380, Note_on_c, 0, 68, 0
2, 106380, Note_on_c, 0, 69, 61
2, 106440, Note_on_c, 0, 69, 0
2, 106440, Note_on_c, 0, 71, 64
2, 106500, Note_on_c, 0, 71, 0
2, 106500, Note_on_c, 0, 72, 68
2, 106560, Note_on_c, 0, 72, 0
2, 106560, Note_on_c, 0, 74, 72
2, 106620, Note_on_c, 0, 74, 0
2, 106620, Note_on_c, 0, 77, 70
2, 106680, Note_on_c, 0, 77, 0
2, 106680, Note_on_c, 0, 72, 68
2, 106740, Note_on_c, 0, 72, 0
2, 106740, Note_on_c, 0, 77, 66
2, 106800, Note_on_c, 0, 77, 0
2, 106800, Note_on_c, 0, 71, 63
2, 106860, Note_on_c, 0, 71, 0
2, 106860, Note_on_c, 0, 77, 61
2, 106920, Note_on_c, 0, 77, 0
2, 106920, Note_on_c, 0, 69, 59
2, 106980, Note_on_c, 0, 69, 0
2, 106980, Note_on_c, 0, 77, 57
2, 107040, Note_on_c, 0, 77, 0
2, 107040, Note_on_c, 0, 68, 56
2, 107100, Note_on_c, 0, 68, 0
2, 107100, Note_on_c, 0, 71, 56
2, 107160, Note_on_c, 0, 71, 0
2, 107160, Note_on_c, 0, 65, 56
2, 107220, Note_on_c, 0, 65, 0
2, 107220, Note_on_c, 0, 71, 56
2, 107280, Note_on_c, 0, 71, 0
2, 107280, Note_on_c, 0, 64, 56
2, 107340, Note_on_c, 0, 64, 0
2, 107340, Note_on_c, 0, 71, 56
2, 107400, Note_on_c, 0, 71, 0
2, 107400, Note_on_c, 0, 62, 56
2, 107460, Note_on_c, 0, 62, 0
2, 107460, Note_on_c, 0, 71, 56
2, 107520, Note_on_c, 0, 71, 0
2, 107520, Note_on_c, 0, 60, 56
2, 107580, Note_on_c, 0, 60, 0
2, 107580, Note_on_c, 0, 72, 57
2, 107640, Note_on_c, 0, 72, 0
2, 107640, Note_on_c, 0, 71, 57
2, 107700, Note_on_c, 0, 71, 0
2, 107700, Note_on_c, 0, 72, 58
2, 107760, Note_on_c, 0, 72, 0
2, 107760, Note_on_c, 0, 74, 58
2, 107820, Note_on_c, 0, 74, 0
2, 107820, Note_on_c, 0, 72, 59
2, 107880, Note_on_c, 0, 72, 0
2, 107880, Note_on_c, 0, 71, 59
2, 107940, Note_on_c, 0, 71, 0
2, 107940, Note_on_c, 0, 69, 60
2, 108000, Note_on_c, 0, 69, 0
2, 108000, Note_on_c, 0, 68, 60
2, 108060, Note_on_c, 0, 68, 0
2, 108060, Note_on_c, 0, 74, 61
2, 108120, Note_on_c, 0, 74, 0
2, 108120, Note_on_c, 0, 73, 61
2, 108180, Note_on_c, 0, 73, 0
2, 108180, Note_on_c, 0, 74, 62
2, 108240, Note_on_c, 0, 74, 0
2, 108240, Note_on_c, 0, 76, 62
2, 108300, Note_on_c, 0, 76, 0
2, 108300, Note_on_c, 0, 74, 63
2, 108360, Note_on_c, 0, 74, 0
2, 108360, Note_on_c, 0, 72, 63
2, 108420, Note_on_c, 0, 72, 0
2, 108420, Note_on_c, 0, 71, 64
2, 108480, Note_on_c, 0, 71, 0
2, 108480, Note_on_c, 0, 69, 64
2, 108540, Note_on_c, 0, 69, 0
2, 108540, Note_on_c, 0, 71, 65
2, 108600, Note_on_c, 0, 71, 0
2, 108600, Note_on_c, 0, 72, 66
2, 108660, Note_on_c, 0, 72, 0
2, 108660, Note_on_c, 0, 71, 67
2, 108720, Note_on_c, 0, 71, 0
2, 108720, Note_on_c, 0, 72, 68
2, 108780, Note_on_c, 0, 72, 0
2, 108780, Note_on_c, 0, 75, 69
2, 108840, Note_on_c, 0, 75, 0
2, 108840, Note_on_c, 0, 76, 70
2, 108900, Note_on_c, 0, 76, 0
2, 108900, Note_on_c, 0, 75, 71
2, 108960, Note_on_c, 0, 75, 0
2, 108960, Note_on_c, 0, 76, 72
2, 109020, Note_on_c, 0, 76, 0
2, 109020, Note_on_c, 0, 80, 73
2, 109080, Note_on_c, 0, 80, 0
2, 109080, Note_on_c, 0, 81, 74
2, 109140, Note_on_c, 0, 81, 0
2, 109140, Note_on_c, 0, 80, 75
2, 109200, Note_on_c, 0, 80, 0
2, 109200, Note_on_c, 0, 81, 76
2, 109260, Note_on_c, 0, 81, 0
2, 109260, Note_on_c, 0, 79, 77
2, 109320, Note_on_c, 0, 79, 0
2, 109320, Note_on_c, 0, 77, 78
2, 109380, Note_on_c, 0, 77, 0
2, 109380, Note_on_c, 0, 76, 79
2, 109440, Note_on_c, 0, 76, 0
2, 109440, Note_on_c, 0, 77, 80
2, 109500, Note_on_c, 0, 77, 0
2, 109500, Note_on_c, 0, 79, 80
2, 109560, Note_on_c, 0, 79, 0
2, 109560, Note_on_c, 0, 81, 80
2, 109620, Note_on_c, 0, 81, 0
2, 109620, Note_on_c, 0, 77, 80
2, 109680, Note_on_c, 0, 77, 0
2, 109680, Note_on_c, 0, 74, 80
2, 109740, Note_on_c, 0, 74, 0
2, 109740, Note_on_c, 0, 76, 80
2, 109800, Note_on_c, 0, 76, 0
2, 109800, Note_on_c, 0, 77, 80
2, 109818, Note_on_c, 0, 77, 0
2, 109860, Note_on_c, 0, 74, 80
2, 109878, Note_on_c, 0, 74, 0
2, 109920, Note_on_c, 0, 71, 80
2, 109980, Note_on_c, 0, 71, 0
2, 109980, Note_on_c, 0, 72, 80
2, 110040, Note_on_c, 0, 72, 0
2, 110040, Note_on_c, 0, 74, 80
2, 110100, Note_on_c, 0, 74, 0
2, 110100, Note_on_c, 0, 71, 80
2, 110160, Note_on_c, 0, 71, 0
2, 110160, Note_on_c, 0, 76, 80
2, 110220, Note_on_c, 0, 76, 0
2, 110220, Note_on_c, 0, 77, 80
2, 110280, Note_on_c, 0, 77, 0
2, 110280, Note_on_c, 0, 74, 80
2, 110298, Note_on_c, 0, 74, 0
2, 110340, Note_on_c, 0, 71, 80
2, 110358, Note_on_c, 0, 71, 0
2, 110400, Note_on_c, 0, 75, 88
2, 110460, Note_on_c, 0, 75, 0
2, 110460, Note_on_c, 0, 76, 80
2, 110520, Note_on_c, 0, 76, 0
2, 110520, Note_on_c, 0, 77, 80
2, 110580, Note_on_c, 0, 77, 0
2, 110580, Note_on_c, 0, 76, 80
2, 110640, Note_on_c, 0, 76, 0
2, 110640, Note_on_c, 0, 74, 80
2, 110700, Note_on_c, 0, 74, 0
2, 110700, Note_on_c, 0, 72, 80
2, 110760, Note_on_c, 0, 72, 0
2, 110760, Note_on_c, 0, 71, 80
2, 110820, Note_on_c, 0, 71, 0
2, 110820, Note_on_c, 0, 69, 80
2, 110880, Note_on_c, 0, 69, 0
2, 110880, Note_on_c, 0, 72, 78
2, 110910, Note_on_c, 0, 72, 0
2, 110910, Note_on_c, 0, 71, 77
2, 110940, Note_on_c, 0, 71, 0
2, 110940, Note_on_c, 0, 72, 76
2, 110970, Note_on_c, 0, 72, 0
2, 110970, Note_on_c, 0, 71, 74
2, 111000, Note_on_c, 0, 71, 0
2, 111000, Note_on_c, 0, 72, 73
2, 111030, Note_on_c, 0, 72, 0
2, 111030, Note_on_c, 0, 71, 71
2, 111060, Note_on_c, 0, 71, 0
2, 111060, Note_on_c, 0, 72, 70
2, 111090, Note_on_c, 0, 72, 0
2, 111090, Note_on_c, 0, 71, 69
2, 111120, Note_on_c, 0, 71, 0
2, 111120, Note_on_c, 0, 72, 67
2, 111150, Note_on_c, 0, 72, 0
2, 111150, Note_on_c, 0, 71, 66
2, 111180, Note_on_c, 0, 71, 0
2, 111180, Note_on_c, 0, 72, 64
2, 111210, Note_on_c, 0, 72, 0
2, 111210, Note_on_c, 0, 71, 63
2, 111240, Note_on_c, 0, 71, 0
2, 111240, Note_on_c, 0, 72, 61
2, 111270, Note_on_c, 0, 72, 0
2, 111270, Note_on_c, 0, 71, 60
2, 111300, Note_on_c, 0, 71, 0
2, 111300, Note_on_c, 0, 69, 59
2, 111330, Note_on_c, 0, 69, 0
2, 111330, Note_on_c, 0, 71, 57
2, 111360, Note_on_c, 0, 71, 0
2, 111420, Note_on_c, 0, 81, 48
2, 111438, Note_on_c, 0, 81, 0
2, 111480, Note_on_c, 0, 79, 48
2, 111498, Note_on_c, 0, 79, 0
2, 111540, Note_on_c, 0, 77, 48
2, 111558, Note_on_c, 0, 77, 0
2, 111600, Note_on_c, 0, 76, 48
2, 111660, Note_on_c, 0, 76, 0
2, 111660, Note_on_c, 0, 77, 48
2, 111678, Note_on_c, 0, 77, 0
2, 111720, Note_on_c, 0, 75, 48
2, 111738, Note_on_c, 0, 75, 0
2, 111780, Note_on_c, 0, 77, 48
2, 111798, Note_on_c, 0, 77, 0
2, 111840, Note_on_c, 0, 76, 48
2, 111900, Note_on_c, 0, 76, 0
2, 111900, Note_on_c, 0, 77, 48
2, 111918, Note_on_c, 0, 77, 0
2, 111960, Note_on_c, 0, 75, 48
2, 111978, Note_on_c, 0, 75, 0
2, 112020, Note_on_c, 0, 77, 48
2, 112038, Note_on_c, 0, 77, 0
2, 112080, Note_on_c, 0, 76, 48
2, 112140, Note_on_c, 0, 76, 0
2, 112140, Note_on_c, 0, 77, 48
2, 112200, Note_on_c, 0, 77, 0
2, 112200, Note_on_c, 0, 74, 48
2, 112260, Note_on_c, 0, 74, 0
2, 112260, Note_on_c, 0, 76, 48
2, 112320, Note_on_c, 0, 76, 0
2, 112320, Note_on_c, 0, 72, 48
2, 112380, Note_on_c, 0, 72, 0
2, 112380, Note_on_c, 0, 81, 48
2, 112440, Note_on_c, 0, 81, 0
2, 112440, Note_on_c, 0, 79, 48
2, 112500, Note_on_c, 0, 79, 0
2, 112500, Note_on_c, 0, 77, 48
2, 112560, Note_on_c, 0, 77, 0
2, 112560, Note_on_c, 0, 76, 48
2, 112620, Note_on_c, 0, 76, 0
2, 112620, Note_on_c, 0, 77, 48
2, 112680, Note_on_c, 0, 77, 0
2, 112680, Note_on_c, 0, 75, 48
2, 112740, Note_on_c, 0, 75, 0
2, 112740, Note_on_c, 0, 77, 48
2, 112800, Note_on_c, 0, 77, 0
2, 112800, Note_on_c, 0, 76, 48
2, 112860, Note_on_c, 0, 76, 0
2, 112860, Note_on_c, 0, 77, 48
2, 112920, Note_on_c, 0, 77, 0
2, 112920, Note_on_c, 0, 75, 48
2, 112980, Note_on_c, 0, 75, 0
2, 112980, Note_on_c, 0, 77, 48
2, 113040, Note_on_c, 0, 77, 0
2, 113040, Note_on_c, 0, 76, 48
2, 113100, Note_on_c, 0, 76, 0
2, 113100, Note_on_c, 0, 77, 48
2, 113160, Note_on_c, 0, 77, 0
2, 113160, Note_on_c, 0, 74, 48
2, 113220, Note_on_c, 0, 74, 0
2, 113220, Note_on_c, 0, 76, 48
2, 113280, Note_on_c, 0, 76, 0
2, 113280, Note_on_c, 0, 72, 48
2, 113340, Note_on_c, 0, 72, 0
2, 113340, Note_on_c, 0, 74, 49
2, 113400, Note_on_c, 0, 74, 0
2, 113400, Note_on_c, 0, 76, 50
2, 113460, Note_on_c, 0, 76, 0
2, 113460, Note_on_c, 0, 74, 51
2, 113520, Note_on_c, 0, 74, 0
2, 113520, Note_on_c, 0, 72, 52
2, 113580, Note_on_c, 0, 72, 0
2, 113580, Note_on_c, 0, 71, 53
2, 113640, Note_on_c, 0, 71, 0
2, 113640, Note_on_c, 0, 69, 54
2, 113700, Note_on_c, 0, 69, 0
2, 113700, Note_on_c, 0, 68, 55
2, 113760, Note_on_c, 0, 68, 0
2, 113760, Note_on_c, 0, 69, 56
2, 113820, Note_on_c, 0, 69, 0
2, 113820, Note_on_c, 0, 71, 57
2, 113880, Note_on_c, 0, 71, 0
2, 113880, Note_on_c, 0, 72, 58
2, 113940, Note_on_c, 0, 72, 0
2, 113940, Note_on_c, 0, 71, 59
2, 114000, Note_on_c, 0, 71, 0
2, 114000, Note_on_c, 0, 69, 60
2, 114060, Note_on_c, 0, 69, 0
2, 114060, Note_on_c, 0, 67, 61
2, 114120, Note_on_c, 0, 67, 0
2, 114120, Note_on_c, 0, 65, 62
2, 114180, Note_on_c, 0, 65, 0
2, 114180, Note_on_c, 0, 64, 63
2, 114240, Note_on_c, 0, 64, 0
2, 114240, Note_on_c, 0, 62, 64
2, 114300, Note_on_c, 0, 62, 0
2, 114300, Note_on_c, 0, 58, 65
2, 114318, Note_on_c, 0, 58, 0
2, 114360, Note_on_c, 0, 65, 66
2, 114378, Note_on_c, 0, 65, 0
2, 114420, Note_on_c, 0, 62, 67
2, 114438, Note_on_c, 0, 62, 0
2, 114480, Note_on_c, 0, 70, 68
2, 114540, Note_on_c, 0, 70, 0
2, 114540, Note_on_c, 0, 65, 69
2, 114600, Note_on_c, 0, 65, 0
2, 114600, Note_on_c, 0, 74, 70
2, 114660, Note_on_c, 0, 74, 0
2, 114660, Note_on_c, 0, 70, 71
2, 114720, Note_on_c, 0, 70, 0
2, 114720, Note_on_c, 0, 77, 72
2, 114780, Note_on_c, 0, 77, 0
2, 114780, Note_on_c, 0, 74, 73
2, 114798, Note_on_c, 0, 74, 0
2, 114840, Note_on_c, 0, 80, 74
2, 114858, Note_on_c, 0, 80, 0
2, 114900, Note_on_c, 0, 77, 75
2, 114918, Note_on_c, 0, 77, 0
2, 114960, Note_on_c, 0, 83, 76
2, 115020, Note_on_c, 0, 83, 0
2, 115020, Note_on_c, 0, 80, 77
2, 115080, Note_on_c, 0, 80, 0
2, 115080, Note_on_c, 0, 86, 78
2, 115140, Note_on_c, 0, 86, 0
2, 115140, Note_on_c, 0, 83, 79
2, 115200, Note_on_c, 0, 83, 0
2, 115200, Note_on_c, 0, 88, 88
2, 115260, Note_on_c, 0, 88, 0
2, 115260, Note_on_c, 0, 84, 80
2, 115320, Note_on_c, 0, 84, 0
2, 115320, Note_on_c, 0, 81, 80
2, 115380, Note_on_c, 0, 81, 0
2, 115380, Note_on_c, 0, 76, 80
2, 115440, Note_on_c, 0, 76, 0
2, 115440, Note_on_c, 0, 79, 80
2, 115500, Note_on_c, 0, 79, 0
2, 115500, Note_on_c, 0, 77, 80
2, 115518, Note_on_c, 0, 77, 0
2, 115560, Note_on_c, 0, 76, 80
2, 115578, Note_on_c, 0, 76, 0
2, 115620, Note_on_c, 0, 74, 80
2, 115638, Note_on_c, 0, 74, 0
2, 115680, Note_on_c, 0, 72, 80
2, 115920, Note_on_c, 0, 72, 0
2, 115920, Note_on_c, 0, 72, 79
2, 115950, Note_on_c, 0, 72, 0
2, 115950, Note_on_c, 0, 71, 78
2, 115980, Note_on_c, 0, 71, 0
2, 115980, Note_on_c, 0, 72, 76
2, 116010, Note_on_c, 0, 72, 0
2, 116010, Note_on_c, 0, 71, 74
2, 116040, Note_on_c, 0, 71, 0
2, 116040, Note_on_c, 0, 72, 72
2, 116070, Note_on_c, 0, 72, 0
2, 116070, Note_on_c, 0, 71, 70
2, 116100, Note_on_c, 0, 71, 0
2, 116100, Note_on_c, 0, 69, 68
2, 116130, Note_on_c, 0, 69, 0
2, 116130, Note_on_c, 0, 71, 66
2, 116160, Note_on_c, 0, 71, 0
2, 116160, Note_on_c, 0, 69, 48
2, 116220, Note_on_c, 0, 69, 0
2, 116880, Note_on_c, 0, 71, 48
2, 116880, Note_on_c, 0, 80, 48
2, 116916, Note_on_c, 0, 80, 0
2, 117000, Note_on_c, 0, 76, 48
2, 117036, Note_on_c, 0, 76, 0
2, 117036, Note_on_c, 0, 71, 0
2, 117120, Note_on_c, 0, 81, 48
2, 117120, Note_on_c, 0, 72, 48
2, 117264, Note_on_c, 0, 72, 0
2, 117264, Note_on_c, 0, 81, 0
2, 117840, Note_on_c, 0, 71, 48
2, 117840, Note_on_c, 0, 80, 48
2, 117960, Note_on_c, 0, 80, 0
2, 117960, Note_on_c, 0, 76, 48
2, 118080, Note_on_c, 0, 76, 0
2, 118080, Note_on_c, 0, 71, 0
2, 118080, Note_on_c, 0, 72, 48
2, 118080, Note_on_c, 0, 81, 48
2, 118320, Note_on_c, 0, 81, 0
2, 118320, Note_on_c, 0, 72, 0
2, 118320, Note_on_c, 0, 77, 50
2, 118350, Note_on_c, 0, 77, 0
2, 118350, Note_on_c, 0, 76, 50
2, 118380, Note_on_c, 0, 76, 0
2, 118380, Note_on_c, 0, 77, 51
2, 118410, Note_on_c, 0, 77, 0
2, 118410, Note_on_c, 0, 76, 51
2, 118440, Note_on_c, 0, 76, 0
2, 118440, Note_on_c, 0, 77, 51
2, 118470, Note_on_c, 0, 77, 0
2, 118470, Note_on_c, 0, 76, 51
2, 118500, Note_on_c, 0, 76, 0
2, 118500, Note_on_c, 0, 74, 52
2, 118530, Note_on_c, 0, 74, 0
2, 118530, Note_on_c, 0, 76, 52
2, 118560, Note_on_c, 0, 76, 0
2, 118560, Note_on_c, 0, 81, 52
2, 118800, Note_on_c, 0, 74, 54
2, 118830, Note_on_c, 0, 74, 0
2, 118830, Note_on_c, 0, 72, 54
2, 118860, Note_on_c, 0, 72, 0
2, 118860, Note_on_c, 0, 74, 55
2, 118890, Note_on_c, 0, 74, 0
2, 118890, Note_on_c, 0, 72, 55
2, 118920, Note_on_c, 0, 72, 0
2, 118920, Note_on_c, 0, 74, 55
2, 118950, Note_on_c, 0, 74, 0
2, 118950, Note_on_c, 0, 72, 55
2, 118980, Note_on_c, 0, 72, 0
2, 118980, Note_on_c, 0, 71, 56
2, 119010, Note_on_c, 0, 71, 0
2, 119010, Note_on_c, 0, 72, 56
2, 119040, Note_on_c, 0, 72, 0
2, 119040, Note_on_c, 0, 74, 56
2, 119280, Note_on_c, 0, 81, 0
2, 119280, Note_on_c, 0, 83, 60
2, 119460, Note_on_c, 0, 83, 0
2, 119460, Note_on_c, 0, 84, 63
2, 119520, Note_on_c, 0, 84, 0
2, 119520, Note_on_c, 0, 86, 64
2, 119760, Note_on_c, 0, 86, 0
2, 119760, Note_on_c, 0, 74, 0
2, 119760, Note_on_c, 0, 76, 81
2, 119760, Note_on_c, 0, 81, 81
2, 119790, Note_on_c, 0, 81, 0
2, 119790, Note_on_c, 0, 80, 82
2, 119820, Note_on_c, 0, 80, 0
2, 119820, Note_on_c, 0, 81, 83
2, 119850, Note_on_c, 0, 81, 0
2, 119850, Note_on_c, 0, 80, 84
2, 119880, Note_on_c, 0, 80, 0
2, 119880, Note_on_c, 0, 81, 85
2, 119910, Note_on_c, 0, 81, 0
2, 119910, Note_on_c, 0, 80, 86
2, 119940, Note_on_c, 0, 80, 0
2, 119940, Note_on_c, 0, 78, 86
2, 119970, Note_on_c, 0, 78, 0
2, 119970, Note_on_c, 0, 80, 87
2, 120000, Note_on_c, 0, 80, 0
2, 120000, Note_on_c, 0, 76, 0
2, 120000, Note_on_c, 0, 81, 80
2, 120000, Note_on_c, 0, 76, 80
2, 120060, Note_on_c, 0, 81, 0
2, 120060, Note_on_c, 0, 80, 80
2, 120078, Note_on_c, 0, 80, 0
2, 120120, Note_on_c, 0, 76, 0
2, 120120, Note_on_c, 0, 81, 80
2, 120138, Note_on_c, 0, 81, 0
2, 120180, Note_on_c, 0, 76, 80
2, 120198, Note_on_c, 0, 76, 0
2, 120240, Note_on_c, 0, 79, 80
2, 120240, Note_on_c, 0, 71, 80
2, 120300, Note_on_c, 0, 79, 0
2, 120300, Note_on_c, 0, 77, 80
2, 120360, Note_on_c, 0, 77, 0
2, 120360, Note_on_c, 0, 71, 0
2, 120360, Note_on_c, 0, 76, 80
2, 120420, Note_on_c, 0, 76, 0
2, 120420, Note_on_c, 0, 74, 80
2, 120480, Note_on_c, 0, 74, 0
2, 120480, Note_on_c, 0, 72, 80
2, 120480, Note_on_c, 0, 72, 80
2, 120540, Note_on_c, 0, 72, 0
2, 120540, Note_on_c, 0, 74, 80
2, 120558, Note_on_c, 0, 74, 0
2, 120600, Note_on_c, 0, 72, 0
2, 120600, Note_on_c, 0, 76, 80
2, 120618, Note_on_c, 0, 76, 0
2, 120660, Note_on_c, 0, 72, 80
2, 120678, Note_on_c, 0, 72, 0
2, 120720, Note_on_c, 0, 71, 80
2, 120720, Note_on_c, 0, 68, 80
2, 120780, Note_on_c, 0, 71, 0
2, 120780, Note_on_c, 0, 72, 80
2, 120840, Note_on_c, 0, 72, 0
2, 120840, Note_on_c, 0, 68, 0
2, 120840, Note_on_c, 0, 74, 80
2, 120900, Note_on_c, 0, 74, 0
2, 120900, Note_on_c, 0, 71, 80
2, 120960, Note_on_c, 0, 71, 0
2, 120960, Note_on_c, 0, 86, 88
2, 121020, Note_on_c, 0, 86, 0
2, 121020, Note_on_c, 0, 89, 88
2, 121080, Note_on_c, 0, 89, 0
2, 121080, Note_on_c, 0, 83, 88
2, 121140, Note_on_c, 0, 83, 0
2, 121140, Note_on_c, 0, 86, 88
2, 121200, Note_on_c, 0, 86, 0
2, 121200, Note_on_c, 0, 80, 88
2, 121260, Note_on_c, 0, 80, 0
2, 121260, Note_on_c, 0, 83, 88
2, 121320, Note_on_c, 0, 83, 0
2, 121320, Note_on_c, 0, 77, 88
2, 121380, Note_on_c, 0, 77, 0
2, 121380, Note_on_c, 0, 80, 88
2, 121440, Note_on_c, 0, 80, 0
2, 121440, Note_on_c, 0, 74, 88
2, 121500, Note_on_c, 0, 74, 0
2, 121500, Note_on_c, 0, 77, 88
2, 121560, Note_on_c, 0, 77, 0
2, 121560, Note_on_c, 0, 71, 88
2, 121620, Note_on_c, 0, 71, 0
2, 121620, Note_on_c, 0, 74, 88
2, 121680, Note_on_c, 0, 74, 0
2, 121680, Note_on_c, 0, 68, 88
2, 121740, Note_on_c, 0, 68, 0
2, 121740, Note_on_c, 0, 71, 88
2, 121800, Note_on_c, 0, 71, 0
2, 121800, Note_on_c, 0, 65, 88
2, 121860, Note_on_c, 0, 65, 0
2, 121860, Note_on_c, 0, 68, 88
2, 121920, Note_on_c, 0, 68, 0
2, 121920, Note_on_c, 0, 84, 80
2, 121920, Note_on_c, 0, 81, 80
2, 121920, Note_on_c, 0, 78, 80
2, 121920, Note_on_c, 0, 75, 80
2, 121920, Note_on_c, 0, 72, 80
2, 122880, Note_on_c, 0, 72, 0
2, 122880, Note_on_c, 0, 78, 0
2, 122880, Note_on_c, 0, 84, 0
2, 122880, Note_on_c, 0, 81, 0
2, 122880, Note_on_c, 0, 75, 0
2, 122940, Note_on_c, 0, 81, 88
2, 122958, Note_on_c, 0, 81, 0
2, 123000, Note_on_c, 0, 76, 88
2, 123018, Note_on_c, 0, 76, 0
2, 123060, Note_on_c, 0, 72, 88
2, 123078, Note_on_c, 0, 72, 0
2, 123120, Note_on_c, 0, 69, 88
2, 123180, Note_on_c, 0, 69, 0
2, 123180, Note_on_c, 0, 64, 88
2, 123240, Note_on_c, 0, 64, 0
2, 123240, Note_on_c, 0, 60, 88
2, 123300, Note_on_c, 0, 60, 0
2, 123300, Note_on_c, 0, 57, 88
2, 123360, Note_on_c, 0, 57, 0
2, 123360, Note_on_c, 0, 64, 88
2, 123504, Note_on_c, 0, 64, 0
2, 123600, Note_on_c, 0, 76, 88
2, 123600, Note_on_c, 0, 71, 88
2, 123600, Note_on_c, 0, 68, 88
2, 123600, Note_on_c, 0, 64, 88
2, 123744, Note_on_c, 0, 64, 0
2, 123744, Note_on_c, 0, 76, 0
2, 123744, Note_on_c, 0, 71, 0
2, 123744, Note_on_c, 0, 68, 0
2, 123840, Note_on_c, 0, 69, 48
2, 124080, Note_on_c, 0, 69, 0
2, 124080, Note_on_c, 0, 69, 50
2, 124080, Note_on_c, 0, 72, 50
2, 124170, Note_on_c, 0, 72, 0
2, 124170, Note_on_c, 0, 69, 0
2, 124260, Note_on_c, 0, 69, 52
2, 124260, Note_on_c, 0, 72, 52
2, 124290, Note_on_c, 0, 72, 0
2, 124290, Note_on_c, 0, 69, 0
2, 124320, Note_on_c, 0, 69, 52
2, 124320, Note_on_c, 0, 72, 52
2, 124560, Note_on_c, 0, 72, 0
2, 124560, Note_on_c, 0, 69, 0
2, 124560, Note_on_c, 0, 69, 54
2, 124560, Note_on_c, 0, 72, 54
2, 124650, Note_on_c, 0, 72, 0
2, 124650, Note_on_c, 0, 69, 0
2, 124740, Note_on_c, 0, 69, 56
2, 124740, Note_on_c, 0, 72, 56
2, 124770, Note_on_c, 0, 72, 0
2, 124770, Note_on_c, 0, 69, 0
2, 124800, Note_on_c, 0, 69, 56
2, 124800, Note_on_c, 0, 71, 56
2, 125040, Note_on_c, 0, 71, 0
2, 125040, Note_on_c, 0, 69, 0
2, 125040, Note_on_c, 0, 69, 58
2, 125040, Note_on_c, 0, 71, 58
2, 125130, Note_on_c, 0, 71, 0
2, 125130, Note_on_c, 0, 69, 0
2, 125220, Note_on_c, 0, 71, 60
2, 125220, Note_on_c, 0, 69, 60
2, 125250, Note_on_c, 0, 69, 0
2, 125250, Note_on_c, 0, 71, 0
2, 125280, Note_on_c, 0, 76, 60
2, 125280, Note_on_c, 0, 71, 60
2, 125280, Note_on_c, 0, 68, 60
2, 125520, Note_on_c, 0, 68, 0
2, 125520, Note_on_c, 0, 71, 0
2, 125520, Note_on_c, 0, 76, 0
2, 125520, Note_on_c, 0, 68, 62
2, 125520, Note_on_c, 0, 71, 62
2, 125520, Note_on_c, 0, 76, 62
2, 125610, Note_on_c, 0, 76, 0
2, 125610, Note_on_c, 0, 71, 0
2, 125610, Note_on_c, 0, 68, 0
2, 125700, Note_on_c, 0, 68, 64
2, 125700, Note_on_c, 0, 71, 64
2, 125700, Note_on_c, 0, 76, 64
2, 125730, Note_on_c, 0, 76, 0
2, 125730, Note_on_c, 0, 71, 0
2, 125730, Note_on_c, 0, 68, 0
2, 125760, Note_on_c, 0, 69, 64
2, 125760, Note_on_c, 0, 72, 64
2, 126000, Note_on_c, 0, 72, 0
2, 126000, Note_on_c, 0, 69, 0
2, 126000, Note_on_c, 0, 81, 66
2, 126000, Note_on_c, 0, 72, 66
2, 126000, Note_on_c, 0, 69, 66
2, 126090, Note_on_c, 0, 69, 0
2, 126090, Note_on_c, 0, 72, 0
2, 126090, Note_on_c, 0, 81, 0
2, 126180, Note_on_c, 0, 69, 68
2, 126180, Note_on_c, 0, 72, 68
2, 126180, Note_on_c, 0, 81, 68
2, 126210, Note_on_c, 0, 81, 0
2, 126210, Note_on_c, 0, 72, 0
2, 126210, Note_on_c, 0, 69, 0
2, 126240, Note_on_c, 0, 69, 68
2, 126240, Note_on_c, 0, 72, 68
2, 126240, Note_on_c, 0, 81, 68
2, 126480, Note_on_c, 0, 81, 0
2, 126480, Note_on_c, 0, 72, 0
2, 126480, Note_on_c, 0, 69, 0
2, 126480, Note_on_c, 0, 69, 70
2, 126480, Note_on_c, 0, 72, 70
2, 126480, Note_on_c, 0, 81, 70
2, 126660, Note_on_c, 0, 81, 0
2, 126660, Note_on_c, 0, 72, 0
2, 126660, Note_on_c, 0, 69, 0
2, 126660, Note_on_c, 0, 69, 72
2, 126660, Note_on_c, 0, 72, 72
2, 126660, Note_on_c, 0, 81, 72
2, 126720, Note_on_c, 0, 81, 0
2, 126720, Note_on_c, 0, 72, 0
2, 126720, Note_on_c, 0, 69, 0
2, 126720, Note_on_c, 0, 71, 72
2, 126720, Note_on_c, 0, 77, 72
2, 126720, Note_on_c, 0, 81, 72
2, 126960, Note_on_c, 0, 81, 0
2, 126960, Note_on_c, 0, 77, 0
2, 126960, Note_on_c, 0, 71, 0
2, 126960, Note_on_c, 0, 71, 76
2, 126960, Note_on_c, 0, 77, 76
2, 126960, Note_on_c, 0, 81, 76
2, 127140, Note_on_c, 0, 81, 0
2, 127140, Note_on_c, 0, 77, 0
2, 127140, Note_on_c, 0, 71, 0
2, 127140, Note_on_c, 0, 71, 79
2, 127140, Note_on_c, 0, 77, 79
2, 127140, Note_on_c, 0, 81, 79
2, 127200, Note_on_c, 0, 81, 0
2, 127200, Note_on_c, 0, 77, 0
2, 127200, Note_on_c, 0, 71, 0
2, 127200, Note_on_c, 0, 71, 80
2, 127200, Note_on_c, 0, 76, 80
2, 127200, Note_on_c, 0, 80, 80
2, 127440, Note_on_c, 0, 80, 0
2, 127440, Note_on_c, 0, 76, 0
2, 127440, Note_on_c, 0, 71, 0
2, 127440, Note_on_c, 0, 71, 84
2, 127440, Note_on_c, 0, 76, 84
2, 127440, Note_on_c, 0, 80, 84
2, 127620, Note_on_c, 0, 80, 0
2, 127620, Note_on_c, 0, 76, 0
2, 127620, Note_on_c, 0, 71, 0
2, 127620, Note_on_c, 0, 71, 87
2, 127620, Note_on_c, 0, 76, 87
2, 127620, Note_on_c, 0, 80, 87
2, 127680, Note_on_c, 0, 80, 0
2, 127680, Note_on_c, 0, 76, 0
2, 127680, Note_on_c, 0, 71, 0
2, 127680, Note_on_c, 0, 72, 96
2, 127680, Note_on_c, 0, 76, 96
2, 127680, Note_on_c, 0, 81, 96
2, 127824, Note_on_c, 0, 81, 0
2, 127824, Note_on_c, 0, 76, 0
2, 127824, Note_on_c, 0, 72, 0
2, 127920, Note_on_c, 0, 69, 96
2, 127920, Note_on_c, 0, 72, 96
2, 127920, Note_on_c, 0, 76, 96
2, 128160, Note_on_c, 0, 76, 0
2, 128160, Note_on_c, 0, 72, 0
2, 128160, Note_on_c, 0, 69, 0
2, 128160, Note_on_c, 0, 64, 96
2, 128160, Note_on_c, 0, 69, 96
2, 128160, Note_on_c, 0, 72, 96
2, 128376, Note_on_c, 0, 72, 0
2, 128376, Note_on_c, 0, 69, 0
2, 128376, Note_on_c, 0, 64, 0
2, 128376, End_track
3, 0, Start_track
3, 0, MIDI_port, 0
3, 0, Title_t, "by WA Mozart  - 1st mvmt. (allegro maestoso)"
3, 0, Program_c, 1, 0
3, 0, Control_c, 1, 7, 116
3, 0, Control_c, 1, 10, 56
3, 960, Note_on_c, 1, 57, 56
3, 960, Note_on_c, 1, 60, 56
3, 960, Note_on_c, 1, 64, 56
3, 1020, Note_on_c, 1, 64, 0
3, 1020, Note_on_c, 1, 60, 0
3, 1020, Note_on_c, 1, 57, 0
3, 1080, Note_on_c, 1, 57, 48
3, 1080, Note_on_c, 1, 60, 48
3, 1080, Note_on_c, 1, 64, 48
3, 1200, Note_on_c, 1, 64, 0
3, 1200, Note_on_c, 1, 60, 0
3, 1200, Note_on_c, 1, 57, 0
3, 1200, Note_on_c, 1, 57, 48
3, 1200, Note_on_c, 1, 60, 48
3, 1200, Note_on_c, 1, 64, 48
3, 1320, Note_on_c, 1, 64, 0
3, 1320, Note_on_c, 1, 60, 0
3, 1320, Note_on_c, 1, 57, 0
3, 1320, Note_on_c, 1, 57, 48
3, 1320, Note_on_c, 1, 60, 48
3, 1320, Note_on_c, 1, 64, 48
3, 1380, Note_on_c, 1, 64, 0
3, 1380, Note_on_c, 1, 60, 0
3, 1380, Note_on_c, 1, 57, 0
3, 1440, Note_on_c, 1, 57, 56
3, 1440, Note_on_c, 1, 60, 56
3, 1440, Note_on_c, 1, 64, 56
3, 1500, Note_on_c, 1, 64, 0
3, 1500, Note_on_c, 1, 60, 0
3, 1500, Note_on_c, 1, 57, 0
3, 1560, Note_on_c, 1, 57, 48
3, 1560, Note_on_c, 1, 60, 48
3, 1560, Note_on_c, 1, 64, 48
3, 1680, Note_on_c, 1, 64, 0
3, 1680, Note_on_c, 1, 60, 0
3, 1680, Note_on_c, 1, 57, 0
3, 1680, Note_on_c, 1, 57, 48
3, 1680, Note_on_c, 1, 60, 48
3, 1680, Note_on_c, 1, 64, 48
3, 1800, Note_on_c, 1, 64, 0
3, 1800, Note_on_c, 1, 60, 0
3, 1800, Note_on_c, 1, 57, 0
3, 1800, Note_on_c, 1, 57, 48
3, 1800, Note_on_c, 1, 60, 48
3, 1800, Note_on_c, 1, 64, 48
3, 1860, Note_on_c, 1, 64, 0
3, 1860, Note_on_c, 1, 60, 0
3, 1860, Note_on_c, 1, 57, 0
3, 1920, Note_on_c, 1, 59, 56
3, 1920, Note_on_c, 1, 57, 56
3, 1920, Note_on_c, 1, 62, 56
3, 1920, Note_on_c, 1, 64, 56
3, 1980, Note_on_c, 1, 64, 0
3, 1980, Note_on_c, 1, 59, 0
3, 1980, Note_on_c, 1, 57, 0
3, 1980, Note_on_c, 1, 62, 0
3, 2040, Note_on_c, 1, 57, 48
3, 2040, Note_on_c, 1, 59, 48
3, 2040, Note_on_c, 1, 62, 48
3, 2040, Note_on_c, 1, 64, 48
3, 2160, Note_on_c, 1, 64, 0
3, 2160, Note_on_c, 1, 57, 0
3, 2160, Note_on_c, 1, 59, 0
3, 2160, Note_on_c, 1, 62, 0
3, 2160, Note_on_c, 1, 57, 48
3, 2160, Note_on_c, 1, 59, 48
3, 2160, Note_on_c, 1, 62, 48
3, 2160, Note_on_c, 1, 64, 48
3, 2280, Note_on_c, 1, 64, 0
3, 2280, Note_on_c, 1, 57, 0
3, 2280, Note_on_c, 1, 59, 0
3, 2280, Note_on_c, 1, 62, 0
3, 2280, Note_on_c, 1, 57, 48
3, 2280, Note_on_c, 1, 59, 48
3, 2280, Note_on_c, 1, 62, 48
3, 2280, Note_on_c, 1, 64, 48
3, 2340, Note_on_c, 1, 64, 0
3, 2340, Note_on_c, 1, 57, 0
3, 2340, Note_on_c, 1, 59, 0
3, 2340, Note_on_c, 1, 62, 0
3, 2400, Note_on_c, 1, 57, 48
3, 2400, Note_on_c, 1, 59, 48
3, 2400, Note_on_c, 1, 62, 48
3, 2400, Note_on_c, 1, 64, 48
3, 2460, Note_on_c, 1, 64, 0
3, 2460, Note_on_c, 1, 57, 0
3, 2460, Note_on_c, 1, 59, 0
3, 2460, Note_on_c, 1, 62, 0
3, 2520, Note_on_c, 1, 57, 48
3, 2520, Note_on_c, 1, 59, 48
3, 2520, Note_on_c, 1, 62, 48
3, 2520, Note_on_c, 1, 64, 48
3, 2640, Note_on_c, 1, 64, 0
3, 2640, Note_on_c, 1, 57, 0
3, 2640, Note_on_c, 1, 59, 0
3, 2640, Note_on_c, 1, 62, 0
3, 2640, Note_on_c, 1, 57, 48
3, 2640, Note_on_c, 1, 59, 48
3, 2640, Note_on_c, 1, 62, 48
3, 2640, Note_on_c, 1, 64, 48
3, 2760, Note_on_c, 1, 64, 0
3, 2760, Note_on_c, 1, 57, 0
3, 2760, Note_on_c, 1, 59, 0
3, 2760, Note_on_c, 1, 62, 0
3, 2760, Note_on_c, 1, 57, 48
3, 2760, Note_on_c, 1, 59, 48
3, 2760, Note_on_c, 1, 62, 48
3, 2760, Note_on_c, 1, 64, 48
3, 2880, Note_on_c, 1, 64, 0
3, 2880, Note_on_c, 1, 57, 0
3, 2880, Note_on_c, 1, 59, 0
3, 2880, Note_on_c, 1, 62, 0
3, 2880, Note_on_c, 1, 64, 56
3, 2880, Note_on_c, 1, 60, 56
3, 2880, Note_on_c, 1, 57, 56
3, 2940, Note_on_c, 1, 57, 0
3, 2940, Note_on_c, 1, 60, 0
3, 2940, Note_on_c, 1, 64, 0
3, 3000, Note_on_c, 1, 64, 48
3, 3000, Note_on_c, 1, 60, 48
3, 3000, Note_on_c, 1, 57, 48
3, 3120, Note_on_c, 1, 57, 0
3, 3120, Note_on_c, 1, 60, 0
3, 3120, Note_on_c, 1, 64, 0
3, 3120, Note_on_c, 1, 64, 48
3, 3120, Note_on_c, 1, 60, 48
3, 3120, Note_on_c, 1, 57, 48
3, 3240, Note_on_c, 1, 57, 0
3, 3240, Note_on_c, 1, 60, 0
3, 3240, Note_on_c, 1, 64, 0
3, 3240, Note_on_c, 1, 64, 48
3, 3240, Note_on_c, 1, 60, 48
3, 3240, Note_on_c, 1, 57, 48
3, 3300, Note_on_c, 1, 57, 0
3, 3300, Note_on_c, 1, 60, 0
3, 3300, Note_on_c, 1, 64, 0
3, 3360, Note_on_c, 1, 64, 48
3, 3360, Note_on_c, 1, 60, 48
3, 3360, Note_on_c, 1, 57, 48
3, 3420, Note_on_c, 1, 57, 0
3, 3420, Note_on_c, 1, 60, 0
3, 3420, Note_on_c, 1, 64, 0
3, 3480, Note_on_c, 1, 64, 48
3, 3480, Note_on_c, 1, 60, 48
3, 3480, Note_on_c, 1, 57, 48
3, 3600, Note_on_c, 1, 57, 0
3, 3600, Note_on_c, 1, 60, 0
3, 3600, Note_on_c, 1, 64, 0
3, 3600, Note_on_c, 1, 64, 48
3, 3600, Note_on_c, 1, 60, 48
3, 3600, Note_on_c, 1, 57, 48
3, 3720, Note_on_c, 1, 57, 0
3, 3720, Note_on_c, 1, 60, 0
3, 3720, Note_on_c, 1, 64, 0
3, 3720, Note_on_c, 1, 64, 48
3, 3720, Note_on_c, 1, 60, 48
3, 3720, Note_on_c, 1, 57, 48
3, 3780, Note_on_c, 1, 57, 0
3, 3780, Note_on_c, 1, 60, 0
3, 3780, Note_on_c, 1, 64, 0
3, 3840, Note_on_c, 1, 64, 56
3, 3840, Note_on_c, 1, 62, 56
3, 3840, Note_on_c, 1, 57, 56
3, 3840, Note_on_c, 1, 59, 56
3, 3900, Note_on_c, 1, 59, 0
3, 3900, Note_on_c, 1, 64, 0
3, 3900, Note_on_c, 1, 62, 0
3, 3900, Note_on_c, 1, 57, 0
3, 3960, Note_on_c, 1, 62, 48
3, 3960, Note_on_c, 1, 59, 48
3, 3960, Note_on_c, 1, 57, 48
3, 3960, Note_on_c, 1, 64, 48
3, 4080, Note_on_c, 1, 64, 0
3, 4080, Note_on_c, 1, 62, 0
3, 4080, Note_on_c, 1, 59, 0
3, 4080, Note_on_c, 1, 57, 0
3, 4080, Note_on_c, 1, 62, 48
3, 4080, Note_on_c, 1, 59, 48
3, 4080, Note_on_c, 1, 57, 48
3, 4080, Note_on_c, 1, 64, 48
3, 4200, Note_on_c, 1, 64, 0
3, 4200, Note_on_c, 1, 62, 0
3, 4200, Note_on_c, 1, 59, 0
3, 4200, Note_on_c, 1, 57, 0
3, 4200, Note_on_c, 1, 64, 48
3, 4200, Note_on_c, 1, 62, 48
3, 4200, Note_on_c, 1, 59, 48
3, 4200, Note_on_c, 1, 57, 48
3, 4260, Note_on_c, 1, 57, 0
3, 4260, Note_on_c, 1, 64, 0
3, 4260, Note_on_c, 1, 62, 0
3, 4260, Note_on_c, 1, 59, 0
3, 4320, Note_on_c, 1, 64, 48
3, 4320, Note_on_c, 1, 62, 48
3, 4320, Note_on_c, 1, 59, 48
3, 4320, Note_on_c, 1, 57, 48
3, 4380, Note_on_c, 1, 57, 0
3, 4380, Note_on_c, 1, 64, 0
3, 4380, Note_on_c, 1, 62, 0
3, 4380, Note_on_c, 1, 59, 0
3, 4440, Note_on_c, 1, 64, 48
3, 4440, Note_on_c, 1, 62, 48
3, 4440, Note_on_c, 1, 59, 48
3, 4440, Note_on_c, 1, 57, 48
3, 4560, Note_on_c, 1, 57, 0
3, 4560, Note_on_c, 1, 64, 0
3, 4560, Note_on_c, 1, 62, 0
3, 4560, Note_on_c, 1, 59, 0
3, 4560, Note_on_c, 1, 62, 48
3, 4560, Note_on_c, 1, 59, 48
3, 4560, Note_on_c, 1, 64, 48
3, 4560, Note_on_c, 1, 57, 48
3, 4680, Note_on_c, 1, 57, 0
3, 4680, Note_on_c, 1, 62, 0
3, 4680, Note_on_c, 1, 59, 0
3, 4680, Note_on_c, 1, 64, 0
3, 4680, Note_on_c, 1, 64, 48
3, 4680, Note_on_c, 1, 62, 48
3, 4680, Note_on_c, 1, 57, 48
3, 4680, Note_on_c, 1, 59, 48
3, 4800, Note_on_c, 1, 59, 0
3, 4800, Note_on_c, 1, 64, 0
3, 4800, Note_on_c, 1, 62, 0
3, 4800, Note_on_c, 1, 57, 0
3, 4800, Note_on_c, 1, 64, 48
3, 4800, Note_on_c, 1, 60, 48
3, 4800, Note_on_c, 1, 57, 48
3, 4920, Note_on_c, 1, 57, 0
3, 4920, Note_on_c, 1, 60, 0
3, 4920, Note_on_c, 1, 64, 0
3, 4920, Note_on_c, 1, 57, 64
3, 5040, Note_on_c, 1, 57, 0
3, 5040, Note_on_c, 1, 52, 64
3, 5076, Note_on_c, 1, 52, 0
3, 5160, Note_on_c, 1, 48, 80
3, 5196, Note_on_c, 1, 48, 0
3, 5280, Note_on_c, 1, 45, 88
3, 5448, Note_on_c, 1, 45, 0
3, 6000, Note_on_c, 1, 62, 48
3, 6000, Note_on_c, 1, 60, 48
3, 6000, Note_on_c, 1, 57, 48
3, 6000, Note_on_c, 1, 53, 48
3, 6240, Note_on_c, 1, 53, 0
3, 6240, Note_on_c, 1, 62, 0
3, 6240, Note_on_c, 1, 60, 0
3, 6240, Note_on_c, 1, 57, 0
3, 6240, Note_on_c, 1, 55, 48
3, 6240, Note_on_c, 1, 59, 48
3, 6240, Note_on_c, 1, 62, 48
3, 6360, Note_on_c, 1, 62, 0
3, 6360, Note_on_c, 1, 59, 0
3, 6360, Note_on_c, 1, 55, 0
3, 6960, Note_on_c, 1, 60, 40
3, 6960, Note_on_c, 1, 59, 40
3, 6960, Note_on_c, 1, 55, 40
3, 6960, Note_on_c, 1, 52, 40
3, 7200, Note_on_c, 1, 52, 0
3, 7200, Note_on_c, 1, 60, 0
3, 7200, Note_on_c, 1, 59, 0
3, 7200, Note_on_c, 1, 55, 0
3, 7200, Note_on_c, 1, 57, 40
3, 7200, Note_on_c, 1, 53, 40
3, 7200, Note_on_c, 1, 60, 40
3, 7320, Note_on_c, 1, 60, 0
3, 7320, Note_on_c, 1, 53, 0
3, 7320, Note_on_c, 1, 57, 0
3, 7920, Note_on_c, 1, 59, 32
3, 7920, Note_on_c, 1, 53, 32
3, 7920, Note_on_c, 1, 50, 32
3, 8160, Note_on_c, 1, 50, 0
3, 8160, Note_on_c, 1, 53, 0
3, 8160, Note_on_c, 1, 59, 0
3, 8160, Note_on_c, 1, 60, 32
3, 8160, Note_on_c, 1, 57, 32
3, 8160, Note_on_c, 1, 52, 32
3, 8400, Note_on_c, 1, 52, 0
3, 8400, Note_on_c, 1, 57, 0
3, 8400, Note_on_c, 1, 60, 0
3, 8400, Note_on_c, 1, 64, 32
3, 8400, Note_on_c, 1, 56, 32
3, 8400, Note_on_c, 1, 52, 32
3, 8640, Note_on_c, 1, 52, 0
3, 8640, Note_on_c, 1, 56, 0
3, 8640, Note_on_c, 1, 64, 0
3, 8640, Note_on_c, 1, 64, 48
3, 8640, Note_on_c, 1, 60, 48
3, 8640, Note_on_c, 1, 57, 48
3, 8700, Note_on_c, 1, 57, 0
3, 8700, Note_on_c, 1, 60, 0
3, 8700, Note_on_c, 1, 64, 0
3, 8760, Note_on_c, 1, 64, 48
3, 8760, Note_on_c, 1, 60, 48
3, 8760, Note_on_c, 1, 57, 48
3, 8880, Note_on_c, 1, 57, 0
3, 8880, Note_on_c, 1, 60, 0
3, 8880, Note_on_c, 1, 64, 0
3, 8880, Note_on_c, 1, 64, 48
3, 8880, Note_on_c, 1, 60, 48
3, 8880, Note_on_c, 1, 57, 48
3, 9000, Note_on_c, 1, 57, 0
3, 9000, Note_on_c, 1, 60, 0
3, 9000, Note_on_c, 1, 64, 0
3, 9000, Note_on_c, 1, 64, 48
3, 9000, Note_on_c, 1, 60, 48
3, 9000, Note_on_c, 1, 57, 48
3, 9060, Note_on_c, 1, 57, 0
3, 9060, Note_on_c, 1, 60, 0
3, 9060, Note_on_c, 1, 64, 0
3, 9120, Note_on_c, 1, 64, 48
3, 9120, Note_on_c, 1, 60, 48
3, 9120, Note_on_c, 1, 57, 48
3, 9180, Note_on_c, 1, 57, 0
3, 9180, Note_on_c, 1, 60, 0
3, 9180, Note_on_c, 1, 64, 0
3, 9240, Note_on_c, 1, 64, 48
3, 9240, Note_on_c, 1, 60, 48
3, 9240, Note_on_c, 1, 57, 48
3, 9300, Note_on_c, 1, 57, 0
3, 9300, Note_on_c, 1, 60, 0
3, 9300, Note_on_c, 1, 64, 0
3, 9360, Note_on_c, 1, 64, 48
3, 9360, Note_on_c, 1, 60, 48
3, 9360, Note_on_c, 1, 57, 48
3, 9420, Note_on_c, 1, 57, 0
3, 9420, Note_on_c, 1, 60, 0
3, 9420, Note_on_c, 1, 64, 0
3, 9480, Note_on_c, 1, 64, 48
3, 9480, Note_on_c, 1, 60, 48
3, 9480, Note_on_c, 1, 57, 48
3, 9540, Note_on_c, 1, 57, 0
3, 9540, Note_on_c, 1, 60, 0
3, 9540, Note_on_c, 1, 64, 0
3, 9600, Note_on_c, 1, 64, 48
3, 9600, Note_on_c, 1, 62, 48
3, 9600, Note_on_c, 1, 57, 48
3, 9600, Note_on_c, 1, 59, 48
3, 9660, Note_on_c, 1, 59, 0
3, 9660, Note_on_c, 1, 64, 0
3, 9660, Note_on_c, 1, 62, 0
3, 9660, Note_on_c, 1, 57, 0
3, 9720, Note_on_c, 1, 64, 48
3, 9720, Note_on_c, 1, 62, 48
3, 9720, Note_on_c, 1, 59, 48
3, 9720, Note_on_c, 1, 57, 48
3, 9780, Note_on_c, 1, 57, 0
3, 9780, Note_on_c, 1, 64, 0
3, 9780, Note_on_c, 1, 62, 0
3, 9780, Note_on_c, 1, 59, 0
3, 9840, Note_on_c, 1, 64, 48
3, 9840, Note_on_c, 1, 62, 48
3, 9840, Note_on_c, 1, 59, 48
3, 9840, Note_on_c, 1, 57, 48
3, 9900, Note_on_c, 1, 57, 0
3, 9900, Note_on_c, 1, 64, 0
3, 9900, Note_on_c, 1, 62, 0
3, 9900, Note_on_c, 1, 59, 0
3, 9960, Note_on_c, 1, 64, 48
3, 9960, Note_on_c, 1, 62, 48
3, 9960, Note_on_c, 1, 59, 48
3, 9960, Note_on_c, 1, 57, 48
3, 10020, Note_on_c, 1, 57, 0
3, 10020, Note_on_c, 1, 64, 0
3, 10020, Note_on_c, 1, 62, 0
3, 10020, Note_on_c, 1, 59, 0
3, 10080, Note_on_c, 1, 64, 48
3, 10080, Note_on_c, 1, 62, 48
3, 10080, Note_on_c, 1, 59, 48
3, 10080, Note_on_c, 1, 57, 48
3, 10140, Note_on_c, 1, 57, 0
3, 10140, Note_on_c, 1, 64, 0
3, 10140, Note_on_c, 1, 62, 0
3, 10140, Note_on_c, 1, 59, 0
3, 10200, Note_on_c, 1, 64, 48
3, 10200, Note_on_c, 1, 62, 48
3, 10200, Note_on_c, 1, 59, 48
3, 10200, Note_on_c, 1, 57, 48
3, 10260, Note_on_c, 1, 57, 0
3, 10260, Note_on_c, 1, 64, 0
3, 10260, Note_on_c, 1, 62, 0
3, 10260, Note_on_c, 1, 59, 0
3, 10320, Note_on_c, 1, 64, 48
3, 10320, Note_on_c, 1, 62, 48
3, 10320, Note_on_c, 1, 59, 48
3, 10320, Note_on_c, 1, 57, 48
3, 10380, Note_on_c, 1, 57, 0
3, 10380, Note_on_c, 1, 64, 0
3, 10380, Note_on_c, 1, 62, 0
3, 10380, Note_on_c, 1, 59, 0
3, 10440, Note_on_c, 1, 64, 48
3, 10440, Note_on_c, 1, 62, 48
3, 10440, Note_on_c, 1, 59, 48
3, 10440, Note_on_c, 1, 57, 48
3, 10500, Note_on_c, 1, 57, 0
3, 10500, Note_on_c, 1, 64, 0
3, 10500, Note_on_c, 1, 62, 0
3, 10500, Note_on_c, 1, 59, 0
3, 10560, Note_on_c, 1, 57, 48
3, 10560, Note_on_c, 1, 60, 48
3, 10560, Note_on_c, 1, 64, 48
3, 10620, Note_on_c, 1, 64, 0
3, 10620, Note_on_c, 1, 60, 0
3, 10620, Note_on_c, 1, 57, 0
3, 10680, Note_on_c, 1, 57, 48
3, 10680, Note_on_c, 1, 60, 48
3, 10680, Note_on_c, 1, 64, 48
3, 10800, Note_on_c, 1, 64, 0
3, 10800, Note_on_c, 1, 60, 0
3, 10800, Note_on_c, 1, 57, 0
3, 10800, Note_on_c, 1, 57, 48
3, 10800, Note_on_c, 1, 60, 48
3, 10800, Note_on_c, 1, 64, 48
3, 10920, Note_on_c, 1, 64, 0
3, 10920, Note_on_c, 1, 60, 0
3, 10920, Note_on_c, 1, 57, 0
3, 10920, Note_on_c, 1, 57, 48
3, 10920, Note_on_c, 1, 60, 48
3, 10920, Note_on_c, 1, 64, 48
3, 10980, Note_on_c, 1, 64, 0
3, 10980, Note_on_c, 1, 60, 0
3, 10980, Note_on_c, 1, 57, 0
3, 11040, Note_on_c, 1, 57, 48
3, 11040, Note_on_c, 1, 60, 48
3, 11040, Note_on_c, 1, 64, 48
3, 11100, Note_on_c, 1, 64, 0
3, 11100, Note_on_c, 1, 60, 0
3, 11100, Note_on_c, 1, 57, 0
3, 11160, Note_on_c, 1, 57, 48
3, 11160, Note_on_c, 1, 60, 48
3, 11160, Note_on_c, 1, 64, 48
3, 11220, Note_on_c, 1, 64, 0
3, 11220, Note_on_c, 1, 60, 0
3, 11220, Note_on_c, 1, 57, 0
3, 11280, Note_on_c, 1, 57, 48
3, 11280, Note_on_c, 1, 60, 48
3, 11280, Note_on_c, 1, 64, 48
3, 11340, Note_on_c, 1, 64, 0
3, 11340, Note_on_c, 1, 60, 0
3, 11340, Note_on_c, 1, 57, 0
3, 11400, Note_on_c, 1, 57, 48
3, 11400, Note_on_c, 1, 60, 48
3, 11400, Note_on_c, 1, 64, 48
3, 11460, Note_on_c, 1, 64, 0
3, 11460, Note_on_c, 1, 60, 0
3, 11460, Note_on_c, 1, 57, 0
3, 11520, Note_on_c, 1, 55, 48
3, 11520, Note_on_c, 1, 58, 48
3, 11520, Note_on_c, 1, 60, 48
3, 11520, Note_on_c, 1, 64, 48
3, 11580, Note_on_c, 1, 64, 0
3, 11580, Note_on_c, 1, 55, 0
3, 11580, Note_on_c, 1, 58, 0
3, 11580, Note_on_c, 1, 60, 0
3, 11640, Note_on_c, 1, 55, 48
3, 11640, Note_on_c, 1, 58, 48
3, 11640, Note_on_c, 1, 60, 48
3, 11640, Note_on_c, 1, 64, 48
3, 11760, Note_on_c, 1, 64, 0
3, 11760, Note_on_c, 1, 55, 0
3, 11760, Note_on_c, 1, 58, 0
3, 11760, Note_on_c, 1, 60, 0
3, 11760, Note_on_c, 1, 55, 48
3, 11760, Note_on_c, 1, 58, 48
3, 11760, Note_on_c, 1, 60, 48
3, 11760, Note_on_c, 1, 64, 48
3, 11880, Note_on_c, 1, 64, 0
3, 11880, Note_on_c, 1, 55, 0
3, 11880, Note_on_c, 1, 58, 0
3, 11880, Note_on_c, 1, 60, 0
3, 11880, Note_on_c, 1, 55, 48
3, 11880, Note_on_c, 1, 58, 48
3, 11880, Note_on_c, 1, 60, 48
3, 11880, Note_on_c, 1, 64, 48
3, 11940, Note_on_c, 1, 64, 0
3, 11940, Note_on_c, 1, 55, 0
3, 11940, Note_on_c, 1, 58, 0
3, 11940, Note_on_c, 1, 60, 0
3, 12000, Note_on_c, 1, 55, 48
3, 12000, Note_on_c, 1, 58, 48
3, 12000, Note_on_c, 1, 60, 48
3, 12000, Note_on_c, 1, 64, 48
3, 12060, Note_on_c, 1, 64, 0
3, 12060, Note_on_c, 1, 55, 0
3, 12060, Note_on_c, 1, 58, 0
3, 12060, Note_on_c, 1, 60, 0
3, 12120, Note_on_c, 1, 55, 48
3, 12120, Note_on_c, 1, 58, 48
3, 12120, Note_on_c, 1, 60, 48
3, 12120, Note_on_c, 1, 64, 48
3, 12240, Note_on_c, 1, 64, 0
3, 12240, Note_on_c, 1, 55, 0
3, 12240, Note_on_c, 1, 58, 0
3, 12240, Note_on_c, 1, 60, 0
3, 12240, Note_on_c, 1, 55, 48
3, 12240, Note_on_c, 1, 58, 48
3, 12240, Note_on_c, 1, 60, 48
3, 12240, Note_on_c, 1, 64, 48
3, 12360, Note_on_c, 1, 64, 0
3, 12360, Note_on_c, 1, 55, 0
3, 12360, Note_on_c, 1, 58, 0
3, 12360, Note_on_c, 1, 60, 0
3, 12360, Note_on_c, 1, 55, 48
3, 12360, Note_on_c, 1, 58, 48
3, 12360, Note_on_c, 1, 60, 48
3, 12360, Note_on_c, 1, 64, 48
3, 12420, Note_on_c, 1, 64, 0
3, 12420, Note_on_c, 1, 55, 0
3, 12420, Note_on_c, 1, 58, 0
3, 12420, Note_on_c, 1, 60, 0
3, 12480, Note_on_c, 1, 53, 48
3, 12480, Note_on_c, 1, 60, 48
3, 12480, Note_on_c, 1, 65, 48
3, 12540, Note_on_c, 1, 65, 0
3, 12540, Note_on_c, 1, 60, 0
3, 12540, Note_on_c, 1, 53, 0
3, 12600, Note_on_c, 1, 53, 48
3, 12600, Note_on_c, 1, 60, 48
3, 12600, Note_on_c, 1, 65, 48
3, 12636, Note_on_c, 1, 65, 0
3, 12636, Note_on_c, 1, 60, 0
3, 12636, Note_on_c, 1, 53, 0
3, 12720, Note_on_c, 1, 53, 48
3, 12720, Note_on_c, 1, 57, 48
3, 12720, Note_on_c, 1, 62, 48
3, 12756, Note_on_c, 1, 62, 0
3, 12756, Note_on_c, 1, 57, 0
3, 12756, Note_on_c, 1, 53, 0
3, 12840, Note_on_c, 1, 53, 48
3, 12840, Note_on_c, 1, 57, 48
3, 12840, Note_on_c, 1, 62, 48
3, 12876, Note_on_c, 1, 62, 0
3, 12876, Note_on_c, 1, 57, 0
3, 12876, Note_on_c, 1, 53, 0
3, 12960, Note_on_c, 1, 52, 48
3, 12960, Note_on_c, 1, 55, 48
3, 12960, Note_on_c, 1, 57, 48
3, 13020, Note_on_c, 1, 57, 0
3, 13020, Note_on_c, 1, 55, 0
3, 13020, Note_on_c, 1, 52, 0
3, 13080, Note_on_c, 1, 52, 48
3, 13080, Note_on_c, 1, 55, 48
3, 13080, Note_on_c, 1, 57, 48
3, 13140, Note_on_c, 1, 57, 0
3, 13140, Note_on_c, 1, 55, 0
3, 13140, Note_on_c, 1, 52, 0
3, 13200, Note_on_c, 1, 52, 48
3, 13200, Note_on_c, 1, 57, 48
3, 13200, Note_on_c, 1, 61, 48
3, 13236, Note_on_c, 1, 61, 0
3, 13236, Note_on_c, 1, 57, 0
3, 13236, Note_on_c, 1, 52, 0
3, 13320, Note_on_c, 1, 52, 48
3, 13320, Note_on_c, 1, 57, 48
3, 13320, Note_on_c, 1, 61, 48
3, 13356, Note_on_c, 1, 61, 0
3, 13356, Note_on_c, 1, 57, 0
3, 13356, Note_on_c, 1, 52, 0
3, 13440, Note_on_c, 1, 50, 48
3, 13440, Note_on_c, 1, 57, 48
3, 13440, Note_on_c, 1, 62, 48
3, 13680, Note_on_c, 1, 62, 0
3, 13680, Note_on_c, 1, 57, 0
3, 13680, Note_on_c, 1, 50, 0
3, 13680, Note_on_c, 1, 47, 48
3, 13680, Note_on_c, 1, 50, 48
3, 13680, Note_on_c, 1, 55, 48
3, 13800, Note_on_c, 1, 55, 0
3, 13800, Note_on_c, 1, 50, 0
3, 13800, Note_on_c, 1, 47, 0
3, 13920, Note_on_c, 1, 48, 48
3, 13920, Note_on_c, 1, 55, 48
3, 14160, Note_on_c, 1, 55, 0
3, 14160, Note_on_c, 1, 48, 0
3, 14160, Note_on_c, 1, 57, 48
3, 14160, Note_on_c, 1, 60, 48
3, 14400, Note_on_c, 1, 60, 0
3, 14400, Note_on_c, 1, 57, 0
3, 14400, Note_on_c, 1, 53, 32
3, 14520, Note_on_c, 1, 57, 34
3, 14580, Note_on_c, 1, 57, 0
3, 14580, Note_on_c, 1, 53, 0
3, 14640, Note_on_c, 1, 53, 36
3, 14760, Note_on_c, 1, 57, 38
3, 14820, Note_on_c, 1, 57, 0
3, 14820, Note_on_c, 1, 53, 0
3, 14880, Note_on_c, 1, 53, 40
3, 15000, Note_on_c, 1, 57, 42
3, 15120, Note_on_c, 1, 57, 0
3, 15120, Note_on_c, 1, 53, 0
3, 15120, Note_on_c, 1, 54, 44
3, 15240, Note_on_c, 1, 57, 46
3, 15360, Note_on_c, 1, 57, 0
3, 15360, Note_on_c, 1, 54, 0
3, 15360, Note_on_c, 1, 55, 64
3, 15420, Note_on_c, 1, 55, 0
3, 15420, Note_on_c, 1, 62, 64
3, 15480, Note_on_c, 1, 62, 0
3, 15480, Note_on_c, 1, 59, 64
3, 15540, Note_on_c, 1, 59, 0
3, 15540, Note_on_c, 1, 62, 64
3, 15600, Note_on_c, 1, 62, 0
3, 15600, Note_on_c, 1, 55, 64
3, 15660, Note_on_c, 1, 55, 0
3, 15660, Note_on_c, 1, 62, 64
3, 15720, Note_on_c, 1, 62, 0
3, 15720, Note_on_c, 1, 59, 64
3, 15780, Note_on_c, 1, 59, 0
3, 15780, Note_on_c, 1, 62, 64
3, 15840, Note_on_c, 1, 62, 0
3, 15840, Note_on_c, 1, 55, 64
3, 15900, Note_on_c, 1, 55, 0
3, 15900, Note_on_c, 1, 63, 64
3, 15960, Note_on_c, 1, 63, 0
3, 15960, Note_on_c, 1, 60, 64
3, 16020, Note_on_c, 1, 60, 0
3, 16020, Note_on_c, 1, 63, 64
3, 16080, Note_on_c, 1, 63, 0
3, 16080, Note_on_c, 1, 55, 64
3, 16140, Note_on_c, 1, 55, 0
3, 16140, Note_on_c, 1, 65, 64
3, 16200, Note_on_c, 1, 65, 0
3, 16200, Note_on_c, 1, 62, 64
3, 16260, Note_on_c, 1, 62, 0
3, 16260, Note_on_c, 1, 65, 64
3, 16320, Note_on_c, 1, 65, 0
3, 16320, Note_on_c, 1, 55, 64
3, 16380, Note_on_c, 1, 55, 0
3, 16380, Note_on_c, 1, 63, 64
3, 16440, Note_on_c, 1, 63, 0
3, 16440, Note_on_c, 1, 60, 64
3, 16500, Note_on_c, 1, 60, 0
3, 16500, Note_on_c, 1, 63, 64
3, 16560, Note_on_c, 1, 63, 0
3, 16560, Note_on_c, 1, 55, 64
3, 16620, Note_on_c, 1, 55, 0
3, 16620, Note_on_c, 1, 63, 64
3, 16680, Note_on_c, 1, 63, 0
3, 16680, Note_on_c, 1, 60, 64
3, 16740, Note_on_c, 1, 60, 0
3, 16740, Note_on_c, 1, 63, 64
3, 16800, Note_on_c, 1, 63, 0
3, 16800, Note_on_c, 1, 55, 64
3, 16860, Note_on_c, 1, 55, 0
3, 16860, Note_on_c, 1, 63, 64
3, 16920, Note_on_c, 1, 63, 0
3, 16920, Note_on_c, 1, 60, 64
3, 16980, Note_on_c, 1, 60, 0
3, 16980, Note_on_c, 1, 63, 64
3, 17040, Note_on_c, 1, 63, 0
3, 17040, Note_on_c, 1, 55, 64
3, 17100, Note_on_c, 1, 55, 0
3, 17100, Note_on_c, 1, 63, 64
3, 17160, Note_on_c, 1, 63, 0
3, 17160, Note_on_c, 1, 60, 64
3, 17220, Note_on_c, 1, 60, 0
3, 17220, Note_on_c, 1, 63, 64
3, 17280, Note_on_c, 1, 63, 0
3, 17280, Note_on_c, 1, 55, 32
3, 17340, Note_on_c, 1, 55, 0
3, 17340, Note_on_c, 1, 62, 32
3, 17400, Note_on_c, 1, 62, 0
3, 17400, Note_on_c, 1, 59, 32
3, 17460, Note_on_c, 1, 59, 0
3, 17460, Note_on_c, 1, 62, 32
3, 17520, Note_on_c, 1, 62, 0
3, 17520, Note_on_c, 1, 55, 32
3, 17580, Note_on_c, 1, 55, 0
3, 17580, Note_on_c, 1, 62, 32
3, 17640, Note_on_c, 1, 62, 0
3, 17640, Note_on_c, 1, 59, 32
3, 17700, Note_on_c, 1, 59, 0
3, 17700, Note_on_c, 1, 62, 32
3, 17760, Note_on_c, 1, 62, 0
3, 17760, Note_on_c, 1, 55, 32
3, 17820, Note_on_c, 1, 55, 0
3, 17820, Note_on_c, 1, 63, 32
3, 17880, Note_on_c, 1, 63, 0
3, 17880, Note_on_c, 1, 60, 32
3, 17940, Note_on_c, 1, 60, 0
3, 17940, Note_on_c, 1, 63, 32
3, 18000, Note_on_c, 1, 63, 0
3, 18000, Note_on_c, 1, 55, 32
3, 18060, Note_on_c, 1, 55, 0
3, 18060, Note_on_c, 1, 65, 32
3, 18120, Note_on_c, 1, 65, 0
3, 18120, Note_on_c, 1, 62, 32
3, 18180, Note_on_c, 1, 62, 0
3, 18180, Note_on_c, 1, 65, 32
3, 18240, Note_on_c, 1, 65, 0
3, 18240, Note_on_c, 1, 55, 32
3, 18300, Note_on_c, 1, 55, 0
3, 18300, Note_on_c, 1, 63, 32
3, 18360, Note_on_c, 1, 63, 0
3, 18360, Note_on_c, 1, 60, 32
3, 18420, Note_on_c, 1, 60, 0
3, 18420, Note_on_c, 1, 63, 32
3, 18480, Note_on_c, 1, 63, 0
3, 18480, Note_on_c, 1, 55, 32
3, 18540, Note_on_c, 1, 55, 0
3, 18540, Note_on_c, 1, 63, 32
3, 18600, Note_on_c, 1, 63, 0
3, 18600, Note_on_c, 1, 60, 32
3, 18660, Note_on_c, 1, 60, 0
3, 18660, Note_on_c, 1, 63, 32
3, 18720, Note_on_c, 1, 63, 0
3, 18720, Note_on_c, 1, 55, 32
3, 18780, Note_on_c, 1, 55, 0
3, 18780, Note_on_c, 1, 63, 32
3, 18840, Note_on_c, 1, 63, 0
3, 18840, Note_on_c, 1, 60, 32
3, 18900, Note_on_c, 1, 60, 0
3, 18900, Note_on_c, 1, 63, 32
3, 18960, Note_on_c, 1, 63, 0
3, 18960, Note_on_c, 1, 55, 32
3, 19020, Note_on_c, 1, 55, 0
3, 19020, Note_on_c, 1, 63, 32
3, 19080, Note_on_c, 1, 63, 0
3, 19080, Note_on_c, 1, 60, 32
3, 19140, Note_on_c, 1, 60, 0
3, 19140, Note_on_c, 1, 63, 32
3, 19200, Note_on_c, 1, 63, 0
3, 19200, Note_on_c, 1, 62, 80
3, 19200, Note_on_c, 1, 59, 80
3, 19200, Note_on_c, 1, 55, 80
3, 19320, Note_on_c, 1, 55, 0
3, 19320, Note_on_c, 1, 59, 0
3, 19320, Note_on_c, 1, 62, 0
3, 19560, Note_on_c, 1, 48, 80
3, 19560, Note_on_c, 1, 60, 80
3, 19596, Note_on_c, 1, 60, 0
3, 19596, Note_on_c, 1, 48, 0
3, 19680, Note_on_c, 1, 43, 80
3, 19680, Note_on_c, 1, 55, 80
3, 19800, Note_on_c, 1, 55, 0
3, 19800, Note_on_c, 1, 43, 0
3, 20040, Note_on_c, 1, 48, 80
3, 20040, Note_on_c, 1, 60, 80
3, 20076, Note_on_c, 1, 60, 0
3, 20076, Note_on_c, 1, 48, 0
3, 20160, Note_on_c, 1, 43, 80
3, 20160, Note_on_c, 1, 55, 80
3, 20352, Note_on_c, 1, 55, 0
3, 20352, Note_on_c, 1, 43, 0
3, 20520, Note_on_c, 1, 48, 80
3, 20520, Note_on_c, 1, 60, 80
3, 20640, Note_on_c, 1, 60, 0
3, 20640, Note_on_c, 1, 48, 0
3, 20640, Note_on_c, 1, 55, 80
3, 20640, Note_on_c, 1, 43, 80
3, 20760, Note_on_c, 1, 43, 0
3, 20760, Note_on_c, 1, 55, 0
3, 20760, Note_on_c, 1, 48, 80
3, 20760, Note_on_c, 1, 60, 80
3, 20880, Note_on_c, 1, 60, 0
3, 20880, Note_on_c, 1, 48, 0
3, 20880, Note_on_c, 1, 55, 80
3, 20880, Note_on_c, 1, 43, 80
3, 21000, Note_on_c, 1, 43, 0
3, 21000, Note_on_c, 1, 55, 0
3, 21000, Note_on_c, 1, 60, 80
3, 21000, Note_on_c, 1, 48, 80
3, 21120, Note_on_c, 1, 48, 0
3, 21120, Note_on_c, 1, 60, 0
3, 21120, Note_on_c, 1, 43, 80
3, 21120, Note_on_c, 1, 55, 80
3, 21240, Note_on_c, 1, 55, 0
3, 21240, Note_on_c, 1, 43, 0
3, 21360, Note_on_c, 1, 31, 80
3, 21360, Note_on_c, 1, 43, 80
3, 21600, Note_on_c, 1, 43, 0
3, 21600, Note_on_c, 1, 31, 0
3, 21600, Note_on_c, 1, 31, 56
3, 21600, Note_on_c, 1, 43, 56
3, 21720, Note_on_c, 1, 43, 0
3, 21720, Note_on_c, 1, 31, 0
3, 22080, Note_on_c, 1, 67, 32
3, 22080, Note_on_c, 1, 64, 32
3, 22116, Note_on_c, 1, 64, 0
3, 22116, Note_on_c, 1, 67, 0
3, 22200, Note_on_c, 1, 67, 32
3, 22200, Note_on_c, 1, 64, 32
3, 22236, Note_on_c, 1, 64, 0
3, 22236, Note_on_c, 1, 67, 0
3, 22320, Note_on_c, 1, 67, 32
3, 22320, Note_on_c, 1, 64, 32
3, 22356, Note_on_c, 1, 64, 0
3, 22356, Note_on_c, 1, 67, 0
3, 22440, Note_on_c, 1, 67, 32
3, 22440, Note_on_c, 1, 64, 32
3, 22476, Note_on_c, 1, 64, 0
3, 22476, Note_on_c, 1, 67, 0
3, 22560, Note_on_c, 1, 64, 32
3, 22560, Note_on_c, 1, 67, 32
3, 22800, Note_on_c, 1, 67, 0
3, 22800, Note_on_c, 1, 64, 0
3, 23040, Note_on_c, 1, 62, 32
3, 23040, Note_on_c, 1, 69, 32
3, 23160, Note_on_c, 1, 69, 0
3, 23160, Note_on_c, 1, 62, 0
3, 23160, Note_on_c, 1, 69, 32
3, 23160, Note_on_c, 1, 62, 32
3, 23196, Note_on_c, 1, 62, 0
3, 23196, Note_on_c, 1, 69, 0
3, 23280, Note_on_c, 1, 69, 32
3, 23280, Note_on_c, 1, 62, 32
3, 23316, Note_on_c, 1, 62, 0
3, 23316, Note_on_c, 1, 69, 0
3, 23400, Note_on_c, 1, 69, 32
3, 23400, Note_on_c, 1, 62, 32
3, 23436, Note_on_c, 1, 62, 0
3, 23436, Note_on_c, 1, 69, 0
3, 23520, Note_on_c, 1, 62, 32
3, 23520, Note_on_c, 1, 69, 32
3, 23760, Note_on_c, 1, 69, 0
3, 23760, Note_on_c, 1, 62, 0
3, 24000, Note_on_c, 1, 55, 32
3, 24000, Note_on_c, 1, 62, 32
3, 24000, Note_on_c, 1, 65, 32
3, 24120, Note_on_c, 1, 65, 0
3, 24120, Note_on_c, 1, 62, 0
3, 24120, Note_on_c, 1, 55, 0
3, 24120, Note_on_c, 1, 55, 32
3, 24120, Note_on_c, 1, 62, 32
3, 24120, Note_on_c, 1, 65, 32
3, 24240, Note_on_c, 1, 65, 0
3, 24240, Note_on_c, 1, 62, 0
3, 24240, Note_on_c, 1, 55, 0
3, 24240, Note_on_c, 1, 55, 32
3, 24240, Note_on_c, 1, 62, 32
3, 24240, Note_on_c, 1, 65, 32
3, 24276, Note_on_c, 1, 65, 0
3, 24276, Note_on_c, 1, 62, 0
3, 24276, Note_on_c, 1, 55, 0
3, 24360, Note_on_c, 1, 55, 32
3, 24360, Note_on_c, 1, 62, 32
3, 24360, Note_on_c, 1, 65, 32
3, 24396, Note_on_c, 1, 65, 0
3, 24396, Note_on_c, 1, 62, 0
3, 24396, Note_on_c, 1, 55, 0
3, 24480, Note_on_c, 1, 55, 32
3, 24480, Note_on_c, 1, 62, 32
3, 24480, Note_on_c, 1, 65, 32
3, 24720, Note_on_c, 1, 65, 0
3, 24720, Note_on_c, 1, 62, 0
3, 24720, Note_on_c, 1, 55, 0
3, 24960, Note_on_c, 1, 60, 32
3, 25200, Note_on_c, 1, 60, 0
3, 25920, Note_on_c, 1, 52, 32
3, 25920, Note_on_c, 1, 60, 32
3, 25956, Note_on_c, 1, 60, 0
3, 25956, Note_on_c, 1, 52, 0
3, 26040, Note_on_c, 1, 52, 32
3, 26040, Note_on_c, 1, 60, 32
3, 26076, Note_on_c, 1, 60, 0
3, 26076, Note_on_c, 1, 52, 0
3, 26160, Note_on_c, 1, 52, 32
3, 26160, Note_on_c, 1, 60, 32
3, 26196, Note_on_c, 1, 60, 0
3, 26196, Note_on_c, 1, 52, 0
3, 26280, Note_on_c, 1, 52, 32
3, 26280, Note_on_c, 1, 60, 32
3, 26316, Note_on_c, 1, 60, 0
3, 26316, Note_on_c, 1, 52, 0
3, 26400, Note_on_c, 1, 52, 32
3, 26400, Note_on_c, 1, 60, 32
3, 26640, Note_on_c, 1, 60, 0
3, 26640, Note_on_c, 1, 52, 0
3, 26880, Note_on_c, 1, 53, 32
3, 27120, Note_on_c, 1, 57, 32
3, 27360, Note_on_c, 1, 57, 0
3, 27360, Note_on_c, 1, 62, 32
3, 27600, Note_on_c, 1, 53, 0
3, 27600, Note_on_c, 1, 53, 32
3, 27840, Note_on_c, 1, 53, 0
3, 27840, Note_on_c, 1, 52, 32
3, 28080, Note_on_c, 1, 62, 0
3, 28080, Note_on_c, 1, 55, 32
3, 28320, Note_on_c, 1, 55, 0
3, 28320, Note_on_c, 1, 60, 32
3, 28560, Note_on_c, 1, 52, 0
3, 28560, Note_on_c, 1, 52, 32
3, 28800, Note_on_c, 1, 52, 0
3, 28800, Note_on_c, 1, 50, 32
3, 29040, Note_on_c, 1, 50, 0
3, 29040, Note_on_c, 1, 60, 0
3, 29040, Note_on_c, 1, 57, 32
3, 29040, Note_on_c, 1, 53, 32
3, 29280, Note_on_c, 1, 53, 0
3, 29280, Note_on_c, 1, 57, 0
3, 29280, Note_on_c, 1, 55, 32
3, 29280, Note_on_c, 1, 55, 32
3, 29520, Note_on_c, 1, 55, 0
3, 29520, Note_on_c, 1, 47, 32
3, 29760, Note_on_c, 1, 47, 0
3, 29760, Note_on_c, 1, 48, 32
3, 30000, Note_on_c, 1, 48, 0
3, 30000, Note_on_c, 1, 55, 0
3, 30000, Note_on_c, 1, 55, 32
3, 30000, Note_on_c, 1, 50, 32
3, 30240, Note_on_c, 1, 50, 0
3, 30240, Note_on_c, 1, 52, 32
3, 30480, Note_on_c, 1, 55, 0
3, 30480, Note_on_c, 1, 60, 32
3, 30720, Note_on_c, 1, 52, 0
3, 30720, Note_on_c, 1, 53, 32
3, 30960, Note_on_c, 1, 53, 0
3, 30960, Note_on_c, 1, 60, 0
3, 31680, Note_on_c, 1, 53, 48
3, 31740, Note_on_c, 1, 53, 0
3, 31740, Note_on_c, 1, 62, 48
3, 31800, Note_on_c, 1, 62, 0
3, 31800, Note_on_c, 1, 57, 48
3, 31860, Note_on_c, 1, 57, 0
3, 31860, Note_on_c, 1, 62, 48
3, 31920, Note_on_c, 1, 62, 0
3, 31920, Note_on_c, 1, 53, 48
3, 31980, Note_on_c, 1, 53, 0
3, 31980, Note_on_c, 1, 62, 48
3, 31998, Note_on_c, 1, 62, 0
3, 32040, Note_on_c, 1, 57, 48
3, 32058, Note_on_c, 1, 57, 0
3, 32100, Note_on_c, 1, 62, 48
3, 32118, Note_on_c, 1, 62, 0
3, 32160, Note_on_c, 1, 53, 48
3, 32220, Note_on_c, 1, 53, 0
3, 32220, Note_on_c, 1, 62, 48
3, 32280, Note_on_c, 1, 62, 0
3, 32280, Note_on_c, 1, 57, 48
3, 32340, Note_on_c, 1, 57, 0
3, 32340, Note_on_c, 1, 62, 48
3, 32400, Note_on_c, 1, 62, 0
3, 32400, Note_on_c, 1, 53, 48
3, 32460, Note_on_c, 1, 53, 0
3, 32460, Note_on_c, 1, 62, 48
3, 32520, Note_on_c, 1, 62, 0
3, 32520, Note_on_c, 1, 57, 48
3, 32538, Note_on_c, 1, 57, 0
3, 32580, Note_on_c, 1, 62, 48
3, 32598, Note_on_c, 1, 62, 0
3, 32640, Note_on_c, 1, 55, 48
3, 32700, Note_on_c, 1, 55, 0
3, 32700, Note_on_c, 1, 64, 48
3, 32760, Note_on_c, 1, 64, 0
3, 32760, Note_on_c, 1, 60, 48
3, 32820, Note_on_c, 1, 60, 0
3, 32820, Note_on_c, 1, 64, 48
3, 32880, Note_on_c, 1, 64, 0
3, 32880, Note_on_c, 1, 55, 48
3, 32940, Note_on_c, 1, 55, 0
3, 32940, Note_on_c, 1, 64, 48
3, 33000, Note_on_c, 1, 64, 0
3, 33000, Note_on_c, 1, 60, 48
3, 33060, Note_on_c, 1, 60, 0
3, 33060, Note_on_c, 1, 64, 48
3, 33120, Note_on_c, 1, 64, 0
3, 33120, Note_on_c, 1, 55, 48
3, 33180, Note_on_c, 1, 55, 0
3, 33180, Note_on_c, 1, 65, 48
3, 33240, Note_on_c, 1, 65, 0
3, 33240, Note_on_c, 1, 59, 48
3, 33300, Note_on_c, 1, 59, 0
3, 33300, Note_on_c, 1, 65, 48
3, 33360, Note_on_c, 1, 65, 0
3, 33360, Note_on_c, 1, 55, 48
3, 33420, Note_on_c, 1, 55, 0
3, 33420, Note_on_c, 1, 65, 48
3, 33480, Note_on_c, 1, 65, 0
3, 33480, Note_on_c, 1, 59, 48
3, 33540, Note_on_c, 1, 59, 0
3, 33540, Note_on_c, 1, 65, 48
3, 33600, Note_on_c, 1, 65, 0
3, 33600, Note_on_c, 1, 64, 48
3, 33600, Note_on_c, 1, 60, 48
3, 33840, Note_on_c, 1, 60, 0
3, 33840, Note_on_c, 1, 64, 0
3, 34320, Note_on_c, 1, 71, 48
3, 34356, Note_on_c, 1, 71, 0
3, 34440, Note_on_c, 1, 67, 48
3, 34476, Note_on_c, 1, 67, 0
3, 34560, Note_on_c, 1, 72, 48
3, 34800, Note_on_c, 1, 72, 0
3, 35280, Note_on_c, 1, 71, 32
3, 35400, Note_on_c, 1, 71, 0
3, 35400, Note_on_c, 1, 67, 32
3, 35520, Note_on_c, 1, 67, 0
3, 35520, Note_on_c, 1, 72, 32
3, 35760, Note_on_c, 1, 72, 0
3, 36000, Note_on_c, 1, 60, 48
3, 36000, Note_on_c, 1, 52, 48
3, 36240, Note_on_c, 1, 60, 0
3, 36240, Note_on_c, 1, 55, 48
3, 36480, Note_on_c, 1, 55, 0
3, 36480, Note_on_c, 1, 52, 0
3, 36480, Note_on_c, 1, 57, 48
3, 36480, Note_on_c, 1, 53, 48
3, 36960, Note_on_c, 1, 53, 0
3, 36960, Note_on_c, 1, 57, 0
3, 36960, Note_on_c, 1, 59, 48
3, 36960, Note_on_c, 1, 55, 48
3, 36960, Note_on_c, 1, 53, 48
3, 37440, Note_on_c, 1, 53, 0
3, 37440, Note_on_c, 1, 55, 0
3, 37440, Note_on_c, 1, 59, 0
3, 37440, Note_on_c, 1, 52, 80
3, 37440, Note_on_c, 1, 55, 80
3, 37440, Note_on_c, 1, 60, 80
3, 37680, Note_on_c, 1, 60, 0
3, 37680, Note_on_c, 1, 55, 0
3, 37680, Note_on_c, 1, 52, 0
3, 37680, Note_on_c, 1, 53, 80
3, 37680, Note_on_c, 1, 60, 80
3, 37920, Note_on_c, 1, 53, 0
3, 37920, Note_on_c, 1, 55, 80
3, 38160, Note_on_c, 1, 55, 0
3, 38160, Note_on_c, 1, 60, 0
3, 38160, Note_on_c, 1, 55, 80
3, 38160, Note_on_c, 1, 59, 80
3, 38400, Note_on_c, 1, 59, 0
3, 38400, Note_on_c, 1, 55, 0
3, 38460, Note_on_c, 1, 72, 48
3, 38478, Note_on_c, 1, 72, 0
3, 38520, Note_on_c, 1, 71, 48
3, 38538, Note_on_c, 1, 71, 0
3, 38580, Note_on_c, 1, 69, 48
3, 38598, Note_on_c, 1, 69, 0
3, 38640, Note_on_c, 1, 67, 48
3, 38700, Note_on_c, 1, 67, 0
3, 38700, Note_on_c, 1, 69, 48
3, 38718, Note_on_c, 1, 69, 0
3, 38760, Note_on_c, 1, 66, 48
3, 38778, Note_on_c, 1, 66, 0
3, 38820, Note_on_c, 1, 69, 48
3, 38838, Note_on_c, 1, 69, 0
3, 38880, Note_on_c, 1, 67, 48
3, 38940, Note_on_c, 1, 67, 0
3, 38940, Note_on_c, 1, 69, 48
3, 38958, Note_on_c, 1, 69, 0
3, 39000, Note_on_c, 1, 66, 48
3, 39018, Note_on_c, 1, 66, 0
3, 39060, Note_on_c, 1, 69, 48
3, 39078, Note_on_c, 1, 69, 0
3, 39120, Note_on_c, 1, 67, 48
3, 39180, Note_on_c, 1, 67, 0
3, 39180, Note_on_c, 1, 69, 48
3, 39240, Note_on_c, 1, 69, 0
3, 39240, Note_on_c, 1, 65, 48
3, 39300, Note_on_c, 1, 65, 0
3, 39300, Note_on_c, 1, 67, 48
3, 39360, Note_on_c, 1, 67, 0
3, 39360, Note_on_c, 1, 64, 48
3, 39420, Note_on_c, 1, 64, 0
3, 39420, Note_on_c, 1, 72, 32
3, 39480, Note_on_c, 1, 72, 0
3, 39480, Note_on_c, 1, 71, 32
3, 39540, Note_on_c, 1, 71, 0
3, 39540, Note_on_c, 1, 69, 32
3, 39600, Note_on_c, 1, 69, 0
3, 39600, Note_on_c, 1, 67, 32
3, 39660, Note_on_c, 1, 67, 0
3, 39660, Note_on_c, 1, 69, 32
3, 39720, Note_on_c, 1, 69, 0
3, 39720, Note_on_c, 1, 66, 32
3, 39780, Note_on_c, 1, 66, 0
3, 39780, Note_on_c, 1, 69, 32
3, 39840, Note_on_c, 1, 69, 0
3, 39840, Note_on_c, 1, 67, 32
3, 39900, Note_on_c, 1, 67, 0
3, 39900, Note_on_c, 1, 69, 32
3, 39960, Note_on_c, 1, 69, 0
3, 39960, Note_on_c, 1, 66, 32
3, 40020, Note_on_c, 1, 66, 0
3, 40020, Note_on_c, 1, 69, 32
3, 40080, Note_on_c, 1, 69, 0
3, 40080, Note_on_c, 1, 67, 32
3, 40140, Note_on_c, 1, 67, 0
3, 40140, Note_on_c, 1, 69, 32
3, 40200, Note_on_c, 1, 69, 0
3, 40200, Note_on_c, 1, 65, 32
3, 40260, Note_on_c, 1, 65, 0
3, 40260, Note_on_c, 1, 67, 32
3, 40320, Note_on_c, 1, 67, 0
3, 40320, Note_on_c, 1, 64, 32
3, 40380, Note_on_c, 1, 64, 0
3, 40380, Note_on_c, 1, 65, 34
3, 40440, Note_on_c, 1, 65, 0
3, 40440, Note_on_c, 1, 62, 35
3, 40500, Note_on_c, 1, 62, 0
3, 40500, Note_on_c, 1, 64, 37
3, 40560, Note_on_c, 1, 64, 0
3, 40560, Note_on_c, 1, 60, 38
3, 40620, Note_on_c, 1, 60, 0
3, 40620, Note_on_c, 1, 62, 40
3, 40680, Note_on_c, 1, 62, 0
3, 40680, Note_on_c, 1, 59, 41
3, 40740, Note_on_c, 1, 59, 0
3, 40740, Note_on_c, 1, 60, 43
3, 40800, Note_on_c, 1, 60, 0
3, 40800, Note_on_c, 1, 57, 44
3, 40860, Note_on_c, 1, 57, 0
3, 40860, Note_on_c, 1, 59, 46
3, 40920, Note_on_c, 1, 59, 0
3, 40920, Note_on_c, 1, 55, 47
3, 40980, Note_on_c, 1, 55, 0
3, 40980, Note_on_c, 1, 57, 49
3, 41040, Note_on_c, 1, 57, 0
3, 41040, Note_on_c, 1, 53, 50
3, 41100, Note_on_c, 1, 53, 0
3, 41100, Note_on_c, 1, 55, 52
3, 41160, Note_on_c, 1, 55, 0
3, 41160, Note_on_c, 1, 52, 53
3, 41220, Note_on_c, 1, 52, 0
3, 41220, Note_on_c, 1, 53, 55
3, 41280, Note_on_c, 1, 53, 0
3, 41280, Note_on_c, 1, 50, 56
3, 41340, Note_on_c, 1, 50, 0
3, 41340, Note_on_c, 1, 52, 58
3, 41400, Note_on_c, 1, 52, 0
3, 41400, Note_on_c, 1, 48, 59
3, 41460, Note_on_c, 1, 48, 0
3, 41460, Note_on_c, 1, 50, 61
3, 41520, Note_on_c, 1, 50, 0
3, 41520, Note_on_c, 1, 47, 62
3, 41580, Note_on_c, 1, 47, 0
3, 41580, Note_on_c, 1, 48, 64
3, 41640, Note_on_c, 1, 48, 0
3, 41640, Note_on_c, 1, 45, 65
3, 41700, Note_on_c, 1, 45, 0
3, 41700, Note_on_c, 1, 47, 67
3, 41760, Note_on_c, 1, 47, 0
3, 41760, Note_on_c, 1, 43, 68
3, 41820, Note_on_c, 1, 43, 0
3, 41820, Note_on_c, 1, 45, 70
3, 41880, Note_on_c, 1, 45, 0
3, 41880, Note_on_c, 1, 41, 71
3, 41940, Note_on_c, 1, 41, 0
3, 41940, Note_on_c, 1, 43, 73
3, 42000, Note_on_c, 1, 43, 0
3, 42000, Note_on_c, 1, 40, 74
3, 42060, Note_on_c, 1, 40, 0
3, 42060, Note_on_c, 1, 41, 76
3, 42120, Note_on_c, 1, 41, 0
3, 42120, Note_on_c, 1, 38, 77
3, 42180, Note_on_c, 1, 38, 0
3, 42180, Note_on_c, 1, 40, 79
3, 42240, Note_on_c, 1, 40, 0
3, 42240, Note_on_c, 1, 40, 80
3, 42360, Note_on_c, 1, 40, 0
3, 42480, Note_on_c, 1, 41, 80
3, 42600, Note_on_c, 1, 41, 0
3, 42720, Note_on_c, 1, 43, 80
3, 42840, Note_on_c, 1, 43, 0
3, 42960, Note_on_c, 1, 31, 80
3, 43080, Note_on_c, 1, 31, 0
3, 43200, Note_on_c, 1, 60, 32
3, 43260, Note_on_c, 1, 60, 0
3, 43260, Note_on_c, 1, 62, 33
3, 43320, Note_on_c, 1, 62, 0
3, 43320, Note_on_c, 1, 64, 34
3, 43380, Note_on_c, 1, 64, 0
3, 43380, Note_on_c, 1, 62, 35
3, 43440, Note_on_c, 1, 62, 0
3, 43440, Note_on_c, 1, 60, 36
3, 43500, Note_on_c, 1, 60, 0
3, 43500, Note_on_c, 1, 59, 37
3, 43560, Note_on_c, 1, 59, 0
3, 43560, Note_on_c, 1, 57, 38
3, 43578, Note_on_c, 1, 57, 0
3, 43620, Note_on_c, 1, 56, 39
3, 43638, Note_on_c, 1, 56, 0
3, 43680, Note_on_c, 1, 57, 40
3, 43740, Note_on_c, 1, 57, 0
3, 43740, Note_on_c, 1, 59, 41
3, 43800, Note_on_c, 1, 59, 0
3, 43800, Note_on_c, 1, 60, 42
3, 43860, Note_on_c, 1, 60, 0
3, 43860, Note_on_c, 1, 59, 43
3, 43920, Note_on_c, 1, 59, 0
3, 43920, Note_on_c, 1, 57, 44
3, 43980, Note_on_c, 1, 57, 0
3, 43980, Note_on_c, 1, 55, 45
3, 44040, Note_on_c, 1, 55, 0
3, 44040, Note_on_c, 1, 53, 46
3, 44100, Note_on_c, 1, 53, 0
3, 44100, Note_on_c, 1, 52, 47
3, 44160, Note_on_c, 1, 52, 0
3, 44160, Note_on_c, 1, 53, 48
3, 44220, Note_on_c, 1, 53, 0
3, 44220, Note_on_c, 1, 55, 49
3, 44280, Note_on_c, 1, 55, 0
3, 44280, Note_on_c, 1, 57, 50
3, 44340, Note_on_c, 1, 57, 0
3, 44340, Note_on_c, 1, 55, 51
3, 44400, Note_on_c, 1, 55, 0
3, 44400, Note_on_c, 1, 53, 52
3, 44460, Note_on_c, 1, 53, 0
3, 44460, Note_on_c, 1, 50, 53
3, 44478, Note_on_c, 1, 50, 0
3, 44520, Note_on_c, 1, 52, 54
3, 44538, Note_on_c, 1, 52, 0
3, 44580, Note_on_c, 1, 53, 55
3, 44598, Note_on_c, 1, 53, 0
3, 44640, Note_on_c, 1, 55, 56
3, 44700, Note_on_c, 1, 55, 0
3, 44700, Note_on_c, 1, 54, 57
3, 44760, Note_on_c, 1, 54, 0
3, 44760, Note_on_c, 1, 55, 58
3, 44820, Note_on_c, 1, 55, 0
3, 44820, Note_on_c, 1, 54, 59
3, 44880, Note_on_c, 1, 54, 0
3, 44880, Note_on_c, 1, 55, 60
3, 44940, Note_on_c, 1, 55, 0
3, 44940, Note_on_c, 1, 53, 61
3, 44958, Note_on_c, 1, 53, 0
3, 45000, Note_on_c, 1, 52, 62
3, 45018, Note_on_c, 1, 52, 0
3, 45060, Note_on_c, 1, 50, 63
3, 45078, Note_on_c, 1, 50, 0
3, 45120, Note_on_c, 1, 48, 64
3, 45180, Note_on_c, 1, 48, 0
3, 45180, Note_on_c, 1, 50, 65
3, 45240, Note_on_c, 1, 50, 0
3, 45240, Note_on_c, 1, 52, 66
3, 45300, Note_on_c, 1, 52, 0
3, 45300, Note_on_c, 1, 50, 67
3, 45360, Note_on_c, 1, 50, 0
3, 45360, Note_on_c, 1, 48, 68
3, 45420, Note_on_c, 1, 48, 0
3, 45420, Note_on_c, 1, 47, 69
3, 45480, Note_on_c, 1, 47, 0
3, 45480, Note_on_c, 1, 45, 70
3, 45540, Note_on_c, 1, 45, 0
3, 45540, Note_on_c, 1, 44, 71
3, 45600, Note_on_c, 1, 44, 0
3, 45600, Note_on_c, 1, 45, 72
3, 45660, Note_on_c, 1, 45, 0
3, 45660, Note_on_c, 1, 47, 73
3, 45720, Note_on_c, 1, 47, 0
3, 45720, Note_on_c, 1, 48, 74
3, 45780, Note_on_c, 1, 48, 0
3, 45780, Note_on_c, 1, 47, 75
3, 45840, Note_on_c, 1, 47, 0
3, 45840, Note_on_c, 1, 45, 76
3, 45900, Note_on_c, 1, 45, 0
3, 45900, Note_on_c, 1, 43, 77
3, 45960, Note_on_c, 1, 43, 0
3, 45960, Note_on_c, 1, 41, 78
3, 46020, Note_on_c, 1, 41, 0
3, 46020, Note_on_c, 1, 40, 79
3, 46080, Note_on_c, 1, 40, 0
3, 46080, Note_on_c, 1, 41, 80
3, 46140, Note_on_c, 1, 41, 0
3, 46140, Note_on_c, 1, 43, 81
3, 46200, Note_on_c, 1, 43, 0
3, 46200, Note_on_c, 1, 45, 82
3, 46260, Note_on_c, 1, 45, 0
3, 46260, Note_on_c, 1, 43, 83
3, 46320, Note_on_c, 1, 43, 0
3, 46320, Note_on_c, 1, 41, 84
3, 46380, Note_on_c, 1, 41, 0
3, 46380, Note_on_c, 1, 38, 85
3, 46440, Note_on_c, 1, 38, 0
3, 46440, Note_on_c, 1, 40, 86
3, 46500, Note_on_c, 1, 40, 0
3, 46500, Note_on_c, 1, 41, 87
3, 46560, Note_on_c, 1, 41, 0
3, 46560, Note_on_c, 1, 43, 88
3, 46620, Note_on_c, 1, 43, 0
3, 46620, Note_on_c, 1, 42, 89
3, 46680, Note_on_c, 1, 42, 0
3, 46680, Note_on_c, 1, 43, 90
3, 46740, Note_on_c, 1, 43, 0
3, 46740, Note_on_c, 1, 42, 91
3, 46800, Note_on_c, 1, 42, 0
3, 46800, Note_on_c, 1, 43, 92
3, 46860, Note_on_c, 1, 43, 0
3, 46860, Note_on_c, 1, 41, 93
3, 46920, Note_on_c, 1, 41, 0
3, 46920, Note_on_c, 1, 40, 94
3, 46980, Note_on_c, 1, 40, 0
3, 46980, Note_on_c, 1, 38, 95
3, 47040, Note_on_c, 1, 38, 0
3, 47040, Note_on_c, 1, 36, 96
3, 47208, Note_on_c, 1, 36, 0
3, 47280, Note_on_c, 1, 48, 96
3, 47280, Note_on_c, 1, 36, 96
3, 47448, Note_on_c, 1, 36, 0
3, 47448, Note_on_c, 1, 48, 0
3, 47520, Note_on_c, 1, 48, 96
3, 47520, Note_on_c, 1, 36, 96
3, 47760, Note_on_c, 1, 36, 0
3, 47760, Note_on_c, 1, 48, 0
3, 48000, Note_on_c, 1, 55, 56
3, 48000, Note_on_c, 1, 52, 56
3, 48000, Note_on_c, 1, 48, 56
3, 48060, Note_on_c, 1, 48, 0
3, 48060, Note_on_c, 1, 52, 0
3, 48060, Note_on_c, 1, 55, 0
3, 48120, Note_on_c, 1, 55, 48
3, 48120, Note_on_c, 1, 52, 48
3, 48120, Note_on_c, 1, 48, 48
3, 48240, Note_on_c, 1, 48, 0
3, 48240, Note_on_c, 1, 52, 0
3, 48240, Note_on_c, 1, 55, 0
3, 48240, Note_on_c, 1, 55, 48
3, 48240, Note_on_c, 1, 52, 48
3, 48240, Note_on_c, 1, 48, 48
3, 48360, Note_on_c, 1, 48, 0
3, 48360, Note_on_c, 1, 52, 0
3, 48360, Note_on_c, 1, 55, 0
3, 48360, Note_on_c, 1, 55, 48
3, 48360, Note_on_c, 1, 52, 48
3, 48360, Note_on_c, 1, 48, 48
3, 48420, Note_on_c, 1, 48, 0
3, 48420, Note_on_c, 1, 52, 0
3, 48420, Note_on_c, 1, 55, 0
3, 48480, Note_on_c, 1, 55, 56
3, 48480, Note_on_c, 1, 52, 56
3, 48480, Note_on_c, 1, 48, 56
3, 48540, Note_on_c, 1, 48, 0
3, 48540, Note_on_c, 1, 52, 0
3, 48540, Note_on_c, 1, 55, 0
3, 48600, Note_on_c, 1, 55, 48
3, 48600, Note_on_c, 1, 52, 48
3, 48600, Note_on_c, 1, 48, 48
3, 48720, Note_on_c, 1, 48, 0
3, 48720, Note_on_c, 1, 52, 0
3, 48720, Note_on_c, 1, 55, 0
3, 48720, Note_on_c, 1, 55, 48
3, 48720, Note_on_c, 1, 52, 48
3, 48720, Note_on_c, 1, 48, 48
3, 48840, Note_on_c, 1, 48, 0
3, 48840, Note_on_c, 1, 52, 0
3, 48840, Note_on_c, 1, 55, 0
3, 48840, Note_on_c, 1, 55, 48
3, 48840, Note_on_c, 1, 52, 48
3, 48840, Note_on_c, 1, 48, 48
3, 48900, Note_on_c, 1, 48, 0
3, 48900, Note_on_c, 1, 52, 0
3, 48900, Note_on_c, 1, 55, 0
3, 48960, Note_on_c, 1, 55, 56
3, 48960, Note_on_c, 1, 53, 56
3, 48960, Note_on_c, 1, 50, 56
3, 48960, Note_on_c, 1, 48, 56
3, 49020, Note_on_c, 1, 48, 0
3, 49020, Note_on_c, 1, 55, 0
3, 49020, Note_on_c, 1, 53, 0
3, 49020, Note_on_c, 1, 50, 0
3, 49080, Note_on_c, 1, 55, 48
3, 49080, Note_on_c, 1, 53, 48
3, 49080, Note_on_c, 1, 50, 48
3, 49080, Note_on_c, 1, 48, 48
3, 49200, Note_on_c, 1, 48, 0
3, 49200, Note_on_c, 1, 55, 0
3, 49200, Note_on_c, 1, 53, 0
3, 49200, Note_on_c, 1, 50, 0
3, 49200, Note_on_c, 1, 55, 48
3, 49200, Note_on_c, 1, 53, 48
3, 49200, Note_on_c, 1, 50, 48
3, 49200, Note_on_c, 1, 48, 48
3, 49320, Note_on_c, 1, 48, 0
3, 49320, Note_on_c, 1, 55, 0
3, 49320, Note_on_c, 1, 53, 0
3, 49320, Note_on_c, 1, 50, 0
3, 49320, Note_on_c, 1, 55, 48
3, 49320, Note_on_c, 1, 53, 48
3, 49320, Note_on_c, 1, 50, 48
3, 49320, Note_on_c, 1, 48, 48
3, 49380, Note_on_c, 1, 48, 0
3, 49380, Note_on_c, 1, 55, 0
3, 49380, Note_on_c, 1, 53, 0
3, 49380, Note_on_c, 1, 50, 0
3, 49440, Note_on_c, 1, 55, 48
3, 49440, Note_on_c, 1, 53, 48
3, 49440, Note_on_c, 1, 50, 48
3, 49440, Note_on_c, 1, 48, 48
3, 49500, Note_on_c, 1, 48, 0
3, 49500, Note_on_c, 1, 55, 0
3, 49500, Note_on_c, 1, 53, 0
3, 49500, Note_on_c, 1, 50, 0
3, 49560, Note_on_c, 1, 55, 48
3, 49560, Note_on_c, 1, 53, 48
3, 49560, Note_on_c, 1, 50, 48
3, 49560, Note_on_c, 1, 48, 48
3, 49620, Note_on_c, 1, 48, 0
3, 49620, Note_on_c, 1, 55, 0
3, 49620, Note_on_c, 1, 53, 0
3, 49620, Note_on_c, 1, 50, 0
3, 49680, Note_on_c, 1, 55, 48
3, 49680, Note_on_c, 1, 53, 48
3, 49680, Note_on_c, 1, 50, 48
3, 49680, Note_on_c, 1, 48, 48
3, 49740, Note_on_c, 1, 48, 0
3, 49740, Note_on_c, 1, 55, 0
3, 49740, Note_on_c, 1, 53, 0
3, 49740, Note_on_c, 1, 50, 0
3, 49800, Note_on_c, 1, 55, 48
3, 49800, Note_on_c, 1, 53, 48
3, 49800, Note_on_c, 1, 50, 48
3, 49800, Note_on_c, 1, 48, 48
3, 49860, Note_on_c, 1, 48, 0
3, 49860, Note_on_c, 1, 55, 0
3, 49860, Note_on_c, 1, 53, 0
3, 49860, Note_on_c, 1, 50, 0
3, 49920, Note_on_c, 1, 48, 56
3, 49920, Note_on_c, 1, 52, 56
3, 49920, Note_on_c, 1, 55, 56
3, 49980, Note_on_c, 1, 55, 0
3, 49980, Note_on_c, 1, 52, 0
3, 49980, Note_on_c, 1, 48, 0
3, 50040, Note_on_c, 1, 48, 48
3, 50040, Note_on_c, 1, 52, 48
3, 50040, Note_on_c, 1, 55, 48
3, 50160, Note_on_c, 1, 55, 0
3, 50160, Note_on_c, 1, 52, 0
3, 50160, Note_on_c, 1, 48, 0
3, 50160, Note_on_c, 1, 48, 48
3, 50160, Note_on_c, 1, 52, 48
3, 50160, Note_on_c, 1, 55, 48
3, 50280, Note_on_c, 1, 55, 0
3, 50280, Note_on_c, 1, 52, 0
3, 50280, Note_on_c, 1, 48, 0
3, 50280, Note_on_c, 1, 48, 48
3, 50280, Note_on_c, 1, 52, 48
3, 50280, Note_on_c, 1, 55, 48
3, 50340, Note_on_c, 1, 55, 0
3, 50340, Note_on_c, 1, 52, 0
3, 50340, Note_on_c, 1, 48, 0
3, 50400, Note_on_c, 1, 48, 48
3, 50400, Note_on_c, 1, 52, 48
3, 50400, Note_on_c, 1, 55, 48
3, 50460, Note_on_c, 1, 55, 0
3, 50460, Note_on_c, 1, 52, 0
3, 50460, Note_on_c, 1, 48, 0
3, 50520, Note_on_c, 1, 48, 48
3, 50520, Note_on_c, 1, 52, 48
3, 50520, Note_on_c, 1, 55, 48
3, 50580, Note_on_c, 1, 55, 0
3, 50580, Note_on_c, 1, 52, 0
3, 50580, Note_on_c, 1, 48, 0
3, 50640, Note_on_c, 1, 48, 48
3, 50640, Note_on_c, 1, 52, 48
3, 50640, Note_on_c, 1, 55, 48
3, 50700, Note_on_c, 1, 55, 0
3, 50700, Note_on_c, 1, 52, 0
3, 50700, Note_on_c, 1, 48, 0
3, 50760, Note_on_c, 1, 48, 48
3, 50760, Note_on_c, 1, 52, 48
3, 50760, Note_on_c, 1, 55, 48
3, 50820, Note_on_c, 1, 55, 0
3, 50820, Note_on_c, 1, 52, 0
3, 50820, Note_on_c, 1, 48, 0
3, 50880, Note_on_c, 1, 55, 48
3, 50880, Note_on_c, 1, 49, 48
3, 50880, Note_on_c, 1, 52, 48
3, 50940, Note_on_c, 1, 52, 0
3, 50940, Note_on_c, 1, 49, 0
3, 50940, Note_on_c, 1, 55, 0
3, 51000, Note_on_c, 1, 55, 48
3, 51000, Note_on_c, 1, 49, 48
3, 51000, Note_on_c, 1, 52, 48
3, 51060, Note_on_c, 1, 52, 0
3, 51060, Note_on_c, 1, 49, 0
3, 51060, Note_on_c, 1, 55, 0
3, 51120, Note_on_c, 1, 55, 48
3, 51120, Note_on_c, 1, 49, 48
3, 51120, Note_on_c, 1, 52, 48
3, 51180, Note_on_c, 1, 52, 0
3, 51180, Note_on_c, 1, 49, 0
3, 51180, Note_on_c, 1, 55, 0
3, 51240, Note_on_c, 1, 55, 48
3, 51240, Note_on_c, 1, 49, 48
3, 51240, Note_on_c, 1, 52, 48
3, 51300, Note_on_c, 1, 52, 0
3, 51300, Note_on_c, 1, 49, 0
3, 51300, Note_on_c, 1, 55, 0
3, 51360, Note_on_c, 1, 55, 48
3, 51360, Note_on_c, 1, 49, 48
3, 51360, Note_on_c, 1, 52, 48
3, 51420, Note_on_c, 1, 52, 0
3, 51420, Note_on_c, 1, 49, 0
3, 51420, Note_on_c, 1, 55, 0
3, 51480, Note_on_c, 1, 55, 48
3, 51480, Note_on_c, 1, 49, 48
3, 51480, Note_on_c, 1, 52, 48
3, 51540, Note_on_c, 1, 52, 0
3, 51540, Note_on_c, 1, 49, 0
3, 51540, Note_on_c, 1, 55, 0
3, 51600, Note_on_c, 1, 55, 48
3, 51600, Note_on_c, 1, 49, 48
3, 51600, Note_on_c, 1, 52, 48
3, 51636, Note_on_c, 1, 52, 0
3, 51636, Note_on_c, 1, 49, 0
3, 51636, Note_on_c, 1, 55, 0
3, 51720, Note_on_c, 1, 55, 48
3, 51720, Note_on_c, 1, 49, 48
3, 51720, Note_on_c, 1, 52, 48
3, 51756, Note_on_c, 1, 52, 0
3, 51756, Note_on_c, 1, 49, 0
3, 51756, Note_on_c, 1, 55, 0
3, 51840, Note_on_c, 1, 55, 48
3, 51840, Note_on_c, 1, 52, 48
3, 51840, Note_on_c, 1, 48, 48
3, 51900, Note_on_c, 1, 48, 0
3, 51900, Note_on_c, 1, 52, 0
3, 51900, Note_on_c, 1, 55, 0
3, 51960, Note_on_c, 1, 55, 40
3, 51960, Note_on_c, 1, 52, 40
3, 51960, Note_on_c, 1, 48, 40
3, 52020, Note_on_c, 1, 48, 0
3, 52020, Note_on_c, 1, 52, 0
3, 52020, Note_on_c, 1, 55, 0
3, 52080, Note_on_c, 1, 55, 40
3, 52080, Note_on_c, 1, 52, 40
3, 52080, Note_on_c, 1, 48, 40
3, 52116, Note_on_c, 1, 48, 0
3, 52116, Note_on_c, 1, 52, 0
3, 52116, Note_on_c, 1, 55, 0
3, 52200, Note_on_c, 1, 55, 40
3, 52200, Note_on_c, 1, 52, 40
3, 52200, Note_on_c, 1, 48, 40
3, 52236, Note_on_c, 1, 48, 0
3, 52236, Note_on_c, 1, 52, 0
3, 52236, Note_on_c, 1, 55, 0
3, 52320, Note_on_c, 1, 52, 40
3, 52320, Note_on_c, 1, 49, 40
3, 52320, Note_on_c, 1, 55, 40
3, 52380, Note_on_c, 1, 55, 0
3, 52380, Note_on_c, 1, 49, 0
3, 52380, Note_on_c, 1, 52, 0
3, 52440, Note_on_c, 1, 52, 40
3, 52440, Note_on_c, 1, 49, 40
3, 52440, Note_on_c, 1, 55, 40
3, 52500, Note_on_c, 1, 55, 0
3, 52500, Note_on_c, 1, 49, 0
3, 52500, Note_on_c, 1, 52, 0
3, 52560, Note_on_c, 1, 52, 40
3, 52560, Note_on_c, 1, 49, 40
3, 52560, Note_on_c, 1, 55, 40
3, 52596, Note_on_c, 1, 55, 0
3, 52596, Note_on_c, 1, 49, 0
3, 52596, Note_on_c, 1, 52, 0
3, 52680, Note_on_c, 1, 52, 40
3, 52680, Note_on_c, 1, 49, 40
3, 52680, Note_on_c, 1, 55, 40
3, 52716, Note_on_c, 1, 55, 0
3, 52716, Note_on_c, 1, 49, 0
3, 52716, Note_on_c, 1, 52, 0
3, 52800, Note_on_c, 1, 55, 48
3, 52800, Note_on_c, 1, 52, 48
3, 52800, Note_on_c, 1, 48, 48
3, 52860, Note_on_c, 1, 48, 0
3, 52860, Note_on_c, 1, 52, 0
3, 52860, Note_on_c, 1, 55, 0
3, 52920, Note_on_c, 1, 55, 40
3, 52920, Note_on_c, 1, 52, 40
3, 52920, Note_on_c, 1, 48, 40
3, 52980, Note_on_c, 1, 48, 0
3, 52980, Note_on_c, 1, 52, 0
3, 52980, Note_on_c, 1, 55, 0
3, 53040, Note_on_c, 1, 55, 40
3, 53040, Note_on_c, 1, 52, 40
3, 53040, Note_on_c, 1, 48, 40
3, 53100, Note_on_c, 1, 48, 0
3, 53100, Note_on_c, 1, 52, 0
3, 53100, Note_on_c, 1, 55, 0
3, 53160, Note_on_c, 1, 55, 40
3, 53160, Note_on_c, 1, 52, 40
3, 53160, Note_on_c, 1, 48, 40
3, 53220, Note_on_c, 1, 48, 0
3, 53220, Note_on_c, 1, 52, 0
3, 53220, Note_on_c, 1, 55, 0
3, 53280, Note_on_c, 1, 55, 40
3, 53280, Note_on_c, 1, 52, 40
3, 53280, Note_on_c, 1, 49, 40
3, 53340, Note_on_c, 1, 49, 0
3, 53340, Note_on_c, 1, 52, 0
3, 53340, Note_on_c, 1, 55, 0
3, 53400, Note_on_c, 1, 55, 40
3, 53400, Note_on_c, 1, 52, 40
3, 53400, Note_on_c, 1, 49, 40
3, 53460, Note_on_c, 1, 49, 0
3, 53460, Note_on_c, 1, 52, 0
3, 53460, Note_on_c, 1, 55, 0
3, 53520, Note_on_c, 1, 55, 40
3, 53520, Note_on_c, 1, 52, 40
3, 53520, Note_on_c, 1, 49, 40
3, 53580, Note_on_c, 1, 49, 0
3, 53580, Note_on_c, 1, 52, 0
3, 53580, Note_on_c, 1, 55, 0
3, 53640, Note_on_c, 1, 55, 40
3, 53640, Note_on_c, 1, 52, 40
3, 53640, Note_on_c, 1, 49, 40
3, 53700, Note_on_c, 1, 49, 0
3, 53700, Note_on_c, 1, 52, 0
3, 53700, Note_on_c, 1, 55, 0
3, 53760, Note_on_c, 1, 55, 48
3, 53760, Note_on_c, 1, 52, 48
3, 53760, Note_on_c, 1, 48, 48
3, 54000, Note_on_c, 1, 48, 0
3, 54000, Note_on_c, 1, 52, 0
3, 54000, Note_on_c, 1, 55, 0
3, 54720, Note_on_c, 1, 46, 64
3, 54720, Note_on_c, 1, 36, 64
3, 54720, Note_on_c, 1, 43, 64
3, 54720, Note_on_c, 1, 40, 64
3, 55680, Note_on_c, 1, 40, 0
3, 55680, Note_on_c, 1, 46, 0
3, 55680, Note_on_c, 1, 36, 0
3, 55680, Note_on_c, 1, 43, 0
3, 55680, Note_on_c, 1, 35, 88
3, 55710, Note_on_c, 1, 35, 0
3, 55740, Note_on_c, 1, 47, 48
3, 55800, Note_on_c, 1, 47, 0
3, 55800, Note_on_c, 1, 46, 48
3, 55860, Note_on_c, 1, 46, 0
3, 55860, Note_on_c, 1, 47, 48
3, 55920, Note_on_c, 1, 47, 0
3, 55920, Note_on_c, 1, 46, 48
3, 55980, Note_on_c, 1, 46, 0
3, 55980, Note_on_c, 1, 47, 48
3, 56040, Note_on_c, 1, 47, 0
3, 56040, Note_on_c, 1, 46, 48
3, 56100, Note_on_c, 1, 46, 0
3, 56100, Note_on_c, 1, 47, 48
3, 56160, Note_on_c, 1, 47, 0
3, 56160, Note_on_c, 1, 35, 88
3, 56190, Note_on_c, 1, 35, 0
3, 56220, Note_on_c, 1, 47, 48
3, 56280, Note_on_c, 1, 47, 0
3, 56280, Note_on_c, 1, 46, 48
3, 56340, Note_on_c, 1, 46, 0
3, 56340, Note_on_c, 1, 47, 48
3, 56400, Note_on_c, 1, 47, 0
3, 56400, Note_on_c, 1, 46, 48
3, 56460, Note_on_c, 1, 46, 0
3, 56460, Note_on_c, 1, 47, 48
3, 56520, Note_on_c, 1, 47, 0
3, 56520, Note_on_c, 1, 46, 48
3, 56580, Note_on_c, 1, 46, 0
3, 56580, Note_on_c, 1, 47, 48
3, 56640, Note_on_c, 1, 47, 0
3, 56640, Note_on_c, 1, 35, 88
3, 56670, Note_on_c, 1, 35, 0
3, 56700, Note_on_c, 1, 47, 48
3, 56760, Note_on_c, 1, 47, 0
3, 56760, Note_on_c, 1, 46, 48
3, 56820, Note_on_c, 1, 46, 0
3, 56820, Note_on_c, 1, 47, 48
3, 56880, Note_on_c, 1, 47, 0
3, 56880, Note_on_c, 1, 46, 48
3, 56940, Note_on_c, 1, 46, 0
3, 56940, Note_on_c, 1, 47, 48
3, 57000, Note_on_c, 1, 47, 0
3, 57000, Note_on_c, 1, 46, 48
3, 57060, Note_on_c, 1, 46, 0
3, 57060, Note_on_c, 1, 47, 48
3, 57120, Note_on_c, 1, 47, 0
3, 57120, Note_on_c, 1, 35, 88
3, 57150, Note_on_c, 1, 35, 0
3, 57180, Note_on_c, 1, 47, 48
3, 57240, Note_on_c, 1, 47, 0
3, 57240, Note_on_c, 1, 46, 48
3, 57300, Note_on_c, 1, 46, 0
3, 57300, Note_on_c, 1, 47, 48
3, 57360, Note_on_c, 1, 47, 0
3, 57360, Note_on_c, 1, 46, 48
3, 57420, Note_on_c, 1, 46, 0
3, 57420, Note_on_c, 1, 47, 48
3, 57480, Note_on_c, 1, 47, 0
3, 57480, Note_on_c, 1, 46, 48
3, 57540, Note_on_c, 1, 46, 0
3, 57540, Note_on_c, 1, 47, 48
3, 57600, Note_on_c, 1, 47, 0
3, 57600, Note_on_c, 1, 35, 88
3, 57630, Note_on_c, 1, 35, 0
3, 57660, Note_on_c, 1, 47, 48
3, 57720, Note_on_c, 1, 47, 0
3, 57720, Note_on_c, 1, 46, 48
3, 57780, Note_on_c, 1, 46, 0
3, 57780, Note_on_c, 1, 47, 48
3, 57840, Note_on_c, 1, 47, 0
3, 57840, Note_on_c, 1, 46, 48
3, 57900, Note_on_c, 1, 46, 0
3, 57900, Note_on_c, 1, 47, 48
3, 57960, Note_on_c, 1, 47, 0
3, 57960, Note_on_c, 1, 46, 48
3, 58020, Note_on_c, 1, 46, 0
3, 58020, Note_on_c, 1, 47, 48
3, 58080, Note_on_c, 1, 47, 0
3, 58080, Note_on_c, 1, 35, 88
3, 58110, Note_on_c, 1, 35, 0
3, 58140, Note_on_c, 1, 47, 48
3, 58200, Note_on_c, 1, 47, 0
3, 58200, Note_on_c, 1, 46, 48
3, 58260, Note_on_c, 1, 46, 0
3, 58260, Note_on_c, 1, 47, 48
3, 58320, Note_on_c, 1, 47, 0
3, 58320, Note_on_c, 1, 46, 48
3, 58380, Note_on_c, 1, 46, 0
3, 58380, Note_on_c, 1, 47, 48
3, 58440, Note_on_c, 1, 47, 0
3, 58440, Note_on_c, 1, 46, 48
3, 58500, Note_on_c, 1, 46, 0
3, 58500, Note_on_c, 1, 47, 48
3, 58560, Note_on_c, 1, 47, 0
3, 58560, Note_on_c, 1, 35, 88
3, 58590, Note_on_c, 1, 35, 0
3, 58620, Note_on_c, 1, 47, 48
3, 58680, Note_on_c, 1, 47, 0
3, 58680, Note_on_c, 1, 46, 48
3, 58740, Note_on_c, 1, 46, 0
3, 58740, Note_on_c, 1, 47, 48
3, 58800, Note_on_c, 1, 47, 0
3, 58800, Note_on_c, 1, 46, 48
3, 58860, Note_on_c, 1, 46, 0
3, 58860, Note_on_c, 1, 47, 48
3, 58920, Note_on_c, 1, 47, 0
3, 58920, Note_on_c, 1, 46, 48
3, 58980, Note_on_c, 1, 46, 0
3, 58980, Note_on_c, 1, 47, 48
3, 59040, Note_on_c, 1, 47, 0
3, 59040, Note_on_c, 1, 35, 88
3, 59070, Note_on_c, 1, 35, 0
3, 59100, Note_on_c, 1, 47, 48
3, 59160, Note_on_c, 1, 47, 0
3, 59160, Note_on_c, 1, 46, 48
3, 59220, Note_on_c, 1, 46, 0
3, 59220, Note_on_c, 1, 47, 48
3, 59280, Note_on_c, 1, 47, 0
3, 59280, Note_on_c, 1, 46, 48
3, 59340, Note_on_c, 1, 46, 0
3, 59340, Note_on_c, 1, 47, 48
3, 59400, Note_on_c, 1, 47, 0
3, 59400, Note_on_c, 1, 46, 48
3, 59460, Note_on_c, 1, 46, 0
3, 59460, Note_on_c, 1, 47, 48
3, 59520, Note_on_c, 1, 47, 0
3, 59520, Note_on_c, 1, 40, 72
3, 59550, Note_on_c, 1, 40, 0
3, 59580, Note_on_c, 1, 52, 24
3, 59640, Note_on_c, 1, 52, 0
3, 59640, Note_on_c, 1, 51, 24
3, 59700, Note_on_c, 1, 51, 0
3, 59700, Note_on_c, 1, 52, 24
3, 59760, Note_on_c, 1, 52, 0
3, 59760, Note_on_c, 1, 51, 24
3, 59820, Note_on_c, 1, 51, 0
3, 59820, Note_on_c, 1, 52, 24
3, 59880, Note_on_c, 1, 52, 0
3, 59880, Note_on_c, 1, 51, 24
3, 59940, Note_on_c, 1, 51, 0
3, 59940, Note_on_c, 1, 52, 24
3, 60000, Note_on_c, 1, 52, 0
3, 60000, Note_on_c, 1, 40, 72
3, 60030, Note_on_c, 1, 40, 0
3, 60060, Note_on_c, 1, 52, 24
3, 60120, Note_on_c, 1, 52, 0
3, 60120, Note_on_c, 1, 51, 24
3, 60180, Note_on_c, 1, 51, 0
3, 60180, Note_on_c, 1, 52, 24
3, 60240, Note_on_c, 1, 52, 0
3, 60240, Note_on_c, 1, 51, 24
3, 60300, Note_on_c, 1, 51, 0
3, 60300, Note_on_c, 1, 52, 24
3, 60360, Note_on_c, 1, 52, 0
3, 60360, Note_on_c, 1, 51, 24
3, 60420, Note_on_c, 1, 51, 0
3, 60420, Note_on_c, 1, 52, 24
3, 60480, Note_on_c, 1, 52, 0
3, 60480, Note_on_c, 1, 40, 72
3, 60510, Note_on_c, 1, 40, 0
3, 60540, Note_on_c, 1, 52, 24
3, 60600, Note_on_c, 1, 52, 0
3, 60600, Note_on_c, 1, 51, 24
3, 60660, Note_on_c, 1, 51, 0
3, 60660, Note_on_c, 1, 52, 24
3, 60720, Note_on_c, 1, 52, 0
3, 60720, Note_on_c, 1, 51, 24
3, 60780, Note_on_c, 1, 51, 0
3, 60780, Note_on_c, 1, 52, 24
3, 60840, Note_on_c, 1, 52, 0
3, 60840, Note_on_c, 1, 51, 24
3, 60900, Note_on_c, 1, 51, 0
3, 60900, Note_on_c, 1, 52, 24
3, 60960, Note_on_c, 1, 52, 0
3, 60960, Note_on_c, 1, 40, 72
3, 60990, Note_on_c, 1, 40, 0
3, 61020, Note_on_c, 1, 52, 24
3, 61080, Note_on_c, 1, 52, 0
3, 61080, Note_on_c, 1, 51, 24
3, 61140, Note_on_c, 1, 51, 0
3, 61140, Note_on_c, 1, 52, 24
3, 61200, Note_on_c, 1, 52, 0
3, 61200, Note_on_c, 1, 51, 24
3, 61260, Note_on_c, 1, 51, 0
3, 61260, Note_on_c, 1, 52, 24
3, 61320, Note_on_c, 1, 52, 0
3, 61320, Note_on_c, 1, 51, 24
3, 61380, Note_on_c, 1, 51, 0
3, 61380, Note_on_c, 1, 52, 24
3, 61440, Note_on_c, 1, 52, 0
3, 61440, Note_on_c, 1, 40, 72
3, 61470, Note_on_c, 1, 40, 0
3, 61500, Note_on_c, 1, 52, 24
3, 61560, Note_on_c, 1, 52, 0
3, 61560, Note_on_c, 1, 51, 24
3, 61620, Note_on_c, 1, 51, 0
3, 61620, Note_on_c, 1, 52, 24
3, 61680, Note_on_c, 1, 52, 0
3, 61680, Note_on_c, 1, 51, 24
3, 61740, Note_on_c, 1, 51, 0
3, 61740, Note_on_c, 1, 52, 24
3, 61800, Note_on_c, 1, 52, 0
3, 61800, Note_on_c, 1, 51, 24
3, 61860, Note_on_c, 1, 51, 0
3, 61860, Note_on_c, 1, 52, 24
3, 61920, Note_on_c, 1, 52, 0
3, 61920, Note_on_c, 1, 40, 72
3, 61950, Note_on_c, 1, 40, 0
3, 61980, Note_on_c, 1, 52, 24
3, 62040, Note_on_c, 1, 52, 0
3, 62040, Note_on_c, 1, 51, 24
3, 62100, Note_on_c, 1, 51, 0
3, 62100, Note_on_c, 1, 52, 24
3, 62160, Note_on_c, 1, 52, 0
3, 62160, Note_on_c, 1, 51, 24
3, 62220, Note_on_c, 1, 51, 0
3, 62220, Note_on_c, 1, 52, 24
3, 62280, Note_on_c, 1, 52, 0
3, 62280, Note_on_c, 1, 51, 24
3, 62340, Note_on_c, 1, 51, 0
3, 62340, Note_on_c, 1, 52, 24
3, 62400, Note_on_c, 1, 52, 0
3, 62400, Note_on_c, 1, 40, 72
3, 62430, Note_on_c, 1, 40, 0
3, 62460, Note_on_c, 1, 52, 24
3, 62520, Note_on_c, 1, 52, 0
3, 62520, Note_on_c, 1, 51, 24
3, 62580, Note_on_c, 1, 51, 0
3, 62580, Note_on_c, 1, 52, 24
3, 62640, Note_on_c, 1, 52, 0
3, 62640, Note_on_c, 1, 51, 24
3, 62700, Note_on_c, 1, 51, 0
3, 62700, Note_on_c, 1, 52, 24
3, 62760, Note_on_c, 1, 52, 0
3, 62760, Note_on_c, 1, 51, 24
3, 62820, Note_on_c, 1, 51, 0
3, 62820, Note_on_c, 1, 52, 24
3, 62880, Note_on_c, 1, 52, 0
3, 62880, Note_on_c, 1, 40, 72
3, 62910, Note_on_c, 1, 40, 0
3, 62940, Note_on_c, 1, 52, 24
3, 63000, Note_on_c, 1, 52, 0
3, 63000, Note_on_c, 1, 51, 24
3, 63060, Note_on_c, 1, 51, 0
3, 63060, Note_on_c, 1, 52, 24
3, 63120, Note_on_c, 1, 52, 0
3, 63120, Note_on_c, 1, 51, 24
3, 63180, Note_on_c, 1, 51, 0
3, 63180, Note_on_c, 1, 52, 24
3, 63240, Note_on_c, 1, 52, 0
3, 63240, Note_on_c, 1, 51, 24
3, 63300, Note_on_c, 1, 51, 0
3, 63300, Note_on_c, 1, 52, 24
3, 63360, Note_on_c, 1, 52, 0
3, 63360, Note_on_c, 1, 45, 88
3, 63390, Note_on_c, 1, 45, 0
3, 63420, Note_on_c, 1, 57, 48
3, 63480, Note_on_c, 1, 57, 0
3, 63480, Note_on_c, 1, 56, 48
3, 63540, Note_on_c, 1, 56, 0
3, 63540, Note_on_c, 1, 57, 48
3, 63600, Note_on_c, 1, 57, 0
3, 63600, Note_on_c, 1, 56, 48
3, 63660, Note_on_c, 1, 56, 0
3, 63660, Note_on_c, 1, 57, 48
3, 63720, Note_on_c, 1, 57, 0
3, 63720, Note_on_c, 1, 56, 48
3, 63780, Note_on_c, 1, 56, 0
3, 63780, Note_on_c, 1, 57, 48
3, 63840, Note_on_c, 1, 57, 0
3, 63840, Note_on_c, 1, 45, 88
3, 63870, Note_on_c, 1, 45, 0
3, 63900, Note_on_c, 1, 57, 48
3, 63960, Note_on_c, 1, 57, 0
3, 63960, Note_on_c, 1, 56, 48
3, 64020, Note_on_c, 1, 56, 0
3, 64020, Note_on_c, 1, 57, 48
3, 64080, Note_on_c, 1, 57, 0
3, 64080, Note_on_c, 1, 56, 48
3, 64140, Note_on_c, 1, 56, 0
3, 64140, Note_on_c, 1, 57, 48
3, 64200, Note_on_c, 1, 57, 0
3, 64200, Note_on_c, 1, 56, 48
3, 64260, Note_on_c, 1, 56, 0
3, 64260, Note_on_c, 1, 57, 48
3, 64320, Note_on_c, 1, 57, 0
3, 64320, Note_on_c, 1, 45, 88
3, 64350, Note_on_c, 1, 45, 0
3, 64380, Note_on_c, 1, 57, 48
3, 64440, Note_on_c, 1, 57, 0
3, 64440, Note_on_c, 1, 56, 48
3, 64500, Note_on_c, 1, 56, 0
3, 64500, Note_on_c, 1, 57, 48
3, 64560, Note_on_c, 1, 57, 0
3, 64560, Note_on_c, 1, 56, 48
3, 64620, Note_on_c, 1, 56, 0
3, 64620, Note_on_c, 1, 57, 48
3, 64680, Note_on_c, 1, 57, 0
3, 64680, Note_on_c, 1, 56, 48
3, 64740, Note_on_c, 1, 56, 0
3, 64740, Note_on_c, 1, 57, 48
3, 64800, Note_on_c, 1, 57, 0
3, 64800, Note_on_c, 1, 45, 88
3, 64830, Note_on_c, 1, 45, 0
3, 64860, Note_on_c, 1, 57, 48
3, 64920, Note_on_c, 1, 57, 0
3, 64920, Note_on_c, 1, 56, 48
3, 64980, Note_on_c, 1, 56, 0
3, 64980, Note_on_c, 1, 57, 48
3, 65040, Note_on_c, 1, 57, 0
3, 65040, Note_on_c, 1, 56, 48
3, 65100, Note_on_c, 1, 56, 0
3, 65100, Note_on_c, 1, 57, 48
3, 65160, Note_on_c, 1, 57, 0
3, 65160, Note_on_c, 1, 56, 48
3, 65220, Note_on_c, 1, 56, 0
3, 65220, Note_on_c, 1, 57, 48
3, 65280, Note_on_c, 1, 57, 0
3, 65280, Note_on_c, 1, 45, 88
3, 65310, Note_on_c, 1, 45, 0
3, 65340, Note_on_c, 1, 57, 48
3, 65400, Note_on_c, 1, 57, 0
3, 65400, Note_on_c, 1, 56, 48
3, 65460, Note_on_c, 1, 56, 0
3, 65460, Note_on_c, 1, 57, 48
3, 65520, Note_on_c, 1, 57, 0
3, 65520, Note_on_c, 1, 56, 48
3, 65580, Note_on_c, 1, 56, 0
3, 65580, Note_on_c, 1, 57, 48
3, 65640, Note_on_c, 1, 57, 0
3, 65640, Note_on_c, 1, 56, 48
3, 65700, Note_on_c, 1, 56, 0
3, 65700, Note_on_c, 1, 57, 48
3, 65760, Note_on_c, 1, 57, 0
3, 65760, Note_on_c, 1, 45, 88
3, 65790, Note_on_c, 1, 45, 0
3, 65820, Note_on_c, 1, 57, 48
3, 65880, Note_on_c, 1, 57, 0
3, 65880, Note_on_c, 1, 56, 48
3, 65940, Note_on_c, 1, 56, 0
3, 65940, Note_on_c, 1, 57, 48
3, 66000, Note_on_c, 1, 57, 0
3, 66000, Note_on_c, 1, 56, 48
3, 66060, Note_on_c, 1, 56, 0
3, 66060, Note_on_c, 1, 57, 48
3, 66120, Note_on_c, 1, 57, 0
3, 66120, Note_on_c, 1, 56, 48
3, 66180, Note_on_c, 1, 56, 0
3, 66180, Note_on_c, 1, 57, 48
3, 66240, Note_on_c, 1, 57, 0
3, 66240, Note_on_c, 1, 45, 88
3, 66270, Note_on_c, 1, 45, 0
3, 66300, Note_on_c, 1, 57, 48
3, 66360, Note_on_c, 1, 57, 0
3, 66360, Note_on_c, 1, 56, 48
3, 66420, Note_on_c, 1, 56, 0
3, 66420, Note_on_c, 1, 57, 48
3, 66480, Note_on_c, 1, 57, 0
3, 66480, Note_on_c, 1, 56, 48
3, 66540, Note_on_c, 1, 56, 0
3, 66540, Note_on_c, 1, 57, 48
3, 66600, Note_on_c, 1, 57, 0
3, 66600, Note_on_c, 1, 56, 48
3, 66660, Note_on_c, 1, 56, 0
3, 66660, Note_on_c, 1, 57, 48
3, 66720, Note_on_c, 1, 57, 0
3, 66720, Note_on_c, 1, 45, 88
3, 66750, Note_on_c, 1, 45, 0
3, 66780, Note_on_c, 1, 57, 48
3, 66840, Note_on_c, 1, 57, 0
3, 66840, Note_on_c, 1, 56, 48
3, 66900, Note_on_c, 1, 56, 0
3, 66900, Note_on_c, 1, 57, 48
3, 66960, Note_on_c, 1, 57, 0
3, 66960, Note_on_c, 1, 56, 48
3, 67020, Note_on_c, 1, 56, 0
3, 67020, Note_on_c, 1, 57, 48
3, 67080, Note_on_c, 1, 57, 0
3, 67080, Note_on_c, 1, 56, 48
3, 67140, Note_on_c, 1, 56, 0
3, 67140, Note_on_c, 1, 57, 48
3, 67200, Note_on_c, 1, 57, 0
3, 67200, Note_on_c, 1, 50, 80
3, 67260, Note_on_c, 1, 50, 0
3, 67260, Note_on_c, 1, 53, 80
3, 67320, Note_on_c, 1, 53, 0
3, 67320, Note_on_c, 1, 57, 80
3, 67380, Note_on_c, 1, 57, 0
3, 67380, Note_on_c, 1, 62, 80
3, 67440, Note_on_c, 1, 62, 0
3, 67440, Note_on_c, 1, 65, 80
3, 67500, Note_on_c, 1, 65, 0
3, 67500, Note_on_c, 1, 64, 80
3, 67560, Note_on_c, 1, 64, 0
3, 67560, Note_on_c, 1, 62, 80
3, 67620, Note_on_c, 1, 62, 0
3, 67620, Note_on_c, 1, 60, 80
3, 67680, Note_on_c, 1, 60, 0
3, 67680, Note_on_c, 1, 59, 80
3, 67740, Note_on_c, 1, 59, 0
3, 67740, Note_on_c, 1, 60, 80
3, 67800, Note_on_c, 1, 60, 0
3, 67800, Note_on_c, 1, 62, 80
3, 67860, Note_on_c, 1, 62, 0
3, 67860, Note_on_c, 1, 60, 80
3, 67920, Note_on_c, 1, 60, 0
3, 67920, Note_on_c, 1, 59, 80
3, 67980, Note_on_c, 1, 59, 0
3, 67980, Note_on_c, 1, 55, 80
3, 68040, Note_on_c, 1, 55, 0
3, 68040, Note_on_c, 1, 57, 80
3, 68100, Note_on_c, 1, 57, 0
3, 68100, Note_on_c, 1, 59, 80
3, 68160, Note_on_c, 1, 59, 0
3, 68160, Note_on_c, 1, 60, 80
3, 68220, Note_on_c, 1, 60, 0
3, 68220, Note_on_c, 1, 59, 80
3, 68280, Note_on_c, 1, 59, 0
3, 68280, Note_on_c, 1, 60, 80
3, 68340, Note_on_c, 1, 60, 0
3, 68340, Note_on_c, 1, 62, 80
3, 68400, Note_on_c, 1, 62, 0
3, 68400, Note_on_c, 1, 64, 80
3, 68460, Note_on_c, 1, 64, 0
3, 68460, Note_on_c, 1, 62, 80
3, 68520, Note_on_c, 1, 62, 0
3, 68520, Note_on_c, 1, 60, 80
3, 68580, Note_on_c, 1, 60, 0
3, 68580, Note_on_c, 1, 59, 80
3, 68640, Note_on_c, 1, 59, 0
3, 68640, Note_on_c, 1, 57, 80
3, 68700, Note_on_c, 1, 57, 0
3, 68700, Note_on_c, 1, 59, 80
3, 68760, Note_on_c, 1, 59, 0
3, 68760, Note_on_c, 1, 60, 80
3, 68820, Note_on_c, 1, 60, 0
3, 68820, Note_on_c, 1, 59, 80
3, 68880, Note_on_c, 1, 59, 0
3, 68880, Note_on_c, 1, 57, 80
3, 68940, Note_on_c, 1, 57, 0
3, 68940, Note_on_c, 1, 53, 80
3, 69000, Note_on_c, 1, 53, 0
3, 69000, Note_on_c, 1, 55, 80
3, 69060, Note_on_c, 1, 55, 0
3, 69060, Note_on_c, 1, 57, 80
3, 69120, Note_on_c, 1, 57, 0
3, 69120, Note_on_c, 1, 59, 80
3, 69180, Note_on_c, 1, 59, 0
3, 69180, Note_on_c, 1, 57, 80
3, 69240, Note_on_c, 1, 57, 0
3, 69240, Note_on_c, 1, 59, 80
3, 69300, Note_on_c, 1, 59, 0
3, 69300, Note_on_c, 1, 60, 80
3, 69360, Note_on_c, 1, 60, 0
3, 69360, Note_on_c, 1, 62, 80
3, 69420, Note_on_c, 1, 62, 0
3, 69420, Note_on_c, 1, 60, 80
3, 69480, Note_on_c, 1, 60, 0
3, 69480, Note_on_c, 1, 59, 80
3, 69540, Note_on_c, 1, 59, 0
3, 69540, Note_on_c, 1, 57, 80
3, 69600, Note_on_c, 1, 57, 0
3, 69600, Note_on_c, 1, 56, 80
3, 69660, Note_on_c, 1, 56, 0
3, 69660, Note_on_c, 1, 57, 80
3, 69720, Note_on_c, 1, 57, 0
3, 69720, Note_on_c, 1, 59, 80
3, 69780, Note_on_c, 1, 59, 0
3, 69780, Note_on_c, 1, 57, 80
3, 69840, Note_on_c, 1, 57, 0
3, 69840, Note_on_c, 1, 56, 80
3, 69900, Note_on_c, 1, 56, 0
3, 69900, Note_on_c, 1, 52, 80
3, 69960, Note_on_c, 1, 52, 0
3, 69960, Note_on_c, 1, 54, 80
3, 70020, Note_on_c, 1, 54, 0
3, 70020, Note_on_c, 1, 56, 80
3, 70080, Note_on_c, 1, 56, 0
3, 70080, Note_on_c, 1, 57, 80
3, 70320, Note_on_c, 1, 57, 0
3, 70320, Note_on_c, 1, 43, 80
3, 70320, Note_on_c, 1, 55, 80
3, 70440, Note_on_c, 1, 55, 0
3, 70440, Note_on_c, 1, 43, 0
3, 70560, Note_on_c, 1, 42, 80
3, 70560, Note_on_c, 1, 54, 80
3, 70680, Note_on_c, 1, 54, 0
3, 70680, Note_on_c, 1, 42, 0
3, 70800, Note_on_c, 1, 41, 80
3, 70800, Note_on_c, 1, 53, 80
3, 71016, Note_on_c, 1, 53, 0
3, 71016, Note_on_c, 1, 41, 0
3, 71040, Note_on_c, 1, 40, 88
3, 71040, Note_on_c, 1, 52, 88
3, 71280, Note_on_c, 1, 52, 0
3, 71280, Note_on_c, 1, 40, 0
3, 71460, Note_on_c, 1, 52, 80
3, 71520, Note_on_c, 1, 52, 0
3, 71520, Note_on_c, 1, 64, 88
3, 71760, Note_on_c, 1, 64, 0
3, 71760, Note_on_c, 1, 57, 68
3, 71790, Note_on_c, 1, 57, 0
3, 71790, Note_on_c, 1, 56, 70
3, 71820, Note_on_c, 1, 56, 0
3, 71820, Note_on_c, 1, 57, 71
3, 71850, Note_on_c, 1, 57, 0
3, 71850, Note_on_c, 1, 56, 73
3, 71880, Note_on_c, 1, 56, 0
3, 71880, Note_on_c, 1, 57, 74
3, 71910, Note_on_c, 1, 57, 0
3, 71910, Note_on_c, 1, 56, 76
3, 71940, Note_on_c, 1, 56, 0
3, 71940, Note_on_c, 1, 54, 77
3, 71970, Note_on_c, 1, 54, 0
3, 71970, Note_on_c, 1, 56, 79
3, 72000, Note_on_c, 1, 56, 0
3, 72000, Note_on_c, 1, 57, 88
3, 72240, Note_on_c, 1, 57, 0
3, 72420, Note_on_c, 1, 45, 80
3, 72480, Note_on_c, 1, 45, 0
3, 72480, Note_on_c, 1, 57, 88
3, 72720, Note_on_c, 1, 57, 0
3, 72720, Note_on_c, 1, 52, 72
3, 72750, Note_on_c, 1, 52, 0
3, 72750, Note_on_c, 1, 51, 69
3, 72780, Note_on_c, 1, 51, 0
3, 72780, Note_on_c, 1, 52, 66
3, 72810, Note_on_c, 1, 52, 0
3, 72810, Note_on_c, 1, 51, 63
3, 72840, Note_on_c, 1, 51, 0
3, 72840, Note_on_c, 1, 52, 60
3, 72870, Note_on_c, 1, 52, 0
3, 72870, Note_on_c, 1, 51, 57
3, 72900, Note_on_c, 1, 51, 0
3, 72900, Note_on_c, 1, 49, 54
3, 72930, Note_on_c, 1, 49, 0
3, 72930, Note_on_c, 1, 51, 51
3, 72960, Note_on_c, 1, 51, 0
3, 72960, Note_on_c, 1, 52, 48
3, 73200, Note_on_c, 1, 52, 0
3, 73380, Note_on_c, 1, 52, 48
3, 73440, Note_on_c, 1, 52, 0
3, 73440, Note_on_c, 1, 64, 48
3, 73680, Note_on_c, 1, 64, 0
3, 73680, Note_on_c, 1, 57, 48
3, 73710, Note_on_c, 1, 57, 0
3, 73710, Note_on_c, 1, 56, 48
3, 73740, Note_on_c, 1, 56, 0
3, 73740, Note_on_c, 1, 57, 48
3, 73770, Note_on_c, 1, 57, 0
3, 73770, Note_on_c, 1, 56, 48
3, 73800, Note_on_c, 1, 56, 0
3, 73800, Note_on_c, 1, 57, 48
3, 73830, Note_on_c, 1, 57, 0
3, 73830, Note_on_c, 1, 56, 48
3, 73860, Note_on_c, 1, 56, 0
3, 73860, Note_on_c, 1, 54, 48
3, 73890, Note_on_c, 1, 54, 0
3, 73890, Note_on_c, 1, 56, 48
3, 73920, Note_on_c, 1, 56, 0
3, 73920, Note_on_c, 1, 57, 48
3, 74160, Note_on_c, 1, 57, 0
3, 74340, Note_on_c, 1, 45, 48
3, 74400, Note_on_c, 1, 45, 0
3, 74400, Note_on_c, 1, 57, 48
3, 74640, Note_on_c, 1, 57, 0
3, 74640, Note_on_c, 1, 52, 48
3, 74670, Note_on_c, 1, 52, 0
3, 74670, Note_on_c, 1, 51, 48
3, 74700, Note_on_c, 1, 51, 0
3, 74700, Note_on_c, 1, 52, 48
3, 74730, Note_on_c, 1, 52, 0
3, 74730, Note_on_c, 1, 51, 48
3, 74760, Note_on_c, 1, 51, 0
3, 74760, Note_on_c, 1, 52, 48
3, 74790, Note_on_c, 1, 52, 0
3, 74790, Note_on_c, 1, 51, 48
3, 74820, Note_on_c, 1, 51, 0
3, 74820, Note_on_c, 1, 49, 48
3, 74850, Note_on_c, 1, 49, 0
3, 74850, Note_on_c, 1, 51, 48
3, 74880, Note_on_c, 1, 51, 0
3, 74880, Note_on_c, 1, 52, 48
3, 75120, Note_on_c, 1, 52, 0
3, 75120, Note_on_c, 1, 53, 56
3, 75120, Note_on_c, 1, 41, 56
3, 75360, Note_on_c, 1, 41, 0
3, 75360, Note_on_c, 1, 53, 0
3, 75360, Note_on_c, 1, 40, 64
3, 75360, Note_on_c, 1, 52, 64
3, 75600, Note_on_c, 1, 52, 0
3, 75600, Note_on_c, 1, 40, 0
3, 75600, Note_on_c, 1, 41, 72
3, 75600, Note_on_c, 1, 53, 72
3, 75840, Note_on_c, 1, 53, 0
3, 75840, Note_on_c, 1, 41, 0
3, 75840, Note_on_c, 1, 40, 80
3, 75840, Note_on_c, 1, 52, 80
3, 75960, Note_on_c, 1, 52, 0
3, 75960, Note_on_c, 1, 40, 0
3, 76800, Note_on_c, 1, 64, 56
3, 76800, Note_on_c, 1, 60, 56
3, 76800, Note_on_c, 1, 57, 56
3, 76860, Note_on_c, 1, 57, 0
3, 76860, Note_on_c, 1, 60, 0
3, 76860, Note_on_c, 1, 64, 0
3, 76920, Note_on_c, 1, 64, 48
3, 76920, Note_on_c, 1, 60, 48
3, 76920, Note_on_c, 1, 57, 48
3, 77040, Note_on_c, 1, 57, 0
3, 77040, Note_on_c, 1, 60, 0
3, 77040, Note_on_c, 1, 64, 0
3, 77040, Note_on_c, 1, 64, 48
3, 77040, Note_on_c, 1, 60, 48
3, 77040, Note_on_c, 1, 57, 48
3, 77160, Note_on_c, 1, 57, 0
3, 77160, Note_on_c, 1, 60, 0
3, 77160, Note_on_c, 1, 64, 0
3, 77160, Note_on_c, 1, 64, 48
3, 77160, Note_on_c, 1, 60, 48
3, 77160, Note_on_c, 1, 57, 48
3, 77220, Note_on_c, 1, 57, 0
3, 77220, Note_on_c, 1, 60, 0
3, 77220, Note_on_c, 1, 64, 0
3, 77280, Note_on_c, 1, 64, 56
3, 77280, Note_on_c, 1, 60, 56
3, 77280, Note_on_c, 1, 57, 56
3, 77340, Note_on_c, 1, 57, 0
3, 77340, Note_on_c, 1, 60, 0
3, 77340, Note_on_c, 1, 64, 0
3, 77400, Note_on_c, 1, 64, 48
3, 77400, Note_on_c, 1, 60, 48
3, 77400, Note_on_c, 1, 57, 48
3, 77520, Note_on_c, 1, 57, 0
3, 77520, Note_on_c, 1, 60, 0
3, 77520, Note_on_c, 1, 64, 0
3, 77520, Note_on_c, 1, 64, 48
3, 77520, Note_on_c, 1, 60, 48
3, 77520, Note_on_c, 1, 57, 48
3, 77640, Note_on_c, 1, 57, 0
3, 77640, Note_on_c, 1, 60, 0
3, 77640, Note_on_c, 1, 64, 0
3, 77640, Note_on_c, 1, 64, 48
3, 77640, Note_on_c, 1, 60, 48
3, 77640, Note_on_c, 1, 57, 48
3, 77700, Note_on_c, 1, 57, 0
3, 77700, Note_on_c, 1, 60, 0
3, 77700, Note_on_c, 1, 64, 0
3, 77760, Note_on_c, 1, 64, 56
3, 77760, Note_on_c, 1, 62, 56
3, 77760, Note_on_c, 1, 57, 56
3, 77760, Note_on_c, 1, 59, 56
3, 77820, Note_on_c, 1, 59, 0
3, 77820, Note_on_c, 1, 64, 0
3, 77820, Note_on_c, 1, 62, 0
3, 77820, Note_on_c, 1, 57, 0
3, 77880, Note_on_c, 1, 64, 48
3, 77880, Note_on_c, 1, 62, 48
3, 77880, Note_on_c, 1, 59, 48
3, 77880, Note_on_c, 1, 57, 48
3, 78000, Note_on_c, 1, 57, 0
3, 78000, Note_on_c, 1, 64, 0
3, 78000, Note_on_c, 1, 62, 0
3, 78000, Note_on_c, 1, 59, 0
3, 78000, Note_on_c, 1, 64, 48
3, 78000, Note_on_c, 1, 62, 48
3, 78000, Note_on_c, 1, 59, 48
3, 78000, Note_on_c, 1, 57, 48
3, 78120, Note_on_c, 1, 57, 0
3, 78120, Note_on_c, 1, 64, 0
3, 78120, Note_on_c, 1, 62, 0
3, 78120, Note_on_c, 1, 59, 0
3, 78120, Note_on_c, 1, 64, 48
3, 78120, Note_on_c, 1, 62, 48
3, 78120, Note_on_c, 1, 59, 48
3, 78120, Note_on_c, 1, 57, 48
3, 78180, Note_on_c, 1, 57, 0
3, 78180, Note_on_c, 1, 64, 0
3, 78180, Note_on_c, 1, 62, 0
3, 78180, Note_on_c, 1, 59, 0
3, 78240, Note_on_c, 1, 64, 48
3, 78240, Note_on_c, 1, 62, 48
3, 78240, Note_on_c, 1, 59, 48
3, 78240, Note_on_c, 1, 57, 48
3, 78300, Note_on_c, 1, 57, 0
3, 78300, Note_on_c, 1, 64, 0
3, 78300, Note_on_c, 1, 62, 0
3, 78300, Note_on_c, 1, 59, 0
3, 78360, Note_on_c, 1, 64, 48
3, 78360, Note_on_c, 1, 62, 48
3, 78360, Note_on_c, 1, 59, 48
3, 78360, Note_on_c, 1, 57, 48
3, 78480, Note_on_c, 1, 57, 0
3, 78480, Note_on_c, 1, 64, 0
3, 78480, Note_on_c, 1, 62, 0
3, 78480, Note_on_c, 1, 59, 0
3, 78480, Note_on_c, 1, 64, 48
3, 78480, Note_on_c, 1, 62, 48
3, 78480, Note_on_c, 1, 59, 48
3, 78480, Note_on_c, 1, 57, 48
3, 78600, Note_on_c, 1, 57, 0
3, 78600, Note_on_c, 1, 64, 0
3, 78600, Note_on_c, 1, 62, 0
3, 78600, Note_on_c, 1, 59, 0
3, 78600, Note_on_c, 1, 64, 48
3, 78600, Note_on_c, 1, 62, 48
3, 78600, Note_on_c, 1, 59, 48
3, 78600, Note_on_c, 1, 57, 48
3, 78720, Note_on_c, 1, 57, 0
3, 78720, Note_on_c, 1, 64, 0
3, 78720, Note_on_c, 1, 62, 0
3, 78720, Note_on_c, 1, 59, 0
3, 78720, Note_on_c, 1, 57, 56
3, 78720, Note_on_c, 1, 60, 56
3, 78720, Note_on_c, 1, 64, 56
3, 78780, Note_on_c, 1, 64, 0
3, 78780, Note_on_c, 1, 60, 0
3, 78780, Note_on_c, 1, 57, 0
3, 78840, Note_on_c, 1, 57, 48
3, 78840, Note_on_c, 1, 60, 48
3, 78840, Note_on_c, 1, 64, 48
3, 78960, Note_on_c, 1, 64, 0
3, 78960, Note_on_c, 1, 60, 0
3, 78960, Note_on_c, 1, 57, 0
3, 78960, Note_on_c, 1, 57, 48
3, 78960, Note_on_c, 1, 60, 48
3, 78960, Note_on_c, 1, 64, 48
3, 79080, Note_on_c, 1, 64, 0
3, 79080, Note_on_c, 1, 60, 0
3, 79080, Note_on_c, 1, 57, 0
3, 79080, Note_on_c, 1, 57, 48
3, 79080, Note_on_c, 1, 60, 48
3, 79080, Note_on_c, 1, 64, 48
3, 79140, Note_on_c, 1, 64, 0
3, 79140, Note_on_c, 1, 60, 0
3, 79140, Note_on_c, 1, 57, 0
3, 79200, Note_on_c, 1, 57, 48
3, 79200, Note_on_c, 1, 60, 48
3, 79200, Note_on_c, 1, 64, 48
3, 79260, Note_on_c, 1, 64, 0
3, 79260, Note_on_c, 1, 60, 0
3, 79260, Note_on_c, 1, 57, 0
3, 79320, Note_on_c, 1, 57, 48
3, 79320, Note_on_c, 1, 60, 48
3, 79320, Note_on_c, 1, 64, 48
3, 79440, Note_on_c, 1, 64, 0
3, 79440, Note_on_c, 1, 60, 0
3, 79440, Note_on_c, 1, 57, 0
3, 79440, Note_on_c, 1, 57, 48
3, 79440, Note_on_c, 1, 60, 48
3, 79440, Note_on_c, 1, 64, 48
3, 79560, Note_on_c, 1, 64, 0
3, 79560, Note_on_c, 1, 60, 0
3, 79560, Note_on_c, 1, 57, 0
3, 79560, Note_on_c, 1, 57, 48
3, 79560, Note_on_c, 1, 60, 48
3, 79560, Note_on_c, 1, 64, 48
3, 79620, Note_on_c, 1, 64, 0
3, 79620, Note_on_c, 1, 60, 0
3, 79620, Note_on_c, 1, 57, 0
3, 79680, Note_on_c, 1, 59, 56
3, 79680, Note_on_c, 1, 57, 56
3, 79680, Note_on_c, 1, 62, 56
3, 79680, Note_on_c, 1, 64, 56
3, 79740, Note_on_c, 1, 64, 0
3, 79740, Note_on_c, 1, 59, 0
3, 79740, Note_on_c, 1, 57, 0
3, 79740, Note_on_c, 1, 62, 0
3, 79800, Note_on_c, 1, 64, 48
3, 79800, Note_on_c, 1, 57, 48
3, 79800, Note_on_c, 1, 59, 48
3, 79800, Note_on_c, 1, 62, 48
3, 79920, Note_on_c, 1, 62, 0
3, 79920, Note_on_c, 1, 64, 0
3, 79920, Note_on_c, 1, 57, 0
3, 79920, Note_on_c, 1, 59, 0
3, 79920, Note_on_c, 1, 64, 48
3, 79920, Note_on_c, 1, 57, 48
3, 79920, Note_on_c, 1, 59, 48
3, 79920, Note_on_c, 1, 62, 48
3, 80040, Note_on_c, 1, 62, 0
3, 80040, Note_on_c, 1, 64, 0
3, 80040, Note_on_c, 1, 57, 0
3, 80040, Note_on_c, 1, 59, 0
3, 80040, Note_on_c, 1, 57, 48
3, 80040, Note_on_c, 1, 59, 48
3, 80040, Note_on_c, 1, 62, 48
3, 80040, Note_on_c, 1, 64, 48
3, 80100, Note_on_c, 1, 64, 0
3, 80100, Note_on_c, 1, 57, 0
3, 80100, Note_on_c, 1, 59, 0
3, 80100, Note_on_c, 1, 62, 0
3, 80160, Note_on_c, 1, 57, 48
3, 80160, Note_on_c, 1, 59, 48
3, 80160, Note_on_c, 1, 62, 48
3, 80160, Note_on_c, 1, 64, 48
3, 80220, Note_on_c, 1, 64, 0
3, 80220, Note_on_c, 1, 57, 0
3, 80220, Note_on_c, 1, 59, 0
3, 80220, Note_on_c, 1, 62, 0
3, 80280, Note_on_c, 1, 57, 48
3, 80280, Note_on_c, 1, 59, 48
3, 80280, Note_on_c, 1, 62, 48
3, 80280, Note_on_c, 1, 64, 48
3, 80400, Note_on_c, 1, 64, 0
3, 80400, Note_on_c, 1, 57, 0
3, 80400, Note_on_c, 1, 59, 0
3, 80400, Note_on_c, 1, 62, 0
3, 80400, Note_on_c, 1, 57, 48
3, 80400, Note_on_c, 1, 64, 48
3, 80400, Note_on_c, 1, 59, 48
3, 80400, Note_on_c, 1, 62, 48
3, 80520, Note_on_c, 1, 62, 0
3, 80520, Note_on_c, 1, 57, 0
3, 80520, Note_on_c, 1, 64, 0
3, 80520, Note_on_c, 1, 59, 0
3, 80520, Note_on_c, 1, 59, 48
3, 80520, Note_on_c, 1, 57, 48
3, 80520, Note_on_c, 1, 62, 48
3, 80520, Note_on_c, 1, 64, 48
3, 80640, Note_on_c, 1, 64, 0
3, 80640, Note_on_c, 1, 59, 0
3, 80640, Note_on_c, 1, 57, 0
3, 80640, Note_on_c, 1, 62, 0
3, 80640, Note_on_c, 1, 57, 48
3, 80640, Note_on_c, 1, 60, 48
3, 80640, Note_on_c, 1, 64, 48
3, 80760, Note_on_c, 1, 64, 0
3, 80760, Note_on_c, 1, 60, 0
3, 80760, Note_on_c, 1, 57, 0
3, 80760, Note_on_c, 1, 57, 64
3, 80880, Note_on_c, 1, 57, 0
3, 80880, Note_on_c, 1, 52, 64
3, 80916, Note_on_c, 1, 52, 0
3, 81000, Note_on_c, 1, 48, 80
3, 81036, Note_on_c, 1, 48, 0
3, 81120, Note_on_c, 1, 45, 88
3, 81288, Note_on_c, 1, 45, 0
3, 81840, Note_on_c, 1, 53, 48
3, 81840, Note_on_c, 1, 57, 48
3, 81840, Note_on_c, 1, 60, 48
3, 81840, Note_on_c, 1, 62, 48
3, 82080, Note_on_c, 1, 62, 0
3, 82080, Note_on_c, 1, 53, 0
3, 82080, Note_on_c, 1, 57, 0
3, 82080, Note_on_c, 1, 60, 0
3, 82080, Note_on_c, 1, 62, 48
3, 82080, Note_on_c, 1, 59, 48
3, 82080, Note_on_c, 1, 55, 48
3, 82200, Note_on_c, 1, 55, 0
3, 82200, Note_on_c, 1, 59, 0
3, 82200, Note_on_c, 1, 62, 0
3, 82800, Note_on_c, 1, 52, 40
3, 82800, Note_on_c, 1, 55, 40
3, 82800, Note_on_c, 1, 59, 40
3, 82800, Note_on_c, 1, 60, 40
3, 83040, Note_on_c, 1, 60, 0
3, 83040, Note_on_c, 1, 52, 0
3, 83040, Note_on_c, 1, 55, 0
3, 83040, Note_on_c, 1, 59, 0
3, 83040, Note_on_c, 1, 60, 40
3, 83040, Note_on_c, 1, 53, 40
3, 83040, Note_on_c, 1, 57, 40
3, 83160, Note_on_c, 1, 57, 0
3, 83160, Note_on_c, 1, 53, 0
3, 83160, Note_on_c, 1, 60, 0
3, 83760, Note_on_c, 1, 50, 32
3, 83760, Note_on_c, 1, 53, 32
3, 83760, Note_on_c, 1, 59, 32
3, 84000, Note_on_c, 1, 59, 0
3, 84000, Note_on_c, 1, 53, 0
3, 84000, Note_on_c, 1, 50, 0
3, 84000, Note_on_c, 1, 52, 32
3, 84000, Note_on_c, 1, 57, 32
3, 84000, Note_on_c, 1, 60, 32
3, 84240, Note_on_c, 1, 60, 0
3, 84240, Note_on_c, 1, 57, 0
3, 84240, Note_on_c, 1, 52, 0
3, 84240, Note_on_c, 1, 52, 32
3, 84240, Note_on_c, 1, 56, 32
3, 84240, Note_on_c, 1, 59, 32
3, 84480, Note_on_c, 1, 59, 0
3, 84480, Note_on_c, 1, 56, 0
3, 84480, Note_on_c, 1, 52, 0
3, 84480, Note_on_c, 1, 45, 80
3, 84480, Note_on_c, 1, 57, 80
3, 84720, Note_on_c, 1, 57, 0
3, 84720, Note_on_c, 1, 45, 0
3, 84720, Note_on_c, 1, 57, 80
3, 84810, Note_on_c, 1, 57, 0
3, 84900, Note_on_c, 1, 57, 84
3, 84930, Note_on_c, 1, 57, 0
3, 84960, Note_on_c, 1, 57, 88
3, 85200, Note_on_c, 1, 57, 0
3, 85200, Note_on_c, 1, 53, 80
3, 85380, Note_on_c, 1, 53, 0
3, 85380, Note_on_c, 1, 51, 80
3, 85440, Note_on_c, 1, 51, 0
3, 85440, Note_on_c, 1, 53, 80
3, 85560, Note_on_c, 1, 53, 0
3, 85560, Note_on_c, 1, 52, 80
3, 85596, Note_on_c, 1, 52, 0
3, 85680, Note_on_c, 1, 52, 80
3, 86160, Note_on_c, 1, 52, 0
3, 86160, Note_on_c, 1, 55, 80
3, 86340, Note_on_c, 1, 55, 0
3, 86340, Note_on_c, 1, 52, 80
3, 86400, Note_on_c, 1, 52, 0
3, 86400, Note_on_c, 1, 53, 88
3, 86640, Note_on_c, 1, 53, 0
3, 86640, Note_on_c, 1, 53, 80
3, 86730, Note_on_c, 1, 53, 0
3, 86820, Note_on_c, 1, 53, 80
3, 86850, Note_on_c, 1, 53, 0
3, 86880, Note_on_c, 1, 53, 80
3, 87000, Note_on_c, 1, 53, 0
3, 87000, Note_on_c, 1, 55, 80
3, 87060, Note_on_c, 1, 55, 0
3, 87060, Note_on_c, 1, 53, 80
3, 87120, Note_on_c, 1, 53, 0
3, 87120, Note_on_c, 1, 52, 80
3, 87180, Note_on_c, 1, 52, 0
3, 87180, Note_on_c, 1, 50, 80
3, 87240, Note_on_c, 1, 50, 0
3, 87240, Note_on_c, 1, 48, 80
3, 87300, Note_on_c, 1, 48, 0
3, 87300, Note_on_c, 1, 47, 80
3, 87360, Note_on_c, 1, 47, 0
3, 87360, Note_on_c, 1, 50, 88
3, 87480, Note_on_c, 1, 50, 0
3, 87480, Note_on_c, 1, 48, 80
3, 87540, Note_on_c, 1, 48, 0
3, 87600, Note_on_c, 1, 48, 80
3, 88020, Note_on_c, 1, 48, 0
3, 88020, Note_on_c, 1, 55, 80
3, 88080, Note_on_c, 1, 55, 0
3, 88080, Note_on_c, 1, 52, 80
3, 88260, Note_on_c, 1, 52, 0
3, 88260, Note_on_c, 1, 49, 80
3, 88320, Note_on_c, 1, 49, 0
3, 88320, Note_on_c, 1, 52, 88
3, 88440, Note_on_c, 1, 52, 0
3, 88440, Note_on_c, 1, 50, 80
3, 88476, Note_on_c, 1, 50, 0
3, 88560, Note_on_c, 1, 50, 80
3, 88596, Note_on_c, 1, 50, 0
3, 88680, Note_on_c, 1, 50, 80
3, 88716, Note_on_c, 1, 50, 0
3, 88800, Note_on_c, 1, 50, 80
3, 88920, Note_on_c, 1, 50, 0
3, 88920, Note_on_c, 1, 52, 80
3, 88980, Note_on_c, 1, 52, 0
3, 88980, Note_on_c, 1, 50, 80
3, 89040, Note_on_c, 1, 50, 0
3, 89040, Note_on_c, 1, 48, 80
3, 89100, Note_on_c, 1, 48, 0
3, 89100, Note_on_c, 1, 47, 80
3, 89160, Note_on_c, 1, 47, 0
3, 89160, Note_on_c, 1, 45, 80
3, 89220, Note_on_c, 1, 45, 0
3, 89220, Note_on_c, 1, 44, 80
3, 89280, Note_on_c, 1, 44, 0
3, 89280, Note_on_c, 1, 47, 88
3, 89400, Note_on_c, 1, 47, 0
3, 89400, Note_on_c, 1, 45, 80
3, 89436, Note_on_c, 1, 45, 0
3, 89520, Note_on_c, 1, 45, 80
3, 89556, Note_on_c, 1, 45, 0
3, 89640, Note_on_c, 1, 45, 80
3, 89676, Note_on_c, 1, 45, 0
3, 89760, Note_on_c, 1, 45, 88
3, 89880, Note_on_c, 1, 45, 0
3, 89880, Note_on_c, 1, 43, 80
3, 89940, Note_on_c, 1, 43, 0
3, 90000, Note_on_c, 1, 43, 88
3, 90120, Note_on_c, 1, 43, 0
3, 90120, Note_on_c, 1, 55, 80
3, 90180, Note_on_c, 1, 55, 0
3, 90240, Note_on_c, 1, 54, 80
3, 90480, Note_on_c, 1, 54, 0
3, 90480, Note_on_c, 1, 53, 72
3, 90720, Note_on_c, 1, 53, 0
3, 90720, Note_on_c, 1, 52, 64
3, 90960, Note_on_c, 1, 52, 0
3, 90960, Note_on_c, 1, 52, 56
3, 91200, Note_on_c, 1, 52, 0
3, 91200, Note_on_c, 1, 50, 48
3, 91440, Note_on_c, 1, 50, 0
3, 91440, Note_on_c, 1, 52, 52
3, 91560, Note_on_c, 1, 52, 0
3, 91680, Note_on_c, 1, 53, 56
3, 91800, Note_on_c, 1, 53, 0
3, 91920, Note_on_c, 1, 49, 60
3, 92040, Note_on_c, 1, 49, 0
3, 92160, Note_on_c, 1, 50, 64
3, 92400, Note_on_c, 1, 50, 0
3, 92400, Note_on_c, 1, 52, 60
3, 92640, Note_on_c, 1, 52, 0
3, 92640, Note_on_c, 1, 53, 56
3, 92880, Note_on_c, 1, 53, 0
3, 92880, Note_on_c, 1, 51, 52
3, 93120, Note_on_c, 1, 51, 0
3, 93120, Note_on_c, 1, 52, 64
3, 93180, Note_on_c, 1, 52, 0
3, 93180, Note_on_c, 1, 59, 64
3, 93240, Note_on_c, 1, 59, 0
3, 93240, Note_on_c, 1, 56, 64
3, 93300, Note_on_c, 1, 56, 0
3, 93300, Note_on_c, 1, 59, 64
3, 93360, Note_on_c, 1, 59, 0
3, 93360, Note_on_c, 1, 52, 64
3, 93420, Note_on_c, 1, 52, 0
3, 93420, Note_on_c, 1, 59, 64
3, 93480, Note_on_c, 1, 59, 0
3, 93480, Note_on_c, 1, 56, 64
3, 93540, Note_on_c, 1, 56, 0
3, 93540, Note_on_c, 1, 59, 64
3, 93600, Note_on_c, 1, 59, 0
3, 93600, Note_on_c, 1, 52, 64
3, 93660, Note_on_c, 1, 52, 0
3, 93660, Note_on_c, 1, 60, 64
3, 93720, Note_on_c, 1, 60, 0
3, 93720, Note_on_c, 1, 57, 64
3, 93780, Note_on_c, 1, 57, 0
3, 93780, Note_on_c, 1, 60, 64
3, 93840, Note_on_c, 1, 60, 0
3, 93840, Note_on_c, 1, 52, 64
3, 93900, Note_on_c, 1, 52, 0
3, 93900, Note_on_c, 1, 62, 64
3, 93960, Note_on_c, 1, 62, 0
3, 93960, Note_on_c, 1, 59, 64
3, 94020, Note_on_c, 1, 59, 0
3, 94020, Note_on_c, 1, 62, 64
3, 94080, Note_on_c, 1, 62, 0
3, 94080, Note_on_c, 1, 52, 64
3, 94140, Note_on_c, 1, 52, 0
3, 94140, Note_on_c, 1, 60, 64
3, 94200, Note_on_c, 1, 60, 0
3, 94200, Note_on_c, 1, 57, 64
3, 94260, Note_on_c, 1, 57, 0
3, 94260, Note_on_c, 1, 60, 64
3, 94320, Note_on_c, 1, 60, 0
3, 94320, Note_on_c, 1, 52, 64
3, 94380, Note_on_c, 1, 52, 0
3, 94380, Note_on_c, 1, 60, 64
3, 94440, Note_on_c, 1, 60, 0
3, 94440, Note_on_c, 1, 57, 64
3, 94500, Note_on_c, 1, 57, 0
3, 94500, Note_on_c, 1, 60, 64
3, 94560, Note_on_c, 1, 60, 0
3, 94560, Note_on_c, 1, 52, 64
3, 94620, Note_on_c, 1, 52, 0
3, 94620, Note_on_c, 1, 60, 64
3, 94680, Note_on_c, 1, 60, 0
3, 94680, Note_on_c, 1, 57, 64
3, 94740, Note_on_c, 1, 57, 0
3, 94740, Note_on_c, 1, 60, 64
3, 94800, Note_on_c, 1, 60, 0
3, 94800, Note_on_c, 1, 52, 64
3, 94860, Note_on_c, 1, 52, 0
3, 94860, Note_on_c, 1, 60, 64
3, 94920, Note_on_c, 1, 60, 0
3, 94920, Note_on_c, 1, 57, 64
3, 94980, Note_on_c, 1, 57, 0
3, 94980, Note_on_c, 1, 60, 64
3, 95040, Note_on_c, 1, 60, 0
3, 95040, Note_on_c, 1, 52, 40
3, 95100, Note_on_c, 1, 52, 0
3, 95100, Note_on_c, 1, 59, 40
3, 95160, Note_on_c, 1, 59, 0
3, 95160, Note_on_c, 1, 56, 40
3, 95220, Note_on_c, 1, 56, 0
3, 95220, Note_on_c, 1, 59, 40
3, 95280, Note_on_c, 1, 59, 0
3, 95280, Note_on_c, 1, 52, 40
3, 95340, Note_on_c, 1, 52, 0
3, 95340, Note_on_c, 1, 59, 40
3, 95400, Note_on_c, 1, 59, 0
3, 95400, Note_on_c, 1, 56, 40
3, 95460, Note_on_c, 1, 56, 0
3, 95460, Note_on_c, 1, 59, 40
3, 95520, Note_on_c, 1, 59, 0
3, 95520, Note_on_c, 1, 52, 40
3, 95580, Note_on_c, 1, 52, 0
3, 95580, Note_on_c, 1, 60, 40
3, 95640, Note_on_c, 1, 60, 0
3, 95640, Note_on_c, 1, 57, 40
3, 95700, Note_on_c, 1, 57, 0
3, 95700, Note_on_c, 1, 60, 40
3, 95760, Note_on_c, 1, 60, 0
3, 95760, Note_on_c, 1, 52, 40
3, 95820, Note_on_c, 1, 52, 0
3, 95820, Note_on_c, 1, 62, 40
3, 95880, Note_on_c, 1, 62, 0
3, 95880, Note_on_c, 1, 59, 40
3, 95940, Note_on_c, 1, 59, 0
3, 95940, Note_on_c, 1, 62, 40
3, 96000, Note_on_c, 1, 62, 0
3, 96000, Note_on_c, 1, 52, 40
3, 96060, Note_on_c, 1, 52, 0
3, 96060, Note_on_c, 1, 60, 40
3, 96120, Note_on_c, 1, 60, 0
3, 96120, Note_on_c, 1, 57, 40
3, 96180, Note_on_c, 1, 57, 0
3, 96180, Note_on_c, 1, 60, 40
3, 96240, Note_on_c, 1, 60, 0
3, 96240, Note_on_c, 1, 52, 40
3, 96300, Note_on_c, 1, 52, 0
3, 96300, Note_on_c, 1, 60, 40
3, 96360, Note_on_c, 1, 60, 0
3, 96360, Note_on_c, 1, 57, 40
3, 96420, Note_on_c, 1, 57, 0
3, 96420, Note_on_c, 1, 60, 40
3, 96480, Note_on_c, 1, 60, 0
3, 96480, Note_on_c, 1, 52, 40
3, 96540, Note_on_c, 1, 52, 0
3, 96540, Note_on_c, 1, 60, 40
3, 96600, Note_on_c, 1, 60, 0
3, 96600, Note_on_c, 1, 57, 40
3, 96660, Note_on_c, 1, 57, 0
3, 96660, Note_on_c, 1, 60, 40
3, 96720, Note_on_c, 1, 60, 0
3, 96720, Note_on_c, 1, 52, 40
3, 96780, Note_on_c, 1, 52, 0
3, 96780, Note_on_c, 1, 60, 40
3, 96840, Note_on_c, 1, 60, 0
3, 96840, Note_on_c, 1, 57, 40
3, 96900, Note_on_c, 1, 57, 0
3, 96900, Note_on_c, 1, 60, 40
3, 96960, Note_on_c, 1, 60, 0
3, 96960, Note_on_c, 1, 59, 80
3, 96960, Note_on_c, 1, 56, 80
3, 96960, Note_on_c, 1, 52, 80
3, 97200, Note_on_c, 1, 52, 0
3, 97200, Note_on_c, 1, 56, 0
3, 97200, Note_on_c, 1, 59, 0
3, 97320, Note_on_c, 1, 45, 80
3, 97320, Note_on_c, 1, 57, 80
3, 97356, Note_on_c, 1, 57, 0
3, 97356, Note_on_c, 1, 45, 0
3, 97440, Note_on_c, 1, 40, 80
3, 97440, Note_on_c, 1, 52, 80
3, 97632, Note_on_c, 1, 52, 0
3, 97632, Note_on_c, 1, 40, 0
3, 97800, Note_on_c, 1, 45, 80
3, 97800, Note_on_c, 1, 57, 80
3, 97860, Note_on_c, 1, 57, 0
3, 97860, Note_on_c, 1, 45, 0
3, 97920, Note_on_c, 1, 40, 80
3, 97920, Note_on_c, 1, 52, 80
3, 98160, Note_on_c, 1, 52, 0
3, 98160, Note_on_c, 1, 40, 0
3, 98280, Note_on_c, 1, 45, 80
3, 98280, Note_on_c, 1, 57, 80
3, 98400, Note_on_c, 1, 57, 0
3, 98400, Note_on_c, 1, 45, 0
3, 98400, Note_on_c, 1, 40, 80
3, 98400, Note_on_c, 1, 52, 80
3, 98520, Note_on_c, 1, 52, 0
3, 98520, Note_on_c, 1, 40, 0
3, 98520, Note_on_c, 1, 45, 80
3, 98520, Note_on_c, 1, 57, 80
3, 98640, Note_on_c, 1, 57, 0
3, 98640, Note_on_c, 1, 45, 0
3, 98640, Note_on_c, 1, 40, 80
3, 98640, Note_on_c, 1, 52, 80
3, 98760, Note_on_c, 1, 52, 0
3, 98760, Note_on_c, 1, 40, 0
3, 98760, Note_on_c, 1, 45, 80
3, 98760, Note_on_c, 1, 57, 80
3, 98880, Note_on_c, 1, 57, 0
3, 98880, Note_on_c, 1, 45, 0
3, 98880, Note_on_c, 1, 40, 80
3, 98880, Note_on_c, 1, 52, 80
3, 99000, Note_on_c, 1, 52, 0
3, 99000, Note_on_c, 1, 40, 0
3, 99120, Note_on_c, 1, 40, 88
3, 99120, Note_on_c, 1, 52, 88
3, 99360, Note_on_c, 1, 52, 0
3, 99360, Note_on_c, 1, 40, 0
3, 99360, Note_on_c, 1, 40, 48
3, 99360, Note_on_c, 1, 52, 48
3, 99480, Note_on_c, 1, 52, 0
3, 99480, Note_on_c, 1, 40, 0
3, 99840, Note_on_c, 1, 64, 48
3, 99840, Note_on_c, 1, 60, 48
3, 99960, Note_on_c, 1, 60, 0
3, 99960, Note_on_c, 1, 64, 0
3, 99960, Note_on_c, 1, 65, 48
3, 99960, Note_on_c, 1, 62, 48
3, 99996, Note_on_c, 1, 62, 0
3, 99996, Note_on_c, 1, 65, 0
3, 100080, Note_on_c, 1, 64, 48
3, 100080, Note_on_c, 1, 60, 48
3, 100116, Note_on_c, 1, 60, 0
3, 100116, Note_on_c, 1, 64, 0
3, 100200, Note_on_c, 1, 65, 48
3, 100200, Note_on_c, 1, 62, 48
3, 100236, Note_on_c, 1, 62, 0
3, 100236, Note_on_c, 1, 65, 0
3, 100320, Note_on_c, 1, 60, 48
3, 100320, Note_on_c, 1, 64, 48
3, 100560, Note_on_c, 1, 64, 0
3, 100560, Note_on_c, 1, 60, 0
3, 100800, Note_on_c, 1, 69, 48
3, 100800, Note_on_c, 1, 65, 48
3, 100920, Note_on_c, 1, 65, 0
3, 100920, Note_on_c, 1, 69, 0
3, 100920, Note_on_c, 1, 70, 48
3, 100920, Note_on_c, 1, 67, 48
3, 101040, Note_on_c, 1, 67, 0
3, 101040, Note_on_c, 1, 70, 0
3, 101040, Note_on_c, 1, 69, 48
3, 101040, Note_on_c, 1, 65, 48
3, 101076, Note_on_c, 1, 65, 0
3, 101076, Note_on_c, 1, 69, 0
3, 101160, Note_on_c, 1, 70, 48
3, 101160, Note_on_c, 1, 67, 48
3, 101196, Note_on_c, 1, 67, 0
3, 101196, Note_on_c, 1, 70, 0
3, 101280, Note_on_c, 1, 69, 48
3, 101280, Note_on_c, 1, 65, 48
3, 101520, Note_on_c, 1, 65, 0
3, 101520, Note_on_c, 1, 69, 0
3, 101760, Note_on_c, 1, 52, 48
3, 101760, Note_on_c, 1, 62, 48
3, 101760, Note_on_c, 1, 59, 48
3, 101880, Note_on_c, 1, 52, 0
3, 101880, Note_on_c, 1, 53, 48
3, 102000, Note_on_c, 1, 53, 0
3, 102000, Note_on_c, 1, 52, 48
3, 102120, Note_on_c, 1, 52, 0
3, 102120, Note_on_c, 1, 53, 48
3, 102156, Note_on_c, 1, 53, 0
3, 102240, Note_on_c, 1, 52, 48
3, 102480, Note_on_c, 1, 52, 0
3, 102480, Note_on_c, 1, 59, 0
3, 102480, Note_on_c, 1, 62, 0
3, 102720, Note_on_c, 1, 45, 48
3, 102720, Note_on_c, 1, 57, 48
3, 102960, Note_on_c, 1, 57, 0
3, 102960, Note_on_c, 1, 45, 0
3, 103680, Note_on_c, 1, 48, 48
3, 103680, Note_on_c, 1, 57, 48
3, 103800, Note_on_c, 1, 57, 0
3, 103800, Note_on_c, 1, 48, 0
3, 103800, Note_on_c, 1, 48, 48
3, 103800, Note_on_c, 1, 57, 48
3, 103836, Note_on_c, 1, 57, 0
3, 103836, Note_on_c, 1, 48, 0
3, 103920, Note_on_c, 1, 48, 48
3, 103920, Note_on_c, 1, 57, 48
3, 103956, Note_on_c, 1, 57, 0
3, 103956, Note_on_c, 1, 48, 0
3, 104040, Note_on_c, 1, 48, 48
3, 104040, Note_on_c, 1, 57, 48
3, 104076, Note_on_c, 1, 57, 0
3, 104076, Note_on_c, 1, 48, 0
3, 104160, Note_on_c, 1, 48, 48
3, 104160, Note_on_c, 1, 57, 48
3, 104400, Note_on_c, 1, 57, 0
3, 104400, Note_on_c, 1, 48, 0
3, 104640, Note_on_c, 1, 50, 56
3, 104880, Note_on_c, 1, 53, 56
3, 105120, Note_on_c, 1, 53, 0
3, 105120, Note_on_c, 1, 58, 56
3, 105360, Note_on_c, 1, 50, 0
3, 105360, Note_on_c, 1, 50, 56
3, 105600, Note_on_c, 1, 50, 0
3, 105600, Note_on_c, 1, 48, 56
3, 105840, Note_on_c, 1, 58, 0
3, 105840, Note_on_c, 1, 56, 56
3, 106080, Note_on_c, 1, 56, 0
3, 106080, Note_on_c, 1, 57, 56
3, 106320, Note_on_c, 1, 48, 0
3, 106320, Note_on_c, 1, 48, 56
3, 106560, Note_on_c, 1, 48, 0
3, 106560, Note_on_c, 1, 47, 56
3, 106800, Note_on_c, 1, 47, 0
3, 106800, Note_on_c, 1, 57, 0
3, 106800, Note_on_c, 1, 62, 56
3, 106800, Note_on_c, 1, 53, 56
3, 107040, Note_on_c, 1, 53, 0
3, 107040, Note_on_c, 1, 52, 56
3, 107280, Note_on_c, 1, 52, 0
3, 107280, Note_on_c, 1, 62, 0
3, 107280, Note_on_c, 1, 59, 56
3, 107280, Note_on_c, 1, 56, 56
3, 107520, Note_on_c, 1, 56, 0
3, 107520, Note_on_c, 1, 59, 0
3, 107520, Note_on_c, 1, 57, 56
3, 107520, Note_on_c, 1, 57, 56
3, 107760, Note_on_c, 1, 57, 0
3, 107760, Note_on_c, 1, 57, 0
3, 107760, Note_on_c, 1, 52, 56
3, 107760, Note_on_c, 1, 45, 56
3, 108000, Note_on_c, 1, 45, 0
3, 108000, Note_on_c, 1, 47, 56
3, 108240, Note_on_c, 1, 47, 0
3, 108240, Note_on_c, 1, 52, 0
3, 108240, Note_on_c, 1, 52, 56
3, 108240, Note_on_c, 1, 56, 56
3, 108240, Note_on_c, 1, 50, 56
3, 108480, Note_on_c, 1, 50, 0
3, 108480, Note_on_c, 1, 56, 0
3, 108480, Note_on_c, 1, 52, 0
3, 108480, Note_on_c, 1, 48, 56
3, 108480, Note_on_c, 1, 52, 56
3, 108480, Note_on_c, 1, 57, 56
3, 108720, Note_on_c, 1, 57, 0
3, 108720, Note_on_c, 1, 52, 0
3, 108720, Note_on_c, 1, 48, 0
3, 109200, Note_on_c, 1, 57, 56
3, 109200, Note_on_c, 1, 52, 56
3, 109200, Note_on_c, 1, 49, 56
3, 109440, Note_on_c, 1, 49, 0
3, 109440, Note_on_c, 1, 52, 0
3, 109440, Note_on_c, 1, 57, 0
3, 109440, Note_on_c, 1, 50, 64
3, 109500, Note_on_c, 1, 50, 0
3, 109500, Note_on_c, 1, 57, 64
3, 109560, Note_on_c, 1, 57, 0
3, 109560, Note_on_c, 1, 53, 64
3, 109620, Note_on_c, 1, 53, 0
3, 109620, Note_on_c, 1, 57, 64
3, 109680, Note_on_c, 1, 57, 0
3, 109680, Note_on_c, 1, 50, 64
3, 109740, Note_on_c, 1, 50, 0
3, 109740, Note_on_c, 1, 57, 64
3, 109800, Note_on_c, 1, 57, 0
3, 109800, Note_on_c, 1, 53, 64
3, 109860, Note_on_c, 1, 53, 0
3, 109860, Note_on_c, 1, 57, 64
3, 109920, Note_on_c, 1, 57, 0
3, 109920, Note_on_c, 1, 50, 64
3, 109980, Note_on_c, 1, 50, 0
3, 109980, Note_on_c, 1, 59, 64
3, 110040, Note_on_c, 1, 59, 0
3, 110040, Note_on_c, 1, 53, 64
3, 110100, Note_on_c, 1, 53, 0
3, 110100, Note_on_c, 1, 59, 64
3, 110160, Note_on_c, 1, 59, 0
3, 110160, Note_on_c, 1, 50, 64
3, 110220, Note_on_c, 1, 50, 0
3, 110220, Note_on_c, 1, 59, 64
3, 110280, Note_on_c, 1, 59, 0
3, 110280, Note_on_c, 1, 53, 64
3, 110340, Note_on_c, 1, 53, 0
3, 110340, Note_on_c, 1, 59, 64
3, 110400, Note_on_c, 1, 59, 0
3, 110400, Note_on_c, 1, 52, 64
3, 110460, Note_on_c, 1, 52, 0
3, 110460, Note_on_c, 1, 60, 64
3, 110520, Note_on_c, 1, 60, 0
3, 110520, Note_on_c, 1, 57, 64
3, 110580, Note_on_c, 1, 57, 0
3, 110580, Note_on_c, 1, 60, 64
3, 110640, Note_on_c, 1, 60, 0
3, 110640, Note_on_c, 1, 52, 64
3, 110700, Note_on_c, 1, 52, 0
3, 110700, Note_on_c, 1, 60, 64
3, 110760, Note_on_c, 1, 60, 0
3, 110760, Note_on_c, 1, 57, 64
3, 110820, Note_on_c, 1, 57, 0
3, 110820, Note_on_c, 1, 60, 64
3, 110880, Note_on_c, 1, 60, 0
3, 110880, Note_on_c, 1, 52, 64
3, 110940, Note_on_c, 1, 52, 0
3, 110940, Note_on_c, 1, 62, 64
3, 111000, Note_on_c, 1, 62, 0
3, 111000, Note_on_c, 1, 56, 64
3, 111060, Note_on_c, 1, 56, 0
3, 111060, Note_on_c, 1, 62, 64
3, 111120, Note_on_c, 1, 62, 0
3, 111120, Note_on_c, 1, 52, 64
3, 111180, Note_on_c, 1, 52, 0
3, 111180, Note_on_c, 1, 62, 64
3, 111240, Note_on_c, 1, 62, 0
3, 111240, Note_on_c, 1, 56, 64
3, 111300, Note_on_c, 1, 56, 0
3, 111300, Note_on_c, 1, 62, 64
3, 111360, Note_on_c, 1, 62, 0
3, 111360, Note_on_c, 1, 60, 48
3, 111360, Note_on_c, 1, 57, 48
3, 111600, Note_on_c, 1, 57, 0
3, 111600, Note_on_c, 1, 60, 0
3, 112080, Note_on_c, 1, 68, 48
3, 112116, Note_on_c, 1, 68, 0
3, 112200, Note_on_c, 1, 64, 48
3, 112236, Note_on_c, 1, 64, 0
3, 112320, Note_on_c, 1, 69, 48
3, 112560, Note_on_c, 1, 69, 0
3, 113040, Note_on_c, 1, 68, 48
3, 113160, Note_on_c, 1, 68, 0
3, 113160, Note_on_c, 1, 64, 48
3, 113280, Note_on_c, 1, 64, 0
3, 113280, Note_on_c, 1, 69, 48
3, 113520, Note_on_c, 1, 69, 0
3, 113760, Note_on_c, 1, 48, 48
3, 113760, Note_on_c, 1, 52, 48
3, 113760, Note_on_c, 1, 57, 48
3, 114240, Note_on_c, 1, 57, 0
3, 114240, Note_on_c, 1, 52, 0
3, 114240, Note_on_c, 1, 48, 0
3, 114240, Note_on_c, 1, 53, 56
3, 114240, Note_on_c, 1, 50, 56
3, 114720, Note_on_c, 1, 50, 0
3, 114720, Note_on_c, 1, 53, 0
3, 114720, Note_on_c, 1, 59, 72
3, 114720, Note_on_c, 1, 56, 72
3, 114720, Note_on_c, 1, 53, 72
3, 114720, Note_on_c, 1, 50, 72
3, 115200, Note_on_c, 1, 50, 0
3, 115200, Note_on_c, 1, 59, 0
3, 115200, Note_on_c, 1, 56, 0
3, 115200, Note_on_c, 1, 53, 0
3, 115200, Note_on_c, 1, 48, 80
3, 115200, Note_on_c, 1, 52, 80
3, 115200, Note_on_c, 1, 57, 80
3, 115440, Note_on_c, 1, 57, 0
3, 115440, Note_on_c, 1, 52, 0
3, 115440, Note_on_c, 1, 48, 0
3, 115440, Note_on_c, 1, 50, 72
3, 115440, Note_on_c, 1, 57, 72
3, 115680, Note_on_c, 1, 50, 0
3, 115680, Note_on_c, 1, 52, 64
3, 115920, Note_on_c, 1, 52, 0
3, 115920, Note_on_c, 1, 57, 0
3, 115920, Note_on_c, 1, 52, 56
3, 115920, Note_on_c, 1, 56, 56
3, 116160, Note_on_c, 1, 56, 0
3, 116160, Note_on_c, 1, 52, 0
3, 116220, Note_on_c, 1, 69, 48
3, 116238, Note_on_c, 1, 69, 0
3, 116280, Note_on_c, 1, 67, 48
3, 116298, Note_on_c, 1, 67, 0
3, 116340, Note_on_c, 1, 65, 48
3, 116358, Note_on_c, 1, 65, 0
3, 116400, Note_on_c, 1, 64, 48
3, 116460, Note_on_c, 1, 64, 0
3, 116460, Note_on_c, 1, 65, 48
3, 116478, Note_on_c, 1, 65, 0
3, 116520, Note_on_c, 1, 63, 48
3, 116538, Note_on_c, 1, 63, 0
3, 116580, Note_on_c, 1, 65, 48
3, 116598, Note_on_c, 1, 65, 0
3, 116640, Note_on_c, 1, 64, 48
3, 116700, Note_on_c, 1, 64, 0
3, 116700, Note_on_c, 1, 65, 48
3, 116718, Note_on_c, 1, 65, 0
3, 116760, Note_on_c, 1, 63, 48
3, 116778, Note_on_c, 1, 63, 0
3, 116820, Note_on_c, 1, 65, 48
3, 116838, Note_on_c, 1, 65, 0
3, 116880, Note_on_c, 1, 64, 48
3, 116940, Note_on_c, 1, 64, 0
3, 116940, Note_on_c, 1, 65, 48
3, 117000, Note_on_c, 1, 65, 0
3, 117000, Note_on_c, 1, 62, 48
3, 117060, Note_on_c, 1, 62, 0
3, 117060, Note_on_c, 1, 64, 48
3, 117120, Note_on_c, 1, 64, 0
3, 117120, Note_on_c, 1, 60, 48
3, 117180, Note_on_c, 1, 60, 0
3, 117180, Note_on_c, 1, 69, 48
3, 117240, Note_on_c, 1, 69, 0
3, 117240, Note_on_c, 1, 67, 48
3, 117300, Note_on_c, 1, 67, 0
3, 117300, Note_on_c, 1, 65, 48
3, 117360, Note_on_c, 1, 65, 0
3, 117360, Note_on_c, 1, 64, 48
3, 117420, Note_on_c, 1, 64, 0
3, 117420, Note_on_c, 1, 65, 48
3, 117480, Note_on_c, 1, 65, 0
3, 117480, Note_on_c, 1, 63, 48
3, 117540, Note_on_c, 1, 63, 0
3, 117540, Note_on_c, 1, 65, 48
3, 117600, Note_on_c, 1, 65, 0
3, 117600, Note_on_c, 1, 64, 48
3, 117660, Note_on_c, 1, 64, 0
3, 117660, Note_on_c, 1, 65, 48
3, 117720, Note_on_c, 1, 65, 0
3, 117720, Note_on_c, 1, 63, 48
3, 117780, Note_on_c, 1, 63, 0
3, 117780, Note_on_c, 1, 65, 48
3, 117840, Note_on_c, 1, 65, 0
3, 117840, Note_on_c, 1, 64, 48
3, 117900, Note_on_c, 1, 64, 0
3, 117900, Note_on_c, 1, 65, 48
3, 117960, Note_on_c, 1, 65, 0
3, 117960, Note_on_c, 1, 62, 48
3, 118020, Note_on_c, 1, 62, 0
3, 118020, Note_on_c, 1, 64, 48
3, 118080, Note_on_c, 1, 64, 0
3, 118080, Note_on_c, 1, 60, 48
3, 118140, Note_on_c, 1, 60, 0
3, 118140, Note_on_c, 1, 62, 49
3, 118200, Note_on_c, 1, 62, 0
3, 118200, Note_on_c, 1, 59, 49
3, 118260, Note_on_c, 1, 59, 0
3, 118260, Note_on_c, 1, 60, 50
3, 118320, Note_on_c, 1, 60, 0
3, 118320, Note_on_c, 1, 57, 50
3, 118380, Note_on_c, 1, 57, 0
3, 118380, Note_on_c, 1, 59, 51
3, 118440, Note_on_c, 1, 59, 0
3, 118440, Note_on_c, 1, 55, 51
3, 118500, Note_on_c, 1, 55, 0
3, 118500, Note_on_c, 1, 57, 52
3, 118560, Note_on_c, 1, 57, 0
3, 118560, Note_on_c, 1, 53, 52
3, 118620, Note_on_c, 1, 53, 0
3, 118620, Note_on_c, 1, 55, 53
3, 118680, Note_on_c, 1, 55, 0
3, 118680, Note_on_c, 1, 52, 53
3, 118740, Note_on_c, 1, 52, 0
3, 118740, Note_on_c, 1, 53, 54
3, 118800, Note_on_c, 1, 53, 0
3, 118800, Note_on_c, 1, 50, 54
3, 118860, Note_on_c, 1, 50, 0
3, 118860, Note_on_c, 1, 52, 55
3, 118920, Note_on_c, 1, 52, 0
3, 118920, Note_on_c, 1, 48, 55
3, 118980, Note_on_c, 1, 48, 0
3, 118980, Note_on_c, 1, 50, 56
3, 119040, Note_on_c, 1, 50, 0
3, 119040, Note_on_c, 1, 47, 56
3, 119100, Note_on_c, 1, 47, 0
3, 119100, Note_on_c, 1, 48, 57
3, 119160, Note_on_c, 1, 48, 0
3, 119160, Note_on_c, 1, 45, 58
3, 119220, Note_on_c, 1, 45, 0
3, 119220, Note_on_c, 1, 47, 59
3, 119280, Note_on_c, 1, 47, 0
3, 119280, Note_on_c, 1, 44, 60
3, 119340, Note_on_c, 1, 44, 0
3, 119340, Note_on_c, 1, 45, 61
3, 119400, Note_on_c, 1, 45, 0
3, 119400, Note_on_c, 1, 42, 62
3, 119460, Note_on_c, 1, 42, 0
3, 119460, Note_on_c, 1, 44, 63
3, 119520, Note_on_c, 1, 44, 0
3, 119520, Note_on_c, 1, 40, 64
3, 119580, Note_on_c, 1, 40, 0
3, 119580, Note_on_c, 1, 41, 65
3, 119640, Note_on_c, 1, 41, 0
3, 119640, Note_on_c, 1, 38, 66
3, 119700, Note_on_c, 1, 38, 0
3, 119700, Note_on_c, 1, 40, 67
3, 119760, Note_on_c, 1, 40, 0
3, 119760, Note_on_c, 1, 36, 68
3, 119820, Note_on_c, 1, 36, 0
3, 119820, Note_on_c, 1, 38, 69
3, 119880, Note_on_c, 1, 38, 0
3, 119880, Note_on_c, 1, 35, 70
3, 119940, Note_on_c, 1, 35, 0
3, 119940, Note_on_c, 1, 38, 71
3, 120000, Note_on_c, 1, 38, 0
3, 120000, Note_on_c, 1, 36, 80
3, 120120, Note_on_c, 1, 36, 0
3, 120240, Note_on_c, 1, 38, 80
3, 120360, Note_on_c, 1, 38, 0
3, 120480, Note_on_c, 1, 40, 80
3, 120600, Note_on_c, 1, 40, 0
3, 120720, Note_on_c, 1, 40, 80
3, 120840, Note_on_c, 1, 40, 0
3, 120960, Note_on_c, 1, 59, 80
3, 120960, Note_on_c, 1, 56, 80
3, 120960, Note_on_c, 1, 53, 80
3, 120960, Note_on_c, 1, 50, 80
3, 121920, Note_on_c, 1, 50, 0
3, 121920, Note_on_c, 1, 59, 0
3, 121920, Note_on_c, 1, 56, 0
3, 121920, Note_on_c, 1, 53, 0
3, 121920, Note_on_c, 1, 60, 88
3, 121980, Note_on_c, 1, 60, 0
3, 121980, Note_on_c, 1, 63, 88
3, 122040, Note_on_c, 1, 63, 0
3, 122040, Note_on_c, 1, 57, 88
3, 122100, Note_on_c, 1, 57, 0
3, 122100, Note_on_c, 1, 60, 88
3, 122160, Note_on_c, 1, 60, 0
3, 122160, Note_on_c, 1, 54, 88
3, 122220, Note_on_c, 1, 54, 0
3, 122220, Note_on_c, 1, 57, 88
3, 122280, Note_on_c, 1, 57, 0
3, 122280, Note_on_c, 1, 51, 88
3, 122340, Note_on_c, 1, 51, 0
3, 122340, Note_on_c, 1, 54, 88
3, 122400, Note_on_c, 1, 54, 0
3, 122400, Note_on_c, 1, 48, 88
3, 122460, Note_on_c, 1, 48, 0
3, 122460, Note_on_c, 1, 51, 88
3, 122520, Note_on_c, 1, 51, 0
3, 122520, Note_on_c, 1, 45, 88
3, 122580, Note_on_c, 1, 45, 0
3, 122580, Note_on_c, 1, 48, 88
3, 122640, Note_on_c, 1, 48, 0
3, 122640, Note_on_c, 1, 42, 88
3, 122700, Note_on_c, 1, 42, 0
3, 122700, Note_on_c, 1, 45, 88
3, 122760, Note_on_c, 1, 45, 0
3, 122760, Note_on_c, 1, 39, 88
3, 122820, Note_on_c, 1, 39, 0
3, 122820, Note_on_c, 1, 42, 88
3, 122880, Note_on_c, 1, 42, 0
3, 122880, Note_on_c, 1, 40, 88
3, 123120, Note_on_c, 1, 40, 0
3, 123180, Note_on_c, 1, 52, 88
3, 123240, Note_on_c, 1, 52, 0
3, 123240, Note_on_c, 1, 48, 88
3, 123300, Note_on_c, 1, 48, 0
3, 123300, Note_on_c, 1, 45, 88
3, 123360, Note_on_c, 1, 45, 0
3, 123360, Note_on_c, 1, 40, 88
3, 123504, Note_on_c, 1, 40, 0
3, 123600, Note_on_c, 1, 52, 88
3, 123744, Note_on_c, 1, 52, 0
3, 123840, Note_on_c, 1, 57, 48
3, 123900, Note_on_c, 1, 57, 0
3, 123900, Note_on_c, 1, 59, 49
3, 123960, Note_on_c, 1, 59, 0
3, 123960, Note_on_c, 1, 60, 49
3, 124020, Note_on_c, 1, 60, 0
3, 124020, Note_on_c, 1, 59, 50
3, 124080, Note_on_c, 1, 59, 0
3, 124080, Note_on_c, 1, 57, 50
3, 124140, Note_on_c, 1, 57, 0
3, 124140, Note_on_c, 1, 55, 51
3, 124170, Note_on_c, 1, 55, 0
3, 124200, Note_on_c, 1, 53, 51
3, 124230, Note_on_c, 1, 53, 0
3, 124260, Note_on_c, 1, 52, 52
3, 124290, Note_on_c, 1, 52, 0
3, 124320, Note_on_c, 1, 53, 52
3, 124380, Note_on_c, 1, 53, 0
3, 124380, Note_on_c, 1, 55, 53
3, 124440, Note_on_c, 1, 55, 0
3, 124440, Note_on_c, 1, 57, 53
3, 124500, Note_on_c, 1, 57, 0
3, 124500, Note_on_c, 1, 55, 54
3, 124560, Note_on_c, 1, 55, 0
3, 124560, Note_on_c, 1, 53, 54
3, 124620, Note_on_c, 1, 53, 0
3, 124620, Note_on_c, 1, 52, 55
3, 124650, Note_on_c, 1, 52, 0
3, 124680, Note_on_c, 1, 50, 55
3, 124710, Note_on_c, 1, 50, 0
3, 124740, Note_on_c, 1, 48, 56
3, 124770, Note_on_c, 1, 48, 0
3, 124800, Note_on_c, 1, 50, 56
3, 124860, Note_on_c, 1, 50, 0
3, 124860, Note_on_c, 1, 52, 57
3, 124920, Note_on_c, 1, 52, 0
3, 124920, Note_on_c, 1, 53, 57
3, 124980, Note_on_c, 1, 53, 0
3, 124980, Note_on_c, 1, 52, 58
3, 125040, Note_on_c, 1, 52, 0
3, 125040, Note_on_c, 1, 50, 58
3, 125100, Note_on_c, 1, 50, 0
3, 125100, Note_on_c, 1, 47, 59
3, 125160, Note_on_c, 1, 47, 0
3, 125160, Note_on_c, 1, 48, 59
3, 125220, Note_on_c, 1, 48, 0
3, 125220, Note_on_c, 1, 50, 60
3, 125280, Note_on_c, 1, 50, 0
3, 125280, Note_on_c, 1, 52, 60
3, 125340, Note_on_c, 1, 52, 0
3, 125340, Note_on_c, 1, 51, 61
3, 125400, Note_on_c, 1, 51, 0
3, 125400, Note_on_c, 1, 52, 61
3, 125460, Note_on_c, 1, 52, 0
3, 125460, Note_on_c, 1, 51, 62
3, 125520, Note_on_c, 1, 51, 0
3, 125520, Note_on_c, 1, 52, 62
3, 125580, Note_on_c, 1, 52, 0
3, 125580, Note_on_c, 1, 50, 63
3, 125640, Note_on_c, 1, 50, 0
3, 125640, Note_on_c, 1, 48, 63
3, 125700, Note_on_c, 1, 48, 0
3, 125700, Note_on_c, 1, 47, 64
3, 125760, Note_on_c, 1, 47, 0
3, 125760, Note_on_c, 1, 45, 64
3, 125820, Note_on_c, 1, 45, 0
3, 125820, Note_on_c, 1, 47, 65
3, 125880, Note_on_c, 1, 47, 0
3, 125880, Note_on_c, 1, 48, 65
3, 125940, Note_on_c, 1, 48, 0
3, 125940, Note_on_c, 1, 47, 66
3, 126000, Note_on_c, 1, 47, 0
3, 126000, Note_on_c, 1, 45, 66
3, 126060, Note_on_c, 1, 45, 0
3, 126060, Note_on_c, 1, 43, 67
3, 126120, Note_on_c, 1, 43, 0
3, 126120, Note_on_c, 1, 41, 67
3, 126180, Note_on_c, 1, 41, 0
3, 126180, Note_on_c, 1, 40, 68
3, 126240, Note_on_c, 1, 40, 0
3, 126240, Note_on_c, 1, 41, 68
3, 126300, Note_on_c, 1, 41, 0
3, 126300, Note_on_c, 1, 43, 69
3, 126360, Note_on_c, 1, 43, 0
3, 126360, Note_on_c, 1, 45, 69
3, 126420, Note_on_c, 1, 45, 0
3, 126420, Note_on_c, 1, 43, 70
3, 126480, Note_on_c, 1, 43, 0
3, 126480, Note_on_c, 1, 41, 70
3, 126540, Note_on_c, 1, 41, 0
3, 126540, Note_on_c, 1, 40, 71
3, 126600, Note_on_c, 1, 40, 0
3, 126600, Note_on_c, 1, 38, 71
3, 126660, Note_on_c, 1, 38, 0
3, 126660, Note_on_c, 1, 36, 72
3, 126720, Note_on_c, 1, 36, 0
3, 126720, Note_on_c, 1, 38, 72
3, 126780, Note_on_c, 1, 38, 0
3, 126780, Note_on_c, 1, 40, 73
3, 126840, Note_on_c, 1, 40, 0
3, 126840, Note_on_c, 1, 41, 74
3, 126900, Note_on_c, 1, 41, 0
3, 126900, Note_on_c, 1, 40, 75
3, 126960, Note_on_c, 1, 40, 0
3, 126960, Note_on_c, 1, 38, 76
3, 127020, Note_on_c, 1, 38, 0
3, 127020, Note_on_c, 1, 35, 77
3, 127080, Note_on_c, 1, 35, 0
3, 127080, Note_on_c, 1, 36, 78
3, 127140, Note_on_c, 1, 36, 0
3, 127140, Note_on_c, 1, 38, 79
3, 127200, Note_on_c, 1, 38, 0
3, 127200, Note_on_c, 1, 40, 80
3, 127260, Note_on_c, 1, 40, 0
3, 127260, Note_on_c, 1, 39, 81
3, 127320, Note_on_c, 1, 39, 0
3, 127320, Note_on_c, 1, 40, 82
3, 127380, Note_on_c, 1, 40, 0
3, 127380, Note_on_c, 1, 39, 83
3, 127440, Note_on_c, 1, 39, 0
3, 127440, Note_on_c, 1, 40, 84
3, 127500, Note_on_c, 1, 40, 0
3, 127500, Note_on_c, 1, 38, 85
3, 127560, Note_on_c, 1, 38, 0
3, 127560, Note_on_c, 1, 36, 86
3, 127620, Note_on_c, 1, 36, 0
3, 127620, Note_on_c, 1, 35, 87
3, 127680, Note_on_c, 1, 35, 0
3, 127680, Note_on_c, 1, 33, 96
3, 127824, Note_on_c, 1, 33, 0
3, 127920, Note_on_c, 1, 45, 96
3, 127920, Note_on_c, 1, 33, 96
3, 128160, Note_on_c, 1, 33, 0
3, 128160, Note_on_c, 1, 45, 0
3, 128160, Note_on_c, 1, 45, 96
3, 128160, Note_on_c, 1, 33, 96
3, 128376, Note_on_c, 1, 33, 0
3, 128376, Note_on_c, 1, 45, 0
3, 128376, End_track
4, 0, Start_track
4, 0, MIDI_port, 0
4, 0, Title_t, "MIDI by Marty Weimer 2/22/96"
4, 0, End_track
5, 0, Start_track
5, 0, MIDI_port, 0
5, 0, Title_t, "weimermt@libby.org Eureka, MT USA"
5, 0, End_track
0, 0, End_of_file
