0, 0, Header, 1, 5, 240
1, 0, Start_track
1, 0, Time_signature, 3, 3, 12, 8
1, 0, Key_signature, 0, "major"
1, 0, Tempo, 400000
1, 0, End_track
2, 0, Start_track
2, 0, MIDI_port, 0
2, 0, Title_t, "Piano Sonata in G, K.283"
2, 0, Program_c, 0, 0
2, 0, Control_c, 0, 7, 127
2, 0, Control_c, 0, 10, 68
2, 0, Note_on_c, 0, 67, 80
2, 0, Note_on_c, 0, 71, 80
2, 240, Note_on_c, 0, 71, 0
2, 240, Note_on_c, 0, 67, 0
2, 240, Note_on_c, 0, 69, 64
2, 240, Note_on_c, 0, 72, 64
2, 264, Note_on_c, 0, 72, 0
2, 264, Note_on_c, 0, 74, 64
2, 288, Note_on_c, 0, 74, 0
2, 288, Note_on_c, 0, 72, 64
2, 312, Note_on_c, 0, 72, 0
2, 312, Note_on_c, 0, 71, 64
2, 336, Note_on_c, 0, 71, 0
2, 336, Note_on_c, 0, 72, 64
2, 360, Note_on_c, 0, 72, 0
2, 360, Note_on_c, 0, 69, 0
2, 360, Note_on_c, 0, 71, 64
2, 360, Note_on_c, 0, 74, 64
2, 408, Note_on_c, 0, 74, 0
2, 408, Note_on_c, 0, 71, 0
2, 600, Note_on_c, 0, 71, 64
2, 600, Note_on_c, 0, 74, 64
2, 696, Note_on_c, 0, 74, 0
2, 696, Note_on_c, 0, 71, 0
2, 720, Note_on_c, 0, 76, 80
2, 720, Note_on_c, 0, 79, 80
2, 912, Note_on_c, 0, 79, 0
2, 912, Note_on_c, 0, 76, 0
2, 960, Note_on_c, 0, 78, 64
2, 960, Note_on_c, 0, 74, 64
2, 996, Note_on_c, 0, 78, 0
2, 1008, Note_on_c, 0, 74, 0
2, 1050, Note_on_c, 0, 78, 64
2, 1079, Note_on_c, 0, 78, 0
2, 1080, Note_on_c, 0, 72, 64
2, 1080, Note_on_c, 0, 76, 64
2, 1272, Note_on_c, 0, 76, 0
2, 1272, Note_on_c, 0, 72, 0
2, 1320, Note_on_c, 0, 71, 64
2, 1320, Note_on_c, 0, 74, 64
2, 1416, Note_on_c, 0, 74, 0
2, 1416, Note_on_c, 0, 71, 0
2, 1440, Note_on_c, 0, 71, 80
2, 1440, Note_on_c, 0, 67, 80
2, 1632, Note_on_c, 0, 67, 0
2, 1632, Note_on_c, 0, 71, 0
2, 1680, Note_on_c, 0, 72, 64
2, 1680, Note_on_c, 0, 69, 64
2, 1699, Note_on_c, 0, 72, 0
2, 1704, Note_on_c, 0, 74, 64
2, 1723, Note_on_c, 0, 74, 0
2, 1728, Note_on_c, 0, 72, 64
2, 1747, Note_on_c, 0, 72, 0
2, 1752, Note_on_c, 0, 71, 64
2, 1771, Note_on_c, 0, 71, 0
2, 1776, Note_on_c, 0, 69, 0
2, 1776, Note_on_c, 0, 72, 64
2, 1795, Note_on_c, 0, 72, 0
2, 1800, Note_on_c, 0, 74, 64
2, 1800, Note_on_c, 0, 71, 64
2, 1848, Note_on_c, 0, 71, 0
2, 1848, Note_on_c, 0, 74, 0
2, 2040, Note_on_c, 0, 74, 64
2, 2040, Note_on_c, 0, 71, 64
2, 2136, Note_on_c, 0, 71, 0
2, 2136, Note_on_c, 0, 74, 0
2, 2160, Note_on_c, 0, 76, 80
2, 2160, Note_on_c, 0, 72, 80
2, 2352, Note_on_c, 0, 72, 0
2, 2352, Note_on_c, 0, 76, 0
2, 2400, Note_on_c, 0, 74, 64
2, 2400, Note_on_c, 0, 71, 64
2, 2436, Note_on_c, 0, 74, 0
2, 2448, Note_on_c, 0, 71, 0
2, 2490, Note_on_c, 0, 74, 64
2, 2514, Note_on_c, 0, 74, 0
2, 2520, Note_on_c, 0, 72, 64
2, 2520, Note_on_c, 0, 69, 64
2, 2712, Note_on_c, 0, 69, 0
2, 2712, Note_on_c, 0, 72, 0
2, 2760, Note_on_c, 0, 71, 64
2, 2760, Note_on_c, 0, 67, 64
2, 2796, Note_on_c, 0, 67, 0
2, 2796, Note_on_c, 0, 71, 0
2, 2880, Note_on_c, 0, 62, 48
2, 2928, Note_on_c, 0, 62, 0
2, 2940, Note_on_c, 0, 67, 49
2, 2988, Note_on_c, 0, 67, 0
2, 3000, Note_on_c, 0, 66, 51
2, 3048, Note_on_c, 0, 66, 0
2, 3060, Note_on_c, 0, 67, 52
2, 3108, Note_on_c, 0, 67, 0
2, 3120, Note_on_c, 0, 71, 53
2, 3168, Note_on_c, 0, 71, 0
2, 3180, Note_on_c, 0, 67, 55
2, 3228, Note_on_c, 0, 67, 0
2, 3240, Note_on_c, 0, 64, 56
2, 3288, Note_on_c, 0, 64, 0
2, 3300, Note_on_c, 0, 69, 57
2, 3348, Note_on_c, 0, 69, 0
2, 3360, Note_on_c, 0, 68, 59
2, 3408, Note_on_c, 0, 68, 0
2, 3420, Note_on_c, 0, 69, 60
2, 3468, Note_on_c, 0, 69, 0
2, 3480, Note_on_c, 0, 72, 61
2, 3528, Note_on_c, 0, 72, 0
2, 3540, Note_on_c, 0, 69, 63
2, 3588, Note_on_c, 0, 69, 0
2, 3600, Note_on_c, 0, 66, 64
2, 3648, Note_on_c, 0, 66, 0
2, 3660, Note_on_c, 0, 71, 65
2, 3708, Note_on_c, 0, 71, 0
2, 3720, Note_on_c, 0, 69, 67
2, 3768, Note_on_c, 0, 69, 0
2, 3780, Note_on_c, 0, 71, 68
2, 3828, Note_on_c, 0, 71, 0
2, 3840, Note_on_c, 0, 74, 69
2, 3888, Note_on_c, 0, 74, 0
2, 3900, Note_on_c, 0, 71, 71
2, 3948, Note_on_c, 0, 71, 0
2, 3960, Note_on_c, 0, 67, 72
2, 4008, Note_on_c, 0, 67, 0
2, 4020, Note_on_c, 0, 72, 73
2, 4068, Note_on_c, 0, 72, 0
2, 4080, Note_on_c, 0, 71, 75
2, 4128, Note_on_c, 0, 71, 0
2, 4140, Note_on_c, 0, 72, 76
2, 4188, Note_on_c, 0, 72, 0
2, 4200, Note_on_c, 0, 76, 77
2, 4248, Note_on_c, 0, 76, 0
2, 4260, Note_on_c, 0, 72, 79
2, 4308, Note_on_c, 0, 72, 0
2, 4320, Note_on_c, 0, 74, 80
2, 4380, Note_on_c, 0, 74, 0
2, 4560, Note_on_c, 0, 81, 48
2, 4560, Note_on_c, 0, 84, 48
2, 4680, Note_on_c, 0, 84, 0
2, 4680, Note_on_c, 0, 81, 0
2, 4680, Note_on_c, 0, 79, 48
2, 4680, Note_on_c, 0, 83, 48
2, 4716, Note_on_c, 0, 83, 0
2, 4716, Note_on_c, 0, 79, 0
2, 4920, Note_on_c, 0, 71, 48
2, 4920, Note_on_c, 0, 74, 48
2, 5040, Note_on_c, 0, 74, 0
2, 5040, Note_on_c, 0, 71, 0
2, 5040, Note_on_c, 0, 69, 48
2, 5040, Note_on_c, 0, 72, 48
2, 5076, Note_on_c, 0, 72, 0
2, 5076, Note_on_c, 0, 69, 0
2, 5280, Note_on_c, 0, 72, 48
2, 5280, Note_on_c, 0, 78, 48
2, 5400, Note_on_c, 0, 78, 0
2, 5400, Note_on_c, 0, 72, 0
2, 5400, Note_on_c, 0, 71, 48
2, 5400, Note_on_c, 0, 79, 48
2, 5436, Note_on_c, 0, 79, 0
2, 5436, Note_on_c, 0, 71, 0
2, 5640, Note_on_c, 0, 67, 48
2, 5640, Note_on_c, 0, 71, 48
2, 5676, Note_on_c, 0, 71, 0
2, 5676, Note_on_c, 0, 67, 0
2, 5760, Note_on_c, 0, 69, 48
2, 5808, Note_on_c, 0, 69, 0
2, 5820, Note_on_c, 0, 68, 53
2, 5868, Note_on_c, 0, 68, 0
2, 5880, Note_on_c, 0, 71, 59
2, 5928, Note_on_c, 0, 71, 0
2, 5940, Note_on_c, 0, 69, 64
2, 5988, Note_on_c, 0, 69, 0
2, 6000, Note_on_c, 0, 72, 69
2, 6048, Note_on_c, 0, 72, 0
2, 6060, Note_on_c, 0, 71, 75
2, 6108, Note_on_c, 0, 71, 0
2, 6120, Note_on_c, 0, 74, 80
2, 6168, Note_on_c, 0, 74, 0
2, 6180, Note_on_c, 0, 72, 80
2, 6228, Note_on_c, 0, 72, 0
2, 6240, Note_on_c, 0, 76, 80
2, 6600, Note_on_c, 0, 76, 0
2, 6600, Note_on_c, 0, 72, 72
2, 6960, Note_on_c, 0, 72, 0
2, 6960, Note_on_c, 0, 71, 64
2, 7320, Note_on_c, 0, 71, 0
2, 7320, Note_on_c, 0, 69, 56
2, 7680, Note_on_c, 0, 69, 0
2, 7680, Note_on_c, 0, 67, 52
2, 8040, Note_on_c, 0, 67, 0
2, 8040, Note_on_c, 0, 66, 48
2, 8400, Note_on_c, 0, 66, 0
2, 8400, Note_on_c, 0, 67, 59
2, 8520, Note_on_c, 0, 67, 0
2, 8520, Note_on_c, 0, 69, 69
2, 8640, Note_on_c, 0, 69, 0
2, 8640, Note_on_c, 0, 62, 80
2, 8640, Note_on_c, 0, 65, 80
2, 8640, Note_on_c, 0, 71, 80
2, 8928, Note_on_c, 0, 71, 0
2, 8928, Note_on_c, 0, 65, 0
2, 8928, Note_on_c, 0, 62, 0
2, 9000, Note_on_c, 0, 64, 80
2, 9048, Note_on_c, 0, 64, 0
2, 9060, Note_on_c, 0, 67, 80
2, 9108, Note_on_c, 0, 67, 0
2, 9120, Note_on_c, 0, 72, 80
2, 9168, Note_on_c, 0, 72, 0
2, 9180, Note_on_c, 0, 67, 80
2, 9228, Note_on_c, 0, 67, 0
2, 9240, Note_on_c, 0, 76, 80
2, 9252, Note_on_c, 0, 76, 0
2, 9300, Note_on_c, 0, 72, 80
2, 9312, Note_on_c, 0, 72, 0
2, 9360, Note_on_c, 0, 69, 80
2, 9360, Note_on_c, 0, 72, 80
2, 9360, Note_on_c, 0, 78, 80
2, 9648, Note_on_c, 0, 78, 0
2, 9648, Note_on_c, 0, 72, 0
2, 9648, Note_on_c, 0, 69, 0
2, 9720, Note_on_c, 0, 79, 80
2, 9768, Note_on_c, 0, 79, 0
2, 9780, Note_on_c, 0, 83, 80
2, 9828, Note_on_c, 0, 83, 0
2, 9840, Note_on_c, 0, 79, 80
2, 9888, Note_on_c, 0, 79, 0
2, 9900, Note_on_c, 0, 74, 80
2, 9948, Note_on_c, 0, 74, 0
2, 9960, Note_on_c, 0, 71, 80
2, 9972, Note_on_c, 0, 71, 0
2, 10020, Note_on_c, 0, 67, 80
2, 10032, Note_on_c, 0, 67, 0
2, 10080, Note_on_c, 0, 62, 80
2, 10080, Note_on_c, 0, 65, 80
2, 10080, Note_on_c, 0, 71, 80
2, 10368, Note_on_c, 0, 71, 0
2, 10368, Note_on_c, 0, 65, 0
2, 10368, Note_on_c, 0, 62, 0
2, 10440, Note_on_c, 0, 64, 80
2, 10488, Note_on_c, 0, 64, 0
2, 10500, Note_on_c, 0, 67, 80
2, 10548, Note_on_c, 0, 67, 0
2, 10560, Note_on_c, 0, 72, 80
2, 10608, Note_on_c, 0, 72, 0
2, 10620, Note_on_c, 0, 67, 80
2, 10668, Note_on_c, 0, 67, 0
2, 10680, Note_on_c, 0, 76, 80
2, 10692, Note_on_c, 0, 76, 0
2, 10740, Note_on_c, 0, 72, 80
2, 10752, Note_on_c, 0, 72, 0
2, 10800, Note_on_c, 0, 69, 80
2, 10800, Note_on_c, 0, 72, 80
2, 10800, Note_on_c, 0, 78, 80
2, 11088, Note_on_c, 0, 78, 0
2, 11088, Note_on_c, 0, 72, 0
2, 11088, Note_on_c, 0, 69, 0
2, 11160, Note_on_c, 0, 79, 80
2, 11208, Note_on_c, 0, 79, 0
2, 11220, Note_on_c, 0, 81, 77
2, 11268, Note_on_c, 0, 81, 0
2, 11280, Note_on_c, 0, 83, 75
2, 11328, Note_on_c, 0, 83, 0
2, 11340, Note_on_c, 0, 79, 72
2, 11352, Note_on_c, 0, 79, 0
2, 11400, Note_on_c, 0, 78, 69
2, 11460, Note_on_c, 0, 78, 0
2, 11460, Note_on_c, 0, 75, 67
2, 11520, Note_on_c, 0, 75, 0
2, 11520, Note_on_c, 0, 76, 64
2, 11712, Note_on_c, 0, 76, 0
2, 11760, Note_on_c, 0, 74, 64
2, 11796, Note_on_c, 0, 74, 0
2, 11880, Note_on_c, 0, 74, 64
2, 11976, Note_on_c, 0, 74, 0
2, 12000, Note_on_c, 0, 72, 64
2, 12096, Note_on_c, 0, 72, 0
2, 12120, Note_on_c, 0, 71, 64
2, 12216, Note_on_c, 0, 71, 0
2, 12240, Note_on_c, 0, 71, 64
2, 12336, Note_on_c, 0, 71, 0
2, 12360, Note_on_c, 0, 69, 64
2, 12456, Note_on_c, 0, 69, 0
2, 12480, Note_on_c, 0, 71, 64
2, 12576, Note_on_c, 0, 71, 0
2, 12600, Note_on_c, 0, 74, 64
2, 12696, Note_on_c, 0, 74, 0
2, 12720, Note_on_c, 0, 72, 64
2, 12816, Note_on_c, 0, 72, 0
2, 12840, Note_on_c, 0, 71, 64
2, 12936, Note_on_c, 0, 71, 0
2, 12960, Note_on_c, 0, 71, 48
2, 13056, Note_on_c, 0, 71, 0
2, 13080, Note_on_c, 0, 69, 48
2, 13176, Note_on_c, 0, 69, 0
2, 13200, Note_on_c, 0, 71, 48
2, 13296, Note_on_c, 0, 71, 0
2, 13320, Note_on_c, 0, 74, 48
2, 13416, Note_on_c, 0, 74, 0
2, 13440, Note_on_c, 0, 72, 48
2, 13536, Note_on_c, 0, 72, 0
2, 13560, Note_on_c, 0, 71, 48
2, 13656, Note_on_c, 0, 71, 0
2, 13680, Note_on_c, 0, 69, 48
2, 13776, Note_on_c, 0, 69, 0
2, 13800, Note_on_c, 0, 78, 40
2, 13800, Note_on_c, 0, 81, 40
2, 13800, Note_on_c, 0, 86, 40
2, 13824, Note_on_c, 0, 86, 0
2, 13824, Note_on_c, 0, 81, 0
2, 13824, Note_on_c, 0, 78, 0
2, 13920, Note_on_c, 0, 78, 40
2, 13920, Note_on_c, 0, 81, 40
2, 13920, Note_on_c, 0, 86, 40
2, 13944, Note_on_c, 0, 86, 0
2, 13944, Note_on_c, 0, 81, 0
2, 13944, Note_on_c, 0, 78, 0
2, 14040, Note_on_c, 0, 78, 40
2, 14040, Note_on_c, 0, 81, 40
2, 14040, Note_on_c, 0, 86, 40
2, 14064, Note_on_c, 0, 86, 0
2, 14064, Note_on_c, 0, 81, 0
2, 14064, Note_on_c, 0, 78, 0
2, 14400, Note_on_c, 0, 81, 40
2, 14520, Note_on_c, 0, 81, 0
2, 14520, Note_on_c, 0, 80, 45
2, 14640, Note_on_c, 0, 80, 0
2, 14640, Note_on_c, 0, 83, 51
2, 14760, Note_on_c, 0, 83, 0
2, 14760, Note_on_c, 0, 81, 56
2, 14880, Note_on_c, 0, 81, 0
2, 14880, Note_on_c, 0, 80, 61
2, 15000, Note_on_c, 0, 80, 0
2, 15000, Note_on_c, 0, 83, 67
2, 15120, Note_on_c, 0, 83, 0
2, 15120, Note_on_c, 0, 74, 80
2, 15120, Note_on_c, 0, 81, 80
2, 15216, Note_on_c, 0, 74, 0
2, 15240, Note_on_c, 0, 73, 75
2, 15336, Note_on_c, 0, 73, 0
2, 15360, Note_on_c, 0, 76, 69
2, 15456, Note_on_c, 0, 76, 0
2, 15480, Note_on_c, 0, 74, 64
2, 15576, Note_on_c, 0, 74, 0
2, 15600, Note_on_c, 0, 73, 59
2, 15696, Note_on_c, 0, 73, 0
2, 15720, Note_on_c, 0, 76, 53
2, 15816, Note_on_c, 0, 76, 0
2, 15840, Note_on_c, 0, 74, 48
2, 15936, Note_on_c, 0, 74, 0
2, 15936, Note_on_c, 0, 81, 0
2, 16080, Note_on_c, 0, 78, 48
2, 16128, Note_on_c, 0, 78, 0
2, 16140, Note_on_c, 0, 74, 48
2, 16188, Note_on_c, 0, 74, 0
2, 16200, Note_on_c, 0, 79, 48
2, 16236, Note_on_c, 0, 79, 0
2, 16440, Note_on_c, 0, 76, 48
2, 16488, Note_on_c, 0, 76, 0
2, 16500, Note_on_c, 0, 73, 48
2, 16548, Note_on_c, 0, 73, 0
2, 16560, Note_on_c, 0, 74, 48
2, 16596, Note_on_c, 0, 74, 0
2, 16800, Note_on_c, 0, 69, 48
2, 16848, Note_on_c, 0, 69, 0
2, 16860, Note_on_c, 0, 78, 48
2, 16908, Note_on_c, 0, 78, 0
2, 16920, Note_on_c, 0, 76, 48
2, 16944, Note_on_c, 0, 76, 0
2, 17040, Note_on_c, 0, 76, 48
2, 17088, Note_on_c, 0, 76, 0
2, 17100, Note_on_c, 0, 79, 48
2, 17148, Note_on_c, 0, 79, 0
2, 17160, Note_on_c, 0, 78, 48
2, 17208, Note_on_c, 0, 78, 0
2, 17220, Note_on_c, 0, 81, 48
2, 17268, Note_on_c, 0, 81, 0
2, 17280, Note_on_c, 0, 79, 48
2, 17400, Note_on_c, 0, 79, 0
2, 17400, Note_on_c, 0, 78, 53
2, 17520, Note_on_c, 0, 78, 0
2, 17520, Note_on_c, 0, 81, 59
2, 17640, Note_on_c, 0, 81, 0
2, 17640, Note_on_c, 0, 79, 64
2, 17760, Note_on_c, 0, 79, 0
2, 17760, Note_on_c, 0, 78, 69
2, 17880, Note_on_c, 0, 78, 0
2, 17880, Note_on_c, 0, 81, 75
2, 18000, Note_on_c, 0, 81, 0
2, 18000, Note_on_c, 0, 73, 80
2, 18000, Note_on_c, 0, 79, 80
2, 18120, Note_on_c, 0, 73, 0
2, 18120, Note_on_c, 0, 71, 75
2, 18240, Note_on_c, 0, 71, 0
2, 18240, Note_on_c, 0, 74, 69
2, 18360, Note_on_c, 0, 74, 0
2, 18360, Note_on_c, 0, 73, 64
2, 18480, Note_on_c, 0, 73, 0
2, 18480, Note_on_c, 0, 71, 59
2, 18600, Note_on_c, 0, 71, 0
2, 18600, Note_on_c, 0, 74, 53
2, 18720, Note_on_c, 0, 74, 0
2, 18720, Note_on_c, 0, 73, 48
2, 18816, Note_on_c, 0, 73, 0
2, 18816, Note_on_c, 0, 79, 0
2, 18960, Note_on_c, 0, 76, 48
2, 19008, Note_on_c, 0, 76, 0
2, 19020, Note_on_c, 0, 73, 48
2, 19068, Note_on_c, 0, 73, 0
2, 19080, Note_on_c, 0, 74, 48
2, 19116, Note_on_c, 0, 74, 0
2, 19320, Note_on_c, 0, 69, 48
2, 19368, Note_on_c, 0, 69, 0
2, 19380, Note_on_c, 0, 78, 48
2, 19428, Note_on_c, 0, 78, 0
2, 19440, Note_on_c, 0, 76, 48
2, 19476, Note_on_c, 0, 76, 0
2, 19680, Note_on_c, 0, 69, 48
2, 19728, Note_on_c, 0, 69, 0
2, 19740, Note_on_c, 0, 79, 48
2, 19788, Note_on_c, 0, 79, 0
2, 19800, Note_on_c, 0, 78, 48
2, 19836, Note_on_c, 0, 78, 0
2, 19920, Note_on_c, 0, 78, 59
2, 19920, Note_on_c, 0, 74, 59
2, 19968, Note_on_c, 0, 78, 0
2, 19980, Note_on_c, 0, 81, 64
2, 20016, Note_on_c, 0, 74, 0
2, 20028, Note_on_c, 0, 81, 0
2, 20040, Note_on_c, 0, 79, 69
2, 20040, Note_on_c, 0, 76, 69
2, 20088, Note_on_c, 0, 79, 0
2, 20100, Note_on_c, 0, 83, 75
2, 20136, Note_on_c, 0, 76, 0
2, 20148, Note_on_c, 0, 83, 0
2, 20160, Note_on_c, 0, 78, 80
2, 20160, Note_on_c, 0, 81, 80
2, 20256, Note_on_c, 0, 81, 0
2, 20256, Note_on_c, 0, 78, 0
2, 20880, Note_on_c, 0, 71, 80
2, 20880, Note_on_c, 0, 83, 80
2, 21000, Note_on_c, 0, 83, 0
2, 21000, Note_on_c, 0, 71, 0
2, 21000, Note_on_c, 0, 70, 80
2, 21000, Note_on_c, 0, 82, 80
2, 21072, Note_on_c, 0, 82, 0
2, 21072, Note_on_c, 0, 70, 0
2, 21120, Note_on_c, 0, 73, 80
2, 21120, Note_on_c, 0, 85, 80
2, 21156, Note_on_c, 0, 85, 0
2, 21156, Note_on_c, 0, 73, 0
2, 21240, Note_on_c, 0, 71, 80
2, 21240, Note_on_c, 0, 83, 80
2, 21336, Note_on_c, 0, 83, 0
2, 21336, Note_on_c, 0, 71, 0
2, 21360, Note_on_c, 0, 67, 80
2, 21360, Note_on_c, 0, 71, 80
2, 21408, Note_on_c, 0, 71, 0
2, 21420, Note_on_c, 0, 74, 80
2, 21456, Note_on_c, 0, 67, 0
2, 21468, Note_on_c, 0, 74, 0
2, 21480, Note_on_c, 0, 69, 80
2, 21480, Note_on_c, 0, 72, 80
2, 21528, Note_on_c, 0, 72, 0
2, 21540, Note_on_c, 0, 76, 80
2, 21576, Note_on_c, 0, 69, 0
2, 21588, Note_on_c, 0, 76, 0
2, 21600, Note_on_c, 0, 71, 80
2, 21600, Note_on_c, 0, 74, 80
2, 21696, Note_on_c, 0, 74, 0
2, 21696, Note_on_c, 0, 71, 0
2, 22320, Note_on_c, 0, 64, 80
2, 22320, Note_on_c, 0, 76, 80
2, 22440, Note_on_c, 0, 76, 0
2, 22440, Note_on_c, 0, 64, 0
2, 22440, Note_on_c, 0, 75, 80
2, 22440, Note_on_c, 0, 63, 80
2, 22512, Note_on_c, 0, 63, 0
2, 22512, Note_on_c, 0, 75, 0
2, 22560, Note_on_c, 0, 66, 80
2, 22560, Note_on_c, 0, 78, 80
2, 22596, Note_on_c, 0, 78, 0
2, 22596, Note_on_c, 0, 66, 0
2, 22680, Note_on_c, 0, 64, 80
2, 22680, Note_on_c, 0, 76, 80
2, 22716, Note_on_c, 0, 76, 0
2, 22716, Note_on_c, 0, 64, 0
2, 22800, Note_on_c, 0, 76, 40
2, 22848, Note_on_c, 0, 76, 0
2, 22860, Note_on_c, 0, 75, 40
2, 22908, Note_on_c, 0, 75, 0
2, 22920, Note_on_c, 0, 78, 40
2, 22968, Note_on_c, 0, 78, 0
2, 22980, Note_on_c, 0, 76, 40
2, 23028, Note_on_c, 0, 76, 0
2, 23040, Note_on_c, 0, 79, 40
2, 23088, Note_on_c, 0, 79, 0
2, 23100, Note_on_c, 0, 76, 40
2, 23148, Note_on_c, 0, 76, 0
2, 23160, Note_on_c, 0, 73, 40
2, 23208, Note_on_c, 0, 73, 0
2, 23220, Note_on_c, 0, 70, 40
2, 23268, Note_on_c, 0, 70, 0
2, 23280, Note_on_c, 0, 69, 80
2, 23316, Note_on_c, 0, 69, 0
2, 23400, Note_on_c, 0, 79, 40
2, 23448, Note_on_c, 0, 79, 0
2, 23460, Note_on_c, 0, 76, 40
2, 23508, Note_on_c, 0, 76, 0
2, 23520, Note_on_c, 0, 73, 40
2, 23568, Note_on_c, 0, 73, 0
2, 23580, Note_on_c, 0, 70, 40
2, 23628, Note_on_c, 0, 70, 0
2, 23640, Note_on_c, 0, 69, 72
2, 23676, Note_on_c, 0, 69, 0
2, 23760, Note_on_c, 0, 79, 40
2, 23808, Note_on_c, 0, 79, 0
2, 23820, Note_on_c, 0, 76, 40
2, 23868, Note_on_c, 0, 76, 0
2, 23880, Note_on_c, 0, 73, 40
2, 23928, Note_on_c, 0, 73, 0
2, 23940, Note_on_c, 0, 70, 40
2, 23988, Note_on_c, 0, 70, 0
2, 24000, Note_on_c, 0, 69, 64
2, 24036, Note_on_c, 0, 69, 0
2, 24120, Note_on_c, 0, 79, 40
2, 24168, Note_on_c, 0, 79, 0
2, 24180, Note_on_c, 0, 76, 40
2, 24228, Note_on_c, 0, 76, 0
2, 24240, Note_on_c, 0, 73, 40
2, 24288, Note_on_c, 0, 73, 0
2, 24300, Note_on_c, 0, 70, 40
2, 24348, Note_on_c, 0, 70, 0
2, 24360, Note_on_c, 0, 69, 56
2, 24396, Note_on_c, 0, 69, 0
2, 24720, Note_on_c, 0, 81, 80
2, 24720, Note_on_c, 0, 78, 80
2, 24720, Note_on_c, 0, 74, 80
2, 24756, Note_on_c, 0, 74, 0
2, 24756, Note_on_c, 0, 78, 0
2, 24756, Note_on_c, 0, 81, 0
2, 25080, Note_on_c, 0, 86, 80
2, 25080, Note_on_c, 0, 79, 80
2, 25080, Note_on_c, 0, 74, 80
2, 25116, Note_on_c, 0, 74, 0
2, 25116, Note_on_c, 0, 79, 0
2, 25116, Note_on_c, 0, 86, 0
2, 25200, Note_on_c, 0, 69, 80
2, 25488, Note_on_c, 0, 69, 0
2, 25500, Note_on_c, 0, 78, 80
2, 25548, Note_on_c, 0, 78, 0
2, 25560, Note_on_c, 0, 76, 64
2, 25569, Note_on_c, 0, 76, 0
2, 25590, Note_on_c, 0, 78, 62
2, 25599, Note_on_c, 0, 78, 0
2, 25620, Note_on_c, 0, 76, 60
2, 25629, Note_on_c, 0, 76, 0
2, 25650, Note_on_c, 0, 78, 58
2, 25659, Note_on_c, 0, 78, 0
2, 25680, Note_on_c, 0, 76, 56
2, 25689, Note_on_c, 0, 76, 0
2, 25710, Note_on_c, 0, 78, 54
2, 25719, Note_on_c, 0, 78, 0
2, 25740, Note_on_c, 0, 76, 52
2, 25749, Note_on_c, 0, 76, 0
2, 25770, Note_on_c, 0, 78, 50
2, 25779, Note_on_c, 0, 78, 0
2, 25800, Note_on_c, 0, 76, 48
2, 25806, Note_on_c, 0, 76, 0
2, 25820, Note_on_c, 0, 78, 47
2, 25826, Note_on_c, 0, 78, 0
2, 25840, Note_on_c, 0, 76, 45
2, 25846, Note_on_c, 0, 76, 0
2, 25860, Note_on_c, 0, 74, 44
2, 25869, Note_on_c, 0, 74, 0
2, 25890, Note_on_c, 0, 76, 42
2, 25899, Note_on_c, 0, 76, 0
2, 25920, Note_on_c, 0, 74, 56
2, 25956, Note_on_c, 0, 74, 0
2, 26160, Note_on_c, 0, 81, 40
2, 26196, Note_on_c, 0, 81, 0
2, 26280, Note_on_c, 0, 79, 40
2, 26400, Note_on_c, 0, 79, 0
2, 26400, Note_on_c, 0, 78, 40
2, 26436, Note_on_c, 0, 78, 0
2, 26520, Note_on_c, 0, 78, 40
2, 26556, Note_on_c, 0, 78, 0
2, 26640, Note_on_c, 0, 78, 40
2, 26676, Note_on_c, 0, 78, 0
2, 26880, Note_on_c, 0, 78, 40
2, 26916, Note_on_c, 0, 78, 0
2, 27000, Note_on_c, 0, 84, 40
2, 27096, Note_on_c, 0, 84, 0
2, 27120, Note_on_c, 0, 83, 40
2, 27156, Note_on_c, 0, 83, 0
2, 27240, Note_on_c, 0, 83, 40
2, 27276, Note_on_c, 0, 83, 0
2, 27360, Note_on_c, 0, 83, 40
2, 27600, Note_on_c, 0, 83, 0
2, 27600, Note_on_c, 0, 76, 40
2, 27636, Note_on_c, 0, 76, 0
2, 27720, Note_on_c, 0, 81, 40
2, 27912, Note_on_c, 0, 81, 0
2, 27960, Note_on_c, 0, 74, 40
2, 27996, Note_on_c, 0, 74, 0
2, 28080, Note_on_c, 0, 79, 40
2, 28116, Note_on_c, 0, 79, 0
2, 28320, Note_on_c, 0, 78, 40
2, 28392, Note_on_c, 0, 78, 0
2, 28410, Note_on_c, 0, 78, 40
2, 28439, Note_on_c, 0, 78, 0
2, 28440, Note_on_c, 0, 76, 40
2, 28449, Note_on_c, 0, 76, 0
2, 28470, Note_on_c, 0, 78, 40
2, 28479, Note_on_c, 0, 78, 0
2, 28500, Note_on_c, 0, 76, 40
2, 28509, Note_on_c, 0, 76, 0
2, 28530, Note_on_c, 0, 78, 40
2, 28539, Note_on_c, 0, 78, 0
2, 28560, Note_on_c, 0, 76, 40
2, 28569, Note_on_c, 0, 76, 0
2, 28590, Note_on_c, 0, 78, 40
2, 28599, Note_on_c, 0, 78, 0
2, 28620, Note_on_c, 0, 76, 40
2, 28629, Note_on_c, 0, 76, 0
2, 28650, Note_on_c, 0, 78, 40
2, 28659, Note_on_c, 0, 78, 0
2, 28680, Note_on_c, 0, 76, 40
2, 28686, Note_on_c, 0, 76, 0
2, 28700, Note_on_c, 0, 78, 40
2, 28706, Note_on_c, 0, 78, 0
2, 28720, Note_on_c, 0, 76, 40
2, 28726, Note_on_c, 0, 76, 0
2, 28740, Note_on_c, 0, 74, 40
2, 28749, Note_on_c, 0, 74, 0
2, 28770, Note_on_c, 0, 76, 40
2, 28779, Note_on_c, 0, 76, 0
2, 28800, Note_on_c, 0, 74, 40
2, 28896, Note_on_c, 0, 74, 0
2, 29400, Note_on_c, 0, 71, 48
2, 29400, Note_on_c, 0, 77, 48
2, 29484, Note_on_c, 0, 77, 0
2, 29484, Note_on_c, 0, 71, 0
2, 29520, Note_on_c, 0, 70, 48
2, 29520, Note_on_c, 0, 78, 48
2, 29544, Note_on_c, 0, 78, 0
2, 29544, Note_on_c, 0, 70, 0
2, 30120, Note_on_c, 0, 76, 48
2, 30120, Note_on_c, 0, 82, 48
2, 30144, Note_on_c, 0, 82, 0
2, 30144, Note_on_c, 0, 76, 0
2, 30360, Note_on_c, 0, 75, 48
2, 30360, Note_on_c, 0, 81, 48
2, 30444, Note_on_c, 0, 81, 0
2, 30444, Note_on_c, 0, 75, 0
2, 30480, Note_on_c, 0, 74, 48
2, 30480, Note_on_c, 0, 80, 48
2, 30504, Note_on_c, 0, 80, 0
2, 30504, Note_on_c, 0, 74, 0
2, 30720, Note_on_c, 0, 73, 48
2, 30720, Note_on_c, 0, 79, 48
2, 30768, Note_on_c, 0, 79, 0
2, 30768, Note_on_c, 0, 73, 0
2, 30840, Note_on_c, 0, 74, 48
2, 30840, Note_on_c, 0, 78, 48
2, 30888, Note_on_c, 0, 78, 0
2, 30888, Note_on_c, 0, 74, 0
2, 30960, Note_on_c, 0, 83, 48
2, 30960, Note_on_c, 0, 74, 48
2, 31008, Note_on_c, 0, 74, 0
2, 31008, Note_on_c, 0, 83, 0
2, 31320, Note_on_c, 0, 73, 32
2, 31320, Note_on_c, 0, 79, 32
2, 31368, Note_on_c, 0, 79, 0
2, 31368, Note_on_c, 0, 73, 0
2, 31680, Note_on_c, 0, 66, 48
2, 31740, Note_on_c, 0, 66, 0
2, 31740, Note_on_c, 0, 69, 48
2, 31800, Note_on_c, 0, 69, 0
2, 31800, Note_on_c, 0, 74, 48
2, 31860, Note_on_c, 0, 74, 0
2, 31860, Note_on_c, 0, 78, 48
2, 31920, Note_on_c, 0, 78, 0
2, 31920, Note_on_c, 0, 81, 80
2, 31968, Note_on_c, 0, 81, 0
2, 32040, Note_on_c, 0, 67, 48
2, 32100, Note_on_c, 0, 67, 0
2, 32100, Note_on_c, 0, 71, 48
2, 32160, Note_on_c, 0, 71, 0
2, 32160, Note_on_c, 0, 74, 48
2, 32220, Note_on_c, 0, 74, 0
2, 32220, Note_on_c, 0, 79, 48
2, 32280, Note_on_c, 0, 79, 0
2, 32280, Note_on_c, 0, 83, 80
2, 32328, Note_on_c, 0, 83, 0
2, 32640, Note_on_c, 0, 86, 80
2, 32640, Note_on_c, 0, 81, 80
2, 32640, Note_on_c, 0, 74, 80
2, 32724, Note_on_c, 0, 74, 0
2, 32724, Note_on_c, 0, 81, 0
2, 32724, Note_on_c, 0, 86, 0
2, 33000, Note_on_c, 0, 86, 80
2, 33000, Note_on_c, 0, 79, 80
2, 33000, Note_on_c, 0, 74, 80
2, 33084, Note_on_c, 0, 74, 0
2, 33084, Note_on_c, 0, 79, 0
2, 33084, Note_on_c, 0, 86, 0
2, 33120, Note_on_c, 0, 78, 72
2, 33180, Note_on_c, 0, 78, 0
2, 33180, Note_on_c, 0, 86, 72
2, 33240, Note_on_c, 0, 86, 0
2, 33240, Note_on_c, 0, 78, 72
2, 33300, Note_on_c, 0, 78, 0
2, 33300, Note_on_c, 0, 86, 72
2, 33360, Note_on_c, 0, 86, 0
2, 33360, Note_on_c, 0, 78, 72
2, 33420, Note_on_c, 0, 78, 0
2, 33420, Note_on_c, 0, 86, 72
2, 33480, Note_on_c, 0, 86, 0
2, 33480, Note_on_c, 0, 78, 72
2, 33540, Note_on_c, 0, 78, 0
2, 33540, Note_on_c, 0, 86, 72
2, 33600, Note_on_c, 0, 86, 0
2, 33600, Note_on_c, 0, 78, 72
2, 33660, Note_on_c, 0, 78, 0
2, 33660, Note_on_c, 0, 86, 72
2, 33720, Note_on_c, 0, 86, 0
2, 33720, Note_on_c, 0, 78, 72
2, 33780, Note_on_c, 0, 78, 0
2, 33780, Note_on_c, 0, 86, 72
2, 33840, Note_on_c, 0, 86, 0
2, 33840, Note_on_c, 0, 76, 72
2, 33900, Note_on_c, 0, 76, 0
2, 33900, Note_on_c, 0, 85, 72
2, 33960, Note_on_c, 0, 85, 0
2, 33960, Note_on_c, 0, 76, 72
2, 34020, Note_on_c, 0, 76, 0
2, 34020, Note_on_c, 0, 85, 72
2, 34080, Note_on_c, 0, 85, 0
2, 34080, Note_on_c, 0, 76, 72
2, 34140, Note_on_c, 0, 76, 0
2, 34140, Note_on_c, 0, 85, 72
2, 34200, Note_on_c, 0, 85, 0
2, 34200, Note_on_c, 0, 76, 72
2, 34260, Note_on_c, 0, 76, 0
2, 34260, Note_on_c, 0, 85, 72
2, 34320, Note_on_c, 0, 85, 0
2, 34320, Note_on_c, 0, 76, 72
2, 34380, Note_on_c, 0, 76, 0
2, 34380, Note_on_c, 0, 85, 72
2, 34440, Note_on_c, 0, 85, 0
2, 34440, Note_on_c, 0, 76, 72
2, 34500, Note_on_c, 0, 76, 0
2, 34500, Note_on_c, 0, 85, 72
2, 34560, Note_on_c, 0, 85, 0
2, 34560, Note_on_c, 0, 78, 80
2, 34560, Note_on_c, 0, 86, 80
2, 34620, Note_on_c, 0, 86, 0
2, 34620, Note_on_c, 0, 78, 0
2, 34800, Note_on_c, 0, 66, 48
2, 34896, Note_on_c, 0, 66, 0
2, 34920, Note_on_c, 0, 67, 48
2, 34956, Note_on_c, 0, 67, 0
2, 35040, Note_on_c, 0, 68, 56
2, 35076, Note_on_c, 0, 68, 0
2, 35160, Note_on_c, 0, 69, 64
2, 35196, Note_on_c, 0, 69, 0
2, 35280, Note_on_c, 0, 70, 72
2, 35316, Note_on_c, 0, 70, 0
2, 35400, Note_on_c, 0, 71, 64
2, 35436, Note_on_c, 0, 71, 0
2, 35520, Note_on_c, 0, 68, 56
2, 35640, Note_on_c, 0, 68, 0
2, 35640, Note_on_c, 0, 69, 48
2, 35676, Note_on_c, 0, 69, 0
2, 35880, Note_on_c, 0, 69, 40
2, 35916, Note_on_c, 0, 69, 0
2, 36000, Note_on_c, 0, 62, 40
2, 36036, Note_on_c, 0, 62, 0
2, 36240, Note_on_c, 0, 76, 80
2, 36240, Note_on_c, 0, 81, 80
2, 36240, Note_on_c, 0, 85, 80
2, 36276, Note_on_c, 0, 85, 0
2, 36276, Note_on_c, 0, 81, 0
2, 36276, Note_on_c, 0, 76, 0
2, 36360, Note_on_c, 0, 74, 80
2, 36360, Note_on_c, 0, 78, 80
2, 36360, Note_on_c, 0, 81, 80
2, 36360, Note_on_c, 0, 86, 80
2, 36456, Note_on_c, 0, 86, 0
2, 36456, Note_on_c, 0, 74, 0
2, 36456, Note_on_c, 0, 78, 0
2, 36456, Note_on_c, 0, 81, 0
2, 36840, Note_on_c, 0, 62, 56
2, 36888, Note_on_c, 0, 62, 0
2, 36960, Note_on_c, 0, 62, 72
2, 37008, Note_on_c, 0, 62, 0
2, 37080, Note_on_c, 0, 62, 80
2, 37320, Note_on_c, 0, 62, 0
2, 37320, Note_on_c, 0, 65, 64
2, 37368, Note_on_c, 0, 65, 0
2, 37560, Note_on_c, 0, 62, 56
2, 37608, Note_on_c, 0, 62, 0
2, 37680, Note_on_c, 0, 62, 72
2, 37728, Note_on_c, 0, 62, 0
2, 37800, Note_on_c, 0, 62, 80
2, 38040, Note_on_c, 0, 62, 0
2, 38040, Note_on_c, 0, 69, 64
2, 38088, Note_on_c, 0, 69, 0
2, 38280, Note_on_c, 0, 86, 80
2, 38328, Note_on_c, 0, 86, 0
2, 38340, Note_on_c, 0, 89, 80
2, 38388, Note_on_c, 0, 89, 0
2, 38400, Note_on_c, 0, 83, 80
2, 38448, Note_on_c, 0, 83, 0
2, 38460, Note_on_c, 0, 86, 80
2, 38508, Note_on_c, 0, 86, 0
2, 38520, Note_on_c, 0, 80, 80
2, 38568, Note_on_c, 0, 80, 0
2, 38580, Note_on_c, 0, 83, 79
2, 38628, Note_on_c, 0, 83, 0
2, 38640, Note_on_c, 0, 77, 77
2, 38688, Note_on_c, 0, 77, 0
2, 38700, Note_on_c, 0, 80, 76
2, 38748, Note_on_c, 0, 80, 0
2, 38760, Note_on_c, 0, 74, 75
2, 38808, Note_on_c, 0, 74, 0
2, 38820, Note_on_c, 0, 77, 73
2, 38868, Note_on_c, 0, 77, 0
2, 38880, Note_on_c, 0, 71, 72
2, 38928, Note_on_c, 0, 71, 0
2, 38940, Note_on_c, 0, 74, 71
2, 38988, Note_on_c, 0, 74, 0
2, 39000, Note_on_c, 0, 68, 69
2, 39048, Note_on_c, 0, 68, 0
2, 39060, Note_on_c, 0, 71, 68
2, 39108, Note_on_c, 0, 71, 0
2, 39120, Note_on_c, 0, 65, 67
2, 39168, Note_on_c, 0, 65, 0
2, 39180, Note_on_c, 0, 68, 65
2, 39228, Note_on_c, 0, 68, 0
2, 39240, Note_on_c, 0, 62, 64
2, 39288, Note_on_c, 0, 62, 0
2, 39300, Note_on_c, 0, 65, 63
2, 39348, Note_on_c, 0, 65, 0
2, 39360, Note_on_c, 0, 59, 61
2, 39408, Note_on_c, 0, 59, 0
2, 39420, Note_on_c, 0, 62, 60
2, 39468, Note_on_c, 0, 62, 0
2, 39480, Note_on_c, 0, 56, 59
2, 39528, Note_on_c, 0, 56, 0
2, 39540, Note_on_c, 0, 59, 57
2, 39588, Note_on_c, 0, 59, 0
2, 39720, Note_on_c, 0, 64, 64
2, 39768, Note_on_c, 0, 64, 0
2, 39840, Note_on_c, 0, 64, 72
2, 39888, Note_on_c, 0, 64, 0
2, 39960, Note_on_c, 0, 64, 80
2, 40200, Note_on_c, 0, 64, 0
2, 40200, Note_on_c, 0, 69, 64
2, 40248, Note_on_c, 0, 69, 0
2, 40440, Note_on_c, 0, 69, 64
2, 40488, Note_on_c, 0, 69, 0
2, 40560, Note_on_c, 0, 69, 72
2, 40608, Note_on_c, 0, 69, 0
2, 40680, Note_on_c, 0, 69, 80
2, 40920, Note_on_c, 0, 69, 0
2, 40920, Note_on_c, 0, 76, 64
2, 40968, Note_on_c, 0, 76, 0
2, 41160, Note_on_c, 0, 81, 80
2, 41196, Note_on_c, 0, 81, 0
2, 41220, Note_on_c, 0, 84, 80
2, 41256, Note_on_c, 0, 84, 0
2, 41280, Note_on_c, 0, 78, 80
2, 41316, Note_on_c, 0, 78, 0
2, 41340, Note_on_c, 0, 81, 80
2, 41376, Note_on_c, 0, 81, 0
2, 41400, Note_on_c, 0, 75, 80
2, 41436, Note_on_c, 0, 75, 0
2, 41460, Note_on_c, 0, 78, 80
2, 41496, Note_on_c, 0, 78, 0
2, 41520, Note_on_c, 0, 72, 80
2, 41556, Note_on_c, 0, 72, 0
2, 41580, Note_on_c, 0, 75, 80
2, 41616, Note_on_c, 0, 75, 0
2, 41640, Note_on_c, 0, 69, 80
2, 41676, Note_on_c, 0, 69, 0
2, 41700, Note_on_c, 0, 72, 80
2, 41736, Note_on_c, 0, 72, 0
2, 41880, Note_on_c, 0, 79, 80
2, 41928, Note_on_c, 0, 79, 0
2, 41940, Note_on_c, 0, 83, 80
2, 41988, Note_on_c, 0, 83, 0
2, 42000, Note_on_c, 0, 76, 80
2, 42048, Note_on_c, 0, 76, 0
2, 42060, Note_on_c, 0, 79, 80
2, 42108, Note_on_c, 0, 79, 0
2, 42120, Note_on_c, 0, 71, 80
2, 42168, Note_on_c, 0, 71, 0
2, 42180, Note_on_c, 0, 76, 80
2, 42228, Note_on_c, 0, 76, 0
2, 42240, Note_on_c, 0, 67, 80
2, 42288, Note_on_c, 0, 67, 0
2, 42300, Note_on_c, 0, 71, 80
2, 42348, Note_on_c, 0, 71, 0
2, 42360, Note_on_c, 0, 64, 80
2, 42408, Note_on_c, 0, 64, 0
2, 42420, Note_on_c, 0, 67, 80
2, 42468, Note_on_c, 0, 67, 0
2, 42600, Note_on_c, 0, 82, 80
2, 42660, Note_on_c, 0, 82, 0
2, 42660, Note_on_c, 0, 88, 80
2, 42720, Note_on_c, 0, 88, 0
2, 42720, Note_on_c, 0, 79, 80
2, 42780, Note_on_c, 0, 79, 0
2, 42780, Note_on_c, 0, 82, 80
2, 42840, Note_on_c, 0, 82, 0
2, 42840, Note_on_c, 0, 76, 80
2, 42900, Note_on_c, 0, 76, 0
2, 42900, Note_on_c, 0, 79, 80
2, 42960, Note_on_c, 0, 79, 0
2, 42960, Note_on_c, 0, 72, 80
2, 43020, Note_on_c, 0, 72, 0
2, 43020, Note_on_c, 0, 76, 80
2, 43080, Note_on_c, 0, 76, 0
2, 43080, Note_on_c, 0, 70, 80
2, 43140, Note_on_c, 0, 70, 0
2, 43140, Note_on_c, 0, 72, 80
2, 43200, Note_on_c, 0, 72, 0
2, 43200, Note_on_c, 0, 67, 80
2, 43260, Note_on_c, 0, 67, 0
2, 43260, Note_on_c, 0, 70, 80
2, 43320, Note_on_c, 0, 70, 0
2, 43320, Note_on_c, 0, 64, 80
2, 43380, Note_on_c, 0, 64, 0
2, 43380, Note_on_c, 0, 67, 80
2, 43440, Note_on_c, 0, 67, 0
2, 43440, Note_on_c, 0, 60, 80
2, 43500, Note_on_c, 0, 60, 0
2, 43500, Note_on_c, 0, 64, 80
2, 43560, Note_on_c, 0, 64, 0
2, 43560, Note_on_c, 0, 58, 80
2, 43620, Note_on_c, 0, 58, 0
2, 43620, Note_on_c, 0, 67, 80
2, 43680, Note_on_c, 0, 67, 0
2, 43680, Note_on_c, 0, 66, 80
2, 43740, Note_on_c, 0, 66, 0
2, 43740, Note_on_c, 0, 67, 80
2, 43800, Note_on_c, 0, 67, 0
2, 43800, Note_on_c, 0, 66, 80
2, 43860, Note_on_c, 0, 66, 0
2, 43860, Note_on_c, 0, 64, 80
2, 43920, Note_on_c, 0, 64, 0
2, 43920, Note_on_c, 0, 63, 80
2, 43956, Note_on_c, 0, 63, 0
2, 44160, Note_on_c, 0, 71, 80
2, 44160, Note_on_c, 0, 63, 80
2, 44280, Note_on_c, 0, 63, 0
2, 44280, Note_on_c, 0, 71, 0
2, 44280, Note_on_c, 0, 64, 80
2, 44280, Note_on_c, 0, 72, 80
2, 44316, Note_on_c, 0, 72, 0
2, 44316, Note_on_c, 0, 64, 0
2, 44520, Note_on_c, 0, 64, 80
2, 44520, Note_on_c, 0, 73, 80
2, 44640, Note_on_c, 0, 73, 0
2, 44640, Note_on_c, 0, 64, 0
2, 44640, Note_on_c, 0, 66, 80
2, 44640, Note_on_c, 0, 74, 80
2, 44676, Note_on_c, 0, 74, 0
2, 44676, Note_on_c, 0, 66, 0
2, 44880, Note_on_c, 0, 66, 80
2, 44880, Note_on_c, 0, 69, 80
2, 44880, Note_on_c, 0, 75, 80
2, 45000, Note_on_c, 0, 75, 0
2, 45000, Note_on_c, 0, 69, 0
2, 45000, Note_on_c, 0, 66, 0
2, 45000, Note_on_c, 0, 67, 80
2, 45000, Note_on_c, 0, 76, 80
2, 45036, Note_on_c, 0, 76, 0
2, 45036, Note_on_c, 0, 67, 0
2, 45240, Note_on_c, 0, 76, 80
2, 45240, Note_on_c, 0, 79, 80
2, 45336, Note_on_c, 0, 79, 0
2, 45336, Note_on_c, 0, 76, 0
2, 45360, Note_on_c, 0, 75, 48
2, 45360, Note_on_c, 0, 78, 48
2, 45408, Note_on_c, 0, 78, 0
2, 45408, Note_on_c, 0, 75, 0
2, 45420, Note_on_c, 0, 83, 48
2, 45468, Note_on_c, 0, 83, 0
2, 45480, Note_on_c, 0, 82, 48
2, 45528, Note_on_c, 0, 82, 0
2, 45540, Note_on_c, 0, 83, 48
2, 45588, Note_on_c, 0, 83, 0
2, 45600, Note_on_c, 0, 71, 48
2, 45648, Note_on_c, 0, 71, 0
2, 45660, Note_on_c, 0, 83, 48
2, 45708, Note_on_c, 0, 83, 0
2, 45720, Note_on_c, 0, 72, 48
2, 45768, Note_on_c, 0, 72, 0
2, 45780, Note_on_c, 0, 83, 48
2, 45828, Note_on_c, 0, 83, 0
2, 45840, Note_on_c, 0, 82, 48
2, 45888, Note_on_c, 0, 82, 0
2, 45900, Note_on_c, 0, 83, 48
2, 45948, Note_on_c, 0, 83, 0
2, 45960, Note_on_c, 0, 73, 48
2, 46008, Note_on_c, 0, 73, 0
2, 46020, Note_on_c, 0, 83, 48
2, 46068, Note_on_c, 0, 83, 0
2, 46080, Note_on_c, 0, 74, 48
2, 46128, Note_on_c, 0, 74, 0
2, 46140, Note_on_c, 0, 83, 48
2, 46188, Note_on_c, 0, 83, 0
2, 46200, Note_on_c, 0, 82, 48
2, 46248, Note_on_c, 0, 82, 0
2, 46260, Note_on_c, 0, 83, 48
2, 46308, Note_on_c, 0, 83, 0
2, 46320, Note_on_c, 0, 75, 48
2, 46368, Note_on_c, 0, 75, 0
2, 46380, Note_on_c, 0, 83, 48
2, 46428, Note_on_c, 0, 83, 0
2, 46440, Note_on_c, 0, 76, 48
2, 46488, Note_on_c, 0, 76, 0
2, 46500, Note_on_c, 0, 83, 48
2, 46548, Note_on_c, 0, 83, 0
2, 46560, Note_on_c, 0, 82, 48
2, 46608, Note_on_c, 0, 82, 0
2, 46620, Note_on_c, 0, 83, 48
2, 46668, Note_on_c, 0, 83, 0
2, 46680, Note_on_c, 0, 79, 48
2, 46728, Note_on_c, 0, 79, 0
2, 46740, Note_on_c, 0, 83, 48
2, 46788, Note_on_c, 0, 83, 0
2, 46800, Note_on_c, 0, 78, 48
2, 46848, Note_on_c, 0, 78, 0
2, 46860, Note_on_c, 0, 83, 48
2, 46908, Note_on_c, 0, 83, 0
2, 46920, Note_on_c, 0, 82, 48
2, 46968, Note_on_c, 0, 82, 0
2, 46980, Note_on_c, 0, 83, 48
2, 47028, Note_on_c, 0, 83, 0
2, 47040, Note_on_c, 0, 82, 48
2, 47088, Note_on_c, 0, 82, 0
2, 47100, Note_on_c, 0, 83, 48
2, 47148, Note_on_c, 0, 83, 0
2, 47160, Note_on_c, 0, 84, 48
2, 47208, Note_on_c, 0, 84, 0
2, 47220, Note_on_c, 0, 81, 48
2, 47268, Note_on_c, 0, 81, 0
2, 47280, Note_on_c, 0, 78, 48
2, 47328, Note_on_c, 0, 78, 0
2, 47340, Note_on_c, 0, 76, 48
2, 47388, Note_on_c, 0, 76, 0
2, 47400, Note_on_c, 0, 75, 80
2, 47436, Note_on_c, 0, 75, 0
2, 47520, Note_on_c, 0, 84, 48
2, 47568, Note_on_c, 0, 84, 0
2, 47580, Note_on_c, 0, 81, 48
2, 47628, Note_on_c, 0, 81, 0
2, 47640, Note_on_c, 0, 78, 48
2, 47688, Note_on_c, 0, 78, 0
2, 47700, Note_on_c, 0, 76, 48
2, 47748, Note_on_c, 0, 76, 0
2, 47760, Note_on_c, 0, 75, 80
2, 47796, Note_on_c, 0, 75, 0
2, 47880, Note_on_c, 0, 79, 48
2, 47928, Note_on_c, 0, 79, 0
2, 47940, Note_on_c, 0, 76, 48
2, 47988, Note_on_c, 0, 76, 0
2, 48000, Note_on_c, 0, 72, 48
2, 48048, Note_on_c, 0, 72, 0
2, 48060, Note_on_c, 0, 71, 48
2, 48108, Note_on_c, 0, 71, 0
2, 48120, Note_on_c, 0, 70, 80
2, 48156, Note_on_c, 0, 70, 0
2, 48240, Note_on_c, 0, 79, 48
2, 48288, Note_on_c, 0, 79, 0
2, 48300, Note_on_c, 0, 76, 53
2, 48348, Note_on_c, 0, 76, 0
2, 48360, Note_on_c, 0, 72, 59
2, 48408, Note_on_c, 0, 72, 0
2, 48420, Note_on_c, 0, 71, 64
2, 48468, Note_on_c, 0, 71, 0
2, 48480, Note_on_c, 0, 70, 80
2, 48552, Note_on_c, 0, 70, 0
2, 48600, Note_on_c, 0, 71, 96
2, 48912, Note_on_c, 0, 71, 0
2, 48930, Note_on_c, 0, 79, 80
2, 48954, Note_on_c, 0, 79, 0
2, 48960, Note_on_c, 0, 78, 72
2, 48972, Note_on_c, 0, 78, 0
2, 48990, Note_on_c, 0, 79, 69
2, 49002, Note_on_c, 0, 79, 0
2, 49020, Note_on_c, 0, 78, 67
2, 49032, Note_on_c, 0, 78, 0
2, 49050, Note_on_c, 0, 79, 64
2, 49062, Note_on_c, 0, 79, 0
2, 49080, Note_on_c, 0, 78, 61
2, 49092, Note_on_c, 0, 78, 0
2, 49110, Note_on_c, 0, 79, 59
2, 49122, Note_on_c, 0, 79, 0
2, 49140, Note_on_c, 0, 78, 56
2, 49152, Note_on_c, 0, 78, 0
2, 49170, Note_on_c, 0, 79, 53
2, 49182, Note_on_c, 0, 79, 0
2, 49200, Note_on_c, 0, 78, 51
2, 49208, Note_on_c, 0, 78, 0
2, 49220, Note_on_c, 0, 79, 49
2, 49228, Note_on_c, 0, 79, 0
2, 49240, Note_on_c, 0, 78, 47
2, 49248, Note_on_c, 0, 78, 0
2, 49260, Note_on_c, 0, 76, 45
2, 49272, Note_on_c, 0, 76, 0
2, 49290, Note_on_c, 0, 78, 43
2, 49302, Note_on_c, 0, 78, 0
2, 49320, Note_on_c, 0, 76, 40
2, 49368, Note_on_c, 0, 76, 0
2, 49560, Note_on_c, 0, 67, 40
2, 49596, Note_on_c, 0, 67, 0
2, 49680, Note_on_c, 0, 68, 40
2, 49716, Note_on_c, 0, 68, 0
2, 49800, Note_on_c, 0, 69, 51
2, 49836, Note_on_c, 0, 69, 0
2, 49920, Note_on_c, 0, 70, 61
2, 49956, Note_on_c, 0, 70, 0
2, 50040, Note_on_c, 0, 71, 72
2, 50076, Note_on_c, 0, 71, 0
2, 50160, Note_on_c, 0, 72, 61
2, 50196, Note_on_c, 0, 72, 0
2, 50280, Note_on_c, 0, 70, 51
2, 50400, Note_on_c, 0, 70, 0
2, 50400, Note_on_c, 0, 71, 40
2, 50436, Note_on_c, 0, 71, 0
2, 50640, Note_on_c, 0, 71, 40
2, 50676, Note_on_c, 0, 71, 0
2, 50760, Note_on_c, 0, 64, 40
2, 50796, Note_on_c, 0, 64, 0
2, 51000, Note_on_c, 0, 78, 80
2, 51000, Note_on_c, 0, 81, 80
2, 51000, Note_on_c, 0, 87, 80
2, 51048, Note_on_c, 0, 87, 0
2, 51048, Note_on_c, 0, 81, 0
2, 51048, Note_on_c, 0, 78, 0
2, 51120, Note_on_c, 0, 76, 80
2, 51120, Note_on_c, 0, 79, 80
2, 51120, Note_on_c, 0, 88, 80
2, 51168, Note_on_c, 0, 88, 0
2, 51168, Note_on_c, 0, 79, 0
2, 51168, Note_on_c, 0, 76, 0
2, 51360, Note_on_c, 0, 69, 56
2, 51408, Note_on_c, 0, 69, 0
2, 51480, Note_on_c, 0, 62, 56
2, 51528, Note_on_c, 0, 62, 0
2, 51720, Note_on_c, 0, 76, 80
2, 51720, Note_on_c, 0, 79, 80
2, 51720, Note_on_c, 0, 85, 80
2, 51768, Note_on_c, 0, 85, 0
2, 51768, Note_on_c, 0, 79, 0
2, 51768, Note_on_c, 0, 76, 0
2, 51840, Note_on_c, 0, 74, 80
2, 51840, Note_on_c, 0, 78, 80
2, 51840, Note_on_c, 0, 86, 80
2, 51924, Note_on_c, 0, 86, 0
2, 51924, Note_on_c, 0, 78, 0
2, 51924, Note_on_c, 0, 74, 0
2, 52080, Note_on_c, 0, 67, 40
2, 52128, Note_on_c, 0, 67, 0
2, 52200, Note_on_c, 0, 60, 40
2, 52248, Note_on_c, 0, 60, 0
2, 52440, Note_on_c, 0, 74, 80
2, 52440, Note_on_c, 0, 77, 80
2, 52440, Note_on_c, 0, 83, 80
2, 52488, Note_on_c, 0, 83, 0
2, 52488, Note_on_c, 0, 77, 0
2, 52488, Note_on_c, 0, 74, 0
2, 52560, Note_on_c, 0, 76, 80
2, 52560, Note_on_c, 0, 79, 80
2, 52560, Note_on_c, 0, 84, 80
2, 52680, Note_on_c, 0, 84, 0
2, 52680, Note_on_c, 0, 79, 0
2, 52680, Note_on_c, 0, 76, 0
2, 52800, Note_on_c, 0, 75, 40
2, 52920, Note_on_c, 0, 75, 0
2, 52920, Note_on_c, 0, 76, 40
2, 53040, Note_on_c, 0, 76, 0
2, 53040, Note_on_c, 0, 71, 48
2, 53160, Note_on_c, 0, 71, 0
2, 53160, Note_on_c, 0, 72, 56
2, 53280, Note_on_c, 0, 72, 0
2, 53280, Note_on_c, 0, 68, 64
2, 53400, Note_on_c, 0, 68, 0
2, 53400, Note_on_c, 0, 69, 69
2, 53520, Note_on_c, 0, 69, 0
2, 53520, Note_on_c, 0, 64, 75
2, 53640, Note_on_c, 0, 64, 0
2, 53640, Note_on_c, 0, 67, 80
2, 54000, Note_on_c, 0, 67, 0
2, 54000, Note_on_c, 0, 66, 56
2, 54120, Note_on_c, 0, 66, 0
2, 54240, Note_on_c, 0, 78, 40
2, 54360, Note_on_c, 0, 78, 0
2, 54360, Note_on_c, 0, 79, 40
2, 54480, Note_on_c, 0, 79, 0
2, 54480, Note_on_c, 0, 75, 48
2, 54600, Note_on_c, 0, 75, 0
2, 54600, Note_on_c, 0, 76, 56
2, 54720, Note_on_c, 0, 76, 0
2, 54720, Note_on_c, 0, 71, 64
2, 54840, Note_on_c, 0, 71, 0
2, 54840, Note_on_c, 0, 72, 69
2, 54960, Note_on_c, 0, 72, 0
2, 54960, Note_on_c, 0, 67, 75
2, 55080, Note_on_c, 0, 67, 0
2, 55080, Note_on_c, 0, 71, 80
2, 55440, Note_on_c, 0, 71, 0
2, 55440, Note_on_c, 0, 69, 64
2, 55560, Note_on_c, 0, 69, 0
2, 56640, Note_on_c, 0, 76, 40
2, 56640, Note_on_c, 0, 79, 40
2, 56688, Note_on_c, 0, 79, 0
2, 56688, Note_on_c, 0, 76, 0
2, 56760, Note_on_c, 0, 77, 48
2, 56760, Note_on_c, 0, 80, 48
2, 56808, Note_on_c, 0, 80, 0
2, 56808, Note_on_c, 0, 77, 0
2, 56880, Note_on_c, 0, 76, 64
2, 56880, Note_on_c, 0, 81, 64
2, 56976, Note_on_c, 0, 81, 0
2, 56976, Note_on_c, 0, 76, 0
2, 57000, Note_on_c, 0, 69, 80
2, 57000, Note_on_c, 0, 76, 80
2, 57048, Note_on_c, 0, 76, 0
2, 57048, Note_on_c, 0, 69, 0
2, 57120, Note_on_c, 0, 79, 80
2, 57120, Note_on_c, 0, 70, 80
2, 57168, Note_on_c, 0, 70, 0
2, 57168, Note_on_c, 0, 79, 0
2, 57240, Note_on_c, 0, 69, 80
2, 57240, Note_on_c, 0, 78, 80
2, 57336, Note_on_c, 0, 78, 0
2, 57336, Note_on_c, 0, 69, 0
2, 57360, Note_on_c, 0, 74, 80
2, 57456, Note_on_c, 0, 74, 0
2, 57480, Note_on_c, 0, 73, 72
2, 57576, Note_on_c, 0, 73, 0
2, 57600, Note_on_c, 0, 74, 64
2, 57696, Note_on_c, 0, 74, 0
2, 57720, Note_on_c, 0, 73, 56
2, 57816, Note_on_c, 0, 73, 0
2, 57840, Note_on_c, 0, 74, 48
2, 57936, Note_on_c, 0, 74, 0
2, 57960, Note_on_c, 0, 66, 40
2, 57960, Note_on_c, 0, 69, 40
2, 58272, Note_on_c, 0, 69, 0
2, 58272, Note_on_c, 0, 66, 0
2, 58290, Note_on_c, 0, 72, 40
2, 58314, Note_on_c, 0, 72, 0
2, 58320, Note_on_c, 0, 70, 40
2, 58344, Note_on_c, 0, 70, 0
2, 58350, Note_on_c, 0, 72, 42
2, 58374, Note_on_c, 0, 72, 0
2, 58380, Note_on_c, 0, 70, 44
2, 58404, Note_on_c, 0, 70, 0
2, 58410, Note_on_c, 0, 72, 46
2, 58434, Note_on_c, 0, 72, 0
2, 58440, Note_on_c, 0, 70, 48
2, 58464, Note_on_c, 0, 70, 0
2, 58470, Note_on_c, 0, 72, 50
2, 58494, Note_on_c, 0, 72, 0
2, 58500, Note_on_c, 0, 70, 52
2, 58524, Note_on_c, 0, 70, 0
2, 58530, Note_on_c, 0, 72, 54
2, 58554, Note_on_c, 0, 72, 0
2, 58560, Note_on_c, 0, 70, 56
2, 58576, Note_on_c, 0, 70, 0
2, 58580, Note_on_c, 0, 72, 57
2, 58596, Note_on_c, 0, 72, 0
2, 58600, Note_on_c, 0, 70, 59
2, 58616, Note_on_c, 0, 70, 0
2, 58620, Note_on_c, 0, 69, 60
2, 58644, Note_on_c, 0, 69, 0
2, 58650, Note_on_c, 0, 70, 62
2, 58674, Note_on_c, 0, 70, 0
2, 58680, Note_on_c, 0, 66, 64
2, 58680, Note_on_c, 0, 69, 64
2, 58776, Note_on_c, 0, 69, 0
2, 58776, Note_on_c, 0, 66, 0
2, 58800, Note_on_c, 0, 81, 61
2, 58896, Note_on_c, 0, 81, 0
2, 58920, Note_on_c, 0, 80, 59
2, 59016, Note_on_c, 0, 80, 0
2, 59040, Note_on_c, 0, 81, 56
2, 59136, Note_on_c, 0, 81, 0
2, 59160, Note_on_c, 0, 80, 51
2, 59256, Note_on_c, 0, 80, 0
2, 59280, Note_on_c, 0, 81, 45
2, 59376, Note_on_c, 0, 81, 0
2, 59400, Note_on_c, 0, 79, 40
2, 59592, Note_on_c, 0, 79, 0
2, 59640, Note_on_c, 0, 82, 40
2, 59712, Note_on_c, 0, 82, 0
2, 59730, Note_on_c, 0, 74, 40
2, 59754, Note_on_c, 0, 74, 0
2, 59760, Note_on_c, 0, 73, 40
2, 59784, Note_on_c, 0, 73, 0
2, 59790, Note_on_c, 0, 74, 42
2, 59814, Note_on_c, 0, 74, 0
2, 59820, Note_on_c, 0, 73, 44
2, 59844, Note_on_c, 0, 73, 0
2, 59850, Note_on_c, 0, 74, 46
2, 59874, Note_on_c, 0, 74, 0
2, 59880, Note_on_c, 0, 73, 48
2, 59904, Note_on_c, 0, 73, 0
2, 59910, Note_on_c, 0, 74, 50
2, 59934, Note_on_c, 0, 74, 0
2, 59940, Note_on_c, 0, 73, 52
2, 59964, Note_on_c, 0, 73, 0
2, 59970, Note_on_c, 0, 74, 54
2, 59994, Note_on_c, 0, 74, 0
2, 60000, Note_on_c, 0, 73, 56
2, 60016, Note_on_c, 0, 73, 0
2, 60020, Note_on_c, 0, 74, 57
2, 60036, Note_on_c, 0, 74, 0
2, 60040, Note_on_c, 0, 73, 59
2, 60056, Note_on_c, 0, 73, 0
2, 60060, Note_on_c, 0, 71, 60
2, 60084, Note_on_c, 0, 71, 0
2, 60090, Note_on_c, 0, 73, 62
2, 60114, Note_on_c, 0, 73, 0
2, 60120, Note_on_c, 0, 74, 64
2, 60180, Note_on_c, 0, 74, 0
2, 60180, Note_on_c, 0, 75, 60
2, 60240, Note_on_c, 0, 75, 0
2, 60240, Note_on_c, 0, 76, 56
2, 60300, Note_on_c, 0, 76, 0
2, 60300, Note_on_c, 0, 77, 52
2, 60360, Note_on_c, 0, 77, 0
2, 60360, Note_on_c, 0, 78, 48
2, 60420, Note_on_c, 0, 78, 0
2, 60420, Note_on_c, 0, 79, 44
2, 60480, Note_on_c, 0, 79, 0
2, 60480, Note_on_c, 0, 80, 40
2, 60540, Note_on_c, 0, 80, 0
2, 60540, Note_on_c, 0, 81, 37
2, 60600, Note_on_c, 0, 81, 0
2, 60600, Note_on_c, 0, 82, 35
2, 60660, Note_on_c, 0, 82, 0
2, 60660, Note_on_c, 0, 83, 32
2, 60720, Note_on_c, 0, 83, 0
2, 60720, Note_on_c, 0, 84, 29
2, 60780, Note_on_c, 0, 84, 0
2, 60780, Note_on_c, 0, 85, 27
2, 60840, Note_on_c, 0, 85, 0
2, 60840, Note_on_c, 0, 86, 24
2, 60960, Note_on_c, 0, 86, 0
2, 61560, Note_on_c, 0, 71, 80
2, 61560, Note_on_c, 0, 67, 80
2, 61800, Note_on_c, 0, 67, 0
2, 61800, Note_on_c, 0, 71, 0
2, 61800, Note_on_c, 0, 72, 64
2, 61800, Note_on_c, 0, 69, 64
2, 61824, Note_on_c, 0, 72, 0
2, 61824, Note_on_c, 0, 74, 64
2, 61848, Note_on_c, 0, 74, 0
2, 61848, Note_on_c, 0, 72, 64
2, 61872, Note_on_c, 0, 72, 0
2, 61872, Note_on_c, 0, 71, 64
2, 61896, Note_on_c, 0, 71, 0
2, 61896, Note_on_c, 0, 72, 64
2, 61920, Note_on_c, 0, 72, 0
2, 61920, Note_on_c, 0, 69, 0
2, 61920, Note_on_c, 0, 74, 64
2, 61920, Note_on_c, 0, 71, 64
2, 61968, Note_on_c, 0, 71, 0
2, 61968, Note_on_c, 0, 74, 0
2, 62160, Note_on_c, 0, 74, 64
2, 62160, Note_on_c, 0, 71, 64
2, 62256, Note_on_c, 0, 71, 0
2, 62256, Note_on_c, 0, 74, 0
2, 62280, Note_on_c, 0, 79, 80
2, 62280, Note_on_c, 0, 76, 80
2, 62472, Note_on_c, 0, 76, 0
2, 62472, Note_on_c, 0, 79, 0
2, 62520, Note_on_c, 0, 74, 64
2, 62520, Note_on_c, 0, 78, 64
2, 62556, Note_on_c, 0, 78, 0
2, 62568, Note_on_c, 0, 74, 0
2, 62610, Note_on_c, 0, 78, 64
2, 62639, Note_on_c, 0, 78, 0
2, 62640, Note_on_c, 0, 76, 64
2, 62640, Note_on_c, 0, 72, 64
2, 62832, Note_on_c, 0, 72, 0
2, 62832, Note_on_c, 0, 76, 0
2, 62880, Note_on_c, 0, 74, 64
2, 62880, Note_on_c, 0, 71, 64
2, 62976, Note_on_c, 0, 71, 0
2, 62976, Note_on_c, 0, 74, 0
2, 63000, Note_on_c, 0, 67, 80
2, 63000, Note_on_c, 0, 71, 80
2, 63192, Note_on_c, 0, 71, 0
2, 63192, Note_on_c, 0, 67, 0
2, 63240, Note_on_c, 0, 69, 64
2, 63240, Note_on_c, 0, 72, 64
2, 63259, Note_on_c, 0, 72, 0
2, 63264, Note_on_c, 0, 74, 64
2, 63283, Note_on_c, 0, 74, 0
2, 63288, Note_on_c, 0, 72, 64
2, 63307, Note_on_c, 0, 72, 0
2, 63312, Note_on_c, 0, 71, 64
2, 63331, Note_on_c, 0, 71, 0
2, 63336, Note_on_c, 0, 69, 0
2, 63336, Note_on_c, 0, 72, 64
2, 63355, Note_on_c, 0, 72, 0
2, 63360, Note_on_c, 0, 71, 64
2, 63360, Note_on_c, 0, 74, 64
2, 63408, Note_on_c, 0, 74, 0
2, 63408, Note_on_c, 0, 71, 0
2, 63600, Note_on_c, 0, 71, 64
2, 63600, Note_on_c, 0, 74, 64
2, 63696, Note_on_c, 0, 74, 0
2, 63696, Note_on_c, 0, 71, 0
2, 63720, Note_on_c, 0, 72, 80
2, 63720, Note_on_c, 0, 76, 80
2, 63912, Note_on_c, 0, 76, 0
2, 63912, Note_on_c, 0, 72, 0
2, 63960, Note_on_c, 0, 71, 64
2, 63960, Note_on_c, 0, 74, 64
2, 63996, Note_on_c, 0, 74, 0
2, 64008, Note_on_c, 0, 71, 0
2, 64050, Note_on_c, 0, 74, 64
2, 64074, Note_on_c, 0, 74, 0
2, 64080, Note_on_c, 0, 69, 64
2, 64080, Note_on_c, 0, 72, 64
2, 64272, Note_on_c, 0, 72, 0
2, 64272, Note_on_c, 0, 69, 0
2, 64320, Note_on_c, 0, 67, 64
2, 64320, Note_on_c, 0, 71, 64
2, 64356, Note_on_c, 0, 71, 0
2, 64356, Note_on_c, 0, 67, 0
2, 64440, Note_on_c, 0, 62, 48
2, 64488, Note_on_c, 0, 62, 0
2, 64500, Note_on_c, 0, 67, 49
2, 64548, Note_on_c, 0, 67, 0
2, 64560, Note_on_c, 0, 66, 51
2, 64608, Note_on_c, 0, 66, 0
2, 64620, Note_on_c, 0, 67, 52
2, 64668, Note_on_c, 0, 67, 0
2, 64680, Note_on_c, 0, 71, 53
2, 64728, Note_on_c, 0, 71, 0
2, 64740, Note_on_c, 0, 67, 55
2, 64788, Note_on_c, 0, 67, 0
2, 64800, Note_on_c, 0, 64, 56
2, 64848, Note_on_c, 0, 64, 0
2, 64860, Note_on_c, 0, 69, 57
2, 64908, Note_on_c, 0, 69, 0
2, 64920, Note_on_c, 0, 68, 59
2, 64968, Note_on_c, 0, 68, 0
2, 64980, Note_on_c, 0, 69, 60
2, 65028, Note_on_c, 0, 69, 0
2, 65040, Note_on_c, 0, 72, 61
2, 65088, Note_on_c, 0, 72, 0
2, 65100, Note_on_c, 0, 69, 63
2, 65148, Note_on_c, 0, 69, 0
2, 65160, Note_on_c, 0, 66, 64
2, 65208, Note_on_c, 0, 66, 0
2, 65220, Note_on_c, 0, 71, 65
2, 65268, Note_on_c, 0, 71, 0
2, 65280, Note_on_c, 0, 69, 67
2, 65328, Note_on_c, 0, 69, 0
2, 65340, Note_on_c, 0, 71, 68
2, 65388, Note_on_c, 0, 71, 0
2, 65400, Note_on_c, 0, 74, 69
2, 65448, Note_on_c, 0, 74, 0
2, 65460, Note_on_c, 0, 71, 71
2, 65508, Note_on_c, 0, 71, 0
2, 65520, Note_on_c, 0, 67, 72
2, 65568, Note_on_c, 0, 67, 0
2, 65580, Note_on_c, 0, 72, 73
2, 65628, Note_on_c, 0, 72, 0
2, 65640, Note_on_c, 0, 71, 75
2, 65688, Note_on_c, 0, 71, 0
2, 65700, Note_on_c, 0, 72, 76
2, 65748, Note_on_c, 0, 72, 0
2, 65760, Note_on_c, 0, 76, 77
2, 65808, Note_on_c, 0, 76, 0
2, 65820, Note_on_c, 0, 72, 79
2, 65868, Note_on_c, 0, 72, 0
2, 65880, Note_on_c, 0, 74, 80
2, 65940, Note_on_c, 0, 74, 0
2, 66120, Note_on_c, 0, 84, 48
2, 66120, Note_on_c, 0, 81, 48
2, 66240, Note_on_c, 0, 81, 0
2, 66240, Note_on_c, 0, 84, 0
2, 66240, Note_on_c, 0, 83, 48
2, 66240, Note_on_c, 0, 79, 48
2, 66276, Note_on_c, 0, 79, 0
2, 66276, Note_on_c, 0, 83, 0
2, 66480, Note_on_c, 0, 74, 48
2, 66480, Note_on_c, 0, 71, 48
2, 66600, Note_on_c, 0, 71, 0
2, 66600, Note_on_c, 0, 74, 0
2, 66600, Note_on_c, 0, 72, 48
2, 66600, Note_on_c, 0, 69, 48
2, 66636, Note_on_c, 0, 69, 0
2, 66636, Note_on_c, 0, 72, 0
2, 66840, Note_on_c, 0, 78, 48
2, 66840, Note_on_c, 0, 72, 48
2, 66960, Note_on_c, 0, 72, 0
2, 66960, Note_on_c, 0, 78, 0
2, 66960, Note_on_c, 0, 79, 48
2, 66960, Note_on_c, 0, 71, 48
2, 66996, Note_on_c, 0, 71, 0
2, 66996, Note_on_c, 0, 79, 0
2, 67200, Note_on_c, 0, 71, 48
2, 67200, Note_on_c, 0, 67, 48
2, 67236, Note_on_c, 0, 67, 0
2, 67236, Note_on_c, 0, 71, 0
2, 67320, Note_on_c, 0, 69, 48
2, 67368, Note_on_c, 0, 69, 0
2, 67380, Note_on_c, 0, 68, 53
2, 67428, Note_on_c, 0, 68, 0
2, 67440, Note_on_c, 0, 71, 59
2, 67488, Note_on_c, 0, 71, 0
2, 67500, Note_on_c, 0, 69, 64
2, 67548, Note_on_c, 0, 69, 0
2, 67560, Note_on_c, 0, 72, 69
2, 67608, Note_on_c, 0, 72, 0
2, 67620, Note_on_c, 0, 71, 75
2, 67668, Note_on_c, 0, 71, 0
2, 67680, Note_on_c, 0, 74, 80
2, 67728, Note_on_c, 0, 74, 0
2, 67740, Note_on_c, 0, 72, 80
2, 67788, Note_on_c, 0, 72, 0
2, 67800, Note_on_c, 0, 76, 80
2, 68160, Note_on_c, 0, 76, 0
2, 68160, Note_on_c, 0, 72, 72
2, 68520, Note_on_c, 0, 72, 0
2, 68520, Note_on_c, 0, 71, 64
2, 68880, Note_on_c, 0, 71, 0
2, 68880, Note_on_c, 0, 69, 56
2, 69240, Note_on_c, 0, 69, 0
2, 69240, Note_on_c, 0, 67, 52
2, 69600, Note_on_c, 0, 67, 0
2, 69600, Note_on_c, 0, 66, 48
2, 69960, Note_on_c, 0, 66, 0
2, 69960, Note_on_c, 0, 67, 59
2, 70080, Note_on_c, 0, 67, 0
2, 70080, Note_on_c, 0, 69, 69
2, 70200, Note_on_c, 0, 69, 0
2, 70200, Note_on_c, 0, 71, 80
2, 70200, Note_on_c, 0, 65, 80
2, 70200, Note_on_c, 0, 62, 80
2, 70488, Note_on_c, 0, 62, 0
2, 70488, Note_on_c, 0, 65, 0
2, 70488, Note_on_c, 0, 71, 0
2, 70560, Note_on_c, 0, 64, 80
2, 70608, Note_on_c, 0, 64, 0
2, 70620, Note_on_c, 0, 67, 80
2, 70668, Note_on_c, 0, 67, 0
2, 70680, Note_on_c, 0, 72, 80
2, 70728, Note_on_c, 0, 72, 0
2, 70740, Note_on_c, 0, 67, 80
2, 70788, Note_on_c, 0, 67, 0
2, 70800, Note_on_c, 0, 76, 80
2, 70812, Note_on_c, 0, 76, 0
2, 70860, Note_on_c, 0, 72, 80
2, 70872, Note_on_c, 0, 72, 0
2, 70920, Note_on_c, 0, 78, 80
2, 70920, Note_on_c, 0, 72, 80
2, 70920, Note_on_c, 0, 69, 80
2, 71208, Note_on_c, 0, 69, 0
2, 71208, Note_on_c, 0, 72, 0
2, 71208, Note_on_c, 0, 78, 0
2, 71280, Note_on_c, 0, 79, 80
2, 71328, Note_on_c, 0, 79, 0
2, 71340, Note_on_c, 0, 83, 80
2, 71388, Note_on_c, 0, 83, 0
2, 71400, Note_on_c, 0, 79, 80
2, 71448, Note_on_c, 0, 79, 0
2, 71460, Note_on_c, 0, 74, 80
2, 71508, Note_on_c, 0, 74, 0
2, 71520, Note_on_c, 0, 71, 80
2, 71532, Note_on_c, 0, 71, 0
2, 71580, Note_on_c, 0, 67, 80
2, 71592, Note_on_c, 0, 67, 0
2, 71640, Note_on_c, 0, 71, 80
2, 71640, Note_on_c, 0, 65, 80
2, 71640, Note_on_c, 0, 62, 80
2, 71928, Note_on_c, 0, 62, 0
2, 71928, Note_on_c, 0, 65, 0
2, 71928, Note_on_c, 0, 71, 0
2, 72000, Note_on_c, 0, 64, 80
2, 72048, Note_on_c, 0, 64, 0
2, 72060, Note_on_c, 0, 67, 80
2, 72108, Note_on_c, 0, 67, 0
2, 72120, Note_on_c, 0, 72, 80
2, 72168, Note_on_c, 0, 72, 0
2, 72180, Note_on_c, 0, 67, 80
2, 72228, Note_on_c, 0, 67, 0
2, 72240, Note_on_c, 0, 76, 80
2, 72252, Note_on_c, 0, 76, 0
2, 72300, Note_on_c, 0, 72, 80
2, 72312, Note_on_c, 0, 72, 0
2, 72360, Note_on_c, 0, 78, 80
2, 72360, Note_on_c, 0, 72, 80
2, 72360, Note_on_c, 0, 69, 80
2, 72648, Note_on_c, 0, 69, 0
2, 72648, Note_on_c, 0, 72, 0
2, 72648, Note_on_c, 0, 78, 0
2, 72720, Note_on_c, 0, 79, 80
2, 72768, Note_on_c, 0, 79, 0
2, 72780, Note_on_c, 0, 81, 77
2, 72828, Note_on_c, 0, 81, 0
2, 72840, Note_on_c, 0, 83, 75
2, 72888, Note_on_c, 0, 83, 0
2, 72900, Note_on_c, 0, 79, 72
2, 72912, Note_on_c, 0, 79, 0
2, 72960, Note_on_c, 0, 78, 69
2, 73020, Note_on_c, 0, 78, 0
2, 73020, Note_on_c, 0, 75, 67
2, 73080, Note_on_c, 0, 75, 0
2, 73080, Note_on_c, 0, 76, 64
2, 73272, Note_on_c, 0, 76, 0
2, 73320, Note_on_c, 0, 74, 64
2, 73356, Note_on_c, 0, 74, 0
2, 73440, Note_on_c, 0, 74, 64
2, 73536, Note_on_c, 0, 74, 0
2, 73560, Note_on_c, 0, 72, 64
2, 73656, Note_on_c, 0, 72, 0
2, 73680, Note_on_c, 0, 71, 64
2, 73776, Note_on_c, 0, 71, 0
2, 73800, Note_on_c, 0, 71, 64
2, 73896, Note_on_c, 0, 71, 0
2, 73920, Note_on_c, 0, 69, 64
2, 74016, Note_on_c, 0, 69, 0
2, 74040, Note_on_c, 0, 71, 64
2, 74136, Note_on_c, 0, 71, 0
2, 74160, Note_on_c, 0, 74, 64
2, 74256, Note_on_c, 0, 74, 0
2, 74280, Note_on_c, 0, 72, 64
2, 74376, Note_on_c, 0, 72, 0
2, 74400, Note_on_c, 0, 71, 64
2, 74496, Note_on_c, 0, 71, 0
2, 74520, Note_on_c, 0, 71, 48
2, 74616, Note_on_c, 0, 71, 0
2, 74640, Note_on_c, 0, 69, 48
2, 74736, Note_on_c, 0, 69, 0
2, 74760, Note_on_c, 0, 71, 48
2, 74856, Note_on_c, 0, 71, 0
2, 74880, Note_on_c, 0, 74, 48
2, 74976, Note_on_c, 0, 74, 0
2, 75000, Note_on_c, 0, 72, 48
2, 75096, Note_on_c, 0, 72, 0
2, 75120, Note_on_c, 0, 71, 48
2, 75216, Note_on_c, 0, 71, 0
2, 75240, Note_on_c, 0, 69, 48
2, 75336, Note_on_c, 0, 69, 0
2, 75360, Note_on_c, 0, 86, 40
2, 75360, Note_on_c, 0, 81, 40
2, 75360, Note_on_c, 0, 78, 40
2, 75384, Note_on_c, 0, 78, 0
2, 75384, Note_on_c, 0, 81, 0
2, 75384, Note_on_c, 0, 86, 0
2, 75480, Note_on_c, 0, 86, 40
2, 75480, Note_on_c, 0, 81, 40
2, 75480, Note_on_c, 0, 78, 40
2, 75504, Note_on_c, 0, 78, 0
2, 75504, Note_on_c, 0, 81, 0
2, 75504, Note_on_c, 0, 86, 0
2, 75600, Note_on_c, 0, 86, 40
2, 75600, Note_on_c, 0, 81, 40
2, 75600, Note_on_c, 0, 78, 40
2, 75624, Note_on_c, 0, 78, 0
2, 75624, Note_on_c, 0, 81, 0
2, 75624, Note_on_c, 0, 86, 0
2, 75960, Note_on_c, 0, 86, 40
2, 76080, Note_on_c, 0, 86, 0
2, 76080, Note_on_c, 0, 85, 45
2, 76200, Note_on_c, 0, 85, 0
2, 76200, Note_on_c, 0, 88, 51
2, 76320, Note_on_c, 0, 88, 0
2, 76320, Note_on_c, 0, 86, 56
2, 76440, Note_on_c, 0, 86, 0
2, 76440, Note_on_c, 0, 85, 61
2, 76560, Note_on_c, 0, 85, 0
2, 76560, Note_on_c, 0, 88, 67
2, 76680, Note_on_c, 0, 88, 0
2, 76680, Note_on_c, 0, 79, 72
2, 76680, Note_on_c, 0, 86, 72
2, 76800, Note_on_c, 0, 79, 0
2, 76800, Note_on_c, 0, 78, 67
2, 76920, Note_on_c, 0, 78, 0
2, 76920, Note_on_c, 0, 81, 61
2, 77040, Note_on_c, 0, 81, 0
2, 77040, Note_on_c, 0, 79, 56
2, 77160, Note_on_c, 0, 79, 0
2, 77160, Note_on_c, 0, 78, 51
2, 77280, Note_on_c, 0, 78, 0
2, 77280, Note_on_c, 0, 81, 45
2, 77400, Note_on_c, 0, 81, 0
2, 77400, Note_on_c, 0, 79, 40
2, 77496, Note_on_c, 0, 79, 0
2, 77496, Note_on_c, 0, 86, 0
2, 77640, Note_on_c, 0, 83, 40
2, 77700, Note_on_c, 0, 83, 0
2, 77700, Note_on_c, 0, 79, 40
2, 77760, Note_on_c, 0, 79, 0
2, 77760, Note_on_c, 0, 84, 40
2, 77808, Note_on_c, 0, 84, 0
2, 78000, Note_on_c, 0, 81, 40
2, 78060, Note_on_c, 0, 81, 0
2, 78060, Note_on_c, 0, 78, 40
2, 78120, Note_on_c, 0, 78, 0
2, 78120, Note_on_c, 0, 79, 40
2, 78168, Note_on_c, 0, 79, 0
2, 78360, Note_on_c, 0, 74, 40
2, 78408, Note_on_c, 0, 74, 0
2, 78420, Note_on_c, 0, 83, 40
2, 78468, Note_on_c, 0, 83, 0
2, 78480, Note_on_c, 0, 81, 40
2, 78528, Note_on_c, 0, 81, 0
2, 78600, Note_on_c, 0, 81, 40
2, 78660, Note_on_c, 0, 81, 0
2, 78660, Note_on_c, 0, 84, 40
2, 78720, Note_on_c, 0, 84, 0
2, 78720, Note_on_c, 0, 83, 40
2, 78780, Note_on_c, 0, 83, 0
2, 78780, Note_on_c, 0, 86, 40
2, 78840, Note_on_c, 0, 86, 0
2, 78840, Note_on_c, 0, 84, 40
2, 78960, Note_on_c, 0, 84, 0
2, 78960, Note_on_c, 0, 83, 45
2, 79080, Note_on_c, 0, 83, 0
2, 79080, Note_on_c, 0, 86, 51
2, 79200, Note_on_c, 0, 86, 0
2, 79200, Note_on_c, 0, 84, 56
2, 79320, Note_on_c, 0, 84, 0
2, 79320, Note_on_c, 0, 83, 61
2, 79440, Note_on_c, 0, 83, 0
2, 79440, Note_on_c, 0, 86, 67
2, 79560, Note_on_c, 0, 86, 0
2, 79560, Note_on_c, 0, 78, 72
2, 79560, Note_on_c, 0, 84, 72
2, 79680, Note_on_c, 0, 78, 0
2, 79680, Note_on_c, 0, 76, 67
2, 79800, Note_on_c, 0, 76, 0
2, 79800, Note_on_c, 0, 79, 61
2, 79920, Note_on_c, 0, 79, 0
2, 79920, Note_on_c, 0, 78, 56
2, 80040, Note_on_c, 0, 78, 0
2, 80040, Note_on_c, 0, 76, 51
2, 80160, Note_on_c, 0, 76, 0
2, 80160, Note_on_c, 0, 79, 45
2, 80280, Note_on_c, 0, 79, 0
2, 80280, Note_on_c, 0, 78, 40
2, 80376, Note_on_c, 0, 78, 0
2, 80376, Note_on_c, 0, 84, 0
2, 80520, Note_on_c, 0, 81, 40
2, 80568, Note_on_c, 0, 81, 0
2, 80580, Note_on_c, 0, 78, 40
2, 80628, Note_on_c, 0, 78, 0
2, 80640, Note_on_c, 0, 79, 40
2, 80688, Note_on_c, 0, 79, 0
2, 80880, Note_on_c, 0, 74, 40
2, 80928, Note_on_c, 0, 74, 0
2, 80940, Note_on_c, 0, 83, 40
2, 80988, Note_on_c, 0, 83, 0
2, 81000, Note_on_c, 0, 81, 40
2, 81048, Note_on_c, 0, 81, 0
2, 81240, Note_on_c, 0, 74, 40
2, 81288, Note_on_c, 0, 74, 0
2, 81300, Note_on_c, 0, 84, 40
2, 81348, Note_on_c, 0, 84, 0
2, 81360, Note_on_c, 0, 83, 40
2, 81408, Note_on_c, 0, 83, 0
2, 81480, Note_on_c, 0, 83, 51
2, 81480, Note_on_c, 0, 79, 51
2, 81528, Note_on_c, 0, 83, 0
2, 81540, Note_on_c, 0, 86, 56
2, 81576, Note_on_c, 0, 79, 0
2, 81588, Note_on_c, 0, 86, 0
2, 81600, Note_on_c, 0, 84, 61
2, 81600, Note_on_c, 0, 81, 61
2, 81648, Note_on_c, 0, 84, 0
2, 81660, Note_on_c, 0, 88, 67
2, 81696, Note_on_c, 0, 81, 0
2, 81708, Note_on_c, 0, 88, 0
2, 81720, Note_on_c, 0, 86, 80
2, 81720, Note_on_c, 0, 83, 80
2, 81768, Note_on_c, 0, 86, 0
2, 81816, Note_on_c, 0, 83, 0
2, 82440, Note_on_c, 0, 64, 80
2, 82440, Note_on_c, 0, 76, 80
2, 82560, Note_on_c, 0, 76, 0
2, 82560, Note_on_c, 0, 64, 0
2, 82560, Note_on_c, 0, 63, 80
2, 82560, Note_on_c, 0, 75, 80
2, 82680, Note_on_c, 0, 75, 0
2, 82680, Note_on_c, 0, 63, 0
2, 82680, Note_on_c, 0, 66, 80
2, 82680, Note_on_c, 0, 78, 80
2, 82800, Note_on_c, 0, 78, 0
2, 82800, Note_on_c, 0, 66, 0
2, 82800, Note_on_c, 0, 64, 80
2, 82800, Note_on_c, 0, 76, 80
2, 82836, Note_on_c, 0, 76, 0
2, 82836, Note_on_c, 0, 64, 0
2, 82920, Note_on_c, 0, 60, 80
2, 82920, Note_on_c, 0, 64, 80
2, 82968, Note_on_c, 0, 64, 0
2, 82980, Note_on_c, 0, 67, 80
2, 83016, Note_on_c, 0, 60, 0
2, 83028, Note_on_c, 0, 67, 0
2, 83040, Note_on_c, 0, 62, 80
2, 83040, Note_on_c, 0, 65, 80
2, 83088, Note_on_c, 0, 65, 0
2, 83100, Note_on_c, 0, 69, 80
2, 83136, Note_on_c, 0, 62, 0
2, 83148, Note_on_c, 0, 69, 0
2, 83160, Note_on_c, 0, 67, 80
2, 83160, Note_on_c, 0, 64, 80
2, 83256, Note_on_c, 0, 64, 0
2, 83256, Note_on_c, 0, 67, 0
2, 83880, Note_on_c, 0, 69, 80
2, 83880, Note_on_c, 0, 81, 80
2, 84000, Note_on_c, 0, 81, 0
2, 84000, Note_on_c, 0, 69, 0
2, 84000, Note_on_c, 0, 68, 80
2, 84000, Note_on_c, 0, 80, 80
2, 84120, Note_on_c, 0, 80, 0
2, 84120, Note_on_c, 0, 68, 0
2, 84120, Note_on_c, 0, 71, 80
2, 84120, Note_on_c, 0, 83, 80
2, 84240, Note_on_c, 0, 83, 0
2, 84240, Note_on_c, 0, 71, 0
2, 84240, Note_on_c, 0, 69, 80
2, 84240, Note_on_c, 0, 81, 80
2, 84276, Note_on_c, 0, 81, 0
2, 84276, Note_on_c, 0, 69, 0
2, 84360, Note_on_c, 0, 81, 40
2, 84408, Note_on_c, 0, 81, 0
2, 84420, Note_on_c, 0, 80, 40
2, 84468, Note_on_c, 0, 80, 0
2, 84480, Note_on_c, 0, 83, 40
2, 84528, Note_on_c, 0, 83, 0
2, 84540, Note_on_c, 0, 81, 40
2, 84588, Note_on_c, 0, 81, 0
2, 84600, Note_on_c, 0, 84, 40
2, 84648, Note_on_c, 0, 84, 0
2, 84660, Note_on_c, 0, 81, 40
2, 84708, Note_on_c, 0, 81, 0
2, 84720, Note_on_c, 0, 78, 40
2, 84768, Note_on_c, 0, 78, 0
2, 84780, Note_on_c, 0, 75, 40
2, 84828, Note_on_c, 0, 75, 0
2, 84840, Note_on_c, 0, 74, 80
2, 84888, Note_on_c, 0, 74, 0
2, 84960, Note_on_c, 0, 84, 40
2, 85008, Note_on_c, 0, 84, 0
2, 85020, Note_on_c, 0, 81, 40
2, 85068, Note_on_c, 0, 81, 0
2, 85080, Note_on_c, 0, 78, 40
2, 85128, Note_on_c, 0, 78, 0
2, 85140, Note_on_c, 0, 75, 40
2, 85188, Note_on_c, 0, 75, 0
2, 85200, Note_on_c, 0, 74, 72
2, 85248, Note_on_c, 0, 74, 0
2, 85320, Note_on_c, 0, 84, 40
2, 85368, Note_on_c, 0, 84, 0
2, 85380, Note_on_c, 0, 81, 40
2, 85428, Note_on_c, 0, 81, 0
2, 85440, Note_on_c, 0, 78, 40
2, 85488, Note_on_c, 0, 78, 0
2, 85500, Note_on_c, 0, 75, 40
2, 85548, Note_on_c, 0, 75, 0
2, 85560, Note_on_c, 0, 74, 64
2, 85608, Note_on_c, 0, 74, 0
2, 85680, Note_on_c, 0, 84, 40
2, 85728, Note_on_c, 0, 84, 0
2, 85740, Note_on_c, 0, 81, 40
2, 85788, Note_on_c, 0, 81, 0
2, 85800, Note_on_c, 0, 78, 40
2, 85848, Note_on_c, 0, 78, 0
2, 85860, Note_on_c, 0, 75, 40
2, 85908, Note_on_c, 0, 75, 0
2, 85920, Note_on_c, 0, 74, 56
2, 85968, Note_on_c, 0, 74, 0
2, 86280, Note_on_c, 0, 74, 80
2, 86280, Note_on_c, 0, 71, 80
2, 86280, Note_on_c, 0, 67, 80
2, 86328, Note_on_c, 0, 67, 0
2, 86328, Note_on_c, 0, 71, 0
2, 86328, Note_on_c, 0, 74, 0
2, 86640, Note_on_c, 0, 79, 80
2, 86640, Note_on_c, 0, 72, 80
2, 86640, Note_on_c, 0, 67, 80
2, 86688, Note_on_c, 0, 67, 0
2, 86688, Note_on_c, 0, 72, 0
2, 86688, Note_on_c, 0, 79, 0
2, 86760, Note_on_c, 0, 74, 72
2, 87072, Note_on_c, 0, 74, 0
2, 87090, Note_on_c, 0, 83, 72
2, 87114, Note_on_c, 0, 83, 0
2, 87120, Note_on_c, 0, 81, 72
2, 87144, Note_on_c, 0, 81, 0
2, 87150, Note_on_c, 0, 83, 69
2, 87174, Note_on_c, 0, 83, 0
2, 87180, Note_on_c, 0, 81, 67
2, 87204, Note_on_c, 0, 81, 0
2, 87210, Note_on_c, 0, 83, 64
2, 87234, Note_on_c, 0, 83, 0
2, 87240, Note_on_c, 0, 81, 61
2, 87264, Note_on_c, 0, 81, 0
2, 87270, Note_on_c, 0, 83, 59
2, 87294, Note_on_c, 0, 83, 0
2, 87300, Note_on_c, 0, 81, 56
2, 87324, Note_on_c, 0, 81, 0
2, 87330, Note_on_c, 0, 83, 53
2, 87354, Note_on_c, 0, 83, 0
2, 87360, Note_on_c, 0, 81, 51
2, 87376, Note_on_c, 0, 81, 0
2, 87380, Note_on_c, 0, 83, 49
2, 87396, Note_on_c, 0, 83, 0
2, 87400, Note_on_c, 0, 81, 47
2, 87416, Note_on_c, 0, 81, 0
2, 87420, Note_on_c, 0, 79, 45
2, 87444, Note_on_c, 0, 79, 0
2, 87450, Note_on_c, 0, 81, 43
2, 87474, Note_on_c, 0, 81, 0
2, 87480, Note_on_c, 0, 79, 40
2, 87516, Note_on_c, 0, 79, 0
2, 87720, Note_on_c, 0, 86, 40
2, 87756, Note_on_c, 0, 86, 0
2, 87840, Note_on_c, 0, 84, 40
2, 87960, Note_on_c, 0, 84, 0
2, 87960, Note_on_c, 0, 83, 40
2, 87996, Note_on_c, 0, 83, 0
2, 88080, Note_on_c, 0, 83, 40
2, 88116, Note_on_c, 0, 83, 0
2, 88200, Note_on_c, 0, 83, 40
2, 88236, Note_on_c, 0, 83, 0
2, 88440, Note_on_c, 0, 83, 40
2, 88476, Note_on_c, 0, 83, 0
2, 88560, Note_on_c, 0, 89, 40
2, 88680, Note_on_c, 0, 89, 0
2, 88680, Note_on_c, 0, 88, 40
2, 88716, Note_on_c, 0, 88, 0
2, 88800, Note_on_c, 0, 88, 40
2, 88836, Note_on_c, 0, 88, 0
2, 88920, Note_on_c, 0, 88, 40
2, 89160, Note_on_c, 0, 88, 0
2, 89160, Note_on_c, 0, 81, 40
2, 89196, Note_on_c, 0, 81, 0
2, 89280, Note_on_c, 0, 86, 40
2, 89520, Note_on_c, 0, 86, 0
2, 89520, Note_on_c, 0, 79, 40
2, 89556, Note_on_c, 0, 79, 0
2, 89640, Note_on_c, 0, 84, 40
2, 89676, Note_on_c, 0, 84, 0
2, 89880, Note_on_c, 0, 83, 40
2, 89952, Note_on_c, 0, 83, 0
2, 89970, Note_on_c, 0, 83, 40
2, 89994, Note_on_c, 0, 83, 0
2, 90000, Note_on_c, 0, 81, 40
2, 90012, Note_on_c, 0, 81, 0
2, 90030, Note_on_c, 0, 83, 40
2, 90042, Note_on_c, 0, 83, 0
2, 90060, Note_on_c, 0, 81, 40
2, 90072, Note_on_c, 0, 81, 0
2, 90090, Note_on_c, 0, 83, 40
2, 90102, Note_on_c, 0, 83, 0
2, 90120, Note_on_c, 0, 81, 40
2, 90132, Note_on_c, 0, 81, 0
2, 90150, Note_on_c, 0, 83, 40
2, 90162, Note_on_c, 0, 83, 0
2, 90180, Note_on_c, 0, 81, 40
2, 90192, Note_on_c, 0, 81, 0
2, 90210, Note_on_c, 0, 83, 40
2, 90222, Note_on_c, 0, 83, 0
2, 90240, Note_on_c, 0, 81, 40
2, 90248, Note_on_c, 0, 81, 0
2, 90260, Note_on_c, 0, 83, 40
2, 90268, Note_on_c, 0, 83, 0
2, 90280, Note_on_c, 0, 81, 40
2, 90288, Note_on_c, 0, 81, 0
2, 90300, Note_on_c, 0, 79, 40
2, 90312, Note_on_c, 0, 79, 0
2, 90330, Note_on_c, 0, 81, 40
2, 90342, Note_on_c, 0, 81, 0
2, 90360, Note_on_c, 0, 79, 40
2, 90396, Note_on_c, 0, 79, 0
2, 90960, Note_on_c, 0, 70, 48
2, 90960, Note_on_c, 0, 76, 48
2, 90996, Note_on_c, 0, 76, 0
2, 90996, Note_on_c, 0, 70, 0
2, 91080, Note_on_c, 0, 71, 48
2, 91080, Note_on_c, 0, 75, 48
2, 91116, Note_on_c, 0, 75, 0
2, 91116, Note_on_c, 0, 71, 0
2, 91680, Note_on_c, 0, 69, 48
2, 91680, Note_on_c, 0, 75, 48
2, 91716, Note_on_c, 0, 75, 0
2, 91716, Note_on_c, 0, 69, 0
2, 91920, Note_on_c, 0, 68, 48
2, 91920, Note_on_c, 0, 74, 48
2, 92040, Note_on_c, 0, 74, 0
2, 92040, Note_on_c, 0, 68, 0
2, 92040, Note_on_c, 0, 67, 48
2, 92040, Note_on_c, 0, 73, 48
2, 92076, Note_on_c, 0, 73, 0
2, 92076, Note_on_c, 0, 67, 0
2, 92280, Note_on_c, 0, 66, 48
2, 92280, Note_on_c, 0, 72, 48
2, 92400, Note_on_c, 0, 72, 0
2, 92400, Note_on_c, 0, 66, 0
2, 92400, Note_on_c, 0, 71, 48
2, 92400, Note_on_c, 0, 67, 48
2, 92436, Note_on_c, 0, 67, 0
2, 92436, Note_on_c, 0, 71, 0
2, 92520, Note_on_c, 0, 67, 48
2, 92520, Note_on_c, 0, 76, 48
2, 92556, Note_on_c, 0, 76, 0
2, 92556, Note_on_c, 0, 67, 0
2, 92880, Note_on_c, 0, 66, 40
2, 92880, Note_on_c, 0, 72, 40
2, 92916, Note_on_c, 0, 72, 0
2, 92916, Note_on_c, 0, 66, 0
2, 93240, Note_on_c, 0, 71, 40
2, 93288, Note_on_c, 0, 71, 0
2, 93300, Note_on_c, 0, 74, 40
2, 93348, Note_on_c, 0, 74, 0
2, 93360, Note_on_c, 0, 79, 40
2, 93408, Note_on_c, 0, 79, 0
2, 93420, Note_on_c, 0, 83, 40
2, 93468, Note_on_c, 0, 83, 0
2, 93480, Note_on_c, 0, 86, 80
2, 93516, Note_on_c, 0, 86, 0
2, 93600, Note_on_c, 0, 72, 40
2, 93648, Note_on_c, 0, 72, 0
2, 93660, Note_on_c, 0, 76, 40
2, 93708, Note_on_c, 0, 76, 0
2, 93720, Note_on_c, 0, 79, 40
2, 93768, Note_on_c, 0, 79, 0
2, 93780, Note_on_c, 0, 84, 40
2, 93828, Note_on_c, 0, 84, 0
2, 93840, Note_on_c, 0, 88, 80
2, 93876, Note_on_c, 0, 88, 0
2, 94200, Note_on_c, 0, 86, 80
2, 94200, Note_on_c, 0, 79, 80
2, 94200, Note_on_c, 0, 74, 80
2, 94236, Note_on_c, 0, 74, 0
2, 94236, Note_on_c, 0, 79, 0
2, 94236, Note_on_c, 0, 86, 0
2, 94560, Note_on_c, 0, 84, 80
2, 94560, Note_on_c, 0, 79, 80
2, 94560, Note_on_c, 0, 76, 80
2, 94560, Note_on_c, 0, 72, 80
2, 94596, Note_on_c, 0, 72, 0
2, 94596, Note_on_c, 0, 84, 0
2, 94596, Note_on_c, 0, 79, 0
2, 94596, Note_on_c, 0, 76, 0
2, 94680, Note_on_c, 0, 79, 72
2, 94680, Note_on_c, 0, 74, 72
2, 94680, Note_on_c, 0, 71, 72
2, 94728, Note_on_c, 0, 71, 0
2, 94728, Note_on_c, 0, 74, 0
2, 94728, Note_on_c, 0, 79, 0
2, 94740, Note_on_c, 0, 83, 72
2, 94788, Note_on_c, 0, 83, 0
2, 94800, Note_on_c, 0, 79, 72
2, 94800, Note_on_c, 0, 74, 72
2, 94800, Note_on_c, 0, 71, 72
2, 94848, Note_on_c, 0, 71, 0
2, 94848, Note_on_c, 0, 74, 0
2, 94848, Note_on_c, 0, 79, 0
2, 94860, Note_on_c, 0, 83, 72
2, 94908, Note_on_c, 0, 83, 0
2, 94920, Note_on_c, 0, 79, 72
2, 94920, Note_on_c, 0, 74, 72
2, 94920, Note_on_c, 0, 71, 72
2, 94968, Note_on_c, 0, 71, 0
2, 94968, Note_on_c, 0, 74, 0
2, 94968, Note_on_c, 0, 79, 0
2, 94980, Note_on_c, 0, 83, 72
2, 95028, Note_on_c, 0, 83, 0
2, 95040, Note_on_c, 0, 79, 72
2, 95040, Note_on_c, 0, 74, 72
2, 95040, Note_on_c, 0, 71, 72
2, 95088, Note_on_c, 0, 71, 0
2, 95088, Note_on_c, 0, 74, 0
2, 95088, Note_on_c, 0, 79, 0
2, 95100, Note_on_c, 0, 83, 72
2, 95148, Note_on_c, 0, 83, 0
2, 95160, Note_on_c, 0, 74, 72
2, 95160, Note_on_c, 0, 71, 72
2, 95160, Note_on_c, 0, 79, 72
2, 95208, Note_on_c, 0, 79, 0
2, 95208, Note_on_c, 0, 71, 0
2, 95208, Note_on_c, 0, 74, 0
2, 95220, Note_on_c, 0, 83, 72
2, 95268, Note_on_c, 0, 83, 0
2, 95280, Note_on_c, 0, 79, 72
2, 95280, Note_on_c, 0, 74, 72
2, 95280, Note_on_c, 0, 71, 72
2, 95328, Note_on_c, 0, 71, 0
2, 95328, Note_on_c, 0, 74, 0
2, 95328, Note_on_c, 0, 79, 0
2, 95340, Note_on_c, 0, 83, 72
2, 95388, Note_on_c, 0, 83, 0
2, 95400, Note_on_c, 0, 78, 72
2, 95400, Note_on_c, 0, 74, 72
2, 95400, Note_on_c, 0, 69, 72
2, 95448, Note_on_c, 0, 69, 0
2, 95448, Note_on_c, 0, 74, 0
2, 95448, Note_on_c, 0, 78, 0
2, 95460, Note_on_c, 0, 81, 72
2, 95508, Note_on_c, 0, 81, 0
2, 95520, Note_on_c, 0, 78, 72
2, 95520, Note_on_c, 0, 74, 72
2, 95520, Note_on_c, 0, 69, 72
2, 95568, Note_on_c, 0, 69, 0
2, 95568, Note_on_c, 0, 74, 0
2, 95568, Note_on_c, 0, 78, 0
2, 95580, Note_on_c, 0, 81, 72
2, 95628, Note_on_c, 0, 81, 0
2, 95640, Note_on_c, 0, 78, 72
2, 95640, Note_on_c, 0, 74, 72
2, 95640, Note_on_c, 0, 69, 72
2, 95688, Note_on_c, 0, 69, 0
2, 95688, Note_on_c, 0, 74, 0
2, 95688, Note_on_c, 0, 78, 0
2, 95700, Note_on_c, 0, 81, 72
2, 95748, Note_on_c, 0, 81, 0
2, 95760, Note_on_c, 0, 69, 72
2, 95760, Note_on_c, 0, 74, 72
2, 95760, Note_on_c, 0, 78, 72
2, 95808, Note_on_c, 0, 78, 0
2, 95808, Note_on_c, 0, 74, 0
2, 95808, Note_on_c, 0, 69, 0
2, 95820, Note_on_c, 0, 81, 72
2, 95868, Note_on_c, 0, 81, 0
2, 95880, Note_on_c, 0, 69, 72
2, 95880, Note_on_c, 0, 74, 72
2, 95880, Note_on_c, 0, 78, 72
2, 95928, Note_on_c, 0, 78, 0
2, 95928, Note_on_c, 0, 74, 0
2, 95928, Note_on_c, 0, 69, 0
2, 95940, Note_on_c, 0, 81, 72
2, 95988, Note_on_c, 0, 81, 0
2, 96000, Note_on_c, 0, 69, 72
2, 96000, Note_on_c, 0, 74, 72
2, 96000, Note_on_c, 0, 78, 72
2, 96048, Note_on_c, 0, 78, 0
2, 96048, Note_on_c, 0, 74, 0
2, 96048, Note_on_c, 0, 69, 0
2, 96060, Note_on_c, 0, 81, 72
2, 96108, Note_on_c, 0, 81, 0
2, 96120, Note_on_c, 0, 71, 80
2, 96120, Note_on_c, 0, 74, 80
2, 96120, Note_on_c, 0, 79, 80
2, 96180, Note_on_c, 0, 79, 0
2, 96180, Note_on_c, 0, 74, 0
2, 96180, Note_on_c, 0, 71, 0
2, 96360, Note_on_c, 0, 71, 48
2, 96456, Note_on_c, 0, 71, 0
2, 96480, Note_on_c, 0, 72, 48
2, 96516, Note_on_c, 0, 72, 0
2, 96600, Note_on_c, 0, 73, 48
2, 96636, Note_on_c, 0, 73, 0
2, 96720, Note_on_c, 0, 74, 48
2, 96756, Note_on_c, 0, 74, 0
2, 96840, Note_on_c, 0, 75, 48
2, 96876, Note_on_c, 0, 75, 0
2, 96960, Note_on_c, 0, 76, 48
2, 96996, Note_on_c, 0, 76, 0
2, 97080, Note_on_c, 0, 73, 48
2, 97200, Note_on_c, 0, 73, 0
2, 97200, Note_on_c, 0, 74, 48
2, 97236, Note_on_c, 0, 74, 0
2, 97440, Note_on_c, 0, 74, 48
2, 97476, Note_on_c, 0, 74, 0
2, 97560, Note_on_c, 0, 67, 48
2, 97596, Note_on_c, 0, 67, 0
2, 97800, Note_on_c, 0, 74, 88
2, 97800, Note_on_c, 0, 78, 88
2, 97800, Note_on_c, 0, 81, 88
2, 97800, Note_on_c, 0, 84, 88
2, 97836, Note_on_c, 0, 84, 0
2, 97836, Note_on_c, 0, 74, 0
2, 97836, Note_on_c, 0, 78, 0
2, 97836, Note_on_c, 0, 81, 0
2, 97920, Note_on_c, 0, 74, 88
2, 97920, Note_on_c, 0, 79, 88
2, 97920, Note_on_c, 0, 83, 88
2, 98016, Note_on_c, 0, 83, 0
2, 98016, Note_on_c, 0, 79, 0
2, 98016, Note_on_c, 0, 74, 0
2, 98340, Note_on_c, 0, 69, 96
2, 98355, Note_on_c, 0, 72, 96
2, 98370, Note_on_c, 0, 74, 96
2, 98385, Note_on_c, 0, 78, 96
2, 98397, Note_on_c, 0, 69, 0
2, 98400, Note_on_c, 0, 69, 96
2, 98457, Note_on_c, 0, 69, 0
2, 98457, Note_on_c, 0, 78, 0
2, 98457, Note_on_c, 0, 74, 0
2, 98457, Note_on_c, 0, 72, 0
2, 99060, Note_on_c, 0, 67, 96
2, 99075, Note_on_c, 0, 71, 96
2, 99090, Note_on_c, 0, 74, 96
2, 99105, Note_on_c, 0, 79, 96
2, 99168, Note_on_c, 0, 79, 0
2, 99168, Note_on_c, 0, 67, 0
2, 99168, Note_on_c, 0, 71, 0
2, 99168, Note_on_c, 0, 74, 0
2, 99168, End_track
3, 0, Start_track
3, 0, MIDI_port, 0
3, 0, Title_t, "by W.A. Mozart - 3rd movement (presto)"
3, 0, Program_c, 1, 0
3, 0, Control_c, 1, 7, 127
3, 0, Control_c, 1, 10, 60
3, 0, Note_on_c, 1, 43, 56
3, 120, Note_on_c, 1, 43, 0
3, 120, Note_on_c, 1, 55, 56
3, 156, Note_on_c, 1, 55, 0
3, 240, Note_on_c, 1, 55, 56
3, 276, Note_on_c, 1, 55, 0
3, 360, Note_on_c, 1, 55, 56
3, 396, Note_on_c, 1, 55, 0
3, 480, Note_on_c, 1, 55, 56
3, 516, Note_on_c, 1, 55, 0
3, 600, Note_on_c, 1, 55, 56
3, 636, Note_on_c, 1, 55, 0
3, 720, Note_on_c, 1, 55, 56
3, 756, Note_on_c, 1, 55, 0
3, 840, Note_on_c, 1, 55, 56
3, 876, Note_on_c, 1, 55, 0
3, 960, Note_on_c, 1, 55, 56
3, 996, Note_on_c, 1, 55, 0
3, 1080, Note_on_c, 1, 55, 56
3, 1116, Note_on_c, 1, 55, 0
3, 1200, Note_on_c, 1, 55, 56
3, 1236, Note_on_c, 1, 55, 0
3, 1320, Note_on_c, 1, 55, 56
3, 1356, Note_on_c, 1, 55, 0
3, 1440, Note_on_c, 1, 43, 56
3, 1560, Note_on_c, 1, 43, 0
3, 1560, Note_on_c, 1, 55, 56
3, 1596, Note_on_c, 1, 55, 0
3, 1680, Note_on_c, 1, 55, 56
3, 1716, Note_on_c, 1, 55, 0
3, 1800, Note_on_c, 1, 55, 56
3, 1836, Note_on_c, 1, 55, 0
3, 1920, Note_on_c, 1, 55, 56
3, 1956, Note_on_c, 1, 55, 0
3, 2040, Note_on_c, 1, 55, 56
3, 2076, Note_on_c, 1, 55, 0
3, 2160, Note_on_c, 1, 55, 56
3, 2196, Note_on_c, 1, 55, 0
3, 2280, Note_on_c, 1, 55, 56
3, 2316, Note_on_c, 1, 55, 0
3, 2400, Note_on_c, 1, 55, 56
3, 2436, Note_on_c, 1, 55, 0
3, 2520, Note_on_c, 1, 55, 56
3, 2556, Note_on_c, 1, 55, 0
3, 2640, Note_on_c, 1, 55, 56
3, 2676, Note_on_c, 1, 55, 0
3, 2760, Note_on_c, 1, 55, 56
3, 2796, Note_on_c, 1, 55, 0
3, 2880, Note_on_c, 1, 35, 40
3, 2880, Note_on_c, 1, 47, 40
3, 2988, Note_on_c, 1, 47, 0
3, 2988, Note_on_c, 1, 35, 0
3, 3240, Note_on_c, 1, 36, 48
3, 3240, Note_on_c, 1, 48, 48
3, 3348, Note_on_c, 1, 48, 0
3, 3348, Note_on_c, 1, 36, 0
3, 3600, Note_on_c, 1, 38, 56
3, 3600, Note_on_c, 1, 50, 56
3, 3708, Note_on_c, 1, 50, 0
3, 3708, Note_on_c, 1, 38, 0
3, 3960, Note_on_c, 1, 40, 64
3, 3960, Note_on_c, 1, 52, 64
3, 4068, Note_on_c, 1, 52, 0
3, 4068, Note_on_c, 1, 40, 0
3, 4320, Note_on_c, 1, 54, 56
3, 4368, Note_on_c, 1, 54, 0
3, 4380, Note_on_c, 1, 62, 40
3, 4428, Note_on_c, 1, 62, 0
3, 4440, Note_on_c, 1, 61, 40
3, 4488, Note_on_c, 1, 61, 0
3, 4500, Note_on_c, 1, 62, 40
3, 4548, Note_on_c, 1, 62, 0
3, 4560, Note_on_c, 1, 54, 40
3, 4608, Note_on_c, 1, 54, 0
3, 4620, Note_on_c, 1, 62, 40
3, 4668, Note_on_c, 1, 62, 0
3, 4680, Note_on_c, 1, 55, 40
3, 4728, Note_on_c, 1, 55, 0
3, 4740, Note_on_c, 1, 62, 40
3, 4788, Note_on_c, 1, 62, 0
3, 4800, Note_on_c, 1, 61, 40
3, 4848, Note_on_c, 1, 61, 0
3, 4860, Note_on_c, 1, 62, 40
3, 4908, Note_on_c, 1, 62, 0
3, 4920, Note_on_c, 1, 55, 40
3, 4968, Note_on_c, 1, 55, 0
3, 4980, Note_on_c, 1, 62, 40
3, 5028, Note_on_c, 1, 62, 0
3, 5040, Note_on_c, 1, 57, 40
3, 5088, Note_on_c, 1, 57, 0
3, 5100, Note_on_c, 1, 62, 40
3, 5148, Note_on_c, 1, 62, 0
3, 5160, Note_on_c, 1, 61, 40
3, 5208, Note_on_c, 1, 61, 0
3, 5220, Note_on_c, 1, 62, 40
3, 5268, Note_on_c, 1, 62, 0
3, 5280, Note_on_c, 1, 57, 40
3, 5328, Note_on_c, 1, 57, 0
3, 5340, Note_on_c, 1, 62, 40
3, 5388, Note_on_c, 1, 62, 0
3, 5400, Note_on_c, 1, 59, 40
3, 5448, Note_on_c, 1, 59, 0
3, 5460, Note_on_c, 1, 62, 40
3, 5508, Note_on_c, 1, 62, 0
3, 5520, Note_on_c, 1, 61, 40
3, 5568, Note_on_c, 1, 61, 0
3, 5580, Note_on_c, 1, 62, 40
3, 5628, Note_on_c, 1, 62, 0
3, 5640, Note_on_c, 1, 59, 40
3, 5688, Note_on_c, 1, 59, 0
3, 5700, Note_on_c, 1, 62, 40
3, 5748, Note_on_c, 1, 62, 0
3, 5760, Note_on_c, 1, 64, 56
3, 5760, Note_on_c, 1, 60, 56
3, 5856, Note_on_c, 1, 60, 0
3, 5856, Note_on_c, 1, 64, 0
3, 6360, Note_on_c, 1, 60, 56
3, 6360, Note_on_c, 1, 67, 56
3, 6480, Note_on_c, 1, 67, 0
3, 6480, Note_on_c, 1, 60, 0
3, 6480, Note_on_c, 1, 62, 72
3, 6480, Note_on_c, 1, 66, 72
3, 6516, Note_on_c, 1, 66, 0
3, 6516, Note_on_c, 1, 62, 0
3, 6720, Note_on_c, 1, 62, 64
3, 6720, Note_on_c, 1, 66, 64
3, 6840, Note_on_c, 1, 66, 0
3, 6840, Note_on_c, 1, 62, 0
3, 6840, Note_on_c, 1, 64, 64
3, 6840, Note_on_c, 1, 67, 64
3, 6876, Note_on_c, 1, 67, 0
3, 6876, Note_on_c, 1, 64, 0
3, 7080, Note_on_c, 1, 64, 56
3, 7080, Note_on_c, 1, 67, 56
3, 7200, Note_on_c, 1, 67, 0
3, 7200, Note_on_c, 1, 64, 0
3, 7200, Note_on_c, 1, 60, 56
3, 7200, Note_on_c, 1, 64, 56
3, 7236, Note_on_c, 1, 64, 0
3, 7236, Note_on_c, 1, 60, 0
3, 7440, Note_on_c, 1, 48, 48
3, 7440, Note_on_c, 1, 60, 48
3, 7560, Note_on_c, 1, 60, 0
3, 7560, Note_on_c, 1, 48, 0
3, 7560, Note_on_c, 1, 50, 48
3, 7560, Note_on_c, 1, 59, 48
3, 7596, Note_on_c, 1, 59, 0
3, 7596, Note_on_c, 1, 50, 0
3, 7800, Note_on_c, 1, 50, 44
3, 7800, Note_on_c, 1, 59, 44
3, 7920, Note_on_c, 1, 59, 0
3, 7920, Note_on_c, 1, 50, 0
3, 7920, Note_on_c, 1, 50, 44
3, 7920, Note_on_c, 1, 57, 44
3, 7956, Note_on_c, 1, 57, 0
3, 7956, Note_on_c, 1, 50, 0
3, 8160, Note_on_c, 1, 57, 40
3, 8160, Note_on_c, 1, 50, 40
3, 8280, Note_on_c, 1, 50, 0
3, 8280, Note_on_c, 1, 57, 0
3, 8280, Note_on_c, 1, 59, 40
3, 8280, Note_on_c, 1, 55, 40
3, 8316, Note_on_c, 1, 55, 0
3, 8316, Note_on_c, 1, 59, 0
3, 8640, Note_on_c, 1, 43, 72
3, 8688, Note_on_c, 1, 43, 0
3, 8700, Note_on_c, 1, 55, 72
3, 8748, Note_on_c, 1, 55, 0
3, 8760, Note_on_c, 1, 54, 72
3, 8808, Note_on_c, 1, 54, 0
3, 8820, Note_on_c, 1, 55, 72
3, 8868, Note_on_c, 1, 55, 0
3, 8880, Note_on_c, 1, 57, 72
3, 8892, Note_on_c, 1, 57, 0
3, 8940, Note_on_c, 1, 55, 72
3, 8952, Note_on_c, 1, 55, 0
3, 9000, Note_on_c, 1, 43, 72
3, 9060, Note_on_c, 1, 43, 0
3, 9360, Note_on_c, 1, 43, 72
3, 9408, Note_on_c, 1, 43, 0
3, 9420, Note_on_c, 1, 55, 72
3, 9468, Note_on_c, 1, 55, 0
3, 9480, Note_on_c, 1, 54, 72
3, 9528, Note_on_c, 1, 54, 0
3, 9540, Note_on_c, 1, 55, 72
3, 9588, Note_on_c, 1, 55, 0
3, 9600, Note_on_c, 1, 57, 72
3, 9612, Note_on_c, 1, 57, 0
3, 9660, Note_on_c, 1, 55, 72
3, 9672, Note_on_c, 1, 55, 0
3, 9720, Note_on_c, 1, 43, 72
3, 9780, Note_on_c, 1, 43, 0
3, 10080, Note_on_c, 1, 43, 72
3, 10128, Note_on_c, 1, 43, 0
3, 10140, Note_on_c, 1, 55, 72
3, 10188, Note_on_c, 1, 55, 0
3, 10200, Note_on_c, 1, 54, 72
3, 10248, Note_on_c, 1, 54, 0
3, 10260, Note_on_c, 1, 55, 72
3, 10308, Note_on_c, 1, 55, 0
3, 10320, Note_on_c, 1, 57, 72
3, 10368, Note_on_c, 1, 57, 0
3, 10380, Note_on_c, 1, 55, 72
3, 10428, Note_on_c, 1, 55, 0
3, 10440, Note_on_c, 1, 43, 72
3, 10500, Note_on_c, 1, 43, 0
3, 10800, Note_on_c, 1, 43, 72
3, 10848, Note_on_c, 1, 43, 0
3, 10860, Note_on_c, 1, 55, 72
3, 10908, Note_on_c, 1, 55, 0
3, 10920, Note_on_c, 1, 54, 72
3, 10968, Note_on_c, 1, 54, 0
3, 10980, Note_on_c, 1, 55, 72
3, 11028, Note_on_c, 1, 55, 0
3, 11040, Note_on_c, 1, 57, 72
3, 11052, Note_on_c, 1, 57, 0
3, 11100, Note_on_c, 1, 55, 72
3, 11112, Note_on_c, 1, 55, 0
3, 11160, Note_on_c, 1, 43, 72
3, 11220, Note_on_c, 1, 43, 0
3, 11520, Note_on_c, 1, 60, 56
3, 11568, Note_on_c, 1, 60, 0
3, 11580, Note_on_c, 1, 67, 56
3, 11628, Note_on_c, 1, 67, 0
3, 11640, Note_on_c, 1, 66, 56
3, 11688, Note_on_c, 1, 66, 0
3, 11700, Note_on_c, 1, 67, 56
3, 11748, Note_on_c, 1, 67, 0
3, 11760, Note_on_c, 1, 62, 56
3, 11808, Note_on_c, 1, 62, 0
3, 11820, Note_on_c, 1, 67, 56
3, 11868, Note_on_c, 1, 67, 0
3, 11880, Note_on_c, 1, 64, 56
3, 11928, Note_on_c, 1, 64, 0
3, 11940, Note_on_c, 1, 67, 56
3, 11988, Note_on_c, 1, 67, 0
3, 12000, Note_on_c, 1, 66, 56
3, 12048, Note_on_c, 1, 66, 0
3, 12060, Note_on_c, 1, 67, 56
3, 12108, Note_on_c, 1, 67, 0
3, 12120, Note_on_c, 1, 62, 56
3, 12168, Note_on_c, 1, 62, 0
3, 12180, Note_on_c, 1, 67, 56
3, 12228, Note_on_c, 1, 67, 0
3, 12240, Note_on_c, 1, 60, 56
3, 12288, Note_on_c, 1, 60, 0
3, 12300, Note_on_c, 1, 67, 56
3, 12348, Note_on_c, 1, 67, 0
3, 12360, Note_on_c, 1, 66, 56
3, 12408, Note_on_c, 1, 66, 0
3, 12420, Note_on_c, 1, 67, 56
3, 12468, Note_on_c, 1, 67, 0
3, 12480, Note_on_c, 1, 62, 56
3, 12528, Note_on_c, 1, 62, 0
3, 12540, Note_on_c, 1, 67, 56
3, 12588, Note_on_c, 1, 67, 0
3, 12600, Note_on_c, 1, 64, 56
3, 12648, Note_on_c, 1, 64, 0
3, 12660, Note_on_c, 1, 67, 56
3, 12708, Note_on_c, 1, 67, 0
3, 12720, Note_on_c, 1, 66, 56
3, 12768, Note_on_c, 1, 66, 0
3, 12780, Note_on_c, 1, 67, 56
3, 12828, Note_on_c, 1, 67, 0
3, 12840, Note_on_c, 1, 62, 56
3, 12888, Note_on_c, 1, 62, 0
3, 12900, Note_on_c, 1, 67, 56
3, 12948, Note_on_c, 1, 67, 0
3, 12960, Note_on_c, 1, 60, 40
3, 13008, Note_on_c, 1, 60, 0
3, 13020, Note_on_c, 1, 67, 40
3, 13068, Note_on_c, 1, 67, 0
3, 13080, Note_on_c, 1, 66, 40
3, 13128, Note_on_c, 1, 66, 0
3, 13140, Note_on_c, 1, 67, 40
3, 13188, Note_on_c, 1, 67, 0
3, 13200, Note_on_c, 1, 62, 40
3, 13248, Note_on_c, 1, 62, 0
3, 13260, Note_on_c, 1, 67, 40
3, 13308, Note_on_c, 1, 67, 0
3, 13320, Note_on_c, 1, 64, 40
3, 13368, Note_on_c, 1, 64, 0
3, 13380, Note_on_c, 1, 67, 40
3, 13428, Note_on_c, 1, 67, 0
3, 13440, Note_on_c, 1, 66, 40
3, 13488, Note_on_c, 1, 66, 0
3, 13500, Note_on_c, 1, 67, 40
3, 13548, Note_on_c, 1, 67, 0
3, 13560, Note_on_c, 1, 61, 40
3, 13608, Note_on_c, 1, 61, 0
3, 13620, Note_on_c, 1, 67, 40
3, 13668, Note_on_c, 1, 67, 0
3, 13680, Note_on_c, 1, 62, 40
3, 13680, Note_on_c, 1, 66, 40
3, 13776, Note_on_c, 1, 66, 0
3, 13776, Note_on_c, 1, 62, 0
3, 13800, Note_on_c, 1, 57, 40
3, 13824, Note_on_c, 1, 57, 0
3, 13920, Note_on_c, 1, 54, 40
3, 13944, Note_on_c, 1, 54, 0
3, 14040, Note_on_c, 1, 50, 40
3, 14064, Note_on_c, 1, 50, 0
3, 15120, Note_on_c, 1, 57, 72
3, 15120, Note_on_c, 1, 66, 72
3, 15216, Note_on_c, 1, 66, 0
3, 15240, Note_on_c, 1, 64, 67
3, 15336, Note_on_c, 1, 64, 0
3, 15360, Note_on_c, 1, 67, 61
3, 15456, Note_on_c, 1, 67, 0
3, 15480, Note_on_c, 1, 66, 56
3, 15576, Note_on_c, 1, 66, 0
3, 15600, Note_on_c, 1, 64, 51
3, 15696, Note_on_c, 1, 64, 0
3, 15720, Note_on_c, 1, 67, 45
3, 15816, Note_on_c, 1, 67, 0
3, 15840, Note_on_c, 1, 66, 40
3, 15936, Note_on_c, 1, 57, 0
3, 15960, Note_on_c, 1, 66, 0
3, 15960, Note_on_c, 1, 57, 40
3, 16080, Note_on_c, 1, 57, 0
3, 16080, Note_on_c, 1, 62, 40
3, 16140, Note_on_c, 1, 62, 0
3, 16200, Note_on_c, 1, 61, 40
3, 16320, Note_on_c, 1, 61, 0
3, 16320, Note_on_c, 1, 57, 40
3, 16440, Note_on_c, 1, 57, 0
3, 16440, Note_on_c, 1, 67, 40
3, 16500, Note_on_c, 1, 67, 0
3, 16560, Note_on_c, 1, 66, 40
3, 16680, Note_on_c, 1, 66, 0
3, 16680, Note_on_c, 1, 57, 40
3, 16800, Note_on_c, 1, 57, 0
3, 16800, Note_on_c, 1, 62, 40
3, 16860, Note_on_c, 1, 62, 0
3, 16920, Note_on_c, 1, 61, 40
3, 17016, Note_on_c, 1, 61, 0
3, 18000, Note_on_c, 1, 64, 72
3, 18000, Note_on_c, 1, 57, 72
3, 18120, Note_on_c, 1, 64, 0
3, 18120, Note_on_c, 1, 62, 67
3, 18240, Note_on_c, 1, 62, 0
3, 18240, Note_on_c, 1, 66, 61
3, 18360, Note_on_c, 1, 66, 0
3, 18360, Note_on_c, 1, 64, 56
3, 18480, Note_on_c, 1, 64, 0
3, 18480, Note_on_c, 1, 62, 51
3, 18600, Note_on_c, 1, 62, 0
3, 18600, Note_on_c, 1, 66, 45
3, 18720, Note_on_c, 1, 66, 0
3, 18720, Note_on_c, 1, 64, 40
3, 18816, Note_on_c, 1, 57, 0
3, 18840, Note_on_c, 1, 64, 0
3, 18840, Note_on_c, 1, 57, 40
3, 18876, Note_on_c, 1, 57, 0
3, 18960, Note_on_c, 1, 67, 40
3, 19032, Note_on_c, 1, 67, 0
3, 19080, Note_on_c, 1, 66, 40
3, 19200, Note_on_c, 1, 66, 0
3, 19200, Note_on_c, 1, 57, 40
3, 19236, Note_on_c, 1, 57, 0
3, 19320, Note_on_c, 1, 62, 40
3, 19392, Note_on_c, 1, 62, 0
3, 19440, Note_on_c, 1, 61, 40
3, 19560, Note_on_c, 1, 61, 0
3, 19560, Note_on_c, 1, 57, 40
3, 19596, Note_on_c, 1, 57, 0
3, 19680, Note_on_c, 1, 61, 40
3, 19752, Note_on_c, 1, 61, 0
3, 19800, Note_on_c, 1, 62, 40
3, 19896, Note_on_c, 1, 62, 0
3, 20160, Note_on_c, 1, 50, 56
3, 20160, Note_on_c, 1, 62, 56
3, 20280, Note_on_c, 1, 62, 0
3, 20280, Note_on_c, 1, 50, 0
3, 20280, Note_on_c, 1, 49, 56
3, 20280, Note_on_c, 1, 61, 56
3, 20352, Note_on_c, 1, 61, 0
3, 20352, Note_on_c, 1, 49, 0
3, 20400, Note_on_c, 1, 52, 56
3, 20400, Note_on_c, 1, 64, 56
3, 20436, Note_on_c, 1, 64, 0
3, 20436, Note_on_c, 1, 52, 0
3, 20520, Note_on_c, 1, 50, 56
3, 20520, Note_on_c, 1, 62, 56
3, 20616, Note_on_c, 1, 62, 0
3, 20616, Note_on_c, 1, 50, 0
3, 20640, Note_on_c, 1, 62, 56
3, 20640, Note_on_c, 1, 59, 56
3, 20688, Note_on_c, 1, 62, 0
3, 20700, Note_on_c, 1, 66, 56
3, 20736, Note_on_c, 1, 59, 0
3, 20748, Note_on_c, 1, 66, 0
3, 20760, Note_on_c, 1, 64, 56
3, 20760, Note_on_c, 1, 61, 56
3, 20808, Note_on_c, 1, 64, 0
3, 20820, Note_on_c, 1, 67, 56
3, 20856, Note_on_c, 1, 61, 0
3, 20868, Note_on_c, 1, 67, 0
3, 20880, Note_on_c, 1, 62, 56
3, 20880, Note_on_c, 1, 66, 56
3, 20976, Note_on_c, 1, 66, 0
3, 20976, Note_on_c, 1, 62, 0
3, 21600, Note_on_c, 1, 43, 56
3, 21600, Note_on_c, 1, 55, 56
3, 21720, Note_on_c, 1, 55, 0
3, 21720, Note_on_c, 1, 43, 0
3, 21720, Note_on_c, 1, 42, 56
3, 21720, Note_on_c, 1, 54, 56
3, 21792, Note_on_c, 1, 54, 0
3, 21792, Note_on_c, 1, 42, 0
3, 21840, Note_on_c, 1, 45, 56
3, 21840, Note_on_c, 1, 57, 56
3, 21876, Note_on_c, 1, 57, 0
3, 21876, Note_on_c, 1, 45, 0
3, 21960, Note_on_c, 1, 43, 56
3, 21960, Note_on_c, 1, 55, 56
3, 22056, Note_on_c, 1, 55, 0
3, 22056, Note_on_c, 1, 43, 0
3, 22080, Note_on_c, 1, 52, 56
3, 22080, Note_on_c, 1, 55, 56
3, 22128, Note_on_c, 1, 55, 0
3, 22140, Note_on_c, 1, 59, 56
3, 22176, Note_on_c, 1, 52, 0
3, 22188, Note_on_c, 1, 59, 0
3, 22200, Note_on_c, 1, 54, 56
3, 22200, Note_on_c, 1, 57, 56
3, 22248, Note_on_c, 1, 57, 0
3, 22260, Note_on_c, 1, 60, 56
3, 22296, Note_on_c, 1, 54, 0
3, 22308, Note_on_c, 1, 60, 0
3, 22320, Note_on_c, 1, 55, 56
3, 22320, Note_on_c, 1, 59, 56
3, 22416, Note_on_c, 1, 59, 0
3, 22416, Note_on_c, 1, 55, 0
3, 23280, Note_on_c, 1, 61, 80
3, 23280, Note_on_c, 1, 64, 80
3, 23280, Note_on_c, 1, 67, 80
3, 23316, Note_on_c, 1, 67, 0
3, 23316, Note_on_c, 1, 64, 0
3, 23316, Note_on_c, 1, 61, 0
3, 23640, Note_on_c, 1, 61, 72
3, 23640, Note_on_c, 1, 64, 72
3, 23640, Note_on_c, 1, 67, 72
3, 23676, Note_on_c, 1, 67, 0
3, 23676, Note_on_c, 1, 64, 0
3, 23676, Note_on_c, 1, 61, 0
3, 24000, Note_on_c, 1, 61, 64
3, 24000, Note_on_c, 1, 64, 64
3, 24000, Note_on_c, 1, 67, 64
3, 24036, Note_on_c, 1, 67, 0
3, 24036, Note_on_c, 1, 64, 0
3, 24036, Note_on_c, 1, 61, 0
3, 24360, Note_on_c, 1, 67, 56
3, 24360, Note_on_c, 1, 64, 56
3, 24360, Note_on_c, 1, 61, 56
3, 24396, Note_on_c, 1, 61, 0
3, 24396, Note_on_c, 1, 64, 0
3, 24396, Note_on_c, 1, 67, 0
3, 24480, Note_on_c, 1, 50, 40
3, 24528, Note_on_c, 1, 50, 0
3, 24540, Note_on_c, 1, 54, 40
3, 24588, Note_on_c, 1, 54, 0
3, 24600, Note_on_c, 1, 57, 40
3, 24648, Note_on_c, 1, 57, 0
3, 24660, Note_on_c, 1, 62, 40
3, 24708, Note_on_c, 1, 62, 0
3, 24720, Note_on_c, 1, 66, 80
3, 24756, Note_on_c, 1, 66, 0
3, 24840, Note_on_c, 1, 43, 40
3, 24888, Note_on_c, 1, 43, 0
3, 24900, Note_on_c, 1, 47, 40
3, 24948, Note_on_c, 1, 47, 0
3, 24960, Note_on_c, 1, 50, 40
3, 25008, Note_on_c, 1, 50, 0
3, 25020, Note_on_c, 1, 55, 40
3, 25068, Note_on_c, 1, 55, 0
3, 25080, Note_on_c, 1, 59, 80
3, 25116, Note_on_c, 1, 59, 0
3, 25200, Note_on_c, 1, 57, 56
3, 25248, Note_on_c, 1, 57, 0
3, 25260, Note_on_c, 1, 66, 56
3, 25308, Note_on_c, 1, 66, 0
3, 25320, Note_on_c, 1, 62, 56
3, 25368, Note_on_c, 1, 62, 0
3, 25380, Note_on_c, 1, 66, 56
3, 25428, Note_on_c, 1, 66, 0
3, 25440, Note_on_c, 1, 57, 56
3, 25488, Note_on_c, 1, 57, 0
3, 25500, Note_on_c, 1, 66, 56
3, 25548, Note_on_c, 1, 66, 0
3, 25560, Note_on_c, 1, 57, 64
3, 25608, Note_on_c, 1, 57, 0
3, 25620, Note_on_c, 1, 67, 60
3, 25668, Note_on_c, 1, 67, 0
3, 25680, Note_on_c, 1, 61, 56
3, 25728, Note_on_c, 1, 61, 0
3, 25740, Note_on_c, 1, 67, 52
3, 25788, Note_on_c, 1, 67, 0
3, 25800, Note_on_c, 1, 57, 48
3, 25848, Note_on_c, 1, 57, 0
3, 25860, Note_on_c, 1, 67, 44
3, 25908, Note_on_c, 1, 67, 0
3, 25920, Note_on_c, 1, 62, 56
3, 25920, Note_on_c, 1, 66, 56
3, 25956, Note_on_c, 1, 66, 0
3, 25956, Note_on_c, 1, 62, 0
3, 26520, Note_on_c, 1, 58, 40
3, 26520, Note_on_c, 1, 64, 40
3, 26556, Note_on_c, 1, 64, 0
3, 26556, Note_on_c, 1, 58, 0
3, 26640, Note_on_c, 1, 59, 40
3, 26640, Note_on_c, 1, 62, 40
3, 26676, Note_on_c, 1, 62, 0
3, 26676, Note_on_c, 1, 59, 0
3, 27240, Note_on_c, 1, 63, 40
3, 27240, Note_on_c, 1, 69, 40
3, 27276, Note_on_c, 1, 69, 0
3, 27276, Note_on_c, 1, 63, 0
3, 27480, Note_on_c, 1, 62, 40
3, 27480, Note_on_c, 1, 68, 40
3, 27516, Note_on_c, 1, 68, 0
3, 27516, Note_on_c, 1, 62, 0
3, 27600, Note_on_c, 1, 61, 40
3, 27600, Note_on_c, 1, 67, 40
3, 27636, Note_on_c, 1, 67, 0
3, 27636, Note_on_c, 1, 61, 0
3, 27840, Note_on_c, 1, 60, 40
3, 27840, Note_on_c, 1, 66, 40
3, 27876, Note_on_c, 1, 66, 0
3, 27876, Note_on_c, 1, 60, 0
3, 27960, Note_on_c, 1, 59, 40
3, 27960, Note_on_c, 1, 67, 40
3, 27996, Note_on_c, 1, 67, 0
3, 27996, Note_on_c, 1, 59, 0
3, 28080, Note_on_c, 1, 57, 40
3, 28080, Note_on_c, 1, 61, 40
3, 28116, Note_on_c, 1, 61, 0
3, 28116, Note_on_c, 1, 57, 0
3, 28320, Note_on_c, 1, 62, 40
3, 28320, Note_on_c, 1, 59, 40
3, 28356, Note_on_c, 1, 59, 0
3, 28356, Note_on_c, 1, 62, 0
3, 28440, Note_on_c, 1, 55, 40
3, 28440, Note_on_c, 1, 62, 40
3, 28536, Note_on_c, 1, 55, 0
3, 28560, Note_on_c, 1, 52, 40
3, 28596, Note_on_c, 1, 52, 0
3, 28596, Note_on_c, 1, 62, 0
3, 28680, Note_on_c, 1, 57, 40
3, 28680, Note_on_c, 1, 61, 40
3, 28716, Note_on_c, 1, 61, 0
3, 28716, Note_on_c, 1, 57, 0
3, 28800, Note_on_c, 1, 62, 40
3, 28836, Note_on_c, 1, 62, 0
3, 28920, Note_on_c, 1, 50, 40
3, 28956, Note_on_c, 1, 50, 0
3, 29040, Note_on_c, 1, 69, 40
3, 29076, Note_on_c, 1, 69, 0
3, 29160, Note_on_c, 1, 67, 48
3, 29280, Note_on_c, 1, 67, 0
3, 29280, Note_on_c, 1, 66, 48
3, 29304, Note_on_c, 1, 66, 0
3, 29400, Note_on_c, 1, 66, 48
3, 29448, Note_on_c, 1, 66, 0
3, 29520, Note_on_c, 1, 66, 48
3, 29544, Note_on_c, 1, 66, 0
3, 29760, Note_on_c, 1, 66, 48
3, 29796, Note_on_c, 1, 66, 0
3, 29880, Note_on_c, 1, 72, 48
3, 30000, Note_on_c, 1, 72, 0
3, 30000, Note_on_c, 1, 71, 48
3, 30024, Note_on_c, 1, 71, 0
3, 30120, Note_on_c, 1, 71, 48
3, 30144, Note_on_c, 1, 71, 0
3, 30240, Note_on_c, 1, 71, 48
3, 30480, Note_on_c, 1, 71, 0
3, 30480, Note_on_c, 1, 64, 48
3, 30504, Note_on_c, 1, 64, 0
3, 30600, Note_on_c, 1, 69, 48
3, 30840, Note_on_c, 1, 69, 0
3, 30840, Note_on_c, 1, 62, 48
3, 30864, Note_on_c, 1, 62, 0
3, 30960, Note_on_c, 1, 67, 48
3, 31008, Note_on_c, 1, 67, 0
3, 31320, Note_on_c, 1, 69, 32
3, 31368, Note_on_c, 1, 69, 0
3, 31920, Note_on_c, 1, 62, 80
3, 31920, Note_on_c, 1, 57, 80
3, 31920, Note_on_c, 1, 54, 80
3, 31968, Note_on_c, 1, 54, 0
3, 31968, Note_on_c, 1, 57, 0
3, 31968, Note_on_c, 1, 62, 0
3, 32280, Note_on_c, 1, 62, 80
3, 32280, Note_on_c, 1, 59, 80
3, 32280, Note_on_c, 1, 55, 80
3, 32328, Note_on_c, 1, 55, 0
3, 32328, Note_on_c, 1, 59, 0
3, 32328, Note_on_c, 1, 62, 0
3, 32400, Note_on_c, 1, 50, 56
3, 32448, Note_on_c, 1, 50, 0
3, 32460, Note_on_c, 1, 54, 56
3, 32508, Note_on_c, 1, 54, 0
3, 32520, Note_on_c, 1, 57, 56
3, 32568, Note_on_c, 1, 57, 0
3, 32580, Note_on_c, 1, 62, 56
3, 32628, Note_on_c, 1, 62, 0
3, 32640, Note_on_c, 1, 66, 56
3, 32724, Note_on_c, 1, 66, 0
3, 32760, Note_on_c, 1, 43, 56
3, 32808, Note_on_c, 1, 43, 0
3, 32820, Note_on_c, 1, 47, 56
3, 32868, Note_on_c, 1, 47, 0
3, 32880, Note_on_c, 1, 50, 56
3, 32928, Note_on_c, 1, 50, 0
3, 32940, Note_on_c, 1, 55, 56
3, 32988, Note_on_c, 1, 55, 0
3, 33000, Note_on_c, 1, 59, 56
3, 33084, Note_on_c, 1, 59, 0
3, 33120, Note_on_c, 1, 45, 80
3, 33120, Note_on_c, 1, 57, 80
3, 33312, Note_on_c, 1, 57, 0
3, 33312, Note_on_c, 1, 45, 0
3, 33360, Note_on_c, 1, 50, 80
3, 33360, Note_on_c, 1, 62, 80
3, 33396, Note_on_c, 1, 62, 0
3, 33396, Note_on_c, 1, 50, 0
3, 33480, Note_on_c, 1, 54, 80
3, 33480, Note_on_c, 1, 66, 80
3, 33672, Note_on_c, 1, 66, 0
3, 33672, Note_on_c, 1, 54, 0
3, 33720, Note_on_c, 1, 57, 80
3, 33720, Note_on_c, 1, 69, 80
3, 33756, Note_on_c, 1, 69, 0
3, 33756, Note_on_c, 1, 57, 0
3, 33840, Note_on_c, 1, 55, 80
3, 33840, Note_on_c, 1, 67, 80
3, 33900, Note_on_c, 1, 67, 0
3, 33900, Note_on_c, 1, 55, 0
3, 33960, Note_on_c, 1, 55, 80
3, 33960, Note_on_c, 1, 67, 80
3, 34020, Note_on_c, 1, 67, 0
3, 34020, Note_on_c, 1, 55, 0
3, 34080, Note_on_c, 1, 52, 80
3, 34080, Note_on_c, 1, 64, 80
3, 34140, Note_on_c, 1, 64, 0
3, 34140, Note_on_c, 1, 52, 0
3, 34200, Note_on_c, 1, 49, 80
3, 34200, Note_on_c, 1, 61, 80
3, 34260, Note_on_c, 1, 61, 0
3, 34260, Note_on_c, 1, 49, 0
3, 34320, Note_on_c, 1, 49, 80
3, 34320, Note_on_c, 1, 61, 80
3, 34356, Note_on_c, 1, 61, 0
3, 34356, Note_on_c, 1, 49, 0
3, 34440, Note_on_c, 1, 45, 80
3, 34440, Note_on_c, 1, 57, 80
3, 34560, Note_on_c, 1, 57, 0
3, 34560, Note_on_c, 1, 45, 0
3, 34560, Note_on_c, 1, 62, 80
3, 34560, Note_on_c, 1, 50, 80
3, 34620, Note_on_c, 1, 50, 0
3, 34620, Note_on_c, 1, 62, 0
3, 34800, Note_on_c, 1, 54, 48
3, 34896, Note_on_c, 1, 54, 0
3, 34920, Note_on_c, 1, 55, 48
3, 34956, Note_on_c, 1, 55, 0
3, 35040, Note_on_c, 1, 56, 56
3, 35076, Note_on_c, 1, 56, 0
3, 35160, Note_on_c, 1, 57, 64
3, 35196, Note_on_c, 1, 57, 0
3, 35280, Note_on_c, 1, 58, 72
3, 35316, Note_on_c, 1, 58, 0
3, 35400, Note_on_c, 1, 59, 64
3, 35436, Note_on_c, 1, 59, 0
3, 35520, Note_on_c, 1, 56, 56
3, 35640, Note_on_c, 1, 56, 0
3, 35640, Note_on_c, 1, 57, 48
3, 35676, Note_on_c, 1, 57, 0
3, 35880, Note_on_c, 1, 57, 40
3, 35916, Note_on_c, 1, 57, 0
3, 36000, Note_on_c, 1, 50, 40
3, 36036, Note_on_c, 1, 50, 0
3, 36240, Note_on_c, 1, 45, 80
3, 36240, Note_on_c, 1, 57, 80
3, 36276, Note_on_c, 1, 57, 0
3, 36276, Note_on_c, 1, 45, 0
3, 36360, Note_on_c, 1, 38, 80
3, 36360, Note_on_c, 1, 50, 80
3, 36456, Note_on_c, 1, 50, 0
3, 36456, Note_on_c, 1, 38, 0
3, 36720, Note_on_c, 1, 57, 40
3, 36720, Note_on_c, 1, 53, 40
3, 36720, Note_on_c, 1, 50, 40
3, 36768, Note_on_c, 1, 50, 0
3, 36768, Note_on_c, 1, 53, 0
3, 36768, Note_on_c, 1, 57, 0
3, 37200, Note_on_c, 1, 57, 40
3, 37200, Note_on_c, 1, 53, 40
3, 37200, Note_on_c, 1, 50, 40
3, 37248, Note_on_c, 1, 50, 0
3, 37248, Note_on_c, 1, 53, 0
3, 37248, Note_on_c, 1, 57, 0
3, 37320, Note_on_c, 1, 57, 40
3, 37320, Note_on_c, 1, 53, 40
3, 37320, Note_on_c, 1, 50, 40
3, 37368, Note_on_c, 1, 50, 0
3, 37368, Note_on_c, 1, 53, 0
3, 37368, Note_on_c, 1, 57, 0
3, 37440, Note_on_c, 1, 57, 40
3, 37440, Note_on_c, 1, 53, 40
3, 37440, Note_on_c, 1, 50, 40
3, 37488, Note_on_c, 1, 50, 0
3, 37488, Note_on_c, 1, 53, 0
3, 37488, Note_on_c, 1, 57, 0
3, 37920, Note_on_c, 1, 50, 40
3, 37920, Note_on_c, 1, 53, 40
3, 37920, Note_on_c, 1, 57, 40
3, 37968, Note_on_c, 1, 57, 0
3, 37968, Note_on_c, 1, 53, 0
3, 37968, Note_on_c, 1, 50, 0
3, 38040, Note_on_c, 1, 50, 40
3, 38040, Note_on_c, 1, 53, 40
3, 38040, Note_on_c, 1, 57, 40
3, 38088, Note_on_c, 1, 57, 0
3, 38088, Note_on_c, 1, 53, 0
3, 38088, Note_on_c, 1, 50, 0
3, 38160, Note_on_c, 1, 50, 80
3, 38160, Note_on_c, 1, 53, 80
3, 38160, Note_on_c, 1, 56, 80
3, 38160, Note_on_c, 1, 59, 80
3, 39353, Note_on_c, 1, 59, 0
3, 39353, Note_on_c, 1, 50, 0
3, 39353, Note_on_c, 1, 53, 0
3, 39353, Note_on_c, 1, 56, 0
3, 39600, Note_on_c, 1, 57, 40
3, 39600, Note_on_c, 1, 52, 40
3, 39600, Note_on_c, 1, 48, 40
3, 39648, Note_on_c, 1, 48, 0
3, 39648, Note_on_c, 1, 52, 0
3, 39648, Note_on_c, 1, 57, 0
3, 40080, Note_on_c, 1, 48, 40
3, 40080, Note_on_c, 1, 52, 40
3, 40080, Note_on_c, 1, 57, 40
3, 40128, Note_on_c, 1, 57, 0
3, 40128, Note_on_c, 1, 52, 0
3, 40128, Note_on_c, 1, 48, 0
3, 40200, Note_on_c, 1, 48, 40
3, 40200, Note_on_c, 1, 52, 40
3, 40200, Note_on_c, 1, 57, 40
3, 40248, Note_on_c, 1, 57, 0
3, 40248, Note_on_c, 1, 52, 0
3, 40248, Note_on_c, 1, 48, 0
3, 40320, Note_on_c, 1, 57, 40
3, 40320, Note_on_c, 1, 52, 40
3, 40320, Note_on_c, 1, 48, 40
3, 40368, Note_on_c, 1, 48, 0
3, 40368, Note_on_c, 1, 52, 0
3, 40368, Note_on_c, 1, 57, 0
3, 40800, Note_on_c, 1, 57, 40
3, 40800, Note_on_c, 1, 52, 40
3, 40800, Note_on_c, 1, 48, 40
3, 40848, Note_on_c, 1, 48, 0
3, 40848, Note_on_c, 1, 52, 0
3, 40848, Note_on_c, 1, 57, 0
3, 40920, Note_on_c, 1, 57, 40
3, 40920, Note_on_c, 1, 52, 40
3, 40920, Note_on_c, 1, 48, 40
3, 40968, Note_on_c, 1, 48, 0
3, 40968, Note_on_c, 1, 52, 0
3, 40968, Note_on_c, 1, 57, 0
3, 41040, Note_on_c, 1, 60, 80
3, 41040, Note_on_c, 1, 57, 80
3, 41040, Note_on_c, 1, 54, 80
3, 41040, Note_on_c, 1, 51, 80
3, 41136, Note_on_c, 1, 51, 0
3, 41136, Note_on_c, 1, 60, 0
3, 41136, Note_on_c, 1, 57, 0
3, 41136, Note_on_c, 1, 54, 0
3, 41760, Note_on_c, 1, 52, 80
3, 41790, Note_on_c, 1, 55, 80
3, 41820, Note_on_c, 1, 59, 80
3, 41874, Note_on_c, 1, 59, 0
3, 41874, Note_on_c, 1, 55, 0
3, 41874, Note_on_c, 1, 52, 0
3, 42480, Note_on_c, 1, 48, 80
3, 42480, Note_on_c, 1, 52, 80
3, 42480, Note_on_c, 1, 55, 80
3, 42480, Note_on_c, 1, 58, 80
3, 43313, Note_on_c, 1, 58, 0
3, 43313, Note_on_c, 1, 48, 0
3, 43313, Note_on_c, 1, 52, 0
3, 43313, Note_on_c, 1, 55, 0
3, 43920, Note_on_c, 1, 47, 56
3, 43968, Note_on_c, 1, 47, 0
3, 43980, Note_on_c, 1, 59, 56
3, 44028, Note_on_c, 1, 59, 0
3, 44040, Note_on_c, 1, 58, 56
3, 44088, Note_on_c, 1, 58, 0
3, 44100, Note_on_c, 1, 59, 56
3, 44148, Note_on_c, 1, 59, 0
3, 44160, Note_on_c, 1, 58, 56
3, 44208, Note_on_c, 1, 58, 0
3, 44220, Note_on_c, 1, 59, 56
3, 44268, Note_on_c, 1, 59, 0
3, 44280, Note_on_c, 1, 47, 56
3, 44328, Note_on_c, 1, 47, 0
3, 44340, Note_on_c, 1, 59, 56
3, 44388, Note_on_c, 1, 59, 0
3, 44400, Note_on_c, 1, 58, 56
3, 44448, Note_on_c, 1, 58, 0
3, 44460, Note_on_c, 1, 59, 56
3, 44508, Note_on_c, 1, 59, 0
3, 44520, Note_on_c, 1, 58, 56
3, 44568, Note_on_c, 1, 58, 0
3, 44580, Note_on_c, 1, 59, 56
3, 44628, Note_on_c, 1, 59, 0
3, 44640, Note_on_c, 1, 47, 56
3, 44688, Note_on_c, 1, 47, 0
3, 44700, Note_on_c, 1, 59, 56
3, 44748, Note_on_c, 1, 59, 0
3, 44760, Note_on_c, 1, 58, 56
3, 44808, Note_on_c, 1, 58, 0
3, 44820, Note_on_c, 1, 59, 56
3, 44868, Note_on_c, 1, 59, 0
3, 44880, Note_on_c, 1, 58, 56
3, 44928, Note_on_c, 1, 58, 0
3, 44940, Note_on_c, 1, 59, 56
3, 44988, Note_on_c, 1, 59, 0
3, 45000, Note_on_c, 1, 47, 56
3, 45048, Note_on_c, 1, 47, 0
3, 45060, Note_on_c, 1, 59, 56
3, 45108, Note_on_c, 1, 59, 0
3, 45120, Note_on_c, 1, 58, 56
3, 45168, Note_on_c, 1, 58, 0
3, 45180, Note_on_c, 1, 59, 56
3, 45228, Note_on_c, 1, 59, 0
3, 45240, Note_on_c, 1, 58, 56
3, 45288, Note_on_c, 1, 58, 0
3, 45300, Note_on_c, 1, 59, 56
3, 45348, Note_on_c, 1, 59, 0
3, 45360, Note_on_c, 1, 47, 80
3, 45396, Note_on_c, 1, 47, 0
3, 45600, Note_on_c, 1, 59, 80
3, 45600, Note_on_c, 1, 63, 80
3, 45720, Note_on_c, 1, 63, 0
3, 45720, Note_on_c, 1, 59, 0
3, 45720, Note_on_c, 1, 59, 80
3, 45720, Note_on_c, 1, 64, 80
3, 45768, Note_on_c, 1, 64, 0
3, 45768, Note_on_c, 1, 59, 0
3, 45960, Note_on_c, 1, 59, 80
3, 45960, Note_on_c, 1, 64, 80
3, 46080, Note_on_c, 1, 64, 0
3, 46080, Note_on_c, 1, 59, 0
3, 46080, Note_on_c, 1, 59, 80
3, 46080, Note_on_c, 1, 66, 80
3, 46128, Note_on_c, 1, 66, 0
3, 46128, Note_on_c, 1, 59, 0
3, 46320, Note_on_c, 1, 59, 80
3, 46320, Note_on_c, 1, 66, 80
3, 46440, Note_on_c, 1, 66, 0
3, 46440, Note_on_c, 1, 59, 0
3, 46440, Note_on_c, 1, 59, 80
3, 46440, Note_on_c, 1, 67, 80
3, 46488, Note_on_c, 1, 67, 0
3, 46488, Note_on_c, 1, 59, 0
3, 46680, Note_on_c, 1, 59, 80
3, 46680, Note_on_c, 1, 64, 80
3, 46800, Note_on_c, 1, 64, 0
3, 46800, Note_on_c, 1, 59, 0
3, 46800, Note_on_c, 1, 59, 80
3, 46800, Note_on_c, 1, 63, 80
3, 46848, Note_on_c, 1, 63, 0
3, 46848, Note_on_c, 1, 59, 0
3, 47400, Note_on_c, 1, 72, 80
3, 47400, Note_on_c, 1, 69, 80
3, 47400, Note_on_c, 1, 66, 80
3, 47436, Note_on_c, 1, 66, 0
3, 47436, Note_on_c, 1, 69, 0
3, 47436, Note_on_c, 1, 72, 0
3, 47760, Note_on_c, 1, 72, 80
3, 47760, Note_on_c, 1, 69, 80
3, 47760, Note_on_c, 1, 66, 80
3, 47796, Note_on_c, 1, 66, 0
3, 47796, Note_on_c, 1, 69, 0
3, 47796, Note_on_c, 1, 72, 0
3, 48120, Note_on_c, 1, 67, 80
3, 48120, Note_on_c, 1, 64, 80
3, 48120, Note_on_c, 1, 60, 80
3, 48156, Note_on_c, 1, 60, 0
3, 48156, Note_on_c, 1, 64, 0
3, 48156, Note_on_c, 1, 67, 0
3, 48480, Note_on_c, 1, 67, 80
3, 48480, Note_on_c, 1, 64, 80
3, 48480, Note_on_c, 1, 60, 80
3, 48552, Note_on_c, 1, 60, 0
3, 48552, Note_on_c, 1, 64, 0
3, 48552, Note_on_c, 1, 67, 0
3, 48600, Note_on_c, 1, 59, 56
3, 48648, Note_on_c, 1, 59, 0
3, 48660, Note_on_c, 1, 67, 56
3, 48708, Note_on_c, 1, 67, 0
3, 48720, Note_on_c, 1, 64, 56
3, 48768, Note_on_c, 1, 64, 0
3, 48780, Note_on_c, 1, 67, 56
3, 48828, Note_on_c, 1, 67, 0
3, 48840, Note_on_c, 1, 59, 56
3, 48888, Note_on_c, 1, 59, 0
3, 48900, Note_on_c, 1, 67, 56
3, 48948, Note_on_c, 1, 67, 0
3, 48960, Note_on_c, 1, 59, 64
3, 49008, Note_on_c, 1, 59, 0
3, 49020, Note_on_c, 1, 69, 60
3, 49068, Note_on_c, 1, 69, 0
3, 49080, Note_on_c, 1, 63, 56
3, 49128, Note_on_c, 1, 63, 0
3, 49140, Note_on_c, 1, 69, 52
3, 49188, Note_on_c, 1, 69, 0
3, 49200, Note_on_c, 1, 59, 48
3, 49248, Note_on_c, 1, 59, 0
3, 49260, Note_on_c, 1, 69, 44
3, 49308, Note_on_c, 1, 69, 0
3, 49320, Note_on_c, 1, 67, 40
3, 49320, Note_on_c, 1, 64, 40
3, 49368, Note_on_c, 1, 64, 0
3, 49368, Note_on_c, 1, 67, 0
3, 49560, Note_on_c, 1, 55, 40
3, 49596, Note_on_c, 1, 55, 0
3, 49680, Note_on_c, 1, 56, 40
3, 49716, Note_on_c, 1, 56, 0
3, 49800, Note_on_c, 1, 57, 51
3, 49836, Note_on_c, 1, 57, 0
3, 49920, Note_on_c, 1, 58, 61
3, 49956, Note_on_c, 1, 58, 0
3, 50040, Note_on_c, 1, 59, 72
3, 50076, Note_on_c, 1, 59, 0
3, 50160, Note_on_c, 1, 60, 61
3, 50196, Note_on_c, 1, 60, 0
3, 50280, Note_on_c, 1, 58, 51
3, 50400, Note_on_c, 1, 58, 0
3, 50400, Note_on_c, 1, 59, 40
3, 50436, Note_on_c, 1, 59, 0
3, 50640, Note_on_c, 1, 59, 40
3, 50676, Note_on_c, 1, 59, 0
3, 50760, Note_on_c, 1, 52, 40
3, 50796, Note_on_c, 1, 52, 0
3, 51000, Note_on_c, 1, 47, 80
3, 51000, Note_on_c, 1, 59, 80
3, 51048, Note_on_c, 1, 59, 0
3, 51048, Note_on_c, 1, 47, 0
3, 51120, Note_on_c, 1, 40, 80
3, 51120, Note_on_c, 1, 52, 80
3, 51168, Note_on_c, 1, 52, 0
3, 51168, Note_on_c, 1, 40, 0
3, 51360, Note_on_c, 1, 57, 56
3, 51408, Note_on_c, 1, 57, 0
3, 51480, Note_on_c, 1, 50, 56
3, 51528, Note_on_c, 1, 50, 0
3, 51720, Note_on_c, 1, 45, 80
3, 51720, Note_on_c, 1, 57, 80
3, 51768, Note_on_c, 1, 57, 0
3, 51768, Note_on_c, 1, 45, 0
3, 51840, Note_on_c, 1, 38, 80
3, 51840, Note_on_c, 1, 50, 80
3, 51924, Note_on_c, 1, 50, 0
3, 51924, Note_on_c, 1, 38, 0
3, 52080, Note_on_c, 1, 55, 40
3, 52128, Note_on_c, 1, 55, 0
3, 52200, Note_on_c, 1, 48, 40
3, 52248, Note_on_c, 1, 48, 0
3, 52440, Note_on_c, 1, 43, 80
3, 52440, Note_on_c, 1, 55, 80
3, 52488, Note_on_c, 1, 55, 0
3, 52488, Note_on_c, 1, 43, 0
3, 52560, Note_on_c, 1, 36, 80
3, 52560, Note_on_c, 1, 48, 80
3, 52680, Note_on_c, 1, 48, 0
3, 52680, Note_on_c, 1, 36, 0
3, 53760, Note_on_c, 1, 50, 32
3, 53760, Note_on_c, 1, 57, 32
3, 53760, Note_on_c, 1, 60, 32
3, 53808, Note_on_c, 1, 60, 0
3, 53808, Note_on_c, 1, 57, 0
3, 53808, Note_on_c, 1, 50, 0
3, 53880, Note_on_c, 1, 50, 36
3, 53880, Note_on_c, 1, 57, 36
3, 53880, Note_on_c, 1, 60, 36
3, 53928, Note_on_c, 1, 60, 0
3, 53928, Note_on_c, 1, 57, 0
3, 53928, Note_on_c, 1, 50, 0
3, 54000, Note_on_c, 1, 50, 40
3, 54000, Note_on_c, 1, 57, 40
3, 54000, Note_on_c, 1, 60, 40
3, 54048, Note_on_c, 1, 60, 0
3, 54048, Note_on_c, 1, 57, 0
3, 54048, Note_on_c, 1, 50, 0
3, 54120, Note_on_c, 1, 50, 44
3, 54120, Note_on_c, 1, 57, 44
3, 54120, Note_on_c, 1, 60, 44
3, 54168, Note_on_c, 1, 60, 0
3, 54168, Note_on_c, 1, 57, 0
3, 54168, Note_on_c, 1, 50, 0
3, 54240, Note_on_c, 1, 51, 48
3, 54240, Note_on_c, 1, 57, 48
3, 54240, Note_on_c, 1, 59, 48
3, 54360, Note_on_c, 1, 59, 0
3, 54360, Note_on_c, 1, 57, 0
3, 54360, Note_on_c, 1, 51, 0
3, 54360, Note_on_c, 1, 52, 56
3, 54360, Note_on_c, 1, 55, 56
3, 54360, Note_on_c, 1, 59, 56
3, 54444, Note_on_c, 1, 59, 0
3, 54444, Note_on_c, 1, 55, 0
3, 54444, Note_on_c, 1, 52, 0
3, 55200, Note_on_c, 1, 54, 36
3, 55200, Note_on_c, 1, 62, 36
3, 55248, Note_on_c, 1, 62, 0
3, 55248, Note_on_c, 1, 54, 0
3, 55320, Note_on_c, 1, 54, 44
3, 55320, Note_on_c, 1, 62, 44
3, 55368, Note_on_c, 1, 62, 0
3, 55368, Note_on_c, 1, 54, 0
3, 55440, Note_on_c, 1, 54, 52
3, 55440, Note_on_c, 1, 62, 52
3, 55488, Note_on_c, 1, 62, 0
3, 55488, Note_on_c, 1, 54, 0
3, 55560, Note_on_c, 1, 54, 40
3, 55560, Note_on_c, 1, 62, 40
3, 55608, Note_on_c, 1, 62, 0
3, 55608, Note_on_c, 1, 54, 0
3, 55680, Note_on_c, 1, 69, 47
3, 55800, Note_on_c, 1, 69, 0
3, 55800, Note_on_c, 1, 71, 40
3, 55920, Note_on_c, 1, 71, 0
3, 55920, Note_on_c, 1, 66, 48
3, 56040, Note_on_c, 1, 66, 0
3, 56040, Note_on_c, 1, 67, 56
3, 56160, Note_on_c, 1, 67, 0
3, 56160, Note_on_c, 1, 63, 64
3, 56280, Note_on_c, 1, 63, 0
3, 56280, Note_on_c, 1, 64, 69
3, 56400, Note_on_c, 1, 64, 0
3, 56400, Note_on_c, 1, 59, 75
3, 56520, Note_on_c, 1, 59, 0
3, 56520, Note_on_c, 1, 62, 80
3, 56880, Note_on_c, 1, 62, 0
3, 56880, Note_on_c, 1, 61, 64
3, 56976, Note_on_c, 1, 61, 0
3, 57240, Note_on_c, 1, 62, 56
3, 57336, Note_on_c, 1, 62, 0
3, 58080, Note_on_c, 1, 62, 40
3, 58128, Note_on_c, 1, 62, 0
3, 58200, Note_on_c, 1, 61, 40
3, 58248, Note_on_c, 1, 61, 0
3, 58320, Note_on_c, 1, 62, 56
3, 58440, Note_on_c, 1, 62, 0
3, 58440, Note_on_c, 1, 61, 56
3, 58488, Note_on_c, 1, 61, 0
3, 58560, Note_on_c, 1, 62, 56
3, 58608, Note_on_c, 1, 62, 0
3, 58680, Note_on_c, 1, 50, 56
3, 58776, Note_on_c, 1, 50, 0
3, 59520, Note_on_c, 1, 63, 40
3, 59520, Note_on_c, 1, 67, 40
3, 59568, Note_on_c, 1, 67, 0
3, 59568, Note_on_c, 1, 63, 0
3, 59640, Note_on_c, 1, 62, 40
3, 59640, Note_on_c, 1, 66, 40
3, 59688, Note_on_c, 1, 66, 0
3, 59688, Note_on_c, 1, 62, 0
3, 59760, Note_on_c, 1, 63, 40
3, 59760, Note_on_c, 1, 67, 40
3, 59880, Note_on_c, 1, 67, 0
3, 59880, Note_on_c, 1, 63, 0
3, 59880, Note_on_c, 1, 62, 48
3, 59880, Note_on_c, 1, 66, 48
3, 59928, Note_on_c, 1, 66, 0
3, 59928, Note_on_c, 1, 62, 0
3, 60000, Note_on_c, 1, 63, 56
3, 60000, Note_on_c, 1, 67, 56
3, 60048, Note_on_c, 1, 67, 0
3, 60048, Note_on_c, 1, 63, 0
3, 60120, Note_on_c, 1, 62, 56
3, 60120, Note_on_c, 1, 66, 56
3, 60168, Note_on_c, 1, 66, 0
3, 60168, Note_on_c, 1, 62, 0
3, 61560, Note_on_c, 1, 43, 56
3, 61680, Note_on_c, 1, 43, 0
3, 61680, Note_on_c, 1, 55, 56
3, 61716, Note_on_c, 1, 55, 0
3, 61800, Note_on_c, 1, 55, 56
3, 61836, Note_on_c, 1, 55, 0
3, 61920, Note_on_c, 1, 55, 56
3, 61956, Note_on_c, 1, 55, 0
3, 62040, Note_on_c, 1, 55, 56
3, 62076, Note_on_c, 1, 55, 0
3, 62160, Note_on_c, 1, 55, 56
3, 62196, Note_on_c, 1, 55, 0
3, 62280, Note_on_c, 1, 55, 56
3, 62316, Note_on_c, 1, 55, 0
3, 62400, Note_on_c, 1, 55, 56
3, 62436, Note_on_c, 1, 55, 0
3, 62520, Note_on_c, 1, 55, 56
3, 62556, Note_on_c, 1, 55, 0
3, 62640, Note_on_c, 1, 55, 56
3, 62676, Note_on_c, 1, 55, 0
3, 62760, Note_on_c, 1, 55, 56
3, 62796, Note_on_c, 1, 55, 0
3, 62880, Note_on_c, 1, 55, 56
3, 62916, Note_on_c, 1, 55, 0
3, 63000, Note_on_c, 1, 43, 56
3, 63120, Note_on_c, 1, 43, 0
3, 63120, Note_on_c, 1, 55, 56
3, 63156, Note_on_c, 1, 55, 0
3, 63240, Note_on_c, 1, 55, 56
3, 63276, Note_on_c, 1, 55, 0
3, 63360, Note_on_c, 1, 55, 56
3, 63396, Note_on_c, 1, 55, 0
3, 63480, Note_on_c, 1, 55, 56
3, 63516, Note_on_c, 1, 55, 0
3, 63600, Note_on_c, 1, 55, 56
3, 63636, Note_on_c, 1, 55, 0
3, 63720, Note_on_c, 1, 55, 56
3, 63756, Note_on_c, 1, 55, 0
3, 63840, Note_on_c, 1, 55, 56
3, 63876, Note_on_c, 1, 55, 0
3, 63960, Note_on_c, 1, 55, 56
3, 63996, Note_on_c, 1, 55, 0
3, 64080, Note_on_c, 1, 55, 56
3, 64116, Note_on_c, 1, 55, 0
3, 64200, Note_on_c, 1, 55, 56
3, 64236, Note_on_c, 1, 55, 0
3, 64320, Note_on_c, 1, 55, 56
3, 64356, Note_on_c, 1, 55, 0
3, 64440, Note_on_c, 1, 47, 40
3, 64440, Note_on_c, 1, 35, 40
3, 64548, Note_on_c, 1, 35, 0
3, 64548, Note_on_c, 1, 47, 0
3, 64800, Note_on_c, 1, 48, 48
3, 64800, Note_on_c, 1, 36, 48
3, 64908, Note_on_c, 1, 36, 0
3, 64908, Note_on_c, 1, 48, 0
3, 65160, Note_on_c, 1, 50, 56
3, 65160, Note_on_c, 1, 38, 56
3, 65268, Note_on_c, 1, 38, 0
3, 65268, Note_on_c, 1, 50, 0
3, 65520, Note_on_c, 1, 52, 64
3, 65520, Note_on_c, 1, 40, 64
3, 65628, Note_on_c, 1, 40, 0
3, 65628, Note_on_c, 1, 52, 0
3, 65880, Note_on_c, 1, 54, 56
3, 65928, Note_on_c, 1, 54, 0
3, 65940, Note_on_c, 1, 62, 40
3, 65988, Note_on_c, 1, 62, 0
3, 66000, Note_on_c, 1, 61, 40
3, 66048, Note_on_c, 1, 61, 0
3, 66060, Note_on_c, 1, 62, 40
3, 66108, Note_on_c, 1, 62, 0
3, 66120, Note_on_c, 1, 54, 40
3, 66168, Note_on_c, 1, 54, 0
3, 66180, Note_on_c, 1, 62, 40
3, 66228, Note_on_c, 1, 62, 0
3, 66240, Note_on_c, 1, 55, 40
3, 66288, Note_on_c, 1, 55, 0
3, 66300, Note_on_c, 1, 62, 40
3, 66348, Note_on_c, 1, 62, 0
3, 66360, Note_on_c, 1, 61, 40
3, 66408, Note_on_c, 1, 61, 0
3, 66420, Note_on_c, 1, 62, 40
3, 66468, Note_on_c, 1, 62, 0
3, 66480, Note_on_c, 1, 55, 40
3, 66528, Note_on_c, 1, 55, 0
3, 66540, Note_on_c, 1, 62, 40
3, 66588, Note_on_c, 1, 62, 0
3, 66600, Note_on_c, 1, 57, 40
3, 66648, Note_on_c, 1, 57, 0
3, 66660, Note_on_c, 1, 62, 40
3, 66708, Note_on_c, 1, 62, 0
3, 66720, Note_on_c, 1, 61, 40
3, 66768, Note_on_c, 1, 61, 0
3, 66780, Note_on_c, 1, 62, 40
3, 66828, Note_on_c, 1, 62, 0
3, 66840, Note_on_c, 1, 57, 40
3, 66888, Note_on_c, 1, 57, 0
3, 66900, Note_on_c, 1, 62, 40
3, 66948, Note_on_c, 1, 62, 0
3, 66960, Note_on_c, 1, 59, 40
3, 67008, Note_on_c, 1, 59, 0
3, 67020, Note_on_c, 1, 62, 40
3, 67068, Note_on_c, 1, 62, 0
3, 67080, Note_on_c, 1, 61, 40
3, 67128, Note_on_c, 1, 61, 0
3, 67140, Note_on_c, 1, 62, 40
3, 67188, Note_on_c, 1, 62, 0
3, 67200, Note_on_c, 1, 59, 40
3, 67248, Note_on_c, 1, 59, 0
3, 67260, Note_on_c, 1, 62, 40
3, 67308, Note_on_c, 1, 62, 0
3, 67320, Note_on_c, 1, 60, 56
3, 67320, Note_on_c, 1, 64, 56
3, 67416, Note_on_c, 1, 64, 0
3, 67416, Note_on_c, 1, 60, 0
3, 67920, Note_on_c, 1, 67, 56
3, 67920, Note_on_c, 1, 60, 56
3, 68040, Note_on_c, 1, 60, 0
3, 68040, Note_on_c, 1, 67, 0
3, 68040, Note_on_c, 1, 66, 72
3, 68040, Note_on_c, 1, 62, 72
3, 68076, Note_on_c, 1, 62, 0
3, 68076, Note_on_c, 1, 66, 0
3, 68280, Note_on_c, 1, 66, 64
3, 68280, Note_on_c, 1, 62, 64
3, 68400, Note_on_c, 1, 62, 0
3, 68400, Note_on_c, 1, 66, 0
3, 68400, Note_on_c, 1, 67, 64
3, 68400, Note_on_c, 1, 64, 64
3, 68436, Note_on_c, 1, 64, 0
3, 68436, Note_on_c, 1, 67, 0
3, 68640, Note_on_c, 1, 67, 56
3, 68640, Note_on_c, 1, 64, 56
3, 68760, Note_on_c, 1, 64, 0
3, 68760, Note_on_c, 1, 67, 0
3, 68760, Note_on_c, 1, 64, 56
3, 68760, Note_on_c, 1, 60, 56
3, 68796, Note_on_c, 1, 60, 0
3, 68796, Note_on_c, 1, 64, 0
3, 69000, Note_on_c, 1, 60, 48
3, 69000, Note_on_c, 1, 48, 48
3, 69120, Note_on_c, 1, 48, 0
3, 69120, Note_on_c, 1, 60, 0
3, 69120, Note_on_c, 1, 59, 48
3, 69120, Note_on_c, 1, 50, 48
3, 69156, Note_on_c, 1, 50, 0
3, 69156, Note_on_c, 1, 59, 0
3, 69360, Note_on_c, 1, 59, 44
3, 69360, Note_on_c, 1, 50, 44
3, 69480, Note_on_c, 1, 50, 0
3, 69480, Note_on_c, 1, 59, 0
3, 69480, Note_on_c, 1, 57, 44
3, 69480, Note_on_c, 1, 50, 44
3, 69516, Note_on_c, 1, 50, 0
3, 69516, Note_on_c, 1, 57, 0
3, 69720, Note_on_c, 1, 50, 40
3, 69720, Note_on_c, 1, 57, 40
3, 69840, Note_on_c, 1, 57, 0
3, 69840, Note_on_c, 1, 50, 0
3, 69840, Note_on_c, 1, 55, 40
3, 69840, Note_on_c, 1, 59, 40
3, 69876, Note_on_c, 1, 59, 0
3, 69876, Note_on_c, 1, 55, 0
3, 70200, Note_on_c, 1, 43, 72
3, 70248, Note_on_c, 1, 43, 0
3, 70260, Note_on_c, 1, 55, 72
3, 70308, Note_on_c, 1, 55, 0
3, 70320, Note_on_c, 1, 54, 72
3, 70368, Note_on_c, 1, 54, 0
3, 70380, Note_on_c, 1, 55, 72
3, 70428, Note_on_c, 1, 55, 0
3, 70440, Note_on_c, 1, 57, 72
3, 70452, Note_on_c, 1, 57, 0
3, 70500, Note_on_c, 1, 55, 72
3, 70512, Note_on_c, 1, 55, 0
3, 70560, Note_on_c, 1, 43, 72
3, 70620, Note_on_c, 1, 43, 0
3, 70920, Note_on_c, 1, 43, 72
3, 70968, Note_on_c, 1, 43, 0
3, 70980, Note_on_c, 1, 55, 72
3, 71028, Note_on_c, 1, 55, 0
3, 71040, Note_on_c, 1, 54, 72
3, 71088, Note_on_c, 1, 54, 0
3, 71100, Note_on_c, 1, 55, 72
3, 71148, Note_on_c, 1, 55, 0
3, 71160, Note_on_c, 1, 57, 72
3, 71172, Note_on_c, 1, 57, 0
3, 71220, Note_on_c, 1, 55, 72
3, 71232, Note_on_c, 1, 55, 0
3, 71280, Note_on_c, 1, 43, 72
3, 71340, Note_on_c, 1, 43, 0
3, 71640, Note_on_c, 1, 43, 72
3, 71688, Note_on_c, 1, 43, 0
3, 71700, Note_on_c, 1, 55, 72
3, 71748, Note_on_c, 1, 55, 0
3, 71760, Note_on_c, 1, 54, 72
3, 71808, Note_on_c, 1, 54, 0
3, 71820, Note_on_c, 1, 55, 72
3, 71868, Note_on_c, 1, 55, 0
3, 71880, Note_on_c, 1, 57, 72
3, 71928, Note_on_c, 1, 57, 0
3, 71940, Note_on_c, 1, 55, 72
3, 71988, Note_on_c, 1, 55, 0
3, 72000, Note_on_c, 1, 43, 72
3, 72060, Note_on_c, 1, 43, 0
3, 72360, Note_on_c, 1, 43, 72
3, 72408, Note_on_c, 1, 43, 0
3, 72420, Note_on_c, 1, 55, 72
3, 72468, Note_on_c, 1, 55, 0
3, 72480, Note_on_c, 1, 54, 72
3, 72528, Note_on_c, 1, 54, 0
3, 72540, Note_on_c, 1, 55, 72
3, 72588, Note_on_c, 1, 55, 0
3, 72600, Note_on_c, 1, 57, 72
3, 72612, Note_on_c, 1, 57, 0
3, 72660, Note_on_c, 1, 55, 72
3, 72672, Note_on_c, 1, 55, 0
3, 72720, Note_on_c, 1, 43, 72
3, 72780, Note_on_c, 1, 43, 0
3, 73080, Note_on_c, 1, 60, 56
3, 73128, Note_on_c, 1, 60, 0
3, 73140, Note_on_c, 1, 67, 56
3, 73188, Note_on_c, 1, 67, 0
3, 73200, Note_on_c, 1, 66, 56
3, 73248, Note_on_c, 1, 66, 0
3, 73260, Note_on_c, 1, 67, 56
3, 73308, Note_on_c, 1, 67, 0
3, 73320, Note_on_c, 1, 62, 56
3, 73368, Note_on_c, 1, 62, 0
3, 73380, Note_on_c, 1, 67, 56
3, 73428, Note_on_c, 1, 67, 0
3, 73440, Note_on_c, 1, 64, 56
3, 73488, Note_on_c, 1, 64, 0
3, 73500, Note_on_c, 1, 67, 56
3, 73548, Note_on_c, 1, 67, 0
3, 73560, Note_on_c, 1, 66, 56
3, 73608, Note_on_c, 1, 66, 0
3, 73620, Note_on_c, 1, 67, 56
3, 73668, Note_on_c, 1, 67, 0
3, 73680, Note_on_c, 1, 62, 56
3, 73728, Note_on_c, 1, 62, 0
3, 73740, Note_on_c, 1, 67, 56
3, 73788, Note_on_c, 1, 67, 0
3, 73800, Note_on_c, 1, 60, 56
3, 73848, Note_on_c, 1, 60, 0
3, 73860, Note_on_c, 1, 67, 56
3, 73908, Note_on_c, 1, 67, 0
3, 73920, Note_on_c, 1, 66, 56
3, 73968, Note_on_c, 1, 66, 0
3, 73980, Note_on_c, 1, 67, 56
3, 74028, Note_on_c, 1, 67, 0
3, 74040, Note_on_c, 1, 62, 56
3, 74088, Note_on_c, 1, 62, 0
3, 74100, Note_on_c, 1, 67, 56
3, 74148, Note_on_c, 1, 67, 0
3, 74160, Note_on_c, 1, 64, 56
3, 74208, Note_on_c, 1, 64, 0
3, 74220, Note_on_c, 1, 67, 56
3, 74268, Note_on_c, 1, 67, 0
3, 74280, Note_on_c, 1, 66, 56
3, 74328, Note_on_c, 1, 66, 0
3, 74340, Note_on_c, 1, 67, 56
3, 74388, Note_on_c, 1, 67, 0
3, 74400, Note_on_c, 1, 62, 56
3, 74448, Note_on_c, 1, 62, 0
3, 74460, Note_on_c, 1, 67, 56
3, 74508, Note_on_c, 1, 67, 0
3, 74520, Note_on_c, 1, 60, 40
3, 74568, Note_on_c, 1, 60, 0
3, 74580, Note_on_c, 1, 67, 40
3, 74628, Note_on_c, 1, 67, 0
3, 74640, Note_on_c, 1, 66, 40
3, 74688, Note_on_c, 1, 66, 0
3, 74700, Note_on_c, 1, 67, 40
3, 74748, Note_on_c, 1, 67, 0
3, 74760, Note_on_c, 1, 62, 40
3, 74808, Note_on_c, 1, 62, 0
3, 74820, Note_on_c, 1, 67, 40
3, 74868, Note_on_c, 1, 67, 0
3, 74880, Note_on_c, 1, 64, 40
3, 74928, Note_on_c, 1, 64, 0
3, 74940, Note_on_c, 1, 67, 40
3, 74988, Note_on_c, 1, 67, 0
3, 75000, Note_on_c, 1, 66, 40
3, 75048, Note_on_c, 1, 66, 0
3, 75060, Note_on_c, 1, 67, 40
3, 75108, Note_on_c, 1, 67, 0
3, 75120, Note_on_c, 1, 61, 40
3, 75168, Note_on_c, 1, 61, 0
3, 75180, Note_on_c, 1, 67, 40
3, 75228, Note_on_c, 1, 67, 0
3, 75240, Note_on_c, 1, 66, 40
3, 75240, Note_on_c, 1, 62, 40
3, 75336, Note_on_c, 1, 62, 0
3, 75336, Note_on_c, 1, 66, 0
3, 75360, Note_on_c, 1, 57, 40
3, 75384, Note_on_c, 1, 57, 0
3, 75480, Note_on_c, 1, 54, 40
3, 75504, Note_on_c, 1, 54, 0
3, 75600, Note_on_c, 1, 50, 40
3, 75624, Note_on_c, 1, 50, 0
3, 76680, Note_on_c, 1, 71, 64
3, 76680, Note_on_c, 1, 62, 64
3, 76800, Note_on_c, 1, 71, 0
3, 76800, Note_on_c, 1, 69, 59
3, 76920, Note_on_c, 1, 69, 0
3, 76920, Note_on_c, 1, 72, 53
3, 77040, Note_on_c, 1, 72, 0
3, 77040, Note_on_c, 1, 71, 48
3, 77160, Note_on_c, 1, 71, 0
3, 77160, Note_on_c, 1, 69, 43
3, 77280, Note_on_c, 1, 69, 0
3, 77280, Note_on_c, 1, 72, 37
3, 77400, Note_on_c, 1, 72, 0
3, 77400, Note_on_c, 1, 71, 32
3, 77496, Note_on_c, 1, 71, 0
3, 77496, Note_on_c, 1, 62, 0
3, 77520, Note_on_c, 1, 62, 32
3, 77568, Note_on_c, 1, 62, 0
3, 77640, Note_on_c, 1, 67, 32
3, 77760, Note_on_c, 1, 67, 0
3, 77760, Note_on_c, 1, 66, 32
3, 77880, Note_on_c, 1, 66, 0
3, 77880, Note_on_c, 1, 62, 32
3, 77928, Note_on_c, 1, 62, 0
3, 78000, Note_on_c, 1, 72, 32
3, 78120, Note_on_c, 1, 72, 0
3, 78120, Note_on_c, 1, 71, 32
3, 78240, Note_on_c, 1, 71, 0
3, 78240, Note_on_c, 1, 62, 32
3, 78288, Note_on_c, 1, 62, 0
3, 78360, Note_on_c, 1, 67, 32
3, 78456, Note_on_c, 1, 67, 0
3, 78480, Note_on_c, 1, 66, 32
3, 78528, Note_on_c, 1, 66, 0
3, 79560, Note_on_c, 1, 69, 64
3, 79560, Note_on_c, 1, 62, 64
3, 79680, Note_on_c, 1, 69, 0
3, 79680, Note_on_c, 1, 67, 59
3, 79800, Note_on_c, 1, 67, 0
3, 79800, Note_on_c, 1, 71, 53
3, 79920, Note_on_c, 1, 71, 0
3, 79920, Note_on_c, 1, 69, 48
3, 80040, Note_on_c, 1, 69, 0
3, 80040, Note_on_c, 1, 67, 43
3, 80160, Note_on_c, 1, 67, 0
3, 80160, Note_on_c, 1, 71, 37
3, 80280, Note_on_c, 1, 71, 0
3, 80280, Note_on_c, 1, 69, 32
3, 80376, Note_on_c, 1, 69, 0
3, 80376, Note_on_c, 1, 62, 0
3, 80400, Note_on_c, 1, 62, 32
3, 80448, Note_on_c, 1, 62, 0
3, 80520, Note_on_c, 1, 72, 32
3, 80640, Note_on_c, 1, 72, 0
3, 80640, Note_on_c, 1, 71, 32
3, 80760, Note_on_c, 1, 71, 0
3, 80760, Note_on_c, 1, 62, 32
3, 80808, Note_on_c, 1, 62, 0
3, 80880, Note_on_c, 1, 67, 32
3, 81000, Note_on_c, 1, 67, 0
3, 81000, Note_on_c, 1, 66, 32
3, 81120, Note_on_c, 1, 66, 0
3, 81120, Note_on_c, 1, 62, 32
3, 81168, Note_on_c, 1, 62, 0
3, 81240, Note_on_c, 1, 66, 32
3, 81360, Note_on_c, 1, 66, 0
3, 81360, Note_on_c, 1, 67, 32
3, 81480, Note_on_c, 1, 67, 0
3, 81720, Note_on_c, 1, 55, 80
3, 81720, Note_on_c, 1, 67, 80
3, 81840, Note_on_c, 1, 67, 0
3, 81840, Note_on_c, 1, 55, 0
3, 81840, Note_on_c, 1, 54, 80
3, 81840, Note_on_c, 1, 66, 80
3, 81960, Note_on_c, 1, 66, 0
3, 81960, Note_on_c, 1, 54, 0
3, 81960, Note_on_c, 1, 57, 80
3, 81960, Note_on_c, 1, 69, 80
3, 82080, Note_on_c, 1, 69, 0
3, 82080, Note_on_c, 1, 57, 0
3, 82080, Note_on_c, 1, 55, 80
3, 82080, Note_on_c, 1, 67, 80
3, 82116, Note_on_c, 1, 67, 0
3, 82116, Note_on_c, 1, 55, 0
3, 82200, Note_on_c, 1, 52, 80
3, 82200, Note_on_c, 1, 55, 80
3, 82260, Note_on_c, 1, 55, 0
3, 82260, Note_on_c, 1, 59, 80
3, 82320, Note_on_c, 1, 59, 0
3, 82320, Note_on_c, 1, 52, 0
3, 82320, Note_on_c, 1, 54, 80
3, 82320, Note_on_c, 1, 57, 80
3, 82380, Note_on_c, 1, 57, 0
3, 82380, Note_on_c, 1, 60, 80
3, 82440, Note_on_c, 1, 60, 0
3, 82440, Note_on_c, 1, 54, 0
3, 82440, Note_on_c, 1, 55, 80
3, 82440, Note_on_c, 1, 59, 80
3, 82524, Note_on_c, 1, 59, 0
3, 82524, Note_on_c, 1, 55, 0
3, 83160, Note_on_c, 1, 36, 80
3, 83160, Note_on_c, 1, 48, 80
3, 83280, Note_on_c, 1, 48, 0
3, 83280, Note_on_c, 1, 36, 0
3, 83280, Note_on_c, 1, 35, 80
3, 83280, Note_on_c, 1, 47, 80
3, 83400, Note_on_c, 1, 47, 0
3, 83400, Note_on_c, 1, 35, 0
3, 83400, Note_on_c, 1, 38, 80
3, 83400, Note_on_c, 1, 50, 80
3, 83520, Note_on_c, 1, 50, 0
3, 83520, Note_on_c, 1, 38, 0
3, 83520, Note_on_c, 1, 36, 80
3, 83520, Note_on_c, 1, 48, 80
3, 83556, Note_on_c, 1, 48, 0
3, 83556, Note_on_c, 1, 36, 0
3, 83640, Note_on_c, 1, 57, 80
3, 83640, Note_on_c, 1, 60, 80
3, 83688, Note_on_c, 1, 60, 0
3, 83700, Note_on_c, 1, 64, 80
3, 83736, Note_on_c, 1, 57, 0
3, 83748, Note_on_c, 1, 64, 0
3, 83760, Note_on_c, 1, 59, 80
3, 83760, Note_on_c, 1, 62, 80
3, 83808, Note_on_c, 1, 62, 0
3, 83820, Note_on_c, 1, 65, 80
3, 83856, Note_on_c, 1, 59, 0
3, 83868, Note_on_c, 1, 65, 0
3, 83880, Note_on_c, 1, 60, 56
3, 83880, Note_on_c, 1, 64, 56
3, 83976, Note_on_c, 1, 64, 0
3, 83976, Note_on_c, 1, 60, 0
3, 84840, Note_on_c, 1, 72, 80
3, 84840, Note_on_c, 1, 69, 80
3, 84840, Note_on_c, 1, 66, 80
3, 84888, Note_on_c, 1, 66, 0
3, 84888, Note_on_c, 1, 69, 0
3, 84888, Note_on_c, 1, 72, 0
3, 85200, Note_on_c, 1, 66, 72
3, 85200, Note_on_c, 1, 69, 72
3, 85200, Note_on_c, 1, 72, 72
3, 85248, Note_on_c, 1, 72, 0
3, 85248, Note_on_c, 1, 69, 0
3, 85248, Note_on_c, 1, 66, 0
3, 85560, Note_on_c, 1, 66, 64
3, 85560, Note_on_c, 1, 69, 64
3, 85560, Note_on_c, 1, 72, 64
3, 85608, Note_on_c, 1, 72, 0
3, 85608, Note_on_c, 1, 69, 0
3, 85608, Note_on_c, 1, 66, 0
3, 85920, Note_on_c, 1, 66, 56
3, 85920, Note_on_c, 1, 69, 56
3, 85920, Note_on_c, 1, 72, 56
3, 85968, Note_on_c, 1, 72, 0
3, 85968, Note_on_c, 1, 69, 0
3, 85968, Note_on_c, 1, 66, 0
3, 86040, Note_on_c, 1, 43, 40
3, 86088, Note_on_c, 1, 43, 0
3, 86100, Note_on_c, 1, 47, 40
3, 86148, Note_on_c, 1, 47, 0
3, 86160, Note_on_c, 1, 50, 40
3, 86208, Note_on_c, 1, 50, 0
3, 86220, Note_on_c, 1, 55, 40
3, 86268, Note_on_c, 1, 55, 0
3, 86280, Note_on_c, 1, 59, 80
3, 86328, Note_on_c, 1, 59, 0
3, 86400, Note_on_c, 1, 48, 40
3, 86448, Note_on_c, 1, 48, 0
3, 86460, Note_on_c, 1, 52, 40
3, 86508, Note_on_c, 1, 52, 0
3, 86520, Note_on_c, 1, 55, 40
3, 86568, Note_on_c, 1, 55, 0
3, 86580, Note_on_c, 1, 60, 40
3, 86628, Note_on_c, 1, 60, 0
3, 86640, Note_on_c, 1, 64, 80
3, 86688, Note_on_c, 1, 64, 0
3, 86760, Note_on_c, 1, 62, 64
3, 86808, Note_on_c, 1, 62, 0
3, 86820, Note_on_c, 1, 71, 64
3, 86868, Note_on_c, 1, 71, 0
3, 86880, Note_on_c, 1, 67, 64
3, 86928, Note_on_c, 1, 67, 0
3, 86940, Note_on_c, 1, 71, 64
3, 86988, Note_on_c, 1, 71, 0
3, 87000, Note_on_c, 1, 62, 64
3, 87048, Note_on_c, 1, 62, 0
3, 87060, Note_on_c, 1, 71, 64
3, 87108, Note_on_c, 1, 71, 0
3, 87120, Note_on_c, 1, 62, 64
3, 87168, Note_on_c, 1, 62, 0
3, 87180, Note_on_c, 1, 72, 59
3, 87228, Note_on_c, 1, 72, 0
3, 87240, Note_on_c, 1, 66, 53
3, 87288, Note_on_c, 1, 66, 0
3, 87300, Note_on_c, 1, 72, 48
3, 87348, Note_on_c, 1, 72, 0
3, 87360, Note_on_c, 1, 62, 43
3, 87408, Note_on_c, 1, 62, 0
3, 87420, Note_on_c, 1, 72, 37
3, 87468, Note_on_c, 1, 72, 0
3, 87480, Note_on_c, 1, 67, 32
3, 87480, Note_on_c, 1, 71, 32
3, 87516, Note_on_c, 1, 71, 0
3, 87516, Note_on_c, 1, 67, 0
3, 88080, Note_on_c, 1, 63, 32
3, 88080, Note_on_c, 1, 69, 32
3, 88116, Note_on_c, 1, 69, 0
3, 88116, Note_on_c, 1, 63, 0
3, 88200, Note_on_c, 1, 64, 32
3, 88200, Note_on_c, 1, 67, 32
3, 88236, Note_on_c, 1, 67, 0
3, 88236, Note_on_c, 1, 64, 0
3, 88800, Note_on_c, 1, 68, 32
3, 88800, Note_on_c, 1, 74, 32
3, 88836, Note_on_c, 1, 74, 0
3, 88836, Note_on_c, 1, 68, 0
3, 89040, Note_on_c, 1, 67, 32
3, 89040, Note_on_c, 1, 73, 32
3, 89076, Note_on_c, 1, 73, 0
3, 89076, Note_on_c, 1, 67, 0
3, 89160, Note_on_c, 1, 66, 32
3, 89160, Note_on_c, 1, 72, 32
3, 89196, Note_on_c, 1, 72, 0
3, 89196, Note_on_c, 1, 66, 0
3, 89400, Note_on_c, 1, 65, 32
3, 89400, Note_on_c, 1, 71, 32
3, 89436, Note_on_c, 1, 71, 0
3, 89436, Note_on_c, 1, 65, 0
3, 89520, Note_on_c, 1, 64, 32
3, 89520, Note_on_c, 1, 72, 32
3, 89556, Note_on_c, 1, 72, 0
3, 89556, Note_on_c, 1, 64, 0
3, 89640, Note_on_c, 1, 62, 32
3, 89640, Note_on_c, 1, 66, 32
3, 89676, Note_on_c, 1, 66, 0
3, 89676, Note_on_c, 1, 62, 0
3, 89880, Note_on_c, 1, 64, 32
3, 89880, Note_on_c, 1, 67, 32
3, 89916, Note_on_c, 1, 67, 0
3, 89916, Note_on_c, 1, 64, 0
3, 90000, Note_on_c, 1, 60, 32
3, 90000, Note_on_c, 1, 67, 32
3, 90096, Note_on_c, 1, 60, 0
3, 90120, Note_on_c, 1, 57, 32
3, 90216, Note_on_c, 1, 57, 0
3, 90216, Note_on_c, 1, 67, 0
3, 90240, Note_on_c, 1, 62, 32
3, 90240, Note_on_c, 1, 66, 32
3, 90336, Note_on_c, 1, 66, 0
3, 90336, Note_on_c, 1, 62, 0
3, 90360, Note_on_c, 1, 67, 32
3, 90396, Note_on_c, 1, 67, 0
3, 90480, Note_on_c, 1, 55, 32
3, 90516, Note_on_c, 1, 55, 0
3, 90600, Note_on_c, 1, 62, 72
3, 90636, Note_on_c, 1, 62, 0
3, 90720, Note_on_c, 1, 60, 72
3, 90816, Note_on_c, 1, 60, 0
3, 90840, Note_on_c, 1, 59, 72
3, 90876, Note_on_c, 1, 59, 0
3, 90960, Note_on_c, 1, 59, 72
3, 90996, Note_on_c, 1, 59, 0
3, 91080, Note_on_c, 1, 59, 72
3, 91116, Note_on_c, 1, 59, 0
3, 91320, Note_on_c, 1, 59, 72
3, 91416, Note_on_c, 1, 59, 0
3, 91440, Note_on_c, 1, 65, 72
3, 91560, Note_on_c, 1, 65, 0
3, 91560, Note_on_c, 1, 64, 72
3, 91596, Note_on_c, 1, 64, 0
3, 91680, Note_on_c, 1, 64, 72
3, 91716, Note_on_c, 1, 64, 0
3, 91800, Note_on_c, 1, 64, 72
3, 92040, Note_on_c, 1, 64, 0
3, 92040, Note_on_c, 1, 57, 72
3, 92076, Note_on_c, 1, 57, 0
3, 92160, Note_on_c, 1, 62, 72
3, 92400, Note_on_c, 1, 62, 0
3, 92400, Note_on_c, 1, 55, 72
3, 92436, Note_on_c, 1, 55, 0
3, 92520, Note_on_c, 1, 60, 72
3, 92556, Note_on_c, 1, 60, 0
3, 92880, Note_on_c, 1, 62, 40
3, 92916, Note_on_c, 1, 62, 0
3, 93480, Note_on_c, 1, 59, 80
3, 93480, Note_on_c, 1, 62, 80
3, 93480, Note_on_c, 1, 67, 80
3, 93516, Note_on_c, 1, 67, 0
3, 93516, Note_on_c, 1, 62, 0
3, 93516, Note_on_c, 1, 59, 0
3, 93840, Note_on_c, 1, 60, 80
3, 93840, Note_on_c, 1, 64, 80
3, 93840, Note_on_c, 1, 67, 80
3, 93876, Note_on_c, 1, 67, 0
3, 93876, Note_on_c, 1, 64, 0
3, 93876, Note_on_c, 1, 60, 0
3, 93960, Note_on_c, 1, 43, 56
3, 94008, Note_on_c, 1, 43, 0
3, 94020, Note_on_c, 1, 47, 56
3, 94068, Note_on_c, 1, 47, 0
3, 94080, Note_on_c, 1, 50, 56
3, 94128, Note_on_c, 1, 50, 0
3, 94140, Note_on_c, 1, 55, 56
3, 94188, Note_on_c, 1, 55, 0
3, 94200, Note_on_c, 1, 59, 56
3, 94236, Note_on_c, 1, 59, 0
3, 94320, Note_on_c, 1, 48, 64
3, 94368, Note_on_c, 1, 48, 0
3, 94380, Note_on_c, 1, 52, 64
3, 94428, Note_on_c, 1, 52, 0
3, 94440, Note_on_c, 1, 55, 64
3, 94488, Note_on_c, 1, 55, 0
3, 94500, Note_on_c, 1, 60, 64
3, 94548, Note_on_c, 1, 60, 0
3, 94560, Note_on_c, 1, 64, 56
3, 94596, Note_on_c, 1, 64, 0
3, 94680, Note_on_c, 1, 38, 80
3, 94680, Note_on_c, 1, 50, 80
3, 94824, Note_on_c, 1, 50, 0
3, 94824, Note_on_c, 1, 38, 0
3, 94920, Note_on_c, 1, 43, 80
3, 94920, Note_on_c, 1, 55, 80
3, 94956, Note_on_c, 1, 55, 0
3, 94956, Note_on_c, 1, 43, 0
3, 95040, Note_on_c, 1, 47, 80
3, 95040, Note_on_c, 1, 59, 80
3, 95208, Note_on_c, 1, 59, 0
3, 95208, Note_on_c, 1, 47, 0
3, 95280, Note_on_c, 1, 50, 80
3, 95280, Note_on_c, 1, 62, 80
3, 95316, Note_on_c, 1, 62, 0
3, 95316, Note_on_c, 1, 50, 0
3, 95400, Note_on_c, 1, 48, 80
3, 95400, Note_on_c, 1, 60, 80
3, 95496, Note_on_c, 1, 60, 0
3, 95496, Note_on_c, 1, 48, 0
3, 95520, Note_on_c, 1, 48, 80
3, 95520, Note_on_c, 1, 60, 80
3, 95616, Note_on_c, 1, 60, 0
3, 95616, Note_on_c, 1, 48, 0
3, 95640, Note_on_c, 1, 45, 80
3, 95640, Note_on_c, 1, 57, 80
3, 95736, Note_on_c, 1, 57, 0
3, 95736, Note_on_c, 1, 45, 0
3, 95760, Note_on_c, 1, 42, 80
3, 95760, Note_on_c, 1, 54, 80
3, 95796, Note_on_c, 1, 54, 0
3, 95796, Note_on_c, 1, 42, 0
3, 95880, Note_on_c, 1, 42, 80
3, 95880, Note_on_c, 1, 54, 80
3, 95916, Note_on_c, 1, 54, 0
3, 95916, Note_on_c, 1, 42, 0
3, 96000, Note_on_c, 1, 38, 80
3, 96000, Note_on_c, 1, 50, 80
3, 96120, Note_on_c, 1, 50, 0
3, 96120, Note_on_c, 1, 38, 0
3, 96120, Note_on_c, 1, 43, 56
3, 96120, Note_on_c, 1, 55, 56
3, 96180, Note_on_c, 1, 55, 0
3, 96180, Note_on_c, 1, 43, 0
3, 96360, Note_on_c, 1, 59, 48
3, 96456, Note_on_c, 1, 59, 0
3, 96480, Note_on_c, 1, 60, 48
3, 96516, Note_on_c, 1, 60, 0
3, 96600, Note_on_c, 1, 61, 48
3, 96636, Note_on_c, 1, 61, 0
3, 96720, Note_on_c, 1, 62, 48
3, 96756, Note_on_c, 1, 62, 0
3, 96840, Note_on_c, 1, 63, 48
3, 96876, Note_on_c, 1, 63, 0
3, 96960, Note_on_c, 1, 64, 48
3, 96996, Note_on_c, 1, 64, 0
3, 97080, Note_on_c, 1, 61, 48
3, 97200, Note_on_c, 1, 61, 0
3, 97200, Note_on_c, 1, 62, 48
3, 97236, Note_on_c, 1, 62, 0
3, 97440, Note_on_c, 1, 62, 48
3, 97476, Note_on_c, 1, 62, 0
3, 97560, Note_on_c, 1, 55, 48
3, 97596, Note_on_c, 1, 55, 0
3, 97800, Note_on_c, 1, 38, 88
3, 97800, Note_on_c, 1, 50, 88
3, 97836, Note_on_c, 1, 50, 0
3, 97836, Note_on_c, 1, 38, 0
3, 97920, Note_on_c, 1, 31, 88
3, 97920, Note_on_c, 1, 43, 88
3, 98016, Note_on_c, 1, 43, 0
3, 98016, Note_on_c, 1, 31, 0
3, 98280, Note_on_c, 1, 50, 96
3, 98295, Note_on_c, 1, 54, 96
3, 98310, Note_on_c, 1, 57, 96
3, 98325, Note_on_c, 1, 62, 96
3, 98457, Note_on_c, 1, 62, 0
3, 98457, Note_on_c, 1, 50, 0
3, 98457, Note_on_c, 1, 54, 0
3, 98457, Note_on_c, 1, 57, 0
3, 99000, Note_on_c, 1, 43, 96
3, 99015, Note_on_c, 1, 47, 96
3, 99030, Note_on_c, 1, 50, 96
3, 99045, Note_on_c, 1, 55, 96
3, 99168, Note_on_c, 1, 55, 0
3, 99168, Note_on_c, 1, 43, 0
3, 99168, Note_on_c, 1, 47, 0
3, 99168, Note_on_c, 1, 50, 0
3, 99168, End_track
4, 0, Start_track
4, 0, MIDI_port, 0
4, 0, Title_t, "MIDI by Marty Weimer 1/22/96"
4, 0, End_track
5, 0, Start_track
5, 0, MIDI_port, 0
5, 0, Title_t, "weimermt@libby.org Eureka, MT"
5, 0, End_track
0, 0, End_of_file
