0, 0, Header, 1, 7, 120
1, 0, Start_track
1, 0, Time_signature, 3, 2, 24, 8
1, 0, Key_signature, -2, "major"
1, 0, Tempo, 909091
1, 2880, Tempo, 909091
1, 2917, Tempo, 923077
1, 2955, Tempo, 937500
1, 2992, Tempo, 952381
1, 3030, Tempo, 967742
1, 3067, Tempo, 983607
1, 3105, Tempo, 1000000
1, 3142, Tempo, 1016949
1, 3180, Tempo, 1034483
1, 3217, Tempo, 1052632
1, 3255, Tempo, 1071429
1, 3292, Tempo, 1090909
1, 3330, Tempo, 1111111
1, 3367, Tempo, 1132075
1, 3405, Tempo, 1153846
1, 3442, Tempo, 1176471
1, 3480, Tempo, 1200000
1, 3481, Tempo, 909091
1, 6120, Tempo, 909091
1, 6142, Tempo, 923077
1, 6165, Tempo, 937500
1, 6187, Tempo, 952381
1, 6210, Tempo, 967742
1, 6232, Tempo, 983607
1, 6255, Tempo, 1000000
1, 6277, Tempo, 1016949
1, 6300, Tempo, 1034483
1, 6322, Tempo, 1052632
1, 6345, Tempo, 1071429
1, 6367, Tempo, 1090909
1, 6390, Tempo, 1111111
1, 6412, Tempo, 1132075
1, 6435, Tempo, 1153846
1, 6457, Tempo, 1176471
1, 6480, Tempo, 1200000
1, 6481, Tempo, 909091
1, 6840, Tempo, 845070
1, 7200, Tempo, 909091
1, 7245, Tempo, 923077
1, 7290, Tempo, 937500
1, 7335, Tempo, 952381
1, 7380, Tempo, 967742
1, 7425, Tempo, 983607
1, 7470, Tempo, 1000000
1, 7515, Tempo, 1016949
1, 7560, Tempo, 1034483
1, 7605, Tempo, 1052632
1, 7650, Tempo, 1071429
1, 7695, Tempo, 1090909
1, 7740, Tempo, 1111111
1, 7785, Tempo, 1132075
1, 7830, Tempo, 1153846
1, 7875, Tempo, 1176471
1, 7920, Tempo, 909091
1, 7921, Tempo, 909091
1, 10440, Tempo, 909091
1, 10473, Tempo, 923077
1, 10506, Tempo, 937500
1, 10540, Tempo, 952381
1, 10573, Tempo, 967742
1, 10606, Tempo, 983607
1, 10636, Tempo, 1000000
1, 10670, Tempo, 1016949
1, 10703, Tempo, 1034483
1, 10736, Tempo, 1052632
1, 10770, Tempo, 1071429
1, 10800, Tempo, 909091
1, 11160, Tempo, 909091
1, 11196, Tempo, 923077
1, 11233, Tempo, 937500
1, 11270, Tempo, 952381
1, 11306, Tempo, 967742
1, 11340, Tempo, 983607
1, 11376, Tempo, 1000000
1, 11413, Tempo, 1016949
1, 11450, Tempo, 1034483
1, 11486, Tempo, 1052632
1, 11520, Tempo, 909091
1, 13800, Tempo, 923077
1, 13826, Tempo, 937500
1, 13850, Tempo, 952381
1, 13873, Tempo, 967742
1, 13896, Tempo, 983607
1, 13920, Tempo, 1000000
1, 13946, Tempo, 1016949
1, 13970, Tempo, 1034483
1, 13993, Tempo, 1052632
1, 14016, Tempo, 1071429
1, 14040, Tempo, 909091
1, 16200, Tempo, 1500000
1, 16560, Tempo, 909091
1, 28800, Tempo, 909091
1, 28846, Tempo, 923077
1, 28890, Tempo, 937500
1, 28933, Tempo, 952381
1, 28976, Tempo, 967742
1, 29020, Tempo, 983607
1, 29063, Tempo, 1000000
1, 29106, Tempo, 1016949
1, 29150, Tempo, 1034483
1, 29193, Tempo, 1052632
1, 29236, Tempo, 1071429
1, 29280, Tempo, 1090909
1, 29520, Tempo, 909091
1, 32040, Tempo, 909091
1, 32073, Tempo, 923077
1, 32106, Tempo, 937500
1, 32140, Tempo, 952381
1, 32173, Tempo, 967742
1, 32206, Tempo, 983607
1, 32236, Tempo, 1000000
1, 32270, Tempo, 1016949
1, 32303, Tempo, 1034483
1, 32336, Tempo, 1052632
1, 32370, Tempo, 1071429
1, 32400, Tempo, 909091
1, 35876, Tempo, 909091
1, 35883, Tempo, 923077
1, 35886, Tempo, 937500
1, 35893, Tempo, 952381
1, 35896, Tempo, 967742
1, 35903, Tempo, 983607
1, 35906, Tempo, 1000000
1, 35910, Tempo, 1016949
1, 35916, Tempo, 1034483
1, 35920, Tempo, 1052632
1, 35926, Tempo, 1071429
1, 35930, Tempo, 1090909
1, 35936, Tempo, 1111111
1, 35940, Tempo, 1132075
1, 35943, Tempo, 1153846
1, 35950, Tempo, 1176471
1, 35953, Tempo, 1200000
1, 35960, Tempo, 1224490
1, 35963, Tempo, 1250000
1, 35970, Tempo, 1276596
1, 35973, Tempo, 1304348
1, 35976, Tempo, 1333333
1, 35983, Tempo, 1363636
1, 35986, Tempo, 1395349
1, 35993, Tempo, 1428571
1, 35996, Tempo, 1463415
1, 36000, Tempo, 909091
1, 38160, Tempo, 909091
1, 38193, Tempo, 923077
1, 38226, Tempo, 937500
1, 38260, Tempo, 952381
1, 38293, Tempo, 967742
1, 38326, Tempo, 983607
1, 38356, Tempo, 1000000
1, 38390, Tempo, 1016949
1, 38423, Tempo, 1034483
1, 38456, Tempo, 1052632
1, 38490, Tempo, 1071429
1, 38520, Tempo, 909091
1, 43560, Tempo, 1500000
1, 43560, End_track
2, 0, Start_track
2, 0, MIDI_port, 0
2, 0, Program_c, 0, 0
2, 0, Control_c, 0, 7, 127
2, 0, Control_c, 0, 10, 84
2, 0, Control_c, 0, 121, 0
2, 0, Control_c, 0, 91, 75
2, 0, Note_on_c, 0, 70, 76
2, 120, Note_on_c, 0, 69, 85
2, 121, Note_on_c, 0, 70, 0
2, 237, Note_on_c, 0, 69, 0
2, 240, Note_on_c, 0, 70, 80
2, 360, Note_on_c, 0, 64, 85
2, 363, Note_on_c, 0, 70, 0
2, 593, Note_on_c, 0, 64, 0
2, 600, Note_on_c, 0, 72, 93
2, 726, Note_on_c, 0, 72, 0
2, 728, Note_on_c, 0, 71, 89
2, 740, Note_on_c, 0, 72, 76
2, 744, Note_on_c, 0, 71, 0
2, 751, Note_on_c, 0, 74, 76
2, 759, Note_on_c, 0, 72, 0
2, 767, Note_on_c, 0, 72, 80
2, 770, Note_on_c, 0, 74, 0
2, 901, Note_on_c, 0, 72, 0
2, 902, Note_on_c, 0, 70, 85
2, 930, Note_on_c, 0, 69, 85
2, 934, Note_on_c, 0, 70, 0
2, 960, Note_on_c, 0, 69, 0
2, 960, Note_on_c, 0, 67, 76
2, 990, Note_on_c, 0, 65, 85
2, 992, Note_on_c, 0, 67, 0
2, 1019, Note_on_c, 0, 63, 72
2, 1020, Note_on_c, 0, 65, 0
2, 1048, Note_on_c, 0, 67, 76
2, 1051, Note_on_c, 0, 63, 0
2, 1082, Note_on_c, 0, 67, 0
2, 1082, Note_on_c, 0, 65, 80
2, 1136, Note_on_c, 0, 65, 0
2, 1145, Note_on_c, 0, 65, 89
2, 1159, Note_on_c, 0, 63, 59
2, 1162, Note_on_c, 0, 65, 0
2, 1173, Note_on_c, 0, 65, 85
2, 1174, Note_on_c, 0, 63, 0
2, 1186, Note_on_c, 0, 63, 64
2, 1189, Note_on_c, 0, 65, 0
2, 1201, Note_on_c, 0, 63, 0
2, 1202, Note_on_c, 0, 62, 89
2, 1305, Note_on_c, 0, 62, 0
2, 1322, Note_on_c, 0, 74, 89
2, 1322, Note_on_c, 0, 65, 89
2, 1499, Note_on_c, 0, 74, 0
2, 1500, Note_on_c, 0, 65, 0
2, 1501, Note_on_c, 0, 62, 89
2, 1501, Note_on_c, 0, 71, 93
2, 1562, Note_on_c, 0, 63, 76
2, 1562, Note_on_c, 0, 72, 93
2, 1566, Note_on_c, 0, 62, 0
2, 1567, Note_on_c, 0, 71, 0
2, 1621, Note_on_c, 0, 72, 0
2, 1622, Note_on_c, 0, 74, 89
2, 1622, Note_on_c, 0, 65, 80
2, 1625, Note_on_c, 0, 63, 0
2, 1682, Note_on_c, 0, 75, 80
2, 1682, Note_on_c, 0, 67, 76
2, 1683, Note_on_c, 0, 65, 0
2, 1684, Note_on_c, 0, 74, 0
2, 1743, Note_on_c, 0, 72, 80
2, 1747, Note_on_c, 0, 75, 0
2, 1754, Note_on_c, 0, 67, 0
2, 1802, Note_on_c, 0, 70, 89
2, 1804, Note_on_c, 0, 72, 0
2, 1861, Note_on_c, 0, 70, 0
2, 1862, Note_on_c, 0, 69, 98
2, 1922, Note_on_c, 0, 72, 80
2, 1923, Note_on_c, 0, 69, 0
2, 1980, Note_on_c, 0, 72, 0
2, 1982, Note_on_c, 0, 70, 80
2, 2035, Note_on_c, 0, 70, 0
2, 2041, Note_on_c, 0, 74, 76
2, 2041, Note_on_c, 0, 77, 93
2, 2218, Note_on_c, 0, 74, 0
2, 2222, Note_on_c, 0, 77, 0
2, 2222, Note_on_c, 0, 74, 76
2, 2222, Note_on_c, 0, 71, 72
2, 2280, Note_on_c, 0, 74, 0
2, 2281, Note_on_c, 0, 75, 89
2, 2281, Note_on_c, 0, 72, 85
2, 2282, Note_on_c, 0, 71, 0
2, 2338, Note_on_c, 0, 75, 0
2, 2341, Note_on_c, 0, 72, 0
2, 2341, Note_on_c, 0, 77, 85
2, 2341, Note_on_c, 0, 74, 80
2, 2397, Note_on_c, 0, 74, 0
2, 2397, Note_on_c, 0, 77, 0
2, 2401, Note_on_c, 0, 79, 80
2, 2401, Note_on_c, 0, 75, 62
2, 2458, Note_on_c, 0, 75, 0
2, 2461, Note_on_c, 0, 79, 0
2, 2461, Note_on_c, 0, 75, 68
2, 2461, Note_on_c, 0, 72, 80
2, 2518, Note_on_c, 0, 72, 0
2, 2521, Note_on_c, 0, 69, 76
2, 2521, Note_on_c, 0, 74, 93
2, 2523, Note_on_c, 0, 75, 0
2, 2581, Note_on_c, 0, 74, 0
2, 2582, Note_on_c, 0, 72, 89
2, 2642, Note_on_c, 0, 75, 93
2, 2642, Note_on_c, 0, 70, 89
2, 2643, Note_on_c, 0, 72, 0
2, 2643, Note_on_c, 0, 69, 0
2, 2702, Note_on_c, 0, 74, 93
2, 2703, Note_on_c, 0, 75, 0
2, 2757, Note_on_c, 0, 74, 0
2, 2762, Note_on_c, 0, 70, 0
2, 2762, Note_on_c, 0, 72, 89
2, 2762, Note_on_c, 0, 79, 93
2, 2820, Note_on_c, 0, 79, 0
2, 2821, Note_on_c, 0, 77, 93
2, 2878, Note_on_c, 0, 72, 0
2, 2879, Note_on_c, 0, 77, 0
2, 2881, Note_on_c, 0, 74, 76
2, 2881, Note_on_c, 0, 84, 93
2, 2941, Note_on_c, 0, 82, 93
2, 2943, Note_on_c, 0, 84, 0
2, 3000, Note_on_c, 0, 82, 0
2, 3000, Note_on_c, 0, 74, 0
2, 3001, Note_on_c, 0, 81, 89
2, 3001, Note_on_c, 0, 70, 80
2, 3061, Note_on_c, 0, 79, 89
2, 3066, Note_on_c, 0, 81, 0
2, 3121, Note_on_c, 0, 77, 76
2, 3122, Note_on_c, 0, 79, 0
2, 3180, Note_on_c, 0, 77, 0
2, 3181, Note_on_c, 0, 76, 85
2, 3236, Note_on_c, 0, 76, 0
2, 3236, Note_on_c, 0, 70, 0
2, 3240, Note_on_c, 0, 70, 72
2, 3240, Note_on_c, 0, 79, 85
2, 3359, Note_on_c, 0, 70, 0
2, 3361, Note_on_c, 0, 79, 0
2, 3362, Note_on_c, 0, 69, 80
2, 3363, Note_on_c, 0, 77, 85
2, 3500, Note_on_c, 0, 77, 0
2, 3500, Note_on_c, 0, 69, 0
2, 3509, Note_on_c, 0, 79, 80
2, 3541, Note_on_c, 0, 75, 80
2, 3543, Note_on_c, 0, 79, 0
2, 3571, Note_on_c, 0, 72, 76
2, 3572, Note_on_c, 0, 75, 0
2, 3600, Note_on_c, 0, 70, 76
2, 3605, Note_on_c, 0, 72, 0
2, 3718, Note_on_c, 0, 70, 0
2, 3720, Note_on_c, 0, 69, 80
2, 3840, Note_on_c, 0, 70, 72
2, 3844, Note_on_c, 0, 69, 0
2, 3957, Note_on_c, 0, 70, 0
2, 3960, Note_on_c, 0, 64, 93
2, 4201, Note_on_c, 0, 72, 68
2, 4203, Note_on_c, 0, 64, 0
2, 4321, Note_on_c, 0, 72, 0
2, 4326, Note_on_c, 0, 71, 80
2, 4339, Note_on_c, 0, 72, 76
2, 4344, Note_on_c, 0, 71, 0
2, 4351, Note_on_c, 0, 74, 72
2, 4353, Note_on_c, 0, 72, 0
2, 4363, Note_on_c, 0, 72, 72
2, 4367, Note_on_c, 0, 74, 0
2, 4501, Note_on_c, 0, 70, 76
2, 4504, Note_on_c, 0, 72, 0
2, 4531, Note_on_c, 0, 69, 80
2, 4534, Note_on_c, 0, 70, 0
2, 4561, Note_on_c, 0, 69, 0
2, 4561, Note_on_c, 0, 67, 76
2, 4591, Note_on_c, 0, 67, 0
2, 4591, Note_on_c, 0, 65, 72
2, 4619, Note_on_c, 0, 63, 57
2, 4621, Note_on_c, 0, 65, 0
2, 4649, Note_on_c, 0, 67, 62
2, 4652, Note_on_c, 0, 63, 0
2, 4679, Note_on_c, 0, 67, 0
2, 4679, Note_on_c, 0, 65, 76
2, 4732, Note_on_c, 0, 65, 0
2, 4741, Note_on_c, 0, 65, 68
2, 4754, Note_on_c, 0, 63, 60
2, 4755, Note_on_c, 0, 65, 0
2, 4768, Note_on_c, 0, 65, 76
2, 4770, Note_on_c, 0, 63, 0
2, 4782, Note_on_c, 0, 63, 64
2, 4785, Note_on_c, 0, 65, 0
2, 4798, Note_on_c, 0, 63, 0
2, 4799, Note_on_c, 0, 62, 85
2, 4910, Note_on_c, 0, 62, 0
2, 4922, Note_on_c, 0, 74, 93
2, 4922, Note_on_c, 0, 65, 89
2, 5093, Note_on_c, 0, 74, 0
2, 5096, Note_on_c, 0, 65, 0
2, 5099, Note_on_c, 0, 71, 93
2, 5099, Note_on_c, 0, 62, 80
2, 5161, Note_on_c, 0, 63, 64
2, 5161, Note_on_c, 0, 72, 89
2, 5162, Note_on_c, 0, 62, 0
2, 5164, Note_on_c, 0, 71, 0
2, 5221, Note_on_c, 0, 74, 85
2, 5221, Note_on_c, 0, 65, 76
2, 5223, Note_on_c, 0, 72, 0
2, 5225, Note_on_c, 0, 63, 0
2, 5280, Note_on_c, 0, 74, 0
2, 5280, Note_on_c, 0, 65, 0
2, 5281, Note_on_c, 0, 75, 72
2, 5281, Note_on_c, 0, 67, 64
2, 5341, Note_on_c, 0, 72, 80
2, 5345, Note_on_c, 0, 75, 0
2, 5346, Note_on_c, 0, 67, 0
2, 5402, Note_on_c, 0, 70, 72
2, 5404, Note_on_c, 0, 72, 0
2, 5461, Note_on_c, 0, 69, 93
2, 5463, Note_on_c, 0, 70, 0
2, 5522, Note_on_c, 0, 72, 80
2, 5524, Note_on_c, 0, 69, 0
2, 5575, Note_on_c, 0, 72, 0
2, 5581, Note_on_c, 0, 70, 76
2, 5640, Note_on_c, 0, 70, 0
2, 5641, Note_on_c, 0, 74, 80
2, 5641, Note_on_c, 0, 77, 93
2, 5813, Note_on_c, 0, 74, 0
2, 5819, Note_on_c, 0, 77, 0
2, 5821, Note_on_c, 0, 71, 76
2, 5821, Note_on_c, 0, 74, 89
2, 5881, Note_on_c, 0, 74, 0
2, 5881, Note_on_c, 0, 75, 76
2, 5881, Note_on_c, 0, 72, 85
2, 5884, Note_on_c, 0, 71, 0
2, 5940, Note_on_c, 0, 72, 0
2, 5940, Note_on_c, 0, 75, 0
2, 5941, Note_on_c, 0, 77, 80
2, 5941, Note_on_c, 0, 74, 62
2, 5998, Note_on_c, 0, 74, 0
2, 6001, Note_on_c, 0, 77, 0
2, 6001, Note_on_c, 0, 75, 64
2, 6001, Note_on_c, 0, 79, 76
2, 6059, Note_on_c, 0, 75, 0
2, 6060, Note_on_c, 0, 79, 0
2, 6061, Note_on_c, 0, 75, 60
2, 6061, Note_on_c, 0, 72, 72
2, 6114, Note_on_c, 0, 72, 0
2, 6120, Note_on_c, 0, 75, 0
2, 6120, Note_on_c, 0, 74, 89
2, 6120, Note_on_c, 0, 69, 76
2, 6180, Note_on_c, 0, 72, 85
2, 6182, Note_on_c, 0, 74, 0
2, 6238, Note_on_c, 0, 72, 0
2, 6239, Note_on_c, 0, 69, 0
2, 6240, Note_on_c, 0, 75, 93
2, 6240, Note_on_c, 0, 70, 85
2, 6300, Note_on_c, 0, 74, 89
2, 6302, Note_on_c, 0, 75, 0
2, 6357, Note_on_c, 0, 74, 0
2, 6360, Note_on_c, 0, 70, 0
2, 6360, Note_on_c, 0, 72, 89
2, 6360, Note_on_c, 0, 79, 93
2, 6420, Note_on_c, 0, 77, 80
2, 6421, Note_on_c, 0, 79, 0
2, 6480, Note_on_c, 0, 77, 0
2, 6480, Note_on_c, 0, 72, 0
2, 6480, Note_on_c, 0, 84, 98
2, 6541, Note_on_c, 0, 84, 0
2, 6542, Note_on_c, 0, 82, 89
2, 6602, Note_on_c, 0, 81, 89
2, 6605, Note_on_c, 0, 82, 0
2, 6631, Note_on_c, 0, 81, 0
2, 6631, Note_on_c, 0, 79, 72
2, 6661, Note_on_c, 0, 77, 76
2, 6664, Note_on_c, 0, 79, 0
2, 6691, Note_on_c, 0, 76, 72
2, 6692, Note_on_c, 0, 77, 0
2, 6721, Note_on_c, 0, 74, 80
2, 6723, Note_on_c, 0, 76, 0
2, 6780, Note_on_c, 0, 74, 0
2, 6781, Note_on_c, 0, 72, 98
2, 6842, Note_on_c, 0, 86, 107
2, 6846, Note_on_c, 0, 72, 0
2, 6902, Note_on_c, 0, 84, 93
2, 6904, Note_on_c, 0, 86, 0
2, 6962, Note_on_c, 0, 82, 85
2, 6963, Note_on_c, 0, 84, 0
2, 6991, Note_on_c, 0, 81, 85
2, 6992, Note_on_c, 0, 82, 0
2, 7021, Note_on_c, 0, 81, 0
2, 7021, Note_on_c, 0, 79, 80
2, 7051, Note_on_c, 0, 78, 89
2, 7053, Note_on_c, 0, 79, 0
2, 7081, Note_on_c, 0, 75, 89
2, 7083, Note_on_c, 0, 78, 0
2, 7141, Note_on_c, 0, 75, 0
2, 7142, Note_on_c, 0, 74, 89
2, 7200, Note_on_c, 0, 74, 0
2, 7201, Note_on_c, 0, 87, 93
2, 7261, Note_on_c, 0, 86, 93
2, 7262, Note_on_c, 0, 87, 0
2, 7322, Note_on_c, 0, 84, 93
2, 7323, Note_on_c, 0, 86, 0
2, 7351, Note_on_c, 0, 82, 76
2, 7353, Note_on_c, 0, 84, 0
2, 7381, Note_on_c, 0, 81, 89
2, 7383, Note_on_c, 0, 82, 0
2, 7411, Note_on_c, 0, 79, 89
2, 7413, Note_on_c, 0, 81, 0
2, 7441, Note_on_c, 0, 78, 76
2, 7443, Note_on_c, 0, 79, 0
2, 7470, Note_on_c, 0, 78, 0
2, 7471, Note_on_c, 0, 79, 98
2, 7501, Note_on_c, 0, 81, 98
2, 7504, Note_on_c, 0, 79, 0
2, 7531, Note_on_c, 0, 81, 0
2, 7531, Note_on_c, 0, 82, 89
2, 7560, Note_on_c, 0, 77, 80
2, 7563, Note_on_c, 0, 82, 0
2, 7650, Note_on_c, 0, 77, 0
2, 7650, Note_on_c, 0, 79, 89
2, 7665, Note_on_c, 0, 79, 0
2, 7665, Note_on_c, 0, 77, 76
2, 7680, Note_on_c, 0, 77, 0
2, 7680, Note_on_c, 0, 76, 76
2, 7793, Note_on_c, 0, 76, 0
2, 8309, Note_on_c, 0, 83, 64
2, 8338, Note_on_c, 0, 83, 0
2, 8339, Note_on_c, 0, 84, 89
2, 8366, Note_on_c, 0, 84, 0
2, 8371, Note_on_c, 0, 80, 47
2, 8399, Note_on_c, 0, 80, 0
2, 8400, Note_on_c, 0, 81, 89
2, 8428, Note_on_c, 0, 81, 0
2, 8430, Note_on_c, 0, 76, 48
2, 8458, Note_on_c, 0, 76, 0
2, 8460, Note_on_c, 0, 77, 89
2, 8491, Note_on_c, 0, 77, 0
2, 8491, Note_on_c, 0, 71, 62
2, 8517, Note_on_c, 0, 71, 0
2, 8520, Note_on_c, 0, 72, 85
2, 8550, Note_on_c, 0, 72, 0
2, 8550, Note_on_c, 0, 68, 52
2, 8578, Note_on_c, 0, 68, 0
2, 8579, Note_on_c, 0, 69, 80
2, 8608, Note_on_c, 0, 69, 0
2, 8609, Note_on_c, 0, 65, 76
2, 8700, Note_on_c, 0, 65, 0
2, 8700, Note_on_c, 0, 64, 57
2, 8821, Note_on_c, 0, 64, 0
2, 8821, Note_on_c, 0, 63, 62
2, 8937, Note_on_c, 0, 63, 0
2, 8939, Note_on_c, 0, 64, 62
2, 9026, Note_on_c, 0, 64, 0
2, 9029, Note_on_c, 0, 85, 89
2, 9059, Note_on_c, 0, 85, 0
2, 9059, Note_on_c, 0, 86, 85
2, 9091, Note_on_c, 0, 86, 0
2, 9091, Note_on_c, 0, 81, 49
2, 9120, Note_on_c, 0, 82, 80
2, 9121, Note_on_c, 0, 81, 0
2, 9149, Note_on_c, 0, 82, 0
2, 9150, Note_on_c, 0, 78, 44
2, 9178, Note_on_c, 0, 78, 0
2, 9180, Note_on_c, 0, 79, 80
2, 9210, Note_on_c, 0, 79, 0
2, 9211, Note_on_c, 0, 75, 22
2, 9238, Note_on_c, 0, 75, 0
2, 9240, Note_on_c, 0, 76, 80
2, 9269, Note_on_c, 0, 69, 53
2, 9270, Note_on_c, 0, 76, 0
2, 9298, Note_on_c, 0, 69, 0
2, 9299, Note_on_c, 0, 70, 85
2, 9329, Note_on_c, 0, 70, 0
2, 9329, Note_on_c, 0, 67, 64
2, 9421, Note_on_c, 0, 66, 62
2, 9425, Note_on_c, 0, 67, 0
2, 9540, Note_on_c, 0, 66, 0
2, 9541, Note_on_c, 0, 65, 56
2, 9661, Note_on_c, 0, 66, 62
2, 9664, Note_on_c, 0, 65, 0
2, 9715, Note_on_c, 0, 66, 0
2, 9751, Note_on_c, 0, 84, 64
2, 9780, Note_on_c, 0, 87, 89
2, 9781, Note_on_c, 0, 84, 0
2, 9810, Note_on_c, 0, 87, 0
2, 9810, Note_on_c, 0, 81, 52
2, 9840, Note_on_c, 0, 81, 0
2, 9841, Note_on_c, 0, 84, 85
2, 9868, Note_on_c, 0, 84, 0
2, 9871, Note_on_c, 0, 78, 34
2, 9900, Note_on_c, 0, 78, 0
2, 9901, Note_on_c, 0, 81, 85
2, 9931, Note_on_c, 0, 81, 0
2, 9931, Note_on_c, 0, 75, 34
2, 9959, Note_on_c, 0, 75, 0
2, 9961, Note_on_c, 0, 77, 80
2, 9991, Note_on_c, 0, 77, 0
2, 9991, Note_on_c, 0, 72, 41
2, 10020, Note_on_c, 0, 72, 0
2, 10021, Note_on_c, 0, 75, 76
2, 10052, Note_on_c, 0, 75, 0
2, 10052, Note_on_c, 0, 69, 52
2, 10073, Note_on_c, 0, 69, 0
2, 10112, Note_on_c, 0, 82, 60
2, 10142, Note_on_c, 0, 82, 0
2, 10142, Note_on_c, 0, 87, 89
2, 10172, Note_on_c, 0, 78, 48
2, 10174, Note_on_c, 0, 87, 0
2, 10199, Note_on_c, 0, 78, 0
2, 10202, Note_on_c, 0, 82, 89
2, 10230, Note_on_c, 0, 82, 0
2, 10231, Note_on_c, 0, 75, 50
2, 10261, Note_on_c, 0, 75, 0
2, 10261, Note_on_c, 0, 78, 80
2, 10291, Note_on_c, 0, 78, 0
2, 10292, Note_on_c, 0, 70, 38
2, 10319, Note_on_c, 0, 70, 0
2, 10321, Note_on_c, 0, 75, 80
2, 10350, Note_on_c, 0, 75, 0
2, 10351, Note_on_c, 0, 66, 51
2, 10380, Note_on_c, 0, 66, 0
2, 10381, Note_on_c, 0, 70, 85
2, 10411, Note_on_c, 0, 70, 0
2, 10411, Note_on_c, 0, 63, 55
2, 10440, Note_on_c, 0, 63, 0
2, 10471, Note_on_c, 0, 86, 64
2, 10500, Note_on_c, 0, 86, 0
2, 10501, Note_on_c, 0, 89, 93
2, 10531, Note_on_c, 0, 89, 0
2, 10531, Note_on_c, 0, 83, 60
2, 10560, Note_on_c, 0, 83, 0
2, 10561, Note_on_c, 0, 86, 93
2, 10591, Note_on_c, 0, 86, 0
2, 10591, Note_on_c, 0, 77, 51
2, 10620, Note_on_c, 0, 77, 0
2, 10621, Note_on_c, 0, 83, 93
2, 10651, Note_on_c, 0, 83, 0
2, 10652, Note_on_c, 0, 74, 45
2, 10680, Note_on_c, 0, 74, 0
2, 10682, Note_on_c, 0, 77, 89
2, 10711, Note_on_c, 0, 77, 0
2, 10712, Note_on_c, 0, 71, 45
2, 10740, Note_on_c, 0, 71, 0
2, 10741, Note_on_c, 0, 74, 76
2, 10771, Note_on_c, 0, 65, 53
2, 10772, Note_on_c, 0, 74, 0
2, 10794, Note_on_c, 0, 65, 0
2, 10922, Note_on_c, 0, 60, 47
2, 10951, Note_on_c, 0, 60, 0
2, 10952, Note_on_c, 0, 65, 62
2, 10980, Note_on_c, 0, 65, 0
2, 10981, Note_on_c, 0, 69, 64
2, 11010, Note_on_c, 0, 69, 0
2, 11011, Note_on_c, 0, 72, 62
2, 11038, Note_on_c, 0, 72, 0
2, 11071, Note_on_c, 0, 62, 64
2, 11098, Note_on_c, 0, 62, 0
2, 11101, Note_on_c, 0, 65, 57
2, 11131, Note_on_c, 0, 65, 0
2, 11131, Note_on_c, 0, 74, 57
2, 11156, Note_on_c, 0, 74, 0
2, 11282, Note_on_c, 0, 57, 64
2, 11310, Note_on_c, 0, 57, 0
2, 11311, Note_on_c, 0, 60, 60
2, 11337, Note_on_c, 0, 60, 0
2, 11341, Note_on_c, 0, 65, 64
2, 11370, Note_on_c, 0, 65, 0
2, 11371, Note_on_c, 0, 69, 64
2, 11396, Note_on_c, 0, 69, 0
2, 11431, Note_on_c, 0, 55, 59
2, 11460, Note_on_c, 0, 55, 0
2, 11461, Note_on_c, 0, 58, 55
2, 11491, Note_on_c, 0, 58, 0
2, 11491, Note_on_c, 0, 64, 47
2, 11521, Note_on_c, 0, 64, 0
2, 11522, Note_on_c, 0, 65, 68
2, 11638, Note_on_c, 0, 65, 0
2, 11757, Note_on_c, 0, 77, 72
2, 11779, Note_on_c, 0, 77, 0
2, 11780, Note_on_c, 0, 76, 68
2, 11799, Note_on_c, 0, 76, 0
2, 11799, Note_on_c, 0, 79, 64
2, 11818, Note_on_c, 0, 79, 0
2, 11819, Note_on_c, 0, 77, 72
2, 11839, Note_on_c, 0, 77, 0
2, 11839, Note_on_c, 0, 76, 76
2, 11859, Note_on_c, 0, 76, 0
2, 11859, Note_on_c, 0, 74, 62
2, 11879, Note_on_c, 0, 74, 0
2, 11880, Note_on_c, 0, 72, 76
2, 12018, Note_on_c, 0, 72, 0
2, 12019, Note_on_c, 0, 71, 80
2, 12039, Note_on_c, 0, 74, 68
2, 12040, Note_on_c, 0, 71, 0
2, 12060, Note_on_c, 0, 74, 0
2, 12060, Note_on_c, 0, 72, 72
2, 12081, Note_on_c, 0, 70, 68
2, 12082, Note_on_c, 0, 72, 0
2, 12100, Note_on_c, 0, 69, 72
2, 12102, Note_on_c, 0, 70, 0
2, 12121, Note_on_c, 0, 69, 0
2, 12121, Note_on_c, 0, 67, 68
2, 12141, Note_on_c, 0, 66, 72
2, 12142, Note_on_c, 0, 67, 0
2, 12161, Note_on_c, 0, 66, 0
2, 12161, Note_on_c, 0, 69, 80
2, 12181, Note_on_c, 0, 67, 76
2, 12182, Note_on_c, 0, 69, 0
2, 12201, Note_on_c, 0, 65, 80
2, 12202, Note_on_c, 0, 67, 0
2, 12220, Note_on_c, 0, 65, 0
2, 12221, Note_on_c, 0, 64, 72
2, 12241, Note_on_c, 0, 64, 0
2, 12241, Note_on_c, 0, 70, 85
2, 12353, Note_on_c, 0, 70, 0
2, 12358, Note_on_c, 0, 69, 72
2, 12424, Note_on_c, 0, 69, 0
2, 12481, Note_on_c, 0, 77, 89
2, 12501, Note_on_c, 0, 77, 0
2, 12501, Note_on_c, 0, 76, 80
2, 12519, Note_on_c, 0, 76, 0
2, 12520, Note_on_c, 0, 79, 72
2, 12541, Note_on_c, 0, 77, 76
2, 12542, Note_on_c, 0, 79, 0
2, 12561, Note_on_c, 0, 76, 76
2, 12563, Note_on_c, 0, 77, 0
2, 12580, Note_on_c, 0, 76, 0
2, 12581, Note_on_c, 0, 74, 60
2, 12601, Note_on_c, 0, 74, 0
2, 12601, Note_on_c, 0, 72, 80
2, 12739, Note_on_c, 0, 72, 0
2, 12739, Note_on_c, 0, 71, 85
2, 12759, Note_on_c, 0, 74, 76
2, 12761, Note_on_c, 0, 71, 0
2, 12779, Note_on_c, 0, 72, 76
2, 12780, Note_on_c, 0, 74, 0
2, 12800, Note_on_c, 0, 70, 68
2, 12802, Note_on_c, 0, 72, 0
2, 12820, Note_on_c, 0, 69, 76
2, 12824, Note_on_c, 0, 70, 0
2, 12840, Note_on_c, 0, 69, 0
2, 12840, Note_on_c, 0, 67, 76
2, 12860, Note_on_c, 0, 66, 72
2, 12862, Note_on_c, 0, 67, 0
2, 12879, Note_on_c, 0, 66, 0
2, 12879, Note_on_c, 0, 69, 72
2, 12900, Note_on_c, 0, 67, 80
2, 12901, Note_on_c, 0, 69, 0
2, 12921, Note_on_c, 0, 65, 76
2, 12922, Note_on_c, 0, 67, 0
2, 12940, Note_on_c, 0, 65, 0
2, 12941, Note_on_c, 0, 64, 76
2, 12960, Note_on_c, 0, 64, 0
2, 12961, Note_on_c, 0, 74, 89
2, 13079, Note_on_c, 0, 74, 0
2, 13079, Note_on_c, 0, 72, 76
2, 13099, Note_on_c, 0, 71, 68
2, 13100, Note_on_c, 0, 72, 0
2, 13118, Note_on_c, 0, 71, 0
2, 13119, Note_on_c, 0, 74, 64
2, 13139, Note_on_c, 0, 72, 76
2, 13141, Note_on_c, 0, 74, 0
2, 13159, Note_on_c, 0, 70, 64
2, 13162, Note_on_c, 0, 72, 0
2, 13179, Note_on_c, 0, 70, 0
2, 13179, Note_on_c, 0, 69, 59
2, 13201, Note_on_c, 0, 67, 89
2, 13202, Note_on_c, 0, 69, 0
2, 13221, Note_on_c, 0, 66, 59
2, 13222, Note_on_c, 0, 67, 0
2, 13241, Note_on_c, 0, 69, 64
2, 13242, Note_on_c, 0, 66, 0
2, 13261, Note_on_c, 0, 67, 76
2, 13263, Note_on_c, 0, 69, 0
2, 13281, Note_on_c, 0, 65, 62
2, 13283, Note_on_c, 0, 67, 0
2, 13300, Note_on_c, 0, 65, 0
2, 13301, Note_on_c, 0, 64, 76
2, 13321, Note_on_c, 0, 64, 0
2, 13321, Note_on_c, 0, 73, 89
2, 13438, Note_on_c, 0, 73, 0
2, 13439, Note_on_c, 0, 72, 60
2, 13459, Note_on_c, 0, 71, 60
2, 13460, Note_on_c, 0, 72, 0
2, 13479, Note_on_c, 0, 73, 76
2, 13481, Note_on_c, 0, 71, 0
2, 13499, Note_on_c, 0, 72, 76
2, 13501, Note_on_c, 0, 73, 0
2, 13520, Note_on_c, 0, 70, 62
2, 13524, Note_on_c, 0, 72, 0
2, 13540, Note_on_c, 0, 70, 0
2, 13540, Note_on_c, 0, 68, 55
2, 13560, Note_on_c, 0, 68, 0
2, 13561, Note_on_c, 0, 67, 76
2, 13581, Note_on_c, 0, 65, 62
2, 13582, Note_on_c, 0, 67, 0
2, 13601, Note_on_c, 0, 68, 76
2, 13603, Note_on_c, 0, 65, 0
2, 13621, Note_on_c, 0, 66, 72
2, 13624, Note_on_c, 0, 68, 0
2, 13640, Note_on_c, 0, 66, 0
2, 13641, Note_on_c, 0, 65, 60
2, 13659, Note_on_c, 0, 65, 0
2, 13661, Note_on_c, 0, 63, 64
2, 13676, Note_on_c, 0, 63, 0
2, 13683, Note_on_c, 0, 77, 93
2, 13796, Note_on_c, 0, 75, 62
2, 13798, Note_on_c, 0, 77, 0
2, 13854, Note_on_c, 0, 75, 0
2, 13862, Note_on_c, 0, 75, 60
2, 13884, Note_on_c, 0, 75, 0
2, 13922, Note_on_c, 0, 75, 72
2, 13941, Note_on_c, 0, 75, 0
2, 13983, Note_on_c, 0, 75, 72
2, 14002, Note_on_c, 0, 75, 0
2, 14040, Note_on_c, 0, 75, 93
2, 14187, Note_on_c, 0, 75, 0
2, 14187, Note_on_c, 0, 77, 72
2, 14201, Note_on_c, 0, 75, 60
2, 14204, Note_on_c, 0, 77, 0
2, 14216, Note_on_c, 0, 73, 68
2, 14218, Note_on_c, 0, 75, 0
2, 14230, Note_on_c, 0, 72, 62
2, 14231, Note_on_c, 0, 73, 0
2, 14245, Note_on_c, 0, 70, 51
2, 14246, Note_on_c, 0, 72, 0
2, 14259, Note_on_c, 0, 68, 62
2, 14261, Note_on_c, 0, 70, 0
2, 14276, Note_on_c, 0, 68, 0
2, 14276, Note_on_c, 0, 66, 60
2, 14293, Note_on_c, 0, 66, 0
2, 14313, Note_on_c, 0, 68, 76
2, 14322, Note_on_c, 0, 68, 0
2, 14322, Note_on_c, 0, 66, 60
2, 14331, Note_on_c, 0, 66, 0
2, 14331, Note_on_c, 0, 65, 57
2, 14338, Note_on_c, 0, 66, 57
2, 14339, Note_on_c, 0, 65, 0
2, 14341, Note_on_c, 0, 66, 0
2, 14345, Note_on_c, 0, 70, 53
2, 14374, Note_on_c, 0, 70, 0
2, 14375, Note_on_c, 0, 73, 76
2, 14403, Note_on_c, 0, 65, 76
2, 14404, Note_on_c, 0, 73, 0
2, 14580, Note_on_c, 0, 67, 76
2, 14583, Note_on_c, 0, 65, 0
2, 14595, Note_on_c, 0, 67, 0
2, 14595, Note_on_c, 0, 65, 64
2, 14606, Note_on_c, 0, 65, 0
2, 14610, Note_on_c, 0, 64, 64
2, 14625, Note_on_c, 0, 65, 76
2, 14627, Note_on_c, 0, 64, 0
2, 14640, Note_on_c, 0, 65, 0
2, 14640, Note_on_c, 0, 68, 76
2, 14700, Note_on_c, 0, 67, 76
2, 14711, Note_on_c, 0, 68, 0
2, 14762, Note_on_c, 0, 67, 0
2, 14762, Note_on_c, 0, 65, 89
2, 14773, Note_on_c, 0, 81, 93
2, 14775, Note_on_c, 0, 65, 0
2, 15015, Note_on_c, 0, 79, 80
2, 15018, Note_on_c, 0, 81, 0
2, 15029, Note_on_c, 0, 82, 72
2, 15030, Note_on_c, 0, 79, 0
2, 15044, Note_on_c, 0, 81, 80
2, 15047, Note_on_c, 0, 82, 0
2, 15058, Note_on_c, 0, 81, 0
2, 15058, Note_on_c, 0, 79, 76
2, 15073, Note_on_c, 0, 79, 0
2, 15073, Note_on_c, 0, 77, 64
2, 15087, Note_on_c, 0, 77, 0
2, 15088, Note_on_c, 0, 76, 62
2, 15101, Note_on_c, 0, 76, 0
2, 15102, Note_on_c, 0, 74, 60
2, 15117, Note_on_c, 0, 74, 0
2, 15117, Note_on_c, 0, 72, 76
2, 15270, Note_on_c, 0, 72, 0
2, 15270, Note_on_c, 0, 77, 76
2, 15301, Note_on_c, 0, 69, 64
2, 15302, Note_on_c, 0, 77, 0
2, 15331, Note_on_c, 0, 69, 0
2, 15332, Note_on_c, 0, 74, 85
2, 15361, Note_on_c, 0, 72, 85
2, 15363, Note_on_c, 0, 74, 0
2, 15392, Note_on_c, 0, 72, 0
2, 15392, Note_on_c, 0, 70, 62
2, 15421, Note_on_c, 0, 70, 0
2, 15421, Note_on_c, 0, 67, 72
2, 15451, Note_on_c, 0, 67, 0
2, 15452, Note_on_c, 0, 64, 68
2, 15481, Note_on_c, 0, 64, 0
2, 15481, Note_on_c, 0, 81, 113
2, 15735, Note_on_c, 0, 79, 76
2, 15736, Note_on_c, 0, 81, 0
2, 15751, Note_on_c, 0, 82, 76
2, 15753, Note_on_c, 0, 79, 0
2, 15766, Note_on_c, 0, 81, 72
2, 15771, Note_on_c, 0, 82, 0
2, 15781, Note_on_c, 0, 79, 76
2, 15785, Note_on_c, 0, 81, 0
2, 15797, Note_on_c, 0, 79, 0
2, 15797, Note_on_c, 0, 77, 57
2, 15813, Note_on_c, 0, 77, 0
2, 15813, Note_on_c, 0, 76, 76
2, 15828, Note_on_c, 0, 76, 0
2, 15828, Note_on_c, 0, 74, 59
2, 15841, Note_on_c, 0, 72, 76
2, 15843, Note_on_c, 0, 74, 0
2, 15975, Note_on_c, 0, 72, 0
2, 15975, Note_on_c, 0, 73, 72
2, 15990, Note_on_c, 0, 76, 68
2, 15992, Note_on_c, 0, 73, 0
2, 16006, Note_on_c, 0, 74, 72
2, 16010, Note_on_c, 0, 76, 0
2, 16020, Note_on_c, 0, 72, 76
2, 16022, Note_on_c, 0, 74, 0
2, 16036, Note_on_c, 0, 72, 0
2, 16036, Note_on_c, 0, 70, 62
2, 16051, Note_on_c, 0, 69, 76
2, 16052, Note_on_c, 0, 70, 0
2, 16066, Note_on_c, 0, 69, 0
2, 16066, Note_on_c, 0, 67, 64
2, 16080, Note_on_c, 0, 67, 0
2, 16081, Note_on_c, 0, 65, 64
2, 16096, Note_on_c, 0, 64, 62
2, 16098, Note_on_c, 0, 65, 0
2, 16111, Note_on_c, 0, 64, 0
2, 16111, Note_on_c, 0, 70, 64
2, 16126, Note_on_c, 0, 69, 76
2, 16128, Note_on_c, 0, 70, 0
2, 16141, Note_on_c, 0, 72, 85
2, 16142, Note_on_c, 0, 69, 0
2, 16156, Note_on_c, 0, 70, 64
2, 16158, Note_on_c, 0, 72, 0
2, 16172, Note_on_c, 0, 67, 76
2, 16175, Note_on_c, 0, 70, 0
2, 16187, Note_on_c, 0, 67, 0
2, 16187, Note_on_c, 0, 64, 62
2, 16200, Note_on_c, 0, 60, 57
2, 16200, Note_on_c, 0, 64, 57
2, 16200, Note_on_c, 0, 67, 76
2, 16205, Note_on_c, 0, 64, 0
2, 16319, Note_on_c, 0, 67, 0
2, 16319, Note_on_c, 0, 64, 0
2, 16320, Note_on_c, 0, 65, 57
2, 16439, Note_on_c, 0, 65, 0
2, 16440, Note_on_c, 0, 60, 0
2, 16801, Note_on_c, 0, 81, 98
2, 16939, Note_on_c, 0, 79, 80
2, 16940, Note_on_c, 0, 81, 0
2, 16959, Note_on_c, 0, 79, 0
2, 16959, Note_on_c, 0, 82, 80
2, 16979, Note_on_c, 0, 81, 98
2, 16982, Note_on_c, 0, 82, 0
2, 16999, Note_on_c, 0, 79, 76
2, 17002, Note_on_c, 0, 81, 0
2, 17019, Note_on_c, 0, 79, 0
2, 17019, Note_on_c, 0, 77, 72
2, 17039, Note_on_c, 0, 77, 0
2, 17039, Note_on_c, 0, 76, 89
2, 17059, Note_on_c, 0, 74, 76
2, 17060, Note_on_c, 0, 76, 0
2, 17079, Note_on_c, 0, 74, 0
2, 17079, Note_on_c, 0, 77, 76
2, 17099, Note_on_c, 0, 76, 93
2, 17102, Note_on_c, 0, 77, 0
2, 17119, Note_on_c, 0, 76, 0
2, 17119, Note_on_c, 0, 74, 72
2, 17139, Note_on_c, 0, 74, 0
2, 17139, Note_on_c, 0, 73, 59
2, 17159, Note_on_c, 0, 73, 0
2, 17160, Note_on_c, 0, 70, 89
2, 17179, Note_on_c, 0, 70, 0
2, 17180, Note_on_c, 0, 69, 76
2, 17199, Note_on_c, 0, 69, 0
2, 17199, Note_on_c, 0, 72, 72
2, 17219, Note_on_c, 0, 70, 80
2, 17221, Note_on_c, 0, 72, 0
2, 17239, Note_on_c, 0, 69, 76
2, 17241, Note_on_c, 0, 70, 0
2, 17259, Note_on_c, 0, 69, 0
2, 17259, Note_on_c, 0, 67, 72
2, 17280, Note_on_c, 0, 67, 0
2, 17280, Note_on_c, 0, 65, 93
2, 17402, Note_on_c, 0, 65, 0
2, 17519, Note_on_c, 0, 77, 93
2, 17659, Note_on_c, 0, 76, 89
2, 17660, Note_on_c, 0, 77, 0
2, 17679, Note_on_c, 0, 79, 93
2, 17681, Note_on_c, 0, 76, 0
2, 17699, Note_on_c, 0, 77, 89
2, 17702, Note_on_c, 0, 79, 0
2, 17719, Note_on_c, 0, 75, 80
2, 17721, Note_on_c, 0, 77, 0
2, 17739, Note_on_c, 0, 74, 76
2, 17742, Note_on_c, 0, 75, 0
2, 17760, Note_on_c, 0, 74, 0
2, 17760, Note_on_c, 0, 72, 93
2, 17780, Note_on_c, 0, 71, 85
2, 17782, Note_on_c, 0, 72, 0
2, 17799, Note_on_c, 0, 74, 76
2, 17800, Note_on_c, 0, 71, 0
2, 17820, Note_on_c, 0, 72, 89
2, 17822, Note_on_c, 0, 74, 0
2, 17839, Note_on_c, 0, 70, 76
2, 17841, Note_on_c, 0, 72, 0
2, 17859, Note_on_c, 0, 70, 0
2, 17860, Note_on_c, 0, 69, 64
2, 17880, Note_on_c, 0, 69, 0
2, 17880, Note_on_c, 0, 67, 89
2, 17899, Note_on_c, 0, 66, 62
2, 17901, Note_on_c, 0, 67, 0
2, 17919, Note_on_c, 0, 69, 80
2, 17920, Note_on_c, 0, 66, 0
2, 17940, Note_on_c, 0, 69, 0
2, 17940, Note_on_c, 0, 67, 85
2, 17959, Note_on_c, 0, 67, 0
2, 17959, Note_on_c, 0, 65, 85
2, 17979, Note_on_c, 0, 65, 0
2, 17979, Note_on_c, 0, 63, 80
2, 17999, Note_on_c, 0, 63, 0
2, 18000, Note_on_c, 0, 74, 93
2, 18001, Note_on_c, 0, 62, 89
2, 18121, Note_on_c, 0, 61, 85
2, 18121, Note_on_c, 0, 73, 93
2, 18122, Note_on_c, 0, 62, 0
2, 18122, Note_on_c, 0, 74, 0
2, 18238, Note_on_c, 0, 73, 0
2, 18239, Note_on_c, 0, 61, 0
2, 18239, Note_on_c, 0, 74, 98
2, 18239, Note_on_c, 0, 62, 89
2, 18360, Note_on_c, 0, 62, 0
2, 18360, Note_on_c, 0, 69, 93
2, 18360, Note_on_c, 0, 57, 76
2, 18362, Note_on_c, 0, 74, 0
2, 18701, Note_on_c, 0, 57, 0
2, 18702, Note_on_c, 0, 69, 0
2, 18720, Note_on_c, 0, 70, 93
2, 18720, Note_on_c, 0, 82, 102
2, 18839, Note_on_c, 0, 82, 0
2, 18839, Note_on_c, 0, 81, 93
2, 18839, Note_on_c, 0, 69, 76
2, 18840, Note_on_c, 0, 70, 0
2, 18958, Note_on_c, 0, 69, 0
2, 18959, Note_on_c, 0, 81, 0
2, 18959, Note_on_c, 0, 82, 93
2, 18959, Note_on_c, 0, 70, 89
2, 19078, Note_on_c, 0, 70, 0
2, 19079, Note_on_c, 0, 82, 0
2, 19079, Note_on_c, 0, 78, 80
2, 19079, Note_on_c, 0, 69, 72
2, 19437, Note_on_c, 0, 69, 0
2, 19437, Note_on_c, 0, 78, 0
2, 19440, Note_on_c, 0, 79, 98
2, 19459, Note_on_c, 0, 78, 64
2, 19460, Note_on_c, 0, 79, 0
2, 19479, Note_on_c, 0, 78, 0
2, 19479, Note_on_c, 0, 81, 89
2, 19499, Note_on_c, 0, 81, 0
2, 19499, Note_on_c, 0, 79, 89
2, 19519, Note_on_c, 0, 77, 80
2, 19520, Note_on_c, 0, 79, 0
2, 19539, Note_on_c, 0, 75, 80
2, 19541, Note_on_c, 0, 77, 0
2, 19559, Note_on_c, 0, 74, 89
2, 19561, Note_on_c, 0, 75, 0
2, 19579, Note_on_c, 0, 73, 80
2, 19581, Note_on_c, 0, 74, 0
2, 19599, Note_on_c, 0, 73, 0
2, 19599, Note_on_c, 0, 75, 80
2, 19619, Note_on_c, 0, 74, 98
2, 19620, Note_on_c, 0, 75, 0
2, 19639, Note_on_c, 0, 74, 0
2, 19639, Note_on_c, 0, 72, 80
2, 19659, Note_on_c, 0, 72, 0
2, 19659, Note_on_c, 0, 70, 64
2, 19679, Note_on_c, 0, 70, 0
2, 19679, Note_on_c, 0, 68, 93
2, 19699, Note_on_c, 0, 68, 0
2, 19699, Note_on_c, 0, 67, 76
2, 19719, Note_on_c, 0, 70, 80
2, 19720, Note_on_c, 0, 67, 0
2, 19739, Note_on_c, 0, 70, 0
2, 19739, Note_on_c, 0, 68, 89
2, 19759, Note_on_c, 0, 68, 0
2, 19759, Note_on_c, 0, 67, 76
2, 19779, Note_on_c, 0, 65, 89
2, 19780, Note_on_c, 0, 67, 0
2, 19799, Note_on_c, 0, 65, 0
2, 19799, Note_on_c, 0, 63, 76
2, 19819, Note_on_c, 0, 62, 89
2, 19820, Note_on_c, 0, 63, 0
2, 19839, Note_on_c, 0, 62, 0
2, 19839, Note_on_c, 0, 65, 85
2, 19860, Note_on_c, 0, 65, 0
2, 19860, Note_on_c, 0, 63, 76
2, 19880, Note_on_c, 0, 63, 0
2, 19880, Note_on_c, 0, 62, 89
2, 19897, Note_on_c, 0, 60, 85
2, 19900, Note_on_c, 0, 62, 0
2, 19917, Note_on_c, 0, 60, 0
2, 19918, Note_on_c, 0, 60, 85
2, 19929, Note_on_c, 0, 58, 62
2, 19931, Note_on_c, 0, 60, 0
2, 19939, Note_on_c, 0, 60, 76
2, 19940, Note_on_c, 0, 58, 0
2, 19949, Note_on_c, 0, 60, 0
2, 19949, Note_on_c, 0, 58, 59
2, 19959, Note_on_c, 0, 58, 0
2, 19959, Note_on_c, 0, 60, 64
2, 19969, Note_on_c, 0, 58, 72
2, 19970, Note_on_c, 0, 60, 0
2, 19980, Note_on_c, 0, 58, 0
2, 19980, Note_on_c, 0, 60, 80
2, 19991, Note_on_c, 0, 58, 68
2, 19992, Note_on_c, 0, 60, 0
2, 20001, Note_on_c, 0, 58, 0
2, 20001, Note_on_c, 0, 60, 72
2, 20010, Note_on_c, 0, 58, 64
2, 20011, Note_on_c, 0, 60, 0
2, 20021, Note_on_c, 0, 58, 0
2, 20021, Note_on_c, 0, 60, 72
2, 20031, Note_on_c, 0, 60, 0
2, 20031, Note_on_c, 0, 58, 72
2, 20041, Note_on_c, 0, 57, 93
2, 20042, Note_on_c, 0, 58, 0
2, 20078, Note_on_c, 0, 57, 0
2, 20101, Note_on_c, 0, 55, 98
2, 20121, Note_on_c, 0, 55, 0
2, 20161, Note_on_c, 0, 53, 93
2, 20276, Note_on_c, 0, 53, 0
2, 20281, Note_on_c, 0, 65, 98
2, 20281, Note_on_c, 0, 77, 113
2, 20399, Note_on_c, 0, 77, 0
2, 20399, Note_on_c, 0, 65, 0
2, 20399, Note_on_c, 0, 78, 93
2, 20399, Note_on_c, 0, 66, 89
2, 20521, Note_on_c, 0, 66, 0
2, 20521, Note_on_c, 0, 67, 93
2, 20521, Note_on_c, 0, 79, 102
2, 20522, Note_on_c, 0, 78, 0
2, 20641, Note_on_c, 0, 80, 98
2, 20641, Note_on_c, 0, 68, 89
2, 20642, Note_on_c, 0, 79, 0
2, 20642, Note_on_c, 0, 67, 0
2, 20878, Note_on_c, 0, 68, 0
2, 20879, Note_on_c, 0, 80, 0
2, 20880, Note_on_c, 0, 69, 102
2, 20880, Note_on_c, 0, 81, 102
2, 21000, Note_on_c, 0, 81, 0
2, 21000, Note_on_c, 0, 69, 0
2, 21241, Note_on_c, 0, 79, 107
2, 21241, Note_on_c, 0, 71, 93
2, 21542, Note_on_c, 0, 67, 89
2, 21542, Note_on_c, 0, 76, 102
2, 21543, Note_on_c, 0, 71, 0
2, 21543, Note_on_c, 0, 79, 0
2, 21602, Note_on_c, 0, 67, 0
2, 21602, Note_on_c, 0, 76, 0
2, 21603, Note_on_c, 0, 72, 89
2, 21603, Note_on_c, 0, 81, 98
2, 21901, Note_on_c, 0, 72, 0
2, 21902, Note_on_c, 0, 81, 0
2, 21902, Note_on_c, 0, 69, 89
2, 21902, Note_on_c, 0, 78, 89
2, 21961, Note_on_c, 0, 78, 0
2, 21961, Note_on_c, 0, 69, 0
2, 21962, Note_on_c, 0, 74, 89
2, 21962, Note_on_c, 0, 82, 93
2, 22199, Note_on_c, 0, 74, 0
2, 22200, Note_on_c, 0, 82, 0
2, 22201, Note_on_c, 0, 70, 85
2, 22201, Note_on_c, 0, 74, 98
2, 22382, Note_on_c, 0, 74, 0
2, 22382, Note_on_c, 0, 70, 0
2, 22382, Note_on_c, 0, 68, 80
2, 22382, Note_on_c, 0, 71, 64
2, 22442, Note_on_c, 0, 71, 0
2, 22442, Note_on_c, 0, 68, 0
2, 22442, Note_on_c, 0, 69, 85
2, 22442, Note_on_c, 0, 72, 89
2, 22502, Note_on_c, 0, 72, 0
2, 22502, Note_on_c, 0, 69, 0
2, 22502, Note_on_c, 0, 71, 76
2, 22502, Note_on_c, 0, 74, 89
2, 22560, Note_on_c, 0, 71, 0
2, 22561, Note_on_c, 0, 74, 0
2, 22561, Note_on_c, 0, 75, 107
2, 22561, Note_on_c, 0, 72, 85
2, 22740, Note_on_c, 0, 72, 0
2, 22740, Note_on_c, 0, 75, 0
2, 22741, Note_on_c, 0, 73, 89
2, 22741, Note_on_c, 0, 70, 76
2, 22801, Note_on_c, 0, 70, 0
2, 22801, Note_on_c, 0, 73, 0
2, 22801, Note_on_c, 0, 71, 80
2, 22801, Note_on_c, 0, 74, 89
2, 22861, Note_on_c, 0, 74, 0
2, 22861, Note_on_c, 0, 73, 89
2, 22861, Note_on_c, 0, 76, 93
2, 22863, Note_on_c, 0, 71, 0
2, 22921, Note_on_c, 0, 73, 0
2, 22921, Note_on_c, 0, 77, 93
2, 22921, Note_on_c, 0, 74, 85
2, 22923, Note_on_c, 0, 76, 0
2, 22980, Note_on_c, 0, 74, 0
2, 22980, Note_on_c, 0, 71, 93
2, 22981, Note_on_c, 0, 67, 76
2, 22983, Note_on_c, 0, 77, 0
2, 23038, Note_on_c, 0, 71, 0
2, 23039, Note_on_c, 0, 67, 0
2, 23041, Note_on_c, 0, 75, 89
2, 23041, Note_on_c, 0, 79, 93
2, 23341, Note_on_c, 0, 72, 93
2, 23342, Note_on_c, 0, 79, 0
2, 23342, Note_on_c, 0, 75, 0
2, 23342, Note_on_c, 0, 68, 85
2, 23401, Note_on_c, 0, 72, 0
2, 23401, Note_on_c, 0, 77, 98
2, 23402, Note_on_c, 0, 68, 0
2, 23402, Note_on_c, 0, 80, 102
2, 23702, Note_on_c, 0, 80, 0
2, 23702, Note_on_c, 0, 77, 0
2, 23702, Note_on_c, 0, 74, 93
2, 23702, Note_on_c, 0, 70, 80
2, 23762, Note_on_c, 0, 70, 0
2, 23762, Note_on_c, 0, 74, 0
2, 23762, Note_on_c, 0, 79, 107
2, 23762, Note_on_c, 0, 82, 98
2, 23998, Note_on_c, 0, 79, 0
2, 23999, Note_on_c, 0, 82, 0
2, 24001, Note_on_c, 0, 82, 89
2, 24001, Note_on_c, 0, 79, 98
2, 24180, Note_on_c, 0, 79, 0
2, 24181, Note_on_c, 0, 80, 98
2, 24181, Note_on_c, 0, 77, 89
2, 24183, Note_on_c, 0, 82, 0
2, 24240, Note_on_c, 0, 77, 0
2, 24241, Note_on_c, 0, 80, 0
2, 24241, Note_on_c, 0, 81, 93
2, 24241, Note_on_c, 0, 78, 76
2, 24302, Note_on_c, 0, 80, 89
2, 24302, Note_on_c, 0, 83, 93
2, 24303, Note_on_c, 0, 78, 0
2, 24303, Note_on_c, 0, 81, 0
2, 24360, Note_on_c, 0, 83, 0
2, 24361, Note_on_c, 0, 80, 0
2, 24362, Note_on_c, 0, 81, 80
2, 24362, Note_on_c, 0, 84, 85
2, 24539, Note_on_c, 0, 81, 0
2, 24540, Note_on_c, 0, 84, 0
2, 24541, Note_on_c, 0, 78, 80
2, 24541, Note_on_c, 0, 81, 98
2, 24601, Note_on_c, 0, 81, 0
2, 24601, Note_on_c, 0, 78, 0
2, 24601, Note_on_c, 0, 79, 89
2, 24601, Note_on_c, 0, 82, 93
2, 24660, Note_on_c, 0, 82, 0
2, 24661, Note_on_c, 0, 79, 0
2, 24661, Note_on_c, 0, 84, 93
2, 24661, Note_on_c, 0, 81, 80
2, 24719, Note_on_c, 0, 84, 0
2, 24721, Note_on_c, 0, 86, 102
2, 24721, Note_on_c, 0, 82, 98
2, 24723, Note_on_c, 0, 81, 0
2, 24900, Note_on_c, 0, 82, 0
2, 24901, Note_on_c, 0, 86, 0
2, 24901, Note_on_c, 0, 80, 93
2, 24901, Note_on_c, 0, 83, 102
2, 24959, Note_on_c, 0, 83, 0
2, 24960, Note_on_c, 0, 80, 0
2, 24961, Note_on_c, 0, 84, 93
2, 24961, Note_on_c, 0, 81, 107
2, 25019, Note_on_c, 0, 81, 0
2, 25019, Note_on_c, 0, 84, 0
2, 25021, Note_on_c, 0, 82, 89
2, 25021, Note_on_c, 0, 86, 93
2, 25081, Note_on_c, 0, 86, 0
2, 25081, Note_on_c, 0, 82, 0
2, 25081, Note_on_c, 0, 87, 89
2, 25081, Note_on_c, 0, 84, 98
2, 25139, Note_on_c, 0, 84, 0
2, 25140, Note_on_c, 0, 87, 0
2, 25141, Note_on_c, 0, 87, 85
2, 25141, Note_on_c, 0, 84, 113
2, 25199, Note_on_c, 0, 84, 0
2, 25199, Note_on_c, 0, 87, 0
2, 25201, Note_on_c, 0, 87, 114
2, 25336, Note_on_c, 0, 87, 0
2, 25341, Note_on_c, 0, 84, 85
2, 25361, Note_on_c, 0, 84, 0
2, 25361, Note_on_c, 0, 81, 93
2, 25381, Note_on_c, 0, 81, 0
2, 25381, Note_on_c, 0, 77, 80
2, 25401, Note_on_c, 0, 77, 0
2, 25401, Note_on_c, 0, 75, 72
2, 25421, Note_on_c, 0, 75, 0
2, 25421, Note_on_c, 0, 72, 64
2, 25441, Note_on_c, 0, 72, 0
2, 25441, Note_on_c, 0, 69, 89
2, 25461, Note_on_c, 0, 69, 0
2, 25461, Note_on_c, 0, 65, 43
2, 25480, Note_on_c, 0, 63, 68
2, 25481, Note_on_c, 0, 65, 0
2, 25500, Note_on_c, 0, 60, 76
2, 25501, Note_on_c, 0, 63, 0
2, 25520, Note_on_c, 0, 57, 44
2, 25522, Note_on_c, 0, 60, 0
2, 25539, Note_on_c, 0, 53, 80
2, 25541, Note_on_c, 0, 57, 0
2, 25562, Note_on_c, 0, 53, 0
2, 25920, Note_on_c, 0, 70, 72
2, 26039, Note_on_c, 0, 70, 0
2, 26040, Note_on_c, 0, 69, 68
2, 26159, Note_on_c, 0, 69, 0
2, 26160, Note_on_c, 0, 70, 76
2, 26279, Note_on_c, 0, 70, 0
2, 26280, Note_on_c, 0, 64, 93
2, 26520, Note_on_c, 0, 64, 0
2, 26521, Note_on_c, 0, 72, 64
2, 26640, Note_on_c, 0, 72, 0
2, 26640, Note_on_c, 0, 70, 72
2, 26655, Note_on_c, 0, 70, 0
2, 26655, Note_on_c, 0, 72, 72
2, 26670, Note_on_c, 0, 72, 0
2, 26670, Note_on_c, 0, 74, 72
2, 26685, Note_on_c, 0, 74, 0
2, 26685, Note_on_c, 0, 72, 72
2, 26820, Note_on_c, 0, 72, 0
2, 26821, Note_on_c, 0, 70, 76
2, 26851, Note_on_c, 0, 70, 0
2, 26851, Note_on_c, 0, 69, 76
2, 26881, Note_on_c, 0, 67, 80
2, 26882, Note_on_c, 0, 69, 0
2, 26911, Note_on_c, 0, 65, 80
2, 26913, Note_on_c, 0, 67, 0
2, 26941, Note_on_c, 0, 63, 68
2, 26942, Note_on_c, 0, 65, 0
2, 26971, Note_on_c, 0, 67, 76
2, 26972, Note_on_c, 0, 63, 0
2, 27000, Note_on_c, 0, 67, 0
2, 27001, Note_on_c, 0, 65, 89
2, 27046, Note_on_c, 0, 65, 0
2, 27061, Note_on_c, 0, 65, 85
2, 27074, Note_on_c, 0, 65, 0
2, 27074, Note_on_c, 0, 63, 72
2, 27088, Note_on_c, 0, 63, 0
2, 27089, Note_on_c, 0, 65, 76
2, 27104, Note_on_c, 0, 65, 0
2, 27104, Note_on_c, 0, 63, 60
2, 27121, Note_on_c, 0, 62, 85
2, 27126, Note_on_c, 0, 63, 0
2, 27222, Note_on_c, 0, 62, 0
2, 27242, Note_on_c, 0, 65, 89
2, 27242, Note_on_c, 0, 74, 89
2, 27391, Note_on_c, 0, 74, 0
2, 27391, Note_on_c, 0, 65, 0
2, 27420, Note_on_c, 0, 71, 76
2, 27420, Note_on_c, 0, 62, 76
2, 27479, Note_on_c, 0, 62, 0
2, 27479, Note_on_c, 0, 71, 0
2, 27480, Note_on_c, 0, 63, 80
2, 27480, Note_on_c, 0, 72, 93
2, 27539, Note_on_c, 0, 72, 0
2, 27539, Note_on_c, 0, 63, 0
2, 27540, Note_on_c, 0, 74, 89
2, 27540, Note_on_c, 0, 65, 93
2, 27599, Note_on_c, 0, 65, 0
2, 27599, Note_on_c, 0, 74, 0
2, 27600, Note_on_c, 0, 75, 85
2, 27600, Note_on_c, 0, 67, 93
2, 27659, Note_on_c, 0, 67, 0
2, 27659, Note_on_c, 0, 75, 0
2, 27660, Note_on_c, 0, 72, 89
2, 27719, Note_on_c, 0, 72, 0
2, 27720, Note_on_c, 0, 70, 76
2, 27779, Note_on_c, 0, 70, 0
2, 27780, Note_on_c, 0, 69, 80
2, 27839, Note_on_c, 0, 69, 0
2, 27840, Note_on_c, 0, 72, 89
2, 27899, Note_on_c, 0, 72, 0
2, 27900, Note_on_c, 0, 70, 85
2, 27959, Note_on_c, 0, 70, 0
2, 27960, Note_on_c, 0, 74, 102
2, 27960, Note_on_c, 0, 77, 98
2, 28140, Note_on_c, 0, 77, 0
2, 28140, Note_on_c, 0, 74, 0
2, 28140, Note_on_c, 0, 71, 80
2, 28140, Note_on_c, 0, 74, 76
2, 28199, Note_on_c, 0, 74, 0
2, 28199, Note_on_c, 0, 71, 0
2, 28200, Note_on_c, 0, 75, 72
2, 28200, Note_on_c, 0, 72, 89
2, 28259, Note_on_c, 0, 72, 0
2, 28259, Note_on_c, 0, 75, 0
2, 28260, Note_on_c, 0, 74, 76
2, 28260, Note_on_c, 0, 77, 85
2, 28319, Note_on_c, 0, 77, 0
2, 28319, Note_on_c, 0, 74, 0
2, 28320, Note_on_c, 0, 75, 76
2, 28320, Note_on_c, 0, 79, 85
2, 28379, Note_on_c, 0, 79, 0
2, 28379, Note_on_c, 0, 75, 0
2, 28380, Note_on_c, 0, 72, 68
2, 28380, Note_on_c, 0, 75, 72
2, 28439, Note_on_c, 0, 75, 0
2, 28439, Note_on_c, 0, 72, 0
2, 28440, Note_on_c, 0, 69, 89
2, 28440, Note_on_c, 0, 74, 89
2, 28499, Note_on_c, 0, 74, 0
2, 28499, Note_on_c, 0, 69, 0
2, 28500, Note_on_c, 0, 72, 85
2, 28559, Note_on_c, 0, 72, 0
2, 28560, Note_on_c, 0, 70, 98
2, 28560, Note_on_c, 0, 75, 89
2, 28619, Note_on_c, 0, 75, 0
2, 28620, Note_on_c, 0, 74, 89
2, 28679, Note_on_c, 0, 74, 0
2, 28680, Note_on_c, 0, 70, 0
2, 28680, Note_on_c, 0, 79, 98
2, 28680, Note_on_c, 0, 72, 107
2, 28739, Note_on_c, 0, 72, 0
2, 28739, Note_on_c, 0, 79, 0
2, 28740, Note_on_c, 0, 77, 93
2, 28799, Note_on_c, 0, 77, 0
2, 28800, Note_on_c, 0, 84, 98
2, 28800, Note_on_c, 0, 74, 107
2, 28859, Note_on_c, 0, 74, 0
2, 28859, Note_on_c, 0, 84, 0
2, 28860, Note_on_c, 0, 82, 93
2, 28919, Note_on_c, 0, 82, 0
2, 28920, Note_on_c, 0, 81, 98
2, 28920, Note_on_c, 0, 70, 80
2, 28979, Note_on_c, 0, 81, 0
2, 28980, Note_on_c, 0, 79, 89
2, 29039, Note_on_c, 0, 79, 0
2, 29040, Note_on_c, 0, 77, 80
2, 29099, Note_on_c, 0, 77, 0
2, 29100, Note_on_c, 0, 70, 0
2, 29100, Note_on_c, 0, 76, 80
2, 29159, Note_on_c, 0, 76, 0
2, 29160, Note_on_c, 0, 79, 80
2, 29160, Note_on_c, 0, 70, 72
2, 29219, Note_on_c, 0, 70, 0
2, 29219, Note_on_c, 0, 79, 0
2, 29281, Note_on_c, 0, 77, 68
2, 29281, Note_on_c, 0, 69, 72
2, 29407, Note_on_c, 0, 69, 0
2, 29408, Note_on_c, 0, 77, 0
2, 29762, Note_on_c, 0, 85, 89
2, 29895, Note_on_c, 0, 85, 0
2, 29900, Note_on_c, 0, 83, 68
2, 29919, Note_on_c, 0, 83, 0
2, 29919, Note_on_c, 0, 85, 68
2, 29939, Note_on_c, 0, 84, 76
2, 29944, Note_on_c, 0, 85, 0
2, 29959, Note_on_c, 0, 82, 76
2, 29961, Note_on_c, 0, 84, 0
2, 29979, Note_on_c, 0, 82, 0
2, 29979, Note_on_c, 0, 81, 76
2, 29999, Note_on_c, 0, 79, 80
2, 30000, Note_on_c, 0, 81, 0
2, 30019, Note_on_c, 0, 78, 57
2, 30020, Note_on_c, 0, 79, 0
2, 30039, Note_on_c, 0, 78, 0
2, 30039, Note_on_c, 0, 81, 89
2, 30059, Note_on_c, 0, 79, 89
2, 30061, Note_on_c, 0, 81, 0
2, 30079, Note_on_c, 0, 77, 76
2, 30081, Note_on_c, 0, 79, 0
2, 30099, Note_on_c, 0, 76, 76
2, 30100, Note_on_c, 0, 77, 0
2, 30119, Note_on_c, 0, 76, 0
2, 30119, Note_on_c, 0, 73, 85
2, 30139, Note_on_c, 0, 72, 80
2, 30140, Note_on_c, 0, 73, 0
2, 30159, Note_on_c, 0, 75, 76
2, 30160, Note_on_c, 0, 72, 0
2, 30179, Note_on_c, 0, 73, 80
2, 30180, Note_on_c, 0, 75, 0
2, 30199, Note_on_c, 0, 72, 72
2, 30200, Note_on_c, 0, 73, 0
2, 30219, Note_on_c, 0, 70, 64
2, 30222, Note_on_c, 0, 72, 0
2, 30235, Note_on_c, 0, 70, 0
2, 30239, Note_on_c, 0, 70, 85
2, 30240, Note_on_c, 0, 63, 72
2, 30288, Note_on_c, 0, 70, 0
2, 30300, Note_on_c, 0, 70, 102
2, 30309, Note_on_c, 0, 69, 80
2, 30312, Note_on_c, 0, 70, 0
2, 30322, Note_on_c, 0, 69, 0
2, 30322, Note_on_c, 0, 67, 62
2, 30334, Note_on_c, 0, 67, 0
2, 30334, Note_on_c, 0, 69, 85
2, 30346, Note_on_c, 0, 70, 72
2, 30348, Note_on_c, 0, 69, 0
2, 30359, Note_on_c, 0, 70, 0
2, 30360, Note_on_c, 0, 63, 72
2, 30360, Note_on_c, 0, 74, 93
2, 30389, Note_on_c, 0, 74, 0
2, 30389, Note_on_c, 0, 72, 85
2, 30413, Note_on_c, 0, 72, 0
2, 30419, Note_on_c, 0, 72, 89
2, 30420, Note_on_c, 0, 63, 0
2, 30480, Note_on_c, 0, 63, 0
2, 30528, Note_on_c, 0, 72, 0
2, 30540, Note_on_c, 0, 69, 72
2, 30541, Note_on_c, 0, 72, 107
2, 30593, Note_on_c, 0, 72, 0
2, 30600, Note_on_c, 0, 69, 0
2, 30600, Note_on_c, 0, 69, 72
2, 30600, Note_on_c, 0, 72, 102
2, 30685, Note_on_c, 0, 72, 0
2, 30686, Note_on_c, 0, 74, 80
2, 30696, Note_on_c, 0, 72, 68
2, 30700, Note_on_c, 0, 74, 0
2, 30703, Note_on_c, 0, 71, 80
2, 30704, Note_on_c, 0, 72, 0
2, 30712, Note_on_c, 0, 72, 89
2, 30715, Note_on_c, 0, 71, 0
2, 30719, Note_on_c, 0, 72, 0
2, 30720, Note_on_c, 0, 69, 0
2, 30720, Note_on_c, 0, 70, 72
2, 30722, Note_on_c, 0, 77, 89
2, 30777, Note_on_c, 0, 77, 0
2, 30777, Note_on_c, 0, 65, 89
2, 30780, Note_on_c, 0, 70, 0
2, 30837, Note_on_c, 0, 70, 93
2, 30838, Note_on_c, 0, 65, 0
2, 30897, Note_on_c, 0, 70, 0
2, 30898, Note_on_c, 0, 74, 93
2, 30956, Note_on_c, 0, 74, 0
2, 30957, Note_on_c, 0, 77, 102
2, 31019, Note_on_c, 0, 75, 89
2, 31020, Note_on_c, 0, 77, 0
2, 31078, Note_on_c, 0, 74, 98
2, 31079, Note_on_c, 0, 75, 0
2, 31106, Note_on_c, 0, 74, 0
2, 31107, Note_on_c, 0, 72, 89
2, 31136, Note_on_c, 0, 70, 80
2, 31139, Note_on_c, 0, 72, 0
2, 31166, Note_on_c, 0, 69, 89
2, 31168, Note_on_c, 0, 70, 0
2, 31197, Note_on_c, 0, 67, 93
2, 31198, Note_on_c, 0, 69, 0
2, 31261, Note_on_c, 0, 67, 0
2, 31261, Note_on_c, 0, 65, 93
2, 31313, Note_on_c, 0, 65, 0
2, 31318, Note_on_c, 0, 79, 102
2, 31381, Note_on_c, 0, 77, 93
2, 31384, Note_on_c, 0, 79, 0
2, 31439, Note_on_c, 0, 75, 89
2, 31442, Note_on_c, 0, 77, 0
2, 31467, Note_on_c, 0, 74, 85
2, 31470, Note_on_c, 0, 75, 0
2, 31497, Note_on_c, 0, 74, 0
2, 31497, Note_on_c, 0, 72, 80
2, 31526, Note_on_c, 0, 71, 93
2, 31528, Note_on_c, 0, 72, 0
2, 31557, Note_on_c, 0, 71, 0
2, 31557, Note_on_c, 0, 68, 93
2, 31618, Note_on_c, 0, 68, 0
2, 31619, Note_on_c, 0, 67, 93
2, 31642, Note_on_c, 0, 67, 0
2, 31677, Note_on_c, 0, 80, 119
2, 31737, Note_on_c, 0, 80, 0
2, 31738, Note_on_c, 0, 79, 93
2, 31797, Note_on_c, 0, 79, 0
2, 31798, Note_on_c, 0, 77, 93
2, 31827, Note_on_c, 0, 75, 85
2, 31830, Note_on_c, 0, 77, 0
2, 31856, Note_on_c, 0, 74, 89
2, 31858, Note_on_c, 0, 75, 0
2, 31887, Note_on_c, 0, 72, 85
2, 31888, Note_on_c, 0, 74, 0
2, 31917, Note_on_c, 0, 71, 98
2, 31918, Note_on_c, 0, 72, 0
2, 31947, Note_on_c, 0, 72, 89
2, 31949, Note_on_c, 0, 71, 0
2, 31977, Note_on_c, 0, 74, 93
2, 31978, Note_on_c, 0, 72, 0
2, 32007, Note_on_c, 0, 75, 76
2, 32008, Note_on_c, 0, 74, 0
2, 32039, Note_on_c, 0, 75, 0
2, 32040, Note_on_c, 0, 70, 80
2, 32130, Note_on_c, 0, 72, 89
2, 32131, Note_on_c, 0, 70, 0
2, 32145, Note_on_c, 0, 70, 72
2, 32147, Note_on_c, 0, 72, 0
2, 32159, Note_on_c, 0, 70, 0
2, 32160, Note_on_c, 0, 69, 98
2, 32276, Note_on_c, 0, 69, 0
2, 32398, Note_on_c, 0, 70, 113
2, 32426, Note_on_c, 0, 82, 89
2, 32427, Note_on_c, 0, 70, 0
2, 32524, Note_on_c, 0, 81, 93
2, 32526, Note_on_c, 0, 82, 0
2, 32638, Note_on_c, 0, 82, 85
2, 32640, Note_on_c, 0, 81, 0
2, 32753, Note_on_c, 0, 82, 0
2, 32760, Note_on_c, 0, 77, 80
2, 33119, Note_on_c, 0, 77, 0
2, 33119, Note_on_c, 0, 84, 76
2, 33241, Note_on_c, 0, 83, 76
2, 33245, Note_on_c, 0, 84, 0
2, 33361, Note_on_c, 0, 84, 89
2, 33363, Note_on_c, 0, 83, 0
2, 33480, Note_on_c, 0, 84, 0
2, 33481, Note_on_c, 0, 77, 72
2, 33776, Note_on_c, 0, 77, 0
2, 33779, Note_on_c, 0, 84, 76
2, 33901, Note_on_c, 0, 83, 76
2, 33909, Note_on_c, 0, 84, 0
2, 34020, Note_on_c, 0, 83, 0
2, 34020, Note_on_c, 0, 82, 80
2, 34139, Note_on_c, 0, 83, 76
2, 34140, Note_on_c, 0, 82, 0
2, 34197, Note_on_c, 0, 83, 0
2, 34228, Note_on_c, 0, 77, 89
2, 34258, Note_on_c, 0, 77, 0
2, 34258, Note_on_c, 0, 80, 89
2, 34288, Note_on_c, 0, 74, 89
2, 34290, Note_on_c, 0, 80, 0
2, 34317, Note_on_c, 0, 74, 0
2, 34318, Note_on_c, 0, 77, 76
2, 34348, Note_on_c, 0, 71, 76
2, 34349, Note_on_c, 0, 77, 0
2, 34379, Note_on_c, 0, 71, 0
2, 34379, Note_on_c, 0, 74, 85
2, 34408, Note_on_c, 0, 74, 0
2, 34408, Note_on_c, 0, 68, 76
2, 34438, Note_on_c, 0, 68, 0
2, 34438, Note_on_c, 0, 70, 72
2, 34467, Note_on_c, 0, 70, 0
2, 34468, Note_on_c, 0, 65, 76
2, 34499, Note_on_c, 0, 68, 85
2, 34501, Note_on_c, 0, 65, 0
2, 34529, Note_on_c, 0, 68, 0
2, 34529, Note_on_c, 0, 62, 76
2, 34552, Note_on_c, 0, 62, 0
2, 34589, Note_on_c, 0, 80, 107
2, 34618, Note_on_c, 0, 80, 0
2, 34619, Note_on_c, 0, 83, 93
2, 34647, Note_on_c, 0, 83, 0
2, 34649, Note_on_c, 0, 75, 64
2, 34674, Note_on_c, 0, 75, 0
2, 34679, Note_on_c, 0, 80, 85
2, 34709, Note_on_c, 0, 80, 0
2, 34709, Note_on_c, 0, 71, 72
2, 34734, Note_on_c, 0, 71, 0
2, 34739, Note_on_c, 0, 75, 80
2, 34767, Note_on_c, 0, 75, 0
2, 34769, Note_on_c, 0, 68, 62
2, 34784, Note_on_c, 0, 68, 0
2, 34799, Note_on_c, 0, 71, 85
2, 34828, Note_on_c, 0, 71, 0
2, 34829, Note_on_c, 0, 63, 72
2, 34851, Note_on_c, 0, 63, 0
2, 34859, Note_on_c, 0, 68, 85
2, 34889, Note_on_c, 0, 68, 0
2, 34889, Note_on_c, 0, 59, 76
2, 34901, Note_on_c, 0, 59, 0
2, 34949, Note_on_c, 0, 82, 119
2, 34978, Note_on_c, 0, 82, 0
2, 34979, Note_on_c, 0, 88, 98
2, 35009, Note_on_c, 0, 79, 93
2, 35010, Note_on_c, 0, 88, 0
2, 35036, Note_on_c, 0, 79, 0
2, 35039, Note_on_c, 0, 82, 93
2, 35069, Note_on_c, 0, 82, 0
2, 35069, Note_on_c, 0, 76, 62
2, 35095, Note_on_c, 0, 76, 0
2, 35099, Note_on_c, 0, 79, 93
2, 35127, Note_on_c, 0, 79, 0
2, 35129, Note_on_c, 0, 70, 76
2, 35156, Note_on_c, 0, 70, 0
2, 35159, Note_on_c, 0, 75, 85
2, 35189, Note_on_c, 0, 75, 0
2, 35189, Note_on_c, 0, 67, 76
2, 35215, Note_on_c, 0, 67, 0
2, 35219, Note_on_c, 0, 70, 64
2, 35246, Note_on_c, 0, 70, 0
2, 35249, Note_on_c, 0, 64, 80
2, 35273, Note_on_c, 0, 64, 0
2, 35401, Note_on_c, 0, 65, 68
2, 35429, Note_on_c, 0, 65, 0
2, 35429, Note_on_c, 0, 70, 52
2, 35453, Note_on_c, 0, 70, 0
2, 35459, Note_on_c, 0, 74, 68
2, 35482, Note_on_c, 0, 74, 0
2, 35489, Note_on_c, 0, 77, 60
2, 35497, Note_on_c, 0, 77, 0
2, 35549, Note_on_c, 0, 67, 68
2, 35574, Note_on_c, 0, 67, 0
2, 35579, Note_on_c, 0, 70, 72
2, 35599, Note_on_c, 0, 70, 0
2, 35609, Note_on_c, 0, 79, 68
2, 35617, Note_on_c, 0, 79, 0
2, 35759, Note_on_c, 0, 62, 64
2, 35785, Note_on_c, 0, 62, 0
2, 35789, Note_on_c, 0, 65, 49
2, 35808, Note_on_c, 0, 65, 0
2, 35819, Note_on_c, 0, 70, 64
2, 35835, Note_on_c, 0, 70, 0
2, 35849, Note_on_c, 0, 74, 57
2, 35857, Note_on_c, 0, 74, 0
2, 35909, Note_on_c, 0, 60, 51
2, 35939, Note_on_c, 0, 63, 56
2, 35941, Note_on_c, 0, 60, 0
2, 35959, Note_on_c, 0, 63, 0
2, 35969, Note_on_c, 0, 69, 64
2, 35975, Note_on_c, 0, 69, 0
2, 35999, Note_on_c, 0, 70, 72
2, 36135, Note_on_c, 0, 70, 0
2, 36239, Note_on_c, 0, 82, 76
2, 36258, Note_on_c, 0, 82, 0
2, 36259, Note_on_c, 0, 81, 76
2, 36276, Note_on_c, 0, 81, 0
2, 36279, Note_on_c, 0, 84, 59
2, 36294, Note_on_c, 0, 84, 0
2, 36298, Note_on_c, 0, 82, 68
2, 36318, Note_on_c, 0, 81, 72
2, 36319, Note_on_c, 0, 82, 0
2, 36337, Note_on_c, 0, 81, 0
2, 36338, Note_on_c, 0, 79, 59
2, 36359, Note_on_c, 0, 77, 76
2, 36361, Note_on_c, 0, 79, 0
2, 36499, Note_on_c, 0, 76, 80
2, 36502, Note_on_c, 0, 77, 0
2, 36517, Note_on_c, 0, 76, 0
2, 36519, Note_on_c, 0, 79, 76
2, 36538, Note_on_c, 0, 79, 0
2, 36539, Note_on_c, 0, 77, 80
2, 36559, Note_on_c, 0, 75, 64
2, 36561, Note_on_c, 0, 77, 0
2, 36579, Note_on_c, 0, 74, 80
2, 36582, Note_on_c, 0, 75, 0
2, 36599, Note_on_c, 0, 72, 76
2, 36601, Note_on_c, 0, 74, 0
2, 36619, Note_on_c, 0, 71, 85
2, 36622, Note_on_c, 0, 72, 0
2, 36639, Note_on_c, 0, 71, 0
2, 36639, Note_on_c, 0, 74, 80
2, 36659, Note_on_c, 0, 72, 72
2, 36660, Note_on_c, 0, 74, 0
2, 36679, Note_on_c, 0, 70, 80
2, 36680, Note_on_c, 0, 72, 0
2, 36699, Note_on_c, 0, 69, 89
2, 36700, Note_on_c, 0, 70, 0
2, 36718, Note_on_c, 0, 69, 0
2, 36719, Note_on_c, 0, 75, 98
2, 36841, Note_on_c, 0, 75, 0
2, 36841, Note_on_c, 0, 74, 72
2, 36903, Note_on_c, 0, 74, 0
2, 36959, Note_on_c, 0, 82, 89
2, 36979, Note_on_c, 0, 82, 0
2, 36979, Note_on_c, 0, 81, 80
2, 36997, Note_on_c, 0, 81, 0
2, 36999, Note_on_c, 0, 84, 89
2, 37019, Note_on_c, 0, 84, 0
2, 37019, Note_on_c, 0, 82, 80
2, 37039, Note_on_c, 0, 81, 85
2, 37041, Note_on_c, 0, 82, 0
2, 37059, Note_on_c, 0, 81, 0
2, 37059, Note_on_c, 0, 79, 72
2, 37079, Note_on_c, 0, 77, 89
2, 37080, Note_on_c, 0, 79, 0
2, 37219, Note_on_c, 0, 76, 85
2, 37222, Note_on_c, 0, 77, 0
2, 37241, Note_on_c, 0, 76, 0
2, 37241, Note_on_c, 0, 79, 85
2, 37261, Note_on_c, 0, 77, 89
2, 37263, Note_on_c, 0, 79, 0
2, 37281, Note_on_c, 0, 75, 80
2, 37283, Note_on_c, 0, 77, 0
2, 37301, Note_on_c, 0, 74, 85
2, 37304, Note_on_c, 0, 75, 0
2, 37321, Note_on_c, 0, 74, 0
2, 37321, Note_on_c, 0, 72, 76
2, 37341, Note_on_c, 0, 71, 80
2, 37342, Note_on_c, 0, 72, 0
2, 37359, Note_on_c, 0, 71, 0
2, 37359, Note_on_c, 0, 74, 80
2, 37379, Note_on_c, 0, 74, 0
2, 37379, Note_on_c, 0, 72, 89
2, 37399, Note_on_c, 0, 70, 76
2, 37403, Note_on_c, 0, 72, 0
2, 37418, Note_on_c, 0, 70, 0
2, 37419, Note_on_c, 0, 69, 93
2, 37434, Note_on_c, 0, 69, 0
2, 37439, Note_on_c, 0, 79, 102
2, 37559, Note_on_c, 0, 79, 0
2, 37559, Note_on_c, 0, 77, 62
2, 37579, Note_on_c, 0, 76, 62
2, 37582, Note_on_c, 0, 77, 0
2, 37598, Note_on_c, 0, 76, 0
2, 37599, Note_on_c, 0, 79, 76
2, 37619, Note_on_c, 0, 77, 76
2, 37622, Note_on_c, 0, 79, 0
2, 37639, Note_on_c, 0, 75, 64
2, 37640, Note_on_c, 0, 77, 0
2, 37659, Note_on_c, 0, 75, 0
2, 37659, Note_on_c, 0, 74, 62
2, 37679, Note_on_c, 0, 72, 80
2, 37681, Note_on_c, 0, 74, 0
2, 37700, Note_on_c, 0, 72, 0
2, 37700, Note_on_c, 0, 71, 68
2, 37719, Note_on_c, 0, 74, 72
2, 37721, Note_on_c, 0, 71, 0
2, 37740, Note_on_c, 0, 72, 72
2, 37742, Note_on_c, 0, 74, 0
2, 37759, Note_on_c, 0, 70, 72
2, 37762, Note_on_c, 0, 72, 0
2, 37780, Note_on_c, 0, 70, 0
2, 37780, Note_on_c, 0, 69, 80
2, 37800, Note_on_c, 0, 69, 0
2, 37801, Note_on_c, 0, 78, 93
2, 37919, Note_on_c, 0, 77, 57
2, 37921, Note_on_c, 0, 78, 0
2, 37940, Note_on_c, 0, 76, 62
2, 37944, Note_on_c, 0, 77, 0
2, 37959, Note_on_c, 0, 76, 0
2, 37959, Note_on_c, 0, 78, 59
2, 37979, Note_on_c, 0, 77, 68
2, 37985, Note_on_c, 0, 78, 0
2, 37999, Note_on_c, 0, 75, 62
2, 38000, Note_on_c, 0, 77, 0
2, 38019, Note_on_c, 0, 75, 0
2, 38019, Note_on_c, 0, 73, 56
2, 38039, Note_on_c, 0, 72, 64
2, 38040, Note_on_c, 0, 73, 0
2, 38060, Note_on_c, 0, 72, 0
2, 38060, Note_on_c, 0, 70, 56
2, 38079, Note_on_c, 0, 73, 62
2, 38082, Note_on_c, 0, 70, 0
2, 38098, Note_on_c, 0, 73, 0
2, 38100, Note_on_c, 0, 72, 76
2, 38120, Note_on_c, 0, 70, 76
2, 38121, Note_on_c, 0, 72, 0
2, 38139, Note_on_c, 0, 70, 0
2, 38140, Note_on_c, 0, 68, 76
2, 38158, Note_on_c, 0, 68, 0
2, 38161, Note_on_c, 0, 82, 102
2, 38278, Note_on_c, 0, 82, 0
2, 38279, Note_on_c, 0, 80, 76
2, 38320, Note_on_c, 0, 80, 0
2, 38339, Note_on_c, 0, 80, 62
2, 38349, Note_on_c, 0, 80, 0
2, 38399, Note_on_c, 0, 80, 98
2, 38408, Note_on_c, 0, 80, 0
2, 38459, Note_on_c, 0, 80, 119
2, 38470, Note_on_c, 0, 80, 0
2, 38518, Note_on_c, 0, 80, 119
2, 38521, Note_on_c, 0, 80, 107
2, 38669, Note_on_c, 0, 80, 0
2, 38670, Note_on_c, 0, 82, 85
2, 38684, Note_on_c, 0, 80, 80
2, 38686, Note_on_c, 0, 82, 0
2, 38688, Note_on_c, 0, 80, 0
2, 38698, Note_on_c, 0, 78, 80
2, 38700, Note_on_c, 0, 80, 0
2, 38711, Note_on_c, 0, 78, 0
2, 38711, Note_on_c, 0, 77, 64
2, 38726, Note_on_c, 0, 77, 0
2, 38726, Note_on_c, 0, 75, 76
2, 38740, Note_on_c, 0, 73, 62
2, 38743, Note_on_c, 0, 75, 0
2, 38754, Note_on_c, 0, 73, 0
2, 38754, Note_on_c, 0, 71, 93
2, 38770, Note_on_c, 0, 71, 0
2, 38787, Note_on_c, 0, 73, 76
2, 38796, Note_on_c, 0, 71, 68
2, 38797, Note_on_c, 0, 73, 0
2, 38802, Note_on_c, 0, 70, 53
2, 38804, Note_on_c, 0, 71, 0
2, 38812, Note_on_c, 0, 71, 85
2, 38813, Note_on_c, 0, 70, 0
2, 38818, Note_on_c, 0, 71, 0
2, 38819, Note_on_c, 0, 75, 85
2, 38846, Note_on_c, 0, 75, 0
2, 38847, Note_on_c, 0, 78, 76
2, 38874, Note_on_c, 0, 78, 0
2, 38875, Note_on_c, 0, 70, 89
2, 39059, Note_on_c, 0, 70, 0
2, 39059, Note_on_c, 0, 72, 89
2, 39074, Note_on_c, 0, 70, 68
2, 39080, Note_on_c, 0, 72, 0
2, 39089, Note_on_c, 0, 69, 76
2, 39090, Note_on_c, 0, 70, 0
2, 39103, Note_on_c, 0, 70, 76
2, 39105, Note_on_c, 0, 69, 0
2, 39119, Note_on_c, 0, 70, 0
2, 39120, Note_on_c, 0, 73, 93
2, 39175, Note_on_c, 0, 73, 0
2, 39176, Note_on_c, 0, 72, 85
2, 39237, Note_on_c, 0, 72, 0
2, 39239, Note_on_c, 0, 70, 89
2, 39241, Note_on_c, 0, 70, 80
2, 39254, Note_on_c, 0, 70, 0
2, 39254, Note_on_c, 0, 86, 102
2, 39255, Note_on_c, 0, 70, 0
2, 39493, Note_on_c, 0, 86, 0
2, 39494, Note_on_c, 0, 84, 89
2, 39508, Note_on_c, 0, 87, 76
2, 39510, Note_on_c, 0, 84, 0
2, 39520, Note_on_c, 0, 87, 0
2, 39521, Note_on_c, 0, 86, 93
2, 39535, Note_on_c, 0, 86, 0
2, 39535, Note_on_c, 0, 84, 80
2, 39550, Note_on_c, 0, 82, 68
2, 39552, Note_on_c, 0, 84, 0
2, 39564, Note_on_c, 0, 81, 68
2, 39565, Note_on_c, 0, 82, 0
2, 39580, Note_on_c, 0, 81, 0
2, 39580, Note_on_c, 0, 79, 72
2, 39596, Note_on_c, 0, 79, 0
2, 39596, Note_on_c, 0, 77, 85
2, 39750, Note_on_c, 0, 82, 72
2, 39751, Note_on_c, 0, 77, 0
2, 39781, Note_on_c, 0, 74, 64
2, 39782, Note_on_c, 0, 82, 0
2, 39810, Note_on_c, 0, 79, 62
2, 39811, Note_on_c, 0, 74, 0
2, 39839, Note_on_c, 0, 79, 0
2, 39840, Note_on_c, 0, 77, 68
2, 39870, Note_on_c, 0, 77, 0
2, 39870, Note_on_c, 0, 75, 72
2, 39900, Note_on_c, 0, 75, 0
2, 39900, Note_on_c, 0, 72, 72
2, 39929, Note_on_c, 0, 72, 0
2, 39930, Note_on_c, 0, 69, 76
2, 39960, Note_on_c, 0, 86, 102
2, 39961, Note_on_c, 0, 69, 0
2, 40215, Note_on_c, 0, 86, 0
2, 40215, Note_on_c, 0, 84, 80
2, 40229, Note_on_c, 0, 87, 80
2, 40232, Note_on_c, 0, 84, 0
2, 40243, Note_on_c, 0, 87, 0
2, 40243, Note_on_c, 0, 86, 85
2, 40258, Note_on_c, 0, 84, 76
2, 40259, Note_on_c, 0, 86, 0
2, 40273, Note_on_c, 0, 82, 72
2, 40276, Note_on_c, 0, 84, 0
2, 40287, Note_on_c, 0, 81, 72
2, 40289, Note_on_c, 0, 82, 0
2, 40302, Note_on_c, 0, 81, 0
2, 40304, Note_on_c, 0, 79, 42
2, 40317, Note_on_c, 0, 79, 0
2, 40317, Note_on_c, 0, 77, 89
2, 40456, Note_on_c, 0, 78, 89
2, 40459, Note_on_c, 0, 77, 0
2, 40471, Note_on_c, 0, 81, 85
2, 40472, Note_on_c, 0, 78, 0
2, 40485, Note_on_c, 0, 79, 76
2, 40488, Note_on_c, 0, 81, 0
2, 40499, Note_on_c, 0, 77, 76
2, 40502, Note_on_c, 0, 79, 0
2, 40514, Note_on_c, 0, 75, 80
2, 40516, Note_on_c, 0, 77, 0
2, 40528, Note_on_c, 0, 74, 60
2, 40529, Note_on_c, 0, 75, 0
2, 40543, Note_on_c, 0, 72, 80
2, 40545, Note_on_c, 0, 74, 0
2, 40558, Note_on_c, 0, 70, 59
2, 40559, Note_on_c, 0, 72, 0
2, 40573, Note_on_c, 0, 70, 0
2, 40574, Note_on_c, 0, 69, 57
2, 40588, Note_on_c, 0, 69, 0
2, 40589, Note_on_c, 0, 75, 62
2, 40603, Note_on_c, 0, 74, 76
2, 40606, Note_on_c, 0, 75, 0
2, 40617, Note_on_c, 0, 74, 0
2, 40618, Note_on_c, 0, 77, 80
2, 40634, Note_on_c, 0, 75, 62
2, 40636, Note_on_c, 0, 77, 0
2, 40649, Note_on_c, 0, 72, 76
2, 40651, Note_on_c, 0, 75, 0
2, 40664, Note_on_c, 0, 72, 0
2, 40664, Note_on_c, 0, 69, 72
2, 40680, Note_on_c, 0, 70, 85
2, 40682, Note_on_c, 0, 69, 0
2, 40698, Note_on_c, 0, 70, 0
2, 40698, Note_on_c, 0, 69, 85
2, 40717, Note_on_c, 0, 69, 0
2, 40717, Note_on_c, 0, 72, 85
2, 40739, Note_on_c, 0, 72, 0
2, 40739, Note_on_c, 0, 70, 80
2, 40759, Note_on_c, 0, 69, 85
2, 40760, Note_on_c, 0, 70, 0
2, 40778, Note_on_c, 0, 69, 0
2, 40779, Note_on_c, 0, 67, 85
2, 40798, Note_on_c, 0, 67, 0
2, 40798, Note_on_c, 0, 65, 76
2, 40817, Note_on_c, 0, 65, 0
2, 40819, Note_on_c, 0, 64, 80
2, 40838, Note_on_c, 0, 67, 76
2, 40839, Note_on_c, 0, 64, 0
2, 40857, Note_on_c, 0, 67, 0
2, 40858, Note_on_c, 0, 65, 89
2, 40879, Note_on_c, 0, 65, 0
2, 40879, Note_on_c, 0, 63, 68
2, 40898, Note_on_c, 0, 62, 76
2, 40900, Note_on_c, 0, 63, 0
2, 40919, Note_on_c, 0, 62, 0
2, 40919, Note_on_c, 0, 60, 80
2, 40940, Note_on_c, 0, 59, 76
2, 40941, Note_on_c, 0, 60, 0
2, 40958, Note_on_c, 0, 59, 0
2, 40959, Note_on_c, 0, 62, 76
2, 40978, Note_on_c, 0, 62, 0
2, 40979, Note_on_c, 0, 60, 76
2, 40999, Note_on_c, 0, 58, 72
2, 41001, Note_on_c, 0, 60, 0
2, 41018, Note_on_c, 0, 57, 89
2, 41020, Note_on_c, 0, 58, 0
2, 41039, Note_on_c, 0, 57, 0
2, 41039, Note_on_c, 0, 55, 89
2, 41159, Note_on_c, 0, 55, 0
2, 41159, Note_on_c, 0, 53, 59
2, 41219, Note_on_c, 0, 77, 89
2, 41220, Note_on_c, 0, 53, 0
2, 41228, Note_on_c, 0, 77, 0
2, 41279, Note_on_c, 0, 77, 93
2, 41287, Note_on_c, 0, 77, 0
2, 41339, Note_on_c, 0, 77, 89
2, 41348, Note_on_c, 0, 77, 0
2, 41396, Note_on_c, 0, 77, 93
2, 41403, Note_on_c, 0, 78, 80
2, 41417, Note_on_c, 0, 79, 80
2, 41418, Note_on_c, 0, 78, 0
2, 41429, Note_on_c, 0, 79, 0
2, 41431, Note_on_c, 0, 81, 72
2, 41440, Note_on_c, 0, 77, 0
2, 41444, Note_on_c, 0, 79, 76
2, 41445, Note_on_c, 0, 81, 0
2, 41458, Note_on_c, 0, 77, 80
2, 41459, Note_on_c, 0, 79, 0
2, 41473, Note_on_c, 0, 75, 64
2, 41475, Note_on_c, 0, 77, 0
2, 41487, Note_on_c, 0, 75, 0
2, 41487, Note_on_c, 0, 74, 59
2, 41501, Note_on_c, 0, 72, 72
2, 41502, Note_on_c, 0, 74, 0
2, 41516, Note_on_c, 0, 72, 0
2, 41516, Note_on_c, 0, 70, 76
2, 41573, Note_on_c, 0, 70, 0
2, 41575, Note_on_c, 0, 72, 80
2, 41589, Note_on_c, 0, 70, 68
2, 41592, Note_on_c, 0, 72, 0
2, 41602, Note_on_c, 0, 69, 62
2, 41604, Note_on_c, 0, 70, 0
2, 41618, Note_on_c, 0, 69, 0
2, 41618, Note_on_c, 0, 70, 72
2, 41635, Note_on_c, 0, 70, 0
2, 41636, Note_on_c, 0, 74, 80
2, 41699, Note_on_c, 0, 74, 0
2, 41700, Note_on_c, 0, 72, 62
2, 41723, Note_on_c, 0, 72, 0
2, 41759, Note_on_c, 0, 70, 68
2, 41760, Note_on_c, 0, 62, 64
2, 41879, Note_on_c, 0, 70, 0
2, 41880, Note_on_c, 0, 62, 0
2, 42121, Note_on_c, 0, 70, 89
2, 42121, Note_on_c, 0, 79, 102
2, 42200, Note_on_c, 0, 79, 0
2, 42201, Note_on_c, 0, 70, 0
2, 42242, Note_on_c, 0, 80, 56
2, 42242, Note_on_c, 0, 71, 57
2, 42288, Note_on_c, 0, 71, 0
2, 42288, Note_on_c, 0, 80, 0
2, 42298, Note_on_c, 0, 71, 80
2, 42299, Note_on_c, 0, 80, 80
2, 42304, Note_on_c, 0, 71, 0
2, 42306, Note_on_c, 0, 80, 0
2, 42360, Note_on_c, 0, 80, 85
2, 42360, Note_on_c, 0, 71, 85
2, 42369, Note_on_c, 0, 71, 0
2, 42369, Note_on_c, 0, 80, 0
2, 42421, Note_on_c, 0, 71, 93
2, 42421, Note_on_c, 0, 80, 85
2, 42431, Note_on_c, 0, 71, 0
2, 42433, Note_on_c, 0, 80, 0
2, 42479, Note_on_c, 0, 78, 89
2, 42480, Note_on_c, 0, 72, 72
2, 42490, Note_on_c, 0, 78, 0
2, 42492, Note_on_c, 0, 79, 72
2, 42505, Note_on_c, 0, 79, 0
2, 42505, Note_on_c, 0, 81, 76
2, 42521, Note_on_c, 0, 81, 0
2, 42521, Note_on_c, 0, 79, 80
2, 42536, Note_on_c, 0, 79, 0
2, 42537, Note_on_c, 0, 77, 76
2, 42540, Note_on_c, 0, 72, 0
2, 42553, Note_on_c, 0, 75, 72
2, 42555, Note_on_c, 0, 77, 0
2, 42568, Note_on_c, 0, 75, 0
2, 42568, Note_on_c, 0, 74, 62
2, 42581, Note_on_c, 0, 72, 56
2, 42585, Note_on_c, 0, 74, 0
2, 42599, Note_on_c, 0, 72, 0
2, 42600, Note_on_c, 0, 65, 72
2, 42600, Note_on_c, 0, 70, 62
2, 42660, Note_on_c, 0, 70, 0
2, 42660, Note_on_c, 0, 72, 62
2, 42675, Note_on_c, 0, 72, 0
2, 42675, Note_on_c, 0, 70, 62
2, 42690, Note_on_c, 0, 70, 0
2, 42690, Note_on_c, 0, 69, 62
2, 42705, Note_on_c, 0, 69, 0
2, 42705, Note_on_c, 0, 70, 62
2, 42720, Note_on_c, 0, 70, 0
2, 42720, Note_on_c, 0, 65, 0
2, 42720, Note_on_c, 0, 69, 72
2, 42720, Note_on_c, 0, 74, 62
2, 42780, Note_on_c, 0, 74, 0
2, 42780, Note_on_c, 0, 72, 62
2, 42838, Note_on_c, 0, 70, 76
2, 42840, Note_on_c, 0, 72, 0
2, 42840, Note_on_c, 0, 69, 0
2, 42851, Note_on_c, 0, 70, 0
2, 42861, Note_on_c, 0, 89, 80
2, 42870, Note_on_c, 0, 89, 0
2, 42881, Note_on_c, 0, 86, 89
2, 42888, Note_on_c, 0, 86, 0
2, 42901, Note_on_c, 0, 82, 76
2, 42909, Note_on_c, 0, 82, 0
2, 42921, Note_on_c, 0, 77, 72
2, 42929, Note_on_c, 0, 77, 0
2, 42941, Note_on_c, 0, 74, 80
2, 42948, Note_on_c, 0, 74, 0
2, 42961, Note_on_c, 0, 70, 93
2, 42970, Note_on_c, 0, 70, 0
2, 43101, Note_on_c, 0, 69, 72
2, 43121, Note_on_c, 0, 72, 72
2, 43123, Note_on_c, 0, 69, 0
2, 43141, Note_on_c, 0, 75, 72
2, 43143, Note_on_c, 0, 72, 0
2, 43161, Note_on_c, 0, 72, 72
2, 43163, Note_on_c, 0, 75, 0
2, 43180, Note_on_c, 0, 72, 0
2, 43181, Note_on_c, 0, 69, 60
2, 43190, Note_on_c, 0, 69, 0
2, 43201, Note_on_c, 0, 70, 80
2, 43209, Note_on_c, 0, 70, 0
2, 43221, Note_on_c, 0, 77, 80
2, 43230, Note_on_c, 0, 77, 0
2, 43241, Note_on_c, 0, 74, 62
2, 43247, Note_on_c, 0, 74, 0
2, 43261, Note_on_c, 0, 70, 76
2, 43269, Note_on_c, 0, 70, 0
2, 43281, Note_on_c, 0, 65, 64
2, 43289, Note_on_c, 0, 65, 0
2, 43301, Note_on_c, 0, 62, 89
2, 43308, Note_on_c, 0, 62, 0
2, 43321, Note_on_c, 0, 58, 72
2, 43345, Note_on_c, 0, 58, 0
2, 43460, Note_on_c, 0, 57, 64
2, 43478, Note_on_c, 0, 57, 0
2, 43481, Note_on_c, 0, 60, 76
2, 43499, Note_on_c, 0, 60, 0
2, 43501, Note_on_c, 0, 63, 72
2, 43521, Note_on_c, 0, 60, 76
2, 43522, Note_on_c, 0, 63, 0
2, 43539, Note_on_c, 0, 60, 0
2, 43541, Note_on_c, 0, 57, 72
2, 43549, Note_on_c, 0, 57, 0
2, 43561, Note_on_c, 0, 60, 76
2, 43561, Note_on_c, 0, 57, 76
2, 43561, Note_on_c, 0, 53, 62
2, 43561, Note_on_c, 0, 51, 64
2, 43681, Note_on_c, 0, 51, 0
2, 43681, Note_on_c, 0, 60, 0
2, 43681, Note_on_c, 0, 58, 57
2, 43681, Note_on_c, 0, 50, 51
2, 43683, Note_on_c, 0, 57, 0
2, 43750, Note_on_c, 0, 50, 0
2, 43750, Note_on_c, 0, 58, 0
2, 43751, Note_on_c, 0, 53, 0
2, 43920, Control_c, 0, 121, 0
2, 43920, End_track
3, 0, Start_track
3, 0, MIDI_port, 0
3, 0, Program_c, 1, 0
3, 0, Control_c, 1, 7, 127
3, 0, Control_c, 1, 10, 44
3, 0, Control_c, 1, 121, 0
3, 0, Control_c, 1, 91, 75
3, 0, Note_on_c, 1, 58, 47
3, 0, Note_on_c, 1, 62, 62
3, 112, Note_on_c, 1, 62, 0
3, 114, Note_on_c, 1, 58, 0
3, 120, Note_on_c, 1, 63, 62
3, 120, Note_on_c, 1, 60, 54
3, 240, Note_on_c, 1, 62, 62
3, 240, Note_on_c, 1, 65, 70
3, 245, Note_on_c, 1, 60, 0
3, 245, Note_on_c, 1, 63, 0
3, 355, Note_on_c, 1, 62, 0
3, 356, Note_on_c, 1, 65, 0
3, 360, Note_on_c, 1, 55, 52
3, 360, Note_on_c, 1, 61, 62
3, 479, Note_on_c, 1, 61, 0
3, 480, Note_on_c, 1, 60, 54
3, 600, Note_on_c, 1, 58, 66
3, 604, Note_on_c, 1, 60, 0
3, 717, Note_on_c, 1, 55, 0
3, 720, Note_on_c, 1, 53, 52
3, 838, Note_on_c, 1, 57, 66
3, 840, Note_on_c, 1, 58, 0
3, 1019, Note_on_c, 1, 57, 0
3, 1019, Note_on_c, 1, 58, 66
3, 1019, Note_on_c, 1, 55, 52
3, 1024, Note_on_c, 1, 53, 0
3, 1078, Note_on_c, 1, 58, 0
3, 1078, Note_on_c, 1, 57, 50
3, 1079, Note_on_c, 1, 55, 0
3, 1079, Note_on_c, 1, 60, 62
3, 1202, Note_on_c, 1, 58, 66
3, 1204, Note_on_c, 1, 57, 0
3, 1205, Note_on_c, 1, 60, 0
3, 1322, Note_on_c, 1, 58, 0
3, 1438, Note_on_c, 1, 36, 62
3, 1439, Note_on_c, 1, 48, 66
3, 1801, Note_on_c, 1, 60, 54
3, 1801, Note_on_c, 1, 63, 52
3, 1807, Note_on_c, 1, 48, 0
3, 1808, Note_on_c, 1, 36, 0
3, 1920, Note_on_c, 1, 60, 0
3, 1920, Note_on_c, 1, 63, 0
3, 1922, Note_on_c, 1, 62, 79
3, 1922, Note_on_c, 1, 65, 70
3, 2041, Note_on_c, 1, 62, 0
3, 2042, Note_on_c, 1, 65, 0
3, 2159, Note_on_c, 1, 51, 50
3, 2159, Note_on_c, 1, 39, 58
3, 2519, Note_on_c, 1, 51, 0
3, 2520, Note_on_c, 1, 63, 52
3, 2520, Note_on_c, 1, 53, 52
3, 2521, Note_on_c, 1, 39, 0
3, 2641, Note_on_c, 1, 58, 62
3, 2641, Note_on_c, 1, 62, 66
3, 2642, Note_on_c, 1, 53, 0
3, 2642, Note_on_c, 1, 63, 0
3, 2762, Note_on_c, 1, 45, 54
3, 2762, Note_on_c, 1, 57, 52
3, 2764, Note_on_c, 1, 58, 0
3, 2764, Note_on_c, 1, 62, 0
3, 2878, Note_on_c, 1, 45, 0
3, 2881, Note_on_c, 1, 43, 58
3, 2881, Note_on_c, 1, 55, 75
3, 2882, Note_on_c, 1, 57, 0
3, 3103, Note_on_c, 1, 55, 0
3, 3104, Note_on_c, 1, 43, 0
3, 3121, Note_on_c, 1, 55, 66
3, 3121, Note_on_c, 1, 60, 70
3, 3239, Note_on_c, 1, 55, 0
3, 3240, Note_on_c, 1, 60, 0
3, 3240, Note_on_c, 1, 64, 66
3, 3240, Note_on_c, 1, 53, 49
3, 3360, Note_on_c, 1, 65, 58
3, 3361, Note_on_c, 1, 64, 0
3, 3478, Note_on_c, 1, 53, 0
3, 3480, Note_on_c, 1, 65, 0
3, 3600, Note_on_c, 1, 58, 52
3, 3600, Note_on_c, 1, 62, 70
3, 3715, Note_on_c, 1, 58, 0
3, 3718, Note_on_c, 1, 62, 0
3, 3720, Note_on_c, 1, 63, 49
3, 3720, Note_on_c, 1, 60, 52
3, 3836, Note_on_c, 1, 63, 0
3, 3837, Note_on_c, 1, 60, 0
3, 3840, Note_on_c, 1, 62, 75
3, 3840, Note_on_c, 1, 65, 62
3, 3960, Note_on_c, 1, 61, 70
3, 3960, Note_on_c, 1, 55, 52
3, 3961, Note_on_c, 1, 65, 0
3, 3963, Note_on_c, 1, 62, 0
3, 4080, Note_on_c, 1, 60, 58
3, 4083, Note_on_c, 1, 61, 0
3, 4199, Note_on_c, 1, 60, 0
3, 4200, Note_on_c, 1, 58, 62
3, 4314, Note_on_c, 1, 55, 0
3, 4318, Note_on_c, 1, 53, 62
3, 4441, Note_on_c, 1, 57, 70
3, 4447, Note_on_c, 1, 58, 0
3, 4618, Note_on_c, 1, 57, 0
3, 4619, Note_on_c, 1, 58, 70
3, 4619, Note_on_c, 1, 55, 50
3, 4626, Note_on_c, 1, 53, 0
3, 4678, Note_on_c, 1, 58, 0
3, 4679, Note_on_c, 1, 60, 58
3, 4680, Note_on_c, 1, 55, 0
3, 4680, Note_on_c, 1, 57, 62
3, 4800, Note_on_c, 1, 58, 62
3, 4802, Note_on_c, 1, 57, 0
3, 4803, Note_on_c, 1, 60, 0
3, 4919, Note_on_c, 1, 58, 0
3, 5039, Note_on_c, 1, 36, 58
3, 5039, Note_on_c, 1, 48, 54
3, 5401, Note_on_c, 1, 63, 52
3, 5401, Note_on_c, 1, 60, 52
3, 5404, Note_on_c, 1, 36, 0
3, 5405, Note_on_c, 1, 48, 0
3, 5521, Note_on_c, 1, 65, 66
3, 5521, Note_on_c, 1, 62, 70
3, 5522, Note_on_c, 1, 63, 0
3, 5522, Note_on_c, 1, 60, 0
3, 5639, Note_on_c, 1, 62, 0
3, 5641, Note_on_c, 1, 65, 0
3, 5759, Note_on_c, 1, 51, 52
3, 5759, Note_on_c, 1, 39, 62
3, 6120, Note_on_c, 1, 63, 66
3, 6120, Note_on_c, 1, 53, 54
3, 6122, Note_on_c, 1, 39, 0
3, 6122, Note_on_c, 1, 51, 0
3, 6240, Note_on_c, 1, 53, 0
3, 6240, Note_on_c, 1, 62, 79
3, 6240, Note_on_c, 1, 58, 70
3, 6241, Note_on_c, 1, 63, 0
3, 6360, Note_on_c, 1, 60, 66
3, 6360, Note_on_c, 1, 57, 70
3, 6365, Note_on_c, 1, 58, 0
3, 6365, Note_on_c, 1, 62, 0
3, 6471, Note_on_c, 1, 57, 0
3, 6472, Note_on_c, 1, 60, 0
3, 6480, Note_on_c, 1, 60, 88
3, 6480, Note_on_c, 1, 64, 75
3, 6480, Note_on_c, 1, 58, 66
3, 6480, Note_on_c, 1, 55, 70
3, 6830, Note_on_c, 1, 60, 0
3, 6831, Note_on_c, 1, 55, 0
3, 6832, Note_on_c, 1, 58, 0
3, 6834, Note_on_c, 1, 64, 0
3, 6841, Note_on_c, 1, 66, 70
3, 6841, Note_on_c, 1, 62, 83
3, 6841, Note_on_c, 1, 60, 66
3, 6841, Note_on_c, 1, 57, 83
3, 7180, Note_on_c, 1, 62, 0
3, 7183, Note_on_c, 1, 57, 0
3, 7183, Note_on_c, 1, 60, 0
3, 7185, Note_on_c, 1, 66, 0
3, 7201, Note_on_c, 1, 58, 79
3, 7201, Note_on_c, 1, 67, 92
3, 7201, Note_on_c, 1, 62, 88
3, 7558, Note_on_c, 1, 62, 0
3, 7559, Note_on_c, 1, 58, 0
3, 7559, Note_on_c, 1, 60, 50
3, 7560, Note_on_c, 1, 67, 0
3, 7560, Note_on_c, 1, 69, 62
3, 7680, Note_on_c, 1, 69, 0
3, 7680, Note_on_c, 1, 67, 55
3, 7787, Note_on_c, 1, 67, 0
3, 7798, Note_on_c, 1, 60, 0
3, 7916, Note_on_c, 1, 53, 50
3, 8039, Note_on_c, 1, 53, 0
3, 8039, Note_on_c, 1, 52, 62
3, 8161, Note_on_c, 1, 53, 66
3, 8164, Note_on_c, 1, 52, 0
3, 8272, Note_on_c, 1, 53, 0
3, 8281, Note_on_c, 1, 48, 62
3, 8635, Note_on_c, 1, 48, 0
3, 8639, Note_on_c, 1, 55, 52
3, 8759, Note_on_c, 1, 54, 49
3, 8763, Note_on_c, 1, 55, 0
3, 8881, Note_on_c, 1, 55, 58
3, 8886, Note_on_c, 1, 54, 0
3, 8991, Note_on_c, 1, 55, 0
3, 8999, Note_on_c, 1, 48, 66
3, 9359, Note_on_c, 1, 48, 0
3, 9359, Note_on_c, 1, 57, 70
3, 9481, Note_on_c, 1, 56, 54
3, 9484, Note_on_c, 1, 57, 0
3, 9601, Note_on_c, 1, 57, 54
3, 9605, Note_on_c, 1, 56, 0
3, 9705, Note_on_c, 1, 57, 0
3, 9721, Note_on_c, 1, 51, 66
3, 9721, Note_on_c, 1, 54, 75
3, 9721, Note_on_c, 1, 57, 88
3, 9721, Note_on_c, 1, 48, 75
3, 10058, Note_on_c, 1, 48, 0
3, 10059, Note_on_c, 1, 57, 0
3, 10060, Note_on_c, 1, 54, 0
3, 10060, Note_on_c, 1, 51, 0
3, 10081, Note_on_c, 1, 51, 54
3, 10081, Note_on_c, 1, 54, 75
3, 10081, Note_on_c, 1, 58, 79
3, 10081, Note_on_c, 1, 46, 88
3, 10411, Note_on_c, 1, 58, 0
3, 10412, Note_on_c, 1, 51, 0
3, 10412, Note_on_c, 1, 54, 0
3, 10414, Note_on_c, 1, 46, 0
3, 10441, Note_on_c, 1, 53, 83
3, 10441, Note_on_c, 1, 50, 88
3, 10441, Note_on_c, 1, 47, 58
3, 10441, Note_on_c, 1, 44, 70
3, 10769, Note_on_c, 1, 50, 0
3, 10770, Note_on_c, 1, 53, 0
3, 10770, Note_on_c, 1, 44, 0
3, 10771, Note_on_c, 1, 47, 0
3, 10801, Note_on_c, 1, 45, 75
3, 10829, Note_on_c, 1, 45, 0
3, 10829, Note_on_c, 1, 48, 50
3, 10859, Note_on_c, 1, 48, 0
3, 10859, Note_on_c, 1, 53, 58
3, 10889, Note_on_c, 1, 57, 58
3, 10890, Note_on_c, 1, 53, 0
3, 10917, Note_on_c, 1, 57, 0
3, 11040, Note_on_c, 1, 46, 52
3, 11081, Note_on_c, 1, 46, 0
3, 11160, Note_on_c, 1, 36, 58
3, 11189, Note_on_c, 1, 36, 0
3, 11189, Note_on_c, 1, 41, 52
3, 11218, Note_on_c, 1, 41, 0
3, 11219, Note_on_c, 1, 45, 62
3, 11249, Note_on_c, 1, 48, 58
3, 11250, Note_on_c, 1, 45, 0
3, 11277, Note_on_c, 1, 48, 0
3, 11401, Note_on_c, 1, 36, 50
3, 11459, Note_on_c, 1, 36, 0
3, 11521, Note_on_c, 1, 57, 47
3, 11521, Note_on_c, 1, 53, 47
3, 11581, Note_on_c, 1, 60, 47
3, 11585, Note_on_c, 1, 57, 0
3, 11639, Note_on_c, 1, 60, 0
3, 11642, Note_on_c, 1, 57, 49
3, 11702, Note_on_c, 1, 60, 50
3, 11703, Note_on_c, 1, 57, 0
3, 11759, Note_on_c, 1, 60, 0
3, 11759, Note_on_c, 1, 58, 46
3, 11760, Note_on_c, 1, 55, 46
3, 11818, Note_on_c, 1, 58, 0
3, 11819, Note_on_c, 1, 60, 54
3, 11820, Note_on_c, 1, 55, 0
3, 11870, Note_on_c, 1, 53, 0
3, 11873, Note_on_c, 1, 60, 0
3, 11879, Note_on_c, 1, 53, 47
3, 11879, Note_on_c, 1, 57, 70
3, 11939, Note_on_c, 1, 57, 0
3, 11939, Note_on_c, 1, 60, 62
3, 11999, Note_on_c, 1, 57, 58
3, 12000, Note_on_c, 1, 60, 0
3, 12060, Note_on_c, 1, 57, 0
3, 12060, Note_on_c, 1, 60, 66
3, 12120, Note_on_c, 1, 60, 0
3, 12120, Note_on_c, 1, 58, 58
3, 12177, Note_on_c, 1, 58, 0
3, 12179, Note_on_c, 1, 60, 58
3, 12233, Note_on_c, 1, 53, 0
3, 12238, Note_on_c, 1, 60, 0
3, 12241, Note_on_c, 1, 53, 50
3, 12241, Note_on_c, 1, 64, 70
3, 12241, Note_on_c, 1, 55, 50
3, 12301, Note_on_c, 1, 60, 58
3, 12302, Note_on_c, 1, 55, 0
3, 12302, Note_on_c, 1, 64, 0
3, 12358, Note_on_c, 1, 60, 0
3, 12360, Note_on_c, 1, 57, 62
3, 12360, Note_on_c, 1, 65, 52
3, 12414, Note_on_c, 1, 65, 0
3, 12416, Note_on_c, 1, 57, 0
3, 12419, Note_on_c, 1, 60, 66
3, 12479, Note_on_c, 1, 60, 0
3, 12479, Note_on_c, 1, 58, 54
3, 12479, Note_on_c, 1, 55, 50
3, 12539, Note_on_c, 1, 60, 75
3, 12541, Note_on_c, 1, 55, 0
3, 12543, Note_on_c, 1, 58, 0
3, 12593, Note_on_c, 1, 53, 0
3, 12599, Note_on_c, 1, 60, 0
3, 12600, Note_on_c, 1, 57, 66
3, 12601, Note_on_c, 1, 53, 52
3, 12661, Note_on_c, 1, 60, 62
3, 12663, Note_on_c, 1, 57, 0
3, 12720, Note_on_c, 1, 60, 0
3, 12721, Note_on_c, 1, 57, 66
3, 12779, Note_on_c, 1, 57, 0
3, 12779, Note_on_c, 1, 60, 58
3, 12839, Note_on_c, 1, 58, 52
3, 12842, Note_on_c, 1, 60, 0
3, 12894, Note_on_c, 1, 58, 0
3, 12899, Note_on_c, 1, 60, 52
3, 12954, Note_on_c, 1, 53, 0
3, 12956, Note_on_c, 1, 60, 0
3, 12961, Note_on_c, 1, 64, 62
3, 12961, Note_on_c, 1, 58, 66
3, 12961, Note_on_c, 1, 53, 54
3, 13081, Note_on_c, 1, 65, 58
3, 13081, Note_on_c, 1, 57, 43
3, 13082, Note_on_c, 1, 58, 0
3, 13084, Note_on_c, 1, 64, 0
3, 13134, Note_on_c, 1, 57, 0
3, 13135, Note_on_c, 1, 53, 0
3, 13135, Note_on_c, 1, 65, 0
3, 13321, Note_on_c, 1, 64, 75
3, 13321, Note_on_c, 1, 53, 58
3, 13321, Note_on_c, 1, 58, 70
3, 13440, Note_on_c, 1, 58, 0
3, 13441, Note_on_c, 1, 56, 52
3, 13441, Note_on_c, 1, 65, 70
3, 13444, Note_on_c, 1, 64, 0
3, 13499, Note_on_c, 1, 53, 0
3, 13499, Note_on_c, 1, 56, 0
3, 13499, Note_on_c, 1, 65, 0
3, 13681, Note_on_c, 1, 58, 75
3, 13681, Note_on_c, 1, 61, 79
3, 13681, Note_on_c, 1, 55, 79
3, 14018, Note_on_c, 1, 55, 0
3, 14019, Note_on_c, 1, 58, 0
3, 14022, Note_on_c, 1, 61, 0
3, 14040, Note_on_c, 1, 60, 52
3, 14040, Note_on_c, 1, 56, 54
3, 14276, Note_on_c, 1, 60, 0
3, 14279, Note_on_c, 1, 56, 0
3, 14279, Note_on_c, 1, 58, 50
3, 14279, Note_on_c, 1, 61, 62
3, 14401, Note_on_c, 1, 61, 0
3, 14401, Note_on_c, 1, 58, 0
3, 14402, Note_on_c, 1, 48, 62
3, 14402, Note_on_c, 1, 56, 66
3, 14460, Note_on_c, 1, 56, 0
3, 14461, Note_on_c, 1, 57, 70
3, 14521, Note_on_c, 1, 57, 0
3, 14521, Note_on_c, 1, 58, 62
3, 14579, Note_on_c, 1, 58, 0
3, 14579, Note_on_c, 1, 59, 70
3, 14635, Note_on_c, 1, 59, 0
3, 14639, Note_on_c, 1, 60, 70
3, 14698, Note_on_c, 1, 58, 66
3, 14699, Note_on_c, 1, 60, 0
3, 14755, Note_on_c, 1, 48, 0
3, 14759, Note_on_c, 1, 53, 52
3, 14759, Note_on_c, 1, 57, 75
3, 14764, Note_on_c, 1, 58, 0
3, 14822, Note_on_c, 1, 60, 62
3, 14827, Note_on_c, 1, 57, 0
3, 14880, Note_on_c, 1, 60, 0
3, 14881, Note_on_c, 1, 57, 66
3, 14939, Note_on_c, 1, 57, 0
3, 14941, Note_on_c, 1, 60, 66
3, 15001, Note_on_c, 1, 60, 0
3, 15001, Note_on_c, 1, 55, 66
3, 15001, Note_on_c, 1, 46, 46
3, 15002, Note_on_c, 1, 53, 0
3, 15060, Note_on_c, 1, 55, 0
3, 15060, Note_on_c, 1, 58, 66
3, 15119, Note_on_c, 1, 58, 0
3, 15119, Note_on_c, 1, 46, 0
3, 15119, Note_on_c, 1, 48, 50
3, 15119, Note_on_c, 1, 53, 50
3, 15178, Note_on_c, 1, 53, 0
3, 15179, Note_on_c, 1, 57, 54
3, 15240, Note_on_c, 1, 53, 52
3, 15245, Note_on_c, 1, 57, 0
3, 15299, Note_on_c, 1, 53, 0
3, 15299, Note_on_c, 1, 57, 66
3, 15358, Note_on_c, 1, 57, 0
3, 15359, Note_on_c, 1, 48, 0
3, 15360, Note_on_c, 1, 48, 52
3, 15360, Note_on_c, 1, 52, 58
3, 15419, Note_on_c, 1, 52, 0
3, 15419, Note_on_c, 1, 55, 62
3, 15478, Note_on_c, 1, 55, 0
3, 15479, Note_on_c, 1, 48, 0
3, 15479, Note_on_c, 1, 53, 54
3, 15479, Note_on_c, 1, 57, 52
3, 15538, Note_on_c, 1, 57, 0
3, 15539, Note_on_c, 1, 60, 66
3, 15599, Note_on_c, 1, 55, 70
3, 15600, Note_on_c, 1, 53, 0
3, 15600, Note_on_c, 1, 49, 70
3, 15601, Note_on_c, 1, 60, 0
3, 15659, Note_on_c, 1, 57, 79
3, 15660, Note_on_c, 1, 55, 0
3, 15720, Note_on_c, 1, 57, 0
3, 15720, Note_on_c, 1, 49, 0
3, 15720, Note_on_c, 1, 53, 54
3, 15720, Note_on_c, 1, 50, 70
3, 15780, Note_on_c, 1, 53, 0
3, 15780, Note_on_c, 1, 56, 66
3, 15780, Note_on_c, 1, 47, 62
3, 15781, Note_on_c, 1, 50, 0
3, 15839, Note_on_c, 1, 56, 0
3, 15839, Note_on_c, 1, 57, 42
3, 15840, Note_on_c, 1, 47, 0
3, 15840, Note_on_c, 1, 48, 62
3, 15899, Note_on_c, 1, 60, 52
3, 15900, Note_on_c, 1, 57, 0
3, 15957, Note_on_c, 1, 60, 0
3, 15959, Note_on_c, 1, 53, 47
3, 16019, Note_on_c, 1, 53, 0
3, 16019, Note_on_c, 1, 57, 66
3, 16078, Note_on_c, 1, 48, 0
3, 16081, Note_on_c, 1, 55, 66
3, 16081, Note_on_c, 1, 48, 66
3, 16086, Note_on_c, 1, 57, 0
3, 16141, Note_on_c, 1, 58, 62
3, 16143, Note_on_c, 1, 55, 0
3, 16196, Note_on_c, 1, 58, 0
3, 16200, Note_on_c, 1, 53, 58
3, 16200, Note_on_c, 1, 58, 62
3, 16203, Note_on_c, 1, 48, 0
3, 16319, Note_on_c, 1, 58, 0
3, 16320, Note_on_c, 1, 57, 58
3, 16439, Note_on_c, 1, 57, 0
3, 16440, Note_on_c, 1, 53, 0
3, 16561, Note_on_c, 1, 53, 83
3, 16561, Note_on_c, 1, 41, 83
3, 16679, Note_on_c, 1, 41, 0
3, 16680, Note_on_c, 1, 53, 0
3, 16680, Note_on_c, 1, 52, 88
3, 16680, Note_on_c, 1, 40, 83
3, 16798, Note_on_c, 1, 40, 0
3, 16798, Note_on_c, 1, 52, 0
3, 16799, Note_on_c, 1, 53, 88
3, 16799, Note_on_c, 1, 41, 83
3, 16919, Note_on_c, 1, 49, 88
3, 16920, Note_on_c, 1, 41, 0
3, 16920, Note_on_c, 1, 37, 75
3, 16922, Note_on_c, 1, 53, 0
3, 17258, Note_on_c, 1, 37, 0
3, 17258, Note_on_c, 1, 49, 0
3, 17279, Note_on_c, 1, 62, 97
3, 17280, Note_on_c, 1, 50, 92
3, 17400, Note_on_c, 1, 50, 0
3, 17400, Note_on_c, 1, 49, 79
3, 17400, Note_on_c, 1, 61, 88
3, 17402, Note_on_c, 1, 62, 0
3, 17518, Note_on_c, 1, 61, 0
3, 17518, Note_on_c, 1, 49, 0
3, 17519, Note_on_c, 1, 62, 83
3, 17519, Note_on_c, 1, 50, 70
3, 17639, Note_on_c, 1, 50, 0
3, 17639, Note_on_c, 1, 45, 83
3, 17639, Note_on_c, 1, 57, 83
3, 17640, Note_on_c, 1, 62, 0
3, 17999, Note_on_c, 1, 58, 83
3, 17999, Note_on_c, 1, 46, 88
3, 18000, Note_on_c, 1, 57, 0
3, 18000, Note_on_c, 1, 45, 0
3, 18122, Note_on_c, 1, 58, 0
3, 18122, Note_on_c, 1, 46, 0
3, 18239, Note_on_c, 1, 53, 83
3, 18379, Note_on_c, 1, 52, 79
3, 18381, Note_on_c, 1, 53, 0
3, 18399, Note_on_c, 1, 52, 0
3, 18399, Note_on_c, 1, 55, 75
3, 18419, Note_on_c, 1, 53, 83
3, 18421, Note_on_c, 1, 55, 0
3, 18439, Note_on_c, 1, 51, 62
3, 18441, Note_on_c, 1, 53, 0
3, 18459, Note_on_c, 1, 50, 79
3, 18461, Note_on_c, 1, 51, 0
3, 18480, Note_on_c, 1, 48, 79
3, 18481, Note_on_c, 1, 50, 0
3, 18499, Note_on_c, 1, 47, 75
3, 18501, Note_on_c, 1, 48, 0
3, 18519, Note_on_c, 1, 47, 0
3, 18519, Note_on_c, 1, 50, 79
3, 18539, Note_on_c, 1, 48, 75
3, 18540, Note_on_c, 1, 50, 0
3, 18559, Note_on_c, 1, 46, 70
3, 18561, Note_on_c, 1, 48, 0
3, 18579, Note_on_c, 1, 45, 75
3, 18582, Note_on_c, 1, 46, 0
3, 18599, Note_on_c, 1, 45, 0
3, 18599, Note_on_c, 1, 43, 83
3, 18619, Note_on_c, 1, 42, 62
3, 18620, Note_on_c, 1, 43, 0
3, 18639, Note_on_c, 1, 42, 0
3, 18639, Note_on_c, 1, 45, 79
3, 18659, Note_on_c, 1, 43, 70
3, 18661, Note_on_c, 1, 45, 0
3, 18679, Note_on_c, 1, 43, 0
3, 18679, Note_on_c, 1, 41, 79
3, 18699, Note_on_c, 1, 39, 66
3, 18700, Note_on_c, 1, 41, 0
3, 18719, Note_on_c, 1, 39, 0
3, 18719, Note_on_c, 1, 38, 79
3, 18841, Note_on_c, 1, 38, 0
3, 18959, Note_on_c, 1, 62, 92
3, 19098, Note_on_c, 1, 62, 0
3, 19099, Note_on_c, 1, 61, 79
3, 19119, Note_on_c, 1, 61, 0
3, 19119, Note_on_c, 1, 63, 62
3, 19139, Note_on_c, 1, 62, 83
3, 19141, Note_on_c, 1, 63, 0
3, 19159, Note_on_c, 1, 60, 75
3, 19160, Note_on_c, 1, 62, 0
3, 19179, Note_on_c, 1, 58, 70
3, 19180, Note_on_c, 1, 60, 0
3, 19199, Note_on_c, 1, 57, 83
3, 19200, Note_on_c, 1, 58, 0
3, 19219, Note_on_c, 1, 56, 83
3, 19221, Note_on_c, 1, 57, 0
3, 19239, Note_on_c, 1, 58, 66
3, 19240, Note_on_c, 1, 56, 0
3, 19259, Note_on_c, 1, 57, 88
3, 19260, Note_on_c, 1, 58, 0
3, 19279, Note_on_c, 1, 57, 0
3, 19279, Note_on_c, 1, 55, 75
3, 19299, Note_on_c, 1, 54, 58
3, 19300, Note_on_c, 1, 55, 0
3, 19319, Note_on_c, 1, 54, 0
3, 19319, Note_on_c, 1, 51, 83
3, 19339, Note_on_c, 1, 50, 83
3, 19340, Note_on_c, 1, 51, 0
3, 19359, Note_on_c, 1, 53, 79
3, 19361, Note_on_c, 1, 50, 0
3, 19379, Note_on_c, 1, 51, 79
3, 19381, Note_on_c, 1, 53, 0
3, 19399, Note_on_c, 1, 50, 83
3, 19401, Note_on_c, 1, 51, 0
3, 19419, Note_on_c, 1, 50, 0
3, 19419, Note_on_c, 1, 48, 79
3, 19439, Note_on_c, 1, 46, 92
3, 19441, Note_on_c, 1, 48, 0
3, 19679, Note_on_c, 1, 47, 88
3, 19680, Note_on_c, 1, 46, 0
3, 19798, Note_on_c, 1, 47, 0
3, 19799, Note_on_c, 1, 48, 83
3, 19917, Note_on_c, 1, 49, 92
3, 19920, Note_on_c, 1, 48, 0
3, 20161, Note_on_c, 1, 62, 97
3, 20162, Note_on_c, 1, 49, 0
3, 20181, Note_on_c, 1, 62, 0
3, 20181, Note_on_c, 1, 61, 70
3, 20201, Note_on_c, 1, 61, 0
3, 20201, Note_on_c, 1, 64, 75
3, 20221, Note_on_c, 1, 64, 0
3, 20221, Note_on_c, 1, 62, 88
3, 20240, Note_on_c, 1, 62, 0
3, 20241, Note_on_c, 1, 60, 75
3, 20261, Note_on_c, 1, 60, 0
3, 20261, Note_on_c, 1, 58, 70
3, 20281, Note_on_c, 1, 58, 0
3, 20281, Note_on_c, 1, 57, 83
3, 20301, Note_on_c, 1, 57, 0
3, 20301, Note_on_c, 1, 56, 66
3, 20321, Note_on_c, 1, 56, 0
3, 20321, Note_on_c, 1, 58, 66
3, 20341, Note_on_c, 1, 58, 0
3, 20341, Note_on_c, 1, 57, 88
3, 20361, Note_on_c, 1, 57, 0
3, 20361, Note_on_c, 1, 55, 79
3, 20380, Note_on_c, 1, 55, 0
3, 20381, Note_on_c, 1, 53, 79
3, 20401, Note_on_c, 1, 53, 0
3, 20401, Note_on_c, 1, 51, 79
3, 20419, Note_on_c, 1, 51, 0
3, 20421, Note_on_c, 1, 50, 79
3, 20441, Note_on_c, 1, 50, 0
3, 20441, Note_on_c, 1, 53, 70
3, 20461, Note_on_c, 1, 53, 0
3, 20461, Note_on_c, 1, 51, 66
3, 20480, Note_on_c, 1, 50, 83
3, 20481, Note_on_c, 1, 51, 0
3, 20499, Note_on_c, 1, 50, 0
3, 20499, Note_on_c, 1, 48, 75
3, 20519, Note_on_c, 1, 48, 0
3, 20519, Note_on_c, 1, 46, 83
3, 20539, Note_on_c, 1, 45, 79
3, 20540, Note_on_c, 1, 46, 0
3, 20560, Note_on_c, 1, 48, 70
3, 20561, Note_on_c, 1, 45, 0
3, 20579, Note_on_c, 1, 48, 0
3, 20580, Note_on_c, 1, 46, 75
3, 20599, Note_on_c, 1, 45, 83
3, 20602, Note_on_c, 1, 46, 0
3, 20619, Note_on_c, 1, 45, 0
3, 20619, Note_on_c, 1, 43, 70
3, 20639, Note_on_c, 1, 43, 0
3, 20640, Note_on_c, 1, 43, 79
3, 20651, Note_on_c, 1, 41, 79
3, 20658, Note_on_c, 1, 43, 0
3, 20661, Note_on_c, 1, 41, 0
3, 20661, Note_on_c, 1, 43, 62
3, 20671, Note_on_c, 1, 43, 0
3, 20671, Note_on_c, 1, 41, 66
3, 20681, Note_on_c, 1, 41, 0
3, 20681, Note_on_c, 1, 43, 66
3, 20691, Note_on_c, 1, 43, 0
3, 20691, Note_on_c, 1, 41, 79
3, 20701, Note_on_c, 1, 41, 0
3, 20701, Note_on_c, 1, 43, 79
3, 20710, Note_on_c, 1, 41, 52
3, 20711, Note_on_c, 1, 43, 0
3, 20721, Note_on_c, 1, 43, 79
3, 20722, Note_on_c, 1, 41, 0
3, 20730, Note_on_c, 1, 41, 66
3, 20731, Note_on_c, 1, 43, 0
3, 20741, Note_on_c, 1, 43, 62
3, 20742, Note_on_c, 1, 41, 0
3, 20751, Note_on_c, 1, 43, 0
3, 20751, Note_on_c, 1, 41, 75
3, 20761, Note_on_c, 1, 41, 0
3, 20761, Note_on_c, 1, 40, 75
3, 20810, Note_on_c, 1, 40, 0
3, 20820, Note_on_c, 1, 38, 83
3, 20869, Note_on_c, 1, 38, 0
3, 20880, Note_on_c, 1, 37, 97
3, 20998, Note_on_c, 1, 37, 0
3, 21121, Note_on_c, 1, 53, 103
3, 21121, Note_on_c, 1, 41, 75
3, 21301, Note_on_c, 1, 41, 0
3, 21301, Note_on_c, 1, 53, 0
3, 21301, Note_on_c, 1, 38, 83
3, 21301, Note_on_c, 1, 50, 79
3, 21362, Note_on_c, 1, 52, 79
3, 21362, Note_on_c, 1, 40, 75
3, 21363, Note_on_c, 1, 50, 0
3, 21363, Note_on_c, 1, 38, 0
3, 21422, Note_on_c, 1, 52, 0
3, 21422, Note_on_c, 1, 40, 0
3, 21422, Note_on_c, 1, 41, 79
3, 21422, Note_on_c, 1, 53, 83
3, 21482, Note_on_c, 1, 53, 0
3, 21482, Note_on_c, 1, 41, 0
3, 21482, Note_on_c, 1, 55, 79
3, 21482, Note_on_c, 1, 43, 70
3, 21662, Note_on_c, 1, 40, 75
3, 21663, Note_on_c, 1, 52, 83
3, 21664, Note_on_c, 1, 43, 0
3, 21664, Note_on_c, 1, 55, 0
3, 21722, Note_on_c, 1, 42, 62
3, 21722, Note_on_c, 1, 54, 79
3, 21723, Note_on_c, 1, 52, 0
3, 21724, Note_on_c, 1, 40, 0
3, 21780, Note_on_c, 1, 54, 0
3, 21781, Note_on_c, 1, 42, 0
3, 21782, Note_on_c, 1, 55, 83
3, 21782, Note_on_c, 1, 43, 66
3, 21841, Note_on_c, 1, 43, 0
3, 21842, Note_on_c, 1, 55, 0
3, 21842, Note_on_c, 1, 45, 83
3, 21842, Note_on_c, 1, 57, 83
3, 22020, Note_on_c, 1, 45, 0
3, 22021, Note_on_c, 1, 57, 0
3, 22021, Note_on_c, 1, 42, 70
3, 22021, Note_on_c, 1, 54, 83
3, 22081, Note_on_c, 1, 43, 79
3, 22082, Note_on_c, 1, 54, 0
3, 22082, Note_on_c, 1, 42, 0
3, 22082, Note_on_c, 1, 55, 83
3, 22142, Note_on_c, 1, 55, 0
3, 22142, Note_on_c, 1, 43, 0
3, 22142, Note_on_c, 1, 45, 79
3, 22142, Note_on_c, 1, 57, 88
3, 22201, Note_on_c, 1, 57, 0
3, 22202, Note_on_c, 1, 45, 0
3, 22202, Note_on_c, 1, 58, 83
3, 22202, Note_on_c, 1, 46, 88
3, 22260, Note_on_c, 1, 46, 0
3, 22260, Note_on_c, 1, 58, 0
3, 22261, Note_on_c, 1, 55, 83
3, 22261, Note_on_c, 1, 52, 70
3, 22322, Note_on_c, 1, 52, 0
3, 22322, Note_on_c, 1, 55, 0
3, 22322, Note_on_c, 1, 53, 88
3, 22322, Note_on_c, 1, 63, 88
3, 22620, Note_on_c, 1, 63, 0
3, 22620, Note_on_c, 1, 53, 0
3, 22621, Note_on_c, 1, 54, 79
3, 22621, Note_on_c, 1, 57, 83
3, 22681, Note_on_c, 1, 57, 0
3, 22681, Note_on_c, 1, 54, 0
3, 22681, Note_on_c, 1, 65, 92
3, 22681, Note_on_c, 1, 55, 79
3, 22922, Note_on_c, 1, 55, 0
3, 22922, Note_on_c, 1, 65, 0
3, 22922, Note_on_c, 1, 53, 52
3, 22922, Note_on_c, 1, 50, 83
3, 23099, Note_on_c, 1, 50, 0
3, 23100, Note_on_c, 1, 53, 0
3, 23101, Note_on_c, 1, 47, 79
3, 23101, Note_on_c, 1, 50, 79
3, 23162, Note_on_c, 1, 48, 88
3, 23162, Note_on_c, 1, 51, 79
3, 23163, Note_on_c, 1, 50, 0
3, 23163, Note_on_c, 1, 47, 0
3, 23222, Note_on_c, 1, 48, 0
3, 23222, Note_on_c, 1, 51, 0
3, 23222, Note_on_c, 1, 53, 79
3, 23222, Note_on_c, 1, 50, 79
3, 23280, Note_on_c, 1, 53, 0
3, 23281, Note_on_c, 1, 55, 83
3, 23282, Note_on_c, 1, 50, 0
3, 23282, Note_on_c, 1, 51, 83
3, 23460, Note_on_c, 1, 51, 0
3, 23461, Note_on_c, 1, 55, 0
3, 23461, Note_on_c, 1, 52, 83
3, 23461, Note_on_c, 1, 49, 79
3, 23520, Note_on_c, 1, 49, 0
3, 23521, Note_on_c, 1, 52, 0
3, 23521, Note_on_c, 1, 53, 83
3, 23521, Note_on_c, 1, 50, 70
3, 23581, Note_on_c, 1, 52, 75
3, 23581, Note_on_c, 1, 55, 83
3, 23583, Note_on_c, 1, 50, 0
3, 23583, Note_on_c, 1, 53, 0
3, 23642, Note_on_c, 1, 52, 0
3, 23642, Note_on_c, 1, 53, 79
3, 23642, Note_on_c, 1, 56, 88
3, 23643, Note_on_c, 1, 55, 0
3, 23820, Note_on_c, 1, 53, 0
3, 23821, Note_on_c, 1, 56, 0
3, 23821, Note_on_c, 1, 51, 70
3, 23821, Note_on_c, 1, 54, 79
3, 23881, Note_on_c, 1, 54, 0
3, 23881, Note_on_c, 1, 51, 0
3, 23881, Note_on_c, 1, 55, 79
3, 23881, Note_on_c, 1, 52, 70
3, 23939, Note_on_c, 1, 55, 0
3, 23941, Note_on_c, 1, 52, 0
3, 23941, Note_on_c, 1, 57, 88
3, 23941, Note_on_c, 1, 53, 79
3, 24001, Note_on_c, 1, 53, 0
3, 24001, Note_on_c, 1, 57, 0
3, 24001, Note_on_c, 1, 55, 83
3, 24001, Note_on_c, 1, 58, 79
3, 24062, Note_on_c, 1, 52, 66
3, 24062, Note_on_c, 1, 48, 79
3, 24063, Note_on_c, 1, 58, 0
3, 24063, Note_on_c, 1, 55, 0
3, 24122, Note_on_c, 1, 52, 0
3, 24122, Note_on_c, 1, 48, 0
3, 24122, Note_on_c, 1, 57, 97
3, 24122, Note_on_c, 1, 60, 92
3, 24420, Note_on_c, 1, 57, 0
3, 24421, Note_on_c, 1, 60, 0
3, 24421, Note_on_c, 1, 50, 83
3, 24421, Note_on_c, 1, 54, 75
3, 24481, Note_on_c, 1, 50, 0
3, 24481, Note_on_c, 1, 58, 92
3, 24481, Note_on_c, 1, 62, 92
3, 24483, Note_on_c, 1, 54, 0
3, 24780, Note_on_c, 1, 62, 0
3, 24780, Note_on_c, 1, 58, 0
3, 24781, Note_on_c, 1, 51, 66
3, 24781, Note_on_c, 1, 55, 83
3, 24841, Note_on_c, 1, 55, 0
3, 24841, Note_on_c, 1, 51, 0
3, 24841, Note_on_c, 1, 63, 75
3, 24841, Note_on_c, 1, 60, 92
3, 25021, Note_on_c, 1, 58, 79
3, 25021, Note_on_c, 1, 62, 83
3, 25022, Note_on_c, 1, 60, 0
3, 25022, Note_on_c, 1, 63, 0
3, 25082, Note_on_c, 1, 60, 83
3, 25082, Note_on_c, 1, 57, 75
3, 25083, Note_on_c, 1, 58, 0
3, 25083, Note_on_c, 1, 62, 0
3, 25141, Note_on_c, 1, 57, 0
3, 25142, Note_on_c, 1, 60, 0
3, 25142, Note_on_c, 1, 54, 75
3, 25142, Note_on_c, 1, 58, 83
3, 25201, Note_on_c, 1, 60, 83
3, 25201, Note_on_c, 1, 57, 92
3, 25201, Note_on_c, 1, 63, 75
3, 25201, Note_on_c, 1, 53, 70
3, 25202, Note_on_c, 1, 58, 0
3, 25202, Note_on_c, 1, 54, 0
3, 25439, Note_on_c, 1, 63, 0
3, 25439, Note_on_c, 1, 57, 0
3, 25439, Note_on_c, 1, 53, 0
3, 25439, Note_on_c, 1, 60, 0
3, 25565, Note_on_c, 1, 29, 66
3, 25623, Note_on_c, 1, 29, 0
3, 25920, Note_on_c, 1, 58, 50
3, 25920, Note_on_c, 1, 62, 66
3, 26039, Note_on_c, 1, 62, 0
3, 26039, Note_on_c, 1, 58, 0
3, 26040, Note_on_c, 1, 60, 66
3, 26040, Note_on_c, 1, 63, 54
3, 26159, Note_on_c, 1, 63, 0
3, 26159, Note_on_c, 1, 60, 0
3, 26160, Note_on_c, 1, 62, 66
3, 26160, Note_on_c, 1, 65, 58
3, 26279, Note_on_c, 1, 65, 0
3, 26279, Note_on_c, 1, 62, 0
3, 26280, Note_on_c, 1, 61, 52
3, 26280, Note_on_c, 1, 55, 62
3, 26399, Note_on_c, 1, 61, 0
3, 26400, Note_on_c, 1, 60, 58
3, 26519, Note_on_c, 1, 60, 0
3, 26520, Note_on_c, 1, 58, 66
3, 26639, Note_on_c, 1, 53, 79
3, 26640, Note_on_c, 1, 55, 0
3, 26760, Note_on_c, 1, 58, 0
3, 26760, Note_on_c, 1, 57, 66
3, 26937, Note_on_c, 1, 57, 0
3, 26939, Note_on_c, 1, 58, 54
3, 26939, Note_on_c, 1, 55, 54
3, 26941, Note_on_c, 1, 53, 0
3, 27000, Note_on_c, 1, 55, 0
3, 27000, Note_on_c, 1, 58, 0
3, 27000, Note_on_c, 1, 57, 62
3, 27001, Note_on_c, 1, 60, 52
3, 27121, Note_on_c, 1, 58, 66
3, 27124, Note_on_c, 1, 60, 0
3, 27124, Note_on_c, 1, 57, 0
3, 27241, Note_on_c, 1, 58, 0
3, 27360, Note_on_c, 1, 36, 79
3, 27360, Note_on_c, 1, 48, 66
3, 27660, Note_on_c, 1, 48, 0
3, 27660, Note_on_c, 1, 36, 0
3, 27720, Note_on_c, 1, 63, 54
3, 27720, Note_on_c, 1, 60, 58
3, 27840, Note_on_c, 1, 60, 0
3, 27840, Note_on_c, 1, 63, 0
3, 27840, Note_on_c, 1, 65, 49
3, 27840, Note_on_c, 1, 62, 66
3, 27960, Note_on_c, 1, 62, 0
3, 27960, Note_on_c, 1, 65, 0
3, 28080, Note_on_c, 1, 39, 79
3, 28080, Note_on_c, 1, 51, 79
3, 28440, Note_on_c, 1, 51, 0
3, 28440, Note_on_c, 1, 39, 0
3, 28440, Note_on_c, 1, 53, 79
3, 28440, Note_on_c, 1, 63, 62
3, 28560, Note_on_c, 1, 63, 0
3, 28560, Note_on_c, 1, 53, 0
3, 28560, Note_on_c, 1, 62, 62
3, 28560, Note_on_c, 1, 58, 66
3, 28619, Note_on_c, 1, 58, 0
3, 28680, Note_on_c, 1, 62, 0
3, 28680, Note_on_c, 1, 45, 83
3, 28680, Note_on_c, 1, 57, 83
3, 28800, Note_on_c, 1, 57, 0
3, 28800, Note_on_c, 1, 45, 0
3, 28800, Note_on_c, 1, 43, 83
3, 28800, Note_on_c, 1, 55, 75
3, 29040, Note_on_c, 1, 55, 0
3, 29040, Note_on_c, 1, 43, 0
3, 29040, Note_on_c, 1, 55, 66
3, 29040, Note_on_c, 1, 60, 62
3, 29160, Note_on_c, 1, 60, 0
3, 29160, Note_on_c, 1, 55, 0
3, 29160, Note_on_c, 1, 53, 75
3, 29160, Note_on_c, 1, 64, 75
3, 29280, Note_on_c, 1, 64, 0
3, 29281, Note_on_c, 1, 65, 66
3, 29400, Note_on_c, 1, 53, 0
3, 29427, Note_on_c, 1, 65, 0
3, 29429, Note_on_c, 1, 67, 75
3, 29459, Note_on_c, 1, 63, 66
3, 29461, Note_on_c, 1, 67, 0
3, 29490, Note_on_c, 1, 63, 0
3, 29490, Note_on_c, 1, 60, 62
3, 29521, Note_on_c, 1, 58, 75
3, 29523, Note_on_c, 1, 60, 0
3, 29641, Note_on_c, 1, 57, 70
3, 29647, Note_on_c, 1, 58, 0
3, 29760, Note_on_c, 1, 57, 0
3, 29761, Note_on_c, 1, 58, 66
3, 29880, Note_on_c, 1, 52, 79
3, 29881, Note_on_c, 1, 58, 0
3, 30120, Note_on_c, 1, 52, 0
3, 30120, Note_on_c, 1, 64, 70
3, 30120, Note_on_c, 1, 60, 66
3, 30224, Note_on_c, 1, 64, 0
3, 30230, Note_on_c, 1, 60, 0
3, 30240, Note_on_c, 1, 58, 52
3, 30255, Note_on_c, 1, 58, 0
3, 30255, Note_on_c, 1, 60, 52
3, 30270, Note_on_c, 1, 60, 0
3, 30270, Note_on_c, 1, 62, 52
3, 30285, Note_on_c, 1, 62, 0
3, 30285, Note_on_c, 1, 60, 52
3, 30419, Note_on_c, 1, 58, 70
3, 30420, Note_on_c, 1, 60, 0
3, 30449, Note_on_c, 1, 57, 70
3, 30451, Note_on_c, 1, 58, 0
3, 30479, Note_on_c, 1, 55, 66
3, 30481, Note_on_c, 1, 57, 0
3, 30509, Note_on_c, 1, 53, 70
3, 30510, Note_on_c, 1, 55, 0
3, 30539, Note_on_c, 1, 53, 0
3, 30539, Note_on_c, 1, 55, 79
3, 30570, Note_on_c, 1, 51, 62
3, 30571, Note_on_c, 1, 55, 0
3, 30601, Note_on_c, 1, 53, 70
3, 30602, Note_on_c, 1, 51, 0
3, 30644, Note_on_c, 1, 53, 0
3, 30662, Note_on_c, 1, 53, 79
3, 30677, Note_on_c, 1, 51, 54
3, 30679, Note_on_c, 1, 53, 0
3, 30692, Note_on_c, 1, 51, 0
3, 30692, Note_on_c, 1, 53, 66
3, 30707, Note_on_c, 1, 51, 58
3, 30708, Note_on_c, 1, 53, 0
3, 30721, Note_on_c, 1, 51, 0
3, 30722, Note_on_c, 1, 50, 83
3, 30839, Note_on_c, 1, 50, 0
3, 30959, Note_on_c, 1, 51, 75
3, 30959, Note_on_c, 1, 48, 97
3, 30959, Note_on_c, 1, 53, 92
3, 30959, Note_on_c, 1, 57, 103
3, 31280, Note_on_c, 1, 53, 0
3, 31280, Note_on_c, 1, 48, 0
3, 31281, Note_on_c, 1, 51, 0
3, 31282, Note_on_c, 1, 57, 0
3, 31321, Note_on_c, 1, 50, 83
3, 31321, Note_on_c, 1, 53, 83
3, 31321, Note_on_c, 1, 59, 97
3, 31321, Note_on_c, 1, 55, 88
3, 31632, Note_on_c, 1, 53, 0
3, 31633, Note_on_c, 1, 50, 0
3, 31633, Note_on_c, 1, 59, 0
3, 31634, Note_on_c, 1, 55, 0
3, 31679, Note_on_c, 1, 51, 79
3, 31679, Note_on_c, 1, 60, 88
3, 31679, Note_on_c, 1, 55, 83
3, 31992, Note_on_c, 1, 51, 0
3, 31993, Note_on_c, 1, 55, 0
3, 31995, Note_on_c, 1, 60, 0
3, 32039, Note_on_c, 1, 62, 75
3, 32039, Note_on_c, 1, 53, 75
3, 32159, Note_on_c, 1, 62, 0
3, 32160, Note_on_c, 1, 60, 54
3, 32281, Note_on_c, 1, 60, 0
3, 32286, Note_on_c, 1, 53, 0
3, 32789, Note_on_c, 1, 64, 75
3, 32819, Note_on_c, 1, 65, 79
3, 32820, Note_on_c, 1, 64, 0
3, 32847, Note_on_c, 1, 65, 0
3, 32849, Note_on_c, 1, 61, 66
3, 32878, Note_on_c, 1, 61, 0
3, 32879, Note_on_c, 1, 62, 79
3, 32908, Note_on_c, 1, 62, 0
3, 32909, Note_on_c, 1, 57, 70
3, 32937, Note_on_c, 1, 57, 0
3, 32939, Note_on_c, 1, 58, 62
3, 32969, Note_on_c, 1, 58, 0
3, 32969, Note_on_c, 1, 52, 66
3, 32997, Note_on_c, 1, 52, 0
3, 32999, Note_on_c, 1, 53, 66
3, 33029, Note_on_c, 1, 53, 0
3, 33029, Note_on_c, 1, 49, 62
3, 33059, Note_on_c, 1, 49, 0
3, 33059, Note_on_c, 1, 50, 83
3, 33089, Note_on_c, 1, 50, 0
3, 33089, Note_on_c, 1, 46, 75
3, 33181, Note_on_c, 1, 45, 70
3, 33184, Note_on_c, 1, 46, 0
3, 33295, Note_on_c, 1, 45, 0
3, 33299, Note_on_c, 1, 44, 58
3, 33420, Note_on_c, 1, 44, 0
3, 33420, Note_on_c, 1, 45, 54
3, 33472, Note_on_c, 1, 45, 0
3, 33511, Note_on_c, 1, 71, 79
3, 33539, Note_on_c, 1, 71, 0
3, 33540, Note_on_c, 1, 72, 66
3, 33567, Note_on_c, 1, 72, 0
3, 33569, Note_on_c, 1, 68, 66
3, 33599, Note_on_c, 1, 68, 0
3, 33600, Note_on_c, 1, 69, 79
3, 33628, Note_on_c, 1, 69, 0
3, 33629, Note_on_c, 1, 62, 66
3, 33658, Note_on_c, 1, 62, 0
3, 33659, Note_on_c, 1, 63, 62
3, 33689, Note_on_c, 1, 63, 0
3, 33689, Note_on_c, 1, 59, 66
3, 33718, Note_on_c, 1, 59, 0
3, 33719, Note_on_c, 1, 60, 66
3, 33749, Note_on_c, 1, 60, 0
3, 33749, Note_on_c, 1, 56, 79
3, 33779, Note_on_c, 1, 57, 66
3, 33781, Note_on_c, 1, 56, 0
3, 33809, Note_on_c, 1, 57, 0
3, 33809, Note_on_c, 1, 51, 62
3, 33839, Note_on_c, 1, 51, 0
3, 33839, Note_on_c, 1, 50, 79
3, 33961, Note_on_c, 1, 49, 49
3, 33963, Note_on_c, 1, 50, 0
3, 34079, Note_on_c, 1, 49, 0
3, 34081, Note_on_c, 1, 50, 62
3, 34168, Note_on_c, 1, 50, 0
3, 34199, Note_on_c, 1, 44, 70
3, 34199, Note_on_c, 1, 41, 88
3, 34199, Note_on_c, 1, 47, 88
3, 34199, Note_on_c, 1, 50, 97
3, 34519, Note_on_c, 1, 50, 0
3, 34523, Note_on_c, 1, 44, 0
3, 34523, Note_on_c, 1, 41, 0
3, 34523, Note_on_c, 1, 47, 0
3, 34559, Note_on_c, 1, 44, 70
3, 34559, Note_on_c, 1, 47, 83
3, 34559, Note_on_c, 1, 39, 83
3, 34866, Note_on_c, 1, 47, 0
3, 34866, Note_on_c, 1, 44, 0
3, 34869, Note_on_c, 1, 39, 0
3, 34919, Note_on_c, 1, 37, 88
3, 34919, Note_on_c, 1, 40, 83
3, 34919, Note_on_c, 1, 46, 83
3, 34919, Note_on_c, 1, 43, 83
3, 35243, Note_on_c, 1, 43, 0
3, 35244, Note_on_c, 1, 40, 0
3, 35245, Note_on_c, 1, 37, 0
3, 35247, Note_on_c, 1, 46, 0
3, 35281, Note_on_c, 1, 38, 50
3, 35301, Note_on_c, 1, 38, 0
3, 35311, Note_on_c, 1, 41, 41
3, 35339, Note_on_c, 1, 41, 0
3, 35341, Note_on_c, 1, 46, 52
3, 35366, Note_on_c, 1, 46, 0
3, 35371, Note_on_c, 1, 50, 45
3, 35382, Note_on_c, 1, 50, 0
3, 35519, Note_on_c, 1, 39, 47
3, 35545, Note_on_c, 1, 39, 0
3, 35641, Note_on_c, 1, 41, 52
3, 35667, Note_on_c, 1, 41, 0
3, 35670, Note_on_c, 1, 46, 49
3, 35697, Note_on_c, 1, 46, 0
3, 35699, Note_on_c, 1, 50, 62
3, 35722, Note_on_c, 1, 50, 0
3, 35729, Note_on_c, 1, 53, 45
3, 35743, Note_on_c, 1, 53, 0
3, 35881, Note_on_c, 1, 29, 52
3, 35915, Note_on_c, 1, 29, 0
3, 36001, Note_on_c, 1, 58, 40
3, 36001, Note_on_c, 1, 62, 50
3, 36061, Note_on_c, 1, 62, 0
3, 36061, Note_on_c, 1, 65, 45
3, 36116, Note_on_c, 1, 65, 0
3, 36121, Note_on_c, 1, 62, 52
3, 36177, Note_on_c, 1, 62, 0
3, 36180, Note_on_c, 1, 65, 52
3, 36236, Note_on_c, 1, 65, 0
3, 36239, Note_on_c, 1, 60, 54
3, 36239, Note_on_c, 1, 63, 47
3, 36298, Note_on_c, 1, 63, 0
3, 36299, Note_on_c, 1, 65, 66
3, 36303, Note_on_c, 1, 60, 0
3, 36328, Note_on_c, 1, 58, 0
3, 36334, Note_on_c, 1, 65, 0
3, 36359, Note_on_c, 1, 58, 50
3, 36360, Note_on_c, 1, 62, 54
3, 36419, Note_on_c, 1, 62, 0
3, 36419, Note_on_c, 1, 65, 52
3, 36477, Note_on_c, 1, 65, 0
3, 36479, Note_on_c, 1, 62, 50
3, 36539, Note_on_c, 1, 62, 0
3, 36539, Note_on_c, 1, 65, 46
3, 36599, Note_on_c, 1, 63, 52
3, 36602, Note_on_c, 1, 65, 0
3, 36661, Note_on_c, 1, 63, 0
3, 36661, Note_on_c, 1, 65, 52
3, 36681, Note_on_c, 1, 65, 0
3, 36688, Note_on_c, 1, 58, 0
3, 36719, Note_on_c, 1, 58, 58
3, 36719, Note_on_c, 1, 69, 66
3, 36720, Note_on_c, 1, 60, 62
3, 36775, Note_on_c, 1, 69, 0
3, 36779, Note_on_c, 1, 60, 0
3, 36779, Note_on_c, 1, 65, 50
3, 36840, Note_on_c, 1, 65, 0
3, 36840, Note_on_c, 1, 70, 62
3, 36840, Note_on_c, 1, 62, 66
3, 36897, Note_on_c, 1, 70, 0
3, 36898, Note_on_c, 1, 62, 0
3, 36899, Note_on_c, 1, 65, 58
3, 36955, Note_on_c, 1, 65, 0
3, 36959, Note_on_c, 1, 63, 54
3, 36959, Note_on_c, 1, 60, 45
3, 37017, Note_on_c, 1, 60, 0
3, 37019, Note_on_c, 1, 65, 58
3, 37020, Note_on_c, 1, 63, 0
3, 37039, Note_on_c, 1, 65, 0
3, 37041, Note_on_c, 1, 58, 0
3, 37079, Note_on_c, 1, 58, 52
3, 37079, Note_on_c, 1, 62, 75
3, 37141, Note_on_c, 1, 65, 54
3, 37142, Note_on_c, 1, 62, 0
3, 37200, Note_on_c, 1, 65, 0
3, 37201, Note_on_c, 1, 62, 52
3, 37259, Note_on_c, 1, 62, 0
3, 37259, Note_on_c, 1, 65, 50
3, 37320, Note_on_c, 1, 63, 50
3, 37322, Note_on_c, 1, 65, 0
3, 37378, Note_on_c, 1, 63, 0
3, 37379, Note_on_c, 1, 65, 58
3, 37398, Note_on_c, 1, 65, 0
3, 37398, Note_on_c, 1, 58, 0
3, 37439, Note_on_c, 1, 63, 70
3, 37439, Note_on_c, 1, 58, 58
3, 37439, Note_on_c, 1, 69, 79
3, 37526, Note_on_c, 1, 69, 0
3, 37529, Note_on_c, 1, 63, 0
3, 37559, Note_on_c, 1, 70, 45
3, 37559, Note_on_c, 1, 62, 47
3, 37620, Note_on_c, 1, 62, 0
3, 37623, Note_on_c, 1, 70, 0
3, 37626, Note_on_c, 1, 58, 0
3, 37800, Note_on_c, 1, 58, 75
3, 37800, Note_on_c, 1, 69, 70
3, 37800, Note_on_c, 1, 63, 66
3, 37877, Note_on_c, 1, 63, 0
3, 37877, Note_on_c, 1, 69, 0
3, 37919, Note_on_c, 1, 61, 43
3, 37919, Note_on_c, 1, 70, 54
3, 37981, Note_on_c, 1, 58, 0
3, 37982, Note_on_c, 1, 70, 0
3, 37984, Note_on_c, 1, 61, 0
3, 38161, Note_on_c, 1, 66, 70
3, 38161, Note_on_c, 1, 63, 75
3, 38161, Note_on_c, 1, 60, 83
3, 38468, Note_on_c, 1, 66, 0
3, 38470, Note_on_c, 1, 63, 0
3, 38474, Note_on_c, 1, 60, 0
3, 38519, Note_on_c, 1, 65, 83
3, 38519, Note_on_c, 1, 61, 70
3, 38745, Note_on_c, 1, 61, 0
3, 38748, Note_on_c, 1, 65, 0
3, 38760, Note_on_c, 1, 63, 62
3, 38760, Note_on_c, 1, 66, 62
3, 38879, Note_on_c, 1, 53, 50
3, 38879, Note_on_c, 1, 61, 62
3, 38880, Note_on_c, 1, 66, 0
3, 38880, Note_on_c, 1, 63, 0
3, 38939, Note_on_c, 1, 62, 62
3, 38941, Note_on_c, 1, 61, 0
3, 39000, Note_on_c, 1, 63, 66
3, 39002, Note_on_c, 1, 62, 0
3, 39058, Note_on_c, 1, 63, 0
3, 39059, Note_on_c, 1, 64, 50
3, 39119, Note_on_c, 1, 65, 47
3, 39121, Note_on_c, 1, 64, 0
3, 39180, Note_on_c, 1, 63, 46
3, 39183, Note_on_c, 1, 65, 0
3, 39208, Note_on_c, 1, 53, 0
3, 39239, Note_on_c, 1, 63, 0
3, 39240, Note_on_c, 1, 58, 46
3, 39241, Note_on_c, 1, 62, 66
3, 39301, Note_on_c, 1, 65, 62
3, 39305, Note_on_c, 1, 62, 0
3, 39361, Note_on_c, 1, 65, 0
3, 39361, Note_on_c, 1, 62, 62
3, 39418, Note_on_c, 1, 62, 0
3, 39420, Note_on_c, 1, 65, 62
3, 39479, Note_on_c, 1, 65, 0
3, 39479, Note_on_c, 1, 60, 70
3, 39479, Note_on_c, 1, 51, 52
3, 39481, Note_on_c, 1, 58, 0
3, 39540, Note_on_c, 1, 63, 54
3, 39541, Note_on_c, 1, 60, 0
3, 39565, Note_on_c, 1, 63, 0
3, 39569, Note_on_c, 1, 51, 0
3, 39599, Note_on_c, 1, 58, 50
3, 39599, Note_on_c, 1, 53, 47
3, 39661, Note_on_c, 1, 62, 49
3, 39666, Note_on_c, 1, 58, 0
3, 39717, Note_on_c, 1, 62, 0
3, 39721, Note_on_c, 1, 58, 32
3, 39775, Note_on_c, 1, 58, 0
3, 39779, Note_on_c, 1, 62, 47
3, 39794, Note_on_c, 1, 53, 0
3, 39796, Note_on_c, 1, 62, 0
3, 39839, Note_on_c, 1, 57, 58
3, 39839, Note_on_c, 1, 53, 34
3, 39896, Note_on_c, 1, 57, 0
3, 39899, Note_on_c, 1, 60, 66
3, 39909, Note_on_c, 1, 60, 0
3, 39911, Note_on_c, 1, 53, 0
3, 39959, Note_on_c, 1, 62, 79
3, 39960, Note_on_c, 1, 58, 52
3, 40019, Note_on_c, 1, 65, 75
3, 40020, Note_on_c, 1, 62, 0
3, 40036, Note_on_c, 1, 65, 0
3, 40039, Note_on_c, 1, 58, 0
3, 40079, Note_on_c, 1, 60, 75
3, 40079, Note_on_c, 1, 54, 66
3, 40137, Note_on_c, 1, 60, 0
3, 40139, Note_on_c, 1, 62, 79
3, 40199, Note_on_c, 1, 62, 0
3, 40200, Note_on_c, 1, 58, 52
3, 40200, Note_on_c, 1, 55, 62
3, 40201, Note_on_c, 1, 54, 0
3, 40257, Note_on_c, 1, 55, 0
3, 40259, Note_on_c, 1, 52, 47
3, 40259, Note_on_c, 1, 61, 62
3, 40260, Note_on_c, 1, 58, 0
3, 40315, Note_on_c, 1, 61, 0
3, 40319, Note_on_c, 1, 52, 0
3, 40319, Note_on_c, 1, 53, 54
3, 40319, Note_on_c, 1, 62, 50
3, 40380, Note_on_c, 1, 62, 0
3, 40381, Note_on_c, 1, 65, 52
3, 40436, Note_on_c, 1, 65, 0
3, 40441, Note_on_c, 1, 62, 29
3, 40496, Note_on_c, 1, 62, 0
3, 40499, Note_on_c, 1, 65, 54
3, 40522, Note_on_c, 1, 53, 0
3, 40531, Note_on_c, 1, 65, 0
3, 40559, Note_on_c, 1, 53, 43
3, 40559, Note_on_c, 1, 60, 62
3, 40617, Note_on_c, 1, 60, 0
3, 40619, Note_on_c, 1, 63, 47
3, 40629, Note_on_c, 1, 53, 0
3, 40639, Note_on_c, 1, 63, 0
3, 40679, Note_on_c, 1, 58, 46
3, 40679, Note_on_c, 1, 62, 54
3, 40798, Note_on_c, 1, 62, 0
3, 40800, Note_on_c, 1, 58, 0
3, 41039, Note_on_c, 1, 45, 83
3, 41039, Note_on_c, 1, 51, 70
3, 41279, Note_on_c, 1, 63, 46
3, 41279, Note_on_c, 1, 57, 47
3, 41283, Note_on_c, 1, 51, 0
3, 41283, Note_on_c, 1, 45, 0
3, 41349, Note_on_c, 1, 63, 0
3, 41352, Note_on_c, 1, 57, 0
3, 41399, Note_on_c, 1, 58, 47
3, 41399, Note_on_c, 1, 62, 58
3, 41426, Note_on_c, 1, 58, 0
3, 41427, Note_on_c, 1, 62, 0
3, 41461, Note_on_c, 1, 63, 58
3, 41461, Note_on_c, 1, 51, 50
3, 41487, Note_on_c, 1, 63, 0
3, 41488, Note_on_c, 1, 51, 0
3, 41519, Note_on_c, 1, 62, 62
3, 41519, Note_on_c, 1, 53, 49
3, 41641, Note_on_c, 1, 54, 46
3, 41643, Note_on_c, 1, 53, 0
3, 41728, Note_on_c, 1, 54, 0
3, 41729, Note_on_c, 1, 62, 0
3, 41759, Note_on_c, 1, 55, 54
3, 41779, Note_on_c, 1, 54, 47
3, 41781, Note_on_c, 1, 55, 0
3, 41800, Note_on_c, 1, 54, 0
3, 41800, Note_on_c, 1, 57, 52
3, 41819, Note_on_c, 1, 57, 0
3, 41819, Note_on_c, 1, 55, 62
3, 41838, Note_on_c, 1, 55, 0
3, 41839, Note_on_c, 1, 53, 43
3, 41857, Note_on_c, 1, 53, 0
3, 41859, Note_on_c, 1, 51, 52
3, 41879, Note_on_c, 1, 51, 0
3, 41879, Note_on_c, 1, 50, 62
3, 41900, Note_on_c, 1, 50, 0
3, 41900, Note_on_c, 1, 48, 54
3, 41918, Note_on_c, 1, 48, 0
3, 41919, Note_on_c, 1, 51, 50
3, 41938, Note_on_c, 1, 51, 0
3, 41939, Note_on_c, 1, 50, 66
3, 41959, Note_on_c, 1, 48, 62
3, 41960, Note_on_c, 1, 50, 0
3, 41977, Note_on_c, 1, 48, 0
3, 41981, Note_on_c, 1, 46, 66
3, 42000, Note_on_c, 1, 44, 49
3, 42001, Note_on_c, 1, 46, 0
3, 42021, Note_on_c, 1, 44, 0
3, 42021, Note_on_c, 1, 43, 62
3, 42041, Note_on_c, 1, 46, 58
3, 42043, Note_on_c, 1, 43, 0
3, 42059, Note_on_c, 1, 44, 50
3, 42060, Note_on_c, 1, 46, 0
3, 42079, Note_on_c, 1, 44, 0
3, 42079, Note_on_c, 1, 43, 54
3, 42099, Note_on_c, 1, 41, 66
3, 42100, Note_on_c, 1, 43, 0
3, 42120, Note_on_c, 1, 41, 0
3, 42120, Note_on_c, 1, 39, 66
3, 42238, Note_on_c, 1, 39, 0
3, 42239, Note_on_c, 1, 38, 50
3, 42274, Note_on_c, 1, 38, 0
3, 42299, Note_on_c, 1, 38, 62
3, 42319, Note_on_c, 1, 38, 0
3, 42361, Note_on_c, 1, 38, 66
3, 42376, Note_on_c, 1, 38, 0
3, 42419, Note_on_c, 1, 38, 75
3, 42435, Note_on_c, 1, 38, 0
3, 42479, Note_on_c, 1, 39, 62
3, 42551, Note_on_c, 1, 39, 0
3, 42600, Note_on_c, 1, 62, 62
3, 42601, Note_on_c, 1, 53, 47
3, 42720, Note_on_c, 1, 63, 49
3, 42723, Note_on_c, 1, 62, 0
3, 42837, Note_on_c, 1, 53, 0
3, 42839, Note_on_c, 1, 63, 0
3, 42840, Note_on_c, 1, 58, 46
3, 42841, Note_on_c, 1, 62, 79
3, 42874, Note_on_c, 1, 62, 0
3, 42907, Note_on_c, 1, 58, 0
3, 42981, Note_on_c, 1, 46, 66
3, 42990, Note_on_c, 1, 46, 0
3, 43001, Note_on_c, 1, 50, 75
3, 43007, Note_on_c, 1, 50, 0
3, 43021, Note_on_c, 1, 53, 66
3, 43031, Note_on_c, 1, 53, 0
3, 43041, Note_on_c, 1, 58, 62
3, 43050, Note_on_c, 1, 58, 0
3, 43061, Note_on_c, 1, 62, 62
3, 43068, Note_on_c, 1, 62, 0
3, 43081, Note_on_c, 1, 65, 70
3, 43096, Note_on_c, 1, 65, 0
3, 43201, Note_on_c, 1, 58, 52
3, 43258, Note_on_c, 1, 58, 0
3, 43341, Note_on_c, 1, 34, 49
3, 43351, Note_on_c, 1, 34, 0
3, 43360, Note_on_c, 1, 38, 70
3, 43368, Note_on_c, 1, 38, 0
3, 43380, Note_on_c, 1, 41, 70
3, 43388, Note_on_c, 1, 41, 0
3, 43401, Note_on_c, 1, 46, 66
3, 43407, Note_on_c, 1, 46, 0
3, 43421, Note_on_c, 1, 50, 75
3, 43429, Note_on_c, 1, 50, 0
3, 43441, Note_on_c, 1, 53, 66
3, 43459, Note_on_c, 1, 53, 0
3, 43561, Note_on_c, 1, 34, 58
3, 43561, Note_on_c, 1, 46, 62
3, 43740, Note_on_c, 1, 46, 0
3, 43740, Note_on_c, 1, 34, 0
3, 43920, Control_c, 1, 121, 0
3, 43920, End_track
4, 0, Start_track
4, 0, MIDI_port, 0
4, 0, Title_t, "Title: Sonata K. 533, 2nd Mov't."
4, 0, End_track
5, 0, Start_track
5, 0, MIDI_port, 0
5, 0, Title_t, "Composer: W. A. Mozart"
5, 0, End_track
6, 0, Start_track
6, 0, MIDI_port, 0
6, 0, Title_t, "Sequence: Faren Raborn, Copyright 1996"
6, 0, End_track
7, 0, Start_track
7, 0, MIDI_port, 0
7, 0, Title_t, "Email: raborn@dtx.net"
7, 0, End_track
0, 0, End_of_file
