0, 0, Header, 1, 5, 240
1, 0, Start_track
1, 0, Time_signature, 3, 2, 24, 8
1, 0, Key_signature, 0, "major"
1, 0, Tempo, 434783
1, 50640, Tempo, 454545
1, 50880, Tempo, 480000
1, 51120, Tempo, 504202
1, 51360, Tempo, 530973
1, 51600, Tempo, 566038
1, 51840, Tempo, 434783
1, 51840, End_track
2, 0, Start_track
2, 0, MIDI_port, 0
2, 0, Title_t, "Piano Sonata No. 2 in G, K.283"
2, 0, Program_c, 0, 0
2, 0, Control_c, 0, 7, 127
2, 0, Control_c, 0, 10, 68
2, 480, Note_on_c, 0, 74, 64
2, 660, Note_on_c, 0, 74, 0
2, 660, Note_on_c, 0, 71, 64
2, 720, Note_on_c, 0, 71, 0
2, 720, Note_on_c, 0, 74, 72
2, 912, Note_on_c, 0, 74, 0
2, 1200, Note_on_c, 0, 67, 64
2, 1440, Note_on_c, 0, 67, 0
2, 1440, Note_on_c, 0, 66, 64
2, 1560, Note_on_c, 0, 66, 0
2, 1920, Note_on_c, 0, 81, 64
2, 2100, Note_on_c, 0, 81, 0
2, 2100, Note_on_c, 0, 78, 64
2, 2160, Note_on_c, 0, 78, 0
2, 2160, Note_on_c, 0, 81, 76
2, 2352, Note_on_c, 0, 81, 0
2, 2640, Note_on_c, 0, 72, 64
2, 2880, Note_on_c, 0, 72, 0
2, 2880, Note_on_c, 0, 71, 64
2, 3000, Note_on_c, 0, 71, 0
2, 3360, Note_on_c, 0, 79, 64
2, 3504, Note_on_c, 0, 79, 0
2, 3540, Note_on_c, 0, 78, 56
2, 3588, Note_on_c, 0, 78, 0
2, 3600, Note_on_c, 0, 78, 80
2, 3696, Note_on_c, 0, 78, 0
2, 3720, Note_on_c, 0, 76, 56
2, 3768, Note_on_c, 0, 76, 0
2, 3840, Note_on_c, 0, 76, 56
2, 4068, Note_on_c, 0, 76, 0
2, 4080, Note_on_c, 0, 79, 64
2, 4224, Note_on_c, 0, 79, 0
2, 4260, Note_on_c, 0, 76, 56
2, 4308, Note_on_c, 0, 76, 0
2, 4320, Note_on_c, 0, 76, 80
2, 4416, Note_on_c, 0, 76, 0
2, 4440, Note_on_c, 0, 74, 56
2, 4488, Note_on_c, 0, 74, 0
2, 4560, Note_on_c, 0, 74, 56
2, 4788, Note_on_c, 0, 74, 0
2, 4800, Note_on_c, 0, 79, 72
2, 4971, Note_on_c, 0, 79, 0
2, 4980, Note_on_c, 0, 74, 72
2, 5010, Note_on_c, 0, 74, 0
2, 5040, Note_on_c, 0, 74, 64
2, 5112, Note_on_c, 0, 74, 0
2, 5280, Note_on_c, 0, 74, 72
2, 5352, Note_on_c, 0, 74, 0
2, 5520, Note_on_c, 0, 74, 80
2, 5592, Note_on_c, 0, 74, 0
2, 5760, Note_on_c, 0, 74, 80
2, 5820, Note_on_c, 0, 74, 0
2, 5820, Note_on_c, 0, 76, 80
2, 5880, Note_on_c, 0, 76, 0
2, 5880, Note_on_c, 0, 78, 80
2, 5940, Note_on_c, 0, 78, 0
2, 5940, Note_on_c, 0, 79, 80
2, 6000, Note_on_c, 0, 79, 0
2, 6000, Note_on_c, 0, 81, 80
2, 6060, Note_on_c, 0, 81, 0
2, 6060, Note_on_c, 0, 83, 80
2, 6120, Note_on_c, 0, 83, 0
2, 6120, Note_on_c, 0, 84, 80
2, 6180, Note_on_c, 0, 84, 0
2, 6180, Note_on_c, 0, 86, 80
2, 6240, Note_on_c, 0, 86, 0
2, 6240, Note_on_c, 0, 84, 80
2, 6300, Note_on_c, 0, 84, 0
2, 6300, Note_on_c, 0, 83, 80
2, 6360, Note_on_c, 0, 83, 0
2, 6360, Note_on_c, 0, 81, 80
2, 6420, Note_on_c, 0, 81, 0
2, 6420, Note_on_c, 0, 79, 80
2, 6480, Note_on_c, 0, 79, 0
2, 6480, Note_on_c, 0, 78, 80
2, 6540, Note_on_c, 0, 78, 0
2, 6540, Note_on_c, 0, 76, 80
2, 6600, Note_on_c, 0, 76, 0
2, 6600, Note_on_c, 0, 74, 80
2, 6660, Note_on_c, 0, 74, 0
2, 6660, Note_on_c, 0, 72, 80
2, 6720, Note_on_c, 0, 72, 0
2, 6720, Note_on_c, 0, 71, 80
2, 6780, Note_on_c, 0, 71, 0
2, 6780, Note_on_c, 0, 74, 80
2, 6840, Note_on_c, 0, 74, 0
2, 6840, Note_on_c, 0, 71, 80
2, 6900, Note_on_c, 0, 71, 0
2, 6900, Note_on_c, 0, 67, 80
2, 6960, Note_on_c, 0, 67, 0
2, 6960, Note_on_c, 0, 69, 80
2, 7020, Note_on_c, 0, 69, 0
2, 7020, Note_on_c, 0, 72, 80
2, 7080, Note_on_c, 0, 72, 0
2, 7080, Note_on_c, 0, 69, 80
2, 7140, Note_on_c, 0, 69, 0
2, 7140, Note_on_c, 0, 66, 80
2, 7200, Note_on_c, 0, 66, 0
2, 7200, Note_on_c, 0, 67, 80
2, 7344, Note_on_c, 0, 67, 0
2, 7680, Note_on_c, 0, 67, 72
2, 7824, Note_on_c, 0, 67, 0
2, 7860, Note_on_c, 0, 66, 64
2, 7908, Note_on_c, 0, 66, 0
2, 7920, Note_on_c, 0, 66, 80
2, 8016, Note_on_c, 0, 66, 0
2, 8040, Note_on_c, 0, 64, 64
2, 8100, Note_on_c, 0, 64, 0
2, 8160, Note_on_c, 0, 64, 64
2, 8400, Note_on_c, 0, 64, 0
2, 8400, Note_on_c, 0, 67, 72
2, 8544, Note_on_c, 0, 67, 0
2, 8580, Note_on_c, 0, 64, 64
2, 8628, Note_on_c, 0, 64, 0
2, 8640, Note_on_c, 0, 64, 80
2, 8736, Note_on_c, 0, 64, 0
2, 8760, Note_on_c, 0, 62, 64
2, 8820, Note_on_c, 0, 62, 0
2, 8880, Note_on_c, 0, 62, 64
2, 9120, Note_on_c, 0, 62, 0
2, 9120, Note_on_c, 0, 79, 64
2, 9264, Note_on_c, 0, 79, 0
2, 9300, Note_on_c, 0, 74, 64
2, 9348, Note_on_c, 0, 74, 0
2, 9360, Note_on_c, 0, 74, 64
2, 9480, Note_on_c, 0, 74, 0
2, 9600, Note_on_c, 0, 74, 72
2, 9720, Note_on_c, 0, 74, 0
2, 9840, Note_on_c, 0, 74, 80
2, 9960, Note_on_c, 0, 74, 0
2, 10080, Note_on_c, 0, 74, 80
2, 10140, Note_on_c, 0, 74, 0
2, 10140, Note_on_c, 0, 76, 80
2, 10200, Note_on_c, 0, 76, 0
2, 10200, Note_on_c, 0, 78, 80
2, 10260, Note_on_c, 0, 78, 0
2, 10260, Note_on_c, 0, 79, 80
2, 10320, Note_on_c, 0, 79, 0
2, 10320, Note_on_c, 0, 81, 80
2, 10380, Note_on_c, 0, 81, 0
2, 10380, Note_on_c, 0, 83, 80
2, 10440, Note_on_c, 0, 83, 0
2, 10440, Note_on_c, 0, 84, 80
2, 10500, Note_on_c, 0, 84, 0
2, 10500, Note_on_c, 0, 86, 80
2, 10560, Note_on_c, 0, 86, 0
2, 10560, Note_on_c, 0, 84, 80
2, 10620, Note_on_c, 0, 84, 0
2, 10620, Note_on_c, 0, 83, 80
2, 10680, Note_on_c, 0, 83, 0
2, 10680, Note_on_c, 0, 81, 80
2, 10740, Note_on_c, 0, 81, 0
2, 10740, Note_on_c, 0, 79, 80
2, 10800, Note_on_c, 0, 79, 0
2, 10800, Note_on_c, 0, 78, 80
2, 10860, Note_on_c, 0, 78, 0
2, 10860, Note_on_c, 0, 76, 80
2, 10920, Note_on_c, 0, 76, 0
2, 10920, Note_on_c, 0, 74, 80
2, 10980, Note_on_c, 0, 74, 0
2, 10980, Note_on_c, 0, 72, 80
2, 11040, Note_on_c, 0, 72, 0
2, 11040, Note_on_c, 0, 71, 80
2, 11100, Note_on_c, 0, 71, 0
2, 11100, Note_on_c, 0, 74, 80
2, 11160, Note_on_c, 0, 74, 0
2, 11160, Note_on_c, 0, 71, 80
2, 11220, Note_on_c, 0, 71, 0
2, 11220, Note_on_c, 0, 67, 80
2, 11280, Note_on_c, 0, 67, 0
2, 11280, Note_on_c, 0, 69, 80
2, 11340, Note_on_c, 0, 69, 0
2, 11340, Note_on_c, 0, 72, 80
2, 11400, Note_on_c, 0, 72, 0
2, 11400, Note_on_c, 0, 69, 80
2, 11460, Note_on_c, 0, 69, 0
2, 11460, Note_on_c, 0, 66, 80
2, 11520, Note_on_c, 0, 66, 0
2, 11520, Note_on_c, 0, 67, 80
2, 11712, Note_on_c, 0, 67, 0
2, 11880, Note_on_c, 0, 55, 56
2, 11940, Note_on_c, 0, 55, 0
2, 11940, Note_on_c, 0, 59, 56
2, 12000, Note_on_c, 0, 59, 0
2, 12000, Note_on_c, 0, 57, 56
2, 12060, Note_on_c, 0, 57, 0
2, 12060, Note_on_c, 0, 60, 56
2, 12120, Note_on_c, 0, 60, 0
2, 12120, Note_on_c, 0, 59, 56
2, 12180, Note_on_c, 0, 59, 0
2, 12180, Note_on_c, 0, 62, 56
2, 12240, Note_on_c, 0, 62, 0
2, 12240, Note_on_c, 0, 60, 72
2, 12360, Note_on_c, 0, 60, 0
2, 12600, Note_on_c, 0, 57, 56
2, 12648, Note_on_c, 0, 57, 0
2, 12660, Note_on_c, 0, 60, 56
2, 12708, Note_on_c, 0, 60, 0
2, 12720, Note_on_c, 0, 59, 56
2, 12768, Note_on_c, 0, 59, 0
2, 12780, Note_on_c, 0, 62, 56
2, 12828, Note_on_c, 0, 62, 0
2, 12840, Note_on_c, 0, 60, 56
2, 12888, Note_on_c, 0, 60, 0
2, 12900, Note_on_c, 0, 64, 56
2, 12948, Note_on_c, 0, 64, 0
2, 12960, Note_on_c, 0, 62, 80
2, 13080, Note_on_c, 0, 62, 0
2, 13320, Note_on_c, 0, 59, 40
2, 13380, Note_on_c, 0, 59, 0
2, 13380, Note_on_c, 0, 62, 40
2, 13440, Note_on_c, 0, 62, 0
2, 13440, Note_on_c, 0, 60, 40
2, 13500, Note_on_c, 0, 60, 0
2, 13500, Note_on_c, 0, 64, 40
2, 13560, Note_on_c, 0, 64, 0
2, 13560, Note_on_c, 0, 62, 40
2, 13620, Note_on_c, 0, 62, 0
2, 13620, Note_on_c, 0, 65, 40
2, 13680, Note_on_c, 0, 65, 0
2, 13680, Note_on_c, 0, 64, 48
2, 13740, Note_on_c, 0, 64, 0
2, 13740, Note_on_c, 0, 65, 42
2, 13800, Note_on_c, 0, 65, 0
2, 13800, Note_on_c, 0, 62, 44
2, 13860, Note_on_c, 0, 62, 0
2, 13860, Note_on_c, 0, 64, 46
2, 13920, Note_on_c, 0, 64, 0
2, 13920, Note_on_c, 0, 60, 48
2, 13980, Note_on_c, 0, 60, 0
2, 13980, Note_on_c, 0, 64, 50
2, 14040, Note_on_c, 0, 64, 0
2, 14040, Note_on_c, 0, 62, 52
2, 14100, Note_on_c, 0, 62, 0
2, 14100, Note_on_c, 0, 65, 54
2, 14160, Note_on_c, 0, 65, 0
2, 14160, Note_on_c, 0, 64, 56
2, 14220, Note_on_c, 0, 64, 0
2, 14220, Note_on_c, 0, 67, 58
2, 14280, Note_on_c, 0, 67, 0
2, 14280, Note_on_c, 0, 66, 60
2, 14340, Note_on_c, 0, 66, 0
2, 14340, Note_on_c, 0, 69, 62
2, 14400, Note_on_c, 0, 69, 0
2, 14400, Note_on_c, 0, 67, 72
2, 14460, Note_on_c, 0, 67, 0
2, 14460, Note_on_c, 0, 69, 65
2, 14520, Note_on_c, 0, 69, 0
2, 14520, Note_on_c, 0, 66, 67
2, 14580, Note_on_c, 0, 66, 0
2, 14580, Note_on_c, 0, 67, 68
2, 14640, Note_on_c, 0, 67, 0
2, 14640, Note_on_c, 0, 64, 69
2, 14700, Note_on_c, 0, 64, 0
2, 14700, Note_on_c, 0, 67, 71
2, 14760, Note_on_c, 0, 67, 0
2, 14760, Note_on_c, 0, 66, 72
2, 14820, Note_on_c, 0, 66, 0
2, 14820, Note_on_c, 0, 69, 73
2, 14880, Note_on_c, 0, 69, 0
2, 14880, Note_on_c, 0, 67, 75
2, 14940, Note_on_c, 0, 67, 0
2, 14940, Note_on_c, 0, 71, 76
2, 15000, Note_on_c, 0, 71, 0
2, 15000, Note_on_c, 0, 69, 77
2, 15060, Note_on_c, 0, 69, 0
2, 15060, Note_on_c, 0, 72, 79
2, 15120, Note_on_c, 0, 72, 0
2, 15120, Note_on_c, 0, 71, 80
2, 15180, Note_on_c, 0, 71, 0
2, 15180, Note_on_c, 0, 72, 81
2, 15240, Note_on_c, 0, 72, 0
2, 15240, Note_on_c, 0, 69, 83
2, 15300, Note_on_c, 0, 69, 0
2, 15300, Note_on_c, 0, 71, 84
2, 15360, Note_on_c, 0, 71, 0
2, 15360, Note_on_c, 0, 67, 85
2, 15420, Note_on_c, 0, 67, 0
2, 15420, Note_on_c, 0, 71, 87
2, 15480, Note_on_c, 0, 71, 0
2, 15480, Note_on_c, 0, 69, 88
2, 15540, Note_on_c, 0, 69, 0
2, 15540, Note_on_c, 0, 72, 89
2, 15600, Note_on_c, 0, 72, 0
2, 15600, Note_on_c, 0, 71, 91
2, 15660, Note_on_c, 0, 71, 0
2, 15660, Note_on_c, 0, 74, 92
2, 15720, Note_on_c, 0, 74, 0
2, 15720, Note_on_c, 0, 73, 93
2, 15780, Note_on_c, 0, 73, 0
2, 15780, Note_on_c, 0, 76, 95
2, 15840, Note_on_c, 0, 76, 0
2, 15840, Note_on_c, 0, 74, 96
2, 15912, Note_on_c, 0, 74, 0
2, 16080, Note_on_c, 0, 62, 96
2, 16272, Note_on_c, 0, 62, 0
2, 16680, Note_on_c, 0, 81, 64
2, 16920, Note_on_c, 0, 81, 0
2, 16920, Note_on_c, 0, 79, 56
2, 17160, Note_on_c, 0, 79, 0
2, 17160, Note_on_c, 0, 78, 56
2, 17400, Note_on_c, 0, 78, 0
2, 17400, Note_on_c, 0, 76, 56
2, 17640, Note_on_c, 0, 76, 0
2, 17640, Note_on_c, 0, 74, 56
2, 17880, Note_on_c, 0, 74, 0
2, 17880, Note_on_c, 0, 73, 56
2, 18000, Note_on_c, 0, 73, 0
2, 18000, Note_on_c, 0, 76, 56
2, 18060, Note_on_c, 0, 76, 0
2, 18060, Note_on_c, 0, 74, 57
2, 18168, Note_on_c, 0, 74, 0
2, 18240, Note_on_c, 0, 78, 61
2, 18300, Note_on_c, 0, 78, 0
2, 18300, Note_on_c, 0, 76, 63
2, 18426, Note_on_c, 0, 76, 0
2, 18480, Note_on_c, 0, 79, 67
2, 18540, Note_on_c, 0, 79, 0
2, 18540, Note_on_c, 0, 78, 68
2, 18684, Note_on_c, 0, 78, 0
2, 18720, Note_on_c, 0, 81, 80
2, 18900, Note_on_c, 0, 81, 0
2, 18900, Note_on_c, 0, 79, 74
2, 18960, Note_on_c, 0, 79, 0
2, 18960, Note_on_c, 0, 76, 72
2, 19152, Note_on_c, 0, 76, 0
2, 19560, Note_on_c, 0, 81, 56
2, 19620, Note_on_c, 0, 81, 0
2, 19620, Note_on_c, 0, 83, 56
2, 19680, Note_on_c, 0, 83, 0
2, 19680, Note_on_c, 0, 79, 56
2, 19716, Note_on_c, 0, 79, 0
2, 19800, Note_on_c, 0, 79, 56
2, 19860, Note_on_c, 0, 79, 0
2, 19860, Note_on_c, 0, 81, 56
2, 19920, Note_on_c, 0, 81, 0
2, 19920, Note_on_c, 0, 78, 56
2, 19956, Note_on_c, 0, 78, 0
2, 20040, Note_on_c, 0, 78, 56
2, 20100, Note_on_c, 0, 78, 0
2, 20100, Note_on_c, 0, 79, 56
2, 20160, Note_on_c, 0, 79, 0
2, 20160, Note_on_c, 0, 76, 56
2, 20196, Note_on_c, 0, 76, 0
2, 20280, Note_on_c, 0, 76, 56
2, 20340, Note_on_c, 0, 76, 0
2, 20340, Note_on_c, 0, 78, 56
2, 20400, Note_on_c, 0, 78, 0
2, 20400, Note_on_c, 0, 74, 56
2, 20436, Note_on_c, 0, 74, 0
2, 20520, Note_on_c, 0, 74, 56
2, 20580, Note_on_c, 0, 74, 0
2, 20580, Note_on_c, 0, 76, 56
2, 20640, Note_on_c, 0, 76, 0
2, 20640, Note_on_c, 0, 73, 56
2, 20676, Note_on_c, 0, 73, 0
2, 20760, Note_on_c, 0, 73, 56
2, 20820, Note_on_c, 0, 73, 0
2, 20820, Note_on_c, 0, 76, 56
2, 20880, Note_on_c, 0, 76, 0
2, 20880, Note_on_c, 0, 74, 56
2, 20940, Note_on_c, 0, 74, 0
2, 20940, Note_on_c, 0, 76, 57
2, 21000, Note_on_c, 0, 76, 0
2, 21000, Note_on_c, 0, 78, 59
2, 21060, Note_on_c, 0, 78, 0
2, 21060, Note_on_c, 0, 74, 60
2, 21120, Note_on_c, 0, 74, 0
2, 21120, Note_on_c, 0, 76, 61
2, 21180, Note_on_c, 0, 76, 0
2, 21180, Note_on_c, 0, 78, 63
2, 21240, Note_on_c, 0, 78, 0
2, 21240, Note_on_c, 0, 79, 64
2, 21300, Note_on_c, 0, 79, 0
2, 21300, Note_on_c, 0, 76, 65
2, 21360, Note_on_c, 0, 76, 0
2, 21360, Note_on_c, 0, 78, 67
2, 21420, Note_on_c, 0, 78, 0
2, 21420, Note_on_c, 0, 79, 68
2, 21480, Note_on_c, 0, 79, 0
2, 21480, Note_on_c, 0, 81, 69
2, 21540, Note_on_c, 0, 81, 0
2, 21540, Note_on_c, 0, 78, 71
2, 21600, Note_on_c, 0, 78, 0
2, 21600, Note_on_c, 0, 81, 80
2, 21660, Note_on_c, 0, 81, 0
2, 21660, Note_on_c, 0, 79, 71
2, 21720, Note_on_c, 0, 79, 0
2, 21720, Note_on_c, 0, 81, 69
2, 21780, Note_on_c, 0, 81, 0
2, 21780, Note_on_c, 0, 79, 68
2, 21840, Note_on_c, 0, 79, 0
2, 21840, Note_on_c, 0, 76, 67
2, 22080, Note_on_c, 0, 76, 0
2, 22440, Note_on_c, 0, 74, 48
2, 22500, Note_on_c, 0, 74, 0
2, 22560, Note_on_c, 0, 73, 48
2, 22620, Note_on_c, 0, 73, 0
2, 22680, Note_on_c, 0, 74, 48
2, 22740, Note_on_c, 0, 74, 0
2, 22800, Note_on_c, 0, 76, 80
2, 22800, Note_on_c, 0, 79, 80
2, 22896, Note_on_c, 0, 79, 0
2, 22896, Note_on_c, 0, 76, 0
2, 22920, Note_on_c, 0, 74, 72
2, 22920, Note_on_c, 0, 78, 72
2, 23016, Note_on_c, 0, 78, 0
2, 23016, Note_on_c, 0, 74, 0
2, 23160, Note_on_c, 0, 74, 48
2, 23220, Note_on_c, 0, 74, 0
2, 23280, Note_on_c, 0, 73, 48
2, 23340, Note_on_c, 0, 73, 0
2, 23400, Note_on_c, 0, 74, 48
2, 23460, Note_on_c, 0, 74, 0
2, 23520, Note_on_c, 0, 79, 80
2, 23520, Note_on_c, 0, 83, 80
2, 23616, Note_on_c, 0, 83, 0
2, 23616, Note_on_c, 0, 79, 0
2, 23640, Note_on_c, 0, 78, 72
2, 23640, Note_on_c, 0, 81, 72
2, 23736, Note_on_c, 0, 81, 0
2, 23736, Note_on_c, 0, 78, 0
2, 23880, Note_on_c, 0, 74, 48
2, 23940, Note_on_c, 0, 74, 0
2, 24000, Note_on_c, 0, 73, 48
2, 24060, Note_on_c, 0, 73, 0
2, 24120, Note_on_c, 0, 74, 48
2, 24180, Note_on_c, 0, 74, 0
2, 24240, Note_on_c, 0, 83, 90
2, 24240, Note_on_c, 0, 86, 90
2, 24360, Note_on_c, 0, 86, 0
2, 24360, Note_on_c, 0, 83, 0
2, 24360, Note_on_c, 0, 81, 72
2, 24360, Note_on_c, 0, 85, 72
2, 24420, Note_on_c, 0, 85, 0
2, 24420, Note_on_c, 0, 81, 0
2, 24480, Note_on_c, 0, 81, 90
2, 24480, Note_on_c, 0, 84, 90
2, 24600, Note_on_c, 0, 84, 0
2, 24600, Note_on_c, 0, 81, 0
2, 24600, Note_on_c, 0, 79, 72
2, 24600, Note_on_c, 0, 83, 72
2, 24660, Note_on_c, 0, 83, 0
2, 24660, Note_on_c, 0, 79, 0
2, 24720, Note_on_c, 0, 77, 90
2, 24720, Note_on_c, 0, 80, 90
2, 24840, Note_on_c, 0, 80, 0
2, 24840, Note_on_c, 0, 77, 0
2, 24840, Note_on_c, 0, 76, 72
2, 24840, Note_on_c, 0, 81, 72
2, 24900, Note_on_c, 0, 81, 0
2, 24900, Note_on_c, 0, 76, 0
2, 24960, Note_on_c, 0, 75, 90
2, 24960, Note_on_c, 0, 78, 90
2, 25080, Note_on_c, 0, 78, 0
2, 25080, Note_on_c, 0, 75, 0
2, 25080, Note_on_c, 0, 74, 72
2, 25080, Note_on_c, 0, 79, 72
2, 25140, Note_on_c, 0, 79, 0
2, 25140, Note_on_c, 0, 74, 0
2, 25200, Note_on_c, 0, 79, 80
2, 25260, Note_on_c, 0, 79, 0
2, 25260, Note_on_c, 0, 76, 80
2, 25320, Note_on_c, 0, 76, 0
2, 25320, Note_on_c, 0, 73, 80
2, 25380, Note_on_c, 0, 73, 0
2, 25380, Note_on_c, 0, 69, 80
2, 25440, Note_on_c, 0, 69, 0
2, 25440, Note_on_c, 0, 68, 80
2, 25500, Note_on_c, 0, 68, 0
2, 25500, Note_on_c, 0, 69, 80
2, 25560, Note_on_c, 0, 69, 0
2, 25560, Note_on_c, 0, 71, 80
2, 25620, Note_on_c, 0, 71, 0
2, 25620, Note_on_c, 0, 69, 80
2, 25680, Note_on_c, 0, 69, 0
2, 25680, Note_on_c, 0, 79, 80
2, 25740, Note_on_c, 0, 79, 0
2, 25740, Note_on_c, 0, 76, 80
2, 25800, Note_on_c, 0, 76, 0
2, 25800, Note_on_c, 0, 73, 80
2, 25860, Note_on_c, 0, 73, 0
2, 25860, Note_on_c, 0, 69, 80
2, 25920, Note_on_c, 0, 69, 0
2, 25920, Note_on_c, 0, 81, 80
2, 25980, Note_on_c, 0, 81, 0
2, 25980, Note_on_c, 0, 78, 80
2, 26040, Note_on_c, 0, 78, 0
2, 26040, Note_on_c, 0, 74, 80
2, 26100, Note_on_c, 0, 74, 0
2, 26100, Note_on_c, 0, 69, 80
2, 26160, Note_on_c, 0, 69, 0
2, 26160, Note_on_c, 0, 68, 80
2, 26220, Note_on_c, 0, 68, 0
2, 26220, Note_on_c, 0, 69, 80
2, 26280, Note_on_c, 0, 69, 0
2, 26280, Note_on_c, 0, 71, 80
2, 26340, Note_on_c, 0, 71, 0
2, 26340, Note_on_c, 0, 69, 80
2, 26400, Note_on_c, 0, 69, 0
2, 26400, Note_on_c, 0, 81, 80
2, 26460, Note_on_c, 0, 81, 0
2, 26460, Note_on_c, 0, 78, 80
2, 26520, Note_on_c, 0, 78, 0
2, 26520, Note_on_c, 0, 74, 80
2, 26580, Note_on_c, 0, 74, 0
2, 26580, Note_on_c, 0, 69, 80
2, 26640, Note_on_c, 0, 69, 0
2, 26640, Note_on_c, 0, 71, 80
2, 26700, Note_on_c, 0, 71, 0
2, 26700, Note_on_c, 0, 76, 78
2, 26760, Note_on_c, 0, 76, 0
2, 26760, Note_on_c, 0, 79, 76
2, 26820, Note_on_c, 0, 79, 0
2, 26820, Note_on_c, 0, 83, 74
2, 26880, Note_on_c, 0, 83, 0
2, 26880, Note_on_c, 0, 83, 72
2, 26940, Note_on_c, 0, 83, 0
2, 26940, Note_on_c, 0, 81, 70
2, 27000, Note_on_c, 0, 81, 0
2, 27000, Note_on_c, 0, 79, 68
2, 27060, Note_on_c, 0, 79, 0
2, 27060, Note_on_c, 0, 78, 66
2, 27120, Note_on_c, 0, 78, 0
2, 27120, Note_on_c, 0, 78, 64
2, 27180, Note_on_c, 0, 78, 0
2, 27180, Note_on_c, 0, 76, 62
2, 27240, Note_on_c, 0, 76, 0
2, 27240, Note_on_c, 0, 74, 60
2, 27300, Note_on_c, 0, 74, 0
2, 27300, Note_on_c, 0, 73, 58
2, 27360, Note_on_c, 0, 73, 0
2, 27480, Note_on_c, 0, 74, 48
2, 27540, Note_on_c, 0, 74, 0
2, 27600, Note_on_c, 0, 73, 48
2, 27660, Note_on_c, 0, 73, 0
2, 27720, Note_on_c, 0, 74, 48
2, 27780, Note_on_c, 0, 74, 0
2, 27840, Note_on_c, 0, 86, 90
2, 27840, Note_on_c, 0, 83, 90
2, 27960, Note_on_c, 0, 83, 0
2, 27960, Note_on_c, 0, 86, 0
2, 27960, Note_on_c, 0, 85, 72
2, 27960, Note_on_c, 0, 81, 72
2, 28020, Note_on_c, 0, 81, 0
2, 28020, Note_on_c, 0, 85, 0
2, 28080, Note_on_c, 0, 84, 90
2, 28080, Note_on_c, 0, 81, 90
2, 28200, Note_on_c, 0, 81, 0
2, 28200, Note_on_c, 0, 84, 0
2, 28200, Note_on_c, 0, 83, 72
2, 28200, Note_on_c, 0, 79, 72
2, 28260, Note_on_c, 0, 79, 0
2, 28260, Note_on_c, 0, 83, 0
2, 28320, Note_on_c, 0, 80, 90
2, 28320, Note_on_c, 0, 77, 90
2, 28440, Note_on_c, 0, 77, 0
2, 28440, Note_on_c, 0, 80, 0
2, 28440, Note_on_c, 0, 81, 72
2, 28440, Note_on_c, 0, 76, 72
2, 28500, Note_on_c, 0, 76, 0
2, 28500, Note_on_c, 0, 81, 0
2, 28560, Note_on_c, 0, 78, 90
2, 28560, Note_on_c, 0, 75, 90
2, 28680, Note_on_c, 0, 75, 0
2, 28680, Note_on_c, 0, 78, 0
2, 28680, Note_on_c, 0, 79, 72
2, 28680, Note_on_c, 0, 74, 72
2, 28740, Note_on_c, 0, 74, 0
2, 28740, Note_on_c, 0, 79, 0
2, 28800, Note_on_c, 0, 79, 80
2, 28860, Note_on_c, 0, 79, 0
2, 28860, Note_on_c, 0, 76, 80
2, 28890, Note_on_c, 0, 76, 0
2, 28920, Note_on_c, 0, 73, 80
2, 28950, Note_on_c, 0, 73, 0
2, 28980, Note_on_c, 0, 69, 80
2, 29010, Note_on_c, 0, 69, 0
2, 29040, Note_on_c, 0, 68, 80
2, 29100, Note_on_c, 0, 68, 0
2, 29100, Note_on_c, 0, 69, 80
2, 29130, Note_on_c, 0, 69, 0
2, 29160, Note_on_c, 0, 71, 80
2, 29190, Note_on_c, 0, 71, 0
2, 29220, Note_on_c, 0, 69, 80
2, 29250, Note_on_c, 0, 69, 0
2, 29280, Note_on_c, 0, 79, 80
2, 29340, Note_on_c, 0, 79, 0
2, 29340, Note_on_c, 0, 76, 80
2, 29370, Note_on_c, 0, 76, 0
2, 29400, Note_on_c, 0, 73, 80
2, 29430, Note_on_c, 0, 73, 0
2, 29460, Note_on_c, 0, 69, 80
2, 29490, Note_on_c, 0, 69, 0
2, 29520, Note_on_c, 0, 81, 80
2, 29580, Note_on_c, 0, 81, 0
2, 29580, Note_on_c, 0, 78, 80
2, 29604, Note_on_c, 0, 78, 0
2, 29640, Note_on_c, 0, 74, 80
2, 29664, Note_on_c, 0, 74, 0
2, 29700, Note_on_c, 0, 69, 80
2, 29724, Note_on_c, 0, 69, 0
2, 29760, Note_on_c, 0, 68, 80
2, 29820, Note_on_c, 0, 68, 0
2, 29820, Note_on_c, 0, 69, 80
2, 29844, Note_on_c, 0, 69, 0
2, 29880, Note_on_c, 0, 71, 80
2, 29904, Note_on_c, 0, 71, 0
2, 29940, Note_on_c, 0, 69, 80
2, 29964, Note_on_c, 0, 69, 0
2, 30000, Note_on_c, 0, 81, 80
2, 30060, Note_on_c, 0, 81, 0
2, 30060, Note_on_c, 0, 78, 80
2, 30084, Note_on_c, 0, 78, 0
2, 30120, Note_on_c, 0, 74, 80
2, 30144, Note_on_c, 0, 74, 0
2, 30180, Note_on_c, 0, 69, 80
2, 30204, Note_on_c, 0, 69, 0
2, 30240, Note_on_c, 0, 71, 80
2, 30300, Note_on_c, 0, 71, 0
2, 30300, Note_on_c, 0, 76, 80
2, 30330, Note_on_c, 0, 76, 0
2, 30360, Note_on_c, 0, 79, 80
2, 30390, Note_on_c, 0, 79, 0
2, 30420, Note_on_c, 0, 83, 80
2, 30450, Note_on_c, 0, 83, 0
2, 30480, Note_on_c, 0, 83, 80
2, 30540, Note_on_c, 0, 83, 0
2, 30540, Note_on_c, 0, 81, 80
2, 30600, Note_on_c, 0, 81, 0
2, 30600, Note_on_c, 0, 79, 80
2, 30660, Note_on_c, 0, 79, 0
2, 30660, Note_on_c, 0, 78, 80
2, 30720, Note_on_c, 0, 78, 0
2, 30720, Note_on_c, 0, 78, 80
2, 30780, Note_on_c, 0, 78, 0
2, 30780, Note_on_c, 0, 76, 80
2, 30840, Note_on_c, 0, 76, 0
2, 30840, Note_on_c, 0, 74, 80
2, 30900, Note_on_c, 0, 74, 0
2, 30900, Note_on_c, 0, 73, 80
2, 30960, Note_on_c, 0, 73, 0
2, 30960, Note_on_c, 0, 74, 80
2, 31020, Note_on_c, 0, 74, 0
2, 31080, Note_on_c, 0, 74, 80
2, 31140, Note_on_c, 0, 74, 0
2, 31140, Note_on_c, 0, 78, 80
2, 31200, Note_on_c, 0, 78, 0
2, 31200, Note_on_c, 0, 76, 80
2, 31260, Note_on_c, 0, 76, 0
2, 31260, Note_on_c, 0, 79, 80
2, 31320, Note_on_c, 0, 79, 0
2, 31320, Note_on_c, 0, 78, 80
2, 31380, Note_on_c, 0, 78, 0
2, 31380, Note_on_c, 0, 81, 80
2, 31440, Note_on_c, 0, 81, 0
2, 31440, Note_on_c, 0, 79, 80
2, 31470, Note_on_c, 0, 79, 0
2, 31470, Note_on_c, 0, 81, 80
2, 31500, Note_on_c, 0, 81, 0
2, 31500, Note_on_c, 0, 79, 80
2, 31530, Note_on_c, 0, 79, 0
2, 31530, Note_on_c, 0, 81, 80
2, 31560, Note_on_c, 0, 81, 0
2, 31560, Note_on_c, 0, 79, 80
2, 31580, Note_on_c, 0, 79, 0
2, 31580, Note_on_c, 0, 81, 80
2, 31600, Note_on_c, 0, 81, 0
2, 31600, Note_on_c, 0, 79, 80
2, 31620, Note_on_c, 0, 79, 0
2, 31620, Note_on_c, 0, 78, 80
2, 31650, Note_on_c, 0, 78, 0
2, 31650, Note_on_c, 0, 79, 80
2, 31680, Note_on_c, 0, 79, 0
2, 31680, Note_on_c, 0, 78, 80
2, 31740, Note_on_c, 0, 78, 0
2, 31800, Note_on_c, 0, 74, 48
2, 31848, Note_on_c, 0, 74, 0
2, 31860, Note_on_c, 0, 78, 48
2, 31908, Note_on_c, 0, 78, 0
2, 31920, Note_on_c, 0, 76, 48
2, 31968, Note_on_c, 0, 76, 0
2, 31980, Note_on_c, 0, 79, 48
2, 32028, Note_on_c, 0, 79, 0
2, 32040, Note_on_c, 0, 78, 48
2, 32088, Note_on_c, 0, 78, 0
2, 32100, Note_on_c, 0, 81, 48
2, 32148, Note_on_c, 0, 81, 0
2, 32160, Note_on_c, 0, 79, 48
2, 32190, Note_on_c, 0, 79, 0
2, 32190, Note_on_c, 0, 81, 48
2, 32220, Note_on_c, 0, 81, 0
2, 32220, Note_on_c, 0, 79, 48
2, 32250, Note_on_c, 0, 79, 0
2, 32250, Note_on_c, 0, 81, 48
2, 32280, Note_on_c, 0, 81, 0
2, 32280, Note_on_c, 0, 79, 48
2, 32300, Note_on_c, 0, 79, 0
2, 32300, Note_on_c, 0, 81, 48
2, 32320, Note_on_c, 0, 81, 0
2, 32320, Note_on_c, 0, 79, 48
2, 32340, Note_on_c, 0, 79, 0
2, 32340, Note_on_c, 0, 78, 48
2, 32370, Note_on_c, 0, 78, 0
2, 32370, Note_on_c, 0, 79, 48
2, 32400, Note_on_c, 0, 79, 0
2, 32400, Note_on_c, 0, 78, 48
2, 32520, Note_on_c, 0, 83, 48
2, 32640, Note_on_c, 0, 78, 0
2, 32640, Note_on_c, 0, 76, 48
2, 32760, Note_on_c, 0, 83, 0
2, 32760, Note_on_c, 0, 81, 48
2, 32880, Note_on_c, 0, 76, 0
2, 32880, Note_on_c, 0, 74, 48
2, 33000, Note_on_c, 0, 81, 0
2, 33000, Note_on_c, 0, 79, 48
2, 33120, Note_on_c, 0, 74, 0
2, 33120, Note_on_c, 0, 73, 48
2, 33240, Note_on_c, 0, 79, 0
2, 33240, Note_on_c, 0, 78, 48
2, 33360, Note_on_c, 0, 73, 0
2, 33360, Note_on_c, 0, 71, 48
2, 33480, Note_on_c, 0, 78, 0
2, 33480, Note_on_c, 0, 76, 48
2, 33600, Note_on_c, 0, 71, 0
2, 33600, Note_on_c, 0, 69, 48
2, 33720, Note_on_c, 0, 76, 0
2, 33720, Note_on_c, 0, 74, 48
2, 33840, Note_on_c, 0, 74, 0
2, 33840, Note_on_c, 0, 69, 0
2, 33840, Note_on_c, 0, 71, 64
2, 33840, Note_on_c, 0, 75, 64
2, 33936, Note_on_c, 0, 75, 0
2, 33960, Note_on_c, 0, 76, 56
2, 34020, Note_on_c, 0, 76, 0
2, 34020, Note_on_c, 0, 71, 0
2, 34200, Note_on_c, 0, 71, 56
2, 34200, Note_on_c, 0, 79, 56
2, 34236, Note_on_c, 0, 79, 0
2, 34236, Note_on_c, 0, 71, 0
2, 34320, Note_on_c, 0, 67, 56
2, 34320, Note_on_c, 0, 76, 56
2, 34356, Note_on_c, 0, 76, 0
2, 34356, Note_on_c, 0, 67, 0
2, 34440, Note_on_c, 0, 64, 56
2, 34440, Note_on_c, 0, 73, 56
2, 34560, Note_on_c, 0, 73, 0
2, 34560, Note_on_c, 0, 64, 0
2, 34560, Note_on_c, 0, 78, 80
2, 34620, Note_on_c, 0, 80, 80
2, 34680, Note_on_c, 0, 80, 0
2, 34680, Note_on_c, 0, 82, 80
2, 34740, Note_on_c, 0, 82, 0
2, 34740, Note_on_c, 0, 83, 80
2, 34800, Note_on_c, 0, 83, 0
2, 34800, Note_on_c, 0, 78, 0
2, 34800, Note_on_c, 0, 76, 80
2, 34860, Note_on_c, 0, 83, 80
2, 34920, Note_on_c, 0, 83, 0
2, 34920, Note_on_c, 0, 80, 80
2, 34980, Note_on_c, 0, 80, 0
2, 34980, Note_on_c, 0, 81, 80
2, 35040, Note_on_c, 0, 81, 0
2, 35040, Note_on_c, 0, 76, 0
2, 35040, Note_on_c, 0, 74, 80
2, 35100, Note_on_c, 0, 76, 80
2, 35160, Note_on_c, 0, 76, 0
2, 35160, Note_on_c, 0, 78, 80
2, 35220, Note_on_c, 0, 78, 0
2, 35220, Note_on_c, 0, 79, 80
2, 35280, Note_on_c, 0, 79, 0
2, 35280, Note_on_c, 0, 74, 0
2, 35280, Note_on_c, 0, 73, 80
2, 35340, Note_on_c, 0, 79, 80
2, 35400, Note_on_c, 0, 79, 0
2, 35400, Note_on_c, 0, 77, 80
2, 35460, Note_on_c, 0, 77, 0
2, 35460, Note_on_c, 0, 78, 80
2, 35520, Note_on_c, 0, 78, 0
2, 35520, Note_on_c, 0, 73, 0
2, 35520, Note_on_c, 0, 71, 80
2, 35580, Note_on_c, 0, 73, 80
2, 35640, Note_on_c, 0, 73, 0
2, 35640, Note_on_c, 0, 75, 80
2, 35700, Note_on_c, 0, 75, 0
2, 35700, Note_on_c, 0, 76, 80
2, 35760, Note_on_c, 0, 76, 0
2, 35760, Note_on_c, 0, 71, 0
2, 35760, Note_on_c, 0, 69, 80
2, 35820, Note_on_c, 0, 76, 80
2, 35880, Note_on_c, 0, 76, 0
2, 35880, Note_on_c, 0, 73, 80
2, 35940, Note_on_c, 0, 73, 0
2, 35940, Note_on_c, 0, 74, 80
2, 36000, Note_on_c, 0, 74, 0
2, 36000, Note_on_c, 0, 69, 0
2, 36000, Note_on_c, 0, 76, 80
2, 36060, Note_on_c, 0, 76, 0
2, 36060, Note_on_c, 0, 79, 80
2, 36120, Note_on_c, 0, 79, 0
2, 36120, Note_on_c, 0, 83, 80
2, 36180, Note_on_c, 0, 83, 0
2, 36180, Note_on_c, 0, 79, 80
2, 36240, Note_on_c, 0, 79, 0
2, 36240, Note_on_c, 0, 78, 80
2, 36300, Note_on_c, 0, 78, 0
2, 36300, Note_on_c, 0, 81, 80
2, 36360, Note_on_c, 0, 81, 0
2, 36360, Note_on_c, 0, 74, 80
2, 36420, Note_on_c, 0, 74, 0
2, 36420, Note_on_c, 0, 78, 80
2, 36480, Note_on_c, 0, 78, 0
2, 36480, Note_on_c, 0, 76, 80
2, 36540, Note_on_c, 0, 76, 0
2, 36540, Note_on_c, 0, 79, 80
2, 36600, Note_on_c, 0, 79, 0
2, 36600, Note_on_c, 0, 73, 80
2, 36660, Note_on_c, 0, 73, 0
2, 36660, Note_on_c, 0, 76, 80
2, 36720, Note_on_c, 0, 76, 0
2, 36720, Note_on_c, 0, 74, 80
2, 36912, Note_on_c, 0, 74, 0
2, 37080, Note_on_c, 0, 66, 80
2, 37080, Note_on_c, 0, 69, 80
2, 37080, Note_on_c, 0, 72, 80
2, 37116, Note_on_c, 0, 72, 0
2, 37116, Note_on_c, 0, 69, 0
2, 37116, Note_on_c, 0, 66, 0
2, 37200, Note_on_c, 0, 67, 80
2, 37200, Note_on_c, 0, 71, 80
2, 37236, Note_on_c, 0, 71, 0
2, 37236, Note_on_c, 0, 67, 0
2, 37320, Note_on_c, 0, 64, 80
2, 37320, Note_on_c, 0, 67, 80
2, 37320, Note_on_c, 0, 73, 80
2, 37440, Note_on_c, 0, 73, 0
2, 37440, Note_on_c, 0, 67, 0
2, 37440, Note_on_c, 0, 64, 0
2, 37440, Note_on_c, 0, 66, 80
2, 37440, Note_on_c, 0, 69, 80
2, 37440, Note_on_c, 0, 74, 80
2, 37680, Note_on_c, 0, 74, 0
2, 37680, Note_on_c, 0, 69, 0
2, 37680, Note_on_c, 0, 66, 0
2, 37800, Note_on_c, 0, 78, 80
2, 37800, Note_on_c, 0, 81, 80
2, 37800, Note_on_c, 0, 84, 80
2, 37836, Note_on_c, 0, 84, 0
2, 37836, Note_on_c, 0, 81, 0
2, 37836, Note_on_c, 0, 78, 0
2, 37920, Note_on_c, 0, 83, 80
2, 37920, Note_on_c, 0, 79, 80
2, 37956, Note_on_c, 0, 79, 0
2, 37956, Note_on_c, 0, 83, 0
2, 38040, Note_on_c, 0, 85, 80
2, 38040, Note_on_c, 0, 79, 80
2, 38040, Note_on_c, 0, 76, 80
2, 38160, Note_on_c, 0, 76, 0
2, 38160, Note_on_c, 0, 79, 0
2, 38160, Note_on_c, 0, 85, 0
2, 38160, Note_on_c, 0, 86, 80
2, 38160, Note_on_c, 0, 81, 80
2, 38160, Note_on_c, 0, 78, 80
2, 38400, Note_on_c, 0, 78, 0
2, 38400, Note_on_c, 0, 81, 0
2, 38400, Note_on_c, 0, 86, 0
2, 38820, Note_on_c, 0, 80, 56
2, 38880, Note_on_c, 0, 80, 0
2, 38880, Note_on_c, 0, 81, 56
2, 38952, Note_on_c, 0, 81, 0
2, 39600, Note_on_c, 0, 79, 64
2, 39660, Note_on_c, 0, 79, 0
2, 39660, Note_on_c, 0, 78, 56
2, 39720, Note_on_c, 0, 78, 0
2, 39720, Note_on_c, 0, 76, 56
2, 39780, Note_on_c, 0, 76, 0
2, 39780, Note_on_c, 0, 74, 56
2, 39840, Note_on_c, 0, 74, 0
2, 39840, Note_on_c, 0, 73, 56
2, 40080, Note_on_c, 0, 73, 0
2, 40260, Note_on_c, 0, 74, 56
2, 40320, Note_on_c, 0, 74, 0
2, 40320, Note_on_c, 0, 86, 64
2, 40416, Note_on_c, 0, 86, 0
2, 41040, Note_on_c, 0, 76, 56
2, 41328, Note_on_c, 0, 76, 0
2, 41340, Note_on_c, 0, 78, 60
2, 41388, Note_on_c, 0, 78, 0
2, 41400, Note_on_c, 0, 79, 64
2, 41448, Note_on_c, 0, 79, 0
2, 41460, Note_on_c, 0, 78, 68
2, 41508, Note_on_c, 0, 78, 0
2, 41520, Note_on_c, 0, 81, 72
2, 41568, Note_on_c, 0, 81, 0
2, 41580, Note_on_c, 0, 79, 68
2, 41628, Note_on_c, 0, 79, 0
2, 41640, Note_on_c, 0, 78, 64
2, 41688, Note_on_c, 0, 78, 0
2, 41700, Note_on_c, 0, 76, 60
2, 41748, Note_on_c, 0, 76, 0
2, 41760, Note_on_c, 0, 80, 56
2, 41808, Note_on_c, 0, 80, 0
2, 41820, Note_on_c, 0, 81, 56
2, 41868, Note_on_c, 0, 81, 0
2, 41880, Note_on_c, 0, 80, 56
2, 41928, Note_on_c, 0, 80, 0
2, 41940, Note_on_c, 0, 81, 56
2, 41988, Note_on_c, 0, 81, 0
2, 42000, Note_on_c, 0, 83, 56
2, 42096, Note_on_c, 0, 83, 0
2, 42120, Note_on_c, 0, 81, 56
2, 42180, Note_on_c, 0, 81, 0
2, 42480, Note_on_c, 0, 81, 72
2, 42528, Note_on_c, 0, 81, 0
2, 42540, Note_on_c, 0, 79, 71
2, 42588, Note_on_c, 0, 79, 0
2, 42600, Note_on_c, 0, 78, 69
2, 42648, Note_on_c, 0, 78, 0
2, 42660, Note_on_c, 0, 76, 68
2, 42708, Note_on_c, 0, 76, 0
2, 42720, Note_on_c, 0, 74, 67
2, 42912, Note_on_c, 0, 74, 0
2, 42960, Note_on_c, 0, 73, 61
2, 43056, Note_on_c, 0, 73, 0
2, 43200, Note_on_c, 0, 85, 48
2, 43248, Note_on_c, 0, 85, 0
2, 43260, Note_on_c, 0, 86, 49
2, 43308, Note_on_c, 0, 86, 0
2, 43320, Note_on_c, 0, 85, 49
2, 43368, Note_on_c, 0, 85, 0
2, 43380, Note_on_c, 0, 86, 50
2, 43428, Note_on_c, 0, 86, 0
2, 43440, Note_on_c, 0, 88, 51
2, 43536, Note_on_c, 0, 88, 0
2, 43560, Note_on_c, 0, 86, 52
2, 43620, Note_on_c, 0, 86, 0
2, 43860, Note_on_c, 0, 86, 55
2, 43908, Note_on_c, 0, 86, 0
2, 43920, Note_on_c, 0, 76, 64
2, 44208, Note_on_c, 0, 76, 0
2, 44220, Note_on_c, 0, 75, 71
2, 44268, Note_on_c, 0, 75, 0
2, 44280, Note_on_c, 0, 76, 72
2, 44328, Note_on_c, 0, 76, 0
2, 44340, Note_on_c, 0, 78, 73
2, 44388, Note_on_c, 0, 78, 0
2, 44400, Note_on_c, 0, 81, 75
2, 44448, Note_on_c, 0, 81, 0
2, 44460, Note_on_c, 0, 79, 76
2, 44508, Note_on_c, 0, 79, 0
2, 44520, Note_on_c, 0, 78, 77
2, 44568, Note_on_c, 0, 78, 0
2, 44580, Note_on_c, 0, 76, 79
2, 44628, Note_on_c, 0, 76, 0
2, 44640, Note_on_c, 0, 74, 80
2, 44832, Note_on_c, 0, 74, 0
2, 45000, Note_on_c, 0, 76, 48
2, 45040, Note_on_c, 0, 76, 0
2, 45040, Note_on_c, 0, 74, 48
2, 45080, Note_on_c, 0, 74, 0
2, 45080, Note_on_c, 0, 73, 48
2, 45120, Note_on_c, 0, 73, 0
2, 45120, Note_on_c, 0, 74, 48
2, 45180, Note_on_c, 0, 74, 0
2, 45240, Note_on_c, 0, 74, 48
2, 45300, Note_on_c, 0, 74, 0
2, 45360, Note_on_c, 0, 79, 48
2, 45360, Note_on_c, 0, 83, 48
2, 45420, Note_on_c, 0, 83, 0
2, 45420, Note_on_c, 0, 79, 0
2, 45480, Note_on_c, 0, 78, 53
2, 45480, Note_on_c, 0, 81, 53
2, 45540, Note_on_c, 0, 81, 0
2, 45540, Note_on_c, 0, 78, 0
2, 45600, Note_on_c, 0, 76, 59
2, 45600, Note_on_c, 0, 79, 59
2, 45660, Note_on_c, 0, 79, 0
2, 45660, Note_on_c, 0, 76, 0
2, 45720, Note_on_c, 0, 74, 64
2, 45720, Note_on_c, 0, 78, 64
2, 45780, Note_on_c, 0, 78, 0
2, 45780, Note_on_c, 0, 74, 0
2, 45840, Note_on_c, 0, 72, 69
2, 45840, Note_on_c, 0, 76, 69
2, 45900, Note_on_c, 0, 76, 0
2, 45900, Note_on_c, 0, 72, 0
2, 45960, Note_on_c, 0, 71, 75
2, 45960, Note_on_c, 0, 74, 75
2, 46020, Note_on_c, 0, 74, 0
2, 46020, Note_on_c, 0, 71, 0
2, 46080, Note_on_c, 0, 69, 80
2, 46080, Note_on_c, 0, 72, 80
2, 46320, Note_on_c, 0, 72, 0
2, 46320, Note_on_c, 0, 69, 0
2, 46440, Note_on_c, 0, 74, 48
2, 46480, Note_on_c, 0, 74, 0
2, 46480, Note_on_c, 0, 72, 48
2, 46520, Note_on_c, 0, 72, 0
2, 46520, Note_on_c, 0, 71, 48
2, 46560, Note_on_c, 0, 71, 0
2, 46560, Note_on_c, 0, 72, 48
2, 46620, Note_on_c, 0, 72, 0
2, 46680, Note_on_c, 0, 72, 48
2, 46740, Note_on_c, 0, 72, 0
2, 46800, Note_on_c, 0, 78, 56
2, 46800, Note_on_c, 0, 81, 56
2, 46860, Note_on_c, 0, 81, 0
2, 46860, Note_on_c, 0, 78, 0
2, 46920, Note_on_c, 0, 76, 53
2, 46920, Note_on_c, 0, 79, 53
2, 46980, Note_on_c, 0, 79, 0
2, 46980, Note_on_c, 0, 76, 0
2, 47040, Note_on_c, 0, 74, 59
2, 47040, Note_on_c, 0, 78, 59
2, 47100, Note_on_c, 0, 78, 0
2, 47100, Note_on_c, 0, 74, 0
2, 47160, Note_on_c, 0, 72, 64
2, 47160, Note_on_c, 0, 76, 64
2, 47220, Note_on_c, 0, 76, 0
2, 47220, Note_on_c, 0, 72, 0
2, 47280, Note_on_c, 0, 71, 69
2, 47280, Note_on_c, 0, 74, 69
2, 47340, Note_on_c, 0, 74, 0
2, 47340, Note_on_c, 0, 71, 0
2, 47400, Note_on_c, 0, 69, 75
2, 47400, Note_on_c, 0, 72, 75
2, 47460, Note_on_c, 0, 72, 0
2, 47460, Note_on_c, 0, 69, 0
2, 47520, Note_on_c, 0, 67, 80
2, 47520, Note_on_c, 0, 71, 80
2, 47760, Note_on_c, 0, 71, 0
2, 47760, Note_on_c, 0, 67, 0
2, 47880, Note_on_c, 0, 72, 48
2, 47920, Note_on_c, 0, 72, 0
2, 47920, Note_on_c, 0, 71, 48
2, 47960, Note_on_c, 0, 71, 0
2, 47960, Note_on_c, 0, 69, 48
2, 48000, Note_on_c, 0, 69, 0
2, 48000, Note_on_c, 0, 71, 48
2, 48060, Note_on_c, 0, 71, 0
2, 48120, Note_on_c, 0, 71, 48
2, 48180, Note_on_c, 0, 71, 0
2, 48240, Note_on_c, 0, 71, 48
2, 48240, Note_on_c, 0, 79, 48
2, 48360, Note_on_c, 0, 79, 0
2, 48360, Note_on_c, 0, 71, 0
2, 48360, Note_on_c, 0, 69, 53
2, 48360, Note_on_c, 0, 78, 53
2, 48408, Note_on_c, 0, 78, 0
2, 48408, Note_on_c, 0, 69, 0
2, 48480, Note_on_c, 0, 72, 59
2, 48480, Note_on_c, 0, 76, 59
2, 48600, Note_on_c, 0, 76, 0
2, 48600, Note_on_c, 0, 72, 0
2, 48600, Note_on_c, 0, 71, 64
2, 48600, Note_on_c, 0, 74, 64
2, 48648, Note_on_c, 0, 74, 0
2, 48648, Note_on_c, 0, 71, 0
2, 48720, Note_on_c, 0, 69, 69
2, 48720, Note_on_c, 0, 72, 69
2, 48840, Note_on_c, 0, 72, 0
2, 48840, Note_on_c, 0, 69, 0
2, 48840, Note_on_c, 0, 67, 75
2, 48840, Note_on_c, 0, 71, 75
2, 48960, Note_on_c, 0, 71, 0
2, 48960, Note_on_c, 0, 67, 0
2, 48960, Note_on_c, 0, 66, 80
2, 48960, Note_on_c, 0, 69, 80
2, 49200, Note_on_c, 0, 69, 0
2, 49200, Note_on_c, 0, 66, 0
2, 49320, Note_on_c, 0, 62, 80
2, 49368, Note_on_c, 0, 62, 0
2, 49380, Note_on_c, 0, 64, 80
2, 49428, Note_on_c, 0, 64, 0
2, 49440, Note_on_c, 0, 66, 80
2, 49476, Note_on_c, 0, 66, 0
2, 49560, Note_on_c, 0, 67, 80
2, 49596, Note_on_c, 0, 67, 0
2, 49680, Note_on_c, 0, 69, 90
2, 49872, Note_on_c, 0, 69, 0
2, 50040, Note_on_c, 0, 66, 40
2, 50088, Note_on_c, 0, 66, 0
2, 50100, Note_on_c, 0, 67, 40
2, 50148, Note_on_c, 0, 67, 0
2, 50160, Note_on_c, 0, 69, 40
2, 50196, Note_on_c, 0, 69, 0
2, 50280, Note_on_c, 0, 71, 40
2, 50316, Note_on_c, 0, 71, 0
2, 50400, Note_on_c, 0, 72, 40
2, 50592, Note_on_c, 0, 72, 0
2, 50760, Note_on_c, 0, 84, 40
2, 50820, Note_on_c, 0, 84, 0
2, 50820, Note_on_c, 0, 83, 40
2, 50880, Note_on_c, 0, 83, 0
2, 50880, Note_on_c, 0, 81, 40
2, 50928, Note_on_c, 0, 81, 0
2, 51000, Note_on_c, 0, 81, 40
2, 51060, Note_on_c, 0, 81, 0
2, 51060, Note_on_c, 0, 79, 40
2, 51120, Note_on_c, 0, 79, 0
2, 51120, Note_on_c, 0, 78, 40
2, 51168, Note_on_c, 0, 78, 0
2, 51240, Note_on_c, 0, 78, 43
2, 51300, Note_on_c, 0, 78, 0
2, 51300, Note_on_c, 0, 76, 44
2, 51360, Note_on_c, 0, 76, 0
2, 51360, Note_on_c, 0, 74, 45
2, 51408, Note_on_c, 0, 74, 0
2, 51480, Note_on_c, 0, 74, 48
2, 51540, Note_on_c, 0, 74, 0
2, 51540, Note_on_c, 0, 73, 49
2, 51600, Note_on_c, 0, 73, 0
2, 51600, Note_on_c, 0, 74, 51
2, 51780, Note_on_c, 0, 74, 0
2, 51780, Note_on_c, 0, 71, 55
2, 51840, Note_on_c, 0, 71, 0
2, 51840, Note_on_c, 0, 74, 56
2, 52032, Note_on_c, 0, 74, 0
2, 52320, Note_on_c, 0, 67, 56
2, 52560, Note_on_c, 0, 67, 0
2, 52560, Note_on_c, 0, 66, 56
2, 52680, Note_on_c, 0, 66, 0
2, 53040, Note_on_c, 0, 81, 56
2, 53220, Note_on_c, 0, 81, 0
2, 53220, Note_on_c, 0, 78, 56
2, 53280, Note_on_c, 0, 78, 0
2, 53280, Note_on_c, 0, 81, 56
2, 53472, Note_on_c, 0, 81, 0
2, 53760, Note_on_c, 0, 72, 56
2, 53952, Note_on_c, 0, 72, 0
2, 54000, Note_on_c, 0, 71, 56
2, 54096, Note_on_c, 0, 71, 0
2, 54480, Note_on_c, 0, 76, 56
2, 54660, Note_on_c, 0, 76, 0
2, 54660, Note_on_c, 0, 72, 56
2, 54720, Note_on_c, 0, 72, 0
2, 54720, Note_on_c, 0, 76, 56
2, 54912, Note_on_c, 0, 76, 0
2, 55200, Note_on_c, 0, 69, 56
2, 55440, Note_on_c, 0, 69, 0
2, 55440, Note_on_c, 0, 68, 56
2, 55560, Note_on_c, 0, 68, 0
2, 55920, Note_on_c, 0, 83, 56
2, 56100, Note_on_c, 0, 83, 0
2, 56100, Note_on_c, 0, 80, 56
2, 56160, Note_on_c, 0, 80, 0
2, 56160, Note_on_c, 0, 83, 56
2, 56352, Note_on_c, 0, 83, 0
2, 56640, Note_on_c, 0, 74, 56
2, 56832, Note_on_c, 0, 74, 0
2, 56880, Note_on_c, 0, 72, 56
2, 56976, Note_on_c, 0, 72, 0
2, 57360, Note_on_c, 0, 84, 48
2, 57504, Note_on_c, 0, 84, 0
2, 57540, Note_on_c, 0, 81, 48
2, 57588, Note_on_c, 0, 81, 0
2, 57600, Note_on_c, 0, 79, 48
2, 57696, Note_on_c, 0, 79, 0
2, 57720, Note_on_c, 0, 77, 48
2, 57816, Note_on_c, 0, 77, 0
2, 57840, Note_on_c, 0, 77, 48
2, 58032, Note_on_c, 0, 77, 0
2, 58080, Note_on_c, 0, 77, 48
2, 58272, Note_on_c, 0, 77, 0
2, 58320, Note_on_c, 0, 75, 56
2, 58512, Note_on_c, 0, 75, 0
2, 58560, Note_on_c, 0, 76, 48
2, 58752, Note_on_c, 0, 76, 0
2, 58800, Note_on_c, 0, 84, 48
2, 58944, Note_on_c, 0, 84, 0
2, 58980, Note_on_c, 0, 79, 48
2, 59028, Note_on_c, 0, 79, 0
2, 59040, Note_on_c, 0, 76, 48
2, 59232, Note_on_c, 0, 76, 0
2, 59280, Note_on_c, 0, 76, 48
2, 59328, Note_on_c, 0, 76, 0
2, 59340, Note_on_c, 0, 79, 48
2, 59364, Note_on_c, 0, 79, 0
2, 59400, Note_on_c, 0, 78, 48
2, 59424, Note_on_c, 0, 78, 0
2, 59460, Note_on_c, 0, 79, 48
2, 59484, Note_on_c, 0, 79, 0
2, 59520, Note_on_c, 0, 81, 48
2, 59568, Note_on_c, 0, 81, 0
2, 59580, Note_on_c, 0, 79, 48
2, 59628, Note_on_c, 0, 79, 0
2, 59640, Note_on_c, 0, 78, 48
2, 59688, Note_on_c, 0, 78, 0
2, 59700, Note_on_c, 0, 76, 48
2, 59748, Note_on_c, 0, 76, 0
2, 59760, Note_on_c, 0, 73, 56
2, 59856, Note_on_c, 0, 73, 0
2, 59880, Note_on_c, 0, 74, 48
2, 59976, Note_on_c, 0, 74, 0
2, 60120, Note_on_c, 0, 55, 56
2, 60180, Note_on_c, 0, 55, 0
2, 60180, Note_on_c, 0, 59, 56
2, 60240, Note_on_c, 0, 59, 0
2, 60240, Note_on_c, 0, 57, 56
2, 60300, Note_on_c, 0, 57, 0
2, 60300, Note_on_c, 0, 60, 56
2, 60360, Note_on_c, 0, 60, 0
2, 60360, Note_on_c, 0, 59, 56
2, 60420, Note_on_c, 0, 59, 0
2, 60420, Note_on_c, 0, 62, 56
2, 60480, Note_on_c, 0, 62, 0
2, 60480, Note_on_c, 0, 60, 72
2, 60600, Note_on_c, 0, 60, 0
2, 60840, Note_on_c, 0, 57, 56
2, 60888, Note_on_c, 0, 57, 0
2, 60900, Note_on_c, 0, 60, 56
2, 60948, Note_on_c, 0, 60, 0
2, 60960, Note_on_c, 0, 59, 56
2, 61008, Note_on_c, 0, 59, 0
2, 61020, Note_on_c, 0, 62, 56
2, 61068, Note_on_c, 0, 62, 0
2, 61080, Note_on_c, 0, 60, 56
2, 61128, Note_on_c, 0, 60, 0
2, 61140, Note_on_c, 0, 64, 56
2, 61188, Note_on_c, 0, 64, 0
2, 61200, Note_on_c, 0, 62, 80
2, 61320, Note_on_c, 0, 62, 0
2, 61560, Note_on_c, 0, 59, 40
2, 61620, Note_on_c, 0, 59, 0
2, 61620, Note_on_c, 0, 62, 40
2, 61680, Note_on_c, 0, 62, 0
2, 61680, Note_on_c, 0, 60, 40
2, 61740, Note_on_c, 0, 60, 0
2, 61740, Note_on_c, 0, 64, 40
2, 61800, Note_on_c, 0, 64, 0
2, 61800, Note_on_c, 0, 62, 40
2, 61860, Note_on_c, 0, 62, 0
2, 61860, Note_on_c, 0, 65, 40
2, 61920, Note_on_c, 0, 65, 0
2, 61920, Note_on_c, 0, 64, 48
2, 61980, Note_on_c, 0, 64, 0
2, 61980, Note_on_c, 0, 65, 42
2, 62040, Note_on_c, 0, 65, 0
2, 62040, Note_on_c, 0, 62, 44
2, 62100, Note_on_c, 0, 62, 0
2, 62100, Note_on_c, 0, 64, 46
2, 62160, Note_on_c, 0, 64, 0
2, 62160, Note_on_c, 0, 60, 48
2, 62220, Note_on_c, 0, 60, 0
2, 62220, Note_on_c, 0, 64, 50
2, 62280, Note_on_c, 0, 64, 0
2, 62280, Note_on_c, 0, 62, 52
2, 62340, Note_on_c, 0, 62, 0
2, 62340, Note_on_c, 0, 65, 54
2, 62400, Note_on_c, 0, 65, 0
2, 62400, Note_on_c, 0, 64, 56
2, 62460, Note_on_c, 0, 64, 0
2, 62460, Note_on_c, 0, 67, 58
2, 62520, Note_on_c, 0, 67, 0
2, 62520, Note_on_c, 0, 66, 60
2, 62580, Note_on_c, 0, 66, 0
2, 62580, Note_on_c, 0, 69, 62
2, 62640, Note_on_c, 0, 69, 0
2, 62640, Note_on_c, 0, 67, 72
2, 62700, Note_on_c, 0, 67, 0
2, 62700, Note_on_c, 0, 69, 65
2, 62760, Note_on_c, 0, 69, 0
2, 62760, Note_on_c, 0, 66, 67
2, 62820, Note_on_c, 0, 66, 0
2, 62820, Note_on_c, 0, 67, 68
2, 62880, Note_on_c, 0, 67, 0
2, 62880, Note_on_c, 0, 64, 69
2, 62940, Note_on_c, 0, 64, 0
2, 62940, Note_on_c, 0, 67, 71
2, 63000, Note_on_c, 0, 67, 0
2, 63000, Note_on_c, 0, 66, 72
2, 63060, Note_on_c, 0, 66, 0
2, 63060, Note_on_c, 0, 69, 73
2, 63120, Note_on_c, 0, 69, 0
2, 63120, Note_on_c, 0, 67, 75
2, 63180, Note_on_c, 0, 67, 0
2, 63180, Note_on_c, 0, 71, 76
2, 63240, Note_on_c, 0, 71, 0
2, 63240, Note_on_c, 0, 69, 77
2, 63300, Note_on_c, 0, 69, 0
2, 63300, Note_on_c, 0, 72, 79
2, 63360, Note_on_c, 0, 72, 0
2, 63360, Note_on_c, 0, 71, 80
2, 63420, Note_on_c, 0, 71, 0
2, 63420, Note_on_c, 0, 72, 81
2, 63480, Note_on_c, 0, 72, 0
2, 63480, Note_on_c, 0, 69, 83
2, 63540, Note_on_c, 0, 69, 0
2, 63540, Note_on_c, 0, 71, 84
2, 63600, Note_on_c, 0, 71, 0
2, 63600, Note_on_c, 0, 67, 85
2, 63660, Note_on_c, 0, 67, 0
2, 63660, Note_on_c, 0, 71, 87
2, 63720, Note_on_c, 0, 71, 0
2, 63720, Note_on_c, 0, 69, 88
2, 63780, Note_on_c, 0, 69, 0
2, 63780, Note_on_c, 0, 72, 89
2, 63840, Note_on_c, 0, 72, 0
2, 63840, Note_on_c, 0, 71, 91
2, 63900, Note_on_c, 0, 71, 0
2, 63900, Note_on_c, 0, 74, 92
2, 63960, Note_on_c, 0, 74, 0
2, 63960, Note_on_c, 0, 73, 93
2, 64020, Note_on_c, 0, 73, 0
2, 64020, Note_on_c, 0, 76, 95
2, 64080, Note_on_c, 0, 76, 0
2, 64080, Note_on_c, 0, 74, 90
2, 64224, Note_on_c, 0, 74, 0
2, 64240, Note_on_c, 0, 62, 90
2, 64272, Note_on_c, 0, 62, 0
2, 64280, Note_on_c, 0, 61, 90
2, 64312, Note_on_c, 0, 61, 0
2, 64320, Note_on_c, 0, 62, 90
2, 64512, Note_on_c, 0, 62, 0
2, 64920, Note_on_c, 0, 74, 48
2, 65160, Note_on_c, 0, 74, 0
2, 65160, Note_on_c, 0, 72, 48
2, 65400, Note_on_c, 0, 72, 0
2, 65400, Note_on_c, 0, 71, 48
2, 65640, Note_on_c, 0, 71, 0
2, 65640, Note_on_c, 0, 69, 48
2, 65880, Note_on_c, 0, 69, 0
2, 65880, Note_on_c, 0, 67, 48
2, 66120, Note_on_c, 0, 67, 0
2, 66120, Note_on_c, 0, 66, 48
2, 66240, Note_on_c, 0, 66, 0
2, 66240, Note_on_c, 0, 69, 48
2, 66300, Note_on_c, 0, 69, 0
2, 66300, Note_on_c, 0, 67, 49
2, 66480, Note_on_c, 0, 67, 0
2, 66480, Note_on_c, 0, 71, 64
2, 66540, Note_on_c, 0, 71, 0
2, 66540, Note_on_c, 0, 69, 55
2, 66720, Note_on_c, 0, 69, 0
2, 66720, Note_on_c, 0, 72, 72
2, 66780, Note_on_c, 0, 72, 0
2, 66780, Note_on_c, 0, 71, 60
2, 66960, Note_on_c, 0, 71, 0
2, 66960, Note_on_c, 0, 74, 80
2, 67140, Note_on_c, 0, 74, 0
2, 67140, Note_on_c, 0, 72, 60
2, 67200, Note_on_c, 0, 72, 0
2, 67200, Note_on_c, 0, 69, 59
2, 67440, Note_on_c, 0, 69, 0
2, 67800, Note_on_c, 0, 86, 48
2, 67860, Note_on_c, 0, 86, 0
2, 67860, Note_on_c, 0, 88, 48
2, 67920, Note_on_c, 0, 88, 0
2, 67920, Note_on_c, 0, 84, 48
2, 67956, Note_on_c, 0, 84, 0
2, 68040, Note_on_c, 0, 84, 48
2, 68100, Note_on_c, 0, 84, 0
2, 68100, Note_on_c, 0, 86, 48
2, 68160, Note_on_c, 0, 86, 0
2, 68160, Note_on_c, 0, 83, 48
2, 68196, Note_on_c, 0, 83, 0
2, 68280, Note_on_c, 0, 83, 48
2, 68340, Note_on_c, 0, 83, 0
2, 68340, Note_on_c, 0, 84, 48
2, 68400, Note_on_c, 0, 84, 0
2, 68400, Note_on_c, 0, 81, 48
2, 68436, Note_on_c, 0, 81, 0
2, 68520, Note_on_c, 0, 81, 48
2, 68580, Note_on_c, 0, 81, 0
2, 68580, Note_on_c, 0, 83, 48
2, 68640, Note_on_c, 0, 83, 0
2, 68640, Note_on_c, 0, 79, 48
2, 68688, Note_on_c, 0, 79, 0
2, 68760, Note_on_c, 0, 79, 48
2, 68820, Note_on_c, 0, 79, 0
2, 68820, Note_on_c, 0, 81, 48
2, 68880, Note_on_c, 0, 81, 0
2, 68880, Note_on_c, 0, 78, 48
2, 68928, Note_on_c, 0, 78, 0
2, 69000, Note_on_c, 0, 78, 48
2, 69060, Note_on_c, 0, 78, 0
2, 69060, Note_on_c, 0, 81, 48
2, 69120, Note_on_c, 0, 81, 0
2, 69120, Note_on_c, 0, 79, 48
2, 69168, Note_on_c, 0, 79, 0
2, 69180, Note_on_c, 0, 81, 49
2, 69228, Note_on_c, 0, 81, 0
2, 69240, Note_on_c, 0, 83, 51
2, 69288, Note_on_c, 0, 83, 0
2, 69300, Note_on_c, 0, 79, 52
2, 69348, Note_on_c, 0, 79, 0
2, 69360, Note_on_c, 0, 81, 53
2, 69408, Note_on_c, 0, 81, 0
2, 69420, Note_on_c, 0, 83, 55
2, 69468, Note_on_c, 0, 83, 0
2, 69480, Note_on_c, 0, 84, 56
2, 69528, Note_on_c, 0, 84, 0
2, 69540, Note_on_c, 0, 81, 57
2, 69588, Note_on_c, 0, 81, 0
2, 69600, Note_on_c, 0, 83, 59
2, 69648, Note_on_c, 0, 83, 0
2, 69660, Note_on_c, 0, 84, 60
2, 69708, Note_on_c, 0, 84, 0
2, 69720, Note_on_c, 0, 86, 61
2, 69768, Note_on_c, 0, 86, 0
2, 69780, Note_on_c, 0, 83, 63
2, 69828, Note_on_c, 0, 83, 0
2, 69840, Note_on_c, 0, 86, 64
2, 69888, Note_on_c, 0, 86, 0
2, 69900, Note_on_c, 0, 84, 63
2, 69948, Note_on_c, 0, 84, 0
2, 69960, Note_on_c, 0, 86, 61
2, 70008, Note_on_c, 0, 86, 0
2, 70020, Note_on_c, 0, 84, 60
2, 70068, Note_on_c, 0, 84, 0
2, 70080, Note_on_c, 0, 81, 59
2, 70272, Note_on_c, 0, 81, 0
2, 70680, Note_on_c, 0, 67, 48
2, 70728, Note_on_c, 0, 67, 0
2, 70800, Note_on_c, 0, 66, 48
2, 70848, Note_on_c, 0, 66, 0
2, 70920, Note_on_c, 0, 67, 48
2, 70968, Note_on_c, 0, 67, 0
2, 71040, Note_on_c, 0, 69, 80
2, 71040, Note_on_c, 0, 72, 80
2, 71136, Note_on_c, 0, 72, 0
2, 71136, Note_on_c, 0, 69, 0
2, 71160, Note_on_c, 0, 67, 72
2, 71160, Note_on_c, 0, 71, 72
2, 71208, Note_on_c, 0, 71, 0
2, 71208, Note_on_c, 0, 67, 0
2, 71400, Note_on_c, 0, 67, 48
2, 71448, Note_on_c, 0, 67, 0
2, 71520, Note_on_c, 0, 66, 48
2, 71568, Note_on_c, 0, 66, 0
2, 71640, Note_on_c, 0, 67, 48
2, 71688, Note_on_c, 0, 67, 0
2, 71760, Note_on_c, 0, 72, 80
2, 71760, Note_on_c, 0, 76, 80
2, 71856, Note_on_c, 0, 76, 0
2, 71856, Note_on_c, 0, 72, 0
2, 71880, Note_on_c, 0, 71, 72
2, 71880, Note_on_c, 0, 74, 72
2, 71928, Note_on_c, 0, 74, 0
2, 71928, Note_on_c, 0, 71, 0
2, 72120, Note_on_c, 0, 67, 48
2, 72168, Note_on_c, 0, 67, 0
2, 72240, Note_on_c, 0, 66, 48
2, 72288, Note_on_c, 0, 66, 0
2, 72360, Note_on_c, 0, 67, 48
2, 72408, Note_on_c, 0, 67, 0
2, 72480, Note_on_c, 0, 76, 80
2, 72480, Note_on_c, 0, 79, 80
2, 72576, Note_on_c, 0, 79, 0
2, 72576, Note_on_c, 0, 76, 0
2, 72600, Note_on_c, 0, 74, 72
2, 72600, Note_on_c, 0, 78, 72
2, 72648, Note_on_c, 0, 78, 0
2, 72648, Note_on_c, 0, 74, 0
2, 72720, Note_on_c, 0, 74, 80
2, 72720, Note_on_c, 0, 77, 80
2, 72816, Note_on_c, 0, 77, 0
2, 72816, Note_on_c, 0, 74, 0
2, 72840, Note_on_c, 0, 72, 72
2, 72840, Note_on_c, 0, 76, 72
2, 72888, Note_on_c, 0, 76, 0
2, 72888, Note_on_c, 0, 72, 0
2, 72960, Note_on_c, 0, 70, 80
2, 72960, Note_on_c, 0, 73, 80
2, 73056, Note_on_c, 0, 73, 0
2, 73056, Note_on_c, 0, 70, 0
2, 73080, Note_on_c, 0, 69, 72
2, 73080, Note_on_c, 0, 74, 72
2, 73128, Note_on_c, 0, 74, 0
2, 73128, Note_on_c, 0, 69, 0
2, 73200, Note_on_c, 0, 68, 80
2, 73200, Note_on_c, 0, 71, 80
2, 73296, Note_on_c, 0, 71, 0
2, 73296, Note_on_c, 0, 68, 0
2, 73320, Note_on_c, 0, 67, 72
2, 73320, Note_on_c, 0, 72, 72
2, 73368, Note_on_c, 0, 72, 0
2, 73368, Note_on_c, 0, 67, 0
2, 73440, Note_on_c, 0, 72, 80
2, 73500, Note_on_c, 0, 72, 0
2, 73500, Note_on_c, 0, 69, 80
2, 73560, Note_on_c, 0, 69, 0
2, 73560, Note_on_c, 0, 66, 80
2, 73620, Note_on_c, 0, 66, 0
2, 73620, Note_on_c, 0, 62, 80
2, 73680, Note_on_c, 0, 62, 0
2, 73680, Note_on_c, 0, 61, 80
2, 73740, Note_on_c, 0, 61, 0
2, 73740, Note_on_c, 0, 62, 80
2, 73800, Note_on_c, 0, 62, 0
2, 73800, Note_on_c, 0, 64, 80
2, 73860, Note_on_c, 0, 64, 0
2, 73860, Note_on_c, 0, 62, 80
2, 73920, Note_on_c, 0, 62, 0
2, 73920, Note_on_c, 0, 72, 80
2, 73980, Note_on_c, 0, 72, 0
2, 73980, Note_on_c, 0, 69, 80
2, 74040, Note_on_c, 0, 69, 0
2, 74040, Note_on_c, 0, 66, 80
2, 74100, Note_on_c, 0, 66, 0
2, 74100, Note_on_c, 0, 62, 80
2, 74160, Note_on_c, 0, 62, 0
2, 74160, Note_on_c, 0, 74, 80
2, 74220, Note_on_c, 0, 74, 0
2, 74220, Note_on_c, 0, 71, 80
2, 74280, Note_on_c, 0, 71, 0
2, 74280, Note_on_c, 0, 67, 80
2, 74340, Note_on_c, 0, 67, 0
2, 74340, Note_on_c, 0, 62, 80
2, 74400, Note_on_c, 0, 62, 0
2, 74400, Note_on_c, 0, 61, 80
2, 74460, Note_on_c, 0, 61, 0
2, 74460, Note_on_c, 0, 62, 80
2, 74520, Note_on_c, 0, 62, 0
2, 74520, Note_on_c, 0, 64, 80
2, 74580, Note_on_c, 0, 64, 0
2, 74580, Note_on_c, 0, 62, 80
2, 74640, Note_on_c, 0, 62, 0
2, 74640, Note_on_c, 0, 74, 80
2, 74700, Note_on_c, 0, 74, 0
2, 74700, Note_on_c, 0, 71, 80
2, 74760, Note_on_c, 0, 71, 0
2, 74760, Note_on_c, 0, 67, 80
2, 74820, Note_on_c, 0, 67, 0
2, 74820, Note_on_c, 0, 62, 80
2, 74880, Note_on_c, 0, 62, 0
2, 74880, Note_on_c, 0, 64, 80
2, 74940, Note_on_c, 0, 64, 0
2, 74940, Note_on_c, 0, 69, 77
2, 75000, Note_on_c, 0, 69, 0
2, 75000, Note_on_c, 0, 72, 75
2, 75060, Note_on_c, 0, 72, 0
2, 75060, Note_on_c, 0, 76, 72
2, 75120, Note_on_c, 0, 76, 0
2, 75120, Note_on_c, 0, 76, 69
2, 75180, Note_on_c, 0, 76, 0
2, 75180, Note_on_c, 0, 74, 67
2, 75240, Note_on_c, 0, 74, 0
2, 75240, Note_on_c, 0, 72, 64
2, 75300, Note_on_c, 0, 72, 0
2, 75300, Note_on_c, 0, 71, 61
2, 75360, Note_on_c, 0, 71, 0
2, 75360, Note_on_c, 0, 71, 59
2, 75420, Note_on_c, 0, 71, 0
2, 75420, Note_on_c, 0, 69, 56
2, 75480, Note_on_c, 0, 69, 0
2, 75480, Note_on_c, 0, 67, 53
2, 75540, Note_on_c, 0, 67, 0
2, 75540, Note_on_c, 0, 66, 51
2, 75600, Note_on_c, 0, 66, 0
2, 75720, Note_on_c, 0, 67, 48
2, 75768, Note_on_c, 0, 67, 0
2, 75840, Note_on_c, 0, 66, 48
2, 75888, Note_on_c, 0, 66, 0
2, 75960, Note_on_c, 0, 67, 48
2, 76008, Note_on_c, 0, 67, 0
2, 76080, Note_on_c, 0, 76, 80
2, 76080, Note_on_c, 0, 79, 80
2, 76200, Note_on_c, 0, 79, 0
2, 76200, Note_on_c, 0, 76, 0
2, 76200, Note_on_c, 0, 74, 55
2, 76200, Note_on_c, 0, 78, 55
2, 76248, Note_on_c, 0, 78, 0
2, 76248, Note_on_c, 0, 74, 0
2, 76320, Note_on_c, 0, 74, 80
2, 76320, Note_on_c, 0, 77, 80
2, 76440, Note_on_c, 0, 77, 0
2, 76440, Note_on_c, 0, 74, 0
2, 76440, Note_on_c, 0, 72, 72
2, 76440, Note_on_c, 0, 76, 72
2, 76488, Note_on_c, 0, 76, 0
2, 76488, Note_on_c, 0, 72, 0
2, 76560, Note_on_c, 0, 70, 80
2, 76560, Note_on_c, 0, 73, 80
2, 76680, Note_on_c, 0, 73, 0
2, 76680, Note_on_c, 0, 70, 0
2, 76680, Note_on_c, 0, 69, 72
2, 76680, Note_on_c, 0, 74, 72
2, 76728, Note_on_c, 0, 74, 0
2, 76728, Note_on_c, 0, 69, 0
2, 76800, Note_on_c, 0, 68, 80
2, 76800, Note_on_c, 0, 71, 80
2, 76920, Note_on_c, 0, 71, 0
2, 76920, Note_on_c, 0, 68, 0
2, 76920, Note_on_c, 0, 67, 72
2, 76920, Note_on_c, 0, 72, 72
2, 76968, Note_on_c, 0, 72, 0
2, 76968, Note_on_c, 0, 67, 0
2, 77040, Note_on_c, 0, 84, 80
2, 77100, Note_on_c, 0, 84, 0
2, 77100, Note_on_c, 0, 81, 80
2, 77124, Note_on_c, 0, 81, 0
2, 77160, Note_on_c, 0, 78, 80
2, 77184, Note_on_c, 0, 78, 0
2, 77220, Note_on_c, 0, 74, 80
2, 77244, Note_on_c, 0, 74, 0
2, 77280, Note_on_c, 0, 73, 80
2, 77340, Note_on_c, 0, 73, 0
2, 77340, Note_on_c, 0, 74, 80
2, 77364, Note_on_c, 0, 74, 0
2, 77400, Note_on_c, 0, 76, 80
2, 77424, Note_on_c, 0, 76, 0
2, 77460, Note_on_c, 0, 74, 80
2, 77484, Note_on_c, 0, 74, 0
2, 77520, Note_on_c, 0, 84, 80
2, 77580, Note_on_c, 0, 84, 0
2, 77580, Note_on_c, 0, 81, 80
2, 77604, Note_on_c, 0, 81, 0
2, 77640, Note_on_c, 0, 78, 80
2, 77664, Note_on_c, 0, 78, 0
2, 77700, Note_on_c, 0, 74, 80
2, 77724, Note_on_c, 0, 74, 0
2, 77760, Note_on_c, 0, 86, 80
2, 77820, Note_on_c, 0, 86, 0
2, 77820, Note_on_c, 0, 83, 80
2, 77844, Note_on_c, 0, 83, 0
2, 77880, Note_on_c, 0, 79, 80
2, 77904, Note_on_c, 0, 79, 0
2, 77940, Note_on_c, 0, 74, 80
2, 77964, Note_on_c, 0, 74, 0
2, 78000, Note_on_c, 0, 73, 80
2, 78060, Note_on_c, 0, 73, 0
2, 78060, Note_on_c, 0, 74, 80
2, 78084, Note_on_c, 0, 74, 0
2, 78120, Note_on_c, 0, 76, 80
2, 78144, Note_on_c, 0, 76, 0
2, 78180, Note_on_c, 0, 74, 80
2, 78204, Note_on_c, 0, 74, 0
2, 78240, Note_on_c, 0, 86, 80
2, 78300, Note_on_c, 0, 86, 0
2, 78300, Note_on_c, 0, 83, 80
2, 78360, Note_on_c, 0, 83, 0
2, 78360, Note_on_c, 0, 79, 80
2, 78420, Note_on_c, 0, 79, 0
2, 78420, Note_on_c, 0, 74, 80
2, 78480, Note_on_c, 0, 74, 0
2, 78480, Note_on_c, 0, 76, 80
2, 78540, Note_on_c, 0, 76, 0
2, 78540, Note_on_c, 0, 81, 80
2, 78564, Note_on_c, 0, 81, 0
2, 78600, Note_on_c, 0, 84, 80
2, 78624, Note_on_c, 0, 84, 0
2, 78660, Note_on_c, 0, 88, 80
2, 78684, Note_on_c, 0, 88, 0
2, 78720, Note_on_c, 0, 88, 80
2, 78780, Note_on_c, 0, 88, 0
2, 78780, Note_on_c, 0, 86, 80
2, 78840, Note_on_c, 0, 86, 0
2, 78840, Note_on_c, 0, 84, 80
2, 78900, Note_on_c, 0, 84, 0
2, 78900, Note_on_c, 0, 83, 80
2, 78960, Note_on_c, 0, 83, 0
2, 78960, Note_on_c, 0, 83, 80
2, 79020, Note_on_c, 0, 83, 0
2, 79020, Note_on_c, 0, 81, 80
2, 79080, Note_on_c, 0, 81, 0
2, 79080, Note_on_c, 0, 79, 80
2, 79140, Note_on_c, 0, 79, 0
2, 79140, Note_on_c, 0, 78, 80
2, 79200, Note_on_c, 0, 78, 0
2, 79200, Note_on_c, 0, 79, 80
2, 79248, Note_on_c, 0, 79, 0
2, 79320, Note_on_c, 0, 79, 80
2, 79368, Note_on_c, 0, 79, 0
2, 79380, Note_on_c, 0, 83, 80
2, 79428, Note_on_c, 0, 83, 0
2, 79440, Note_on_c, 0, 81, 80
2, 79488, Note_on_c, 0, 81, 0
2, 79500, Note_on_c, 0, 84, 80
2, 79548, Note_on_c, 0, 84, 0
2, 79560, Note_on_c, 0, 83, 80
2, 79608, Note_on_c, 0, 83, 0
2, 79620, Note_on_c, 0, 86, 80
2, 79668, Note_on_c, 0, 86, 0
2, 79680, Note_on_c, 0, 84, 80
2, 79704, Note_on_c, 0, 84, 0
2, 79710, Note_on_c, 0, 86, 80
2, 79734, Note_on_c, 0, 86, 0
2, 79740, Note_on_c, 0, 84, 80
2, 79764, Note_on_c, 0, 84, 0
2, 79770, Note_on_c, 0, 86, 80
2, 79794, Note_on_c, 0, 86, 0
2, 79800, Note_on_c, 0, 84, 80
2, 79816, Note_on_c, 0, 84, 0
2, 79820, Note_on_c, 0, 86, 80
2, 79836, Note_on_c, 0, 86, 0
2, 79840, Note_on_c, 0, 84, 80
2, 79856, Note_on_c, 0, 84, 0
2, 79860, Note_on_c, 0, 83, 80
2, 79884, Note_on_c, 0, 83, 0
2, 79890, Note_on_c, 0, 84, 80
2, 79914, Note_on_c, 0, 84, 0
2, 79920, Note_on_c, 0, 83, 80
2, 79968, Note_on_c, 0, 83, 0
2, 80040, Note_on_c, 0, 67, 48
2, 80100, Note_on_c, 0, 67, 0
2, 80100, Note_on_c, 0, 71, 48
2, 80160, Note_on_c, 0, 71, 0
2, 80160, Note_on_c, 0, 69, 48
2, 80220, Note_on_c, 0, 69, 0
2, 80220, Note_on_c, 0, 72, 48
2, 80280, Note_on_c, 0, 72, 0
2, 80280, Note_on_c, 0, 71, 48
2, 80340, Note_on_c, 0, 71, 0
2, 80340, Note_on_c, 0, 74, 48
2, 80400, Note_on_c, 0, 74, 0
2, 80400, Note_on_c, 0, 72, 48
2, 80430, Note_on_c, 0, 72, 0
2, 80430, Note_on_c, 0, 74, 48
2, 80460, Note_on_c, 0, 74, 0
2, 80460, Note_on_c, 0, 72, 48
2, 80490, Note_on_c, 0, 72, 0
2, 80490, Note_on_c, 0, 74, 48
2, 80520, Note_on_c, 0, 74, 0
2, 80520, Note_on_c, 0, 72, 48
2, 80540, Note_on_c, 0, 72, 0
2, 80540, Note_on_c, 0, 74, 48
2, 80560, Note_on_c, 0, 74, 0
2, 80560, Note_on_c, 0, 72, 48
2, 80580, Note_on_c, 0, 72, 0
2, 80580, Note_on_c, 0, 71, 48
2, 80610, Note_on_c, 0, 71, 0
2, 80610, Note_on_c, 0, 72, 48
2, 80640, Note_on_c, 0, 72, 0
2, 80640, Note_on_c, 0, 71, 48
2, 80760, Note_on_c, 0, 76, 48
2, 80880, Note_on_c, 0, 71, 0
2, 80880, Note_on_c, 0, 69, 48
2, 81000, Note_on_c, 0, 76, 0
2, 81000, Note_on_c, 0, 74, 48
2, 81120, Note_on_c, 0, 69, 0
2, 81120, Note_on_c, 0, 67, 48
2, 81240, Note_on_c, 0, 74, 0
2, 81240, Note_on_c, 0, 72, 48
2, 81360, Note_on_c, 0, 67, 0
2, 81360, Note_on_c, 0, 66, 48
2, 81480, Note_on_c, 0, 72, 0
2, 81480, Note_on_c, 0, 71, 48
2, 81600, Note_on_c, 0, 66, 0
2, 81600, Note_on_c, 0, 64, 48
2, 81720, Note_on_c, 0, 71, 0
2, 81720, Note_on_c, 0, 69, 48
2, 81840, Note_on_c, 0, 64, 0
2, 81840, Note_on_c, 0, 62, 48
2, 81960, Note_on_c, 0, 69, 0
2, 81960, Note_on_c, 0, 67, 48
2, 82080, Note_on_c, 0, 67, 0
2, 82080, Note_on_c, 0, 62, 0
2, 82080, Note_on_c, 0, 68, 56
2, 82176, Note_on_c, 0, 68, 0
2, 82200, Note_on_c, 0, 69, 53
2, 82248, Note_on_c, 0, 69, 0
2, 82440, Note_on_c, 0, 69, 64
2, 82440, Note_on_c, 0, 72, 64
2, 82488, Note_on_c, 0, 72, 0
2, 82488, Note_on_c, 0, 69, 0
2, 82560, Note_on_c, 0, 67, 69
2, 82560, Note_on_c, 0, 71, 69
2, 82608, Note_on_c, 0, 71, 0
2, 82608, Note_on_c, 0, 67, 0
2, 82680, Note_on_c, 0, 66, 75
2, 82680, Note_on_c, 0, 69, 75
2, 82728, Note_on_c, 0, 69, 0
2, 82728, Note_on_c, 0, 66, 0
2, 82800, Note_on_c, 0, 83, 64
2, 82860, Note_on_c, 0, 85, 65
2, 82920, Note_on_c, 0, 85, 0
2, 82920, Note_on_c, 0, 86, 67
2, 82980, Note_on_c, 0, 86, 0
2, 82980, Note_on_c, 0, 88, 68
2, 83040, Note_on_c, 0, 88, 0
2, 83040, Note_on_c, 0, 83, 0
2, 83040, Note_on_c, 0, 81, 69
2, 83100, Note_on_c, 0, 88, 71
2, 83160, Note_on_c, 0, 88, 0
2, 83160, Note_on_c, 0, 85, 72
2, 83220, Note_on_c, 0, 85, 0
2, 83220, Note_on_c, 0, 86, 73
2, 83280, Note_on_c, 0, 86, 0
2, 83280, Note_on_c, 0, 81, 0
2, 83280, Note_on_c, 0, 79, 75
2, 83340, Note_on_c, 0, 81, 76
2, 83400, Note_on_c, 0, 81, 0
2, 83400, Note_on_c, 0, 83, 77
2, 83460, Note_on_c, 0, 83, 0
2, 83460, Note_on_c, 0, 84, 79
2, 83520, Note_on_c, 0, 84, 0
2, 83520, Note_on_c, 0, 79, 0
2, 83520, Note_on_c, 0, 78, 64
2, 83580, Note_on_c, 0, 84, 65
2, 83640, Note_on_c, 0, 84, 0
2, 83640, Note_on_c, 0, 82, 67
2, 83700, Note_on_c, 0, 82, 0
2, 83700, Note_on_c, 0, 83, 68
2, 83760, Note_on_c, 0, 83, 0
2, 83760, Note_on_c, 0, 78, 0
2, 83760, Note_on_c, 0, 76, 69
2, 83820, Note_on_c, 0, 78, 71
2, 83880, Note_on_c, 0, 78, 0
2, 83880, Note_on_c, 0, 80, 72
2, 83940, Note_on_c, 0, 80, 0
2, 83940, Note_on_c, 0, 81, 73
2, 84000, Note_on_c, 0, 81, 0
2, 84000, Note_on_c, 0, 76, 0
2, 84000, Note_on_c, 0, 74, 75
2, 84060, Note_on_c, 0, 81, 76
2, 84120, Note_on_c, 0, 81, 0
2, 84120, Note_on_c, 0, 78, 77
2, 84180, Note_on_c, 0, 78, 0
2, 84180, Note_on_c, 0, 79, 79
2, 84240, Note_on_c, 0, 79, 0
2, 84240, Note_on_c, 0, 74, 0
2, 84240, Note_on_c, 0, 76, 80
2, 84300, Note_on_c, 0, 76, 0
2, 84300, Note_on_c, 0, 79, 81
2, 84360, Note_on_c, 0, 79, 0
2, 84360, Note_on_c, 0, 76, 83
2, 84420, Note_on_c, 0, 76, 0
2, 84420, Note_on_c, 0, 72, 84
2, 84480, Note_on_c, 0, 72, 0
2, 84480, Note_on_c, 0, 71, 85
2, 84540, Note_on_c, 0, 71, 0
2, 84540, Note_on_c, 0, 74, 87
2, 84600, Note_on_c, 0, 74, 0
2, 84600, Note_on_c, 0, 67, 88
2, 84660, Note_on_c, 0, 67, 0
2, 84660, Note_on_c, 0, 71, 89
2, 84720, Note_on_c, 0, 71, 0
2, 84720, Note_on_c, 0, 69, 91
2, 84780, Note_on_c, 0, 69, 0
2, 84780, Note_on_c, 0, 72, 92
2, 84840, Note_on_c, 0, 72, 0
2, 84840, Note_on_c, 0, 66, 93
2, 84900, Note_on_c, 0, 66, 0
2, 84900, Note_on_c, 0, 69, 95
2, 84960, Note_on_c, 0, 69, 0
2, 84960, Note_on_c, 0, 67, 80
2, 85152, Note_on_c, 0, 67, 0
2, 85320, Note_on_c, 0, 62, 64
2, 85320, Note_on_c, 0, 65, 64
2, 85320, Note_on_c, 0, 71, 64
2, 85368, Note_on_c, 0, 71, 0
2, 85368, Note_on_c, 0, 65, 0
2, 85368, Note_on_c, 0, 62, 0
2, 85440, Note_on_c, 0, 64, 64
2, 85440, Note_on_c, 0, 67, 64
2, 85440, Note_on_c, 0, 72, 64
2, 85488, Note_on_c, 0, 72, 0
2, 85488, Note_on_c, 0, 67, 0
2, 85488, Note_on_c, 0, 64, 0
2, 85560, Note_on_c, 0, 66, 64
2, 85560, Note_on_c, 0, 69, 64
2, 85560, Note_on_c, 0, 72, 64
2, 85680, Note_on_c, 0, 72, 0
2, 85680, Note_on_c, 0, 69, 0
2, 85680, Note_on_c, 0, 66, 0
2, 85680, Note_on_c, 0, 67, 64
2, 85680, Note_on_c, 0, 71, 64
2, 85872, Note_on_c, 0, 71, 0
2, 85872, Note_on_c, 0, 67, 0
2, 86040, Note_on_c, 0, 71, 100
2, 86040, Note_on_c, 0, 74, 100
2, 86040, Note_on_c, 0, 77, 100
2, 86088, Note_on_c, 0, 77, 0
2, 86088, Note_on_c, 0, 74, 0
2, 86088, Note_on_c, 0, 71, 0
2, 86160, Note_on_c, 0, 72, 100
2, 86160, Note_on_c, 0, 76, 100
2, 86208, Note_on_c, 0, 76, 0
2, 86208, Note_on_c, 0, 72, 0
2, 86280, Note_on_c, 0, 69, 100
2, 86280, Note_on_c, 0, 72, 100
2, 86280, Note_on_c, 0, 78, 100
2, 86400, Note_on_c, 0, 78, 0
2, 86400, Note_on_c, 0, 72, 0
2, 86400, Note_on_c, 0, 69, 0
2, 86400, Note_on_c, 0, 71, 100
2, 86400, Note_on_c, 0, 74, 100
2, 86400, Note_on_c, 0, 79, 100
2, 86640, Note_on_c, 0, 79, 0
2, 86640, Note_on_c, 0, 74, 0
2, 86640, Note_on_c, 0, 71, 0
2, 86640, End_track
3, 0, Start_track
3, 0, MIDI_port, 0
3, 0, Title_t, "by W. A. Mozart  1st movement (Allegro)"
3, 0, Program_c, 1, 0
3, 0, Control_c, 1, 7, 127
3, 0, Control_c, 1, 10, 60
3, 720, Note_on_c, 1, 55, 56
3, 840, Note_on_c, 1, 55, 0
3, 840, Note_on_c, 1, 59, 56
3, 960, Note_on_c, 1, 59, 0
3, 960, Note_on_c, 1, 62, 56
3, 1080, Note_on_c, 1, 62, 0
3, 1080, Note_on_c, 1, 59, 56
3, 1200, Note_on_c, 1, 59, 0
3, 1200, Note_on_c, 1, 62, 56
3, 1320, Note_on_c, 1, 62, 0
3, 1320, Note_on_c, 1, 59, 56
3, 1440, Note_on_c, 1, 59, 0
3, 1440, Note_on_c, 1, 57, 56
3, 1560, Note_on_c, 1, 57, 0
3, 1560, Note_on_c, 1, 60, 56
3, 1680, Note_on_c, 1, 60, 0
3, 1680, Note_on_c, 1, 62, 56
3, 1800, Note_on_c, 1, 62, 0
3, 1800, Note_on_c, 1, 60, 56
3, 1920, Note_on_c, 1, 60, 0
3, 1920, Note_on_c, 1, 62, 56
3, 2040, Note_on_c, 1, 62, 0
3, 2040, Note_on_c, 1, 60, 56
3, 2160, Note_on_c, 1, 60, 0
3, 2160, Note_on_c, 1, 54, 56
3, 2280, Note_on_c, 1, 54, 0
3, 2280, Note_on_c, 1, 57, 56
3, 2400, Note_on_c, 1, 57, 0
3, 2400, Note_on_c, 1, 62, 56
3, 2520, Note_on_c, 1, 62, 0
3, 2520, Note_on_c, 1, 57, 56
3, 2640, Note_on_c, 1, 57, 0
3, 2640, Note_on_c, 1, 62, 56
3, 2760, Note_on_c, 1, 62, 0
3, 2760, Note_on_c, 1, 57, 56
3, 2880, Note_on_c, 1, 57, 0
3, 2880, Note_on_c, 1, 55, 56
3, 3000, Note_on_c, 1, 55, 0
3, 3000, Note_on_c, 1, 59, 56
3, 3120, Note_on_c, 1, 59, 0
3, 3120, Note_on_c, 1, 62, 56
3, 3240, Note_on_c, 1, 62, 0
3, 3240, Note_on_c, 1, 59, 56
3, 3360, Note_on_c, 1, 59, 0
3, 3360, Note_on_c, 1, 55, 56
3, 3600, Note_on_c, 1, 55, 0
3, 3600, Note_on_c, 1, 67, 64
3, 3600, Note_on_c, 1, 60, 64
3, 4056, Note_on_c, 1, 60, 0
3, 4056, Note_on_c, 1, 67, 0
3, 4320, Note_on_c, 1, 67, 64
3, 4320, Note_on_c, 1, 59, 64
3, 4776, Note_on_c, 1, 59, 0
3, 4776, Note_on_c, 1, 67, 0
3, 5040, Note_on_c, 1, 57, 56
3, 5040, Note_on_c, 1, 60, 56
3, 5268, Note_on_c, 1, 60, 0
3, 5268, Note_on_c, 1, 57, 0
3, 5280, Note_on_c, 1, 55, 56
3, 5280, Note_on_c, 1, 59, 56
3, 5508, Note_on_c, 1, 59, 0
3, 5508, Note_on_c, 1, 55, 0
3, 5520, Note_on_c, 1, 54, 56
3, 5520, Note_on_c, 1, 57, 56
3, 5748, Note_on_c, 1, 57, 0
3, 5748, Note_on_c, 1, 54, 0
3, 5760, Note_on_c, 1, 59, 56
3, 5760, Note_on_c, 1, 55, 56
3, 5880, Note_on_c, 1, 55, 0
3, 5880, Note_on_c, 1, 59, 0
3, 6240, Note_on_c, 1, 55, 56
3, 6240, Note_on_c, 1, 52, 56
3, 6360, Note_on_c, 1, 52, 0
3, 6360, Note_on_c, 1, 55, 0
3, 6720, Note_on_c, 1, 50, 56
3, 6720, Note_on_c, 1, 55, 56
3, 6948, Note_on_c, 1, 55, 0
3, 6960, Note_on_c, 1, 60, 56
3, 7188, Note_on_c, 1, 60, 0
3, 7188, Note_on_c, 1, 50, 0
3, 7200, Note_on_c, 1, 55, 56
3, 7200, Note_on_c, 1, 59, 56
3, 7344, Note_on_c, 1, 59, 0
3, 7344, Note_on_c, 1, 55, 0
3, 7440, Note_on_c, 1, 43, 48
3, 7560, Note_on_c, 1, 43, 0
3, 7920, Note_on_c, 1, 55, 64
3, 7920, Note_on_c, 1, 48, 64
3, 8304, Note_on_c, 1, 48, 0
3, 8304, Note_on_c, 1, 55, 0
3, 8640, Note_on_c, 1, 55, 64
3, 8640, Note_on_c, 1, 47, 64
3, 9024, Note_on_c, 1, 47, 0
3, 9024, Note_on_c, 1, 55, 0
3, 9360, Note_on_c, 1, 57, 56
3, 9360, Note_on_c, 1, 60, 56
3, 9600, Note_on_c, 1, 60, 0
3, 9600, Note_on_c, 1, 57, 0
3, 9600, Note_on_c, 1, 55, 56
3, 9600, Note_on_c, 1, 59, 56
3, 9840, Note_on_c, 1, 59, 0
3, 9840, Note_on_c, 1, 55, 0
3, 9840, Note_on_c, 1, 54, 56
3, 9840, Note_on_c, 1, 57, 56
3, 10080, Note_on_c, 1, 57, 0
3, 10080, Note_on_c, 1, 54, 0
3, 10080, Note_on_c, 1, 59, 56
3, 10080, Note_on_c, 1, 55, 56
3, 10200, Note_on_c, 1, 55, 0
3, 10200, Note_on_c, 1, 59, 0
3, 10560, Note_on_c, 1, 55, 56
3, 10560, Note_on_c, 1, 52, 56
3, 10680, Note_on_c, 1, 52, 0
3, 10680, Note_on_c, 1, 55, 0
3, 11040, Note_on_c, 1, 55, 56
3, 11040, Note_on_c, 1, 50, 56
3, 11280, Note_on_c, 1, 55, 0
3, 11280, Note_on_c, 1, 60, 56
3, 11520, Note_on_c, 1, 60, 0
3, 11520, Note_on_c, 1, 50, 0
3, 11520, Note_on_c, 1, 59, 56
3, 11520, Note_on_c, 1, 55, 56
3, 11712, Note_on_c, 1, 55, 0
3, 11712, Note_on_c, 1, 59, 0
3, 11880, Note_on_c, 1, 31, 56
3, 11880, Note_on_c, 1, 43, 56
3, 11940, Note_on_c, 1, 43, 0
3, 11940, Note_on_c, 1, 31, 0
3, 12000, Note_on_c, 1, 33, 56
3, 12000, Note_on_c, 1, 45, 56
3, 12060, Note_on_c, 1, 45, 0
3, 12060, Note_on_c, 1, 33, 0
3, 12120, Note_on_c, 1, 35, 56
3, 12120, Note_on_c, 1, 47, 56
3, 12180, Note_on_c, 1, 47, 0
3, 12180, Note_on_c, 1, 35, 0
3, 12240, Note_on_c, 1, 36, 72
3, 12240, Note_on_c, 1, 48, 72
3, 12360, Note_on_c, 1, 48, 0
3, 12360, Note_on_c, 1, 36, 0
3, 12600, Note_on_c, 1, 33, 56
3, 12600, Note_on_c, 1, 45, 56
3, 12696, Note_on_c, 1, 45, 0
3, 12696, Note_on_c, 1, 33, 0
3, 12720, Note_on_c, 1, 35, 56
3, 12720, Note_on_c, 1, 47, 56
3, 12816, Note_on_c, 1, 47, 0
3, 12816, Note_on_c, 1, 35, 0
3, 12840, Note_on_c, 1, 36, 56
3, 12840, Note_on_c, 1, 48, 56
3, 12936, Note_on_c, 1, 48, 0
3, 12936, Note_on_c, 1, 36, 0
3, 12960, Note_on_c, 1, 38, 56
3, 12960, Note_on_c, 1, 50, 56
3, 13080, Note_on_c, 1, 50, 0
3, 13080, Note_on_c, 1, 38, 0
3, 13320, Note_on_c, 1, 35, 40
3, 13320, Note_on_c, 1, 47, 40
3, 13356, Note_on_c, 1, 47, 0
3, 13356, Note_on_c, 1, 35, 0
3, 13440, Note_on_c, 1, 36, 40
3, 13440, Note_on_c, 1, 48, 40
3, 13476, Note_on_c, 1, 48, 0
3, 13476, Note_on_c, 1, 36, 0
3, 13560, Note_on_c, 1, 38, 40
3, 13560, Note_on_c, 1, 50, 40
3, 13596, Note_on_c, 1, 50, 0
3, 13596, Note_on_c, 1, 38, 0
3, 13680, Note_on_c, 1, 52, 48
3, 13680, Note_on_c, 1, 40, 48
3, 13716, Note_on_c, 1, 40, 0
3, 13716, Note_on_c, 1, 52, 0
3, 13800, Note_on_c, 1, 50, 44
3, 13800, Note_on_c, 1, 38, 44
3, 13836, Note_on_c, 1, 38, 0
3, 13836, Note_on_c, 1, 50, 0
3, 13920, Note_on_c, 1, 48, 48
3, 13920, Note_on_c, 1, 36, 48
3, 13956, Note_on_c, 1, 36, 0
3, 13956, Note_on_c, 1, 48, 0
3, 14040, Note_on_c, 1, 50, 52
3, 14040, Note_on_c, 1, 38, 52
3, 14076, Note_on_c, 1, 38, 0
3, 14076, Note_on_c, 1, 50, 0
3, 14160, Note_on_c, 1, 52, 56
3, 14160, Note_on_c, 1, 40, 56
3, 14196, Note_on_c, 1, 40, 0
3, 14196, Note_on_c, 1, 52, 0
3, 14280, Note_on_c, 1, 54, 60
3, 14280, Note_on_c, 1, 42, 60
3, 14316, Note_on_c, 1, 42, 0
3, 14316, Note_on_c, 1, 54, 0
3, 14400, Note_on_c, 1, 55, 72
3, 14400, Note_on_c, 1, 43, 72
3, 14436, Note_on_c, 1, 43, 0
3, 14436, Note_on_c, 1, 55, 0
3, 14520, Note_on_c, 1, 54, 67
3, 14520, Note_on_c, 1, 42, 67
3, 14556, Note_on_c, 1, 42, 0
3, 14556, Note_on_c, 1, 54, 0
3, 14640, Note_on_c, 1, 52, 69
3, 14640, Note_on_c, 1, 40, 69
3, 14676, Note_on_c, 1, 40, 0
3, 14676, Note_on_c, 1, 52, 0
3, 14760, Note_on_c, 1, 54, 72
3, 14760, Note_on_c, 1, 42, 72
3, 14796, Note_on_c, 1, 42, 0
3, 14796, Note_on_c, 1, 54, 0
3, 14880, Note_on_c, 1, 55, 75
3, 14880, Note_on_c, 1, 43, 75
3, 14916, Note_on_c, 1, 43, 0
3, 14916, Note_on_c, 1, 55, 0
3, 15000, Note_on_c, 1, 57, 77
3, 15000, Note_on_c, 1, 45, 77
3, 15036, Note_on_c, 1, 45, 0
3, 15036, Note_on_c, 1, 57, 0
3, 15120, Note_on_c, 1, 59, 80
3, 15120, Note_on_c, 1, 47, 80
3, 15156, Note_on_c, 1, 47, 0
3, 15156, Note_on_c, 1, 59, 0
3, 15240, Note_on_c, 1, 57, 83
3, 15240, Note_on_c, 1, 45, 83
3, 15276, Note_on_c, 1, 45, 0
3, 15276, Note_on_c, 1, 57, 0
3, 15360, Note_on_c, 1, 55, 85
3, 15360, Note_on_c, 1, 43, 85
3, 15396, Note_on_c, 1, 43, 0
3, 15396, Note_on_c, 1, 55, 0
3, 15480, Note_on_c, 1, 57, 88
3, 15480, Note_on_c, 1, 45, 88
3, 15516, Note_on_c, 1, 45, 0
3, 15516, Note_on_c, 1, 57, 0
3, 15600, Note_on_c, 1, 59, 91
3, 15600, Note_on_c, 1, 47, 91
3, 15636, Note_on_c, 1, 47, 0
3, 15636, Note_on_c, 1, 59, 0
3, 15720, Note_on_c, 1, 61, 93
3, 15720, Note_on_c, 1, 49, 93
3, 15756, Note_on_c, 1, 49, 0
3, 15756, Note_on_c, 1, 61, 0
3, 15840, Note_on_c, 1, 50, 96
3, 15840, Note_on_c, 1, 62, 96
3, 15912, Note_on_c, 1, 62, 0
3, 15912, Note_on_c, 1, 50, 0
3, 16080, Note_on_c, 1, 38, 96
3, 16080, Note_on_c, 1, 50, 96
3, 16272, Note_on_c, 1, 50, 0
3, 16272, Note_on_c, 1, 38, 0
3, 16560, Note_on_c, 1, 66, 48
3, 16680, Note_on_c, 1, 66, 0
3, 16680, Note_on_c, 1, 69, 48
3, 16800, Note_on_c, 1, 69, 0
3, 16800, Note_on_c, 1, 64, 48
3, 16920, Note_on_c, 1, 64, 0
3, 16920, Note_on_c, 1, 69, 48
3, 17040, Note_on_c, 1, 69, 0
3, 17040, Note_on_c, 1, 62, 48
3, 17160, Note_on_c, 1, 62, 0
3, 17160, Note_on_c, 1, 69, 48
3, 17280, Note_on_c, 1, 69, 0
3, 17280, Note_on_c, 1, 61, 48
3, 17400, Note_on_c, 1, 61, 0
3, 17400, Note_on_c, 1, 69, 48
3, 17520, Note_on_c, 1, 69, 0
3, 17520, Note_on_c, 1, 59, 48
3, 17640, Note_on_c, 1, 59, 0
3, 17640, Note_on_c, 1, 69, 48
3, 17760, Note_on_c, 1, 69, 0
3, 17760, Note_on_c, 1, 57, 48
3, 17880, Note_on_c, 1, 57, 0
3, 17880, Note_on_c, 1, 69, 48
3, 18000, Note_on_c, 1, 69, 0
3, 18000, Note_on_c, 1, 59, 48
3, 18120, Note_on_c, 1, 59, 0
3, 18120, Note_on_c, 1, 69, 51
3, 18240, Note_on_c, 1, 69, 0
3, 18240, Note_on_c, 1, 61, 53
3, 18360, Note_on_c, 1, 61, 0
3, 18360, Note_on_c, 1, 69, 56
3, 18480, Note_on_c, 1, 69, 0
3, 18480, Note_on_c, 1, 62, 59
3, 18600, Note_on_c, 1, 62, 0
3, 18600, Note_on_c, 1, 69, 61
3, 18720, Note_on_c, 1, 69, 0
3, 18720, Note_on_c, 1, 64, 80
3, 18804, Note_on_c, 1, 64, 0
3, 18840, Note_on_c, 1, 69, 75
3, 18924, Note_on_c, 1, 69, 0
3, 18960, Note_on_c, 1, 61, 69
3, 19044, Note_on_c, 1, 61, 0
3, 19080, Note_on_c, 1, 69, 64
3, 19164, Note_on_c, 1, 69, 0
3, 19200, Note_on_c, 1, 57, 59
3, 19284, Note_on_c, 1, 57, 0
3, 19320, Note_on_c, 1, 69, 53
3, 19404, Note_on_c, 1, 69, 0
3, 19440, Note_on_c, 1, 66, 48
3, 19500, Note_on_c, 1, 66, 0
3, 19500, Note_on_c, 1, 69, 48
3, 19560, Note_on_c, 1, 69, 0
3, 19560, Note_on_c, 1, 66, 48
3, 19620, Note_on_c, 1, 66, 0
3, 19620, Note_on_c, 1, 69, 48
3, 19680, Note_on_c, 1, 69, 0
3, 19680, Note_on_c, 1, 64, 48
3, 19740, Note_on_c, 1, 64, 0
3, 19740, Note_on_c, 1, 69, 48
3, 19800, Note_on_c, 1, 69, 0
3, 19800, Note_on_c, 1, 64, 48
3, 19860, Note_on_c, 1, 64, 0
3, 19860, Note_on_c, 1, 69, 48
3, 19920, Note_on_c, 1, 69, 0
3, 19920, Note_on_c, 1, 62, 48
3, 19980, Note_on_c, 1, 62, 0
3, 19980, Note_on_c, 1, 69, 48
3, 20040, Note_on_c, 1, 69, 0
3, 20040, Note_on_c, 1, 62, 48
3, 20100, Note_on_c, 1, 62, 0
3, 20100, Note_on_c, 1, 69, 48
3, 20160, Note_on_c, 1, 69, 0
3, 20160, Note_on_c, 1, 61, 48
3, 20220, Note_on_c, 1, 61, 0
3, 20220, Note_on_c, 1, 69, 48
3, 20280, Note_on_c, 1, 69, 0
3, 20280, Note_on_c, 1, 61, 48
3, 20340, Note_on_c, 1, 61, 0
3, 20340, Note_on_c, 1, 69, 48
3, 20400, Note_on_c, 1, 69, 0
3, 20400, Note_on_c, 1, 59, 48
3, 20460, Note_on_c, 1, 59, 0
3, 20460, Note_on_c, 1, 69, 48
3, 20520, Note_on_c, 1, 69, 0
3, 20520, Note_on_c, 1, 59, 48
3, 20580, Note_on_c, 1, 59, 0
3, 20580, Note_on_c, 1, 69, 48
3, 20640, Note_on_c, 1, 69, 0
3, 20640, Note_on_c, 1, 57, 48
3, 20700, Note_on_c, 1, 57, 0
3, 20700, Note_on_c, 1, 69, 48
3, 20760, Note_on_c, 1, 69, 0
3, 20760, Note_on_c, 1, 57, 48
3, 20820, Note_on_c, 1, 57, 0
3, 20820, Note_on_c, 1, 69, 48
3, 20880, Note_on_c, 1, 69, 0
3, 20880, Note_on_c, 1, 59, 48
3, 20940, Note_on_c, 1, 59, 0
3, 20940, Note_on_c, 1, 69, 49
3, 21000, Note_on_c, 1, 69, 0
3, 21000, Note_on_c, 1, 59, 51
3, 21060, Note_on_c, 1, 59, 0
3, 21060, Note_on_c, 1, 69, 52
3, 21120, Note_on_c, 1, 69, 0
3, 21120, Note_on_c, 1, 61, 53
3, 21180, Note_on_c, 1, 61, 0
3, 21180, Note_on_c, 1, 69, 55
3, 21240, Note_on_c, 1, 69, 0
3, 21240, Note_on_c, 1, 61, 56
3, 21300, Note_on_c, 1, 61, 0
3, 21300, Note_on_c, 1, 69, 57
3, 21360, Note_on_c, 1, 69, 0
3, 21360, Note_on_c, 1, 62, 59
3, 21420, Note_on_c, 1, 62, 0
3, 21420, Note_on_c, 1, 69, 60
3, 21480, Note_on_c, 1, 69, 0
3, 21480, Note_on_c, 1, 62, 61
3, 21540, Note_on_c, 1, 62, 0
3, 21540, Note_on_c, 1, 69, 63
3, 21600, Note_on_c, 1, 69, 0
3, 21600, Note_on_c, 1, 64, 72
3, 21660, Note_on_c, 1, 64, 0
3, 21660, Note_on_c, 1, 69, 63
3, 21720, Note_on_c, 1, 69, 0
3, 21720, Note_on_c, 1, 64, 61
3, 21780, Note_on_c, 1, 64, 0
3, 21780, Note_on_c, 1, 69, 60
3, 21840, Note_on_c, 1, 69, 0
3, 21840, Note_on_c, 1, 61, 59
3, 21900, Note_on_c, 1, 61, 0
3, 21900, Note_on_c, 1, 69, 57
3, 21960, Note_on_c, 1, 69, 0
3, 21960, Note_on_c, 1, 61, 56
3, 22020, Note_on_c, 1, 61, 0
3, 22020, Note_on_c, 1, 69, 55
3, 22080, Note_on_c, 1, 69, 0
3, 22080, Note_on_c, 1, 57, 53
3, 22140, Note_on_c, 1, 57, 0
3, 22140, Note_on_c, 1, 55, 52
3, 22200, Note_on_c, 1, 55, 0
3, 22200, Note_on_c, 1, 54, 51
3, 22260, Note_on_c, 1, 54, 0
3, 22260, Note_on_c, 1, 52, 49
3, 22320, Note_on_c, 1, 52, 0
3, 22320, Note_on_c, 1, 50, 48
3, 22440, Note_on_c, 1, 50, 0
3, 22800, Note_on_c, 1, 61, 56
3, 22896, Note_on_c, 1, 61, 0
3, 22920, Note_on_c, 1, 62, 72
3, 23016, Note_on_c, 1, 62, 0
3, 23040, Note_on_c, 1, 50, 48
3, 23160, Note_on_c, 1, 50, 0
3, 23520, Note_on_c, 1, 61, 56
3, 23616, Note_on_c, 1, 61, 0
3, 23640, Note_on_c, 1, 62, 72
3, 23736, Note_on_c, 1, 62, 0
3, 23760, Note_on_c, 1, 50, 48
3, 23880, Note_on_c, 1, 50, 0
3, 24240, Note_on_c, 1, 68, 56
3, 24360, Note_on_c, 1, 68, 0
3, 24360, Note_on_c, 1, 69, 72
3, 24420, Note_on_c, 1, 69, 0
3, 24480, Note_on_c, 1, 66, 56
3, 24600, Note_on_c, 1, 66, 0
3, 24600, Note_on_c, 1, 67, 72
3, 24660, Note_on_c, 1, 67, 0
3, 24720, Note_on_c, 1, 62, 56
3, 24840, Note_on_c, 1, 62, 0
3, 24840, Note_on_c, 1, 61, 72
3, 24900, Note_on_c, 1, 61, 0
3, 24960, Note_on_c, 1, 60, 56
3, 25080, Note_on_c, 1, 60, 0
3, 25080, Note_on_c, 1, 59, 72
3, 25140, Note_on_c, 1, 59, 0
3, 25200, Note_on_c, 1, 57, 56
3, 25320, Note_on_c, 1, 57, 0
3, 25680, Note_on_c, 1, 64, 56
3, 25680, Note_on_c, 1, 57, 56
3, 25680, Note_on_c, 1, 55, 56
3, 25872, Note_on_c, 1, 55, 0
3, 25872, Note_on_c, 1, 57, 0
3, 25872, Note_on_c, 1, 64, 0
3, 25920, Note_on_c, 1, 62, 56
3, 25920, Note_on_c, 1, 57, 56
3, 25920, Note_on_c, 1, 54, 56
3, 26040, Note_on_c, 1, 54, 0
3, 26040, Note_on_c, 1, 57, 0
3, 26040, Note_on_c, 1, 62, 0
3, 26400, Note_on_c, 1, 62, 56
3, 26400, Note_on_c, 1, 57, 56
3, 26400, Note_on_c, 1, 54, 56
3, 26592, Note_on_c, 1, 54, 0
3, 26592, Note_on_c, 1, 57, 0
3, 26592, Note_on_c, 1, 62, 0
3, 26640, Note_on_c, 1, 64, 72
3, 26640, Note_on_c, 1, 59, 72
3, 26640, Note_on_c, 1, 55, 72
3, 26760, Note_on_c, 1, 55, 0
3, 26760, Note_on_c, 1, 59, 0
3, 26760, Note_on_c, 1, 64, 0
3, 26880, Note_on_c, 1, 57, 64
3, 26880, Note_on_c, 1, 66, 64
3, 26880, Note_on_c, 1, 62, 64
3, 27072, Note_on_c, 1, 62, 0
3, 27072, Note_on_c, 1, 66, 0
3, 27120, Note_on_c, 1, 67, 56
3, 27120, Note_on_c, 1, 64, 56
3, 27312, Note_on_c, 1, 64, 0
3, 27312, Note_on_c, 1, 67, 0
3, 27312, Note_on_c, 1, 57, 0
3, 27360, Note_on_c, 1, 62, 48
3, 27360, Note_on_c, 1, 66, 48
3, 27480, Note_on_c, 1, 66, 0
3, 27480, Note_on_c, 1, 62, 0
3, 27840, Note_on_c, 1, 68, 56
3, 27960, Note_on_c, 1, 68, 0
3, 27960, Note_on_c, 1, 69, 72
3, 28020, Note_on_c, 1, 69, 0
3, 28080, Note_on_c, 1, 66, 56
3, 28200, Note_on_c, 1, 66, 0
3, 28200, Note_on_c, 1, 67, 72
3, 28260, Note_on_c, 1, 67, 0
3, 28320, Note_on_c, 1, 62, 56
3, 28440, Note_on_c, 1, 62, 0
3, 28440, Note_on_c, 1, 61, 72
3, 28500, Note_on_c, 1, 61, 0
3, 28560, Note_on_c, 1, 60, 56
3, 28680, Note_on_c, 1, 60, 0
3, 28680, Note_on_c, 1, 59, 72
3, 28740, Note_on_c, 1, 59, 0
3, 28800, Note_on_c, 1, 57, 56
3, 28920, Note_on_c, 1, 57, 0
3, 29160, Note_on_c, 1, 64, 56
3, 29160, Note_on_c, 1, 61, 56
3, 29160, Note_on_c, 1, 57, 56
3, 29220, Note_on_c, 1, 57, 0
3, 29220, Note_on_c, 1, 61, 0
3, 29220, Note_on_c, 1, 64, 0
3, 29280, Note_on_c, 1, 64, 56
3, 29280, Note_on_c, 1, 57, 56
3, 29280, Note_on_c, 1, 55, 56
3, 29340, Note_on_c, 1, 55, 0
3, 29340, Note_on_c, 1, 57, 0
3, 29340, Note_on_c, 1, 64, 0
3, 29400, Note_on_c, 1, 64, 56
3, 29400, Note_on_c, 1, 57, 56
3, 29400, Note_on_c, 1, 55, 56
3, 29520, Note_on_c, 1, 55, 0
3, 29520, Note_on_c, 1, 57, 0
3, 29520, Note_on_c, 1, 64, 0
3, 29520, Note_on_c, 1, 62, 56
3, 29520, Note_on_c, 1, 57, 56
3, 29520, Note_on_c, 1, 54, 56
3, 29688, Note_on_c, 1, 54, 0
3, 29688, Note_on_c, 1, 57, 0
3, 29688, Note_on_c, 1, 62, 0
3, 29880, Note_on_c, 1, 54, 56
3, 29880, Note_on_c, 1, 57, 56
3, 29880, Note_on_c, 1, 62, 56
3, 29940, Note_on_c, 1, 62, 0
3, 29940, Note_on_c, 1, 57, 0
3, 29940, Note_on_c, 1, 54, 0
3, 30000, Note_on_c, 1, 54, 56
3, 30000, Note_on_c, 1, 57, 56
3, 30000, Note_on_c, 1, 62, 56
3, 30060, Note_on_c, 1, 62, 0
3, 30060, Note_on_c, 1, 57, 0
3, 30060, Note_on_c, 1, 54, 0
3, 30120, Note_on_c, 1, 54, 56
3, 30120, Note_on_c, 1, 57, 56
3, 30120, Note_on_c, 1, 62, 56
3, 30240, Note_on_c, 1, 62, 0
3, 30240, Note_on_c, 1, 57, 0
3, 30240, Note_on_c, 1, 54, 0
3, 30240, Note_on_c, 1, 55, 56
3, 30240, Note_on_c, 1, 59, 56
3, 30240, Note_on_c, 1, 64, 56
3, 30480, Note_on_c, 1, 64, 0
3, 30480, Note_on_c, 1, 59, 0
3, 30480, Note_on_c, 1, 55, 0
3, 30480, Note_on_c, 1, 62, 56
3, 30480, Note_on_c, 1, 66, 56
3, 30480, Note_on_c, 1, 57, 56
3, 30720, Note_on_c, 1, 66, 0
3, 30720, Note_on_c, 1, 62, 0
3, 30720, Note_on_c, 1, 64, 56
3, 30720, Note_on_c, 1, 67, 56
3, 30960, Note_on_c, 1, 67, 0
3, 30960, Note_on_c, 1, 64, 0
3, 30960, Note_on_c, 1, 57, 0
3, 30960, Note_on_c, 1, 66, 56
3, 30960, Note_on_c, 1, 62, 56
3, 31152, Note_on_c, 1, 62, 0
3, 31152, Note_on_c, 1, 66, 0
3, 31320, Note_on_c, 1, 57, 56
3, 31380, Note_on_c, 1, 57, 0
3, 31380, Note_on_c, 1, 61, 56
3, 31440, Note_on_c, 1, 61, 0
3, 31440, Note_on_c, 1, 59, 56
3, 31500, Note_on_c, 1, 59, 0
3, 31500, Note_on_c, 1, 62, 56
3, 31560, Note_on_c, 1, 62, 0
3, 31560, Note_on_c, 1, 61, 56
3, 31620, Note_on_c, 1, 61, 0
3, 31620, Note_on_c, 1, 64, 56
3, 31680, Note_on_c, 1, 64, 0
3, 31680, Note_on_c, 1, 62, 56
3, 31800, Note_on_c, 1, 62, 0
3, 32040, Note_on_c, 1, 57, 48
3, 32088, Note_on_c, 1, 57, 0
3, 32100, Note_on_c, 1, 61, 48
3, 32148, Note_on_c, 1, 61, 0
3, 32160, Note_on_c, 1, 59, 48
3, 32208, Note_on_c, 1, 59, 0
3, 32220, Note_on_c, 1, 62, 48
3, 32268, Note_on_c, 1, 62, 0
3, 32280, Note_on_c, 1, 61, 48
3, 32328, Note_on_c, 1, 61, 0
3, 32340, Note_on_c, 1, 64, 48
3, 32388, Note_on_c, 1, 64, 0
3, 32400, Note_on_c, 1, 62, 48
3, 32640, Note_on_c, 1, 62, 0
3, 32640, Note_on_c, 1, 61, 48
3, 32880, Note_on_c, 1, 61, 0
3, 32880, Note_on_c, 1, 59, 48
3, 33120, Note_on_c, 1, 59, 0
3, 33120, Note_on_c, 1, 57, 48
3, 33360, Note_on_c, 1, 57, 0
3, 33360, Note_on_c, 1, 55, 48
3, 33600, Note_on_c, 1, 55, 0
3, 33600, Note_on_c, 1, 54, 48
3, 33840, Note_on_c, 1, 54, 0
3, 33840, Note_on_c, 1, 55, 64
3, 34080, Note_on_c, 1, 55, 0
3, 34080, Note_on_c, 1, 52, 56
3, 34320, Note_on_c, 1, 52, 0
3, 34320, Note_on_c, 1, 57, 56
3, 34512, Note_on_c, 1, 57, 0
3, 34560, Note_on_c, 1, 62, 56
3, 34800, Note_on_c, 1, 62, 0
3, 34800, Note_on_c, 1, 61, 56
3, 35040, Note_on_c, 1, 61, 0
3, 35040, Note_on_c, 1, 59, 56
3, 35280, Note_on_c, 1, 59, 0
3, 35280, Note_on_c, 1, 57, 56
3, 35520, Note_on_c, 1, 57, 0
3, 35520, Note_on_c, 1, 55, 56
3, 35760, Note_on_c, 1, 55, 0
3, 35760, Note_on_c, 1, 54, 56
3, 36000, Note_on_c, 1, 54, 0
3, 36000, Note_on_c, 1, 55, 56
3, 36240, Note_on_c, 1, 55, 0
3, 36240, Note_on_c, 1, 57, 56
3, 36480, Note_on_c, 1, 57, 0
3, 36480, Note_on_c, 1, 45, 56
3, 36720, Note_on_c, 1, 45, 0
3, 36720, Note_on_c, 1, 50, 56
3, 36780, Note_on_c, 1, 50, 0
3, 36780, Note_on_c, 1, 62, 56
3, 36840, Note_on_c, 1, 62, 0
3, 36840, Note_on_c, 1, 61, 56
3, 36900, Note_on_c, 1, 61, 0
3, 36900, Note_on_c, 1, 62, 56
3, 36960, Note_on_c, 1, 62, 0
3, 36960, Note_on_c, 1, 50, 56
3, 37020, Note_on_c, 1, 50, 0
3, 37020, Note_on_c, 1, 62, 56
3, 37080, Note_on_c, 1, 62, 0
3, 37080, Note_on_c, 1, 61, 56
3, 37140, Note_on_c, 1, 61, 0
3, 37140, Note_on_c, 1, 62, 56
3, 37200, Note_on_c, 1, 62, 0
3, 37200, Note_on_c, 1, 50, 56
3, 37260, Note_on_c, 1, 50, 0
3, 37260, Note_on_c, 1, 62, 56
3, 37320, Note_on_c, 1, 62, 0
3, 37320, Note_on_c, 1, 61, 56
3, 37380, Note_on_c, 1, 61, 0
3, 37380, Note_on_c, 1, 62, 56
3, 37440, Note_on_c, 1, 62, 0
3, 37440, Note_on_c, 1, 50, 56
3, 37500, Note_on_c, 1, 50, 0
3, 37500, Note_on_c, 1, 62, 56
3, 37560, Note_on_c, 1, 62, 0
3, 37560, Note_on_c, 1, 61, 56
3, 37620, Note_on_c, 1, 61, 0
3, 37620, Note_on_c, 1, 62, 56
3, 37680, Note_on_c, 1, 62, 0
3, 37680, Note_on_c, 1, 50, 56
3, 37740, Note_on_c, 1, 50, 0
3, 37740, Note_on_c, 1, 62, 56
3, 37800, Note_on_c, 1, 62, 0
3, 37800, Note_on_c, 1, 61, 56
3, 37860, Note_on_c, 1, 61, 0
3, 37860, Note_on_c, 1, 62, 56
3, 37920, Note_on_c, 1, 62, 0
3, 37920, Note_on_c, 1, 50, 56
3, 37980, Note_on_c, 1, 50, 0
3, 37980, Note_on_c, 1, 62, 56
3, 38040, Note_on_c, 1, 62, 0
3, 38040, Note_on_c, 1, 61, 56
3, 38100, Note_on_c, 1, 61, 0
3, 38100, Note_on_c, 1, 62, 56
3, 38160, Note_on_c, 1, 62, 0
3, 38160, Note_on_c, 1, 50, 56
3, 38400, Note_on_c, 1, 50, 0
3, 39120, Note_on_c, 1, 66, 48
3, 39120, Note_on_c, 1, 62, 48
3, 39240, Note_on_c, 1, 62, 0
3, 39240, Note_on_c, 1, 66, 0
3, 39360, Note_on_c, 1, 66, 48
3, 39360, Note_on_c, 1, 62, 48
3, 39480, Note_on_c, 1, 62, 0
3, 39480, Note_on_c, 1, 66, 0
3, 39840, Note_on_c, 1, 64, 48
3, 39840, Note_on_c, 1, 67, 48
3, 39960, Note_on_c, 1, 67, 0
3, 39960, Note_on_c, 1, 64, 0
3, 40080, Note_on_c, 1, 64, 48
3, 40080, Note_on_c, 1, 67, 48
3, 40200, Note_on_c, 1, 67, 0
3, 40200, Note_on_c, 1, 64, 0
3, 40560, Note_on_c, 1, 66, 48
3, 40560, Note_on_c, 1, 69, 48
3, 40680, Note_on_c, 1, 69, 0
3, 40680, Note_on_c, 1, 66, 0
3, 40800, Note_on_c, 1, 66, 48
3, 40800, Note_on_c, 1, 69, 48
3, 40920, Note_on_c, 1, 69, 0
3, 40920, Note_on_c, 1, 66, 0
3, 41280, Note_on_c, 1, 67, 48
3, 41280, Note_on_c, 1, 71, 48
3, 41520, Note_on_c, 1, 71, 0
3, 41520, Note_on_c, 1, 67, 0
3, 41520, Note_on_c, 1, 69, 48
3, 41520, Note_on_c, 1, 73, 48
3, 41760, Note_on_c, 1, 73, 0
3, 41760, Note_on_c, 1, 69, 0
3, 42000, Note_on_c, 1, 54, 48
3, 42000, Note_on_c, 1, 50, 48
3, 42096, Note_on_c, 1, 50, 0
3, 42096, Note_on_c, 1, 54, 0
3, 42240, Note_on_c, 1, 54, 48
3, 42240, Note_on_c, 1, 50, 48
3, 42336, Note_on_c, 1, 50, 0
3, 42336, Note_on_c, 1, 54, 0
3, 42720, Note_on_c, 1, 55, 48
3, 42720, Note_on_c, 1, 52, 48
3, 42816, Note_on_c, 1, 52, 0
3, 42816, Note_on_c, 1, 55, 0
3, 42960, Note_on_c, 1, 55, 48
3, 42960, Note_on_c, 1, 52, 48
3, 43056, Note_on_c, 1, 52, 0
3, 43056, Note_on_c, 1, 55, 0
3, 43440, Note_on_c, 1, 57, 40
3, 43440, Note_on_c, 1, 54, 40
3, 43536, Note_on_c, 1, 54, 0
3, 43536, Note_on_c, 1, 57, 0
3, 43680, Note_on_c, 1, 54, 40
3, 43680, Note_on_c, 1, 57, 40
3, 43776, Note_on_c, 1, 57, 0
3, 43776, Note_on_c, 1, 54, 0
3, 44160, Note_on_c, 1, 59, 56
3, 44160, Note_on_c, 1, 55, 56
3, 44400, Note_on_c, 1, 55, 0
3, 44400, Note_on_c, 1, 59, 0
3, 44400, Note_on_c, 1, 61, 56
3, 44400, Note_on_c, 1, 57, 56
3, 44592, Note_on_c, 1, 57, 0
3, 44592, Note_on_c, 1, 61, 0
3, 44640, Note_on_c, 1, 50, 56
3, 44760, Note_on_c, 1, 50, 0
3, 44760, Note_on_c, 1, 62, 40
3, 44808, Note_on_c, 1, 62, 0
3, 44880, Note_on_c, 1, 62, 40
3, 44928, Note_on_c, 1, 62, 0
3, 45000, Note_on_c, 1, 62, 40
3, 45048, Note_on_c, 1, 62, 0
3, 45120, Note_on_c, 1, 62, 40
3, 45168, Note_on_c, 1, 62, 0
3, 45240, Note_on_c, 1, 62, 40
3, 45288, Note_on_c, 1, 62, 0
3, 45360, Note_on_c, 1, 62, 48
3, 45408, Note_on_c, 1, 62, 0
3, 45480, Note_on_c, 1, 62, 53
3, 45528, Note_on_c, 1, 62, 0
3, 45600, Note_on_c, 1, 62, 59
3, 45648, Note_on_c, 1, 62, 0
3, 45720, Note_on_c, 1, 62, 64
3, 45768, Note_on_c, 1, 62, 0
3, 45840, Note_on_c, 1, 62, 69
3, 45888, Note_on_c, 1, 62, 0
3, 45960, Note_on_c, 1, 62, 75
3, 46008, Note_on_c, 1, 62, 0
3, 46080, Note_on_c, 1, 50, 56
3, 46200, Note_on_c, 1, 50, 0
3, 46200, Note_on_c, 1, 62, 48
3, 46248, Note_on_c, 1, 62, 0
3, 46320, Note_on_c, 1, 62, 48
3, 46368, Note_on_c, 1, 62, 0
3, 46440, Note_on_c, 1, 62, 48
3, 46488, Note_on_c, 1, 62, 0
3, 46560, Note_on_c, 1, 62, 48
3, 46608, Note_on_c, 1, 62, 0
3, 46680, Note_on_c, 1, 62, 48
3, 46728, Note_on_c, 1, 62, 0
3, 46800, Note_on_c, 1, 62, 56
3, 46848, Note_on_c, 1, 62, 0
3, 46920, Note_on_c, 1, 62, 56
3, 46968, Note_on_c, 1, 62, 0
3, 47040, Note_on_c, 1, 62, 56
3, 47088, Note_on_c, 1, 62, 0
3, 47160, Note_on_c, 1, 62, 56
3, 47208, Note_on_c, 1, 62, 0
3, 47280, Note_on_c, 1, 62, 56
3, 47328, Note_on_c, 1, 62, 0
3, 47400, Note_on_c, 1, 62, 56
3, 47448, Note_on_c, 1, 62, 0
3, 47520, Note_on_c, 1, 50, 56
3, 47640, Note_on_c, 1, 50, 0
3, 47640, Note_on_c, 1, 62, 48
3, 47700, Note_on_c, 1, 62, 0
3, 47760, Note_on_c, 1, 62, 48
3, 47820, Note_on_c, 1, 62, 0
3, 47880, Note_on_c, 1, 62, 48
3, 47940, Note_on_c, 1, 62, 0
3, 48000, Note_on_c, 1, 62, 48
3, 48060, Note_on_c, 1, 62, 0
3, 48120, Note_on_c, 1, 62, 48
3, 48180, Note_on_c, 1, 62, 0
3, 48240, Note_on_c, 1, 62, 48
3, 48288, Note_on_c, 1, 62, 0
3, 48360, Note_on_c, 1, 62, 53
3, 48408, Note_on_c, 1, 62, 0
3, 48480, Note_on_c, 1, 62, 59
3, 48528, Note_on_c, 1, 62, 0
3, 48600, Note_on_c, 1, 62, 64
3, 48648, Note_on_c, 1, 62, 0
3, 48720, Note_on_c, 1, 62, 69
3, 48840, Note_on_c, 1, 62, 0
3, 48840, Note_on_c, 1, 62, 75
3, 48960, Note_on_c, 1, 62, 0
3, 48960, Note_on_c, 1, 62, 56
3, 49200, Note_on_c, 1, 62, 0
3, 49320, Note_on_c, 1, 50, 56
3, 49368, Note_on_c, 1, 50, 0
3, 49380, Note_on_c, 1, 52, 56
3, 49428, Note_on_c, 1, 52, 0
3, 49440, Note_on_c, 1, 54, 56
3, 49476, Note_on_c, 1, 54, 0
3, 49560, Note_on_c, 1, 55, 56
3, 49596, Note_on_c, 1, 55, 0
3, 49680, Note_on_c, 1, 57, 56
3, 49872, Note_on_c, 1, 57, 0
3, 50040, Note_on_c, 1, 54, 40
3, 50088, Note_on_c, 1, 54, 0
3, 50100, Note_on_c, 1, 55, 40
3, 50148, Note_on_c, 1, 55, 0
3, 50160, Note_on_c, 1, 57, 40
3, 50196, Note_on_c, 1, 57, 0
3, 50280, Note_on_c, 1, 59, 40
3, 50316, Note_on_c, 1, 59, 0
3, 50400, Note_on_c, 1, 60, 40
3, 50592, Note_on_c, 1, 60, 0
3, 51840, Note_on_c, 1, 55, 48
3, 51960, Note_on_c, 1, 55, 0
3, 51960, Note_on_c, 1, 59, 48
3, 52080, Note_on_c, 1, 59, 0
3, 52080, Note_on_c, 1, 62, 48
3, 52200, Note_on_c, 1, 62, 0
3, 52200, Note_on_c, 1, 59, 48
3, 52320, Note_on_c, 1, 59, 0
3, 52320, Note_on_c, 1, 62, 48
3, 52440, Note_on_c, 1, 62, 0
3, 52440, Note_on_c, 1, 59, 48
3, 52560, Note_on_c, 1, 59, 0
3, 52560, Note_on_c, 1, 57, 48
3, 52680, Note_on_c, 1, 57, 0
3, 52680, Note_on_c, 1, 60, 48
3, 52800, Note_on_c, 1, 60, 0
3, 52800, Note_on_c, 1, 62, 48
3, 52920, Note_on_c, 1, 62, 0
3, 52920, Note_on_c, 1, 60, 48
3, 53040, Note_on_c, 1, 60, 0
3, 53040, Note_on_c, 1, 62, 48
3, 53160, Note_on_c, 1, 62, 0
3, 53160, Note_on_c, 1, 60, 48
3, 53280, Note_on_c, 1, 60, 0
3, 53280, Note_on_c, 1, 54, 48
3, 53400, Note_on_c, 1, 54, 0
3, 53400, Note_on_c, 1, 57, 48
3, 53520, Note_on_c, 1, 57, 0
3, 53520, Note_on_c, 1, 62, 48
3, 53640, Note_on_c, 1, 62, 0
3, 53640, Note_on_c, 1, 57, 48
3, 53760, Note_on_c, 1, 57, 0
3, 53760, Note_on_c, 1, 62, 48
3, 53880, Note_on_c, 1, 62, 0
3, 53880, Note_on_c, 1, 57, 48
3, 54000, Note_on_c, 1, 57, 0
3, 54000, Note_on_c, 1, 55, 48
3, 54060, Note_on_c, 1, 55, 0
3, 54120, Note_on_c, 1, 59, 90
3, 54120, Note_on_c, 1, 62, 90
3, 54240, Note_on_c, 1, 62, 0
3, 54240, Note_on_c, 1, 59, 0
3, 54240, Note_on_c, 1, 57, 72
3, 54240, Note_on_c, 1, 60, 72
3, 54360, Note_on_c, 1, 60, 0
3, 54360, Note_on_c, 1, 57, 0
3, 54360, Note_on_c, 1, 56, 64
3, 54360, Note_on_c, 1, 59, 64
3, 54420, Note_on_c, 1, 59, 0
3, 54420, Note_on_c, 1, 56, 0
3, 54720, Note_on_c, 1, 57, 48
3, 54816, Note_on_c, 1, 57, 0
3, 54840, Note_on_c, 1, 60, 48
3, 54936, Note_on_c, 1, 60, 0
3, 54960, Note_on_c, 1, 64, 48
3, 55056, Note_on_c, 1, 64, 0
3, 55080, Note_on_c, 1, 60, 48
3, 55176, Note_on_c, 1, 60, 0
3, 55200, Note_on_c, 1, 64, 48
3, 55296, Note_on_c, 1, 64, 0
3, 55320, Note_on_c, 1, 60, 48
3, 55416, Note_on_c, 1, 60, 0
3, 55440, Note_on_c, 1, 59, 48
3, 55536, Note_on_c, 1, 59, 0
3, 55560, Note_on_c, 1, 62, 48
3, 55656, Note_on_c, 1, 62, 0
3, 55680, Note_on_c, 1, 64, 48
3, 55776, Note_on_c, 1, 64, 0
3, 55800, Note_on_c, 1, 62, 48
3, 55896, Note_on_c, 1, 62, 0
3, 55920, Note_on_c, 1, 64, 48
3, 56016, Note_on_c, 1, 64, 0
3, 56040, Note_on_c, 1, 62, 48
3, 56136, Note_on_c, 1, 62, 0
3, 56160, Note_on_c, 1, 56, 48
3, 56256, Note_on_c, 1, 56, 0
3, 56280, Note_on_c, 1, 59, 48
3, 56376, Note_on_c, 1, 59, 0
3, 56400, Note_on_c, 1, 64, 48
3, 56496, Note_on_c, 1, 64, 0
3, 56520, Note_on_c, 1, 59, 48
3, 56616, Note_on_c, 1, 59, 0
3, 56640, Note_on_c, 1, 64, 48
3, 56736, Note_on_c, 1, 64, 0
3, 56760, Note_on_c, 1, 59, 48
3, 56856, Note_on_c, 1, 59, 0
3, 56880, Note_on_c, 1, 57, 48
3, 56940, Note_on_c, 1, 57, 0
3, 57000, Note_on_c, 1, 60, 90
3, 57000, Note_on_c, 1, 64, 90
3, 57120, Note_on_c, 1, 64, 0
3, 57120, Note_on_c, 1, 60, 0
3, 57120, Note_on_c, 1, 59, 72
3, 57120, Note_on_c, 1, 62, 72
3, 57240, Note_on_c, 1, 62, 0
3, 57240, Note_on_c, 1, 59, 0
3, 57240, Note_on_c, 1, 57, 64
3, 57240, Note_on_c, 1, 60, 64
3, 57300, Note_on_c, 1, 60, 0
3, 57300, Note_on_c, 1, 57, 0
3, 57600, Note_on_c, 1, 57, 40
3, 57696, Note_on_c, 1, 57, 0
3, 57720, Note_on_c, 1, 60, 40
3, 57816, Note_on_c, 1, 60, 0
3, 57840, Note_on_c, 1, 65, 40
3, 57936, Note_on_c, 1, 65, 0
3, 57960, Note_on_c, 1, 57, 40
3, 58056, Note_on_c, 1, 57, 0
3, 58080, Note_on_c, 1, 59, 40
3, 58176, Note_on_c, 1, 59, 0
3, 58200, Note_on_c, 1, 67, 40
3, 58296, Note_on_c, 1, 67, 0
3, 58320, Note_on_c, 1, 60, 40
3, 58416, Note_on_c, 1, 60, 0
3, 58440, Note_on_c, 1, 67, 40
3, 58536, Note_on_c, 1, 67, 0
3, 58560, Note_on_c, 1, 72, 40
3, 58656, Note_on_c, 1, 72, 0
3, 58680, Note_on_c, 1, 67, 40
3, 58776, Note_on_c, 1, 67, 0
3, 58800, Note_on_c, 1, 64, 40
3, 58896, Note_on_c, 1, 64, 0
3, 58920, Note_on_c, 1, 67, 40
3, 59016, Note_on_c, 1, 67, 0
3, 59040, Note_on_c, 1, 60, 40
3, 59136, Note_on_c, 1, 60, 0
3, 59160, Note_on_c, 1, 64, 40
3, 59256, Note_on_c, 1, 64, 0
3, 59280, Note_on_c, 1, 67, 40
3, 59376, Note_on_c, 1, 67, 0
3, 59400, Note_on_c, 1, 64, 40
3, 59496, Note_on_c, 1, 64, 0
3, 59520, Note_on_c, 1, 60, 40
3, 59616, Note_on_c, 1, 60, 0
3, 59640, Note_on_c, 1, 64, 40
3, 59736, Note_on_c, 1, 64, 0
3, 59760, Note_on_c, 1, 67, 40
3, 59760, Note_on_c, 1, 59, 40
3, 59952, Note_on_c, 1, 59, 0
3, 59952, Note_on_c, 1, 67, 0
3, 60120, Note_on_c, 1, 43, 56
3, 60120, Note_on_c, 1, 31, 56
3, 60180, Note_on_c, 1, 31, 0
3, 60180, Note_on_c, 1, 43, 0
3, 60240, Note_on_c, 1, 45, 56
3, 60240, Note_on_c, 1, 33, 56
3, 60300, Note_on_c, 1, 33, 0
3, 60300, Note_on_c, 1, 45, 0
3, 60360, Note_on_c, 1, 47, 56
3, 60360, Note_on_c, 1, 35, 56
3, 60420, Note_on_c, 1, 35, 0
3, 60420, Note_on_c, 1, 47, 0
3, 60480, Note_on_c, 1, 48, 72
3, 60480, Note_on_c, 1, 36, 72
3, 60600, Note_on_c, 1, 36, 0
3, 60600, Note_on_c, 1, 48, 0
3, 60840, Note_on_c, 1, 45, 56
3, 60840, Note_on_c, 1, 33, 56
3, 60936, Note_on_c, 1, 33, 0
3, 60936, Note_on_c, 1, 45, 0
3, 60960, Note_on_c, 1, 47, 56
3, 60960, Note_on_c, 1, 35, 56
3, 61056, Note_on_c, 1, 35, 0
3, 61056, Note_on_c, 1, 47, 0
3, 61080, Note_on_c, 1, 48, 56
3, 61080, Note_on_c, 1, 36, 56
3, 61176, Note_on_c, 1, 36, 0
3, 61176, Note_on_c, 1, 48, 0
3, 61200, Note_on_c, 1, 50, 56
3, 61200, Note_on_c, 1, 38, 56
3, 61320, Note_on_c, 1, 38, 0
3, 61320, Note_on_c, 1, 50, 0
3, 61560, Note_on_c, 1, 47, 40
3, 61560, Note_on_c, 1, 35, 40
3, 61596, Note_on_c, 1, 35, 0
3, 61596, Note_on_c, 1, 47, 0
3, 61680, Note_on_c, 1, 48, 40
3, 61680, Note_on_c, 1, 36, 40
3, 61716, Note_on_c, 1, 36, 0
3, 61716, Note_on_c, 1, 48, 0
3, 61800, Note_on_c, 1, 50, 40
3, 61800, Note_on_c, 1, 38, 40
3, 61836, Note_on_c, 1, 38, 0
3, 61836, Note_on_c, 1, 50, 0
3, 61920, Note_on_c, 1, 40, 48
3, 61920, Note_on_c, 1, 52, 48
3, 61956, Note_on_c, 1, 52, 0
3, 61956, Note_on_c, 1, 40, 0
3, 62040, Note_on_c, 1, 38, 44
3, 62040, Note_on_c, 1, 50, 44
3, 62076, Note_on_c, 1, 50, 0
3, 62076, Note_on_c, 1, 38, 0
3, 62160, Note_on_c, 1, 36, 48
3, 62160, Note_on_c, 1, 48, 48
3, 62196, Note_on_c, 1, 48, 0
3, 62196, Note_on_c, 1, 36, 0
3, 62280, Note_on_c, 1, 38, 52
3, 62280, Note_on_c, 1, 50, 52
3, 62316, Note_on_c, 1, 50, 0
3, 62316, Note_on_c, 1, 38, 0
3, 62400, Note_on_c, 1, 40, 56
3, 62400, Note_on_c, 1, 52, 56
3, 62436, Note_on_c, 1, 52, 0
3, 62436, Note_on_c, 1, 40, 0
3, 62520, Note_on_c, 1, 42, 60
3, 62520, Note_on_c, 1, 54, 60
3, 62556, Note_on_c, 1, 54, 0
3, 62556, Note_on_c, 1, 42, 0
3, 62640, Note_on_c, 1, 43, 72
3, 62640, Note_on_c, 1, 55, 72
3, 62676, Note_on_c, 1, 55, 0
3, 62676, Note_on_c, 1, 43, 0
3, 62760, Note_on_c, 1, 42, 67
3, 62760, Note_on_c, 1, 54, 67
3, 62796, Note_on_c, 1, 54, 0
3, 62796, Note_on_c, 1, 42, 0
3, 62880, Note_on_c, 1, 40, 69
3, 62880, Note_on_c, 1, 52, 69
3, 62916, Note_on_c, 1, 52, 0
3, 62916, Note_on_c, 1, 40, 0
3, 63000, Note_on_c, 1, 42, 72
3, 63000, Note_on_c, 1, 54, 72
3, 63036, Note_on_c, 1, 54, 0
3, 63036, Note_on_c, 1, 42, 0
3, 63120, Note_on_c, 1, 43, 75
3, 63120, Note_on_c, 1, 55, 75
3, 63156, Note_on_c, 1, 55, 0
3, 63156, Note_on_c, 1, 43, 0
3, 63240, Note_on_c, 1, 45, 77
3, 63240, Note_on_c, 1, 57, 77
3, 63276, Note_on_c, 1, 57, 0
3, 63276, Note_on_c, 1, 45, 0
3, 63360, Note_on_c, 1, 47, 80
3, 63360, Note_on_c, 1, 59, 80
3, 63396, Note_on_c, 1, 59, 0
3, 63396, Note_on_c, 1, 47, 0
3, 63480, Note_on_c, 1, 45, 83
3, 63480, Note_on_c, 1, 57, 83
3, 63516, Note_on_c, 1, 57, 0
3, 63516, Note_on_c, 1, 45, 0
3, 63600, Note_on_c, 1, 43, 85
3, 63600, Note_on_c, 1, 55, 85
3, 63636, Note_on_c, 1, 55, 0
3, 63636, Note_on_c, 1, 43, 0
3, 63720, Note_on_c, 1, 45, 88
3, 63720, Note_on_c, 1, 57, 88
3, 63756, Note_on_c, 1, 57, 0
3, 63756, Note_on_c, 1, 45, 0
3, 63840, Note_on_c, 1, 47, 91
3, 63840, Note_on_c, 1, 59, 91
3, 63876, Note_on_c, 1, 59, 0
3, 63876, Note_on_c, 1, 47, 0
3, 63960, Note_on_c, 1, 49, 93
3, 63960, Note_on_c, 1, 61, 93
3, 63996, Note_on_c, 1, 61, 0
3, 63996, Note_on_c, 1, 49, 0
3, 64080, Note_on_c, 1, 62, 96
3, 64080, Note_on_c, 1, 50, 96
3, 64152, Note_on_c, 1, 50, 0
3, 64152, Note_on_c, 1, 62, 0
3, 64320, Note_on_c, 1, 50, 96
3, 64320, Note_on_c, 1, 38, 96
3, 64512, Note_on_c, 1, 38, 0
3, 64512, Note_on_c, 1, 50, 0
3, 64800, Note_on_c, 1, 59, 40
3, 64920, Note_on_c, 1, 59, 0
3, 64920, Note_on_c, 1, 62, 40
3, 65040, Note_on_c, 1, 62, 0
3, 65040, Note_on_c, 1, 57, 40
3, 65160, Note_on_c, 1, 57, 0
3, 65160, Note_on_c, 1, 62, 40
3, 65280, Note_on_c, 1, 62, 0
3, 65280, Note_on_c, 1, 55, 40
3, 65400, Note_on_c, 1, 55, 0
3, 65400, Note_on_c, 1, 62, 40
3, 65520, Note_on_c, 1, 62, 0
3, 65520, Note_on_c, 1, 54, 40
3, 65640, Note_on_c, 1, 54, 0
3, 65640, Note_on_c, 1, 62, 40
3, 65760, Note_on_c, 1, 62, 0
3, 65760, Note_on_c, 1, 52, 40
3, 65880, Note_on_c, 1, 52, 0
3, 65880, Note_on_c, 1, 62, 40
3, 66000, Note_on_c, 1, 62, 0
3, 66000, Note_on_c, 1, 50, 40
3, 66120, Note_on_c, 1, 50, 0
3, 66120, Note_on_c, 1, 62, 40
3, 66240, Note_on_c, 1, 62, 0
3, 66240, Note_on_c, 1, 52, 40
3, 66360, Note_on_c, 1, 52, 0
3, 66360, Note_on_c, 1, 62, 43
3, 66480, Note_on_c, 1, 62, 0
3, 66480, Note_on_c, 1, 54, 45
3, 66600, Note_on_c, 1, 54, 0
3, 66600, Note_on_c, 1, 62, 48
3, 66720, Note_on_c, 1, 62, 0
3, 66720, Note_on_c, 1, 55, 51
3, 66840, Note_on_c, 1, 55, 0
3, 66840, Note_on_c, 1, 62, 53
3, 66960, Note_on_c, 1, 62, 0
3, 66960, Note_on_c, 1, 57, 56
3, 67080, Note_on_c, 1, 57, 0
3, 67080, Note_on_c, 1, 62, 53
3, 67200, Note_on_c, 1, 62, 0
3, 67200, Note_on_c, 1, 54, 51
3, 67320, Note_on_c, 1, 54, 0
3, 67320, Note_on_c, 1, 62, 48
3, 67440, Note_on_c, 1, 62, 0
3, 67440, Note_on_c, 1, 50, 45
3, 67560, Note_on_c, 1, 50, 0
3, 67560, Note_on_c, 1, 62, 43
3, 67680, Note_on_c, 1, 62, 0
3, 67680, Note_on_c, 1, 71, 40
3, 67740, Note_on_c, 1, 71, 0
3, 67740, Note_on_c, 1, 74, 40
3, 67800, Note_on_c, 1, 74, 0
3, 67800, Note_on_c, 1, 71, 40
3, 67860, Note_on_c, 1, 71, 0
3, 67860, Note_on_c, 1, 74, 40
3, 67920, Note_on_c, 1, 74, 0
3, 67920, Note_on_c, 1, 69, 40
3, 67980, Note_on_c, 1, 69, 0
3, 67980, Note_on_c, 1, 74, 40
3, 68040, Note_on_c, 1, 74, 0
3, 68040, Note_on_c, 1, 69, 40
3, 68100, Note_on_c, 1, 69, 0
3, 68100, Note_on_c, 1, 74, 40
3, 68160, Note_on_c, 1, 74, 0
3, 68160, Note_on_c, 1, 67, 40
3, 68220, Note_on_c, 1, 67, 0
3, 68220, Note_on_c, 1, 74, 40
3, 68280, Note_on_c, 1, 74, 0
3, 68280, Note_on_c, 1, 67, 40
3, 68340, Note_on_c, 1, 67, 0
3, 68340, Note_on_c, 1, 74, 40
3, 68400, Note_on_c, 1, 74, 0
3, 68400, Note_on_c, 1, 66, 40
3, 68460, Note_on_c, 1, 66, 0
3, 68460, Note_on_c, 1, 74, 40
3, 68520, Note_on_c, 1, 74, 0
3, 68520, Note_on_c, 1, 66, 40
3, 68580, Note_on_c, 1, 66, 0
3, 68580, Note_on_c, 1, 74, 40
3, 68640, Note_on_c, 1, 74, 0
3, 68640, Note_on_c, 1, 64, 40
3, 68700, Note_on_c, 1, 64, 0
3, 68700, Note_on_c, 1, 74, 40
3, 68760, Note_on_c, 1, 74, 0
3, 68760, Note_on_c, 1, 64, 40
3, 68820, Note_on_c, 1, 64, 0
3, 68820, Note_on_c, 1, 74, 40
3, 68880, Note_on_c, 1, 74, 0
3, 68880, Note_on_c, 1, 62, 40
3, 68940, Note_on_c, 1, 62, 0
3, 68940, Note_on_c, 1, 74, 40
3, 69000, Note_on_c, 1, 74, 0
3, 69000, Note_on_c, 1, 62, 40
3, 69060, Note_on_c, 1, 62, 0
3, 69060, Note_on_c, 1, 74, 40
3, 69120, Note_on_c, 1, 74, 0
3, 69120, Note_on_c, 1, 64, 40
3, 69168, Note_on_c, 1, 64, 0
3, 69180, Note_on_c, 1, 74, 41
3, 69228, Note_on_c, 1, 74, 0
3, 69240, Note_on_c, 1, 64, 43
3, 69288, Note_on_c, 1, 64, 0
3, 69300, Note_on_c, 1, 74, 44
3, 69348, Note_on_c, 1, 74, 0
3, 69360, Note_on_c, 1, 66, 45
3, 69408, Note_on_c, 1, 66, 0
3, 69420, Note_on_c, 1, 74, 47
3, 69468, Note_on_c, 1, 74, 0
3, 69480, Note_on_c, 1, 66, 48
3, 69528, Note_on_c, 1, 66, 0
3, 69540, Note_on_c, 1, 74, 49
3, 69588, Note_on_c, 1, 74, 0
3, 69600, Note_on_c, 1, 67, 51
3, 69648, Note_on_c, 1, 67, 0
3, 69660, Note_on_c, 1, 74, 52
3, 69708, Note_on_c, 1, 74, 0
3, 69720, Note_on_c, 1, 67, 53
3, 69768, Note_on_c, 1, 67, 0
3, 69780, Note_on_c, 1, 74, 55
3, 69828, Note_on_c, 1, 74, 0
3, 69840, Note_on_c, 1, 69, 56
3, 69888, Note_on_c, 1, 69, 0
3, 69900, Note_on_c, 1, 74, 55
3, 69948, Note_on_c, 1, 74, 0
3, 69960, Note_on_c, 1, 69, 53
3, 70008, Note_on_c, 1, 69, 0
3, 70020, Note_on_c, 1, 74, 52
3, 70068, Note_on_c, 1, 74, 0
3, 70080, Note_on_c, 1, 66, 51
3, 70128, Note_on_c, 1, 66, 0
3, 70140, Note_on_c, 1, 74, 49
3, 70188, Note_on_c, 1, 74, 0
3, 70200, Note_on_c, 1, 66, 48
3, 70200, Note_on_c, 1, 66, 48
3, 70248, Note_on_c, 1, 66, 0
3, 70248, Note_on_c, 1, 66, 0
3, 70260, Note_on_c, 1, 74, 47
3, 70308, Note_on_c, 1, 74, 0
3, 70320, Note_on_c, 1, 62, 64
3, 70368, Note_on_c, 1, 62, 0
3, 70380, Note_on_c, 1, 60, 68
3, 70428, Note_on_c, 1, 60, 0
3, 70440, Note_on_c, 1, 59, 72
3, 70488, Note_on_c, 1, 59, 0
3, 70500, Note_on_c, 1, 57, 76
3, 70548, Note_on_c, 1, 57, 0
3, 70560, Note_on_c, 1, 43, 80
3, 70560, Note_on_c, 1, 55, 80
3, 70632, Note_on_c, 1, 55, 0
3, 70632, Note_on_c, 1, 43, 0
3, 71040, Note_on_c, 1, 54, 56
3, 71136, Note_on_c, 1, 54, 0
3, 71160, Note_on_c, 1, 55, 72
3, 71208, Note_on_c, 1, 55, 0
3, 71280, Note_on_c, 1, 43, 40
3, 71376, Note_on_c, 1, 43, 0
3, 71760, Note_on_c, 1, 54, 56
3, 71856, Note_on_c, 1, 54, 0
3, 71880, Note_on_c, 1, 55, 72
3, 71928, Note_on_c, 1, 55, 0
3, 72000, Note_on_c, 1, 43, 40
3, 72096, Note_on_c, 1, 43, 0
3, 72480, Note_on_c, 1, 61, 56
3, 72576, Note_on_c, 1, 61, 0
3, 72600, Note_on_c, 1, 62, 72
3, 72648, Note_on_c, 1, 62, 0
3, 72720, Note_on_c, 1, 59, 56
3, 72816, Note_on_c, 1, 59, 0
3, 72840, Note_on_c, 1, 60, 72
3, 72888, Note_on_c, 1, 60, 0
3, 72960, Note_on_c, 1, 55, 56
3, 73056, Note_on_c, 1, 55, 0
3, 73080, Note_on_c, 1, 54, 72
3, 73128, Note_on_c, 1, 54, 0
3, 73200, Note_on_c, 1, 53, 56
3, 73296, Note_on_c, 1, 53, 0
3, 73320, Note_on_c, 1, 52, 72
3, 73368, Note_on_c, 1, 52, 0
3, 73440, Note_on_c, 1, 50, 56
3, 73632, Note_on_c, 1, 50, 0
3, 73920, Note_on_c, 1, 57, 56
3, 73920, Note_on_c, 1, 50, 56
3, 73920, Note_on_c, 1, 48, 56
3, 74112, Note_on_c, 1, 48, 0
3, 74112, Note_on_c, 1, 50, 0
3, 74112, Note_on_c, 1, 57, 0
3, 74160, Note_on_c, 1, 47, 56
3, 74160, Note_on_c, 1, 50, 56
3, 74160, Note_on_c, 1, 55, 56
3, 74256, Note_on_c, 1, 55, 0
3, 74256, Note_on_c, 1, 50, 0
3, 74256, Note_on_c, 1, 47, 0
3, 74640, Note_on_c, 1, 47, 56
3, 74640, Note_on_c, 1, 50, 56
3, 74640, Note_on_c, 1, 55, 56
3, 74832, Note_on_c, 1, 55, 0
3, 74832, Note_on_c, 1, 50, 0
3, 74832, Note_on_c, 1, 47, 0
3, 74880, Note_on_c, 1, 48, 64
3, 74880, Note_on_c, 1, 57, 64
3, 74880, Note_on_c, 1, 52, 64
3, 74976, Note_on_c, 1, 52, 0
3, 74976, Note_on_c, 1, 57, 0
3, 74976, Note_on_c, 1, 48, 0
3, 75120, Note_on_c, 1, 59, 56
3, 75120, Note_on_c, 1, 55, 56
3, 75120, Note_on_c, 1, 50, 56
3, 75360, Note_on_c, 1, 55, 0
3, 75360, Note_on_c, 1, 59, 0
3, 75360, Note_on_c, 1, 60, 48
3, 75360, Note_on_c, 1, 57, 48
3, 75600, Note_on_c, 1, 57, 0
3, 75600, Note_on_c, 1, 60, 0
3, 75600, Note_on_c, 1, 50, 0
3, 75600, Note_on_c, 1, 59, 40
3, 75600, Note_on_c, 1, 55, 40
3, 75696, Note_on_c, 1, 55, 0
3, 75696, Note_on_c, 1, 59, 0
3, 76080, Note_on_c, 1, 61, 56
3, 76200, Note_on_c, 1, 61, 0
3, 76200, Note_on_c, 1, 62, 1
3, 76248, Note_on_c, 1, 62, 0
3, 76320, Note_on_c, 1, 59, 56
3, 76440, Note_on_c, 1, 59, 0
3, 76440, Note_on_c, 1, 60, 72
3, 76488, Note_on_c, 1, 60, 0
3, 76560, Note_on_c, 1, 55, 56
3, 76680, Note_on_c, 1, 55, 0
3, 76680, Note_on_c, 1, 54, 72
3, 76728, Note_on_c, 1, 54, 0
3, 76800, Note_on_c, 1, 53, 56
3, 76920, Note_on_c, 1, 53, 0
3, 76920, Note_on_c, 1, 52, 72
3, 76968, Note_on_c, 1, 52, 0
3, 77040, Note_on_c, 1, 50, 56
3, 77232, Note_on_c, 1, 50, 0
3, 77400, Note_on_c, 1, 62, 56
3, 77400, Note_on_c, 1, 66, 56
3, 77400, Note_on_c, 1, 69, 56
3, 77448, Note_on_c, 1, 69, 0
3, 77448, Note_on_c, 1, 66, 0
3, 77448, Note_on_c, 1, 62, 0
3, 77520, Note_on_c, 1, 60, 56
3, 77520, Note_on_c, 1, 62, 56
3, 77520, Note_on_c, 1, 69, 56
3, 77568, Note_on_c, 1, 69, 0
3, 77568, Note_on_c, 1, 62, 0
3, 77568, Note_on_c, 1, 60, 0
3, 77640, Note_on_c, 1, 60, 56
3, 77640, Note_on_c, 1, 62, 56
3, 77640, Note_on_c, 1, 69, 56
3, 77736, Note_on_c, 1, 69, 0
3, 77736, Note_on_c, 1, 62, 0
3, 77736, Note_on_c, 1, 60, 0
3, 77760, Note_on_c, 1, 59, 56
3, 77760, Note_on_c, 1, 62, 56
3, 77760, Note_on_c, 1, 67, 56
3, 77952, Note_on_c, 1, 67, 0
3, 77952, Note_on_c, 1, 62, 0
3, 77952, Note_on_c, 1, 59, 0
3, 78120, Note_on_c, 1, 67, 56
3, 78120, Note_on_c, 1, 62, 56
3, 78120, Note_on_c, 1, 59, 56
3, 78168, Note_on_c, 1, 59, 0
3, 78168, Note_on_c, 1, 62, 0
3, 78168, Note_on_c, 1, 67, 0
3, 78240, Note_on_c, 1, 67, 56
3, 78240, Note_on_c, 1, 62, 56
3, 78240, Note_on_c, 1, 59, 56
3, 78288, Note_on_c, 1, 59, 0
3, 78288, Note_on_c, 1, 62, 0
3, 78288, Note_on_c, 1, 67, 0
3, 78360, Note_on_c, 1, 67, 56
3, 78360, Note_on_c, 1, 62, 56
3, 78360, Note_on_c, 1, 59, 56
3, 78456, Note_on_c, 1, 59, 0
3, 78456, Note_on_c, 1, 62, 0
3, 78456, Note_on_c, 1, 67, 0
3, 78480, Note_on_c, 1, 60, 56
3, 78480, Note_on_c, 1, 64, 56
3, 78480, Note_on_c, 1, 67, 56
3, 78672, Note_on_c, 1, 67, 0
3, 78672, Note_on_c, 1, 64, 0
3, 78672, Note_on_c, 1, 60, 0
3, 78720, Note_on_c, 1, 62, 56
3, 78720, Note_on_c, 1, 67, 56
3, 78720, Note_on_c, 1, 71, 56
3, 78960, Note_on_c, 1, 71, 0
3, 78960, Note_on_c, 1, 67, 0
3, 78960, Note_on_c, 1, 69, 56
3, 78960, Note_on_c, 1, 72, 56
3, 79200, Note_on_c, 1, 72, 0
3, 79200, Note_on_c, 1, 69, 0
3, 79200, Note_on_c, 1, 62, 0
3, 79200, Note_on_c, 1, 67, 56
3, 79200, Note_on_c, 1, 71, 56
3, 79392, Note_on_c, 1, 71, 0
3, 79392, Note_on_c, 1, 67, 0
3, 79560, Note_on_c, 1, 62, 56
3, 79608, Note_on_c, 1, 62, 0
3, 79620, Note_on_c, 1, 66, 56
3, 79668, Note_on_c, 1, 66, 0
3, 79680, Note_on_c, 1, 64, 56
3, 79728, Note_on_c, 1, 64, 0
3, 79740, Note_on_c, 1, 67, 56
3, 79788, Note_on_c, 1, 67, 0
3, 79800, Note_on_c, 1, 66, 56
3, 79848, Note_on_c, 1, 66, 0
3, 79860, Note_on_c, 1, 69, 56
3, 79908, Note_on_c, 1, 69, 0
3, 79920, Note_on_c, 1, 67, 56
3, 80112, Note_on_c, 1, 67, 0
3, 80280, Note_on_c, 1, 50, 40
3, 80340, Note_on_c, 1, 50, 0
3, 80340, Note_on_c, 1, 54, 40
3, 80400, Note_on_c, 1, 54, 0
3, 80400, Note_on_c, 1, 52, 40
3, 80460, Note_on_c, 1, 52, 0
3, 80460, Note_on_c, 1, 55, 40
3, 80520, Note_on_c, 1, 55, 0
3, 80520, Note_on_c, 1, 54, 40
3, 80580, Note_on_c, 1, 54, 0
3, 80580, Note_on_c, 1, 57, 40
3, 80640, Note_on_c, 1, 57, 0
3, 80640, Note_on_c, 1, 55, 40
3, 80880, Note_on_c, 1, 55, 0
3, 80880, Note_on_c, 1, 54, 40
3, 81120, Note_on_c, 1, 54, 0
3, 81120, Note_on_c, 1, 52, 40
3, 81360, Note_on_c, 1, 52, 0
3, 81360, Note_on_c, 1, 50, 40
3, 81600, Note_on_c, 1, 50, 0
3, 81600, Note_on_c, 1, 48, 40
3, 81840, Note_on_c, 1, 48, 0
3, 81840, Note_on_c, 1, 47, 40
3, 82080, Note_on_c, 1, 47, 0
3, 82080, Note_on_c, 1, 48, 48
3, 82272, Note_on_c, 1, 48, 0
3, 82320, Note_on_c, 1, 45, 51
3, 82512, Note_on_c, 1, 45, 0
3, 82560, Note_on_c, 1, 50, 61
3, 82752, Note_on_c, 1, 50, 0
3, 82800, Note_on_c, 1, 67, 56
3, 83040, Note_on_c, 1, 67, 0
3, 83040, Note_on_c, 1, 66, 61
3, 83280, Note_on_c, 1, 66, 0
3, 83280, Note_on_c, 1, 64, 67
3, 83520, Note_on_c, 1, 64, 0
3, 83520, Note_on_c, 1, 62, 56
3, 83760, Note_on_c, 1, 62, 0
3, 83760, Note_on_c, 1, 60, 61
3, 84000, Note_on_c, 1, 60, 0
3, 84000, Note_on_c, 1, 59, 67
3, 84240, Note_on_c, 1, 59, 0
3, 84240, Note_on_c, 1, 60, 72
3, 84480, Note_on_c, 1, 60, 0
3, 84480, Note_on_c, 1, 62, 77
3, 84720, Note_on_c, 1, 62, 0
3, 84720, Note_on_c, 1, 50, 83
3, 84960, Note_on_c, 1, 50, 0
3, 84960, Note_on_c, 1, 43, 80
3, 85020, Note_on_c, 1, 43, 0
3, 85020, Note_on_c, 1, 55, 56
3, 85080, Note_on_c, 1, 55, 0
3, 85080, Note_on_c, 1, 54, 56
3, 85140, Note_on_c, 1, 54, 0
3, 85140, Note_on_c, 1, 55, 56
3, 85200, Note_on_c, 1, 55, 0
3, 85200, Note_on_c, 1, 43, 56
3, 85260, Note_on_c, 1, 43, 0
3, 85260, Note_on_c, 1, 55, 56
3, 85320, Note_on_c, 1, 55, 0
3, 85320, Note_on_c, 1, 54, 56
3, 85380, Note_on_c, 1, 54, 0
3, 85380, Note_on_c, 1, 55, 56
3, 85440, Note_on_c, 1, 55, 0
3, 85440, Note_on_c, 1, 43, 56
3, 85500, Note_on_c, 1, 43, 0
3, 85500, Note_on_c, 1, 55, 56
3, 85560, Note_on_c, 1, 55, 0
3, 85560, Note_on_c, 1, 54, 56
3, 85620, Note_on_c, 1, 54, 0
3, 85620, Note_on_c, 1, 55, 56
3, 85680, Note_on_c, 1, 55, 0
3, 85680, Note_on_c, 1, 43, 56
3, 85740, Note_on_c, 1, 43, 0
3, 85740, Note_on_c, 1, 55, 56
3, 85800, Note_on_c, 1, 55, 0
3, 85800, Note_on_c, 1, 54, 56
3, 85860, Note_on_c, 1, 54, 0
3, 85860, Note_on_c, 1, 55, 56
3, 85920, Note_on_c, 1, 55, 0
3, 85920, Note_on_c, 1, 43, 56
3, 85980, Note_on_c, 1, 43, 0
3, 85980, Note_on_c, 1, 55, 92
3, 86040, Note_on_c, 1, 55, 0
3, 86040, Note_on_c, 1, 54, 92
3, 86100, Note_on_c, 1, 54, 0
3, 86100, Note_on_c, 1, 55, 92
3, 86160, Note_on_c, 1, 55, 0
3, 86160, Note_on_c, 1, 43, 92
3, 86220, Note_on_c, 1, 43, 0
3, 86220, Note_on_c, 1, 55, 92
3, 86280, Note_on_c, 1, 55, 0
3, 86280, Note_on_c, 1, 54, 92
3, 86340, Note_on_c, 1, 54, 0
3, 86340, Note_on_c, 1, 55, 92
3, 86400, Note_on_c, 1, 55, 0
3, 86400, Note_on_c, 1, 43, 92
3, 86640, Note_on_c, 1, 43, 0
3, 86640, End_track
4, 0, Start_track
4, 0, MIDI_port, 0
4, 0, Title_t, "MIDI by Marty Weimer 1/16/96"
4, 0, End_track
5, 0, Start_track
5, 0, MIDI_port, 0
5, 0, Title_t, "weimermt@libby.org  Eureka, MT"
5, 0, End_track
0, 0, End_of_file
