0, 0, Header, 1, 7, 120
1, 0, Start_track
1, 0, Time_signature, 4, 2, 24, 8
1, 0, Key_signature, -1, "major"
1, 0, Tempo, 400000
1, 363, Tempo, 800000
1, 480, Tempo, 400000
1, 12480, Tempo, 400000
1, 12489, Tempo, 402685
1, 12499, Tempo, 405405
1, 12508, Tempo, 408163
1, 12518, Tempo, 410959
1, 12527, Tempo, 413793
1, 12537, Tempo, 416667
1, 12547, Tempo, 419580
1, 12556, Tempo, 422535
1, 12566, Tempo, 425532
1, 12575, Tempo, 428571
1, 12585, Tempo, 431655
1, 12594, Tempo, 434783
1, 12604, Tempo, 437956
1, 12614, Tempo, 441176
1, 12623, Tempo, 444444
1, 12633, Tempo, 447761
1, 12642, Tempo, 451128
1, 12652, Tempo, 454545
1, 12662, Tempo, 458015
1, 12671, Tempo, 461538
1, 12681, Tempo, 465116
1, 12690, Tempo, 468750
1, 12700, Tempo, 472441
1, 12709, Tempo, 476190
1, 12719, Tempo, 480000
1, 12729, Tempo, 483871
1, 12738, Tempo, 487805
1, 12748, Tempo, 491803
1, 12757, Tempo, 495868
1, 12767, Tempo, 500000
1, 12776, Tempo, 504202
1, 12786, Tempo, 508475
1, 12796, Tempo, 512821
1, 12805, Tempo, 517241
1, 12815, Tempo, 521739
1, 12824, Tempo, 526316
1, 12834, Tempo, 530973
1, 12844, Tempo, 535714
1, 12853, Tempo, 540541
1, 12863, Tempo, 545455
1, 12872, Tempo, 550459
1, 12882, Tempo, 555556
1, 12891, Tempo, 560748
1, 12901, Tempo, 566038
1, 12911, Tempo, 571429
1, 12920, Tempo, 576923
1, 12930, Tempo, 582524
1, 12939, Tempo, 588235
1, 12949, Tempo, 594059
1, 12959, Tempo, 600000
1, 12960, Tempo, 400000
1, 19680, Tempo, 400000
1, 19681, Tempo, 405405
1, 19682, Tempo, 408163
1, 19683, Tempo, 410959
1, 19684, Tempo, 413793
1, 19685, Tempo, 416667
1, 19686, Tempo, 419580
1, 19687, Tempo, 422535
1, 19688, Tempo, 425532
1, 19689, Tempo, 428571
1, 19690, Tempo, 431655
1, 19691, Tempo, 434783
1, 19692, Tempo, 437956
1, 19693, Tempo, 444444
1, 19694, Tempo, 447761
1, 19695, Tempo, 451128
1, 19696, Tempo, 454545
1, 19697, Tempo, 458015
1, 19698, Tempo, 461538
1, 19699, Tempo, 465116
1, 19700, Tempo, 468750
1, 19701, Tempo, 472441
1, 19702, Tempo, 476190
1, 19703, Tempo, 480000
1, 19704, Tempo, 483871
1, 19705, Tempo, 491803
1, 19706, Tempo, 495868
1, 19707, Tempo, 500000
1, 19708, Tempo, 504202
1, 19709, Tempo, 508475
1, 19710, Tempo, 512821
1, 19711, Tempo, 517241
1, 19712, Tempo, 521739
1, 19713, Tempo, 526316
1, 19714, Tempo, 530973
1, 19715, Tempo, 535714
1, 19716, Tempo, 540541
1, 19717, Tempo, 550459
1, 19718, Tempo, 555556
1, 19719, Tempo, 560748
1, 19720, Tempo, 566038
1, 19721, Tempo, 571429
1, 19722, Tempo, 576923
1, 19723, Tempo, 582524
1, 19724, Tempo, 588235
1, 19725, Tempo, 594059
1, 19726, Tempo, 600000
1, 19727, Tempo, 606061
1, 19728, Tempo, 612245
1, 19729, Tempo, 625000
1, 19730, Tempo, 631579
1, 19731, Tempo, 638298
1, 19732, Tempo, 645161
1, 19733, Tempo, 652174
1, 19734, Tempo, 659341
1, 19735, Tempo, 666667
1, 19736, Tempo, 674157
1, 19737, Tempo, 681818
1, 19738, Tempo, 689655
1, 19739, Tempo, 697674
1, 19740, Tempo, 705882
1, 19741, Tempo, 722892
1, 19742, Tempo, 731707
1, 19743, Tempo, 740741
1, 19744, Tempo, 750000
1, 19745, Tempo, 759494
1, 19746, Tempo, 769231
1, 19747, Tempo, 779221
1, 19748, Tempo, 789474
1, 19749, Tempo, 800000
1, 19750, Tempo, 810811
1, 19751, Tempo, 821918
1, 19752, Tempo, 833333
1, 19753, Tempo, 857143
1, 19754, Tempo, 869565
1, 19755, Tempo, 882353
1, 19756, Tempo, 895522
1, 19757, Tempo, 909091
1, 19758, Tempo, 923077
1, 19759, Tempo, 937500
1, 19760, Tempo, 952381
1, 19761, Tempo, 967742
1, 19762, Tempo, 983607
1, 19763, Tempo, 1000000
1, 19764, Tempo, 1016949
1, 19765, Tempo, 1052632
1, 19766, Tempo, 1071429
1, 19767, Tempo, 1090909
1, 19768, Tempo, 1111111
1, 19769, Tempo, 1132075
1, 19770, Tempo, 1153846
1, 19771, Tempo, 1176471
1, 19772, Tempo, 1200000
1, 19773, Tempo, 1224490
1, 19774, Tempo, 1250000
1, 19775, Tempo, 1276596
1, 19776, Tempo, 1304348
1, 19777, Tempo, 1363636
1, 19778, Tempo, 1395349
1, 19779, Tempo, 1428571
1, 19780, Tempo, 1463415
1, 19781, Tempo, 1500000
1, 19782, Tempo, 1538462
1, 19783, Tempo, 1578947
1, 19784, Tempo, 1621622
1, 19785, Tempo, 1666667
1, 19786, Tempo, 1714286
1, 19787, Tempo, 1764706
1, 19788, Tempo, 1818182
1, 19789, Tempo, 1935484
1, 19790, Tempo, 2000000
1, 19791, Tempo, 2068966
1, 19792, Tempo, 2142857
1, 19793, Tempo, 2222222
1, 19794, Tempo, 2307692
1, 19795, Tempo, 2400000
1, 19796, Tempo, 2500000
1, 19797, Tempo, 2608696
1, 19798, Tempo, 2727273
1, 19799, Tempo, 2857143
1, 19800, Tempo, 3000000
1, 19801, Tempo, 400000
1, 19801, End_track
2, 0, Start_track
2, 0, MIDI_port, 0
2, 0, Program_c, 0, 0
2, 0, Control_c, 0, 7, 127
2, 0, Control_c, 0, 10, 84
2, 0, Control_c, 0, 121, 0
2, 0, Control_c, 0, 91, 75
2, 361, Note_on_c, 0, 72, 76
2, 481, Note_on_c, 0, 72, 0
2, 481, Note_on_c, 0, 70, 60
2, 541, Note_on_c, 0, 69, 55
2, 543, Note_on_c, 0, 70, 0
2, 601, Note_on_c, 0, 67, 64
2, 603, Note_on_c, 0, 69, 0
2, 659, Note_on_c, 0, 67, 0
2, 661, Note_on_c, 0, 65, 60
2, 719, Note_on_c, 0, 65, 0
2, 720, Note_on_c, 0, 69, 64
2, 771, Note_on_c, 0, 69, 0
2, 779, Note_on_c, 0, 67, 62
2, 837, Note_on_c, 0, 67, 0
2, 839, Note_on_c, 0, 70, 53
2, 899, Note_on_c, 0, 64, 56
2, 904, Note_on_c, 0, 70, 0
2, 951, Note_on_c, 0, 64, 0
2, 959, Note_on_c, 0, 65, 76
2, 983, Note_on_c, 0, 65, 0
2, 1079, Note_on_c, 0, 60, 68
2, 1105, Note_on_c, 0, 60, 0
2, 1199, Note_on_c, 0, 72, 76
2, 1423, Note_on_c, 0, 72, 0
2, 1439, Note_on_c, 0, 70, 64
2, 1499, Note_on_c, 0, 69, 64
2, 1503, Note_on_c, 0, 70, 0
2, 1559, Note_on_c, 0, 67, 64
2, 1560, Note_on_c, 0, 69, 0
2, 1619, Note_on_c, 0, 67, 0
2, 1619, Note_on_c, 0, 65, 62
2, 1679, Note_on_c, 0, 69, 64
2, 1682, Note_on_c, 0, 65, 0
2, 1733, Note_on_c, 0, 69, 0
2, 1739, Note_on_c, 0, 67, 59
2, 1799, Note_on_c, 0, 70, 62
2, 1803, Note_on_c, 0, 67, 0
2, 1859, Note_on_c, 0, 64, 62
2, 1860, Note_on_c, 0, 70, 0
2, 1912, Note_on_c, 0, 64, 0
2, 1919, Note_on_c, 0, 65, 57
2, 2390, Note_on_c, 0, 65, 0
2, 2400, Note_on_c, 0, 66, 72
2, 2459, Note_on_c, 0, 67, 64
2, 2460, Note_on_c, 0, 66, 0
2, 2519, Note_on_c, 0, 69, 89
2, 2524, Note_on_c, 0, 67, 0
2, 2579, Note_on_c, 0, 70, 64
2, 2587, Note_on_c, 0, 69, 0
2, 2641, Note_on_c, 0, 70, 0
2, 2641, Note_on_c, 0, 72, 76
2, 2701, Note_on_c, 0, 73, 76
2, 2702, Note_on_c, 0, 72, 0
2, 2759, Note_on_c, 0, 74, 80
2, 2760, Note_on_c, 0, 73, 0
2, 2819, Note_on_c, 0, 76, 89
2, 2821, Note_on_c, 0, 74, 0
2, 2880, Note_on_c, 0, 76, 0
2, 2881, Note_on_c, 0, 79, 76
2, 2941, Note_on_c, 0, 77, 64
2, 2957, Note_on_c, 0, 79, 0
2, 3001, Note_on_c, 0, 76, 64
2, 3012, Note_on_c, 0, 77, 0
2, 3059, Note_on_c, 0, 74, 72
2, 3060, Note_on_c, 0, 76, 0
2, 3102, Note_on_c, 0, 74, 0
2, 3119, Note_on_c, 0, 74, 72
2, 3179, Note_on_c, 0, 74, 0
2, 3179, Note_on_c, 0, 72, 56
2, 3241, Note_on_c, 0, 70, 57
2, 3253, Note_on_c, 0, 72, 0
2, 3296, Note_on_c, 0, 70, 0
2, 3299, Note_on_c, 0, 69, 72
2, 3360, Note_on_c, 0, 69, 0
2, 3361, Note_on_c, 0, 67, 60
2, 3361, Note_on_c, 0, 64, 60
2, 3481, Note_on_c, 0, 69, 62
2, 3485, Note_on_c, 0, 67, 0
2, 3511, Note_on_c, 0, 69, 0
2, 3511, Note_on_c, 0, 67, 68
2, 3541, Note_on_c, 0, 67, 0
2, 3541, Note_on_c, 0, 66, 57
2, 3601, Note_on_c, 0, 66, 0
2, 3601, Note_on_c, 0, 67, 68
2, 3713, Note_on_c, 0, 67, 0
2, 3721, Note_on_c, 0, 72, 68
2, 3834, Note_on_c, 0, 72, 0
2, 3834, Note_on_c, 0, 64, 0
2, 3839, Note_on_c, 0, 65, 59
2, 4090, Note_on_c, 0, 65, 0
2, 5760, Note_on_c, 0, 72, 62
2, 5821, Note_on_c, 0, 84, 55
2, 5834, Note_on_c, 0, 72, 0
2, 5876, Note_on_c, 0, 84, 0
2, 5881, Note_on_c, 0, 81, 51
2, 5941, Note_on_c, 0, 81, 0
2, 5941, Note_on_c, 0, 84, 53
2, 5998, Note_on_c, 0, 84, 0
2, 6001, Note_on_c, 0, 72, 60
2, 6060, Note_on_c, 0, 72, 0
2, 6061, Note_on_c, 0, 84, 57
2, 6111, Note_on_c, 0, 84, 0
2, 6121, Note_on_c, 0, 81, 59
2, 6179, Note_on_c, 0, 81, 0
2, 6181, Note_on_c, 0, 84, 56
2, 6240, Note_on_c, 0, 72, 59
2, 6241, Note_on_c, 0, 84, 0
2, 6301, Note_on_c, 0, 84, 60
2, 6303, Note_on_c, 0, 72, 0
2, 6359, Note_on_c, 0, 84, 0
2, 6360, Note_on_c, 0, 82, 56
2, 6418, Note_on_c, 0, 82, 0
2, 6419, Note_on_c, 0, 84, 62
2, 6477, Note_on_c, 0, 84, 0
2, 6481, Note_on_c, 0, 72, 55
2, 6541, Note_on_c, 0, 84, 64
2, 6542, Note_on_c, 0, 72, 0
2, 6601, Note_on_c, 0, 82, 57
2, 6603, Note_on_c, 0, 84, 0
2, 6657, Note_on_c, 0, 82, 0
2, 6661, Note_on_c, 0, 84, 55
2, 6716, Note_on_c, 0, 84, 0
2, 6721, Note_on_c, 0, 72, 52
2, 6779, Note_on_c, 0, 84, 64
2, 6780, Note_on_c, 0, 72, 0
2, 6837, Note_on_c, 0, 84, 0
2, 6839, Note_on_c, 0, 81, 62
2, 6898, Note_on_c, 0, 81, 0
2, 6899, Note_on_c, 0, 84, 57
2, 6956, Note_on_c, 0, 84, 0
2, 6961, Note_on_c, 0, 72, 57
2, 7021, Note_on_c, 0, 84, 60
2, 7024, Note_on_c, 0, 72, 0
2, 7075, Note_on_c, 0, 84, 0
2, 7081, Note_on_c, 0, 81, 60
2, 7139, Note_on_c, 0, 81, 0
2, 7139, Note_on_c, 0, 84, 59
2, 7199, Note_on_c, 0, 84, 0
2, 7199, Note_on_c, 0, 78, 62
2, 7259, Note_on_c, 0, 79, 64
2, 7261, Note_on_c, 0, 78, 0
2, 7321, Note_on_c, 0, 81, 85
2, 7332, Note_on_c, 0, 79, 0
2, 7381, Note_on_c, 0, 82, 72
2, 7388, Note_on_c, 0, 81, 0
2, 7440, Note_on_c, 0, 82, 0
2, 7441, Note_on_c, 0, 84, 76
2, 7499, Note_on_c, 0, 84, 0
2, 7499, Note_on_c, 0, 85, 72
2, 7559, Note_on_c, 0, 86, 85
2, 7563, Note_on_c, 0, 85, 0
2, 7617, Note_on_c, 0, 86, 0
2, 7619, Note_on_c, 0, 88, 72
2, 7681, Note_on_c, 0, 89, 80
2, 7684, Note_on_c, 0, 88, 0
2, 7712, Note_on_c, 0, 89, 0
2, 7741, Note_on_c, 0, 77, 60
2, 7764, Note_on_c, 0, 77, 0
2, 7801, Note_on_c, 0, 89, 67
2, 7861, Note_on_c, 0, 88, 72
2, 7869, Note_on_c, 0, 89, 0
2, 7921, Note_on_c, 0, 86, 91
2, 7926, Note_on_c, 0, 88, 0
2, 7942, Note_on_c, 0, 86, 0
2, 7980, Note_on_c, 0, 74, 76
2, 8002, Note_on_c, 0, 74, 0
2, 8041, Note_on_c, 0, 86, 81
2, 8101, Note_on_c, 0, 84, 60
2, 8107, Note_on_c, 0, 86, 0
2, 8161, Note_on_c, 0, 84, 0
2, 8161, Note_on_c, 0, 82, 74
2, 8183, Note_on_c, 0, 82, 0
2, 8219, Note_on_c, 0, 70, 72
2, 8240, Note_on_c, 0, 70, 0
2, 8280, Note_on_c, 0, 82, 76
2, 8335, Note_on_c, 0, 82, 0
2, 8339, Note_on_c, 0, 81, 86
2, 8397, Note_on_c, 0, 81, 0
2, 8399, Note_on_c, 0, 79, 86
2, 8419, Note_on_c, 0, 79, 0
2, 8459, Note_on_c, 0, 67, 70
2, 8479, Note_on_c, 0, 67, 0
2, 8519, Note_on_c, 0, 79, 96
2, 8579, Note_on_c, 0, 77, 76
2, 8589, Note_on_c, 0, 79, 0
2, 8615, Note_on_c, 0, 77, 0
2, 8639, Note_on_c, 0, 77, 91
2, 8881, Note_on_c, 0, 76, 56
2, 8889, Note_on_c, 0, 77, 0
2, 9024, Note_on_c, 0, 76, 0
2, 9239, Note_on_c, 0, 81, 57
2, 9300, Note_on_c, 0, 79, 60
2, 9314, Note_on_c, 0, 81, 0
2, 9360, Note_on_c, 0, 77, 60
2, 9368, Note_on_c, 0, 79, 0
2, 9419, Note_on_c, 0, 76, 56
2, 9423, Note_on_c, 0, 77, 0
2, 9479, Note_on_c, 0, 76, 0
2, 9479, Note_on_c, 0, 74, 55
2, 9538, Note_on_c, 0, 74, 0
2, 9539, Note_on_c, 0, 72, 62
2, 9576, Note_on_c, 0, 72, 0
2, 9599, Note_on_c, 0, 72, 62
2, 9656, Note_on_c, 0, 72, 0
2, 9661, Note_on_c, 0, 77, 68
2, 9721, Note_on_c, 0, 76, 64
2, 9738, Note_on_c, 0, 77, 0
2, 9781, Note_on_c, 0, 75, 59
2, 9786, Note_on_c, 0, 76, 0
2, 9840, Note_on_c, 0, 75, 0
2, 9841, Note_on_c, 0, 73, 55
2, 9897, Note_on_c, 0, 73, 0
2, 9901, Note_on_c, 0, 74, 62
2, 9961, Note_on_c, 0, 70, 55
2, 9965, Note_on_c, 0, 74, 0
2, 10012, Note_on_c, 0, 70, 0
2, 10020, Note_on_c, 0, 67, 57
2, 10075, Note_on_c, 0, 67, 0
2, 10079, Note_on_c, 0, 65, 57
2, 10301, Note_on_c, 0, 65, 0
2, 10319, Note_on_c, 0, 67, 64
2, 10320, Note_on_c, 0, 67, 68
2, 10349, Note_on_c, 0, 67, 0
2, 10349, Note_on_c, 0, 67, 0
2, 10351, Note_on_c, 0, 65, 59
2, 10379, Note_on_c, 0, 64, 76
2, 10381, Note_on_c, 0, 65, 0
2, 10409, Note_on_c, 0, 65, 85
2, 10412, Note_on_c, 0, 64, 0
2, 10424, Note_on_c, 0, 65, 0
2, 10440, Note_on_c, 0, 69, 85
2, 10497, Note_on_c, 0, 69, 0
2, 10499, Note_on_c, 0, 67, 76
2, 10549, Note_on_c, 0, 67, 0
2, 10560, Note_on_c, 0, 65, 64
2, 10619, Note_on_c, 0, 81, 80
2, 10620, Note_on_c, 0, 65, 0
2, 10679, Note_on_c, 0, 79, 59
2, 10685, Note_on_c, 0, 81, 0
2, 10739, Note_on_c, 0, 77, 55
2, 10755, Note_on_c, 0, 79, 0
2, 10799, Note_on_c, 0, 76, 76
2, 10804, Note_on_c, 0, 77, 0
2, 10858, Note_on_c, 0, 76, 0
2, 10859, Note_on_c, 0, 74, 56
2, 10917, Note_on_c, 0, 74, 0
2, 10919, Note_on_c, 0, 72, 59
2, 10977, Note_on_c, 0, 72, 0
2, 10979, Note_on_c, 0, 71, 62
2, 11039, Note_on_c, 0, 70, 72
2, 11043, Note_on_c, 0, 71, 0
2, 11099, Note_on_c, 0, 70, 0
2, 11100, Note_on_c, 0, 76, 57
2, 11161, Note_on_c, 0, 76, 0
2, 11161, Note_on_c, 0, 72, 60
2, 11220, Note_on_c, 0, 72, 0
2, 11221, Note_on_c, 0, 76, 62
2, 11278, Note_on_c, 0, 76, 0
2, 11281, Note_on_c, 0, 70, 64
2, 11338, Note_on_c, 0, 70, 0
2, 11341, Note_on_c, 0, 79, 57
2, 11398, Note_on_c, 0, 79, 0
2, 11401, Note_on_c, 0, 72, 50
2, 11456, Note_on_c, 0, 72, 0
2, 11459, Note_on_c, 0, 79, 68
2, 11521, Note_on_c, 0, 79, 0
2, 11521, Note_on_c, 0, 69, 59
2, 11605, Note_on_c, 0, 69, 0
2, 11640, Note_on_c, 0, 72, 64
2, 11641, Note_on_c, 0, 69, 52
2, 11734, Note_on_c, 0, 69, 0
2, 11736, Note_on_c, 0, 72, 0
2, 11879, Note_on_c, 0, 77, 64
2, 11879, Note_on_c, 0, 69, 60
2, 11961, Note_on_c, 0, 69, 0
2, 11968, Note_on_c, 0, 77, 0
2, 12121, Note_on_c, 0, 77, 64
2, 12121, Note_on_c, 0, 74, 76
2, 12192, Note_on_c, 0, 74, 0
2, 12197, Note_on_c, 0, 77, 0
2, 12359, Note_on_c, 0, 74, 80
2, 12359, Note_on_c, 0, 82, 80
2, 12410, Note_on_c, 0, 82, 0
2, 12411, Note_on_c, 0, 74, 0
2, 12480, Note_on_c, 0, 73, 80
2, 12481, Note_on_c, 0, 82, 80
2, 12708, Note_on_c, 0, 73, 0
2, 12721, Note_on_c, 0, 72, 53
2, 12836, Note_on_c, 0, 82, 0
2, 12843, Note_on_c, 0, 72, 0
2, 12959, Note_on_c, 0, 76, 56
2, 12960, Note_on_c, 0, 70, 62
2, 13425, Note_on_c, 0, 70, 0
2, 13431, Note_on_c, 0, 76, 0
2, 13439, Note_on_c, 0, 77, 72
2, 13439, Note_on_c, 0, 69, 57
2, 13543, Note_on_c, 0, 77, 0
2, 13552, Note_on_c, 0, 69, 0
2, 13559, Note_on_c, 0, 70, 72
2, 13559, Note_on_c, 0, 81, 98
2, 13619, Note_on_c, 0, 79, 59
2, 13627, Note_on_c, 0, 81, 0
2, 13679, Note_on_c, 0, 77, 62
2, 13692, Note_on_c, 0, 79, 0
2, 13739, Note_on_c, 0, 76, 62
2, 13750, Note_on_c, 0, 77, 0
2, 13801, Note_on_c, 0, 74, 55
2, 13805, Note_on_c, 0, 76, 0
2, 13851, Note_on_c, 0, 74, 0
2, 13860, Note_on_c, 0, 72, 64
2, 13892, Note_on_c, 0, 72, 0
2, 13915, Note_on_c, 0, 70, 0
2, 13920, Note_on_c, 0, 72, 72
2, 13920, Note_on_c, 0, 69, 68
2, 14038, Note_on_c, 0, 69, 0
2, 14041, Note_on_c, 0, 70, 72
2, 14279, Note_on_c, 0, 74, 60
2, 14294, Note_on_c, 0, 72, 0
2, 14339, Note_on_c, 0, 76, 57
2, 14349, Note_on_c, 0, 74, 0
2, 14391, Note_on_c, 0, 76, 0
2, 14399, Note_on_c, 0, 77, 68
2, 14401, Note_on_c, 0, 70, 0
2, 14401, Note_on_c, 0, 69, 53
2, 14461, Note_on_c, 0, 78, 72
2, 14464, Note_on_c, 0, 77, 0
2, 14511, Note_on_c, 0, 78, 0
2, 14519, Note_on_c, 0, 81, 80
2, 14521, Note_on_c, 0, 69, 0
2, 14521, Note_on_c, 0, 70, 85
2, 14579, Note_on_c, 0, 79, 60
2, 14591, Note_on_c, 0, 81, 0
2, 14641, Note_on_c, 0, 77, 64
2, 14644, Note_on_c, 0, 79, 0
2, 14699, Note_on_c, 0, 76, 56
2, 14708, Note_on_c, 0, 77, 0
2, 14760, Note_on_c, 0, 74, 51
2, 14761, Note_on_c, 0, 76, 0
2, 14820, Note_on_c, 0, 74, 0
2, 14820, Note_on_c, 0, 72, 62
2, 14843, Note_on_c, 0, 70, 0
2, 14850, Note_on_c, 0, 72, 0
2, 14881, Note_on_c, 0, 72, 62
2, 14928, Note_on_c, 0, 72, 0
2, 14941, Note_on_c, 0, 77, 56
2, 14998, Note_on_c, 0, 77, 0
2, 15001, Note_on_c, 0, 69, 68
2, 15053, Note_on_c, 0, 69, 0
2, 15061, Note_on_c, 0, 72, 45
2, 15119, Note_on_c, 0, 72, 0
2, 15121, Note_on_c, 0, 65, 56
2, 15175, Note_on_c, 0, 65, 0
2, 15181, Note_on_c, 0, 69, 38
2, 15236, Note_on_c, 0, 69, 0
2, 15241, Note_on_c, 0, 60, 47
2, 15299, Note_on_c, 0, 64, 62
2, 15301, Note_on_c, 0, 60, 0
2, 15358, Note_on_c, 0, 64, 0
2, 15361, Note_on_c, 0, 65, 57
2, 15461, Note_on_c, 0, 65, 0
2, 15721, Note_on_c, 0, 81, 93
2, 15841, Note_on_c, 0, 81, 0
2, 15841, Note_on_c, 0, 79, 89
2, 15901, Note_on_c, 0, 77, 80
2, 15907, Note_on_c, 0, 79, 0
2, 15961, Note_on_c, 0, 76, 76
2, 15965, Note_on_c, 0, 77, 0
2, 16015, Note_on_c, 0, 76, 0
2, 16021, Note_on_c, 0, 74, 76
2, 16080, Note_on_c, 0, 74, 0
2, 16081, Note_on_c, 0, 77, 80
2, 16141, Note_on_c, 0, 76, 80
2, 16144, Note_on_c, 0, 77, 0
2, 16201, Note_on_c, 0, 76, 0
2, 16201, Note_on_c, 0, 79, 85
2, 16261, Note_on_c, 0, 79, 0
2, 16261, Note_on_c, 0, 73, 72
2, 16321, Note_on_c, 0, 74, 85
2, 16324, Note_on_c, 0, 73, 0
2, 16344, Note_on_c, 0, 74, 0
2, 16441, Note_on_c, 0, 69, 89
2, 16463, Note_on_c, 0, 69, 0
2, 16561, Note_on_c, 0, 79, 93
2, 16794, Note_on_c, 0, 79, 0
2, 16801, Note_on_c, 0, 77, 89
2, 16861, Note_on_c, 0, 76, 89
2, 16868, Note_on_c, 0, 77, 0
2, 16921, Note_on_c, 0, 76, 0
2, 16921, Note_on_c, 0, 74, 76
2, 16979, Note_on_c, 0, 72, 85
2, 16984, Note_on_c, 0, 74, 0
2, 17035, Note_on_c, 0, 72, 0
2, 17039, Note_on_c, 0, 76, 93
2, 17099, Note_on_c, 0, 74, 89
2, 17101, Note_on_c, 0, 76, 0
2, 17159, Note_on_c, 0, 77, 89
2, 17160, Note_on_c, 0, 74, 0
2, 17219, Note_on_c, 0, 77, 0
2, 17219, Note_on_c, 0, 71, 76
2, 17281, Note_on_c, 0, 72, 93
2, 17282, Note_on_c, 0, 71, 0
2, 17302, Note_on_c, 0, 72, 0
2, 17401, Note_on_c, 0, 67, 93
2, 17422, Note_on_c, 0, 67, 0
2, 17521, Note_on_c, 0, 79, 93
2, 17761, Note_on_c, 0, 79, 0
2, 17761, Note_on_c, 0, 77, 85
2, 17821, Note_on_c, 0, 75, 76
2, 17830, Note_on_c, 0, 77, 0
2, 17881, Note_on_c, 0, 74, 85
2, 17887, Note_on_c, 0, 75, 0
2, 17940, Note_on_c, 0, 74, 0
2, 17941, Note_on_c, 0, 72, 80
2, 17998, Note_on_c, 0, 72, 0
2, 18001, Note_on_c, 0, 77, 93
2, 18061, Note_on_c, 0, 75, 85
2, 18069, Note_on_c, 0, 77, 0
2, 18121, Note_on_c, 0, 74, 93
2, 18123, Note_on_c, 0, 75, 0
2, 18181, Note_on_c, 0, 72, 89
2, 18183, Note_on_c, 0, 74, 0
2, 18238, Note_on_c, 0, 72, 0
2, 18241, Note_on_c, 0, 77, 98
2, 18301, Note_on_c, 0, 75, 89
2, 18307, Note_on_c, 0, 77, 0
2, 18361, Note_on_c, 0, 74, 102
2, 18364, Note_on_c, 0, 75, 0
2, 18419, Note_on_c, 0, 74, 0
2, 18421, Note_on_c, 0, 72, 113
2, 18481, Note_on_c, 0, 72, 0
2, 18481, Note_on_c, 0, 77, 98
2, 18541, Note_on_c, 0, 75, 107
2, 18545, Note_on_c, 0, 77, 0
2, 18600, Note_on_c, 0, 75, 0
2, 18601, Note_on_c, 0, 74, 107
2, 18659, Note_on_c, 0, 74, 0
2, 18661, Note_on_c, 0, 72, 102
2, 18716, Note_on_c, 0, 72, 0
2, 18721, Note_on_c, 0, 84, 102
2, 18805, Note_on_c, 0, 84, 0
2, 18961, Note_on_c, 0, 77, 102
2, 19021, Note_on_c, 0, 75, 89
2, 19026, Note_on_c, 0, 77, 0
2, 19080, Note_on_c, 0, 75, 0
2, 19081, Note_on_c, 0, 74, 98
2, 19141, Note_on_c, 0, 72, 93
2, 19145, Note_on_c, 0, 74, 0
2, 19199, Note_on_c, 0, 72, 0
2, 19201, Note_on_c, 0, 87, 107
2, 19290, Note_on_c, 0, 87, 0
2, 19441, Note_on_c, 0, 78, 59
2, 19441, Note_on_c, 0, 72, 62
2, 19533, Note_on_c, 0, 78, 0
2, 19534, Note_on_c, 0, 72, 0
2, 19681, Note_on_c, 0, 71, 56
2, 19681, Note_on_c, 0, 79, 57
2, 19783, Note_on_c, 0, 71, 0
2, 19785, Note_on_c, 0, 79, 0
2, 19920, Note_on_c, 0, 79, 113
2, 20199, Note_on_c, 0, 81, 68
2, 20202, Note_on_c, 0, 79, 0
2, 20241, Note_on_c, 0, 79, 76
2, 20251, Note_on_c, 0, 81, 0
2, 20281, Note_on_c, 0, 77, 80
2, 20284, Note_on_c, 0, 79, 0
2, 20321, Note_on_c, 0, 79, 76
2, 20326, Note_on_c, 0, 77, 0
2, 20361, Note_on_c, 0, 77, 64
2, 20370, Note_on_c, 0, 79, 0
2, 20402, Note_on_c, 0, 76, 80
2, 20403, Note_on_c, 0, 77, 0
2, 20442, Note_on_c, 0, 77, 76
2, 20444, Note_on_c, 0, 76, 0
2, 20482, Note_on_c, 0, 76, 76
2, 20490, Note_on_c, 0, 77, 0
2, 20522, Note_on_c, 0, 74, 76
2, 20525, Note_on_c, 0, 76, 0
2, 20562, Note_on_c, 0, 74, 0
2, 20562, Note_on_c, 0, 76, 80
2, 20602, Note_on_c, 0, 74, 57
2, 20603, Note_on_c, 0, 76, 0
2, 20640, Note_on_c, 0, 74, 0
2, 20649, Note_on_c, 0, 72, 76
2, 20674, Note_on_c, 0, 72, 0
2, 20764, Note_on_c, 0, 72, 89
2, 20781, Note_on_c, 0, 72, 0
2, 20781, Note_on_c, 0, 71, 76
2, 20804, Note_on_c, 0, 72, 68
2, 20805, Note_on_c, 0, 71, 0
2, 20824, Note_on_c, 0, 71, 72
2, 20830, Note_on_c, 0, 72, 0
2, 20848, Note_on_c, 0, 71, 0
2, 20848, Note_on_c, 0, 69, 60
2, 20867, Note_on_c, 0, 71, 51
2, 20872, Note_on_c, 0, 69, 0
2, 20881, Note_on_c, 0, 72, 80
2, 20884, Note_on_c, 0, 71, 0
2, 20916, Note_on_c, 0, 72, 0
2, 21007, Note_on_c, 0, 76, 89
2, 21025, Note_on_c, 0, 76, 0
2, 21025, Note_on_c, 0, 74, 72
2, 21046, Note_on_c, 0, 76, 68
2, 21047, Note_on_c, 0, 74, 0
2, 21066, Note_on_c, 0, 74, 64
2, 21071, Note_on_c, 0, 76, 0
2, 21084, Note_on_c, 0, 72, 64
2, 21088, Note_on_c, 0, 74, 0
2, 21104, Note_on_c, 0, 74, 72
2, 21109, Note_on_c, 0, 72, 0
2, 21121, Note_on_c, 0, 74, 0
2, 21124, Note_on_c, 0, 76, 85
2, 21152, Note_on_c, 0, 76, 0
2, 21249, Note_on_c, 0, 79, 98
2, 21268, Note_on_c, 0, 79, 0
2, 21268, Note_on_c, 0, 77, 72
2, 21286, Note_on_c, 0, 77, 0
2, 21286, Note_on_c, 0, 79, 76
2, 21304, Note_on_c, 0, 77, 80
2, 21308, Note_on_c, 0, 79, 0
2, 21327, Note_on_c, 0, 77, 0
2, 21327, Note_on_c, 0, 76, 76
2, 21347, Note_on_c, 0, 77, 76
2, 21349, Note_on_c, 0, 76, 0
2, 21359, Note_on_c, 0, 79, 85
2, 21364, Note_on_c, 0, 77, 0
2, 21384, Note_on_c, 0, 79, 0
2, 21482, Note_on_c, 0, 81, 76
2, 21499, Note_on_c, 0, 81, 0
2, 21603, Note_on_c, 0, 72, 72
2, 21726, Note_on_c, 0, 72, 0
2, 21727, Note_on_c, 0, 71, 64
2, 21822, Note_on_c, 0, 71, 0
2, 21844, Note_on_c, 0, 81, 107
2, 22121, Note_on_c, 0, 82, 76
2, 22125, Note_on_c, 0, 81, 0
2, 22161, Note_on_c, 0, 81, 80
2, 22172, Note_on_c, 0, 82, 0
2, 22201, Note_on_c, 0, 79, 80
2, 22205, Note_on_c, 0, 81, 0
2, 22241, Note_on_c, 0, 81, 85
2, 22246, Note_on_c, 0, 79, 0
2, 22281, Note_on_c, 0, 79, 76
2, 22292, Note_on_c, 0, 81, 0
2, 22321, Note_on_c, 0, 77, 72
2, 22325, Note_on_c, 0, 79, 0
2, 22361, Note_on_c, 0, 79, 85
2, 22364, Note_on_c, 0, 77, 0
2, 22401, Note_on_c, 0, 77, 76
2, 22409, Note_on_c, 0, 79, 0
2, 22441, Note_on_c, 0, 76, 60
2, 22447, Note_on_c, 0, 77, 0
2, 22482, Note_on_c, 0, 77, 72
2, 22488, Note_on_c, 0, 76, 0
2, 22521, Note_on_c, 0, 77, 0
2, 22521, Note_on_c, 0, 76, 80
2, 22557, Note_on_c, 0, 76, 0
2, 22565, Note_on_c, 0, 74, 98
2, 22589, Note_on_c, 0, 74, 0
2, 22687, Note_on_c, 0, 86, 113
2, 22706, Note_on_c, 0, 86, 0
2, 22803, Note_on_c, 0, 81, 98
2, 22827, Note_on_c, 0, 81, 0
2, 22928, Note_on_c, 0, 84, 98
2, 22943, Note_on_c, 0, 83, 72
2, 22944, Note_on_c, 0, 84, 0
2, 22963, Note_on_c, 0, 84, 80
2, 22965, Note_on_c, 0, 83, 0
2, 22982, Note_on_c, 0, 83, 89
2, 22987, Note_on_c, 0, 84, 0
2, 23001, Note_on_c, 0, 81, 85
2, 23003, Note_on_c, 0, 83, 0
2, 23016, Note_on_c, 0, 83, 85
2, 23023, Note_on_c, 0, 81, 0
2, 23034, Note_on_c, 0, 83, 0
2, 23040, Note_on_c, 0, 84, 107
2, 23060, Note_on_c, 0, 84, 0
2, 23165, Note_on_c, 0, 74, 107
2, 23181, Note_on_c, 0, 72, 76
2, 23182, Note_on_c, 0, 74, 0
2, 23205, Note_on_c, 0, 74, 80
2, 23207, Note_on_c, 0, 72, 0
2, 23221, Note_on_c, 0, 72, 80
2, 23228, Note_on_c, 0, 74, 0
2, 23236, Note_on_c, 0, 71, 76
2, 23243, Note_on_c, 0, 72, 0
2, 23258, Note_on_c, 0, 74, 62
2, 23261, Note_on_c, 0, 71, 0
2, 23272, Note_on_c, 0, 74, 0
2, 23280, Note_on_c, 0, 76, 89
2, 23306, Note_on_c, 0, 76, 0
2, 23405, Note_on_c, 0, 74, 98
2, 23427, Note_on_c, 0, 74, 0
2, 23526, Note_on_c, 0, 72, 89
2, 23551, Note_on_c, 0, 72, 0
2, 23878, Note_on_c, 0, 67, 102
2, 23909, Note_on_c, 0, 67, 0
2, 23999, Note_on_c, 0, 79, 93
2, 24282, Note_on_c, 0, 81, 68
2, 24283, Note_on_c, 0, 79, 0
2, 24321, Note_on_c, 0, 79, 60
2, 24330, Note_on_c, 0, 81, 0
2, 24359, Note_on_c, 0, 77, 76
2, 24360, Note_on_c, 0, 79, 0
2, 24400, Note_on_c, 0, 79, 68
2, 24403, Note_on_c, 0, 77, 0
2, 24440, Note_on_c, 0, 77, 68
2, 24449, Note_on_c, 0, 79, 0
2, 24481, Note_on_c, 0, 77, 0
2, 24481, Note_on_c, 0, 76, 64
2, 24519, Note_on_c, 0, 77, 64
2, 24523, Note_on_c, 0, 76, 0
2, 24560, Note_on_c, 0, 76, 64
2, 24567, Note_on_c, 0, 77, 0
2, 24599, Note_on_c, 0, 74, 72
2, 24609, Note_on_c, 0, 76, 0
2, 24639, Note_on_c, 0, 72, 52
2, 24640, Note_on_c, 0, 74, 0
2, 24681, Note_on_c, 0, 71, 62
2, 24684, Note_on_c, 0, 72, 0
2, 24720, Note_on_c, 0, 72, 68
2, 24722, Note_on_c, 0, 71, 0
2, 24761, Note_on_c, 0, 74, 60
2, 24764, Note_on_c, 0, 72, 0
2, 24801, Note_on_c, 0, 72, 64
2, 24809, Note_on_c, 0, 74, 0
2, 24841, Note_on_c, 0, 70, 57
2, 24847, Note_on_c, 0, 72, 0
2, 24881, Note_on_c, 0, 69, 57
2, 24883, Note_on_c, 0, 70, 0
2, 24922, Note_on_c, 0, 69, 0
2, 24922, Note_on_c, 0, 68, 51
2, 24962, Note_on_c, 0, 68, 0
2, 24962, Note_on_c, 0, 69, 59
2, 25002, Note_on_c, 0, 74, 60
2, 25016, Note_on_c, 0, 69, 0
2, 25042, Note_on_c, 0, 73, 60
2, 25048, Note_on_c, 0, 74, 0
2, 25080, Note_on_c, 0, 73, 0
2, 25083, Note_on_c, 0, 74, 64
2, 25122, Note_on_c, 0, 77, 62
2, 25126, Note_on_c, 0, 74, 0
2, 25160, Note_on_c, 0, 77, 0
2, 25162, Note_on_c, 0, 76, 64
2, 25202, Note_on_c, 0, 77, 68
2, 25203, Note_on_c, 0, 76, 0
2, 25239, Note_on_c, 0, 77, 0
2, 25242, Note_on_c, 0, 81, 68
2, 25282, Note_on_c, 0, 80, 59
2, 25286, Note_on_c, 0, 81, 0
2, 25321, Note_on_c, 0, 80, 0
2, 25322, Note_on_c, 0, 81, 59
2, 25361, Note_on_c, 0, 77, 59
2, 25368, Note_on_c, 0, 81, 0
2, 25400, Note_on_c, 0, 77, 0
2, 25401, Note_on_c, 0, 74, 46
2, 25441, Note_on_c, 0, 72, 51
2, 25444, Note_on_c, 0, 74, 0
2, 25561, Note_on_c, 0, 71, 53
2, 25563, Note_on_c, 0, 72, 0
2, 25658, Note_on_c, 0, 71, 0
2, 25799, Note_on_c, 0, 60, 102
2, 25919, Note_on_c, 0, 60, 0
2, 25921, Note_on_c, 0, 72, 98
2, 26035, Note_on_c, 0, 72, 0
2, 26041, Note_on_c, 0, 70, 85
2, 26041, Note_on_c, 0, 73, 102
2, 26161, Note_on_c, 0, 73, 0
2, 26162, Note_on_c, 0, 74, 98
2, 26162, Note_on_c, 0, 69, 85
2, 26164, Note_on_c, 0, 70, 0
2, 26271, Note_on_c, 0, 69, 0
2, 26272, Note_on_c, 0, 74, 0
2, 26281, Note_on_c, 0, 76, 89
2, 26281, Note_on_c, 0, 73, 76
2, 26392, Note_on_c, 0, 73, 0
2, 26399, Note_on_c, 0, 76, 0
2, 26401, Note_on_c, 0, 77, 62
2, 26401, Note_on_c, 0, 74, 76
2, 26441, Note_on_c, 0, 76, 76
2, 26442, Note_on_c, 0, 77, 0
2, 26481, Note_on_c, 0, 77, 60
2, 26492, Note_on_c, 0, 76, 0
2, 26511, Note_on_c, 0, 77, 0
2, 26522, Note_on_c, 0, 78, 72
2, 26525, Note_on_c, 0, 74, 0
2, 26562, Note_on_c, 0, 76, 57
2, 26565, Note_on_c, 0, 78, 0
2, 26601, Note_on_c, 0, 78, 62
2, 26604, Note_on_c, 0, 76, 0
2, 26638, Note_on_c, 0, 78, 0
2, 26641, Note_on_c, 0, 79, 76
2, 26681, Note_on_c, 0, 78, 60
2, 26687, Note_on_c, 0, 79, 0
2, 26720, Note_on_c, 0, 79, 72
2, 26721, Note_on_c, 0, 78, 0
2, 26753, Note_on_c, 0, 79, 0
2, 26761, Note_on_c, 0, 83, 85
2, 26800, Note_on_c, 0, 81, 80
2, 26807, Note_on_c, 0, 83, 0
2, 26841, Note_on_c, 0, 83, 72
2, 26845, Note_on_c, 0, 81, 0
2, 26868, Note_on_c, 0, 83, 0
2, 26881, Note_on_c, 0, 84, 89
2, 26922, Note_on_c, 0, 79, 68
2, 26951, Note_on_c, 0, 84, 0
2, 26960, Note_on_c, 0, 79, 0
2, 26961, Note_on_c, 0, 76, 62
2, 27002, Note_on_c, 0, 81, 89
2, 27003, Note_on_c, 0, 76, 0
2, 27042, Note_on_c, 0, 77, 72
2, 27057, Note_on_c, 0, 81, 0
2, 27082, Note_on_c, 0, 74, 57
2, 27086, Note_on_c, 0, 77, 0
2, 27122, Note_on_c, 0, 79, 85
2, 27124, Note_on_c, 0, 74, 0
2, 27163, Note_on_c, 0, 76, 64
2, 27174, Note_on_c, 0, 79, 0
2, 27202, Note_on_c, 0, 72, 64
2, 27203, Note_on_c, 0, 76, 0
2, 27242, Note_on_c, 0, 72, 0
2, 27242, Note_on_c, 0, 77, 76
2, 27282, Note_on_c, 0, 74, 62
2, 27292, Note_on_c, 0, 77, 0
2, 27319, Note_on_c, 0, 74, 0
2, 27321, Note_on_c, 0, 71, 59
2, 27358, Note_on_c, 0, 71, 0
2, 27362, Note_on_c, 0, 72, 68
2, 27475, Note_on_c, 0, 72, 0
2, 27481, Note_on_c, 0, 88, 98
2, 27521, Note_on_c, 0, 86, 80
2, 27527, Note_on_c, 0, 88, 0
2, 27561, Note_on_c, 0, 84, 89
2, 27566, Note_on_c, 0, 86, 0
2, 27601, Note_on_c, 0, 83, 89
2, 27609, Note_on_c, 0, 84, 0
2, 27641, Note_on_c, 0, 81, 60
2, 27643, Note_on_c, 0, 83, 0
2, 27681, Note_on_c, 0, 79, 76
2, 27686, Note_on_c, 0, 81, 0
2, 27721, Note_on_c, 0, 78, 80
2, 27723, Note_on_c, 0, 79, 0
2, 27761, Note_on_c, 0, 81, 76
2, 27763, Note_on_c, 0, 78, 0
2, 27802, Note_on_c, 0, 78, 72
2, 27804, Note_on_c, 0, 81, 0
2, 27839, Note_on_c, 0, 78, 0
2, 27842, Note_on_c, 0, 81, 89
2, 27882, Note_on_c, 0, 79, 72
2, 27893, Note_on_c, 0, 81, 0
2, 27921, Note_on_c, 0, 79, 0
2, 27922, Note_on_c, 0, 76, 62
2, 27960, Note_on_c, 0, 76, 0
2, 27962, Note_on_c, 0, 79, 89
2, 28002, Note_on_c, 0, 77, 64
2, 28010, Note_on_c, 0, 79, 0
2, 28041, Note_on_c, 0, 74, 57
2, 28046, Note_on_c, 0, 77, 0
2, 28078, Note_on_c, 0, 74, 0
2, 28081, Note_on_c, 0, 77, 80
2, 28122, Note_on_c, 0, 76, 62
2, 28133, Note_on_c, 0, 77, 0
2, 28160, Note_on_c, 0, 76, 0
2, 28161, Note_on_c, 0, 72, 60
2, 28201, Note_on_c, 0, 72, 0
2, 28201, Note_on_c, 0, 76, 80
2, 28241, Note_on_c, 0, 74, 68
2, 28251, Note_on_c, 0, 76, 0
2, 28279, Note_on_c, 0, 71, 64
2, 28282, Note_on_c, 0, 74, 0
2, 28322, Note_on_c, 0, 71, 0
2, 28322, Note_on_c, 0, 72, 93
2, 28430, Note_on_c, 0, 72, 0
2, 28681, Note_on_c, 0, 84, 102
2, 28681, Note_on_c, 0, 75, 80
2, 28802, Note_on_c, 0, 75, 0
2, 28802, Note_on_c, 0, 74, 72
2, 28921, Note_on_c, 0, 83, 80
2, 28927, Note_on_c, 0, 84, 0
2, 29039, Note_on_c, 0, 74, 0
2, 29040, Note_on_c, 0, 83, 0
2, 29042, Note_on_c, 0, 79, 72
2, 29042, Note_on_c, 0, 84, 98
2, 29156, Note_on_c, 0, 79, 0
2, 29159, Note_on_c, 0, 84, 0
2, 29161, Note_on_c, 0, 86, 98
2, 29161, Note_on_c, 0, 77, 76
2, 29265, Note_on_c, 0, 77, 0
2, 29273, Note_on_c, 0, 86, 0
2, 29279, Note_on_c, 0, 79, 89
2, 29279, Note_on_c, 0, 76, 89
2, 29280, Note_on_c, 0, 88, 98
2, 29366, Note_on_c, 0, 88, 0
2, 29373, Note_on_c, 0, 76, 0
2, 29374, Note_on_c, 0, 79, 0
2, 29401, Note_on_c, 0, 79, 76
2, 29441, Note_on_c, 0, 76, 85
2, 29446, Note_on_c, 0, 79, 0
2, 29481, Note_on_c, 0, 72, 80
2, 29484, Note_on_c, 0, 76, 0
2, 29521, Note_on_c, 0, 74, 80
2, 29523, Note_on_c, 0, 72, 0
2, 29561, Note_on_c, 0, 72, 72
2, 29568, Note_on_c, 0, 74, 0
2, 29601, Note_on_c, 0, 72, 0
2, 29601, Note_on_c, 0, 71, 76
2, 29641, Note_on_c, 0, 72, 80
2, 29644, Note_on_c, 0, 71, 0
2, 29681, Note_on_c, 0, 70, 76
2, 29688, Note_on_c, 0, 72, 0
2, 29721, Note_on_c, 0, 68, 76
2, 29726, Note_on_c, 0, 70, 0
2, 29761, Note_on_c, 0, 69, 93
2, 29762, Note_on_c, 0, 68, 0
2, 29850, Note_on_c, 0, 69, 0
2, 30119, Note_on_c, 0, 78, 72
2, 30119, Note_on_c, 0, 74, 80
2, 30241, Note_on_c, 0, 78, 0
2, 30241, Note_on_c, 0, 79, 93
2, 30344, Note_on_c, 0, 74, 0
2, 30345, Note_on_c, 0, 79, 0
2, 30362, Note_on_c, 0, 67, 89
2, 30402, Note_on_c, 0, 71, 76
2, 30410, Note_on_c, 0, 67, 0
2, 30440, Note_on_c, 0, 71, 0
2, 30442, Note_on_c, 0, 74, 72
2, 30482, Note_on_c, 0, 79, 89
2, 30483, Note_on_c, 0, 74, 0
2, 30522, Note_on_c, 0, 83, 85
2, 30524, Note_on_c, 0, 79, 0
2, 30559, Note_on_c, 0, 83, 0
2, 30562, Note_on_c, 0, 86, 85
2, 30602, Note_on_c, 0, 84, 85
2, 30606, Note_on_c, 0, 86, 0
2, 30642, Note_on_c, 0, 81, 68
2, 30648, Note_on_c, 0, 84, 0
2, 30682, Note_on_c, 0, 81, 0
2, 30682, Note_on_c, 0, 78, 62
2, 30717, Note_on_c, 0, 78, 0
2, 30722, Note_on_c, 0, 79, 85
2, 30801, Note_on_c, 0, 79, 0
2, 30842, Note_on_c, 0, 67, 93
2, 30882, Note_on_c, 0, 71, 57
2, 30890, Note_on_c, 0, 67, 0
2, 30920, Note_on_c, 0, 71, 0
2, 30922, Note_on_c, 0, 74, 72
2, 30962, Note_on_c, 0, 79, 93
2, 30963, Note_on_c, 0, 74, 0
2, 31002, Note_on_c, 0, 79, 0
2, 31002, Note_on_c, 0, 83, 89
2, 31039, Note_on_c, 0, 83, 0
2, 31042, Note_on_c, 0, 86, 93
2, 31082, Note_on_c, 0, 84, 89
2, 31084, Note_on_c, 0, 86, 0
2, 31122, Note_on_c, 0, 81, 72
2, 31126, Note_on_c, 0, 84, 0
2, 31162, Note_on_c, 0, 78, 68
2, 31168, Note_on_c, 0, 81, 0
2, 31194, Note_on_c, 0, 78, 0
2, 31202, Note_on_c, 0, 79, 89
2, 31243, Note_on_c, 0, 83, 85
2, 31256, Note_on_c, 0, 79, 0
2, 31277, Note_on_c, 0, 83, 0
2, 31282, Note_on_c, 0, 86, 89
2, 31322, Note_on_c, 0, 84, 89
2, 31328, Note_on_c, 0, 86, 0
2, 31362, Note_on_c, 0, 81, 80
2, 31366, Note_on_c, 0, 84, 0
2, 31402, Note_on_c, 0, 78, 85
2, 31406, Note_on_c, 0, 81, 0
2, 31431, Note_on_c, 0, 78, 0
2, 31442, Note_on_c, 0, 79, 93
2, 31482, Note_on_c, 0, 83, 85
2, 31489, Note_on_c, 0, 79, 0
2, 31519, Note_on_c, 0, 83, 0
2, 31522, Note_on_c, 0, 86, 89
2, 31561, Note_on_c, 0, 84, 76
2, 31563, Note_on_c, 0, 86, 0
2, 31601, Note_on_c, 0, 81, 80
2, 31603, Note_on_c, 0, 84, 0
2, 31641, Note_on_c, 0, 78, 68
2, 31643, Note_on_c, 0, 81, 0
2, 31678, Note_on_c, 0, 78, 0
2, 33720, Note_on_c, 0, 67, 98
2, 33740, Note_on_c, 0, 67, 0
2, 33841, Note_on_c, 0, 69, 98
2, 33857, Note_on_c, 0, 69, 0
2, 33962, Note_on_c, 0, 71, 93
2, 33977, Note_on_c, 0, 71, 0
2, 34081, Note_on_c, 0, 72, 89
2, 34102, Note_on_c, 0, 72, 0
2, 34202, Note_on_c, 0, 76, 93
2, 34218, Note_on_c, 0, 76, 0
2, 34322, Note_on_c, 0, 77, 89
2, 34341, Note_on_c, 0, 77, 0
2, 34442, Note_on_c, 0, 80, 113
2, 34462, Note_on_c, 0, 80, 0
2, 34562, Note_on_c, 0, 81, 93
2, 34620, Note_on_c, 0, 81, 0
2, 34622, Note_on_c, 0, 84, 89
2, 34681, Note_on_c, 0, 83, 76
2, 34683, Note_on_c, 0, 84, 0
2, 34735, Note_on_c, 0, 83, 0
2, 34739, Note_on_c, 0, 81, 89
2, 34798, Note_on_c, 0, 81, 0
2, 34799, Note_on_c, 0, 83, 93
2, 34859, Note_on_c, 0, 83, 0
2, 34859, Note_on_c, 0, 84, 93
2, 34921, Note_on_c, 0, 81, 93
2, 34924, Note_on_c, 0, 84, 0
2, 34981, Note_on_c, 0, 83, 89
2, 34988, Note_on_c, 0, 81, 0
2, 35042, Note_on_c, 0, 83, 0
2, 35042, Note_on_c, 0, 84, 80
2, 35581, Note_on_c, 0, 82, 85
2, 35583, Note_on_c, 0, 84, 0
2, 35642, Note_on_c, 0, 83, 89
2, 35646, Note_on_c, 0, 82, 0
2, 35820, Note_on_c, 0, 83, 0
2, 35820, Note_on_c, 0, 80, 89
2, 35881, Note_on_c, 0, 81, 89
2, 35885, Note_on_c, 0, 80, 0
2, 36061, Note_on_c, 0, 78, 72
2, 36065, Note_on_c, 0, 81, 0
2, 36121, Note_on_c, 0, 79, 89
2, 36122, Note_on_c, 0, 78, 0
2, 36285, Note_on_c, 0, 79, 0
2, 36299, Note_on_c, 0, 76, 89
2, 36319, Note_on_c, 0, 76, 0
2, 36359, Note_on_c, 0, 77, 85
2, 36379, Note_on_c, 0, 77, 0
2, 36421, Note_on_c, 0, 77, 80
2, 36440, Note_on_c, 0, 77, 0
2, 36481, Note_on_c, 0, 77, 89
2, 36531, Note_on_c, 0, 77, 0
2, 36539, Note_on_c, 0, 79, 68
2, 36569, Note_on_c, 0, 77, 72
2, 36577, Note_on_c, 0, 79, 0
2, 36598, Note_on_c, 0, 77, 0
2, 36598, Note_on_c, 0, 76, 76
2, 36628, Note_on_c, 0, 77, 76
2, 36631, Note_on_c, 0, 76, 0
2, 36653, Note_on_c, 0, 77, 0
2, 36658, Note_on_c, 0, 79, 85
2, 36719, Note_on_c, 0, 81, 89
2, 36725, Note_on_c, 0, 79, 0
2, 36842, Note_on_c, 0, 79, 85
2, 36858, Note_on_c, 0, 81, 0
2, 36901, Note_on_c, 0, 77, 76
2, 36908, Note_on_c, 0, 79, 0
2, 36961, Note_on_c, 0, 76, 89
2, 36962, Note_on_c, 0, 77, 0
2, 37077, Note_on_c, 0, 76, 0
2, 37081, Note_on_c, 0, 82, 98
2, 37321, Note_on_c, 0, 81, 89
2, 37325, Note_on_c, 0, 82, 0
2, 37382, Note_on_c, 0, 79, 76
2, 37390, Note_on_c, 0, 81, 0
2, 37442, Note_on_c, 0, 77, 76
2, 37445, Note_on_c, 0, 79, 0
2, 37466, Note_on_c, 0, 77, 0
2, 37501, Note_on_c, 0, 82, 68
2, 37561, Note_on_c, 0, 81, 72
2, 37570, Note_on_c, 0, 82, 0
2, 37621, Note_on_c, 0, 81, 0
2, 37621, Note_on_c, 0, 80, 72
2, 37681, Note_on_c, 0, 81, 76
2, 37686, Note_on_c, 0, 80, 0
2, 37740, Note_on_c, 0, 81, 0
2, 37741, Note_on_c, 0, 76, 68
2, 37801, Note_on_c, 0, 81, 68
2, 37806, Note_on_c, 0, 76, 0
2, 37857, Note_on_c, 0, 81, 0
2, 37859, Note_on_c, 0, 79, 76
2, 37918, Note_on_c, 0, 77, 89
2, 37921, Note_on_c, 0, 79, 0
2, 37940, Note_on_c, 0, 77, 0
2, 37981, Note_on_c, 0, 81, 76
2, 38041, Note_on_c, 0, 79, 62
2, 38047, Note_on_c, 0, 81, 0
2, 38101, Note_on_c, 0, 78, 72
2, 38103, Note_on_c, 0, 79, 0
2, 38161, Note_on_c, 0, 79, 72
2, 38167, Note_on_c, 0, 78, 0
2, 38221, Note_on_c, 0, 74, 68
2, 38223, Note_on_c, 0, 79, 0
2, 38281, Note_on_c, 0, 79, 72
2, 38286, Note_on_c, 0, 74, 0
2, 38339, Note_on_c, 0, 77, 76
2, 38342, Note_on_c, 0, 79, 0
2, 38461, Note_on_c, 0, 75, 72
2, 38467, Note_on_c, 0, 77, 0
2, 38521, Note_on_c, 0, 77, 72
2, 38524, Note_on_c, 0, 75, 0
2, 38582, Note_on_c, 0, 76, 80
2, 38589, Note_on_c, 0, 77, 0
2, 38693, Note_on_c, 0, 76, 0
2, 38699, Note_on_c, 0, 69, 68
2, 38759, Note_on_c, 0, 76, 85
2, 38763, Note_on_c, 0, 69, 0
2, 38821, Note_on_c, 0, 74, 80
2, 38826, Note_on_c, 0, 76, 0
2, 38939, Note_on_c, 0, 67, 72
2, 38940, Note_on_c, 0, 74, 0
2, 39000, Note_on_c, 0, 74, 72
2, 39004, Note_on_c, 0, 67, 0
2, 39060, Note_on_c, 0, 72, 68
2, 39063, Note_on_c, 0, 74, 0
2, 39181, Note_on_c, 0, 65, 64
2, 39183, Note_on_c, 0, 72, 0
2, 39241, Note_on_c, 0, 72, 76
2, 39252, Note_on_c, 0, 65, 0
2, 39302, Note_on_c, 0, 71, 80
2, 39304, Note_on_c, 0, 72, 0
2, 39361, Note_on_c, 0, 71, 0
2, 39401, Note_on_c, 0, 72, 85
2, 39440, Note_on_c, 0, 74, 76
2, 39444, Note_on_c, 0, 72, 0
2, 39480, Note_on_c, 0, 76, 89
2, 39486, Note_on_c, 0, 74, 0
2, 39519, Note_on_c, 0, 78, 64
2, 39521, Note_on_c, 0, 76, 0
2, 39556, Note_on_c, 0, 78, 0
2, 39559, Note_on_c, 0, 79, 89
2, 39598, Note_on_c, 0, 81, 72
2, 39601, Note_on_c, 0, 79, 0
2, 39639, Note_on_c, 0, 83, 80
2, 39642, Note_on_c, 0, 81, 0
2, 39677, Note_on_c, 0, 83, 0
2, 39679, Note_on_c, 0, 84, 85
2, 39718, Note_on_c, 0, 86, 89
2, 39722, Note_on_c, 0, 84, 0
2, 39758, Note_on_c, 0, 88, 80
2, 39761, Note_on_c, 0, 86, 0
2, 39799, Note_on_c, 0, 84, 76
2, 39808, Note_on_c, 0, 88, 0
2, 39834, Note_on_c, 0, 84, 0
2, 39883, Note_on_c, 0, 88, 76
2, 39924, Note_on_c, 0, 86, 59
2, 39933, Note_on_c, 0, 88, 0
2, 39963, Note_on_c, 0, 84, 72
2, 39969, Note_on_c, 0, 86, 0
2, 40003, Note_on_c, 0, 83, 76
2, 40010, Note_on_c, 0, 84, 0
2, 40042, Note_on_c, 0, 83, 0
2, 40043, Note_on_c, 0, 81, 62
2, 40078, Note_on_c, 0, 81, 0
2, 40083, Note_on_c, 0, 79, 68
2, 40122, Note_on_c, 0, 77, 57
2, 40124, Note_on_c, 0, 79, 0
2, 40161, Note_on_c, 0, 77, 0
2, 40162, Note_on_c, 0, 76, 59
2, 40202, Note_on_c, 0, 76, 0
2, 40202, Note_on_c, 0, 74, 57
2, 40240, Note_on_c, 0, 74, 0
2, 40242, Note_on_c, 0, 76, 64
2, 40281, Note_on_c, 0, 72, 64
2, 40284, Note_on_c, 0, 76, 0
2, 40308, Note_on_c, 0, 72, 0
2, 40361, Note_on_c, 0, 72, 89
2, 40401, Note_on_c, 0, 74, 89
2, 40402, Note_on_c, 0, 72, 0
2, 40441, Note_on_c, 0, 76, 93
2, 40447, Note_on_c, 0, 74, 0
2, 40479, Note_on_c, 0, 78, 68
2, 40480, Note_on_c, 0, 76, 0
2, 40517, Note_on_c, 0, 78, 0
2, 40519, Note_on_c, 0, 79, 93
2, 40559, Note_on_c, 0, 81, 72
2, 40561, Note_on_c, 0, 79, 0
2, 40599, Note_on_c, 0, 83, 80
2, 40606, Note_on_c, 0, 81, 0
2, 40637, Note_on_c, 0, 83, 0
2, 40639, Note_on_c, 0, 84, 85
2, 40679, Note_on_c, 0, 86, 89
2, 40681, Note_on_c, 0, 84, 0
2, 40719, Note_on_c, 0, 88, 89
2, 40722, Note_on_c, 0, 86, 0
2, 40759, Note_on_c, 0, 84, 85
2, 40765, Note_on_c, 0, 88, 0
2, 40788, Note_on_c, 0, 84, 0
2, 40841, Note_on_c, 0, 88, 93
2, 40880, Note_on_c, 0, 86, 89
2, 40887, Note_on_c, 0, 88, 0
2, 40919, Note_on_c, 0, 84, 68
2, 40926, Note_on_c, 0, 86, 0
2, 40959, Note_on_c, 0, 83, 76
2, 40965, Note_on_c, 0, 84, 0
2, 40999, Note_on_c, 0, 81, 56
2, 41000, Note_on_c, 0, 83, 0
2, 41035, Note_on_c, 0, 81, 0
2, 41039, Note_on_c, 0, 79, 60
2, 41079, Note_on_c, 0, 77, 52
2, 41082, Note_on_c, 0, 79, 0
2, 41114, Note_on_c, 0, 77, 0
2, 41118, Note_on_c, 0, 76, 48
2, 41158, Note_on_c, 0, 74, 60
2, 41162, Note_on_c, 0, 76, 0
2, 41199, Note_on_c, 0, 76, 62
2, 41200, Note_on_c, 0, 74, 0
2, 41239, Note_on_c, 0, 72, 68
2, 41249, Note_on_c, 0, 76, 0
2, 41265, Note_on_c, 0, 72, 0
2, 41321, Note_on_c, 0, 72, 102
2, 41360, Note_on_c, 0, 72, 0
2, 41361, Note_on_c, 0, 74, 89
2, 41401, Note_on_c, 0, 75, 76
2, 41405, Note_on_c, 0, 74, 0
2, 41439, Note_on_c, 0, 78, 62
2, 41440, Note_on_c, 0, 75, 0
2, 41474, Note_on_c, 0, 78, 0
2, 41479, Note_on_c, 0, 79, 93
2, 41514, Note_on_c, 0, 79, 0
2, 41519, Note_on_c, 0, 80, 76
2, 41559, Note_on_c, 0, 83, 76
2, 41560, Note_on_c, 0, 80, 0
2, 41594, Note_on_c, 0, 83, 0
2, 41598, Note_on_c, 0, 84, 85
2, 41634, Note_on_c, 0, 84, 0
2, 41638, Note_on_c, 0, 86, 76
2, 41678, Note_on_c, 0, 87, 72
2, 41686, Note_on_c, 0, 86, 0
2, 41719, Note_on_c, 0, 84, 76
2, 41723, Note_on_c, 0, 87, 0
2, 41741, Note_on_c, 0, 84, 0
2, 41760, Note_on_c, 0, 88, 98
2, 41791, Note_on_c, 0, 86, 85
2, 41798, Note_on_c, 0, 88, 0
2, 41821, Note_on_c, 0, 84, 80
2, 41829, Note_on_c, 0, 86, 0
2, 41851, Note_on_c, 0, 83, 72
2, 41862, Note_on_c, 0, 84, 0
2, 41881, Note_on_c, 0, 81, 76
2, 41885, Note_on_c, 0, 83, 0
2, 41911, Note_on_c, 0, 79, 72
2, 41915, Note_on_c, 0, 81, 0
2, 41941, Note_on_c, 0, 77, 56
2, 41948, Note_on_c, 0, 79, 0
2, 41972, Note_on_c, 0, 76, 64
2, 41973, Note_on_c, 0, 77, 0
2, 42002, Note_on_c, 0, 84, 89
2, 42003, Note_on_c, 0, 76, 0
2, 42032, Note_on_c, 0, 83, 72
2, 42041, Note_on_c, 0, 84, 0
2, 42061, Note_on_c, 0, 81, 72
2, 42069, Note_on_c, 0, 83, 0
2, 42091, Note_on_c, 0, 79, 72
2, 42101, Note_on_c, 0, 81, 0
2, 42121, Note_on_c, 0, 79, 0
2, 42121, Note_on_c, 0, 77, 72
2, 42145, Note_on_c, 0, 77, 0
2, 42151, Note_on_c, 0, 76, 62
2, 42181, Note_on_c, 0, 74, 62
2, 42186, Note_on_c, 0, 76, 0
2, 42211, Note_on_c, 0, 72, 76
2, 42216, Note_on_c, 0, 74, 0
2, 42241, Note_on_c, 0, 76, 76
2, 42244, Note_on_c, 0, 72, 0
2, 42271, Note_on_c, 0, 76, 0
2, 42271, Note_on_c, 0, 74, 76
2, 42299, Note_on_c, 0, 74, 0
2, 42300, Note_on_c, 0, 76, 72
2, 42331, Note_on_c, 0, 74, 72
2, 42334, Note_on_c, 0, 76, 0
2, 42355, Note_on_c, 0, 74, 0
2, 42359, Note_on_c, 0, 76, 76
2, 42389, Note_on_c, 0, 74, 80
2, 42392, Note_on_c, 0, 76, 0
2, 42419, Note_on_c, 0, 76, 76
2, 42421, Note_on_c, 0, 74, 0
2, 42449, Note_on_c, 0, 74, 72
2, 42452, Note_on_c, 0, 76, 0
2, 42476, Note_on_c, 0, 74, 0
2, 42479, Note_on_c, 0, 76, 85
2, 42508, Note_on_c, 0, 74, 68
2, 42509, Note_on_c, 0, 76, 0
2, 42539, Note_on_c, 0, 76, 72
2, 42541, Note_on_c, 0, 74, 0
2, 42568, Note_on_c, 0, 74, 72
2, 42570, Note_on_c, 0, 76, 0
2, 42599, Note_on_c, 0, 76, 76
2, 42600, Note_on_c, 0, 74, 0
2, 42629, Note_on_c, 0, 74, 62
2, 42636, Note_on_c, 0, 76, 0
2, 42659, Note_on_c, 0, 72, 64
2, 42662, Note_on_c, 0, 74, 0
2, 42689, Note_on_c, 0, 74, 76
2, 42691, Note_on_c, 0, 72, 0
2, 42717, Note_on_c, 0, 74, 0
2, 42722, Note_on_c, 0, 60, 89
2, 42761, Note_on_c, 0, 64, 72
2, 42766, Note_on_c, 0, 60, 0
2, 42798, Note_on_c, 0, 64, 0
2, 42801, Note_on_c, 0, 67, 72
2, 42835, Note_on_c, 0, 67, 0
2, 42839, Note_on_c, 0, 72, 93
2, 42877, Note_on_c, 0, 72, 0
2, 42879, Note_on_c, 0, 76, 80
2, 42913, Note_on_c, 0, 76, 0
2, 42918, Note_on_c, 0, 79, 80
2, 42959, Note_on_c, 0, 79, 0
2, 42959, Note_on_c, 0, 84, 93
2, 42999, Note_on_c, 0, 79, 57
2, 43001, Note_on_c, 0, 84, 0
2, 43038, Note_on_c, 0, 76, 64
2, 43040, Note_on_c, 0, 79, 0
2, 43077, Note_on_c, 0, 76, 0
2, 43078, Note_on_c, 0, 83, 93
2, 43119, Note_on_c, 0, 77, 52
2, 43147, Note_on_c, 0, 83, 0
2, 43155, Note_on_c, 0, 77, 0
2, 43158, Note_on_c, 0, 74, 56
2, 43195, Note_on_c, 0, 74, 0
2, 43198, Note_on_c, 0, 81, 102
2, 43238, Note_on_c, 0, 76, 50
2, 43245, Note_on_c, 0, 81, 0
2, 43278, Note_on_c, 0, 76, 0
2, 43278, Note_on_c, 0, 72, 60
2, 43317, Note_on_c, 0, 72, 0
2, 43318, Note_on_c, 0, 79, 98
2, 43358, Note_on_c, 0, 74, 62
2, 43362, Note_on_c, 0, 79, 0
2, 43399, Note_on_c, 0, 71, 62
2, 43400, Note_on_c, 0, 74, 0
2, 43435, Note_on_c, 0, 71, 0
2, 43438, Note_on_c, 0, 77, 89
2, 43479, Note_on_c, 0, 72, 37
2, 43498, Note_on_c, 0, 77, 0
2, 43518, Note_on_c, 0, 72, 0
2, 43518, Note_on_c, 0, 69, 55
2, 43556, Note_on_c, 0, 69, 0
2, 43559, Note_on_c, 0, 76, 93
2, 43599, Note_on_c, 0, 71, 60
2, 43606, Note_on_c, 0, 76, 0
2, 43639, Note_on_c, 0, 67, 59
2, 43645, Note_on_c, 0, 71, 0
2, 43668, Note_on_c, 0, 67, 0
2, 43681, Note_on_c, 0, 64, 93
2, 43720, Note_on_c, 0, 64, 0
2, 43721, Note_on_c, 0, 70, 62
2, 43759, Note_on_c, 0, 70, 0
2, 43761, Note_on_c, 0, 73, 59
2, 43801, Note_on_c, 0, 73, 0
2, 43801, Note_on_c, 0, 65, 93
2, 43840, Note_on_c, 0, 65, 0
2, 43841, Note_on_c, 0, 69, 55
2, 43881, Note_on_c, 0, 69, 0
2, 43881, Note_on_c, 0, 74, 62
2, 43921, Note_on_c, 0, 74, 0
2, 43922, Note_on_c, 0, 64, 89
2, 43961, Note_on_c, 0, 64, 0
2, 43962, Note_on_c, 0, 67, 62
2, 43997, Note_on_c, 0, 67, 0
2, 44002, Note_on_c, 0, 72, 56
2, 44041, Note_on_c, 0, 72, 0
2, 44042, Note_on_c, 0, 62, 89
2, 44079, Note_on_c, 0, 62, 0
2, 44082, Note_on_c, 0, 65, 39
2, 44119, Note_on_c, 0, 65, 0
2, 44122, Note_on_c, 0, 71, 62
2, 44157, Note_on_c, 0, 71, 0
2, 44162, Note_on_c, 0, 60, 76
2, 44202, Note_on_c, 0, 60, 0
2, 44202, Note_on_c, 0, 64, 55
2, 44241, Note_on_c, 0, 64, 0
2, 44243, Note_on_c, 0, 67, 48
2, 44268, Note_on_c, 0, 67, 0
2, 44282, Note_on_c, 0, 72, 85
2, 44323, Note_on_c, 0, 76, 72
2, 44326, Note_on_c, 0, 72, 0
2, 44359, Note_on_c, 0, 76, 0
2, 44363, Note_on_c, 0, 79, 64
2, 44400, Note_on_c, 0, 79, 0
2, 44402, Note_on_c, 0, 84, 85
2, 44442, Note_on_c, 0, 79, 59
2, 44444, Note_on_c, 0, 84, 0
2, 44479, Note_on_c, 0, 79, 0
2, 44482, Note_on_c, 0, 76, 56
2, 44516, Note_on_c, 0, 76, 0
2, 44521, Note_on_c, 0, 83, 89
2, 44561, Note_on_c, 0, 77, 50
2, 44566, Note_on_c, 0, 83, 0
2, 44600, Note_on_c, 0, 77, 0
2, 44601, Note_on_c, 0, 74, 57
2, 44637, Note_on_c, 0, 74, 0
2, 44641, Note_on_c, 0, 81, 98
2, 44681, Note_on_c, 0, 76, 49
2, 44704, Note_on_c, 0, 81, 0
2, 44716, Note_on_c, 0, 76, 0
2, 44721, Note_on_c, 0, 72, 50
2, 44758, Note_on_c, 0, 72, 0
2, 44761, Note_on_c, 0, 79, 89
2, 44801, Note_on_c, 0, 74, 48
2, 44804, Note_on_c, 0, 79, 0
2, 44837, Note_on_c, 0, 74, 0
2, 44841, Note_on_c, 0, 71, 53
2, 44875, Note_on_c, 0, 71, 0
2, 44879, Note_on_c, 0, 77, 93
2, 44921, Note_on_c, 0, 72, 51
2, 44922, Note_on_c, 0, 77, 0
2, 44958, Note_on_c, 0, 72, 0
2, 44961, Note_on_c, 0, 69, 57
2, 44998, Note_on_c, 0, 69, 0
2, 45001, Note_on_c, 0, 76, 89
2, 45041, Note_on_c, 0, 71, 47
2, 45045, Note_on_c, 0, 76, 0
2, 45079, Note_on_c, 0, 71, 0
2, 45081, Note_on_c, 0, 67, 59
2, 45107, Note_on_c, 0, 67, 0
2, 45121, Note_on_c, 0, 64, 76
2, 45161, Note_on_c, 0, 70, 52
2, 45169, Note_on_c, 0, 64, 0
2, 45200, Note_on_c, 0, 70, 0
2, 45201, Note_on_c, 0, 73, 55
2, 45238, Note_on_c, 0, 73, 0
2, 45241, Note_on_c, 0, 65, 76
2, 45281, Note_on_c, 0, 65, 0
2, 45282, Note_on_c, 0, 69, 56
2, 45320, Note_on_c, 0, 69, 0
2, 45322, Note_on_c, 0, 74, 55
2, 45358, Note_on_c, 0, 74, 0
2, 45361, Note_on_c, 0, 64, 85
2, 45396, Note_on_c, 0, 64, 0
2, 45401, Note_on_c, 0, 67, 43
2, 45441, Note_on_c, 0, 67, 0
2, 45442, Note_on_c, 0, 72, 60
2, 45481, Note_on_c, 0, 72, 0
2, 45482, Note_on_c, 0, 62, 85
2, 45517, Note_on_c, 0, 62, 0
2, 45521, Note_on_c, 0, 65, 52
2, 45561, Note_on_c, 0, 65, 0
2, 45562, Note_on_c, 0, 71, 56
2, 45599, Note_on_c, 0, 71, 0
2, 45602, Note_on_c, 0, 64, 93
2, 45638, Note_on_c, 0, 64, 0
2, 45641, Note_on_c, 0, 67, 59
2, 45682, Note_on_c, 0, 67, 0
2, 45682, Note_on_c, 0, 72, 72
2, 45722, Note_on_c, 0, 72, 0
2, 45722, Note_on_c, 0, 63, 93
2, 45759, Note_on_c, 0, 63, 0
2, 45762, Note_on_c, 0, 66, 64
2, 45799, Note_on_c, 0, 66, 0
2, 45801, Note_on_c, 0, 72, 68
2, 45839, Note_on_c, 0, 72, 0
2, 45841, Note_on_c, 0, 64, 89
2, 45881, Note_on_c, 0, 67, 62
2, 45888, Note_on_c, 0, 64, 0
2, 45920, Note_on_c, 0, 67, 0
2, 45921, Note_on_c, 0, 72, 64
2, 45962, Note_on_c, 0, 72, 0
2, 45962, Note_on_c, 0, 63, 76
2, 45999, Note_on_c, 0, 63, 0
2, 46001, Note_on_c, 0, 66, 62
2, 46037, Note_on_c, 0, 66, 0
2, 46041, Note_on_c, 0, 72, 62
2, 46078, Note_on_c, 0, 72, 0
2, 46081, Note_on_c, 0, 64, 89
2, 46120, Note_on_c, 0, 64, 0
2, 46121, Note_on_c, 0, 67, 76
2, 46159, Note_on_c, 0, 67, 0
2, 46160, Note_on_c, 0, 72, 62
2, 46201, Note_on_c, 0, 69, 89
2, 46203, Note_on_c, 0, 72, 0
2, 46241, Note_on_c, 0, 65, 64
2, 46242, Note_on_c, 0, 69, 0
2, 46280, Note_on_c, 0, 65, 0
2, 46281, Note_on_c, 0, 62, 62
2, 46318, Note_on_c, 0, 62, 0
2, 46321, Note_on_c, 0, 67, 89
2, 46361, Note_on_c, 0, 64, 60
2, 46364, Note_on_c, 0, 67, 0
2, 46399, Note_on_c, 0, 64, 0
2, 46401, Note_on_c, 0, 60, 60
2, 46437, Note_on_c, 0, 60, 0
2, 46441, Note_on_c, 0, 65, 89
2, 46481, Note_on_c, 0, 62, 62
2, 46483, Note_on_c, 0, 65, 0
2, 46521, Note_on_c, 0, 62, 0
2, 46521, Note_on_c, 0, 59, 55
2, 46544, Note_on_c, 0, 59, 0
2, 46561, Note_on_c, 0, 55, 72
2, 46601, Note_on_c, 0, 60, 57
2, 46609, Note_on_c, 0, 55, 0
2, 46641, Note_on_c, 0, 60, 0
2, 46641, Note_on_c, 0, 64, 62
2, 46680, Note_on_c, 0, 64, 0
2, 46681, Note_on_c, 0, 54, 89
2, 46719, Note_on_c, 0, 54, 0
2, 46720, Note_on_c, 0, 60, 76
2, 46761, Note_on_c, 0, 63, 60
2, 46763, Note_on_c, 0, 60, 0
2, 46799, Note_on_c, 0, 63, 0
2, 46801, Note_on_c, 0, 55, 76
2, 46841, Note_on_c, 0, 60, 57
2, 46845, Note_on_c, 0, 55, 0
2, 46880, Note_on_c, 0, 60, 0
2, 46881, Note_on_c, 0, 64, 59
2, 46920, Note_on_c, 0, 64, 0
2, 46921, Note_on_c, 0, 54, 85
2, 46959, Note_on_c, 0, 60, 64
2, 46961, Note_on_c, 0, 54, 0
2, 46998, Note_on_c, 0, 60, 0
2, 47000, Note_on_c, 0, 63, 62
2, 47036, Note_on_c, 0, 63, 0
2, 47040, Note_on_c, 0, 55, 62
2, 47080, Note_on_c, 0, 60, 64
2, 47087, Note_on_c, 0, 55, 0
2, 47121, Note_on_c, 0, 64, 62
2, 47123, Note_on_c, 0, 60, 0
2, 47157, Note_on_c, 0, 64, 0
2, 47161, Note_on_c, 0, 62, 93
2, 47200, Note_on_c, 0, 62, 0
2, 47201, Note_on_c, 0, 57, 64
2, 47241, Note_on_c, 0, 53, 62
2, 47243, Note_on_c, 0, 57, 0
2, 47280, Note_on_c, 0, 53, 0
2, 47281, Note_on_c, 0, 60, 89
2, 47321, Note_on_c, 0, 55, 56
2, 47324, Note_on_c, 0, 60, 0
2, 47359, Note_on_c, 0, 55, 0
2, 47361, Note_on_c, 0, 52, 64
2, 47397, Note_on_c, 0, 52, 0
2, 47401, Note_on_c, 0, 59, 89
2, 47440, Note_on_c, 0, 59, 0
2, 47441, Note_on_c, 0, 53, 60
2, 47478, Note_on_c, 0, 53, 0
2, 47479, Note_on_c, 0, 50, 59
2, 47516, Note_on_c, 0, 50, 0
2, 47522, Note_on_c, 0, 48, 89
2, 47562, Note_on_c, 0, 52, 59
2, 47568, Note_on_c, 0, 48, 0
2, 47594, Note_on_c, 0, 52, 0
2, 47601, Note_on_c, 0, 55, 55
2, 47636, Note_on_c, 0, 55, 0
2, 47639, Note_on_c, 0, 60, 85
2, 47679, Note_on_c, 0, 55, 60
2, 47683, Note_on_c, 0, 60, 0
2, 47719, Note_on_c, 0, 52, 72
2, 47723, Note_on_c, 0, 55, 0
2, 47751, Note_on_c, 0, 52, 0
2, 47759, Note_on_c, 0, 48, 89
2, 47799, Note_on_c, 0, 52, 72
2, 47804, Note_on_c, 0, 48, 0
2, 47835, Note_on_c, 0, 52, 0
2, 47839, Note_on_c, 0, 55, 60
2, 47875, Note_on_c, 0, 55, 0
2, 47879, Note_on_c, 0, 60, 80
2, 47920, Note_on_c, 0, 55, 55
2, 47921, Note_on_c, 0, 60, 0
2, 47960, Note_on_c, 0, 52, 62
2, 47962, Note_on_c, 0, 55, 0
2, 47995, Note_on_c, 0, 52, 0
2, 48001, Note_on_c, 0, 48, 89
2, 48041, Note_on_c, 0, 52, 64
2, 48047, Note_on_c, 0, 48, 0
2, 48076, Note_on_c, 0, 52, 0
2, 48081, Note_on_c, 0, 55, 55
2, 48121, Note_on_c, 0, 60, 85
2, 48122, Note_on_c, 0, 55, 0
2, 48158, Note_on_c, 0, 60, 0
2, 48160, Note_on_c, 0, 64, 68
2, 48194, Note_on_c, 0, 64, 0
2, 48200, Note_on_c, 0, 67, 76
2, 48240, Note_on_c, 0, 67, 0
2, 48241, Note_on_c, 0, 72, 89
2, 48281, Note_on_c, 0, 72, 0
2, 48281, Note_on_c, 0, 67, 57
2, 48319, Note_on_c, 0, 67, 0
2, 48321, Note_on_c, 0, 64, 62
2, 48361, Note_on_c, 0, 64, 0
2, 48361, Note_on_c, 0, 60, 80
2, 48401, Note_on_c, 0, 64, 72
2, 48403, Note_on_c, 0, 60, 0
2, 48439, Note_on_c, 0, 64, 0
2, 48441, Note_on_c, 0, 67, 64
2, 48481, Note_on_c, 0, 60, 68
2, 48482, Note_on_c, 0, 67, 0
2, 48520, Note_on_c, 0, 60, 0
2, 48521, Note_on_c, 0, 64, 80
2, 48561, Note_on_c, 0, 67, 85
2, 48563, Note_on_c, 0, 64, 0
2, 48588, Note_on_c, 0, 67, 0
2, 48600, Note_on_c, 0, 72, 68
2, 48641, Note_on_c, 0, 76, 41
2, 48652, Note_on_c, 0, 72, 0
2, 48681, Note_on_c, 0, 76, 0
2, 48681, Note_on_c, 0, 79, 64
2, 48719, Note_on_c, 0, 79, 0
2, 48721, Note_on_c, 0, 84, 93
2, 48761, Note_on_c, 0, 79, 64
2, 48766, Note_on_c, 0, 84, 0
2, 48801, Note_on_c, 0, 76, 64
2, 48802, Note_on_c, 0, 79, 0
2, 48836, Note_on_c, 0, 76, 0
2, 48841, Note_on_c, 0, 72, 80
2, 48880, Note_on_c, 0, 72, 0
2, 48881, Note_on_c, 0, 76, 76
2, 48920, Note_on_c, 0, 76, 0
2, 48921, Note_on_c, 0, 79, 76
2, 48963, Note_on_c, 0, 79, 0
2, 48963, Note_on_c, 0, 84, 93
2, 49082, Note_on_c, 0, 84, 0
2, 49083, Note_on_c, 0, 72, 89
2, 49214, Note_on_c, 0, 72, 0
2, 49793, Note_on_c, 0, 79, 72
2, 49917, Note_on_c, 0, 77, 60
2, 49920, Note_on_c, 0, 79, 0
2, 49976, Note_on_c, 0, 75, 60
2, 49983, Note_on_c, 0, 77, 0
2, 50035, Note_on_c, 0, 74, 72
2, 50036, Note_on_c, 0, 75, 0
2, 50096, Note_on_c, 0, 74, 0
2, 50096, Note_on_c, 0, 72, 68
2, 50159, Note_on_c, 0, 75, 80
2, 50162, Note_on_c, 0, 72, 0
2, 50220, Note_on_c, 0, 74, 68
2, 50221, Note_on_c, 0, 75, 0
2, 50278, Note_on_c, 0, 77, 80
2, 50280, Note_on_c, 0, 74, 0
2, 50341, Note_on_c, 0, 77, 0
2, 50341, Note_on_c, 0, 71, 76
2, 50400, Note_on_c, 0, 71, 0
2, 50402, Note_on_c, 0, 72, 76
2, 50523, Note_on_c, 0, 72, 0
2, 50523, Note_on_c, 0, 67, 68
2, 50646, Note_on_c, 0, 67, 0
2, 50755, Note_on_c, 0, 67, 93
2, 50756, Note_on_c, 0, 75, 85
2, 50880, Note_on_c, 0, 67, 0
2, 50881, Note_on_c, 0, 75, 0
2, 50881, Note_on_c, 0, 65, 85
2, 50882, Note_on_c, 0, 74, 89
2, 51004, Note_on_c, 0, 72, 85
2, 51005, Note_on_c, 0, 74, 0
2, 51005, Note_on_c, 0, 65, 0
2, 51005, Note_on_c, 0, 63, 76
2, 51123, Note_on_c, 0, 63, 0
2, 51125, Note_on_c, 0, 72, 0
2, 51242, Note_on_c, 0, 75, 85
2, 51243, Note_on_c, 0, 79, 89
2, 51291, Note_on_c, 0, 79, 0
2, 51292, Note_on_c, 0, 75, 0
2, 51359, Note_on_c, 0, 77, 85
2, 51359, Note_on_c, 0, 74, 93
2, 51479, Note_on_c, 0, 75, 80
2, 51479, Note_on_c, 0, 72, 85
2, 51481, Note_on_c, 0, 74, 0
2, 51482, Note_on_c, 0, 77, 0
2, 51604, Note_on_c, 0, 75, 0
2, 51605, Note_on_c, 0, 72, 0
2, 51718, Note_on_c, 0, 79, 107
2, 51766, Note_on_c, 0, 79, 0
2, 51835, Note_on_c, 0, 87, 102
2, 51881, Note_on_c, 0, 89, 80
2, 51882, Note_on_c, 0, 87, 0
2, 51921, Note_on_c, 0, 87, 76
2, 51928, Note_on_c, 0, 89, 0
2, 51960, Note_on_c, 0, 87, 0
2, 51961, Note_on_c, 0, 86, 93
2, 52001, Note_on_c, 0, 84, 68
2, 52005, Note_on_c, 0, 86, 0
2, 52041, Note_on_c, 0, 83, 85
2, 52045, Note_on_c, 0, 84, 0
2, 52080, Note_on_c, 0, 83, 0
2, 52081, Note_on_c, 0, 84, 93
2, 52121, Note_on_c, 0, 86, 76
2, 52122, Note_on_c, 0, 84, 0
2, 52161, Note_on_c, 0, 84, 76
2, 52165, Note_on_c, 0, 86, 0
2, 52201, Note_on_c, 0, 82, 80
2, 52207, Note_on_c, 0, 84, 0
2, 52241, Note_on_c, 0, 82, 0
2, 52241, Note_on_c, 0, 81, 72
2, 52281, Note_on_c, 0, 79, 93
2, 52282, Note_on_c, 0, 81, 0
2, 52321, Note_on_c, 0, 79, 0
2, 52322, Note_on_c, 0, 78, 76
2, 52360, Note_on_c, 0, 78, 0
2, 52361, Note_on_c, 0, 79, 89
2, 52401, Note_on_c, 0, 81, 80
2, 52403, Note_on_c, 0, 79, 0
2, 52441, Note_on_c, 0, 79, 89
2, 52445, Note_on_c, 0, 81, 0
2, 52481, Note_on_c, 0, 79, 0
2, 52481, Note_on_c, 0, 77, 80
2, 52515, Note_on_c, 0, 77, 0
2, 52520, Note_on_c, 0, 76, 85
2, 52561, Note_on_c, 0, 74, 80
2, 52563, Note_on_c, 0, 76, 0
2, 52601, Note_on_c, 0, 72, 68
2, 52608, Note_on_c, 0, 74, 0
2, 52641, Note_on_c, 0, 70, 64
2, 52644, Note_on_c, 0, 72, 0
2, 52681, Note_on_c, 0, 69, 89
2, 52689, Note_on_c, 0, 70, 0
2, 52722, Note_on_c, 0, 67, 76
2, 52724, Note_on_c, 0, 69, 0
2, 52759, Note_on_c, 0, 67, 0
2, 52761, Note_on_c, 0, 66, 59
2, 52801, Note_on_c, 0, 67, 72
2, 52803, Note_on_c, 0, 66, 0
2, 52895, Note_on_c, 0, 67, 0
2, 53281, Note_on_c, 0, 55, 62
2, 53321, Note_on_c, 0, 58, 57
2, 53325, Note_on_c, 0, 55, 0
2, 53358, Note_on_c, 0, 58, 0
2, 53359, Note_on_c, 0, 62, 57
2, 53398, Note_on_c, 0, 62, 0
2, 53399, Note_on_c, 0, 67, 62
2, 53439, Note_on_c, 0, 62, 62
2, 53443, Note_on_c, 0, 67, 0
2, 53479, Note_on_c, 0, 58, 53
2, 53481, Note_on_c, 0, 62, 0
2, 53520, Note_on_c, 0, 55, 62
2, 53521, Note_on_c, 0, 58, 0
2, 53561, Note_on_c, 0, 58, 60
2, 53564, Note_on_c, 0, 55, 0
2, 53600, Note_on_c, 0, 58, 0
2, 53601, Note_on_c, 0, 62, 68
2, 53641, Note_on_c, 0, 62, 0
2, 53641, Note_on_c, 0, 67, 62
2, 53681, Note_on_c, 0, 67, 0
2, 53681, Note_on_c, 0, 62, 62
2, 53721, Note_on_c, 0, 58, 48
2, 53722, Note_on_c, 0, 62, 0
2, 53761, Note_on_c, 0, 55, 57
2, 53763, Note_on_c, 0, 58, 0
2, 53801, Note_on_c, 0, 58, 64
2, 53803, Note_on_c, 0, 55, 0
2, 53840, Note_on_c, 0, 62, 76
2, 53841, Note_on_c, 0, 58, 0
2, 53870, Note_on_c, 0, 62, 0
2, 53879, Note_on_c, 0, 67, 43
2, 53918, Note_on_c, 0, 70, 62
2, 53937, Note_on_c, 0, 67, 0
2, 53959, Note_on_c, 0, 74, 51
2, 53962, Note_on_c, 0, 70, 0
2, 53999, Note_on_c, 0, 79, 72
2, 54005, Note_on_c, 0, 74, 0
2, 54041, Note_on_c, 0, 74, 72
2, 54044, Note_on_c, 0, 79, 0
2, 54081, Note_on_c, 0, 70, 60
2, 54082, Note_on_c, 0, 74, 0
2, 54121, Note_on_c, 0, 70, 0
2, 54121, Note_on_c, 0, 67, 64
2, 54158, Note_on_c, 0, 67, 0
2, 54161, Note_on_c, 0, 70, 62
2, 54193, Note_on_c, 0, 70, 0
2, 54201, Note_on_c, 0, 74, 72
2, 54241, Note_on_c, 0, 67, 76
2, 54244, Note_on_c, 0, 74, 0
2, 54279, Note_on_c, 0, 70, 57
2, 54280, Note_on_c, 0, 67, 0
2, 54318, Note_on_c, 0, 70, 0
2, 54319, Note_on_c, 0, 74, 72
2, 54359, Note_on_c, 0, 79, 80
2, 54361, Note_on_c, 0, 74, 0
2, 54399, Note_on_c, 0, 82, 76
2, 54401, Note_on_c, 0, 79, 0
2, 54439, Note_on_c, 0, 84, 85
2, 54440, Note_on_c, 0, 82, 0
2, 54479, Note_on_c, 0, 86, 85
2, 54481, Note_on_c, 0, 84, 0
2, 54519, Note_on_c, 0, 84, 72
2, 54521, Note_on_c, 0, 86, 0
2, 54559, Note_on_c, 0, 82, 64
2, 54567, Note_on_c, 0, 84, 0
2, 54599, Note_on_c, 0, 81, 68
2, 54601, Note_on_c, 0, 82, 0
2, 54639, Note_on_c, 0, 79, 68
2, 54641, Note_on_c, 0, 81, 0
2, 54679, Note_on_c, 0, 78, 60
2, 54681, Note_on_c, 0, 79, 0
2, 54718, Note_on_c, 0, 78, 0
2, 54724, Note_on_c, 0, 79, 93
2, 54780, Note_on_c, 0, 79, 0
2, 54841, Note_on_c, 0, 82, 72
2, 54861, Note_on_c, 0, 81, 76
2, 54864, Note_on_c, 0, 82, 0
2, 54881, Note_on_c, 0, 82, 57
2, 54884, Note_on_c, 0, 81, 0
2, 54897, Note_on_c, 0, 81, 68
2, 54900, Note_on_c, 0, 82, 0
2, 54917, Note_on_c, 0, 81, 0
2, 54917, Note_on_c, 0, 79, 68
2, 54937, Note_on_c, 0, 79, 0
2, 54937, Note_on_c, 0, 81, 76
2, 54953, Note_on_c, 0, 82, 59
2, 54957, Note_on_c, 0, 81, 0
2, 55082, Note_on_c, 0, 74, 80
2, 55184, Note_on_c, 0, 74, 0
2, 55193, Note_on_c, 0, 82, 0
2, 55201, Note_on_c, 0, 76, 72
2, 55201, Note_on_c, 0, 82, 76
2, 55316, Note_on_c, 0, 82, 0
2, 55319, Note_on_c, 0, 80, 80
2, 55371, Note_on_c, 0, 76, 0
2, 55378, Note_on_c, 0, 74, 80
2, 55439, Note_on_c, 0, 81, 85
2, 55439, Note_on_c, 0, 73, 72
2, 55440, Note_on_c, 0, 74, 0
2, 55443, Note_on_c, 0, 80, 0
2, 55555, Note_on_c, 0, 73, 0
2, 55559, Note_on_c, 0, 69, 68
2, 55559, Note_on_c, 0, 79, 76
2, 55559, Note_on_c, 0, 76, 62
2, 55563, Note_on_c, 0, 81, 0
2, 55671, Note_on_c, 0, 76, 0
2, 55672, Note_on_c, 0, 69, 0
2, 55675, Note_on_c, 0, 79, 0
2, 55679, Note_on_c, 0, 77, 80
2, 55679, Note_on_c, 0, 69, 80
2, 55799, Note_on_c, 0, 76, 89
2, 55805, Note_on_c, 0, 77, 0
2, 55921, Note_on_c, 0, 74, 80
2, 55921, Note_on_c, 0, 65, 64
2, 55925, Note_on_c, 0, 69, 0
2, 55929, Note_on_c, 0, 76, 0
2, 56039, Note_on_c, 0, 65, 0
2, 56040, Note_on_c, 0, 62, 89
2, 56142, Note_on_c, 0, 62, 0
2, 56153, Note_on_c, 0, 74, 0
2, 56161, Note_on_c, 0, 73, 80
2, 56201, Note_on_c, 0, 69, 76
2, 56202, Note_on_c, 0, 73, 0
2, 56239, Note_on_c, 0, 69, 0
2, 56241, Note_on_c, 0, 73, 72
2, 56279, Note_on_c, 0, 73, 0
2, 56280, Note_on_c, 0, 76, 85
2, 56321, Note_on_c, 0, 81, 80
2, 56326, Note_on_c, 0, 76, 0
2, 56360, Note_on_c, 0, 81, 0
2, 56360, Note_on_c, 0, 85, 76
2, 56399, Note_on_c, 0, 85, 0
2, 56399, Note_on_c, 0, 88, 89
2, 56439, Note_on_c, 0, 86, 76
2, 56446, Note_on_c, 0, 88, 0
2, 56479, Note_on_c, 0, 85, 76
2, 56480, Note_on_c, 0, 86, 0
2, 56519, Note_on_c, 0, 82, 76
2, 56524, Note_on_c, 0, 85, 0
2, 56559, Note_on_c, 0, 81, 64
2, 56560, Note_on_c, 0, 82, 0
2, 56599, Note_on_c, 0, 79, 85
2, 56603, Note_on_c, 0, 81, 0
2, 56640, Note_on_c, 0, 77, 76
2, 56644, Note_on_c, 0, 79, 0
2, 56919, Note_on_c, 0, 77, 0
2, 56999, Note_on_c, 0, 77, 89
2, 56999, Note_on_c, 0, 86, 89
2, 57106, Note_on_c, 0, 77, 0
2, 57108, Note_on_c, 0, 86, 0
2, 57118, Note_on_c, 0, 76, 76
2, 57118, Note_on_c, 0, 85, 80
2, 57159, Note_on_c, 0, 69, 85
2, 57165, Note_on_c, 0, 85, 0
2, 57166, Note_on_c, 0, 76, 0
2, 57199, Note_on_c, 0, 73, 85
2, 57200, Note_on_c, 0, 69, 0
2, 57240, Note_on_c, 0, 76, 85
2, 57244, Note_on_c, 0, 73, 0
2, 57279, Note_on_c, 0, 81, 80
2, 57282, Note_on_c, 0, 76, 0
2, 57318, Note_on_c, 0, 81, 0
2, 57319, Note_on_c, 0, 85, 72
2, 57359, Note_on_c, 0, 88, 93
2, 57360, Note_on_c, 0, 85, 0
2, 57399, Note_on_c, 0, 86, 85
2, 57405, Note_on_c, 0, 88, 0
2, 57438, Note_on_c, 0, 86, 0
2, 57439, Note_on_c, 0, 85, 76
2, 57479, Note_on_c, 0, 82, 85
2, 57481, Note_on_c, 0, 85, 0
2, 57519, Note_on_c, 0, 81, 60
2, 57522, Note_on_c, 0, 82, 0
2, 57559, Note_on_c, 0, 79, 80
2, 57562, Note_on_c, 0, 81, 0
2, 57601, Note_on_c, 0, 77, 85
2, 57605, Note_on_c, 0, 79, 0
2, 57836, Note_on_c, 0, 77, 0
2, 57958, Note_on_c, 0, 77, 98
2, 57959, Note_on_c, 0, 86, 98
2, 58063, Note_on_c, 0, 77, 0
2, 58071, Note_on_c, 0, 86, 0
2, 58079, Note_on_c, 0, 76, 80
2, 58079, Note_on_c, 0, 85, 85
2, 58121, Note_on_c, 0, 81, 80
2, 58122, Note_on_c, 0, 85, 0
2, 58123, Note_on_c, 0, 76, 0
2, 58160, Note_on_c, 0, 81, 0
2, 58161, Note_on_c, 0, 76, 76
2, 58201, Note_on_c, 0, 73, 76
2, 58202, Note_on_c, 0, 76, 0
2, 58236, Note_on_c, 0, 73, 0
2, 58240, Note_on_c, 0, 76, 64
2, 58280, Note_on_c, 0, 73, 68
2, 58284, Note_on_c, 0, 76, 0
2, 58317, Note_on_c, 0, 73, 0
2, 58319, Note_on_c, 0, 69, 68
2, 58359, Note_on_c, 0, 73, 62
2, 58363, Note_on_c, 0, 69, 0
2, 58400, Note_on_c, 0, 69, 64
2, 58401, Note_on_c, 0, 73, 0
2, 58437, Note_on_c, 0, 69, 0
2, 58439, Note_on_c, 0, 64, 80
2, 58478, Note_on_c, 0, 64, 0
2, 58479, Note_on_c, 0, 69, 85
2, 58519, Note_on_c, 0, 64, 80
2, 58523, Note_on_c, 0, 69, 0
2, 58559, Note_on_c, 0, 61, 72
2, 58561, Note_on_c, 0, 64, 0
2, 58595, Note_on_c, 0, 61, 0
2, 58598, Note_on_c, 0, 64, 89
2, 58638, Note_on_c, 0, 61, 68
2, 58639, Note_on_c, 0, 64, 0
2, 58678, Note_on_c, 0, 57, 85
2, 58680, Note_on_c, 0, 61, 0
2, 58718, Note_on_c, 0, 61, 85
2, 58719, Note_on_c, 0, 57, 0
2, 58759, Note_on_c, 0, 57, 76
2, 58762, Note_on_c, 0, 61, 0
2, 58799, Note_on_c, 0, 52, 64
2, 58801, Note_on_c, 0, 57, 0
2, 58838, Note_on_c, 0, 52, 0
2, 58839, Note_on_c, 0, 57, 76
2, 58877, Note_on_c, 0, 57, 0
2, 58879, Note_on_c, 0, 52, 53
2, 58919, Note_on_c, 0, 49, 85
2, 58923, Note_on_c, 0, 52, 0
2, 58957, Note_on_c, 0, 49, 0
2, 58959, Note_on_c, 0, 52, 60
2, 58998, Note_on_c, 0, 49, 60
2, 59004, Note_on_c, 0, 52, 0
2, 59039, Note_on_c, 0, 45, 89
2, 59041, Note_on_c, 0, 49, 0
2, 59079, Note_on_c, 0, 49, 62
2, 59086, Note_on_c, 0, 45, 0
2, 59119, Note_on_c, 0, 49, 0
2, 59119, Note_on_c, 0, 52, 80
2, 59159, Note_on_c, 0, 57, 89
2, 59161, Note_on_c, 0, 52, 0
2, 59199, Note_on_c, 0, 52, 68
2, 59200, Note_on_c, 0, 57, 0
2, 59239, Note_on_c, 0, 49, 56
2, 59242, Note_on_c, 0, 52, 0
2, 59280, Note_on_c, 0, 45, 80
2, 59283, Note_on_c, 0, 49, 0
2, 59321, Note_on_c, 0, 49, 62
2, 59325, Note_on_c, 0, 45, 0
2, 59360, Note_on_c, 0, 52, 68
2, 59361, Note_on_c, 0, 49, 0
2, 59399, Note_on_c, 0, 57, 89
2, 59400, Note_on_c, 0, 52, 0
2, 59441, Note_on_c, 0, 57, 0
2, 59441, Note_on_c, 0, 52, 64
2, 59479, Note_on_c, 0, 49, 57
2, 59482, Note_on_c, 0, 52, 0
2, 59519, Note_on_c, 0, 45, 80
2, 59520, Note_on_c, 0, 49, 0
2, 59560, Note_on_c, 0, 49, 62
2, 59562, Note_on_c, 0, 45, 0
2, 59600, Note_on_c, 0, 49, 0
2, 59600, Note_on_c, 0, 52, 72
2, 59641, Note_on_c, 0, 57, 80
2, 59642, Note_on_c, 0, 52, 0
2, 59679, Note_on_c, 0, 57, 0
2, 59680, Note_on_c, 0, 61, 72
2, 59715, Note_on_c, 0, 61, 0
2, 59719, Note_on_c, 0, 64, 64
2, 59760, Note_on_c, 0, 69, 98
2, 59762, Note_on_c, 0, 64, 0
2, 59801, Note_on_c, 0, 64, 80
2, 59803, Note_on_c, 0, 69, 0
2, 59841, Note_on_c, 0, 61, 68
2, 59844, Note_on_c, 0, 64, 0
2, 59881, Note_on_c, 0, 57, 80
2, 59885, Note_on_c, 0, 61, 0
2, 59921, Note_on_c, 0, 61, 72
2, 59924, Note_on_c, 0, 57, 0
2, 59960, Note_on_c, 0, 61, 0
2, 59961, Note_on_c, 0, 64, 76
2, 60000, Note_on_c, 0, 64, 0
2, 60001, Note_on_c, 0, 57, 76
2, 60041, Note_on_c, 0, 61, 72
2, 60045, Note_on_c, 0, 57, 0
2, 60080, Note_on_c, 0, 64, 72
2, 60081, Note_on_c, 0, 61, 0
2, 60121, Note_on_c, 0, 64, 0
2, 60121, Note_on_c, 0, 69, 76
2, 60159, Note_on_c, 0, 73, 68
2, 60168, Note_on_c, 0, 69, 0
2, 60200, Note_on_c, 0, 76, 64
2, 60201, Note_on_c, 0, 73, 0
2, 60239, Note_on_c, 0, 76, 0
2, 60239, Note_on_c, 0, 81, 89
2, 60280, Note_on_c, 0, 76, 56
2, 60283, Note_on_c, 0, 81, 0
2, 60319, Note_on_c, 0, 73, 62
2, 60321, Note_on_c, 0, 76, 0
2, 60360, Note_on_c, 0, 73, 0
2, 60361, Note_on_c, 0, 69, 72
2, 60401, Note_on_c, 0, 73, 89
2, 60404, Note_on_c, 0, 69, 0
2, 60439, Note_on_c, 0, 73, 0
2, 60441, Note_on_c, 0, 76, 89
2, 60480, Note_on_c, 0, 76, 0
2, 60481, Note_on_c, 0, 81, 89
2, 60595, Note_on_c, 0, 81, 0
2, 60599, Note_on_c, 0, 69, 93
2, 60710, Note_on_c, 0, 69, 0
2, 60718, Note_on_c, 0, 81, 98
2, 60999, Note_on_c, 0, 82, 62
2, 61006, Note_on_c, 0, 81, 0
2, 61039, Note_on_c, 0, 81, 60
2, 61042, Note_on_c, 0, 82, 0
2, 61079, Note_on_c, 0, 79, 56
2, 61082, Note_on_c, 0, 81, 0
2, 61120, Note_on_c, 0, 81, 62
2, 61124, Note_on_c, 0, 79, 0
2, 61157, Note_on_c, 0, 81, 0
2, 61159, Note_on_c, 0, 79, 60
2, 61198, Note_on_c, 0, 79, 0
2, 61199, Note_on_c, 0, 77, 64
2, 61239, Note_on_c, 0, 79, 57
2, 61242, Note_on_c, 0, 77, 0
2, 61279, Note_on_c, 0, 77, 64
2, 61284, Note_on_c, 0, 79, 0
2, 61319, Note_on_c, 0, 76, 57
2, 61322, Note_on_c, 0, 77, 0
2, 61359, Note_on_c, 0, 77, 64
2, 61361, Note_on_c, 0, 76, 0
2, 61399, Note_on_c, 0, 76, 56
2, 61400, Note_on_c, 0, 77, 0
2, 61441, Note_on_c, 0, 74, 76
2, 61446, Note_on_c, 0, 76, 0
2, 61533, Note_on_c, 0, 74, 0
2, 61561, Note_on_c, 0, 74, 107
2, 61678, Note_on_c, 0, 74, 0
2, 61680, Note_on_c, 0, 73, 85
2, 61680, Note_on_c, 0, 76, 98
2, 61792, Note_on_c, 0, 76, 0
2, 61794, Note_on_c, 0, 73, 0
2, 61799, Note_on_c, 0, 72, 56
2, 61799, Note_on_c, 0, 78, 30
2, 61887, Note_on_c, 0, 72, 0
2, 61918, Note_on_c, 0, 70, 43
2, 61919, Note_on_c, 0, 79, 62
2, 61920, Note_on_c, 0, 79, 80
2, 61921, Note_on_c, 0, 70, 59
2, 61922, Note_on_c, 0, 78, 0
2, 62033, Note_on_c, 0, 70, 0
2, 62035, Note_on_c, 0, 79, 0
2, 62042, Note_on_c, 0, 78, 56
2, 62042, Note_on_c, 0, 81, 72
2, 62053, Note_on_c, 0, 79, 0
2, 62057, Note_on_c, 0, 70, 0
2, 62158, Note_on_c, 0, 81, 0
2, 62161, Note_on_c, 0, 78, 0
2, 62162, Note_on_c, 0, 82, 60
2, 62162, Note_on_c, 0, 79, 64
2, 62276, Note_on_c, 0, 79, 0
2, 62277, Note_on_c, 0, 82, 0
2, 62281, Note_on_c, 0, 84, 72
2, 62281, Note_on_c, 0, 77, 60
2, 62398, Note_on_c, 0, 84, 0
2, 62399, Note_on_c, 0, 77, 0
2, 62399, Note_on_c, 0, 82, 62
2, 62401, Note_on_c, 0, 79, 76
2, 62518, Note_on_c, 0, 79, 0
2, 62519, Note_on_c, 0, 67, 60
2, 62520, Note_on_c, 0, 82, 0
2, 62639, Note_on_c, 0, 79, 113
2, 62640, Note_on_c, 0, 67, 0
2, 62919, Note_on_c, 0, 81, 55
2, 62923, Note_on_c, 0, 79, 0
2, 62959, Note_on_c, 0, 79, 60
2, 62965, Note_on_c, 0, 81, 0
2, 62998, Note_on_c, 0, 77, 72
2, 63001, Note_on_c, 0, 79, 0
2, 63039, Note_on_c, 0, 79, 52
2, 63047, Note_on_c, 0, 77, 0
2, 63078, Note_on_c, 0, 79, 0
2, 63079, Note_on_c, 0, 77, 50
2, 63120, Note_on_c, 0, 76, 72
2, 63124, Note_on_c, 0, 77, 0
2, 63160, Note_on_c, 0, 77, 52
2, 63167, Note_on_c, 0, 76, 0
2, 63200, Note_on_c, 0, 77, 0
2, 63200, Note_on_c, 0, 76, 53
2, 63241, Note_on_c, 0, 74, 60
2, 63243, Note_on_c, 0, 76, 0
2, 63279, Note_on_c, 0, 74, 0
2, 63280, Note_on_c, 0, 76, 53
2, 63319, Note_on_c, 0, 74, 56
2, 63320, Note_on_c, 0, 76, 0
2, 63360, Note_on_c, 0, 72, 60
2, 63361, Note_on_c, 0, 74, 0
2, 63454, Note_on_c, 0, 72, 0
2, 63480, Note_on_c, 0, 72, 119
2, 63601, Note_on_c, 0, 71, 76
2, 63601, Note_on_c, 0, 74, 89
2, 63605, Note_on_c, 0, 72, 0
2, 63719, Note_on_c, 0, 71, 0
2, 63720, Note_on_c, 0, 70, 51
2, 63721, Note_on_c, 0, 76, 59
2, 63722, Note_on_c, 0, 74, 0
2, 63835, Note_on_c, 0, 76, 0
2, 63837, Note_on_c, 0, 70, 0
2, 63839, Note_on_c, 0, 69, 50
2, 63839, Note_on_c, 0, 77, 53
2, 63952, Note_on_c, 0, 77, 0
2, 63958, Note_on_c, 0, 76, 57
2, 63959, Note_on_c, 0, 79, 48
2, 63963, Note_on_c, 0, 69, 0
2, 64076, Note_on_c, 0, 76, 0
2, 64079, Note_on_c, 0, 79, 0
2, 64079, Note_on_c, 0, 81, 60
2, 64079, Note_on_c, 0, 77, 51
2, 64199, Note_on_c, 0, 77, 0
2, 64199, Note_on_c, 0, 82, 59
2, 64199, Note_on_c, 0, 76, 57
2, 64206, Note_on_c, 0, 81, 0
2, 64319, Note_on_c, 0, 81, 56
2, 64321, Note_on_c, 0, 77, 49
2, 64325, Note_on_c, 0, 76, 0
2, 64326, Note_on_c, 0, 82, 0
2, 64434, Note_on_c, 0, 77, 0
2, 64435, Note_on_c, 0, 81, 0
2, 64439, Note_on_c, 0, 65, 93
2, 64561, Note_on_c, 0, 77, 89
2, 64569, Note_on_c, 0, 65, 0
2, 64836, Note_on_c, 0, 77, 0
2, 64838, Note_on_c, 0, 79, 72
2, 64879, Note_on_c, 0, 77, 68
2, 64886, Note_on_c, 0, 79, 0
2, 64919, Note_on_c, 0, 75, 76
2, 64925, Note_on_c, 0, 77, 0
2, 64961, Note_on_c, 0, 77, 56
2, 64968, Note_on_c, 0, 75, 0
2, 65001, Note_on_c, 0, 75, 49
2, 65009, Note_on_c, 0, 77, 0
2, 65038, Note_on_c, 0, 75, 0
2, 65040, Note_on_c, 0, 74, 89
2, 65081, Note_on_c, 0, 75, 60
2, 65089, Note_on_c, 0, 74, 0
2, 65120, Note_on_c, 0, 75, 0
2, 65121, Note_on_c, 0, 74, 42
2, 65161, Note_on_c, 0, 74, 0
2, 65161, Note_on_c, 0, 72, 80
2, 65201, Note_on_c, 0, 74, 59
2, 65203, Note_on_c, 0, 72, 0
2, 65241, Note_on_c, 0, 72, 57
2, 65245, Note_on_c, 0, 74, 0
2, 65281, Note_on_c, 0, 72, 0
2, 65281, Note_on_c, 0, 70, 64
2, 65377, Note_on_c, 0, 70, 0
2, 65398, Note_on_c, 0, 70, 107
2, 65519, Note_on_c, 0, 82, 102
2, 65522, Note_on_c, 0, 70, 0
2, 65797, Note_on_c, 0, 82, 0
2, 65799, Note_on_c, 0, 84, 76
2, 65838, Note_on_c, 0, 82, 62
2, 65845, Note_on_c, 0, 84, 0
2, 65879, Note_on_c, 0, 81, 89
2, 65884, Note_on_c, 0, 82, 0
2, 65919, Note_on_c, 0, 82, 52
2, 65928, Note_on_c, 0, 81, 0
2, 65959, Note_on_c, 0, 81, 62
2, 65962, Note_on_c, 0, 82, 0
2, 65999, Note_on_c, 0, 79, 93
2, 66003, Note_on_c, 0, 81, 0
2, 66041, Note_on_c, 0, 81, 60
2, 66047, Note_on_c, 0, 79, 0
2, 66081, Note_on_c, 0, 81, 0
2, 66081, Note_on_c, 0, 79, 56
2, 66120, Note_on_c, 0, 79, 0
2, 66121, Note_on_c, 0, 77, 89
2, 66161, Note_on_c, 0, 79, 64
2, 66163, Note_on_c, 0, 77, 0
2, 66199, Note_on_c, 0, 77, 59
2, 66201, Note_on_c, 0, 79, 0
2, 66241, Note_on_c, 0, 76, 93
2, 66242, Note_on_c, 0, 77, 0
2, 66282, Note_on_c, 0, 74, 56
2, 66283, Note_on_c, 0, 76, 0
2, 66318, Note_on_c, 0, 74, 0
2, 66321, Note_on_c, 0, 76, 60
2, 66361, Note_on_c, 0, 76, 0
2, 66361, Note_on_c, 0, 77, 89
2, 66401, Note_on_c, 0, 76, 62
2, 66402, Note_on_c, 0, 77, 0
2, 66440, Note_on_c, 0, 77, 68
2, 66441, Note_on_c, 0, 76, 0
2, 66480, Note_on_c, 0, 77, 0
2, 66481, Note_on_c, 0, 79, 93
2, 66521, Note_on_c, 0, 77, 51
2, 66522, Note_on_c, 0, 79, 0
2, 66560, Note_on_c, 0, 79, 59
2, 66563, Note_on_c, 0, 77, 0
2, 66600, Note_on_c, 0, 79, 0
2, 66601, Note_on_c, 0, 81, 89
2, 66641, Note_on_c, 0, 79, 47
2, 66642, Note_on_c, 0, 81, 0
2, 66681, Note_on_c, 0, 81, 72
2, 66682, Note_on_c, 0, 79, 0
2, 66718, Note_on_c, 0, 81, 0
2, 66721, Note_on_c, 0, 82, 85
2, 66761, Note_on_c, 0, 84, 56
2, 66762, Note_on_c, 0, 82, 0
2, 66801, Note_on_c, 0, 82, 56
2, 66805, Note_on_c, 0, 84, 0
2, 66840, Note_on_c, 0, 81, 93
2, 66842, Note_on_c, 0, 82, 0
2, 66881, Note_on_c, 0, 82, 51
2, 66886, Note_on_c, 0, 81, 0
2, 66919, Note_on_c, 0, 81, 59
2, 66923, Note_on_c, 0, 82, 0
2, 66959, Note_on_c, 0, 79, 98
2, 66960, Note_on_c, 0, 81, 0
2, 67001, Note_on_c, 0, 81, 64
2, 67006, Note_on_c, 0, 79, 0
2, 67040, Note_on_c, 0, 81, 0
2, 67041, Note_on_c, 0, 79, 62
2, 67078, Note_on_c, 0, 79, 0
2, 67081, Note_on_c, 0, 77, 85
2, 67121, Note_on_c, 0, 79, 57
2, 67125, Note_on_c, 0, 77, 0
2, 67160, Note_on_c, 0, 77, 60
2, 67162, Note_on_c, 0, 79, 0
2, 67199, Note_on_c, 0, 76, 89
2, 67200, Note_on_c, 0, 77, 0
2, 67241, Note_on_c, 0, 74, 57
2, 67244, Note_on_c, 0, 76, 0
2, 67280, Note_on_c, 0, 74, 0
2, 67281, Note_on_c, 0, 76, 56
2, 67319, Note_on_c, 0, 76, 0
2, 67320, Note_on_c, 0, 77, 89
2, 67360, Note_on_c, 0, 76, 62
2, 67362, Note_on_c, 0, 77, 0
2, 67400, Note_on_c, 0, 77, 64
2, 67401, Note_on_c, 0, 76, 0
2, 67438, Note_on_c, 0, 77, 0
2, 67440, Note_on_c, 0, 79, 93
2, 67481, Note_on_c, 0, 79, 0
2, 67481, Note_on_c, 0, 77, 50
2, 67519, Note_on_c, 0, 77, 0
2, 67520, Note_on_c, 0, 79, 62
2, 67559, Note_on_c, 0, 79, 0
2, 67561, Note_on_c, 0, 81, 89
2, 67600, Note_on_c, 0, 79, 72
2, 67601, Note_on_c, 0, 81, 0
2, 67639, Note_on_c, 0, 81, 72
2, 67646, Note_on_c, 0, 79, 0
2, 67678, Note_on_c, 0, 81, 0
2, 67679, Note_on_c, 0, 82, 80
2, 67703, Note_on_c, 0, 82, 0
2, 67719, Note_on_c, 0, 82, 68
2, 67760, Note_on_c, 0, 79, 72
2, 67764, Note_on_c, 0, 82, 0
2, 67799, Note_on_c, 0, 76, 76
2, 67800, Note_on_c, 0, 79, 0
2, 67840, Note_on_c, 0, 79, 80
2, 67843, Note_on_c, 0, 76, 0
2, 67879, Note_on_c, 0, 79, 0
2, 67880, Note_on_c, 0, 76, 76
2, 67911, Note_on_c, 0, 76, 0
2, 67921, Note_on_c, 0, 70, 68
2, 67961, Note_on_c, 0, 70, 0
2, 67961, Note_on_c, 0, 76, 48
2, 68001, Note_on_c, 0, 70, 59
2, 68009, Note_on_c, 0, 76, 0
2, 68041, Note_on_c, 0, 67, 76
2, 68043, Note_on_c, 0, 70, 0
2, 68081, Note_on_c, 0, 70, 72
2, 68085, Note_on_c, 0, 67, 0
2, 68120, Note_on_c, 0, 70, 0
2, 68121, Note_on_c, 0, 67, 68
2, 68161, Note_on_c, 0, 64, 80
2, 68162, Note_on_c, 0, 67, 0
2, 68201, Note_on_c, 0, 67, 76
2, 68204, Note_on_c, 0, 64, 0
2, 68241, Note_on_c, 0, 64, 64
2, 68247, Note_on_c, 0, 67, 0
2, 68281, Note_on_c, 0, 58, 64
2, 68282, Note_on_c, 0, 64, 0
2, 68321, Note_on_c, 0, 58, 0
2, 68321, Note_on_c, 0, 64, 80
2, 68360, Note_on_c, 0, 58, 52
2, 68361, Note_on_c, 0, 64, 0
2, 68401, Note_on_c, 0, 55, 62
2, 68406, Note_on_c, 0, 58, 0
2, 68439, Note_on_c, 0, 55, 0
2, 68439, Note_on_c, 0, 58, 60
2, 68479, Note_on_c, 0, 55, 62
2, 68481, Note_on_c, 0, 58, 0
2, 68520, Note_on_c, 0, 52, 56
2, 68521, Note_on_c, 0, 55, 0
2, 68556, Note_on_c, 0, 52, 0
2, 68559, Note_on_c, 0, 55, 72
2, 68599, Note_on_c, 0, 52, 72
2, 68604, Note_on_c, 0, 55, 0
2, 68637, Note_on_c, 0, 52, 0
2, 68639, Note_on_c, 0, 48, 85
2, 68679, Note_on_c, 0, 52, 62
2, 68683, Note_on_c, 0, 48, 0
2, 68719, Note_on_c, 0, 52, 0
2, 68719, Note_on_c, 0, 55, 72
2, 68757, Note_on_c, 0, 55, 0
2, 68759, Note_on_c, 0, 58, 76
2, 68799, Note_on_c, 0, 55, 76
2, 68804, Note_on_c, 0, 58, 0
2, 68839, Note_on_c, 0, 52, 76
2, 68845, Note_on_c, 0, 55, 0
2, 68879, Note_on_c, 0, 48, 85
2, 68880, Note_on_c, 0, 52, 0
2, 68919, Note_on_c, 0, 52, 72
2, 68925, Note_on_c, 0, 48, 0
2, 68958, Note_on_c, 0, 52, 0
2, 68959, Note_on_c, 0, 55, 64
2, 68999, Note_on_c, 0, 58, 68
2, 69004, Note_on_c, 0, 55, 0
2, 69039, Note_on_c, 0, 55, 62
2, 69041, Note_on_c, 0, 58, 0
2, 69079, Note_on_c, 0, 52, 64
2, 69084, Note_on_c, 0, 55, 0
2, 69119, Note_on_c, 0, 48, 85
2, 69120, Note_on_c, 0, 52, 0
2, 69159, Note_on_c, 0, 52, 62
2, 69162, Note_on_c, 0, 48, 0
2, 69199, Note_on_c, 0, 55, 76
2, 69202, Note_on_c, 0, 52, 0
2, 69239, Note_on_c, 0, 60, 80
2, 69242, Note_on_c, 0, 55, 0
2, 69279, Note_on_c, 0, 64, 80
2, 69285, Note_on_c, 0, 60, 0
2, 69319, Note_on_c, 0, 64, 0
2, 69319, Note_on_c, 0, 67, 85
2, 69360, Note_on_c, 0, 70, 89
2, 69362, Note_on_c, 0, 67, 0
2, 69401, Note_on_c, 0, 67, 76
2, 69403, Note_on_c, 0, 70, 0
2, 69440, Note_on_c, 0, 64, 72
2, 69445, Note_on_c, 0, 67, 0
2, 69481, Note_on_c, 0, 60, 72
2, 69482, Note_on_c, 0, 64, 0
2, 69520, Note_on_c, 0, 64, 72
2, 69531, Note_on_c, 0, 60, 0
2, 69559, Note_on_c, 0, 64, 0
2, 69559, Note_on_c, 0, 67, 76
2, 69599, Note_on_c, 0, 67, 0
2, 69601, Note_on_c, 0, 60, 89
2, 69641, Note_on_c, 0, 64, 64
2, 69646, Note_on_c, 0, 60, 0
2, 69681, Note_on_c, 0, 64, 0
2, 69681, Note_on_c, 0, 67, 72
2, 69721, Note_on_c, 0, 67, 0
2, 69721, Note_on_c, 0, 72, 72
2, 69761, Note_on_c, 0, 76, 72
2, 69768, Note_on_c, 0, 72, 0
2, 69799, Note_on_c, 0, 76, 0
2, 69799, Note_on_c, 0, 79, 72
2, 69839, Note_on_c, 0, 82, 89
2, 69840, Note_on_c, 0, 79, 0
2, 69879, Note_on_c, 0, 79, 76
2, 69883, Note_on_c, 0, 82, 0
2, 69919, Note_on_c, 0, 76, 64
2, 69921, Note_on_c, 0, 79, 0
2, 69959, Note_on_c, 0, 72, 80
2, 69961, Note_on_c, 0, 76, 0
2, 70000, Note_on_c, 0, 76, 76
2, 70008, Note_on_c, 0, 72, 0
2, 70039, Note_on_c, 0, 76, 0
2, 70039, Note_on_c, 0, 79, 80
2, 70081, Note_on_c, 0, 79, 0
2, 70081, Note_on_c, 0, 82, 89
2, 70163, Note_on_c, 0, 82, 0
2, 70201, Note_on_c, 0, 67, 76
2, 70201, Note_on_c, 0, 70, 76
2, 70201, Note_on_c, 0, 64, 72
2, 70313, Note_on_c, 0, 70, 0
2, 70316, Note_on_c, 0, 64, 0
2, 70318, Note_on_c, 0, 67, 0
2, 70439, Note_on_c, 0, 72, 56
2, 70558, Note_on_c, 0, 70, 62
2, 70561, Note_on_c, 0, 72, 0
2, 70617, Note_on_c, 0, 69, 64
2, 70619, Note_on_c, 0, 70, 0
2, 70677, Note_on_c, 0, 67, 59
2, 70678, Note_on_c, 0, 69, 0
2, 70738, Note_on_c, 0, 65, 62
2, 70746, Note_on_c, 0, 67, 0
2, 70798, Note_on_c, 0, 69, 64
2, 70801, Note_on_c, 0, 65, 0
2, 70859, Note_on_c, 0, 67, 64
2, 70861, Note_on_c, 0, 69, 0
2, 70919, Note_on_c, 0, 70, 68
2, 70921, Note_on_c, 0, 67, 0
2, 70979, Note_on_c, 0, 64, 60
2, 70982, Note_on_c, 0, 70, 0
2, 71040, Note_on_c, 0, 65, 76
2, 71044, Note_on_c, 0, 64, 0
2, 71063, Note_on_c, 0, 65, 0
2, 71158, Note_on_c, 0, 60, 56
2, 71185, Note_on_c, 0, 60, 0
2, 71278, Note_on_c, 0, 72, 80
2, 71518, Note_on_c, 0, 70, 64
2, 71526, Note_on_c, 0, 72, 0
2, 71579, Note_on_c, 0, 69, 62
2, 71585, Note_on_c, 0, 70, 0
2, 71637, Note_on_c, 0, 69, 0
2, 71638, Note_on_c, 0, 67, 68
2, 71698, Note_on_c, 0, 65, 76
2, 71702, Note_on_c, 0, 67, 0
2, 71759, Note_on_c, 0, 69, 64
2, 71761, Note_on_c, 0, 65, 0
2, 71818, Note_on_c, 0, 69, 0
2, 71819, Note_on_c, 0, 67, 72
2, 71879, Note_on_c, 0, 70, 72
2, 71880, Note_on_c, 0, 67, 0
2, 71936, Note_on_c, 0, 70, 0
2, 71938, Note_on_c, 0, 64, 68
2, 71997, Note_on_c, 0, 64, 0
2, 71998, Note_on_c, 0, 65, 76
2, 72478, Note_on_c, 0, 65, 0
2, 72481, Note_on_c, 0, 66, 68
2, 72537, Note_on_c, 0, 66, 0
2, 72538, Note_on_c, 0, 67, 64
2, 72598, Note_on_c, 0, 69, 80
2, 72602, Note_on_c, 0, 67, 0
2, 72658, Note_on_c, 0, 70, 76
2, 72660, Note_on_c, 0, 69, 0
2, 72719, Note_on_c, 0, 70, 0
2, 72719, Note_on_c, 0, 72, 72
2, 72779, Note_on_c, 0, 73, 72
2, 72785, Note_on_c, 0, 72, 0
2, 72839, Note_on_c, 0, 73, 0
2, 72839, Note_on_c, 0, 74, 62
2, 72897, Note_on_c, 0, 74, 0
2, 72898, Note_on_c, 0, 76, 80
2, 72958, Note_on_c, 0, 79, 89
2, 72962, Note_on_c, 0, 76, 0
2, 73019, Note_on_c, 0, 77, 76
2, 73026, Note_on_c, 0, 79, 0
2, 73079, Note_on_c, 0, 76, 72
2, 73086, Note_on_c, 0, 77, 0
2, 73139, Note_on_c, 0, 76, 0
2, 73139, Note_on_c, 0, 74, 64
2, 73191, Note_on_c, 0, 74, 0
2, 73199, Note_on_c, 0, 74, 89
2, 73259, Note_on_c, 0, 72, 64
2, 73265, Note_on_c, 0, 74, 0
2, 73320, Note_on_c, 0, 70, 64
2, 73327, Note_on_c, 0, 72, 0
2, 73378, Note_on_c, 0, 70, 0
2, 73379, Note_on_c, 0, 69, 76
2, 73438, Note_on_c, 0, 69, 0
2, 73439, Note_on_c, 0, 64, 64
2, 73439, Note_on_c, 0, 67, 80
2, 73561, Note_on_c, 0, 69, 76
2, 73565, Note_on_c, 0, 67, 0
2, 73591, Note_on_c, 0, 67, 72
2, 73596, Note_on_c, 0, 69, 0
2, 73620, Note_on_c, 0, 66, 62
2, 73623, Note_on_c, 0, 67, 0
2, 73681, Note_on_c, 0, 67, 72
2, 73687, Note_on_c, 0, 66, 0
2, 73796, Note_on_c, 0, 67, 0
2, 73799, Note_on_c, 0, 72, 72
2, 73919, Note_on_c, 0, 65, 76
2, 73920, Note_on_c, 0, 72, 0
2, 73921, Note_on_c, 0, 64, 0
2, 74170, Note_on_c, 0, 65, 0
2, 75121, Note_on_c, 0, 68, 107
2, 75121, Note_on_c, 0, 80, 107
2, 75361, Note_on_c, 0, 80, 0
2, 75361, Note_on_c, 0, 68, 0
2, 75362, Note_on_c, 0, 78, 80
2, 75422, Note_on_c, 0, 77, 76
2, 75423, Note_on_c, 0, 78, 0
2, 75481, Note_on_c, 0, 75, 80
2, 75482, Note_on_c, 0, 77, 0
2, 75539, Note_on_c, 0, 73, 62
2, 75540, Note_on_c, 0, 75, 0
2, 75599, Note_on_c, 0, 77, 76
2, 75600, Note_on_c, 0, 73, 0
2, 75659, Note_on_c, 0, 75, 64
2, 75660, Note_on_c, 0, 77, 0
2, 75719, Note_on_c, 0, 78, 72
2, 75720, Note_on_c, 0, 75, 0
2, 75779, Note_on_c, 0, 72, 62
2, 75780, Note_on_c, 0, 78, 0
2, 75839, Note_on_c, 0, 73, 89
2, 75844, Note_on_c, 0, 72, 0
2, 75864, Note_on_c, 0, 73, 0
2, 75959, Note_on_c, 0, 68, 85
2, 75984, Note_on_c, 0, 68, 0
2, 76197, Note_on_c, 0, 81, 102
2, 76198, Note_on_c, 0, 72, 80
2, 76317, Note_on_c, 0, 81, 0
2, 76319, Note_on_c, 0, 82, 89
2, 76319, Note_on_c, 0, 73, 68
2, 76325, Note_on_c, 0, 72, 0
2, 76425, Note_on_c, 0, 82, 0
2, 76429, Note_on_c, 0, 73, 0
2, 76678, Note_on_c, 0, 77, 93
2, 76678, Note_on_c, 0, 84, 93
2, 76798, Note_on_c, 0, 85, 93
2, 76803, Note_on_c, 0, 84, 0
2, 76921, Note_on_c, 0, 82, 89
2, 76931, Note_on_c, 0, 77, 0
2, 77040, Note_on_c, 0, 84, 76
2, 77042, Note_on_c, 0, 85, 0
2, 77159, Note_on_c, 0, 80, 76
2, 77160, Note_on_c, 0, 82, 0
2, 77279, Note_on_c, 0, 82, 80
2, 77280, Note_on_c, 0, 84, 0
2, 77401, Note_on_c, 0, 79, 76
2, 77409, Note_on_c, 0, 80, 0
2, 77535, Note_on_c, 0, 79, 0
2, 77579, Note_on_c, 0, 80, 89
2, 77636, Note_on_c, 0, 80, 0
2, 77638, Note_on_c, 0, 82, 0
2, 77639, Note_on_c, 0, 84, 80
2, 77701, Note_on_c, 0, 77, 68
2, 77706, Note_on_c, 0, 84, 0
2, 77761, Note_on_c, 0, 80, 89
2, 77766, Note_on_c, 0, 77, 0
2, 77821, Note_on_c, 0, 78, 68
2, 77825, Note_on_c, 0, 80, 0
2, 77879, Note_on_c, 0, 78, 0
2, 77881, Note_on_c, 0, 82, 85
2, 77941, Note_on_c, 0, 75, 50
2, 77943, Note_on_c, 0, 82, 0
2, 77998, Note_on_c, 0, 75, 0
2, 77999, Note_on_c, 0, 78, 85
2, 78056, Note_on_c, 0, 78, 0
2, 78059, Note_on_c, 0, 77, 64
2, 78116, Note_on_c, 0, 77, 0
2, 78119, Note_on_c, 0, 80, 93
2, 78181, Note_on_c, 0, 73, 56
2, 78186, Note_on_c, 0, 80, 0
2, 78239, Note_on_c, 0, 73, 0
2, 78241, Note_on_c, 0, 77, 89
2, 78301, Note_on_c, 0, 77, 0
2, 78301, Note_on_c, 0, 75, 56
2, 78353, Note_on_c, 0, 75, 0
2, 78359, Note_on_c, 0, 78, 85
2, 78419, Note_on_c, 0, 72, 53
2, 78421, Note_on_c, 0, 78, 0
2, 78476, Note_on_c, 0, 72, 0
2, 78478, Note_on_c, 0, 75, 89
2, 78540, Note_on_c, 0, 73, 60
2, 78541, Note_on_c, 0, 75, 0
2, 78590, Note_on_c, 0, 73, 0
2, 78599, Note_on_c, 0, 77, 93
2, 78660, Note_on_c, 0, 70, 57
2, 78664, Note_on_c, 0, 77, 0
2, 78721, Note_on_c, 0, 73, 89
2, 78722, Note_on_c, 0, 70, 0
2, 78778, Note_on_c, 0, 73, 0
2, 78782, Note_on_c, 0, 72, 50
2, 78834, Note_on_c, 0, 72, 0
2, 78841, Note_on_c, 0, 75, 80
2, 78899, Note_on_c, 0, 75, 0
2, 78899, Note_on_c, 0, 68, 50
2, 78956, Note_on_c, 0, 68, 0
2, 78959, Note_on_c, 0, 72, 89
2, 79017, Note_on_c, 0, 72, 0
2, 79021, Note_on_c, 0, 70, 55
2, 79069, Note_on_c, 0, 70, 0
2, 79078, Note_on_c, 0, 73, 89
2, 79138, Note_on_c, 0, 73, 0
2, 79138, Note_on_c, 0, 67, 57
2, 79198, Note_on_c, 0, 70, 93
2, 79199, Note_on_c, 0, 67, 0
2, 79258, Note_on_c, 0, 68, 59
2, 79268, Note_on_c, 0, 70, 0
2, 79318, Note_on_c, 0, 67, 76
2, 79319, Note_on_c, 0, 68, 0
2, 79378, Note_on_c, 0, 65, 76
2, 79381, Note_on_c, 0, 67, 0
2, 79438, Note_on_c, 0, 70, 85
2, 79439, Note_on_c, 0, 65, 0
2, 79498, Note_on_c, 0, 68, 62
2, 79507, Note_on_c, 0, 70, 0
2, 79558, Note_on_c, 0, 67, 89
2, 79563, Note_on_c, 0, 68, 0
2, 79618, Note_on_c, 0, 65, 93
2, 79619, Note_on_c, 0, 67, 0
2, 79679, Note_on_c, 0, 70, 89
2, 79684, Note_on_c, 0, 65, 0
2, 79738, Note_on_c, 0, 68, 89
2, 79741, Note_on_c, 0, 70, 0
2, 79798, Note_on_c, 0, 67, 102
2, 79800, Note_on_c, 0, 68, 0
2, 79858, Note_on_c, 0, 65, 107
2, 79862, Note_on_c, 0, 67, 0
2, 79918, Note_on_c, 0, 65, 0
2, 79918, Note_on_c, 0, 70, 98
2, 79977, Note_on_c, 0, 70, 0
2, 79978, Note_on_c, 0, 68, 107
2, 80036, Note_on_c, 0, 68, 0
2, 80039, Note_on_c, 0, 67, 113
2, 80099, Note_on_c, 0, 65, 102
2, 80102, Note_on_c, 0, 67, 0
2, 80153, Note_on_c, 0, 65, 0
2, 80161, Note_on_c, 0, 77, 102
2, 80280, Note_on_c, 0, 77, 0
2, 80401, Note_on_c, 0, 70, 107
2, 80459, Note_on_c, 0, 70, 0
2, 80461, Note_on_c, 0, 68, 89
2, 80519, Note_on_c, 0, 68, 0
2, 80521, Note_on_c, 0, 67, 98
2, 80581, Note_on_c, 0, 65, 93
2, 80590, Note_on_c, 0, 67, 0
2, 80625, Note_on_c, 0, 65, 0
2, 80642, Note_on_c, 0, 80, 119
2, 80745, Note_on_c, 0, 80, 0
2, 80881, Note_on_c, 0, 71, 72
2, 80882, Note_on_c, 0, 65, 64
2, 80997, Note_on_c, 0, 71, 0
2, 80998, Note_on_c, 0, 65, 0
2, 81118, Note_on_c, 0, 64, 93
2, 81118, Note_on_c, 0, 72, 89
2, 81119, Note_on_c, 0, 65, 62
2, 81122, Note_on_c, 0, 65, 0
2, 81230, Note_on_c, 0, 64, 0
2, 81235, Note_on_c, 0, 72, 0
2, 81355, Note_on_c, 0, 72, 113
2, 81641, Note_on_c, 0, 74, 89
2, 81647, Note_on_c, 0, 72, 0
2, 81681, Note_on_c, 0, 72, 80
2, 81688, Note_on_c, 0, 74, 0
2, 81721, Note_on_c, 0, 70, 85
2, 81726, Note_on_c, 0, 72, 0
2, 81762, Note_on_c, 0, 72, 76
2, 81765, Note_on_c, 0, 70, 0
2, 81801, Note_on_c, 0, 70, 60
2, 81809, Note_on_c, 0, 72, 0
2, 81842, Note_on_c, 0, 69, 76
2, 81844, Note_on_c, 0, 70, 0
2, 81882, Note_on_c, 0, 70, 76
2, 81889, Note_on_c, 0, 69, 0
2, 81923, Note_on_c, 0, 69, 72
2, 81928, Note_on_c, 0, 70, 0
2, 81962, Note_on_c, 0, 69, 0
2, 81963, Note_on_c, 0, 67, 93
2, 82003, Note_on_c, 0, 69, 85
2, 82007, Note_on_c, 0, 67, 0
2, 82043, Note_on_c, 0, 67, 76
2, 82044, Note_on_c, 0, 69, 0
2, 82081, Note_on_c, 0, 67, 0
2, 82082, Note_on_c, 0, 65, 85
2, 82103, Note_on_c, 0, 65, 0
2, 82204, Note_on_c, 0, 65, 76
2, 82226, Note_on_c, 0, 65, 0
2, 82226, Note_on_c, 0, 64, 68
2, 82247, Note_on_c, 0, 65, 72
2, 82248, Note_on_c, 0, 64, 0
2, 82265, Note_on_c, 0, 64, 72
2, 82271, Note_on_c, 0, 65, 0
2, 82287, Note_on_c, 0, 64, 0
2, 82287, Note_on_c, 0, 62, 64
2, 82303, Note_on_c, 0, 64, 68
2, 82310, Note_on_c, 0, 62, 0
2, 82325, Note_on_c, 0, 64, 0
2, 82325, Note_on_c, 0, 65, 76
2, 82348, Note_on_c, 0, 65, 0
2, 82433, Note_on_c, 0, 69, 76
2, 82454, Note_on_c, 0, 69, 0
2, 82454, Note_on_c, 0, 67, 55
2, 82476, Note_on_c, 0, 67, 0
2, 82477, Note_on_c, 0, 69, 62
2, 82497, Note_on_c, 0, 67, 47
2, 82504, Note_on_c, 0, 69, 0
2, 82517, Note_on_c, 0, 65, 64
2, 82522, Note_on_c, 0, 67, 0
2, 82540, Note_on_c, 0, 67, 72
2, 82544, Note_on_c, 0, 65, 0
2, 82555, Note_on_c, 0, 69, 80
2, 82556, Note_on_c, 0, 67, 0
2, 82575, Note_on_c, 0, 69, 0
2, 82673, Note_on_c, 0, 72, 80
2, 82693, Note_on_c, 0, 72, 0
2, 82694, Note_on_c, 0, 70, 62
2, 82712, Note_on_c, 0, 70, 0
2, 82715, Note_on_c, 0, 72, 62
2, 82732, Note_on_c, 0, 70, 60
2, 82739, Note_on_c, 0, 72, 0
2, 82756, Note_on_c, 0, 70, 0
2, 82761, Note_on_c, 0, 69, 37
2, 82774, Note_on_c, 0, 70, 62
2, 82778, Note_on_c, 0, 69, 0
2, 82790, Note_on_c, 0, 70, 0
2, 82794, Note_on_c, 0, 72, 76
2, 82823, Note_on_c, 0, 72, 0
2, 82918, Note_on_c, 0, 74, 76
2, 82937, Note_on_c, 0, 74, 0
2, 83040, Note_on_c, 0, 65, 76
2, 83154, Note_on_c, 0, 65, 0
2, 83159, Note_on_c, 0, 64, 53
2, 83241, Note_on_c, 0, 64, 0
2, 83279, Note_on_c, 0, 74, 107
2, 83559, Note_on_c, 0, 75, 76
2, 83565, Note_on_c, 0, 74, 0
2, 83599, Note_on_c, 0, 74, 80
2, 83604, Note_on_c, 0, 75, 0
2, 83641, Note_on_c, 0, 72, 76
2, 83647, Note_on_c, 0, 74, 0
2, 83682, Note_on_c, 0, 74, 76
2, 83687, Note_on_c, 0, 72, 0
2, 83718, Note_on_c, 0, 74, 0
2, 83721, Note_on_c, 0, 72, 64
2, 83761, Note_on_c, 0, 70, 64
2, 83767, Note_on_c, 0, 72, 0
2, 83799, Note_on_c, 0, 70, 0
2, 83801, Note_on_c, 0, 72, 72
2, 83841, Note_on_c, 0, 70, 62
2, 83847, Note_on_c, 0, 72, 0
2, 83881, Note_on_c, 0, 69, 76
2, 83883, Note_on_c, 0, 70, 0
2, 83920, Note_on_c, 0, 69, 0
2, 83921, Note_on_c, 0, 70, 57
2, 83961, Note_on_c, 0, 69, 64
2, 83963, Note_on_c, 0, 70, 0
2, 83996, Note_on_c, 0, 69, 0
2, 84000, Note_on_c, 0, 67, 76
2, 84029, Note_on_c, 0, 67, 0
2, 84119, Note_on_c, 0, 79, 89
2, 84139, Note_on_c, 0, 79, 0
2, 84240, Note_on_c, 0, 74, 89
2, 84260, Note_on_c, 0, 74, 0
2, 84366, Note_on_c, 0, 77, 72
2, 84385, Note_on_c, 0, 77, 0
2, 84385, Note_on_c, 0, 76, 68
2, 84404, Note_on_c, 0, 76, 0
2, 84406, Note_on_c, 0, 77, 76
2, 84425, Note_on_c, 0, 76, 57
2, 84430, Note_on_c, 0, 77, 0
2, 84448, Note_on_c, 0, 76, 0
2, 84448, Note_on_c, 0, 74, 76
2, 84466, Note_on_c, 0, 76, 64
2, 84471, Note_on_c, 0, 74, 0
2, 84484, Note_on_c, 0, 76, 0
2, 84485, Note_on_c, 0, 77, 76
2, 84507, Note_on_c, 0, 77, 0
2, 84597, Note_on_c, 0, 67, 76
2, 84618, Note_on_c, 0, 65, 76
2, 84621, Note_on_c, 0, 67, 0
2, 84639, Note_on_c, 0, 65, 0
2, 84640, Note_on_c, 0, 67, 85
2, 84655, Note_on_c, 0, 65, 59
2, 84661, Note_on_c, 0, 67, 0
2, 84680, Note_on_c, 0, 65, 0
2, 84685, Note_on_c, 0, 64, 89
2, 84706, Note_on_c, 0, 65, 59
2, 84709, Note_on_c, 0, 64, 0
2, 84724, Note_on_c, 0, 65, 0
2, 84728, Note_on_c, 0, 69, 76
2, 84842, Note_on_c, 0, 67, 76
2, 84848, Note_on_c, 0, 69, 0
2, 84961, Note_on_c, 0, 67, 0
2, 84961, Note_on_c, 0, 65, 72
2, 85074, Note_on_c, 0, 65, 0
2, 85322, Note_on_c, 0, 72, 98
2, 85345, Note_on_c, 0, 72, 0
2, 85440, Note_on_c, 0, 84, 113
2, 85713, Note_on_c, 0, 84, 0
2, 85718, Note_on_c, 0, 86, 76
2, 85758, Note_on_c, 0, 84, 64
2, 85764, Note_on_c, 0, 86, 0
2, 85798, Note_on_c, 0, 82, 60
2, 85804, Note_on_c, 0, 84, 0
2, 85835, Note_on_c, 0, 82, 0
2, 85838, Note_on_c, 0, 84, 72
2, 85877, Note_on_c, 0, 82, 60
2, 85881, Note_on_c, 0, 84, 0
2, 85918, Note_on_c, 0, 81, 72
2, 85923, Note_on_c, 0, 82, 0
2, 85958, Note_on_c, 0, 82, 57
2, 85959, Note_on_c, 0, 81, 0
2, 85998, Note_on_c, 0, 81, 72
2, 85999, Note_on_c, 0, 82, 0
2, 86038, Note_on_c, 0, 79, 62
2, 86041, Note_on_c, 0, 81, 0
2, 86078, Note_on_c, 0, 79, 0
2, 86078, Note_on_c, 0, 77, 53
2, 86118, Note_on_c, 0, 76, 60
2, 86119, Note_on_c, 0, 77, 0
2, 86159, Note_on_c, 0, 77, 72
2, 86164, Note_on_c, 0, 76, 0
2, 86199, Note_on_c, 0, 79, 59
2, 86204, Note_on_c, 0, 77, 0
2, 86239, Note_on_c, 0, 77, 59
2, 86240, Note_on_c, 0, 79, 0
2, 86279, Note_on_c, 0, 75, 62
2, 86282, Note_on_c, 0, 77, 0
2, 86319, Note_on_c, 0, 74, 72
2, 86323, Note_on_c, 0, 75, 0
2, 86361, Note_on_c, 0, 73, 60
2, 86363, Note_on_c, 0, 74, 0
2, 86392, Note_on_c, 0, 73, 0
2, 86399, Note_on_c, 0, 74, 68
2, 86441, Note_on_c, 0, 79, 68
2, 86445, Note_on_c, 0, 74, 0
2, 86480, Note_on_c, 0, 79, 0
2, 86480, Note_on_c, 0, 78, 68
2, 86521, Note_on_c, 0, 78, 0
2, 86521, Note_on_c, 0, 79, 85
2, 86561, Note_on_c, 0, 82, 64
2, 86564, Note_on_c, 0, 79, 0
2, 86601, Note_on_c, 0, 81, 76
2, 86602, Note_on_c, 0, 82, 0
2, 86641, Note_on_c, 0, 82, 64
2, 86651, Note_on_c, 0, 81, 0
2, 86677, Note_on_c, 0, 82, 0
2, 86681, Note_on_c, 0, 86, 68
2, 86719, Note_on_c, 0, 86, 0
2, 86719, Note_on_c, 0, 85, 64
2, 86754, Note_on_c, 0, 85, 0
2, 86760, Note_on_c, 0, 86, 76
2, 86799, Note_on_c, 0, 82, 60
2, 86803, Note_on_c, 0, 86, 0
2, 86840, Note_on_c, 0, 79, 64
2, 86844, Note_on_c, 0, 82, 0
2, 86881, Note_on_c, 0, 77, 62
2, 86883, Note_on_c, 0, 79, 0
2, 87002, Note_on_c, 0, 76, 64
2, 87003, Note_on_c, 0, 77, 0
2, 87113, Note_on_c, 0, 76, 0
2, 87237, Note_on_c, 0, 65, 113
2, 87351, Note_on_c, 0, 65, 0
2, 87357, Note_on_c, 0, 77, 89
2, 87481, Note_on_c, 0, 78, 89
2, 87482, Note_on_c, 0, 75, 89
2, 87497, Note_on_c, 0, 77, 0
2, 87590, Note_on_c, 0, 75, 0
2, 87590, Note_on_c, 0, 78, 0
2, 87598, Note_on_c, 0, 74, 89
2, 87598, Note_on_c, 0, 79, 93
2, 87707, Note_on_c, 0, 79, 0
2, 87716, Note_on_c, 0, 74, 0
2, 87717, Note_on_c, 0, 81, 89
2, 87717, Note_on_c, 0, 78, 80
2, 87819, Note_on_c, 0, 78, 0
2, 87819, Note_on_c, 0, 81, 0
2, 87836, Note_on_c, 0, 82, 85
2, 87836, Note_on_c, 0, 79, 80
2, 87877, Note_on_c, 0, 81, 80
2, 87879, Note_on_c, 0, 82, 0
2, 87913, Note_on_c, 0, 81, 0
2, 87916, Note_on_c, 0, 82, 60
2, 87957, Note_on_c, 0, 83, 72
2, 87958, Note_on_c, 0, 82, 0
2, 87962, Note_on_c, 0, 79, 0
2, 87998, Note_on_c, 0, 81, 56
2, 88003, Note_on_c, 0, 83, 0
2, 88038, Note_on_c, 0, 83, 72
2, 88042, Note_on_c, 0, 81, 0
2, 88078, Note_on_c, 0, 84, 80
2, 88079, Note_on_c, 0, 83, 0
2, 88119, Note_on_c, 0, 83, 53
2, 88122, Note_on_c, 0, 84, 0
2, 88158, Note_on_c, 0, 84, 76
2, 88160, Note_on_c, 0, 83, 0
2, 88200, Note_on_c, 0, 84, 0
2, 88200, Note_on_c, 0, 88, 93
2, 88239, Note_on_c, 0, 86, 68
2, 88241, Note_on_c, 0, 88, 0
2, 88279, Note_on_c, 0, 88, 76
2, 88280, Note_on_c, 0, 86, 0
2, 88315, Note_on_c, 0, 88, 0
2, 88319, Note_on_c, 0, 89, 76
2, 88361, Note_on_c, 0, 84, 62
2, 88372, Note_on_c, 0, 89, 0
2, 88401, Note_on_c, 0, 81, 52
2, 88403, Note_on_c, 0, 84, 0
2, 88441, Note_on_c, 0, 86, 93
2, 88444, Note_on_c, 0, 81, 0
2, 88482, Note_on_c, 0, 82, 72
2, 88490, Note_on_c, 0, 86, 0
2, 88520, Note_on_c, 0, 82, 0
2, 88521, Note_on_c, 0, 79, 72
2, 88562, Note_on_c, 0, 84, 80
2, 88563, Note_on_c, 0, 79, 0
2, 88602, Note_on_c, 0, 81, 68
2, 88615, Note_on_c, 0, 84, 0
2, 88640, Note_on_c, 0, 81, 0
2, 88642, Note_on_c, 0, 77, 62
2, 88681, Note_on_c, 0, 77, 0
2, 88682, Note_on_c, 0, 82, 80
2, 88722, Note_on_c, 0, 79, 62
2, 88726, Note_on_c, 0, 82, 0
2, 88760, Note_on_c, 0, 79, 0
2, 88762, Note_on_c, 0, 76, 60
2, 88802, Note_on_c, 0, 76, 0
2, 88802, Note_on_c, 0, 77, 76
2, 88914, Note_on_c, 0, 77, 0
2, 88920, Note_on_c, 0, 81, 89
2, 88961, Note_on_c, 0, 79, 64
2, 88968, Note_on_c, 0, 81, 0
2, 88999, Note_on_c, 0, 77, 76
2, 89004, Note_on_c, 0, 79, 0
2, 89041, Note_on_c, 0, 76, 68
2, 89042, Note_on_c, 0, 77, 0
2, 89081, Note_on_c, 0, 74, 76
2, 89082, Note_on_c, 0, 76, 0
2, 89120, Note_on_c, 0, 72, 57
2, 89124, Note_on_c, 0, 74, 0
2, 89161, Note_on_c, 0, 71, 76
2, 89167, Note_on_c, 0, 72, 0
2, 89200, Note_on_c, 0, 71, 0
2, 89200, Note_on_c, 0, 74, 72
2, 89240, Note_on_c, 0, 71, 80
2, 89245, Note_on_c, 0, 74, 0
2, 89281, Note_on_c, 0, 74, 76
2, 89285, Note_on_c, 0, 71, 0
2, 89321, Note_on_c, 0, 72, 72
2, 89328, Note_on_c, 0, 74, 0
2, 89361, Note_on_c, 0, 69, 64
2, 89362, Note_on_c, 0, 72, 0
2, 89402, Note_on_c, 0, 72, 80
2, 89407, Note_on_c, 0, 69, 0
2, 89442, Note_on_c, 0, 70, 62
2, 89451, Note_on_c, 0, 72, 0
2, 89481, Note_on_c, 0, 67, 62
2, 89483, Note_on_c, 0, 70, 0
2, 89521, Note_on_c, 0, 70, 76
2, 89524, Note_on_c, 0, 67, 0
2, 89561, Note_on_c, 0, 69, 64
2, 89567, Note_on_c, 0, 70, 0
2, 89601, Note_on_c, 0, 65, 57
2, 89602, Note_on_c, 0, 69, 0
2, 89637, Note_on_c, 0, 65, 0
2, 89641, Note_on_c, 0, 69, 85
2, 89681, Note_on_c, 0, 67, 64
2, 89689, Note_on_c, 0, 69, 0
2, 89717, Note_on_c, 0, 67, 0
2, 89719, Note_on_c, 0, 64, 56
2, 89761, Note_on_c, 0, 65, 76
2, 89762, Note_on_c, 0, 64, 0
2, 89852, Note_on_c, 0, 65, 0
2, 90121, Note_on_c, 0, 77, 102
2, 90121, Note_on_c, 0, 68, 89
2, 90231, Note_on_c, 0, 68, 0
2, 90239, Note_on_c, 0, 67, 64
2, 90360, Note_on_c, 0, 76, 85
2, 90367, Note_on_c, 0, 77, 0
2, 90479, Note_on_c, 0, 77, 80
2, 90481, Note_on_c, 0, 72, 72
2, 90485, Note_on_c, 0, 76, 0
2, 90491, Note_on_c, 0, 67, 0
2, 90599, Note_on_c, 0, 79, 89
2, 90599, Note_on_c, 0, 70, 76
2, 90601, Note_on_c, 0, 77, 0
2, 90601, Note_on_c, 0, 72, 0
2, 90717, Note_on_c, 0, 70, 0
2, 90718, Note_on_c, 0, 79, 0
2, 90719, Note_on_c, 0, 81, 89
2, 90720, Note_on_c, 0, 72, 60
2, 90720, Note_on_c, 0, 69, 72
2, 90831, Note_on_c, 0, 72, 0
2, 90835, Note_on_c, 0, 81, 0
2, 90836, Note_on_c, 0, 69, 0
2, 90840, Note_on_c, 0, 84, 80
2, 90879, Note_on_c, 0, 82, 72
2, 90886, Note_on_c, 0, 84, 0
2, 90919, Note_on_c, 0, 81, 60
2, 90924, Note_on_c, 0, 82, 0
2, 90959, Note_on_c, 0, 79, 85
2, 90962, Note_on_c, 0, 81, 0
2, 91001, Note_on_c, 0, 79, 0
2, 91001, Note_on_c, 0, 77, 64
2, 91040, Note_on_c, 0, 76, 60
2, 91049, Note_on_c, 0, 77, 0
2, 91081, Note_on_c, 0, 76, 0
2, 91081, Note_on_c, 0, 77, 76
2, 91121, Note_on_c, 0, 75, 52
2, 91131, Note_on_c, 0, 77, 0
2, 91161, Note_on_c, 0, 73, 76
2, 91163, Note_on_c, 0, 75, 0
2, 91202, Note_on_c, 0, 74, 80
2, 91206, Note_on_c, 0, 73, 0
2, 91294, Note_on_c, 0, 74, 0
2, 91559, Note_on_c, 0, 79, 98
2, 91559, Note_on_c, 0, 83, 93
2, 91681, Note_on_c, 0, 84, 68
2, 91685, Note_on_c, 0, 83, 0
2, 91774, Note_on_c, 0, 84, 0
2, 91775, Note_on_c, 0, 79, 0
2, 91801, Note_on_c, 0, 60, 76
2, 91841, Note_on_c, 0, 64, 76
2, 91851, Note_on_c, 0, 60, 0
2, 91880, Note_on_c, 0, 64, 0
2, 91881, Note_on_c, 0, 67, 80
2, 91914, Note_on_c, 0, 67, 0
2, 91921, Note_on_c, 0, 72, 64
2, 91960, Note_on_c, 0, 76, 76
2, 91966, Note_on_c, 0, 72, 0
2, 91999, Note_on_c, 0, 76, 0
2, 91999, Note_on_c, 0, 79, 80
2, 92040, Note_on_c, 0, 77, 76
2, 92045, Note_on_c, 0, 79, 0
2, 92080, Note_on_c, 0, 74, 64
2, 92081, Note_on_c, 0, 77, 0
2, 92119, Note_on_c, 0, 74, 0
2, 92119, Note_on_c, 0, 71, 68
2, 92156, Note_on_c, 0, 71, 0
2, 92161, Note_on_c, 0, 72, 76
2, 92234, Note_on_c, 0, 72, 0
2, 92279, Note_on_c, 0, 60, 93
2, 92319, Note_on_c, 0, 64, 80
2, 92324, Note_on_c, 0, 60, 0
2, 92359, Note_on_c, 0, 64, 0
2, 92359, Note_on_c, 0, 67, 76
2, 92393, Note_on_c, 0, 67, 0
2, 92399, Note_on_c, 0, 72, 68
2, 92439, Note_on_c, 0, 76, 72
2, 92446, Note_on_c, 0, 72, 0
2, 92478, Note_on_c, 0, 76, 0
2, 92479, Note_on_c, 0, 79, 80
2, 92519, Note_on_c, 0, 77, 89
2, 92524, Note_on_c, 0, 79, 0
2, 92559, Note_on_c, 0, 74, 72
2, 92562, Note_on_c, 0, 77, 0
2, 92599, Note_on_c, 0, 71, 76
2, 92602, Note_on_c, 0, 74, 0
2, 92637, Note_on_c, 0, 71, 0
2, 92639, Note_on_c, 0, 72, 89
2, 92679, Note_on_c, 0, 76, 80
2, 92684, Note_on_c, 0, 72, 0
2, 92717, Note_on_c, 0, 76, 0
2, 92719, Note_on_c, 0, 79, 89
2, 92759, Note_on_c, 0, 77, 85
2, 92763, Note_on_c, 0, 79, 0
2, 92799, Note_on_c, 0, 74, 72
2, 92809, Note_on_c, 0, 77, 0
2, 92835, Note_on_c, 0, 74, 0
2, 92839, Note_on_c, 0, 71, 80
2, 92879, Note_on_c, 0, 72, 72
2, 92880, Note_on_c, 0, 71, 0
2, 92919, Note_on_c, 0, 76, 80
2, 92923, Note_on_c, 0, 72, 0
2, 92957, Note_on_c, 0, 76, 0
2, 92959, Note_on_c, 0, 79, 80
2, 92999, Note_on_c, 0, 77, 80
2, 93003, Note_on_c, 0, 79, 0
2, 93038, Note_on_c, 0, 74, 76
2, 93047, Note_on_c, 0, 77, 0
2, 93075, Note_on_c, 0, 74, 0
2, 93078, Note_on_c, 0, 71, 57
2, 93118, Note_on_c, 0, 71, 0
2, 93118, Note_on_c, 0, 72, 68
2, 93221, Note_on_c, 0, 72, 0
2, 95159, Note_on_c, 0, 60, 76
2, 95179, Note_on_c, 0, 60, 0
2, 95279, Note_on_c, 0, 62, 89
2, 95294, Note_on_c, 0, 62, 0
2, 95401, Note_on_c, 0, 64, 80
2, 95414, Note_on_c, 0, 64, 0
2, 95521, Note_on_c, 0, 65, 76
2, 95539, Note_on_c, 0, 65, 0
2, 95641, Note_on_c, 0, 69, 93
2, 95656, Note_on_c, 0, 69, 0
2, 95759, Note_on_c, 0, 70, 89
2, 95778, Note_on_c, 0, 70, 0
2, 95882, Note_on_c, 0, 73, 89
2, 95901, Note_on_c, 0, 73, 0
2, 96002, Note_on_c, 0, 74, 76
2, 96057, Note_on_c, 0, 74, 0
2, 96061, Note_on_c, 0, 77, 72
2, 96120, Note_on_c, 0, 76, 76
2, 96122, Note_on_c, 0, 77, 0
2, 96175, Note_on_c, 0, 76, 0
2, 96179, Note_on_c, 0, 74, 59
2, 96237, Note_on_c, 0, 74, 0
2, 96239, Note_on_c, 0, 76, 62
2, 96296, Note_on_c, 0, 76, 0
2, 96299, Note_on_c, 0, 77, 68
2, 96356, Note_on_c, 0, 77, 0
2, 96358, Note_on_c, 0, 74, 64
2, 96418, Note_on_c, 0, 74, 0
2, 96418, Note_on_c, 0, 76, 64
2, 96477, Note_on_c, 0, 76, 0
2, 96478, Note_on_c, 0, 77, 76
2, 96499, Note_on_c, 0, 77, 0
2, 96599, Note_on_c, 0, 74, 89
2, 96614, Note_on_c, 0, 74, 0
2, 96718, Note_on_c, 0, 69, 85
2, 96735, Note_on_c, 0, 69, 0
2, 96837, Note_on_c, 0, 72, 76
2, 96848, Note_on_c, 0, 71, 76
2, 96855, Note_on_c, 0, 72, 0
2, 96868, Note_on_c, 0, 71, 0
2, 96871, Note_on_c, 0, 72, 72
2, 96889, Note_on_c, 0, 71, 68
2, 96893, Note_on_c, 0, 72, 0
2, 96909, Note_on_c, 0, 71, 0
2, 96910, Note_on_c, 0, 69, 60
2, 96931, Note_on_c, 0, 71, 56
2, 96935, Note_on_c, 0, 69, 0
2, 96952, Note_on_c, 0, 71, 0
2, 96955, Note_on_c, 0, 72, 76
2, 96992, Note_on_c, 0, 72, 0
2, 97201, Note_on_c, 0, 72, 93
2, 97441, Note_on_c, 0, 72, 0
2, 97441, Note_on_c, 0, 70, 76
2, 97501, Note_on_c, 0, 69, 64
2, 97508, Note_on_c, 0, 70, 0
2, 97560, Note_on_c, 0, 69, 0
2, 97561, Note_on_c, 0, 67, 72
2, 97616, Note_on_c, 0, 67, 0
2, 97619, Note_on_c, 0, 65, 72
2, 97676, Note_on_c, 0, 65, 0
2, 97678, Note_on_c, 0, 69, 85
2, 97736, Note_on_c, 0, 69, 0
2, 97738, Note_on_c, 0, 67, 72
2, 97799, Note_on_c, 0, 70, 76
2, 97800, Note_on_c, 0, 67, 0
2, 97858, Note_on_c, 0, 64, 60
2, 97861, Note_on_c, 0, 70, 0
2, 97914, Note_on_c, 0, 64, 0
2, 97918, Note_on_c, 0, 65, 80
2, 97938, Note_on_c, 0, 65, 0
2, 98038, Note_on_c, 0, 60, 80
2, 98056, Note_on_c, 0, 60, 0
2, 98158, Note_on_c, 0, 84, 93
2, 98397, Note_on_c, 0, 82, 76
2, 98402, Note_on_c, 0, 84, 0
2, 98457, Note_on_c, 0, 81, 85
2, 98461, Note_on_c, 0, 82, 0
2, 98517, Note_on_c, 0, 79, 72
2, 98518, Note_on_c, 0, 81, 0
2, 98577, Note_on_c, 0, 77, 76
2, 98583, Note_on_c, 0, 79, 0
2, 98637, Note_on_c, 0, 81, 76
2, 98640, Note_on_c, 0, 77, 0
2, 98695, Note_on_c, 0, 81, 0
2, 98697, Note_on_c, 0, 79, 76
2, 98758, Note_on_c, 0, 82, 72
2, 98760, Note_on_c, 0, 79, 0
2, 98817, Note_on_c, 0, 82, 0
2, 98817, Note_on_c, 0, 76, 64
2, 98878, Note_on_c, 0, 77, 80
2, 98881, Note_on_c, 0, 76, 0
2, 98898, Note_on_c, 0, 77, 0
2, 98997, Note_on_c, 0, 72, 85
2, 99019, Note_on_c, 0, 72, 0
2, 99120, Note_on_c, 0, 84, 98
2, 99360, Note_on_c, 0, 82, 80
2, 99363, Note_on_c, 0, 84, 0
2, 99420, Note_on_c, 0, 82, 0
2, 99420, Note_on_c, 0, 81, 80
2, 99480, Note_on_c, 0, 81, 0
2, 99480, Note_on_c, 0, 79, 80
2, 99540, Note_on_c, 0, 79, 0
2, 99540, Note_on_c, 0, 77, 76
2, 99597, Note_on_c, 0, 89, 93
2, 99602, Note_on_c, 0, 77, 0
2, 99902, Note_on_c, 0, 87, 85
2, 99924, Note_on_c, 0, 89, 0
2, 99962, Note_on_c, 0, 88, 85
2, 99963, Note_on_c, 0, 87, 0
2, 100136, Note_on_c, 0, 88, 0
2, 100137, Note_on_c, 0, 85, 80
2, 100198, Note_on_c, 0, 86, 93
2, 100201, Note_on_c, 0, 85, 0
2, 100378, Note_on_c, 0, 83, 89
2, 100391, Note_on_c, 0, 86, 0
2, 100438, Note_on_c, 0, 83, 0
2, 100438, Note_on_c, 0, 84, 76
2, 100619, Note_on_c, 0, 81, 76
2, 100623, Note_on_c, 0, 84, 0
2, 100674, Note_on_c, 0, 81, 0
2, 100679, Note_on_c, 0, 82, 80
2, 100705, Note_on_c, 0, 82, 0
2, 100740, Note_on_c, 0, 82, 85
2, 100759, Note_on_c, 0, 82, 0
2, 100799, Note_on_c, 0, 82, 89
2, 100801, Note_on_c, 0, 82, 80
2, 100854, Note_on_c, 0, 82, 0
2, 100859, Note_on_c, 0, 84, 80
2, 100889, Note_on_c, 0, 82, 62
2, 100897, Note_on_c, 0, 84, 0
2, 100918, Note_on_c, 0, 82, 0
2, 100918, Note_on_c, 0, 81, 80
2, 100920, Note_on_c, 0, 82, 0
2, 100940, Note_on_c, 0, 82, 68
2, 100953, Note_on_c, 0, 81, 0
2, 100966, Note_on_c, 0, 82, 0
2, 100970, Note_on_c, 0, 84, 76
2, 101029, Note_on_c, 0, 86, 93
2, 101030, Note_on_c, 0, 84, 0
2, 101148, Note_on_c, 0, 84, 72
2, 101154, Note_on_c, 0, 86, 0
2, 101210, Note_on_c, 0, 82, 64
2, 101218, Note_on_c, 0, 84, 0
2, 101275, Note_on_c, 0, 81, 85
2, 101278, Note_on_c, 0, 82, 0
2, 101303, Note_on_c, 0, 81, 0
2, 101399, Note_on_c, 0, 87, 98
2, 101641, Note_on_c, 0, 86, 89
2, 101647, Note_on_c, 0, 87, 0
2, 101700, Note_on_c, 0, 84, 72
2, 101703, Note_on_c, 0, 86, 0
2, 101761, Note_on_c, 0, 82, 85
2, 101768, Note_on_c, 0, 84, 0
2, 101784, Note_on_c, 0, 82, 0
2, 101821, Note_on_c, 0, 87, 76
2, 101881, Note_on_c, 0, 86, 93
2, 101882, Note_on_c, 0, 87, 0
2, 101936, Note_on_c, 0, 86, 0
2, 101940, Note_on_c, 0, 85, 72
2, 101997, Note_on_c, 0, 85, 0
2, 102000, Note_on_c, 0, 86, 93
2, 102059, Note_on_c, 0, 86, 0
2, 102059, Note_on_c, 0, 81, 80
2, 102119, Note_on_c, 0, 86, 80
2, 102124, Note_on_c, 0, 81, 0
2, 102179, Note_on_c, 0, 84, 72
2, 102180, Note_on_c, 0, 86, 0
2, 102241, Note_on_c, 0, 82, 85
2, 102250, Note_on_c, 0, 84, 0
2, 102263, Note_on_c, 0, 82, 0
2, 102301, Note_on_c, 0, 86, 85
2, 102360, Note_on_c, 0, 84, 76
2, 102361, Note_on_c, 0, 86, 0
2, 102421, Note_on_c, 0, 83, 72
2, 102424, Note_on_c, 0, 84, 0
2, 102479, Note_on_c, 0, 84, 76
2, 102482, Note_on_c, 0, 83, 0
2, 102539, Note_on_c, 0, 84, 0
2, 102539, Note_on_c, 0, 79, 72
2, 102600, Note_on_c, 0, 84, 80
2, 102605, Note_on_c, 0, 79, 0
2, 102661, Note_on_c, 0, 82, 76
2, 102670, Note_on_c, 0, 84, 0
2, 102759, Note_on_c, 0, 80, 80
2, 102762, Note_on_c, 0, 82, 0
2, 102798, Note_on_c, 0, 80, 0
2, 102799, Note_on_c, 0, 82, 64
2, 102840, Note_on_c, 0, 81, 85
2, 102856, Note_on_c, 0, 82, 0
2, 103082, Note_on_c, 0, 70, 76
2, 103086, Note_on_c, 0, 81, 0
2, 103122, Note_on_c, 0, 81, 64
2, 103127, Note_on_c, 0, 70, 0
2, 103162, Note_on_c, 0, 79, 80
2, 103165, Note_on_c, 0, 81, 0
2, 103242, Note_on_c, 0, 72, 76
2, 103247, Note_on_c, 0, 79, 0
2, 103282, Note_on_c, 0, 79, 76
2, 103287, Note_on_c, 0, 72, 0
2, 103322, Note_on_c, 0, 77, 72
2, 103326, Note_on_c, 0, 79, 0
2, 103556, Note_on_c, 0, 77, 0
2, 103559, Note_on_c, 0, 70, 72
2, 103600, Note_on_c, 0, 77, 72
2, 103608, Note_on_c, 0, 70, 0
2, 103639, Note_on_c, 0, 76, 76
2, 103641, Note_on_c, 0, 77, 0
2, 103719, Note_on_c, 0, 69, 72
2, 103721, Note_on_c, 0, 76, 0
2, 103759, Note_on_c, 0, 77, 76
2, 103768, Note_on_c, 0, 69, 0
2, 103801, Note_on_c, 0, 75, 80
2, 103806, Note_on_c, 0, 77, 0
2, 104038, Note_on_c, 0, 75, 0
2, 104039, Note_on_c, 0, 68, 76
2, 104078, Note_on_c, 0, 75, 80
2, 104086, Note_on_c, 0, 68, 0
2, 104118, Note_on_c, 0, 74, 76
2, 104119, Note_on_c, 0, 75, 0
2, 104200, Note_on_c, 0, 67, 72
2, 104207, Note_on_c, 0, 74, 0
2, 104241, Note_on_c, 0, 75, 72
2, 104250, Note_on_c, 0, 67, 0
2, 104281, Note_on_c, 0, 73, 76
2, 104286, Note_on_c, 0, 75, 0
2, 104512, Note_on_c, 0, 73, 0
2, 104518, Note_on_c, 0, 66, 64
2, 104558, Note_on_c, 0, 74, 72
2, 104565, Note_on_c, 0, 66, 0
2, 104597, Note_on_c, 0, 74, 0
2, 104598, Note_on_c, 0, 72, 76
2, 104679, Note_on_c, 0, 67, 76
2, 104689, Note_on_c, 0, 72, 0
2, 104721, Note_on_c, 0, 72, 76
2, 104731, Note_on_c, 0, 67, 0
2, 104762, Note_on_c, 0, 70, 72
2, 104766, Note_on_c, 0, 72, 0
2, 104991, Note_on_c, 0, 70, 0
2, 104999, Note_on_c, 0, 62, 76
2, 105039, Note_on_c, 0, 69, 72
2, 105042, Note_on_c, 0, 62, 0
2, 105079, Note_on_c, 0, 67, 76
2, 105081, Note_on_c, 0, 69, 0
2, 105161, Note_on_c, 0, 60, 62
2, 105164, Note_on_c, 0, 67, 0
2, 105201, Note_on_c, 0, 67, 80
2, 105207, Note_on_c, 0, 60, 0
2, 105241, Note_on_c, 0, 65, 80
2, 105246, Note_on_c, 0, 67, 0
2, 105472, Note_on_c, 0, 65, 0
2, 105479, Note_on_c, 0, 58, 72
2, 105519, Note_on_c, 0, 65, 68
2, 105521, Note_on_c, 0, 58, 0
2, 105559, Note_on_c, 0, 64, 80
2, 105562, Note_on_c, 0, 65, 0
2, 105597, Note_on_c, 0, 64, 0
2, 105639, Note_on_c, 0, 65, 93
2, 105678, Note_on_c, 0, 65, 0
2, 105679, Note_on_c, 0, 67, 89
2, 105713, Note_on_c, 0, 67, 0
2, 105718, Note_on_c, 0, 69, 93
2, 105754, Note_on_c, 0, 69, 0
2, 105758, Note_on_c, 0, 71, 76
2, 105798, Note_on_c, 0, 71, 0
2, 105798, Note_on_c, 0, 72, 89
2, 105836, Note_on_c, 0, 72, 0
2, 105837, Note_on_c, 0, 74, 89
2, 105874, Note_on_c, 0, 74, 0
2, 105877, Note_on_c, 0, 76, 62
2, 105914, Note_on_c, 0, 76, 0
2, 105917, Note_on_c, 0, 77, 89
2, 105955, Note_on_c, 0, 77, 0
2, 105957, Note_on_c, 0, 79, 93
2, 105998, Note_on_c, 0, 81, 85
2, 106000, Note_on_c, 0, 79, 0
2, 106038, Note_on_c, 0, 77, 85
2, 106044, Note_on_c, 0, 81, 0
2, 106067, Note_on_c, 0, 77, 0
2, 106119, Note_on_c, 0, 81, 60
2, 106157, Note_on_c, 0, 81, 0
2, 106159, Note_on_c, 0, 79, 60
2, 106197, Note_on_c, 0, 79, 0
2, 106199, Note_on_c, 0, 77, 62
2, 106239, Note_on_c, 0, 76, 60
2, 106244, Note_on_c, 0, 77, 0
2, 106279, Note_on_c, 0, 76, 0
2, 106279, Note_on_c, 0, 74, 59
2, 106316, Note_on_c, 0, 74, 0
2, 106319, Note_on_c, 0, 72, 55
2, 106359, Note_on_c, 0, 70, 57
2, 106361, Note_on_c, 0, 72, 0
2, 106397, Note_on_c, 0, 70, 0
2, 106398, Note_on_c, 0, 69, 62
2, 106434, Note_on_c, 0, 69, 0
2, 106438, Note_on_c, 0, 67, 59
2, 106479, Note_on_c, 0, 69, 64
2, 106480, Note_on_c, 0, 67, 0
2, 106519, Note_on_c, 0, 65, 56
2, 106520, Note_on_c, 0, 69, 0
2, 106544, Note_on_c, 0, 65, 0
2, 106600, Note_on_c, 0, 65, 98
2, 106639, Note_on_c, 0, 67, 93
2, 106640, Note_on_c, 0, 65, 0
2, 106677, Note_on_c, 0, 67, 0
2, 106679, Note_on_c, 0, 69, 98
2, 106714, Note_on_c, 0, 69, 0
2, 106719, Note_on_c, 0, 71, 80
2, 106758, Note_on_c, 0, 72, 93
2, 106759, Note_on_c, 0, 71, 0
2, 106797, Note_on_c, 0, 72, 0
2, 106798, Note_on_c, 0, 74, 93
2, 106837, Note_on_c, 0, 74, 0
2, 106839, Note_on_c, 0, 76, 62
2, 106878, Note_on_c, 0, 76, 0
2, 106878, Note_on_c, 0, 77, 93
2, 106918, Note_on_c, 0, 79, 93
2, 106919, Note_on_c, 0, 77, 0
2, 106920, Note_on_c, 0, 81, 72
2, 106959, Note_on_c, 0, 81, 89
2, 106961, Note_on_c, 0, 79, 0
2, 106983, Note_on_c, 0, 81, 0
2, 106999, Note_on_c, 0, 77, 89
2, 107007, Note_on_c, 0, 81, 0
2, 107021, Note_on_c, 0, 77, 0
2, 107081, Note_on_c, 0, 81, 56
2, 107121, Note_on_c, 0, 79, 45
2, 107123, Note_on_c, 0, 81, 0
2, 107156, Note_on_c, 0, 79, 0
2, 107159, Note_on_c, 0, 77, 64
2, 107199, Note_on_c, 0, 76, 57
2, 107203, Note_on_c, 0, 77, 0
2, 107237, Note_on_c, 0, 76, 0
2, 107239, Note_on_c, 0, 74, 57
2, 107275, Note_on_c, 0, 74, 0
2, 107279, Note_on_c, 0, 72, 64
2, 107319, Note_on_c, 0, 70, 57
2, 107322, Note_on_c, 0, 72, 0
2, 107359, Note_on_c, 0, 70, 0
2, 107359, Note_on_c, 0, 69, 60
2, 107396, Note_on_c, 0, 69, 0
2, 107399, Note_on_c, 0, 67, 64
2, 107440, Note_on_c, 0, 69, 64
2, 107441, Note_on_c, 0, 67, 0
2, 107479, Note_on_c, 0, 65, 57
2, 107481, Note_on_c, 0, 69, 0
2, 107506, Note_on_c, 0, 65, 0
2, 107559, Note_on_c, 0, 65, 98
2, 107600, Note_on_c, 0, 65, 0
2, 107600, Note_on_c, 0, 67, 93
2, 107640, Note_on_c, 0, 67, 0
2, 107640, Note_on_c, 0, 68, 80
2, 107678, Note_on_c, 0, 68, 0
2, 107679, Note_on_c, 0, 71, 89
2, 107719, Note_on_c, 0, 72, 85
2, 107720, Note_on_c, 0, 71, 0
2, 107759, Note_on_c, 0, 72, 0
2, 107759, Note_on_c, 0, 73, 85
2, 107797, Note_on_c, 0, 73, 0
2, 107799, Note_on_c, 0, 76, 89
2, 107839, Note_on_c, 0, 76, 0
2, 107839, Note_on_c, 0, 77, 80
2, 107878, Note_on_c, 0, 77, 0
2, 107879, Note_on_c, 0, 79, 93
2, 107919, Note_on_c, 0, 80, 80
2, 107924, Note_on_c, 0, 79, 0
2, 107959, Note_on_c, 0, 80, 0
2, 107959, Note_on_c, 0, 77, 76
2, 107999, Note_on_c, 0, 81, 89
2, 108001, Note_on_c, 0, 81, 85
2, 108002, Note_on_c, 0, 77, 0
2, 108030, Note_on_c, 0, 79, 76
2, 108032, Note_on_c, 0, 81, 0
2, 108036, Note_on_c, 0, 81, 0
2, 108059, Note_on_c, 0, 77, 68
2, 108062, Note_on_c, 0, 79, 0
2, 108089, Note_on_c, 0, 76, 80
2, 108094, Note_on_c, 0, 77, 0
2, 108119, Note_on_c, 0, 76, 0
2, 108119, Note_on_c, 0, 74, 76
2, 108149, Note_on_c, 0, 72, 44
2, 108150, Note_on_c, 0, 74, 0
2, 108179, Note_on_c, 0, 70, 59
2, 108180, Note_on_c, 0, 72, 0
2, 108209, Note_on_c, 0, 69, 76
2, 108212, Note_on_c, 0, 70, 0
2, 108234, Note_on_c, 0, 69, 0
2, 108239, Note_on_c, 0, 77, 76
2, 108269, Note_on_c, 0, 76, 68
2, 108273, Note_on_c, 0, 77, 0
2, 108298, Note_on_c, 0, 74, 64
2, 108303, Note_on_c, 0, 76, 0
2, 108328, Note_on_c, 0, 74, 0
2, 108328, Note_on_c, 0, 72, 62
2, 108358, Note_on_c, 0, 70, 68
2, 108359, Note_on_c, 0, 72, 0
2, 108387, Note_on_c, 0, 70, 0
2, 108388, Note_on_c, 0, 69, 76
2, 108417, Note_on_c, 0, 69, 0
2, 108418, Note_on_c, 0, 67, 76
2, 108448, Note_on_c, 0, 65, 68
2, 108450, Note_on_c, 0, 67, 0
2, 108477, Note_on_c, 0, 65, 0
2, 108478, Note_on_c, 0, 69, 89
2, 108508, Note_on_c, 0, 69, 0
2, 108508, Note_on_c, 0, 67, 64
2, 108538, Note_on_c, 0, 69, 76
2, 108541, Note_on_c, 0, 67, 0
2, 108567, Note_on_c, 0, 69, 0
2, 108568, Note_on_c, 0, 67, 68
2, 108596, Note_on_c, 0, 67, 0
2, 108598, Note_on_c, 0, 69, 68
2, 108628, Note_on_c, 0, 67, 76
2, 108632, Note_on_c, 0, 69, 0
2, 108656, Note_on_c, 0, 67, 0
2, 108658, Note_on_c, 0, 69, 68
2, 108688, Note_on_c, 0, 67, 68
2, 108689, Note_on_c, 0, 69, 0
2, 108718, Note_on_c, 0, 69, 80
2, 108719, Note_on_c, 0, 67, 0
2, 108748, Note_on_c, 0, 67, 64
2, 108750, Note_on_c, 0, 69, 0
2, 108778, Note_on_c, 0, 67, 0
2, 108778, Note_on_c, 0, 69, 68
2, 108807, Note_on_c, 0, 67, 76
2, 108808, Note_on_c, 0, 69, 0
2, 108838, Note_on_c, 0, 69, 76
2, 108841, Note_on_c, 0, 67, 0
2, 108868, Note_on_c, 0, 67, 72
2, 108873, Note_on_c, 0, 69, 0
2, 108893, Note_on_c, 0, 67, 0
2, 108897, Note_on_c, 0, 65, 80
2, 108927, Note_on_c, 0, 67, 72
2, 108930, Note_on_c, 0, 65, 0
2, 108956, Note_on_c, 0, 67, 0
2, 108961, Note_on_c, 0, 53, 93
2, 108999, Note_on_c, 0, 53, 0
2, 108999, Note_on_c, 0, 57, 80
2, 109037, Note_on_c, 0, 57, 0
2, 109039, Note_on_c, 0, 60, 64
2, 109077, Note_on_c, 0, 60, 0
2, 109079, Note_on_c, 0, 65, 85
2, 109119, Note_on_c, 0, 69, 76
2, 109122, Note_on_c, 0, 65, 0
2, 109159, Note_on_c, 0, 72, 76
2, 109160, Note_on_c, 0, 69, 0
2, 109198, Note_on_c, 0, 72, 0
2, 109199, Note_on_c, 0, 77, 72
2, 109239, Note_on_c, 0, 72, 76
2, 109243, Note_on_c, 0, 77, 0
2, 109279, Note_on_c, 0, 72, 0
2, 109279, Note_on_c, 0, 69, 72
2, 109319, Note_on_c, 0, 69, 0
2, 109319, Note_on_c, 0, 76, 93
2, 109359, Note_on_c, 0, 70, 60
2, 109364, Note_on_c, 0, 76, 0
2, 109399, Note_on_c, 0, 67, 57
2, 109400, Note_on_c, 0, 70, 0
2, 109436, Note_on_c, 0, 67, 0
2, 109439, Note_on_c, 0, 74, 98
2, 109479, Note_on_c, 0, 69, 52
2, 109488, Note_on_c, 0, 74, 0
2, 109515, Note_on_c, 0, 69, 0
2, 109519, Note_on_c, 0, 65, 52
2, 109556, Note_on_c, 0, 65, 0
2, 109559, Note_on_c, 0, 72, 93
2, 109601, Note_on_c, 0, 67, 51
2, 109604, Note_on_c, 0, 72, 0
2, 109636, Note_on_c, 0, 67, 0
2, 109639, Note_on_c, 0, 64, 46
2, 109671, Note_on_c, 0, 64, 0
2, 109679, Note_on_c, 0, 70, 89
2, 109719, Note_on_c, 0, 65, 53
2, 109721, Note_on_c, 0, 70, 0
2, 109754, Note_on_c, 0, 65, 0
2, 109759, Note_on_c, 0, 62, 48
2, 109796, Note_on_c, 0, 62, 0
2, 109800, Note_on_c, 0, 69, 93
2, 109840, Note_on_c, 0, 69, 0
2, 109841, Note_on_c, 0, 64, 46
2, 109876, Note_on_c, 0, 64, 0
2, 109880, Note_on_c, 0, 60, 55
2, 109914, Note_on_c, 0, 60, 0
2, 109921, Note_on_c, 0, 57, 98
2, 109961, Note_on_c, 0, 63, 62
2, 109963, Note_on_c, 0, 57, 0
2, 109998, Note_on_c, 0, 63, 0
2, 110001, Note_on_c, 0, 66, 47
2, 110034, Note_on_c, 0, 66, 0
2, 110041, Note_on_c, 0, 58, 85
2, 110078, Note_on_c, 0, 58, 0
2, 110080, Note_on_c, 0, 62, 60
2, 110121, Note_on_c, 0, 67, 76
2, 110122, Note_on_c, 0, 62, 0
2, 110157, Note_on_c, 0, 67, 0
2, 110162, Note_on_c, 0, 57, 93
2, 110197, Note_on_c, 0, 57, 0
2, 110202, Note_on_c, 0, 60, 60
2, 110238, Note_on_c, 0, 60, 0
2, 110242, Note_on_c, 0, 65, 76
2, 110273, Note_on_c, 0, 65, 0
2, 110281, Note_on_c, 0, 55, 80
2, 110319, Note_on_c, 0, 55, 0
2, 110322, Note_on_c, 0, 58, 72
2, 110344, Note_on_c, 0, 58, 0
2, 110362, Note_on_c, 0, 64, 72
2, 110393, Note_on_c, 0, 64, 0
2, 110402, Note_on_c, 0, 65, 89
2, 110439, Note_on_c, 0, 65, 0
2, 110441, Note_on_c, 0, 69, 80
2, 110475, Note_on_c, 0, 69, 0
2, 110481, Note_on_c, 0, 72, 72
2, 110518, Note_on_c, 0, 72, 0
2, 110520, Note_on_c, 0, 77, 89
2, 110558, Note_on_c, 0, 77, 0
2, 110560, Note_on_c, 0, 81, 57
2, 110593, Note_on_c, 0, 81, 0
2, 110599, Note_on_c, 0, 84, 62
2, 110636, Note_on_c, 0, 84, 0
2, 110638, Note_on_c, 0, 89, 93
2, 110676, Note_on_c, 0, 89, 0
2, 110679, Note_on_c, 0, 84, 57
2, 110717, Note_on_c, 0, 84, 0
2, 110719, Note_on_c, 0, 81, 50
2, 110755, Note_on_c, 0, 81, 0
2, 110759, Note_on_c, 0, 88, 93
2, 110800, Note_on_c, 0, 82, 64
2, 110801, Note_on_c, 0, 88, 0
2, 110837, Note_on_c, 0, 82, 0
2, 110839, Note_on_c, 0, 79, 68
2, 110876, Note_on_c, 0, 79, 0
2, 110879, Note_on_c, 0, 86, 102
2, 110917, Note_on_c, 0, 86, 0
2, 110919, Note_on_c, 0, 81, 50
2, 110959, Note_on_c, 0, 77, 57
2, 110960, Note_on_c, 0, 81, 0
2, 110995, Note_on_c, 0, 77, 0
2, 110999, Note_on_c, 0, 84, 93
2, 111039, Note_on_c, 0, 79, 48
2, 111040, Note_on_c, 0, 84, 0
2, 111077, Note_on_c, 0, 79, 0
2, 111079, Note_on_c, 0, 76, 52
2, 111110, Note_on_c, 0, 76, 0
2, 111119, Note_on_c, 0, 82, 89
2, 111157, Note_on_c, 0, 82, 0
2, 111159, Note_on_c, 0, 77, 55
2, 111197, Note_on_c, 0, 77, 0
2, 111199, Note_on_c, 0, 74, 56
2, 111233, Note_on_c, 0, 74, 0
2, 111239, Note_on_c, 0, 81, 93
2, 111279, Note_on_c, 0, 76, 55
2, 111280, Note_on_c, 0, 81, 0
2, 111319, Note_on_c, 0, 76, 0
2, 111319, Note_on_c, 0, 72, 60
2, 111342, Note_on_c, 0, 72, 0
2, 111361, Note_on_c, 0, 69, 93
2, 111401, Note_on_c, 0, 75, 50
2, 111402, Note_on_c, 0, 69, 0
2, 111431, Note_on_c, 0, 75, 0
2, 111441, Note_on_c, 0, 78, 42
2, 111475, Note_on_c, 0, 78, 0
2, 111481, Note_on_c, 0, 70, 89
2, 111520, Note_on_c, 0, 70, 0
2, 111521, Note_on_c, 0, 74, 76
2, 111559, Note_on_c, 0, 74, 0
2, 111562, Note_on_c, 0, 79, 68
2, 111598, Note_on_c, 0, 79, 0
2, 111602, Note_on_c, 0, 69, 93
2, 111635, Note_on_c, 0, 69, 0
2, 111641, Note_on_c, 0, 72, 56
2, 111678, Note_on_c, 0, 72, 0
2, 111682, Note_on_c, 0, 77, 56
2, 111715, Note_on_c, 0, 77, 0
2, 111722, Note_on_c, 0, 67, 93
2, 111759, Note_on_c, 0, 67, 0
2, 111762, Note_on_c, 0, 70, 62
2, 111796, Note_on_c, 0, 70, 0
2, 111802, Note_on_c, 0, 76, 62
2, 111834, Note_on_c, 0, 76, 0
2, 111841, Note_on_c, 0, 69, 93
2, 111876, Note_on_c, 0, 69, 0
2, 111881, Note_on_c, 0, 72, 57
2, 111916, Note_on_c, 0, 72, 0
2, 111921, Note_on_c, 0, 77, 62
2, 111953, Note_on_c, 0, 77, 0
2, 111960, Note_on_c, 0, 68, 98
2, 112000, Note_on_c, 0, 68, 0
2, 112001, Note_on_c, 0, 71, 62
2, 112032, Note_on_c, 0, 71, 0
2, 112039, Note_on_c, 0, 77, 64
2, 112074, Note_on_c, 0, 77, 0
2, 112079, Note_on_c, 0, 69, 98
2, 112118, Note_on_c, 0, 69, 0
2, 112119, Note_on_c, 0, 72, 68
2, 112159, Note_on_c, 0, 72, 0
2, 112159, Note_on_c, 0, 77, 72
2, 112194, Note_on_c, 0, 77, 0
2, 112201, Note_on_c, 0, 68, 85
2, 112241, Note_on_c, 0, 68, 0
2, 112241, Note_on_c, 0, 71, 72
2, 112272, Note_on_c, 0, 71, 0
2, 112281, Note_on_c, 0, 77, 68
2, 112316, Note_on_c, 0, 77, 0
2, 112320, Note_on_c, 0, 69, 93
2, 112358, Note_on_c, 0, 69, 0
2, 112361, Note_on_c, 0, 72, 64
2, 112397, Note_on_c, 0, 72, 0
2, 112400, Note_on_c, 0, 77, 62
2, 112433, Note_on_c, 0, 77, 0
2, 112439, Note_on_c, 0, 74, 93
2, 112481, Note_on_c, 0, 74, 0
2, 112481, Note_on_c, 0, 70, 55
2, 112513, Note_on_c, 0, 70, 0
2, 112519, Note_on_c, 0, 67, 49
2, 112552, Note_on_c, 0, 67, 0
2, 112559, Note_on_c, 0, 72, 89
2, 112602, Note_on_c, 0, 72, 0
2, 112602, Note_on_c, 0, 69, 52
2, 112630, Note_on_c, 0, 69, 0
2, 112641, Note_on_c, 0, 65, 53
2, 112665, Note_on_c, 0, 65, 0
2, 112680, Note_on_c, 0, 70, 76
2, 112718, Note_on_c, 0, 70, 0
2, 112721, Note_on_c, 0, 67, 49
2, 112758, Note_on_c, 0, 67, 0
2, 112761, Note_on_c, 0, 64, 55
2, 112784, Note_on_c, 0, 64, 0
2, 112801, Note_on_c, 0, 60, 85
2, 112841, Note_on_c, 0, 65, 68
2, 112845, Note_on_c, 0, 60, 0
2, 112881, Note_on_c, 0, 65, 0
2, 112882, Note_on_c, 0, 69, 55
2, 112912, Note_on_c, 0, 69, 0
2, 112921, Note_on_c, 0, 59, 89
2, 112961, Note_on_c, 0, 65, 62
2, 112962, Note_on_c, 0, 59, 0
2, 112997, Note_on_c, 0, 65, 0
2, 113001, Note_on_c, 0, 68, 51
2, 113030, Note_on_c, 0, 68, 0
2, 113041, Note_on_c, 0, 60, 80
2, 113078, Note_on_c, 0, 60, 0
2, 113081, Note_on_c, 0, 65, 42
2, 113112, Note_on_c, 0, 65, 0
2, 113121, Note_on_c, 0, 69, 55
2, 113152, Note_on_c, 0, 69, 0
2, 113159, Note_on_c, 0, 59, 64
2, 113201, Note_on_c, 0, 65, 72
2, 113204, Note_on_c, 0, 59, 0
2, 113238, Note_on_c, 0, 65, 0
2, 113241, Note_on_c, 0, 68, 59
2, 113275, Note_on_c, 0, 68, 0
2, 113281, Note_on_c, 0, 60, 85
2, 113316, Note_on_c, 0, 60, 0
2, 113321, Note_on_c, 0, 65, 62
2, 113358, Note_on_c, 0, 65, 0
2, 113360, Note_on_c, 0, 69, 76
2, 113394, Note_on_c, 0, 69, 0
2, 113401, Note_on_c, 0, 67, 93
2, 113434, Note_on_c, 0, 67, 0
2, 113439, Note_on_c, 0, 62, 76
2, 113479, Note_on_c, 0, 62, 0
2, 113479, Note_on_c, 0, 58, 56
2, 113506, Note_on_c, 0, 58, 0
2, 113519, Note_on_c, 0, 65, 93
2, 113559, Note_on_c, 0, 60, 51
2, 113560, Note_on_c, 0, 65, 0
2, 113598, Note_on_c, 0, 60, 0
2, 113599, Note_on_c, 0, 57, 60
2, 113632, Note_on_c, 0, 57, 0
2, 113641, Note_on_c, 0, 64, 89
2, 113680, Note_on_c, 0, 64, 0
2, 113681, Note_on_c, 0, 58, 50
2, 113720, Note_on_c, 0, 58, 0
2, 113721, Note_on_c, 0, 55, 68
2, 113750, Note_on_c, 0, 55, 0
2, 113761, Note_on_c, 0, 53, 89
2, 113796, Note_on_c, 0, 53, 0
2, 113801, Note_on_c, 0, 57, 72
2, 113830, Note_on_c, 0, 57, 0
2, 113838, Note_on_c, 0, 60, 76
2, 113876, Note_on_c, 0, 60, 0
2, 113878, Note_on_c, 0, 65, 85
2, 113912, Note_on_c, 0, 65, 0
2, 113917, Note_on_c, 0, 60, 68
2, 113955, Note_on_c, 0, 60, 0
2, 113956, Note_on_c, 0, 57, 64
2, 113997, Note_on_c, 0, 53, 93
2, 114001, Note_on_c, 0, 57, 0
2, 114033, Note_on_c, 0, 53, 0
2, 114038, Note_on_c, 0, 57, 85
2, 114076, Note_on_c, 0, 57, 0
2, 114077, Note_on_c, 0, 60, 76
2, 114118, Note_on_c, 0, 65, 89
2, 114121, Note_on_c, 0, 60, 0
2, 114159, Note_on_c, 0, 65, 0
2, 114159, Note_on_c, 0, 60, 76
2, 114199, Note_on_c, 0, 57, 76
2, 114201, Note_on_c, 0, 60, 0
2, 114241, Note_on_c, 0, 53, 85
2, 114244, Note_on_c, 0, 57, 0
2, 114277, Note_on_c, 0, 53, 0
2, 114281, Note_on_c, 0, 57, 72
2, 114320, Note_on_c, 0, 60, 64
2, 114322, Note_on_c, 0, 57, 0
2, 114358, Note_on_c, 0, 60, 0
2, 114361, Note_on_c, 0, 65, 93
2, 114401, Note_on_c, 0, 69, 76
2, 114406, Note_on_c, 0, 65, 0
2, 114440, Note_on_c, 0, 69, 0
2, 114441, Note_on_c, 0, 72, 76
2, 114479, Note_on_c, 0, 72, 0
2, 114481, Note_on_c, 0, 77, 89
2, 114520, Note_on_c, 0, 77, 0
2, 114520, Note_on_c, 0, 72, 64
2, 114561, Note_on_c, 0, 69, 80
2, 114564, Note_on_c, 0, 72, 0
2, 114594, Note_on_c, 0, 69, 0
2, 114601, Note_on_c, 0, 65, 85
2, 114641, Note_on_c, 0, 69, 68
2, 114647, Note_on_c, 0, 65, 0
2, 114681, Note_on_c, 0, 69, 0
2, 114681, Note_on_c, 0, 72, 76
2, 114720, Note_on_c, 0, 72, 0
2, 114721, Note_on_c, 0, 65, 93
2, 114761, Note_on_c, 0, 69, 76
2, 114763, Note_on_c, 0, 65, 0
2, 114801, Note_on_c, 0, 72, 85
2, 114803, Note_on_c, 0, 69, 0
2, 114833, Note_on_c, 0, 72, 0
2, 114839, Note_on_c, 0, 77, 98
2, 114878, Note_on_c, 0, 77, 0
2, 114879, Note_on_c, 0, 81, 89
2, 114918, Note_on_c, 0, 81, 0
2, 114919, Note_on_c, 0, 84, 85
2, 114959, Note_on_c, 0, 89, 80
2, 114961, Note_on_c, 0, 84, 0
2, 114998, Note_on_c, 0, 89, 0
2, 114999, Note_on_c, 0, 84, 80
2, 115039, Note_on_c, 0, 81, 85
2, 115044, Note_on_c, 0, 84, 0
2, 115079, Note_on_c, 0, 77, 93
2, 115080, Note_on_c, 0, 81, 0
2, 115119, Note_on_c, 0, 81, 85
2, 115124, Note_on_c, 0, 77, 0
2, 115154, Note_on_c, 0, 81, 0
2, 115158, Note_on_c, 0, 84, 76
2, 115199, Note_on_c, 0, 84, 0
2, 115199, Note_on_c, 0, 89, 80
2, 115281, Note_on_c, 0, 89, 0
2, 115320, Note_on_c, 0, 65, 93
2, 115461, Note_on_c, 0, 65, 0
2, 115680, Control_c, 0, 121, 0
2, 115680, End_track
3, 0, Start_track
3, 0, MIDI_port, 0
3, 0, Program_c, 1, 0
3, 0, Control_c, 1, 7, 127
3, 0, Control_c, 1, 10, 44
3, 0, Control_c, 1, 121, 0
3, 0, Control_c, 1, 91, 75
3, 1920, Note_on_c, 1, 53, 70
3, 1920, Note_on_c, 1, 57, 59
3, 1979, Note_on_c, 1, 57, 0
3, 1979, Note_on_c, 1, 60, 57
3, 2037, Note_on_c, 1, 60, 0
3, 2039, Note_on_c, 1, 57, 62
3, 2097, Note_on_c, 1, 57, 0
3, 2099, Note_on_c, 1, 60, 45
3, 2159, Note_on_c, 1, 60, 0
3, 2159, Note_on_c, 1, 57, 57
3, 2216, Note_on_c, 1, 57, 0
3, 2219, Note_on_c, 1, 60, 49
3, 2277, Note_on_c, 1, 60, 0
3, 2280, Note_on_c, 1, 57, 48
3, 2339, Note_on_c, 1, 60, 48
3, 2340, Note_on_c, 1, 57, 0
3, 2399, Note_on_c, 1, 60, 0
3, 2399, Note_on_c, 1, 53, 0
3, 2399, Note_on_c, 1, 53, 70
3, 2399, Note_on_c, 1, 58, 59
3, 2459, Note_on_c, 1, 60, 68
3, 2460, Note_on_c, 1, 58, 0
3, 2516, Note_on_c, 1, 60, 0
3, 2519, Note_on_c, 1, 58, 47
3, 2574, Note_on_c, 1, 58, 0
3, 2579, Note_on_c, 1, 60, 62
3, 2639, Note_on_c, 1, 58, 56
3, 2646, Note_on_c, 1, 60, 0
3, 2698, Note_on_c, 1, 58, 0
3, 2699, Note_on_c, 1, 60, 64
3, 2756, Note_on_c, 1, 60, 0
3, 2759, Note_on_c, 1, 58, 46
3, 2817, Note_on_c, 1, 58, 0
3, 2819, Note_on_c, 1, 60, 55
3, 2848, Note_on_c, 1, 53, 0
3, 2874, Note_on_c, 1, 60, 0
3, 2880, Note_on_c, 1, 53, 70
3, 2880, Note_on_c, 1, 57, 56
3, 2933, Note_on_c, 1, 57, 0
3, 2939, Note_on_c, 1, 60, 57
3, 2999, Note_on_c, 1, 57, 56
3, 3001, Note_on_c, 1, 60, 0
3, 3052, Note_on_c, 1, 57, 0
3, 3059, Note_on_c, 1, 60, 51
3, 3115, Note_on_c, 1, 60, 0
3, 3121, Note_on_c, 1, 57, 44
3, 3169, Note_on_c, 1, 57, 0
3, 3179, Note_on_c, 1, 60, 50
3, 3235, Note_on_c, 1, 60, 0
3, 3239, Note_on_c, 1, 57, 44
3, 3295, Note_on_c, 1, 57, 0
3, 3299, Note_on_c, 1, 60, 51
3, 3316, Note_on_c, 1, 53, 0
3, 3358, Note_on_c, 1, 60, 0
3, 3359, Note_on_c, 1, 53, 70
3, 3359, Note_on_c, 1, 58, 49
3, 3418, Note_on_c, 1, 58, 0
3, 3419, Note_on_c, 1, 60, 59
3, 3479, Note_on_c, 1, 58, 55
3, 3481, Note_on_c, 1, 60, 0
3, 3539, Note_on_c, 1, 58, 0
3, 3539, Note_on_c, 1, 60, 60
3, 3600, Note_on_c, 1, 60, 0
3, 3601, Note_on_c, 1, 58, 48
3, 3660, Note_on_c, 1, 58, 0
3, 3661, Note_on_c, 1, 60, 57
3, 3716, Note_on_c, 1, 60, 0
3, 3721, Note_on_c, 1, 58, 50
3, 3781, Note_on_c, 1, 58, 0
3, 3781, Note_on_c, 1, 60, 53
3, 3831, Note_on_c, 1, 60, 0
3, 3839, Note_on_c, 1, 57, 56
3, 4082, Note_on_c, 1, 57, 0
3, 4083, Note_on_c, 1, 53, 0
3, 4199, Note_on_c, 1, 60, 68
3, 4319, Note_on_c, 1, 60, 0
3, 4321, Note_on_c, 1, 58, 62
3, 4376, Note_on_c, 1, 58, 0
3, 4379, Note_on_c, 1, 57, 72
3, 4439, Note_on_c, 1, 57, 0
3, 4440, Note_on_c, 1, 55, 56
3, 4499, Note_on_c, 1, 53, 62
3, 4502, Note_on_c, 1, 55, 0
3, 4560, Note_on_c, 1, 57, 64
3, 4567, Note_on_c, 1, 53, 0
3, 4615, Note_on_c, 1, 57, 0
3, 4619, Note_on_c, 1, 55, 57
3, 4679, Note_on_c, 1, 58, 56
3, 4685, Note_on_c, 1, 55, 0
3, 4732, Note_on_c, 1, 58, 0
3, 4739, Note_on_c, 1, 52, 59
3, 4799, Note_on_c, 1, 52, 0
3, 4799, Note_on_c, 1, 53, 72
3, 4824, Note_on_c, 1, 53, 0
3, 4919, Note_on_c, 1, 48, 62
3, 4948, Note_on_c, 1, 48, 0
3, 5039, Note_on_c, 1, 60, 76
3, 5279, Note_on_c, 1, 58, 59
3, 5281, Note_on_c, 1, 60, 0
3, 5339, Note_on_c, 1, 57, 62
3, 5345, Note_on_c, 1, 58, 0
3, 5399, Note_on_c, 1, 57, 0
3, 5399, Note_on_c, 1, 55, 56
3, 5459, Note_on_c, 1, 53, 60
3, 5462, Note_on_c, 1, 55, 0
3, 5519, Note_on_c, 1, 57, 62
3, 5524, Note_on_c, 1, 53, 0
3, 5571, Note_on_c, 1, 57, 0
3, 5579, Note_on_c, 1, 55, 52
3, 5639, Note_on_c, 1, 58, 59
3, 5648, Note_on_c, 1, 55, 0
3, 5699, Note_on_c, 1, 52, 55
3, 5703, Note_on_c, 1, 58, 0
3, 5758, Note_on_c, 1, 52, 0
3, 5759, Note_on_c, 1, 53, 55
3, 6191, Note_on_c, 1, 53, 0
3, 6239, Note_on_c, 1, 54, 62
3, 6301, Note_on_c, 1, 55, 72
3, 6302, Note_on_c, 1, 54, 0
3, 6361, Note_on_c, 1, 57, 80
3, 6372, Note_on_c, 1, 55, 0
3, 6419, Note_on_c, 1, 58, 72
3, 6420, Note_on_c, 1, 57, 0
3, 6478, Note_on_c, 1, 58, 0
3, 6479, Note_on_c, 1, 60, 64
3, 6534, Note_on_c, 1, 60, 0
3, 6539, Note_on_c, 1, 61, 76
3, 6599, Note_on_c, 1, 62, 76
3, 6602, Note_on_c, 1, 61, 0
3, 6658, Note_on_c, 1, 62, 0
3, 6659, Note_on_c, 1, 64, 85
3, 6716, Note_on_c, 1, 64, 0
3, 6719, Note_on_c, 1, 67, 76
3, 6779, Note_on_c, 1, 65, 72
3, 6790, Note_on_c, 1, 67, 0
3, 6840, Note_on_c, 1, 64, 62
3, 6847, Note_on_c, 1, 65, 0
3, 6901, Note_on_c, 1, 62, 72
3, 6911, Note_on_c, 1, 64, 0
3, 6933, Note_on_c, 1, 62, 0
3, 6961, Note_on_c, 1, 62, 62
3, 7020, Note_on_c, 1, 60, 64
3, 7022, Note_on_c, 1, 62, 0
3, 7080, Note_on_c, 1, 58, 55
3, 7088, Note_on_c, 1, 60, 0
3, 7138, Note_on_c, 1, 58, 0
3, 7139, Note_on_c, 1, 57, 62
3, 7200, Note_on_c, 1, 58, 59
3, 7205, Note_on_c, 1, 57, 0
3, 7259, Note_on_c, 1, 64, 62
3, 7260, Note_on_c, 1, 58, 0
3, 7313, Note_on_c, 1, 64, 0
3, 7319, Note_on_c, 1, 60, 55
3, 7379, Note_on_c, 1, 60, 0
3, 7379, Note_on_c, 1, 64, 60
3, 7436, Note_on_c, 1, 64, 0
3, 7441, Note_on_c, 1, 58, 56
3, 7496, Note_on_c, 1, 58, 0
3, 7499, Note_on_c, 1, 67, 62
3, 7554, Note_on_c, 1, 67, 0
3, 7559, Note_on_c, 1, 60, 62
3, 7619, Note_on_c, 1, 67, 51
3, 7626, Note_on_c, 1, 60, 0
3, 7674, Note_on_c, 1, 67, 0
3, 7801, Note_on_c, 1, 69, 49
3, 7801, Note_on_c, 1, 72, 55
3, 7858, Note_on_c, 1, 72, 0
3, 7861, Note_on_c, 1, 70, 67
3, 7861, Note_on_c, 1, 67, 50
3, 7866, Note_on_c, 1, 69, 0
3, 7906, Note_on_c, 1, 67, 0
3, 7912, Note_on_c, 1, 70, 0
3, 7919, Note_on_c, 1, 65, 62
3, 7920, Note_on_c, 1, 69, 68
3, 7943, Note_on_c, 1, 69, 0
3, 7953, Note_on_c, 1, 65, 0
3, 8041, Note_on_c, 1, 65, 61
3, 8041, Note_on_c, 1, 69, 67
3, 8096, Note_on_c, 1, 69, 0
3, 8097, Note_on_c, 1, 65, 0
3, 8101, Note_on_c, 1, 67, 54
3, 8101, Note_on_c, 1, 64, 37
3, 8137, Note_on_c, 1, 64, 0
3, 8149, Note_on_c, 1, 67, 0
3, 8161, Note_on_c, 1, 62, 55
3, 8161, Note_on_c, 1, 65, 68
3, 8188, Note_on_c, 1, 65, 0
3, 8194, Note_on_c, 1, 62, 0
3, 8281, Note_on_c, 1, 62, 66
3, 8281, Note_on_c, 1, 65, 67
3, 8333, Note_on_c, 1, 62, 0
3, 8339, Note_on_c, 1, 65, 0
3, 8339, Note_on_c, 1, 60, 61
3, 8339, Note_on_c, 1, 64, 68
3, 8372, Note_on_c, 1, 60, 0
3, 8384, Note_on_c, 1, 64, 0
3, 8401, Note_on_c, 1, 58, 45
3, 8401, Note_on_c, 1, 62, 81
3, 8421, Note_on_c, 1, 62, 0
3, 8429, Note_on_c, 1, 58, 0
3, 8520, Note_on_c, 1, 58, 66
3, 8521, Note_on_c, 1, 62, 81
3, 8578, Note_on_c, 1, 58, 0
3, 8579, Note_on_c, 1, 62, 0
3, 8579, Note_on_c, 1, 60, 76
3, 8579, Note_on_c, 1, 57, 67
3, 8616, Note_on_c, 1, 57, 0
3, 8624, Note_on_c, 1, 60, 0
3, 8639, Note_on_c, 1, 58, 56
3, 8639, Note_on_c, 1, 55, 62
3, 9009, Note_on_c, 1, 58, 0
3, 9015, Note_on_c, 1, 55, 0
3, 9119, Note_on_c, 1, 58, 60
3, 9121, Note_on_c, 1, 52, 60
3, 9597, Note_on_c, 1, 58, 0
3, 9599, Note_on_c, 1, 57, 64
3, 9599, Note_on_c, 1, 53, 56
3, 9602, Note_on_c, 1, 52, 0
3, 9835, Note_on_c, 1, 53, 0
3, 9837, Note_on_c, 1, 57, 0
3, 9839, Note_on_c, 1, 55, 57
3, 9841, Note_on_c, 1, 46, 60
3, 10058, Note_on_c, 1, 55, 0
3, 10065, Note_on_c, 1, 46, 0
3, 10199, Note_on_c, 1, 57, 60
3, 10199, Note_on_c, 1, 48, 53
3, 10319, Note_on_c, 1, 58, 62
3, 10322, Note_on_c, 1, 57, 0
3, 10543, Note_on_c, 1, 58, 0
3, 10543, Note_on_c, 1, 48, 0
3, 10559, Note_on_c, 1, 59, 72
3, 10559, Note_on_c, 1, 50, 76
3, 10559, Note_on_c, 1, 53, 68
3, 11029, Note_on_c, 1, 53, 0
3, 11029, Note_on_c, 1, 50, 0
3, 11037, Note_on_c, 1, 59, 0
3, 11039, Note_on_c, 1, 54, 56
3, 11099, Note_on_c, 1, 55, 66
3, 11101, Note_on_c, 1, 54, 0
3, 11159, Note_on_c, 1, 57, 86
3, 11168, Note_on_c, 1, 55, 0
3, 11219, Note_on_c, 1, 58, 63
3, 11226, Note_on_c, 1, 57, 0
3, 11279, Note_on_c, 1, 60, 72
3, 11281, Note_on_c, 1, 58, 0
3, 11339, Note_on_c, 1, 61, 72
3, 11347, Note_on_c, 1, 60, 0
3, 11401, Note_on_c, 1, 62, 74
3, 11407, Note_on_c, 1, 61, 0
3, 11456, Note_on_c, 1, 62, 0
3, 11459, Note_on_c, 1, 64, 76
3, 11521, Note_on_c, 1, 65, 72
3, 11522, Note_on_c, 1, 64, 0
3, 11569, Note_on_c, 1, 65, 0
3, 11579, Note_on_c, 1, 53, 81
3, 11608, Note_on_c, 1, 53, 0
3, 11641, Note_on_c, 1, 65, 86
3, 11700, Note_on_c, 1, 64, 70
3, 11702, Note_on_c, 1, 65, 0
3, 11759, Note_on_c, 1, 62, 74
3, 11763, Note_on_c, 1, 64, 0
3, 11819, Note_on_c, 1, 50, 96
3, 11824, Note_on_c, 1, 62, 0
3, 11851, Note_on_c, 1, 50, 0
3, 11881, Note_on_c, 1, 62, 74
3, 11939, Note_on_c, 1, 60, 68
3, 11943, Note_on_c, 1, 62, 0
3, 11999, Note_on_c, 1, 60, 0
3, 12000, Note_on_c, 1, 58, 74
3, 12055, Note_on_c, 1, 58, 0
3, 12059, Note_on_c, 1, 46, 86
3, 12087, Note_on_c, 1, 46, 0
3, 12119, Note_on_c, 1, 58, 74
3, 12174, Note_on_c, 1, 58, 0
3, 12179, Note_on_c, 1, 57, 72
3, 12239, Note_on_c, 1, 55, 63
3, 12244, Note_on_c, 1, 57, 0
3, 12299, Note_on_c, 1, 55, 0
3, 12299, Note_on_c, 1, 43, 86
3, 12327, Note_on_c, 1, 43, 0
3, 12360, Note_on_c, 1, 55, 81
3, 12419, Note_on_c, 1, 53, 74
3, 12425, Note_on_c, 1, 55, 0
3, 12455, Note_on_c, 1, 53, 0
3, 12479, Note_on_c, 1, 53, 74
3, 12721, Note_on_c, 1, 52, 70
3, 12730, Note_on_c, 1, 53, 0
3, 12854, Note_on_c, 1, 52, 0
3, 13081, Note_on_c, 1, 69, 62
3, 13141, Note_on_c, 1, 67, 68
3, 13155, Note_on_c, 1, 69, 0
3, 13201, Note_on_c, 1, 65, 64
3, 13213, Note_on_c, 1, 67, 0
3, 13259, Note_on_c, 1, 64, 64
3, 13267, Note_on_c, 1, 65, 0
3, 13320, Note_on_c, 1, 64, 0
3, 13320, Note_on_c, 1, 62, 56
3, 13379, Note_on_c, 1, 60, 68
3, 13380, Note_on_c, 1, 62, 0
3, 13425, Note_on_c, 1, 60, 0
3, 13439, Note_on_c, 1, 60, 72
3, 13799, Note_on_c, 1, 62, 89
3, 13802, Note_on_c, 1, 60, 0
3, 13859, Note_on_c, 1, 64, 76
3, 13869, Note_on_c, 1, 62, 0
3, 13918, Note_on_c, 1, 64, 0
3, 13919, Note_on_c, 1, 65, 85
3, 13979, Note_on_c, 1, 66, 72
3, 13991, Note_on_c, 1, 65, 0
3, 14039, Note_on_c, 1, 66, 0
3, 14039, Note_on_c, 1, 69, 89
3, 14099, Note_on_c, 1, 67, 76
3, 14111, Note_on_c, 1, 69, 0
3, 14161, Note_on_c, 1, 65, 72
3, 14170, Note_on_c, 1, 67, 0
3, 14221, Note_on_c, 1, 64, 62
3, 14229, Note_on_c, 1, 65, 0
3, 14281, Note_on_c, 1, 62, 50
3, 14282, Note_on_c, 1, 64, 0
3, 14339, Note_on_c, 1, 60, 59
3, 14344, Note_on_c, 1, 62, 0
3, 14369, Note_on_c, 1, 60, 0
3, 14399, Note_on_c, 1, 60, 57
3, 14759, Note_on_c, 1, 62, 60
3, 14761, Note_on_c, 1, 60, 0
3, 14819, Note_on_c, 1, 64, 56
3, 14825, Note_on_c, 1, 62, 0
3, 14879, Note_on_c, 1, 64, 0
3, 14881, Note_on_c, 1, 65, 60
3, 15008, Note_on_c, 1, 65, 0
3, 15361, Note_on_c, 1, 53, 56
3, 15418, Note_on_c, 1, 53, 0
3, 15421, Note_on_c, 1, 57, 62
3, 15479, Note_on_c, 1, 50, 76
3, 15485, Note_on_c, 1, 57, 0
3, 15500, Note_on_c, 1, 50, 0
3, 15541, Note_on_c, 1, 53, 62
3, 15594, Note_on_c, 1, 53, 0
3, 15601, Note_on_c, 1, 49, 55
3, 15661, Note_on_c, 1, 52, 40
3, 15662, Note_on_c, 1, 49, 0
3, 15720, Note_on_c, 1, 45, 64
3, 15725, Note_on_c, 1, 52, 0
3, 15779, Note_on_c, 1, 49, 68
3, 15785, Note_on_c, 1, 45, 0
3, 15838, Note_on_c, 1, 49, 0
3, 15839, Note_on_c, 1, 50, 64
3, 15965, Note_on_c, 1, 50, 0
3, 16201, Note_on_c, 1, 69, 76
3, 16321, Note_on_c, 1, 69, 0
3, 16321, Note_on_c, 1, 67, 72
3, 16381, Note_on_c, 1, 65, 76
3, 16388, Note_on_c, 1, 67, 0
3, 16441, Note_on_c, 1, 64, 76
3, 16443, Note_on_c, 1, 65, 0
3, 16501, Note_on_c, 1, 64, 0
3, 16501, Note_on_c, 1, 62, 76
3, 16560, Note_on_c, 1, 64, 68
3, 16562, Note_on_c, 1, 62, 0
3, 16621, Note_on_c, 1, 62, 56
3, 16626, Note_on_c, 1, 64, 0
3, 16681, Note_on_c, 1, 65, 56
3, 16682, Note_on_c, 1, 62, 0
3, 16739, Note_on_c, 1, 65, 0
3, 16739, Note_on_c, 1, 59, 57
3, 16801, Note_on_c, 1, 60, 68
3, 16803, Note_on_c, 1, 59, 0
3, 16824, Note_on_c, 1, 60, 0
3, 16920, Note_on_c, 1, 55, 62
3, 16948, Note_on_c, 1, 55, 0
3, 17039, Note_on_c, 1, 67, 68
3, 17279, Note_on_c, 1, 65, 72
3, 17283, Note_on_c, 1, 67, 0
3, 17339, Note_on_c, 1, 63, 68
3, 17351, Note_on_c, 1, 65, 0
3, 17399, Note_on_c, 1, 62, 80
3, 17408, Note_on_c, 1, 63, 0
3, 17459, Note_on_c, 1, 60, 76
3, 17464, Note_on_c, 1, 62, 0
3, 17519, Note_on_c, 1, 63, 72
3, 17525, Note_on_c, 1, 60, 0
3, 17579, Note_on_c, 1, 62, 80
3, 17584, Note_on_c, 1, 63, 0
3, 17639, Note_on_c, 1, 65, 85
3, 17648, Note_on_c, 1, 62, 0
3, 17699, Note_on_c, 1, 59, 68
3, 17705, Note_on_c, 1, 65, 0
3, 17761, Note_on_c, 1, 59, 0
3, 17761, Note_on_c, 1, 60, 86
3, 17881, Note_on_c, 1, 63, 72
3, 17881, Note_on_c, 1, 67, 76
3, 18001, Note_on_c, 1, 58, 86
3, 18008, Note_on_c, 1, 67, 0
3, 18008, Note_on_c, 1, 63, 0
3, 18015, Note_on_c, 1, 60, 0
3, 18121, Note_on_c, 1, 60, 72
3, 18121, Note_on_c, 1, 63, 72
3, 18235, Note_on_c, 1, 58, 0
3, 18241, Note_on_c, 1, 63, 0
3, 18241, Note_on_c, 1, 60, 0
3, 18241, Note_on_c, 1, 56, 89
3, 18361, Note_on_c, 1, 60, 89
3, 18361, Note_on_c, 1, 63, 85
3, 18475, Note_on_c, 1, 56, 0
3, 18479, Note_on_c, 1, 60, 0
3, 18481, Note_on_c, 1, 63, 0
3, 18481, Note_on_c, 1, 55, 86
3, 18601, Note_on_c, 1, 60, 85
3, 18601, Note_on_c, 1, 63, 93
3, 18695, Note_on_c, 1, 63, 0
3, 18695, Note_on_c, 1, 60, 0
3, 18701, Note_on_c, 1, 55, 0
3, 18721, Note_on_c, 1, 54, 68
3, 18721, Note_on_c, 1, 63, 89
3, 18721, Note_on_c, 1, 60, 93
3, 18846, Note_on_c, 1, 60, 0
3, 18848, Note_on_c, 1, 63, 0
3, 18850, Note_on_c, 1, 54, 0
3, 19079, Note_on_c, 1, 63, 89
3, 19079, Note_on_c, 1, 60, 93
3, 19079, Note_on_c, 1, 55, 76
3, 19157, Note_on_c, 1, 60, 0
3, 19160, Note_on_c, 1, 63, 0
3, 19161, Note_on_c, 1, 55, 0
3, 19201, Note_on_c, 1, 63, 85
3, 19201, Note_on_c, 1, 60, 93
3, 19201, Note_on_c, 1, 56, 72
3, 19297, Note_on_c, 1, 60, 0
3, 19299, Note_on_c, 1, 63, 0
3, 19302, Note_on_c, 1, 56, 0
3, 19440, Note_on_c, 1, 44, 50
3, 19440, Note_on_c, 1, 56, 46
3, 19546, Note_on_c, 1, 56, 0
3, 19547, Note_on_c, 1, 44, 0
3, 19681, Note_on_c, 1, 55, 45
3, 19681, Note_on_c, 1, 43, 48
3, 19788, Note_on_c, 1, 55, 0
3, 19790, Note_on_c, 1, 43, 0
3, 20643, Note_on_c, 1, 64, 72
3, 20699, Note_on_c, 1, 64, 0
3, 20702, Note_on_c, 1, 67, 62
3, 20759, Note_on_c, 1, 67, 0
3, 20762, Note_on_c, 1, 65, 64
3, 20819, Note_on_c, 1, 65, 0
3, 20822, Note_on_c, 1, 67, 60
3, 20877, Note_on_c, 1, 67, 0
3, 20881, Note_on_c, 1, 64, 60
3, 20940, Note_on_c, 1, 64, 0
3, 20941, Note_on_c, 1, 67, 57
3, 21000, Note_on_c, 1, 67, 0
3, 21001, Note_on_c, 1, 59, 62
3, 21061, Note_on_c, 1, 67, 68
3, 21065, Note_on_c, 1, 59, 0
3, 21122, Note_on_c, 1, 60, 62
3, 21126, Note_on_c, 1, 67, 0
3, 21181, Note_on_c, 1, 67, 64
3, 21184, Note_on_c, 1, 60, 0
3, 21234, Note_on_c, 1, 67, 0
3, 21241, Note_on_c, 1, 57, 62
3, 21301, Note_on_c, 1, 60, 64
3, 21308, Note_on_c, 1, 57, 0
3, 21361, Note_on_c, 1, 60, 0
3, 21362, Note_on_c, 1, 52, 64
3, 21421, Note_on_c, 1, 52, 0
3, 21422, Note_on_c, 1, 60, 60
3, 21480, Note_on_c, 1, 60, 0
3, 21481, Note_on_c, 1, 53, 60
3, 21541, Note_on_c, 1, 65, 72
3, 21596, Note_on_c, 1, 53, 0
3, 21601, Note_on_c, 1, 64, 68
3, 21601, Note_on_c, 1, 55, 62
3, 21608, Note_on_c, 1, 65, 0
3, 21723, Note_on_c, 1, 62, 50
3, 21733, Note_on_c, 1, 64, 0
3, 21832, Note_on_c, 1, 62, 0
3, 21835, Note_on_c, 1, 55, 0
3, 21959, Note_on_c, 1, 61, 113
3, 21959, Note_on_c, 1, 57, 98
3, 22083, Note_on_c, 1, 59, 64
3, 22083, Note_on_c, 1, 62, 62
3, 22088, Note_on_c, 1, 57, 0
3, 22096, Note_on_c, 1, 61, 0
3, 22096, Note_on_c, 1, 62, 0
3, 22099, Note_on_c, 1, 59, 0
3, 22202, Note_on_c, 1, 64, 64
3, 22202, Note_on_c, 1, 61, 56
3, 22222, Note_on_c, 1, 61, 0
3, 22222, Note_on_c, 1, 64, 0
3, 22322, Note_on_c, 1, 65, 64
3, 22322, Note_on_c, 1, 62, 64
3, 22339, Note_on_c, 1, 65, 0
3, 22340, Note_on_c, 1, 62, 0
3, 22442, Note_on_c, 1, 67, 72
3, 22442, Note_on_c, 1, 64, 64
3, 22462, Note_on_c, 1, 67, 0
3, 22464, Note_on_c, 1, 64, 0
3, 22562, Note_on_c, 1, 69, 56
3, 22562, Note_on_c, 1, 65, 62
3, 22584, Note_on_c, 1, 65, 0
3, 22585, Note_on_c, 1, 69, 0
3, 22921, Note_on_c, 1, 55, 93
3, 22921, Note_on_c, 1, 53, 85
3, 23036, Note_on_c, 1, 53, 0
3, 23040, Note_on_c, 1, 52, 59
3, 23153, Note_on_c, 1, 52, 0
3, 23158, Note_on_c, 1, 55, 0
3, 23158, Note_on_c, 1, 54, 55
3, 23158, Note_on_c, 1, 57, 68
3, 23281, Note_on_c, 1, 60, 62
3, 23281, Note_on_c, 1, 55, 49
3, 23287, Note_on_c, 1, 54, 0
3, 23288, Note_on_c, 1, 57, 0
3, 23401, Note_on_c, 1, 59, 55
3, 23402, Note_on_c, 1, 60, 0
3, 23522, Note_on_c, 1, 55, 0
3, 23522, Note_on_c, 1, 60, 62
3, 23526, Note_on_c, 1, 59, 0
3, 23639, Note_on_c, 1, 60, 0
3, 23641, Note_on_c, 1, 48, 72
3, 23665, Note_on_c, 1, 48, 0
3, 23760, Note_on_c, 1, 55, 93
3, 24039, Note_on_c, 1, 57, 80
3, 24040, Note_on_c, 1, 55, 0
3, 24079, Note_on_c, 1, 55, 72
3, 24089, Note_on_c, 1, 57, 0
3, 24120, Note_on_c, 1, 53, 72
3, 24127, Note_on_c, 1, 55, 0
3, 24161, Note_on_c, 1, 55, 76
3, 24169, Note_on_c, 1, 53, 0
3, 24201, Note_on_c, 1, 53, 68
3, 24215, Note_on_c, 1, 55, 0
3, 24242, Note_on_c, 1, 52, 80
3, 24245, Note_on_c, 1, 53, 0
3, 24282, Note_on_c, 1, 53, 68
3, 24287, Note_on_c, 1, 52, 0
3, 24321, Note_on_c, 1, 52, 72
3, 24323, Note_on_c, 1, 53, 0
3, 24361, Note_on_c, 1, 50, 76
3, 24364, Note_on_c, 1, 52, 0
3, 24401, Note_on_c, 1, 52, 68
3, 24402, Note_on_c, 1, 50, 0
3, 24441, Note_on_c, 1, 50, 68
3, 24445, Note_on_c, 1, 52, 0
3, 24479, Note_on_c, 1, 50, 0
3, 24489, Note_on_c, 1, 48, 89
3, 24527, Note_on_c, 1, 48, 0
3, 24607, Note_on_c, 1, 52, 89
3, 24626, Note_on_c, 1, 52, 0
3, 24630, Note_on_c, 1, 50, 76
3, 24654, Note_on_c, 1, 52, 80
3, 24657, Note_on_c, 1, 50, 0
3, 24675, Note_on_c, 1, 50, 85
3, 24679, Note_on_c, 1, 52, 0
3, 24695, Note_on_c, 1, 48, 72
3, 24696, Note_on_c, 1, 50, 0
3, 24715, Note_on_c, 1, 50, 80
3, 24719, Note_on_c, 1, 48, 0
3, 24730, Note_on_c, 1, 52, 80
3, 24732, Note_on_c, 1, 50, 0
3, 24834, Note_on_c, 1, 52, 0
3, 24837, Note_on_c, 1, 40, 62
3, 24966, Note_on_c, 1, 41, 68
3, 24970, Note_on_c, 1, 40, 0
3, 25089, Note_on_c, 1, 41, 0
3, 25323, Note_on_c, 1, 53, 76
3, 25444, Note_on_c, 1, 55, 68
3, 25449, Note_on_c, 1, 53, 0
3, 25551, Note_on_c, 1, 55, 0
3, 25567, Note_on_c, 1, 43, 93
3, 25594, Note_on_c, 1, 43, 0
3, 25693, Note_on_c, 1, 57, 85
3, 25961, Note_on_c, 1, 58, 76
3, 25964, Note_on_c, 1, 57, 0
3, 25999, Note_on_c, 1, 57, 76
3, 26008, Note_on_c, 1, 58, 0
3, 26039, Note_on_c, 1, 55, 76
3, 26045, Note_on_c, 1, 57, 0
3, 26079, Note_on_c, 1, 57, 76
3, 26084, Note_on_c, 1, 55, 0
3, 26121, Note_on_c, 1, 55, 76
3, 26131, Note_on_c, 1, 57, 0
3, 26164, Note_on_c, 1, 55, 0
3, 26164, Note_on_c, 1, 53, 72
3, 26204, Note_on_c, 1, 55, 76
3, 26206, Note_on_c, 1, 53, 0
3, 26240, Note_on_c, 1, 53, 68
3, 26248, Note_on_c, 1, 55, 0
3, 26283, Note_on_c, 1, 52, 80
3, 26287, Note_on_c, 1, 53, 0
3, 26321, Note_on_c, 1, 53, 76
3, 26326, Note_on_c, 1, 52, 0
3, 26359, Note_on_c, 1, 52, 64
3, 26361, Note_on_c, 1, 53, 0
3, 26397, Note_on_c, 1, 52, 0
3, 26404, Note_on_c, 1, 50, 89
3, 26464, Note_on_c, 1, 50, 0
3, 26532, Note_on_c, 1, 50, 89
3, 26552, Note_on_c, 1, 48, 93
3, 26553, Note_on_c, 1, 50, 0
3, 26572, Note_on_c, 1, 50, 89
3, 26573, Note_on_c, 1, 48, 0
3, 26588, Note_on_c, 1, 48, 80
3, 26593, Note_on_c, 1, 50, 0
3, 26608, Note_on_c, 1, 47, 68
3, 26609, Note_on_c, 1, 48, 0
3, 26631, Note_on_c, 1, 48, 62
3, 26634, Note_on_c, 1, 47, 0
3, 26656, Note_on_c, 1, 47, 93
3, 26657, Note_on_c, 1, 48, 0
3, 26690, Note_on_c, 1, 47, 0
3, 26768, Note_on_c, 1, 55, 93
3, 26783, Note_on_c, 1, 53, 72
3, 26784, Note_on_c, 1, 55, 0
3, 26805, Note_on_c, 1, 55, 76
3, 26808, Note_on_c, 1, 53, 0
3, 26823, Note_on_c, 1, 53, 72
3, 26828, Note_on_c, 1, 55, 0
3, 26842, Note_on_c, 1, 53, 0
3, 26843, Note_on_c, 1, 52, 68
3, 26860, Note_on_c, 1, 53, 85
3, 26863, Note_on_c, 1, 52, 0
3, 26883, Note_on_c, 1, 53, 0
3, 26885, Note_on_c, 1, 52, 98
3, 27009, Note_on_c, 1, 53, 89
3, 27010, Note_on_c, 1, 52, 0
3, 27129, Note_on_c, 1, 55, 93
3, 27132, Note_on_c, 1, 53, 0
3, 27253, Note_on_c, 1, 55, 0
3, 27256, Note_on_c, 1, 43, 80
3, 27374, Note_on_c, 1, 48, 85
3, 27375, Note_on_c, 1, 43, 0
3, 27467, Note_on_c, 1, 48, 0
3, 27719, Note_on_c, 1, 72, 72
3, 27719, Note_on_c, 1, 75, 66
3, 27839, Note_on_c, 1, 75, 0
3, 27839, Note_on_c, 1, 72, 0
3, 27841, Note_on_c, 1, 74, 91
3, 27841, Note_on_c, 1, 71, 56
3, 27955, Note_on_c, 1, 71, 0
3, 27960, Note_on_c, 1, 72, 91
3, 27960, Note_on_c, 1, 69, 81
3, 27961, Note_on_c, 1, 74, 0
3, 28080, Note_on_c, 1, 69, 0
3, 28081, Note_on_c, 1, 72, 0
3, 28081, Note_on_c, 1, 70, 76
3, 28081, Note_on_c, 1, 67, 61
3, 28196, Note_on_c, 1, 67, 0
3, 28201, Note_on_c, 1, 65, 52
3, 28201, Note_on_c, 1, 69, 55
3, 28206, Note_on_c, 1, 70, 0
3, 28318, Note_on_c, 1, 69, 0
3, 28319, Note_on_c, 1, 65, 0
3, 28322, Note_on_c, 1, 67, 76
3, 28323, Note_on_c, 1, 64, 72
3, 28411, Note_on_c, 1, 67, 0
3, 28412, Note_on_c, 1, 64, 0
3, 28438, Note_on_c, 1, 63, 72
3, 28480, Note_on_c, 1, 62, 80
3, 28486, Note_on_c, 1, 63, 0
3, 28521, Note_on_c, 1, 62, 0
3, 28521, Note_on_c, 1, 60, 80
3, 28559, Note_on_c, 1, 58, 48
3, 28562, Note_on_c, 1, 60, 0
3, 28599, Note_on_c, 1, 56, 62
3, 28609, Note_on_c, 1, 58, 0
3, 28638, Note_on_c, 1, 55, 72
3, 28642, Note_on_c, 1, 56, 0
3, 28679, Note_on_c, 1, 54, 56
3, 28681, Note_on_c, 1, 55, 0
3, 28719, Note_on_c, 1, 57, 72
3, 28723, Note_on_c, 1, 54, 0
3, 28759, Note_on_c, 1, 54, 72
3, 28762, Note_on_c, 1, 57, 0
3, 28799, Note_on_c, 1, 57, 80
3, 28802, Note_on_c, 1, 54, 0
3, 28839, Note_on_c, 1, 55, 62
3, 28844, Note_on_c, 1, 57, 0
3, 28881, Note_on_c, 1, 52, 76
3, 28882, Note_on_c, 1, 55, 0
3, 28921, Note_on_c, 1, 55, 76
3, 28925, Note_on_c, 1, 52, 0
3, 28961, Note_on_c, 1, 53, 72
3, 28966, Note_on_c, 1, 55, 0
3, 29001, Note_on_c, 1, 50, 76
3, 29003, Note_on_c, 1, 53, 0
3, 29040, Note_on_c, 1, 53, 62
3, 29043, Note_on_c, 1, 50, 0
3, 29081, Note_on_c, 1, 52, 72
3, 29090, Note_on_c, 1, 53, 0
3, 29121, Note_on_c, 1, 48, 62
3, 29123, Note_on_c, 1, 52, 0
3, 29161, Note_on_c, 1, 52, 76
3, 29166, Note_on_c, 1, 48, 0
3, 29200, Note_on_c, 1, 50, 62
3, 29204, Note_on_c, 1, 52, 0
3, 29240, Note_on_c, 1, 47, 72
3, 29241, Note_on_c, 1, 50, 0
3, 29280, Note_on_c, 1, 47, 0
3, 29281, Note_on_c, 1, 48, 89
3, 29388, Note_on_c, 1, 48, 0
3, 29641, Note_on_c, 1, 52, 72
3, 29641, Note_on_c, 1, 60, 76
3, 29743, Note_on_c, 1, 52, 0
3, 29746, Note_on_c, 1, 60, 0
3, 29761, Note_on_c, 1, 53, 68
3, 29762, Note_on_c, 1, 60, 62
3, 29831, Note_on_c, 1, 53, 0
3, 29837, Note_on_c, 1, 60, 0
3, 29882, Note_on_c, 1, 69, 89
3, 29922, Note_on_c, 1, 67, 64
3, 29924, Note_on_c, 1, 69, 0
3, 29962, Note_on_c, 1, 65, 72
3, 29972, Note_on_c, 1, 67, 0
3, 30002, Note_on_c, 1, 64, 76
3, 30010, Note_on_c, 1, 65, 0
3, 30041, Note_on_c, 1, 64, 0
3, 30041, Note_on_c, 1, 62, 68
3, 30081, Note_on_c, 1, 61, 68
3, 30083, Note_on_c, 1, 62, 0
3, 30114, Note_on_c, 1, 61, 0
3, 30120, Note_on_c, 1, 62, 76
3, 30161, Note_on_c, 1, 60, 68
3, 30169, Note_on_c, 1, 62, 0
3, 30199, Note_on_c, 1, 58, 62
3, 30202, Note_on_c, 1, 60, 0
3, 30239, Note_on_c, 1, 58, 0
3, 30239, Note_on_c, 1, 59, 62
3, 30357, Note_on_c, 1, 59, 0
3, 30602, Note_on_c, 1, 60, 72
3, 30602, Note_on_c, 1, 62, 72
3, 30722, Note_on_c, 1, 59, 68
3, 30723, Note_on_c, 1, 60, 0
3, 30817, Note_on_c, 1, 59, 0
3, 30820, Note_on_c, 1, 62, 0
3, 31082, Note_on_c, 1, 60, 76
3, 31082, Note_on_c, 1, 57, 68
3, 31083, Note_on_c, 1, 62, 72
3, 31191, Note_on_c, 1, 57, 0
3, 31194, Note_on_c, 1, 60, 0
3, 31199, Note_on_c, 1, 62, 0
3, 31200, Note_on_c, 1, 55, 76
3, 31200, Note_on_c, 1, 59, 89
3, 31200, Note_on_c, 1, 62, 72
3, 31293, Note_on_c, 1, 55, 0
3, 31307, Note_on_c, 1, 59, 0
3, 31323, Note_on_c, 1, 60, 89
3, 31323, Note_on_c, 1, 57, 62
3, 31409, Note_on_c, 1, 62, 0
3, 31413, Note_on_c, 1, 57, 0
3, 31419, Note_on_c, 1, 60, 0
3, 31442, Note_on_c, 1, 62, 72
3, 31442, Note_on_c, 1, 55, 57
3, 31442, Note_on_c, 1, 59, 72
3, 31538, Note_on_c, 1, 55, 0
3, 31546, Note_on_c, 1, 59, 0
3, 31561, Note_on_c, 1, 60, 76
3, 31562, Note_on_c, 1, 57, 55
3, 31659, Note_on_c, 1, 57, 0
3, 31662, Note_on_c, 1, 60, 0
3, 31662, Note_on_c, 1, 62, 0
3, 31681, Note_on_c, 1, 62, 72
3, 31681, Note_on_c, 1, 55, 62
3, 31681, Note_on_c, 1, 59, 85
3, 31770, Note_on_c, 1, 59, 0
3, 31772, Note_on_c, 1, 55, 0
3, 31776, Note_on_c, 1, 62, 0
3, 31799, Note_on_c, 1, 43, 80
3, 31848, Note_on_c, 1, 43, 0
3, 31921, Note_on_c, 1, 45, 93
3, 31951, Note_on_c, 1, 45, 0
3, 32041, Note_on_c, 1, 47, 93
3, 32072, Note_on_c, 1, 47, 0
3, 32162, Note_on_c, 1, 48, 89
3, 32193, Note_on_c, 1, 48, 0
3, 32281, Note_on_c, 1, 52, 93
3, 32311, Note_on_c, 1, 52, 0
3, 32401, Note_on_c, 1, 53, 89
3, 32427, Note_on_c, 1, 53, 0
3, 32522, Note_on_c, 1, 56, 80
3, 32546, Note_on_c, 1, 56, 0
3, 32641, Note_on_c, 1, 57, 80
3, 32695, Note_on_c, 1, 57, 0
3, 32698, Note_on_c, 1, 60, 76
3, 32758, Note_on_c, 1, 59, 72
3, 32767, Note_on_c, 1, 60, 0
3, 32818, Note_on_c, 1, 57, 72
3, 32820, Note_on_c, 1, 59, 0
3, 32878, Note_on_c, 1, 59, 72
3, 32883, Note_on_c, 1, 57, 0
3, 32938, Note_on_c, 1, 60, 76
3, 32943, Note_on_c, 1, 59, 0
3, 32999, Note_on_c, 1, 57, 80
3, 33003, Note_on_c, 1, 60, 0
3, 33057, Note_on_c, 1, 57, 0
3, 33058, Note_on_c, 1, 59, 68
3, 33118, Note_on_c, 1, 60, 80
3, 33120, Note_on_c, 1, 59, 0
3, 33151, Note_on_c, 1, 60, 0
3, 33241, Note_on_c, 1, 57, 93
3, 33260, Note_on_c, 1, 57, 0
3, 33360, Note_on_c, 1, 52, 93
3, 33381, Note_on_c, 1, 52, 0
3, 33481, Note_on_c, 1, 55, 85
3, 33498, Note_on_c, 1, 55, 0
3, 33508, Note_on_c, 1, 54, 56
3, 33513, Note_on_c, 1, 55, 64
3, 33530, Note_on_c, 1, 54, 0
3, 33536, Note_on_c, 1, 55, 0
3, 33539, Note_on_c, 1, 54, 76
3, 33560, Note_on_c, 1, 54, 0
3, 33568, Note_on_c, 1, 52, 64
3, 33572, Note_on_c, 1, 54, 60
3, 33591, Note_on_c, 1, 54, 0
3, 33591, Note_on_c, 1, 52, 0
3, 33599, Note_on_c, 1, 55, 85
3, 33719, Note_on_c, 1, 64, 89
3, 33843, Note_on_c, 1, 65, 64
3, 33851, Note_on_c, 1, 64, 0
3, 33961, Note_on_c, 1, 65, 0
3, 33961, Note_on_c, 1, 62, 64
3, 34082, Note_on_c, 1, 64, 72
3, 34085, Note_on_c, 1, 62, 0
3, 34202, Note_on_c, 1, 64, 0
3, 34202, Note_on_c, 1, 61, 60
3, 34320, Note_on_c, 1, 61, 0
3, 34322, Note_on_c, 1, 62, 64
3, 34441, Note_on_c, 1, 64, 68
3, 34445, Note_on_c, 1, 62, 0
3, 34536, Note_on_c, 1, 64, 0
3, 34536, Note_on_c, 1, 55, 0
3, 34560, Note_on_c, 1, 55, 60
3, 34560, Note_on_c, 1, 65, 60
3, 35099, Note_on_c, 1, 62, 80
3, 35105, Note_on_c, 1, 65, 0
3, 35159, Note_on_c, 1, 64, 80
3, 35164, Note_on_c, 1, 62, 0
3, 35219, Note_on_c, 1, 64, 0
3, 35219, Note_on_c, 1, 65, 68
3, 35279, Note_on_c, 1, 64, 76
3, 35287, Note_on_c, 1, 65, 0
3, 35341, Note_on_c, 1, 60, 72
3, 35344, Note_on_c, 1, 64, 0
3, 35401, Note_on_c, 1, 66, 62
3, 35406, Note_on_c, 1, 60, 0
3, 35461, Note_on_c, 1, 62, 76
3, 35466, Note_on_c, 1, 66, 0
3, 35505, Note_on_c, 1, 55, 0
3, 35520, Note_on_c, 1, 62, 0
3, 35522, Note_on_c, 1, 55, 64
3, 35522, Note_on_c, 1, 67, 80
3, 35701, Note_on_c, 1, 64, 72
3, 35703, Note_on_c, 1, 67, 0
3, 35760, Note_on_c, 1, 64, 0
3, 35760, Note_on_c, 1, 65, 80
3, 35939, Note_on_c, 1, 63, 68
3, 35947, Note_on_c, 1, 65, 0
3, 36001, Note_on_c, 1, 64, 68
3, 36003, Note_on_c, 1, 63, 0
3, 36181, Note_on_c, 1, 61, 64
3, 36200, Note_on_c, 1, 64, 0
3, 36238, Note_on_c, 1, 61, 0
3, 36240, Note_on_c, 1, 62, 76
3, 36416, Note_on_c, 1, 55, 0
3, 36418, Note_on_c, 1, 56, 62
3, 36476, Note_on_c, 1, 56, 0
3, 36478, Note_on_c, 1, 57, 76
3, 37201, Note_on_c, 1, 61, 98
3, 37208, Note_on_c, 1, 62, 0
3, 37437, Note_on_c, 1, 61, 0
3, 37439, Note_on_c, 1, 62, 85
3, 37451, Note_on_c, 1, 57, 0
3, 37564, Note_on_c, 1, 62, 0
3, 37799, Note_on_c, 1, 61, 64
3, 37799, Note_on_c, 1, 69, 80
3, 37921, Note_on_c, 1, 62, 72
3, 37930, Note_on_c, 1, 61, 0
3, 38027, Note_on_c, 1, 62, 0
3, 38034, Note_on_c, 1, 69, 0
3, 38279, Note_on_c, 1, 67, 76
3, 38279, Note_on_c, 1, 59, 68
3, 38401, Note_on_c, 1, 60, 72
3, 38406, Note_on_c, 1, 59, 0
3, 38639, Note_on_c, 1, 65, 76
3, 38640, Note_on_c, 1, 53, 55
3, 38645, Note_on_c, 1, 60, 0
3, 38650, Note_on_c, 1, 67, 0
3, 38879, Note_on_c, 1, 64, 68
3, 38880, Note_on_c, 1, 55, 55
3, 38891, Note_on_c, 1, 65, 0
3, 38892, Note_on_c, 1, 53, 0
3, 39121, Note_on_c, 1, 62, 72
3, 39125, Note_on_c, 1, 64, 0
3, 39357, Note_on_c, 1, 62, 0
3, 39359, Note_on_c, 1, 55, 0
3, 39361, Note_on_c, 1, 57, 98
3, 39361, Note_on_c, 1, 60, 93
3, 39361, Note_on_c, 1, 66, 93
3, 39709, Note_on_c, 1, 66, 0
3, 39710, Note_on_c, 1, 60, 0
3, 39710, Note_on_c, 1, 57, 0
3, 39723, Note_on_c, 1, 66, 89
3, 39723, Note_on_c, 1, 57, 89
3, 39723, Note_on_c, 1, 60, 98
3, 39814, Note_on_c, 1, 57, 0
3, 39818, Note_on_c, 1, 60, 0
3, 39819, Note_on_c, 1, 66, 0
3, 39840, Note_on_c, 1, 67, 43
3, 39843, Note_on_c, 1, 64, 39
3, 39843, Note_on_c, 1, 60, 49
3, 39843, Note_on_c, 1, 55, 49
3, 40142, Note_on_c, 1, 67, 0
3, 40154, Note_on_c, 1, 64, 0
3, 40157, Note_on_c, 1, 60, 0
3, 40161, Note_on_c, 1, 55, 0
3, 40201, Note_on_c, 1, 55, 60
3, 40201, Note_on_c, 1, 64, 53
3, 40202, Note_on_c, 1, 60, 52
3, 40282, Note_on_c, 1, 55, 0
3, 40284, Note_on_c, 1, 60, 0
3, 40285, Note_on_c, 1, 64, 0
3, 40321, Note_on_c, 1, 64, 89
3, 40321, Note_on_c, 1, 57, 107
3, 40321, Note_on_c, 1, 60, 98
3, 40321, Note_on_c, 1, 54, 93
3, 40652, Note_on_c, 1, 60, 0
3, 40654, Note_on_c, 1, 54, 0
3, 40654, Note_on_c, 1, 57, 0
3, 40655, Note_on_c, 1, 64, 0
3, 40679, Note_on_c, 1, 54, 72
3, 40679, Note_on_c, 1, 64, 89
3, 40680, Note_on_c, 1, 57, 89
3, 40680, Note_on_c, 1, 60, 89
3, 40784, Note_on_c, 1, 60, 0
3, 40787, Note_on_c, 1, 57, 0
3, 40787, Note_on_c, 1, 64, 0
3, 40795, Note_on_c, 1, 54, 0
3, 40801, Note_on_c, 1, 55, 62
3, 40801, Note_on_c, 1, 64, 56
3, 40802, Note_on_c, 1, 60, 56
3, 41137, Note_on_c, 1, 60, 0
3, 41142, Note_on_c, 1, 64, 0
3, 41143, Note_on_c, 1, 55, 0
3, 41161, Note_on_c, 1, 60, 62
3, 41162, Note_on_c, 1, 64, 72
3, 41162, Note_on_c, 1, 55, 64
3, 41251, Note_on_c, 1, 55, 0
3, 41252, Note_on_c, 1, 64, 0
3, 41252, Note_on_c, 1, 60, 0
3, 41279, Note_on_c, 1, 66, 93
3, 41280, Note_on_c, 1, 60, 93
3, 41280, Note_on_c, 1, 63, 98
3, 41280, Note_on_c, 1, 56, 89
3, 41612, Note_on_c, 1, 63, 0
3, 41614, Note_on_c, 1, 66, 0
3, 41615, Note_on_c, 1, 60, 0
3, 41615, Note_on_c, 1, 56, 0
3, 41639, Note_on_c, 1, 66, 72
3, 41639, Note_on_c, 1, 63, 72
3, 41639, Note_on_c, 1, 60, 72
3, 41639, Note_on_c, 1, 56, 76
3, 41734, Note_on_c, 1, 60, 0
3, 41734, Note_on_c, 1, 63, 0
3, 41741, Note_on_c, 1, 56, 0
3, 41743, Note_on_c, 1, 66, 0
3, 41761, Note_on_c, 1, 64, 62
3, 41761, Note_on_c, 1, 60, 64
3, 41761, Note_on_c, 1, 55, 64
3, 41761, Note_on_c, 1, 67, 76
3, 41937, Note_on_c, 1, 67, 0
3, 41937, Note_on_c, 1, 64, 0
3, 41937, Note_on_c, 1, 60, 0
3, 41937, Note_on_c, 1, 55, 0
3, 42238, Note_on_c, 1, 60, 76
3, 42238, Note_on_c, 1, 55, 68
3, 42483, Note_on_c, 1, 59, 70
3, 42509, Note_on_c, 1, 60, 0
3, 42712, Note_on_c, 1, 59, 0
3, 42721, Note_on_c, 1, 48, 49
3, 42721, Note_on_c, 1, 36, 50
3, 42728, Note_on_c, 1, 55, 0
3, 43206, Note_on_c, 1, 36, 0
3, 43206, Note_on_c, 1, 48, 0
3, 43801, Note_on_c, 1, 53, 80
3, 43922, Note_on_c, 1, 55, 80
3, 43927, Note_on_c, 1, 53, 0
3, 44042, Note_on_c, 1, 43, 76
3, 44043, Note_on_c, 1, 55, 0
3, 44162, Note_on_c, 1, 48, 68
3, 44162, Note_on_c, 1, 36, 76
3, 44165, Note_on_c, 1, 43, 0
3, 44636, Note_on_c, 1, 48, 0
3, 44638, Note_on_c, 1, 36, 0
3, 45240, Note_on_c, 1, 53, 76
3, 45362, Note_on_c, 1, 55, 72
3, 45367, Note_on_c, 1, 53, 0
3, 45481, Note_on_c, 1, 43, 72
3, 45482, Note_on_c, 1, 55, 0
3, 45601, Note_on_c, 1, 48, 72
3, 45603, Note_on_c, 1, 43, 0
3, 46197, Note_on_c, 1, 48, 0
3, 46199, Note_on_c, 1, 53, 68
3, 46320, Note_on_c, 1, 55, 72
3, 46321, Note_on_c, 1, 53, 0
3, 46441, Note_on_c, 1, 43, 64
3, 46444, Note_on_c, 1, 55, 0
3, 46561, Note_on_c, 1, 43, 0
3, 46561, Note_on_c, 1, 36, 64
3, 46561, Note_on_c, 1, 48, 59
3, 47157, Note_on_c, 1, 36, 0
3, 47159, Note_on_c, 1, 48, 0
3, 47159, Note_on_c, 1, 41, 76
3, 47282, Note_on_c, 1, 43, 64
3, 47286, Note_on_c, 1, 41, 0
3, 47401, Note_on_c, 1, 31, 68
3, 47403, Note_on_c, 1, 43, 0
3, 47514, Note_on_c, 1, 31, 0
3, 47518, Note_on_c, 1, 36, 89
3, 47562, Note_on_c, 1, 40, 59
3, 47570, Note_on_c, 1, 36, 0
3, 47602, Note_on_c, 1, 43, 62
3, 47605, Note_on_c, 1, 40, 0
3, 47635, Note_on_c, 1, 43, 0
3, 47641, Note_on_c, 1, 48, 80
3, 47681, Note_on_c, 1, 43, 57
3, 47685, Note_on_c, 1, 48, 0
3, 47720, Note_on_c, 1, 43, 0
3, 47721, Note_on_c, 1, 40, 57
3, 47756, Note_on_c, 1, 40, 0
3, 47759, Note_on_c, 1, 36, 85
3, 47799, Note_on_c, 1, 40, 59
3, 47801, Note_on_c, 1, 36, 0
3, 47836, Note_on_c, 1, 40, 0
3, 47839, Note_on_c, 1, 43, 48
3, 47879, Note_on_c, 1, 43, 0
3, 47879, Note_on_c, 1, 48, 80
3, 47920, Note_on_c, 1, 43, 51
3, 47924, Note_on_c, 1, 48, 0
3, 47961, Note_on_c, 1, 40, 62
3, 47963, Note_on_c, 1, 43, 0
3, 48000, Note_on_c, 1, 40, 0
3, 48001, Note_on_c, 1, 36, 76
3, 48041, Note_on_c, 1, 40, 64
3, 48043, Note_on_c, 1, 36, 0
3, 48072, Note_on_c, 1, 40, 0
3, 48080, Note_on_c, 1, 43, 30
3, 48121, Note_on_c, 1, 48, 76
3, 48126, Note_on_c, 1, 43, 0
3, 48160, Note_on_c, 1, 52, 68
3, 48163, Note_on_c, 1, 48, 0
3, 48199, Note_on_c, 1, 55, 68
3, 48200, Note_on_c, 1, 52, 0
3, 48240, Note_on_c, 1, 60, 85
3, 48241, Note_on_c, 1, 55, 0
3, 48281, Note_on_c, 1, 60, 0
3, 48281, Note_on_c, 1, 55, 62
3, 48321, Note_on_c, 1, 52, 68
3, 48323, Note_on_c, 1, 55, 0
3, 48361, Note_on_c, 1, 48, 76
3, 48363, Note_on_c, 1, 52, 0
3, 48401, Note_on_c, 1, 52, 64
3, 48404, Note_on_c, 1, 48, 0
3, 48441, Note_on_c, 1, 52, 0
3, 48441, Note_on_c, 1, 55, 76
3, 48479, Note_on_c, 1, 55, 0
3, 48481, Note_on_c, 1, 48, 89
3, 48520, Note_on_c, 1, 48, 0
3, 48521, Note_on_c, 1, 52, 76
3, 48561, Note_on_c, 1, 52, 0
3, 48561, Note_on_c, 1, 55, 76
3, 48600, Note_on_c, 1, 55, 0
3, 48601, Note_on_c, 1, 60, 80
3, 48640, Note_on_c, 1, 60, 0
3, 48640, Note_on_c, 1, 64, 76
3, 48678, Note_on_c, 1, 64, 0
3, 48680, Note_on_c, 1, 67, 76
3, 48720, Note_on_c, 1, 67, 0
3, 48720, Note_on_c, 1, 72, 85
3, 48761, Note_on_c, 1, 72, 0
3, 48761, Note_on_c, 1, 67, 72
3, 48800, Note_on_c, 1, 64, 72
3, 48804, Note_on_c, 1, 67, 0
3, 48841, Note_on_c, 1, 60, 72
3, 48843, Note_on_c, 1, 64, 0
3, 48881, Note_on_c, 1, 64, 76
3, 48887, Note_on_c, 1, 60, 0
3, 48917, Note_on_c, 1, 64, 0
3, 48921, Note_on_c, 1, 67, 76
3, 48959, Note_on_c, 1, 67, 0
3, 48961, Note_on_c, 1, 72, 89
3, 49030, Note_on_c, 1, 72, 0
3, 49081, Note_on_c, 1, 48, 89
3, 49081, Note_on_c, 1, 60, 89
3, 49204, Note_on_c, 1, 60, 0
3, 49207, Note_on_c, 1, 48, 0
3, 50401, Note_on_c, 1, 36, 59
3, 50440, Note_on_c, 1, 39, 60
3, 50444, Note_on_c, 1, 36, 0
3, 50479, Note_on_c, 1, 39, 0
3, 50480, Note_on_c, 1, 43, 50
3, 50519, Note_on_c, 1, 48, 76
3, 50522, Note_on_c, 1, 43, 0
3, 50561, Note_on_c, 1, 43, 57
3, 50563, Note_on_c, 1, 48, 0
3, 50598, Note_on_c, 1, 43, 0
3, 50599, Note_on_c, 1, 39, 60
3, 50639, Note_on_c, 1, 36, 64
3, 50641, Note_on_c, 1, 39, 0
3, 50680, Note_on_c, 1, 39, 56
3, 50682, Note_on_c, 1, 36, 0
3, 50719, Note_on_c, 1, 39, 0
3, 50719, Note_on_c, 1, 43, 53
3, 50761, Note_on_c, 1, 48, 68
3, 50762, Note_on_c, 1, 43, 0
3, 50801, Note_on_c, 1, 43, 59
3, 50802, Note_on_c, 1, 48, 0
3, 50836, Note_on_c, 1, 43, 0
3, 50839, Note_on_c, 1, 39, 59
3, 50876, Note_on_c, 1, 39, 0
3, 50879, Note_on_c, 1, 36, 68
3, 50919, Note_on_c, 1, 39, 60
3, 50921, Note_on_c, 1, 36, 0
3, 50959, Note_on_c, 1, 43, 68
3, 50963, Note_on_c, 1, 39, 0
3, 51001, Note_on_c, 1, 48, 76
3, 51002, Note_on_c, 1, 43, 0
3, 51039, Note_on_c, 1, 48, 0
3, 51041, Note_on_c, 1, 51, 64
3, 51080, Note_on_c, 1, 51, 0
3, 51080, Note_on_c, 1, 55, 76
3, 51119, Note_on_c, 1, 55, 0
3, 51120, Note_on_c, 1, 60, 80
3, 51160, Note_on_c, 1, 60, 0
3, 51160, Note_on_c, 1, 55, 72
3, 51199, Note_on_c, 1, 51, 62
3, 51204, Note_on_c, 1, 55, 0
3, 51237, Note_on_c, 1, 51, 0
3, 51240, Note_on_c, 1, 48, 72
3, 51279, Note_on_c, 1, 51, 59
3, 51287, Note_on_c, 1, 48, 0
3, 51319, Note_on_c, 1, 55, 76
3, 51320, Note_on_c, 1, 51, 0
3, 51358, Note_on_c, 1, 55, 0
3, 51359, Note_on_c, 1, 48, 89
3, 51399, Note_on_c, 1, 51, 68
3, 51403, Note_on_c, 1, 48, 0
3, 51438, Note_on_c, 1, 51, 0
3, 51439, Note_on_c, 1, 55, 76
3, 51479, Note_on_c, 1, 55, 0
3, 51479, Note_on_c, 1, 60, 89
3, 51519, Note_on_c, 1, 63, 72
3, 51523, Note_on_c, 1, 60, 0
3, 51553, Note_on_c, 1, 63, 0
3, 51559, Note_on_c, 1, 67, 80
3, 51599, Note_on_c, 1, 72, 85
3, 51601, Note_on_c, 1, 67, 0
3, 51638, Note_on_c, 1, 72, 0
3, 51639, Note_on_c, 1, 67, 76
3, 51679, Note_on_c, 1, 63, 59
3, 51682, Note_on_c, 1, 67, 0
3, 51719, Note_on_c, 1, 63, 0
3, 51719, Note_on_c, 1, 60, 76
3, 51759, Note_on_c, 1, 63, 72
3, 51761, Note_on_c, 1, 60, 0
3, 51796, Note_on_c, 1, 63, 0
3, 51798, Note_on_c, 1, 67, 76
3, 51839, Note_on_c, 1, 67, 0
3, 51839, Note_on_c, 1, 72, 93
3, 52090, Note_on_c, 1, 72, 0
3, 52201, Note_on_c, 1, 60, 93
3, 52321, Note_on_c, 1, 62, 89
3, 52323, Note_on_c, 1, 60, 0
3, 52563, Note_on_c, 1, 62, 0
3, 52680, Note_on_c, 1, 50, 85
3, 52800, Note_on_c, 1, 50, 0
3, 52801, Note_on_c, 1, 48, 76
3, 52855, Note_on_c, 1, 48, 0
3, 52861, Note_on_c, 1, 46, 85
3, 52916, Note_on_c, 1, 46, 0
3, 52919, Note_on_c, 1, 45, 59
3, 52979, Note_on_c, 1, 43, 72
3, 52982, Note_on_c, 1, 45, 0
3, 53039, Note_on_c, 1, 43, 0
3, 53039, Note_on_c, 1, 46, 62
3, 53095, Note_on_c, 1, 46, 0
3, 53099, Note_on_c, 1, 45, 60
3, 53159, Note_on_c, 1, 45, 0
3, 53159, Note_on_c, 1, 48, 62
3, 53219, Note_on_c, 1, 42, 56
3, 53221, Note_on_c, 1, 48, 0
3, 53280, Note_on_c, 1, 42, 0
3, 53280, Note_on_c, 1, 43, 51
3, 53401, Note_on_c, 1, 38, 72
3, 53406, Note_on_c, 1, 43, 0
3, 53526, Note_on_c, 1, 38, 0
3, 53642, Note_on_c, 1, 46, 62
3, 53642, Note_on_c, 1, 50, 60
3, 53671, Note_on_c, 1, 50, 0
3, 53671, Note_on_c, 1, 46, 0
3, 53762, Note_on_c, 1, 48, 52
3, 53762, Note_on_c, 1, 45, 62
3, 53880, Note_on_c, 1, 45, 0
3, 53881, Note_on_c, 1, 46, 55
3, 53881, Note_on_c, 1, 43, 50
3, 53884, Note_on_c, 1, 48, 0
3, 53995, Note_on_c, 1, 43, 0
3, 54000, Note_on_c, 1, 46, 0
3, 54121, Note_on_c, 1, 58, 72
3, 54121, Note_on_c, 1, 50, 76
3, 54241, Note_on_c, 1, 58, 0
3, 54241, Note_on_c, 1, 48, 64
3, 54241, Note_on_c, 1, 57, 89
3, 54242, Note_on_c, 1, 50, 0
3, 54357, Note_on_c, 1, 57, 0
3, 54358, Note_on_c, 1, 48, 0
3, 54359, Note_on_c, 1, 55, 80
3, 54359, Note_on_c, 1, 46, 85
3, 54485, Note_on_c, 1, 46, 0
3, 54487, Note_on_c, 1, 55, 0
3, 54599, Note_on_c, 1, 62, 93
3, 54719, Note_on_c, 1, 62, 0
3, 54719, Note_on_c, 1, 70, 85
3, 54761, Note_on_c, 1, 72, 72
3, 54762, Note_on_c, 1, 70, 0
3, 54801, Note_on_c, 1, 70, 68
3, 54805, Note_on_c, 1, 72, 0
3, 54841, Note_on_c, 1, 69, 93
3, 54844, Note_on_c, 1, 70, 0
3, 54881, Note_on_c, 1, 69, 0
3, 54881, Note_on_c, 1, 67, 80
3, 54921, Note_on_c, 1, 66, 72
3, 54928, Note_on_c, 1, 67, 0
3, 54961, Note_on_c, 1, 66, 0
3, 54962, Note_on_c, 1, 67, 76
3, 55002, Note_on_c, 1, 67, 0
3, 55002, Note_on_c, 1, 69, 85
3, 55041, Note_on_c, 1, 69, 0
3, 55042, Note_on_c, 1, 67, 76
3, 55082, Note_on_c, 1, 65, 85
3, 55084, Note_on_c, 1, 67, 0
3, 55122, Note_on_c, 1, 64, 76
3, 55124, Note_on_c, 1, 65, 0
3, 55157, Note_on_c, 1, 64, 0
3, 55161, Note_on_c, 1, 62, 68
3, 55202, Note_on_c, 1, 61, 76
3, 55207, Note_on_c, 1, 62, 0
3, 55242, Note_on_c, 1, 62, 85
3, 55245, Note_on_c, 1, 61, 0
3, 55281, Note_on_c, 1, 64, 76
3, 55282, Note_on_c, 1, 62, 0
3, 55322, Note_on_c, 1, 62, 76
3, 55323, Note_on_c, 1, 64, 0
3, 55358, Note_on_c, 1, 62, 0
3, 55361, Note_on_c, 1, 61, 64
3, 55400, Note_on_c, 1, 58, 72
3, 55404, Note_on_c, 1, 61, 0
3, 55439, Note_on_c, 1, 58, 0
3, 55439, Note_on_c, 1, 57, 89
3, 55479, Note_on_c, 1, 57, 0
3, 55479, Note_on_c, 1, 55, 72
3, 55520, Note_on_c, 1, 53, 85
3, 55522, Note_on_c, 1, 55, 0
3, 55559, Note_on_c, 1, 52, 76
3, 55564, Note_on_c, 1, 53, 0
3, 55599, Note_on_c, 1, 50, 64
3, 55600, Note_on_c, 1, 52, 0
3, 55633, Note_on_c, 1, 50, 0
3, 55639, Note_on_c, 1, 49, 76
3, 55679, Note_on_c, 1, 50, 80
3, 55682, Note_on_c, 1, 49, 0
3, 55719, Note_on_c, 1, 53, 64
3, 55728, Note_on_c, 1, 50, 0
3, 55759, Note_on_c, 1, 53, 0
3, 55759, Note_on_c, 1, 57, 76
3, 55798, Note_on_c, 1, 57, 0
3, 55799, Note_on_c, 1, 48, 72
3, 55839, Note_on_c, 1, 52, 76
3, 55847, Note_on_c, 1, 48, 0
3, 55879, Note_on_c, 1, 57, 76
3, 55880, Note_on_c, 1, 52, 0
3, 55917, Note_on_c, 1, 57, 0
3, 55919, Note_on_c, 1, 47, 76
3, 55961, Note_on_c, 1, 50, 76
3, 55967, Note_on_c, 1, 47, 0
3, 56001, Note_on_c, 1, 57, 80
3, 56006, Note_on_c, 1, 50, 0
3, 56040, Note_on_c, 1, 57, 0
3, 56041, Note_on_c, 1, 46, 80
3, 56079, Note_on_c, 1, 50, 60
3, 56086, Note_on_c, 1, 46, 0
3, 56119, Note_on_c, 1, 56, 72
3, 56120, Note_on_c, 1, 50, 0
3, 56159, Note_on_c, 1, 45, 80
3, 56161, Note_on_c, 1, 56, 0
3, 56410, Note_on_c, 1, 45, 0
3, 56679, Note_on_c, 1, 50, 76
3, 56719, Note_on_c, 1, 53, 80
3, 56722, Note_on_c, 1, 50, 0
3, 56759, Note_on_c, 1, 57, 80
3, 56760, Note_on_c, 1, 53, 0
3, 56799, Note_on_c, 1, 62, 76
3, 56800, Note_on_c, 1, 57, 0
3, 56838, Note_on_c, 1, 65, 76
3, 56839, Note_on_c, 1, 62, 0
3, 56879, Note_on_c, 1, 69, 89
3, 56882, Note_on_c, 1, 65, 0
3, 56919, Note_on_c, 1, 67, 68
3, 56930, Note_on_c, 1, 69, 0
3, 56959, Note_on_c, 1, 65, 72
3, 56963, Note_on_c, 1, 67, 0
3, 56999, Note_on_c, 1, 64, 76
3, 57002, Note_on_c, 1, 65, 0
3, 57039, Note_on_c, 1, 64, 0
3, 57039, Note_on_c, 1, 65, 72
3, 57076, Note_on_c, 1, 65, 0
3, 57078, Note_on_c, 1, 62, 80
3, 57119, Note_on_c, 1, 57, 80
3, 57120, Note_on_c, 1, 62, 0
3, 57366, Note_on_c, 1, 57, 0
3, 57639, Note_on_c, 1, 50, 89
3, 57679, Note_on_c, 1, 53, 76
3, 57683, Note_on_c, 1, 50, 0
3, 57721, Note_on_c, 1, 57, 80
3, 57725, Note_on_c, 1, 53, 0
3, 57760, Note_on_c, 1, 62, 80
3, 57764, Note_on_c, 1, 57, 0
3, 57799, Note_on_c, 1, 62, 0
3, 57799, Note_on_c, 1, 65, 76
3, 57840, Note_on_c, 1, 69, 93
3, 57844, Note_on_c, 1, 65, 0
3, 57881, Note_on_c, 1, 67, 76
3, 57890, Note_on_c, 1, 69, 0
3, 57921, Note_on_c, 1, 65, 76
3, 57924, Note_on_c, 1, 67, 0
3, 57961, Note_on_c, 1, 64, 85
3, 57966, Note_on_c, 1, 65, 0
3, 58000, Note_on_c, 1, 64, 0
3, 58001, Note_on_c, 1, 65, 80
3, 58041, Note_on_c, 1, 65, 0
3, 58041, Note_on_c, 1, 62, 80
3, 58081, Note_on_c, 1, 57, 85
3, 58082, Note_on_c, 1, 62, 0
3, 58324, Note_on_c, 1, 57, 0
3, 59039, Note_on_c, 1, 33, 64
3, 59081, Note_on_c, 1, 37, 64
3, 59092, Note_on_c, 1, 33, 0
3, 59121, Note_on_c, 1, 40, 76
3, 59123, Note_on_c, 1, 37, 0
3, 59158, Note_on_c, 1, 40, 0
3, 59159, Note_on_c, 1, 45, 60
3, 59199, Note_on_c, 1, 40, 72
3, 59206, Note_on_c, 1, 45, 0
3, 59239, Note_on_c, 1, 37, 60
3, 59244, Note_on_c, 1, 40, 0
3, 59279, Note_on_c, 1, 37, 0
3, 59279, Note_on_c, 1, 33, 62
3, 59320, Note_on_c, 1, 37, 64
3, 59327, Note_on_c, 1, 33, 0
3, 59361, Note_on_c, 1, 40, 60
3, 59366, Note_on_c, 1, 37, 0
3, 59401, Note_on_c, 1, 45, 68
3, 59403, Note_on_c, 1, 40, 0
3, 59439, Note_on_c, 1, 40, 76
3, 59442, Note_on_c, 1, 45, 0
3, 59479, Note_on_c, 1, 37, 56
3, 59484, Note_on_c, 1, 40, 0
3, 59519, Note_on_c, 1, 33, 68
3, 59521, Note_on_c, 1, 37, 0
3, 59559, Note_on_c, 1, 37, 43
3, 59562, Note_on_c, 1, 33, 0
3, 59599, Note_on_c, 1, 40, 76
3, 59604, Note_on_c, 1, 37, 0
3, 59639, Note_on_c, 1, 45, 64
3, 59647, Note_on_c, 1, 40, 0
3, 59678, Note_on_c, 1, 45, 0
3, 59679, Note_on_c, 1, 49, 72
3, 59718, Note_on_c, 1, 49, 0
3, 59719, Note_on_c, 1, 52, 72
3, 59759, Note_on_c, 1, 57, 72
3, 59761, Note_on_c, 1, 52, 0
3, 59799, Note_on_c, 1, 52, 76
3, 59801, Note_on_c, 1, 57, 0
3, 59841, Note_on_c, 1, 49, 68
3, 59844, Note_on_c, 1, 52, 0
3, 59874, Note_on_c, 1, 49, 0
3, 59880, Note_on_c, 1, 45, 76
3, 59920, Note_on_c, 1, 49, 57
3, 59927, Note_on_c, 1, 45, 0
3, 59961, Note_on_c, 1, 52, 68
3, 59963, Note_on_c, 1, 49, 0
3, 60001, Note_on_c, 1, 45, 89
3, 60002, Note_on_c, 1, 52, 0
3, 60041, Note_on_c, 1, 49, 60
3, 60044, Note_on_c, 1, 45, 0
3, 60081, Note_on_c, 1, 52, 80
3, 60085, Note_on_c, 1, 49, 0
3, 60120, Note_on_c, 1, 52, 0
3, 60121, Note_on_c, 1, 57, 72
3, 60161, Note_on_c, 1, 61, 72
3, 60164, Note_on_c, 1, 57, 0
3, 60195, Note_on_c, 1, 61, 0
3, 60199, Note_on_c, 1, 64, 80
3, 60234, Note_on_c, 1, 64, 0
3, 60239, Note_on_c, 1, 69, 76
3, 60273, Note_on_c, 1, 69, 0
3, 60278, Note_on_c, 1, 64, 59
3, 60318, Note_on_c, 1, 61, 76
3, 60322, Note_on_c, 1, 64, 0
3, 60355, Note_on_c, 1, 61, 0
3, 60359, Note_on_c, 1, 57, 89
3, 60398, Note_on_c, 1, 61, 68
3, 60403, Note_on_c, 1, 57, 0
3, 60439, Note_on_c, 1, 64, 72
3, 60440, Note_on_c, 1, 61, 0
3, 60480, Note_on_c, 1, 69, 98
3, 60482, Note_on_c, 1, 64, 0
3, 60601, Note_on_c, 1, 69, 0
3, 60601, Note_on_c, 1, 45, 72
3, 60601, Note_on_c, 1, 57, 68
3, 60717, Note_on_c, 1, 57, 0
3, 60720, Note_on_c, 1, 45, 0
3, 60838, Note_on_c, 1, 64, 102
3, 60838, Note_on_c, 1, 61, 93
3, 60957, Note_on_c, 1, 64, 0
3, 60958, Note_on_c, 1, 65, 80
3, 60958, Note_on_c, 1, 62, 76
3, 60961, Note_on_c, 1, 61, 0
3, 61079, Note_on_c, 1, 64, 64
3, 61079, Note_on_c, 1, 67, 76
3, 61082, Note_on_c, 1, 65, 0
3, 61086, Note_on_c, 1, 62, 0
3, 61091, Note_on_c, 1, 64, 0
3, 61093, Note_on_c, 1, 67, 0
3, 61199, Note_on_c, 1, 69, 64
3, 61199, Note_on_c, 1, 65, 56
3, 61211, Note_on_c, 1, 69, 0
3, 61212, Note_on_c, 1, 65, 0
3, 61319, Note_on_c, 1, 70, 59
3, 61320, Note_on_c, 1, 67, 57
3, 61332, Note_on_c, 1, 70, 0
3, 61333, Note_on_c, 1, 67, 0
3, 61439, Note_on_c, 1, 69, 68
3, 61439, Note_on_c, 1, 65, 62
3, 61520, Note_on_c, 1, 65, 0
3, 61526, Note_on_c, 1, 69, 0
3, 61561, Note_on_c, 1, 50, 80
3, 61681, Note_on_c, 1, 62, 93
3, 61685, Note_on_c, 1, 50, 0
3, 61959, Note_on_c, 1, 63, 55
3, 61960, Note_on_c, 1, 62, 0
3, 61997, Note_on_c, 1, 63, 0
3, 61998, Note_on_c, 1, 62, 62
3, 62038, Note_on_c, 1, 62, 0
3, 62038, Note_on_c, 1, 60, 62
3, 62077, Note_on_c, 1, 60, 0
3, 62078, Note_on_c, 1, 62, 57
3, 62118, Note_on_c, 1, 60, 64
3, 62122, Note_on_c, 1, 62, 0
3, 62159, Note_on_c, 1, 58, 59
3, 62161, Note_on_c, 1, 60, 0
3, 62199, Note_on_c, 1, 60, 56
3, 62200, Note_on_c, 1, 58, 0
3, 62239, Note_on_c, 1, 58, 59
3, 62246, Note_on_c, 1, 60, 0
3, 62278, Note_on_c, 1, 58, 0
3, 62279, Note_on_c, 1, 57, 72
3, 62321, Note_on_c, 1, 58, 59
3, 62324, Note_on_c, 1, 57, 0
3, 62353, Note_on_c, 1, 58, 0
3, 62359, Note_on_c, 1, 57, 72
3, 62401, Note_on_c, 1, 57, 0
3, 62401, Note_on_c, 1, 55, 62
3, 62490, Note_on_c, 1, 55, 0
3, 62759, Note_on_c, 1, 59, 98
3, 62759, Note_on_c, 1, 62, 102
3, 62882, Note_on_c, 1, 64, 93
3, 62882, Note_on_c, 1, 60, 89
3, 62894, Note_on_c, 1, 59, 0
3, 62895, Note_on_c, 1, 62, 0
3, 62958, Note_on_c, 1, 60, 0
3, 63002, Note_on_c, 1, 64, 0
3, 63002, Note_on_c, 1, 62, 56
3, 63002, Note_on_c, 1, 65, 62
3, 63019, Note_on_c, 1, 65, 0
3, 63029, Note_on_c, 1, 62, 0
3, 63121, Note_on_c, 1, 64, 57
3, 63121, Note_on_c, 1, 67, 72
3, 63140, Note_on_c, 1, 67, 0
3, 63140, Note_on_c, 1, 64, 0
3, 63240, Note_on_c, 1, 65, 62
3, 63241, Note_on_c, 1, 69, 76
3, 63259, Note_on_c, 1, 69, 0
3, 63259, Note_on_c, 1, 65, 0
3, 63361, Note_on_c, 1, 67, 72
3, 63361, Note_on_c, 1, 64, 57
3, 63454, Note_on_c, 1, 64, 0
3, 63466, Note_on_c, 1, 67, 0
3, 63481, Note_on_c, 1, 48, 93
3, 63594, Note_on_c, 1, 48, 0
3, 63601, Note_on_c, 1, 60, 89
3, 63880, Note_on_c, 1, 62, 62
3, 63884, Note_on_c, 1, 60, 0
3, 63918, Note_on_c, 1, 62, 0
3, 63919, Note_on_c, 1, 60, 55
3, 63959, Note_on_c, 1, 58, 57
3, 63964, Note_on_c, 1, 60, 0
3, 63997, Note_on_c, 1, 58, 0
3, 63999, Note_on_c, 1, 60, 57
3, 64038, Note_on_c, 1, 58, 62
3, 64043, Note_on_c, 1, 60, 0
3, 64074, Note_on_c, 1, 58, 0
3, 64078, Note_on_c, 1, 57, 62
3, 64119, Note_on_c, 1, 58, 57
3, 64123, Note_on_c, 1, 57, 0
3, 64157, Note_on_c, 1, 58, 0
3, 64158, Note_on_c, 1, 57, 60
3, 64195, Note_on_c, 1, 57, 0
3, 64198, Note_on_c, 1, 55, 55
3, 64236, Note_on_c, 1, 55, 0
3, 64238, Note_on_c, 1, 57, 62
3, 64278, Note_on_c, 1, 57, 0
3, 64278, Note_on_c, 1, 55, 55
3, 64319, Note_on_c, 1, 53, 56
3, 64323, Note_on_c, 1, 55, 0
3, 64418, Note_on_c, 1, 53, 0
3, 64682, Note_on_c, 1, 46, 106
3, 64803, Note_on_c, 1, 58, 86
3, 64805, Note_on_c, 1, 46, 0
3, 65071, Note_on_c, 1, 58, 0
3, 65079, Note_on_c, 1, 60, 76
3, 65119, Note_on_c, 1, 58, 67
3, 65130, Note_on_c, 1, 60, 0
3, 65161, Note_on_c, 1, 57, 74
3, 65164, Note_on_c, 1, 58, 0
3, 65201, Note_on_c, 1, 58, 70
3, 65204, Note_on_c, 1, 57, 0
3, 65240, Note_on_c, 1, 58, 0
3, 65241, Note_on_c, 1, 57, 74
3, 65279, Note_on_c, 1, 57, 0
3, 65281, Note_on_c, 1, 55, 76
3, 65319, Note_on_c, 1, 55, 0
3, 65320, Note_on_c, 1, 57, 72
3, 65361, Note_on_c, 1, 55, 72
3, 65366, Note_on_c, 1, 57, 0
3, 65401, Note_on_c, 1, 55, 0
3, 65401, Note_on_c, 1, 53, 76
3, 65437, Note_on_c, 1, 53, 0
3, 65439, Note_on_c, 1, 55, 74
3, 65479, Note_on_c, 1, 53, 72
3, 65482, Note_on_c, 1, 55, 0
3, 65519, Note_on_c, 1, 52, 76
3, 65521, Note_on_c, 1, 53, 0
3, 65639, Note_on_c, 1, 48, 96
3, 65641, Note_on_c, 1, 52, 0
3, 65761, Note_on_c, 1, 70, 89
3, 65766, Note_on_c, 1, 48, 0
3, 66036, Note_on_c, 1, 70, 0
3, 66039, Note_on_c, 1, 72, 89
3, 66079, Note_on_c, 1, 70, 76
3, 66086, Note_on_c, 1, 72, 0
3, 66119, Note_on_c, 1, 69, 85
3, 66124, Note_on_c, 1, 70, 0
3, 66159, Note_on_c, 1, 70, 62
3, 66163, Note_on_c, 1, 69, 0
3, 66200, Note_on_c, 1, 69, 72
3, 66203, Note_on_c, 1, 70, 0
3, 66241, Note_on_c, 1, 67, 72
3, 66242, Note_on_c, 1, 69, 0
3, 66281, Note_on_c, 1, 69, 76
3, 66287, Note_on_c, 1, 67, 0
3, 66320, Note_on_c, 1, 69, 0
3, 66321, Note_on_c, 1, 67, 51
3, 66361, Note_on_c, 1, 67, 0
3, 66361, Note_on_c, 1, 65, 89
3, 66399, Note_on_c, 1, 67, 51
3, 66401, Note_on_c, 1, 65, 0
3, 66440, Note_on_c, 1, 65, 62
3, 66445, Note_on_c, 1, 67, 0
3, 66481, Note_on_c, 1, 64, 85
3, 66482, Note_on_c, 1, 65, 0
3, 66521, Note_on_c, 1, 65, 60
3, 66531, Note_on_c, 1, 64, 0
3, 66557, Note_on_c, 1, 65, 0
3, 66560, Note_on_c, 1, 64, 62
3, 66599, Note_on_c, 1, 64, 0
3, 66601, Note_on_c, 1, 62, 80
3, 66641, Note_on_c, 1, 64, 60
3, 66643, Note_on_c, 1, 62, 0
3, 66680, Note_on_c, 1, 62, 68
3, 66683, Note_on_c, 1, 64, 0
3, 66721, Note_on_c, 1, 64, 68
3, 66721, Note_on_c, 1, 60, 72
3, 66722, Note_on_c, 1, 62, 0
3, 66841, Note_on_c, 1, 65, 89
3, 66847, Note_on_c, 1, 64, 0
3, 66961, Note_on_c, 1, 67, 85
3, 66964, Note_on_c, 1, 65, 0
3, 67081, Note_on_c, 1, 69, 85
3, 67084, Note_on_c, 1, 67, 0
3, 67191, Note_on_c, 1, 60, 0
3, 67200, Note_on_c, 1, 69, 0
3, 67200, Note_on_c, 1, 70, 85
3, 67201, Note_on_c, 1, 60, 64
3, 67322, Note_on_c, 1, 69, 85
3, 67331, Note_on_c, 1, 70, 0
3, 67441, Note_on_c, 1, 67, 76
3, 67443, Note_on_c, 1, 69, 0
3, 67561, Note_on_c, 1, 65, 64
3, 67563, Note_on_c, 1, 67, 0
3, 67673, Note_on_c, 1, 65, 0
3, 67673, Note_on_c, 1, 60, 0
3, 67681, Note_on_c, 1, 60, 72
3, 67681, Note_on_c, 1, 64, 76
3, 67918, Note_on_c, 1, 64, 0
3, 67921, Note_on_c, 1, 60, 0
3, 68639, Note_on_c, 1, 36, 68
3, 68679, Note_on_c, 1, 40, 51
3, 68688, Note_on_c, 1, 36, 0
3, 68719, Note_on_c, 1, 43, 68
3, 68722, Note_on_c, 1, 40, 0
3, 68759, Note_on_c, 1, 46, 62
3, 68760, Note_on_c, 1, 43, 0
3, 68799, Note_on_c, 1, 43, 60
3, 68801, Note_on_c, 1, 46, 0
3, 68837, Note_on_c, 1, 43, 0
3, 68838, Note_on_c, 1, 40, 57
3, 68879, Note_on_c, 1, 36, 72
3, 68883, Note_on_c, 1, 40, 0
3, 68919, Note_on_c, 1, 40, 64
3, 68926, Note_on_c, 1, 36, 0
3, 68961, Note_on_c, 1, 43, 60
3, 68963, Note_on_c, 1, 40, 0
3, 68999, Note_on_c, 1, 43, 0
3, 68999, Note_on_c, 1, 46, 64
3, 69039, Note_on_c, 1, 43, 64
3, 69042, Note_on_c, 1, 46, 0
3, 69079, Note_on_c, 1, 40, 76
3, 69081, Note_on_c, 1, 43, 0
3, 69119, Note_on_c, 1, 40, 0
3, 69119, Note_on_c, 1, 36, 68
3, 69159, Note_on_c, 1, 40, 72
3, 69162, Note_on_c, 1, 36, 0
3, 69196, Note_on_c, 1, 40, 0
3, 69198, Note_on_c, 1, 43, 57
3, 69238, Note_on_c, 1, 48, 72
3, 69241, Note_on_c, 1, 43, 0
3, 69279, Note_on_c, 1, 52, 64
3, 69285, Note_on_c, 1, 48, 0
3, 69318, Note_on_c, 1, 55, 80
3, 69320, Note_on_c, 1, 52, 0
3, 69359, Note_on_c, 1, 58, 85
3, 69360, Note_on_c, 1, 55, 0
3, 69399, Note_on_c, 1, 55, 80
3, 69401, Note_on_c, 1, 58, 0
3, 69439, Note_on_c, 1, 52, 72
3, 69448, Note_on_c, 1, 55, 0
3, 69479, Note_on_c, 1, 48, 68
3, 69481, Note_on_c, 1, 52, 0
3, 69521, Note_on_c, 1, 52, 72
3, 69526, Note_on_c, 1, 48, 0
3, 69557, Note_on_c, 1, 52, 0
3, 69559, Note_on_c, 1, 55, 62
3, 69597, Note_on_c, 1, 55, 0
3, 69599, Note_on_c, 1, 48, 89
3, 69640, Note_on_c, 1, 52, 72
3, 69642, Note_on_c, 1, 48, 0
3, 69681, Note_on_c, 1, 52, 0
3, 69681, Note_on_c, 1, 55, 80
3, 69721, Note_on_c, 1, 60, 76
3, 69723, Note_on_c, 1, 55, 0
3, 69761, Note_on_c, 1, 64, 72
3, 69766, Note_on_c, 1, 60, 0
3, 69797, Note_on_c, 1, 64, 0
3, 69800, Note_on_c, 1, 67, 72
3, 69839, Note_on_c, 1, 67, 0
3, 69839, Note_on_c, 1, 70, 85
3, 69879, Note_on_c, 1, 67, 80
3, 69881, Note_on_c, 1, 70, 0
3, 69919, Note_on_c, 1, 64, 76
3, 69921, Note_on_c, 1, 67, 0
3, 69959, Note_on_c, 1, 60, 62
3, 69961, Note_on_c, 1, 64, 0
3, 69999, Note_on_c, 1, 64, 76
3, 70006, Note_on_c, 1, 60, 0
3, 70040, Note_on_c, 1, 64, 0
3, 70040, Note_on_c, 1, 67, 85
3, 70080, Note_on_c, 1, 67, 0
3, 70081, Note_on_c, 1, 70, 89
3, 70197, Note_on_c, 1, 70, 0
3, 70201, Note_on_c, 1, 48, 76
3, 70320, Note_on_c, 1, 48, 0
3, 71999, Note_on_c, 1, 53, 55
3, 71999, Note_on_c, 1, 57, 60
3, 72054, Note_on_c, 1, 57, 0
3, 72058, Note_on_c, 1, 60, 64
3, 72113, Note_on_c, 1, 60, 0
3, 72117, Note_on_c, 1, 57, 64
3, 72178, Note_on_c, 1, 60, 57
3, 72179, Note_on_c, 1, 57, 0
3, 72239, Note_on_c, 1, 57, 68
3, 72241, Note_on_c, 1, 60, 0
3, 72299, Note_on_c, 1, 57, 0
3, 72299, Note_on_c, 1, 60, 51
3, 72361, Note_on_c, 1, 57, 72
3, 72365, Note_on_c, 1, 60, 0
3, 72418, Note_on_c, 1, 57, 0
3, 72420, Note_on_c, 1, 60, 64
3, 72457, Note_on_c, 1, 53, 0
3, 72480, Note_on_c, 1, 60, 0
3, 72481, Note_on_c, 1, 53, 56
3, 72481, Note_on_c, 1, 58, 57
3, 72538, Note_on_c, 1, 58, 0
3, 72540, Note_on_c, 1, 60, 76
3, 72594, Note_on_c, 1, 60, 0
3, 72598, Note_on_c, 1, 58, 57
3, 72656, Note_on_c, 1, 58, 0
3, 72658, Note_on_c, 1, 60, 62
3, 72718, Note_on_c, 1, 58, 56
3, 72720, Note_on_c, 1, 60, 0
3, 72779, Note_on_c, 1, 60, 51
3, 72785, Note_on_c, 1, 58, 0
3, 72839, Note_on_c, 1, 58, 57
3, 72843, Note_on_c, 1, 60, 0
3, 72895, Note_on_c, 1, 58, 0
3, 72899, Note_on_c, 1, 60, 62
3, 72919, Note_on_c, 1, 53, 0
3, 72958, Note_on_c, 1, 60, 0
3, 72959, Note_on_c, 1, 53, 51
3, 72959, Note_on_c, 1, 57, 72
3, 73019, Note_on_c, 1, 60, 53
3, 73020, Note_on_c, 1, 57, 0
3, 73073, Note_on_c, 1, 60, 0
3, 73079, Note_on_c, 1, 57, 51
3, 73138, Note_on_c, 1, 57, 0
3, 73139, Note_on_c, 1, 60, 44
3, 73197, Note_on_c, 1, 60, 0
3, 73200, Note_on_c, 1, 57, 43
3, 73257, Note_on_c, 1, 57, 0
3, 73259, Note_on_c, 1, 60, 51
3, 73315, Note_on_c, 1, 60, 0
3, 73319, Note_on_c, 1, 57, 53
3, 73379, Note_on_c, 1, 57, 0
3, 73379, Note_on_c, 1, 60, 59
3, 73415, Note_on_c, 1, 53, 0
3, 73436, Note_on_c, 1, 60, 0
3, 73439, Note_on_c, 1, 58, 57
3, 73439, Note_on_c, 1, 53, 53
3, 73497, Note_on_c, 1, 58, 0
3, 73499, Note_on_c, 1, 60, 57
3, 73559, Note_on_c, 1, 60, 0
3, 73559, Note_on_c, 1, 58, 52
3, 73616, Note_on_c, 1, 58, 0
3, 73619, Note_on_c, 1, 60, 51
3, 73678, Note_on_c, 1, 60, 0
3, 73679, Note_on_c, 1, 58, 57
3, 73739, Note_on_c, 1, 60, 56
3, 73741, Note_on_c, 1, 58, 0
3, 73794, Note_on_c, 1, 60, 0
3, 73800, Note_on_c, 1, 58, 52
3, 73854, Note_on_c, 1, 58, 0
3, 73859, Note_on_c, 1, 60, 62
3, 73878, Note_on_c, 1, 53, 0
3, 73916, Note_on_c, 1, 60, 0
3, 73919, Note_on_c, 1, 57, 76
3, 73919, Note_on_c, 1, 53, 60
3, 74165, Note_on_c, 1, 53, 0
3, 74168, Note_on_c, 1, 57, 0
3, 74281, Note_on_c, 1, 60, 64
3, 74400, Note_on_c, 1, 58, 72
3, 74408, Note_on_c, 1, 60, 0
3, 74461, Note_on_c, 1, 56, 68
3, 74464, Note_on_c, 1, 58, 0
3, 74519, Note_on_c, 1, 56, 0
3, 74520, Note_on_c, 1, 55, 72
3, 74581, Note_on_c, 1, 53, 60
3, 74584, Note_on_c, 1, 55, 0
3, 74639, Note_on_c, 1, 56, 59
3, 74641, Note_on_c, 1, 53, 0
3, 74699, Note_on_c, 1, 56, 0
3, 74701, Note_on_c, 1, 55, 68
3, 74761, Note_on_c, 1, 58, 56
3, 74766, Note_on_c, 1, 55, 0
3, 74819, Note_on_c, 1, 52, 64
3, 74821, Note_on_c, 1, 58, 0
3, 74877, Note_on_c, 1, 52, 0
3, 74880, Note_on_c, 1, 53, 72
3, 74919, Note_on_c, 1, 53, 0
3, 75000, Note_on_c, 1, 48, 76
3, 75043, Note_on_c, 1, 48, 0
3, 75242, Note_on_c, 1, 60, 76
3, 75242, Note_on_c, 1, 63, 80
3, 75357, Note_on_c, 1, 63, 0
3, 75359, Note_on_c, 1, 60, 0
3, 75361, Note_on_c, 1, 61, 76
3, 75361, Note_on_c, 1, 65, 80
3, 75473, Note_on_c, 1, 61, 0
3, 75474, Note_on_c, 1, 65, 0
3, 75721, Note_on_c, 1, 68, 89
3, 75721, Note_on_c, 1, 66, 89
3, 75839, Note_on_c, 1, 66, 0
3, 75840, Note_on_c, 1, 65, 80
3, 75936, Note_on_c, 1, 65, 0
3, 75936, Note_on_c, 1, 68, 0
3, 76078, Note_on_c, 1, 53, 89
3, 76318, Note_on_c, 1, 53, 0
3, 76320, Note_on_c, 1, 51, 89
3, 76380, Note_on_c, 1, 49, 85
3, 76386, Note_on_c, 1, 51, 0
3, 76440, Note_on_c, 1, 49, 0
3, 76440, Note_on_c, 1, 48, 76
3, 76500, Note_on_c, 1, 46, 76
3, 76504, Note_on_c, 1, 48, 0
3, 76557, Note_on_c, 1, 49, 85
3, 76560, Note_on_c, 1, 46, 0
3, 76614, Note_on_c, 1, 49, 0
3, 76617, Note_on_c, 1, 48, 76
3, 76677, Note_on_c, 1, 51, 72
3, 76678, Note_on_c, 1, 48, 0
3, 76738, Note_on_c, 1, 45, 76
3, 76744, Note_on_c, 1, 51, 0
3, 76799, Note_on_c, 1, 48, 80
3, 76806, Note_on_c, 1, 45, 0
3, 76859, Note_on_c, 1, 46, 76
3, 76861, Note_on_c, 1, 48, 0
3, 76921, Note_on_c, 1, 49, 68
3, 76927, Note_on_c, 1, 46, 0
3, 76980, Note_on_c, 1, 43, 64
3, 76982, Note_on_c, 1, 49, 0
3, 77039, Note_on_c, 1, 46, 60
3, 77040, Note_on_c, 1, 43, 0
3, 77099, Note_on_c, 1, 46, 0
3, 77099, Note_on_c, 1, 44, 80
3, 77159, Note_on_c, 1, 48, 68
3, 77161, Note_on_c, 1, 44, 0
3, 77219, Note_on_c, 1, 41, 72
3, 77223, Note_on_c, 1, 48, 0
3, 77279, Note_on_c, 1, 44, 64
3, 77286, Note_on_c, 1, 41, 0
3, 77337, Note_on_c, 1, 44, 0
3, 77339, Note_on_c, 1, 43, 76
3, 77399, Note_on_c, 1, 46, 80
3, 77402, Note_on_c, 1, 43, 0
3, 77459, Note_on_c, 1, 40, 76
3, 77462, Note_on_c, 1, 46, 0
3, 77517, Note_on_c, 1, 40, 0
3, 77519, Note_on_c, 1, 41, 80
3, 77639, Note_on_c, 1, 41, 0
3, 77641, Note_on_c, 1, 56, 85
3, 77761, Note_on_c, 1, 56, 0
3, 77761, Note_on_c, 1, 58, 80
3, 77874, Note_on_c, 1, 58, 0
3, 77879, Note_on_c, 1, 60, 76
3, 77999, Note_on_c, 1, 61, 89
3, 78000, Note_on_c, 1, 60, 0
3, 78119, Note_on_c, 1, 61, 0
3, 78121, Note_on_c, 1, 53, 85
3, 78235, Note_on_c, 1, 53, 0
3, 78239, Note_on_c, 1, 55, 76
3, 78350, Note_on_c, 1, 55, 0
3, 78358, Note_on_c, 1, 57, 89
3, 78478, Note_on_c, 1, 58, 85
3, 78487, Note_on_c, 1, 57, 0
3, 78601, Note_on_c, 1, 63, 89
3, 78601, Note_on_c, 1, 55, 85
3, 78604, Note_on_c, 1, 58, 0
3, 78719, Note_on_c, 1, 56, 76
3, 78721, Note_on_c, 1, 55, 0
3, 78836, Note_on_c, 1, 56, 0
3, 78839, Note_on_c, 1, 53, 80
3, 78839, Note_on_c, 1, 61, 89
3, 78840, Note_on_c, 1, 63, 0
3, 78956, Note_on_c, 1, 53, 0
3, 78958, Note_on_c, 1, 55, 72
3, 79077, Note_on_c, 1, 61, 0
3, 79078, Note_on_c, 1, 60, 85
3, 79078, Note_on_c, 1, 52, 62
3, 79080, Note_on_c, 1, 55, 0
3, 79197, Note_on_c, 1, 53, 85
3, 79198, Note_on_c, 1, 60, 0
3, 79200, Note_on_c, 1, 52, 0
3, 79319, Note_on_c, 1, 56, 76
3, 79319, Note_on_c, 1, 60, 76
3, 79439, Note_on_c, 1, 60, 0
3, 79439, Note_on_c, 1, 51, 80
3, 79442, Note_on_c, 1, 56, 0
3, 79444, Note_on_c, 1, 53, 0
3, 79559, Note_on_c, 1, 56, 72
3, 79559, Note_on_c, 1, 53, 85
3, 79678, Note_on_c, 1, 53, 0
3, 79679, Note_on_c, 1, 49, 76
3, 79680, Note_on_c, 1, 51, 0
3, 79681, Note_on_c, 1, 56, 0
3, 79798, Note_on_c, 1, 53, 93
3, 79798, Note_on_c, 1, 56, 80
3, 79921, Note_on_c, 1, 48, 72
3, 79924, Note_on_c, 1, 49, 0
3, 79936, Note_on_c, 1, 53, 0
3, 79939, Note_on_c, 1, 56, 0
3, 80039, Note_on_c, 1, 53, 98
3, 80039, Note_on_c, 1, 56, 85
3, 80125, Note_on_c, 1, 53, 0
3, 80127, Note_on_c, 1, 56, 0
3, 80135, Note_on_c, 1, 48, 0
3, 80161, Note_on_c, 1, 56, 93
3, 80161, Note_on_c, 1, 47, 80
3, 80161, Note_on_c, 1, 53, 102
3, 80266, Note_on_c, 1, 53, 0
3, 80267, Note_on_c, 1, 47, 0
3, 80272, Note_on_c, 1, 56, 0
3, 80521, Note_on_c, 1, 47, 93
3, 80521, Note_on_c, 1, 56, 89
3, 80521, Note_on_c, 1, 53, 93
3, 80579, Note_on_c, 1, 53, 0
3, 80584, Note_on_c, 1, 56, 0
3, 80588, Note_on_c, 1, 47, 0
3, 80640, Note_on_c, 1, 59, 93
3, 80641, Note_on_c, 1, 53, 89
3, 80641, Note_on_c, 1, 49, 89
3, 80719, Note_on_c, 1, 53, 0
3, 80720, Note_on_c, 1, 59, 0
3, 80722, Note_on_c, 1, 49, 0
3, 80879, Note_on_c, 1, 49, 98
3, 80879, Note_on_c, 1, 37, 98
3, 80978, Note_on_c, 1, 37, 0
3, 80980, Note_on_c, 1, 49, 0
3, 81119, Note_on_c, 1, 36, 85
3, 81119, Note_on_c, 1, 48, 80
3, 81217, Note_on_c, 1, 48, 0
3, 81217, Note_on_c, 1, 36, 0
3, 82080, Note_on_c, 1, 57, 80
3, 82139, Note_on_c, 1, 60, 76
3, 82140, Note_on_c, 1, 57, 0
3, 82200, Note_on_c, 1, 58, 62
3, 82203, Note_on_c, 1, 60, 0
3, 82256, Note_on_c, 1, 58, 0
3, 82259, Note_on_c, 1, 60, 64
3, 82317, Note_on_c, 1, 60, 0
3, 82319, Note_on_c, 1, 57, 51
3, 82376, Note_on_c, 1, 57, 0
3, 82379, Note_on_c, 1, 60, 68
3, 82435, Note_on_c, 1, 60, 0
3, 82438, Note_on_c, 1, 52, 72
3, 82499, Note_on_c, 1, 60, 62
3, 82500, Note_on_c, 1, 52, 0
3, 82556, Note_on_c, 1, 60, 0
3, 82558, Note_on_c, 1, 53, 68
3, 82619, Note_on_c, 1, 60, 64
3, 82623, Note_on_c, 1, 53, 0
3, 82681, Note_on_c, 1, 50, 60
3, 82684, Note_on_c, 1, 60, 0
3, 82734, Note_on_c, 1, 50, 0
3, 82739, Note_on_c, 1, 53, 60
3, 82801, Note_on_c, 1, 45, 85
3, 82806, Note_on_c, 1, 53, 0
3, 82860, Note_on_c, 1, 45, 0
3, 82860, Note_on_c, 1, 53, 68
3, 82921, Note_on_c, 1, 46, 76
3, 82924, Note_on_c, 1, 53, 0
3, 82981, Note_on_c, 1, 58, 76
3, 82987, Note_on_c, 1, 46, 0
3, 83034, Note_on_c, 1, 58, 0
3, 83042, Note_on_c, 1, 48, 72
3, 83042, Note_on_c, 1, 57, 64
3, 83156, Note_on_c, 1, 57, 0
3, 83162, Note_on_c, 1, 55, 72
3, 83262, Note_on_c, 1, 55, 0
3, 83269, Note_on_c, 1, 48, 0
3, 83398, Note_on_c, 1, 50, 93
3, 83398, Note_on_c, 1, 53, 98
3, 83518, Note_on_c, 1, 53, 0
3, 83519, Note_on_c, 1, 55, 57
3, 83519, Note_on_c, 1, 52, 64
3, 83525, Note_on_c, 1, 50, 0
3, 83569, Note_on_c, 1, 52, 0
3, 83571, Note_on_c, 1, 55, 0
3, 83639, Note_on_c, 1, 54, 57
3, 83639, Note_on_c, 1, 57, 62
3, 83658, Note_on_c, 1, 57, 0
3, 83660, Note_on_c, 1, 54, 0
3, 83758, Note_on_c, 1, 58, 55
3, 83759, Note_on_c, 1, 55, 57
3, 83776, Note_on_c, 1, 55, 0
3, 83778, Note_on_c, 1, 58, 0
3, 83879, Note_on_c, 1, 57, 62
3, 83879, Note_on_c, 1, 60, 52
3, 83899, Note_on_c, 1, 57, 0
3, 83901, Note_on_c, 1, 60, 0
3, 83999, Note_on_c, 1, 58, 48
3, 83999, Note_on_c, 1, 62, 50
3, 84023, Note_on_c, 1, 62, 0
3, 84027, Note_on_c, 1, 58, 0
3, 84359, Note_on_c, 1, 48, 80
3, 84359, Note_on_c, 1, 46, 89
3, 84474, Note_on_c, 1, 46, 0
3, 84478, Note_on_c, 1, 45, 59
3, 84577, Note_on_c, 1, 48, 0
3, 84598, Note_on_c, 1, 50, 50
3, 84599, Note_on_c, 1, 47, 60
3, 84607, Note_on_c, 1, 45, 0
3, 84691, Note_on_c, 1, 50, 0
3, 84719, Note_on_c, 1, 53, 60
3, 84719, Note_on_c, 1, 48, 64
3, 84722, Note_on_c, 1, 47, 0
3, 84820, Note_on_c, 1, 53, 0
3, 84838, Note_on_c, 1, 52, 76
3, 84958, Note_on_c, 1, 52, 0
3, 84959, Note_on_c, 1, 53, 68
3, 84963, Note_on_c, 1, 48, 0
3, 85079, Note_on_c, 1, 41, 85
3, 85083, Note_on_c, 1, 53, 0
3, 85199, Note_on_c, 1, 60, 102
3, 85207, Note_on_c, 1, 41, 0
3, 85477, Note_on_c, 1, 60, 0
3, 85478, Note_on_c, 1, 62, 96
3, 85516, Note_on_c, 1, 60, 74
3, 85525, Note_on_c, 1, 62, 0
3, 85559, Note_on_c, 1, 60, 0
3, 85559, Note_on_c, 1, 58, 74
3, 85596, Note_on_c, 1, 58, 0
3, 85597, Note_on_c, 1, 60, 67
3, 85636, Note_on_c, 1, 58, 58
3, 85647, Note_on_c, 1, 60, 0
3, 85679, Note_on_c, 1, 57, 74
3, 85683, Note_on_c, 1, 58, 0
3, 85714, Note_on_c, 1, 57, 0
3, 85718, Note_on_c, 1, 58, 68
3, 85756, Note_on_c, 1, 57, 66
3, 85760, Note_on_c, 1, 58, 0
3, 85797, Note_on_c, 1, 57, 0
3, 85799, Note_on_c, 1, 55, 72
3, 85838, Note_on_c, 1, 55, 0
3, 85838, Note_on_c, 1, 57, 57
3, 85876, Note_on_c, 1, 55, 76
3, 85879, Note_on_c, 1, 57, 0
3, 85919, Note_on_c, 1, 53, 76
3, 85921, Note_on_c, 1, 55, 0
3, 86039, Note_on_c, 1, 57, 86
3, 86041, Note_on_c, 1, 53, 0
3, 86060, Note_on_c, 1, 57, 0
3, 86069, Note_on_c, 1, 55, 74
3, 86071, Note_on_c, 1, 57, 81
3, 86090, Note_on_c, 1, 55, 0
3, 86099, Note_on_c, 1, 55, 70
3, 86104, Note_on_c, 1, 57, 0
3, 86122, Note_on_c, 1, 55, 0
3, 86129, Note_on_c, 1, 53, 81
3, 86131, Note_on_c, 1, 55, 76
3, 86150, Note_on_c, 1, 55, 0
3, 86154, Note_on_c, 1, 53, 0
3, 86159, Note_on_c, 1, 57, 91
3, 86281, Note_on_c, 1, 45, 102
3, 86287, Note_on_c, 1, 57, 0
3, 86401, Note_on_c, 1, 46, 96
3, 86402, Note_on_c, 1, 45, 0
3, 86509, Note_on_c, 1, 46, 0
3, 86761, Note_on_c, 1, 58, 86
3, 86881, Note_on_c, 1, 60, 86
3, 86883, Note_on_c, 1, 58, 0
3, 86978, Note_on_c, 1, 60, 0
3, 86999, Note_on_c, 1, 48, 117
3, 87030, Note_on_c, 1, 48, 0
3, 87119, Note_on_c, 1, 62, 117
3, 87398, Note_on_c, 1, 63, 67
3, 87416, Note_on_c, 1, 62, 0
3, 87440, Note_on_c, 1, 63, 0
3, 87442, Note_on_c, 1, 62, 81
3, 87479, Note_on_c, 1, 60, 51
3, 87480, Note_on_c, 1, 62, 0
3, 87515, Note_on_c, 1, 60, 0
3, 87518, Note_on_c, 1, 62, 91
3, 87554, Note_on_c, 1, 62, 0
3, 87556, Note_on_c, 1, 60, 72
3, 87597, Note_on_c, 1, 60, 0
3, 87599, Note_on_c, 1, 58, 76
3, 87634, Note_on_c, 1, 58, 0
3, 87637, Note_on_c, 1, 60, 67
3, 87676, Note_on_c, 1, 58, 72
3, 87687, Note_on_c, 1, 60, 0
3, 87719, Note_on_c, 1, 57, 86
3, 87720, Note_on_c, 1, 58, 0
3, 87757, Note_on_c, 1, 58, 72
3, 87761, Note_on_c, 1, 57, 0
3, 87796, Note_on_c, 1, 57, 81
3, 87797, Note_on_c, 1, 58, 0
3, 87839, Note_on_c, 1, 55, 86
3, 87840, Note_on_c, 1, 57, 0
3, 87868, Note_on_c, 1, 55, 0
3, 87959, Note_on_c, 1, 55, 96
3, 87961, Note_on_c, 1, 53, 96
3, 87973, Note_on_c, 1, 55, 0
3, 87985, Note_on_c, 1, 53, 0
3, 87991, Note_on_c, 1, 55, 96
3, 88016, Note_on_c, 1, 55, 0
3, 88019, Note_on_c, 1, 53, 76
3, 88044, Note_on_c, 1, 53, 0
3, 88049, Note_on_c, 1, 52, 72
3, 88051, Note_on_c, 1, 53, 72
3, 88070, Note_on_c, 1, 52, 0
3, 88072, Note_on_c, 1, 53, 0
3, 88079, Note_on_c, 1, 52, 102
3, 88109, Note_on_c, 1, 52, 0
3, 88199, Note_on_c, 1, 60, 72
3, 88201, Note_on_c, 1, 58, 72
3, 88217, Note_on_c, 1, 60, 0
3, 88225, Note_on_c, 1, 58, 0
3, 88231, Note_on_c, 1, 60, 72
3, 88257, Note_on_c, 1, 60, 0
3, 88259, Note_on_c, 1, 58, 74
3, 88261, Note_on_c, 1, 57, 74
3, 88280, Note_on_c, 1, 58, 0
3, 88281, Note_on_c, 1, 57, 0
3, 88291, Note_on_c, 1, 58, 81
3, 88313, Note_on_c, 1, 58, 0
3, 88319, Note_on_c, 1, 57, 102
3, 88441, Note_on_c, 1, 58, 106
3, 88449, Note_on_c, 1, 57, 0
3, 88561, Note_on_c, 1, 58, 0
3, 88561, Note_on_c, 1, 60, 86
3, 88681, Note_on_c, 1, 48, 106
3, 88684, Note_on_c, 1, 60, 0
3, 88800, Note_on_c, 1, 48, 0
3, 88801, Note_on_c, 1, 53, 106
3, 88910, Note_on_c, 1, 53, 0
3, 89161, Note_on_c, 1, 65, 89
3, 89161, Note_on_c, 1, 68, 85
3, 89281, Note_on_c, 1, 67, 62
3, 89281, Note_on_c, 1, 64, 64
3, 89284, Note_on_c, 1, 68, 0
3, 89284, Note_on_c, 1, 65, 0
3, 89393, Note_on_c, 1, 64, 0
3, 89401, Note_on_c, 1, 65, 76
3, 89401, Note_on_c, 1, 62, 68
3, 89406, Note_on_c, 1, 67, 0
3, 89516, Note_on_c, 1, 62, 0
3, 89517, Note_on_c, 1, 65, 0
3, 89520, Note_on_c, 1, 64, 76
3, 89520, Note_on_c, 1, 60, 76
3, 89638, Note_on_c, 1, 60, 0
3, 89639, Note_on_c, 1, 58, 59
3, 89640, Note_on_c, 1, 64, 0
3, 89641, Note_on_c, 1, 62, 80
3, 89743, Note_on_c, 1, 62, 0
3, 89750, Note_on_c, 1, 58, 0
3, 89759, Note_on_c, 1, 60, 76
3, 89759, Note_on_c, 1, 57, 93
3, 89876, Note_on_c, 1, 60, 0
3, 89878, Note_on_c, 1, 57, 0
3, 89880, Note_on_c, 1, 68, 93
3, 89919, Note_on_c, 1, 68, 0
3, 89919, Note_on_c, 1, 67, 59
3, 89959, Note_on_c, 1, 65, 76
3, 89961, Note_on_c, 1, 67, 0
3, 89999, Note_on_c, 1, 63, 62
3, 90003, Note_on_c, 1, 65, 0
3, 90039, Note_on_c, 1, 61, 55
3, 90047, Note_on_c, 1, 63, 0
3, 90078, Note_on_c, 1, 61, 0
3, 90078, Note_on_c, 1, 60, 62
3, 90119, Note_on_c, 1, 59, 89
3, 90125, Note_on_c, 1, 60, 0
3, 90159, Note_on_c, 1, 62, 80
3, 90162, Note_on_c, 1, 59, 0
3, 90199, Note_on_c, 1, 59, 85
3, 90200, Note_on_c, 1, 62, 0
3, 90232, Note_on_c, 1, 59, 0
3, 90238, Note_on_c, 1, 62, 68
3, 90279, Note_on_c, 1, 60, 76
3, 90287, Note_on_c, 1, 62, 0
3, 90319, Note_on_c, 1, 60, 0
3, 90319, Note_on_c, 1, 57, 72
3, 90359, Note_on_c, 1, 60, 72
3, 90368, Note_on_c, 1, 57, 0
3, 90399, Note_on_c, 1, 58, 59
3, 90411, Note_on_c, 1, 60, 0
3, 90439, Note_on_c, 1, 58, 0
3, 90439, Note_on_c, 1, 55, 68
3, 90478, Note_on_c, 1, 58, 56
3, 90482, Note_on_c, 1, 55, 0
3, 90518, Note_on_c, 1, 57, 76
3, 90525, Note_on_c, 1, 58, 0
3, 90558, Note_on_c, 1, 57, 0
3, 90558, Note_on_c, 1, 53, 68
3, 90598, Note_on_c, 1, 57, 80
3, 90600, Note_on_c, 1, 53, 0
3, 90638, Note_on_c, 1, 55, 64
3, 90644, Note_on_c, 1, 57, 0
3, 90678, Note_on_c, 1, 52, 64
3, 90680, Note_on_c, 1, 55, 0
3, 90719, Note_on_c, 1, 53, 80
3, 90720, Note_on_c, 1, 52, 0
3, 90802, Note_on_c, 1, 53, 0
3, 91081, Note_on_c, 1, 57, 80
3, 91081, Note_on_c, 1, 65, 93
3, 91193, Note_on_c, 1, 57, 0
3, 91199, Note_on_c, 1, 58, 76
3, 91311, Note_on_c, 1, 58, 0
3, 91319, Note_on_c, 1, 74, 89
3, 91320, Note_on_c, 1, 65, 0
3, 91360, Note_on_c, 1, 72, 76
3, 91372, Note_on_c, 1, 74, 0
3, 91399, Note_on_c, 1, 70, 68
3, 91407, Note_on_c, 1, 72, 0
3, 91439, Note_on_c, 1, 69, 80
3, 91445, Note_on_c, 1, 70, 0
3, 91479, Note_on_c, 1, 67, 60
3, 91480, Note_on_c, 1, 69, 0
3, 91521, Note_on_c, 1, 66, 62
3, 91531, Note_on_c, 1, 67, 0
3, 91553, Note_on_c, 1, 66, 0
3, 91559, Note_on_c, 1, 67, 64
3, 91599, Note_on_c, 1, 65, 59
3, 91609, Note_on_c, 1, 67, 0
3, 91638, Note_on_c, 1, 65, 0
3, 91638, Note_on_c, 1, 63, 64
3, 91679, Note_on_c, 1, 64, 76
3, 91683, Note_on_c, 1, 63, 0
3, 91768, Note_on_c, 1, 64, 0
3, 92041, Note_on_c, 1, 55, 76
3, 92041, Note_on_c, 1, 53, 85
3, 92158, Note_on_c, 1, 53, 0
3, 92160, Note_on_c, 1, 52, 64
3, 92257, Note_on_c, 1, 52, 0
3, 92259, Note_on_c, 1, 55, 0
3, 92518, Note_on_c, 1, 50, 85
3, 92518, Note_on_c, 1, 53, 89
3, 92519, Note_on_c, 1, 55, 89
3, 92620, Note_on_c, 1, 55, 0
3, 92621, Note_on_c, 1, 53, 0
3, 92623, Note_on_c, 1, 50, 0
3, 92640, Note_on_c, 1, 55, 72
3, 92640, Note_on_c, 1, 52, 76
3, 92640, Note_on_c, 1, 48, 80
3, 92747, Note_on_c, 1, 48, 0
3, 92753, Note_on_c, 1, 52, 0
3, 92759, Note_on_c, 1, 50, 68
3, 92759, Note_on_c, 1, 53, 62
3, 92853, Note_on_c, 1, 55, 0
3, 92857, Note_on_c, 1, 53, 0
3, 92859, Note_on_c, 1, 50, 0
3, 92879, Note_on_c, 1, 52, 80
3, 92879, Note_on_c, 1, 55, 76
3, 92879, Note_on_c, 1, 48, 80
3, 92986, Note_on_c, 1, 48, 0
3, 92996, Note_on_c, 1, 52, 0
3, 92998, Note_on_c, 1, 53, 59
3, 92998, Note_on_c, 1, 50, 44
3, 93112, Note_on_c, 1, 50, 0
3, 93113, Note_on_c, 1, 53, 0
3, 93119, Note_on_c, 1, 52, 89
3, 93119, Note_on_c, 1, 48, 76
3, 93183, Note_on_c, 1, 52, 0
3, 93185, Note_on_c, 1, 48, 0
3, 93186, Note_on_c, 1, 55, 0
3, 93239, Note_on_c, 1, 36, 85
3, 93275, Note_on_c, 1, 36, 0
3, 93358, Note_on_c, 1, 38, 89
3, 93391, Note_on_c, 1, 38, 0
3, 93479, Note_on_c, 1, 40, 89
3, 93510, Note_on_c, 1, 40, 0
3, 93599, Note_on_c, 1, 41, 89
3, 93625, Note_on_c, 1, 41, 0
3, 93718, Note_on_c, 1, 45, 93
3, 93752, Note_on_c, 1, 45, 0
3, 93839, Note_on_c, 1, 46, 80
3, 93864, Note_on_c, 1, 46, 0
3, 93956, Note_on_c, 1, 49, 93
3, 93987, Note_on_c, 1, 49, 0
3, 94078, Note_on_c, 1, 50, 89
3, 94138, Note_on_c, 1, 53, 80
3, 94141, Note_on_c, 1, 50, 0
3, 94198, Note_on_c, 1, 52, 80
3, 94204, Note_on_c, 1, 53, 0
3, 94254, Note_on_c, 1, 52, 0
3, 94258, Note_on_c, 1, 50, 76
3, 94318, Note_on_c, 1, 52, 80
3, 94323, Note_on_c, 1, 50, 0
3, 94377, Note_on_c, 1, 52, 0
3, 94378, Note_on_c, 1, 53, 76
3, 94438, Note_on_c, 1, 50, 72
3, 94443, Note_on_c, 1, 53, 0
3, 94498, Note_on_c, 1, 52, 76
3, 94501, Note_on_c, 1, 50, 0
3, 94559, Note_on_c, 1, 52, 0
3, 94559, Note_on_c, 1, 53, 80
3, 94591, Note_on_c, 1, 53, 0
3, 94679, Note_on_c, 1, 50, 93
3, 94702, Note_on_c, 1, 50, 0
3, 94799, Note_on_c, 1, 45, 93
3, 94827, Note_on_c, 1, 45, 0
3, 94918, Note_on_c, 1, 48, 89
3, 94935, Note_on_c, 1, 47, 64
3, 94936, Note_on_c, 1, 48, 0
3, 94955, Note_on_c, 1, 48, 72
3, 94958, Note_on_c, 1, 47, 0
3, 94976, Note_on_c, 1, 47, 80
3, 94984, Note_on_c, 1, 48, 0
3, 94996, Note_on_c, 1, 45, 76
3, 95000, Note_on_c, 1, 47, 0
3, 95021, Note_on_c, 1, 45, 0
3, 95024, Note_on_c, 1, 47, 60
3, 95038, Note_on_c, 1, 48, 89
3, 95042, Note_on_c, 1, 47, 0
3, 95161, Note_on_c, 1, 57, 56
3, 95280, Note_on_c, 1, 58, 57
3, 95284, Note_on_c, 1, 57, 0
3, 95401, Note_on_c, 1, 55, 60
3, 95403, Note_on_c, 1, 58, 0
3, 95521, Note_on_c, 1, 57, 62
3, 95522, Note_on_c, 1, 55, 0
3, 95639, Note_on_c, 1, 54, 56
3, 95647, Note_on_c, 1, 57, 0
3, 95760, Note_on_c, 1, 55, 64
3, 95762, Note_on_c, 1, 54, 0
3, 95882, Note_on_c, 1, 57, 57
3, 95887, Note_on_c, 1, 55, 0
3, 95988, Note_on_c, 1, 48, 0
3, 95993, Note_on_c, 1, 57, 0
3, 96001, Note_on_c, 1, 58, 9
3, 96002, Note_on_c, 1, 48, 38
3, 96443, Note_on_c, 1, 58, 0
3, 96479, Note_on_c, 1, 57, 45
3, 96539, Note_on_c, 1, 55, 72
3, 96545, Note_on_c, 1, 57, 0
3, 96599, Note_on_c, 1, 55, 0
3, 96599, Note_on_c, 1, 53, 48
3, 96652, Note_on_c, 1, 53, 0
3, 96658, Note_on_c, 1, 52, 59
3, 96717, Note_on_c, 1, 52, 0
3, 96717, Note_on_c, 1, 53, 62
3, 96776, Note_on_c, 1, 53, 0
3, 96777, Note_on_c, 1, 50, 68
3, 96838, Note_on_c, 1, 55, 64
3, 96845, Note_on_c, 1, 50, 0
3, 96897, Note_on_c, 1, 53, 55
3, 96900, Note_on_c, 1, 55, 0
3, 96955, Note_on_c, 1, 53, 0
3, 96958, Note_on_c, 1, 52, 53
3, 97034, Note_on_c, 1, 48, 0
3, 97037, Note_on_c, 1, 52, 0
3, 97081, Note_on_c, 1, 36, 76
3, 97105, Note_on_c, 1, 36, 0
3, 97201, Note_on_c, 1, 38, 89
3, 97225, Note_on_c, 1, 38, 0
3, 97322, Note_on_c, 1, 40, 76
3, 97342, Note_on_c, 1, 40, 0
3, 97442, Note_on_c, 1, 41, 85
3, 97462, Note_on_c, 1, 41, 0
3, 97558, Note_on_c, 1, 45, 76
3, 97582, Note_on_c, 1, 45, 0
3, 97679, Note_on_c, 1, 46, 93
3, 97699, Note_on_c, 1, 46, 0
3, 97799, Note_on_c, 1, 49, 93
3, 97816, Note_on_c, 1, 49, 0
3, 97918, Note_on_c, 1, 50, 72
3, 97978, Note_on_c, 1, 50, 0
3, 97978, Note_on_c, 1, 53, 57
3, 98037, Note_on_c, 1, 53, 0
3, 98038, Note_on_c, 1, 52, 60
3, 98090, Note_on_c, 1, 52, 0
3, 98099, Note_on_c, 1, 50, 62
3, 98158, Note_on_c, 1, 52, 72
3, 98159, Note_on_c, 1, 50, 0
3, 98215, Note_on_c, 1, 52, 0
3, 98218, Note_on_c, 1, 53, 60
3, 98278, Note_on_c, 1, 50, 68
3, 98281, Note_on_c, 1, 53, 0
3, 98337, Note_on_c, 1, 50, 0
3, 98337, Note_on_c, 1, 52, 72
3, 98398, Note_on_c, 1, 53, 68
3, 98400, Note_on_c, 1, 52, 0
3, 98421, Note_on_c, 1, 53, 0
3, 98518, Note_on_c, 1, 57, 89
3, 98537, Note_on_c, 1, 57, 0
3, 98638, Note_on_c, 1, 58, 80
3, 98660, Note_on_c, 1, 58, 0
3, 98758, Note_on_c, 1, 61, 76
3, 98778, Note_on_c, 1, 61, 0
3, 98878, Note_on_c, 1, 62, 76
3, 98935, Note_on_c, 1, 62, 0
3, 98939, Note_on_c, 1, 65, 60
3, 99000, Note_on_c, 1, 64, 76
3, 99002, Note_on_c, 1, 65, 0
3, 99056, Note_on_c, 1, 64, 0
3, 99060, Note_on_c, 1, 62, 76
3, 99114, Note_on_c, 1, 62, 0
3, 99120, Note_on_c, 1, 64, 56
3, 99180, Note_on_c, 1, 65, 64
3, 99181, Note_on_c, 1, 64, 0
3, 99240, Note_on_c, 1, 62, 76
3, 99244, Note_on_c, 1, 65, 0
3, 99298, Note_on_c, 1, 62, 0
3, 99300, Note_on_c, 1, 64, 85
3, 99325, Note_on_c, 1, 64, 0
3, 99360, Note_on_c, 1, 65, 76
3, 99376, Note_on_c, 1, 65, 0
3, 99479, Note_on_c, 1, 62, 89
3, 99495, Note_on_c, 1, 62, 0
3, 99599, Note_on_c, 1, 57, 89
3, 99617, Note_on_c, 1, 57, 0
3, 99721, Note_on_c, 1, 59, 89
3, 99737, Note_on_c, 1, 59, 0
3, 99841, Note_on_c, 1, 60, 80
3, 100019, Note_on_c, 1, 69, 80
3, 100079, Note_on_c, 1, 70, 80
3, 100084, Note_on_c, 1, 69, 0
3, 100257, Note_on_c, 1, 70, 0
3, 100259, Note_on_c, 1, 68, 72
3, 100319, Note_on_c, 1, 69, 80
3, 100321, Note_on_c, 1, 68, 0
3, 100499, Note_on_c, 1, 66, 60
3, 100508, Note_on_c, 1, 69, 0
3, 100560, Note_on_c, 1, 66, 0
3, 100561, Note_on_c, 1, 67, 76
3, 100732, Note_on_c, 1, 60, 0
3, 100739, Note_on_c, 1, 61, 72
3, 100785, Note_on_c, 1, 67, 0
3, 100799, Note_on_c, 1, 61, 0
3, 100799, Note_on_c, 1, 62, 80
3, 100800, Note_on_c, 1, 67, 80
3, 101521, Note_on_c, 1, 66, 80
3, 101526, Note_on_c, 1, 67, 0
3, 101759, Note_on_c, 1, 62, 0
3, 101761, Note_on_c, 1, 66, 0
3, 101761, Note_on_c, 1, 67, 76
3, 101878, Note_on_c, 1, 67, 0
3, 102121, Note_on_c, 1, 74, 85
3, 102121, Note_on_c, 1, 66, 62
3, 102235, Note_on_c, 1, 74, 0
3, 102239, Note_on_c, 1, 66, 0
3, 102241, Note_on_c, 1, 67, 76
3, 102241, Note_on_c, 1, 74, 85
3, 102270, Note_on_c, 1, 74, 0
3, 102281, Note_on_c, 1, 67, 0
3, 102599, Note_on_c, 1, 72, 80
3, 102600, Note_on_c, 1, 64, 68
3, 102711, Note_on_c, 1, 72, 0
3, 102718, Note_on_c, 1, 64, 0
3, 102719, Note_on_c, 1, 65, 76
3, 102721, Note_on_c, 1, 72, 76
3, 102961, Note_on_c, 1, 58, 56
3, 102961, Note_on_c, 1, 70, 72
3, 102968, Note_on_c, 1, 65, 0
3, 102969, Note_on_c, 1, 72, 0
3, 103200, Note_on_c, 1, 70, 0
3, 103201, Note_on_c, 1, 58, 0
3, 103201, Note_on_c, 1, 60, 62
3, 103201, Note_on_c, 1, 69, 76
3, 103441, Note_on_c, 1, 67, 59
3, 103446, Note_on_c, 1, 69, 0
3, 103660, Note_on_c, 1, 67, 0
3, 103662, Note_on_c, 1, 60, 0
3, 103680, Note_on_c, 1, 66, 64
3, 103681, Note_on_c, 1, 60, 76
3, 103914, Note_on_c, 1, 60, 0
3, 103914, Note_on_c, 1, 66, 0
3, 103919, Note_on_c, 1, 59, 72
3, 103919, Note_on_c, 1, 65, 76
3, 104159, Note_on_c, 1, 65, 0
3, 104159, Note_on_c, 1, 59, 0
3, 104160, Note_on_c, 1, 58, 60
3, 104161, Note_on_c, 1, 64, 76
3, 104399, Note_on_c, 1, 64, 0
3, 104399, Note_on_c, 1, 63, 68
3, 104399, Note_on_c, 1, 57, 59
3, 104400, Note_on_c, 1, 58, 0
3, 104641, Note_on_c, 1, 58, 59
3, 104641, Note_on_c, 1, 62, 68
3, 104643, Note_on_c, 1, 63, 0
3, 104644, Note_on_c, 1, 57, 0
3, 104840, Note_on_c, 1, 62, 0
3, 104842, Note_on_c, 1, 58, 0
3, 104880, Note_on_c, 1, 58, 72
3, 104881, Note_on_c, 1, 46, 85
3, 105111, Note_on_c, 1, 46, 0
3, 105120, Note_on_c, 1, 57, 76
3, 105121, Note_on_c, 1, 48, 62
3, 105122, Note_on_c, 1, 58, 0
3, 105360, Note_on_c, 1, 57, 0
3, 105361, Note_on_c, 1, 55, 64
3, 105592, Note_on_c, 1, 48, 0
3, 105597, Note_on_c, 1, 55, 0
3, 105600, Note_on_c, 1, 59, 107
3, 105600, Note_on_c, 1, 53, 102
3, 105600, Note_on_c, 1, 50, 98
3, 105927, Note_on_c, 1, 50, 0
3, 105927, Note_on_c, 1, 53, 0
3, 105929, Note_on_c, 1, 59, 0
3, 105959, Note_on_c, 1, 59, 107
3, 105959, Note_on_c, 1, 53, 93
3, 105959, Note_on_c, 1, 50, 89
3, 106056, Note_on_c, 1, 50, 0
3, 106056, Note_on_c, 1, 53, 0
3, 106058, Note_on_c, 1, 59, 0
3, 106079, Note_on_c, 1, 60, 62
3, 106079, Note_on_c, 1, 53, 49
3, 106079, Note_on_c, 1, 48, 57
3, 106410, Note_on_c, 1, 53, 0
3, 106411, Note_on_c, 1, 48, 0
3, 106417, Note_on_c, 1, 60, 0
3, 106439, Note_on_c, 1, 57, 76
3, 106439, Note_on_c, 1, 48, 60
3, 106439, Note_on_c, 1, 53, 57
3, 106525, Note_on_c, 1, 48, 0
3, 106528, Note_on_c, 1, 53, 0
3, 106528, Note_on_c, 1, 57, 0
3, 106561, Note_on_c, 1, 53, 113
3, 106561, Note_on_c, 1, 57, 113
3, 106561, Note_on_c, 1, 47, 98
3, 106561, Note_on_c, 1, 50, 98
3, 106890, Note_on_c, 1, 50, 0
3, 106890, Note_on_c, 1, 53, 0
3, 106891, Note_on_c, 1, 47, 0
3, 106892, Note_on_c, 1, 57, 0
3, 106919, Note_on_c, 1, 53, 102
3, 106919, Note_on_c, 1, 57, 102
3, 106919, Note_on_c, 1, 50, 85
3, 106919, Note_on_c, 1, 47, 85
3, 107018, Note_on_c, 1, 53, 0
3, 107019, Note_on_c, 1, 57, 0
3, 107020, Note_on_c, 1, 50, 0
3, 107021, Note_on_c, 1, 47, 0
3, 107040, Note_on_c, 1, 57, 62
3, 107040, Note_on_c, 1, 53, 56
3, 107041, Note_on_c, 1, 48, 62
3, 107381, Note_on_c, 1, 57, 0
3, 107382, Note_on_c, 1, 48, 0
3, 107382, Note_on_c, 1, 53, 0
3, 107400, Note_on_c, 1, 53, 60
3, 107400, Note_on_c, 1, 57, 72
3, 107401, Note_on_c, 1, 48, 64
3, 107473, Note_on_c, 1, 57, 0
3, 107483, Note_on_c, 1, 48, 0
3, 107496, Note_on_c, 1, 53, 0
3, 107521, Note_on_c, 1, 56, 102
3, 107521, Note_on_c, 1, 53, 89
3, 107521, Note_on_c, 1, 59, 93
3, 107521, Note_on_c, 1, 49, 107
3, 107845, Note_on_c, 1, 49, 0
3, 107845, Note_on_c, 1, 59, 0
3, 107845, Note_on_c, 1, 56, 0
3, 107846, Note_on_c, 1, 53, 0
3, 107879, Note_on_c, 1, 53, 107
3, 107879, Note_on_c, 1, 56, 107
3, 107879, Note_on_c, 1, 59, 107
3, 107879, Note_on_c, 1, 49, 102
3, 107978, Note_on_c, 1, 59, 0
3, 107980, Note_on_c, 1, 53, 0
3, 107983, Note_on_c, 1, 56, 0
3, 107988, Note_on_c, 1, 49, 0
3, 107999, Note_on_c, 1, 57, 98
3, 108001, Note_on_c, 1, 53, 89
3, 108001, Note_on_c, 1, 60, 102
3, 108001, Note_on_c, 1, 48, 93
3, 108002, Note_on_c, 1, 60, 0
3, 108119, Note_on_c, 1, 57, 0
3, 108121, Note_on_c, 1, 53, 0
3, 108121, Note_on_c, 1, 48, 0
3, 108481, Note_on_c, 1, 48, 62
3, 108481, Note_on_c, 1, 53, 76
3, 108715, Note_on_c, 1, 53, 0
3, 108719, Note_on_c, 1, 52, 72
3, 108956, Note_on_c, 1, 48, 0
3, 108960, Note_on_c, 1, 52, 0
3, 108961, Note_on_c, 1, 41, 80
3, 109446, Note_on_c, 1, 41, 0
3, 110041, Note_on_c, 1, 46, 107
3, 110161, Note_on_c, 1, 48, 89
3, 110162, Note_on_c, 1, 46, 0
3, 110280, Note_on_c, 1, 48, 0
3, 110281, Note_on_c, 1, 36, 85
3, 110396, Note_on_c, 1, 36, 0
3, 110400, Note_on_c, 1, 41, 85
3, 110400, Note_on_c, 1, 53, 89
3, 110884, Note_on_c, 1, 53, 0
3, 110884, Note_on_c, 1, 41, 0
3, 111479, Note_on_c, 1, 58, 113
3, 111601, Note_on_c, 1, 60, 98
3, 111604, Note_on_c, 1, 58, 0
3, 111721, Note_on_c, 1, 48, 89
3, 111724, Note_on_c, 1, 60, 0
3, 111833, Note_on_c, 1, 48, 0
3, 111839, Note_on_c, 1, 53, 93
3, 112439, Note_on_c, 1, 53, 0
3, 112439, Note_on_c, 1, 58, 89
3, 112561, Note_on_c, 1, 60, 89
3, 112565, Note_on_c, 1, 58, 0
3, 112680, Note_on_c, 1, 48, 80
3, 112684, Note_on_c, 1, 60, 0
3, 112801, Note_on_c, 1, 53, 93
3, 112801, Note_on_c, 1, 41, 89
3, 112806, Note_on_c, 1, 48, 0
3, 113395, Note_on_c, 1, 53, 0
3, 113397, Note_on_c, 1, 41, 0
3, 113399, Note_on_c, 1, 46, 98
3, 113521, Note_on_c, 1, 48, 89
3, 113530, Note_on_c, 1, 46, 0
3, 113640, Note_on_c, 1, 48, 0
3, 113641, Note_on_c, 1, 36, 89
3, 113748, Note_on_c, 1, 36, 0
3, 113760, Note_on_c, 1, 41, 85
3, 113798, Note_on_c, 1, 45, 76
3, 113805, Note_on_c, 1, 41, 0
3, 113838, Note_on_c, 1, 48, 76
3, 113839, Note_on_c, 1, 45, 0
3, 113877, Note_on_c, 1, 48, 0
3, 113877, Note_on_c, 1, 53, 89
3, 113917, Note_on_c, 1, 48, 76
3, 113926, Note_on_c, 1, 53, 0
3, 113957, Note_on_c, 1, 45, 80
3, 113964, Note_on_c, 1, 48, 0
3, 113998, Note_on_c, 1, 41, 93
3, 114002, Note_on_c, 1, 45, 0
3, 114039, Note_on_c, 1, 45, 76
3, 114045, Note_on_c, 1, 41, 0
3, 114079, Note_on_c, 1, 48, 72
3, 114084, Note_on_c, 1, 45, 0
3, 114120, Note_on_c, 1, 53, 89
3, 114125, Note_on_c, 1, 48, 0
3, 114161, Note_on_c, 1, 48, 72
3, 114175, Note_on_c, 1, 53, 0
3, 114200, Note_on_c, 1, 45, 76
3, 114203, Note_on_c, 1, 48, 0
3, 114241, Note_on_c, 1, 41, 80
3, 114242, Note_on_c, 1, 45, 0
3, 114281, Note_on_c, 1, 45, 85
3, 114282, Note_on_c, 1, 41, 0
3, 114321, Note_on_c, 1, 48, 80
3, 114325, Note_on_c, 1, 45, 0
3, 114361, Note_on_c, 1, 53, 80
3, 114363, Note_on_c, 1, 48, 0
3, 114401, Note_on_c, 1, 57, 80
3, 114404, Note_on_c, 1, 53, 0
3, 114441, Note_on_c, 1, 60, 80
3, 114443, Note_on_c, 1, 57, 0
3, 114481, Note_on_c, 1, 65, 93
3, 114482, Note_on_c, 1, 60, 0
3, 114521, Note_on_c, 1, 60, 76
3, 114522, Note_on_c, 1, 65, 0
3, 114560, Note_on_c, 1, 57, 72
3, 114561, Note_on_c, 1, 60, 0
3, 114600, Note_on_c, 1, 57, 0
3, 114600, Note_on_c, 1, 53, 80
3, 114639, Note_on_c, 1, 57, 80
3, 114647, Note_on_c, 1, 53, 0
3, 114679, Note_on_c, 1, 57, 0
3, 114679, Note_on_c, 1, 60, 80
3, 114720, Note_on_c, 1, 60, 0
3, 114721, Note_on_c, 1, 53, 85
3, 114761, Note_on_c, 1, 57, 85
3, 114769, Note_on_c, 1, 53, 0
3, 114799, Note_on_c, 1, 60, 72
3, 114802, Note_on_c, 1, 57, 0
3, 114841, Note_on_c, 1, 65, 89
3, 114846, Note_on_c, 1, 60, 0
3, 114879, Note_on_c, 1, 69, 76
3, 114917, Note_on_c, 1, 65, 0
3, 114919, Note_on_c, 1, 72, 85
3, 114922, Note_on_c, 1, 69, 0
3, 114958, Note_on_c, 1, 72, 0
3, 114961, Note_on_c, 1, 77, 89
3, 114999, Note_on_c, 1, 72, 80
3, 115003, Note_on_c, 1, 77, 0
3, 115039, Note_on_c, 1, 69, 80
3, 115042, Note_on_c, 1, 72, 0
3, 115079, Note_on_c, 1, 65, 89
3, 115080, Note_on_c, 1, 69, 0
3, 115119, Note_on_c, 1, 69, 98
3, 115122, Note_on_c, 1, 65, 0
3, 115159, Note_on_c, 1, 72, 85
3, 115160, Note_on_c, 1, 69, 0
3, 115200, Note_on_c, 1, 72, 0
3, 115201, Note_on_c, 1, 77, 102
3, 115313, Note_on_c, 1, 77, 0
3, 115320, Note_on_c, 1, 53, 85
3, 115320, Note_on_c, 1, 41, 89
3, 115453, Note_on_c, 1, 41, 0
3, 115453, Note_on_c, 1, 53, 0
3, 115680, Control_c, 1, 121, 0
3, 115680, End_track
4, 0, Start_track
4, 0, MIDI_port, 0
4, 0, Title_t, "Title: Sonata K. 533, 1st Mov't."
4, 0, End_track
5, 0, Start_track
5, 0, MIDI_port, 0
5, 0, Title_t, "Composer: W. A. Mozart"
5, 0, End_track
6, 0, Start_track
6, 0, MIDI_port, 0
6, 0, Title_t, "Sequence: Faren Raborn, Copyright 1996"
6, 0, End_track
7, 0, Start_track
7, 0, MIDI_port, 0
7, 0, Title_t, "Email: raborn@dtx.net"
7, 0, End_track
0, 0, End_of_file
