0, 0, Header, 1, 7, 120
1, 0, Start_track
1, 0, Time_signature, 4, 2, 24, 8
1, 0, Key_signature, -1, "major"
1, 0, Tempo, 428571
1, 17280, Tempo, 428571
1, 17328, Tempo, 431655
1, 17376, Tempo, 434783
1, 17424, Tempo, 437956
1, 17472, Tempo, 441176
1, 17520, Tempo, 444444
1, 17568, Tempo, 447761
1, 17616, Tempo, 451128
1, 17664, Tempo, 454545
1, 17712, Tempo, 458015
1, 17760, Tempo, 461538
1, 17808, Tempo, 465116
1, 17856, Tempo, 468750
1, 17904, Tempo, 472441
1, 17952, Tempo, 476190
1, 18000, Tempo, 480000
1, 18048, Tempo, 483871
1, 18096, Tempo, 487805
1, 18144, Tempo, 491803
1, 18192, Tempo, 495868
1, 18240, Tempo, 500000
1, 18241, Tempo, 428571
1, 23520, Tempo, 500000
1, 24000, Tempo, 428571
1, 27360, Tempo, 428571
1, 27384, Tempo, 431655
1, 27408, Tempo, 434783
1, 27432, Tempo, 437956
1, 27456, Tempo, 441176
1, 27480, Tempo, 444444
1, 27504, Tempo, 447761
1, 27528, Tempo, 451128
1, 27552, Tempo, 454545
1, 27576, Tempo, 458015
1, 27600, Tempo, 461538
1, 27624, Tempo, 465116
1, 27648, Tempo, 468750
1, 27672, Tempo, 472441
1, 27696, Tempo, 476190
1, 27720, Tempo, 480000
1, 27744, Tempo, 483871
1, 27768, Tempo, 487805
1, 27792, Tempo, 491803
1, 27816, Tempo, 495868
1, 27840, Tempo, 500000
1, 27841, Tempo, 428571
1, 31200, Tempo, 500000
1, 31440, Tempo, 428571
1, 38880, Tempo, 428571
1, 38904, Tempo, 431655
1, 38928, Tempo, 434783
1, 38952, Tempo, 437956
1, 38976, Tempo, 441176
1, 39000, Tempo, 444444
1, 39024, Tempo, 447761
1, 39048, Tempo, 451128
1, 39072, Tempo, 454545
1, 39096, Tempo, 458015
1, 39120, Tempo, 461538
1, 39144, Tempo, 465116
1, 39168, Tempo, 468750
1, 39192, Tempo, 472441
1, 39216, Tempo, 476190
1, 39240, Tempo, 480000
1, 39264, Tempo, 483871
1, 39288, Tempo, 487805
1, 39312, Tempo, 491803
1, 39336, Tempo, 495868
1, 39360, Tempo, 500000
1, 39361, Tempo, 428571
1, 44640, Tempo, 500000
1, 44880, Tempo, 1500000
1, 45120, Tempo, 250000
1, 45600, Key_signature, -4, "major"
1, 45600, Tempo, 428571
1, 48960, Tempo, 500000
1, 49440, Tempo, 428571
1, 52800, Tempo, 500000
1, 53280, Tempo, 428571
1, 59520, Tempo, 500000
1, 60000, Tempo, 428571
1, 66240, Tempo, 500000
1, 66720, Key_signature, -1, "major"
1, 66720, Tempo, 428571
1, 67680, Tempo, 428571
1, 67692, Tempo, 431655
1, 67704, Tempo, 434783
1, 67716, Tempo, 437956
1, 67728, Tempo, 441176
1, 67740, Tempo, 444444
1, 67752, Tempo, 447761
1, 67764, Tempo, 451128
1, 67776, Tempo, 454545
1, 67788, Tempo, 458015
1, 67800, Tempo, 461538
1, 67812, Tempo, 465116
1, 67824, Tempo, 468750
1, 67836, Tempo, 472441
1, 67848, Tempo, 476190
1, 67860, Tempo, 480000
1, 67872, Tempo, 483871
1, 67884, Tempo, 487805
1, 67896, Tempo, 491803
1, 67908, Tempo, 495868
1, 67920, Tempo, 500000
1, 67932, Tempo, 504202
1, 67944, Tempo, 508475
1, 67956, Tempo, 512821
1, 67968, Tempo, 517241
1, 67980, Tempo, 521739
1, 67992, Tempo, 526316
1, 68004, Tempo, 530973
1, 68016, Tempo, 535714
1, 68028, Tempo, 540541
1, 68040, Tempo, 545455
1, 68052, Tempo, 550459
1, 68064, Tempo, 555556
1, 68076, Tempo, 560748
1, 68088, Tempo, 566038
1, 68100, Tempo, 571429
1, 68112, Tempo, 576923
1, 68124, Tempo, 582524
1, 68136, Tempo, 588235
1, 68148, Tempo, 594059
1, 68160, Tempo, 600000
1, 68161, Tempo, 428571
1, 73440, Tempo, 428571
1, 73464, Tempo, 431655
1, 73488, Tempo, 434783
1, 73512, Tempo, 437956
1, 73536, Tempo, 441176
1, 73560, Tempo, 444444
1, 73584, Tempo, 447761
1, 73608, Tempo, 451128
1, 73632, Tempo, 454545
1, 73656, Tempo, 458015
1, 73680, Tempo, 461538
1, 73704, Tempo, 465116
1, 73728, Tempo, 468750
1, 73752, Tempo, 472441
1, 73776, Tempo, 476190
1, 73800, Tempo, 480000
1, 73824, Tempo, 483871
1, 73848, Tempo, 487805
1, 73872, Tempo, 491803
1, 73896, Tempo, 495868
1, 73920, Tempo, 500000
1, 73921, Tempo, 428571
1, 91920, Tempo, 428571
1, 91926, Tempo, 431655
1, 91932, Tempo, 434783
1, 91938, Tempo, 437956
1, 91944, Tempo, 441176
1, 91950, Tempo, 444444
1, 91956, Tempo, 447761
1, 91962, Tempo, 451128
1, 91968, Tempo, 454545
1, 91974, Tempo, 458015
1, 91980, Tempo, 461538
1, 91986, Tempo, 465116
1, 91992, Tempo, 468750
1, 91998, Tempo, 472441
1, 92004, Tempo, 476190
1, 92010, Tempo, 480000
1, 92016, Tempo, 483871
1, 92022, Tempo, 487805
1, 92028, Tempo, 491803
1, 92034, Tempo, 495868
1, 92040, Tempo, 500000
1, 92046, Tempo, 504202
1, 92052, Tempo, 508475
1, 92058, Tempo, 512821
1, 92064, Tempo, 517241
1, 92070, Tempo, 521739
1, 92076, Tempo, 526316
1, 92082, Tempo, 530973
1, 92088, Tempo, 535714
1, 92094, Tempo, 540541
1, 92100, Tempo, 545455
1, 92106, Tempo, 550459
1, 92112, Tempo, 555556
1, 92118, Tempo, 560748
1, 92124, Tempo, 566038
1, 92130, Tempo, 571429
1, 92136, Tempo, 576923
1, 92142, Tempo, 582524
1, 92148, Tempo, 588235
1, 92154, Tempo, 594059
1, 92160, Tempo, 600000
1, 92161, Tempo, 428571
1, 100320, Tempo, 500000
1, 100560, Tempo, 1500000
1, 100560, End_track
2, 0, Start_track
2, 0, MIDI_port, 0
2, 0, Program_c, 0, 0
2, 0, Control_c, 0, 7, 127
2, 0, Control_c, 0, 10, 84
2, 0, Control_c, 0, 121, 0
2, 0, Control_c, 0, 91, 75
2, 0, Note_on_c, 0, 77, 80
2, 239, Note_on_c, 0, 81, 85
2, 240, Note_on_c, 0, 77, 0
2, 469, Note_on_c, 0, 81, 0
2, 480, Note_on_c, 0, 81, 72
2, 540, Note_on_c, 0, 79, 80
2, 550, Note_on_c, 0, 81, 0
2, 592, Note_on_c, 0, 79, 0
2, 601, Note_on_c, 0, 79, 85
2, 661, Note_on_c, 0, 76, 80
2, 662, Note_on_c, 0, 79, 0
2, 721, Note_on_c, 0, 77, 89
2, 724, Note_on_c, 0, 76, 0
2, 898, Note_on_c, 0, 77, 0
2, 901, Note_on_c, 0, 81, 85
2, 951, Note_on_c, 0, 81, 0
2, 961, Note_on_c, 0, 81, 93
2, 1021, Note_on_c, 0, 79, 76
2, 1025, Note_on_c, 0, 81, 0
2, 1070, Note_on_c, 0, 79, 0
2, 1081, Note_on_c, 0, 79, 68
2, 1141, Note_on_c, 0, 76, 76
2, 1143, Note_on_c, 0, 79, 0
2, 1198, Note_on_c, 0, 76, 0
2, 1201, Note_on_c, 0, 77, 85
2, 1379, Note_on_c, 0, 81, 80
2, 1382, Note_on_c, 0, 77, 0
2, 1437, Note_on_c, 0, 81, 0
2, 1439, Note_on_c, 0, 84, 85
2, 1499, Note_on_c, 0, 82, 80
2, 1503, Note_on_c, 0, 84, 0
2, 1552, Note_on_c, 0, 82, 0
2, 1559, Note_on_c, 0, 82, 80
2, 1619, Note_on_c, 0, 79, 76
2, 1621, Note_on_c, 0, 82, 0
2, 1681, Note_on_c, 0, 82, 76
2, 1684, Note_on_c, 0, 79, 0
2, 1739, Note_on_c, 0, 81, 76
2, 1746, Note_on_c, 0, 82, 0
2, 1783, Note_on_c, 0, 81, 0
2, 1799, Note_on_c, 0, 81, 85
2, 1857, Note_on_c, 0, 81, 0
2, 1858, Note_on_c, 0, 77, 68
2, 1918, Note_on_c, 0, 77, 0
2, 1919, Note_on_c, 0, 74, 76
2, 2099, Note_on_c, 0, 76, 72
2, 2103, Note_on_c, 0, 74, 0
2, 2160, Note_on_c, 0, 77, 80
2, 2166, Note_on_c, 0, 76, 0
2, 2274, Note_on_c, 0, 77, 0
2, 2279, Note_on_c, 0, 79, 80
2, 2398, Note_on_c, 0, 72, 76
2, 2400, Note_on_c, 0, 79, 0
2, 2698, Note_on_c, 0, 73, 80
2, 2699, Note_on_c, 0, 72, 0
2, 2759, Note_on_c, 0, 74, 85
2, 2765, Note_on_c, 0, 73, 0
2, 2818, Note_on_c, 0, 76, 80
2, 2822, Note_on_c, 0, 74, 0
2, 2879, Note_on_c, 0, 77, 76
2, 2882, Note_on_c, 0, 76, 0
2, 3119, Note_on_c, 0, 81, 72
2, 3127, Note_on_c, 0, 77, 0
2, 3353, Note_on_c, 0, 81, 0
2, 3360, Note_on_c, 0, 81, 76
2, 3419, Note_on_c, 0, 79, 72
2, 3424, Note_on_c, 0, 81, 0
2, 3476, Note_on_c, 0, 79, 0
2, 3481, Note_on_c, 0, 79, 80
2, 3535, Note_on_c, 0, 79, 0
2, 3539, Note_on_c, 0, 76, 60
2, 3599, Note_on_c, 0, 77, 72
2, 3601, Note_on_c, 0, 76, 0
2, 3778, Note_on_c, 0, 77, 0
2, 3779, Note_on_c, 0, 81, 76
2, 3832, Note_on_c, 0, 81, 0
2, 3841, Note_on_c, 0, 81, 85
2, 3900, Note_on_c, 0, 79, 80
2, 3907, Note_on_c, 0, 81, 0
2, 3947, Note_on_c, 0, 79, 0
2, 3960, Note_on_c, 0, 79, 89
2, 4019, Note_on_c, 0, 79, 0
2, 4020, Note_on_c, 0, 76, 68
2, 4080, Note_on_c, 0, 76, 0
2, 4081, Note_on_c, 0, 77, 89
2, 4259, Note_on_c, 0, 81, 76
2, 4263, Note_on_c, 0, 77, 0
2, 4319, Note_on_c, 0, 81, 0
2, 4320, Note_on_c, 0, 84, 89
2, 4380, Note_on_c, 0, 82, 76
2, 4386, Note_on_c, 0, 84, 0
2, 4425, Note_on_c, 0, 82, 0
2, 4440, Note_on_c, 0, 82, 80
2, 4501, Note_on_c, 0, 79, 72
2, 4505, Note_on_c, 0, 82, 0
2, 4561, Note_on_c, 0, 79, 0
2, 4561, Note_on_c, 0, 82, 76
2, 4620, Note_on_c, 0, 81, 62
2, 4626, Note_on_c, 0, 82, 0
2, 4658, Note_on_c, 0, 81, 0
2, 4680, Note_on_c, 0, 81, 89
2, 4737, Note_on_c, 0, 81, 0
2, 4739, Note_on_c, 0, 77, 62
2, 4798, Note_on_c, 0, 77, 0
2, 4799, Note_on_c, 0, 74, 76
2, 4979, Note_on_c, 0, 79, 72
2, 4984, Note_on_c, 0, 74, 0
2, 5041, Note_on_c, 0, 77, 76
2, 5047, Note_on_c, 0, 79, 0
2, 5075, Note_on_c, 0, 77, 0
2, 5161, Note_on_c, 0, 76, 85
2, 5161, Note_on_c, 0, 70, 72
2, 5185, Note_on_c, 0, 76, 0
2, 5188, Note_on_c, 0, 70, 0
2, 5281, Note_on_c, 0, 70, 64
2, 5281, Note_on_c, 0, 76, 89
2, 5509, Note_on_c, 0, 76, 0
2, 5511, Note_on_c, 0, 70, 0
2, 5519, Note_on_c, 0, 77, 64
2, 5519, Note_on_c, 0, 69, 64
2, 5648, Note_on_c, 0, 69, 0
2, 5651, Note_on_c, 0, 77, 0
2, 5759, Note_on_c, 0, 79, 85
2, 5993, Note_on_c, 0, 79, 0
2, 5998, Note_on_c, 0, 81, 80
2, 6240, Note_on_c, 0, 79, 80
2, 6250, Note_on_c, 0, 81, 0
2, 6300, Note_on_c, 0, 77, 68
2, 6308, Note_on_c, 0, 79, 0
2, 6343, Note_on_c, 0, 77, 0
2, 6361, Note_on_c, 0, 77, 62
2, 6421, Note_on_c, 0, 76, 80
2, 6423, Note_on_c, 0, 77, 0
2, 6464, Note_on_c, 0, 76, 0
2, 6481, Note_on_c, 0, 76, 85
2, 6710, Note_on_c, 0, 76, 0
2, 6718, Note_on_c, 0, 79, 89
2, 6899, Note_on_c, 0, 84, 72
2, 6907, Note_on_c, 0, 79, 0
2, 6959, Note_on_c, 0, 83, 76
2, 6967, Note_on_c, 0, 84, 0
2, 7021, Note_on_c, 0, 81, 72
2, 7032, Note_on_c, 0, 83, 0
2, 7094, Note_on_c, 0, 81, 0
2, 7141, Note_on_c, 0, 81, 76
2, 7161, Note_on_c, 0, 81, 0
2, 7200, Note_on_c, 0, 79, 64
2, 7261, Note_on_c, 0, 77, 57
2, 7265, Note_on_c, 0, 79, 0
2, 7318, Note_on_c, 0, 77, 0
2, 7381, Note_on_c, 0, 77, 80
2, 7401, Note_on_c, 0, 77, 0
2, 7439, Note_on_c, 0, 75, 60
2, 7500, Note_on_c, 0, 76, 76
2, 7501, Note_on_c, 0, 75, 0
2, 7565, Note_on_c, 0, 76, 0
2, 7621, Note_on_c, 0, 76, 80
2, 7643, Note_on_c, 0, 76, 0
2, 7680, Note_on_c, 0, 74, 60
2, 7740, Note_on_c, 0, 74, 0
2, 7746, Note_on_c, 0, 76, 76
2, 7767, Note_on_c, 0, 74, 72
2, 7770, Note_on_c, 0, 76, 0
2, 7788, Note_on_c, 0, 74, 0
2, 7788, Note_on_c, 0, 73, 62
2, 7801, Note_on_c, 0, 74, 76
2, 7805, Note_on_c, 0, 73, 0
2, 7828, Note_on_c, 0, 74, 0
2, 7864, Note_on_c, 0, 76, 80
2, 7883, Note_on_c, 0, 76, 0
2, 7919, Note_on_c, 0, 77, 64
2, 7938, Note_on_c, 0, 77, 0
2, 7978, Note_on_c, 0, 79, 72
2, 7996, Note_on_c, 0, 79, 0
2, 8038, Note_on_c, 0, 80, 76
2, 8056, Note_on_c, 0, 80, 0
2, 8098, Note_on_c, 0, 81, 80
2, 8114, Note_on_c, 0, 81, 0
2, 8155, Note_on_c, 0, 72, 64
2, 8339, Note_on_c, 0, 72, 0
2, 8340, Note_on_c, 0, 74, 72
2, 8370, Note_on_c, 0, 72, 64
2, 8375, Note_on_c, 0, 74, 0
2, 8396, Note_on_c, 0, 72, 0
2, 8396, Note_on_c, 0, 71, 62
2, 8453, Note_on_c, 0, 71, 0
2, 8455, Note_on_c, 0, 72, 80
2, 8468, Note_on_c, 0, 72, 0
2, 8516, Note_on_c, 0, 74, 72
2, 8533, Note_on_c, 0, 74, 0
2, 8577, Note_on_c, 0, 76, 80
2, 8595, Note_on_c, 0, 76, 0
2, 8638, Note_on_c, 0, 77, 85
2, 8877, Note_on_c, 0, 76, 76
2, 8883, Note_on_c, 0, 77, 0
2, 9112, Note_on_c, 0, 74, 72
2, 9113, Note_on_c, 0, 76, 0
2, 9158, Note_on_c, 0, 76, 85
2, 9163, Note_on_c, 0, 74, 0
2, 9199, Note_on_c, 0, 77, 76
2, 9201, Note_on_c, 0, 76, 0
2, 9237, Note_on_c, 0, 77, 0
2, 9240, Note_on_c, 0, 79, 62
2, 9279, Note_on_c, 0, 81, 76
2, 9280, Note_on_c, 0, 79, 0
2, 9316, Note_on_c, 0, 83, 85
2, 9320, Note_on_c, 0, 81, 0
2, 9359, Note_on_c, 0, 83, 0
2, 9361, Note_on_c, 0, 84, 76
2, 9499, Note_on_c, 0, 84, 0
2, 9593, Note_on_c, 0, 79, 80
2, 9659, Note_on_c, 0, 79, 0
2, 9659, Note_on_c, 0, 77, 64
2, 9718, Note_on_c, 0, 77, 0
2, 9782, Note_on_c, 0, 77, 72
2, 9812, Note_on_c, 0, 77, 0
2, 9839, Note_on_c, 0, 77, 76
2, 9900, Note_on_c, 0, 76, 76
2, 9901, Note_on_c, 0, 77, 0
2, 9952, Note_on_c, 0, 76, 0
2, 10017, Note_on_c, 0, 76, 72
2, 10074, Note_on_c, 0, 76, 0
2, 10078, Note_on_c, 0, 74, 64
2, 10109, Note_on_c, 0, 74, 0
2, 10109, Note_on_c, 0, 76, 64
2, 10139, Note_on_c, 0, 77, 76
2, 10145, Note_on_c, 0, 76, 0
2, 10169, Note_on_c, 0, 78, 76
2, 10172, Note_on_c, 0, 77, 0
2, 10193, Note_on_c, 0, 78, 0
2, 10199, Note_on_c, 0, 79, 76
2, 10229, Note_on_c, 0, 80, 60
2, 10232, Note_on_c, 0, 79, 0
2, 10254, Note_on_c, 0, 80, 0
2, 10259, Note_on_c, 0, 81, 59
2, 10289, Note_on_c, 0, 83, 80
2, 10294, Note_on_c, 0, 81, 0
2, 10319, Note_on_c, 0, 83, 0
2, 10319, Note_on_c, 0, 84, 76
2, 10446, Note_on_c, 0, 84, 0
2, 10558, Note_on_c, 0, 84, 85
2, 10649, Note_on_c, 0, 84, 0
2, 10649, Note_on_c, 0, 81, 68
2, 10675, Note_on_c, 0, 81, 0
2, 10679, Note_on_c, 0, 78, 76
2, 10915, Note_on_c, 0, 78, 0
2, 10919, Note_on_c, 0, 79, 85
2, 11039, Note_on_c, 0, 81, 89
2, 11044, Note_on_c, 0, 79, 0
2, 11131, Note_on_c, 0, 77, 72
2, 11138, Note_on_c, 0, 81, 0
2, 11159, Note_on_c, 0, 77, 0
2, 11161, Note_on_c, 0, 74, 59
2, 11397, Note_on_c, 0, 74, 0
2, 11398, Note_on_c, 0, 76, 80
2, 11519, Note_on_c, 0, 77, 80
2, 11522, Note_on_c, 0, 76, 0
2, 11581, Note_on_c, 0, 79, 76
2, 11582, Note_on_c, 0, 77, 0
2, 11611, Note_on_c, 0, 81, 72
2, 11613, Note_on_c, 0, 79, 0
2, 11642, Note_on_c, 0, 79, 80
2, 11650, Note_on_c, 0, 81, 0
2, 11671, Note_on_c, 0, 77, 64
2, 11680, Note_on_c, 0, 79, 0
2, 11701, Note_on_c, 0, 76, 76
2, 11706, Note_on_c, 0, 77, 0
2, 11729, Note_on_c, 0, 76, 0
2, 11731, Note_on_c, 0, 74, 57
2, 11761, Note_on_c, 0, 72, 76
2, 11765, Note_on_c, 0, 74, 0
2, 11878, Note_on_c, 0, 72, 0
2, 11879, Note_on_c, 0, 74, 80
2, 11905, Note_on_c, 0, 74, 0
2, 12001, Note_on_c, 0, 71, 64
2, 12001, Note_on_c, 0, 74, 72
2, 12176, Note_on_c, 0, 74, 0
2, 12180, Note_on_c, 0, 75, 64
2, 12228, Note_on_c, 0, 75, 0
2, 12235, Note_on_c, 0, 71, 0
2, 12239, Note_on_c, 0, 76, 62
2, 12239, Note_on_c, 0, 72, 76
2, 12381, Note_on_c, 0, 72, 0
2, 12389, Note_on_c, 0, 76, 0
2, 12482, Note_on_c, 0, 84, 89
2, 12511, Note_on_c, 0, 84, 0
2, 12512, Note_on_c, 0, 83, 76
2, 12539, Note_on_c, 0, 83, 0
2, 12542, Note_on_c, 0, 84, 60
2, 12572, Note_on_c, 0, 84, 0
2, 12572, Note_on_c, 0, 81, 76
2, 12602, Note_on_c, 0, 78, 64
2, 12604, Note_on_c, 0, 81, 0
2, 12827, Note_on_c, 0, 78, 0
2, 12839, Note_on_c, 0, 79, 80
2, 12901, Note_on_c, 0, 79, 0
2, 12901, Note_on_c, 0, 80, 76
2, 12960, Note_on_c, 0, 80, 0
2, 12961, Note_on_c, 0, 81, 68
2, 12991, Note_on_c, 0, 80, 60
2, 12993, Note_on_c, 0, 81, 0
2, 13018, Note_on_c, 0, 80, 0
2, 13021, Note_on_c, 0, 81, 68
2, 13052, Note_on_c, 0, 81, 0
2, 13052, Note_on_c, 0, 77, 76
2, 13082, Note_on_c, 0, 74, 68
2, 13085, Note_on_c, 0, 77, 0
2, 13254, Note_on_c, 0, 74, 0
2, 13261, Note_on_c, 0, 75, 68
2, 13320, Note_on_c, 0, 75, 0
2, 13321, Note_on_c, 0, 76, 76
2, 13351, Note_on_c, 0, 77, 72
2, 13356, Note_on_c, 0, 76, 0
2, 13382, Note_on_c, 0, 78, 64
2, 13386, Note_on_c, 0, 77, 0
2, 13412, Note_on_c, 0, 79, 62
2, 13413, Note_on_c, 0, 78, 0
2, 13442, Note_on_c, 0, 80, 76
2, 13445, Note_on_c, 0, 79, 0
2, 13497, Note_on_c, 0, 80, 0
2, 13502, Note_on_c, 0, 81, 72
2, 13556, Note_on_c, 0, 81, 0
2, 13561, Note_on_c, 0, 79, 76
2, 13591, Note_on_c, 0, 77, 76
2, 13596, Note_on_c, 0, 79, 0
2, 13620, Note_on_c, 0, 77, 0
2, 13621, Note_on_c, 0, 76, 57
2, 13651, Note_on_c, 0, 76, 0
2, 13651, Note_on_c, 0, 74, 60
2, 13681, Note_on_c, 0, 72, 68
2, 13683, Note_on_c, 0, 74, 0
2, 13800, Note_on_c, 0, 76, 60
2, 13803, Note_on_c, 0, 72, 0
2, 13861, Note_on_c, 0, 76, 0
2, 13861, Note_on_c, 0, 74, 72
2, 13919, Note_on_c, 0, 74, 0
2, 13920, Note_on_c, 0, 72, 64
2, 14050, Note_on_c, 0, 72, 0
2, 14101, Note_on_c, 0, 72, 68
2, 14122, Note_on_c, 0, 72, 0
2, 14129, Note_on_c, 0, 71, 53
2, 14152, Note_on_c, 0, 71, 0
2, 14159, Note_on_c, 0, 74, 76
2, 14185, Note_on_c, 0, 74, 0
2, 14188, Note_on_c, 0, 72, 62
2, 14216, Note_on_c, 0, 72, 0
2, 14219, Note_on_c, 0, 76, 62
2, 14249, Note_on_c, 0, 74, 76
2, 14251, Note_on_c, 0, 76, 0
2, 14273, Note_on_c, 0, 74, 0
2, 14279, Note_on_c, 0, 77, 76
2, 14304, Note_on_c, 0, 77, 0
2, 14308, Note_on_c, 0, 76, 76
2, 14335, Note_on_c, 0, 76, 0
2, 14338, Note_on_c, 0, 79, 60
2, 14363, Note_on_c, 0, 79, 0
2, 14368, Note_on_c, 0, 77, 62
2, 14391, Note_on_c, 0, 77, 0
2, 14398, Note_on_c, 0, 81, 72
2, 14459, Note_on_c, 0, 79, 85
2, 14465, Note_on_c, 0, 81, 0
2, 14475, Note_on_c, 0, 79, 0
2, 14520, Note_on_c, 0, 79, 76
2, 14702, Note_on_c, 0, 78, 76
2, 14710, Note_on_c, 0, 79, 0
2, 14761, Note_on_c, 0, 78, 0
2, 14763, Note_on_c, 0, 77, 72
2, 14815, Note_on_c, 0, 77, 0
2, 14821, Note_on_c, 0, 74, 64
2, 14881, Note_on_c, 0, 74, 0
2, 14882, Note_on_c, 0, 71, 64
2, 14940, Note_on_c, 0, 71, 0
2, 14941, Note_on_c, 0, 72, 76
2, 15009, Note_on_c, 0, 72, 0
2, 15061, Note_on_c, 0, 72, 76
2, 15092, Note_on_c, 0, 72, 0
2, 15092, Note_on_c, 0, 71, 76
2, 15115, Note_on_c, 0, 71, 0
2, 15121, Note_on_c, 0, 74, 76
2, 15146, Note_on_c, 0, 74, 0
2, 15151, Note_on_c, 0, 72, 64
2, 15176, Note_on_c, 0, 72, 0
2, 15181, Note_on_c, 0, 76, 64
2, 15206, Note_on_c, 0, 76, 0
2, 15209, Note_on_c, 0, 74, 72
2, 15234, Note_on_c, 0, 74, 0
2, 15239, Note_on_c, 0, 77, 76
2, 15268, Note_on_c, 0, 77, 0
2, 15269, Note_on_c, 0, 76, 60
2, 15295, Note_on_c, 0, 76, 0
2, 15299, Note_on_c, 0, 79, 76
2, 15328, Note_on_c, 0, 79, 0
2, 15328, Note_on_c, 0, 77, 59
2, 15358, Note_on_c, 0, 77, 0
2, 15359, Note_on_c, 0, 81, 64
2, 15418, Note_on_c, 0, 79, 80
2, 15422, Note_on_c, 0, 81, 0
2, 15437, Note_on_c, 0, 79, 0
2, 15478, Note_on_c, 0, 79, 76
2, 15662, Note_on_c, 0, 78, 62
2, 15672, Note_on_c, 0, 79, 0
2, 15715, Note_on_c, 0, 78, 0
2, 15721, Note_on_c, 0, 77, 72
2, 15781, Note_on_c, 0, 77, 0
2, 15782, Note_on_c, 0, 74, 64
2, 15838, Note_on_c, 0, 74, 0
2, 15842, Note_on_c, 0, 71, 53
2, 15902, Note_on_c, 0, 72, 57
2, 15904, Note_on_c, 0, 71, 0
2, 15965, Note_on_c, 0, 72, 0
2, 16021, Note_on_c, 0, 72, 80
2, 16051, Note_on_c, 0, 72, 0
2, 16051, Note_on_c, 0, 71, 80
2, 16075, Note_on_c, 0, 71, 0
2, 16081, Note_on_c, 0, 74, 76
2, 16108, Note_on_c, 0, 74, 0
2, 16111, Note_on_c, 0, 72, 68
2, 16136, Note_on_c, 0, 72, 0
2, 16140, Note_on_c, 0, 76, 76
2, 16168, Note_on_c, 0, 76, 0
2, 16170, Note_on_c, 0, 74, 76
2, 16194, Note_on_c, 0, 74, 0
2, 16199, Note_on_c, 0, 77, 80
2, 16227, Note_on_c, 0, 77, 0
2, 16229, Note_on_c, 0, 76, 76
2, 16254, Note_on_c, 0, 76, 0
2, 16259, Note_on_c, 0, 79, 80
2, 16289, Note_on_c, 0, 77, 72
2, 16292, Note_on_c, 0, 79, 0
2, 16311, Note_on_c, 0, 77, 0
2, 16319, Note_on_c, 0, 81, 76
2, 16379, Note_on_c, 0, 79, 76
2, 16381, Note_on_c, 0, 81, 0
2, 16425, Note_on_c, 0, 79, 0
2, 16501, Note_on_c, 0, 76, 93
2, 16531, Note_on_c, 0, 76, 0
2, 16531, Note_on_c, 0, 74, 85
2, 16553, Note_on_c, 0, 74, 0
2, 16561, Note_on_c, 0, 77, 85
2, 16591, Note_on_c, 0, 76, 80
2, 16593, Note_on_c, 0, 77, 0
2, 16614, Note_on_c, 0, 76, 0
2, 16621, Note_on_c, 0, 79, 89
2, 16648, Note_on_c, 0, 79, 0
2, 16651, Note_on_c, 0, 77, 68
2, 16673, Note_on_c, 0, 77, 0
2, 16679, Note_on_c, 0, 81, 89
2, 16709, Note_on_c, 0, 81, 0
2, 16711, Note_on_c, 0, 79, 76
2, 16734, Note_on_c, 0, 79, 0
2, 16740, Note_on_c, 0, 82, 80
2, 16770, Note_on_c, 0, 81, 72
2, 16771, Note_on_c, 0, 82, 0
2, 16792, Note_on_c, 0, 81, 0
2, 16799, Note_on_c, 0, 84, 89
2, 16857, Note_on_c, 0, 84, 0
2, 16859, Note_on_c, 0, 82, 80
2, 16903, Note_on_c, 0, 82, 0
2, 16981, Note_on_c, 0, 79, 85
2, 17009, Note_on_c, 0, 79, 0
2, 17012, Note_on_c, 0, 78, 76
2, 17033, Note_on_c, 0, 78, 0
2, 17042, Note_on_c, 0, 81, 93
2, 17071, Note_on_c, 0, 79, 64
2, 17073, Note_on_c, 0, 81, 0
2, 17097, Note_on_c, 0, 79, 0
2, 17102, Note_on_c, 0, 82, 85
2, 17132, Note_on_c, 0, 81, 89
2, 17134, Note_on_c, 0, 82, 0
2, 17157, Note_on_c, 0, 81, 0
2, 17162, Note_on_c, 0, 84, 89
2, 17192, Note_on_c, 0, 82, 68
2, 17193, Note_on_c, 0, 84, 0
2, 17218, Note_on_c, 0, 82, 0
2, 17222, Note_on_c, 0, 86, 93
2, 17248, Note_on_c, 0, 86, 0
2, 17250, Note_on_c, 0, 84, 72
2, 17268, Note_on_c, 0, 84, 0
2, 17282, Note_on_c, 0, 87, 80
2, 17340, Note_on_c, 0, 87, 0
2, 17341, Note_on_c, 0, 86, 80
2, 17355, Note_on_c, 0, 86, 0
2, 17402, Note_on_c, 0, 85, 64
2, 17419, Note_on_c, 0, 85, 0
2, 17462, Note_on_c, 0, 84, 72
2, 17480, Note_on_c, 0, 84, 0
2, 17522, Note_on_c, 0, 83, 68
2, 17537, Note_on_c, 0, 83, 0
2, 17582, Note_on_c, 0, 82, 68
2, 17601, Note_on_c, 0, 82, 0
2, 17642, Note_on_c, 0, 81, 76
2, 17658, Note_on_c, 0, 81, 0
2, 17702, Note_on_c, 0, 80, 76
2, 17717, Note_on_c, 0, 80, 0
2, 17766, Note_on_c, 0, 79, 80
2, 17828, Note_on_c, 0, 79, 0
2, 17830, Note_on_c, 0, 81, 76
2, 17850, Note_on_c, 0, 81, 0
2, 17851, Note_on_c, 0, 79, 68
2, 17866, Note_on_c, 0, 78, 68
2, 17867, Note_on_c, 0, 79, 0
2, 17879, Note_on_c, 0, 78, 0
2, 17881, Note_on_c, 0, 79, 89
2, 17904, Note_on_c, 0, 79, 0
2, 17947, Note_on_c, 0, 81, 85
2, 17963, Note_on_c, 0, 81, 0
2, 18006, Note_on_c, 0, 84, 89
2, 18065, Note_on_c, 0, 82, 60
2, 18067, Note_on_c, 0, 84, 0
2, 18128, Note_on_c, 0, 79, 76
2, 18131, Note_on_c, 0, 82, 0
2, 18184, Note_on_c, 0, 79, 0
2, 18184, Note_on_c, 0, 76, 57
2, 18243, Note_on_c, 0, 76, 0
2, 18245, Note_on_c, 0, 77, 76
2, 18422, Note_on_c, 0, 77, 0
2, 18423, Note_on_c, 0, 79, 76
2, 18440, Note_on_c, 0, 77, 64
2, 18448, Note_on_c, 0, 79, 0
2, 18455, Note_on_c, 0, 76, 68
2, 18458, Note_on_c, 0, 77, 0
2, 18468, Note_on_c, 0, 77, 76
2, 18472, Note_on_c, 0, 76, 0
2, 18484, Note_on_c, 0, 77, 0
2, 18485, Note_on_c, 0, 81, 72
2, 18704, Note_on_c, 0, 81, 0
2, 18720, Note_on_c, 0, 81, 80
2, 18781, Note_on_c, 0, 79, 68
2, 18789, Note_on_c, 0, 81, 0
2, 18831, Note_on_c, 0, 79, 0
2, 18841, Note_on_c, 0, 79, 64
2, 18901, Note_on_c, 0, 79, 0
2, 18902, Note_on_c, 0, 76, 64
2, 18962, Note_on_c, 0, 76, 0
2, 18962, Note_on_c, 0, 77, 89
2, 19140, Note_on_c, 0, 77, 0
2, 19142, Note_on_c, 0, 81, 89
2, 19202, Note_on_c, 0, 78, 76
2, 19209, Note_on_c, 0, 81, 0
2, 19262, Note_on_c, 0, 78, 0
2, 19263, Note_on_c, 0, 79, 89
2, 19322, Note_on_c, 0, 79, 0
2, 19323, Note_on_c, 0, 82, 85
2, 19383, Note_on_c, 0, 76, 80
2, 19386, Note_on_c, 0, 82, 0
2, 19443, Note_on_c, 0, 79, 85
2, 19445, Note_on_c, 0, 76, 0
2, 19503, Note_on_c, 0, 77, 72
2, 19504, Note_on_c, 0, 79, 0
2, 19621, Note_on_c, 0, 77, 0
2, 19622, Note_on_c, 0, 81, 80
2, 19681, Note_on_c, 0, 84, 80
2, 19686, Note_on_c, 0, 81, 0
2, 19741, Note_on_c, 0, 83, 80
2, 19751, Note_on_c, 0, 84, 0
2, 19802, Note_on_c, 0, 82, 76
2, 19805, Note_on_c, 0, 83, 0
2, 19860, Note_on_c, 0, 82, 0
2, 19861, Note_on_c, 0, 79, 80
2, 19921, Note_on_c, 0, 82, 85
2, 19923, Note_on_c, 0, 79, 0
2, 19982, Note_on_c, 0, 80, 89
2, 19983, Note_on_c, 0, 82, 0
2, 20035, Note_on_c, 0, 80, 0
2, 20041, Note_on_c, 0, 81, 85
2, 20100, Note_on_c, 0, 81, 0
2, 20101, Note_on_c, 0, 77, 62
2, 20161, Note_on_c, 0, 77, 0
2, 20162, Note_on_c, 0, 74, 76
2, 20191, Note_on_c, 0, 74, 0
2, 20225, Note_on_c, 0, 76, 68
2, 20243, Note_on_c, 0, 76, 0
2, 20243, Note_on_c, 0, 74, 72
2, 20262, Note_on_c, 0, 74, 0
2, 20265, Note_on_c, 0, 73, 43
2, 20276, Note_on_c, 0, 73, 0
2, 20276, Note_on_c, 0, 74, 80
2, 20343, Note_on_c, 0, 74, 0
2, 20345, Note_on_c, 0, 76, 76
2, 20402, Note_on_c, 0, 76, 0
2, 20405, Note_on_c, 0, 77, 80
2, 20466, Note_on_c, 0, 77, 0
2, 20466, Note_on_c, 0, 78, 85
2, 20525, Note_on_c, 0, 78, 0
2, 20527, Note_on_c, 0, 81, 85
2, 20588, Note_on_c, 0, 81, 0
2, 20588, Note_on_c, 0, 79, 80
2, 20650, Note_on_c, 0, 72, 72
2, 20651, Note_on_c, 0, 79, 0
2, 20941, Note_on_c, 0, 72, 0
2, 20943, Note_on_c, 0, 74, 85
2, 20972, Note_on_c, 0, 73, 62
2, 20974, Note_on_c, 0, 74, 0
2, 20997, Note_on_c, 0, 73, 0
2, 21001, Note_on_c, 0, 76, 80
2, 21031, Note_on_c, 0, 74, 64
2, 21034, Note_on_c, 0, 76, 0
2, 21063, Note_on_c, 0, 77, 72
2, 21064, Note_on_c, 0, 74, 0
2, 21093, Note_on_c, 0, 76, 80
2, 21097, Note_on_c, 0, 77, 0
2, 21120, Note_on_c, 0, 76, 0
2, 21121, Note_on_c, 0, 79, 72
2, 21138, Note_on_c, 0, 77, 80
2, 21141, Note_on_c, 0, 79, 0
2, 21300, Note_on_c, 0, 77, 0
2, 21301, Note_on_c, 0, 79, 80
2, 21319, Note_on_c, 0, 77, 76
2, 21325, Note_on_c, 0, 79, 0
2, 21333, Note_on_c, 0, 76, 72
2, 21336, Note_on_c, 0, 77, 0
2, 21348, Note_on_c, 0, 77, 80
2, 21353, Note_on_c, 0, 76, 0
2, 21367, Note_on_c, 0, 77, 0
2, 21368, Note_on_c, 0, 81, 76
2, 21602, Note_on_c, 0, 81, 0
2, 21602, Note_on_c, 0, 79, 80
2, 21666, Note_on_c, 0, 82, 76
2, 21667, Note_on_c, 0, 79, 0
2, 21727, Note_on_c, 0, 76, 76
2, 21729, Note_on_c, 0, 82, 0
2, 21785, Note_on_c, 0, 76, 0
2, 21785, Note_on_c, 0, 79, 76
2, 21848, Note_on_c, 0, 77, 85
2, 21851, Note_on_c, 0, 79, 0
2, 22026, Note_on_c, 0, 81, 80
2, 22030, Note_on_c, 0, 77, 0
2, 22085, Note_on_c, 0, 79, 76
2, 22086, Note_on_c, 0, 81, 0
2, 22119, Note_on_c, 0, 81, 76
2, 22124, Note_on_c, 0, 79, 0
2, 22146, Note_on_c, 0, 82, 62
2, 22151, Note_on_c, 0, 81, 0
2, 22179, Note_on_c, 0, 79, 68
2, 22180, Note_on_c, 0, 82, 0
2, 22200, Note_on_c, 0, 79, 0
2, 22208, Note_on_c, 0, 76, 76
2, 22241, Note_on_c, 0, 77, 72
2, 22242, Note_on_c, 0, 76, 0
2, 22267, Note_on_c, 0, 77, 0
2, 22271, Note_on_c, 0, 79, 76
2, 22297, Note_on_c, 0, 76, 72
2, 22298, Note_on_c, 0, 79, 0
2, 22323, Note_on_c, 0, 76, 0
2, 22329, Note_on_c, 0, 77, 80
2, 22500, Note_on_c, 0, 81, 89
2, 22502, Note_on_c, 0, 77, 0
2, 22559, Note_on_c, 0, 84, 89
2, 22560, Note_on_c, 0, 81, 0
2, 22622, Note_on_c, 0, 83, 80
2, 22623, Note_on_c, 0, 84, 0
2, 22682, Note_on_c, 0, 82, 76
2, 22686, Note_on_c, 0, 83, 0
2, 22737, Note_on_c, 0, 82, 0
2, 22742, Note_on_c, 0, 79, 72
2, 22801, Note_on_c, 0, 82, 68
2, 22804, Note_on_c, 0, 79, 0
2, 22861, Note_on_c, 0, 80, 80
2, 22862, Note_on_c, 0, 82, 0
2, 22921, Note_on_c, 0, 80, 0
2, 22922, Note_on_c, 0, 81, 80
2, 22978, Note_on_c, 0, 81, 0
2, 22981, Note_on_c, 0, 77, 80
2, 23037, Note_on_c, 0, 77, 0
2, 23045, Note_on_c, 0, 74, 68
2, 23110, Note_on_c, 0, 74, 0
2, 23110, Note_on_c, 0, 76, 80
2, 23131, Note_on_c, 0, 74, 76
2, 23135, Note_on_c, 0, 76, 0
2, 23150, Note_on_c, 0, 73, 62
2, 23151, Note_on_c, 0, 74, 0
2, 23161, Note_on_c, 0, 74, 68
2, 23166, Note_on_c, 0, 73, 0
2, 23223, Note_on_c, 0, 79, 89
2, 23227, Note_on_c, 0, 74, 0
2, 23240, Note_on_c, 0, 79, 0
2, 23283, Note_on_c, 0, 77, 76
2, 23302, Note_on_c, 0, 77, 0
2, 23403, Note_on_c, 0, 76, 72
2, 23403, Note_on_c, 0, 70, 57
2, 23419, Note_on_c, 0, 70, 0
2, 23421, Note_on_c, 0, 76, 0
2, 23523, Note_on_c, 0, 70, 68
2, 23524, Note_on_c, 0, 76, 80
2, 23743, Note_on_c, 0, 76, 0
2, 23744, Note_on_c, 0, 70, 0
2, 23760, Note_on_c, 0, 77, 60
2, 23763, Note_on_c, 0, 69, 64
2, 23888, Note_on_c, 0, 69, 0
2, 23891, Note_on_c, 0, 77, 0
2, 24000, Note_on_c, 0, 69, 90
2, 24014, Note_on_c, 0, 74, 90
2, 24017, Note_on_c, 0, 69, 0
2, 24031, Note_on_c, 0, 77, 80
2, 24035, Note_on_c, 0, 74, 0
2, 24048, Note_on_c, 0, 77, 0
2, 24048, Note_on_c, 0, 81, 93
2, 24183, Note_on_c, 0, 79, 76
2, 24186, Note_on_c, 0, 81, 0
2, 24204, Note_on_c, 0, 77, 64
2, 24218, Note_on_c, 0, 79, 0
2, 24225, Note_on_c, 0, 76, 64
2, 24232, Note_on_c, 0, 77, 0
2, 24241, Note_on_c, 0, 74, 72
2, 24244, Note_on_c, 0, 76, 0
2, 24292, Note_on_c, 0, 74, 0
2, 24302, Note_on_c, 0, 74, 76
2, 24302, Note_on_c, 0, 69, 72
2, 24348, Note_on_c, 0, 69, 0
2, 24350, Note_on_c, 0, 74, 0
2, 24362, Note_on_c, 0, 74, 76
2, 24362, Note_on_c, 0, 69, 80
2, 24408, Note_on_c, 0, 69, 0
2, 24408, Note_on_c, 0, 74, 0
2, 24422, Note_on_c, 0, 69, 68
2, 24422, Note_on_c, 0, 74, 68
2, 24464, Note_on_c, 0, 74, 0
2, 24464, Note_on_c, 0, 69, 0
2, 24481, Note_on_c, 0, 73, 64
2, 24481, Note_on_c, 0, 69, 72
2, 24550, Note_on_c, 0, 69, 0
2, 24552, Note_on_c, 0, 73, 0
2, 24600, Note_on_c, 0, 69, 72
2, 24601, Note_on_c, 0, 74, 80
2, 24665, Note_on_c, 0, 69, 0
2, 24669, Note_on_c, 0, 74, 0
2, 24721, Note_on_c, 0, 69, 72
2, 24721, Note_on_c, 0, 76, 76
2, 24800, Note_on_c, 0, 69, 0
2, 24803, Note_on_c, 0, 76, 0
2, 24962, Note_on_c, 0, 73, 85
2, 24980, Note_on_c, 0, 76, 85
2, 24989, Note_on_c, 0, 73, 0
2, 24994, Note_on_c, 0, 79, 93
2, 25000, Note_on_c, 0, 76, 0
2, 25013, Note_on_c, 0, 82, 89
2, 25014, Note_on_c, 0, 79, 0
2, 25141, Note_on_c, 0, 81, 76
2, 25144, Note_on_c, 0, 82, 0
2, 25161, Note_on_c, 0, 79, 64
2, 25176, Note_on_c, 0, 81, 0
2, 25183, Note_on_c, 0, 77, 76
2, 25191, Note_on_c, 0, 79, 0
2, 25201, Note_on_c, 0, 76, 72
2, 25203, Note_on_c, 0, 77, 0
2, 25251, Note_on_c, 0, 76, 0
2, 25260, Note_on_c, 0, 76, 62
2, 25263, Note_on_c, 0, 73, 55
2, 25305, Note_on_c, 0, 73, 0
2, 25305, Note_on_c, 0, 76, 0
2, 25318, Note_on_c, 0, 76, 72
2, 25319, Note_on_c, 0, 73, 62
2, 25369, Note_on_c, 0, 73, 0
2, 25371, Note_on_c, 0, 76, 0
2, 25381, Note_on_c, 0, 76, 68
2, 25383, Note_on_c, 0, 73, 64
2, 25433, Note_on_c, 0, 73, 0
2, 25435, Note_on_c, 0, 76, 0
2, 25441, Note_on_c, 0, 74, 76
2, 25508, Note_on_c, 0, 74, 0
2, 25562, Note_on_c, 0, 76, 64
2, 25562, Note_on_c, 0, 73, 72
2, 25615, Note_on_c, 0, 73, 0
2, 25620, Note_on_c, 0, 76, 0
2, 25682, Note_on_c, 0, 77, 72
2, 25682, Note_on_c, 0, 74, 76
2, 25732, Note_on_c, 0, 74, 0
2, 25733, Note_on_c, 0, 77, 0
2, 25919, Note_on_c, 0, 77, 85
2, 25979, Note_on_c, 0, 76, 76
2, 25986, Note_on_c, 0, 77, 0
2, 26027, Note_on_c, 0, 76, 0
2, 26039, Note_on_c, 0, 76, 76
2, 26099, Note_on_c, 0, 73, 76
2, 26101, Note_on_c, 0, 76, 0
2, 26155, Note_on_c, 0, 73, 0
2, 26159, Note_on_c, 0, 74, 89
2, 26341, Note_on_c, 0, 77, 85
2, 26345, Note_on_c, 0, 74, 0
2, 26392, Note_on_c, 0, 77, 0
2, 26401, Note_on_c, 0, 77, 93
2, 26461, Note_on_c, 0, 76, 72
2, 26462, Note_on_c, 0, 77, 0
2, 26518, Note_on_c, 0, 76, 0
2, 26521, Note_on_c, 0, 79, 89
2, 26578, Note_on_c, 0, 79, 0
2, 26581, Note_on_c, 0, 73, 72
2, 26641, Note_on_c, 0, 76, 89
2, 26643, Note_on_c, 0, 73, 0
2, 26701, Note_on_c, 0, 74, 80
2, 26702, Note_on_c, 0, 76, 0
2, 26821, Note_on_c, 0, 77, 89
2, 26822, Note_on_c, 0, 74, 0
2, 26880, Note_on_c, 0, 77, 0
2, 26881, Note_on_c, 0, 81, 93
2, 26941, Note_on_c, 0, 80, 85
2, 26950, Note_on_c, 0, 81, 0
2, 27001, Note_on_c, 0, 79, 62
2, 27002, Note_on_c, 0, 80, 0
2, 27061, Note_on_c, 0, 76, 80
2, 27066, Note_on_c, 0, 79, 0
2, 27121, Note_on_c, 0, 79, 98
2, 27123, Note_on_c, 0, 76, 0
2, 27181, Note_on_c, 0, 78, 64
2, 27185, Note_on_c, 0, 79, 0
2, 27238, Note_on_c, 0, 78, 0
2, 27241, Note_on_c, 0, 77, 76
2, 27297, Note_on_c, 0, 77, 0
2, 27299, Note_on_c, 0, 74, 68
2, 27359, Note_on_c, 0, 73, 72
2, 27364, Note_on_c, 0, 74, 0
2, 27419, Note_on_c, 0, 76, 72
2, 27425, Note_on_c, 0, 73, 0
2, 27466, Note_on_c, 0, 76, 0
2, 27479, Note_on_c, 0, 76, 76
2, 27498, Note_on_c, 0, 76, 0
2, 27539, Note_on_c, 0, 76, 72
2, 27558, Note_on_c, 0, 76, 0
2, 27599, Note_on_c, 0, 76, 93
2, 27659, Note_on_c, 0, 81, 72
2, 27661, Note_on_c, 0, 76, 0
2, 27712, Note_on_c, 0, 81, 0
2, 27719, Note_on_c, 0, 81, 89
2, 27737, Note_on_c, 0, 81, 0
2, 27779, Note_on_c, 0, 81, 89
2, 27794, Note_on_c, 0, 81, 0
2, 27837, Note_on_c, 0, 69, 62
2, 27849, Note_on_c, 0, 74, 85
2, 27862, Note_on_c, 0, 69, 0
2, 27866, Note_on_c, 0, 77, 76
2, 27872, Note_on_c, 0, 74, 0
2, 27885, Note_on_c, 0, 77, 0
2, 27888, Note_on_c, 0, 81, 93
2, 28020, Note_on_c, 0, 79, 85
2, 28027, Note_on_c, 0, 81, 0
2, 28044, Note_on_c, 0, 77, 68
2, 28056, Note_on_c, 0, 79, 0
2, 28061, Note_on_c, 0, 76, 76
2, 28069, Note_on_c, 0, 77, 0
2, 28077, Note_on_c, 0, 74, 68
2, 28079, Note_on_c, 0, 76, 0
2, 28127, Note_on_c, 0, 74, 0
2, 28139, Note_on_c, 0, 74, 72
2, 28140, Note_on_c, 0, 69, 68
2, 28187, Note_on_c, 0, 69, 0
2, 28190, Note_on_c, 0, 74, 0
2, 28200, Note_on_c, 0, 69, 57
2, 28201, Note_on_c, 0, 74, 64
2, 28250, Note_on_c, 0, 69, 0
2, 28251, Note_on_c, 0, 74, 0
2, 28261, Note_on_c, 0, 74, 60
2, 28261, Note_on_c, 0, 69, 60
2, 28299, Note_on_c, 0, 69, 0
2, 28303, Note_on_c, 0, 74, 0
2, 28321, Note_on_c, 0, 73, 62
2, 28321, Note_on_c, 0, 69, 60
2, 28389, Note_on_c, 0, 69, 0
2, 28392, Note_on_c, 0, 73, 0
2, 28441, Note_on_c, 0, 74, 68
2, 28441, Note_on_c, 0, 69, 62
2, 28503, Note_on_c, 0, 69, 0
2, 28506, Note_on_c, 0, 74, 0
2, 28562, Note_on_c, 0, 76, 76
2, 28562, Note_on_c, 0, 69, 64
2, 28639, Note_on_c, 0, 69, 0
2, 28649, Note_on_c, 0, 76, 0
2, 28809, Note_on_c, 0, 73, 107
2, 28825, Note_on_c, 0, 76, 89
2, 28834, Note_on_c, 0, 73, 0
2, 28840, Note_on_c, 0, 79, 85
2, 28845, Note_on_c, 0, 76, 0
2, 28858, Note_on_c, 0, 79, 0
2, 28858, Note_on_c, 0, 82, 85
2, 28980, Note_on_c, 0, 81, 72
2, 28985, Note_on_c, 0, 82, 0
2, 28998, Note_on_c, 0, 79, 72
2, 29012, Note_on_c, 0, 81, 0
2, 29022, Note_on_c, 0, 77, 68
2, 29026, Note_on_c, 0, 79, 0
2, 29037, Note_on_c, 0, 76, 60
2, 29038, Note_on_c, 0, 77, 0
2, 29094, Note_on_c, 0, 76, 0
2, 29099, Note_on_c, 0, 76, 55
2, 29101, Note_on_c, 0, 73, 62
2, 29148, Note_on_c, 0, 73, 0
2, 29150, Note_on_c, 0, 76, 0
2, 29160, Note_on_c, 0, 76, 72
2, 29160, Note_on_c, 0, 73, 64
2, 29211, Note_on_c, 0, 73, 0
2, 29211, Note_on_c, 0, 76, 0
2, 29221, Note_on_c, 0, 76, 72
2, 29221, Note_on_c, 0, 73, 62
2, 29269, Note_on_c, 0, 73, 0
2, 29269, Note_on_c, 0, 76, 0
2, 29281, Note_on_c, 0, 74, 76
2, 29342, Note_on_c, 0, 74, 0
2, 29401, Note_on_c, 0, 76, 60
2, 29401, Note_on_c, 0, 73, 64
2, 29456, Note_on_c, 0, 73, 0
2, 29459, Note_on_c, 0, 76, 0
2, 29521, Note_on_c, 0, 77, 72
2, 29521, Note_on_c, 0, 74, 72
2, 29581, Note_on_c, 0, 74, 0
2, 29588, Note_on_c, 0, 77, 0
2, 29759, Note_on_c, 0, 75, 89
2, 29817, Note_on_c, 0, 75, 0
2, 29821, Note_on_c, 0, 77, 85
2, 29836, Note_on_c, 0, 75, 85
2, 29847, Note_on_c, 0, 77, 0
2, 29851, Note_on_c, 0, 74, 80
2, 29853, Note_on_c, 0, 75, 0
2, 29866, Note_on_c, 0, 75, 64
2, 29870, Note_on_c, 0, 74, 0
2, 29880, Note_on_c, 0, 75, 0
2, 29881, Note_on_c, 0, 79, 89
2, 29938, Note_on_c, 0, 79, 0
2, 29941, Note_on_c, 0, 73, 85
2, 29996, Note_on_c, 0, 73, 0
2, 30001, Note_on_c, 0, 76, 93
2, 30061, Note_on_c, 0, 74, 85
2, 30063, Note_on_c, 0, 76, 0
2, 30179, Note_on_c, 0, 74, 0
2, 30181, Note_on_c, 0, 77, 89
2, 30240, Note_on_c, 0, 77, 0
2, 30241, Note_on_c, 0, 75, 85
2, 30270, Note_on_c, 0, 75, 0
2, 30271, Note_on_c, 0, 77, 68
2, 30299, Note_on_c, 0, 79, 62
2, 30303, Note_on_c, 0, 77, 0
2, 30329, Note_on_c, 0, 81, 64
2, 30336, Note_on_c, 0, 79, 0
2, 30359, Note_on_c, 0, 82, 68
2, 30362, Note_on_c, 0, 81, 0
2, 30389, Note_on_c, 0, 79, 76
2, 30396, Note_on_c, 0, 82, 0
2, 30419, Note_on_c, 0, 79, 0
2, 30419, Note_on_c, 0, 76, 80
2, 30449, Note_on_c, 0, 76, 0
2, 30449, Note_on_c, 0, 73, 72
2, 30479, Note_on_c, 0, 73, 0
2, 30479, Note_on_c, 0, 74, 76
2, 30538, Note_on_c, 0, 74, 0
2, 30539, Note_on_c, 0, 86, 98
2, 30659, Note_on_c, 0, 86, 0
2, 30659, Note_on_c, 0, 77, 62
2, 30711, Note_on_c, 0, 77, 0
2, 30719, Note_on_c, 0, 77, 93
2, 30779, Note_on_c, 0, 77, 0
2, 30779, Note_on_c, 0, 76, 85
2, 30901, Note_on_c, 0, 82, 85
2, 30902, Note_on_c, 0, 76, 0
2, 31021, Note_on_c, 0, 81, 93
2, 31028, Note_on_c, 0, 82, 0
2, 31139, Note_on_c, 0, 73, 76
2, 31140, Note_on_c, 0, 81, 0
2, 31186, Note_on_c, 0, 73, 0
2, 31199, Note_on_c, 0, 73, 80
2, 31199, Note_on_c, 0, 67, 64
2, 31495, Note_on_c, 0, 73, 0
2, 31496, Note_on_c, 0, 74, 93
2, 31514, Note_on_c, 0, 73, 68
2, 31519, Note_on_c, 0, 74, 0
2, 31531, Note_on_c, 0, 73, 0
2, 31531, Note_on_c, 0, 71, 42
2, 31543, Note_on_c, 0, 71, 0
2, 31544, Note_on_c, 0, 73, 72
2, 31559, Note_on_c, 0, 73, 0
2, 31560, Note_on_c, 0, 76, 89
2, 31651, Note_on_c, 0, 76, 0
2, 31652, Note_on_c, 0, 74, 80
2, 31667, Note_on_c, 0, 74, 0
2, 31677, Note_on_c, 0, 67, 0
2, 31677, Note_on_c, 0, 65, 64
2, 31681, Note_on_c, 0, 74, 93
2, 31736, Note_on_c, 0, 74, 0
2, 31739, Note_on_c, 0, 76, 72
2, 31755, Note_on_c, 0, 74, 72
2, 31760, Note_on_c, 0, 76, 0
2, 31771, Note_on_c, 0, 73, 72
2, 31774, Note_on_c, 0, 74, 0
2, 31785, Note_on_c, 0, 76, 76
2, 31788, Note_on_c, 0, 73, 0
2, 31797, Note_on_c, 0, 65, 0
2, 31798, Note_on_c, 0, 76, 0
2, 31804, Note_on_c, 0, 77, 98
2, 31887, Note_on_c, 0, 77, 0
2, 31889, Note_on_c, 0, 75, 76
2, 31904, Note_on_c, 0, 75, 0
2, 31918, Note_on_c, 0, 75, 89
2, 31974, Note_on_c, 0, 75, 0
2, 31976, Note_on_c, 0, 77, 89
2, 31994, Note_on_c, 0, 75, 64
2, 31998, Note_on_c, 0, 77, 0
2, 32009, Note_on_c, 0, 74, 80
2, 32012, Note_on_c, 0, 75, 0
2, 32024, Note_on_c, 0, 75, 68
2, 32028, Note_on_c, 0, 74, 0
2, 32036, Note_on_c, 0, 75, 0
2, 32039, Note_on_c, 0, 79, 76
2, 32126, Note_on_c, 0, 79, 0
2, 32129, Note_on_c, 0, 77, 89
2, 32145, Note_on_c, 0, 77, 0
2, 32158, Note_on_c, 0, 77, 93
2, 32459, Note_on_c, 0, 77, 0
2, 32459, Note_on_c, 0, 82, 85
2, 32518, Note_on_c, 0, 82, 0
2, 32518, Note_on_c, 0, 77, 80
2, 32578, Note_on_c, 0, 74, 76
2, 32579, Note_on_c, 0, 77, 0
2, 32639, Note_on_c, 0, 75, 80
2, 32640, Note_on_c, 0, 74, 0
2, 32669, Note_on_c, 0, 75, 0
2, 32669, Note_on_c, 0, 77, 80
2, 32699, Note_on_c, 0, 79, 72
2, 32701, Note_on_c, 0, 77, 0
2, 32729, Note_on_c, 0, 77, 80
2, 32733, Note_on_c, 0, 79, 0
2, 32758, Note_on_c, 0, 75, 80
2, 32761, Note_on_c, 0, 77, 0
2, 32788, Note_on_c, 0, 74, 80
2, 32792, Note_on_c, 0, 75, 0
2, 32817, Note_on_c, 0, 74, 0
2, 32818, Note_on_c, 0, 72, 76
2, 32848, Note_on_c, 0, 70, 50
2, 32852, Note_on_c, 0, 72, 0
2, 32879, Note_on_c, 0, 69, 93
2, 32880, Note_on_c, 0, 70, 0
2, 32993, Note_on_c, 0, 69, 0
2, 33120, Note_on_c, 0, 70, 93
2, 33177, Note_on_c, 0, 70, 0
2, 33179, Note_on_c, 0, 72, 89
2, 33209, Note_on_c, 0, 74, 72
2, 33214, Note_on_c, 0, 72, 0
2, 33238, Note_on_c, 0, 74, 0
2, 33239, Note_on_c, 0, 75, 80
2, 33269, Note_on_c, 0, 75, 0
2, 33269, Note_on_c, 0, 77, 89
2, 33299, Note_on_c, 0, 79, 60
2, 33300, Note_on_c, 0, 77, 0
2, 33329, Note_on_c, 0, 81, 85
2, 33333, Note_on_c, 0, 79, 0
2, 33359, Note_on_c, 0, 81, 0
2, 33359, Note_on_c, 0, 82, 68
2, 33389, Note_on_c, 0, 84, 80
2, 33394, Note_on_c, 0, 82, 0
2, 33416, Note_on_c, 0, 84, 0
2, 33419, Note_on_c, 0, 86, 85
2, 33449, Note_on_c, 0, 81, 76
2, 33451, Note_on_c, 0, 86, 0
2, 33479, Note_on_c, 0, 82, 80
2, 33481, Note_on_c, 0, 81, 0
2, 33509, Note_on_c, 0, 77, 64
2, 33510, Note_on_c, 0, 82, 0
2, 33539, Note_on_c, 0, 77, 0
2, 33540, Note_on_c, 0, 79, 85
2, 33570, Note_on_c, 0, 74, 64
2, 33572, Note_on_c, 0, 79, 0
2, 33600, Note_on_c, 0, 75, 72
2, 33602, Note_on_c, 0, 74, 0
2, 33631, Note_on_c, 0, 77, 76
2, 33632, Note_on_c, 0, 75, 0
2, 33659, Note_on_c, 0, 77, 0
2, 33661, Note_on_c, 0, 79, 72
2, 33691, Note_on_c, 0, 77, 80
2, 33696, Note_on_c, 0, 79, 0
2, 33721, Note_on_c, 0, 75, 62
2, 33727, Note_on_c, 0, 77, 0
2, 33751, Note_on_c, 0, 74, 76
2, 33752, Note_on_c, 0, 75, 0
2, 33781, Note_on_c, 0, 72, 76
2, 33782, Note_on_c, 0, 74, 0
2, 33811, Note_on_c, 0, 70, 72
2, 33812, Note_on_c, 0, 72, 0
2, 33841, Note_on_c, 0, 70, 0
2, 33841, Note_on_c, 0, 69, 80
2, 33953, Note_on_c, 0, 69, 0
2, 34079, Note_on_c, 0, 70, 85
2, 34136, Note_on_c, 0, 70, 0
2, 34139, Note_on_c, 0, 72, 85
2, 34168, Note_on_c, 0, 74, 72
2, 34170, Note_on_c, 0, 72, 0
2, 34199, Note_on_c, 0, 75, 80
2, 34204, Note_on_c, 0, 74, 0
2, 34229, Note_on_c, 0, 75, 0
2, 34229, Note_on_c, 0, 77, 89
2, 34259, Note_on_c, 0, 79, 64
2, 34261, Note_on_c, 0, 77, 0
2, 34289, Note_on_c, 0, 81, 85
2, 34293, Note_on_c, 0, 79, 0
2, 34318, Note_on_c, 0, 81, 0
2, 34319, Note_on_c, 0, 82, 85
2, 34379, Note_on_c, 0, 84, 89
2, 34381, Note_on_c, 0, 82, 0
2, 34439, Note_on_c, 0, 86, 93
2, 34441, Note_on_c, 0, 84, 0
2, 34496, Note_on_c, 0, 86, 0
2, 34501, Note_on_c, 0, 86, 76
2, 34552, Note_on_c, 0, 86, 0
2, 34559, Note_on_c, 0, 86, 93
2, 34801, Note_on_c, 0, 78, 76
2, 34806, Note_on_c, 0, 86, 0
2, 34933, Note_on_c, 0, 78, 0
2, 35039, Note_on_c, 0, 67, 89
2, 35098, Note_on_c, 0, 67, 0
2, 35098, Note_on_c, 0, 69, 93
2, 35129, Note_on_c, 0, 70, 64
2, 35133, Note_on_c, 0, 69, 0
2, 35158, Note_on_c, 0, 70, 0
2, 35159, Note_on_c, 0, 72, 93
2, 35188, Note_on_c, 0, 74, 72
2, 35189, Note_on_c, 0, 72, 0
2, 35218, Note_on_c, 0, 76, 80
2, 35222, Note_on_c, 0, 74, 0
2, 35248, Note_on_c, 0, 78, 64
2, 35250, Note_on_c, 0, 76, 0
2, 35277, Note_on_c, 0, 78, 0
2, 35279, Note_on_c, 0, 79, 85
2, 35309, Note_on_c, 0, 81, 57
2, 35316, Note_on_c, 0, 79, 0
2, 35339, Note_on_c, 0, 82, 85
2, 35343, Note_on_c, 0, 81, 0
2, 35367, Note_on_c, 0, 82, 0
2, 35368, Note_on_c, 0, 84, 89
2, 35399, Note_on_c, 0, 86, 93
2, 35403, Note_on_c, 0, 84, 0
2, 35454, Note_on_c, 0, 86, 0
2, 35460, Note_on_c, 0, 86, 89
2, 35521, Note_on_c, 0, 86, 0
2, 35521, Note_on_c, 0, 84, 93
2, 35759, Note_on_c, 0, 84, 0
2, 35759, Note_on_c, 0, 76, 72
2, 35917, Note_on_c, 0, 76, 0
2, 35999, Note_on_c, 0, 65, 89
2, 36058, Note_on_c, 0, 65, 0
2, 36059, Note_on_c, 0, 67, 93
2, 36088, Note_on_c, 0, 68, 76
2, 36091, Note_on_c, 0, 67, 0
2, 36118, Note_on_c, 0, 70, 76
2, 36119, Note_on_c, 0, 68, 0
2, 36146, Note_on_c, 0, 70, 0
2, 36148, Note_on_c, 0, 72, 85
2, 36178, Note_on_c, 0, 74, 72
2, 36182, Note_on_c, 0, 72, 0
2, 36208, Note_on_c, 0, 76, 76
2, 36212, Note_on_c, 0, 74, 0
2, 36236, Note_on_c, 0, 76, 0
2, 36239, Note_on_c, 0, 77, 76
2, 36268, Note_on_c, 0, 79, 33
2, 36272, Note_on_c, 0, 77, 0
2, 36298, Note_on_c, 0, 80, 76
2, 36301, Note_on_c, 0, 79, 0
2, 36328, Note_on_c, 0, 82, 64
2, 36330, Note_on_c, 0, 80, 0
2, 36358, Note_on_c, 0, 84, 85
2, 36362, Note_on_c, 0, 82, 0
2, 36413, Note_on_c, 0, 84, 0
2, 36419, Note_on_c, 0, 84, 89
2, 36469, Note_on_c, 0, 84, 0
2, 36479, Note_on_c, 0, 84, 85
2, 36571, Note_on_c, 0, 84, 0
2, 36571, Note_on_c, 0, 77, 80
2, 36598, Note_on_c, 0, 77, 0
2, 36599, Note_on_c, 0, 89, 98
2, 36839, Note_on_c, 0, 87, 76
2, 36845, Note_on_c, 0, 89, 0
2, 36899, Note_on_c, 0, 85, 80
2, 36905, Note_on_c, 0, 87, 0
2, 36959, Note_on_c, 0, 84, 80
2, 36960, Note_on_c, 0, 85, 0
2, 37016, Note_on_c, 0, 84, 0
2, 37018, Note_on_c, 0, 83, 89
2, 37079, Note_on_c, 0, 80, 85
2, 37081, Note_on_c, 0, 83, 0
2, 37259, Note_on_c, 0, 79, 89
2, 37262, Note_on_c, 0, 80, 0
2, 37289, Note_on_c, 0, 80, 76
2, 37293, Note_on_c, 0, 79, 0
2, 37316, Note_on_c, 0, 80, 0
2, 37319, Note_on_c, 0, 82, 72
2, 37349, Note_on_c, 0, 80, 76
2, 37355, Note_on_c, 0, 82, 0
2, 37379, Note_on_c, 0, 79, 76
2, 37382, Note_on_c, 0, 80, 0
2, 37406, Note_on_c, 0, 79, 0
2, 37409, Note_on_c, 0, 77, 60
2, 37439, Note_on_c, 0, 76, 80
2, 37443, Note_on_c, 0, 77, 0
2, 37497, Note_on_c, 0, 76, 0
2, 37499, Note_on_c, 0, 84, 80
2, 37557, Note_on_c, 0, 84, 0
2, 37559, Note_on_c, 0, 84, 76
2, 37616, Note_on_c, 0, 84, 0
2, 37619, Note_on_c, 0, 84, 89
2, 37672, Note_on_c, 0, 84, 0
2, 37679, Note_on_c, 0, 84, 76
2, 37735, Note_on_c, 0, 84, 0
2, 37738, Note_on_c, 0, 89, 89
2, 37798, Note_on_c, 0, 86, 93
2, 37806, Note_on_c, 0, 89, 0
2, 37858, Note_on_c, 0, 83, 85
2, 37859, Note_on_c, 0, 86, 0
2, 37919, Note_on_c, 0, 83, 0
2, 37919, Note_on_c, 0, 84, 72
2, 37979, Note_on_c, 0, 77, 72
2, 37983, Note_on_c, 0, 84, 0
2, 38039, Note_on_c, 0, 74, 80
2, 38040, Note_on_c, 0, 77, 0
2, 38099, Note_on_c, 0, 71, 68
2, 38100, Note_on_c, 0, 74, 0
2, 38160, Note_on_c, 0, 72, 89
2, 38161, Note_on_c, 0, 71, 0
2, 38208, Note_on_c, 0, 72, 0
2, 38221, Note_on_c, 0, 89, 85
2, 38280, Note_on_c, 0, 86, 89
2, 38284, Note_on_c, 0, 89, 0
2, 38341, Note_on_c, 0, 83, 76
2, 38342, Note_on_c, 0, 86, 0
2, 38401, Note_on_c, 0, 83, 0
2, 38401, Note_on_c, 0, 84, 80
2, 38459, Note_on_c, 0, 88, 85
2, 38460, Note_on_c, 0, 84, 0
2, 38519, Note_on_c, 0, 84, 85
2, 38521, Note_on_c, 0, 88, 0
2, 38577, Note_on_c, 0, 84, 0
2, 38579, Note_on_c, 0, 81, 85
2, 38641, Note_on_c, 0, 82, 85
2, 38648, Note_on_c, 0, 81, 0
2, 38699, Note_on_c, 0, 82, 0
2, 38699, Note_on_c, 0, 86, 89
2, 38759, Note_on_c, 0, 82, 85
2, 38764, Note_on_c, 0, 86, 0
2, 38819, Note_on_c, 0, 80, 85
2, 38820, Note_on_c, 0, 82, 0
2, 38879, Note_on_c, 0, 81, 89
2, 38880, Note_on_c, 0, 80, 0
2, 38939, Note_on_c, 0, 86, 89
2, 38941, Note_on_c, 0, 81, 0
2, 38969, Note_on_c, 0, 84, 68
2, 38976, Note_on_c, 0, 86, 0
2, 38999, Note_on_c, 0, 82, 76
2, 39002, Note_on_c, 0, 84, 0
2, 39029, Note_on_c, 0, 81, 76
2, 39035, Note_on_c, 0, 82, 0
2, 39058, Note_on_c, 0, 81, 0
2, 39059, Note_on_c, 0, 79, 72
2, 39088, Note_on_c, 0, 79, 0
2, 39089, Note_on_c, 0, 78, 62
2, 39119, Note_on_c, 0, 79, 80
2, 39122, Note_on_c, 0, 78, 0
2, 39181, Note_on_c, 0, 84, 89
2, 39184, Note_on_c, 0, 79, 0
2, 39211, Note_on_c, 0, 82, 62
2, 39220, Note_on_c, 0, 84, 0
2, 39239, Note_on_c, 0, 81, 76
2, 39244, Note_on_c, 0, 82, 0
2, 39269, Note_on_c, 0, 79, 76
2, 39274, Note_on_c, 0, 81, 0
2, 39298, Note_on_c, 0, 79, 0
2, 39299, Note_on_c, 0, 77, 72
2, 39329, Note_on_c, 0, 76, 76
2, 39334, Note_on_c, 0, 77, 0
2, 39357, Note_on_c, 0, 76, 0
2, 39359, Note_on_c, 0, 77, 80
2, 39539, Note_on_c, 0, 79, 80
2, 39541, Note_on_c, 0, 77, 0
2, 39555, Note_on_c, 0, 77, 76
2, 39562, Note_on_c, 0, 79, 0
2, 39570, Note_on_c, 0, 76, 76
2, 39573, Note_on_c, 0, 77, 0
2, 39584, Note_on_c, 0, 77, 72
2, 39585, Note_on_c, 0, 76, 0
2, 39599, Note_on_c, 0, 77, 0
2, 39599, Note_on_c, 0, 81, 76
2, 39835, Note_on_c, 0, 81, 0
2, 39841, Note_on_c, 0, 81, 89
2, 39901, Note_on_c, 0, 81, 0
2, 39901, Note_on_c, 0, 79, 85
2, 39946, Note_on_c, 0, 79, 0
2, 39961, Note_on_c, 0, 79, 85
2, 40016, Note_on_c, 0, 79, 0
2, 40019, Note_on_c, 0, 76, 80
2, 40075, Note_on_c, 0, 76, 0
2, 40078, Note_on_c, 0, 77, 93
2, 40259, Note_on_c, 0, 81, 89
2, 40262, Note_on_c, 0, 77, 0
2, 40381, Note_on_c, 0, 79, 93
2, 40385, Note_on_c, 0, 81, 0
2, 40499, Note_on_c, 0, 79, 0
2, 40499, Note_on_c, 0, 76, 89
2, 40619, Note_on_c, 0, 77, 93
2, 40622, Note_on_c, 0, 76, 0
2, 40739, Note_on_c, 0, 77, 0
2, 40739, Note_on_c, 0, 81, 89
2, 40799, Note_on_c, 0, 84, 85
2, 40800, Note_on_c, 0, 81, 0
2, 40859, Note_on_c, 0, 82, 80
2, 40865, Note_on_c, 0, 84, 0
2, 40909, Note_on_c, 0, 82, 0
2, 40979, Note_on_c, 0, 79, 80
2, 41039, Note_on_c, 0, 82, 89
2, 41043, Note_on_c, 0, 79, 0
2, 41099, Note_on_c, 0, 81, 76
2, 41103, Note_on_c, 0, 82, 0
2, 41140, Note_on_c, 0, 81, 0
2, 41219, Note_on_c, 0, 77, 89
2, 41278, Note_on_c, 0, 73, 85
2, 41279, Note_on_c, 0, 77, 0
2, 41339, Note_on_c, 0, 74, 76
2, 41340, Note_on_c, 0, 73, 0
2, 41399, Note_on_c, 0, 75, 85
2, 41401, Note_on_c, 0, 74, 0
2, 41459, Note_on_c, 0, 76, 80
2, 41460, Note_on_c, 0, 75, 0
2, 41519, Note_on_c, 0, 77, 93
2, 41523, Note_on_c, 0, 76, 0
2, 41576, Note_on_c, 0, 77, 0
2, 41579, Note_on_c, 0, 78, 89
2, 41637, Note_on_c, 0, 78, 0
2, 41639, Note_on_c, 0, 81, 93
2, 41699, Note_on_c, 0, 79, 89
2, 41707, Note_on_c, 0, 81, 0
2, 41757, Note_on_c, 0, 79, 0
2, 41759, Note_on_c, 0, 79, 98
2, 41881, Note_on_c, 0, 72, 85
2, 41882, Note_on_c, 0, 79, 0
2, 42025, Note_on_c, 0, 72, 0
2, 42030, Note_on_c, 0, 72, 76
2, 42060, Note_on_c, 0, 71, 89
2, 42062, Note_on_c, 0, 72, 0
2, 42089, Note_on_c, 0, 72, 89
2, 42090, Note_on_c, 0, 71, 0
2, 42119, Note_on_c, 0, 73, 76
2, 42120, Note_on_c, 0, 72, 0
2, 42149, Note_on_c, 0, 74, 64
2, 42152, Note_on_c, 0, 73, 0
2, 42179, Note_on_c, 0, 75, 76
2, 42182, Note_on_c, 0, 74, 0
2, 42209, Note_on_c, 0, 76, 76
2, 42210, Note_on_c, 0, 75, 0
2, 42241, Note_on_c, 0, 76, 0
2, 42242, Note_on_c, 0, 77, 98
2, 42411, Note_on_c, 0, 77, 0
2, 42419, Note_on_c, 0, 79, 80
2, 42434, Note_on_c, 0, 77, 85
2, 42444, Note_on_c, 0, 79, 0
2, 42449, Note_on_c, 0, 76, 80
2, 42452, Note_on_c, 0, 77, 0
2, 42464, Note_on_c, 0, 77, 64
2, 42467, Note_on_c, 0, 76, 0
2, 42481, Note_on_c, 0, 77, 0
2, 42481, Note_on_c, 0, 81, 85
2, 42722, Note_on_c, 0, 79, 89
2, 42730, Note_on_c, 0, 81, 0
2, 42780, Note_on_c, 0, 79, 0
2, 42781, Note_on_c, 0, 81, 89
2, 42841, Note_on_c, 0, 82, 93
2, 42842, Note_on_c, 0, 81, 0
2, 42901, Note_on_c, 0, 76, 80
2, 42902, Note_on_c, 0, 82, 0
2, 42955, Note_on_c, 0, 76, 0
2, 42960, Note_on_c, 0, 77, 93
2, 43141, Note_on_c, 0, 81, 89
2, 43142, Note_on_c, 0, 77, 0
2, 43201, Note_on_c, 0, 78, 89
2, 43204, Note_on_c, 0, 81, 0
2, 43229, Note_on_c, 0, 79, 62
2, 43233, Note_on_c, 0, 78, 0
2, 43260, Note_on_c, 0, 80, 76
2, 43263, Note_on_c, 0, 79, 0
2, 43287, Note_on_c, 0, 80, 0
2, 43289, Note_on_c, 0, 81, 76
2, 43319, Note_on_c, 0, 82, 76
2, 43321, Note_on_c, 0, 81, 0
2, 43379, Note_on_c, 0, 76, 80
2, 43381, Note_on_c, 0, 82, 0
2, 43402, Note_on_c, 0, 76, 0
2, 43439, Note_on_c, 0, 77, 89
2, 43500, Note_on_c, 0, 81, 93
2, 43502, Note_on_c, 0, 77, 0
2, 43621, Note_on_c, 0, 84, 93
2, 43625, Note_on_c, 0, 81, 0
2, 43742, Note_on_c, 0, 82, 89
2, 43746, Note_on_c, 0, 84, 0
2, 43862, Note_on_c, 0, 79, 89
2, 43864, Note_on_c, 0, 82, 0
2, 43979, Note_on_c, 0, 79, 0
2, 43981, Note_on_c, 0, 81, 93
2, 44101, Note_on_c, 0, 77, 89
2, 44102, Note_on_c, 0, 81, 0
2, 44161, Note_on_c, 0, 74, 89
2, 44162, Note_on_c, 0, 77, 0
2, 44228, Note_on_c, 0, 74, 0
2, 44233, Note_on_c, 0, 76, 93
2, 44249, Note_on_c, 0, 74, 76
2, 44257, Note_on_c, 0, 76, 0
2, 44266, Note_on_c, 0, 73, 76
2, 44270, Note_on_c, 0, 74, 0
2, 44281, Note_on_c, 0, 73, 0
2, 44281, Note_on_c, 0, 74, 85
2, 44341, Note_on_c, 0, 79, 89
2, 44343, Note_on_c, 0, 74, 0
2, 44402, Note_on_c, 0, 72, 85
2, 44462, Note_on_c, 0, 77, 93
2, 44465, Note_on_c, 0, 79, 0
2, 44521, Note_on_c, 0, 70, 64
2, 44528, Note_on_c, 0, 72, 0
2, 44577, Note_on_c, 0, 77, 0
2, 44581, Note_on_c, 0, 76, 102
2, 44630, Note_on_c, 0, 70, 0
2, 44636, Note_on_c, 0, 76, 0
2, 44641, Note_on_c, 0, 76, 89
2, 44641, Note_on_c, 0, 70, 89
2, 44880, Note_on_c, 0, 70, 0
2, 44881, Note_on_c, 0, 76, 0
2, 44881, Note_on_c, 0, 77, 72
2, 44881, Note_on_c, 0, 69, 68
2, 45020, Note_on_c, 0, 69, 0
2, 45023, Note_on_c, 0, 77, 0
2, 45600, Note_on_c, 0, 72, 76
2, 45600, Note_on_c, 0, 68, 60
2, 45850, Note_on_c, 0, 73, 72
2, 45853, Note_on_c, 0, 72, 0
2, 46082, Note_on_c, 0, 67, 68
2, 46083, Note_on_c, 0, 68, 0
2, 46147, Note_on_c, 0, 77, 76
2, 46151, Note_on_c, 0, 73, 0
2, 46206, Note_on_c, 0, 75, 64
2, 46209, Note_on_c, 0, 77, 0
2, 46267, Note_on_c, 0, 73, 72
2, 46271, Note_on_c, 0, 75, 0
2, 46327, Note_on_c, 0, 73, 0
2, 46327, Note_on_c, 0, 72, 76
2, 46384, Note_on_c, 0, 70, 68
2, 46392, Note_on_c, 0, 67, 0
2, 46443, Note_on_c, 0, 68, 57
2, 46447, Note_on_c, 0, 70, 0
2, 46506, Note_on_c, 0, 68, 0
2, 46507, Note_on_c, 0, 67, 62
2, 46565, Note_on_c, 0, 67, 0
2, 46565, Note_on_c, 0, 65, 76
2, 46625, Note_on_c, 0, 75, 76
2, 46631, Note_on_c, 0, 72, 0
2, 46683, Note_on_c, 0, 73, 72
2, 46688, Note_on_c, 0, 75, 0
2, 46744, Note_on_c, 0, 73, 0
2, 46745, Note_on_c, 0, 72, 76
2, 46806, Note_on_c, 0, 72, 0
2, 46806, Note_on_c, 0, 70, 76
2, 46867, Note_on_c, 0, 68, 68
2, 46868, Note_on_c, 0, 65, 0
2, 46922, Note_on_c, 0, 68, 0
2, 46926, Note_on_c, 0, 67, 76
2, 46984, Note_on_c, 0, 65, 76
2, 46986, Note_on_c, 0, 67, 0
2, 47043, Note_on_c, 0, 64, 72
2, 47044, Note_on_c, 0, 65, 0
2, 47102, Note_on_c, 0, 73, 62
2, 47108, Note_on_c, 0, 70, 0
2, 47159, Note_on_c, 0, 73, 0
2, 47161, Note_on_c, 0, 72, 72
2, 47221, Note_on_c, 0, 70, 76
2, 47224, Note_on_c, 0, 72, 0
2, 47284, Note_on_c, 0, 68, 76
2, 47285, Note_on_c, 0, 65, 80
2, 47287, Note_on_c, 0, 64, 0
2, 47288, Note_on_c, 0, 70, 0
2, 47303, Note_on_c, 0, 68, 0
2, 47349, Note_on_c, 0, 70, 64
2, 47367, Note_on_c, 0, 68, 62
2, 47369, Note_on_c, 0, 70, 0
2, 47384, Note_on_c, 0, 68, 0
2, 47387, Note_on_c, 0, 67, 72
2, 47405, Note_on_c, 0, 68, 72
2, 47407, Note_on_c, 0, 67, 0
2, 47466, Note_on_c, 0, 68, 0
2, 47467, Note_on_c, 0, 70, 68
2, 47468, Note_on_c, 0, 67, 68
2, 47469, Note_on_c, 0, 65, 0
2, 47515, Note_on_c, 0, 70, 0
2, 47525, Note_on_c, 0, 68, 62
2, 47528, Note_on_c, 0, 72, 76
2, 47529, Note_on_c, 0, 67, 0
2, 47546, Note_on_c, 0, 72, 0
2, 47588, Note_on_c, 0, 73, 62
2, 47607, Note_on_c, 0, 73, 0
2, 47607, Note_on_c, 0, 72, 76
2, 47621, Note_on_c, 0, 70, 72
2, 47625, Note_on_c, 0, 72, 0
2, 47639, Note_on_c, 0, 72, 72
2, 47640, Note_on_c, 0, 70, 0
2, 47702, Note_on_c, 0, 73, 72
2, 47703, Note_on_c, 0, 72, 0
2, 47716, Note_on_c, 0, 68, 0
2, 47753, Note_on_c, 0, 73, 0
2, 47761, Note_on_c, 0, 75, 62
2, 47778, Note_on_c, 0, 75, 0
2, 47823, Note_on_c, 0, 75, 64
2, 47841, Note_on_c, 0, 75, 0
2, 47882, Note_on_c, 0, 75, 68
2, 47902, Note_on_c, 0, 75, 0
2, 47945, Note_on_c, 0, 75, 76
2, 47961, Note_on_c, 0, 75, 0
2, 48007, Note_on_c, 0, 75, 76
2, 48066, Note_on_c, 0, 75, 0
2, 48067, Note_on_c, 0, 77, 62
2, 48129, Note_on_c, 0, 77, 0
2, 48129, Note_on_c, 0, 70, 60
2, 48129, Note_on_c, 0, 73, 76
2, 48357, Note_on_c, 0, 70, 0
2, 48368, Note_on_c, 0, 68, 56
2, 48370, Note_on_c, 0, 72, 64
2, 48374, Note_on_c, 0, 73, 0
2, 48468, Note_on_c, 0, 72, 0
2, 48472, Note_on_c, 0, 68, 0
2, 48490, Note_on_c, 0, 65, 72
2, 48490, Note_on_c, 0, 70, 59
2, 48543, Note_on_c, 0, 70, 0
2, 48547, Note_on_c, 0, 72, 76
2, 48566, Note_on_c, 0, 70, 56
2, 48573, Note_on_c, 0, 72, 0
2, 48586, Note_on_c, 0, 69, 60
2, 48587, Note_on_c, 0, 70, 0
2, 48606, Note_on_c, 0, 70, 68
2, 48609, Note_on_c, 0, 69, 0
2, 48667, Note_on_c, 0, 72, 76
2, 48669, Note_on_c, 0, 70, 0
2, 48696, Note_on_c, 0, 73, 64
2, 48702, Note_on_c, 0, 72, 0
2, 48705, Note_on_c, 0, 65, 0
2, 48722, Note_on_c, 0, 73, 0
2, 48728, Note_on_c, 0, 63, 56
2, 48728, Note_on_c, 0, 68, 76
2, 48782, Note_on_c, 0, 63, 0
2, 48784, Note_on_c, 0, 68, 0
2, 48840, Note_on_c, 0, 67, 89
2, 48841, Note_on_c, 0, 61, 57
2, 48889, Note_on_c, 0, 61, 0
2, 48890, Note_on_c, 0, 67, 0
2, 48966, Note_on_c, 0, 70, 80
2, 48966, Note_on_c, 0, 61, 76
2, 49203, Note_on_c, 0, 61, 0
2, 49205, Note_on_c, 0, 68, 72
2, 49206, Note_on_c, 0, 60, 60
2, 49208, Note_on_c, 0, 70, 0
2, 49337, Note_on_c, 0, 60, 0
2, 49339, Note_on_c, 0, 68, 0
2, 49440, Note_on_c, 0, 72, 93
2, 49441, Note_on_c, 0, 68, 72
2, 49682, Note_on_c, 0, 73, 89
2, 49686, Note_on_c, 0, 72, 0
2, 49916, Note_on_c, 0, 68, 0
2, 49919, Note_on_c, 0, 67, 76
2, 49980, Note_on_c, 0, 77, 93
2, 49983, Note_on_c, 0, 73, 0
2, 50044, Note_on_c, 0, 75, 76
2, 50051, Note_on_c, 0, 77, 0
2, 50106, Note_on_c, 0, 73, 80
2, 50112, Note_on_c, 0, 75, 0
2, 50169, Note_on_c, 0, 72, 85
2, 50170, Note_on_c, 0, 73, 0
2, 50224, Note_on_c, 0, 70, 80
2, 50231, Note_on_c, 0, 67, 0
2, 50285, Note_on_c, 0, 68, 72
2, 50287, Note_on_c, 0, 70, 0
2, 50347, Note_on_c, 0, 68, 0
2, 50347, Note_on_c, 0, 67, 80
2, 50408, Note_on_c, 0, 67, 0
2, 50408, Note_on_c, 0, 65, 72
2, 50464, Note_on_c, 0, 75, 72
2, 50469, Note_on_c, 0, 72, 0
2, 50524, Note_on_c, 0, 73, 76
2, 50528, Note_on_c, 0, 75, 0
2, 50583, Note_on_c, 0, 73, 0
2, 50583, Note_on_c, 0, 72, 72
2, 50648, Note_on_c, 0, 70, 89
2, 50649, Note_on_c, 0, 72, 0
2, 50704, Note_on_c, 0, 65, 0
2, 50704, Note_on_c, 0, 68, 76
2, 50768, Note_on_c, 0, 68, 0
2, 50770, Note_on_c, 0, 67, 72
2, 50829, Note_on_c, 0, 65, 76
2, 50831, Note_on_c, 0, 67, 0
2, 50890, Note_on_c, 0, 64, 72
2, 50893, Note_on_c, 0, 65, 0
2, 50948, Note_on_c, 0, 73, 62
2, 50953, Note_on_c, 0, 70, 0
2, 51005, Note_on_c, 0, 72, 80
2, 51007, Note_on_c, 0, 73, 0
2, 51065, Note_on_c, 0, 70, 76
2, 51068, Note_on_c, 0, 72, 0
2, 51126, Note_on_c, 0, 68, 76
2, 51127, Note_on_c, 0, 65, 76
2, 51129, Note_on_c, 0, 70, 0
2, 51133, Note_on_c, 0, 64, 0
2, 51146, Note_on_c, 0, 68, 0
2, 51188, Note_on_c, 0, 70, 64
2, 51205, Note_on_c, 0, 68, 59
2, 51208, Note_on_c, 0, 70, 0
2, 51223, Note_on_c, 0, 68, 0
2, 51224, Note_on_c, 0, 67, 59
2, 51242, Note_on_c, 0, 67, 0
2, 51245, Note_on_c, 0, 68, 98
2, 51303, Note_on_c, 0, 68, 0
2, 51306, Note_on_c, 0, 67, 80
2, 51307, Note_on_c, 0, 70, 80
2, 51310, Note_on_c, 0, 65, 0
2, 51324, Note_on_c, 0, 70, 0
2, 51367, Note_on_c, 0, 68, 68
2, 51367, Note_on_c, 0, 72, 80
2, 51370, Note_on_c, 0, 67, 0
2, 51382, Note_on_c, 0, 72, 0
2, 51429, Note_on_c, 0, 73, 68
2, 51447, Note_on_c, 0, 73, 0
2, 51450, Note_on_c, 0, 72, 76
2, 51460, Note_on_c, 0, 70, 60
2, 51462, Note_on_c, 0, 72, 0
2, 51480, Note_on_c, 0, 70, 0
2, 51482, Note_on_c, 0, 72, 89
2, 51544, Note_on_c, 0, 72, 0
2, 51545, Note_on_c, 0, 73, 89
2, 51548, Note_on_c, 0, 68, 0
2, 51561, Note_on_c, 0, 73, 0
2, 51607, Note_on_c, 0, 75, 85
2, 51626, Note_on_c, 0, 75, 0
2, 51666, Note_on_c, 0, 75, 76
2, 51685, Note_on_c, 0, 75, 0
2, 51725, Note_on_c, 0, 75, 72
2, 51744, Note_on_c, 0, 75, 0
2, 51784, Note_on_c, 0, 75, 72
2, 51803, Note_on_c, 0, 75, 0
2, 51844, Note_on_c, 0, 75, 72
2, 51902, Note_on_c, 0, 75, 0
2, 51904, Note_on_c, 0, 77, 72
2, 51967, Note_on_c, 0, 70, 64
2, 51968, Note_on_c, 0, 77, 0
2, 51968, Note_on_c, 0, 73, 80
2, 52200, Note_on_c, 0, 70, 0
2, 52200, Note_on_c, 0, 68, 68
2, 52200, Note_on_c, 0, 72, 72
2, 52204, Note_on_c, 0, 73, 0
2, 52322, Note_on_c, 0, 68, 0
2, 52325, Note_on_c, 0, 70, 85
2, 52329, Note_on_c, 0, 72, 0
2, 52331, Note_on_c, 0, 65, 85
2, 52390, Note_on_c, 0, 72, 76
2, 52392, Note_on_c, 0, 70, 0
2, 52411, Note_on_c, 0, 70, 62
2, 52419, Note_on_c, 0, 72, 0
2, 52432, Note_on_c, 0, 70, 0
2, 52433, Note_on_c, 0, 69, 76
2, 52448, Note_on_c, 0, 70, 72
2, 52453, Note_on_c, 0, 69, 0
2, 52510, Note_on_c, 0, 72, 76
2, 52512, Note_on_c, 0, 70, 0
2, 52537, Note_on_c, 0, 73, 76
2, 52538, Note_on_c, 0, 72, 0
2, 52567, Note_on_c, 0, 68, 80
2, 52568, Note_on_c, 0, 65, 0
2, 52570, Note_on_c, 0, 63, 64
2, 52572, Note_on_c, 0, 73, 0
2, 52630, Note_on_c, 0, 68, 0
2, 52632, Note_on_c, 0, 63, 0
2, 52684, Note_on_c, 0, 67, 80
2, 52684, Note_on_c, 0, 61, 60
2, 52743, Note_on_c, 0, 67, 0
2, 52746, Note_on_c, 0, 61, 0
2, 52805, Note_on_c, 0, 70, 76
2, 52806, Note_on_c, 0, 61, 72
2, 53042, Note_on_c, 0, 61, 0
2, 53044, Note_on_c, 0, 60, 55
2, 53045, Note_on_c, 0, 68, 80
2, 53049, Note_on_c, 0, 70, 0
2, 53182, Note_on_c, 0, 68, 0
2, 53188, Note_on_c, 0, 60, 0
2, 53286, Note_on_c, 0, 69, 62
2, 53287, Note_on_c, 0, 72, 93
2, 53523, Note_on_c, 0, 73, 85
2, 53524, Note_on_c, 0, 70, 62
2, 53525, Note_on_c, 0, 72, 0
2, 53528, Note_on_c, 0, 69, 0
2, 53763, Note_on_c, 0, 72, 76
2, 53766, Note_on_c, 0, 69, 60
2, 53767, Note_on_c, 0, 73, 0
2, 53769, Note_on_c, 0, 70, 0
2, 53826, Note_on_c, 0, 78, 80
2, 53832, Note_on_c, 0, 72, 0
2, 53885, Note_on_c, 0, 77, 76
2, 53889, Note_on_c, 0, 78, 0
2, 53943, Note_on_c, 0, 75, 68
2, 53950, Note_on_c, 0, 77, 0
2, 54006, Note_on_c, 0, 73, 72
2, 54007, Note_on_c, 0, 70, 60
2, 54008, Note_on_c, 0, 75, 0
2, 54014, Note_on_c, 0, 69, 0
2, 54145, Note_on_c, 0, 73, 0
2, 54152, Note_on_c, 0, 70, 0
2, 54244, Note_on_c, 0, 70, 80
2, 54245, Note_on_c, 0, 67, 68
2, 54484, Note_on_c, 0, 70, 0
2, 54485, Note_on_c, 0, 68, 68
2, 54485, Note_on_c, 0, 71, 89
2, 54491, Note_on_c, 0, 67, 0
2, 54724, Note_on_c, 0, 71, 0
2, 54724, Note_on_c, 0, 70, 76
2, 54724, Note_on_c, 0, 67, 76
2, 54726, Note_on_c, 0, 68, 0
2, 54785, Note_on_c, 0, 77, 80
2, 54788, Note_on_c, 0, 70, 0
2, 54843, Note_on_c, 0, 77, 0
2, 54844, Note_on_c, 0, 75, 76
2, 54908, Note_on_c, 0, 73, 76
2, 54911, Note_on_c, 0, 75, 0
2, 54962, Note_on_c, 0, 73, 0
2, 54964, Note_on_c, 0, 72, 80
2, 54969, Note_on_c, 0, 68, 64
2, 54973, Note_on_c, 0, 67, 0
2, 55026, Note_on_c, 0, 70, 72
2, 55028, Note_on_c, 0, 72, 0
2, 55067, Note_on_c, 0, 68, 0
2, 55083, Note_on_c, 0, 70, 0
2, 55085, Note_on_c, 0, 68, 72
2, 55145, Note_on_c, 0, 67, 59
2, 55146, Note_on_c, 0, 72, 85
2, 55147, Note_on_c, 0, 68, 0
2, 55195, Note_on_c, 0, 72, 0
2, 55202, Note_on_c, 0, 65, 59
2, 55203, Note_on_c, 0, 72, 56
2, 55204, Note_on_c, 0, 67, 0
2, 55265, Note_on_c, 0, 71, 89
2, 55266, Note_on_c, 0, 72, 0
2, 55318, Note_on_c, 0, 71, 0
2, 55323, Note_on_c, 0, 65, 0
2, 55381, Note_on_c, 0, 70, 68
2, 55383, Note_on_c, 0, 67, 76
2, 55422, Note_on_c, 0, 67, 0
2, 55422, Note_on_c, 0, 70, 0
2, 55439, Note_on_c, 0, 67, 64
2, 55441, Note_on_c, 0, 70, 64
2, 55501, Note_on_c, 0, 65, 62
2, 55503, Note_on_c, 0, 69, 80
2, 55504, Note_on_c, 0, 70, 0
2, 55505, Note_on_c, 0, 67, 0
2, 55556, Note_on_c, 0, 69, 0
2, 55559, Note_on_c, 0, 65, 0
2, 55626, Note_on_c, 0, 68, 76
2, 55628, Note_on_c, 0, 65, 64
2, 55661, Note_on_c, 0, 65, 0
2, 55663, Note_on_c, 0, 68, 0
2, 55688, Note_on_c, 0, 68, 76
2, 55688, Note_on_c, 0, 65, 72
2, 55745, Note_on_c, 0, 68, 0
2, 55745, Note_on_c, 0, 70, 76
2, 55803, Note_on_c, 0, 70, 0
2, 55804, Note_on_c, 0, 71, 85
2, 55864, Note_on_c, 0, 71, 0
2, 55865, Note_on_c, 0, 72, 85
2, 55922, Note_on_c, 0, 72, 0
2, 55922, Note_on_c, 0, 65, 0
2, 55924, Note_on_c, 0, 64, 64
2, 55924, Note_on_c, 0, 67, 85
2, 56046, Note_on_c, 0, 67, 0
2, 56049, Note_on_c, 0, 64, 0
2, 56286, Note_on_c, 0, 76, 93
2, 56286, Note_on_c, 0, 70, 80
2, 56515, Note_on_c, 0, 76, 0
2, 56517, Note_on_c, 0, 70, 0
2, 56520, Note_on_c, 0, 77, 72
2, 56520, Note_on_c, 0, 68, 72
2, 56642, Note_on_c, 0, 77, 0
2, 56642, Note_on_c, 0, 67, 76
2, 56642, Note_on_c, 0, 70, 68
2, 56644, Note_on_c, 0, 68, 0
2, 56755, Note_on_c, 0, 72, 89
2, 56759, Note_on_c, 0, 70, 0
2, 56816, Note_on_c, 0, 73, 80
2, 56817, Note_on_c, 0, 72, 0
2, 56872, Note_on_c, 0, 73, 0
2, 56875, Note_on_c, 0, 75, 80
2, 56936, Note_on_c, 0, 70, 76
2, 56943, Note_on_c, 0, 67, 0
2, 56993, Note_on_c, 0, 68, 76
2, 56995, Note_on_c, 0, 70, 0
2, 57056, Note_on_c, 0, 67, 64
2, 57058, Note_on_c, 0, 68, 0
2, 57120, Note_on_c, 0, 67, 0
2, 57120, Note_on_c, 0, 65, 76
2, 57121, Note_on_c, 0, 68, 76
2, 57122, Note_on_c, 0, 75, 0
2, 57246, Note_on_c, 0, 70, 89
2, 57248, Note_on_c, 0, 68, 0
2, 57296, Note_on_c, 0, 70, 0
2, 57303, Note_on_c, 0, 72, 80
2, 57365, Note_on_c, 0, 73, 85
2, 57367, Note_on_c, 0, 72, 0
2, 57422, Note_on_c, 0, 68, 68
2, 57425, Note_on_c, 0, 65, 0
2, 57485, Note_on_c, 0, 68, 0
2, 57487, Note_on_c, 0, 67, 72
2, 57543, Note_on_c, 0, 65, 80
2, 57545, Note_on_c, 0, 67, 0
2, 57600, Note_on_c, 0, 65, 0
2, 57603, Note_on_c, 0, 67, 80
2, 57604, Note_on_c, 0, 73, 0
2, 57607, Note_on_c, 0, 64, 76
2, 57719, Note_on_c, 0, 65, 76
2, 57721, Note_on_c, 0, 68, 89
2, 57722, Note_on_c, 0, 67, 0
2, 57726, Note_on_c, 0, 64, 0
2, 57781, Note_on_c, 0, 65, 0
2, 57782, Note_on_c, 0, 68, 0
2, 57782, Note_on_c, 0, 67, 80
2, 57782, Note_on_c, 0, 70, 76
2, 57842, Note_on_c, 0, 70, 0
2, 57843, Note_on_c, 0, 72, 76
2, 57846, Note_on_c, 0, 68, 80
2, 57847, Note_on_c, 0, 67, 0
2, 57902, Note_on_c, 0, 79, 64
2, 57912, Note_on_c, 0, 72, 0
2, 57922, Note_on_c, 0, 77, 72
2, 57926, Note_on_c, 0, 79, 0
2, 57945, Note_on_c, 0, 77, 0
2, 57950, Note_on_c, 0, 76, 50
2, 57958, Note_on_c, 0, 77, 89
2, 57961, Note_on_c, 0, 76, 0
2, 58020, Note_on_c, 0, 79, 76
2, 58026, Note_on_c, 0, 77, 0
2, 58033, Note_on_c, 0, 68, 0
2, 58039, Note_on_c, 0, 79, 0
2, 58079, Note_on_c, 0, 80, 80
2, 58141, Note_on_c, 0, 71, 76
2, 58142, Note_on_c, 0, 80, 0
2, 58157, Note_on_c, 0, 71, 0
2, 58200, Note_on_c, 0, 71, 93
2, 58201, Note_on_c, 0, 61, 60
2, 58204, Note_on_c, 0, 65, 76
2, 58223, Note_on_c, 0, 71, 0
2, 58260, Note_on_c, 0, 71, 89
2, 58283, Note_on_c, 0, 71, 0
2, 58293, Note_on_c, 0, 61, 0
2, 58294, Note_on_c, 0, 65, 0
2, 58323, Note_on_c, 0, 80, 80
2, 58380, Note_on_c, 0, 71, 76
2, 58383, Note_on_c, 0, 80, 0
2, 58400, Note_on_c, 0, 71, 0
2, 58440, Note_on_c, 0, 71, 93
2, 58441, Note_on_c, 0, 65, 76
2, 58441, Note_on_c, 0, 62, 72
2, 58461, Note_on_c, 0, 71, 0
2, 58499, Note_on_c, 0, 71, 93
2, 58526, Note_on_c, 0, 71, 0
2, 58542, Note_on_c, 0, 65, 0
2, 58545, Note_on_c, 0, 62, 0
2, 58560, Note_on_c, 0, 72, 93
2, 58618, Note_on_c, 0, 72, 0
2, 58619, Note_on_c, 0, 73, 76
2, 58680, Note_on_c, 0, 70, 80
2, 58681, Note_on_c, 0, 73, 0
2, 58681, Note_on_c, 0, 67, 76
2, 58916, Note_on_c, 0, 67, 0
2, 58917, Note_on_c, 0, 68, 72
2, 58920, Note_on_c, 0, 65, 72
2, 58922, Note_on_c, 0, 70, 0
2, 59041, Note_on_c, 0, 67, 85
2, 59046, Note_on_c, 0, 65, 0
2, 59046, Note_on_c, 0, 68, 0
2, 59104, Note_on_c, 0, 73, 80
2, 59107, Note_on_c, 0, 67, 0
2, 59158, Note_on_c, 0, 73, 0
2, 59159, Note_on_c, 0, 72, 76
2, 59188, Note_on_c, 0, 70, 64
2, 59197, Note_on_c, 0, 72, 0
2, 59214, Note_on_c, 0, 68, 57
2, 59219, Note_on_c, 0, 70, 0
2, 59242, Note_on_c, 0, 67, 76
2, 59245, Note_on_c, 0, 68, 0
2, 59272, Note_on_c, 0, 67, 0
2, 59276, Note_on_c, 0, 65, 76
2, 59404, Note_on_c, 0, 65, 0
2, 59404, Note_on_c, 0, 64, 76
2, 59461, Note_on_c, 0, 64, 0
2, 59522, Note_on_c, 0, 58, 56
2, 59524, Note_on_c, 0, 67, 80
2, 59758, Note_on_c, 0, 65, 76
2, 59760, Note_on_c, 0, 56, 68
2, 59761, Note_on_c, 0, 58, 0
2, 59763, Note_on_c, 0, 67, 0
2, 59906, Note_on_c, 0, 65, 0
2, 59908, Note_on_c, 0, 56, 0
2, 60003, Note_on_c, 0, 72, 76
2, 60003, Note_on_c, 0, 69, 72
2, 60234, Note_on_c, 0, 72, 0
2, 60237, Note_on_c, 0, 70, 60
2, 60237, Note_on_c, 0, 73, 72
2, 60239, Note_on_c, 0, 69, 0
2, 60477, Note_on_c, 0, 69, 76
2, 60477, Note_on_c, 0, 72, 85
2, 60480, Note_on_c, 0, 73, 0
2, 60482, Note_on_c, 0, 70, 0
2, 60539, Note_on_c, 0, 78, 76
2, 60546, Note_on_c, 0, 72, 0
2, 60598, Note_on_c, 0, 77, 80
2, 60600, Note_on_c, 0, 78, 0
2, 60655, Note_on_c, 0, 75, 64
2, 60660, Note_on_c, 0, 77, 0
2, 60715, Note_on_c, 0, 70, 60
2, 60716, Note_on_c, 0, 73, 76
2, 60718, Note_on_c, 0, 75, 0
2, 60721, Note_on_c, 0, 69, 0
2, 60852, Note_on_c, 0, 73, 0
2, 60857, Note_on_c, 0, 70, 0
2, 60957, Note_on_c, 0, 70, 72
2, 60959, Note_on_c, 0, 67, 72
2, 61197, Note_on_c, 0, 70, 0
2, 61200, Note_on_c, 0, 68, 72
2, 61200, Note_on_c, 0, 71, 93
2, 61205, Note_on_c, 0, 67, 0
2, 61443, Note_on_c, 0, 71, 0
2, 61446, Note_on_c, 0, 70, 80
2, 61447, Note_on_c, 0, 68, 0
2, 61447, Note_on_c, 0, 67, 72
2, 61500, Note_on_c, 0, 77, 76
2, 61502, Note_on_c, 0, 70, 0
2, 61560, Note_on_c, 0, 75, 72
2, 61561, Note_on_c, 0, 77, 0
2, 61616, Note_on_c, 0, 75, 0
2, 61616, Note_on_c, 0, 73, 76
2, 61669, Note_on_c, 0, 73, 0
2, 61674, Note_on_c, 0, 72, 76
2, 61678, Note_on_c, 0, 68, 72
2, 61684, Note_on_c, 0, 67, 0
2, 61736, Note_on_c, 0, 70, 68
2, 61737, Note_on_c, 0, 68, 0
2, 61795, Note_on_c, 0, 70, 0
2, 61795, Note_on_c, 0, 68, 72
2, 61848, Note_on_c, 0, 72, 0
2, 61855, Note_on_c, 0, 67, 72
2, 61856, Note_on_c, 0, 68, 0
2, 61858, Note_on_c, 0, 72, 85
2, 61902, Note_on_c, 0, 72, 0
2, 61915, Note_on_c, 0, 67, 0
2, 61915, Note_on_c, 0, 72, 68
2, 61916, Note_on_c, 0, 65, 64
2, 61976, Note_on_c, 0, 72, 0
2, 61976, Note_on_c, 0, 71, 89
2, 62037, Note_on_c, 0, 71, 0
2, 62039, Note_on_c, 0, 65, 0
2, 62099, Note_on_c, 0, 70, 93
2, 62101, Note_on_c, 0, 67, 76
2, 62123, Note_on_c, 0, 70, 0
2, 62129, Note_on_c, 0, 67, 0
2, 62160, Note_on_c, 0, 70, 72
2, 62160, Note_on_c, 0, 67, 76
2, 62216, Note_on_c, 0, 65, 62
2, 62218, Note_on_c, 0, 67, 0
2, 62219, Note_on_c, 0, 69, 80
2, 62221, Note_on_c, 0, 70, 0
2, 62284, Note_on_c, 0, 69, 0
2, 62285, Note_on_c, 0, 65, 0
2, 62341, Note_on_c, 0, 68, 89
2, 62342, Note_on_c, 0, 65, 72
2, 62361, Note_on_c, 0, 68, 0
2, 62363, Note_on_c, 0, 65, 0
2, 62401, Note_on_c, 0, 68, 93
2, 62401, Note_on_c, 0, 65, 72
2, 62462, Note_on_c, 0, 70, 85
2, 62463, Note_on_c, 0, 68, 0
2, 62521, Note_on_c, 0, 71, 93
2, 62523, Note_on_c, 0, 70, 0
2, 62580, Note_on_c, 0, 71, 0
2, 62580, Note_on_c, 0, 72, 89
2, 62638, Note_on_c, 0, 72, 0
2, 62638, Note_on_c, 0, 65, 0
2, 62638, Note_on_c, 0, 64, 62
2, 62639, Note_on_c, 0, 67, 85
2, 62765, Note_on_c, 0, 67, 0
2, 62766, Note_on_c, 0, 64, 0
2, 63001, Note_on_c, 0, 70, 89
2, 63001, Note_on_c, 0, 76, 93
2, 63223, Note_on_c, 0, 76, 0
2, 63223, Note_on_c, 0, 68, 76
2, 63224, Note_on_c, 0, 70, 0
2, 63227, Note_on_c, 0, 77, 80
2, 63355, Note_on_c, 0, 77, 0
2, 63355, Note_on_c, 0, 70, 72
2, 63356, Note_on_c, 0, 68, 0
2, 63356, Note_on_c, 0, 67, 80
2, 63476, Note_on_c, 0, 72, 89
2, 63477, Note_on_c, 0, 70, 0
2, 63536, Note_on_c, 0, 72, 0
2, 63536, Note_on_c, 0, 73, 85
2, 63592, Note_on_c, 0, 73, 0
2, 63595, Note_on_c, 0, 75, 80
2, 63656, Note_on_c, 0, 70, 80
2, 63663, Note_on_c, 0, 67, 0
2, 63716, Note_on_c, 0, 68, 76
2, 63717, Note_on_c, 0, 70, 0
2, 63777, Note_on_c, 0, 67, 76
2, 63779, Note_on_c, 0, 68, 0
2, 63838, Note_on_c, 0, 67, 0
2, 63838, Note_on_c, 0, 65, 76
2, 63840, Note_on_c, 0, 68, 72
2, 63841, Note_on_c, 0, 75, 0
2, 63958, Note_on_c, 0, 70, 80
2, 63962, Note_on_c, 0, 68, 0
2, 64015, Note_on_c, 0, 70, 0
2, 64016, Note_on_c, 0, 72, 85
2, 64077, Note_on_c, 0, 73, 89
2, 64078, Note_on_c, 0, 72, 0
2, 64134, Note_on_c, 0, 68, 76
2, 64136, Note_on_c, 0, 65, 0
2, 64196, Note_on_c, 0, 68, 0
2, 64197, Note_on_c, 0, 67, 80
2, 64255, Note_on_c, 0, 67, 0
2, 64255, Note_on_c, 0, 65, 80
2, 64312, Note_on_c, 0, 65, 0
2, 64312, Note_on_c, 0, 64, 80
2, 64314, Note_on_c, 0, 67, 80
2, 64316, Note_on_c, 0, 73, 0
2, 64434, Note_on_c, 0, 68, 76
2, 64435, Note_on_c, 0, 65, 80
2, 64436, Note_on_c, 0, 67, 0
2, 64445, Note_on_c, 0, 64, 0
2, 64493, Note_on_c, 0, 68, 0
2, 64494, Note_on_c, 0, 70, 80
2, 64494, Note_on_c, 0, 67, 76
2, 64495, Note_on_c, 0, 65, 0
2, 64551, Note_on_c, 0, 70, 0
2, 64552, Note_on_c, 0, 72, 93
2, 64553, Note_on_c, 0, 67, 0
2, 64553, Note_on_c, 0, 68, 76
2, 64615, Note_on_c, 0, 79, 76
2, 64622, Note_on_c, 0, 72, 0
2, 64637, Note_on_c, 0, 77, 76
2, 64641, Note_on_c, 0, 79, 0
2, 64658, Note_on_c, 0, 77, 0
2, 64658, Note_on_c, 0, 76, 72
2, 64669, Note_on_c, 0, 77, 89
2, 64673, Note_on_c, 0, 76, 0
2, 64731, Note_on_c, 0, 79, 76
2, 64737, Note_on_c, 0, 77, 0
2, 64741, Note_on_c, 0, 68, 0
2, 64753, Note_on_c, 0, 79, 0
2, 64792, Note_on_c, 0, 80, 85
2, 64855, Note_on_c, 0, 71, 89
2, 64856, Note_on_c, 0, 80, 0
2, 64872, Note_on_c, 0, 71, 0
2, 64913, Note_on_c, 0, 71, 89
2, 64914, Note_on_c, 0, 61, 57
2, 64915, Note_on_c, 0, 65, 76
2, 64936, Note_on_c, 0, 71, 0
2, 64978, Note_on_c, 0, 71, 85
2, 65000, Note_on_c, 0, 71, 0
2, 65005, Note_on_c, 0, 61, 0
2, 65007, Note_on_c, 0, 65, 0
2, 65041, Note_on_c, 0, 80, 98
2, 65100, Note_on_c, 0, 71, 85
2, 65103, Note_on_c, 0, 80, 0
2, 65118, Note_on_c, 0, 71, 0
2, 65157, Note_on_c, 0, 71, 98
2, 65159, Note_on_c, 0, 65, 72
2, 65160, Note_on_c, 0, 62, 68
2, 65177, Note_on_c, 0, 71, 0
2, 65218, Note_on_c, 0, 71, 93
2, 65237, Note_on_c, 0, 71, 0
2, 65258, Note_on_c, 0, 65, 0
2, 65260, Note_on_c, 0, 62, 0
2, 65280, Note_on_c, 0, 72, 76
2, 65337, Note_on_c, 0, 72, 0
2, 65339, Note_on_c, 0, 73, 80
2, 65401, Note_on_c, 0, 67, 80
2, 65402, Note_on_c, 0, 73, 0
2, 65402, Note_on_c, 0, 70, 80
2, 65631, Note_on_c, 0, 67, 0
2, 65636, Note_on_c, 0, 68, 89
2, 65639, Note_on_c, 0, 70, 0
2, 65640, Note_on_c, 0, 65, 76
2, 65758, Note_on_c, 0, 67, 93
2, 65759, Note_on_c, 0, 65, 0
2, 65761, Note_on_c, 0, 68, 0
2, 65821, Note_on_c, 0, 73, 80
2, 65826, Note_on_c, 0, 67, 0
2, 65874, Note_on_c, 0, 73, 0
2, 65878, Note_on_c, 0, 72, 93
2, 65907, Note_on_c, 0, 70, 64
2, 65916, Note_on_c, 0, 72, 0
2, 65935, Note_on_c, 0, 68, 68
2, 65944, Note_on_c, 0, 70, 0
2, 65965, Note_on_c, 0, 67, 85
2, 65968, Note_on_c, 0, 68, 0
2, 65991, Note_on_c, 0, 67, 0
2, 65996, Note_on_c, 0, 65, 89
2, 66119, Note_on_c, 0, 64, 89
2, 66121, Note_on_c, 0, 65, 0
2, 66154, Note_on_c, 0, 64, 0
2, 66255, Note_on_c, 0, 58, 62
2, 66255, Note_on_c, 0, 64, 85
2, 66538, Note_on_c, 0, 64, 0
2, 66538, Note_on_c, 0, 65, 76
2, 66553, Note_on_c, 0, 64, 76
2, 66561, Note_on_c, 0, 65, 0
2, 66568, Note_on_c, 0, 64, 0
2, 66568, Note_on_c, 0, 62, 62
2, 66579, Note_on_c, 0, 64, 72
2, 66585, Note_on_c, 0, 62, 0
2, 66598, Note_on_c, 0, 64, 0
2, 66599, Note_on_c, 0, 67, 85
2, 66655, Note_on_c, 0, 65, 80
2, 66660, Note_on_c, 0, 67, 0
2, 66687, Note_on_c, 0, 65, 0
2, 66696, Note_on_c, 0, 58, 0
2, 66716, Note_on_c, 0, 57, 68
2, 66716, Note_on_c, 0, 65, 89
2, 66724, Note_on_c, 0, 57, 68
2, 66725, Note_on_c, 0, 65, 89
2, 66775, Note_on_c, 0, 65, 0
2, 66777, Note_on_c, 0, 65, 0
2, 66777, Note_on_c, 0, 67, 68
2, 66792, Note_on_c, 0, 65, 72
2, 66797, Note_on_c, 0, 67, 0
2, 66806, Note_on_c, 0, 65, 0
2, 66807, Note_on_c, 0, 64, 76
2, 66817, Note_on_c, 0, 65, 76
2, 66821, Note_on_c, 0, 64, 0
2, 66835, Note_on_c, 0, 65, 0
2, 66836, Note_on_c, 0, 69, 64
2, 66893, Note_on_c, 0, 67, 80
2, 66894, Note_on_c, 0, 69, 0
2, 66907, Note_on_c, 0, 57, 0
2, 66935, Note_on_c, 0, 67, 0
2, 66939, Note_on_c, 0, 57, 0
2, 66961, Note_on_c, 0, 67, 89
2, 66964, Note_on_c, 0, 64, 72
2, 67016, Note_on_c, 0, 67, 0
2, 67016, Note_on_c, 0, 69, 64
2, 67032, Note_on_c, 0, 67, 76
2, 67036, Note_on_c, 0, 69, 0
2, 67048, Note_on_c, 0, 66, 59
2, 67049, Note_on_c, 0, 67, 0
2, 67060, Note_on_c, 0, 67, 76
2, 67061, Note_on_c, 0, 66, 0
2, 67079, Note_on_c, 0, 70, 80
2, 67080, Note_on_c, 0, 67, 0
2, 67091, Note_on_c, 0, 64, 0
2, 67134, Note_on_c, 0, 69, 80
2, 67140, Note_on_c, 0, 70, 0
2, 67177, Note_on_c, 0, 69, 0
2, 67198, Note_on_c, 0, 65, 76
2, 67199, Note_on_c, 0, 69, 76
2, 67231, Note_on_c, 0, 65, 0
2, 67237, Note_on_c, 0, 69, 0
2, 67237, Note_on_c, 0, 65, 89
2, 67275, Note_on_c, 0, 65, 0
2, 67276, Note_on_c, 0, 67, 89
2, 67312, Note_on_c, 0, 67, 0
2, 67314, Note_on_c, 0, 69, 93
2, 67355, Note_on_c, 0, 69, 0
2, 67356, Note_on_c, 0, 70, 76
2, 67395, Note_on_c, 0, 70, 0
2, 67395, Note_on_c, 0, 72, 80
2, 67439, Note_on_c, 0, 70, 80
2, 67440, Note_on_c, 0, 72, 0
2, 67478, Note_on_c, 0, 67, 68
2, 67480, Note_on_c, 0, 70, 0
2, 67517, Note_on_c, 0, 69, 89
2, 67518, Note_on_c, 0, 67, 0
2, 67556, Note_on_c, 0, 69, 0
2, 67559, Note_on_c, 0, 70, 93
2, 67597, Note_on_c, 0, 70, 0
2, 67597, Note_on_c, 0, 72, 85
2, 67637, Note_on_c, 0, 72, 0
2, 67637, Note_on_c, 0, 74, 89
2, 67678, Note_on_c, 0, 74, 0
2, 67679, Note_on_c, 0, 72, 93
2, 67720, Note_on_c, 0, 65, 89
2, 67722, Note_on_c, 0, 72, 0
2, 67760, Note_on_c, 0, 67, 93
2, 67761, Note_on_c, 0, 65, 0
2, 67798, Note_on_c, 0, 67, 0
2, 67800, Note_on_c, 0, 68, 89
2, 67839, Note_on_c, 0, 68, 0
2, 67839, Note_on_c, 0, 69, 80
2, 67880, Note_on_c, 0, 69, 0
2, 67880, Note_on_c, 0, 70, 72
2, 67919, Note_on_c, 0, 70, 0
2, 67919, Note_on_c, 0, 71, 76
2, 67959, Note_on_c, 0, 72, 80
2, 67961, Note_on_c, 0, 71, 0
2, 68000, Note_on_c, 0, 73, 72
2, 68001, Note_on_c, 0, 72, 0
2, 68041, Note_on_c, 0, 74, 76
2, 68042, Note_on_c, 0, 73, 0
2, 68081, Note_on_c, 0, 74, 0
2, 68081, Note_on_c, 0, 75, 72
2, 68119, Note_on_c, 0, 76, 68
2, 68121, Note_on_c, 0, 75, 0
2, 68160, Note_on_c, 0, 76, 0
2, 68160, Note_on_c, 0, 77, 76
2, 68339, Note_on_c, 0, 77, 0
2, 68339, Note_on_c, 0, 79, 76
2, 68353, Note_on_c, 0, 77, 72
2, 68359, Note_on_c, 0, 79, 0
2, 68364, Note_on_c, 0, 76, 62
2, 68367, Note_on_c, 0, 77, 0
2, 68376, Note_on_c, 0, 77, 64
2, 68382, Note_on_c, 0, 76, 0
2, 68392, Note_on_c, 0, 77, 0
2, 68393, Note_on_c, 0, 81, 80
2, 68631, Note_on_c, 0, 81, 0
2, 68648, Note_on_c, 0, 81, 89
2, 68701, Note_on_c, 0, 79, 80
2, 68707, Note_on_c, 0, 81, 0
2, 68742, Note_on_c, 0, 79, 0
2, 68761, Note_on_c, 0, 79, 76
2, 68812, Note_on_c, 0, 79, 0
2, 68814, Note_on_c, 0, 76, 64
2, 68872, Note_on_c, 0, 76, 0
2, 68873, Note_on_c, 0, 77, 85
2, 68935, Note_on_c, 0, 77, 0
2, 68937, Note_on_c, 0, 79, 68
2, 68954, Note_on_c, 0, 77, 57
2, 68961, Note_on_c, 0, 79, 0
2, 68972, Note_on_c, 0, 76, 76
2, 68977, Note_on_c, 0, 77, 0
2, 68989, Note_on_c, 0, 76, 0
2, 68990, Note_on_c, 0, 77, 80
2, 69055, Note_on_c, 0, 77, 0
2, 69055, Note_on_c, 0, 81, 89
2, 69072, Note_on_c, 0, 81, 0
2, 69113, Note_on_c, 0, 78, 76
2, 69174, Note_on_c, 0, 78, 0
2, 69174, Note_on_c, 0, 79, 89
2, 69236, Note_on_c, 0, 79, 0
2, 69236, Note_on_c, 0, 82, 89
2, 69295, Note_on_c, 0, 76, 85
2, 69297, Note_on_c, 0, 82, 0
2, 69353, Note_on_c, 0, 79, 89
2, 69355, Note_on_c, 0, 76, 0
2, 69414, Note_on_c, 0, 77, 76
2, 69416, Note_on_c, 0, 79, 0
2, 69540, Note_on_c, 0, 81, 85
2, 69541, Note_on_c, 0, 77, 0
2, 69612, Note_on_c, 0, 81, 0
2, 69660, Note_on_c, 0, 84, 89
2, 69692, Note_on_c, 0, 82, 76
2, 69696, Note_on_c, 0, 84, 0
2, 69718, Note_on_c, 0, 82, 0
2, 69783, Note_on_c, 0, 81, 80
2, 69812, Note_on_c, 0, 79, 80
2, 69815, Note_on_c, 0, 81, 0
2, 69832, Note_on_c, 0, 79, 0
2, 69904, Note_on_c, 0, 82, 80
2, 69934, Note_on_c, 0, 81, 85
2, 69939, Note_on_c, 0, 82, 0
2, 69954, Note_on_c, 0, 81, 0
2, 70026, Note_on_c, 0, 79, 76
2, 70056, Note_on_c, 0, 77, 72
2, 70057, Note_on_c, 0, 79, 0
2, 70086, Note_on_c, 0, 77, 0
2, 70088, Note_on_c, 0, 74, 76
2, 70144, Note_on_c, 0, 74, 0
2, 70145, Note_on_c, 0, 76, 85
2, 70161, Note_on_c, 0, 74, 68
2, 70164, Note_on_c, 0, 76, 0
2, 70179, Note_on_c, 0, 73, 62
2, 70180, Note_on_c, 0, 74, 0
2, 70194, Note_on_c, 0, 73, 0
2, 70195, Note_on_c, 0, 74, 72
2, 70258, Note_on_c, 0, 76, 89
2, 70259, Note_on_c, 0, 74, 0
2, 70321, Note_on_c, 0, 76, 0
2, 70323, Note_on_c, 0, 77, 93
2, 70378, Note_on_c, 0, 77, 0
2, 70378, Note_on_c, 0, 78, 76
2, 70434, Note_on_c, 0, 81, 89
2, 70437, Note_on_c, 0, 78, 0
2, 70494, Note_on_c, 0, 79, 89
2, 70496, Note_on_c, 0, 81, 0
2, 70548, Note_on_c, 0, 79, 0
2, 70557, Note_on_c, 0, 79, 89
2, 70678, Note_on_c, 0, 79, 0
2, 70678, Note_on_c, 0, 72, 80
2, 70834, Note_on_c, 0, 73, 85
2, 70838, Note_on_c, 0, 72, 0
2, 70865, Note_on_c, 0, 74, 72
2, 70866, Note_on_c, 0, 73, 0
2, 70897, Note_on_c, 0, 72, 76
2, 70900, Note_on_c, 0, 74, 0
2, 70914, Note_on_c, 0, 72, 0
2, 70928, Note_on_c, 0, 72, 85
2, 70959, Note_on_c, 0, 70, 76
2, 70964, Note_on_c, 0, 72, 0
2, 70988, Note_on_c, 0, 69, 80
2, 70990, Note_on_c, 0, 70, 0
2, 71017, Note_on_c, 0, 67, 76
2, 71018, Note_on_c, 0, 69, 0
2, 71040, Note_on_c, 0, 67, 0
2, 71048, Note_on_c, 0, 65, 85
2, 71107, Note_on_c, 0, 67, 93
2, 71108, Note_on_c, 0, 65, 0
2, 71137, Note_on_c, 0, 69, 89
2, 71141, Note_on_c, 0, 67, 0
2, 71169, Note_on_c, 0, 70, 76
2, 71174, Note_on_c, 0, 69, 0
2, 71194, Note_on_c, 0, 70, 0
2, 71196, Note_on_c, 0, 72, 93
2, 71224, Note_on_c, 0, 74, 68
2, 71230, Note_on_c, 0, 72, 0
2, 71254, Note_on_c, 0, 76, 85
2, 71255, Note_on_c, 0, 74, 0
2, 71280, Note_on_c, 0, 76, 0
2, 71283, Note_on_c, 0, 77, 85
2, 71312, Note_on_c, 0, 79, 85
2, 71314, Note_on_c, 0, 77, 0
2, 71340, Note_on_c, 0, 79, 0
2, 71340, Note_on_c, 0, 81, 80
2, 71369, Note_on_c, 0, 82, 85
2, 71371, Note_on_c, 0, 81, 0
2, 71400, Note_on_c, 0, 84, 93
2, 71401, Note_on_c, 0, 82, 0
2, 71464, Note_on_c, 0, 84, 0
2, 71464, Note_on_c, 0, 81, 85
2, 71526, Note_on_c, 0, 79, 93
2, 71528, Note_on_c, 0, 81, 0
2, 71558, Note_on_c, 0, 81, 76
2, 71562, Note_on_c, 0, 79, 0
2, 71587, Note_on_c, 0, 82, 80
2, 71589, Note_on_c, 0, 81, 0
2, 71619, Note_on_c, 0, 79, 89
2, 71623, Note_on_c, 0, 82, 0
2, 71649, Note_on_c, 0, 79, 0
2, 71649, Note_on_c, 0, 76, 76
2, 71677, Note_on_c, 0, 77, 80
2, 71679, Note_on_c, 0, 76, 0
2, 71706, Note_on_c, 0, 77, 0
2, 71706, Note_on_c, 0, 79, 85
2, 71737, Note_on_c, 0, 76, 64
2, 71744, Note_on_c, 0, 79, 0
2, 71761, Note_on_c, 0, 76, 0
2, 71765, Note_on_c, 0, 77, 80
2, 71784, Note_on_c, 0, 77, 0
2, 71797, Note_on_c, 0, 84, 85
2, 71827, Note_on_c, 0, 83, 89
2, 71828, Note_on_c, 0, 84, 0
2, 71852, Note_on_c, 0, 83, 0
2, 71853, Note_on_c, 0, 84, 62
2, 71876, Note_on_c, 0, 84, 0
2, 71886, Note_on_c, 0, 86, 98
2, 71915, Note_on_c, 0, 84, 80
2, 71916, Note_on_c, 0, 86, 0
2, 71943, Note_on_c, 0, 82, 76
2, 71945, Note_on_c, 0, 84, 0
2, 71970, Note_on_c, 0, 81, 89
2, 71973, Note_on_c, 0, 82, 0
2, 72002, Note_on_c, 0, 81, 0
2, 72002, Note_on_c, 0, 79, 80
2, 72032, Note_on_c, 0, 81, 76
2, 72037, Note_on_c, 0, 79, 0
2, 72064, Note_on_c, 0, 82, 72
2, 72066, Note_on_c, 0, 81, 0
2, 72093, Note_on_c, 0, 79, 72
2, 72095, Note_on_c, 0, 82, 0
2, 72115, Note_on_c, 0, 79, 0
2, 72122, Note_on_c, 0, 76, 80
2, 72153, Note_on_c, 0, 77, 76
2, 72154, Note_on_c, 0, 76, 0
2, 72181, Note_on_c, 0, 77, 0
2, 72183, Note_on_c, 0, 79, 80
2, 72212, Note_on_c, 0, 79, 0
2, 72213, Note_on_c, 0, 76, 80
2, 72242, Note_on_c, 0, 76, 0
2, 72244, Note_on_c, 0, 77, 85
2, 72303, Note_on_c, 0, 77, 0
2, 72307, Note_on_c, 0, 81, 98
2, 72308, Note_on_c, 0, 69, 85
2, 72424, Note_on_c, 0, 81, 0
2, 72425, Note_on_c, 0, 69, 0
2, 72426, Note_on_c, 0, 84, 93
2, 72427, Note_on_c, 0, 72, 80
2, 72546, Note_on_c, 0, 72, 0
2, 72546, Note_on_c, 0, 83, 98
2, 72546, Note_on_c, 0, 71, 89
2, 72547, Note_on_c, 0, 84, 0
2, 72664, Note_on_c, 0, 82, 85
2, 72665, Note_on_c, 0, 83, 0
2, 72665, Note_on_c, 0, 70, 76
2, 72666, Note_on_c, 0, 71, 0
2, 72784, Note_on_c, 0, 80, 89
2, 72785, Note_on_c, 0, 70, 0
2, 72785, Note_on_c, 0, 68, 72
2, 72786, Note_on_c, 0, 82, 0
2, 72901, Note_on_c, 0, 80, 0
2, 72905, Note_on_c, 0, 81, 93
2, 72906, Note_on_c, 0, 68, 0
2, 72906, Note_on_c, 0, 69, 76
2, 72957, Note_on_c, 0, 81, 0
2, 72960, Note_on_c, 0, 69, 0
2, 72997, Note_on_c, 0, 67, 80
2, 73028, Note_on_c, 0, 69, 89
2, 73029, Note_on_c, 0, 67, 0
2, 73054, Note_on_c, 0, 70, 68
2, 73058, Note_on_c, 0, 69, 0
2, 73084, Note_on_c, 0, 70, 0
2, 73086, Note_on_c, 0, 72, 89
2, 73113, Note_on_c, 0, 74, 76
2, 73117, Note_on_c, 0, 72, 0
2, 73143, Note_on_c, 0, 76, 85
2, 73144, Note_on_c, 0, 74, 0
2, 73172, Note_on_c, 0, 78, 68
2, 73173, Note_on_c, 0, 76, 0
2, 73200, Note_on_c, 0, 78, 0
2, 73203, Note_on_c, 0, 79, 93
2, 73234, Note_on_c, 0, 81, 85
2, 73237, Note_on_c, 0, 79, 0
2, 73261, Note_on_c, 0, 82, 76
2, 73265, Note_on_c, 0, 81, 0
2, 73290, Note_on_c, 0, 82, 0
2, 73291, Note_on_c, 0, 84, 62
2, 73322, Note_on_c, 0, 84, 0
2, 73322, Note_on_c, 0, 86, 85
2, 73380, Note_on_c, 0, 86, 0
2, 73380, Note_on_c, 0, 76, 93
2, 73440, Note_on_c, 0, 76, 0
2, 73449, Note_on_c, 0, 79, 93
2, 73620, Note_on_c, 0, 79, 0
2, 73621, Note_on_c, 0, 81, 68
2, 73650, Note_on_c, 0, 79, 76
2, 73660, Note_on_c, 0, 81, 0
2, 73677, Note_on_c, 0, 79, 0
2, 73681, Note_on_c, 0, 77, 93
2, 73700, Note_on_c, 0, 77, 0
2, 73722, Note_on_c, 0, 76, 76
2, 73739, Note_on_c, 0, 76, 0
2, 73762, Note_on_c, 0, 75, 76
2, 73777, Note_on_c, 0, 75, 0
2, 73804, Note_on_c, 0, 74, 80
2, 73823, Note_on_c, 0, 74, 0
2, 73848, Note_on_c, 0, 73, 68
2, 73864, Note_on_c, 0, 73, 0
2, 73884, Note_on_c, 0, 72, 80
2, 73901, Note_on_c, 0, 72, 0
2, 73928, Note_on_c, 0, 70, 76
2, 74155, Note_on_c, 0, 70, 0
2, 74156, Note_on_c, 0, 69, 80
2, 74396, Note_on_c, 0, 69, 0
2, 74409, Note_on_c, 0, 67, 89
2, 74427, Note_on_c, 0, 67, 0
2, 74451, Note_on_c, 0, 69, 80
2, 74468, Note_on_c, 0, 69, 0
2, 74492, Note_on_c, 0, 70, 72
2, 74508, Note_on_c, 0, 70, 0
2, 74530, Note_on_c, 0, 72, 89
2, 74547, Note_on_c, 0, 72, 0
2, 74570, Note_on_c, 0, 74, 64
2, 74585, Note_on_c, 0, 74, 0
2, 74609, Note_on_c, 0, 76, 76
2, 74622, Note_on_c, 0, 76, 0
2, 74649, Note_on_c, 0, 77, 89
2, 74756, Note_on_c, 0, 77, 0
2, 74817, Note_on_c, 0, 77, 89
2, 74840, Note_on_c, 0, 77, 0
2, 74875, Note_on_c, 0, 84, 89
2, 74939, Note_on_c, 0, 83, 85
2, 74941, Note_on_c, 0, 84, 0
2, 74983, Note_on_c, 0, 83, 0
2, 75060, Note_on_c, 0, 82, 89
2, 75121, Note_on_c, 0, 80, 93
2, 75122, Note_on_c, 0, 82, 0
2, 75181, Note_on_c, 0, 81, 85
2, 75182, Note_on_c, 0, 80, 0
2, 75230, Note_on_c, 0, 81, 0
2, 75304, Note_on_c, 0, 81, 89
2, 75363, Note_on_c, 0, 81, 0
2, 75363, Note_on_c, 0, 78, 72
2, 75393, Note_on_c, 0, 78, 0
2, 75395, Note_on_c, 0, 79, 85
2, 75423, Note_on_c, 0, 81, 80
2, 75426, Note_on_c, 0, 79, 0
2, 75453, Note_on_c, 0, 82, 72
2, 75456, Note_on_c, 0, 81, 0
2, 75482, Note_on_c, 0, 82, 0
2, 75483, Note_on_c, 0, 83, 80
2, 75512, Note_on_c, 0, 84, 76
2, 75516, Note_on_c, 0, 83, 0
2, 75540, Note_on_c, 0, 86, 89
2, 75543, Note_on_c, 0, 84, 0
2, 75569, Note_on_c, 0, 88, 76
2, 75570, Note_on_c, 0, 86, 0
2, 75603, Note_on_c, 0, 88, 0
2, 75603, Note_on_c, 0, 89, 93
2, 75710, Note_on_c, 0, 89, 0
2, 75845, Note_on_c, 0, 77, 89
2, 75935, Note_on_c, 0, 77, 0
2, 75937, Note_on_c, 0, 74, 80
2, 75963, Note_on_c, 0, 74, 0
2, 75964, Note_on_c, 0, 71, 93
2, 76202, Note_on_c, 0, 72, 85
2, 76203, Note_on_c, 0, 71, 0
2, 76315, Note_on_c, 0, 72, 0
2, 76325, Note_on_c, 0, 74, 93
2, 76419, Note_on_c, 0, 74, 0
2, 76420, Note_on_c, 0, 70, 76
2, 76443, Note_on_c, 0, 70, 0
2, 76444, Note_on_c, 0, 67, 85
2, 76663, Note_on_c, 0, 67, 0
2, 76668, Note_on_c, 0, 69, 85
2, 76791, Note_on_c, 0, 69, 0
2, 76802, Note_on_c, 0, 72, 89
2, 76818, Note_on_c, 0, 70, 62
2, 76823, Note_on_c, 0, 72, 0
2, 76833, Note_on_c, 0, 70, 0
2, 76833, Note_on_c, 0, 69, 56
2, 76847, Note_on_c, 0, 70, 68
2, 76850, Note_on_c, 0, 69, 0
2, 76862, Note_on_c, 0, 70, 0
2, 76863, Note_on_c, 0, 72, 76
2, 76894, Note_on_c, 0, 72, 0
2, 76895, Note_on_c, 0, 74, 72
2, 76923, Note_on_c, 0, 74, 0
2, 76923, Note_on_c, 0, 72, 80
2, 76956, Note_on_c, 0, 70, 72
2, 76957, Note_on_c, 0, 72, 0
2, 76986, Note_on_c, 0, 70, 0
2, 76986, Note_on_c, 0, 69, 76
2, 77013, Note_on_c, 0, 69, 0
2, 77017, Note_on_c, 0, 67, 80
2, 77047, Note_on_c, 0, 67, 0
2, 77047, Note_on_c, 0, 65, 85
2, 77107, Note_on_c, 0, 72, 80
2, 77108, Note_on_c, 0, 65, 0
2, 77162, Note_on_c, 0, 72, 0
2, 77164, Note_on_c, 0, 67, 89
2, 77220, Note_on_c, 0, 72, 80
2, 77221, Note_on_c, 0, 67, 0
2, 77280, Note_on_c, 0, 72, 0
2, 77280, Note_on_c, 0, 64, 89
2, 77280, Note_on_c, 0, 70, 80
2, 77280, Note_on_c, 0, 67, 89
2, 77518, Note_on_c, 0, 64, 0
2, 77518, Note_on_c, 0, 69, 85
2, 77520, Note_on_c, 0, 67, 0
2, 77520, Note_on_c, 0, 65, 85
2, 77521, Note_on_c, 0, 70, 0
2, 77547, Note_on_c, 0, 65, 0
2, 77547, Note_on_c, 0, 69, 0
2, 77548, Note_on_c, 0, 77, 72
2, 77564, Note_on_c, 0, 77, 0
2, 77578, Note_on_c, 0, 79, 76
2, 77593, Note_on_c, 0, 79, 0
2, 77607, Note_on_c, 0, 81, 64
2, 77621, Note_on_c, 0, 81, 0
2, 77637, Note_on_c, 0, 82, 85
2, 77653, Note_on_c, 0, 82, 0
2, 77669, Note_on_c, 0, 84, 85
2, 77681, Note_on_c, 0, 84, 0
2, 77699, Note_on_c, 0, 86, 64
2, 77713, Note_on_c, 0, 86, 0
2, 77727, Note_on_c, 0, 88, 64
2, 77744, Note_on_c, 0, 88, 0
2, 77758, Note_on_c, 0, 89, 80
2, 77789, Note_on_c, 0, 88, 80
2, 77791, Note_on_c, 0, 89, 0
2, 77819, Note_on_c, 0, 88, 0
2, 77819, Note_on_c, 0, 89, 72
2, 77848, Note_on_c, 0, 86, 89
2, 77853, Note_on_c, 0, 89, 0
2, 77881, Note_on_c, 0, 86, 0
2, 77881, Note_on_c, 0, 83, 93
2, 78108, Note_on_c, 0, 83, 0
2, 78108, Note_on_c, 0, 84, 98
2, 78165, Note_on_c, 0, 84, 0
2, 78167, Note_on_c, 0, 85, 85
2, 78227, Note_on_c, 0, 85, 0
2, 78228, Note_on_c, 0, 86, 89
2, 78261, Note_on_c, 0, 85, 76
2, 78264, Note_on_c, 0, 86, 0
2, 78294, Note_on_c, 0, 85, 0
2, 78295, Note_on_c, 0, 86, 89
2, 78326, Note_on_c, 0, 82, 80
2, 78327, Note_on_c, 0, 86, 0
2, 78359, Note_on_c, 0, 82, 0
2, 78359, Note_on_c, 0, 79, 85
2, 78539, Note_on_c, 0, 79, 0
2, 78539, Note_on_c, 0, 80, 98
2, 78595, Note_on_c, 0, 80, 0
2, 78596, Note_on_c, 0, 81, 89
2, 78629, Note_on_c, 0, 82, 76
2, 78633, Note_on_c, 0, 81, 0
2, 78658, Note_on_c, 0, 83, 80
2, 78665, Note_on_c, 0, 82, 0
2, 78689, Note_on_c, 0, 84, 76
2, 78690, Note_on_c, 0, 83, 0
2, 78720, Note_on_c, 0, 85, 76
2, 78726, Note_on_c, 0, 84, 0
2, 78781, Note_on_c, 0, 85, 0
2, 78782, Note_on_c, 0, 86, 93
2, 78840, Note_on_c, 0, 86, 0
2, 78840, Note_on_c, 0, 84, 89
2, 78873, Note_on_c, 0, 82, 80
2, 78877, Note_on_c, 0, 84, 0
2, 78901, Note_on_c, 0, 81, 62
2, 78902, Note_on_c, 0, 82, 0
2, 78929, Note_on_c, 0, 81, 0
2, 78929, Note_on_c, 0, 79, 72
2, 78963, Note_on_c, 0, 79, 0
2, 78963, Note_on_c, 0, 77, 80
2, 79079, Note_on_c, 0, 81, 89
2, 79080, Note_on_c, 0, 77, 0
2, 79080, Note_on_c, 0, 76, 64
2, 79138, Note_on_c, 0, 79, 85
2, 79139, Note_on_c, 0, 81, 0
2, 79195, Note_on_c, 0, 76, 0
2, 79196, Note_on_c, 0, 79, 0
2, 79197, Note_on_c, 0, 77, 93
2, 79227, Note_on_c, 0, 76, 72
2, 79228, Note_on_c, 0, 77, 0
2, 79258, Note_on_c, 0, 79, 80
2, 79262, Note_on_c, 0, 76, 0
2, 79287, Note_on_c, 0, 77, 76
2, 79289, Note_on_c, 0, 79, 0
2, 79319, Note_on_c, 0, 77, 0
2, 79319, Note_on_c, 0, 81, 93
2, 79349, Note_on_c, 0, 79, 76
2, 79356, Note_on_c, 0, 81, 0
2, 79380, Note_on_c, 0, 77, 76
2, 79386, Note_on_c, 0, 79, 0
2, 79411, Note_on_c, 0, 76, 76
2, 79412, Note_on_c, 0, 77, 0
2, 79438, Note_on_c, 0, 76, 0
2, 79441, Note_on_c, 0, 74, 89
2, 79471, Note_on_c, 0, 72, 64
2, 79481, Note_on_c, 0, 74, 0
2, 79498, Note_on_c, 0, 72, 0
2, 79499, Note_on_c, 0, 71, 51
2, 79530, Note_on_c, 0, 74, 85
2, 79531, Note_on_c, 0, 71, 0
2, 79560, Note_on_c, 0, 74, 0
2, 79561, Note_on_c, 0, 79, 80
2, 79593, Note_on_c, 0, 77, 76
2, 79596, Note_on_c, 0, 79, 0
2, 79623, Note_on_c, 0, 74, 89
2, 79628, Note_on_c, 0, 77, 0
2, 79653, Note_on_c, 0, 74, 0
2, 79653, Note_on_c, 0, 71, 76
2, 79678, Note_on_c, 0, 71, 0
2, 79684, Note_on_c, 0, 70, 93
2, 79714, Note_on_c, 0, 69, 76
2, 79717, Note_on_c, 0, 70, 0
2, 79742, Note_on_c, 0, 69, 0
2, 79744, Note_on_c, 0, 72, 72
2, 79772, Note_on_c, 0, 70, 72
2, 79774, Note_on_c, 0, 72, 0
2, 79800, Note_on_c, 0, 74, 89
2, 79801, Note_on_c, 0, 70, 0
2, 79831, Note_on_c, 0, 72, 85
2, 79833, Note_on_c, 0, 74, 0
2, 79860, Note_on_c, 0, 70, 68
2, 79862, Note_on_c, 0, 72, 0
2, 79889, Note_on_c, 0, 69, 76
2, 79894, Note_on_c, 0, 70, 0
2, 79918, Note_on_c, 0, 69, 0
2, 79918, Note_on_c, 0, 67, 72
2, 79948, Note_on_c, 0, 67, 0
2, 79948, Note_on_c, 0, 65, 76
2, 79978, Note_on_c, 0, 64, 80
2, 79981, Note_on_c, 0, 65, 0
2, 80004, Note_on_c, 0, 64, 0
2, 80005, Note_on_c, 0, 67, 76
2, 80033, Note_on_c, 0, 67, 0
2, 80035, Note_on_c, 0, 72, 85
2, 80065, Note_on_c, 0, 70, 72
2, 80070, Note_on_c, 0, 72, 0
2, 80095, Note_on_c, 0, 67, 85
2, 80100, Note_on_c, 0, 70, 0
2, 80125, Note_on_c, 0, 64, 72
2, 80126, Note_on_c, 0, 67, 0
2, 80164, Note_on_c, 0, 64, 0
2, 80220, Note_on_c, 0, 67, 93
2, 80235, Note_on_c, 0, 67, 0
2, 80235, Note_on_c, 0, 65, 93
2, 80250, Note_on_c, 0, 65, 0
2, 80250, Note_on_c, 0, 64, 93
2, 80265, Note_on_c, 0, 64, 0
2, 80265, Note_on_c, 0, 65, 93
2, 80280, Note_on_c, 0, 65, 0
2, 80280, Note_on_c, 0, 84, 93
2, 80340, Note_on_c, 0, 84, 0
2, 80340, Note_on_c, 0, 84, 93
2, 80370, Note_on_c, 0, 84, 0
2, 80460, Note_on_c, 0, 69, 93
2, 80475, Note_on_c, 0, 69, 0
2, 80475, Note_on_c, 0, 67, 93
2, 80490, Note_on_c, 0, 67, 0
2, 80490, Note_on_c, 0, 66, 93
2, 80505, Note_on_c, 0, 66, 0
2, 80505, Note_on_c, 0, 67, 93
2, 80520, Note_on_c, 0, 67, 0
2, 80520, Note_on_c, 0, 86, 93
2, 80580, Note_on_c, 0, 86, 0
2, 80580, Note_on_c, 0, 86, 93
2, 80610, Note_on_c, 0, 86, 0
2, 80640, Note_on_c, 0, 84, 93
2, 80753, Note_on_c, 0, 84, 0
2, 80754, Note_on_c, 0, 72, 80
2, 80931, Note_on_c, 0, 74, 85
2, 80933, Note_on_c, 0, 72, 0
2, 80947, Note_on_c, 0, 72, 76
2, 80954, Note_on_c, 0, 74, 0
2, 80966, Note_on_c, 0, 71, 60
2, 80968, Note_on_c, 0, 72, 0
2, 80983, Note_on_c, 0, 72, 64
2, 80986, Note_on_c, 0, 71, 0
2, 81002, Note_on_c, 0, 74, 76
2, 81003, Note_on_c, 0, 72, 0
2, 81060, Note_on_c, 0, 74, 0
2, 81060, Note_on_c, 0, 76, 80
2, 81119, Note_on_c, 0, 76, 0
2, 81119, Note_on_c, 0, 77, 80
2, 81153, Note_on_c, 0, 76, 62
2, 81154, Note_on_c, 0, 77, 0
2, 81184, Note_on_c, 0, 79, 76
2, 81186, Note_on_c, 0, 76, 0
2, 81213, Note_on_c, 0, 77, 68
2, 81215, Note_on_c, 0, 79, 0
2, 81245, Note_on_c, 0, 77, 0
2, 81246, Note_on_c, 0, 81, 89
2, 81276, Note_on_c, 0, 79, 76
2, 81282, Note_on_c, 0, 81, 0
2, 81307, Note_on_c, 0, 77, 64
2, 81310, Note_on_c, 0, 79, 0
2, 81335, Note_on_c, 0, 77, 0
2, 81335, Note_on_c, 0, 76, 80
2, 81362, Note_on_c, 0, 76, 0
2, 81365, Note_on_c, 0, 74, 85
2, 81393, Note_on_c, 0, 74, 0
2, 81394, Note_on_c, 0, 72, 76
2, 81420, Note_on_c, 0, 72, 0
2, 81423, Note_on_c, 0, 71, 50
2, 81450, Note_on_c, 0, 71, 0
2, 81450, Note_on_c, 0, 74, 85
2, 81478, Note_on_c, 0, 74, 0
2, 81479, Note_on_c, 0, 79, 85
2, 81510, Note_on_c, 0, 77, 76
2, 81515, Note_on_c, 0, 79, 0
2, 81538, Note_on_c, 0, 74, 76
2, 81544, Note_on_c, 0, 77, 0
2, 81566, Note_on_c, 0, 74, 0
2, 81567, Note_on_c, 0, 71, 72
2, 81595, Note_on_c, 0, 71, 0
2, 81595, Note_on_c, 0, 70, 76
2, 81623, Note_on_c, 0, 69, 62
2, 81624, Note_on_c, 0, 70, 0
2, 81653, Note_on_c, 0, 69, 0
2, 81654, Note_on_c, 0, 72, 80
2, 81681, Note_on_c, 0, 70, 64
2, 81684, Note_on_c, 0, 72, 0
2, 81711, Note_on_c, 0, 70, 0
2, 81711, Note_on_c, 0, 74, 76
2, 81742, Note_on_c, 0, 72, 76
2, 81743, Note_on_c, 0, 74, 0
2, 81771, Note_on_c, 0, 70, 64
2, 81775, Note_on_c, 0, 72, 0
2, 81802, Note_on_c, 0, 69, 64
2, 81808, Note_on_c, 0, 70, 0
2, 81833, Note_on_c, 0, 69, 0
2, 81834, Note_on_c, 0, 67, 76
2, 81862, Note_on_c, 0, 67, 0
2, 81863, Note_on_c, 0, 65, 62
2, 81895, Note_on_c, 0, 64, 76
2, 81903, Note_on_c, 0, 65, 0
2, 81923, Note_on_c, 0, 67, 64
2, 81926, Note_on_c, 0, 64, 0
2, 81953, Note_on_c, 0, 67, 0
2, 81954, Note_on_c, 0, 72, 80
2, 81983, Note_on_c, 0, 70, 60
2, 81990, Note_on_c, 0, 72, 0
2, 82015, Note_on_c, 0, 67, 72
2, 82017, Note_on_c, 0, 70, 0
2, 82045, Note_on_c, 0, 67, 0
2, 82045, Note_on_c, 0, 64, 76
2, 82078, Note_on_c, 0, 64, 0
2, 82080, Note_on_c, 0, 65, 89
2, 82084, Note_on_c, 0, 57, 80
2, 82554, Note_on_c, 0, 65, 0
2, 82557, Note_on_c, 0, 57, 0
2, 82590, Note_on_c, 0, 58, 76
2, 82617, Note_on_c, 0, 58, 0
2, 82617, Note_on_c, 0, 60, 56
2, 82646, Note_on_c, 0, 62, 76
2, 82650, Note_on_c, 0, 60, 0
2, 82677, Note_on_c, 0, 63, 76
2, 82678, Note_on_c, 0, 62, 0
2, 82706, Note_on_c, 0, 63, 0
2, 82707, Note_on_c, 0, 65, 64
2, 82734, Note_on_c, 0, 67, 72
2, 82737, Note_on_c, 0, 65, 0
2, 82764, Note_on_c, 0, 69, 80
2, 82766, Note_on_c, 0, 67, 0
2, 82795, Note_on_c, 0, 70, 72
2, 82797, Note_on_c, 0, 69, 0
2, 82823, Note_on_c, 0, 70, 0
2, 82826, Note_on_c, 0, 72, 80
2, 82854, Note_on_c, 0, 74, 72
2, 82858, Note_on_c, 0, 72, 0
2, 82885, Note_on_c, 0, 75, 76
2, 82888, Note_on_c, 0, 74, 0
2, 82913, Note_on_c, 0, 75, 0
2, 82915, Note_on_c, 0, 77, 89
2, 82943, Note_on_c, 0, 79, 76
2, 82944, Note_on_c, 0, 77, 0
2, 82972, Note_on_c, 0, 81, 76
2, 82973, Note_on_c, 0, 79, 0
2, 83003, Note_on_c, 0, 82, 76
2, 83005, Note_on_c, 0, 81, 0
2, 83036, Note_on_c, 0, 82, 0
2, 83105, Note_on_c, 0, 65, 93
2, 83163, Note_on_c, 0, 65, 0
2, 83164, Note_on_c, 0, 68, 89
2, 83223, Note_on_c, 0, 68, 0
2, 83224, Note_on_c, 0, 71, 98
2, 83274, Note_on_c, 0, 71, 0
2, 83284, Note_on_c, 0, 77, 89
2, 83341, Note_on_c, 0, 77, 0
2, 83343, Note_on_c, 0, 80, 102
2, 83398, Note_on_c, 0, 83, 93
2, 83403, Note_on_c, 0, 80, 0
2, 83459, Note_on_c, 0, 83, 0
2, 83459, Note_on_c, 0, 89, 89
2, 83512, Note_on_c, 0, 89, 0
2, 84725, Note_on_c, 0, 60, 76
2, 84960, Note_on_c, 0, 65, 80
2, 84963, Note_on_c, 0, 60, 0
2, 85200, Note_on_c, 0, 70, 93
2, 85260, Note_on_c, 0, 65, 0
2, 85260, Note_on_c, 0, 64, 80
2, 85320, Note_on_c, 0, 64, 0
2, 85320, Note_on_c, 0, 64, 80
2, 85380, Note_on_c, 0, 64, 0
2, 85380, Note_on_c, 0, 60, 80
2, 85440, Note_on_c, 0, 60, 0
2, 85440, Note_on_c, 0, 75, 80
2, 85500, Note_on_c, 0, 70, 0
2, 85500, Note_on_c, 0, 69, 80
2, 85560, Note_on_c, 0, 69, 0
2, 85560, Note_on_c, 0, 69, 80
2, 85620, Note_on_c, 0, 69, 0
2, 85620, Note_on_c, 0, 65, 80
2, 85680, Note_on_c, 0, 65, 0
2, 85680, Note_on_c, 0, 77, 80
2, 85680, Note_on_c, 0, 65, 80
2, 85740, Note_on_c, 0, 75, 0
2, 85740, Note_on_c, 0, 74, 80
2, 85800, Note_on_c, 0, 74, 0
2, 85800, Note_on_c, 0, 74, 80
2, 85860, Note_on_c, 0, 74, 0
2, 85860, Note_on_c, 0, 72, 80
2, 85920, Note_on_c, 0, 72, 0
2, 85920, Note_on_c, 0, 65, 0
2, 85920, Note_on_c, 0, 77, 0
2, 85920, Note_on_c, 0, 77, 80
2, 85920, Note_on_c, 0, 82, 80
2, 85920, Note_on_c, 0, 72, 80
2, 85980, Note_on_c, 0, 77, 0
2, 85980, Note_on_c, 0, 76, 80
2, 86040, Note_on_c, 0, 76, 0
2, 86040, Note_on_c, 0, 76, 80
2, 86100, Note_on_c, 0, 76, 0
2, 86100, Note_on_c, 0, 72, 80
2, 86160, Note_on_c, 0, 72, 0
2, 86160, Note_on_c, 0, 72, 0
2, 86160, Note_on_c, 0, 77, 80
2, 86160, Note_on_c, 0, 84, 80
2, 86220, Note_on_c, 0, 82, 0
2, 86220, Note_on_c, 0, 81, 80
2, 86280, Note_on_c, 0, 81, 0
2, 86280, Note_on_c, 0, 77, 0
2, 86280, Note_on_c, 0, 76, 80
2, 86280, Note_on_c, 0, 81, 80
2, 86340, Note_on_c, 0, 81, 0
2, 86340, Note_on_c, 0, 79, 80
2, 86400, Note_on_c, 0, 79, 0
2, 86400, Note_on_c, 0, 76, 0
2, 86400, Note_on_c, 0, 84, 0
2, 86400, Note_on_c, 0, 89, 80
2, 86400, Note_on_c, 0, 84, 80
2, 86400, Note_on_c, 0, 79, 80
2, 86460, Note_on_c, 0, 84, 0
2, 86460, Note_on_c, 0, 83, 80
2, 86520, Note_on_c, 0, 83, 0
2, 86520, Note_on_c, 0, 83, 80
2, 86580, Note_on_c, 0, 83, 0
2, 86580, Note_on_c, 0, 79, 80
2, 86640, Note_on_c, 0, 79, 0
2, 86640, Note_on_c, 0, 84, 80
2, 86700, Note_on_c, 0, 84, 0
2, 86700, Note_on_c, 0, 79, 0
2, 86700, Note_on_c, 0, 89, 0
2, 86700, Note_on_c, 0, 88, 80
2, 86760, Note_on_c, 0, 88, 0
2, 86760, Note_on_c, 0, 88, 80
2, 86820, Note_on_c, 0, 88, 0
2, 86820, Note_on_c, 0, 84, 80
2, 86880, Note_on_c, 0, 84, 0
2, 86888, Note_on_c, 0, 86, 102
2, 87170, Note_on_c, 0, 84, 93
2, 87173, Note_on_c, 0, 86, 0
2, 87223, Note_on_c, 0, 84, 0
2, 87232, Note_on_c, 0, 84, 102
2, 87294, Note_on_c, 0, 81, 93
2, 87296, Note_on_c, 0, 84, 0
2, 87355, Note_on_c, 0, 82, 89
2, 87356, Note_on_c, 0, 81, 0
2, 87658, Note_on_c, 0, 81, 89
2, 87660, Note_on_c, 0, 82, 0
2, 87701, Note_on_c, 0, 81, 0
2, 87716, Note_on_c, 0, 81, 85
2, 87776, Note_on_c, 0, 78, 85
2, 87777, Note_on_c, 0, 81, 0
2, 87833, Note_on_c, 0, 78, 0
2, 87836, Note_on_c, 0, 79, 93
2, 87853, Note_on_c, 0, 79, 0
2, 87897, Note_on_c, 0, 78, 72
2, 87911, Note_on_c, 0, 78, 0
2, 87957, Note_on_c, 0, 79, 93
2, 87972, Note_on_c, 0, 79, 0
2, 88018, Note_on_c, 0, 76, 93
2, 88033, Note_on_c, 0, 76, 0
2, 88080, Note_on_c, 0, 77, 93
2, 88092, Note_on_c, 0, 77, 0
2, 88138, Note_on_c, 0, 76, 89
2, 88154, Note_on_c, 0, 76, 0
2, 88198, Note_on_c, 0, 77, 85
2, 88214, Note_on_c, 0, 77, 0
2, 88256, Note_on_c, 0, 78, 89
2, 88273, Note_on_c, 0, 78, 0
2, 88319, Note_on_c, 0, 79, 89
2, 88348, Note_on_c, 0, 79, 0
2, 88348, Note_on_c, 0, 81, 76
2, 88379, Note_on_c, 0, 81, 0
2, 88379, Note_on_c, 0, 78, 76
2, 88407, Note_on_c, 0, 81, 80
2, 88408, Note_on_c, 0, 78, 0
2, 88440, Note_on_c, 0, 79, 89
2, 88441, Note_on_c, 0, 81, 0
2, 88499, Note_on_c, 0, 76, 89
2, 88501, Note_on_c, 0, 79, 0
2, 88513, Note_on_c, 0, 76, 0
2, 88561, Note_on_c, 0, 77, 85
2, 88588, Note_on_c, 0, 79, 80
2, 88589, Note_on_c, 0, 77, 0
2, 88618, Note_on_c, 0, 76, 68
2, 88619, Note_on_c, 0, 79, 0
2, 88647, Note_on_c, 0, 79, 80
2, 88649, Note_on_c, 0, 76, 0
2, 88679, Note_on_c, 0, 77, 89
2, 88680, Note_on_c, 0, 79, 0
2, 88734, Note_on_c, 0, 77, 0
2, 88735, Note_on_c, 0, 78, 85
2, 88748, Note_on_c, 0, 78, 0
2, 88799, Note_on_c, 0, 79, 93
2, 88828, Note_on_c, 0, 81, 80
2, 88830, Note_on_c, 0, 79, 0
2, 88856, Note_on_c, 0, 81, 0
2, 88857, Note_on_c, 0, 82, 72
2, 88883, Note_on_c, 0, 82, 0
2, 88886, Note_on_c, 0, 84, 64
2, 88917, Note_on_c, 0, 84, 0
2, 88919, Note_on_c, 0, 86, 93
2, 88979, Note_on_c, 0, 76, 93
2, 88980, Note_on_c, 0, 86, 0
2, 88995, Note_on_c, 0, 76, 0
2, 89041, Note_on_c, 0, 77, 89
2, 89071, Note_on_c, 0, 79, 76
2, 89072, Note_on_c, 0, 77, 0
2, 89100, Note_on_c, 0, 81, 76
2, 89101, Note_on_c, 0, 79, 0
2, 89126, Note_on_c, 0, 82, 80
2, 89127, Note_on_c, 0, 81, 0
2, 89157, Note_on_c, 0, 82, 0
2, 89159, Note_on_c, 0, 84, 89
2, 89220, Note_on_c, 0, 72, 85
2, 89222, Note_on_c, 0, 84, 0
2, 89234, Note_on_c, 0, 72, 0
2, 89284, Note_on_c, 0, 71, 93
2, 89313, Note_on_c, 0, 72, 80
2, 89315, Note_on_c, 0, 71, 0
2, 89342, Note_on_c, 0, 74, 85
2, 89345, Note_on_c, 0, 72, 0
2, 89370, Note_on_c, 0, 74, 0
2, 89370, Note_on_c, 0, 76, 76
2, 89398, Note_on_c, 0, 77, 64
2, 89400, Note_on_c, 0, 76, 0
2, 89429, Note_on_c, 0, 79, 89
2, 89430, Note_on_c, 0, 77, 0
2, 89457, Note_on_c, 0, 80, 76
2, 89458, Note_on_c, 0, 79, 0
2, 89485, Note_on_c, 0, 79, 80
2, 89491, Note_on_c, 0, 80, 0
2, 89515, Note_on_c, 0, 77, 72
2, 89518, Note_on_c, 0, 79, 0
2, 89545, Note_on_c, 0, 76, 68
2, 89546, Note_on_c, 0, 77, 0
2, 89570, Note_on_c, 0, 76, 0
2, 89573, Note_on_c, 0, 74, 80
2, 89601, Note_on_c, 0, 72, 72
2, 89604, Note_on_c, 0, 74, 0
2, 89630, Note_on_c, 0, 72, 0
2, 89633, Note_on_c, 0, 71, 76
2, 89660, Note_on_c, 0, 71, 0
2, 89661, Note_on_c, 0, 72, 76
2, 89691, Note_on_c, 0, 74, 76
2, 89695, Note_on_c, 0, 72, 0
2, 89723, Note_on_c, 0, 76, 76
2, 89724, Note_on_c, 0, 74, 0
2, 89749, Note_on_c, 0, 76, 0
2, 89754, Note_on_c, 0, 77, 93
2, 89784, Note_on_c, 0, 79, 89
2, 89787, Note_on_c, 0, 77, 0
2, 89813, Note_on_c, 0, 80, 76
2, 89814, Note_on_c, 0, 79, 0
2, 89844, Note_on_c, 0, 79, 80
2, 89852, Note_on_c, 0, 80, 0
2, 89876, Note_on_c, 0, 79, 0
2, 89877, Note_on_c, 0, 77, 89
2, 89905, Note_on_c, 0, 77, 0
2, 89907, Note_on_c, 0, 76, 76
2, 89936, Note_on_c, 0, 74, 85
2, 89940, Note_on_c, 0, 76, 0
2, 89965, Note_on_c, 0, 72, 68
2, 89968, Note_on_c, 0, 74, 0
2, 89994, Note_on_c, 0, 72, 0
2, 89996, Note_on_c, 0, 71, 89
2, 90023, Note_on_c, 0, 71, 0
2, 90025, Note_on_c, 0, 72, 72
2, 90056, Note_on_c, 0, 74, 85
2, 90058, Note_on_c, 0, 72, 0
2, 90084, Note_on_c, 0, 76, 76
2, 90089, Note_on_c, 0, 74, 0
2, 90117, Note_on_c, 0, 76, 0
2, 90117, Note_on_c, 0, 77, 85
2, 90149, Note_on_c, 0, 79, 85
2, 90153, Note_on_c, 0, 77, 0
2, 90181, Note_on_c, 0, 81, 85
2, 90184, Note_on_c, 0, 79, 0
2, 90207, Note_on_c, 0, 81, 0
2, 90209, Note_on_c, 0, 71, 93
2, 90240, Note_on_c, 0, 71, 0
2, 90240, Note_on_c, 0, 72, 62
2, 90270, Note_on_c, 0, 74, 76
2, 90271, Note_on_c, 0, 72, 0
2, 90299, Note_on_c, 0, 72, 80
2, 90302, Note_on_c, 0, 74, 0
2, 90328, Note_on_c, 0, 71, 76
2, 90329, Note_on_c, 0, 72, 0
2, 90359, Note_on_c, 0, 71, 0
2, 90359, Note_on_c, 0, 72, 89
2, 90390, Note_on_c, 0, 73, 72
2, 90391, Note_on_c, 0, 72, 0
2, 90420, Note_on_c, 0, 73, 0
2, 90420, Note_on_c, 0, 74, 89
2, 90449, Note_on_c, 0, 75, 76
2, 90451, Note_on_c, 0, 74, 0
2, 90478, Note_on_c, 0, 75, 0
2, 90480, Note_on_c, 0, 76, 102
2, 90508, Note_on_c, 0, 77, 80
2, 90510, Note_on_c, 0, 76, 0
2, 90540, Note_on_c, 0, 77, 0
2, 90540, Note_on_c, 0, 78, 72
2, 90569, Note_on_c, 0, 79, 80
2, 90570, Note_on_c, 0, 78, 0
2, 90600, Note_on_c, 0, 79, 0
2, 90600, Note_on_c, 0, 80, 85
2, 90630, Note_on_c, 0, 81, 72
2, 90631, Note_on_c, 0, 80, 0
2, 90660, Note_on_c, 0, 82, 80
2, 90662, Note_on_c, 0, 81, 0
2, 90688, Note_on_c, 0, 83, 80
2, 90689, Note_on_c, 0, 82, 0
2, 90718, Note_on_c, 0, 84, 89
2, 90720, Note_on_c, 0, 83, 0
2, 90748, Note_on_c, 0, 85, 72
2, 90751, Note_on_c, 0, 84, 0
2, 90775, Note_on_c, 0, 86, 62
2, 90776, Note_on_c, 0, 85, 0
2, 90807, Note_on_c, 0, 87, 80
2, 90809, Note_on_c, 0, 86, 0
2, 90835, Note_on_c, 0, 87, 0
2, 90835, Note_on_c, 0, 88, 76
2, 90865, Note_on_c, 0, 89, 76
2, 90866, Note_on_c, 0, 88, 0
2, 90896, Note_on_c, 0, 88, 80
2, 90899, Note_on_c, 0, 89, 0
2, 90926, Note_on_c, 0, 86, 93
2, 90928, Note_on_c, 0, 88, 0
2, 90956, Note_on_c, 0, 86, 0
2, 90956, Note_on_c, 0, 84, 80
2, 90984, Note_on_c, 0, 82, 72
2, 90985, Note_on_c, 0, 84, 0
2, 91014, Note_on_c, 0, 81, 80
2, 91019, Note_on_c, 0, 82, 0
2, 91044, Note_on_c, 0, 81, 0
2, 91044, Note_on_c, 0, 79, 76
2, 91073, Note_on_c, 0, 79, 0
2, 91074, Note_on_c, 0, 77, 76
2, 91105, Note_on_c, 0, 76, 89
2, 91112, Note_on_c, 0, 77, 0
2, 91136, Note_on_c, 0, 76, 0
2, 91136, Note_on_c, 0, 74, 80
2, 91164, Note_on_c, 0, 72, 49
2, 91166, Note_on_c, 0, 74, 0
2, 91182, Note_on_c, 0, 70, 76
2, 91185, Note_on_c, 0, 72, 0
2, 91196, Note_on_c, 0, 70, 0
2, 91197, Note_on_c, 0, 69, 98
2, 91229, Note_on_c, 0, 70, 85
2, 91230, Note_on_c, 0, 69, 0
2, 91260, Note_on_c, 0, 70, 0
2, 91260, Note_on_c, 0, 72, 85
2, 91290, Note_on_c, 0, 74, 76
2, 91291, Note_on_c, 0, 72, 0
2, 91321, Note_on_c, 0, 76, 89
2, 91322, Note_on_c, 0, 74, 0
2, 91346, Note_on_c, 0, 76, 0
2, 91348, Note_on_c, 0, 77, 72
2, 91378, Note_on_c, 0, 79, 51
2, 91380, Note_on_c, 0, 77, 0
2, 91406, Note_on_c, 0, 81, 80
2, 91410, Note_on_c, 0, 79, 0
2, 91437, Note_on_c, 0, 82, 76
2, 91439, Note_on_c, 0, 81, 0
2, 91463, Note_on_c, 0, 82, 0
2, 91467, Note_on_c, 0, 84, 89
2, 91496, Note_on_c, 0, 86, 60
2, 91498, Note_on_c, 0, 84, 0
2, 91523, Note_on_c, 0, 88, 85
2, 91524, Note_on_c, 0, 86, 0
2, 91553, Note_on_c, 0, 88, 0
2, 91555, Note_on_c, 0, 89, 80
2, 91588, Note_on_c, 0, 89, 0
2, 91643, Note_on_c, 0, 77, 80
2, 91658, Note_on_c, 0, 77, 0
2, 91680, Note_on_c, 0, 81, 93
2, 91695, Note_on_c, 0, 81, 0
2, 91695, Note_on_c, 0, 79, 80
2, 91709, Note_on_c, 0, 79, 0
2, 91710, Note_on_c, 0, 81, 89
2, 91725, Note_on_c, 0, 81, 0
2, 91726, Note_on_c, 0, 79, 64
2, 91738, Note_on_c, 0, 79, 0
2, 91740, Note_on_c, 0, 81, 72
2, 91753, Note_on_c, 0, 79, 64
2, 91756, Note_on_c, 0, 81, 0
2, 91767, Note_on_c, 0, 79, 0
2, 91770, Note_on_c, 0, 81, 72
2, 91782, Note_on_c, 0, 79, 80
2, 91784, Note_on_c, 0, 81, 0
2, 91794, Note_on_c, 0, 79, 0
2, 91798, Note_on_c, 0, 81, 85
2, 91812, Note_on_c, 0, 79, 72
2, 91813, Note_on_c, 0, 81, 0
2, 91827, Note_on_c, 0, 79, 0
2, 91829, Note_on_c, 0, 81, 76
2, 91842, Note_on_c, 0, 79, 62
2, 91843, Note_on_c, 0, 81, 0
2, 91855, Note_on_c, 0, 79, 0
2, 91859, Note_on_c, 0, 81, 64
2, 91871, Note_on_c, 0, 79, 76
2, 91873, Note_on_c, 0, 81, 0
2, 91885, Note_on_c, 0, 79, 0
2, 91888, Note_on_c, 0, 81, 76
2, 91902, Note_on_c, 0, 81, 0
2, 91903, Note_on_c, 0, 79, 60
2, 91916, Note_on_c, 0, 79, 0
2, 91919, Note_on_c, 0, 81, 80
2, 91930, Note_on_c, 0, 79, 80
2, 91931, Note_on_c, 0, 81, 0
2, 91941, Note_on_c, 0, 79, 0
2, 91944, Note_on_c, 0, 81, 72
2, 91956, Note_on_c, 0, 79, 72
2, 91958, Note_on_c, 0, 81, 0
2, 91970, Note_on_c, 0, 79, 0
2, 91974, Note_on_c, 0, 81, 72
2, 91987, Note_on_c, 0, 81, 0
2, 91987, Note_on_c, 0, 79, 62
2, 92002, Note_on_c, 0, 79, 0
2, 92005, Note_on_c, 0, 81, 68
2, 92017, Note_on_c, 0, 79, 76
2, 92018, Note_on_c, 0, 81, 0
2, 92032, Note_on_c, 0, 79, 0
2, 92035, Note_on_c, 0, 81, 89
2, 92048, Note_on_c, 0, 81, 0
2, 92048, Note_on_c, 0, 79, 76
2, 92061, Note_on_c, 0, 79, 0
2, 92064, Note_on_c, 0, 81, 85
2, 92078, Note_on_c, 0, 79, 80
2, 92079, Note_on_c, 0, 81, 0
2, 92092, Note_on_c, 0, 79, 0
2, 92095, Note_on_c, 0, 81, 89
2, 92109, Note_on_c, 0, 79, 64
2, 92112, Note_on_c, 0, 81, 0
2, 92122, Note_on_c, 0, 79, 0
2, 92124, Note_on_c, 0, 77, 80
2, 92138, Note_on_c, 0, 77, 0
2, 92138, Note_on_c, 0, 79, 85
2, 92151, Note_on_c, 0, 79, 0
2, 92154, Note_on_c, 0, 77, 89
2, 92268, Note_on_c, 0, 77, 0
2, 92344, Note_on_c, 0, 77, 93
2, 92375, Note_on_c, 0, 77, 0
2, 92375, Note_on_c, 0, 76, 72
2, 92406, Note_on_c, 0, 76, 0
2, 92407, Note_on_c, 0, 79, 93
2, 92433, Note_on_c, 0, 77, 72
2, 92435, Note_on_c, 0, 79, 0
2, 92464, Note_on_c, 0, 77, 0
2, 92466, Note_on_c, 0, 81, 80
2, 92494, Note_on_c, 0, 79, 80
2, 92495, Note_on_c, 0, 81, 0
2, 92521, Note_on_c, 0, 79, 0
2, 92525, Note_on_c, 0, 82, 85
2, 92554, Note_on_c, 0, 81, 80
2, 92556, Note_on_c, 0, 82, 0
2, 92582, Note_on_c, 0, 81, 0
2, 92583, Note_on_c, 0, 84, 89
2, 92611, Note_on_c, 0, 82, 76
2, 92614, Note_on_c, 0, 84, 0
2, 92642, Note_on_c, 0, 82, 0
2, 92642, Note_on_c, 0, 86, 98
2, 92701, Note_on_c, 0, 86, 0
2, 92701, Note_on_c, 0, 84, 93
2, 92724, Note_on_c, 0, 84, 0
2, 92760, Note_on_c, 0, 84, 107
2, 92940, Note_on_c, 0, 83, 93
2, 92945, Note_on_c, 0, 84, 0
2, 93000, Note_on_c, 0, 82, 89
2, 93001, Note_on_c, 0, 83, 0
2, 93058, Note_on_c, 0, 79, 76
2, 93059, Note_on_c, 0, 82, 0
2, 93115, Note_on_c, 0, 79, 0
2, 93118, Note_on_c, 0, 76, 93
2, 93178, Note_on_c, 0, 77, 76
2, 93179, Note_on_c, 0, 76, 0
2, 93231, Note_on_c, 0, 77, 0
2, 93298, Note_on_c, 0, 77, 98
2, 93328, Note_on_c, 0, 77, 0
2, 93328, Note_on_c, 0, 76, 80
2, 93356, Note_on_c, 0, 76, 0
2, 93358, Note_on_c, 0, 79, 89
2, 93387, Note_on_c, 0, 77, 85
2, 93389, Note_on_c, 0, 79, 0
2, 93417, Note_on_c, 0, 77, 0
2, 93417, Note_on_c, 0, 81, 89
2, 93446, Note_on_c, 0, 81, 0
2, 93446, Note_on_c, 0, 79, 64
2, 93477, Note_on_c, 0, 79, 0
2, 93478, Note_on_c, 0, 82, 85
2, 93507, Note_on_c, 0, 81, 85
2, 93510, Note_on_c, 0, 82, 0
2, 93538, Note_on_c, 0, 84, 89
2, 93539, Note_on_c, 0, 81, 0
2, 93567, Note_on_c, 0, 82, 76
2, 93571, Note_on_c, 0, 84, 0
2, 93596, Note_on_c, 0, 82, 0
2, 93597, Note_on_c, 0, 86, 93
2, 93654, Note_on_c, 0, 84, 93
2, 93656, Note_on_c, 0, 86, 0
2, 93674, Note_on_c, 0, 84, 0
2, 93713, Note_on_c, 0, 84, 93
2, 93869, Note_on_c, 0, 83, 89
2, 93875, Note_on_c, 0, 84, 0
2, 93900, Note_on_c, 0, 82, 76
2, 93905, Note_on_c, 0, 83, 0
2, 93930, Note_on_c, 0, 82, 0
2, 93930, Note_on_c, 0, 81, 89
2, 93959, Note_on_c, 0, 81, 0
2, 93961, Note_on_c, 0, 84, 93
2, 93993, Note_on_c, 0, 82, 64
2, 94003, Note_on_c, 0, 84, 0
2, 94021, Note_on_c, 0, 81, 80
2, 94026, Note_on_c, 0, 82, 0
2, 94050, Note_on_c, 0, 79, 76
2, 94052, Note_on_c, 0, 81, 0
2, 94078, Note_on_c, 0, 79, 0
2, 94083, Note_on_c, 0, 77, 89
2, 94140, Note_on_c, 0, 77, 0
2, 94141, Note_on_c, 0, 79, 80
2, 94155, Note_on_c, 0, 77, 72
2, 94161, Note_on_c, 0, 79, 0
2, 94171, Note_on_c, 0, 76, 72
2, 94175, Note_on_c, 0, 77, 0
2, 94179, Note_on_c, 0, 77, 62
2, 94186, Note_on_c, 0, 76, 0
2, 94195, Note_on_c, 0, 77, 0
2, 94198, Note_on_c, 0, 81, 72
2, 94335, Note_on_c, 0, 81, 0
2, 94382, Note_on_c, 0, 74, 85
2, 94395, Note_on_c, 0, 72, 80
2, 94401, Note_on_c, 0, 74, 0
2, 94409, Note_on_c, 0, 71, 64
2, 94410, Note_on_c, 0, 72, 0
2, 94421, Note_on_c, 0, 72, 80
2, 94423, Note_on_c, 0, 71, 0
2, 94436, Note_on_c, 0, 72, 0
2, 94446, Note_on_c, 0, 77, 93
2, 94600, Note_on_c, 0, 77, 0
2, 94600, Note_on_c, 0, 69, 80
2, 94639, Note_on_c, 0, 69, 0
2, 94640, Note_on_c, 0, 72, 80
2, 94680, Note_on_c, 0, 72, 0
2, 94680, Note_on_c, 0, 65, 76
2, 94718, Note_on_c, 0, 65, 0
2, 94720, Note_on_c, 0, 69, 80
2, 94758, Note_on_c, 0, 60, 62
2, 94760, Note_on_c, 0, 69, 0
2, 94800, Note_on_c, 0, 60, 0
2, 94801, Note_on_c, 0, 65, 85
2, 94844, Note_on_c, 0, 57, 80
2, 94845, Note_on_c, 0, 65, 0
2, 94884, Note_on_c, 0, 57, 0
2, 94884, Note_on_c, 0, 60, 80
2, 94921, Note_on_c, 0, 60, 0
2, 94924, Note_on_c, 0, 53, 80
2, 94962, Note_on_c, 0, 53, 0
2, 94964, Note_on_c, 0, 57, 72
2, 95002, Note_on_c, 0, 48, 57
2, 95003, Note_on_c, 0, 57, 0
2, 95042, Note_on_c, 0, 53, 72
2, 95047, Note_on_c, 0, 48, 0
2, 95290, Note_on_c, 0, 57, 68
2, 95293, Note_on_c, 0, 53, 0
2, 95505, Note_on_c, 0, 57, 0
2, 95514, Note_on_c, 0, 57, 80
2, 95581, Note_on_c, 0, 57, 0
2, 95581, Note_on_c, 0, 55, 62
2, 95635, Note_on_c, 0, 55, 0
2, 95645, Note_on_c, 0, 55, 72
2, 95702, Note_on_c, 0, 55, 0
2, 95704, Note_on_c, 0, 52, 64
2, 95762, Note_on_c, 0, 52, 0
2, 95763, Note_on_c, 0, 53, 72
2, 95943, Note_on_c, 0, 57, 72
2, 95944, Note_on_c, 0, 53, 0
2, 95992, Note_on_c, 0, 57, 0
2, 96004, Note_on_c, 0, 57, 76
2, 96063, Note_on_c, 0, 57, 0
2, 96063, Note_on_c, 0, 55, 62
2, 96107, Note_on_c, 0, 55, 0
2, 96121, Note_on_c, 0, 55, 68
2, 96175, Note_on_c, 0, 55, 0
2, 96177, Note_on_c, 0, 52, 64
2, 96237, Note_on_c, 0, 60, 72
2, 96238, Note_on_c, 0, 52, 0
2, 96537, Note_on_c, 0, 60, 0
2, 96537, Note_on_c, 0, 62, 80
2, 96598, Note_on_c, 0, 60, 76
2, 96599, Note_on_c, 0, 62, 0
2, 96632, Note_on_c, 0, 58, 62
2, 96636, Note_on_c, 0, 60, 0
2, 96663, Note_on_c, 0, 57, 72
2, 96665, Note_on_c, 0, 58, 0
2, 96691, Note_on_c, 0, 55, 64
2, 96692, Note_on_c, 0, 57, 0
2, 96724, Note_on_c, 0, 53, 59
2, 96725, Note_on_c, 0, 55, 0
2, 96847, Note_on_c, 0, 53, 0
2, 96847, Note_on_c, 0, 52, 64
2, 96974, Note_on_c, 0, 52, 0
2, 96975, Note_on_c, 0, 53, 76
2, 97138, Note_on_c, 0, 53, 0
2, 97138, Note_on_c, 0, 55, 80
2, 97156, Note_on_c, 0, 53, 68
2, 97161, Note_on_c, 0, 55, 0
2, 97173, Note_on_c, 0, 52, 59
2, 97174, Note_on_c, 0, 53, 0
2, 97189, Note_on_c, 0, 53, 57
2, 97192, Note_on_c, 0, 52, 0
2, 97205, Note_on_c, 0, 53, 0
2, 97206, Note_on_c, 0, 57, 76
2, 97427, Note_on_c, 0, 57, 0
2, 97439, Note_on_c, 0, 57, 80
2, 97499, Note_on_c, 0, 55, 76
2, 97500, Note_on_c, 0, 57, 0
2, 97546, Note_on_c, 0, 55, 0
2, 97559, Note_on_c, 0, 55, 76
2, 97616, Note_on_c, 0, 55, 0
2, 97617, Note_on_c, 0, 52, 60
2, 97675, Note_on_c, 0, 52, 0
2, 97677, Note_on_c, 0, 53, 72
2, 97737, Note_on_c, 0, 53, 0
2, 97738, Note_on_c, 0, 55, 64
2, 97755, Note_on_c, 0, 53, 68
2, 97760, Note_on_c, 0, 55, 0
2, 97772, Note_on_c, 0, 52, 59
2, 97773, Note_on_c, 0, 53, 0
2, 97796, Note_on_c, 0, 52, 0
2, 97796, Note_on_c, 0, 53, 85
2, 97856, Note_on_c, 0, 53, 0
2, 97857, Note_on_c, 0, 57, 72
2, 97912, Note_on_c, 0, 57, 0
2, 97922, Note_on_c, 0, 57, 85
2, 97983, Note_on_c, 0, 57, 0
2, 97983, Note_on_c, 0, 55, 76
2, 98032, Note_on_c, 0, 55, 0
2, 98045, Note_on_c, 0, 55, 64
2, 98104, Note_on_c, 0, 55, 0
2, 98106, Note_on_c, 0, 52, 62
2, 98161, Note_on_c, 0, 52, 0
2, 98162, Note_on_c, 0, 60, 93
2, 98457, Note_on_c, 0, 62, 76
2, 98459, Note_on_c, 0, 60, 0
2, 98513, Note_on_c, 0, 62, 0
2, 98518, Note_on_c, 0, 60, 76
2, 98550, Note_on_c, 0, 58, 64
2, 98553, Note_on_c, 0, 60, 0
2, 98580, Note_on_c, 0, 57, 80
2, 98582, Note_on_c, 0, 58, 0
2, 98608, Note_on_c, 0, 55, 56
2, 98610, Note_on_c, 0, 57, 0
2, 98632, Note_on_c, 0, 55, 0
2, 98640, Note_on_c, 0, 55, 72
2, 98697, Note_on_c, 0, 55, 0
2, 98697, Note_on_c, 0, 53, 60
2, 98741, Note_on_c, 0, 53, 0
2, 98756, Note_on_c, 0, 53, 76
2, 98816, Note_on_c, 0, 53, 0
2, 98816, Note_on_c, 0, 52, 64
2, 98874, Note_on_c, 0, 52, 0
2, 98877, Note_on_c, 0, 53, 76
2, 98999, Note_on_c, 0, 53, 0
2, 99057, Note_on_c, 0, 48, 68
2, 99116, Note_on_c, 0, 58, 64
2, 99119, Note_on_c, 0, 48, 0
2, 99174, Note_on_c, 0, 52, 76
2, 99178, Note_on_c, 0, 58, 0
2, 99228, Note_on_c, 0, 52, 0
2, 99234, Note_on_c, 0, 52, 80
2, 99246, Note_on_c, 0, 52, 0
2, 99295, Note_on_c, 0, 52, 68
2, 99312, Note_on_c, 0, 52, 0
2, 99356, Note_on_c, 0, 53, 72
2, 99504, Note_on_c, 0, 53, 0
2, 99539, Note_on_c, 0, 48, 68
2, 99596, Note_on_c, 0, 58, 60
2, 99600, Note_on_c, 0, 48, 0
2, 99654, Note_on_c, 0, 52, 64
2, 99656, Note_on_c, 0, 58, 0
2, 99703, Note_on_c, 0, 52, 0
2, 99714, Note_on_c, 0, 52, 72
2, 99729, Note_on_c, 0, 52, 0
2, 99774, Note_on_c, 0, 52, 80
2, 99788, Note_on_c, 0, 52, 0
2, 99832, Note_on_c, 0, 60, 76
2, 99892, Note_on_c, 0, 60, 0
2, 99892, Note_on_c, 0, 53, 60
2, 99944, Note_on_c, 0, 53, 0
2, 99952, Note_on_c, 0, 53, 72
2, 99973, Note_on_c, 0, 53, 0
2, 100014, Note_on_c, 0, 53, 68
2, 100032, Note_on_c, 0, 53, 0
2, 100076, Note_on_c, 0, 62, 76
2, 100136, Note_on_c, 0, 62, 0
2, 100139, Note_on_c, 0, 52, 40
2, 100166, Note_on_c, 0, 52, 0
2, 100200, Note_on_c, 0, 52, 68
2, 100220, Note_on_c, 0, 52, 0
2, 100256, Note_on_c, 0, 52, 64
2, 100277, Note_on_c, 0, 52, 0
2, 100319, Note_on_c, 0, 52, 59
2, 100320, Note_on_c, 0, 46, 64
2, 100562, Note_on_c, 0, 53, 50
2, 100563, Note_on_c, 0, 46, 0
2, 100565, Note_on_c, 0, 52, 0
2, 100565, Note_on_c, 0, 45, 53
2, 100689, Note_on_c, 0, 45, 0
2, 100692, Note_on_c, 0, 53, 0
2, 100800, Control_c, 0, 121, 0
2, 100800, End_track
3, 0, Start_track
3, 0, MIDI_port, 0
3, 0, Program_c, 1, 0
3, 0, Control_c, 1, 7, 127
3, 0, Control_c, 1, 10, 44
3, 0, Control_c, 1, 121, 0
3, 0, Control_c, 1, 91, 75
3, 0, Note_on_c, 1, 69, 66
3, 123, Note_on_c, 1, 72, 58
3, 129, Note_on_c, 1, 69, 0
3, 233, Note_on_c, 1, 72, 0
3, 242, Note_on_c, 1, 65, 58
3, 361, Note_on_c, 1, 65, 0
3, 362, Note_on_c, 1, 72, 62
3, 472, Note_on_c, 1, 72, 0
3, 481, Note_on_c, 1, 70, 54
3, 593, Note_on_c, 1, 70, 0
3, 599, Note_on_c, 1, 72, 52
3, 716, Note_on_c, 1, 72, 0
3, 721, Note_on_c, 1, 69, 66
3, 839, Note_on_c, 1, 69, 0
3, 840, Note_on_c, 1, 72, 46
3, 962, Note_on_c, 1, 70, 66
3, 964, Note_on_c, 1, 72, 0
3, 1076, Note_on_c, 1, 70, 0
3, 1082, Note_on_c, 1, 72, 49
3, 1189, Note_on_c, 1, 72, 0
3, 1200, Note_on_c, 1, 69, 66
3, 1314, Note_on_c, 1, 69, 0
3, 1319, Note_on_c, 1, 72, 54
3, 1405, Note_on_c, 1, 72, 0
3, 1439, Note_on_c, 1, 67, 66
3, 1439, Note_on_c, 1, 72, 50
3, 1561, Note_on_c, 1, 67, 0
3, 1561, Note_on_c, 1, 64, 62
3, 1671, Note_on_c, 1, 64, 0
3, 1681, Note_on_c, 1, 65, 62
3, 1789, Note_on_c, 1, 65, 0
3, 1800, Note_on_c, 1, 69, 49
3, 1915, Note_on_c, 1, 72, 0
3, 1919, Note_on_c, 1, 69, 0
3, 1921, Note_on_c, 1, 70, 70
3, 2036, Note_on_c, 1, 70, 0
3, 2040, Note_on_c, 1, 58, 62
3, 2161, Note_on_c, 1, 62, 62
3, 2162, Note_on_c, 1, 58, 0
3, 2280, Note_on_c, 1, 62, 0
3, 2280, Note_on_c, 1, 59, 62
3, 2280, Note_on_c, 1, 65, 70
3, 2403, Note_on_c, 1, 60, 54
3, 2404, Note_on_c, 1, 59, 0
3, 2520, Note_on_c, 1, 64, 62
3, 2522, Note_on_c, 1, 65, 0
3, 2581, Note_on_c, 1, 64, 0
3, 2581, Note_on_c, 1, 62, 49
3, 2637, Note_on_c, 1, 62, 0
3, 2639, Note_on_c, 1, 64, 52
3, 2766, Note_on_c, 1, 60, 0
3, 2770, Note_on_c, 1, 64, 0
3, 2881, Note_on_c, 1, 69, 66
3, 3003, Note_on_c, 1, 72, 27
3, 3007, Note_on_c, 1, 69, 0
3, 3117, Note_on_c, 1, 72, 0
3, 3122, Note_on_c, 1, 65, 70
3, 3242, Note_on_c, 1, 72, 45
3, 3244, Note_on_c, 1, 65, 0
3, 3354, Note_on_c, 1, 72, 0
3, 3360, Note_on_c, 1, 70, 70
3, 3475, Note_on_c, 1, 70, 0
3, 3479, Note_on_c, 1, 72, 49
3, 3601, Note_on_c, 1, 69, 75
3, 3604, Note_on_c, 1, 72, 0
3, 3720, Note_on_c, 1, 69, 0
3, 3721, Note_on_c, 1, 72, 49
3, 3840, Note_on_c, 1, 72, 0
3, 3841, Note_on_c, 1, 70, 62
3, 3962, Note_on_c, 1, 72, 50
3, 3965, Note_on_c, 1, 70, 0
3, 4077, Note_on_c, 1, 72, 0
3, 4081, Note_on_c, 1, 69, 75
3, 4197, Note_on_c, 1, 69, 0
3, 4202, Note_on_c, 1, 72, 47
3, 4284, Note_on_c, 1, 72, 0
3, 4319, Note_on_c, 1, 67, 52
3, 4319, Note_on_c, 1, 72, 43
3, 4440, Note_on_c, 1, 64, 58
3, 4442, Note_on_c, 1, 67, 0
3, 4557, Note_on_c, 1, 64, 0
3, 4561, Note_on_c, 1, 65, 54
3, 4677, Note_on_c, 1, 65, 0
3, 4681, Note_on_c, 1, 62, 54
3, 4797, Note_on_c, 1, 62, 0
3, 4801, Note_on_c, 1, 58, 70
3, 4805, Note_on_c, 1, 72, 0
3, 4922, Note_on_c, 1, 70, 58
3, 5035, Note_on_c, 1, 70, 0
3, 5041, Note_on_c, 1, 60, 46
3, 5041, Note_on_c, 1, 69, 62
3, 5042, Note_on_c, 1, 58, 0
3, 5161, Note_on_c, 1, 69, 0
3, 5162, Note_on_c, 1, 67, 46
3, 5279, Note_on_c, 1, 67, 0
3, 5282, Note_on_c, 1, 65, 54
3, 5287, Note_on_c, 1, 60, 0
3, 5402, Note_on_c, 1, 60, 47
3, 5406, Note_on_c, 1, 65, 0
3, 5520, Note_on_c, 1, 60, 0
3, 5522, Note_on_c, 1, 53, 50
3, 5657, Note_on_c, 1, 53, 0
3, 5761, Note_on_c, 1, 64, 70
3, 5883, Note_on_c, 1, 72, 39
3, 5893, Note_on_c, 1, 64, 0
3, 5988, Note_on_c, 1, 72, 0
3, 5999, Note_on_c, 1, 65, 66
3, 6120, Note_on_c, 1, 65, 0
3, 6120, Note_on_c, 1, 72, 41
3, 6241, Note_on_c, 1, 72, 0
3, 6241, Note_on_c, 1, 67, 70
3, 6358, Note_on_c, 1, 67, 0
3, 6361, Note_on_c, 1, 71, 38
3, 6472, Note_on_c, 1, 71, 0
3, 6479, Note_on_c, 1, 69, 75
3, 6601, Note_on_c, 1, 72, 52
3, 6603, Note_on_c, 1, 69, 0
3, 6710, Note_on_c, 1, 72, 0
3, 6721, Note_on_c, 1, 64, 66
3, 6842, Note_on_c, 1, 72, 30
3, 6848, Note_on_c, 1, 64, 0
3, 6955, Note_on_c, 1, 72, 0
3, 6959, Note_on_c, 1, 65, 62
3, 7077, Note_on_c, 1, 65, 0
3, 7079, Note_on_c, 1, 72, 46
3, 7198, Note_on_c, 1, 72, 0
3, 7199, Note_on_c, 1, 67, 66
3, 7315, Note_on_c, 1, 67, 0
3, 7319, Note_on_c, 1, 71, 49
3, 7430, Note_on_c, 1, 71, 0
3, 7438, Note_on_c, 1, 69, 66
3, 7559, Note_on_c, 1, 72, 70
3, 7561, Note_on_c, 1, 69, 0
3, 7671, Note_on_c, 1, 72, 0
3, 7679, Note_on_c, 1, 69, 66
3, 7679, Note_on_c, 1, 65, 49
3, 7926, Note_on_c, 1, 65, 0
3, 7927, Note_on_c, 1, 69, 0
3, 8159, Note_on_c, 1, 64, 66
3, 8161, Note_on_c, 1, 55, 58
3, 8401, Note_on_c, 1, 64, 0
3, 8401, Note_on_c, 1, 62, 58
3, 8513, Note_on_c, 1, 62, 0
3, 8515, Note_on_c, 1, 55, 0
3, 8639, Note_on_c, 1, 57, 70
3, 8762, Note_on_c, 1, 60, 37
3, 8764, Note_on_c, 1, 57, 0
3, 8873, Note_on_c, 1, 60, 0
3, 8882, Note_on_c, 1, 55, 66
3, 8997, Note_on_c, 1, 55, 0
3, 9001, Note_on_c, 1, 60, 66
3, 9108, Note_on_c, 1, 60, 0
3, 9119, Note_on_c, 1, 53, 75
3, 9119, Note_on_c, 1, 55, 70
3, 9228, Note_on_c, 1, 55, 0
3, 9238, Note_on_c, 1, 62, 62
3, 9358, Note_on_c, 1, 53, 0
3, 9359, Note_on_c, 1, 52, 54
3, 9359, Note_on_c, 1, 55, 66
3, 9364, Note_on_c, 1, 62, 0
3, 9482, Note_on_c, 1, 60, 52
3, 9483, Note_on_c, 1, 55, 0
3, 9589, Note_on_c, 1, 60, 0
3, 9600, Note_on_c, 1, 52, 0
3, 9601, Note_on_c, 1, 57, 66
3, 9718, Note_on_c, 1, 57, 0
3, 9719, Note_on_c, 1, 60, 50
3, 9838, Note_on_c, 1, 60, 0
3, 9840, Note_on_c, 1, 55, 62
3, 9959, Note_on_c, 1, 55, 0
3, 9960, Note_on_c, 1, 60, 47
3, 10073, Note_on_c, 1, 60, 0
3, 10079, Note_on_c, 1, 55, 62
3, 10079, Note_on_c, 1, 53, 62
3, 10201, Note_on_c, 1, 62, 42
3, 10205, Note_on_c, 1, 55, 0
3, 10314, Note_on_c, 1, 62, 0
3, 10319, Note_on_c, 1, 55, 62
3, 10319, Note_on_c, 1, 52, 66
3, 10320, Note_on_c, 1, 53, 0
3, 10437, Note_on_c, 1, 55, 0
3, 10439, Note_on_c, 1, 60, 58
3, 10524, Note_on_c, 1, 52, 0
3, 10528, Note_on_c, 1, 60, 0
3, 10679, Note_on_c, 1, 69, 66
3, 10679, Note_on_c, 1, 72, 66
3, 10789, Note_on_c, 1, 72, 0
3, 10789, Note_on_c, 1, 69, 0
3, 10802, Note_on_c, 1, 72, 58
3, 10802, Note_on_c, 1, 69, 75
3, 10912, Note_on_c, 1, 69, 0
3, 10917, Note_on_c, 1, 72, 0
3, 10922, Note_on_c, 1, 71, 50
3, 10923, Note_on_c, 1, 67, 50
3, 11012, Note_on_c, 1, 67, 0
3, 11013, Note_on_c, 1, 71, 0
3, 11162, Note_on_c, 1, 59, 62
3, 11162, Note_on_c, 1, 65, 70
3, 11163, Note_on_c, 1, 67, 62
3, 11260, Note_on_c, 1, 65, 0
3, 11262, Note_on_c, 1, 67, 0
3, 11265, Note_on_c, 1, 59, 0
3, 11282, Note_on_c, 1, 67, 52
3, 11282, Note_on_c, 1, 65, 66
3, 11282, Note_on_c, 1, 59, 62
3, 11378, Note_on_c, 1, 65, 0
3, 11381, Note_on_c, 1, 67, 0
3, 11396, Note_on_c, 1, 59, 0
3, 11401, Note_on_c, 1, 67, 45
3, 11401, Note_on_c, 1, 64, 70
3, 11402, Note_on_c, 1, 60, 52
3, 11479, Note_on_c, 1, 67, 0
3, 11486, Note_on_c, 1, 60, 0
3, 11486, Note_on_c, 1, 64, 0
3, 11521, Note_on_c, 1, 65, 70
3, 11521, Note_on_c, 1, 60, 70
3, 11521, Note_on_c, 1, 57, 58
3, 11753, Note_on_c, 1, 57, 0
3, 11762, Note_on_c, 1, 64, 75
3, 11762, Note_on_c, 1, 55, 66
3, 11763, Note_on_c, 1, 65, 0
3, 11876, Note_on_c, 1, 64, 0
3, 11880, Note_on_c, 1, 59, 66
3, 11883, Note_on_c, 1, 60, 0
3, 11995, Note_on_c, 1, 59, 0
3, 11999, Note_on_c, 1, 55, 0
3, 12001, Note_on_c, 1, 60, 58
3, 12122, Note_on_c, 1, 55, 54
3, 12134, Note_on_c, 1, 60, 0
3, 12237, Note_on_c, 1, 55, 0
3, 12241, Note_on_c, 1, 52, 50
3, 12361, Note_on_c, 1, 52, 0
3, 12361, Note_on_c, 1, 48, 70
3, 12477, Note_on_c, 1, 48, 0
3, 12604, Note_on_c, 1, 72, 70
3, 12604, Note_on_c, 1, 69, 75
3, 12604, Note_on_c, 1, 62, 70
3, 12694, Note_on_c, 1, 62, 0
3, 12695, Note_on_c, 1, 72, 0
3, 12697, Note_on_c, 1, 69, 0
3, 12723, Note_on_c, 1, 62, 62
3, 12723, Note_on_c, 1, 72, 62
3, 12723, Note_on_c, 1, 69, 70
3, 12836, Note_on_c, 1, 69, 0
3, 12840, Note_on_c, 1, 72, 0
3, 12843, Note_on_c, 1, 71, 54
3, 12843, Note_on_c, 1, 67, 66
3, 12849, Note_on_c, 1, 62, 0
3, 12920, Note_on_c, 1, 67, 0
3, 12925, Note_on_c, 1, 71, 0
3, 13079, Note_on_c, 1, 65, 70
3, 13079, Note_on_c, 1, 55, 75
3, 13081, Note_on_c, 1, 59, 75
3, 13178, Note_on_c, 1, 55, 0
3, 13187, Note_on_c, 1, 59, 0
3, 13192, Note_on_c, 1, 65, 0
3, 13201, Note_on_c, 1, 65, 58
3, 13202, Note_on_c, 1, 55, 66
3, 13202, Note_on_c, 1, 59, 83
3, 13304, Note_on_c, 1, 59, 0
3, 13316, Note_on_c, 1, 55, 0
3, 13319, Note_on_c, 1, 65, 0
3, 13322, Note_on_c, 1, 64, 54
3, 13322, Note_on_c, 1, 60, 62
3, 13391, Note_on_c, 1, 60, 0
3, 13392, Note_on_c, 1, 64, 0
3, 13561, Note_on_c, 1, 62, 70
3, 13561, Note_on_c, 1, 57, 79
3, 13561, Note_on_c, 1, 53, 54
3, 13650, Note_on_c, 1, 62, 0
3, 13654, Note_on_c, 1, 57, 0
3, 13667, Note_on_c, 1, 53, 0
3, 13681, Note_on_c, 1, 55, 62
3, 13681, Note_on_c, 1, 60, 58
3, 13681, Note_on_c, 1, 64, 66
3, 13782, Note_on_c, 1, 64, 0
3, 13782, Note_on_c, 1, 60, 0
3, 13802, Note_on_c, 1, 59, 66
3, 13802, Note_on_c, 1, 65, 75
3, 13887, Note_on_c, 1, 59, 0
3, 13894, Note_on_c, 1, 65, 0
3, 13914, Note_on_c, 1, 55, 0
3, 13921, Note_on_c, 1, 60, 66
3, 13921, Note_on_c, 1, 64, 66
3, 14040, Note_on_c, 1, 60, 0
3, 14041, Note_on_c, 1, 55, 58
3, 14162, Note_on_c, 1, 60, 52
3, 14165, Note_on_c, 1, 55, 0
3, 14261, Note_on_c, 1, 60, 0
3, 14279, Note_on_c, 1, 55, 52
3, 14397, Note_on_c, 1, 64, 0
3, 14400, Note_on_c, 1, 55, 0
3, 14402, Note_on_c, 1, 65, 52
3, 14402, Note_on_c, 1, 59, 70
3, 14515, Note_on_c, 1, 59, 0
3, 14522, Note_on_c, 1, 55, 54
3, 14637, Note_on_c, 1, 55, 0
3, 14642, Note_on_c, 1, 59, 47
3, 14751, Note_on_c, 1, 59, 0
3, 14761, Note_on_c, 1, 55, 54
3, 14873, Note_on_c, 1, 55, 0
3, 14874, Note_on_c, 1, 65, 0
3, 14882, Note_on_c, 1, 64, 66
3, 14882, Note_on_c, 1, 60, 62
3, 15000, Note_on_c, 1, 60, 0
3, 15003, Note_on_c, 1, 55, 62
3, 15095, Note_on_c, 1, 55, 0
3, 15121, Note_on_c, 1, 60, 62
3, 15231, Note_on_c, 1, 60, 0
3, 15242, Note_on_c, 1, 55, 49
3, 15352, Note_on_c, 1, 55, 0
3, 15362, Note_on_c, 1, 65, 79
3, 15362, Note_on_c, 1, 59, 66
3, 15364, Note_on_c, 1, 64, 0
3, 15478, Note_on_c, 1, 59, 0
3, 15482, Note_on_c, 1, 55, 52
3, 15581, Note_on_c, 1, 55, 0
3, 15601, Note_on_c, 1, 59, 50
3, 15720, Note_on_c, 1, 59, 0
3, 15721, Note_on_c, 1, 55, 54
3, 15827, Note_on_c, 1, 55, 0
3, 15842, Note_on_c, 1, 60, 50
3, 15842, Note_on_c, 1, 64, 62
3, 15849, Note_on_c, 1, 65, 0
3, 15960, Note_on_c, 1, 60, 0
3, 15962, Note_on_c, 1, 48, 62
3, 15974, Note_on_c, 1, 64, 0
3, 16016, Note_on_c, 1, 48, 0
3, 16440, Note_on_c, 1, 60, 79
3, 16440, Note_on_c, 1, 64, 79
3, 16524, Note_on_c, 1, 60, 0
3, 16527, Note_on_c, 1, 64, 0
3, 16922, Note_on_c, 1, 67, 83
3, 16922, Note_on_c, 1, 64, 83
3, 16922, Note_on_c, 1, 60, 97
3, 17012, Note_on_c, 1, 60, 0
3, 17012, Note_on_c, 1, 64, 0
3, 17017, Note_on_c, 1, 67, 0
3, 17762, Note_on_c, 1, 70, 79
3, 17762, Note_on_c, 1, 64, 92
3, 17763, Note_on_c, 1, 60, 92
3, 17763, Note_on_c, 1, 67, 92
3, 18172, Note_on_c, 1, 67, 0
3, 18174, Note_on_c, 1, 64, 0
3, 18183, Note_on_c, 1, 60, 0
3, 18188, Note_on_c, 1, 70, 0
3, 18242, Note_on_c, 1, 69, 66
3, 18364, Note_on_c, 1, 72, 45
3, 18375, Note_on_c, 1, 69, 0
3, 18476, Note_on_c, 1, 72, 0
3, 18482, Note_on_c, 1, 65, 54
3, 18602, Note_on_c, 1, 72, 46
3, 18612, Note_on_c, 1, 65, 0
3, 18722, Note_on_c, 1, 70, 66
3, 18723, Note_on_c, 1, 72, 0
3, 18835, Note_on_c, 1, 70, 0
3, 18841, Note_on_c, 1, 72, 50
3, 18961, Note_on_c, 1, 72, 0
3, 18962, Note_on_c, 1, 69, 70
3, 19083, Note_on_c, 1, 72, 46
3, 19084, Note_on_c, 1, 69, 0
3, 19196, Note_on_c, 1, 72, 0
3, 19202, Note_on_c, 1, 70, 58
3, 19322, Note_on_c, 1, 72, 49
3, 19326, Note_on_c, 1, 70, 0
3, 19439, Note_on_c, 1, 72, 0
3, 19442, Note_on_c, 1, 69, 79
3, 19561, Note_on_c, 1, 72, 66
3, 19562, Note_on_c, 1, 69, 0
3, 19652, Note_on_c, 1, 72, 0
3, 19681, Note_on_c, 1, 67, 54
3, 19682, Note_on_c, 1, 72, 75
3, 19797, Note_on_c, 1, 67, 0
3, 19801, Note_on_c, 1, 64, 50
3, 19922, Note_on_c, 1, 65, 66
3, 19929, Note_on_c, 1, 64, 0
3, 20042, Note_on_c, 1, 69, 62
3, 20043, Note_on_c, 1, 65, 0
3, 20161, Note_on_c, 1, 69, 0
3, 20162, Note_on_c, 1, 72, 0
3, 20163, Note_on_c, 1, 70, 58
3, 20253, Note_on_c, 1, 70, 0
3, 20279, Note_on_c, 1, 58, 50
3, 20400, Note_on_c, 1, 58, 0
3, 20401, Note_on_c, 1, 62, 66
3, 20514, Note_on_c, 1, 62, 0
3, 20520, Note_on_c, 1, 65, 66
3, 20521, Note_on_c, 1, 59, 66
3, 20638, Note_on_c, 1, 59, 0
3, 20641, Note_on_c, 1, 60, 66
3, 20760, Note_on_c, 1, 64, 75
3, 20768, Note_on_c, 1, 65, 0
3, 20850, Note_on_c, 1, 64, 0
3, 20850, Note_on_c, 1, 62, 75
3, 20865, Note_on_c, 1, 62, 0
3, 20881, Note_on_c, 1, 64, 66
3, 21014, Note_on_c, 1, 64, 0
3, 21022, Note_on_c, 1, 60, 0
3, 21121, Note_on_c, 1, 69, 79
3, 21243, Note_on_c, 1, 72, 46
3, 21252, Note_on_c, 1, 69, 0
3, 21358, Note_on_c, 1, 72, 0
3, 21362, Note_on_c, 1, 65, 66
3, 21483, Note_on_c, 1, 72, 46
3, 21498, Note_on_c, 1, 65, 0
3, 21592, Note_on_c, 1, 72, 0
3, 21601, Note_on_c, 1, 70, 66
3, 21722, Note_on_c, 1, 72, 52
3, 21726, Note_on_c, 1, 70, 0
3, 21836, Note_on_c, 1, 72, 0
3, 21842, Note_on_c, 1, 69, 75
3, 21962, Note_on_c, 1, 72, 45
3, 21964, Note_on_c, 1, 69, 0
3, 22078, Note_on_c, 1, 72, 0
3, 22082, Note_on_c, 1, 70, 66
3, 22203, Note_on_c, 1, 72, 50
3, 22210, Note_on_c, 1, 70, 0
3, 22314, Note_on_c, 1, 72, 0
3, 22322, Note_on_c, 1, 69, 75
3, 22442, Note_on_c, 1, 69, 0
3, 22442, Note_on_c, 1, 72, 62
3, 22534, Note_on_c, 1, 72, 0
3, 22561, Note_on_c, 1, 72, 70
3, 22561, Note_on_c, 1, 67, 47
3, 22669, Note_on_c, 1, 67, 0
3, 22679, Note_on_c, 1, 64, 50
3, 22801, Note_on_c, 1, 65, 62
3, 22810, Note_on_c, 1, 64, 0
3, 22921, Note_on_c, 1, 65, 0
3, 22921, Note_on_c, 1, 62, 50
3, 22931, Note_on_c, 1, 72, 0
3, 23042, Note_on_c, 1, 58, 58
3, 23044, Note_on_c, 1, 62, 0
3, 23161, Note_on_c, 1, 70, 70
3, 23278, Note_on_c, 1, 58, 0
3, 23281, Note_on_c, 1, 60, 58
3, 23281, Note_on_c, 1, 69, 70
3, 23285, Note_on_c, 1, 70, 0
3, 23401, Note_on_c, 1, 67, 70
3, 23404, Note_on_c, 1, 69, 0
3, 23521, Note_on_c, 1, 65, 66
3, 23526, Note_on_c, 1, 67, 0
3, 23533, Note_on_c, 1, 60, 0
3, 23641, Note_on_c, 1, 60, 46
3, 23644, Note_on_c, 1, 65, 0
3, 23759, Note_on_c, 1, 60, 0
3, 23764, Note_on_c, 1, 53, 54
3, 23865, Note_on_c, 1, 53, 0
3, 24000, Note_on_c, 1, 53, 66
3, 24000, Note_on_c, 1, 50, 75
3, 24000, Note_on_c, 1, 62, 66
3, 24000, Note_on_c, 1, 57, 83
3, 24282, Note_on_c, 1, 62, 0
3, 24283, Note_on_c, 1, 53, 0
3, 24283, Note_on_c, 1, 50, 0
3, 24284, Note_on_c, 1, 57, 0
3, 24301, Note_on_c, 1, 62, 66
3, 24301, Note_on_c, 1, 65, 62
3, 24354, Note_on_c, 1, 62, 0
3, 24357, Note_on_c, 1, 65, 0
3, 24361, Note_on_c, 1, 65, 66
3, 24361, Note_on_c, 1, 62, 62
3, 24407, Note_on_c, 1, 62, 0
3, 24408, Note_on_c, 1, 65, 0
3, 24421, Note_on_c, 1, 65, 58
3, 24421, Note_on_c, 1, 62, 54
3, 24475, Note_on_c, 1, 65, 0
3, 24477, Note_on_c, 1, 62, 0
3, 24481, Note_on_c, 1, 64, 66
3, 24481, Note_on_c, 1, 67, 52
3, 24539, Note_on_c, 1, 64, 0
3, 24541, Note_on_c, 1, 67, 0
3, 24600, Note_on_c, 1, 65, 62
3, 24601, Note_on_c, 1, 62, 70
3, 24663, Note_on_c, 1, 62, 0
3, 24669, Note_on_c, 1, 65, 0
3, 24719, Note_on_c, 1, 64, 75
3, 24719, Note_on_c, 1, 61, 62
3, 24787, Note_on_c, 1, 61, 0
3, 24788, Note_on_c, 1, 64, 0
3, 24958, Note_on_c, 1, 64, 83
3, 24959, Note_on_c, 1, 55, 83
3, 24959, Note_on_c, 1, 61, 79
3, 24959, Note_on_c, 1, 58, 79
3, 25188, Note_on_c, 1, 58, 0
3, 25190, Note_on_c, 1, 61, 0
3, 25190, Note_on_c, 1, 55, 0
3, 25194, Note_on_c, 1, 64, 0
3, 25260, Note_on_c, 1, 70, 47
3, 25260, Note_on_c, 1, 67, 54
3, 25312, Note_on_c, 1, 67, 0
3, 25314, Note_on_c, 1, 70, 0
3, 25320, Note_on_c, 1, 67, 62
3, 25320, Note_on_c, 1, 70, 42
3, 25365, Note_on_c, 1, 67, 0
3, 25368, Note_on_c, 1, 70, 0
3, 25379, Note_on_c, 1, 70, 58
3, 25379, Note_on_c, 1, 67, 66
3, 25431, Note_on_c, 1, 67, 0
3, 25437, Note_on_c, 1, 70, 0
3, 25441, Note_on_c, 1, 65, 54
3, 25441, Note_on_c, 1, 69, 75
3, 25486, Note_on_c, 1, 69, 0
3, 25491, Note_on_c, 1, 65, 0
3, 25560, Note_on_c, 1, 67, 66
3, 25560, Note_on_c, 1, 64, 66
3, 25618, Note_on_c, 1, 64, 0
3, 25620, Note_on_c, 1, 67, 0
3, 25681, Note_on_c, 1, 65, 66
3, 25681, Note_on_c, 1, 62, 66
3, 25733, Note_on_c, 1, 62, 0
3, 25736, Note_on_c, 1, 65, 0
3, 25919, Note_on_c, 1, 67, 79
3, 26039, Note_on_c, 1, 69, 70
3, 26041, Note_on_c, 1, 67, 0
3, 26159, Note_on_c, 1, 65, 79
3, 26164, Note_on_c, 1, 69, 0
3, 26279, Note_on_c, 1, 69, 70
3, 26282, Note_on_c, 1, 65, 0
3, 26399, Note_on_c, 1, 69, 0
3, 26400, Note_on_c, 1, 67, 70
3, 26521, Note_on_c, 1, 69, 66
3, 26525, Note_on_c, 1, 67, 0
3, 26641, Note_on_c, 1, 65, 79
3, 26642, Note_on_c, 1, 69, 0
3, 26761, Note_on_c, 1, 69, 79
3, 26768, Note_on_c, 1, 65, 0
3, 26861, Note_on_c, 1, 69, 0
3, 26879, Note_on_c, 1, 69, 62
3, 26879, Note_on_c, 1, 64, 79
3, 27001, Note_on_c, 1, 61, 75
3, 27003, Note_on_c, 1, 64, 0
3, 27121, Note_on_c, 1, 62, 88
3, 27127, Note_on_c, 1, 61, 0
3, 27239, Note_on_c, 1, 62, 0
3, 27241, Note_on_c, 1, 68, 79
3, 27241, Note_on_c, 1, 58, 50
3, 27249, Note_on_c, 1, 69, 0
3, 27353, Note_on_c, 1, 58, 0
3, 27357, Note_on_c, 1, 68, 0
3, 27359, Note_on_c, 1, 69, 79
3, 27359, Note_on_c, 1, 57, 66
3, 27487, Note_on_c, 1, 57, 0
3, 27487, Note_on_c, 1, 69, 0
3, 27838, Note_on_c, 1, 62, 83
3, 27838, Note_on_c, 1, 50, 88
3, 27838, Note_on_c, 1, 53, 83
3, 27839, Note_on_c, 1, 57, 88
3, 28078, Note_on_c, 1, 62, 0
3, 28116, Note_on_c, 1, 57, 0
3, 28116, Note_on_c, 1, 53, 0
3, 28119, Note_on_c, 1, 50, 0
3, 28141, Note_on_c, 1, 65, 58
3, 28141, Note_on_c, 1, 62, 66
3, 28183, Note_on_c, 1, 62, 0
3, 28187, Note_on_c, 1, 65, 0
3, 28199, Note_on_c, 1, 65, 62
3, 28199, Note_on_c, 1, 62, 54
3, 28246, Note_on_c, 1, 62, 0
3, 28248, Note_on_c, 1, 65, 0
3, 28259, Note_on_c, 1, 65, 70
3, 28259, Note_on_c, 1, 62, 62
3, 28302, Note_on_c, 1, 62, 0
3, 28303, Note_on_c, 1, 65, 0
3, 28319, Note_on_c, 1, 67, 52
3, 28319, Note_on_c, 1, 64, 54
3, 28381, Note_on_c, 1, 64, 0
3, 28383, Note_on_c, 1, 67, 0
3, 28439, Note_on_c, 1, 65, 54
3, 28439, Note_on_c, 1, 62, 62
3, 28509, Note_on_c, 1, 62, 0
3, 28514, Note_on_c, 1, 65, 0
3, 28561, Note_on_c, 1, 64, 66
3, 28561, Note_on_c, 1, 61, 47
3, 28625, Note_on_c, 1, 61, 0
3, 28626, Note_on_c, 1, 64, 0
3, 28799, Note_on_c, 1, 64, 83
3, 28799, Note_on_c, 1, 61, 75
3, 28799, Note_on_c, 1, 58, 75
3, 28799, Note_on_c, 1, 55, 79
3, 28924, Note_on_c, 1, 65, 11
3, 28935, Note_on_c, 1, 65, 0
3, 29039, Note_on_c, 1, 64, 0
3, 29080, Note_on_c, 1, 58, 0
3, 29082, Note_on_c, 1, 61, 0
3, 29083, Note_on_c, 1, 55, 0
3, 29099, Note_on_c, 1, 70, 47
3, 29099, Note_on_c, 1, 67, 54
3, 29149, Note_on_c, 1, 67, 0
3, 29152, Note_on_c, 1, 70, 0
3, 29159, Note_on_c, 1, 70, 54
3, 29159, Note_on_c, 1, 67, 62
3, 29208, Note_on_c, 1, 67, 0
3, 29211, Note_on_c, 1, 70, 0
3, 29219, Note_on_c, 1, 70, 62
3, 29220, Note_on_c, 1, 67, 70
3, 29265, Note_on_c, 1, 67, 0
3, 29266, Note_on_c, 1, 70, 0
3, 29280, Note_on_c, 1, 69, 62
3, 29280, Note_on_c, 1, 65, 66
3, 29336, Note_on_c, 1, 69, 0
3, 29337, Note_on_c, 1, 65, 0
3, 29401, Note_on_c, 1, 64, 62
3, 29401, Note_on_c, 1, 67, 66
3, 29465, Note_on_c, 1, 64, 0
3, 29469, Note_on_c, 1, 67, 0
3, 29520, Note_on_c, 1, 62, 52
3, 29521, Note_on_c, 1, 65, 62
3, 29588, Note_on_c, 1, 62, 0
3, 29589, Note_on_c, 1, 65, 0
3, 29759, Note_on_c, 1, 55, 62
3, 29879, Note_on_c, 1, 58, 66
3, 29880, Note_on_c, 1, 55, 0
3, 29999, Note_on_c, 1, 53, 66
3, 30003, Note_on_c, 1, 58, 0
3, 30121, Note_on_c, 1, 57, 62
3, 30124, Note_on_c, 1, 53, 0
3, 30240, Note_on_c, 1, 55, 66
3, 30243, Note_on_c, 1, 57, 0
3, 30359, Note_on_c, 1, 55, 0
3, 30359, Note_on_c, 1, 58, 66
3, 30479, Note_on_c, 1, 57, 75
3, 30480, Note_on_c, 1, 58, 0
3, 30481, Note_on_c, 1, 53, 52
3, 30600, Note_on_c, 1, 62, 83
3, 30602, Note_on_c, 1, 57, 0
3, 30718, Note_on_c, 1, 53, 0
3, 30719, Note_on_c, 1, 62, 0
3, 30719, Note_on_c, 1, 55, 66
3, 30719, Note_on_c, 1, 58, 70
3, 30839, Note_on_c, 1, 67, 83
3, 30841, Note_on_c, 1, 58, 0
3, 30959, Note_on_c, 1, 65, 75
3, 30960, Note_on_c, 1, 57, 66
3, 30963, Note_on_c, 1, 55, 0
3, 30966, Note_on_c, 1, 67, 0
3, 31078, Note_on_c, 1, 65, 0
3, 31079, Note_on_c, 1, 64, 70
3, 31200, Note_on_c, 1, 50, 66
3, 31200, Note_on_c, 1, 38, 66
3, 31202, Note_on_c, 1, 57, 0
3, 31207, Note_on_c, 1, 64, 0
3, 31800, Note_on_c, 1, 50, 0
3, 31801, Note_on_c, 1, 38, 0
3, 32161, Note_on_c, 1, 58, 45
3, 32221, Note_on_c, 1, 65, 52
3, 32227, Note_on_c, 1, 58, 0
3, 32278, Note_on_c, 1, 65, 0
3, 32281, Note_on_c, 1, 62, 62
3, 32341, Note_on_c, 1, 62, 0
3, 32341, Note_on_c, 1, 65, 58
3, 32393, Note_on_c, 1, 65, 0
3, 32401, Note_on_c, 1, 58, 42
3, 32461, Note_on_c, 1, 58, 0
3, 32461, Note_on_c, 1, 65, 43
3, 32509, Note_on_c, 1, 65, 0
3, 32519, Note_on_c, 1, 62, 54
3, 32577, Note_on_c, 1, 62, 0
3, 32579, Note_on_c, 1, 65, 49
3, 32639, Note_on_c, 1, 65, 0
3, 32639, Note_on_c, 1, 60, 54
3, 32698, Note_on_c, 1, 60, 0
3, 32699, Note_on_c, 1, 65, 62
3, 32751, Note_on_c, 1, 65, 0
3, 32759, Note_on_c, 1, 63, 52
3, 32812, Note_on_c, 1, 63, 0
3, 32819, Note_on_c, 1, 65, 66
3, 32879, Note_on_c, 1, 53, 50
3, 32885, Note_on_c, 1, 65, 0
3, 32939, Note_on_c, 1, 65, 54
3, 32940, Note_on_c, 1, 53, 0
3, 32998, Note_on_c, 1, 65, 0
3, 32999, Note_on_c, 1, 63, 50
3, 33059, Note_on_c, 1, 65, 66
3, 33061, Note_on_c, 1, 63, 0
3, 33115, Note_on_c, 1, 65, 0
3, 33119, Note_on_c, 1, 58, 54
3, 33180, Note_on_c, 1, 58, 0
3, 33181, Note_on_c, 1, 65, 47
3, 33236, Note_on_c, 1, 65, 0
3, 33240, Note_on_c, 1, 62, 62
3, 33299, Note_on_c, 1, 65, 54
3, 33300, Note_on_c, 1, 62, 0
3, 33350, Note_on_c, 1, 65, 0
3, 33359, Note_on_c, 1, 58, 43
3, 33419, Note_on_c, 1, 65, 58
3, 33421, Note_on_c, 1, 58, 0
3, 33477, Note_on_c, 1, 65, 0
3, 33479, Note_on_c, 1, 62, 62
3, 33538, Note_on_c, 1, 62, 0
3, 33539, Note_on_c, 1, 65, 54
3, 33599, Note_on_c, 1, 60, 47
3, 33601, Note_on_c, 1, 65, 0
3, 33659, Note_on_c, 1, 65, 47
3, 33664, Note_on_c, 1, 60, 0
3, 33709, Note_on_c, 1, 65, 0
3, 33719, Note_on_c, 1, 63, 40
3, 33779, Note_on_c, 1, 63, 0
3, 33779, Note_on_c, 1, 65, 75
3, 33840, Note_on_c, 1, 53, 52
3, 33841, Note_on_c, 1, 65, 0
3, 33901, Note_on_c, 1, 53, 0
3, 33901, Note_on_c, 1, 65, 50
3, 33960, Note_on_c, 1, 65, 0
3, 33961, Note_on_c, 1, 63, 58
3, 34017, Note_on_c, 1, 63, 0
3, 34019, Note_on_c, 1, 65, 66
3, 34075, Note_on_c, 1, 65, 0
3, 34081, Note_on_c, 1, 58, 50
3, 34136, Note_on_c, 1, 58, 0
3, 34139, Note_on_c, 1, 65, 66
3, 34194, Note_on_c, 1, 65, 0
3, 34199, Note_on_c, 1, 62, 58
3, 34256, Note_on_c, 1, 62, 0
3, 34259, Note_on_c, 1, 65, 66
3, 34319, Note_on_c, 1, 65, 0
3, 34319, Note_on_c, 1, 58, 49
3, 34379, Note_on_c, 1, 58, 0
3, 34379, Note_on_c, 1, 65, 66
3, 34435, Note_on_c, 1, 65, 0
3, 34439, Note_on_c, 1, 62, 52
3, 34496, Note_on_c, 1, 62, 0
3, 34499, Note_on_c, 1, 65, 54
3, 34560, Note_on_c, 1, 57, 52
3, 34566, Note_on_c, 1, 65, 0
3, 34621, Note_on_c, 1, 62, 50
3, 34625, Note_on_c, 1, 57, 0
3, 34672, Note_on_c, 1, 62, 0
3, 34681, Note_on_c, 1, 60, 47
3, 34741, Note_on_c, 1, 60, 0
3, 34741, Note_on_c, 1, 62, 54
3, 34801, Note_on_c, 1, 62, 0
3, 34801, Note_on_c, 1, 57, 54
3, 34859, Note_on_c, 1, 57, 0
3, 34861, Note_on_c, 1, 62, 52
3, 34915, Note_on_c, 1, 62, 0
3, 34921, Note_on_c, 1, 60, 50
3, 34981, Note_on_c, 1, 60, 0
3, 34981, Note_on_c, 1, 62, 58
3, 35041, Note_on_c, 1, 55, 54
3, 35042, Note_on_c, 1, 62, 0
3, 35094, Note_on_c, 1, 55, 0
3, 35101, Note_on_c, 1, 62, 58
3, 35152, Note_on_c, 1, 62, 0
3, 35159, Note_on_c, 1, 58, 54
3, 35215, Note_on_c, 1, 58, 0
3, 35219, Note_on_c, 1, 62, 70
3, 35276, Note_on_c, 1, 62, 0
3, 35279, Note_on_c, 1, 53, 54
3, 35339, Note_on_c, 1, 62, 50
3, 35343, Note_on_c, 1, 53, 0
3, 35399, Note_on_c, 1, 62, 0
3, 35399, Note_on_c, 1, 58, 52
3, 35459, Note_on_c, 1, 62, 62
3, 35460, Note_on_c, 1, 58, 0
3, 35520, Note_on_c, 1, 52, 54
3, 35521, Note_on_c, 1, 62, 0
3, 35581, Note_on_c, 1, 60, 62
3, 35584, Note_on_c, 1, 52, 0
3, 35637, Note_on_c, 1, 60, 0
3, 35641, Note_on_c, 1, 58, 46
3, 35698, Note_on_c, 1, 58, 0
3, 35700, Note_on_c, 1, 60, 79
3, 35761, Note_on_c, 1, 55, 52
3, 35763, Note_on_c, 1, 60, 0
3, 35816, Note_on_c, 1, 55, 0
3, 35821, Note_on_c, 1, 60, 45
3, 35873, Note_on_c, 1, 60, 0
3, 35881, Note_on_c, 1, 58, 46
3, 35939, Note_on_c, 1, 58, 0
3, 35941, Note_on_c, 1, 60, 58
3, 35997, Note_on_c, 1, 60, 0
3, 36001, Note_on_c, 1, 53, 45
3, 36058, Note_on_c, 1, 53, 0
3, 36061, Note_on_c, 1, 60, 52
3, 36116, Note_on_c, 1, 60, 0
3, 36121, Note_on_c, 1, 56, 62
3, 36176, Note_on_c, 1, 56, 0
3, 36179, Note_on_c, 1, 60, 66
3, 36236, Note_on_c, 1, 60, 0
3, 36239, Note_on_c, 1, 53, 50
3, 36295, Note_on_c, 1, 53, 0
3, 36299, Note_on_c, 1, 60, 58
3, 36355, Note_on_c, 1, 60, 0
3, 36359, Note_on_c, 1, 56, 52
3, 36419, Note_on_c, 1, 60, 66
3, 36420, Note_on_c, 1, 56, 0
3, 36481, Note_on_c, 1, 49, 50
3, 36482, Note_on_c, 1, 60, 0
3, 36541, Note_on_c, 1, 56, 47
3, 36546, Note_on_c, 1, 49, 0
3, 36601, Note_on_c, 1, 53, 54
3, 36603, Note_on_c, 1, 56, 0
3, 36660, Note_on_c, 1, 53, 0
3, 36661, Note_on_c, 1, 56, 46
3, 36721, Note_on_c, 1, 49, 42
3, 36722, Note_on_c, 1, 56, 0
3, 36781, Note_on_c, 1, 56, 49
3, 36782, Note_on_c, 1, 49, 0
3, 36841, Note_on_c, 1, 53, 47
3, 36844, Note_on_c, 1, 56, 0
3, 36901, Note_on_c, 1, 53, 0
3, 36901, Note_on_c, 1, 56, 43
3, 36939, Note_on_c, 1, 56, 0
3, 36961, Note_on_c, 1, 56, 54
3, 36961, Note_on_c, 1, 53, 70
3, 36961, Note_on_c, 1, 49, 54
3, 37196, Note_on_c, 1, 56, 0
3, 37199, Note_on_c, 1, 59, 79
3, 37429, Note_on_c, 1, 53, 0
3, 37434, Note_on_c, 1, 49, 0
3, 37437, Note_on_c, 1, 59, 0
3, 37439, Note_on_c, 1, 60, 75
3, 37440, Note_on_c, 1, 55, 58
3, 37441, Note_on_c, 1, 48, 75
3, 37560, Note_on_c, 1, 48, 0
3, 37560, Note_on_c, 1, 55, 0
3, 37563, Note_on_c, 1, 60, 0
3, 39359, Note_on_c, 1, 69, 70
3, 39481, Note_on_c, 1, 72, 70
3, 39487, Note_on_c, 1, 69, 0
3, 39600, Note_on_c, 1, 72, 0
3, 39601, Note_on_c, 1, 65, 58
3, 39721, Note_on_c, 1, 72, 62
3, 39723, Note_on_c, 1, 65, 0
3, 39841, Note_on_c, 1, 70, 62
3, 39850, Note_on_c, 1, 72, 0
3, 39961, Note_on_c, 1, 72, 79
3, 39963, Note_on_c, 1, 70, 0
3, 40081, Note_on_c, 1, 69, 70
3, 40087, Note_on_c, 1, 72, 0
3, 40198, Note_on_c, 1, 69, 0
3, 40200, Note_on_c, 1, 72, 66
3, 40321, Note_on_c, 1, 70, 62
3, 40327, Note_on_c, 1, 72, 0
3, 40440, Note_on_c, 1, 70, 0
3, 40440, Note_on_c, 1, 72, 66
3, 40559, Note_on_c, 1, 72, 0
3, 40559, Note_on_c, 1, 69, 70
3, 40680, Note_on_c, 1, 72, 62
3, 40683, Note_on_c, 1, 69, 0
3, 40783, Note_on_c, 1, 72, 0
3, 40799, Note_on_c, 1, 72, 49
3, 40799, Note_on_c, 1, 67, 75
3, 40915, Note_on_c, 1, 67, 0
3, 40919, Note_on_c, 1, 64, 62
3, 41039, Note_on_c, 1, 65, 66
3, 41040, Note_on_c, 1, 64, 0
3, 41159, Note_on_c, 1, 69, 75
3, 41160, Note_on_c, 1, 65, 0
3, 41276, Note_on_c, 1, 69, 0
3, 41279, Note_on_c, 1, 70, 70
3, 41280, Note_on_c, 1, 72, 0
3, 41399, Note_on_c, 1, 58, 66
3, 41400, Note_on_c, 1, 70, 0
3, 41519, Note_on_c, 1, 62, 75
3, 41522, Note_on_c, 1, 58, 0
3, 41639, Note_on_c, 1, 59, 66
3, 41639, Note_on_c, 1, 65, 66
3, 41640, Note_on_c, 1, 62, 0
3, 41749, Note_on_c, 1, 59, 0
3, 41759, Note_on_c, 1, 60, 54
3, 41876, Note_on_c, 1, 65, 0
3, 41879, Note_on_c, 1, 64, 66
3, 41971, Note_on_c, 1, 62, 62
3, 41981, Note_on_c, 1, 64, 0
3, 41996, Note_on_c, 1, 62, 0
3, 42000, Note_on_c, 1, 64, 70
3, 42117, Note_on_c, 1, 64, 0
3, 42123, Note_on_c, 1, 60, 0
3, 42241, Note_on_c, 1, 69, 70
3, 42361, Note_on_c, 1, 72, 70
3, 42367, Note_on_c, 1, 69, 0
3, 42473, Note_on_c, 1, 72, 0
3, 42481, Note_on_c, 1, 65, 54
3, 42594, Note_on_c, 1, 65, 0
3, 42598, Note_on_c, 1, 72, 58
3, 42718, Note_on_c, 1, 72, 0
3, 42720, Note_on_c, 1, 70, 62
3, 42840, Note_on_c, 1, 70, 0
3, 42841, Note_on_c, 1, 72, 70
3, 42961, Note_on_c, 1, 69, 66
3, 42965, Note_on_c, 1, 72, 0
3, 43080, Note_on_c, 1, 69, 0
3, 43081, Note_on_c, 1, 72, 66
3, 43201, Note_on_c, 1, 70, 62
3, 43203, Note_on_c, 1, 72, 0
3, 43321, Note_on_c, 1, 72, 66
3, 43325, Note_on_c, 1, 70, 0
3, 43434, Note_on_c, 1, 72, 0
3, 43439, Note_on_c, 1, 69, 66
3, 43561, Note_on_c, 1, 72, 66
3, 43562, Note_on_c, 1, 69, 0
3, 43671, Note_on_c, 1, 72, 0
3, 43681, Note_on_c, 1, 72, 58
3, 43681, Note_on_c, 1, 67, 62
3, 43801, Note_on_c, 1, 64, 66
3, 43804, Note_on_c, 1, 67, 0
3, 43914, Note_on_c, 1, 64, 0
3, 43921, Note_on_c, 1, 65, 58
3, 44041, Note_on_c, 1, 62, 75
3, 44043, Note_on_c, 1, 65, 0
3, 44048, Note_on_c, 1, 72, 0
3, 44161, Note_on_c, 1, 58, 66
3, 44162, Note_on_c, 1, 62, 0
3, 44281, Note_on_c, 1, 70, 70
3, 44389, Note_on_c, 1, 58, 0
3, 44401, Note_on_c, 1, 69, 66
3, 44401, Note_on_c, 1, 60, 66
3, 44402, Note_on_c, 1, 70, 0
3, 44521, Note_on_c, 1, 67, 70
3, 44523, Note_on_c, 1, 69, 0
3, 44524, Note_on_c, 1, 60, 0
3, 44638, Note_on_c, 1, 67, 0
3, 44641, Note_on_c, 1, 65, 79
3, 44761, Note_on_c, 1, 60, 62
3, 44768, Note_on_c, 1, 65, 0
3, 44873, Note_on_c, 1, 60, 0
3, 44881, Note_on_c, 1, 53, 58
3, 45002, Note_on_c, 1, 53, 0
3, 45720, Note_on_c, 1, 53, 62
3, 45841, Note_on_c, 1, 46, 58
3, 45842, Note_on_c, 1, 53, 0
3, 45968, Note_on_c, 1, 58, 49
3, 45969, Note_on_c, 1, 46, 0
3, 46084, Note_on_c, 1, 58, 0
3, 46084, Note_on_c, 1, 51, 50
3, 46201, Note_on_c, 1, 39, 62
3, 46207, Note_on_c, 1, 51, 0
3, 46322, Note_on_c, 1, 39, 0
3, 46323, Note_on_c, 1, 44, 52
3, 46443, Note_on_c, 1, 56, 54
3, 46444, Note_on_c, 1, 44, 0
3, 46560, Note_on_c, 1, 49, 52
3, 46562, Note_on_c, 1, 56, 0
3, 46678, Note_on_c, 1, 37, 62
3, 46684, Note_on_c, 1, 49, 0
3, 46800, Note_on_c, 1, 43, 62
3, 46803, Note_on_c, 1, 37, 0
3, 46923, Note_on_c, 1, 55, 54
3, 46926, Note_on_c, 1, 43, 0
3, 47043, Note_on_c, 1, 48, 62
3, 47044, Note_on_c, 1, 55, 0
3, 47155, Note_on_c, 1, 36, 52
3, 47159, Note_on_c, 1, 48, 0
3, 47275, Note_on_c, 1, 36, 0
3, 47281, Note_on_c, 1, 41, 38
3, 47341, Note_on_c, 1, 49, 52
3, 47346, Note_on_c, 1, 41, 0
3, 47401, Note_on_c, 1, 48, 66
3, 47406, Note_on_c, 1, 49, 0
3, 47456, Note_on_c, 1, 48, 0
3, 47458, Note_on_c, 1, 46, 62
3, 47526, Note_on_c, 1, 46, 0
3, 47527, Note_on_c, 1, 44, 62
3, 47657, Note_on_c, 1, 44, 0
3, 48126, Note_on_c, 1, 63, 62
3, 48127, Note_on_c, 1, 55, 66
3, 48353, Note_on_c, 1, 56, 52
3, 48356, Note_on_c, 1, 55, 0
3, 48496, Note_on_c, 1, 61, 52
3, 48496, Note_on_c, 1, 49, 45
3, 48497, Note_on_c, 1, 56, 0
3, 48499, Note_on_c, 1, 63, 0
3, 48725, Note_on_c, 1, 61, 0
3, 48725, Note_on_c, 1, 49, 0
3, 48726, Note_on_c, 1, 51, 50
3, 48726, Note_on_c, 1, 60, 58
3, 48853, Note_on_c, 1, 58, 50
3, 48856, Note_on_c, 1, 60, 0
3, 48863, Note_on_c, 1, 51, 0
3, 48960, Note_on_c, 1, 56, 54
3, 48962, Note_on_c, 1, 58, 0
3, 49088, Note_on_c, 1, 51, 47
3, 49094, Note_on_c, 1, 56, 0
3, 49198, Note_on_c, 1, 44, 49
3, 49201, Note_on_c, 1, 51, 0
3, 49341, Note_on_c, 1, 44, 0
3, 49557, Note_on_c, 1, 53, 66
3, 49682, Note_on_c, 1, 46, 66
3, 49683, Note_on_c, 1, 53, 0
3, 49802, Note_on_c, 1, 58, 50
3, 49804, Note_on_c, 1, 46, 0
3, 49919, Note_on_c, 1, 58, 0
3, 49921, Note_on_c, 1, 51, 49
3, 50038, Note_on_c, 1, 39, 50
3, 50044, Note_on_c, 1, 51, 0
3, 50158, Note_on_c, 1, 39, 0
3, 50159, Note_on_c, 1, 44, 66
3, 50280, Note_on_c, 1, 56, 54
3, 50281, Note_on_c, 1, 44, 0
3, 50398, Note_on_c, 1, 56, 0
3, 50400, Note_on_c, 1, 49, 62
3, 50519, Note_on_c, 1, 37, 54
3, 50523, Note_on_c, 1, 49, 0
3, 50637, Note_on_c, 1, 37, 0
3, 50637, Note_on_c, 1, 43, 70
3, 50763, Note_on_c, 1, 55, 54
3, 50767, Note_on_c, 1, 43, 0
3, 50879, Note_on_c, 1, 55, 0
3, 50880, Note_on_c, 1, 48, 66
3, 51003, Note_on_c, 1, 36, 62
3, 51008, Note_on_c, 1, 48, 0
3, 51119, Note_on_c, 1, 36, 0
3, 51119, Note_on_c, 1, 41, 66
3, 51183, Note_on_c, 1, 41, 0
3, 51184, Note_on_c, 1, 49, 52
3, 51244, Note_on_c, 1, 48, 66
3, 51248, Note_on_c, 1, 49, 0
3, 51302, Note_on_c, 1, 48, 0
3, 51303, Note_on_c, 1, 46, 58
3, 51367, Note_on_c, 1, 46, 0
3, 51369, Note_on_c, 1, 44, 52
3, 51496, Note_on_c, 1, 44, 0
3, 51968, Note_on_c, 1, 63, 47
3, 51970, Note_on_c, 1, 55, 66
3, 52193, Note_on_c, 1, 55, 0
3, 52195, Note_on_c, 1, 56, 62
3, 52300, Note_on_c, 1, 56, 0
3, 52305, Note_on_c, 1, 63, 0
3, 52327, Note_on_c, 1, 61, 66
3, 52329, Note_on_c, 1, 49, 58
3, 52543, Note_on_c, 1, 49, 0
3, 52544, Note_on_c, 1, 61, 0
3, 52563, Note_on_c, 1, 51, 58
3, 52564, Note_on_c, 1, 60, 58
3, 52683, Note_on_c, 1, 58, 52
3, 52688, Note_on_c, 1, 60, 0
3, 52794, Note_on_c, 1, 58, 0
3, 52800, Note_on_c, 1, 51, 0
3, 52803, Note_on_c, 1, 56, 62
3, 52923, Note_on_c, 1, 51, 54
3, 52930, Note_on_c, 1, 56, 0
3, 53042, Note_on_c, 1, 44, 49
3, 53044, Note_on_c, 1, 51, 0
3, 53174, Note_on_c, 1, 44, 0
3, 53400, Note_on_c, 1, 65, 70
3, 53638, Note_on_c, 1, 64, 70
3, 53642, Note_on_c, 1, 65, 0
3, 53757, Note_on_c, 1, 63, 58
3, 53759, Note_on_c, 1, 64, 0
3, 53879, Note_on_c, 1, 62, 75
3, 53880, Note_on_c, 1, 63, 0
3, 53938, Note_on_c, 1, 62, 0
3, 53940, Note_on_c, 1, 60, 66
3, 54003, Note_on_c, 1, 58, 66
3, 54005, Note_on_c, 1, 60, 0
3, 54062, Note_on_c, 1, 60, 62
3, 54065, Note_on_c, 1, 58, 0
3, 54121, Note_on_c, 1, 60, 0
3, 54123, Note_on_c, 1, 61, 58
3, 54176, Note_on_c, 1, 62, 75
3, 54180, Note_on_c, 1, 61, 0
3, 54236, Note_on_c, 1, 63, 50
3, 54250, Note_on_c, 1, 62, 0
3, 54350, Note_on_c, 1, 63, 0
3, 54363, Note_on_c, 1, 63, 66
3, 54491, Note_on_c, 1, 63, 0
3, 54603, Note_on_c, 1, 62, 79
3, 54720, Note_on_c, 1, 61, 75
3, 54724, Note_on_c, 1, 62, 0
3, 54840, Note_on_c, 1, 61, 0
3, 54840, Note_on_c, 1, 60, 66
3, 54895, Note_on_c, 1, 58, 58
3, 54898, Note_on_c, 1, 60, 0
3, 54960, Note_on_c, 1, 56, 66
3, 54967, Note_on_c, 1, 58, 0
3, 55019, Note_on_c, 1, 55, 66
3, 55025, Note_on_c, 1, 56, 0
3, 55078, Note_on_c, 1, 55, 0
3, 55080, Note_on_c, 1, 53, 66
3, 55135, Note_on_c, 1, 51, 58
3, 55136, Note_on_c, 1, 53, 0
3, 55201, Note_on_c, 1, 51, 0
3, 55201, Note_on_c, 1, 50, 70
3, 55322, Note_on_c, 1, 52, 66
3, 55325, Note_on_c, 1, 50, 0
3, 55443, Note_on_c, 1, 53, 66
3, 55444, Note_on_c, 1, 52, 0
3, 55560, Note_on_c, 1, 47, 66
3, 55564, Note_on_c, 1, 53, 0
3, 55677, Note_on_c, 1, 47, 0
3, 55678, Note_on_c, 1, 48, 66
3, 55801, Note_on_c, 1, 60, 70
3, 55804, Note_on_c, 1, 48, 0
3, 55978, Note_on_c, 1, 59, 75
3, 55984, Note_on_c, 1, 60, 0
3, 56041, Note_on_c, 1, 60, 70
3, 56043, Note_on_c, 1, 59, 0
3, 56097, Note_on_c, 1, 59, 70
3, 56100, Note_on_c, 1, 60, 0
3, 56160, Note_on_c, 1, 60, 70
3, 56162, Note_on_c, 1, 59, 0
3, 56400, Note_on_c, 1, 61, 66
3, 56403, Note_on_c, 1, 60, 0
3, 56696, Note_on_c, 1, 61, 0
3, 56697, Note_on_c, 1, 65, 75
3, 56755, Note_on_c, 1, 63, 66
3, 56764, Note_on_c, 1, 65, 0
3, 56815, Note_on_c, 1, 61, 62
3, 56820, Note_on_c, 1, 63, 0
3, 56876, Note_on_c, 1, 60, 66
3, 56879, Note_on_c, 1, 61, 0
3, 57175, Note_on_c, 1, 63, 70
3, 57180, Note_on_c, 1, 60, 0
3, 57235, Note_on_c, 1, 61, 58
3, 57242, Note_on_c, 1, 63, 0
3, 57296, Note_on_c, 1, 60, 62
3, 57298, Note_on_c, 1, 61, 0
3, 57361, Note_on_c, 1, 58, 66
3, 57372, Note_on_c, 1, 60, 0
3, 57656, Note_on_c, 1, 61, 66
3, 57660, Note_on_c, 1, 58, 0
3, 57718, Note_on_c, 1, 61, 0
3, 57719, Note_on_c, 1, 60, 70
3, 57776, Note_on_c, 1, 60, 0
3, 57776, Note_on_c, 1, 58, 62
3, 57841, Note_on_c, 1, 58, 0
3, 57841, Note_on_c, 1, 56, 66
3, 57896, Note_on_c, 1, 56, 0
3, 57898, Note_on_c, 1, 55, 66
3, 57955, Note_on_c, 1, 55, 0
3, 57959, Note_on_c, 1, 53, 66
3, 58010, Note_on_c, 1, 51, 58
3, 58016, Note_on_c, 1, 53, 0
3, 58074, Note_on_c, 1, 51, 0
3, 58074, Note_on_c, 1, 49, 79
3, 58318, Note_on_c, 1, 50, 79
3, 58321, Note_on_c, 1, 49, 0
3, 58559, Note_on_c, 1, 50, 0
3, 58672, Note_on_c, 1, 52, 70
3, 58673, Note_on_c, 1, 61, 62
3, 58908, Note_on_c, 1, 52, 0
3, 58920, Note_on_c, 1, 53, 17
3, 58922, Note_on_c, 1, 60, 88
3, 58924, Note_on_c, 1, 61, 0
3, 59037, Note_on_c, 1, 53, 0
3, 59042, Note_on_c, 1, 60, 0
3, 59042, Note_on_c, 1, 46, 75
3, 59160, Note_on_c, 1, 58, 66
3, 59276, Note_on_c, 1, 56, 66
3, 59277, Note_on_c, 1, 46, 0
3, 59277, Note_on_c, 1, 48, 62
3, 59281, Note_on_c, 1, 58, 0
3, 59393, Note_on_c, 1, 55, 66
3, 59394, Note_on_c, 1, 56, 0
3, 59510, Note_on_c, 1, 55, 0
3, 59516, Note_on_c, 1, 53, 52
3, 59517, Note_on_c, 1, 48, 0
3, 59641, Note_on_c, 1, 48, 47
3, 59652, Note_on_c, 1, 53, 0
3, 59755, Note_on_c, 1, 41, 46
3, 59761, Note_on_c, 1, 48, 0
3, 59895, Note_on_c, 1, 41, 0
3, 60118, Note_on_c, 1, 65, 79
3, 60352, Note_on_c, 1, 64, 83
3, 60353, Note_on_c, 1, 65, 0
3, 60476, Note_on_c, 1, 63, 75
3, 60478, Note_on_c, 1, 64, 0
3, 60599, Note_on_c, 1, 61, 79
3, 60604, Note_on_c, 1, 63, 0
3, 60658, Note_on_c, 1, 60, 62
3, 60659, Note_on_c, 1, 61, 0
3, 60716, Note_on_c, 1, 58, 62
3, 60717, Note_on_c, 1, 60, 0
3, 60776, Note_on_c, 1, 60, 66
3, 60778, Note_on_c, 1, 58, 0
3, 60832, Note_on_c, 1, 60, 0
3, 60832, Note_on_c, 1, 61, 66
3, 60892, Note_on_c, 1, 61, 0
3, 60892, Note_on_c, 1, 62, 70
3, 60952, Note_on_c, 1, 62, 0
3, 60952, Note_on_c, 1, 63, 66
3, 61065, Note_on_c, 1, 63, 0
3, 61075, Note_on_c, 1, 63, 66
3, 61203, Note_on_c, 1, 63, 0
3, 61317, Note_on_c, 1, 62, 79
3, 61439, Note_on_c, 1, 62, 0
3, 61440, Note_on_c, 1, 61, 70
3, 61557, Note_on_c, 1, 60, 79
3, 61560, Note_on_c, 1, 61, 0
3, 61615, Note_on_c, 1, 58, 66
3, 61618, Note_on_c, 1, 60, 0
3, 61673, Note_on_c, 1, 56, 79
3, 61677, Note_on_c, 1, 58, 0
3, 61733, Note_on_c, 1, 56, 0
3, 61733, Note_on_c, 1, 55, 75
3, 61794, Note_on_c, 1, 55, 0
3, 61794, Note_on_c, 1, 53, 79
3, 61851, Note_on_c, 1, 51, 70
3, 61856, Note_on_c, 1, 53, 0
3, 61916, Note_on_c, 1, 51, 0
3, 61916, Note_on_c, 1, 50, 79
3, 62035, Note_on_c, 1, 52, 88
3, 62039, Note_on_c, 1, 50, 0
3, 62161, Note_on_c, 1, 53, 75
3, 62163, Note_on_c, 1, 52, 0
3, 62275, Note_on_c, 1, 47, 70
3, 62281, Note_on_c, 1, 53, 0
3, 62396, Note_on_c, 1, 48, 70
3, 62403, Note_on_c, 1, 47, 0
3, 62520, Note_on_c, 1, 60, 75
3, 62525, Note_on_c, 1, 48, 0
3, 62693, Note_on_c, 1, 59, 83
3, 62700, Note_on_c, 1, 60, 0
3, 62756, Note_on_c, 1, 60, 79
3, 62758, Note_on_c, 1, 59, 0
3, 62816, Note_on_c, 1, 59, 58
3, 62821, Note_on_c, 1, 60, 0
3, 62880, Note_on_c, 1, 59, 0
3, 62880, Note_on_c, 1, 60, 62
3, 63118, Note_on_c, 1, 61, 62
3, 63124, Note_on_c, 1, 60, 0
3, 63412, Note_on_c, 1, 65, 62
3, 63414, Note_on_c, 1, 61, 0
3, 63475, Note_on_c, 1, 63, 58
3, 63487, Note_on_c, 1, 65, 0
3, 63534, Note_on_c, 1, 61, 58
3, 63539, Note_on_c, 1, 63, 0
3, 63595, Note_on_c, 1, 60, 62
3, 63596, Note_on_c, 1, 61, 0
3, 63895, Note_on_c, 1, 63, 62
3, 63901, Note_on_c, 1, 60, 0
3, 63955, Note_on_c, 1, 61, 62
3, 63962, Note_on_c, 1, 63, 0
3, 64013, Note_on_c, 1, 60, 79
3, 64014, Note_on_c, 1, 61, 0
3, 64075, Note_on_c, 1, 58, 66
3, 64078, Note_on_c, 1, 60, 0
3, 64370, Note_on_c, 1, 61, 70
3, 64373, Note_on_c, 1, 58, 0
3, 64432, Note_on_c, 1, 60, 62
3, 64435, Note_on_c, 1, 61, 0
3, 64492, Note_on_c, 1, 58, 66
3, 64493, Note_on_c, 1, 60, 0
3, 64552, Note_on_c, 1, 58, 0
3, 64552, Note_on_c, 1, 56, 62
3, 64608, Note_on_c, 1, 55, 75
3, 64611, Note_on_c, 1, 56, 0
3, 64671, Note_on_c, 1, 53, 62
3, 64672, Note_on_c, 1, 55, 0
3, 64721, Note_on_c, 1, 51, 66
3, 64722, Note_on_c, 1, 53, 0
3, 64784, Note_on_c, 1, 49, 62
3, 64785, Note_on_c, 1, 51, 0
3, 65034, Note_on_c, 1, 50, 79
3, 65038, Note_on_c, 1, 49, 0
3, 65283, Note_on_c, 1, 50, 0
3, 65396, Note_on_c, 1, 52, 52
3, 65400, Note_on_c, 1, 61, 58
3, 65630, Note_on_c, 1, 52, 0
3, 65635, Note_on_c, 1, 61, 0
3, 65637, Note_on_c, 1, 60, 66
3, 65638, Note_on_c, 1, 53, 50
3, 65745, Note_on_c, 1, 60, 0
3, 65751, Note_on_c, 1, 53, 0
3, 65769, Note_on_c, 1, 46, 79
3, 65881, Note_on_c, 1, 58, 70
3, 65980, Note_on_c, 1, 46, 0
3, 65986, Note_on_c, 1, 58, 0
3, 65999, Note_on_c, 1, 56, 66
3, 65999, Note_on_c, 1, 48, 54
3, 66110, Note_on_c, 1, 56, 0
3, 66110, Note_on_c, 1, 55, 62
3, 66256, Note_on_c, 1, 48, 0
3, 66258, Note_on_c, 1, 53, 79
3, 66261, Note_on_c, 1, 55, 0
3, 66268, Note_on_c, 1, 41, 62
3, 66712, Note_on_c, 1, 53, 0
3, 66715, Note_on_c, 1, 41, 0
3, 66720, Note_on_c, 1, 41, 52
3, 66720, Note_on_c, 1, 53, 52
3, 66809, Note_on_c, 1, 53, 0
3, 66810, Note_on_c, 1, 41, 0
3, 66950, Note_on_c, 1, 41, 66
3, 66951, Note_on_c, 1, 53, 49
3, 67046, Note_on_c, 1, 41, 0
3, 67048, Note_on_c, 1, 53, 0
3, 67193, Note_on_c, 1, 41, 62
3, 67194, Note_on_c, 1, 53, 50
3, 67328, Note_on_c, 1, 53, 0
3, 67330, Note_on_c, 1, 41, 0
3, 68159, Note_on_c, 1, 69, 62
3, 68279, Note_on_c, 1, 72, 52
3, 68280, Note_on_c, 1, 69, 0
3, 68396, Note_on_c, 1, 72, 0
3, 68400, Note_on_c, 1, 65, 50
3, 68513, Note_on_c, 1, 72, 62
3, 68517, Note_on_c, 1, 65, 0
3, 68636, Note_on_c, 1, 70, 58
3, 68637, Note_on_c, 1, 72, 0
3, 68761, Note_on_c, 1, 70, 0
3, 68762, Note_on_c, 1, 72, 62
3, 68888, Note_on_c, 1, 69, 66
3, 68890, Note_on_c, 1, 72, 0
3, 68999, Note_on_c, 1, 72, 62
3, 69000, Note_on_c, 1, 69, 0
3, 69115, Note_on_c, 1, 70, 66
3, 69120, Note_on_c, 1, 72, 0
3, 69236, Note_on_c, 1, 72, 66
3, 69238, Note_on_c, 1, 70, 0
3, 69355, Note_on_c, 1, 69, 66
3, 69356, Note_on_c, 1, 72, 0
3, 69474, Note_on_c, 1, 69, 0
3, 69475, Note_on_c, 1, 72, 66
3, 69583, Note_on_c, 1, 72, 0
3, 69598, Note_on_c, 1, 67, 66
3, 69598, Note_on_c, 1, 72, 58
3, 69656, Note_on_c, 1, 72, 0
3, 69658, Note_on_c, 1, 67, 0
3, 69721, Note_on_c, 1, 72, 70
3, 69722, Note_on_c, 1, 64, 66
3, 69781, Note_on_c, 1, 72, 0
3, 69784, Note_on_c, 1, 64, 0
3, 69843, Note_on_c, 1, 72, 49
3, 69844, Note_on_c, 1, 65, 66
3, 69898, Note_on_c, 1, 65, 0
3, 69906, Note_on_c, 1, 72, 0
3, 69963, Note_on_c, 1, 69, 62
3, 69964, Note_on_c, 1, 72, 62
3, 70024, Note_on_c, 1, 69, 0
3, 70025, Note_on_c, 1, 72, 0
3, 70086, Note_on_c, 1, 70, 66
3, 70198, Note_on_c, 1, 70, 0
3, 70199, Note_on_c, 1, 58, 62
3, 70318, Note_on_c, 1, 58, 0
3, 70318, Note_on_c, 1, 62, 75
3, 70438, Note_on_c, 1, 62, 0
3, 70438, Note_on_c, 1, 59, 70
3, 70439, Note_on_c, 1, 65, 70
3, 70546, Note_on_c, 1, 59, 0
3, 70550, Note_on_c, 1, 60, 52
3, 70675, Note_on_c, 1, 64, 58
3, 70676, Note_on_c, 1, 65, 0
3, 70768, Note_on_c, 1, 64, 0
3, 70773, Note_on_c, 1, 62, 58
3, 70795, Note_on_c, 1, 64, 62
3, 70798, Note_on_c, 1, 62, 0
3, 70923, Note_on_c, 1, 60, 0
3, 70926, Note_on_c, 1, 64, 0
3, 71057, Note_on_c, 1, 57, 75
3, 71166, Note_on_c, 1, 57, 0
3, 71167, Note_on_c, 1, 60, 66
3, 71278, Note_on_c, 1, 60, 0
3, 71279, Note_on_c, 1, 53, 54
3, 71403, Note_on_c, 1, 60, 62
3, 71407, Note_on_c, 1, 53, 0
3, 71524, Note_on_c, 1, 58, 66
3, 71530, Note_on_c, 1, 60, 0
3, 71646, Note_on_c, 1, 60, 62
3, 71651, Note_on_c, 1, 58, 0
3, 71766, Note_on_c, 1, 57, 70
3, 71769, Note_on_c, 1, 60, 0
3, 71890, Note_on_c, 1, 60, 70
3, 71891, Note_on_c, 1, 57, 0
3, 72005, Note_on_c, 1, 58, 66
3, 72010, Note_on_c, 1, 60, 0
3, 72124, Note_on_c, 1, 60, 70
3, 72128, Note_on_c, 1, 58, 0
3, 72240, Note_on_c, 1, 57, 79
3, 72241, Note_on_c, 1, 60, 0
3, 72355, Note_on_c, 1, 57, 0
3, 72366, Note_on_c, 1, 60, 62
3, 72367, Note_on_c, 1, 53, 66
3, 72467, Note_on_c, 1, 60, 0
3, 72471, Note_on_c, 1, 53, 0
3, 72483, Note_on_c, 1, 60, 58
3, 72483, Note_on_c, 1, 55, 62
3, 72606, Note_on_c, 1, 55, 0
3, 72608, Note_on_c, 1, 52, 66
3, 72718, Note_on_c, 1, 52, 0
3, 72721, Note_on_c, 1, 53, 66
3, 72828, Note_on_c, 1, 53, 0
3, 72832, Note_on_c, 1, 60, 0
3, 72842, Note_on_c, 1, 53, 70
3, 72843, Note_on_c, 1, 50, 70
3, 72938, Note_on_c, 1, 50, 0
3, 72949, Note_on_c, 1, 53, 0
3, 72962, Note_on_c, 1, 55, 62
3, 72964, Note_on_c, 1, 50, 62
3, 72965, Note_on_c, 1, 46, 54
3, 73106, Note_on_c, 1, 50, 0
3, 73108, Note_on_c, 1, 55, 0
3, 73109, Note_on_c, 1, 46, 0
3, 73382, Note_on_c, 1, 60, 70
3, 73384, Note_on_c, 1, 70, 79
3, 73405, Note_on_c, 1, 70, 0
3, 73407, Note_on_c, 1, 60, 0
3, 73447, Note_on_c, 1, 65, 70
3, 73448, Note_on_c, 1, 70, 79
3, 73676, Note_on_c, 1, 69, 66
3, 73678, Note_on_c, 1, 70, 0
3, 73797, Note_on_c, 1, 69, 0
3, 73798, Note_on_c, 1, 65, 0
3, 73926, Note_on_c, 1, 50, 66
3, 74044, Note_on_c, 1, 50, 0
3, 74044, Note_on_c, 1, 53, 52
3, 74158, Note_on_c, 1, 48, 62
3, 74161, Note_on_c, 1, 53, 0
3, 74281, Note_on_c, 1, 48, 0
3, 74281, Note_on_c, 1, 53, 70
3, 74404, Note_on_c, 1, 48, 70
3, 74405, Note_on_c, 1, 53, 0
3, 74405, Note_on_c, 1, 46, 66
3, 74526, Note_on_c, 1, 55, 62
3, 74610, Note_on_c, 1, 48, 0
3, 74626, Note_on_c, 1, 46, 0
3, 74628, Note_on_c, 1, 55, 0
3, 74648, Note_on_c, 1, 45, 62
3, 74650, Note_on_c, 1, 48, 75
3, 74763, Note_on_c, 1, 53, 66
3, 74765, Note_on_c, 1, 48, 0
3, 74877, Note_on_c, 1, 53, 0
3, 74877, Note_on_c, 1, 45, 0
3, 74877, Note_on_c, 1, 62, 70
3, 74882, Note_on_c, 1, 62, 79
3, 74999, Note_on_c, 1, 62, 0
3, 75000, Note_on_c, 1, 62, 0
3, 75001, Note_on_c, 1, 65, 70
3, 75122, Note_on_c, 1, 65, 0
3, 75122, Note_on_c, 1, 60, 66
3, 75243, Note_on_c, 1, 60, 0
3, 75243, Note_on_c, 1, 65, 75
3, 75361, Note_on_c, 1, 58, 66
3, 75361, Note_on_c, 1, 60, 70
3, 75362, Note_on_c, 1, 65, 0
3, 75486, Note_on_c, 1, 67, 79
3, 75487, Note_on_c, 1, 60, 0
3, 75600, Note_on_c, 1, 67, 0
3, 75600, Note_on_c, 1, 60, 66
3, 75601, Note_on_c, 1, 58, 0
3, 75601, Note_on_c, 1, 57, 66
3, 75720, Note_on_c, 1, 65, 70
3, 75721, Note_on_c, 1, 60, 0
3, 75832, Note_on_c, 1, 57, 0
3, 75833, Note_on_c, 1, 65, 0
3, 75962, Note_on_c, 1, 65, 66
3, 75962, Note_on_c, 1, 62, 62
3, 76067, Note_on_c, 1, 62, 0
3, 76070, Note_on_c, 1, 65, 0
3, 76088, Note_on_c, 1, 65, 79
3, 76090, Note_on_c, 1, 62, 79
3, 76205, Note_on_c, 1, 65, 0
3, 76206, Note_on_c, 1, 62, 0
3, 76207, Note_on_c, 1, 64, 52
3, 76209, Note_on_c, 1, 60, 49
3, 76302, Note_on_c, 1, 64, 0
3, 76312, Note_on_c, 1, 60, 0
3, 76443, Note_on_c, 1, 52, 54
3, 76444, Note_on_c, 1, 60, 66
3, 76444, Note_on_c, 1, 58, 66
3, 76539, Note_on_c, 1, 58, 0
3, 76539, Note_on_c, 1, 60, 0
3, 76541, Note_on_c, 1, 52, 0
3, 76565, Note_on_c, 1, 60, 79
3, 76565, Note_on_c, 1, 58, 88
3, 76568, Note_on_c, 1, 52, 70
3, 76685, Note_on_c, 1, 58, 0
3, 76688, Note_on_c, 1, 52, 0
3, 76688, Note_on_c, 1, 57, 62
3, 76689, Note_on_c, 1, 53, 54
3, 76769, Note_on_c, 1, 53, 0
3, 76771, Note_on_c, 1, 60, 0
3, 76773, Note_on_c, 1, 57, 0
3, 76800, Note_on_c, 1, 53, 83
3, 76800, Note_on_c, 1, 58, 66
3, 76800, Note_on_c, 1, 50, 83
3, 77038, Note_on_c, 1, 58, 0
3, 77041, Note_on_c, 1, 50, 0
3, 77041, Note_on_c, 1, 48, 62
3, 77041, Note_on_c, 1, 57, 66
3, 77165, Note_on_c, 1, 52, 79
3, 77166, Note_on_c, 1, 57, 0
3, 77167, Note_on_c, 1, 53, 0
3, 77281, Note_on_c, 1, 48, 0
3, 77283, Note_on_c, 1, 53, 75
3, 77284, Note_on_c, 1, 52, 0
3, 77403, Note_on_c, 1, 53, 0
3, 77403, Note_on_c, 1, 48, 70
3, 77522, Note_on_c, 1, 41, 66
3, 77523, Note_on_c, 1, 48, 0
3, 77640, Note_on_c, 1, 41, 0
3, 77883, Note_on_c, 1, 74, 66
3, 77883, Note_on_c, 1, 67, 70
3, 77883, Note_on_c, 1, 77, 70
3, 77973, Note_on_c, 1, 67, 0
3, 77975, Note_on_c, 1, 74, 0
3, 77976, Note_on_c, 1, 77, 0
3, 78006, Note_on_c, 1, 74, 83
3, 78006, Note_on_c, 1, 67, 66
3, 78007, Note_on_c, 1, 77, 75
3, 78121, Note_on_c, 1, 74, 0
3, 78122, Note_on_c, 1, 67, 0
3, 78122, Note_on_c, 1, 76, 62
3, 78122, Note_on_c, 1, 72, 66
3, 78124, Note_on_c, 1, 77, 0
3, 78196, Note_on_c, 1, 72, 0
3, 78196, Note_on_c, 1, 76, 0
3, 78360, Note_on_c, 1, 64, 83
3, 78360, Note_on_c, 1, 70, 75
3, 78360, Note_on_c, 1, 60, 83
3, 78464, Note_on_c, 1, 60, 0
3, 78467, Note_on_c, 1, 64, 0
3, 78468, Note_on_c, 1, 70, 0
3, 78486, Note_on_c, 1, 70, 66
3, 78487, Note_on_c, 1, 60, 70
3, 78488, Note_on_c, 1, 64, 79
3, 78590, Note_on_c, 1, 64, 0
3, 78597, Note_on_c, 1, 70, 0
3, 78599, Note_on_c, 1, 60, 0
3, 78603, Note_on_c, 1, 69, 79
3, 78605, Note_on_c, 1, 65, 70
3, 78694, Note_on_c, 1, 65, 0
3, 78695, Note_on_c, 1, 69, 0
3, 78844, Note_on_c, 1, 67, 83
3, 78845, Note_on_c, 1, 58, 66
3, 78947, Note_on_c, 1, 58, 0
3, 78953, Note_on_c, 1, 67, 0
3, 78968, Note_on_c, 1, 69, 83
3, 78968, Note_on_c, 1, 60, 83
3, 79072, Note_on_c, 1, 69, 0
3, 79086, Note_on_c, 1, 70, 75
3, 79184, Note_on_c, 1, 60, 0
3, 79189, Note_on_c, 1, 70, 0
3, 79200, Note_on_c, 1, 62, 83
3, 79200, Note_on_c, 1, 67, 83
3, 79200, Note_on_c, 1, 71, 83
3, 79201, Note_on_c, 1, 65, 83
3, 79601, Note_on_c, 1, 71, 0
3, 79602, Note_on_c, 1, 65, 0
3, 79602, Note_on_c, 1, 67, 0
3, 79605, Note_on_c, 1, 62, 0
3, 79691, Note_on_c, 1, 58, 70
3, 79692, Note_on_c, 1, 55, 83
3, 79692, Note_on_c, 1, 60, 83
3, 79692, Note_on_c, 1, 52, 83
3, 80057, Note_on_c, 1, 60, 0
3, 80057, Note_on_c, 1, 55, 0
3, 80060, Note_on_c, 1, 58, 0
3, 80066, Note_on_c, 1, 52, 0
3, 80158, Note_on_c, 1, 45, 66
3, 80247, Note_on_c, 1, 45, 0
3, 80401, Note_on_c, 1, 46, 83
3, 80485, Note_on_c, 1, 46, 0
3, 80643, Note_on_c, 1, 60, 79
3, 80770, Note_on_c, 1, 69, 75
3, 80892, Note_on_c, 1, 70, 79
3, 80895, Note_on_c, 1, 69, 0
3, 81010, Note_on_c, 1, 60, 0
3, 81011, Note_on_c, 1, 61, 66
3, 81106, Note_on_c, 1, 61, 0
3, 81117, Note_on_c, 1, 70, 0
3, 81130, Note_on_c, 1, 71, 79
3, 81131, Note_on_c, 1, 67, 79
3, 81131, Note_on_c, 1, 62, 62
3, 81132, Note_on_c, 1, 65, 66
3, 81488, Note_on_c, 1, 65, 0
3, 81488, Note_on_c, 1, 62, 0
3, 81490, Note_on_c, 1, 67, 0
3, 81494, Note_on_c, 1, 71, 0
3, 81601, Note_on_c, 1, 58, 66
3, 81601, Note_on_c, 1, 55, 66
3, 81601, Note_on_c, 1, 52, 83
3, 81602, Note_on_c, 1, 60, 79
3, 82050, Note_on_c, 1, 60, 0
3, 82051, Note_on_c, 1, 58, 0
3, 82051, Note_on_c, 1, 55, 0
3, 82055, Note_on_c, 1, 52, 0
3, 82080, Note_on_c, 1, 51, 83
3, 82110, Note_on_c, 1, 50, 58
3, 82114, Note_on_c, 1, 51, 0
3, 82139, Note_on_c, 1, 50, 0
3, 82144, Note_on_c, 1, 53, 79
3, 82173, Note_on_c, 1, 51, 54
3, 82178, Note_on_c, 1, 53, 0
3, 82197, Note_on_c, 1, 51, 0
3, 82203, Note_on_c, 1, 55, 79
3, 82231, Note_on_c, 1, 55, 0
3, 82233, Note_on_c, 1, 53, 62
3, 82262, Note_on_c, 1, 51, 62
3, 82269, Note_on_c, 1, 53, 0
3, 82290, Note_on_c, 1, 50, 75
3, 82299, Note_on_c, 1, 51, 0
3, 82318, Note_on_c, 1, 50, 0
3, 82320, Note_on_c, 1, 48, 62
3, 82349, Note_on_c, 1, 46, 75
3, 82350, Note_on_c, 1, 48, 0
3, 82376, Note_on_c, 1, 45, 54
3, 82381, Note_on_c, 1, 46, 0
3, 82408, Note_on_c, 1, 45, 0
3, 82408, Note_on_c, 1, 43, 62
3, 82431, Note_on_c, 1, 43, 0
3, 82439, Note_on_c, 1, 41, 50
3, 82469, Note_on_c, 1, 40, 52
3, 82471, Note_on_c, 1, 41, 0
3, 82495, Note_on_c, 1, 40, 0
3, 82499, Note_on_c, 1, 41, 66
3, 82530, Note_on_c, 1, 39, 36
3, 82533, Note_on_c, 1, 41, 0
3, 82552, Note_on_c, 1, 39, 0
3, 82560, Note_on_c, 1, 38, 75
3, 82674, Note_on_c, 1, 38, 0
3, 83034, Note_on_c, 1, 49, 83
3, 83034, Note_on_c, 1, 53, 75
3, 83035, Note_on_c, 1, 59, 92
3, 83036, Note_on_c, 1, 55, 92
3, 83044, Note_on_c, 1, 49, 83
3, 83045, Note_on_c, 1, 53, 83
3, 83046, Note_on_c, 1, 59, 88
3, 83166, Note_on_c, 1, 59, 0
3, 83166, Note_on_c, 1, 49, 0
3, 83167, Note_on_c, 1, 55, 0
3, 83167, Note_on_c, 1, 53, 0
3, 83189, Note_on_c, 1, 59, 0
3, 83190, Note_on_c, 1, 53, 0
3, 83191, Note_on_c, 1, 49, 0
3, 83520, Note_on_c, 1, 36, 79
3, 83759, Note_on_c, 1, 41, 70
3, 83761, Note_on_c, 1, 48, 79
3, 83762, Note_on_c, 1, 36, 0
3, 83994, Note_on_c, 1, 55, 66
3, 83997, Note_on_c, 1, 48, 0
3, 84055, Note_on_c, 1, 40, 66
3, 84058, Note_on_c, 1, 41, 0
3, 84083, Note_on_c, 1, 40, 0
3, 84118, Note_on_c, 1, 40, 66
3, 84176, Note_on_c, 1, 40, 0
3, 84178, Note_on_c, 1, 36, 66
3, 84241, Note_on_c, 1, 36, 0
3, 84242, Note_on_c, 1, 45, 70
3, 84298, Note_on_c, 1, 55, 0
3, 84300, Note_on_c, 1, 53, 62
3, 84340, Note_on_c, 1, 53, 0
3, 84365, Note_on_c, 1, 53, 66
3, 84421, Note_on_c, 1, 53, 0
3, 84424, Note_on_c, 1, 48, 62
3, 84479, Note_on_c, 1, 48, 0
3, 84479, Note_on_c, 1, 58, 75
3, 84542, Note_on_c, 1, 43, 75
3, 84543, Note_on_c, 1, 45, 0
3, 84568, Note_on_c, 1, 43, 0
3, 84601, Note_on_c, 1, 43, 62
3, 84656, Note_on_c, 1, 36, 66
3, 84659, Note_on_c, 1, 43, 0
3, 84717, Note_on_c, 1, 36, 0
3, 84721, Note_on_c, 1, 41, 62
3, 84781, Note_on_c, 1, 57, 75
3, 84783, Note_on_c, 1, 58, 0
3, 84814, Note_on_c, 1, 57, 0
3, 84834, Note_on_c, 1, 40, 70
3, 84835, Note_on_c, 1, 41, 0
3, 84839, Note_on_c, 1, 57, 83
3, 84896, Note_on_c, 1, 55, 75
3, 84898, Note_on_c, 1, 57, 0
3, 84952, Note_on_c, 1, 55, 0
3, 84957, Note_on_c, 1, 57, 75
3, 85015, Note_on_c, 1, 40, 0
3, 85016, Note_on_c, 1, 38, 79
3, 85048, Note_on_c, 1, 38, 0
3, 85062, Note_on_c, 1, 57, 0
3, 85072, Note_on_c, 1, 38, 70
3, 85072, Note_on_c, 1, 59, 79
3, 85128, Note_on_c, 1, 38, 0
3, 85130, Note_on_c, 1, 43, 66
3, 85193, Note_on_c, 1, 43, 0
3, 85194, Note_on_c, 1, 60, 75
3, 85195, Note_on_c, 1, 36, 66
3, 85197, Note_on_c, 1, 59, 0
3, 85316, Note_on_c, 1, 36, 0
3, 85318, Note_on_c, 1, 48, 79
3, 85429, Note_on_c, 1, 60, 0
3, 85432, Note_on_c, 1, 48, 0
3, 85440, Note_on_c, 1, 53, 66
3, 85440, Note_on_c, 1, 60, 79
3, 85676, Note_on_c, 1, 58, 70
3, 85677, Note_on_c, 1, 46, 75
3, 85679, Note_on_c, 1, 53, 0
3, 85680, Note_on_c, 1, 60, 0
3, 85796, Note_on_c, 1, 46, 0
3, 85798, Note_on_c, 1, 58, 0
3, 85798, Note_on_c, 1, 53, 70
3, 85799, Note_on_c, 1, 57, 79
3, 85919, Note_on_c, 1, 53, 0
3, 85919, Note_on_c, 1, 58, 75
3, 85920, Note_on_c, 1, 57, 0
3, 85920, Note_on_c, 1, 55, 70
3, 86148, Note_on_c, 1, 55, 0
3, 86150, Note_on_c, 1, 58, 0
3, 86151, Note_on_c, 1, 53, 66
3, 86152, Note_on_c, 1, 60, 66
3, 86266, Note_on_c, 1, 60, 0
3, 86276, Note_on_c, 1, 64, 79
3, 86278, Note_on_c, 1, 60, 70
3, 86287, Note_on_c, 1, 53, 0
3, 86397, Note_on_c, 1, 60, 0
3, 86397, Note_on_c, 1, 64, 0
3, 86398, Note_on_c, 1, 62, 79
3, 86400, Note_on_c, 1, 55, 66
3, 86636, Note_on_c, 1, 55, 0
3, 86636, Note_on_c, 1, 62, 0
3, 86637, Note_on_c, 1, 60, 75
3, 86639, Note_on_c, 1, 72, 79
3, 86870, Note_on_c, 1, 60, 0
3, 86879, Note_on_c, 1, 60, 75
3, 86942, Note_on_c, 1, 70, 75
3, 86951, Note_on_c, 1, 72, 0
3, 86981, Note_on_c, 1, 70, 0
3, 87003, Note_on_c, 1, 70, 66
3, 87063, Note_on_c, 1, 70, 0
3, 87063, Note_on_c, 1, 68, 75
3, 87109, Note_on_c, 1, 60, 0
3, 87118, Note_on_c, 1, 68, 0
3, 87123, Note_on_c, 1, 69, 75
3, 87125, Note_on_c, 1, 60, 66
3, 87409, Note_on_c, 1, 69, 0
3, 87410, Note_on_c, 1, 67, 79
3, 87456, Note_on_c, 1, 67, 0
3, 87474, Note_on_c, 1, 67, 83
3, 87536, Note_on_c, 1, 67, 0
3, 87536, Note_on_c, 1, 64, 79
3, 87581, Note_on_c, 1, 60, 0
3, 87592, Note_on_c, 1, 64, 0
3, 87597, Note_on_c, 1, 60, 70
3, 87598, Note_on_c, 1, 65, 83
3, 87773, Note_on_c, 1, 65, 0
3, 87775, Note_on_c, 1, 69, 79
3, 87825, Note_on_c, 1, 69, 0
3, 87825, Note_on_c, 1, 60, 0
3, 87836, Note_on_c, 1, 60, 62
3, 87839, Note_on_c, 1, 70, 83
3, 87900, Note_on_c, 1, 69, 75
3, 87901, Note_on_c, 1, 70, 0
3, 87962, Note_on_c, 1, 70, 66
3, 87965, Note_on_c, 1, 69, 0
3, 87965, Note_on_c, 1, 60, 0
3, 88008, Note_on_c, 1, 70, 0
3, 88079, Note_on_c, 1, 60, 70
3, 88079, Note_on_c, 1, 69, 83
3, 88136, Note_on_c, 1, 68, 62
3, 88137, Note_on_c, 1, 69, 0
3, 88198, Note_on_c, 1, 68, 0
3, 88199, Note_on_c, 1, 69, 70
3, 88202, Note_on_c, 1, 60, 0
3, 88233, Note_on_c, 1, 69, 0
3, 88312, Note_on_c, 1, 60, 58
3, 88313, Note_on_c, 1, 70, 83
3, 88377, Note_on_c, 1, 69, 75
3, 88379, Note_on_c, 1, 70, 0
3, 88438, Note_on_c, 1, 70, 70
3, 88441, Note_on_c, 1, 69, 0
3, 88446, Note_on_c, 1, 60, 0
3, 88474, Note_on_c, 1, 70, 0
3, 88559, Note_on_c, 1, 69, 79
3, 88559, Note_on_c, 1, 60, 66
3, 88619, Note_on_c, 1, 68, 62
3, 88623, Note_on_c, 1, 69, 0
3, 88679, Note_on_c, 1, 68, 0
3, 88680, Note_on_c, 1, 69, 66
3, 88686, Note_on_c, 1, 60, 0
3, 88717, Note_on_c, 1, 69, 0
3, 88796, Note_on_c, 1, 70, 92
3, 88798, Note_on_c, 1, 60, 66
3, 88909, Note_on_c, 1, 70, 0
3, 88915, Note_on_c, 1, 60, 0
3, 89040, Note_on_c, 1, 69, 83
3, 89041, Note_on_c, 1, 60, 70
3, 89160, Note_on_c, 1, 69, 0
3, 89165, Note_on_c, 1, 60, 0
3, 89281, Note_on_c, 1, 68, 92
3, 89282, Note_on_c, 1, 65, 103
3, 89282, Note_on_c, 1, 60, 79
3, 89282, Note_on_c, 1, 62, 83
3, 90210, Note_on_c, 1, 65, 0
3, 90213, Note_on_c, 1, 62, 0
3, 90213, Note_on_c, 1, 60, 0
3, 90215, Note_on_c, 1, 68, 0
3, 90243, Note_on_c, 1, 65, 79
3, 90243, Note_on_c, 1, 69, 79
3, 90244, Note_on_c, 1, 60, 66
3, 90718, Note_on_c, 1, 65, 0
3, 90721, Note_on_c, 1, 69, 0
3, 90724, Note_on_c, 1, 60, 0
3, 91922, Note_on_c, 1, 70, 70
3, 91923, Note_on_c, 1, 64, 83
3, 91924, Note_on_c, 1, 60, 75
3, 92139, Note_on_c, 1, 64, 0
3, 92147, Note_on_c, 1, 60, 0
3, 92149, Note_on_c, 1, 70, 0
3, 92156, Note_on_c, 1, 65, 70
3, 92158, Note_on_c, 1, 69, 83
3, 92284, Note_on_c, 1, 65, 0
3, 92284, Note_on_c, 1, 60, 58
3, 92408, Note_on_c, 1, 60, 0
3, 92408, Note_on_c, 1, 65, 62
3, 92534, Note_on_c, 1, 60, 66
3, 92537, Note_on_c, 1, 65, 0
3, 92648, Note_on_c, 1, 64, 52
3, 92649, Note_on_c, 1, 60, 0
3, 92653, Note_on_c, 1, 70, 79
3, 92654, Note_on_c, 1, 69, 0
3, 92763, Note_on_c, 1, 64, 0
3, 92763, Note_on_c, 1, 60, 54
3, 92887, Note_on_c, 1, 64, 66
3, 92889, Note_on_c, 1, 60, 0
3, 93002, Note_on_c, 1, 60, 62
3, 93004, Note_on_c, 1, 64, 0
3, 93119, Note_on_c, 1, 60, 0
3, 93121, Note_on_c, 1, 65, 52
3, 93121, Note_on_c, 1, 69, 79
3, 93125, Note_on_c, 1, 70, 0
3, 93244, Note_on_c, 1, 60, 66
3, 93245, Note_on_c, 1, 65, 0
3, 93358, Note_on_c, 1, 60, 0
3, 93358, Note_on_c, 1, 65, 58
3, 93481, Note_on_c, 1, 60, 70
3, 93484, Note_on_c, 1, 65, 0
3, 93601, Note_on_c, 1, 64, 66
3, 93602, Note_on_c, 1, 70, 79
3, 93603, Note_on_c, 1, 60, 0
3, 93607, Note_on_c, 1, 69, 0
3, 93722, Note_on_c, 1, 60, 62
3, 93725, Note_on_c, 1, 64, 0
3, 93843, Note_on_c, 1, 64, 62
3, 93845, Note_on_c, 1, 60, 0
3, 93949, Note_on_c, 1, 60, 58
3, 93952, Note_on_c, 1, 64, 0
3, 94079, Note_on_c, 1, 60, 0
3, 94081, Note_on_c, 1, 65, 62
3, 94081, Note_on_c, 1, 69, 83
3, 94084, Note_on_c, 1, 70, 0
3, 94192, Note_on_c, 1, 69, 0
3, 94197, Note_on_c, 1, 65, 0
3, 94319, Note_on_c, 1, 53, 62
3, 94320, Note_on_c, 1, 57, 66
3, 94406, Note_on_c, 1, 57, 0
3, 94408, Note_on_c, 1, 53, 0
3, 94570, Note_on_c, 1, 45, 66
3, 94572, Note_on_c, 1, 41, 75
3, 94647, Note_on_c, 1, 45, 0
3, 94650, Note_on_c, 1, 41, 0
3, 95043, Note_on_c, 1, 41, 58
3, 95102, Note_on_c, 1, 43, 62
3, 95105, Note_on_c, 1, 41, 0
3, 95162, Note_on_c, 1, 45, 66
3, 95163, Note_on_c, 1, 43, 0
3, 95223, Note_on_c, 1, 43, 62
3, 95224, Note_on_c, 1, 45, 0
3, 95279, Note_on_c, 1, 43, 0
3, 95283, Note_on_c, 1, 41, 50
3, 95347, Note_on_c, 1, 40, 62
3, 95352, Note_on_c, 1, 41, 0
3, 95407, Note_on_c, 1, 38, 58
3, 95408, Note_on_c, 1, 40, 0
3, 95466, Note_on_c, 1, 38, 0
3, 95467, Note_on_c, 1, 36, 50
3, 95528, Note_on_c, 1, 34, 62
3, 95533, Note_on_c, 1, 36, 0
3, 95584, Note_on_c, 1, 34, 0
3, 95584, Note_on_c, 1, 31, 62
3, 95640, Note_on_c, 1, 31, 0
3, 95641, Note_on_c, 1, 36, 58
3, 95702, Note_on_c, 1, 34, 47
3, 95709, Note_on_c, 1, 36, 0
3, 95766, Note_on_c, 1, 33, 54
3, 95769, Note_on_c, 1, 34, 0
3, 95823, Note_on_c, 1, 29, 58
3, 95826, Note_on_c, 1, 33, 0
3, 95882, Note_on_c, 1, 38, 58
3, 95887, Note_on_c, 1, 29, 0
3, 95944, Note_on_c, 1, 36, 54
3, 95948, Note_on_c, 1, 38, 0
3, 96002, Note_on_c, 1, 34, 47
3, 96006, Note_on_c, 1, 36, 0
3, 96061, Note_on_c, 1, 34, 0
3, 96061, Note_on_c, 1, 31, 70
3, 96119, Note_on_c, 1, 36, 52
3, 96121, Note_on_c, 1, 31, 0
3, 96175, Note_on_c, 1, 34, 41
3, 96178, Note_on_c, 1, 36, 0
3, 96239, Note_on_c, 1, 34, 0
3, 96241, Note_on_c, 1, 33, 50
3, 96301, Note_on_c, 1, 36, 58
3, 96306, Note_on_c, 1, 33, 0
3, 96361, Note_on_c, 1, 36, 0
3, 96364, Note_on_c, 1, 41, 33
3, 96419, Note_on_c, 1, 40, 70
3, 96420, Note_on_c, 1, 41, 0
3, 96479, Note_on_c, 1, 38, 54
3, 96480, Note_on_c, 1, 40, 0
3, 96535, Note_on_c, 1, 31, 50
3, 96540, Note_on_c, 1, 38, 0
3, 96586, Note_on_c, 1, 32, 39
3, 96595, Note_on_c, 1, 31, 0
3, 96599, Note_on_c, 1, 32, 0
3, 96602, Note_on_c, 1, 33, 47
3, 96657, Note_on_c, 1, 34, 50
3, 96660, Note_on_c, 1, 33, 0
3, 96713, Note_on_c, 1, 34, 0
3, 96715, Note_on_c, 1, 36, 66
3, 96774, Note_on_c, 1, 36, 0
3, 96775, Note_on_c, 1, 35, 66
3, 96838, Note_on_c, 1, 36, 66
3, 96839, Note_on_c, 1, 35, 0
3, 96898, Note_on_c, 1, 36, 0
3, 96899, Note_on_c, 1, 34, 47
3, 96959, Note_on_c, 1, 34, 0
3, 96960, Note_on_c, 1, 33, 46
3, 97026, Note_on_c, 1, 33, 0
3, 97031, Note_on_c, 1, 41, 66
3, 97087, Note_on_c, 1, 41, 0
3, 97090, Note_on_c, 1, 45, 62
3, 97144, Note_on_c, 1, 45, 0
3, 97144, Note_on_c, 1, 43, 70
3, 97194, Note_on_c, 1, 43, 0
3, 97198, Note_on_c, 1, 41, 54
3, 97259, Note_on_c, 1, 40, 70
3, 97262, Note_on_c, 1, 41, 0
3, 97318, Note_on_c, 1, 40, 0
3, 97320, Note_on_c, 1, 38, 50
3, 97381, Note_on_c, 1, 38, 0
3, 97384, Note_on_c, 1, 36, 62
3, 97442, Note_on_c, 1, 34, 17
3, 97445, Note_on_c, 1, 36, 0
3, 97499, Note_on_c, 1, 34, 0
3, 97499, Note_on_c, 1, 31, 66
3, 97556, Note_on_c, 1, 31, 0
3, 97558, Note_on_c, 1, 36, 50
3, 97616, Note_on_c, 1, 34, 49
3, 97623, Note_on_c, 1, 36, 0
3, 97680, Note_on_c, 1, 33, 52
3, 97683, Note_on_c, 1, 34, 0
3, 97737, Note_on_c, 1, 29, 70
3, 97740, Note_on_c, 1, 33, 0
3, 97796, Note_on_c, 1, 29, 0
3, 97800, Note_on_c, 1, 38, 54
3, 97855, Note_on_c, 1, 36, 62
3, 97860, Note_on_c, 1, 38, 0
3, 97916, Note_on_c, 1, 34, 52
3, 97919, Note_on_c, 1, 36, 0
3, 97975, Note_on_c, 1, 31, 62
3, 97980, Note_on_c, 1, 34, 0
3, 98038, Note_on_c, 1, 31, 0
3, 98039, Note_on_c, 1, 36, 58
3, 98098, Note_on_c, 1, 34, 46
3, 98102, Note_on_c, 1, 36, 0
3, 98160, Note_on_c, 1, 34, 0
3, 98160, Note_on_c, 1, 33, 49
3, 98221, Note_on_c, 1, 36, 62
3, 98226, Note_on_c, 1, 33, 0
3, 98280, Note_on_c, 1, 36, 0
3, 98282, Note_on_c, 1, 41, 58
3, 98339, Note_on_c, 1, 40, 66
3, 98343, Note_on_c, 1, 41, 0
3, 98396, Note_on_c, 1, 40, 0
3, 98399, Note_on_c, 1, 38, 52
3, 98462, Note_on_c, 1, 31, 66
3, 98466, Note_on_c, 1, 38, 0
3, 98519, Note_on_c, 1, 31, 0
3, 98520, Note_on_c, 1, 33, 66
3, 98578, Note_on_c, 1, 33, 0
3, 98578, Note_on_c, 1, 34, 54
3, 98640, Note_on_c, 1, 36, 66
3, 98641, Note_on_c, 1, 34, 0
3, 98746, Note_on_c, 1, 36, 0
3, 98761, Note_on_c, 1, 36, 70
3, 98872, Note_on_c, 1, 36, 0
3, 98876, Note_on_c, 1, 29, 70
3, 98876, Note_on_c, 1, 41, 52
3, 98997, Note_on_c, 1, 41, 0
3, 98999, Note_on_c, 1, 29, 0
3, 99232, Note_on_c, 1, 36, 66
3, 99233, Note_on_c, 1, 46, 75
3, 99347, Note_on_c, 1, 36, 0
3, 99354, Note_on_c, 1, 46, 0
3, 99359, Note_on_c, 1, 45, 62
3, 99360, Note_on_c, 1, 41, 62
3, 99464, Note_on_c, 1, 41, 0
3, 99471, Note_on_c, 1, 45, 0
3, 99712, Note_on_c, 1, 36, 70
3, 99712, Note_on_c, 1, 46, 58
3, 99819, Note_on_c, 1, 36, 0
3, 99826, Note_on_c, 1, 46, 0
3, 99952, Note_on_c, 1, 45, 66
3, 99952, Note_on_c, 1, 41, 66
3, 100043, Note_on_c, 1, 41, 0
3, 100043, Note_on_c, 1, 45, 0
3, 100194, Note_on_c, 1, 36, 66
3, 100194, Note_on_c, 1, 46, 62
3, 100256, Note_on_c, 1, 46, 0
3, 100258, Note_on_c, 1, 36, 0
3, 100320, Note_on_c, 1, 29, 70
3, 100321, Note_on_c, 1, 41, 50
3, 100695, Note_on_c, 1, 41, 0
3, 100696, Note_on_c, 1, 29, 0
3, 100800, Control_c, 1, 121, 0
3, 100800, End_track
4, 0, Start_track
4, 0, MIDI_port, 0
4, 0, Title_t, "Title: Sonata K. 533, 3rd Mov't."
4, 0, End_track
5, 0, Start_track
5, 0, MIDI_port, 0
5, 0, Title_t, "Composer: W. A. Mozart"
5, 0, End_track
6, 0, Start_track
6, 0, MIDI_port, 0
6, 0, Title_t, "Sequence: Faren Raborn, Copyright 1996"
6, 0, End_track
7, 0, Start_track
7, 0, MIDI_port, 0
7, 0, Title_t, "Email: raborn@dtx.net"
7, 0, End_track
0, 0, End_of_file
