0, 0, Header, 1, 3, 480
1, 0, Start_track
1, 0, Title_t, "nameless"
1, 0, SMPTE_offset, 0, 0, 0, 0, 0
1, 0, Tempo, 750000
1, 0, Time_signature, 2, 2, 24, 8
1, 0, Key_signature, 0, "major"
1, 66257, Tempo, 740741
1, 66325, Tempo, 779221
1, 66402, Tempo, 821918
1, 66480, Tempo, 869565
1, 66557, Tempo, 923077
1, 66566, Tempo, 923077
1, 67217, Tempo, 759494
1, 91217, Tempo, 740741
1, 91512, Tempo, 779221
1, 91844, Tempo, 821918
1, 92179, Tempo, 869565
1, 92514, Tempo, 923077
1, 92554, Tempo, 923077
1, 92991, Tempo, 740741
1, 162257, Tempo, 740741
1, 162501, Tempo, 779221
1, 162779, Tempo, 821918
1, 163057, Tempo, 869565
1, 163331, Tempo, 967742
1, 163609, Tempo, 1016949
1, 163887, Tempo, 1071429
1, 163920, Tempo, 1111111
1, 164177, Tempo, 821918
1, 164177, End_track
2, 0, Start_track
2, 0, Title_t, "Piano R.H."
2, 0, MIDI_port, 0
2, 0, Channel_prefix, 0
2, 0, Control_c, 0, 10, 64
2, 0, Control_c, 0, 0, 0
2, 5, Program_c, 0, 0
2, 10, Control_c, 0, 7, 127
2, 15, Control_c, 0, 10, 44
2, 20, Control_c, 0, 91, 76
2, 25, Control_c, 0, 93, 0
2, 30, Control_c, 0, 94, 0
2, 35, Control_c, 0, 5, 0
2, 40, Control_c, 0, 11, 127
2, 960, Control_c, 0, 101, 0
2, 965, Control_c, 0, 100, 0
2, 970, Control_c, 0, 6, 2
2, 975, Control_c, 0, 101, 127
2, 980, Control_c, 0, 100, 127
2, 1920, Note_on_c, 0, 76, 81
2, 2278, Note_off_c, 0, 76, 74
2, 2280, Note_on_c, 0, 77, 74
2, 2338, Note_off_c, 0, 77, 68
2, 2340, Note_on_c, 0, 79, 51
2, 2398, Note_off_c, 0, 79, 47
2, 2400, Note_on_c, 0, 72, 75
2, 2458, Note_off_c, 0, 72, 69
2, 2640, Note_on_c, 0, 71, 64
2, 2640, Note_on_c, 0, 74, 73
2, 2698, Note_off_c, 0, 74, 67
2, 2698, Note_off_c, 0, 71, 59
2, 2880, Note_on_c, 0, 74, 77
2, 2880, Note_on_c, 0, 71, 64
2, 3118, Note_off_c, 0, 71, 59
2, 3118, Note_off_c, 0, 74, 70
2, 3120, Note_on_c, 0, 72, 62
2, 3120, Note_on_c, 0, 77, 44
2, 3238, Note_off_c, 0, 77, 40
2, 3240, Note_on_c, 0, 76, 80
2, 3358, Note_off_c, 0, 72, 57
2, 3358, Note_off_c, 0, 76, 73
2, 3360, Note_on_c, 0, 74, 59
2, 3360, Note_on_c, 0, 71, 58
2, 3838, Note_off_c, 0, 71, 53
2, 3838, Note_off_c, 0, 74, 54
2, 3840, Note_on_c, 0, 76, 81
2, 4198, Note_off_c, 0, 76, 74
2, 4200, Note_on_c, 0, 77, 74
2, 4258, Note_off_c, 0, 77, 68
2, 4260, Note_on_c, 0, 79, 51
2, 4318, Note_off_c, 0, 79, 47
2, 4320, Note_on_c, 0, 72, 75
2, 4378, Note_off_c, 0, 72, 69
2, 4560, Note_on_c, 0, 74, 73
2, 4560, Note_on_c, 0, 71, 64
2, 4618, Note_off_c, 0, 71, 59
2, 4618, Note_off_c, 0, 74, 67
2, 4800, Note_on_c, 0, 74, 82
2, 4800, Note_on_c, 0, 77, 86
2, 5038, Note_off_c, 0, 77, 79
2, 5038, Note_off_c, 0, 74, 75
2, 5040, Note_on_c, 0, 76, 74
2, 5040, Note_on_c, 0, 72, 58
2, 5086, Note_off_c, 0, 72, 53
2, 5086, Note_off_c, 0, 76, 68
2, 5088, Note_on_c, 0, 77, 70
2, 5134, Note_off_c, 0, 77, 64
2, 5136, Note_on_c, 0, 76, 68
2, 5182, Note_off_c, 0, 76, 62
2, 5184, Note_on_c, 0, 77, 50
2, 5230, Note_off_c, 0, 77, 46
2, 5232, Note_on_c, 0, 76, 62
2, 5278, Note_off_c, 0, 76, 57
2, 5280, Note_on_c, 0, 71, 52
2, 5280, Note_on_c, 0, 74, 66
2, 5758, Note_off_c, 0, 74, 60
2, 5758, Note_off_c, 0, 71, 48
2, 5760, Note_on_c, 0, 77, 74
2, 6118, Note_off_c, 0, 77, 68
2, 6120, Note_on_c, 0, 79, 62
2, 6178, Note_off_c, 0, 79, 57
2, 6180, Note_on_c, 0, 77, 70
2, 6238, Note_off_c, 0, 77, 64
2, 6240, Note_on_c, 0, 76, 72
2, 6298, Note_off_c, 0, 76, 66
2, 6480, Note_on_c, 0, 76, 52
2, 6538, Note_off_c, 0, 76, 48
2, 6720, Note_on_c, 0, 81, 70
2, 7078, Note_off_c, 0, 81, 64
2, 7080, Note_on_c, 0, 83, 69
2, 7138, Note_off_c, 0, 83, 63
2, 7140, Note_on_c, 0, 84, 55
2, 7198, Note_off_c, 0, 84, 50
2, 7200, Note_on_c, 0, 79, 50
2, 7258, Note_off_c, 0, 79, 46
2, 7440, Note_on_c, 0, 79, 57
2, 7498, Note_off_c, 0, 79, 52
2, 7680, Note_on_c, 0, 79, 61
2, 7798, Note_off_c, 0, 79, 56
2, 7800, Note_on_c, 0, 77, 63
2, 7858, Note_off_c, 0, 77, 58
2, 7920, Note_on_c, 0, 77, 68
2, 8038, Note_off_c, 0, 77, 62
2, 8040, Note_on_c, 0, 74, 45
2, 8098, Note_off_c, 0, 74, 41
2, 8160, Note_on_c, 0, 77, 63
2, 8278, Note_off_c, 0, 77, 58
2, 8280, Note_on_c, 0, 76, 60
2, 8338, Note_off_c, 0, 76, 55
2, 8400, Note_on_c, 0, 76, 62
2, 8518, Note_off_c, 0, 76, 57
2, 8520, Note_on_c, 0, 72, 36
2, 8578, Note_off_c, 0, 72, 33
2, 8640, Note_on_c, 0, 73, 41
2, 8758, Note_off_c, 0, 73, 38
2, 8760, Note_on_c, 0, 74, 62
2, 8878, Note_off_c, 0, 74, 57
2, 8880, Note_on_c, 0, 76, 73
2, 8998, Note_off_c, 0, 76, 67
2, 9000, Note_on_c, 0, 74, 66
2, 9118, Note_off_c, 0, 74, 60
2, 9120, Note_on_c, 0, 72, 46
2, 9238, Note_off_c, 0, 72, 42
2, 9240, Note_on_c, 0, 71, 49
2, 9358, Note_off_c, 0, 71, 45
2, 9360, Note_on_c, 0, 69, 29
2, 9478, Note_off_c, 0, 69, 27
2, 9480, Note_on_c, 0, 67, 44
2, 9598, Note_off_c, 0, 67, 40
2, 9600, Note_on_c, 0, 76, 95
2, 9958, Note_off_c, 0, 76, 87
2, 9960, Note_on_c, 0, 77, 89
2, 10018, Note_off_c, 0, 77, 81
2, 10020, Note_on_c, 0, 79, 66
2, 10078, Note_off_c, 0, 79, 60
2, 10080, Note_on_c, 0, 72, 90
2, 10138, Note_off_c, 0, 72, 82
2, 10320, Note_on_c, 0, 74, 88
2, 10320, Note_on_c, 0, 71, 79
2, 10378, Note_off_c, 0, 71, 72
2, 10378, Note_off_c, 0, 74, 80
2, 10560, Note_on_c, 0, 71, 79
2, 10560, Note_on_c, 0, 74, 91
2, 10798, Note_off_c, 0, 74, 83
2, 10798, Note_off_c, 0, 71, 72
2, 10800, Note_on_c, 0, 77, 58
2, 10800, Note_on_c, 0, 72, 77
2, 10918, Note_off_c, 0, 77, 53
2, 10920, Note_on_c, 0, 76, 94
2, 11038, Note_off_c, 0, 72, 70
2, 11038, Note_off_c, 0, 76, 86
2, 11040, Note_on_c, 0, 71, 72
2, 11040, Note_on_c, 0, 74, 73
2, 11518, Note_off_c, 0, 74, 67
2, 11518, Note_off_c, 0, 71, 66
2, 11520, Note_on_c, 0, 76, 95
2, 11878, Note_off_c, 0, 76, 87
2, 11880, Note_on_c, 0, 77, 89
2, 11938, Note_off_c, 0, 77, 81
2, 11940, Note_on_c, 0, 79, 66
2, 11998, Note_off_c, 0, 79, 60
2, 12000, Note_on_c, 0, 72, 90
2, 12058, Note_off_c, 0, 72, 82
2, 12240, Note_on_c, 0, 71, 79
2, 12240, Note_on_c, 0, 74, 88
2, 12298, Note_off_c, 0, 74, 80
2, 12298, Note_off_c, 0, 71, 72
2, 12480, Note_on_c, 0, 77, 101
2, 12480, Note_on_c, 0, 74, 96
2, 12718, Note_off_c, 0, 74, 88
2, 12718, Note_off_c, 0, 77, 92
2, 12720, Note_on_c, 0, 72, 72
2, 12720, Note_on_c, 0, 76, 89
2, 12766, Note_off_c, 0, 76, 81
2, 12766, Note_off_c, 0, 72, 66
2, 12768, Note_on_c, 0, 77, 84
2, 12814, Note_off_c, 0, 77, 77
2, 12816, Note_on_c, 0, 76, 82
2, 12862, Note_off_c, 0, 76, 75
2, 12864, Note_on_c, 0, 77, 64
2, 12910, Note_off_c, 0, 77, 59
2, 12912, Note_on_c, 0, 76, 77
2, 12958, Note_off_c, 0, 76, 70
2, 12960, Note_on_c, 0, 74, 80
2, 12960, Note_on_c, 0, 71, 67
2, 13438, Note_off_c, 0, 71, 61
2, 13438, Note_off_c, 0, 74, 73
2, 13440, Note_on_c, 0, 77, 91
2, 13798, Note_off_c, 0, 77, 83
2, 13800, Note_on_c, 0, 79, 79
2, 13858, Note_off_c, 0, 79, 72
2, 13860, Note_on_c, 0, 77, 86
2, 13918, Note_off_c, 0, 77, 79
2, 13920, Note_on_c, 0, 76, 89
2, 13978, Note_off_c, 0, 76, 81
2, 14160, Note_on_c, 0, 76, 69
2, 14218, Note_off_c, 0, 76, 63
2, 14400, Note_on_c, 0, 81, 86
2, 14758, Note_off_c, 0, 81, 79
2, 14760, Note_on_c, 0, 83, 85
2, 14818, Note_off_c, 0, 83, 78
2, 14820, Note_on_c, 0, 84, 71
2, 14878, Note_off_c, 0, 84, 65
2, 14880, Note_on_c, 0, 79, 67
2, 14938, Note_off_c, 0, 79, 61
2, 15120, Note_on_c, 0, 79, 73
2, 15178, Note_off_c, 0, 79, 67
2, 15360, Note_on_c, 0, 80, 75
2, 15478, Note_off_c, 0, 80, 69
2, 15480, Note_on_c, 0, 81, 86
2, 15598, Note_off_c, 0, 81, 79
2, 15600, Note_on_c, 0, 77, 73
2, 15718, Note_off_c, 0, 77, 67
2, 15720, Note_on_c, 0, 74, 74
2, 15838, Note_off_c, 0, 74, 68
2, 15840, Note_on_c, 0, 72, 72
2, 16078, Note_off_c, 0, 72, 66
2, 16080, Note_on_c, 0, 71, 60
2, 16318, Note_off_c, 0, 71, 55
2, 16320, Note_on_c, 0, 72, 60
2, 16398, Note_off_c, 0, 72, 55
2, 16400, Note_on_c, 0, 67, 74
2, 16478, Note_off_c, 0, 67, 68
2, 16480, Note_on_c, 0, 76, 70
2, 16558, Note_off_c, 0, 76, 64
2, 16560, Note_on_c, 0, 72, 68
2, 16638, Note_off_c, 0, 72, 62
2, 16640, Note_on_c, 0, 79, 86
2, 16718, Note_off_c, 0, 79, 79
2, 16720, Note_on_c, 0, 76, 86
2, 16798, Note_off_c, 0, 76, 79
2, 16800, Note_on_c, 0, 84, 95
2, 16878, Note_off_c, 0, 84, 87
2, 16880, Note_on_c, 0, 83, 74
2, 16958, Note_off_c, 0, 83, 68
2, 16960, Note_on_c, 0, 81, 57
2, 17038, Note_off_c, 0, 81, 52
2, 17040, Note_on_c, 0, 79, 56
2, 17118, Note_off_c, 0, 79, 51
2, 17120, Note_on_c, 0, 77, 41
2, 17198, Note_off_c, 0, 77, 38
2, 17200, Note_on_c, 0, 76, 26
2, 17278, Note_off_c, 0, 76, 24
2, 17280, Note_on_c, 0, 73, 61
2, 17358, Note_off_c, 0, 73, 56
2, 17360, Note_on_c, 0, 74, 72
2, 17438, Note_off_c, 0, 74, 66
2, 17440, Note_on_c, 0, 77, 63
2, 17518, Note_off_c, 0, 77, 58
2, 17520, Note_on_c, 0, 81, 83
2, 17598, Note_off_c, 0, 81, 76
2, 17600, Note_on_c, 0, 77, 38
2, 17678, Note_off_c, 0, 77, 35
2, 17680, Note_on_c, 0, 74, 56
2, 17758, Note_off_c, 0, 74, 51
2, 17760, Note_on_c, 0, 79, 73
2, 17838, Note_off_c, 0, 79, 67
2, 17840, Note_on_c, 0, 76, 56
2, 17918, Note_off_c, 0, 76, 51
2, 17920, Note_on_c, 0, 72, 57
2, 17998, Note_off_c, 0, 72, 52
2, 18000, Note_on_c, 0, 77, 73
2, 18078, Note_off_c, 0, 77, 67
2, 18080, Note_on_c, 0, 74, 29
2, 18158, Note_off_c, 0, 74, 27
2, 18160, Note_on_c, 0, 71, 49
2, 18238, Note_off_c, 0, 71, 45
2, 18240, Note_on_c, 0, 72, 57
2, 18318, Note_off_c, 0, 72, 52
2, 18320, Note_on_c, 0, 67, 60
2, 18398, Note_off_c, 0, 67, 55
2, 18400, Note_on_c, 0, 76, 67
2, 18478, Note_off_c, 0, 76, 61
2, 18480, Note_on_c, 0, 72, 70
2, 18558, Note_off_c, 0, 72, 64
2, 18560, Note_on_c, 0, 79, 73
2, 18638, Note_off_c, 0, 79, 67
2, 18640, Note_on_c, 0, 76, 83
2, 18718, Note_off_c, 0, 76, 76
2, 18720, Note_on_c, 0, 84, 92
2, 18798, Note_off_c, 0, 84, 84
2, 18800, Note_on_c, 0, 83, 73
2, 18878, Note_off_c, 0, 83, 67
2, 18880, Note_on_c, 0, 81, 62
2, 18958, Note_off_c, 0, 81, 57
2, 18960, Note_on_c, 0, 79, 63
2, 19038, Note_off_c, 0, 79, 58
2, 19040, Note_on_c, 0, 77, 61
2, 19118, Note_off_c, 0, 77, 56
2, 19120, Note_on_c, 0, 76, 70
2, 19198, Note_off_c, 0, 76, 64
2, 19200, Note_on_c, 0, 73, 70
2, 19278, Note_off_c, 0, 73, 64
2, 19280, Note_on_c, 0, 74, 36
2, 19358, Note_off_c, 0, 74, 33
2, 19360, Note_on_c, 0, 77, 69
2, 19438, Note_off_c, 0, 77, 63
2, 19440, Note_on_c, 0, 81, 80
2, 19518, Note_off_c, 0, 81, 73
2, 19520, Note_on_c, 0, 77, 61
2, 19598, Note_off_c, 0, 77, 56
2, 19600, Note_on_c, 0, 74, 61
2, 19678, Note_off_c, 0, 74, 56
2, 19680, Note_on_c, 0, 79, 74
2, 19758, Note_off_c, 0, 79, 68
2, 19760, Note_on_c, 0, 76, 68
2, 19838, Note_off_c, 0, 76, 62
2, 19840, Note_on_c, 0, 72, 61
2, 19918, Note_off_c, 0, 72, 56
2, 19920, Note_on_c, 0, 77, 73
2, 19998, Note_off_c, 0, 77, 67
2, 20000, Note_on_c, 0, 74, 68
2, 20078, Note_off_c, 0, 74, 62
2, 20080, Note_on_c, 0, 71, 62
2, 20158, Note_off_c, 0, 71, 57
2, 20160, Note_on_c, 0, 72, 83
2, 20238, Note_off_c, 0, 72, 76
2, 20400, Note_on_c, 0, 67, 71
2, 20478, Note_off_c, 0, 67, 65
2, 20640, Note_on_c, 0, 60, 52
2, 21118, Note_off_c, 0, 60, 48
2, 21120, Note_on_c, 0, 76, 74
2, 21646, Note_off_c, 0, 76, 68
2, 21648, Note_on_c, 0, 77, 55
2, 21694, Note_off_c, 0, 77, 50
2, 21696, Note_on_c, 0, 76, 62
2, 21742, Note_off_c, 0, 76, 57
2, 21744, Note_on_c, 0, 74, 66
2, 21790, Note_off_c, 0, 74, 60
2, 21792, Note_on_c, 0, 76, 69
2, 21838, Note_off_c, 0, 76, 63
2, 21840, Note_on_c, 0, 79, 68
2, 21958, Note_off_c, 0, 79, 62
2, 21960, Note_on_c, 0, 77, 63
2, 22078, Note_off_c, 0, 77, 58
2, 22080, Note_on_c, 0, 76, 69
2, 22198, Note_off_c, 0, 76, 63
2, 22200, Note_on_c, 0, 74, 75
2, 22318, Note_off_c, 0, 74, 69
2, 22320, Note_on_c, 0, 72, 86
2, 22438, Note_off_c, 0, 72, 79
2, 22440, Note_on_c, 0, 71, 63
2, 22558, Note_off_c, 0, 71, 58
2, 22560, Note_on_c, 0, 72, 73
2, 22678, Note_off_c, 0, 72, 67
2, 22800, Note_on_c, 0, 73, 67
2, 22918, Note_off_c, 0, 73, 61
2, 23040, Note_on_c, 0, 74, 86
2, 23158, Note_off_c, 0, 74, 79
2, 23280, Note_on_c, 0, 75, 74
2, 23518, Note_off_c, 0, 75, 68
2, 23520, Note_on_c, 0, 76, 86
2, 23758, Note_off_c, 0, 76, 79
2, 23760, Note_on_c, 0, 79, 70
2, 23878, Note_off_c, 0, 79, 64
2, 23880, Note_on_c, 0, 77, 63
2, 23998, Note_off_c, 0, 77, 58
2, 24000, Note_on_c, 0, 76, 72
2, 24358, Note_off_c, 0, 76, 66
2, 24360, Note_on_c, 0, 77, 46
2, 24418, Note_off_c, 0, 77, 42
2, 24420, Note_on_c, 0, 76, 61
2, 24478, Note_off_c, 0, 76, 56
2, 24480, Note_on_c, 0, 74, 68
2, 24598, Note_off_c, 0, 74, 62
2, 24960, Note_on_c, 0, 77, 78
2, 25486, Note_off_c, 0, 77, 71
2, 25488, Note_on_c, 0, 79, 60
2, 25534, Note_off_c, 0, 79, 55
2, 25536, Note_on_c, 0, 77, 67
2, 25582, Note_off_c, 0, 77, 61
2, 25584, Note_on_c, 0, 76, 51
2, 25630, Note_off_c, 0, 76, 47
2, 25632, Note_on_c, 0, 77, 63
2, 25678, Note_off_c, 0, 77, 58
2, 25680, Note_on_c, 0, 81, 66
2, 25798, Note_off_c, 0, 81, 60
2, 25800, Note_on_c, 0, 79, 62
2, 25918, Note_off_c, 0, 79, 57
2, 25920, Note_on_c, 0, 77, 60
2, 26038, Note_off_c, 0, 77, 55
2, 26040, Note_on_c, 0, 76, 63
2, 26158, Note_off_c, 0, 76, 58
2, 26160, Note_on_c, 0, 74, 60
2, 26278, Note_off_c, 0, 74, 55
2, 26280, Note_on_c, 0, 72, 60
2, 26398, Note_off_c, 0, 72, 55
2, 26400, Note_on_c, 0, 71, 63
2, 26518, Note_off_c, 0, 71, 58
2, 26520, Note_on_c, 0, 72, 49
2, 26590, Note_off_c, 0, 72, 45
2, 26640, Note_on_c, 0, 74, 69
2, 26710, Note_off_c, 0, 74, 63
2, 26760, Note_on_c, 0, 76, 61
2, 26830, Note_off_c, 0, 76, 56
2, 26880, Note_on_c, 0, 77, 68
2, 26950, Note_off_c, 0, 77, 62
2, 27000, Note_on_c, 0, 79, 86
2, 27070, Note_off_c, 0, 79, 79
2, 27120, Note_on_c, 0, 81, 95
2, 27190, Note_off_c, 0, 81, 87
2, 27240, Note_on_c, 0, 83, 72
2, 27310, Note_off_c, 0, 83, 66
2, 27360, Note_on_c, 0, 84, 86
2, 27430, Note_off_c, 0, 84, 79
2, 27480, Note_on_c, 0, 86, 78
2, 27550, Note_off_c, 0, 86, 71
2, 27600, Note_on_c, 0, 88, 73
2, 27670, Note_off_c, 0, 88, 67
2, 27720, Note_on_c, 0, 89, 74
2, 27790, Note_off_c, 0, 89, 68
2, 27840, Note_on_c, 0, 87, 73
2, 28318, Note_off_c, 0, 87, 67
2, 28320, Note_on_c, 0, 88, 60
2, 28558, Note_off_c, 0, 88, 55
2, 28800, Note_on_c, 0, 76, 80
2, 29118, Note_off_c, 0, 76, 73
2, 29120, Note_on_c, 0, 81, 73
2, 29198, Note_off_c, 0, 81, 67
2, 29200, Note_on_c, 0, 84, 75
2, 29278, Note_off_c, 0, 84, 69
2, 29280, Note_on_c, 0, 88, 80
2, 29358, Note_off_c, 0, 88, 73
2, 29360, Note_on_c, 0, 84, 40
2, 29438, Note_off_c, 0, 84, 37
2, 29440, Note_on_c, 0, 81, 60
2, 29518, Note_off_c, 0, 81, 55
2, 29520, Note_on_c, 0, 84, 70
2, 29598, Note_off_c, 0, 84, 64
2, 29600, Note_on_c, 0, 81, 46
2, 29678, Note_off_c, 0, 81, 42
2, 29680, Note_on_c, 0, 76, 60
2, 29758, Note_off_c, 0, 76, 55
2, 29760, Note_on_c, 0, 74, 80
2, 30078, Note_off_c, 0, 74, 73
2, 30080, Note_on_c, 0, 79, 60
2, 30158, Note_off_c, 0, 79, 55
2, 30160, Note_on_c, 0, 83, 55
2, 30238, Note_off_c, 0, 83, 50
2, 30240, Note_on_c, 0, 86, 62
2, 30318, Note_off_c, 0, 86, 57
2, 30320, Note_on_c, 0, 83, 51
2, 30398, Note_off_c, 0, 83, 47
2, 30400, Note_on_c, 0, 79, 57
2, 30478, Note_off_c, 0, 79, 52
2, 30480, Note_on_c, 0, 83, 62
2, 30558, Note_off_c, 0, 83, 57
2, 30560, Note_on_c, 0, 79, 44
2, 30638, Note_off_c, 0, 79, 40
2, 30640, Note_on_c, 0, 74, 60
2, 30718, Note_off_c, 0, 74, 55
2, 30800, Note_on_c, 0, 74, 61
2, 30878, Note_off_c, 0, 74, 56
2, 30880, Note_on_c, 0, 81, 68
2, 30958, Note_off_c, 0, 81, 62
2, 30960, Note_on_c, 0, 84, 70
2, 31038, Note_off_c, 0, 84, 64
2, 31040, Note_on_c, 0, 81, 55
2, 31118, Note_off_c, 0, 81, 50
2, 31120, Note_on_c, 0, 74, 36
2, 31198, Note_off_c, 0, 74, 33
2, 31280, Note_on_c, 0, 74, 24
2, 31358, Note_off_c, 0, 74, 22
2, 31360, Note_on_c, 0, 79, 57
2, 31438, Note_off_c, 0, 79, 52
2, 31440, Note_on_c, 0, 83, 50
2, 31518, Note_off_c, 0, 83, 46
2, 31520, Note_on_c, 0, 79, 49
2, 31598, Note_off_c, 0, 79, 45
2, 31600, Note_on_c, 0, 74, 51
2, 31678, Note_off_c, 0, 74, 47
2, 31680, Note_on_c, 0, 81, 80
2, 31858, Note_off_c, 0, 81, 73
2, 31860, Note_on_c, 0, 78, 59
2, 31918, Note_off_c, 0, 78, 54
2, 31920, Note_on_c, 0, 74, 46
2, 32158, Note_off_c, 0, 74, 42
2, 32560, Note_on_c, 0, 67, 46
2, 32640, Note_on_c, 0, 79, 70
2, 33118, Note_off_c, 0, 67, 42
2, 33238, Note_off_c, 0, 79, 64
2, 33240, Note_on_c, 0, 78, 60
2, 33358, Note_off_c, 0, 78, 55
2, 33360, Note_on_c, 0, 76, 58
2, 33478, Note_off_c, 0, 76, 53
2, 33480, Note_on_c, 0, 74, 44
2, 33598, Note_off_c, 0, 74, 40
2, 33600, Note_on_c, 0, 74, 67
2, 33718, Note_off_c, 0, 74, 61
2, 33720, Note_on_c, 0, 72, 69
2, 33838, Note_off_c, 0, 72, 63
2, 33840, Note_on_c, 0, 71, 67
2, 33958, Note_off_c, 0, 71, 61
2, 33960, Note_on_c, 0, 69, 60
2, 34078, Note_off_c, 0, 69, 55
2, 34080, Note_on_c, 0, 74, 70
2, 34198, Note_off_c, 0, 74, 64
2, 34320, Note_on_c, 0, 72, 60
2, 34438, Note_off_c, 0, 72, 55
2, 34560, Note_on_c, 0, 70, 70
2, 34798, Note_off_c, 0, 70, 64
2, 34800, Note_on_c, 0, 71, 68
2, 34918, Note_off_c, 0, 71, 62
2, 36400, Note_on_c, 0, 67, 46
2, 36480, Note_on_c, 0, 79, 70
2, 36958, Note_off_c, 0, 67, 42
2, 37078, Note_off_c, 0, 79, 64
2, 37080, Note_on_c, 0, 78, 60
2, 37198, Note_off_c, 0, 78, 55
2, 37200, Note_on_c, 0, 76, 58
2, 37318, Note_off_c, 0, 76, 53
2, 37320, Note_on_c, 0, 74, 44
2, 37438, Note_off_c, 0, 74, 40
2, 37440, Note_on_c, 0, 74, 67
2, 37558, Note_off_c, 0, 74, 61
2, 37560, Note_on_c, 0, 72, 69
2, 37678, Note_off_c, 0, 72, 63
2, 37680, Note_on_c, 0, 71, 67
2, 37798, Note_off_c, 0, 71, 61
2, 37800, Note_on_c, 0, 69, 60
2, 37918, Note_off_c, 0, 69, 55
2, 37920, Note_on_c, 0, 74, 70
2, 38038, Note_off_c, 0, 74, 64
2, 38160, Note_on_c, 0, 72, 60
2, 38278, Note_off_c, 0, 72, 55
2, 38400, Note_on_c, 0, 71, 70
2, 38638, Note_off_c, 0, 71, 64
2, 38760, Note_on_c, 0, 78, 73
2, 38798, Note_off_c, 0, 78, 67
2, 38800, Note_on_c, 0, 76, 68
2, 38838, Note_off_c, 0, 76, 62
2, 38840, Note_on_c, 0, 75, 72
2, 38878, Note_off_c, 0, 75, 66
2, 38880, Note_on_c, 0, 76, 80
2, 38998, Note_off_c, 0, 76, 73
2, 39000, Note_on_c, 0, 78, 72
2, 39118, Note_off_c, 0, 78, 66
2, 39120, Note_on_c, 0, 79, 81
2, 39178, Note_off_c, 0, 79, 74
2, 39240, Note_on_c, 0, 79, 85
2, 39298, Note_off_c, 0, 79, 78
2, 39360, Note_on_c, 0, 79, 79
2, 39720, Note_on_c, 0, 83, 77
2, 39758, Note_off_c, 0, 83, 70
2, 39760, Note_on_c, 0, 81, 73
2, 39798, Note_off_c, 0, 81, 67
2, 39800, Note_on_c, 0, 79, 81
2, 39838, Note_off_c, 0, 79, 72
2, 39838, Note_off_c, 0, 79, 74
2, 39840, Note_on_c, 0, 81, 72
2, 39958, Note_off_c, 0, 81, 66
2, 39960, Note_on_c, 0, 83, 81
2, 40078, Note_off_c, 0, 83, 74
2, 40080, Note_on_c, 0, 84, 85
2, 40138, Note_off_c, 0, 84, 78
2, 40200, Note_on_c, 0, 84, 86
2, 40258, Note_off_c, 0, 84, 79
2, 40320, Note_on_c, 0, 84, 84
2, 40680, Note_on_c, 0, 86, 81
2, 40718, Note_off_c, 0, 86, 74
2, 40720, Note_on_c, 0, 84, 63
2, 40758, Note_off_c, 0, 84, 58
2, 40760, Note_on_c, 0, 83, 61
2, 40798, Note_off_c, 0, 84, 77
2, 40798, Note_off_c, 0, 83, 56
2, 40800, Note_on_c, 0, 84, 81
2, 40918, Note_off_c, 0, 84, 74
2, 40920, Note_on_c, 0, 86, 86
2, 41038, Note_off_c, 0, 86, 79
2, 41040, Note_on_c, 0, 88, 85
2, 41098, Note_off_c, 0, 88, 78
2, 41160, Note_on_c, 0, 88, 83
2, 41218, Note_off_c, 0, 88, 76
2, 41280, Note_on_c, 0, 88, 84
2, 41398, Note_off_c, 0, 88, 77
2, 41400, Note_on_c, 0, 86, 81
2, 41518, Note_off_c, 0, 86, 74
2, 41520, Note_on_c, 0, 84, 79
2, 41578, Note_off_c, 0, 84, 72
2, 41640, Note_on_c, 0, 83, 81
2, 41698, Note_off_c, 0, 83, 74
2, 41760, Note_on_c, 0, 81, 81
2, 41878, Note_off_c, 0, 81, 74
2, 42000, Note_on_c, 0, 86, 84
2, 42118, Note_off_c, 0, 86, 77
2, 42240, Note_on_c, 0, 84, 81
2, 42478, Note_off_c, 0, 84, 74
2, 42480, Note_on_c, 0, 83, 71
2, 42550, Note_off_c, 0, 83, 65
2, 42600, Note_on_c, 0, 78, 73
2, 42638, Note_off_c, 0, 78, 67
2, 42640, Note_on_c, 0, 76, 68
2, 42678, Note_off_c, 0, 76, 62
2, 42680, Note_on_c, 0, 75, 72
2, 42718, Note_off_c, 0, 75, 66
2, 42720, Note_on_c, 0, 76, 80
2, 42838, Note_off_c, 0, 76, 73
2, 42840, Note_on_c, 0, 78, 72
2, 42958, Note_off_c, 0, 78, 66
2, 42960, Note_on_c, 0, 79, 81
2, 43018, Note_off_c, 0, 79, 74
2, 43080, Note_on_c, 0, 79, 85
2, 43138, Note_off_c, 0, 79, 78
2, 43200, Note_on_c, 0, 79, 79
2, 43560, Note_on_c, 0, 83, 77
2, 43598, Note_off_c, 0, 83, 70
2, 43600, Note_on_c, 0, 81, 73
2, 43638, Note_off_c, 0, 81, 67
2, 43640, Note_on_c, 0, 79, 81
2, 43678, Note_off_c, 0, 79, 72
2, 43678, Note_off_c, 0, 79, 74
2, 43680, Note_on_c, 0, 81, 72
2, 43798, Note_off_c, 0, 81, 66
2, 43800, Note_on_c, 0, 83, 81
2, 43918, Note_off_c, 0, 83, 74
2, 43920, Note_on_c, 0, 84, 85
2, 43978, Note_off_c, 0, 84, 78
2, 44040, Note_on_c, 0, 84, 86
2, 44098, Note_off_c, 0, 84, 79
2, 44160, Note_on_c, 0, 84, 84
2, 44520, Note_on_c, 0, 86, 81
2, 44558, Note_off_c, 0, 86, 74
2, 44560, Note_on_c, 0, 84, 63
2, 44598, Note_off_c, 0, 84, 58
2, 44600, Note_on_c, 0, 83, 61
2, 44638, Note_off_c, 0, 84, 77
2, 44638, Note_off_c, 0, 83, 56
2, 44640, Note_on_c, 0, 84, 81
2, 44758, Note_off_c, 0, 84, 74
2, 44760, Note_on_c, 0, 86, 86
2, 44878, Note_off_c, 0, 86, 79
2, 44880, Note_on_c, 0, 88, 85
2, 44938, Note_off_c, 0, 88, 78
2, 45000, Note_on_c, 0, 88, 83
2, 45058, Note_off_c, 0, 88, 76
2, 45120, Note_on_c, 0, 88, 84
2, 45238, Note_off_c, 0, 88, 77
2, 45240, Note_on_c, 0, 86, 81
2, 45358, Note_off_c, 0, 86, 74
2, 45360, Note_on_c, 0, 84, 79
2, 45418, Note_off_c, 0, 84, 72
2, 45480, Note_on_c, 0, 83, 81
2, 45538, Note_off_c, 0, 83, 74
2, 45600, Note_on_c, 0, 83, 85
2, 45718, Note_off_c, 0, 83, 78
2, 45720, Note_on_c, 0, 81, 78
2, 45838, Note_off_c, 0, 81, 71
2, 45840, Note_on_c, 0, 79, 81
2, 45898, Note_off_c, 0, 79, 74
2, 45960, Note_on_c, 0, 78, 67
2, 46018, Note_off_c, 0, 78, 61
2, 46080, Note_on_c, 0, 86, 80
2, 46398, Note_off_c, 0, 86, 73
2, 46400, Note_on_c, 0, 83, 61
2, 46478, Note_off_c, 0, 83, 56
2, 46480, Note_on_c, 0, 79, 57
2, 46558, Note_off_c, 0, 79, 52
2, 46560, Note_on_c, 0, 78, 72
2, 46638, Note_off_c, 0, 78, 66
2, 46640, Note_on_c, 0, 81, 51
2, 46718, Note_off_c, 0, 81, 47
2, 46720, Note_on_c, 0, 74, 12
2, 46798, Note_off_c, 0, 74, 11
2, 46800, Note_on_c, 0, 79, 63
2, 46878, Note_off_c, 0, 79, 58
2, 46880, Note_on_c, 0, 83, 40
2, 46958, Note_off_c, 0, 83, 37
2, 46960, Note_on_c, 0, 74, 46
2, 47038, Note_off_c, 0, 74, 42
2, 47040, Note_on_c, 0, 81, 63
2, 47358, Note_off_c, 0, 81, 58
2, 47360, Note_on_c, 0, 78, 29
2, 47438, Note_off_c, 0, 78, 27
2, 47440, Note_on_c, 0, 74, 58
2, 47518, Note_off_c, 0, 74, 53
2, 47520, Note_on_c, 0, 73, 57
2, 47598, Note_off_c, 0, 73, 52
2, 47600, Note_on_c, 0, 74, 56
2, 47678, Note_off_c, 0, 74, 51
2, 47680, Note_on_c, 0, 69, 24
2, 47758, Note_off_c, 0, 69, 22
2, 47760, Note_on_c, 0, 72, 62
2, 47838, Note_off_c, 0, 72, 57
2, 47840, Note_on_c, 0, 74, 58
2, 47918, Note_off_c, 0, 74, 53
2, 47920, Note_on_c, 0, 69, 56
2, 47998, Note_off_c, 0, 69, 51
2, 48000, Note_on_c, 0, 86, 79
2, 48318, Note_off_c, 0, 86, 72
2, 48320, Note_on_c, 0, 83, 61
2, 48398, Note_off_c, 0, 83, 56
2, 48400, Note_on_c, 0, 79, 56
2, 48478, Note_off_c, 0, 79, 51
2, 48480, Note_on_c, 0, 78, 63
2, 48558, Note_off_c, 0, 78, 58
2, 48560, Note_on_c, 0, 81, 57
2, 48638, Note_off_c, 0, 81, 52
2, 48640, Note_on_c, 0, 74, 72
2, 48718, Note_off_c, 0, 74, 66
2, 48720, Note_on_c, 0, 79, 63
2, 48798, Note_off_c, 0, 79, 58
2, 48800, Note_on_c, 0, 83, 50
2, 48878, Note_off_c, 0, 83, 46
2, 48880, Note_on_c, 0, 74, 60
2, 48958, Note_off_c, 0, 74, 55
2, 48960, Note_on_c, 0, 81, 61
2, 49278, Note_off_c, 0, 81, 56
2, 49280, Note_on_c, 0, 78, 41
2, 49358, Note_off_c, 0, 78, 38
2, 49360, Note_on_c, 0, 74, 33
2, 49438, Note_off_c, 0, 74, 30
2, 49440, Note_on_c, 0, 73, 49
2, 49518, Note_off_c, 0, 73, 45
2, 49520, Note_on_c, 0, 74, 60
2, 49598, Note_off_c, 0, 74, 55
2, 49600, Note_on_c, 0, 69, 47
2, 49678, Note_off_c, 0, 69, 43
2, 49680, Note_on_c, 0, 72, 58
2, 49758, Note_off_c, 0, 72, 53
2, 49760, Note_on_c, 0, 74, 63
2, 49838, Note_off_c, 0, 74, 58
2, 49840, Note_on_c, 0, 69, 52
2, 49918, Note_off_c, 0, 69, 48
2, 49920, Note_on_c, 0, 71, 52
2, 49998, Note_off_c, 0, 71, 48
2, 50000, Note_on_c, 0, 67, 57
2, 50078, Note_off_c, 0, 67, 52
2, 50080, Note_on_c, 0, 71, 47
2, 50158, Note_off_c, 0, 71, 43
2, 50160, Note_on_c, 0, 74, 70
2, 50238, Note_off_c, 0, 74, 64
2, 50240, Note_on_c, 0, 71, 67
2, 50318, Note_off_c, 0, 71, 61
2, 50320, Note_on_c, 0, 74, 74
2, 50398, Note_off_c, 0, 74, 68
2, 50400, Note_on_c, 0, 79, 70
2, 50478, Note_off_c, 0, 79, 64
2, 50480, Note_on_c, 0, 74, 70
2, 50558, Note_off_c, 0, 74, 64
2, 50560, Note_on_c, 0, 79, 74
2, 50638, Note_off_c, 0, 79, 68
2, 50640, Note_on_c, 0, 83, 83
2, 50718, Note_off_c, 0, 83, 76
2, 50720, Note_on_c, 0, 79, 72
2, 50798, Note_off_c, 0, 79, 66
2, 50800, Note_on_c, 0, 83, 83
2, 50878, Note_off_c, 0, 83, 76
2, 50880, Note_on_c, 0, 86, 74
2, 50958, Note_off_c, 0, 86, 68
2, 50960, Note_on_c, 0, 83, 86
2, 51038, Note_off_c, 0, 83, 79
2, 51040, Note_on_c, 0, 86, 95
2, 51118, Note_off_c, 0, 86, 87
2, 51120, Note_on_c, 0, 89, 95
2, 51198, Note_off_c, 0, 89, 87
2, 51200, Note_on_c, 0, 86, 73
2, 51278, Note_off_c, 0, 86, 67
2, 51280, Note_on_c, 0, 83, 70
2, 51358, Note_off_c, 0, 83, 64
2, 51360, Note_on_c, 0, 79, 67
2, 51438, Note_off_c, 0, 79, 61
2, 51440, Note_on_c, 0, 77, 70
2, 51518, Note_off_c, 0, 77, 64
2, 51520, Note_on_c, 0, 74, 47
2, 51598, Note_off_c, 0, 74, 43
2, 51600, Note_on_c, 0, 71, 67
2, 51678, Note_off_c, 0, 71, 61
2, 51680, Note_on_c, 0, 67, 51
2, 51758, Note_off_c, 0, 67, 47
2, 51760, Note_on_c, 0, 65, 47
2, 51838, Note_off_c, 0, 65, 43
2, 51840, Note_on_c, 0, 64, 55
2, 51898, Note_off_c, 0, 64, 50
2, 51960, Note_on_c, 0, 76, 46
2, 52078, Note_off_c, 0, 76, 42
2, 52080, Note_on_c, 0, 75, 52
2, 52198, Note_off_c, 0, 75, 48
2, 52200, Note_on_c, 0, 76, 62
2, 52318, Note_off_c, 0, 76, 57
2, 52320, Note_on_c, 0, 75, 51
2, 52438, Note_off_c, 0, 75, 47
2, 52440, Note_on_c, 0, 76, 57
2, 52558, Note_off_c, 0, 76, 52
2, 52560, Note_on_c, 0, 75, 63
2, 52678, Note_off_c, 0, 75, 58
2, 52680, Note_on_c, 0, 76, 68
2, 52798, Note_off_c, 0, 76, 62
2, 52800, Note_on_c, 0, 67, 62
2, 53518, Note_off_c, 0, 67, 57
2, 53520, Note_on_c, 0, 66, 51
2, 53520, Note_on_c, 0, 71, 63
2, 53638, Note_off_c, 0, 71, 58
2, 53640, Note_on_c, 0, 69, 62
2, 53758, Note_off_c, 0, 66, 47
2, 53758, Note_off_c, 0, 69, 57
2, 53840, Note_on_c, 0, 67, 39
2, 53918, Note_off_c, 0, 67, 36
2, 53920, Note_on_c, 0, 71, 46
2, 53998, Note_off_c, 0, 71, 42
2, 54000, Note_on_c, 0, 74, 62
2, 54078, Note_off_c, 0, 74, 57
2, 54080, Note_on_c, 0, 71, 61
2, 54158, Note_off_c, 0, 71, 56
2, 54160, Note_on_c, 0, 74, 58
2, 54238, Note_off_c, 0, 74, 53
2, 54240, Note_on_c, 0, 79, 75
2, 54318, Note_off_c, 0, 79, 69
2, 54320, Note_on_c, 0, 74, 70
2, 54398, Note_off_c, 0, 74, 64
2, 54400, Note_on_c, 0, 79, 80
2, 54478, Note_off_c, 0, 79, 73
2, 54480, Note_on_c, 0, 83, 74
2, 54558, Note_off_c, 0, 83, 68
2, 54560, Note_on_c, 0, 79, 66
2, 54638, Note_off_c, 0, 79, 60
2, 54640, Note_on_c, 0, 83, 74
2, 54718, Note_off_c, 0, 83, 68
2, 54720, Note_on_c, 0, 86, 74
2, 54798, Note_off_c, 0, 86, 68
2, 54800, Note_on_c, 0, 83, 86
2, 54878, Note_off_c, 0, 83, 79
2, 54880, Note_on_c, 0, 86, 95
2, 54958, Note_off_c, 0, 86, 87
2, 54960, Note_on_c, 0, 89, 90
2, 55038, Note_off_c, 0, 89, 82
2, 55040, Note_on_c, 0, 86, 60
2, 55118, Note_off_c, 0, 86, 55
2, 55120, Note_on_c, 0, 83, 67
2, 55198, Note_off_c, 0, 83, 61
2, 55200, Note_on_c, 0, 79, 63
2, 55278, Note_off_c, 0, 79, 58
2, 55280, Note_on_c, 0, 77, 60
2, 55358, Note_off_c, 0, 77, 55
2, 55360, Note_on_c, 0, 74, 58
2, 55438, Note_off_c, 0, 74, 53
2, 55440, Note_on_c, 0, 71, 60
2, 55518, Note_off_c, 0, 71, 55
2, 55520, Note_on_c, 0, 67, 61
2, 55598, Note_off_c, 0, 67, 56
2, 55600, Note_on_c, 0, 65, 56
2, 55678, Note_off_c, 0, 65, 51
2, 55680, Note_on_c, 0, 64, 63
2, 55738, Note_off_c, 0, 64, 58
2, 55800, Note_on_c, 0, 76, 51
2, 55918, Note_off_c, 0, 76, 47
2, 55920, Note_on_c, 0, 75, 49
2, 56038, Note_off_c, 0, 75, 45
2, 56040, Note_on_c, 0, 76, 68
2, 56158, Note_off_c, 0, 76, 62
2, 56160, Note_on_c, 0, 75, 73
2, 56278, Note_off_c, 0, 75, 67
2, 56280, Note_on_c, 0, 76, 74
2, 56398, Note_off_c, 0, 76, 68
2, 56400, Note_on_c, 0, 75, 72
2, 56518, Note_off_c, 0, 75, 66
2, 56520, Note_on_c, 0, 76, 70
2, 56638, Note_off_c, 0, 76, 64
2, 56760, Note_on_c, 0, 79, 73
2, 56878, Note_off_c, 0, 79, 67
2, 56880, Note_on_c, 0, 78, 70
2, 56998, Note_off_c, 0, 78, 64
2, 57000, Note_on_c, 0, 79, 72
2, 57118, Note_off_c, 0, 79, 66
2, 57120, Note_on_c, 0, 78, 69
2, 57238, Note_off_c, 0, 78, 63
2, 57240, Note_on_c, 0, 79, 70
2, 57358, Note_off_c, 0, 79, 64
2, 57360, Note_on_c, 0, 78, 72
2, 57478, Note_off_c, 0, 78, 66
2, 57480, Note_on_c, 0, 79, 74
2, 57598, Note_off_c, 0, 79, 68
2, 57600, Note_on_c, 0, 79, 83
2, 57718, Note_off_c, 0, 79, 76
2, 57720, Note_on_c, 0, 74, 74
2, 57838, Note_off_c, 0, 74, 68
2, 57840, Note_on_c, 0, 74, 60
2, 57898, Note_off_c, 0, 74, 55
2, 57960, Note_on_c, 0, 74, 63
2, 58018, Note_off_c, 0, 74, 58
2, 58080, Note_on_c, 0, 76, 69
2, 58198, Note_off_c, 0, 76, 63
2, 58200, Note_on_c, 0, 74, 68
2, 58318, Note_off_c, 0, 74, 62
2, 58320, Note_on_c, 0, 72, 68
2, 58378, Note_off_c, 0, 72, 62
2, 58440, Note_on_c, 0, 71, 68
2, 58498, Note_off_c, 0, 71, 62
2, 58560, Note_on_c, 0, 71, 67
2, 59038, Note_off_c, 0, 71, 61
2, 59040, Note_on_c, 0, 69, 38
2, 59098, Note_off_c, 0, 69, 35
2, 59100, Note_on_c, 0, 71, 57
2, 59158, Note_off_c, 0, 71, 52
2, 59160, Note_on_c, 0, 69, 57
2, 59218, Note_off_c, 0, 69, 52
2, 59220, Note_on_c, 0, 71, 62
2, 59278, Note_off_c, 0, 71, 57
2, 59280, Note_on_c, 0, 69, 60
2, 59326, Note_off_c, 0, 69, 55
2, 59328, Note_on_c, 0, 71, 58
2, 59374, Note_off_c, 0, 71, 53
2, 59376, Note_on_c, 0, 69, 50
2, 59422, Note_off_c, 0, 69, 46
2, 59424, Note_on_c, 0, 67, 60
2, 59470, Note_off_c, 0, 67, 55
2, 59472, Note_on_c, 0, 69, 57
2, 59518, Note_off_c, 0, 69, 52
2, 59520, Note_on_c, 0, 67, 50
2, 59758, Note_off_c, 0, 67, 46
2, 60000, Note_on_c, 0, 74, 70
2, 60298, Note_off_c, 0, 74, 64
2, 60300, Note_on_c, 0, 78, 46
2, 60358, Note_off_c, 0, 78, 42
2, 60360, Note_on_c, 0, 76, 50
2, 60418, Note_off_c, 0, 76, 46
2, 60420, Note_on_c, 0, 74, 51
2, 60478, Note_off_c, 0, 74, 47
2, 60480, Note_on_c, 0, 86, 70
2, 60598, Note_off_c, 0, 86, 64
2, 60720, Note_on_c, 0, 84, 60
2, 60838, Note_off_c, 0, 84, 55
2, 60960, Note_on_c, 0, 83, 67
2, 61078, Note_off_c, 0, 83, 61
2, 61200, Note_on_c, 0, 81, 68
2, 61318, Note_off_c, 0, 81, 62
2, 61440, Note_on_c, 0, 79, 62
2, 61678, Note_off_c, 0, 79, 57
2, 61920, Note_on_c, 0, 74, 57
2, 62218, Note_off_c, 0, 74, 52
2, 62220, Note_on_c, 0, 78, 33
2, 62278, Note_off_c, 0, 78, 30
2, 62280, Note_on_c, 0, 76, 37
2, 62338, Note_off_c, 0, 76, 34
2, 62340, Note_on_c, 0, 74, 45
2, 62398, Note_off_c, 0, 74, 41
2, 62400, Note_on_c, 0, 86, 48
2, 62518, Note_off_c, 0, 86, 44
2, 62640, Note_on_c, 0, 84, 55
2, 62758, Note_off_c, 0, 84, 50
2, 62880, Note_on_c, 0, 83, 56
2, 62998, Note_off_c, 0, 83, 51
2, 63120, Note_on_c, 0, 81, 57
2, 63238, Note_off_c, 0, 81, 52
2, 63360, Note_on_c, 0, 79, 47
2, 63598, Note_off_c, 0, 79, 43
2, 63800, Note_on_c, 0, 74, 51
2, 63840, Note_on_c, 0, 86, 68
2, 64160, Note_on_c, 0, 84, 40
2, 64198, Note_off_c, 0, 86, 62
2, 64198, Note_off_c, 0, 74, 47
2, 64211, Note_off_c, 0, 84, 37
2, 64213, Note_on_c, 0, 83, 58
2, 64265, Note_off_c, 0, 83, 53
2, 64267, Note_on_c, 0, 81, 49
2, 64318, Note_off_c, 0, 81, 45
2, 64320, Note_on_c, 0, 79, 57
2, 64440, Note_off_c, 0, 79, 52
2, 64760, Note_on_c, 0, 74, 38
2, 64800, Note_on_c, 0, 86, 55
2, 65120, Note_on_c, 0, 84, 27
2, 65158, Note_off_c, 0, 86, 50
2, 65158, Note_off_c, 0, 74, 35
2, 65171, Note_off_c, 0, 84, 25
2, 65173, Note_on_c, 0, 83, 45
2, 65225, Note_off_c, 0, 83, 41
2, 65227, Note_on_c, 0, 81, 36
2, 65278, Note_off_c, 0, 81, 33
2, 65280, Note_on_c, 0, 79, 44
2, 65400, Note_off_c, 0, 79, 40
2, 65520, Note_on_c, 0, 62, 46
2, 65698, Note_off_c, 0, 62, 42
2, 65700, Note_on_c, 0, 67, 56
2, 65758, Note_off_c, 0, 67, 51
2, 65760, Note_on_c, 0, 71, 52
2, 65878, Note_off_c, 0, 71, 48
2, 66000, Note_on_c, 0, 69, 49
2, 66000, Note_on_c, 0, 60, 45
2, 66118, Note_off_c, 0, 60, 41
2, 66118, Note_off_c, 0, 69, 45
2, 66240, Note_on_c, 0, 69, 62
2, 66240, Note_on_c, 0, 60, 57
2, 66718, Note_off_c, 0, 60, 52
2, 66718, Note_off_c, 0, 69, 57
2, 66720, Note_on_c, 0, 67, 36
2, 66720, Note_on_c, 0, 59, 35
2, 66838, Note_off_c, 0, 59, 32
2, 66838, Note_off_c, 0, 67, 33
2, 67200, Note_on_c, 0, 74, 68
2, 67438, Note_off_c, 0, 74, 62
2, 67440, Note_on_c, 0, 71, 57
2, 67678, Note_off_c, 0, 71, 52
2, 67680, Note_on_c, 0, 71, 63
2, 67798, Note_off_c, 0, 71, 58
2, 67920, Note_on_c, 0, 55, 49
2, 67920, Note_on_c, 0, 71, 66
2, 67966, Note_off_c, 0, 71, 60
2, 67968, Note_on_c, 0, 72, 63
2, 68014, Note_off_c, 0, 72, 58
2, 68016, Note_on_c, 0, 71, 62
2, 68062, Note_off_c, 0, 71, 57
2, 68064, Note_on_c, 0, 69, 63
2, 68110, Note_off_c, 0, 69, 58
2, 68112, Note_on_c, 0, 71, 68
2, 68158, Note_off_c, 0, 55, 45
2, 68158, Note_off_c, 0, 71, 62
2, 68160, Note_on_c, 0, 74, 49
2, 68398, Note_off_c, 0, 74, 45
2, 68400, Note_on_c, 0, 72, 58
2, 68518, Note_off_c, 0, 72, 53
2, 68640, Note_on_c, 0, 69, 60
2, 69118, Note_off_c, 0, 69, 55
2, 69120, Note_on_c, 0, 72, 62
2, 69358, Note_off_c, 0, 72, 57
2, 69360, Note_on_c, 0, 71, 61
2, 69478, Note_off_c, 0, 71, 56
2, 69600, Note_on_c, 0, 74, 70
2, 69838, Note_off_c, 0, 74, 64
2, 69840, Note_on_c, 0, 72, 66
2, 69958, Note_off_c, 0, 72, 60
2, 70080, Note_on_c, 0, 76, 63
2, 70558, Note_off_c, 0, 76, 58
2, 70560, Note_on_c, 0, 74, 41
2, 70798, Note_off_c, 0, 74, 38
2, 71040, Note_on_c, 0, 74, 68
2, 71278, Note_off_c, 0, 74, 62
2, 71280, Note_on_c, 0, 67, 57
2, 71518, Note_off_c, 0, 67, 52
2, 71520, Note_on_c, 0, 67, 63
2, 71638, Note_off_c, 0, 67, 58
2, 71760, Note_on_c, 0, 68, 66
2, 71806, Note_off_c, 0, 68, 60
2, 71808, Note_on_c, 0, 69, 63
2, 71854, Note_off_c, 0, 69, 58
2, 71856, Note_on_c, 0, 68, 62
2, 71902, Note_off_c, 0, 68, 57
2, 71904, Note_on_c, 0, 67, 63
2, 71950, Note_off_c, 0, 67, 58
2, 71952, Note_on_c, 0, 68, 68
2, 71998, Note_off_c, 0, 68, 62
2, 72000, Note_on_c, 0, 69, 49
2, 72238, Note_off_c, 0, 69, 45
2, 72240, Note_on_c, 0, 72, 58
2, 72358, Note_off_c, 0, 72, 53
2, 72480, Note_on_c, 0, 76, 60
2, 72958, Note_off_c, 0, 76, 55
2, 72960, Note_on_c, 0, 74, 62
2, 73198, Note_off_c, 0, 74, 57
2, 73200, Note_on_c, 0, 67, 61
2, 73318, Note_off_c, 0, 67, 56
2, 73440, Note_on_c, 0, 72, 70
2, 73678, Note_off_c, 0, 72, 64
2, 73680, Note_on_c, 0, 66, 66
2, 73798, Note_off_c, 0, 66, 60
2, 73920, Note_on_c, 0, 69, 63
2, 74398, Note_off_c, 0, 69, 58
2, 74400, Note_on_c, 0, 67, 41
2, 74638, Note_off_c, 0, 67, 38
2, 74880, Note_on_c, 0, 74, 68
2, 75118, Note_off_c, 0, 74, 62
2, 75120, Note_on_c, 0, 71, 57
2, 75358, Note_off_c, 0, 71, 52
2, 75360, Note_on_c, 0, 71, 63
2, 75478, Note_off_c, 0, 71, 58
2, 75600, Note_on_c, 0, 71, 66
2, 75646, Note_off_c, 0, 71, 60
2, 75648, Note_on_c, 0, 72, 63
2, 75694, Note_off_c, 0, 72, 58
2, 75696, Note_on_c, 0, 71, 62
2, 75742, Note_off_c, 0, 71, 57
2, 75744, Note_on_c, 0, 69, 63
2, 75790, Note_off_c, 0, 69, 58
2, 75792, Note_on_c, 0, 71, 68
2, 75838, Note_off_c, 0, 71, 62
2, 75840, Note_on_c, 0, 74, 49
2, 76078, Note_off_c, 0, 74, 45
2, 76080, Note_on_c, 0, 72, 58
2, 76198, Note_off_c, 0, 72, 53
2, 76320, Note_on_c, 0, 69, 60
2, 76798, Note_off_c, 0, 69, 55
2, 76800, Note_on_c, 0, 72, 62
2, 77038, Note_off_c, 0, 72, 57
2, 77040, Note_on_c, 0, 71, 61
2, 77158, Note_off_c, 0, 71, 56
2, 77280, Note_on_c, 0, 74, 70
2, 77518, Note_off_c, 0, 74, 64
2, 77520, Note_on_c, 0, 72, 66
2, 77638, Note_off_c, 0, 72, 60
2, 77760, Note_on_c, 0, 76, 63
2, 78238, Note_off_c, 0, 76, 58
2, 78240, Note_on_c, 0, 74, 41
2, 78478, Note_off_c, 0, 74, 38
2, 78720, Note_on_c, 0, 74, 62
2, 78737, Control_c, 0, 64, 127
2, 78958, Note_off_c, 0, 74, 57
2, 78960, Note_on_c, 0, 72, 61
2, 79078, Note_off_c, 0, 72, 56
2, 79200, Note_on_c, 0, 76, 70
2, 79406, Control_c, 0, 64, 0
2, 79438, Note_off_c, 0, 76, 64
2, 79440, Note_on_c, 0, 74, 66
2, 79466, Control_c, 0, 64, 127
2, 79558, Note_off_c, 0, 74, 60
2, 79663, Control_c, 0, 64, 0
2, 79680, Note_on_c, 0, 77, 63
2, 79706, Control_c, 0, 64, 127
2, 80134, Control_c, 0, 64, 0
2, 80158, Note_off_c, 0, 77, 58
2, 80160, Note_on_c, 0, 76, 41
2, 80211, Control_c, 0, 64, 127
2, 80398, Note_off_c, 0, 76, 38
2, 80614, Control_c, 0, 64, 0
2, 80640, Note_on_c, 0, 76, 62
2, 80878, Note_off_c, 0, 76, 57
2, 80880, Note_on_c, 0, 74, 61
2, 80998, Note_off_c, 0, 74, 56
2, 81120, Note_on_c, 0, 77, 70
2, 81358, Note_off_c, 0, 77, 64
2, 81360, Note_on_c, 0, 76, 66
2, 81478, Note_off_c, 0, 76, 60
2, 81600, Note_on_c, 0, 79, 63
2, 82078, Note_off_c, 0, 79, 58
2, 82080, Note_on_c, 0, 77, 41
2, 82318, Note_off_c, 0, 77, 38
2, 82560, Note_on_c, 0, 76, 63
2, 82918, Note_off_c, 0, 76, 58
2, 82920, Note_on_c, 0, 77, 60
2, 82978, Note_off_c, 0, 77, 55
2, 82980, Note_on_c, 0, 79, 47
2, 83038, Note_off_c, 0, 79, 43
2, 83040, Note_on_c, 0, 77, 60
2, 83158, Note_off_c, 0, 77, 55
2, 83280, Note_on_c, 0, 76, 29
2, 83398, Note_off_c, 0, 76, 27
2, 83520, Note_on_c, 0, 74, 62
2, 83998, Note_off_c, 0, 74, 57
2, 84240, Note_on_c, 0, 79, 55
2, 84358, Note_off_c, 0, 79, 50
2, 84480, Note_on_c, 0, 77, 60
2, 84718, Note_off_c, 0, 77, 55
2, 84720, Note_on_c, 0, 75, 44
2, 84838, Note_off_c, 0, 75, 40
2, 85200, Note_on_c, 0, 72, 46
2, 85318, Note_off_c, 0, 72, 42
2, 85440, Note_on_c, 0, 71, 57
2, 85678, Note_off_c, 0, 71, 52
2, 85680, Note_on_c, 0, 74, 58
2, 85798, Note_off_c, 0, 74, 53
2, 86160, Note_on_c, 0, 79, 61
2, 86398, Note_off_c, 0, 79, 56
2, 86640, Note_on_c, 0, 77, 47
2, 86758, Note_off_c, 0, 77, 43
2, 86760, Note_on_c, 0, 75, 41
2, 86878, Note_off_c, 0, 75, 38
2, 87120, Note_on_c, 0, 74, 62
2, 87238, Note_off_c, 0, 74, 57
2, 87240, Note_on_c, 0, 72, 52
2, 87358, Note_off_c, 0, 72, 48
2, 87360, Note_on_c, 0, 71, 69
2, 87598, Note_off_c, 0, 71, 63
2, 87600, Note_on_c, 0, 74, 70
2, 87838, Note_off_c, 0, 74, 64
2, 87960, Note_on_c, 0, 79, 67
2, 88078, Note_off_c, 0, 79, 61
2, 88080, Note_on_c, 0, 78, 61
2, 88198, Note_off_c, 0, 78, 56
2, 88200, Note_on_c, 0, 79, 49
2, 88318, Note_off_c, 0, 79, 45
2, 88440, Note_on_c, 0, 75, 60
2, 88558, Note_off_c, 0, 75, 55
2, 88560, Note_on_c, 0, 74, 41
2, 88678, Note_off_c, 0, 74, 38
2, 88680, Note_on_c, 0, 75, 49
2, 88798, Note_off_c, 0, 75, 45
2, 88920, Note_on_c, 0, 72, 18
2, 89038, Note_off_c, 0, 72, 17
2, 89040, Note_on_c, 0, 71, 57
2, 89158, Note_off_c, 0, 71, 52
2, 89160, Note_on_c, 0, 72, 62
2, 89278, Note_off_c, 0, 72, 57
2, 89280, Note_on_c, 0, 71, 55
2, 89518, Note_off_c, 0, 71, 50
2, 89520, Note_on_c, 0, 74, 68
2, 89590, Note_off_c, 0, 74, 62
2, 89760, Note_on_c, 0, 71, 57
2, 89998, Note_off_c, 0, 71, 52
2, 90000, Note_on_c, 0, 74, 60
2, 90070, Note_off_c, 0, 74, 55
2, 90240, Note_on_c, 0, 71, 55
2, 90478, Note_off_c, 0, 71, 50
2, 90480, Note_on_c, 0, 74, 55
2, 90550, Note_off_c, 0, 74, 50
2, 91200, Note_on_c, 0, 74, 41
2, 91438, Note_off_c, 0, 74, 38
2, 91440, Note_on_c, 0, 77, 55
2, 91510, Note_off_c, 0, 77, 50
2, 91680, Note_on_c, 0, 74, 38
2, 91918, Note_off_c, 0, 74, 35
2, 91920, Note_on_c, 0, 77, 41
2, 91990, Note_off_c, 0, 77, 38
2, 92160, Note_on_c, 0, 74, 36
2, 92398, Note_off_c, 0, 74, 33
2, 92400, Note_on_c, 0, 77, 36
2, 92470, Note_off_c, 0, 77, 33
2, 93120, Note_on_c, 0, 76, 81
2, 93478, Note_off_c, 0, 76, 74
2, 93480, Note_on_c, 0, 77, 74
2, 93538, Note_off_c, 0, 77, 68
2, 93540, Note_on_c, 0, 79, 51
2, 93598, Note_off_c, 0, 79, 47
2, 93600, Note_on_c, 0, 72, 75
2, 93658, Note_off_c, 0, 72, 69
2, 93840, Note_on_c, 0, 74, 73
2, 93840, Note_on_c, 0, 71, 64
2, 93898, Note_off_c, 0, 71, 59
2, 93898, Note_off_c, 0, 74, 67
2, 94080, Note_on_c, 0, 71, 64
2, 94080, Note_on_c, 0, 74, 77
2, 94318, Note_off_c, 0, 74, 70
2, 94318, Note_off_c, 0, 71, 59
2, 94320, Note_on_c, 0, 77, 44
2, 94320, Note_on_c, 0, 72, 62
2, 94438, Note_off_c, 0, 77, 40
2, 94440, Note_on_c, 0, 76, 80
2, 94558, Note_off_c, 0, 72, 57
2, 94558, Note_off_c, 0, 76, 73
2, 94560, Note_on_c, 0, 71, 58
2, 94560, Note_on_c, 0, 74, 59
2, 95038, Note_off_c, 0, 74, 54
2, 95038, Note_off_c, 0, 71, 53
2, 95040, Note_on_c, 0, 76, 81
2, 95398, Note_off_c, 0, 76, 74
2, 95400, Note_on_c, 0, 77, 74
2, 95458, Note_off_c, 0, 77, 68
2, 95460, Note_on_c, 0, 79, 51
2, 95518, Note_off_c, 0, 79, 47
2, 95520, Note_on_c, 0, 72, 75
2, 95578, Note_off_c, 0, 72, 69
2, 95760, Note_on_c, 0, 71, 64
2, 95760, Note_on_c, 0, 74, 73
2, 95818, Note_off_c, 0, 74, 67
2, 95818, Note_off_c, 0, 71, 59
2, 96000, Note_on_c, 0, 77, 86
2, 96000, Note_on_c, 0, 74, 82
2, 96238, Note_off_c, 0, 74, 75
2, 96238, Note_off_c, 0, 77, 79
2, 96240, Note_on_c, 0, 72, 58
2, 96240, Note_on_c, 0, 76, 74
2, 96286, Note_off_c, 0, 76, 68
2, 96286, Note_off_c, 0, 72, 53
2, 96288, Note_on_c, 0, 77, 70
2, 96334, Note_off_c, 0, 77, 64
2, 96336, Note_on_c, 0, 76, 68
2, 96382, Note_off_c, 0, 76, 62
2, 96384, Note_on_c, 0, 77, 50
2, 96430, Note_off_c, 0, 77, 46
2, 96432, Note_on_c, 0, 76, 62
2, 96478, Note_off_c, 0, 76, 57
2, 96480, Note_on_c, 0, 74, 66
2, 96480, Note_on_c, 0, 71, 52
2, 96958, Note_off_c, 0, 71, 48
2, 96958, Note_off_c, 0, 74, 60
2, 96960, Note_on_c, 0, 77, 74
2, 97318, Note_off_c, 0, 77, 68
2, 97320, Note_on_c, 0, 79, 62
2, 97378, Note_off_c, 0, 79, 57
2, 97380, Note_on_c, 0, 77, 70
2, 97438, Note_off_c, 0, 77, 64
2, 97440, Note_on_c, 0, 76, 72
2, 97498, Note_off_c, 0, 76, 66
2, 97680, Note_on_c, 0, 76, 52
2, 97738, Note_off_c, 0, 76, 48
2, 97920, Note_on_c, 0, 81, 70
2, 98278, Note_off_c, 0, 81, 64
2, 98280, Note_on_c, 0, 83, 69
2, 98338, Note_off_c, 0, 83, 63
2, 98340, Note_on_c, 0, 84, 55
2, 98398, Note_off_c, 0, 84, 50
2, 98400, Note_on_c, 0, 79, 50
2, 98458, Note_off_c, 0, 79, 46
2, 98640, Note_on_c, 0, 79, 57
2, 98698, Note_off_c, 0, 79, 52
2, 98880, Note_on_c, 0, 79, 61
2, 98998, Note_off_c, 0, 79, 56
2, 99000, Note_on_c, 0, 77, 63
2, 99058, Note_off_c, 0, 77, 58
2, 99120, Note_on_c, 0, 77, 68
2, 99238, Note_off_c, 0, 77, 62
2, 99240, Note_on_c, 0, 74, 45
2, 99298, Note_off_c, 0, 74, 41
2, 99360, Note_on_c, 0, 77, 63
2, 99478, Note_off_c, 0, 77, 58
2, 99480, Note_on_c, 0, 76, 60
2, 99538, Note_off_c, 0, 76, 55
2, 99600, Note_on_c, 0, 76, 62
2, 99718, Note_off_c, 0, 76, 57
2, 99720, Note_on_c, 0, 72, 36
2, 99778, Note_off_c, 0, 72, 33
2, 99840, Note_on_c, 0, 73, 41
2, 99958, Note_off_c, 0, 73, 38
2, 99960, Note_on_c, 0, 74, 62
2, 100078, Note_off_c, 0, 74, 57
2, 100080, Note_on_c, 0, 76, 73
2, 100198, Note_off_c, 0, 76, 67
2, 100200, Note_on_c, 0, 74, 66
2, 100318, Note_off_c, 0, 74, 60
2, 100320, Note_on_c, 0, 72, 46
2, 100438, Note_off_c, 0, 72, 42
2, 100440, Note_on_c, 0, 71, 49
2, 100558, Note_off_c, 0, 71, 45
2, 100560, Note_on_c, 0, 69, 29
2, 100678, Note_off_c, 0, 69, 27
2, 100680, Note_on_c, 0, 67, 44
2, 100798, Note_off_c, 0, 67, 40
2, 100800, Note_on_c, 0, 76, 95
2, 101158, Note_off_c, 0, 76, 87
2, 101160, Note_on_c, 0, 77, 89
2, 101218, Note_off_c, 0, 77, 81
2, 101220, Note_on_c, 0, 79, 66
2, 101278, Note_off_c, 0, 79, 60
2, 101280, Note_on_c, 0, 72, 90
2, 101338, Note_off_c, 0, 72, 82
2, 101520, Note_on_c, 0, 71, 79
2, 101520, Note_on_c, 0, 74, 88
2, 101578, Note_off_c, 0, 74, 80
2, 101578, Note_off_c, 0, 71, 72
2, 101760, Note_on_c, 0, 74, 91
2, 101760, Note_on_c, 0, 71, 79
2, 101998, Note_off_c, 0, 71, 72
2, 101998, Note_off_c, 0, 74, 83
2, 102000, Note_on_c, 0, 72, 77
2, 102000, Note_on_c, 0, 77, 58
2, 102118, Note_off_c, 0, 77, 53
2, 102120, Note_on_c, 0, 76, 94
2, 102238, Note_off_c, 0, 72, 70
2, 102238, Note_off_c, 0, 76, 86
2, 102240, Note_on_c, 0, 74, 73
2, 102240, Note_on_c, 0, 71, 72
2, 102718, Note_off_c, 0, 71, 66
2, 102718, Note_off_c, 0, 74, 67
2, 102720, Note_on_c, 0, 76, 95
2, 103078, Note_off_c, 0, 76, 87
2, 103080, Note_on_c, 0, 77, 89
2, 103138, Note_off_c, 0, 77, 81
2, 103140, Note_on_c, 0, 79, 66
2, 103198, Note_off_c, 0, 79, 60
2, 103200, Note_on_c, 0, 72, 90
2, 103258, Note_off_c, 0, 72, 82
2, 103440, Note_on_c, 0, 74, 88
2, 103440, Note_on_c, 0, 71, 79
2, 103498, Note_off_c, 0, 71, 72
2, 103498, Note_off_c, 0, 74, 80
2, 103680, Note_on_c, 0, 74, 96
2, 103680, Note_on_c, 0, 77, 101
2, 103918, Note_off_c, 0, 77, 92
2, 103918, Note_off_c, 0, 74, 88
2, 103920, Note_on_c, 0, 76, 89
2, 103920, Note_on_c, 0, 72, 72
2, 103966, Note_off_c, 0, 72, 66
2, 103966, Note_off_c, 0, 76, 81
2, 103968, Note_on_c, 0, 77, 84
2, 104014, Note_off_c, 0, 77, 77
2, 104016, Note_on_c, 0, 76, 82
2, 104062, Note_off_c, 0, 76, 75
2, 104064, Note_on_c, 0, 77, 64
2, 104110, Note_off_c, 0, 77, 59
2, 104112, Note_on_c, 0, 76, 77
2, 104158, Note_off_c, 0, 76, 70
2, 104160, Note_on_c, 0, 71, 67
2, 104160, Note_on_c, 0, 74, 80
2, 104638, Note_off_c, 0, 74, 73
2, 104638, Note_off_c, 0, 71, 61
2, 104640, Note_on_c, 0, 77, 91
2, 104998, Note_off_c, 0, 77, 83
2, 105000, Note_on_c, 0, 79, 79
2, 105058, Note_off_c, 0, 79, 72
2, 105060, Note_on_c, 0, 77, 86
2, 105118, Note_off_c, 0, 77, 79
2, 105120, Note_on_c, 0, 76, 89
2, 105178, Note_off_c, 0, 76, 81
2, 105360, Note_on_c, 0, 76, 69
2, 105418, Note_off_c, 0, 76, 63
2, 105600, Note_on_c, 0, 81, 86
2, 105958, Note_off_c, 0, 81, 79
2, 105960, Note_on_c, 0, 83, 85
2, 106018, Note_off_c, 0, 83, 78
2, 106020, Note_on_c, 0, 84, 71
2, 106078, Note_off_c, 0, 84, 65
2, 106080, Note_on_c, 0, 79, 67
2, 106138, Note_off_c, 0, 79, 61
2, 106320, Note_on_c, 0, 79, 73
2, 106378, Note_off_c, 0, 79, 67
2, 106560, Note_on_c, 0, 80, 75
2, 106678, Note_off_c, 0, 80, 69
2, 106680, Note_on_c, 0, 81, 86
2, 106798, Note_off_c, 0, 81, 79
2, 106800, Note_on_c, 0, 77, 73
2, 106918, Note_off_c, 0, 77, 67
2, 106920, Note_on_c, 0, 74, 74
2, 107038, Note_off_c, 0, 74, 68
2, 107040, Note_on_c, 0, 72, 72
2, 107278, Note_off_c, 0, 72, 66
2, 107280, Note_on_c, 0, 71, 60
2, 107518, Note_off_c, 0, 71, 55
2, 107520, Note_on_c, 0, 72, 60
2, 107598, Note_off_c, 0, 72, 55
2, 107600, Note_on_c, 0, 67, 74
2, 107678, Note_off_c, 0, 67, 68
2, 107680, Note_on_c, 0, 76, 70
2, 107758, Note_off_c, 0, 76, 64
2, 107760, Note_on_c, 0, 72, 68
2, 107838, Note_off_c, 0, 72, 62
2, 107840, Note_on_c, 0, 79, 86
2, 107918, Note_off_c, 0, 79, 79
2, 107920, Note_on_c, 0, 76, 86
2, 107998, Note_off_c, 0, 76, 79
2, 108000, Note_on_c, 0, 84, 95
2, 108078, Note_off_c, 0, 84, 87
2, 108080, Note_on_c, 0, 83, 74
2, 108158, Note_off_c, 0, 83, 68
2, 108160, Note_on_c, 0, 81, 57
2, 108238, Note_off_c, 0, 81, 52
2, 108240, Note_on_c, 0, 79, 56
2, 108318, Note_off_c, 0, 79, 51
2, 108320, Note_on_c, 0, 77, 41
2, 108398, Note_off_c, 0, 77, 38
2, 108400, Note_on_c, 0, 76, 26
2, 108478, Note_off_c, 0, 76, 24
2, 108480, Note_on_c, 0, 73, 61
2, 108558, Note_off_c, 0, 73, 56
2, 108560, Note_on_c, 0, 74, 72
2, 108638, Note_off_c, 0, 74, 66
2, 108640, Note_on_c, 0, 77, 63
2, 108718, Note_off_c, 0, 77, 58
2, 108720, Note_on_c, 0, 81, 83
2, 108798, Note_off_c, 0, 81, 76
2, 108800, Note_on_c, 0, 77, 38
2, 108878, Note_off_c, 0, 77, 35
2, 108880, Note_on_c, 0, 74, 56
2, 108958, Note_off_c, 0, 74, 51
2, 108960, Note_on_c, 0, 79, 73
2, 109038, Note_off_c, 0, 79, 67
2, 109040, Note_on_c, 0, 76, 56
2, 109118, Note_off_c, 0, 76, 51
2, 109120, Note_on_c, 0, 72, 57
2, 109198, Note_off_c, 0, 72, 52
2, 109200, Note_on_c, 0, 77, 73
2, 109278, Note_off_c, 0, 77, 67
2, 109280, Note_on_c, 0, 74, 29
2, 109358, Note_off_c, 0, 74, 27
2, 109360, Note_on_c, 0, 71, 49
2, 109438, Note_off_c, 0, 71, 45
2, 109440, Note_on_c, 0, 72, 57
2, 109518, Note_off_c, 0, 72, 52
2, 109520, Note_on_c, 0, 67, 60
2, 109598, Note_off_c, 0, 67, 55
2, 109600, Note_on_c, 0, 76, 67
2, 109678, Note_off_c, 0, 76, 61
2, 109680, Note_on_c, 0, 72, 70
2, 109758, Note_off_c, 0, 72, 64
2, 109760, Note_on_c, 0, 79, 73
2, 109838, Note_off_c, 0, 79, 67
2, 109840, Note_on_c, 0, 76, 83
2, 109918, Note_off_c, 0, 76, 76
2, 109920, Note_on_c, 0, 84, 92
2, 109998, Note_off_c, 0, 84, 84
2, 110000, Note_on_c, 0, 83, 73
2, 110078, Note_off_c, 0, 83, 67
2, 110080, Note_on_c, 0, 81, 62
2, 110158, Note_off_c, 0, 81, 57
2, 110160, Note_on_c, 0, 79, 63
2, 110238, Note_off_c, 0, 79, 58
2, 110240, Note_on_c, 0, 77, 61
2, 110318, Note_off_c, 0, 77, 56
2, 110320, Note_on_c, 0, 76, 70
2, 110398, Note_off_c, 0, 76, 64
2, 110400, Note_on_c, 0, 73, 70
2, 110478, Note_off_c, 0, 73, 64
2, 110480, Note_on_c, 0, 74, 36
2, 110558, Note_off_c, 0, 74, 33
2, 110560, Note_on_c, 0, 77, 69
2, 110638, Note_off_c, 0, 77, 63
2, 110640, Note_on_c, 0, 81, 80
2, 110718, Note_off_c, 0, 81, 73
2, 110720, Note_on_c, 0, 77, 61
2, 110798, Note_off_c, 0, 77, 56
2, 110800, Note_on_c, 0, 74, 61
2, 110878, Note_off_c, 0, 74, 56
2, 110880, Note_on_c, 0, 79, 74
2, 110958, Note_off_c, 0, 79, 68
2, 110960, Note_on_c, 0, 76, 68
2, 111038, Note_off_c, 0, 76, 62
2, 111040, Note_on_c, 0, 72, 61
2, 111118, Note_off_c, 0, 72, 56
2, 111120, Note_on_c, 0, 77, 73
2, 111198, Note_off_c, 0, 77, 67
2, 111200, Note_on_c, 0, 74, 68
2, 111278, Note_off_c, 0, 74, 62
2, 111280, Note_on_c, 0, 71, 62
2, 111358, Note_off_c, 0, 71, 57
2, 111360, Note_on_c, 0, 72, 83
2, 111438, Note_off_c, 0, 72, 76
2, 111600, Note_on_c, 0, 67, 71
2, 111678, Note_off_c, 0, 67, 65
2, 111840, Note_on_c, 0, 60, 52
2, 112318, Note_off_c, 0, 60, 48
2, 112320, Note_on_c, 0, 76, 74
2, 112846, Note_off_c, 0, 76, 68
2, 112848, Note_on_c, 0, 77, 55
2, 112894, Note_off_c, 0, 77, 50
2, 112896, Note_on_c, 0, 76, 62
2, 112942, Note_off_c, 0, 76, 57
2, 112944, Note_on_c, 0, 74, 66
2, 112990, Note_off_c, 0, 74, 60
2, 112992, Note_on_c, 0, 76, 69
2, 113038, Note_off_c, 0, 76, 63
2, 113040, Note_on_c, 0, 79, 68
2, 113158, Note_off_c, 0, 79, 62
2, 113160, Note_on_c, 0, 77, 63
2, 113278, Note_off_c, 0, 77, 58
2, 113280, Note_on_c, 0, 76, 69
2, 113398, Note_off_c, 0, 76, 63
2, 113400, Note_on_c, 0, 74, 75
2, 113518, Note_off_c, 0, 74, 69
2, 113520, Note_on_c, 0, 72, 86
2, 113638, Note_off_c, 0, 72, 79
2, 113640, Note_on_c, 0, 71, 63
2, 113758, Note_off_c, 0, 71, 58
2, 113760, Note_on_c, 0, 72, 73
2, 113878, Note_off_c, 0, 72, 67
2, 114000, Note_on_c, 0, 73, 67
2, 114118, Note_off_c, 0, 73, 61
2, 114240, Note_on_c, 0, 74, 86
2, 114358, Note_off_c, 0, 74, 79
2, 114480, Note_on_c, 0, 75, 74
2, 114718, Note_off_c, 0, 75, 68
2, 114720, Note_on_c, 0, 76, 86
2, 114958, Note_off_c, 0, 76, 79
2, 114960, Note_on_c, 0, 79, 70
2, 115078, Note_off_c, 0, 79, 64
2, 115080, Note_on_c, 0, 77, 63
2, 115198, Note_off_c, 0, 77, 58
2, 115200, Note_on_c, 0, 76, 72
2, 115558, Note_off_c, 0, 76, 66
2, 115560, Note_on_c, 0, 77, 46
2, 115618, Note_off_c, 0, 77, 42
2, 115620, Note_on_c, 0, 76, 61
2, 115678, Note_off_c, 0, 76, 56
2, 115680, Note_on_c, 0, 74, 68
2, 115798, Note_off_c, 0, 74, 62
2, 116160, Note_on_c, 0, 77, 78
2, 116686, Note_off_c, 0, 77, 71
2, 116688, Note_on_c, 0, 79, 60
2, 116734, Note_off_c, 0, 79, 55
2, 116736, Note_on_c, 0, 77, 67
2, 116782, Note_off_c, 0, 77, 61
2, 116784, Note_on_c, 0, 76, 51
2, 116830, Note_off_c, 0, 76, 47
2, 116832, Note_on_c, 0, 77, 63
2, 116878, Note_off_c, 0, 77, 58
2, 116880, Note_on_c, 0, 81, 66
2, 116998, Note_off_c, 0, 81, 60
2, 117000, Note_on_c, 0, 79, 62
2, 117118, Note_off_c, 0, 79, 57
2, 117120, Note_on_c, 0, 77, 60
2, 117238, Note_off_c, 0, 77, 55
2, 117240, Note_on_c, 0, 76, 63
2, 117358, Note_off_c, 0, 76, 58
2, 117360, Note_on_c, 0, 74, 60
2, 117478, Note_off_c, 0, 74, 55
2, 117480, Note_on_c, 0, 72, 60
2, 117598, Note_off_c, 0, 72, 55
2, 117600, Note_on_c, 0, 71, 63
2, 117718, Note_off_c, 0, 71, 58
2, 117720, Note_on_c, 0, 72, 49
2, 117790, Note_off_c, 0, 72, 45
2, 117840, Note_on_c, 0, 74, 69
2, 117910, Note_off_c, 0, 74, 63
2, 117960, Note_on_c, 0, 76, 61
2, 118030, Note_off_c, 0, 76, 56
2, 118080, Note_on_c, 0, 77, 68
2, 118150, Note_off_c, 0, 77, 62
2, 118200, Note_on_c, 0, 79, 86
2, 118270, Note_off_c, 0, 79, 79
2, 118320, Note_on_c, 0, 81, 95
2, 118390, Note_off_c, 0, 81, 87
2, 118440, Note_on_c, 0, 83, 72
2, 118510, Note_off_c, 0, 83, 66
2, 118560, Note_on_c, 0, 84, 86
2, 118630, Note_off_c, 0, 84, 79
2, 118680, Note_on_c, 0, 86, 78
2, 118750, Note_off_c, 0, 86, 71
2, 118800, Note_on_c, 0, 88, 73
2, 118870, Note_off_c, 0, 88, 67
2, 118920, Note_on_c, 0, 89, 74
2, 118990, Note_off_c, 0, 89, 68
2, 119040, Note_on_c, 0, 87, 73
2, 119518, Note_off_c, 0, 87, 67
2, 119520, Note_on_c, 0, 88, 60
2, 119758, Note_off_c, 0, 88, 55
2, 120000, Note_on_c, 0, 70, 91
2, 120318, Note_off_c, 0, 70, 83
2, 120320, Note_on_c, 0, 76, 79
2, 120398, Note_off_c, 0, 76, 72
2, 120400, Note_on_c, 0, 79, 79
2, 120478, Note_off_c, 0, 79, 72
2, 120480, Note_on_c, 0, 82, 80
2, 120558, Note_off_c, 0, 82, 73
2, 120560, Note_on_c, 0, 79, 62
2, 120638, Note_off_c, 0, 79, 57
2, 120640, Note_on_c, 0, 76, 68
2, 120718, Note_off_c, 0, 76, 62
2, 120720, Note_on_c, 0, 79, 71
2, 120798, Note_off_c, 0, 79, 65
2, 120800, Note_on_c, 0, 76, 73
2, 120878, Note_off_c, 0, 76, 67
2, 120880, Note_on_c, 0, 70, 71
2, 120958, Note_off_c, 0, 70, 65
2, 120960, Note_on_c, 0, 69, 81
2, 121278, Note_off_c, 0, 69, 74
2, 121280, Note_on_c, 0, 72, 60
2, 121358, Note_off_c, 0, 72, 55
2, 121360, Note_on_c, 0, 77, 69
2, 121438, Note_off_c, 0, 77, 63
2, 121440, Note_on_c, 0, 81, 79
2, 121518, Note_off_c, 0, 81, 72
2, 121520, Note_on_c, 0, 77, 60
2, 121598, Note_off_c, 0, 77, 55
2, 121600, Note_on_c, 0, 72, 62
2, 121678, Note_off_c, 0, 72, 57
2, 121680, Note_on_c, 0, 77, 52
2, 121758, Note_off_c, 0, 77, 48
2, 121760, Note_on_c, 0, 72, 50
2, 121838, Note_off_c, 0, 72, 46
2, 121840, Note_on_c, 0, 69, 68
2, 121918, Note_off_c, 0, 69, 62
2, 121920, Note_on_c, 0, 67, 85
2, 122238, Note_off_c, 0, 67, 78
2, 122240, Note_on_c, 0, 73, 56
2, 122318, Note_off_c, 0, 73, 51
2, 122320, Note_on_c, 0, 76, 74
2, 122398, Note_off_c, 0, 76, 68
2, 122400, Note_on_c, 0, 79, 72
2, 122478, Note_off_c, 0, 79, 66
2, 122480, Note_on_c, 0, 76, 73
2, 122558, Note_off_c, 0, 76, 67
2, 122560, Note_on_c, 0, 73, 52
2, 122638, Note_off_c, 0, 73, 48
2, 122640, Note_on_c, 0, 76, 68
2, 122718, Note_off_c, 0, 76, 62
2, 122720, Note_on_c, 0, 73, 68
2, 122798, Note_off_c, 0, 73, 62
2, 122800, Note_on_c, 0, 67, 50
2, 122878, Note_off_c, 0, 67, 46
2, 122880, Note_on_c, 0, 66, 83
2, 123198, Note_off_c, 0, 66, 76
2, 123200, Note_on_c, 0, 69, 52
2, 123278, Note_off_c, 0, 69, 48
2, 123280, Note_on_c, 0, 74, 71
2, 123358, Note_off_c, 0, 74, 65
2, 123360, Note_on_c, 0, 78, 103
2, 123438, Note_off_c, 0, 78, 94
2, 123440, Note_on_c, 0, 74, 71
2, 123518, Note_off_c, 0, 74, 65
2, 123520, Note_on_c, 0, 69, 69
2, 123598, Note_off_c, 0, 69, 63
2, 123600, Note_on_c, 0, 74, 73
2, 123678, Note_off_c, 0, 74, 67
2, 123680, Note_on_c, 0, 69, 58
2, 123758, Note_off_c, 0, 69, 53
2, 123760, Note_on_c, 0, 66, 36
2, 123838, Note_off_c, 0, 66, 33
2, 123840, Note_on_c, 0, 65, 79
2, 124158, Note_off_c, 0, 65, 72
2, 124160, Note_on_c, 0, 71, 61
2, 124238, Note_off_c, 0, 71, 56
2, 124240, Note_on_c, 0, 74, 74
2, 124318, Note_off_c, 0, 74, 68
2, 124320, Note_on_c, 0, 77, 68
2, 124398, Note_off_c, 0, 77, 62
2, 124400, Note_on_c, 0, 74, 73
2, 124478, Note_off_c, 0, 74, 67
2, 124480, Note_on_c, 0, 71, 60
2, 124558, Note_off_c, 0, 71, 55
2, 124560, Note_on_c, 0, 74, 74
2, 124638, Note_off_c, 0, 74, 68
2, 124640, Note_on_c, 0, 71, 60
2, 124718, Note_off_c, 0, 71, 55
2, 124720, Note_on_c, 0, 65, 71
2, 124798, Note_off_c, 0, 65, 65
2, 124800, Note_on_c, 0, 64, 77
2, 125118, Note_off_c, 0, 64, 70
2, 125120, Note_on_c, 0, 67, 61
2, 125198, Note_off_c, 0, 67, 56
2, 125200, Note_on_c, 0, 72, 58
2, 125278, Note_off_c, 0, 72, 53
2, 125280, Note_on_c, 0, 76, 81
2, 125358, Note_off_c, 0, 76, 74
2, 125360, Note_on_c, 0, 72, 81
2, 125438, Note_off_c, 0, 72, 74
2, 125440, Note_on_c, 0, 67, 73
2, 125518, Note_off_c, 0, 67, 67
2, 125520, Note_on_c, 0, 72, 74
2, 125598, Note_off_c, 0, 72, 68
2, 125600, Note_on_c, 0, 67, 60
2, 125678, Note_off_c, 0, 67, 55
2, 125680, Note_on_c, 0, 64, 61
2, 125758, Note_off_c, 0, 64, 56
2, 125840, Note_on_c, 0, 62, 60
2, 125918, Note_off_c, 0, 62, 55
2, 125920, Note_on_c, 0, 69, 63
2, 125998, Note_off_c, 0, 69, 58
2, 126000, Note_on_c, 0, 74, 68
2, 126078, Note_off_c, 0, 74, 62
2, 126080, Note_on_c, 0, 69, 57
2, 126158, Note_off_c, 0, 69, 52
2, 126160, Note_on_c, 0, 62, 47
2, 126238, Note_off_c, 0, 62, 43
2, 126320, Note_on_c, 0, 62, 51
2, 126398, Note_off_c, 0, 62, 47
2, 126400, Note_on_c, 0, 69, 61
2, 126478, Note_off_c, 0, 69, 56
2, 126480, Note_on_c, 0, 72, 26
2, 126558, Note_off_c, 0, 72, 24
2, 126560, Note_on_c, 0, 69, 52
2, 126638, Note_off_c, 0, 69, 48
2, 126640, Note_on_c, 0, 62, 36
2, 126718, Note_off_c, 0, 62, 33
2, 126720, Note_on_c, 0, 71, 49
2, 127198, Note_off_c, 0, 71, 45
2, 127320, Note_on_c, 0, 79, 60
2, 127378, Note_off_c, 0, 79, 55
2, 127440, Note_on_c, 0, 81, 69
2, 127498, Note_off_c, 0, 81, 63
2, 127560, Note_on_c, 0, 83, 70
2, 127618, Note_off_c, 0, 83, 64
2, 127680, Note_on_c, 0, 84, 78
2, 128278, Note_off_c, 0, 84, 71
2, 128280, Note_on_c, 0, 83, 56
2, 128398, Note_off_c, 0, 83, 51
2, 128400, Note_on_c, 0, 81, 57
2, 128518, Note_off_c, 0, 81, 52
2, 128520, Note_on_c, 0, 79, 49
2, 128638, Note_off_c, 0, 79, 45
2, 128640, Note_on_c, 0, 79, 46
2, 128758, Note_off_c, 0, 79, 42
2, 128760, Note_on_c, 0, 77, 47
2, 128878, Note_off_c, 0, 77, 43
2, 128880, Note_on_c, 0, 76, 49
2, 128998, Note_off_c, 0, 76, 45
2, 129000, Note_on_c, 0, 74, 57
2, 129118, Note_off_c, 0, 74, 52
2, 129120, Note_on_c, 0, 79, 67
2, 129238, Note_off_c, 0, 79, 61
2, 129360, Note_on_c, 0, 77, 70
2, 129478, Note_off_c, 0, 77, 64
2, 129600, Note_on_c, 0, 75, 63
2, 129838, Note_off_c, 0, 75, 58
2, 129840, Note_on_c, 0, 76, 50
2, 129958, Note_off_c, 0, 76, 46
2, 130920, Note_on_c, 0, 79, 74
2, 130978, Note_off_c, 0, 79, 68
2, 131040, Note_on_c, 0, 80, 70
2, 131098, Note_off_c, 0, 80, 64
2, 131160, Note_on_c, 0, 81, 70
2, 131218, Note_off_c, 0, 81, 64
2, 131280, Note_on_c, 0, 82, 78
2, 131338, Note_off_c, 0, 82, 71
2, 131400, Note_on_c, 0, 83, 70
2, 131458, Note_off_c, 0, 83, 64
2, 131520, Note_on_c, 0, 84, 58
2, 132118, Note_off_c, 0, 84, 53
2, 132120, Note_on_c, 0, 83, 36
2, 132238, Note_off_c, 0, 83, 33
2, 132240, Note_on_c, 0, 81, 41
2, 132358, Note_off_c, 0, 81, 38
2, 132360, Note_on_c, 0, 79, 38
2, 132478, Note_off_c, 0, 79, 35
2, 132480, Note_on_c, 0, 79, 58
2, 132598, Note_off_c, 0, 79, 53
2, 132600, Note_on_c, 0, 77, 57
2, 132718, Note_off_c, 0, 77, 52
2, 132720, Note_on_c, 0, 76, 33
2, 132838, Note_off_c, 0, 76, 30
2, 132840, Note_on_c, 0, 74, 58
2, 132958, Note_off_c, 0, 74, 53
2, 132960, Note_on_c, 0, 79, 49
2, 133078, Note_off_c, 0, 79, 45
2, 133200, Note_on_c, 0, 77, 60
2, 133318, Note_off_c, 0, 77, 55
2, 133440, Note_on_c, 0, 76, 50
2, 133558, Note_off_c, 0, 76, 46
2, 133800, Note_on_c, 0, 83, 73
2, 133838, Note_off_c, 0, 83, 67
2, 133840, Note_on_c, 0, 81, 68
2, 133878, Note_off_c, 0, 81, 62
2, 133880, Note_on_c, 0, 80, 72
2, 133918, Note_off_c, 0, 80, 66
2, 133920, Note_on_c, 0, 81, 80
2, 134038, Note_off_c, 0, 81, 73
2, 134040, Note_on_c, 0, 83, 72
2, 134158, Note_off_c, 0, 83, 66
2, 134160, Note_on_c, 0, 84, 81
2, 134218, Note_off_c, 0, 84, 74
2, 134280, Note_on_c, 0, 84, 85
2, 134338, Note_off_c, 0, 84, 78
2, 134400, Note_on_c, 0, 84, 79
2, 134760, Note_on_c, 0, 88, 77
2, 134798, Note_off_c, 0, 88, 70
2, 134800, Note_on_c, 0, 86, 73
2, 134838, Note_off_c, 0, 86, 67
2, 134840, Note_on_c, 0, 84, 81
2, 134878, Note_off_c, 0, 84, 72
2, 134878, Note_off_c, 0, 84, 74
2, 134880, Note_on_c, 0, 86, 72
2, 134998, Note_off_c, 0, 86, 66
2, 135000, Note_on_c, 0, 88, 81
2, 135118, Note_off_c, 0, 88, 74
2, 135120, Note_on_c, 0, 89, 85
2, 135178, Note_off_c, 0, 89, 78
2, 135240, Note_on_c, 0, 89, 86
2, 135298, Note_off_c, 0, 89, 79
2, 135360, Note_on_c, 0, 89, 84
2, 135720, Note_on_c, 0, 79, 81
2, 135758, Note_off_c, 0, 79, 74
2, 135760, Note_on_c, 0, 77, 63
2, 135798, Note_off_c, 0, 77, 58
2, 135800, Note_on_c, 0, 76, 61
2, 135838, Note_off_c, 0, 89, 77
2, 135838, Note_off_c, 0, 76, 56
2, 135840, Note_on_c, 0, 77, 81
2, 135958, Note_off_c, 0, 77, 74
2, 135960, Note_on_c, 0, 79, 86
2, 136078, Note_off_c, 0, 79, 79
2, 136080, Note_on_c, 0, 81, 85
2, 136138, Note_off_c, 0, 81, 78
2, 136200, Note_on_c, 0, 81, 83
2, 136258, Note_off_c, 0, 81, 76
2, 136320, Note_on_c, 0, 81, 84
2, 136438, Note_off_c, 0, 81, 77
2, 136440, Note_on_c, 0, 79, 81
2, 136558, Note_off_c, 0, 79, 74
2, 136560, Note_on_c, 0, 77, 79
2, 136618, Note_off_c, 0, 77, 72
2, 136680, Note_on_c, 0, 76, 81
2, 136738, Note_off_c, 0, 76, 74
2, 136800, Note_on_c, 0, 74, 81
2, 136918, Note_off_c, 0, 74, 74
2, 137040, Note_on_c, 0, 79, 84
2, 137158, Note_off_c, 0, 79, 77
2, 137280, Note_on_c, 0, 77, 81
2, 137518, Note_off_c, 0, 77, 74
2, 137520, Note_on_c, 0, 76, 71
2, 137590, Note_off_c, 0, 76, 65
2, 137640, Note_on_c, 0, 71, 73
2, 137678, Note_off_c, 0, 71, 67
2, 137680, Note_on_c, 0, 69, 68
2, 137718, Note_off_c, 0, 69, 62
2, 137720, Note_on_c, 0, 68, 72
2, 137758, Note_off_c, 0, 68, 66
2, 137760, Note_on_c, 0, 69, 80
2, 137878, Note_off_c, 0, 69, 73
2, 137880, Note_on_c, 0, 71, 72
2, 137998, Note_off_c, 0, 71, 66
2, 138000, Note_on_c, 0, 72, 81
2, 138058, Note_off_c, 0, 72, 74
2, 138120, Note_on_c, 0, 72, 85
2, 138178, Note_off_c, 0, 72, 78
2, 138240, Note_on_c, 0, 72, 79
2, 138600, Note_on_c, 0, 76, 77
2, 138638, Note_off_c, 0, 76, 70
2, 138640, Note_on_c, 0, 74, 73
2, 138678, Note_off_c, 0, 74, 67
2, 138680, Note_on_c, 0, 72, 81
2, 138718, Note_off_c, 0, 72, 72
2, 138718, Note_off_c, 0, 72, 74
2, 138720, Note_on_c, 0, 74, 72
2, 138838, Note_off_c, 0, 74, 66
2, 138840, Note_on_c, 0, 76, 81
2, 138958, Note_off_c, 0, 76, 74
2, 138960, Note_on_c, 0, 77, 85
2, 139018, Note_off_c, 0, 77, 78
2, 139080, Note_on_c, 0, 77, 86
2, 139138, Note_off_c, 0, 77, 79
2, 139200, Note_on_c, 0, 77, 84
2, 139560, Note_on_c, 0, 79, 81
2, 139598, Note_off_c, 0, 79, 74
2, 139600, Note_on_c, 0, 77, 63
2, 139638, Note_off_c, 0, 77, 58
2, 139640, Note_on_c, 0, 76, 61
2, 139678, Note_off_c, 0, 77, 77
2, 139678, Note_off_c, 0, 76, 56
2, 139680, Note_on_c, 0, 77, 81
2, 139798, Note_off_c, 0, 77, 74
2, 139800, Note_on_c, 0, 79, 86
2, 139918, Note_off_c, 0, 79, 79
2, 139920, Note_on_c, 0, 81, 85
2, 139978, Note_off_c, 0, 81, 78
2, 140040, Note_on_c, 0, 81, 83
2, 140098, Note_off_c, 0, 81, 76
2, 140160, Note_on_c, 0, 81, 84
2, 140278, Note_off_c, 0, 81, 77
2, 140280, Note_on_c, 0, 79, 81
2, 140398, Note_off_c, 0, 79, 74
2, 140400, Note_on_c, 0, 77, 79
2, 140458, Note_off_c, 0, 77, 72
2, 140520, Note_on_c, 0, 76, 81
2, 140578, Note_off_c, 0, 76, 74
2, 140640, Note_on_c, 0, 76, 85
2, 140758, Note_off_c, 0, 76, 78
2, 140760, Note_on_c, 0, 74, 78
2, 140878, Note_off_c, 0, 74, 71
2, 140880, Note_on_c, 0, 72, 81
2, 140938, Note_off_c, 0, 72, 74
2, 141000, Note_on_c, 0, 71, 67
2, 141058, Note_off_c, 0, 71, 61
2, 141120, Note_on_c, 0, 79, 80
2, 141438, Note_off_c, 0, 79, 73
2, 141440, Note_on_c, 0, 76, 61
2, 141518, Note_off_c, 0, 76, 56
2, 141520, Note_on_c, 0, 72, 57
2, 141598, Note_off_c, 0, 72, 52
2, 141600, Note_on_c, 0, 71, 72
2, 141678, Note_off_c, 0, 71, 66
2, 141680, Note_on_c, 0, 74, 51
2, 141758, Note_off_c, 0, 74, 47
2, 141760, Note_on_c, 0, 67, 12
2, 141838, Note_off_c, 0, 67, 11
2, 141840, Note_on_c, 0, 72, 63
2, 141918, Note_off_c, 0, 72, 58
2, 141920, Note_on_c, 0, 76, 40
2, 141998, Note_off_c, 0, 76, 37
2, 142000, Note_on_c, 0, 67, 46
2, 142078, Note_off_c, 0, 67, 42
2, 142080, Note_on_c, 0, 74, 63
2, 142398, Note_off_c, 0, 74, 58
2, 142400, Note_on_c, 0, 71, 29
2, 142478, Note_off_c, 0, 71, 27
2, 142480, Note_on_c, 0, 67, 58
2, 142558, Note_off_c, 0, 67, 53
2, 142560, Note_on_c, 0, 66, 57
2, 142638, Note_off_c, 0, 66, 52
2, 142640, Note_on_c, 0, 67, 56
2, 142718, Note_off_c, 0, 67, 51
2, 142720, Note_on_c, 0, 62, 24
2, 142798, Note_off_c, 0, 62, 22
2, 142800, Note_on_c, 0, 65, 62
2, 142878, Note_off_c, 0, 65, 57
2, 142880, Note_on_c, 0, 67, 58
2, 142958, Note_off_c, 0, 67, 53
2, 142960, Note_on_c, 0, 62, 56
2, 143038, Note_off_c, 0, 62, 51
2, 143040, Note_on_c, 0, 79, 79
2, 143358, Note_off_c, 0, 79, 72
2, 143360, Note_on_c, 0, 76, 61
2, 143438, Note_off_c, 0, 76, 56
2, 143440, Note_on_c, 0, 72, 56
2, 143518, Note_off_c, 0, 72, 51
2, 143520, Note_on_c, 0, 71, 63
2, 143598, Note_off_c, 0, 71, 58
2, 143600, Note_on_c, 0, 74, 57
2, 143678, Note_off_c, 0, 74, 52
2, 143680, Note_on_c, 0, 67, 72
2, 143758, Note_off_c, 0, 67, 66
2, 143760, Note_on_c, 0, 72, 63
2, 143838, Note_off_c, 0, 72, 58
2, 143840, Note_on_c, 0, 76, 50
2, 143918, Note_off_c, 0, 76, 46
2, 143920, Note_on_c, 0, 67, 60
2, 143998, Note_off_c, 0, 67, 55
2, 144000, Note_on_c, 0, 74, 61
2, 144318, Note_off_c, 0, 74, 56
2, 144320, Note_on_c, 0, 71, 41
2, 144398, Note_off_c, 0, 71, 38
2, 144400, Note_on_c, 0, 67, 33
2, 144478, Note_off_c, 0, 67, 30
2, 144480, Note_on_c, 0, 66, 49
2, 144558, Note_off_c, 0, 66, 45
2, 144560, Note_on_c, 0, 67, 60
2, 144638, Note_off_c, 0, 67, 55
2, 144640, Note_on_c, 0, 62, 47
2, 144718, Note_off_c, 0, 62, 43
2, 144720, Note_on_c, 0, 65, 58
2, 144798, Note_off_c, 0, 65, 53
2, 144800, Note_on_c, 0, 67, 63
2, 144878, Note_off_c, 0, 67, 58
2, 144880, Note_on_c, 0, 62, 52
2, 144958, Note_off_c, 0, 62, 48
2, 144960, Note_on_c, 0, 64, 52
2, 145038, Note_off_c, 0, 64, 48
2, 145040, Note_on_c, 0, 60, 57
2, 145118, Note_off_c, 0, 60, 52
2, 145120, Note_on_c, 0, 64, 47
2, 145198, Note_off_c, 0, 64, 43
2, 145200, Note_on_c, 0, 67, 70
2, 145278, Note_off_c, 0, 67, 64
2, 145280, Note_on_c, 0, 64, 67
2, 145358, Note_off_c, 0, 64, 61
2, 145360, Note_on_c, 0, 67, 74
2, 145438, Note_off_c, 0, 67, 68
2, 145440, Note_on_c, 0, 72, 70
2, 145518, Note_off_c, 0, 72, 64
2, 145520, Note_on_c, 0, 67, 70
2, 145598, Note_off_c, 0, 67, 64
2, 145600, Note_on_c, 0, 72, 74
2, 145678, Note_off_c, 0, 72, 68
2, 145680, Note_on_c, 0, 76, 83
2, 145758, Note_off_c, 0, 76, 76
2, 145760, Note_on_c, 0, 72, 72
2, 145838, Note_off_c, 0, 72, 66
2, 145840, Note_on_c, 0, 76, 83
2, 145918, Note_off_c, 0, 76, 76
2, 145920, Note_on_c, 0, 79, 67
2, 145998, Note_off_c, 0, 79, 61
2, 146000, Note_on_c, 0, 76, 70
2, 146078, Note_off_c, 0, 76, 64
2, 146080, Note_on_c, 0, 79, 69
2, 146158, Note_off_c, 0, 79, 63
2, 146160, Note_on_c, 0, 82, 92
2, 146238, Note_off_c, 0, 82, 84
2, 146240, Note_on_c, 0, 79, 74
2, 146318, Note_off_c, 0, 79, 68
2, 146320, Note_on_c, 0, 76, 57
2, 146398, Note_off_c, 0, 76, 52
2, 146400, Note_on_c, 0, 72, 66
2, 146478, Note_off_c, 0, 72, 60
2, 146480, Note_on_c, 0, 70, 74
2, 146558, Note_off_c, 0, 70, 68
2, 146560, Note_on_c, 0, 67, 63
2, 146638, Note_off_c, 0, 67, 58
2, 146640, Note_on_c, 0, 64, 72
2, 146718, Note_off_c, 0, 64, 66
2, 146720, Note_on_c, 0, 60, 57
2, 146798, Note_off_c, 0, 60, 52
2, 146800, Note_on_c, 0, 58, 70
2, 146878, Note_off_c, 0, 58, 64
2, 146880, Note_on_c, 0, 57, 61
2, 146958, Note_off_c, 0, 57, 56
2, 147000, Note_on_c, 0, 81, 51
2, 147118, Note_off_c, 0, 81, 47
2, 147120, Note_on_c, 0, 80, 60
2, 147238, Note_off_c, 0, 80, 55
2, 147240, Note_on_c, 0, 81, 62
2, 147358, Note_off_c, 0, 81, 57
2, 147360, Note_on_c, 0, 80, 69
2, 147478, Note_off_c, 0, 80, 63
2, 147480, Note_on_c, 0, 81, 66
2, 147598, Note_off_c, 0, 81, 60
2, 147600, Note_on_c, 0, 80, 69
2, 147718, Note_off_c, 0, 80, 63
2, 147720, Note_on_c, 0, 81, 62
2, 147838, Note_off_c, 0, 81, 57
2, 147840, Note_on_c, 0, 72, 61
2, 148558, Note_off_c, 0, 72, 56
2, 148560, Note_on_c, 0, 71, 46
2, 148560, Note_on_c, 0, 76, 60
2, 148678, Note_off_c, 0, 76, 55
2, 148680, Note_on_c, 0, 74, 63
2, 148798, Note_off_c, 0, 71, 42
2, 148798, Note_off_c, 0, 74, 58
2, 148800, Note_on_c, 0, 72, 72
2, 148878, Note_off_c, 0, 72, 66
2, 148880, Note_on_c, 0, 67, 56
2, 148958, Note_off_c, 0, 67, 51
2, 148960, Note_on_c, 0, 72, 69
2, 149038, Note_off_c, 0, 72, 63
2, 149040, Note_on_c, 0, 76, 69
2, 149118, Note_off_c, 0, 76, 63
2, 149120, Note_on_c, 0, 72, 49
2, 149198, Note_off_c, 0, 72, 45
2, 149200, Note_on_c, 0, 76, 78
2, 149278, Note_off_c, 0, 76, 71
2, 149280, Note_on_c, 0, 79, 72
2, 149358, Note_off_c, 0, 79, 66
2, 149360, Note_on_c, 0, 76, 72
2, 149438, Note_off_c, 0, 76, 66
2, 149440, Note_on_c, 0, 79, 68
2, 149518, Note_off_c, 0, 79, 62
2, 149520, Note_on_c, 0, 84, 90
2, 149598, Note_off_c, 0, 84, 82
2, 149600, Note_on_c, 0, 86, 78
2, 149678, Note_off_c, 0, 86, 71
2, 149680, Note_on_c, 0, 84, 73
2, 149758, Note_off_c, 0, 84, 67
2, 149760, Note_on_c, 0, 82, 63
2, 149838, Note_off_c, 0, 82, 58
2, 149840, Note_on_c, 0, 81, 60
2, 149918, Note_off_c, 0, 81, 55
2, 149920, Note_on_c, 0, 79, 62
2, 149998, Note_off_c, 0, 79, 57
2, 150000, Note_on_c, 0, 77, 62
2, 150078, Note_off_c, 0, 77, 57
2, 150080, Note_on_c, 0, 76, 66
2, 150158, Note_off_c, 0, 76, 60
2, 150160, Note_on_c, 0, 74, 73
2, 150238, Note_off_c, 0, 74, 67
2, 150240, Note_on_c, 0, 72, 61
2, 150318, Note_off_c, 0, 72, 56
2, 150320, Note_on_c, 0, 74, 34
2, 150398, Note_off_c, 0, 74, 31
2, 150400, Note_on_c, 0, 72, 52
2, 150478, Note_off_c, 0, 72, 48
2, 150480, Note_on_c, 0, 70, 63
2, 150558, Note_off_c, 0, 70, 58
2, 150560, Note_on_c, 0, 69, 49
2, 150638, Note_off_c, 0, 69, 45
2, 150640, Note_on_c, 0, 68, 49
2, 150718, Note_off_c, 0, 68, 45
2, 150720, Note_on_c, 0, 69, 61
2, 150798, Note_off_c, 0, 69, 56
2, 150840, Note_on_c, 0, 81, 52
2, 150958, Note_off_c, 0, 81, 48
2, 150960, Note_on_c, 0, 80, 56
2, 151078, Note_off_c, 0, 80, 51
2, 151080, Note_on_c, 0, 81, 63
2, 151198, Note_off_c, 0, 81, 58
2, 151200, Note_on_c, 0, 80, 68
2, 151318, Note_off_c, 0, 80, 62
2, 151320, Note_on_c, 0, 81, 70
2, 151438, Note_off_c, 0, 81, 64
2, 151440, Note_on_c, 0, 80, 67
2, 151558, Note_off_c, 0, 80, 61
2, 151560, Note_on_c, 0, 81, 66
2, 151678, Note_off_c, 0, 81, 60
2, 151800, Note_on_c, 0, 84, 68
2, 151918, Note_off_c, 0, 84, 62
2, 151920, Note_on_c, 0, 83, 67
2, 152038, Note_off_c, 0, 83, 61
2, 152040, Note_on_c, 0, 84, 83
2, 152158, Note_off_c, 0, 84, 76
2, 152160, Note_on_c, 0, 83, 104
2, 152278, Note_off_c, 0, 83, 95
2, 152280, Note_on_c, 0, 84, 86
2, 152398, Note_off_c, 0, 84, 79
2, 152400, Note_on_c, 0, 83, 80
2, 152518, Note_off_c, 0, 83, 73
2, 152520, Note_on_c, 0, 84, 74
2, 152638, Note_off_c, 0, 84, 68
2, 152640, Note_on_c, 0, 84, 80
2, 152666, Control_c, 0, 64, 127
2, 152758, Note_off_c, 0, 84, 73
2, 152760, Note_on_c, 0, 79, 74
2, 152878, Note_off_c, 0, 79, 68
2, 152880, Note_on_c, 0, 79, 66
2, 152950, Note_off_c, 0, 79, 60
2, 153000, Note_on_c, 0, 79, 63
2, 153070, Note_off_c, 0, 79, 58
2, 153094, Control_c, 0, 64, 0
2, 153120, Note_on_c, 0, 81, 66
2, 153171, Control_c, 0, 64, 127
2, 153238, Note_off_c, 0, 81, 60
2, 153240, Note_on_c, 0, 79, 72
2, 153358, Note_off_c, 0, 79, 66
2, 153360, Note_on_c, 0, 77, 66
2, 153430, Note_off_c, 0, 77, 60
2, 153480, Note_on_c, 0, 76, 63
2, 153550, Note_off_c, 0, 76, 58
2, 153574, Control_c, 0, 64, 0
2, 153600, Note_on_c, 0, 76, 68
2, 153626, Control_c, 0, 64, 127
2, 154054, Control_c, 0, 64, 0
2, 154078, Note_off_c, 0, 76, 62
2, 154080, Note_on_c, 0, 74, 66
2, 154131, Control_c, 0, 64, 127
2, 154138, Note_off_c, 0, 74, 60
2, 154140, Note_on_c, 0, 76, 67
2, 154198, Note_off_c, 0, 76, 61
2, 154200, Note_on_c, 0, 74, 50
2, 154258, Note_off_c, 0, 74, 46
2, 154260, Note_on_c, 0, 76, 58
2, 154318, Note_off_c, 0, 76, 53
2, 154320, Note_on_c, 0, 74, 62
2, 154366, Note_off_c, 0, 74, 57
2, 154368, Note_on_c, 0, 76, 67
2, 154414, Note_off_c, 0, 76, 61
2, 154416, Note_on_c, 0, 74, 69
2, 154462, Note_off_c, 0, 74, 63
2, 154464, Note_on_c, 0, 72, 60
2, 154510, Note_off_c, 0, 72, 55
2, 154512, Note_on_c, 0, 74, 63
2, 154534, Control_c, 0, 64, 0
2, 154558, Note_off_c, 0, 74, 58
2, 154560, Note_on_c, 0, 72, 67
2, 154586, Control_c, 0, 64, 127
2, 155014, Control_c, 0, 64, 0
2, 155038, Note_off_c, 0, 72, 61
2, 155040, Note_on_c, 0, 67, 70
2, 155091, Control_c, 0, 64, 127
2, 155398, Note_off_c, 0, 67, 64
2, 155400, Note_on_c, 0, 71, 64
2, 155438, Note_off_c, 0, 71, 59
2, 155440, Note_on_c, 0, 69, 41
2, 155478, Note_off_c, 0, 69, 38
2, 155480, Note_on_c, 0, 67, 49
2, 155494, Control_c, 0, 64, 0
2, 155518, Note_off_c, 0, 67, 45
2, 155520, Note_on_c, 0, 79, 51
2, 155638, Note_off_c, 0, 79, 47
2, 155760, Note_on_c, 0, 77, 74
2, 155878, Note_off_c, 0, 77, 68
2, 156000, Note_on_c, 0, 76, 73
2, 156118, Note_off_c, 0, 76, 67
2, 156240, Note_on_c, 0, 74, 69
2, 156478, Note_off_c, 0, 74, 63
2, 156480, Note_on_c, 0, 72, 70
2, 156718, Note_off_c, 0, 72, 64
2, 156960, Note_on_c, 0, 67, 70
2, 157318, Note_off_c, 0, 67, 64
2, 157320, Note_on_c, 0, 71, 64
2, 157358, Note_off_c, 0, 71, 59
2, 157360, Note_on_c, 0, 69, 41
2, 157398, Note_off_c, 0, 69, 38
2, 157400, Note_on_c, 0, 67, 49
2, 157438, Note_off_c, 0, 67, 45
2, 157440, Note_on_c, 0, 79, 51
2, 157558, Note_off_c, 0, 79, 47
2, 157680, Note_on_c, 0, 77, 74
2, 157798, Note_off_c, 0, 77, 68
2, 157920, Note_on_c, 0, 76, 73
2, 158038, Note_off_c, 0, 76, 67
2, 158160, Note_on_c, 0, 74, 69
2, 158398, Note_off_c, 0, 74, 63
2, 158400, Note_on_c, 0, 72, 70
2, 158638, Note_off_c, 0, 72, 64
2, 158840, Note_on_c, 0, 67, 52
2, 158880, Note_on_c, 0, 79, 81
2, 159118, Note_off_c, 0, 67, 48
2, 159238, Note_off_c, 0, 79, 74
2, 159240, Note_on_c, 0, 77, 68
2, 159278, Note_off_c, 0, 77, 62
2, 159280, Note_on_c, 0, 76, 70
2, 159318, Note_off_c, 0, 76, 64
2, 159320, Note_on_c, 0, 74, 41
2, 159358, Note_off_c, 0, 74, 38
2, 159360, Note_on_c, 0, 72, 71
2, 159598, Note_off_c, 0, 72, 65
2, 159800, Note_on_c, 0, 67, 52
2, 159840, Note_on_c, 0, 79, 81
2, 160078, Note_off_c, 0, 67, 48
2, 160198, Note_off_c, 0, 79, 74
2, 160200, Note_on_c, 0, 81, 77
2, 160258, Note_off_c, 0, 81, 70
2, 160260, Note_on_c, 0, 83, 77
2, 160318, Note_off_c, 0, 83, 70
2, 160320, Note_on_c, 0, 84, 70
2, 160558, Note_off_c, 0, 84, 64
2, 160800, Note_on_c, 0, 79, 59
2, 160878, Note_off_c, 0, 79, 54
2, 160880, Note_on_c, 0, 81, 59
2, 160958, Note_off_c, 0, 81, 54
2, 160960, Note_on_c, 0, 79, 70
2, 161038, Note_off_c, 0, 79, 64
2, 161040, Note_on_c, 0, 77, 60
2, 161118, Note_off_c, 0, 77, 55
2, 161120, Note_on_c, 0, 76, 62
2, 161198, Note_off_c, 0, 76, 57
2, 161200, Note_on_c, 0, 74, 62
2, 161278, Note_off_c, 0, 74, 57
2, 161280, Note_on_c, 0, 72, 69
2, 161518, Note_off_c, 0, 72, 63
2, 161760, Note_on_c, 0, 78, 70
2, 161838, Note_off_c, 0, 78, 64
2, 161840, Note_on_c, 0, 79, 62
2, 161918, Note_off_c, 0, 79, 57
2, 161920, Note_on_c, 0, 80, 75
2, 161998, Note_off_c, 0, 80, 69
2, 162000, Note_on_c, 0, 81, 77
2, 162078, Note_off_c, 0, 81, 70
2, 162080, Note_on_c, 0, 82, 75
2, 162158, Note_off_c, 0, 82, 69
2, 162160, Note_on_c, 0, 83, 73
2, 162238, Note_off_c, 0, 83, 67
2, 162240, Note_on_c, 0, 84, 81
2, 162478, Note_off_c, 0, 84, 74
2, 162480, Note_on_c, 0, 67, 74
2, 162658, Note_off_c, 0, 67, 68
2, 162660, Note_on_c, 0, 72, 64
2, 162718, Note_off_c, 0, 72, 59
2, 162720, Note_on_c, 0, 76, 73
2, 162720, Note_on_c, 0, 67, 64
2, 162838, Note_off_c, 0, 67, 59
2, 162838, Note_off_c, 0, 76, 67
2, 162960, Note_on_c, 0, 74, 52
2, 162960, Note_on_c, 0, 65, 70
2, 163078, Note_off_c, 0, 65, 64
2, 163078, Note_off_c, 0, 74, 48
2, 163200, Note_on_c, 0, 74, 36
2, 163200, Note_on_c, 0, 65, 49
2, 163678, Note_off_c, 0, 65, 45
2, 163678, Note_off_c, 0, 74, 33
2, 163680, Note_on_c, 0, 72, 28
2, 163680, Note_on_c, 0, 64, 41
2, 163918, Note_off_c, 0, 64, 38
2, 163918, Note_off_c, 0, 72, 26
2, 164160, Note_on_c, 0, 77, 92
2, 164160, Note_on_c, 0, 74, 86
2, 164160, Note_on_c, 0, 81, 90
2, 164160, Note_on_c, 0, 69, 80
2, 164398, Note_off_c, 0, 69, 73
2, 164398, Note_off_c, 0, 81, 82
2, 164398, Note_off_c, 0, 74, 79
2, 164398, Note_off_c, 0, 77, 84
2, 164640, Note_on_c, 0, 65, 74
2, 164640, Note_on_c, 0, 67, 72
2, 164640, Note_on_c, 0, 71, 72
2, 164640, Note_on_c, 0, 62, 78
2, 164878, Note_off_c, 0, 62, 71
2, 164878, Note_off_c, 0, 71, 66
2, 164878, Note_off_c, 0, 67, 66
2, 164878, Note_off_c, 0, 65, 68
2, 165120, Note_on_c, 0, 67, 90
2, 165120, Note_on_c, 0, 72, 90
2, 165120, Note_on_c, 0, 64, 78
2, 165120, Note_on_c, 0, 60, 70
2, 165358, Note_off_c, 0, 60, 64
2, 165358, Note_off_c, 0, 64, 71
2, 165358, Note_off_c, 0, 72, 82
2, 165358, Note_off_c, 0, 67, 82
2, 165358, End_track
3, 0, Start_track
3, 0, Title_t, "Piano L.H."
3, 0, MIDI_port, 0
3, 0, Channel_prefix, 1
3, 0, Control_c, 1, 10, 64
3, 980, Control_c, 1, 0, 0
3, 985, Program_c, 1, 0
3, 990, Control_c, 1, 7, 127
3, 995, Control_c, 1, 10, 82
3, 1000, Control_c, 1, 91, 76
3, 1005, Control_c, 1, 93, 0
3, 1010, Control_c, 1, 94, 0
3, 1015, Control_c, 1, 11, 127
3, 2160, Note_on_c, 1, 48, 60
3, 2302, Note_off_c, 1, 48, 55
3, 2400, Note_on_c, 1, 52, 61
3, 2542, Note_off_c, 1, 52, 56
3, 2640, Note_on_c, 1, 55, 50
3, 2782, Note_off_c, 1, 55, 46
3, 2880, Note_on_c, 1, 60, 57
3, 2897, Control_c, 1, 64, 127
3, 3022, Note_off_c, 1, 60, 52
3, 3120, Note_on_c, 1, 48, 51
3, 3262, Note_off_c, 1, 48, 47
3, 3343, Control_c, 1, 64, 0
3, 3360, Note_on_c, 1, 55, 47
3, 3394, Control_c, 1, 64, 127
3, 3502, Note_off_c, 1, 55, 43
3, 3600, Note_on_c, 1, 43, 60
3, 3742, Note_off_c, 1, 43, 55
3, 3814, Control_c, 1, 64, 0
3, 4080, Note_on_c, 1, 48, 57
3, 4222, Note_off_c, 1, 48, 52
3, 4320, Note_on_c, 1, 52, 63
3, 4462, Note_off_c, 1, 52, 58
3, 4560, Note_on_c, 1, 55, 58
3, 4702, Note_off_c, 1, 55, 53
3, 4800, Note_on_c, 1, 60, 68
3, 4942, Note_off_c, 1, 60, 62
3, 5040, Note_on_c, 1, 48, 47
3, 5182, Note_off_c, 1, 48, 43
3, 5280, Note_on_c, 1, 55, 57
3, 5422, Note_off_c, 1, 55, 52
3, 5520, Note_on_c, 1, 43, 57
3, 5662, Note_off_c, 1, 43, 52
3, 5760, Note_on_c, 1, 57, 51
3, 5777, Control_c, 1, 64, 127
3, 5998, Note_off_c, 1, 57, 47
3, 6000, Note_on_c, 1, 60, 49
3, 6223, Control_c, 1, 64, 0
3, 6238, Note_off_c, 1, 60, 45
3, 6240, Note_on_c, 1, 55, 56
3, 6274, Control_c, 1, 64, 127
3, 6478, Note_off_c, 1, 55, 51
3, 6480, Note_on_c, 1, 60, 36
3, 6694, Control_c, 1, 64, 0
3, 6718, Note_off_c, 1, 60, 33
3, 6720, Note_on_c, 1, 53, 63
3, 6737, Control_c, 1, 64, 127
3, 6958, Note_off_c, 1, 53, 58
3, 6960, Note_on_c, 1, 60, 34
3, 7183, Control_c, 1, 64, 0
3, 7198, Note_off_c, 1, 60, 31
3, 7200, Note_on_c, 1, 52, 61
3, 7234, Control_c, 1, 64, 127
3, 7438, Note_off_c, 1, 52, 56
3, 7440, Note_on_c, 1, 60, 51
3, 7654, Control_c, 1, 64, 0
3, 7678, Note_off_c, 1, 60, 47
3, 7920, Note_on_c, 1, 67, 60
3, 7920, Note_on_c, 1, 59, 41
3, 8158, Note_off_c, 1, 59, 38
3, 8158, Note_off_c, 1, 67, 55
3, 8400, Note_on_c, 1, 67, 63
3, 8400, Note_on_c, 1, 60, 63
3, 8638, Note_off_c, 1, 60, 58
3, 8638, Note_off_c, 1, 67, 58
3, 8640, Note_on_c, 1, 59, 57
3, 8640, Note_on_c, 1, 55, 49
3, 9118, Note_off_c, 1, 55, 45
3, 9118, Note_off_c, 1, 59, 52
3, 9600, Note_on_c, 1, 36, 66
3, 9670, Note_off_c, 1, 36, 60
3, 9720, Note_on_c, 1, 40, 73
3, 9790, Note_off_c, 1, 40, 67
3, 9840, Note_on_c, 1, 43, 70
3, 9910, Note_off_c, 1, 43, 64
3, 9960, Note_on_c, 1, 48, 66
3, 10030, Note_off_c, 1, 48, 60
3, 10080, Note_on_c, 1, 40, 73
3, 10150, Note_off_c, 1, 40, 67
3, 10200, Note_on_c, 1, 52, 62
3, 10270, Note_off_c, 1, 52, 57
3, 10320, Note_on_c, 1, 43, 67
3, 10390, Note_off_c, 1, 43, 61
3, 10440, Note_on_c, 1, 55, 50
3, 10510, Note_off_c, 1, 55, 46
3, 10560, Note_on_c, 1, 48, 73
3, 10678, Note_off_c, 1, 48, 67
3, 10680, Note_on_c, 1, 52, 78
3, 10798, Note_off_c, 1, 52, 71
3, 10800, Note_on_c, 1, 55, 66
3, 10918, Note_off_c, 1, 55, 60
3, 10920, Note_on_c, 1, 60, 58
3, 11038, Note_off_c, 1, 60, 53
3, 11040, Note_on_c, 1, 43, 70
3, 11158, Note_off_c, 1, 43, 64
3, 11160, Note_on_c, 1, 47, 60
3, 11278, Note_off_c, 1, 47, 55
3, 11280, Note_on_c, 1, 50, 66
3, 11398, Note_off_c, 1, 50, 60
3, 11400, Note_on_c, 1, 55, 47
3, 11518, Note_off_c, 1, 55, 43
3, 11520, Note_on_c, 1, 36, 70
3, 11590, Note_off_c, 1, 36, 64
3, 11640, Note_on_c, 1, 40, 74
3, 11710, Note_off_c, 1, 40, 68
3, 11760, Note_on_c, 1, 43, 60
3, 11830, Note_off_c, 1, 43, 55
3, 11880, Note_on_c, 1, 48, 57
3, 11950, Note_off_c, 1, 48, 52
3, 12000, Note_on_c, 1, 40, 74
3, 12070, Note_off_c, 1, 40, 68
3, 12120, Note_on_c, 1, 52, 39
3, 12190, Note_off_c, 1, 52, 36
3, 12240, Note_on_c, 1, 43, 70
3, 12310, Note_off_c, 1, 43, 64
3, 12360, Note_on_c, 1, 55, 63
3, 12430, Note_off_c, 1, 55, 58
3, 12480, Note_on_c, 1, 48, 68
3, 12598, Note_off_c, 1, 48, 62
3, 12600, Note_on_c, 1, 52, 63
3, 12718, Note_off_c, 1, 52, 58
3, 12720, Note_on_c, 1, 55, 46
3, 12838, Note_off_c, 1, 55, 42
3, 12840, Note_on_c, 1, 60, 46
3, 12958, Note_off_c, 1, 60, 42
3, 12960, Note_on_c, 1, 43, 62
3, 13078, Note_off_c, 1, 43, 57
3, 13080, Note_on_c, 1, 47, 66
3, 13198, Note_off_c, 1, 47, 60
3, 13200, Note_on_c, 1, 50, 50
3, 13318, Note_off_c, 1, 50, 46
3, 13320, Note_on_c, 1, 55, 38
3, 13438, Note_off_c, 1, 55, 35
3, 13440, Note_on_c, 1, 57, 56
3, 13457, Control_c, 1, 64, 127
3, 13558, Note_off_c, 1, 57, 51
3, 13560, Note_on_c, 1, 60, 36
3, 13678, Note_off_c, 1, 60, 33
3, 13680, Note_on_c, 1, 57, 66
3, 13798, Note_off_c, 1, 57, 60
3, 13800, Note_on_c, 1, 60, 34
3, 13903, Control_c, 1, 64, 0
3, 13918, Note_off_c, 1, 60, 31
3, 13920, Note_on_c, 1, 55, 66
3, 13954, Control_c, 1, 64, 127
3, 14038, Note_off_c, 1, 55, 60
3, 14040, Note_on_c, 1, 60, 30
3, 14158, Note_off_c, 1, 60, 28
3, 14160, Note_on_c, 1, 55, 57
3, 14278, Note_off_c, 1, 55, 52
3, 14280, Note_on_c, 1, 60, 45
3, 14374, Control_c, 1, 64, 0
3, 14398, Note_off_c, 1, 60, 41
3, 14400, Note_on_c, 1, 53, 73
3, 14417, Control_c, 1, 64, 127
3, 14518, Note_off_c, 1, 53, 67
3, 14520, Note_on_c, 1, 60, 41
3, 14638, Note_off_c, 1, 60, 38
3, 14640, Note_on_c, 1, 53, 63
3, 14758, Note_off_c, 1, 53, 58
3, 14760, Note_on_c, 1, 60, 34
3, 14863, Control_c, 1, 64, 0
3, 14878, Note_off_c, 1, 60, 31
3, 14880, Note_on_c, 1, 52, 61
3, 14914, Control_c, 1, 64, 127
3, 14998, Note_off_c, 1, 52, 56
3, 15000, Note_on_c, 1, 60, 41
3, 15118, Note_off_c, 1, 60, 38
3, 15120, Note_on_c, 1, 52, 70
3, 15238, Note_off_c, 1, 52, 64
3, 15240, Note_on_c, 1, 60, 51
3, 15334, Control_c, 1, 64, 0
3, 15358, Note_off_c, 1, 60, 47
3, 15600, Note_on_c, 1, 53, 62
3, 15600, Note_on_c, 1, 62, 62
3, 15718, Note_off_c, 1, 62, 57
3, 15718, Note_off_c, 1, 53, 57
3, 15840, Note_on_c, 1, 55, 45
3, 15840, Note_on_c, 1, 64, 61
3, 16078, Note_off_c, 1, 64, 56
3, 16080, Note_on_c, 1, 62, 62
3, 16318, Note_off_c, 1, 55, 41
3, 16318, Note_off_c, 1, 62, 57
3, 16320, Note_on_c, 1, 60, 73
3, 16320, Note_on_c, 1, 64, 60
3, 16798, Note_off_c, 1, 64, 55
3, 16798, Note_off_c, 1, 60, 67
3, 17520, Note_on_c, 1, 57, 47
3, 17520, Note_on_c, 1, 62, 63
3, 17520, Note_on_c, 1, 53, 58
3, 17662, Note_off_c, 1, 53, 53
3, 17662, Note_off_c, 1, 62, 58
3, 17662, Note_off_c, 1, 57, 43
3, 17760, Note_on_c, 1, 55, 49
3, 17760, Note_on_c, 1, 60, 60
3, 17760, Note_on_c, 1, 64, 63
3, 17998, Note_off_c, 1, 64, 58
3, 17998, Note_off_c, 1, 60, 55
3, 18000, Note_on_c, 1, 62, 44
3, 18000, Note_on_c, 1, 65, 61
3, 18238, Note_off_c, 1, 65, 56
3, 18238, Note_off_c, 1, 55, 45
3, 18238, Note_off_c, 1, 62, 40
3, 18240, Note_on_c, 1, 64, 69
3, 18240, Note_on_c, 1, 60, 67
3, 18257, Control_c, 1, 64, 127
3, 18703, Control_c, 1, 64, 0
3, 18718, Note_off_c, 1, 60, 61
3, 18718, Note_off_c, 1, 64, 63
3, 19440, Note_on_c, 1, 53, 58
3, 19440, Note_on_c, 1, 62, 63
3, 19440, Note_on_c, 1, 57, 47
3, 19582, Note_off_c, 1, 57, 43
3, 19582, Note_off_c, 1, 62, 58
3, 19582, Note_off_c, 1, 53, 53
3, 19680, Note_on_c, 1, 64, 63
3, 19680, Note_on_c, 1, 60, 60
3, 19680, Note_on_c, 1, 55, 49
3, 19918, Note_off_c, 1, 60, 55
3, 19918, Note_off_c, 1, 64, 58
3, 19920, Note_on_c, 1, 65, 61
3, 19920, Note_on_c, 1, 62, 44
3, 20158, Note_off_c, 1, 62, 40
3, 20158, Note_off_c, 1, 55, 45
3, 20158, Note_off_c, 1, 65, 56
3, 20160, Note_on_c, 1, 60, 79
3, 20160, Note_on_c, 1, 64, 69
3, 20278, Note_off_c, 1, 64, 63
3, 20278, Note_off_c, 1, 60, 72
3, 20400, Note_on_c, 1, 55, 71
3, 20518, Note_off_c, 1, 55, 65
3, 20640, Note_on_c, 1, 36, 61
3, 20640, Note_on_c, 1, 48, 55
3, 21118, Note_off_c, 1, 48, 50
3, 21118, Note_off_c, 1, 36, 56
3, 21120, Note_on_c, 1, 60, 36
3, 21238, Note_off_c, 1, 60, 33
3, 21240, Note_on_c, 1, 67, 36
3, 21358, Note_off_c, 1, 67, 33
3, 21360, Note_on_c, 1, 66, 47
3, 21478, Note_off_c, 1, 66, 43
3, 21480, Note_on_c, 1, 67, 37
3, 21598, Note_off_c, 1, 67, 34
3, 21600, Note_on_c, 1, 60, 39
3, 21718, Note_off_c, 1, 60, 36
3, 21720, Note_on_c, 1, 67, 35
3, 21838, Note_off_c, 1, 67, 32
3, 21840, Note_on_c, 1, 62, 34
3, 21958, Note_off_c, 1, 62, 31
3, 21960, Note_on_c, 1, 67, 36
3, 22078, Note_off_c, 1, 67, 33
3, 22080, Note_on_c, 1, 64, 38
3, 22198, Note_off_c, 1, 64, 35
3, 22200, Note_on_c, 1, 67, 38
3, 22318, Note_off_c, 1, 67, 35
3, 22320, Note_on_c, 1, 65, 35
3, 22438, Note_off_c, 1, 65, 32
3, 22440, Note_on_c, 1, 67, 50
3, 22558, Note_off_c, 1, 67, 46
3, 22560, Note_on_c, 1, 64, 25
3, 22678, Note_off_c, 1, 64, 23
3, 22680, Note_on_c, 1, 67, 44
3, 22798, Note_off_c, 1, 67, 40
3, 22800, Note_on_c, 1, 58, 49
3, 22918, Note_off_c, 1, 58, 45
3, 22920, Note_on_c, 1, 67, 26
3, 23038, Note_off_c, 1, 67, 24
3, 23040, Note_on_c, 1, 59, 45
3, 23158, Note_off_c, 1, 59, 41
3, 23160, Note_on_c, 1, 67, 30
3, 23278, Note_off_c, 1, 67, 28
3, 23280, Note_on_c, 1, 59, 41
3, 23398, Note_off_c, 1, 59, 38
3, 23400, Note_on_c, 1, 67, 38
3, 23518, Note_off_c, 1, 67, 35
3, 23520, Note_on_c, 1, 60, 60
3, 23638, Note_off_c, 1, 60, 55
3, 23640, Note_on_c, 1, 67, 45
3, 23758, Note_off_c, 1, 67, 41
3, 23760, Note_on_c, 1, 62, 49
3, 23878, Note_off_c, 1, 62, 45
3, 23880, Note_on_c, 1, 67, 37
3, 23998, Note_off_c, 1, 67, 34
3, 24000, Note_on_c, 1, 60, 55
3, 24118, Note_off_c, 1, 60, 50
3, 24120, Note_on_c, 1, 67, 30
3, 24238, Note_off_c, 1, 67, 28
3, 24240, Note_on_c, 1, 66, 45
3, 24358, Note_off_c, 1, 66, 41
3, 24360, Note_on_c, 1, 67, 39
3, 24478, Note_off_c, 1, 67, 36
3, 24480, Note_on_c, 1, 59, 57
3, 24598, Note_off_c, 1, 59, 52
3, 24600, Note_on_c, 1, 67, 30
3, 24718, Note_off_c, 1, 67, 28
3, 24720, Note_on_c, 1, 66, 34
3, 24838, Note_off_c, 1, 66, 31
3, 24840, Note_on_c, 1, 67, 35
3, 24958, Note_off_c, 1, 67, 32
3, 24960, Note_on_c, 1, 59, 31
3, 25078, Note_off_c, 1, 59, 29
3, 25080, Note_on_c, 1, 67, 44
3, 25198, Note_off_c, 1, 67, 40
3, 25200, Note_on_c, 1, 66, 34
3, 25318, Note_off_c, 1, 66, 31
3, 25320, Note_on_c, 1, 67, 29
3, 25438, Note_off_c, 1, 67, 27
3, 25440, Note_on_c, 1, 59, 39
3, 25558, Note_off_c, 1, 59, 36
3, 25560, Note_on_c, 1, 67, 49
3, 25678, Note_off_c, 1, 67, 45
3, 25680, Note_on_c, 1, 60, 68
3, 25798, Note_off_c, 1, 60, 62
3, 25800, Note_on_c, 1, 67, 46
3, 25918, Note_off_c, 1, 67, 42
3, 25920, Note_on_c, 1, 62, 60
3, 26038, Note_off_c, 1, 62, 55
3, 26040, Note_on_c, 1, 67, 45
3, 26158, Note_off_c, 1, 67, 41
3, 26160, Note_on_c, 1, 64, 60
3, 26278, Note_off_c, 1, 64, 55
3, 26280, Note_on_c, 1, 67, 46
3, 26398, Note_off_c, 1, 67, 42
3, 26400, Note_on_c, 1, 65, 63
3, 26518, Note_off_c, 1, 65, 58
3, 26520, Note_on_c, 1, 67, 37
3, 26638, Note_off_c, 1, 67, 34
3, 26640, Note_on_c, 1, 62, 61
3, 26758, Note_off_c, 1, 62, 56
3, 26760, Note_on_c, 1, 67, 46
3, 26878, Note_off_c, 1, 67, 42
3, 26880, Note_on_c, 1, 59, 60
3, 26998, Note_off_c, 1, 59, 55
3, 27000, Note_on_c, 1, 67, 50
3, 27118, Note_off_c, 1, 67, 46
3, 27120, Note_on_c, 1, 62, 74
3, 27238, Note_off_c, 1, 62, 68
3, 27240, Note_on_c, 1, 67, 50
3, 27358, Note_off_c, 1, 67, 46
3, 27360, Note_on_c, 1, 59, 69
3, 27478, Note_off_c, 1, 59, 63
3, 27480, Note_on_c, 1, 67, 60
3, 27598, Note_off_c, 1, 67, 55
3, 27600, Note_on_c, 1, 55, 70
3, 27718, Note_off_c, 1, 55, 64
3, 27720, Note_on_c, 1, 67, 63
3, 27838, Note_off_c, 1, 67, 58
3, 27840, Note_on_c, 1, 60, 66
3, 27958, Note_off_c, 1, 60, 60
3, 27960, Note_on_c, 1, 67, 50
3, 28078, Note_off_c, 1, 67, 46
3, 28080, Note_on_c, 1, 64, 34
3, 28198, Note_off_c, 1, 64, 31
3, 28200, Note_on_c, 1, 67, 40
3, 28318, Note_off_c, 1, 67, 37
3, 28320, Note_on_c, 1, 60, 60
3, 28438, Note_off_c, 1, 60, 55
3, 28440, Note_on_c, 1, 67, 46
3, 28558, Note_off_c, 1, 67, 42
3, 28560, Note_on_c, 1, 64, 38
3, 28678, Note_off_c, 1, 64, 35
3, 28680, Note_on_c, 1, 67, 38
3, 28798, Note_off_c, 1, 67, 35
3, 28800, Note_on_c, 1, 60, 46
3, 28817, Control_c, 1, 64, 127
3, 28880, Note_on_c, 1, 64, 42
3, 28960, Note_on_c, 1, 69, 42
3, 29040, Note_on_c, 1, 72, 42
3, 29198, Note_off_c, 1, 72, 39
3, 29198, Note_off_c, 1, 69, 39
3, 29198, Note_off_c, 1, 64, 39
3, 29198, Note_off_c, 1, 60, 42
3, 29263, Control_c, 1, 64, 0
3, 29314, Control_c, 1, 64, 127
3, 29734, Control_c, 1, 64, 0
3, 29760, Note_on_c, 1, 59, 46
3, 29777, Control_c, 1, 64, 127
3, 29840, Note_on_c, 1, 62, 42
3, 29920, Note_on_c, 1, 67, 42
3, 30000, Note_on_c, 1, 71, 42
3, 30158, Note_off_c, 1, 71, 39
3, 30158, Note_off_c, 1, 67, 39
3, 30158, Note_off_c, 1, 62, 39
3, 30158, Note_off_c, 1, 59, 42
3, 30223, Control_c, 1, 64, 0
3, 30274, Control_c, 1, 64, 127
3, 30694, Control_c, 1, 64, 0
3, 30720, Note_on_c, 1, 57, 50
3, 30720, Note_on_c, 1, 62, 40
3, 30720, Note_on_c, 1, 54, 41
3, 30737, Control_c, 1, 64, 127
3, 30838, Note_off_c, 1, 54, 38
3, 30838, Note_off_c, 1, 62, 37
3, 30838, Note_off_c, 1, 57, 46
3, 31183, Control_c, 1, 64, 0
3, 31200, Note_on_c, 1, 59, 60
3, 31200, Note_on_c, 1, 55, 40
3, 31200, Note_on_c, 1, 62, 49
3, 31234, Control_c, 1, 64, 127
3, 31318, Note_off_c, 1, 62, 45
3, 31318, Note_off_c, 1, 55, 37
3, 31318, Note_off_c, 1, 59, 55
3, 31654, Control_c, 1, 64, 0
3, 31680, Note_on_c, 1, 50, 72
3, 31798, Note_off_c, 1, 50, 66
3, 31800, Note_on_c, 1, 62, 55
3, 31918, Note_off_c, 1, 62, 50
3, 31920, Note_on_c, 1, 61, 60
3, 32038, Note_off_c, 1, 61, 55
3, 32040, Note_on_c, 1, 62, 47
3, 32158, Note_off_c, 1, 62, 43
3, 32160, Note_on_c, 1, 61, 27
3, 32278, Note_off_c, 1, 61, 25
3, 32280, Note_on_c, 1, 62, 41
3, 32398, Note_off_c, 1, 62, 38
3, 32400, Note_on_c, 1, 60, 34
3, 32518, Note_off_c, 1, 60, 31
3, 32520, Note_on_c, 1, 62, 36
3, 32638, Note_off_c, 1, 62, 33
3, 32640, Note_on_c, 1, 59, 33
3, 32758, Note_off_c, 1, 59, 30
3, 32760, Note_on_c, 1, 62, 28
3, 32878, Note_off_c, 1, 62, 26
3, 32880, Note_on_c, 1, 55, 51
3, 32998, Note_off_c, 1, 55, 47
3, 33000, Note_on_c, 1, 62, 27
3, 33118, Note_off_c, 1, 62, 25
3, 33120, Note_on_c, 1, 59, 46
3, 33238, Note_off_c, 1, 59, 42
3, 33240, Note_on_c, 1, 62, 30
3, 33358, Note_off_c, 1, 62, 28
3, 33360, Note_on_c, 1, 55, 58
3, 33478, Note_off_c, 1, 55, 53
3, 33480, Note_on_c, 1, 62, 34
3, 33598, Note_off_c, 1, 62, 31
3, 33600, Note_on_c, 1, 57, 49
3, 33617, Control_c, 1, 64, 127
3, 33718, Note_off_c, 1, 57, 45
3, 33720, Note_on_c, 1, 62, 35
3, 33838, Note_off_c, 1, 62, 32
3, 33840, Note_on_c, 1, 55, 57
3, 33958, Note_off_c, 1, 55, 52
3, 33960, Note_on_c, 1, 62, 40
3, 34063, Control_c, 1, 64, 0
3, 34078, Note_off_c, 1, 62, 37
3, 34080, Note_on_c, 1, 54, 29
3, 34114, Control_c, 1, 64, 127
3, 34198, Note_off_c, 1, 54, 27
3, 34200, Note_on_c, 1, 62, 40
3, 34318, Note_off_c, 1, 62, 37
3, 34320, Note_on_c, 1, 50, 63
3, 34438, Note_off_c, 1, 50, 58
3, 34440, Note_on_c, 1, 62, 52
3, 34534, Control_c, 1, 64, 0
3, 34558, Note_off_c, 1, 62, 48
3, 34560, Note_on_c, 1, 55, 30
3, 34678, Note_off_c, 1, 55, 28
3, 34680, Note_on_c, 1, 62, 39
3, 34798, Note_off_c, 1, 62, 36
3, 34800, Note_on_c, 1, 61, 50
3, 34918, Note_off_c, 1, 61, 46
3, 34920, Note_on_c, 1, 62, 28
3, 35038, Note_off_c, 1, 62, 26
3, 35040, Note_on_c, 1, 61, 47
3, 35158, Note_off_c, 1, 61, 43
3, 35160, Note_on_c, 1, 62, 62
3, 35278, Note_off_c, 1, 62, 57
3, 35280, Note_on_c, 1, 64, 46
3, 35398, Note_off_c, 1, 64, 42
3, 35400, Note_on_c, 1, 62, 40
3, 35518, Note_off_c, 1, 62, 37
3, 35520, Note_on_c, 1, 60, 62
3, 35638, Note_off_c, 1, 60, 57
3, 35640, Note_on_c, 1, 62, 34
3, 35758, Note_off_c, 1, 62, 31
3, 35760, Note_on_c, 1, 59, 49
3, 35878, Note_off_c, 1, 59, 45
3, 35880, Note_on_c, 1, 62, 40
3, 35998, Note_off_c, 1, 62, 37
3, 36000, Note_on_c, 1, 60, 61
3, 36118, Note_off_c, 1, 60, 56
3, 36120, Note_on_c, 1, 62, 41
3, 36238, Note_off_c, 1, 62, 38
3, 36240, Note_on_c, 1, 57, 52
3, 36358, Note_off_c, 1, 57, 48
3, 36360, Note_on_c, 1, 62, 51
3, 36478, Note_off_c, 1, 62, 47
3, 36480, Note_on_c, 1, 59, 44
3, 36497, Control_c, 1, 64, 127
3, 36598, Note_off_c, 1, 59, 40
3, 36600, Note_on_c, 1, 62, 38
3, 36718, Note_off_c, 1, 62, 35
3, 36720, Note_on_c, 1, 55, 58
3, 36838, Note_off_c, 1, 55, 53
3, 36840, Note_on_c, 1, 62, 38
3, 36943, Control_c, 1, 64, 0
3, 36958, Note_off_c, 1, 62, 35
3, 36960, Note_on_c, 1, 59, 61
3, 36994, Control_c, 1, 64, 127
3, 37078, Note_off_c, 1, 59, 56
3, 37080, Note_on_c, 1, 62, 46
3, 37198, Note_off_c, 1, 62, 42
3, 37200, Note_on_c, 1, 55, 60
3, 37318, Note_off_c, 1, 55, 55
3, 37320, Note_on_c, 1, 62, 35
3, 37414, Control_c, 1, 64, 0
3, 37438, Note_off_c, 1, 62, 32
3, 37440, Note_on_c, 1, 57, 62
3, 37558, Note_off_c, 1, 57, 57
3, 37560, Note_on_c, 1, 62, 37
3, 37678, Note_off_c, 1, 62, 34
3, 37680, Note_on_c, 1, 55, 70
3, 37798, Note_off_c, 1, 55, 64
3, 37800, Note_on_c, 1, 62, 39
3, 37918, Note_off_c, 1, 62, 36
3, 37920, Note_on_c, 1, 54, 73
3, 38038, Note_off_c, 1, 54, 67
3, 38040, Note_on_c, 1, 62, 41
3, 38158, Note_off_c, 1, 62, 38
3, 38160, Note_on_c, 1, 50, 73
3, 38278, Note_off_c, 1, 50, 67
3, 38280, Note_on_c, 1, 62, 55
3, 38398, Note_off_c, 1, 62, 50
3, 38400, Note_on_c, 1, 55, 69
3, 38417, Control_c, 1, 64, 127
3, 38518, Note_off_c, 1, 55, 63
3, 38520, Note_on_c, 1, 62, 29
3, 38638, Note_off_c, 1, 62, 27
3, 38640, Note_on_c, 1, 59, 52
3, 38758, Note_off_c, 1, 59, 48
3, 38760, Note_on_c, 1, 62, 45
3, 38863, Control_c, 1, 64, 0
3, 38878, Note_off_c, 1, 62, 41
3, 38880, Note_on_c, 1, 55, 81
3, 38914, Control_c, 1, 64, 127
3, 38998, Note_off_c, 1, 55, 74
3, 39000, Note_on_c, 1, 64, 45
3, 39118, Note_off_c, 1, 64, 41
3, 39120, Note_on_c, 1, 60, 62
3, 39238, Note_off_c, 1, 60, 57
3, 39240, Note_on_c, 1, 64, 41
3, 39334, Control_c, 1, 64, 0
3, 39358, Note_off_c, 1, 64, 38
3, 39360, Note_on_c, 1, 55, 72
3, 39377, Control_c, 1, 64, 127
3, 39478, Note_off_c, 1, 55, 66
3, 39480, Note_on_c, 1, 62, 62
3, 39598, Note_off_c, 1, 62, 57
3, 39600, Note_on_c, 1, 59, 63
3, 39718, Note_off_c, 1, 59, 58
3, 39720, Note_on_c, 1, 62, 67
3, 39823, Control_c, 1, 64, 0
3, 39838, Note_off_c, 1, 62, 61
3, 39840, Note_on_c, 1, 53, 81
3, 39874, Control_c, 1, 64, 127
3, 39958, Note_off_c, 1, 53, 74
3, 39960, Note_on_c, 1, 60, 57
3, 40078, Note_off_c, 1, 60, 52
3, 40080, Note_on_c, 1, 57, 60
3, 40198, Note_off_c, 1, 57, 55
3, 40200, Note_on_c, 1, 60, 52
3, 40294, Control_c, 1, 64, 0
3, 40318, Note_off_c, 1, 60, 48
3, 40320, Note_on_c, 1, 52, 83
3, 40438, Note_off_c, 1, 52, 76
3, 40440, Note_on_c, 1, 60, 60
3, 40558, Note_off_c, 1, 60, 55
3, 40560, Note_on_c, 1, 55, 66
3, 40678, Note_off_c, 1, 55, 60
3, 40680, Note_on_c, 1, 60, 63
3, 40798, Note_off_c, 1, 60, 58
3, 40800, Note_on_c, 1, 48, 83
3, 40918, Note_off_c, 1, 48, 76
3, 40920, Note_on_c, 1, 55, 60
3, 41038, Note_off_c, 1, 55, 55
3, 41040, Note_on_c, 1, 52, 61
3, 41158, Note_off_c, 1, 52, 56
3, 41160, Note_on_c, 1, 55, 47
3, 41278, Note_off_c, 1, 55, 43
3, 41280, Note_on_c, 1, 50, 84
3, 41398, Note_off_c, 1, 50, 77
3, 41400, Note_on_c, 1, 59, 61
3, 41518, Note_off_c, 1, 59, 56
3, 41520, Note_on_c, 1, 55, 72
3, 41638, Note_off_c, 1, 55, 66
3, 41640, Note_on_c, 1, 59, 50
3, 41758, Note_off_c, 1, 59, 46
3, 41760, Note_on_c, 1, 50, 84
3, 41878, Note_off_c, 1, 50, 77
3, 41880, Note_on_c, 1, 60, 57
3, 41998, Note_off_c, 1, 60, 52
3, 42000, Note_on_c, 1, 54, 68
3, 42118, Note_off_c, 1, 54, 62
3, 42120, Note_on_c, 1, 60, 72
3, 42238, Note_off_c, 1, 60, 66
3, 42240, Note_on_c, 1, 55, 73
3, 42358, Note_off_c, 1, 55, 67
3, 42360, Note_on_c, 1, 62, 74
3, 42478, Note_off_c, 1, 62, 68
3, 42480, Note_on_c, 1, 59, 68
3, 42598, Note_off_c, 1, 59, 62
3, 42600, Note_on_c, 1, 62, 61
3, 42718, Note_off_c, 1, 62, 56
3, 42720, Note_on_c, 1, 55, 62
3, 42838, Note_off_c, 1, 55, 57
3, 42840, Note_on_c, 1, 64, 67
3, 42958, Note_off_c, 1, 64, 61
3, 42960, Note_on_c, 1, 60, 58
3, 43078, Note_off_c, 1, 60, 53
3, 43080, Note_on_c, 1, 64, 46
3, 43198, Note_off_c, 1, 64, 42
3, 43200, Note_on_c, 1, 55, 60
3, 43217, Control_c, 1, 64, 127
3, 43318, Note_off_c, 1, 55, 55
3, 43320, Note_on_c, 1, 62, 58
3, 43438, Note_off_c, 1, 62, 53
3, 43440, Note_on_c, 1, 59, 61
3, 43558, Note_off_c, 1, 59, 56
3, 43560, Note_on_c, 1, 62, 58
3, 43663, Control_c, 1, 64, 0
3, 43678, Note_off_c, 1, 62, 53
3, 43680, Note_on_c, 1, 53, 67
3, 43714, Control_c, 1, 64, 127
3, 43798, Note_off_c, 1, 53, 61
3, 43800, Note_on_c, 1, 60, 40
3, 43918, Note_off_c, 1, 60, 37
3, 43920, Note_on_c, 1, 57, 48
3, 44038, Note_off_c, 1, 57, 44
3, 44040, Note_on_c, 1, 60, 46
3, 44134, Control_c, 1, 64, 0
3, 44158, Note_off_c, 1, 60, 42
3, 44160, Note_on_c, 1, 52, 73
3, 44278, Note_off_c, 1, 52, 67
3, 44280, Note_on_c, 1, 60, 44
3, 44398, Note_off_c, 1, 60, 40
3, 44400, Note_on_c, 1, 55, 69
3, 44518, Note_off_c, 1, 55, 63
3, 44520, Note_on_c, 1, 60, 60
3, 44638, Note_off_c, 1, 60, 55
3, 44640, Note_on_c, 1, 48, 84
3, 44758, Note_off_c, 1, 48, 77
3, 44760, Note_on_c, 1, 55, 73
3, 44878, Note_off_c, 1, 55, 67
3, 44880, Note_on_c, 1, 52, 83
3, 44998, Note_off_c, 1, 52, 76
3, 45000, Note_on_c, 1, 55, 73
3, 45118, Note_off_c, 1, 55, 67
3, 45120, Note_on_c, 1, 50, 84
3, 45238, Note_off_c, 1, 50, 77
3, 45240, Note_on_c, 1, 59, 72
3, 45358, Note_off_c, 1, 59, 66
3, 45360, Note_on_c, 1, 55, 78
3, 45478, Note_off_c, 1, 55, 71
3, 45480, Note_on_c, 1, 59, 67
3, 45598, Note_off_c, 1, 59, 61
3, 45600, Note_on_c, 1, 50, 83
3, 45718, Note_off_c, 1, 50, 76
3, 45720, Note_on_c, 1, 60, 74
3, 45838, Note_off_c, 1, 60, 68
3, 45840, Note_on_c, 1, 57, 79
3, 45958, Note_off_c, 1, 57, 72
3, 45960, Note_on_c, 1, 60, 71
3, 46078, Note_off_c, 1, 60, 65
3, 46320, Note_on_c, 1, 59, 69
3, 46320, Note_on_c, 1, 55, 63
3, 46558, Note_off_c, 1, 55, 58
3, 46558, Note_off_c, 1, 59, 63
3, 46560, Note_on_c, 1, 57, 57
3, 46560, Note_on_c, 1, 60, 62
3, 46798, Note_off_c, 1, 60, 57
3, 46798, Note_off_c, 1, 57, 52
3, 46800, Note_on_c, 1, 62, 52
3, 46800, Note_on_c, 1, 59, 56
3, 47038, Note_off_c, 1, 59, 51
3, 47038, Note_off_c, 1, 62, 48
3, 47280, Note_on_c, 1, 54, 58
3, 47280, Note_on_c, 1, 50, 60
3, 47518, Note_off_c, 1, 50, 55
3, 47518, Note_off_c, 1, 54, 53
3, 47520, Note_on_c, 1, 55, 60
3, 47520, Note_on_c, 1, 52, 60
3, 47758, Note_off_c, 1, 52, 55
3, 47758, Note_off_c, 1, 55, 55
3, 47760, Note_on_c, 1, 57, 49
3, 47760, Note_on_c, 1, 54, 60
3, 47998, Note_off_c, 1, 54, 55
3, 47998, Note_off_c, 1, 57, 45
3, 48240, Note_on_c, 1, 59, 80
3, 48240, Note_on_c, 1, 55, 78
3, 48478, Note_off_c, 1, 55, 71
3, 48478, Note_off_c, 1, 59, 73
3, 48480, Note_on_c, 1, 57, 83
3, 48480, Note_on_c, 1, 60, 81
3, 48718, Note_off_c, 1, 60, 74
3, 48718, Note_off_c, 1, 57, 76
3, 48720, Note_on_c, 1, 62, 81
3, 48720, Note_on_c, 1, 59, 84
3, 48958, Note_off_c, 1, 59, 77
3, 48958, Note_off_c, 1, 62, 74
3, 49200, Note_on_c, 1, 54, 50
3, 49200, Note_on_c, 1, 50, 52
3, 49438, Note_off_c, 1, 50, 48
3, 49438, Note_off_c, 1, 54, 46
3, 49440, Note_on_c, 1, 55, 50
3, 49440, Note_on_c, 1, 52, 30
3, 49678, Note_off_c, 1, 52, 28
3, 49678, Note_off_c, 1, 55, 46
3, 49680, Note_on_c, 1, 57, 41
3, 49680, Note_on_c, 1, 54, 61
3, 49918, Note_off_c, 1, 54, 56
3, 49918, Note_off_c, 1, 57, 38
3, 49920, Note_on_c, 1, 55, 73
3, 50398, Note_off_c, 1, 55, 67
3, 50880, Note_on_c, 1, 55, 63
3, 50880, Note_on_c, 1, 47, 61
3, 50880, Note_on_c, 1, 43, 69
3, 50880, Note_on_c, 1, 50, 70
3, 50897, Control_c, 1, 64, 127
3, 51343, Control_c, 1, 64, 0
3, 51394, Control_c, 1, 64, 127
3, 51814, Control_c, 1, 64, 0
3, 51838, Note_off_c, 1, 50, 64
3, 51838, Note_off_c, 1, 43, 63
3, 51838, Note_off_c, 1, 47, 56
3, 51838, Note_off_c, 1, 55, 58
3, 51840, Note_on_c, 1, 48, 61
3, 51840, Note_on_c, 1, 55, 52
3, 52318, Note_off_c, 1, 55, 48
3, 52318, Note_off_c, 1, 48, 56
3, 53040, Note_on_c, 1, 58, 49
3, 53040, Note_on_c, 1, 49, 35
3, 53278, Note_off_c, 1, 49, 32
3, 53278, Note_off_c, 1, 58, 45
3, 53280, Note_on_c, 1, 59, 49
3, 53280, Note_on_c, 1, 50, 56
3, 53518, Note_off_c, 1, 59, 45
3, 53520, Note_on_c, 1, 60, 30
3, 53758, Note_off_c, 1, 50, 51
3, 53758, Note_off_c, 1, 60, 28
3, 53760, Note_on_c, 1, 59, 63
3, 53760, Note_on_c, 1, 55, 57
3, 53777, Control_c, 1, 64, 127
3, 54223, Control_c, 1, 64, 0
3, 54238, Note_off_c, 1, 55, 52
3, 54238, Note_off_c, 1, 59, 58
3, 54274, Control_c, 1, 64, 127
3, 54694, Control_c, 1, 64, 0
3, 54720, Note_on_c, 1, 55, 68
3, 54720, Note_on_c, 1, 43, 72
3, 54720, Note_on_c, 1, 47, 69
3, 54720, Note_on_c, 1, 50, 66
3, 54737, Control_c, 1, 64, 127
3, 55183, Control_c, 1, 64, 0
3, 55234, Control_c, 1, 64, 127
3, 55654, Control_c, 1, 64, 0
3, 55678, Note_off_c, 1, 50, 60
3, 55678, Note_off_c, 1, 47, 63
3, 55678, Note_off_c, 1, 43, 66
3, 55678, Note_off_c, 1, 55, 62
3, 55680, Note_on_c, 1, 55, 44
3, 55680, Note_on_c, 1, 48, 47
3, 56158, Note_off_c, 1, 48, 43
3, 56158, Note_off_c, 1, 55, 40
3, 56640, Note_on_c, 1, 49, 70
3, 56640, Note_on_c, 1, 58, 58
3, 57118, Note_off_c, 1, 58, 53
3, 57118, Note_off_c, 1, 49, 64
3, 57600, Note_on_c, 1, 50, 49
3, 57617, Control_c, 1, 64, 127
3, 57718, Note_off_c, 1, 50, 45
3, 57720, Note_on_c, 1, 59, 45
3, 57838, Note_off_c, 1, 59, 41
3, 57840, Note_on_c, 1, 55, 62
3, 57958, Note_off_c, 1, 55, 57
3, 57960, Note_on_c, 1, 59, 55
3, 58063, Control_c, 1, 64, 0
3, 58078, Note_off_c, 1, 59, 50
3, 58080, Note_on_c, 1, 50, 74
3, 58114, Control_c, 1, 64, 127
3, 58198, Note_off_c, 1, 50, 68
3, 58200, Note_on_c, 1, 59, 60
3, 58318, Note_off_c, 1, 59, 55
3, 58320, Note_on_c, 1, 55, 66
3, 58438, Note_off_c, 1, 55, 60
3, 58440, Note_on_c, 1, 59, 47
3, 58534, Control_c, 1, 64, 0
3, 58558, Note_off_c, 1, 59, 43
3, 58560, Note_on_c, 1, 50, 72
3, 58577, Control_c, 1, 64, 127
3, 58678, Note_off_c, 1, 50, 66
3, 58680, Note_on_c, 1, 62, 63
3, 58798, Note_off_c, 1, 62, 58
3, 58800, Note_on_c, 1, 55, 68
3, 58918, Note_off_c, 1, 55, 62
3, 58920, Note_on_c, 1, 62, 52
3, 59023, Control_c, 1, 64, 0
3, 59038, Note_off_c, 1, 62, 48
3, 59040, Note_on_c, 1, 50, 74
3, 59074, Control_c, 1, 64, 127
3, 59158, Note_off_c, 1, 50, 68
3, 59160, Note_on_c, 1, 60, 60
3, 59278, Note_off_c, 1, 60, 55
3, 59280, Note_on_c, 1, 54, 66
3, 59398, Note_off_c, 1, 54, 60
3, 59400, Note_on_c, 1, 60, 52
3, 59494, Control_c, 1, 64, 0
3, 59518, Note_off_c, 1, 60, 48
3, 59520, Note_on_c, 1, 55, 56
3, 59638, Note_off_c, 1, 55, 51
3, 59640, Note_on_c, 1, 59, 57
3, 59758, Note_off_c, 1, 59, 52
3, 59760, Note_on_c, 1, 67, 56
3, 59878, Note_off_c, 1, 67, 51
3, 59880, Note_on_c, 1, 59, 37
3, 59998, Note_off_c, 1, 59, 34
3, 60000, Note_on_c, 1, 55, 62
3, 60118, Note_off_c, 1, 55, 57
3, 60120, Note_on_c, 1, 59, 49
3, 60238, Note_off_c, 1, 59, 45
3, 60240, Note_on_c, 1, 67, 44
3, 60358, Note_off_c, 1, 67, 40
3, 60360, Note_on_c, 1, 59, 39
3, 60478, Note_off_c, 1, 59, 36
3, 60480, Note_on_c, 1, 55, 50
3, 60598, Note_off_c, 1, 55, 46
3, 60600, Note_on_c, 1, 57, 51
3, 60718, Note_off_c, 1, 57, 47
3, 60720, Note_on_c, 1, 66, 36
3, 60838, Note_off_c, 1, 66, 33
3, 60840, Note_on_c, 1, 57, 60
3, 60958, Note_off_c, 1, 57, 55
3, 60960, Note_on_c, 1, 55, 57
3, 61078, Note_off_c, 1, 55, 52
3, 61080, Note_on_c, 1, 60, 55
3, 61198, Note_off_c, 1, 60, 50
3, 61200, Note_on_c, 1, 66, 58
3, 61318, Note_off_c, 1, 66, 53
3, 61320, Note_on_c, 1, 60, 50
3, 61438, Note_off_c, 1, 60, 46
3, 61440, Note_on_c, 1, 55, 63
3, 61558, Note_off_c, 1, 55, 58
3, 61560, Note_on_c, 1, 59, 29
3, 61678, Note_off_c, 1, 59, 27
3, 61680, Note_on_c, 1, 67, 38
3, 61798, Note_off_c, 1, 67, 35
3, 61800, Note_on_c, 1, 59, 44
3, 61918, Note_off_c, 1, 59, 40
3, 61920, Note_on_c, 1, 55, 60
3, 62038, Note_off_c, 1, 55, 55
3, 62040, Note_on_c, 1, 59, 52
3, 62158, Note_off_c, 1, 59, 48
3, 62160, Note_on_c, 1, 67, 63
3, 62278, Note_off_c, 1, 67, 58
3, 62280, Note_on_c, 1, 59, 46
3, 62398, Note_off_c, 1, 59, 42
3, 62400, Note_on_c, 1, 55, 57
3, 62518, Note_off_c, 1, 55, 52
3, 62520, Note_on_c, 1, 57, 68
3, 62638, Note_off_c, 1, 57, 62
3, 62640, Note_on_c, 1, 66, 45
3, 62758, Note_off_c, 1, 66, 41
3, 62760, Note_on_c, 1, 57, 52
3, 62878, Note_off_c, 1, 57, 48
3, 62880, Note_on_c, 1, 55, 61
3, 62998, Note_off_c, 1, 55, 56
3, 63000, Note_on_c, 1, 60, 57
3, 63118, Note_off_c, 1, 60, 52
3, 63120, Note_on_c, 1, 66, 63
3, 63238, Note_off_c, 1, 66, 58
3, 63240, Note_on_c, 1, 60, 50
3, 63358, Note_off_c, 1, 60, 46
3, 63360, Note_on_c, 1, 55, 58
3, 63377, Control_c, 1, 64, 127
3, 63478, Note_off_c, 1, 55, 53
3, 63480, Note_on_c, 1, 59, 49
3, 63598, Note_off_c, 1, 59, 45
3, 63600, Note_on_c, 1, 67, 47
3, 63718, Note_off_c, 1, 67, 43
3, 63720, Note_on_c, 1, 59, 46
3, 63823, Control_c, 1, 64, 0
3, 63838, Note_off_c, 1, 59, 42
3, 63840, Note_on_c, 1, 55, 61
3, 63874, Control_c, 1, 64, 127
3, 63958, Note_off_c, 1, 55, 56
3, 63960, Note_on_c, 1, 60, 51
3, 64078, Note_off_c, 1, 60, 47
3, 64080, Note_on_c, 1, 66, 57
3, 64198, Note_off_c, 1, 66, 52
3, 64200, Note_on_c, 1, 60, 22
3, 64294, Control_c, 1, 64, 0
3, 64318, Note_off_c, 1, 60, 20
3, 64320, Note_on_c, 1, 55, 56
3, 64337, Control_c, 1, 64, 127
3, 64438, Note_off_c, 1, 55, 51
3, 64440, Note_on_c, 1, 59, 52
3, 64558, Note_off_c, 1, 59, 48
3, 64560, Note_on_c, 1, 67, 51
3, 64678, Note_off_c, 1, 67, 47
3, 64680, Note_on_c, 1, 59, 52
3, 64783, Control_c, 1, 64, 0
3, 64798, Note_off_c, 1, 59, 48
3, 64800, Note_on_c, 1, 55, 58
3, 64834, Control_c, 1, 64, 127
3, 64918, Note_off_c, 1, 55, 53
3, 64920, Note_on_c, 1, 60, 35
3, 65038, Note_off_c, 1, 60, 32
3, 65040, Note_on_c, 1, 66, 56
3, 65158, Note_off_c, 1, 66, 51
3, 65160, Note_on_c, 1, 60, 36
3, 65254, Control_c, 1, 64, 0
3, 65278, Note_off_c, 1, 60, 33
3, 65280, Note_on_c, 1, 67, 46
3, 65280, Note_on_c, 1, 55, 29
3, 65280, Note_on_c, 1, 59, 29
3, 65518, Note_off_c, 1, 59, 27
3, 65518, Note_off_c, 1, 55, 27
3, 65518, Note_off_c, 1, 67, 42
3, 66000, Note_on_c, 1, 50, 60
3, 66118, Note_off_c, 1, 50, 55
3, 66240, Note_on_c, 1, 55, 56
3, 66478, Note_off_c, 1, 55, 51
3, 66480, Note_on_c, 1, 50, 57
3, 66718, Note_off_c, 1, 50, 52
3, 66720, Note_on_c, 1, 43, 56
3, 66838, Note_off_c, 1, 43, 51
3, 67200, Note_on_c, 1, 62, 49
3, 67200, Note_on_c, 1, 59, 45
3, 67438, Note_off_c, 1, 59, 41
3, 67438, Note_off_c, 1, 62, 45
3, 67440, Note_on_c, 1, 55, 44
3, 67678, Note_off_c, 1, 55, 40
3, 67680, Note_on_c, 1, 55, 60
3, 67918, Note_off_c, 1, 55, 55
3, 68160, Note_on_c, 1, 59, 50
3, 68160, Note_on_c, 1, 62, 58
3, 68398, Note_off_c, 1, 62, 53
3, 68398, Note_off_c, 1, 59, 46
3, 68400, Note_on_c, 1, 57, 57
3, 68518, Note_off_c, 1, 57, 52
3, 68640, Note_on_c, 1, 62, 37
3, 68640, Note_on_c, 1, 54, 37
3, 69118, Note_off_c, 1, 54, 34
3, 69118, Note_off_c, 1, 62, 34
3, 69120, Note_on_c, 1, 62, 34
3, 69120, Note_on_c, 1, 57, 47
3, 69358, Note_off_c, 1, 57, 43
3, 69360, Note_on_c, 1, 55, 26
3, 69478, Note_off_c, 1, 55, 24
3, 69598, Note_off_c, 1, 62, 31
3, 69600, Note_on_c, 1, 62, 41
3, 69600, Note_on_c, 1, 59, 51
3, 69838, Note_off_c, 1, 59, 47
3, 69840, Note_on_c, 1, 57, 49
3, 69958, Note_off_c, 1, 57, 45
3, 70078, Note_off_c, 1, 62, 38
3, 70080, Note_on_c, 1, 62, 37
3, 70080, Note_on_c, 1, 60, 47
3, 70558, Note_off_c, 1, 60, 43
3, 70560, Note_on_c, 1, 59, 41
3, 70798, Note_off_c, 1, 62, 34
3, 70798, Note_off_c, 1, 59, 38
3, 71520, Note_on_c, 1, 47, 42
3, 71520, Note_on_c, 1, 50, 47
3, 71998, Note_off_c, 1, 50, 43
3, 71998, Note_off_c, 1, 47, 39
3, 72000, Note_on_c, 1, 52, 41
3, 72000, Note_on_c, 1, 48, 45
3, 72478, Note_off_c, 1, 48, 41
3, 72478, Note_off_c, 1, 52, 38
3, 72480, Note_on_c, 1, 49, 50
3, 72480, Note_on_c, 1, 55, 48
3, 72958, Note_off_c, 1, 55, 44
3, 72958, Note_off_c, 1, 49, 46
3, 72960, Note_on_c, 1, 50, 41
3, 72960, Note_on_c, 1, 59, 45
3, 73438, Note_off_c, 1, 59, 41
3, 73440, Note_on_c, 1, 57, 45
3, 73918, Note_off_c, 1, 50, 38
3, 73918, Note_off_c, 1, 57, 41
3, 73920, Note_on_c, 1, 60, 33
3, 73920, Note_on_c, 1, 55, 30
3, 74398, Note_off_c, 1, 55, 28
3, 74398, Note_off_c, 1, 60, 30
3, 74400, Note_on_c, 1, 59, 24
3, 74400, Note_on_c, 1, 55, 35
3, 74638, Note_off_c, 1, 55, 32
3, 74638, Note_off_c, 1, 59, 22
3, 74880, Note_on_c, 1, 59, 38
3, 74897, Control_c, 1, 64, 127
3, 74998, Note_off_c, 1, 59, 35
3, 75000, Note_on_c, 1, 62, 35
3, 75118, Note_off_c, 1, 62, 32
3, 75120, Note_on_c, 1, 55, 49
3, 75238, Note_off_c, 1, 55, 45
3, 75240, Note_on_c, 1, 62, 27
3, 75358, Note_off_c, 1, 62, 25
3, 75360, Note_on_c, 1, 55, 57
3, 75478, Note_off_c, 1, 55, 52
3, 75480, Note_on_c, 1, 62, 35
3, 75566, Control_c, 1, 64, 0
3, 75598, Note_off_c, 1, 62, 32
3, 75600, Note_on_c, 1, 56, 36
3, 75626, Control_c, 1, 64, 127
3, 75718, Note_off_c, 1, 56, 33
3, 75720, Note_on_c, 1, 62, 30
3, 75823, Control_c, 1, 64, 0
3, 75838, Note_off_c, 1, 62, 28
3, 75840, Note_on_c, 1, 57, 46
3, 75866, Control_c, 1, 64, 127
3, 75958, Note_off_c, 1, 57, 42
3, 75960, Note_on_c, 1, 62, 36
3, 76078, Note_off_c, 1, 62, 33
3, 76080, Note_on_c, 1, 55, 38
3, 76198, Note_off_c, 1, 55, 35
3, 76200, Note_on_c, 1, 62, 33
3, 76294, Control_c, 1, 64, 0
3, 76318, Note_off_c, 1, 62, 30
3, 76320, Note_on_c, 1, 54, 60
3, 76371, Control_c, 1, 64, 127
3, 76438, Note_off_c, 1, 54, 55
3, 76440, Note_on_c, 1, 62, 50
3, 76558, Note_off_c, 1, 62, 46
3, 76560, Note_on_c, 1, 50, 50
3, 76678, Note_off_c, 1, 50, 46
3, 76680, Note_on_c, 1, 62, 29
3, 76774, Control_c, 1, 64, 0
3, 76798, Note_off_c, 1, 62, 27
3, 76800, Note_on_c, 1, 55, 50
3, 76918, Note_off_c, 1, 55, 46
3, 76920, Note_on_c, 1, 67, 33
3, 77038, Note_off_c, 1, 67, 30
3, 77040, Note_on_c, 1, 59, 51
3, 77158, Note_off_c, 1, 59, 47
3, 77160, Note_on_c, 1, 67, 36
3, 77278, Note_off_c, 1, 67, 33
3, 77280, Note_on_c, 1, 57, 55
3, 77398, Note_off_c, 1, 57, 50
3, 77400, Note_on_c, 1, 67, 26
3, 77518, Note_off_c, 1, 67, 24
3, 77520, Note_on_c, 1, 60, 52
3, 77638, Note_off_c, 1, 60, 48
3, 77640, Note_on_c, 1, 67, 51
3, 77758, Note_off_c, 1, 67, 47
3, 77760, Note_on_c, 1, 60, 60
3, 77786, Control_c, 1, 64, 127
3, 77878, Note_off_c, 1, 60, 55
3, 77880, Note_on_c, 1, 67, 44
3, 77998, Note_off_c, 1, 67, 40
3, 78000, Note_on_c, 1, 64, 11
3, 78118, Note_off_c, 1, 64, 10
3, 78120, Note_on_c, 1, 67, 38
3, 78214, Control_c, 1, 64, 0
3, 78238, Note_off_c, 1, 67, 35
3, 78240, Note_on_c, 1, 59, 61
3, 78291, Control_c, 1, 64, 127
3, 78358, Note_off_c, 1, 59, 56
3, 78360, Note_on_c, 1, 67, 14
3, 78478, Note_off_c, 1, 67, 13
3, 78480, Note_on_c, 1, 62, 27
3, 78598, Note_off_c, 1, 62, 25
3, 78600, Note_on_c, 1, 67, 24
3, 78694, Control_c, 1, 64, 0
3, 78718, Note_off_c, 1, 67, 22
3, 78720, Note_on_c, 1, 57, 49
3, 78838, Note_off_c, 1, 57, 45
3, 78840, Note_on_c, 1, 67, 28
3, 78958, Note_off_c, 1, 67, 26
3, 78960, Note_on_c, 1, 60, 51
3, 79078, Note_off_c, 1, 60, 47
3, 79080, Note_on_c, 1, 67, 25
3, 79198, Note_off_c, 1, 67, 23
3, 79200, Note_on_c, 1, 59, 67
3, 79318, Note_off_c, 1, 59, 61
3, 79320, Note_on_c, 1, 67, 30
3, 79438, Note_off_c, 1, 67, 28
3, 79440, Note_on_c, 1, 62, 33
3, 79558, Note_off_c, 1, 62, 30
3, 79560, Note_on_c, 1, 67, 24
3, 79678, Note_off_c, 1, 67, 22
3, 79680, Note_on_c, 1, 62, 52
3, 79798, Note_off_c, 1, 62, 48
3, 79800, Note_on_c, 1, 67, 27
3, 79918, Note_off_c, 1, 67, 25
3, 79920, Note_on_c, 1, 65, 27
3, 80038, Note_off_c, 1, 65, 25
3, 80040, Note_on_c, 1, 67, 46
3, 80158, Note_off_c, 1, 67, 42
3, 80160, Note_on_c, 1, 60, 55
3, 80278, Note_off_c, 1, 60, 50
3, 80280, Note_on_c, 1, 67, 38
3, 80398, Note_off_c, 1, 67, 35
3, 80400, Note_on_c, 1, 64, 35
3, 80518, Note_off_c, 1, 64, 32
3, 80520, Note_on_c, 1, 67, 29
3, 80638, Note_off_c, 1, 67, 27
3, 80640, Note_on_c, 1, 59, 51
3, 80758, Note_off_c, 1, 59, 47
3, 80760, Note_on_c, 1, 67, 29
3, 80878, Note_off_c, 1, 67, 27
3, 80880, Note_on_c, 1, 62, 57
3, 80998, Note_off_c, 1, 62, 52
3, 81000, Note_on_c, 1, 67, 35
3, 81118, Note_off_c, 1, 67, 32
3, 81120, Note_on_c, 1, 60, 61
3, 81238, Note_off_c, 1, 60, 56
3, 81240, Note_on_c, 1, 67, 47
3, 81358, Note_off_c, 1, 67, 43
3, 81360, Note_on_c, 1, 64, 52
3, 81478, Note_off_c, 1, 64, 48
3, 81480, Note_on_c, 1, 67, 41
3, 81598, Note_off_c, 1, 67, 38
3, 81600, Note_on_c, 1, 64, 62
3, 81718, Note_off_c, 1, 64, 57
3, 81720, Note_on_c, 1, 67, 35
3, 81838, Note_off_c, 1, 67, 32
3, 81840, Note_on_c, 1, 66, 26
3, 81958, Note_off_c, 1, 66, 24
3, 81960, Note_on_c, 1, 67, 37
3, 82078, Note_off_c, 1, 67, 34
3, 82080, Note_on_c, 1, 62, 58
3, 82198, Note_off_c, 1, 62, 53
3, 82200, Note_on_c, 1, 67, 40
3, 82318, Note_off_c, 1, 67, 37
3, 82320, Note_on_c, 1, 66, 30
3, 82438, Note_off_c, 1, 66, 28
3, 82440, Note_on_c, 1, 67, 47
3, 82558, Note_off_c, 1, 67, 43
3, 82560, Note_on_c, 1, 60, 55
3, 82678, Note_off_c, 1, 60, 50
3, 82680, Note_on_c, 1, 67, 45
3, 82798, Note_off_c, 1, 67, 41
3, 82800, Note_on_c, 1, 66, 57
3, 82918, Note_off_c, 1, 66, 52
3, 82920, Note_on_c, 1, 67, 57
3, 83038, Note_off_c, 1, 67, 52
3, 83040, Note_on_c, 1, 59, 49
3, 83158, Note_off_c, 1, 59, 45
3, 83160, Note_on_c, 1, 67, 16
3, 83278, Note_off_c, 1, 67, 15
3, 83280, Note_on_c, 1, 60, 49
3, 83398, Note_off_c, 1, 60, 45
3, 83400, Note_on_c, 1, 67, 39
3, 83518, Note_off_c, 1, 67, 36
3, 83520, Note_on_c, 1, 55, 46
3, 83537, Control_c, 1, 64, 127
3, 83638, Note_off_c, 1, 55, 42
3, 83640, Note_on_c, 1, 67, 19
3, 83758, Note_off_c, 1, 67, 18
3, 83760, Note_on_c, 1, 59, 49
3, 83878, Note_off_c, 1, 59, 45
3, 83880, Note_on_c, 1, 67, 33
3, 83998, Note_off_c, 1, 67, 30
3, 84000, Note_on_c, 1, 55, 46
3, 84118, Note_off_c, 1, 55, 42
3, 84120, Note_on_c, 1, 67, 23
3, 84206, Control_c, 1, 64, 0
3, 84238, Note_off_c, 1, 67, 21
3, 84240, Note_on_c, 1, 59, 41
3, 84266, Control_c, 1, 64, 127
3, 84358, Note_off_c, 1, 59, 38
3, 84360, Note_on_c, 1, 67, 15
3, 84463, Control_c, 1, 64, 0
3, 84478, Note_off_c, 1, 67, 14
3, 84480, Note_on_c, 1, 55, 39
3, 84506, Control_c, 1, 64, 127
3, 84598, Note_off_c, 1, 55, 36
3, 84600, Note_on_c, 1, 67, 24
3, 84718, Note_off_c, 1, 67, 22
3, 84720, Note_on_c, 1, 60, 26
3, 84838, Note_off_c, 1, 60, 24
3, 84840, Note_on_c, 1, 67, 23
3, 84934, Control_c, 1, 64, 0
3, 84958, Note_off_c, 1, 67, 21
3, 84960, Note_on_c, 1, 55, 49
3, 85011, Control_c, 1, 64, 127
3, 85078, Note_off_c, 1, 55, 45
3, 85080, Note_on_c, 1, 67, 50
3, 85198, Note_off_c, 1, 67, 46
3, 85200, Note_on_c, 1, 63, 25
3, 85318, Note_off_c, 1, 63, 23
3, 85320, Note_on_c, 1, 67, 44
3, 85414, Control_c, 1, 64, 0
3, 85438, Note_off_c, 1, 67, 40
3, 85440, Note_on_c, 1, 55, 46
3, 85558, Note_off_c, 1, 55, 42
3, 85560, Note_on_c, 1, 67, 49
3, 85678, Note_off_c, 1, 67, 45
3, 85680, Note_on_c, 1, 62, 27
3, 85798, Note_off_c, 1, 62, 25
3, 85800, Note_on_c, 1, 67, 33
3, 85918, Note_off_c, 1, 67, 30
3, 85920, Note_on_c, 1, 55, 30
3, 86038, Note_off_c, 1, 55, 28
3, 86040, Note_on_c, 1, 67, 47
3, 86158, Note_off_c, 1, 67, 43
3, 86160, Note_on_c, 1, 59, 44
3, 86278, Note_off_c, 1, 59, 40
3, 86280, Note_on_c, 1, 67, 14
3, 86398, Note_off_c, 1, 67, 13
3, 86400, Note_on_c, 1, 55, 55
3, 86417, Control_c, 1, 64, 127
3, 86518, Note_off_c, 1, 55, 50
3, 86520, Note_on_c, 1, 67, 23
3, 86638, Note_off_c, 1, 67, 21
3, 86640, Note_on_c, 1, 60, 30
3, 86758, Note_off_c, 1, 60, 28
3, 86760, Note_on_c, 1, 67, 28
3, 86878, Note_off_c, 1, 67, 26
3, 86880, Note_on_c, 1, 55, 55
3, 86998, Note_off_c, 1, 55, 50
3, 87000, Note_on_c, 1, 67, 49
3, 87086, Control_c, 1, 64, 0
3, 87118, Note_off_c, 1, 67, 45
3, 87120, Note_on_c, 1, 63, 51
3, 87146, Control_c, 1, 64, 127
3, 87238, Note_off_c, 1, 63, 47
3, 87240, Note_on_c, 1, 67, 38
3, 87343, Control_c, 1, 64, 0
3, 87358, Note_off_c, 1, 67, 35
3, 87360, Note_on_c, 1, 55, 49
3, 87386, Control_c, 1, 64, 127
3, 87478, Note_off_c, 1, 55, 45
3, 87480, Note_on_c, 1, 67, 26
3, 87598, Note_off_c, 1, 67, 24
3, 87600, Note_on_c, 1, 62, 36
3, 87718, Note_off_c, 1, 62, 33
3, 87720, Note_on_c, 1, 67, 44
3, 87814, Control_c, 1, 64, 0
3, 87838, Note_off_c, 1, 67, 40
3, 87840, Note_on_c, 1, 55, 46
3, 87891, Control_c, 1, 64, 127
3, 87958, Note_off_c, 1, 55, 42
3, 87960, Note_on_c, 1, 67, 6
3, 88078, Note_off_c, 1, 67, 6
3, 88080, Note_on_c, 1, 59, 46
3, 88198, Note_off_c, 1, 59, 42
3, 88200, Note_on_c, 1, 67, 29
3, 88294, Control_c, 1, 64, 0
3, 88318, Note_off_c, 1, 67, 27
3, 88320, Note_on_c, 1, 56, 62
3, 88438, Note_off_c, 1, 56, 57
3, 88440, Note_on_c, 1, 67, 57
3, 88558, Note_off_c, 1, 67, 52
3, 88560, Note_on_c, 1, 60, 49
3, 88678, Note_off_c, 1, 60, 45
3, 88680, Note_on_c, 1, 67, 49
3, 88798, Note_off_c, 1, 67, 45
3, 88800, Note_on_c, 1, 57, 63
3, 88918, Note_off_c, 1, 57, 58
3, 88920, Note_on_c, 1, 66, 30
3, 89038, Note_off_c, 1, 66, 28
3, 89040, Note_on_c, 1, 60, 61
3, 89158, Note_off_c, 1, 60, 56
3, 89160, Note_on_c, 1, 66, 47
3, 89278, Note_off_c, 1, 66, 43
3, 89280, Note_on_c, 1, 67, 28
3, 89280, Note_on_c, 1, 55, 25
3, 89518, Note_off_c, 1, 55, 23
3, 89518, Note_off_c, 1, 67, 26
3, 89760, Note_on_c, 1, 55, 37
3, 89760, Note_on_c, 1, 67, 35
3, 89998, Note_off_c, 1, 67, 32
3, 89998, Note_off_c, 1, 55, 34
3, 90240, Note_on_c, 1, 55, 33
3, 90240, Note_on_c, 1, 67, 30
3, 90478, Note_off_c, 1, 67, 28
3, 90478, Note_off_c, 1, 55, 30
3, 91200, Note_on_c, 1, 65, 41
3, 91200, Note_on_c, 1, 62, 41
3, 91200, Note_on_c, 1, 59, 41
3, 91200, Note_on_c, 1, 55, 41
3, 91438, Note_off_c, 1, 55, 38
3, 91438, Note_off_c, 1, 59, 38
3, 91438, Note_off_c, 1, 62, 38
3, 91438, Note_off_c, 1, 65, 38
3, 91680, Note_on_c, 1, 65, 36
3, 91680, Note_on_c, 1, 62, 36
3, 91680, Note_on_c, 1, 59, 36
3, 91680, Note_on_c, 1, 55, 36
3, 91918, Note_off_c, 1, 55, 33
3, 91918, Note_off_c, 1, 59, 33
3, 91918, Note_off_c, 1, 62, 33
3, 91918, Note_off_c, 1, 65, 33
3, 92160, Note_on_c, 1, 55, 30
3, 92160, Note_on_c, 1, 59, 30
3, 92160, Note_on_c, 1, 62, 30
3, 92160, Note_on_c, 1, 65, 30
3, 92398, Note_off_c, 1, 65, 28
3, 92398, Note_off_c, 1, 62, 28
3, 92398, Note_off_c, 1, 59, 28
3, 92398, Note_off_c, 1, 55, 28
3, 93360, Note_on_c, 1, 48, 60
3, 93502, Note_off_c, 1, 48, 55
3, 93600, Note_on_c, 1, 52, 61
3, 93742, Note_off_c, 1, 52, 56
3, 93840, Note_on_c, 1, 55, 50
3, 93982, Note_off_c, 1, 55, 46
3, 94080, Note_on_c, 1, 60, 57
3, 94097, Control_c, 1, 64, 127
3, 94222, Note_off_c, 1, 60, 52
3, 94320, Note_on_c, 1, 48, 51
3, 94462, Note_off_c, 1, 48, 47
3, 94543, Control_c, 1, 64, 0
3, 94560, Note_on_c, 1, 55, 47
3, 94594, Control_c, 1, 64, 127
3, 94702, Note_off_c, 1, 55, 43
3, 94800, Note_on_c, 1, 43, 60
3, 94942, Note_off_c, 1, 43, 55
3, 95014, Control_c, 1, 64, 0
3, 95280, Note_on_c, 1, 48, 57
3, 95422, Note_off_c, 1, 48, 52
3, 95520, Note_on_c, 1, 52, 63
3, 95662, Note_off_c, 1, 52, 58
3, 95760, Note_on_c, 1, 55, 58
3, 95902, Note_off_c, 1, 55, 53
3, 96000, Note_on_c, 1, 60, 68
3, 96142, Note_off_c, 1, 60, 62
3, 96240, Note_on_c, 1, 48, 47
3, 96382, Note_off_c, 1, 48, 43
3, 96480, Note_on_c, 1, 55, 57
3, 96622, Note_off_c, 1, 55, 52
3, 96720, Note_on_c, 1, 43, 57
3, 96862, Note_off_c, 1, 43, 52
3, 96960, Note_on_c, 1, 57, 51
3, 96977, Control_c, 1, 64, 127
3, 97198, Note_off_c, 1, 57, 47
3, 97200, Note_on_c, 1, 60, 49
3, 97423, Control_c, 1, 64, 0
3, 97438, Note_off_c, 1, 60, 45
3, 97440, Note_on_c, 1, 55, 56
3, 97474, Control_c, 1, 64, 127
3, 97678, Note_off_c, 1, 55, 51
3, 97680, Note_on_c, 1, 60, 36
3, 97894, Control_c, 1, 64, 0
3, 97918, Note_off_c, 1, 60, 33
3, 97920, Note_on_c, 1, 53, 63
3, 97937, Control_c, 1, 64, 127
3, 98158, Note_off_c, 1, 53, 58
3, 98160, Note_on_c, 1, 60, 34
3, 98383, Control_c, 1, 64, 0
3, 98398, Note_off_c, 1, 60, 31
3, 98400, Note_on_c, 1, 52, 61
3, 98434, Control_c, 1, 64, 127
3, 98638, Note_off_c, 1, 52, 56
3, 98640, Note_on_c, 1, 60, 51
3, 98854, Control_c, 1, 64, 0
3, 98878, Note_off_c, 1, 60, 47
3, 99120, Note_on_c, 1, 59, 41
3, 99120, Note_on_c, 1, 67, 60
3, 99358, Note_off_c, 1, 67, 55
3, 99358, Note_off_c, 1, 59, 38
3, 99600, Note_on_c, 1, 60, 63
3, 99600, Note_on_c, 1, 67, 63
3, 99838, Note_off_c, 1, 67, 58
3, 99838, Note_off_c, 1, 60, 58
3, 99840, Note_on_c, 1, 55, 49
3, 99840, Note_on_c, 1, 59, 57
3, 100318, Note_off_c, 1, 59, 52
3, 100318, Note_off_c, 1, 55, 45
3, 100800, Note_on_c, 1, 36, 66
3, 100870, Note_off_c, 1, 36, 60
3, 100920, Note_on_c, 1, 40, 73
3, 100990, Note_off_c, 1, 40, 67
3, 101040, Note_on_c, 1, 43, 70
3, 101110, Note_off_c, 1, 43, 64
3, 101160, Note_on_c, 1, 48, 66
3, 101230, Note_off_c, 1, 48, 60
3, 101280, Note_on_c, 1, 40, 73
3, 101350, Note_off_c, 1, 40, 67
3, 101400, Note_on_c, 1, 52, 62
3, 101470, Note_off_c, 1, 52, 57
3, 101520, Note_on_c, 1, 43, 67
3, 101590, Note_off_c, 1, 43, 61
3, 101640, Note_on_c, 1, 55, 50
3, 101710, Note_off_c, 1, 55, 46
3, 101760, Note_on_c, 1, 48, 73
3, 101878, Note_off_c, 1, 48, 67
3, 101880, Note_on_c, 1, 52, 78
3, 101998, Note_off_c, 1, 52, 71
3, 102000, Note_on_c, 1, 55, 66
3, 102118, Note_off_c, 1, 55, 60
3, 102120, Note_on_c, 1, 60, 58
3, 102238, Note_off_c, 1, 60, 53
3, 102240, Note_on_c, 1, 43, 70
3, 102358, Note_off_c, 1, 43, 64
3, 102360, Note_on_c, 1, 47, 60
3, 102478, Note_off_c, 1, 47, 55
3, 102480, Note_on_c, 1, 50, 66
3, 102598, Note_off_c, 1, 50, 60
3, 102600, Note_on_c, 1, 55, 47
3, 102718, Note_off_c, 1, 55, 43
3, 102720, Note_on_c, 1, 36, 70
3, 102790, Note_off_c, 1, 36, 64
3, 102840, Note_on_c, 1, 40, 74
3, 102910, Note_off_c, 1, 40, 68
3, 102960, Note_on_c, 1, 43, 60
3, 103030, Note_off_c, 1, 43, 55
3, 103080, Note_on_c, 1, 48, 57
3, 103150, Note_off_c, 1, 48, 52
3, 103200, Note_on_c, 1, 40, 74
3, 103270, Note_off_c, 1, 40, 68
3, 103320, Note_on_c, 1, 52, 39
3, 103390, Note_off_c, 1, 52, 36
3, 103440, Note_on_c, 1, 43, 70
3, 103510, Note_off_c, 1, 43, 64
3, 103560, Note_on_c, 1, 55, 63
3, 103630, Note_off_c, 1, 55, 58
3, 103680, Note_on_c, 1, 48, 68
3, 103798, Note_off_c, 1, 48, 62
3, 103800, Note_on_c, 1, 52, 63
3, 103918, Note_off_c, 1, 52, 58
3, 103920, Note_on_c, 1, 55, 46
3, 104038, Note_off_c, 1, 55, 42
3, 104040, Note_on_c, 1, 60, 46
3, 104158, Note_off_c, 1, 60, 42
3, 104160, Note_on_c, 1, 43, 62
3, 104278, Note_off_c, 1, 43, 57
3, 104280, Note_on_c, 1, 47, 66
3, 104398, Note_off_c, 1, 47, 60
3, 104400, Note_on_c, 1, 50, 50
3, 104518, Note_off_c, 1, 50, 46
3, 104520, Note_on_c, 1, 55, 38
3, 104638, Note_off_c, 1, 55, 35
3, 104640, Note_on_c, 1, 57, 56
3, 104657, Control_c, 1, 64, 127
3, 104758, Note_off_c, 1, 57, 51
3, 104760, Note_on_c, 1, 60, 36
3, 104878, Note_off_c, 1, 60, 33
3, 104880, Note_on_c, 1, 57, 66
3, 104998, Note_off_c, 1, 57, 60
3, 105000, Note_on_c, 1, 60, 34
3, 105103, Control_c, 1, 64, 0
3, 105118, Note_off_c, 1, 60, 31
3, 105120, Note_on_c, 1, 55, 66
3, 105154, Control_c, 1, 64, 127
3, 105238, Note_off_c, 1, 55, 60
3, 105240, Note_on_c, 1, 60, 30
3, 105358, Note_off_c, 1, 60, 28
3, 105360, Note_on_c, 1, 55, 57
3, 105478, Note_off_c, 1, 55, 52
3, 105480, Note_on_c, 1, 60, 45
3, 105574, Control_c, 1, 64, 0
3, 105598, Note_off_c, 1, 60, 41
3, 105600, Note_on_c, 1, 53, 73
3, 105617, Control_c, 1, 64, 127
3, 105718, Note_off_c, 1, 53, 67
3, 105720, Note_on_c, 1, 60, 41
3, 105838, Note_off_c, 1, 60, 38
3, 105840, Note_on_c, 1, 53, 63
3, 105958, Note_off_c, 1, 53, 58
3, 105960, Note_on_c, 1, 60, 34
3, 106063, Control_c, 1, 64, 0
3, 106078, Note_off_c, 1, 60, 31
3, 106080, Note_on_c, 1, 52, 61
3, 106114, Control_c, 1, 64, 127
3, 106198, Note_off_c, 1, 52, 56
3, 106200, Note_on_c, 1, 60, 41
3, 106318, Note_off_c, 1, 60, 38
3, 106320, Note_on_c, 1, 52, 70
3, 106438, Note_off_c, 1, 52, 64
3, 106440, Note_on_c, 1, 60, 51
3, 106534, Control_c, 1, 64, 0
3, 106558, Note_off_c, 1, 60, 47
3, 106800, Note_on_c, 1, 62, 62
3, 106800, Note_on_c, 1, 53, 62
3, 106918, Note_off_c, 1, 53, 57
3, 106918, Note_off_c, 1, 62, 57
3, 107040, Note_on_c, 1, 64, 61
3, 107040, Note_on_c, 1, 55, 45
3, 107278, Note_off_c, 1, 64, 56
3, 107280, Note_on_c, 1, 62, 62
3, 107518, Note_off_c, 1, 55, 41
3, 107518, Note_off_c, 1, 62, 57
3, 107520, Note_on_c, 1, 64, 60
3, 107520, Note_on_c, 1, 60, 73
3, 107998, Note_off_c, 1, 60, 67
3, 107998, Note_off_c, 1, 64, 55
3, 108720, Note_on_c, 1, 53, 58
3, 108720, Note_on_c, 1, 62, 63
3, 108720, Note_on_c, 1, 57, 47
3, 108862, Note_off_c, 1, 57, 43
3, 108862, Note_off_c, 1, 62, 58
3, 108862, Note_off_c, 1, 53, 53
3, 108960, Note_on_c, 1, 64, 63
3, 108960, Note_on_c, 1, 60, 60
3, 108960, Note_on_c, 1, 55, 49
3, 109198, Note_off_c, 1, 60, 55
3, 109198, Note_off_c, 1, 64, 58
3, 109200, Note_on_c, 1, 65, 61
3, 109200, Note_on_c, 1, 62, 44
3, 109438, Note_off_c, 1, 62, 40
3, 109438, Note_off_c, 1, 55, 45
3, 109438, Note_off_c, 1, 65, 56
3, 109440, Note_on_c, 1, 60, 67
3, 109440, Note_on_c, 1, 64, 69
3, 109457, Control_c, 1, 64, 127
3, 109903, Control_c, 1, 64, 0
3, 109918, Note_off_c, 1, 64, 63
3, 109918, Note_off_c, 1, 60, 61
3, 110640, Note_on_c, 1, 57, 47
3, 110640, Note_on_c, 1, 62, 63
3, 110640, Note_on_c, 1, 53, 58
3, 110782, Note_off_c, 1, 53, 53
3, 110782, Note_off_c, 1, 62, 58
3, 110782, Note_off_c, 1, 57, 43
3, 110880, Note_on_c, 1, 55, 49
3, 110880, Note_on_c, 1, 60, 60
3, 110880, Note_on_c, 1, 64, 63
3, 111118, Note_off_c, 1, 64, 58
3, 111118, Note_off_c, 1, 60, 55
3, 111120, Note_on_c, 1, 62, 44
3, 111120, Note_on_c, 1, 65, 61
3, 111358, Note_off_c, 1, 65, 56
3, 111358, Note_off_c, 1, 55, 45
3, 111358, Note_off_c, 1, 62, 40
3, 111360, Note_on_c, 1, 64, 69
3, 111360, Note_on_c, 1, 60, 79
3, 111478, Note_off_c, 1, 60, 72
3, 111478, Note_off_c, 1, 64, 63
3, 111600, Note_on_c, 1, 55, 71
3, 111718, Note_off_c, 1, 55, 65
3, 111840, Note_on_c, 1, 48, 55
3, 111840, Note_on_c, 1, 36, 61
3, 112318, Note_off_c, 1, 36, 56
3, 112318, Note_off_c, 1, 48, 50
3, 112320, Note_on_c, 1, 60, 36
3, 112438, Note_off_c, 1, 60, 33
3, 112440, Note_on_c, 1, 67, 36
3, 112558, Note_off_c, 1, 67, 33
3, 112560, Note_on_c, 1, 66, 47
3, 112678, Note_off_c, 1, 66, 43
3, 112680, Note_on_c, 1, 67, 37
3, 112798, Note_off_c, 1, 67, 34
3, 112800, Note_on_c, 1, 60, 39
3, 112918, Note_off_c, 1, 60, 36
3, 112920, Note_on_c, 1, 67, 35
3, 113038, Note_off_c, 1, 67, 32
3, 113040, Note_on_c, 1, 62, 34
3, 113158, Note_off_c, 1, 62, 31
3, 113160, Note_on_c, 1, 67, 36
3, 113278, Note_off_c, 1, 67, 33
3, 113280, Note_on_c, 1, 64, 38
3, 113398, Note_off_c, 1, 64, 35
3, 113400, Note_on_c, 1, 67, 38
3, 113518, Note_off_c, 1, 67, 35
3, 113520, Note_on_c, 1, 65, 35
3, 113638, Note_off_c, 1, 65, 32
3, 113640, Note_on_c, 1, 67, 50
3, 113758, Note_off_c, 1, 67, 46
3, 113760, Note_on_c, 1, 64, 25
3, 113878, Note_off_c, 1, 64, 23
3, 113880, Note_on_c, 1, 67, 44
3, 113998, Note_off_c, 1, 67, 40
3, 114000, Note_on_c, 1, 58, 49
3, 114118, Note_off_c, 1, 58, 45
3, 114120, Note_on_c, 1, 67, 26
3, 114238, Note_off_c, 1, 67, 24
3, 114240, Note_on_c, 1, 59, 45
3, 114358, Note_off_c, 1, 59, 41
3, 114360, Note_on_c, 1, 67, 30
3, 114478, Note_off_c, 1, 67, 28
3, 114480, Note_on_c, 1, 59, 41
3, 114598, Note_off_c, 1, 59, 38
3, 114600, Note_on_c, 1, 67, 38
3, 114718, Note_off_c, 1, 67, 35
3, 114720, Note_on_c, 1, 60, 60
3, 114838, Note_off_c, 1, 60, 55
3, 114840, Note_on_c, 1, 67, 45
3, 114958, Note_off_c, 1, 67, 41
3, 114960, Note_on_c, 1, 62, 49
3, 115078, Note_off_c, 1, 62, 45
3, 115080, Note_on_c, 1, 67, 37
3, 115198, Note_off_c, 1, 67, 34
3, 115200, Note_on_c, 1, 60, 55
3, 115318, Note_off_c, 1, 60, 50
3, 115320, Note_on_c, 1, 67, 30
3, 115438, Note_off_c, 1, 67, 28
3, 115440, Note_on_c, 1, 66, 45
3, 115558, Note_off_c, 1, 66, 41
3, 115560, Note_on_c, 1, 67, 39
3, 115678, Note_off_c, 1, 67, 36
3, 115680, Note_on_c, 1, 59, 57
3, 115798, Note_off_c, 1, 59, 52
3, 115800, Note_on_c, 1, 67, 30
3, 115918, Note_off_c, 1, 67, 28
3, 115920, Note_on_c, 1, 66, 34
3, 116038, Note_off_c, 1, 66, 31
3, 116040, Note_on_c, 1, 67, 35
3, 116158, Note_off_c, 1, 67, 32
3, 116160, Note_on_c, 1, 59, 31
3, 116278, Note_off_c, 1, 59, 29
3, 116280, Note_on_c, 1, 67, 44
3, 116398, Note_off_c, 1, 67, 40
3, 116400, Note_on_c, 1, 66, 34
3, 116518, Note_off_c, 1, 66, 31
3, 116520, Note_on_c, 1, 67, 29
3, 116638, Note_off_c, 1, 67, 27
3, 116640, Note_on_c, 1, 59, 39
3, 116758, Note_off_c, 1, 59, 36
3, 116760, Note_on_c, 1, 67, 49
3, 116878, Note_off_c, 1, 67, 45
3, 116880, Note_on_c, 1, 60, 68
3, 116998, Note_off_c, 1, 60, 62
3, 117000, Note_on_c, 1, 67, 46
3, 117118, Note_off_c, 1, 67, 42
3, 117120, Note_on_c, 1, 62, 60
3, 117238, Note_off_c, 1, 62, 55
3, 117240, Note_on_c, 1, 67, 45
3, 117358, Note_off_c, 1, 67, 41
3, 117360, Note_on_c, 1, 64, 60
3, 117478, Note_off_c, 1, 64, 55
3, 117480, Note_on_c, 1, 67, 46
3, 117598, Note_off_c, 1, 67, 42
3, 117600, Note_on_c, 1, 65, 63
3, 117718, Note_off_c, 1, 65, 58
3, 117720, Note_on_c, 1, 67, 37
3, 117838, Note_off_c, 1, 67, 34
3, 117840, Note_on_c, 1, 62, 61
3, 117958, Note_off_c, 1, 62, 56
3, 117960, Note_on_c, 1, 67, 46
3, 118078, Note_off_c, 1, 67, 42
3, 118080, Note_on_c, 1, 59, 60
3, 118198, Note_off_c, 1, 59, 55
3, 118200, Note_on_c, 1, 67, 50
3, 118318, Note_off_c, 1, 67, 46
3, 118320, Note_on_c, 1, 62, 74
3, 118438, Note_off_c, 1, 62, 68
3, 118440, Note_on_c, 1, 67, 50
3, 118558, Note_off_c, 1, 67, 46
3, 118560, Note_on_c, 1, 59, 69
3, 118678, Note_off_c, 1, 59, 63
3, 118680, Note_on_c, 1, 67, 60
3, 118798, Note_off_c, 1, 67, 55
3, 118800, Note_on_c, 1, 55, 70
3, 118918, Note_off_c, 1, 55, 64
3, 118920, Note_on_c, 1, 67, 63
3, 119038, Note_off_c, 1, 67, 58
3, 119040, Note_on_c, 1, 60, 66
3, 119158, Note_off_c, 1, 60, 60
3, 119160, Note_on_c, 1, 67, 50
3, 119278, Note_off_c, 1, 67, 46
3, 119280, Note_on_c, 1, 64, 34
3, 119398, Note_off_c, 1, 64, 31
3, 119400, Note_on_c, 1, 67, 40
3, 119518, Note_off_c, 1, 67, 37
3, 119520, Note_on_c, 1, 60, 60
3, 119638, Note_off_c, 1, 60, 55
3, 119640, Note_on_c, 1, 67, 46
3, 119758, Note_off_c, 1, 67, 42
3, 119760, Note_on_c, 1, 64, 38
3, 119878, Note_off_c, 1, 64, 35
3, 119880, Note_on_c, 1, 67, 38
3, 119998, Note_off_c, 1, 67, 35
3, 120000, Note_on_c, 1, 48, 77
3, 120080, Note_on_c, 1, 52, 47
3, 120160, Note_on_c, 1, 55, 63
3, 120240, Note_on_c, 1, 60, 73
3, 120478, Note_off_c, 1, 60, 67
3, 120478, Note_off_c, 1, 55, 58
3, 120478, Note_off_c, 1, 52, 43
3, 120478, Note_off_c, 1, 48, 70
3, 120960, Note_on_c, 1, 41, 55
3, 121040, Note_on_c, 1, 45, 60
3, 121120, Note_on_c, 1, 48, 67
3, 121200, Note_on_c, 1, 53, 67
3, 121438, Note_off_c, 1, 53, 61
3, 121438, Note_off_c, 1, 48, 61
3, 121438, Note_off_c, 1, 45, 55
3, 121438, Note_off_c, 1, 41, 50
3, 121920, Note_on_c, 1, 45, 81
3, 122000, Note_on_c, 1, 49, 60
3, 122080, Note_on_c, 1, 52, 60
3, 122160, Note_on_c, 1, 57, 51
3, 122398, Note_off_c, 1, 57, 47
3, 122398, Note_off_c, 1, 52, 55
3, 122398, Note_off_c, 1, 49, 55
3, 122398, Note_off_c, 1, 45, 74
3, 122880, Note_on_c, 1, 50, 86
3, 122960, Note_on_c, 1, 54, 55
3, 123040, Note_on_c, 1, 57, 63
3, 123120, Note_on_c, 1, 62, 68
3, 123358, Note_off_c, 1, 57, 58
3, 123358, Note_off_c, 1, 54, 50
3, 123358, Note_off_c, 1, 50, 79
3, 123840, Note_on_c, 1, 47, 68
3, 123920, Note_on_c, 1, 50, 71
3, 124000, Note_on_c, 1, 55, 62
3, 124080, Note_on_c, 1, 59, 49
3, 124158, Note_off_c, 1, 59, 45
3, 124318, Note_off_c, 1, 55, 57
3, 124318, Note_off_c, 1, 50, 65
3, 124318, Note_off_c, 1, 47, 62
3, 124800, Note_on_c, 1, 48, 71
3, 124880, Note_on_c, 1, 52, 71
3, 124960, Note_on_c, 1, 55, 71
3, 125040, Note_on_c, 1, 60, 72
3, 125198, Note_off_c, 1, 60, 66
3, 125278, Note_off_c, 1, 55, 65
3, 125278, Note_off_c, 1, 52, 65
3, 125278, Note_off_c, 1, 48, 65
3, 125760, Note_on_c, 1, 53, 60
3, 125760, Note_on_c, 1, 57, 46
3, 125998, Note_off_c, 1, 57, 42
3, 125998, Note_off_c, 1, 53, 55
3, 126240, Note_on_c, 1, 57, 57
3, 126240, Note_on_c, 1, 54, 52
3, 126478, Note_off_c, 1, 54, 48
3, 126478, Note_off_c, 1, 57, 52
3, 126720, Note_on_c, 1, 55, 67
3, 126790, Note_off_c, 1, 55, 61
3, 126840, Note_on_c, 1, 67, 61
3, 126958, Note_off_c, 1, 67, 56
3, 126960, Note_on_c, 1, 66, 51
3, 127078, Note_off_c, 1, 66, 47
3, 127080, Note_on_c, 1, 67, 36
3, 127198, Note_off_c, 1, 67, 33
3, 127200, Note_on_c, 1, 66, 51
3, 127318, Note_off_c, 1, 66, 47
3, 127320, Note_on_c, 1, 67, 29
3, 127438, Note_off_c, 1, 67, 27
3, 127440, Note_on_c, 1, 65, 52
3, 127558, Note_off_c, 1, 65, 48
3, 127560, Note_on_c, 1, 67, 56
3, 127678, Note_off_c, 1, 67, 51
3, 127680, Note_on_c, 1, 64, 70
3, 127798, Note_off_c, 1, 64, 64
3, 127800, Note_on_c, 1, 67, 52
3, 127918, Note_off_c, 1, 67, 48
3, 127920, Note_on_c, 1, 60, 57
3, 128038, Note_off_c, 1, 60, 52
3, 128040, Note_on_c, 1, 67, 28
3, 128158, Note_off_c, 1, 67, 26
3, 128160, Note_on_c, 1, 64, 40
3, 128278, Note_off_c, 1, 64, 37
3, 128280, Note_on_c, 1, 67, 40
3, 128398, Note_off_c, 1, 67, 37
3, 128400, Note_on_c, 1, 60, 49
3, 128518, Note_off_c, 1, 60, 45
3, 128520, Note_on_c, 1, 67, 49
3, 128638, Note_off_c, 1, 67, 45
3, 128640, Note_on_c, 1, 62, 56
3, 128758, Note_off_c, 1, 62, 51
3, 128760, Note_on_c, 1, 67, 41
3, 128878, Note_off_c, 1, 67, 38
3, 128880, Note_on_c, 1, 60, 49
3, 128998, Note_off_c, 1, 60, 45
3, 129000, Note_on_c, 1, 67, 26
3, 129118, Note_off_c, 1, 67, 24
3, 129120, Note_on_c, 1, 59, 52
3, 129238, Note_off_c, 1, 59, 48
3, 129240, Note_on_c, 1, 67, 25
3, 129358, Note_off_c, 1, 67, 23
3, 129360, Note_on_c, 1, 55, 62
3, 129478, Note_off_c, 1, 55, 57
3, 129480, Note_on_c, 1, 67, 30
3, 129598, Note_off_c, 1, 67, 28
3, 129600, Note_on_c, 1, 60, 46
3, 129718, Note_off_c, 1, 60, 42
3, 129720, Note_on_c, 1, 67, 46
3, 129838, Note_off_c, 1, 67, 42
3, 129840, Note_on_c, 1, 66, 38
3, 129958, Note_off_c, 1, 66, 35
3, 129960, Note_on_c, 1, 67, 57
3, 130078, Note_off_c, 1, 67, 52
3, 130080, Note_on_c, 1, 66, 70
3, 130198, Note_off_c, 1, 66, 64
3, 130200, Note_on_c, 1, 67, 70
3, 130318, Note_off_c, 1, 67, 64
3, 130320, Note_on_c, 1, 69, 68
3, 130438, Note_off_c, 1, 69, 62
3, 130440, Note_on_c, 1, 67, 70
3, 130558, Note_off_c, 1, 67, 64
3, 130560, Note_on_c, 1, 65, 67
3, 130678, Note_off_c, 1, 65, 61
3, 130680, Note_on_c, 1, 67, 70
3, 130798, Note_off_c, 1, 67, 64
3, 130800, Note_on_c, 1, 64, 60
3, 130918, Note_off_c, 1, 64, 55
3, 130920, Note_on_c, 1, 67, 58
3, 131038, Note_off_c, 1, 67, 53
3, 131040, Note_on_c, 1, 65, 31
3, 131158, Note_off_c, 1, 65, 29
3, 131160, Note_on_c, 1, 67, 60
3, 131278, Note_off_c, 1, 67, 55
3, 131280, Note_on_c, 1, 62, 46
3, 131398, Note_off_c, 1, 62, 42
3, 131400, Note_on_c, 1, 67, 49
3, 131518, Note_off_c, 1, 67, 45
3, 131520, Note_on_c, 1, 64, 30
3, 131638, Note_off_c, 1, 64, 28
3, 131640, Note_on_c, 1, 67, 44
3, 131758, Note_off_c, 1, 67, 40
3, 131760, Note_on_c, 1, 60, 56
3, 131878, Note_off_c, 1, 60, 51
3, 131880, Note_on_c, 1, 67, 34
3, 131998, Note_off_c, 1, 67, 31
3, 132000, Note_on_c, 1, 64, 30
3, 132118, Note_off_c, 1, 64, 28
3, 132120, Note_on_c, 1, 67, 28
3, 132238, Note_off_c, 1, 67, 26
3, 132240, Note_on_c, 1, 60, 45
3, 132358, Note_off_c, 1, 60, 41
3, 132360, Note_on_c, 1, 67, 37
3, 132478, Note_off_c, 1, 67, 34
3, 132480, Note_on_c, 1, 62, 29
3, 132598, Note_off_c, 1, 62, 27
3, 132600, Note_on_c, 1, 67, 28
3, 132718, Note_off_c, 1, 67, 26
3, 132720, Note_on_c, 1, 60, 23
3, 132838, Note_off_c, 1, 60, 21
3, 132840, Note_on_c, 1, 67, 46
3, 132958, Note_off_c, 1, 67, 42
3, 132960, Note_on_c, 1, 59, 49
3, 133078, Note_off_c, 1, 59, 45
3, 133080, Note_on_c, 1, 67, 27
3, 133198, Note_off_c, 1, 67, 25
3, 133200, Note_on_c, 1, 55, 47
3, 133318, Note_off_c, 1, 55, 43
3, 133320, Note_on_c, 1, 67, 33
3, 133438, Note_off_c, 1, 67, 30
3, 133440, Note_on_c, 1, 60, 57
3, 133558, Note_off_c, 1, 60, 52
3, 133560, Note_on_c, 1, 67, 40
3, 133678, Note_off_c, 1, 67, 37
3, 133680, Note_on_c, 1, 64, 11
3, 133798, Note_off_c, 1, 64, 10
3, 133800, Note_on_c, 1, 67, 33
3, 133918, Note_off_c, 1, 67, 30
3, 133920, Note_on_c, 1, 60, 36
3, 134040, Note_on_c, 1, 69, 46
3, 134158, Note_off_c, 1, 69, 42
3, 134160, Note_on_c, 1, 65, 41
3, 134278, Note_off_c, 1, 65, 38
3, 134280, Note_on_c, 1, 69, 34
3, 134398, Note_off_c, 1, 60, 33
3, 134398, Note_off_c, 1, 69, 31
3, 134400, Note_on_c, 1, 60, 45
3, 134520, Note_on_c, 1, 67, 57
3, 134638, Note_off_c, 1, 67, 52
3, 134640, Note_on_c, 1, 64, 36
3, 134758, Note_off_c, 1, 64, 33
3, 134760, Note_on_c, 1, 67, 41
3, 134878, Note_off_c, 1, 60, 41
3, 134878, Note_off_c, 1, 67, 38
3, 134880, Note_on_c, 1, 58, 57
3, 135000, Note_on_c, 1, 65, 30
3, 135118, Note_off_c, 1, 65, 28
3, 135120, Note_on_c, 1, 62, 25
3, 135238, Note_off_c, 1, 62, 23
3, 135240, Note_on_c, 1, 65, 41
3, 135358, Note_off_c, 1, 58, 52
3, 135358, Note_off_c, 1, 65, 38
3, 135360, Note_on_c, 1, 57, 63
3, 135480, Note_on_c, 1, 65, 52
3, 135598, Note_off_c, 1, 65, 48
3, 135600, Note_on_c, 1, 60, 29
3, 135718, Note_off_c, 1, 60, 27
3, 135720, Note_on_c, 1, 65, 40
3, 135838, Note_off_c, 1, 57, 58
3, 135838, Note_off_c, 1, 65, 37
3, 135840, Note_on_c, 1, 53, 51
3, 135960, Note_on_c, 1, 62, 58
3, 136078, Note_off_c, 1, 62, 53
3, 136080, Note_on_c, 1, 57, 46
3, 136198, Note_off_c, 1, 57, 42
3, 136200, Note_on_c, 1, 62, 14
3, 136318, Note_off_c, 1, 53, 47
3, 136318, Note_off_c, 1, 62, 13
3, 136320, Note_on_c, 1, 55, 60
3, 136440, Note_on_c, 1, 64, 28
3, 136558, Note_off_c, 1, 64, 26
3, 136560, Note_on_c, 1, 60, 36
3, 136678, Note_off_c, 1, 60, 33
3, 136680, Note_on_c, 1, 64, 30
3, 136798, Note_off_c, 1, 55, 55
3, 136798, Note_off_c, 1, 64, 28
3, 136800, Note_on_c, 1, 55, 52
3, 136920, Note_on_c, 1, 65, 52
3, 137038, Note_off_c, 1, 65, 48
3, 137040, Note_on_c, 1, 59, 45
3, 137158, Note_off_c, 1, 59, 41
3, 137160, Note_on_c, 1, 65, 57
3, 137278, Note_off_c, 1, 55, 48
3, 137278, Note_off_c, 1, 65, 52
3, 137280, Note_on_c, 1, 48, 66
3, 137398, Note_off_c, 1, 48, 60
3, 137400, Note_on_c, 1, 55, 41
3, 137518, Note_off_c, 1, 55, 38
3, 137520, Note_on_c, 1, 52, 50
3, 137638, Note_off_c, 1, 52, 46
3, 137640, Note_on_c, 1, 55, 35
3, 137758, Note_off_c, 1, 55, 32
3, 137760, Note_on_c, 1, 48, 57
3, 137880, Note_on_c, 1, 57, 58
3, 137998, Note_off_c, 1, 57, 53
3, 138000, Note_on_c, 1, 53, 44
3, 138118, Note_off_c, 1, 53, 40
3, 138120, Note_on_c, 1, 57, 57
3, 138238, Note_off_c, 1, 48, 52
3, 138238, Note_off_c, 1, 57, 52
3, 138240, Note_on_c, 1, 48, 60
3, 138360, Note_on_c, 1, 55, 49
3, 138478, Note_off_c, 1, 55, 45
3, 138480, Note_on_c, 1, 52, 15
3, 138598, Note_off_c, 1, 52, 14
3, 138600, Note_on_c, 1, 55, 60
3, 138718, Note_off_c, 1, 48, 55
3, 138718, Note_off_c, 1, 55, 55
3, 138720, Note_on_c, 1, 46, 56
3, 138840, Note_on_c, 1, 53, 46
3, 138958, Note_off_c, 1, 53, 42
3, 138960, Note_on_c, 1, 50, 44
3, 139078, Note_off_c, 1, 50, 40
3, 139080, Note_on_c, 1, 53, 38
3, 139198, Note_off_c, 1, 46, 51
3, 139198, Note_off_c, 1, 53, 35
3, 139200, Note_on_c, 1, 45, 45
3, 139320, Note_on_c, 1, 53, 46
3, 139438, Note_off_c, 1, 53, 42
3, 139440, Note_on_c, 1, 48, 69
3, 139558, Note_off_c, 1, 48, 63
3, 139560, Note_on_c, 1, 53, 49
3, 139678, Note_off_c, 1, 45, 41
3, 139678, Note_off_c, 1, 53, 45
3, 139680, Note_on_c, 1, 41, 46
3, 139800, Note_on_c, 1, 50, 50
3, 139918, Note_off_c, 1, 50, 46
3, 139920, Note_on_c, 1, 45, 50
3, 140038, Note_off_c, 1, 45, 46
3, 140040, Note_on_c, 1, 50, 47
3, 140158, Note_off_c, 1, 41, 42
3, 140158, Note_off_c, 1, 50, 43
3, 140160, Note_on_c, 1, 43, 68
3, 140280, Note_on_c, 1, 52, 57
3, 140398, Note_off_c, 1, 52, 52
3, 140400, Note_on_c, 1, 48, 66
3, 140518, Note_off_c, 1, 48, 60
3, 140520, Note_on_c, 1, 52, 39
3, 140638, Note_off_c, 1, 43, 62
3, 140638, Note_off_c, 1, 52, 36
3, 140640, Note_on_c, 1, 43, 60
3, 140760, Note_on_c, 1, 53, 38
3, 140878, Note_off_c, 1, 53, 35
3, 140880, Note_on_c, 1, 50, 60
3, 140998, Note_off_c, 1, 43, 55
3, 140998, Note_off_c, 1, 50, 55
3, 141000, Note_on_c, 1, 53, 46
3, 141118, Note_off_c, 1, 53, 42
3, 141360, Note_on_c, 1, 52, 55
3, 141360, Note_on_c, 1, 48, 58
3, 141598, Note_off_c, 1, 48, 53
3, 141598, Note_off_c, 1, 52, 50
3, 141600, Note_on_c, 1, 50, 63
3, 141600, Note_on_c, 1, 53, 58
3, 141838, Note_off_c, 1, 53, 53
3, 141838, Note_off_c, 1, 50, 58
3, 141840, Note_on_c, 1, 55, 62
3, 141840, Note_on_c, 1, 52, 62
3, 142078, Note_off_c, 1, 52, 57
3, 142078, Note_off_c, 1, 55, 57
3, 142320, Note_on_c, 1, 47, 34
3, 142320, Note_on_c, 1, 43, 44
3, 142558, Note_off_c, 1, 43, 40
3, 142558, Note_off_c, 1, 47, 31
3, 142560, Note_on_c, 1, 45, 56
3, 142560, Note_on_c, 1, 48, 57
3, 142798, Note_off_c, 1, 48, 52
3, 142798, Note_off_c, 1, 45, 51
3, 142800, Note_on_c, 1, 50, 50
3, 142800, Note_on_c, 1, 47, 55
3, 143038, Note_off_c, 1, 47, 50
3, 143038, Note_off_c, 1, 50, 46
3, 143280, Note_on_c, 1, 52, 61
3, 143280, Note_on_c, 1, 48, 62
3, 143518, Note_off_c, 1, 48, 57
3, 143518, Note_off_c, 1, 52, 56
3, 143520, Note_on_c, 1, 53, 69
3, 143520, Note_on_c, 1, 50, 72
3, 143758, Note_off_c, 1, 50, 66
3, 143758, Note_off_c, 1, 53, 63
3, 143760, Note_on_c, 1, 55, 57
3, 143760, Note_on_c, 1, 52, 60
3, 143998, Note_off_c, 1, 52, 55
3, 143998, Note_off_c, 1, 55, 52
3, 144240, Note_on_c, 1, 47, 31
3, 144240, Note_on_c, 1, 43, 34
3, 144478, Note_off_c, 1, 43, 31
3, 144478, Note_off_c, 1, 47, 29
3, 144480, Note_on_c, 1, 45, 51
3, 144480, Note_on_c, 1, 48, 58
3, 144718, Note_off_c, 1, 48, 53
3, 144718, Note_off_c, 1, 45, 47
3, 144720, Note_on_c, 1, 50, 47
3, 144720, Note_on_c, 1, 47, 55
3, 144958, Note_off_c, 1, 47, 50
3, 144958, Note_off_c, 1, 50, 43
3, 144960, Note_on_c, 1, 48, 60
3, 145438, Note_off_c, 1, 48, 55
3, 145920, Note_on_c, 1, 55, 46
3, 145920, Note_on_c, 1, 52, 57
3, 145920, Note_on_c, 1, 60, 46
3, 146638, Note_off_c, 1, 55, 42
3, 146640, Note_on_c, 1, 58, 44
3, 146878, Note_off_c, 1, 52, 52
3, 146878, Note_off_c, 1, 60, 42
3, 146878, Note_off_c, 1, 58, 40
3, 146880, Note_on_c, 1, 57, 51
3, 146880, Note_on_c, 1, 53, 49
3, 146880, Note_on_c, 1, 60, 60
3, 147358, Note_off_c, 1, 60, 55
3, 147358, Note_off_c, 1, 53, 45
3, 147358, Note_off_c, 1, 57, 47
3, 148080, Note_on_c, 1, 63, 57
3, 148080, Note_on_c, 1, 54, 49
3, 148318, Note_off_c, 1, 54, 45
3, 148318, Note_off_c, 1, 63, 52
3, 148320, Note_on_c, 1, 64, 67
3, 148320, Note_on_c, 1, 55, 49
3, 148558, Note_off_c, 1, 64, 61
3, 148560, Note_on_c, 1, 65, 52
3, 148798, Note_off_c, 1, 55, 45
3, 148798, Note_off_c, 1, 65, 48
3, 148800, Note_on_c, 1, 60, 45
3, 148800, Note_on_c, 1, 64, 47
3, 149278, Note_off_c, 1, 64, 43
3, 149278, Note_off_c, 1, 60, 41
3, 149760, Note_on_c, 1, 60, 46
3, 149760, Note_on_c, 1, 52, 57
3, 149760, Note_on_c, 1, 55, 46
3, 150478, Note_off_c, 1, 55, 42
3, 150480, Note_on_c, 1, 58, 44
3, 150718, Note_off_c, 1, 52, 52
3, 150718, Note_off_c, 1, 60, 42
3, 150718, Note_off_c, 1, 58, 40
3, 150720, Note_on_c, 1, 60, 60
3, 150720, Note_on_c, 1, 53, 49
3, 150720, Note_on_c, 1, 57, 51
3, 151198, Note_off_c, 1, 57, 47
3, 151198, Note_off_c, 1, 53, 45
3, 151198, Note_off_c, 1, 60, 55
3, 151680, Note_on_c, 1, 54, 60
3, 151680, Note_on_c, 1, 63, 47
3, 152158, Note_off_c, 1, 63, 43
3, 152158, Note_off_c, 1, 54, 55
3, 152640, Note_on_c, 1, 55, 63
3, 152758, Note_off_c, 1, 55, 58
3, 152760, Note_on_c, 1, 64, 35
3, 152878, Note_off_c, 1, 64, 32
3, 152880, Note_on_c, 1, 60, 37
3, 152998, Note_off_c, 1, 60, 34
3, 153000, Note_on_c, 1, 64, 50
3, 153118, Note_off_c, 1, 64, 46
3, 153120, Note_on_c, 1, 55, 62
3, 153238, Note_off_c, 1, 55, 57
3, 153240, Note_on_c, 1, 64, 51
3, 153358, Note_off_c, 1, 64, 47
3, 153360, Note_on_c, 1, 60, 41
3, 153478, Note_off_c, 1, 60, 38
3, 153480, Note_on_c, 1, 64, 49
3, 153598, Note_off_c, 1, 64, 45
3, 153600, Note_on_c, 1, 55, 70
3, 153718, Note_off_c, 1, 55, 64
3, 153720, Note_on_c, 1, 64, 56
3, 153838, Note_off_c, 1, 64, 51
3, 153840, Note_on_c, 1, 60, 30
3, 153958, Note_off_c, 1, 60, 28
3, 153960, Note_on_c, 1, 64, 38
3, 154078, Note_off_c, 1, 64, 35
3, 154080, Note_on_c, 1, 55, 63
3, 154198, Note_off_c, 1, 55, 58
3, 154200, Note_on_c, 1, 65, 37
3, 154318, Note_off_c, 1, 65, 34
3, 154320, Note_on_c, 1, 62, 38
3, 154438, Note_off_c, 1, 62, 35
3, 154440, Note_on_c, 1, 65, 27
3, 154558, Note_off_c, 1, 65, 25
3, 154560, Note_on_c, 1, 48, 38
3, 154586, Control_c, 1, 64, 127
3, 154678, Note_off_c, 1, 48, 35
3, 154680, Note_on_c, 1, 52, 49
3, 154798, Note_off_c, 1, 52, 45
3, 154800, Note_on_c, 1, 60, 39
3, 154918, Note_off_c, 1, 60, 36
3, 154920, Note_on_c, 1, 52, 45
3, 155014, Control_c, 1, 64, 0
3, 155038, Note_off_c, 1, 52, 41
3, 155040, Note_on_c, 1, 48, 56
3, 155091, Control_c, 1, 64, 127
3, 155158, Note_off_c, 1, 48, 51
3, 155160, Note_on_c, 1, 53, 46
3, 155278, Note_off_c, 1, 53, 42
3, 155280, Note_on_c, 1, 59, 62
3, 155398, Note_off_c, 1, 59, 57
3, 155400, Note_on_c, 1, 53, 51
3, 155494, Control_c, 1, 64, 0
3, 155518, Note_off_c, 1, 53, 47
3, 155520, Note_on_c, 1, 48, 58
3, 155638, Note_off_c, 1, 48, 53
3, 155640, Note_on_c, 1, 50, 40
3, 155758, Note_off_c, 1, 50, 37
3, 155760, Note_on_c, 1, 59, 36
3, 155878, Note_off_c, 1, 59, 33
3, 155880, Note_on_c, 1, 50, 51
3, 155998, Note_off_c, 1, 50, 47
3, 156000, Note_on_c, 1, 48, 60
3, 156118, Note_off_c, 1, 48, 55
3, 156120, Note_on_c, 1, 53, 34
3, 156238, Note_off_c, 1, 53, 31
3, 156240, Note_on_c, 1, 59, 41
3, 156358, Note_off_c, 1, 59, 38
3, 156360, Note_on_c, 1, 53, 40
3, 156478, Note_off_c, 1, 53, 37
3, 156480, Note_on_c, 1, 48, 56
3, 156506, Control_c, 1, 64, 127
3, 156598, Note_off_c, 1, 48, 51
3, 156600, Note_on_c, 1, 52, 34
3, 156718, Note_off_c, 1, 52, 31
3, 156720, Note_on_c, 1, 60, 28
3, 156838, Note_off_c, 1, 60, 26
3, 156840, Note_on_c, 1, 52, 36
3, 156934, Control_c, 1, 64, 0
3, 156958, Note_off_c, 1, 52, 33
3, 156960, Note_on_c, 1, 48, 57
3, 157011, Control_c, 1, 64, 127
3, 157078, Note_off_c, 1, 48, 52
3, 157080, Note_on_c, 1, 53, 52
3, 157198, Note_off_c, 1, 53, 48
3, 157200, Note_on_c, 1, 59, 40
3, 157318, Note_off_c, 1, 59, 37
3, 157320, Note_on_c, 1, 53, 55
3, 157414, Control_c, 1, 64, 0
3, 157438, Note_off_c, 1, 53, 50
3, 157440, Note_on_c, 1, 48, 58
3, 157558, Note_off_c, 1, 48, 53
3, 157560, Note_on_c, 1, 50, 40
3, 157678, Note_off_c, 1, 50, 37
3, 157680, Note_on_c, 1, 59, 36
3, 157798, Note_off_c, 1, 59, 33
3, 157800, Note_on_c, 1, 50, 51
3, 157918, Note_off_c, 1, 50, 47
3, 157920, Note_on_c, 1, 48, 60
3, 158038, Note_off_c, 1, 48, 55
3, 158040, Note_on_c, 1, 53, 34
3, 158158, Note_off_c, 1, 53, 31
3, 158160, Note_on_c, 1, 59, 41
3, 158278, Note_off_c, 1, 59, 38
3, 158280, Note_on_c, 1, 53, 40
3, 158398, Note_off_c, 1, 53, 37
3, 158400, Note_on_c, 1, 48, 56
3, 158426, Control_c, 1, 64, 127
3, 158518, Note_off_c, 1, 48, 51
3, 158520, Note_on_c, 1, 52, 34
3, 158638, Note_off_c, 1, 52, 31
3, 158640, Note_on_c, 1, 60, 28
3, 158758, Note_off_c, 1, 60, 26
3, 158760, Note_on_c, 1, 52, 36
3, 158854, Control_c, 1, 64, 0
3, 158878, Note_off_c, 1, 52, 33
3, 158880, Note_on_c, 1, 48, 57
3, 158931, Control_c, 1, 64, 127
3, 158998, Note_off_c, 1, 48, 52
3, 159000, Note_on_c, 1, 53, 52
3, 159118, Note_off_c, 1, 53, 48
3, 159120, Note_on_c, 1, 59, 40
3, 159238, Note_off_c, 1, 59, 37
3, 159240, Note_on_c, 1, 53, 55
3, 159334, Control_c, 1, 64, 0
3, 159358, Note_off_c, 1, 53, 50
3, 159360, Note_on_c, 1, 48, 56
3, 159478, Note_off_c, 1, 48, 51
3, 159480, Note_on_c, 1, 52, 34
3, 159598, Note_off_c, 1, 52, 31
3, 159600, Note_on_c, 1, 60, 28
3, 159718, Note_off_c, 1, 60, 26
3, 159720, Note_on_c, 1, 52, 36
3, 159838, Note_off_c, 1, 52, 33
3, 159840, Note_on_c, 1, 48, 57
3, 159958, Note_off_c, 1, 48, 52
3, 159960, Note_on_c, 1, 53, 52
3, 160078, Note_off_c, 1, 53, 48
3, 160080, Note_on_c, 1, 59, 40
3, 160198, Note_off_c, 1, 59, 37
3, 160200, Note_on_c, 1, 53, 55
3, 160318, Note_off_c, 1, 53, 50
3, 160320, Note_on_c, 1, 48, 56
3, 160346, Control_c, 1, 64, 127
3, 160438, Note_off_c, 1, 48, 51
3, 160440, Note_on_c, 1, 52, 34
3, 160558, Note_off_c, 1, 52, 31
3, 160560, Note_on_c, 1, 60, 28
3, 160678, Note_off_c, 1, 60, 26
3, 160680, Note_on_c, 1, 52, 36
3, 160774, Control_c, 1, 64, 0
3, 160798, Note_off_c, 1, 52, 33
3, 160800, Note_on_c, 1, 48, 57
3, 160851, Control_c, 1, 64, 127
3, 160918, Note_off_c, 1, 48, 52
3, 160920, Note_on_c, 1, 53, 52
3, 161038, Note_off_c, 1, 53, 48
3, 161040, Note_on_c, 1, 59, 40
3, 161158, Note_off_c, 1, 59, 37
3, 161160, Note_on_c, 1, 53, 55
3, 161254, Control_c, 1, 64, 0
3, 161278, Note_off_c, 1, 53, 50
3, 161280, Note_on_c, 1, 48, 56
3, 161306, Control_c, 1, 64, 127
3, 161398, Note_off_c, 1, 48, 51
3, 161400, Note_on_c, 1, 52, 34
3, 161518, Note_off_c, 1, 52, 31
3, 161520, Note_on_c, 1, 60, 28
3, 161638, Note_off_c, 1, 60, 26
3, 161640, Note_on_c, 1, 52, 36
3, 161734, Control_c, 1, 64, 0
3, 161758, Note_off_c, 1, 52, 33
3, 161760, Note_on_c, 1, 48, 57
3, 161811, Control_c, 1, 64, 127
3, 161878, Note_off_c, 1, 48, 52
3, 161880, Note_on_c, 1, 53, 52
3, 161998, Note_off_c, 1, 53, 48
3, 162000, Note_on_c, 1, 59, 40
3, 162118, Note_off_c, 1, 59, 37
3, 162120, Note_on_c, 1, 53, 55
3, 162214, Control_c, 1, 64, 0
3, 162238, Note_off_c, 1, 53, 50
3, 162240, Note_on_c, 1, 48, 46
3, 162240, Note_on_c, 1, 52, 30
3, 162478, Note_off_c, 1, 52, 28
3, 162478, Note_off_c, 1, 48, 42
3, 162960, Note_on_c, 1, 55, 61
3, 163078, Note_off_c, 1, 55, 56
3, 163200, Note_on_c, 1, 56, 52
3, 163678, Note_off_c, 1, 56, 48
3, 163680, Note_on_c, 1, 57, 28
3, 163918, Note_off_c, 1, 57, 26
3, 164160, Note_on_c, 1, 53, 90
3, 164160, Note_on_c, 1, 41, 75
3, 164398, Note_off_c, 1, 41, 69
3, 164398, Note_off_c, 1, 53, 82
3, 164640, Note_on_c, 1, 43, 69
3, 164640, Note_on_c, 1, 55, 78
3, 164878, Note_off_c, 1, 55, 71
3, 164878, Note_off_c, 1, 43, 63
3, 165120, Note_on_c, 1, 40, 83
3, 165120, Note_on_c, 1, 48, 92
3, 165120, Note_on_c, 1, 43, 70
3, 165120, Note_on_c, 1, 36, 83
3, 165358, Note_off_c, 1, 36, 76
3, 165358, Note_off_c, 1, 43, 64
3, 165358, Note_off_c, 1, 48, 84
3, 165358, Note_off_c, 1, 62, 64
3, 165358, Note_off_c, 1, 40, 76
3, 165358, End_track
0, 0, End_of_file
