0, 0, Header, 1, 3, 480
1, 0, Start_track
1, 0, Title_t, "nameless"
1, 0, Time_signature, 2, 2, 24, 8
1, 0, Tempo, 491803
1, 224614, Tempo, 517241
1, 225277, Tempo, 508475
1, 227031, Tempo, 491803
1, 228128, Tempo, 483871
1, 233314, Tempo, 491803
1, 233909, Tempo, 504202
1, 235209, Tempo, 526316
1, 235243, Tempo, 483871
1, 398449, Tempo, 495868
1, 398636, Tempo, 512821
1, 398827, Tempo, 530973
1, 399014, Tempo, 550459
1, 399205, Tempo, 571429
1, 399392, Tempo, 594059
1, 399583, Tempo, 618557
1, 399770, Tempo, 645161
1, 399961, Tempo, 674157
1, 400148, Tempo, 705882
1, 400335, Tempo, 740741
1, 400526, Tempo, 779221
1, 400713, Tempo, 821918
1, 400783, Tempo, 833333
1, 402240, End_track
2, 0, Start_track
2, 0, MIDI_port, 0
2, 0, Channel_prefix, 0
2, 0, Title_t, "Piano R.H."
2, 0, Key_signature, 0, "major"
2, 0, Control_c, 0, 0, 0
2, 5, Program_c, 0, 0
2, 10, Control_c, 0, 7, 127
2, 15, Control_c, 0, 10, 44
2, 20, Control_c, 0, 91, 76
2, 25, Control_c, 0, 93, 0
2, 30, Control_c, 0, 94, 0
2, 35, Control_c, 0, 5, 0
2, 40, Control_c, 0, 11, 127
2, 960, Control_c, 0, 101, 0
2, 965, Control_c, 0, 100, 0
2, 970, Control_c, 0, 6, 2
2, 975, Control_c, 0, 101, 127
2, 980, Control_c, 0, 100, 127
2, 2880, Note_on_c, 0, 79, 76
2, 3062, Note_off_c, 0, 79, 76
2, 3351, Note_on_c, 0, 79, 74
2, 4094, Note_on_c, 0, 77, 68
2, 4168, Note_off_c, 0, 79, 74
2, 4205, Note_on_c, 0, 76, 94
2, 4243, Note_off_c, 0, 77, 68
2, 4259, Note_off_c, 0, 76, 94
2, 4329, Note_on_c, 0, 76, 78
2, 4422, Note_on_c, 0, 74, 77
2, 4432, Note_off_c, 0, 76, 78
2, 4538, Note_on_c, 0, 72, 83
2, 4627, Note_off_c, 0, 74, 77
2, 4655, Note_on_c, 0, 71, 63
2, 4660, Note_off_c, 0, 72, 83
2, 4764, Note_on_c, 0, 72, 79
2, 4793, Note_off_c, 0, 71, 63
2, 4852, Note_on_c, 0, 74, 65
2, 4855, Note_off_c, 0, 72, 79
2, 4933, Note_on_c, 0, 72, 74
2, 4956, Note_off_c, 0, 74, 65
2, 5035, Note_on_c, 0, 74, 53
2, 5052, Note_off_c, 0, 72, 74
2, 5118, Note_on_c, 0, 72, 78
2, 5165, Note_off_c, 0, 74, 53
2, 5190, Note_on_c, 0, 74, 52
2, 5215, Note_off_c, 0, 72, 78
2, 5273, Note_on_c, 0, 72, 72
2, 5350, Note_on_c, 0, 71, 68
2, 5355, Note_off_c, 0, 74, 52
2, 5359, Note_off_c, 0, 72, 72
2, 5420, Note_on_c, 0, 72, 74
2, 5503, Note_off_c, 0, 71, 68
2, 5507, Note_on_c, 0, 74, 65
2, 5593, Note_off_c, 0, 72, 74
2, 5611, Note_on_c, 0, 76, 76
2, 5708, Note_off_c, 0, 74, 65
2, 5721, Note_off_c, 0, 76, 76
2, 5726, Note_on_c, 0, 67, 78
2, 6315, Note_off_c, 0, 67, 78
2, 6711, Note_on_c, 0, 79, 63
2, 6737, Control_c, 0, 64, 127
2, 6756, Note_off_c, 0, 79, 63
2, 6950, Note_on_c, 0, 79, 66
2, 6998, Note_off_c, 0, 79, 66
2, 7198, Note_on_c, 0, 79, 89
2, 7930, Note_on_c, 0, 77, 58
2, 8014, Note_off_c, 0, 79, 89
2, 8040, Note_on_c, 0, 76, 72
2, 8074, Control_c, 0, 64, 0
2, 8085, Note_off_c, 0, 77, 58
2, 8092, Note_off_c, 0, 76, 72
2, 8168, Note_on_c, 0, 76, 72
2, 8177, Control_c, 0, 64, 127
2, 8274, Note_on_c, 0, 74, 66
2, 8291, Note_off_c, 0, 76, 72
2, 8386, Note_on_c, 0, 72, 78
2, 8465, Note_off_c, 0, 74, 66
2, 8490, Note_on_c, 0, 71, 67
2, 8500, Note_off_c, 0, 72, 78
2, 8595, Note_on_c, 0, 72, 72
2, 8623, Control_c, 0, 64, 0
2, 8632, Note_off_c, 0, 71, 67
2, 8686, Note_on_c, 0, 74, 56
2, 8690, Note_off_c, 0, 72, 72
2, 8768, Note_on_c, 0, 72, 62
2, 8800, Note_off_c, 0, 74, 56
2, 8870, Note_on_c, 0, 74, 61
2, 8902, Note_off_c, 0, 72, 62
2, 8960, Note_on_c, 0, 72, 74
2, 8980, Note_off_c, 0, 74, 61
2, 9038, Note_on_c, 0, 74, 60
2, 9044, Note_off_c, 0, 72, 74
2, 9117, Note_on_c, 0, 72, 74
2, 9167, Note_on_c, 0, 71, 62
2, 9178, Note_off_c, 0, 74, 60
2, 9180, Note_off_c, 0, 72, 74
2, 9243, Note_on_c, 0, 72, 72
2, 9299, Note_off_c, 0, 71, 62
2, 9328, Note_on_c, 0, 74, 71
2, 9391, Note_off_c, 0, 72, 72
2, 9440, Note_on_c, 0, 76, 72
2, 9494, Note_off_c, 0, 74, 71
2, 9563, Note_off_c, 0, 76, 72
2, 9583, Note_on_c, 0, 67, 74
2, 10140, Note_off_c, 0, 67, 74
2, 10535, Note_on_c, 0, 69, 76
2, 10592, Note_off_c, 0, 69, 76
2, 10770, Note_on_c, 0, 72, 71
2, 10837, Note_off_c, 0, 72, 71
2, 11006, Note_on_c, 0, 77, 68
2, 11046, Note_off_c, 0, 77, 68
2, 11261, Note_on_c, 0, 81, 71
2, 11297, Note_off_c, 0, 81, 71
2, 11508, Note_on_c, 0, 84, 76
2, 12020, Note_off_c, 0, 84, 76
2, 12490, Note_on_c, 0, 67, 66
2, 12535, Note_off_c, 0, 67, 66
2, 12722, Note_on_c, 0, 72, 67
2, 12778, Note_off_c, 0, 72, 67
2, 12972, Note_on_c, 0, 76, 66
2, 12999, Note_off_c, 0, 76, 66
2, 13189, Note_on_c, 0, 79, 68
2, 13244, Note_off_c, 0, 79, 68
2, 13448, Note_on_c, 0, 84, 71
2, 13888, Note_off_c, 0, 84, 71
2, 14370, Note_on_c, 0, 67, 74
2, 14433, Note_off_c, 0, 67, 74
2, 14445, Note_on_c, 0, 79, 83
2, 15765, Note_off_c, 0, 79, 83
2, 15827, Note_on_c, 0, 77, 60
2, 15881, Note_on_c, 0, 79, 71
2, 15898, Note_off_c, 0, 77, 60
2, 15962, Note_on_c, 0, 77, 70
2, 16023, Note_off_c, 0, 79, 71
2, 16025, Note_on_c, 0, 76, 71
2, 16038, Note_off_c, 0, 77, 70
2, 16108, Note_off_c, 0, 76, 71
2, 16149, Note_on_c, 0, 77, 65
2, 16314, Note_on_c, 0, 75, 78
2, 16346, Note_off_c, 0, 77, 65
2, 16830, Note_on_c, 0, 76, 48
2, 16847, Note_off_c, 0, 75, 78
2, 17526, Note_off_c, 0, 76, 48
2, 18231, Note_on_c, 0, 69, 70
2, 18405, Note_off_c, 0, 69, 70
2, 18490, Note_on_c, 0, 72, 63
2, 18599, Note_on_c, 0, 69, 72
2, 18612, Note_off_c, 0, 72, 63
2, 18673, Note_off_c, 0, 69, 72
2, 18713, Note_on_c, 0, 77, 70
2, 18802, Note_off_c, 0, 77, 70
2, 18822, Note_on_c, 0, 72, 74
2, 18933, Note_off_c, 0, 72, 74
2, 18948, Note_on_c, 0, 81, 68
2, 19040, Note_on_c, 0, 77, 67
2, 19073, Note_off_c, 0, 81, 68
2, 19148, Note_off_c, 0, 77, 67
2, 19188, Note_on_c, 0, 84, 77
2, 19690, Note_off_c, 0, 84, 77
2, 20168, Note_on_c, 0, 67, 65
2, 20275, Note_off_c, 0, 67, 65
2, 20404, Note_on_c, 0, 72, 63
2, 20509, Note_off_c, 0, 72, 63
2, 20515, Note_on_c, 0, 67, 68
2, 20590, Note_off_c, 0, 67, 68
2, 20647, Note_on_c, 0, 76, 68
2, 20740, Note_off_c, 0, 76, 68
2, 20762, Note_on_c, 0, 72, 74
2, 20875, Note_on_c, 0, 79, 76
2, 20882, Note_off_c, 0, 72, 74
2, 20990, Note_on_c, 0, 76, 68
2, 21009, Note_off_c, 0, 79, 76
2, 21070, Note_off_c, 0, 76, 68
2, 21120, Note_on_c, 0, 84, 94
2, 21735, Note_off_c, 0, 84, 94
2, 22071, Note_on_c, 0, 81, 89
2, 22313, Note_on_c, 0, 79, 72
2, 22333, Note_off_c, 0, 81, 89
2, 22366, Note_off_c, 0, 79, 72
2, 22551, Note_on_c, 0, 77, 89
2, 22585, Note_off_c, 0, 77, 89
2, 22789, Note_on_c, 0, 76, 74
2, 22835, Note_off_c, 0, 76, 74
2, 23041, Note_on_c, 0, 76, 81
2, 23275, Note_on_c, 0, 74, 74
2, 23296, Note_off_c, 0, 76, 81
2, 23337, Note_off_c, 0, 74, 74
2, 23530, Note_on_c, 0, 72, 94
2, 23580, Note_off_c, 0, 72, 94
2, 23777, Note_on_c, 0, 71, 71
2, 23832, Note_off_c, 0, 71, 71
2, 24000, Note_on_c, 0, 72, 65
2, 24108, Note_off_c, 0, 72, 65
2, 24120, Note_on_c, 0, 67, 60
2, 24240, Note_on_c, 0, 69, 77
2, 24251, Note_off_c, 0, 67, 60
2, 24360, Note_on_c, 0, 71, 74
2, 24367, Note_off_c, 0, 69, 77
2, 24439, Note_off_c, 0, 71, 74
2, 24480, Note_on_c, 0, 72, 65
2, 24600, Note_on_c, 0, 74, 97
2, 24630, Note_off_c, 0, 72, 65
2, 24720, Note_on_c, 0, 76, 81
2, 24730, Note_off_c, 0, 74, 97
2, 24804, Note_off_c, 0, 76, 81
2, 24840, Note_on_c, 0, 77, 74
2, 24960, Note_on_c, 0, 79, 94
2, 25011, Note_off_c, 0, 77, 74
2, 25080, Note_on_c, 0, 81, 76
2, 25111, Note_off_c, 0, 79, 94
2, 25200, Note_on_c, 0, 83, 79
2, 25261, Note_off_c, 0, 81, 76
2, 25291, Note_off_c, 0, 83, 79
2, 25320, Note_on_c, 0, 84, 74
2, 25397, Note_off_c, 0, 84, 74
2, 25440, Note_on_c, 0, 79, 94
2, 25494, Note_off_c, 0, 79, 94
2, 25680, Note_on_c, 0, 79, 78
2, 25718, Note_off_c, 0, 79, 78
2, 26085, Note_on_c, 0, 79, 58
2, 26195, Note_on_c, 0, 81, 36
2, 26201, Note_off_c, 0, 79, 58
2, 26318, Note_on_c, 0, 79, 43
2, 26369, Note_off_c, 0, 81, 36
2, 26380, Note_off_c, 0, 79, 43
2, 26555, Note_on_c, 0, 77, 68
2, 26678, Note_on_c, 0, 79, 62
2, 26718, Note_off_c, 0, 77, 68
2, 26788, Note_off_c, 0, 79, 62
2, 26798, Note_on_c, 0, 77, 41
2, 26847, Note_off_c, 0, 77, 41
2, 27048, Note_on_c, 0, 76, 65
2, 27165, Note_on_c, 0, 77, 52
2, 27186, Note_off_c, 0, 76, 65
2, 27295, Note_on_c, 0, 76, 52
2, 27305, Note_off_c, 0, 77, 52
2, 27353, Note_off_c, 0, 76, 52
2, 27520, Note_on_c, 0, 74, 68
2, 27637, Note_off_c, 0, 74, 68
2, 27642, Note_on_c, 0, 76, 46
2, 27723, Note_on_c, 0, 74, 65
2, 27760, Note_off_c, 0, 76, 46
2, 27765, Note_off_c, 0, 74, 65
2, 27857, Note_on_c, 0, 72, 63
2, 27968, Note_on_c, 0, 67, 72
2, 28005, Note_off_c, 0, 72, 63
2, 28078, Note_on_c, 0, 69, 81
2, 28120, Note_off_c, 0, 67, 72
2, 28194, Note_on_c, 0, 71, 71
2, 28225, Note_off_c, 0, 69, 81
2, 28280, Note_off_c, 0, 71, 71
2, 28312, Note_on_c, 0, 72, 62
2, 28435, Note_on_c, 0, 74, 83
2, 28536, Note_off_c, 0, 72, 62
2, 28545, Note_on_c, 0, 76, 68
2, 28589, Note_off_c, 0, 74, 83
2, 28632, Note_off_c, 0, 76, 68
2, 28655, Note_on_c, 0, 77, 70
2, 28779, Note_on_c, 0, 79, 94
2, 28817, Note_off_c, 0, 77, 70
2, 28887, Note_on_c, 0, 81, 78
2, 28925, Note_off_c, 0, 79, 94
2, 29015, Note_on_c, 0, 83, 83
2, 29047, Note_off_c, 0, 81, 78
2, 29105, Note_off_c, 0, 83, 83
2, 29143, Note_on_c, 0, 84, 67
2, 29219, Note_off_c, 0, 84, 67
2, 29277, Note_on_c, 0, 79, 92
2, 29325, Note_off_c, 0, 79, 92
2, 29528, Note_on_c, 0, 79, 77
2, 29565, Note_off_c, 0, 79, 77
2, 29908, Note_on_c, 0, 79, 55
2, 30035, Note_off_c, 0, 79, 55
2, 30037, Note_on_c, 0, 81, 29
2, 30142, Note_on_c, 0, 79, 56
2, 30173, Note_off_c, 0, 81, 29
2, 30187, Note_off_c, 0, 79, 56
2, 30383, Note_on_c, 0, 77, 65
2, 30497, Note_on_c, 0, 79, 51
2, 30507, Note_off_c, 0, 77, 65
2, 30616, Note_on_c, 0, 77, 48
2, 30653, Note_off_c, 0, 79, 51
2, 30682, Note_off_c, 0, 77, 48
2, 30880, Note_on_c, 0, 76, 63
2, 30988, Note_on_c, 0, 77, 52
2, 31010, Note_off_c, 0, 76, 63
2, 31122, Note_on_c, 0, 76, 58
2, 31179, Note_off_c, 0, 77, 52
2, 31195, Note_off_c, 0, 76, 58
2, 31345, Note_on_c, 0, 74, 57
2, 31455, Note_on_c, 0, 76, 58
2, 31467, Note_off_c, 0, 74, 57
2, 31555, Note_on_c, 0, 74, 72
2, 31660, Note_off_c, 0, 76, 58
2, 31673, Note_off_c, 0, 74, 72
2, 31680, Note_on_c, 0, 72, 74
2, 31938, Channel_aftertouch_c, 0, 1
2, 31942, Channel_aftertouch_c, 0, 9
2, 31946, Channel_aftertouch_c, 0, 19
2, 31950, Channel_aftertouch_c, 0, 25
2, 31960, Channel_aftertouch_c, 0, 20
2, 31965, Channel_aftertouch_c, 0, 6
2, 31969, Channel_aftertouch_c, 0, 1
2, 31973, Channel_aftertouch_c, 0, 0
2, 32398, Note_off_c, 0, 72, 74
2, 32400, Note_on_c, 0, 74, 83
2, 32518, Note_off_c, 0, 74, 83
2, 32520, Note_on_c, 0, 76, 84
2, 32638, Note_off_c, 0, 76, 84
2, 32645, Note_on_c, 0, 77, 90
2, 32690, Note_off_c, 0, 77, 90
2, 32901, Note_on_c, 0, 77, 106
2, 33376, Note_on_c, 0, 79, 76
2, 33422, Note_off_c, 0, 77, 106
2, 33495, Note_on_c, 0, 81, 72
2, 33508, Note_off_c, 0, 79, 76
2, 33634, Note_on_c, 0, 79, 97
2, 33666, Note_off_c, 0, 81, 72
2, 33865, Note_on_c, 0, 76, 73
2, 33877, Note_off_c, 0, 79, 97
2, 34075, Note_off_c, 0, 76, 73
2, 34093, Note_on_c, 0, 84, 50
2, 34113, Note_off_c, 0, 84, 50
2, 34345, Note_on_c, 0, 84, 68
2, 34388, Note_off_c, 0, 84, 68
2, 34573, Note_on_c, 0, 86, 89
2, 34703, Note_on_c, 0, 84, 81
2, 34733, Note_off_c, 0, 86, 89
2, 34825, Note_on_c, 0, 83, 92
2, 34874, Note_off_c, 0, 84, 81
2, 34945, Note_off_c, 0, 83, 92
2, 34949, Note_on_c, 0, 81, 77
2, 35002, Note_off_c, 0, 81, 77
2, 35078, Note_on_c, 0, 81, 78
2, 35192, Note_on_c, 0, 79, 76
2, 35222, Note_off_c, 0, 81, 78
2, 35311, Note_on_c, 0, 77, 92
2, 35346, Note_off_c, 0, 79, 76
2, 35417, Note_on_c, 0, 76, 70
2, 35429, Note_off_c, 0, 77, 92
2, 35520, Note_on_c, 0, 79, 74
2, 35560, Note_off_c, 0, 76, 70
2, 36214, Note_off_c, 0, 79, 74
2, 36240, Note_on_c, 0, 76, 67
2, 36464, Note_on_c, 0, 74, 53
2, 36480, Note_off_c, 0, 76, 67
2, 36924, Note_off_c, 0, 74, 53
2, 37393, Note_on_c, 0, 73, 65
2, 37448, Note_on_c, 0, 74, 73
2, 37482, Note_off_c, 0, 73, 65
2, 37950, Note_on_c, 0, 72, 65
2, 38018, Note_off_c, 0, 74, 73
2, 38043, Note_on_c, 0, 71, 77
2, 38100, Note_off_c, 0, 72, 65
2, 38146, Note_on_c, 0, 69, 76
2, 38149, Note_off_c, 0, 71, 77
2, 38256, Note_on_c, 0, 67, 81
2, 38278, Note_off_c, 0, 69, 76
2, 38320, Note_off_c, 0, 67, 81
2, 38395, Note_on_c, 0, 73, 89
2, 38614, Note_off_c, 0, 73, 89
2, 38621, Note_on_c, 0, 74, 77
2, 38883, Note_on_c, 0, 72, 72
2, 38916, Note_off_c, 0, 74, 77
2, 38994, Note_on_c, 0, 71, 89
2, 39048, Note_off_c, 0, 72, 72
2, 39103, Note_on_c, 0, 69, 66
2, 39107, Note_off_c, 0, 71, 89
2, 39218, Note_on_c, 0, 67, 86
2, 39238, Note_off_c, 0, 69, 66
2, 39264, Note_off_c, 0, 67, 86
2, 39360, Note_on_c, 0, 75, 94
2, 39595, Note_on_c, 0, 76, 70
2, 39603, Note_off_c, 0, 75, 94
2, 39640, Note_off_c, 0, 76, 70
2, 39850, Note_on_c, 0, 76, 63
2, 39885, Note_off_c, 0, 76, 63
2, 40095, Note_on_c, 0, 76, 71
2, 40134, Note_off_c, 0, 76, 71
2, 40345, Note_on_c, 0, 76, 70
2, 40833, Note_off_c, 0, 76, 70
2, 41229, Note_on_c, 0, 69, 63
2, 41280, Note_off_c, 0, 69, 63
2, 41302, Note_on_c, 0, 81, 78
2, 42038, Note_on_c, 0, 79, 72
2, 42094, Note_off_c, 0, 81, 78
2, 42102, Note_on_c, 0, 78, 57
2, 42145, Note_off_c, 0, 79, 72
2, 42160, Note_on_c, 0, 76, 66
2, 42233, Note_off_c, 0, 78, 57
2, 42238, Note_on_c, 0, 74, 83
2, 42244, Note_off_c, 0, 76, 66
2, 42469, Note_off_c, 0, 74, 83
2, 42506, Note_on_c, 0, 86, 55
2, 42528, Note_off_c, 0, 86, 55
2, 42745, Note_on_c, 0, 86, 73
2, 42785, Note_off_c, 0, 86, 73
2, 42973, Note_on_c, 0, 86, 89
2, 43014, Note_off_c, 0, 86, 89
2, 43232, Note_on_c, 0, 86, 97
2, 43829, Note_on_c, 0, 83, 57
2, 43837, Note_off_c, 0, 86, 97
2, 43906, Note_off_c, 0, 83, 57
2, 43930, Note_on_c, 0, 86, 66
2, 44040, Note_on_c, 0, 83, 70
2, 44083, Note_off_c, 0, 86, 66
2, 44168, Note_on_c, 0, 79, 58
2, 44183, Note_off_c, 0, 83, 70
2, 44585, Note_off_c, 0, 79, 58
2, 45101, Note_on_c, 0, 73, 81
2, 45355, Note_off_c, 0, 73, 81
2, 45357, Note_on_c, 0, 74, 53
2, 45594, Note_on_c, 0, 72, 65
2, 45655, Note_off_c, 0, 74, 53
2, 45703, Note_on_c, 0, 71, 78
2, 45765, Note_off_c, 0, 72, 65
2, 45825, Note_on_c, 0, 69, 72
2, 45828, Note_off_c, 0, 71, 78
2, 45960, Note_on_c, 0, 67, 61
2, 45968, Note_off_c, 0, 69, 72
2, 46035, Note_on_c, 0, 73, 78
2, 46078, Note_off_c, 0, 67, 61
2, 46149, Note_on_c, 0, 74, 73
2, 46173, Note_off_c, 0, 73, 78
2, 46280, Note_off_c, 0, 74, 73
2, 46288, Note_on_c, 0, 76, 62
2, 46380, Note_on_c, 0, 74, 77
2, 46413, Note_off_c, 0, 76, 62
2, 46502, Note_off_c, 0, 74, 77
2, 46529, Note_on_c, 0, 72, 76
2, 46645, Note_on_c, 0, 71, 73
2, 46658, Note_off_c, 0, 72, 76
2, 46778, Note_on_c, 0, 69, 74
2, 46802, Note_off_c, 0, 71, 73
2, 46888, Note_on_c, 0, 67, 78
2, 46922, Note_off_c, 0, 69, 74
2, 46997, Note_off_c, 0, 67, 78
2, 47011, Note_on_c, 0, 75, 94
2, 47240, Note_on_c, 0, 76, 74
2, 47243, Note_off_c, 0, 75, 94
2, 47293, Note_off_c, 0, 76, 74
2, 47488, Note_on_c, 0, 76, 68
2, 47517, Note_off_c, 0, 76, 68
2, 47716, Note_on_c, 0, 76, 66
2, 47761, Note_off_c, 0, 76, 66
2, 47946, Note_on_c, 0, 76, 78
2, 48391, Note_off_c, 0, 76, 78
2, 48940, Channel_aftertouch_c, 0, 15
2, 48944, Channel_aftertouch_c, 0, 3
2, 48949, Channel_aftertouch_c, 0, 0
2, 48960, Note_on_c, 0, 81, 105
2, 49078, Note_off_c, 0, 81, 105
2, 49080, Note_on_c, 0, 83, 77
2, 49198, Note_off_c, 0, 83, 77
2, 49200, Note_on_c, 0, 84, 74
2, 49318, Note_off_c, 0, 84, 74
2, 49320, Note_on_c, 0, 83, 71
2, 49438, Note_off_c, 0, 83, 71
2, 49440, Note_on_c, 0, 81, 72
2, 49558, Note_off_c, 0, 81, 72
2, 49560, Note_on_c, 0, 79, 74
2, 49678, Note_off_c, 0, 79, 74
2, 49680, Note_on_c, 0, 78, 72
2, 49798, Note_off_c, 0, 78, 72
2, 49800, Note_on_c, 0, 76, 66
2, 49918, Note_off_c, 0, 76, 66
2, 49920, Note_on_c, 0, 74, 74
2, 50038, Note_off_c, 0, 74, 74
2, 50040, Note_on_c, 0, 78, 74
2, 50158, Note_off_c, 0, 78, 74
2, 50160, Note_on_c, 0, 81, 77
2, 50278, Note_off_c, 0, 81, 77
2, 50280, Note_on_c, 0, 79, 78
2, 50398, Note_off_c, 0, 79, 78
2, 50400, Note_on_c, 0, 78, 71
2, 50518, Note_off_c, 0, 78, 71
2, 50520, Note_on_c, 0, 76, 50
2, 50638, Note_off_c, 0, 76, 50
2, 50640, Note_on_c, 0, 74, 68
2, 50758, Note_off_c, 0, 74, 68
2, 50760, Note_on_c, 0, 72, 63
2, 50878, Note_off_c, 0, 72, 63
2, 50900, Note_on_c, 0, 71, 78
2, 51284, Note_off_c, 0, 71, 78
2, 51320, Note_on_c, 0, 72, 83
2, 51388, Note_on_c, 0, 74, 67
2, 51399, Note_off_c, 0, 72, 83
2, 51447, Note_on_c, 0, 72, 77
2, 51465, Note_off_c, 0, 74, 67
2, 51520, Note_off_c, 0, 72, 77
2, 51542, Note_on_c, 0, 74, 61
2, 51615, Note_on_c, 0, 72, 71
2, 51693, Note_on_c, 0, 71, 72
2, 51711, Note_off_c, 0, 72, 71
2, 51730, Note_off_c, 0, 74, 61
2, 51780, Note_on_c, 0, 72, 81
2, 51808, Note_off_c, 0, 71, 72
2, 51883, Note_on_c, 0, 74, 77
2, 51915, Note_off_c, 0, 72, 81
2, 52575, Note_off_c, 0, 74, 77
2, 52771, Note_on_c, 0, 76, 68
2, 52805, Note_on_c, 0, 78, 73
2, 52843, Note_off_c, 0, 76, 68
2, 52868, Note_on_c, 0, 79, 76
2, 52916, Note_off_c, 0, 78, 73
2, 53073, Note_off_c, 0, 79, 76
2, 53284, Note_on_c, 0, 79, 78
2, 53348, Note_off_c, 0, 79, 78
2, 53693, Note_on_c, 0, 79, 73
2, 53731, Note_off_c, 0, 79, 73
2, 53779, Note_on_c, 0, 79, 74
2, 53810, Channel_aftertouch_c, 0, 4
2, 53815, Channel_aftertouch_c, 0, 1
2, 53819, Channel_aftertouch_c, 0, 0
2, 54228, Note_on_c, 0, 78, 72
2, 54262, Note_off_c, 0, 79, 74
2, 54339, Note_on_c, 0, 76, 73
2, 54429, Note_off_c, 0, 78, 72
2, 54445, Note_off_c, 0, 76, 73
2, 54451, Note_on_c, 0, 74, 72
2, 54556, Note_on_c, 0, 72, 77
2, 54565, Note_off_c, 0, 74, 72
2, 54680, Note_off_c, 0, 72, 77
2, 54686, Note_on_c, 0, 71, 94
2, 55011, Note_on_c, 0, 74, 16
2, 55120, Note_off_c, 0, 74, 16
2, 55164, Note_off_c, 0, 71, 94
2, 55178, Note_on_c, 0, 72, 76
2, 55243, Note_on_c, 0, 74, 73
2, 55257, Note_off_c, 0, 72, 76
2, 55309, Note_on_c, 0, 72, 77
2, 55318, Note_off_c, 0, 74, 73
2, 55385, Note_on_c, 0, 74, 70
2, 55389, Note_off_c, 0, 72, 77
2, 55442, Note_on_c, 0, 72, 74
2, 55505, Note_off_c, 0, 74, 70
2, 55513, Note_on_c, 0, 71, 72
2, 55516, Note_off_c, 0, 72, 74
2, 55597, Note_on_c, 0, 72, 77
2, 55629, Note_off_c, 0, 71, 72
2, 55719, Note_on_c, 0, 74, 73
2, 55730, Note_off_c, 0, 72, 77
2, 56163, Note_off_c, 0, 74, 73
2, 56587, Note_on_c, 0, 76, 61
2, 56630, Note_on_c, 0, 78, 57
2, 56674, Note_off_c, 0, 76, 61
2, 56687, Note_on_c, 0, 79, 89
2, 56715, Note_off_c, 0, 78, 57
2, 57072, Note_off_c, 0, 79, 89
2, 57147, Note_on_c, 0, 79, 83
2, 57210, Note_off_c, 0, 79, 83
2, 57525, Note_on_c, 0, 79, 74
2, 57565, Note_off_c, 0, 79, 74
2, 57618, Note_on_c, 0, 79, 77
2, 58080, Note_on_c, 0, 78, 74
2, 58122, Note_off_c, 0, 79, 77
2, 58198, Note_off_c, 0, 78, 74
2, 58200, Note_on_c, 0, 76, 66
2, 58318, Note_off_c, 0, 76, 66
2, 58320, Note_on_c, 0, 74, 74
2, 58438, Note_off_c, 0, 74, 74
2, 58440, Note_on_c, 0, 72, 68
2, 58525, Note_on_c, 0, 71, 94
2, 58558, Note_off_c, 0, 72, 68
2, 58602, Note_off_c, 0, 71, 94
2, 58800, Note_on_c, 0, 79, 72
2, 58918, Note_off_c, 0, 79, 72
2, 58920, Note_on_c, 0, 81, 73
2, 59038, Note_off_c, 0, 81, 73
2, 59040, Note_on_c, 0, 83, 78
2, 59158, Note_off_c, 0, 83, 78
2, 59160, Note_on_c, 0, 81, 78
2, 59278, Note_off_c, 0, 81, 78
2, 59280, Note_on_c, 0, 79, 76
2, 59398, Note_off_c, 0, 79, 76
2, 59400, Note_on_c, 0, 78, 72
2, 59518, Note_off_c, 0, 78, 72
2, 59520, Note_on_c, 0, 76, 74
2, 59638, Note_off_c, 0, 76, 74
2, 59640, Note_on_c, 0, 74, 66
2, 59758, Note_off_c, 0, 74, 66
2, 59760, Note_on_c, 0, 72, 58
2, 59878, Note_off_c, 0, 72, 58
2, 59880, Note_on_c, 0, 71, 68
2, 59998, Note_off_c, 0, 71, 68
2, 60000, Note_on_c, 0, 69, 66
2, 60118, Note_off_c, 0, 69, 66
2, 60120, Note_on_c, 0, 67, 45
2, 60238, Note_off_c, 0, 67, 45
2, 60240, Note_on_c, 0, 66, 71
2, 60358, Note_off_c, 0, 66, 71
2, 60360, Note_on_c, 0, 64, 46
2, 60478, Note_off_c, 0, 64, 46
2, 60480, Note_on_c, 0, 62, 77
2, 60482, Channel_aftertouch_c, 0, 4
2, 60486, Channel_aftertouch_c, 0, 9
2, 60490, Channel_aftertouch_c, 0, 4
2, 60495, Channel_aftertouch_c, 0, 1
2, 60504, Channel_aftertouch_c, 0, 0
2, 60598, Note_off_c, 0, 62, 77
2, 60935, Channel_aftertouch_c, 0, 1
2, 60945, Channel_aftertouch_c, 0, 0
2, 60960, Note_on_c, 0, 60, 85
2, 61918, Note_off_c, 0, 60, 85
2, 61920, Note_on_c, 0, 59, 46
2, 62398, Note_off_c, 0, 59, 46
2, 62636, Note_on_c, 0, 57, 63
2, 62701, Note_off_c, 0, 57, 63
2, 62862, Note_on_c, 0, 60, 67
2, 62933, Note_off_c, 0, 60, 67
2, 63097, Note_on_c, 0, 64, 55
2, 63160, Note_off_c, 0, 64, 55
2, 63349, Note_on_c, 0, 68, 74
2, 63578, Note_on_c, 0, 69, 77
2, 63581, Note_off_c, 0, 68, 74
2, 63820, Note_on_c, 0, 72, 72
2, 63870, Note_off_c, 0, 69, 77
2, 64047, Note_off_c, 0, 72, 72
2, 64053, Note_on_c, 0, 76, 74
2, 64225, Note_off_c, 0, 76, 74
2, 64313, Note_on_c, 0, 76, 89
2, 64456, Channel_aftertouch_c, 0, 1
2, 64469, Channel_aftertouch_c, 0, 3
2, 64473, Channel_aftertouch_c, 0, 4
2, 64478, Channel_aftertouch_c, 0, 5
2, 64486, Channel_aftertouch_c, 0, 7
2, 64495, Channel_aftertouch_c, 0, 9
2, 64509, Channel_aftertouch_c, 0, 4
2, 64513, Channel_aftertouch_c, 0, 0
2, 64551, Note_on_c, 0, 67, 66
2, 64555, Note_off_c, 0, 76, 89
2, 64721, Note_off_c, 0, 67, 66
2, 64795, Note_on_c, 0, 67, 65
2, 65732, Note_on_c, 0, 71, 55
2, 65743, Note_on_c, 0, 66, 37
2, 65756, Note_off_c, 0, 67, 65
2, 65971, Note_on_c, 0, 69, 66
2, 66001, Note_off_c, 0, 71, 55
2, 66219, Note_off_c, 0, 69, 66
2, 66238, Note_on_c, 0, 67, 65
2, 66292, Note_off_c, 0, 66, 37
2, 66720, Note_off_c, 0, 67, 65
2, 67218, Note_on_c, 0, 74, 71
2, 67433, Note_on_c, 0, 71, 65
2, 67439, Note_off_c, 0, 74, 71
2, 67684, Note_on_c, 0, 79, 76
2, 67691, Note_off_c, 0, 71, 65
2, 67726, Note_off_c, 0, 79, 76
2, 67917, Note_on_c, 0, 78, 62
2, 67989, Note_off_c, 0, 78, 62
2, 68173, Note_on_c, 0, 76, 74
2, 68223, Note_off_c, 0, 76, 74
2, 68400, Note_on_c, 0, 74, 71
2, 68461, Note_off_c, 0, 74, 71
2, 68646, Note_on_c, 0, 72, 65
2, 68706, Note_off_c, 0, 72, 65
2, 68878, Note_on_c, 0, 71, 67
2, 68978, Note_off_c, 0, 71, 67
2, 69128, Note_on_c, 0, 69, 74
2, 69209, Note_off_c, 0, 69, 74
2, 69617, Note_on_c, 0, 71, 72
2, 69675, Note_off_c, 0, 71, 72
2, 70071, Note_on_c, 0, 74, 68
2, 70316, Note_on_c, 0, 73, 65
2, 70342, Note_off_c, 0, 74, 68
2, 70566, Note_on_c, 0, 72, 62
2, 70601, Note_off_c, 0, 73, 65
2, 71052, Note_on_c, 0, 71, 76
2, 71059, Note_off_c, 0, 72, 62
2, 71217, Note_off_c, 0, 71, 76
2, 71274, Note_on_c, 0, 72, 74
2, 71447, Note_off_c, 0, 72, 74
2, 71516, Note_on_c, 0, 74, 78
2, 71678, Note_off_c, 0, 74, 78
2, 71750, Note_on_c, 0, 75, 66
2, 71813, Note_off_c, 0, 75, 66
2, 71972, Note_on_c, 0, 76, 74
2, 72031, Note_on_c, 0, 78, 65
2, 72061, Note_off_c, 0, 76, 74
2, 72129, Note_on_c, 0, 76, 65
2, 72138, Note_off_c, 0, 78, 65
2, 72200, Note_off_c, 0, 76, 65
2, 72208, Note_on_c, 0, 75, 58
2, 72286, Note_on_c, 0, 76, 74
2, 72289, Note_off_c, 0, 75, 58
2, 72384, Note_on_c, 0, 78, 62
2, 72406, Note_off_c, 0, 76, 74
2, 72471, Note_on_c, 0, 79, 83
2, 72481, Note_off_c, 0, 78, 62
2, 72531, Note_off_c, 0, 79, 83
2, 72711, Note_on_c, 0, 78, 67
2, 72771, Note_off_c, 0, 78, 67
2, 72959, Note_on_c, 0, 76, 70
2, 73024, Note_off_c, 0, 76, 70
2, 73187, Note_on_c, 0, 74, 55
2, 73255, Note_off_c, 0, 74, 55
2, 73432, Note_on_c, 0, 72, 65
2, 73493, Note_off_c, 0, 72, 65
2, 73652, Note_on_c, 0, 71, 72
2, 73749, Note_off_c, 0, 71, 72
2, 73907, Note_on_c, 0, 74, 74
2, 74292, Note_on_c, 0, 71, 63
2, 74317, Note_off_c, 0, 74, 74
2, 74389, Note_on_c, 0, 69, 66
2, 74416, Note_off_c, 0, 71, 63
2, 74560, Note_off_c, 0, 69, 66
2, 74876, Note_on_c, 0, 74, 101
2, 74894, Channel_aftertouch_c, 0, 11
2, 74898, Channel_aftertouch_c, 0, 39
2, 74902, Channel_aftertouch_c, 0, 68
2, 74907, Channel_aftertouch_c, 0, 91
2, 74911, Channel_aftertouch_c, 0, 103
2, 74920, Channel_aftertouch_c, 0, 95
2, 74925, Channel_aftertouch_c, 0, 76
2, 74929, Channel_aftertouch_c, 0, 56
2, 74933, Channel_aftertouch_c, 0, 37
2, 74938, Channel_aftertouch_c, 0, 20
2, 74942, Channel_aftertouch_c, 0, 6
2, 74946, Channel_aftertouch_c, 0, 1
2, 74951, Channel_aftertouch_c, 0, 0
2, 75226, Note_on_c, 0, 76, 74
2, 75264, Note_off_c, 0, 74, 101
2, 75300, Note_on_c, 0, 78, 77
2, 75326, Note_off_c, 0, 76, 74
2, 75345, Note_on_c, 0, 79, 68
2, 75397, Note_off_c, 0, 78, 77
2, 75429, Note_off_c, 0, 79, 68
2, 75591, Note_on_c, 0, 78, 94
2, 75651, Note_off_c, 0, 78, 94
2, 75826, Note_on_c, 0, 76, 92
2, 75884, Note_off_c, 0, 76, 92
2, 76075, Note_on_c, 0, 74, 65
2, 76149, Note_off_c, 0, 74, 65
2, 76310, Note_on_c, 0, 72, 61
2, 76382, Note_off_c, 0, 72, 61
2, 76562, Note_on_c, 0, 71, 44
2, 76623, Note_off_c, 0, 71, 44
2, 76803, Note_on_c, 0, 69, 62
2, 76853, Note_off_c, 0, 69, 62
2, 77291, Note_on_c, 0, 71, 65
2, 77336, Note_off_c, 0, 71, 65
2, 77776, Note_on_c, 0, 72, 78
2, 77830, Note_off_c, 0, 72, 78
2, 78256, Note_on_c, 0, 73, 94
2, 78331, Note_off_c, 0, 73, 94
2, 78715, Note_on_c, 0, 74, 89
2, 78844, Note_off_c, 0, 74, 89
2, 79191, Note_on_c, 0, 75, 76
2, 79254, Note_off_c, 0, 75, 76
2, 79674, Note_on_c, 0, 76, 78
2, 79906, Note_off_c, 0, 76, 78
2, 80056, Note_on_c, 0, 64, 74
2, 80142, Note_on_c, 0, 72, 89
2, 80149, Note_off_c, 0, 64, 74
2, 80497, Note_off_c, 0, 72, 89
2, 80498, Note_on_c, 0, 69, 76
2, 80602, Note_off_c, 0, 69, 76
2, 80607, Note_on_c, 0, 67, 67
2, 81099, Note_on_c, 0, 71, 77
2, 81110, Note_on_c, 0, 66, 58
2, 81126, Note_off_c, 0, 67, 67
2, 81236, Note_on_c, 0, 69, 63
2, 81251, Note_off_c, 0, 71, 77
2, 81576, Note_off_c, 0, 69, 63
2, 81591, Note_on_c, 0, 67, 62
2, 81606, Note_off_c, 0, 66, 58
2, 82126, Note_off_c, 0, 67, 62
2, 82224, Note_on_c, 0, 79, 72
2, 82344, Note_on_c, 0, 81, 67
2, 82356, Note_off_c, 0, 79, 72
2, 82450, Note_on_c, 0, 79, 78
2, 82524, Note_off_c, 0, 81, 67
2, 82569, Note_on_c, 0, 76, 89
2, 82573, Note_off_c, 0, 79, 78
2, 82681, Note_on_c, 0, 79, 94
2, 82713, Note_off_c, 0, 76, 89
2, 82804, Note_on_c, 0, 81, 74
2, 82815, Note_off_c, 0, 79, 94
2, 82913, Note_on_c, 0, 79, 89
2, 82939, Note_off_c, 0, 81, 74
2, 83016, Note_off_c, 0, 79, 89
2, 83062, Note_on_c, 0, 84, 77
2, 83166, Note_on_c, 0, 79, 83
2, 83169, Note_off_c, 0, 84, 77
2, 83281, Note_on_c, 0, 76, 92
2, 83308, Note_off_c, 0, 79, 83
2, 83387, Note_on_c, 0, 72, 89
2, 83417, Note_off_c, 0, 76, 92
2, 83515, Note_on_c, 0, 79, 89
2, 83538, Note_off_c, 0, 72, 89
2, 83568, Note_off_c, 0, 79, 89
2, 83785, Note_on_c, 0, 79, 67
2, 83864, Note_off_c, 0, 79, 67
2, 84131, Note_on_c, 0, 79, 76
2, 84252, Note_on_c, 0, 81, 74
2, 84256, Note_off_c, 0, 79, 76
2, 84349, Note_on_c, 0, 79, 83
2, 84393, Note_off_c, 0, 81, 74
2, 84464, Note_off_c, 0, 79, 83
2, 84470, Note_on_c, 0, 76, 94
2, 84592, Note_on_c, 0, 79, 94
2, 84617, Note_off_c, 0, 76, 94
2, 84701, Note_on_c, 0, 81, 74
2, 84718, Note_off_c, 0, 79, 94
2, 84809, Note_on_c, 0, 79, 86
2, 84842, Note_off_c, 0, 81, 74
2, 84898, Note_off_c, 0, 79, 86
2, 84946, Note_on_c, 0, 84, 77
2, 85053, Note_on_c, 0, 79, 89
2, 85056, Note_off_c, 0, 84, 77
2, 85173, Note_on_c, 0, 76, 89
2, 85205, Note_off_c, 0, 79, 89
2, 85277, Note_on_c, 0, 72, 86
2, 85316, Note_off_c, 0, 76, 89
2, 85409, Note_on_c, 0, 79, 81
2, 85427, Note_off_c, 0, 72, 86
2, 85463, Note_off_c, 0, 79, 81
2, 85661, Note_on_c, 0, 79, 77
2, 85710, Note_off_c, 0, 79, 77
2, 86053, Note_on_c, 0, 74, 67
2, 86152, Note_on_c, 0, 78, 65
2, 86175, Note_off_c, 0, 74, 67
2, 86266, Note_on_c, 0, 74, 62
2, 86310, Note_off_c, 0, 78, 65
2, 86389, Note_on_c, 0, 79, 72
2, 86399, Note_off_c, 0, 74, 62
2, 86436, Note_off_c, 0, 79, 72
2, 86603, Note_on_c, 0, 79, 62
2, 86647, Note_off_c, 0, 79, 62
2, 86992, Note_on_c, 0, 74, 66
2, 87109, Note_on_c, 0, 78, 65
2, 87137, Note_off_c, 0, 74, 66
2, 87219, Note_on_c, 0, 74, 67
2, 87241, Note_off_c, 0, 78, 65
2, 87341, Note_on_c, 0, 79, 78
2, 87348, Note_on_c, 0, 78, 48
2, 87369, Note_off_c, 0, 78, 48
2, 87371, Note_off_c, 0, 74, 67
2, 87389, Note_off_c, 0, 79, 78
2, 87594, Note_on_c, 0, 79, 67
2, 87643, Note_off_c, 0, 79, 67
2, 87991, Note_on_c, 0, 74, 66
2, 88096, Note_off_c, 0, 74, 66
2, 88101, Note_on_c, 0, 81, 63
2, 88217, Note_off_c, 0, 81, 63
2, 88229, Note_on_c, 0, 74, 42
2, 88323, Note_off_c, 0, 74, 42
2, 88340, Note_on_c, 0, 83, 78
2, 88422, Note_off_c, 0, 83, 78
2, 88433, Note_on_c, 0, 74, 65
2, 88556, Note_on_c, 0, 83, 86
2, 88559, Note_off_c, 0, 74, 65
2, 88664, Note_off_c, 0, 83, 86
2, 88666, Note_on_c, 0, 74, 74
2, 88773, Note_off_c, 0, 74, 74
2, 88793, Note_on_c, 0, 84, 89
2, 88881, Note_off_c, 0, 84, 89
2, 88893, Note_on_c, 0, 74, 74
2, 89016, Note_on_c, 0, 84, 89
2, 89018, Note_off_c, 0, 74, 74
2, 89117, Note_off_c, 0, 84, 89
2, 89126, Note_on_c, 0, 74, 83
2, 89199, Note_off_c, 0, 74, 83
2, 89260, Note_on_c, 0, 86, 94
2, 89518, Note_on_c, 0, 83, 71
2, 89533, Note_off_c, 0, 86, 94
2, 89581, Note_off_c, 0, 83, 71
2, 89761, Note_on_c, 0, 79, 68
2, 90008, Note_on_c, 0, 83, 74
2, 90046, Note_off_c, 0, 79, 68
2, 90057, Note_off_c, 0, 83, 74
2, 90271, Note_on_c, 0, 74, 68
2, 90486, Note_on_c, 0, 79, 65
2, 90495, Note_off_c, 0, 74, 68
2, 90540, Note_off_c, 0, 79, 65
2, 90753, Note_on_c, 0, 71, 72
2, 90977, Note_off_c, 0, 71, 72
2, 90980, Note_on_c, 0, 74, 73
2, 91070, Note_off_c, 0, 74, 73
2, 91256, Note_on_c, 0, 69, 83
2, 91485, Note_on_c, 0, 76, 76
2, 91495, Note_off_c, 0, 69, 83
2, 91680, Note_on_c, 0, 74, 77
2, 91747, Note_off_c, 0, 76, 76
2, 91800, Note_on_c, 0, 72, 92
2, 91841, Note_off_c, 0, 74, 77
2, 91920, Note_on_c, 0, 71, 74
2, 91930, Note_off_c, 0, 72, 92
2, 92040, Note_off_c, 0, 71, 74
2, 92040, Note_on_c, 0, 69, 76
2, 92164, Note_off_c, 0, 69, 76
2, 92206, Note_on_c, 0, 67, 71
2, 92653, Note_off_c, 0, 67, 71
2, 92664, Note_on_c, 0, 66, 67
2, 92769, Note_on_c, 0, 67, 72
2, 92791, Note_off_c, 0, 66, 67
2, 92855, Note_on_c, 0, 66, 67
2, 92881, Note_off_c, 0, 67, 72
2, 92938, Note_on_c, 0, 64, 73
2, 92941, Note_off_c, 0, 66, 67
2, 93016, Note_on_c, 0, 66, 74
2, 93066, Note_off_c, 0, 64, 73
2, 93165, Note_on_c, 0, 67, 78
2, 93169, Note_off_c, 0, 66, 74
2, 93584, Note_off_c, 0, 67, 78
2, 93731, Note_on_c, 0, 79, 76
2, 93852, Note_on_c, 0, 81, 74
2, 93856, Note_off_c, 0, 79, 76
2, 93949, Note_on_c, 0, 79, 83
2, 93993, Note_off_c, 0, 81, 74
2, 94064, Note_off_c, 0, 79, 83
2, 94070, Note_on_c, 0, 76, 94
2, 94192, Note_on_c, 0, 79, 94
2, 94217, Note_off_c, 0, 76, 94
2, 94301, Note_on_c, 0, 81, 74
2, 94318, Note_off_c, 0, 79, 94
2, 94409, Note_on_c, 0, 79, 86
2, 94442, Note_off_c, 0, 81, 74
2, 94498, Note_off_c, 0, 79, 86
2, 94546, Note_on_c, 0, 84, 77
2, 94653, Note_on_c, 0, 79, 89
2, 94656, Note_off_c, 0, 84, 77
2, 94773, Note_on_c, 0, 76, 89
2, 94805, Note_off_c, 0, 79, 89
2, 94877, Note_on_c, 0, 72, 86
2, 94916, Note_off_c, 0, 76, 89
2, 95009, Note_on_c, 0, 79, 81
2, 95027, Note_off_c, 0, 72, 86
2, 95063, Note_off_c, 0, 79, 81
2, 95261, Note_on_c, 0, 79, 77
2, 95310, Note_off_c, 0, 79, 77
2, 95651, Note_on_c, 0, 79, 76
2, 95772, Note_on_c, 0, 81, 74
2, 95776, Note_off_c, 0, 79, 76
2, 95869, Note_on_c, 0, 79, 83
2, 95913, Note_off_c, 0, 81, 74
2, 95984, Note_off_c, 0, 79, 83
2, 95990, Note_on_c, 0, 76, 94
2, 96112, Note_on_c, 0, 79, 94
2, 96137, Note_off_c, 0, 76, 94
2, 96221, Note_on_c, 0, 81, 74
2, 96238, Note_off_c, 0, 79, 94
2, 96329, Note_on_c, 0, 79, 86
2, 96362, Note_off_c, 0, 81, 74
2, 96418, Note_off_c, 0, 79, 86
2, 96466, Note_on_c, 0, 84, 77
2, 96573, Note_on_c, 0, 79, 89
2, 96576, Note_off_c, 0, 84, 77
2, 96693, Note_on_c, 0, 76, 89
2, 96725, Note_off_c, 0, 79, 89
2, 96797, Note_on_c, 0, 72, 86
2, 96836, Note_off_c, 0, 76, 89
2, 96929, Note_on_c, 0, 79, 81
2, 96947, Note_off_c, 0, 72, 86
2, 96983, Note_off_c, 0, 79, 81
2, 97181, Note_on_c, 0, 79, 77
2, 97230, Note_off_c, 0, 79, 77
2, 97589, Note_on_c, 0, 74, 76
2, 97700, Note_on_c, 0, 78, 71
2, 97724, Note_off_c, 0, 74, 76
2, 97806, Note_on_c, 0, 74, 78
2, 97814, Note_off_c, 0, 78, 71
2, 97876, Note_off_c, 0, 74, 78
2, 97926, Note_on_c, 0, 79, 83
2, 97991, Note_off_c, 0, 79, 83
2, 98164, Note_on_c, 0, 79, 78
2, 98216, Note_off_c, 0, 79, 78
2, 98523, Note_on_c, 0, 74, 70
2, 98633, Note_off_c, 0, 74, 70
2, 98640, Note_on_c, 0, 78, 66
2, 98734, Note_on_c, 0, 74, 78
2, 98744, Note_off_c, 0, 78, 66
2, 98866, Note_on_c, 0, 79, 77
2, 98878, Note_off_c, 0, 74, 78
2, 98937, Note_off_c, 0, 79, 77
2, 99115, Note_on_c, 0, 79, 76
2, 99166, Note_off_c, 0, 79, 76
2, 99485, Note_on_c, 0, 74, 74
2, 99594, Note_off_c, 0, 74, 74
2, 99603, Note_on_c, 0, 81, 67
2, 99682, Note_off_c, 0, 81, 67
2, 99718, Note_on_c, 0, 74, 43
2, 99856, Note_on_c, 0, 83, 51
2, 99884, Note_off_c, 0, 74, 43
2, 99938, Note_off_c, 0, 83, 51
2, 99961, Note_on_c, 0, 74, 76
2, 100076, Note_off_c, 0, 74, 76
2, 100081, Note_on_c, 0, 83, 83
2, 100171, Note_off_c, 0, 83, 83
2, 100192, Note_on_c, 0, 74, 74
2, 100326, Note_on_c, 0, 84, 94
2, 100346, Note_off_c, 0, 74, 74
2, 100426, Note_off_c, 0, 84, 94
2, 100449, Note_on_c, 0, 74, 74
2, 100544, Note_off_c, 0, 74, 74
2, 100563, Note_on_c, 0, 84, 81
2, 100658, Note_on_c, 0, 74, 74
2, 100671, Note_off_c, 0, 84, 81
2, 100718, Note_off_c, 0, 74, 74
2, 100786, Note_on_c, 0, 86, 89
2, 100908, Note_on_c, 0, 83, 97
2, 100916, Note_off_c, 0, 86, 89
2, 101026, Note_on_c, 0, 86, 76
2, 101036, Note_off_c, 0, 83, 97
2, 101151, Note_on_c, 0, 83, 94
2, 101181, Note_off_c, 0, 86, 76
2, 101270, Note_off_c, 0, 83, 94
2, 101272, Note_on_c, 0, 79, 89
2, 101373, Note_on_c, 0, 83, 83
2, 101386, Note_off_c, 0, 79, 89
2, 101493, Note_off_c, 0, 83, 83
2, 101496, Note_on_c, 0, 79, 76
2, 101604, Note_on_c, 0, 83, 77
2, 101612, Note_off_c, 0, 79, 76
2, 101723, Note_off_c, 0, 83, 77
2, 101732, Note_on_c, 0, 74, 83
2, 101822, Note_off_c, 0, 74, 83
2, 101838, Note_on_c, 0, 79, 66
2, 101956, Note_off_c, 0, 79, 66
2, 101970, Note_on_c, 0, 74, 77
2, 102080, Note_on_c, 0, 79, 74
2, 102103, Note_off_c, 0, 74, 77
2, 102196, Note_off_c, 0, 79, 74
2, 102210, Note_on_c, 0, 71, 83
2, 102333, Note_on_c, 0, 74, 71
2, 102343, Note_off_c, 0, 71, 83
2, 102453, Note_off_c, 0, 74, 71
2, 102457, Note_on_c, 0, 71, 73
2, 102568, Note_on_c, 0, 74, 89
2, 102580, Note_off_c, 0, 71, 73
2, 102662, Note_off_c, 0, 74, 89
2, 102717, Note_on_c, 0, 69, 78
2, 102819, Note_on_c, 0, 76, 74
2, 102862, Note_off_c, 0, 69, 78
2, 102952, Note_on_c, 0, 75, 65
2, 102982, Note_off_c, 0, 76, 74
2, 103069, Note_on_c, 0, 76, 60
2, 103073, Note_off_c, 0, 75, 65
2, 103191, Note_on_c, 0, 74, 83
2, 103223, Note_off_c, 0, 76, 60
2, 103299, Note_on_c, 0, 72, 92
2, 103364, Note_off_c, 0, 74, 83
2, 103401, Note_on_c, 0, 71, 76
2, 103404, Note_off_c, 0, 72, 92
2, 103479, Note_off_c, 0, 71, 76
2, 103528, Note_on_c, 0, 69, 74
2, 103636, Note_off_c, 0, 69, 74
2, 103669, Note_on_c, 0, 67, 94
2, 104091, Note_off_c, 0, 67, 94
2, 104177, Note_on_c, 0, 66, 55
2, 104240, Note_off_c, 0, 66, 55
2, 104246, Note_on_c, 0, 67, 76
2, 104308, Note_on_c, 0, 66, 74
2, 104323, Note_off_c, 0, 67, 76
2, 104380, Note_off_c, 0, 66, 74
2, 104397, Note_on_c, 0, 67, 68
2, 104447, Note_on_c, 0, 66, 73
2, 104491, Note_off_c, 0, 67, 68
2, 104518, Note_on_c, 0, 64, 68
2, 104529, Note_off_c, 0, 66, 73
2, 104600, Note_on_c, 0, 66, 68
2, 104644, Note_off_c, 0, 64, 68
2, 104669, Note_off_c, 0, 66, 68
2, 104696, Note_on_c, 0, 67, 89
2, 104823, Note_on_c, 0, 62, 29
2, 104864, Note_off_c, 0, 62, 29
2, 105039, Note_on_c, 0, 62, 71
2, 105048, Note_off_c, 0, 67, 89
2, 105127, Note_off_c, 0, 62, 71
2, 105146, Note_on_c, 0, 71, 92
2, 105476, Note_on_c, 0, 67, 70
2, 105484, Note_off_c, 0, 71, 92
2, 105580, Note_on_c, 0, 74, 89
2, 105586, Note_off_c, 0, 67, 70
2, 105712, Note_off_c, 0, 74, 89
2, 106086, Note_on_c, 0, 81, 74
2, 106209, Note_off_c, 0, 81, 74
2, 106210, Note_on_c, 0, 79, 66
2, 106344, Note_on_c, 0, 78, 56
2, 106362, Note_off_c, 0, 79, 66
2, 106445, Note_on_c, 0, 76, 78
2, 106453, Note_off_c, 0, 78, 56
2, 106553, Note_off_c, 0, 76, 78
2, 106584, Note_on_c, 0, 74, 76
2, 106919, Note_off_c, 0, 74, 76
2, 107085, Note_on_c, 0, 76, 68
2, 107198, Note_on_c, 0, 74, 53
2, 107213, Note_off_c, 0, 76, 68
2, 107317, Note_on_c, 0, 72, 62
2, 107382, Note_off_c, 0, 74, 53
2, 107404, Note_on_c, 0, 71, 65
2, 107418, Note_off_c, 0, 72, 62
2, 107543, Note_on_c, 0, 69, 56
2, 107547, Note_off_c, 0, 71, 65
2, 107996, Note_off_c, 0, 69, 56
2, 108006, Note_on_c, 0, 74, 50
2, 108115, Note_on_c, 0, 72, 46
2, 108141, Note_off_c, 0, 74, 50
2, 108252, Note_on_c, 0, 71, 55
2, 108294, Note_off_c, 0, 72, 46
2, 108373, Note_off_c, 0, 71, 55
2, 108375, Note_on_c, 0, 69, 55
2, 108461, Note_off_c, 0, 69, 55
2, 108533, Note_on_c, 0, 67, 92
2, 108549, Channel_aftertouch_c, 0, 1
2, 108553, Channel_aftertouch_c, 0, 12
2, 108558, Channel_aftertouch_c, 0, 23
2, 108561, Channel_aftertouch_c, 0, 28
2, 108566, Channel_aftertouch_c, 0, 19
2, 108571, Channel_aftertouch_c, 0, 3
2, 108575, Channel_aftertouch_c, 0, 0
2, 108606, Note_off_c, 0, 67, 92
2, 108646, Note_on_c, 0, 62, 89
2, 108703, Note_off_c, 0, 62, 89
2, 108771, Note_on_c, 0, 67, 78
2, 108876, Note_on_c, 0, 62, 86
2, 108881, Note_off_c, 0, 67, 78
2, 108956, Note_off_c, 0, 62, 86
2, 108986, Note_on_c, 0, 71, 79
2, 109086, Note_on_c, 0, 67, 74
2, 109091, Note_off_c, 0, 71, 79
2, 109205, Note_on_c, 0, 71, 86
2, 109216, Note_off_c, 0, 67, 74
2, 109306, Note_on_c, 0, 67, 74
2, 109337, Note_off_c, 0, 71, 86
2, 109416, Note_off_c, 0, 67, 74
2, 109436, Note_on_c, 0, 74, 86
2, 109539, Note_off_c, 0, 74, 86
2, 109913, Note_on_c, 0, 81, 52
2, 110026, Note_on_c, 0, 79, 76
2, 110059, Note_off_c, 0, 81, 52
2, 110145, Note_on_c, 0, 78, 68
2, 110178, Note_off_c, 0, 79, 76
2, 110260, Note_on_c, 0, 76, 74
2, 110310, Note_off_c, 0, 78, 68
2, 110388, Note_off_c, 0, 76, 74
2, 110389, Note_on_c, 0, 74, 76
2, 110462, Note_off_c, 0, 74, 76
2, 110646, Note_on_c, 0, 74, 68
2, 110709, Note_off_c, 0, 74, 68
2, 110896, Note_on_c, 0, 76, 74
2, 111001, Note_on_c, 0, 74, 68
2, 111031, Note_off_c, 0, 76, 74
2, 111111, Note_on_c, 0, 72, 86
2, 111138, Note_off_c, 0, 74, 68
2, 111223, Note_on_c, 0, 71, 70
2, 111225, Note_off_c, 0, 72, 86
2, 111367, Note_on_c, 0, 69, 77
2, 111379, Note_off_c, 0, 71, 70
2, 111421, Note_off_c, 0, 69, 77
2, 111598, Note_on_c, 0, 69, 65
2, 111724, Note_off_c, 0, 69, 65
2, 111851, Note_on_c, 0, 74, 71
2, 111956, Note_on_c, 0, 72, 62
2, 111977, Note_off_c, 0, 74, 71
2, 112066, Note_on_c, 0, 71, 76
2, 112115, Note_off_c, 0, 72, 62
2, 112164, Note_off_c, 0, 71, 76
2, 112179, Note_on_c, 0, 69, 71
2, 112279, Note_off_c, 0, 69, 71
2, 112310, Note_on_c, 0, 67, 83
2, 112371, Note_off_c, 0, 67, 83
2, 112816, Note_on_c, 0, 71, 56
2, 112821, Note_on_c, 0, 62, 56
2, 112899, Note_off_c, 0, 62, 56
2, 112915, Note_off_c, 0, 71, 56
2, 113294, Note_on_c, 0, 67, 62
2, 113297, Note_on_c, 0, 59, 55
2, 113589, Note_off_c, 0, 67, 62
2, 113608, Note_off_c, 0, 59, 55
2, 114281, Note_on_c, 0, 79, 76
2, 114463, Note_off_c, 0, 79, 76
2, 114752, Note_on_c, 0, 79, 74
2, 115495, Note_on_c, 0, 77, 68
2, 115569, Note_off_c, 0, 79, 74
2, 115606, Note_on_c, 0, 76, 94
2, 115644, Note_off_c, 0, 77, 68
2, 115660, Note_off_c, 0, 76, 94
2, 115730, Note_on_c, 0, 76, 78
2, 115823, Note_on_c, 0, 74, 77
2, 115833, Note_off_c, 0, 76, 78
2, 115939, Note_on_c, 0, 72, 83
2, 116028, Note_off_c, 0, 74, 77
2, 116056, Note_on_c, 0, 71, 63
2, 116061, Note_off_c, 0, 72, 83
2, 116165, Note_on_c, 0, 72, 79
2, 116194, Note_off_c, 0, 71, 63
2, 116253, Note_on_c, 0, 74, 65
2, 116256, Note_off_c, 0, 72, 79
2, 116334, Note_on_c, 0, 72, 74
2, 116357, Note_off_c, 0, 74, 65
2, 116436, Note_on_c, 0, 74, 53
2, 116453, Note_off_c, 0, 72, 74
2, 116519, Note_on_c, 0, 72, 78
2, 116566, Note_off_c, 0, 74, 53
2, 116591, Note_on_c, 0, 74, 52
2, 116616, Note_off_c, 0, 72, 78
2, 116674, Note_on_c, 0, 72, 72
2, 116751, Note_on_c, 0, 71, 68
2, 116756, Note_off_c, 0, 74, 52
2, 116760, Note_off_c, 0, 72, 72
2, 116821, Note_on_c, 0, 72, 74
2, 116904, Note_off_c, 0, 71, 68
2, 116908, Note_on_c, 0, 74, 65
2, 116994, Note_off_c, 0, 72, 74
2, 117012, Note_on_c, 0, 76, 76
2, 117109, Note_off_c, 0, 74, 65
2, 117122, Note_off_c, 0, 76, 76
2, 117127, Note_on_c, 0, 67, 78
2, 117716, Note_off_c, 0, 67, 78
2, 118112, Note_on_c, 0, 79, 63
2, 118157, Note_off_c, 0, 79, 63
2, 118351, Note_on_c, 0, 79, 66
2, 118399, Note_off_c, 0, 79, 66
2, 118599, Note_on_c, 0, 79, 89
2, 119331, Note_on_c, 0, 77, 58
2, 119415, Note_off_c, 0, 79, 89
2, 119441, Note_on_c, 0, 76, 72
2, 119486, Note_off_c, 0, 77, 58
2, 119493, Note_off_c, 0, 76, 72
2, 119569, Note_on_c, 0, 76, 72
2, 119675, Note_on_c, 0, 74, 66
2, 119692, Note_off_c, 0, 76, 72
2, 119787, Note_on_c, 0, 72, 78
2, 119866, Note_off_c, 0, 74, 66
2, 119891, Note_on_c, 0, 71, 67
2, 119901, Note_off_c, 0, 72, 78
2, 119996, Note_on_c, 0, 72, 72
2, 120033, Note_off_c, 0, 71, 67
2, 120087, Note_on_c, 0, 74, 56
2, 120091, Note_off_c, 0, 72, 72
2, 120169, Note_on_c, 0, 72, 62
2, 120201, Note_off_c, 0, 74, 56
2, 120271, Note_on_c, 0, 74, 61
2, 120303, Note_off_c, 0, 72, 62
2, 120361, Note_on_c, 0, 72, 74
2, 120381, Note_off_c, 0, 74, 61
2, 120439, Note_on_c, 0, 74, 60
2, 120445, Note_off_c, 0, 72, 74
2, 120518, Note_on_c, 0, 72, 74
2, 120568, Note_on_c, 0, 71, 62
2, 120579, Note_off_c, 0, 74, 60
2, 120581, Note_off_c, 0, 72, 74
2, 120644, Note_on_c, 0, 72, 72
2, 120700, Note_off_c, 0, 71, 62
2, 120729, Note_on_c, 0, 74, 71
2, 120792, Note_off_c, 0, 72, 72
2, 120841, Note_on_c, 0, 76, 72
2, 120895, Note_off_c, 0, 74, 71
2, 120964, Note_off_c, 0, 76, 72
2, 120984, Note_on_c, 0, 67, 74
2, 121541, Note_off_c, 0, 67, 74
2, 121936, Note_on_c, 0, 69, 76
2, 121993, Note_off_c, 0, 69, 76
2, 122171, Note_on_c, 0, 72, 71
2, 122238, Note_off_c, 0, 72, 71
2, 122407, Note_on_c, 0, 77, 68
2, 122447, Note_off_c, 0, 77, 68
2, 122662, Note_on_c, 0, 81, 71
2, 122698, Note_off_c, 0, 81, 71
2, 122909, Note_on_c, 0, 84, 76
2, 123421, Note_off_c, 0, 84, 76
2, 123891, Note_on_c, 0, 67, 66
2, 123936, Note_off_c, 0, 67, 66
2, 124123, Note_on_c, 0, 72, 67
2, 124179, Note_off_c, 0, 72, 67
2, 124373, Note_on_c, 0, 76, 66
2, 124400, Note_off_c, 0, 76, 66
2, 124590, Note_on_c, 0, 79, 68
2, 124645, Note_off_c, 0, 79, 68
2, 124849, Note_on_c, 0, 84, 71
2, 125289, Note_off_c, 0, 84, 71
2, 125730, Note_on_c, 0, 67, 74
2, 125793, Note_off_c, 0, 67, 74
2, 125805, Note_on_c, 0, 79, 83
2, 127125, Note_off_c, 0, 79, 83
2, 127187, Note_on_c, 0, 77, 60
2, 127241, Note_on_c, 0, 79, 71
2, 127258, Note_off_c, 0, 77, 60
2, 127322, Note_on_c, 0, 77, 70
2, 127383, Note_off_c, 0, 79, 71
2, 127385, Note_on_c, 0, 76, 71
2, 127398, Note_off_c, 0, 77, 70
2, 127468, Note_off_c, 0, 76, 71
2, 127509, Note_on_c, 0, 77, 65
2, 127674, Note_on_c, 0, 75, 78
2, 127706, Note_off_c, 0, 77, 65
2, 128190, Note_on_c, 0, 76, 48
2, 128207, Note_off_c, 0, 75, 78
2, 128886, Note_off_c, 0, 76, 48
2, 129591, Note_on_c, 0, 69, 70
2, 129765, Note_off_c, 0, 69, 70
2, 129850, Note_on_c, 0, 72, 63
2, 129959, Note_on_c, 0, 69, 72
2, 129972, Note_off_c, 0, 72, 63
2, 130033, Note_off_c, 0, 69, 72
2, 130073, Note_on_c, 0, 77, 70
2, 130162, Note_off_c, 0, 77, 70
2, 130182, Note_on_c, 0, 72, 74
2, 130293, Note_off_c, 0, 72, 74
2, 130308, Note_on_c, 0, 81, 68
2, 130400, Note_on_c, 0, 77, 67
2, 130433, Note_off_c, 0, 81, 68
2, 130508, Note_off_c, 0, 77, 67
2, 130548, Note_on_c, 0, 84, 77
2, 131050, Note_off_c, 0, 84, 77
2, 131528, Note_on_c, 0, 67, 65
2, 131635, Note_off_c, 0, 67, 65
2, 131764, Note_on_c, 0, 72, 63
2, 131869, Note_off_c, 0, 72, 63
2, 131875, Note_on_c, 0, 67, 68
2, 131950, Note_off_c, 0, 67, 68
2, 132007, Note_on_c, 0, 76, 68
2, 132100, Note_off_c, 0, 76, 68
2, 132122, Note_on_c, 0, 72, 74
2, 132235, Note_on_c, 0, 79, 76
2, 132242, Note_off_c, 0, 72, 74
2, 132350, Note_on_c, 0, 76, 68
2, 132369, Note_off_c, 0, 79, 76
2, 132430, Note_off_c, 0, 76, 68
2, 132480, Note_on_c, 0, 84, 94
2, 133095, Note_off_c, 0, 84, 94
2, 133431, Note_on_c, 0, 81, 89
2, 133673, Note_on_c, 0, 79, 72
2, 133693, Note_off_c, 0, 81, 89
2, 133726, Note_off_c, 0, 79, 72
2, 133911, Note_on_c, 0, 77, 89
2, 133945, Note_off_c, 0, 77, 89
2, 134149, Note_on_c, 0, 76, 74
2, 134195, Note_off_c, 0, 76, 74
2, 134401, Note_on_c, 0, 76, 81
2, 134635, Note_on_c, 0, 74, 74
2, 134656, Note_off_c, 0, 76, 81
2, 134697, Note_off_c, 0, 74, 74
2, 134890, Note_on_c, 0, 72, 94
2, 134940, Note_off_c, 0, 72, 94
2, 135137, Note_on_c, 0, 71, 71
2, 135192, Note_off_c, 0, 71, 71
2, 135360, Note_on_c, 0, 72, 65
2, 135468, Note_off_c, 0, 72, 65
2, 135480, Note_on_c, 0, 67, 60
2, 135600, Note_on_c, 0, 69, 77
2, 135611, Note_off_c, 0, 67, 60
2, 135720, Note_on_c, 0, 71, 74
2, 135727, Note_off_c, 0, 69, 77
2, 135799, Note_off_c, 0, 71, 74
2, 135840, Note_on_c, 0, 72, 65
2, 135960, Note_on_c, 0, 74, 97
2, 135990, Note_off_c, 0, 72, 65
2, 136080, Note_on_c, 0, 76, 81
2, 136090, Note_off_c, 0, 74, 97
2, 136164, Note_off_c, 0, 76, 81
2, 136200, Note_on_c, 0, 77, 74
2, 136320, Note_on_c, 0, 79, 94
2, 136371, Note_off_c, 0, 77, 74
2, 136440, Note_on_c, 0, 81, 76
2, 136471, Note_off_c, 0, 79, 94
2, 136560, Note_on_c, 0, 83, 79
2, 136621, Note_off_c, 0, 81, 76
2, 136651, Note_off_c, 0, 83, 79
2, 136680, Note_on_c, 0, 84, 74
2, 136757, Note_off_c, 0, 84, 74
2, 136800, Note_on_c, 0, 79, 94
2, 136854, Note_off_c, 0, 79, 94
2, 137040, Note_on_c, 0, 79, 78
2, 137078, Note_off_c, 0, 79, 78
2, 137445, Note_on_c, 0, 79, 58
2, 137555, Note_on_c, 0, 81, 36
2, 137561, Note_off_c, 0, 79, 58
2, 137678, Note_on_c, 0, 79, 43
2, 137729, Note_off_c, 0, 81, 36
2, 137740, Note_off_c, 0, 79, 43
2, 137915, Note_on_c, 0, 77, 68
2, 138038, Note_on_c, 0, 79, 62
2, 138078, Note_off_c, 0, 77, 68
2, 138148, Note_off_c, 0, 79, 62
2, 138158, Note_on_c, 0, 77, 41
2, 138207, Note_off_c, 0, 77, 41
2, 138408, Note_on_c, 0, 76, 65
2, 138525, Note_on_c, 0, 77, 52
2, 138546, Note_off_c, 0, 76, 65
2, 138655, Note_on_c, 0, 76, 52
2, 138665, Note_off_c, 0, 77, 52
2, 138713, Note_off_c, 0, 76, 52
2, 138880, Note_on_c, 0, 74, 68
2, 138997, Note_off_c, 0, 74, 68
2, 139002, Note_on_c, 0, 76, 46
2, 139083, Note_on_c, 0, 74, 65
2, 139120, Note_off_c, 0, 76, 46
2, 139125, Note_off_c, 0, 74, 65
2, 139217, Note_on_c, 0, 72, 63
2, 139328, Note_on_c, 0, 67, 72
2, 139365, Note_off_c, 0, 72, 63
2, 139438, Note_on_c, 0, 69, 81
2, 139480, Note_off_c, 0, 67, 72
2, 139554, Note_on_c, 0, 71, 71
2, 139585, Note_off_c, 0, 69, 81
2, 139640, Note_off_c, 0, 71, 71
2, 139672, Note_on_c, 0, 72, 62
2, 139795, Note_on_c, 0, 74, 83
2, 139896, Note_off_c, 0, 72, 62
2, 139905, Note_on_c, 0, 76, 68
2, 139949, Note_off_c, 0, 74, 83
2, 139992, Note_off_c, 0, 76, 68
2, 140015, Note_on_c, 0, 77, 70
2, 140139, Note_on_c, 0, 79, 94
2, 140177, Note_off_c, 0, 77, 70
2, 140247, Note_on_c, 0, 81, 78
2, 140285, Note_off_c, 0, 79, 94
2, 140375, Note_on_c, 0, 83, 83
2, 140407, Note_off_c, 0, 81, 78
2, 140465, Note_off_c, 0, 83, 83
2, 140503, Note_on_c, 0, 84, 67
2, 140579, Note_off_c, 0, 84, 67
2, 140637, Note_on_c, 0, 79, 92
2, 140685, Note_off_c, 0, 79, 92
2, 140888, Note_on_c, 0, 79, 77
2, 140925, Note_off_c, 0, 79, 77
2, 141268, Note_on_c, 0, 79, 55
2, 141395, Note_off_c, 0, 79, 55
2, 141397, Note_on_c, 0, 81, 29
2, 141502, Note_on_c, 0, 79, 56
2, 141533, Note_off_c, 0, 81, 29
2, 141547, Note_off_c, 0, 79, 56
2, 141743, Note_on_c, 0, 77, 65
2, 141857, Note_on_c, 0, 79, 51
2, 141867, Note_off_c, 0, 77, 65
2, 141976, Note_on_c, 0, 77, 48
2, 142013, Note_off_c, 0, 79, 51
2, 142042, Note_off_c, 0, 77, 48
2, 142240, Note_on_c, 0, 76, 63
2, 142348, Note_on_c, 0, 77, 52
2, 142370, Note_off_c, 0, 76, 63
2, 142482, Note_on_c, 0, 76, 58
2, 142539, Note_off_c, 0, 77, 52
2, 142555, Note_off_c, 0, 76, 58
2, 142705, Note_on_c, 0, 74, 57
2, 142815, Note_on_c, 0, 76, 58
2, 142827, Note_off_c, 0, 74, 57
2, 142915, Note_on_c, 0, 74, 72
2, 143020, Note_off_c, 0, 76, 58
2, 143033, Note_off_c, 0, 74, 72
2, 143040, Note_on_c, 0, 72, 74
2, 143298, Channel_aftertouch_c, 0, 1
2, 143302, Channel_aftertouch_c, 0, 9
2, 143306, Channel_aftertouch_c, 0, 19
2, 143310, Channel_aftertouch_c, 0, 25
2, 143320, Channel_aftertouch_c, 0, 20
2, 143325, Channel_aftertouch_c, 0, 6
2, 143329, Channel_aftertouch_c, 0, 1
2, 143333, Channel_aftertouch_c, 0, 0
2, 143758, Note_off_c, 0, 72, 74
2, 143760, Note_on_c, 0, 74, 83
2, 143878, Note_off_c, 0, 74, 83
2, 143880, Note_on_c, 0, 76, 84
2, 143998, Note_off_c, 0, 76, 84
2, 144005, Note_on_c, 0, 77, 90
2, 144050, Note_off_c, 0, 77, 90
2, 144261, Note_on_c, 0, 77, 106
2, 144736, Note_on_c, 0, 79, 76
2, 144782, Note_off_c, 0, 77, 106
2, 144855, Note_on_c, 0, 81, 72
2, 144868, Note_off_c, 0, 79, 76
2, 144994, Note_on_c, 0, 79, 97
2, 145026, Note_off_c, 0, 81, 72
2, 145225, Note_on_c, 0, 76, 73
2, 145237, Note_off_c, 0, 79, 97
2, 145435, Note_off_c, 0, 76, 73
2, 145453, Note_on_c, 0, 84, 50
2, 145473, Note_off_c, 0, 84, 50
2, 145705, Note_on_c, 0, 84, 68
2, 145748, Note_off_c, 0, 84, 68
2, 145933, Note_on_c, 0, 86, 89
2, 146063, Note_on_c, 0, 84, 81
2, 146093, Note_off_c, 0, 86, 89
2, 146185, Note_on_c, 0, 83, 92
2, 146234, Note_off_c, 0, 84, 81
2, 146305, Note_off_c, 0, 83, 92
2, 146309, Note_on_c, 0, 81, 77
2, 146362, Note_off_c, 0, 81, 77
2, 146438, Note_on_c, 0, 81, 78
2, 146552, Note_on_c, 0, 79, 76
2, 146582, Note_off_c, 0, 81, 78
2, 146671, Note_on_c, 0, 77, 92
2, 146706, Note_off_c, 0, 79, 76
2, 146777, Note_on_c, 0, 76, 70
2, 146789, Note_off_c, 0, 77, 92
2, 146880, Note_on_c, 0, 79, 74
2, 146920, Note_off_c, 0, 76, 70
2, 147574, Note_off_c, 0, 79, 74
2, 147600, Note_on_c, 0, 76, 67
2, 147824, Note_on_c, 0, 74, 53
2, 147840, Note_off_c, 0, 76, 67
2, 148284, Note_off_c, 0, 74, 53
2, 148753, Note_on_c, 0, 73, 65
2, 148808, Note_on_c, 0, 74, 73
2, 148842, Note_off_c, 0, 73, 65
2, 149310, Note_on_c, 0, 72, 65
2, 149378, Note_off_c, 0, 74, 73
2, 149403, Note_on_c, 0, 71, 77
2, 149460, Note_off_c, 0, 72, 65
2, 149506, Note_on_c, 0, 69, 76
2, 149509, Note_off_c, 0, 71, 77
2, 149616, Note_on_c, 0, 67, 81
2, 149638, Note_off_c, 0, 69, 76
2, 149680, Note_off_c, 0, 67, 81
2, 149755, Note_on_c, 0, 73, 89
2, 149974, Note_off_c, 0, 73, 89
2, 149981, Note_on_c, 0, 74, 77
2, 150243, Note_on_c, 0, 72, 72
2, 150276, Note_off_c, 0, 74, 77
2, 150354, Note_on_c, 0, 71, 89
2, 150408, Note_off_c, 0, 72, 72
2, 150463, Note_on_c, 0, 69, 66
2, 150467, Note_off_c, 0, 71, 89
2, 150578, Note_on_c, 0, 67, 86
2, 150598, Note_off_c, 0, 69, 66
2, 150624, Note_off_c, 0, 67, 86
2, 150720, Note_on_c, 0, 75, 94
2, 150955, Note_on_c, 0, 76, 70
2, 150963, Note_off_c, 0, 75, 94
2, 151000, Note_off_c, 0, 76, 70
2, 151210, Note_on_c, 0, 76, 63
2, 151245, Note_off_c, 0, 76, 63
2, 151455, Note_on_c, 0, 76, 71
2, 151494, Note_off_c, 0, 76, 71
2, 151705, Note_on_c, 0, 76, 70
2, 152193, Note_off_c, 0, 76, 70
2, 152589, Note_on_c, 0, 69, 63
2, 152640, Note_off_c, 0, 69, 63
2, 152662, Note_on_c, 0, 81, 78
2, 153398, Note_on_c, 0, 79, 72
2, 153454, Note_off_c, 0, 81, 78
2, 153462, Note_on_c, 0, 78, 57
2, 153505, Note_off_c, 0, 79, 72
2, 153520, Note_on_c, 0, 76, 66
2, 153593, Note_off_c, 0, 78, 57
2, 153598, Note_on_c, 0, 74, 83
2, 153604, Note_off_c, 0, 76, 66
2, 153829, Note_off_c, 0, 74, 83
2, 153866, Note_on_c, 0, 86, 55
2, 153888, Note_off_c, 0, 86, 55
2, 154105, Note_on_c, 0, 86, 73
2, 154145, Note_off_c, 0, 86, 73
2, 154333, Note_on_c, 0, 86, 89
2, 154374, Note_off_c, 0, 86, 89
2, 154592, Note_on_c, 0, 86, 97
2, 155189, Note_on_c, 0, 83, 57
2, 155197, Note_off_c, 0, 86, 97
2, 155266, Note_off_c, 0, 83, 57
2, 155290, Note_on_c, 0, 86, 66
2, 155400, Note_on_c, 0, 83, 70
2, 155443, Note_off_c, 0, 86, 66
2, 155528, Note_on_c, 0, 79, 58
2, 155543, Note_off_c, 0, 83, 70
2, 155945, Note_off_c, 0, 79, 58
2, 156461, Note_on_c, 0, 73, 81
2, 156715, Note_off_c, 0, 73, 81
2, 156717, Note_on_c, 0, 74, 53
2, 156954, Note_on_c, 0, 72, 65
2, 157015, Note_off_c, 0, 74, 53
2, 157063, Note_on_c, 0, 71, 78
2, 157125, Note_off_c, 0, 72, 65
2, 157185, Note_on_c, 0, 69, 72
2, 157188, Note_off_c, 0, 71, 78
2, 157320, Note_on_c, 0, 67, 61
2, 157328, Note_off_c, 0, 69, 72
2, 157395, Note_on_c, 0, 73, 78
2, 157438, Note_off_c, 0, 67, 61
2, 157509, Note_on_c, 0, 74, 73
2, 157533, Note_off_c, 0, 73, 78
2, 157640, Note_off_c, 0, 74, 73
2, 157648, Note_on_c, 0, 76, 62
2, 157740, Note_on_c, 0, 74, 77
2, 157773, Note_off_c, 0, 76, 62
2, 157862, Note_off_c, 0, 74, 77
2, 157889, Note_on_c, 0, 72, 76
2, 158005, Note_on_c, 0, 71, 73
2, 158018, Note_off_c, 0, 72, 76
2, 158138, Note_on_c, 0, 69, 74
2, 158162, Note_off_c, 0, 71, 73
2, 158248, Note_on_c, 0, 67, 78
2, 158282, Note_off_c, 0, 69, 74
2, 158357, Note_off_c, 0, 67, 78
2, 158371, Note_on_c, 0, 75, 94
2, 158600, Note_on_c, 0, 76, 74
2, 158603, Note_off_c, 0, 75, 94
2, 158653, Note_off_c, 0, 76, 74
2, 158848, Note_on_c, 0, 76, 68
2, 158877, Note_off_c, 0, 76, 68
2, 159076, Note_on_c, 0, 76, 66
2, 159121, Note_off_c, 0, 76, 66
2, 159306, Note_on_c, 0, 76, 78
2, 159751, Note_off_c, 0, 76, 78
2, 160300, Channel_aftertouch_c, 0, 15
2, 160304, Channel_aftertouch_c, 0, 3
2, 160309, Channel_aftertouch_c, 0, 0
2, 160320, Note_on_c, 0, 81, 105
2, 160438, Note_off_c, 0, 81, 105
2, 160440, Note_on_c, 0, 83, 77
2, 160558, Note_off_c, 0, 83, 77
2, 160560, Note_on_c, 0, 84, 74
2, 160678, Note_off_c, 0, 84, 74
2, 160680, Note_on_c, 0, 83, 71
2, 160798, Note_off_c, 0, 83, 71
2, 160800, Note_on_c, 0, 81, 72
2, 160918, Note_off_c, 0, 81, 72
2, 160920, Note_on_c, 0, 79, 74
2, 161038, Note_off_c, 0, 79, 74
2, 161040, Note_on_c, 0, 78, 72
2, 161158, Note_off_c, 0, 78, 72
2, 161160, Note_on_c, 0, 76, 66
2, 161278, Note_off_c, 0, 76, 66
2, 161280, Note_on_c, 0, 74, 74
2, 161398, Note_off_c, 0, 74, 74
2, 161400, Note_on_c, 0, 78, 74
2, 161518, Note_off_c, 0, 78, 74
2, 161520, Note_on_c, 0, 81, 77
2, 161638, Note_off_c, 0, 81, 77
2, 161640, Note_on_c, 0, 79, 78
2, 161758, Note_off_c, 0, 79, 78
2, 161760, Note_on_c, 0, 78, 71
2, 161878, Note_off_c, 0, 78, 71
2, 161880, Note_on_c, 0, 76, 50
2, 161998, Note_off_c, 0, 76, 50
2, 162000, Note_on_c, 0, 74, 68
2, 162118, Note_off_c, 0, 74, 68
2, 162120, Note_on_c, 0, 72, 63
2, 162238, Note_off_c, 0, 72, 63
2, 162260, Note_on_c, 0, 71, 78
2, 162644, Note_off_c, 0, 71, 78
2, 162680, Note_on_c, 0, 72, 83
2, 162748, Note_on_c, 0, 74, 67
2, 162759, Note_off_c, 0, 72, 83
2, 162807, Note_on_c, 0, 72, 77
2, 162825, Note_off_c, 0, 74, 67
2, 162880, Note_off_c, 0, 72, 77
2, 162902, Note_on_c, 0, 74, 61
2, 162975, Note_on_c, 0, 72, 71
2, 163053, Note_on_c, 0, 71, 72
2, 163071, Note_off_c, 0, 72, 71
2, 163090, Note_off_c, 0, 74, 61
2, 163140, Note_on_c, 0, 72, 81
2, 163168, Note_off_c, 0, 71, 72
2, 163243, Note_on_c, 0, 74, 77
2, 163275, Note_off_c, 0, 72, 81
2, 163935, Note_off_c, 0, 74, 77
2, 164131, Note_on_c, 0, 76, 68
2, 164165, Note_on_c, 0, 78, 73
2, 164203, Note_off_c, 0, 76, 68
2, 164228, Note_on_c, 0, 79, 76
2, 164276, Note_off_c, 0, 78, 73
2, 164433, Note_off_c, 0, 79, 76
2, 164644, Note_on_c, 0, 79, 78
2, 164708, Note_off_c, 0, 79, 78
2, 165053, Note_on_c, 0, 79, 73
2, 165091, Note_off_c, 0, 79, 73
2, 165139, Note_on_c, 0, 79, 74
2, 165170, Channel_aftertouch_c, 0, 4
2, 165175, Channel_aftertouch_c, 0, 1
2, 165179, Channel_aftertouch_c, 0, 0
2, 165588, Note_on_c, 0, 78, 72
2, 165622, Note_off_c, 0, 79, 74
2, 165699, Note_on_c, 0, 76, 73
2, 165789, Note_off_c, 0, 78, 72
2, 165805, Note_off_c, 0, 76, 73
2, 165811, Note_on_c, 0, 74, 72
2, 165916, Note_on_c, 0, 72, 77
2, 165925, Note_off_c, 0, 74, 72
2, 166040, Note_off_c, 0, 72, 77
2, 166046, Note_on_c, 0, 71, 94
2, 166371, Note_on_c, 0, 74, 16
2, 166480, Note_off_c, 0, 74, 16
2, 166524, Note_off_c, 0, 71, 94
2, 166538, Note_on_c, 0, 72, 76
2, 166603, Note_on_c, 0, 74, 73
2, 166617, Note_off_c, 0, 72, 76
2, 166669, Note_on_c, 0, 72, 77
2, 166678, Note_off_c, 0, 74, 73
2, 166745, Note_on_c, 0, 74, 70
2, 166749, Note_off_c, 0, 72, 77
2, 166802, Note_on_c, 0, 72, 74
2, 166865, Note_off_c, 0, 74, 70
2, 166873, Note_on_c, 0, 71, 72
2, 166876, Note_off_c, 0, 72, 74
2, 166957, Note_on_c, 0, 72, 77
2, 166989, Note_off_c, 0, 71, 72
2, 167079, Note_on_c, 0, 74, 73
2, 167090, Note_off_c, 0, 72, 77
2, 167523, Note_off_c, 0, 74, 73
2, 167947, Note_on_c, 0, 76, 61
2, 167990, Note_on_c, 0, 78, 57
2, 168034, Note_off_c, 0, 76, 61
2, 168047, Note_on_c, 0, 79, 89
2, 168075, Note_off_c, 0, 78, 57
2, 168432, Note_off_c, 0, 79, 89
2, 168507, Note_on_c, 0, 79, 83
2, 168570, Note_off_c, 0, 79, 83
2, 168885, Note_on_c, 0, 79, 74
2, 168925, Note_off_c, 0, 79, 74
2, 168978, Note_on_c, 0, 79, 77
2, 169440, Note_on_c, 0, 78, 74
2, 169482, Note_off_c, 0, 79, 77
2, 169558, Note_off_c, 0, 78, 74
2, 169560, Note_on_c, 0, 76, 66
2, 169678, Note_off_c, 0, 76, 66
2, 169680, Note_on_c, 0, 74, 74
2, 169798, Note_off_c, 0, 74, 74
2, 169800, Note_on_c, 0, 72, 68
2, 169885, Note_on_c, 0, 71, 94
2, 169918, Note_off_c, 0, 72, 68
2, 169962, Note_off_c, 0, 71, 94
2, 170160, Note_on_c, 0, 79, 72
2, 170278, Note_off_c, 0, 79, 72
2, 170280, Note_on_c, 0, 81, 73
2, 170398, Note_off_c, 0, 81, 73
2, 170400, Note_on_c, 0, 83, 78
2, 170518, Note_off_c, 0, 83, 78
2, 170520, Note_on_c, 0, 81, 78
2, 170638, Note_off_c, 0, 81, 78
2, 170640, Note_on_c, 0, 79, 76
2, 170758, Note_off_c, 0, 79, 76
2, 170760, Note_on_c, 0, 78, 72
2, 170878, Note_off_c, 0, 78, 72
2, 170880, Note_on_c, 0, 76, 74
2, 170998, Note_off_c, 0, 76, 74
2, 171000, Note_on_c, 0, 74, 66
2, 171118, Note_off_c, 0, 74, 66
2, 171120, Note_on_c, 0, 72, 58
2, 171238, Note_off_c, 0, 72, 58
2, 171240, Note_on_c, 0, 71, 68
2, 171358, Note_off_c, 0, 71, 68
2, 171360, Note_on_c, 0, 69, 66
2, 171478, Note_off_c, 0, 69, 66
2, 171480, Note_on_c, 0, 67, 45
2, 171598, Note_off_c, 0, 67, 45
2, 171600, Note_on_c, 0, 66, 71
2, 171718, Note_off_c, 0, 66, 71
2, 171720, Note_on_c, 0, 64, 46
2, 171838, Note_off_c, 0, 64, 46
2, 171840, Note_on_c, 0, 62, 77
2, 171842, Channel_aftertouch_c, 0, 4
2, 171846, Channel_aftertouch_c, 0, 9
2, 171850, Channel_aftertouch_c, 0, 4
2, 171855, Channel_aftertouch_c, 0, 1
2, 171864, Channel_aftertouch_c, 0, 0
2, 171958, Note_off_c, 0, 62, 77
2, 172295, Channel_aftertouch_c, 0, 1
2, 172305, Channel_aftertouch_c, 0, 0
2, 172320, Note_on_c, 0, 60, 85
2, 173278, Note_off_c, 0, 60, 85
2, 173280, Note_on_c, 0, 59, 46
2, 173758, Note_off_c, 0, 59, 46
2, 173996, Note_on_c, 0, 57, 63
2, 174061, Note_off_c, 0, 57, 63
2, 174222, Note_on_c, 0, 60, 67
2, 174293, Note_off_c, 0, 60, 67
2, 174457, Note_on_c, 0, 64, 55
2, 174520, Note_off_c, 0, 64, 55
2, 174709, Note_on_c, 0, 68, 74
2, 174938, Note_on_c, 0, 69, 77
2, 174941, Note_off_c, 0, 68, 74
2, 175180, Note_on_c, 0, 72, 72
2, 175230, Note_off_c, 0, 69, 77
2, 175407, Note_off_c, 0, 72, 72
2, 175413, Note_on_c, 0, 76, 74
2, 175585, Note_off_c, 0, 76, 74
2, 175673, Note_on_c, 0, 76, 89
2, 175816, Channel_aftertouch_c, 0, 1
2, 175829, Channel_aftertouch_c, 0, 3
2, 175833, Channel_aftertouch_c, 0, 4
2, 175838, Channel_aftertouch_c, 0, 5
2, 175846, Channel_aftertouch_c, 0, 7
2, 175855, Channel_aftertouch_c, 0, 9
2, 175869, Channel_aftertouch_c, 0, 4
2, 175873, Channel_aftertouch_c, 0, 0
2, 175911, Note_on_c, 0, 67, 66
2, 175915, Note_off_c, 0, 76, 89
2, 176081, Note_off_c, 0, 67, 66
2, 176155, Note_on_c, 0, 67, 65
2, 177092, Note_on_c, 0, 71, 55
2, 177103, Note_on_c, 0, 66, 37
2, 177116, Note_off_c, 0, 67, 65
2, 177331, Note_on_c, 0, 69, 66
2, 177361, Note_off_c, 0, 71, 55
2, 177579, Note_off_c, 0, 69, 66
2, 177598, Note_on_c, 0, 67, 65
2, 177652, Note_off_c, 0, 66, 37
2, 178080, Note_off_c, 0, 67, 65
2, 178578, Note_on_c, 0, 74, 71
2, 178793, Note_on_c, 0, 71, 65
2, 178799, Note_off_c, 0, 74, 71
2, 179044, Note_on_c, 0, 79, 76
2, 179051, Note_off_c, 0, 71, 65
2, 179086, Note_off_c, 0, 79, 76
2, 179277, Note_on_c, 0, 78, 62
2, 179349, Note_off_c, 0, 78, 62
2, 179533, Note_on_c, 0, 76, 74
2, 179583, Note_off_c, 0, 76, 74
2, 179760, Note_on_c, 0, 74, 71
2, 179821, Note_off_c, 0, 74, 71
2, 180006, Note_on_c, 0, 72, 65
2, 180066, Note_off_c, 0, 72, 65
2, 180238, Note_on_c, 0, 71, 67
2, 180338, Note_off_c, 0, 71, 67
2, 180488, Note_on_c, 0, 69, 74
2, 180569, Note_off_c, 0, 69, 74
2, 180977, Note_on_c, 0, 71, 72
2, 181035, Note_off_c, 0, 71, 72
2, 181431, Note_on_c, 0, 74, 68
2, 181676, Note_on_c, 0, 73, 65
2, 181702, Note_off_c, 0, 74, 68
2, 181926, Note_on_c, 0, 72, 62
2, 181961, Note_off_c, 0, 73, 65
2, 182412, Note_on_c, 0, 71, 76
2, 182419, Note_off_c, 0, 72, 62
2, 182577, Note_off_c, 0, 71, 76
2, 182634, Note_on_c, 0, 72, 74
2, 182807, Note_off_c, 0, 72, 74
2, 182876, Note_on_c, 0, 74, 78
2, 183038, Note_off_c, 0, 74, 78
2, 183110, Note_on_c, 0, 75, 66
2, 183173, Note_off_c, 0, 75, 66
2, 183332, Note_on_c, 0, 76, 74
2, 183391, Note_on_c, 0, 78, 65
2, 183421, Note_off_c, 0, 76, 74
2, 183489, Note_on_c, 0, 76, 65
2, 183498, Note_off_c, 0, 78, 65
2, 183560, Note_off_c, 0, 76, 65
2, 183568, Note_on_c, 0, 75, 58
2, 183646, Note_on_c, 0, 76, 74
2, 183649, Note_off_c, 0, 75, 58
2, 183744, Note_on_c, 0, 78, 62
2, 183766, Note_off_c, 0, 76, 74
2, 183831, Note_on_c, 0, 79, 83
2, 183841, Note_off_c, 0, 78, 62
2, 183891, Note_off_c, 0, 79, 83
2, 184071, Note_on_c, 0, 78, 67
2, 184131, Note_off_c, 0, 78, 67
2, 184319, Note_on_c, 0, 76, 70
2, 184384, Note_off_c, 0, 76, 70
2, 184547, Note_on_c, 0, 74, 55
2, 184615, Note_off_c, 0, 74, 55
2, 184792, Note_on_c, 0, 72, 65
2, 184853, Note_off_c, 0, 72, 65
2, 185012, Note_on_c, 0, 71, 72
2, 185109, Note_off_c, 0, 71, 72
2, 185267, Note_on_c, 0, 74, 74
2, 185652, Note_on_c, 0, 71, 63
2, 185677, Note_off_c, 0, 74, 74
2, 185749, Note_on_c, 0, 69, 66
2, 185776, Note_off_c, 0, 71, 63
2, 185920, Note_off_c, 0, 69, 66
2, 186236, Note_on_c, 0, 74, 101
2, 186254, Channel_aftertouch_c, 0, 11
2, 186258, Channel_aftertouch_c, 0, 39
2, 186262, Channel_aftertouch_c, 0, 68
2, 186267, Channel_aftertouch_c, 0, 91
2, 186271, Channel_aftertouch_c, 0, 103
2, 186280, Channel_aftertouch_c, 0, 95
2, 186285, Channel_aftertouch_c, 0, 76
2, 186289, Channel_aftertouch_c, 0, 56
2, 186293, Channel_aftertouch_c, 0, 37
2, 186298, Channel_aftertouch_c, 0, 20
2, 186302, Channel_aftertouch_c, 0, 6
2, 186306, Channel_aftertouch_c, 0, 1
2, 186311, Channel_aftertouch_c, 0, 0
2, 186586, Note_on_c, 0, 76, 74
2, 186624, Note_off_c, 0, 74, 101
2, 186660, Note_on_c, 0, 78, 77
2, 186686, Note_off_c, 0, 76, 74
2, 186705, Note_on_c, 0, 79, 68
2, 186757, Note_off_c, 0, 78, 77
2, 186789, Note_off_c, 0, 79, 68
2, 186951, Note_on_c, 0, 78, 94
2, 187011, Note_off_c, 0, 78, 94
2, 187186, Note_on_c, 0, 76, 92
2, 187244, Note_off_c, 0, 76, 92
2, 187435, Note_on_c, 0, 74, 65
2, 187509, Note_off_c, 0, 74, 65
2, 187670, Note_on_c, 0, 72, 61
2, 187742, Note_off_c, 0, 72, 61
2, 187922, Note_on_c, 0, 71, 44
2, 187983, Note_off_c, 0, 71, 44
2, 188163, Note_on_c, 0, 69, 62
2, 188213, Note_off_c, 0, 69, 62
2, 188651, Note_on_c, 0, 71, 65
2, 188696, Note_off_c, 0, 71, 65
2, 189136, Note_on_c, 0, 72, 78
2, 189190, Note_off_c, 0, 72, 78
2, 189616, Note_on_c, 0, 73, 94
2, 189691, Note_off_c, 0, 73, 94
2, 190075, Note_on_c, 0, 74, 89
2, 190204, Note_off_c, 0, 74, 89
2, 190551, Note_on_c, 0, 75, 76
2, 190614, Note_off_c, 0, 75, 76
2, 191034, Note_on_c, 0, 76, 78
2, 191266, Note_off_c, 0, 76, 78
2, 191416, Note_on_c, 0, 64, 74
2, 191502, Note_on_c, 0, 72, 89
2, 191509, Note_off_c, 0, 64, 74
2, 191857, Note_off_c, 0, 72, 89
2, 191858, Note_on_c, 0, 69, 76
2, 191962, Note_off_c, 0, 69, 76
2, 191967, Note_on_c, 0, 67, 67
2, 192459, Note_on_c, 0, 71, 77
2, 192470, Note_on_c, 0, 66, 58
2, 192486, Note_off_c, 0, 67, 67
2, 192596, Note_on_c, 0, 69, 63
2, 192611, Note_off_c, 0, 71, 77
2, 192936, Note_off_c, 0, 69, 63
2, 192951, Note_on_c, 0, 67, 62
2, 192966, Note_off_c, 0, 66, 58
2, 193486, Note_off_c, 0, 67, 62
2, 193584, Note_on_c, 0, 79, 72
2, 193704, Note_on_c, 0, 81, 67
2, 193716, Note_off_c, 0, 79, 72
2, 193810, Note_on_c, 0, 79, 78
2, 193884, Note_off_c, 0, 81, 67
2, 193929, Note_on_c, 0, 76, 89
2, 193933, Note_off_c, 0, 79, 78
2, 194041, Note_on_c, 0, 79, 94
2, 194073, Note_off_c, 0, 76, 89
2, 194164, Note_on_c, 0, 81, 74
2, 194175, Note_off_c, 0, 79, 94
2, 194273, Note_on_c, 0, 79, 89
2, 194299, Note_off_c, 0, 81, 74
2, 194376, Note_off_c, 0, 79, 89
2, 194422, Note_on_c, 0, 84, 77
2, 194526, Note_on_c, 0, 79, 83
2, 194529, Note_off_c, 0, 84, 77
2, 194641, Note_on_c, 0, 76, 92
2, 194668, Note_off_c, 0, 79, 83
2, 194747, Note_on_c, 0, 72, 89
2, 194777, Note_off_c, 0, 76, 92
2, 194875, Note_on_c, 0, 79, 89
2, 194898, Note_off_c, 0, 72, 89
2, 194928, Note_off_c, 0, 79, 89
2, 195145, Note_on_c, 0, 79, 67
2, 195224, Note_off_c, 0, 79, 67
2, 195491, Note_on_c, 0, 79, 76
2, 195612, Note_on_c, 0, 81, 74
2, 195616, Note_off_c, 0, 79, 76
2, 195709, Note_on_c, 0, 79, 83
2, 195753, Note_off_c, 0, 81, 74
2, 195824, Note_off_c, 0, 79, 83
2, 195830, Note_on_c, 0, 76, 94
2, 195952, Note_on_c, 0, 79, 94
2, 195977, Note_off_c, 0, 76, 94
2, 196061, Note_on_c, 0, 81, 74
2, 196078, Note_off_c, 0, 79, 94
2, 196169, Note_on_c, 0, 79, 86
2, 196202, Note_off_c, 0, 81, 74
2, 196258, Note_off_c, 0, 79, 86
2, 196306, Note_on_c, 0, 84, 77
2, 196413, Note_on_c, 0, 79, 89
2, 196416, Note_off_c, 0, 84, 77
2, 196533, Note_on_c, 0, 76, 89
2, 196565, Note_off_c, 0, 79, 89
2, 196637, Note_on_c, 0, 72, 86
2, 196676, Note_off_c, 0, 76, 89
2, 196769, Note_on_c, 0, 79, 81
2, 196787, Note_off_c, 0, 72, 86
2, 196823, Note_off_c, 0, 79, 81
2, 197021, Note_on_c, 0, 79, 77
2, 197070, Note_off_c, 0, 79, 77
2, 197413, Note_on_c, 0, 74, 67
2, 197512, Note_on_c, 0, 78, 65
2, 197535, Note_off_c, 0, 74, 67
2, 197626, Note_on_c, 0, 74, 62
2, 197670, Note_off_c, 0, 78, 65
2, 197749, Note_on_c, 0, 79, 72
2, 197759, Note_off_c, 0, 74, 62
2, 197796, Note_off_c, 0, 79, 72
2, 197963, Note_on_c, 0, 79, 62
2, 198007, Note_off_c, 0, 79, 62
2, 198352, Note_on_c, 0, 74, 66
2, 198469, Note_on_c, 0, 78, 65
2, 198497, Note_off_c, 0, 74, 66
2, 198579, Note_on_c, 0, 74, 67
2, 198601, Note_off_c, 0, 78, 65
2, 198701, Note_on_c, 0, 79, 78
2, 198708, Note_on_c, 0, 78, 48
2, 198729, Note_off_c, 0, 78, 48
2, 198731, Note_off_c, 0, 74, 67
2, 198749, Note_off_c, 0, 79, 78
2, 198954, Note_on_c, 0, 79, 67
2, 199003, Note_off_c, 0, 79, 67
2, 199351, Note_on_c, 0, 74, 66
2, 199456, Note_off_c, 0, 74, 66
2, 199461, Note_on_c, 0, 81, 63
2, 199577, Note_off_c, 0, 81, 63
2, 199589, Note_on_c, 0, 74, 42
2, 199683, Note_off_c, 0, 74, 42
2, 199700, Note_on_c, 0, 83, 78
2, 199782, Note_off_c, 0, 83, 78
2, 199793, Note_on_c, 0, 74, 65
2, 199916, Note_on_c, 0, 83, 86
2, 199919, Note_off_c, 0, 74, 65
2, 200024, Note_off_c, 0, 83, 86
2, 200026, Note_on_c, 0, 74, 74
2, 200133, Note_off_c, 0, 74, 74
2, 200153, Note_on_c, 0, 84, 89
2, 200241, Note_off_c, 0, 84, 89
2, 200253, Note_on_c, 0, 74, 74
2, 200376, Note_on_c, 0, 84, 89
2, 200378, Note_off_c, 0, 74, 74
2, 200477, Note_off_c, 0, 84, 89
2, 200486, Note_on_c, 0, 74, 83
2, 200559, Note_off_c, 0, 74, 83
2, 200620, Note_on_c, 0, 86, 94
2, 200878, Note_on_c, 0, 83, 71
2, 200893, Note_off_c, 0, 86, 94
2, 200941, Note_off_c, 0, 83, 71
2, 201121, Note_on_c, 0, 79, 68
2, 201368, Note_on_c, 0, 83, 74
2, 201406, Note_off_c, 0, 79, 68
2, 201417, Note_off_c, 0, 83, 74
2, 201631, Note_on_c, 0, 74, 68
2, 201846, Note_on_c, 0, 79, 65
2, 201855, Note_off_c, 0, 74, 68
2, 201900, Note_off_c, 0, 79, 65
2, 202113, Note_on_c, 0, 71, 72
2, 202337, Note_off_c, 0, 71, 72
2, 202340, Note_on_c, 0, 74, 73
2, 202430, Note_off_c, 0, 74, 73
2, 202616, Note_on_c, 0, 69, 83
2, 202845, Note_on_c, 0, 76, 76
2, 202855, Note_off_c, 0, 69, 83
2, 203040, Note_on_c, 0, 74, 77
2, 203107, Note_off_c, 0, 76, 76
2, 203160, Note_on_c, 0, 72, 92
2, 203201, Note_off_c, 0, 74, 77
2, 203280, Note_on_c, 0, 71, 74
2, 203290, Note_off_c, 0, 72, 92
2, 203400, Note_off_c, 0, 71, 74
2, 203400, Note_on_c, 0, 69, 76
2, 203524, Note_off_c, 0, 69, 76
2, 203566, Note_on_c, 0, 67, 71
2, 204013, Note_off_c, 0, 67, 71
2, 204024, Note_on_c, 0, 66, 67
2, 204129, Note_on_c, 0, 67, 72
2, 204151, Note_off_c, 0, 66, 67
2, 204215, Note_on_c, 0, 66, 67
2, 204241, Note_off_c, 0, 67, 72
2, 204298, Note_on_c, 0, 64, 73
2, 204301, Note_off_c, 0, 66, 67
2, 204376, Note_on_c, 0, 66, 74
2, 204426, Note_off_c, 0, 64, 73
2, 204525, Note_on_c, 0, 67, 78
2, 204529, Note_off_c, 0, 66, 74
2, 204944, Note_off_c, 0, 67, 78
2, 205091, Note_on_c, 0, 79, 76
2, 205212, Note_on_c, 0, 81, 74
2, 205216, Note_off_c, 0, 79, 76
2, 205309, Note_on_c, 0, 79, 83
2, 205353, Note_off_c, 0, 81, 74
2, 205424, Note_off_c, 0, 79, 83
2, 205430, Note_on_c, 0, 76, 94
2, 205552, Note_on_c, 0, 79, 94
2, 205577, Note_off_c, 0, 76, 94
2, 205661, Note_on_c, 0, 81, 74
2, 205678, Note_off_c, 0, 79, 94
2, 205769, Note_on_c, 0, 79, 86
2, 205802, Note_off_c, 0, 81, 74
2, 205858, Note_off_c, 0, 79, 86
2, 205906, Note_on_c, 0, 84, 77
2, 206013, Note_on_c, 0, 79, 89
2, 206016, Note_off_c, 0, 84, 77
2, 206133, Note_on_c, 0, 76, 89
2, 206165, Note_off_c, 0, 79, 89
2, 206237, Note_on_c, 0, 72, 86
2, 206276, Note_off_c, 0, 76, 89
2, 206369, Note_on_c, 0, 79, 81
2, 206387, Note_off_c, 0, 72, 86
2, 206423, Note_off_c, 0, 79, 81
2, 206621, Note_on_c, 0, 79, 77
2, 206670, Note_off_c, 0, 79, 77
2, 207011, Note_on_c, 0, 79, 76
2, 207132, Note_on_c, 0, 81, 74
2, 207136, Note_off_c, 0, 79, 76
2, 207229, Note_on_c, 0, 79, 83
2, 207273, Note_off_c, 0, 81, 74
2, 207344, Note_off_c, 0, 79, 83
2, 207350, Note_on_c, 0, 76, 94
2, 207472, Note_on_c, 0, 79, 94
2, 207497, Note_off_c, 0, 76, 94
2, 207581, Note_on_c, 0, 81, 74
2, 207598, Note_off_c, 0, 79, 94
2, 207689, Note_on_c, 0, 79, 86
2, 207722, Note_off_c, 0, 81, 74
2, 207778, Note_off_c, 0, 79, 86
2, 207826, Note_on_c, 0, 84, 77
2, 207933, Note_on_c, 0, 79, 89
2, 207936, Note_off_c, 0, 84, 77
2, 208053, Note_on_c, 0, 76, 89
2, 208085, Note_off_c, 0, 79, 89
2, 208157, Note_on_c, 0, 72, 86
2, 208196, Note_off_c, 0, 76, 89
2, 208289, Note_on_c, 0, 79, 81
2, 208307, Note_off_c, 0, 72, 86
2, 208343, Note_off_c, 0, 79, 81
2, 208541, Note_on_c, 0, 79, 77
2, 208590, Note_off_c, 0, 79, 77
2, 208949, Note_on_c, 0, 74, 76
2, 209060, Note_on_c, 0, 78, 71
2, 209084, Note_off_c, 0, 74, 76
2, 209166, Note_on_c, 0, 74, 78
2, 209174, Note_off_c, 0, 78, 71
2, 209236, Note_off_c, 0, 74, 78
2, 209286, Note_on_c, 0, 79, 83
2, 209351, Note_off_c, 0, 79, 83
2, 209524, Note_on_c, 0, 79, 78
2, 209576, Note_off_c, 0, 79, 78
2, 209883, Note_on_c, 0, 74, 70
2, 209993, Note_off_c, 0, 74, 70
2, 210000, Note_on_c, 0, 78, 66
2, 210094, Note_on_c, 0, 74, 78
2, 210104, Note_off_c, 0, 78, 66
2, 210226, Note_on_c, 0, 79, 77
2, 210238, Note_off_c, 0, 74, 78
2, 210297, Note_off_c, 0, 79, 77
2, 210475, Note_on_c, 0, 79, 76
2, 210526, Note_off_c, 0, 79, 76
2, 210845, Note_on_c, 0, 74, 74
2, 210954, Note_off_c, 0, 74, 74
2, 210963, Note_on_c, 0, 81, 67
2, 211042, Note_off_c, 0, 81, 67
2, 211078, Note_on_c, 0, 74, 43
2, 211216, Note_on_c, 0, 83, 51
2, 211244, Note_off_c, 0, 74, 43
2, 211298, Note_off_c, 0, 83, 51
2, 211321, Note_on_c, 0, 74, 76
2, 211436, Note_off_c, 0, 74, 76
2, 211441, Note_on_c, 0, 83, 83
2, 211531, Note_off_c, 0, 83, 83
2, 211552, Note_on_c, 0, 74, 74
2, 211686, Note_on_c, 0, 84, 94
2, 211706, Note_off_c, 0, 74, 74
2, 211786, Note_off_c, 0, 84, 94
2, 211809, Note_on_c, 0, 74, 74
2, 211904, Note_off_c, 0, 74, 74
2, 211923, Note_on_c, 0, 84, 81
2, 212018, Note_on_c, 0, 74, 74
2, 212031, Note_off_c, 0, 84, 81
2, 212078, Note_off_c, 0, 74, 74
2, 212146, Note_on_c, 0, 86, 89
2, 212268, Note_on_c, 0, 83, 97
2, 212276, Note_off_c, 0, 86, 89
2, 212386, Note_on_c, 0, 86, 76
2, 212396, Note_off_c, 0, 83, 97
2, 212511, Note_on_c, 0, 83, 94
2, 212541, Note_off_c, 0, 86, 76
2, 212630, Note_off_c, 0, 83, 94
2, 212632, Note_on_c, 0, 79, 89
2, 212733, Note_on_c, 0, 83, 83
2, 212746, Note_off_c, 0, 79, 89
2, 212853, Note_off_c, 0, 83, 83
2, 212856, Note_on_c, 0, 79, 76
2, 212964, Note_on_c, 0, 83, 77
2, 212972, Note_off_c, 0, 79, 76
2, 213083, Note_off_c, 0, 83, 77
2, 213092, Note_on_c, 0, 74, 83
2, 213182, Note_off_c, 0, 74, 83
2, 213198, Note_on_c, 0, 79, 66
2, 213316, Note_off_c, 0, 79, 66
2, 213330, Note_on_c, 0, 74, 77
2, 213440, Note_on_c, 0, 79, 74
2, 213463, Note_off_c, 0, 74, 77
2, 213556, Note_off_c, 0, 79, 74
2, 213570, Note_on_c, 0, 71, 83
2, 213693, Note_on_c, 0, 74, 71
2, 213703, Note_off_c, 0, 71, 83
2, 213813, Note_off_c, 0, 74, 71
2, 213817, Note_on_c, 0, 71, 73
2, 213928, Note_on_c, 0, 74, 89
2, 213940, Note_off_c, 0, 71, 73
2, 214022, Note_off_c, 0, 74, 89
2, 214077, Note_on_c, 0, 69, 78
2, 214179, Note_on_c, 0, 76, 74
2, 214222, Note_off_c, 0, 69, 78
2, 214312, Note_on_c, 0, 75, 65
2, 214342, Note_off_c, 0, 76, 74
2, 214429, Note_on_c, 0, 76, 60
2, 214433, Note_off_c, 0, 75, 65
2, 214551, Note_on_c, 0, 74, 83
2, 214583, Note_off_c, 0, 76, 60
2, 214659, Note_on_c, 0, 72, 92
2, 214724, Note_off_c, 0, 74, 83
2, 214761, Note_on_c, 0, 71, 76
2, 214764, Note_off_c, 0, 72, 92
2, 214839, Note_off_c, 0, 71, 76
2, 214888, Note_on_c, 0, 69, 74
2, 214996, Note_off_c, 0, 69, 74
2, 215029, Note_on_c, 0, 67, 94
2, 215451, Note_off_c, 0, 67, 94
2, 215537, Note_on_c, 0, 66, 55
2, 215600, Note_off_c, 0, 66, 55
2, 215606, Note_on_c, 0, 67, 76
2, 215668, Note_on_c, 0, 66, 74
2, 215683, Note_off_c, 0, 67, 76
2, 215740, Note_off_c, 0, 66, 74
2, 215757, Note_on_c, 0, 67, 68
2, 215807, Note_on_c, 0, 66, 73
2, 215851, Note_off_c, 0, 67, 68
2, 215878, Note_on_c, 0, 64, 68
2, 215889, Note_off_c, 0, 66, 73
2, 215960, Note_on_c, 0, 66, 68
2, 216004, Note_off_c, 0, 64, 68
2, 216029, Note_off_c, 0, 66, 68
2, 216056, Note_on_c, 0, 67, 89
2, 216183, Note_on_c, 0, 62, 29
2, 216224, Note_off_c, 0, 62, 29
2, 216399, Note_on_c, 0, 62, 71
2, 216408, Note_off_c, 0, 67, 89
2, 216487, Note_off_c, 0, 62, 71
2, 216506, Note_on_c, 0, 71, 92
2, 216836, Note_on_c, 0, 67, 70
2, 216844, Note_off_c, 0, 71, 92
2, 216940, Note_on_c, 0, 74, 89
2, 216946, Note_off_c, 0, 67, 70
2, 217072, Note_off_c, 0, 74, 89
2, 217446, Note_on_c, 0, 81, 74
2, 217569, Note_off_c, 0, 81, 74
2, 217570, Note_on_c, 0, 79, 66
2, 217704, Note_on_c, 0, 78, 56
2, 217722, Note_off_c, 0, 79, 66
2, 217805, Note_on_c, 0, 76, 78
2, 217813, Note_off_c, 0, 78, 56
2, 217913, Note_off_c, 0, 76, 78
2, 217944, Note_on_c, 0, 74, 76
2, 218279, Note_off_c, 0, 74, 76
2, 218445, Note_on_c, 0, 76, 68
2, 218558, Note_on_c, 0, 74, 53
2, 218573, Note_off_c, 0, 76, 68
2, 218677, Note_on_c, 0, 72, 62
2, 218742, Note_off_c, 0, 74, 53
2, 218764, Note_on_c, 0, 71, 65
2, 218778, Note_off_c, 0, 72, 62
2, 218903, Note_on_c, 0, 69, 56
2, 218907, Note_off_c, 0, 71, 65
2, 219356, Note_off_c, 0, 69, 56
2, 219366, Note_on_c, 0, 74, 50
2, 219475, Note_on_c, 0, 72, 46
2, 219501, Note_off_c, 0, 74, 50
2, 219612, Note_on_c, 0, 71, 55
2, 219654, Note_off_c, 0, 72, 46
2, 219733, Note_off_c, 0, 71, 55
2, 219735, Note_on_c, 0, 69, 55
2, 219821, Note_off_c, 0, 69, 55
2, 219893, Note_on_c, 0, 67, 92
2, 219909, Channel_aftertouch_c, 0, 1
2, 219913, Channel_aftertouch_c, 0, 12
2, 219918, Channel_aftertouch_c, 0, 23
2, 219921, Channel_aftertouch_c, 0, 28
2, 219926, Channel_aftertouch_c, 0, 19
2, 219931, Channel_aftertouch_c, 0, 3
2, 219935, Channel_aftertouch_c, 0, 0
2, 219966, Note_off_c, 0, 67, 92
2, 220006, Note_on_c, 0, 62, 89
2, 220063, Note_off_c, 0, 62, 89
2, 220131, Note_on_c, 0, 67, 78
2, 220236, Note_on_c, 0, 62, 86
2, 220241, Note_off_c, 0, 67, 78
2, 220316, Note_off_c, 0, 62, 86
2, 220346, Note_on_c, 0, 71, 79
2, 220446, Note_on_c, 0, 67, 74
2, 220451, Note_off_c, 0, 71, 79
2, 220565, Note_on_c, 0, 71, 86
2, 220576, Note_off_c, 0, 67, 74
2, 220666, Note_on_c, 0, 67, 74
2, 220697, Note_off_c, 0, 71, 86
2, 220776, Note_off_c, 0, 67, 74
2, 220796, Note_on_c, 0, 74, 86
2, 220899, Note_off_c, 0, 74, 86
2, 221273, Note_on_c, 0, 81, 52
2, 221386, Note_on_c, 0, 79, 76
2, 221419, Note_off_c, 0, 81, 52
2, 221505, Note_on_c, 0, 78, 68
2, 221538, Note_off_c, 0, 79, 76
2, 221620, Note_on_c, 0, 76, 74
2, 221670, Note_off_c, 0, 78, 68
2, 221748, Note_off_c, 0, 76, 74
2, 221749, Note_on_c, 0, 74, 76
2, 221822, Note_off_c, 0, 74, 76
2, 222006, Note_on_c, 0, 74, 68
2, 222069, Note_off_c, 0, 74, 68
2, 222256, Note_on_c, 0, 76, 74
2, 222361, Note_on_c, 0, 74, 68
2, 222391, Note_off_c, 0, 76, 74
2, 222471, Note_on_c, 0, 72, 86
2, 222498, Note_off_c, 0, 74, 68
2, 222583, Note_on_c, 0, 71, 70
2, 222585, Note_off_c, 0, 72, 86
2, 222727, Note_on_c, 0, 69, 77
2, 222739, Note_off_c, 0, 71, 70
2, 222781, Note_off_c, 0, 69, 77
2, 222958, Note_on_c, 0, 69, 65
2, 223084, Note_off_c, 0, 69, 65
2, 223211, Note_on_c, 0, 74, 71
2, 223316, Note_on_c, 0, 72, 62
2, 223337, Note_off_c, 0, 74, 71
2, 223426, Note_on_c, 0, 71, 76
2, 223475, Note_off_c, 0, 72, 62
2, 223524, Note_off_c, 0, 71, 76
2, 223539, Note_on_c, 0, 69, 71
2, 223639, Note_off_c, 0, 69, 71
2, 223670, Note_on_c, 0, 67, 83
2, 223731, Note_off_c, 0, 67, 83
2, 224176, Note_on_c, 0, 71, 56
2, 224181, Note_on_c, 0, 62, 56
2, 224259, Note_off_c, 0, 62, 56
2, 224275, Note_off_c, 0, 71, 56
2, 224654, Note_on_c, 0, 67, 62
2, 224657, Note_on_c, 0, 59, 55
2, 224949, Note_off_c, 0, 67, 62
2, 224968, Note_off_c, 0, 59, 55
2, 225623, Note_on_c, 0, 74, 66
2, 226289, Note_on_c, 0, 75, 61
2, 226365, Note_off_c, 0, 74, 66
2, 226538, Note_on_c, 0, 76, 76
2, 226576, Note_off_c, 0, 75, 61
2, 226786, Note_on_c, 0, 78, 74
2, 226818, Note_off_c, 0, 76, 76
2, 227029, Note_on_c, 0, 79, 74
2, 227035, Note_off_c, 0, 78, 74
2, 227273, Note_off_c, 0, 79, 74
2, 227278, Note_on_c, 0, 71, 72
2, 227535, Note_on_c, 0, 74, 51
2, 227587, Note_off_c, 0, 71, 72
2, 227763, Note_on_c, 0, 72, 43
2, 227846, Note_off_c, 0, 74, 51
2, 227881, Note_off_c, 0, 72, 43
2, 228252, Note_on_c, 0, 71, 71
2, 228498, Note_on_c, 0, 72, 73
2, 228535, Note_off_c, 0, 71, 71
2, 228738, Note_on_c, 0, 74, 72
2, 228767, Note_off_c, 0, 72, 73
2, 228972, Note_on_c, 0, 76, 74
2, 229006, Note_off_c, 0, 74, 72
2, 229192, Note_on_c, 0, 68, 74
2, 229206, Note_off_c, 0, 76, 74
2, 229426, Note_off_c, 0, 68, 74
2, 229435, Note_on_c, 0, 71, 66
2, 229674, Note_on_c, 0, 69, 55
2, 229706, Note_off_c, 0, 71, 66
2, 229805, Note_off_c, 0, 69, 55
2, 230175, Note_on_c, 0, 68, 36
2, 230401, Note_off_c, 0, 68, 36
2, 230405, Note_on_c, 0, 69, 74
2, 230632, Note_on_c, 0, 71, 68
2, 230671, Note_off_c, 0, 69, 74
2, 230882, Note_on_c, 0, 72, 65
2, 230901, Note_off_c, 0, 71, 68
2, 231104, Note_off_c, 0, 72, 65
2, 231121, Note_on_c, 0, 66, 55
2, 231261, Note_off_c, 0, 66, 55
2, 231363, Note_on_c, 0, 69, 39
2, 231598, Note_off_c, 0, 69, 39
2, 231601, Note_on_c, 0, 67, 70
2, 231785, Note_off_c, 0, 67, 70
2, 231846, Note_on_c, 0, 76, 70
2, 232033, Note_off_c, 0, 76, 70
2, 232086, Note_on_c, 0, 66, 38
2, 232251, Note_off_c, 0, 66, 38
2, 232305, Note_on_c, 0, 69, 72
2, 232563, Note_off_c, 0, 69, 72
2, 232569, Note_on_c, 0, 67, 57
2, 232710, Note_off_c, 0, 67, 57
2, 232798, Note_on_c, 0, 76, 79
2, 233011, Note_off_c, 0, 76, 79
2, 233045, Note_on_c, 0, 66, 55
2, 233216, Note_off_c, 0, 66, 55
2, 233273, Note_on_c, 0, 69, 55
2, 233514, Note_off_c, 0, 69, 55
2, 233533, Note_on_c, 0, 67, 53
2, 233757, Note_on_c, 0, 75, 62
2, 233776, Note_off_c, 0, 67, 53
2, 233995, Note_off_c, 0, 75, 62
2, 234032, Note_on_c, 0, 66, 41
2, 234211, Note_off_c, 0, 66, 41
2, 234243, Note_on_c, 0, 69, 38
2, 234467, Note_off_c, 0, 69, 38
2, 234469, Note_on_c, 0, 67, 62
2, 234673, Note_off_c, 0, 67, 62
2, 234709, Note_on_c, 0, 75, 74
2, 234961, Note_on_c, 0, 66, 62
2, 234963, Note_off_c, 0, 75, 74
2, 235168, Note_off_c, 0, 66, 62
2, 235200, Note_on_c, 0, 67, 57
2, 235438, Note_off_c, 0, 67, 57
2, 235440, Note_on_c, 0, 69, 62
2, 235558, Note_off_c, 0, 69, 62
2, 235560, Note_on_c, 0, 71, 56
2, 235678, Note_off_c, 0, 71, 56
2, 235680, Note_on_c, 0, 72, 62
2, 235798, Note_off_c, 0, 72, 62
2, 235800, Note_on_c, 0, 74, 71
2, 235918, Note_off_c, 0, 74, 71
2, 235920, Note_on_c, 0, 76, 67
2, 236038, Note_off_c, 0, 76, 67
2, 236040, Note_on_c, 0, 78, 73
2, 236158, Note_off_c, 0, 78, 73
2, 236160, Note_on_c, 0, 79, 92
2, 236278, Note_off_c, 0, 79, 92
2, 236280, Note_on_c, 0, 81, 89
2, 236398, Note_off_c, 0, 81, 89
2, 236400, Note_on_c, 0, 83, 89
2, 236518, Note_off_c, 0, 83, 89
2, 236520, Note_on_c, 0, 78, 72
2, 236638, Note_off_c, 0, 78, 72
2, 236640, Note_on_c, 0, 79, 77
2, 236758, Note_off_c, 0, 79, 77
2, 236760, Note_on_c, 0, 74, 63
2, 236878, Note_off_c, 0, 74, 63
2, 236880, Note_on_c, 0, 76, 55
2, 236998, Note_off_c, 0, 76, 55
2, 237000, Note_on_c, 0, 71, 65
2, 237118, Note_off_c, 0, 71, 65
2, 237120, Note_on_c, 0, 50, 55
2, 237120, Note_on_c, 0, 74, 74
2, 237358, Note_off_c, 0, 50, 55
2, 237360, Note_on_c, 0, 59, 52
2, 237598, Note_off_c, 0, 59, 52
2, 237600, Note_on_c, 0, 55, 55
2, 237838, Note_off_c, 0, 55, 55
2, 237840, Note_on_c, 0, 59, 48
2, 238078, Note_off_c, 0, 74, 74
2, 238078, Note_off_c, 0, 59, 48
2, 238080, Note_on_c, 0, 72, 65
2, 238198, Note_off_c, 0, 72, 65
2, 238200, Note_on_c, 0, 74, 65
2, 238318, Note_off_c, 0, 74, 65
2, 238320, Note_on_c, 0, 72, 56
2, 238438, Note_off_c, 0, 72, 56
2, 238440, Note_on_c, 0, 74, 58
2, 238558, Note_off_c, 0, 74, 58
2, 238560, Note_on_c, 0, 72, 67
2, 238638, Note_off_c, 0, 72, 67
2, 238640, Note_on_c, 0, 74, 70
2, 238718, Note_off_c, 0, 74, 70
2, 238720, Note_on_c, 0, 72, 61
2, 238798, Note_off_c, 0, 72, 61
2, 238800, Note_on_c, 0, 71, 68
2, 238918, Note_off_c, 0, 71, 68
2, 238920, Note_on_c, 0, 72, 55
2, 239038, Note_off_c, 0, 72, 55
2, 239040, Note_on_c, 0, 71, 74
2, 239998, Note_off_c, 0, 71, 74
2, 240240, Note_on_c, 0, 69, 61
2, 240318, Note_off_c, 0, 69, 61
2, 240320, Note_on_c, 0, 67, 62
2, 240398, Note_off_c, 0, 67, 62
2, 240400, Note_on_c, 0, 66, 60
2, 240478, Note_off_c, 0, 66, 60
2, 240480, Note_on_c, 0, 67, 67
2, 240558, Note_off_c, 0, 67, 67
2, 240720, Note_on_c, 0, 71, 68
2, 240798, Note_off_c, 0, 71, 68
2, 240960, Note_on_c, 0, 76, 74
2, 241438, Note_off_c, 0, 76, 74
2, 241440, Note_on_c, 0, 74, 53
2, 241918, Note_off_c, 0, 74, 53
2, 242160, Note_on_c, 0, 72, 45
2, 242238, Note_off_c, 0, 72, 45
2, 242240, Note_on_c, 0, 71, 60
2, 242318, Note_off_c, 0, 71, 60
2, 242320, Note_on_c, 0, 69, 57
2, 242398, Note_off_c, 0, 69, 57
2, 242400, Note_on_c, 0, 71, 76
2, 242478, Note_off_c, 0, 71, 76
2, 242640, Note_on_c, 0, 74, 89
2, 242718, Note_off_c, 0, 74, 89
2, 242880, Note_on_c, 0, 79, 86
2, 243358, Note_off_c, 0, 79, 86
2, 243360, Note_on_c, 0, 77, 58
2, 243838, Note_off_c, 0, 77, 58
2, 244080, Note_on_c, 0, 76, 53
2, 244158, Note_off_c, 0, 76, 53
2, 244160, Note_on_c, 0, 74, 66
2, 244238, Note_off_c, 0, 74, 66
2, 244240, Note_on_c, 0, 73, 61
2, 244318, Note_off_c, 0, 73, 61
2, 244320, Note_on_c, 0, 74, 94
2, 244398, Note_off_c, 0, 74, 94
2, 244560, Note_on_c, 0, 77, 83
2, 244638, Note_off_c, 0, 77, 83
2, 244800, Note_on_c, 0, 84, 76
2, 245038, Note_off_c, 0, 84, 76
2, 245040, Note_on_c, 0, 83, 81
2, 245518, Note_off_c, 0, 83, 81
2, 245520, Note_on_c, 0, 86, 89
2, 245998, Note_off_c, 0, 86, 89
2, 246000, Note_on_c, 0, 80, 74
2, 246478, Note_off_c, 0, 80, 74
2, 246480, Note_on_c, 0, 83, 71
2, 246958, Note_off_c, 0, 83, 71
2, 246960, Note_on_c, 0, 74, 53
2, 247438, Note_off_c, 0, 74, 53
2, 247440, Note_on_c, 0, 77, 56
2, 247918, Note_off_c, 0, 77, 56
2, 247920, Note_on_c, 0, 76, 73
2, 248398, Note_off_c, 0, 76, 73
2, 248400, Note_on_c, 0, 74, 65
2, 248638, Note_off_c, 0, 74, 65
2, 248640, Note_on_c, 0, 72, 65
2, 249118, Note_off_c, 0, 72, 65
2, 249840, Note_on_c, 0, 74, 67
2, 249918, Note_off_c, 0, 74, 67
2, 249920, Note_on_c, 0, 72, 50
2, 249998, Note_off_c, 0, 72, 50
2, 250000, Note_on_c, 0, 71, 50
2, 250078, Note_off_c, 0, 71, 50
2, 250080, Note_on_c, 0, 72, 67
2, 250318, Note_off_c, 0, 72, 67
2, 250320, Note_on_c, 0, 74, 68
2, 250558, Note_off_c, 0, 74, 68
2, 250560, Note_on_c, 0, 72, 70
2, 251518, Note_off_c, 0, 72, 70
2, 251520, Note_on_c, 0, 70, 57
2, 251598, Note_off_c, 0, 70, 57
2, 251600, Note_on_c, 0, 72, 65
2, 251678, Note_off_c, 0, 72, 65
2, 251680, Note_on_c, 0, 70, 60
2, 251758, Note_off_c, 0, 70, 60
2, 251760, Note_on_c, 0, 72, 73
2, 251838, Note_off_c, 0, 72, 73
2, 251840, Note_on_c, 0, 70, 65
2, 251918, Note_off_c, 0, 70, 65
2, 251920, Note_on_c, 0, 72, 78
2, 251998, Note_off_c, 0, 72, 78
2, 252000, Note_on_c, 0, 70, 73
2, 252078, Note_off_c, 0, 70, 73
2, 252080, Note_on_c, 0, 72, 81
2, 252158, Note_off_c, 0, 72, 81
2, 252160, Note_on_c, 0, 70, 70
2, 252238, Note_off_c, 0, 70, 70
2, 252240, Note_on_c, 0, 69, 56
2, 252358, Note_off_c, 0, 69, 56
2, 252360, Note_on_c, 0, 70, 63
2, 252478, Note_off_c, 0, 70, 63
2, 252480, Note_on_c, 0, 69, 62
2, 252718, Note_off_c, 0, 69, 62
2, 252720, Note_on_c, 0, 72, 73
2, 253198, Note_off_c, 0, 72, 73
2, 253200, Note_on_c, 0, 77, 77
2, 253678, Note_off_c, 0, 77, 77
2, 253680, Note_on_c, 0, 81, 83
2, 254158, Note_off_c, 0, 81, 83
2, 254160, Note_on_c, 0, 82, 74
2, 254398, Note_off_c, 0, 82, 74
2, 254400, Note_on_c, 0, 81, 83
2, 255358, Note_off_c, 0, 81, 83
2, 255360, Note_on_c, 0, 79, 63
2, 256318, Note_off_c, 0, 79, 63
2, 256320, Note_on_c, 0, 79, 72
2, 257038, Note_off_c, 0, 79, 72
2, 257040, Note_on_c, 0, 78, 74
2, 257278, Note_off_c, 0, 78, 74
2, 257280, Note_on_c, 0, 77, 78
2, 258238, Note_off_c, 0, 77, 78
2, 258240, Note_on_c, 0, 77, 56
2, 258958, Note_off_c, 0, 77, 56
2, 258960, Note_on_c, 0, 76, 61
2, 259198, Note_off_c, 0, 76, 61
2, 259200, Note_on_c, 0, 75, 55
2, 260158, Note_off_c, 0, 75, 55
2, 260160, Note_on_c, 0, 75, 62
2, 260398, Note_off_c, 0, 75, 62
2, 260400, Note_on_c, 0, 74, 56
2, 260638, Note_off_c, 0, 74, 56
2, 260640, Note_on_c, 0, 74, 67
2, 260758, Note_off_c, 0, 74, 67
2, 260880, Note_on_c, 0, 74, 70
2, 260998, Note_off_c, 0, 74, 70
2, 261120, Note_on_c, 0, 74, 76
2, 261598, Note_off_c, 0, 74, 76
2, 261600, Note_on_c, 0, 74, 72
2, 262078, Note_off_c, 0, 74, 72
2, 262080, Note_on_c, 0, 74, 74
2, 262478, Note_off_c, 0, 74, 74
2, 262480, Note_on_c, 0, 77, 68
2, 262558, Note_off_c, 0, 77, 68
2, 262560, Note_on_c, 0, 75, 74
2, 263518, Note_off_c, 0, 75, 74
2, 263520, Note_on_c, 0, 74, 74
2, 263758, Note_off_c, 0, 74, 74
2, 263760, Note_on_c, 0, 72, 72
2, 263998, Note_off_c, 0, 72, 72
2, 264000, Note_on_c, 0, 71, 72
2, 264238, Note_off_c, 0, 71, 72
2, 264240, Note_on_c, 0, 79, 74
2, 264478, Note_off_c, 0, 79, 74
2, 264720, Note_on_c, 0, 79, 68
2, 264958, Note_off_c, 0, 79, 68
2, 265200, Note_on_c, 0, 78, 66
2, 265438, Note_off_c, 0, 78, 66
2, 265680, Note_on_c, 0, 77, 70
2, 265918, Note_off_c, 0, 77, 70
2, 265920, Note_on_c, 0, 77, 66
2, 266158, Note_off_c, 0, 77, 66
2, 266160, Note_on_c, 0, 76, 65
2, 266398, Note_off_c, 0, 76, 65
2, 266640, Note_on_c, 0, 75, 66
2, 266878, Note_off_c, 0, 75, 66
2, 267120, Note_on_c, 0, 74, 74
2, 267358, Note_off_c, 0, 74, 74
2, 267600, Note_on_c, 0, 72, 71
2, 267838, Note_off_c, 0, 72, 71
2, 267840, Note_on_c, 0, 72, 65
2, 268078, Note_off_c, 0, 72, 65
2, 268080, Note_on_c, 0, 71, 71
2, 268318, Note_off_c, 0, 71, 71
2, 268440, Note_on_c, 0, 79, 72
2, 268558, Note_off_c, 0, 79, 72
2, 268560, Note_on_c, 0, 81, 77
2, 268678, Note_off_c, 0, 81, 77
2, 268680, Note_on_c, 0, 79, 58
2, 268798, Note_off_c, 0, 79, 58
2, 268920, Note_on_c, 0, 78, 68
2, 269038, Note_off_c, 0, 78, 68
2, 269040, Note_on_c, 0, 79, 76
2, 269158, Note_off_c, 0, 79, 76
2, 269160, Note_on_c, 0, 78, 66
2, 269278, Note_off_c, 0, 78, 66
2, 269400, Note_on_c, 0, 77, 77
2, 269518, Note_off_c, 0, 77, 77
2, 269520, Note_on_c, 0, 79, 79
2, 269638, Note_off_c, 0, 79, 79
2, 269640, Note_on_c, 0, 77, 78
2, 269758, Note_off_c, 0, 77, 78
2, 269880, Note_on_c, 0, 76, 76
2, 269998, Note_off_c, 0, 76, 76
2, 270000, Note_on_c, 0, 77, 79
2, 270118, Note_off_c, 0, 77, 79
2, 270120, Note_on_c, 0, 76, 89
2, 270238, Note_off_c, 0, 76, 89
2, 270360, Note_on_c, 0, 75, 74
2, 270478, Note_off_c, 0, 75, 74
2, 270480, Note_on_c, 0, 77, 79
2, 270598, Note_off_c, 0, 77, 79
2, 270600, Note_on_c, 0, 75, 74
2, 270718, Note_off_c, 0, 75, 74
2, 270840, Note_on_c, 0, 74, 76
2, 270958, Note_off_c, 0, 74, 76
2, 270960, Note_on_c, 0, 75, 74
2, 271078, Note_off_c, 0, 75, 74
2, 271080, Note_on_c, 0, 74, 66
2, 271198, Note_off_c, 0, 74, 66
2, 271320, Note_on_c, 0, 72, 72
2, 271438, Note_off_c, 0, 72, 72
2, 271440, Note_on_c, 0, 74, 76
2, 271558, Note_off_c, 0, 74, 76
2, 271560, Note_on_c, 0, 72, 74
2, 271678, Note_off_c, 0, 72, 74
2, 271680, Note_on_c, 0, 71, 67
2, 271918, Note_off_c, 0, 71, 67
2, 271920, Note_on_c, 0, 72, 72
2, 271998, Note_off_c, 0, 72, 72
2, 272000, Note_on_c, 0, 71, 47
2, 272078, Note_off_c, 0, 71, 47
2, 272080, Note_on_c, 0, 69, 52
2, 272158, Note_off_c, 0, 69, 52
2, 272160, Note_on_c, 0, 71, 72
2, 272238, Note_off_c, 0, 71, 72
2, 272400, Note_on_c, 0, 72, 70
2, 272478, Note_off_c, 0, 72, 70
2, 272640, Note_on_c, 0, 74, 73
2, 272878, Note_off_c, 0, 74, 73
2, 272880, Note_on_c, 0, 76, 74
2, 272958, Note_off_c, 0, 76, 74
2, 272960, Note_on_c, 0, 74, 67
2, 273038, Note_off_c, 0, 74, 67
2, 273040, Note_on_c, 0, 73, 57
2, 273118, Note_off_c, 0, 73, 57
2, 273120, Note_on_c, 0, 74, 77
2, 273198, Note_off_c, 0, 74, 77
2, 273360, Note_on_c, 0, 76, 76
2, 273438, Note_off_c, 0, 76, 76
2, 273600, Note_on_c, 0, 77, 70
2, 274078, Note_off_c, 0, 77, 70
2, 274200, Note_on_c, 0, 79, 58
2, 274318, Note_off_c, 0, 79, 58
2, 274320, Note_on_c, 0, 76, 63
2, 274438, Note_off_c, 0, 76, 63
2, 274440, Note_on_c, 0, 79, 65
2, 274558, Note_off_c, 0, 79, 65
2, 274560, Note_on_c, 0, 77, 63
2, 275038, Note_off_c, 0, 77, 63
2, 275160, Note_on_c, 0, 79, 58
2, 275278, Note_off_c, 0, 79, 58
2, 275280, Note_on_c, 0, 76, 48
2, 275398, Note_off_c, 0, 76, 48
2, 275400, Note_on_c, 0, 79, 55
2, 275518, Note_off_c, 0, 79, 55
2, 275520, Note_on_c, 0, 77, 68
2, 275998, Note_off_c, 0, 77, 68
2, 276120, Note_on_c, 0, 79, 55
2, 276238, Note_off_c, 0, 79, 55
2, 276240, Note_on_c, 0, 76, 55
2, 276358, Note_off_c, 0, 76, 55
2, 276360, Note_on_c, 0, 79, 51
2, 276478, Note_off_c, 0, 79, 51
2, 276480, Note_on_c, 0, 77, 68
2, 276598, Note_off_c, 0, 77, 68
2, 276600, Note_on_c, 0, 79, 66
2, 276718, Note_off_c, 0, 79, 66
2, 276720, Note_on_c, 0, 76, 74
2, 276838, Note_off_c, 0, 76, 74
2, 276840, Note_on_c, 0, 79, 76
2, 276958, Note_off_c, 0, 79, 76
2, 276960, Note_on_c, 0, 77, 78
2, 277078, Note_off_c, 0, 77, 78
2, 277080, Note_on_c, 0, 79, 81
2, 277198, Note_off_c, 0, 79, 81
2, 277200, Note_on_c, 0, 76, 72
2, 277318, Note_off_c, 0, 76, 72
2, 277320, Note_on_c, 0, 79, 81
2, 277438, Note_off_c, 0, 79, 81
2, 277440, Note_on_c, 0, 77, 71
2, 277558, Note_off_c, 0, 77, 71
2, 277680, Note_on_c, 0, 76, 65
2, 277798, Note_off_c, 0, 76, 65
2, 277920, Note_on_c, 0, 74, 67
2, 278038, Note_off_c, 0, 74, 67
2, 278160, Note_on_c, 0, 72, 36
2, 278278, Note_off_c, 0, 72, 36
2, 278400, Note_on_c, 0, 71, 68
2, 278518, Note_off_c, 0, 71, 68
2, 278640, Note_on_c, 0, 72, 73
2, 278758, Note_off_c, 0, 72, 73
2, 278880, Note_on_c, 0, 74, 78
2, 278998, Note_off_c, 0, 74, 78
2, 279120, Note_on_c, 0, 76, 77
2, 279238, Note_off_c, 0, 76, 77
2, 279360, Note_on_c, 0, 77, 72
2, 279478, Note_off_c, 0, 77, 72
2, 279600, Note_on_c, 0, 76, 66
2, 279718, Note_off_c, 0, 76, 66
2, 279840, Note_on_c, 0, 74, 66
2, 279958, Note_off_c, 0, 74, 66
2, 280080, Note_on_c, 0, 76, 72
2, 280198, Note_off_c, 0, 76, 72
2, 280320, Note_on_c, 0, 77, 79
2, 280438, Note_off_c, 0, 77, 79
2, 280560, Note_on_c, 0, 76, 79
2, 280678, Note_off_c, 0, 76, 79
2, 280800, Note_on_c, 0, 77, 78
2, 280918, Note_off_c, 0, 77, 78
2, 281040, Note_on_c, 0, 78, 94
2, 281158, Note_off_c, 0, 78, 94
2, 281280, Note_on_c, 0, 79, 86
2, 281462, Note_off_c, 0, 79, 86
2, 281751, Note_on_c, 0, 79, 84
2, 282494, Note_on_c, 0, 77, 78
2, 282568, Note_off_c, 0, 79, 84
2, 282605, Note_on_c, 0, 76, 104
2, 282643, Note_off_c, 0, 77, 78
2, 282659, Note_off_c, 0, 76, 104
2, 282729, Note_on_c, 0, 76, 88
2, 282822, Note_on_c, 0, 74, 87
2, 282832, Note_off_c, 0, 76, 88
2, 282938, Note_on_c, 0, 72, 93
2, 283027, Note_off_c, 0, 74, 87
2, 283055, Note_on_c, 0, 71, 73
2, 283060, Note_off_c, 0, 72, 93
2, 283164, Note_on_c, 0, 72, 89
2, 283193, Note_off_c, 0, 71, 73
2, 283252, Note_on_c, 0, 74, 75
2, 283255, Note_off_c, 0, 72, 89
2, 283333, Note_on_c, 0, 72, 84
2, 283356, Note_off_c, 0, 74, 75
2, 283435, Note_on_c, 0, 74, 63
2, 283452, Note_off_c, 0, 72, 84
2, 283518, Note_on_c, 0, 72, 88
2, 283565, Note_off_c, 0, 74, 63
2, 283590, Note_on_c, 0, 74, 62
2, 283615, Note_off_c, 0, 72, 88
2, 283673, Note_on_c, 0, 72, 82
2, 283750, Note_on_c, 0, 71, 78
2, 283755, Note_off_c, 0, 74, 62
2, 283759, Note_off_c, 0, 72, 82
2, 283820, Note_on_c, 0, 72, 84
2, 283903, Note_off_c, 0, 71, 78
2, 283907, Note_on_c, 0, 74, 75
2, 283993, Note_off_c, 0, 72, 84
2, 284011, Note_on_c, 0, 76, 86
2, 284108, Note_off_c, 0, 74, 75
2, 284121, Note_off_c, 0, 76, 86
2, 284126, Note_on_c, 0, 67, 88
2, 284715, Note_off_c, 0, 67, 88
2, 285111, Note_on_c, 0, 79, 73
2, 285156, Note_off_c, 0, 79, 73
2, 285350, Note_on_c, 0, 79, 76
2, 285398, Note_off_c, 0, 79, 76
2, 285598, Note_on_c, 0, 79, 99
2, 286330, Note_on_c, 0, 77, 68
2, 286414, Note_off_c, 0, 79, 99
2, 286440, Note_on_c, 0, 76, 82
2, 286485, Note_off_c, 0, 77, 68
2, 286492, Note_off_c, 0, 76, 82
2, 286568, Note_on_c, 0, 76, 82
2, 286674, Note_on_c, 0, 74, 76
2, 286691, Note_off_c, 0, 76, 82
2, 286786, Note_on_c, 0, 72, 88
2, 286865, Note_off_c, 0, 74, 76
2, 286890, Note_on_c, 0, 71, 77
2, 286900, Note_off_c, 0, 72, 88
2, 286995, Note_on_c, 0, 72, 82
2, 287032, Note_off_c, 0, 71, 77
2, 287086, Note_on_c, 0, 74, 66
2, 287090, Note_off_c, 0, 72, 82
2, 287168, Note_on_c, 0, 72, 72
2, 287200, Note_off_c, 0, 74, 66
2, 287270, Note_on_c, 0, 74, 71
2, 287302, Note_off_c, 0, 72, 72
2, 287360, Note_on_c, 0, 72, 84
2, 287380, Note_off_c, 0, 74, 71
2, 287438, Note_on_c, 0, 74, 70
2, 287444, Note_off_c, 0, 72, 84
2, 287517, Note_on_c, 0, 72, 84
2, 287567, Note_on_c, 0, 71, 72
2, 287578, Note_off_c, 0, 74, 70
2, 287580, Note_off_c, 0, 72, 84
2, 287643, Note_on_c, 0, 72, 82
2, 287699, Note_off_c, 0, 71, 72
2, 287728, Note_on_c, 0, 74, 81
2, 287791, Note_off_c, 0, 72, 82
2, 287840, Note_on_c, 0, 76, 82
2, 287894, Note_off_c, 0, 74, 81
2, 287963, Note_off_c, 0, 76, 82
2, 287983, Note_on_c, 0, 67, 84
2, 288540, Note_off_c, 0, 67, 84
2, 288935, Note_on_c, 0, 69, 86
2, 288992, Note_off_c, 0, 69, 86
2, 289170, Note_on_c, 0, 72, 81
2, 289237, Note_off_c, 0, 72, 81
2, 289406, Note_on_c, 0, 77, 78
2, 289446, Note_off_c, 0, 77, 78
2, 289661, Note_on_c, 0, 81, 81
2, 289697, Note_off_c, 0, 81, 81
2, 289920, Note_on_c, 0, 84, 74
2, 290038, Note_off_c, 0, 84, 74
2, 290160, Note_on_c, 0, 89, 63
2, 290278, Note_off_c, 0, 89, 63
2, 290890, Note_on_c, 0, 67, 76
2, 290935, Note_off_c, 0, 67, 76
2, 291122, Note_on_c, 0, 72, 77
2, 291178, Note_off_c, 0, 72, 77
2, 291372, Note_on_c, 0, 76, 76
2, 291399, Note_off_c, 0, 76, 76
2, 291589, Note_on_c, 0, 79, 78
2, 291644, Note_off_c, 0, 79, 78
2, 291840, Note_on_c, 0, 84, 65
2, 291958, Note_off_c, 0, 84, 65
2, 292080, Note_on_c, 0, 88, 78
2, 292198, Note_off_c, 0, 88, 78
2, 292770, Note_on_c, 0, 67, 84
2, 292833, Note_off_c, 0, 67, 84
2, 292845, Note_on_c, 0, 79, 93
2, 294165, Note_off_c, 0, 79, 93
2, 294227, Note_on_c, 0, 77, 70
2, 294281, Note_on_c, 0, 79, 81
2, 294298, Note_off_c, 0, 77, 70
2, 294362, Note_on_c, 0, 77, 80
2, 294423, Note_off_c, 0, 79, 81
2, 294425, Note_on_c, 0, 76, 81
2, 294438, Note_off_c, 0, 77, 80
2, 294508, Note_off_c, 0, 76, 81
2, 294549, Note_on_c, 0, 77, 75
2, 294714, Note_on_c, 0, 75, 88
2, 294746, Note_off_c, 0, 77, 75
2, 295230, Note_on_c, 0, 76, 58
2, 295247, Note_off_c, 0, 75, 88
2, 295926, Note_off_c, 0, 76, 58
2, 296631, Note_on_c, 0, 69, 80
2, 296760, Note_on_c, 0, 72, 66
2, 296805, Note_off_c, 0, 69, 80
2, 296878, Note_off_c, 0, 72, 66
2, 296890, Note_on_c, 0, 74, 73
2, 296999, Note_on_c, 0, 76, 82
2, 297012, Note_off_c, 0, 74, 73
2, 297073, Note_off_c, 0, 76, 82
2, 297113, Note_on_c, 0, 77, 80
2, 297202, Note_off_c, 0, 77, 80
2, 297222, Note_on_c, 0, 79, 84
2, 297333, Note_off_c, 0, 79, 84
2, 297348, Note_on_c, 0, 81, 78
2, 297440, Note_on_c, 0, 83, 77
2, 297473, Note_off_c, 0, 81, 78
2, 297548, Note_off_c, 0, 83, 77
2, 297588, Note_on_c, 0, 84, 87
2, 298090, Note_off_c, 0, 84, 87
2, 298568, Note_on_c, 0, 67, 75
2, 298675, Note_off_c, 0, 67, 75
2, 298680, Note_on_c, 0, 72, 67
2, 298798, Note_off_c, 0, 72, 67
2, 298804, Note_on_c, 0, 74, 73
2, 298909, Note_off_c, 0, 74, 73
2, 298915, Note_on_c, 0, 76, 78
2, 298990, Note_off_c, 0, 76, 78
2, 299047, Note_on_c, 0, 77, 78
2, 299140, Note_off_c, 0, 77, 78
2, 299162, Note_on_c, 0, 79, 84
2, 299275, Note_on_c, 0, 81, 86
2, 299282, Note_off_c, 0, 79, 84
2, 299390, Note_on_c, 0, 83, 78
2, 299409, Note_off_c, 0, 81, 86
2, 299470, Note_off_c, 0, 83, 78
2, 299520, Note_on_c, 0, 84, 104
2, 300135, Note_off_c, 0, 84, 104
2, 300471, Note_on_c, 0, 81, 99
2, 300713, Note_on_c, 0, 79, 82
2, 300733, Note_off_c, 0, 81, 99
2, 300766, Note_off_c, 0, 79, 82
2, 300951, Note_on_c, 0, 77, 99
2, 300985, Note_off_c, 0, 77, 99
2, 301189, Note_on_c, 0, 76, 84
2, 301235, Note_off_c, 0, 76, 84
2, 301441, Note_on_c, 0, 76, 91
2, 301675, Note_on_c, 0, 74, 84
2, 301696, Note_off_c, 0, 76, 91
2, 301737, Note_off_c, 0, 74, 84
2, 301930, Note_on_c, 0, 72, 104
2, 301980, Note_off_c, 0, 72, 104
2, 302177, Note_on_c, 0, 71, 81
2, 302232, Note_off_c, 0, 71, 81
2, 302400, Note_on_c, 0, 72, 75
2, 302508, Note_off_c, 0, 72, 75
2, 302520, Note_on_c, 0, 67, 70
2, 302640, Note_on_c, 0, 69, 87
2, 302651, Note_off_c, 0, 67, 70
2, 302760, Note_on_c, 0, 71, 84
2, 302767, Note_off_c, 0, 69, 87
2, 302839, Note_off_c, 0, 71, 84
2, 302880, Note_on_c, 0, 72, 75
2, 303000, Note_on_c, 0, 74, 107
2, 303030, Note_off_c, 0, 72, 75
2, 303120, Note_on_c, 0, 76, 91
2, 303130, Note_off_c, 0, 74, 107
2, 303204, Note_off_c, 0, 76, 91
2, 303240, Note_on_c, 0, 77, 84
2, 303360, Note_on_c, 0, 79, 104
2, 303411, Note_off_c, 0, 77, 84
2, 303480, Note_on_c, 0, 81, 86
2, 303511, Note_off_c, 0, 79, 104
2, 303600, Note_on_c, 0, 83, 89
2, 303661, Note_off_c, 0, 81, 86
2, 303691, Note_off_c, 0, 83, 89
2, 303720, Note_on_c, 0, 84, 84
2, 303797, Note_off_c, 0, 84, 84
2, 303840, Note_on_c, 0, 79, 104
2, 303894, Note_off_c, 0, 79, 104
2, 304080, Note_on_c, 0, 79, 88
2, 304118, Note_off_c, 0, 79, 88
2, 304485, Note_on_c, 0, 79, 68
2, 304595, Note_on_c, 0, 81, 46
2, 304601, Note_off_c, 0, 79, 68
2, 304718, Note_on_c, 0, 79, 53
2, 304769, Note_off_c, 0, 81, 46
2, 304780, Note_off_c, 0, 79, 53
2, 304955, Note_on_c, 0, 77, 78
2, 305078, Note_on_c, 0, 79, 72
2, 305118, Note_off_c, 0, 77, 78
2, 305188, Note_off_c, 0, 79, 72
2, 305198, Note_on_c, 0, 77, 51
2, 305247, Note_off_c, 0, 77, 51
2, 305448, Note_on_c, 0, 76, 75
2, 305565, Note_on_c, 0, 77, 62
2, 305586, Note_off_c, 0, 76, 75
2, 305695, Note_on_c, 0, 76, 62
2, 305705, Note_off_c, 0, 77, 62
2, 305753, Note_off_c, 0, 76, 62
2, 305920, Note_on_c, 0, 74, 78
2, 306037, Note_off_c, 0, 74, 78
2, 306042, Note_on_c, 0, 76, 56
2, 306123, Note_on_c, 0, 74, 75
2, 306160, Note_off_c, 0, 76, 56
2, 306165, Note_off_c, 0, 74, 75
2, 306257, Note_on_c, 0, 72, 73
2, 306368, Note_on_c, 0, 67, 82
2, 306405, Note_off_c, 0, 72, 73
2, 306478, Note_on_c, 0, 69, 91
2, 306520, Note_off_c, 0, 67, 82
2, 306594, Note_on_c, 0, 71, 81
2, 306625, Note_off_c, 0, 69, 91
2, 306680, Note_off_c, 0, 71, 81
2, 306712, Note_on_c, 0, 72, 72
2, 306835, Note_on_c, 0, 74, 93
2, 306936, Note_off_c, 0, 72, 72
2, 306945, Note_on_c, 0, 76, 78
2, 306989, Note_off_c, 0, 74, 93
2, 307032, Note_off_c, 0, 76, 78
2, 307055, Note_on_c, 0, 77, 80
2, 307179, Note_on_c, 0, 79, 104
2, 307217, Note_off_c, 0, 77, 80
2, 307287, Note_on_c, 0, 81, 88
2, 307325, Note_off_c, 0, 79, 104
2, 307415, Note_on_c, 0, 83, 93
2, 307447, Note_off_c, 0, 81, 88
2, 307505, Note_off_c, 0, 83, 93
2, 307543, Note_on_c, 0, 84, 77
2, 307619, Note_off_c, 0, 84, 77
2, 307677, Note_on_c, 0, 79, 102
2, 307725, Note_off_c, 0, 79, 102
2, 307928, Note_on_c, 0, 79, 87
2, 307965, Note_off_c, 0, 79, 87
2, 308308, Note_on_c, 0, 79, 65
2, 308435, Note_off_c, 0, 79, 65
2, 308437, Note_on_c, 0, 81, 39
2, 308542, Note_on_c, 0, 79, 66
2, 308573, Note_off_c, 0, 81, 39
2, 308587, Note_off_c, 0, 79, 66
2, 308783, Note_on_c, 0, 77, 75
2, 308897, Note_on_c, 0, 79, 61
2, 308907, Note_off_c, 0, 77, 75
2, 309016, Note_on_c, 0, 77, 58
2, 309053, Note_off_c, 0, 79, 61
2, 309082, Note_off_c, 0, 77, 58
2, 309280, Note_on_c, 0, 76, 73
2, 309388, Note_on_c, 0, 77, 62
2, 309410, Note_off_c, 0, 76, 73
2, 309522, Note_on_c, 0, 76, 68
2, 309579, Note_off_c, 0, 77, 62
2, 309595, Note_off_c, 0, 76, 68
2, 309745, Note_on_c, 0, 74, 67
2, 309855, Note_on_c, 0, 76, 68
2, 309867, Note_off_c, 0, 74, 67
2, 309955, Note_on_c, 0, 74, 82
2, 310060, Note_off_c, 0, 76, 68
2, 310073, Note_off_c, 0, 74, 82
2, 310080, Note_on_c, 0, 72, 76
2, 310198, Note_off_c, 0, 72, 76
2, 310320, Note_on_c, 0, 72, 68
2, 310338, Channel_aftertouch_c, 0, 1
2, 310342, Channel_aftertouch_c, 0, 9
2, 310346, Channel_aftertouch_c, 0, 19
2, 310350, Channel_aftertouch_c, 0, 25
2, 310360, Channel_aftertouch_c, 0, 20
2, 310365, Channel_aftertouch_c, 0, 6
2, 310369, Channel_aftertouch_c, 0, 1
2, 310373, Channel_aftertouch_c, 0, 0
2, 310798, Note_off_c, 0, 72, 68
2, 310800, Note_on_c, 0, 74, 93
2, 310918, Note_off_c, 0, 74, 93
2, 310920, Note_on_c, 0, 76, 94
2, 311038, Note_off_c, 0, 76, 94
2, 311045, Note_on_c, 0, 77, 100
2, 311090, Note_off_c, 0, 77, 100
2, 311301, Note_on_c, 0, 77, 116
2, 311776, Note_on_c, 0, 79, 86
2, 311822, Note_off_c, 0, 77, 116
2, 311895, Note_on_c, 0, 81, 82
2, 311908, Note_off_c, 0, 79, 86
2, 312034, Note_on_c, 0, 79, 107
2, 312066, Note_off_c, 0, 81, 82
2, 312265, Note_on_c, 0, 76, 83
2, 312277, Note_off_c, 0, 79, 107
2, 312475, Note_off_c, 0, 76, 83
2, 312493, Note_on_c, 0, 84, 60
2, 312513, Note_off_c, 0, 84, 60
2, 312745, Note_on_c, 0, 84, 78
2, 312788, Note_off_c, 0, 84, 78
2, 312973, Note_on_c, 0, 86, 99
2, 313103, Note_on_c, 0, 84, 91
2, 313133, Note_off_c, 0, 86, 99
2, 313225, Note_on_c, 0, 83, 102
2, 313274, Note_off_c, 0, 84, 91
2, 313345, Note_off_c, 0, 83, 102
2, 313349, Note_on_c, 0, 81, 87
2, 313402, Note_off_c, 0, 81, 87
2, 313478, Note_on_c, 0, 81, 88
2, 313592, Note_on_c, 0, 79, 86
2, 313622, Note_off_c, 0, 81, 88
2, 313711, Note_on_c, 0, 77, 102
2, 313746, Note_off_c, 0, 79, 86
2, 313817, Note_on_c, 0, 76, 80
2, 313829, Note_off_c, 0, 77, 102
2, 313920, Note_on_c, 0, 79, 84
2, 313960, Note_off_c, 0, 76, 80
2, 314614, Note_off_c, 0, 79, 84
2, 314640, Note_on_c, 0, 76, 77
2, 314864, Note_on_c, 0, 74, 63
2, 314880, Note_off_c, 0, 76, 77
2, 315324, Note_off_c, 0, 74, 63
2, 315793, Note_on_c, 0, 73, 75
2, 315848, Note_on_c, 0, 74, 83
2, 315882, Note_off_c, 0, 73, 75
2, 316350, Note_on_c, 0, 72, 75
2, 316418, Note_off_c, 0, 74, 83
2, 316443, Note_on_c, 0, 71, 87
2, 316500, Note_off_c, 0, 72, 75
2, 316546, Note_on_c, 0, 69, 86
2, 316549, Note_off_c, 0, 71, 87
2, 316656, Note_on_c, 0, 67, 91
2, 316678, Note_off_c, 0, 69, 86
2, 316720, Note_off_c, 0, 67, 91
2, 316795, Note_on_c, 0, 73, 99
2, 317014, Note_off_c, 0, 73, 99
2, 317021, Note_on_c, 0, 74, 87
2, 317283, Note_on_c, 0, 72, 82
2, 317316, Note_off_c, 0, 74, 87
2, 317394, Note_on_c, 0, 71, 99
2, 317448, Note_off_c, 0, 72, 82
2, 317503, Note_on_c, 0, 69, 76
2, 317507, Note_off_c, 0, 71, 99
2, 317618, Note_on_c, 0, 67, 96
2, 317638, Note_off_c, 0, 69, 76
2, 317664, Note_off_c, 0, 67, 96
2, 317760, Note_on_c, 0, 75, 104
2, 317995, Note_on_c, 0, 76, 80
2, 318003, Note_off_c, 0, 75, 104
2, 318040, Note_off_c, 0, 76, 80
2, 318250, Note_on_c, 0, 76, 73
2, 318285, Note_off_c, 0, 76, 73
2, 318495, Note_on_c, 0, 76, 81
2, 318534, Note_off_c, 0, 76, 81
2, 318745, Note_on_c, 0, 76, 80
2, 319233, Note_off_c, 0, 76, 80
2, 319629, Note_on_c, 0, 69, 85
2, 319680, Note_off_c, 0, 69, 85
2, 319702, Note_on_c, 0, 81, 100
2, 320438, Note_on_c, 0, 79, 94
2, 320494, Note_off_c, 0, 81, 100
2, 320502, Note_on_c, 0, 78, 79
2, 320545, Note_off_c, 0, 79, 94
2, 320560, Note_on_c, 0, 76, 88
2, 320633, Note_off_c, 0, 78, 79
2, 320638, Note_on_c, 0, 74, 105
2, 320644, Note_off_c, 0, 76, 88
2, 320869, Note_off_c, 0, 74, 105
2, 320906, Note_on_c, 0, 86, 77
2, 320928, Note_off_c, 0, 86, 77
2, 321145, Note_on_c, 0, 86, 95
2, 321185, Note_off_c, 0, 86, 95
2, 321373, Note_on_c, 0, 86, 111
2, 321414, Note_off_c, 0, 86, 111
2, 321600, Note_on_c, 0, 86, 94
2, 322198, Note_off_c, 0, 86, 94
2, 322200, Note_on_c, 0, 83, 72
2, 322318, Note_off_c, 0, 83, 72
2, 322320, Note_on_c, 0, 86, 74
2, 322438, Note_off_c, 0, 86, 74
2, 322440, Note_on_c, 0, 83, 65
2, 322558, Note_off_c, 0, 83, 65
2, 322560, Note_on_c, 0, 79, 77
2, 322702, Note_off_c, 0, 79, 77
2, 322800, Note_on_c, 0, 74, 78
2, 322800, Note_on_c, 0, 71, 77
2, 323038, Note_off_c, 0, 74, 78
2, 323038, Note_off_c, 0, 71, 77
2, 323040, Note_on_c, 0, 72, 73
2, 323040, Note_on_c, 0, 76, 78
2, 323278, Note_off_c, 0, 72, 73
2, 323278, Note_off_c, 0, 76, 78
2, 323280, Note_on_c, 0, 77, 77
2, 323280, Note_on_c, 0, 74, 77
2, 323518, Note_off_c, 0, 77, 77
2, 323518, Note_off_c, 0, 74, 77
2, 323520, Note_on_c, 0, 78, 82
2, 323758, Note_off_c, 0, 78, 82
2, 323760, Note_on_c, 0, 79, 83
2, 323998, Note_off_c, 0, 79, 83
2, 324000, Note_on_c, 0, 77, 80
2, 324118, Note_off_c, 0, 77, 80
2, 324120, Note_on_c, 0, 76, 78
2, 324238, Note_off_c, 0, 76, 78
2, 324240, Note_on_c, 0, 74, 71
2, 324358, Note_off_c, 0, 74, 71
2, 324360, Note_on_c, 0, 72, 72
2, 324478, Note_off_c, 0, 72, 72
2, 324480, Note_on_c, 0, 78, 83
2, 324598, Note_off_c, 0, 78, 83
2, 324600, Note_on_c, 0, 79, 88
2, 324718, Note_off_c, 0, 79, 88
2, 324720, Note_on_c, 0, 81, 84
2, 324838, Note_off_c, 0, 81, 84
2, 324840, Note_on_c, 0, 79, 84
2, 324958, Note_off_c, 0, 79, 84
2, 324960, Note_on_c, 0, 77, 61
2, 325078, Note_off_c, 0, 77, 61
2, 325080, Note_on_c, 0, 76, 55
2, 325198, Note_off_c, 0, 76, 55
2, 325200, Note_on_c, 0, 74, 75
2, 325318, Note_off_c, 0, 74, 75
2, 325320, Note_on_c, 0, 72, 61
2, 325438, Note_off_c, 0, 72, 61
2, 325440, Note_on_c, 0, 80, 87
2, 325678, Note_off_c, 0, 80, 87
2, 325680, Note_on_c, 0, 81, 80
2, 325918, Note_off_c, 0, 81, 80
2, 325920, Note_on_c, 0, 81, 83
2, 326038, Note_off_c, 0, 81, 83
2, 326160, Note_on_c, 0, 81, 76
2, 326278, Note_off_c, 0, 81, 76
2, 326400, Note_on_c, 0, 81, 74
2, 326638, Note_off_c, 0, 81, 74
2, 327360, Note_on_c, 0, 86, 104
2, 327478, Note_off_c, 0, 86, 104
2, 327480, Note_on_c, 0, 88, 84
2, 327598, Note_off_c, 0, 88, 84
2, 327600, Note_on_c, 0, 89, 87
2, 327718, Note_off_c, 0, 89, 87
2, 327720, Note_on_c, 0, 88, 81
2, 327838, Note_off_c, 0, 88, 81
2, 327840, Note_on_c, 0, 86, 88
2, 327958, Note_off_c, 0, 86, 88
2, 327960, Note_on_c, 0, 84, 75
2, 328078, Note_off_c, 0, 84, 75
2, 328080, Note_on_c, 0, 83, 80
2, 328198, Note_off_c, 0, 83, 80
2, 328200, Note_on_c, 0, 81, 84
2, 328318, Note_off_c, 0, 81, 84
2, 328320, Note_on_c, 0, 79, 88
2, 328438, Note_off_c, 0, 79, 88
2, 328440, Note_on_c, 0, 83, 67
2, 328558, Note_off_c, 0, 83, 67
2, 328560, Note_on_c, 0, 86, 78
2, 328678, Note_off_c, 0, 86, 78
2, 328680, Note_on_c, 0, 84, 62
2, 328798, Note_off_c, 0, 84, 62
2, 328800, Note_on_c, 0, 83, 86
2, 328918, Note_off_c, 0, 83, 86
2, 328920, Note_on_c, 0, 81, 76
2, 329038, Note_off_c, 0, 81, 76
2, 329040, Note_on_c, 0, 79, 62
2, 329158, Note_off_c, 0, 79, 62
2, 329160, Note_on_c, 0, 77, 87
2, 329278, Note_off_c, 0, 77, 87
2, 329280, Note_on_c, 0, 76, 84
2, 329398, Note_off_c, 0, 76, 84
2, 329760, Note_on_c, 0, 77, 76
2, 329838, Note_off_c, 0, 77, 76
2, 329840, Note_on_c, 0, 79, 76
2, 329918, Note_off_c, 0, 79, 76
2, 329940, Note_on_c, 0, 77, 75
2, 329998, Note_off_c, 0, 77, 75
2, 330000, Note_on_c, 0, 79, 75
2, 330058, Note_off_c, 0, 79, 75
2, 330060, Note_on_c, 0, 77, 70
2, 330118, Note_off_c, 0, 77, 70
2, 330120, Note_on_c, 0, 76, 75
2, 330178, Note_off_c, 0, 76, 75
2, 330180, Note_on_c, 0, 77, 75
2, 330238, Note_off_c, 0, 77, 75
2, 330240, Note_on_c, 0, 79, 88
2, 330718, Note_off_c, 0, 79, 88
2, 331080, Note_on_c, 0, 81, 81
2, 331138, Note_off_c, 0, 81, 81
2, 331140, Note_on_c, 0, 83, 77
2, 331198, Note_off_c, 0, 83, 77
2, 331200, Note_on_c, 0, 84, 83
2, 331678, Note_off_c, 0, 84, 83
2, 331680, Note_on_c, 0, 84, 84
2, 332038, Note_off_c, 0, 84, 84
2, 332040, Note_on_c, 0, 84, 82
2, 332158, Note_off_c, 0, 84, 82
2, 332160, Note_on_c, 0, 84, 72
2, 332638, Note_off_c, 0, 84, 72
2, 332640, Note_on_c, 0, 83, 48
2, 332758, Note_off_c, 0, 83, 48
2, 332760, Note_on_c, 0, 81, 56
2, 332878, Note_off_c, 0, 81, 56
2, 332880, Note_on_c, 0, 79, 50
2, 332998, Note_off_c, 0, 79, 50
2, 333000, Note_on_c, 0, 77, 44
2, 333118, Note_off_c, 0, 77, 44
2, 333120, Note_on_c, 0, 76, 74
2, 333238, Note_off_c, 0, 76, 74
2, 333600, Note_on_c, 0, 77, 66
2, 333678, Note_off_c, 0, 77, 66
2, 333680, Note_on_c, 0, 79, 66
2, 333758, Note_off_c, 0, 79, 66
2, 333780, Note_on_c, 0, 77, 65
2, 333838, Note_off_c, 0, 77, 65
2, 333840, Note_on_c, 0, 79, 65
2, 333898, Note_off_c, 0, 79, 65
2, 333900, Note_on_c, 0, 77, 60
2, 333958, Note_off_c, 0, 77, 60
2, 333960, Note_on_c, 0, 76, 65
2, 334018, Note_off_c, 0, 76, 65
2, 334020, Note_on_c, 0, 77, 65
2, 334078, Note_off_c, 0, 77, 65
2, 334080, Note_on_c, 0, 79, 78
2, 334558, Note_off_c, 0, 79, 78
2, 334920, Note_on_c, 0, 81, 71
2, 334978, Note_off_c, 0, 81, 71
2, 334980, Note_on_c, 0, 83, 67
2, 335038, Note_off_c, 0, 83, 67
2, 335040, Note_on_c, 0, 84, 73
2, 335518, Note_off_c, 0, 84, 73
2, 335520, Note_on_c, 0, 84, 74
2, 335878, Note_off_c, 0, 84, 74
2, 335880, Note_on_c, 0, 84, 72
2, 335998, Note_off_c, 0, 84, 72
2, 336000, Note_on_c, 0, 84, 72
2, 336478, Note_off_c, 0, 84, 72
2, 336480, Note_on_c, 0, 83, 48
2, 336598, Note_off_c, 0, 83, 48
2, 336600, Note_on_c, 0, 81, 56
2, 336718, Note_off_c, 0, 81, 56
2, 336720, Note_on_c, 0, 79, 50
2, 336838, Note_off_c, 0, 79, 50
2, 336840, Note_on_c, 0, 77, 44
2, 336958, Note_off_c, 0, 77, 44
2, 336960, Note_on_c, 0, 76, 73
2, 337078, Note_off_c, 0, 76, 73
2, 337200, Note_on_c, 0, 84, 62
2, 337318, Note_off_c, 0, 84, 62
2, 337320, Note_on_c, 0, 86, 73
2, 337438, Note_off_c, 0, 86, 73
2, 337440, Note_on_c, 0, 88, 74
2, 337558, Note_off_c, 0, 88, 74
2, 337560, Note_on_c, 0, 86, 77
2, 337678, Note_off_c, 0, 86, 77
2, 337680, Note_on_c, 0, 84, 79
2, 337798, Note_off_c, 0, 84, 79
2, 337800, Note_on_c, 0, 83, 74
2, 337918, Note_off_c, 0, 83, 74
2, 337920, Note_on_c, 0, 81, 72
2, 338038, Note_off_c, 0, 81, 72
2, 338040, Note_on_c, 0, 79, 65
2, 338158, Note_off_c, 0, 79, 65
2, 338160, Note_on_c, 0, 77, 61
2, 338278, Note_off_c, 0, 77, 61
2, 338280, Note_on_c, 0, 76, 68
2, 338398, Note_off_c, 0, 76, 68
2, 338400, Note_on_c, 0, 74, 74
2, 338518, Note_off_c, 0, 74, 74
2, 338520, Note_on_c, 0, 72, 58
2, 338638, Note_off_c, 0, 72, 58
2, 338640, Note_on_c, 0, 71, 53
2, 338758, Note_off_c, 0, 71, 53
2, 338760, Note_on_c, 0, 69, 25
2, 338878, Note_off_c, 0, 69, 25
2, 338880, Note_on_c, 0, 67, 68
2, 338998, Note_off_c, 0, 67, 68
2, 339360, Note_on_c, 0, 65, 73
2, 340318, Note_off_c, 0, 65, 73
2, 340320, Note_on_c, 0, 64, 53
2, 340798, Note_off_c, 0, 64, 53
2, 341040, Note_on_c, 0, 62, 66
2, 341182, Note_off_c, 0, 62, 66
2, 341280, Note_on_c, 0, 65, 67
2, 341422, Note_off_c, 0, 65, 67
2, 341520, Note_on_c, 0, 69, 67
2, 341662, Note_off_c, 0, 69, 67
2, 341760, Note_on_c, 0, 73, 71
2, 341938, Note_off_c, 0, 73, 71
2, 342000, Note_on_c, 0, 74, 76
2, 342178, Note_off_c, 0, 74, 76
2, 342240, Note_on_c, 0, 77, 74
2, 342418, Note_off_c, 0, 77, 74
2, 342480, Note_on_c, 0, 81, 79
2, 342658, Note_off_c, 0, 81, 79
2, 342720, Note_on_c, 0, 81, 77
2, 342958, Note_off_c, 0, 81, 77
2, 342960, Note_on_c, 0, 72, 62
2, 343198, Note_off_c, 0, 72, 62
2, 343200, Note_on_c, 0, 72, 58
2, 344158, Note_off_c, 0, 72, 58
2, 344160, Note_on_c, 0, 71, 60
2, 344160, Note_on_c, 0, 76, 67
2, 344398, Note_off_c, 0, 76, 67
2, 344400, Note_on_c, 0, 74, 66
2, 344638, Note_off_c, 0, 71, 60
2, 344638, Note_off_c, 0, 74, 66
2, 344640, Note_on_c, 0, 72, 65
2, 344878, Note_off_c, 0, 72, 65
2, 345600, Note_on_c, 0, 79, 78
2, 345838, Note_off_c, 0, 79, 78
2, 345840, Note_on_c, 0, 76, 77
2, 346078, Note_off_c, 0, 76, 77
2, 346080, Note_on_c, 0, 84, 73
2, 346198, Note_off_c, 0, 84, 73
2, 346320, Note_on_c, 0, 83, 72
2, 346438, Note_off_c, 0, 83, 72
2, 346560, Note_on_c, 0, 81, 68
2, 346678, Note_off_c, 0, 81, 68
2, 346800, Note_on_c, 0, 79, 71
2, 346918, Note_off_c, 0, 79, 71
2, 347040, Note_on_c, 0, 77, 63
2, 347158, Note_off_c, 0, 77, 63
2, 347280, Note_on_c, 0, 76, 67
2, 347398, Note_off_c, 0, 76, 67
2, 347520, Note_on_c, 0, 74, 72
2, 347758, Note_off_c, 0, 74, 72
2, 348000, Note_on_c, 0, 76, 68
2, 348238, Note_off_c, 0, 76, 68
2, 348480, Note_on_c, 0, 79, 66
2, 348718, Note_off_c, 0, 79, 66
2, 348720, Note_on_c, 0, 78, 66
2, 348958, Note_off_c, 0, 78, 66
2, 348960, Note_on_c, 0, 77, 66
2, 349438, Note_off_c, 0, 77, 66
2, 349440, Note_on_c, 0, 76, 74
2, 349678, Note_off_c, 0, 76, 74
2, 349680, Note_on_c, 0, 77, 66
2, 349918, Note_off_c, 0, 77, 66
2, 349920, Note_on_c, 0, 79, 74
2, 350158, Note_off_c, 0, 79, 74
2, 350160, Note_on_c, 0, 80, 74
2, 350398, Note_off_c, 0, 80, 74
2, 350400, Note_on_c, 0, 81, 68
2, 350494, Note_off_c, 0, 81, 68
2, 350496, Note_on_c, 0, 83, 68
2, 350590, Note_off_c, 0, 83, 68
2, 350592, Note_on_c, 0, 81, 71
2, 350686, Note_off_c, 0, 81, 71
2, 350688, Note_on_c, 0, 80, 65
2, 350782, Note_off_c, 0, 80, 65
2, 350784, Note_on_c, 0, 81, 65
2, 350878, Note_off_c, 0, 81, 65
2, 350880, Note_on_c, 0, 84, 70
2, 350998, Note_off_c, 0, 84, 70
2, 351120, Note_on_c, 0, 83, 71
2, 351238, Note_off_c, 0, 83, 71
2, 351360, Note_on_c, 0, 81, 72
2, 351478, Note_off_c, 0, 81, 72
2, 351600, Note_on_c, 0, 79, 66
2, 351718, Note_off_c, 0, 79, 66
2, 351840, Note_on_c, 0, 77, 68
2, 351958, Note_off_c, 0, 77, 68
2, 352080, Note_on_c, 0, 76, 65
2, 352198, Note_off_c, 0, 76, 65
2, 352320, Note_on_c, 0, 79, 77
2, 352678, Note_off_c, 0, 79, 77
2, 352680, Note_on_c, 0, 76, 65
2, 352798, Note_off_c, 0, 76, 65
2, 352800, Note_on_c, 0, 74, 67
2, 353276, Note_on_c, 0, 79, 111
2, 353278, Note_off_c, 0, 74, 67
2, 353626, Note_on_c, 0, 81, 84
2, 353664, Note_off_c, 0, 79, 111
2, 353700, Note_on_c, 0, 83, 87
2, 353726, Note_off_c, 0, 81, 84
2, 353745, Note_on_c, 0, 84, 78
2, 353797, Note_off_c, 0, 83, 87
2, 353829, Note_off_c, 0, 84, 78
2, 353991, Note_on_c, 0, 83, 104
2, 354051, Note_off_c, 0, 83, 104
2, 354226, Note_on_c, 0, 81, 102
2, 354284, Note_off_c, 0, 81, 102
2, 354475, Note_on_c, 0, 79, 75
2, 354549, Note_off_c, 0, 79, 75
2, 354710, Note_on_c, 0, 77, 71
2, 354782, Note_off_c, 0, 77, 71
2, 354962, Note_on_c, 0, 76, 54
2, 355023, Note_off_c, 0, 76, 54
2, 355203, Note_on_c, 0, 74, 72
2, 355253, Note_off_c, 0, 74, 72
2, 355691, Note_on_c, 0, 76, 75
2, 355736, Note_off_c, 0, 76, 75
2, 356176, Note_on_c, 0, 77, 88
2, 356230, Note_off_c, 0, 77, 88
2, 356656, Note_on_c, 0, 78, 104
2, 356731, Note_off_c, 0, 78, 104
2, 357115, Note_on_c, 0, 79, 99
2, 357244, Note_off_c, 0, 79, 99
2, 357591, Note_on_c, 0, 80, 86
2, 357654, Note_off_c, 0, 80, 86
2, 358074, Note_on_c, 0, 81, 88
2, 358306, Note_off_c, 0, 81, 88
2, 358456, Note_on_c, 0, 69, 84
2, 358542, Note_on_c, 0, 77, 99
2, 358549, Note_off_c, 0, 69, 84
2, 358897, Note_off_c, 0, 77, 99
2, 358898, Note_on_c, 0, 74, 86
2, 359002, Note_off_c, 0, 74, 86
2, 359007, Note_on_c, 0, 72, 77
2, 359499, Note_on_c, 0, 76, 87
2, 359510, Note_on_c, 0, 71, 68
2, 359526, Note_off_c, 0, 72, 77
2, 359636, Note_on_c, 0, 74, 73
2, 359651, Note_off_c, 0, 76, 87
2, 359976, Note_off_c, 0, 74, 73
2, 359991, Note_on_c, 0, 72, 72
2, 360006, Note_off_c, 0, 71, 68
2, 360526, Note_off_c, 0, 72, 72
2, 360600, Note_on_c, 0, 72, 74
2, 360718, Note_off_c, 0, 72, 74
2, 360720, Note_on_c, 0, 74, 74
2, 360838, Note_off_c, 0, 74, 74
2, 360840, Note_on_c, 0, 76, 76
2, 360958, Note_off_c, 0, 76, 76
2, 360960, Note_on_c, 0, 77, 78
2, 361018, Note_off_c, 0, 77, 78
2, 361020, Note_on_c, 0, 79, 74
2, 361078, Note_off_c, 0, 79, 74
2, 361080, Note_on_c, 0, 77, 74
2, 361138, Note_off_c, 0, 77, 74
2, 361140, Note_on_c, 0, 76, 68
2, 361198, Note_off_c, 0, 76, 68
2, 361200, Note_on_c, 0, 77, 68
2, 361318, Note_off_c, 0, 77, 68
2, 361320, Note_on_c, 0, 79, 65
2, 361438, Note_off_c, 0, 79, 65
2, 361440, Note_on_c, 0, 81, 73
2, 361498, Note_off_c, 0, 81, 73
2, 361500, Note_on_c, 0, 83, 76
2, 361558, Note_off_c, 0, 83, 76
2, 361560, Note_on_c, 0, 81, 74
2, 361618, Note_off_c, 0, 81, 74
2, 361620, Note_on_c, 0, 79, 62
2, 361678, Note_off_c, 0, 79, 62
2, 361680, Note_on_c, 0, 81, 74
2, 361798, Note_off_c, 0, 81, 74
2, 361800, Note_on_c, 0, 83, 68
2, 361918, Note_off_c, 0, 83, 68
2, 361920, Note_on_c, 0, 84, 68
2, 362038, Note_off_c, 0, 84, 68
2, 362160, Note_on_c, 0, 84, 72
2, 362218, Note_off_c, 0, 84, 72
2, 362520, Note_on_c, 0, 72, 74
2, 362638, Note_off_c, 0, 72, 74
2, 362640, Note_on_c, 0, 74, 74
2, 362758, Note_off_c, 0, 74, 74
2, 362760, Note_on_c, 0, 76, 76
2, 362878, Note_off_c, 0, 76, 76
2, 362880, Note_on_c, 0, 77, 78
2, 362938, Note_off_c, 0, 77, 78
2, 362940, Note_on_c, 0, 79, 74
2, 362998, Note_off_c, 0, 79, 74
2, 363000, Note_on_c, 0, 77, 74
2, 363058, Note_off_c, 0, 77, 74
2, 363060, Note_on_c, 0, 76, 68
2, 363118, Note_off_c, 0, 76, 68
2, 363120, Note_on_c, 0, 77, 68
2, 363238, Note_off_c, 0, 77, 68
2, 363240, Note_on_c, 0, 79, 65
2, 363358, Note_off_c, 0, 79, 65
2, 363360, Note_on_c, 0, 81, 73
2, 363418, Note_off_c, 0, 81, 73
2, 363420, Note_on_c, 0, 83, 76
2, 363478, Note_off_c, 0, 83, 76
2, 363480, Note_on_c, 0, 81, 74
2, 363538, Note_off_c, 0, 81, 74
2, 363540, Note_on_c, 0, 79, 62
2, 363598, Note_off_c, 0, 79, 62
2, 363600, Note_on_c, 0, 81, 74
2, 363718, Note_off_c, 0, 81, 74
2, 363720, Note_on_c, 0, 83, 68
2, 363838, Note_off_c, 0, 83, 68
2, 363840, Note_on_c, 0, 84, 68
2, 363958, Note_off_c, 0, 84, 68
2, 364080, Note_on_c, 0, 84, 72
2, 364138, Note_off_c, 0, 84, 72
2, 364440, Note_on_c, 0, 79, 65
2, 364558, Note_off_c, 0, 79, 65
2, 364560, Note_on_c, 0, 83, 68
2, 364678, Note_off_c, 0, 83, 68
2, 364680, Note_on_c, 0, 79, 65
2, 364798, Note_off_c, 0, 79, 65
2, 364800, Note_on_c, 0, 84, 68
2, 364918, Note_off_c, 0, 84, 68
2, 365040, Note_on_c, 0, 84, 67
2, 365158, Note_off_c, 0, 84, 67
2, 365400, Note_on_c, 0, 79, 71
2, 365518, Note_off_c, 0, 79, 71
2, 365520, Note_on_c, 0, 83, 72
2, 365638, Note_off_c, 0, 83, 72
2, 365640, Note_on_c, 0, 79, 58
2, 365758, Note_off_c, 0, 79, 58
2, 365760, Note_on_c, 0, 84, 68
2, 365878, Note_off_c, 0, 84, 68
2, 366000, Note_on_c, 0, 84, 67
2, 366118, Note_off_c, 0, 84, 67
2, 366360, Note_on_c, 0, 79, 71
2, 366478, Note_off_c, 0, 79, 71
2, 366480, Note_on_c, 0, 83, 72
2, 366598, Note_off_c, 0, 83, 72
2, 366600, Note_on_c, 0, 79, 58
2, 366718, Note_off_c, 0, 79, 58
2, 366720, Note_on_c, 0, 84, 68
2, 366838, Note_off_c, 0, 84, 68
2, 366840, Note_on_c, 0, 79, 63
2, 366958, Note_off_c, 0, 79, 63
2, 366960, Note_on_c, 0, 84, 76
2, 367078, Note_off_c, 0, 84, 76
2, 367080, Note_on_c, 0, 79, 74
2, 367198, Note_off_c, 0, 79, 74
2, 367200, Note_on_c, 0, 86, 83
2, 367318, Note_off_c, 0, 86, 83
2, 367320, Note_on_c, 0, 79, 74
2, 367438, Note_off_c, 0, 79, 74
2, 367440, Note_on_c, 0, 86, 89
2, 367558, Note_off_c, 0, 86, 89
2, 367560, Note_on_c, 0, 79, 77
2, 367678, Note_off_c, 0, 79, 77
2, 367680, Note_on_c, 0, 88, 78
2, 367918, Note_off_c, 0, 88, 78
2, 367920, Note_on_c, 0, 84, 62
2, 368038, Note_off_c, 0, 84, 62
2, 368160, Note_on_c, 0, 79, 74
2, 368398, Note_off_c, 0, 79, 74
2, 368400, Note_on_c, 0, 84, 61
2, 368518, Note_off_c, 0, 84, 61
2, 368640, Note_on_c, 0, 76, 65
2, 368878, Note_off_c, 0, 76, 65
2, 368880, Note_on_c, 0, 79, 52
2, 368998, Note_off_c, 0, 79, 52
2, 369120, Note_on_c, 0, 72, 65
2, 369358, Note_off_c, 0, 72, 65
2, 369360, Note_on_c, 0, 76, 62
2, 369478, Note_off_c, 0, 76, 62
2, 369600, Note_on_c, 0, 69, 66
2, 369838, Note_off_c, 0, 69, 66
2, 369840, Note_on_c, 0, 81, 83
2, 370078, Note_off_c, 0, 81, 83
2, 370080, Note_on_c, 0, 79, 74
2, 370198, Note_off_c, 0, 79, 74
2, 370200, Note_on_c, 0, 77, 71
2, 370318, Note_off_c, 0, 77, 71
2, 370320, Note_on_c, 0, 76, 50
2, 370438, Note_off_c, 0, 76, 50
2, 370440, Note_on_c, 0, 74, 71
2, 370558, Note_off_c, 0, 74, 71
2, 370560, Note_on_c, 0, 72, 72
2, 371038, Note_off_c, 0, 72, 72
2, 371040, Note_on_c, 0, 71, 61
2, 371107, Note_off_c, 0, 71, 61
2, 371109, Note_on_c, 0, 72, 65
2, 371175, Note_off_c, 0, 72, 65
2, 371177, Note_on_c, 0, 71, 55
2, 371244, Note_off_c, 0, 71, 55
2, 371246, Note_on_c, 0, 72, 60
2, 371312, Note_off_c, 0, 72, 60
2, 371314, Note_on_c, 0, 71, 55
2, 371381, Note_off_c, 0, 71, 55
2, 371383, Note_on_c, 0, 69, 55
2, 371449, Note_off_c, 0, 69, 55
2, 371451, Note_on_c, 0, 71, 65
2, 371511, Note_on_c, 0, 72, 72
2, 371518, Note_off_c, 0, 71, 65
2, 372046, Note_off_c, 0, 72, 72
2, 372120, Note_on_c, 0, 72, 74
2, 372238, Note_off_c, 0, 72, 74
2, 372240, Note_on_c, 0, 74, 74
2, 372358, Note_off_c, 0, 74, 74
2, 372360, Note_on_c, 0, 76, 76
2, 372478, Note_off_c, 0, 76, 76
2, 372480, Note_on_c, 0, 77, 78
2, 372538, Note_off_c, 0, 77, 78
2, 372540, Note_on_c, 0, 79, 74
2, 372598, Note_off_c, 0, 79, 74
2, 372600, Note_on_c, 0, 77, 74
2, 372658, Note_off_c, 0, 77, 74
2, 372660, Note_on_c, 0, 76, 68
2, 372718, Note_off_c, 0, 76, 68
2, 372720, Note_on_c, 0, 77, 68
2, 372838, Note_off_c, 0, 77, 68
2, 372840, Note_on_c, 0, 79, 65
2, 372958, Note_off_c, 0, 79, 65
2, 372960, Note_on_c, 0, 81, 73
2, 373018, Note_off_c, 0, 81, 73
2, 373020, Note_on_c, 0, 83, 76
2, 373078, Note_off_c, 0, 83, 76
2, 373080, Note_on_c, 0, 81, 74
2, 373138, Note_off_c, 0, 81, 74
2, 373140, Note_on_c, 0, 79, 62
2, 373198, Note_off_c, 0, 79, 62
2, 373200, Note_on_c, 0, 81, 74
2, 373318, Note_off_c, 0, 81, 74
2, 373320, Note_on_c, 0, 83, 68
2, 373438, Note_off_c, 0, 83, 68
2, 373440, Note_on_c, 0, 84, 68
2, 373558, Note_off_c, 0, 84, 68
2, 373680, Note_on_c, 0, 84, 72
2, 373738, Note_off_c, 0, 84, 72
2, 374040, Note_on_c, 0, 72, 74
2, 374158, Note_off_c, 0, 72, 74
2, 374160, Note_on_c, 0, 74, 74
2, 374278, Note_off_c, 0, 74, 74
2, 374280, Note_on_c, 0, 76, 76
2, 374398, Note_off_c, 0, 76, 76
2, 374400, Note_on_c, 0, 77, 78
2, 374458, Note_off_c, 0, 77, 78
2, 374460, Note_on_c, 0, 79, 74
2, 374518, Note_off_c, 0, 79, 74
2, 374520, Note_on_c, 0, 77, 74
2, 374578, Note_off_c, 0, 77, 74
2, 374580, Note_on_c, 0, 76, 68
2, 374638, Note_off_c, 0, 76, 68
2, 374640, Note_on_c, 0, 77, 68
2, 374758, Note_off_c, 0, 77, 68
2, 374760, Note_on_c, 0, 79, 65
2, 374878, Note_off_c, 0, 79, 65
2, 374880, Note_on_c, 0, 81, 73
2, 374938, Note_off_c, 0, 81, 73
2, 374940, Note_on_c, 0, 83, 76
2, 374998, Note_off_c, 0, 83, 76
2, 375000, Note_on_c, 0, 81, 74
2, 375058, Note_off_c, 0, 81, 74
2, 375060, Note_on_c, 0, 79, 62
2, 375118, Note_off_c, 0, 79, 62
2, 375120, Note_on_c, 0, 81, 74
2, 375238, Note_off_c, 0, 81, 74
2, 375240, Note_on_c, 0, 83, 68
2, 375358, Note_off_c, 0, 83, 68
2, 375360, Note_on_c, 0, 84, 68
2, 375478, Note_off_c, 0, 84, 68
2, 375600, Note_on_c, 0, 84, 72
2, 375658, Note_off_c, 0, 84, 72
2, 375960, Note_on_c, 0, 79, 65
2, 376078, Note_off_c, 0, 79, 65
2, 376080, Note_on_c, 0, 83, 68
2, 376198, Note_off_c, 0, 83, 68
2, 376200, Note_on_c, 0, 79, 65
2, 376318, Note_off_c, 0, 79, 65
2, 376320, Note_on_c, 0, 84, 68
2, 376438, Note_off_c, 0, 84, 68
2, 376560, Note_on_c, 0, 84, 67
2, 376678, Note_off_c, 0, 84, 67
2, 376920, Note_on_c, 0, 79, 71
2, 377038, Note_off_c, 0, 79, 71
2, 377040, Note_on_c, 0, 83, 72
2, 377158, Note_off_c, 0, 83, 72
2, 377160, Note_on_c, 0, 79, 58
2, 377278, Note_off_c, 0, 79, 58
2, 377280, Note_on_c, 0, 84, 68
2, 377398, Note_off_c, 0, 84, 68
2, 377520, Note_on_c, 0, 84, 67
2, 377638, Note_off_c, 0, 84, 67
2, 377880, Note_on_c, 0, 79, 71
2, 377998, Note_off_c, 0, 79, 71
2, 378000, Note_on_c, 0, 83, 72
2, 378118, Note_off_c, 0, 83, 72
2, 378120, Note_on_c, 0, 79, 58
2, 378238, Note_off_c, 0, 79, 58
2, 378240, Note_on_c, 0, 84, 68
2, 378358, Note_off_c, 0, 84, 68
2, 378360, Note_on_c, 0, 79, 63
2, 378478, Note_off_c, 0, 79, 63
2, 378480, Note_on_c, 0, 84, 76
2, 378598, Note_off_c, 0, 84, 76
2, 378600, Note_on_c, 0, 79, 74
2, 378718, Note_off_c, 0, 79, 74
2, 378720, Note_on_c, 0, 86, 83
2, 378838, Note_off_c, 0, 86, 83
2, 378840, Note_on_c, 0, 79, 74
2, 378958, Note_off_c, 0, 79, 74
2, 378960, Note_on_c, 0, 86, 89
2, 379078, Note_off_c, 0, 86, 89
2, 379080, Note_on_c, 0, 79, 77
2, 379198, Note_off_c, 0, 79, 77
2, 379200, Note_on_c, 0, 88, 89
2, 379318, Note_off_c, 0, 88, 89
2, 379320, Note_on_c, 0, 84, 77
2, 379438, Note_off_c, 0, 84, 77
2, 379440, Note_on_c, 0, 88, 74
2, 379558, Note_off_c, 0, 88, 74
2, 379560, Note_on_c, 0, 84, 63
2, 379678, Note_off_c, 0, 84, 63
2, 379680, Note_on_c, 0, 79, 66
2, 379798, Note_off_c, 0, 79, 66
2, 379800, Note_on_c, 0, 84, 74
2, 379918, Note_off_c, 0, 84, 74
2, 379920, Note_on_c, 0, 79, 62
2, 380038, Note_off_c, 0, 79, 62
2, 380040, Note_on_c, 0, 84, 63
2, 380158, Note_off_c, 0, 84, 63
2, 380160, Note_on_c, 0, 76, 63
2, 380278, Note_off_c, 0, 76, 63
2, 380280, Note_on_c, 0, 79, 70
2, 380398, Note_off_c, 0, 79, 70
2, 380400, Note_on_c, 0, 76, 65
2, 380518, Note_off_c, 0, 76, 65
2, 380520, Note_on_c, 0, 79, 53
2, 380638, Note_off_c, 0, 79, 53
2, 380640, Note_on_c, 0, 72, 58
2, 380758, Note_off_c, 0, 72, 58
2, 380760, Note_on_c, 0, 76, 68
2, 380878, Note_off_c, 0, 76, 68
2, 380880, Note_on_c, 0, 72, 52
2, 380998, Note_off_c, 0, 72, 52
2, 381000, Note_on_c, 0, 76, 67
2, 381118, Note_off_c, 0, 76, 67
2, 381120, Note_on_c, 0, 69, 66
2, 381358, Note_off_c, 0, 69, 66
2, 381360, Note_on_c, 0, 81, 83
2, 381598, Note_off_c, 0, 81, 83
2, 381600, Note_on_c, 0, 79, 74
2, 381718, Note_off_c, 0, 79, 74
2, 381720, Note_on_c, 0, 77, 71
2, 381838, Note_off_c, 0, 77, 71
2, 381840, Note_on_c, 0, 76, 50
2, 381958, Note_off_c, 0, 76, 50
2, 381960, Note_on_c, 0, 74, 71
2, 382078, Note_off_c, 0, 74, 71
2, 382080, Note_on_c, 0, 72, 72
2, 382558, Note_off_c, 0, 72, 72
2, 382560, Note_on_c, 0, 71, 61
2, 382627, Note_off_c, 0, 71, 61
2, 382629, Note_on_c, 0, 72, 65
2, 382695, Note_off_c, 0, 72, 65
2, 382697, Note_on_c, 0, 71, 55
2, 382764, Note_off_c, 0, 71, 55
2, 382766, Note_on_c, 0, 72, 60
2, 382832, Note_off_c, 0, 72, 60
2, 382834, Note_on_c, 0, 71, 55
2, 382901, Note_off_c, 0, 71, 55
2, 382903, Note_on_c, 0, 69, 55
2, 382969, Note_off_c, 0, 69, 55
2, 382971, Note_on_c, 0, 71, 65
2, 383038, Note_off_c, 0, 71, 65
2, 383040, Note_on_c, 0, 72, 79
2, 383398, Note_off_c, 0, 72, 79
2, 383400, Note_on_c, 0, 67, 74
2, 383518, Note_off_c, 0, 67, 74
2, 383520, Note_on_c, 0, 76, 81
2, 383878, Note_off_c, 0, 76, 81
2, 383880, Note_on_c, 0, 72, 72
2, 383998, Note_off_c, 0, 72, 72
2, 384000, Note_on_c, 0, 79, 83
2, 384118, Note_off_c, 0, 79, 83
2, 384480, Note_on_c, 0, 86, 53
2, 384598, Note_off_c, 0, 86, 53
2, 384600, Note_on_c, 0, 84, 73
2, 384718, Note_off_c, 0, 84, 73
2, 384720, Note_on_c, 0, 83, 68
2, 384838, Note_off_c, 0, 83, 68
2, 384840, Note_on_c, 0, 81, 57
2, 384958, Note_off_c, 0, 81, 57
2, 384960, Note_on_c, 0, 79, 60
2, 385078, Note_off_c, 0, 79, 60
2, 385440, Note_on_c, 0, 81, 68
2, 385558, Note_off_c, 0, 81, 68
2, 385560, Note_on_c, 0, 79, 68
2, 385678, Note_off_c, 0, 79, 68
2, 385680, Note_on_c, 0, 77, 58
2, 385798, Note_off_c, 0, 77, 58
2, 385800, Note_on_c, 0, 76, 60
2, 385918, Note_off_c, 0, 76, 60
2, 385920, Note_on_c, 0, 74, 62
2, 386038, Note_off_c, 0, 74, 62
2, 386400, Note_on_c, 0, 79, 60
2, 386518, Note_off_c, 0, 79, 60
2, 386520, Note_on_c, 0, 77, 70
2, 386638, Note_off_c, 0, 77, 70
2, 386640, Note_on_c, 0, 76, 71
2, 386758, Note_off_c, 0, 76, 71
2, 386760, Note_on_c, 0, 74, 68
2, 386878, Note_off_c, 0, 74, 68
2, 386880, Note_on_c, 0, 72, 76
2, 386998, Note_off_c, 0, 72, 76
2, 387000, Note_on_c, 0, 67, 72
2, 387118, Note_off_c, 0, 67, 72
2, 387120, Note_on_c, 0, 72, 67
2, 387238, Note_off_c, 0, 72, 67
2, 387240, Note_on_c, 0, 67, 68
2, 387358, Note_off_c, 0, 67, 68
2, 387360, Note_on_c, 0, 76, 77
2, 387478, Note_off_c, 0, 76, 77
2, 387480, Note_on_c, 0, 72, 74
2, 387598, Note_off_c, 0, 72, 74
2, 387600, Note_on_c, 0, 76, 79
2, 387718, Note_off_c, 0, 76, 79
2, 387720, Note_on_c, 0, 72, 53
2, 387838, Note_off_c, 0, 72, 53
2, 387840, Note_on_c, 0, 79, 83
2, 387958, Note_off_c, 0, 79, 83
2, 388320, Note_on_c, 0, 86, 76
2, 388438, Note_off_c, 0, 86, 76
2, 388440, Note_on_c, 0, 84, 72
2, 388558, Note_off_c, 0, 84, 72
2, 388560, Note_on_c, 0, 83, 76
2, 388678, Note_off_c, 0, 83, 76
2, 388680, Note_on_c, 0, 81, 66
2, 388798, Note_off_c, 0, 81, 66
2, 388800, Note_on_c, 0, 79, 66
2, 389038, Note_off_c, 0, 79, 66
2, 389040, Note_on_c, 0, 79, 68
2, 389278, Note_off_c, 0, 79, 68
2, 389280, Note_on_c, 0, 81, 71
2, 389398, Note_off_c, 0, 81, 71
2, 389400, Note_on_c, 0, 79, 56
2, 389518, Note_off_c, 0, 79, 56
2, 389520, Note_on_c, 0, 77, 52
2, 389638, Note_off_c, 0, 77, 52
2, 389640, Note_on_c, 0, 76, 66
2, 389758, Note_off_c, 0, 76, 66
2, 389760, Note_on_c, 0, 74, 68
2, 389998, Note_off_c, 0, 74, 68
2, 390000, Note_on_c, 0, 74, 71
2, 390238, Note_off_c, 0, 74, 71
2, 390240, Note_on_c, 0, 79, 72
2, 390358, Note_off_c, 0, 79, 72
2, 390360, Note_on_c, 0, 77, 67
2, 390478, Note_off_c, 0, 77, 67
2, 390480, Note_on_c, 0, 76, 65
2, 390598, Note_off_c, 0, 76, 65
2, 390600, Note_on_c, 0, 74, 55
2, 390718, Note_off_c, 0, 74, 55
2, 390720, Note_on_c, 0, 72, 65
2, 391438, Note_off_c, 0, 72, 65
2, 391440, Note_on_c, 0, 80, 73
2, 391678, Note_off_c, 0, 80, 73
2, 391680, Note_on_c, 0, 81, 74
2, 391918, Note_off_c, 0, 81, 74
2, 391920, Note_on_c, 0, 83, 74
2, 392158, Note_off_c, 0, 83, 74
2, 392160, Note_on_c, 0, 84, 74
2, 392398, Note_off_c, 0, 84, 74
2, 392400, Note_on_c, 0, 76, 58
2, 392638, Note_off_c, 0, 76, 58
2, 392640, Note_on_c, 0, 79, 65
2, 392878, Note_off_c, 0, 79, 65
2, 392880, Note_on_c, 0, 77, 62
2, 393058, Note_off_c, 0, 77, 62
2, 393360, Note_on_c, 0, 76, 72
2, 393598, Note_off_c, 0, 76, 72
2, 393600, Note_on_c, 0, 77, 68
2, 393838, Note_off_c, 0, 77, 68
2, 393840, Note_on_c, 0, 79, 72
2, 394078, Note_off_c, 0, 79, 72
2, 394080, Note_on_c, 0, 81, 73
2, 394318, Note_off_c, 0, 81, 73
2, 394320, Note_on_c, 0, 73, 53
2, 394558, Note_off_c, 0, 73, 53
2, 394560, Note_on_c, 0, 76, 66
2, 394798, Note_off_c, 0, 76, 66
2, 394800, Note_on_c, 0, 74, 65
2, 394918, Note_off_c, 0, 74, 65
2, 395280, Note_on_c, 0, 73, 66
2, 395518, Note_off_c, 0, 73, 66
2, 395520, Note_on_c, 0, 74, 72
2, 395758, Note_off_c, 0, 74, 72
2, 395760, Note_on_c, 0, 76, 68
2, 395998, Note_off_c, 0, 76, 68
2, 396000, Note_on_c, 0, 77, 70
2, 396238, Note_off_c, 0, 77, 70
2, 396240, Note_on_c, 0, 71, 53
2, 396478, Note_off_c, 0, 71, 53
2, 396480, Note_on_c, 0, 74, 68
2, 396718, Note_off_c, 0, 74, 68
2, 396720, Note_on_c, 0, 72, 42
2, 396958, Note_off_c, 0, 72, 42
2, 396960, Note_on_c, 0, 81, 78
2, 397198, Note_off_c, 0, 81, 78
2, 397200, Note_on_c, 0, 71, 57
2, 397438, Note_off_c, 0, 71, 57
2, 397440, Note_on_c, 0, 74, 61
2, 397678, Note_off_c, 0, 74, 61
2, 397680, Note_on_c, 0, 72, 48
2, 397918, Note_off_c, 0, 72, 48
2, 397920, Note_on_c, 0, 81, 73
2, 398158, Note_off_c, 0, 81, 73
2, 398160, Note_on_c, 0, 71, 67
2, 398398, Note_off_c, 0, 71, 67
2, 398640, Note_on_c, 0, 74, 67
2, 398758, Note_off_c, 0, 74, 67
2, 398760, Note_on_c, 0, 72, 55
2, 398818, Note_off_c, 0, 72, 55
2, 399120, Note_on_c, 0, 80, 73
2, 399238, Note_off_c, 0, 80, 73
2, 399240, Note_on_c, 0, 71, 68
2, 399298, Note_off_c, 0, 71, 68
2, 399600, Note_on_c, 0, 74, 58
2, 399718, Note_off_c, 0, 74, 58
2, 399720, Note_on_c, 0, 72, 40
2, 399778, Note_off_c, 0, 72, 40
2, 400080, Note_on_c, 0, 80, 65
2, 400198, Note_off_c, 0, 80, 65
2, 400200, Note_on_c, 0, 71, 66
2, 400258, Note_off_c, 0, 71, 66
2, 400320, Note_on_c, 0, 65, 34
2, 400320, Note_on_c, 0, 71, 40
2, 400320, Note_on_c, 0, 67, 34
2, 400320, Note_on_c, 0, 74, 71
2, 401278, Note_off_c, 0, 65, 34
2, 401278, Note_off_c, 0, 71, 40
2, 401278, Note_off_c, 0, 67, 34
2, 401278, Note_off_c, 0, 74, 71
2, 401280, Note_on_c, 0, 67, 32
2, 401280, Note_on_c, 0, 64, 24
2, 401280, Note_on_c, 0, 72, 40
2, 401758, Note_off_c, 0, 67, 32
2, 401758, Note_off_c, 0, 64, 24
2, 401758, Note_off_c, 0, 72, 40
2, 402240, End_track
3, 0, Start_track
3, 0, MIDI_port, 0
3, 0, Channel_prefix, 1
3, 0, Title_t, "Piano L.H."
3, 0, Key_signature, 0, "major"
3, 980, Control_c, 1, 0, 0
3, 985, Program_c, 1, 0
3, 990, Control_c, 1, 7, 127
3, 995, Control_c, 1, 10, 82
3, 1000, Control_c, 1, 91, 76
3, 1005, Control_c, 1, 93, 0
3, 1010, Control_c, 1, 94, 0
3, 1015, Control_c, 1, 11, 127
3, 2855, Note_on_c, 1, 64, 46
3, 2897, Control_c, 1, 64, 127
3, 3119, Note_on_c, 1, 60, 29
3, 3122, Note_off_c, 1, 64, 46
3, 3327, Note_off_c, 1, 60, 29
3, 3344, Note_on_c, 1, 64, 55
3, 3570, Note_on_c, 1, 60, 46
3, 3582, Note_off_c, 1, 64, 55
3, 3818, Note_on_c, 1, 64, 45
3, 3828, Note_off_c, 1, 60, 46
3, 4042, Note_on_c, 1, 60, 56
3, 4048, Note_off_c, 1, 64, 45
3, 4234, Control_c, 1, 64, 0
3, 4316, Note_off_c, 1, 60, 56
3, 4318, Note_on_c, 1, 65, 36
3, 4337, Control_c, 1, 64, 127
3, 4523, Note_on_c, 1, 60, 33
3, 4526, Note_off_c, 1, 65, 36
3, 4781, Note_on_c, 1, 64, 43
3, 4783, Control_c, 1, 64, 0
3, 4787, Note_off_c, 1, 60, 33
3, 5002, Note_on_c, 1, 60, 43
3, 5004, Note_off_c, 1, 64, 43
3, 5240, Note_on_c, 1, 64, 46
3, 5248, Note_off_c, 1, 60, 43
3, 5461, Note_off_c, 1, 64, 46
3, 5462, Note_on_c, 1, 60, 50
3, 5693, Note_on_c, 1, 64, 42
3, 5697, Note_off_c, 1, 60, 50
3, 5942, Note_off_c, 1, 64, 42
3, 5953, Note_on_c, 1, 60, 21
3, 6209, Note_off_c, 1, 60, 21
3, 6211, Note_on_c, 1, 64, 32
3, 6455, Note_on_c, 1, 60, 48
3, 6461, Note_off_c, 1, 64, 32
3, 6709, Note_on_c, 1, 64, 42
3, 6719, Note_off_c, 1, 60, 48
3, 6737, Control_c, 1, 64, 127
3, 6958, Note_off_c, 1, 64, 42
3, 6973, Note_on_c, 1, 60, 45
3, 7038, Note_off_c, 1, 60, 45
3, 7198, Note_on_c, 1, 64, 46
3, 7442, Note_off_c, 1, 64, 46
3, 7453, Note_on_c, 1, 60, 31
3, 7664, Note_off_c, 1, 60, 31
3, 7691, Note_on_c, 1, 64, 40
3, 7914, Note_on_c, 1, 60, 42
3, 7932, Note_off_c, 1, 64, 40
3, 8074, Control_c, 1, 64, 0
3, 8152, Note_off_c, 1, 60, 42
3, 8177, Control_c, 1, 64, 127
3, 8181, Note_on_c, 1, 65, 41
3, 8374, Note_off_c, 1, 65, 41
3, 8384, Note_on_c, 1, 60, 45
3, 8533, Note_off_c, 1, 60, 45
3, 8623, Control_c, 1, 64, 0
3, 8638, Note_on_c, 1, 64, 48
3, 8852, Note_on_c, 1, 60, 38
3, 8858, Note_off_c, 1, 64, 48
3, 9093, Note_off_c, 1, 60, 38
3, 9102, Note_on_c, 1, 64, 36
3, 9336, Note_on_c, 1, 60, 48
3, 9339, Note_off_c, 1, 64, 36
3, 9565, Note_off_c, 1, 60, 48
3, 9568, Note_on_c, 1, 64, 35
3, 9828, Note_on_c, 1, 60, 43
3, 9830, Note_off_c, 1, 64, 35
3, 10061, Note_off_c, 1, 60, 43
3, 10070, Note_on_c, 1, 64, 46
3, 10301, Note_off_c, 1, 64, 46
3, 10309, Note_on_c, 1, 60, 55
3, 10538, Note_off_c, 1, 60, 55
3, 10550, Note_on_c, 1, 65, 48
3, 10577, Control_c, 1, 64, 127
3, 10755, Note_off_c, 1, 65, 48
3, 10780, Note_on_c, 1, 60, 27
3, 10893, Note_off_c, 1, 60, 27
3, 11010, Note_on_c, 1, 65, 48
3, 11103, Note_off_c, 1, 65, 48
3, 11246, Note_on_c, 1, 60, 30
3, 11368, Note_off_c, 1, 60, 30
3, 11488, Note_on_c, 1, 65, 52
3, 11722, Note_off_c, 1, 65, 52
3, 11731, Note_on_c, 1, 60, 46
3, 11813, Note_off_c, 1, 60, 46
3, 11914, Control_c, 1, 64, 0
3, 11973, Note_on_c, 1, 65, 43
3, 12017, Control_c, 1, 64, 127
3, 12208, Note_on_c, 1, 60, 45
3, 12215, Note_off_c, 1, 65, 43
3, 12276, Note_off_c, 1, 60, 45
3, 12458, Note_on_c, 1, 64, 47
3, 12463, Control_c, 1, 64, 0
3, 12497, Control_c, 1, 64, 127
3, 12632, Note_off_c, 1, 64, 47
3, 12707, Note_on_c, 1, 60, 51
3, 12830, Note_off_c, 1, 60, 51
3, 12956, Note_on_c, 1, 64, 57
3, 13034, Note_off_c, 1, 64, 57
3, 13184, Note_on_c, 1, 60, 47
3, 13262, Note_off_c, 1, 60, 47
3, 13414, Note_on_c, 1, 64, 58
3, 13661, Note_off_c, 1, 64, 58
3, 13664, Note_on_c, 1, 60, 41
3, 13733, Note_off_c, 1, 60, 41
3, 13834, Control_c, 1, 64, 0
3, 13908, Note_on_c, 1, 64, 55
3, 13937, Control_c, 1, 64, 127
3, 14115, Note_off_c, 1, 64, 55
3, 14138, Note_on_c, 1, 60, 52
3, 14228, Note_off_c, 1, 60, 52
3, 14383, Control_c, 1, 64, 0
3, 14383, Note_on_c, 1, 64, 67
3, 14390, Note_on_c, 1, 60, 56
3, 14417, Control_c, 1, 64, 127
3, 14417, Control_c, 1, 64, 127
3, 14635, Note_on_c, 1, 55, 43
3, 14651, Note_off_c, 1, 60, 56
3, 14658, Note_off_c, 1, 64, 67
3, 14848, Note_off_c, 1, 55, 43
3, 14884, Note_on_c, 1, 64, 56
3, 14886, Note_on_c, 1, 60, 55
3, 15118, Note_on_c, 1, 55, 42
3, 15133, Note_off_c, 1, 64, 56
3, 15145, Note_off_c, 1, 60, 55
3, 15309, Control_c, 1, 64, 0
3, 15309, Control_c, 1, 64, 0
3, 15317, Note_off_c, 1, 55, 42
3, 15363, Note_on_c, 1, 59, 50
3, 15366, Note_on_c, 1, 62, 56
3, 15593, Note_on_c, 1, 55, 48
3, 15622, Note_off_c, 1, 59, 50
3, 15623, Note_off_c, 1, 62, 56
3, 15828, Note_on_c, 1, 62, 50
3, 15831, Note_off_c, 1, 55, 48
3, 15833, Note_on_c, 1, 59, 42
3, 16047, Note_on_c, 1, 55, 48
3, 16060, Note_off_c, 1, 59, 42
3, 16074, Note_off_c, 1, 62, 50
3, 16260, Note_off_c, 1, 55, 48
3, 16297, Note_on_c, 1, 60, 61
3, 16529, Note_on_c, 1, 48, 63
3, 16545, Note_off_c, 1, 60, 61
3, 16785, Note_on_c, 1, 52, 64
3, 16812, Note_off_c, 1, 48, 63
3, 17001, Note_off_c, 1, 52, 64
3, 17025, Note_on_c, 1, 55, 42
3, 17256, Note_on_c, 1, 60, 56
3, 17279, Note_off_c, 1, 55, 42
3, 17508, Note_on_c, 1, 64, 63
3, 17514, Note_off_c, 1, 60, 56
3, 17739, Note_on_c, 1, 67, 52
3, 17743, Note_off_c, 1, 64, 63
3, 17990, Note_on_c, 1, 64, 22
3, 18008, Note_off_c, 1, 67, 52
3, 18148, Note_off_c, 1, 64, 22
3, 18229, Note_on_c, 1, 65, 56
3, 18257, Control_c, 1, 64, 127
3, 18257, Control_c, 1, 64, 127
3, 18257, Control_c, 1, 64, 127
3, 18477, Note_on_c, 1, 60, 30
3, 18502, Note_off_c, 1, 65, 56
3, 18568, Note_off_c, 1, 60, 30
3, 18732, Note_on_c, 1, 65, 50
3, 18955, Note_on_c, 1, 60, 55
3, 18993, Note_off_c, 1, 65, 50
3, 19037, Note_off_c, 1, 60, 55
3, 19149, Control_c, 1, 64, 0
3, 19149, Control_c, 1, 64, 0
3, 19188, Note_on_c, 1, 65, 56
3, 19217, Control_c, 1, 64, 127
3, 19217, Control_c, 1, 64, 127
3, 19428, Note_on_c, 1, 60, 43
3, 19469, Note_off_c, 1, 65, 56
3, 19498, Note_off_c, 1, 60, 43
3, 19594, Control_c, 1, 64, 0
3, 19663, Note_on_c, 1, 65, 52
3, 19697, Control_c, 1, 64, 127
3, 19919, Note_on_c, 1, 60, 38
3, 19942, Note_off_c, 1, 65, 52
3, 19978, Note_off_c, 1, 60, 38
3, 20109, Control_c, 1, 64, 0
3, 20109, Control_c, 1, 64, 0
3, 20143, Control_c, 1, 64, 0
3, 20165, Note_on_c, 1, 64, 52
3, 20177, Control_c, 1, 64, 127
3, 20415, Note_on_c, 1, 60, 38
3, 20447, Note_off_c, 1, 64, 52
3, 20510, Note_off_c, 1, 60, 38
3, 20645, Note_on_c, 1, 64, 52
3, 20862, Note_on_c, 1, 60, 36
3, 20890, Note_off_c, 1, 64, 52
3, 20936, Note_off_c, 1, 60, 36
3, 21104, Note_on_c, 1, 64, 46
3, 21353, Note_on_c, 1, 60, 40
3, 21382, Note_off_c, 1, 64, 46
3, 21432, Note_off_c, 1, 60, 40
3, 21514, Control_c, 1, 64, 0
3, 21599, Note_on_c, 1, 64, 48
3, 21617, Control_c, 1, 64, 127
3, 21837, Note_on_c, 1, 60, 55
3, 21873, Note_off_c, 1, 64, 48
3, 21919, Note_off_c, 1, 60, 55
3, 22063, Control_c, 1, 64, 0
3, 22073, Note_on_c, 1, 64, 63
3, 22075, Note_on_c, 1, 60, 57
3, 22316, Note_on_c, 1, 55, 62
3, 22319, Note_off_c, 1, 64, 63
3, 22321, Note_off_c, 1, 60, 57
3, 22382, Note_off_c, 1, 55, 62
3, 22545, Note_on_c, 1, 64, 61
3, 22549, Note_on_c, 1, 60, 56
3, 22791, Note_off_c, 1, 60, 56
3, 22793, Note_on_c, 1, 55, 66
3, 22800, Note_off_c, 1, 64, 61
3, 22857, Note_off_c, 1, 55, 66
3, 23025, Note_on_c, 1, 62, 58
3, 23028, Note_on_c, 1, 65, 67
3, 23256, Note_off_c, 1, 62, 58
3, 23263, Note_off_c, 1, 65, 67
3, 23281, Note_on_c, 1, 55, 62
3, 23383, Note_off_c, 1, 55, 62
3, 23505, Note_on_c, 1, 65, 63
3, 23508, Note_on_c, 1, 62, 57
3, 23722, Note_off_c, 1, 65, 63
3, 23724, Note_off_c, 1, 62, 57
3, 23751, Note_on_c, 1, 55, 68
3, 23825, Note_off_c, 1, 55, 68
3, 23973, Note_on_c, 1, 64, 62
3, 23978, Note_on_c, 1, 60, 63
3, 24410, Channel_aftertouch_c, 1, 1
3, 24419, Channel_aftertouch_c, 1, 3
3, 24428, Channel_aftertouch_c, 1, 5
3, 24450, Channel_aftertouch_c, 1, 6
3, 24463, Channel_aftertouch_c, 1, 7
3, 24472, Channel_aftertouch_c, 1, 9
3, 24485, Channel_aftertouch_c, 1, 10
3, 24499, Channel_aftertouch_c, 1, 12
3, 24513, Channel_aftertouch_c, 1, 13
3, 24535, Channel_aftertouch_c, 1, 14
3, 24548, Channel_aftertouch_c, 1, 15
3, 24566, Channel_aftertouch_c, 1, 16
3, 24575, Channel_aftertouch_c, 1, 18
3, 24589, Channel_aftertouch_c, 1, 20
3, 24607, Channel_aftertouch_c, 1, 21
3, 24655, Channel_aftertouch_c, 1, 22
3, 24664, Channel_aftertouch_c, 1, 24
3, 24674, Channel_aftertouch_c, 1, 25
3, 24697, Channel_aftertouch_c, 1, 27
3, 24741, Channel_aftertouch_c, 1, 25
3, 24755, Channel_aftertouch_c, 1, 23
3, 24759, Channel_aftertouch_c, 1, 20
3, 24764, Channel_aftertouch_c, 1, 16
3, 24769, Channel_aftertouch_c, 1, 12
3, 24773, Channel_aftertouch_c, 1, 6
3, 24778, Channel_aftertouch_c, 1, 1
3, 24782, Channel_aftertouch_c, 1, 0
3, 24842, Note_off_c, 1, 64, 62
3, 24848, Note_off_c, 1, 60, 63
3, 25908, Note_on_c, 1, 64, 61
3, 25921, Note_on_c, 1, 55, 56
3, 25966, Note_off_c, 1, 64, 61
3, 25980, Note_off_c, 1, 55, 56
3, 26421, Note_on_c, 1, 62, 52
3, 26433, Note_on_c, 1, 55, 55
3, 26473, Note_off_c, 1, 62, 52
3, 26482, Note_off_c, 1, 55, 55
3, 26895, Note_on_c, 1, 60, 51
3, 26904, Note_on_c, 1, 55, 57
3, 26956, Note_off_c, 1, 60, 51
3, 26958, Note_off_c, 1, 55, 57
3, 27374, Note_on_c, 1, 59, 41
3, 27380, Note_on_c, 1, 55, 34
3, 27432, Note_off_c, 1, 55, 34
3, 27434, Note_off_c, 1, 59, 41
3, 27825, Note_on_c, 1, 60, 62
3, 28328, Note_off_c, 1, 60, 62
3, 29789, Note_on_c, 1, 55, 55
3, 29792, Note_on_c, 1, 64, 62
3, 29848, Note_off_c, 1, 64, 62
3, 29851, Note_off_c, 1, 55, 55
3, 30269, Note_on_c, 1, 62, 60
3, 30275, Note_on_c, 1, 55, 61
3, 30320, Note_off_c, 1, 62, 60
3, 30323, Note_off_c, 1, 55, 61
3, 30737, Note_on_c, 1, 60, 55
3, 30740, Note_on_c, 1, 55, 56
3, 30776, Note_off_c, 1, 55, 56
3, 30787, Note_off_c, 1, 60, 55
3, 31201, Note_on_c, 1, 59, 53
3, 31205, Note_on_c, 1, 55, 53
3, 31249, Note_off_c, 1, 55, 53
3, 31252, Note_off_c, 1, 59, 53
3, 31693, Note_on_c, 1, 48, 69
3, 31931, Note_on_c, 1, 60, 58
3, 31953, Note_off_c, 1, 48, 69
3, 32182, Note_on_c, 1, 59, 56
3, 32244, Note_off_c, 1, 60, 58
3, 32432, Note_on_c, 1, 58, 50
3, 32445, Note_off_c, 1, 59, 56
3, 32653, Note_on_c, 1, 57, 63
3, 32667, Note_off_c, 1, 58, 50
3, 32707, Note_off_c, 1, 57, 63
3, 32893, Note_on_c, 1, 57, 68
3, 33167, Note_on_c, 1, 55, 64
3, 33247, Note_off_c, 1, 57, 68
3, 33382, Note_on_c, 1, 53, 68
3, 33388, Note_off_c, 1, 55, 64
3, 33579, Note_off_c, 1, 53, 68
3, 33610, Note_on_c, 1, 52, 67
3, 33662, Note_off_c, 1, 52, 67
3, 34073, Note_on_c, 1, 48, 73
3, 34127, Note_off_c, 1, 48, 73
3, 35085, Note_on_c, 1, 60, 63
3, 35089, Note_on_c, 1, 48, 63
3, 35190, Note_off_c, 1, 48, 63
3, 35206, Note_off_c, 1, 60, 63
3, 35520, Note_on_c, 1, 55, 58
3, 35520, Note_on_c, 1, 64, 67
3, 36234, Note_off_c, 1, 55, 58
3, 36240, Note_on_c, 1, 60, 50
3, 36400, Note_off_c, 1, 64, 67
3, 36477, Note_off_c, 1, 60, 50
3, 36485, Note_on_c, 1, 59, 58
3, 36705, Note_on_c, 1, 43, 64
3, 36708, Note_off_c, 1, 59, 58
3, 36950, Note_on_c, 1, 47, 63
3, 36961, Note_off_c, 1, 43, 64
3, 37195, Note_off_c, 1, 47, 63
3, 37196, Note_on_c, 1, 50, 66
3, 37375, Note_off_c, 1, 50, 66
3, 37441, Note_on_c, 1, 55, 67
3, 37457, Control_c, 1, 64, 127
3, 37678, Note_on_c, 1, 59, 58
3, 37716, Note_off_c, 1, 55, 67
3, 37901, Note_on_c, 1, 62, 60
3, 37923, Note_off_c, 1, 59, 58
3, 38062, Note_off_c, 1, 62, 60
3, 38370, Note_on_c, 1, 55, 55
3, 38634, Note_on_c, 1, 59, 61
3, 38656, Note_off_c, 1, 55, 55
3, 38794, Control_c, 1, 64, 0
3, 38870, Note_on_c, 1, 62, 53
3, 38878, Note_off_c, 1, 59, 61
3, 38897, Control_c, 1, 64, 127
3, 39013, Note_off_c, 1, 62, 53
3, 39343, Control_c, 1, 64, 0
3, 39344, Note_on_c, 1, 55, 57
3, 39377, Control_c, 1, 64, 127
3, 39583, Note_on_c, 1, 60, 53
3, 39618, Note_off_c, 1, 55, 57
3, 39837, Note_on_c, 1, 64, 33
3, 39860, Note_off_c, 1, 60, 53
3, 40082, Note_off_c, 1, 64, 33
3, 40083, Note_on_c, 1, 60, 43
3, 40173, Note_off_c, 1, 60, 43
3, 40314, Note_on_c, 1, 55, 55
3, 40559, Note_on_c, 1, 60, 42
3, 40598, Note_off_c, 1, 55, 55
3, 40714, Control_c, 1, 64, 0
3, 40792, Note_on_c, 1, 64, 46
3, 40815, Note_off_c, 1, 60, 42
3, 40817, Control_c, 1, 64, 127
3, 40914, Note_off_c, 1, 64, 46
3, 41042, Note_on_c, 1, 60, 50
3, 41150, Note_off_c, 1, 60, 50
3, 41263, Control_c, 1, 64, 0
3, 41273, Note_on_c, 1, 54, 52
3, 41297, Control_c, 1, 64, 127
3, 41297, Control_c, 1, 64, 127
3, 41531, Note_on_c, 1, 57, 51
3, 41558, Note_off_c, 1, 54, 52
3, 41774, Note_on_c, 1, 60, 57
3, 41820, Note_off_c, 1, 57, 51
3, 41884, Note_off_c, 1, 60, 57
3, 42189, Control_c, 1, 64, 0
3, 42189, Control_c, 1, 64, 0
3, 42269, Note_on_c, 1, 54, 56
3, 42494, Note_on_c, 1, 57, 58
3, 42526, Note_off_c, 1, 54, 56
3, 42731, Note_on_c, 1, 60, 56
3, 42743, Note_off_c, 1, 57, 58
3, 42808, Note_off_c, 1, 60, 56
3, 43186, Note_on_c, 1, 55, 63
3, 43217, Control_c, 1, 64, 127
3, 43217, Control_c, 1, 64, 127
3, 43445, Note_on_c, 1, 59, 56
3, 43475, Note_off_c, 1, 55, 63
3, 43680, Note_off_c, 1, 59, 56
3, 43690, Note_on_c, 1, 62, 63
3, 43729, Note_off_c, 1, 62, 63
3, 43929, Note_on_c, 1, 62, 60
3, 43977, Note_off_c, 1, 62, 60
3, 44109, Control_c, 1, 64, 0
3, 44109, Control_c, 1, 64, 0
3, 44177, Control_c, 1, 64, 127
3, 44177, Control_c, 1, 64, 127
3, 44184, Note_on_c, 1, 55, 64
3, 44414, Note_on_c, 1, 59, 58
3, 44443, Note_off_c, 1, 55, 64
3, 44625, Note_off_c, 1, 59, 58
3, 44645, Note_on_c, 1, 62, 63
3, 44704, Note_off_c, 1, 62, 63
3, 44893, Note_on_c, 1, 62, 57
3, 44950, Note_off_c, 1, 62, 57
3, 45069, Control_c, 1, 64, 0
3, 45069, Control_c, 1, 64, 0
3, 45140, Note_on_c, 1, 55, 57
3, 45360, Note_on_c, 1, 59, 56
3, 45424, Note_off_c, 1, 55, 57
3, 45611, Note_on_c, 1, 62, 57
3, 45614, Note_off_c, 1, 59, 56
3, 45670, Note_off_c, 1, 62, 57
3, 46058, Note_on_c, 1, 55, 57
3, 46313, Note_on_c, 1, 59, 48
3, 46335, Note_off_c, 1, 55, 57
3, 46569, Note_off_c, 1, 59, 48
3, 46571, Note_on_c, 1, 62, 47
3, 46788, Note_off_c, 1, 62, 47
3, 47009, Note_on_c, 1, 55, 57
3, 47255, Note_on_c, 1, 60, 51
3, 47273, Note_off_c, 1, 55, 57
3, 47490, Note_on_c, 1, 64, 55
3, 47512, Note_off_c, 1, 60, 51
3, 47732, Note_on_c, 1, 60, 46
3, 47769, Note_off_c, 1, 64, 55
3, 47862, Note_off_c, 1, 60, 46
3, 47965, Note_on_c, 1, 55, 53
3, 48216, Note_on_c, 1, 60, 47
3, 48435, Note_off_c, 1, 55, 53
3, 48460, Note_on_c, 1, 64, 42
3, 48475, Note_off_c, 1, 60, 47
3, 48691, Note_off_c, 1, 64, 42
3, 48694, Note_on_c, 1, 60, 53
3, 48819, Note_off_c, 1, 60, 53
3, 48950, Note_on_c, 1, 54, 63
3, 48953, Note_on_c, 1, 57, 61
3, 48955, Note_on_c, 1, 62, 68
3, 48960, Note_on_c, 1, 60, 63
3, 48977, Control_c, 1, 64, 127
3, 48977, Control_c, 1, 64, 127
3, 49686, Channel_aftertouch_c, 1, 1
3, 49722, Channel_aftertouch_c, 1, 2
3, 49754, Channel_aftertouch_c, 1, 3
3, 49808, Channel_aftertouch_c, 1, 4
3, 49856, Channel_aftertouch_c, 1, 5
3, 49869, Control_c, 1, 64, 0
3, 49869, Control_c, 1, 64, 0
3, 49893, Channel_aftertouch_c, 1, 6
3, 49937, Control_c, 1, 64, 127
3, 49937, Control_c, 1, 64, 127
3, 50030, Channel_aftertouch_c, 1, 7
3, 50048, Channel_aftertouch_c, 1, 9
3, 50067, Channel_aftertouch_c, 1, 11
3, 50107, Channel_aftertouch_c, 1, 12
3, 50120, Channel_aftertouch_c, 1, 13
3, 50144, Channel_aftertouch_c, 1, 14
3, 50170, Channel_aftertouch_c, 1, 15
3, 50219, Channel_aftertouch_c, 1, 16
3, 50385, Channel_aftertouch_c, 1, 14
3, 50389, Channel_aftertouch_c, 1, 11
3, 50393, Channel_aftertouch_c, 1, 7
3, 50398, Channel_aftertouch_c, 1, 2
3, 50402, Channel_aftertouch_c, 1, 0
3, 50445, Note_off_c, 1, 60, 63
3, 50450, Note_off_c, 1, 57, 61
3, 50456, Note_off_c, 1, 54, 63
3, 50465, Note_off_c, 1, 62, 68
3, 50829, Control_c, 1, 64, 0
3, 50829, Control_c, 1, 64, 0
3, 50874, Note_on_c, 1, 55, 52
3, 51041, Note_on_c, 1, 59, 41
3, 51113, Note_off_c, 1, 55, 52
3, 51159, Note_off_c, 1, 59, 41
3, 51170, Note_on_c, 1, 67, 36
3, 51336, Note_on_c, 1, 57, 56
3, 51348, Note_off_c, 1, 67, 36
3, 51502, Note_on_c, 1, 60, 42
3, 51594, Note_off_c, 1, 57, 56
3, 51648, Note_on_c, 1, 67, 55
3, 51665, Note_off_c, 1, 60, 42
3, 51818, Note_on_c, 1, 59, 55
3, 51833, Note_off_c, 1, 67, 55
3, 51971, Note_on_c, 1, 62, 37
3, 52067, Note_off_c, 1, 59, 55
3, 52098, Note_off_c, 1, 62, 37
3, 52142, Note_on_c, 1, 67, 46
3, 52304, Note_off_c, 1, 67, 46
3, 52308, Note_on_c, 1, 55, 45
3, 52471, Note_on_c, 1, 59, 46
3, 52574, Note_off_c, 1, 55, 45
3, 52595, Note_off_c, 1, 59, 46
3, 52608, Note_on_c, 1, 67, 50
3, 52765, Note_off_c, 1, 67, 50
3, 52779, Note_on_c, 1, 60, 56
3, 52817, Control_c, 1, 64, 127
3, 52942, Note_on_c, 1, 64, 37
3, 52987, Note_off_c, 1, 60, 56
3, 53085, Note_on_c, 1, 67, 50
3, 53088, Note_off_c, 1, 64, 37
3, 53253, Note_off_c, 1, 67, 50
3, 53278, Note_on_c, 1, 60, 42
3, 53432, Note_on_c, 1, 64, 30
3, 53474, Note_off_c, 1, 60, 42
3, 53588, Note_on_c, 1, 67, 27
3, 53592, Note_off_c, 1, 64, 30
3, 53768, Note_on_c, 1, 60, 45
3, 53771, Note_off_c, 1, 67, 27
3, 53918, Note_on_c, 1, 64, 38
3, 53973, Note_off_c, 1, 60, 45
3, 54070, Note_on_c, 1, 67, 36
3, 54074, Note_off_c, 1, 64, 38
3, 54154, Control_c, 1, 64, 0
3, 54241, Note_on_c, 1, 60, 50
3, 54257, Control_c, 1, 64, 127
3, 54258, Note_off_c, 1, 67, 36
3, 54398, Note_on_c, 1, 64, 47
3, 54496, Note_off_c, 1, 60, 50
3, 54513, Note_off_c, 1, 64, 47
3, 54564, Note_on_c, 1, 67, 45
3, 54703, Control_c, 1, 64, 0
3, 54715, Note_off_c, 1, 67, 45
3, 54727, Note_on_c, 1, 55, 67
3, 54890, Note_on_c, 1, 59, 55
3, 55006, Note_off_c, 1, 55, 67
3, 55050, Note_on_c, 1, 67, 58
3, 55062, Note_off_c, 1, 59, 55
3, 55206, Note_on_c, 1, 57, 62
3, 55208, Note_off_c, 1, 67, 58
3, 55217, Note_on_c, 1, 55, 50
3, 55255, Note_off_c, 1, 55, 50
3, 55382, Note_on_c, 1, 60, 53
3, 55480, Note_off_c, 1, 57, 62
3, 55528, Note_on_c, 1, 67, 56
3, 55564, Note_off_c, 1, 60, 53
3, 55695, Note_on_c, 1, 59, 64
3, 55721, Note_off_c, 1, 67, 56
3, 55845, Note_on_c, 1, 62, 56
3, 55970, Note_off_c, 1, 59, 64
3, 55985, Note_off_c, 1, 62, 56
3, 55998, Note_on_c, 1, 67, 53
3, 56173, Note_on_c, 1, 55, 66
3, 56183, Note_off_c, 1, 67, 53
3, 56333, Note_on_c, 1, 59, 67
3, 56425, Note_off_c, 1, 55, 66
3, 56465, Note_off_c, 1, 59, 67
3, 56482, Note_on_c, 1, 67, 48
3, 56610, Note_off_c, 1, 67, 48
3, 56641, Note_on_c, 1, 60, 55
3, 56657, Control_c, 1, 64, 127
3, 56789, Note_on_c, 1, 64, 46
3, 56829, Note_off_c, 1, 60, 55
3, 56932, Note_off_c, 1, 64, 46
3, 56953, Note_on_c, 1, 67, 32
3, 57121, Note_off_c, 1, 67, 32
3, 57124, Note_on_c, 1, 60, 46
3, 57270, Note_on_c, 1, 64, 30
3, 57344, Note_off_c, 1, 60, 46
3, 57407, Note_on_c, 1, 67, 35
3, 57418, Note_off_c, 1, 64, 30
3, 57577, Note_on_c, 1, 60, 53
3, 57594, Note_off_c, 1, 67, 35
3, 57744, Note_on_c, 1, 64, 32
3, 57790, Note_off_c, 1, 60, 53
3, 57912, Note_on_c, 1, 67, 37
3, 57927, Note_off_c, 1, 64, 32
3, 57994, Control_c, 1, 64, 0
3, 58084, Note_on_c, 1, 60, 55
3, 58097, Control_c, 1, 64, 127
3, 58107, Note_off_c, 1, 67, 37
3, 58232, Note_on_c, 1, 64, 52
3, 58334, Note_off_c, 1, 60, 55
3, 58348, Note_off_c, 1, 64, 52
3, 58368, Note_on_c, 1, 67, 55
3, 58509, Note_off_c, 1, 67, 55
3, 58543, Control_c, 1, 64, 0
3, 58564, Note_on_c, 1, 55, 76
3, 58578, Channel_aftertouch_c, 1, 4
3, 58582, Channel_aftertouch_c, 1, 20
3, 58587, Channel_aftertouch_c, 1, 38
3, 58591, Channel_aftertouch_c, 1, 57
3, 58595, Channel_aftertouch_c, 1, 70
3, 58601, Channel_aftertouch_c, 1, 69
3, 58605, Channel_aftertouch_c, 1, 55
3, 58610, Channel_aftertouch_c, 1, 32
3, 58614, Channel_aftertouch_c, 1, 9
3, 58618, Channel_aftertouch_c, 1, 2
3, 58622, Channel_aftertouch_c, 1, 0
3, 58702, Note_off_c, 1, 55, 76
3, 59501, Note_on_c, 1, 48, 68
3, 59634, Note_off_c, 1, 48, 68
3, 60480, Note_on_c, 1, 50, 64
3, 60533, Note_off_c, 1, 50, 64
3, 60960, Note_on_c, 1, 51, 68
3, 60960, Note_on_c, 1, 57, 58
3, 60960, Note_on_c, 1, 54, 43
3, 61918, Note_off_c, 1, 51, 68
3, 61918, Note_off_c, 1, 57, 58
3, 61918, Note_off_c, 1, 54, 43
3, 61920, Note_on_c, 1, 55, 20
3, 61920, Note_on_c, 1, 52, 26
3, 62398, Note_off_c, 1, 55, 20
3, 62398, Note_off_c, 1, 52, 26
3, 62419, Note_on_c, 1, 52, 56
3, 62428, Note_on_c, 1, 48, 41
3, 63171, Note_off_c, 1, 48, 41
3, 63173, Note_off_c, 1, 52, 56
3, 64797, Note_on_c, 1, 59, 57
3, 64808, Note_on_c, 1, 50, 53
3, 65211, Note_off_c, 1, 50, 53
3, 65281, Note_on_c, 1, 60, 56
3, 65311, Note_on_c, 1, 50, 22
3, 65331, Note_off_c, 1, 59, 57
3, 66240, Note_on_c, 1, 59, 38
3, 66240, Note_on_c, 1, 55, 48
3, 66245, Note_off_c, 1, 60, 56
3, 66254, Note_off_c, 1, 50, 22
3, 66331, Note_off_c, 1, 59, 38
3, 66625, Note_off_c, 1, 55, 48
3, 66720, Note_on_c, 1, 43, 64
3, 66863, Note_off_c, 1, 43, 64
3, 70546, Note_on_c, 1, 62, 52
3, 70549, Note_on_c, 1, 54, 53
3, 71021, Note_off_c, 1, 54, 53
3, 71024, Note_on_c, 1, 55, 58
3, 71233, Note_off_c, 1, 62, 52
3, 71346, Note_off_c, 1, 55, 58
3, 71967, Note_on_c, 1, 48, 47
3, 71977, Note_on_c, 1, 55, 51
3, 72503, Note_off_c, 1, 48, 47
3, 72564, Note_off_c, 1, 55, 51
3, 73411, Note_on_c, 1, 49, 48
3, 73413, Note_on_c, 1, 52, 55
3, 73573, Note_off_c, 1, 49, 48
3, 73576, Note_off_c, 1, 52, 55
3, 73894, Note_on_c, 1, 50, 60
3, 73902, Note_on_c, 1, 55, 55
3, 74405, Note_on_c, 1, 54, 62
3, 74411, Note_off_c, 1, 55, 55
3, 74597, Note_off_c, 1, 54, 62
3, 74601, Note_off_c, 1, 50, 60
3, 74876, Note_on_c, 1, 62, 91
3, 75226, Note_on_c, 1, 64, 64
3, 75264, Note_off_c, 1, 62, 91
3, 75300, Note_on_c, 1, 66, 67
3, 75326, Note_off_c, 1, 64, 64
3, 75345, Note_on_c, 1, 67, 58
3, 75397, Note_off_c, 1, 66, 67
3, 75429, Note_off_c, 1, 67, 58
3, 75591, Note_on_c, 1, 66, 84
3, 75651, Note_off_c, 1, 66, 84
3, 75826, Note_on_c, 1, 64, 82
3, 75884, Note_off_c, 1, 64, 82
3, 76075, Note_on_c, 1, 62, 55
3, 76149, Note_off_c, 1, 62, 55
3, 76310, Note_on_c, 1, 60, 51
3, 76382, Note_off_c, 1, 60, 51
3, 76562, Note_on_c, 1, 59, 34
3, 76623, Note_off_c, 1, 59, 34
3, 76803, Note_on_c, 1, 57, 52
3, 76853, Note_off_c, 1, 57, 52
3, 77291, Note_on_c, 1, 59, 55
3, 77336, Note_off_c, 1, 59, 55
3, 77776, Note_on_c, 1, 60, 68
3, 77830, Note_off_c, 1, 60, 68
3, 78256, Note_on_c, 1, 61, 84
3, 78331, Note_off_c, 1, 61, 84
3, 78715, Note_on_c, 1, 62, 79
3, 78844, Note_off_c, 1, 62, 79
3, 79191, Note_on_c, 1, 63, 66
3, 79254, Note_off_c, 1, 63, 66
3, 79674, Note_on_c, 1, 64, 68
3, 79906, Note_off_c, 1, 64, 68
3, 80178, Note_on_c, 1, 57, 42
3, 80180, Note_on_c, 1, 48, 57
3, 80384, Note_off_c, 1, 48, 57
3, 80447, Note_off_c, 1, 57, 42
3, 80618, Note_on_c, 1, 59, 58
3, 80621, Note_on_c, 1, 50, 62
3, 80916, Note_off_c, 1, 59, 58
3, 81083, Note_on_c, 1, 60, 47
3, 81249, Note_off_c, 1, 50, 62
3, 81374, Note_off_c, 1, 60, 47
3, 81550, Note_on_c, 1, 55, 23
3, 81617, Control_c, 1, 64, 127
3, 81795, Note_on_c, 1, 59, 50
3, 82034, Note_on_c, 1, 62, 55
3, 82049, Note_off_c, 1, 59, 50
3, 82073, Note_off_c, 1, 55, 23
3, 82311, Note_on_c, 1, 59, 58
3, 82314, Note_off_c, 1, 62, 55
3, 82584, Note_on_c, 1, 55, 57
3, 82587, Note_off_c, 1, 59, 58
3, 82784, Note_off_c, 1, 55, 57
3, 82787, Note_on_c, 1, 60, 32
3, 82954, Control_c, 1, 64, 0
3, 83033, Note_on_c, 1, 64, 45
3, 83057, Control_c, 1, 64, 127
3, 83073, Note_off_c, 1, 60, 32
3, 83271, Note_on_c, 1, 60, 35
3, 83316, Note_off_c, 1, 64, 45
3, 83471, Note_off_c, 1, 60, 35
3, 83488, Note_on_c, 1, 55, 46
3, 83503, Control_c, 1, 64, 0
3, 83726, Note_on_c, 1, 59, 57
3, 83769, Note_off_c, 1, 55, 46
3, 83988, Note_on_c, 1, 62, 35
3, 83998, Note_off_c, 1, 59, 57
3, 84234, Note_off_c, 1, 62, 35
3, 84236, Note_on_c, 1, 59, 40
3, 84485, Note_on_c, 1, 55, 56
3, 84495, Note_off_c, 1, 59, 40
3, 84497, Control_c, 1, 64, 127
3, 84704, Note_on_c, 1, 60, 38
3, 84749, Note_off_c, 1, 55, 56
3, 84937, Note_on_c, 1, 64, 40
3, 85076, Note_off_c, 1, 64, 40
3, 85181, Note_off_c, 1, 60, 38
3, 85398, Note_on_c, 1, 55, 46
3, 85400, Note_on_c, 1, 62, 56
3, 85404, Note_on_c, 1, 59, 46
3, 85538, Note_off_c, 1, 62, 56
3, 85568, Note_off_c, 1, 59, 46
3, 85586, Note_off_c, 1, 55, 46
3, 85834, Control_c, 1, 64, 0
3, 85913, Note_on_c, 1, 72, 63
3, 85937, Control_c, 1, 64, 127
3, 86376, Note_on_c, 1, 71, 53
3, 86383, Control_c, 1, 64, 0
3, 86418, Note_off_c, 1, 72, 63
3, 86444, Note_off_c, 1, 71, 53
3, 86849, Note_on_c, 1, 72, 62
3, 87346, Note_on_c, 1, 71, 61
3, 87380, Note_off_c, 1, 72, 62
3, 87444, Note_off_c, 1, 71, 61
3, 87838, Note_on_c, 1, 66, 56
3, 87912, Note_off_c, 1, 66, 56
3, 88112, Note_on_c, 1, 66, 51
3, 88191, Note_off_c, 1, 66, 51
3, 88358, Note_on_c, 1, 67, 57
3, 88422, Note_off_c, 1, 67, 57
3, 88576, Note_on_c, 1, 67, 68
3, 88647, Note_off_c, 1, 67, 68
3, 88779, Note_on_c, 1, 69, 66
3, 88851, Note_off_c, 1, 69, 66
3, 89006, Note_on_c, 1, 69, 71
3, 89095, Note_off_c, 1, 69, 71
3, 89256, Note_on_c, 1, 71, 64
3, 89521, Note_off_c, 1, 71, 64
3, 91690, Note_on_c, 1, 48, 57
3, 91693, Note_on_c, 1, 52, 58
3, 91696, Note_on_c, 1, 57, 55
3, 92000, Note_off_c, 1, 48, 57
3, 92001, Note_off_c, 1, 52, 58
3, 92011, Note_off_c, 1, 57, 55
3, 92199, Note_on_c, 1, 55, 53
3, 92202, Note_on_c, 1, 59, 60
3, 92205, Note_on_c, 1, 50, 55
3, 92549, Note_off_c, 1, 55, 53
3, 92681, Note_on_c, 1, 60, 56
3, 92697, Note_on_c, 1, 57, 53
3, 92708, Note_off_c, 1, 59, 60
3, 93002, Note_off_c, 1, 50, 55
3, 93022, Note_off_c, 1, 60, 56
3, 93082, Note_off_c, 1, 57, 53
3, 93137, Control_c, 1, 64, 127
3, 93173, Note_on_c, 1, 55, 56
3, 93402, Note_on_c, 1, 59, 41
3, 93486, Note_off_c, 1, 55, 56
3, 93649, Note_on_c, 1, 62, 46
3, 93683, Note_off_c, 1, 59, 41
3, 93867, Note_on_c, 1, 59, 58
3, 93888, Note_off_c, 1, 62, 46
3, 94090, Note_on_c, 1, 55, 45
3, 94107, Note_off_c, 1, 59, 58
3, 94276, Note_off_c, 1, 55, 45
3, 94310, Note_on_c, 1, 60, 47
3, 94474, Control_c, 1, 64, 0
3, 94558, Note_on_c, 1, 64, 56
3, 94577, Control_c, 1, 64, 127
3, 94593, Note_off_c, 1, 60, 47
3, 94809, Note_on_c, 1, 60, 56
3, 94836, Note_off_c, 1, 64, 56
3, 95004, Note_off_c, 1, 60, 56
3, 95008, Note_on_c, 1, 55, 48
3, 95023, Control_c, 1, 64, 0
3, 95254, Note_on_c, 1, 59, 47
3, 95289, Note_off_c, 1, 55, 48
3, 95504, Note_on_c, 1, 62, 48
3, 95512, Note_off_c, 1, 59, 47
3, 95749, Note_on_c, 1, 59, 55
3, 95769, Note_off_c, 1, 62, 48
3, 95983, Note_on_c, 1, 55, 46
3, 95992, Note_off_c, 1, 59, 55
3, 96201, Note_off_c, 1, 55, 46
3, 96212, Note_on_c, 1, 60, 46
3, 96455, Note_on_c, 1, 64, 55
3, 96486, Note_off_c, 1, 60, 46
3, 96695, Note_on_c, 1, 60, 56
3, 96697, Note_off_c, 1, 64, 55
3, 96940, Note_off_c, 1, 60, 56
3, 96942, Note_on_c, 1, 62, 61
3, 96944, Note_on_c, 1, 55, 31
3, 96947, Note_on_c, 1, 59, 61
3, 97067, Note_off_c, 1, 62, 61
3, 97084, Note_off_c, 1, 55, 31
3, 97086, Note_off_c, 1, 59, 61
3, 97446, Note_on_c, 1, 72, 64
3, 97925, Note_on_c, 1, 71, 61
3, 97954, Note_off_c, 1, 72, 64
3, 98007, Note_off_c, 1, 71, 61
3, 98405, Note_on_c, 1, 72, 67
3, 98881, Note_on_c, 1, 71, 62
3, 98904, Note_off_c, 1, 72, 67
3, 98945, Note_off_c, 1, 71, 62
3, 99364, Note_on_c, 1, 66, 52
3, 99431, Note_off_c, 1, 66, 52
3, 99618, Note_on_c, 1, 66, 48
3, 99687, Note_off_c, 1, 66, 48
3, 99886, Note_on_c, 1, 67, 67
3, 99938, Note_off_c, 1, 67, 67
3, 100097, Note_on_c, 1, 67, 68
3, 100163, Note_off_c, 1, 67, 68
3, 100318, Note_on_c, 1, 69, 68
3, 100385, Note_off_c, 1, 69, 68
3, 100551, Note_on_c, 1, 69, 68
3, 100626, Note_off_c, 1, 69, 68
3, 100803, Note_on_c, 1, 71, 62
3, 100817, Control_c, 1, 64, 127
3, 101199, Note_off_c, 1, 71, 62
3, 102154, Control_c, 1, 64, 0
3, 102257, Control_c, 1, 64, 127
3, 102703, Control_c, 1, 64, 0
3, 103200, Note_on_c, 1, 52, 46
3, 103203, Note_on_c, 1, 48, 37
3, 103205, Note_on_c, 1, 57, 46
3, 103485, Note_off_c, 1, 57, 46
3, 103498, Note_off_c, 1, 48, 37
3, 103500, Note_off_c, 1, 52, 46
3, 103696, Note_on_c, 1, 55, 51
3, 103698, Note_on_c, 1, 59, 51
3, 103701, Note_on_c, 1, 50, 51
3, 103941, Note_off_c, 1, 55, 51
3, 104187, Note_on_c, 1, 60, 64
3, 104190, Note_on_c, 1, 57, 51
3, 104266, Note_off_c, 1, 59, 51
3, 104537, Note_off_c, 1, 57, 51
3, 104636, Note_off_c, 1, 60, 64
3, 104664, Note_off_c, 1, 50, 51
3, 104696, Note_on_c, 1, 55, 79
3, 104823, Note_on_c, 1, 50, 19
3, 104864, Note_off_c, 1, 50, 19
3, 105039, Note_on_c, 1, 50, 61
3, 105048, Note_off_c, 1, 55, 79
3, 105127, Note_off_c, 1, 50, 61
3, 105146, Note_on_c, 1, 59, 82
3, 105476, Note_on_c, 1, 55, 60
3, 105484, Note_off_c, 1, 59, 82
3, 105580, Note_on_c, 1, 62, 79
3, 105586, Note_off_c, 1, 55, 60
3, 105712, Note_off_c, 1, 62, 79
3, 106584, Note_on_c, 1, 59, 66
3, 106584, Note_on_c, 1, 55, 66
3, 106584, Note_on_c, 1, 50, 66
3, 106919, Note_off_c, 1, 59, 66
3, 106919, Note_off_c, 1, 55, 66
3, 106919, Note_off_c, 1, 50, 66
3, 107543, Note_on_c, 1, 54, 46
3, 107543, Note_on_c, 1, 60, 46
3, 107543, Note_on_c, 1, 50, 46
3, 107996, Note_off_c, 1, 54, 46
3, 107996, Note_off_c, 1, 60, 46
3, 107996, Note_off_c, 1, 50, 46
3, 108497, Control_c, 1, 64, 127
3, 108533, Note_on_c, 1, 55, 82
3, 108606, Note_off_c, 1, 55, 82
3, 108646, Note_on_c, 1, 50, 79
3, 108703, Note_off_c, 1, 50, 79
3, 108771, Note_on_c, 1, 55, 68
3, 108876, Note_on_c, 1, 50, 76
3, 108881, Note_off_c, 1, 55, 68
3, 108956, Note_off_c, 1, 50, 76
3, 108986, Note_on_c, 1, 59, 69
3, 109086, Note_on_c, 1, 55, 64
3, 109091, Note_off_c, 1, 59, 69
3, 109205, Note_on_c, 1, 59, 76
3, 109216, Note_off_c, 1, 55, 64
3, 109306, Note_on_c, 1, 55, 64
3, 109337, Note_off_c, 1, 59, 76
3, 109416, Note_off_c, 1, 55, 64
3, 109436, Note_on_c, 1, 62, 76
3, 109539, Note_off_c, 1, 62, 76
3, 109834, Control_c, 1, 64, 0
3, 109937, Control_c, 1, 64, 127
3, 110383, Control_c, 1, 64, 0
3, 110424, Note_on_c, 1, 50, 66
3, 110424, Note_on_c, 1, 55, 66
3, 110424, Note_on_c, 1, 59, 66
3, 110759, Note_off_c, 1, 50, 66
3, 110759, Note_off_c, 1, 55, 66
3, 110759, Note_off_c, 1, 59, 66
3, 111383, Note_on_c, 1, 50, 46
3, 111383, Note_on_c, 1, 60, 46
3, 111383, Note_on_c, 1, 54, 46
3, 111836, Note_off_c, 1, 50, 46
3, 111836, Note_off_c, 1, 60, 46
3, 111836, Note_off_c, 1, 54, 46
3, 112310, Note_on_c, 1, 59, 73
3, 112310, Note_on_c, 1, 55, 73
3, 112371, Note_off_c, 1, 59, 73
3, 112371, Note_off_c, 1, 55, 73
3, 112816, Note_on_c, 1, 55, 46
3, 112915, Note_off_c, 1, 55, 46
3, 113297, Note_on_c, 1, 43, 45
3, 113608, Note_off_c, 1, 43, 45
3, 114240, Note_on_c, 1, 64, 46
3, 114504, Note_on_c, 1, 60, 29
3, 114507, Note_off_c, 1, 64, 46
3, 114712, Note_off_c, 1, 60, 29
3, 114729, Note_on_c, 1, 64, 55
3, 114955, Note_on_c, 1, 60, 46
3, 114967, Note_off_c, 1, 64, 55
3, 115203, Note_on_c, 1, 64, 45
3, 115213, Note_off_c, 1, 60, 46
3, 115427, Note_on_c, 1, 60, 56
3, 115433, Note_off_c, 1, 64, 45
3, 115701, Note_off_c, 1, 60, 56
3, 115703, Note_on_c, 1, 65, 36
3, 115908, Note_on_c, 1, 60, 33
3, 115911, Note_off_c, 1, 65, 36
3, 116166, Note_on_c, 1, 64, 43
3, 116172, Note_off_c, 1, 60, 33
3, 116387, Note_on_c, 1, 60, 43
3, 116389, Note_off_c, 1, 64, 43
3, 116625, Note_on_c, 1, 64, 46
3, 116633, Note_off_c, 1, 60, 43
3, 116846, Note_off_c, 1, 64, 46
3, 116847, Note_on_c, 1, 60, 50
3, 117078, Note_on_c, 1, 64, 42
3, 117082, Note_off_c, 1, 60, 50
3, 117327, Note_off_c, 1, 64, 42
3, 117338, Note_on_c, 1, 60, 21
3, 117594, Note_off_c, 1, 60, 21
3, 117596, Note_on_c, 1, 64, 32
3, 117840, Note_on_c, 1, 60, 48
3, 117846, Note_off_c, 1, 64, 32
3, 118094, Note_on_c, 1, 64, 42
3, 118097, Control_c, 1, 64, 127
3, 118104, Note_off_c, 1, 60, 48
3, 118343, Note_off_c, 1, 64, 42
3, 118358, Note_on_c, 1, 60, 45
3, 118423, Note_off_c, 1, 60, 45
3, 118583, Note_on_c, 1, 64, 46
3, 118827, Note_off_c, 1, 64, 46
3, 118838, Note_on_c, 1, 60, 31
3, 119049, Note_off_c, 1, 60, 31
3, 119076, Note_on_c, 1, 64, 40
3, 119299, Note_on_c, 1, 60, 42
3, 119317, Note_off_c, 1, 64, 40
3, 119434, Control_c, 1, 64, 0
3, 119537, Control_c, 1, 64, 127
3, 119537, Note_off_c, 1, 60, 42
3, 119566, Note_on_c, 1, 65, 41
3, 119759, Note_off_c, 1, 65, 41
3, 119769, Note_on_c, 1, 60, 45
3, 119918, Note_off_c, 1, 60, 45
3, 119983, Control_c, 1, 64, 0
3, 120023, Note_on_c, 1, 64, 48
3, 120237, Note_on_c, 1, 60, 38
3, 120243, Note_off_c, 1, 64, 48
3, 120478, Note_off_c, 1, 60, 38
3, 120487, Note_on_c, 1, 64, 36
3, 120721, Note_on_c, 1, 60, 48
3, 120724, Note_off_c, 1, 64, 36
3, 120950, Note_off_c, 1, 60, 48
3, 120953, Note_on_c, 1, 64, 35
3, 121213, Note_on_c, 1, 60, 43
3, 121215, Note_off_c, 1, 64, 35
3, 121446, Note_off_c, 1, 60, 43
3, 121455, Note_on_c, 1, 64, 46
3, 121686, Note_off_c, 1, 64, 46
3, 121694, Note_on_c, 1, 60, 55
3, 121923, Note_off_c, 1, 60, 55
3, 121935, Note_on_c, 1, 65, 48
3, 121937, Control_c, 1, 64, 127
3, 122140, Note_off_c, 1, 65, 48
3, 122165, Note_on_c, 1, 60, 27
3, 122278, Note_off_c, 1, 60, 27
3, 122395, Note_on_c, 1, 65, 48
3, 122488, Note_off_c, 1, 65, 48
3, 122631, Note_on_c, 1, 60, 30
3, 122753, Note_off_c, 1, 60, 30
3, 122873, Note_on_c, 1, 65, 52
3, 123107, Note_off_c, 1, 65, 52
3, 123116, Note_on_c, 1, 60, 46
3, 123198, Note_off_c, 1, 60, 46
3, 123274, Control_c, 1, 64, 0
3, 123358, Note_on_c, 1, 65, 43
3, 123377, Control_c, 1, 64, 127
3, 123593, Note_on_c, 1, 60, 45
3, 123600, Note_off_c, 1, 65, 43
3, 123661, Note_off_c, 1, 60, 45
3, 123823, Control_c, 1, 64, 0
3, 123843, Note_on_c, 1, 64, 47
3, 123857, Control_c, 1, 64, 127
3, 124017, Note_off_c, 1, 64, 47
3, 124092, Note_on_c, 1, 60, 51
3, 124215, Note_off_c, 1, 60, 51
3, 124341, Note_on_c, 1, 64, 57
3, 124419, Note_off_c, 1, 64, 57
3, 124569, Note_on_c, 1, 60, 47
3, 124647, Note_off_c, 1, 60, 47
3, 124799, Note_on_c, 1, 64, 58
3, 125046, Note_off_c, 1, 64, 58
3, 125049, Note_on_c, 1, 60, 41
3, 125118, Note_off_c, 1, 60, 41
3, 125194, Control_c, 1, 64, 0
3, 125293, Note_on_c, 1, 64, 55
3, 125297, Control_c, 1, 64, 127
3, 125500, Note_off_c, 1, 64, 55
3, 125523, Note_on_c, 1, 60, 52
3, 125613, Note_off_c, 1, 60, 52
3, 125743, Control_c, 1, 64, 0
3, 125768, Note_on_c, 1, 64, 67
3, 125775, Note_on_c, 1, 60, 56
3, 126020, Note_on_c, 1, 55, 43
3, 126036, Note_off_c, 1, 60, 56
3, 126043, Note_off_c, 1, 64, 67
3, 126233, Note_off_c, 1, 55, 43
3, 126269, Note_on_c, 1, 64, 56
3, 126271, Note_on_c, 1, 60, 55
3, 126503, Note_on_c, 1, 55, 42
3, 126518, Note_off_c, 1, 64, 56
3, 126530, Note_off_c, 1, 60, 55
3, 126702, Note_off_c, 1, 55, 42
3, 126748, Note_on_c, 1, 59, 50
3, 126751, Note_on_c, 1, 62, 56
3, 126978, Note_on_c, 1, 55, 48
3, 127007, Note_off_c, 1, 59, 50
3, 127008, Note_off_c, 1, 62, 56
3, 127213, Note_on_c, 1, 62, 50
3, 127216, Note_off_c, 1, 55, 48
3, 127218, Note_on_c, 1, 59, 42
3, 127432, Note_on_c, 1, 55, 48
3, 127445, Note_off_c, 1, 59, 42
3, 127459, Note_off_c, 1, 62, 50
3, 127645, Note_off_c, 1, 55, 48
3, 127682, Note_on_c, 1, 60, 61
3, 127914, Note_on_c, 1, 48, 63
3, 127930, Note_off_c, 1, 60, 61
3, 128170, Note_on_c, 1, 52, 64
3, 128197, Note_off_c, 1, 48, 63
3, 128386, Note_off_c, 1, 52, 64
3, 128410, Note_on_c, 1, 55, 42
3, 128641, Note_on_c, 1, 60, 56
3, 128664, Note_off_c, 1, 55, 42
3, 128893, Note_on_c, 1, 64, 63
3, 128899, Note_off_c, 1, 60, 56
3, 129124, Note_on_c, 1, 67, 52
3, 129128, Note_off_c, 1, 64, 63
3, 129375, Note_on_c, 1, 64, 22
3, 129393, Note_off_c, 1, 67, 52
3, 129533, Note_off_c, 1, 64, 22
3, 129614, Note_on_c, 1, 65, 56
3, 129617, Control_c, 1, 64, 127
3, 129862, Note_on_c, 1, 60, 30
3, 129887, Note_off_c, 1, 65, 56
3, 129953, Note_off_c, 1, 60, 30
3, 130117, Note_on_c, 1, 65, 50
3, 130340, Note_on_c, 1, 60, 55
3, 130378, Note_off_c, 1, 65, 50
3, 130422, Note_off_c, 1, 60, 55
3, 130573, Note_on_c, 1, 65, 56
3, 130813, Note_on_c, 1, 60, 43
3, 130854, Note_off_c, 1, 65, 56
3, 130883, Note_off_c, 1, 60, 43
3, 130954, Control_c, 1, 64, 0
3, 131048, Note_on_c, 1, 65, 52
3, 131057, Control_c, 1, 64, 127
3, 131304, Note_on_c, 1, 60, 38
3, 131327, Note_off_c, 1, 65, 52
3, 131363, Note_off_c, 1, 60, 38
3, 131503, Control_c, 1, 64, 0
3, 131537, Control_c, 1, 64, 127
3, 131550, Note_on_c, 1, 64, 52
3, 131800, Note_on_c, 1, 60, 38
3, 131832, Note_off_c, 1, 64, 52
3, 131895, Note_off_c, 1, 60, 38
3, 132030, Note_on_c, 1, 64, 52
3, 132247, Note_on_c, 1, 60, 36
3, 132275, Note_off_c, 1, 64, 52
3, 132321, Note_off_c, 1, 60, 36
3, 132489, Note_on_c, 1, 64, 46
3, 132738, Note_on_c, 1, 60, 40
3, 132767, Note_off_c, 1, 64, 46
3, 132817, Note_off_c, 1, 60, 40
3, 132874, Control_c, 1, 64, 0
3, 132977, Control_c, 1, 64, 127
3, 132984, Note_on_c, 1, 64, 48
3, 133222, Note_on_c, 1, 60, 55
3, 133258, Note_off_c, 1, 64, 48
3, 133304, Note_off_c, 1, 60, 55
3, 133423, Control_c, 1, 64, 0
3, 133458, Note_on_c, 1, 64, 63
3, 133460, Note_on_c, 1, 60, 57
3, 133701, Note_on_c, 1, 55, 62
3, 133704, Note_off_c, 1, 64, 63
3, 133706, Note_off_c, 1, 60, 57
3, 133767, Note_off_c, 1, 55, 62
3, 133930, Note_on_c, 1, 64, 61
3, 133934, Note_on_c, 1, 60, 56
3, 134176, Note_off_c, 1, 60, 56
3, 134178, Note_on_c, 1, 55, 66
3, 134185, Note_off_c, 1, 64, 61
3, 134242, Note_off_c, 1, 55, 66
3, 134410, Note_on_c, 1, 62, 58
3, 134413, Note_on_c, 1, 65, 67
3, 134641, Note_off_c, 1, 62, 58
3, 134648, Note_off_c, 1, 65, 67
3, 134666, Note_on_c, 1, 55, 62
3, 134768, Note_off_c, 1, 55, 62
3, 134890, Note_on_c, 1, 65, 63
3, 134893, Note_on_c, 1, 62, 57
3, 135107, Note_off_c, 1, 65, 63
3, 135109, Note_off_c, 1, 62, 57
3, 135136, Note_on_c, 1, 55, 68
3, 135210, Note_off_c, 1, 55, 68
3, 135358, Note_on_c, 1, 64, 62
3, 135363, Note_on_c, 1, 60, 63
3, 135795, Channel_aftertouch_c, 1, 1
3, 135804, Channel_aftertouch_c, 1, 3
3, 135813, Channel_aftertouch_c, 1, 5
3, 135835, Channel_aftertouch_c, 1, 6
3, 135848, Channel_aftertouch_c, 1, 7
3, 135857, Channel_aftertouch_c, 1, 9
3, 135870, Channel_aftertouch_c, 1, 10
3, 135884, Channel_aftertouch_c, 1, 12
3, 135898, Channel_aftertouch_c, 1, 13
3, 135920, Channel_aftertouch_c, 1, 14
3, 135933, Channel_aftertouch_c, 1, 15
3, 135951, Channel_aftertouch_c, 1, 16
3, 135960, Channel_aftertouch_c, 1, 18
3, 135974, Channel_aftertouch_c, 1, 20
3, 135992, Channel_aftertouch_c, 1, 21
3, 136040, Channel_aftertouch_c, 1, 22
3, 136049, Channel_aftertouch_c, 1, 24
3, 136059, Channel_aftertouch_c, 1, 25
3, 136082, Channel_aftertouch_c, 1, 27
3, 136126, Channel_aftertouch_c, 1, 25
3, 136140, Channel_aftertouch_c, 1, 23
3, 136144, Channel_aftertouch_c, 1, 20
3, 136149, Channel_aftertouch_c, 1, 16
3, 136154, Channel_aftertouch_c, 1, 12
3, 136158, Channel_aftertouch_c, 1, 6
3, 136163, Channel_aftertouch_c, 1, 1
3, 136167, Channel_aftertouch_c, 1, 0
3, 136227, Note_off_c, 1, 64, 62
3, 136233, Note_off_c, 1, 60, 63
3, 137293, Note_on_c, 1, 64, 61
3, 137306, Note_on_c, 1, 55, 56
3, 137351, Note_off_c, 1, 64, 61
3, 137365, Note_off_c, 1, 55, 56
3, 137806, Note_on_c, 1, 62, 52
3, 137818, Note_on_c, 1, 55, 55
3, 137858, Note_off_c, 1, 62, 52
3, 137867, Note_off_c, 1, 55, 55
3, 138280, Note_on_c, 1, 60, 51
3, 138289, Note_on_c, 1, 55, 57
3, 138341, Note_off_c, 1, 60, 51
3, 138343, Note_off_c, 1, 55, 57
3, 138759, Note_on_c, 1, 59, 41
3, 138765, Note_on_c, 1, 55, 34
3, 138817, Note_off_c, 1, 55, 34
3, 138819, Note_off_c, 1, 59, 41
3, 139210, Note_on_c, 1, 60, 62
3, 139713, Note_off_c, 1, 60, 62
3, 141174, Note_on_c, 1, 55, 55
3, 141177, Note_on_c, 1, 64, 62
3, 141233, Note_off_c, 1, 64, 62
3, 141236, Note_off_c, 1, 55, 55
3, 141654, Note_on_c, 1, 62, 60
3, 141660, Note_on_c, 1, 55, 61
3, 141705, Note_off_c, 1, 62, 60
3, 141708, Note_off_c, 1, 55, 61
3, 142122, Note_on_c, 1, 60, 55
3, 142125, Note_on_c, 1, 55, 56
3, 142161, Note_off_c, 1, 55, 56
3, 142172, Note_off_c, 1, 60, 55
3, 142586, Note_on_c, 1, 59, 53
3, 142590, Note_on_c, 1, 55, 53
3, 142634, Note_off_c, 1, 55, 53
3, 142637, Note_off_c, 1, 59, 53
3, 143078, Note_on_c, 1, 48, 69
3, 143316, Note_on_c, 1, 60, 58
3, 143338, Note_off_c, 1, 48, 69
3, 143567, Note_on_c, 1, 59, 56
3, 143629, Note_off_c, 1, 60, 58
3, 143817, Note_on_c, 1, 58, 50
3, 143830, Note_off_c, 1, 59, 56
3, 144038, Note_on_c, 1, 57, 63
3, 144052, Note_off_c, 1, 58, 50
3, 144092, Note_off_c, 1, 57, 63
3, 144278, Note_on_c, 1, 57, 68
3, 144552, Note_on_c, 1, 55, 64
3, 144632, Note_off_c, 1, 57, 68
3, 144767, Note_on_c, 1, 53, 68
3, 144773, Note_off_c, 1, 55, 64
3, 144964, Note_off_c, 1, 53, 68
3, 144995, Note_on_c, 1, 52, 67
3, 145047, Note_off_c, 1, 52, 67
3, 145458, Note_on_c, 1, 48, 73
3, 145512, Note_off_c, 1, 48, 73
3, 146470, Note_on_c, 1, 60, 63
3, 146474, Note_on_c, 1, 48, 63
3, 146575, Note_off_c, 1, 48, 63
3, 146591, Note_off_c, 1, 60, 63
3, 146905, Note_on_c, 1, 64, 67
3, 146905, Note_on_c, 1, 55, 58
3, 147619, Note_off_c, 1, 55, 58
3, 147625, Note_on_c, 1, 60, 50
3, 147785, Note_off_c, 1, 64, 67
3, 147862, Note_off_c, 1, 60, 50
3, 147870, Note_on_c, 1, 59, 58
3, 148090, Note_on_c, 1, 43, 64
3, 148093, Note_off_c, 1, 59, 58
3, 148335, Note_on_c, 1, 47, 63
3, 148346, Note_off_c, 1, 43, 64
3, 148580, Note_off_c, 1, 47, 63
3, 148581, Note_on_c, 1, 50, 66
3, 148760, Note_off_c, 1, 50, 66
3, 148817, Control_c, 1, 64, 127
3, 148826, Note_on_c, 1, 55, 67
3, 149063, Note_on_c, 1, 59, 58
3, 149101, Note_off_c, 1, 55, 67
3, 149286, Note_on_c, 1, 62, 60
3, 149308, Note_off_c, 1, 59, 58
3, 149447, Note_off_c, 1, 62, 60
3, 149755, Note_on_c, 1, 55, 55
3, 150019, Note_on_c, 1, 59, 61
3, 150041, Note_off_c, 1, 55, 55
3, 150154, Control_c, 1, 64, 0
3, 150255, Note_on_c, 1, 62, 53
3, 150257, Control_c, 1, 64, 127
3, 150263, Note_off_c, 1, 59, 61
3, 150398, Note_off_c, 1, 62, 53
3, 150703, Control_c, 1, 64, 0
3, 150729, Note_on_c, 1, 55, 57
3, 150968, Note_on_c, 1, 60, 53
3, 151003, Note_off_c, 1, 55, 57
3, 151222, Note_on_c, 1, 64, 33
3, 151245, Note_off_c, 1, 60, 53
3, 151467, Note_off_c, 1, 64, 33
3, 151468, Note_on_c, 1, 60, 43
3, 151558, Note_off_c, 1, 60, 43
3, 151699, Note_on_c, 1, 55, 55
3, 151944, Note_on_c, 1, 60, 42
3, 151983, Note_off_c, 1, 55, 55
3, 152177, Note_on_c, 1, 64, 46
3, 152200, Note_off_c, 1, 60, 42
3, 152299, Note_off_c, 1, 64, 46
3, 152427, Note_on_c, 1, 60, 50
3, 152535, Note_off_c, 1, 60, 50
3, 152657, Control_c, 1, 64, 127
3, 152658, Note_on_c, 1, 54, 52
3, 152916, Note_on_c, 1, 57, 51
3, 152943, Note_off_c, 1, 54, 52
3, 153159, Note_on_c, 1, 60, 57
3, 153205, Note_off_c, 1, 57, 51
3, 153269, Note_off_c, 1, 60, 57
3, 153654, Note_on_c, 1, 54, 56
3, 153879, Note_on_c, 1, 57, 58
3, 153911, Note_off_c, 1, 54, 56
3, 153994, Control_c, 1, 64, 0
3, 154097, Control_c, 1, 64, 127
3, 154116, Note_on_c, 1, 60, 56
3, 154128, Note_off_c, 1, 57, 58
3, 154193, Note_off_c, 1, 60, 56
3, 154543, Control_c, 1, 64, 0
3, 154571, Note_on_c, 1, 55, 63
3, 154577, Control_c, 1, 64, 127
3, 154830, Note_on_c, 1, 59, 56
3, 154860, Note_off_c, 1, 55, 63
3, 155065, Note_off_c, 1, 59, 56
3, 155075, Note_on_c, 1, 62, 63
3, 155114, Note_off_c, 1, 62, 63
3, 155314, Note_on_c, 1, 62, 60
3, 155362, Note_off_c, 1, 62, 60
3, 155569, Note_on_c, 1, 55, 64
3, 155799, Note_on_c, 1, 59, 58
3, 155828, Note_off_c, 1, 55, 64
3, 155914, Control_c, 1, 64, 0
3, 156010, Note_off_c, 1, 59, 58
3, 156017, Control_c, 1, 64, 127
3, 156030, Note_on_c, 1, 62, 63
3, 156089, Note_off_c, 1, 62, 63
3, 156278, Note_on_c, 1, 62, 57
3, 156335, Note_off_c, 1, 62, 57
3, 156463, Control_c, 1, 64, 0
3, 156525, Note_on_c, 1, 55, 57
3, 156745, Note_on_c, 1, 59, 56
3, 156809, Note_off_c, 1, 55, 57
3, 156996, Note_on_c, 1, 62, 57
3, 156999, Note_off_c, 1, 59, 56
3, 157055, Note_off_c, 1, 62, 57
3, 157443, Note_on_c, 1, 55, 57
3, 157698, Note_on_c, 1, 59, 48
3, 157720, Note_off_c, 1, 55, 57
3, 157954, Note_off_c, 1, 59, 48
3, 157956, Note_on_c, 1, 62, 47
3, 158173, Note_off_c, 1, 62, 47
3, 158394, Note_on_c, 1, 55, 57
3, 158640, Note_on_c, 1, 60, 51
3, 158658, Note_off_c, 1, 55, 57
3, 158875, Note_on_c, 1, 64, 55
3, 158897, Note_off_c, 1, 60, 51
3, 159117, Note_on_c, 1, 60, 46
3, 159154, Note_off_c, 1, 64, 55
3, 159247, Note_off_c, 1, 60, 46
3, 159350, Note_on_c, 1, 55, 53
3, 159601, Note_on_c, 1, 60, 47
3, 159820, Note_off_c, 1, 55, 53
3, 159845, Note_on_c, 1, 64, 42
3, 159860, Note_off_c, 1, 60, 47
3, 160076, Note_off_c, 1, 64, 42
3, 160079, Note_on_c, 1, 60, 53
3, 160204, Note_off_c, 1, 60, 53
3, 160335, Note_on_c, 1, 54, 63
3, 160337, Control_c, 1, 64, 127
3, 160338, Note_on_c, 1, 57, 61
3, 160340, Note_on_c, 1, 62, 68
3, 160345, Note_on_c, 1, 60, 63
3, 161071, Channel_aftertouch_c, 1, 1
3, 161107, Channel_aftertouch_c, 1, 2
3, 161139, Channel_aftertouch_c, 1, 3
3, 161193, Channel_aftertouch_c, 1, 4
3, 161241, Channel_aftertouch_c, 1, 5
3, 161278, Channel_aftertouch_c, 1, 6
3, 161415, Channel_aftertouch_c, 1, 7
3, 161433, Channel_aftertouch_c, 1, 9
3, 161452, Channel_aftertouch_c, 1, 11
3, 161492, Channel_aftertouch_c, 1, 12
3, 161505, Channel_aftertouch_c, 1, 13
3, 161529, Channel_aftertouch_c, 1, 14
3, 161555, Channel_aftertouch_c, 1, 15
3, 161604, Channel_aftertouch_c, 1, 16
3, 161674, Control_c, 1, 64, 0
3, 161770, Channel_aftertouch_c, 1, 14
3, 161774, Channel_aftertouch_c, 1, 11
3, 161777, Control_c, 1, 64, 127
3, 161778, Channel_aftertouch_c, 1, 7
3, 161783, Channel_aftertouch_c, 1, 2
3, 161787, Channel_aftertouch_c, 1, 0
3, 161830, Note_off_c, 1, 60, 63
3, 161835, Note_off_c, 1, 57, 61
3, 161841, Note_off_c, 1, 54, 63
3, 161850, Note_off_c, 1, 62, 68
3, 162223, Control_c, 1, 64, 0
3, 162259, Note_on_c, 1, 55, 52
3, 162426, Note_on_c, 1, 59, 41
3, 162498, Note_off_c, 1, 55, 52
3, 162544, Note_off_c, 1, 59, 41
3, 162555, Note_on_c, 1, 67, 36
3, 162721, Note_on_c, 1, 57, 56
3, 162733, Note_off_c, 1, 67, 36
3, 162887, Note_on_c, 1, 60, 42
3, 162979, Note_off_c, 1, 57, 56
3, 163033, Note_on_c, 1, 67, 55
3, 163050, Note_off_c, 1, 60, 42
3, 163203, Note_on_c, 1, 59, 55
3, 163218, Note_off_c, 1, 67, 55
3, 163356, Note_on_c, 1, 62, 37
3, 163452, Note_off_c, 1, 59, 55
3, 163483, Note_off_c, 1, 62, 37
3, 163527, Note_on_c, 1, 67, 46
3, 163689, Note_off_c, 1, 67, 46
3, 163693, Note_on_c, 1, 55, 45
3, 163856, Note_on_c, 1, 59, 46
3, 163959, Note_off_c, 1, 55, 45
3, 163980, Note_off_c, 1, 59, 46
3, 163993, Note_on_c, 1, 67, 50
3, 164150, Note_off_c, 1, 67, 50
3, 164164, Note_on_c, 1, 60, 56
3, 164177, Control_c, 1, 64, 127
3, 164327, Note_on_c, 1, 64, 37
3, 164372, Note_off_c, 1, 60, 56
3, 164470, Note_on_c, 1, 67, 50
3, 164473, Note_off_c, 1, 64, 37
3, 164638, Note_off_c, 1, 67, 50
3, 164663, Note_on_c, 1, 60, 42
3, 164817, Note_on_c, 1, 64, 30
3, 164859, Note_off_c, 1, 60, 42
3, 164973, Note_on_c, 1, 67, 27
3, 164977, Note_off_c, 1, 64, 30
3, 165153, Note_on_c, 1, 60, 45
3, 165156, Note_off_c, 1, 67, 27
3, 165303, Note_on_c, 1, 64, 38
3, 165358, Note_off_c, 1, 60, 45
3, 165455, Note_on_c, 1, 67, 36
3, 165459, Note_off_c, 1, 64, 38
3, 165514, Control_c, 1, 64, 0
3, 165617, Control_c, 1, 64, 127
3, 165626, Note_on_c, 1, 60, 50
3, 165643, Note_off_c, 1, 67, 36
3, 165783, Note_on_c, 1, 64, 47
3, 165881, Note_off_c, 1, 60, 50
3, 165898, Note_off_c, 1, 64, 47
3, 165949, Note_on_c, 1, 67, 45
3, 166063, Control_c, 1, 64, 0
3, 166100, Note_off_c, 1, 67, 45
3, 166112, Note_on_c, 1, 55, 67
3, 166275, Note_on_c, 1, 59, 55
3, 166391, Note_off_c, 1, 55, 67
3, 166435, Note_on_c, 1, 67, 58
3, 166447, Note_off_c, 1, 59, 55
3, 166591, Note_on_c, 1, 57, 62
3, 166593, Note_off_c, 1, 67, 58
3, 166602, Note_on_c, 1, 55, 50
3, 166640, Note_off_c, 1, 55, 50
3, 166767, Note_on_c, 1, 60, 53
3, 166865, Note_off_c, 1, 57, 62
3, 166913, Note_on_c, 1, 67, 56
3, 166949, Note_off_c, 1, 60, 53
3, 167080, Note_on_c, 1, 59, 64
3, 167106, Note_off_c, 1, 67, 56
3, 167230, Note_on_c, 1, 62, 56
3, 167355, Note_off_c, 1, 59, 64
3, 167370, Note_off_c, 1, 62, 56
3, 167383, Note_on_c, 1, 67, 53
3, 167558, Note_on_c, 1, 55, 66
3, 167568, Note_off_c, 1, 67, 53
3, 167718, Note_on_c, 1, 59, 67
3, 167810, Note_off_c, 1, 55, 66
3, 167850, Note_off_c, 1, 59, 67
3, 167867, Note_on_c, 1, 67, 48
3, 167995, Note_off_c, 1, 67, 48
3, 168017, Control_c, 1, 64, 127
3, 168026, Note_on_c, 1, 60, 55
3, 168174, Note_on_c, 1, 64, 46
3, 168214, Note_off_c, 1, 60, 55
3, 168317, Note_off_c, 1, 64, 46
3, 168338, Note_on_c, 1, 67, 32
3, 168506, Note_off_c, 1, 67, 32
3, 168509, Note_on_c, 1, 60, 46
3, 168655, Note_on_c, 1, 64, 30
3, 168729, Note_off_c, 1, 60, 46
3, 168792, Note_on_c, 1, 67, 35
3, 168803, Note_off_c, 1, 64, 30
3, 168962, Note_on_c, 1, 60, 53
3, 168979, Note_off_c, 1, 67, 35
3, 169129, Note_on_c, 1, 64, 32
3, 169175, Note_off_c, 1, 60, 53
3, 169297, Note_on_c, 1, 67, 37
3, 169312, Note_off_c, 1, 64, 32
3, 169354, Control_c, 1, 64, 0
3, 169457, Control_c, 1, 64, 127
3, 169469, Note_on_c, 1, 60, 55
3, 169492, Note_off_c, 1, 67, 37
3, 169617, Note_on_c, 1, 64, 52
3, 169719, Note_off_c, 1, 60, 55
3, 169733, Note_off_c, 1, 64, 52
3, 169753, Note_on_c, 1, 67, 55
3, 169894, Note_off_c, 1, 67, 55
3, 169903, Control_c, 1, 64, 0
3, 169949, Note_on_c, 1, 55, 76
3, 169963, Channel_aftertouch_c, 1, 4
3, 169967, Channel_aftertouch_c, 1, 20
3, 169972, Channel_aftertouch_c, 1, 38
3, 169976, Channel_aftertouch_c, 1, 57
3, 169980, Channel_aftertouch_c, 1, 70
3, 169986, Channel_aftertouch_c, 1, 69
3, 169990, Channel_aftertouch_c, 1, 55
3, 169995, Channel_aftertouch_c, 1, 32
3, 169999, Channel_aftertouch_c, 1, 9
3, 170003, Channel_aftertouch_c, 1, 2
3, 170007, Channel_aftertouch_c, 1, 0
3, 170087, Note_off_c, 1, 55, 76
3, 170886, Note_on_c, 1, 48, 68
3, 171019, Note_off_c, 1, 48, 68
3, 171865, Note_on_c, 1, 50, 64
3, 171918, Note_off_c, 1, 50, 64
3, 172345, Note_on_c, 1, 54, 43
3, 172345, Note_on_c, 1, 57, 58
3, 172345, Note_on_c, 1, 51, 68
3, 173303, Note_off_c, 1, 54, 43
3, 173303, Note_off_c, 1, 57, 58
3, 173303, Note_off_c, 1, 51, 68
3, 173305, Note_on_c, 1, 52, 26
3, 173305, Note_on_c, 1, 55, 20
3, 173779, Note_on_c, 1, 52, 56
3, 173783, Note_off_c, 1, 52, 26
3, 173783, Note_off_c, 1, 55, 20
3, 173788, Note_on_c, 1, 48, 41
3, 174531, Note_off_c, 1, 48, 41
3, 174533, Note_off_c, 1, 52, 56
3, 176157, Note_on_c, 1, 59, 57
3, 176168, Note_on_c, 1, 50, 53
3, 176571, Note_off_c, 1, 50, 53
3, 176641, Note_on_c, 1, 60, 56
3, 176671, Note_on_c, 1, 50, 22
3, 176691, Note_off_c, 1, 59, 57
3, 177600, Note_on_c, 1, 55, 48
3, 177600, Note_on_c, 1, 59, 38
3, 177605, Note_off_c, 1, 60, 56
3, 177614, Note_off_c, 1, 50, 22
3, 177691, Note_off_c, 1, 59, 38
3, 177985, Note_off_c, 1, 55, 48
3, 178080, Note_on_c, 1, 43, 64
3, 178223, Note_off_c, 1, 43, 64
3, 181906, Note_on_c, 1, 62, 52
3, 181909, Note_on_c, 1, 54, 53
3, 182381, Note_off_c, 1, 54, 53
3, 182384, Note_on_c, 1, 55, 58
3, 182593, Note_off_c, 1, 62, 52
3, 182706, Note_off_c, 1, 55, 58
3, 183327, Note_on_c, 1, 48, 47
3, 183337, Note_on_c, 1, 55, 51
3, 183863, Note_off_c, 1, 48, 47
3, 183924, Note_off_c, 1, 55, 51
3, 184771, Note_on_c, 1, 49, 48
3, 184773, Note_on_c, 1, 52, 55
3, 184933, Note_off_c, 1, 49, 48
3, 184936, Note_off_c, 1, 52, 55
3, 185254, Note_on_c, 1, 50, 60
3, 185262, Note_on_c, 1, 55, 55
3, 185765, Note_on_c, 1, 54, 62
3, 185771, Note_off_c, 1, 55, 55
3, 185957, Note_off_c, 1, 54, 62
3, 185961, Note_off_c, 1, 50, 60
3, 186236, Note_on_c, 1, 62, 91
3, 186586, Note_on_c, 1, 64, 64
3, 186624, Note_off_c, 1, 62, 91
3, 186660, Note_on_c, 1, 66, 67
3, 186686, Note_off_c, 1, 64, 64
3, 186705, Note_on_c, 1, 67, 58
3, 186757, Note_off_c, 1, 66, 67
3, 186789, Note_off_c, 1, 67, 58
3, 186951, Note_on_c, 1, 66, 84
3, 187011, Note_off_c, 1, 66, 84
3, 187186, Note_on_c, 1, 64, 82
3, 187244, Note_off_c, 1, 64, 82
3, 187435, Note_on_c, 1, 62, 55
3, 187509, Note_off_c, 1, 62, 55
3, 187670, Note_on_c, 1, 60, 51
3, 187742, Note_off_c, 1, 60, 51
3, 187922, Note_on_c, 1, 59, 34
3, 187983, Note_off_c, 1, 59, 34
3, 188163, Note_on_c, 1, 57, 52
3, 188213, Note_off_c, 1, 57, 52
3, 188651, Note_on_c, 1, 59, 55
3, 188696, Note_off_c, 1, 59, 55
3, 189136, Note_on_c, 1, 60, 68
3, 189190, Note_off_c, 1, 60, 68
3, 189616, Note_on_c, 1, 61, 84
3, 189691, Note_off_c, 1, 61, 84
3, 190075, Note_on_c, 1, 62, 79
3, 190204, Note_off_c, 1, 62, 79
3, 190551, Note_on_c, 1, 63, 66
3, 190614, Note_off_c, 1, 63, 66
3, 191034, Note_on_c, 1, 64, 68
3, 191266, Note_off_c, 1, 64, 68
3, 191538, Note_on_c, 1, 57, 42
3, 191540, Note_on_c, 1, 48, 57
3, 191744, Note_off_c, 1, 48, 57
3, 191807, Note_off_c, 1, 57, 42
3, 191978, Note_on_c, 1, 59, 58
3, 191981, Note_on_c, 1, 50, 62
3, 192276, Note_off_c, 1, 59, 58
3, 192443, Note_on_c, 1, 60, 47
3, 192609, Note_off_c, 1, 50, 62
3, 192734, Note_off_c, 1, 60, 47
3, 192910, Note_on_c, 1, 55, 23
3, 192977, Control_c, 1, 64, 127
3, 193155, Note_on_c, 1, 59, 50
3, 193394, Note_on_c, 1, 62, 55
3, 193409, Note_off_c, 1, 59, 50
3, 193433, Note_off_c, 1, 55, 23
3, 193671, Note_on_c, 1, 59, 58
3, 193674, Note_off_c, 1, 62, 55
3, 193944, Note_on_c, 1, 55, 57
3, 193947, Note_off_c, 1, 59, 58
3, 194144, Note_off_c, 1, 55, 57
3, 194147, Note_on_c, 1, 60, 32
3, 194314, Control_c, 1, 64, 0
3, 194393, Note_on_c, 1, 64, 45
3, 194417, Control_c, 1, 64, 127
3, 194433, Note_off_c, 1, 60, 32
3, 194631, Note_on_c, 1, 60, 35
3, 194676, Note_off_c, 1, 64, 45
3, 194831, Note_off_c, 1, 60, 35
3, 194848, Note_on_c, 1, 55, 46
3, 194863, Control_c, 1, 64, 0
3, 195086, Note_on_c, 1, 59, 57
3, 195129, Note_off_c, 1, 55, 46
3, 195348, Note_on_c, 1, 62, 35
3, 195358, Note_off_c, 1, 59, 57
3, 195594, Note_off_c, 1, 62, 35
3, 195596, Note_on_c, 1, 59, 40
3, 195845, Note_on_c, 1, 55, 56
3, 195855, Note_off_c, 1, 59, 40
3, 196064, Note_on_c, 1, 60, 38
3, 196109, Note_off_c, 1, 55, 56
3, 196297, Note_on_c, 1, 64, 40
3, 196436, Note_off_c, 1, 64, 40
3, 196541, Note_off_c, 1, 60, 38
3, 196758, Note_on_c, 1, 55, 46
3, 196760, Note_on_c, 1, 62, 56
3, 196764, Note_on_c, 1, 59, 46
3, 196898, Note_off_c, 1, 62, 56
3, 196928, Note_off_c, 1, 59, 46
3, 196946, Note_off_c, 1, 55, 46
3, 197273, Note_on_c, 1, 72, 63
3, 197736, Note_on_c, 1, 71, 53
3, 197778, Note_off_c, 1, 72, 63
3, 197804, Note_off_c, 1, 71, 53
3, 198209, Note_on_c, 1, 72, 62
3, 198706, Note_on_c, 1, 71, 61
3, 198740, Note_off_c, 1, 72, 62
3, 198804, Note_off_c, 1, 71, 61
3, 199198, Note_on_c, 1, 66, 56
3, 199272, Note_off_c, 1, 66, 56
3, 199472, Note_on_c, 1, 66, 51
3, 199551, Note_off_c, 1, 66, 51
3, 199718, Note_on_c, 1, 67, 57
3, 199782, Note_off_c, 1, 67, 57
3, 199936, Note_on_c, 1, 67, 68
3, 200007, Note_off_c, 1, 67, 68
3, 200139, Note_on_c, 1, 69, 66
3, 200211, Note_off_c, 1, 69, 66
3, 200366, Note_on_c, 1, 69, 71
3, 200455, Note_off_c, 1, 69, 71
3, 200616, Note_on_c, 1, 71, 64
3, 200657, Control_c, 1, 64, 127
3, 200881, Note_off_c, 1, 71, 64
3, 201994, Control_c, 1, 64, 0
3, 202097, Control_c, 1, 64, 127
3, 202543, Control_c, 1, 64, 0
3, 203050, Note_on_c, 1, 48, 57
3, 203053, Note_on_c, 1, 52, 58
3, 203056, Note_on_c, 1, 57, 55
3, 203360, Note_off_c, 1, 48, 57
3, 203361, Note_off_c, 1, 52, 58
3, 203371, Note_off_c, 1, 57, 55
3, 203559, Note_on_c, 1, 55, 53
3, 203562, Note_on_c, 1, 59, 60
3, 203565, Note_on_c, 1, 50, 55
3, 203909, Note_off_c, 1, 55, 53
3, 204041, Note_on_c, 1, 60, 56
3, 204057, Note_on_c, 1, 57, 53
3, 204068, Note_off_c, 1, 59, 60
3, 204362, Note_off_c, 1, 50, 55
3, 204382, Note_off_c, 1, 60, 56
3, 204442, Note_off_c, 1, 57, 53
3, 204497, Control_c, 1, 64, 127
3, 204533, Note_on_c, 1, 55, 56
3, 204762, Note_on_c, 1, 59, 41
3, 204846, Note_off_c, 1, 55, 56
3, 205009, Note_on_c, 1, 62, 46
3, 205043, Note_off_c, 1, 59, 41
3, 205227, Note_on_c, 1, 59, 58
3, 205248, Note_off_c, 1, 62, 46
3, 205450, Note_on_c, 1, 55, 45
3, 205467, Note_off_c, 1, 59, 58
3, 205636, Note_off_c, 1, 55, 45
3, 205670, Note_on_c, 1, 60, 47
3, 205834, Control_c, 1, 64, 0
3, 205918, Note_on_c, 1, 64, 56
3, 205937, Control_c, 1, 64, 127
3, 205953, Note_off_c, 1, 60, 47
3, 206169, Note_on_c, 1, 60, 56
3, 206196, Note_off_c, 1, 64, 56
3, 206364, Note_off_c, 1, 60, 56
3, 206368, Note_on_c, 1, 55, 48
3, 206383, Control_c, 1, 64, 0
3, 206614, Note_on_c, 1, 59, 47
3, 206649, Note_off_c, 1, 55, 48
3, 206864, Note_on_c, 1, 62, 48
3, 206872, Note_off_c, 1, 59, 47
3, 207109, Note_on_c, 1, 59, 55
3, 207129, Note_off_c, 1, 62, 48
3, 207343, Note_on_c, 1, 55, 46
3, 207352, Note_off_c, 1, 59, 55
3, 207561, Note_off_c, 1, 55, 46
3, 207572, Note_on_c, 1, 60, 46
3, 207815, Note_on_c, 1, 64, 55
3, 207846, Note_off_c, 1, 60, 46
3, 208055, Note_on_c, 1, 60, 56
3, 208057, Note_off_c, 1, 64, 55
3, 208300, Note_off_c, 1, 60, 56
3, 208302, Note_on_c, 1, 62, 61
3, 208304, Note_on_c, 1, 55, 31
3, 208307, Note_on_c, 1, 59, 61
3, 208427, Note_off_c, 1, 62, 61
3, 208444, Note_off_c, 1, 55, 31
3, 208446, Note_off_c, 1, 59, 61
3, 208806, Note_on_c, 1, 72, 64
3, 209285, Note_on_c, 1, 71, 61
3, 209314, Note_off_c, 1, 72, 64
3, 209367, Note_off_c, 1, 71, 61
3, 209765, Note_on_c, 1, 72, 67
3, 210241, Note_on_c, 1, 71, 62
3, 210264, Note_off_c, 1, 72, 67
3, 210305, Note_off_c, 1, 71, 62
3, 210724, Note_on_c, 1, 66, 52
3, 210791, Note_off_c, 1, 66, 52
3, 210978, Note_on_c, 1, 66, 48
3, 211047, Note_off_c, 1, 66, 48
3, 211217, Control_c, 1, 64, 127
3, 211246, Note_on_c, 1, 67, 67
3, 211298, Note_off_c, 1, 67, 67
3, 211457, Note_on_c, 1, 67, 68
3, 211523, Note_off_c, 1, 67, 68
3, 211678, Note_on_c, 1, 69, 68
3, 211745, Note_off_c, 1, 69, 68
3, 211911, Note_on_c, 1, 69, 68
3, 211986, Note_off_c, 1, 69, 68
3, 212163, Note_on_c, 1, 71, 62
3, 212554, Control_c, 1, 64, 0
3, 212559, Note_off_c, 1, 71, 62
3, 212657, Control_c, 1, 64, 127
3, 213103, Control_c, 1, 64, 0
3, 214560, Note_on_c, 1, 52, 46
3, 214563, Note_on_c, 1, 48, 37
3, 214565, Note_on_c, 1, 57, 46
3, 214845, Note_off_c, 1, 57, 46
3, 214858, Note_off_c, 1, 48, 37
3, 214860, Note_off_c, 1, 52, 46
3, 215056, Note_on_c, 1, 55, 51
3, 215058, Note_on_c, 1, 59, 51
3, 215061, Note_on_c, 1, 50, 51
3, 215301, Note_off_c, 1, 55, 51
3, 215547, Note_on_c, 1, 60, 64
3, 215550, Note_on_c, 1, 57, 51
3, 215626, Note_off_c, 1, 59, 51
3, 215897, Note_off_c, 1, 57, 51
3, 215996, Note_off_c, 1, 60, 64
3, 216024, Note_off_c, 1, 50, 51
3, 216056, Note_on_c, 1, 55, 79
3, 216183, Note_on_c, 1, 50, 19
3, 216224, Note_off_c, 1, 50, 19
3, 216399, Note_on_c, 1, 50, 61
3, 216408, Note_off_c, 1, 55, 79
3, 216487, Note_off_c, 1, 50, 61
3, 216506, Note_on_c, 1, 59, 82
3, 216836, Note_on_c, 1, 55, 60
3, 216844, Note_off_c, 1, 59, 82
3, 216940, Note_on_c, 1, 62, 79
3, 216946, Note_off_c, 1, 55, 60
3, 217072, Note_off_c, 1, 62, 79
3, 217944, Note_on_c, 1, 50, 66
3, 217944, Note_on_c, 1, 55, 66
3, 217944, Note_on_c, 1, 59, 66
3, 218279, Note_off_c, 1, 50, 66
3, 218279, Note_off_c, 1, 55, 66
3, 218279, Note_off_c, 1, 59, 66
3, 218903, Note_on_c, 1, 50, 46
3, 218903, Note_on_c, 1, 60, 46
3, 218903, Note_on_c, 1, 54, 46
3, 219356, Note_off_c, 1, 50, 46
3, 219356, Note_off_c, 1, 60, 46
3, 219356, Note_off_c, 1, 54, 46
3, 219857, Control_c, 1, 64, 127
3, 219893, Note_on_c, 1, 55, 82
3, 219966, Note_off_c, 1, 55, 82
3, 220006, Note_on_c, 1, 50, 79
3, 220063, Note_off_c, 1, 50, 79
3, 220131, Note_on_c, 1, 55, 68
3, 220236, Note_on_c, 1, 50, 76
3, 220241, Note_off_c, 1, 55, 68
3, 220316, Note_off_c, 1, 50, 76
3, 220346, Note_on_c, 1, 59, 69
3, 220446, Note_on_c, 1, 55, 64
3, 220451, Note_off_c, 1, 59, 69
3, 220565, Note_on_c, 1, 59, 76
3, 220576, Note_off_c, 1, 55, 64
3, 220666, Note_on_c, 1, 55, 64
3, 220697, Note_off_c, 1, 59, 76
3, 220776, Note_off_c, 1, 55, 64
3, 220796, Note_on_c, 1, 62, 76
3, 220899, Note_off_c, 1, 62, 76
3, 221194, Control_c, 1, 64, 0
3, 221297, Control_c, 1, 64, 127
3, 221743, Control_c, 1, 64, 0
3, 221784, Note_on_c, 1, 59, 66
3, 221784, Note_on_c, 1, 55, 66
3, 221784, Note_on_c, 1, 50, 66
3, 222119, Note_off_c, 1, 59, 66
3, 222119, Note_off_c, 1, 55, 66
3, 222119, Note_off_c, 1, 50, 66
3, 222743, Note_on_c, 1, 54, 46
3, 222743, Note_on_c, 1, 60, 46
3, 222743, Note_on_c, 1, 50, 46
3, 223196, Note_off_c, 1, 54, 46
3, 223196, Note_off_c, 1, 60, 46
3, 223196, Note_off_c, 1, 50, 46
3, 223670, Note_on_c, 1, 55, 73
3, 223670, Note_on_c, 1, 59, 73
3, 223731, Note_off_c, 1, 55, 73
3, 223731, Note_off_c, 1, 59, 73
3, 224176, Note_on_c, 1, 55, 46
3, 224275, Note_off_c, 1, 55, 46
3, 224657, Note_on_c, 1, 43, 45
3, 224968, Note_off_c, 1, 43, 45
3, 225617, Control_c, 1, 64, 127
3, 225625, Note_on_c, 1, 67, 38
3, 225854, Note_off_c, 1, 67, 38
3, 225858, Note_on_c, 1, 71, 35
3, 226098, Note_on_c, 1, 67, 41
3, 226112, Note_off_c, 1, 71, 35
3, 226321, Note_on_c, 1, 71, 45
3, 226324, Note_off_c, 1, 67, 41
3, 226534, Control_c, 1, 64, 0
3, 226536, Note_off_c, 1, 71, 45
3, 226541, Note_on_c, 1, 67, 51
3, 226577, Control_c, 1, 64, 127
3, 226761, Note_off_c, 1, 67, 51
3, 226771, Note_on_c, 1, 71, 23
3, 227015, Note_off_c, 1, 71, 23
3, 227021, Note_on_c, 1, 65, 43
3, 227281, Note_off_c, 1, 65, 43
3, 227299, Note_on_c, 1, 68, 11
3, 227494, Control_c, 1, 64, 0
3, 227506, Note_off_c, 1, 68, 11
3, 227507, Note_on_c, 1, 64, 34
3, 227537, Control_c, 1, 64, 127
3, 227736, Note_on_c, 1, 67, 51
3, 227751, Note_off_c, 1, 64, 34
3, 227987, Note_off_c, 1, 67, 51
3, 227989, Note_on_c, 1, 64, 47
3, 228229, Note_off_c, 1, 64, 47
3, 228238, Note_on_c, 1, 67, 34
3, 228454, Control_c, 1, 64, 0
3, 228472, Note_off_c, 1, 67, 34
3, 228474, Note_on_c, 1, 64, 47
3, 228711, Note_on_c, 1, 67, 42
3, 228716, Note_off_c, 1, 64, 47
3, 228946, Note_off_c, 1, 67, 42
3, 228953, Note_on_c, 1, 62, 47
3, 229191, Note_on_c, 1, 65, 48
3, 229204, Note_off_c, 1, 62, 47
3, 229436, Note_on_c, 1, 60, 55
3, 229461, Note_off_c, 1, 65, 48
3, 229658, Note_off_c, 1, 60, 55
3, 229670, Note_on_c, 1, 64, 46
3, 229894, Note_off_c, 1, 64, 46
3, 229898, Note_on_c, 1, 60, 31
3, 230132, Note_on_c, 1, 64, 35
3, 230138, Note_off_c, 1, 60, 31
3, 230370, Note_on_c, 1, 60, 24
3, 230375, Note_off_c, 1, 64, 35
3, 230622, Note_on_c, 1, 64, 47
3, 230629, Note_off_c, 1, 60, 24
3, 230869, Note_on_c, 1, 60, 32
3, 230872, Note_off_c, 1, 64, 47
3, 231096, Note_on_c, 1, 63, 37
3, 231135, Note_off_c, 1, 60, 32
3, 231346, Note_off_c, 1, 63, 37
3, 231354, Note_on_c, 1, 59, 41
3, 231590, Note_on_c, 1, 62, 38
3, 231656, Note_off_c, 1, 59, 41
3, 231845, Note_on_c, 1, 60, 51
3, 231872, Note_off_c, 1, 62, 38
3, 232089, Note_on_c, 1, 62, 47
3, 232097, Note_off_c, 1, 60, 51
3, 232326, Note_on_c, 1, 59, 41
3, 232331, Note_off_c, 1, 62, 47
3, 232550, Note_on_c, 1, 62, 48
3, 232572, Note_off_c, 1, 59, 41
3, 232790, Note_on_c, 1, 60, 40
3, 232802, Note_off_c, 1, 62, 48
3, 233036, Note_on_c, 1, 62, 36
3, 233039, Note_off_c, 1, 60, 40
3, 233281, Note_on_c, 1, 59, 40
3, 233287, Note_off_c, 1, 62, 36
3, 233297, Control_c, 1, 64, 127
3, 233510, Note_on_c, 1, 62, 45
3, 233576, Note_off_c, 1, 59, 40
3, 233758, Note_on_c, 1, 60, 45
3, 233779, Note_off_c, 1, 62, 45
3, 233985, Note_on_c, 1, 63, 45
3, 234022, Note_off_c, 1, 60, 45
3, 234214, Control_c, 1, 64, 0
3, 234225, Note_off_c, 1, 63, 45
3, 234247, Note_on_c, 1, 59, 27
3, 234257, Control_c, 1, 64, 127
3, 234472, Note_on_c, 1, 62, 45
3, 234519, Note_off_c, 1, 59, 27
3, 234721, Note_on_c, 1, 60, 52
3, 234747, Note_off_c, 1, 62, 45
3, 234943, Note_off_c, 1, 60, 52
3, 234952, Note_on_c, 1, 63, 38
3, 235149, Note_off_c, 1, 63, 38
3, 235174, Control_c, 1, 64, 0
3, 235205, Note_on_c, 1, 62, 47
3, 235207, Note_on_c, 1, 59, 47
3, 235885, Note_off_c, 1, 62, 47
3, 235902, Note_off_c, 1, 59, 47
3, 237137, Control_c, 1, 64, 127
3, 238054, Control_c, 1, 64, 0
3, 238080, Note_on_c, 1, 50, 46
3, 238097, Control_c, 1, 64, 127
3, 238318, Note_off_c, 1, 50, 46
3, 238320, Note_on_c, 1, 57, 41
3, 238558, Note_off_c, 1, 57, 41
3, 238560, Note_on_c, 1, 54, 48
3, 238798, Note_off_c, 1, 54, 48
3, 238800, Note_on_c, 1, 57, 45
3, 239014, Control_c, 1, 64, 0
3, 239038, Note_off_c, 1, 57, 45
3, 239040, Note_on_c, 1, 55, 45
3, 239057, Control_c, 1, 64, 127
3, 239278, Note_off_c, 1, 55, 45
3, 239280, Note_on_c, 1, 59, 31
3, 239518, Note_off_c, 1, 59, 31
3, 239520, Note_on_c, 1, 62, 31
3, 239758, Note_off_c, 1, 62, 31
3, 239760, Note_on_c, 1, 59, 24
3, 239974, Control_c, 1, 64, 0
3, 239998, Note_off_c, 1, 59, 24
3, 240000, Note_on_c, 1, 55, 34
3, 240478, Note_off_c, 1, 55, 34
3, 240960, Note_on_c, 1, 55, 45
3, 240977, Control_c, 1, 64, 127
3, 241198, Note_off_c, 1, 55, 45
3, 241200, Note_on_c, 1, 59, 53
3, 241438, Note_off_c, 1, 59, 53
3, 241440, Note_on_c, 1, 62, 47
3, 241678, Note_off_c, 1, 62, 47
3, 241680, Note_on_c, 1, 59, 55
3, 241894, Control_c, 1, 64, 0
3, 241918, Note_off_c, 1, 59, 55
3, 241920, Note_on_c, 1, 55, 58
3, 242398, Note_off_c, 1, 55, 58
3, 242880, Note_on_c, 1, 55, 45
3, 242897, Control_c, 1, 64, 127
3, 243118, Note_off_c, 1, 55, 45
3, 243120, Note_on_c, 1, 59, 53
3, 243358, Note_off_c, 1, 59, 53
3, 243360, Note_on_c, 1, 62, 47
3, 243598, Note_off_c, 1, 62, 47
3, 243600, Note_on_c, 1, 59, 55
3, 243814, Control_c, 1, 64, 0
3, 243838, Note_off_c, 1, 59, 55
3, 243840, Note_on_c, 1, 55, 58
3, 244318, Note_off_c, 1, 55, 58
3, 244800, Note_on_c, 1, 56, 62
3, 244817, Control_c, 1, 64, 127
3, 245278, Note_off_c, 1, 56, 62
3, 245280, Note_on_c, 1, 59, 62
3, 245734, Control_c, 1, 64, 0
3, 245758, Note_off_c, 1, 59, 62
3, 245760, Note_on_c, 1, 62, 57
3, 245777, Control_c, 1, 64, 127
3, 246238, Note_off_c, 1, 62, 57
3, 246240, Note_on_c, 1, 65, 64
3, 246694, Control_c, 1, 64, 0
3, 246718, Note_off_c, 1, 65, 64
3, 246720, Note_on_c, 1, 62, 58
3, 247198, Note_off_c, 1, 62, 58
3, 247200, Note_on_c, 1, 59, 66
3, 247678, Note_off_c, 1, 59, 66
3, 247680, Note_on_c, 1, 56, 61
3, 248158, Note_off_c, 1, 56, 61
3, 248160, Note_on_c, 1, 64, 62
3, 248638, Note_off_c, 1, 64, 62
3, 248640, Note_on_c, 1, 57, 42
3, 248657, Control_c, 1, 64, 127
3, 248878, Note_off_c, 1, 57, 42
3, 248880, Note_on_c, 1, 60, 51
3, 249118, Note_off_c, 1, 60, 51
3, 249120, Note_on_c, 1, 64, 37
3, 249358, Note_off_c, 1, 64, 37
3, 249360, Note_on_c, 1, 60, 55
3, 249574, Control_c, 1, 64, 0
3, 249598, Note_off_c, 1, 60, 55
3, 249600, Note_on_c, 1, 57, 52
3, 249838, Note_off_c, 1, 57, 52
3, 249840, Note_on_c, 1, 60, 47
3, 250078, Note_off_c, 1, 60, 47
3, 250080, Note_on_c, 1, 65, 51
3, 250318, Note_off_c, 1, 65, 51
3, 250320, Note_on_c, 1, 60, 28
3, 250558, Note_off_c, 1, 60, 28
3, 250560, Note_on_c, 1, 55, 56
3, 250577, Control_c, 1, 64, 127
3, 250798, Note_off_c, 1, 55, 56
3, 250800, Note_on_c, 1, 62, 46
3, 251038, Note_off_c, 1, 62, 46
3, 251040, Note_on_c, 1, 65, 56
3, 251278, Note_off_c, 1, 65, 56
3, 251280, Note_on_c, 1, 62, 42
3, 251494, Control_c, 1, 64, 0
3, 251518, Note_off_c, 1, 62, 42
3, 251520, Note_on_c, 1, 55, 64
3, 251537, Control_c, 1, 64, 127
3, 251758, Note_off_c, 1, 55, 64
3, 251760, Note_on_c, 1, 60, 52
3, 251998, Note_off_c, 1, 60, 52
3, 252000, Note_on_c, 1, 64, 46
3, 252238, Note_off_c, 1, 64, 46
3, 252240, Note_on_c, 1, 60, 41
3, 252454, Control_c, 1, 64, 0
3, 252478, Note_off_c, 1, 60, 41
3, 252480, Note_on_c, 1, 53, 64
3, 252497, Control_c, 1, 64, 127
3, 252718, Note_off_c, 1, 53, 64
3, 252720, Note_on_c, 1, 60, 58
3, 252958, Note_off_c, 1, 60, 58
3, 252960, Note_on_c, 1, 65, 63
3, 253198, Note_off_c, 1, 65, 63
3, 253200, Note_on_c, 1, 60, 63
3, 253414, Control_c, 1, 64, 0
3, 253438, Note_off_c, 1, 60, 63
3, 253440, Note_on_c, 1, 53, 62
3, 253457, Control_c, 1, 64, 127
3, 253678, Note_off_c, 1, 53, 62
3, 253680, Note_on_c, 1, 57, 64
3, 253918, Note_off_c, 1, 57, 64
3, 253920, Note_on_c, 1, 62, 56
3, 254158, Note_off_c, 1, 62, 56
3, 254160, Note_on_c, 1, 57, 56
3, 254374, Control_c, 1, 64, 0
3, 254398, Note_off_c, 1, 57, 56
3, 254400, Note_on_c, 1, 52, 64
3, 254417, Control_c, 1, 64, 127
3, 254638, Note_off_c, 1, 52, 64
3, 254640, Note_on_c, 1, 57, 52
3, 254878, Note_off_c, 1, 57, 52
3, 254880, Note_on_c, 1, 61, 58
3, 255118, Note_off_c, 1, 61, 58
3, 255120, Note_on_c, 1, 57, 40
3, 255334, Control_c, 1, 64, 0
3, 255358, Note_off_c, 1, 57, 40
3, 255360, Note_on_c, 1, 52, 60
3, 255377, Control_c, 1, 64, 127
3, 255598, Note_off_c, 1, 52, 60
3, 255600, Note_on_c, 1, 57, 45
3, 255838, Note_off_c, 1, 57, 45
3, 255840, Note_on_c, 1, 61, 43
3, 256078, Note_off_c, 1, 61, 43
3, 256080, Note_on_c, 1, 57, 45
3, 256294, Control_c, 1, 64, 0
3, 256318, Note_off_c, 1, 57, 45
3, 256320, Note_on_c, 1, 50, 52
3, 256558, Note_off_c, 1, 50, 52
3, 256560, Note_on_c, 1, 57, 47
3, 256798, Note_off_c, 1, 57, 47
3, 256800, Note_on_c, 1, 60, 35
3, 257038, Note_off_c, 1, 60, 35
3, 257040, Note_on_c, 1, 57, 26
3, 257278, Note_off_c, 1, 57, 26
3, 257280, Note_on_c, 1, 50, 61
3, 257297, Control_c, 1, 64, 127
3, 257518, Note_off_c, 1, 50, 61
3, 257520, Note_on_c, 1, 55, 55
3, 257758, Note_off_c, 1, 55, 55
3, 257760, Note_on_c, 1, 59, 45
3, 257998, Note_off_c, 1, 59, 45
3, 258000, Note_on_c, 1, 55, 50
3, 258214, Control_c, 1, 64, 0
3, 258238, Note_off_c, 1, 55, 50
3, 258240, Note_on_c, 1, 48, 61
3, 258257, Control_c, 1, 64, 127
3, 258478, Note_off_c, 1, 48, 61
3, 258480, Note_on_c, 1, 55, 38
3, 258718, Note_off_c, 1, 55, 38
3, 258720, Note_on_c, 1, 60, 51
3, 258958, Note_off_c, 1, 60, 51
3, 258960, Note_on_c, 1, 55, 43
3, 259174, Control_c, 1, 64, 0
3, 259198, Note_off_c, 1, 55, 43
3, 259200, Note_on_c, 1, 48, 61
3, 259217, Control_c, 1, 64, 127
3, 259438, Note_off_c, 1, 48, 61
3, 259440, Note_on_c, 1, 55, 42
3, 259678, Note_off_c, 1, 55, 42
3, 259680, Note_on_c, 1, 60, 50
3, 259918, Note_off_c, 1, 60, 50
3, 259920, Note_on_c, 1, 55, 41
3, 260134, Control_c, 1, 64, 0
3, 260158, Note_off_c, 1, 55, 41
3, 260160, Note_on_c, 1, 53, 43
3, 260177, Control_c, 1, 64, 127
3, 260398, Note_off_c, 1, 53, 43
3, 260400, Note_on_c, 1, 56, 42
3, 260638, Note_off_c, 1, 56, 42
3, 260640, Note_on_c, 1, 60, 56
3, 260878, Note_off_c, 1, 60, 56
3, 260880, Note_on_c, 1, 56, 50
3, 261094, Control_c, 1, 64, 0
3, 261118, Note_off_c, 1, 56, 50
3, 261120, Note_on_c, 1, 53, 64
3, 261358, Note_off_c, 1, 53, 64
3, 261360, Note_on_c, 1, 56, 63
3, 261598, Note_off_c, 1, 56, 63
3, 261600, Note_on_c, 1, 60, 55
3, 261838, Note_off_c, 1, 60, 55
3, 261840, Note_on_c, 1, 56, 55
3, 262078, Note_off_c, 1, 56, 55
3, 262080, Note_on_c, 1, 54, 62
3, 262318, Note_off_c, 1, 54, 62
3, 262320, Note_on_c, 1, 57, 64
3, 262558, Note_off_c, 1, 57, 64
3, 262560, Note_on_c, 1, 60, 55
3, 262798, Note_off_c, 1, 60, 55
3, 262800, Note_on_c, 1, 57, 62
3, 263038, Note_off_c, 1, 57, 62
3, 263040, Note_on_c, 1, 54, 66
3, 263278, Note_off_c, 1, 54, 66
3, 263280, Note_on_c, 1, 57, 68
3, 263518, Note_off_c, 1, 57, 68
3, 263520, Note_on_c, 1, 60, 55
3, 263758, Note_off_c, 1, 60, 55
3, 263760, Note_on_c, 1, 57, 61
3, 263998, Note_off_c, 1, 57, 61
3, 264000, Note_on_c, 1, 55, 52
3, 264478, Note_off_c, 1, 55, 52
3, 264480, Note_on_c, 1, 55, 61
3, 264958, Note_off_c, 1, 55, 61
3, 264960, Note_on_c, 1, 57, 45
3, 264960, Note_on_c, 1, 55, 47
3, 265438, Note_off_c, 1, 57, 45
3, 265438, Note_off_c, 1, 55, 47
3, 265440, Note_on_c, 1, 59, 66
3, 265440, Note_on_c, 1, 55, 66
3, 265918, Note_off_c, 1, 59, 66
3, 265918, Note_off_c, 1, 55, 66
3, 265920, Note_on_c, 1, 60, 64
3, 265920, Note_on_c, 1, 55, 64
3, 266398, Note_off_c, 1, 60, 64
3, 266398, Note_off_c, 1, 55, 64
3, 266400, Note_on_c, 1, 67, 68
3, 266400, Note_on_c, 1, 55, 62
3, 266878, Note_off_c, 1, 67, 68
3, 266878, Note_off_c, 1, 55, 62
3, 266880, Note_on_c, 1, 65, 53
3, 266880, Note_on_c, 1, 55, 63
3, 267358, Note_off_c, 1, 65, 53
3, 267358, Note_off_c, 1, 55, 63
3, 267360, Note_on_c, 1, 55, 58
3, 267360, Note_on_c, 1, 63, 62
3, 267838, Note_off_c, 1, 55, 58
3, 267838, Note_off_c, 1, 63, 62
3, 267840, Note_on_c, 1, 62, 60
3, 267840, Note_on_c, 1, 55, 51
3, 268318, Note_off_c, 1, 62, 60
3, 268318, Note_off_c, 1, 55, 51
3, 268320, Note_on_c, 1, 59, 46
3, 268320, Note_on_c, 1, 55, 52
3, 268606, Note_off_c, 1, 59, 46
3, 268606, Note_off_c, 1, 55, 52
3, 268800, Note_on_c, 1, 57, 56
3, 268800, Note_on_c, 1, 55, 57
3, 269086, Note_off_c, 1, 57, 56
3, 269086, Note_off_c, 1, 55, 57
3, 269280, Note_on_c, 1, 55, 53
3, 269280, Note_on_c, 1, 59, 51
3, 269566, Note_off_c, 1, 55, 53
3, 269566, Note_off_c, 1, 59, 51
3, 269760, Note_on_c, 1, 55, 55
3, 269760, Note_on_c, 1, 60, 63
3, 270046, Note_off_c, 1, 55, 55
3, 270046, Note_off_c, 1, 60, 63
3, 270240, Note_on_c, 1, 67, 68
3, 270240, Note_on_c, 1, 55, 60
3, 270526, Note_off_c, 1, 67, 68
3, 270526, Note_off_c, 1, 55, 60
3, 270720, Note_on_c, 1, 65, 67
3, 270720, Note_on_c, 1, 55, 63
3, 271006, Note_off_c, 1, 65, 67
3, 271006, Note_off_c, 1, 55, 63
3, 271200, Note_on_c, 1, 63, 58
3, 271200, Note_on_c, 1, 54, 52
3, 271486, Note_off_c, 1, 63, 58
3, 271486, Note_off_c, 1, 54, 52
3, 271680, Note_on_c, 1, 62, 64
3, 271680, Note_on_c, 1, 55, 63
3, 272158, Note_off_c, 1, 62, 64
3, 272158, Note_off_c, 1, 55, 63
3, 273600, Note_on_c, 1, 62, 53
3, 273600, Note_on_c, 1, 55, 33
3, 274078, Note_off_c, 1, 62, 53
3, 274078, Note_off_c, 1, 55, 33
3, 274320, Note_on_c, 1, 61, 45
3, 274558, Note_off_c, 1, 61, 45
3, 274560, Note_on_c, 1, 55, 33
3, 274560, Note_on_c, 1, 62, 53
3, 275038, Note_off_c, 1, 55, 33
3, 275038, Note_off_c, 1, 62, 53
3, 275280, Note_on_c, 1, 61, 45
3, 275518, Note_off_c, 1, 61, 45
3, 275520, Note_on_c, 1, 55, 33
3, 275520, Note_on_c, 1, 62, 53
3, 275998, Note_off_c, 1, 55, 33
3, 275998, Note_off_c, 1, 62, 53
3, 276240, Note_on_c, 1, 61, 45
3, 276478, Note_off_c, 1, 61, 45
3, 276480, Note_on_c, 1, 62, 28
3, 276480, Note_on_c, 1, 55, 45
3, 276718, Note_off_c, 1, 62, 28
3, 276720, Note_on_c, 1, 61, 45
3, 276958, Note_off_c, 1, 55, 45
3, 276958, Note_off_c, 1, 61, 45
3, 276960, Note_on_c, 1, 62, 48
3, 276960, Note_on_c, 1, 55, 52
3, 277198, Note_off_c, 1, 62, 48
3, 277200, Note_on_c, 1, 61, 57
3, 277438, Note_off_c, 1, 55, 52
3, 277438, Note_off_c, 1, 61, 57
3, 277440, Note_on_c, 1, 62, 48
3, 277440, Note_on_c, 1, 55, 52
3, 278398, Note_off_c, 1, 62, 48
3, 278398, Note_off_c, 1, 55, 52
3, 278640, Note_on_c, 1, 57, 55
3, 278758, Note_off_c, 1, 57, 55
3, 278880, Note_on_c, 1, 59, 58
3, 278998, Note_off_c, 1, 59, 58
3, 279120, Note_on_c, 1, 60, 55
3, 279238, Note_off_c, 1, 60, 55
3, 279360, Note_on_c, 1, 62, 55
3, 279478, Note_off_c, 1, 62, 55
3, 279600, Note_on_c, 1, 60, 58
3, 279718, Note_off_c, 1, 60, 58
3, 279840, Note_on_c, 1, 59, 56
3, 279958, Note_off_c, 1, 59, 56
3, 280080, Note_on_c, 1, 60, 56
3, 280198, Note_off_c, 1, 60, 56
3, 280320, Note_on_c, 1, 62, 64
3, 280438, Note_off_c, 1, 62, 64
3, 280560, Note_on_c, 1, 61, 62
3, 280678, Note_off_c, 1, 61, 62
3, 280800, Note_on_c, 1, 62, 62
3, 280918, Note_off_c, 1, 62, 62
3, 281040, Note_on_c, 1, 63, 62
3, 281158, Note_off_c, 1, 63, 62
3, 281255, Note_on_c, 1, 64, 46
3, 281297, Control_c, 1, 64, 127
3, 281519, Note_on_c, 1, 60, 29
3, 281522, Note_off_c, 1, 64, 46
3, 281727, Note_off_c, 1, 60, 29
3, 281744, Note_on_c, 1, 64, 55
3, 281970, Note_on_c, 1, 60, 46
3, 281982, Note_off_c, 1, 64, 55
3, 282214, Control_c, 1, 64, 0
3, 282218, Note_on_c, 1, 64, 45
3, 282228, Note_off_c, 1, 60, 46
3, 282442, Note_on_c, 1, 60, 56
3, 282448, Note_off_c, 1, 64, 45
3, 282716, Note_off_c, 1, 60, 56
3, 282718, Note_on_c, 1, 65, 36
3, 282923, Note_on_c, 1, 60, 33
3, 282926, Note_off_c, 1, 65, 36
3, 283181, Note_on_c, 1, 64, 43
3, 283187, Note_off_c, 1, 60, 33
3, 283402, Note_on_c, 1, 60, 43
3, 283404, Note_off_c, 1, 64, 43
3, 283640, Note_on_c, 1, 64, 46
3, 283648, Note_off_c, 1, 60, 43
3, 283861, Note_off_c, 1, 64, 46
3, 283862, Note_on_c, 1, 60, 50
3, 284093, Note_on_c, 1, 64, 42
3, 284097, Note_off_c, 1, 60, 50
3, 284342, Note_off_c, 1, 64, 42
3, 284353, Note_on_c, 1, 60, 21
3, 284609, Note_off_c, 1, 60, 21
3, 284611, Note_on_c, 1, 64, 32
3, 284855, Note_on_c, 1, 60, 48
3, 284861, Note_off_c, 1, 64, 32
3, 285109, Note_on_c, 1, 64, 42
3, 285119, Note_off_c, 1, 60, 48
3, 285137, Control_c, 1, 64, 127
3, 285358, Note_off_c, 1, 64, 42
3, 285373, Note_on_c, 1, 60, 45
3, 285438, Note_off_c, 1, 60, 45
3, 285598, Note_on_c, 1, 64, 46
3, 285842, Note_off_c, 1, 64, 46
3, 285853, Note_on_c, 1, 60, 31
3, 286054, Control_c, 1, 64, 0
3, 286064, Note_off_c, 1, 60, 31
3, 286091, Note_on_c, 1, 64, 40
3, 286314, Note_on_c, 1, 60, 42
3, 286332, Note_off_c, 1, 64, 40
3, 286552, Note_off_c, 1, 60, 42
3, 286581, Note_on_c, 1, 65, 41
3, 286774, Note_off_c, 1, 65, 41
3, 286784, Note_on_c, 1, 60, 45
3, 286933, Note_off_c, 1, 60, 45
3, 287038, Note_on_c, 1, 64, 48
3, 287252, Note_on_c, 1, 60, 38
3, 287258, Note_off_c, 1, 64, 48
3, 287493, Note_off_c, 1, 60, 38
3, 287502, Note_on_c, 1, 64, 36
3, 287736, Note_on_c, 1, 60, 48
3, 287739, Note_off_c, 1, 64, 36
3, 287965, Note_off_c, 1, 60, 48
3, 287968, Note_on_c, 1, 64, 35
3, 288228, Note_on_c, 1, 60, 43
3, 288230, Note_off_c, 1, 64, 35
3, 288461, Note_off_c, 1, 60, 43
3, 288470, Note_on_c, 1, 64, 46
3, 288701, Note_off_c, 1, 64, 46
3, 288709, Note_on_c, 1, 60, 55
3, 288938, Note_off_c, 1, 60, 55
3, 288950, Note_on_c, 1, 65, 48
3, 289155, Note_off_c, 1, 65, 48
3, 289180, Note_on_c, 1, 60, 27
3, 289293, Note_off_c, 1, 60, 27
3, 289410, Note_on_c, 1, 65, 48
3, 289503, Note_off_c, 1, 65, 48
3, 289646, Note_on_c, 1, 60, 30
3, 289768, Note_off_c, 1, 60, 30
3, 289888, Note_on_c, 1, 65, 52
3, 290122, Note_off_c, 1, 65, 52
3, 290131, Note_on_c, 1, 60, 46
3, 290213, Note_off_c, 1, 60, 46
3, 290373, Note_on_c, 1, 65, 43
3, 290608, Note_on_c, 1, 60, 45
3, 290615, Note_off_c, 1, 65, 43
3, 290676, Note_off_c, 1, 60, 45
3, 290858, Note_on_c, 1, 64, 47
3, 291032, Note_off_c, 1, 64, 47
3, 291107, Note_on_c, 1, 60, 51
3, 291230, Note_off_c, 1, 60, 51
3, 291356, Note_on_c, 1, 64, 57
3, 291434, Note_off_c, 1, 64, 57
3, 291584, Note_on_c, 1, 60, 47
3, 291662, Note_off_c, 1, 60, 47
3, 291814, Note_on_c, 1, 64, 58
3, 292061, Note_off_c, 1, 64, 58
3, 292064, Note_on_c, 1, 60, 41
3, 292133, Note_off_c, 1, 60, 41
3, 292308, Note_on_c, 1, 64, 55
3, 292515, Note_off_c, 1, 64, 55
3, 292538, Note_on_c, 1, 60, 52
3, 292628, Note_off_c, 1, 60, 52
3, 292783, Note_on_c, 1, 64, 67
3, 292790, Note_on_c, 1, 60, 56
3, 292817, Control_c, 1, 64, 127
3, 293035, Note_on_c, 1, 55, 43
3, 293051, Note_off_c, 1, 60, 56
3, 293058, Note_off_c, 1, 64, 67
3, 293248, Note_off_c, 1, 55, 43
3, 293284, Note_on_c, 1, 64, 56
3, 293286, Note_on_c, 1, 60, 55
3, 293518, Note_on_c, 1, 55, 42
3, 293533, Note_off_c, 1, 64, 56
3, 293545, Note_off_c, 1, 60, 55
3, 293717, Note_off_c, 1, 55, 42
3, 293734, Control_c, 1, 64, 0
3, 293763, Note_on_c, 1, 59, 50
3, 293766, Note_on_c, 1, 62, 56
3, 293993, Note_on_c, 1, 55, 48
3, 294022, Note_off_c, 1, 59, 50
3, 294023, Note_off_c, 1, 62, 56
3, 294228, Note_on_c, 1, 62, 50
3, 294231, Note_off_c, 1, 55, 48
3, 294233, Note_on_c, 1, 59, 42
3, 294447, Note_on_c, 1, 55, 48
3, 294460, Note_off_c, 1, 59, 42
3, 294474, Note_off_c, 1, 62, 50
3, 294660, Note_off_c, 1, 55, 48
3, 294697, Note_on_c, 1, 60, 61
3, 294929, Note_on_c, 1, 48, 63
3, 294945, Note_off_c, 1, 60, 61
3, 295185, Note_on_c, 1, 52, 64
3, 295212, Note_off_c, 1, 48, 63
3, 295401, Note_off_c, 1, 52, 64
3, 295425, Note_on_c, 1, 55, 42
3, 295656, Note_on_c, 1, 60, 56
3, 295679, Note_off_c, 1, 55, 42
3, 295908, Note_on_c, 1, 64, 63
3, 295914, Note_off_c, 1, 60, 56
3, 296139, Note_on_c, 1, 67, 52
3, 296143, Note_off_c, 1, 64, 63
3, 296390, Note_on_c, 1, 64, 22
3, 296408, Note_off_c, 1, 67, 52
3, 296548, Note_off_c, 1, 64, 22
3, 296629, Note_on_c, 1, 65, 56
3, 296657, Control_c, 1, 64, 127
3, 296877, Note_on_c, 1, 60, 30
3, 296902, Note_off_c, 1, 65, 56
3, 296968, Note_off_c, 1, 60, 30
3, 297132, Note_on_c, 1, 65, 50
3, 297355, Note_on_c, 1, 60, 55
3, 297393, Note_off_c, 1, 65, 50
3, 297437, Note_off_c, 1, 60, 55
3, 297574, Control_c, 1, 64, 0
3, 297588, Note_on_c, 1, 65, 56
3, 297828, Note_on_c, 1, 60, 43
3, 297869, Note_off_c, 1, 65, 56
3, 297898, Note_off_c, 1, 60, 43
3, 298063, Note_on_c, 1, 65, 52
3, 298319, Note_on_c, 1, 60, 38
3, 298342, Note_off_c, 1, 65, 52
3, 298378, Note_off_c, 1, 60, 38
3, 298565, Note_on_c, 1, 64, 52
3, 298577, Control_c, 1, 64, 127
3, 298815, Note_on_c, 1, 60, 38
3, 298847, Note_off_c, 1, 64, 52
3, 298910, Note_off_c, 1, 60, 38
3, 299045, Note_on_c, 1, 64, 52
3, 299262, Note_on_c, 1, 60, 36
3, 299290, Note_off_c, 1, 64, 52
3, 299336, Note_off_c, 1, 60, 36
3, 299494, Control_c, 1, 64, 0
3, 299504, Note_on_c, 1, 64, 46
3, 299753, Note_on_c, 1, 60, 40
3, 299782, Note_off_c, 1, 64, 46
3, 299832, Note_off_c, 1, 60, 40
3, 299999, Note_on_c, 1, 64, 48
3, 300237, Note_on_c, 1, 60, 55
3, 300273, Note_off_c, 1, 64, 48
3, 300319, Note_off_c, 1, 60, 55
3, 300473, Note_on_c, 1, 64, 63
3, 300475, Note_on_c, 1, 60, 57
3, 300497, Control_c, 1, 64, 127
3, 300716, Note_on_c, 1, 55, 62
3, 300719, Note_off_c, 1, 64, 63
3, 300721, Note_off_c, 1, 60, 57
3, 300782, Note_off_c, 1, 55, 62
3, 300945, Note_on_c, 1, 64, 61
3, 300949, Note_on_c, 1, 60, 56
3, 301191, Note_off_c, 1, 60, 56
3, 301193, Note_on_c, 1, 55, 66
3, 301200, Note_off_c, 1, 64, 61
3, 301257, Note_off_c, 1, 55, 66
3, 301414, Control_c, 1, 64, 0
3, 301425, Note_on_c, 1, 62, 58
3, 301428, Note_on_c, 1, 65, 67
3, 301656, Note_off_c, 1, 62, 58
3, 301663, Note_off_c, 1, 65, 67
3, 301681, Note_on_c, 1, 55, 62
3, 301783, Note_off_c, 1, 55, 62
3, 301905, Note_on_c, 1, 65, 63
3, 301908, Note_on_c, 1, 62, 57
3, 302122, Note_off_c, 1, 65, 63
3, 302124, Note_off_c, 1, 62, 57
3, 302151, Note_on_c, 1, 55, 68
3, 302225, Note_off_c, 1, 55, 68
3, 302373, Note_on_c, 1, 64, 62
3, 302378, Note_on_c, 1, 60, 63
3, 302810, Channel_aftertouch_c, 1, 1
3, 302819, Channel_aftertouch_c, 1, 3
3, 302828, Channel_aftertouch_c, 1, 5
3, 302850, Channel_aftertouch_c, 1, 6
3, 302863, Channel_aftertouch_c, 1, 7
3, 302872, Channel_aftertouch_c, 1, 9
3, 302885, Channel_aftertouch_c, 1, 10
3, 302899, Channel_aftertouch_c, 1, 12
3, 302913, Channel_aftertouch_c, 1, 13
3, 302935, Channel_aftertouch_c, 1, 14
3, 302948, Channel_aftertouch_c, 1, 15
3, 302966, Channel_aftertouch_c, 1, 16
3, 302975, Channel_aftertouch_c, 1, 18
3, 302989, Channel_aftertouch_c, 1, 20
3, 303007, Channel_aftertouch_c, 1, 21
3, 303055, Channel_aftertouch_c, 1, 22
3, 303064, Channel_aftertouch_c, 1, 24
3, 303074, Channel_aftertouch_c, 1, 25
3, 303097, Channel_aftertouch_c, 1, 27
3, 303141, Channel_aftertouch_c, 1, 25
3, 303155, Channel_aftertouch_c, 1, 23
3, 303159, Channel_aftertouch_c, 1, 20
3, 303164, Channel_aftertouch_c, 1, 16
3, 303169, Channel_aftertouch_c, 1, 12
3, 303173, Channel_aftertouch_c, 1, 6
3, 303178, Channel_aftertouch_c, 1, 1
3, 303182, Channel_aftertouch_c, 1, 0
3, 303242, Note_off_c, 1, 64, 62
3, 303248, Note_off_c, 1, 60, 63
3, 304308, Note_on_c, 1, 64, 61
3, 304321, Note_on_c, 1, 55, 56
3, 304366, Note_off_c, 1, 64, 61
3, 304380, Note_off_c, 1, 55, 56
3, 304821, Note_on_c, 1, 62, 52
3, 304833, Note_on_c, 1, 55, 55
3, 304873, Note_off_c, 1, 62, 52
3, 304882, Note_off_c, 1, 55, 55
3, 305295, Note_on_c, 1, 60, 51
3, 305304, Note_on_c, 1, 55, 57
3, 305356, Note_off_c, 1, 60, 51
3, 305358, Note_off_c, 1, 55, 57
3, 305774, Note_on_c, 1, 59, 41
3, 305780, Note_on_c, 1, 55, 34
3, 305832, Note_off_c, 1, 55, 34
3, 305834, Note_off_c, 1, 59, 41
3, 306225, Note_on_c, 1, 60, 62
3, 306728, Note_off_c, 1, 60, 62
3, 308189, Note_on_c, 1, 55, 55
3, 308192, Note_on_c, 1, 64, 62
3, 308248, Note_off_c, 1, 64, 62
3, 308251, Note_off_c, 1, 55, 55
3, 308669, Note_on_c, 1, 62, 60
3, 308675, Note_on_c, 1, 55, 61
3, 308720, Note_off_c, 1, 62, 60
3, 308723, Note_off_c, 1, 55, 61
3, 309137, Note_on_c, 1, 60, 55
3, 309140, Note_on_c, 1, 55, 56
3, 309176, Note_off_c, 1, 55, 56
3, 309187, Note_off_c, 1, 60, 55
3, 309601, Note_on_c, 1, 59, 53
3, 309605, Note_on_c, 1, 55, 53
3, 309649, Note_off_c, 1, 55, 53
3, 309652, Note_off_c, 1, 59, 53
3, 310093, Note_on_c, 1, 48, 69
3, 310331, Note_on_c, 1, 60, 58
3, 310353, Note_off_c, 1, 48, 69
3, 310582, Note_on_c, 1, 59, 56
3, 310644, Note_off_c, 1, 60, 58
3, 310832, Note_on_c, 1, 58, 50
3, 310845, Note_off_c, 1, 59, 56
3, 311053, Note_on_c, 1, 57, 63
3, 311067, Note_off_c, 1, 58, 50
3, 311107, Note_off_c, 1, 57, 63
3, 311293, Note_on_c, 1, 57, 68
3, 311567, Note_on_c, 1, 55, 64
3, 311647, Note_off_c, 1, 57, 68
3, 311782, Note_on_c, 1, 53, 68
3, 311788, Note_off_c, 1, 55, 64
3, 311979, Note_off_c, 1, 53, 68
3, 312010, Note_on_c, 1, 52, 67
3, 312062, Note_off_c, 1, 52, 67
3, 312473, Note_on_c, 1, 48, 73
3, 312527, Note_off_c, 1, 48, 73
3, 313485, Note_on_c, 1, 60, 63
3, 313489, Note_on_c, 1, 48, 63
3, 313590, Note_off_c, 1, 48, 63
3, 313606, Note_off_c, 1, 60, 63
3, 313920, Note_on_c, 1, 64, 67
3, 313920, Note_on_c, 1, 55, 58
3, 314634, Note_off_c, 1, 55, 58
3, 314640, Note_on_c, 1, 60, 50
3, 314800, Note_off_c, 1, 64, 67
3, 314877, Note_off_c, 1, 60, 50
3, 314885, Note_on_c, 1, 59, 58
3, 315105, Note_on_c, 1, 43, 64
3, 315108, Note_off_c, 1, 59, 58
3, 315350, Note_on_c, 1, 47, 63
3, 315361, Note_off_c, 1, 43, 64
3, 315595, Note_off_c, 1, 47, 63
3, 315596, Note_on_c, 1, 50, 66
3, 315775, Note_off_c, 1, 50, 66
3, 315841, Note_on_c, 1, 55, 67
3, 315857, Control_c, 1, 64, 127
3, 316078, Note_on_c, 1, 59, 58
3, 316116, Note_off_c, 1, 55, 67
3, 316301, Note_on_c, 1, 62, 60
3, 316323, Note_off_c, 1, 59, 58
3, 316462, Note_off_c, 1, 62, 60
3, 316770, Note_on_c, 1, 55, 55
3, 316774, Control_c, 1, 64, 0
3, 317034, Note_on_c, 1, 59, 61
3, 317056, Note_off_c, 1, 55, 55
3, 317270, Note_on_c, 1, 62, 53
3, 317278, Note_off_c, 1, 59, 61
3, 317413, Note_off_c, 1, 62, 53
3, 317744, Note_on_c, 1, 55, 57
3, 317983, Note_on_c, 1, 60, 53
3, 318018, Note_off_c, 1, 55, 57
3, 318237, Note_on_c, 1, 64, 33
3, 318260, Note_off_c, 1, 60, 53
3, 318482, Note_off_c, 1, 64, 33
3, 318483, Note_on_c, 1, 60, 43
3, 318573, Note_off_c, 1, 60, 43
3, 318714, Note_on_c, 1, 55, 55
3, 318737, Control_c, 1, 64, 127
3, 318959, Note_on_c, 1, 60, 42
3, 318998, Note_off_c, 1, 55, 55
3, 319192, Note_on_c, 1, 64, 46
3, 319215, Note_off_c, 1, 60, 42
3, 319314, Note_off_c, 1, 64, 46
3, 319442, Note_on_c, 1, 60, 50
3, 319550, Note_off_c, 1, 60, 50
3, 319654, Control_c, 1, 64, 0
3, 319673, Note_on_c, 1, 54, 52
3, 319697, Control_c, 1, 64, 127
3, 319931, Note_on_c, 1, 57, 51
3, 319958, Note_off_c, 1, 54, 52
3, 320174, Note_on_c, 1, 60, 57
3, 320220, Note_off_c, 1, 57, 51
3, 320284, Note_off_c, 1, 60, 57
3, 320614, Control_c, 1, 64, 0
3, 320669, Note_on_c, 1, 54, 56
3, 320894, Note_on_c, 1, 57, 58
3, 320926, Note_off_c, 1, 54, 56
3, 321131, Note_on_c, 1, 60, 56
3, 321143, Note_off_c, 1, 57, 58
3, 321208, Note_off_c, 1, 60, 56
3, 321600, Note_on_c, 1, 53, 55
3, 321617, Control_c, 1, 64, 127
3, 321838, Note_off_c, 1, 53, 55
3, 321840, Note_on_c, 1, 55, 53
3, 322078, Note_off_c, 1, 55, 53
3, 322080, Note_on_c, 1, 59, 57
3, 322318, Note_off_c, 1, 59, 57
3, 322320, Note_on_c, 1, 62, 69
3, 322534, Control_c, 1, 64, 0
3, 322558, Note_off_c, 1, 62, 69
3, 322560, Note_on_c, 1, 65, 64
3, 323038, Note_off_c, 1, 65, 64
3, 323040, Note_on_c, 1, 64, 58
3, 323278, Note_off_c, 1, 64, 58
3, 323280, Note_on_c, 1, 62, 34
3, 323518, Note_off_c, 1, 62, 34
3, 323520, Note_on_c, 1, 60, 37
3, 323758, Note_off_c, 1, 60, 37
3, 323760, Note_on_c, 1, 64, 55
3, 323998, Note_off_c, 1, 64, 55
3, 324000, Note_on_c, 1, 67, 61
3, 324238, Note_off_c, 1, 67, 61
3, 324480, Note_on_c, 1, 60, 55
3, 324718, Note_off_c, 1, 60, 55
3, 324720, Note_on_c, 1, 64, 52
3, 324958, Note_off_c, 1, 64, 52
3, 324960, Note_on_c, 1, 67, 43
3, 325198, Note_off_c, 1, 67, 43
3, 325440, Note_on_c, 1, 60, 58
3, 325457, Control_c, 1, 64, 127
3, 325678, Note_off_c, 1, 60, 58
3, 325680, Note_on_c, 1, 65, 56
3, 325918, Note_off_c, 1, 65, 56
3, 325920, Note_on_c, 1, 69, 53
3, 326158, Note_off_c, 1, 69, 53
3, 326160, Note_on_c, 1, 65, 45
3, 326374, Control_c, 1, 64, 0
3, 326398, Note_off_c, 1, 65, 45
3, 326400, Note_on_c, 1, 60, 51
3, 326638, Note_off_c, 1, 60, 51
3, 326640, Note_on_c, 1, 65, 46
3, 326878, Note_off_c, 1, 65, 46
3, 326880, Note_on_c, 1, 69, 55
3, 327118, Note_off_c, 1, 69, 55
3, 327120, Note_on_c, 1, 65, 55
3, 327358, Note_off_c, 1, 65, 55
3, 327360, Note_on_c, 1, 62, 68
3, 327360, Note_on_c, 1, 59, 57
3, 327360, Note_on_c, 1, 65, 70
3, 327360, Note_on_c, 1, 67, 74
3, 327377, Control_c, 1, 64, 127
3, 328294, Control_c, 1, 64, 0
3, 329278, Note_off_c, 1, 62, 68
3, 329278, Note_off_c, 1, 59, 57
3, 329278, Note_off_c, 1, 65, 70
3, 329278, Note_off_c, 1, 67, 74
3, 329280, Note_on_c, 1, 60, 42
3, 329438, Note_off_c, 1, 60, 42
3, 329440, Note_on_c, 1, 64, 46
3, 329598, Note_off_c, 1, 64, 46
3, 329600, Note_on_c, 1, 72, 55
3, 329758, Note_off_c, 1, 72, 55
3, 329760, Note_on_c, 1, 62, 68
3, 329918, Note_off_c, 1, 62, 68
3, 329920, Note_on_c, 1, 65, 41
3, 330078, Note_off_c, 1, 65, 41
3, 330080, Note_on_c, 1, 72, 38
3, 330238, Note_off_c, 1, 72, 38
3, 330240, Note_on_c, 1, 64, 63
3, 330398, Note_off_c, 1, 64, 63
3, 330400, Note_on_c, 1, 67, 34
3, 330558, Note_off_c, 1, 67, 34
3, 330560, Note_on_c, 1, 72, 52
3, 330718, Note_off_c, 1, 72, 52
3, 330720, Note_on_c, 1, 60, 67
3, 330878, Note_off_c, 1, 60, 67
3, 330880, Note_on_c, 1, 64, 60
3, 331038, Note_off_c, 1, 64, 60
3, 331040, Note_on_c, 1, 72, 58
3, 331198, Note_off_c, 1, 72, 58
3, 331200, Note_on_c, 1, 65, 65
3, 331217, Control_c, 1, 64, 127
3, 331358, Note_off_c, 1, 65, 65
3, 331360, Note_on_c, 1, 69, 46
3, 331518, Note_off_c, 1, 69, 46
3, 331520, Note_on_c, 1, 72, 43
3, 331678, Note_off_c, 1, 72, 43
3, 331680, Note_on_c, 1, 65, 55
3, 331838, Note_off_c, 1, 65, 55
3, 331840, Note_on_c, 1, 69, 36
3, 331998, Note_off_c, 1, 69, 36
3, 332000, Note_on_c, 1, 72, 57
3, 332134, Control_c, 1, 64, 0
3, 332158, Note_off_c, 1, 72, 57
3, 332160, Note_on_c, 1, 65, 43
3, 332318, Note_off_c, 1, 65, 43
3, 332320, Note_on_c, 1, 69, 25
3, 332478, Note_off_c, 1, 69, 25
3, 332480, Note_on_c, 1, 72, 35
3, 332638, Note_off_c, 1, 72, 35
3, 332640, Note_on_c, 1, 65, 51
3, 332798, Note_off_c, 1, 65, 51
3, 332800, Note_on_c, 1, 69, 46
3, 332958, Note_off_c, 1, 69, 46
3, 332960, Note_on_c, 1, 72, 43
3, 333118, Note_off_c, 1, 72, 43
3, 333120, Note_on_c, 1, 60, 67
3, 333278, Note_off_c, 1, 60, 67
3, 333280, Note_on_c, 1, 64, 45
3, 333438, Note_off_c, 1, 64, 45
3, 333440, Note_on_c, 1, 72, 45
3, 333598, Note_off_c, 1, 72, 45
3, 333600, Note_on_c, 1, 62, 66
3, 333758, Note_off_c, 1, 62, 66
3, 333760, Note_on_c, 1, 65, 55
3, 333918, Note_off_c, 1, 65, 55
3, 333920, Note_on_c, 1, 72, 33
3, 334078, Note_off_c, 1, 72, 33
3, 334080, Note_on_c, 1, 64, 55
3, 334097, Control_c, 1, 64, 127
3, 334238, Note_off_c, 1, 64, 55
3, 334240, Note_on_c, 1, 67, 26
3, 334398, Note_off_c, 1, 67, 26
3, 334400, Note_on_c, 1, 72, 36
3, 334558, Note_off_c, 1, 72, 36
3, 334560, Note_on_c, 1, 60, 58
3, 334718, Note_off_c, 1, 60, 58
3, 334720, Note_on_c, 1, 64, 19
3, 334878, Note_off_c, 1, 64, 19
3, 334880, Note_on_c, 1, 72, 33
3, 335014, Control_c, 1, 64, 0
3, 335038, Note_off_c, 1, 72, 33
3, 335040, Note_on_c, 1, 65, 45
3, 335198, Note_off_c, 1, 65, 45
3, 335200, Note_on_c, 1, 69, 27
3, 335358, Note_off_c, 1, 69, 27
3, 335360, Note_on_c, 1, 72, 33
3, 335518, Note_off_c, 1, 72, 33
3, 335520, Note_on_c, 1, 65, 35
3, 335678, Note_off_c, 1, 65, 35
3, 335680, Note_on_c, 1, 69, 18
3, 335838, Note_off_c, 1, 69, 18
3, 335840, Note_on_c, 1, 72, 42
3, 335998, Note_off_c, 1, 72, 42
3, 336000, Note_on_c, 1, 65, 48
3, 336158, Note_off_c, 1, 65, 48
3, 336160, Note_on_c, 1, 69, 36
3, 336318, Note_off_c, 1, 69, 36
3, 336320, Note_on_c, 1, 72, 48
3, 336478, Note_off_c, 1, 72, 48
3, 336480, Note_on_c, 1, 65, 45
3, 336638, Note_off_c, 1, 65, 45
3, 336640, Note_on_c, 1, 69, 38
3, 336798, Note_off_c, 1, 69, 38
3, 336800, Note_on_c, 1, 72, 35
3, 336958, Note_off_c, 1, 72, 35
3, 336960, Note_on_c, 1, 60, 58
3, 337118, Note_off_c, 1, 60, 58
3, 337920, Note_on_c, 1, 53, 52
3, 338398, Note_off_c, 1, 53, 52
3, 338880, Note_on_c, 1, 55, 55
3, 338998, Note_off_c, 1, 55, 55
3, 339360, Note_on_c, 1, 56, 63
3, 339360, Note_on_c, 1, 62, 52
3, 339360, Note_on_c, 1, 59, 52
3, 340318, Note_off_c, 1, 56, 63
3, 340318, Note_off_c, 1, 62, 52
3, 340318, Note_off_c, 1, 59, 52
3, 340320, Note_on_c, 1, 57, 33
3, 340320, Note_on_c, 1, 60, 33
3, 340798, Note_off_c, 1, 57, 33
3, 340798, Note_off_c, 1, 60, 33
3, 340800, Note_on_c, 1, 53, 52
3, 340800, Note_on_c, 1, 57, 36
3, 341278, Note_off_c, 1, 53, 52
3, 341278, Note_off_c, 1, 57, 36
3, 343200, Note_on_c, 1, 64, 46
3, 343200, Note_on_c, 1, 55, 57
3, 343678, Note_off_c, 1, 64, 46
3, 343680, Note_on_c, 1, 65, 40
3, 344638, Note_off_c, 1, 55, 57
3, 344640, Note_off_c, 1, 65, 40
3, 344640, Note_on_c, 1, 60, 46
3, 344640, Note_on_c, 1, 64, 31
3, 344878, Note_off_c, 1, 60, 46
3, 344878, Note_off_c, 1, 64, 31
3, 345120, Note_on_c, 1, 48, 45
3, 345358, Note_off_c, 1, 48, 45
3, 348960, Note_on_c, 1, 59, 29
3, 348960, Note_on_c, 1, 67, 45
3, 349438, Note_off_c, 1, 59, 29
3, 349440, Note_on_c, 1, 60, 45
3, 349918, Note_off_c, 1, 60, 45
3, 349918, Note_off_c, 1, 67, 45
3, 350400, Note_on_c, 1, 53, 33
3, 350400, Note_on_c, 1, 60, 41
3, 351358, Note_off_c, 1, 53, 33
3, 351358, Note_off_c, 1, 60, 41
3, 351840, Note_on_c, 1, 57, 32
3, 351840, Note_on_c, 1, 54, 28
3, 352078, Note_off_c, 1, 57, 32
3, 352078, Note_off_c, 1, 54, 28
3, 352320, Note_on_c, 1, 55, 28
3, 352320, Note_on_c, 1, 60, 45
3, 352798, Note_off_c, 1, 60, 45
3, 352800, Note_on_c, 1, 59, 52
3, 353276, Note_on_c, 1, 67, 91
3, 353278, Note_off_c, 1, 55, 28
3, 353278, Note_off_c, 1, 59, 52
3, 353626, Note_on_c, 1, 69, 64
3, 353664, Note_off_c, 1, 67, 91
3, 353700, Note_on_c, 1, 71, 67
3, 353726, Note_off_c, 1, 69, 64
3, 353745, Note_on_c, 1, 72, 58
3, 353797, Note_off_c, 1, 71, 67
3, 353829, Note_off_c, 1, 72, 58
3, 353991, Note_on_c, 1, 71, 84
3, 354051, Note_off_c, 1, 71, 84
3, 354226, Note_on_c, 1, 69, 82
3, 354284, Note_off_c, 1, 69, 82
3, 354475, Note_on_c, 1, 67, 55
3, 354549, Note_off_c, 1, 67, 55
3, 354710, Note_on_c, 1, 65, 51
3, 354782, Note_off_c, 1, 65, 51
3, 354962, Note_on_c, 1, 64, 34
3, 355023, Note_off_c, 1, 64, 34
3, 355203, Note_on_c, 1, 62, 52
3, 355253, Note_off_c, 1, 62, 52
3, 355691, Note_on_c, 1, 64, 55
3, 355736, Note_off_c, 1, 64, 55
3, 356176, Note_on_c, 1, 65, 68
3, 356230, Note_off_c, 1, 65, 68
3, 356656, Note_on_c, 1, 66, 84
3, 356731, Note_off_c, 1, 66, 84
3, 357115, Note_on_c, 1, 67, 79
3, 357244, Note_off_c, 1, 67, 79
3, 357591, Note_on_c, 1, 68, 66
3, 357654, Note_off_c, 1, 68, 66
3, 358074, Note_on_c, 1, 69, 68
3, 358306, Note_off_c, 1, 69, 68
3, 358578, Note_on_c, 1, 62, 42
3, 358580, Note_on_c, 1, 53, 57
3, 358784, Note_off_c, 1, 53, 57
3, 358847, Note_off_c, 1, 62, 42
3, 359018, Note_on_c, 1, 64, 58
3, 359021, Note_on_c, 1, 55, 62
3, 359316, Note_off_c, 1, 64, 58
3, 359483, Note_on_c, 1, 65, 47
3, 359649, Note_off_c, 1, 55, 62
3, 359774, Note_off_c, 1, 65, 47
3, 360000, Note_on_c, 1, 60, 45
3, 360017, Control_c, 1, 64, 127
3, 360238, Note_off_c, 1, 60, 45
3, 360240, Note_on_c, 1, 64, 48
3, 360478, Note_off_c, 1, 64, 48
3, 360480, Note_on_c, 1, 67, 45
3, 360718, Note_off_c, 1, 67, 45
3, 360720, Note_on_c, 1, 64, 26
3, 360943, Control_c, 1, 64, 0
3, 360958, Note_off_c, 1, 64, 26
3, 360960, Note_on_c, 1, 60, 56
3, 360977, Control_c, 1, 64, 127
3, 361198, Note_off_c, 1, 60, 56
3, 361200, Note_on_c, 1, 65, 63
3, 361438, Note_off_c, 1, 65, 63
3, 361440, Note_on_c, 1, 69, 60
3, 361678, Note_off_c, 1, 69, 60
3, 361680, Note_on_c, 1, 65, 47
3, 361903, Control_c, 1, 64, 0
3, 361918, Note_off_c, 1, 65, 47
3, 361920, Note_on_c, 1, 60, 40
3, 361937, Control_c, 1, 64, 127
3, 362158, Note_off_c, 1, 60, 40
3, 362160, Note_on_c, 1, 64, 41
3, 362398, Note_off_c, 1, 64, 41
3, 362400, Note_on_c, 1, 67, 25
3, 362638, Note_off_c, 1, 67, 25
3, 362640, Note_on_c, 1, 64, 50
3, 362863, Control_c, 1, 64, 0
3, 362878, Note_off_c, 1, 64, 50
3, 362880, Note_on_c, 1, 60, 35
3, 362897, Control_c, 1, 64, 127
3, 363118, Note_off_c, 1, 60, 35
3, 363120, Note_on_c, 1, 65, 43
3, 363358, Note_off_c, 1, 65, 43
3, 363360, Note_on_c, 1, 69, 58
3, 363598, Note_off_c, 1, 69, 58
3, 363600, Note_on_c, 1, 65, 48
3, 363823, Control_c, 1, 64, 0
3, 363838, Note_off_c, 1, 65, 48
3, 363840, Note_on_c, 1, 64, 30
3, 363840, Note_on_c, 1, 67, 36
3, 363840, Note_on_c, 1, 60, 7
3, 364078, Note_off_c, 1, 64, 30
3, 364078, Note_off_c, 1, 67, 36
3, 364078, Note_off_c, 1, 60, 7
3, 364320, Note_on_c, 1, 65, 56
3, 364320, Note_on_c, 1, 67, 34
3, 364798, Note_off_c, 1, 65, 56
3, 364800, Note_on_c, 1, 64, 45
3, 365278, Note_off_c, 1, 64, 45
3, 365278, Note_off_c, 1, 67, 34
3, 365280, Note_on_c, 1, 65, 56
3, 365280, Note_on_c, 1, 67, 42
3, 365758, Note_off_c, 1, 65, 56
3, 365760, Note_off_c, 1, 67, 42
3, 365760, Note_on_c, 1, 67, 34
3, 365760, Note_on_c, 1, 64, 45
3, 366238, Note_off_c, 1, 67, 34
3, 366238, Note_off_c, 1, 64, 45
3, 366240, Note_on_c, 1, 65, 52
3, 366240, Note_on_c, 1, 67, 45
3, 366358, Note_off_c, 1, 65, 52
3, 366358, Note_off_c, 1, 67, 45
3, 366480, Note_on_c, 1, 65, 48
3, 366480, Note_on_c, 1, 67, 51
3, 366598, Note_off_c, 1, 65, 48
3, 366598, Note_off_c, 1, 67, 51
3, 366720, Note_on_c, 1, 67, 51
3, 366720, Note_on_c, 1, 64, 53
3, 366838, Note_off_c, 1, 67, 51
3, 366838, Note_off_c, 1, 64, 53
3, 366960, Note_on_c, 1, 64, 51
3, 366960, Note_on_c, 1, 67, 48
3, 367078, Note_off_c, 1, 64, 51
3, 367078, Note_off_c, 1, 67, 48
3, 367200, Note_on_c, 1, 67, 36
3, 367200, Note_on_c, 1, 59, 60
3, 367318, Note_off_c, 1, 67, 36
3, 367318, Note_off_c, 1, 59, 60
3, 367440, Note_on_c, 1, 59, 60
3, 367440, Note_on_c, 1, 67, 36
3, 367558, Note_off_c, 1, 59, 60
3, 367558, Note_off_c, 1, 67, 36
3, 367680, Note_on_c, 1, 67, 63
3, 367680, Note_on_c, 1, 60, 57
3, 367697, Control_c, 1, 64, 127
3, 368158, Note_off_c, 1, 67, 63
3, 368158, Note_off_c, 1, 60, 57
3, 368623, Control_c, 1, 64, 0
3, 370080, Note_on_c, 1, 57, 55
3, 370080, Note_on_c, 1, 53, 43
3, 370080, Note_on_c, 1, 62, 52
3, 370558, Note_off_c, 1, 57, 55
3, 370558, Note_off_c, 1, 53, 43
3, 370558, Note_off_c, 1, 62, 52
3, 370560, Note_on_c, 1, 64, 53
3, 370560, Note_on_c, 1, 60, 46
3, 370560, Note_on_c, 1, 55, 42
3, 371038, Note_off_c, 1, 64, 53
3, 371038, Note_off_c, 1, 60, 46
3, 371040, Note_on_c, 1, 62, 53
3, 371040, Note_on_c, 1, 65, 55
3, 371518, Note_off_c, 1, 55, 42
3, 371518, Note_off_c, 1, 62, 53
3, 371518, Note_off_c, 1, 65, 55
3, 371520, Note_on_c, 1, 60, 45
3, 371537, Control_c, 1, 64, 127
3, 371758, Note_off_c, 1, 60, 45
3, 371760, Note_on_c, 1, 64, 48
3, 371998, Note_off_c, 1, 64, 48
3, 372000, Note_on_c, 1, 67, 45
3, 372238, Note_off_c, 1, 67, 45
3, 372240, Note_on_c, 1, 64, 26
3, 372463, Control_c, 1, 64, 0
3, 372478, Note_off_c, 1, 64, 26
3, 372480, Note_on_c, 1, 60, 56
3, 372497, Control_c, 1, 64, 127
3, 372718, Note_off_c, 1, 60, 56
3, 372720, Note_on_c, 1, 65, 63
3, 372958, Note_off_c, 1, 65, 63
3, 372960, Note_on_c, 1, 69, 60
3, 373198, Note_off_c, 1, 69, 60
3, 373200, Note_on_c, 1, 65, 47
3, 373423, Control_c, 1, 64, 0
3, 373438, Note_off_c, 1, 65, 47
3, 373440, Note_on_c, 1, 60, 40
3, 373457, Control_c, 1, 64, 127
3, 373678, Note_off_c, 1, 60, 40
3, 373680, Note_on_c, 1, 64, 41
3, 373918, Note_off_c, 1, 64, 41
3, 373920, Note_on_c, 1, 67, 25
3, 374158, Note_off_c, 1, 67, 25
3, 374160, Note_on_c, 1, 64, 50
3, 374383, Control_c, 1, 64, 0
3, 374398, Note_off_c, 1, 64, 50
3, 374400, Note_on_c, 1, 60, 35
3, 374638, Note_off_c, 1, 60, 35
3, 374640, Note_on_c, 1, 65, 43
3, 374878, Note_off_c, 1, 65, 43
3, 374880, Note_on_c, 1, 69, 58
3, 375118, Note_off_c, 1, 69, 58
3, 375120, Note_on_c, 1, 65, 48
3, 375358, Note_off_c, 1, 65, 48
3, 375360, Note_on_c, 1, 60, 7
3, 375360, Note_on_c, 1, 67, 36
3, 375360, Note_on_c, 1, 64, 30
3, 375598, Note_off_c, 1, 60, 7
3, 375598, Note_off_c, 1, 67, 36
3, 375598, Note_off_c, 1, 64, 30
3, 375840, Note_on_c, 1, 67, 34
3, 375840, Note_on_c, 1, 65, 56
3, 376318, Note_off_c, 1, 65, 56
3, 376320, Note_on_c, 1, 64, 45
3, 376798, Note_off_c, 1, 64, 45
3, 376798, Note_off_c, 1, 67, 34
3, 376800, Note_on_c, 1, 67, 42
3, 376800, Note_on_c, 1, 65, 56
3, 377278, Note_off_c, 1, 65, 56
3, 377280, Note_off_c, 1, 67, 42
3, 377280, Note_on_c, 1, 64, 45
3, 377280, Note_on_c, 1, 67, 34
3, 377758, Note_off_c, 1, 64, 45
3, 377758, Note_off_c, 1, 67, 34
3, 377760, Note_on_c, 1, 65, 58
3, 377760, Note_on_c, 1, 67, 51
3, 377878, Note_off_c, 1, 65, 58
3, 377878, Note_off_c, 1, 67, 51
3, 378000, Note_on_c, 1, 65, 43
3, 378000, Note_on_c, 1, 67, 47
3, 378118, Note_off_c, 1, 65, 43
3, 378118, Note_off_c, 1, 67, 47
3, 378240, Note_on_c, 1, 64, 57
3, 378240, Note_on_c, 1, 67, 48
3, 378358, Note_off_c, 1, 64, 57
3, 378358, Note_off_c, 1, 67, 48
3, 378480, Note_on_c, 1, 64, 57
3, 378480, Note_on_c, 1, 67, 57
3, 378598, Note_off_c, 1, 64, 57
3, 378598, Note_off_c, 1, 67, 57
3, 378720, Note_on_c, 1, 67, 25
3, 378720, Note_on_c, 1, 59, 64
3, 378838, Note_off_c, 1, 67, 25
3, 378838, Note_off_c, 1, 59, 64
3, 378960, Note_on_c, 1, 67, 48
3, 378960, Note_on_c, 1, 59, 66
3, 379078, Note_off_c, 1, 67, 48
3, 379078, Note_off_c, 1, 59, 66
3, 379200, Note_on_c, 1, 60, 58
3, 379200, Note_on_c, 1, 67, 52
3, 379217, Control_c, 1, 64, 127
3, 379678, Note_off_c, 1, 60, 58
3, 379678, Note_off_c, 1, 67, 52
3, 380143, Control_c, 1, 64, 0
3, 381600, Note_on_c, 1, 57, 45
3, 381600, Note_on_c, 1, 62, 47
3, 381600, Note_on_c, 1, 53, 57
3, 382078, Note_off_c, 1, 57, 45
3, 382078, Note_off_c, 1, 62, 47
3, 382078, Note_off_c, 1, 53, 57
3, 382080, Note_on_c, 1, 60, 53
3, 382080, Note_on_c, 1, 64, 55
3, 382080, Note_on_c, 1, 55, 55
3, 382558, Note_off_c, 1, 60, 53
3, 382558, Note_off_c, 1, 64, 55
3, 382560, Note_on_c, 1, 62, 61
3, 382560, Note_on_c, 1, 65, 55
3, 383038, Note_off_c, 1, 55, 55
3, 383038, Note_off_c, 1, 62, 61
3, 383038, Note_off_c, 1, 65, 55
3, 383040, Note_on_c, 1, 60, 66
3, 383398, Note_off_c, 1, 60, 66
3, 383400, Note_on_c, 1, 55, 55
3, 383518, Note_off_c, 1, 55, 55
3, 383520, Note_on_c, 1, 64, 60
3, 383878, Note_off_c, 1, 64, 60
3, 383880, Note_on_c, 1, 60, 64
3, 383998, Note_off_c, 1, 60, 64
3, 384000, Note_on_c, 1, 67, 64
3, 384118, Note_off_c, 1, 67, 64
3, 384960, Note_on_c, 1, 55, 53
3, 384960, Note_on_c, 1, 64, 61
3, 384960, Note_on_c, 1, 60, 43
3, 385078, Note_off_c, 1, 55, 53
3, 385078, Note_off_c, 1, 64, 61
3, 385078, Note_off_c, 1, 60, 43
3, 385920, Note_on_c, 1, 59, 43
3, 385920, Note_on_c, 1, 65, 61
3, 385920, Note_on_c, 1, 55, 53
3, 386038, Note_off_c, 1, 59, 43
3, 386038, Note_off_c, 1, 65, 61
3, 386038, Note_off_c, 1, 55, 53
3, 386880, Note_on_c, 1, 60, 66
3, 386998, Note_off_c, 1, 60, 66
3, 387000, Note_on_c, 1, 55, 62
3, 387118, Note_off_c, 1, 55, 62
3, 387120, Note_on_c, 1, 60, 57
3, 387238, Note_off_c, 1, 60, 57
3, 387240, Note_on_c, 1, 55, 58
3, 387358, Note_off_c, 1, 55, 58
3, 387360, Note_on_c, 1, 64, 67
3, 387478, Note_off_c, 1, 64, 67
3, 387480, Note_on_c, 1, 60, 64
3, 387598, Note_off_c, 1, 60, 64
3, 387600, Note_on_c, 1, 64, 69
3, 387718, Note_off_c, 1, 64, 69
3, 387720, Note_on_c, 1, 60, 43
3, 387838, Note_off_c, 1, 60, 43
3, 387840, Note_on_c, 1, 67, 73
3, 387958, Note_off_c, 1, 67, 73
3, 388800, Note_on_c, 1, 64, 53
3, 388800, Note_on_c, 1, 55, 53
3, 388800, Note_on_c, 1, 60, 48
3, 389038, Note_off_c, 1, 64, 53
3, 389038, Note_off_c, 1, 55, 53
3, 389038, Note_off_c, 1, 60, 48
3, 389760, Note_on_c, 1, 59, 48
3, 389760, Note_on_c, 1, 65, 62
3, 389760, Note_on_c, 1, 55, 32
3, 389998, Note_off_c, 1, 59, 48
3, 389998, Note_off_c, 1, 65, 62
3, 389998, Note_off_c, 1, 55, 32
3, 390720, Note_on_c, 1, 64, 41
3, 390737, Control_c, 1, 64, 127
3, 390958, Note_off_c, 1, 64, 41
3, 390960, Note_on_c, 1, 60, 27
3, 391198, Note_off_c, 1, 60, 27
3, 391200, Note_on_c, 1, 64, 46
3, 391438, Note_off_c, 1, 64, 46
3, 391440, Note_on_c, 1, 60, 30
3, 391663, Control_c, 1, 64, 0
3, 391678, Note_off_c, 1, 60, 30
3, 391680, Note_on_c, 1, 65, 50
3, 391697, Control_c, 1, 64, 127
3, 391918, Note_off_c, 1, 65, 50
3, 391920, Note_on_c, 1, 60, 19
3, 392158, Note_off_c, 1, 60, 19
3, 392160, Note_on_c, 1, 67, 50
3, 392398, Note_off_c, 1, 67, 50
3, 392400, Note_on_c, 1, 60, 14
3, 392623, Control_c, 1, 64, 0
3, 392638, Note_off_c, 1, 60, 14
3, 392640, Note_on_c, 1, 69, 50
3, 392657, Control_c, 1, 64, 127
3, 392878, Note_off_c, 1, 69, 50
3, 392880, Note_on_c, 1, 60, 26
3, 393118, Note_off_c, 1, 60, 26
3, 393120, Note_on_c, 1, 70, 51
3, 393358, Note_off_c, 1, 70, 51
3, 393360, Note_on_c, 1, 60, 21
3, 393583, Control_c, 1, 64, 0
3, 393598, Note_off_c, 1, 60, 21
3, 393600, Note_on_c, 1, 69, 40
3, 393838, Note_off_c, 1, 69, 40
3, 393840, Note_on_c, 1, 60, 17
3, 394078, Note_off_c, 1, 60, 17
3, 394080, Note_on_c, 1, 67, 41
3, 394318, Note_off_c, 1, 67, 41
3, 394320, Note_on_c, 1, 60, 17
3, 394558, Note_off_c, 1, 60, 17
3, 394560, Note_on_c, 1, 65, 35
3, 394798, Note_off_c, 1, 65, 35
3, 394800, Note_on_c, 1, 60, 14
3, 395038, Note_off_c, 1, 60, 14
3, 395040, Note_on_c, 1, 64, 41
3, 395278, Note_off_c, 1, 64, 41
3, 395280, Note_on_c, 1, 60, 26
3, 395518, Note_off_c, 1, 60, 26
3, 395520, Note_on_c, 1, 65, 46
3, 395537, Control_c, 1, 64, 127
3, 395758, Note_off_c, 1, 65, 46
3, 395760, Note_on_c, 1, 60, 38
3, 395998, Note_off_c, 1, 60, 38
3, 396000, Note_on_c, 1, 62, 28
3, 396238, Note_off_c, 1, 62, 28
3, 396240, Note_on_c, 1, 60, 36
3, 396463, Control_c, 1, 64, 0
3, 396478, Note_off_c, 1, 60, 36
3, 396480, Note_on_c, 1, 64, 47
3, 396718, Note_off_c, 1, 64, 47
3, 396720, Note_on_c, 1, 60, 24
3, 396958, Note_off_c, 1, 60, 24
3, 396960, Note_on_c, 1, 65, 50
3, 397198, Note_off_c, 1, 65, 50
3, 397200, Note_on_c, 1, 60, 27
3, 397438, Note_off_c, 1, 60, 27
3, 397440, Note_on_c, 1, 64, 46
3, 397678, Note_off_c, 1, 64, 46
3, 397680, Note_on_c, 1, 60, 24
3, 397918, Note_off_c, 1, 60, 24
3, 397920, Note_on_c, 1, 65, 43
3, 398158, Note_off_c, 1, 65, 43
3, 398160, Note_on_c, 1, 60, 18
3, 398398, Note_off_c, 1, 60, 18
3, 398400, Note_on_c, 1, 64, 52
3, 398417, Control_c, 1, 64, 127
3, 398638, Note_off_c, 1, 64, 52
3, 398640, Note_on_c, 1, 60, 26
3, 398878, Note_off_c, 1, 60, 26
3, 398880, Note_on_c, 1, 65, 50
3, 399118, Note_off_c, 1, 65, 50
3, 399120, Note_on_c, 1, 60, 26
3, 399343, Control_c, 1, 64, 0
3, 399358, Note_off_c, 1, 60, 26
3, 399360, Note_on_c, 1, 64, 42
3, 399377, Control_c, 1, 64, 127
3, 399598, Note_off_c, 1, 64, 42
3, 399600, Note_on_c, 1, 60, 27
3, 399838, Note_off_c, 1, 60, 27
3, 399840, Note_on_c, 1, 65, 51
3, 400078, Note_off_c, 1, 65, 51
3, 400080, Note_on_c, 1, 60, 22
3, 400303, Control_c, 1, 64, 0
3, 400318, Note_off_c, 1, 60, 22
3, 400320, Note_on_c, 1, 48, 50
3, 400320, Note_on_c, 1, 60, 48
3, 401758, Note_off_c, 1, 48, 50
3, 401758, Note_off_c, 1, 60, 48
3, 402240, End_track
0, 0, End_of_file
