0, 0, Header, 1, 3, 480
1, 0, Start_track
1, 0, Title_t, "nameless"
1, 0, Time_signature, 3, 2, 24, 8
1, 0, Tempo, 1176471
1, 64800, Time_signature, 4, 2, 24, 8
1, 66720, Time_signature, 3, 2, 24, 8
1, 73209, Tempo, 1224490
1, 73724, Tempo, 1538462
1, 73864, Tempo, 1621622
1, 73941, Tempo, 1176471
1, 101314, Tempo, 1176471
1, 101497, Tempo, 1224490
1, 101984, Tempo, 1333333
1, 102470, Tempo, 1463415
1, 102651, Tempo, 1500000
1, 103719, Tempo, 1176471
1, 136506, Tempo, 1463415
1, 136787, Tempo, 1621622
1, 137068, Tempo, 1818182
1, 137173, Tempo, 1875000
1, 138720, End_track
2, 0, Start_track
2, 0, MIDI_port, 0
2, 0, Channel_prefix, 0
2, 0, Title_t, "Piano R.H."
2, 0, Key_signature, -1, "major"
2, 0, Control_c, 0, 0, 0
2, 5, Program_c, 0, 0
2, 10, Control_c, 0, 7, 127
2, 15, Control_c, 0, 10, 44
2, 20, Control_c, 0, 91, 76
2, 25, Control_c, 0, 93, 0
2, 30, Control_c, 0, 94, 0
2, 35, Control_c, 0, 5, 0
2, 40, Control_c, 0, 11, 127
2, 960, Control_c, 0, 101, 0
2, 965, Control_c, 0, 100, 0
2, 970, Control_c, 0, 6, 2
2, 975, Control_c, 0, 101, 127
2, 980, Control_c, 0, 100, 127
2, 3609, Note_on_c, 0, 72, 47
2, 3825, Note_off_c, 0, 72, 47
2, 3864, Note_on_c, 0, 72, 63
2, 4047, Note_off_c, 0, 72, 63
2, 4102, Note_on_c, 0, 72, 62
2, 4298, Note_off_c, 0, 72, 62
2, 4337, Note_on_c, 0, 72, 68
2, 4472, Note_on_c, 0, 74, 53
2, 4473, Note_off_c, 0, 72, 68
2, 4515, Note_on_c, 0, 72, 64
2, 4537, Note_off_c, 0, 74, 53
2, 4547, Note_on_c, 0, 71, 58
2, 4548, Note_off_c, 0, 72, 64
2, 4584, Note_on_c, 0, 72, 64
2, 4609, Note_off_c, 0, 71, 58
2, 4682, Note_off_c, 0, 72, 64
2, 4695, Note_on_c, 0, 77, 64
2, 4824, Note_on_c, 0, 72, 64
2, 4832, Note_off_c, 0, 77, 64
2, 4966, Note_off_c, 0, 72, 64
2, 5070, Note_on_c, 0, 69, 56
2, 5310, Note_on_c, 0, 72, 53
2, 5333, Note_off_c, 0, 69, 56
2, 5557, Note_on_c, 0, 64, 52
2, 5601, Note_off_c, 0, 72, 53
2, 5811, Note_on_c, 0, 67, 52
2, 5813, Note_off_c, 0, 64, 52
2, 6276, Note_off_c, 0, 67, 52
2, 6276, Note_on_c, 0, 65, 29
2, 6465, Note_off_c, 0, 65, 29
2, 6526, Note_on_c, 0, 60, 52
2, 6529, Note_on_c, 0, 65, 71
2, 6747, Note_on_c, 0, 67, 83
2, 6748, Note_off_c, 0, 65, 71
2, 6781, Note_off_c, 0, 60, 52
2, 6991, Note_on_c, 0, 69, 77
2, 6992, Note_on_c, 0, 60, 60
2, 6993, Note_on_c, 0, 65, 55
2, 7002, Note_off_c, 0, 67, 83
2, 7167, Note_off_c, 0, 65, 55
2, 7182, Note_off_c, 0, 69, 77
2, 7226, Note_off_c, 0, 60, 60
2, 7237, Note_on_c, 0, 65, 43
2, 7237, Note_on_c, 0, 70, 89
2, 7469, Channel_aftertouch_c, 0, 1
2, 7474, Channel_aftertouch_c, 0, 2
2, 7495, Channel_aftertouch_c, 0, 4
2, 7537, Channel_aftertouch_c, 0, 2
2, 7545, Channel_aftertouch_c, 0, 1
2, 7550, Channel_aftertouch_c, 0, 0
2, 7614, Note_on_c, 0, 72, 62
2, 7650, Note_off_c, 0, 70, 89
2, 7662, Note_on_c, 0, 74, 73
2, 7674, Note_off_c, 0, 72, 62
2, 7714, Note_on_c, 0, 72, 77
2, 7717, Note_off_c, 0, 74, 73
2, 7733, Channel_aftertouch_c, 0, 2
2, 7738, Channel_aftertouch_c, 0, 4
2, 7754, Channel_aftertouch_c, 0, 2
2, 7759, Channel_aftertouch_c, 0, 1
2, 7764, Channel_aftertouch_c, 0, 0
2, 7910, Note_off_c, 0, 65, 43
2, 7959, Note_off_c, 0, 72, 77
2, 7960, Note_on_c, 0, 65, 61
2, 8186, Note_on_c, 0, 64, 62
2, 8193, Note_on_c, 0, 59, 26
2, 8200, Note_off_c, 0, 65, 61
2, 8406, Note_on_c, 0, 65, 55
2, 8417, Note_off_c, 0, 64, 62
2, 8618, Note_off_c, 0, 65, 55
2, 8644, Note_on_c, 0, 69, 34
2, 8644, Note_on_c, 0, 65, 45
2, 8648, Note_off_c, 0, 59, 26
2, 8651, Note_on_c, 0, 60, 25
2, 9061, Note_off_c, 0, 65, 45
2, 9132, Note_on_c, 0, 67, 52
2, 9142, Note_on_c, 0, 64, 15
2, 9189, Note_off_c, 0, 69, 34
2, 9341, Note_off_c, 0, 64, 15
2, 9346, Note_off_c, 0, 67, 52
2, 9373, Note_off_c, 0, 60, 25
2, 9385, Channel_aftertouch_c, 0, 9
2, 9388, Channel_aftertouch_c, 0, 25
2, 9390, Channel_aftertouch_c, 0, 42
2, 9393, Channel_aftertouch_c, 0, 54
2, 9395, Note_on_c, 0, 67, 64
2, 9581, Note_off_c, 0, 67, 64
2, 9623, Channel_aftertouch_c, 0, 1
2, 9625, Channel_aftertouch_c, 0, 7
2, 9628, Channel_aftertouch_c, 0, 11
2, 9629, Note_on_c, 0, 67, 79
2, 9641, Channel_aftertouch_c, 0, 5
2, 9643, Channel_aftertouch_c, 0, 27
2, 9646, Channel_aftertouch_c, 0, 50
2, 9648, Channel_aftertouch_c, 0, 74
2, 9651, Channel_aftertouch_c, 0, 92
2, 9654, Channel_aftertouch_c, 0, 102
2, 9659, Channel_aftertouch_c, 0, 96
2, 9661, Channel_aftertouch_c, 0, 86
2, 9664, Channel_aftertouch_c, 0, 73
2, 9666, Channel_aftertouch_c, 0, 57
2, 9669, Channel_aftertouch_c, 0, 41
2, 9671, Channel_aftertouch_c, 0, 28
2, 9674, Channel_aftertouch_c, 0, 16
2, 9677, Channel_aftertouch_c, 0, 7
2, 9679, Channel_aftertouch_c, 0, 2
2, 9682, Channel_aftertouch_c, 0, 0
2, 9701, Channel_aftertouch_c, 0, 3
2, 9706, Channel_aftertouch_c, 0, 5
2, 9711, Channel_aftertouch_c, 0, 7
2, 9719, Channel_aftertouch_c, 0, 9
2, 9740, Channel_aftertouch_c, 0, 7
2, 9745, Channel_aftertouch_c, 0, 6
2, 9761, Channel_aftertouch_c, 0, 5
2, 9766, Channel_aftertouch_c, 0, 3
2, 9768, Channel_aftertouch_c, 0, 1
2, 9771, Channel_aftertouch_c, 0, 0
2, 9825, Note_off_c, 0, 67, 79
2, 9867, Note_on_c, 0, 67, 84
2, 9870, Channel_aftertouch_c, 0, 1
2, 9873, Channel_aftertouch_c, 0, 0
2, 9878, Channel_aftertouch_c, 0, 13
2, 9880, Channel_aftertouch_c, 0, 41
2, 9883, Channel_aftertouch_c, 0, 72
2, 9886, Channel_aftertouch_c, 0, 97
2, 9888, Channel_aftertouch_c, 0, 117
2, 9891, Channel_aftertouch_c, 0, 127
2, 9899, Channel_aftertouch_c, 0, 121
2, 9901, Channel_aftertouch_c, 0, 110
2, 9904, Channel_aftertouch_c, 0, 95
2, 9907, Channel_aftertouch_c, 0, 84
2, 9909, Channel_aftertouch_c, 0, 75
2, 9912, Channel_aftertouch_c, 0, 67
2, 9914, Channel_aftertouch_c, 0, 60
2, 9917, Channel_aftertouch_c, 0, 56
2, 9920, Channel_aftertouch_c, 0, 55
2, 9941, Channel_aftertouch_c, 0, 52
2, 9943, Channel_aftertouch_c, 0, 50
2, 9946, Channel_aftertouch_c, 0, 47
2, 9948, Channel_aftertouch_c, 0, 41
2, 9951, Channel_aftertouch_c, 0, 32
2, 9954, Channel_aftertouch_c, 0, 24
2, 9956, Channel_aftertouch_c, 0, 16
2, 9959, Channel_aftertouch_c, 0, 7
2, 9961, Channel_aftertouch_c, 0, 2
2, 9964, Channel_aftertouch_c, 0, 0
2, 10012, Note_off_c, 0, 67, 84
2, 10048, Note_on_c, 0, 67, 68
2, 10102, Note_on_c, 0, 79, 79
2, 10495, Note_on_c, 0, 74, 58
2, 10525, Note_off_c, 0, 67, 68
2, 10537, Note_off_c, 0, 79, 79
2, 10544, Note_on_c, 0, 71, 64
2, 10563, Note_off_c, 0, 74, 58
2, 10590, Note_on_c, 0, 67, 55
2, 10605, Note_off_c, 0, 71, 64
2, 10774, Note_off_c, 0, 67, 55
2, 10802, Note_on_c, 0, 67, 56
2, 10995, Note_off_c, 0, 67, 56
2, 11028, Note_on_c, 0, 67, 61
2, 11242, Note_off_c, 0, 67, 61
2, 11279, Note_on_c, 0, 67, 64
2, 11394, Channel_aftertouch_c, 0, 2
2, 11399, Channel_aftertouch_c, 0, 3
2, 11407, Channel_aftertouch_c, 0, 1
2, 11412, Channel_aftertouch_c, 0, 0
2, 11443, Note_off_c, 0, 67, 64
2, 11473, Note_on_c, 0, 67, 71
2, 11498, Channel_aftertouch_c, 0, 1
2, 11503, Channel_aftertouch_c, 0, 0
2, 11526, Note_on_c, 0, 79, 79
2, 11529, Note_off_c, 0, 67, 71
2, 12133, Note_on_c, 0, 81, 60
2, 12153, Note_off_c, 0, 79, 79
2, 12177, Note_on_c, 0, 83, 38
2, 12196, Note_off_c, 0, 81, 60
2, 12222, Note_on_c, 0, 84, 55
2, 12240, Note_off_c, 0, 83, 38
2, 12278, Note_off_c, 0, 84, 55
2, 12345, Note_on_c, 0, 83, 45
2, 12391, Note_off_c, 0, 83, 45
2, 12477, Note_on_c, 0, 81, 55
2, 12522, Note_off_c, 0, 81, 55
2, 12593, Note_on_c, 0, 79, 46
2, 12649, Note_off_c, 0, 79, 46
2, 12714, Note_on_c, 0, 77, 43
2, 12771, Note_off_c, 0, 77, 43
2, 12837, Note_on_c, 0, 76, 43
2, 12886, Note_off_c, 0, 76, 43
2, 12952, Note_on_c, 0, 73, 67
2, 13078, Note_off_c, 0, 73, 67
2, 13081, Note_on_c, 0, 74, 63
2, 13199, Note_on_c, 0, 77, 68
2, 13214, Note_off_c, 0, 74, 63
2, 13291, Note_off_c, 0, 77, 68
2, 13314, Note_on_c, 0, 81, 41
2, 13448, Note_on_c, 0, 72, 63
2, 13456, Note_off_c, 0, 81, 41
2, 14150, Note_on_c, 0, 76, 35
2, 14156, Note_on_c, 0, 71, 42
2, 14195, Note_off_c, 0, 72, 63
2, 14276, Note_on_c, 0, 74, 55
2, 14301, Note_off_c, 0, 76, 35
2, 14408, Note_on_c, 0, 72, 39
2, 14412, Note_off_c, 0, 71, 42
2, 14425, Note_off_c, 0, 74, 55
2, 15063, Note_off_c, 0, 72, 39
2, 15129, Note_on_c, 0, 72, 47
2, 15345, Note_off_c, 0, 72, 47
2, 15384, Channel_aftertouch_c, 0, 4
2, 15384, Note_on_c, 0, 72, 63
2, 15387, Channel_aftertouch_c, 0, 16
2, 15392, Channel_aftertouch_c, 0, 42
2, 15394, Channel_aftertouch_c, 0, 49
2, 15397, Channel_aftertouch_c, 0, 47
2, 15400, Channel_aftertouch_c, 0, 40
2, 15402, Channel_aftertouch_c, 0, 29
2, 15405, Channel_aftertouch_c, 0, 15
2, 15407, Channel_aftertouch_c, 0, 3
2, 15410, Channel_aftertouch_c, 0, 1
2, 15436, Channel_aftertouch_c, 0, 0
2, 15567, Note_off_c, 0, 72, 63
2, 15600, Channel_aftertouch_c, 0, 3
2, 15603, Channel_aftertouch_c, 0, 0
2, 15622, Note_on_c, 0, 72, 62
2, 15624, Channel_aftertouch_c, 0, 3
2, 15626, Channel_aftertouch_c, 0, 16
2, 15629, Channel_aftertouch_c, 0, 32
2, 15631, Channel_aftertouch_c, 0, 45
2, 15634, Channel_aftertouch_c, 0, 50
2, 15639, Channel_aftertouch_c, 0, 48
2, 15642, Channel_aftertouch_c, 0, 39
2, 15645, Channel_aftertouch_c, 0, 27
2, 15647, Channel_aftertouch_c, 0, 15
2, 15650, Channel_aftertouch_c, 0, 6
2, 15653, Channel_aftertouch_c, 0, 2
2, 15655, Channel_aftertouch_c, 0, 0
2, 15818, Note_off_c, 0, 72, 62
2, 15854, Channel_aftertouch_c, 0, 4
2, 15857, Channel_aftertouch_c, 0, 1
2, 15857, Note_on_c, 0, 72, 68
2, 15865, Channel_aftertouch_c, 0, 0
2, 15992, Note_on_c, 0, 74, 53
2, 15993, Note_off_c, 0, 72, 68
2, 16035, Note_on_c, 0, 72, 64
2, 16057, Note_off_c, 0, 74, 53
2, 16067, Note_on_c, 0, 71, 58
2, 16068, Note_off_c, 0, 72, 64
2, 16104, Note_on_c, 0, 72, 64
2, 16129, Note_off_c, 0, 71, 58
2, 16202, Note_off_c, 0, 72, 64
2, 16215, Note_on_c, 0, 77, 64
2, 16344, Note_on_c, 0, 72, 64
2, 16352, Note_off_c, 0, 77, 64
2, 16486, Note_off_c, 0, 72, 64
2, 16590, Note_on_c, 0, 69, 56
2, 16830, Note_on_c, 0, 72, 53
2, 16853, Note_off_c, 0, 69, 56
2, 17077, Note_on_c, 0, 64, 52
2, 17121, Note_off_c, 0, 72, 53
2, 17331, Note_on_c, 0, 67, 52
2, 17333, Note_off_c, 0, 64, 52
2, 17796, Note_off_c, 0, 67, 52
2, 17796, Note_on_c, 0, 65, 29
2, 17985, Note_off_c, 0, 65, 29
2, 18046, Note_on_c, 0, 60, 52
2, 18049, Note_on_c, 0, 65, 71
2, 18267, Note_on_c, 0, 67, 73
2, 18268, Note_off_c, 0, 65, 71
2, 18301, Note_off_c, 0, 60, 42
2, 18392, Channel_aftertouch_c, 0, 1
2, 18397, Channel_aftertouch_c, 0, 2
2, 18402, Channel_aftertouch_c, 0, 3
2, 18408, Channel_aftertouch_c, 0, 5
2, 18410, Channel_aftertouch_c, 0, 6
2, 18415, Channel_aftertouch_c, 0, 9
2, 18426, Channel_aftertouch_c, 0, 7
2, 18428, Channel_aftertouch_c, 0, 5
2, 18431, Channel_aftertouch_c, 0, 2
2, 18434, Channel_aftertouch_c, 0, 0
2, 18511, Note_on_c, 0, 69, 77
2, 18512, Note_on_c, 0, 60, 60
2, 18513, Note_on_c, 0, 65, 55
2, 18522, Note_off_c, 0, 67, 73
2, 18687, Note_off_c, 0, 65, 55
2, 18702, Note_off_c, 0, 69, 77
2, 18746, Note_off_c, 0, 60, 60
2, 18757, Note_on_c, 0, 70, 89
2, 18757, Note_on_c, 0, 65, 43
2, 19134, Note_on_c, 0, 72, 62
2, 19170, Note_off_c, 0, 70, 89
2, 19182, Note_on_c, 0, 74, 73
2, 19194, Note_off_c, 0, 72, 62
2, 19234, Note_on_c, 0, 72, 77
2, 19237, Note_off_c, 0, 74, 73
2, 19430, Note_off_c, 0, 65, 43
2, 19479, Note_off_c, 0, 72, 77
2, 19480, Note_on_c, 0, 65, 61
2, 19706, Note_on_c, 0, 64, 62
2, 19713, Note_on_c, 0, 59, 26
2, 19720, Note_off_c, 0, 65, 61
2, 19926, Note_on_c, 0, 65, 55
2, 19937, Note_off_c, 0, 64, 62
2, 20121, Channel_aftertouch_c, 0, 1
2, 20129, Channel_aftertouch_c, 0, 2
2, 20138, Note_off_c, 0, 65, 55
2, 20139, Channel_aftertouch_c, 0, 1
2, 20145, Channel_aftertouch_c, 0, 0
2, 20164, Note_on_c, 0, 65, 45
2, 20164, Note_on_c, 0, 69, 44
2, 20168, Note_off_c, 0, 59, 26
2, 20171, Note_on_c, 0, 60, 25
2, 20581, Note_off_c, 0, 65, 45
2, 20652, Note_on_c, 0, 67, 52
2, 20662, Note_on_c, 0, 64, 15
2, 20709, Note_off_c, 0, 69, 34
2, 20861, Note_off_c, 0, 64, 15
2, 20866, Note_off_c, 0, 67, 52
2, 20893, Note_off_c, 0, 60, 25
2, 20915, Note_on_c, 0, 67, 64
2, 21044, Channel_aftertouch_c, 0, 1
2, 21046, Channel_aftertouch_c, 0, 0
2, 21101, Note_off_c, 0, 67, 64
2, 21149, Note_on_c, 0, 67, 79
2, 21271, Channel_aftertouch_c, 0, 1
2, 21274, Channel_aftertouch_c, 0, 15
2, 21276, Channel_aftertouch_c, 0, 31
2, 21279, Channel_aftertouch_c, 0, 43
2, 21281, Channel_aftertouch_c, 0, 52
2, 21284, Channel_aftertouch_c, 0, 56
2, 21286, Channel_aftertouch_c, 0, 54
2, 21289, Channel_aftertouch_c, 0, 46
2, 21291, Channel_aftertouch_c, 0, 37
2, 21294, Channel_aftertouch_c, 0, 27
2, 21297, Channel_aftertouch_c, 0, 18
2, 21300, Channel_aftertouch_c, 0, 10
2, 21302, Channel_aftertouch_c, 0, 4
2, 21305, Channel_aftertouch_c, 0, 2
2, 21308, Channel_aftertouch_c, 0, 1
2, 21315, Channel_aftertouch_c, 0, 2
2, 21318, Channel_aftertouch_c, 0, 3
2, 21321, Channel_aftertouch_c, 0, 5
2, 21323, Channel_aftertouch_c, 0, 6
2, 21326, Channel_aftertouch_c, 0, 9
2, 21328, Channel_aftertouch_c, 0, 10
2, 21331, Channel_aftertouch_c, 0, 11
2, 21336, Channel_aftertouch_c, 0, 12
2, 21341, Channel_aftertouch_c, 0, 13
2, 21344, Channel_aftertouch_c, 0, 15
2, 21345, Note_off_c, 0, 67, 79
2, 21347, Channel_aftertouch_c, 0, 16
2, 21349, Channel_aftertouch_c, 0, 18
2, 21354, Channel_aftertouch_c, 0, 19
2, 21360, Channel_aftertouch_c, 0, 21
2, 21365, Channel_aftertouch_c, 0, 23
2, 21370, Channel_aftertouch_c, 0, 24
2, 21375, Channel_aftertouch_c, 0, 27
2, 21378, Channel_aftertouch_c, 0, 28
2, 21381, Channel_aftertouch_c, 0, 29
2, 21383, Channel_aftertouch_c, 0, 31
2, 21386, Channel_aftertouch_c, 0, 32
2, 21387, Note_on_c, 0, 67, 84
2, 21388, Channel_aftertouch_c, 0, 34
2, 21391, Channel_aftertouch_c, 0, 36
2, 21394, Channel_aftertouch_c, 0, 38
2, 21399, Channel_aftertouch_c, 0, 39
2, 21407, Channel_aftertouch_c, 0, 37
2, 21412, Channel_aftertouch_c, 0, 33
2, 21415, Channel_aftertouch_c, 0, 32
2, 21420, Channel_aftertouch_c, 0, 30
2, 21422, Channel_aftertouch_c, 0, 28
2, 21425, Channel_aftertouch_c, 0, 25
2, 21428, Channel_aftertouch_c, 0, 22
2, 21430, Channel_aftertouch_c, 0, 18
2, 21433, Channel_aftertouch_c, 0, 10
2, 21435, Channel_aftertouch_c, 0, 2
2, 21438, Channel_aftertouch_c, 0, 0
2, 21506, Channel_aftertouch_c, 0, 12
2, 21509, Channel_aftertouch_c, 0, 37
2, 21511, Channel_aftertouch_c, 0, 63
2, 21514, Channel_aftertouch_c, 0, 84
2, 21517, Channel_aftertouch_c, 0, 99
2, 21520, Channel_aftertouch_c, 0, 109
2, 21522, Channel_aftertouch_c, 0, 114
2, 21528, Channel_aftertouch_c, 0, 111
2, 21530, Channel_aftertouch_c, 0, 104
2, 21532, Note_off_c, 0, 67, 84
2, 21533, Channel_aftertouch_c, 0, 97
2, 21535, Channel_aftertouch_c, 0, 90
2, 21538, Channel_aftertouch_c, 0, 85
2, 21540, Channel_aftertouch_c, 0, 82
2, 21543, Channel_aftertouch_c, 0, 81
2, 21548, Channel_aftertouch_c, 0, 82
2, 21551, Channel_aftertouch_c, 0, 83
2, 21553, Channel_aftertouch_c, 0, 85
2, 21556, Channel_aftertouch_c, 0, 86
2, 21561, Channel_aftertouch_c, 0, 85
2, 21566, Channel_aftertouch_c, 0, 84
2, 21568, Note_on_c, 0, 67, 68
2, 21569, Channel_aftertouch_c, 0, 82
2, 21572, Channel_aftertouch_c, 0, 78
2, 21574, Channel_aftertouch_c, 0, 74
2, 21577, Channel_aftertouch_c, 0, 66
2, 21580, Channel_aftertouch_c, 0, 58
2, 21582, Channel_aftertouch_c, 0, 49
2, 21585, Channel_aftertouch_c, 0, 37
2, 21588, Channel_aftertouch_c, 0, 24
2, 21590, Channel_aftertouch_c, 0, 10
2, 21593, Channel_aftertouch_c, 0, 2
2, 21595, Channel_aftertouch_c, 0, 0
2, 21622, Note_on_c, 0, 79, 79
2, 21972, Channel_aftertouch_c, 0, 2
2, 21977, Channel_aftertouch_c, 0, 3
2, 21985, Channel_aftertouch_c, 0, 4
2, 21995, Channel_aftertouch_c, 0, 5
2, 22003, Channel_aftertouch_c, 0, 7
2, 22006, Channel_aftertouch_c, 0, 9
2, 22008, Channel_aftertouch_c, 0, 11
2, 22011, Channel_aftertouch_c, 0, 12
2, 22015, Note_on_c, 0, 74, 58
2, 22017, Channel_aftertouch_c, 0, 13
2, 22021, Channel_aftertouch_c, 0, 15
2, 22029, Channel_aftertouch_c, 0, 16
2, 22040, Channel_aftertouch_c, 0, 18
2, 22045, Note_off_c, 0, 67, 68
2, 22057, Note_off_c, 0, 79, 79
2, 22058, Channel_aftertouch_c, 0, 16
2, 22064, Note_on_c, 0, 71, 64
2, 22066, Channel_aftertouch_c, 0, 15
2, 22071, Channel_aftertouch_c, 0, 13
2, 22077, Channel_aftertouch_c, 0, 12
2, 22082, Channel_aftertouch_c, 0, 9
2, 22083, Note_off_c, 0, 74, 58
2, 22084, Channel_aftertouch_c, 0, 6
2, 22087, Channel_aftertouch_c, 0, 2
2, 22089, Channel_aftertouch_c, 0, 0
2, 22110, Note_on_c, 0, 67, 55
2, 22125, Note_off_c, 0, 71, 64
2, 22294, Note_off_c, 0, 67, 55
2, 22322, Note_on_c, 0, 67, 56
2, 22515, Note_off_c, 0, 67, 56
2, 22548, Note_on_c, 0, 67, 61
2, 22694, Channel_aftertouch_c, 0, 3
2, 22697, Channel_aftertouch_c, 0, 15
2, 22699, Channel_aftertouch_c, 0, 29
2, 22701, Channel_aftertouch_c, 0, 40
2, 22704, Channel_aftertouch_c, 0, 43
2, 22707, Channel_aftertouch_c, 0, 40
2, 22709, Channel_aftertouch_c, 0, 34
2, 22712, Channel_aftertouch_c, 0, 25
2, 22715, Channel_aftertouch_c, 0, 13
2, 22717, Channel_aftertouch_c, 0, 3
2, 22720, Channel_aftertouch_c, 0, 0
2, 22751, Channel_aftertouch_c, 0, 4
2, 22754, Channel_aftertouch_c, 0, 7
2, 22757, Channel_aftertouch_c, 0, 11
2, 22759, Channel_aftertouch_c, 0, 13
2, 22761, Channel_aftertouch_c, 0, 15
2, 22762, Note_off_c, 0, 67, 61
2, 22764, Channel_aftertouch_c, 0, 18
2, 22767, Channel_aftertouch_c, 0, 19
2, 22770, Channel_aftertouch_c, 0, 21
2, 22772, Channel_aftertouch_c, 0, 22
2, 22777, Channel_aftertouch_c, 0, 23
2, 22783, Channel_aftertouch_c, 0, 25
2, 22785, Channel_aftertouch_c, 0, 28
2, 22788, Channel_aftertouch_c, 0, 29
2, 22791, Channel_aftertouch_c, 0, 31
2, 22793, Channel_aftertouch_c, 0, 33
2, 22796, Channel_aftertouch_c, 0, 34
2, 22798, Channel_aftertouch_c, 0, 37
2, 22799, Note_on_c, 0, 67, 64
2, 22801, Channel_aftertouch_c, 0, 40
2, 22804, Channel_aftertouch_c, 0, 42
2, 22806, Channel_aftertouch_c, 0, 45
2, 22809, Channel_aftertouch_c, 0, 48
2, 22811, Channel_aftertouch_c, 0, 50
2, 22814, Channel_aftertouch_c, 0, 51
2, 22817, Channel_aftertouch_c, 0, 54
2, 22819, Channel_aftertouch_c, 0, 55
2, 22825, Channel_aftertouch_c, 0, 56
2, 22829, Channel_aftertouch_c, 0, 57
2, 22837, Channel_aftertouch_c, 0, 58
2, 22853, Channel_aftertouch_c, 0, 57
2, 22858, Channel_aftertouch_c, 0, 55
2, 22861, Channel_aftertouch_c, 0, 52
2, 22863, Channel_aftertouch_c, 0, 48
2, 22866, Channel_aftertouch_c, 0, 43
2, 22868, Channel_aftertouch_c, 0, 37
2, 22871, Channel_aftertouch_c, 0, 29
2, 22874, Channel_aftertouch_c, 0, 21
2, 22876, Channel_aftertouch_c, 0, 6
2, 22879, Channel_aftertouch_c, 0, 1
2, 22881, Channel_aftertouch_c, 0, 0
2, 22942, Channel_aftertouch_c, 0, 7
2, 22944, Channel_aftertouch_c, 0, 27
2, 22947, Channel_aftertouch_c, 0, 50
2, 22950, Channel_aftertouch_c, 0, 70
2, 22952, Channel_aftertouch_c, 0, 87
2, 22954, Channel_aftertouch_c, 0, 97
2, 22957, Channel_aftertouch_c, 0, 101
2, 22960, Channel_aftertouch_c, 0, 100
2, 22962, Channel_aftertouch_c, 0, 95
2, 22963, Note_off_c, 0, 67, 64
2, 22965, Channel_aftertouch_c, 0, 88
2, 22968, Channel_aftertouch_c, 0, 79
2, 22970, Channel_aftertouch_c, 0, 70
2, 22973, Channel_aftertouch_c, 0, 64
2, 22975, Channel_aftertouch_c, 0, 59
2, 22978, Channel_aftertouch_c, 0, 57
2, 22983, Channel_aftertouch_c, 0, 58
2, 22986, Channel_aftertouch_c, 0, 60
2, 22988, Channel_aftertouch_c, 0, 64
2, 22991, Channel_aftertouch_c, 0, 67
2, 22993, Note_on_c, 0, 67, 71
2, 22994, Channel_aftertouch_c, 0, 69
2, 22996, Channel_aftertouch_c, 0, 73
2, 22999, Channel_aftertouch_c, 0, 75
2, 23002, Channel_aftertouch_c, 0, 76
2, 23004, Channel_aftertouch_c, 0, 78
2, 23007, Channel_aftertouch_c, 0, 81
2, 23010, Channel_aftertouch_c, 0, 83
2, 23012, Channel_aftertouch_c, 0, 84
2, 23017, Channel_aftertouch_c, 0, 86
2, 23025, Channel_aftertouch_c, 0, 83
2, 23028, Channel_aftertouch_c, 0, 78
2, 23031, Channel_aftertouch_c, 0, 73
2, 23033, Channel_aftertouch_c, 0, 64
2, 23036, Channel_aftertouch_c, 0, 54
2, 23038, Channel_aftertouch_c, 0, 40
2, 23041, Channel_aftertouch_c, 0, 23
2, 23043, Channel_aftertouch_c, 0, 6
2, 23046, Channel_aftertouch_c, 0, 1
2, 23046, Note_on_c, 0, 79, 79
2, 23048, Channel_aftertouch_c, 0, 0
2, 23049, Note_off_c, 0, 67, 71
2, 23106, Channel_aftertouch_c, 0, 15
2, 23108, Channel_aftertouch_c, 0, 38
2, 23111, Channel_aftertouch_c, 0, 63
2, 23114, Channel_aftertouch_c, 0, 84
2, 23117, Channel_aftertouch_c, 0, 95
2, 23119, Channel_aftertouch_c, 0, 96
2, 23122, Channel_aftertouch_c, 0, 92
2, 23125, Channel_aftertouch_c, 0, 79
2, 23127, Channel_aftertouch_c, 0, 61
2, 23130, Channel_aftertouch_c, 0, 36
2, 23132, Channel_aftertouch_c, 0, 9
2, 23135, Channel_aftertouch_c, 0, 2
2, 23137, Channel_aftertouch_c, 0, 0
2, 23653, Note_on_c, 0, 81, 68
2, 23673, Note_off_c, 0, 79, 79
2, 23697, Note_on_c, 0, 83, 46
2, 23716, Note_off_c, 0, 81, 68
2, 23742, Note_on_c, 0, 84, 63
2, 23760, Note_off_c, 0, 83, 46
2, 23798, Note_off_c, 0, 84, 63
2, 23865, Note_on_c, 0, 83, 53
2, 23911, Note_off_c, 0, 83, 53
2, 23997, Note_on_c, 0, 81, 63
2, 24042, Note_off_c, 0, 81, 63
2, 24113, Note_on_c, 0, 79, 54
2, 24169, Note_off_c, 0, 79, 54
2, 24234, Note_on_c, 0, 77, 43
2, 24291, Note_off_c, 0, 77, 43
2, 24357, Note_on_c, 0, 76, 43
2, 24406, Note_off_c, 0, 76, 43
2, 24472, Note_on_c, 0, 73, 67
2, 24598, Note_off_c, 0, 73, 67
2, 24601, Note_on_c, 0, 74, 63
2, 24719, Note_on_c, 0, 77, 68
2, 24734, Note_off_c, 0, 74, 63
2, 24811, Note_off_c, 0, 77, 68
2, 24834, Note_on_c, 0, 81, 41
2, 24968, Note_on_c, 0, 72, 63
2, 24976, Note_off_c, 0, 81, 41
2, 25670, Note_on_c, 0, 76, 35
2, 25676, Note_on_c, 0, 71, 42
2, 25715, Note_off_c, 0, 72, 63
2, 25796, Note_on_c, 0, 74, 55
2, 25821, Note_off_c, 0, 76, 35
2, 25926, Note_on_c, 0, 72, 52
2, 25928, Note_on_c, 0, 72, 39
2, 25932, Note_off_c, 0, 71, 42
2, 25945, Note_off_c, 0, 74, 55
2, 26386, Note_off_c, 0, 72, 52
2, 26583, Note_off_c, 0, 72, 39
2, 26621, Note_on_c, 0, 72, 40
2, 26860, Note_off_c, 0, 72, 40
2, 26876, Note_on_c, 0, 74, 33
2, 26997, Note_on_c, 0, 72, 55
2, 27022, Note_off_c, 0, 74, 33
2, 27107, Note_off_c, 0, 72, 55
2, 27108, Note_on_c, 0, 70, 57
2, 27220, Note_on_c, 0, 69, 60
2, 27225, Note_off_c, 0, 70, 57
2, 27373, Note_on_c, 0, 67, 67
2, 27386, Note_off_c, 0, 69, 60
2, 27855, Note_on_c, 0, 66, 28
2, 27883, Note_off_c, 0, 67, 67
2, 28048, Note_off_c, 0, 66, 28
2, 28089, Note_on_c, 0, 66, 55
2, 28321, Note_off_c, 0, 66, 55
2, 28329, Note_on_c, 0, 67, 61
2, 28559, Note_on_c, 0, 69, 61
2, 28568, Note_on_c, 0, 66, 48
2, 28584, Note_off_c, 0, 67, 61
2, 28677, Channel_aftertouch_c, 0, 2
2, 28683, Channel_aftertouch_c, 0, 4
2, 28685, Channel_aftertouch_c, 0, 5
2, 28688, Channel_aftertouch_c, 0, 6
2, 28691, Channel_aftertouch_c, 0, 9
2, 28693, Channel_aftertouch_c, 0, 10
2, 28696, Channel_aftertouch_c, 0, 11
2, 28698, Channel_aftertouch_c, 0, 12
2, 28701, Channel_aftertouch_c, 0, 13
2, 28706, Channel_aftertouch_c, 0, 15
2, 28722, Channel_aftertouch_c, 0, 13
2, 28727, Channel_aftertouch_c, 0, 11
2, 28730, Channel_aftertouch_c, 0, 9
2, 28732, Channel_aftertouch_c, 0, 6
2, 28735, Channel_aftertouch_c, 0, 4
2, 28737, Channel_aftertouch_c, 0, 1
2, 28743, Channel_aftertouch_c, 0, 0
2, 28770, Note_off_c, 0, 66, 48
2, 28775, Note_off_c, 0, 69, 61
2, 28823, Note_on_c, 0, 69, 68
2, 28832, Note_on_c, 0, 66, 57
2, 29291, Note_on_c, 0, 70, 36
2, 29300, Note_on_c, 0, 67, 30
2, 29312, Note_off_c, 0, 69, 68
2, 29340, Note_off_c, 0, 66, 57
2, 29528, Note_on_c, 0, 64, 48
2, 29551, Note_off_c, 0, 67, 30
2, 29558, Note_off_c, 0, 70, 36
2, 29766, Note_on_c, 0, 65, 64
2, 29780, Note_off_c, 0, 64, 48
2, 29993, Note_off_c, 0, 65, 64
2, 30004, Note_on_c, 0, 67, 62
2, 30012, Note_on_c, 0, 64, 51
2, 30219, Note_off_c, 0, 67, 62
2, 30228, Note_off_c, 0, 64, 51
2, 30237, Note_on_c, 0, 69, 58
2, 30242, Note_on_c, 0, 65, 55
2, 30489, Note_off_c, 0, 69, 58
2, 30494, Note_on_c, 0, 70, 71
2, 30517, Channel_aftertouch_c, 0, 1
2, 30525, Channel_aftertouch_c, 0, 0
2, 30694, Note_off_c, 0, 70, 71
2, 30711, Note_on_c, 0, 72, 71
2, 30721, Channel_aftertouch_c, 0, 13
2, 30723, Channel_aftertouch_c, 0, 24
2, 30726, Channel_aftertouch_c, 0, 33
2, 30729, Channel_aftertouch_c, 0, 42
2, 30731, Channel_aftertouch_c, 0, 49
2, 30734, Channel_aftertouch_c, 0, 50
2, 30737, Channel_aftertouch_c, 0, 45
2, 30739, Channel_aftertouch_c, 0, 36
2, 30742, Channel_aftertouch_c, 0, 25
2, 30745, Channel_aftertouch_c, 0, 16
2, 30747, Channel_aftertouch_c, 0, 9
2, 30750, Channel_aftertouch_c, 0, 3
2, 30752, Channel_aftertouch_c, 0, 1
2, 30781, Channel_aftertouch_c, 0, 3
2, 30784, Channel_aftertouch_c, 0, 4
2, 30787, Channel_aftertouch_c, 0, 6
2, 30794, Channel_aftertouch_c, 0, 5
2, 30797, Channel_aftertouch_c, 0, 4
2, 30802, Channel_aftertouch_c, 0, 2
2, 30810, Channel_aftertouch_c, 0, 1
2, 30823, Channel_aftertouch_c, 0, 2
2, 30828, Channel_aftertouch_c, 0, 3
2, 30834, Channel_aftertouch_c, 0, 5
2, 30839, Channel_aftertouch_c, 0, 6
2, 30852, Channel_aftertouch_c, 0, 7
2, 30860, Channel_aftertouch_c, 0, 10
2, 30865, Channel_aftertouch_c, 0, 11
2, 30870, Channel_aftertouch_c, 0, 12
2, 30883, Channel_aftertouch_c, 0, 13
2, 30891, Channel_aftertouch_c, 0, 14
2, 30907, Channel_aftertouch_c, 0, 13
2, 30917, Channel_aftertouch_c, 0, 12
2, 30935, Channel_aftertouch_c, 0, 13
2, 30941, Channel_aftertouch_c, 0, 15
2, 30943, Channel_aftertouch_c, 0, 16
2, 30947, Note_on_c, 0, 73, 66
2, 30948, Channel_aftertouch_c, 0, 19
2, 30948, Note_off_c, 0, 72, 71
2, 30951, Channel_aftertouch_c, 0, 24
2, 30954, Channel_aftertouch_c, 0, 22
2, 30959, Channel_aftertouch_c, 0, 27
2, 30961, Channel_aftertouch_c, 0, 30
2, 30964, Channel_aftertouch_c, 0, 33
2, 30967, Channel_aftertouch_c, 0, 36
2, 30969, Channel_aftertouch_c, 0, 38
2, 30972, Channel_aftertouch_c, 0, 39
2, 30974, Channel_aftertouch_c, 0, 40
2, 30980, Channel_aftertouch_c, 0, 41
2, 30998, Channel_aftertouch_c, 0, 42
2, 31011, Channel_aftertouch_c, 0, 45
2, 31027, Channel_aftertouch_c, 0, 43
2, 31048, Channel_aftertouch_c, 0, 45
2, 31053, Channel_aftertouch_c, 0, 46
2, 31061, Channel_aftertouch_c, 0, 47
2, 31071, Channel_aftertouch_c, 0, 48
2, 31087, Channel_aftertouch_c, 0, 49
2, 31131, Channel_aftertouch_c, 0, 48
2, 31137, Channel_aftertouch_c, 0, 47
2, 31145, Channel_aftertouch_c, 0, 45
2, 31152, Channel_aftertouch_c, 0, 43
2, 31160, Channel_aftertouch_c, 0, 42
2, 31171, Channel_aftertouch_c, 0, 43
2, 31173, Note_off_c, 0, 73, 66
2, 31176, Channel_aftertouch_c, 0, 46
2, 31178, Channel_aftertouch_c, 0, 47
2, 31181, Channel_aftertouch_c, 0, 49
2, 31184, Channel_aftertouch_c, 0, 51
2, 31186, Channel_aftertouch_c, 0, 52
2, 31188, Note_on_c, 0, 76, 64
2, 31189, Channel_aftertouch_c, 0, 54
2, 31199, Channel_aftertouch_c, 0, 56
2, 31202, Channel_aftertouch_c, 0, 57
2, 31204, Channel_aftertouch_c, 0, 59
2, 31207, Channel_aftertouch_c, 0, 61
2, 31212, Channel_aftertouch_c, 0, 64
2, 31231, Channel_aftertouch_c, 0, 61
2, 31236, Channel_aftertouch_c, 0, 60
2, 31241, Channel_aftertouch_c, 0, 58
2, 31244, Channel_aftertouch_c, 0, 57
2, 31246, Channel_aftertouch_c, 0, 56
2, 31249, Channel_aftertouch_c, 0, 55
2, 31254, Channel_aftertouch_c, 0, 52
2, 31259, Channel_aftertouch_c, 0, 51
2, 31267, Channel_aftertouch_c, 0, 50
2, 31272, Channel_aftertouch_c, 0, 48
2, 31275, Channel_aftertouch_c, 0, 47
2, 31277, Channel_aftertouch_c, 0, 45
2, 31280, Channel_aftertouch_c, 0, 41
2, 31283, Channel_aftertouch_c, 0, 37
2, 31285, Channel_aftertouch_c, 0, 32
2, 31288, Channel_aftertouch_c, 0, 29
2, 31291, Channel_aftertouch_c, 0, 23
2, 31293, Channel_aftertouch_c, 0, 18
2, 31296, Channel_aftertouch_c, 0, 12
2, 31298, Channel_aftertouch_c, 0, 4
2, 31301, Channel_aftertouch_c, 0, 1
2, 31309, Channel_aftertouch_c, 0, 0
2, 31309, Note_off_c, 0, 76, 64
2, 31311, Note_on_c, 0, 74, 67
2, 31337, Note_off_c, 0, 65, 55
2, 31432, Note_on_c, 0, 72, 63
2, 31446, Note_off_c, 0, 74, 67
2, 31452, Note_on_c, 0, 67, 42
2, 31552, Note_off_c, 0, 72, 63
2, 31552, Note_on_c, 0, 70, 60
2, 31656, Note_off_c, 0, 70, 60
2, 31690, Note_on_c, 0, 69, 63
2, 31693, Note_on_c, 0, 65, 57
2, 31710, Note_off_c, 0, 67, 42
2, 32156, Note_on_c, 0, 67, 56
2, 32160, Note_on_c, 0, 64, 37
2, 32175, Note_off_c, 0, 65, 57
2, 32175, Note_off_c, 0, 69, 63
2, 32345, Note_off_c, 0, 67, 56
2, 32433, Note_on_c, 0, 72, 35
2, 32485, Note_off_c, 0, 64, 37
2, 32640, Note_off_c, 0, 72, 35
2, 32673, Note_on_c, 0, 72, 76
2, 32685, Channel_aftertouch_c, 0, 3
2, 32687, Channel_aftertouch_c, 0, 21
2, 32689, Channel_aftertouch_c, 0, 42
2, 32692, Channel_aftertouch_c, 0, 59
2, 32695, Channel_aftertouch_c, 0, 70
2, 32697, Channel_aftertouch_c, 0, 74
2, 32700, Channel_aftertouch_c, 0, 72
2, 32703, Channel_aftertouch_c, 0, 64
2, 32705, Channel_aftertouch_c, 0, 51
2, 32708, Channel_aftertouch_c, 0, 38
2, 32711, Channel_aftertouch_c, 0, 24
2, 32713, Channel_aftertouch_c, 0, 13
2, 32716, Channel_aftertouch_c, 0, 5
2, 32718, Channel_aftertouch_c, 0, 1
2, 32721, Channel_aftertouch_c, 0, 0
2, 32745, Channel_aftertouch_c, 0, 2
2, 32747, Channel_aftertouch_c, 0, 3
2, 32750, Channel_aftertouch_c, 0, 4
2, 32758, Channel_aftertouch_c, 0, 3
2, 32760, Channel_aftertouch_c, 0, 1
2, 32763, Channel_aftertouch_c, 0, 0
2, 32883, Note_off_c, 0, 72, 76
2, 32925, Note_on_c, 0, 72, 68
2, 32941, Channel_aftertouch_c, 0, 1
2, 32943, Channel_aftertouch_c, 0, 9
2, 32946, Channel_aftertouch_c, 0, 16
2, 32948, Channel_aftertouch_c, 0, 23
2, 32951, Channel_aftertouch_c, 0, 25
2, 32957, Channel_aftertouch_c, 0, 21
2, 32959, Channel_aftertouch_c, 0, 15
2, 32961, Channel_aftertouch_c, 0, 9
2, 32964, Channel_aftertouch_c, 0, 2
2, 32967, Channel_aftertouch_c, 0, 0
2, 32993, Channel_aftertouch_c, 0, 1
2, 32995, Channel_aftertouch_c, 0, 3
2, 33001, Channel_aftertouch_c, 0, 2
2, 33003, Channel_aftertouch_c, 0, 0
2, 33113, Note_off_c, 0, 72, 68
2, 33146, Control_c, 0, 64, 127
2, 33159, Note_on_c, 0, 72, 73
2, 33160, Note_on_c, 0, 82, 82
2, 33163, Channel_aftertouch_c, 0, 2
2, 33165, Channel_aftertouch_c, 0, 0
2, 33171, Channel_aftertouch_c, 0, 14
2, 33173, Channel_aftertouch_c, 0, 32
2, 33175, Channel_aftertouch_c, 0, 43
2, 33181, Channel_aftertouch_c, 0, 38
2, 33184, Channel_aftertouch_c, 0, 25
2, 33186, Channel_aftertouch_c, 0, 11
2, 33189, Channel_aftertouch_c, 0, 2
2, 33191, Channel_aftertouch_c, 0, 0
2, 33215, Channel_aftertouch_c, 0, 2
2, 33217, Channel_aftertouch_c, 0, 4
2, 33225, Channel_aftertouch_c, 0, 1
2, 33228, Channel_aftertouch_c, 0, 0
2, 33801, Note_off_c, 0, 82, 82
2, 33814, Control_c, 0, 64, 0
2, 33848, Note_on_c, 0, 81, 61
2, 33884, Note_off_c, 0, 72, 73
2, 34093, Note_on_c, 0, 79, 53
2, 34097, Note_on_c, 0, 70, 20
2, 34121, Note_off_c, 0, 81, 61
2, 34327, Note_on_c, 0, 69, 45
2, 34332, Note_on_c, 0, 77, 57
2, 34349, Note_off_c, 0, 70, 20
2, 34360, Note_off_c, 0, 79, 53
2, 34548, Note_off_c, 0, 77, 57
2, 34595, Note_off_c, 0, 69, 45
2, 34601, Note_on_c, 0, 72, 56
2, 34603, Note_on_c, 0, 67, 53
2, 34603, Note_on_c, 0, 77, 58
2, 35119, Note_on_c, 0, 76, 21
2, 35139, Note_off_c, 0, 77, 58
2, 35140, Note_off_c, 0, 72, 56
2, 35351, Note_on_c, 0, 75, 55
2, 35376, Note_off_c, 0, 76, 21
2, 35561, Note_off_c, 0, 75, 55
2, 35581, Note_on_c, 0, 75, 57
2, 35585, Note_off_c, 0, 67, 53
2, 35769, Note_off_c, 0, 75, 57
2, 35808, Note_on_c, 0, 75, 47
2, 36033, Note_off_c, 0, 75, 47
2, 36040, Note_on_c, 0, 77, 60
2, 36078, Note_on_c, 0, 75, 55
2, 36081, Note_off_c, 0, 77, 60
2, 36123, Note_off_c, 0, 75, 55
2, 36134, Note_on_c, 0, 77, 66
2, 36156, Note_off_c, 0, 77, 66
2, 36159, Note_on_c, 0, 75, 56
2, 36183, Note_off_c, 0, 75, 56
2, 36186, Note_on_c, 0, 77, 57
2, 36217, Note_on_c, 0, 75, 58
2, 36241, Note_off_c, 0, 77, 57
2, 36245, Note_on_c, 0, 74, 52
2, 36253, Note_off_c, 0, 75, 58
2, 36294, Note_on_c, 0, 75, 66
2, 36296, Note_off_c, 0, 74, 52
2, 36383, Note_on_c, 0, 77, 61
2, 36396, Note_off_c, 0, 75, 66
2, 36495, Note_on_c, 0, 79, 55
2, 36509, Note_off_c, 0, 77, 61
2, 36723, Note_off_c, 0, 79, 55
2, 36723, Note_on_c, 0, 77, 58
2, 36853, Note_on_c, 0, 75, 41
2, 36869, Note_off_c, 0, 77, 58
2, 36941, Note_off_c, 0, 75, 41
2, 36984, Note_on_c, 0, 75, 47
2, 37104, Note_on_c, 0, 74, 48
2, 37126, Note_off_c, 0, 75, 47
2, 37189, Note_off_c, 0, 74, 48
2, 37214, Note_on_c, 0, 74, 64
2, 37347, Note_on_c, 0, 73, 45
2, 37354, Note_off_c, 0, 74, 64
2, 37453, Note_off_c, 0, 73, 45
2, 37488, Note_on_c, 0, 73, 56
2, 37940, Note_on_c, 0, 74, 52
2, 37958, Note_off_c, 0, 73, 56
2, 38190, Note_on_c, 0, 77, 58
2, 38224, Note_off_c, 0, 74, 52
2, 38317, Note_on_c, 0, 76, 71
2, 38350, Note_off_c, 0, 77, 58
2, 38443, Note_on_c, 0, 79, 68
2, 38451, Note_off_c, 0, 76, 71
2, 38556, Note_on_c, 0, 77, 69
2, 38577, Note_off_c, 0, 79, 68
2, 38668, Note_on_c, 0, 76, 79
2, 38687, Note_off_c, 0, 77, 69
2, 38781, Note_on_c, 0, 74, 66
2, 38784, Note_off_c, 0, 76, 79
2, 38880, Note_off_c, 0, 74, 66
2, 38914, Note_on_c, 0, 74, 55
2, 39383, Note_on_c, 0, 72, 45
2, 39394, Note_off_c, 0, 74, 55
2, 39627, Note_on_c, 0, 77, 55
2, 39628, Note_off_c, 0, 72, 45
2, 39815, Note_on_c, 0, 72, 58
2, 39825, Note_off_c, 0, 77, 55
2, 39883, Note_on_c, 0, 81, 67
2, 39885, Note_off_c, 0, 72, 58
2, 40066, Note_on_c, 0, 77, 84
2, 40076, Note_off_c, 0, 81, 67
2, 40137, Note_off_c, 0, 77, 84
2, 40139, Note_on_c, 0, 72, 71
2, 40313, Note_on_c, 0, 69, 66
2, 40314, Note_off_c, 0, 72, 71
2, 40370, Note_off_c, 0, 69, 66
2, 40378, Note_on_c, 0, 72, 67
2, 40731, Note_on_c, 0, 71, 66
2, 40771, Note_off_c, 0, 72, 67
2, 40874, Note_off_c, 0, 71, 66
2, 40875, Note_on_c, 0, 70, 46
2, 41069, Note_off_c, 0, 70, 46
2, 41112, Note_on_c, 0, 64, 56
2, 41114, Note_on_c, 0, 67, 64
2, 41306, Note_on_c, 0, 60, 63
2, 41308, Note_off_c, 0, 64, 56
2, 41322, Note_off_c, 0, 67, 64
2, 41352, Note_off_c, 0, 60, 63
2, 41363, Note_on_c, 0, 69, 62
2, 41372, Note_on_c, 0, 65, 53
2, 41432, Note_off_c, 0, 65, 53
2, 41527, Note_on_c, 0, 60, 56
2, 41587, Note_off_c, 0, 69, 62
2, 41596, Note_off_c, 0, 60, 56
2, 41602, Note_on_c, 0, 70, 64
2, 41602, Note_on_c, 0, 67, 57
2, 41625, Channel_aftertouch_c, 0, 1
2, 41633, Channel_aftertouch_c, 0, 0
2, 41774, Note_on_c, 0, 60, 55
2, 41784, Note_off_c, 0, 67, 57
2, 41801, Note_off_c, 0, 70, 64
2, 41854, Note_on_c, 0, 72, 66
2, 41856, Note_on_c, 0, 69, 62
2, 41873, Note_off_c, 0, 60, 55
2, 41986, Note_on_c, 0, 74, 56
2, 42019, Note_off_c, 0, 72, 66
2, 42101, Note_off_c, 0, 74, 56
2, 42101, Note_on_c, 0, 76, 55
2, 42196, Note_off_c, 0, 76, 55
2, 42214, Note_on_c, 0, 77, 62
2, 42225, Note_off_c, 0, 69, 62
2, 42346, Note_on_c, 0, 65, 66
2, 42349, Note_on_c, 0, 60, 45
2, 42371, Note_off_c, 0, 77, 62
2, 43035, Note_off_c, 0, 65, 66
2, 43045, Note_off_c, 0, 60, 45
2, 43098, Note_on_c, 0, 69, 36
2, 43103, Note_on_c, 0, 64, 45
2, 43218, Note_on_c, 0, 67, 41
2, 43233, Note_off_c, 0, 69, 36
2, 43249, Note_off_c, 0, 64, 45
2, 43351, Note_on_c, 0, 65, 48
2, 43393, Note_off_c, 0, 67, 41
2, 43863, Note_off_c, 0, 65, 48
2, 44114, Note_on_c, 0, 72, 50
2, 44372, Note_off_c, 0, 72, 50
2, 44377, Note_on_c, 0, 74, 45
2, 44491, Note_on_c, 0, 72, 63
2, 44519, Note_off_c, 0, 74, 45
2, 44611, Note_off_c, 0, 72, 63
2, 44622, Note_on_c, 0, 70, 62
2, 44734, Note_on_c, 0, 69, 67
2, 44736, Note_off_c, 0, 70, 62
2, 44878, Note_on_c, 0, 67, 67
2, 44883, Note_off_c, 0, 69, 67
2, 45379, Note_on_c, 0, 66, 25
2, 45396, Note_off_c, 0, 67, 67
2, 45590, Note_off_c, 0, 66, 25
2, 45636, Note_on_c, 0, 66, 58
2, 45877, Note_off_c, 0, 66, 58
2, 45890, Note_on_c, 0, 67, 64
2, 46134, Note_on_c, 0, 69, 79
2, 46140, Note_on_c, 0, 66, 62
2, 46142, Note_off_c, 0, 67, 64
2, 46344, Note_off_c, 0, 66, 62
2, 46364, Note_off_c, 0, 69, 79
2, 46394, Note_on_c, 0, 69, 69
2, 46396, Note_on_c, 0, 66, 64
2, 46910, Note_off_c, 0, 66, 64
2, 46911, Note_on_c, 0, 67, 41
2, 46912, Note_off_c, 0, 69, 69
2, 46912, Note_on_c, 0, 70, 33
2, 47174, Note_off_c, 0, 67, 41
2, 47184, Note_on_c, 0, 64, 56
2, 47186, Note_off_c, 0, 70, 33
2, 47422, Note_on_c, 0, 65, 56
2, 47431, Note_off_c, 0, 64, 56
2, 47666, Note_on_c, 0, 64, 58
2, 47669, Note_off_c, 0, 65, 56
2, 47670, Note_on_c, 0, 67, 63
2, 47834, Note_off_c, 0, 64, 58
2, 47885, Note_off_c, 0, 67, 63
2, 47918, Note_on_c, 0, 69, 67
2, 47920, Note_on_c, 0, 65, 63
2, 48176, Note_on_c, 0, 70, 64
2, 48188, Note_off_c, 0, 69, 67
2, 48400, Note_off_c, 0, 70, 64
2, 48420, Note_on_c, 0, 72, 68
2, 48667, Note_on_c, 0, 73, 57
2, 48670, Note_off_c, 0, 72, 68
2, 48910, Note_off_c, 0, 73, 57
2, 48932, Note_on_c, 0, 76, 63
2, 49052, Note_off_c, 0, 65, 63
2, 49070, Note_on_c, 0, 74, 68
2, 49080, Note_off_c, 0, 76, 63
2, 49214, Note_on_c, 0, 72, 61
2, 49215, Note_on_c, 0, 67, 52
2, 49234, Note_off_c, 0, 74, 68
2, 49333, Note_off_c, 0, 72, 61
2, 49341, Note_on_c, 0, 70, 58
2, 49469, Note_off_c, 0, 70, 58
2, 49503, Note_off_c, 0, 67, 52
2, 49504, Note_on_c, 0, 69, 64
2, 49520, Note_on_c, 0, 65, 17
2, 49920, Note_off_c, 0, 65, 17
2, 49990, Note_on_c, 0, 64, 38
2, 49990, Note_on_c, 0, 67, 26
2, 50003, Note_off_c, 0, 69, 52
2, 50249, Note_on_c, 0, 72, 34
2, 50261, Note_off_c, 0, 67, 26
2, 50267, Note_off_c, 0, 64, 38
2, 50492, Note_off_c, 0, 72, 34
2, 50534, Note_on_c, 0, 72, 79
2, 50546, Channel_aftertouch_c, 0, 4
2, 50548, Channel_aftertouch_c, 0, 16
2, 50551, Channel_aftertouch_c, 0, 29
2, 50554, Channel_aftertouch_c, 0, 34
2, 50556, Channel_aftertouch_c, 0, 32
2, 50558, Channel_aftertouch_c, 0, 24
2, 50561, Channel_aftertouch_c, 0, 13
2, 50563, Channel_aftertouch_c, 0, 2
2, 50566, Channel_aftertouch_c, 0, 0
2, 50753, Note_off_c, 0, 72, 79
2, 50797, Note_on_c, 0, 72, 84
2, 50808, Channel_aftertouch_c, 0, 7
2, 50810, Channel_aftertouch_c, 0, 29
2, 50812, Channel_aftertouch_c, 0, 51
2, 50815, Channel_aftertouch_c, 0, 69
2, 50817, Channel_aftertouch_c, 0, 81
2, 50820, Channel_aftertouch_c, 0, 82
2, 50822, Channel_aftertouch_c, 0, 77
2, 50824, Channel_aftertouch_c, 0, 66
2, 50827, Channel_aftertouch_c, 0, 52
2, 50829, Channel_aftertouch_c, 0, 39
2, 50832, Channel_aftertouch_c, 0, 25
2, 50834, Channel_aftertouch_c, 0, 14
2, 50837, Channel_aftertouch_c, 0, 5
2, 50839, Channel_aftertouch_c, 0, 1
2, 50844, Channel_aftertouch_c, 0, 0
2, 50851, Channel_aftertouch_c, 0, 2
2, 50854, Channel_aftertouch_c, 0, 3
2, 50856, Channel_aftertouch_c, 0, 4
2, 50866, Channel_aftertouch_c, 0, 1
2, 50868, Channel_aftertouch_c, 0, 0
2, 51025, Note_off_c, 0, 72, 84
2, 51067, Note_on_c, 0, 72, 71
2, 51067, Note_on_c, 0, 82, 73
2, 51076, Channel_aftertouch_c, 0, 3
2, 51079, Channel_aftertouch_c, 0, 13
2, 51081, Channel_aftertouch_c, 0, 18
2, 51083, Channel_aftertouch_c, 0, 13
2, 51086, Channel_aftertouch_c, 0, 3
2, 51088, Channel_aftertouch_c, 0, 0
2, 51796, Note_off_c, 0, 82, 73
2, 51858, Note_on_c, 0, 81, 53
2, 52112, Note_on_c, 0, 79, 52
2, 52113, Note_on_c, 0, 70, 28
2, 52133, Note_off_c, 0, 72, 71
2, 52148, Note_off_c, 0, 81, 53
2, 52365, Note_off_c, 0, 79, 52
2, 52367, Note_on_c, 0, 69, 35
2, 52367, Note_on_c, 0, 77, 51
2, 52368, Note_off_c, 0, 70, 28
2, 52558, Note_off_c, 0, 77, 51
2, 52685, Note_on_c, 0, 72, 52
2, 52690, Note_on_c, 0, 67, 46
2, 52694, Note_on_c, 0, 77, 24
2, 52715, Note_off_c, 0, 69, 35
2, 53272, Note_on_c, 0, 76, 25
2, 53296, Note_off_c, 0, 77, 24
2, 53400, Note_off_c, 0, 72, 52
2, 53568, Note_on_c, 0, 75, 40
2, 53574, Note_off_c, 0, 67, 46
2, 53593, Note_off_c, 0, 76, 25
2, 53840, Note_off_c, 0, 75, 40
2, 53872, Note_on_c, 0, 75, 50
2, 54084, Note_off_c, 0, 75, 50
2, 54122, Note_on_c, 0, 75, 51
2, 54360, Note_on_c, 0, 77, 60
2, 54362, Note_off_c, 0, 75, 51
2, 54402, Note_on_c, 0, 75, 48
2, 54403, Note_off_c, 0, 77, 60
2, 54446, Note_on_c, 0, 77, 68
2, 54449, Note_off_c, 0, 75, 48
2, 54473, Note_off_c, 0, 77, 68
2, 54482, Note_on_c, 0, 75, 53
2, 54514, Note_on_c, 0, 77, 68
2, 54515, Note_off_c, 0, 75, 53
2, 54546, Note_on_c, 0, 75, 62
2, 54562, Note_off_c, 0, 77, 68
2, 54580, Note_on_c, 0, 74, 62
2, 54588, Note_off_c, 0, 75, 62
2, 54627, Note_on_c, 0, 75, 73
2, 54632, Note_off_c, 0, 74, 62
2, 54735, Note_on_c, 0, 77, 62
2, 54746, Note_off_c, 0, 75, 73
2, 54869, Note_on_c, 0, 79, 55
2, 54884, Note_off_c, 0, 77, 62
2, 55116, Note_off_c, 0, 79, 55
2, 55116, Note_on_c, 0, 77, 53
2, 55250, Note_on_c, 0, 75, 45
2, 55284, Note_off_c, 0, 77, 53
2, 55333, Note_off_c, 0, 75, 45
2, 55376, Note_on_c, 0, 75, 51
2, 55499, Note_off_c, 0, 75, 51
2, 55504, Note_on_c, 0, 74, 34
2, 55576, Note_off_c, 0, 74, 34
2, 55617, Note_on_c, 0, 74, 62
2, 55746, Note_off_c, 0, 74, 62
2, 55748, Note_on_c, 0, 73, 60
2, 55839, Note_off_c, 0, 73, 60
2, 55880, Note_on_c, 0, 73, 64
2, 56360, Note_on_c, 0, 74, 33
2, 56380, Note_off_c, 0, 73, 64
2, 56601, Note_on_c, 0, 77, 55
2, 56634, Note_off_c, 0, 74, 33
2, 56727, Note_on_c, 0, 76, 67
2, 56744, Note_off_c, 0, 77, 55
2, 56845, Note_on_c, 0, 79, 66
2, 56847, Note_off_c, 0, 76, 67
2, 56963, Note_on_c, 0, 77, 68
2, 56983, Note_off_c, 0, 79, 66
2, 57084, Note_on_c, 0, 76, 79
2, 57086, Note_off_c, 0, 77, 68
2, 57201, Note_on_c, 0, 74, 67
2, 57205, Note_off_c, 0, 76, 79
2, 57306, Note_off_c, 0, 74, 67
2, 57354, Note_on_c, 0, 74, 31
2, 57856, Note_on_c, 0, 72, 26
2, 57866, Note_off_c, 0, 74, 31
2, 58110, Note_on_c, 0, 77, 67
2, 58121, Note_off_c, 0, 72, 26
2, 58300, Note_on_c, 0, 72, 50
2, 58310, Note_off_c, 0, 77, 67
2, 58363, Note_on_c, 0, 81, 64
2, 58518, Note_off_c, 0, 81, 64
2, 58563, Note_on_c, 0, 77, 68
2, 58576, Note_off_c, 0, 72, 50
2, 58624, Note_off_c, 0, 77, 68
2, 58634, Note_on_c, 0, 72, 64
2, 58825, Note_off_c, 0, 72, 64
2, 58829, Note_on_c, 0, 69, 47
2, 58911, Note_on_c, 0, 72, 58
2, 58920, Note_off_c, 0, 69, 47
2, 59342, Note_on_c, 0, 71, 34
2, 59378, Note_off_c, 0, 72, 58
2, 59480, Note_off_c, 0, 71, 34
2, 59482, Note_on_c, 0, 70, 46
2, 59788, Note_off_c, 0, 70, 46
2, 59788, Note_on_c, 0, 67, 66
2, 59794, Note_on_c, 0, 64, 58
2, 60005, Note_off_c, 0, 64, 58
2, 60005, Note_on_c, 0, 60, 47
2, 60010, Note_off_c, 0, 67, 66
2, 60052, Note_off_c, 0, 60, 47
2, 60068, Note_on_c, 0, 69, 64
2, 60075, Note_on_c, 0, 65, 63
2, 60273, Note_on_c, 0, 60, 56
2, 60284, Note_off_c, 0, 65, 63
2, 60302, Note_off_c, 0, 69, 64
2, 60318, Note_off_c, 0, 60, 56
2, 60336, Note_on_c, 0, 70, 68
2, 60344, Note_on_c, 0, 67, 62
2, 60545, Note_off_c, 0, 70, 68
2, 60553, Note_on_c, 0, 60, 61
2, 60564, Note_off_c, 0, 67, 62
2, 60629, Note_on_c, 0, 69, 60
2, 60629, Note_on_c, 0, 72, 62
2, 60638, Note_off_c, 0, 60, 61
2, 60787, Note_on_c, 0, 74, 57
2, 60799, Note_off_c, 0, 72, 62
2, 60906, Note_off_c, 0, 74, 57
2, 60918, Note_on_c, 0, 76, 55
2, 61021, Note_off_c, 0, 76, 55
2, 61039, Note_on_c, 0, 77, 62
2, 61195, Note_off_c, 0, 69, 60
2, 61196, Note_off_c, 0, 77, 62
2, 61200, Note_on_c, 0, 65, 35
2, 61204, Note_on_c, 0, 60, 33
2, 61981, Note_off_c, 0, 60, 33
2, 61982, Note_off_c, 0, 65, 35
2, 62026, Note_on_c, 0, 64, 40
2, 62027, Note_on_c, 0, 69, 34
2, 62167, Note_on_c, 0, 67, 56
2, 62170, Note_off_c, 0, 69, 34
2, 62208, Note_off_c, 0, 64, 40
2, 62312, Note_off_c, 0, 67, 56
2, 62340, Note_on_c, 0, 65, 52
2, 63022, Note_off_c, 0, 65, 52
2, 63120, Note_on_c, 0, 68, 30
2, 63120, Note_on_c, 0, 60, 36
2, 63350, Note_off_c, 0, 68, 30
2, 63359, Note_off_c, 0, 60, 36
2, 63360, Note_on_c, 0, 68, 53
2, 63360, Note_on_c, 0, 60, 55
2, 63582, Note_off_c, 0, 68, 53
2, 63585, Note_off_c, 0, 60, 55
2, 63600, Note_on_c, 0, 68, 62
2, 63600, Note_on_c, 0, 60, 56
2, 63811, Note_off_c, 0, 68, 62
2, 63811, Note_off_c, 0, 60, 56
2, 63840, Note_on_c, 0, 60, 58
2, 63840, Note_on_c, 0, 68, 61
2, 64396, Note_off_c, 0, 60, 58
2, 64560, Note_on_c, 0, 67, 55
2, 64560, Note_on_c, 0, 58, 38
2, 64628, Note_off_c, 0, 68, 61
2, 64770, Note_off_c, 0, 67, 55
2, 64774, Note_off_c, 0, 58, 38
2, 64800, Note_on_c, 0, 70, 58
2, 64800, Note_on_c, 0, 61, 55
2, 65038, Note_off_c, 0, 70, 58
2, 65038, Note_off_c, 0, 61, 55
2, 65040, Note_on_c, 0, 64, 57
2, 65040, Note_on_c, 0, 55, 46
2, 65278, Note_off_c, 0, 64, 57
2, 65278, Note_off_c, 0, 55, 46
2, 65280, Note_on_c, 0, 65, 43
2, 65280, Note_on_c, 0, 56, 26
2, 65998, Note_off_c, 0, 65, 43
2, 65998, Note_off_c, 0, 56, 26
2, 66000, Note_on_c, 0, 72, 35
2, 66000, Note_on_c, 0, 68, 35
2, 66238, Note_off_c, 0, 72, 35
2, 66238, Note_off_c, 0, 68, 35
2, 66240, Note_on_c, 0, 68, 56
2, 66240, Note_on_c, 0, 72, 53
2, 66478, Note_off_c, 0, 68, 56
2, 66478, Note_off_c, 0, 72, 53
2, 66480, Note_on_c, 0, 68, 66
2, 66480, Note_on_c, 0, 72, 68
2, 66718, Note_off_c, 0, 68, 66
2, 66718, Note_off_c, 0, 72, 68
2, 66720, Note_on_c, 0, 72, 64
2, 66720, Note_on_c, 0, 67, 57
2, 67438, Note_off_c, 0, 72, 64
2, 67438, Note_off_c, 0, 67, 57
2, 67440, Note_on_c, 0, 73, 68
2, 67678, Note_off_c, 0, 73, 68
2, 67680, Note_on_c, 0, 72, 57
2, 67918, Note_off_c, 0, 72, 57
2, 67920, Note_on_c, 0, 70, 32
2, 68158, Note_off_c, 0, 70, 32
2, 68160, Note_on_c, 0, 67, 47
2, 68160, Note_on_c, 0, 72, 55
2, 68278, Note_off_c, 0, 72, 55
2, 68280, Note_on_c, 0, 70, 64
2, 68398, Note_off_c, 0, 67, 47
2, 68398, Note_off_c, 0, 70, 64
2, 68400, Note_on_c, 0, 65, 21
2, 68400, Note_on_c, 0, 68, 25
2, 68638, Note_off_c, 0, 65, 21
2, 68638, Note_off_c, 0, 68, 25
2, 68880, Note_on_c, 0, 68, 47
2, 69118, Note_off_c, 0, 68, 47
2, 69120, Note_on_c, 0, 70, 61
2, 69358, Note_off_c, 0, 70, 61
2, 69360, Note_on_c, 0, 72, 68
2, 69598, Note_off_c, 0, 72, 68
2, 69600, Note_on_c, 0, 75, 64
2, 69838, Note_off_c, 0, 75, 64
2, 69840, Note_on_c, 0, 73, 50
2, 70078, Note_off_c, 0, 73, 50
2, 70320, Note_on_c, 0, 72, 62
2, 70438, Note_off_c, 0, 72, 62
2, 70440, Note_on_c, 0, 73, 42
2, 70498, Note_off_c, 0, 73, 42
2, 70560, Note_on_c, 0, 72, 80
2, 70678, Note_off_c, 0, 72, 80
2, 70680, Note_on_c, 0, 73, 39
2, 70738, Note_off_c, 0, 73, 39
2, 70800, Note_on_c, 0, 72, 84
2, 70918, Note_off_c, 0, 72, 84
2, 70920, Note_on_c, 0, 73, 47
2, 70978, Note_off_c, 0, 73, 47
2, 71030, Note_on_c, 0, 73, 64
2, 71170, Note_off_c, 0, 73, 64
2, 71176, Note_on_c, 0, 75, 58
2, 71209, Note_on_c, 0, 73, 52
2, 71225, Note_off_c, 0, 75, 58
2, 71233, Note_on_c, 0, 72, 56
2, 71234, Note_off_c, 0, 73, 52
2, 71272, Note_on_c, 0, 73, 68
2, 71285, Note_off_c, 0, 72, 56
2, 71365, Note_on_c, 0, 75, 68
2, 71378, Note_off_c, 0, 73, 68
2, 71472, Note_off_c, 0, 75, 68
2, 71490, Note_on_c, 0, 77, 71
2, 72132, Note_off_c, 0, 77, 71
2, 72224, Note_on_c, 0, 75, 47
2, 72350, Note_on_c, 0, 73, 33
2, 72358, Note_off_c, 0, 75, 47
2, 72466, Note_off_c, 0, 73, 33
2, 72470, Note_on_c, 0, 72, 45
2, 72599, Note_on_c, 0, 75, 27
2, 72636, Note_off_c, 0, 72, 45
2, 72712, Note_on_c, 0, 73, 52
2, 72729, Note_off_c, 0, 75, 27
2, 72826, Note_on_c, 0, 70, 55
2, 72844, Note_off_c, 0, 73, 52
2, 72953, Note_off_c, 0, 70, 55
2, 72956, Note_on_c, 0, 68, 41
2, 73659, Note_off_c, 0, 68, 41
2, 73660, Note_on_c, 0, 67, 51
2, 73663, Note_on_c, 0, 72, 56
2, 73752, Note_off_c, 0, 72, 56
2, 73778, Note_on_c, 0, 70, 55
2, 73915, Note_on_c, 0, 68, 28
2, 73917, Note_off_c, 0, 67, 51
2, 73935, Note_off_c, 0, 70, 55
2, 74435, Note_off_c, 0, 68, 28
2, 74640, Note_on_c, 0, 60, 42
2, 74640, Note_on_c, 0, 68, 23
2, 74878, Note_off_c, 0, 60, 42
2, 74878, Note_off_c, 0, 68, 23
2, 74880, Note_on_c, 0, 60, 34
2, 74880, Note_on_c, 0, 68, 32
2, 75118, Note_off_c, 0, 60, 34
2, 75118, Note_off_c, 0, 68, 32
2, 75120, Note_on_c, 0, 60, 27
2, 75120, Note_on_c, 0, 68, 25
2, 75358, Note_off_c, 0, 60, 27
2, 75358, Note_off_c, 0, 68, 25
2, 75360, Note_on_c, 0, 68, 56
2, 75360, Note_on_c, 0, 60, 37
2, 76078, Note_off_c, 0, 68, 56
2, 76078, Note_off_c, 0, 60, 37
2, 76080, Note_on_c, 0, 67, 58
2, 76080, Note_on_c, 0, 58, 32
2, 76318, Note_off_c, 0, 67, 58
2, 76318, Note_off_c, 0, 58, 32
2, 76320, Note_on_c, 0, 70, 67
2, 76320, Note_on_c, 0, 61, 52
2, 76558, Note_off_c, 0, 70, 67
2, 76558, Note_off_c, 0, 61, 52
2, 76560, Note_on_c, 0, 55, 30
2, 76560, Note_on_c, 0, 64, 51
2, 76798, Note_off_c, 0, 55, 30
2, 76798, Note_off_c, 0, 64, 51
2, 76800, Note_on_c, 0, 65, 51
2, 76800, Note_on_c, 0, 56, 26
2, 77518, Note_off_c, 0, 65, 51
2, 77518, Note_off_c, 0, 56, 26
2, 77520, Note_on_c, 0, 72, 33
2, 77520, Note_on_c, 0, 68, 35
2, 77758, Note_off_c, 0, 72, 33
2, 77758, Note_off_c, 0, 68, 35
2, 77760, Note_on_c, 0, 68, 60
2, 77760, Note_on_c, 0, 72, 61
2, 77998, Note_off_c, 0, 68, 60
2, 77998, Note_off_c, 0, 72, 61
2, 78000, Note_on_c, 0, 72, 68
2, 78000, Note_on_c, 0, 68, 66
2, 78238, Note_off_c, 0, 72, 68
2, 78238, Note_off_c, 0, 68, 66
2, 78240, Note_on_c, 0, 67, 76
2, 78240, Note_on_c, 0, 72, 71
2, 78958, Note_off_c, 0, 72, 71
2, 78960, Note_on_c, 0, 73, 57
2, 79198, Note_off_c, 0, 73, 57
2, 79200, Note_on_c, 0, 72, 45
2, 79438, Note_off_c, 0, 72, 45
2, 79440, Note_on_c, 0, 70, 62
2, 79678, Note_off_c, 0, 67, 76
2, 79678, Note_off_c, 0, 70, 62
2, 79680, Note_on_c, 0, 67, 64
2, 79680, Note_on_c, 0, 72, 65
2, 79798, Note_off_c, 0, 72, 65
2, 79800, Note_on_c, 0, 70, 66
2, 79918, Note_off_c, 0, 67, 64
2, 79918, Note_off_c, 0, 70, 66
2, 79920, Note_on_c, 0, 65, 42
2, 79920, Note_on_c, 0, 68, 47
2, 80158, Note_off_c, 0, 65, 42
2, 80158, Note_off_c, 0, 68, 47
2, 80400, Note_on_c, 0, 68, 43
2, 80638, Note_off_c, 0, 68, 43
2, 80640, Note_on_c, 0, 70, 64
2, 80878, Note_off_c, 0, 70, 64
2, 80880, Note_on_c, 0, 72, 76
2, 81118, Note_off_c, 0, 72, 76
2, 81120, Note_on_c, 0, 75, 76
2, 81358, Note_off_c, 0, 75, 76
2, 81360, Note_on_c, 0, 73, 58
2, 81838, Note_off_c, 0, 73, 58
2, 81840, Note_on_c, 0, 72, 48
2, 81958, Note_off_c, 0, 72, 48
2, 81960, Note_on_c, 0, 73, 34
2, 82030, Note_off_c, 0, 73, 34
2, 82080, Note_on_c, 0, 72, 64
2, 82198, Note_off_c, 0, 72, 64
2, 82200, Note_on_c, 0, 73, 67
2, 82270, Note_off_c, 0, 73, 67
2, 82320, Note_on_c, 0, 72, 76
2, 82438, Note_off_c, 0, 72, 76
2, 82440, Note_on_c, 0, 73, 68
2, 82510, Note_off_c, 0, 73, 68
2, 82550, Note_on_c, 0, 73, 64
2, 82690, Note_off_c, 0, 73, 64
2, 82696, Note_on_c, 0, 75, 58
2, 82729, Note_on_c, 0, 73, 52
2, 82745, Note_off_c, 0, 75, 58
2, 82753, Note_on_c, 0, 72, 56
2, 82754, Note_off_c, 0, 73, 52
2, 82792, Note_on_c, 0, 73, 68
2, 82805, Note_off_c, 0, 72, 56
2, 82885, Note_on_c, 0, 75, 68
2, 82898, Note_off_c, 0, 73, 68
2, 82992, Note_off_c, 0, 75, 68
2, 83010, Note_on_c, 0, 77, 71
2, 83652, Note_off_c, 0, 77, 71
2, 83744, Note_on_c, 0, 75, 47
2, 83870, Note_on_c, 0, 73, 33
2, 83878, Note_off_c, 0, 75, 47
2, 83986, Note_off_c, 0, 73, 33
2, 83990, Note_on_c, 0, 72, 45
2, 84119, Note_on_c, 0, 75, 27
2, 84156, Note_off_c, 0, 72, 45
2, 84232, Note_on_c, 0, 73, 52
2, 84249, Note_off_c, 0, 75, 27
2, 84346, Note_on_c, 0, 70, 55
2, 84364, Note_off_c, 0, 73, 52
2, 84473, Note_off_c, 0, 70, 55
2, 84476, Note_on_c, 0, 68, 41
2, 85179, Note_off_c, 0, 68, 41
2, 85180, Note_on_c, 0, 67, 51
2, 85183, Note_on_c, 0, 72, 56
2, 85272, Note_off_c, 0, 72, 56
2, 85298, Note_on_c, 0, 70, 55
2, 85435, Note_on_c, 0, 68, 28
2, 85437, Note_off_c, 0, 67, 51
2, 85455, Note_off_c, 0, 70, 55
2, 85955, Note_off_c, 0, 68, 28
2, 86160, Note_on_c, 0, 63, 45
2, 86398, Note_off_c, 0, 63, 45
2, 86400, Note_on_c, 0, 68, 57
2, 86638, Note_off_c, 0, 68, 57
2, 86640, Note_on_c, 0, 72, 67
2, 86878, Note_off_c, 0, 72, 67
2, 86880, Note_on_c, 0, 75, 63
2, 87598, Note_off_c, 0, 75, 63
2, 87600, Note_on_c, 0, 73, 45
2, 87718, Note_off_c, 0, 73, 45
2, 87720, Note_on_c, 0, 72, 38
2, 87838, Note_off_c, 0, 72, 38
2, 87840, Note_on_c, 0, 70, 48
2, 88078, Note_off_c, 0, 70, 48
2, 88080, Note_on_c, 0, 68, 45
2, 88198, Note_off_c, 0, 68, 45
2, 88320, Note_on_c, 0, 72, 56
2, 88798, Note_off_c, 0, 72, 56
2, 88800, Note_on_c, 0, 70, 35
2, 89038, Note_off_c, 0, 70, 35
2, 89040, Note_on_c, 0, 60, 42
2, 89278, Note_off_c, 0, 60, 42
2, 89280, Note_on_c, 0, 65, 48
2, 89518, Note_off_c, 0, 65, 48
2, 89520, Note_on_c, 0, 68, 60
2, 89758, Note_off_c, 0, 68, 60
2, 89760, Note_on_c, 0, 72, 67
2, 90478, Note_off_c, 0, 72, 67
2, 90480, Note_on_c, 0, 70, 28
2, 90598, Note_off_c, 0, 70, 28
2, 90600, Note_on_c, 0, 68, 38
2, 90718, Note_off_c, 0, 68, 38
2, 90720, Note_on_c, 0, 67, 38
2, 90958, Note_off_c, 0, 67, 38
2, 90960, Note_on_c, 0, 65, 40
2, 91078, Note_off_c, 0, 65, 40
2, 91200, Note_on_c, 0, 68, 46
2, 91200, Note_on_c, 0, 65, 41
2, 91678, Note_off_c, 0, 68, 46
2, 91678, Note_off_c, 0, 65, 41
2, 91680, Note_on_c, 0, 67, 28
2, 91680, Note_on_c, 0, 64, 25
2, 91918, Note_off_c, 0, 67, 28
2, 91918, Note_off_c, 0, 64, 25
2, 91920, Note_on_c, 0, 72, 42
2, 92158, Note_off_c, 0, 72, 42
2, 92160, Note_on_c, 0, 77, 63
2, 92398, Note_off_c, 0, 77, 63
2, 92400, Note_on_c, 0, 80, 69
2, 92638, Note_off_c, 0, 80, 69
2, 92640, Note_on_c, 0, 79, 79
2, 92878, Note_off_c, 0, 79, 79
2, 92880, Note_on_c, 0, 77, 45
2, 93118, Note_off_c, 0, 77, 45
2, 93360, Note_on_c, 0, 72, 48
2, 93598, Note_off_c, 0, 72, 48
2, 93600, Note_on_c, 0, 77, 57
2, 93838, Note_off_c, 0, 77, 57
2, 93840, Note_on_c, 0, 80, 55
2, 94078, Note_off_c, 0, 80, 55
2, 94080, Note_on_c, 0, 79, 55
2, 94318, Note_off_c, 0, 79, 55
2, 94320, Note_on_c, 0, 77, 67
2, 94798, Note_off_c, 0, 77, 67
2, 94800, Note_on_c, 0, 75, 63
2, 94800, Note_on_c, 0, 72, 56
2, 94800, Note_on_c, 0, 77, 61
2, 94800, Note_on_c, 0, 69, 58
2, 95038, Note_off_c, 0, 75, 63
2, 95038, Note_off_c, 0, 72, 56
2, 95038, Note_off_c, 0, 77, 61
2, 95038, Note_off_c, 0, 69, 58
2, 95040, Note_on_c, 0, 77, 68
2, 95040, Note_on_c, 0, 75, 66
2, 95040, Note_on_c, 0, 69, 67
2, 95040, Note_on_c, 0, 72, 57
2, 95278, Note_off_c, 0, 77, 68
2, 95278, Note_off_c, 0, 75, 66
2, 95278, Note_off_c, 0, 69, 67
2, 95278, Note_off_c, 0, 72, 57
2, 95280, Note_on_c, 0, 77, 69
2, 95280, Note_on_c, 0, 75, 66
2, 95280, Note_on_c, 0, 69, 60
2, 95280, Note_on_c, 0, 72, 52
2, 95518, Note_off_c, 0, 77, 69
2, 95518, Note_off_c, 0, 75, 66
2, 95518, Note_off_c, 0, 69, 60
2, 95518, Note_off_c, 0, 72, 52
2, 95520, Note_on_c, 0, 73, 62
2, 95520, Note_on_c, 0, 77, 61
2, 95638, Note_off_c, 0, 73, 62
2, 95638, Note_off_c, 0, 77, 61
2, 95640, Note_on_c, 0, 70, 33
2, 95640, Note_on_c, 0, 73, 56
2, 95758, Note_off_c, 0, 70, 33
2, 95758, Note_off_c, 0, 73, 56
2, 95760, Note_on_c, 0, 70, 35
2, 95760, Note_on_c, 0, 73, 48
2, 95878, Note_off_c, 0, 70, 35
2, 95878, Note_off_c, 0, 73, 48
2, 95880, Note_on_c, 0, 70, 42
2, 95880, Note_on_c, 0, 67, 23
2, 95910, Channel_aftertouch_c, 0, 4
2, 95997, Channel_aftertouch_c, 0, 41
2, 95998, Note_off_c, 0, 70, 42
2, 95998, Note_off_c, 0, 67, 23
2, 96000, Channel_aftertouch_c, 0, 38
2, 96000, Note_on_c, 0, 68, 46
2, 96000, Note_on_c, 0, 65, 38
2, 96002, Channel_aftertouch_c, 0, 31
2, 96005, Channel_aftertouch_c, 0, 18
2, 96007, Channel_aftertouch_c, 0, 4
2, 96010, Channel_aftertouch_c, 0, 1
2, 96017, Channel_aftertouch_c, 0, 0
2, 96478, Note_off_c, 0, 68, 46
2, 96478, Note_off_c, 0, 65, 38
2, 96480, Note_on_c, 0, 64, 41
2, 96480, Note_on_c, 0, 68, 34
2, 96598, Note_off_c, 0, 68, 34
2, 96600, Note_on_c, 0, 67, 33
2, 96718, Note_off_c, 0, 67, 33
2, 96720, Note_on_c, 0, 65, 25
2, 96838, Note_off_c, 0, 65, 25
2, 96840, Note_on_c, 0, 67, 35
2, 96958, Note_off_c, 0, 64, 41
2, 96958, Note_off_c, 0, 67, 35
2, 96960, Note_on_c, 0, 65, 38
2, 97438, Note_off_c, 0, 65, 38
2, 97680, Note_on_c, 0, 68, 56
2, 97680, Note_on_c, 0, 60, 34
2, 97918, Note_off_c, 0, 68, 56
2, 97918, Note_off_c, 0, 60, 34
2, 97920, Note_on_c, 0, 68, 55
2, 97920, Note_on_c, 0, 60, 47
2, 98158, Note_off_c, 0, 68, 55
2, 98158, Note_off_c, 0, 60, 47
2, 98160, Note_on_c, 0, 60, 27
2, 98160, Note_on_c, 0, 68, 25
2, 98398, Note_off_c, 0, 60, 27
2, 98398, Note_off_c, 0, 68, 25
2, 98400, Note_on_c, 0, 68, 34
2, 98400, Note_on_c, 0, 60, 41
2, 99118, Note_off_c, 0, 68, 34
2, 99118, Note_off_c, 0, 60, 41
2, 99120, Note_on_c, 0, 58, 24
2, 99120, Note_on_c, 0, 67, 48
2, 99358, Note_off_c, 0, 58, 24
2, 99358, Note_off_c, 0, 67, 48
2, 99360, Note_on_c, 0, 70, 61
2, 99360, Note_on_c, 0, 61, 43
2, 99598, Note_off_c, 0, 70, 61
2, 99598, Note_off_c, 0, 61, 43
2, 99600, Note_on_c, 0, 55, 25
2, 99600, Note_on_c, 0, 64, 43
2, 99838, Note_off_c, 0, 55, 25
2, 99838, Note_off_c, 0, 64, 43
2, 99840, Note_on_c, 0, 65, 55
2, 99840, Note_on_c, 0, 56, 27
2, 100558, Note_off_c, 0, 65, 55
2, 100558, Note_off_c, 0, 56, 27
2, 100560, Note_on_c, 0, 72, 36
2, 100560, Note_on_c, 0, 68, 36
2, 100798, Note_off_c, 0, 72, 36
2, 100798, Note_off_c, 0, 68, 36
2, 100800, Note_on_c, 0, 72, 62
2, 100800, Note_on_c, 0, 68, 61
2, 101038, Note_off_c, 0, 72, 62
2, 101038, Note_off_c, 0, 68, 61
2, 101040, Note_on_c, 0, 72, 73
2, 101040, Note_on_c, 0, 68, 71
2, 101278, Note_off_c, 0, 72, 73
2, 101278, Note_off_c, 0, 68, 71
2, 101280, Note_on_c, 0, 64, 67
2, 101280, Note_on_c, 0, 68, 66
2, 101280, Note_on_c, 0, 72, 71
2, 101998, Note_off_c, 0, 68, 66
2, 101998, Note_off_c, 0, 72, 71
2, 102000, Note_on_c, 0, 70, 26
2, 102000, Note_on_c, 0, 67, 48
2, 102238, Note_off_c, 0, 64, 67
2, 102238, Note_off_c, 0, 70, 26
2, 102238, Note_off_c, 0, 67, 48
2, 102240, Note_on_c, 0, 70, 36
2, 102240, Note_on_c, 0, 73, 46
2, 102478, Note_off_c, 0, 70, 36
2, 102478, Note_off_c, 0, 73, 46
2, 102480, Note_on_c, 0, 64, 55
2, 102480, Note_on_c, 0, 60, 42
2, 102480, Note_on_c, 0, 58, 26
2, 102718, Note_off_c, 0, 64, 55
2, 102718, Note_off_c, 0, 60, 42
2, 102718, Note_off_c, 0, 58, 26
2, 102720, Note_on_c, 0, 60, 25
2, 102720, Note_on_c, 0, 56, 27
2, 102720, Note_on_c, 0, 65, 22
2, 103198, Note_off_c, 0, 60, 25
2, 103198, Note_off_c, 0, 56, 27
2, 103198, Note_off_c, 0, 65, 22
2, 103449, Note_on_c, 0, 72, 47
2, 103665, Note_off_c, 0, 72, 47
2, 103704, Note_on_c, 0, 72, 63
2, 103887, Note_off_c, 0, 72, 63
2, 103942, Note_on_c, 0, 72, 62
2, 104138, Note_off_c, 0, 72, 62
2, 104177, Note_on_c, 0, 72, 68
2, 104312, Note_on_c, 0, 74, 53
2, 104313, Note_off_c, 0, 72, 68
2, 104355, Note_on_c, 0, 72, 64
2, 104377, Note_off_c, 0, 74, 53
2, 104387, Note_on_c, 0, 71, 58
2, 104388, Note_off_c, 0, 72, 64
2, 104424, Note_on_c, 0, 72, 64
2, 104449, Note_off_c, 0, 71, 58
2, 104522, Note_off_c, 0, 72, 64
2, 104535, Note_on_c, 0, 77, 64
2, 104664, Note_on_c, 0, 72, 64
2, 104672, Note_off_c, 0, 77, 64
2, 104806, Note_off_c, 0, 72, 64
2, 104910, Note_on_c, 0, 69, 56
2, 105150, Note_on_c, 0, 72, 53
2, 105173, Note_off_c, 0, 69, 56
2, 105397, Note_on_c, 0, 64, 52
2, 105441, Note_off_c, 0, 72, 53
2, 105651, Note_on_c, 0, 67, 52
2, 105653, Note_off_c, 0, 64, 52
2, 106116, Note_off_c, 0, 67, 52
2, 106116, Note_on_c, 0, 65, 29
2, 106305, Note_off_c, 0, 65, 29
2, 106366, Note_on_c, 0, 60, 52
2, 106369, Note_on_c, 0, 65, 71
2, 106587, Note_on_c, 0, 67, 73
2, 106588, Note_off_c, 0, 65, 71
2, 106621, Note_off_c, 0, 60, 42
2, 106831, Note_on_c, 0, 69, 77
2, 106832, Note_on_c, 0, 60, 60
2, 106833, Note_on_c, 0, 65, 55
2, 106842, Note_off_c, 0, 67, 73
2, 107007, Note_off_c, 0, 65, 55
2, 107022, Note_off_c, 0, 69, 77
2, 107066, Note_off_c, 0, 60, 60
2, 107077, Note_on_c, 0, 65, 43
2, 107077, Note_on_c, 0, 70, 89
2, 107454, Note_on_c, 0, 72, 62
2, 107490, Note_off_c, 0, 70, 89
2, 107502, Note_on_c, 0, 74, 73
2, 107514, Note_off_c, 0, 72, 62
2, 107554, Note_on_c, 0, 72, 77
2, 107557, Note_off_c, 0, 74, 73
2, 107750, Note_off_c, 0, 65, 43
2, 107799, Note_off_c, 0, 72, 77
2, 107800, Note_on_c, 0, 65, 61
2, 108026, Note_on_c, 0, 64, 62
2, 108033, Note_on_c, 0, 59, 26
2, 108040, Note_off_c, 0, 65, 61
2, 108246, Note_on_c, 0, 65, 55
2, 108257, Note_off_c, 0, 64, 62
2, 108458, Note_off_c, 0, 65, 55
2, 108484, Note_on_c, 0, 69, 44
2, 108484, Note_on_c, 0, 65, 45
2, 108488, Note_off_c, 0, 59, 26
2, 108491, Note_on_c, 0, 60, 25
2, 108901, Note_off_c, 0, 65, 45
2, 108972, Note_on_c, 0, 67, 52
2, 108982, Note_on_c, 0, 64, 15
2, 109029, Note_off_c, 0, 69, 34
2, 109181, Note_off_c, 0, 64, 15
2, 109186, Note_off_c, 0, 67, 52
2, 109213, Note_off_c, 0, 60, 25
2, 109235, Note_on_c, 0, 67, 64
2, 109421, Note_off_c, 0, 67, 64
2, 109469, Note_on_c, 0, 67, 79
2, 109665, Note_off_c, 0, 67, 79
2, 109707, Note_on_c, 0, 67, 84
2, 109852, Note_off_c, 0, 67, 84
2, 109888, Note_on_c, 0, 67, 68
2, 109942, Note_on_c, 0, 79, 79
2, 110335, Note_on_c, 0, 74, 58
2, 110365, Note_off_c, 0, 67, 68
2, 110377, Note_off_c, 0, 79, 79
2, 110384, Note_on_c, 0, 71, 64
2, 110403, Note_off_c, 0, 74, 58
2, 110430, Note_on_c, 0, 67, 55
2, 110445, Note_off_c, 0, 71, 64
2, 110614, Note_off_c, 0, 67, 55
2, 110642, Note_on_c, 0, 67, 56
2, 110835, Note_off_c, 0, 67, 56
2, 110868, Note_on_c, 0, 67, 61
2, 111082, Note_off_c, 0, 67, 61
2, 111119, Note_on_c, 0, 67, 64
2, 111283, Note_off_c, 0, 67, 64
2, 111313, Note_on_c, 0, 67, 71
2, 111366, Note_on_c, 0, 79, 79
2, 111369, Note_off_c, 0, 67, 71
2, 111973, Note_on_c, 0, 81, 68
2, 111993, Note_off_c, 0, 79, 79
2, 112017, Note_on_c, 0, 83, 46
2, 112036, Note_off_c, 0, 81, 68
2, 112062, Note_on_c, 0, 84, 63
2, 112080, Note_off_c, 0, 83, 46
2, 112118, Note_off_c, 0, 84, 63
2, 112185, Note_on_c, 0, 83, 53
2, 112231, Note_off_c, 0, 83, 53
2, 112317, Note_on_c, 0, 81, 63
2, 112362, Note_off_c, 0, 81, 63
2, 112433, Note_on_c, 0, 79, 54
2, 112489, Note_off_c, 0, 79, 54
2, 112554, Note_on_c, 0, 77, 43
2, 112611, Note_off_c, 0, 77, 43
2, 112677, Note_on_c, 0, 76, 43
2, 112726, Note_off_c, 0, 76, 43
2, 112792, Note_on_c, 0, 73, 67
2, 112918, Note_off_c, 0, 73, 67
2, 112921, Note_on_c, 0, 74, 63
2, 113039, Note_on_c, 0, 77, 68
2, 113054, Note_off_c, 0, 74, 63
2, 113131, Note_off_c, 0, 77, 68
2, 113154, Note_on_c, 0, 81, 41
2, 113288, Note_on_c, 0, 72, 63
2, 113296, Note_off_c, 0, 81, 41
2, 113990, Note_on_c, 0, 76, 35
2, 113996, Note_on_c, 0, 71, 42
2, 114035, Note_off_c, 0, 72, 63
2, 114116, Note_on_c, 0, 74, 55
2, 114141, Note_off_c, 0, 76, 35
2, 114246, Note_on_c, 0, 72, 52
2, 114248, Note_on_c, 0, 72, 39
2, 114252, Note_off_c, 0, 71, 42
2, 114265, Note_off_c, 0, 74, 55
2, 114706, Note_off_c, 0, 72, 52
2, 114903, Note_off_c, 0, 72, 39
2, 114960, Note_on_c, 0, 72, 38
2, 115198, Note_off_c, 0, 72, 38
2, 115200, Note_on_c, 0, 74, 60
2, 115318, Note_off_c, 0, 74, 60
2, 115320, Note_on_c, 0, 72, 40
2, 115438, Note_off_c, 0, 72, 40
2, 115440, Note_on_c, 0, 70, 47
2, 115558, Note_off_c, 0, 70, 47
2, 115560, Note_on_c, 0, 69, 27
2, 115678, Note_off_c, 0, 69, 27
2, 115680, Note_on_c, 0, 67, 64
2, 116158, Note_off_c, 0, 67, 64
2, 116160, Note_on_c, 0, 66, 28
2, 116398, Note_off_c, 0, 66, 28
2, 116400, Note_on_c, 0, 66, 48
2, 116638, Note_off_c, 0, 66, 48
2, 116640, Note_on_c, 0, 67, 61
2, 116878, Note_off_c, 0, 67, 61
2, 116880, Note_on_c, 0, 66, 58
2, 116880, Note_on_c, 0, 69, 64
2, 117118, Note_off_c, 0, 66, 58
2, 117118, Note_off_c, 0, 69, 64
2, 117120, Note_on_c, 0, 69, 56
2, 117120, Note_on_c, 0, 66, 52
2, 117598, Note_off_c, 0, 69, 56
2, 117598, Note_off_c, 0, 66, 52
2, 117600, Note_on_c, 0, 70, 45
2, 117600, Note_on_c, 0, 67, 41
2, 117742, Note_off_c, 0, 70, 45
2, 117742, Note_off_c, 0, 67, 41
2, 117840, Note_on_c, 0, 64, 43
2, 118078, Note_off_c, 0, 64, 43
2, 118080, Note_on_c, 0, 65, 51
2, 118318, Note_off_c, 0, 65, 51
2, 118320, Note_on_c, 0, 64, 56
2, 118320, Note_on_c, 0, 67, 63
2, 118558, Note_off_c, 0, 64, 56
2, 118558, Note_off_c, 0, 67, 63
2, 118560, Note_on_c, 0, 65, 45
2, 118560, Note_on_c, 0, 69, 55
2, 118798, Note_off_c, 0, 69, 55
2, 118800, Note_on_c, 0, 70, 71
2, 119038, Note_off_c, 0, 70, 71
2, 119040, Note_on_c, 0, 72, 67
2, 119278, Note_off_c, 0, 72, 67
2, 119280, Note_on_c, 0, 73, 68
2, 119518, Note_off_c, 0, 65, 45
2, 119518, Note_off_c, 0, 73, 68
2, 119520, Note_on_c, 0, 76, 66
2, 119638, Note_off_c, 0, 76, 66
2, 119640, Note_on_c, 0, 74, 27
2, 119758, Note_off_c, 0, 74, 27
2, 119760, Note_on_c, 0, 67, 22
2, 119760, Note_on_c, 0, 72, 43
2, 119878, Note_off_c, 0, 72, 43
2, 119880, Note_on_c, 0, 70, 58
2, 119998, Note_off_c, 0, 67, 22
2, 119998, Note_off_c, 0, 70, 58
2, 120000, Note_on_c, 0, 69, 55
2, 120000, Note_on_c, 0, 65, 42
2, 120478, Note_off_c, 0, 69, 55
2, 120478, Note_off_c, 0, 65, 42
2, 120480, Note_on_c, 0, 67, 22
2, 120480, Note_on_c, 0, 64, 26
2, 120598, Note_off_c, 0, 67, 22
2, 120598, Note_off_c, 0, 64, 26
2, 120720, Note_on_c, 0, 72, 52
2, 120958, Note_off_c, 0, 72, 52
2, 120960, Note_on_c, 0, 72, 66
2, 121198, Note_off_c, 0, 72, 66
2, 121200, Note_on_c, 0, 72, 79
2, 121438, Note_off_c, 0, 72, 79
2, 121440, Note_on_c, 0, 72, 69
2, 121440, Note_on_c, 0, 82, 76
2, 122158, Note_off_c, 0, 82, 76
2, 122160, Note_on_c, 0, 81, 56
2, 122398, Note_off_c, 0, 72, 69
2, 122398, Note_off_c, 0, 81, 56
2, 122400, Note_on_c, 0, 79, 56
2, 122400, Note_on_c, 0, 70, 28
2, 122638, Note_off_c, 0, 79, 56
2, 122638, Note_off_c, 0, 70, 28
2, 122640, Note_on_c, 0, 77, 45
2, 122640, Note_on_c, 0, 69, 34
2, 122878, Note_off_c, 0, 77, 45
2, 122878, Note_off_c, 0, 69, 34
2, 122880, Note_on_c, 0, 72, 53
2, 122880, Note_on_c, 0, 67, 50
2, 122880, Note_on_c, 0, 77, 46
2, 123358, Note_off_c, 0, 77, 46
2, 123360, Note_on_c, 0, 76, 24
2, 123598, Note_off_c, 0, 76, 24
2, 123600, Note_on_c, 0, 75, 38
2, 123838, Note_off_c, 0, 72, 53
2, 123838, Note_off_c, 0, 67, 50
2, 123838, Note_off_c, 0, 75, 38
2, 123840, Note_on_c, 0, 75, 42
2, 124078, Note_off_c, 0, 75, 42
2, 124080, Note_on_c, 0, 75, 45
2, 124299, Note_on_c, 0, 77, 62
2, 124318, Note_off_c, 0, 75, 45
2, 124345, Note_on_c, 0, 75, 42
2, 124355, Note_off_c, 0, 77, 62
2, 124394, Note_on_c, 0, 77, 45
2, 124399, Note_off_c, 0, 75, 42
2, 124427, Note_on_c, 0, 75, 58
2, 124431, Note_off_c, 0, 77, 45
2, 124473, Note_off_c, 0, 75, 58
2, 124474, Note_on_c, 0, 77, 64
2, 124508, Note_on_c, 0, 75, 56
2, 124533, Note_off_c, 0, 77, 64
2, 124549, Note_on_c, 0, 74, 60
2, 124551, Note_off_c, 0, 75, 56
2, 124606, Note_on_c, 0, 75, 66
2, 124620, Note_off_c, 0, 74, 60
2, 124677, Note_on_c, 0, 77, 69
2, 124687, Note_off_c, 0, 75, 66
2, 124804, Note_on_c, 0, 79, 62
2, 124811, Note_off_c, 0, 77, 69
2, 125040, Note_on_c, 0, 77, 58
2, 125051, Note_off_c, 0, 79, 62
2, 125158, Note_off_c, 0, 77, 58
2, 125160, Note_on_c, 0, 75, 43
2, 125278, Note_off_c, 0, 75, 43
2, 125280, Note_on_c, 0, 75, 51
2, 125398, Note_off_c, 0, 75, 51
2, 125400, Note_on_c, 0, 74, 45
2, 125518, Note_off_c, 0, 74, 45
2, 125520, Note_on_c, 0, 74, 58
2, 125638, Note_off_c, 0, 74, 58
2, 125640, Note_on_c, 0, 73, 48
2, 125640, Note_on_c, 0, 73, 38
2, 125758, Note_off_c, 0, 73, 38
2, 125760, Note_off_c, 0, 73, 48
2, 125760, Note_on_c, 0, 73, 57
2, 126238, Note_off_c, 0, 73, 57
2, 126240, Note_on_c, 0, 74, 43
2, 126478, Note_off_c, 0, 74, 43
2, 126480, Note_on_c, 0, 77, 38
2, 126598, Note_off_c, 0, 77, 38
2, 126600, Note_on_c, 0, 76, 50
2, 126718, Note_off_c, 0, 76, 50
2, 126720, Note_on_c, 0, 79, 71
2, 126838, Note_off_c, 0, 79, 71
2, 126840, Note_on_c, 0, 77, 69
2, 126958, Note_off_c, 0, 77, 69
2, 126960, Note_on_c, 0, 76, 47
2, 127078, Note_off_c, 0, 76, 47
2, 127080, Note_on_c, 0, 74, 38
2, 127198, Note_off_c, 0, 74, 38
2, 127200, Note_on_c, 0, 74, 46
2, 127678, Note_off_c, 0, 74, 46
2, 127680, Note_on_c, 0, 72, 42
2, 127798, Note_off_c, 0, 72, 42
2, 127920, Note_on_c, 0, 77, 66
2, 128098, Note_off_c, 0, 77, 66
2, 128100, Note_on_c, 0, 72, 60
2, 128158, Note_off_c, 0, 72, 60
2, 128160, Note_on_c, 0, 81, 66
2, 128338, Note_off_c, 0, 81, 66
2, 128340, Note_on_c, 0, 77, 53
2, 128398, Note_off_c, 0, 77, 53
2, 128400, Note_on_c, 0, 72, 48
2, 128578, Note_off_c, 0, 72, 48
2, 128580, Note_on_c, 0, 69, 50
2, 128638, Note_off_c, 0, 69, 50
2, 128640, Note_on_c, 0, 72, 57
2, 128998, Note_off_c, 0, 72, 57
2, 129000, Note_on_c, 0, 71, 23
2, 129118, Note_off_c, 0, 71, 23
2, 129120, Note_on_c, 0, 70, 30
2, 129238, Note_off_c, 0, 70, 30
2, 129360, Note_on_c, 0, 64, 42
2, 129360, Note_on_c, 0, 67, 48
2, 129538, Note_off_c, 0, 64, 42
2, 129540, Note_on_c, 0, 60, 45
2, 129598, Note_off_c, 0, 67, 48
2, 129598, Note_off_c, 0, 60, 45
2, 129600, Note_on_c, 0, 65, 43
2, 129600, Note_on_c, 0, 69, 56
2, 129778, Note_off_c, 0, 65, 43
2, 129780, Note_on_c, 0, 60, 35
2, 129838, Note_off_c, 0, 69, 56
2, 129838, Note_off_c, 0, 60, 35
2, 129840, Note_on_c, 0, 67, 53
2, 129840, Note_on_c, 0, 70, 68
2, 130018, Note_off_c, 0, 67, 53
2, 130020, Note_on_c, 0, 60, 45
2, 130078, Note_off_c, 0, 70, 68
2, 130078, Note_off_c, 0, 60, 45
2, 130080, Note_on_c, 0, 69, 51
2, 130080, Note_on_c, 0, 72, 57
2, 130198, Note_off_c, 0, 72, 57
2, 130200, Note_on_c, 0, 74, 64
2, 130318, Note_off_c, 0, 69, 51
2, 130318, Note_off_c, 0, 74, 64
2, 130320, Note_on_c, 0, 76, 55
2, 130438, Note_off_c, 0, 76, 55
2, 130440, Note_on_c, 0, 77, 55
2, 130558, Note_off_c, 0, 77, 55
2, 130560, Note_on_c, 0, 65, 43
2, 130560, Note_on_c, 0, 60, 38
2, 131278, Note_off_c, 0, 65, 43
2, 131278, Note_off_c, 0, 60, 38
2, 131280, Note_on_c, 0, 64, 19
2, 131280, Note_on_c, 0, 69, 16
2, 131398, Note_off_c, 0, 69, 16
2, 131400, Note_on_c, 0, 67, 57
2, 131518, Note_off_c, 0, 64, 19
2, 131518, Note_off_c, 0, 67, 57
2, 131520, Note_on_c, 0, 65, 32
2, 131998, Note_off_c, 0, 65, 32
2, 132240, Note_on_c, 0, 69, 43
2, 132240, Note_on_c, 0, 60, 37
2, 132478, Note_off_c, 0, 69, 43
2, 132478, Note_off_c, 0, 60, 37
2, 132480, Note_on_c, 0, 69, 46
2, 132480, Note_on_c, 0, 60, 25
2, 132718, Note_off_c, 0, 69, 46
2, 132718, Note_off_c, 0, 60, 25
2, 132720, Note_on_c, 0, 69, 27
2, 132720, Note_on_c, 0, 60, 16
2, 132958, Note_off_c, 0, 69, 27
2, 132958, Note_off_c, 0, 60, 16
2, 132960, Note_on_c, 0, 69, 43
2, 132960, Note_on_c, 0, 60, 53
2, 133678, Note_off_c, 0, 69, 43
2, 133678, Note_off_c, 0, 60, 53
2, 133680, Note_on_c, 0, 65, 36
2, 133680, Note_on_c, 0, 57, 24
2, 133918, Note_off_c, 0, 65, 36
2, 133918, Note_off_c, 0, 57, 24
2, 133920, Note_on_c, 0, 70, 48
2, 133920, Note_on_c, 0, 67, 47
2, 134158, Note_off_c, 0, 70, 48
2, 134158, Note_off_c, 0, 67, 47
2, 134160, Note_on_c, 0, 67, 46
2, 134160, Note_on_c, 0, 64, 46
2, 134398, Note_off_c, 0, 67, 46
2, 134398, Note_off_c, 0, 64, 46
2, 134400, Note_on_c, 0, 69, 51
2, 134400, Note_on_c, 0, 72, 56
2, 134878, Note_off_c, 0, 69, 51
2, 134878, Note_off_c, 0, 72, 56
2, 135120, Note_on_c, 0, 77, 52
2, 135120, Note_on_c, 0, 69, 50
2, 135358, Note_off_c, 0, 77, 52
2, 135358, Note_off_c, 0, 69, 50
2, 135360, Note_on_c, 0, 77, 67
2, 135360, Note_on_c, 0, 69, 61
2, 135598, Note_off_c, 0, 77, 67
2, 135598, Note_off_c, 0, 69, 61
2, 135600, Note_on_c, 0, 77, 73
2, 135600, Note_on_c, 0, 69, 68
2, 135838, Note_off_c, 0, 77, 73
2, 135838, Note_off_c, 0, 69, 68
2, 135840, Note_on_c, 0, 65, 40
2, 135840, Note_on_c, 0, 69, 51
2, 136558, Note_off_c, 0, 65, 40
2, 136558, Note_off_c, 0, 69, 51
2, 136560, Note_on_c, 0, 72, 33
2, 136560, Note_on_c, 0, 69, 34
2, 136798, Note_off_c, 0, 72, 33
2, 136798, Note_off_c, 0, 69, 34
2, 136800, Note_on_c, 0, 67, 22
2, 136800, Note_on_c, 0, 70, 29
2, 137038, Note_off_c, 0, 67, 22
2, 137038, Note_off_c, 0, 70, 29
2, 137040, Note_on_c, 0, 67, 26
2, 137040, Note_on_c, 0, 58, 24
2, 137278, Note_off_c, 0, 67, 26
2, 137278, Note_off_c, 0, 58, 24
2, 137280, Note_on_c, 0, 57, 16
2, 137280, Note_on_c, 0, 65, 18
2, 137758, Note_off_c, 0, 57, 16
2, 137758, Note_off_c, 0, 65, 18
2, 138720, End_track
3, 0, Start_track
3, 0, MIDI_port, 0
3, 0, Channel_prefix, 1
3, 0, Title_t, "Piano L.H."
3, 0, Key_signature, -1, "major"
3, 980, Control_c, 1, 0, 0
3, 985, Program_c, 1, 0
3, 990, Control_c, 1, 7, 127
3, 995, Control_c, 1, 10, 82
3, 1000, Control_c, 1, 91, 76
3, 1005, Control_c, 1, 93, 0
3, 1010, Control_c, 1, 94, 0
3, 1015, Control_c, 1, 11, 127
3, 4339, Note_on_c, 1, 60, 46
3, 4340, Note_on_c, 1, 53, 42
3, 4344, Note_on_c, 1, 57, 40
3, 5087, Note_off_c, 1, 57, 40
3, 5157, Note_off_c, 1, 60, 46
3, 5167, Note_off_c, 1, 53, 42
3, 5315, Note_on_c, 1, 58, 36
3, 5317, Note_on_c, 1, 48, 23
3, 5318, Note_on_c, 1, 55, 33
3, 5576, Note_off_c, 1, 58, 36
3, 5804, Note_off_c, 1, 48, 23
3, 5817, Note_on_c, 1, 50, 29
3, 5817, Note_on_c, 1, 58, 40
3, 5836, Note_off_c, 1, 55, 33
3, 6240, Note_off_c, 1, 50, 29
3, 6240, Note_off_c, 1, 58, 40
3, 6276, Note_on_c, 1, 57, 29
3, 6465, Note_off_c, 1, 57, 29
3, 6529, Note_on_c, 1, 45, 61
3, 6529, Note_on_c, 1, 57, 61
3, 6747, Note_on_c, 1, 43, 73
3, 6747, Note_on_c, 1, 55, 73
3, 6748, Note_off_c, 1, 45, 61
3, 6748, Note_off_c, 1, 57, 61
3, 6988, Note_on_c, 1, 41, 27
3, 6988, Note_on_c, 1, 53, 56
3, 7002, Note_off_c, 1, 43, 73
3, 7002, Note_off_c, 1, 55, 73
3, 7216, Note_off_c, 1, 53, 56
3, 7223, Note_off_c, 1, 41, 27
3, 7237, Note_on_c, 1, 50, 48
3, 7237, Note_on_c, 1, 62, 69
3, 7469, Note_on_c, 1, 58, 50
3, 7472, Note_on_c, 1, 46, 37
3, 7473, Note_off_c, 1, 62, 69
3, 7508, Note_off_c, 1, 50, 48
3, 7721, Note_on_c, 1, 57, 48
3, 7728, Note_on_c, 1, 45, 42
3, 7747, Note_off_c, 1, 58, 50
3, 7748, Note_off_c, 1, 46, 37
3, 7872, Note_off_c, 1, 45, 42
3, 7875, Note_off_c, 1, 57, 48
3, 8201, Note_on_c, 1, 50, 48
3, 8664, Note_on_c, 1, 48, 50
3, 8690, Note_off_c, 1, 50, 48
3, 9161, Note_off_c, 1, 48, 50
3, 9638, Note_on_c, 1, 64, 57
3, 9643, Note_on_c, 1, 60, 48
3, 10048, Note_off_c, 1, 64, 57
3, 10053, Note_off_c, 1, 60, 48
3, 10114, Note_on_c, 1, 65, 64
3, 10116, Note_on_c, 1, 62, 57
3, 10117, Note_on_c, 1, 59, 52
3, 10879, Note_off_c, 1, 65, 64
3, 10881, Note_off_c, 1, 59, 52
3, 10884, Note_off_c, 1, 62, 57
3, 11041, Note_on_c, 1, 64, 48
3, 11045, Note_on_c, 1, 60, 27
3, 11236, Note_off_c, 1, 64, 48
3, 11257, Note_off_c, 1, 60, 27
3, 11513, Note_on_c, 1, 59, 50
3, 11518, Note_on_c, 1, 50, 40
3, 11519, Note_on_c, 1, 53, 46
3, 11980, Note_on_c, 1, 60, 56
3, 11981, Note_on_c, 1, 55, 27
3, 11989, Note_on_c, 1, 52, 56
3, 12024, Note_off_c, 1, 59, 50
3, 12025, Note_off_c, 1, 50, 40
3, 12031, Note_off_c, 1, 53, 46
3, 12432, Note_off_c, 1, 52, 56
3, 12434, Note_off_c, 1, 60, 56
3, 12437, Note_off_c, 1, 55, 27
3, 13200, Note_on_c, 1, 57, 40
3, 13200, Note_on_c, 1, 62, 56
3, 13205, Note_on_c, 1, 53, 30
3, 13368, Note_off_c, 1, 62, 56
3, 13415, Note_off_c, 1, 57, 40
3, 13422, Note_off_c, 1, 53, 30
3, 13440, Note_on_c, 1, 60, 56
3, 13443, Note_on_c, 1, 64, 55
3, 13455, Note_on_c, 1, 55, 33
3, 13848, Note_off_c, 1, 60, 56
3, 13887, Note_off_c, 1, 64, 55
3, 13917, Note_on_c, 1, 62, 37
3, 13921, Note_on_c, 1, 65, 37
3, 14359, Note_off_c, 1, 65, 37
3, 14361, Note_off_c, 1, 62, 37
3, 14392, Note_off_c, 1, 55, 33
3, 14412, Note_on_c, 1, 60, 33
3, 14417, Note_on_c, 1, 64, 38
3, 14891, Note_on_c, 1, 48, 41
3, 14927, Note_off_c, 1, 60, 33
3, 14932, Note_off_c, 1, 64, 38
3, 15126, Note_off_c, 1, 48, 41
3, 15859, Note_on_c, 1, 60, 46
3, 15860, Note_on_c, 1, 53, 42
3, 15864, Note_on_c, 1, 57, 40
3, 16607, Note_off_c, 1, 57, 40
3, 16677, Note_off_c, 1, 60, 46
3, 16687, Note_off_c, 1, 53, 42
3, 16835, Note_on_c, 1, 58, 36
3, 16837, Note_on_c, 1, 48, 23
3, 16838, Note_on_c, 1, 55, 33
3, 17096, Note_off_c, 1, 58, 36
3, 17324, Note_off_c, 1, 48, 23
3, 17337, Note_on_c, 1, 58, 40
3, 17337, Note_on_c, 1, 50, 29
3, 17356, Note_off_c, 1, 55, 33
3, 17760, Note_off_c, 1, 58, 40
3, 17760, Note_off_c, 1, 50, 29
3, 17796, Note_on_c, 1, 57, 29
3, 17985, Note_off_c, 1, 57, 29
3, 18049, Note_on_c, 1, 57, 61
3, 18049, Note_on_c, 1, 45, 61
3, 18267, Note_on_c, 1, 55, 63
3, 18267, Note_on_c, 1, 43, 63
3, 18268, Note_off_c, 1, 57, 61
3, 18268, Note_off_c, 1, 45, 61
3, 18508, Note_on_c, 1, 53, 56
3, 18508, Note_on_c, 1, 41, 27
3, 18522, Note_off_c, 1, 55, 63
3, 18522, Note_off_c, 1, 43, 63
3, 18736, Note_off_c, 1, 53, 56
3, 18743, Note_off_c, 1, 41, 27
3, 18757, Note_on_c, 1, 62, 69
3, 18757, Note_on_c, 1, 50, 48
3, 18989, Note_on_c, 1, 58, 50
3, 18992, Note_on_c, 1, 46, 37
3, 18993, Note_off_c, 1, 62, 69
3, 19028, Note_off_c, 1, 50, 48
3, 19200, Note_off_c, 1, 58, 50
3, 19200, Note_off_c, 1, 46, 37
3, 19241, Note_on_c, 1, 57, 48
3, 19248, Note_on_c, 1, 45, 42
3, 19392, Note_off_c, 1, 45, 42
3, 19395, Note_off_c, 1, 57, 48
3, 19721, Note_on_c, 1, 50, 48
3, 20184, Note_on_c, 1, 48, 50
3, 20210, Note_off_c, 1, 50, 48
3, 20681, Note_off_c, 1, 48, 50
3, 21158, Note_on_c, 1, 64, 57
3, 21163, Note_on_c, 1, 60, 48
3, 21568, Note_off_c, 1, 64, 57
3, 21573, Note_off_c, 1, 60, 48
3, 21634, Note_on_c, 1, 65, 64
3, 21636, Note_on_c, 1, 62, 57
3, 21637, Note_on_c, 1, 59, 52
3, 22399, Note_off_c, 1, 65, 64
3, 22401, Note_off_c, 1, 59, 52
3, 22404, Note_off_c, 1, 62, 57
3, 22428, Channel_aftertouch_c, 1, 1
3, 22443, Channel_aftertouch_c, 1, 2
3, 22451, Channel_aftertouch_c, 1, 3
3, 22462, Channel_aftertouch_c, 1, 4
3, 22477, Channel_aftertouch_c, 1, 5
3, 22493, Channel_aftertouch_c, 1, 4
3, 22496, Channel_aftertouch_c, 1, 3
3, 22498, Channel_aftertouch_c, 1, 1
3, 22501, Channel_aftertouch_c, 1, 0
3, 22561, Note_on_c, 1, 64, 48
3, 22565, Note_on_c, 1, 60, 27
3, 22756, Note_off_c, 1, 64, 48
3, 22777, Note_off_c, 1, 60, 27
3, 23033, Note_on_c, 1, 59, 50
3, 23038, Note_on_c, 1, 50, 40
3, 23039, Note_on_c, 1, 53, 46
3, 23500, Note_on_c, 1, 60, 56
3, 23501, Note_on_c, 1, 55, 27
3, 23509, Note_on_c, 1, 52, 56
3, 23544, Note_off_c, 1, 59, 50
3, 23545, Note_off_c, 1, 50, 40
3, 23551, Note_off_c, 1, 53, 46
3, 23952, Note_off_c, 1, 52, 56
3, 23954, Note_off_c, 1, 60, 56
3, 23957, Note_off_c, 1, 55, 27
3, 24720, Note_on_c, 1, 62, 56
3, 24720, Note_on_c, 1, 57, 40
3, 24725, Note_on_c, 1, 53, 30
3, 24888, Note_off_c, 1, 62, 56
3, 24935, Note_off_c, 1, 57, 40
3, 24942, Note_off_c, 1, 53, 30
3, 24960, Note_on_c, 1, 60, 56
3, 24963, Note_on_c, 1, 64, 55
3, 24975, Note_on_c, 1, 55, 33
3, 25368, Note_off_c, 1, 60, 56
3, 25407, Note_off_c, 1, 64, 55
3, 25437, Note_on_c, 1, 62, 37
3, 25441, Note_on_c, 1, 65, 37
3, 25879, Note_off_c, 1, 65, 37
3, 25881, Note_off_c, 1, 62, 37
3, 25912, Note_off_c, 1, 55, 33
3, 25932, Note_on_c, 1, 60, 33
3, 25937, Note_on_c, 1, 64, 38
3, 25937, Note_on_c, 1, 60, 34
3, 25940, Note_on_c, 1, 64, 37
3, 26392, Note_on_c, 1, 48, 48
3, 26411, Note_on_c, 1, 48, 41
3, 26429, Note_off_c, 1, 60, 34
3, 26430, Note_off_c, 1, 64, 37
3, 26447, Note_off_c, 1, 60, 33
3, 26452, Note_off_c, 1, 64, 38
3, 26646, Note_off_c, 1, 48, 41
3, 26679, Note_off_c, 1, 48, 48
3, 27373, Note_on_c, 1, 63, 51
3, 27373, Note_on_c, 1, 60, 45
3, 27889, Note_off_c, 1, 60, 45
3, 27890, Note_off_c, 1, 63, 51
3, 28106, Note_on_c, 1, 60, 40
3, 28106, Note_on_c, 1, 63, 56
3, 28306, Note_off_c, 1, 63, 56
3, 28321, Note_on_c, 1, 62, 62
3, 28324, Note_off_c, 1, 60, 40
3, 28331, Note_on_c, 1, 58, 40
3, 28521, Note_off_c, 1, 62, 62
3, 28533, Note_off_c, 1, 58, 40
3, 28559, Note_on_c, 1, 57, 61
3, 28563, Note_on_c, 1, 62, 60
3, 28565, Note_on_c, 1, 60, 55
3, 28757, Note_off_c, 1, 60, 55
3, 28759, Note_off_c, 1, 62, 60
3, 28799, Note_off_c, 1, 57, 61
3, 28820, Note_on_c, 1, 60, 50
3, 28821, Note_on_c, 1, 62, 56
3, 28830, Note_on_c, 1, 55, 50
3, 29300, Note_off_c, 1, 60, 50
3, 29300, Note_off_c, 1, 62, 56
3, 29315, Note_on_c, 1, 58, 42
3, 29349, Note_off_c, 1, 55, 50
3, 29484, Note_off_c, 1, 58, 42
3, 29534, Note_on_c, 1, 61, 55
3, 29543, Note_on_c, 1, 58, 53
3, 29745, Note_off_c, 1, 61, 55
3, 29757, Note_on_c, 1, 60, 62
3, 29765, Note_on_c, 1, 57, 45
3, 29773, Note_off_c, 1, 58, 53
3, 29939, Note_off_c, 1, 60, 62
3, 29995, Note_on_c, 1, 60, 58
3, 30000, Note_on_c, 1, 58, 46
3, 30004, Note_on_c, 1, 55, 47
3, 30010, Note_off_c, 1, 57, 45
3, 30148, Note_off_c, 1, 58, 46
3, 30189, Note_off_c, 1, 60, 58
3, 30229, Note_off_c, 1, 55, 47
3, 30246, Note_on_c, 1, 60, 58
3, 30250, Note_on_c, 1, 53, 37
3, 30255, Note_on_c, 1, 57, 11
3, 30397, Note_off_c, 1, 57, 11
3, 30404, Note_off_c, 1, 53, 37
3, 30490, Note_on_c, 1, 50, 63
3, 30651, Note_off_c, 1, 60, 58
3, 30724, Note_on_c, 1, 45, 53
3, 30752, Note_off_c, 1, 50, 63
3, 31176, Note_off_c, 1, 45, 53
3, 31190, Note_on_c, 1, 46, 41
3, 31427, Note_on_c, 1, 43, 46
3, 31461, Note_off_c, 1, 46, 41
3, 31543, Note_off_c, 1, 43, 46
3, 31676, Note_on_c, 1, 48, 55
3, 32175, Note_off_c, 1, 48, 55
3, 33168, Note_on_c, 1, 48, 68
3, 33175, Note_on_c, 1, 36, 68
3, 33191, Channel_aftertouch_c, 1, 2
3, 33194, Channel_aftertouch_c, 1, 4
3, 33196, Channel_aftertouch_c, 1, 2
3, 33199, Channel_aftertouch_c, 1, 0
3, 33511, Note_on_c, 1, 38, 56
3, 33513, Note_on_c, 1, 50, 63
3, 33528, Note_off_c, 1, 36, 68
3, 33532, Note_off_c, 1, 48, 68
3, 33613, Note_off_c, 1, 50, 63
3, 33620, Note_on_c, 1, 52, 62
3, 33625, Note_on_c, 1, 40, 66
3, 33644, Note_off_c, 1, 38, 56
3, 33872, Note_on_c, 1, 53, 67
3, 33874, Note_on_c, 1, 41, 47
3, 33881, Note_off_c, 1, 52, 62
3, 33886, Note_off_c, 1, 40, 66
3, 34079, Note_on_c, 1, 55, 57
3, 34085, Note_on_c, 1, 43, 55
3, 34086, Note_off_c, 1, 53, 67
3, 34100, Note_off_c, 1, 41, 47
3, 34321, Note_on_c, 1, 57, 57
3, 34321, Note_on_c, 1, 45, 36
3, 34327, Note_off_c, 1, 43, 55
3, 34330, Note_off_c, 1, 55, 57
3, 34583, Note_on_c, 1, 58, 60
3, 34583, Note_on_c, 1, 46, 32
3, 34598, Note_off_c, 1, 45, 36
3, 34604, Note_off_c, 1, 57, 57
3, 35377, Note_off_c, 1, 46, 32
3, 35380, Note_off_c, 1, 58, 60
3, 36037, Note_on_c, 1, 65, 46
3, 36041, Note_on_c, 1, 60, 23
3, 36042, Note_on_c, 1, 57, 33
3, 36444, Note_off_c, 1, 65, 46
3, 36517, Note_on_c, 1, 65, 46
3, 36521, Note_on_c, 1, 60, 23
3, 36522, Note_on_c, 1, 57, 33
3, 36537, Note_off_c, 1, 60, 23
3, 36538, Note_off_c, 1, 57, 33
3, 36924, Note_off_c, 1, 65, 46
3, 36997, Note_on_c, 1, 65, 46
3, 37001, Note_on_c, 1, 63, 23
3, 37002, Note_on_c, 1, 57, 33
3, 37017, Note_off_c, 1, 60, 23
3, 37018, Note_off_c, 1, 57, 33
3, 37404, Note_off_c, 1, 65, 46
3, 37463, Note_on_c, 1, 62, 37
3, 37465, Note_on_c, 1, 65, 45
3, 37466, Note_on_c, 1, 58, 33
3, 37497, Note_off_c, 1, 63, 23
3, 37498, Note_off_c, 1, 57, 33
3, 38434, Note_off_c, 1, 65, 45
3, 38436, Note_off_c, 1, 58, 33
3, 38439, Note_off_c, 1, 62, 37
3, 38903, Note_on_c, 1, 58, 42
3, 38906, Note_on_c, 1, 62, 46
3, 38911, Note_on_c, 1, 53, 30
3, 39345, Note_off_c, 1, 62, 46
3, 39395, Note_on_c, 1, 57, 28
3, 39400, Note_on_c, 1, 60, 16
3, 39427, Note_off_c, 1, 58, 42
3, 39761, Note_off_c, 1, 60, 16
3, 39771, Note_off_c, 1, 57, 28
3, 39771, Note_off_c, 1, 53, 30
3, 40398, Note_on_c, 1, 60, 56
3, 40405, Note_on_c, 1, 55, 43
3, 40406, Note_on_c, 1, 52, 47
3, 40808, Note_off_c, 1, 55, 43
3, 40811, Note_off_c, 1, 52, 47
3, 40818, Note_off_c, 1, 60, 56
3, 41109, Note_on_c, 1, 46, 56
3, 41112, Note_on_c, 1, 58, 62
3, 41234, Note_off_c, 1, 58, 62
3, 41308, Note_off_c, 1, 46, 56
3, 41374, Note_on_c, 1, 57, 64
3, 41378, Note_on_c, 1, 45, 55
3, 41591, Note_off_c, 1, 57, 64
3, 41595, Note_off_c, 1, 45, 55
3, 41613, Note_on_c, 1, 55, 62
3, 41621, Note_on_c, 1, 43, 55
3, 41846, Note_off_c, 1, 43, 55
3, 41857, Note_off_c, 1, 55, 62
3, 41862, Note_on_c, 1, 53, 64
3, 41871, Note_on_c, 1, 41, 51
3, 41999, Note_off_c, 1, 41, 51
3, 42009, Note_off_c, 1, 53, 64
3, 42352, Note_on_c, 1, 57, 55
3, 42359, Note_on_c, 1, 48, 40
3, 42849, Note_on_c, 1, 58, 43
3, 42882, Note_off_c, 1, 57, 55
3, 43351, Note_on_c, 1, 57, 50
3, 43351, Note_on_c, 1, 53, 20
3, 43380, Note_off_c, 1, 48, 40
3, 43383, Note_off_c, 1, 58, 43
3, 43851, Note_off_c, 1, 57, 50
3, 43854, Note_on_c, 1, 41, 35
3, 43902, Note_off_c, 1, 53, 20
3, 44125, Note_off_c, 1, 41, 35
3, 44875, Note_on_c, 1, 63, 63
3, 44883, Note_on_c, 1, 60, 42
3, 45462, Note_off_c, 1, 63, 63
3, 45464, Note_off_c, 1, 60, 42
3, 45639, Note_on_c, 1, 63, 37
3, 45647, Note_on_c, 1, 60, 28
3, 45879, Note_off_c, 1, 63, 37
3, 45890, Note_off_c, 1, 60, 28
3, 45891, Note_on_c, 1, 62, 60
3, 45906, Note_on_c, 1, 58, 26
3, 46102, Note_off_c, 1, 62, 60
3, 46140, Note_on_c, 1, 62, 56
3, 46143, Note_on_c, 1, 57, 43
3, 46148, Note_on_c, 1, 60, 48
3, 46149, Note_off_c, 1, 58, 26
3, 46340, Note_off_c, 1, 60, 48
3, 46341, Note_off_c, 1, 62, 56
3, 46395, Note_on_c, 1, 62, 37
3, 46398, Note_on_c, 1, 60, 46
3, 46400, Note_on_c, 1, 55, 56
3, 46418, Note_off_c, 1, 57, 43
3, 46911, Note_on_c, 1, 58, 33
3, 46918, Note_off_c, 1, 60, 46
3, 47045, Note_off_c, 1, 62, 37
3, 47045, Note_off_c, 1, 55, 56
3, 47054, Note_off_c, 1, 58, 33
3, 47184, Note_on_c, 1, 61, 55
3, 47198, Note_on_c, 1, 58, 20
3, 47362, Note_off_c, 1, 61, 55
3, 47363, Note_off_c, 1, 58, 20
3, 47444, Note_on_c, 1, 60, 58
3, 47455, Note_on_c, 1, 57, 36
3, 47630, Note_off_c, 1, 60, 58
3, 47669, Note_off_c, 1, 57, 36
3, 47678, Note_on_c, 1, 60, 56
3, 47681, Note_on_c, 1, 58, 55
3, 47684, Note_on_c, 1, 55, 42
3, 47872, Note_off_c, 1, 60, 56
3, 47881, Note_off_c, 1, 58, 55
3, 47888, Note_off_c, 1, 55, 42
3, 47915, Note_on_c, 1, 60, 56
3, 47920, Note_on_c, 1, 57, 52
3, 47922, Note_on_c, 1, 53, 31
3, 48171, Note_on_c, 1, 50, 61
3, 48186, Note_off_c, 1, 53, 31
3, 48188, Note_off_c, 1, 60, 56
3, 48189, Note_off_c, 1, 57, 52
3, 48350, Note_off_c, 1, 50, 61
3, 48427, Note_on_c, 1, 45, 64
3, 48924, Note_on_c, 1, 46, 38
3, 48948, Note_off_c, 1, 45, 64
3, 49190, Note_off_c, 1, 46, 38
3, 49194, Note_on_c, 1, 43, 29
3, 49312, Note_off_c, 1, 43, 29
3, 49493, Note_on_c, 1, 48, 56
3, 50217, Note_off_c, 1, 48, 56
3, 51066, Note_on_c, 1, 48, 62
3, 51068, Note_on_c, 1, 36, 64
3, 51453, Note_on_c, 1, 38, 62
3, 51456, Note_on_c, 1, 50, 60
3, 51469, Note_off_c, 1, 48, 62
3, 51473, Note_off_c, 1, 36, 64
3, 51580, Note_off_c, 1, 38, 62
3, 51580, Note_off_c, 1, 50, 60
3, 51599, Note_on_c, 1, 52, 64
3, 51606, Note_on_c, 1, 40, 55
3, 51838, Note_off_c, 1, 52, 64
3, 51841, Note_on_c, 1, 41, 55
3, 51841, Note_on_c, 1, 53, 33
3, 51852, Note_off_c, 1, 40, 55
3, 52110, Note_on_c, 1, 55, 55
3, 52111, Note_on_c, 1, 43, 51
3, 52127, Note_off_c, 1, 53, 33
3, 52128, Note_off_c, 1, 41, 55
3, 52373, Note_on_c, 1, 57, 60
3, 52374, Note_on_c, 1, 45, 58
3, 52385, Note_off_c, 1, 55, 55
3, 52394, Note_off_c, 1, 43, 51
3, 52653, Note_on_c, 1, 58, 56
3, 52662, Note_on_c, 1, 46, 43
3, 52672, Note_off_c, 1, 45, 58
3, 52681, Note_off_c, 1, 57, 60
3, 53559, Note_off_c, 1, 58, 56
3, 53584, Note_off_c, 1, 46, 43
3, 54383, Note_on_c, 1, 65, 45
3, 54384, Note_on_c, 1, 57, 47
3, 54385, Note_on_c, 1, 60, 42
3, 54785, Note_off_c, 1, 60, 42
3, 54788, Note_off_c, 1, 65, 45
3, 54806, Note_off_c, 1, 57, 47
3, 54863, Note_on_c, 1, 57, 41
3, 54863, Note_on_c, 1, 65, 42
3, 54864, Note_on_c, 1, 60, 38
3, 55257, Note_off_c, 1, 60, 38
3, 55290, Note_off_c, 1, 65, 42
3, 55292, Note_off_c, 1, 57, 41
3, 55386, Note_on_c, 1, 65, 37
3, 55390, Note_on_c, 1, 57, 30
3, 55391, Note_on_c, 1, 63, 45
3, 55790, Note_off_c, 1, 63, 45
3, 55798, Note_off_c, 1, 65, 37
3, 55826, Note_off_c, 1, 57, 30
3, 55898, Note_on_c, 1, 65, 50
3, 55898, Note_on_c, 1, 62, 42
3, 55900, Note_on_c, 1, 58, 38
3, 56642, Note_off_c, 1, 58, 38
3, 56652, Note_off_c, 1, 62, 42
3, 56655, Note_off_c, 1, 65, 50
3, 57360, Note_on_c, 1, 53, 31
3, 57362, Note_on_c, 1, 58, 30
3, 57364, Note_on_c, 1, 62, 36
3, 57706, Note_off_c, 1, 62, 36
3, 57722, Note_off_c, 1, 58, 30
3, 57869, Note_on_c, 1, 57, 9
3, 57872, Note_on_c, 1, 60, 20
3, 58302, Note_off_c, 1, 57, 9
3, 58316, Note_off_c, 1, 60, 20
3, 58329, Note_off_c, 1, 53, 31
3, 58916, Note_on_c, 1, 60, 43
3, 58916, Note_on_c, 1, 55, 21
3, 58923, Note_on_c, 1, 52, 26
3, 59558, Note_off_c, 1, 55, 21
3, 59566, Note_off_c, 1, 52, 26
3, 59575, Note_off_c, 1, 60, 43
3, 59792, Note_on_c, 1, 46, 50
3, 59792, Note_on_c, 1, 58, 53
3, 60060, Note_off_c, 1, 58, 53
3, 60083, Note_on_c, 1, 45, 56
3, 60084, Note_on_c, 1, 57, 63
3, 60091, Note_off_c, 1, 46, 50
3, 60306, Note_off_c, 1, 57, 63
3, 60316, Note_off_c, 1, 45, 56
3, 60348, Note_on_c, 1, 55, 62
3, 60351, Note_on_c, 1, 43, 53
3, 60584, Note_off_c, 1, 55, 62
3, 60587, Note_off_c, 1, 43, 53
3, 60638, Note_on_c, 1, 53, 62
3, 60642, Note_on_c, 1, 41, 34
3, 60943, Note_off_c, 1, 41, 34
3, 60976, Note_off_c, 1, 53, 62
3, 61200, Note_on_c, 1, 48, 42
3, 61200, Note_on_c, 1, 57, 42
3, 61776, Note_on_c, 1, 58, 42
3, 61813, Note_off_c, 1, 57, 42
3, 62238, Note_off_c, 1, 48, 42
3, 62295, Note_off_c, 1, 58, 42
3, 62340, Note_on_c, 1, 57, 27
3, 62340, Note_on_c, 1, 53, 46
3, 62840, Note_on_c, 1, 41, 27
3, 63138, Note_off_c, 1, 41, 27
3, 63191, Note_off_c, 1, 57, 27
3, 63196, Note_off_c, 1, 53, 46
3, 63840, Note_on_c, 1, 41, 33
3, 63861, Control_c, 1, 64, 127
3, 63960, Note_on_c, 1, 53, 56
3, 64078, Note_off_c, 1, 53, 56
3, 64080, Note_on_c, 1, 53, 30
3, 64198, Note_off_c, 1, 53, 30
3, 64200, Note_on_c, 1, 53, 20
3, 64318, Note_off_c, 1, 53, 20
3, 64320, Note_on_c, 1, 53, 30
3, 64438, Note_off_c, 1, 53, 30
3, 64440, Note_on_c, 1, 53, 26
3, 64558, Note_off_c, 1, 53, 26
3, 64560, Note_on_c, 1, 53, 16
3, 64678, Note_off_c, 1, 53, 16
3, 64680, Note_on_c, 1, 53, 17
3, 64774, Control_c, 1, 64, 0
3, 64798, Note_off_c, 1, 41, 33
3, 64798, Note_off_c, 1, 53, 17
3, 64800, Note_on_c, 1, 53, 45
3, 64918, Note_off_c, 1, 53, 45
3, 64920, Note_on_c, 1, 53, 28
3, 65038, Note_off_c, 1, 53, 28
3, 65040, Note_on_c, 1, 53, 26
3, 65158, Note_off_c, 1, 53, 26
3, 65160, Note_on_c, 1, 53, 28
3, 65278, Note_off_c, 1, 53, 28
3, 65280, Note_on_c, 1, 41, 45
3, 65327, Control_c, 1, 64, 127
3, 65400, Note_on_c, 1, 53, 55
3, 65518, Note_off_c, 1, 53, 55
3, 65520, Note_on_c, 1, 53, 23
3, 65638, Note_off_c, 1, 53, 23
3, 65640, Note_on_c, 1, 53, 33
3, 65758, Note_off_c, 1, 53, 33
3, 65760, Note_on_c, 1, 53, 26
3, 65878, Note_off_c, 1, 53, 26
3, 65880, Note_on_c, 1, 53, 34
3, 65998, Note_off_c, 1, 53, 34
3, 66000, Note_on_c, 1, 53, 25
3, 66118, Note_off_c, 1, 53, 25
3, 66120, Note_on_c, 1, 53, 33
3, 66238, Note_off_c, 1, 53, 33
3, 66240, Note_on_c, 1, 53, 33
3, 66358, Note_off_c, 1, 53, 33
3, 66360, Note_on_c, 1, 53, 28
3, 66478, Note_off_c, 1, 53, 28
3, 66480, Note_on_c, 1, 53, 26
3, 66598, Note_off_c, 1, 53, 26
3, 66600, Note_on_c, 1, 53, 18
3, 66664, Control_c, 1, 64, 0
3, 66718, Note_off_c, 1, 41, 45
3, 66718, Note_off_c, 1, 53, 18
3, 66720, Note_on_c, 1, 40, 63
3, 66840, Note_on_c, 1, 52, 50
3, 66958, Note_off_c, 1, 52, 50
3, 66960, Note_on_c, 1, 52, 26
3, 67078, Note_off_c, 1, 52, 26
3, 67080, Note_on_c, 1, 52, 20
3, 67198, Note_off_c, 1, 52, 20
3, 67200, Note_on_c, 1, 52, 32
3, 67318, Note_off_c, 1, 52, 32
3, 67320, Note_on_c, 1, 52, 21
3, 67438, Note_off_c, 1, 52, 21
3, 67440, Note_on_c, 1, 52, 26
3, 67558, Note_off_c, 1, 52, 26
3, 67560, Note_on_c, 1, 52, 12
3, 67678, Note_off_c, 1, 40, 63
3, 67678, Note_off_c, 1, 52, 12
3, 67680, Note_on_c, 1, 52, 27
3, 67798, Note_off_c, 1, 52, 27
3, 67800, Note_on_c, 1, 52, 24
3, 67918, Note_off_c, 1, 52, 24
3, 67920, Note_on_c, 1, 52, 22
3, 68038, Note_off_c, 1, 52, 22
3, 68040, Note_on_c, 1, 52, 23
3, 68158, Note_off_c, 1, 52, 23
3, 68160, Note_on_c, 1, 41, 28
3, 68280, Note_on_c, 1, 53, 42
3, 68398, Note_off_c, 1, 53, 42
3, 68400, Note_on_c, 1, 53, 23
3, 68518, Note_off_c, 1, 41, 28
3, 68518, Note_off_c, 1, 53, 23
3, 68520, Note_on_c, 1, 53, 25
3, 68638, Note_off_c, 1, 53, 25
3, 68640, Note_on_c, 1, 53, 42
3, 68758, Note_off_c, 1, 53, 42
3, 69840, Note_on_c, 1, 53, 45
3, 69840, Note_on_c, 1, 56, 36
3, 69840, Note_on_c, 1, 61, 35
3, 69853, Control_c, 1, 64, 126
3, 70078, Note_off_c, 1, 53, 45
3, 70078, Note_off_c, 1, 56, 36
3, 70078, Note_off_c, 1, 61, 35
3, 70080, Note_on_c, 1, 56, 31
3, 70080, Note_on_c, 1, 53, 41
3, 70080, Note_on_c, 1, 61, 42
3, 70318, Note_off_c, 1, 56, 31
3, 70318, Note_off_c, 1, 53, 41
3, 70318, Note_off_c, 1, 61, 42
3, 70320, Note_on_c, 1, 56, 53
3, 70320, Note_on_c, 1, 53, 55
3, 70320, Note_on_c, 1, 61, 55
3, 70558, Note_off_c, 1, 56, 53
3, 70558, Note_off_c, 1, 53, 55
3, 70558, Note_off_c, 1, 61, 55
3, 70560, Note_on_c, 1, 53, 46
3, 70560, Note_on_c, 1, 56, 30
3, 70560, Note_on_c, 1, 61, 31
3, 70663, Control_c, 1, 64, 0
3, 70798, Note_off_c, 1, 53, 46
3, 70798, Note_off_c, 1, 56, 30
3, 70798, Note_off_c, 1, 61, 31
3, 70800, Note_on_c, 1, 56, 46
3, 70800, Note_on_c, 1, 61, 50
3, 70800, Note_on_c, 1, 53, 56
3, 71038, Note_off_c, 1, 56, 46
3, 71038, Note_off_c, 1, 61, 50
3, 71038, Note_off_c, 1, 53, 56
3, 71040, Note_on_c, 1, 61, 61
3, 71040, Note_on_c, 1, 55, 52
3, 71040, Note_on_c, 1, 63, 51
3, 71040, Note_on_c, 1, 58, 45
3, 71998, Note_off_c, 1, 61, 61
3, 71998, Note_off_c, 1, 55, 52
3, 71998, Note_off_c, 1, 63, 51
3, 71998, Note_off_c, 1, 58, 45
3, 72480, Note_on_c, 1, 56, 52
3, 72718, Note_off_c, 1, 56, 52
3, 72720, Note_on_c, 1, 58, 50
3, 72720, Note_on_c, 1, 49, 32
3, 72958, Note_off_c, 1, 58, 50
3, 72958, Note_off_c, 1, 49, 32
3, 72960, Note_on_c, 1, 51, 33
3, 72960, Note_on_c, 1, 60, 47
3, 73438, Note_off_c, 1, 60, 47
3, 73440, Note_on_c, 1, 61, 47
3, 73918, Note_off_c, 1, 51, 33
3, 73918, Note_off_c, 1, 61, 47
3, 73920, Note_on_c, 1, 56, 36
3, 73920, Note_on_c, 1, 60, 27
3, 74398, Note_off_c, 1, 56, 36
3, 74398, Note_off_c, 1, 60, 27
3, 74400, Note_on_c, 1, 44, 35
3, 74638, Note_off_c, 1, 44, 35
3, 75360, Note_on_c, 1, 41, 30
3, 75381, Control_c, 1, 64, 127
3, 75480, Note_on_c, 1, 53, 42
3, 75598, Note_off_c, 1, 53, 42
3, 75600, Note_on_c, 1, 53, 27
3, 75718, Note_off_c, 1, 53, 27
3, 75720, Note_on_c, 1, 53, 31
3, 75838, Note_off_c, 1, 53, 31
3, 75840, Note_on_c, 1, 53, 24
3, 75958, Note_off_c, 1, 53, 24
3, 75960, Note_on_c, 1, 53, 27
3, 76078, Note_off_c, 1, 53, 27
3, 76080, Note_on_c, 1, 53, 22
3, 76198, Note_off_c, 1, 53, 22
3, 76200, Note_on_c, 1, 53, 25
3, 76318, Note_off_c, 1, 53, 25
3, 76320, Note_on_c, 1, 53, 28
3, 76333, Control_c, 1, 64, 0
3, 76438, Note_off_c, 1, 53, 28
3, 76440, Note_on_c, 1, 53, 34
3, 76558, Note_off_c, 1, 53, 34
3, 76560, Note_on_c, 1, 53, 23
3, 76678, Note_off_c, 1, 41, 30
3, 76678, Note_off_c, 1, 53, 23
3, 76680, Note_on_c, 1, 53, 22
3, 76798, Note_off_c, 1, 53, 22
3, 76800, Note_on_c, 1, 41, 30
3, 76920, Note_on_c, 1, 53, 42
3, 77038, Note_off_c, 1, 53, 42
3, 77040, Note_on_c, 1, 53, 27
3, 77158, Note_off_c, 1, 53, 27
3, 77160, Note_on_c, 1, 53, 31
3, 77278, Note_off_c, 1, 53, 31
3, 77280, Note_on_c, 1, 53, 24
3, 77398, Note_off_c, 1, 53, 24
3, 77400, Note_on_c, 1, 53, 27
3, 77518, Note_off_c, 1, 53, 27
3, 77520, Note_on_c, 1, 53, 22
3, 77638, Note_off_c, 1, 53, 22
3, 77640, Note_on_c, 1, 53, 25
3, 77758, Note_off_c, 1, 53, 25
3, 77760, Note_on_c, 1, 53, 28
3, 77878, Note_off_c, 1, 53, 28
3, 77880, Note_on_c, 1, 53, 34
3, 77998, Note_off_c, 1, 53, 34
3, 78000, Note_on_c, 1, 53, 23
3, 78118, Note_off_c, 1, 41, 30
3, 78118, Note_off_c, 1, 53, 23
3, 78120, Note_on_c, 1, 53, 22
3, 78238, Note_off_c, 1, 53, 22
3, 78240, Note_on_c, 1, 40, 30
3, 78360, Note_on_c, 1, 52, 42
3, 78478, Note_off_c, 1, 52, 42
3, 78480, Note_on_c, 1, 52, 27
3, 78598, Note_off_c, 1, 52, 27
3, 78600, Note_on_c, 1, 52, 31
3, 78718, Note_off_c, 1, 52, 31
3, 78720, Note_on_c, 1, 52, 24
3, 78838, Note_off_c, 1, 52, 24
3, 78840, Note_on_c, 1, 52, 27
3, 78958, Note_off_c, 1, 52, 27
3, 78960, Note_on_c, 1, 52, 22
3, 79078, Note_off_c, 1, 52, 22
3, 79080, Note_on_c, 1, 52, 25
3, 79198, Note_off_c, 1, 52, 25
3, 79200, Note_on_c, 1, 52, 28
3, 79318, Note_off_c, 1, 52, 28
3, 79320, Note_on_c, 1, 52, 34
3, 79438, Note_off_c, 1, 52, 34
3, 79440, Note_on_c, 1, 52, 23
3, 79558, Note_off_c, 1, 40, 30
3, 79558, Note_off_c, 1, 52, 23
3, 79560, Note_on_c, 1, 52, 22
3, 79678, Note_off_c, 1, 52, 22
3, 79680, Note_on_c, 1, 41, 28
3, 79800, Note_on_c, 1, 53, 21
3, 79918, Note_off_c, 1, 53, 21
3, 79920, Note_on_c, 1, 53, 24
3, 80038, Note_off_c, 1, 53, 24
3, 80040, Note_on_c, 1, 53, 31
3, 80158, Note_off_c, 1, 53, 31
3, 80160, Note_on_c, 1, 53, 30
3, 80518, Note_off_c, 1, 41, 28
3, 80638, Note_off_c, 1, 53, 30
3, 81360, Note_on_c, 1, 61, 35
3, 81360, Note_on_c, 1, 56, 36
3, 81360, Note_on_c, 1, 53, 45
3, 81598, Note_off_c, 1, 61, 35
3, 81598, Note_off_c, 1, 56, 36
3, 81598, Note_off_c, 1, 53, 45
3, 81600, Note_on_c, 1, 61, 42
3, 81600, Note_on_c, 1, 53, 41
3, 81600, Note_on_c, 1, 56, 31
3, 81838, Note_off_c, 1, 61, 42
3, 81838, Note_off_c, 1, 53, 41
3, 81838, Note_off_c, 1, 56, 31
3, 81840, Note_on_c, 1, 61, 55
3, 81840, Note_on_c, 1, 53, 55
3, 81840, Note_on_c, 1, 56, 53
3, 82078, Note_off_c, 1, 61, 55
3, 82078, Note_off_c, 1, 53, 55
3, 82078, Note_off_c, 1, 56, 53
3, 82080, Note_on_c, 1, 61, 31
3, 82080, Note_on_c, 1, 56, 30
3, 82080, Note_on_c, 1, 53, 46
3, 82318, Note_off_c, 1, 61, 31
3, 82318, Note_off_c, 1, 56, 30
3, 82318, Note_off_c, 1, 53, 46
3, 82320, Note_on_c, 1, 53, 56
3, 82320, Note_on_c, 1, 61, 50
3, 82320, Note_on_c, 1, 56, 46
3, 82558, Note_off_c, 1, 53, 56
3, 82558, Note_off_c, 1, 61, 50
3, 82558, Note_off_c, 1, 56, 46
3, 82560, Note_on_c, 1, 58, 45
3, 82560, Note_on_c, 1, 63, 51
3, 82560, Note_on_c, 1, 55, 52
3, 82560, Note_on_c, 1, 61, 61
3, 83518, Note_off_c, 1, 58, 45
3, 83518, Note_off_c, 1, 63, 51
3, 83518, Note_off_c, 1, 55, 52
3, 83518, Note_off_c, 1, 61, 61
3, 84000, Note_on_c, 1, 56, 52
3, 84238, Note_off_c, 1, 56, 52
3, 84240, Note_on_c, 1, 49, 32
3, 84240, Note_on_c, 1, 58, 50
3, 84478, Note_off_c, 1, 49, 32
3, 84478, Note_off_c, 1, 58, 50
3, 84480, Note_on_c, 1, 60, 47
3, 84480, Note_on_c, 1, 51, 33
3, 84958, Note_off_c, 1, 60, 47
3, 84960, Note_on_c, 1, 61, 47
3, 85438, Note_off_c, 1, 51, 33
3, 85438, Note_off_c, 1, 61, 47
3, 85440, Note_on_c, 1, 60, 27
3, 85440, Note_on_c, 1, 56, 36
3, 85918, Note_off_c, 1, 60, 27
3, 85918, Note_off_c, 1, 56, 36
3, 85920, Note_on_c, 1, 44, 35
3, 86158, Note_off_c, 1, 44, 35
3, 87120, Note_on_c, 1, 56, 45
3, 87358, Note_off_c, 1, 56, 45
3, 87360, Note_on_c, 1, 60, 52
3, 87598, Note_off_c, 1, 60, 52
3, 87600, Note_on_c, 1, 63, 45
3, 87838, Note_off_c, 1, 63, 45
3, 87840, Note_on_c, 1, 53, 43
3, 88078, Note_off_c, 1, 53, 43
3, 88080, Note_on_c, 1, 62, 42
3, 88318, Note_off_c, 1, 62, 42
3, 88560, Note_on_c, 1, 51, 41
3, 88798, Note_off_c, 1, 51, 41
3, 88800, Note_on_c, 1, 55, 42
3, 89038, Note_off_c, 1, 55, 42
3, 89040, Note_on_c, 1, 58, 43
3, 89040, Note_on_c, 1, 52, 43
3, 89278, Note_off_c, 1, 58, 43
3, 89278, Note_off_c, 1, 52, 43
3, 89280, Note_on_c, 1, 56, 42
3, 89280, Note_on_c, 1, 53, 31
3, 89758, Note_off_c, 1, 56, 42
3, 89758, Note_off_c, 1, 53, 31
3, 90000, Note_on_c, 1, 49, 55
3, 90240, Note_on_c, 1, 53, 36
3, 90478, Note_off_c, 1, 53, 36
3, 90480, Note_on_c, 1, 56, 51
3, 90718, Note_off_c, 1, 56, 51
3, 90720, Note_on_c, 1, 58, 52
3, 90958, Note_off_c, 1, 58, 52
3, 90960, Note_on_c, 1, 59, 38
3, 91198, Note_off_c, 1, 49, 55
3, 91198, Note_off_c, 1, 59, 38
3, 91200, Note_on_c, 1, 60, 55
3, 91200, Note_on_c, 1, 48, 55
3, 91918, Note_off_c, 1, 60, 55
3, 91918, Note_off_c, 1, 48, 55
3, 92400, Note_on_c, 1, 44, 53
3, 92638, Note_off_c, 1, 44, 53
3, 92640, Note_on_c, 1, 46, 64
3, 92878, Note_off_c, 1, 46, 64
3, 92880, Note_on_c, 1, 58, 57
3, 93118, Note_off_c, 1, 58, 57
3, 93120, Note_on_c, 1, 59, 71
3, 93358, Note_off_c, 1, 59, 71
3, 93360, Note_on_c, 1, 60, 52
3, 93598, Note_off_c, 1, 60, 52
3, 93840, Note_on_c, 1, 48, 42
3, 94078, Note_off_c, 1, 48, 42
3, 94080, Note_on_c, 1, 49, 48
3, 94318, Note_off_c, 1, 49, 48
3, 94320, Note_on_c, 1, 61, 60
3, 94558, Note_off_c, 1, 61, 60
3, 94560, Note_on_c, 1, 63, 68
3, 94798, Note_off_c, 1, 63, 68
3, 94800, Note_on_c, 1, 60, 64
3, 94800, Note_on_c, 1, 48, 53
3, 95038, Note_off_c, 1, 60, 64
3, 95038, Note_off_c, 1, 48, 53
3, 95040, Note_on_c, 1, 57, 52
3, 95040, Note_on_c, 1, 45, 60
3, 95278, Note_off_c, 1, 57, 52
3, 95278, Note_off_c, 1, 45, 60
3, 95280, Note_on_c, 1, 53, 67
3, 95280, Note_on_c, 1, 41, 61
3, 95518, Note_off_c, 1, 53, 67
3, 95518, Note_off_c, 1, 41, 61
3, 95520, Note_on_c, 1, 46, 40
3, 95520, Note_on_c, 1, 58, 50
3, 95998, Note_off_c, 1, 46, 40
3, 95998, Note_off_c, 1, 58, 50
3, 96000, Note_on_c, 1, 48, 31
3, 96000, Note_on_c, 1, 60, 34
3, 96478, Note_off_c, 1, 48, 31
3, 96478, Note_off_c, 1, 60, 34
3, 96480, Note_on_c, 1, 48, 26
3, 96480, Note_on_c, 1, 58, 25
3, 96958, Note_off_c, 1, 48, 26
3, 96958, Note_off_c, 1, 58, 25
3, 96960, Note_on_c, 1, 56, 34
3, 96960, Note_on_c, 1, 53, 5
3, 97438, Note_off_c, 1, 56, 34
3, 97438, Note_off_c, 1, 53, 5
3, 97440, Note_on_c, 1, 41, 40
3, 97678, Note_off_c, 1, 41, 40
3, 98400, Note_on_c, 1, 41, 30
3, 98520, Note_on_c, 1, 53, 42
3, 98638, Note_off_c, 1, 53, 42
3, 98640, Note_on_c, 1, 53, 27
3, 98758, Note_off_c, 1, 53, 27
3, 98760, Note_on_c, 1, 53, 31
3, 98878, Note_off_c, 1, 53, 31
3, 98880, Note_on_c, 1, 53, 24
3, 98998, Note_off_c, 1, 53, 24
3, 99000, Note_on_c, 1, 53, 27
3, 99118, Note_off_c, 1, 53, 27
3, 99120, Note_on_c, 1, 53, 22
3, 99238, Note_off_c, 1, 53, 22
3, 99240, Note_on_c, 1, 53, 25
3, 99358, Note_off_c, 1, 53, 25
3, 99360, Note_on_c, 1, 53, 28
3, 99478, Note_off_c, 1, 53, 28
3, 99480, Note_on_c, 1, 53, 34
3, 99598, Note_off_c, 1, 53, 34
3, 99600, Note_on_c, 1, 53, 23
3, 99718, Note_off_c, 1, 41, 30
3, 99718, Note_off_c, 1, 53, 23
3, 99720, Note_on_c, 1, 53, 22
3, 99838, Note_off_c, 1, 53, 22
3, 99840, Note_on_c, 1, 41, 30
3, 99960, Note_on_c, 1, 53, 42
3, 100078, Note_off_c, 1, 53, 42
3, 100080, Note_on_c, 1, 53, 27
3, 100198, Note_off_c, 1, 53, 27
3, 100200, Note_on_c, 1, 53, 31
3, 100318, Note_off_c, 1, 53, 31
3, 100320, Note_on_c, 1, 53, 24
3, 100438, Note_off_c, 1, 53, 24
3, 100440, Note_on_c, 1, 53, 27
3, 100558, Note_off_c, 1, 53, 27
3, 100560, Note_on_c, 1, 53, 22
3, 100678, Note_off_c, 1, 53, 22
3, 100680, Note_on_c, 1, 53, 25
3, 100798, Note_off_c, 1, 53, 25
3, 100800, Note_on_c, 1, 53, 28
3, 100918, Note_off_c, 1, 53, 28
3, 100920, Note_on_c, 1, 53, 34
3, 101038, Note_off_c, 1, 53, 34
3, 101040, Note_on_c, 1, 53, 23
3, 101158, Note_off_c, 1, 41, 30
3, 101158, Note_off_c, 1, 53, 23
3, 101160, Note_on_c, 1, 53, 22
3, 101278, Note_off_c, 1, 53, 22
3, 101280, Note_on_c, 1, 41, 30
3, 101400, Note_on_c, 1, 53, 42
3, 101518, Note_off_c, 1, 53, 42
3, 101520, Note_on_c, 1, 53, 27
3, 101638, Note_off_c, 1, 53, 27
3, 101640, Note_on_c, 1, 53, 31
3, 101758, Note_off_c, 1, 53, 31
3, 101760, Note_on_c, 1, 53, 24
3, 101878, Note_off_c, 1, 53, 24
3, 101880, Note_on_c, 1, 53, 27
3, 101998, Note_off_c, 1, 53, 27
3, 102000, Note_on_c, 1, 53, 22
3, 102118, Note_off_c, 1, 53, 22
3, 102120, Note_on_c, 1, 53, 25
3, 102238, Note_off_c, 1, 53, 25
3, 102240, Note_on_c, 1, 53, 28
3, 102358, Note_off_c, 1, 53, 28
3, 102360, Note_on_c, 1, 53, 34
3, 102478, Note_off_c, 1, 53, 34
3, 102480, Note_on_c, 1, 53, 23
3, 102598, Note_off_c, 1, 41, 30
3, 102598, Note_off_c, 1, 53, 23
3, 102600, Note_on_c, 1, 53, 22
3, 102718, Note_off_c, 1, 53, 22
3, 102720, Note_on_c, 1, 53, 35
3, 103198, Note_off_c, 1, 53, 35
3, 104179, Note_on_c, 1, 60, 46
3, 104180, Note_on_c, 1, 53, 42
3, 104184, Note_on_c, 1, 57, 40
3, 104927, Note_off_c, 1, 57, 40
3, 104997, Note_off_c, 1, 60, 46
3, 105007, Note_off_c, 1, 53, 42
3, 105155, Note_on_c, 1, 58, 36
3, 105157, Note_on_c, 1, 48, 23
3, 105158, Note_on_c, 1, 55, 33
3, 105416, Note_off_c, 1, 58, 36
3, 105644, Note_off_c, 1, 48, 23
3, 105657, Note_on_c, 1, 50, 29
3, 105657, Note_on_c, 1, 58, 40
3, 105676, Note_off_c, 1, 55, 33
3, 106080, Note_off_c, 1, 50, 29
3, 106080, Note_off_c, 1, 58, 40
3, 106116, Note_on_c, 1, 57, 29
3, 106305, Note_off_c, 1, 57, 29
3, 106369, Note_on_c, 1, 45, 61
3, 106369, Note_on_c, 1, 57, 61
3, 106587, Note_on_c, 1, 43, 63
3, 106587, Note_on_c, 1, 55, 63
3, 106588, Note_off_c, 1, 45, 61
3, 106588, Note_off_c, 1, 57, 61
3, 106828, Note_on_c, 1, 41, 27
3, 106828, Note_on_c, 1, 53, 56
3, 106842, Note_off_c, 1, 43, 63
3, 106842, Note_off_c, 1, 55, 63
3, 107056, Note_off_c, 1, 53, 56
3, 107063, Note_off_c, 1, 41, 27
3, 107077, Note_on_c, 1, 50, 48
3, 107077, Note_on_c, 1, 62, 69
3, 107309, Note_on_c, 1, 58, 50
3, 107312, Note_on_c, 1, 46, 37
3, 107313, Note_off_c, 1, 62, 69
3, 107348, Note_off_c, 1, 50, 48
3, 107520, Note_off_c, 1, 46, 37
3, 107520, Note_off_c, 1, 58, 50
3, 107561, Note_on_c, 1, 57, 48
3, 107568, Note_on_c, 1, 45, 42
3, 107712, Note_off_c, 1, 45, 42
3, 107715, Note_off_c, 1, 57, 48
3, 108041, Note_on_c, 1, 50, 48
3, 108504, Note_on_c, 1, 48, 50
3, 108530, Note_off_c, 1, 50, 48
3, 109001, Note_off_c, 1, 48, 50
3, 109478, Note_on_c, 1, 64, 57
3, 109483, Note_on_c, 1, 60, 48
3, 109888, Note_off_c, 1, 64, 57
3, 109893, Note_off_c, 1, 60, 48
3, 109954, Note_on_c, 1, 65, 64
3, 109956, Note_on_c, 1, 62, 57
3, 109957, Note_on_c, 1, 59, 52
3, 110719, Note_off_c, 1, 65, 64
3, 110721, Note_off_c, 1, 59, 52
3, 110724, Note_off_c, 1, 62, 57
3, 110881, Note_on_c, 1, 64, 48
3, 110885, Note_on_c, 1, 60, 27
3, 111076, Note_off_c, 1, 64, 48
3, 111097, Note_off_c, 1, 60, 27
3, 111353, Note_on_c, 1, 59, 50
3, 111358, Note_on_c, 1, 50, 40
3, 111359, Note_on_c, 1, 53, 46
3, 111820, Note_on_c, 1, 60, 56
3, 111821, Note_on_c, 1, 55, 27
3, 111829, Note_on_c, 1, 52, 56
3, 111864, Note_off_c, 1, 59, 50
3, 111865, Note_off_c, 1, 50, 40
3, 111871, Note_off_c, 1, 53, 46
3, 112272, Note_off_c, 1, 52, 56
3, 112274, Note_off_c, 1, 60, 56
3, 112277, Note_off_c, 1, 55, 27
3, 113040, Note_on_c, 1, 57, 40
3, 113040, Note_on_c, 1, 62, 56
3, 113045, Note_on_c, 1, 53, 30
3, 113208, Note_off_c, 1, 62, 56
3, 113255, Note_off_c, 1, 57, 40
3, 113262, Note_off_c, 1, 53, 30
3, 113280, Note_on_c, 1, 60, 56
3, 113283, Note_on_c, 1, 64, 55
3, 113295, Note_on_c, 1, 55, 33
3, 113688, Note_off_c, 1, 60, 56
3, 113727, Note_off_c, 1, 64, 55
3, 113757, Note_on_c, 1, 62, 37
3, 113761, Note_on_c, 1, 65, 37
3, 114199, Note_off_c, 1, 65, 37
3, 114201, Note_off_c, 1, 62, 37
3, 114232, Note_off_c, 1, 55, 33
3, 114252, Note_on_c, 1, 60, 33
3, 114257, Note_on_c, 1, 60, 34
3, 114257, Note_on_c, 1, 64, 38
3, 114260, Note_on_c, 1, 64, 37
3, 114712, Note_on_c, 1, 48, 48
3, 114731, Note_on_c, 1, 48, 41
3, 114749, Note_off_c, 1, 60, 34
3, 114750, Note_off_c, 1, 64, 37
3, 114767, Note_off_c, 1, 60, 33
3, 114772, Note_off_c, 1, 64, 38
3, 114966, Note_off_c, 1, 48, 41
3, 114999, Note_off_c, 1, 48, 48
3, 115680, Note_on_c, 1, 63, 36
3, 115680, Note_on_c, 1, 60, 28
3, 116398, Note_off_c, 1, 63, 36
3, 116398, Note_off_c, 1, 60, 28
3, 116400, Note_on_c, 1, 60, 23
3, 116400, Note_on_c, 1, 63, 33
3, 116638, Note_off_c, 1, 60, 23
3, 116638, Note_off_c, 1, 63, 33
3, 116640, Note_on_c, 1, 62, 56
3, 116640, Note_on_c, 1, 58, 52
3, 116878, Note_off_c, 1, 62, 56
3, 116878, Note_off_c, 1, 58, 52
3, 116880, Note_on_c, 1, 62, 50
3, 116880, Note_on_c, 1, 57, 41
3, 116880, Note_on_c, 1, 60, 45
3, 117120, Note_off_c, 1, 62, 50
3, 117120, Note_off_c, 1, 57, 41
3, 117120, Note_off_c, 1, 60, 45
3, 117120, Note_on_c, 1, 60, 53
3, 117120, Note_on_c, 1, 55, 48
3, 117120, Note_on_c, 1, 62, 43
3, 117598, Note_off_c, 1, 60, 53
3, 117600, Note_on_c, 1, 58, 23
3, 117838, Note_off_c, 1, 55, 48
3, 117838, Note_off_c, 1, 62, 43
3, 117838, Note_off_c, 1, 58, 23
3, 117840, Note_on_c, 1, 61, 46
3, 117840, Note_on_c, 1, 58, 38
3, 118078, Note_off_c, 1, 61, 46
3, 118078, Note_off_c, 1, 58, 38
3, 118080, Note_on_c, 1, 60, 42
3, 118080, Note_on_c, 1, 57, 28
3, 118318, Note_off_c, 1, 60, 42
3, 118318, Note_off_c, 1, 57, 28
3, 118320, Note_on_c, 1, 55, 43
3, 118320, Note_on_c, 1, 60, 46
3, 118320, Note_on_c, 1, 58, 31
3, 118558, Note_off_c, 1, 55, 43
3, 118558, Note_off_c, 1, 60, 46
3, 118558, Note_off_c, 1, 58, 31
3, 118560, Note_on_c, 1, 60, 58
3, 118560, Note_on_c, 1, 57, 51
3, 118560, Note_on_c, 1, 53, 51
3, 118798, Note_off_c, 1, 60, 58
3, 118798, Note_off_c, 1, 57, 51
3, 118798, Note_off_c, 1, 53, 51
3, 118800, Note_on_c, 1, 50, 47
3, 119038, Note_off_c, 1, 50, 47
3, 119040, Note_on_c, 1, 45, 58
3, 119518, Note_off_c, 1, 45, 58
3, 119520, Note_on_c, 1, 46, 43
3, 119758, Note_off_c, 1, 46, 43
3, 119760, Note_on_c, 1, 43, 42
3, 119998, Note_off_c, 1, 43, 42
3, 120000, Note_on_c, 1, 48, 48
3, 120958, Note_off_c, 1, 48, 48
3, 121440, Note_on_c, 1, 36, 64
3, 121440, Note_on_c, 1, 48, 60
3, 121798, Note_off_c, 1, 36, 64
3, 121798, Note_off_c, 1, 48, 60
3, 121800, Note_on_c, 1, 50, 56
3, 121800, Note_on_c, 1, 38, 28
3, 121918, Note_off_c, 1, 50, 56
3, 121918, Note_off_c, 1, 38, 28
3, 121920, Note_on_c, 1, 52, 52
3, 121920, Note_on_c, 1, 40, 33
3, 122158, Note_off_c, 1, 52, 52
3, 122158, Note_off_c, 1, 40, 33
3, 122160, Note_on_c, 1, 53, 61
3, 122160, Note_on_c, 1, 41, 45
3, 122398, Note_off_c, 1, 53, 61
3, 122398, Note_off_c, 1, 41, 45
3, 122400, Note_on_c, 1, 55, 57
3, 122400, Note_on_c, 1, 43, 53
3, 122638, Note_off_c, 1, 55, 57
3, 122638, Note_off_c, 1, 43, 53
3, 122640, Note_on_c, 1, 57, 62
3, 122640, Note_on_c, 1, 45, 51
3, 122878, Note_off_c, 1, 57, 62
3, 122878, Note_off_c, 1, 45, 51
3, 122880, Note_on_c, 1, 58, 50
3, 122880, Note_on_c, 1, 46, 56
3, 123838, Note_off_c, 1, 58, 50
3, 123838, Note_off_c, 1, 46, 56
3, 124320, Note_on_c, 1, 65, 46
3, 124320, Note_on_c, 1, 60, 24
3, 124320, Note_on_c, 1, 57, 27
3, 124798, Note_off_c, 1, 65, 46
3, 124798, Note_off_c, 1, 60, 24
3, 124798, Note_off_c, 1, 57, 27
3, 124800, Note_on_c, 1, 65, 50
3, 124800, Note_on_c, 1, 57, 32
3, 124800, Note_on_c, 1, 60, 26
3, 125278, Note_off_c, 1, 65, 50
3, 125278, Note_off_c, 1, 57, 32
3, 125278, Note_off_c, 1, 60, 26
3, 125280, Note_on_c, 1, 57, 34
3, 125280, Note_on_c, 1, 65, 45
3, 125280, Note_on_c, 1, 63, 27
3, 125758, Note_off_c, 1, 57, 34
3, 125758, Note_off_c, 1, 65, 45
3, 125758, Note_off_c, 1, 63, 27
3, 125760, Note_on_c, 1, 62, 37
3, 125760, Note_on_c, 1, 58, 25
3, 125760, Note_on_c, 1, 65, 14
3, 126718, Note_off_c, 1, 62, 37
3, 126718, Note_off_c, 1, 58, 25
3, 126718, Note_off_c, 1, 65, 14
3, 127200, Note_on_c, 1, 53, 36
3, 127200, Note_on_c, 1, 58, 27
3, 127200, Note_on_c, 1, 62, 38
3, 127678, Note_off_c, 1, 58, 27
3, 127678, Note_off_c, 1, 62, 38
3, 127680, Note_on_c, 1, 60, 27
3, 127680, Note_on_c, 1, 57, 14
3, 128158, Note_off_c, 1, 53, 36
3, 128158, Note_off_c, 1, 60, 27
3, 128158, Note_off_c, 1, 57, 14
3, 128640, Note_on_c, 1, 55, 27
3, 128640, Note_on_c, 1, 52, 26
3, 128640, Note_on_c, 1, 60, 46
3, 129358, Note_off_c, 1, 55, 27
3, 129358, Note_off_c, 1, 52, 26
3, 129358, Note_off_c, 1, 60, 46
3, 129360, Note_on_c, 1, 58, 63
3, 129360, Note_on_c, 1, 46, 52
3, 129598, Note_off_c, 1, 58, 63
3, 129598, Note_off_c, 1, 46, 52
3, 129600, Note_on_c, 1, 45, 56
3, 129600, Note_on_c, 1, 57, 51
3, 129838, Note_off_c, 1, 45, 56
3, 129838, Note_off_c, 1, 57, 51
3, 129840, Note_on_c, 1, 55, 47
3, 129840, Note_on_c, 1, 43, 40
3, 130078, Note_off_c, 1, 55, 47
3, 130078, Note_off_c, 1, 43, 40
3, 130080, Note_on_c, 1, 41, 38
3, 130080, Note_on_c, 1, 53, 26
3, 130318, Note_off_c, 1, 41, 38
3, 130318, Note_off_c, 1, 53, 26
3, 130560, Note_on_c, 1, 57, 35
3, 130560, Note_on_c, 1, 48, 53
3, 131038, Note_off_c, 1, 57, 35
3, 131040, Note_on_c, 1, 58, 20
3, 131518, Note_off_c, 1, 48, 53
3, 131518, Note_off_c, 1, 58, 20
3, 131520, Note_on_c, 1, 53, 40
3, 131520, Note_on_c, 1, 57, 28
3, 131998, Note_off_c, 1, 53, 40
3, 131998, Note_off_c, 1, 57, 28
3, 132000, Note_on_c, 1, 41, 24
3, 132238, Note_off_c, 1, 41, 24
3, 132960, Note_on_c, 1, 41, 38
3, 133080, Note_on_c, 1, 53, 57
3, 133198, Note_off_c, 1, 53, 57
3, 133200, Note_on_c, 1, 53, 26
3, 133318, Note_off_c, 1, 53, 26
3, 133320, Note_on_c, 1, 53, 27
3, 133438, Note_off_c, 1, 53, 27
3, 133440, Note_on_c, 1, 53, 35
3, 133558, Note_off_c, 1, 53, 35
3, 133560, Note_on_c, 1, 53, 30
3, 133678, Note_off_c, 1, 53, 30
3, 133680, Note_on_c, 1, 53, 25
3, 133798, Note_off_c, 1, 53, 25
3, 133800, Note_on_c, 1, 53, 22
3, 133918, Note_off_c, 1, 53, 22
3, 133920, Note_on_c, 1, 53, 22
3, 134038, Note_off_c, 1, 53, 22
3, 134040, Note_on_c, 1, 53, 25
3, 134158, Note_off_c, 1, 41, 38
3, 134158, Note_off_c, 1, 53, 25
3, 134160, Note_on_c, 1, 53, 22
3, 134278, Note_off_c, 1, 53, 22
3, 134280, Note_on_c, 1, 53, 27
3, 134398, Note_off_c, 1, 53, 27
3, 134400, Note_on_c, 1, 41, 48
3, 134520, Note_on_c, 1, 53, 45
3, 134638, Note_off_c, 1, 53, 45
3, 134640, Note_on_c, 1, 53, 26
3, 134758, Note_off_c, 1, 53, 26
3, 134760, Note_on_c, 1, 53, 25
3, 134878, Note_off_c, 1, 41, 48
3, 134878, Note_off_c, 1, 53, 25
3, 134880, Note_on_c, 1, 38, 42
3, 135000, Note_on_c, 1, 50, 47
3, 135118, Note_off_c, 1, 50, 47
3, 135120, Note_on_c, 1, 50, 23
3, 135238, Note_off_c, 1, 50, 23
3, 135240, Note_on_c, 1, 50, 25
3, 135358, Note_off_c, 1, 38, 42
3, 135358, Note_off_c, 1, 50, 25
3, 135360, Note_on_c, 1, 35, 60
3, 135480, Note_on_c, 1, 47, 32
3, 135598, Note_off_c, 1, 47, 32
3, 135600, Note_on_c, 1, 47, 30
3, 135718, Note_off_c, 1, 47, 30
3, 135720, Note_on_c, 1, 47, 24
3, 135838, Note_off_c, 1, 35, 60
3, 135838, Note_off_c, 1, 47, 24
3, 135840, Note_on_c, 1, 36, 58
3, 135960, Note_on_c, 1, 48, 67
3, 136078, Note_off_c, 1, 48, 67
3, 136080, Note_on_c, 1, 48, 62
3, 136198, Note_off_c, 1, 48, 62
3, 136200, Note_on_c, 1, 48, 38
3, 136318, Note_off_c, 1, 48, 38
3, 136320, Note_on_c, 1, 48, 36
3, 136438, Note_off_c, 1, 48, 36
3, 136440, Note_on_c, 1, 48, 25
3, 136558, Note_off_c, 1, 48, 25
3, 136560, Note_on_c, 1, 48, 33
3, 136678, Note_off_c, 1, 48, 33
3, 136680, Note_on_c, 1, 48, 22
3, 136798, Note_off_c, 1, 36, 58
3, 136798, Note_off_c, 1, 48, 22
3, 136800, Note_on_c, 1, 48, 43
3, 136918, Note_off_c, 1, 48, 43
3, 136920, Note_on_c, 1, 48, 35
3, 137038, Note_off_c, 1, 48, 35
3, 137040, Note_on_c, 1, 48, 33
3, 137158, Note_off_c, 1, 48, 33
3, 137160, Note_on_c, 1, 48, 27
3, 137278, Note_off_c, 1, 48, 27
3, 137280, Note_on_c, 1, 41, 33
3, 137758, Note_off_c, 1, 41, 33
3, 138720, End_track
0, 0, End_of_file
