0, 0, Header, 1, 7, 120
1, 0, Start_track
1, 0, Time_signature, 4, 2, 24, 8
1, 0, Key_signature, -2, "major"
1, 0, Tempo, 545455
1, 0, End_track
2, 0, Start_track
2, 0, MIDI_port, 0
2, 0, Program_c, 0, 0
2, 0, Control_c, 0, 7, 127
2, 0, Control_c, 0, 10, 88
2, 0, Control_c, 0, 121, 0
2, 0, Control_c, 0, 91, 75
2, 421, Note_on_c, 0, 70, 93
2, 481, Note_on_c, 0, 70, 0
2, 481, Note_on_c, 0, 74, 93
2, 543, Note_on_c, 0, 74, 0
2, 601, Note_on_c, 0, 75, 72
2, 659, Note_on_c, 0, 75, 0
2, 719, Note_on_c, 0, 76, 89
2, 839, Note_on_c, 0, 76, 0
2, 839, Note_on_c, 0, 77, 89
2, 900, Note_on_c, 0, 74, 85
2, 904, Note_on_c, 0, 77, 0
2, 916, Note_on_c, 0, 74, 0
2, 945, Note_on_c, 0, 74, 64
2, 958, Note_on_c, 0, 74, 0
2, 961, Note_on_c, 0, 72, 76
2, 988, Note_on_c, 0, 72, 0
2, 1021, Note_on_c, 0, 71, 80
2, 1048, Note_on_c, 0, 71, 0
2, 1081, Note_on_c, 0, 72, 85
2, 1107, Note_on_c, 0, 72, 0
2, 1140, Note_on_c, 0, 74, 76
2, 1166, Note_on_c, 0, 74, 0
2, 1200, Note_on_c, 0, 77, 93
2, 1318, Note_on_c, 0, 77, 0
2, 1319, Note_on_c, 0, 75, 72
2, 1377, Note_on_c, 0, 75, 0
2, 1379, Note_on_c, 0, 69, 85
2, 1407, Note_on_c, 0, 69, 0
2, 1439, Note_on_c, 0, 70, 85
2, 1467, Note_on_c, 0, 70, 0
2, 1499, Note_on_c, 0, 70, 89
2, 1620, Note_on_c, 0, 70, 0
2, 1621, Note_on_c, 0, 71, 89
2, 1678, Note_on_c, 0, 71, 0
2, 1679, Note_on_c, 0, 72, 89
2, 1706, Note_on_c, 0, 72, 0
2, 1739, Note_on_c, 0, 72, 93
2, 1858, Note_on_c, 0, 72, 0
2, 1859, Note_on_c, 0, 73, 80
2, 1920, Note_on_c, 0, 73, 0
2, 1921, Note_on_c, 0, 74, 89
2, 1979, Note_on_c, 0, 74, 0
2, 1981, Note_on_c, 0, 72, 85
2, 2040, Note_on_c, 0, 72, 0
2, 2041, Note_on_c, 0, 74, 80
2, 2099, Note_on_c, 0, 74, 0
2, 2099, Note_on_c, 0, 75, 64
2, 2099, Note_on_c, 0, 72, 72
2, 2154, Note_on_c, 0, 75, 0
2, 2156, Note_on_c, 0, 72, 0
2, 2160, Note_on_c, 0, 70, 76
2, 2160, Note_on_c, 0, 74, 76
2, 2204, Control_c, 0, 64, 127
2, 2275, Control_c, 0, 64, 0
2, 2278, Note_on_c, 0, 74, 0
2, 2278, Note_on_c, 0, 70, 0
2, 2281, Note_on_c, 0, 69, 68
2, 2281, Note_on_c, 0, 72, 64
2, 2295, Control_c, 0, 64, 127
2, 2326, Control_c, 0, 64, 0
2, 2337, Note_on_c, 0, 69, 0
2, 2338, Note_on_c, 0, 72, 0
2, 2341, Note_on_c, 0, 70, 72
2, 2369, Note_on_c, 0, 70, 0
2, 2370, Note_on_c, 0, 72, 72
2, 2399, Note_on_c, 0, 72, 0
2, 2401, Note_on_c, 0, 74, 76
2, 2458, Note_on_c, 0, 74, 0
2, 2518, Note_on_c, 0, 75, 68
2, 2579, Note_on_c, 0, 75, 0
2, 2641, Note_on_c, 0, 76, 72
2, 2760, Note_on_c, 0, 76, 0
2, 2760, Note_on_c, 0, 77, 64
2, 2820, Note_on_c, 0, 74, 64
2, 2822, Note_on_c, 0, 77, 0
2, 2854, Note_on_c, 0, 74, 0
2, 2865, Note_on_c, 0, 74, 72
2, 2879, Note_on_c, 0, 74, 0
2, 2881, Note_on_c, 0, 72, 64
2, 2907, Note_on_c, 0, 72, 0
2, 2940, Note_on_c, 0, 71, 68
2, 2966, Note_on_c, 0, 71, 0
2, 3000, Note_on_c, 0, 72, 76
2, 3026, Note_on_c, 0, 72, 0
2, 3059, Note_on_c, 0, 74, 72
2, 3087, Note_on_c, 0, 74, 0
2, 3119, Note_on_c, 0, 77, 72
2, 3238, Note_on_c, 0, 77, 0
2, 3239, Note_on_c, 0, 75, 72
2, 3297, Note_on_c, 0, 75, 0
2, 3299, Note_on_c, 0, 69, 80
2, 3326, Note_on_c, 0, 69, 0
2, 3359, Note_on_c, 0, 70, 72
2, 3409, Control_c, 0, 64, 127
2, 3421, Note_on_c, 0, 82, 89
2, 3423, Note_on_c, 0, 70, 0
2, 3432, Control_c, 0, 64, 0
2, 3477, Note_on_c, 0, 82, 0
2, 3481, Note_on_c, 0, 82, 76
2, 3507, Note_on_c, 0, 82, 0
2, 3541, Note_on_c, 0, 82, 85
2, 3567, Note_on_c, 0, 82, 0
2, 3601, Note_on_c, 0, 72, 76
2, 3661, Note_on_c, 0, 72, 0
2, 3661, Note_on_c, 0, 79, 72
2, 3717, Note_on_c, 0, 79, 0
2, 3721, Note_on_c, 0, 79, 93
2, 3747, Note_on_c, 0, 79, 0
2, 3781, Note_on_c, 0, 79, 93
2, 3807, Note_on_c, 0, 79, 0
2, 3840, Note_on_c, 0, 70, 85
2, 3876, Note_on_c, 0, 70, 0
2, 3899, Note_on_c, 0, 70, 80
2, 3954, Note_on_c, 0, 74, 89
2, 3960, Note_on_c, 0, 70, 0
2, 3976, Note_on_c, 0, 72, 64
2, 3982, Note_on_c, 0, 74, 0
2, 3991, Note_on_c, 0, 70, 64
2, 4002, Note_on_c, 0, 72, 0
2, 4018, Note_on_c, 0, 70, 0
2, 4018, Note_on_c, 0, 72, 76
2, 4049, Note_on_c, 0, 74, 68
2, 4051, Note_on_c, 0, 72, 0
2, 4079, Note_on_c, 0, 74, 0
2, 4079, Note_on_c, 0, 70, 80
2, 4176, Note_on_c, 0, 70, 0
2, 4259, Note_on_c, 0, 70, 60
2, 4289, Note_on_c, 0, 74, 76
2, 4291, Note_on_c, 0, 70, 0
2, 4319, Note_on_c, 0, 77, 72
2, 4320, Note_on_c, 0, 74, 0
2, 4378, Note_on_c, 0, 77, 0
2, 4439, Note_on_c, 0, 76, 89
2, 4499, Note_on_c, 0, 76, 0
2, 4560, Note_on_c, 0, 84, 93
2, 4586, Note_on_c, 0, 84, 0
2, 4620, Note_on_c, 0, 75, 85
2, 4738, Note_on_c, 0, 75, 0
2, 4740, Note_on_c, 0, 74, 80
2, 4861, Note_on_c, 0, 71, 80
2, 4862, Note_on_c, 0, 74, 0
2, 4918, Note_on_c, 0, 71, 0
2, 4920, Note_on_c, 0, 72, 76
2, 4978, Note_on_c, 0, 72, 0
2, 4979, Note_on_c, 0, 79, 85
2, 5039, Note_on_c, 0, 70, 76
2, 5040, Note_on_c, 0, 79, 0
2, 5131, Note_on_c, 0, 72, 59
2, 5132, Note_on_c, 0, 70, 0
2, 5145, Note_on_c, 0, 70, 76
2, 5146, Note_on_c, 0, 72, 0
2, 5162, Note_on_c, 0, 69, 85
2, 5172, Note_on_c, 0, 70, 0
2, 5194, Note_on_c, 0, 69, 0
2, 5222, Note_on_c, 0, 69, 60
2, 5252, Note_on_c, 0, 69, 0
2, 5252, Note_on_c, 0, 72, 72
2, 5280, Note_on_c, 0, 72, 0
2, 5281, Note_on_c, 0, 77, 85
2, 5308, Note_on_c, 0, 77, 0
2, 5399, Note_on_c, 0, 76, 93
2, 5428, Note_on_c, 0, 76, 0
2, 5519, Note_on_c, 0, 84, 93
2, 5547, Note_on_c, 0, 84, 0
2, 5580, Note_on_c, 0, 75, 93
2, 5698, Note_on_c, 0, 75, 0
2, 5699, Note_on_c, 0, 74, 93
2, 5762, Note_on_c, 0, 74, 0
2, 5819, Note_on_c, 0, 82, 85
2, 5879, Note_on_c, 0, 82, 0
2, 5879, Note_on_c, 0, 79, 89
2, 5938, Note_on_c, 0, 79, 0
2, 5938, Note_on_c, 0, 76, 80
2, 5999, Note_on_c, 0, 77, 76
2, 6000, Note_on_c, 0, 76, 0
2, 6057, Note_on_c, 0, 77, 0
2, 6058, Note_on_c, 0, 81, 72
2, 6117, Note_on_c, 0, 81, 0
2, 6117, Note_on_c, 0, 84, 93
2, 6149, Note_on_c, 0, 84, 0
2, 6178, Note_on_c, 0, 84, 89
2, 6207, Note_on_c, 0, 84, 0
2, 6301, Note_on_c, 0, 84, 85
2, 6331, Note_on_c, 0, 82, 68
2, 6333, Note_on_c, 0, 84, 0
2, 6361, Note_on_c, 0, 81, 76
2, 6363, Note_on_c, 0, 82, 0
2, 6391, Note_on_c, 0, 81, 0
2, 6391, Note_on_c, 0, 79, 59
2, 6421, Note_on_c, 0, 79, 0
2, 6421, Note_on_c, 0, 77, 64
2, 6451, Note_on_c, 0, 77, 0
2, 6451, Note_on_c, 0, 76, 64
2, 6480, Note_on_c, 0, 76, 0
2, 6481, Note_on_c, 0, 77, 76
2, 6511, Note_on_c, 0, 72, 56
2, 6513, Note_on_c, 0, 77, 0
2, 6541, Note_on_c, 0, 72, 0
2, 6541, Note_on_c, 0, 77, 76
2, 6569, Note_on_c, 0, 77, 0
2, 6569, Note_on_c, 0, 81, 76
2, 6599, Note_on_c, 0, 81, 0
2, 6599, Note_on_c, 0, 84, 89
2, 6634, Note_on_c, 0, 84, 0
2, 6660, Note_on_c, 0, 84, 89
2, 6693, Note_on_c, 0, 84, 0
2, 6751, Note_on_c, 0, 81, 93
2, 6781, Note_on_c, 0, 84, 80
2, 6783, Note_on_c, 0, 81, 0
2, 6810, Note_on_c, 0, 82, 60
2, 6813, Note_on_c, 0, 84, 0
2, 6841, Note_on_c, 0, 81, 76
2, 6843, Note_on_c, 0, 82, 0
2, 6871, Note_on_c, 0, 81, 0
2, 6871, Note_on_c, 0, 79, 57
2, 6899, Note_on_c, 0, 79, 0
2, 6901, Note_on_c, 0, 77, 59
2, 6930, Note_on_c, 0, 77, 0
2, 6931, Note_on_c, 0, 76, 62
2, 6961, Note_on_c, 0, 76, 0
2, 6961, Note_on_c, 0, 77, 72
2, 6990, Note_on_c, 0, 78, 53
2, 6991, Note_on_c, 0, 77, 0
2, 7021, Note_on_c, 0, 78, 0
2, 7021, Note_on_c, 0, 81, 85
2, 7049, Note_on_c, 0, 79, 80
2, 7051, Note_on_c, 0, 81, 0
2, 7081, Note_on_c, 0, 77, 72
2, 7082, Note_on_c, 0, 79, 0
2, 7109, Note_on_c, 0, 75, 64
2, 7111, Note_on_c, 0, 77, 0
2, 7139, Note_on_c, 0, 75, 0
2, 7139, Note_on_c, 0, 74, 64
2, 7169, Note_on_c, 0, 74, 0
2, 7169, Note_on_c, 0, 73, 47
2, 7199, Note_on_c, 0, 74, 80
2, 7201, Note_on_c, 0, 73, 0
2, 7258, Note_on_c, 0, 74, 0
2, 7319, Note_on_c, 0, 75, 80
2, 7356, Note_on_c, 0, 75, 0
2, 7439, Note_on_c, 0, 76, 76
2, 7558, Note_on_c, 0, 77, 76
2, 7560, Note_on_c, 0, 76, 0
2, 7620, Note_on_c, 0, 74, 76
2, 7621, Note_on_c, 0, 77, 0
2, 7656, Note_on_c, 0, 74, 0
2, 7665, Note_on_c, 0, 74, 76
2, 7677, Note_on_c, 0, 74, 0
2, 7681, Note_on_c, 0, 72, 76
2, 7708, Note_on_c, 0, 72, 0
2, 7740, Note_on_c, 0, 71, 72
2, 7766, Note_on_c, 0, 71, 0
2, 7800, Note_on_c, 0, 72, 76
2, 7826, Note_on_c, 0, 72, 0
2, 7859, Note_on_c, 0, 74, 76
2, 7886, Note_on_c, 0, 74, 0
2, 7919, Note_on_c, 0, 77, 85
2, 8039, Note_on_c, 0, 75, 64
2, 8040, Note_on_c, 0, 77, 0
2, 8098, Note_on_c, 0, 75, 0
2, 8098, Note_on_c, 0, 69, 80
2, 8129, Note_on_c, 0, 69, 0
2, 8158, Note_on_c, 0, 70, 80
2, 8186, Note_on_c, 0, 70, 0
2, 8218, Note_on_c, 0, 70, 98
2, 8339, Note_on_c, 0, 70, 0
2, 8339, Note_on_c, 0, 71, 76
2, 8398, Note_on_c, 0, 71, 0
2, 8398, Note_on_c, 0, 72, 89
2, 8426, Note_on_c, 0, 72, 0
2, 8459, Note_on_c, 0, 72, 93
2, 8577, Note_on_c, 0, 72, 0
2, 8579, Note_on_c, 0, 73, 85
2, 8639, Note_on_c, 0, 74, 89
2, 8640, Note_on_c, 0, 73, 0
2, 8698, Note_on_c, 0, 74, 0
2, 8699, Note_on_c, 0, 72, 72
2, 8759, Note_on_c, 0, 72, 0
2, 8759, Note_on_c, 0, 74, 80
2, 8819, Note_on_c, 0, 75, 72
2, 8820, Note_on_c, 0, 74, 0
2, 8820, Note_on_c, 0, 72, 76
2, 8856, Note_on_c, 0, 75, 0
2, 8859, Control_c, 0, 64, 127
2, 8876, Note_on_c, 0, 72, 0
2, 8881, Note_on_c, 0, 74, 76
2, 8881, Note_on_c, 0, 70, 72
2, 8884, Control_c, 0, 64, 0
2, 8927, Control_c, 0, 64, 127
2, 8986, Control_c, 0, 64, 0
2, 8997, Note_on_c, 0, 70, 0
2, 8997, Note_on_c, 0, 74, 0
2, 9000, Note_on_c, 0, 69, 76
2, 9000, Note_on_c, 0, 72, 68
2, 9057, Note_on_c, 0, 69, 0
2, 9059, Note_on_c, 0, 72, 0
2, 9061, Note_on_c, 0, 70, 59
2, 9089, Note_on_c, 0, 70, 0
2, 9091, Note_on_c, 0, 72, 64
2, 9119, Note_on_c, 0, 72, 0
2, 9120, Note_on_c, 0, 74, 64
2, 9180, Note_on_c, 0, 74, 0
2, 9239, Note_on_c, 0, 75, 59
2, 9298, Note_on_c, 0, 75, 0
2, 9359, Note_on_c, 0, 76, 72
2, 9479, Note_on_c, 0, 77, 64
2, 9480, Note_on_c, 0, 76, 0
2, 9540, Note_on_c, 0, 77, 0
2, 9540, Note_on_c, 0, 74, 72
2, 9567, Note_on_c, 0, 74, 0
2, 9597, Note_on_c, 0, 74, 62
2, 9600, Note_on_c, 0, 72, 72
2, 9626, Note_on_c, 0, 72, 0
2, 9626, Note_on_c, 0, 74, 0
2, 9661, Note_on_c, 0, 71, 68
2, 9687, Note_on_c, 0, 71, 0
2, 9721, Note_on_c, 0, 72, 72
2, 9747, Note_on_c, 0, 72, 0
2, 9781, Note_on_c, 0, 74, 76
2, 9807, Note_on_c, 0, 74, 0
2, 9839, Note_on_c, 0, 77, 72
2, 9958, Note_on_c, 0, 77, 0
2, 9959, Note_on_c, 0, 75, 59
2, 10018, Note_on_c, 0, 75, 0
2, 10019, Note_on_c, 0, 69, 68
2, 10047, Note_on_c, 0, 69, 0
2, 10079, Note_on_c, 0, 70, 60
2, 10092, Control_c, 0, 64, 127
2, 10139, Note_on_c, 0, 82, 72
2, 10140, Note_on_c, 0, 70, 0
2, 10171, Note_on_c, 0, 82, 0
2, 10197, Control_c, 0, 64, 0
2, 10199, Note_on_c, 0, 82, 80
2, 10227, Note_on_c, 0, 82, 0
2, 10259, Note_on_c, 0, 82, 72
2, 10286, Note_on_c, 0, 82, 0
2, 10318, Control_c, 0, 64, 127
2, 10319, Note_on_c, 0, 72, 72
2, 10378, Note_on_c, 0, 72, 0
2, 10378, Note_on_c, 0, 79, 76
2, 10411, Note_on_c, 0, 79, 0
2, 10434, Control_c, 0, 64, 0
2, 10438, Note_on_c, 0, 79, 85
2, 10466, Note_on_c, 0, 79, 0
2, 10498, Note_on_c, 0, 79, 80
2, 10526, Note_on_c, 0, 79, 0
2, 10559, Note_on_c, 0, 70, 72
2, 10561, Note_on_c, 0, 70, 80
2, 10568, Control_c, 0, 64, 127
2, 10589, Note_on_c, 0, 70, 0
2, 10594, Note_on_c, 0, 70, 0
2, 10619, Note_on_c, 0, 70, 57
2, 10635, Control_c, 0, 64, 0
2, 10674, Note_on_c, 0, 74, 76
2, 10679, Note_on_c, 0, 70, 0
2, 10694, Note_on_c, 0, 72, 68
2, 10699, Note_on_c, 0, 74, 0
2, 10709, Note_on_c, 0, 70, 56
2, 10713, Note_on_c, 0, 72, 0
2, 10732, Note_on_c, 0, 70, 0
2, 10738, Note_on_c, 0, 72, 76
2, 10768, Note_on_c, 0, 74, 64
2, 10771, Note_on_c, 0, 72, 0
2, 10799, Note_on_c, 0, 70, 72
2, 10801, Note_on_c, 0, 74, 0
2, 10915, Note_on_c, 0, 70, 0
2, 10982, Note_on_c, 0, 65, 72
2, 11037, Note_on_c, 0, 65, 0
2, 11042, Note_on_c, 0, 65, 64
2, 11042, Note_on_c, 0, 74, 76
2, 11054, Control_c, 0, 64, 127
2, 11060, Control_c, 0, 64, 0
2, 11067, Note_on_c, 0, 74, 0
2, 11067, Note_on_c, 0, 65, 0
2, 11102, Note_on_c, 0, 65, 72
2, 11102, Note_on_c, 0, 74, 85
2, 11161, Control_c, 0, 64, 127
2, 11187, Note_on_c, 0, 65, 0
2, 11192, Note_on_c, 0, 74, 0
2, 11222, Control_c, 0, 64, 0
2, 11223, Note_on_c, 0, 62, 62
2, 11223, Note_on_c, 0, 70, 68
2, 11238, Control_c, 0, 64, 127
2, 11251, Note_on_c, 0, 62, 0
2, 11253, Note_on_c, 0, 70, 0
2, 11282, Note_on_c, 0, 75, 80
2, 11282, Note_on_c, 0, 67, 76
2, 11284, Control_c, 0, 64, 0
2, 11306, Note_on_c, 0, 67, 0
2, 11307, Note_on_c, 0, 75, 0
2, 11342, Note_on_c, 0, 75, 64
2, 11342, Note_on_c, 0, 67, 76
2, 11403, Control_c, 0, 64, 127
2, 11423, Note_on_c, 0, 75, 0
2, 11425, Note_on_c, 0, 67, 0
2, 11461, Note_on_c, 0, 63, 60
2, 11461, Note_on_c, 0, 72, 72
2, 11463, Control_c, 0, 64, 0
2, 11516, Note_on_c, 0, 63, 0
2, 11518, Note_on_c, 0, 72, 0
2, 11521, Note_on_c, 0, 67, 85
2, 11581, Note_on_c, 0, 67, 0
2, 11581, Note_on_c, 0, 70, 72
2, 11641, Note_on_c, 0, 69, 76
2, 11642, Note_on_c, 0, 70, 0
2, 11701, Note_on_c, 0, 72, 80
2, 11702, Note_on_c, 0, 69, 0
2, 11761, Note_on_c, 0, 70, 72
2, 11763, Note_on_c, 0, 72, 0
2, 11789, Note_on_c, 0, 70, 0
2, 11789, Note_on_c, 0, 69, 76
2, 11821, Note_on_c, 0, 70, 72
2, 11824, Note_on_c, 0, 69, 0
2, 11851, Note_on_c, 0, 70, 0
2, 11851, Note_on_c, 0, 72, 85
2, 11881, Note_on_c, 0, 70, 72
2, 11883, Note_on_c, 0, 72, 0
2, 11908, Note_on_c, 0, 70, 0
2, 11941, Note_on_c, 0, 70, 72
2, 11969, Note_on_c, 0, 70, 0
2, 12002, Note_on_c, 0, 77, 72
2, 12002, Note_on_c, 0, 74, 76
2, 12028, Note_on_c, 0, 74, 0
2, 12028, Note_on_c, 0, 77, 0
2, 12062, Note_on_c, 0, 74, 76
2, 12062, Note_on_c, 0, 77, 85
2, 12130, Control_c, 0, 64, 127
2, 12173, Note_on_c, 0, 74, 0
2, 12175, Note_on_c, 0, 77, 0
2, 12182, Note_on_c, 0, 74, 80
2, 12182, Note_on_c, 0, 70, 64
2, 12194, Control_c, 0, 64, 0
2, 12239, Note_on_c, 0, 70, 0
2, 12240, Note_on_c, 0, 74, 0
2, 12242, Note_on_c, 0, 79, 93
2, 12242, Note_on_c, 0, 75, 76
2, 12267, Note_on_c, 0, 75, 0
2, 12267, Note_on_c, 0, 79, 0
2, 12301, Note_on_c, 0, 79, 80
2, 12301, Note_on_c, 0, 75, 72
2, 12357, Control_c, 0, 64, 127
2, 12384, Note_on_c, 0, 75, 0
2, 12385, Note_on_c, 0, 79, 0
2, 12421, Note_on_c, 0, 75, 68
2, 12421, Note_on_c, 0, 72, 60
2, 12448, Note_on_c, 0, 72, 0
2, 12448, Note_on_c, 0, 75, 0
2, 12478, Control_c, 0, 64, 0
2, 12481, Note_on_c, 0, 70, 62
2, 12503, Control_c, 0, 64, 127
2, 12542, Note_on_c, 0, 74, 80
2, 12543, Note_on_c, 0, 70, 0
2, 12565, Control_c, 0, 64, 0
2, 12602, Note_on_c, 0, 74, 0
2, 12602, Note_on_c, 0, 72, 76
2, 12613, Control_c, 0, 64, 127
2, 12662, Note_on_c, 0, 72, 0
2, 12662, Note_on_c, 0, 75, 93
2, 12667, Control_c, 0, 64, 0
2, 12699, Control_c, 0, 64, 127
2, 12722, Note_on_c, 0, 74, 89
2, 12723, Note_on_c, 0, 75, 0
2, 12734, Control_c, 0, 64, 0
2, 12752, Note_on_c, 0, 72, 62
2, 12754, Note_on_c, 0, 74, 0
2, 12782, Note_on_c, 0, 74, 89
2, 12784, Note_on_c, 0, 72, 0
2, 12812, Note_on_c, 0, 75, 55
2, 12813, Note_on_c, 0, 74, 0
2, 12842, Note_on_c, 0, 74, 85
2, 12844, Note_on_c, 0, 75, 0
2, 12869, Note_on_c, 0, 74, 0
2, 12901, Note_on_c, 0, 74, 85
2, 12928, Note_on_c, 0, 74, 0
2, 12960, Note_on_c, 0, 86, 72
2, 12960, Control_c, 0, 64, 127
2, 12987, Note_on_c, 0, 86, 0
2, 13019, Note_on_c, 0, 86, 85
2, 13020, Control_c, 0, 64, 0
2, 13079, Note_on_c, 0, 82, 76
2, 13081, Note_on_c, 0, 86, 0
2, 13138, Note_on_c, 0, 82, 0
2, 13138, Note_on_c, 0, 79, 68
2, 13199, Note_on_c, 0, 78, 72
2, 13200, Note_on_c, 0, 79, 0
2, 13319, Note_on_c, 0, 79, 72
2, 13320, Note_on_c, 0, 78, 0
2, 13380, Note_on_c, 0, 86, 80
2, 13381, Note_on_c, 0, 79, 0
2, 13441, Note_on_c, 0, 83, 68
2, 13442, Note_on_c, 0, 86, 0
2, 13470, Note_on_c, 0, 84, 76
2, 13471, Note_on_c, 0, 83, 0
2, 13499, Note_on_c, 0, 86, 76
2, 13500, Note_on_c, 0, 84, 0
2, 13529, Note_on_c, 0, 86, 0
2, 13529, Note_on_c, 0, 84, 62
2, 13559, Note_on_c, 0, 82, 57
2, 13560, Note_on_c, 0, 84, 0
2, 13589, Note_on_c, 0, 82, 0
2, 13589, Note_on_c, 0, 81, 80
2, 13619, Note_on_c, 0, 81, 0
2, 13619, Note_on_c, 0, 79, 51
2, 13649, Note_on_c, 0, 77, 59
2, 13651, Note_on_c, 0, 79, 0
2, 13681, Note_on_c, 0, 76, 59
2, 13682, Note_on_c, 0, 77, 0
2, 13796, Note_on_c, 0, 76, 0
2, 13798, Note_on_c, 0, 77, 64
2, 13859, Note_on_c, 0, 84, 80
2, 13860, Note_on_c, 0, 77, 0
2, 13919, Note_on_c, 0, 89, 93
2, 13922, Note_on_c, 0, 84, 0
2, 13951, Note_on_c, 0, 88, 76
2, 13954, Note_on_c, 0, 89, 0
2, 13981, Note_on_c, 0, 86, 76
2, 13984, Note_on_c, 0, 88, 0
2, 14011, Note_on_c, 0, 84, 68
2, 14013, Note_on_c, 0, 86, 0
2, 14041, Note_on_c, 0, 84, 0
2, 14041, Note_on_c, 0, 82, 55
2, 14071, Note_on_c, 0, 81, 52
2, 14073, Note_on_c, 0, 82, 0
2, 14100, Note_on_c, 0, 81, 0
2, 14100, Note_on_c, 0, 79, 53
2, 14131, Note_on_c, 0, 77, 85
2, 14134, Note_on_c, 0, 79, 0
2, 14159, Note_on_c, 0, 77, 0
2, 14161, Note_on_c, 0, 86, 80
2, 14192, Note_on_c, 0, 84, 68
2, 14214, Note_on_c, 0, 86, 0
2, 14221, Note_on_c, 0, 82, 59
2, 14224, Note_on_c, 0, 84, 0
2, 14251, Note_on_c, 0, 81, 64
2, 14254, Note_on_c, 0, 82, 0
2, 14281, Note_on_c, 0, 81, 0
2, 14281, Note_on_c, 0, 79, 64
2, 14309, Note_on_c, 0, 79, 0
2, 14310, Note_on_c, 0, 77, 59
2, 14341, Note_on_c, 0, 76, 51
2, 14342, Note_on_c, 0, 77, 0
2, 14369, Note_on_c, 0, 74, 85
2, 14371, Note_on_c, 0, 76, 0
2, 14399, Note_on_c, 0, 74, 0
2, 14399, Note_on_c, 0, 72, 60
2, 14431, Note_on_c, 0, 77, 64
2, 14432, Note_on_c, 0, 72, 0
2, 14459, Note_on_c, 0, 77, 0
2, 14459, Note_on_c, 0, 81, 80
2, 14488, Note_on_c, 0, 81, 0
2, 14489, Note_on_c, 0, 84, 85
2, 14517, Note_on_c, 0, 84, 0
2, 14519, Note_on_c, 0, 84, 80
2, 14549, Note_on_c, 0, 82, 60
2, 14554, Note_on_c, 0, 84, 0
2, 14579, Note_on_c, 0, 82, 0
2, 14579, Note_on_c, 0, 81, 76
2, 14608, Note_on_c, 0, 81, 0
2, 14609, Note_on_c, 0, 79, 89
2, 14636, Note_on_c, 0, 79, 0
2, 14639, Note_on_c, 0, 79, 89
2, 14760, Note_on_c, 0, 79, 0
2, 14760, Note_on_c, 0, 77, 72
2, 14816, Note_on_c, 0, 77, 0
2, 14822, Note_on_c, 0, 65, 76
2, 14877, Note_on_c, 0, 65, 0
2, 14881, Note_on_c, 0, 74, 68
2, 14882, Note_on_c, 0, 65, 76
2, 14907, Note_on_c, 0, 65, 0
2, 14908, Note_on_c, 0, 74, 0
2, 14942, Note_on_c, 0, 74, 80
2, 14942, Note_on_c, 0, 65, 72
2, 15012, Control_c, 0, 64, 127
2, 15033, Note_on_c, 0, 65, 0
2, 15056, Note_on_c, 0, 74, 0
2, 15062, Note_on_c, 0, 62, 60
2, 15063, Note_on_c, 0, 70, 64
2, 15069, Control_c, 0, 64, 0
2, 15094, Note_on_c, 0, 62, 0
2, 15113, Note_on_c, 0, 70, 0
2, 15122, Note_on_c, 0, 67, 93
2, 15122, Note_on_c, 0, 75, 89
2, 15147, Note_on_c, 0, 75, 0
2, 15147, Note_on_c, 0, 67, 0
2, 15181, Note_on_c, 0, 75, 76
2, 15181, Note_on_c, 0, 67, 72
2, 15243, Control_c, 0, 64, 127
2, 15266, Note_on_c, 0, 67, 0
2, 15268, Note_on_c, 0, 75, 0
2, 15301, Note_on_c, 0, 72, 76
2, 15301, Note_on_c, 0, 63, 47
2, 15307, Control_c, 0, 64, 0
2, 15354, Note_on_c, 0, 63, 0
2, 15360, Note_on_c, 0, 72, 0
2, 15361, Note_on_c, 0, 67, 72
2, 15422, Note_on_c, 0, 70, 68
2, 15423, Note_on_c, 0, 67, 0
2, 15480, Note_on_c, 0, 70, 0
2, 15481, Note_on_c, 0, 69, 80
2, 15542, Note_on_c, 0, 72, 72
2, 15543, Note_on_c, 0, 69, 0
2, 15602, Note_on_c, 0, 70, 72
2, 15604, Note_on_c, 0, 72, 0
2, 15632, Note_on_c, 0, 70, 0
2, 15632, Note_on_c, 0, 69, 68
2, 15662, Note_on_c, 0, 70, 56
2, 15664, Note_on_c, 0, 69, 0
2, 15690, Note_on_c, 0, 70, 0
2, 15692, Note_on_c, 0, 72, 57
2, 15721, Note_on_c, 0, 70, 68
2, 15722, Note_on_c, 0, 72, 0
2, 15748, Note_on_c, 0, 70, 0
2, 15782, Note_on_c, 0, 70, 72
2, 15807, Note_on_c, 0, 70, 0
2, 15842, Note_on_c, 0, 77, 80
2, 15842, Note_on_c, 0, 74, 85
2, 15867, Note_on_c, 0, 74, 0
2, 15867, Note_on_c, 0, 77, 0
2, 15901, Note_on_c, 0, 77, 89
2, 15901, Note_on_c, 0, 74, 89
2, 15972, Control_c, 0, 64, 127
2, 16014, Note_on_c, 0, 74, 0
2, 16015, Note_on_c, 0, 77, 0
2, 16021, Note_on_c, 0, 74, 80
2, 16021, Note_on_c, 0, 70, 62
2, 16023, Control_c, 0, 64, 0
2, 16077, Note_on_c, 0, 70, 0
2, 16078, Note_on_c, 0, 74, 0
2, 16081, Note_on_c, 0, 79, 85
2, 16081, Note_on_c, 0, 75, 80
2, 16106, Note_on_c, 0, 75, 0
2, 16107, Note_on_c, 0, 79, 0
2, 16141, Note_on_c, 0, 79, 85
2, 16141, Note_on_c, 0, 75, 72
2, 16208, Control_c, 0, 64, 127
2, 16232, Note_on_c, 0, 75, 0
2, 16233, Note_on_c, 0, 79, 0
2, 16261, Note_on_c, 0, 75, 72
2, 16261, Note_on_c, 0, 72, 59
2, 16289, Note_on_c, 0, 72, 0
2, 16293, Note_on_c, 0, 75, 0
2, 16318, Control_c, 0, 64, 0
2, 16321, Note_on_c, 0, 70, 72
2, 16382, Note_on_c, 0, 74, 80
2, 16384, Note_on_c, 0, 70, 0
2, 16441, Note_on_c, 0, 74, 0
2, 16441, Note_on_c, 0, 72, 80
2, 16501, Note_on_c, 0, 75, 72
2, 16503, Note_on_c, 0, 72, 0
2, 16560, Note_on_c, 0, 75, 0
2, 16561, Note_on_c, 0, 74, 76
2, 16592, Note_on_c, 0, 72, 62
2, 16593, Note_on_c, 0, 74, 0
2, 16622, Note_on_c, 0, 74, 72
2, 16624, Note_on_c, 0, 72, 0
2, 16651, Note_on_c, 0, 74, 0
2, 16651, Note_on_c, 0, 75, 64
2, 16681, Note_on_c, 0, 75, 0
2, 16681, Note_on_c, 0, 74, 89
2, 16707, Note_on_c, 0, 74, 0
2, 16741, Note_on_c, 0, 74, 72
2, 16772, Note_on_c, 0, 74, 0
2, 16801, Note_on_c, 0, 86, 85
2, 16829, Note_on_c, 0, 86, 0
2, 16862, Note_on_c, 0, 86, 98
2, 16922, Note_on_c, 0, 82, 85
2, 16925, Note_on_c, 0, 86, 0
2, 16981, Note_on_c, 0, 82, 0
2, 16981, Note_on_c, 0, 79, 56
2, 17041, Note_on_c, 0, 79, 0
2, 17041, Note_on_c, 0, 78, 72
2, 17162, Note_on_c, 0, 79, 72
2, 17165, Note_on_c, 0, 78, 0
2, 17221, Note_on_c, 0, 86, 89
2, 17222, Note_on_c, 0, 79, 0
2, 17282, Note_on_c, 0, 83, 76
2, 17283, Note_on_c, 0, 86, 0
2, 17312, Note_on_c, 0, 84, 72
2, 17315, Note_on_c, 0, 83, 0
2, 17340, Note_on_c, 0, 84, 0
2, 17341, Note_on_c, 0, 86, 64
2, 17371, Note_on_c, 0, 84, 85
2, 17373, Note_on_c, 0, 86, 0
2, 17401, Note_on_c, 0, 82, 72
2, 17403, Note_on_c, 0, 84, 0
2, 17431, Note_on_c, 0, 81, 76
2, 17433, Note_on_c, 0, 82, 0
2, 17461, Note_on_c, 0, 81, 0
2, 17461, Note_on_c, 0, 79, 57
2, 17489, Note_on_c, 0, 77, 68
2, 17491, Note_on_c, 0, 79, 0
2, 17519, Note_on_c, 0, 77, 0
2, 17520, Note_on_c, 0, 76, 64
2, 17641, Note_on_c, 0, 77, 62
2, 17642, Note_on_c, 0, 76, 0
2, 17699, Note_on_c, 0, 77, 0
2, 17701, Note_on_c, 0, 84, 75
2, 17735, Note_on_c, 0, 84, 0
2, 17761, Note_on_c, 0, 89, 85
2, 17791, Note_on_c, 0, 88, 64
2, 17793, Note_on_c, 0, 89, 0
2, 17821, Note_on_c, 0, 86, 76
2, 17822, Note_on_c, 0, 88, 0
2, 17849, Note_on_c, 0, 86, 0
2, 17850, Note_on_c, 0, 84, 59
2, 17880, Note_on_c, 0, 82, 56
2, 17882, Note_on_c, 0, 84, 0
2, 17909, Note_on_c, 0, 81, 64
2, 17912, Note_on_c, 0, 82, 0
2, 17939, Note_on_c, 0, 81, 0
2, 17940, Note_on_c, 0, 79, 60
2, 17969, Note_on_c, 0, 77, 76
2, 17972, Note_on_c, 0, 79, 0
2, 17998, Note_on_c, 0, 77, 0
2, 17999, Note_on_c, 0, 86, 76
2, 18031, Note_on_c, 0, 84, 68
2, 18034, Note_on_c, 0, 86, 0
2, 18059, Note_on_c, 0, 82, 47
2, 18063, Note_on_c, 0, 84, 0
2, 18089, Note_on_c, 0, 81, 64
2, 18093, Note_on_c, 0, 82, 0
2, 18121, Note_on_c, 0, 79, 64
2, 18122, Note_on_c, 0, 81, 0
2, 18149, Note_on_c, 0, 79, 0
2, 18149, Note_on_c, 0, 77, 51
2, 18179, Note_on_c, 0, 77, 0
2, 18179, Note_on_c, 0, 76, 57
2, 18209, Note_on_c, 0, 74, 62
2, 18212, Note_on_c, 0, 76, 0
2, 18239, Note_on_c, 0, 74, 0
2, 18239, Note_on_c, 0, 72, 55
2, 18269, Note_on_c, 0, 77, 53
2, 18272, Note_on_c, 0, 72, 0
2, 18299, Note_on_c, 0, 81, 68
2, 18300, Note_on_c, 0, 77, 0
2, 18329, Note_on_c, 0, 81, 0
2, 18329, Note_on_c, 0, 84, 76
2, 18357, Note_on_c, 0, 84, 0
2, 18359, Note_on_c, 0, 84, 80
2, 18390, Note_on_c, 0, 82, 72
2, 18394, Note_on_c, 0, 84, 0
2, 18420, Note_on_c, 0, 81, 76
2, 18422, Note_on_c, 0, 82, 0
2, 18448, Note_on_c, 0, 81, 0
2, 18451, Note_on_c, 0, 79, 85
2, 18477, Note_on_c, 0, 79, 0
2, 18480, Note_on_c, 0, 79, 93
2, 18602, Note_on_c, 0, 77, 72
2, 18604, Note_on_c, 0, 79, 0
2, 18661, Note_on_c, 0, 77, 0
2, 18663, Note_on_c, 0, 65, 76
2, 18720, Note_on_c, 0, 77, 89
2, 18720, Note_on_c, 0, 74, 76
2, 18722, Note_on_c, 0, 65, 0
2, 18745, Note_on_c, 0, 74, 0
2, 18745, Note_on_c, 0, 77, 0
2, 18781, Note_on_c, 0, 77, 93
2, 18781, Note_on_c, 0, 74, 85
2, 18828, Control_c, 0, 64, 127
2, 18844, Note_on_c, 0, 77, 0
2, 18845, Note_on_c, 0, 74, 0
2, 18901, Control_c, 0, 64, 0
2, 18901, Note_on_c, 0, 80, 76
2, 18901, Note_on_c, 0, 77, 76
2, 18954, Note_on_c, 0, 77, 0
2, 18955, Note_on_c, 0, 80, 0
2, 18962, Note_on_c, 0, 71, 72
2, 18962, Note_on_c, 0, 74, 93
2, 18986, Note_on_c, 0, 71, 0
2, 18987, Note_on_c, 0, 74, 0
2, 19022, Note_on_c, 0, 71, 76
2, 19022, Note_on_c, 0, 74, 89
2, 19083, Control_c, 0, 64, 127
2, 19107, Note_on_c, 0, 71, 0
2, 19109, Note_on_c, 0, 74, 0
2, 19141, Note_on_c, 0, 74, 76
2, 19142, Note_on_c, 0, 77, 80
2, 19147, Control_c, 0, 64, 0
2, 19197, Note_on_c, 0, 77, 0
2, 19198, Note_on_c, 0, 74, 0
2, 19201, Note_on_c, 0, 75, 72
2, 19201, Note_on_c, 0, 72, 76
2, 19226, Note_on_c, 0, 72, 0
2, 19227, Note_on_c, 0, 75, 0
2, 19261, Note_on_c, 0, 75, 76
2, 19261, Note_on_c, 0, 72, 72
2, 19322, Control_c, 0, 64, 127
2, 19344, Note_on_c, 0, 72, 0
2, 19344, Note_on_c, 0, 75, 0
2, 19379, Control_c, 0, 64, 0
2, 19380, Note_on_c, 0, 75, 68
2, 19381, Note_on_c, 0, 79, 85
2, 19415, Note_on_c, 0, 79, 0
2, 19434, Note_on_c, 0, 75, 0
2, 19441, Note_on_c, 0, 69, 80
2, 19441, Note_on_c, 0, 72, 85
2, 19466, Note_on_c, 0, 72, 0
2, 19466, Note_on_c, 0, 69, 0
2, 19501, Note_on_c, 0, 69, 89
2, 19501, Note_on_c, 0, 72, 85
2, 19560, Control_c, 0, 64, 127
2, 19586, Note_on_c, 0, 69, 0
2, 19588, Note_on_c, 0, 72, 0
2, 19620, Note_on_c, 0, 72, 76
2, 19621, Note_on_c, 0, 75, 76
2, 19621, Control_c, 0, 64, 0
2, 19647, Note_on_c, 0, 72, 0
2, 19649, Note_on_c, 0, 75, 0
2, 19683, Note_on_c, 0, 75, 85
2, 19713, Note_on_c, 0, 73, 68
2, 19734, Note_on_c, 0, 75, 0
2, 19741, Note_on_c, 0, 73, 0
2, 19742, Note_on_c, 0, 72, 80
2, 19772, Note_on_c, 0, 72, 0
2, 19772, Note_on_c, 0, 70, 62
2, 19800, Note_on_c, 0, 70, 0
2, 19802, Note_on_c, 0, 69, 64
2, 19831, Note_on_c, 0, 70, 72
2, 19832, Note_on_c, 0, 69, 0
2, 19861, Note_on_c, 0, 70, 0
2, 19862, Note_on_c, 0, 72, 62
2, 19891, Note_on_c, 0, 72, 0
2, 19891, Note_on_c, 0, 70, 64
2, 19921, Note_on_c, 0, 70, 0
2, 19921, Note_on_c, 0, 75, 80
2, 19951, Note_on_c, 0, 73, 62
2, 19954, Note_on_c, 0, 75, 0
2, 19979, Note_on_c, 0, 73, 0
2, 19981, Note_on_c, 0, 72, 76
2, 20011, Note_on_c, 0, 72, 0
2, 20011, Note_on_c, 0, 70, 62
2, 20041, Note_on_c, 0, 70, 0
2, 20041, Note_on_c, 0, 69, 76
2, 20071, Note_on_c, 0, 70, 72
2, 20073, Note_on_c, 0, 69, 0
2, 20099, Note_on_c, 0, 70, 0
2, 20099, Note_on_c, 0, 72, 72
2, 20129, Note_on_c, 0, 70, 76
2, 20132, Note_on_c, 0, 72, 0
2, 20156, Note_on_c, 0, 70, 0
2, 20161, Note_on_c, 0, 82, 93
2, 20187, Note_on_c, 0, 82, 0
2, 20221, Note_on_c, 0, 82, 93
2, 20283, Control_c, 0, 64, 127
2, 20307, Note_on_c, 0, 82, 0
2, 20342, Note_on_c, 0, 70, 64
2, 20342, Note_on_c, 0, 76, 72
2, 20347, Control_c, 0, 64, 0
2, 20364, Control_c, 0, 64, 127
2, 20374, Note_on_c, 0, 76, 0
2, 20393, Note_on_c, 0, 70, 0
2, 20402, Note_on_c, 0, 70, 62
2, 20403, Note_on_c, 0, 79, 85
2, 20406, Control_c, 0, 64, 0
2, 20440, Control_c, 0, 64, 127
2, 20458, Note_on_c, 0, 79, 0
2, 20461, Note_on_c, 0, 70, 0
2, 20518, Control_c, 0, 64, 0
2, 20522, Note_on_c, 0, 69, 62
2, 20522, Note_on_c, 0, 77, 60
2, 20539, Control_c, 0, 64, 127
2, 20548, Note_on_c, 0, 77, 0
2, 20550, Note_on_c, 0, 69, 0
2, 20582, Note_on_c, 0, 65, 62
2, 20587, Control_c, 0, 64, 0
2, 20640, Note_on_c, 0, 65, 0
2, 20643, Note_on_c, 0, 65, 80
2, 20643, Note_on_c, 0, 74, 76
2, 20667, Note_on_c, 0, 74, 0
2, 20667, Note_on_c, 0, 65, 0
2, 20702, Note_on_c, 0, 65, 62
2, 20702, Note_on_c, 0, 74, 72
2, 20771, Control_c, 0, 64, 127
2, 20788, Note_on_c, 0, 74, 0
2, 20790, Note_on_c, 0, 65, 0
2, 20823, Note_on_c, 0, 62, 53
2, 20823, Note_on_c, 0, 70, 57
2, 20830, Control_c, 0, 64, 0
2, 20873, Note_on_c, 0, 62, 0
2, 20876, Note_on_c, 0, 70, 0
2, 20882, Note_on_c, 0, 75, 80
2, 20882, Note_on_c, 0, 67, 56
2, 20907, Note_on_c, 0, 67, 0
2, 20907, Note_on_c, 0, 75, 0
2, 20942, Note_on_c, 0, 67, 68
2, 20942, Note_on_c, 0, 75, 80
2, 21003, Control_c, 0, 64, 127
2, 21025, Note_on_c, 0, 67, 0
2, 21026, Note_on_c, 0, 75, 0
2, 21061, Note_on_c, 0, 63, 60
2, 21061, Note_on_c, 0, 72, 76
2, 21064, Control_c, 0, 64, 0
2, 21090, Control_c, 0, 64, 127
2, 21118, Note_on_c, 0, 72, 0
2, 21118, Note_on_c, 0, 63, 0
2, 21121, Note_on_c, 0, 67, 80
2, 21123, Control_c, 0, 64, 0
2, 21178, Note_on_c, 0, 67, 0
2, 21181, Note_on_c, 0, 70, 76
2, 21241, Note_on_c, 0, 69, 80
2, 21242, Note_on_c, 0, 70, 0
2, 21258, Control_c, 0, 64, 127
2, 21293, Control_c, 0, 64, 0
2, 21301, Note_on_c, 0, 72, 80
2, 21302, Note_on_c, 0, 69, 0
2, 21361, Note_on_c, 0, 70, 64
2, 21365, Note_on_c, 0, 72, 0
2, 21369, Control_c, 0, 64, 127
2, 21382, Control_c, 0, 64, 0
2, 21391, Note_on_c, 0, 69, 68
2, 21393, Note_on_c, 0, 70, 0
2, 21421, Note_on_c, 0, 70, 59
2, 21424, Note_on_c, 0, 69, 0
2, 21449, Note_on_c, 0, 70, 0
2, 21451, Note_on_c, 0, 72, 80
2, 21481, Note_on_c, 0, 72, 0
2, 21481, Note_on_c, 0, 70, 72
2, 21507, Note_on_c, 0, 70, 0
2, 21542, Note_on_c, 0, 70, 93
2, 21567, Note_on_c, 0, 70, 0
2, 21602, Note_on_c, 0, 74, 89
2, 21602, Note_on_c, 0, 77, 89
2, 21626, Note_on_c, 0, 74, 0
2, 21627, Note_on_c, 0, 77, 0
2, 21662, Note_on_c, 0, 77, 72
2, 21663, Note_on_c, 0, 74, 80
2, 21724, Control_c, 0, 64, 127
2, 21748, Note_on_c, 0, 77, 0
2, 21749, Note_on_c, 0, 74, 0
2, 21782, Note_on_c, 0, 70, 72
2, 21782, Note_on_c, 0, 74, 85
2, 21788, Control_c, 0, 64, 0
2, 21837, Note_on_c, 0, 74, 0
2, 21837, Note_on_c, 0, 70, 0
2, 21842, Note_on_c, 0, 75, 80
2, 21842, Note_on_c, 0, 79, 76
2, 21866, Note_on_c, 0, 79, 0
2, 21867, Note_on_c, 0, 75, 0
2, 21902, Note_on_c, 0, 75, 93
2, 21902, Note_on_c, 0, 79, 89
2, 21969, Control_c, 0, 64, 127
2, 21987, Note_on_c, 0, 75, 0
2, 21990, Note_on_c, 0, 79, 0
2, 22021, Note_on_c, 0, 72, 72
2, 22021, Note_on_c, 0, 75, 72
2, 22023, Control_c, 0, 64, 0
2, 22046, Control_c, 0, 64, 127
2, 22055, Note_on_c, 0, 75, 0
2, 22074, Note_on_c, 0, 72, 0
2, 22081, Control_c, 0, 64, 0
2, 22082, Note_on_c, 0, 70, 72
2, 22109, Control_c, 0, 64, 127
2, 22135, Control_c, 0, 64, 0
2, 22140, Note_on_c, 0, 70, 0
2, 22141, Note_on_c, 0, 74, 68
2, 22199, Note_on_c, 0, 74, 0
2, 22201, Note_on_c, 0, 72, 76
2, 22260, Note_on_c, 0, 75, 76
2, 22262, Note_on_c, 0, 72, 0
2, 22320, Note_on_c, 0, 74, 80
2, 22322, Note_on_c, 0, 75, 0
2, 22351, Note_on_c, 0, 72, 60
2, 22352, Note_on_c, 0, 74, 0
2, 22380, Note_on_c, 0, 74, 76
2, 22381, Note_on_c, 0, 72, 0
2, 22409, Note_on_c, 0, 75, 56
2, 22410, Note_on_c, 0, 74, 0
2, 22439, Note_on_c, 0, 74, 72
2, 22442, Note_on_c, 0, 75, 0
2, 22468, Note_on_c, 0, 74, 0
2, 22499, Note_on_c, 0, 70, 72
2, 22527, Note_on_c, 0, 70, 0
2, 22559, Note_on_c, 0, 79, 93
2, 22587, Note_on_c, 0, 79, 0
2, 22621, Note_on_c, 0, 79, 89
2, 22644, Control_c, 0, 64, 127
2, 22681, Note_on_c, 0, 75, 68
2, 22683, Note_on_c, 0, 79, 0
2, 22697, Control_c, 0, 64, 0
2, 22741, Note_on_c, 0, 75, 0
2, 22741, Note_on_c, 0, 72, 76
2, 22800, Note_on_c, 0, 72, 0
2, 22801, Note_on_c, 0, 71, 85
2, 22832, Control_c, 0, 64, 127
2, 22922, Note_on_c, 0, 71, 0
2, 22922, Control_c, 0, 64, 0
2, 22922, Note_on_c, 0, 72, 76
2, 22980, Note_on_c, 0, 72, 0
2, 22981, Note_on_c, 0, 79, 89
2, 23013, Note_on_c, 0, 79, 0
2, 23042, Note_on_c, 0, 76, 80
2, 23072, Note_on_c, 0, 77, 76
2, 23074, Note_on_c, 0, 76, 0
2, 23101, Note_on_c, 0, 77, 0
2, 23102, Note_on_c, 0, 79, 80
2, 23131, Note_on_c, 0, 77, 68
2, 23135, Note_on_c, 0, 79, 0
2, 23161, Note_on_c, 0, 75, 64
2, 23162, Note_on_c, 0, 77, 0
2, 23189, Note_on_c, 0, 75, 0
2, 23191, Note_on_c, 0, 74, 64
2, 23221, Note_on_c, 0, 74, 0
2, 23221, Note_on_c, 0, 72, 55
2, 23250, Note_on_c, 0, 70, 39
2, 23251, Note_on_c, 0, 72, 0
2, 23281, Note_on_c, 0, 69, 76
2, 23282, Note_on_c, 0, 70, 0
2, 23303, Control_c, 0, 64, 127
2, 23393, Control_c, 0, 64, 0
2, 23399, Note_on_c, 0, 69, 0
2, 23401, Note_on_c, 0, 70, 64
2, 23456, Note_on_c, 0, 70, 0
2, 23462, Note_on_c, 0, 77, 76
2, 23483, Control_c, 0, 64, 127
2, 23488, Note_on_c, 0, 77, 0
2, 23511, Control_c, 0, 64, 0
2, 23522, Note_on_c, 0, 82, 85
2, 23550, Note_on_c, 0, 82, 0
2, 23552, Note_on_c, 0, 81, 76
2, 23581, Note_on_c, 0, 81, 0
2, 23581, Note_on_c, 0, 79, 80
2, 23609, Note_on_c, 0, 79, 0
2, 23611, Note_on_c, 0, 77, 68
2, 23640, Note_on_c, 0, 77, 0
2, 23641, Note_on_c, 0, 75, 57
2, 23643, Control_c, 0, 64, 127
2, 23653, Control_c, 0, 64, 0
2, 23668, Note_on_c, 0, 75, 0
2, 23671, Note_on_c, 0, 74, 76
2, 23699, Note_on_c, 0, 74, 0
2, 23700, Note_on_c, 0, 72, 72
2, 23712, Control_c, 0, 64, 127
2, 23727, Control_c, 0, 64, 0
2, 23728, Note_on_c, 0, 72, 0
2, 23731, Note_on_c, 0, 70, 72
2, 23759, Note_on_c, 0, 70, 0
2, 23761, Note_on_c, 0, 79, 89
2, 23791, Note_on_c, 0, 77, 80
2, 23794, Note_on_c, 0, 79, 0
2, 23821, Note_on_c, 0, 75, 62
2, 23823, Note_on_c, 0, 77, 0
2, 23851, Note_on_c, 0, 75, 0
2, 23851, Note_on_c, 0, 74, 72
2, 23870, Control_c, 0, 64, 127
2, 23878, Control_c, 0, 64, 0
2, 23879, Note_on_c, 0, 74, 0
2, 23880, Note_on_c, 0, 72, 64
2, 23909, Note_on_c, 0, 70, 62
2, 23910, Note_on_c, 0, 72, 0
2, 23939, Note_on_c, 0, 69, 64
2, 23942, Note_on_c, 0, 70, 0
2, 23969, Note_on_c, 0, 67, 76
2, 23970, Note_on_c, 0, 69, 0
2, 23997, Note_on_c, 0, 67, 0
2, 23999, Note_on_c, 0, 65, 72
2, 24029, Note_on_c, 0, 70, 60
2, 24031, Note_on_c, 0, 65, 0
2, 24059, Note_on_c, 0, 70, 0
2, 24059, Note_on_c, 0, 74, 76
2, 24088, Note_on_c, 0, 74, 0
2, 24088, Note_on_c, 0, 77, 72
2, 24117, Note_on_c, 0, 77, 0
2, 24119, Note_on_c, 0, 77, 89
2, 24132, Control_c, 0, 64, 127
2, 24149, Note_on_c, 0, 75, 57
2, 24152, Note_on_c, 0, 77, 0
2, 24163, Control_c, 0, 64, 0
2, 24179, Note_on_c, 0, 75, 0
2, 24179, Note_on_c, 0, 74, 80
2, 24208, Note_on_c, 0, 74, 0
2, 24209, Note_on_c, 0, 72, 76
2, 24236, Note_on_c, 0, 72, 0
2, 24239, Note_on_c, 0, 72, 85
2, 24255, Control_c, 0, 64, 127
2, 24346, Control_c, 0, 64, 0
2, 24360, Note_on_c, 0, 72, 0
2, 24361, Note_on_c, 0, 70, 80
2, 24373, Control_c, 0, 64, 127
2, 24389, Note_on_c, 0, 70, 0
2, 24413, Control_c, 0, 64, 0
2, 24421, Note_on_c, 0, 65, 64
2, 24478, Note_on_c, 0, 65, 0
2, 24482, Note_on_c, 0, 77, 72
2, 24482, Note_on_c, 0, 74, 80
2, 24506, Note_on_c, 0, 74, 0
2, 24507, Note_on_c, 0, 77, 0
2, 24542, Note_on_c, 0, 77, 72
2, 24542, Note_on_c, 0, 74, 64
2, 24601, Control_c, 0, 64, 127
2, 24604, Note_on_c, 0, 77, 0
2, 24625, Note_on_c, 0, 74, 0
2, 24663, Note_on_c, 0, 80, 76
2, 24663, Note_on_c, 0, 77, 85
2, 24669, Control_c, 0, 64, 0
2, 24715, Note_on_c, 0, 80, 0
2, 24716, Note_on_c, 0, 77, 0
2, 24722, Note_on_c, 0, 74, 72
2, 24723, Note_on_c, 0, 71, 62
2, 24746, Note_on_c, 0, 71, 0
2, 24747, Note_on_c, 0, 74, 0
2, 24783, Note_on_c, 0, 74, 72
2, 24783, Note_on_c, 0, 71, 62
2, 24851, Control_c, 0, 64, 127
2, 24866, Note_on_c, 0, 71, 0
2, 24869, Note_on_c, 0, 74, 0
2, 24898, Control_c, 0, 64, 0
2, 24902, Note_on_c, 0, 74, 76
2, 24902, Note_on_c, 0, 77, 80
2, 24955, Note_on_c, 0, 77, 0
2, 24956, Note_on_c, 0, 74, 0
2, 24962, Note_on_c, 0, 75, 72
2, 24962, Note_on_c, 0, 72, 80
2, 24987, Note_on_c, 0, 72, 0
2, 24988, Note_on_c, 0, 75, 0
2, 25021, Note_on_c, 0, 75, 89
2, 25022, Note_on_c, 0, 72, 80
2, 25085, Control_c, 0, 64, 127
2, 25104, Note_on_c, 0, 72, 0
2, 25104, Note_on_c, 0, 75, 0
2, 25135, Control_c, 0, 64, 0
2, 25141, Note_on_c, 0, 75, 72
2, 25141, Note_on_c, 0, 79, 80
2, 25194, Note_on_c, 0, 79, 0
2, 25196, Note_on_c, 0, 75, 0
2, 25201, Note_on_c, 0, 72, 72
2, 25201, Note_on_c, 0, 69, 76
2, 25226, Note_on_c, 0, 69, 0
2, 25227, Note_on_c, 0, 72, 0
2, 25260, Note_on_c, 0, 72, 76
2, 25260, Note_on_c, 0, 69, 55
2, 25329, Control_c, 0, 64, 127
2, 25348, Note_on_c, 0, 69, 0
2, 25348, Note_on_c, 0, 72, 0
2, 25371, Control_c, 0, 64, 0
2, 25381, Note_on_c, 0, 72, 80
2, 25381, Note_on_c, 0, 75, 68
2, 25397, Control_c, 0, 64, 127
2, 25411, Note_on_c, 0, 75, 0
2, 25411, Note_on_c, 0, 72, 0
2, 25420, Control_c, 0, 64, 0
2, 25441, Note_on_c, 0, 75, 76
2, 25451, Control_c, 0, 64, 127
2, 25471, Note_on_c, 0, 73, 72
2, 25473, Note_on_c, 0, 75, 0
2, 25489, Control_c, 0, 64, 0
2, 25499, Note_on_c, 0, 73, 0
2, 25500, Note_on_c, 0, 72, 80
2, 25517, Control_c, 0, 64, 127
2, 25529, Note_on_c, 0, 70, 57
2, 25531, Note_on_c, 0, 72, 0
2, 25543, Control_c, 0, 64, 0
2, 25559, Note_on_c, 0, 70, 0
2, 25559, Note_on_c, 0, 69, 85
2, 25589, Note_on_c, 0, 69, 0
2, 25589, Note_on_c, 0, 70, 76
2, 25619, Note_on_c, 0, 70, 0
2, 25619, Note_on_c, 0, 72, 76
2, 25649, Note_on_c, 0, 70, 72
2, 25651, Note_on_c, 0, 72, 0
2, 25679, Note_on_c, 0, 75, 72
2, 25682, Note_on_c, 0, 70, 0
2, 25709, Note_on_c, 0, 73, 76
2, 25712, Note_on_c, 0, 75, 0
2, 25739, Note_on_c, 0, 72, 76
2, 25742, Note_on_c, 0, 73, 0
2, 25768, Note_on_c, 0, 70, 72
2, 25771, Note_on_c, 0, 72, 0
2, 25799, Note_on_c, 0, 69, 85
2, 25800, Note_on_c, 0, 70, 0
2, 25828, Note_on_c, 0, 70, 68
2, 25830, Note_on_c, 0, 69, 0
2, 25858, Note_on_c, 0, 72, 76
2, 25859, Note_on_c, 0, 70, 0
2, 25871, Control_c, 0, 64, 127
2, 25888, Note_on_c, 0, 70, 76
2, 25889, Control_c, 0, 64, 0
2, 25891, Note_on_c, 0, 72, 0
2, 25916, Note_on_c, 0, 70, 0
2, 25919, Note_on_c, 0, 82, 98
2, 25946, Note_on_c, 0, 82, 0
2, 25979, Note_on_c, 0, 82, 98
2, 26037, Control_c, 0, 64, 127
2, 26045, Note_on_c, 0, 82, 0
2, 26102, Note_on_c, 0, 76, 89
2, 26103, Note_on_c, 0, 70, 62
2, 26111, Control_c, 0, 64, 0
2, 26132, Control_c, 0, 64, 127
2, 26153, Note_on_c, 0, 70, 0
2, 26154, Note_on_c, 0, 76, 0
2, 26160, Note_on_c, 0, 70, 62
2, 26160, Note_on_c, 0, 79, 89
2, 26168, Control_c, 0, 64, 0
2, 26203, Control_c, 0, 64, 127
2, 26275, Control_c, 0, 64, 0
2, 26280, Note_on_c, 0, 79, 0
2, 26280, Note_on_c, 0, 70, 0
2, 26282, Note_on_c, 0, 69, 72
2, 26282, Note_on_c, 0, 77, 76
2, 26300, Control_c, 0, 64, 127
2, 26310, Note_on_c, 0, 77, 0
2, 26310, Note_on_c, 0, 69, 0
2, 26343, Note_on_c, 0, 65, 64
2, 26348, Control_c, 0, 64, 0
2, 26394, Note_on_c, 0, 65, 0
2, 26402, Note_on_c, 0, 65, 62
2, 26402, Note_on_c, 0, 74, 76
2, 26411, Control_c, 0, 64, 127
2, 26423, Control_c, 0, 64, 0
2, 26427, Note_on_c, 0, 74, 0
2, 26427, Note_on_c, 0, 65, 0
2, 26463, Note_on_c, 0, 65, 68
2, 26463, Note_on_c, 0, 74, 76
2, 26534, Control_c, 0, 64, 127
2, 26547, Note_on_c, 0, 65, 0
2, 26548, Note_on_c, 0, 74, 0
2, 26581, Note_on_c, 0, 62, 55
2, 26582, Note_on_c, 0, 70, 60
2, 26607, Note_on_c, 0, 62, 0
2, 26608, Note_on_c, 0, 70, 0
2, 26629, Control_c, 0, 64, 0
2, 26640, Note_on_c, 0, 67, 72
2, 26641, Note_on_c, 0, 75, 76
2, 26666, Note_on_c, 0, 67, 0
2, 26667, Note_on_c, 0, 75, 0
2, 26701, Note_on_c, 0, 75, 80
2, 26701, Note_on_c, 0, 67, 76
2, 26764, Note_on_c, 0, 67, 0
2, 26764, Control_c, 0, 64, 127
2, 26784, Note_on_c, 0, 75, 0
2, 26821, Control_c, 0, 64, 0
2, 26821, Note_on_c, 0, 63, 62
2, 26821, Note_on_c, 0, 72, 72
2, 26846, Control_c, 0, 64, 127
2, 26851, Note_on_c, 0, 63, 0
2, 26853, Note_on_c, 0, 72, 0
2, 26874, Control_c, 0, 64, 0
2, 26881, Note_on_c, 0, 67, 72
2, 26905, Control_c, 0, 64, 127
2, 26940, Control_c, 0, 64, 0
2, 26941, Note_on_c, 0, 67, 0
2, 26941, Note_on_c, 0, 70, 76
2, 26999, Note_on_c, 0, 70, 0
2, 27001, Note_on_c, 0, 69, 76
2, 27008, Control_c, 0, 64, 127
2, 27025, Control_c, 0, 64, 0
2, 27061, Note_on_c, 0, 69, 0
2, 27061, Note_on_c, 0, 72, 80
2, 27121, Note_on_c, 0, 70, 62
2, 27122, Note_on_c, 0, 72, 0
2, 27127, Control_c, 0, 64, 127
2, 27132, Control_c, 0, 64, 0
2, 27151, Note_on_c, 0, 70, 0
2, 27151, Note_on_c, 0, 69, 76
2, 27181, Note_on_c, 0, 70, 60
2, 27183, Note_on_c, 0, 69, 0
2, 27209, Note_on_c, 0, 70, 0
2, 27211, Note_on_c, 0, 72, 76
2, 27241, Note_on_c, 0, 72, 0
2, 27241, Note_on_c, 0, 70, 76
2, 27267, Note_on_c, 0, 70, 0
2, 27302, Note_on_c, 0, 70, 89
2, 27327, Note_on_c, 0, 70, 0
2, 27361, Note_on_c, 0, 77, 76
2, 27361, Note_on_c, 0, 74, 85
2, 27386, Note_on_c, 0, 74, 0
2, 27386, Note_on_c, 0, 77, 0
2, 27422, Note_on_c, 0, 77, 89
2, 27422, Note_on_c, 0, 74, 93
2, 27492, Control_c, 0, 64, 127
2, 27514, Note_on_c, 0, 74, 0
2, 27533, Note_on_c, 0, 77, 0
2, 27542, Note_on_c, 0, 74, 93
2, 27542, Note_on_c, 0, 70, 62
2, 27551, Control_c, 0, 64, 0
2, 27599, Note_on_c, 0, 70, 0
2, 27600, Note_on_c, 0, 74, 0
2, 27602, Note_on_c, 0, 75, 80
2, 27602, Note_on_c, 0, 79, 93
2, 27626, Note_on_c, 0, 79, 0
2, 27627, Note_on_c, 0, 75, 0
2, 27662, Note_on_c, 0, 75, 93
2, 27662, Note_on_c, 0, 79, 98
2, 27726, Control_c, 0, 64, 127
2, 27744, Note_on_c, 0, 75, 0
2, 27745, Note_on_c, 0, 79, 0
2, 27778, Control_c, 0, 64, 0
2, 27781, Note_on_c, 0, 75, 80
2, 27781, Note_on_c, 0, 72, 76
2, 27796, Control_c, 0, 64, 127
2, 27809, Note_on_c, 0, 75, 0
2, 27813, Note_on_c, 0, 72, 0
2, 27836, Control_c, 0, 64, 0
2, 27841, Note_on_c, 0, 70, 72
2, 27858, Control_c, 0, 64, 127
2, 27898, Note_on_c, 0, 70, 0
2, 27901, Control_c, 0, 64, 0
2, 27901, Note_on_c, 0, 74, 72
2, 27960, Note_on_c, 0, 74, 0
2, 27961, Note_on_c, 0, 72, 76
2, 27971, Control_c, 0, 64, 127
2, 28013, Control_c, 0, 64, 0
2, 28021, Note_on_c, 0, 75, 76
2, 28023, Note_on_c, 0, 72, 0
2, 28081, Note_on_c, 0, 74, 76
2, 28082, Note_on_c, 0, 75, 0
2, 28111, Note_on_c, 0, 72, 64
2, 28113, Note_on_c, 0, 74, 0
2, 28141, Note_on_c, 0, 72, 0
2, 28141, Note_on_c, 0, 74, 76
2, 28169, Note_on_c, 0, 74, 0
2, 28171, Note_on_c, 0, 75, 46
2, 28201, Note_on_c, 0, 75, 0
2, 28201, Note_on_c, 0, 74, 80
2, 28227, Note_on_c, 0, 74, 0
2, 28259, Note_on_c, 0, 70, 72
2, 28287, Note_on_c, 0, 70, 0
2, 28319, Note_on_c, 0, 79, 93
2, 28347, Note_on_c, 0, 79, 0
2, 28381, Note_on_c, 0, 79, 98
2, 28400, Control_c, 0, 64, 127
2, 28440, Control_c, 0, 64, 0
2, 28441, Note_on_c, 0, 75, 76
2, 28443, Note_on_c, 0, 79, 0
2, 28501, Note_on_c, 0, 75, 0
2, 28501, Note_on_c, 0, 72, 72
2, 28560, Note_on_c, 0, 72, 0
2, 28561, Note_on_c, 0, 71, 93
2, 28680, Note_on_c, 0, 71, 0
2, 28681, Note_on_c, 0, 72, 89
2, 28742, Note_on_c, 0, 79, 93
2, 28743, Note_on_c, 0, 72, 0
2, 28767, Note_on_c, 0, 79, 0
2, 28802, Note_on_c, 0, 76, 76
2, 28830, Note_on_c, 0, 76, 0
2, 28832, Note_on_c, 0, 77, 72
2, 28860, Note_on_c, 0, 77, 0
2, 28861, Note_on_c, 0, 79, 72
2, 28891, Note_on_c, 0, 77, 72
2, 28893, Note_on_c, 0, 79, 0
2, 28921, Note_on_c, 0, 75, 64
2, 28923, Note_on_c, 0, 77, 0
2, 28950, Note_on_c, 0, 74, 85
2, 28951, Note_on_c, 0, 75, 0
2, 28978, Note_on_c, 0, 74, 0
2, 28979, Note_on_c, 0, 72, 68
2, 29009, Note_on_c, 0, 72, 0
2, 29009, Note_on_c, 0, 70, 56
2, 29039, Note_on_c, 0, 70, 0
2, 29039, Note_on_c, 0, 69, 72
2, 29059, Control_c, 0, 64, 127
2, 29140, Control_c, 0, 64, 0
2, 29159, Note_on_c, 0, 69, 0
2, 29159, Note_on_c, 0, 70, 72
2, 29194, Control_c, 0, 64, 127
2, 29213, Control_c, 0, 64, 0
2, 29218, Note_on_c, 0, 70, 0
2, 29221, Note_on_c, 0, 77, 76
2, 29248, Note_on_c, 0, 77, 0
2, 29280, Note_on_c, 0, 82, 72
2, 29286, Control_c, 0, 64, 127
2, 29302, Control_c, 0, 64, 0
2, 29310, Note_on_c, 0, 82, 0
2, 29310, Note_on_c, 0, 81, 72
2, 29339, Note_on_c, 0, 79, 62
2, 29341, Note_on_c, 0, 81, 0
2, 29369, Note_on_c, 0, 77, 60
2, 29370, Note_on_c, 0, 79, 0
2, 29399, Note_on_c, 0, 75, 59
2, 29402, Note_on_c, 0, 77, 0
2, 29408, Control_c, 0, 64, 127
2, 29424, Control_c, 0, 64, 0
2, 29429, Note_on_c, 0, 75, 0
2, 29429, Note_on_c, 0, 74, 68
2, 29459, Note_on_c, 0, 74, 0
2, 29459, Note_on_c, 0, 72, 51
2, 29489, Note_on_c, 0, 70, 64
2, 29490, Note_on_c, 0, 72, 0
2, 29519, Note_on_c, 0, 70, 0
2, 29519, Note_on_c, 0, 79, 85
2, 29526, Control_c, 0, 64, 127
2, 29536, Control_c, 0, 64, 0
2, 29551, Note_on_c, 0, 77, 72
2, 29554, Note_on_c, 0, 79, 0
2, 29579, Note_on_c, 0, 75, 59
2, 29581, Note_on_c, 0, 77, 0
2, 29609, Note_on_c, 0, 74, 76
2, 29612, Note_on_c, 0, 75, 0
2, 29639, Note_on_c, 0, 74, 0
2, 29639, Note_on_c, 0, 72, 72
2, 29669, Note_on_c, 0, 70, 57
2, 29671, Note_on_c, 0, 72, 0
2, 29699, Note_on_c, 0, 69, 64
2, 29701, Note_on_c, 0, 70, 0
2, 29728, Note_on_c, 0, 67, 51
2, 29732, Note_on_c, 0, 69, 0
2, 29757, Note_on_c, 0, 67, 0
2, 29759, Note_on_c, 0, 65, 76
2, 29789, Note_on_c, 0, 70, 62
2, 29790, Note_on_c, 0, 65, 0
2, 29819, Note_on_c, 0, 70, 0
2, 29819, Note_on_c, 0, 74, 76
2, 29849, Note_on_c, 0, 74, 0
2, 29849, Note_on_c, 0, 77, 80
2, 29877, Note_on_c, 0, 77, 0
2, 29879, Note_on_c, 0, 77, 80
2, 29911, Note_on_c, 0, 75, 55
2, 29914, Note_on_c, 0, 77, 0
2, 29940, Note_on_c, 0, 74, 72
2, 29941, Note_on_c, 0, 75, 0
2, 29967, Note_on_c, 0, 74, 0
2, 29969, Note_on_c, 0, 72, 80
2, 29996, Note_on_c, 0, 72, 0
2, 30000, Note_on_c, 0, 72, 89
2, 30045, Control_c, 0, 64, 127
2, 30109, Control_c, 0, 64, 0
2, 30121, Note_on_c, 0, 70, 80
2, 30122, Note_on_c, 0, 72, 0
2, 30154, Note_on_c, 0, 70, 0
2, 30182, Note_on_c, 0, 70, 72
2, 30210, Note_on_c, 0, 70, 0
2, 30211, Note_on_c, 0, 72, 76
2, 30238, Note_on_c, 0, 72, 0
2, 30241, Note_on_c, 0, 74, 89
2, 30362, Note_on_c, 0, 74, 0
2, 30421, Note_on_c, 0, 74, 80
2, 30449, Note_on_c, 0, 74, 0
2, 30451, Note_on_c, 0, 75, 72
2, 30478, Note_on_c, 0, 75, 0
2, 30481, Note_on_c, 0, 77, 85
2, 30595, Note_on_c, 0, 77, 0
2, 30661, Note_on_c, 0, 77, 80
2, 30691, Note_on_c, 0, 79, 76
2, 30695, Note_on_c, 0, 77, 0
2, 30719, Note_on_c, 0, 79, 0
2, 30721, Note_on_c, 0, 80, 93
2, 30738, Control_c, 0, 64, 127
2, 30779, Note_on_c, 0, 80, 0
2, 30781, Note_on_c, 0, 77, 89
2, 30787, Control_c, 0, 64, 0
2, 30840, Note_on_c, 0, 77, 0
2, 30841, Note_on_c, 0, 74, 93
2, 30862, Control_c, 0, 64, 127
2, 30900, Note_on_c, 0, 74, 0
2, 30901, Note_on_c, 0, 70, 85
2, 30905, Control_c, 0, 64, 0
2, 30960, Note_on_c, 0, 70, 0
2, 30961, Note_on_c, 0, 69, 93
2, 30972, Control_c, 0, 64, 127
2, 30978, Control_c, 0, 64, 0
2, 31022, Note_on_c, 0, 70, 76
2, 31023, Note_on_c, 0, 69, 0
2, 31081, Note_on_c, 0, 70, 0
2, 31082, Note_on_c, 0, 68, 76
2, 31098, Control_c, 0, 64, 127
2, 31137, Control_c, 0, 64, 0
2, 31140, Note_on_c, 0, 68, 0
2, 31141, Note_on_c, 0, 65, 80
2, 31200, Note_on_c, 0, 63, 59
2, 31201, Note_on_c, 0, 65, 0
2, 31201, Control_c, 0, 64, 127
2, 31229, Note_on_c, 0, 63, 0
2, 31259, Note_on_c, 0, 63, 64
2, 31289, Note_on_c, 0, 63, 0
2, 31319, Note_on_c, 0, 63, 55
2, 31349, Note_on_c, 0, 63, 0
2, 31379, Note_on_c, 0, 63, 56
2, 31412, Note_on_c, 0, 63, 0
2, 31437, Control_c, 0, 64, 0
2, 31439, Note_on_c, 0, 72, 76
2, 31457, Control_c, 0, 64, 127
2, 31474, Note_on_c, 0, 72, 0
2, 31500, Note_on_c, 0, 72, 55
2, 31529, Note_on_c, 0, 72, 0
2, 31560, Note_on_c, 0, 72, 68
2, 31589, Note_on_c, 0, 72, 0
2, 31621, Note_on_c, 0, 72, 56
2, 31649, Note_on_c, 0, 72, 0
2, 31681, Control_c, 0, 64, 0
2, 31681, Note_on_c, 0, 65, 76
2, 31702, Control_c, 0, 64, 127
2, 31734, Note_on_c, 0, 65, 0
2, 31740, Note_on_c, 0, 65, 68
2, 31773, Note_on_c, 0, 65, 0
2, 31796, Control_c, 0, 64, 0
2, 31799, Note_on_c, 0, 70, 68
2, 31814, Control_c, 0, 64, 127
2, 31832, Note_on_c, 0, 70, 0
2, 31859, Note_on_c, 0, 70, 68
2, 31892, Note_on_c, 0, 70, 0
2, 31921, Note_on_c, 0, 68, 72
2, 31927, Control_c, 0, 64, 0
2, 31948, Control_c, 0, 64, 127
2, 31978, Note_on_c, 0, 68, 0
2, 31979, Note_on_c, 0, 67, 72
2, 32000, Control_c, 0, 64, 0
2, 32039, Note_on_c, 0, 67, 0
2, 32040, Note_on_c, 0, 65, 89
2, 32066, Note_on_c, 0, 65, 0
2, 32101, Note_on_c, 0, 63, 76
2, 32126, Note_on_c, 0, 63, 0
2, 32161, Note_on_c, 0, 79, 80
2, 32187, Note_on_c, 0, 79, 0
2, 32219, Note_on_c, 0, 79, 80
2, 32247, Note_on_c, 0, 79, 0
2, 32279, Note_on_c, 0, 78, 76
2, 32307, Note_on_c, 0, 78, 0
2, 32339, Note_on_c, 0, 77, 80
2, 32367, Note_on_c, 0, 77, 0
2, 32399, Note_on_c, 0, 76, 72
2, 32427, Note_on_c, 0, 76, 0
2, 32459, Note_on_c, 0, 75, 80
2, 32487, Note_on_c, 0, 75, 0
2, 32518, Note_on_c, 0, 74, 76
2, 32548, Note_on_c, 0, 74, 0
2, 32579, Note_on_c, 0, 73, 80
2, 32607, Note_on_c, 0, 73, 0
2, 32639, Note_on_c, 0, 72, 80
2, 32667, Note_on_c, 0, 72, 0
2, 32699, Note_on_c, 0, 72, 76
2, 32727, Note_on_c, 0, 72, 0
2, 32759, Note_on_c, 0, 77, 89
2, 32787, Note_on_c, 0, 77, 0
2, 32818, Note_on_c, 0, 77, 85
2, 32847, Note_on_c, 0, 77, 0
2, 32879, Note_on_c, 0, 70, 85
2, 33025, Note_on_c, 0, 70, 0
2, 33117, Control_c, 0, 64, 127
2, 33119, Note_on_c, 0, 63, 46
2, 33152, Note_on_c, 0, 63, 0
2, 33179, Note_on_c, 0, 63, 59
2, 33209, Note_on_c, 0, 63, 0
2, 33239, Note_on_c, 0, 63, 57
2, 33268, Note_on_c, 0, 63, 0
2, 33298, Note_on_c, 0, 63, 59
2, 33328, Note_on_c, 0, 63, 0
2, 33352, Control_c, 0, 64, 0
2, 33358, Note_on_c, 0, 72, 56
2, 33369, Control_c, 0, 64, 127
2, 33393, Note_on_c, 0, 72, 0
2, 33419, Note_on_c, 0, 72, 62
2, 33449, Note_on_c, 0, 72, 0
2, 33479, Note_on_c, 0, 72, 62
2, 33508, Note_on_c, 0, 72, 0
2, 33539, Note_on_c, 0, 72, 55
2, 33568, Note_on_c, 0, 72, 0
2, 33597, Control_c, 0, 64, 0
2, 33599, Note_on_c, 0, 65, 62
2, 33616, Control_c, 0, 64, 127
2, 33635, Note_on_c, 0, 65, 0
2, 33659, Note_on_c, 0, 65, 56
2, 33694, Note_on_c, 0, 65, 0
2, 33717, Control_c, 0, 64, 0
2, 33719, Note_on_c, 0, 70, 55
2, 33733, Control_c, 0, 64, 127
2, 33752, Note_on_c, 0, 70, 0
2, 33779, Note_on_c, 0, 70, 64
2, 33809, Note_on_c, 0, 70, 0
2, 33841, Note_on_c, 0, 68, 57
2, 33852, Control_c, 0, 64, 0
2, 33876, Control_c, 0, 64, 127
2, 33897, Note_on_c, 0, 68, 0
2, 33899, Note_on_c, 0, 67, 60
2, 33908, Control_c, 0, 64, 0
2, 33959, Note_on_c, 0, 65, 64
2, 33960, Note_on_c, 0, 67, 0
2, 33988, Note_on_c, 0, 65, 0
2, 34019, Note_on_c, 0, 63, 68
2, 34046, Note_on_c, 0, 63, 0
2, 34079, Note_on_c, 0, 79, 76
2, 34107, Note_on_c, 0, 79, 0
2, 34139, Note_on_c, 0, 79, 80
2, 34167, Note_on_c, 0, 79, 0
2, 34199, Note_on_c, 0, 78, 64
2, 34227, Note_on_c, 0, 78, 0
2, 34259, Note_on_c, 0, 77, 85
2, 34287, Note_on_c, 0, 77, 0
2, 34319, Note_on_c, 0, 76, 76
2, 34347, Note_on_c, 0, 76, 0
2, 34379, Note_on_c, 0, 75, 72
2, 34407, Note_on_c, 0, 75, 0
2, 34439, Note_on_c, 0, 74, 76
2, 34468, Note_on_c, 0, 74, 0
2, 34499, Note_on_c, 0, 73, 80
2, 34527, Note_on_c, 0, 73, 0
2, 34559, Note_on_c, 0, 72, 89
2, 34587, Note_on_c, 0, 72, 0
2, 34620, Note_on_c, 0, 72, 76
2, 34646, Note_on_c, 0, 72, 0
2, 34679, Note_on_c, 0, 77, 89
2, 34707, Note_on_c, 0, 77, 0
2, 34739, Note_on_c, 0, 77, 85
2, 34767, Note_on_c, 0, 77, 0
2, 34799, Note_on_c, 0, 70, 80
2, 34922, Note_on_c, 0, 70, 0
2, 35101, Note_on_c, 0, 70, 93
2, 35160, Note_on_c, 0, 70, 0
2, 35161, Note_on_c, 0, 73, 89
2, 35218, Note_on_c, 0, 73, 0
2, 35221, Note_on_c, 0, 76, 93
2, 35280, Note_on_c, 0, 76, 0
2, 35281, Note_on_c, 0, 79, 93
2, 35341, Note_on_c, 0, 73, 80
2, 35342, Note_on_c, 0, 79, 0
2, 35399, Note_on_c, 0, 73, 0
2, 35401, Note_on_c, 0, 72, 64
2, 35460, Note_on_c, 0, 72, 0
2, 35461, Note_on_c, 0, 70, 76
2, 35519, Note_on_c, 0, 70, 0
2, 35521, Note_on_c, 0, 69, 85
2, 35580, Note_on_c, 0, 69, 0
2, 35581, Note_on_c, 0, 68, 76
2, 35637, Note_on_c, 0, 68, 0
2, 35641, Note_on_c, 0, 74, 89
2, 35701, Note_on_c, 0, 74, 0
2, 35701, Note_on_c, 0, 75, 89
2, 35754, Note_on_c, 0, 75, 0
2, 35759, Note_on_c, 0, 77, 80
2, 35819, Note_on_c, 0, 71, 89
2, 35821, Note_on_c, 0, 77, 0
2, 35879, Note_on_c, 0, 70, 76
2, 35881, Note_on_c, 0, 71, 0
2, 35939, Note_on_c, 0, 68, 85
2, 35941, Note_on_c, 0, 70, 0
2, 35997, Note_on_c, 0, 68, 0
2, 35999, Note_on_c, 0, 67, 80
2, 36057, Note_on_c, 0, 67, 0
2, 36059, Note_on_c, 0, 66, 76
2, 36119, Note_on_c, 0, 65, 80
2, 36120, Note_on_c, 0, 66, 0
2, 36178, Note_on_c, 0, 65, 0
2, 36179, Note_on_c, 0, 70, 76
2, 36238, Note_on_c, 0, 70, 0
2, 36239, Note_on_c, 0, 63, 76
2, 36300, Note_on_c, 0, 69, 89
2, 36301, Note_on_c, 0, 63, 0
2, 36358, Note_on_c, 0, 69, 0
2, 36359, Note_on_c, 0, 62, 76
2, 36417, Note_on_c, 0, 62, 0
2, 36419, Note_on_c, 0, 66, 72
2, 36419, Note_on_c, 0, 63, 76
2, 36477, Note_on_c, 0, 66, 0
2, 36478, Note_on_c, 0, 63, 0
2, 36479, Note_on_c, 0, 62, 52
2, 36479, Note_on_c, 0, 65, 68
2, 36494, Control_c, 0, 64, 127
2, 36527, Control_c, 0, 64, 0
2, 36539, Note_on_c, 0, 62, 0
2, 36540, Note_on_c, 0, 66, 68
2, 36540, Note_on_c, 0, 63, 56
2, 36541, Note_on_c, 0, 65, 0
2, 36596, Note_on_c, 0, 66, 0
2, 36598, Note_on_c, 0, 63, 0
2, 36599, Note_on_c, 0, 62, 62
2, 36599, Note_on_c, 0, 65, 80
2, 36604, Control_c, 0, 64, 127
2, 36612, Control_c, 0, 64, 0
2, 36659, Note_on_c, 0, 62, 0
2, 36661, Note_on_c, 0, 63, 68
2, 36661, Note_on_c, 0, 66, 80
2, 36662, Note_on_c, 0, 65, 0
2, 36716, Note_on_c, 0, 66, 0
2, 36716, Note_on_c, 0, 63, 0
2, 36720, Note_on_c, 0, 66, 80
2, 36721, Note_on_c, 0, 62, 62
2, 36779, Note_on_c, 0, 62, 0
2, 36780, Note_on_c, 0, 66, 0
2, 36781, Note_on_c, 0, 67, 89
2, 36781, Note_on_c, 0, 63, 76
2, 36838, Note_on_c, 0, 63, 0
2, 36838, Note_on_c, 0, 67, 0
2, 36839, Note_on_c, 0, 65, 76
2, 36839, Note_on_c, 0, 68, 62
2, 36848, Control_c, 0, 64, 127
2, 36875, Note_on_c, 0, 65, 0
2, 36895, Note_on_c, 0, 68, 0
2, 36899, Control_c, 0, 64, 0
2, 36900, Note_on_c, 0, 65, 76
2, 36900, Note_on_c, 0, 62, 60
2, 36955, Note_on_c, 0, 62, 0
2, 36957, Note_on_c, 0, 65, 0
2, 36959, Note_on_c, 0, 63, 64
2, 36985, Control_c, 0, 64, 127
2, 37014, Note_on_c, 0, 63, 0
2, 37020, Note_on_c, 0, 63, 59
2, 37052, Note_on_c, 0, 63, 0
2, 37079, Note_on_c, 0, 63, 64
2, 37111, Note_on_c, 0, 63, 0
2, 37139, Note_on_c, 0, 63, 62
2, 37169, Note_on_c, 0, 63, 0
2, 37198, Control_c, 0, 64, 0
2, 37199, Note_on_c, 0, 72, 76
2, 37218, Control_c, 0, 64, 127
2, 37236, Note_on_c, 0, 72, 0
2, 37259, Note_on_c, 0, 72, 76
2, 37291, Note_on_c, 0, 72, 0
2, 37319, Note_on_c, 0, 72, 72
2, 37351, Note_on_c, 0, 72, 0
2, 37379, Note_on_c, 0, 72, 80
2, 37409, Note_on_c, 0, 72, 0
2, 37438, Control_c, 0, 64, 0
2, 37440, Note_on_c, 0, 65, 76
2, 37459, Control_c, 0, 64, 127
2, 37475, Note_on_c, 0, 65, 0
2, 37499, Note_on_c, 0, 65, 62
2, 37534, Note_on_c, 0, 65, 0
2, 37559, Control_c, 0, 64, 0
2, 37560, Note_on_c, 0, 70, 76
2, 37577, Control_c, 0, 64, 127
2, 37595, Note_on_c, 0, 70, 0
2, 37619, Note_on_c, 0, 70, 72
2, 37656, Note_on_c, 0, 70, 0
2, 37678, Control_c, 0, 64, 0
2, 37679, Note_on_c, 0, 68, 72
2, 37698, Control_c, 0, 64, 127
2, 37736, Control_c, 0, 64, 0
2, 37738, Note_on_c, 0, 68, 0
2, 37739, Note_on_c, 0, 67, 76
2, 37799, Note_on_c, 0, 67, 0
2, 37799, Note_on_c, 0, 65, 72
2, 37828, Note_on_c, 0, 65, 0
2, 37859, Note_on_c, 0, 63, 80
2, 37886, Note_on_c, 0, 63, 0
2, 37919, Note_on_c, 0, 72, 80
2, 37947, Note_on_c, 0, 72, 0
2, 37979, Note_on_c, 0, 84, 93
2, 38008, Note_on_c, 0, 84, 0
2, 38039, Note_on_c, 0, 83, 85
2, 38068, Note_on_c, 0, 83, 0
2, 38099, Note_on_c, 0, 82, 76
2, 38127, Note_on_c, 0, 82, 0
2, 38159, Note_on_c, 0, 81, 80
2, 38187, Note_on_c, 0, 81, 0
2, 38219, Note_on_c, 0, 80, 80
2, 38247, Note_on_c, 0, 80, 0
2, 38279, Note_on_c, 0, 79, 76
2, 38308, Note_on_c, 0, 79, 0
2, 38338, Note_on_c, 0, 78, 76
2, 38367, Note_on_c, 0, 78, 0
2, 38398, Note_on_c, 0, 77, 80
2, 38427, Note_on_c, 0, 77, 0
2, 38459, Note_on_c, 0, 77, 85
2, 38487, Note_on_c, 0, 77, 0
2, 38519, Note_on_c, 0, 82, 80
2, 38547, Note_on_c, 0, 82, 0
2, 38579, Note_on_c, 0, 82, 72
2, 38608, Note_on_c, 0, 82, 0
2, 38639, Note_on_c, 0, 75, 93
2, 38649, Control_c, 0, 64, 127
2, 38763, Note_on_c, 0, 75, 0
2, 38768, Control_c, 0, 64, 0
2, 38941, Note_on_c, 0, 70, 72
2, 38999, Note_on_c, 0, 73, 85
2, 39000, Note_on_c, 0, 70, 0
2, 39057, Note_on_c, 0, 73, 0
2, 39059, Note_on_c, 0, 76, 76
2, 39118, Note_on_c, 0, 76, 0
2, 39119, Note_on_c, 0, 79, 85
2, 39179, Note_on_c, 0, 73, 72
2, 39182, Note_on_c, 0, 79, 0
2, 39238, Note_on_c, 0, 73, 0
2, 39239, Note_on_c, 0, 72, 57
2, 39299, Note_on_c, 0, 72, 0
2, 39299, Note_on_c, 0, 70, 72
2, 39359, Note_on_c, 0, 70, 0
2, 39359, Note_on_c, 0, 69, 85
2, 39419, Note_on_c, 0, 69, 0
2, 39420, Note_on_c, 0, 68, 68
2, 39478, Note_on_c, 0, 68, 0
2, 39480, Note_on_c, 0, 74, 80
2, 39537, Note_on_c, 0, 74, 0
2, 39539, Note_on_c, 0, 75, 60
2, 39595, Note_on_c, 0, 75, 0
2, 39599, Note_on_c, 0, 77, 89
2, 39659, Note_on_c, 0, 77, 0
2, 39659, Note_on_c, 0, 71, 89
2, 39718, Note_on_c, 0, 71, 0
2, 39719, Note_on_c, 0, 70, 72
2, 39777, Note_on_c, 0, 70, 0
2, 39779, Note_on_c, 0, 68, 80
2, 39839, Note_on_c, 0, 68, 0
2, 39839, Note_on_c, 0, 67, 76
2, 39899, Note_on_c, 0, 67, 0
2, 39899, Note_on_c, 0, 66, 72
2, 39959, Note_on_c, 0, 65, 85
2, 39960, Note_on_c, 0, 66, 0
2, 40019, Note_on_c, 0, 70, 72
2, 40020, Note_on_c, 0, 65, 0
2, 40079, Note_on_c, 0, 63, 76
2, 40080, Note_on_c, 0, 70, 0
2, 40140, Note_on_c, 0, 69, 89
2, 40142, Note_on_c, 0, 63, 0
2, 40198, Note_on_c, 0, 69, 0
2, 40199, Note_on_c, 0, 62, 76
2, 40258, Note_on_c, 0, 62, 0
2, 40259, Note_on_c, 0, 63, 68
2, 40259, Note_on_c, 0, 66, 64
2, 40285, Control_c, 0, 64, 127
2, 40295, Note_on_c, 0, 66, 0
2, 40296, Note_on_c, 0, 63, 0
2, 40320, Note_on_c, 0, 62, 62
2, 40321, Note_on_c, 0, 65, 76
2, 40322, Control_c, 0, 64, 0
2, 40349, Control_c, 0, 64, 127
2, 40376, Note_on_c, 0, 62, 0
2, 40378, Note_on_c, 0, 65, 0
2, 40381, Control_c, 0, 64, 0
2, 40381, Note_on_c, 0, 63, 72
2, 40381, Note_on_c, 0, 66, 64
2, 40403, Control_c, 0, 64, 127
2, 40434, Control_c, 0, 64, 0
2, 40436, Note_on_c, 0, 66, 0
2, 40437, Note_on_c, 0, 63, 0
2, 40441, Note_on_c, 0, 62, 68
2, 40441, Note_on_c, 0, 65, 72
2, 40461, Control_c, 0, 64, 127
2, 40490, Control_c, 0, 64, 0
2, 40497, Note_on_c, 0, 62, 0
2, 40498, Note_on_c, 0, 65, 0
2, 40500, Note_on_c, 0, 63, 76
2, 40501, Note_on_c, 0, 66, 76
2, 40515, Control_c, 0, 64, 127
2, 40550, Control_c, 0, 64, 0
2, 40555, Note_on_c, 0, 66, 0
2, 40556, Note_on_c, 0, 63, 0
2, 40559, Note_on_c, 0, 65, 72
2, 40559, Note_on_c, 0, 62, 64
2, 40577, Control_c, 0, 64, 127
2, 40596, Note_on_c, 0, 62, 0
2, 40614, Control_c, 0, 64, 0
2, 40615, Note_on_c, 0, 65, 0
2, 40619, Note_on_c, 0, 63, 64
2, 40619, Note_on_c, 0, 67, 80
2, 40633, Control_c, 0, 64, 127
2, 40652, Note_on_c, 0, 67, 0
2, 40652, Note_on_c, 0, 63, 0
2, 40670, Control_c, 0, 64, 0
2, 40679, Note_on_c, 0, 65, 76
2, 40679, Note_on_c, 0, 68, 60
2, 40687, Control_c, 0, 64, 127
2, 40712, Note_on_c, 0, 68, 0
2, 40712, Note_on_c, 0, 65, 0
2, 40737, Control_c, 0, 64, 0
2, 40739, Note_on_c, 0, 62, 59
2, 40739, Note_on_c, 0, 65, 64
2, 40753, Control_c, 0, 64, 127
2, 40773, Note_on_c, 0, 62, 0
2, 40775, Note_on_c, 0, 65, 0
2, 40785, Control_c, 0, 64, 0
2, 40800, Note_on_c, 0, 63, 60
2, 40809, Control_c, 0, 64, 127
2, 40833, Note_on_c, 0, 63, 0
2, 40859, Note_on_c, 0, 63, 64
2, 40889, Note_on_c, 0, 63, 0
2, 40919, Note_on_c, 0, 63, 72
2, 40951, Note_on_c, 0, 63, 0
2, 40979, Note_on_c, 0, 63, 93
2, 41016, Note_on_c, 0, 63, 0
2, 41039, Note_on_c, 0, 72, 93
2, 41040, Control_c, 0, 64, 0
2, 41061, Control_c, 0, 64, 127
2, 41095, Note_on_c, 0, 72, 0
2, 41099, Note_on_c, 0, 72, 85
2, 41132, Note_on_c, 0, 72, 0
2, 41159, Note_on_c, 0, 72, 80
2, 41188, Note_on_c, 0, 72, 0
2, 41221, Note_on_c, 0, 72, 80
2, 41249, Note_on_c, 0, 72, 0
2, 41274, Control_c, 0, 64, 0
2, 41281, Note_on_c, 0, 65, 85
2, 41295, Control_c, 0, 64, 127
2, 41315, Note_on_c, 0, 65, 0
2, 41339, Note_on_c, 0, 65, 72
2, 41374, Note_on_c, 0, 65, 0
2, 41396, Control_c, 0, 64, 0
2, 41399, Note_on_c, 0, 70, 76
2, 41414, Control_c, 0, 64, 127
2, 41434, Note_on_c, 0, 70, 0
2, 41459, Note_on_c, 0, 70, 80
2, 41491, Note_on_c, 0, 70, 0
2, 41516, Control_c, 0, 64, 0
2, 41519, Note_on_c, 0, 68, 80
2, 41579, Note_on_c, 0, 68, 0
2, 41579, Note_on_c, 0, 67, 80
2, 41639, Note_on_c, 0, 67, 0
2, 41639, Note_on_c, 0, 65, 80
2, 41667, Note_on_c, 0, 65, 0
2, 41699, Note_on_c, 0, 63, 85
2, 41726, Note_on_c, 0, 63, 0
2, 41759, Note_on_c, 0, 72, 93
2, 41787, Note_on_c, 0, 72, 0
2, 41819, Note_on_c, 0, 84, 89
2, 41847, Note_on_c, 0, 84, 0
2, 41879, Note_on_c, 0, 83, 80
2, 41907, Note_on_c, 0, 83, 0
2, 41939, Note_on_c, 0, 82, 80
2, 41967, Note_on_c, 0, 82, 0
2, 41999, Note_on_c, 0, 81, 62
2, 42027, Note_on_c, 0, 81, 0
2, 42059, Note_on_c, 0, 80, 80
2, 42087, Note_on_c, 0, 80, 0
2, 42119, Note_on_c, 0, 79, 93
2, 42147, Note_on_c, 0, 79, 0
2, 42179, Note_on_c, 0, 78, 72
2, 42207, Note_on_c, 0, 78, 0
2, 42239, Note_on_c, 0, 77, 93
2, 42267, Note_on_c, 0, 77, 0
2, 42300, Note_on_c, 0, 77, 89
2, 42327, Note_on_c, 0, 77, 0
2, 42361, Note_on_c, 0, 82, 76
2, 42388, Note_on_c, 0, 82, 0
2, 42419, Note_on_c, 0, 82, 76
2, 42447, Note_on_c, 0, 82, 0
2, 42479, Note_on_c, 0, 75, 76
2, 42602, Note_on_c, 0, 75, 0
2, 42848, Control_c, 0, 64, 127
2, 42899, Note_on_c, 0, 71, 80
2, 42904, Control_c, 0, 64, 0
2, 42958, Note_on_c, 0, 72, 76
2, 42960, Note_on_c, 0, 71, 0
2, 43019, Note_on_c, 0, 74, 85
2, 43020, Note_on_c, 0, 72, 0
2, 43079, Note_on_c, 0, 75, 89
2, 43080, Note_on_c, 0, 74, 0
2, 43106, Control_c, 0, 64, 127
2, 43133, Control_c, 0, 64, 0
2, 43136, Note_on_c, 0, 75, 0
2, 43139, Note_on_c, 0, 76, 89
2, 43199, Note_on_c, 0, 77, 93
2, 43200, Note_on_c, 0, 76, 0
2, 43226, Note_on_c, 0, 77, 0
2, 43259, Note_on_c, 0, 89, 68
2, 43318, Note_on_c, 0, 89, 0
2, 43319, Note_on_c, 0, 88, 80
2, 43379, Note_on_c, 0, 87, 80
2, 43382, Note_on_c, 0, 88, 0
2, 43439, Note_on_c, 0, 86, 60
2, 43441, Note_on_c, 0, 87, 0
2, 43501, Note_on_c, 0, 86, 0
2, 43501, Note_on_c, 0, 84, 64
2, 43561, Note_on_c, 0, 82, 72
2, 43563, Note_on_c, 0, 84, 0
2, 43620, Note_on_c, 0, 82, 0
2, 43620, Note_on_c, 0, 80, 72
2, 43678, Note_on_c, 0, 80, 0
2, 43679, Note_on_c, 0, 79, 80
2, 43708, Note_on_c, 0, 79, 0
2, 43739, Note_on_c, 0, 87, 76
2, 43766, Note_on_c, 0, 87, 0
2, 43799, Note_on_c, 0, 77, 76
2, 43827, Note_on_c, 0, 77, 0
2, 43859, Note_on_c, 0, 86, 85
2, 43887, Note_on_c, 0, 86, 0
2, 43919, Note_on_c, 0, 75, 72
2, 43947, Note_on_c, 0, 75, 0
2, 43979, Note_on_c, 0, 84, 80
2, 44006, Note_on_c, 0, 84, 0
2, 44039, Note_on_c, 0, 74, 72
2, 44067, Note_on_c, 0, 74, 0
2, 44099, Note_on_c, 0, 82, 85
2, 44127, Note_on_c, 0, 82, 0
2, 44221, Note_on_c, 0, 82, 76
2, 44230, Control_c, 0, 64, 127
2, 44280, Note_on_c, 0, 82, 0
2, 44280, Control_c, 0, 64, 0
2, 44282, Note_on_c, 0, 79, 89
2, 44340, Note_on_c, 0, 79, 0
2, 44341, Note_on_c, 0, 76, 76
2, 44397, Note_on_c, 0, 76, 0
2, 44401, Note_on_c, 0, 77, 76
2, 44458, Note_on_c, 0, 77, 0
2, 44459, Note_on_c, 0, 81, 68
2, 44518, Note_on_c, 0, 81, 0
2, 44519, Note_on_c, 0, 84, 89
2, 44547, Note_on_c, 0, 84, 0
2, 44579, Note_on_c, 0, 84, 89
2, 44607, Note_on_c, 0, 84, 0
2, 44701, Note_on_c, 0, 84, 76
2, 44731, Note_on_c, 0, 82, 76
2, 44733, Note_on_c, 0, 84, 0
2, 44761, Note_on_c, 0, 82, 0
2, 44761, Note_on_c, 0, 81, 76
2, 44789, Note_on_c, 0, 79, 72
2, 44791, Note_on_c, 0, 81, 0
2, 44819, Note_on_c, 0, 79, 0
2, 44819, Note_on_c, 0, 77, 62
2, 44849, Note_on_c, 0, 76, 62
2, 44852, Note_on_c, 0, 77, 0
2, 44879, Note_on_c, 0, 76, 0
2, 44879, Note_on_c, 0, 77, 76
2, 44908, Note_on_c, 0, 77, 0
2, 44908, Note_on_c, 0, 72, 76
2, 44938, Note_on_c, 0, 77, 68
2, 44939, Note_on_c, 0, 72, 0
2, 44968, Note_on_c, 0, 81, 72
2, 44969, Note_on_c, 0, 77, 0
2, 44998, Note_on_c, 0, 84, 89
2, 44999, Note_on_c, 0, 81, 0
2, 45027, Note_on_c, 0, 84, 0
2, 45058, Note_on_c, 0, 84, 85
2, 45088, Note_on_c, 0, 84, 0
2, 45149, Note_on_c, 0, 81, 80
2, 45179, Note_on_c, 0, 81, 0
2, 45179, Note_on_c, 0, 84, 76
2, 45209, Note_on_c, 0, 82, 59
2, 45215, Note_on_c, 0, 84, 0
2, 45239, Note_on_c, 0, 81, 76
2, 45241, Note_on_c, 0, 82, 0
2, 45269, Note_on_c, 0, 81, 0
2, 45269, Note_on_c, 0, 79, 72
2, 45299, Note_on_c, 0, 79, 0
2, 45299, Note_on_c, 0, 77, 64
2, 45328, Note_on_c, 0, 76, 56
2, 45329, Note_on_c, 0, 77, 0
2, 45359, Note_on_c, 0, 76, 0
2, 45359, Note_on_c, 0, 77, 76
2, 45389, Note_on_c, 0, 78, 62
2, 45390, Note_on_c, 0, 77, 0
2, 45418, Note_on_c, 0, 78, 0
2, 45419, Note_on_c, 0, 81, 85
2, 45449, Note_on_c, 0, 79, 80
2, 45452, Note_on_c, 0, 81, 0
2, 45479, Note_on_c, 0, 77, 64
2, 45483, Note_on_c, 0, 79, 0
2, 45509, Note_on_c, 0, 75, 55
2, 45511, Note_on_c, 0, 77, 0
2, 45539, Note_on_c, 0, 74, 64
2, 45540, Note_on_c, 0, 75, 0
2, 45569, Note_on_c, 0, 74, 0
2, 45569, Note_on_c, 0, 73, 72
2, 45599, Note_on_c, 0, 73, 0
2, 45599, Note_on_c, 0, 74, 76
2, 45627, Note_on_c, 0, 74, 0
2, 45721, Note_on_c, 0, 75, 76
2, 45747, Note_on_c, 0, 75, 0
2, 45841, Note_on_c, 0, 76, 80
2, 45961, Note_on_c, 0, 77, 76
2, 45962, Note_on_c, 0, 76, 0
2, 46018, Note_on_c, 0, 77, 0
2, 46020, Note_on_c, 0, 74, 80
2, 46046, Note_on_c, 0, 74, 0
2, 46065, Note_on_c, 0, 74, 72
2, 46079, Note_on_c, 0, 72, 89
2, 46080, Note_on_c, 0, 74, 0
2, 46107, Note_on_c, 0, 72, 0
2, 46139, Note_on_c, 0, 71, 76
2, 46167, Note_on_c, 0, 71, 0
2, 46199, Note_on_c, 0, 72, 85
2, 46226, Note_on_c, 0, 72, 0
2, 46259, Note_on_c, 0, 74, 80
2, 46286, Note_on_c, 0, 74, 0
2, 46319, Note_on_c, 0, 77, 85
2, 46439, Note_on_c, 0, 75, 62
2, 46440, Note_on_c, 0, 77, 0
2, 46498, Note_on_c, 0, 75, 0
2, 46499, Note_on_c, 0, 69, 80
2, 46526, Note_on_c, 0, 69, 0
2, 46559, Note_on_c, 0, 70, 89
2, 46586, Note_on_c, 0, 70, 0
2, 46620, Note_on_c, 0, 70, 89
2, 46738, Note_on_c, 0, 70, 0
2, 46740, Note_on_c, 0, 71, 76
2, 46798, Note_on_c, 0, 71, 0
2, 46799, Note_on_c, 0, 72, 89
2, 46826, Note_on_c, 0, 72, 0
2, 46859, Note_on_c, 0, 72, 89
2, 46978, Note_on_c, 0, 72, 0
2, 46978, Note_on_c, 0, 73, 85
2, 47039, Note_on_c, 0, 74, 85
2, 47040, Note_on_c, 0, 73, 0
2, 47097, Note_on_c, 0, 74, 0
2, 47099, Note_on_c, 0, 72, 72
2, 47158, Note_on_c, 0, 72, 0
2, 47159, Note_on_c, 0, 74, 89
2, 47219, Note_on_c, 0, 75, 64
2, 47219, Note_on_c, 0, 72, 72
2, 47220, Note_on_c, 0, 74, 0
2, 47243, Control_c, 0, 64, 127
2, 47252, Note_on_c, 0, 75, 0
2, 47254, Note_on_c, 0, 72, 0
2, 47273, Control_c, 0, 64, 0
2, 47279, Note_on_c, 0, 70, 64
2, 47279, Note_on_c, 0, 74, 62
2, 47323, Control_c, 0, 64, 127
2, 47366, Note_on_c, 0, 70, 0
2, 47368, Note_on_c, 0, 74, 0
2, 47391, Control_c, 0, 64, 0
2, 47400, Note_on_c, 0, 72, 64
2, 47400, Note_on_c, 0, 69, 62
2, 47457, Note_on_c, 0, 69, 0
2, 47459, Note_on_c, 0, 72, 0
2, 47459, Note_on_c, 0, 70, 62
2, 47489, Note_on_c, 0, 70, 0
2, 47489, Note_on_c, 0, 72, 76
2, 47519, Note_on_c, 0, 72, 0
2, 47519, Note_on_c, 0, 74, 76
2, 47577, Note_on_c, 0, 74, 0
2, 47638, Note_on_c, 0, 75, 76
2, 47697, Note_on_c, 0, 75, 0
2, 47759, Note_on_c, 0, 76, 85
2, 47879, Note_on_c, 0, 77, 76
2, 47881, Note_on_c, 0, 76, 0
2, 47940, Note_on_c, 0, 74, 85
2, 47942, Note_on_c, 0, 77, 0
2, 47965, Note_on_c, 0, 74, 0
2, 47985, Note_on_c, 0, 74, 72
2, 48000, Note_on_c, 0, 74, 0
2, 48002, Note_on_c, 0, 72, 76
2, 48058, Note_on_c, 0, 72, 0
2, 48061, Note_on_c, 0, 71, 85
2, 48089, Note_on_c, 0, 71, 0
2, 48120, Note_on_c, 0, 72, 62
2, 48146, Note_on_c, 0, 72, 0
2, 48180, Note_on_c, 0, 74, 80
2, 48206, Note_on_c, 0, 74, 0
2, 48239, Note_on_c, 0, 77, 85
2, 48358, Note_on_c, 0, 77, 0
2, 48359, Note_on_c, 0, 75, 64
2, 48418, Note_on_c, 0, 75, 0
2, 48419, Note_on_c, 0, 69, 72
2, 48478, Note_on_c, 0, 69, 0
2, 48479, Note_on_c, 0, 70, 76
2, 48510, Control_c, 0, 64, 127
2, 48535, Note_on_c, 0, 70, 0
2, 48539, Note_on_c, 0, 82, 76
2, 48572, Note_on_c, 0, 82, 0
2, 48591, Control_c, 0, 64, 0
2, 48600, Note_on_c, 0, 82, 85
2, 48627, Note_on_c, 0, 82, 0
2, 48660, Note_on_c, 0, 82, 80
2, 48688, Note_on_c, 0, 82, 0
2, 48721, Note_on_c, 0, 72, 80
2, 48725, Control_c, 0, 64, 127
2, 48780, Note_on_c, 0, 72, 0
2, 48780, Note_on_c, 0, 79, 76
2, 48785, Control_c, 0, 64, 0
2, 48836, Note_on_c, 0, 79, 0
2, 48840, Note_on_c, 0, 79, 85
2, 48866, Note_on_c, 0, 79, 0
2, 48901, Note_on_c, 0, 79, 85
2, 48926, Note_on_c, 0, 79, 0
2, 48959, Note_on_c, 0, 70, 76
2, 49016, Note_on_c, 0, 70, 0
2, 49019, Note_on_c, 0, 70, 72
2, 49078, Note_on_c, 0, 70, 0
2, 49079, Note_on_c, 0, 74, 80
2, 49094, Note_on_c, 0, 74, 0
2, 49095, Note_on_c, 0, 72, 56
2, 49110, Note_on_c, 0, 72, 0
2, 49111, Note_on_c, 0, 70, 68
2, 49138, Note_on_c, 0, 70, 0
2, 49138, Note_on_c, 0, 72, 68
2, 49169, Note_on_c, 0, 74, 72
2, 49171, Note_on_c, 0, 72, 0
2, 49199, Note_on_c, 0, 70, 76
2, 49201, Note_on_c, 0, 74, 0
2, 49315, Note_on_c, 0, 70, 0
2, 49380, Note_on_c, 0, 70, 85
2, 49436, Note_on_c, 0, 70, 0
2, 49439, Note_on_c, 0, 82, 89
2, 49439, Note_on_c, 0, 79, 93
2, 49465, Note_on_c, 0, 79, 0
2, 49466, Note_on_c, 0, 82, 0
2, 49501, Note_on_c, 0, 79, 89
2, 49501, Note_on_c, 0, 82, 76
2, 49559, Control_c, 0, 64, 127
2, 49565, Note_on_c, 0, 82, 0
2, 49566, Note_on_c, 0, 79, 0
2, 49613, Control_c, 0, 64, 0
2, 49619, Note_on_c, 0, 75, 64
2, 49619, Note_on_c, 0, 79, 80
2, 49677, Note_on_c, 0, 75, 0
2, 49678, Note_on_c, 0, 79, 0
2, 49679, Note_on_c, 0, 74, 72
2, 49679, Note_on_c, 0, 77, 76
2, 49706, Note_on_c, 0, 77, 0
2, 49707, Note_on_c, 0, 74, 0
2, 49739, Note_on_c, 0, 77, 80
2, 49739, Note_on_c, 0, 74, 76
2, 49791, Control_c, 0, 64, 127
2, 49804, Note_on_c, 0, 77, 0
2, 49805, Note_on_c, 0, 74, 0
2, 49859, Note_on_c, 0, 70, 64
2, 49859, Note_on_c, 0, 74, 80
2, 49860, Control_c, 0, 64, 0
2, 49915, Note_on_c, 0, 74, 0
2, 49915, Note_on_c, 0, 70, 0
2, 49919, Note_on_c, 0, 72, 89
2, 49919, Note_on_c, 0, 69, 76
2, 49947, Note_on_c, 0, 69, 0
2, 49947, Note_on_c, 0, 72, 0
2, 49979, Note_on_c, 0, 69, 76
2, 49980, Note_on_c, 0, 72, 80
2, 50009, Note_on_c, 0, 72, 0
2, 50053, Control_c, 0, 64, 127
2, 50076, Note_on_c, 0, 69, 0
2, 50097, Control_c, 0, 64, 0
2, 50099, Note_on_c, 0, 75, 80
2, 50100, Note_on_c, 0, 72, 76
2, 50156, Note_on_c, 0, 72, 0
2, 50156, Note_on_c, 0, 75, 0
2, 50159, Note_on_c, 0, 73, 72
2, 50159, Note_on_c, 0, 69, 68
2, 50168, Control_c, 0, 64, 127
2, 50209, Control_c, 0, 64, 0
2, 50216, Note_on_c, 0, 69, 0
2, 50216, Note_on_c, 0, 73, 0
2, 50218, Note_on_c, 0, 74, 76
2, 50219, Note_on_c, 0, 70, 76
2, 50247, Note_on_c, 0, 70, 0
2, 50248, Note_on_c, 0, 74, 0
2, 50279, Note_on_c, 0, 70, 64
2, 50279, Note_on_c, 0, 74, 76
2, 50284, Control_c, 0, 64, 127
2, 50312, Note_on_c, 0, 74, 0
2, 50312, Note_on_c, 0, 70, 0
2, 50339, Note_on_c, 0, 70, 85
2, 50339, Control_c, 0, 64, 0
2, 50397, Note_on_c, 0, 70, 0
2, 50399, Note_on_c, 0, 82, 89
2, 50399, Note_on_c, 0, 79, 89
2, 50426, Note_on_c, 0, 79, 0
2, 50427, Note_on_c, 0, 82, 0
2, 50459, Note_on_c, 0, 79, 89
2, 50459, Note_on_c, 0, 82, 72
2, 50509, Control_c, 0, 64, 127
2, 50522, Note_on_c, 0, 79, 0
2, 50523, Note_on_c, 0, 82, 0
2, 50580, Note_on_c, 0, 75, 62
2, 50580, Note_on_c, 0, 79, 76
2, 50584, Control_c, 0, 64, 0
2, 50637, Note_on_c, 0, 75, 0
2, 50638, Note_on_c, 0, 79, 0
2, 50639, Note_on_c, 0, 74, 62
2, 50639, Note_on_c, 0, 77, 76
2, 50666, Note_on_c, 0, 74, 0
2, 50667, Note_on_c, 0, 77, 0
2, 50699, Note_on_c, 0, 74, 72
2, 50699, Note_on_c, 0, 77, 72
2, 50752, Control_c, 0, 64, 127
2, 50763, Note_on_c, 0, 74, 0
2, 50765, Note_on_c, 0, 77, 0
2, 50819, Note_on_c, 0, 74, 80
2, 50819, Note_on_c, 0, 70, 68
2, 50847, Note_on_c, 0, 70, 0
2, 50847, Note_on_c, 0, 74, 0
2, 50856, Control_c, 0, 64, 0
2, 50879, Note_on_c, 0, 72, 80
2, 50879, Note_on_c, 0, 69, 68
2, 50907, Note_on_c, 0, 69, 0
2, 50908, Note_on_c, 0, 72, 0
2, 50939, Note_on_c, 0, 69, 72
2, 50939, Note_on_c, 0, 72, 76
2, 50991, Control_c, 0, 64, 127
2, 51005, Note_on_c, 0, 69, 0
2, 51006, Note_on_c, 0, 72, 0
2, 51059, Note_on_c, 0, 72, 72
2, 51059, Note_on_c, 0, 75, 64
2, 51088, Note_on_c, 0, 75, 0
2, 51088, Note_on_c, 0, 72, 0
2, 51115, Control_c, 0, 64, 0
2, 51119, Note_on_c, 0, 73, 76
2, 51119, Note_on_c, 0, 69, 64
2, 51144, Control_c, 0, 64, 127
2, 51173, Control_c, 0, 64, 0
2, 51178, Note_on_c, 0, 69, 0
2, 51178, Note_on_c, 0, 73, 0
2, 51179, Note_on_c, 0, 74, 64
2, 51179, Note_on_c, 0, 70, 62
2, 51235, Note_on_c, 0, 70, 0
2, 51235, Note_on_c, 0, 74, 0
2, 51239, Note_on_c, 0, 70, 62
2, 51240, Note_on_c, 0, 74, 76
2, 51242, Control_c, 0, 64, 127
2, 51273, Note_on_c, 0, 74, 0
2, 51274, Note_on_c, 0, 70, 0
2, 51288, Control_c, 0, 64, 0
2, 51301, Note_on_c, 0, 70, 80
2, 51361, Note_on_c, 0, 82, 80
2, 51362, Note_on_c, 0, 70, 0
2, 51373, Control_c, 0, 64, 127
2, 51390, Control_c, 0, 64, 0
2, 51414, Note_on_c, 0, 82, 0
2, 51421, Note_on_c, 0, 82, 68
2, 51450, Note_on_c, 0, 82, 0
2, 51482, Note_on_c, 0, 82, 64
2, 51510, Note_on_c, 0, 82, 0
2, 51541, Note_on_c, 0, 82, 76
2, 51569, Note_on_c, 0, 82, 0
2, 51599, Note_on_c, 0, 76, 89
2, 51630, Note_on_c, 0, 76, 0
2, 51661, Note_on_c, 0, 76, 80
2, 51688, Note_on_c, 0, 76, 0
2, 51719, Note_on_c, 0, 76, 80
2, 51749, Note_on_c, 0, 76, 0
2, 51779, Note_on_c, 0, 76, 80
2, 51809, Note_on_c, 0, 76, 0
2, 51839, Note_on_c, 0, 84, 93
2, 51869, Note_on_c, 0, 84, 0
2, 51899, Note_on_c, 0, 84, 80
2, 51928, Note_on_c, 0, 84, 0
2, 51959, Note_on_c, 0, 84, 89
2, 51988, Note_on_c, 0, 84, 0
2, 52019, Note_on_c, 0, 84, 85
2, 52049, Note_on_c, 0, 84, 0
2, 52079, Note_on_c, 0, 75, 93
2, 52109, Note_on_c, 0, 75, 0
2, 52139, Note_on_c, 0, 75, 89
2, 52169, Note_on_c, 0, 75, 0
2, 52199, Note_on_c, 0, 75, 89
2, 52229, Note_on_c, 0, 75, 0
2, 52258, Note_on_c, 0, 75, 89
2, 52287, Note_on_c, 0, 75, 0
2, 52319, Note_on_c, 0, 74, 93
2, 52349, Note_on_c, 0, 74, 0
2, 52379, Note_on_c, 0, 82, 89
2, 52409, Note_on_c, 0, 82, 0
2, 52438, Note_on_c, 0, 81, 93
2, 52468, Note_on_c, 0, 81, 0
2, 52499, Note_on_c, 0, 80, 93
2, 52527, Note_on_c, 0, 80, 0
2, 52559, Note_on_c, 0, 79, 85
2, 52588, Note_on_c, 0, 79, 0
2, 52619, Note_on_c, 0, 78, 72
2, 52647, Note_on_c, 0, 78, 0
2, 52678, Note_on_c, 0, 77, 80
2, 52707, Note_on_c, 0, 77, 0
2, 52738, Note_on_c, 0, 76, 85
2, 52768, Note_on_c, 0, 76, 0
2, 52799, Note_on_c, 0, 77, 85
2, 52808, Control_c, 0, 64, 127
2, 52841, Control_c, 0, 64, 0
2, 52859, Note_on_c, 0, 77, 0
2, 52859, Note_on_c, 0, 74, 76
2, 52868, Control_c, 0, 64, 127
2, 52889, Note_on_c, 0, 74, 0
2, 52911, Control_c, 0, 64, 0
2, 52919, Note_on_c, 0, 69, 85
2, 52919, Note_on_c, 0, 72, 89
2, 52958, Control_c, 0, 64, 127
2, 52975, Control_c, 0, 64, 0
2, 52980, Note_on_c, 0, 72, 0
2, 52980, Note_on_c, 0, 77, 80
2, 53006, Control_c, 0, 64, 127
2, 53018, Control_c, 0, 64, 0
2, 53036, Note_on_c, 0, 77, 0
2, 53036, Note_on_c, 0, 69, 0
2, 53041, Note_on_c, 0, 72, 76
2, 53041, Note_on_c, 0, 75, 68
2, 53158, Note_on_c, 0, 72, 0
2, 53159, Note_on_c, 0, 75, 0
2, 53161, Note_on_c, 0, 70, 64
2, 53161, Note_on_c, 0, 74, 76
2, 53252, Note_on_c, 0, 74, 0
2, 53252, Note_on_c, 0, 70, 0
2, 53339, Note_on_c, 0, 78, 85
2, 53397, Note_on_c, 0, 78, 0
2, 53399, Note_on_c, 0, 79, 93
2, 53458, Note_on_c, 0, 79, 0
2, 53459, Note_on_c, 0, 82, 80
2, 53518, Note_on_c, 0, 82, 0
2, 53519, Note_on_c, 0, 85, 93
2, 53612, Note_on_c, 0, 87, 72
2, 53613, Note_on_c, 0, 85, 0
2, 53625, Note_on_c, 0, 85, 76
2, 53627, Note_on_c, 0, 87, 0
2, 53640, Note_on_c, 0, 85, 0
2, 53643, Note_on_c, 0, 84, 80
2, 53701, Note_on_c, 0, 84, 0
2, 53702, Note_on_c, 0, 82, 76
2, 53758, Note_on_c, 0, 82, 0
2, 53762, Note_on_c, 0, 81, 89
2, 53770, Control_c, 0, 64, 127
2, 53792, Note_on_c, 0, 81, 0
2, 53823, Note_on_c, 0, 69, 80
2, 53826, Control_c, 0, 64, 0
2, 53877, Note_on_c, 0, 69, 0
2, 53879, Note_on_c, 0, 72, 89
2, 53940, Note_on_c, 0, 75, 76
2, 53942, Note_on_c, 0, 72, 0
2, 53998, Note_on_c, 0, 75, 0
2, 53999, Note_on_c, 0, 78, 80
2, 54004, Control_c, 0, 64, 127
2, 54031, Note_on_c, 0, 78, 0
2, 54090, Note_on_c, 0, 80, 68
2, 54100, Control_c, 0, 64, 0
2, 54105, Note_on_c, 0, 80, 0
2, 54105, Note_on_c, 0, 78, 64
2, 54120, Note_on_c, 0, 78, 0
2, 54121, Note_on_c, 0, 77, 68
2, 54177, Note_on_c, 0, 77, 0
2, 54178, Note_on_c, 0, 75, 76
2, 54237, Note_on_c, 0, 75, 0
2, 54238, Note_on_c, 0, 74, 89
2, 54267, Note_on_c, 0, 74, 0
2, 54298, Note_on_c, 0, 70, 76
2, 54326, Note_on_c, 0, 70, 0
2, 54358, Note_on_c, 0, 72, 89
2, 54387, Note_on_c, 0, 72, 0
2, 54419, Note_on_c, 0, 74, 89
2, 54447, Note_on_c, 0, 74, 0
2, 54479, Note_on_c, 0, 75, 89
2, 54506, Note_on_c, 0, 75, 0
2, 54539, Note_on_c, 0, 76, 89
2, 54567, Note_on_c, 0, 76, 0
2, 54599, Note_on_c, 0, 77, 89
2, 54627, Note_on_c, 0, 77, 0
2, 54659, Note_on_c, 0, 78, 76
2, 54687, Note_on_c, 0, 78, 0
2, 54719, Note_on_c, 0, 79, 89
2, 54728, Control_c, 0, 64, 127
2, 54775, Note_on_c, 0, 79, 0
2, 54838, Control_c, 0, 64, 0
2, 54841, Note_on_c, 0, 79, 102
2, 54841, Note_on_c, 0, 82, 93
2, 54841, Note_on_c, 0, 73, 89
2, 54862, Control_c, 0, 64, 127
2, 54899, Note_on_c, 0, 73, 0
2, 54903, Note_on_c, 0, 82, 0
2, 54903, Note_on_c, 0, 79, 0
2, 54975, Control_c, 0, 64, 0
2, 55018, Note_on_c, 0, 79, 93
2, 55079, Note_on_c, 0, 81, 93
2, 55080, Note_on_c, 0, 79, 0
2, 55137, Note_on_c, 0, 81, 0
2, 55138, Note_on_c, 0, 82, 105
2, 55176, Note_on_c, 0, 82, 0
2, 55198, Note_on_c, 0, 82, 105
2, 55228, Note_on_c, 0, 84, 89
2, 55229, Note_on_c, 0, 82, 0
2, 55258, Note_on_c, 0, 86, 72
2, 55261, Note_on_c, 0, 84, 0
2, 55288, Note_on_c, 0, 87, 62
2, 55289, Note_on_c, 0, 86, 0
2, 55318, Note_on_c, 0, 89, 85
2, 55319, Note_on_c, 0, 87, 0
2, 55348, Note_on_c, 0, 87, 72
2, 55351, Note_on_c, 0, 89, 0
2, 55378, Note_on_c, 0, 86, 85
2, 55379, Note_on_c, 0, 87, 0
2, 55408, Note_on_c, 0, 84, 68
2, 55409, Note_on_c, 0, 86, 0
2, 55438, Note_on_c, 0, 82, 72
2, 55439, Note_on_c, 0, 84, 0
2, 55468, Note_on_c, 0, 82, 0
2, 55468, Note_on_c, 0, 81, 57
2, 55498, Note_on_c, 0, 79, 60
2, 55499, Note_on_c, 0, 81, 0
2, 55528, Note_on_c, 0, 79, 0
2, 55529, Note_on_c, 0, 77, 85
2, 55558, Note_on_c, 0, 75, 68
2, 55561, Note_on_c, 0, 77, 0
2, 55589, Note_on_c, 0, 74, 64
2, 55591, Note_on_c, 0, 75, 0
2, 55619, Note_on_c, 0, 72, 76
2, 55621, Note_on_c, 0, 74, 0
2, 55648, Note_on_c, 0, 72, 0
2, 55649, Note_on_c, 0, 70, 55
2, 55678, Note_on_c, 0, 70, 0
2, 55681, Note_on_c, 0, 74, 76
2, 55694, Note_on_c, 0, 74, 0
2, 55696, Note_on_c, 0, 72, 68
2, 55711, Note_on_c, 0, 72, 0
2, 55711, Note_on_c, 0, 74, 64
2, 55725, Note_on_c, 0, 74, 0
2, 55726, Note_on_c, 0, 72, 68
2, 55740, Note_on_c, 0, 72, 0
2, 55741, Note_on_c, 0, 74, 72
2, 55755, Note_on_c, 0, 72, 72
2, 55756, Note_on_c, 0, 74, 0
2, 55769, Note_on_c, 0, 72, 0
2, 55770, Note_on_c, 0, 74, 60
2, 55784, Note_on_c, 0, 74, 0
2, 55784, Note_on_c, 0, 72, 62
2, 55799, Note_on_c, 0, 72, 0
2, 55799, Note_on_c, 0, 74, 76
2, 55814, Note_on_c, 0, 74, 0
2, 55814, Note_on_c, 0, 72, 76
2, 55829, Note_on_c, 0, 72, 0
2, 55829, Note_on_c, 0, 74, 64
2, 55844, Note_on_c, 0, 74, 0
2, 55844, Note_on_c, 0, 72, 64
2, 55859, Note_on_c, 0, 72, 0
2, 55859, Note_on_c, 0, 74, 64
2, 55873, Note_on_c, 0, 72, 60
2, 55874, Note_on_c, 0, 74, 0
2, 55889, Note_on_c, 0, 72, 0
2, 55890, Note_on_c, 0, 74, 59
2, 55905, Note_on_c, 0, 72, 64
2, 55906, Note_on_c, 0, 74, 0
2, 55918, Note_on_c, 0, 74, 72
2, 55920, Note_on_c, 0, 72, 0
2, 55934, Note_on_c, 0, 74, 0
2, 55935, Note_on_c, 0, 72, 62
2, 55950, Note_on_c, 0, 74, 72
2, 55959, Note_on_c, 0, 72, 0
2, 55965, Note_on_c, 0, 72, 68
2, 55966, Note_on_c, 0, 74, 0
2, 55980, Note_on_c, 0, 72, 0
2, 55980, Note_on_c, 0, 74, 62
2, 55995, Note_on_c, 0, 74, 0
2, 55995, Note_on_c, 0, 72, 68
2, 56009, Note_on_c, 0, 72, 0
2, 56010, Note_on_c, 0, 74, 64
2, 56025, Note_on_c, 0, 72, 68
2, 56026, Note_on_c, 0, 74, 0
2, 56038, Note_on_c, 0, 74, 72
2, 56040, Note_on_c, 0, 72, 0
2, 56053, Note_on_c, 0, 72, 59
2, 56054, Note_on_c, 0, 74, 0
2, 56068, Note_on_c, 0, 74, 64
2, 56069, Note_on_c, 0, 72, 0
2, 56083, Note_on_c, 0, 72, 68
2, 56084, Note_on_c, 0, 74, 0
2, 56099, Note_on_c, 0, 72, 0
2, 56099, Note_on_c, 0, 74, 60
2, 56113, Note_on_c, 0, 72, 60
2, 56114, Note_on_c, 0, 74, 0
2, 56129, Note_on_c, 0, 70, 68
2, 56131, Note_on_c, 0, 72, 0
2, 56144, Note_on_c, 0, 70, 0
2, 56144, Note_on_c, 0, 72, 72
2, 56159, Note_on_c, 0, 70, 76
2, 56161, Note_on_c, 0, 72, 0
2, 56248, Note_on_c, 0, 70, 0
2, 56419, Control_c, 0, 64, 127
2, 56458, Control_c, 0, 64, 0
2, 56461, Note_on_c, 0, 74, 76
2, 56461, Note_on_c, 0, 77, 80
2, 56521, Note_on_c, 0, 74, 0
2, 56521, Note_on_c, 0, 75, 68
2, 56521, Note_on_c, 0, 72, 76
2, 56522, Note_on_c, 0, 77, 0
2, 56580, Note_on_c, 0, 72, 0
2, 56581, Note_on_c, 0, 70, 56
2, 56581, Note_on_c, 0, 74, 89
2, 56583, Note_on_c, 0, 75, 0
2, 56639, Note_on_c, 0, 74, 0
2, 56640, Note_on_c, 0, 70, 0
2, 56641, Note_on_c, 0, 75, 68
2, 56641, Note_on_c, 0, 79, 85
2, 56761, Note_on_c, 0, 75, 0
2, 56763, Note_on_c, 0, 79, 0
2, 56940, Note_on_c, 0, 79, 76
2, 56940, Note_on_c, 0, 75, 59
2, 56997, Note_on_c, 0, 79, 0
2, 56999, Note_on_c, 0, 81, 89
2, 56999, Note_on_c, 0, 77, 80
2, 57002, Note_on_c, 0, 75, 0
2, 57058, Note_on_c, 0, 77, 0
2, 57058, Note_on_c, 0, 81, 0
2, 57059, Note_on_c, 0, 82, 76
2, 57060, Note_on_c, 0, 79, 72
2, 57118, Note_on_c, 0, 82, 0
2, 57119, Note_on_c, 0, 79, 0
2, 57119, Note_on_c, 0, 77, 76
2, 57119, Note_on_c, 0, 74, 80
2, 57238, Note_on_c, 0, 74, 0
2, 57238, Note_on_c, 0, 77, 0
2, 57419, Note_on_c, 0, 70, 76
2, 57419, Note_on_c, 0, 74, 89
2, 57478, Note_on_c, 0, 74, 0
2, 57479, Note_on_c, 0, 75, 76
2, 57480, Note_on_c, 0, 72, 80
2, 57481, Note_on_c, 0, 70, 0
2, 57537, Note_on_c, 0, 75, 0
2, 57539, Note_on_c, 0, 77, 62
2, 57539, Note_on_c, 0, 74, 72
2, 57541, Note_on_c, 0, 72, 0
2, 57599, Note_on_c, 0, 74, 0
2, 57599, Note_on_c, 0, 75, 72
2, 57599, Note_on_c, 0, 72, 80
2, 57600, Note_on_c, 0, 77, 0
2, 57696, Note_on_c, 0, 72, 0
2, 57696, Note_on_c, 0, 75, 0
2, 57899, Note_on_c, 0, 65, 89
2, 57958, Note_on_c, 0, 65, 0
2, 57958, Note_on_c, 0, 64, 80
2, 57959, Note_on_c, 0, 67, 89
2, 58016, Note_on_c, 0, 67, 0
2, 58017, Note_on_c, 0, 64, 0
2, 58018, Note_on_c, 0, 69, 64
2, 58018, Note_on_c, 0, 63, 72
2, 58079, Note_on_c, 0, 70, 89
2, 58079, Note_on_c, 0, 62, 89
2, 58080, Note_on_c, 0, 63, 0
2, 58080, Note_on_c, 0, 69, 0
2, 58135, Note_on_c, 0, 70, 0
2, 58136, Note_on_c, 0, 62, 0
2, 58199, Note_on_c, 0, 74, 85
2, 58199, Note_on_c, 0, 65, 80
2, 58235, Note_on_c, 0, 65, 0
2, 58235, Note_on_c, 0, 74, 0
2, 58319, Note_on_c, 0, 70, 76
2, 58319, Note_on_c, 0, 62, 72
2, 58407, Note_on_c, 0, 70, 0
2, 58410, Note_on_c, 0, 62, 0
2, 58560, Control_c, 0, 121, 0
2, 58560, End_track
3, 0, Start_track
3, 0, MIDI_port, 0
3, 0, Program_c, 1, 0
3, 0, Control_c, 1, 7, 127
3, 0, Control_c, 1, 10, 44
3, 0, Control_c, 1, 121, 0
3, 0, Control_c, 1, 91, 75
3, 481, Note_on_c, 1, 58, 52
3, 509, Control_c, 1, 64, 127
3, 541, Note_on_c, 1, 65, 33
3, 545, Note_on_c, 1, 58, 0
3, 596, Note_on_c, 1, 65, 0
3, 601, Note_on_c, 1, 60, 66
3, 603, Control_c, 1, 64, 0
3, 630, Control_c, 1, 64, 127
3, 661, Note_on_c, 1, 60, 0
3, 661, Note_on_c, 1, 65, 37
3, 718, Note_on_c, 1, 65, 0
3, 719, Note_on_c, 1, 62, 70
3, 719, Control_c, 1, 64, 0
3, 741, Control_c, 1, 64, 127
3, 778, Note_on_c, 1, 62, 0
3, 781, Note_on_c, 1, 65, 42
3, 836, Control_c, 1, 64, 0
3, 838, Note_on_c, 1, 65, 0
3, 839, Note_on_c, 1, 58, 52
3, 865, Control_c, 1, 64, 127
3, 899, Note_on_c, 1, 58, 0
3, 900, Note_on_c, 1, 65, 27
3, 954, Note_on_c, 1, 65, 0
3, 958, Control_c, 1, 64, 0
3, 961, Note_on_c, 1, 57, 66
3, 984, Control_c, 1, 64, 127
3, 1016, Note_on_c, 1, 57, 0
3, 1019, Note_on_c, 1, 65, 32
3, 1071, Control_c, 1, 64, 0
3, 1078, Note_on_c, 1, 65, 0
3, 1079, Note_on_c, 1, 58, 52
3, 1096, Control_c, 1, 64, 127
3, 1136, Note_on_c, 1, 58, 0
3, 1139, Note_on_c, 1, 65, 27
3, 1194, Control_c, 1, 64, 0
3, 1197, Note_on_c, 1, 65, 0
3, 1199, Note_on_c, 1, 60, 66
3, 1219, Control_c, 1, 64, 127
3, 1236, Note_on_c, 1, 60, 0
3, 1259, Note_on_c, 1, 65, 29
3, 1316, Control_c, 1, 64, 0
3, 1317, Note_on_c, 1, 65, 0
3, 1319, Note_on_c, 1, 63, 58
3, 1343, Control_c, 1, 64, 127
3, 1377, Note_on_c, 1, 63, 0
3, 1379, Note_on_c, 1, 65, 41
3, 1436, Control_c, 1, 64, 0
3, 1438, Note_on_c, 1, 65, 0
3, 1439, Note_on_c, 1, 62, 66
3, 1458, Control_c, 1, 64, 127
3, 1495, Note_on_c, 1, 62, 0
3, 1499, Note_on_c, 1, 65, 33
3, 1557, Control_c, 1, 64, 0
3, 1558, Note_on_c, 1, 65, 0
3, 1560, Note_on_c, 1, 62, 62
3, 1572, Control_c, 1, 64, 127
3, 1616, Note_on_c, 1, 62, 0
3, 1619, Note_on_c, 1, 65, 40
3, 1675, Control_c, 1, 64, 0
3, 1678, Note_on_c, 1, 65, 0
3, 1679, Note_on_c, 1, 57, 70
3, 1698, Control_c, 1, 64, 127
3, 1735, Note_on_c, 1, 57, 0
3, 1738, Note_on_c, 1, 65, 36
3, 1798, Control_c, 1, 64, 0
3, 1799, Note_on_c, 1, 65, 0
3, 1799, Note_on_c, 1, 57, 62
3, 1817, Control_c, 1, 64, 127
3, 1857, Note_on_c, 1, 57, 0
3, 1859, Note_on_c, 1, 65, 47
3, 1890, Note_on_c, 1, 65, 0
3, 1914, Control_c, 1, 64, 0
3, 1919, Note_on_c, 1, 58, 58
3, 1978, Note_on_c, 1, 58, 0
3, 1979, Note_on_c, 1, 57, 58
3, 2038, Note_on_c, 1, 57, 0
3, 2039, Note_on_c, 1, 58, 52
3, 2098, Note_on_c, 1, 58, 0
3, 2099, Note_on_c, 1, 51, 54
3, 2161, Note_on_c, 1, 53, 49
3, 2162, Note_on_c, 1, 51, 0
3, 2283, Note_on_c, 1, 53, 0
3, 2402, Note_on_c, 1, 58, 66
3, 2421, Control_c, 1, 64, 127
3, 2461, Note_on_c, 1, 58, 0
3, 2462, Note_on_c, 1, 65, 40
3, 2515, Note_on_c, 1, 65, 0
3, 2521, Note_on_c, 1, 60, 70
3, 2528, Control_c, 1, 64, 0
3, 2549, Control_c, 1, 64, 127
3, 2580, Note_on_c, 1, 60, 0
3, 2582, Note_on_c, 1, 65, 46
3, 2640, Note_on_c, 1, 65, 0
3, 2641, Control_c, 1, 64, 0
3, 2641, Note_on_c, 1, 62, 54
3, 2667, Control_c, 1, 64, 127
3, 2699, Note_on_c, 1, 62, 0
3, 2702, Note_on_c, 1, 65, 40
3, 2760, Note_on_c, 1, 65, 0
3, 2763, Control_c, 1, 64, 0
3, 2764, Note_on_c, 1, 58, 50
3, 2794, Control_c, 1, 64, 127
3, 2820, Note_on_c, 1, 65, 36
3, 2824, Note_on_c, 1, 58, 0
3, 2872, Note_on_c, 1, 65, 0
3, 2882, Note_on_c, 1, 57, 54
3, 2890, Control_c, 1, 64, 0
3, 2937, Note_on_c, 1, 57, 0
3, 2938, Control_c, 1, 64, 127
3, 2939, Note_on_c, 1, 65, 49
3, 2999, Note_on_c, 1, 65, 0
3, 2999, Control_c, 1, 64, 0
3, 3001, Note_on_c, 1, 58, 52
3, 3029, Control_c, 1, 64, 127
3, 3058, Note_on_c, 1, 58, 0
3, 3061, Note_on_c, 1, 65, 40
3, 3118, Note_on_c, 1, 65, 0
3, 3119, Note_on_c, 1, 60, 66
3, 3119, Control_c, 1, 64, 0
3, 3149, Control_c, 1, 64, 127
3, 3178, Note_on_c, 1, 60, 0
3, 3180, Note_on_c, 1, 65, 38
3, 3238, Note_on_c, 1, 65, 0
3, 3239, Control_c, 1, 64, 0
3, 3240, Note_on_c, 1, 63, 50
3, 3268, Control_c, 1, 64, 127
3, 3298, Note_on_c, 1, 63, 0
3, 3299, Note_on_c, 1, 65, 47
3, 3353, Control_c, 1, 64, 0
3, 3357, Note_on_c, 1, 65, 0
3, 3359, Note_on_c, 1, 62, 62
3, 3386, Control_c, 1, 64, 127
3, 3485, Note_on_c, 1, 62, 0
3, 3487, Control_c, 1, 64, 0
3, 3599, Note_on_c, 1, 63, 47
3, 3599, Note_on_c, 1, 67, 45
3, 3611, Control_c, 1, 64, 127
3, 3718, Note_on_c, 1, 63, 0
3, 3720, Note_on_c, 1, 67, 0
3, 3724, Control_c, 1, 64, 0
3, 3841, Note_on_c, 1, 53, 58
3, 3841, Note_on_c, 1, 62, 52
3, 3855, Control_c, 1, 64, 127
3, 3903, Note_on_c, 1, 62, 0
3, 3956, Control_c, 1, 64, 0
3, 3957, Note_on_c, 1, 63, 52
3, 3991, Control_c, 1, 64, 127
3, 4018, Note_on_c, 1, 53, 0
3, 4022, Note_on_c, 1, 63, 0
3, 4074, Control_c, 1, 64, 0
3, 4080, Note_on_c, 1, 58, 50
3, 4081, Note_on_c, 1, 62, 45
3, 4098, Control_c, 1, 64, 127
3, 4199, Control_c, 1, 64, 0
3, 4202, Note_on_c, 1, 62, 0
3, 4202, Note_on_c, 1, 58, 0
3, 4319, Note_on_c, 1, 53, 62
3, 4334, Control_c, 1, 64, 127
3, 4381, Note_on_c, 1, 57, 54
3, 4383, Note_on_c, 1, 53, 0
3, 4430, Control_c, 1, 64, 0
3, 4441, Note_on_c, 1, 55, 75
3, 4442, Note_on_c, 1, 57, 0
3, 4494, Control_c, 1, 64, 127
3, 4500, Note_on_c, 1, 55, 0
3, 4501, Note_on_c, 1, 58, 26
3, 4560, Note_on_c, 1, 58, 0
3, 4560, Control_c, 1, 64, 0
3, 4561, Note_on_c, 1, 57, 66
3, 4620, Control_c, 1, 64, 127
3, 4621, Note_on_c, 1, 57, 0
3, 4621, Note_on_c, 1, 60, 46
3, 4673, Control_c, 1, 64, 0
3, 4678, Note_on_c, 1, 60, 0
3, 4681, Note_on_c, 1, 58, 58
3, 4718, Control_c, 1, 64, 127
3, 4739, Note_on_c, 1, 58, 0
3, 4741, Note_on_c, 1, 65, 52
3, 4802, Note_on_c, 1, 65, 0
3, 4803, Note_on_c, 1, 63, 62
3, 4816, Control_c, 1, 64, 0
3, 4977, Note_on_c, 1, 63, 0
3, 4979, Note_on_c, 1, 64, 66
3, 5041, Note_on_c, 1, 64, 0
3, 5041, Note_on_c, 1, 65, 54
3, 5177, Note_on_c, 1, 65, 0
3, 5281, Note_on_c, 1, 53, 66
3, 5299, Control_c, 1, 64, 127
3, 5340, Note_on_c, 1, 53, 0
3, 5341, Note_on_c, 1, 57, 46
3, 5397, Note_on_c, 1, 57, 0
3, 5401, Note_on_c, 1, 55, 66
3, 5407, Control_c, 1, 64, 0
3, 5445, Control_c, 1, 64, 127
3, 5460, Note_on_c, 1, 55, 0
3, 5461, Note_on_c, 1, 58, 40
3, 5465, Control_c, 1, 64, 0
3, 5520, Note_on_c, 1, 58, 0
3, 5521, Note_on_c, 1, 57, 62
3, 5524, Control_c, 1, 64, 127
3, 5560, Control_c, 1, 64, 0
3, 5578, Note_on_c, 1, 57, 0
3, 5581, Note_on_c, 1, 60, 46
3, 5593, Control_c, 1, 64, 127
3, 5622, Control_c, 1, 64, 0
3, 5638, Note_on_c, 1, 60, 0
3, 5639, Note_on_c, 1, 58, 62
3, 5655, Control_c, 1, 64, 127
3, 5697, Note_on_c, 1, 58, 0
3, 5699, Note_on_c, 1, 65, 62
3, 5729, Note_on_c, 1, 65, 0
3, 5760, Control_c, 1, 64, 0
3, 5761, Note_on_c, 1, 67, 70
3, 5761, Note_on_c, 1, 70, 54
3, 5878, Control_c, 1, 64, 127
3, 5934, Note_on_c, 1, 67, 0
3, 5938, Note_on_c, 1, 70, 0
3, 5999, Note_on_c, 1, 65, 52
3, 5999, Note_on_c, 1, 69, 41
3, 6007, Control_c, 1, 64, 0
3, 6124, Note_on_c, 1, 65, 0
3, 6125, Note_on_c, 1, 69, 0
3, 6238, Note_on_c, 1, 67, 66
3, 6238, Note_on_c, 1, 70, 62
3, 6349, Control_c, 1, 64, 127
3, 6423, Note_on_c, 1, 67, 0
3, 6426, Note_on_c, 1, 70, 0
3, 6481, Note_on_c, 1, 65, 46
3, 6481, Note_on_c, 1, 69, 38
3, 6487, Control_c, 1, 64, 0
3, 6524, Control_c, 1, 64, 127
3, 6568, Note_on_c, 1, 65, 0
3, 6571, Note_on_c, 1, 69, 0
3, 6637, Control_c, 1, 64, 0
3, 6720, Note_on_c, 1, 70, 54
3, 6721, Note_on_c, 1, 67, 66
3, 6781, Control_c, 1, 64, 127
3, 6896, Note_on_c, 1, 67, 0
3, 6898, Note_on_c, 1, 70, 0
3, 6955, Control_c, 1, 64, 0
3, 6959, Note_on_c, 1, 69, 50
3, 6959, Note_on_c, 1, 65, 54
3, 6984, Control_c, 1, 64, 127
3, 7080, Note_on_c, 1, 69, 0
3, 7081, Note_on_c, 1, 65, 0
3, 7085, Control_c, 1, 64, 0
3, 7199, Note_on_c, 1, 58, 50
3, 7210, Control_c, 1, 64, 127
3, 7261, Note_on_c, 1, 65, 39
3, 7262, Note_on_c, 1, 58, 0
3, 7321, Note_on_c, 1, 65, 0
3, 7321, Control_c, 1, 64, 0
3, 7321, Note_on_c, 1, 60, 66
3, 7348, Control_c, 1, 64, 127
3, 7380, Note_on_c, 1, 60, 0
3, 7381, Note_on_c, 1, 65, 37
3, 7440, Note_on_c, 1, 65, 0
3, 7440, Note_on_c, 1, 62, 54
3, 7443, Control_c, 1, 64, 0
3, 7471, Control_c, 1, 64, 127
3, 7501, Note_on_c, 1, 62, 0
3, 7502, Note_on_c, 1, 65, 31
3, 7558, Note_on_c, 1, 65, 0
3, 7559, Control_c, 1, 64, 0
3, 7560, Note_on_c, 1, 58, 62
3, 7586, Control_c, 1, 64, 127
3, 7621, Note_on_c, 1, 58, 0
3, 7622, Note_on_c, 1, 65, 42
3, 7678, Note_on_c, 1, 65, 0
3, 7679, Control_c, 1, 64, 0
3, 7681, Note_on_c, 1, 57, 62
3, 7707, Control_c, 1, 64, 127
3, 7738, Note_on_c, 1, 57, 0
3, 7741, Note_on_c, 1, 65, 36
3, 7796, Control_c, 1, 64, 0
3, 7798, Note_on_c, 1, 65, 0
3, 7799, Note_on_c, 1, 58, 52
3, 7821, Control_c, 1, 64, 127
3, 7859, Note_on_c, 1, 58, 0
3, 7861, Note_on_c, 1, 65, 40
3, 7918, Note_on_c, 1, 65, 0
3, 7919, Note_on_c, 1, 60, 62
3, 7920, Control_c, 1, 64, 0
3, 7946, Control_c, 1, 64, 127
3, 7978, Note_on_c, 1, 60, 0
3, 7980, Note_on_c, 1, 65, 35
3, 8035, Control_c, 1, 64, 0
3, 8038, Note_on_c, 1, 65, 0
3, 8039, Note_on_c, 1, 63, 62
3, 8062, Control_c, 1, 64, 127
3, 8098, Note_on_c, 1, 63, 0
3, 8099, Note_on_c, 1, 65, 41
3, 8152, Control_c, 1, 64, 0
3, 8158, Note_on_c, 1, 65, 0
3, 8158, Note_on_c, 1, 62, 58
3, 8176, Control_c, 1, 64, 127
3, 8217, Note_on_c, 1, 62, 0
3, 8219, Note_on_c, 1, 65, 26
3, 8270, Control_c, 1, 64, 0
3, 8276, Note_on_c, 1, 65, 0
3, 8278, Note_on_c, 1, 62, 52
3, 8290, Control_c, 1, 64, 127
3, 8336, Note_on_c, 1, 62, 0
3, 8339, Note_on_c, 1, 65, 32
3, 8392, Control_c, 1, 64, 0
3, 8397, Note_on_c, 1, 65, 0
3, 8398, Note_on_c, 1, 57, 58
3, 8415, Control_c, 1, 64, 127
3, 8456, Note_on_c, 1, 57, 0
3, 8458, Note_on_c, 1, 65, 33
3, 8512, Control_c, 1, 64, 0
3, 8517, Note_on_c, 1, 65, 0
3, 8519, Note_on_c, 1, 57, 62
3, 8534, Control_c, 1, 64, 127
3, 8577, Note_on_c, 1, 57, 0
3, 8579, Note_on_c, 1, 65, 62
3, 8615, Control_c, 1, 64, 0
3, 8639, Note_on_c, 1, 58, 52
3, 8640, Note_on_c, 1, 65, 0
3, 8699, Note_on_c, 1, 58, 0
3, 8699, Note_on_c, 1, 57, 79
3, 8759, Note_on_c, 1, 57, 0
3, 8759, Note_on_c, 1, 58, 70
3, 8817, Note_on_c, 1, 58, 0
3, 8819, Note_on_c, 1, 51, 58
3, 8881, Note_on_c, 1, 53, 66
3, 8882, Note_on_c, 1, 51, 0
3, 9001, Note_on_c, 1, 53, 0
3, 9119, Note_on_c, 1, 58, 50
3, 9132, Control_c, 1, 64, 127
3, 9181, Note_on_c, 1, 65, 27
3, 9184, Note_on_c, 1, 58, 0
3, 9238, Note_on_c, 1, 65, 0
3, 9240, Note_on_c, 1, 60, 54
3, 9248, Control_c, 1, 64, 0
3, 9270, Control_c, 1, 64, 127
3, 9301, Note_on_c, 1, 60, 0
3, 9301, Note_on_c, 1, 65, 38
3, 9358, Note_on_c, 1, 65, 0
3, 9361, Note_on_c, 1, 62, 49
3, 9366, Control_c, 1, 64, 0
3, 9388, Control_c, 1, 64, 127
3, 9418, Note_on_c, 1, 62, 0
3, 9422, Note_on_c, 1, 65, 39
3, 9477, Note_on_c, 1, 65, 0
3, 9481, Note_on_c, 1, 58, 47
3, 9484, Control_c, 1, 64, 0
3, 9507, Control_c, 1, 64, 127
3, 9538, Note_on_c, 1, 58, 0
3, 9541, Note_on_c, 1, 65, 41
3, 9598, Note_on_c, 1, 65, 0
3, 9599, Control_c, 1, 64, 0
3, 9601, Note_on_c, 1, 57, 47
3, 9623, Control_c, 1, 64, 127
3, 9659, Note_on_c, 1, 57, 0
3, 9661, Note_on_c, 1, 65, 36
3, 9715, Control_c, 1, 64, 0
3, 9717, Note_on_c, 1, 65, 0
3, 9720, Note_on_c, 1, 58, 45
3, 9737, Control_c, 1, 64, 127
3, 9778, Note_on_c, 1, 58, 0
3, 9779, Note_on_c, 1, 65, 37
3, 9838, Note_on_c, 1, 65, 0
3, 9839, Note_on_c, 1, 60, 58
3, 9841, Control_c, 1, 64, 0
3, 9868, Control_c, 1, 64, 127
3, 9897, Note_on_c, 1, 60, 0
3, 9899, Note_on_c, 1, 65, 25
3, 9957, Control_c, 1, 64, 0
3, 9958, Note_on_c, 1, 65, 0
3, 9959, Note_on_c, 1, 63, 45
3, 9980, Control_c, 1, 64, 127
3, 10017, Note_on_c, 1, 63, 0
3, 10019, Note_on_c, 1, 65, 42
3, 10071, Control_c, 1, 64, 0
3, 10078, Note_on_c, 1, 65, 0
3, 10079, Note_on_c, 1, 62, 62
3, 10094, Control_c, 1, 64, 127
3, 10167, Note_on_c, 1, 62, 0
3, 10181, Control_c, 1, 64, 0
3, 10318, Note_on_c, 1, 63, 52
3, 10318, Note_on_c, 1, 67, 50
3, 10323, Control_c, 1, 64, 127
3, 10414, Note_on_c, 1, 63, 0
3, 10415, Note_on_c, 1, 67, 0
3, 10445, Control_c, 1, 64, 0
3, 10558, Note_on_c, 1, 53, 58
3, 10558, Note_on_c, 1, 62, 50
3, 10563, Control_c, 1, 64, 127
3, 10623, Note_on_c, 1, 62, 0
3, 10675, Control_c, 1, 64, 0
3, 10678, Note_on_c, 1, 63, 52
3, 10702, Control_c, 1, 64, 127
3, 10743, Note_on_c, 1, 53, 0
3, 10747, Note_on_c, 1, 63, 0
3, 10798, Control_c, 1, 64, 0
3, 10801, Note_on_c, 1, 58, 47
3, 10801, Note_on_c, 1, 62, 50
3, 10923, Note_on_c, 1, 62, 0
3, 10924, Note_on_c, 1, 58, 0
3, 11043, Note_on_c, 1, 46, 83
3, 11065, Control_c, 1, 64, 127
3, 11097, Note_on_c, 1, 46, 0
3, 11102, Note_on_c, 1, 58, 39
3, 11130, Note_on_c, 1, 58, 0
3, 11162, Note_on_c, 1, 58, 50
3, 11189, Note_on_c, 1, 58, 0
3, 11222, Note_on_c, 1, 58, 50
3, 11249, Note_on_c, 1, 58, 0
3, 11282, Note_on_c, 1, 46, 58
3, 11288, Control_c, 1, 64, 0
3, 11312, Control_c, 1, 64, 127
3, 11338, Note_on_c, 1, 46, 0
3, 11341, Note_on_c, 1, 58, 46
3, 11369, Note_on_c, 1, 58, 0
3, 11401, Note_on_c, 1, 58, 58
3, 11428, Note_on_c, 1, 58, 0
3, 11461, Note_on_c, 1, 58, 58
3, 11486, Note_on_c, 1, 58, 0
3, 11521, Note_on_c, 1, 58, 66
3, 11521, Note_on_c, 1, 63, 54
3, 11530, Control_c, 1, 64, 0
3, 11561, Control_c, 1, 64, 127
3, 11638, Note_on_c, 1, 63, 0
3, 11639, Note_on_c, 1, 60, 66
3, 11640, Control_c, 1, 64, 0
3, 11662, Control_c, 1, 64, 127
3, 11734, Note_on_c, 1, 60, 0
3, 11734, Note_on_c, 1, 58, 0
3, 11762, Note_on_c, 1, 58, 46
3, 11762, Note_on_c, 1, 62, 47
3, 11770, Control_c, 1, 64, 0
3, 11801, Control_c, 1, 64, 127
3, 11903, Note_on_c, 1, 62, 0
3, 11905, Note_on_c, 1, 58, 0
3, 11933, Control_c, 1, 64, 0
3, 12001, Note_on_c, 1, 46, 54
3, 12009, Control_c, 1, 64, 127
3, 12058, Note_on_c, 1, 46, 0
3, 12061, Note_on_c, 1, 58, 43
3, 12095, Note_on_c, 1, 58, 0
3, 12123, Note_on_c, 1, 58, 49
3, 12151, Note_on_c, 1, 58, 0
3, 12181, Note_on_c, 1, 58, 52
3, 12209, Note_on_c, 1, 58, 0
3, 12241, Note_on_c, 1, 46, 66
3, 12243, Control_c, 1, 64, 0
3, 12269, Control_c, 1, 64, 127
3, 12300, Note_on_c, 1, 46, 0
3, 12301, Note_on_c, 1, 58, 47
3, 12328, Note_on_c, 1, 58, 0
3, 12362, Note_on_c, 1, 58, 58
3, 12387, Note_on_c, 1, 58, 0
3, 12421, Note_on_c, 1, 58, 58
3, 12447, Note_on_c, 1, 58, 0
3, 12482, Note_on_c, 1, 67, 70
3, 12482, Note_on_c, 1, 58, 50
3, 12486, Control_c, 1, 64, 0
3, 12520, Control_c, 1, 64, 127
3, 12600, Control_c, 1, 64, 0
3, 12601, Note_on_c, 1, 69, 70
3, 12603, Note_on_c, 1, 67, 0
3, 12625, Control_c, 1, 64, 127
3, 12665, Note_on_c, 1, 69, 0
3, 12683, Note_on_c, 1, 58, 0
3, 12721, Note_on_c, 1, 70, 58
3, 12721, Note_on_c, 1, 58, 52
3, 12726, Control_c, 1, 64, 0
3, 12748, Control_c, 1, 64, 127
3, 12834, Note_on_c, 1, 70, 0
3, 12836, Note_on_c, 1, 58, 0
3, 12862, Control_c, 1, 64, 0
3, 12961, Note_on_c, 1, 66, 62
3, 12979, Control_c, 1, 64, 127
3, 13020, Note_on_c, 1, 66, 0
3, 13021, Note_on_c, 1, 69, 46
3, 13078, Note_on_c, 1, 69, 0
3, 13079, Note_on_c, 1, 67, 62
3, 13082, Control_c, 1, 64, 0
3, 13105, Control_c, 1, 64, 127
3, 13138, Note_on_c, 1, 67, 0
3, 13139, Note_on_c, 1, 70, 49
3, 13190, Control_c, 1, 64, 0
3, 13197, Note_on_c, 1, 70, 0
3, 13199, Note_on_c, 1, 69, 66
3, 13256, Control_c, 1, 64, 127
3, 13257, Note_on_c, 1, 69, 0
3, 13259, Note_on_c, 1, 72, 42
3, 13306, Control_c, 1, 64, 0
3, 13317, Note_on_c, 1, 72, 0
3, 13318, Note_on_c, 1, 70, 62
3, 13336, Control_c, 1, 64, 127
3, 13372, Control_c, 1, 64, 0
3, 13376, Note_on_c, 1, 70, 0
3, 13378, Note_on_c, 1, 74, 58
3, 13412, Control_c, 1, 64, 127
3, 13439, Control_c, 1, 64, 0
3, 13440, Note_on_c, 1, 74, 0
3, 13441, Note_on_c, 1, 64, 50
3, 13498, Note_on_c, 1, 64, 0
3, 13499, Note_on_c, 1, 67, 46
3, 13558, Note_on_c, 1, 67, 0
3, 13559, Note_on_c, 1, 65, 54
3, 13619, Note_on_c, 1, 69, 54
3, 13621, Note_on_c, 1, 65, 0
3, 13679, Note_on_c, 1, 69, 0
3, 13679, Note_on_c, 1, 67, 58
3, 13739, Note_on_c, 1, 70, 62
3, 13740, Note_on_c, 1, 67, 0
3, 13797, Note_on_c, 1, 70, 0
3, 13799, Note_on_c, 1, 69, 58
3, 13837, Control_c, 1, 64, 127
3, 13857, Note_on_c, 1, 69, 0
3, 13859, Note_on_c, 1, 72, 62
3, 13886, Note_on_c, 1, 72, 0
3, 13908, Control_c, 1, 64, 0
3, 13920, Note_on_c, 1, 57, 62
3, 13921, Note_on_c, 1, 65, 52
3, 13941, Control_c, 1, 64, 127
3, 14042, Note_on_c, 1, 65, 0
3, 14042, Note_on_c, 1, 57, 0
3, 14042, Control_c, 1, 64, 0
3, 14161, Note_on_c, 1, 58, 62
3, 14161, Note_on_c, 1, 65, 62
3, 14161, Note_on_c, 1, 67, 70
3, 14178, Control_c, 1, 64, 127
3, 14280, Note_on_c, 1, 65, 0
3, 14283, Note_on_c, 1, 67, 0
3, 14283, Note_on_c, 1, 58, 0
3, 14283, Control_c, 1, 64, 0
3, 14401, Note_on_c, 1, 60, 75
3, 14401, Note_on_c, 1, 69, 66
3, 14412, Control_c, 1, 64, 127
3, 14463, Note_on_c, 1, 69, 0
3, 14511, Control_c, 1, 64, 0
3, 14519, Note_on_c, 1, 70, 66
3, 14537, Control_c, 1, 64, 127
3, 14578, Note_on_c, 1, 70, 0
3, 14578, Note_on_c, 1, 60, 0
3, 14634, Control_c, 1, 64, 0
3, 14639, Note_on_c, 1, 70, 54
3, 14639, Note_on_c, 1, 65, 62
3, 14660, Control_c, 1, 64, 127
3, 14726, Note_on_c, 1, 70, 0
3, 14757, Note_on_c, 1, 65, 0
3, 14759, Note_on_c, 1, 65, 30
3, 14759, Note_on_c, 1, 69, 52
3, 14759, Control_c, 1, 64, 0
3, 14786, Control_c, 1, 64, 127
3, 14818, Note_on_c, 1, 69, 0
3, 14819, Note_on_c, 1, 65, 0
3, 14840, Control_c, 1, 64, 0
3, 14882, Note_on_c, 1, 46, 47
3, 14898, Control_c, 1, 64, 127
3, 14937, Note_on_c, 1, 46, 0
3, 14941, Note_on_c, 1, 58, 36
3, 14970, Note_on_c, 1, 58, 0
3, 15002, Note_on_c, 1, 58, 47
3, 15030, Note_on_c, 1, 58, 0
3, 15062, Note_on_c, 1, 58, 49
3, 15090, Note_on_c, 1, 58, 0
3, 15122, Note_on_c, 1, 46, 49
3, 15131, Control_c, 1, 64, 0
3, 15154, Control_c, 1, 64, 127
3, 15178, Note_on_c, 1, 46, 0
3, 15181, Note_on_c, 1, 58, 42
3, 15209, Note_on_c, 1, 58, 0
3, 15243, Note_on_c, 1, 58, 49
3, 15268, Note_on_c, 1, 58, 0
3, 15302, Note_on_c, 1, 58, 49
3, 15327, Note_on_c, 1, 58, 0
3, 15361, Note_on_c, 1, 63, 54
3, 15361, Note_on_c, 1, 58, 47
3, 15368, Control_c, 1, 64, 0
3, 15398, Control_c, 1, 64, 127
3, 15482, Note_on_c, 1, 60, 52
3, 15483, Note_on_c, 1, 63, 0
3, 15492, Control_c, 1, 64, 0
3, 15519, Control_c, 1, 64, 127
3, 15566, Note_on_c, 1, 58, 0
3, 15568, Note_on_c, 1, 60, 0
3, 15602, Note_on_c, 1, 58, 52
3, 15602, Note_on_c, 1, 62, 62
3, 15608, Control_c, 1, 64, 0
3, 15631, Control_c, 1, 64, 127
3, 15687, Note_on_c, 1, 62, 0
3, 15692, Note_on_c, 1, 58, 0
3, 15743, Control_c, 1, 64, 0
3, 15841, Note_on_c, 1, 46, 49
3, 15849, Control_c, 1, 64, 127
3, 15898, Note_on_c, 1, 46, 0
3, 15901, Note_on_c, 1, 58, 36
3, 15929, Note_on_c, 1, 58, 0
3, 15961, Note_on_c, 1, 58, 50
3, 15988, Note_on_c, 1, 58, 0
3, 16019, Note_on_c, 1, 58, 49
3, 16048, Note_on_c, 1, 58, 0
3, 16081, Control_c, 1, 64, 0
3, 16081, Note_on_c, 1, 46, 49
3, 16107, Control_c, 1, 64, 127
3, 16136, Note_on_c, 1, 46, 0
3, 16139, Note_on_c, 1, 58, 47
3, 16168, Note_on_c, 1, 58, 0
3, 16201, Note_on_c, 1, 58, 58
3, 16227, Note_on_c, 1, 58, 0
3, 16259, Note_on_c, 1, 58, 47
3, 16286, Note_on_c, 1, 58, 0
3, 16320, Control_c, 1, 64, 0
3, 16321, Note_on_c, 1, 58, 52
3, 16321, Note_on_c, 1, 67, 66
3, 16349, Control_c, 1, 64, 127
3, 16441, Note_on_c, 1, 69, 66
3, 16444, Note_on_c, 1, 67, 0
3, 16444, Control_c, 1, 64, 0
3, 16462, Control_c, 1, 64, 127
3, 16501, Note_on_c, 1, 69, 0
3, 16505, Note_on_c, 1, 58, 0
3, 16559, Control_c, 1, 64, 0
3, 16560, Note_on_c, 1, 58, 50
3, 16561, Note_on_c, 1, 70, 54
3, 16580, Control_c, 1, 64, 127
3, 16685, Note_on_c, 1, 70, 0
3, 16686, Note_on_c, 1, 58, 0
3, 16693, Control_c, 1, 64, 0
3, 16801, Note_on_c, 1, 66, 52
3, 16861, Note_on_c, 1, 69, 54
3, 16862, Note_on_c, 1, 66, 0
3, 16921, Note_on_c, 1, 67, 70
3, 16922, Note_on_c, 1, 69, 0
3, 16981, Note_on_c, 1, 70, 52
3, 16983, Note_on_c, 1, 67, 0
3, 17041, Note_on_c, 1, 70, 0
3, 17042, Note_on_c, 1, 69, 79
3, 17100, Note_on_c, 1, 69, 0
3, 17101, Note_on_c, 1, 72, 50
3, 17160, Note_on_c, 1, 72, 0
3, 17161, Note_on_c, 1, 70, 62
3, 17218, Note_on_c, 1, 70, 0
3, 17219, Note_on_c, 1, 74, 62
3, 17281, Note_on_c, 1, 64, 62
3, 17282, Note_on_c, 1, 74, 0
3, 17341, Note_on_c, 1, 67, 46
3, 17343, Note_on_c, 1, 64, 0
3, 17401, Note_on_c, 1, 67, 0
3, 17401, Note_on_c, 1, 65, 66
3, 17460, Note_on_c, 1, 65, 0
3, 17461, Note_on_c, 1, 69, 52
3, 17520, Note_on_c, 1, 69, 0
3, 17521, Note_on_c, 1, 67, 66
3, 17580, Note_on_c, 1, 70, 46
3, 17582, Note_on_c, 1, 67, 0
3, 17638, Note_on_c, 1, 70, 0
3, 17640, Note_on_c, 1, 69, 66
3, 17698, Note_on_c, 1, 69, 0
3, 17700, Note_on_c, 1, 72, 54
3, 17759, Note_on_c, 1, 72, 0
3, 17760, Note_on_c, 1, 65, 62
3, 17761, Note_on_c, 1, 57, 52
3, 17789, Control_c, 1, 64, 127
3, 17885, Note_on_c, 1, 57, 0
3, 17885, Note_on_c, 1, 65, 0
3, 17889, Control_c, 1, 64, 0
3, 17999, Note_on_c, 1, 58, 52
3, 17999, Note_on_c, 1, 67, 62
3, 18000, Note_on_c, 1, 65, 70
3, 18005, Control_c, 1, 64, 127
3, 18119, Note_on_c, 1, 65, 0
3, 18121, Note_on_c, 1, 67, 0
3, 18123, Note_on_c, 1, 58, 0
3, 18127, Control_c, 1, 64, 0
3, 18239, Note_on_c, 1, 69, 62
3, 18239, Note_on_c, 1, 60, 52
3, 18240, Note_on_c, 1, 69, 70
3, 18241, Note_on_c, 1, 60, 62
3, 18251, Control_c, 1, 64, 127
3, 18353, Control_c, 1, 64, 0
3, 18359, Note_on_c, 1, 70, 58
3, 18362, Note_on_c, 1, 69, 0
3, 18362, Note_on_c, 1, 69, 0
3, 18372, Control_c, 1, 64, 127
3, 18420, Note_on_c, 1, 60, 0
3, 18421, Note_on_c, 1, 70, 0
3, 18447, Note_on_c, 1, 60, 0
3, 18479, Note_on_c, 1, 70, 54
3, 18479, Note_on_c, 1, 65, 52
3, 18479, Control_c, 1, 64, 0
3, 18505, Control_c, 1, 64, 127
3, 18599, Note_on_c, 1, 69, 50
3, 18602, Note_on_c, 1, 70, 0
3, 18602, Control_c, 1, 64, 0
3, 18660, Note_on_c, 1, 69, 0
3, 18662, Note_on_c, 1, 65, 0
3, 18720, Note_on_c, 1, 38, 66
3, 18724, Control_c, 1, 64, 127
3, 18776, Note_on_c, 1, 38, 0
3, 18779, Note_on_c, 1, 50, 50
3, 18809, Note_on_c, 1, 50, 0
3, 18841, Note_on_c, 1, 50, 66
3, 18869, Note_on_c, 1, 50, 0
3, 18899, Note_on_c, 1, 50, 66
3, 18927, Note_on_c, 1, 50, 0
3, 18959, Control_c, 1, 64, 0
3, 18961, Note_on_c, 1, 43, 62
3, 18982, Control_c, 1, 64, 127
3, 19015, Note_on_c, 1, 43, 0
3, 19020, Note_on_c, 1, 55, 52
3, 19048, Note_on_c, 1, 55, 0
3, 19081, Note_on_c, 1, 55, 52
3, 19108, Note_on_c, 1, 55, 0
3, 19141, Note_on_c, 1, 55, 52
3, 19167, Note_on_c, 1, 55, 0
3, 19201, Note_on_c, 1, 36, 43
3, 19202, Control_c, 1, 64, 0
3, 19226, Control_c, 1, 64, 127
3, 19258, Note_on_c, 1, 36, 0
3, 19260, Note_on_c, 1, 48, 50
3, 19288, Note_on_c, 1, 48, 0
3, 19321, Note_on_c, 1, 48, 54
3, 19349, Note_on_c, 1, 48, 0
3, 19381, Note_on_c, 1, 48, 62
3, 19411, Note_on_c, 1, 48, 0
3, 19434, Control_c, 1, 64, 0
3, 19439, Note_on_c, 1, 41, 58
3, 19460, Control_c, 1, 64, 127
3, 19495, Note_on_c, 1, 41, 0
3, 19499, Note_on_c, 1, 53, 52
3, 19529, Note_on_c, 1, 53, 0
3, 19559, Note_on_c, 1, 53, 62
3, 19588, Note_on_c, 1, 53, 0
3, 19618, Note_on_c, 1, 53, 54
3, 19647, Note_on_c, 1, 53, 0
3, 19679, Note_on_c, 1, 58, 58
3, 19680, Control_c, 1, 64, 0
3, 19706, Control_c, 1, 64, 127
3, 19739, Note_on_c, 1, 61, 58
3, 19740, Note_on_c, 1, 58, 0
3, 19750, Control_c, 1, 64, 0
3, 19801, Note_on_c, 1, 58, 62
3, 19804, Note_on_c, 1, 61, 0
3, 19859, Control_c, 1, 64, 127
3, 19861, Note_on_c, 1, 56, 79
3, 19862, Note_on_c, 1, 58, 0
3, 19892, Control_c, 1, 64, 0
3, 19918, Note_on_c, 1, 56, 0
3, 19919, Note_on_c, 1, 54, 62
3, 19943, Control_c, 1, 64, 127
3, 19975, Control_c, 1, 64, 0
3, 19980, Note_on_c, 1, 58, 66
3, 19982, Note_on_c, 1, 54, 0
3, 20002, Control_c, 1, 64, 127
3, 20035, Control_c, 1, 64, 0
3, 20038, Note_on_c, 1, 58, 0
3, 20040, Note_on_c, 1, 54, 62
3, 20058, Control_c, 1, 64, 127
3, 20087, Control_c, 1, 64, 0
3, 20098, Note_on_c, 1, 54, 0
3, 20099, Note_on_c, 1, 53, 66
3, 20109, Control_c, 1, 64, 127
3, 20147, Control_c, 1, 64, 0
3, 20158, Note_on_c, 1, 53, 0
3, 20160, Note_on_c, 1, 52, 52
3, 20178, Control_c, 1, 64, 127
3, 20216, Note_on_c, 1, 52, 0
3, 20216, Control_c, 1, 64, 0
3, 20281, Note_on_c, 1, 60, 75
3, 20281, Note_on_c, 1, 67, 75
3, 20294, Control_c, 1, 64, 127
3, 20402, Note_on_c, 1, 65, 62
3, 20403, Note_on_c, 1, 67, 0
3, 20403, Note_on_c, 1, 60, 0
3, 20410, Control_c, 1, 64, 0
3, 20439, Control_c, 1, 64, 127
3, 20545, Note_on_c, 1, 65, 0
3, 20568, Control_c, 1, 64, 0
3, 20642, Note_on_c, 1, 46, 54
3, 20660, Control_c, 1, 64, 127
3, 20697, Note_on_c, 1, 46, 0
3, 20702, Note_on_c, 1, 58, 41
3, 20732, Note_on_c, 1, 58, 0
3, 20762, Note_on_c, 1, 58, 52
3, 20790, Note_on_c, 1, 58, 0
3, 20822, Note_on_c, 1, 58, 58
3, 20850, Note_on_c, 1, 58, 0
3, 20882, Note_on_c, 1, 46, 62
3, 20891, Control_c, 1, 64, 0
3, 20913, Control_c, 1, 64, 127
3, 20937, Note_on_c, 1, 46, 0
3, 20941, Note_on_c, 1, 58, 54
3, 20968, Note_on_c, 1, 58, 0
3, 21001, Note_on_c, 1, 58, 58
3, 21027, Note_on_c, 1, 58, 0
3, 21061, Note_on_c, 1, 58, 54
3, 21087, Note_on_c, 1, 58, 0
3, 21121, Note_on_c, 1, 63, 62
3, 21121, Note_on_c, 1, 58, 52
3, 21125, Control_c, 1, 64, 0
3, 21152, Control_c, 1, 64, 127
3, 21240, Note_on_c, 1, 63, 0
3, 21240, Note_on_c, 1, 60, 52
3, 21247, Control_c, 1, 64, 0
3, 21272, Control_c, 1, 64, 127
3, 21328, Note_on_c, 1, 58, 0
3, 21331, Note_on_c, 1, 60, 0
3, 21360, Note_on_c, 1, 58, 54
3, 21361, Note_on_c, 1, 62, 66
3, 21363, Control_c, 1, 64, 0
3, 21387, Control_c, 1, 64, 127
3, 21483, Note_on_c, 1, 62, 0
3, 21485, Note_on_c, 1, 58, 0
3, 21493, Control_c, 1, 64, 0
3, 21601, Note_on_c, 1, 46, 62
3, 21613, Control_c, 1, 64, 127
3, 21661, Note_on_c, 1, 58, 62
3, 21663, Note_on_c, 1, 46, 0
3, 21713, Note_on_c, 1, 58, 0
3, 21722, Note_on_c, 1, 58, 54
3, 21751, Note_on_c, 1, 58, 0
3, 21782, Note_on_c, 1, 58, 62
3, 21812, Note_on_c, 1, 58, 0
3, 21842, Note_on_c, 1, 46, 79
3, 21850, Control_c, 1, 64, 0
3, 21875, Control_c, 1, 64, 127
3, 21897, Note_on_c, 1, 46, 0
3, 21902, Note_on_c, 1, 58, 52
3, 21930, Note_on_c, 1, 58, 0
3, 21962, Note_on_c, 1, 58, 66
3, 21988, Note_on_c, 1, 58, 0
3, 22022, Note_on_c, 1, 58, 79
3, 22047, Note_on_c, 1, 58, 0
3, 22082, Note_on_c, 1, 67, 62
3, 22082, Note_on_c, 1, 58, 54
3, 22088, Control_c, 1, 64, 0
3, 22119, Control_c, 1, 64, 127
3, 22201, Note_on_c, 1, 67, 0
3, 22201, Note_on_c, 1, 69, 75
3, 22204, Control_c, 1, 64, 0
3, 22226, Control_c, 1, 64, 127
3, 22264, Note_on_c, 1, 58, 0
3, 22265, Note_on_c, 1, 69, 0
3, 22320, Note_on_c, 1, 58, 52
3, 22321, Note_on_c, 1, 70, 58
3, 22323, Control_c, 1, 64, 0
3, 22343, Control_c, 1, 64, 127
3, 22438, Note_on_c, 1, 70, 0
3, 22439, Note_on_c, 1, 58, 0
3, 22447, Control_c, 1, 64, 0
3, 22559, Note_on_c, 1, 59, 70
3, 22569, Control_c, 1, 64, 127
3, 22619, Note_on_c, 1, 59, 0
3, 22619, Note_on_c, 1, 62, 62
3, 22645, Control_c, 1, 64, 0
3, 22680, Note_on_c, 1, 60, 79
3, 22682, Note_on_c, 1, 62, 0
3, 22741, Note_on_c, 1, 63, 54
3, 22743, Note_on_c, 1, 60, 0
3, 22754, Control_c, 1, 64, 127
3, 22795, Control_c, 1, 64, 0
3, 22801, Note_on_c, 1, 63, 0
3, 22801, Note_on_c, 1, 62, 70
3, 22816, Control_c, 1, 64, 127
3, 22844, Control_c, 1, 64, 0
3, 22860, Note_on_c, 1, 62, 0
3, 22861, Note_on_c, 1, 65, 66
3, 22920, Note_on_c, 1, 65, 0
3, 22921, Note_on_c, 1, 63, 66
3, 22968, Control_c, 1, 64, 127
3, 22980, Note_on_c, 1, 63, 0
3, 22982, Note_on_c, 1, 67, 66
3, 23030, Control_c, 1, 64, 0
3, 23040, Note_on_c, 1, 67, 0
3, 23041, Note_on_c, 1, 57, 83
3, 23073, Control_c, 1, 64, 127
3, 23102, Control_c, 1, 64, 0
3, 23102, Note_on_c, 1, 60, 62
3, 23103, Note_on_c, 1, 57, 0
3, 23161, Note_on_c, 1, 58, 54
3, 23162, Note_on_c, 1, 60, 0
3, 23221, Note_on_c, 1, 58, 0
3, 23221, Note_on_c, 1, 62, 75
3, 23279, Note_on_c, 1, 62, 0
3, 23281, Note_on_c, 1, 60, 75
3, 23338, Note_on_c, 1, 60, 0
3, 23341, Note_on_c, 1, 63, 46
3, 23401, Note_on_c, 1, 62, 79
3, 23402, Note_on_c, 1, 63, 0
3, 23437, Control_c, 1, 64, 127
3, 23460, Note_on_c, 1, 62, 0
3, 23461, Note_on_c, 1, 65, 79
3, 23486, Note_on_c, 1, 65, 0
3, 23507, Control_c, 1, 64, 0
3, 23521, Note_on_c, 1, 58, 70
3, 23521, Note_on_c, 1, 50, 75
3, 23521, Note_on_c, 1, 53, 79
3, 23643, Note_on_c, 1, 53, 0
3, 23644, Note_on_c, 1, 50, 0
3, 23645, Note_on_c, 1, 58, 0
3, 23761, Note_on_c, 1, 51, 79
3, 23761, Note_on_c, 1, 58, 66
3, 23762, Note_on_c, 1, 60, 83
3, 23801, Control_c, 1, 64, 127
3, 23877, Note_on_c, 1, 60, 0
3, 23877, Note_on_c, 1, 58, 0
3, 23877, Note_on_c, 1, 51, 0
3, 23884, Control_c, 1, 64, 0
3, 24001, Note_on_c, 1, 53, 66
3, 24001, Note_on_c, 1, 62, 70
3, 24018, Control_c, 1, 64, 127
3, 24115, Control_c, 1, 64, 0
3, 24119, Note_on_c, 1, 63, 66
3, 24121, Note_on_c, 1, 62, 0
3, 24140, Control_c, 1, 64, 127
3, 24181, Note_on_c, 1, 63, 0
3, 24182, Note_on_c, 1, 53, 0
3, 24239, Note_on_c, 1, 63, 70
3, 24239, Note_on_c, 1, 58, 66
3, 24241, Control_c, 1, 64, 0
3, 24270, Control_c, 1, 64, 127
3, 24333, Note_on_c, 1, 58, 0
3, 24357, Note_on_c, 1, 63, 0
3, 24358, Control_c, 1, 64, 0
3, 24359, Note_on_c, 1, 62, 62
3, 24359, Note_on_c, 1, 58, 52
3, 24381, Control_c, 1, 64, 127
3, 24415, Note_on_c, 1, 62, 0
3, 24417, Note_on_c, 1, 58, 0
3, 24457, Control_c, 1, 64, 0
3, 24482, Note_on_c, 1, 38, 66
3, 24505, Control_c, 1, 64, 127
3, 24537, Note_on_c, 1, 38, 0
3, 24541, Note_on_c, 1, 50, 58
3, 24569, Note_on_c, 1, 50, 0
3, 24602, Note_on_c, 1, 50, 62
3, 24630, Note_on_c, 1, 50, 0
3, 24661, Note_on_c, 1, 50, 66
3, 24690, Note_on_c, 1, 50, 0
3, 24722, Note_on_c, 1, 43, 62
3, 24724, Control_c, 1, 64, 0
3, 24749, Control_c, 1, 64, 127
3, 24776, Note_on_c, 1, 43, 0
3, 24782, Note_on_c, 1, 55, 52
3, 24810, Note_on_c, 1, 55, 0
3, 24842, Note_on_c, 1, 55, 54
3, 24869, Note_on_c, 1, 55, 0
3, 24902, Note_on_c, 1, 55, 66
3, 24927, Note_on_c, 1, 55, 0
3, 24961, Note_on_c, 1, 36, 70
3, 24963, Control_c, 1, 64, 0
3, 24986, Control_c, 1, 64, 127
3, 25013, Note_on_c, 1, 36, 0
3, 25021, Note_on_c, 1, 48, 58
3, 25049, Note_on_c, 1, 48, 0
3, 25081, Note_on_c, 1, 48, 66
3, 25108, Note_on_c, 1, 48, 0
3, 25141, Note_on_c, 1, 48, 58
3, 25168, Note_on_c, 1, 48, 0
3, 25199, Control_c, 1, 64, 0
3, 25199, Note_on_c, 1, 41, 62
3, 25225, Control_c, 1, 64, 127
3, 25257, Note_on_c, 1, 41, 0
3, 25260, Note_on_c, 1, 53, 52
3, 25287, Note_on_c, 1, 53, 0
3, 25319, Note_on_c, 1, 53, 62
3, 25348, Note_on_c, 1, 53, 0
3, 25380, Note_on_c, 1, 53, 62
3, 25406, Note_on_c, 1, 53, 0
3, 25441, Note_on_c, 1, 58, 66
3, 25444, Control_c, 1, 64, 0
3, 25471, Control_c, 1, 64, 127
3, 25499, Note_on_c, 1, 61, 58
3, 25500, Note_on_c, 1, 58, 0
3, 25509, Control_c, 1, 64, 0
3, 25531, Control_c, 1, 64, 127
3, 25554, Control_c, 1, 64, 0
3, 25559, Note_on_c, 1, 58, 58
3, 25560, Note_on_c, 1, 61, 0
3, 25573, Control_c, 1, 64, 127
3, 25611, Control_c, 1, 64, 0
3, 25618, Note_on_c, 1, 58, 0
3, 25619, Note_on_c, 1, 56, 75
3, 25634, Control_c, 1, 64, 127
3, 25675, Control_c, 1, 64, 0
3, 25678, Note_on_c, 1, 56, 0
3, 25679, Note_on_c, 1, 54, 66
3, 25738, Note_on_c, 1, 58, 66
3, 25740, Note_on_c, 1, 54, 0
3, 25799, Note_on_c, 1, 54, 70
3, 25800, Note_on_c, 1, 58, 0
3, 25857, Note_on_c, 1, 54, 0
3, 25858, Note_on_c, 1, 53, 70
3, 25919, Note_on_c, 1, 53, 0
3, 25919, Note_on_c, 1, 52, 79
3, 25954, Note_on_c, 1, 52, 0
3, 26041, Note_on_c, 1, 67, 79
3, 26041, Note_on_c, 1, 60, 70
3, 26060, Control_c, 1, 64, 127
3, 26162, Note_on_c, 1, 65, 79
3, 26163, Note_on_c, 1, 60, 0
3, 26165, Note_on_c, 1, 67, 0
3, 26165, Control_c, 1, 64, 0
3, 26297, Control_c, 1, 64, 127
3, 26341, Note_on_c, 1, 65, 0
3, 26385, Control_c, 1, 64, 0
3, 26402, Note_on_c, 1, 46, 49
3, 26424, Control_c, 1, 64, 127
3, 26459, Note_on_c, 1, 46, 0
3, 26462, Note_on_c, 1, 58, 49
3, 26490, Note_on_c, 1, 58, 0
3, 26522, Note_on_c, 1, 58, 52
3, 26550, Note_on_c, 1, 58, 0
3, 26581, Note_on_c, 1, 58, 54
3, 26609, Note_on_c, 1, 58, 0
3, 26642, Note_on_c, 1, 46, 52
3, 26646, Control_c, 1, 64, 0
3, 26669, Control_c, 1, 64, 127
3, 26696, Note_on_c, 1, 46, 0
3, 26700, Note_on_c, 1, 58, 50
3, 26727, Note_on_c, 1, 58, 0
3, 26761, Note_on_c, 1, 58, 58
3, 26788, Note_on_c, 1, 58, 0
3, 26819, Note_on_c, 1, 58, 54
3, 26847, Note_on_c, 1, 58, 0
3, 26881, Note_on_c, 1, 63, 66
3, 26881, Note_on_c, 1, 58, 54
3, 26887, Control_c, 1, 64, 0
3, 26918, Control_c, 1, 64, 127
3, 26999, Note_on_c, 1, 60, 46
3, 27001, Note_on_c, 1, 63, 0
3, 27005, Control_c, 1, 64, 0
3, 27029, Control_c, 1, 64, 127
3, 27090, Note_on_c, 1, 58, 0
3, 27092, Note_on_c, 1, 60, 0
3, 27121, Note_on_c, 1, 62, 62
3, 27121, Note_on_c, 1, 58, 52
3, 27123, Control_c, 1, 64, 0
3, 27148, Control_c, 1, 64, 127
3, 27213, Note_on_c, 1, 62, 0
3, 27235, Note_on_c, 1, 58, 0
3, 27254, Control_c, 1, 64, 0
3, 27360, Note_on_c, 1, 46, 62
3, 27362, Control_c, 1, 64, 127
3, 27416, Note_on_c, 1, 46, 0
3, 27419, Note_on_c, 1, 58, 52
3, 27448, Note_on_c, 1, 58, 0
3, 27481, Note_on_c, 1, 58, 50
3, 27508, Note_on_c, 1, 58, 0
3, 27541, Note_on_c, 1, 58, 50
3, 27568, Note_on_c, 1, 58, 0
3, 27601, Note_on_c, 1, 46, 66
3, 27602, Control_c, 1, 64, 0
3, 27624, Control_c, 1, 64, 127
3, 27654, Note_on_c, 1, 46, 0
3, 27661, Note_on_c, 1, 58, 50
3, 27688, Note_on_c, 1, 58, 0
3, 27722, Note_on_c, 1, 58, 52
3, 27747, Note_on_c, 1, 58, 0
3, 27781, Note_on_c, 1, 58, 62
3, 27807, Note_on_c, 1, 58, 0
3, 27841, Note_on_c, 1, 58, 66
3, 27841, Note_on_c, 1, 67, 83
3, 27843, Control_c, 1, 64, 0
3, 27873, Control_c, 1, 64, 127
3, 27958, Control_c, 1, 64, 0
3, 27959, Note_on_c, 1, 69, 79
3, 27962, Note_on_c, 1, 67, 0
3, 27978, Control_c, 1, 64, 127
3, 28025, Note_on_c, 1, 69, 0
3, 28026, Note_on_c, 1, 58, 0
3, 28078, Control_c, 1, 64, 0
3, 28081, Note_on_c, 1, 70, 58
3, 28081, Note_on_c, 1, 58, 54
3, 28098, Control_c, 1, 64, 127
3, 28198, Note_on_c, 1, 70, 0
3, 28202, Note_on_c, 1, 58, 0
3, 28212, Control_c, 1, 64, 0
3, 28319, Note_on_c, 1, 59, 66
3, 28330, Control_c, 1, 64, 127
3, 28381, Note_on_c, 1, 59, 0
3, 28381, Note_on_c, 1, 62, 58
3, 28410, Note_on_c, 1, 62, 0
3, 28441, Note_on_c, 1, 60, 75
3, 28442, Control_c, 1, 64, 0
3, 28470, Control_c, 1, 64, 127
3, 28500, Note_on_c, 1, 60, 0
3, 28501, Note_on_c, 1, 63, 62
3, 28511, Control_c, 1, 64, 0
3, 28562, Note_on_c, 1, 62, 66
3, 28563, Note_on_c, 1, 63, 0
3, 28622, Note_on_c, 1, 65, 70
3, 28624, Note_on_c, 1, 62, 0
3, 28681, Note_on_c, 1, 63, 62
3, 28682, Note_on_c, 1, 65, 0
3, 28740, Note_on_c, 1, 63, 0
3, 28741, Note_on_c, 1, 67, 62
3, 28802, Note_on_c, 1, 57, 75
3, 28803, Note_on_c, 1, 67, 0
3, 28861, Note_on_c, 1, 57, 0
3, 28862, Note_on_c, 1, 60, 38
3, 28921, Note_on_c, 1, 58, 66
3, 28923, Note_on_c, 1, 60, 0
3, 28981, Note_on_c, 1, 58, 0
3, 28981, Note_on_c, 1, 62, 66
3, 28986, Control_c, 1, 64, 127
3, 29013, Control_c, 1, 64, 0
3, 29038, Note_on_c, 1, 62, 0
3, 29039, Note_on_c, 1, 60, 58
3, 29055, Control_c, 1, 64, 127
3, 29096, Control_c, 1, 64, 0
3, 29099, Note_on_c, 1, 63, 50
3, 29101, Note_on_c, 1, 60, 0
3, 29158, Note_on_c, 1, 63, 0
3, 29159, Note_on_c, 1, 62, 62
3, 29219, Note_on_c, 1, 65, 70
3, 29220, Note_on_c, 1, 62, 0
3, 29278, Note_on_c, 1, 65, 0
3, 29280, Note_on_c, 1, 58, 70
3, 29280, Note_on_c, 1, 53, 79
3, 29280, Note_on_c, 1, 50, 83
3, 29345, Control_c, 1, 64, 127
3, 29402, Control_c, 1, 64, 0
3, 29405, Note_on_c, 1, 50, 0
3, 29405, Note_on_c, 1, 53, 0
3, 29405, Note_on_c, 1, 58, 0
3, 29519, Note_on_c, 1, 51, 75
3, 29519, Note_on_c, 1, 58, 70
3, 29519, Note_on_c, 1, 60, 75
3, 29527, Control_c, 1, 64, 127
3, 29639, Note_on_c, 1, 58, 0
3, 29640, Note_on_c, 1, 60, 0
3, 29640, Control_c, 1, 64, 0
3, 29642, Note_on_c, 1, 51, 0
3, 29759, Note_on_c, 1, 53, 62
3, 29759, Note_on_c, 1, 62, 62
3, 29779, Control_c, 1, 64, 127
3, 29871, Control_c, 1, 64, 0
3, 29879, Note_on_c, 1, 63, 62
3, 29882, Note_on_c, 1, 62, 0
3, 29894, Control_c, 1, 64, 127
3, 29937, Note_on_c, 1, 63, 0
3, 29937, Note_on_c, 1, 53, 0
3, 29999, Note_on_c, 1, 63, 58
3, 29999, Note_on_c, 1, 58, 62
3, 30007, Control_c, 1, 64, 0
3, 30039, Control_c, 1, 64, 127
3, 30121, Note_on_c, 1, 62, 47
3, 30122, Note_on_c, 1, 63, 0
3, 30123, Control_c, 1, 64, 0
3, 30150, Control_c, 1, 64, 127
3, 30192, Control_c, 1, 64, 0
3, 30204, Note_on_c, 1, 62, 0
3, 30207, Note_on_c, 1, 58, 0
3, 30301, Note_on_c, 1, 58, 52
3, 30301, Note_on_c, 1, 62, 52
3, 30309, Control_c, 1, 64, 127
3, 30330, Note_on_c, 1, 58, 0
3, 30331, Note_on_c, 1, 62, 0
3, 30358, Control_c, 1, 64, 0
3, 30361, Note_on_c, 1, 58, 58
3, 30361, Note_on_c, 1, 62, 66
3, 30382, Control_c, 1, 64, 127
3, 30410, Control_c, 1, 64, 0
3, 30419, Note_on_c, 1, 58, 0
3, 30420, Note_on_c, 1, 62, 0
3, 30540, Note_on_c, 1, 58, 62
3, 30541, Note_on_c, 1, 62, 66
3, 30569, Note_on_c, 1, 58, 0
3, 30571, Note_on_c, 1, 62, 0
3, 30601, Note_on_c, 1, 58, 66
3, 30601, Note_on_c, 1, 62, 70
3, 30663, Note_on_c, 1, 58, 0
3, 30664, Note_on_c, 1, 62, 0
3, 31319, Note_on_c, 1, 58, 52
3, 31319, Note_on_c, 1, 55, 47
3, 31333, Control_c, 1, 64, 127
3, 31408, Note_on_c, 1, 55, 0
3, 31409, Note_on_c, 1, 58, 0
3, 31434, Control_c, 1, 64, 0
3, 31559, Note_on_c, 1, 56, 66
3, 31559, Note_on_c, 1, 63, 52
3, 31567, Control_c, 1, 64, 127
3, 31650, Note_on_c, 1, 63, 0
3, 31652, Note_on_c, 1, 56, 0
3, 31682, Control_c, 1, 64, 0
3, 31801, Note_on_c, 1, 50, 70
3, 31801, Note_on_c, 1, 53, 62
3, 31817, Control_c, 1, 64, 127
3, 31861, Note_on_c, 1, 50, 0
3, 31863, Note_on_c, 1, 53, 0
3, 31916, Control_c, 1, 64, 0
3, 31919, Note_on_c, 1, 58, 50
3, 31919, Note_on_c, 1, 51, 62
3, 31939, Control_c, 1, 64, 127
3, 32005, Note_on_c, 1, 58, 0
3, 32007, Note_on_c, 1, 51, 0
3, 32015, Control_c, 1, 64, 0
3, 32219, Note_on_c, 1, 63, 70
3, 32246, Note_on_c, 1, 63, 0
3, 32279, Note_on_c, 1, 62, 79
3, 32306, Note_on_c, 1, 62, 0
3, 32339, Note_on_c, 1, 59, 75
3, 32366, Note_on_c, 1, 59, 0
3, 32399, Note_on_c, 1, 60, 75
3, 32427, Note_on_c, 1, 60, 0
3, 32459, Note_on_c, 1, 57, 79
3, 32486, Note_on_c, 1, 57, 0
3, 32519, Note_on_c, 1, 58, 75
3, 32578, Note_on_c, 1, 52, 83
3, 32636, Note_on_c, 1, 52, 0
3, 32638, Note_on_c, 1, 53, 79
3, 32758, Note_on_c, 1, 58, 0
3, 32759, Note_on_c, 1, 57, 66
3, 32879, Note_on_c, 1, 58, 70
3, 32880, Note_on_c, 1, 57, 0
3, 32880, Note_on_c, 1, 53, 0
3, 32906, Note_on_c, 1, 58, 0
3, 32938, Note_on_c, 1, 53, 70
3, 32967, Note_on_c, 1, 53, 0
3, 32998, Note_on_c, 1, 50, 79
3, 33027, Note_on_c, 1, 50, 0
3, 33058, Note_on_c, 1, 46, 70
3, 33087, Note_on_c, 1, 46, 0
3, 33238, Note_on_c, 1, 58, 54
3, 33238, Note_on_c, 1, 55, 70
3, 33277, Control_c, 1, 64, 127
3, 33333, Note_on_c, 1, 55, 0
3, 33334, Note_on_c, 1, 58, 0
3, 33344, Control_c, 1, 64, 0
3, 33478, Note_on_c, 1, 56, 70
3, 33478, Note_on_c, 1, 63, 54
3, 33485, Control_c, 1, 64, 127
3, 33540, Note_on_c, 1, 63, 0
3, 33543, Note_on_c, 1, 56, 0
3, 33596, Control_c, 1, 64, 0
3, 33719, Note_on_c, 1, 53, 79
3, 33719, Note_on_c, 1, 50, 83
3, 33729, Control_c, 1, 64, 127
3, 33840, Note_on_c, 1, 50, 0
3, 33840, Note_on_c, 1, 53, 0
3, 33840, Note_on_c, 1, 51, 54
3, 33841, Control_c, 1, 64, 0
3, 33841, Note_on_c, 1, 58, 42
3, 33932, Note_on_c, 1, 51, 0
3, 33933, Note_on_c, 1, 58, 0
3, 34138, Note_on_c, 1, 63, 75
3, 34166, Note_on_c, 1, 63, 0
3, 34199, Note_on_c, 1, 62, 83
3, 34226, Note_on_c, 1, 62, 0
3, 34259, Note_on_c, 1, 59, 75
3, 34286, Note_on_c, 1, 59, 0
3, 34319, Note_on_c, 1, 60, 75
3, 34346, Note_on_c, 1, 60, 0
3, 34379, Note_on_c, 1, 57, 75
3, 34406, Note_on_c, 1, 57, 0
3, 34439, Note_on_c, 1, 58, 58
3, 34497, Note_on_c, 1, 52, 54
3, 34559, Note_on_c, 1, 53, 58
3, 34560, Note_on_c, 1, 52, 0
3, 34681, Note_on_c, 1, 57, 54
3, 34682, Note_on_c, 1, 58, 0
3, 34798, Note_on_c, 1, 57, 0
3, 34798, Note_on_c, 1, 58, 62
3, 34800, Note_on_c, 1, 53, 0
3, 34826, Note_on_c, 1, 58, 0
3, 34859, Note_on_c, 1, 53, 58
3, 34887, Note_on_c, 1, 53, 0
3, 34919, Note_on_c, 1, 50, 75
3, 34946, Note_on_c, 1, 50, 0
3, 34980, Note_on_c, 1, 46, 83
3, 35006, Note_on_c, 1, 46, 0
3, 35041, Note_on_c, 1, 61, 62
3, 35066, Note_on_c, 1, 61, 0
3, 35101, Note_on_c, 1, 61, 79
3, 35127, Note_on_c, 1, 61, 0
3, 35161, Note_on_c, 1, 61, 66
3, 35187, Note_on_c, 1, 61, 0
3, 35219, Note_on_c, 1, 61, 75
3, 35246, Note_on_c, 1, 61, 0
3, 35281, Note_on_c, 1, 52, 70
3, 35308, Note_on_c, 1, 52, 0
3, 35341, Note_on_c, 1, 52, 66
3, 35367, Note_on_c, 1, 52, 0
3, 35400, Note_on_c, 1, 52, 66
3, 35426, Note_on_c, 1, 52, 0
3, 35461, Note_on_c, 1, 52, 75
3, 35486, Note_on_c, 1, 52, 0
3, 35521, Note_on_c, 1, 60, 75
3, 35546, Note_on_c, 1, 60, 0
3, 35581, Note_on_c, 1, 60, 66
3, 35606, Note_on_c, 1, 60, 0
3, 35641, Note_on_c, 1, 60, 58
3, 35667, Note_on_c, 1, 60, 0
3, 35699, Note_on_c, 1, 60, 66
3, 35726, Note_on_c, 1, 60, 0
3, 35759, Note_on_c, 1, 50, 70
3, 35786, Note_on_c, 1, 50, 0
3, 35819, Note_on_c, 1, 50, 66
3, 35846, Note_on_c, 1, 50, 0
3, 35879, Note_on_c, 1, 50, 66
3, 35906, Note_on_c, 1, 50, 0
3, 35939, Note_on_c, 1, 50, 70
3, 35967, Note_on_c, 1, 50, 0
3, 35999, Note_on_c, 1, 51, 70
3, 36026, Note_on_c, 1, 51, 0
3, 36059, Note_on_c, 1, 51, 66
3, 36086, Note_on_c, 1, 51, 0
3, 36119, Note_on_c, 1, 50, 70
3, 36147, Note_on_c, 1, 50, 0
3, 36179, Note_on_c, 1, 49, 83
3, 36206, Note_on_c, 1, 49, 0
3, 36239, Note_on_c, 1, 48, 62
3, 36267, Note_on_c, 1, 48, 0
3, 36299, Note_on_c, 1, 47, 79
3, 36327, Note_on_c, 1, 47, 0
3, 36359, Note_on_c, 1, 46, 66
3, 36387, Note_on_c, 1, 46, 0
3, 36418, Note_on_c, 1, 45, 83
3, 36446, Note_on_c, 1, 45, 0
3, 36479, Note_on_c, 1, 46, 58
3, 36537, Note_on_c, 1, 46, 0
3, 36538, Note_on_c, 1, 45, 66
3, 36597, Note_on_c, 1, 45, 0
3, 36598, Note_on_c, 1, 46, 49
3, 36657, Note_on_c, 1, 46, 0
3, 36660, Note_on_c, 1, 45, 70
3, 36720, Note_on_c, 1, 46, 70
3, 36723, Note_on_c, 1, 45, 0
3, 36780, Note_on_c, 1, 46, 0
3, 37081, Note_on_c, 1, 55, 52
3, 37081, Note_on_c, 1, 58, 49
3, 37100, Control_c, 1, 64, 127
3, 37168, Note_on_c, 1, 55, 0
3, 37170, Note_on_c, 1, 58, 0
3, 37202, Control_c, 1, 64, 0
3, 37321, Note_on_c, 1, 56, 66
3, 37321, Note_on_c, 1, 63, 50
3, 37334, Control_c, 1, 64, 127
3, 37383, Note_on_c, 1, 63, 0
3, 37385, Note_on_c, 1, 56, 0
3, 37443, Control_c, 1, 64, 0
3, 37560, Note_on_c, 1, 53, 66
3, 37561, Note_on_c, 1, 50, 66
3, 37572, Control_c, 1, 64, 127
3, 37623, Note_on_c, 1, 50, 0
3, 37624, Note_on_c, 1, 53, 0
3, 37676, Control_c, 1, 64, 0
3, 37679, Note_on_c, 1, 51, 58
3, 37680, Note_on_c, 1, 58, 43
3, 37744, Note_on_c, 1, 58, 0
3, 37744, Note_on_c, 1, 51, 0
3, 37978, Note_on_c, 1, 68, 79
3, 38006, Note_on_c, 1, 68, 0
3, 38038, Note_on_c, 1, 67, 79
3, 38066, Note_on_c, 1, 67, 0
3, 38098, Note_on_c, 1, 64, 58
3, 38126, Note_on_c, 1, 64, 0
3, 38158, Note_on_c, 1, 65, 79
3, 38186, Note_on_c, 1, 65, 0
3, 38218, Note_on_c, 1, 62, 62
3, 38246, Note_on_c, 1, 62, 0
3, 38279, Note_on_c, 1, 63, 83
3, 38338, Note_on_c, 1, 57, 58
3, 38399, Note_on_c, 1, 58, 66
3, 38400, Note_on_c, 1, 57, 0
3, 38519, Note_on_c, 1, 62, 62
3, 38520, Note_on_c, 1, 63, 0
3, 38639, Note_on_c, 1, 58, 0
3, 38639, Note_on_c, 1, 63, 75
3, 38640, Note_on_c, 1, 62, 0
3, 38666, Note_on_c, 1, 63, 0
3, 38699, Note_on_c, 1, 58, 66
3, 38728, Note_on_c, 1, 58, 0
3, 38759, Note_on_c, 1, 55, 70
3, 38786, Note_on_c, 1, 55, 0
3, 38819, Note_on_c, 1, 51, 70
3, 38846, Note_on_c, 1, 51, 0
3, 38879, Note_on_c, 1, 61, 50
3, 38906, Note_on_c, 1, 61, 0
3, 38939, Note_on_c, 1, 61, 54
3, 38966, Note_on_c, 1, 61, 0
3, 39001, Note_on_c, 1, 61, 62
3, 39027, Note_on_c, 1, 61, 0
3, 39060, Note_on_c, 1, 61, 54
3, 39085, Note_on_c, 1, 61, 0
3, 39119, Note_on_c, 1, 52, 45
3, 39147, Note_on_c, 1, 52, 0
3, 39180, Note_on_c, 1, 52, 52
3, 39206, Note_on_c, 1, 52, 0
3, 39239, Note_on_c, 1, 52, 58
3, 39267, Note_on_c, 1, 52, 0
3, 39299, Note_on_c, 1, 52, 70
3, 39326, Note_on_c, 1, 52, 0
3, 39359, Note_on_c, 1, 60, 52
3, 39387, Note_on_c, 1, 60, 0
3, 39419, Note_on_c, 1, 60, 58
3, 39447, Note_on_c, 1, 60, 0
3, 39479, Note_on_c, 1, 60, 58
3, 39506, Note_on_c, 1, 60, 0
3, 39538, Note_on_c, 1, 60, 58
3, 39566, Note_on_c, 1, 60, 0
3, 39599, Note_on_c, 1, 50, 66
3, 39627, Note_on_c, 1, 50, 0
3, 39658, Note_on_c, 1, 50, 54
3, 39687, Note_on_c, 1, 50, 0
3, 39719, Note_on_c, 1, 50, 58
3, 39746, Note_on_c, 1, 50, 0
3, 39779, Note_on_c, 1, 50, 66
3, 39806, Note_on_c, 1, 50, 0
3, 39838, Note_on_c, 1, 51, 58
3, 39866, Note_on_c, 1, 51, 0
3, 39899, Note_on_c, 1, 51, 62
3, 39926, Note_on_c, 1, 51, 0
3, 39959, Note_on_c, 1, 50, 66
3, 39987, Note_on_c, 1, 50, 0
3, 40019, Note_on_c, 1, 49, 66
3, 40046, Note_on_c, 1, 49, 0
3, 40080, Note_on_c, 1, 48, 58
3, 40107, Note_on_c, 1, 48, 0
3, 40139, Note_on_c, 1, 47, 66
3, 40167, Note_on_c, 1, 47, 0
3, 40199, Note_on_c, 1, 46, 66
3, 40227, Note_on_c, 1, 46, 0
3, 40259, Note_on_c, 1, 45, 62
3, 40287, Note_on_c, 1, 45, 0
3, 40319, Note_on_c, 1, 46, 54
3, 40378, Note_on_c, 1, 46, 0
3, 40379, Note_on_c, 1, 45, 62
3, 40440, Note_on_c, 1, 46, 58
3, 40442, Note_on_c, 1, 45, 0
3, 40498, Note_on_c, 1, 46, 0
3, 40500, Note_on_c, 1, 45, 66
3, 40560, Note_on_c, 1, 45, 0
3, 40560, Note_on_c, 1, 46, 75
3, 40616, Note_on_c, 1, 46, 0
3, 40921, Note_on_c, 1, 58, 52
3, 40921, Note_on_c, 1, 55, 50
3, 40936, Control_c, 1, 64, 127
3, 41006, Note_on_c, 1, 55, 0
3, 41007, Note_on_c, 1, 58, 0
3, 41032, Control_c, 1, 64, 0
3, 41159, Note_on_c, 1, 56, 62
3, 41161, Note_on_c, 1, 63, 52
3, 41178, Control_c, 1, 64, 127
3, 41219, Note_on_c, 1, 63, 0
3, 41222, Note_on_c, 1, 56, 0
3, 41280, Control_c, 1, 64, 0
3, 41400, Note_on_c, 1, 53, 54
3, 41401, Note_on_c, 1, 50, 58
3, 41413, Control_c, 1, 64, 127
3, 41463, Note_on_c, 1, 50, 0
3, 41466, Note_on_c, 1, 53, 0
3, 41513, Control_c, 1, 64, 0
3, 41518, Note_on_c, 1, 51, 52
3, 41519, Note_on_c, 1, 58, 43
3, 41605, Note_on_c, 1, 58, 0
3, 41605, Note_on_c, 1, 51, 0
3, 41818, Note_on_c, 1, 68, 66
3, 41846, Note_on_c, 1, 68, 0
3, 41878, Note_on_c, 1, 67, 79
3, 41906, Note_on_c, 1, 67, 0
3, 41938, Note_on_c, 1, 64, 66
3, 41967, Note_on_c, 1, 64, 0
3, 41998, Note_on_c, 1, 65, 70
3, 42026, Note_on_c, 1, 65, 0
3, 42058, Note_on_c, 1, 62, 66
3, 42086, Note_on_c, 1, 62, 0
3, 42118, Note_on_c, 1, 63, 79
3, 42178, Note_on_c, 1, 57, 70
3, 42239, Note_on_c, 1, 58, 79
3, 42240, Note_on_c, 1, 57, 0
3, 42361, Note_on_c, 1, 62, 66
3, 42363, Note_on_c, 1, 63, 0
3, 42444, Note_on_c, 1, 62, 0
3, 42450, Note_on_c, 1, 58, 0
3, 42482, Note_on_c, 1, 63, 62
3, 42510, Note_on_c, 1, 63, 0
3, 42540, Note_on_c, 1, 58, 66
3, 42568, Note_on_c, 1, 58, 0
3, 42599, Note_on_c, 1, 55, 66
3, 42627, Note_on_c, 1, 55, 0
3, 42661, Note_on_c, 1, 51, 66
3, 42688, Note_on_c, 1, 51, 0
3, 42722, Note_on_c, 1, 55, 54
3, 42743, Control_c, 1, 64, 127
3, 42779, Note_on_c, 1, 55, 0
3, 42781, Note_on_c, 1, 67, 70
3, 42787, Control_c, 1, 64, 0
3, 42842, Note_on_c, 1, 66, 50
3, 42865, Note_on_c, 1, 67, 0
3, 42898, Note_on_c, 1, 66, 0
3, 42901, Note_on_c, 1, 65, 52
3, 42959, Note_on_c, 1, 63, 54
3, 42961, Note_on_c, 1, 65, 0
3, 43017, Note_on_c, 1, 63, 0
3, 43018, Note_on_c, 1, 62, 66
3, 43077, Note_on_c, 1, 62, 0
3, 43078, Note_on_c, 1, 60, 62
3, 43138, Note_on_c, 1, 58, 66
3, 43140, Note_on_c, 1, 60, 0
3, 43198, Note_on_c, 1, 58, 0
3, 43198, Note_on_c, 1, 57, 75
3, 43227, Control_c, 1, 64, 127
3, 43285, Note_on_c, 1, 57, 0
3, 43327, Control_c, 1, 64, 0
3, 43379, Note_on_c, 1, 69, 70
3, 43439, Note_on_c, 1, 70, 70
3, 43441, Note_on_c, 1, 69, 0
3, 43498, Note_on_c, 1, 70, 0
3, 43499, Note_on_c, 1, 72, 70
3, 43559, Note_on_c, 1, 74, 66
3, 43560, Note_on_c, 1, 72, 0
3, 43617, Note_on_c, 1, 74, 0
3, 43619, Note_on_c, 1, 72, 58
3, 43679, Note_on_c, 1, 71, 75
3, 43681, Note_on_c, 1, 72, 0
3, 43707, Note_on_c, 1, 71, 0
3, 43739, Note_on_c, 1, 72, 75
3, 43766, Note_on_c, 1, 72, 0
3, 43799, Note_on_c, 1, 69, 66
3, 43827, Note_on_c, 1, 69, 0
3, 43859, Note_on_c, 1, 70, 70
3, 43886, Note_on_c, 1, 70, 0
3, 43919, Note_on_c, 1, 67, 58
3, 43947, Note_on_c, 1, 67, 0
3, 43979, Note_on_c, 1, 69, 83
3, 44006, Note_on_c, 1, 69, 0
3, 44039, Note_on_c, 1, 66, 52
3, 44066, Note_on_c, 1, 66, 0
3, 44099, Note_on_c, 1, 67, 79
3, 44126, Note_on_c, 1, 67, 0
3, 44159, Note_on_c, 1, 70, 62
3, 44160, Note_on_c, 1, 67, 79
3, 44182, Control_c, 1, 64, 127
3, 44398, Note_on_c, 1, 67, 0
3, 44398, Note_on_c, 1, 70, 0
3, 44401, Note_on_c, 1, 69, 47
3, 44401, Note_on_c, 1, 65, 39
3, 44403, Control_c, 1, 64, 0
3, 44434, Control_c, 1, 64, 127
3, 44520, Note_on_c, 1, 65, 0
3, 44520, Note_on_c, 1, 69, 0
3, 44527, Control_c, 1, 64, 0
3, 44639, Note_on_c, 1, 70, 70
3, 44639, Note_on_c, 1, 67, 83
3, 44879, Note_on_c, 1, 70, 0
3, 44879, Note_on_c, 1, 69, 46
3, 44879, Note_on_c, 1, 65, 52
3, 44880, Note_on_c, 1, 67, 0
3, 45001, Note_on_c, 1, 65, 0
3, 45001, Note_on_c, 1, 69, 0
3, 45118, Note_on_c, 1, 70, 79
3, 45119, Note_on_c, 1, 67, 83
3, 45146, Control_c, 1, 64, 127
3, 45348, Control_c, 1, 64, 0
3, 45358, Note_on_c, 1, 69, 47
3, 45359, Note_on_c, 1, 67, 0
3, 45359, Note_on_c, 1, 65, 47
3, 45360, Note_on_c, 1, 70, 0
3, 45480, Note_on_c, 1, 65, 0
3, 45480, Note_on_c, 1, 69, 0
3, 45599, Note_on_c, 1, 58, 45
3, 45605, Control_c, 1, 64, 127
3, 45659, Note_on_c, 1, 65, 41
3, 45660, Note_on_c, 1, 58, 0
3, 45717, Note_on_c, 1, 65, 0
3, 45720, Note_on_c, 1, 60, 66
3, 45724, Control_c, 1, 64, 0
3, 45751, Control_c, 1, 64, 127
3, 45781, Note_on_c, 1, 65, 40
3, 45782, Note_on_c, 1, 60, 0
3, 45841, Note_on_c, 1, 62, 54
3, 45843, Note_on_c, 1, 65, 0
3, 45846, Control_c, 1, 64, 0
3, 45867, Control_c, 1, 64, 127
3, 45900, Note_on_c, 1, 62, 0
3, 45902, Note_on_c, 1, 65, 38
3, 45960, Note_on_c, 1, 65, 0
3, 45961, Note_on_c, 1, 58, 54
3, 45963, Control_c, 1, 64, 0
3, 45984, Control_c, 1, 64, 127
3, 46021, Note_on_c, 1, 58, 0
3, 46022, Note_on_c, 1, 65, 45
3, 46077, Note_on_c, 1, 65, 0
3, 46081, Control_c, 1, 64, 0
3, 46081, Note_on_c, 1, 57, 66
3, 46101, Control_c, 1, 64, 127
3, 46140, Note_on_c, 1, 57, 0
3, 46141, Note_on_c, 1, 65, 35
3, 46196, Note_on_c, 1, 65, 0
3, 46197, Control_c, 1, 64, 0
3, 46199, Note_on_c, 1, 58, 50
3, 46215, Control_c, 1, 64, 127
3, 46257, Note_on_c, 1, 58, 0
3, 46259, Note_on_c, 1, 65, 50
3, 46316, Control_c, 1, 64, 0
3, 46317, Note_on_c, 1, 65, 0
3, 46319, Note_on_c, 1, 60, 66
3, 46337, Control_c, 1, 64, 127
3, 46377, Note_on_c, 1, 60, 0
3, 46379, Note_on_c, 1, 65, 42
3, 46434, Control_c, 1, 64, 0
3, 46437, Note_on_c, 1, 65, 0
3, 46438, Note_on_c, 1, 63, 58
3, 46454, Control_c, 1, 64, 127
3, 46495, Note_on_c, 1, 63, 0
3, 46498, Note_on_c, 1, 65, 46
3, 46550, Control_c, 1, 64, 0
3, 46556, Note_on_c, 1, 65, 0
3, 46558, Note_on_c, 1, 62, 66
3, 46569, Control_c, 1, 64, 127
3, 46616, Note_on_c, 1, 62, 0
3, 46619, Note_on_c, 1, 65, 31
3, 46677, Note_on_c, 1, 65, 0
3, 46678, Note_on_c, 1, 62, 58
3, 46735, Note_on_c, 1, 62, 0
3, 46739, Note_on_c, 1, 65, 41
3, 46791, Control_c, 1, 64, 0
3, 46797, Note_on_c, 1, 65, 0
3, 46798, Note_on_c, 1, 57, 75
3, 46813, Control_c, 1, 64, 127
3, 46856, Note_on_c, 1, 57, 0
3, 46858, Note_on_c, 1, 65, 40
3, 46917, Note_on_c, 1, 65, 0
3, 46919, Note_on_c, 1, 57, 66
3, 46975, Note_on_c, 1, 57, 0
3, 46978, Note_on_c, 1, 65, 49
3, 47007, Note_on_c, 1, 65, 0
3, 47031, Control_c, 1, 64, 0
3, 47038, Note_on_c, 1, 58, 62
3, 47055, Control_c, 1, 64, 127
3, 47096, Control_c, 1, 64, 0
3, 47098, Note_on_c, 1, 57, 52
3, 47101, Note_on_c, 1, 58, 0
3, 47159, Note_on_c, 1, 58, 58
3, 47160, Note_on_c, 1, 57, 0
3, 47219, Note_on_c, 1, 51, 54
3, 47220, Note_on_c, 1, 58, 0
3, 47277, Note_on_c, 1, 51, 0
3, 47279, Note_on_c, 1, 53, 49
3, 47398, Note_on_c, 1, 53, 0
3, 47519, Note_on_c, 1, 58, 66
3, 47524, Control_c, 1, 64, 127
3, 47579, Note_on_c, 1, 65, 45
3, 47580, Note_on_c, 1, 58, 0
3, 47616, Note_on_c, 1, 65, 0
3, 47639, Note_on_c, 1, 60, 75
3, 47643, Control_c, 1, 64, 0
3, 47661, Control_c, 1, 64, 127
3, 47699, Note_on_c, 1, 60, 0
3, 47699, Note_on_c, 1, 65, 32
3, 47754, Control_c, 1, 64, 0
3, 47757, Note_on_c, 1, 65, 0
3, 47758, Note_on_c, 1, 62, 62
3, 47777, Control_c, 1, 64, 127
3, 47817, Note_on_c, 1, 62, 0
3, 47820, Note_on_c, 1, 65, 41
3, 47872, Control_c, 1, 64, 0
3, 47877, Note_on_c, 1, 65, 0
3, 47879, Note_on_c, 1, 58, 58
3, 47894, Control_c, 1, 64, 127
3, 47937, Note_on_c, 1, 58, 0
3, 47941, Note_on_c, 1, 65, 46
3, 47997, Note_on_c, 1, 65, 0
3, 47998, Control_c, 1, 64, 0
3, 47999, Note_on_c, 1, 57, 75
3, 48021, Control_c, 1, 64, 127
3, 48057, Note_on_c, 1, 57, 0
3, 48059, Note_on_c, 1, 65, 49
3, 48108, Control_c, 1, 64, 0
3, 48117, Note_on_c, 1, 65, 0
3, 48119, Note_on_c, 1, 58, 58
3, 48133, Control_c, 1, 64, 127
3, 48177, Note_on_c, 1, 58, 0
3, 48178, Note_on_c, 1, 65, 46
3, 48230, Control_c, 1, 64, 0
3, 48237, Note_on_c, 1, 65, 0
3, 48238, Note_on_c, 1, 60, 62
3, 48255, Control_c, 1, 64, 127
3, 48297, Note_on_c, 1, 60, 0
3, 48298, Note_on_c, 1, 65, 52
3, 48355, Control_c, 1, 64, 0
3, 48358, Note_on_c, 1, 63, 62
3, 48359, Note_on_c, 1, 65, 0
3, 48382, Control_c, 1, 64, 127
3, 48417, Note_on_c, 1, 63, 0
3, 48418, Note_on_c, 1, 65, 47
3, 48471, Control_c, 1, 64, 0
3, 48477, Note_on_c, 1, 65, 0
3, 48479, Note_on_c, 1, 62, 75
3, 48493, Control_c, 1, 64, 127
3, 48593, Control_c, 1, 64, 0
3, 48596, Note_on_c, 1, 62, 0
3, 48719, Note_on_c, 1, 67, 66
3, 48719, Note_on_c, 1, 63, 62
3, 48724, Control_c, 1, 64, 127
3, 48838, Control_c, 1, 64, 0
3, 48840, Note_on_c, 1, 63, 0
3, 48840, Note_on_c, 1, 67, 0
3, 48960, Note_on_c, 1, 53, 66
3, 48961, Note_on_c, 1, 62, 83
3, 49081, Note_on_c, 1, 63, 62
3, 49084, Note_on_c, 1, 62, 0
3, 49198, Note_on_c, 1, 63, 0
3, 49199, Note_on_c, 1, 53, 0
3, 49199, Note_on_c, 1, 58, 52
3, 49199, Note_on_c, 1, 62, 79
3, 49322, Note_on_c, 1, 62, 0
3, 49324, Note_on_c, 1, 58, 0
3, 49441, Note_on_c, 1, 46, 58
3, 49450, Control_c, 1, 64, 127
3, 49495, Note_on_c, 1, 46, 0
3, 49499, Note_on_c, 1, 58, 42
3, 49529, Note_on_c, 1, 58, 0
3, 49559, Note_on_c, 1, 58, 50
3, 49588, Note_on_c, 1, 58, 0
3, 49619, Note_on_c, 1, 58, 54
3, 49649, Note_on_c, 1, 58, 0
3, 49679, Control_c, 1, 64, 0
3, 49679, Note_on_c, 1, 46, 58
3, 49700, Control_c, 1, 64, 127
3, 49715, Note_on_c, 1, 46, 0
3, 49739, Note_on_c, 1, 58, 54
3, 49768, Note_on_c, 1, 58, 0
3, 49799, Note_on_c, 1, 58, 52
3, 49828, Note_on_c, 1, 58, 0
3, 49859, Note_on_c, 1, 58, 52
3, 49885, Note_on_c, 1, 58, 0
3, 49914, Control_c, 1, 64, 0
3, 49919, Note_on_c, 1, 41, 54
3, 49937, Control_c, 1, 64, 127
3, 49977, Note_on_c, 1, 41, 0
3, 49979, Note_on_c, 1, 53, 50
3, 50008, Note_on_c, 1, 53, 0
3, 50039, Note_on_c, 1, 53, 54
3, 50068, Note_on_c, 1, 53, 0
3, 50098, Note_on_c, 1, 53, 62
3, 50128, Note_on_c, 1, 53, 0
3, 50153, Control_c, 1, 64, 0
3, 50159, Note_on_c, 1, 46, 62
3, 50177, Control_c, 1, 64, 127
3, 50217, Note_on_c, 1, 46, 0
3, 50218, Note_on_c, 1, 58, 50
3, 50248, Note_on_c, 1, 58, 0
3, 50278, Note_on_c, 1, 58, 50
3, 50308, Note_on_c, 1, 58, 0
3, 50338, Note_on_c, 1, 58, 52
3, 50368, Note_on_c, 1, 58, 0
3, 50394, Control_c, 1, 64, 0
3, 50398, Note_on_c, 1, 46, 52
3, 50411, Control_c, 1, 64, 127
3, 50458, Note_on_c, 1, 58, 52
3, 50459, Note_on_c, 1, 46, 0
3, 50488, Note_on_c, 1, 58, 0
3, 50518, Note_on_c, 1, 58, 58
3, 50548, Note_on_c, 1, 58, 0
3, 50578, Note_on_c, 1, 58, 52
3, 50607, Note_on_c, 1, 58, 0
3, 50631, Control_c, 1, 64, 0
3, 50638, Note_on_c, 1, 46, 70
3, 50650, Control_c, 1, 64, 127
3, 50673, Note_on_c, 1, 46, 0
3, 50698, Note_on_c, 1, 58, 50
3, 50728, Note_on_c, 1, 58, 0
3, 50758, Note_on_c, 1, 58, 54
3, 50787, Note_on_c, 1, 58, 0
3, 50818, Note_on_c, 1, 58, 50
3, 50845, Note_on_c, 1, 58, 0
3, 50867, Control_c, 1, 64, 0
3, 50878, Note_on_c, 1, 41, 54
3, 50891, Control_c, 1, 64, 127
3, 50917, Note_on_c, 1, 41, 0
3, 50938, Note_on_c, 1, 53, 52
3, 50967, Note_on_c, 1, 53, 0
3, 50998, Note_on_c, 1, 53, 66
3, 51027, Note_on_c, 1, 53, 0
3, 51057, Note_on_c, 1, 53, 58
3, 51088, Note_on_c, 1, 53, 0
3, 51112, Control_c, 1, 64, 0
3, 51118, Note_on_c, 1, 46, 62
3, 51135, Control_c, 1, 64, 127
3, 51176, Note_on_c, 1, 46, 0
3, 51178, Note_on_c, 1, 58, 49
3, 51208, Note_on_c, 1, 58, 0
3, 51238, Note_on_c, 1, 58, 62
3, 51266, Note_on_c, 1, 58, 0
3, 51304, Control_c, 1, 64, 0
3, 51479, Note_on_c, 1, 55, 66
3, 51658, Note_on_c, 1, 57, 75
3, 51660, Note_on_c, 1, 55, 0
3, 51687, Note_on_c, 1, 58, 50
3, 51689, Note_on_c, 1, 57, 0
3, 51718, Note_on_c, 1, 60, 70
3, 51719, Note_on_c, 1, 58, 0
3, 51778, Note_on_c, 1, 58, 66
3, 51779, Note_on_c, 1, 60, 0
3, 51899, Note_on_c, 1, 57, 66
3, 51901, Note_on_c, 1, 58, 0
3, 51988, Note_on_c, 1, 57, 0
3, 52018, Note_on_c, 1, 41, 66
3, 52079, Note_on_c, 1, 42, 66
3, 52080, Note_on_c, 1, 41, 0
3, 52137, Note_on_c, 1, 42, 0
3, 52138, Note_on_c, 1, 43, 58
3, 52199, Note_on_c, 1, 44, 66
3, 52201, Note_on_c, 1, 43, 0
3, 52258, Note_on_c, 1, 44, 0
3, 52258, Note_on_c, 1, 45, 62
3, 52317, Note_on_c, 1, 45, 0
3, 52318, Note_on_c, 1, 46, 66
3, 52356, Note_on_c, 1, 46, 0
3, 52378, Note_on_c, 1, 58, 75
3, 52406, Note_on_c, 1, 58, 0
3, 52438, Note_on_c, 1, 60, 75
3, 52467, Note_on_c, 1, 60, 0
3, 52498, Note_on_c, 1, 62, 83
3, 52526, Note_on_c, 1, 62, 0
3, 52558, Note_on_c, 1, 63, 79
3, 52586, Note_on_c, 1, 63, 0
3, 52618, Note_on_c, 1, 64, 75
3, 52646, Note_on_c, 1, 64, 0
3, 52679, Note_on_c, 1, 65, 75
3, 52708, Note_on_c, 1, 65, 0
3, 52738, Note_on_c, 1, 66, 70
3, 52767, Note_on_c, 1, 66, 0
3, 52798, Note_on_c, 1, 65, 83
3, 52887, Control_c, 1, 64, 127
3, 52897, Note_on_c, 1, 65, 0
3, 52919, Note_on_c, 1, 65, 79
3, 52925, Control_c, 1, 64, 0
3, 52949, Control_c, 1, 64, 127
3, 53041, Note_on_c, 1, 66, 62
3, 53042, Note_on_c, 1, 65, 0
3, 53046, Control_c, 1, 64, 0
3, 53162, Note_on_c, 1, 67, 70
3, 53163, Note_on_c, 1, 66, 0
3, 53217, Note_on_c, 1, 67, 0
3, 53222, Note_on_c, 1, 43, 79
3, 53247, Note_on_c, 1, 43, 0
3, 53281, Note_on_c, 1, 58, 58
3, 53308, Note_on_c, 1, 58, 0
3, 53341, Note_on_c, 1, 58, 62
3, 53367, Note_on_c, 1, 58, 0
3, 53400, Note_on_c, 1, 58, 75
3, 53427, Note_on_c, 1, 58, 0
3, 53459, Note_on_c, 1, 58, 70
3, 53487, Note_on_c, 1, 58, 0
3, 53519, Note_on_c, 1, 52, 70
3, 53547, Note_on_c, 1, 52, 0
3, 53578, Note_on_c, 1, 52, 66
3, 53607, Note_on_c, 1, 52, 0
3, 53638, Note_on_c, 1, 52, 62
3, 53666, Note_on_c, 1, 52, 0
3, 53698, Note_on_c, 1, 52, 75
3, 53726, Note_on_c, 1, 52, 0
3, 53758, Note_on_c, 1, 54, 62
3, 53787, Note_on_c, 1, 54, 0
3, 53818, Note_on_c, 1, 54, 66
3, 53847, Note_on_c, 1, 54, 0
3, 53881, Note_on_c, 1, 54, 66
3, 53907, Note_on_c, 1, 54, 0
3, 53939, Note_on_c, 1, 54, 70
3, 53966, Note_on_c, 1, 54, 0
3, 54000, Note_on_c, 1, 44, 75
3, 54027, Note_on_c, 1, 44, 0
3, 54061, Note_on_c, 1, 44, 83
3, 54087, Note_on_c, 1, 44, 0
3, 54119, Note_on_c, 1, 45, 83
3, 54147, Note_on_c, 1, 45, 0
3, 54179, Note_on_c, 1, 45, 70
3, 54207, Note_on_c, 1, 45, 0
3, 54239, Note_on_c, 1, 46, 79
3, 54267, Note_on_c, 1, 46, 0
3, 54298, Note_on_c, 1, 58, 79
3, 54326, Note_on_c, 1, 58, 0
3, 54358, Note_on_c, 1, 57, 79
3, 54386, Note_on_c, 1, 57, 0
3, 54418, Note_on_c, 1, 56, 79
3, 54446, Note_on_c, 1, 56, 0
3, 54478, Note_on_c, 1, 55, 83
3, 54506, Note_on_c, 1, 55, 0
3, 54538, Note_on_c, 1, 54, 83
3, 54566, Note_on_c, 1, 54, 0
3, 54598, Note_on_c, 1, 53, 79
3, 54626, Note_on_c, 1, 53, 0
3, 54658, Note_on_c, 1, 50, 83
3, 54686, Note_on_c, 1, 50, 0
3, 54719, Note_on_c, 1, 51, 88
3, 54725, Control_c, 1, 64, 127
3, 54756, Note_on_c, 1, 51, 0
3, 54833, Control_c, 1, 64, 0
3, 54840, Note_on_c, 1, 40, 83
3, 54840, Note_on_c, 1, 52, 88
3, 54852, Control_c, 1, 64, 127
3, 54895, Note_on_c, 1, 52, 0
3, 54896, Note_on_c, 1, 40, 0
3, 54963, Control_c, 1, 64, 0
3, 55197, Note_on_c, 1, 53, 70
3, 55201, Control_c, 1, 64, 127
3, 55258, Note_on_c, 1, 62, 47
3, 55259, Note_on_c, 1, 53, 0
3, 55317, Note_on_c, 1, 62, 0
3, 55317, Note_on_c, 1, 58, 62
3, 55376, Note_on_c, 1, 58, 0
3, 55378, Note_on_c, 1, 62, 50
3, 55417, Note_on_c, 1, 62, 0
3, 55428, Control_c, 1, 64, 0
3, 55437, Note_on_c, 1, 53, 66
3, 55446, Control_c, 1, 64, 127
3, 55497, Note_on_c, 1, 62, 62
3, 55501, Note_on_c, 1, 53, 0
3, 55536, Note_on_c, 1, 62, 0
3, 55549, Control_c, 1, 64, 0
3, 55557, Note_on_c, 1, 58, 54
3, 55565, Control_c, 1, 64, 127
3, 55616, Note_on_c, 1, 58, 0
3, 55617, Note_on_c, 1, 62, 70
3, 55649, Note_on_c, 1, 62, 0
3, 55676, Control_c, 1, 64, 0
3, 55677, Note_on_c, 1, 53, 75
3, 55698, Control_c, 1, 64, 127
3, 55728, Note_on_c, 1, 53, 0
3, 55737, Note_on_c, 1, 63, 62
3, 55778, Note_on_c, 1, 63, 0
3, 55786, Control_c, 1, 64, 0
3, 55797, Note_on_c, 1, 57, 83
3, 55804, Control_c, 1, 64, 127
3, 55856, Note_on_c, 1, 57, 0
3, 55857, Note_on_c, 1, 63, 58
3, 55892, Note_on_c, 1, 63, 0
3, 55910, Control_c, 1, 64, 0
3, 55917, Note_on_c, 1, 53, 83
3, 55931, Control_c, 1, 64, 127
3, 55977, Note_on_c, 1, 53, 0
3, 55977, Note_on_c, 1, 63, 52
3, 56017, Note_on_c, 1, 63, 0
3, 56027, Control_c, 1, 64, 0
3, 56037, Note_on_c, 1, 57, 79
3, 56041, Control_c, 1, 64, 127
3, 56078, Note_on_c, 1, 57, 0
3, 56097, Note_on_c, 1, 63, 54
3, 56126, Note_on_c, 1, 63, 0
3, 56133, Note_on_c, 1, 46, 50
3, 56140, Control_c, 1, 64, 0
3, 56161, Control_c, 1, 64, 127
3, 56193, Note_on_c, 1, 46, 0
3, 56217, Note_on_c, 1, 58, 50
3, 56248, Note_on_c, 1, 58, 0
3, 56278, Note_on_c, 1, 58, 52
3, 56308, Note_on_c, 1, 58, 0
3, 56338, Note_on_c, 1, 58, 46
3, 56367, Note_on_c, 1, 58, 0
3, 56399, Note_on_c, 1, 58, 52
3, 56427, Note_on_c, 1, 58, 0
3, 56485, Control_c, 1, 64, 0
3, 56640, Note_on_c, 1, 46, 62
3, 56646, Control_c, 1, 64, 127
3, 56695, Note_on_c, 1, 46, 0
3, 56701, Note_on_c, 1, 58, 46
3, 56728, Note_on_c, 1, 58, 0
3, 56761, Note_on_c, 1, 58, 52
3, 56788, Note_on_c, 1, 58, 0
3, 56819, Note_on_c, 1, 58, 52
3, 56847, Note_on_c, 1, 58, 0
3, 56881, Note_on_c, 1, 58, 49
3, 56907, Note_on_c, 1, 58, 0
3, 56966, Control_c, 1, 64, 0
3, 57116, Control_c, 1, 64, 127
3, 57118, Note_on_c, 1, 46, 66
3, 57175, Note_on_c, 1, 46, 0
3, 57178, Note_on_c, 1, 58, 43
3, 57208, Note_on_c, 1, 58, 0
3, 57239, Note_on_c, 1, 58, 52
3, 57268, Note_on_c, 1, 58, 0
3, 57298, Note_on_c, 1, 58, 52
3, 57327, Note_on_c, 1, 58, 0
3, 57359, Note_on_c, 1, 58, 54
3, 57387, Note_on_c, 1, 58, 0
3, 57439, Control_c, 1, 64, 0
3, 57598, Note_on_c, 1, 41, 45
3, 57601, Control_c, 1, 64, 127
3, 57635, Note_on_c, 1, 41, 0
3, 57658, Note_on_c, 1, 53, 52
3, 57689, Note_on_c, 1, 53, 0
3, 57718, Note_on_c, 1, 53, 62
3, 57748, Note_on_c, 1, 53, 0
3, 57778, Note_on_c, 1, 53, 58
3, 57807, Note_on_c, 1, 53, 0
3, 57839, Note_on_c, 1, 53, 54
3, 57866, Note_on_c, 1, 53, 0
3, 57902, Control_c, 1, 64, 0
3, 58078, Note_on_c, 1, 46, 97
3, 58108, Note_on_c, 1, 46, 0
3, 58201, Note_on_c, 1, 58, 103
3, 58235, Note_on_c, 1, 58, 0
3, 58322, Note_on_c, 1, 46, 88
3, 58354, Note_on_c, 1, 46, 0
3, 58560, Control_c, 1, 121, 0
3, 58560, End_track
4, 0, Start_track
4, 0, MIDI_port, 0
4, 0, Title_t, "Title: Piano Sonata in Bbmaj (K. 570), 3rd Mov't."
4, 0, End_track
5, 0, Start_track
5, 0, MIDI_port, 0
5, 0, Title_t, "Composer: W. A. Mozart"
5, 0, End_track
6, 0, Start_track
6, 0, MIDI_port, 0
6, 0, Title_t, "Sequence: Faren Raborn, Copyright 1996"
6, 0, End_track
7, 0, Start_track
7, 0, MIDI_port, 0
7, 0, Title_t, "Email: raborn@dtx.net"
7, 0, End_track
0, 0, End_of_file
