0, 0, Header, 1, 7, 120
1, 0, Start_track
1, 0, Time_signature, 3, 2, 24, 8
1, 0, Key_signature, -2, "major"
1, 0, Tempo, 461538
1, 0, End_track
2, 0, Start_track
2, 0, MIDI_port, 0
2, 0, Program_c, 0, 0
2, 0, Control_c, 0, 7, 127
2, 0, Control_c, 0, 10, 84
2, 0, Control_c, 0, 121, 0
2, 0, Control_c, 0, 91, 75
2, 1, Note_on_c, 0, 70, 64
2, 149, Control_c, 0, 64, 127
2, 239, Note_on_c, 0, 65, 68
2, 241, Note_on_c, 0, 70, 0
2, 241, Control_c, 0, 64, 0
2, 358, Note_on_c, 0, 65, 0
2, 359, Note_on_c, 0, 62, 68
2, 411, Control_c, 0, 64, 127
2, 599, Note_on_c, 0, 65, 59
2, 601, Note_on_c, 0, 62, 0
2, 603, Control_c, 0, 64, 0
2, 719, Note_on_c, 0, 70, 60
2, 728, Note_on_c, 0, 65, 0
2, 958, Note_on_c, 0, 74, 72
2, 959, Note_on_c, 0, 70, 0
2, 1079, Note_on_c, 0, 77, 64
2, 1086, Note_on_c, 0, 74, 0
2, 1221, Control_c, 0, 64, 127
2, 1322, Note_on_c, 0, 82, 62
2, 1337, Control_c, 0, 64, 0
2, 1339, Note_on_c, 0, 77, 0
2, 1382, Note_on_c, 0, 74, 62
2, 1385, Note_on_c, 0, 82, 0
2, 1442, Note_on_c, 0, 77, 62
2, 1443, Note_on_c, 0, 74, 0
2, 1501, Note_on_c, 0, 75, 59
2, 1503, Note_on_c, 0, 77, 0
2, 1558, Note_on_c, 0, 75, 0
2, 1559, Note_on_c, 0, 74, 72
2, 1617, Note_on_c, 0, 74, 0
2, 1619, Note_on_c, 0, 72, 55
2, 1678, Note_on_c, 0, 70, 64
2, 1682, Note_on_c, 0, 72, 0
2, 1739, Note_on_c, 0, 69, 72
2, 1743, Note_on_c, 0, 70, 0
2, 1799, Note_on_c, 0, 69, 0
2, 1799, Note_on_c, 0, 67, 57
2, 1859, Note_on_c, 0, 65, 64
2, 1865, Note_on_c, 0, 67, 0
2, 1919, Note_on_c, 0, 64, 60
2, 1923, Note_on_c, 0, 65, 0
2, 1979, Note_on_c, 0, 65, 60
2, 1980, Note_on_c, 0, 64, 0
2, 2038, Note_on_c, 0, 67, 68
2, 2039, Note_on_c, 0, 65, 0
2, 2098, Note_on_c, 0, 69, 56
2, 2099, Note_on_c, 0, 67, 0
2, 2159, Note_on_c, 0, 70, 72
2, 2164, Note_on_c, 0, 69, 0
2, 2179, Note_on_c, 0, 70, 0
2, 2218, Note_on_c, 0, 72, 64
2, 2234, Note_on_c, 0, 70, 57
2, 2235, Note_on_c, 0, 72, 0
2, 2251, Note_on_c, 0, 69, 62
2, 2256, Note_on_c, 0, 70, 0
2, 2278, Note_on_c, 0, 70, 56
2, 2283, Note_on_c, 0, 69, 0
2, 2336, Note_on_c, 0, 70, 0
2, 2339, Note_on_c, 0, 72, 76
2, 2356, Note_on_c, 0, 72, 0
2, 2399, Note_on_c, 0, 74, 68
2, 2417, Note_on_c, 0, 74, 0
2, 2458, Note_on_c, 0, 75, 68
2, 2474, Note_on_c, 0, 75, 0
2, 2518, Note_on_c, 0, 76, 59
2, 2578, Note_on_c, 0, 77, 68
2, 2582, Note_on_c, 0, 76, 0
2, 2638, Note_on_c, 0, 77, 0
2, 2638, Note_on_c, 0, 79, 62
2, 2699, Note_on_c, 0, 77, 60
2, 2704, Note_on_c, 0, 79, 0
2, 2759, Note_on_c, 0, 82, 72
2, 2766, Note_on_c, 0, 77, 0
2, 2820, Note_on_c, 0, 74, 62
2, 2821, Note_on_c, 0, 82, 0
2, 2881, Note_on_c, 0, 77, 68
2, 2882, Note_on_c, 0, 74, 0
2, 2939, Note_on_c, 0, 75, 57
2, 2942, Note_on_c, 0, 77, 0
2, 2999, Note_on_c, 0, 74, 64
2, 3003, Note_on_c, 0, 75, 0
2, 3059, Note_on_c, 0, 72, 62
2, 3061, Note_on_c, 0, 74, 0
2, 3119, Note_on_c, 0, 70, 64
2, 3122, Note_on_c, 0, 72, 0
2, 3177, Note_on_c, 0, 70, 0
2, 3178, Note_on_c, 0, 69, 64
2, 3239, Note_on_c, 0, 67, 56
2, 3240, Note_on_c, 0, 69, 0
2, 3299, Note_on_c, 0, 65, 62
2, 3305, Note_on_c, 0, 67, 0
2, 3359, Note_on_c, 0, 64, 60
2, 3361, Note_on_c, 0, 65, 0
2, 3419, Note_on_c, 0, 65, 64
2, 3420, Note_on_c, 0, 64, 0
2, 3479, Note_on_c, 0, 67, 64
2, 3481, Note_on_c, 0, 65, 0
2, 3534, Note_on_c, 0, 67, 0
2, 3539, Note_on_c, 0, 69, 60
2, 3599, Note_on_c, 0, 69, 0
2, 3599, Note_on_c, 0, 70, 62
2, 3649, Note_on_c, 0, 70, 0
2, 3721, Note_on_c, 0, 70, 68
2, 3769, Note_on_c, 0, 70, 0
2, 3841, Note_on_c, 0, 74, 72
2, 3885, Note_on_c, 0, 74, 0
2, 3964, Note_on_c, 0, 70, 68
2, 4078, Note_on_c, 0, 70, 0
2, 4171, Note_on_c, 0, 70, 64
2, 4190, Note_on_c, 0, 70, 0
2, 4201, Note_on_c, 0, 72, 72
2, 4223, Note_on_c, 0, 72, 0
2, 4228, Note_on_c, 0, 70, 62
2, 4252, Note_on_c, 0, 70, 0
2, 4257, Note_on_c, 0, 69, 62
2, 4288, Note_on_c, 0, 69, 0
2, 4288, Note_on_c, 0, 70, 62
2, 4318, Note_on_c, 0, 79, 76
2, 4319, Note_on_c, 0, 70, 0
2, 4408, Note_on_c, 0, 79, 0
2, 4532, Note_on_c, 0, 70, 72
2, 4546, Note_on_c, 0, 70, 0
2, 4562, Note_on_c, 0, 72, 64
2, 4588, Note_on_c, 0, 72, 0
2, 4591, Note_on_c, 0, 70, 57
2, 4616, Note_on_c, 0, 70, 0
2, 4621, Note_on_c, 0, 69, 60
2, 4649, Note_on_c, 0, 69, 0
2, 4650, Note_on_c, 0, 70, 62
2, 4676, Note_on_c, 0, 70, 0
2, 4681, Note_on_c, 0, 77, 64
2, 4778, Note_on_c, 0, 77, 0
2, 4891, Note_on_c, 0, 70, 76
2, 4910, Note_on_c, 0, 70, 0
2, 4921, Note_on_c, 0, 72, 68
2, 4949, Note_on_c, 0, 70, 53
2, 4950, Note_on_c, 0, 72, 0
2, 4977, Note_on_c, 0, 70, 0
2, 4979, Note_on_c, 0, 69, 64
2, 5006, Note_on_c, 0, 69, 0
2, 5009, Note_on_c, 0, 70, 50
2, 5039, Note_on_c, 0, 72, 68
2, 5042, Note_on_c, 0, 70, 0
2, 5158, Note_on_c, 0, 77, 68
2, 5160, Note_on_c, 0, 72, 0
2, 5278, Note_on_c, 0, 75, 64
2, 5279, Note_on_c, 0, 77, 0
2, 5399, Note_on_c, 0, 73, 62
2, 5405, Note_on_c, 0, 75, 0
2, 5520, Note_on_c, 0, 74, 60
2, 5524, Note_on_c, 0, 73, 0
2, 5576, Note_on_c, 0, 74, 0
2, 5611, Note_on_c, 0, 70, 64
2, 5631, Note_on_c, 0, 70, 0
2, 5641, Note_on_c, 0, 72, 68
2, 5669, Note_on_c, 0, 70, 57
2, 5672, Note_on_c, 0, 72, 0
2, 5694, Note_on_c, 0, 70, 0
2, 5698, Note_on_c, 0, 69, 60
2, 5728, Note_on_c, 0, 70, 56
2, 5729, Note_on_c, 0, 69, 0
2, 5759, Note_on_c, 0, 70, 0
2, 5759, Note_on_c, 0, 79, 76
2, 5883, Note_on_c, 0, 79, 0
2, 5970, Note_on_c, 0, 70, 64
2, 5986, Note_on_c, 0, 70, 0
2, 5999, Note_on_c, 0, 72, 68
2, 6028, Note_on_c, 0, 72, 0
2, 6029, Note_on_c, 0, 70, 68
2, 6057, Note_on_c, 0, 70, 0
2, 6059, Note_on_c, 0, 69, 64
2, 6088, Note_on_c, 0, 69, 0
2, 6088, Note_on_c, 0, 70, 60
2, 6117, Note_on_c, 0, 70, 0
2, 6119, Note_on_c, 0, 77, 72
2, 6245, Note_on_c, 0, 77, 0
2, 6329, Note_on_c, 0, 70, 62
2, 6346, Note_on_c, 0, 70, 0
2, 6359, Note_on_c, 0, 72, 76
2, 6389, Note_on_c, 0, 70, 57
2, 6391, Note_on_c, 0, 72, 0
2, 6419, Note_on_c, 0, 70, 0
2, 6419, Note_on_c, 0, 69, 64
2, 6446, Note_on_c, 0, 69, 0
2, 6448, Note_on_c, 0, 70, 60
2, 6475, Note_on_c, 0, 72, 64
2, 6477, Note_on_c, 0, 70, 0
2, 6596, Note_on_c, 0, 72, 0
2, 6598, Note_on_c, 0, 75, 64
2, 6719, Note_on_c, 0, 69, 59
2, 6722, Note_on_c, 0, 75, 0
2, 6839, Note_on_c, 0, 70, 60
2, 6842, Note_on_c, 0, 69, 0
2, 6962, Note_on_c, 0, 70, 0
2, 7201, Note_on_c, 0, 70, 72
2, 7201, Note_on_c, 0, 79, 85
2, 7201, Note_on_c, 0, 74, 89
2, 7209, Control_c, 0, 64, 127
2, 7242, Note_on_c, 0, 74, 0
2, 7246, Note_on_c, 0, 79, 0
2, 7249, Note_on_c, 0, 70, 0
2, 7321, Note_on_c, 0, 67, 72
2, 7322, Control_c, 0, 64, 0
2, 7348, Control_c, 0, 64, 127
2, 7375, Note_on_c, 0, 67, 0
2, 7442, Control_c, 0, 64, 0
2, 7558, Control_c, 0, 64, 127
2, 7559, Note_on_c, 0, 66, 64
2, 7559, Note_on_c, 0, 74, 80
2, 7559, Note_on_c, 0, 69, 85
2, 7609, Note_on_c, 0, 69, 0
2, 7610, Note_on_c, 0, 74, 0
2, 7612, Note_on_c, 0, 66, 0
2, 7679, Control_c, 0, 64, 0
2, 7681, Note_on_c, 0, 62, 68
2, 7705, Control_c, 0, 64, 127
2, 7745, Note_on_c, 0, 62, 0
2, 7804, Control_c, 0, 64, 0
2, 7919, Note_on_c, 0, 63, 62
2, 8161, Note_on_c, 0, 63, 0
2, 8161, Note_on_c, 0, 65, 72
2, 8191, Note_on_c, 0, 63, 57
2, 8196, Note_on_c, 0, 65, 0
2, 8218, Note_on_c, 0, 63, 0
2, 8219, Note_on_c, 0, 62, 62
2, 8250, Note_on_c, 0, 63, 52
2, 8254, Note_on_c, 0, 62, 0
2, 8281, Note_on_c, 0, 63, 0
2, 8281, Note_on_c, 0, 72, 64
2, 8325, Control_c, 0, 64, 127
2, 8339, Note_on_c, 0, 70, 60
2, 8342, Note_on_c, 0, 72, 0
2, 8350, Control_c, 0, 64, 0
2, 8380, Control_c, 0, 64, 127
2, 8393, Control_c, 0, 64, 0
2, 8394, Note_on_c, 0, 70, 0
2, 8401, Note_on_c, 0, 70, 68
2, 8413, Control_c, 0, 64, 127
2, 8473, Note_on_c, 0, 70, 0
2, 8521, Note_on_c, 0, 70, 68
2, 8524, Control_c, 0, 64, 0
2, 8547, Control_c, 0, 64, 127
2, 8611, Note_on_c, 0, 70, 0
2, 8641, Note_on_c, 0, 70, 64
2, 8652, Control_c, 0, 64, 0
2, 8676, Control_c, 0, 64, 127
2, 8701, Note_on_c, 0, 75, 57
2, 8703, Note_on_c, 0, 70, 0
2, 8716, Control_c, 0, 64, 0
2, 8761, Note_on_c, 0, 74, 72
2, 8763, Note_on_c, 0, 75, 0
2, 8821, Note_on_c, 0, 74, 0
2, 8821, Note_on_c, 0, 73, 60
2, 8875, Note_on_c, 0, 73, 0
2, 8880, Note_on_c, 0, 72, 57
2, 8941, Note_on_c, 0, 71, 72
2, 8945, Note_on_c, 0, 72, 0
2, 9001, Note_on_c, 0, 71, 0
2, 9001, Note_on_c, 0, 70, 57
2, 9128, Note_on_c, 0, 70, 0
2, 9362, Note_on_c, 0, 63, 64
2, 9384, Control_c, 0, 64, 127
2, 9590, Note_on_c, 0, 63, 0
2, 9599, Note_on_c, 0, 65, 64
2, 9599, Control_c, 0, 64, 0
2, 9629, Note_on_c, 0, 63, 62
2, 9637, Note_on_c, 0, 65, 0
2, 9658, Note_on_c, 0, 63, 0
2, 9659, Note_on_c, 0, 62, 57
2, 9689, Note_on_c, 0, 63, 59
2, 9694, Note_on_c, 0, 62, 0
2, 9721, Note_on_c, 0, 63, 0
2, 9721, Note_on_c, 0, 72, 62
2, 9778, Note_on_c, 0, 72, 0
2, 9779, Note_on_c, 0, 71, 64
2, 9829, Note_on_c, 0, 71, 0
2, 9839, Note_on_c, 0, 71, 76
2, 9862, Control_c, 0, 64, 127
2, 9944, Note_on_c, 0, 71, 0
2, 9959, Note_on_c, 0, 71, 76
2, 9968, Control_c, 0, 64, 0
2, 9993, Control_c, 0, 64, 127
2, 10078, Note_on_c, 0, 71, 0
2, 10082, Note_on_c, 0, 72, 62
2, 10109, Control_c, 0, 64, 127
2, 10142, Note_on_c, 0, 72, 0
2, 10142, Note_on_c, 0, 79, 72
2, 10150, Control_c, 0, 64, 0
2, 10202, Note_on_c, 0, 75, 62
2, 10205, Note_on_c, 0, 79, 0
2, 10261, Note_on_c, 0, 74, 68
2, 10263, Note_on_c, 0, 75, 0
2, 10318, Note_on_c, 0, 74, 0
2, 10321, Note_on_c, 0, 72, 60
2, 10381, Note_on_c, 0, 70, 62
2, 10386, Note_on_c, 0, 72, 0
2, 10440, Note_on_c, 0, 70, 0
2, 10441, Note_on_c, 0, 69, 72
2, 10469, Control_c, 0, 64, 127
2, 10572, Control_c, 0, 64, 0
2, 10573, Note_on_c, 0, 69, 0
2, 10799, Note_on_c, 0, 70, 60
2, 10859, Note_on_c, 0, 86, 64
2, 10867, Note_on_c, 0, 70, 0
2, 10919, Note_on_c, 0, 82, 76
2, 10920, Note_on_c, 0, 86, 0
2, 10978, Note_on_c, 0, 82, 0
2, 10979, Note_on_c, 0, 81, 62
2, 11039, Note_on_c, 0, 81, 0
2, 11039, Note_on_c, 0, 79, 62
2, 11099, Note_on_c, 0, 77, 62
2, 11103, Note_on_c, 0, 79, 0
2, 11161, Note_on_c, 0, 76, 62
2, 11163, Note_on_c, 0, 77, 0
2, 11288, Note_on_c, 0, 76, 0
2, 11519, Note_on_c, 0, 77, 64
2, 11521, Control_c, 0, 64, 127
2, 11581, Note_on_c, 0, 81, 68
2, 11583, Note_on_c, 0, 77, 0
2, 11586, Control_c, 0, 64, 0
2, 11641, Note_on_c, 0, 77, 68
2, 11644, Note_on_c, 0, 81, 0
2, 11701, Note_on_c, 0, 77, 0
2, 11701, Note_on_c, 0, 76, 72
2, 11759, Note_on_c, 0, 76, 0
2, 11761, Note_on_c, 0, 74, 60
2, 11820, Note_on_c, 0, 72, 68
2, 11823, Note_on_c, 0, 74, 0
2, 11881, Note_on_c, 0, 71, 64
2, 11883, Note_on_c, 0, 72, 0
2, 12012, Note_on_c, 0, 71, 0
2, 12271, Note_on_c, 0, 72, 64
2, 12300, Note_on_c, 0, 72, 0
2, 12301, Note_on_c, 0, 71, 57
2, 12332, Note_on_c, 0, 72, 68
2, 12336, Note_on_c, 0, 71, 0
2, 12362, Note_on_c, 0, 74, 76
2, 12363, Note_on_c, 0, 72, 0
2, 12392, Note_on_c, 0, 72, 55
2, 12393, Note_on_c, 0, 74, 0
2, 12420, Note_on_c, 0, 72, 0
2, 12422, Note_on_c, 0, 71, 53
2, 12452, Note_on_c, 0, 72, 62
2, 12457, Note_on_c, 0, 71, 0
2, 12481, Note_on_c, 0, 72, 0
2, 12512, Note_on_c, 0, 72, 76
2, 12543, Note_on_c, 0, 72, 0
2, 12543, Note_on_c, 0, 76, 60
2, 12572, Note_on_c, 0, 76, 0
2, 12572, Note_on_c, 0, 72, 64
2, 12594, Note_on_c, 0, 72, 0
2, 12631, Note_on_c, 0, 72, 60
2, 12662, Note_on_c, 0, 77, 60
2, 12666, Note_on_c, 0, 72, 0
2, 12691, Note_on_c, 0, 77, 0
2, 12692, Note_on_c, 0, 72, 55
2, 12718, Note_on_c, 0, 72, 0
2, 12752, Note_on_c, 0, 72, 68
2, 12783, Note_on_c, 0, 72, 0
2, 12783, Note_on_c, 0, 82, 64
2, 12811, Note_on_c, 0, 82, 0
2, 12812, Note_on_c, 0, 72, 64
2, 12833, Note_on_c, 0, 72, 0
2, 12872, Note_on_c, 0, 72, 62
2, 12901, Note_on_c, 0, 72, 0
2, 12902, Note_on_c, 0, 81, 68
2, 12932, Note_on_c, 0, 72, 64
2, 12933, Note_on_c, 0, 81, 0
2, 12958, Note_on_c, 0, 72, 0
2, 12962, Note_on_c, 0, 79, 68
2, 12992, Note_on_c, 0, 76, 62
2, 12995, Note_on_c, 0, 79, 0
2, 13022, Note_on_c, 0, 76, 0
2, 13022, Note_on_c, 0, 74, 57
2, 13052, Note_on_c, 0, 74, 0
2, 13052, Note_on_c, 0, 72, 55
2, 13081, Note_on_c, 0, 71, 60
2, 13082, Note_on_c, 0, 72, 0
2, 13110, Note_on_c, 0, 71, 0
2, 13111, Note_on_c, 0, 72, 68
2, 13141, Note_on_c, 0, 72, 0
2, 13141, Note_on_c, 0, 74, 60
2, 13170, Note_on_c, 0, 74, 0
2, 13171, Note_on_c, 0, 72, 64
2, 13200, Note_on_c, 0, 72, 0
2, 13231, Note_on_c, 0, 72, 62
2, 13259, Note_on_c, 0, 75, 59
2, 13261, Note_on_c, 0, 72, 0
2, 13289, Note_on_c, 0, 75, 0
2, 13289, Note_on_c, 0, 72, 68
2, 13313, Note_on_c, 0, 72, 0
2, 13349, Note_on_c, 0, 72, 60
2, 13376, Note_on_c, 0, 72, 0
2, 13379, Note_on_c, 0, 77, 68
2, 13404, Note_on_c, 0, 77, 0
2, 13409, Note_on_c, 0, 72, 64
2, 13435, Note_on_c, 0, 72, 0
2, 13469, Note_on_c, 0, 72, 68
2, 13498, Note_on_c, 0, 72, 0
2, 13499, Note_on_c, 0, 82, 60
2, 13529, Note_on_c, 0, 72, 64
2, 13531, Note_on_c, 0, 82, 0
2, 13553, Note_on_c, 0, 72, 0
2, 13589, Note_on_c, 0, 72, 72
2, 13620, Note_on_c, 0, 72, 0
2, 13621, Note_on_c, 0, 81, 72
2, 13646, Note_on_c, 0, 81, 0
2, 13649, Note_on_c, 0, 72, 60
2, 13680, Note_on_c, 0, 79, 64
2, 13681, Note_on_c, 0, 72, 0
2, 13709, Note_on_c, 0, 79, 0
2, 13709, Note_on_c, 0, 84, 64
2, 13741, Note_on_c, 0, 79, 64
2, 13749, Note_on_c, 0, 84, 0
2, 13769, Note_on_c, 0, 79, 0
2, 13771, Note_on_c, 0, 76, 62
2, 13800, Note_on_c, 0, 72, 72
2, 13808, Note_on_c, 0, 76, 0
2, 13828, Note_on_c, 0, 72, 0
2, 13829, Note_on_c, 0, 79, 60
2, 13861, Note_on_c, 0, 76, 62
2, 13864, Note_on_c, 0, 79, 0
2, 13890, Note_on_c, 0, 72, 62
2, 13892, Note_on_c, 0, 76, 0
2, 13918, Note_on_c, 0, 72, 0
2, 13920, Note_on_c, 0, 67, 53
2, 13949, Note_on_c, 0, 67, 0
2, 13949, Note_on_c, 0, 72, 48
2, 13979, Note_on_c, 0, 72, 0
2, 13979, Note_on_c, 0, 67, 62
2, 14009, Note_on_c, 0, 64, 44
2, 14011, Note_on_c, 0, 67, 0
2, 14040, Note_on_c, 0, 60, 72
2, 14049, Note_on_c, 0, 64, 0
2, 14158, Note_on_c, 0, 60, 0
2, 14161, Note_on_c, 0, 64, 64
2, 14161, Note_on_c, 0, 72, 59
2, 14161, Note_on_c, 0, 67, 64
2, 14286, Note_on_c, 0, 64, 0
2, 14288, Note_on_c, 0, 67, 0
2, 14290, Note_on_c, 0, 72, 0
2, 15126, Control_c, 0, 64, 127
2, 15181, Note_on_c, 0, 84, 60
2, 15224, Note_on_c, 0, 84, 0
2, 15241, Note_on_c, 0, 84, 62
2, 15280, Note_on_c, 0, 84, 0
2, 15301, Note_on_c, 0, 84, 64
2, 15334, Note_on_c, 0, 84, 0
2, 15360, Note_on_c, 0, 84, 64
2, 15402, Note_on_c, 0, 84, 0
2, 15420, Note_on_c, 0, 84, 76
2, 15479, Note_on_c, 0, 84, 0
2, 15479, Note_on_c, 0, 86, 72
2, 15486, Control_c, 0, 64, 0
2, 15505, Control_c, 0, 64, 127
2, 15539, Note_on_c, 0, 84, 76
2, 15542, Note_on_c, 0, 86, 0
2, 15543, Control_c, 0, 64, 0
2, 15599, Note_on_c, 0, 82, 62
2, 15601, Note_on_c, 0, 84, 0
2, 15659, Note_on_c, 0, 81, 68
2, 15660, Note_on_c, 0, 82, 0
2, 15717, Note_on_c, 0, 81, 0
2, 15718, Note_on_c, 0, 79, 62
2, 15778, Note_on_c, 0, 77, 72
2, 15779, Note_on_c, 0, 79, 0
2, 15780, Control_c, 0, 64, 127
2, 15826, Note_on_c, 0, 79, 62
2, 15831, Note_on_c, 0, 77, 0
2, 15842, Control_c, 0, 64, 0
2, 15842, Note_on_c, 0, 77, 62
2, 15845, Note_on_c, 0, 79, 0
2, 15860, Note_on_c, 0, 77, 0
2, 15869, Note_on_c, 0, 79, 64
2, 15884, Note_on_c, 0, 77, 68
2, 15892, Note_on_c, 0, 79, 0
2, 15904, Note_on_c, 0, 76, 56
2, 15907, Note_on_c, 0, 77, 0
2, 15946, Note_on_c, 0, 76, 0
2, 15955, Note_on_c, 0, 76, 80
2, 16093, Note_on_c, 0, 76, 0
2, 16569, Control_c, 0, 64, 127
2, 16619, Note_on_c, 0, 82, 64
2, 16665, Note_on_c, 0, 82, 0
2, 16681, Note_on_c, 0, 82, 76
2, 16725, Note_on_c, 0, 82, 0
2, 16741, Note_on_c, 0, 82, 68
2, 16782, Note_on_c, 0, 82, 0
2, 16800, Note_on_c, 0, 82, 80
2, 16844, Note_on_c, 0, 82, 0
2, 16861, Note_on_c, 0, 82, 80
2, 16919, Note_on_c, 0, 82, 0
2, 16921, Note_on_c, 0, 84, 85
2, 16932, Control_c, 0, 64, 0
2, 16953, Control_c, 0, 64, 127
2, 16979, Note_on_c, 0, 82, 76
2, 16983, Note_on_c, 0, 84, 0
2, 16985, Control_c, 0, 64, 0
2, 17039, Note_on_c, 0, 81, 68
2, 17040, Note_on_c, 0, 82, 0
2, 17098, Note_on_c, 0, 81, 0
2, 17099, Note_on_c, 0, 79, 62
2, 17156, Note_on_c, 0, 79, 0
2, 17159, Note_on_c, 0, 77, 68
2, 17218, Note_on_c, 0, 77, 0
2, 17219, Note_on_c, 0, 76, 64
2, 17279, Note_on_c, 0, 76, 0
2, 17279, Note_on_c, 0, 77, 76
2, 17413, Note_on_c, 0, 77, 0
2, 17459, Note_on_c, 0, 81, 72
2, 17519, Note_on_c, 0, 79, 76
2, 17521, Note_on_c, 0, 81, 0
2, 17579, Note_on_c, 0, 77, 76
2, 17582, Note_on_c, 0, 79, 0
2, 17639, Note_on_c, 0, 77, 0
2, 17639, Note_on_c, 0, 76, 72
2, 17773, Note_on_c, 0, 76, 0
2, 17819, Note_on_c, 0, 86, 89
2, 17879, Note_on_c, 0, 84, 68
2, 17883, Note_on_c, 0, 86, 0
2, 17936, Note_on_c, 0, 84, 0
2, 17939, Note_on_c, 0, 76, 72
2, 17999, Note_on_c, 0, 77, 76
2, 18000, Note_on_c, 0, 76, 0
2, 18138, Note_on_c, 0, 77, 0
2, 18181, Note_on_c, 0, 81, 55
2, 18239, Note_on_c, 0, 79, 62
2, 18245, Note_on_c, 0, 81, 0
2, 18299, Note_on_c, 0, 79, 0
2, 18299, Note_on_c, 0, 77, 62
2, 18359, Note_on_c, 0, 76, 56
2, 18364, Note_on_c, 0, 77, 0
2, 18500, Note_on_c, 0, 76, 0
2, 18539, Note_on_c, 0, 86, 52
2, 18597, Note_on_c, 0, 86, 0
2, 18599, Note_on_c, 0, 84, 57
2, 18659, Note_on_c, 0, 76, 62
2, 18660, Note_on_c, 0, 84, 0
2, 18716, Note_on_c, 0, 76, 0
2, 18719, Note_on_c, 0, 77, 62
2, 18851, Note_on_c, 0, 77, 0
2, 18899, Note_on_c, 0, 84, 76
2, 18959, Note_on_c, 0, 84, 0
2, 18959, Note_on_c, 0, 81, 62
2, 19019, Note_on_c, 0, 79, 76
2, 19027, Note_on_c, 0, 81, 0
2, 19079, Note_on_c, 0, 78, 68
2, 19085, Note_on_c, 0, 79, 0
2, 19206, Note_on_c, 0, 78, 0
2, 19259, Note_on_c, 0, 87, 64
2, 19317, Note_on_c, 0, 87, 0
2, 19319, Note_on_c, 0, 86, 76
2, 19378, Note_on_c, 0, 86, 0
2, 19379, Note_on_c, 0, 78, 59
2, 19439, Note_on_c, 0, 81, 72
2, 19441, Note_on_c, 0, 78, 0
2, 19499, Note_on_c, 0, 79, 62
2, 19500, Note_on_c, 0, 81, 0
2, 19559, Note_on_c, 0, 84, 76
2, 19562, Note_on_c, 0, 79, 0
2, 19619, Note_on_c, 0, 83, 80
2, 19622, Note_on_c, 0, 84, 0
2, 19678, Note_on_c, 0, 83, 0
2, 19679, Note_on_c, 0, 82, 68
2, 19739, Note_on_c, 0, 81, 62
2, 19740, Note_on_c, 0, 82, 0
2, 19799, Note_on_c, 0, 81, 0
2, 19799, Note_on_c, 0, 79, 76
2, 19816, Control_c, 0, 64, 127
2, 19884, Control_c, 0, 64, 0
2, 19891, Note_on_c, 0, 79, 0
2, 19891, Note_on_c, 0, 81, 68
2, 19920, Note_on_c, 0, 81, 0
2, 19921, Note_on_c, 0, 77, 80
2, 19946, Control_c, 0, 64, 127
2, 19990, Note_on_c, 0, 77, 0
2, 20032, Control_c, 0, 64, 0
2, 20041, Note_on_c, 0, 77, 72
2, 20055, Note_on_c, 0, 76, 64
2, 20056, Note_on_c, 0, 77, 0
2, 20071, Note_on_c, 0, 77, 64
2, 20073, Note_on_c, 0, 76, 0
2, 20086, Note_on_c, 0, 76, 76
2, 20087, Note_on_c, 0, 77, 0
2, 20101, Note_on_c, 0, 77, 62
2, 20103, Note_on_c, 0, 76, 0
2, 20116, Note_on_c, 0, 76, 62
2, 20120, Note_on_c, 0, 77, 0
2, 20131, Note_on_c, 0, 76, 0
2, 20131, Note_on_c, 0, 74, 72
2, 20148, Note_on_c, 0, 74, 0
2, 20151, Note_on_c, 0, 76, 62
2, 20160, Note_on_c, 0, 77, 72
2, 20165, Note_on_c, 0, 76, 0
2, 20169, Control_c, 0, 64, 127
2, 20191, Note_on_c, 0, 72, 68
2, 20197, Note_on_c, 0, 77, 0
2, 20208, Control_c, 0, 64, 0
2, 20221, Note_on_c, 0, 71, 59
2, 20224, Note_on_c, 0, 72, 0
2, 20252, Note_on_c, 0, 72, 68
2, 20257, Note_on_c, 0, 71, 0
2, 20282, Note_on_c, 0, 74, 72
2, 20284, Note_on_c, 0, 72, 0
2, 20312, Note_on_c, 0, 72, 64
2, 20317, Note_on_c, 0, 74, 0
2, 20342, Note_on_c, 0, 71, 64
2, 20343, Note_on_c, 0, 72, 0
2, 20369, Note_on_c, 0, 71, 0
2, 20372, Note_on_c, 0, 72, 62
2, 20402, Note_on_c, 0, 70, 62
2, 20405, Note_on_c, 0, 72, 0
2, 20432, Note_on_c, 0, 70, 0
2, 20432, Note_on_c, 0, 72, 64
2, 20461, Note_on_c, 0, 72, 0
2, 20462, Note_on_c, 0, 69, 57
2, 20488, Note_on_c, 0, 69, 0
2, 20492, Note_on_c, 0, 72, 72
2, 20521, Note_on_c, 0, 72, 0
2, 20521, Note_on_c, 0, 67, 64
2, 20551, Note_on_c, 0, 72, 62
2, 20553, Note_on_c, 0, 67, 0
2, 20581, Note_on_c, 0, 71, 76
2, 20582, Note_on_c, 0, 72, 0
2, 20611, Note_on_c, 0, 72, 76
2, 20613, Note_on_c, 0, 71, 0
2, 20639, Note_on_c, 0, 72, 0
2, 20641, Note_on_c, 0, 74, 59
2, 20671, Note_on_c, 0, 74, 0
2, 20671, Note_on_c, 0, 72, 57
2, 20701, Note_on_c, 0, 71, 57
2, 20704, Note_on_c, 0, 72, 0
2, 20731, Note_on_c, 0, 71, 0
2, 20731, Note_on_c, 0, 72, 64
2, 20745, Note_on_c, 0, 72, 0
2, 20760, Note_on_c, 0, 82, 72
2, 20789, Note_on_c, 0, 72, 56
2, 20793, Note_on_c, 0, 82, 0
2, 20817, Note_on_c, 0, 72, 0
2, 20819, Note_on_c, 0, 82, 76
2, 20849, Note_on_c, 0, 72, 53
2, 20853, Note_on_c, 0, 82, 0
2, 20872, Note_on_c, 0, 72, 0
2, 20879, Note_on_c, 0, 81, 72
2, 20909, Note_on_c, 0, 72, 53
2, 20915, Note_on_c, 0, 81, 0
2, 20935, Note_on_c, 0, 72, 0
2, 20939, Note_on_c, 0, 71, 53
2, 20968, Note_on_c, 0, 71, 0
2, 20969, Note_on_c, 0, 72, 59
2, 20997, Note_on_c, 0, 72, 0
2, 20999, Note_on_c, 0, 74, 49
2, 21029, Note_on_c, 0, 72, 48
2, 21035, Note_on_c, 0, 74, 0
2, 21059, Note_on_c, 0, 71, 51
2, 21061, Note_on_c, 0, 72, 0
2, 21087, Note_on_c, 0, 71, 0
2, 21089, Note_on_c, 0, 72, 60
2, 21119, Note_on_c, 0, 70, 57
2, 21121, Note_on_c, 0, 72, 0
2, 21149, Note_on_c, 0, 70, 0
2, 21149, Note_on_c, 0, 72, 59
2, 21174, Note_on_c, 0, 72, 0
2, 21181, Note_on_c, 0, 69, 53
2, 21208, Note_on_c, 0, 69, 0
2, 21209, Note_on_c, 0, 72, 57
2, 21238, Note_on_c, 0, 72, 0
2, 21239, Note_on_c, 0, 67, 52
2, 21264, Note_on_c, 0, 67, 0
2, 21269, Note_on_c, 0, 72, 62
2, 21299, Note_on_c, 0, 71, 60
2, 21300, Note_on_c, 0, 72, 0
2, 21329, Note_on_c, 0, 72, 62
2, 21330, Note_on_c, 0, 71, 0
2, 21359, Note_on_c, 0, 74, 52
2, 21360, Note_on_c, 0, 72, 0
2, 21389, Note_on_c, 0, 72, 62
2, 21391, Note_on_c, 0, 74, 0
2, 21419, Note_on_c, 0, 71, 56
2, 21421, Note_on_c, 0, 72, 0
2, 21449, Note_on_c, 0, 72, 76
2, 21450, Note_on_c, 0, 71, 0
2, 21467, Note_on_c, 0, 72, 0
2, 21480, Note_on_c, 0, 82, 76
2, 21509, Note_on_c, 0, 72, 64
2, 21510, Note_on_c, 0, 82, 0
2, 21536, Note_on_c, 0, 72, 0
2, 21539, Note_on_c, 0, 82, 72
2, 21569, Note_on_c, 0, 72, 52
2, 21573, Note_on_c, 0, 82, 0
2, 21594, Note_on_c, 0, 72, 0
2, 21599, Note_on_c, 0, 81, 72
2, 21629, Note_on_c, 0, 72, 62
2, 21633, Note_on_c, 0, 81, 0
2, 21657, Note_on_c, 0, 72, 0
2, 21659, Note_on_c, 0, 71, 53
2, 21688, Note_on_c, 0, 71, 0
2, 21689, Note_on_c, 0, 72, 60
2, 21719, Note_on_c, 0, 72, 0
2, 21719, Note_on_c, 0, 74, 59
2, 21749, Note_on_c, 0, 74, 0
2, 21749, Note_on_c, 0, 72, 60
2, 21779, Note_on_c, 0, 71, 56
2, 21781, Note_on_c, 0, 72, 0
2, 21808, Note_on_c, 0, 71, 0
2, 21809, Note_on_c, 0, 72, 68
2, 21839, Note_on_c, 0, 75, 55
2, 21841, Note_on_c, 0, 72, 0
2, 21868, Note_on_c, 0, 72, 62
2, 21873, Note_on_c, 0, 75, 0
2, 21899, Note_on_c, 0, 70, 55
2, 21901, Note_on_c, 0, 72, 0
2, 21926, Note_on_c, 0, 70, 0
2, 21928, Note_on_c, 0, 72, 56
2, 21959, Note_on_c, 0, 69, 62
2, 21960, Note_on_c, 0, 72, 0
2, 21989, Note_on_c, 0, 74, 60
2, 21992, Note_on_c, 0, 69, 0
2, 22019, Note_on_c, 0, 74, 0
2, 22019, Note_on_c, 0, 73, 62
2, 22049, Note_on_c, 0, 74, 62
2, 22052, Note_on_c, 0, 73, 0
2, 22078, Note_on_c, 0, 74, 0
2, 22079, Note_on_c, 0, 76, 72
2, 22109, Note_on_c, 0, 76, 0
2, 22109, Note_on_c, 0, 74, 57
2, 22139, Note_on_c, 0, 73, 68
2, 22140, Note_on_c, 0, 74, 0
2, 22167, Note_on_c, 0, 73, 0
2, 22169, Note_on_c, 0, 74, 72
2, 22197, Note_on_c, 0, 74, 0
2, 22199, Note_on_c, 0, 84, 89
2, 22227, Note_on_c, 0, 84, 0
2, 22228, Note_on_c, 0, 74, 56
2, 22258, Note_on_c, 0, 74, 0
2, 22259, Note_on_c, 0, 84, 76
2, 22288, Note_on_c, 0, 74, 51
2, 22291, Note_on_c, 0, 84, 0
2, 22318, Note_on_c, 0, 74, 0
2, 22319, Note_on_c, 0, 83, 80
2, 22439, Note_on_c, 0, 82, 68
2, 22443, Note_on_c, 0, 83, 0
2, 22559, Note_on_c, 0, 81, 68
2, 22566, Note_on_c, 0, 82, 0
2, 22676, Note_on_c, 0, 81, 0
2, 22679, Note_on_c, 0, 79, 76
2, 22711, Note_on_c, 0, 86, 80
2, 22719, Note_on_c, 0, 79, 0
2, 22742, Note_on_c, 0, 82, 72
2, 22744, Note_on_c, 0, 86, 0
2, 22772, Note_on_c, 0, 79, 51
2, 22778, Note_on_c, 0, 82, 0
2, 22802, Note_on_c, 0, 77, 60
2, 22805, Note_on_c, 0, 79, 0
2, 22831, Note_on_c, 0, 77, 0
2, 22832, Note_on_c, 0, 84, 64
2, 22861, Note_on_c, 0, 81, 64
2, 22863, Note_on_c, 0, 84, 0
2, 22886, Note_on_c, 0, 81, 0
2, 22891, Note_on_c, 0, 77, 46
2, 22921, Note_on_c, 0, 76, 68
2, 22926, Note_on_c, 0, 77, 0
2, 22951, Note_on_c, 0, 82, 62
2, 22955, Note_on_c, 0, 76, 0
2, 22981, Note_on_c, 0, 79, 72
2, 22983, Note_on_c, 0, 82, 0
2, 23011, Note_on_c, 0, 76, 68
2, 23012, Note_on_c, 0, 79, 0
2, 23041, Note_on_c, 0, 76, 0
2, 23041, Note_on_c, 0, 77, 62
2, 23071, Note_on_c, 0, 81, 64
2, 23073, Note_on_c, 0, 77, 0
2, 23101, Note_on_c, 0, 81, 0
2, 23101, Note_on_c, 0, 84, 76
2, 23132, Note_on_c, 0, 82, 59
2, 23139, Note_on_c, 0, 84, 0
2, 23162, Note_on_c, 0, 81, 76
2, 23164, Note_on_c, 0, 82, 0
2, 23191, Note_on_c, 0, 79, 76
2, 23196, Note_on_c, 0, 81, 0
2, 23221, Note_on_c, 0, 79, 0
2, 23221, Note_on_c, 0, 77, 59
2, 23246, Note_on_c, 0, 77, 0
2, 23251, Note_on_c, 0, 76, 62
2, 23281, Note_on_c, 0, 76, 0
2, 23281, Note_on_c, 0, 74, 68
2, 23311, Note_on_c, 0, 72, 55
2, 23312, Note_on_c, 0, 74, 0
2, 23341, Note_on_c, 0, 70, 60
2, 23345, Note_on_c, 0, 72, 0
2, 23371, Note_on_c, 0, 70, 0
2, 23371, Note_on_c, 0, 69, 50
2, 23401, Note_on_c, 0, 67, 62
2, 23405, Note_on_c, 0, 69, 0
2, 23431, Note_on_c, 0, 67, 0
2, 23431, Note_on_c, 0, 70, 62
2, 23461, Note_on_c, 0, 74, 72
2, 23463, Note_on_c, 0, 70, 0
2, 23491, Note_on_c, 0, 72, 60
2, 23497, Note_on_c, 0, 74, 0
2, 23521, Note_on_c, 0, 70, 68
2, 23523, Note_on_c, 0, 72, 0
2, 23552, Note_on_c, 0, 69, 62
2, 23559, Note_on_c, 0, 70, 0
2, 23582, Note_on_c, 0, 69, 0
2, 23582, Note_on_c, 0, 67, 64
2, 23612, Note_on_c, 0, 67, 0
2, 23612, Note_on_c, 0, 65, 64
2, 23642, Note_on_c, 0, 64, 64
2, 23648, Note_on_c, 0, 65, 0
2, 23672, Note_on_c, 0, 62, 52
2, 23674, Note_on_c, 0, 64, 0
2, 23698, Note_on_c, 0, 62, 0
2, 23701, Note_on_c, 0, 60, 55
2, 23731, Note_on_c, 0, 59, 62
2, 23733, Note_on_c, 0, 60, 0
2, 23762, Note_on_c, 0, 60, 72
2, 23764, Note_on_c, 0, 59, 0
2, 23782, Note_on_c, 0, 60, 0
2, 23821, Note_on_c, 0, 72, 80
2, 23842, Note_on_c, 0, 72, 0
2, 23881, Note_on_c, 0, 77, 72
2, 23897, Note_on_c, 0, 77, 0
2, 23942, Note_on_c, 0, 81, 85
2, 23956, Note_on_c, 0, 81, 0
2, 24002, Note_on_c, 0, 84, 76
2, 24018, Note_on_c, 0, 84, 0
2, 24061, Note_on_c, 0, 89, 72
2, 24074, Note_on_c, 0, 89, 0
2, 24120, Note_on_c, 0, 81, 62
2, 24129, Note_on_c, 0, 81, 0
2, 24135, Note_on_c, 0, 79, 62
2, 24144, Note_on_c, 0, 79, 0
2, 24150, Note_on_c, 0, 81, 62
2, 24159, Note_on_c, 0, 81, 0
2, 24165, Note_on_c, 0, 79, 62
2, 24174, Note_on_c, 0, 79, 0
2, 24180, Note_on_c, 0, 81, 62
2, 24189, Note_on_c, 0, 81, 0
2, 24195, Note_on_c, 0, 79, 62
2, 24204, Note_on_c, 0, 79, 0
2, 24210, Note_on_c, 0, 81, 62
2, 24219, Note_on_c, 0, 81, 0
2, 24225, Note_on_c, 0, 79, 62
2, 24234, Note_on_c, 0, 79, 0
2, 24240, Note_on_c, 0, 81, 62
2, 24255, Note_on_c, 0, 81, 0
2, 24255, Note_on_c, 0, 79, 62
2, 24270, Note_on_c, 0, 79, 0
2, 24270, Note_on_c, 0, 81, 62
2, 24285, Note_on_c, 0, 81, 0
2, 24285, Note_on_c, 0, 79, 62
2, 24300, Note_on_c, 0, 79, 0
2, 24300, Note_on_c, 0, 81, 62
2, 24315, Note_on_c, 0, 81, 0
2, 24315, Note_on_c, 0, 79, 62
2, 24330, Note_on_c, 0, 79, 0
2, 24330, Note_on_c, 0, 81, 62
2, 24345, Note_on_c, 0, 81, 0
2, 24345, Note_on_c, 0, 79, 62
2, 24360, Note_on_c, 0, 79, 0
2, 24360, Note_on_c, 0, 81, 62
2, 24375, Note_on_c, 0, 81, 0
2, 24375, Note_on_c, 0, 79, 62
2, 24390, Note_on_c, 0, 79, 0
2, 24390, Note_on_c, 0, 81, 62
2, 24405, Note_on_c, 0, 81, 0
2, 24405, Note_on_c, 0, 79, 62
2, 24420, Note_on_c, 0, 79, 0
2, 24420, Note_on_c, 0, 77, 62
2, 24450, Note_on_c, 0, 77, 0
2, 24450, Note_on_c, 0, 79, 62
2, 24480, Note_on_c, 0, 79, 0
2, 24480, Note_on_c, 0, 77, 62
2, 24600, Note_on_c, 0, 77, 0
2, 24830, Control_c, 0, 64, 127
2, 24839, Note_on_c, 0, 82, 80
2, 24961, Note_on_c, 0, 84, 68
2, 24966, Note_on_c, 0, 82, 0
2, 24973, Control_c, 0, 64, 0
2, 25002, Control_c, 0, 64, 127
2, 25081, Note_on_c, 0, 86, 68
2, 25086, Note_on_c, 0, 84, 0
2, 25089, Control_c, 0, 64, 0
2, 25118, Control_c, 0, 64, 127
2, 25201, Note_on_c, 0, 86, 0
2, 25202, Note_on_c, 0, 84, 68
2, 25207, Control_c, 0, 64, 0
2, 25380, Note_on_c, 0, 84, 0
2, 25381, Note_on_c, 0, 86, 76
2, 25411, Note_on_c, 0, 84, 60
2, 25418, Note_on_c, 0, 86, 0
2, 25441, Note_on_c, 0, 82, 72
2, 25446, Note_on_c, 0, 84, 0
2, 25471, Note_on_c, 0, 81, 64
2, 25477, Note_on_c, 0, 82, 0
2, 25502, Note_on_c, 0, 79, 60
2, 25503, Note_on_c, 0, 81, 0
2, 25532, Note_on_c, 0, 77, 59
2, 25538, Note_on_c, 0, 79, 0
2, 25560, Note_on_c, 0, 77, 0
2, 25560, Note_on_c, 0, 81, 85
2, 25736, Note_on_c, 0, 81, 0
2, 25739, Note_on_c, 0, 82, 72
2, 25799, Note_on_c, 0, 79, 76
2, 25802, Note_on_c, 0, 82, 0
2, 25916, Note_on_c, 0, 79, 0
2, 25919, Note_on_c, 0, 77, 62
2, 26159, Note_on_c, 0, 77, 0
2, 26279, Note_on_c, 0, 70, 68
2, 26288, Control_c, 0, 64, 127
2, 26335, Note_on_c, 0, 70, 0
2, 26339, Control_c, 0, 64, 0
2, 26339, Note_on_c, 0, 82, 72
2, 26396, Note_on_c, 0, 82, 0
2, 26399, Note_on_c, 0, 72, 76
2, 26435, Control_c, 0, 64, 127
2, 26459, Note_on_c, 0, 72, 0
2, 26459, Note_on_c, 0, 84, 76
2, 26460, Control_c, 0, 64, 0
2, 26519, Note_on_c, 0, 84, 0
2, 26520, Note_on_c, 0, 74, 72
2, 26580, Note_on_c, 0, 86, 76
2, 26582, Note_on_c, 0, 74, 0
2, 26640, Note_on_c, 0, 86, 0
2, 26641, Note_on_c, 0, 84, 85
2, 26702, Note_on_c, 0, 86, 76
2, 26706, Note_on_c, 0, 84, 0
2, 26730, Note_on_c, 0, 86, 0
2, 26731, Note_on_c, 0, 88, 76
2, 26761, Note_on_c, 0, 89, 72
2, 26763, Note_on_c, 0, 88, 0
2, 26791, Note_on_c, 0, 88, 68
2, 26797, Note_on_c, 0, 89, 0
2, 26821, Note_on_c, 0, 86, 80
2, 26824, Note_on_c, 0, 88, 0
2, 26850, Note_on_c, 0, 86, 0
2, 26850, Note_on_c, 0, 84, 62
2, 26880, Note_on_c, 0, 82, 62
2, 26881, Note_on_c, 0, 84, 0
2, 26910, Note_on_c, 0, 82, 0
2, 26910, Note_on_c, 0, 81, 72
2, 26939, Note_on_c, 0, 79, 60
2, 26941, Note_on_c, 0, 81, 0
2, 26969, Note_on_c, 0, 77, 62
2, 26974, Note_on_c, 0, 79, 0
2, 26996, Note_on_c, 0, 77, 0
2, 27001, Note_on_c, 0, 81, 80
2, 27181, Note_on_c, 0, 82, 64
2, 27182, Note_on_c, 0, 81, 0
2, 27241, Note_on_c, 0, 79, 72
2, 27245, Note_on_c, 0, 82, 0
2, 27361, Note_on_c, 0, 79, 0
2, 27362, Note_on_c, 0, 77, 68
2, 27498, Note_on_c, 0, 77, 0
2, 27512, Note_on_c, 0, 84, 85
2, 27542, Note_on_c, 0, 86, 72
2, 27543, Note_on_c, 0, 84, 0
2, 27571, Note_on_c, 0, 84, 80
2, 27572, Note_on_c, 0, 86, 0
2, 27602, Note_on_c, 0, 82, 64
2, 27607, Note_on_c, 0, 84, 0
2, 27630, Note_on_c, 0, 82, 0
2, 27631, Note_on_c, 0, 81, 72
2, 27661, Note_on_c, 0, 82, 64
2, 27663, Note_on_c, 0, 81, 0
2, 27691, Note_on_c, 0, 79, 68
2, 27693, Note_on_c, 0, 82, 0
2, 27721, Note_on_c, 0, 77, 68
2, 27724, Note_on_c, 0, 79, 0
2, 27824, Note_on_c, 0, 77, 0
2, 27872, Note_on_c, 0, 72, 76
2, 27901, Note_on_c, 0, 74, 62
2, 27902, Note_on_c, 0, 72, 0
2, 27928, Note_on_c, 0, 74, 0
2, 27931, Note_on_c, 0, 72, 64
2, 27960, Note_on_c, 0, 70, 62
2, 27962, Note_on_c, 0, 72, 0
2, 27991, Note_on_c, 0, 69, 68
2, 27993, Note_on_c, 0, 70, 0
2, 28020, Note_on_c, 0, 69, 0
2, 28021, Note_on_c, 0, 70, 64
2, 28051, Note_on_c, 0, 67, 55
2, 28054, Note_on_c, 0, 70, 0
2, 28077, Note_on_c, 0, 67, 0
2, 28082, Note_on_c, 0, 65, 72
2, 28107, Control_c, 0, 64, 127
2, 28123, Note_on_c, 0, 65, 0
2, 28183, Control_c, 0, 64, 0
2, 28201, Note_on_c, 0, 72, 80
2, 28201, Note_on_c, 0, 69, 76
2, 28201, Note_on_c, 0, 77, 72
2, 28210, Control_c, 0, 64, 127
2, 28245, Note_on_c, 0, 69, 0
2, 28248, Note_on_c, 0, 72, 0
2, 28252, Note_on_c, 0, 77, 0
2, 28333, Control_c, 0, 64, 0
2, 28441, Note_on_c, 0, 66, 89
2, 28455, Control_c, 0, 64, 127
2, 28498, Note_on_c, 0, 66, 0
2, 28553, Control_c, 0, 64, 0
2, 28560, Note_on_c, 0, 78, 68
2, 28561, Note_on_c, 0, 68, 76
2, 28561, Note_on_c, 0, 72, 80
2, 28581, Control_c, 0, 64, 127
2, 28636, Note_on_c, 0, 68, 0
2, 28639, Note_on_c, 0, 72, 0
2, 28641, Note_on_c, 0, 78, 0
2, 28691, Control_c, 0, 64, 0
2, 28794, Note_on_c, 0, 61, 59
2, 28810, Control_c, 0, 64, 127
2, 29039, Note_on_c, 0, 61, 0
2, 29040, Note_on_c, 0, 63, 59
2, 29050, Control_c, 0, 64, 0
2, 29071, Note_on_c, 0, 61, 62
2, 29078, Note_on_c, 0, 63, 0
2, 29101, Note_on_c, 0, 61, 0
2, 29101, Note_on_c, 0, 60, 64
2, 29131, Note_on_c, 0, 61, 57
2, 29138, Note_on_c, 0, 60, 0
2, 29161, Note_on_c, 0, 70, 56
2, 29162, Note_on_c, 0, 61, 0
2, 29192, Control_c, 0, 64, 127
2, 29222, Note_on_c, 0, 68, 62
2, 29226, Note_on_c, 0, 70, 0
2, 29238, Control_c, 0, 64, 0
2, 29271, Control_c, 0, 64, 127
2, 29276, Note_on_c, 0, 68, 0
2, 29280, Note_on_c, 0, 68, 64
2, 29296, Control_c, 0, 64, 0
2, 29314, Control_c, 0, 64, 127
2, 29347, Note_on_c, 0, 68, 0
2, 29402, Note_on_c, 0, 68, 72
2, 29408, Control_c, 0, 64, 0
2, 29429, Control_c, 0, 64, 127
2, 29481, Note_on_c, 0, 68, 0
2, 29522, Note_on_c, 0, 68, 57
2, 29535, Control_c, 0, 64, 0
2, 29562, Control_c, 0, 64, 127
2, 29582, Note_on_c, 0, 73, 60
2, 29583, Note_on_c, 0, 68, 0
2, 29593, Control_c, 0, 64, 0
2, 29640, Note_on_c, 0, 73, 0
2, 29641, Note_on_c, 0, 72, 64
2, 29702, Note_on_c, 0, 72, 0
2, 29702, Note_on_c, 0, 71, 68
2, 29760, Note_on_c, 0, 71, 0
2, 29761, Control_c, 0, 64, 127
2, 29761, Note_on_c, 0, 70, 60
2, 29774, Control_c, 0, 64, 0
2, 29820, Note_on_c, 0, 70, 0
2, 29821, Note_on_c, 0, 69, 76
2, 29880, Note_on_c, 0, 69, 0
2, 29881, Note_on_c, 0, 68, 60
2, 30007, Note_on_c, 0, 68, 0
2, 30240, Note_on_c, 0, 61, 72
2, 30479, Note_on_c, 0, 63, 64
2, 30480, Note_on_c, 0, 61, 0
2, 30511, Note_on_c, 0, 61, 68
2, 30516, Note_on_c, 0, 63, 0
2, 30541, Note_on_c, 0, 60, 62
2, 30546, Note_on_c, 0, 61, 0
2, 30571, Note_on_c, 0, 61, 52
2, 30577, Note_on_c, 0, 60, 0
2, 30601, Note_on_c, 0, 61, 0
2, 30602, Note_on_c, 0, 70, 56
2, 30658, Note_on_c, 0, 70, 0
2, 30662, Note_on_c, 0, 69, 76
2, 30713, Note_on_c, 0, 69, 0
2, 30722, Note_on_c, 0, 69, 53
2, 30739, Control_c, 0, 64, 127
2, 30811, Note_on_c, 0, 69, 0
2, 30839, Note_on_c, 0, 69, 72
2, 30846, Control_c, 0, 64, 0
2, 30868, Control_c, 0, 64, 127
2, 30959, Note_on_c, 0, 69, 0
2, 30960, Note_on_c, 0, 70, 72
2, 30971, Control_c, 0, 64, 0
2, 31019, Note_on_c, 0, 77, 76
2, 31021, Note_on_c, 0, 70, 0
2, 31081, Note_on_c, 0, 73, 72
2, 31087, Note_on_c, 0, 77, 0
2, 31141, Note_on_c, 0, 72, 72
2, 31144, Note_on_c, 0, 73, 0
2, 31201, Note_on_c, 0, 70, 56
2, 31202, Note_on_c, 0, 72, 0
2, 31261, Note_on_c, 0, 68, 55
2, 31266, Note_on_c, 0, 70, 0
2, 31322, Note_on_c, 0, 67, 51
2, 31323, Note_on_c, 0, 68, 0
2, 31346, Control_c, 0, 64, 127
2, 31439, Note_on_c, 0, 67, 0
2, 31456, Control_c, 0, 64, 0
2, 31681, Note_on_c, 0, 68, 60
2, 31698, Control_c, 0, 64, 127
2, 31741, Note_on_c, 0, 80, 85
2, 31742, Note_on_c, 0, 68, 0
2, 31755, Control_c, 0, 64, 0
2, 31801, Note_on_c, 0, 77, 64
2, 31806, Note_on_c, 0, 80, 0
2, 31861, Note_on_c, 0, 75, 57
2, 31864, Note_on_c, 0, 77, 0
2, 31921, Note_on_c, 0, 74, 64
2, 31922, Note_on_c, 0, 75, 0
2, 31978, Note_on_c, 0, 74, 0
2, 31981, Note_on_c, 0, 72, 56
2, 32041, Note_on_c, 0, 71, 64
2, 32045, Note_on_c, 0, 72, 0
2, 32087, Control_c, 0, 64, 127
2, 32164, Note_on_c, 0, 71, 0
2, 32177, Control_c, 0, 64, 0
2, 32401, Note_on_c, 0, 72, 72
2, 32404, Control_c, 0, 64, 127
2, 32419, Note_on_c, 0, 72, 0
2, 32462, Note_on_c, 0, 87, 68
2, 32480, Control_c, 0, 64, 0
2, 32521, Note_on_c, 0, 87, 0
2, 32521, Note_on_c, 0, 84, 68
2, 32581, Note_on_c, 0, 84, 0
2, 32582, Note_on_c, 0, 82, 80
2, 32636, Note_on_c, 0, 82, 0
2, 32640, Note_on_c, 0, 80, 60
2, 32699, Note_on_c, 0, 80, 0
2, 32699, Note_on_c, 0, 79, 64
2, 32761, Note_on_c, 0, 79, 0
2, 32761, Note_on_c, 0, 78, 56
2, 32881, Note_on_c, 0, 78, 0
2, 33120, Note_on_c, 0, 79, 76
2, 33129, Control_c, 0, 64, 127
2, 33180, Note_on_c, 0, 79, 0
2, 33180, Note_on_c, 0, 82, 60
2, 33192, Control_c, 0, 64, 0
2, 33239, Note_on_c, 0, 79, 68
2, 33240, Note_on_c, 0, 82, 0
2, 33301, Note_on_c, 0, 77, 57
2, 33303, Note_on_c, 0, 79, 0
2, 33361, Note_on_c, 0, 75, 56
2, 33363, Note_on_c, 0, 77, 0
2, 33419, Note_on_c, 0, 75, 0
2, 33420, Note_on_c, 0, 74, 59
2, 33481, Note_on_c, 0, 73, 57
2, 33483, Note_on_c, 0, 74, 0
2, 33598, Note_on_c, 0, 73, 0
2, 33872, Note_on_c, 0, 74, 89
2, 33902, Note_on_c, 0, 73, 57
2, 33907, Note_on_c, 0, 74, 0
2, 33930, Note_on_c, 0, 73, 0
2, 33932, Note_on_c, 0, 74, 89
2, 33962, Note_on_c, 0, 76, 76
2, 33963, Note_on_c, 0, 74, 0
2, 33991, Note_on_c, 0, 74, 72
2, 33992, Note_on_c, 0, 76, 0
2, 34022, Note_on_c, 0, 73, 62
2, 34023, Note_on_c, 0, 74, 0
2, 34048, Note_on_c, 0, 73, 0
2, 34051, Note_on_c, 0, 74, 76
2, 34074, Note_on_c, 0, 74, 0
2, 34112, Note_on_c, 0, 74, 80
2, 34142, Note_on_c, 0, 78, 72
2, 34144, Note_on_c, 0, 74, 0
2, 34172, Note_on_c, 0, 74, 80
2, 34173, Note_on_c, 0, 78, 0
2, 34192, Note_on_c, 0, 74, 0
2, 34231, Note_on_c, 0, 74, 76
2, 34260, Note_on_c, 0, 74, 0
2, 34261, Note_on_c, 0, 79, 80
2, 34290, Note_on_c, 0, 79, 0
2, 34291, Note_on_c, 0, 74, 62
2, 34312, Note_on_c, 0, 74, 0
2, 34351, Note_on_c, 0, 74, 76
2, 34381, Note_on_c, 0, 84, 89
2, 34382, Note_on_c, 0, 74, 0
2, 34409, Note_on_c, 0, 84, 0
2, 34411, Note_on_c, 0, 74, 62
2, 34431, Note_on_c, 0, 74, 0
2, 34471, Note_on_c, 0, 74, 72
2, 34501, Note_on_c, 0, 74, 0
2, 34502, Note_on_c, 0, 82, 80
2, 34531, Note_on_c, 0, 82, 0
2, 34532, Note_on_c, 0, 74, 76
2, 34556, Note_on_c, 0, 74, 0
2, 34561, Note_on_c, 0, 81, 76
2, 34591, Note_on_c, 0, 78, 64
2, 34593, Note_on_c, 0, 81, 0
2, 34621, Note_on_c, 0, 76, 76
2, 34624, Note_on_c, 0, 78, 0
2, 34650, Note_on_c, 0, 76, 0
2, 34651, Note_on_c, 0, 74, 68
2, 34681, Note_on_c, 0, 74, 0
2, 34681, Note_on_c, 0, 73, 68
2, 34709, Note_on_c, 0, 73, 0
2, 34711, Note_on_c, 0, 74, 62
2, 34741, Note_on_c, 0, 76, 76
2, 34742, Note_on_c, 0, 74, 0
2, 34770, Note_on_c, 0, 76, 0
2, 34771, Note_on_c, 0, 74, 76
2, 34794, Note_on_c, 0, 74, 0
2, 34831, Note_on_c, 0, 74, 76
2, 34861, Note_on_c, 0, 78, 76
2, 34862, Note_on_c, 0, 74, 0
2, 34891, Note_on_c, 0, 74, 76
2, 34893, Note_on_c, 0, 78, 0
2, 34910, Note_on_c, 0, 74, 0
2, 34952, Note_on_c, 0, 74, 76
2, 34982, Note_on_c, 0, 79, 76
2, 34983, Note_on_c, 0, 74, 0
2, 35009, Note_on_c, 0, 79, 0
2, 35012, Note_on_c, 0, 74, 80
2, 35029, Note_on_c, 0, 74, 0
2, 35072, Note_on_c, 0, 74, 72
2, 35099, Note_on_c, 0, 74, 0
2, 35102, Note_on_c, 0, 84, 85
2, 35132, Note_on_c, 0, 84, 0
2, 35132, Note_on_c, 0, 74, 76
2, 35148, Note_on_c, 0, 74, 0
2, 35192, Note_on_c, 0, 74, 76
2, 35217, Note_on_c, 0, 74, 0
2, 35221, Note_on_c, 0, 82, 76
2, 35249, Note_on_c, 0, 82, 0
2, 35251, Note_on_c, 0, 74, 72
2, 35276, Note_on_c, 0, 74, 0
2, 35281, Note_on_c, 0, 81, 76
2, 35311, Note_on_c, 0, 86, 72
2, 35312, Note_on_c, 0, 81, 0
2, 35341, Note_on_c, 0, 81, 68
2, 35344, Note_on_c, 0, 86, 0
2, 35370, Note_on_c, 0, 78, 53
2, 35372, Note_on_c, 0, 81, 0
2, 35400, Note_on_c, 0, 78, 0
2, 35401, Note_on_c, 0, 74, 80
2, 35431, Note_on_c, 0, 74, 0
2, 35431, Note_on_c, 0, 81, 60
2, 35461, Note_on_c, 0, 78, 62
2, 35465, Note_on_c, 0, 81, 0
2, 35489, Note_on_c, 0, 74, 68
2, 35491, Note_on_c, 0, 78, 0
2, 35516, Note_on_c, 0, 74, 0
2, 35519, Note_on_c, 0, 69, 72
2, 35549, Note_on_c, 0, 69, 0
2, 35549, Note_on_c, 0, 74, 80
2, 35576, Note_on_c, 0, 74, 0
2, 35579, Note_on_c, 0, 69, 68
2, 35609, Note_on_c, 0, 66, 64
2, 35611, Note_on_c, 0, 69, 0
2, 35630, Note_on_c, 0, 66, 0
2, 35641, Note_on_c, 0, 62, 89
2, 35678, Control_c, 0, 64, 127
2, 35704, Note_on_c, 0, 62, 0
2, 35754, Control_c, 0, 64, 0
2, 35761, Note_on_c, 0, 69, 80
2, 35761, Note_on_c, 0, 74, 76
2, 35761, Note_on_c, 0, 66, 64
2, 35782, Control_c, 0, 64, 127
2, 35824, Note_on_c, 0, 66, 0
2, 35827, Note_on_c, 0, 69, 0
2, 35832, Note_on_c, 0, 74, 0
2, 35895, Control_c, 0, 64, 0
2, 36724, Control_c, 0, 64, 127
2, 36781, Note_on_c, 0, 86, 76
2, 36820, Note_on_c, 0, 86, 0
2, 36841, Note_on_c, 0, 86, 68
2, 36881, Note_on_c, 0, 86, 0
2, 36902, Note_on_c, 0, 86, 76
2, 36938, Note_on_c, 0, 86, 0
2, 36962, Note_on_c, 0, 86, 76
2, 37001, Note_on_c, 0, 86, 0
2, 37021, Note_on_c, 0, 86, 89
2, 37078, Note_on_c, 0, 86, 0
2, 37082, Note_on_c, 0, 87, 72
2, 37098, Control_c, 0, 64, 0
2, 37142, Note_on_c, 0, 86, 72
2, 37144, Note_on_c, 0, 87, 0
2, 37202, Note_on_c, 0, 86, 0
2, 37202, Note_on_c, 0, 84, 68
2, 37261, Note_on_c, 0, 83, 68
2, 37262, Note_on_c, 0, 84, 0
2, 37318, Note_on_c, 0, 83, 0
2, 37322, Note_on_c, 0, 80, 72
2, 37350, Control_c, 0, 64, 127
2, 37380, Note_on_c, 0, 80, 0
2, 37384, Note_on_c, 0, 79, 80
2, 37422, Note_on_c, 0, 79, 0
2, 37440, Note_on_c, 0, 80, 60
2, 37451, Control_c, 0, 64, 0
2, 37455, Note_on_c, 0, 80, 0
2, 37455, Note_on_c, 0, 79, 60
2, 37470, Note_on_c, 0, 79, 0
2, 37470, Note_on_c, 0, 80, 60
2, 37485, Note_on_c, 0, 80, 0
2, 37485, Note_on_c, 0, 79, 60
2, 37500, Note_on_c, 0, 79, 0
2, 37500, Note_on_c, 0, 77, 60
2, 37560, Note_on_c, 0, 77, 0
2, 37560, Note_on_c, 0, 77, 60
2, 37597, Control_c, 0, 64, 127
2, 37680, Note_on_c, 0, 77, 0
2, 37702, Control_c, 0, 64, 0
2, 38171, Control_c, 0, 64, 127
2, 38221, Note_on_c, 0, 77, 68
2, 38268, Note_on_c, 0, 77, 0
2, 38282, Note_on_c, 0, 77, 72
2, 38325, Note_on_c, 0, 77, 0
2, 38342, Note_on_c, 0, 77, 76
2, 38386, Note_on_c, 0, 77, 0
2, 38402, Note_on_c, 0, 77, 80
2, 38444, Note_on_c, 0, 77, 0
2, 38462, Note_on_c, 0, 77, 80
2, 38515, Note_on_c, 0, 77, 0
2, 38522, Note_on_c, 0, 79, 89
2, 38541, Control_c, 0, 64, 0
2, 38580, Note_on_c, 0, 79, 0
2, 38581, Note_on_c, 0, 77, 76
2, 38641, Note_on_c, 0, 75, 62
2, 38644, Note_on_c, 0, 77, 0
2, 38700, Note_on_c, 0, 75, 0
2, 38701, Note_on_c, 0, 74, 64
2, 38761, Note_on_c, 0, 72, 62
2, 38762, Note_on_c, 0, 74, 0
2, 38821, Note_on_c, 0, 71, 64
2, 38826, Note_on_c, 0, 72, 0
2, 38881, Note_on_c, 0, 72, 72
2, 38884, Note_on_c, 0, 71, 0
2, 38920, Control_c, 0, 64, 127
2, 39113, Note_on_c, 0, 72, 0
2, 39119, Note_on_c, 0, 67, 62
2, 39126, Control_c, 0, 64, 0
2, 39156, Control_c, 0, 64, 127
2, 39242, Note_on_c, 0, 63, 56
2, 39248, Note_on_c, 0, 67, 0
2, 39254, Control_c, 0, 64, 0
2, 39291, Control_c, 0, 64, 127
2, 39477, Note_on_c, 0, 63, 0
2, 39481, Note_on_c, 0, 67, 76
2, 39482, Control_c, 0, 64, 0
2, 39509, Control_c, 0, 64, 127
2, 39600, Note_on_c, 0, 67, 0
2, 39601, Note_on_c, 0, 72, 72
2, 39604, Control_c, 0, 64, 0
2, 39638, Control_c, 0, 64, 127
2, 39840, Note_on_c, 0, 75, 64
2, 39841, Note_on_c, 0, 72, 0
2, 39852, Control_c, 0, 64, 0
2, 39877, Control_c, 0, 64, 127
2, 39954, Note_on_c, 0, 75, 0
2, 39961, Note_on_c, 0, 79, 64
2, 39967, Control_c, 0, 64, 0
2, 39989, Control_c, 0, 64, 127
2, 40082, Note_on_c, 0, 79, 0
2, 40089, Control_c, 0, 64, 0
2, 40321, Note_on_c, 0, 76, 72
2, 40342, Control_c, 0, 64, 127
2, 40559, Note_on_c, 0, 72, 72
2, 40561, Note_on_c, 0, 76, 0
2, 40571, Control_c, 0, 64, 0
2, 40596, Control_c, 0, 64, 127
2, 40681, Note_on_c, 0, 67, 68
2, 40684, Control_c, 0, 64, 0
2, 40687, Note_on_c, 0, 72, 0
2, 40717, Control_c, 0, 64, 127
2, 40921, Note_on_c, 0, 72, 76
2, 40922, Note_on_c, 0, 67, 0
2, 40930, Control_c, 0, 64, 0
2, 40958, Control_c, 0, 64, 127
2, 41040, Note_on_c, 0, 72, 0
2, 41041, Note_on_c, 0, 76, 76
2, 41052, Control_c, 0, 64, 0
2, 41082, Control_c, 0, 64, 127
2, 41280, Note_on_c, 0, 76, 0
2, 41280, Note_on_c, 0, 79, 85
2, 41287, Control_c, 0, 64, 0
2, 41312, Control_c, 0, 64, 127
2, 41401, Note_on_c, 0, 82, 85
2, 41405, Control_c, 0, 64, 0
2, 41407, Note_on_c, 0, 79, 0
2, 41429, Control_c, 0, 64, 127
2, 41525, Note_on_c, 0, 82, 0
2, 41538, Control_c, 0, 64, 0
2, 41773, Control_c, 0, 64, 127
2, 41822, Note_on_c, 0, 80, 76
2, 41867, Note_on_c, 0, 80, 0
2, 41883, Note_on_c, 0, 80, 76
2, 41926, Note_on_c, 0, 80, 0
2, 41942, Note_on_c, 0, 80, 76
2, 41980, Note_on_c, 0, 80, 0
2, 42002, Note_on_c, 0, 80, 85
2, 42045, Note_on_c, 0, 80, 0
2, 42061, Note_on_c, 0, 80, 80
2, 42121, Note_on_c, 0, 80, 0
2, 42122, Note_on_c, 0, 82, 76
2, 42131, Control_c, 0, 64, 0
2, 42158, Control_c, 0, 64, 127
2, 42182, Note_on_c, 0, 80, 72
2, 42184, Note_on_c, 0, 82, 0
2, 42200, Control_c, 0, 64, 0
2, 42242, Note_on_c, 0, 80, 0
2, 42242, Note_on_c, 0, 79, 76
2, 42267, Control_c, 0, 64, 127
2, 42301, Note_on_c, 0, 79, 0
2, 42301, Note_on_c, 0, 77, 68
2, 42318, Control_c, 0, 64, 0
2, 42362, Note_on_c, 0, 75, 72
2, 42365, Note_on_c, 0, 77, 0
2, 42393, Control_c, 0, 64, 127
2, 42415, Note_on_c, 0, 75, 0
2, 42421, Note_on_c, 0, 74, 64
2, 42427, Control_c, 0, 64, 0
2, 42481, Note_on_c, 0, 74, 0
2, 42542, Note_on_c, 0, 79, 76
2, 42557, Control_c, 0, 64, 127
2, 42586, Note_on_c, 0, 79, 0
2, 42601, Note_on_c, 0, 79, 72
2, 42651, Note_on_c, 0, 79, 0
2, 42661, Note_on_c, 0, 79, 76
2, 42705, Note_on_c, 0, 79, 0
2, 42721, Note_on_c, 0, 79, 80
2, 42764, Note_on_c, 0, 79, 0
2, 42781, Note_on_c, 0, 79, 89
2, 42841, Note_on_c, 0, 79, 0
2, 42841, Note_on_c, 0, 80, 76
2, 42851, Control_c, 0, 64, 0
2, 42892, Control_c, 0, 64, 127
2, 42900, Control_c, 0, 64, 0
2, 42901, Note_on_c, 0, 79, 85
2, 42906, Note_on_c, 0, 80, 0
2, 42959, Note_on_c, 0, 79, 0
2, 42960, Note_on_c, 0, 77, 76
2, 42962, Control_c, 0, 64, 127
2, 42994, Control_c, 0, 64, 0
2, 43020, Note_on_c, 0, 75, 57
2, 43022, Note_on_c, 0, 77, 0
2, 43081, Note_on_c, 0, 74, 64
2, 43086, Note_on_c, 0, 75, 0
2, 43142, Note_on_c, 0, 74, 0
2, 43142, Note_on_c, 0, 72, 53
2, 43202, Note_on_c, 0, 72, 0
2, 43224, Control_c, 0, 64, 127
2, 43261, Note_on_c, 0, 77, 72
2, 43310, Note_on_c, 0, 77, 0
2, 43321, Note_on_c, 0, 77, 89
2, 43323, Control_c, 0, 64, 0
2, 43338, Control_c, 0, 64, 127
2, 43371, Note_on_c, 0, 77, 0
2, 43381, Note_on_c, 0, 77, 76
2, 43423, Note_on_c, 0, 77, 0
2, 43441, Note_on_c, 0, 77, 80
2, 43479, Note_on_c, 0, 77, 0
2, 43501, Note_on_c, 0, 77, 80
2, 43520, Note_on_c, 0, 77, 0
2, 43561, Note_on_c, 0, 79, 76
2, 43569, Control_c, 0, 64, 0
2, 43603, Control_c, 0, 64, 127
2, 43621, Note_on_c, 0, 77, 76
2, 43626, Note_on_c, 0, 79, 0
2, 43634, Control_c, 0, 64, 0
2, 43681, Note_on_c, 0, 77, 0
2, 43681, Note_on_c, 0, 75, 68
2, 43740, Note_on_c, 0, 75, 0
2, 43740, Note_on_c, 0, 74, 76
2, 43801, Note_on_c, 0, 74, 0
2, 43801, Note_on_c, 0, 72, 64
2, 43811, Control_c, 0, 64, 127
2, 43816, Control_c, 0, 64, 0
2, 43860, Note_on_c, 0, 72, 0
2, 43861, Note_on_c, 0, 71, 51
2, 43921, Note_on_c, 0, 77, 68
2, 43924, Note_on_c, 0, 71, 0
2, 43981, Note_on_c, 0, 75, 62
2, 43983, Note_on_c, 0, 77, 0
2, 44041, Note_on_c, 0, 74, 72
2, 44043, Note_on_c, 0, 75, 0
2, 44101, Note_on_c, 0, 74, 0
2, 44101, Note_on_c, 0, 72, 72
2, 44133, Control_c, 0, 64, 127
2, 44154, Control_c, 0, 64, 0
2, 44161, Note_on_c, 0, 72, 0
2, 44161, Note_on_c, 0, 70, 62
2, 44221, Note_on_c, 0, 70, 0
2, 44221, Note_on_c, 0, 69, 62
2, 44225, Control_c, 0, 64, 127
2, 44243, Note_on_c, 0, 69, 0
2, 44281, Note_on_c, 0, 84, 89
2, 44283, Control_c, 0, 64, 0
2, 44341, Note_on_c, 0, 82, 68
2, 44348, Note_on_c, 0, 84, 0
2, 44399, Note_on_c, 0, 81, 80
2, 44400, Note_on_c, 0, 82, 0
2, 44401, Control_c, 0, 64, 127
2, 44428, Control_c, 0, 64, 0
2, 44460, Note_on_c, 0, 79, 76
2, 44464, Note_on_c, 0, 81, 0
2, 44521, Note_on_c, 0, 79, 0
2, 44521, Note_on_c, 0, 77, 62
2, 44580, Note_on_c, 0, 76, 64
2, 44585, Note_on_c, 0, 77, 0
2, 44641, Note_on_c, 0, 77, 72
2, 44644, Note_on_c, 0, 76, 0
2, 44665, Control_c, 0, 64, 127
2, 44755, Note_on_c, 0, 77, 0
2, 44772, Control_c, 0, 64, 0
2, 44881, Note_on_c, 0, 69, 64
2, 44881, Note_on_c, 0, 75, 57
2, 44906, Control_c, 0, 64, 127
2, 44993, Note_on_c, 0, 69, 0
2, 44997, Note_on_c, 0, 75, 0
2, 45001, Note_on_c, 0, 73, 55
2, 45001, Note_on_c, 0, 70, 57
2, 45002, Control_c, 0, 64, 0
2, 45120, Note_on_c, 0, 70, 0
2, 45122, Note_on_c, 0, 73, 0
2, 45238, Note_on_c, 0, 82, 76
2, 45238, Note_on_c, 0, 74, 85
2, 45245, Control_c, 0, 64, 127
2, 45303, Note_on_c, 0, 82, 0
2, 45304, Note_on_c, 0, 74, 0
2, 45359, Note_on_c, 0, 81, 68
2, 45359, Note_on_c, 0, 72, 56
2, 45364, Control_c, 0, 64, 0
2, 45392, Control_c, 0, 64, 127
2, 45426, Note_on_c, 0, 81, 0
2, 45427, Note_on_c, 0, 72, 0
2, 45484, Control_c, 0, 64, 0
2, 45601, Note_on_c, 0, 63, 64
2, 45601, Note_on_c, 0, 69, 68
2, 45614, Control_c, 0, 64, 127
2, 45716, Note_on_c, 0, 63, 0
2, 45719, Note_on_c, 0, 69, 0
2, 45721, Note_on_c, 0, 70, 59
2, 45721, Note_on_c, 0, 61, 55
2, 45724, Control_c, 0, 64, 0
2, 45759, Control_c, 0, 64, 127
2, 45836, Note_on_c, 0, 70, 0
2, 45839, Note_on_c, 0, 61, 0
2, 45849, Control_c, 0, 64, 0
2, 45961, Note_on_c, 0, 61, 72
2, 45962, Note_on_c, 0, 58, 59
2, 45971, Control_c, 0, 64, 127
2, 46033, Note_on_c, 0, 58, 0
2, 46037, Note_on_c, 0, 61, 0
2, 46078, Control_c, 0, 64, 0
2, 46082, Note_on_c, 0, 57, 56
2, 46082, Note_on_c, 0, 60, 57
2, 46106, Control_c, 0, 64, 127
2, 46136, Note_on_c, 0, 57, 0
2, 46138, Note_on_c, 0, 60, 0
2, 46143, Note_on_c, 0, 65, 60
2, 46151, Control_c, 0, 64, 0
2, 46172, Control_c, 0, 64, 127
2, 46187, Note_on_c, 0, 65, 0
2, 46202, Note_on_c, 0, 65, 64
2, 46240, Note_on_c, 0, 65, 0
2, 46262, Note_on_c, 0, 65, 68
2, 46289, Note_on_c, 0, 65, 0
2, 46321, Note_on_c, 0, 65, 80
2, 46362, Note_on_c, 0, 65, 0
2, 46381, Note_on_c, 0, 65, 80
2, 46437, Note_on_c, 0, 65, 0
2, 46441, Note_on_c, 0, 64, 72
2, 46453, Control_c, 0, 64, 0
2, 46500, Note_on_c, 0, 65, 64
2, 46502, Note_on_c, 0, 64, 0
2, 46561, Note_on_c, 0, 65, 0
2, 46561, Note_on_c, 0, 67, 64
2, 46621, Note_on_c, 0, 67, 0
2, 46621, Note_on_c, 0, 65, 64
2, 46681, Note_on_c, 0, 70, 72
2, 46689, Note_on_c, 0, 65, 0
2, 46741, Note_on_c, 0, 70, 0
2, 46742, Note_on_c, 0, 69, 80
2, 46798, Note_on_c, 0, 69, 0
2, 46801, Note_on_c, 0, 74, 76
2, 46860, Note_on_c, 0, 74, 0
2, 46861, Note_on_c, 0, 72, 68
2, 46921, Note_on_c, 0, 72, 0
2, 46921, Note_on_c, 0, 75, 85
2, 46980, Note_on_c, 0, 75, 0
2, 46981, Note_on_c, 0, 74, 89
2, 47041, Note_on_c, 0, 79, 80
2, 47045, Note_on_c, 0, 74, 0
2, 47099, Note_on_c, 0, 77, 76
2, 47103, Note_on_c, 0, 79, 0
2, 47151, Note_on_c, 0, 77, 0
2, 47160, Note_on_c, 0, 77, 93
2, 47188, Control_c, 0, 64, 127
2, 47342, Note_on_c, 0, 76, 76
2, 47350, Note_on_c, 0, 77, 0
2, 47370, Control_c, 0, 64, 0
2, 47401, Note_on_c, 0, 75, 64
2, 47404, Note_on_c, 0, 76, 0
2, 47460, Note_on_c, 0, 75, 0
2, 47461, Note_on_c, 0, 72, 60
2, 47521, Note_on_c, 0, 72, 0
2, 47521, Note_on_c, 0, 70, 62
2, 47547, Control_c, 0, 64, 127
2, 47751, Note_on_c, 0, 70, 0
2, 47758, Note_on_c, 0, 65, 53
2, 47761, Control_c, 0, 64, 0
2, 47791, Control_c, 0, 64, 127
2, 47878, Note_on_c, 0, 65, 0
2, 47883, Note_on_c, 0, 62, 59
2, 47903, Control_c, 0, 64, 0
2, 47933, Control_c, 0, 64, 127
2, 48101, Note_on_c, 0, 62, 0
2, 48118, Note_on_c, 0, 65, 72
2, 48118, Control_c, 0, 64, 0
2, 48146, Control_c, 0, 64, 127
2, 48238, Note_on_c, 0, 65, 0
2, 48241, Note_on_c, 0, 70, 64
2, 48248, Control_c, 0, 64, 0
2, 48280, Control_c, 0, 64, 127
2, 48479, Note_on_c, 0, 74, 72
2, 48480, Control_c, 0, 64, 0
2, 48481, Note_on_c, 0, 70, 0
2, 48508, Control_c, 0, 64, 127
2, 48602, Note_on_c, 0, 77, 72
2, 48603, Note_on_c, 0, 74, 0
2, 48611, Control_c, 0, 64, 0
2, 48652, Control_c, 0, 64, 127
2, 48840, Control_c, 0, 64, 0
2, 48842, Note_on_c, 0, 82, 72
2, 48844, Note_on_c, 0, 77, 0
2, 48876, Control_c, 0, 64, 127
2, 48899, Note_on_c, 0, 82, 0
2, 48902, Note_on_c, 0, 74, 64
2, 48920, Control_c, 0, 64, 0
2, 48962, Note_on_c, 0, 77, 72
2, 48963, Note_on_c, 0, 74, 0
2, 49022, Note_on_c, 0, 75, 64
2, 49023, Note_on_c, 0, 77, 0
2, 49081, Note_on_c, 0, 75, 0
2, 49082, Note_on_c, 0, 74, 76
2, 49140, Note_on_c, 0, 74, 0
2, 49141, Note_on_c, 0, 72, 72
2, 49201, Note_on_c, 0, 70, 72
2, 49209, Note_on_c, 0, 72, 0
2, 49259, Note_on_c, 0, 70, 0
2, 49261, Note_on_c, 0, 69, 76
2, 49321, Note_on_c, 0, 67, 76
2, 49323, Note_on_c, 0, 69, 0
2, 49348, Control_c, 0, 64, 127
2, 49355, Control_c, 0, 64, 0
2, 49381, Note_on_c, 0, 65, 80
2, 49384, Note_on_c, 0, 67, 0
2, 49441, Note_on_c, 0, 64, 62
2, 49442, Note_on_c, 0, 65, 0
2, 49501, Note_on_c, 0, 65, 68
2, 49502, Note_on_c, 0, 64, 0
2, 49559, Note_on_c, 0, 67, 76
2, 49561, Note_on_c, 0, 65, 0
2, 49615, Note_on_c, 0, 67, 0
2, 49619, Note_on_c, 0, 69, 64
2, 49631, Control_c, 0, 64, 127
2, 49676, Control_c, 0, 64, 0
2, 49677, Note_on_c, 0, 69, 0
2, 49679, Note_on_c, 0, 70, 76
2, 49696, Note_on_c, 0, 70, 0
2, 49743, Note_on_c, 0, 72, 64
2, 49757, Note_on_c, 0, 70, 62
2, 49761, Note_on_c, 0, 72, 0
2, 49772, Note_on_c, 0, 69, 80
2, 49780, Note_on_c, 0, 70, 0
2, 49799, Note_on_c, 0, 69, 0
2, 49799, Note_on_c, 0, 70, 76
2, 49856, Note_on_c, 0, 70, 0
2, 49860, Note_on_c, 0, 72, 85
2, 49877, Note_on_c, 0, 72, 0
2, 49921, Note_on_c, 0, 74, 76
2, 49942, Note_on_c, 0, 74, 0
2, 49981, Note_on_c, 0, 75, 72
2, 49998, Note_on_c, 0, 75, 0
2, 50041, Note_on_c, 0, 76, 64
2, 50096, Note_on_c, 0, 76, 0
2, 50099, Note_on_c, 0, 77, 62
2, 50160, Note_on_c, 0, 79, 72
2, 50161, Note_on_c, 0, 77, 0
2, 50221, Note_on_c, 0, 77, 68
2, 50222, Note_on_c, 0, 79, 0
2, 50281, Note_on_c, 0, 82, 72
2, 50284, Note_on_c, 0, 77, 0
2, 50341, Note_on_c, 0, 82, 0
2, 50341, Note_on_c, 0, 74, 64
2, 50401, Note_on_c, 0, 77, 64
2, 50404, Note_on_c, 0, 74, 0
2, 50461, Note_on_c, 0, 75, 64
2, 50465, Note_on_c, 0, 77, 0
2, 50521, Note_on_c, 0, 74, 76
2, 50525, Note_on_c, 0, 75, 0
2, 50577, Note_on_c, 0, 74, 0
2, 50580, Note_on_c, 0, 72, 72
2, 50641, Note_on_c, 0, 70, 64
2, 50647, Note_on_c, 0, 72, 0
2, 50699, Note_on_c, 0, 69, 60
2, 50702, Note_on_c, 0, 70, 0
2, 50759, Note_on_c, 0, 67, 64
2, 50760, Note_on_c, 0, 69, 0
2, 50820, Note_on_c, 0, 65, 68
2, 50827, Note_on_c, 0, 67, 0
2, 50880, Note_on_c, 0, 65, 0
2, 50880, Note_on_c, 0, 64, 64
2, 50940, Note_on_c, 0, 65, 76
2, 50941, Note_on_c, 0, 64, 0
2, 50999, Note_on_c, 0, 65, 0
2, 50999, Note_on_c, 0, 67, 62
2, 51056, Note_on_c, 0, 67, 0
2, 51059, Note_on_c, 0, 69, 72
2, 51120, Note_on_c, 0, 70, 64
2, 51124, Note_on_c, 0, 69, 0
2, 51167, Note_on_c, 0, 70, 0
2, 51242, Note_on_c, 0, 70, 76
2, 51288, Note_on_c, 0, 70, 0
2, 51362, Note_on_c, 0, 74, 72
2, 51410, Note_on_c, 0, 74, 0
2, 51482, Note_on_c, 0, 70, 64
2, 51503, Control_c, 0, 64, 127
2, 51610, Note_on_c, 0, 70, 0
2, 51611, Control_c, 0, 64, 0
2, 51692, Note_on_c, 0, 70, 85
2, 51713, Note_on_c, 0, 70, 0
2, 51721, Note_on_c, 0, 72, 62
2, 51749, Note_on_c, 0, 70, 62
2, 51751, Note_on_c, 0, 72, 0
2, 51781, Note_on_c, 0, 69, 72
2, 51784, Note_on_c, 0, 70, 0
2, 51810, Note_on_c, 0, 70, 64
2, 51815, Note_on_c, 0, 69, 0
2, 51836, Note_on_c, 0, 70, 0
2, 51842, Note_on_c, 0, 79, 76
2, 51956, Note_on_c, 0, 79, 0
2, 52048, Note_on_c, 0, 70, 72
2, 52066, Note_on_c, 0, 70, 0
2, 52078, Note_on_c, 0, 72, 72
2, 52108, Note_on_c, 0, 70, 60
2, 52110, Note_on_c, 0, 72, 0
2, 52138, Note_on_c, 0, 70, 0
2, 52138, Note_on_c, 0, 69, 62
2, 52169, Note_on_c, 0, 70, 60
2, 52170, Note_on_c, 0, 69, 0
2, 52200, Note_on_c, 0, 70, 0
2, 52200, Note_on_c, 0, 77, 72
2, 52330, Note_on_c, 0, 77, 0
2, 52412, Note_on_c, 0, 70, 72
2, 52428, Note_on_c, 0, 70, 0
2, 52442, Note_on_c, 0, 72, 68
2, 52471, Note_on_c, 0, 70, 62
2, 52474, Note_on_c, 0, 72, 0
2, 52501, Note_on_c, 0, 69, 64
2, 52502, Note_on_c, 0, 70, 0
2, 52528, Note_on_c, 0, 69, 0
2, 52531, Note_on_c, 0, 70, 60
2, 52562, Note_on_c, 0, 70, 0
2, 52562, Note_on_c, 0, 72, 60
2, 52678, Note_on_c, 0, 72, 0
2, 52679, Note_on_c, 0, 77, 64
2, 52801, Note_on_c, 0, 75, 62
2, 52812, Note_on_c, 0, 77, 0
2, 52923, Note_on_c, 0, 73, 60
2, 52928, Note_on_c, 0, 75, 0
2, 53040, Note_on_c, 0, 73, 0
2, 53042, Note_on_c, 0, 74, 62
2, 53096, Note_on_c, 0, 74, 0
2, 53132, Note_on_c, 0, 70, 64
2, 53154, Note_on_c, 0, 70, 0
2, 53162, Note_on_c, 0, 72, 80
2, 53191, Note_on_c, 0, 70, 60
2, 53193, Note_on_c, 0, 72, 0
2, 53218, Note_on_c, 0, 70, 0
2, 53221, Note_on_c, 0, 69, 80
2, 53251, Note_on_c, 0, 70, 60
2, 53259, Note_on_c, 0, 69, 0
2, 53278, Note_on_c, 0, 70, 0
2, 53281, Note_on_c, 0, 79, 80
2, 53314, Control_c, 0, 64, 127
2, 53387, Note_on_c, 0, 79, 0
2, 53406, Control_c, 0, 64, 0
2, 53491, Note_on_c, 0, 70, 72
2, 53507, Note_on_c, 0, 70, 0
2, 53521, Note_on_c, 0, 72, 68
2, 53550, Note_on_c, 0, 70, 56
2, 53551, Note_on_c, 0, 72, 0
2, 53580, Note_on_c, 0, 70, 0
2, 53580, Note_on_c, 0, 69, 72
2, 53611, Note_on_c, 0, 70, 57
2, 53612, Note_on_c, 0, 69, 0
2, 53641, Note_on_c, 0, 70, 0
2, 53641, Note_on_c, 0, 77, 72
2, 53660, Control_c, 0, 64, 127
2, 53751, Note_on_c, 0, 77, 0
2, 53773, Control_c, 0, 64, 0
2, 53849, Note_on_c, 0, 70, 85
2, 53868, Note_on_c, 0, 70, 0
2, 53881, Note_on_c, 0, 72, 76
2, 53911, Note_on_c, 0, 70, 56
2, 53914, Note_on_c, 0, 72, 0
2, 53941, Note_on_c, 0, 69, 68
2, 53942, Note_on_c, 0, 70, 0
2, 53967, Note_on_c, 0, 69, 0
2, 53971, Note_on_c, 0, 70, 72
2, 54001, Note_on_c, 0, 72, 72
2, 54002, Note_on_c, 0, 70, 0
2, 54037, Control_c, 0, 64, 127
2, 54119, Note_on_c, 0, 72, 0
2, 54119, Note_on_c, 0, 75, 64
2, 54129, Control_c, 0, 64, 0
2, 54241, Note_on_c, 0, 69, 62
2, 54246, Note_on_c, 0, 75, 0
2, 54362, Note_on_c, 0, 70, 57
2, 54369, Note_on_c, 0, 69, 0
2, 54479, Note_on_c, 0, 70, 0
2, 54722, Note_on_c, 0, 70, 80
2, 54722, Note_on_c, 0, 79, 93
2, 54722, Note_on_c, 0, 74, 93
2, 54729, Control_c, 0, 64, 127
2, 54751, Note_on_c, 0, 74, 0
2, 54754, Note_on_c, 0, 79, 0
2, 54754, Note_on_c, 0, 70, 0
2, 54839, Control_c, 0, 64, 0
2, 54841, Note_on_c, 0, 67, 89
2, 54862, Control_c, 0, 64, 127
2, 54892, Note_on_c, 0, 67, 0
2, 54964, Control_c, 0, 64, 0
2, 55081, Note_on_c, 0, 66, 85
2, 55081, Note_on_c, 0, 69, 98
2, 55081, Note_on_c, 0, 74, 93
2, 55085, Control_c, 0, 64, 127
2, 55115, Note_on_c, 0, 69, 0
2, 55115, Note_on_c, 0, 66, 0
2, 55117, Note_on_c, 0, 74, 0
2, 55202, Note_on_c, 0, 62, 76
2, 55208, Control_c, 0, 64, 0
2, 55304, Note_on_c, 0, 62, 0
2, 55442, Note_on_c, 0, 63, 72
2, 55682, Note_on_c, 0, 65, 64
2, 55683, Note_on_c, 0, 63, 0
2, 55711, Note_on_c, 0, 63, 55
2, 55714, Note_on_c, 0, 65, 0
2, 55738, Note_on_c, 0, 63, 0
2, 55740, Note_on_c, 0, 62, 59
2, 55769, Note_on_c, 0, 63, 60
2, 55775, Note_on_c, 0, 62, 0
2, 55800, Note_on_c, 0, 63, 0
2, 55801, Note_on_c, 0, 72, 56
2, 55840, Control_c, 0, 64, 127
2, 55860, Note_on_c, 0, 70, 60
2, 55863, Control_c, 0, 64, 0
2, 55864, Note_on_c, 0, 72, 0
2, 55899, Control_c, 0, 64, 127
2, 55913, Note_on_c, 0, 70, 0
2, 55914, Control_c, 0, 64, 0
2, 55921, Note_on_c, 0, 70, 62
2, 55936, Control_c, 0, 64, 127
2, 55994, Note_on_c, 0, 70, 0
2, 56041, Note_on_c, 0, 70, 64
2, 56045, Control_c, 0, 64, 0
2, 56064, Control_c, 0, 64, 127
2, 56113, Note_on_c, 0, 70, 0
2, 56161, Note_on_c, 0, 70, 76
2, 56179, Control_c, 0, 64, 0
2, 56222, Note_on_c, 0, 75, 64
2, 56229, Note_on_c, 0, 70, 0
2, 56282, Note_on_c, 0, 74, 76
2, 56284, Note_on_c, 0, 75, 0
2, 56341, Note_on_c, 0, 74, 0
2, 56342, Note_on_c, 0, 73, 72
2, 56399, Note_on_c, 0, 73, 0
2, 56402, Note_on_c, 0, 72, 62
2, 56461, Note_on_c, 0, 71, 76
2, 56464, Note_on_c, 0, 72, 0
2, 56522, Note_on_c, 0, 70, 62
2, 56526, Note_on_c, 0, 71, 0
2, 56648, Note_on_c, 0, 70, 0
2, 56881, Note_on_c, 0, 63, 76
2, 56893, Control_c, 0, 64, 127
2, 57122, Note_on_c, 0, 65, 72
2, 57126, Note_on_c, 0, 63, 0
2, 57135, Control_c, 0, 64, 0
2, 57152, Note_on_c, 0, 63, 62
2, 57159, Note_on_c, 0, 65, 0
2, 57181, Note_on_c, 0, 63, 0
2, 57181, Note_on_c, 0, 62, 62
2, 57211, Note_on_c, 0, 63, 60
2, 57212, Note_on_c, 0, 62, 0
2, 57241, Note_on_c, 0, 72, 76
2, 57242, Note_on_c, 0, 63, 0
2, 57277, Control_c, 0, 64, 127
2, 57296, Note_on_c, 0, 72, 0
2, 57300, Control_c, 0, 64, 0
2, 57301, Note_on_c, 0, 71, 80
2, 57341, Control_c, 0, 64, 127
2, 57357, Note_on_c, 0, 71, 0
2, 57361, Control_c, 0, 64, 0
2, 57361, Note_on_c, 0, 71, 80
2, 57379, Control_c, 0, 64, 127
2, 57463, Note_on_c, 0, 71, 0
2, 57481, Note_on_c, 0, 71, 93
2, 57491, Control_c, 0, 64, 0
2, 57513, Control_c, 0, 64, 127
2, 57595, Note_on_c, 0, 71, 0
2, 57601, Note_on_c, 0, 72, 89
2, 57609, Control_c, 0, 64, 0
2, 57661, Note_on_c, 0, 79, 85
2, 57666, Note_on_c, 0, 72, 0
2, 57721, Note_on_c, 0, 75, 72
2, 57728, Note_on_c, 0, 79, 0
2, 57781, Note_on_c, 0, 74, 76
2, 57782, Note_on_c, 0, 75, 0
2, 57842, Note_on_c, 0, 72, 62
2, 57844, Note_on_c, 0, 74, 0
2, 57902, Note_on_c, 0, 70, 59
2, 57911, Note_on_c, 0, 72, 0
2, 57962, Note_on_c, 0, 70, 0
2, 57962, Note_on_c, 0, 69, 64
2, 58083, Note_on_c, 0, 69, 0
2, 58322, Note_on_c, 0, 70, 76
2, 58331, Control_c, 0, 64, 127
2, 58342, Note_on_c, 0, 70, 0
2, 58382, Note_on_c, 0, 86, 85
2, 58396, Control_c, 0, 64, 0
2, 58441, Note_on_c, 0, 82, 80
2, 58442, Note_on_c, 0, 86, 0
2, 58451, Control_c, 0, 64, 127
2, 58493, Control_c, 0, 64, 0
2, 58498, Note_on_c, 0, 82, 0
2, 58501, Note_on_c, 0, 81, 72
2, 58560, Note_on_c, 0, 81, 0
2, 58561, Note_on_c, 0, 79, 72
2, 58621, Note_on_c, 0, 77, 64
2, 58622, Note_on_c, 0, 79, 0
2, 58681, Note_on_c, 0, 76, 62
2, 58684, Note_on_c, 0, 77, 0
2, 58804, Note_on_c, 0, 76, 0
2, 59072, Note_on_c, 0, 77, 76
2, 59102, Note_on_c, 0, 76, 76
2, 59105, Note_on_c, 0, 77, 0
2, 59131, Note_on_c, 0, 77, 80
2, 59135, Note_on_c, 0, 76, 0
2, 59161, Note_on_c, 0, 79, 85
2, 59162, Note_on_c, 0, 77, 0
2, 59191, Note_on_c, 0, 77, 68
2, 59195, Note_on_c, 0, 79, 0
2, 59220, Note_on_c, 0, 77, 0
2, 59221, Note_on_c, 0, 76, 64
2, 59251, Note_on_c, 0, 77, 76
2, 59253, Note_on_c, 0, 76, 0
2, 59273, Note_on_c, 0, 77, 0
2, 59311, Note_on_c, 0, 77, 76
2, 59342, Note_on_c, 0, 81, 85
2, 59344, Note_on_c, 0, 77, 0
2, 59372, Note_on_c, 0, 81, 0
2, 59372, Note_on_c, 0, 77, 72
2, 59395, Note_on_c, 0, 77, 0
2, 59432, Note_on_c, 0, 77, 76
2, 59462, Note_on_c, 0, 82, 80
2, 59464, Note_on_c, 0, 77, 0
2, 59492, Note_on_c, 0, 77, 76
2, 59494, Note_on_c, 0, 82, 0
2, 59516, Note_on_c, 0, 77, 0
2, 59553, Note_on_c, 0, 77, 76
2, 59583, Note_on_c, 0, 77, 0
2, 59583, Note_on_c, 0, 87, 76
2, 59612, Note_on_c, 0, 77, 72
2, 59613, Note_on_c, 0, 87, 0
2, 59632, Note_on_c, 0, 77, 0
2, 59673, Note_on_c, 0, 77, 76
2, 59699, Note_on_c, 0, 77, 0
2, 59703, Note_on_c, 0, 86, 80
2, 59733, Note_on_c, 0, 86, 0
2, 59733, Note_on_c, 0, 77, 68
2, 59755, Note_on_c, 0, 77, 0
2, 59762, Note_on_c, 0, 84, 89
2, 59791, Note_on_c, 0, 84, 0
2, 59792, Note_on_c, 0, 81, 68
2, 59822, Note_on_c, 0, 79, 76
2, 59824, Note_on_c, 0, 81, 0
2, 59850, Note_on_c, 0, 79, 0
2, 59852, Note_on_c, 0, 77, 62
2, 59882, Note_on_c, 0, 77, 0
2, 59882, Note_on_c, 0, 76, 76
2, 59912, Note_on_c, 0, 77, 64
2, 59913, Note_on_c, 0, 76, 0
2, 59940, Note_on_c, 0, 77, 0
2, 59942, Note_on_c, 0, 79, 64
2, 59972, Note_on_c, 0, 77, 68
2, 59974, Note_on_c, 0, 79, 0
2, 59992, Note_on_c, 0, 77, 0
2, 60031, Note_on_c, 0, 77, 80
2, 60061, Note_on_c, 0, 81, 80
2, 60063, Note_on_c, 0, 77, 0
2, 60091, Note_on_c, 0, 77, 68
2, 60093, Note_on_c, 0, 81, 0
2, 60112, Note_on_c, 0, 77, 0
2, 60151, Note_on_c, 0, 77, 72
2, 60181, Note_on_c, 0, 82, 80
2, 60185, Note_on_c, 0, 77, 0
2, 60210, Note_on_c, 0, 82, 0
2, 60211, Note_on_c, 0, 77, 72
2, 60233, Note_on_c, 0, 77, 0
2, 60271, Note_on_c, 0, 77, 89
2, 60300, Note_on_c, 0, 77, 0
2, 60301, Note_on_c, 0, 87, 80
2, 60331, Note_on_c, 0, 77, 76
2, 60333, Note_on_c, 0, 87, 0
2, 60351, Note_on_c, 0, 77, 0
2, 60391, Note_on_c, 0, 77, 72
2, 60421, Note_on_c, 0, 77, 0
2, 60421, Note_on_c, 0, 86, 85
2, 60451, Note_on_c, 0, 86, 0
2, 60451, Note_on_c, 0, 77, 59
2, 60479, Note_on_c, 0, 77, 0
2, 60481, Note_on_c, 0, 84, 76
2, 60510, Note_on_c, 0, 84, 0
2, 60511, Note_on_c, 0, 89, 80
2, 60542, Note_on_c, 0, 84, 62
2, 60550, Note_on_c, 0, 89, 0
2, 60571, Note_on_c, 0, 84, 0
2, 60571, Note_on_c, 0, 81, 57
2, 60601, Note_on_c, 0, 77, 64
2, 60611, Note_on_c, 0, 81, 0
2, 60630, Note_on_c, 0, 77, 0
2, 60631, Note_on_c, 0, 84, 76
2, 60662, Note_on_c, 0, 81, 72
2, 60665, Note_on_c, 0, 84, 0
2, 60691, Note_on_c, 0, 81, 0
2, 60691, Note_on_c, 0, 77, 62
2, 60721, Note_on_c, 0, 77, 0
2, 60721, Note_on_c, 0, 72, 72
2, 60751, Note_on_c, 0, 72, 0
2, 60751, Note_on_c, 0, 77, 60
2, 60781, Note_on_c, 0, 72, 80
2, 60790, Note_on_c, 0, 77, 0
2, 60811, Note_on_c, 0, 69, 64
2, 60813, Note_on_c, 0, 72, 0
2, 60842, Note_on_c, 0, 65, 72
2, 60849, Note_on_c, 0, 69, 0
2, 60872, Control_c, 0, 64, 127
2, 60886, Note_on_c, 0, 65, 0
2, 60960, Control_c, 0, 64, 0
2, 60962, Note_on_c, 0, 77, 76
2, 60962, Note_on_c, 0, 72, 76
2, 60962, Note_on_c, 0, 69, 72
2, 60984, Control_c, 0, 64, 127
2, 61042, Note_on_c, 0, 69, 0
2, 61043, Note_on_c, 0, 72, 0
2, 61044, Note_on_c, 0, 77, 0
2, 61090, Control_c, 0, 64, 0
2, 61981, Note_on_c, 0, 77, 62
2, 61984, Control_c, 0, 64, 127
2, 62027, Note_on_c, 0, 77, 0
2, 62042, Note_on_c, 0, 77, 72
2, 62090, Note_on_c, 0, 77, 0
2, 62101, Note_on_c, 0, 77, 72
2, 62144, Note_on_c, 0, 77, 0
2, 62161, Note_on_c, 0, 77, 89
2, 62204, Note_on_c, 0, 77, 0
2, 62221, Note_on_c, 0, 77, 89
2, 62278, Note_on_c, 0, 77, 0
2, 62281, Note_on_c, 0, 79, 89
2, 62287, Control_c, 0, 64, 0
2, 62341, Note_on_c, 0, 77, 76
2, 62345, Note_on_c, 0, 79, 0
2, 62401, Note_on_c, 0, 75, 62
2, 62406, Note_on_c, 0, 77, 0
2, 62413, Control_c, 0, 64, 127
2, 62427, Control_c, 0, 64, 0
2, 62461, Note_on_c, 0, 74, 72
2, 62465, Note_on_c, 0, 75, 0
2, 62521, Note_on_c, 0, 74, 0
2, 62521, Note_on_c, 0, 72, 76
2, 62540, Control_c, 0, 64, 127
2, 62581, Note_on_c, 0, 70, 72
2, 62584, Note_on_c, 0, 72, 0
2, 62624, Note_on_c, 0, 70, 0
2, 62641, Note_on_c, 0, 72, 80
2, 62645, Control_c, 0, 64, 0
2, 62656, Note_on_c, 0, 70, 57
2, 62659, Note_on_c, 0, 72, 0
2, 62672, Note_on_c, 0, 72, 72
2, 62673, Note_on_c, 0, 70, 0
2, 62687, Note_on_c, 0, 70, 60
2, 62694, Note_on_c, 0, 72, 0
2, 62703, Note_on_c, 0, 70, 0
2, 62707, Note_on_c, 0, 69, 76
2, 62748, Note_on_c, 0, 69, 0
2, 62761, Note_on_c, 0, 69, 76
2, 62887, Note_on_c, 0, 69, 0
2, 63421, Note_on_c, 0, 75, 62
2, 63425, Control_c, 0, 64, 127
2, 63468, Note_on_c, 0, 75, 0
2, 63481, Note_on_c, 0, 75, 76
2, 63508, Note_on_c, 0, 75, 0
2, 63541, Note_on_c, 0, 75, 76
2, 63585, Note_on_c, 0, 75, 0
2, 63600, Note_on_c, 0, 75, 76
2, 63643, Note_on_c, 0, 75, 0
2, 63660, Note_on_c, 0, 75, 85
2, 63720, Note_on_c, 0, 75, 0
2, 63721, Note_on_c, 0, 77, 93
2, 63733, Control_c, 0, 64, 0
2, 63781, Note_on_c, 0, 75, 68
2, 63788, Note_on_c, 0, 77, 0
2, 63842, Note_on_c, 0, 74, 76
2, 63846, Note_on_c, 0, 75, 0
2, 63901, Note_on_c, 0, 74, 0
2, 63901, Note_on_c, 0, 72, 60
2, 63961, Note_on_c, 0, 70, 62
2, 63966, Note_on_c, 0, 72, 0
2, 64018, Note_on_c, 0, 70, 0
2, 64021, Note_on_c, 0, 69, 62
2, 64081, Note_on_c, 0, 70, 60
2, 64085, Note_on_c, 0, 69, 0
2, 64118, Control_c, 0, 64, 127
2, 64213, Control_c, 0, 64, 0
2, 64235, Note_on_c, 0, 70, 0
2, 64261, Note_on_c, 0, 74, 62
2, 64320, Note_on_c, 0, 74, 0
2, 64321, Note_on_c, 0, 72, 72
2, 64381, Note_on_c, 0, 70, 68
2, 64386, Note_on_c, 0, 72, 0
2, 64442, Note_on_c, 0, 69, 76
2, 64446, Note_on_c, 0, 70, 0
2, 64570, Note_on_c, 0, 69, 0
2, 64621, Note_on_c, 0, 79, 89
2, 64681, Note_on_c, 0, 77, 62
2, 64682, Note_on_c, 0, 79, 0
2, 64739, Note_on_c, 0, 77, 0
2, 64740, Note_on_c, 0, 69, 64
2, 64801, Note_on_c, 0, 70, 59
2, 64805, Note_on_c, 0, 69, 0
2, 64936, Note_on_c, 0, 70, 0
2, 64981, Note_on_c, 0, 74, 55
2, 65038, Note_on_c, 0, 74, 0
2, 65041, Note_on_c, 0, 72, 55
2, 65100, Note_on_c, 0, 72, 0
2, 65101, Note_on_c, 0, 70, 52
2, 65161, Note_on_c, 0, 69, 59
2, 65164, Note_on_c, 0, 70, 0
2, 65294, Note_on_c, 0, 69, 0
2, 65341, Note_on_c, 0, 78, 51
2, 65399, Note_on_c, 0, 78, 0
2, 65400, Note_on_c, 0, 77, 57
2, 65461, Note_on_c, 0, 77, 0
2, 65461, Note_on_c, 0, 69, 56
2, 65521, Note_on_c, 0, 69, 0
2, 65521, Note_on_c, 0, 70, 56
2, 65644, Note_on_c, 0, 70, 0
2, 65701, Note_on_c, 0, 77, 76
2, 65761, Note_on_c, 0, 73, 85
2, 65763, Note_on_c, 0, 77, 0
2, 65821, Note_on_c, 0, 72, 68
2, 65827, Note_on_c, 0, 73, 0
2, 65882, Note_on_c, 0, 71, 85
2, 65888, Note_on_c, 0, 72, 0
2, 65918, Control_c, 0, 64, 127
2, 65969, Note_on_c, 0, 71, 0
2, 66017, Control_c, 0, 64, 0
2, 66061, Note_on_c, 0, 80, 85
2, 66118, Note_on_c, 0, 80, 0
2, 66121, Note_on_c, 0, 79, 80
2, 66148, Control_c, 0, 64, 127
2, 66170, Control_c, 0, 64, 0
2, 66180, Note_on_c, 0, 79, 0
2, 66181, Note_on_c, 0, 70, 72
2, 66241, Note_on_c, 0, 74, 76
2, 66245, Note_on_c, 0, 70, 0
2, 66301, Note_on_c, 0, 72, 76
2, 66302, Note_on_c, 0, 74, 0
2, 66362, Note_on_c, 0, 77, 85
2, 66366, Note_on_c, 0, 72, 0
2, 66420, Note_on_c, 0, 77, 0
2, 66421, Note_on_c, 0, 76, 80
2, 66480, Note_on_c, 0, 76, 0
2, 66481, Note_on_c, 0, 75, 80
2, 66505, Control_c, 0, 64, 127
2, 66540, Note_on_c, 0, 75, 0
2, 66541, Note_on_c, 0, 74, 64
2, 66576, Control_c, 0, 64, 0
2, 66594, Note_on_c, 0, 74, 0
2, 66602, Note_on_c, 0, 72, 80
2, 66685, Note_on_c, 0, 72, 0
2, 66691, Note_on_c, 0, 74, 64
2, 66712, Note_on_c, 0, 74, 0
2, 66719, Note_on_c, 0, 70, 68
2, 66744, Control_c, 0, 64, 127
2, 66806, Note_on_c, 0, 70, 0
2, 66837, Control_c, 0, 64, 0
2, 66840, Note_on_c, 0, 70, 60
2, 66855, Note_on_c, 0, 70, 0
2, 66855, Note_on_c, 0, 69, 60
2, 66870, Note_on_c, 0, 69, 0
2, 66870, Note_on_c, 0, 70, 60
2, 66885, Note_on_c, 0, 70, 0
2, 66885, Note_on_c, 0, 69, 60
2, 66900, Note_on_c, 0, 69, 0
2, 66900, Note_on_c, 0, 70, 60
2, 66915, Note_on_c, 0, 70, 0
2, 66915, Note_on_c, 0, 69, 60
2, 66930, Note_on_c, 0, 69, 0
2, 66930, Note_on_c, 0, 67, 60
2, 66945, Note_on_c, 0, 67, 0
2, 66945, Note_on_c, 0, 69, 60
2, 66960, Note_on_c, 0, 69, 0
2, 66961, Note_on_c, 0, 70, 80
2, 66991, Note_on_c, 0, 65, 76
2, 66996, Note_on_c, 0, 70, 0
2, 67021, Note_on_c, 0, 64, 62
2, 67024, Note_on_c, 0, 65, 0
2, 67049, Note_on_c, 0, 65, 76
2, 67050, Note_on_c, 0, 64, 0
2, 67080, Note_on_c, 0, 67, 80
2, 67081, Note_on_c, 0, 65, 0
2, 67109, Note_on_c, 0, 65, 62
2, 67112, Note_on_c, 0, 67, 0
2, 67140, Note_on_c, 0, 64, 64
2, 67142, Note_on_c, 0, 65, 0
2, 67170, Note_on_c, 0, 64, 0
2, 67170, Note_on_c, 0, 65, 68
2, 67200, Note_on_c, 0, 63, 62
2, 67202, Note_on_c, 0, 65, 0
2, 67229, Note_on_c, 0, 65, 76
2, 67230, Note_on_c, 0, 63, 0
2, 67258, Note_on_c, 0, 65, 0
2, 67259, Note_on_c, 0, 62, 57
2, 67287, Note_on_c, 0, 62, 0
2, 67289, Note_on_c, 0, 65, 68
2, 67319, Note_on_c, 0, 60, 62
2, 67320, Note_on_c, 0, 65, 0
2, 67346, Note_on_c, 0, 60, 0
2, 67349, Note_on_c, 0, 65, 76
2, 67379, Note_on_c, 0, 64, 72
2, 67381, Note_on_c, 0, 65, 0
2, 67409, Note_on_c, 0, 65, 68
2, 67410, Note_on_c, 0, 64, 0
2, 67439, Note_on_c, 0, 65, 0
2, 67439, Note_on_c, 0, 67, 62
2, 67469, Note_on_c, 0, 65, 68
2, 67473, Note_on_c, 0, 67, 0
2, 67499, Note_on_c, 0, 64, 62
2, 67501, Note_on_c, 0, 65, 0
2, 67529, Note_on_c, 0, 64, 0
2, 67529, Note_on_c, 0, 65, 80
2, 67529, Control_c, 0, 64, 127
2, 67542, Note_on_c, 0, 65, 0
2, 67546, Control_c, 0, 64, 0
2, 67559, Note_on_c, 0, 75, 76
2, 67572, Control_c, 0, 64, 127
2, 67588, Note_on_c, 0, 65, 68
2, 67589, Note_on_c, 0, 75, 0
2, 67596, Control_c, 0, 64, 0
2, 67617, Note_on_c, 0, 65, 0
2, 67619, Note_on_c, 0, 75, 80
2, 67627, Control_c, 0, 64, 127
2, 67649, Note_on_c, 0, 65, 64
2, 67650, Note_on_c, 0, 75, 0
2, 67668, Note_on_c, 0, 65, 0
2, 67668, Control_c, 0, 64, 0
2, 67677, Note_on_c, 0, 73, 43
2, 67679, Note_on_c, 0, 74, 76
2, 67681, Note_on_c, 0, 74, 80
2, 67687, Note_on_c, 0, 73, 0
2, 67697, Control_c, 0, 64, 127
2, 67708, Note_on_c, 0, 74, 0
2, 67711, Note_on_c, 0, 77, 76
2, 67716, Note_on_c, 0, 74, 0
2, 67717, Control_c, 0, 64, 0
2, 67741, Note_on_c, 0, 76, 76
2, 67744, Note_on_c, 0, 77, 0
2, 67771, Note_on_c, 0, 77, 72
2, 67772, Note_on_c, 0, 76, 0
2, 67801, Note_on_c, 0, 79, 80
2, 67802, Note_on_c, 0, 77, 0
2, 67829, Note_on_c, 0, 77, 62
2, 67836, Note_on_c, 0, 79, 0
2, 67860, Note_on_c, 0, 76, 76
2, 67862, Note_on_c, 0, 77, 0
2, 67889, Note_on_c, 0, 77, 60
2, 67890, Note_on_c, 0, 76, 0
2, 67920, Note_on_c, 0, 75, 72
2, 67923, Note_on_c, 0, 77, 0
2, 67949, Note_on_c, 0, 75, 0
2, 67949, Note_on_c, 0, 77, 72
2, 67980, Note_on_c, 0, 74, 68
2, 67981, Note_on_c, 0, 77, 0
2, 68009, Note_on_c, 0, 77, 68
2, 68010, Note_on_c, 0, 74, 0
2, 68040, Note_on_c, 0, 77, 0
2, 68040, Note_on_c, 0, 72, 72
2, 68048, Control_c, 0, 64, 127
2, 68065, Control_c, 0, 64, 0
2, 68068, Note_on_c, 0, 72, 0
2, 68069, Note_on_c, 0, 77, 72
2, 68100, Note_on_c, 0, 76, 80
2, 68101, Note_on_c, 0, 77, 0
2, 68129, Note_on_c, 0, 76, 0
2, 68129, Note_on_c, 0, 77, 76
2, 68157, Note_on_c, 0, 77, 0
2, 68159, Note_on_c, 0, 79, 85
2, 68189, Note_on_c, 0, 77, 76
2, 68195, Note_on_c, 0, 79, 0
2, 68219, Note_on_c, 0, 76, 62
2, 68220, Note_on_c, 0, 77, 0
2, 68238, Control_c, 0, 64, 127
2, 68247, Note_on_c, 0, 76, 0
2, 68249, Note_on_c, 0, 77, 68
2, 68261, Note_on_c, 0, 77, 0
2, 68268, Control_c, 0, 64, 0
2, 68279, Note_on_c, 0, 87, 76
2, 68308, Control_c, 0, 64, 127
2, 68309, Note_on_c, 0, 87, 0
2, 68309, Note_on_c, 0, 77, 64
2, 68334, Control_c, 0, 64, 0
2, 68336, Note_on_c, 0, 77, 0
2, 68339, Note_on_c, 0, 87, 76
2, 68355, Control_c, 0, 64, 127
2, 68368, Note_on_c, 0, 77, 68
2, 68369, Note_on_c, 0, 87, 0
2, 68388, Control_c, 0, 64, 0
2, 68392, Note_on_c, 0, 77, 0
2, 68398, Note_on_c, 0, 86, 80
2, 68421, Control_c, 0, 64, 127
2, 68429, Note_on_c, 0, 77, 56
2, 68435, Note_on_c, 0, 86, 0
2, 68458, Note_on_c, 0, 76, 56
2, 68459, Note_on_c, 0, 77, 0
2, 68484, Control_c, 0, 64, 0
2, 68487, Note_on_c, 0, 76, 0
2, 68488, Note_on_c, 0, 77, 72
2, 68517, Note_on_c, 0, 77, 0
2, 68518, Note_on_c, 0, 79, 72
2, 68521, Control_c, 0, 64, 127
2, 68536, Control_c, 0, 64, 0
2, 68547, Note_on_c, 0, 77, 60
2, 68551, Note_on_c, 0, 79, 0
2, 68577, Note_on_c, 0, 76, 68
2, 68578, Note_on_c, 0, 77, 0
2, 68607, Note_on_c, 0, 76, 0
2, 68607, Note_on_c, 0, 77, 72
2, 68637, Note_on_c, 0, 80, 76
2, 68639, Note_on_c, 0, 77, 0
2, 68667, Note_on_c, 0, 77, 72
2, 68673, Note_on_c, 0, 80, 0
2, 68697, Note_on_c, 0, 75, 52
2, 68700, Note_on_c, 0, 77, 0
2, 68725, Note_on_c, 0, 75, 0
2, 68727, Note_on_c, 0, 77, 62
2, 68756, Note_on_c, 0, 77, 0
2, 68757, Note_on_c, 0, 74, 64
2, 68758, Control_c, 0, 64, 127
2, 68760, Note_on_c, 0, 74, 80
2, 68779, Control_c, 0, 64, 127
2, 68781, Note_on_c, 0, 74, 0
2, 68789, Note_on_c, 0, 79, 50
2, 68799, Control_c, 0, 64, 0
2, 68804, Note_on_c, 0, 74, 0
2, 68821, Note_on_c, 0, 78, 68
2, 68827, Note_on_c, 0, 79, 0
2, 68849, Note_on_c, 0, 79, 64
2, 68856, Note_on_c, 0, 78, 0
2, 68880, Note_on_c, 0, 79, 0
2, 68880, Note_on_c, 0, 81, 68
2, 68910, Note_on_c, 0, 81, 0
2, 68910, Note_on_c, 0, 79, 72
2, 68940, Note_on_c, 0, 78, 62
2, 68943, Note_on_c, 0, 79, 0
2, 68967, Note_on_c, 0, 78, 0
2, 68969, Note_on_c, 0, 79, 80
2, 68998, Note_on_c, 0, 79, 0
2, 69001, Note_on_c, 0, 89, 80
2, 69029, Note_on_c, 0, 89, 0
2, 69030, Note_on_c, 0, 79, 72
2, 69060, Note_on_c, 0, 89, 80
2, 69061, Note_on_c, 0, 79, 0
2, 69090, Note_on_c, 0, 79, 64
2, 69098, Note_on_c, 0, 89, 0
2, 69120, Note_on_c, 0, 79, 0
2, 69121, Note_on_c, 0, 88, 80
2, 69164, Control_c, 0, 64, 127
2, 69240, Note_on_c, 0, 87, 80
2, 69244, Control_c, 0, 64, 0
2, 69246, Note_on_c, 0, 88, 0
2, 69274, Control_c, 0, 64, 127
2, 69361, Note_on_c, 0, 86, 76
2, 69362, Control_c, 0, 64, 0
2, 69365, Note_on_c, 0, 87, 0
2, 69389, Control_c, 0, 64, 127
2, 69432, Note_on_c, 0, 86, 0
2, 69467, Control_c, 0, 64, 0
2, 69479, Note_on_c, 0, 86, 80
2, 69480, Note_on_c, 0, 86, 80
2, 69486, Control_c, 0, 64, 127
2, 69510, Note_on_c, 0, 84, 64
2, 69515, Note_on_c, 0, 86, 0
2, 69523, Note_on_c, 0, 86, 0
2, 69530, Control_c, 0, 64, 0
2, 69541, Note_on_c, 0, 87, 64
2, 69543, Note_on_c, 0, 84, 0
2, 69571, Note_on_c, 0, 84, 76
2, 69574, Note_on_c, 0, 87, 0
2, 69589, Note_on_c, 0, 84, 0
2, 69601, Note_on_c, 0, 84, 76
2, 69619, Control_c, 0, 64, 127
2, 69624, Control_c, 0, 64, 0
2, 69631, Note_on_c, 0, 82, 64
2, 69636, Note_on_c, 0, 84, 0
2, 69662, Note_on_c, 0, 86, 76
2, 69663, Note_on_c, 0, 82, 0
2, 69691, Note_on_c, 0, 82, 62
2, 69698, Note_on_c, 0, 86, 0
2, 69707, Note_on_c, 0, 82, 0
2, 69722, Note_on_c, 0, 82, 80
2, 69732, Control_c, 0, 64, 127
2, 69751, Note_on_c, 0, 81, 62
2, 69755, Note_on_c, 0, 82, 0
2, 69757, Control_c, 0, 64, 0
2, 69782, Note_on_c, 0, 81, 0
2, 69782, Note_on_c, 0, 84, 72
2, 69812, Note_on_c, 0, 84, 0
2, 69812, Note_on_c, 0, 81, 62
2, 69835, Note_on_c, 0, 81, 0
2, 69842, Note_on_c, 0, 82, 62
2, 69872, Note_on_c, 0, 86, 85
2, 69873, Note_on_c, 0, 82, 0
2, 69900, Note_on_c, 0, 86, 0
2, 69902, Note_on_c, 0, 89, 76
2, 69932, Note_on_c, 0, 87, 62
2, 69940, Note_on_c, 0, 89, 0
2, 69962, Note_on_c, 0, 86, 80
2, 69965, Note_on_c, 0, 87, 0
2, 69981, Control_c, 0, 64, 127
2, 69992, Note_on_c, 0, 84, 72
2, 69993, Note_on_c, 0, 86, 0
2, 70009, Control_c, 0, 64, 0
2, 70022, Note_on_c, 0, 82, 57
2, 70023, Note_on_c, 0, 84, 0
2, 70050, Note_on_c, 0, 82, 0
2, 70052, Note_on_c, 0, 81, 76
2, 70081, Note_on_c, 0, 81, 0
2, 70081, Note_on_c, 0, 79, 59
2, 70111, Note_on_c, 0, 77, 56
2, 70116, Note_on_c, 0, 79, 0
2, 70141, Note_on_c, 0, 75, 56
2, 70144, Note_on_c, 0, 77, 0
2, 70171, Note_on_c, 0, 75, 0
2, 70171, Note_on_c, 0, 74, 62
2, 70201, Note_on_c, 0, 72, 64
2, 70203, Note_on_c, 0, 74, 0
2, 70231, Note_on_c, 0, 75, 68
2, 70234, Note_on_c, 0, 72, 0
2, 70261, Note_on_c, 0, 79, 80
2, 70262, Note_on_c, 0, 75, 0
2, 70291, Note_on_c, 0, 77, 68
2, 70296, Note_on_c, 0, 79, 0
2, 70321, Note_on_c, 0, 75, 72
2, 70326, Note_on_c, 0, 77, 0
2, 70351, Note_on_c, 0, 74, 72
2, 70358, Note_on_c, 0, 75, 0
2, 70381, Note_on_c, 0, 74, 0
2, 70381, Note_on_c, 0, 72, 76
2, 70411, Note_on_c, 0, 70, 56
2, 70416, Note_on_c, 0, 72, 0
2, 70441, Note_on_c, 0, 69, 80
2, 70446, Note_on_c, 0, 70, 0
2, 70467, Control_c, 0, 64, 127
2, 70470, Control_c, 0, 64, 0
2, 70471, Note_on_c, 0, 67, 64
2, 70472, Note_on_c, 0, 69, 0
2, 70501, Note_on_c, 0, 67, 0
2, 70501, Note_on_c, 0, 65, 62
2, 70531, Note_on_c, 0, 64, 51
2, 70532, Note_on_c, 0, 65, 0
2, 70561, Note_on_c, 0, 64, 0
2, 70562, Note_on_c, 0, 65, 80
2, 70576, Note_on_c, 0, 65, 0
2, 70622, Note_on_c, 0, 70, 76
2, 70634, Note_on_c, 0, 70, 0
2, 70682, Note_on_c, 0, 74, 76
2, 70699, Note_on_c, 0, 74, 0
2, 70741, Note_on_c, 0, 77, 72
2, 70758, Note_on_c, 0, 77, 0
2, 70799, Note_on_c, 0, 82, 76
2, 70817, Note_on_c, 0, 82, 0
2, 70860, Note_on_c, 0, 86, 93
2, 70871, Note_on_c, 0, 86, 0
2, 70919, Note_on_c, 0, 74, 76
2, 70934, Note_on_c, 0, 74, 0
2, 70935, Note_on_c, 0, 72, 64
2, 70949, Note_on_c, 0, 72, 0
2, 70951, Note_on_c, 0, 74, 59
2, 70963, Note_on_c, 0, 74, 0
2, 70965, Note_on_c, 0, 72, 64
2, 70980, Note_on_c, 0, 72, 0
2, 70981, Note_on_c, 0, 74, 64
2, 70995, Note_on_c, 0, 74, 0
2, 70996, Note_on_c, 0, 72, 62
2, 71009, Note_on_c, 0, 72, 0
2, 71011, Note_on_c, 0, 74, 62
2, 71025, Note_on_c, 0, 74, 0
2, 71026, Note_on_c, 0, 72, 57
2, 71038, Note_on_c, 0, 72, 0
2, 71041, Note_on_c, 0, 74, 68
2, 71054, Note_on_c, 0, 74, 0
2, 71056, Note_on_c, 0, 72, 64
2, 71069, Note_on_c, 0, 72, 0
2, 71071, Note_on_c, 0, 74, 64
2, 71084, Note_on_c, 0, 74, 0
2, 71086, Note_on_c, 0, 72, 59
2, 71101, Note_on_c, 0, 72, 0
2, 71101, Note_on_c, 0, 74, 62
2, 71114, Note_on_c, 0, 74, 0
2, 71116, Note_on_c, 0, 72, 60
2, 71130, Note_on_c, 0, 72, 0
2, 71131, Note_on_c, 0, 74, 62
2, 71144, Note_on_c, 0, 74, 0
2, 71146, Note_on_c, 0, 72, 60
2, 71160, Note_on_c, 0, 72, 0
2, 71161, Note_on_c, 0, 74, 68
2, 71175, Note_on_c, 0, 74, 0
2, 71176, Note_on_c, 0, 72, 62
2, 71191, Note_on_c, 0, 72, 0
2, 71192, Note_on_c, 0, 74, 64
2, 71205, Note_on_c, 0, 74, 0
2, 71206, Note_on_c, 0, 72, 64
2, 71220, Note_on_c, 0, 72, 0
2, 71220, Note_on_c, 0, 70, 60
2, 71250, Note_on_c, 0, 70, 0
2, 71250, Note_on_c, 0, 72, 60
2, 71280, Note_on_c, 0, 72, 0
2, 71280, Note_on_c, 0, 70, 72
2, 71362, Note_on_c, 0, 70, 0
2, 71640, Note_on_c, 0, 76, 72
2, 71762, Note_on_c, 0, 77, 80
2, 71771, Note_on_c, 0, 76, 0
2, 71882, Note_on_c, 0, 79, 85
2, 71883, Note_on_c, 0, 77, 0
2, 72002, Note_on_c, 0, 79, 0
2, 72003, Note_on_c, 0, 77, 80
2, 72176, Note_on_c, 0, 77, 0
2, 72182, Note_on_c, 0, 79, 60
2, 72212, Note_on_c, 0, 77, 72
2, 72219, Note_on_c, 0, 79, 0
2, 72242, Note_on_c, 0, 75, 64
2, 72247, Note_on_c, 0, 77, 0
2, 72271, Note_on_c, 0, 74, 72
2, 72273, Note_on_c, 0, 75, 0
2, 72300, Note_on_c, 0, 74, 0
2, 72301, Note_on_c, 0, 72, 56
2, 72331, Note_on_c, 0, 70, 60
2, 72335, Note_on_c, 0, 72, 0
2, 72359, Note_on_c, 0, 70, 0
2, 72361, Note_on_c, 0, 74, 72
2, 72536, Note_on_c, 0, 74, 0
2, 72539, Note_on_c, 0, 75, 72
2, 72599, Note_on_c, 0, 72, 72
2, 72603, Note_on_c, 0, 75, 0
2, 72720, Note_on_c, 0, 70, 56
2, 72721, Note_on_c, 0, 72, 0
2, 72840, Note_on_c, 0, 70, 0
2, 73079, Note_on_c, 0, 63, 80
2, 73088, Control_c, 0, 64, 127
2, 73136, Note_on_c, 0, 63, 0
2, 73139, Note_on_c, 0, 75, 68
2, 73161, Note_on_c, 0, 75, 0
2, 73194, Control_c, 0, 64, 0
2, 73199, Note_on_c, 0, 65, 93
2, 73230, Control_c, 0, 64, 127
2, 73257, Note_on_c, 0, 65, 0
2, 73259, Note_on_c, 0, 77, 80
2, 73274, Note_on_c, 0, 77, 0
2, 73307, Control_c, 0, 64, 0
2, 73319, Note_on_c, 0, 67, 85
2, 73341, Control_c, 0, 64, 127
2, 73379, Note_on_c, 0, 67, 0
2, 73379, Note_on_c, 0, 79, 89
2, 73395, Note_on_c, 0, 79, 0
2, 73436, Control_c, 0, 64, 0
2, 73440, Note_on_c, 0, 77, 80
2, 73466, Control_c, 0, 64, 127
2, 73501, Note_on_c, 0, 79, 80
2, 73503, Note_on_c, 0, 77, 0
2, 73507, Control_c, 0, 64, 0
2, 73531, Note_on_c, 0, 81, 64
2, 73536, Note_on_c, 0, 79, 0
2, 73560, Note_on_c, 0, 81, 0
2, 73561, Note_on_c, 0, 82, 72
2, 73591, Note_on_c, 0, 81, 64
2, 73593, Note_on_c, 0, 82, 0
2, 73621, Note_on_c, 0, 79, 80
2, 73627, Note_on_c, 0, 81, 0
2, 73651, Note_on_c, 0, 79, 0
2, 73651, Note_on_c, 0, 77, 62
2, 73681, Note_on_c, 0, 77, 0
2, 73681, Note_on_c, 0, 75, 60
2, 73711, Note_on_c, 0, 74, 76
2, 73712, Note_on_c, 0, 75, 0
2, 73741, Note_on_c, 0, 72, 64
2, 73742, Note_on_c, 0, 74, 0
2, 73771, Note_on_c, 0, 70, 57
2, 73773, Note_on_c, 0, 72, 0
2, 73799, Note_on_c, 0, 70, 0
2, 73801, Note_on_c, 0, 74, 89
2, 73821, Control_c, 0, 64, 127
2, 73978, Note_on_c, 0, 74, 0
2, 73981, Note_on_c, 0, 75, 64
2, 73991, Control_c, 0, 64, 0
2, 74040, Note_on_c, 0, 72, 76
2, 74045, Note_on_c, 0, 75, 0
2, 74071, Control_c, 0, 64, 127
2, 74161, Note_on_c, 0, 70, 85
2, 74161, Control_c, 0, 64, 0
2, 74164, Note_on_c, 0, 72, 0
2, 74204, Control_c, 0, 64, 127
2, 74281, Note_on_c, 0, 70, 0
2, 74305, Control_c, 0, 64, 0
2, 74310, Note_on_c, 0, 77, 72
2, 74335, Note_on_c, 0, 77, 0
2, 74343, Note_on_c, 0, 79, 72
2, 74368, Note_on_c, 0, 79, 0
2, 74372, Note_on_c, 0, 77, 68
2, 74401, Note_on_c, 0, 77, 0
2, 74402, Note_on_c, 0, 75, 64
2, 74431, Note_on_c, 0, 74, 76
2, 74432, Note_on_c, 0, 75, 0
2, 74461, Note_on_c, 0, 75, 64
2, 74464, Note_on_c, 0, 74, 0
2, 74491, Note_on_c, 0, 75, 0
2, 74491, Note_on_c, 0, 72, 60
2, 74521, Note_on_c, 0, 70, 68
2, 74525, Note_on_c, 0, 72, 0
2, 74543, Control_c, 0, 64, 127
2, 74598, Note_on_c, 0, 70, 0
2, 74647, Control_c, 0, 64, 0
2, 74672, Note_on_c, 0, 65, 80
2, 74701, Note_on_c, 0, 65, 0
2, 74702, Note_on_c, 0, 67, 62
2, 74731, Note_on_c, 0, 65, 72
2, 74733, Note_on_c, 0, 67, 0
2, 74761, Note_on_c, 0, 63, 68
2, 74766, Note_on_c, 0, 65, 0
2, 74791, Note_on_c, 0, 62, 64
2, 74794, Note_on_c, 0, 63, 0
2, 74821, Note_on_c, 0, 63, 62
2, 74824, Note_on_c, 0, 62, 0
2, 74851, Note_on_c, 0, 63, 0
2, 74851, Note_on_c, 0, 60, 57
2, 74882, Note_on_c, 0, 58, 85
2, 74883, Note_on_c, 0, 60, 0
2, 74910, Control_c, 0, 64, 127
2, 74924, Note_on_c, 0, 58, 0
2, 75003, Note_on_c, 0, 74, 62
2, 75003, Note_on_c, 0, 77, 76
2, 75003, Note_on_c, 0, 82, 85
2, 75008, Control_c, 0, 64, 0
2, 75030, Control_c, 0, 64, 127
2, 75051, Note_on_c, 0, 74, 0
2, 75052, Note_on_c, 0, 77, 0
2, 75053, Note_on_c, 0, 82, 0
2, 75124, Control_c, 0, 64, 0
2, 75240, Control_c, 0, 121, 0
2, 75240, End_track
3, 0, Start_track
3, 0, MIDI_port, 0
3, 0, Program_c, 1, 0
3, 0, Control_c, 1, 7, 127
3, 0, Control_c, 1, 10, 44
3, 0, Control_c, 1, 121, 0
3, 0, Control_c, 1, 91, 75
3, 0, Note_on_c, 1, 58, 70
3, 236, Note_on_c, 1, 58, 0
3, 239, Note_on_c, 1, 53, 66
3, 361, Note_on_c, 1, 50, 83
3, 363, Note_on_c, 1, 53, 0
3, 588, Note_on_c, 1, 50, 0
3, 597, Note_on_c, 1, 53, 66
3, 718, Note_on_c, 1, 58, 47
3, 720, Note_on_c, 1, 53, 0
3, 959, Note_on_c, 1, 62, 66
3, 964, Note_on_c, 1, 58, 0
3, 1079, Note_on_c, 1, 65, 54
3, 1082, Note_on_c, 1, 62, 0
3, 1195, Control_c, 1, 64, 127
3, 1327, Note_on_c, 1, 65, 0
3, 1329, Control_c, 1, 64, 0
3, 1441, Note_on_c, 1, 63, 40
3, 1441, Note_on_c, 1, 53, 52
3, 1441, Note_on_c, 1, 60, 58
3, 1469, Control_c, 1, 64, 127
3, 2079, Note_on_c, 1, 60, 0
3, 2083, Note_on_c, 1, 53, 0
3, 2084, Note_on_c, 1, 63, 0
3, 2157, Control_c, 1, 64, 0
3, 2158, Note_on_c, 1, 62, 43
3, 2159, Note_on_c, 1, 58, 43
3, 2192, Control_c, 1, 64, 127
3, 2289, Control_c, 1, 64, 0
3, 2299, Note_on_c, 1, 62, 0
3, 2300, Note_on_c, 1, 58, 0
3, 2880, Note_on_c, 1, 63, 41
3, 2880, Note_on_c, 1, 53, 54
3, 2881, Note_on_c, 1, 60, 58
3, 2904, Control_c, 1, 64, 127
3, 3535, Note_on_c, 1, 60, 0
3, 3538, Note_on_c, 1, 53, 0
3, 3538, Note_on_c, 1, 63, 0
3, 3597, Control_c, 1, 64, 0
3, 3600, Note_on_c, 1, 58, 49
3, 3600, Note_on_c, 1, 62, 52
3, 3659, Note_on_c, 1, 58, 0
3, 3660, Note_on_c, 1, 62, 0
3, 3722, Note_on_c, 1, 62, 52
3, 3722, Note_on_c, 1, 58, 52
3, 3774, Note_on_c, 1, 58, 0
3, 3777, Note_on_c, 1, 62, 0
3, 3842, Note_on_c, 1, 65, 58
3, 3842, Note_on_c, 1, 58, 50
3, 3898, Note_on_c, 1, 58, 0
3, 3902, Note_on_c, 1, 65, 0
3, 3963, Note_on_c, 1, 62, 62
3, 3963, Note_on_c, 1, 58, 46
3, 4100, Note_on_c, 1, 62, 0
3, 4102, Note_on_c, 1, 58, 0
3, 4438, Note_on_c, 1, 51, 50
3, 4439, Note_on_c, 1, 58, 46
3, 4439, Note_on_c, 1, 55, 70
3, 4542, Note_on_c, 1, 55, 0
3, 4542, Note_on_c, 1, 58, 0
3, 4545, Note_on_c, 1, 51, 0
3, 4801, Note_on_c, 1, 58, 49
3, 4801, Note_on_c, 1, 50, 58
3, 4801, Note_on_c, 1, 53, 70
3, 4916, Note_on_c, 1, 53, 0
3, 4918, Note_on_c, 1, 50, 0
3, 4918, Note_on_c, 1, 58, 0
3, 5041, Note_on_c, 1, 57, 66
3, 5041, Note_on_c, 1, 65, 52
3, 5076, Control_c, 1, 64, 127
3, 5387, Note_on_c, 1, 57, 0
3, 5390, Control_c, 1, 64, 0
3, 5398, Note_on_c, 1, 58, 35
3, 5437, Control_c, 1, 64, 127
3, 5526, Note_on_c, 1, 65, 0
3, 5526, Control_c, 1, 64, 0
3, 5534, Note_on_c, 1, 58, 0
3, 5878, Note_on_c, 1, 58, 42
3, 5878, Note_on_c, 1, 51, 46
3, 5878, Note_on_c, 1, 55, 70
3, 5890, Control_c, 1, 64, 127
3, 6003, Control_c, 1, 64, 0
3, 6018, Note_on_c, 1, 58, 0
3, 6019, Note_on_c, 1, 55, 0
3, 6022, Note_on_c, 1, 51, 0
3, 6242, Note_on_c, 1, 53, 66
3, 6242, Note_on_c, 1, 58, 41
3, 6242, Note_on_c, 1, 50, 52
3, 6251, Control_c, 1, 64, 127
3, 6364, Note_on_c, 1, 58, 0
3, 6364, Note_on_c, 1, 53, 0
3, 6365, Control_c, 1, 64, 0
3, 6366, Note_on_c, 1, 50, 0
3, 6478, Note_on_c, 1, 57, 58
3, 6478, Note_on_c, 1, 53, 54
3, 6597, Note_on_c, 1, 57, 0
3, 6598, Note_on_c, 1, 60, 52
3, 6719, Note_on_c, 1, 60, 0
3, 6719, Note_on_c, 1, 63, 52
3, 6839, Note_on_c, 1, 62, 66
3, 6839, Note_on_c, 1, 58, 45
3, 6841, Note_on_c, 1, 63, 0
3, 6846, Note_on_c, 1, 53, 0
3, 6975, Note_on_c, 1, 62, 0
3, 6977, Note_on_c, 1, 58, 0
3, 7199, Note_on_c, 1, 55, 79
3, 7319, Note_on_c, 1, 43, 79
3, 7324, Note_on_c, 1, 55, 0
3, 7428, Note_on_c, 1, 43, 0
3, 7561, Note_on_c, 1, 50, 79
3, 7674, Note_on_c, 1, 50, 0
3, 7678, Note_on_c, 1, 38, 75
3, 7787, Note_on_c, 1, 38, 0
3, 7913, Note_on_c, 1, 55, 46
3, 7913, Note_on_c, 1, 51, 42
3, 7931, Control_c, 1, 64, 127
3, 7979, Note_on_c, 1, 58, 37
3, 7980, Note_on_c, 1, 55, 0
3, 8031, Note_on_c, 1, 58, 0
3, 8038, Note_on_c, 1, 55, 41
3, 8098, Note_on_c, 1, 58, 42
3, 8101, Note_on_c, 1, 55, 0
3, 8153, Note_on_c, 1, 58, 0
3, 8158, Note_on_c, 1, 55, 46
3, 8218, Note_on_c, 1, 58, 46
3, 8219, Note_on_c, 1, 55, 0
3, 8267, Note_on_c, 1, 51, 0
3, 8281, Note_on_c, 1, 56, 54
3, 8281, Note_on_c, 1, 50, 46
3, 8285, Note_on_c, 1, 58, 0
3, 8286, Control_c, 1, 64, 0
3, 8341, Note_on_c, 1, 58, 49
3, 8343, Note_on_c, 1, 56, 0
3, 8400, Note_on_c, 1, 58, 0
3, 8401, Note_on_c, 1, 56, 52
3, 8406, Control_c, 1, 64, 127
3, 8461, Note_on_c, 1, 58, 45
3, 8464, Note_on_c, 1, 56, 0
3, 8521, Note_on_c, 1, 56, 47
3, 8524, Note_on_c, 1, 58, 0
3, 8529, Control_c, 1, 64, 0
3, 8553, Control_c, 1, 64, 127
3, 8578, Note_on_c, 1, 56, 0
3, 8579, Note_on_c, 1, 58, 43
3, 8638, Note_on_c, 1, 58, 0
3, 8638, Note_on_c, 1, 50, 0
3, 8639, Note_on_c, 1, 55, 46
3, 8640, Note_on_c, 1, 51, 49
3, 8645, Control_c, 1, 64, 0
3, 8688, Control_c, 1, 64, 127
3, 8699, Note_on_c, 1, 58, 41
3, 8703, Note_on_c, 1, 55, 0
3, 8761, Note_on_c, 1, 58, 0
3, 8761, Note_on_c, 1, 55, 41
3, 8786, Control_c, 1, 64, 0
3, 8809, Control_c, 1, 64, 127
3, 8819, Note_on_c, 1, 58, 42
3, 8821, Note_on_c, 1, 55, 0
3, 8876, Note_on_c, 1, 58, 0
3, 8879, Note_on_c, 1, 55, 35
3, 8936, Note_on_c, 1, 55, 0
3, 8938, Note_on_c, 1, 58, 46
3, 8999, Note_on_c, 1, 56, 52
3, 9000, Note_on_c, 1, 58, 0
3, 9001, Note_on_c, 1, 50, 58
3, 9006, Note_on_c, 1, 51, 0
3, 9007, Control_c, 1, 64, 0
3, 9059, Note_on_c, 1, 58, 46
3, 9062, Note_on_c, 1, 56, 0
3, 9064, Control_c, 1, 64, 127
3, 9121, Note_on_c, 1, 58, 0
3, 9121, Note_on_c, 1, 56, 41
3, 9176, Note_on_c, 1, 56, 0
3, 9179, Note_on_c, 1, 58, 46
3, 9236, Note_on_c, 1, 58, 0
3, 9238, Note_on_c, 1, 56, 49
3, 9242, Control_c, 1, 64, 0
3, 9267, Control_c, 1, 64, 127
3, 9298, Note_on_c, 1, 56, 0
3, 9298, Note_on_c, 1, 58, 49
3, 9358, Note_on_c, 1, 50, 0
3, 9359, Note_on_c, 1, 55, 49
3, 9359, Note_on_c, 1, 51, 50
3, 9361, Note_on_c, 1, 58, 0
3, 9364, Control_c, 1, 64, 0
3, 9406, Control_c, 1, 64, 127
3, 9421, Note_on_c, 1, 58, 45
3, 9429, Note_on_c, 1, 55, 0
3, 9478, Note_on_c, 1, 58, 0
3, 9481, Note_on_c, 1, 55, 45
3, 9540, Note_on_c, 1, 58, 46
3, 9542, Note_on_c, 1, 55, 0
3, 9596, Note_on_c, 1, 58, 0
3, 9599, Note_on_c, 1, 55, 46
3, 9655, Note_on_c, 1, 55, 0
3, 9658, Note_on_c, 1, 58, 50
3, 9675, Note_on_c, 1, 51, 0
3, 9720, Note_on_c, 1, 53, 34
3, 9720, Note_on_c, 1, 50, 54
3, 9722, Control_c, 1, 64, 0
3, 9724, Note_on_c, 1, 58, 0
3, 9765, Control_c, 1, 64, 127
3, 9779, Note_on_c, 1, 56, 52
3, 9781, Note_on_c, 1, 53, 0
3, 9839, Note_on_c, 1, 53, 45
3, 9840, Note_on_c, 1, 56, 0
3, 9850, Control_c, 1, 64, 0
3, 9872, Control_c, 1, 64, 127
3, 9899, Note_on_c, 1, 56, 52
3, 9904, Note_on_c, 1, 53, 0
3, 9957, Note_on_c, 1, 56, 0
3, 9958, Note_on_c, 1, 53, 46
3, 9962, Control_c, 1, 64, 0
3, 9985, Control_c, 1, 64, 127
3, 10018, Note_on_c, 1, 56, 52
3, 10019, Note_on_c, 1, 53, 0
3, 10074, Control_c, 1, 64, 0
3, 10076, Note_on_c, 1, 56, 0
3, 10076, Note_on_c, 1, 50, 0
3, 10078, Note_on_c, 1, 55, 58
3, 10078, Note_on_c, 1, 51, 47
3, 10105, Control_c, 1, 64, 127
3, 10138, Note_on_c, 1, 55, 0
3, 10138, Note_on_c, 1, 60, 50
3, 10201, Note_on_c, 1, 55, 52
3, 10203, Note_on_c, 1, 60, 0
3, 10207, Control_c, 1, 64, 0
3, 10233, Control_c, 1, 64, 127
3, 10259, Note_on_c, 1, 55, 0
3, 10260, Note_on_c, 1, 60, 46
3, 10311, Note_on_c, 1, 60, 0
3, 10321, Note_on_c, 1, 55, 54
3, 10326, Control_c, 1, 64, 0
3, 10347, Control_c, 1, 64, 127
3, 10378, Note_on_c, 1, 55, 0
3, 10380, Note_on_c, 1, 60, 52
3, 10404, Note_on_c, 1, 60, 0
3, 10417, Note_on_c, 1, 51, 0
3, 10436, Control_c, 1, 64, 0
3, 10441, Note_on_c, 1, 51, 50
3, 10441, Note_on_c, 1, 53, 43
3, 10456, Control_c, 1, 64, 127
3, 10496, Note_on_c, 1, 53, 0
3, 10499, Note_on_c, 1, 60, 52
3, 10542, Note_on_c, 1, 60, 0
3, 10560, Note_on_c, 1, 53, 50
3, 10620, Note_on_c, 1, 53, 0
3, 10621, Note_on_c, 1, 60, 46
3, 10658, Note_on_c, 1, 60, 0
3, 10679, Note_on_c, 1, 53, 46
3, 10738, Note_on_c, 1, 53, 0
3, 10740, Note_on_c, 1, 60, 52
3, 10779, Note_on_c, 1, 60, 0
3, 10799, Note_on_c, 1, 53, 52
3, 10799, Note_on_c, 1, 50, 47
3, 10801, Note_on_c, 1, 51, 0
3, 10803, Control_c, 1, 64, 0
3, 10837, Control_c, 1, 64, 127
3, 10859, Note_on_c, 1, 58, 47
3, 10860, Note_on_c, 1, 53, 0
3, 10918, Note_on_c, 1, 58, 0
3, 10919, Note_on_c, 1, 53, 54
3, 10932, Control_c, 1, 64, 0
3, 10952, Control_c, 1, 64, 127
3, 10977, Note_on_c, 1, 53, 0
3, 10979, Note_on_c, 1, 58, 50
3, 11034, Note_on_c, 1, 58, 0
3, 11039, Note_on_c, 1, 53, 47
3, 11046, Control_c, 1, 64, 0
3, 11065, Control_c, 1, 64, 127
3, 11096, Note_on_c, 1, 53, 0
3, 11098, Note_on_c, 1, 58, 50
3, 11159, Note_on_c, 1, 55, 52
3, 11160, Note_on_c, 1, 50, 0
3, 11161, Note_on_c, 1, 48, 66
3, 11162, Note_on_c, 1, 58, 0
3, 11166, Control_c, 1, 64, 0
3, 11211, Control_c, 1, 64, 127
3, 11220, Note_on_c, 1, 58, 47
3, 11222, Note_on_c, 1, 55, 0
3, 11280, Note_on_c, 1, 58, 0
3, 11280, Note_on_c, 1, 55, 52
3, 11295, Control_c, 1, 64, 0
3, 11319, Control_c, 1, 64, 127
3, 11339, Note_on_c, 1, 58, 40
3, 11342, Note_on_c, 1, 55, 0
3, 11399, Note_on_c, 1, 58, 0
3, 11400, Note_on_c, 1, 55, 50
3, 11458, Note_on_c, 1, 55, 0
3, 11459, Note_on_c, 1, 58, 49
3, 11516, Note_on_c, 1, 58, 0
3, 11519, Note_on_c, 1, 53, 50
3, 11520, Note_on_c, 1, 50, 47
3, 11522, Note_on_c, 1, 48, 0
3, 11529, Control_c, 1, 64, 0
3, 11563, Control_c, 1, 64, 127
3, 11580, Note_on_c, 1, 53, 0
3, 11580, Note_on_c, 1, 57, 47
3, 11636, Note_on_c, 1, 57, 0
3, 11639, Note_on_c, 1, 53, 46
3, 11698, Note_on_c, 1, 53, 0
3, 11699, Note_on_c, 1, 57, 46
3, 11756, Note_on_c, 1, 57, 0
3, 11759, Note_on_c, 1, 53, 46
3, 11797, Note_on_c, 1, 50, 0
3, 11817, Note_on_c, 1, 53, 0
3, 11819, Note_on_c, 1, 57, 47
3, 11832, Note_on_c, 1, 57, 0
3, 11880, Note_on_c, 1, 62, 41
3, 11881, Note_on_c, 1, 55, 52
3, 11886, Control_c, 1, 64, 0
3, 11917, Control_c, 1, 64, 127
3, 11941, Note_on_c, 1, 62, 0
3, 11941, Note_on_c, 1, 65, 49
3, 11995, Note_on_c, 1, 65, 0
3, 12001, Note_on_c, 1, 62, 46
3, 12056, Note_on_c, 1, 62, 0
3, 12061, Note_on_c, 1, 65, 36
3, 12114, Note_on_c, 1, 65, 0
3, 12118, Note_on_c, 1, 62, 50
3, 12178, Note_on_c, 1, 62, 0
3, 12179, Note_on_c, 1, 65, 49
3, 12236, Note_on_c, 1, 65, 0
3, 12236, Note_on_c, 1, 55, 0
3, 12239, Note_on_c, 1, 60, 50
3, 12239, Note_on_c, 1, 64, 54
3, 12239, Control_c, 1, 64, 0
3, 12270, Control_c, 1, 64, 127
3, 12381, Note_on_c, 1, 64, 0
3, 12385, Control_c, 1, 64, 0
3, 12387, Note_on_c, 1, 60, 0
3, 12482, Note_on_c, 1, 70, 66
3, 12510, Control_c, 1, 64, 127
3, 12603, Note_on_c, 1, 69, 66
3, 12605, Note_on_c, 1, 70, 0
3, 12613, Control_c, 1, 64, 0
3, 12717, Note_on_c, 1, 69, 0
3, 12722, Note_on_c, 1, 64, 50
3, 12836, Note_on_c, 1, 64, 0
3, 12841, Note_on_c, 1, 65, 54
3, 12962, Note_on_c, 1, 60, 39
3, 12964, Note_on_c, 1, 65, 0
3, 13073, Note_on_c, 1, 60, 0
3, 13201, Note_on_c, 1, 70, 79
3, 13320, Note_on_c, 1, 69, 75
3, 13321, Note_on_c, 1, 70, 0
3, 13441, Note_on_c, 1, 64, 66
3, 13443, Note_on_c, 1, 69, 0
3, 13558, Note_on_c, 1, 64, 0
3, 13559, Note_on_c, 1, 65, 75
3, 13678, Note_on_c, 1, 65, 0
3, 13679, Note_on_c, 1, 60, 58
3, 13807, Note_on_c, 1, 60, 0
3, 13949, Note_on_c, 1, 60, 70
3, 13980, Note_on_c, 1, 55, 58
3, 13987, Note_on_c, 1, 60, 0
3, 14010, Note_on_c, 1, 52, 47
3, 14015, Note_on_c, 1, 55, 0
3, 14034, Note_on_c, 1, 52, 0
3, 14041, Note_on_c, 1, 48, 79
3, 14155, Note_on_c, 1, 48, 0
3, 14161, Note_on_c, 1, 36, 70
3, 14282, Note_on_c, 1, 36, 0
3, 14400, Note_on_c, 1, 53, 66
3, 14639, Note_on_c, 1, 48, 46
3, 14641, Note_on_c, 1, 53, 0
3, 14760, Note_on_c, 1, 45, 62
3, 14762, Note_on_c, 1, 48, 0
3, 14997, Note_on_c, 1, 45, 0
3, 14998, Note_on_c, 1, 48, 66
3, 15119, Note_on_c, 1, 53, 52
3, 15121, Note_on_c, 1, 48, 0
3, 15283, Control_c, 1, 64, 127
3, 15361, Note_on_c, 1, 57, 54
3, 15367, Control_c, 1, 64, 0
3, 15375, Note_on_c, 1, 53, 0
3, 15398, Control_c, 1, 64, 127
3, 15476, Note_on_c, 1, 57, 0
3, 15478, Control_c, 1, 64, 0
3, 15481, Note_on_c, 1, 60, 47
3, 15519, Control_c, 1, 64, 127
3, 15608, Control_c, 1, 64, 0
3, 15614, Note_on_c, 1, 60, 0
3, 15827, Note_on_c, 1, 58, 50
3, 15864, Control_c, 1, 64, 127
3, 16081, Note_on_c, 1, 55, 62
3, 16091, Note_on_c, 1, 58, 0
3, 16092, Control_c, 1, 64, 0
3, 16122, Control_c, 1, 64, 127
3, 16201, Note_on_c, 1, 52, 52
3, 16203, Note_on_c, 1, 55, 0
3, 16210, Control_c, 1, 64, 0
3, 16255, Control_c, 1, 64, 127
3, 16430, Note_on_c, 1, 52, 0
3, 16433, Control_c, 1, 64, 0
3, 16439, Note_on_c, 1, 55, 58
3, 16465, Control_c, 1, 64, 127
3, 16554, Control_c, 1, 64, 0
3, 16559, Note_on_c, 1, 58, 54
3, 16570, Note_on_c, 1, 55, 0
3, 16591, Control_c, 1, 64, 127
3, 16800, Note_on_c, 1, 64, 66
3, 16805, Control_c, 1, 64, 0
3, 16807, Note_on_c, 1, 58, 0
3, 16837, Control_c, 1, 64, 127
3, 16921, Note_on_c, 1, 67, 62
3, 16923, Note_on_c, 1, 64, 0
3, 16932, Control_c, 1, 64, 0
3, 16962, Control_c, 1, 64, 127
3, 17049, Control_c, 1, 64, 0
3, 17051, Note_on_c, 1, 67, 0
3, 17279, Note_on_c, 1, 69, 50
3, 17292, Control_c, 1, 64, 127
3, 17339, Note_on_c, 1, 72, 39
3, 17340, Note_on_c, 1, 69, 0
3, 17399, Note_on_c, 1, 69, 54
3, 17400, Note_on_c, 1, 72, 0
3, 17459, Note_on_c, 1, 72, 45
3, 17460, Note_on_c, 1, 69, 0
3, 17517, Note_on_c, 1, 72, 0
3, 17519, Note_on_c, 1, 69, 54
3, 17527, Control_c, 1, 64, 0
3, 17555, Control_c, 1, 64, 127
3, 17575, Note_on_c, 1, 69, 0
3, 17579, Note_on_c, 1, 72, 47
3, 17638, Control_c, 1, 64, 0
3, 17639, Note_on_c, 1, 70, 54
3, 17644, Note_on_c, 1, 72, 0
3, 17669, Control_c, 1, 64, 127
3, 17696, Note_on_c, 1, 70, 0
3, 17699, Note_on_c, 1, 72, 49
3, 17708, Control_c, 1, 64, 0
3, 17741, Control_c, 1, 64, 127
3, 17759, Note_on_c, 1, 70, 47
3, 17765, Note_on_c, 1, 72, 0
3, 17819, Note_on_c, 1, 72, 43
3, 17823, Note_on_c, 1, 70, 0
3, 17880, Note_on_c, 1, 70, 49
3, 17882, Note_on_c, 1, 72, 0
3, 17882, Control_c, 1, 64, 0
3, 17908, Control_c, 1, 64, 127
3, 17939, Note_on_c, 1, 70, 0
3, 17939, Note_on_c, 1, 72, 46
3, 17949, Control_c, 1, 64, 0
3, 17976, Control_c, 1, 64, 127
3, 17995, Note_on_c, 1, 72, 0
3, 17999, Note_on_c, 1, 69, 52
3, 18006, Control_c, 1, 64, 0
3, 18036, Control_c, 1, 64, 127
3, 18059, Note_on_c, 1, 72, 47
3, 18062, Note_on_c, 1, 69, 0
3, 18118, Note_on_c, 1, 72, 0
3, 18119, Note_on_c, 1, 69, 47
3, 18178, Note_on_c, 1, 69, 0
3, 18179, Note_on_c, 1, 72, 45
3, 18237, Note_on_c, 1, 72, 0
3, 18239, Note_on_c, 1, 69, 42
3, 18240, Control_c, 1, 64, 0
3, 18263, Control_c, 1, 64, 127
3, 18296, Note_on_c, 1, 69, 0
3, 18299, Note_on_c, 1, 72, 46
3, 18359, Note_on_c, 1, 72, 0
3, 18359, Note_on_c, 1, 70, 45
3, 18362, Control_c, 1, 64, 0
3, 18395, Control_c, 1, 64, 127
3, 18419, Note_on_c, 1, 72, 47
3, 18423, Note_on_c, 1, 70, 0
3, 18479, Note_on_c, 1, 70, 41
3, 18481, Note_on_c, 1, 72, 0
3, 18535, Note_on_c, 1, 70, 0
3, 18539, Note_on_c, 1, 72, 37
3, 18595, Note_on_c, 1, 72, 0
3, 18599, Note_on_c, 1, 70, 42
3, 18659, Note_on_c, 1, 72, 46
3, 18660, Note_on_c, 1, 70, 0
3, 18719, Note_on_c, 1, 72, 0
3, 18719, Note_on_c, 1, 69, 54
3, 18726, Control_c, 1, 64, 0
3, 18761, Control_c, 1, 64, 127
3, 18779, Note_on_c, 1, 72, 41
3, 18780, Note_on_c, 1, 69, 0
3, 18839, Note_on_c, 1, 69, 52
3, 18840, Note_on_c, 1, 72, 0
3, 18899, Note_on_c, 1, 72, 47
3, 18900, Note_on_c, 1, 69, 0
3, 18954, Note_on_c, 1, 72, 0
3, 18959, Note_on_c, 1, 69, 43
3, 19019, Note_on_c, 1, 72, 52
3, 19021, Note_on_c, 1, 69, 0
3, 19077, Note_on_c, 1, 72, 0
3, 19079, Note_on_c, 1, 69, 54
3, 19079, Note_on_c, 1, 62, 50
3, 19080, Control_c, 1, 64, 0
3, 19128, Control_c, 1, 64, 127
3, 19139, Note_on_c, 1, 72, 46
3, 19143, Note_on_c, 1, 69, 0
3, 19199, Note_on_c, 1, 69, 49
3, 19201, Note_on_c, 1, 72, 0
3, 19257, Note_on_c, 1, 69, 0
3, 19259, Note_on_c, 1, 72, 46
3, 19312, Note_on_c, 1, 72, 0
3, 19319, Note_on_c, 1, 69, 46
3, 19372, Note_on_c, 1, 69, 0
3, 19373, Note_on_c, 1, 62, 0
3, 19379, Note_on_c, 1, 72, 45
3, 19412, Note_on_c, 1, 72, 0
3, 19436, Control_c, 1, 64, 0
3, 19439, Note_on_c, 1, 70, 52
3, 19439, Note_on_c, 1, 67, 50
3, 19467, Control_c, 1, 64, 127
3, 19559, Note_on_c, 1, 72, 70
3, 19559, Note_on_c, 1, 64, 49
3, 19561, Note_on_c, 1, 70, 0
3, 19563, Note_on_c, 1, 67, 0
3, 19563, Control_c, 1, 64, 0
3, 19600, Control_c, 1, 64, 127
3, 19677, Control_c, 1, 64, 0
3, 19679, Note_on_c, 1, 65, 58
3, 19685, Note_on_c, 1, 64, 0
3, 19706, Control_c, 1, 64, 127
3, 19797, Note_on_c, 1, 65, 0
3, 19799, Note_on_c, 1, 70, 58
3, 19799, Note_on_c, 1, 58, 45
3, 19799, Control_c, 1, 64, 0
3, 19801, Note_on_c, 1, 72, 0
3, 19832, Control_c, 1, 64, 127
3, 19919, Note_on_c, 1, 60, 58
3, 19919, Note_on_c, 1, 69, 66
3, 19920, Note_on_c, 1, 58, 0
3, 19925, Control_c, 1, 64, 0
3, 19927, Note_on_c, 1, 70, 0
3, 19964, Control_c, 1, 64, 127
3, 20039, Note_on_c, 1, 69, 0
3, 20040, Note_on_c, 1, 67, 66
3, 20052, Control_c, 1, 64, 0
3, 20091, Control_c, 1, 64, 127
3, 20159, Note_on_c, 1, 60, 0
3, 20160, Note_on_c, 1, 67, 0
3, 20160, Note_on_c, 1, 65, 75
3, 20179, Control_c, 1, 64, 0
3, 20214, Control_c, 1, 64, 127
3, 20332, Note_on_c, 1, 65, 0
3, 20342, Note_on_c, 1, 57, 62
3, 20369, Control_c, 1, 64, 0
3, 20403, Note_on_c, 1, 55, 58
3, 20409, Note_on_c, 1, 57, 0
3, 20459, Note_on_c, 1, 55, 0
3, 20462, Note_on_c, 1, 53, 45
3, 20522, Note_on_c, 1, 52, 54
3, 20525, Note_on_c, 1, 53, 0
3, 20663, Note_on_c, 1, 52, 0
3, 20700, Note_on_c, 1, 62, 70
3, 20761, Note_on_c, 1, 60, 62
3, 20763, Note_on_c, 1, 62, 0
3, 20819, Note_on_c, 1, 52, 62
3, 20824, Note_on_c, 1, 60, 0
3, 20878, Note_on_c, 1, 52, 0
3, 20879, Note_on_c, 1, 53, 50
3, 21011, Note_on_c, 1, 53, 0
3, 21058, Note_on_c, 1, 57, 58
3, 21119, Note_on_c, 1, 55, 66
3, 21121, Note_on_c, 1, 57, 0
3, 21179, Note_on_c, 1, 53, 62
3, 21180, Note_on_c, 1, 55, 0
3, 21236, Note_on_c, 1, 53, 0
3, 21240, Note_on_c, 1, 52, 70
3, 21379, Note_on_c, 1, 52, 0
3, 21418, Note_on_c, 1, 62, 52
3, 21479, Note_on_c, 1, 60, 50
3, 21484, Note_on_c, 1, 62, 0
3, 21539, Note_on_c, 1, 52, 54
3, 21546, Note_on_c, 1, 60, 0
3, 21601, Note_on_c, 1, 53, 50
3, 21603, Note_on_c, 1, 52, 0
3, 21732, Note_on_c, 1, 53, 0
3, 21779, Note_on_c, 1, 60, 58
3, 21839, Note_on_c, 1, 57, 70
3, 21843, Note_on_c, 1, 60, 0
3, 21899, Note_on_c, 1, 55, 58
3, 21900, Note_on_c, 1, 57, 0
3, 21955, Note_on_c, 1, 55, 0
3, 21959, Note_on_c, 1, 54, 62
3, 22101, Note_on_c, 1, 54, 0
3, 22139, Note_on_c, 1, 63, 62
3, 22199, Note_on_c, 1, 62, 79
3, 22200, Note_on_c, 1, 63, 0
3, 22257, Control_c, 1, 64, 127
3, 22259, Note_on_c, 1, 62, 0
3, 22259, Note_on_c, 1, 54, 66
3, 22319, Note_on_c, 1, 55, 52
3, 22319, Control_c, 1, 64, 0
3, 22320, Note_on_c, 1, 54, 0
3, 22350, Note_on_c, 1, 62, 54
3, 22357, Note_on_c, 1, 55, 0
3, 22361, Control_c, 1, 64, 127
3, 22379, Note_on_c, 1, 62, 0
3, 22379, Control_c, 1, 64, 0
3, 22380, Note_on_c, 1, 58, 52
3, 22407, Control_c, 1, 64, 127
3, 22408, Note_on_c, 1, 58, 0
3, 22409, Note_on_c, 1, 62, 58
3, 22435, Control_c, 1, 64, 0
3, 22438, Note_on_c, 1, 62, 0
3, 22440, Note_on_c, 1, 52, 52
3, 22469, Control_c, 1, 64, 127
3, 22471, Note_on_c, 1, 61, 58
3, 22488, Note_on_c, 1, 61, 0
3, 22488, Control_c, 1, 64, 0
3, 22492, Note_on_c, 1, 52, 0
3, 22501, Note_on_c, 1, 55, 62
3, 22522, Control_c, 1, 64, 127
3, 22529, Note_on_c, 1, 61, 54
3, 22547, Note_on_c, 1, 61, 0
3, 22554, Note_on_c, 1, 55, 0
3, 22559, Note_on_c, 1, 53, 58
3, 22562, Control_c, 1, 64, 0
3, 22591, Note_on_c, 1, 57, 66
3, 22599, Control_c, 1, 64, 127
3, 22608, Note_on_c, 1, 57, 0
3, 22611, Note_on_c, 1, 53, 0
3, 22621, Note_on_c, 1, 60, 58
3, 22645, Note_on_c, 1, 60, 0
3, 22650, Note_on_c, 1, 57, 50
3, 22664, Note_on_c, 1, 57, 0
3, 22673, Control_c, 1, 64, 0
3, 22680, Note_on_c, 1, 46, 70
3, 22680, Note_on_c, 1, 58, 70
3, 22714, Control_c, 1, 64, 127
3, 22795, Note_on_c, 1, 46, 0
3, 22800, Note_on_c, 1, 58, 0
3, 22801, Note_on_c, 1, 57, 66
3, 22802, Note_on_c, 1, 48, 54
3, 22807, Control_c, 1, 64, 0
3, 22843, Control_c, 1, 64, 127
3, 22919, Note_on_c, 1, 48, 0
3, 22921, Note_on_c, 1, 55, 54
3, 22922, Note_on_c, 1, 57, 0
3, 22922, Note_on_c, 1, 46, 52
3, 22927, Control_c, 1, 64, 0
3, 22964, Control_c, 1, 64, 127
3, 23019, Note_on_c, 1, 46, 0
3, 23033, Note_on_c, 1, 55, 0
3, 23042, Note_on_c, 1, 53, 66
3, 23042, Note_on_c, 1, 45, 58
3, 23049, Control_c, 1, 64, 0
3, 23077, Control_c, 1, 64, 127
3, 23176, Note_on_c, 1, 45, 0
3, 23176, Control_c, 1, 64, 0
3, 23178, Note_on_c, 1, 53, 0
3, 23282, Note_on_c, 1, 57, 75
3, 23282, Note_on_c, 1, 60, 66
3, 23302, Control_c, 1, 64, 127
3, 23338, Note_on_c, 1, 60, 0
3, 23339, Note_on_c, 1, 57, 0
3, 23401, Control_c, 1, 64, 0
3, 23401, Note_on_c, 1, 58, 54
3, 23402, Note_on_c, 1, 62, 70
3, 23435, Control_c, 1, 64, 127
3, 23496, Note_on_c, 1, 58, 0
3, 23499, Note_on_c, 1, 62, 0
3, 23533, Control_c, 1, 64, 0
3, 23642, Note_on_c, 1, 53, 54
3, 23642, Note_on_c, 1, 55, 52
3, 23642, Note_on_c, 1, 50, 62
3, 23662, Control_c, 1, 64, 127
3, 23696, Note_on_c, 1, 50, 0
3, 23704, Note_on_c, 1, 53, 0
3, 23708, Note_on_c, 1, 55, 0
3, 23761, Note_on_c, 1, 48, 54
3, 23762, Control_c, 1, 64, 0
3, 23792, Note_on_c, 1, 57, 43
3, 23795, Note_on_c, 1, 48, 0
3, 23821, Note_on_c, 1, 53, 41
3, 23822, Note_on_c, 1, 57, 0
3, 23848, Control_c, 1, 64, 127
3, 23851, Note_on_c, 1, 57, 52
3, 23853, Note_on_c, 1, 53, 0
3, 23873, Note_on_c, 1, 57, 0
3, 23881, Control_c, 1, 64, 0
3, 23881, Note_on_c, 1, 48, 50
3, 23901, Control_c, 1, 64, 127
3, 23909, Note_on_c, 1, 48, 0
3, 23911, Note_on_c, 1, 57, 52
3, 23937, Control_c, 1, 64, 0
3, 23939, Note_on_c, 1, 57, 0
3, 23941, Note_on_c, 1, 53, 34
3, 23957, Control_c, 1, 64, 127
3, 23970, Note_on_c, 1, 57, 49
3, 23971, Note_on_c, 1, 53, 0
3, 24001, Note_on_c, 1, 48, 50
3, 24004, Note_on_c, 1, 57, 0
3, 24007, Control_c, 1, 64, 0
3, 24027, Control_c, 1, 64, 127
3, 24031, Note_on_c, 1, 48, 0
3, 24031, Note_on_c, 1, 57, 52
3, 24061, Note_on_c, 1, 57, 0
3, 24061, Note_on_c, 1, 53, 49
3, 24063, Control_c, 1, 64, 0
3, 24083, Control_c, 1, 64, 127
3, 24092, Note_on_c, 1, 53, 0
3, 24095, Note_on_c, 1, 57, 52
3, 24115, Control_c, 1, 64, 0
3, 24121, Note_on_c, 1, 57, 0
3, 24121, Note_on_c, 1, 48, 54
3, 24139, Control_c, 1, 64, 127
3, 24151, Note_on_c, 1, 58, 43
3, 24156, Note_on_c, 1, 48, 0
3, 24176, Note_on_c, 1, 58, 0
3, 24180, Note_on_c, 1, 52, 52
3, 24184, Control_c, 1, 64, 0
3, 24205, Control_c, 1, 64, 127
3, 24206, Note_on_c, 1, 52, 0
3, 24211, Note_on_c, 1, 58, 41
3, 24236, Note_on_c, 1, 58, 0
3, 24239, Note_on_c, 1, 48, 62
3, 24240, Control_c, 1, 64, 0
3, 24261, Control_c, 1, 64, 127
3, 24270, Note_on_c, 1, 58, 46
3, 24273, Note_on_c, 1, 48, 0
3, 24297, Note_on_c, 1, 58, 0
3, 24299, Note_on_c, 1, 52, 49
3, 24304, Control_c, 1, 64, 0
3, 24316, Control_c, 1, 64, 127
3, 24321, Note_on_c, 1, 52, 0
3, 24329, Note_on_c, 1, 58, 42
3, 24346, Control_c, 1, 64, 0
3, 24354, Note_on_c, 1, 58, 0
3, 24360, Note_on_c, 1, 48, 62
3, 24369, Control_c, 1, 64, 127
3, 24388, Note_on_c, 1, 58, 47
3, 24392, Note_on_c, 1, 48, 0
3, 24419, Note_on_c, 1, 58, 0
3, 24419, Note_on_c, 1, 52, 52
3, 24441, Note_on_c, 1, 52, 0
3, 24448, Note_on_c, 1, 58, 46
3, 24469, Note_on_c, 1, 58, 0
3, 24475, Control_c, 1, 64, 0
3, 24478, Note_on_c, 1, 53, 58
3, 24539, Note_on_c, 1, 57, 49
3, 24548, Note_on_c, 1, 53, 0
3, 24601, Note_on_c, 1, 60, 54
3, 24602, Note_on_c, 1, 57, 0
3, 24661, Note_on_c, 1, 65, 66
3, 24663, Note_on_c, 1, 60, 0
3, 24722, Note_on_c, 1, 64, 66
3, 24728, Note_on_c, 1, 65, 0
3, 24781, Note_on_c, 1, 64, 0
3, 24781, Note_on_c, 1, 63, 54
3, 24841, Note_on_c, 1, 63, 0
3, 24842, Note_on_c, 1, 62, 52
3, 24899, Note_on_c, 1, 62, 0
3, 24902, Note_on_c, 1, 65, 54
3, 24962, Note_on_c, 1, 65, 0
3, 24962, Note_on_c, 1, 60, 52
3, 25018, Note_on_c, 1, 60, 0
3, 25021, Note_on_c, 1, 65, 50
3, 25080, Note_on_c, 1, 65, 0
3, 25081, Note_on_c, 1, 58, 43
3, 25113, Control_c, 1, 64, 127
3, 25138, Note_on_c, 1, 58, 0
3, 25141, Note_on_c, 1, 65, 52
3, 25198, Note_on_c, 1, 65, 0
3, 25201, Note_on_c, 1, 57, 49
3, 25203, Control_c, 1, 64, 0
3, 25241, Control_c, 1, 64, 127
3, 25260, Note_on_c, 1, 57, 0
3, 25261, Note_on_c, 1, 65, 45
3, 25271, Control_c, 1, 64, 0
3, 25318, Note_on_c, 1, 65, 0
3, 25319, Note_on_c, 1, 64, 52
3, 25379, Note_on_c, 1, 65, 50
3, 25381, Note_on_c, 1, 64, 0
3, 25441, Note_on_c, 1, 58, 50
3, 25443, Note_on_c, 1, 65, 0
3, 25499, Note_on_c, 1, 58, 0
3, 25500, Note_on_c, 1, 67, 54
3, 25516, Control_c, 1, 64, 127
3, 25560, Note_on_c, 1, 60, 58
3, 25562, Note_on_c, 1, 67, 0
3, 25563, Control_c, 1, 64, 0
3, 25605, Control_c, 1, 64, 127
3, 25620, Note_on_c, 1, 60, 0
3, 25620, Note_on_c, 1, 69, 49
3, 25677, Note_on_c, 1, 69, 0
3, 25679, Note_on_c, 1, 65, 54
3, 25685, Control_c, 1, 64, 0
3, 25707, Control_c, 1, 64, 127
3, 25737, Note_on_c, 1, 65, 0
3, 25739, Note_on_c, 1, 69, 54
3, 25787, Control_c, 1, 64, 0
3, 25794, Note_on_c, 1, 69, 0
3, 25798, Note_on_c, 1, 60, 50
3, 25813, Control_c, 1, 64, 127
3, 25854, Note_on_c, 1, 60, 0
3, 25858, Note_on_c, 1, 70, 52
3, 25884, Note_on_c, 1, 70, 0
3, 25914, Control_c, 1, 64, 0
3, 25918, Note_on_c, 1, 69, 62
3, 25938, Note_on_c, 1, 69, 0
3, 25977, Note_on_c, 1, 65, 54
3, 26006, Control_c, 1, 64, 127
3, 26034, Note_on_c, 1, 65, 0
3, 26037, Note_on_c, 1, 64, 62
3, 26042, Control_c, 1, 64, 0
3, 26096, Note_on_c, 1, 64, 0
3, 26097, Note_on_c, 1, 63, 54
3, 26155, Note_on_c, 1, 63, 0
3, 26156, Note_on_c, 1, 62, 70
3, 26217, Note_on_c, 1, 61, 50
3, 26222, Note_on_c, 1, 62, 0
3, 26278, Note_on_c, 1, 62, 62
3, 26284, Note_on_c, 1, 61, 0
3, 26337, Note_on_c, 1, 62, 0
3, 26338, Note_on_c, 1, 65, 52
3, 26399, Note_on_c, 1, 60, 52
3, 26406, Note_on_c, 1, 65, 0
3, 26458, Note_on_c, 1, 60, 0
3, 26458, Note_on_c, 1, 64, 66
3, 26519, Note_on_c, 1, 59, 79
3, 26524, Note_on_c, 1, 64, 0
3, 26579, Note_on_c, 1, 68, 54
3, 26582, Note_on_c, 1, 59, 0
3, 26603, Control_c, 1, 64, 127
3, 26636, Note_on_c, 1, 68, 0
3, 26639, Note_on_c, 1, 60, 66
3, 26640, Control_c, 1, 64, 0
3, 26683, Control_c, 1, 64, 127
3, 26699, Note_on_c, 1, 69, 54
3, 26703, Note_on_c, 1, 60, 0
3, 26704, Control_c, 1, 64, 0
3, 26731, Control_c, 1, 64, 127
3, 26759, Note_on_c, 1, 65, 58
3, 26764, Note_on_c, 1, 69, 0
3, 26772, Control_c, 1, 64, 0
3, 26795, Control_c, 1, 64, 127
3, 26821, Note_on_c, 1, 65, 0
3, 26821, Note_on_c, 1, 69, 49
3, 26876, Note_on_c, 1, 69, 0
3, 26879, Note_on_c, 1, 60, 54
3, 26884, Control_c, 1, 64, 0
3, 26909, Control_c, 1, 64, 127
3, 26938, Note_on_c, 1, 60, 0
3, 26939, Note_on_c, 1, 69, 54
3, 26994, Note_on_c, 1, 69, 0
3, 26997, Control_c, 1, 64, 0
3, 26999, Note_on_c, 1, 60, 66
3, 27023, Control_c, 1, 64, 127
3, 27059, Note_on_c, 1, 60, 0
3, 27059, Note_on_c, 1, 72, 52
3, 27115, Note_on_c, 1, 72, 0
3, 27119, Note_on_c, 1, 69, 45
3, 27179, Note_on_c, 1, 72, 50
3, 27181, Note_on_c, 1, 69, 0
3, 27208, Note_on_c, 1, 72, 0
3, 27235, Control_c, 1, 64, 0
3, 27240, Note_on_c, 1, 60, 62
3, 27258, Control_c, 1, 64, 127
3, 27275, Note_on_c, 1, 60, 0
3, 27299, Note_on_c, 1, 70, 62
3, 27312, Note_on_c, 1, 70, 0
3, 27354, Control_c, 1, 64, 0
3, 27391, Note_on_c, 1, 53, 66
3, 27421, Note_on_c, 1, 57, 75
3, 27427, Note_on_c, 1, 53, 0
3, 27452, Note_on_c, 1, 60, 66
3, 27456, Note_on_c, 1, 57, 0
3, 27482, Note_on_c, 1, 65, 66
3, 27483, Note_on_c, 1, 60, 0
3, 27518, Note_on_c, 1, 65, 0
3, 27602, Note_on_c, 1, 60, 52
3, 27602, Note_on_c, 1, 64, 58
3, 27619, Control_c, 1, 64, 127
3, 27640, Note_on_c, 1, 64, 0
3, 27642, Note_on_c, 1, 60, 0
3, 27681, Control_c, 1, 64, 0
3, 27750, Note_on_c, 1, 41, 70
3, 27781, Note_on_c, 1, 45, 70
3, 27791, Note_on_c, 1, 41, 0
3, 27809, Note_on_c, 1, 45, 0
3, 27811, Note_on_c, 1, 48, 62
3, 27841, Note_on_c, 1, 48, 0
3, 27841, Note_on_c, 1, 53, 50
3, 27878, Note_on_c, 1, 53, 0
3, 27960, Note_on_c, 1, 48, 54
3, 27960, Note_on_c, 1, 52, 52
3, 28008, Note_on_c, 1, 48, 0
3, 28009, Note_on_c, 1, 52, 0
3, 28082, Note_on_c, 1, 53, 52
3, 28201, Note_on_c, 1, 53, 0
3, 28202, Note_on_c, 1, 41, 66
3, 28327, Note_on_c, 1, 41, 0
3, 28441, Note_on_c, 1, 51, 88
3, 28561, Note_on_c, 1, 39, 70
3, 28565, Note_on_c, 1, 51, 0
3, 28674, Note_on_c, 1, 39, 0
3, 28793, Note_on_c, 1, 49, 28
3, 28793, Note_on_c, 1, 53, 40
3, 28818, Control_c, 1, 64, 127
3, 28860, Note_on_c, 1, 53, 0
3, 28860, Note_on_c, 1, 56, 41
3, 28920, Note_on_c, 1, 56, 0
3, 28920, Note_on_c, 1, 53, 40
3, 28977, Note_on_c, 1, 53, 0
3, 28980, Note_on_c, 1, 56, 30
3, 29034, Note_on_c, 1, 56, 0
3, 29039, Note_on_c, 1, 53, 36
3, 29099, Note_on_c, 1, 56, 38
3, 29100, Note_on_c, 1, 53, 0
3, 29106, Note_on_c, 1, 49, 0
3, 29133, Note_on_c, 1, 56, 0
3, 29162, Note_on_c, 1, 48, 50
3, 29162, Note_on_c, 1, 54, 39
3, 29167, Control_c, 1, 64, 0
3, 29207, Control_c, 1, 64, 127
3, 29220, Note_on_c, 1, 54, 0
3, 29222, Note_on_c, 1, 56, 42
3, 29283, Note_on_c, 1, 54, 46
3, 29292, Note_on_c, 1, 56, 0
3, 29297, Control_c, 1, 64, 0
3, 29330, Control_c, 1, 64, 127
3, 29343, Note_on_c, 1, 54, 0
3, 29343, Note_on_c, 1, 56, 40
3, 29400, Note_on_c, 1, 56, 0
3, 29403, Note_on_c, 1, 54, 45
3, 29415, Control_c, 1, 64, 0
3, 29438, Control_c, 1, 64, 127
3, 29460, Note_on_c, 1, 54, 0
3, 29462, Note_on_c, 1, 56, 40
3, 29474, Note_on_c, 1, 48, 0
3, 29522, Note_on_c, 1, 56, 0
3, 29522, Note_on_c, 1, 53, 43
3, 29522, Note_on_c, 1, 49, 40
3, 29527, Control_c, 1, 64, 0
3, 29560, Control_c, 1, 64, 127
3, 29576, Note_on_c, 1, 53, 0
3, 29581, Note_on_c, 1, 56, 34
3, 29639, Note_on_c, 1, 56, 0
3, 29641, Note_on_c, 1, 53, 45
3, 29649, Control_c, 1, 64, 0
3, 29672, Control_c, 1, 64, 127
3, 29697, Note_on_c, 1, 53, 0
3, 29701, Note_on_c, 1, 56, 35
3, 29759, Note_on_c, 1, 56, 0
3, 29761, Note_on_c, 1, 53, 46
3, 29767, Control_c, 1, 64, 0
3, 29790, Control_c, 1, 64, 127
3, 29820, Note_on_c, 1, 56, 37
3, 29823, Note_on_c, 1, 53, 0
3, 29827, Note_on_c, 1, 49, 0
3, 29860, Note_on_c, 1, 56, 0
3, 29881, Note_on_c, 1, 54, 41
3, 29881, Note_on_c, 1, 48, 49
3, 29883, Control_c, 1, 64, 0
3, 29915, Control_c, 1, 64, 127
3, 29936, Note_on_c, 1, 54, 0
3, 29941, Note_on_c, 1, 56, 30
3, 29997, Note_on_c, 1, 56, 0
3, 29999, Note_on_c, 1, 54, 43
3, 30004, Control_c, 1, 64, 0
3, 30028, Control_c, 1, 64, 127
3, 30054, Note_on_c, 1, 54, 0
3, 30059, Note_on_c, 1, 56, 35
3, 30117, Note_on_c, 1, 56, 0
3, 30118, Note_on_c, 1, 54, 40
3, 30121, Control_c, 1, 64, 0
3, 30142, Control_c, 1, 64, 127
3, 30178, Note_on_c, 1, 54, 0
3, 30178, Note_on_c, 1, 56, 34
3, 30187, Note_on_c, 1, 48, 0
3, 30215, Note_on_c, 1, 56, 0
3, 30234, Control_c, 1, 64, 0
3, 30238, Note_on_c, 1, 49, 34
3, 30239, Note_on_c, 1, 53, 46
3, 30265, Control_c, 1, 64, 127
3, 30299, Note_on_c, 1, 56, 37
3, 30301, Note_on_c, 1, 53, 0
3, 30355, Note_on_c, 1, 56, 0
3, 30359, Note_on_c, 1, 53, 42
3, 30363, Control_c, 1, 64, 0
3, 30383, Control_c, 1, 64, 127
3, 30415, Note_on_c, 1, 53, 0
3, 30418, Note_on_c, 1, 56, 26
3, 30475, Note_on_c, 1, 56, 0
3, 30478, Note_on_c, 1, 53, 40
3, 30539, Note_on_c, 1, 56, 35
3, 30542, Note_on_c, 1, 53, 0
3, 30549, Note_on_c, 1, 49, 0
3, 30572, Note_on_c, 1, 56, 0
3, 30602, Note_on_c, 1, 51, 43
3, 30602, Note_on_c, 1, 48, 47
3, 30605, Control_c, 1, 64, 0
3, 30633, Control_c, 1, 64, 127
3, 30659, Note_on_c, 1, 51, 0
3, 30661, Note_on_c, 1, 54, 39
3, 30680, Control_c, 1, 64, 0
3, 30709, Control_c, 1, 64, 127
3, 30722, Note_on_c, 1, 51, 45
3, 30724, Note_on_c, 1, 54, 0
3, 30734, Control_c, 1, 64, 0
3, 30763, Control_c, 1, 64, 127
3, 30778, Note_on_c, 1, 51, 0
3, 30781, Note_on_c, 1, 54, 38
3, 30836, Note_on_c, 1, 54, 0
3, 30841, Note_on_c, 1, 51, 45
3, 30844, Control_c, 1, 64, 0
3, 30865, Control_c, 1, 64, 127
3, 30898, Note_on_c, 1, 51, 0
3, 30899, Note_on_c, 1, 54, 38
3, 30902, Note_on_c, 1, 48, 0
3, 30942, Note_on_c, 1, 54, 0
3, 30957, Control_c, 1, 64, 0
3, 30959, Note_on_c, 1, 49, 46
3, 30960, Note_on_c, 1, 53, 46
3, 30995, Control_c, 1, 64, 127
3, 31017, Note_on_c, 1, 53, 0
3, 31021, Note_on_c, 1, 58, 36
3, 31074, Note_on_c, 1, 58, 0
3, 31079, Note_on_c, 1, 53, 43
3, 31083, Control_c, 1, 64, 0
3, 31106, Control_c, 1, 64, 127
3, 31134, Note_on_c, 1, 53, 0
3, 31138, Note_on_c, 1, 58, 30
3, 31201, Note_on_c, 1, 53, 47
3, 31204, Note_on_c, 1, 58, 0
3, 31214, Control_c, 1, 64, 0
3, 31236, Control_c, 1, 64, 127
3, 31259, Note_on_c, 1, 53, 0
3, 31261, Note_on_c, 1, 58, 41
3, 31268, Note_on_c, 1, 49, 0
3, 31281, Note_on_c, 1, 58, 0
3, 31322, Control_c, 1, 64, 0
3, 31322, Note_on_c, 1, 52, 52
3, 31322, Note_on_c, 1, 58, 33
3, 31358, Control_c, 1, 64, 127
3, 31375, Note_on_c, 1, 58, 0
3, 31381, Note_on_c, 1, 61, 40
3, 31436, Note_on_c, 1, 61, 0
3, 31440, Note_on_c, 1, 58, 41
3, 31447, Control_c, 1, 64, 0
3, 31467, Control_c, 1, 64, 127
3, 31494, Note_on_c, 1, 58, 0
3, 31499, Note_on_c, 1, 61, 35
3, 31557, Note_on_c, 1, 61, 0
3, 31558, Note_on_c, 1, 58, 43
3, 31561, Control_c, 1, 64, 0
3, 31577, Control_c, 1, 64, 127
3, 31614, Note_on_c, 1, 58, 0
3, 31618, Note_on_c, 1, 52, 0
3, 31618, Note_on_c, 1, 61, 43
3, 31645, Note_on_c, 1, 61, 0
3, 31676, Control_c, 1, 64, 0
3, 31678, Note_on_c, 1, 53, 46
3, 31679, Note_on_c, 1, 56, 50
3, 31707, Control_c, 1, 64, 127
3, 31738, Note_on_c, 1, 56, 0
3, 31739, Note_on_c, 1, 60, 40
3, 31800, Note_on_c, 1, 56, 47
3, 31802, Note_on_c, 1, 60, 0
3, 31806, Control_c, 1, 64, 0
3, 31825, Control_c, 1, 64, 127
3, 31854, Note_on_c, 1, 56, 0
3, 31859, Note_on_c, 1, 60, 40
3, 31916, Note_on_c, 1, 60, 0
3, 31919, Note_on_c, 1, 56, 40
3, 31928, Control_c, 1, 64, 0
3, 31947, Control_c, 1, 64, 127
3, 31979, Note_on_c, 1, 56, 0
3, 31979, Note_on_c, 1, 60, 50
3, 31990, Note_on_c, 1, 53, 0
3, 32000, Note_on_c, 1, 60, 0
3, 32039, Note_on_c, 1, 55, 41
3, 32040, Control_c, 1, 64, 0
3, 32041, Note_on_c, 1, 62, 46
3, 32070, Control_c, 1, 64, 127
3, 32097, Note_on_c, 1, 62, 0
3, 32099, Note_on_c, 1, 65, 49
3, 32159, Note_on_c, 1, 62, 45
3, 32161, Note_on_c, 1, 65, 0
3, 32216, Note_on_c, 1, 62, 0
3, 32219, Note_on_c, 1, 65, 42
3, 32275, Note_on_c, 1, 65, 0
3, 32280, Note_on_c, 1, 62, 40
3, 32338, Note_on_c, 1, 62, 0
3, 32339, Note_on_c, 1, 65, 49
3, 32342, Note_on_c, 1, 55, 0
3, 32369, Note_on_c, 1, 65, 0
3, 32400, Note_on_c, 1, 56, 43
3, 32400, Control_c, 1, 64, 0
3, 32401, Note_on_c, 1, 60, 52
3, 32436, Control_c, 1, 64, 127
3, 32461, Note_on_c, 1, 60, 0
3, 32461, Note_on_c, 1, 63, 39
3, 32521, Note_on_c, 1, 60, 46
3, 32523, Note_on_c, 1, 63, 0
3, 32575, Note_on_c, 1, 60, 0
3, 32580, Note_on_c, 1, 63, 35
3, 32634, Note_on_c, 1, 63, 0
3, 32640, Note_on_c, 1, 60, 46
3, 32699, Note_on_c, 1, 60, 0
3, 32699, Note_on_c, 1, 63, 32
3, 32713, Note_on_c, 1, 56, 0
3, 32723, Note_on_c, 1, 63, 0
3, 32759, Note_on_c, 1, 60, 46
3, 32759, Note_on_c, 1, 57, 46
3, 32760, Control_c, 1, 64, 0
3, 32793, Control_c, 1, 64, 127
3, 32821, Note_on_c, 1, 60, 0
3, 32821, Note_on_c, 1, 62, 36
3, 32871, Note_on_c, 1, 62, 0
3, 32879, Note_on_c, 1, 60, 46
3, 32888, Control_c, 1, 64, 0
3, 32910, Control_c, 1, 64, 127
3, 32941, Note_on_c, 1, 62, 49
3, 32946, Note_on_c, 1, 60, 0
3, 32995, Note_on_c, 1, 62, 0
3, 32999, Note_on_c, 1, 60, 49
3, 33058, Note_on_c, 1, 60, 0
3, 33060, Note_on_c, 1, 62, 47
3, 33070, Note_on_c, 1, 57, 0
3, 33073, Note_on_c, 1, 62, 0
3, 33119, Note_on_c, 1, 58, 40
3, 33119, Note_on_c, 1, 62, 54
3, 33120, Control_c, 1, 64, 0
3, 33150, Control_c, 1, 64, 127
3, 33177, Note_on_c, 1, 62, 0
3, 33179, Note_on_c, 1, 67, 41
3, 33236, Note_on_c, 1, 67, 0
3, 33238, Note_on_c, 1, 62, 52
3, 33295, Note_on_c, 1, 62, 0
3, 33299, Note_on_c, 1, 67, 36
3, 33356, Note_on_c, 1, 67, 0
3, 33358, Note_on_c, 1, 62, 50
3, 33414, Note_on_c, 1, 62, 0
3, 33418, Note_on_c, 1, 67, 45
3, 33442, Note_on_c, 1, 58, 0
3, 33449, Note_on_c, 1, 67, 0
3, 33478, Control_c, 1, 64, 0
3, 33479, Note_on_c, 1, 63, 46
3, 33479, Note_on_c, 1, 67, 41
3, 33502, Control_c, 1, 64, 127
3, 33514, Note_on_c, 1, 67, 0
3, 33539, Note_on_c, 1, 69, 34
3, 33595, Note_on_c, 1, 69, 0
3, 33600, Note_on_c, 1, 67, 20
3, 33601, Control_c, 1, 64, 0
3, 33619, Control_c, 1, 64, 127
3, 33655, Note_on_c, 1, 67, 0
3, 33659, Note_on_c, 1, 69, 43
3, 33716, Note_on_c, 1, 69, 0
3, 33719, Note_on_c, 1, 67, 41
3, 33774, Note_on_c, 1, 67, 0
3, 33779, Note_on_c, 1, 69, 50
3, 33782, Note_on_c, 1, 63, 0
3, 33798, Note_on_c, 1, 69, 0
3, 33837, Control_c, 1, 64, 0
3, 33838, Note_on_c, 1, 66, 66
3, 33838, Note_on_c, 1, 62, 75
3, 33840, Note_on_c, 1, 66, 62
3, 33840, Note_on_c, 1, 62, 83
3, 33897, Note_on_c, 1, 62, 0
3, 33899, Note_on_c, 1, 66, 0
3, 33982, Note_on_c, 1, 62, 0
3, 33984, Note_on_c, 1, 66, 0
3, 34081, Note_on_c, 1, 72, 83
3, 34202, Note_on_c, 1, 70, 79
3, 34210, Note_on_c, 1, 72, 0
3, 34319, Note_on_c, 1, 70, 0
3, 34321, Note_on_c, 1, 66, 79
3, 34438, Note_on_c, 1, 66, 0
3, 34441, Note_on_c, 1, 67, 88
3, 34562, Note_on_c, 1, 62, 83
3, 34564, Note_on_c, 1, 67, 0
3, 34685, Note_on_c, 1, 62, 0
3, 34801, Note_on_c, 1, 72, 92
3, 34921, Note_on_c, 1, 70, 83
3, 34922, Note_on_c, 1, 72, 0
3, 35042, Note_on_c, 1, 66, 79
3, 35046, Note_on_c, 1, 70, 0
3, 35159, Note_on_c, 1, 66, 0
3, 35161, Note_on_c, 1, 67, 83
3, 35279, Note_on_c, 1, 67, 0
3, 35281, Note_on_c, 1, 62, 83
3, 35401, Note_on_c, 1, 62, 0
3, 35549, Note_on_c, 1, 62, 83
3, 35579, Note_on_c, 1, 57, 79
3, 35582, Note_on_c, 1, 62, 0
3, 35609, Note_on_c, 1, 54, 66
3, 35610, Note_on_c, 1, 57, 0
3, 35638, Note_on_c, 1, 54, 0
3, 35639, Note_on_c, 1, 50, 79
3, 35754, Note_on_c, 1, 50, 0
3, 35759, Note_on_c, 1, 38, 83
3, 35890, Note_on_c, 1, 38, 0
3, 36002, Note_on_c, 1, 55, 49
3, 36238, Note_on_c, 1, 55, 0
3, 36241, Note_on_c, 1, 50, 45
3, 36361, Note_on_c, 1, 50, 0
3, 36361, Note_on_c, 1, 47, 43
3, 36597, Note_on_c, 1, 47, 0
3, 36598, Note_on_c, 1, 50, 62
3, 36718, Note_on_c, 1, 50, 0
3, 36721, Note_on_c, 1, 55, 54
3, 36960, Note_on_c, 1, 59, 70
3, 36961, Note_on_c, 1, 55, 0
3, 37080, Note_on_c, 1, 59, 0
3, 37082, Note_on_c, 1, 62, 50
3, 37213, Note_on_c, 1, 62, 0
3, 37440, Note_on_c, 1, 55, 52
3, 37683, Note_on_c, 1, 50, 47
3, 37700, Note_on_c, 1, 55, 0
3, 37801, Note_on_c, 1, 50, 0
3, 37802, Note_on_c, 1, 47, 47
3, 38023, Note_on_c, 1, 47, 0
3, 38037, Note_on_c, 1, 50, 66
3, 38160, Note_on_c, 1, 55, 66
3, 38169, Note_on_c, 1, 50, 0
3, 38402, Note_on_c, 1, 59, 66
3, 38410, Note_on_c, 1, 55, 0
3, 38522, Note_on_c, 1, 62, 54
3, 38523, Note_on_c, 1, 59, 0
3, 38648, Note_on_c, 1, 62, 0
3, 39621, Control_c, 1, 64, 127
3, 39659, Note_on_c, 1, 55, 50
3, 39691, Note_on_c, 1, 55, 0
3, 39719, Note_on_c, 1, 55, 58
3, 39757, Note_on_c, 1, 55, 0
3, 39778, Note_on_c, 1, 55, 62
3, 39810, Note_on_c, 1, 55, 0
3, 39838, Note_on_c, 1, 55, 70
3, 39868, Note_on_c, 1, 55, 0
3, 39899, Note_on_c, 1, 55, 75
3, 39936, Note_on_c, 1, 55, 0
3, 39961, Note_on_c, 1, 56, 75
3, 39969, Control_c, 1, 64, 0
3, 40021, Note_on_c, 1, 55, 62
3, 40022, Note_on_c, 1, 56, 0
3, 40081, Note_on_c, 1, 53, 50
3, 40084, Note_on_c, 1, 55, 0
3, 40137, Note_on_c, 1, 53, 0
3, 40139, Note_on_c, 1, 51, 47
3, 40199, Note_on_c, 1, 50, 52
3, 40200, Note_on_c, 1, 51, 0
3, 40254, Note_on_c, 1, 50, 0
3, 40258, Note_on_c, 1, 48, 50
3, 40277, Control_c, 1, 64, 127
3, 40303, Note_on_c, 1, 48, 0
3, 40309, Control_c, 1, 64, 0
3, 40319, Note_on_c, 1, 48, 62
3, 40332, Control_c, 1, 64, 127
3, 40371, Control_c, 1, 64, 0
3, 40379, Note_on_c, 1, 46, 70
3, 40381, Note_on_c, 1, 48, 0
3, 40426, Note_on_c, 1, 46, 0
3, 40441, Note_on_c, 1, 46, 50
3, 40566, Note_on_c, 1, 46, 0
3, 41050, Control_c, 1, 64, 127
3, 41099, Note_on_c, 1, 58, 52
3, 41100, Control_c, 1, 64, 0
3, 41115, Control_c, 1, 64, 127
3, 41146, Note_on_c, 1, 58, 0
3, 41159, Note_on_c, 1, 58, 62
3, 41197, Note_on_c, 1, 58, 0
3, 41219, Note_on_c, 1, 58, 66
3, 41252, Note_on_c, 1, 58, 0
3, 41279, Note_on_c, 1, 58, 70
3, 41301, Note_on_c, 1, 58, 0
3, 41338, Note_on_c, 1, 58, 70
3, 41372, Note_on_c, 1, 58, 0
3, 41396, Control_c, 1, 64, 0
3, 41399, Note_on_c, 1, 60, 79
3, 41419, Control_c, 1, 64, 127
3, 41453, Control_c, 1, 64, 0
3, 41459, Note_on_c, 1, 58, 52
3, 41464, Note_on_c, 1, 60, 0
3, 41519, Note_on_c, 1, 56, 66
3, 41520, Note_on_c, 1, 58, 0
3, 41576, Note_on_c, 1, 56, 0
3, 41579, Note_on_c, 1, 55, 54
3, 41638, Note_on_c, 1, 53, 62
3, 41639, Note_on_c, 1, 55, 0
3, 41694, Note_on_c, 1, 53, 0
3, 41697, Note_on_c, 1, 52, 46
3, 41758, Note_on_c, 1, 53, 58
3, 41760, Note_on_c, 1, 52, 0
3, 41909, Note_on_c, 1, 53, 0
3, 42024, Control_c, 1, 64, 127
3, 42118, Control_c, 1, 64, 0
3, 42121, Note_on_c, 1, 58, 41
3, 42121, Note_on_c, 1, 65, 45
3, 42121, Note_on_c, 1, 62, 50
3, 42153, Control_c, 1, 64, 127
3, 42191, Note_on_c, 1, 62, 0
3, 42191, Note_on_c, 1, 65, 0
3, 42240, Control_c, 1, 64, 0
3, 42241, Note_on_c, 1, 63, 50
3, 42241, Note_on_c, 1, 67, 45
3, 42264, Control_c, 1, 64, 127
3, 42280, Note_on_c, 1, 63, 0
3, 42289, Note_on_c, 1, 67, 0
3, 42359, Control_c, 1, 64, 0
3, 42361, Note_on_c, 1, 65, 54
3, 42361, Note_on_c, 1, 68, 50
3, 42383, Control_c, 1, 64, 127
3, 42412, Note_on_c, 1, 65, 0
3, 42420, Note_on_c, 1, 68, 0
3, 42452, Note_on_c, 1, 58, 0
3, 42482, Note_on_c, 1, 67, 46
3, 42482, Note_on_c, 1, 63, 49
3, 42484, Control_c, 1, 64, 0
3, 42518, Control_c, 1, 64, 127
3, 42604, Note_on_c, 1, 67, 0
3, 42607, Note_on_c, 1, 63, 0
3, 42612, Control_c, 1, 64, 0
3, 42839, Note_on_c, 1, 63, 47
3, 42839, Note_on_c, 1, 56, 52
3, 42839, Note_on_c, 1, 60, 70
3, 42853, Control_c, 1, 64, 127
3, 42893, Note_on_c, 1, 63, 0
3, 42897, Note_on_c, 1, 60, 0
3, 42957, Control_c, 1, 64, 0
3, 42959, Note_on_c, 1, 62, 62
3, 42959, Note_on_c, 1, 65, 52
3, 42987, Control_c, 1, 64, 127
3, 43019, Note_on_c, 1, 62, 0
3, 43020, Note_on_c, 1, 65, 0
3, 43075, Control_c, 1, 64, 0
3, 43079, Note_on_c, 1, 63, 52
3, 43080, Note_on_c, 1, 67, 47
3, 43106, Control_c, 1, 64, 127
3, 43143, Note_on_c, 1, 67, 0
3, 43143, Note_on_c, 1, 63, 0
3, 43190, Note_on_c, 1, 56, 0
3, 43201, Note_on_c, 1, 62, 50
3, 43202, Note_on_c, 1, 65, 50
3, 43206, Control_c, 1, 64, 0
3, 43313, Note_on_c, 1, 65, 0
3, 43316, Note_on_c, 1, 62, 0
3, 43561, Note_on_c, 1, 59, 52
3, 43561, Note_on_c, 1, 55, 50
3, 43561, Note_on_c, 1, 62, 50
3, 43578, Control_c, 1, 64, 127
3, 43614, Note_on_c, 1, 62, 0
3, 43616, Note_on_c, 1, 59, 0
3, 43677, Control_c, 1, 64, 0
3, 43681, Note_on_c, 1, 63, 47
3, 43681, Note_on_c, 1, 60, 62
3, 43701, Control_c, 1, 64, 127
3, 43723, Note_on_c, 1, 60, 0
3, 43726, Note_on_c, 1, 63, 0
3, 43795, Control_c, 1, 64, 0
3, 43801, Note_on_c, 1, 65, 47
3, 43801, Note_on_c, 1, 62, 58
3, 43822, Control_c, 1, 64, 127
3, 43850, Note_on_c, 1, 65, 0
3, 43851, Note_on_c, 1, 62, 0
3, 43854, Note_on_c, 1, 55, 0
3, 43920, Control_c, 1, 64, 0
3, 43922, Note_on_c, 1, 60, 52
3, 43922, Note_on_c, 1, 63, 45
3, 43947, Control_c, 1, 64, 127
3, 44037, Note_on_c, 1, 60, 0
3, 44038, Note_on_c, 1, 63, 0
3, 44050, Control_c, 1, 64, 0
3, 44161, Note_on_c, 1, 53, 66
3, 44161, Note_on_c, 1, 63, 49
3, 44172, Control_c, 1, 64, 127
3, 44213, Note_on_c, 1, 53, 0
3, 44219, Note_on_c, 1, 63, 0
3, 44281, Note_on_c, 1, 55, 54
3, 44281, Note_on_c, 1, 62, 50
3, 44284, Control_c, 1, 64, 0
3, 44312, Control_c, 1, 64, 127
3, 44404, Note_on_c, 1, 55, 0
3, 44405, Note_on_c, 1, 62, 0
3, 44412, Control_c, 1, 64, 0
3, 44519, Note_on_c, 1, 70, 46
3, 44520, Note_on_c, 1, 67, 52
3, 44535, Control_c, 1, 64, 127
3, 44607, Note_on_c, 1, 67, 0
3, 44607, Note_on_c, 1, 70, 0
3, 44646, Control_c, 1, 64, 0
3, 44685, Control_c, 1, 64, 127
3, 44699, Note_on_c, 1, 65, 52
3, 44748, Note_on_c, 1, 65, 0
3, 44759, Note_on_c, 1, 65, 62
3, 44804, Note_on_c, 1, 65, 0
3, 44819, Note_on_c, 1, 65, 70
3, 44864, Note_on_c, 1, 65, 0
3, 44879, Note_on_c, 1, 65, 66
3, 44932, Note_on_c, 1, 65, 0
3, 44941, Note_on_c, 1, 65, 66
3, 45001, Note_on_c, 1, 66, 70
3, 45003, Note_on_c, 1, 65, 0
3, 45008, Control_c, 1, 64, 0
3, 45040, Control_c, 1, 64, 127
3, 45059, Control_c, 1, 64, 0
3, 45060, Note_on_c, 1, 65, 70
3, 45067, Note_on_c, 1, 66, 0
3, 45119, Note_on_c, 1, 63, 52
3, 45121, Note_on_c, 1, 65, 0
3, 45177, Note_on_c, 1, 63, 0
3, 45179, Note_on_c, 1, 61, 52
3, 45239, Note_on_c, 1, 61, 0
3, 45239, Note_on_c, 1, 60, 62
3, 45299, Note_on_c, 1, 58, 52
3, 45300, Note_on_c, 1, 60, 0
3, 45322, Control_c, 1, 64, 127
3, 45357, Note_on_c, 1, 58, 0
3, 45370, Control_c, 1, 64, 0
3, 45418, Note_on_c, 1, 53, 49
3, 45426, Control_c, 1, 64, 127
3, 45466, Note_on_c, 1, 53, 0
3, 45478, Note_on_c, 1, 53, 62
3, 45526, Note_on_c, 1, 53, 0
3, 45538, Note_on_c, 1, 53, 66
3, 45582, Note_on_c, 1, 53, 0
3, 45598, Note_on_c, 1, 53, 75
3, 45645, Note_on_c, 1, 53, 0
3, 45658, Note_on_c, 1, 53, 62
3, 45718, Note_on_c, 1, 53, 0
3, 45719, Note_on_c, 1, 54, 66
3, 45727, Control_c, 1, 64, 0
3, 45779, Note_on_c, 1, 54, 0
3, 45779, Note_on_c, 1, 53, 66
3, 45841, Note_on_c, 1, 51, 58
3, 45843, Note_on_c, 1, 53, 0
3, 45897, Note_on_c, 1, 51, 0
3, 45899, Note_on_c, 1, 49, 75
3, 45958, Note_on_c, 1, 49, 0
3, 45959, Note_on_c, 1, 48, 62
3, 45986, Control_c, 1, 64, 127
3, 46001, Control_c, 1, 64, 0
3, 46019, Note_on_c, 1, 46, 75
3, 46021, Note_on_c, 1, 48, 0
3, 46081, Note_on_c, 1, 46, 0
3, 46081, Note_on_c, 1, 41, 50
3, 46210, Note_on_c, 1, 41, 0
3, 46441, Note_on_c, 1, 63, 70
3, 46441, Note_on_c, 1, 57, 79
3, 46441, Note_on_c, 1, 53, 70
3, 46471, Control_c, 1, 64, 127
3, 47288, Control_c, 1, 64, 0
3, 47289, Note_on_c, 1, 53, 0
3, 47291, Note_on_c, 1, 57, 0
3, 47294, Note_on_c, 1, 63, 0
3, 47521, Note_on_c, 1, 58, 50
3, 47546, Control_c, 1, 64, 127
3, 47703, Note_on_c, 1, 58, 0
3, 47759, Note_on_c, 1, 53, 50
3, 47766, Control_c, 1, 64, 0
3, 47791, Control_c, 1, 64, 127
3, 47840, Note_on_c, 1, 53, 0
3, 47877, Control_c, 1, 64, 0
3, 47878, Note_on_c, 1, 50, 50
3, 47901, Control_c, 1, 64, 127
3, 48087, Note_on_c, 1, 50, 0
3, 48117, Control_c, 1, 64, 0
3, 48119, Note_on_c, 1, 53, 58
3, 48138, Control_c, 1, 64, 127
3, 48225, Note_on_c, 1, 53, 0
3, 48234, Control_c, 1, 64, 0
3, 48238, Note_on_c, 1, 58, 62
3, 48260, Control_c, 1, 64, 127
3, 48410, Note_on_c, 1, 58, 0
3, 48479, Note_on_c, 1, 62, 66
3, 48483, Control_c, 1, 64, 0
3, 48507, Control_c, 1, 64, 127
3, 48543, Note_on_c, 1, 62, 0
3, 48600, Note_on_c, 1, 65, 62
3, 48602, Control_c, 1, 64, 0
3, 48621, Control_c, 1, 64, 127
3, 48841, Note_on_c, 1, 65, 0
3, 48845, Control_c, 1, 64, 0
3, 48961, Note_on_c, 1, 63, 50
3, 48961, Note_on_c, 1, 53, 66
3, 48961, Note_on_c, 1, 60, 62
3, 48976, Control_c, 1, 64, 127
3, 49605, Note_on_c, 1, 60, 0
3, 49606, Note_on_c, 1, 53, 0
3, 49610, Note_on_c, 1, 63, 0
3, 49679, Note_on_c, 1, 62, 49
3, 49679, Note_on_c, 1, 58, 47
3, 49680, Control_c, 1, 64, 0
3, 49703, Control_c, 1, 64, 127
3, 49811, Control_c, 1, 64, 0
3, 49815, Note_on_c, 1, 62, 0
3, 49818, Note_on_c, 1, 58, 0
3, 50399, Note_on_c, 1, 63, 39
3, 50399, Note_on_c, 1, 53, 52
3, 50399, Note_on_c, 1, 60, 54
3, 50412, Control_c, 1, 64, 127
3, 51029, Note_on_c, 1, 60, 0
3, 51030, Note_on_c, 1, 53, 0
3, 51031, Note_on_c, 1, 63, 0
3, 51106, Control_c, 1, 64, 0
3, 51120, Note_on_c, 1, 62, 41
3, 51120, Note_on_c, 1, 58, 41
3, 51132, Control_c, 1, 64, 127
3, 51188, Note_on_c, 1, 58, 0
3, 51190, Note_on_c, 1, 62, 0
3, 51193, Control_c, 1, 64, 0
3, 51241, Note_on_c, 1, 62, 47
3, 51241, Note_on_c, 1, 58, 46
3, 51246, Control_c, 1, 64, 127
3, 51297, Note_on_c, 1, 58, 0
3, 51301, Note_on_c, 1, 62, 0
3, 51310, Control_c, 1, 64, 0
3, 51363, Note_on_c, 1, 65, 49
3, 51363, Note_on_c, 1, 58, 43
3, 51376, Control_c, 1, 64, 127
3, 51409, Note_on_c, 1, 58, 0
3, 51412, Note_on_c, 1, 65, 0
3, 51434, Control_c, 1, 64, 0
3, 51482, Note_on_c, 1, 62, 54
3, 51482, Note_on_c, 1, 58, 41
3, 51490, Control_c, 1, 64, 127
3, 51550, Note_on_c, 1, 62, 0
3, 51561, Note_on_c, 1, 58, 0
3, 51612, Control_c, 1, 64, 0
3, 51957, Control_c, 1, 64, 127
3, 51959, Note_on_c, 1, 51, 50
3, 51959, Note_on_c, 1, 55, 70
3, 51959, Note_on_c, 1, 58, 49
3, 52089, Control_c, 1, 64, 0
3, 52095, Note_on_c, 1, 55, 0
3, 52096, Note_on_c, 1, 58, 0
3, 52098, Note_on_c, 1, 51, 0
3, 52322, Note_on_c, 1, 58, 52
3, 52322, Note_on_c, 1, 50, 70
3, 52322, Note_on_c, 1, 53, 75
3, 52332, Control_c, 1, 64, 127
3, 52464, Note_on_c, 1, 53, 0
3, 52466, Note_on_c, 1, 50, 0
3, 52466, Note_on_c, 1, 58, 0
3, 52471, Control_c, 1, 64, 0
3, 52561, Note_on_c, 1, 57, 66
3, 52561, Note_on_c, 1, 65, 52
3, 52572, Control_c, 1, 64, 127
3, 52915, Note_on_c, 1, 57, 0
3, 52921, Note_on_c, 1, 58, 31
3, 52930, Control_c, 1, 64, 0
3, 53056, Note_on_c, 1, 65, 0
3, 53057, Note_on_c, 1, 58, 0
3, 53398, Note_on_c, 1, 51, 52
3, 53398, Note_on_c, 1, 58, 52
3, 53399, Note_on_c, 1, 55, 66
3, 53533, Note_on_c, 1, 55, 0
3, 53534, Note_on_c, 1, 58, 0
3, 53537, Note_on_c, 1, 51, 0
3, 53758, Note_on_c, 1, 50, 62
3, 53758, Note_on_c, 1, 53, 70
3, 53758, Note_on_c, 1, 58, 52
3, 53778, Control_c, 1, 64, 127
3, 53885, Control_c, 1, 64, 0
3, 53895, Note_on_c, 1, 53, 0
3, 53895, Note_on_c, 1, 50, 0
3, 53896, Note_on_c, 1, 58, 0
3, 54001, Note_on_c, 1, 57, 52
3, 54001, Note_on_c, 1, 53, 47
3, 54018, Control_c, 1, 64, 127
3, 54113, Note_on_c, 1, 57, 0
3, 54121, Note_on_c, 1, 60, 49
3, 54125, Control_c, 1, 64, 0
3, 54150, Control_c, 1, 64, 127
3, 54234, Note_on_c, 1, 60, 0
3, 54235, Control_c, 1, 64, 0
3, 54239, Note_on_c, 1, 63, 46
3, 54259, Control_c, 1, 64, 127
3, 54296, Note_on_c, 1, 53, 0
3, 54302, Note_on_c, 1, 63, 0
3, 54358, Control_c, 1, 64, 0
3, 54361, Note_on_c, 1, 58, 49
3, 54361, Note_on_c, 1, 62, 50
3, 54381, Control_c, 1, 64, 127
3, 54496, Note_on_c, 1, 62, 0
3, 54497, Note_on_c, 1, 58, 0
3, 54500, Control_c, 1, 64, 0
3, 54721, Note_on_c, 1, 55, 79
3, 54840, Note_on_c, 1, 55, 0
3, 54841, Note_on_c, 1, 43, 79
3, 54954, Note_on_c, 1, 43, 0
3, 55078, Note_on_c, 1, 50, 75
3, 55201, Note_on_c, 1, 38, 79
3, 55208, Note_on_c, 1, 50, 0
3, 55314, Note_on_c, 1, 38, 0
3, 55438, Note_on_c, 1, 51, 42
3, 55438, Note_on_c, 1, 55, 41
3, 55441, Control_c, 1, 64, 127
3, 55501, Note_on_c, 1, 58, 42
3, 55509, Note_on_c, 1, 55, 0
3, 55560, Note_on_c, 1, 58, 0
3, 55561, Note_on_c, 1, 55, 47
3, 55615, Note_on_c, 1, 55, 0
3, 55619, Note_on_c, 1, 58, 38
3, 55675, Note_on_c, 1, 58, 0
3, 55679, Note_on_c, 1, 55, 42
3, 55740, Note_on_c, 1, 58, 36
3, 55744, Note_on_c, 1, 55, 0
3, 55754, Note_on_c, 1, 51, 0
3, 55793, Note_on_c, 1, 58, 0
3, 55801, Note_on_c, 1, 50, 52
3, 55801, Note_on_c, 1, 56, 40
3, 55808, Control_c, 1, 64, 0
3, 55838, Control_c, 1, 64, 127
3, 55860, Note_on_c, 1, 56, 0
3, 55860, Note_on_c, 1, 58, 40
3, 55920, Note_on_c, 1, 56, 45
3, 55923, Note_on_c, 1, 58, 0
3, 55925, Control_c, 1, 64, 0
3, 55941, Control_c, 1, 64, 127
3, 55979, Note_on_c, 1, 58, 41
3, 55980, Note_on_c, 1, 56, 0
3, 56039, Note_on_c, 1, 58, 0
3, 56040, Note_on_c, 1, 56, 47
3, 56044, Control_c, 1, 64, 0
3, 56059, Control_c, 1, 64, 127
3, 56099, Note_on_c, 1, 58, 41
3, 56100, Note_on_c, 1, 56, 0
3, 56100, Note_on_c, 1, 50, 0
3, 56149, Note_on_c, 1, 58, 0
3, 56159, Note_on_c, 1, 51, 50
3, 56161, Note_on_c, 1, 55, 54
3, 56164, Control_c, 1, 64, 0
3, 56192, Control_c, 1, 64, 127
3, 56220, Note_on_c, 1, 55, 0
3, 56220, Note_on_c, 1, 58, 41
3, 56281, Note_on_c, 1, 55, 47
3, 56284, Note_on_c, 1, 58, 0
3, 56338, Note_on_c, 1, 55, 0
3, 56341, Note_on_c, 1, 58, 42
3, 56401, Note_on_c, 1, 55, 52
3, 56403, Note_on_c, 1, 58, 0
3, 56460, Note_on_c, 1, 55, 0
3, 56461, Note_on_c, 1, 58, 37
3, 56469, Note_on_c, 1, 51, 0
3, 56489, Note_on_c, 1, 58, 0
3, 56521, Note_on_c, 1, 50, 58
3, 56521, Note_on_c, 1, 56, 46
3, 56528, Control_c, 1, 64, 0
3, 56559, Control_c, 1, 64, 127
3, 56581, Note_on_c, 1, 58, 41
3, 56584, Note_on_c, 1, 56, 0
3, 56641, Note_on_c, 1, 56, 46
3, 56642, Note_on_c, 1, 58, 0
3, 56699, Note_on_c, 1, 58, 42
3, 56700, Note_on_c, 1, 56, 0
3, 56754, Note_on_c, 1, 58, 0
3, 56759, Note_on_c, 1, 56, 50
3, 56814, Note_on_c, 1, 50, 0
3, 56819, Note_on_c, 1, 56, 0
3, 56819, Note_on_c, 1, 58, 37
3, 56850, Note_on_c, 1, 58, 0
3, 56879, Note_on_c, 1, 51, 46
3, 56879, Note_on_c, 1, 55, 50
3, 56880, Control_c, 1, 64, 0
3, 56910, Control_c, 1, 64, 127
3, 56939, Note_on_c, 1, 58, 42
3, 56940, Note_on_c, 1, 55, 0
3, 56997, Note_on_c, 1, 58, 0
3, 56999, Note_on_c, 1, 55, 42
3, 57053, Note_on_c, 1, 55, 0
3, 57058, Note_on_c, 1, 58, 35
3, 57110, Note_on_c, 1, 58, 0
3, 57118, Note_on_c, 1, 55, 47
3, 57180, Note_on_c, 1, 58, 36
3, 57183, Note_on_c, 1, 55, 0
3, 57189, Note_on_c, 1, 51, 0
3, 57216, Note_on_c, 1, 58, 0
3, 57242, Note_on_c, 1, 50, 54
3, 57242, Note_on_c, 1, 53, 52
3, 57254, Control_c, 1, 64, 0
3, 57288, Control_c, 1, 64, 127
3, 57300, Note_on_c, 1, 53, 0
3, 57301, Note_on_c, 1, 56, 41
3, 57360, Note_on_c, 1, 56, 0
3, 57361, Note_on_c, 1, 53, 54
3, 57366, Control_c, 1, 64, 0
3, 57383, Control_c, 1, 64, 127
3, 57420, Note_on_c, 1, 56, 45
3, 57421, Note_on_c, 1, 53, 0
3, 57478, Note_on_c, 1, 56, 0
3, 57479, Note_on_c, 1, 53, 66
3, 57534, Note_on_c, 1, 50, 0
3, 57537, Note_on_c, 1, 53, 0
3, 57539, Note_on_c, 1, 56, 49
3, 57560, Note_on_c, 1, 56, 0
3, 57599, Note_on_c, 1, 51, 52
3, 57599, Note_on_c, 1, 55, 66
3, 57601, Control_c, 1, 64, 0
3, 57630, Control_c, 1, 64, 127
3, 57659, Note_on_c, 1, 55, 0
3, 57659, Note_on_c, 1, 60, 49
3, 57720, Note_on_c, 1, 55, 52
3, 57723, Note_on_c, 1, 60, 0
3, 57778, Note_on_c, 1, 55, 0
3, 57779, Note_on_c, 1, 60, 49
3, 57833, Note_on_c, 1, 60, 0
3, 57839, Note_on_c, 1, 55, 50
3, 57897, Note_on_c, 1, 55, 0
3, 57899, Note_on_c, 1, 60, 52
3, 57902, Note_on_c, 1, 51, 0
3, 57926, Note_on_c, 1, 60, 0
3, 57961, Note_on_c, 1, 54, 50
3, 57961, Note_on_c, 1, 60, 54
3, 57972, Control_c, 1, 64, 0
3, 57998, Control_c, 1, 64, 127
3, 58020, Note_on_c, 1, 60, 0
3, 58021, Note_on_c, 1, 63, 45
3, 58081, Note_on_c, 1, 63, 0
3, 58081, Note_on_c, 1, 60, 54
3, 58140, Note_on_c, 1, 60, 0
3, 58140, Note_on_c, 1, 63, 46
3, 58195, Note_on_c, 1, 63, 0
3, 58199, Note_on_c, 1, 60, 50
3, 58257, Note_on_c, 1, 60, 0
3, 58259, Note_on_c, 1, 63, 45
3, 58260, Note_on_c, 1, 54, 0
3, 58281, Note_on_c, 1, 63, 0
3, 58319, Note_on_c, 1, 55, 54
3, 58319, Note_on_c, 1, 58, 50
3, 58321, Control_c, 1, 64, 0
3, 58350, Control_c, 1, 64, 127
3, 58379, Note_on_c, 1, 62, 52
3, 58380, Note_on_c, 1, 58, 0
3, 58439, Note_on_c, 1, 58, 49
3, 58440, Note_on_c, 1, 62, 0
3, 58494, Note_on_c, 1, 58, 0
3, 58499, Note_on_c, 1, 62, 50
3, 58558, Note_on_c, 1, 62, 0
3, 58559, Note_on_c, 1, 58, 43
3, 58619, Note_on_c, 1, 58, 0
3, 58619, Note_on_c, 1, 62, 58
3, 58633, Note_on_c, 1, 55, 0
3, 58660, Note_on_c, 1, 62, 0
3, 58675, Control_c, 1, 64, 0
3, 58679, Note_on_c, 1, 60, 50
3, 58681, Note_on_c, 1, 67, 58
3, 58697, Control_c, 1, 64, 127
3, 58723, Note_on_c, 1, 60, 0
3, 58741, Note_on_c, 1, 67, 0
3, 58741, Note_on_c, 1, 70, 47
3, 58777, Note_on_c, 1, 70, 0
3, 58801, Note_on_c, 1, 67, 62
3, 58833, Note_on_c, 1, 67, 0
3, 58861, Note_on_c, 1, 70, 45
3, 58905, Note_on_c, 1, 70, 0
3, 58921, Note_on_c, 1, 67, 66
3, 58967, Note_on_c, 1, 67, 0
3, 58980, Note_on_c, 1, 70, 46
3, 59002, Note_on_c, 1, 70, 0
3, 59041, Note_on_c, 1, 69, 62
3, 59041, Note_on_c, 1, 65, 58
3, 59051, Control_c, 1, 64, 0
3, 59166, Note_on_c, 1, 65, 0
3, 59171, Note_on_c, 1, 69, 0
3, 59281, Note_on_c, 1, 75, 75
3, 59401, Note_on_c, 1, 74, 79
3, 59402, Note_on_c, 1, 75, 0
3, 59521, Note_on_c, 1, 69, 79
3, 59523, Note_on_c, 1, 74, 0
3, 59642, Note_on_c, 1, 70, 70
3, 59648, Note_on_c, 1, 69, 0
3, 59762, Note_on_c, 1, 65, 66
3, 59765, Note_on_c, 1, 70, 0
3, 59893, Note_on_c, 1, 65, 0
3, 60002, Note_on_c, 1, 75, 92
3, 60118, Note_on_c, 1, 75, 0
3, 60121, Note_on_c, 1, 74, 83
3, 60241, Note_on_c, 1, 69, 79
3, 60242, Note_on_c, 1, 74, 0
3, 60361, Note_on_c, 1, 70, 79
3, 60365, Note_on_c, 1, 69, 0
3, 60480, Note_on_c, 1, 70, 0
3, 60481, Note_on_c, 1, 65, 66
3, 60608, Note_on_c, 1, 65, 0
3, 60750, Note_on_c, 1, 65, 79
3, 60781, Note_on_c, 1, 60, 62
3, 60785, Note_on_c, 1, 65, 0
3, 60811, Note_on_c, 1, 57, 70
3, 60812, Note_on_c, 1, 60, 0
3, 60841, Note_on_c, 1, 57, 0
3, 60841, Note_on_c, 1, 53, 70
3, 60953, Note_on_c, 1, 53, 0
3, 60959, Note_on_c, 1, 41, 75
3, 61093, Note_on_c, 1, 41, 0
3, 61201, Note_on_c, 1, 58, 52
3, 61342, Control_c, 1, 64, 127
3, 61391, Note_on_c, 1, 58, 0
3, 61443, Note_on_c, 1, 53, 45
3, 61459, Control_c, 1, 64, 0
3, 61486, Control_c, 1, 64, 127
3, 61512, Note_on_c, 1, 53, 0
3, 61561, Note_on_c, 1, 50, 52
3, 61566, Control_c, 1, 64, 0
3, 61594, Control_c, 1, 64, 127
3, 61714, Note_on_c, 1, 50, 0
3, 61789, Control_c, 1, 64, 0
3, 61797, Note_on_c, 1, 53, 62
3, 61814, Control_c, 1, 64, 127
3, 61888, Note_on_c, 1, 53, 0
3, 61921, Note_on_c, 1, 58, 52
3, 61926, Control_c, 1, 64, 0
3, 61952, Control_c, 1, 64, 127
3, 62098, Note_on_c, 1, 58, 0
3, 62161, Note_on_c, 1, 62, 62
3, 62173, Control_c, 1, 64, 0
3, 62198, Control_c, 1, 64, 127
3, 62277, Note_on_c, 1, 62, 0
3, 62280, Note_on_c, 1, 65, 66
3, 62289, Control_c, 1, 64, 0
3, 62319, Control_c, 1, 64, 127
3, 62443, Note_on_c, 1, 65, 0
3, 62450, Control_c, 1, 64, 0
3, 62640, Note_on_c, 1, 51, 52
3, 62882, Note_on_c, 1, 48, 54
3, 62887, Note_on_c, 1, 51, 0
3, 62916, Control_c, 1, 64, 127
3, 62995, Control_c, 1, 64, 0
3, 63002, Note_on_c, 1, 45, 58
3, 63006, Note_on_c, 1, 48, 0
3, 63047, Control_c, 1, 64, 127
3, 63239, Note_on_c, 1, 45, 0
3, 63241, Control_c, 1, 64, 0
3, 63241, Note_on_c, 1, 48, 62
3, 63274, Control_c, 1, 64, 127
3, 63361, Note_on_c, 1, 51, 58
3, 63363, Note_on_c, 1, 48, 0
3, 63365, Control_c, 1, 64, 0
3, 63392, Control_c, 1, 64, 127
3, 63594, Note_on_c, 1, 51, 0
3, 63599, Note_on_c, 1, 57, 62
3, 63599, Control_c, 1, 64, 0
3, 63624, Control_c, 1, 64, 127
3, 63719, Note_on_c, 1, 60, 50
3, 63721, Control_c, 1, 64, 0
3, 63722, Note_on_c, 1, 57, 0
3, 63748, Control_c, 1, 64, 127
3, 63850, Control_c, 1, 64, 0
3, 63858, Note_on_c, 1, 60, 0
3, 64080, Note_on_c, 1, 62, 41
3, 64093, Control_c, 1, 64, 127
3, 64141, Note_on_c, 1, 65, 46
3, 64143, Note_on_c, 1, 62, 0
3, 64200, Note_on_c, 1, 65, 0
3, 64201, Note_on_c, 1, 62, 43
3, 64260, Note_on_c, 1, 62, 0
3, 64261, Note_on_c, 1, 65, 40
3, 64319, Note_on_c, 1, 65, 0
3, 64320, Note_on_c, 1, 62, 47
3, 64376, Note_on_c, 1, 62, 0
3, 64379, Note_on_c, 1, 65, 47
3, 64440, Note_on_c, 1, 63, 49
3, 64443, Note_on_c, 1, 65, 0
3, 64447, Control_c, 1, 64, 0
3, 64474, Control_c, 1, 64, 127
3, 64501, Note_on_c, 1, 65, 41
3, 64505, Note_on_c, 1, 63, 0
3, 64561, Note_on_c, 1, 65, 0
3, 64561, Note_on_c, 1, 63, 43
3, 64621, Note_on_c, 1, 63, 0
3, 64621, Note_on_c, 1, 65, 42
3, 64681, Note_on_c, 1, 63, 45
3, 64684, Note_on_c, 1, 65, 0
3, 64693, Control_c, 1, 64, 0
3, 64707, Control_c, 1, 64, 127
3, 64739, Note_on_c, 1, 63, 0
3, 64740, Note_on_c, 1, 65, 46
3, 64800, Note_on_c, 1, 65, 0
3, 64800, Note_on_c, 1, 62, 52
3, 64807, Control_c, 1, 64, 0
3, 64828, Control_c, 1, 64, 127
3, 64861, Note_on_c, 1, 65, 42
3, 64865, Note_on_c, 1, 62, 0
3, 64919, Note_on_c, 1, 62, 45
3, 64920, Note_on_c, 1, 65, 0
3, 64979, Note_on_c, 1, 62, 0
3, 64980, Note_on_c, 1, 65, 43
3, 65039, Note_on_c, 1, 65, 0
3, 65039, Note_on_c, 1, 62, 45
3, 65097, Note_on_c, 1, 62, 0
3, 65099, Note_on_c, 1, 65, 45
3, 65158, Note_on_c, 1, 65, 0
3, 65159, Note_on_c, 1, 63, 46
3, 65161, Control_c, 1, 64, 0
3, 65185, Control_c, 1, 64, 127
3, 65221, Note_on_c, 1, 65, 46
3, 65223, Note_on_c, 1, 63, 0
3, 65281, Note_on_c, 1, 63, 45
3, 65284, Note_on_c, 1, 65, 0
3, 65289, Control_c, 1, 64, 0
3, 65306, Control_c, 1, 64, 127
3, 65340, Note_on_c, 1, 65, 45
3, 65341, Note_on_c, 1, 63, 0
3, 65401, Note_on_c, 1, 63, 52
3, 65405, Note_on_c, 1, 65, 0
3, 65410, Control_c, 1, 64, 0
3, 65428, Control_c, 1, 64, 127
3, 65457, Note_on_c, 1, 63, 0
3, 65459, Note_on_c, 1, 65, 47
3, 65519, Control_c, 1, 64, 0
3, 65519, Note_on_c, 1, 61, 47
3, 65521, Note_on_c, 1, 65, 0
3, 65538, Control_c, 1, 64, 127
3, 65576, Note_on_c, 1, 61, 0
3, 65579, Note_on_c, 1, 65, 42
3, 65639, Note_on_c, 1, 61, 46
3, 65640, Note_on_c, 1, 65, 0
3, 65697, Note_on_c, 1, 61, 0
3, 65699, Note_on_c, 1, 65, 41
3, 65760, Note_on_c, 1, 61, 50
3, 65761, Note_on_c, 1, 65, 0
3, 65818, Note_on_c, 1, 61, 0
3, 65819, Note_on_c, 1, 65, 54
3, 65862, Note_on_c, 1, 65, 0
3, 65879, Note_on_c, 1, 55, 54
3, 65879, Note_on_c, 1, 62, 52
3, 65886, Control_c, 1, 64, 0
3, 65913, Control_c, 1, 64, 127
3, 65941, Note_on_c, 1, 65, 54
3, 65942, Note_on_c, 1, 62, 0
3, 66000, Note_on_c, 1, 65, 0
3, 66000, Note_on_c, 1, 62, 62
3, 66061, Note_on_c, 1, 65, 54
3, 66062, Note_on_c, 1, 62, 0
3, 66115, Note_on_c, 1, 65, 0
3, 66119, Note_on_c, 1, 62, 66
3, 66176, Note_on_c, 1, 62, 0
3, 66179, Note_on_c, 1, 65, 62
3, 66186, Note_on_c, 1, 55, 0
3, 66211, Note_on_c, 1, 65, 0
3, 66239, Note_on_c, 1, 63, 50
3, 66239, Note_on_c, 1, 60, 58
3, 66240, Control_c, 1, 64, 0
3, 66262, Control_c, 1, 64, 127
3, 66326, Note_on_c, 1, 60, 0
3, 66334, Note_on_c, 1, 63, 0
3, 66361, Note_on_c, 1, 57, 70
3, 66361, Note_on_c, 1, 65, 62
3, 66371, Control_c, 1, 64, 0
3, 66393, Control_c, 1, 64, 127
3, 66448, Note_on_c, 1, 57, 0
3, 66482, Note_on_c, 1, 58, 52
3, 66486, Control_c, 1, 64, 0
3, 66505, Control_c, 1, 64, 127
3, 66536, Note_on_c, 1, 58, 0
3, 66536, Note_on_c, 1, 65, 0
3, 66600, Note_on_c, 1, 51, 66
3, 66600, Control_c, 1, 64, 0
3, 66600, Note_on_c, 1, 63, 52
3, 66621, Control_c, 1, 64, 127
3, 66659, Note_on_c, 1, 51, 0
3, 66664, Note_on_c, 1, 63, 0
3, 66726, Note_on_c, 1, 53, 70
3, 66727, Note_on_c, 1, 62, 62
3, 66731, Control_c, 1, 64, 0
3, 66754, Control_c, 1, 64, 127
3, 66838, Note_on_c, 1, 62, 0
3, 66838, Note_on_c, 1, 60, 62
3, 66840, Control_c, 1, 64, 0
3, 66861, Control_c, 1, 64, 127
3, 66958, Note_on_c, 1, 60, 0
3, 66960, Note_on_c, 1, 58, 54
3, 66966, Note_on_c, 1, 53, 0
3, 67106, Note_on_c, 1, 58, 0
3, 67139, Note_on_c, 1, 50, 83
3, 67201, Note_on_c, 1, 48, 79
3, 67203, Note_on_c, 1, 50, 0
3, 67261, Note_on_c, 1, 48, 0
3, 67261, Note_on_c, 1, 46, 62
3, 67317, Note_on_c, 1, 46, 0
3, 67319, Note_on_c, 1, 45, 66
3, 67440, Note_on_c, 1, 45, 0
3, 67498, Note_on_c, 1, 55, 70
3, 67559, Note_on_c, 1, 53, 66
3, 67563, Note_on_c, 1, 55, 0
3, 67619, Note_on_c, 1, 45, 70
3, 67621, Note_on_c, 1, 53, 0
3, 67679, Note_on_c, 1, 46, 62
3, 67681, Note_on_c, 1, 45, 0
3, 67810, Note_on_c, 1, 46, 0
3, 67861, Note_on_c, 1, 62, 70
3, 67921, Note_on_c, 1, 60, 66
3, 67923, Note_on_c, 1, 62, 0
3, 67979, Note_on_c, 1, 60, 0
3, 67979, Note_on_c, 1, 58, 54
3, 68040, Note_on_c, 1, 58, 0
3, 68040, Note_on_c, 1, 57, 58
3, 68160, Note_on_c, 1, 57, 0
3, 68221, Note_on_c, 1, 67, 70
3, 68281, Note_on_c, 1, 65, 66
3, 68285, Note_on_c, 1, 67, 0
3, 68339, Note_on_c, 1, 65, 0
3, 68339, Note_on_c, 1, 57, 66
3, 68395, Note_on_c, 1, 57, 0
3, 68399, Note_on_c, 1, 58, 49
3, 68403, Note_on_c, 1, 58, 66
3, 68501, Note_on_c, 1, 58, 0
3, 68540, Note_on_c, 1, 58, 0
3, 68578, Note_on_c, 1, 65, 66
3, 68632, Note_on_c, 1, 65, 0
3, 68637, Note_on_c, 1, 62, 70
3, 68694, Note_on_c, 1, 62, 0
3, 68697, Note_on_c, 1, 60, 70
3, 68756, Note_on_c, 1, 60, 0
3, 68757, Note_on_c, 1, 59, 79
3, 68889, Note_on_c, 1, 59, 0
3, 68941, Note_on_c, 1, 68, 70
3, 68999, Note_on_c, 1, 68, 0
3, 69000, Note_on_c, 1, 67, 70
3, 69061, Note_on_c, 1, 59, 62
3, 69063, Note_on_c, 1, 67, 0
3, 69108, Note_on_c, 1, 59, 0
3, 69121, Note_on_c, 1, 60, 75
3, 69151, Note_on_c, 1, 67, 62
3, 69157, Control_c, 1, 64, 127
3, 69160, Note_on_c, 1, 60, 0
3, 69174, Control_c, 1, 64, 0
3, 69179, Note_on_c, 1, 67, 0
3, 69181, Note_on_c, 1, 64, 47
3, 69202, Control_c, 1, 64, 127
3, 69211, Note_on_c, 1, 64, 0
3, 69211, Note_on_c, 1, 67, 52
3, 69229, Control_c, 1, 64, 0
3, 69234, Note_on_c, 1, 67, 0
3, 69239, Note_on_c, 1, 57, 66
3, 69270, Note_on_c, 1, 66, 45
3, 69273, Control_c, 1, 64, 127
3, 69275, Note_on_c, 1, 57, 0
3, 69297, Control_c, 1, 64, 0
3, 69299, Note_on_c, 1, 66, 0
3, 69299, Note_on_c, 1, 60, 62
3, 69320, Control_c, 1, 64, 127
3, 69329, Note_on_c, 1, 66, 52
3, 69330, Note_on_c, 1, 60, 0
3, 69354, Control_c, 1, 64, 0
3, 69357, Note_on_c, 1, 66, 0
3, 69359, Note_on_c, 1, 58, 62
3, 69386, Control_c, 1, 64, 127
3, 69391, Note_on_c, 1, 58, 0
3, 69391, Note_on_c, 1, 65, 54
3, 69420, Note_on_c, 1, 65, 0
3, 69421, Note_on_c, 1, 62, 54
3, 69424, Control_c, 1, 64, 0
3, 69441, Control_c, 1, 64, 127
3, 69449, Note_on_c, 1, 62, 0
3, 69451, Note_on_c, 1, 65, 66
3, 69463, Note_on_c, 1, 65, 0
3, 69476, Control_c, 1, 64, 0
3, 69481, Note_on_c, 1, 63, 66
3, 69481, Note_on_c, 1, 51, 79
3, 69506, Control_c, 1, 64, 127
3, 69538, Note_on_c, 1, 51, 0
3, 69546, Note_on_c, 1, 63, 0
3, 69601, Note_on_c, 1, 62, 66
3, 69601, Note_on_c, 1, 53, 75
3, 69602, Control_c, 1, 64, 0
3, 69625, Control_c, 1, 64, 127
3, 69660, Note_on_c, 1, 53, 0
3, 69661, Note_on_c, 1, 62, 0
3, 69722, Note_on_c, 1, 51, 62
3, 69722, Note_on_c, 1, 60, 58
3, 69727, Control_c, 1, 64, 0
3, 69748, Control_c, 1, 64, 127
3, 69771, Note_on_c, 1, 60, 0
3, 69775, Note_on_c, 1, 51, 0
3, 69842, Note_on_c, 1, 50, 83
3, 69842, Note_on_c, 1, 58, 50
3, 69846, Control_c, 1, 64, 0
3, 69864, Control_c, 1, 64, 127
3, 69905, Note_on_c, 1, 50, 0
3, 69909, Note_on_c, 1, 58, 0
3, 69970, Control_c, 1, 64, 0
3, 70081, Note_on_c, 1, 65, 79
3, 70081, Note_on_c, 1, 62, 83
3, 70093, Control_c, 1, 64, 127
3, 70134, Note_on_c, 1, 62, 0
3, 70139, Note_on_c, 1, 65, 0
3, 70201, Note_on_c, 1, 63, 58
3, 70202, Note_on_c, 1, 67, 66
3, 70210, Control_c, 1, 64, 127
3, 70252, Note_on_c, 1, 67, 0
3, 70253, Note_on_c, 1, 63, 0
3, 70324, Control_c, 1, 64, 0
3, 70441, Note_on_c, 1, 58, 62
3, 70441, Note_on_c, 1, 60, 66
3, 70442, Note_on_c, 1, 55, 66
3, 70455, Control_c, 1, 64, 127
3, 70497, Note_on_c, 1, 55, 0
3, 70500, Note_on_c, 1, 58, 0
3, 70501, Note_on_c, 1, 60, 0
3, 70557, Control_c, 1, 64, 0
3, 70561, Note_on_c, 1, 53, 66
3, 70577, Control_c, 1, 64, 127
3, 70592, Note_on_c, 1, 62, 52
3, 70598, Note_on_c, 1, 53, 0
3, 70622, Note_on_c, 1, 58, 47
3, 70623, Note_on_c, 1, 62, 0
3, 70651, Note_on_c, 1, 58, 0
3, 70652, Note_on_c, 1, 62, 54
3, 70677, Note_on_c, 1, 62, 0
3, 70681, Note_on_c, 1, 53, 54
3, 70689, Control_c, 1, 64, 0
3, 70702, Control_c, 1, 64, 127
3, 70712, Note_on_c, 1, 62, 54
3, 70715, Note_on_c, 1, 53, 0
3, 70740, Note_on_c, 1, 62, 0
3, 70742, Note_on_c, 1, 58, 45
3, 70767, Note_on_c, 1, 58, 0
3, 70771, Note_on_c, 1, 62, 52
3, 70793, Note_on_c, 1, 62, 0
3, 70799, Control_c, 1, 64, 0
3, 70800, Note_on_c, 1, 53, 52
3, 70815, Control_c, 1, 64, 127
3, 70831, Note_on_c, 1, 62, 52
3, 70834, Note_on_c, 1, 53, 0
3, 70858, Note_on_c, 1, 62, 0
3, 70859, Note_on_c, 1, 58, 50
3, 70887, Note_on_c, 1, 58, 0
3, 70889, Note_on_c, 1, 62, 54
3, 70913, Note_on_c, 1, 62, 0
3, 70917, Note_on_c, 1, 53, 58
3, 70918, Control_c, 1, 64, 0
3, 70939, Control_c, 1, 64, 127
3, 70950, Note_on_c, 1, 63, 49
3, 70952, Note_on_c, 1, 53, 0
3, 70974, Note_on_c, 1, 63, 0
3, 70979, Note_on_c, 1, 57, 52
3, 71000, Note_on_c, 1, 57, 0
3, 71009, Note_on_c, 1, 63, 47
3, 71034, Note_on_c, 1, 63, 0
3, 71039, Note_on_c, 1, 53, 62
3, 71039, Control_c, 1, 64, 0
3, 71056, Control_c, 1, 64, 127
3, 71069, Note_on_c, 1, 63, 49
3, 71071, Note_on_c, 1, 53, 0
3, 71093, Note_on_c, 1, 63, 0
3, 71099, Note_on_c, 1, 57, 62
3, 71119, Note_on_c, 1, 57, 0
3, 71129, Note_on_c, 1, 63, 49
3, 71154, Note_on_c, 1, 63, 0
3, 71158, Control_c, 1, 64, 0
3, 71159, Note_on_c, 1, 53, 62
3, 71175, Control_c, 1, 64, 127
3, 71189, Note_on_c, 1, 63, 50
3, 71192, Note_on_c, 1, 53, 0
3, 71215, Note_on_c, 1, 63, 0
3, 71219, Note_on_c, 1, 57, 54
3, 71245, Note_on_c, 1, 57, 0
3, 71251, Note_on_c, 1, 63, 42
3, 71274, Note_on_c, 1, 63, 0
3, 71281, Note_on_c, 1, 58, 50
3, 71288, Control_c, 1, 64, 0
3, 71306, Control_c, 1, 64, 127
3, 71342, Note_on_c, 1, 62, 66
3, 71343, Note_on_c, 1, 58, 0
3, 71402, Note_on_c, 1, 65, 66
3, 71404, Note_on_c, 1, 62, 0
3, 71406, Control_c, 1, 64, 0
3, 71424, Control_c, 1, 64, 127
3, 71458, Note_on_c, 1, 65, 0
3, 71462, Note_on_c, 1, 70, 54
3, 71469, Control_c, 1, 64, 0
3, 71484, Control_c, 1, 64, 127
3, 71516, Note_on_c, 1, 70, 0
3, 71522, Note_on_c, 1, 69, 54
3, 71528, Control_c, 1, 64, 0
3, 71581, Note_on_c, 1, 69, 0
3, 71582, Note_on_c, 1, 68, 46
3, 71596, Control_c, 1, 64, 127
3, 71639, Note_on_c, 1, 68, 0
3, 71642, Note_on_c, 1, 67, 54
3, 71645, Control_c, 1, 64, 0
3, 71699, Note_on_c, 1, 67, 0
3, 71701, Note_on_c, 1, 70, 54
3, 71759, Note_on_c, 1, 70, 0
3, 71761, Note_on_c, 1, 65, 62
3, 71775, Control_c, 1, 64, 127
3, 71820, Note_on_c, 1, 65, 0
3, 71821, Note_on_c, 1, 70, 47
3, 71881, Note_on_c, 1, 70, 0
3, 71881, Note_on_c, 1, 63, 58
3, 71883, Control_c, 1, 64, 0
3, 71909, Control_c, 1, 64, 127
3, 71941, Note_on_c, 1, 70, 49
3, 71943, Note_on_c, 1, 63, 0
3, 71996, Note_on_c, 1, 70, 0
3, 72001, Note_on_c, 1, 62, 58
3, 72006, Control_c, 1, 64, 0
3, 72036, Control_c, 1, 64, 127
3, 72058, Note_on_c, 1, 62, 0
3, 72059, Note_on_c, 1, 70, 49
3, 72120, Note_on_c, 1, 70, 0
3, 72121, Note_on_c, 1, 69, 54
3, 72122, Control_c, 1, 64, 0
3, 72150, Control_c, 1, 64, 127
3, 72180, Note_on_c, 1, 69, 0
3, 72181, Note_on_c, 1, 70, 52
3, 72194, Note_on_c, 1, 70, 0
3, 72242, Note_on_c, 1, 55, 62
3, 72250, Control_c, 1, 64, 0
3, 72274, Control_c, 1, 64, 127
3, 72295, Note_on_c, 1, 55, 0
3, 72301, Note_on_c, 1, 63, 52
3, 72323, Note_on_c, 1, 63, 0
3, 72359, Note_on_c, 1, 53, 58
3, 72362, Control_c, 1, 64, 0
3, 72386, Control_c, 1, 64, 127
3, 72420, Note_on_c, 1, 62, 50
3, 72422, Note_on_c, 1, 53, 0
3, 72481, Note_on_c, 1, 62, 0
3, 72481, Note_on_c, 1, 58, 45
3, 72537, Note_on_c, 1, 58, 0
3, 72541, Note_on_c, 1, 62, 58
3, 72559, Note_on_c, 1, 62, 0
3, 72599, Note_on_c, 1, 53, 58
3, 72601, Control_c, 1, 64, 0
3, 72622, Control_c, 1, 64, 127
3, 72655, Note_on_c, 1, 53, 0
3, 72658, Note_on_c, 1, 63, 39
3, 72683, Note_on_c, 1, 63, 0
3, 72718, Note_on_c, 1, 62, 66
3, 72719, Control_c, 1, 64, 0
3, 72778, Control_c, 1, 64, 127
3, 72779, Note_on_c, 1, 58, 45
3, 72784, Note_on_c, 1, 62, 0
3, 72831, Control_c, 1, 64, 0
3, 72838, Note_on_c, 1, 58, 0
3, 72838, Note_on_c, 1, 57, 66
3, 72899, Note_on_c, 1, 56, 66
3, 72902, Note_on_c, 1, 57, 0
3, 72959, Note_on_c, 1, 55, 66
3, 72962, Note_on_c, 1, 56, 0
3, 73019, Note_on_c, 1, 54, 62
3, 73024, Note_on_c, 1, 55, 0
3, 73081, Note_on_c, 1, 55, 70
3, 73085, Note_on_c, 1, 54, 0
3, 73107, Control_c, 1, 64, 127
3, 73139, Note_on_c, 1, 55, 0
3, 73139, Control_c, 1, 64, 0
3, 73140, Note_on_c, 1, 58, 54
3, 73163, Control_c, 1, 64, 127
3, 73198, Note_on_c, 1, 58, 0
3, 73198, Control_c, 1, 64, 0
3, 73199, Note_on_c, 1, 53, 66
3, 73230, Control_c, 1, 64, 127
3, 73258, Note_on_c, 1, 53, 0
3, 73259, Note_on_c, 1, 57, 79
3, 73311, Control_c, 1, 64, 0
3, 73318, Note_on_c, 1, 57, 0
3, 73319, Note_on_c, 1, 52, 75
3, 73340, Control_c, 1, 64, 127
3, 73372, Note_on_c, 1, 52, 0
3, 73378, Note_on_c, 1, 61, 54
3, 73428, Note_on_c, 1, 61, 0
3, 73438, Note_on_c, 1, 53, 79
3, 73439, Control_c, 1, 64, 0
3, 73468, Control_c, 1, 64, 127
3, 73499, Note_on_c, 1, 62, 54
3, 73504, Note_on_c, 1, 53, 0
3, 73559, Note_on_c, 1, 58, 54
3, 73561, Note_on_c, 1, 62, 0
3, 73619, Note_on_c, 1, 62, 52
3, 73621, Note_on_c, 1, 58, 0
3, 73674, Note_on_c, 1, 62, 0
3, 73680, Note_on_c, 1, 53, 52
3, 73739, Note_on_c, 1, 53, 0
3, 73741, Note_on_c, 1, 62, 52
3, 73793, Note_on_c, 1, 62, 0
3, 73801, Note_on_c, 1, 53, 58
3, 73806, Control_c, 1, 64, 0
3, 73828, Control_c, 1, 64, 127
3, 73856, Note_on_c, 1, 53, 0
3, 73859, Note_on_c, 1, 65, 52
3, 73917, Note_on_c, 1, 65, 0
3, 73920, Note_on_c, 1, 62, 50
3, 73981, Note_on_c, 1, 65, 58
3, 73983, Note_on_c, 1, 62, 0
3, 73996, Note_on_c, 1, 65, 0
3, 74038, Control_c, 1, 64, 0
3, 74040, Note_on_c, 1, 53, 54
3, 74058, Control_c, 1, 64, 127
3, 74096, Note_on_c, 1, 53, 0
3, 74099, Note_on_c, 1, 63, 54
3, 74114, Note_on_c, 1, 63, 0
3, 74155, Control_c, 1, 64, 0
3, 74191, Note_on_c, 1, 58, 62
3, 74221, Note_on_c, 1, 62, 79
3, 74225, Note_on_c, 1, 58, 0
3, 74251, Note_on_c, 1, 65, 70
3, 74252, Note_on_c, 1, 62, 0
3, 74281, Note_on_c, 1, 65, 0
3, 74282, Note_on_c, 1, 70, 66
3, 74291, Control_c, 1, 64, 127
3, 74317, Note_on_c, 1, 70, 0
3, 74329, Control_c, 1, 64, 0
3, 74402, Note_on_c, 1, 53, 66
3, 74402, Note_on_c, 1, 57, 70
3, 74415, Control_c, 1, 64, 127
3, 74445, Note_on_c, 1, 57, 0
3, 74445, Note_on_c, 1, 53, 0
3, 74508, Control_c, 1, 64, 0
3, 74551, Note_on_c, 1, 46, 83
3, 74582, Note_on_c, 1, 50, 79
3, 74587, Note_on_c, 1, 46, 0
3, 74611, Note_on_c, 1, 50, 0
3, 74612, Note_on_c, 1, 53, 66
3, 74640, Note_on_c, 1, 53, 0
3, 74641, Note_on_c, 1, 58, 62
3, 74652, Control_c, 1, 64, 127
3, 74681, Note_on_c, 1, 58, 0
3, 74741, Control_c, 1, 64, 0
3, 74761, Note_on_c, 1, 41, 66
3, 74761, Note_on_c, 1, 45, 66
3, 74782, Control_c, 1, 64, 127
3, 74837, Note_on_c, 1, 41, 0
3, 74838, Note_on_c, 1, 45, 0
3, 74879, Control_c, 1, 64, 0
3, 74881, Note_on_c, 1, 46, 75
3, 74907, Control_c, 1, 64, 127
3, 75002, Note_on_c, 1, 34, 75
3, 75005, Note_on_c, 1, 46, 0
3, 75008, Control_c, 1, 64, 0
3, 75036, Control_c, 1, 64, 127
3, 75067, Note_on_c, 1, 34, 0
3, 75140, Control_c, 1, 64, 0
3, 75240, Control_c, 1, 121, 0
3, 75240, End_track
4, 0, Start_track
4, 0, MIDI_port, 0
4, 0, Title_t, "Title: Piano Sonata in Bbmaj (K. 550) 1st Mov't."
4, 0, End_track
5, 0, Start_track
5, 0, MIDI_port, 0
5, 0, Title_t, "Composer: W. A. Mozart"
5, 0, End_track
6, 0, Start_track
6, 0, MIDI_port, 0
6, 0, Title_t, "Sequence: Faren Raborn, Copyright 1996"
6, 0, End_track
7, 0, Start_track
7, 0, MIDI_port, 0
7, 0, Title_t, "Email: raborn@dtx.net"
7, 0, End_track
0, 0, End_of_file
