0, 0, Header, 1, 7, 120
1, 0, Start_track
1, 0, Time_signature, 4, 2, 24, 8
1, 0, Key_signature, -3, "major"
1, 0, Tempo, 909091
1, 0, End_track
2, 0, Start_track
2, 0, MIDI_port, 0
2, 0, Program_c, 0, 0
2, 0, Control_c, 0, 7, 127
2, 0, Control_c, 0, 10, 88
2, 0, Control_c, 0, 121, 0
2, 0, Control_c, 0, 91, 75
2, 1, Note_on_c, 0, 67, 80
2, 1, Note_on_c, 0, 70, 68
2, 27, Control_c, 0, 64, 127
2, 74, Note_on_c, 0, 67, 0
2, 75, Note_on_c, 0, 70, 0
2, 119, Note_on_c, 0, 63, 72
2, 120, Note_on_c, 0, 67, 76
2, 123, Control_c, 0, 64, 0
2, 135, Control_c, 0, 64, 127
2, 149, Note_on_c, 0, 63, 0
2, 150, Note_on_c, 0, 67, 0
2, 180, Control_c, 0, 64, 0
2, 181, Note_on_c, 0, 65, 72
2, 181, Note_on_c, 0, 58, 55
2, 194, Control_c, 0, 64, 127
2, 196, Note_on_c, 0, 65, 0
2, 208, Note_on_c, 0, 58, 0
2, 239, Control_c, 0, 64, 0
2, 240, Note_on_c, 0, 63, 56
2, 240, Note_on_c, 0, 55, 60
2, 257, Control_c, 0, 64, 127
2, 300, Note_on_c, 0, 55, 0
2, 301, Note_on_c, 0, 63, 0
2, 301, Note_on_c, 0, 58, 68
2, 304, Control_c, 0, 64, 0
2, 358, Note_on_c, 0, 58, 0
2, 359, Note_on_c, 0, 63, 68
2, 418, Note_on_c, 0, 63, 0
2, 419, Note_on_c, 0, 65, 64
2, 419, Note_on_c, 0, 62, 51
2, 431, Control_c, 0, 64, 127
2, 448, Note_on_c, 0, 62, 0
2, 450, Note_on_c, 0, 65, 0
2, 476, Control_c, 0, 64, 0
2, 479, Note_on_c, 0, 67, 76
2, 479, Note_on_c, 0, 63, 59
2, 539, Note_on_c, 0, 68, 72
2, 542, Note_on_c, 0, 67, 0
2, 599, Note_on_c, 0, 70, 68
2, 600, Note_on_c, 0, 68, 0
2, 658, Note_on_c, 0, 70, 0
2, 659, Note_on_c, 0, 72, 60
2, 691, Control_c, 0, 64, 127
2, 707, Note_on_c, 0, 72, 0
2, 707, Note_on_c, 0, 63, 0
2, 719, Note_on_c, 0, 63, 59
2, 719, Note_on_c, 0, 67, 85
2, 720, Control_c, 0, 64, 0
2, 744, Control_c, 0, 64, 127
2, 808, Control_c, 0, 64, 0
2, 811, Note_on_c, 0, 68, 72
2, 812, Note_on_c, 0, 67, 0
2, 820, Control_c, 0, 64, 127
2, 826, Note_on_c, 0, 68, 0
2, 827, Note_on_c, 0, 63, 0
2, 839, Control_c, 0, 64, 0
2, 840, Note_on_c, 0, 65, 85
2, 841, Note_on_c, 0, 62, 72
2, 869, Note_on_c, 0, 65, 0
2, 869, Note_on_c, 0, 67, 80
2, 898, Note_on_c, 0, 67, 0
2, 899, Note_on_c, 0, 68, 72
2, 928, Note_on_c, 0, 68, 0
2, 929, Note_on_c, 0, 69, 93
2, 936, Control_c, 0, 64, 127
2, 943, Note_on_c, 0, 62, 0
2, 945, Note_on_c, 0, 69, 0
2, 959, Note_on_c, 0, 70, 76
2, 959, Note_on_c, 0, 82, 89
2, 960, Control_c, 0, 64, 0
2, 1032, Control_c, 0, 64, 127
2, 1080, Note_on_c, 0, 79, 80
2, 1082, Note_on_c, 0, 82, 0
2, 1082, Control_c, 0, 64, 0
2, 1139, Note_on_c, 0, 79, 0
2, 1139, Note_on_c, 0, 77, 76
2, 1163, Control_c, 0, 64, 127
2, 1183, Note_on_c, 0, 77, 0
2, 1183, Note_on_c, 0, 70, 0
2, 1199, Note_on_c, 0, 70, 60
2, 1199, Note_on_c, 0, 75, 76
2, 1201, Control_c, 0, 64, 0
2, 1214, Note_on_c, 0, 75, 0
2, 1214, Note_on_c, 0, 70, 0
2, 1259, Note_on_c, 0, 74, 68
2, 1259, Note_on_c, 0, 77, 80
2, 1274, Note_on_c, 0, 77, 0
2, 1274, Note_on_c, 0, 74, 0
2, 1319, Note_on_c, 0, 75, 80
2, 1319, Note_on_c, 0, 79, 80
2, 1334, Note_on_c, 0, 79, 0
2, 1334, Note_on_c, 0, 75, 0
2, 1379, Note_on_c, 0, 80, 89
2, 1379, Note_on_c, 0, 75, 76
2, 1394, Note_on_c, 0, 75, 0
2, 1394, Note_on_c, 0, 80, 0
2, 1439, Note_on_c, 0, 82, 85
2, 1439, Note_on_c, 0, 75, 68
2, 1443, Control_c, 0, 64, 127
2, 1472, Note_on_c, 0, 75, 0
2, 1472, Note_on_c, 0, 82, 0
2, 1499, Note_on_c, 0, 83, 76
2, 1502, Control_c, 0, 64, 0
2, 1514, Note_on_c, 0, 83, 0
2, 1514, Note_on_c, 0, 84, 60
2, 1529, Note_on_c, 0, 80, 76
2, 1531, Note_on_c, 0, 84, 0
2, 1544, Note_on_c, 0, 80, 0
2, 1544, Note_on_c, 0, 77, 64
2, 1559, Note_on_c, 0, 75, 60
2, 1560, Note_on_c, 0, 77, 0
2, 1619, Note_on_c, 0, 79, 76
2, 1620, Note_on_c, 0, 75, 0
2, 1634, Note_on_c, 0, 77, 68
2, 1637, Note_on_c, 0, 79, 0
2, 1649, Note_on_c, 0, 76, 76
2, 1651, Note_on_c, 0, 77, 0
2, 1664, Note_on_c, 0, 76, 0
2, 1664, Note_on_c, 0, 77, 72
2, 1679, Note_on_c, 0, 77, 0
2, 1679, Note_on_c, 0, 74, 62
2, 1679, Note_on_c, 0, 77, 89
2, 1799, Note_on_c, 0, 75, 60
2, 1802, Note_on_c, 0, 77, 0
2, 1802, Note_on_c, 0, 74, 0
2, 1862, Note_on_c, 0, 75, 0
2, 1920, Note_on_c, 0, 70, 45
2, 1921, Note_on_c, 0, 67, 56
2, 1926, Control_c, 0, 64, 127
2, 1978, Note_on_c, 0, 67, 0
2, 1978, Note_on_c, 0, 70, 0
2, 2038, Control_c, 0, 64, 0
2, 2039, Note_on_c, 0, 67, 59
2, 2039, Note_on_c, 0, 63, 56
2, 2048, Control_c, 0, 64, 127
2, 2067, Note_on_c, 0, 63, 0
2, 2067, Note_on_c, 0, 67, 0
2, 2100, Note_on_c, 0, 65, 62
2, 2100, Note_on_c, 0, 58, 43
2, 2101, Control_c, 0, 64, 0
2, 2110, Control_c, 0, 64, 127
2, 2117, Note_on_c, 0, 65, 0
2, 2127, Note_on_c, 0, 58, 0
2, 2159, Control_c, 0, 64, 0
2, 2160, Note_on_c, 0, 63, 49
2, 2161, Note_on_c, 0, 55, 50
2, 2170, Control_c, 0, 64, 127
2, 2193, Note_on_c, 0, 63, 0
2, 2208, Note_on_c, 0, 55, 0
2, 2221, Note_on_c, 0, 58, 55
2, 2226, Control_c, 0, 64, 0
2, 2279, Note_on_c, 0, 63, 60
2, 2280, Note_on_c, 0, 58, 0
2, 2338, Note_on_c, 0, 63, 0
2, 2339, Note_on_c, 0, 65, 64
2, 2339, Note_on_c, 0, 62, 51
2, 2369, Control_c, 0, 64, 127
2, 2388, Note_on_c, 0, 62, 0
2, 2397, Note_on_c, 0, 65, 0
2, 2398, Control_c, 0, 64, 0
2, 2399, Note_on_c, 0, 67, 62
2, 2399, Note_on_c, 0, 63, 57
2, 2421, Control_c, 0, 64, 127
2, 2460, Note_on_c, 0, 67, 0
2, 2461, Note_on_c, 0, 68, 59
2, 2474, Control_c, 0, 64, 0
2, 2521, Note_on_c, 0, 70, 53
2, 2522, Note_on_c, 0, 68, 0
2, 2532, Control_c, 0, 64, 127
2, 2551, Control_c, 0, 64, 0
2, 2567, Note_on_c, 0, 70, 0
2, 2581, Note_on_c, 0, 72, 64
2, 2599, Control_c, 0, 64, 127
2, 2612, Note_on_c, 0, 72, 0
2, 2613, Note_on_c, 0, 63, 0
2, 2639, Control_c, 0, 64, 0
2, 2641, Note_on_c, 0, 67, 76
2, 2641, Note_on_c, 0, 63, 48
2, 2698, Control_c, 0, 64, 127
2, 2728, Note_on_c, 0, 67, 0
2, 2729, Note_on_c, 0, 68, 62
2, 2730, Note_on_c, 0, 63, 0
2, 2739, Control_c, 0, 64, 0
2, 2758, Note_on_c, 0, 68, 0
2, 2759, Note_on_c, 0, 65, 72
2, 2761, Note_on_c, 0, 62, 56
2, 2789, Note_on_c, 0, 65, 0
2, 2789, Note_on_c, 0, 67, 72
2, 2818, Note_on_c, 0, 67, 0
2, 2819, Note_on_c, 0, 68, 62
2, 2847, Note_on_c, 0, 68, 0
2, 2849, Note_on_c, 0, 69, 80
2, 2856, Control_c, 0, 64, 127
2, 2862, Note_on_c, 0, 62, 0
2, 2864, Note_on_c, 0, 69, 0
2, 2880, Note_on_c, 0, 82, 68
2, 2880, Note_on_c, 0, 70, 55
2, 2881, Control_c, 0, 64, 0
2, 2940, Control_c, 0, 64, 127
2, 2999, Note_on_c, 0, 79, 76
2, 3000, Note_on_c, 0, 82, 0
2, 3000, Control_c, 0, 64, 0
2, 3058, Note_on_c, 0, 79, 0
2, 3059, Note_on_c, 0, 77, 72
2, 3068, Control_c, 0, 64, 127
2, 3088, Note_on_c, 0, 70, 0
2, 3090, Note_on_c, 0, 77, 0
2, 3120, Control_c, 0, 64, 0
2, 3121, Note_on_c, 0, 70, 59
2, 3121, Note_on_c, 0, 75, 64
2, 3134, Note_on_c, 0, 75, 0
2, 3134, Note_on_c, 0, 70, 0
2, 3179, Note_on_c, 0, 74, 59
2, 3179, Note_on_c, 0, 77, 68
2, 3194, Note_on_c, 0, 77, 0
2, 3194, Note_on_c, 0, 74, 0
2, 3239, Note_on_c, 0, 75, 72
2, 3239, Note_on_c, 0, 79, 72
2, 3253, Note_on_c, 0, 75, 0
2, 3254, Note_on_c, 0, 79, 0
2, 3299, Note_on_c, 0, 80, 76
2, 3299, Note_on_c, 0, 75, 60
2, 3313, Note_on_c, 0, 75, 0
2, 3313, Note_on_c, 0, 80, 0
2, 3360, Note_on_c, 0, 82, 68
2, 3361, Note_on_c, 0, 75, 55
2, 3366, Control_c, 0, 64, 127
2, 3403, Note_on_c, 0, 82, 0
2, 3407, Note_on_c, 0, 75, 0
2, 3419, Note_on_c, 0, 83, 64
2, 3421, Control_c, 0, 64, 0
2, 3434, Note_on_c, 0, 83, 0
2, 3434, Note_on_c, 0, 84, 51
2, 3449, Note_on_c, 0, 80, 60
2, 3451, Note_on_c, 0, 84, 0
2, 3464, Note_on_c, 0, 80, 0
2, 3464, Note_on_c, 0, 77, 51
2, 3479, Note_on_c, 0, 75, 51
2, 3481, Note_on_c, 0, 77, 0
2, 3538, Note_on_c, 0, 75, 0
2, 3539, Note_on_c, 0, 79, 64
2, 3554, Note_on_c, 0, 77, 64
2, 3557, Note_on_c, 0, 79, 0
2, 3569, Note_on_c, 0, 76, 68
2, 3570, Note_on_c, 0, 77, 0
2, 3584, Note_on_c, 0, 77, 57
2, 3586, Note_on_c, 0, 76, 0
2, 3598, Note_on_c, 0, 77, 0
2, 3599, Note_on_c, 0, 74, 52
2, 3599, Note_on_c, 0, 77, 68
2, 3719, Note_on_c, 0, 75, 48
2, 3720, Note_on_c, 0, 77, 0
2, 3721, Note_on_c, 0, 74, 0
2, 3792, Note_on_c, 0, 75, 0
2, 3838, Note_on_c, 0, 77, 93
2, 3915, Control_c, 0, 64, 127
2, 3961, Note_on_c, 0, 79, 89
2, 3963, Note_on_c, 0, 77, 0
2, 3966, Control_c, 0, 64, 0
2, 4021, Note_on_c, 0, 75, 76
2, 4022, Note_on_c, 0, 79, 0
2, 4080, Note_on_c, 0, 75, 0
2, 4081, Note_on_c, 0, 80, 80
2, 4144, Control_c, 0, 64, 127
2, 4171, Note_on_c, 0, 77, 76
2, 4172, Note_on_c, 0, 80, 0
2, 4179, Control_c, 0, 64, 0
2, 4200, Note_on_c, 0, 77, 0
2, 4200, Note_on_c, 0, 74, 85
2, 4229, Note_on_c, 0, 74, 0
2, 4229, Note_on_c, 0, 75, 76
2, 4258, Note_on_c, 0, 75, 0
2, 4259, Note_on_c, 0, 77, 89
2, 4288, Note_on_c, 0, 77, 0
2, 4289, Note_on_c, 0, 78, 80
2, 4319, Note_on_c, 0, 79, 80
2, 4320, Note_on_c, 0, 78, 0
2, 4369, Note_on_c, 0, 79, 0
2, 4379, Note_on_c, 0, 79, 93
2, 4394, Note_on_c, 0, 79, 0
2, 4439, Note_on_c, 0, 80, 89
2, 4454, Note_on_c, 0, 80, 0
2, 4499, Note_on_c, 0, 81, 93
2, 4514, Note_on_c, 0, 81, 0
2, 4559, Note_on_c, 0, 82, 89
2, 4649, Note_on_c, 0, 82, 0
2, 4650, Note_on_c, 0, 84, 68
2, 4661, Note_on_c, 0, 82, 76
2, 4668, Note_on_c, 0, 84, 0
2, 4671, Note_on_c, 0, 82, 0
2, 4671, Note_on_c, 0, 80, 68
2, 4680, Note_on_c, 0, 79, 80
2, 4681, Note_on_c, 0, 80, 0
2, 4709, Note_on_c, 0, 80, 85
2, 4712, Note_on_c, 0, 79, 0
2, 4739, Note_on_c, 0, 80, 0
2, 4739, Note_on_c, 0, 82, 80
2, 4770, Note_on_c, 0, 82, 0
2, 4770, Note_on_c, 0, 83, 76
2, 4801, Note_on_c, 0, 83, 0
2, 4801, Note_on_c, 0, 84, 89
2, 4921, Note_on_c, 0, 82, 76
2, 4922, Note_on_c, 0, 84, 0
2, 5039, Note_on_c, 0, 81, 76
2, 5040, Note_on_c, 0, 82, 0
2, 5161, Note_on_c, 0, 80, 98
2, 5162, Note_on_c, 0, 81, 0
2, 5281, Note_on_c, 0, 79, 89
2, 5282, Note_on_c, 0, 80, 0
2, 5338, Note_on_c, 0, 79, 0
2, 5339, Note_on_c, 0, 87, 85
2, 5399, Note_on_c, 0, 77, 76
2, 5401, Note_on_c, 0, 87, 0
2, 5458, Note_on_c, 0, 77, 0
2, 5459, Note_on_c, 0, 84, 85
2, 5519, Note_on_c, 0, 75, 72
2, 5521, Note_on_c, 0, 84, 0
2, 5611, Note_on_c, 0, 77, 64
2, 5612, Note_on_c, 0, 75, 0
2, 5624, Note_on_c, 0, 77, 0
2, 5624, Note_on_c, 0, 75, 64
2, 5639, Note_on_c, 0, 74, 72
2, 5640, Note_on_c, 0, 75, 0
2, 5709, Control_c, 0, 64, 127
2, 5730, Note_on_c, 0, 74, 0
2, 5736, Control_c, 0, 64, 0
2, 5760, Note_on_c, 0, 70, 62
2, 5762, Note_on_c, 0, 67, 72
2, 5786, Control_c, 0, 64, 127
2, 5807, Note_on_c, 0, 70, 0
2, 5817, Note_on_c, 0, 67, 0
2, 5877, Control_c, 0, 64, 0
2, 5879, Note_on_c, 0, 63, 64
2, 5879, Note_on_c, 0, 67, 64
2, 5889, Control_c, 0, 64, 127
2, 5908, Note_on_c, 0, 67, 0
2, 5908, Note_on_c, 0, 63, 0
2, 5939, Note_on_c, 0, 65, 72
2, 5939, Note_on_c, 0, 58, 55
2, 5940, Control_c, 0, 64, 0
2, 5949, Control_c, 0, 64, 127
2, 5957, Note_on_c, 0, 65, 0
2, 5958, Note_on_c, 0, 58, 0
2, 5998, Control_c, 0, 64, 0
2, 5999, Note_on_c, 0, 63, 60
2, 5999, Note_on_c, 0, 55, 62
2, 6011, Control_c, 0, 64, 127
2, 6048, Note_on_c, 0, 55, 0
2, 6058, Note_on_c, 0, 63, 0
2, 6060, Note_on_c, 0, 58, 72
2, 6061, Control_c, 0, 64, 0
2, 6074, Control_c, 0, 64, 127
2, 6102, Note_on_c, 0, 58, 0
2, 6116, Control_c, 0, 64, 0
2, 6120, Note_on_c, 0, 63, 60
2, 6126, Control_c, 0, 64, 127
2, 6137, Note_on_c, 0, 63, 0
2, 6175, Control_c, 0, 64, 0
2, 6179, Note_on_c, 0, 65, 72
2, 6179, Note_on_c, 0, 62, 72
2, 6186, Control_c, 0, 64, 127
2, 6196, Note_on_c, 0, 62, 0
2, 6197, Note_on_c, 0, 65, 0
2, 6239, Note_on_c, 0, 63, 62
2, 6239, Note_on_c, 0, 67, 85
2, 6240, Control_c, 0, 64, 0
2, 6299, Note_on_c, 0, 68, 68
2, 6302, Note_on_c, 0, 67, 0
2, 6359, Note_on_c, 0, 70, 72
2, 6360, Note_on_c, 0, 68, 0
2, 6419, Note_on_c, 0, 70, 0
2, 6419, Note_on_c, 0, 72, 76
2, 6452, Control_c, 0, 64, 127
2, 6469, Note_on_c, 0, 72, 0
2, 6469, Note_on_c, 0, 63, 0
2, 6480, Note_on_c, 0, 63, 57
2, 6480, Note_on_c, 0, 67, 89
2, 6480, Control_c, 0, 64, 0
2, 6507, Control_c, 0, 64, 127
2, 6568, Note_on_c, 0, 67, 0
2, 6570, Note_on_c, 0, 63, 0
2, 6570, Note_on_c, 0, 68, 80
2, 6585, Control_c, 0, 64, 0
2, 6598, Note_on_c, 0, 68, 0
2, 6600, Note_on_c, 0, 65, 80
2, 6601, Note_on_c, 0, 62, 60
2, 6629, Note_on_c, 0, 67, 85
2, 6630, Note_on_c, 0, 65, 0
2, 6659, Note_on_c, 0, 67, 0
2, 6659, Note_on_c, 0, 68, 76
2, 6687, Note_on_c, 0, 68, 0
2, 6689, Note_on_c, 0, 69, 89
2, 6698, Control_c, 0, 64, 127
2, 6703, Note_on_c, 0, 62, 0
2, 6704, Note_on_c, 0, 69, 0
2, 6719, Control_c, 0, 64, 0
2, 6720, Note_on_c, 0, 70, 93
2, 6720, Note_on_c, 0, 82, 93
2, 6787, Control_c, 0, 64, 127
2, 6839, Note_on_c, 0, 79, 85
2, 6841, Note_on_c, 0, 82, 0
2, 6842, Control_c, 0, 64, 0
2, 6898, Note_on_c, 0, 79, 0
2, 6899, Note_on_c, 0, 77, 60
2, 6907, Control_c, 0, 64, 127
2, 6942, Note_on_c, 0, 77, 0
2, 6942, Note_on_c, 0, 70, 0
2, 6960, Note_on_c, 0, 75, 76
2, 6960, Control_c, 0, 64, 0
2, 6961, Note_on_c, 0, 70, 60
2, 6973, Note_on_c, 0, 75, 0
2, 6974, Note_on_c, 0, 70, 0
2, 7019, Note_on_c, 0, 74, 76
2, 7019, Note_on_c, 0, 77, 80
2, 7033, Note_on_c, 0, 74, 0
2, 7034, Note_on_c, 0, 77, 0
2, 7079, Note_on_c, 0, 75, 80
2, 7079, Note_on_c, 0, 79, 85
2, 7093, Note_on_c, 0, 75, 0
2, 7094, Note_on_c, 0, 79, 0
2, 7139, Note_on_c, 0, 80, 89
2, 7139, Note_on_c, 0, 75, 72
2, 7153, Note_on_c, 0, 75, 0
2, 7154, Note_on_c, 0, 80, 0
2, 7199, Note_on_c, 0, 82, 80
2, 7199, Note_on_c, 0, 75, 68
2, 7200, Control_c, 0, 64, 127
2, 7232, Note_on_c, 0, 82, 0
2, 7233, Note_on_c, 0, 75, 0
2, 7259, Note_on_c, 0, 83, 89
2, 7263, Control_c, 0, 64, 0
2, 7274, Note_on_c, 0, 83, 0
2, 7274, Note_on_c, 0, 84, 72
2, 7289, Note_on_c, 0, 80, 72
2, 7290, Note_on_c, 0, 84, 0
2, 7304, Note_on_c, 0, 77, 59
2, 7305, Note_on_c, 0, 80, 0
2, 7319, Note_on_c, 0, 77, 0
2, 7319, Note_on_c, 0, 75, 72
2, 7378, Note_on_c, 0, 75, 0
2, 7379, Note_on_c, 0, 79, 76
2, 7394, Note_on_c, 0, 77, 76
2, 7397, Note_on_c, 0, 79, 0
2, 7409, Note_on_c, 0, 76, 72
2, 7410, Note_on_c, 0, 77, 0
2, 7424, Note_on_c, 0, 76, 0
2, 7424, Note_on_c, 0, 77, 68
2, 7439, Note_on_c, 0, 77, 0
2, 7439, Note_on_c, 0, 74, 59
2, 7439, Note_on_c, 0, 77, 89
2, 7559, Note_on_c, 0, 75, 62
2, 7560, Note_on_c, 0, 77, 0
2, 7560, Note_on_c, 0, 74, 0
2, 7620, Note_on_c, 0, 75, 0
2, 7681, Note_on_c, 0, 75, 76
2, 7681, Note_on_c, 0, 79, 85
2, 7725, Control_c, 0, 64, 127
2, 7768, Note_on_c, 0, 75, 0
2, 7770, Note_on_c, 0, 74, 68
2, 7770, Note_on_c, 0, 77, 68
2, 7772, Note_on_c, 0, 79, 0
2, 7772, Control_c, 0, 64, 0
2, 7801, Note_on_c, 0, 72, 68
2, 7801, Note_on_c, 0, 75, 68
2, 7802, Note_on_c, 0, 77, 0
2, 7802, Note_on_c, 0, 74, 0
2, 7836, Control_c, 0, 64, 127
2, 7862, Note_on_c, 0, 72, 0
2, 7863, Note_on_c, 0, 75, 0
2, 7872, Control_c, 0, 64, 0
2, 7919, Note_on_c, 0, 77, 93
2, 7919, Note_on_c, 0, 80, 89
2, 7931, Control_c, 0, 64, 127
2, 8001, Control_c, 0, 64, 0
2, 8008, Note_on_c, 0, 77, 0
2, 8009, Note_on_c, 0, 75, 62
2, 8009, Note_on_c, 0, 79, 76
2, 8010, Note_on_c, 0, 80, 0
2, 8040, Note_on_c, 0, 79, 0
2, 8040, Note_on_c, 0, 75, 0
2, 8040, Note_on_c, 0, 74, 64
2, 8040, Note_on_c, 0, 77, 72
2, 8098, Control_c, 0, 64, 127
2, 8131, Note_on_c, 0, 77, 0
2, 8132, Note_on_c, 0, 74, 0
2, 8138, Control_c, 0, 64, 0
2, 8189, Note_on_c, 0, 75, 76
2, 8190, Note_on_c, 0, 72, 72
2, 8195, Control_c, 0, 64, 127
2, 8217, Note_on_c, 0, 72, 0
2, 8218, Note_on_c, 0, 75, 0
2, 8220, Note_on_c, 0, 74, 72
2, 8220, Note_on_c, 0, 77, 85
2, 8220, Control_c, 0, 64, 0
2, 8238, Control_c, 0, 64, 127
2, 8248, Note_on_c, 0, 77, 0
2, 8248, Note_on_c, 0, 74, 0
2, 8249, Note_on_c, 0, 75, 76
2, 8250, Note_on_c, 0, 79, 80
2, 8261, Control_c, 0, 64, 0
2, 8276, Note_on_c, 0, 79, 0
2, 8276, Note_on_c, 0, 75, 0
2, 8279, Note_on_c, 0, 79, 89
2, 8279, Note_on_c, 0, 75, 76
2, 8309, Note_on_c, 0, 75, 0
2, 8309, Note_on_c, 0, 74, 60
2, 8309, Note_on_c, 0, 77, 68
2, 8311, Note_on_c, 0, 79, 0
2, 8324, Control_c, 0, 64, 127
2, 8333, Control_c, 0, 64, 0
2, 8338, Note_on_c, 0, 77, 0
2, 8338, Note_on_c, 0, 74, 0
2, 8339, Note_on_c, 0, 77, 89
2, 8340, Note_on_c, 0, 74, 85
2, 8351, Control_c, 0, 64, 127
2, 8358, Control_c, 0, 64, 0
2, 8369, Note_on_c, 0, 72, 62
2, 8369, Note_on_c, 0, 75, 68
2, 8371, Note_on_c, 0, 74, 0
2, 8372, Note_on_c, 0, 77, 0
2, 8397, Note_on_c, 0, 72, 0
2, 8397, Note_on_c, 0, 75, 0
2, 8399, Note_on_c, 0, 75, 68
2, 8399, Note_on_c, 0, 72, 76
2, 8413, Control_c, 0, 64, 127
2, 8514, Note_on_c, 0, 72, 0
2, 8515, Control_c, 0, 64, 0
2, 8518, Note_on_c, 0, 75, 0
2, 8519, Note_on_c, 0, 71, 64
2, 8519, Note_on_c, 0, 74, 72
2, 8533, Control_c, 0, 64, 127
2, 8605, Note_on_c, 0, 74, 0
2, 8605, Note_on_c, 0, 71, 0
2, 8608, Control_c, 0, 64, 0
2, 8669, Note_on_c, 0, 75, 80
2, 8700, Note_on_c, 0, 72, 85
2, 8701, Note_on_c, 0, 75, 0
2, 8728, Note_on_c, 0, 72, 0
2, 8729, Note_on_c, 0, 68, 76
2, 8759, Note_on_c, 0, 68, 0
2, 8759, Note_on_c, 0, 67, 93
2, 8820, Note_on_c, 0, 67, 0
2, 8820, Note_on_c, 0, 66, 68
2, 8848, Control_c, 0, 64, 127
2, 8853, Note_on_c, 0, 66, 0
2, 8881, Control_c, 0, 64, 0
2, 8909, Note_on_c, 0, 82, 89
2, 8939, Note_on_c, 0, 82, 0
2, 8939, Note_on_c, 0, 79, 98
2, 8969, Note_on_c, 0, 79, 0
2, 8969, Note_on_c, 0, 75, 89
2, 8999, Note_on_c, 0, 74, 85
2, 9000, Note_on_c, 0, 75, 0
2, 9058, Note_on_c, 0, 74, 0
2, 9059, Note_on_c, 0, 73, 89
2, 9118, Note_on_c, 0, 73, 0
2, 9150, Note_on_c, 0, 74, 93
2, 9176, Note_on_c, 0, 74, 0
2, 9209, Note_on_c, 0, 70, 89
2, 9209, Note_on_c, 0, 67, 85
2, 9236, Note_on_c, 0, 67, 0
2, 9236, Note_on_c, 0, 70, 0
2, 9269, Note_on_c, 0, 69, 93
2, 9269, Note_on_c, 0, 72, 85
2, 9296, Note_on_c, 0, 72, 0
2, 9296, Note_on_c, 0, 69, 0
2, 9329, Note_on_c, 0, 66, 85
2, 9329, Note_on_c, 0, 69, 93
2, 9355, Note_on_c, 0, 69, 0
2, 9356, Note_on_c, 0, 66, 0
2, 9389, Note_on_c, 0, 67, 85
2, 9419, Note_on_c, 0, 69, 89
2, 9420, Note_on_c, 0, 67, 0
2, 9449, Note_on_c, 0, 71, 89
2, 9451, Note_on_c, 0, 69, 0
2, 9479, Note_on_c, 0, 71, 0
2, 9479, Note_on_c, 0, 72, 85
2, 9479, Note_on_c, 0, 69, 89
2, 9480, Control_c, 0, 64, 127
2, 9502, Control_c, 0, 64, 0
2, 9507, Note_on_c, 0, 69, 0
2, 9507, Note_on_c, 0, 72, 0
2, 9509, Note_on_c, 0, 74, 93
2, 9509, Note_on_c, 0, 71, 89
2, 9539, Note_on_c, 0, 71, 0
2, 9539, Note_on_c, 0, 74, 0
2, 9539, Note_on_c, 0, 75, 80
2, 9539, Note_on_c, 0, 72, 85
2, 9546, Control_c, 0, 64, 127
2, 9568, Note_on_c, 0, 72, 0
2, 9569, Note_on_c, 0, 75, 0
2, 9569, Note_on_c, 0, 74, 89
2, 9569, Note_on_c, 0, 77, 98
2, 9596, Control_c, 0, 64, 0
2, 9597, Note_on_c, 0, 74, 0
2, 9598, Note_on_c, 0, 77, 0
2, 9599, Note_on_c, 0, 75, 89
2, 9599, Note_on_c, 0, 79, 98
2, 9656, Control_c, 0, 64, 127
2, 9690, Note_on_c, 0, 75, 0
2, 9691, Note_on_c, 0, 77, 72
2, 9691, Control_c, 0, 64, 0
2, 9691, Note_on_c, 0, 74, 62
2, 9692, Note_on_c, 0, 79, 0
2, 9721, Note_on_c, 0, 74, 0
2, 9721, Note_on_c, 0, 75, 68
2, 9721, Note_on_c, 0, 72, 59
2, 9723, Note_on_c, 0, 77, 0
2, 9752, Control_c, 0, 64, 127
2, 9780, Note_on_c, 0, 72, 0
2, 9780, Note_on_c, 0, 75, 0
2, 9836, Control_c, 0, 64, 0
2, 9839, Note_on_c, 0, 77, 80
2, 9839, Note_on_c, 0, 80, 68
2, 9867, Control_c, 0, 64, 127
2, 9921, Control_c, 0, 64, 0
2, 9929, Note_on_c, 0, 75, 56
2, 9929, Note_on_c, 0, 79, 64
2, 9930, Note_on_c, 0, 77, 0
2, 9931, Note_on_c, 0, 80, 0
2, 9959, Note_on_c, 0, 75, 0
2, 9961, Note_on_c, 0, 79, 0
2, 9961, Note_on_c, 0, 74, 60
2, 9961, Note_on_c, 0, 77, 62
2, 9989, Control_c, 0, 64, 127
2, 10025, Note_on_c, 0, 77, 0
2, 10025, Note_on_c, 0, 74, 0
2, 10068, Control_c, 0, 64, 0
2, 10109, Note_on_c, 0, 75, 62
2, 10109, Note_on_c, 0, 72, 62
2, 10139, Note_on_c, 0, 75, 0
2, 10139, Note_on_c, 0, 77, 62
2, 10139, Note_on_c, 0, 74, 72
2, 10140, Note_on_c, 0, 72, 0
2, 10141, Control_c, 0, 64, 127
2, 10162, Control_c, 0, 64, 0
2, 10169, Note_on_c, 0, 74, 0
2, 10169, Note_on_c, 0, 77, 0
2, 10169, Note_on_c, 0, 75, 76
2, 10169, Note_on_c, 0, 79, 80
2, 10198, Note_on_c, 0, 79, 0
2, 10198, Note_on_c, 0, 75, 0
2, 10199, Note_on_c, 0, 75, 62
2, 10199, Note_on_c, 0, 79, 76
2, 10206, Control_c, 0, 64, 127
2, 10218, Control_c, 0, 64, 0
2, 10229, Note_on_c, 0, 77, 64
2, 10229, Note_on_c, 0, 74, 57
2, 10231, Note_on_c, 0, 79, 0
2, 10231, Note_on_c, 0, 75, 0
2, 10258, Note_on_c, 0, 77, 0
2, 10258, Note_on_c, 0, 74, 0
2, 10259, Note_on_c, 0, 77, 68
2, 10260, Note_on_c, 0, 74, 68
2, 10265, Control_c, 0, 64, 127
2, 10283, Control_c, 0, 64, 0
2, 10288, Note_on_c, 0, 74, 0
2, 10290, Note_on_c, 0, 72, 53
2, 10290, Note_on_c, 0, 75, 62
2, 10291, Note_on_c, 0, 77, 0
2, 10318, Note_on_c, 0, 75, 0
2, 10318, Note_on_c, 0, 72, 0
2, 10320, Note_on_c, 0, 75, 56
2, 10320, Note_on_c, 0, 72, 57
2, 10329, Control_c, 0, 64, 127
2, 10406, Note_on_c, 0, 75, 0
2, 10407, Note_on_c, 0, 72, 0
2, 10433, Control_c, 0, 64, 0
2, 10439, Note_on_c, 0, 71, 56
2, 10439, Note_on_c, 0, 74, 62
2, 10453, Control_c, 0, 64, 127
2, 10503, Note_on_c, 0, 74, 0
2, 10503, Note_on_c, 0, 71, 0
2, 10508, Control_c, 0, 64, 0
2, 10589, Note_on_c, 0, 75, 76
2, 10619, Note_on_c, 0, 72, 80
2, 10620, Note_on_c, 0, 75, 0
2, 10649, Note_on_c, 0, 72, 0
2, 10649, Note_on_c, 0, 68, 72
2, 10679, Note_on_c, 0, 67, 72
2, 10680, Note_on_c, 0, 68, 0
2, 10738, Note_on_c, 0, 67, 0
2, 10739, Note_on_c, 0, 66, 59
2, 10770, Control_c, 0, 64, 127
2, 10775, Note_on_c, 0, 66, 0
2, 10803, Control_c, 0, 64, 0
2, 10829, Note_on_c, 0, 82, 62
2, 10860, Note_on_c, 0, 79, 80
2, 10861, Note_on_c, 0, 82, 0
2, 10888, Note_on_c, 0, 79, 0
2, 10889, Note_on_c, 0, 75, 62
2, 10919, Note_on_c, 0, 75, 0
2, 10919, Note_on_c, 0, 74, 64
2, 10979, Note_on_c, 0, 73, 64
2, 10980, Note_on_c, 0, 74, 0
2, 11001, Control_c, 0, 64, 127
2, 11016, Note_on_c, 0, 73, 0
2, 11041, Control_c, 0, 64, 0
2, 11071, Note_on_c, 0, 74, 76
2, 11096, Note_on_c, 0, 74, 0
2, 11131, Note_on_c, 0, 70, 62
2, 11131, Note_on_c, 0, 67, 64
2, 11156, Note_on_c, 0, 67, 0
2, 11156, Note_on_c, 0, 70, 0
2, 11191, Note_on_c, 0, 72, 72
2, 11191, Note_on_c, 0, 69, 62
2, 11216, Note_on_c, 0, 69, 0
2, 11216, Note_on_c, 0, 72, 0
2, 11251, Note_on_c, 0, 66, 60
2, 11251, Note_on_c, 0, 69, 89
2, 11275, Note_on_c, 0, 69, 0
2, 11276, Note_on_c, 0, 66, 0
2, 11309, Note_on_c, 0, 67, 76
2, 11339, Note_on_c, 0, 67, 0
2, 11339, Note_on_c, 0, 69, 76
2, 11364, Control_c, 0, 64, 127
2, 11369, Note_on_c, 0, 71, 80
2, 11371, Note_on_c, 0, 69, 0
2, 11392, Control_c, 0, 64, 0
2, 11395, Note_on_c, 0, 71, 0
2, 11399, Note_on_c, 0, 72, 76
2, 11399, Note_on_c, 0, 69, 62
2, 11409, Control_c, 0, 64, 127
2, 11428, Note_on_c, 0, 69, 0
2, 11428, Note_on_c, 0, 72, 0
2, 11430, Note_on_c, 0, 74, 62
2, 11430, Note_on_c, 0, 71, 62
2, 11455, Note_on_c, 0, 71, 0
2, 11455, Note_on_c, 0, 74, 0
2, 11457, Control_c, 0, 64, 0
2, 11460, Note_on_c, 0, 75, 68
2, 11461, Note_on_c, 0, 72, 59
2, 11473, Control_c, 0, 64, 127
2, 11487, Note_on_c, 0, 72, 0
2, 11487, Note_on_c, 0, 75, 0
2, 11489, Note_on_c, 0, 77, 68
2, 11490, Note_on_c, 0, 74, 76
2, 11515, Note_on_c, 0, 74, 0
2, 11515, Control_c, 0, 64, 0
2, 11516, Note_on_c, 0, 77, 0
2, 11520, Note_on_c, 0, 79, 62
2, 11520, Note_on_c, 0, 76, 62
2, 11539, Control_c, 0, 64, 127
2, 11639, Control_c, 0, 64, 0
2, 11640, Note_on_c, 0, 76, 0
2, 11640, Note_on_c, 0, 79, 0
2, 11640, Note_on_c, 0, 77, 72
2, 11640, Note_on_c, 0, 80, 64
2, 11664, Control_c, 0, 64, 127
2, 11757, Note_on_c, 0, 80, 0
2, 11757, Control_c, 0, 64, 0
2, 11758, Note_on_c, 0, 77, 0
2, 11759, Note_on_c, 0, 82, 59
2, 11759, Note_on_c, 0, 79, 80
2, 11778, Control_c, 0, 64, 127
2, 11876, Control_c, 0, 64, 0
2, 11878, Note_on_c, 0, 79, 0
2, 11879, Note_on_c, 0, 82, 0
2, 11879, Note_on_c, 0, 80, 57
2, 11879, Note_on_c, 0, 77, 62
2, 11891, Control_c, 0, 64, 127
2, 11951, Control_c, 0, 64, 0
2, 11964, Note_on_c, 0, 77, 0
2, 11964, Note_on_c, 0, 80, 0
2, 12001, Note_on_c, 0, 74, 62
2, 12001, Note_on_c, 0, 77, 72
2, 12018, Control_c, 0, 64, 127
2, 12118, Note_on_c, 0, 77, 0
2, 12118, Note_on_c, 0, 74, 0
2, 12120, Note_on_c, 0, 75, 55
2, 12120, Note_on_c, 0, 79, 57
2, 12121, Control_c, 0, 64, 0
2, 12143, Control_c, 0, 64, 127
2, 12235, Note_on_c, 0, 79, 0
2, 12236, Note_on_c, 0, 75, 0
2, 12241, Note_on_c, 0, 77, 56
2, 12241, Note_on_c, 0, 80, 49
2, 12243, Control_c, 0, 64, 0
2, 12265, Control_c, 0, 64, 127
2, 12358, Note_on_c, 0, 80, 0
2, 12358, Control_c, 0, 64, 0
2, 12359, Note_on_c, 0, 79, 49
2, 12360, Note_on_c, 0, 77, 0
2, 12360, Note_on_c, 0, 75, 52
2, 12382, Control_c, 0, 64, 127
2, 12424, Note_on_c, 0, 75, 0
2, 12424, Note_on_c, 0, 79, 0
2, 12433, Control_c, 0, 64, 0
2, 12511, Note_on_c, 0, 78, 60
2, 12541, Note_on_c, 0, 78, 0
2, 12541, Note_on_c, 0, 79, 76
2, 12569, Note_on_c, 0, 79, 0
2, 12570, Note_on_c, 0, 78, 68
2, 12599, Note_on_c, 0, 78, 0
2, 12599, Note_on_c, 0, 86, 76
2, 12657, Note_on_c, 0, 86, 0
2, 12658, Note_on_c, 0, 77, 72
2, 12720, Note_on_c, 0, 77, 0
2, 12749, Note_on_c, 0, 76, 72
2, 12779, Note_on_c, 0, 77, 76
2, 12781, Note_on_c, 0, 76, 0
2, 12809, Note_on_c, 0, 77, 0
2, 12809, Note_on_c, 0, 76, 76
2, 12839, Note_on_c, 0, 76, 0
2, 12839, Note_on_c, 0, 84, 85
2, 12900, Note_on_c, 0, 75, 62
2, 12902, Note_on_c, 0, 84, 0
2, 12961, Note_on_c, 0, 75, 0
2, 12989, Note_on_c, 0, 73, 64
2, 13019, Note_on_c, 0, 72, 72
2, 13020, Note_on_c, 0, 73, 0
2, 13049, Note_on_c, 0, 72, 0
2, 13049, Note_on_c, 0, 73, 72
2, 13079, Note_on_c, 0, 76, 76
2, 13080, Note_on_c, 0, 73, 0
2, 13109, Note_on_c, 0, 77, 64
2, 13112, Note_on_c, 0, 76, 0
2, 13140, Note_on_c, 0, 79, 80
2, 13142, Note_on_c, 0, 77, 0
2, 13169, Note_on_c, 0, 80, 72
2, 13171, Note_on_c, 0, 79, 0
2, 13201, Note_on_c, 0, 80, 0
2, 13201, Note_on_c, 0, 72, 60
2, 13266, Control_c, 0, 64, 127
2, 13317, Control_c, 0, 64, 0
2, 13318, Note_on_c, 0, 72, 0
2, 13319, Note_on_c, 0, 71, 80
2, 13349, Note_on_c, 0, 74, 85
2, 13351, Note_on_c, 0, 71, 0
2, 13379, Note_on_c, 0, 74, 0
2, 13379, Note_on_c, 0, 75, 60
2, 13409, Note_on_c, 0, 77, 76
2, 13411, Note_on_c, 0, 75, 0
2, 13439, Note_on_c, 0, 77, 0
2, 13439, Note_on_c, 0, 75, 76
2, 13439, Note_on_c, 0, 79, 93
2, 13503, Control_c, 0, 64, 127
2, 13530, Note_on_c, 0, 74, 72
2, 13531, Note_on_c, 0, 75, 0
2, 13531, Note_on_c, 0, 77, 62
2, 13532, Note_on_c, 0, 79, 0
2, 13535, Control_c, 0, 64, 0
2, 13560, Note_on_c, 0, 74, 0
2, 13561, Note_on_c, 0, 77, 0
2, 13561, Note_on_c, 0, 75, 68
2, 13561, Note_on_c, 0, 72, 76
2, 13580, Control_c, 0, 64, 127
2, 13622, Note_on_c, 0, 72, 0
2, 13623, Note_on_c, 0, 75, 0
2, 13631, Control_c, 0, 64, 0
2, 13680, Note_on_c, 0, 77, 89
2, 13680, Note_on_c, 0, 80, 89
2, 13696, Control_c, 0, 64, 127
2, 13765, Note_on_c, 0, 80, 0
2, 13765, Note_on_c, 0, 77, 0
2, 13768, Control_c, 0, 64, 0
2, 13769, Note_on_c, 0, 79, 80
2, 13769, Note_on_c, 0, 75, 64
2, 13800, Note_on_c, 0, 75, 0
2, 13801, Note_on_c, 0, 77, 80
2, 13801, Note_on_c, 0, 74, 64
2, 13802, Note_on_c, 0, 79, 0
2, 13862, Note_on_c, 0, 74, 0
2, 13862, Note_on_c, 0, 77, 0
2, 13921, Control_c, 0, 64, 127
2, 13946, Control_c, 0, 64, 0
2, 13949, Note_on_c, 0, 75, 76
2, 13950, Note_on_c, 0, 72, 68
2, 13967, Control_c, 0, 64, 127
2, 13979, Note_on_c, 0, 72, 0
2, 13979, Note_on_c, 0, 75, 0
2, 13979, Note_on_c, 0, 77, 76
2, 13979, Note_on_c, 0, 74, 85
2, 13984, Control_c, 0, 64, 0
2, 14000, Control_c, 0, 64, 127
2, 14008, Note_on_c, 0, 74, 0
2, 14009, Note_on_c, 0, 77, 0
2, 14009, Note_on_c, 0, 75, 72
2, 14009, Note_on_c, 0, 79, 85
2, 14023, Control_c, 0, 64, 0
2, 14037, Note_on_c, 0, 79, 0
2, 14037, Note_on_c, 0, 75, 0
2, 14039, Note_on_c, 0, 75, 62
2, 14039, Note_on_c, 0, 79, 80
2, 14052, Control_c, 0, 64, 127
2, 14069, Note_on_c, 0, 75, 0
2, 14069, Note_on_c, 0, 74, 76
2, 14069, Note_on_c, 0, 77, 72
2, 14071, Note_on_c, 0, 79, 0
2, 14074, Control_c, 0, 64, 0
2, 14098, Note_on_c, 0, 77, 0
2, 14098, Note_on_c, 0, 74, 0
2, 14099, Note_on_c, 0, 77, 85
2, 14099, Note_on_c, 0, 74, 80
2, 14109, Control_c, 0, 64, 127
2, 14116, Control_c, 0, 64, 0
2, 14129, Note_on_c, 0, 72, 64
2, 14130, Note_on_c, 0, 74, 0
2, 14130, Note_on_c, 0, 75, 64
2, 14132, Note_on_c, 0, 77, 0
2, 14158, Note_on_c, 0, 75, 0
2, 14158, Note_on_c, 0, 72, 0
2, 14159, Note_on_c, 0, 75, 72
2, 14160, Note_on_c, 0, 72, 80
2, 14183, Control_c, 0, 64, 127
2, 14250, Note_on_c, 0, 75, 0
2, 14252, Note_on_c, 0, 72, 0
2, 14273, Control_c, 0, 64, 0
2, 14279, Note_on_c, 0, 71, 60
2, 14279, Note_on_c, 0, 74, 62
2, 14297, Control_c, 0, 64, 127
2, 14344, Note_on_c, 0, 74, 0
2, 14344, Note_on_c, 0, 71, 0
2, 14358, Control_c, 0, 64, 0
2, 14429, Note_on_c, 0, 79, 89
2, 14459, Note_on_c, 0, 75, 72
2, 14461, Note_on_c, 0, 79, 0
2, 14489, Note_on_c, 0, 75, 0
2, 14489, Note_on_c, 0, 71, 80
2, 14519, Note_on_c, 0, 74, 80
2, 14520, Note_on_c, 0, 71, 0
2, 14579, Note_on_c, 0, 72, 76
2, 14580, Note_on_c, 0, 74, 0
2, 14642, Note_on_c, 0, 72, 0
2, 14669, Note_on_c, 0, 84, 80
2, 14699, Note_on_c, 0, 84, 0
2, 14699, Note_on_c, 0, 80, 80
2, 14729, Note_on_c, 0, 80, 0
2, 14729, Note_on_c, 0, 76, 76
2, 14759, Note_on_c, 0, 79, 80
2, 14761, Note_on_c, 0, 76, 0
2, 14818, Note_on_c, 0, 79, 0
2, 14819, Note_on_c, 0, 78, 62
2, 14878, Note_on_c, 0, 78, 0
2, 14910, Note_on_c, 0, 79, 85
2, 14935, Note_on_c, 0, 79, 0
2, 14969, Note_on_c, 0, 72, 76
2, 14969, Note_on_c, 0, 75, 76
2, 14996, Note_on_c, 0, 75, 0
2, 14996, Note_on_c, 0, 72, 0
2, 15031, Note_on_c, 0, 74, 80
2, 15031, Note_on_c, 0, 77, 72
2, 15056, Note_on_c, 0, 77, 0
2, 15056, Note_on_c, 0, 74, 0
2, 15091, Note_on_c, 0, 74, 76
2, 15091, Note_on_c, 0, 71, 72
2, 15116, Note_on_c, 0, 71, 0
2, 15116, Note_on_c, 0, 74, 0
2, 15149, Note_on_c, 0, 71, 72
2, 15179, Note_on_c, 0, 72, 72
2, 15181, Note_on_c, 0, 71, 0
2, 15209, Note_on_c, 0, 72, 0
2, 15209, Note_on_c, 0, 71, 68
2, 15239, Note_on_c, 0, 71, 0
2, 15239, Note_on_c, 0, 72, 80
2, 15269, Note_on_c, 0, 71, 64
2, 15269, Note_on_c, 0, 74, 60
2, 15270, Note_on_c, 0, 72, 0
2, 15299, Note_on_c, 0, 74, 0
2, 15299, Note_on_c, 0, 71, 0
2, 15299, Note_on_c, 0, 76, 68
2, 15299, Note_on_c, 0, 72, 62
2, 15320, Control_c, 0, 64, 127
2, 15328, Note_on_c, 0, 72, 0
2, 15329, Note_on_c, 0, 76, 0
2, 15329, Note_on_c, 0, 77, 59
2, 15329, Note_on_c, 0, 74, 76
2, 15349, Control_c, 0, 64, 0
2, 15356, Note_on_c, 0, 74, 0
2, 15356, Note_on_c, 0, 77, 0
2, 15359, Note_on_c, 0, 79, 76
2, 15359, Note_on_c, 0, 76, 85
2, 15383, Control_c, 0, 64, 127
2, 15478, Control_c, 0, 64, 0
2, 15479, Note_on_c, 0, 80, 59
2, 15480, Note_on_c, 0, 76, 0
2, 15480, Note_on_c, 0, 79, 0
2, 15480, Note_on_c, 0, 77, 64
2, 15511, Control_c, 0, 64, 127
2, 15596, Control_c, 0, 64, 0
2, 15597, Note_on_c, 0, 80, 0
2, 15598, Note_on_c, 0, 77, 0
2, 15599, Note_on_c, 0, 79, 80
2, 15599, Note_on_c, 0, 82, 68
2, 15627, Control_c, 0, 64, 127
2, 15719, Note_on_c, 0, 77, 72
2, 15719, Note_on_c, 0, 80, 62
2, 15720, Note_on_c, 0, 79, 0
2, 15722, Note_on_c, 0, 82, 0
2, 15723, Control_c, 0, 64, 0
2, 15749, Control_c, 0, 64, 127
2, 15800, Control_c, 0, 64, 0
2, 15805, Note_on_c, 0, 77, 0
2, 15805, Note_on_c, 0, 80, 0
2, 15841, Note_on_c, 0, 74, 76
2, 15841, Note_on_c, 0, 77, 80
2, 15860, Control_c, 0, 64, 127
2, 15956, Control_c, 0, 64, 0
2, 15958, Note_on_c, 0, 77, 0
2, 15959, Note_on_c, 0, 74, 0
2, 15960, Note_on_c, 0, 75, 68
2, 15960, Note_on_c, 0, 79, 62
2, 15981, Control_c, 0, 64, 127
2, 16025, Note_on_c, 0, 75, 0
2, 16026, Note_on_c, 0, 79, 0
2, 16074, Control_c, 0, 64, 0
2, 16079, Note_on_c, 0, 77, 76
2, 16079, Note_on_c, 0, 80, 62
2, 16098, Control_c, 0, 64, 127
2, 16193, Control_c, 0, 64, 0
2, 16198, Note_on_c, 0, 77, 0
2, 16199, Note_on_c, 0, 80, 0
2, 16199, Note_on_c, 0, 75, 64
2, 16199, Note_on_c, 0, 79, 72
2, 16217, Control_c, 0, 64, 127
2, 16264, Note_on_c, 0, 75, 0
2, 16265, Note_on_c, 0, 79, 0
2, 16268, Control_c, 0, 64, 0
2, 16349, Note_on_c, 0, 78, 68
2, 16379, Note_on_c, 0, 78, 0
2, 16379, Note_on_c, 0, 79, 89
2, 16409, Note_on_c, 0, 78, 76
2, 16410, Note_on_c, 0, 79, 0
2, 16439, Note_on_c, 0, 86, 98
2, 16440, Note_on_c, 0, 78, 0
2, 16499, Note_on_c, 0, 86, 0
2, 16499, Note_on_c, 0, 77, 76
2, 16558, Note_on_c, 0, 77, 0
2, 16589, Note_on_c, 0, 76, 85
2, 16619, Note_on_c, 0, 77, 89
2, 16621, Note_on_c, 0, 76, 0
2, 16649, Note_on_c, 0, 76, 85
2, 16651, Note_on_c, 0, 77, 0
2, 16679, Note_on_c, 0, 84, 93
2, 16680, Note_on_c, 0, 76, 0
2, 16739, Note_on_c, 0, 84, 0
2, 16739, Note_on_c, 0, 75, 80
2, 16802, Note_on_c, 0, 75, 0
2, 16829, Note_on_c, 0, 73, 76
2, 16859, Note_on_c, 0, 73, 0
2, 16859, Note_on_c, 0, 72, 76
2, 16889, Note_on_c, 0, 72, 0
2, 16889, Note_on_c, 0, 73, 72
2, 16920, Note_on_c, 0, 76, 85
2, 16921, Note_on_c, 0, 73, 0
2, 16949, Note_on_c, 0, 77, 76
2, 16951, Note_on_c, 0, 76, 0
2, 16980, Note_on_c, 0, 77, 0
2, 16980, Note_on_c, 0, 79, 93
2, 17009, Note_on_c, 0, 80, 72
2, 17010, Note_on_c, 0, 79, 0
2, 17039, Note_on_c, 0, 72, 76
2, 17040, Note_on_c, 0, 80, 0
2, 17159, Note_on_c, 0, 72, 0
2, 17159, Note_on_c, 0, 71, 93
2, 17189, Note_on_c, 0, 74, 89
2, 17191, Note_on_c, 0, 71, 0
2, 17219, Note_on_c, 0, 74, 0
2, 17219, Note_on_c, 0, 75, 72
2, 17249, Note_on_c, 0, 77, 76
2, 17251, Note_on_c, 0, 75, 0
2, 17280, Note_on_c, 0, 75, 62
2, 17281, Note_on_c, 0, 77, 0
2, 17281, Note_on_c, 0, 79, 57
2, 17340, Control_c, 0, 64, 127
2, 17371, Note_on_c, 0, 74, 52
2, 17371, Note_on_c, 0, 77, 57
2, 17372, Note_on_c, 0, 79, 0
2, 17372, Note_on_c, 0, 75, 0
2, 17379, Control_c, 0, 64, 0
2, 17401, Note_on_c, 0, 74, 0
2, 17401, Note_on_c, 0, 75, 64
2, 17401, Note_on_c, 0, 72, 56
2, 17403, Note_on_c, 0, 77, 0
2, 17438, Control_c, 0, 64, 127
2, 17460, Note_on_c, 0, 72, 0
2, 17462, Note_on_c, 0, 75, 0
2, 17513, Control_c, 0, 64, 0
2, 17520, Note_on_c, 0, 77, 76
2, 17520, Note_on_c, 0, 80, 59
2, 17542, Control_c, 0, 64, 127
2, 17609, Note_on_c, 0, 77, 0
2, 17609, Control_c, 0, 64, 0
2, 17610, Note_on_c, 0, 80, 0
2, 17610, Note_on_c, 0, 75, 56
2, 17611, Note_on_c, 0, 79, 59
2, 17639, Note_on_c, 0, 75, 0
2, 17641, Note_on_c, 0, 79, 0
2, 17641, Note_on_c, 0, 74, 56
2, 17641, Note_on_c, 0, 77, 64
2, 17669, Control_c, 0, 64, 127
2, 17705, Note_on_c, 0, 77, 0
2, 17706, Note_on_c, 0, 74, 0
2, 17709, Control_c, 0, 64, 0
2, 17766, Control_c, 0, 64, 127
2, 17789, Note_on_c, 0, 75, 60
2, 17789, Control_c, 0, 64, 0
2, 17790, Note_on_c, 0, 72, 60
2, 17818, Note_on_c, 0, 72, 0
2, 17819, Note_on_c, 0, 75, 0
2, 17819, Note_on_c, 0, 77, 68
2, 17819, Note_on_c, 0, 74, 72
2, 17832, Control_c, 0, 64, 127
2, 17849, Note_on_c, 0, 74, 0
2, 17849, Note_on_c, 0, 77, 0
2, 17849, Note_on_c, 0, 75, 55
2, 17849, Note_on_c, 0, 79, 76
2, 17856, Control_c, 0, 64, 0
2, 17878, Note_on_c, 0, 79, 0
2, 17878, Note_on_c, 0, 75, 0
2, 17879, Note_on_c, 0, 75, 60
2, 17879, Note_on_c, 0, 79, 72
2, 17896, Control_c, 0, 64, 127
2, 17902, Control_c, 0, 64, 0
2, 17909, Note_on_c, 0, 75, 0
2, 17909, Note_on_c, 0, 74, 62
2, 17909, Note_on_c, 0, 77, 64
2, 17911, Note_on_c, 0, 79, 0
2, 17939, Note_on_c, 0, 74, 0
2, 17939, Note_on_c, 0, 74, 59
2, 17969, Note_on_c, 0, 74, 0
2, 17969, Note_on_c, 0, 77, 0
2, 17969, Note_on_c, 0, 75, 60
2, 17969, Note_on_c, 0, 72, 56
2, 17999, Note_on_c, 0, 72, 0
2, 17999, Note_on_c, 0, 75, 0
2, 17999, Note_on_c, 0, 75, 62
2, 18000, Note_on_c, 0, 72, 59
2, 18030, Control_c, 0, 64, 127
2, 18093, Note_on_c, 0, 72, 0
2, 18095, Note_on_c, 0, 75, 0
2, 18119, Note_on_c, 0, 74, 62
2, 18119, Note_on_c, 0, 71, 57
2, 18119, Control_c, 0, 64, 0
2, 18142, Control_c, 0, 64, 127
2, 18200, Control_c, 0, 64, 0
2, 18205, Note_on_c, 0, 71, 0
2, 18205, Note_on_c, 0, 74, 0
2, 18270, Note_on_c, 0, 79, 76
2, 18299, Note_on_c, 0, 75, 72
2, 18302, Note_on_c, 0, 79, 0
2, 18329, Note_on_c, 0, 75, 0
2, 18329, Note_on_c, 0, 71, 68
2, 18359, Note_on_c, 0, 74, 80
2, 18361, Note_on_c, 0, 71, 0
2, 18418, Note_on_c, 0, 74, 0
2, 18419, Note_on_c, 0, 72, 72
2, 18482, Note_on_c, 0, 72, 0
2, 18509, Note_on_c, 0, 84, 89
2, 18539, Note_on_c, 0, 80, 80
2, 18540, Note_on_c, 0, 84, 0
2, 18569, Note_on_c, 0, 80, 0
2, 18569, Note_on_c, 0, 76, 72
2, 18599, Note_on_c, 0, 79, 85
2, 18601, Note_on_c, 0, 76, 0
2, 18658, Note_on_c, 0, 79, 0
2, 18659, Note_on_c, 0, 78, 68
2, 18720, Note_on_c, 0, 78, 0
2, 18749, Note_on_c, 0, 79, 76
2, 18776, Note_on_c, 0, 79, 0
2, 18809, Note_on_c, 0, 72, 72
2, 18809, Note_on_c, 0, 75, 64
2, 18836, Note_on_c, 0, 75, 0
2, 18836, Note_on_c, 0, 72, 0
2, 18869, Note_on_c, 0, 77, 62
2, 18869, Note_on_c, 0, 74, 68
2, 18896, Note_on_c, 0, 74, 0
2, 18896, Note_on_c, 0, 77, 0
2, 18929, Note_on_c, 0, 74, 72
2, 18929, Note_on_c, 0, 71, 80
2, 18955, Note_on_c, 0, 71, 0
2, 18956, Note_on_c, 0, 74, 0
2, 18975, Control_c, 0, 64, 127
2, 18984, Control_c, 0, 64, 0
2, 18989, Note_on_c, 0, 71, 72
2, 19019, Note_on_c, 0, 72, 72
2, 19020, Note_on_c, 0, 71, 0
2, 19049, Note_on_c, 0, 71, 62
2, 19050, Note_on_c, 0, 72, 0
2, 19079, Note_on_c, 0, 72, 89
2, 19081, Note_on_c, 0, 71, 0
2, 19229, Note_on_c, 0, 73, 85
2, 19230, Note_on_c, 0, 72, 0
2, 19259, Note_on_c, 0, 72, 60
2, 19260, Note_on_c, 0, 73, 0
2, 19289, Note_on_c, 0, 73, 80
2, 19291, Note_on_c, 0, 72, 0
2, 19319, Note_on_c, 0, 72, 80
2, 19321, Note_on_c, 0, 73, 0
2, 19468, Note_on_c, 0, 72, 0
2, 19469, Note_on_c, 0, 76, 89
2, 19499, Note_on_c, 0, 77, 85
2, 19501, Note_on_c, 0, 76, 0
2, 19529, Note_on_c, 0, 80, 89
2, 19530, Note_on_c, 0, 77, 0
2, 19559, Note_on_c, 0, 71, 93
2, 19561, Note_on_c, 0, 80, 0
2, 19709, Note_on_c, 0, 69, 89
2, 19712, Note_on_c, 0, 71, 0
2, 19740, Note_on_c, 0, 70, 68
2, 19742, Note_on_c, 0, 69, 0
2, 19770, Note_on_c, 0, 69, 80
2, 19772, Note_on_c, 0, 70, 0
2, 19800, Note_on_c, 0, 70, 72
2, 19802, Note_on_c, 0, 69, 0
2, 19948, Note_on_c, 0, 70, 0
2, 19949, Note_on_c, 0, 73, 80
2, 19979, Note_on_c, 0, 74, 64
2, 19981, Note_on_c, 0, 73, 0
2, 20009, Note_on_c, 0, 75, 76
2, 20011, Note_on_c, 0, 74, 0
2, 20039, Note_on_c, 0, 75, 0
2, 20039, Note_on_c, 0, 76, 85
2, 20069, Note_on_c, 0, 77, 76
2, 20071, Note_on_c, 0, 76, 0
2, 20099, Note_on_c, 0, 77, 0
2, 20099, Note_on_c, 0, 78, 57
2, 20125, Control_c, 0, 64, 127
2, 20129, Note_on_c, 0, 78, 0
2, 20129, Note_on_c, 0, 79, 80
2, 20151, Control_c, 0, 64, 0
2, 20156, Note_on_c, 0, 79, 0
2, 20159, Note_on_c, 0, 82, 89
2, 20177, Control_c, 0, 64, 127
2, 20205, Control_c, 0, 64, 0
2, 20206, Note_on_c, 0, 81, 89
2, 20215, Note_on_c, 0, 82, 0
2, 20219, Note_on_c, 0, 81, 0
2, 20220, Note_on_c, 0, 80, 76
2, 20252, Note_on_c, 0, 80, 0
2, 20429, Note_on_c, 0, 64, 80
2, 20458, Note_on_c, 0, 65, 72
2, 20460, Note_on_c, 0, 64, 0
2, 20488, Note_on_c, 0, 67, 72
2, 20491, Note_on_c, 0, 65, 0
2, 20519, Note_on_c, 0, 68, 80
2, 20521, Note_on_c, 0, 67, 0
2, 20549, Note_on_c, 0, 68, 0
2, 20549, Note_on_c, 0, 67, 76
2, 20579, Note_on_c, 0, 68, 62
2, 20581, Note_on_c, 0, 67, 0
2, 20609, Note_on_c, 0, 69, 80
2, 20610, Note_on_c, 0, 68, 0
2, 20639, Note_on_c, 0, 69, 0
2, 20639, Note_on_c, 0, 70, 55
2, 20640, Note_on_c, 0, 67, 85
2, 20692, Control_c, 0, 64, 127
2, 20724, Note_on_c, 0, 67, 0
2, 20725, Note_on_c, 0, 70, 0
2, 20759, Note_on_c, 0, 63, 62
2, 20759, Note_on_c, 0, 67, 62
2, 20761, Control_c, 0, 64, 0
2, 20775, Control_c, 0, 64, 127
2, 20789, Note_on_c, 0, 67, 0
2, 20790, Note_on_c, 0, 63, 0
2, 20820, Control_c, 0, 64, 0
2, 20820, Note_on_c, 0, 65, 72
2, 20821, Note_on_c, 0, 58, 60
2, 20834, Control_c, 0, 64, 127
2, 20848, Note_on_c, 0, 65, 0
2, 20849, Note_on_c, 0, 58, 0
2, 20881, Note_on_c, 0, 63, 57
2, 20881, Note_on_c, 0, 55, 60
2, 20882, Control_c, 0, 64, 0
2, 20901, Control_c, 0, 64, 127
2, 20939, Note_on_c, 0, 55, 0
2, 20939, Note_on_c, 0, 63, 0
2, 20941, Note_on_c, 0, 58, 76
2, 20945, Control_c, 0, 64, 0
2, 20960, Control_c, 0, 64, 127
2, 20997, Control_c, 0, 64, 0
2, 20998, Note_on_c, 0, 58, 0
2, 21001, Note_on_c, 0, 63, 80
2, 21008, Control_c, 0, 64, 127
2, 21029, Note_on_c, 0, 63, 0
2, 21058, Control_c, 0, 64, 0
2, 21059, Note_on_c, 0, 65, 80
2, 21060, Note_on_c, 0, 62, 72
2, 21071, Control_c, 0, 64, 127
2, 21087, Note_on_c, 0, 62, 0
2, 21088, Note_on_c, 0, 65, 0
2, 21117, Control_c, 0, 64, 0
2, 21119, Note_on_c, 0, 67, 80
2, 21119, Note_on_c, 0, 63, 57
2, 21179, Note_on_c, 0, 68, 68
2, 21182, Note_on_c, 0, 67, 0
2, 21239, Note_on_c, 0, 70, 64
2, 21242, Note_on_c, 0, 68, 0
2, 21300, Note_on_c, 0, 70, 0
2, 21300, Note_on_c, 0, 72, 57
2, 21320, Control_c, 0, 64, 127
2, 21332, Note_on_c, 0, 72, 0
2, 21332, Note_on_c, 0, 63, 0
2, 21356, Control_c, 0, 64, 0
2, 21360, Note_on_c, 0, 63, 55
2, 21361, Note_on_c, 0, 67, 72
2, 21378, Control_c, 0, 64, 127
2, 21432, Control_c, 0, 64, 0
2, 21444, Control_c, 0, 64, 127
2, 21448, Note_on_c, 0, 67, 0
2, 21449, Note_on_c, 0, 68, 62
2, 21471, Control_c, 0, 64, 0
2, 21475, Note_on_c, 0, 63, 0
2, 21477, Note_on_c, 0, 68, 0
2, 21479, Note_on_c, 0, 65, 80
2, 21480, Note_on_c, 0, 62, 50
2, 21509, Note_on_c, 0, 67, 64
2, 21511, Note_on_c, 0, 65, 0
2, 21539, Note_on_c, 0, 68, 68
2, 21541, Note_on_c, 0, 67, 0
2, 21569, Note_on_c, 0, 68, 0
2, 21570, Note_on_c, 0, 69, 64
2, 21575, Note_on_c, 0, 62, 0
2, 21576, Control_c, 0, 64, 127
2, 21596, Note_on_c, 0, 69, 0
2, 21599, Control_c, 0, 64, 0
2, 21601, Note_on_c, 0, 82, 85
2, 21601, Note_on_c, 0, 70, 72
2, 21659, Control_c, 0, 64, 127
2, 21719, Note_on_c, 0, 82, 0
2, 21719, Note_on_c, 0, 79, 72
2, 21722, Control_c, 0, 64, 0
2, 21779, Note_on_c, 0, 77, 68
2, 21781, Note_on_c, 0, 79, 0
2, 21785, Control_c, 0, 64, 127
2, 21808, Note_on_c, 0, 70, 0
2, 21809, Note_on_c, 0, 77, 0
2, 21839, Note_on_c, 0, 75, 64
2, 21839, Note_on_c, 0, 70, 60
2, 21840, Control_c, 0, 64, 0
2, 21865, Note_on_c, 0, 70, 0
2, 21866, Note_on_c, 0, 75, 0
2, 21899, Note_on_c, 0, 74, 62
2, 21899, Note_on_c, 0, 77, 68
2, 21926, Note_on_c, 0, 77, 0
2, 21926, Note_on_c, 0, 74, 0
2, 21959, Note_on_c, 0, 79, 80
2, 21959, Note_on_c, 0, 75, 76
2, 21985, Note_on_c, 0, 75, 0
2, 21986, Note_on_c, 0, 79, 0
2, 22019, Note_on_c, 0, 75, 72
2, 22019, Note_on_c, 0, 80, 80
2, 22045, Note_on_c, 0, 75, 0
2, 22046, Note_on_c, 0, 80, 0
2, 22080, Note_on_c, 0, 82, 80
2, 22080, Note_on_c, 0, 75, 72
2, 22083, Control_c, 0, 64, 127
2, 22108, Note_on_c, 0, 75, 0
2, 22108, Note_on_c, 0, 82, 0
2, 22136, Control_c, 0, 64, 0
2, 22137, Note_on_c, 0, 83, 80
2, 22152, Note_on_c, 0, 83, 0
2, 22154, Note_on_c, 0, 84, 72
2, 22169, Note_on_c, 0, 80, 72
2, 22172, Note_on_c, 0, 84, 0
2, 22184, Note_on_c, 0, 77, 57
2, 22185, Note_on_c, 0, 80, 0
2, 22199, Note_on_c, 0, 75, 55
2, 22201, Note_on_c, 0, 77, 0
2, 22259, Note_on_c, 0, 79, 72
2, 22262, Note_on_c, 0, 75, 0
2, 22275, Note_on_c, 0, 77, 60
2, 22277, Note_on_c, 0, 79, 0
2, 22289, Note_on_c, 0, 76, 80
2, 22291, Note_on_c, 0, 77, 0
2, 22304, Note_on_c, 0, 77, 57
2, 22307, Note_on_c, 0, 76, 0
2, 22318, Note_on_c, 0, 77, 0
2, 22320, Note_on_c, 0, 74, 56
2, 22320, Note_on_c, 0, 77, 72
2, 22438, Note_on_c, 0, 77, 0
2, 22438, Note_on_c, 0, 74, 0
2, 22439, Note_on_c, 0, 75, 60
2, 22500, Note_on_c, 0, 75, 0
2, 22561, Note_on_c, 0, 72, 89
2, 22574, Control_c, 0, 64, 127
2, 22678, Note_on_c, 0, 72, 0
2, 22678, Control_c, 0, 64, 0
2, 22679, Note_on_c, 0, 75, 80
2, 22709, Note_on_c, 0, 73, 76
2, 22711, Note_on_c, 0, 75, 0
2, 22739, Note_on_c, 0, 70, 85
2, 22741, Note_on_c, 0, 73, 0
2, 22769, Note_on_c, 0, 67, 72
2, 22772, Note_on_c, 0, 70, 0
2, 22801, Note_on_c, 0, 68, 80
2, 22802, Note_on_c, 0, 67, 0
2, 22889, Note_on_c, 0, 70, 72
2, 22891, Note_on_c, 0, 68, 0
2, 22903, Note_on_c, 0, 70, 0
2, 22904, Note_on_c, 0, 72, 76
2, 22918, Note_on_c, 0, 70, 72
2, 22922, Note_on_c, 0, 72, 0
2, 22986, Note_on_c, 0, 70, 0
2, 23041, Note_on_c, 0, 73, 89
2, 23060, Control_c, 0, 64, 127
2, 23151, Control_c, 0, 64, 0
2, 23156, Note_on_c, 0, 73, 0
2, 23158, Note_on_c, 0, 77, 80
2, 23189, Note_on_c, 0, 75, 76
2, 23191, Note_on_c, 0, 77, 0
2, 23219, Note_on_c, 0, 73, 85
2, 23222, Note_on_c, 0, 75, 0
2, 23249, Note_on_c, 0, 73, 0
2, 23249, Note_on_c, 0, 72, 76
2, 23281, Note_on_c, 0, 70, 76
2, 23282, Note_on_c, 0, 72, 0
2, 23371, Note_on_c, 0, 72, 72
2, 23372, Note_on_c, 0, 70, 0
2, 23388, Note_on_c, 0, 72, 0
2, 23388, Note_on_c, 0, 73, 72
2, 23401, Note_on_c, 0, 72, 80
2, 23403, Note_on_c, 0, 73, 0
2, 23465, Note_on_c, 0, 72, 0
2, 23519, Note_on_c, 0, 84, 98
2, 23540, Control_c, 0, 64, 127
2, 23609, Note_on_c, 0, 76, 76
2, 23610, Note_on_c, 0, 84, 0
2, 23619, Control_c, 0, 64, 0
2, 23639, Note_on_c, 0, 76, 0
2, 23639, Note_on_c, 0, 77, 72
2, 23669, Note_on_c, 0, 77, 0
2, 23669, Note_on_c, 0, 79, 89
2, 23695, Note_on_c, 0, 79, 0
2, 23699, Note_on_c, 0, 80, 89
2, 23726, Note_on_c, 0, 80, 0
2, 23729, Note_on_c, 0, 81, 93
2, 23755, Note_on_c, 0, 81, 0
2, 23760, Note_on_c, 0, 82, 93
2, 23772, Control_c, 0, 64, 127
2, 23849, Note_on_c, 0, 74, 72
2, 23851, Note_on_c, 0, 82, 0
2, 23858, Control_c, 0, 64, 0
2, 23880, Note_on_c, 0, 75, 72
2, 23882, Note_on_c, 0, 74, 0
2, 23910, Note_on_c, 0, 75, 0
2, 23910, Note_on_c, 0, 77, 93
2, 23935, Note_on_c, 0, 77, 0
2, 23940, Note_on_c, 0, 78, 76
2, 23966, Note_on_c, 0, 78, 0
2, 23969, Note_on_c, 0, 79, 85
2, 23996, Note_on_c, 0, 79, 0
2, 24000, Note_on_c, 0, 79, 80
2, 24009, Control_c, 0, 64, 127
2, 24031, Note_on_c, 0, 72, 80
2, 24032, Note_on_c, 0, 79, 0
2, 24043, Control_c, 0, 64, 0
2, 24061, Note_on_c, 0, 72, 0
2, 24061, Note_on_c, 0, 80, 89
2, 24074, Control_c, 0, 64, 127
2, 24089, Note_on_c, 0, 80, 0
2, 24091, Note_on_c, 0, 77, 76
2, 24105, Control_c, 0, 64, 0
2, 24119, Note_on_c, 0, 77, 0
2, 24121, Note_on_c, 0, 77, 85
2, 24132, Control_c, 0, 64, 127
2, 24151, Note_on_c, 0, 77, 0
2, 24151, Note_on_c, 0, 75, 76
2, 24162, Control_c, 0, 64, 0
2, 24179, Note_on_c, 0, 75, 0
2, 24181, Note_on_c, 0, 75, 85
2, 24191, Control_c, 0, 64, 127
2, 24207, Control_c, 0, 64, 0
2, 24211, Note_on_c, 0, 75, 0
2, 24211, Note_on_c, 0, 74, 76
2, 24241, Note_on_c, 0, 74, 0
2, 24241, Note_on_c, 0, 75, 80
2, 24271, Note_on_c, 0, 75, 0
2, 24271, Note_on_c, 0, 74, 76
2, 24301, Note_on_c, 0, 74, 0
2, 24301, Note_on_c, 0, 75, 72
2, 24329, Note_on_c, 0, 75, 0
2, 24331, Note_on_c, 0, 77, 80
2, 24361, Note_on_c, 0, 77, 0
2, 24361, Note_on_c, 0, 75, 76
2, 24390, Note_on_c, 0, 74, 72
2, 24391, Note_on_c, 0, 75, 0
2, 24421, Note_on_c, 0, 73, 80
2, 24422, Note_on_c, 0, 74, 0
2, 24451, Note_on_c, 0, 73, 0
2, 24451, Note_on_c, 0, 70, 68
2, 24480, Note_on_c, 0, 70, 0
2, 24481, Note_on_c, 0, 72, 76
2, 24496, Control_c, 0, 64, 127
2, 24597, Control_c, 0, 64, 0
2, 24598, Note_on_c, 0, 72, 0
2, 24599, Note_on_c, 0, 75, 76
2, 24629, Note_on_c, 0, 73, 76
2, 24631, Note_on_c, 0, 75, 0
2, 24659, Note_on_c, 0, 70, 72
2, 24661, Note_on_c, 0, 73, 0
2, 24689, Note_on_c, 0, 67, 57
2, 24691, Note_on_c, 0, 70, 0
2, 24719, Note_on_c, 0, 68, 64
2, 24722, Note_on_c, 0, 67, 0
2, 24778, Control_c, 0, 64, 127
2, 24810, Note_on_c, 0, 68, 0
2, 24810, Note_on_c, 0, 70, 68
2, 24819, Control_c, 0, 64, 0
2, 24825, Note_on_c, 0, 72, 64
2, 24837, Note_on_c, 0, 70, 0
2, 24839, Note_on_c, 0, 70, 60
2, 24850, Note_on_c, 0, 72, 0
2, 24905, Note_on_c, 0, 70, 0
2, 24959, Note_on_c, 0, 73, 72
2, 24980, Control_c, 0, 64, 127
2, 25071, Control_c, 0, 64, 0
2, 25079, Note_on_c, 0, 73, 0
2, 25079, Note_on_c, 0, 77, 72
2, 25109, Note_on_c, 0, 75, 62
2, 25112, Note_on_c, 0, 77, 0
2, 25139, Note_on_c, 0, 73, 68
2, 25141, Note_on_c, 0, 75, 0
2, 25169, Note_on_c, 0, 73, 0
2, 25169, Note_on_c, 0, 72, 76
2, 25200, Note_on_c, 0, 70, 57
2, 25202, Note_on_c, 0, 72, 0
2, 25288, Note_on_c, 0, 72, 64
2, 25291, Note_on_c, 0, 70, 0
2, 25304, Note_on_c, 0, 73, 72
2, 25306, Note_on_c, 0, 72, 0
2, 25319, Note_on_c, 0, 73, 0
2, 25319, Note_on_c, 0, 72, 76
2, 25379, Control_c, 0, 64, 127
2, 25398, Note_on_c, 0, 72, 0
2, 25431, Control_c, 0, 64, 0
2, 25438, Note_on_c, 0, 84, 80
2, 25462, Control_c, 0, 64, 127
2, 25529, Note_on_c, 0, 76, 68
2, 25530, Note_on_c, 0, 84, 0
2, 25532, Control_c, 0, 64, 0
2, 25559, Note_on_c, 0, 77, 62
2, 25562, Note_on_c, 0, 76, 0
2, 25564, Control_c, 0, 64, 127
2, 25585, Control_c, 0, 64, 0
2, 25589, Note_on_c, 0, 79, 80
2, 25591, Note_on_c, 0, 77, 0
2, 25616, Note_on_c, 0, 79, 0
2, 25619, Note_on_c, 0, 80, 76
2, 25646, Note_on_c, 0, 80, 0
2, 25649, Note_on_c, 0, 81, 85
2, 25675, Note_on_c, 0, 81, 0
2, 25681, Note_on_c, 0, 82, 85
2, 25694, Control_c, 0, 64, 127
2, 25768, Control_c, 0, 64, 0
2, 25771, Note_on_c, 0, 82, 0
2, 25771, Note_on_c, 0, 74, 62
2, 25800, Note_on_c, 0, 75, 64
2, 25801, Note_on_c, 0, 74, 0
2, 25830, Note_on_c, 0, 75, 0
2, 25830, Note_on_c, 0, 77, 76
2, 25855, Note_on_c, 0, 77, 0
2, 25860, Note_on_c, 0, 78, 64
2, 25885, Note_on_c, 0, 78, 0
2, 25890, Note_on_c, 0, 79, 72
2, 25915, Note_on_c, 0, 79, 0
2, 25920, Note_on_c, 0, 79, 80
2, 25926, Control_c, 0, 64, 127
2, 25951, Note_on_c, 0, 79, 0
2, 25951, Note_on_c, 0, 72, 68
2, 25957, Control_c, 0, 64, 0
2, 25981, Note_on_c, 0, 72, 0
2, 25981, Note_on_c, 0, 80, 64
2, 25999, Control_c, 0, 64, 127
2, 26010, Note_on_c, 0, 77, 76
2, 26011, Note_on_c, 0, 80, 0
2, 26034, Control_c, 0, 64, 0
2, 26037, Note_on_c, 0, 77, 0
2, 26041, Note_on_c, 0, 77, 68
2, 26056, Control_c, 0, 64, 127
2, 26070, Note_on_c, 0, 77, 0
2, 26071, Note_on_c, 0, 75, 60
2, 26075, Control_c, 0, 64, 0
2, 26097, Control_c, 0, 64, 127
2, 26099, Note_on_c, 0, 75, 0
2, 26101, Note_on_c, 0, 75, 72
2, 26121, Control_c, 0, 64, 0
2, 26130, Note_on_c, 0, 75, 0
2, 26131, Note_on_c, 0, 74, 64
2, 26161, Note_on_c, 0, 74, 0
2, 26161, Note_on_c, 0, 75, 72
2, 26191, Note_on_c, 0, 75, 0
2, 26191, Note_on_c, 0, 74, 76
2, 26221, Note_on_c, 0, 74, 0
2, 26221, Note_on_c, 0, 75, 64
2, 26251, Note_on_c, 0, 75, 0
2, 26251, Note_on_c, 0, 77, 64
2, 26281, Note_on_c, 0, 77, 0
2, 26281, Note_on_c, 0, 75, 62
2, 26310, Note_on_c, 0, 75, 0
2, 26311, Note_on_c, 0, 74, 64
2, 26340, Note_on_c, 0, 74, 0
2, 26340, Note_on_c, 0, 73, 64
2, 26354, Control_c, 0, 64, 127
2, 26368, Note_on_c, 0, 73, 0
2, 26369, Note_on_c, 0, 70, 62
2, 26393, Control_c, 0, 64, 0
2, 26400, Note_on_c, 0, 70, 0
2, 26400, Note_on_c, 0, 72, 62
2, 26400, Note_on_c, 0, 69, 68
2, 26413, Control_c, 0, 64, 127
2, 26521, Note_on_c, 0, 71, 76
2, 26522, Note_on_c, 0, 72, 0
2, 26522, Control_c, 0, 64, 0
2, 26551, Note_on_c, 0, 71, 0
2, 26551, Note_on_c, 0, 72, 64
2, 26580, Note_on_c, 0, 73, 72
2, 26581, Note_on_c, 0, 72, 0
2, 26600, Control_c, 0, 64, 127
2, 26608, Note_on_c, 0, 73, 0
2, 26609, Note_on_c, 0, 72, 80
2, 26612, Note_on_c, 0, 69, 0
2, 26635, Note_on_c, 0, 72, 0
2, 26641, Note_on_c, 0, 68, 62
2, 26641, Note_on_c, 0, 77, 85
2, 26644, Control_c, 0, 64, 0
2, 26666, Control_c, 0, 64, 127
2, 26698, Note_on_c, 0, 77, 0
2, 26701, Note_on_c, 0, 70, 72
2, 26702, Control_c, 0, 64, 0
2, 26715, Control_c, 0, 64, 127
2, 26735, Note_on_c, 0, 70, 0
2, 26756, Note_on_c, 0, 68, 0
2, 26761, Note_on_c, 0, 69, 75
2, 26761, Note_on_c, 0, 67, 64
2, 26768, Control_c, 0, 64, 0
2, 26791, Note_on_c, 0, 69, 0
2, 26791, Note_on_c, 0, 70, 72
2, 26821, Note_on_c, 0, 70, 0
2, 26821, Note_on_c, 0, 72, 85
2, 26845, Control_c, 0, 64, 127
2, 26850, Note_on_c, 0, 70, 64
2, 26851, Note_on_c, 0, 72, 0
2, 26854, Note_on_c, 0, 67, 0
2, 26881, Note_on_c, 0, 70, 0
2, 26881, Note_on_c, 0, 66, 64
2, 26881, Note_on_c, 0, 75, 76
2, 26888, Control_c, 0, 64, 0
2, 26911, Control_c, 0, 64, 127
2, 26940, Note_on_c, 0, 75, 0
2, 26941, Note_on_c, 0, 68, 72
2, 26943, Control_c, 0, 64, 0
2, 26957, Control_c, 0, 64, 127
2, 26975, Note_on_c, 0, 66, 0
2, 26999, Control_c, 0, 64, 0
2, 27001, Note_on_c, 0, 65, 76
2, 27012, Control_c, 0, 64, 127
2, 27028, Note_on_c, 0, 65, 0
2, 27028, Note_on_c, 0, 68, 0
2, 27030, Note_on_c, 0, 70, 64
2, 27031, Note_on_c, 0, 67, 76
2, 27038, Control_c, 0, 64, 0
2, 27052, Control_c, 0, 64, 127
2, 27058, Note_on_c, 0, 70, 0
2, 27060, Note_on_c, 0, 67, 0
2, 27060, Note_on_c, 0, 68, 68
2, 27060, Control_c, 0, 64, 0
2, 27060, Note_on_c, 0, 72, 72
2, 27073, Control_c, 0, 64, 127
2, 27088, Note_on_c, 0, 72, 0
2, 27088, Note_on_c, 0, 68, 0
2, 27089, Note_on_c, 0, 70, 64
2, 27089, Control_c, 0, 64, 0
2, 27090, Note_on_c, 0, 73, 72
2, 27104, Control_c, 0, 64, 127
2, 27118, Note_on_c, 0, 73, 0
2, 27119, Note_on_c, 0, 70, 0
2, 27120, Note_on_c, 0, 72, 68
2, 27120, Note_on_c, 0, 68, 64
2, 27124, Control_c, 0, 64, 0
2, 27154, Control_c, 0, 64, 127
2, 27236, Note_on_c, 0, 68, 0
2, 27238, Note_on_c, 0, 72, 0
2, 27238, Control_c, 0, 64, 0
2, 27239, Note_on_c, 0, 70, 62
2, 27239, Note_on_c, 0, 67, 55
2, 27253, Control_c, 0, 64, 127
2, 27275, Note_on_c, 0, 67, 0
2, 27276, Note_on_c, 0, 70, 0
2, 27321, Control_c, 0, 64, 0
2, 27359, Note_on_c, 0, 80, 102
2, 27369, Control_c, 0, 64, 127
2, 27420, Note_on_c, 0, 80, 0
2, 27479, Note_on_c, 0, 79, 85
2, 27480, Control_c, 0, 64, 0
2, 27509, Note_on_c, 0, 77, 85
2, 27512, Note_on_c, 0, 79, 0
2, 27539, Note_on_c, 0, 75, 80
2, 27540, Note_on_c, 0, 77, 0
2, 27545, Control_c, 0, 64, 127
2, 27569, Note_on_c, 0, 74, 85
2, 27570, Note_on_c, 0, 75, 0
2, 27594, Control_c, 0, 64, 0
2, 27600, Note_on_c, 0, 74, 0
2, 27601, Note_on_c, 0, 85, 98
2, 27656, Control_c, 0, 64, 127
2, 27688, Note_on_c, 0, 85, 0
2, 27719, Note_on_c, 0, 84, 80
2, 27724, Control_c, 0, 64, 0
2, 27749, Note_on_c, 0, 82, 80
2, 27752, Note_on_c, 0, 84, 0
2, 27779, Note_on_c, 0, 80, 80
2, 27780, Note_on_c, 0, 82, 0
2, 27809, Note_on_c, 0, 79, 62
2, 27810, Note_on_c, 0, 80, 0
2, 27819, Control_c, 0, 64, 127
2, 27833, Control_c, 0, 64, 0
2, 27839, Note_on_c, 0, 79, 0
2, 27840, Note_on_c, 0, 80, 85
2, 27849, Control_c, 0, 64, 127
2, 27870, Note_on_c, 0, 72, 72
2, 27870, Control_c, 0, 64, 0
2, 27871, Note_on_c, 0, 80, 0
2, 27884, Control_c, 0, 64, 127
2, 27900, Note_on_c, 0, 72, 0
2, 27900, Control_c, 0, 64, 0
2, 27901, Note_on_c, 0, 70, 76
2, 27928, Control_c, 0, 64, 127
2, 27929, Note_on_c, 0, 70, 0
2, 27929, Note_on_c, 0, 77, 62
2, 27954, Control_c, 0, 64, 0
2, 27960, Note_on_c, 0, 75, 68
2, 27962, Note_on_c, 0, 77, 0
2, 27990, Note_on_c, 0, 68, 64
2, 27992, Note_on_c, 0, 75, 0
2, 28019, Note_on_c, 0, 73, 76
2, 28020, Note_on_c, 0, 68, 0
2, 28049, Note_on_c, 0, 73, 0
2, 28049, Note_on_c, 0, 67, 76
2, 28079, Note_on_c, 0, 70, 76
2, 28080, Note_on_c, 0, 67, 0
2, 28108, Control_c, 0, 64, 127
2, 28193, Control_c, 0, 64, 0
2, 28198, Note_on_c, 0, 70, 0
2, 28199, Note_on_c, 0, 68, 68
2, 28229, Note_on_c, 0, 70, 56
2, 28231, Note_on_c, 0, 68, 0
2, 28259, Note_on_c, 0, 70, 0
2, 28259, Note_on_c, 0, 71, 59
2, 28283, Control_c, 0, 64, 127
2, 28289, Note_on_c, 0, 72, 72
2, 28290, Note_on_c, 0, 71, 0
2, 28314, Control_c, 0, 64, 0
2, 28316, Note_on_c, 0, 72, 0
2, 28320, Note_on_c, 0, 69, 60
2, 28320, Note_on_c, 0, 72, 60
2, 28335, Control_c, 0, 64, 127
2, 28437, Note_on_c, 0, 71, 60
2, 28438, Note_on_c, 0, 72, 0
2, 28438, Control_c, 0, 64, 0
2, 28469, Note_on_c, 0, 71, 0
2, 28469, Note_on_c, 0, 72, 59
2, 28499, Note_on_c, 0, 73, 68
2, 28500, Note_on_c, 0, 72, 0
2, 28523, Control_c, 0, 64, 127
2, 28529, Note_on_c, 0, 73, 0
2, 28529, Note_on_c, 0, 72, 56
2, 28532, Note_on_c, 0, 69, 0
2, 28555, Note_on_c, 0, 72, 0
2, 28561, Note_on_c, 0, 68, 51
2, 28561, Control_c, 0, 64, 0
2, 28561, Note_on_c, 0, 77, 68
2, 28581, Control_c, 0, 64, 127
2, 28595, Note_on_c, 0, 77, 0
2, 28620, Note_on_c, 0, 70, 72
2, 28645, Note_on_c, 0, 68, 0
2, 28647, Note_on_c, 0, 70, 0
2, 28680, Note_on_c, 0, 67, 56
2, 28680, Note_on_c, 0, 69, 76
2, 28681, Control_c, 0, 64, 0
2, 28710, Note_on_c, 0, 70, 57
2, 28712, Note_on_c, 0, 69, 0
2, 28739, Note_on_c, 0, 72, 72
2, 28740, Note_on_c, 0, 70, 0
2, 28761, Control_c, 0, 64, 127
2, 28769, Note_on_c, 0, 72, 0
2, 28769, Note_on_c, 0, 70, 64
2, 28772, Note_on_c, 0, 67, 0
2, 28797, Note_on_c, 0, 70, 0
2, 28799, Note_on_c, 0, 66, 56
2, 28799, Note_on_c, 0, 75, 52
2, 28806, Control_c, 0, 64, 0
2, 28823, Control_c, 0, 64, 127
2, 28855, Note_on_c, 0, 75, 0
2, 28859, Note_on_c, 0, 68, 64
2, 28860, Control_c, 0, 64, 0
2, 28873, Control_c, 0, 64, 127
2, 28894, Note_on_c, 0, 66, 0
2, 28914, Control_c, 0, 64, 0
2, 28919, Note_on_c, 0, 65, 64
2, 28926, Control_c, 0, 64, 127
2, 28947, Note_on_c, 0, 65, 0
2, 28947, Note_on_c, 0, 68, 0
2, 28949, Note_on_c, 0, 70, 62
2, 28949, Note_on_c, 0, 67, 50
2, 28953, Control_c, 0, 64, 0
2, 28966, Control_c, 0, 64, 127
2, 28976, Control_c, 0, 64, 0
2, 28979, Note_on_c, 0, 67, 0
2, 28979, Note_on_c, 0, 70, 0
2, 28979, Note_on_c, 0, 68, 57
2, 28980, Note_on_c, 0, 72, 56
2, 28990, Control_c, 0, 64, 127
2, 29002, Control_c, 0, 64, 0
2, 29008, Note_on_c, 0, 72, 0
2, 29009, Note_on_c, 0, 68, 0
2, 29009, Note_on_c, 0, 70, 55
2, 29009, Note_on_c, 0, 73, 43
2, 29012, Control_c, 0, 64, 127
2, 29039, Note_on_c, 0, 73, 0
2, 29039, Note_on_c, 0, 70, 0
2, 29039, Note_on_c, 0, 72, 59
2, 29040, Note_on_c, 0, 68, 57
2, 29043, Control_c, 0, 64, 0
2, 29059, Control_c, 0, 64, 127
2, 29135, Note_on_c, 0, 68, 0
2, 29135, Note_on_c, 0, 72, 0
2, 29159, Note_on_c, 0, 67, 56
2, 29159, Note_on_c, 0, 70, 57
2, 29159, Control_c, 0, 64, 0
2, 29173, Control_c, 0, 64, 127
2, 29192, Note_on_c, 0, 67, 0
2, 29193, Note_on_c, 0, 70, 0
2, 29266, Control_c, 0, 64, 0
2, 29279, Note_on_c, 0, 80, 76
2, 29335, Control_c, 0, 64, 127
2, 29397, Control_c, 0, 64, 0
2, 29398, Note_on_c, 0, 80, 0
2, 29398, Note_on_c, 0, 79, 76
2, 29428, Note_on_c, 0, 77, 72
2, 29431, Note_on_c, 0, 79, 0
2, 29459, Note_on_c, 0, 75, 68
2, 29461, Note_on_c, 0, 77, 0
2, 29463, Control_c, 0, 64, 127
2, 29481, Control_c, 0, 64, 0
2, 29489, Note_on_c, 0, 74, 72
2, 29490, Note_on_c, 0, 75, 0
2, 29519, Note_on_c, 0, 85, 62
2, 29522, Note_on_c, 0, 74, 0
2, 29559, Control_c, 0, 64, 127
2, 29584, Note_on_c, 0, 85, 0
2, 29639, Note_on_c, 0, 84, 60
2, 29639, Control_c, 0, 64, 0
2, 29654, Control_c, 0, 64, 127
2, 29669, Note_on_c, 0, 82, 64
2, 29672, Note_on_c, 0, 84, 0
2, 29676, Control_c, 0, 64, 0
2, 29699, Note_on_c, 0, 80, 76
2, 29702, Note_on_c, 0, 82, 0
2, 29729, Note_on_c, 0, 80, 0
2, 29729, Note_on_c, 0, 79, 72
2, 29759, Note_on_c, 0, 79, 0
2, 29760, Note_on_c, 0, 80, 68
2, 29778, Control_c, 0, 64, 127
2, 29788, Note_on_c, 0, 80, 0
2, 29789, Note_on_c, 0, 72, 64
2, 29816, Control_c, 0, 64, 0
2, 29819, Note_on_c, 0, 72, 0
2, 29821, Note_on_c, 0, 70, 62
2, 29843, Control_c, 0, 64, 127
2, 29850, Note_on_c, 0, 70, 0
2, 29851, Note_on_c, 0, 77, 62
2, 29869, Control_c, 0, 64, 0
2, 29879, Note_on_c, 0, 77, 0
2, 29880, Note_on_c, 0, 75, 60
2, 29898, Control_c, 0, 64, 127
2, 29910, Note_on_c, 0, 68, 64
2, 29911, Note_on_c, 0, 75, 0
2, 29919, Control_c, 0, 64, 0
2, 29939, Note_on_c, 0, 73, 64
2, 29940, Note_on_c, 0, 68, 0
2, 29969, Note_on_c, 0, 73, 0
2, 29969, Note_on_c, 0, 67, 64
2, 29999, Note_on_c, 0, 70, 62
2, 30001, Note_on_c, 0, 67, 0
2, 30010, Control_c, 0, 64, 127
2, 30118, Note_on_c, 0, 70, 0
2, 30119, Note_on_c, 0, 68, 60
2, 30123, Control_c, 0, 64, 0
2, 30149, Note_on_c, 0, 70, 60
2, 30151, Note_on_c, 0, 68, 0
2, 30179, Note_on_c, 0, 70, 0
2, 30179, Note_on_c, 0, 71, 64
2, 30209, Note_on_c, 0, 71, 0
2, 30209, Note_on_c, 0, 72, 68
2, 30242, Note_on_c, 0, 72, 0
2, 30269, Note_on_c, 0, 72, 76
2, 30299, Note_on_c, 0, 73, 72
2, 30301, Note_on_c, 0, 72, 0
2, 30329, Note_on_c, 0, 73, 0
2, 30330, Note_on_c, 0, 72, 80
2, 30357, Note_on_c, 0, 72, 0
2, 30389, Note_on_c, 0, 72, 76
2, 30419, Note_on_c, 0, 84, 80
2, 30420, Note_on_c, 0, 72, 0
2, 30449, Note_on_c, 0, 72, 62
2, 30450, Note_on_c, 0, 84, 0
2, 30478, Note_on_c, 0, 72, 0
2, 30510, Note_on_c, 0, 70, 72
2, 30539, Note_on_c, 0, 70, 0
2, 30539, Note_on_c, 0, 71, 76
2, 30569, Note_on_c, 0, 71, 0
2, 30569, Note_on_c, 0, 70, 72
2, 30598, Note_on_c, 0, 70, 0
2, 30629, Note_on_c, 0, 70, 76
2, 30659, Note_on_c, 0, 82, 80
2, 30661, Note_on_c, 0, 70, 0
2, 30671, Control_c, 0, 64, 127
2, 30689, Note_on_c, 0, 70, 72
2, 30690, Note_on_c, 0, 82, 0
2, 30715, Control_c, 0, 64, 0
2, 30718, Note_on_c, 0, 70, 0
2, 30751, Note_on_c, 0, 69, 80
2, 30781, Note_on_c, 0, 69, 0
2, 30781, Note_on_c, 0, 70, 76
2, 30811, Note_on_c, 0, 70, 0
2, 30811, Note_on_c, 0, 69, 80
2, 30840, Note_on_c, 0, 69, 0
2, 30841, Note_on_c, 0, 75, 68
2, 30870, Note_on_c, 0, 69, 64
2, 30871, Note_on_c, 0, 75, 0
2, 30900, Note_on_c, 0, 78, 80
2, 30901, Note_on_c, 0, 69, 0
2, 30929, Note_on_c, 0, 69, 56
2, 30931, Note_on_c, 0, 78, 0
2, 30959, Note_on_c, 0, 69, 0
2, 30960, Note_on_c, 0, 70, 60
2, 30978, Control_c, 0, 64, 127
2, 31103, Control_c, 0, 64, 0
2, 31108, Note_on_c, 0, 70, 0
2, 31109, Note_on_c, 0, 69, 72
2, 31139, Note_on_c, 0, 78, 76
2, 31140, Note_on_c, 0, 69, 0
2, 31170, Note_on_c, 0, 69, 62
2, 31172, Note_on_c, 0, 78, 0
2, 31201, Note_on_c, 0, 70, 76
2, 31202, Note_on_c, 0, 69, 0
2, 31348, Note_on_c, 0, 70, 0
2, 31349, Note_on_c, 0, 69, 76
2, 31379, Note_on_c, 0, 78, 72
2, 31382, Note_on_c, 0, 69, 0
2, 31409, Note_on_c, 0, 69, 72
2, 31410, Note_on_c, 0, 78, 0
2, 31439, Note_on_c, 0, 69, 0
2, 31439, Note_on_c, 0, 70, 72
2, 31515, Control_c, 0, 64, 127
2, 31589, Note_on_c, 0, 70, 0
2, 31590, Note_on_c, 0, 74, 85
2, 31596, Control_c, 0, 64, 0
2, 31619, Note_on_c, 0, 74, 0
2, 31619, Note_on_c, 0, 77, 85
2, 31648, Control_c, 0, 64, 127
2, 31649, Note_on_c, 0, 80, 85
2, 31650, Note_on_c, 0, 77, 0
2, 31677, Note_on_c, 0, 80, 0
2, 31680, Note_on_c, 0, 83, 72
2, 31683, Control_c, 0, 64, 0
2, 31708, Note_on_c, 0, 83, 0
2, 31710, Note_on_c, 0, 84, 64
2, 31738, Note_on_c, 0, 84, 0
2, 31740, Note_on_c, 0, 86, 76
2, 31769, Note_on_c, 0, 86, 0
2, 31769, Note_on_c, 0, 84, 80
2, 31799, Note_on_c, 0, 82, 76
2, 31802, Note_on_c, 0, 84, 0
2, 31829, Note_on_c, 0, 80, 72
2, 31832, Note_on_c, 0, 82, 0
2, 31859, Note_on_c, 0, 79, 64
2, 31860, Note_on_c, 0, 80, 0
2, 31865, Control_c, 0, 64, 127
2, 31880, Control_c, 0, 64, 0
2, 31890, Note_on_c, 0, 79, 0
2, 31890, Note_on_c, 0, 77, 76
2, 31921, Note_on_c, 0, 75, 59
2, 31922, Note_on_c, 0, 77, 0
2, 32010, Note_on_c, 0, 77, 68
2, 32011, Note_on_c, 0, 75, 0
2, 32024, Note_on_c, 0, 75, 55
2, 32028, Note_on_c, 0, 77, 0
2, 32040, Note_on_c, 0, 75, 0
2, 32040, Note_on_c, 0, 74, 76
2, 32097, Note_on_c, 0, 74, 0
2, 32160, Note_on_c, 0, 70, 57
2, 32161, Note_on_c, 0, 67, 68
2, 32171, Control_c, 0, 64, 127
2, 32195, Note_on_c, 0, 67, 0
2, 32196, Note_on_c, 0, 70, 0
2, 32280, Note_on_c, 0, 67, 68
2, 32280, Note_on_c, 0, 63, 62
2, 32280, Control_c, 0, 64, 0
2, 32292, Control_c, 0, 64, 127
2, 32308, Note_on_c, 0, 63, 0
2, 32308, Note_on_c, 0, 67, 0
2, 32340, Note_on_c, 0, 65, 72
2, 32340, Note_on_c, 0, 58, 51
2, 32342, Control_c, 0, 64, 0
2, 32354, Control_c, 0, 64, 127
2, 32367, Note_on_c, 0, 58, 0
2, 32367, Note_on_c, 0, 65, 0
2, 32400, Note_on_c, 0, 63, 59
2, 32400, Note_on_c, 0, 55, 62
2, 32402, Control_c, 0, 64, 0
2, 32418, Control_c, 0, 64, 127
2, 32458, Note_on_c, 0, 55, 0
2, 32458, Note_on_c, 0, 63, 0
2, 32459, Note_on_c, 0, 58, 68
2, 32464, Control_c, 0, 64, 0
2, 32477, Control_c, 0, 64, 127
2, 32515, Control_c, 0, 64, 0
2, 32517, Note_on_c, 0, 58, 0
2, 32519, Note_on_c, 0, 63, 72
2, 32527, Control_c, 0, 64, 127
2, 32549, Note_on_c, 0, 63, 0
2, 32575, Control_c, 0, 64, 0
2, 32578, Note_on_c, 0, 65, 72
2, 32579, Note_on_c, 0, 62, 68
2, 32586, Control_c, 0, 64, 127
2, 32607, Note_on_c, 0, 62, 0
2, 32608, Note_on_c, 0, 65, 0
2, 32637, Control_c, 0, 64, 0
2, 32639, Note_on_c, 0, 67, 89
2, 32639, Note_on_c, 0, 63, 62
2, 32654, Control_c, 0, 64, 127
2, 32699, Note_on_c, 0, 68, 80
2, 32702, Note_on_c, 0, 67, 0
2, 32707, Control_c, 0, 64, 0
2, 32722, Control_c, 0, 64, 127
2, 32761, Control_c, 0, 64, 0
2, 32761, Note_on_c, 0, 70, 76
2, 32762, Note_on_c, 0, 68, 0
2, 32777, Control_c, 0, 64, 127
2, 32819, Control_c, 0, 64, 0
2, 32821, Note_on_c, 0, 70, 0
2, 32821, Note_on_c, 0, 72, 76
2, 32833, Control_c, 0, 64, 127
2, 32851, Note_on_c, 0, 72, 0
2, 32852, Note_on_c, 0, 63, 0
2, 32880, Note_on_c, 0, 63, 55
2, 32881, Note_on_c, 0, 67, 80
2, 32881, Control_c, 0, 64, 0
2, 32956, Control_c, 0, 64, 127
2, 32971, Note_on_c, 0, 68, 76
2, 32972, Note_on_c, 0, 67, 0
2, 32976, Control_c, 0, 64, 0
2, 32999, Note_on_c, 0, 68, 0
2, 32999, Note_on_c, 0, 63, 0
2, 33001, Note_on_c, 0, 65, 89
2, 33001, Note_on_c, 0, 62, 68
2, 33031, Note_on_c, 0, 65, 0
2, 33031, Note_on_c, 0, 67, 76
2, 33061, Note_on_c, 0, 67, 0
2, 33061, Note_on_c, 0, 68, 80
2, 33088, Note_on_c, 0, 68, 0
2, 33090, Note_on_c, 0, 69, 85
2, 33090, Control_c, 0, 64, 127
2, 33094, Note_on_c, 0, 62, 0
2, 33115, Note_on_c, 0, 69, 0
2, 33119, Control_c, 0, 64, 0
2, 33121, Note_on_c, 0, 70, 85
2, 33121, Note_on_c, 0, 82, 102
2, 33173, Control_c, 0, 64, 127
2, 33238, Note_on_c, 0, 82, 0
2, 33239, Note_on_c, 0, 79, 85
2, 33239, Control_c, 0, 64, 0
2, 33257, Control_c, 0, 64, 127
2, 33299, Note_on_c, 0, 77, 85
2, 33300, Note_on_c, 0, 79, 0
2, 33300, Control_c, 0, 64, 0
2, 33312, Control_c, 0, 64, 127
2, 33358, Note_on_c, 0, 77, 0
2, 33358, Note_on_c, 0, 70, 0
2, 33360, Control_c, 0, 64, 0
2, 33361, Note_on_c, 0, 75, 72
2, 33361, Note_on_c, 0, 70, 56
2, 33386, Note_on_c, 0, 70, 0
2, 33386, Note_on_c, 0, 75, 0
2, 33419, Note_on_c, 0, 74, 68
2, 33420, Note_on_c, 0, 77, 76
2, 33446, Note_on_c, 0, 77, 0
2, 33446, Note_on_c, 0, 74, 0
2, 33479, Note_on_c, 0, 75, 76
2, 33479, Note_on_c, 0, 79, 76
2, 33506, Note_on_c, 0, 79, 0
2, 33506, Note_on_c, 0, 75, 0
2, 33539, Note_on_c, 0, 75, 72
2, 33539, Note_on_c, 0, 80, 72
2, 33565, Note_on_c, 0, 75, 0
2, 33566, Note_on_c, 0, 80, 0
2, 33599, Note_on_c, 0, 82, 76
2, 33600, Note_on_c, 0, 75, 68
2, 33605, Control_c, 0, 64, 127
2, 33627, Note_on_c, 0, 75, 0
2, 33628, Note_on_c, 0, 82, 0
2, 33657, Control_c, 0, 64, 0
2, 33658, Note_on_c, 0, 83, 72
2, 33672, Note_on_c, 0, 83, 0
2, 33674, Note_on_c, 0, 84, 68
2, 33689, Note_on_c, 0, 80, 72
2, 33691, Note_on_c, 0, 84, 0
2, 33704, Note_on_c, 0, 80, 0
2, 33704, Note_on_c, 0, 77, 62
2, 33719, Note_on_c, 0, 77, 0
2, 33720, Note_on_c, 0, 75, 80
2, 33744, Control_c, 0, 64, 127
2, 33775, Control_c, 0, 64, 0
2, 33778, Note_on_c, 0, 75, 0
2, 33779, Note_on_c, 0, 79, 80
2, 33794, Note_on_c, 0, 77, 68
2, 33797, Note_on_c, 0, 79, 0
2, 33809, Note_on_c, 0, 76, 72
2, 33810, Note_on_c, 0, 77, 0
2, 33824, Note_on_c, 0, 76, 0
2, 33824, Note_on_c, 0, 77, 64
2, 33838, Note_on_c, 0, 77, 0
2, 33839, Note_on_c, 0, 74, 56
2, 33840, Note_on_c, 0, 77, 76
2, 33854, Control_c, 0, 64, 127
2, 33953, Control_c, 0, 64, 0
2, 33959, Note_on_c, 0, 75, 64
2, 33960, Note_on_c, 0, 77, 0
2, 33960, Note_on_c, 0, 74, 0
2, 34045, Note_on_c, 0, 75, 0
2, 34080, Note_on_c, 0, 72, 85
2, 34088, Control_c, 0, 64, 127
2, 34140, Control_c, 0, 64, 0
2, 34169, Note_on_c, 0, 74, 85
2, 34170, Note_on_c, 0, 72, 0
2, 34199, Note_on_c, 0, 75, 72
2, 34202, Note_on_c, 0, 74, 0
2, 34229, Control_c, 0, 64, 127
2, 34255, Note_on_c, 0, 75, 0
2, 34257, Control_c, 0, 64, 0
2, 34259, Note_on_c, 0, 75, 80
2, 34270, Control_c, 0, 64, 127
2, 34315, Control_c, 0, 64, 0
2, 34316, Note_on_c, 0, 75, 0
2, 34319, Note_on_c, 0, 75, 89
2, 34332, Control_c, 0, 64, 127
2, 34410, Control_c, 0, 64, 0
2, 34412, Note_on_c, 0, 75, 0
2, 34415, Note_on_c, 0, 74, 76
2, 34425, Note_on_c, 0, 72, 72
2, 34430, Note_on_c, 0, 74, 0
2, 34440, Note_on_c, 0, 72, 0
2, 34441, Note_on_c, 0, 70, 80
2, 34505, Note_on_c, 0, 70, 0
2, 34559, Note_on_c, 0, 72, 76
2, 34566, Control_c, 0, 64, 127
2, 34645, Note_on_c, 0, 72, 0
2, 34648, Control_c, 0, 64, 0
2, 34649, Note_on_c, 0, 74, 62
2, 34658, Control_c, 0, 64, 127
2, 34674, Control_c, 0, 64, 0
2, 34679, Note_on_c, 0, 74, 0
2, 34680, Note_on_c, 0, 75, 80
2, 34684, Control_c, 0, 64, 127
2, 34708, Note_on_c, 0, 75, 0
2, 34709, Note_on_c, 0, 75, 62
2, 34737, Note_on_c, 0, 75, 0
2, 34739, Note_on_c, 0, 75, 89
2, 34767, Note_on_c, 0, 75, 0
2, 34769, Note_on_c, 0, 75, 89
2, 34796, Note_on_c, 0, 75, 0
2, 34799, Control_c, 0, 64, 0
2, 34800, Note_on_c, 0, 75, 89
2, 34815, Note_on_c, 0, 75, 0
2, 34815, Note_on_c, 0, 79, 68
2, 34830, Note_on_c, 0, 79, 0
2, 34830, Note_on_c, 0, 77, 68
2, 34845, Note_on_c, 0, 77, 0
2, 34845, Note_on_c, 0, 75, 62
2, 34860, Note_on_c, 0, 74, 80
2, 34874, Note_on_c, 0, 75, 0
2, 34875, Note_on_c, 0, 77, 89
2, 34886, Note_on_c, 0, 74, 0
2, 34890, Note_on_c, 0, 77, 0
2, 34890, Note_on_c, 0, 75, 57
2, 34905, Note_on_c, 0, 72, 59
2, 34917, Note_on_c, 0, 75, 0
2, 34921, Note_on_c, 0, 70, 68
2, 34930, Note_on_c, 0, 72, 0
2, 34982, Note_on_c, 0, 70, 0
2, 35046, Control_c, 0, 64, 127
2, 35069, Note_on_c, 0, 79, 89
2, 35079, Control_c, 0, 64, 0
2, 35099, Note_on_c, 0, 80, 85
2, 35102, Note_on_c, 0, 79, 0
2, 35129, Note_on_c, 0, 80, 0
2, 35129, Note_on_c, 0, 84, 89
2, 35159, Note_on_c, 0, 76, 64
2, 35161, Note_on_c, 0, 84, 0
2, 35221, Note_on_c, 0, 76, 0
2, 35221, Note_on_c, 0, 77, 68
2, 35277, Note_on_c, 0, 77, 0
2, 35309, Note_on_c, 0, 78, 76
2, 35339, Note_on_c, 0, 78, 0
2, 35340, Note_on_c, 0, 79, 93
2, 35348, Control_c, 0, 64, 127
2, 35367, Control_c, 0, 64, 0
2, 35369, Note_on_c, 0, 79, 0
2, 35369, Note_on_c, 0, 82, 85
2, 35400, Note_on_c, 0, 74, 76
2, 35401, Note_on_c, 0, 82, 0
2, 35459, Note_on_c, 0, 74, 0
2, 35459, Note_on_c, 0, 75, 62
2, 35517, Note_on_c, 0, 75, 0
2, 35549, Note_on_c, 0, 76, 76
2, 35579, Note_on_c, 0, 77, 80
2, 35582, Note_on_c, 0, 76, 0
2, 35595, Control_c, 0, 64, 127
2, 35611, Note_on_c, 0, 77, 0
2, 35611, Note_on_c, 0, 80, 80
2, 35613, Control_c, 0, 64, 0
2, 35639, Note_on_c, 0, 80, 0
2, 35640, Note_on_c, 0, 71, 62
2, 35671, Note_on_c, 0, 72, 76
2, 35672, Note_on_c, 0, 71, 0
2, 35700, Note_on_c, 0, 72, 0
2, 35701, Note_on_c, 0, 75, 72
2, 35729, Note_on_c, 0, 74, 80
2, 35730, Note_on_c, 0, 75, 0
2, 35759, Note_on_c, 0, 74, 0
2, 35759, Note_on_c, 0, 77, 80
2, 35778, Control_c, 0, 64, 127
2, 35872, Control_c, 0, 64, 0
2, 35879, Note_on_c, 0, 75, 55
2, 35880, Note_on_c, 0, 77, 0
2, 35894, Control_c, 0, 64, 127
2, 35940, Note_on_c, 0, 75, 0
2, 35952, Control_c, 0, 64, 0
2, 35999, Note_on_c, 0, 75, 80
2, 36001, Control_c, 0, 64, 127
2, 36116, Note_on_c, 0, 75, 0
2, 36118, Control_c, 0, 64, 0
2, 36119, Note_on_c, 0, 74, 80
2, 36149, Note_on_c, 0, 72, 76
2, 36151, Note_on_c, 0, 74, 0
2, 36179, Note_on_c, 0, 70, 76
2, 36180, Note_on_c, 0, 72, 0
2, 36203, Control_c, 0, 64, 127
2, 36209, Note_on_c, 0, 70, 0
2, 36209, Note_on_c, 0, 69, 93
2, 36232, Control_c, 0, 64, 0
2, 36239, Note_on_c, 0, 69, 0
2, 36240, Note_on_c, 0, 80, 93
2, 36295, Control_c, 0, 64, 127
2, 36325, Note_on_c, 0, 80, 0
2, 36359, Note_on_c, 0, 79, 76
2, 36360, Control_c, 0, 64, 0
2, 36377, Control_c, 0, 64, 127
2, 36389, Note_on_c, 0, 77, 62
2, 36392, Note_on_c, 0, 79, 0
2, 36394, Control_c, 0, 64, 0
2, 36419, Note_on_c, 0, 75, 68
2, 36421, Note_on_c, 0, 77, 0
2, 36449, Note_on_c, 0, 74, 72
2, 36451, Note_on_c, 0, 75, 0
2, 36452, Control_c, 0, 64, 127
2, 36476, Control_c, 0, 64, 0
2, 36479, Note_on_c, 0, 74, 0
2, 36480, Note_on_c, 0, 75, 76
2, 36489, Control_c, 0, 64, 127
2, 36509, Note_on_c, 0, 67, 76
2, 36510, Note_on_c, 0, 75, 0
2, 36510, Control_c, 0, 64, 0
2, 36524, Control_c, 0, 64, 127
2, 36539, Note_on_c, 0, 67, 0
2, 36539, Note_on_c, 0, 65, 32
2, 36541, Control_c, 0, 64, 0
2, 36558, Control_c, 0, 64, 127
2, 36571, Note_on_c, 0, 72, 76
2, 36572, Note_on_c, 0, 65, 0
2, 36578, Control_c, 0, 64, 0
2, 36601, Note_on_c, 0, 72, 0
2, 36601, Note_on_c, 0, 70, 62
2, 36614, Control_c, 0, 64, 127
2, 36629, Note_on_c, 0, 63, 55
2, 36631, Note_on_c, 0, 70, 0
2, 36633, Control_c, 0, 64, 0
2, 36660, Note_on_c, 0, 68, 60
2, 36662, Note_on_c, 0, 63, 0
2, 36690, Note_on_c, 0, 62, 64
2, 36691, Note_on_c, 0, 68, 0
2, 36720, Note_on_c, 0, 63, 62
2, 36721, Note_on_c, 0, 62, 0
2, 36732, Control_c, 0, 64, 127
2, 36775, Note_on_c, 0, 63, 0
2, 36833, Control_c, 0, 64, 0
2, 36869, Note_on_c, 0, 80, 80
2, 36879, Control_c, 0, 64, 127
2, 36900, Note_on_c, 0, 77, 72
2, 36901, Control_c, 0, 64, 0
2, 36902, Note_on_c, 0, 80, 0
2, 36930, Note_on_c, 0, 74, 76
2, 36932, Note_on_c, 0, 77, 0
2, 36961, Note_on_c, 0, 82, 85
2, 36962, Note_on_c, 0, 74, 0
2, 36975, Control_c, 0, 64, 127
2, 37075, Note_on_c, 0, 82, 0
2, 37083, Control_c, 0, 64, 0
2, 37109, Note_on_c, 0, 80, 64
2, 37127, Control_c, 0, 64, 127
2, 37139, Note_on_c, 0, 77, 76
2, 37141, Note_on_c, 0, 80, 0
2, 37145, Control_c, 0, 64, 0
2, 37169, Note_on_c, 0, 74, 62
2, 37170, Note_on_c, 0, 77, 0
2, 37201, Note_on_c, 0, 74, 0
2, 37201, Note_on_c, 0, 75, 62
2, 37232, Control_c, 0, 64, 127
2, 37287, Note_on_c, 0, 75, 0
2, 37319, Control_c, 0, 64, 0
2, 37349, Note_on_c, 0, 68, 64
2, 37357, Control_c, 0, 64, 127
2, 37379, Note_on_c, 0, 68, 0
2, 37379, Note_on_c, 0, 65, 76
2, 37380, Control_c, 0, 64, 0
2, 37392, Control_c, 0, 64, 127
2, 37409, Note_on_c, 0, 62, 68
2, 37410, Note_on_c, 0, 65, 0
2, 37435, Note_on_c, 0, 62, 0
2, 37438, Control_c, 0, 64, 0
2, 37441, Note_on_c, 0, 65, 72
2, 37441, Note_on_c, 0, 56, 62
2, 37457, Control_c, 0, 64, 127
2, 37674, Note_on_c, 0, 56, 0
2, 37675, Note_on_c, 0, 65, 0
2, 37681, Note_on_c, 0, 55, 62
2, 37681, Note_on_c, 0, 63, 51
2, 37683, Control_c, 0, 64, 0
2, 37700, Control_c, 0, 64, 127
2, 37740, Note_on_c, 0, 55, 0
2, 37741, Note_on_c, 0, 63, 0
2, 37744, Control_c, 0, 64, 0
2, 37920, Control_c, 0, 121, 0
2, 37920, End_track
3, 0, Start_track
3, 0, MIDI_port, 0
3, 0, Program_c, 1, 0
3, 0, Control_c, 1, 7, 127
3, 0, Control_c, 1, 10, 44
3, 0, Control_c, 1, 121, 0
3, 0, Control_c, 1, 91, 75
3, 0, Note_on_c, 1, 39, 45
3, 0, Note_on_c, 1, 51, 30
3, 5, Control_c, 1, 64, 127
3, 127, Control_c, 1, 64, 0
3, 133, Note_on_c, 1, 51, 0
3, 133, Note_on_c, 1, 39, 0
3, 181, Note_on_c, 1, 46, 79
3, 240, Note_on_c, 1, 46, 0
3, 241, Note_on_c, 1, 51, 41
3, 358, Note_on_c, 1, 51, 0
3, 419, Note_on_c, 1, 46, 46
3, 446, Control_c, 1, 64, 127
3, 472, Control_c, 1, 64, 0
3, 479, Note_on_c, 1, 51, 39
3, 481, Note_on_c, 1, 46, 0
3, 539, Note_on_c, 1, 48, 62
3, 542, Note_on_c, 1, 51, 0
3, 599, Note_on_c, 1, 43, 54
3, 601, Note_on_c, 1, 48, 0
3, 659, Note_on_c, 1, 43, 0
3, 659, Note_on_c, 1, 44, 46
3, 721, Note_on_c, 1, 46, 47
3, 722, Note_on_c, 1, 44, 0
3, 902, Note_on_c, 1, 46, 0
3, 959, Note_on_c, 1, 67, 52
3, 998, Control_c, 1, 64, 127
3, 1081, Note_on_c, 1, 63, 46
3, 1082, Note_on_c, 1, 67, 0
3, 1083, Control_c, 1, 64, 0
3, 1124, Control_c, 1, 64, 127
3, 1135, Control_c, 1, 64, 0
3, 1140, Note_on_c, 1, 63, 0
3, 1140, Note_on_c, 1, 58, 54
3, 1158, Control_c, 1, 64, 127
3, 1199, Note_on_c, 1, 58, 0
3, 1199, Control_c, 1, 64, 0
3, 1199, Note_on_c, 1, 55, 75
3, 1214, Note_on_c, 1, 55, 0
3, 1259, Note_on_c, 1, 58, 62
3, 1275, Note_on_c, 1, 58, 0
3, 1319, Note_on_c, 1, 63, 58
3, 1334, Note_on_c, 1, 63, 0
3, 1379, Note_on_c, 1, 60, 62
3, 1394, Note_on_c, 1, 60, 0
3, 1439, Note_on_c, 1, 55, 66
3, 1454, Control_c, 1, 64, 127
3, 1496, Control_c, 1, 64, 0
3, 1498, Note_on_c, 1, 55, 0
3, 1500, Note_on_c, 1, 65, 41
3, 1500, Note_on_c, 1, 56, 70
3, 1510, Control_c, 1, 64, 127
3, 1517, Note_on_c, 1, 56, 0
3, 1530, Note_on_c, 1, 65, 0
3, 1553, Control_c, 1, 64, 0
3, 1559, Note_on_c, 1, 58, 50
3, 1559, Note_on_c, 1, 67, 47
3, 1573, Control_c, 1, 64, 127
3, 1616, Control_c, 1, 64, 0
3, 1621, Note_on_c, 1, 67, 0
3, 1621, Note_on_c, 1, 68, 54
3, 1636, Control_c, 1, 64, 127
3, 1648, Note_on_c, 1, 68, 0
3, 1650, Note_on_c, 1, 58, 0
3, 1677, Control_c, 1, 64, 0
3, 1680, Note_on_c, 1, 68, 42
3, 1681, Note_on_c, 1, 63, 50
3, 1702, Control_c, 1, 64, 127
3, 1753, Note_on_c, 1, 68, 0
3, 1801, Note_on_c, 1, 67, 30
3, 1803, Control_c, 1, 64, 0
3, 1825, Control_c, 1, 64, 127
3, 1873, Note_on_c, 1, 67, 0
3, 1873, Note_on_c, 1, 63, 0
3, 1880, Control_c, 1, 64, 0
3, 1921, Note_on_c, 1, 51, 27
3, 1921, Note_on_c, 1, 39, 35
3, 1940, Control_c, 1, 64, 127
3, 2042, Note_on_c, 1, 39, 0
3, 2053, Note_on_c, 1, 51, 0
3, 2089, Control_c, 1, 64, 0
3, 2099, Note_on_c, 1, 46, 35
3, 2161, Note_on_c, 1, 51, 33
3, 2162, Note_on_c, 1, 46, 0
3, 2311, Note_on_c, 1, 51, 0
3, 2340, Note_on_c, 1, 46, 39
3, 2398, Note_on_c, 1, 46, 0
3, 2399, Note_on_c, 1, 51, 47
3, 2459, Note_on_c, 1, 48, 46
3, 2462, Note_on_c, 1, 51, 0
3, 2519, Note_on_c, 1, 48, 0
3, 2519, Note_on_c, 1, 43, 46
3, 2579, Note_on_c, 1, 44, 45
3, 2581, Note_on_c, 1, 43, 0
3, 2640, Note_on_c, 1, 46, 46
3, 2642, Note_on_c, 1, 44, 0
3, 2822, Note_on_c, 1, 46, 0
3, 2879, Note_on_c, 1, 67, 46
3, 2901, Control_c, 1, 64, 127
3, 3001, Note_on_c, 1, 63, 39
3, 3003, Note_on_c, 1, 67, 0
3, 3006, Control_c, 1, 64, 0
3, 3026, Control_c, 1, 64, 127
3, 3058, Note_on_c, 1, 63, 0
3, 3059, Control_c, 1, 64, 0
3, 3060, Note_on_c, 1, 58, 40
3, 3075, Control_c, 1, 64, 127
3, 3120, Control_c, 1, 64, 0
3, 3121, Note_on_c, 1, 55, 52
3, 3122, Note_on_c, 1, 58, 0
3, 3134, Note_on_c, 1, 55, 0
3, 3179, Note_on_c, 1, 58, 49
3, 3194, Note_on_c, 1, 58, 0
3, 3239, Note_on_c, 1, 63, 66
3, 3253, Note_on_c, 1, 63, 0
3, 3300, Note_on_c, 1, 60, 58
3, 3313, Note_on_c, 1, 60, 0
3, 3359, Note_on_c, 1, 55, 62
3, 3371, Control_c, 1, 64, 127
3, 3416, Control_c, 1, 64, 0
3, 3417, Note_on_c, 1, 55, 0
3, 3420, Note_on_c, 1, 65, 40
3, 3420, Note_on_c, 1, 56, 43
3, 3431, Control_c, 1, 64, 127
3, 3447, Note_on_c, 1, 56, 0
3, 3449, Note_on_c, 1, 65, 0
3, 3474, Control_c, 1, 64, 0
3, 3479, Note_on_c, 1, 58, 42
3, 3479, Note_on_c, 1, 67, 41
3, 3492, Control_c, 1, 64, 127
3, 3536, Control_c, 1, 64, 0
3, 3538, Note_on_c, 1, 67, 0
3, 3539, Note_on_c, 1, 68, 41
3, 3550, Control_c, 1, 64, 127
3, 3558, Note_on_c, 1, 68, 0
3, 3558, Note_on_c, 1, 58, 0
3, 3594, Control_c, 1, 64, 0
3, 3600, Note_on_c, 1, 68, 40
3, 3600, Note_on_c, 1, 63, 49
3, 3615, Control_c, 1, 64, 127
3, 3690, Note_on_c, 1, 68, 0
3, 3721, Note_on_c, 1, 67, 34
3, 3723, Control_c, 1, 64, 0
3, 3739, Control_c, 1, 64, 127
3, 3793, Note_on_c, 1, 67, 0
3, 3794, Note_on_c, 1, 63, 0
3, 3824, Control_c, 1, 64, 0
3, 3840, Note_on_c, 1, 62, 46
3, 3848, Control_c, 1, 64, 127
3, 3897, Note_on_c, 1, 62, 0
3, 3898, Note_on_c, 1, 58, 45
3, 3959, Control_c, 1, 64, 0
3, 3959, Note_on_c, 1, 63, 41
3, 3960, Note_on_c, 1, 58, 0
3, 3980, Control_c, 1, 64, 127
3, 4018, Note_on_c, 1, 63, 0
3, 4019, Note_on_c, 1, 58, 43
3, 4020, Control_c, 1, 64, 0
3, 4034, Control_c, 1, 64, 127
3, 4053, Note_on_c, 1, 58, 0
3, 4081, Note_on_c, 1, 58, 49
3, 4081, Note_on_c, 1, 65, 50
3, 4084, Control_c, 1, 64, 0
3, 4103, Control_c, 1, 64, 127
3, 4201, Control_c, 1, 64, 0
3, 4202, Note_on_c, 1, 65, 0
3, 4202, Note_on_c, 1, 58, 0
3, 4318, Control_c, 1, 64, 127
3, 4319, Note_on_c, 1, 63, 47
3, 4351, Note_on_c, 1, 63, 0
3, 4381, Note_on_c, 1, 63, 58
3, 4396, Note_on_c, 1, 63, 0
3, 4434, Control_c, 1, 64, 0
3, 4439, Note_on_c, 1, 63, 49
3, 4439, Note_on_c, 1, 65, 66
3, 4448, Control_c, 1, 64, 127
3, 4457, Note_on_c, 1, 65, 0
3, 4458, Note_on_c, 1, 63, 0
3, 4494, Control_c, 1, 64, 0
3, 4499, Note_on_c, 1, 66, 66
3, 4499, Note_on_c, 1, 63, 54
3, 4507, Control_c, 1, 64, 127
3, 4518, Note_on_c, 1, 63, 0
3, 4527, Note_on_c, 1, 66, 0
3, 4559, Control_c, 1, 64, 0
3, 4561, Note_on_c, 1, 63, 50
3, 4562, Note_on_c, 1, 67, 58
3, 4573, Control_c, 1, 64, 127
3, 4678, Control_c, 1, 64, 0
3, 4682, Note_on_c, 1, 67, 0
3, 4682, Note_on_c, 1, 63, 0
3, 4861, Note_on_c, 1, 68, 52
3, 4861, Note_on_c, 1, 75, 62
3, 4876, Note_on_c, 1, 68, 0
3, 4878, Note_on_c, 1, 75, 0
3, 4980, Note_on_c, 1, 75, 66
3, 4980, Note_on_c, 1, 66, 52
3, 5007, Note_on_c, 1, 66, 0
3, 5007, Note_on_c, 1, 75, 0
3, 5099, Note_on_c, 1, 75, 58
3, 5099, Note_on_c, 1, 65, 58
3, 5117, Note_on_c, 1, 65, 0
3, 5118, Note_on_c, 1, 75, 0
3, 5221, Note_on_c, 1, 59, 58
3, 5221, Note_on_c, 1, 62, 70
3, 5230, Control_c, 1, 64, 127
3, 5279, Note_on_c, 1, 59, 0
3, 5280, Note_on_c, 1, 62, 0
3, 5281, Note_on_c, 1, 60, 62
3, 5281, Note_on_c, 1, 63, 50
3, 5282, Control_c, 1, 64, 0
3, 5304, Control_c, 1, 64, 127
3, 5342, Note_on_c, 1, 60, 0
3, 5343, Note_on_c, 1, 63, 0
3, 5393, Control_c, 1, 64, 0
3, 5399, Note_on_c, 1, 56, 50
3, 5399, Note_on_c, 1, 60, 66
3, 5410, Control_c, 1, 64, 127
3, 5459, Note_on_c, 1, 68, 52
3, 5460, Note_on_c, 1, 60, 0
3, 5477, Note_on_c, 1, 68, 0
3, 5478, Note_on_c, 1, 56, 0
3, 5518, Control_c, 1, 64, 0
3, 5519, Note_on_c, 1, 58, 40
3, 5519, Note_on_c, 1, 67, 52
3, 5542, Control_c, 1, 64, 127
3, 5641, Note_on_c, 1, 65, 52
3, 5642, Note_on_c, 1, 67, 0
3, 5645, Control_c, 1, 64, 0
3, 5660, Control_c, 1, 64, 127
3, 5703, Note_on_c, 1, 65, 0
3, 5704, Note_on_c, 1, 58, 0
3, 5719, Control_c, 1, 64, 0
3, 5761, Note_on_c, 1, 51, 45
3, 5762, Note_on_c, 1, 39, 32
3, 5892, Note_on_c, 1, 39, 0
3, 5895, Note_on_c, 1, 51, 0
3, 5941, Note_on_c, 1, 46, 49
3, 5998, Note_on_c, 1, 46, 0
3, 6000, Note_on_c, 1, 51, 40
3, 6148, Note_on_c, 1, 51, 0
3, 6181, Note_on_c, 1, 46, 37
3, 6194, Control_c, 1, 64, 127
3, 6236, Control_c, 1, 64, 0
3, 6237, Note_on_c, 1, 46, 0
3, 6240, Note_on_c, 1, 51, 37
3, 6299, Note_on_c, 1, 51, 0
3, 6299, Note_on_c, 1, 48, 43
3, 6359, Note_on_c, 1, 43, 46
3, 6360, Note_on_c, 1, 48, 0
3, 6421, Note_on_c, 1, 44, 43
3, 6422, Note_on_c, 1, 43, 0
3, 6480, Note_on_c, 1, 46, 41
3, 6481, Note_on_c, 1, 44, 0
3, 6660, Note_on_c, 1, 46, 0
3, 6719, Note_on_c, 1, 67, 62
3, 6841, Note_on_c, 1, 63, 58
3, 6843, Note_on_c, 1, 67, 0
3, 6899, Note_on_c, 1, 63, 0
3, 6900, Note_on_c, 1, 58, 54
3, 6960, Note_on_c, 1, 55, 75
3, 6962, Note_on_c, 1, 58, 0
3, 6973, Note_on_c, 1, 55, 0
3, 7020, Note_on_c, 1, 58, 66
3, 7033, Note_on_c, 1, 58, 0
3, 7079, Note_on_c, 1, 63, 62
3, 7094, Note_on_c, 1, 63, 0
3, 7139, Note_on_c, 1, 60, 70
3, 7153, Note_on_c, 1, 60, 0
3, 7199, Note_on_c, 1, 55, 66
3, 7215, Control_c, 1, 64, 127
3, 7247, Note_on_c, 1, 55, 0
3, 7251, Control_c, 1, 64, 0
3, 7259, Note_on_c, 1, 56, 50
3, 7259, Note_on_c, 1, 65, 50
3, 7267, Control_c, 1, 64, 127
3, 7277, Note_on_c, 1, 56, 0
3, 7287, Note_on_c, 1, 65, 0
3, 7308, Control_c, 1, 64, 0
3, 7319, Note_on_c, 1, 58, 54
3, 7319, Note_on_c, 1, 67, 58
3, 7330, Control_c, 1, 64, 127
3, 7352, Note_on_c, 1, 67, 0
3, 7376, Control_c, 1, 64, 0
3, 7380, Note_on_c, 1, 68, 52
3, 7403, Control_c, 1, 64, 127
3, 7413, Note_on_c, 1, 68, 0
3, 7423, Note_on_c, 1, 58, 0
3, 7435, Control_c, 1, 64, 0
3, 7440, Note_on_c, 1, 68, 46
3, 7441, Note_on_c, 1, 63, 52
3, 7460, Control_c, 1, 64, 127
3, 7502, Note_on_c, 1, 68, 0
3, 7561, Note_on_c, 1, 67, 40
3, 7562, Control_c, 1, 64, 0
3, 7577, Control_c, 1, 64, 127
3, 7624, Note_on_c, 1, 67, 0
3, 7629, Control_c, 1, 64, 0
3, 7633, Note_on_c, 1, 63, 0
3, 7681, Note_on_c, 1, 48, 45
3, 7695, Control_c, 1, 64, 127
3, 7709, Note_on_c, 1, 48, 0
3, 7711, Note_on_c, 1, 60, 45
3, 7737, Note_on_c, 1, 60, 0
3, 7741, Note_on_c, 1, 60, 46
3, 7766, Note_on_c, 1, 60, 0
3, 7771, Note_on_c, 1, 60, 47
3, 7796, Note_on_c, 1, 60, 0
3, 7800, Note_on_c, 1, 60, 46
3, 7826, Note_on_c, 1, 60, 0
3, 7831, Note_on_c, 1, 60, 50
3, 7856, Note_on_c, 1, 60, 0
3, 7861, Note_on_c, 1, 60, 52
3, 7886, Note_on_c, 1, 60, 0
3, 7891, Note_on_c, 1, 60, 54
3, 7916, Note_on_c, 1, 60, 0
3, 7920, Control_c, 1, 64, 0
3, 7921, Note_on_c, 1, 47, 52
3, 7942, Control_c, 1, 64, 127
3, 7949, Note_on_c, 1, 59, 52
3, 7950, Note_on_c, 1, 47, 0
3, 7977, Note_on_c, 1, 59, 0
3, 7979, Note_on_c, 1, 59, 52
3, 8006, Note_on_c, 1, 59, 0
3, 8009, Note_on_c, 1, 59, 52
3, 8036, Note_on_c, 1, 59, 0
3, 8039, Note_on_c, 1, 59, 52
3, 8066, Note_on_c, 1, 59, 0
3, 8069, Note_on_c, 1, 59, 58
3, 8096, Note_on_c, 1, 59, 0
3, 8099, Note_on_c, 1, 59, 62
3, 8126, Note_on_c, 1, 59, 0
3, 8129, Note_on_c, 1, 59, 62
3, 8156, Note_on_c, 1, 59, 0
3, 8160, Control_c, 1, 64, 0
3, 8161, Note_on_c, 1, 60, 62
3, 8178, Control_c, 1, 64, 127
3, 8280, Note_on_c, 1, 60, 0
3, 8280, Note_on_c, 1, 56, 50
3, 8283, Control_c, 1, 64, 0
3, 8300, Control_c, 1, 64, 127
3, 8339, Note_on_c, 1, 56, 0
3, 8339, Note_on_c, 1, 54, 46
3, 8341, Control_c, 1, 64, 0
3, 8357, Control_c, 1, 64, 127
3, 8399, Note_on_c, 1, 54, 0
3, 8400, Note_on_c, 1, 55, 50
3, 8401, Control_c, 1, 64, 0
3, 8416, Control_c, 1, 64, 127
3, 8429, Note_on_c, 1, 55, 0
3, 8429, Note_on_c, 1, 43, 62
3, 8457, Note_on_c, 1, 43, 0
3, 8459, Note_on_c, 1, 55, 52
3, 8487, Note_on_c, 1, 55, 0
3, 8489, Note_on_c, 1, 55, 58
3, 8516, Note_on_c, 1, 55, 0
3, 8519, Note_on_c, 1, 55, 66
3, 8521, Control_c, 1, 64, 0
3, 8532, Control_c, 1, 64, 127
3, 8549, Note_on_c, 1, 55, 0
3, 8549, Note_on_c, 1, 53, 54
3, 8550, Control_c, 1, 64, 0
3, 8579, Note_on_c, 1, 53, 0
3, 8579, Note_on_c, 1, 51, 46
3, 8609, Note_on_c, 1, 50, 66
3, 8611, Note_on_c, 1, 51, 0
3, 8640, Note_on_c, 1, 50, 0
3, 8640, Note_on_c, 1, 48, 52
3, 8754, Note_on_c, 1, 48, 0
3, 8772, Control_c, 1, 64, 127
3, 8789, Note_on_c, 1, 60, 54
3, 8789, Note_on_c, 1, 63, 38
3, 8815, Note_on_c, 1, 60, 0
3, 8816, Note_on_c, 1, 63, 0
3, 8819, Note_on_c, 1, 63, 54
3, 8819, Note_on_c, 1, 60, 52
3, 8845, Note_on_c, 1, 60, 0
3, 8846, Note_on_c, 1, 63, 0
3, 8849, Note_on_c, 1, 63, 49
3, 8849, Note_on_c, 1, 60, 58
3, 8875, Note_on_c, 1, 60, 0
3, 8876, Note_on_c, 1, 63, 0
3, 8878, Control_c, 1, 64, 0
3, 8879, Note_on_c, 1, 58, 52
3, 8880, Note_on_c, 1, 62, 62
3, 8900, Control_c, 1, 64, 127
3, 8942, Note_on_c, 1, 62, 0
3, 8942, Note_on_c, 1, 58, 0
3, 8993, Control_c, 1, 64, 0
3, 9010, Control_c, 1, 64, 127
3, 9029, Note_on_c, 1, 67, 47
3, 9029, Note_on_c, 1, 64, 62
3, 9056, Note_on_c, 1, 64, 0
3, 9056, Note_on_c, 1, 67, 0
3, 9059, Note_on_c, 1, 64, 52
3, 9059, Note_on_c, 1, 67, 47
3, 9085, Note_on_c, 1, 67, 0
3, 9085, Note_on_c, 1, 64, 0
3, 9089, Note_on_c, 1, 64, 46
3, 9089, Note_on_c, 1, 67, 52
3, 9113, Control_c, 1, 64, 0
3, 9115, Note_on_c, 1, 64, 0
3, 9116, Note_on_c, 1, 67, 0
3, 9119, Note_on_c, 1, 62, 52
3, 9119, Note_on_c, 1, 66, 46
3, 9127, Control_c, 1, 64, 127
3, 9134, Control_c, 1, 64, 0
3, 9147, Note_on_c, 1, 66, 0
3, 9148, Note_on_c, 1, 62, 0
3, 9180, Note_on_c, 1, 63, 46
3, 9206, Note_on_c, 1, 63, 0
3, 9239, Note_on_c, 1, 60, 54
3, 9266, Note_on_c, 1, 60, 0
3, 9299, Note_on_c, 1, 62, 66
3, 9326, Note_on_c, 1, 62, 0
3, 9359, Note_on_c, 1, 55, 62
3, 9480, Note_on_c, 1, 55, 0
3, 9599, Note_on_c, 1, 48, 43
3, 9619, Control_c, 1, 64, 127
3, 9629, Note_on_c, 1, 60, 41
3, 9631, Note_on_c, 1, 48, 0
3, 9657, Note_on_c, 1, 60, 0
3, 9659, Note_on_c, 1, 60, 46
3, 9687, Note_on_c, 1, 60, 0
3, 9689, Note_on_c, 1, 60, 46
3, 9716, Note_on_c, 1, 60, 0
3, 9719, Note_on_c, 1, 60, 47
3, 9746, Note_on_c, 1, 60, 0
3, 9751, Note_on_c, 1, 60, 50
3, 9776, Note_on_c, 1, 60, 0
3, 9781, Note_on_c, 1, 60, 52
3, 9806, Note_on_c, 1, 60, 0
3, 9811, Note_on_c, 1, 60, 52
3, 9837, Note_on_c, 1, 60, 0
3, 9841, Note_on_c, 1, 47, 39
3, 9842, Control_c, 1, 64, 0
3, 9858, Control_c, 1, 64, 127
3, 9869, Note_on_c, 1, 47, 0
3, 9869, Note_on_c, 1, 59, 47
3, 9896, Note_on_c, 1, 59, 0
3, 9899, Note_on_c, 1, 59, 52
3, 9925, Note_on_c, 1, 59, 0
3, 9929, Note_on_c, 1, 59, 46
3, 9956, Note_on_c, 1, 59, 0
3, 9959, Note_on_c, 1, 59, 54
3, 9986, Note_on_c, 1, 59, 0
3, 9989, Note_on_c, 1, 59, 58
3, 10016, Note_on_c, 1, 59, 0
3, 10019, Note_on_c, 1, 59, 58
3, 10045, Note_on_c, 1, 59, 0
3, 10049, Note_on_c, 1, 59, 52
3, 10076, Note_on_c, 1, 59, 0
3, 10081, Note_on_c, 1, 60, 54
3, 10082, Control_c, 1, 64, 0
3, 10097, Control_c, 1, 64, 127
3, 10166, Note_on_c, 1, 60, 0
3, 10199, Note_on_c, 1, 56, 52
3, 10201, Control_c, 1, 64, 0
3, 10215, Control_c, 1, 64, 127
3, 10258, Note_on_c, 1, 56, 0
3, 10260, Note_on_c, 1, 54, 46
3, 10260, Control_c, 1, 64, 0
3, 10273, Control_c, 1, 64, 127
3, 10316, Note_on_c, 1, 54, 0
3, 10316, Control_c, 1, 64, 0
3, 10320, Note_on_c, 1, 55, 50
3, 10328, Control_c, 1, 64, 127
3, 10348, Note_on_c, 1, 55, 0
3, 10349, Note_on_c, 1, 43, 49
3, 10377, Note_on_c, 1, 43, 0
3, 10379, Note_on_c, 1, 55, 50
3, 10406, Note_on_c, 1, 55, 0
3, 10409, Note_on_c, 1, 55, 58
3, 10436, Note_on_c, 1, 55, 0
3, 10439, Note_on_c, 1, 55, 58
3, 10444, Control_c, 1, 64, 0
3, 10469, Note_on_c, 1, 55, 0
3, 10469, Note_on_c, 1, 53, 54
3, 10499, Note_on_c, 1, 51, 45
3, 10500, Note_on_c, 1, 53, 0
3, 10529, Note_on_c, 1, 51, 0
3, 10529, Note_on_c, 1, 50, 43
3, 10560, Note_on_c, 1, 48, 50
3, 10561, Note_on_c, 1, 50, 0
3, 10621, Control_c, 1, 64, 127
3, 10648, Note_on_c, 1, 48, 0
3, 10678, Control_c, 1, 64, 0
3, 10709, Note_on_c, 1, 63, 45
3, 10709, Note_on_c, 1, 60, 47
3, 10710, Control_c, 1, 64, 127
3, 10736, Note_on_c, 1, 60, 0
3, 10736, Note_on_c, 1, 63, 0
3, 10739, Note_on_c, 1, 63, 47
3, 10739, Note_on_c, 1, 60, 50
3, 10765, Note_on_c, 1, 60, 0
3, 10765, Note_on_c, 1, 63, 0
3, 10769, Note_on_c, 1, 63, 47
3, 10769, Note_on_c, 1, 60, 50
3, 10795, Note_on_c, 1, 60, 0
3, 10795, Note_on_c, 1, 63, 0
3, 10799, Note_on_c, 1, 58, 49
3, 10800, Note_on_c, 1, 62, 54
3, 10800, Control_c, 1, 64, 0
3, 10818, Control_c, 1, 64, 127
3, 10856, Note_on_c, 1, 58, 0
3, 10859, Note_on_c, 1, 62, 0
3, 10921, Control_c, 1, 64, 0
3, 10949, Note_on_c, 1, 64, 52
3, 10949, Note_on_c, 1, 67, 54
3, 10954, Control_c, 1, 64, 127
3, 10977, Note_on_c, 1, 64, 0
3, 10978, Note_on_c, 1, 67, 0
3, 10979, Note_on_c, 1, 64, 54
3, 10979, Note_on_c, 1, 67, 54
3, 11006, Note_on_c, 1, 67, 0
3, 11006, Note_on_c, 1, 64, 0
3, 11009, Note_on_c, 1, 64, 54
3, 11009, Note_on_c, 1, 67, 54
3, 11027, Control_c, 1, 64, 0
3, 11035, Note_on_c, 1, 64, 0
3, 11036, Note_on_c, 1, 67, 0
3, 11039, Note_on_c, 1, 62, 54
3, 11039, Note_on_c, 1, 66, 54
3, 11067, Note_on_c, 1, 66, 0
3, 11067, Note_on_c, 1, 62, 0
3, 11101, Note_on_c, 1, 63, 54
3, 11126, Note_on_c, 1, 63, 0
3, 11161, Note_on_c, 1, 60, 54
3, 11186, Note_on_c, 1, 60, 0
3, 11221, Note_on_c, 1, 62, 62
3, 11246, Note_on_c, 1, 62, 0
3, 11280, Note_on_c, 1, 55, 54
3, 11288, Control_c, 1, 64, 127
3, 11399, Note_on_c, 1, 55, 0
3, 11401, Control_c, 1, 64, 0
3, 11463, Control_c, 1, 64, 127
3, 11514, Control_c, 1, 64, 0
3, 11521, Note_on_c, 1, 60, 47
3, 11525, Control_c, 1, 64, 127
3, 11549, Note_on_c, 1, 60, 0
3, 11549, Note_on_c, 1, 70, 41
3, 11550, Note_on_c, 1, 67, 50
3, 11575, Note_on_c, 1, 67, 0
3, 11576, Note_on_c, 1, 70, 0
3, 11580, Note_on_c, 1, 70, 41
3, 11581, Note_on_c, 1, 67, 52
3, 11605, Note_on_c, 1, 70, 0
3, 11606, Note_on_c, 1, 67, 0
3, 11611, Note_on_c, 1, 70, 42
3, 11611, Note_on_c, 1, 67, 52
3, 11636, Note_on_c, 1, 67, 0
3, 11636, Note_on_c, 1, 70, 0
3, 11641, Note_on_c, 1, 60, 49
3, 11642, Control_c, 1, 64, 0
3, 11653, Control_c, 1, 64, 127
3, 11669, Note_on_c, 1, 68, 43
3, 11670, Note_on_c, 1, 65, 50
3, 11671, Note_on_c, 1, 60, 0
3, 11695, Note_on_c, 1, 65, 0
3, 11696, Note_on_c, 1, 68, 0
3, 11700, Note_on_c, 1, 68, 42
3, 11701, Note_on_c, 1, 65, 52
3, 11725, Note_on_c, 1, 68, 0
3, 11726, Note_on_c, 1, 65, 0
3, 11730, Note_on_c, 1, 68, 40
3, 11731, Note_on_c, 1, 65, 47
3, 11755, Note_on_c, 1, 65, 0
3, 11755, Note_on_c, 1, 68, 0
3, 11761, Note_on_c, 1, 60, 62
3, 11763, Control_c, 1, 64, 0
3, 11777, Control_c, 1, 64, 127
3, 11789, Note_on_c, 1, 60, 0
3, 11791, Note_on_c, 1, 67, 45
3, 11791, Note_on_c, 1, 64, 47
3, 11815, Note_on_c, 1, 64, 0
3, 11816, Note_on_c, 1, 67, 0
3, 11820, Note_on_c, 1, 67, 46
3, 11821, Note_on_c, 1, 64, 40
3, 11845, Note_on_c, 1, 64, 0
3, 11845, Note_on_c, 1, 67, 0
3, 11851, Note_on_c, 1, 64, 42
3, 11851, Note_on_c, 1, 67, 47
3, 11876, Note_on_c, 1, 67, 0
3, 11876, Note_on_c, 1, 64, 0
3, 11877, Control_c, 1, 64, 0
3, 11880, Note_on_c, 1, 60, 58
3, 11893, Control_c, 1, 64, 127
3, 11908, Note_on_c, 1, 60, 0
3, 11909, Note_on_c, 1, 68, 40
3, 11910, Note_on_c, 1, 65, 50
3, 11934, Note_on_c, 1, 65, 0
3, 11935, Note_on_c, 1, 68, 0
3, 11937, Control_c, 1, 64, 0
3, 11940, Note_on_c, 1, 59, 79
3, 11957, Control_c, 1, 64, 127
3, 11971, Note_on_c, 1, 68, 47
3, 11971, Note_on_c, 1, 65, 52
3, 11973, Note_on_c, 1, 59, 0
3, 11995, Note_on_c, 1, 65, 0
3, 11996, Note_on_c, 1, 68, 0
3, 12001, Note_on_c, 1, 58, 58
3, 12002, Control_c, 1, 64, 0
3, 12025, Control_c, 1, 64, 127
3, 12031, Note_on_c, 1, 68, 50
3, 12031, Note_on_c, 1, 65, 35
3, 12035, Note_on_c, 1, 58, 0
3, 12055, Note_on_c, 1, 65, 0
3, 12056, Note_on_c, 1, 68, 0
3, 12061, Note_on_c, 1, 68, 34
3, 12061, Note_on_c, 1, 65, 33
3, 12085, Note_on_c, 1, 65, 0
3, 12085, Note_on_c, 1, 68, 0
3, 12091, Note_on_c, 1, 68, 45
3, 12091, Note_on_c, 1, 65, 34
3, 12115, Note_on_c, 1, 65, 0
3, 12116, Note_on_c, 1, 68, 0
3, 12121, Note_on_c, 1, 58, 40
3, 12123, Control_c, 1, 64, 0
3, 12137, Control_c, 1, 64, 127
3, 12150, Note_on_c, 1, 67, 42
3, 12150, Note_on_c, 1, 63, 41
3, 12174, Note_on_c, 1, 63, 0
3, 12174, Note_on_c, 1, 67, 0
3, 12176, Note_on_c, 1, 58, 0
3, 12179, Note_on_c, 1, 63, 37
3, 12180, Note_on_c, 1, 67, 45
3, 12204, Note_on_c, 1, 67, 0
3, 12205, Note_on_c, 1, 63, 0
3, 12209, Note_on_c, 1, 67, 45
3, 12209, Note_on_c, 1, 63, 34
3, 12235, Note_on_c, 1, 63, 0
3, 12235, Note_on_c, 1, 67, 0
3, 12239, Note_on_c, 1, 58, 46
3, 12240, Control_c, 1, 64, 0
3, 12252, Control_c, 1, 64, 127
3, 12271, Note_on_c, 1, 65, 45
3, 12271, Note_on_c, 1, 62, 38
3, 12295, Note_on_c, 1, 62, 0
3, 12295, Note_on_c, 1, 65, 0
3, 12295, Note_on_c, 1, 58, 0
3, 12301, Note_on_c, 1, 65, 40
3, 12301, Note_on_c, 1, 62, 43
3, 12325, Note_on_c, 1, 62, 0
3, 12325, Note_on_c, 1, 65, 0
3, 12330, Note_on_c, 1, 65, 45
3, 12331, Note_on_c, 1, 62, 40
3, 12355, Note_on_c, 1, 62, 0
3, 12355, Note_on_c, 1, 65, 0
3, 12356, Control_c, 1, 64, 0
3, 12361, Note_on_c, 1, 58, 52
3, 12372, Control_c, 1, 64, 127
3, 12389, Note_on_c, 1, 63, 37
3, 12389, Note_on_c, 1, 67, 37
3, 12415, Note_on_c, 1, 67, 0
3, 12415, Note_on_c, 1, 63, 0
3, 12419, Note_on_c, 1, 67, 46
3, 12419, Note_on_c, 1, 63, 45
3, 12424, Note_on_c, 1, 58, 0
3, 12445, Note_on_c, 1, 63, 0
3, 12445, Note_on_c, 1, 67, 0
3, 12449, Note_on_c, 1, 67, 47
3, 12449, Note_on_c, 1, 63, 47
3, 12474, Note_on_c, 1, 63, 0
3, 12475, Note_on_c, 1, 67, 0
3, 12479, Note_on_c, 1, 57, 79
3, 12479, Note_on_c, 1, 60, 70
3, 12479, Control_c, 1, 64, 0
3, 12598, Note_on_c, 1, 57, 0
3, 12599, Note_on_c, 1, 60, 0
3, 12629, Note_on_c, 1, 59, 62
3, 12629, Note_on_c, 1, 67, 66
3, 12631, Control_c, 1, 64, 127
3, 12656, Note_on_c, 1, 67, 0
3, 12656, Note_on_c, 1, 59, 0
3, 12659, Note_on_c, 1, 59, 62
3, 12659, Note_on_c, 1, 67, 75
3, 12685, Note_on_c, 1, 59, 0
3, 12686, Note_on_c, 1, 67, 0
3, 12689, Note_on_c, 1, 59, 54
3, 12689, Note_on_c, 1, 67, 66
3, 12708, Control_c, 1, 64, 0
3, 12715, Note_on_c, 1, 67, 0
3, 12716, Note_on_c, 1, 59, 0
3, 12719, Note_on_c, 1, 67, 62
3, 12719, Note_on_c, 1, 60, 66
3, 12723, Control_c, 1, 64, 127
3, 12751, Note_on_c, 1, 67, 0
3, 12752, Note_on_c, 1, 60, 0
3, 12833, Control_c, 1, 64, 0
3, 12853, Control_c, 1, 64, 127
3, 12869, Note_on_c, 1, 60, 52
3, 12869, Note_on_c, 1, 56, 52
3, 12895, Note_on_c, 1, 56, 0
3, 12896, Note_on_c, 1, 60, 0
3, 12899, Note_on_c, 1, 60, 47
3, 12899, Note_on_c, 1, 56, 46
3, 12925, Note_on_c, 1, 56, 0
3, 12926, Note_on_c, 1, 60, 0
3, 12929, Note_on_c, 1, 56, 49
3, 12929, Note_on_c, 1, 60, 54
3, 12955, Note_on_c, 1, 60, 0
3, 12955, Note_on_c, 1, 56, 0
3, 12956, Control_c, 1, 64, 0
3, 12959, Note_on_c, 1, 56, 45
3, 12960, Note_on_c, 1, 53, 50
3, 12973, Control_c, 1, 64, 127
3, 13078, Note_on_c, 1, 53, 0
3, 13078, Note_on_c, 1, 56, 0
3, 13080, Control_c, 1, 64, 0
3, 13200, Note_on_c, 1, 63, 50
3, 13201, Note_on_c, 1, 55, 54
3, 13207, Control_c, 1, 64, 127
3, 13229, Note_on_c, 1, 63, 0
3, 13230, Control_c, 1, 64, 0
3, 13231, Note_on_c, 1, 64, 54
3, 13261, Note_on_c, 1, 64, 0
3, 13261, Note_on_c, 1, 65, 54
3, 13285, Control_c, 1, 64, 127
3, 13289, Note_on_c, 1, 65, 0
3, 13290, Note_on_c, 1, 66, 50
3, 13316, Note_on_c, 1, 55, 0
3, 13318, Note_on_c, 1, 66, 0
3, 13320, Control_c, 1, 64, 0
3, 13321, Note_on_c, 1, 67, 54
3, 13321, Note_on_c, 1, 55, 45
3, 13351, Control_c, 1, 64, 127
3, 13378, Note_on_c, 1, 67, 0
3, 13379, Note_on_c, 1, 55, 0
3, 13408, Control_c, 1, 64, 0
3, 13438, Note_on_c, 1, 48, 62
3, 13439, Control_c, 1, 64, 127
3, 13469, Note_on_c, 1, 48, 0
3, 13469, Note_on_c, 1, 60, 46
3, 13497, Note_on_c, 1, 60, 0
3, 13499, Note_on_c, 1, 60, 47
3, 13526, Note_on_c, 1, 60, 0
3, 13529, Note_on_c, 1, 60, 50
3, 13556, Note_on_c, 1, 60, 0
3, 13559, Note_on_c, 1, 60, 54
3, 13587, Note_on_c, 1, 60, 0
3, 13589, Note_on_c, 1, 60, 58
3, 13616, Note_on_c, 1, 60, 0
3, 13620, Note_on_c, 1, 60, 66
3, 13645, Note_on_c, 1, 60, 0
3, 13649, Note_on_c, 1, 60, 50
3, 13676, Note_on_c, 1, 60, 0
3, 13679, Control_c, 1, 64, 0
3, 13680, Note_on_c, 1, 47, 46
3, 13696, Control_c, 1, 64, 127
3, 13708, Note_on_c, 1, 47, 0
3, 13709, Note_on_c, 1, 59, 45
3, 13736, Note_on_c, 1, 59, 0
3, 13740, Note_on_c, 1, 59, 58
3, 13766, Note_on_c, 1, 59, 0
3, 13770, Note_on_c, 1, 59, 62
3, 13795, Note_on_c, 1, 59, 0
3, 13799, Note_on_c, 1, 59, 58
3, 13826, Note_on_c, 1, 59, 0
3, 13830, Note_on_c, 1, 59, 66
3, 13855, Note_on_c, 1, 59, 0
3, 13860, Note_on_c, 1, 59, 70
3, 13885, Note_on_c, 1, 59, 0
3, 13889, Note_on_c, 1, 59, 66
3, 13916, Note_on_c, 1, 59, 0
3, 13921, Control_c, 1, 64, 0
3, 13921, Note_on_c, 1, 60, 52
3, 13937, Control_c, 1, 64, 127
3, 14038, Note_on_c, 1, 60, 0
3, 14039, Note_on_c, 1, 56, 50
3, 14041, Control_c, 1, 64, 0
3, 14056, Control_c, 1, 64, 127
3, 14096, Control_c, 1, 64, 0
3, 14099, Note_on_c, 1, 54, 50
3, 14101, Note_on_c, 1, 56, 0
3, 14113, Control_c, 1, 64, 127
3, 14155, Control_c, 1, 64, 0
3, 14159, Note_on_c, 1, 54, 0
3, 14160, Note_on_c, 1, 55, 50
3, 14167, Control_c, 1, 64, 127
3, 14190, Note_on_c, 1, 55, 0
3, 14190, Note_on_c, 1, 43, 45
3, 14220, Note_on_c, 1, 43, 0
3, 14221, Control_c, 1, 64, 0
3, 14221, Note_on_c, 1, 55, 58
3, 14232, Control_c, 1, 64, 127
3, 14248, Note_on_c, 1, 55, 0
3, 14250, Note_on_c, 1, 55, 58
3, 14275, Note_on_c, 1, 55, 0
3, 14280, Note_on_c, 1, 55, 62
3, 14280, Control_c, 1, 64, 0
3, 14292, Control_c, 1, 64, 127
3, 14303, Control_c, 1, 64, 0
3, 14309, Note_on_c, 1, 55, 0
3, 14309, Note_on_c, 1, 53, 62
3, 14339, Note_on_c, 1, 53, 0
3, 14339, Note_on_c, 1, 51, 49
3, 14369, Note_on_c, 1, 51, 0
3, 14369, Note_on_c, 1, 50, 62
3, 14399, Note_on_c, 1, 50, 0
3, 14399, Note_on_c, 1, 48, 54
3, 14519, Note_on_c, 1, 48, 0
3, 14542, Control_c, 1, 64, 127
3, 14549, Note_on_c, 1, 63, 42
3, 14549, Note_on_c, 1, 67, 54
3, 14576, Note_on_c, 1, 67, 0
3, 14576, Note_on_c, 1, 63, 0
3, 14579, Note_on_c, 1, 67, 54
3, 14579, Note_on_c, 1, 63, 42
3, 14606, Note_on_c, 1, 63, 0
3, 14606, Note_on_c, 1, 67, 0
3, 14609, Note_on_c, 1, 67, 58
3, 14609, Note_on_c, 1, 63, 42
3, 14635, Control_c, 1, 64, 0
3, 14636, Note_on_c, 1, 63, 0
3, 14636, Note_on_c, 1, 67, 0
3, 14639, Note_on_c, 1, 68, 47
3, 14639, Note_on_c, 1, 65, 62
3, 14651, Control_c, 1, 64, 127
3, 14674, Note_on_c, 1, 65, 0
3, 14675, Note_on_c, 1, 68, 0
3, 14755, Control_c, 1, 64, 0
3, 14774, Control_c, 1, 64, 127
3, 14789, Note_on_c, 1, 72, 52
3, 14789, Note_on_c, 1, 68, 47
3, 14816, Note_on_c, 1, 68, 0
3, 14816, Note_on_c, 1, 72, 0
3, 14819, Note_on_c, 1, 68, 50
3, 14819, Note_on_c, 1, 72, 54
3, 14846, Note_on_c, 1, 72, 0
3, 14846, Note_on_c, 1, 68, 0
3, 14849, Note_on_c, 1, 68, 46
3, 14849, Note_on_c, 1, 72, 47
3, 14875, Note_on_c, 1, 68, 0
3, 14876, Note_on_c, 1, 72, 0
3, 14879, Note_on_c, 1, 71, 62
3, 14879, Note_on_c, 1, 67, 54
3, 14879, Control_c, 1, 64, 0
3, 14905, Note_on_c, 1, 67, 0
3, 14905, Note_on_c, 1, 71, 0
3, 14940, Note_on_c, 1, 68, 52
3, 14965, Note_on_c, 1, 68, 0
3, 15000, Note_on_c, 1, 65, 66
3, 15025, Note_on_c, 1, 65, 0
3, 15061, Note_on_c, 1, 67, 58
3, 15086, Note_on_c, 1, 67, 0
3, 15121, Note_on_c, 1, 60, 50
3, 15133, Control_c, 1, 64, 127
3, 15236, Note_on_c, 1, 60, 0
3, 15242, Control_c, 1, 64, 0
3, 15361, Note_on_c, 1, 60, 52
3, 15364, Control_c, 1, 64, 127
3, 15389, Note_on_c, 1, 60, 0
3, 15389, Note_on_c, 1, 70, 46
3, 15389, Note_on_c, 1, 67, 54
3, 15415, Note_on_c, 1, 67, 0
3, 15416, Note_on_c, 1, 70, 0
3, 15419, Note_on_c, 1, 70, 36
3, 15420, Note_on_c, 1, 67, 43
3, 15445, Note_on_c, 1, 67, 0
3, 15446, Note_on_c, 1, 70, 0
3, 15449, Note_on_c, 1, 70, 42
3, 15450, Note_on_c, 1, 67, 43
3, 15475, Note_on_c, 1, 67, 0
3, 15476, Note_on_c, 1, 70, 0
3, 15481, Note_on_c, 1, 60, 50
3, 15484, Control_c, 1, 64, 0
3, 15497, Control_c, 1, 64, 127
3, 15509, Note_on_c, 1, 68, 40
3, 15509, Note_on_c, 1, 65, 54
3, 15513, Note_on_c, 1, 60, 0
3, 15535, Note_on_c, 1, 65, 0
3, 15536, Note_on_c, 1, 68, 0
3, 15540, Note_on_c, 1, 68, 32
3, 15541, Note_on_c, 1, 65, 40
3, 15565, Note_on_c, 1, 68, 0
3, 15566, Note_on_c, 1, 65, 0
3, 15570, Note_on_c, 1, 68, 35
3, 15571, Note_on_c, 1, 65, 47
3, 15595, Note_on_c, 1, 68, 0
3, 15596, Note_on_c, 1, 65, 0
3, 15601, Note_on_c, 1, 60, 52
3, 15601, Control_c, 1, 64, 0
3, 15616, Control_c, 1, 64, 127
3, 15630, Note_on_c, 1, 64, 47
3, 15630, Note_on_c, 1, 67, 45
3, 15631, Note_on_c, 1, 60, 0
3, 15654, Note_on_c, 1, 64, 0
3, 15655, Note_on_c, 1, 67, 0
3, 15659, Note_on_c, 1, 64, 41
3, 15659, Note_on_c, 1, 67, 46
3, 15685, Note_on_c, 1, 67, 0
3, 15685, Note_on_c, 1, 64, 0
3, 15689, Note_on_c, 1, 64, 39
3, 15689, Note_on_c, 1, 67, 50
3, 15715, Note_on_c, 1, 67, 0
3, 15715, Note_on_c, 1, 64, 0
3, 15718, Control_c, 1, 64, 0
3, 15720, Note_on_c, 1, 60, 52
3, 15732, Control_c, 1, 64, 127
3, 15748, Note_on_c, 1, 60, 0
3, 15749, Note_on_c, 1, 68, 54
3, 15749, Note_on_c, 1, 65, 47
3, 15775, Note_on_c, 1, 65, 0
3, 15775, Note_on_c, 1, 68, 0
3, 15778, Control_c, 1, 64, 0
3, 15780, Note_on_c, 1, 59, 66
3, 15799, Control_c, 1, 64, 127
3, 15811, Note_on_c, 1, 68, 52
3, 15811, Note_on_c, 1, 65, 52
3, 15812, Note_on_c, 1, 59, 0
3, 15836, Note_on_c, 1, 65, 0
3, 15836, Note_on_c, 1, 68, 0
3, 15841, Note_on_c, 1, 58, 46
3, 15843, Control_c, 1, 64, 0
3, 15859, Control_c, 1, 64, 127
3, 15871, Note_on_c, 1, 68, 46
3, 15871, Note_on_c, 1, 65, 40
3, 15873, Note_on_c, 1, 58, 0
3, 15895, Note_on_c, 1, 65, 0
3, 15895, Note_on_c, 1, 68, 0
3, 15901, Note_on_c, 1, 68, 34
3, 15901, Note_on_c, 1, 65, 41
3, 15925, Note_on_c, 1, 65, 0
3, 15925, Note_on_c, 1, 68, 0
3, 15930, Note_on_c, 1, 68, 40
3, 15931, Note_on_c, 1, 65, 39
3, 15955, Note_on_c, 1, 65, 0
3, 15955, Note_on_c, 1, 68, 0
3, 15961, Control_c, 1, 64, 0
3, 15961, Note_on_c, 1, 58, 47
3, 15975, Control_c, 1, 64, 127
3, 15991, Note_on_c, 1, 63, 33
3, 15991, Note_on_c, 1, 67, 29
3, 16015, Note_on_c, 1, 63, 0
3, 16016, Note_on_c, 1, 67, 0
3, 16019, Note_on_c, 1, 67, 38
3, 16020, Note_on_c, 1, 63, 40
3, 16025, Note_on_c, 1, 58, 0
3, 16044, Note_on_c, 1, 63, 0
3, 16045, Note_on_c, 1, 67, 0
3, 16049, Note_on_c, 1, 67, 40
3, 16049, Note_on_c, 1, 63, 39
3, 16075, Note_on_c, 1, 63, 0
3, 16075, Note_on_c, 1, 67, 0
3, 16079, Control_c, 1, 64, 0
3, 16080, Note_on_c, 1, 58, 42
3, 16092, Control_c, 1, 64, 127
3, 16109, Note_on_c, 1, 65, 45
3, 16109, Note_on_c, 1, 62, 46
3, 16135, Note_on_c, 1, 62, 0
3, 16135, Note_on_c, 1, 65, 0
3, 16139, Note_on_c, 1, 65, 47
3, 16139, Note_on_c, 1, 62, 40
3, 16141, Note_on_c, 1, 58, 0
3, 16165, Note_on_c, 1, 62, 0
3, 16165, Note_on_c, 1, 65, 0
3, 16169, Note_on_c, 1, 62, 36
3, 16169, Note_on_c, 1, 65, 42
3, 16195, Note_on_c, 1, 65, 0
3, 16195, Note_on_c, 1, 62, 0
3, 16200, Control_c, 1, 64, 0
3, 16201, Note_on_c, 1, 58, 46
3, 16215, Control_c, 1, 64, 127
3, 16229, Note_on_c, 1, 63, 40
3, 16229, Note_on_c, 1, 67, 37
3, 16233, Note_on_c, 1, 58, 0
3, 16255, Note_on_c, 1, 67, 0
3, 16255, Note_on_c, 1, 63, 0
3, 16259, Note_on_c, 1, 63, 39
3, 16259, Note_on_c, 1, 67, 42
3, 16285, Note_on_c, 1, 67, 0
3, 16285, Note_on_c, 1, 63, 0
3, 16289, Note_on_c, 1, 63, 35
3, 16289, Note_on_c, 1, 67, 42
3, 16315, Note_on_c, 1, 67, 0
3, 16315, Note_on_c, 1, 63, 0
3, 16319, Control_c, 1, 64, 0
3, 16321, Note_on_c, 1, 57, 52
3, 16321, Note_on_c, 1, 60, 45
3, 16333, Control_c, 1, 64, 127
3, 16436, Note_on_c, 1, 57, 0
3, 16438, Note_on_c, 1, 60, 0
3, 16439, Control_c, 1, 64, 0
3, 16465, Control_c, 1, 64, 127
3, 16469, Note_on_c, 1, 59, 49
3, 16469, Note_on_c, 1, 67, 54
3, 16496, Note_on_c, 1, 67, 0
3, 16496, Note_on_c, 1, 59, 0
3, 16499, Note_on_c, 1, 67, 52
3, 16499, Note_on_c, 1, 59, 52
3, 16525, Note_on_c, 1, 59, 0
3, 16525, Note_on_c, 1, 67, 0
3, 16529, Note_on_c, 1, 59, 52
3, 16529, Note_on_c, 1, 67, 52
3, 16555, Note_on_c, 1, 67, 0
3, 16555, Control_c, 1, 64, 0
3, 16556, Note_on_c, 1, 59, 0
3, 16559, Note_on_c, 1, 67, 62
3, 16559, Note_on_c, 1, 60, 66
3, 16570, Control_c, 1, 64, 127
3, 16592, Note_on_c, 1, 60, 0
3, 16592, Note_on_c, 1, 67, 0
3, 16675, Control_c, 1, 64, 0
3, 16692, Control_c, 1, 64, 127
3, 16709, Note_on_c, 1, 60, 54
3, 16709, Note_on_c, 1, 56, 50
3, 16735, Note_on_c, 1, 56, 0
3, 16735, Note_on_c, 1, 60, 0
3, 16739, Note_on_c, 1, 56, 46
3, 16739, Note_on_c, 1, 60, 49
3, 16765, Note_on_c, 1, 60, 0
3, 16765, Note_on_c, 1, 56, 0
3, 16769, Note_on_c, 1, 56, 43
3, 16769, Note_on_c, 1, 60, 46
3, 16795, Note_on_c, 1, 60, 0
3, 16796, Note_on_c, 1, 56, 0
3, 16796, Control_c, 1, 64, 0
3, 16799, Note_on_c, 1, 56, 46
3, 16800, Note_on_c, 1, 53, 50
3, 16810, Control_c, 1, 64, 127
3, 16914, Note_on_c, 1, 53, 0
3, 16915, Note_on_c, 1, 56, 0
3, 16917, Control_c, 1, 64, 0
3, 17041, Note_on_c, 1, 55, 54
3, 17041, Note_on_c, 1, 63, 50
3, 17070, Note_on_c, 1, 64, 50
3, 17071, Note_on_c, 1, 63, 0
3, 17100, Note_on_c, 1, 65, 54
3, 17102, Note_on_c, 1, 64, 0
3, 17127, Control_c, 1, 64, 127
3, 17131, Note_on_c, 1, 66, 49
3, 17132, Note_on_c, 1, 65, 0
3, 17156, Note_on_c, 1, 55, 0
3, 17159, Note_on_c, 1, 66, 0
3, 17159, Control_c, 1, 64, 0
3, 17161, Note_on_c, 1, 67, 52
3, 17161, Note_on_c, 1, 55, 50
3, 17178, Control_c, 1, 64, 127
3, 17216, Note_on_c, 1, 67, 0
3, 17218, Note_on_c, 1, 55, 0
3, 17274, Control_c, 1, 64, 0
3, 17279, Note_on_c, 1, 48, 52
3, 17291, Control_c, 1, 64, 127
3, 17309, Note_on_c, 1, 48, 0
3, 17310, Note_on_c, 1, 60, 47
3, 17336, Note_on_c, 1, 60, 0
3, 17341, Note_on_c, 1, 60, 46
3, 17367, Note_on_c, 1, 60, 0
3, 17371, Note_on_c, 1, 60, 40
3, 17397, Note_on_c, 1, 60, 0
3, 17401, Note_on_c, 1, 60, 45
3, 17427, Note_on_c, 1, 60, 0
3, 17431, Note_on_c, 1, 60, 49
3, 17456, Note_on_c, 1, 60, 0
3, 17461, Note_on_c, 1, 60, 47
3, 17486, Note_on_c, 1, 60, 0
3, 17491, Note_on_c, 1, 60, 50
3, 17516, Note_on_c, 1, 60, 0
3, 17521, Note_on_c, 1, 47, 54
3, 17525, Control_c, 1, 64, 0
3, 17539, Control_c, 1, 64, 127
3, 17549, Note_on_c, 1, 47, 0
3, 17551, Note_on_c, 1, 59, 46
3, 17577, Note_on_c, 1, 59, 0
3, 17580, Note_on_c, 1, 59, 49
3, 17605, Note_on_c, 1, 59, 0
3, 17611, Note_on_c, 1, 59, 52
3, 17637, Note_on_c, 1, 59, 0
3, 17641, Note_on_c, 1, 59, 49
3, 17667, Note_on_c, 1, 59, 0
3, 17671, Note_on_c, 1, 59, 50
3, 17696, Note_on_c, 1, 59, 0
3, 17701, Note_on_c, 1, 59, 58
3, 17727, Note_on_c, 1, 59, 0
3, 17731, Note_on_c, 1, 59, 62
3, 17756, Note_on_c, 1, 59, 0
3, 17761, Control_c, 1, 64, 0
3, 17761, Note_on_c, 1, 60, 62
3, 17775, Control_c, 1, 64, 127
3, 17877, Control_c, 1, 64, 0
3, 17878, Note_on_c, 1, 60, 0
3, 17879, Note_on_c, 1, 56, 47
3, 17897, Control_c, 1, 64, 127
3, 17936, Control_c, 1, 64, 0
3, 17940, Note_on_c, 1, 56, 0
3, 17940, Note_on_c, 1, 54, 49
3, 17951, Control_c, 1, 64, 127
3, 17991, Control_c, 1, 64, 0
3, 17998, Note_on_c, 1, 54, 0
3, 18002, Note_on_c, 1, 55, 52
3, 18011, Control_c, 1, 64, 127
3, 18030, Note_on_c, 1, 55, 0
3, 18031, Note_on_c, 1, 43, 47
3, 18057, Note_on_c, 1, 43, 0
3, 18061, Note_on_c, 1, 55, 52
3, 18086, Note_on_c, 1, 55, 0
3, 18091, Note_on_c, 1, 55, 54
3, 18116, Note_on_c, 1, 55, 0
3, 18121, Note_on_c, 1, 55, 58
3, 18125, Control_c, 1, 64, 0
3, 18144, Control_c, 1, 64, 127
3, 18149, Note_on_c, 1, 55, 0
3, 18149, Note_on_c, 1, 53, 46
3, 18160, Control_c, 1, 64, 0
3, 18179, Note_on_c, 1, 53, 0
3, 18179, Note_on_c, 1, 51, 50
3, 18209, Note_on_c, 1, 51, 0
3, 18209, Note_on_c, 1, 50, 52
3, 18240, Note_on_c, 1, 50, 0
3, 18241, Note_on_c, 1, 48, 62
3, 18272, Control_c, 1, 64, 127
3, 18298, Note_on_c, 1, 48, 0
3, 18354, Control_c, 1, 64, 0
3, 18389, Note_on_c, 1, 63, 46
3, 18389, Note_on_c, 1, 67, 58
3, 18394, Control_c, 1, 64, 127
3, 18417, Note_on_c, 1, 67, 0
3, 18417, Note_on_c, 1, 63, 0
3, 18419, Note_on_c, 1, 67, 52
3, 18419, Note_on_c, 1, 63, 49
3, 18446, Note_on_c, 1, 63, 0
3, 18446, Note_on_c, 1, 67, 0
3, 18449, Note_on_c, 1, 63, 46
3, 18449, Note_on_c, 1, 67, 66
3, 18476, Note_on_c, 1, 67, 0
3, 18476, Note_on_c, 1, 63, 0
3, 18476, Control_c, 1, 64, 0
3, 18479, Note_on_c, 1, 68, 54
3, 18480, Note_on_c, 1, 65, 66
3, 18494, Control_c, 1, 64, 127
3, 18508, Note_on_c, 1, 65, 0
3, 18509, Note_on_c, 1, 68, 0
3, 18594, Control_c, 1, 64, 0
3, 18629, Note_on_c, 1, 68, 46
3, 18629, Note_on_c, 1, 72, 54
3, 18657, Note_on_c, 1, 72, 0
3, 18657, Note_on_c, 1, 68, 0
3, 18659, Note_on_c, 1, 68, 50
3, 18659, Note_on_c, 1, 72, 52
3, 18669, Control_c, 1, 64, 127
3, 18686, Note_on_c, 1, 68, 0
3, 18687, Note_on_c, 1, 72, 0
3, 18689, Note_on_c, 1, 68, 52
3, 18689, Note_on_c, 1, 72, 52
3, 18708, Control_c, 1, 64, 0
3, 18716, Note_on_c, 1, 68, 0
3, 18717, Note_on_c, 1, 72, 0
3, 18719, Note_on_c, 1, 67, 47
3, 18719, Note_on_c, 1, 71, 58
3, 18746, Note_on_c, 1, 71, 0
3, 18746, Note_on_c, 1, 67, 0
3, 18779, Note_on_c, 1, 68, 62
3, 18806, Note_on_c, 1, 68, 0
3, 18839, Note_on_c, 1, 65, 62
3, 18865, Note_on_c, 1, 65, 0
3, 18899, Note_on_c, 1, 67, 66
3, 18926, Note_on_c, 1, 67, 0
3, 18961, Note_on_c, 1, 60, 58
3, 18972, Control_c, 1, 64, 127
3, 19048, Note_on_c, 1, 60, 0
3, 19079, Control_c, 1, 64, 0
3, 19108, Note_on_c, 1, 66, 50
3, 19108, Note_on_c, 1, 63, 47
3, 19138, Note_on_c, 1, 64, 50
3, 19139, Note_on_c, 1, 63, 0
3, 19139, Note_on_c, 1, 66, 0
3, 19139, Note_on_c, 1, 67, 47
3, 19168, Note_on_c, 1, 66, 54
3, 19168, Note_on_c, 1, 63, 49
3, 19169, Note_on_c, 1, 67, 0
3, 19169, Note_on_c, 1, 64, 0
3, 19199, Note_on_c, 1, 63, 0
3, 19199, Note_on_c, 1, 64, 52
3, 19199, Note_on_c, 1, 67, 70
3, 19200, Note_on_c, 1, 66, 0
3, 19228, Control_c, 1, 64, 127
3, 19292, Note_on_c, 1, 67, 0
3, 19293, Note_on_c, 1, 64, 0
3, 19334, Control_c, 1, 64, 0
3, 19349, Note_on_c, 1, 64, 62
3, 19349, Note_on_c, 1, 67, 66
3, 19379, Note_on_c, 1, 64, 0
3, 19379, Note_on_c, 1, 65, 54
3, 19380, Note_on_c, 1, 68, 62
3, 19381, Note_on_c, 1, 67, 0
3, 19409, Note_on_c, 1, 68, 0
3, 19410, Note_on_c, 1, 65, 0
3, 19410, Note_on_c, 1, 64, 54
3, 19410, Note_on_c, 1, 67, 66
3, 19440, Note_on_c, 1, 64, 0
3, 19441, Note_on_c, 1, 67, 0
3, 19441, Note_on_c, 1, 68, 66
3, 19441, Note_on_c, 1, 65, 70
3, 19465, Control_c, 1, 64, 127
3, 19503, Note_on_c, 1, 65, 0
3, 19504, Note_on_c, 1, 68, 0
3, 19571, Control_c, 1, 64, 0
3, 19584, Control_c, 1, 64, 127
3, 19589, Note_on_c, 1, 66, 54
3, 19589, Note_on_c, 1, 63, 52
3, 19616, Note_on_c, 1, 63, 0
3, 19616, Note_on_c, 1, 66, 0
3, 19620, Control_c, 1, 64, 0
3, 19620, Note_on_c, 1, 62, 54
3, 19621, Note_on_c, 1, 65, 62
3, 19637, Control_c, 1, 64, 127
3, 19648, Note_on_c, 1, 62, 0
3, 19649, Note_on_c, 1, 65, 0
3, 19650, Note_on_c, 1, 66, 43
3, 19650, Note_on_c, 1, 63, 52
3, 19677, Note_on_c, 1, 63, 0
3, 19678, Note_on_c, 1, 66, 0
3, 19678, Control_c, 1, 64, 0
3, 19681, Note_on_c, 1, 65, 62
3, 19681, Note_on_c, 1, 62, 66
3, 19703, Control_c, 1, 64, 127
3, 19744, Note_on_c, 1, 62, 0
3, 19744, Note_on_c, 1, 65, 0
3, 19813, Control_c, 1, 64, 0
3, 19831, Note_on_c, 1, 67, 66
3, 19831, Note_on_c, 1, 64, 62
3, 19850, Control_c, 1, 64, 127
3, 19860, Note_on_c, 1, 64, 0
3, 19861, Note_on_c, 1, 67, 0
3, 19861, Note_on_c, 1, 68, 54
3, 19861, Note_on_c, 1, 65, 46
3, 19864, Control_c, 1, 64, 0
3, 19890, Note_on_c, 1, 68, 0
3, 19891, Note_on_c, 1, 65, 0
3, 19891, Note_on_c, 1, 64, 52
3, 19891, Note_on_c, 1, 67, 52
3, 19921, Note_on_c, 1, 67, 0
3, 19921, Note_on_c, 1, 64, 0
3, 19921, Note_on_c, 1, 68, 58
3, 19922, Note_on_c, 1, 65, 66
3, 19944, Control_c, 1, 64, 127
3, 20037, Note_on_c, 1, 65, 0
3, 20037, Note_on_c, 1, 68, 0
3, 20038, Control_c, 1, 64, 0
3, 20159, Note_on_c, 1, 70, 66
3, 20159, Note_on_c, 1, 65, 79
3, 20159, Note_on_c, 1, 62, 75
3, 20222, Control_c, 1, 64, 127
3, 20342, Note_on_c, 1, 62, 0
3, 20342, Note_on_c, 1, 65, 0
3, 20342, Note_on_c, 1, 70, 0
3, 20342, Control_c, 1, 64, 0
3, 20641, Note_on_c, 1, 39, 46
3, 20641, Note_on_c, 1, 51, 42
3, 20656, Control_c, 1, 64, 127
3, 20761, Note_on_c, 1, 51, 0
3, 20761, Note_on_c, 1, 39, 0
3, 20772, Control_c, 1, 64, 0
3, 20820, Note_on_c, 1, 46, 66
3, 20877, Note_on_c, 1, 46, 0
3, 20882, Note_on_c, 1, 51, 49
3, 21060, Note_on_c, 1, 51, 0
3, 21060, Note_on_c, 1, 46, 43
3, 21083, Control_c, 1, 64, 127
3, 21117, Control_c, 1, 64, 0
3, 21118, Note_on_c, 1, 46, 0
3, 21120, Note_on_c, 1, 51, 47
3, 21137, Control_c, 1, 64, 127
3, 21178, Control_c, 1, 64, 0
3, 21179, Note_on_c, 1, 48, 50
3, 21180, Note_on_c, 1, 51, 0
3, 21200, Control_c, 1, 64, 127
3, 21237, Control_c, 1, 64, 0
3, 21239, Note_on_c, 1, 43, 52
3, 21240, Note_on_c, 1, 48, 0
3, 21301, Note_on_c, 1, 44, 54
3, 21302, Note_on_c, 1, 43, 0
3, 21361, Note_on_c, 1, 44, 0
3, 21361, Note_on_c, 1, 46, 50
3, 21388, Control_c, 1, 64, 127
3, 21544, Note_on_c, 1, 46, 0
3, 21589, Control_c, 1, 64, 0
3, 21601, Note_on_c, 1, 67, 58
3, 21622, Control_c, 1, 64, 127
3, 21664, Note_on_c, 1, 67, 0
3, 21721, Note_on_c, 1, 63, 49
3, 21728, Control_c, 1, 64, 0
3, 21743, Control_c, 1, 64, 127
3, 21780, Note_on_c, 1, 63, 0
3, 21781, Note_on_c, 1, 58, 41
3, 21785, Control_c, 1, 64, 0
3, 21796, Control_c, 1, 64, 127
3, 21838, Note_on_c, 1, 58, 0
3, 21839, Control_c, 1, 64, 0
3, 21840, Note_on_c, 1, 55, 50
3, 21865, Note_on_c, 1, 55, 0
3, 21899, Note_on_c, 1, 58, 54
3, 21925, Note_on_c, 1, 58, 0
3, 21959, Note_on_c, 1, 63, 54
3, 21986, Note_on_c, 1, 63, 0
3, 22019, Note_on_c, 1, 60, 52
3, 22045, Note_on_c, 1, 60, 0
3, 22082, Note_on_c, 1, 55, 62
3, 22086, Control_c, 1, 64, 127
3, 22108, Note_on_c, 1, 55, 0
3, 22133, Control_c, 1, 64, 0
3, 22139, Note_on_c, 1, 56, 62
3, 22140, Note_on_c, 1, 65, 58
3, 22147, Control_c, 1, 64, 127
3, 22154, Note_on_c, 1, 56, 0
3, 22157, Note_on_c, 1, 65, 0
3, 22196, Control_c, 1, 64, 0
3, 22201, Note_on_c, 1, 67, 70
3, 22201, Note_on_c, 1, 58, 50
3, 22212, Control_c, 1, 64, 127
3, 22254, Control_c, 1, 64, 0
3, 22261, Note_on_c, 1, 67, 0
3, 22261, Note_on_c, 1, 68, 54
3, 22270, Control_c, 1, 64, 127
3, 22288, Note_on_c, 1, 68, 0
3, 22288, Note_on_c, 1, 58, 0
3, 22320, Control_c, 1, 64, 0
3, 22321, Note_on_c, 1, 68, 50
3, 22321, Note_on_c, 1, 63, 54
3, 22338, Control_c, 1, 64, 127
3, 22441, Note_on_c, 1, 67, 45
3, 22442, Note_on_c, 1, 68, 0
3, 22443, Control_c, 1, 64, 0
3, 22463, Control_c, 1, 64, 127
3, 22503, Note_on_c, 1, 63, 0
3, 22504, Note_on_c, 1, 67, 0
3, 22508, Control_c, 1, 64, 0
3, 22561, Note_on_c, 1, 56, 66
3, 22566, Control_c, 1, 64, 127
3, 22591, Note_on_c, 1, 63, 36
3, 22593, Note_on_c, 1, 56, 0
3, 22619, Note_on_c, 1, 63, 0
3, 22621, Note_on_c, 1, 60, 46
3, 22649, Note_on_c, 1, 60, 0
3, 22651, Note_on_c, 1, 63, 39
3, 22679, Note_on_c, 1, 63, 0
3, 22680, Note_on_c, 1, 58, 49
3, 22686, Control_c, 1, 64, 0
3, 22700, Control_c, 1, 64, 127
3, 22708, Note_on_c, 1, 58, 0
3, 22709, Note_on_c, 1, 63, 43
3, 22739, Note_on_c, 1, 63, 0
3, 22739, Note_on_c, 1, 61, 46
3, 22769, Note_on_c, 1, 61, 0
3, 22769, Note_on_c, 1, 63, 26
3, 22799, Note_on_c, 1, 63, 0
3, 22799, Note_on_c, 1, 60, 54
3, 22799, Control_c, 1, 64, 0
3, 22813, Control_c, 1, 64, 127
3, 22829, Note_on_c, 1, 60, 0
3, 22830, Note_on_c, 1, 63, 45
3, 22858, Note_on_c, 1, 63, 0
3, 22859, Note_on_c, 1, 56, 58
3, 22859, Control_c, 1, 64, 0
3, 22874, Control_c, 1, 64, 127
3, 22889, Note_on_c, 1, 56, 0
3, 22889, Note_on_c, 1, 63, 43
3, 22917, Note_on_c, 1, 63, 0
3, 22917, Control_c, 1, 64, 0
3, 22919, Note_on_c, 1, 55, 75
3, 22931, Control_c, 1, 64, 127
3, 22946, Note_on_c, 1, 55, 0
3, 22949, Note_on_c, 1, 63, 38
3, 22977, Control_c, 1, 64, 0
3, 22979, Note_on_c, 1, 63, 0
3, 22980, Note_on_c, 1, 51, 58
3, 22989, Control_c, 1, 64, 127
3, 23008, Note_on_c, 1, 51, 0
3, 23009, Note_on_c, 1, 63, 46
3, 23036, Control_c, 1, 64, 0
3, 23038, Note_on_c, 1, 63, 0
3, 23039, Note_on_c, 1, 55, 79
3, 23049, Control_c, 1, 64, 127
3, 23068, Note_on_c, 1, 55, 0
3, 23069, Note_on_c, 1, 63, 46
3, 23099, Note_on_c, 1, 63, 0
3, 23099, Control_c, 1, 64, 0
3, 23100, Note_on_c, 1, 58, 62
3, 23111, Control_c, 1, 64, 127
3, 23128, Note_on_c, 1, 58, 0
3, 23129, Note_on_c, 1, 63, 46
3, 23159, Note_on_c, 1, 63, 0
3, 23159, Control_c, 1, 64, 0
3, 23159, Note_on_c, 1, 56, 62
3, 23171, Control_c, 1, 64, 127
3, 23189, Note_on_c, 1, 56, 0
3, 23189, Note_on_c, 1, 63, 41
3, 23216, Control_c, 1, 64, 0
3, 23219, Note_on_c, 1, 63, 0
3, 23219, Note_on_c, 1, 60, 62
3, 23228, Control_c, 1, 64, 127
3, 23248, Note_on_c, 1, 60, 0
3, 23249, Note_on_c, 1, 63, 38
3, 23276, Control_c, 1, 64, 0
3, 23279, Note_on_c, 1, 63, 0
3, 23279, Note_on_c, 1, 55, 70
3, 23289, Control_c, 1, 64, 127
3, 23309, Note_on_c, 1, 55, 0
3, 23310, Note_on_c, 1, 63, 41
3, 23337, Control_c, 1, 64, 0
3, 23338, Note_on_c, 1, 63, 0
3, 23339, Note_on_c, 1, 51, 54
3, 23348, Control_c, 1, 64, 127
3, 23368, Note_on_c, 1, 51, 0
3, 23368, Note_on_c, 1, 63, 50
3, 23392, Note_on_c, 1, 63, 0
3, 23397, Control_c, 1, 64, 0
3, 23400, Note_on_c, 1, 56, 58
3, 23410, Control_c, 1, 64, 127
3, 23428, Note_on_c, 1, 56, 0
3, 23429, Note_on_c, 1, 63, 38
3, 23458, Control_c, 1, 64, 0
3, 23459, Note_on_c, 1, 63, 0
3, 23459, Note_on_c, 1, 60, 62
3, 23470, Control_c, 1, 64, 127
3, 23489, Note_on_c, 1, 60, 0
3, 23490, Note_on_c, 1, 63, 46
3, 23515, Note_on_c, 1, 63, 0
3, 23519, Control_c, 1, 64, 0
3, 23520, Note_on_c, 1, 58, 66
3, 23533, Control_c, 1, 64, 127
3, 23548, Note_on_c, 1, 58, 0
3, 23549, Note_on_c, 1, 67, 42
3, 23579, Note_on_c, 1, 67, 0
3, 23579, Note_on_c, 1, 64, 62
3, 23580, Control_c, 1, 64, 0
3, 23592, Control_c, 1, 64, 127
3, 23609, Note_on_c, 1, 64, 0
3, 23609, Note_on_c, 1, 67, 41
3, 23638, Note_on_c, 1, 67, 0
3, 23640, Note_on_c, 1, 56, 66
3, 23642, Control_c, 1, 64, 0
3, 23656, Control_c, 1, 64, 127
3, 23669, Note_on_c, 1, 65, 45
3, 23670, Note_on_c, 1, 56, 0
3, 23698, Control_c, 1, 64, 0
3, 23699, Note_on_c, 1, 65, 0
3, 23699, Note_on_c, 1, 60, 66
3, 23709, Control_c, 1, 64, 127
3, 23729, Note_on_c, 1, 60, 0
3, 23729, Note_on_c, 1, 65, 38
3, 23755, Control_c, 1, 64, 0
3, 23759, Note_on_c, 1, 65, 0
3, 23759, Note_on_c, 1, 56, 52
3, 23768, Control_c, 1, 64, 127
3, 23789, Note_on_c, 1, 65, 43
3, 23790, Note_on_c, 1, 56, 0
3, 23817, Control_c, 1, 64, 0
3, 23819, Note_on_c, 1, 65, 0
3, 23819, Note_on_c, 1, 62, 62
3, 23827, Control_c, 1, 64, 127
3, 23849, Note_on_c, 1, 62, 0
3, 23849, Note_on_c, 1, 65, 46
3, 23877, Note_on_c, 1, 65, 0
3, 23877, Control_c, 1, 64, 0
3, 23879, Note_on_c, 1, 55, 66
3, 23889, Control_c, 1, 64, 127
3, 23909, Note_on_c, 1, 55, 0
3, 23909, Note_on_c, 1, 63, 40
3, 23939, Note_on_c, 1, 63, 0
3, 23939, Control_c, 1, 64, 0
3, 23939, Note_on_c, 1, 58, 54
3, 23950, Control_c, 1, 64, 127
3, 23968, Note_on_c, 1, 58, 0
3, 23969, Note_on_c, 1, 63, 50
3, 23998, Note_on_c, 1, 63, 0
3, 23998, Control_c, 1, 64, 0
3, 23999, Note_on_c, 1, 56, 62
3, 24011, Control_c, 1, 64, 127
3, 24029, Note_on_c, 1, 56, 0
3, 24029, Note_on_c, 1, 65, 45
3, 24058, Control_c, 1, 64, 0
3, 24059, Note_on_c, 1, 65, 0
3, 24060, Note_on_c, 1, 60, 62
3, 24070, Control_c, 1, 64, 127
3, 24088, Note_on_c, 1, 60, 0
3, 24091, Note_on_c, 1, 65, 54
3, 24119, Note_on_c, 1, 65, 0
3, 24119, Control_c, 1, 64, 0
3, 24120, Note_on_c, 1, 58, 52
3, 24132, Control_c, 1, 64, 127
3, 24148, Note_on_c, 1, 58, 0
3, 24149, Note_on_c, 1, 67, 54
3, 24178, Control_c, 1, 64, 0
3, 24179, Note_on_c, 1, 67, 0
3, 24180, Note_on_c, 1, 58, 50
3, 24191, Control_c, 1, 64, 127
3, 24208, Note_on_c, 1, 58, 0
3, 24209, Note_on_c, 1, 68, 66
3, 24237, Note_on_c, 1, 68, 0
3, 24239, Control_c, 1, 64, 0
3, 24241, Note_on_c, 1, 63, 49
3, 24241, Note_on_c, 1, 67, 47
3, 24253, Control_c, 1, 64, 127
3, 24362, Note_on_c, 1, 67, 0
3, 24362, Note_on_c, 1, 63, 0
3, 24363, Control_c, 1, 64, 0
3, 24480, Note_on_c, 1, 56, 47
3, 24485, Control_c, 1, 64, 127
3, 24511, Note_on_c, 1, 63, 22
3, 24512, Note_on_c, 1, 56, 0
3, 24539, Note_on_c, 1, 63, 0
3, 24541, Note_on_c, 1, 60, 52
3, 24569, Note_on_c, 1, 60, 0
3, 24571, Note_on_c, 1, 63, 26
3, 24599, Note_on_c, 1, 63, 0
3, 24601, Note_on_c, 1, 58, 52
3, 24607, Control_c, 1, 64, 0
3, 24619, Control_c, 1, 64, 127
3, 24629, Note_on_c, 1, 58, 0
3, 24631, Note_on_c, 1, 63, 36
3, 24659, Note_on_c, 1, 63, 0
3, 24660, Control_c, 1, 64, 0
3, 24660, Note_on_c, 1, 61, 50
3, 24672, Control_c, 1, 64, 127
3, 24688, Note_on_c, 1, 61, 0
3, 24689, Note_on_c, 1, 63, 38
3, 24715, Control_c, 1, 64, 0
3, 24719, Note_on_c, 1, 63, 0
3, 24719, Note_on_c, 1, 60, 66
3, 24727, Control_c, 1, 64, 127
3, 24748, Note_on_c, 1, 60, 0
3, 24749, Note_on_c, 1, 63, 41
3, 24778, Control_c, 1, 64, 0
3, 24779, Note_on_c, 1, 63, 0
3, 24779, Note_on_c, 1, 56, 62
3, 24790, Control_c, 1, 64, 127
3, 24809, Note_on_c, 1, 56, 0
3, 24809, Note_on_c, 1, 63, 32
3, 24835, Control_c, 1, 64, 0
3, 24839, Note_on_c, 1, 63, 0
3, 24839, Note_on_c, 1, 55, 62
3, 24846, Control_c, 1, 64, 127
3, 24868, Note_on_c, 1, 55, 0
3, 24870, Note_on_c, 1, 63, 35
3, 24896, Control_c, 1, 64, 0
3, 24898, Note_on_c, 1, 63, 0
3, 24899, Note_on_c, 1, 51, 58
3, 24907, Control_c, 1, 64, 127
3, 24928, Note_on_c, 1, 51, 0
3, 24930, Note_on_c, 1, 63, 42
3, 24957, Note_on_c, 1, 63, 0
3, 24961, Control_c, 1, 64, 0
3, 24961, Note_on_c, 1, 55, 52
3, 24973, Control_c, 1, 64, 127
3, 24989, Note_on_c, 1, 55, 0
3, 24990, Note_on_c, 1, 63, 45
3, 25017, Note_on_c, 1, 63, 0
3, 25019, Control_c, 1, 64, 0
3, 25020, Note_on_c, 1, 58, 54
3, 25030, Control_c, 1, 64, 127
3, 25048, Note_on_c, 1, 58, 0
3, 25051, Note_on_c, 1, 63, 46
3, 25079, Note_on_c, 1, 63, 0
3, 25080, Control_c, 1, 64, 0
3, 25081, Note_on_c, 1, 56, 66
3, 25091, Control_c, 1, 64, 127
3, 25107, Note_on_c, 1, 56, 0
3, 25111, Note_on_c, 1, 63, 47
3, 25138, Control_c, 1, 64, 0
3, 25139, Note_on_c, 1, 63, 0
3, 25141, Note_on_c, 1, 60, 62
3, 25150, Control_c, 1, 64, 127
3, 25168, Note_on_c, 1, 60, 0
3, 25171, Note_on_c, 1, 63, 45
3, 25195, Control_c, 1, 64, 0
3, 25198, Note_on_c, 1, 63, 0
3, 25199, Note_on_c, 1, 55, 66
3, 25207, Control_c, 1, 64, 127
3, 25228, Note_on_c, 1, 55, 0
3, 25231, Note_on_c, 1, 63, 37
3, 25254, Control_c, 1, 64, 0
3, 25258, Note_on_c, 1, 63, 0
3, 25259, Note_on_c, 1, 51, 54
3, 25267, Control_c, 1, 64, 127
3, 25288, Note_on_c, 1, 51, 0
3, 25289, Note_on_c, 1, 63, 49
3, 25306, Note_on_c, 1, 63, 0
3, 25317, Control_c, 1, 64, 0
3, 25319, Note_on_c, 1, 56, 54
3, 25329, Control_c, 1, 64, 127
3, 25341, Note_on_c, 1, 56, 0
3, 25349, Note_on_c, 1, 63, 49
3, 25377, Note_on_c, 1, 63, 0
3, 25377, Control_c, 1, 64, 0
3, 25379, Note_on_c, 1, 60, 66
3, 25388, Control_c, 1, 64, 127
3, 25407, Note_on_c, 1, 60, 0
3, 25409, Note_on_c, 1, 63, 40
3, 25436, Note_on_c, 1, 63, 0
3, 25440, Control_c, 1, 64, 0
3, 25441, Note_on_c, 1, 58, 52
3, 25453, Control_c, 1, 64, 127
3, 25469, Note_on_c, 1, 58, 0
3, 25469, Note_on_c, 1, 67, 54
3, 25498, Note_on_c, 1, 67, 0
3, 25498, Control_c, 1, 64, 0
3, 25499, Note_on_c, 1, 64, 52
3, 25508, Control_c, 1, 64, 127
3, 25529, Note_on_c, 1, 64, 0
3, 25529, Note_on_c, 1, 67, 47
3, 25556, Control_c, 1, 64, 0
3, 25559, Note_on_c, 1, 67, 0
3, 25559, Note_on_c, 1, 56, 62
3, 25569, Control_c, 1, 64, 127
3, 25589, Note_on_c, 1, 56, 0
3, 25589, Note_on_c, 1, 65, 28
3, 25617, Control_c, 1, 64, 0
3, 25618, Note_on_c, 1, 65, 0
3, 25619, Note_on_c, 1, 60, 62
3, 25626, Control_c, 1, 64, 127
3, 25648, Note_on_c, 1, 60, 0
3, 25649, Note_on_c, 1, 65, 49
3, 25676, Control_c, 1, 64, 0
3, 25678, Note_on_c, 1, 65, 0
3, 25679, Note_on_c, 1, 56, 54
3, 25689, Control_c, 1, 64, 127
3, 25709, Note_on_c, 1, 56, 0
3, 25709, Note_on_c, 1, 65, 45
3, 25736, Control_c, 1, 64, 0
3, 25738, Note_on_c, 1, 65, 0
3, 25739, Note_on_c, 1, 62, 52
3, 25748, Control_c, 1, 64, 127
3, 25769, Note_on_c, 1, 62, 0
3, 25769, Note_on_c, 1, 65, 52
3, 25796, Note_on_c, 1, 65, 0
3, 25797, Control_c, 1, 64, 0
3, 25800, Note_on_c, 1, 55, 58
3, 25810, Control_c, 1, 64, 127
3, 25828, Note_on_c, 1, 55, 0
3, 25830, Note_on_c, 1, 63, 40
3, 25851, Control_c, 1, 64, 0
3, 25858, Note_on_c, 1, 63, 0
3, 25859, Note_on_c, 1, 58, 50
3, 25865, Control_c, 1, 64, 127
3, 25888, Note_on_c, 1, 58, 0
3, 25889, Note_on_c, 1, 63, 45
3, 25914, Control_c, 1, 64, 0
3, 25918, Note_on_c, 1, 63, 0
3, 25919, Note_on_c, 1, 56, 54
3, 25928, Control_c, 1, 64, 127
3, 25949, Note_on_c, 1, 56, 0
3, 25950, Note_on_c, 1, 65, 47
3, 25976, Control_c, 1, 64, 0
3, 25978, Note_on_c, 1, 65, 0
3, 25980, Note_on_c, 1, 60, 54
3, 25992, Control_c, 1, 64, 127
3, 26008, Note_on_c, 1, 60, 0
3, 26010, Note_on_c, 1, 65, 54
3, 26038, Note_on_c, 1, 65, 0
3, 26038, Control_c, 1, 64, 0
3, 26040, Note_on_c, 1, 58, 58
3, 26051, Control_c, 1, 64, 127
3, 26068, Note_on_c, 1, 58, 0
3, 26069, Note_on_c, 1, 67, 52
3, 26099, Note_on_c, 1, 67, 0
3, 26099, Control_c, 1, 64, 0
3, 26100, Note_on_c, 1, 58, 52
3, 26112, Control_c, 1, 64, 127
3, 26128, Note_on_c, 1, 58, 0
3, 26130, Note_on_c, 1, 68, 54
3, 26156, Note_on_c, 1, 68, 0
3, 26159, Control_c, 1, 64, 0
3, 26161, Note_on_c, 1, 63, 47
3, 26161, Note_on_c, 1, 67, 52
3, 26172, Control_c, 1, 64, 127
3, 26282, Note_on_c, 1, 67, 0
3, 26283, Note_on_c, 1, 63, 0
3, 26284, Control_c, 1, 64, 0
3, 26401, Note_on_c, 1, 63, 45
3, 26409, Control_c, 1, 64, 127
3, 26429, Note_on_c, 1, 63, 0
3, 26431, Note_on_c, 1, 66, 41
3, 26459, Note_on_c, 1, 66, 0
3, 26461, Note_on_c, 1, 63, 45
3, 26488, Note_on_c, 1, 63, 0
3, 26491, Note_on_c, 1, 66, 42
3, 26518, Note_on_c, 1, 66, 0
3, 26521, Note_on_c, 1, 63, 49
3, 26525, Control_c, 1, 64, 0
3, 26543, Control_c, 1, 64, 127
3, 26549, Note_on_c, 1, 63, 0
3, 26551, Note_on_c, 1, 65, 45
3, 26559, Control_c, 1, 64, 0
3, 26575, Control_c, 1, 64, 127
3, 26580, Note_on_c, 1, 63, 43
3, 26581, Note_on_c, 1, 65, 0
3, 26587, Control_c, 1, 64, 0
3, 26601, Control_c, 1, 64, 127
3, 26609, Note_on_c, 1, 63, 0
3, 26609, Note_on_c, 1, 65, 52
3, 26637, Control_c, 1, 64, 0
3, 26639, Note_on_c, 1, 65, 0
3, 26640, Note_on_c, 1, 62, 46
3, 26659, Control_c, 1, 64, 127
3, 26669, Note_on_c, 1, 62, 0
3, 26671, Note_on_c, 1, 65, 41
3, 26700, Note_on_c, 1, 65, 0
3, 26700, Note_on_c, 1, 62, 52
3, 26728, Note_on_c, 1, 62, 0
3, 26730, Note_on_c, 1, 65, 45
3, 26760, Note_on_c, 1, 65, 0
3, 26760, Note_on_c, 1, 61, 49
3, 26764, Control_c, 1, 64, 0
3, 26784, Control_c, 1, 64, 127
3, 26791, Note_on_c, 1, 63, 41
3, 26792, Note_on_c, 1, 61, 0
3, 26820, Note_on_c, 1, 63, 0
3, 26821, Note_on_c, 1, 61, 50
3, 26826, Control_c, 1, 64, 0
3, 26838, Control_c, 1, 64, 127
3, 26851, Note_on_c, 1, 61, 0
3, 26851, Note_on_c, 1, 63, 52
3, 26879, Note_on_c, 1, 63, 0
3, 26881, Note_on_c, 1, 60, 58
3, 26885, Control_c, 1, 64, 0
3, 26900, Control_c, 1, 64, 127
3, 26911, Note_on_c, 1, 60, 0
3, 26911, Note_on_c, 1, 63, 42
3, 26939, Note_on_c, 1, 63, 0
3, 26941, Note_on_c, 1, 60, 49
3, 26969, Note_on_c, 1, 60, 0
3, 26971, Note_on_c, 1, 63, 42
3, 26999, Note_on_c, 1, 63, 0
3, 27000, Control_c, 1, 64, 0
3, 27001, Note_on_c, 1, 61, 58
3, 27016, Control_c, 1, 64, 127
3, 27058, Note_on_c, 1, 61, 0
3, 27059, Note_on_c, 1, 58, 54
3, 27059, Control_c, 1, 64, 0
3, 27071, Control_c, 1, 64, 127
3, 27092, Note_on_c, 1, 58, 0
3, 27117, Control_c, 1, 64, 0
3, 27119, Note_on_c, 1, 63, 46
3, 27148, Control_c, 1, 64, 127
3, 27151, Note_on_c, 1, 62, 46
3, 27152, Note_on_c, 1, 63, 0
3, 27160, Control_c, 1, 64, 0
3, 27181, Note_on_c, 1, 62, 0
3, 27181, Note_on_c, 1, 63, 47
3, 27211, Note_on_c, 1, 63, 0
3, 27211, Note_on_c, 1, 62, 62
3, 27239, Note_on_c, 1, 62, 0
3, 27241, Note_on_c, 1, 63, 52
3, 27269, Note_on_c, 1, 63, 0
3, 27270, Note_on_c, 1, 58, 52
3, 27300, Note_on_c, 1, 58, 0
3, 27300, Note_on_c, 1, 55, 54
3, 27330, Note_on_c, 1, 55, 0
3, 27331, Note_on_c, 1, 51, 62
3, 27331, Control_c, 1, 64, 127
3, 27355, Control_c, 1, 64, 0
3, 27359, Note_on_c, 1, 51, 0
3, 27360, Note_on_c, 1, 53, 75
3, 27374, Control_c, 1, 64, 127
3, 27390, Note_on_c, 1, 53, 0
3, 27391, Note_on_c, 1, 60, 45
3, 27419, Note_on_c, 1, 60, 0
3, 27419, Note_on_c, 1, 56, 66
3, 27420, Control_c, 1, 64, 0
3, 27432, Control_c, 1, 64, 127
3, 27449, Note_on_c, 1, 56, 0
3, 27450, Note_on_c, 1, 60, 52
3, 27476, Note_on_c, 1, 60, 0
3, 27476, Control_c, 1, 64, 0
3, 27480, Note_on_c, 1, 56, 66
3, 27489, Control_c, 1, 64, 127
3, 27508, Note_on_c, 1, 56, 0
3, 27509, Note_on_c, 1, 65, 49
3, 27537, Control_c, 1, 64, 0
3, 27538, Note_on_c, 1, 65, 0
3, 27539, Note_on_c, 1, 58, 62
3, 27550, Control_c, 1, 64, 127
3, 27569, Note_on_c, 1, 58, 0
3, 27569, Note_on_c, 1, 65, 52
3, 27595, Control_c, 1, 64, 0
3, 27597, Note_on_c, 1, 65, 0
3, 27600, Note_on_c, 1, 55, 62
3, 27609, Control_c, 1, 64, 127
3, 27628, Note_on_c, 1, 55, 0
3, 27630, Note_on_c, 1, 63, 43
3, 27658, Note_on_c, 1, 63, 0
3, 27658, Control_c, 1, 64, 0
3, 27659, Note_on_c, 1, 58, 58
3, 27669, Control_c, 1, 64, 127
3, 27688, Note_on_c, 1, 58, 0
3, 27689, Note_on_c, 1, 63, 47
3, 27715, Note_on_c, 1, 63, 0
3, 27717, Control_c, 1, 64, 0
3, 27720, Note_on_c, 1, 61, 75
3, 27728, Control_c, 1, 64, 127
3, 27748, Note_on_c, 1, 61, 0
3, 27750, Note_on_c, 1, 70, 45
3, 27776, Note_on_c, 1, 70, 0
3, 27778, Control_c, 1, 64, 0
3, 27779, Note_on_c, 1, 63, 62
3, 27789, Control_c, 1, 64, 127
3, 27807, Note_on_c, 1, 63, 0
3, 27809, Note_on_c, 1, 70, 49
3, 27835, Note_on_c, 1, 70, 0
3, 27835, Control_c, 1, 64, 0
3, 27839, Note_on_c, 1, 68, 50
3, 27839, Note_on_c, 1, 60, 62
3, 27849, Control_c, 1, 64, 127
3, 27868, Note_on_c, 1, 60, 0
3, 27868, Note_on_c, 1, 68, 0
3, 27894, Control_c, 1, 64, 0
3, 27899, Note_on_c, 1, 61, 45
3, 27900, Note_on_c, 1, 65, 54
3, 27906, Control_c, 1, 64, 127
3, 27926, Note_on_c, 1, 65, 0
3, 27926, Note_on_c, 1, 61, 0
3, 27953, Control_c, 1, 64, 0
3, 27959, Note_on_c, 1, 51, 47
3, 27959, Note_on_c, 1, 60, 46
3, 27966, Control_c, 1, 64, 127
3, 27989, Note_on_c, 1, 60, 0
3, 27989, Note_on_c, 1, 51, 0
3, 28015, Control_c, 1, 64, 0
3, 28019, Note_on_c, 1, 51, 50
3, 28020, Note_on_c, 1, 58, 52
3, 28027, Control_c, 1, 64, 127
3, 28048, Note_on_c, 1, 58, 0
3, 28048, Note_on_c, 1, 51, 0
3, 28075, Control_c, 1, 64, 0
3, 28079, Note_on_c, 1, 61, 45
3, 28079, Note_on_c, 1, 56, 46
3, 28091, Control_c, 1, 64, 127
3, 28167, Note_on_c, 1, 61, 0
3, 28201, Note_on_c, 1, 60, 37
3, 28203, Control_c, 1, 64, 0
3, 28220, Control_c, 1, 64, 127
3, 28258, Note_on_c, 1, 56, 0
3, 28259, Note_on_c, 1, 60, 0
3, 28304, Control_c, 1, 64, 0
3, 28321, Note_on_c, 1, 63, 52
3, 28330, Control_c, 1, 64, 127
3, 28349, Note_on_c, 1, 63, 0
3, 28351, Note_on_c, 1, 66, 33
3, 28379, Note_on_c, 1, 66, 0
3, 28381, Note_on_c, 1, 63, 33
3, 28409, Note_on_c, 1, 63, 0
3, 28412, Note_on_c, 1, 66, 43
3, 28431, Note_on_c, 1, 66, 0
3, 28441, Note_on_c, 1, 63, 52
3, 28445, Control_c, 1, 64, 0
3, 28460, Control_c, 1, 64, 127
3, 28469, Note_on_c, 1, 63, 0
3, 28471, Note_on_c, 1, 65, 41
3, 28499, Note_on_c, 1, 65, 0
3, 28499, Note_on_c, 1, 63, 46
3, 28502, Control_c, 1, 64, 0
3, 28514, Control_c, 1, 64, 127
3, 28529, Note_on_c, 1, 63, 0
3, 28529, Note_on_c, 1, 65, 49
3, 28553, Control_c, 1, 64, 0
3, 28559, Note_on_c, 1, 65, 0
3, 28559, Note_on_c, 1, 62, 54
3, 28569, Control_c, 1, 64, 127
3, 28589, Note_on_c, 1, 62, 0
3, 28589, Note_on_c, 1, 65, 42
3, 28616, Control_c, 1, 64, 0
3, 28619, Note_on_c, 1, 62, 46
3, 28622, Note_on_c, 1, 65, 0
3, 28628, Control_c, 1, 64, 127
3, 28649, Note_on_c, 1, 62, 0
3, 28650, Note_on_c, 1, 65, 46
3, 28676, Control_c, 1, 64, 0
3, 28679, Note_on_c, 1, 61, 52
3, 28680, Note_on_c, 1, 65, 0
3, 28689, Control_c, 1, 64, 127
3, 28709, Note_on_c, 1, 61, 0
3, 28710, Note_on_c, 1, 63, 46
3, 28733, Control_c, 1, 64, 0
3, 28738, Note_on_c, 1, 63, 0
3, 28739, Note_on_c, 1, 61, 50
3, 28750, Control_c, 1, 64, 127
3, 28769, Note_on_c, 1, 61, 0
3, 28769, Note_on_c, 1, 63, 41
3, 28793, Control_c, 1, 64, 0
3, 28799, Note_on_c, 1, 63, 0
3, 28799, Note_on_c, 1, 60, 66
3, 28808, Control_c, 1, 64, 127
3, 28829, Note_on_c, 1, 60, 0
3, 28829, Note_on_c, 1, 63, 47
3, 28855, Control_c, 1, 64, 0
3, 28859, Note_on_c, 1, 63, 0
3, 28859, Note_on_c, 1, 60, 54
3, 28867, Control_c, 1, 64, 127
3, 28889, Note_on_c, 1, 60, 0
3, 28889, Note_on_c, 1, 63, 45
3, 28913, Control_c, 1, 64, 0
3, 28919, Note_on_c, 1, 63, 0
3, 28919, Note_on_c, 1, 61, 58
3, 28926, Control_c, 1, 64, 127
3, 28978, Note_on_c, 1, 61, 0
3, 28978, Control_c, 1, 64, 0
3, 28979, Note_on_c, 1, 58, 52
3, 28991, Control_c, 1, 64, 127
3, 29036, Control_c, 1, 64, 0
3, 29039, Note_on_c, 1, 58, 0
3, 29039, Note_on_c, 1, 63, 50
3, 29050, Control_c, 1, 64, 127
3, 29069, Note_on_c, 1, 62, 66
3, 29070, Note_on_c, 1, 63, 0
3, 29074, Control_c, 1, 64, 0
3, 29099, Note_on_c, 1, 62, 0
3, 29099, Note_on_c, 1, 63, 50
3, 29129, Note_on_c, 1, 63, 0
3, 29129, Note_on_c, 1, 62, 62
3, 29159, Note_on_c, 1, 62, 0
3, 29160, Note_on_c, 1, 63, 52
3, 29172, Control_c, 1, 64, 127
3, 29178, Control_c, 1, 64, 0
3, 29189, Note_on_c, 1, 63, 0
3, 29189, Note_on_c, 1, 58, 54
3, 29219, Note_on_c, 1, 55, 62
3, 29220, Note_on_c, 1, 58, 0
3, 29240, Control_c, 1, 64, 127
3, 29249, Note_on_c, 1, 51, 58
3, 29250, Note_on_c, 1, 55, 0
3, 29271, Control_c, 1, 64, 0
3, 29277, Note_on_c, 1, 51, 0
3, 29280, Note_on_c, 1, 53, 75
3, 29291, Control_c, 1, 64, 127
3, 29310, Note_on_c, 1, 53, 0
3, 29311, Note_on_c, 1, 60, 47
3, 29339, Note_on_c, 1, 60, 0
3, 29340, Note_on_c, 1, 56, 66
3, 29342, Control_c, 1, 64, 0
3, 29352, Control_c, 1, 64, 127
3, 29368, Note_on_c, 1, 56, 0
3, 29371, Note_on_c, 1, 60, 52
3, 29396, Note_on_c, 1, 60, 0
3, 29398, Control_c, 1, 64, 0
3, 29401, Note_on_c, 1, 56, 54
3, 29410, Control_c, 1, 64, 127
3, 29429, Note_on_c, 1, 56, 0
3, 29431, Note_on_c, 1, 65, 52
3, 29457, Control_c, 1, 64, 0
3, 29458, Note_on_c, 1, 65, 0
3, 29459, Note_on_c, 1, 58, 66
3, 29468, Control_c, 1, 64, 127
3, 29488, Note_on_c, 1, 58, 0
3, 29489, Note_on_c, 1, 65, 54
3, 29515, Control_c, 1, 64, 0
3, 29516, Note_on_c, 1, 65, 0
3, 29519, Note_on_c, 1, 55, 75
3, 29526, Control_c, 1, 64, 127
3, 29549, Note_on_c, 1, 55, 0
3, 29549, Note_on_c, 1, 63, 42
3, 29577, Control_c, 1, 64, 0
3, 29578, Note_on_c, 1, 63, 0
3, 29579, Note_on_c, 1, 58, 66
3, 29587, Control_c, 1, 64, 127
3, 29609, Note_on_c, 1, 58, 0
3, 29609, Note_on_c, 1, 63, 50
3, 29634, Control_c, 1, 64, 0
3, 29635, Note_on_c, 1, 63, 0
3, 29639, Note_on_c, 1, 61, 70
3, 29644, Control_c, 1, 64, 127
3, 29668, Note_on_c, 1, 70, 41
3, 29669, Note_on_c, 1, 61, 0
3, 29693, Control_c, 1, 64, 0
3, 29697, Note_on_c, 1, 70, 0
3, 29698, Note_on_c, 1, 63, 58
3, 29703, Control_c, 1, 64, 127
3, 29727, Note_on_c, 1, 63, 0
3, 29728, Note_on_c, 1, 70, 47
3, 29754, Control_c, 1, 64, 0
3, 29756, Note_on_c, 1, 70, 0
3, 29759, Note_on_c, 1, 60, 62
3, 29759, Note_on_c, 1, 68, 47
3, 29766, Control_c, 1, 64, 127
3, 29787, Note_on_c, 1, 60, 0
3, 29788, Note_on_c, 1, 68, 0
3, 29815, Control_c, 1, 64, 0
3, 29820, Note_on_c, 1, 61, 50
3, 29821, Note_on_c, 1, 65, 62
3, 29826, Control_c, 1, 64, 127
3, 29846, Note_on_c, 1, 65, 0
3, 29846, Note_on_c, 1, 61, 0
3, 29877, Control_c, 1, 64, 0
3, 29881, Note_on_c, 1, 51, 45
3, 29881, Note_on_c, 1, 60, 49
3, 29891, Control_c, 1, 64, 127
3, 29936, Note_on_c, 1, 60, 0
3, 29940, Note_on_c, 1, 58, 66
3, 29943, Control_c, 1, 64, 0
3, 29956, Control_c, 1, 64, 127
3, 29976, Note_on_c, 1, 51, 0
3, 29994, Note_on_c, 1, 58, 0
3, 29999, Note_on_c, 1, 61, 41
3, 30000, Control_c, 1, 64, 0
3, 30000, Note_on_c, 1, 56, 46
3, 30018, Control_c, 1, 64, 127
3, 30094, Note_on_c, 1, 61, 0
3, 30120, Note_on_c, 1, 60, 47
3, 30120, Control_c, 1, 64, 0
3, 30134, Control_c, 1, 64, 127
3, 30180, Note_on_c, 1, 60, 0
3, 30180, Note_on_c, 1, 56, 0
3, 30211, Control_c, 1, 64, 0
3, 30240, Note_on_c, 1, 67, 79
3, 30240, Note_on_c, 1, 64, 62
3, 30257, Control_c, 1, 64, 127
3, 30276, Note_on_c, 1, 64, 0
3, 30276, Note_on_c, 1, 67, 0
3, 30288, Control_c, 1, 64, 0
3, 30360, Note_on_c, 1, 68, 54
3, 30361, Note_on_c, 1, 65, 75
3, 30364, Control_c, 1, 64, 127
3, 30418, Note_on_c, 1, 65, 0
3, 30418, Note_on_c, 1, 68, 0
3, 30418, Control_c, 1, 64, 0
3, 30480, Note_on_c, 1, 65, 66
3, 30481, Note_on_c, 1, 62, 75
3, 30482, Control_c, 1, 64, 127
3, 30536, Control_c, 1, 64, 0
3, 30537, Note_on_c, 1, 62, 0
3, 30537, Note_on_c, 1, 65, 0
3, 30600, Note_on_c, 1, 67, 62
3, 30601, Note_on_c, 1, 63, 70
3, 30605, Control_c, 1, 64, 127
3, 30657, Note_on_c, 1, 63, 0
3, 30657, Note_on_c, 1, 67, 0
3, 30659, Control_c, 1, 64, 0
3, 30719, Note_on_c, 1, 63, 66
3, 30719, Note_on_c, 1, 59, 70
3, 30723, Control_c, 1, 64, 127
3, 30958, Control_c, 1, 64, 0
3, 30960, Note_on_c, 1, 63, 0
3, 30962, Note_on_c, 1, 59, 0
3, 30990, Note_on_c, 1, 58, 70
3, 31021, Note_on_c, 1, 62, 58
3, 31049, Note_on_c, 1, 65, 70
3, 31050, Note_on_c, 1, 62, 0
3, 31080, Note_on_c, 1, 66, 66
3, 31081, Note_on_c, 1, 65, 0
3, 31138, Note_on_c, 1, 66, 0
3, 31139, Note_on_c, 1, 63, 54
3, 31141, Note_on_c, 1, 58, 0
3, 31198, Note_on_c, 1, 63, 0
3, 31229, Note_on_c, 1, 58, 54
3, 31259, Note_on_c, 1, 62, 70
3, 31291, Note_on_c, 1, 62, 0
3, 31291, Note_on_c, 1, 65, 62
3, 31321, Note_on_c, 1, 65, 0
3, 31321, Note_on_c, 1, 66, 62
3, 31379, Note_on_c, 1, 63, 66
3, 31380, Note_on_c, 1, 66, 0
3, 31382, Note_on_c, 1, 58, 0
3, 31438, Note_on_c, 1, 63, 0
3, 31469, Note_on_c, 1, 58, 79
3, 31499, Note_on_c, 1, 62, 79
3, 31529, Note_on_c, 1, 65, 70
3, 31530, Note_on_c, 1, 62, 0
3, 31560, Note_on_c, 1, 68, 79
3, 31562, Note_on_c, 1, 65, 0
3, 31622, Control_c, 1, 64, 127
3, 32102, Note_on_c, 1, 68, 0
3, 32102, Note_on_c, 1, 58, 0
3, 32104, Control_c, 1, 64, 0
3, 32159, Note_on_c, 1, 39, 54
3, 32159, Note_on_c, 1, 51, 50
3, 32168, Control_c, 1, 64, 127
3, 32302, Control_c, 1, 64, 0
3, 32308, Note_on_c, 1, 51, 0
3, 32310, Note_on_c, 1, 39, 0
3, 32341, Note_on_c, 1, 46, 66
3, 32400, Note_on_c, 1, 46, 0
3, 32401, Note_on_c, 1, 51, 47
3, 32575, Note_on_c, 1, 51, 0
3, 32578, Note_on_c, 1, 46, 54
3, 32639, Note_on_c, 1, 51, 52
3, 32640, Note_on_c, 1, 46, 0
3, 32698, Note_on_c, 1, 48, 62
3, 32700, Note_on_c, 1, 51, 0
3, 32759, Note_on_c, 1, 43, 62
3, 32760, Note_on_c, 1, 48, 0
3, 32820, Note_on_c, 1, 44, 52
3, 32822, Note_on_c, 1, 43, 0
3, 32881, Note_on_c, 1, 46, 52
3, 32882, Note_on_c, 1, 44, 0
3, 33063, Note_on_c, 1, 46, 0
3, 33119, Note_on_c, 1, 67, 66
3, 33135, Control_c, 1, 64, 127
3, 33239, Note_on_c, 1, 67, 0
3, 33239, Note_on_c, 1, 63, 58
3, 33241, Control_c, 1, 64, 0
3, 33256, Control_c, 1, 64, 127
3, 33298, Note_on_c, 1, 63, 0
3, 33299, Note_on_c, 1, 58, 49
3, 33301, Control_c, 1, 64, 0
3, 33316, Control_c, 1, 64, 127
3, 33359, Control_c, 1, 64, 0
3, 33359, Note_on_c, 1, 55, 54
3, 33360, Note_on_c, 1, 58, 0
3, 33387, Note_on_c, 1, 55, 0
3, 33419, Note_on_c, 1, 58, 70
3, 33446, Note_on_c, 1, 58, 0
3, 33479, Note_on_c, 1, 63, 66
3, 33506, Note_on_c, 1, 63, 0
3, 33539, Note_on_c, 1, 60, 62
3, 33565, Note_on_c, 1, 60, 0
3, 33599, Note_on_c, 1, 55, 66
3, 33608, Control_c, 1, 64, 127
3, 33634, Note_on_c, 1, 55, 0
3, 33657, Control_c, 1, 64, 0
3, 33660, Note_on_c, 1, 56, 62
3, 33661, Note_on_c, 1, 65, 62
3, 33669, Control_c, 1, 64, 127
3, 33677, Note_on_c, 1, 56, 0
3, 33678, Note_on_c, 1, 65, 0
3, 33714, Control_c, 1, 64, 0
3, 33719, Note_on_c, 1, 67, 66
3, 33719, Note_on_c, 1, 58, 54
3, 33729, Control_c, 1, 64, 127
3, 33774, Control_c, 1, 64, 0
3, 33779, Note_on_c, 1, 67, 0
3, 33779, Note_on_c, 1, 68, 62
3, 33788, Control_c, 1, 64, 127
3, 33807, Note_on_c, 1, 68, 0
3, 33808, Note_on_c, 1, 58, 0
3, 33838, Control_c, 1, 64, 0
3, 33841, Note_on_c, 1, 68, 58
3, 33841, Note_on_c, 1, 63, 62
3, 33856, Control_c, 1, 64, 127
3, 33958, Note_on_c, 1, 68, 0
3, 33958, Control_c, 1, 64, 0
3, 33959, Note_on_c, 1, 67, 50
3, 33973, Control_c, 1, 64, 127
3, 34018, Note_on_c, 1, 63, 0
3, 34021, Note_on_c, 1, 67, 0
3, 34031, Control_c, 1, 64, 0
3, 34079, Note_on_c, 1, 51, 58
3, 34082, Control_c, 1, 64, 127
3, 34111, Note_on_c, 1, 60, 54
3, 34112, Note_on_c, 1, 51, 0
3, 34140, Note_on_c, 1, 60, 0
3, 34140, Note_on_c, 1, 56, 46
3, 34144, Control_c, 1, 64, 0
3, 34156, Control_c, 1, 64, 127
3, 34168, Note_on_c, 1, 56, 0
3, 34169, Note_on_c, 1, 60, 49
3, 34199, Note_on_c, 1, 60, 0
3, 34199, Note_on_c, 1, 51, 50
3, 34199, Control_c, 1, 64, 0
3, 34211, Control_c, 1, 64, 127
3, 34229, Note_on_c, 1, 60, 49
3, 34230, Note_on_c, 1, 51, 0
3, 34259, Note_on_c, 1, 60, 0
3, 34259, Note_on_c, 1, 56, 52
3, 34288, Note_on_c, 1, 56, 0
3, 34289, Note_on_c, 1, 60, 45
3, 34315, Control_c, 1, 64, 0
3, 34317, Note_on_c, 1, 60, 0
3, 34319, Note_on_c, 1, 51, 50
3, 34327, Control_c, 1, 64, 127
3, 34350, Note_on_c, 1, 51, 0
3, 34351, Note_on_c, 1, 58, 31
3, 34380, Note_on_c, 1, 58, 0
3, 34381, Note_on_c, 1, 55, 47
3, 34382, Control_c, 1, 64, 0
3, 34391, Control_c, 1, 64, 127
3, 34409, Note_on_c, 1, 55, 0
3, 34410, Note_on_c, 1, 58, 35
3, 34439, Note_on_c, 1, 58, 0
3, 34439, Note_on_c, 1, 51, 49
3, 34439, Control_c, 1, 64, 0
3, 34451, Control_c, 1, 64, 127
3, 34469, Note_on_c, 1, 51, 0
3, 34469, Note_on_c, 1, 58, 29
3, 34499, Note_on_c, 1, 58, 0
3, 34499, Note_on_c, 1, 55, 54
3, 34503, Control_c, 1, 64, 0
3, 34513, Control_c, 1, 64, 127
3, 34529, Note_on_c, 1, 55, 0
3, 34530, Note_on_c, 1, 58, 34
3, 34557, Note_on_c, 1, 58, 0
3, 34559, Control_c, 1, 64, 0
3, 34559, Note_on_c, 1, 51, 62
3, 34570, Control_c, 1, 64, 127
3, 34588, Note_on_c, 1, 51, 0
3, 34589, Note_on_c, 1, 60, 46
3, 34619, Note_on_c, 1, 60, 0
3, 34619, Note_on_c, 1, 56, 54
3, 34619, Control_c, 1, 64, 0
3, 34628, Control_c, 1, 64, 127
3, 34649, Note_on_c, 1, 56, 0
3, 34649, Note_on_c, 1, 60, 38
3, 34677, Control_c, 1, 64, 0
3, 34679, Note_on_c, 1, 60, 0
3, 34679, Note_on_c, 1, 51, 62
3, 34688, Control_c, 1, 64, 127
3, 34709, Note_on_c, 1, 51, 0
3, 34709, Note_on_c, 1, 60, 41
3, 34739, Note_on_c, 1, 60, 0
3, 34739, Note_on_c, 1, 56, 52
3, 34739, Control_c, 1, 64, 0
3, 34748, Control_c, 1, 64, 127
3, 34769, Note_on_c, 1, 56, 0
3, 34769, Note_on_c, 1, 60, 41
3, 34796, Control_c, 1, 64, 0
3, 34799, Note_on_c, 1, 51, 54
3, 34801, Note_on_c, 1, 60, 0
3, 34808, Control_c, 1, 64, 127
3, 34829, Note_on_c, 1, 58, 47
3, 34830, Note_on_c, 1, 51, 0
3, 34856, Note_on_c, 1, 58, 0
3, 34859, Note_on_c, 1, 55, 62
3, 34859, Control_c, 1, 64, 0
3, 34869, Control_c, 1, 64, 127
3, 34889, Note_on_c, 1, 55, 0
3, 34889, Note_on_c, 1, 58, 28
3, 34916, Control_c, 1, 64, 0
3, 34918, Note_on_c, 1, 58, 0
3, 34919, Note_on_c, 1, 51, 58
3, 34928, Control_c, 1, 64, 127
3, 34949, Note_on_c, 1, 58, 32
3, 34950, Note_on_c, 1, 51, 0
3, 34979, Note_on_c, 1, 58, 0
3, 34979, Note_on_c, 1, 55, 54
3, 34979, Control_c, 1, 64, 0
3, 34989, Control_c, 1, 64, 127
3, 35009, Note_on_c, 1, 55, 0
3, 35009, Note_on_c, 1, 58, 41
3, 35034, Control_c, 1, 64, 0
3, 35036, Note_on_c, 1, 58, 0
3, 35039, Note_on_c, 1, 48, 70
3, 35047, Control_c, 1, 64, 127
3, 35136, Note_on_c, 1, 48, 0
3, 35166, Control_c, 1, 64, 0
3, 35189, Note_on_c, 1, 70, 54
3, 35189, Note_on_c, 1, 62, 58
3, 35189, Control_c, 1, 64, 127
3, 35207, Control_c, 1, 64, 0
3, 35216, Note_on_c, 1, 62, 0
3, 35216, Note_on_c, 1, 70, 0
3, 35218, Note_on_c, 1, 62, 70
3, 35219, Note_on_c, 1, 70, 62
3, 35220, Control_c, 1, 64, 127
3, 35246, Note_on_c, 1, 70, 0
3, 35247, Note_on_c, 1, 62, 0
3, 35249, Note_on_c, 1, 70, 62
3, 35249, Note_on_c, 1, 62, 66
3, 35274, Control_c, 1, 64, 0
3, 35276, Note_on_c, 1, 62, 0
3, 35276, Note_on_c, 1, 70, 0
3, 35279, Note_on_c, 1, 70, 62
3, 35279, Note_on_c, 1, 63, 54
3, 35291, Control_c, 1, 64, 127
3, 35338, Note_on_c, 1, 63, 0
3, 35338, Note_on_c, 1, 70, 0
3, 35394, Control_c, 1, 64, 0
3, 35429, Note_on_c, 1, 70, 54
3, 35429, Note_on_c, 1, 67, 62
3, 35429, Control_c, 1, 64, 127
3, 35452, Control_c, 1, 64, 0
3, 35456, Note_on_c, 1, 67, 0
3, 35456, Note_on_c, 1, 70, 0
3, 35459, Note_on_c, 1, 70, 58
3, 35459, Note_on_c, 1, 67, 58
3, 35464, Control_c, 1, 64, 127
3, 35486, Note_on_c, 1, 67, 0
3, 35487, Note_on_c, 1, 70, 0
3, 35489, Note_on_c, 1, 70, 54
3, 35489, Note_on_c, 1, 67, 66
3, 35513, Control_c, 1, 64, 0
3, 35515, Note_on_c, 1, 67, 0
3, 35517, Note_on_c, 1, 70, 0
3, 35519, Note_on_c, 1, 72, 62
3, 35520, Note_on_c, 1, 68, 62
3, 35532, Control_c, 1, 64, 127
3, 35608, Note_on_c, 1, 68, 0
3, 35608, Note_on_c, 1, 72, 0
3, 35642, Control_c, 1, 64, 0
3, 35701, Note_on_c, 1, 58, 50
3, 35701, Note_on_c, 1, 68, 62
3, 35708, Control_c, 1, 64, 127
3, 35728, Note_on_c, 1, 68, 0
3, 35728, Note_on_c, 1, 58, 0
3, 35760, Control_c, 1, 64, 0
3, 35760, Note_on_c, 1, 68, 62
3, 35760, Note_on_c, 1, 59, 62
3, 35779, Control_c, 1, 64, 127
3, 35855, Note_on_c, 1, 59, 0
3, 35875, Note_on_c, 1, 68, 0
3, 35880, Note_on_c, 1, 67, 52
3, 35880, Note_on_c, 1, 60, 40
3, 35881, Control_c, 1, 64, 0
3, 35898, Control_c, 1, 64, 127
3, 35937, Note_on_c, 1, 67, 0
3, 35938, Note_on_c, 1, 60, 0
3, 35984, Control_c, 1, 64, 0
3, 35998, Note_on_c, 1, 53, 66
3, 36003, Control_c, 1, 64, 127
3, 36029, Note_on_c, 1, 60, 42
3, 36031, Note_on_c, 1, 53, 0
3, 36056, Control_c, 1, 64, 0
3, 36059, Note_on_c, 1, 60, 0
3, 36059, Note_on_c, 1, 57, 62
3, 36067, Control_c, 1, 64, 127
3, 36089, Note_on_c, 1, 57, 0
3, 36089, Note_on_c, 1, 60, 46
3, 36113, Control_c, 1, 64, 0
3, 36119, Note_on_c, 1, 60, 0
3, 36119, Note_on_c, 1, 51, 52
3, 36124, Control_c, 1, 64, 127
3, 36148, Note_on_c, 1, 60, 47
3, 36149, Note_on_c, 1, 51, 0
3, 36176, Control_c, 1, 64, 0
3, 36179, Note_on_c, 1, 60, 0
3, 36179, Note_on_c, 1, 53, 66
3, 36188, Control_c, 1, 64, 127
3, 36209, Note_on_c, 1, 53, 0
3, 36209, Note_on_c, 1, 60, 52
3, 36234, Control_c, 1, 64, 0
3, 36235, Note_on_c, 1, 60, 0
3, 36239, Note_on_c, 1, 50, 75
3, 36246, Control_c, 1, 64, 127
3, 36269, Note_on_c, 1, 50, 0
3, 36269, Note_on_c, 1, 58, 45
3, 36298, Note_on_c, 1, 58, 0
3, 36298, Control_c, 1, 64, 0
3, 36299, Note_on_c, 1, 53, 79
3, 36309, Control_c, 1, 64, 127
3, 36328, Note_on_c, 1, 53, 0
3, 36329, Note_on_c, 1, 58, 39
3, 36355, Note_on_c, 1, 58, 0
3, 36357, Control_c, 1, 64, 0
3, 36359, Note_on_c, 1, 56, 66
3, 36369, Control_c, 1, 64, 127
3, 36388, Note_on_c, 1, 56, 0
3, 36389, Note_on_c, 1, 65, 37
3, 36418, Note_on_c, 1, 65, 0
3, 36419, Note_on_c, 1, 58, 62
3, 36419, Control_c, 1, 64, 0
3, 36428, Control_c, 1, 64, 127
3, 36448, Note_on_c, 1, 58, 0
3, 36449, Note_on_c, 1, 65, 47
3, 36475, Note_on_c, 1, 65, 0
3, 36475, Control_c, 1, 64, 0
3, 36480, Note_on_c, 1, 55, 70
3, 36480, Note_on_c, 1, 63, 52
3, 36487, Control_c, 1, 64, 127
3, 36507, Note_on_c, 1, 63, 0
3, 36507, Note_on_c, 1, 55, 0
3, 36536, Control_c, 1, 64, 0
3, 36540, Note_on_c, 1, 56, 58
3, 36541, Note_on_c, 1, 60, 62
3, 36547, Control_c, 1, 64, 127
3, 36566, Note_on_c, 1, 56, 0
3, 36567, Note_on_c, 1, 60, 0
3, 36595, Control_c, 1, 64, 0
3, 36600, Note_on_c, 1, 46, 62
3, 36600, Note_on_c, 1, 55, 52
3, 36608, Control_c, 1, 64, 127
3, 36632, Note_on_c, 1, 55, 0
3, 36632, Note_on_c, 1, 46, 0
3, 36658, Control_c, 1, 64, 0
3, 36659, Note_on_c, 1, 46, 49
3, 36660, Note_on_c, 1, 53, 50
3, 36668, Control_c, 1, 64, 127
3, 36687, Note_on_c, 1, 53, 0
3, 36687, Note_on_c, 1, 46, 0
3, 36717, Control_c, 1, 64, 0
3, 36719, Note_on_c, 1, 51, 52
3, 36730, Control_c, 1, 64, 127
3, 36749, Note_on_c, 1, 55, 62
3, 36752, Note_on_c, 1, 51, 0
3, 36770, Control_c, 1, 64, 0
3, 36779, Note_on_c, 1, 58, 54
3, 36780, Note_on_c, 1, 55, 0
3, 36805, Note_on_c, 1, 58, 0
3, 36809, Note_on_c, 1, 58, 49
3, 36835, Note_on_c, 1, 58, 0
3, 36839, Note_on_c, 1, 58, 50
3, 36842, Control_c, 1, 64, 127
3, 36897, Note_on_c, 1, 58, 0
3, 36912, Control_c, 1, 64, 0
3, 36959, Note_on_c, 1, 63, 46
3, 36970, Control_c, 1, 64, 127
3, 36989, Note_on_c, 1, 63, 0
3, 36989, Note_on_c, 1, 67, 66
3, 37007, Control_c, 1, 64, 0
3, 37019, Note_on_c, 1, 67, 0
3, 37019, Note_on_c, 1, 70, 66
3, 37045, Note_on_c, 1, 70, 0
3, 37049, Note_on_c, 1, 70, 58
3, 37075, Note_on_c, 1, 70, 0
3, 37079, Note_on_c, 1, 70, 62
3, 37085, Control_c, 1, 64, 127
3, 37109, Note_on_c, 1, 70, 0
3, 37143, Control_c, 1, 64, 0
3, 37199, Note_on_c, 1, 39, 58
3, 37204, Control_c, 1, 64, 127
3, 37224, Control_c, 1, 64, 0
3, 37229, Note_on_c, 1, 43, 52
3, 37230, Note_on_c, 1, 39, 0
3, 37259, Note_on_c, 1, 46, 54
3, 37261, Note_on_c, 1, 43, 0
3, 37285, Note_on_c, 1, 46, 0
3, 37289, Note_on_c, 1, 46, 54
3, 37315, Note_on_c, 1, 46, 0
3, 37319, Note_on_c, 1, 46, 58
3, 37326, Control_c, 1, 64, 127
3, 37373, Control_c, 1, 64, 0
3, 37378, Note_on_c, 1, 46, 0
3, 37441, Note_on_c, 1, 34, 52
3, 37441, Note_on_c, 1, 46, 41
3, 37453, Control_c, 1, 64, 127
3, 37677, Control_c, 1, 64, 0
3, 37678, Note_on_c, 1, 46, 0
3, 37678, Note_on_c, 1, 34, 0
3, 37679, Note_on_c, 1, 39, 33
3, 37691, Control_c, 1, 64, 127
3, 37745, Note_on_c, 1, 39, 0
3, 37746, Control_c, 1, 64, 0
3, 37920, Control_c, 1, 121, 0
3, 37920, End_track
4, 0, Start_track
4, 0, MIDI_port, 0
4, 0, Title_t, "Title: Pinao Sonata in Bbmaj (K. 570) 2nd Mov't."
4, 0, End_track
5, 0, Start_track
5, 0, MIDI_port, 0
5, 0, Title_t, "Composer: W. A. Mozart"
5, 0, End_track
6, 0, Start_track
6, 0, MIDI_port, 0
6, 0, Title_t, "Sequence: Faren Raborn, Copyright 1996"
6, 0, End_track
7, 0, Start_track
7, 0, MIDI_port, 0
7, 0, Title_t, "Email: raborn@dtx.net"
7, 0, End_track
0, 0, End_of_file
