0, 0, Header, 1, 9, 480
1, 0, Start_track
1, 0, Title_t, "Seq-1"
1, 0, SMPTE_offset, 96, 0, 0, 0, 0
1, 0, Time_signature, 4, 2, 24, 8
1, 0, Tempo, 500000
1, 0, End_track
2, 0, Start_track
2, 0, Title_t, "Track-1"
2, 0, Control_c, 0, 64, 127
2, 554, Note_on_c, 0, 60, 78
2, 568, Note_on_c, 0, 48, 60
2, 568, Note_on_c, 0, 36, 70
2, 602, Note_off_c, 0, 36, 64
2, 612, Note_off_c, 0, 48, 64
2, 727, Note_off_c, 0, 60, 64
2, 1202, Note_on_c, 0, 63, 76
2, 1202, Note_on_c, 0, 39, 67
2, 1202, Note_on_c, 0, 51, 62
2, 1240, Note_off_c, 0, 63, 64
2, 1240, Note_off_c, 0, 39, 64
2, 1255, Note_off_c, 0, 51, 64
2, 1260, Control_c, 0, 64, 0
2, 1476, Note_on_c, 0, 67, 93
2, 1490, Note_on_c, 0, 55, 68
2, 1504, Note_on_c, 0, 43, 45
2, 1533, Note_off_c, 0, 55, 64
2, 1548, Note_off_c, 0, 67, 64
2, 1557, Note_off_c, 0, 43, 64
2, 1764, Note_on_c, 0, 60, 72
2, 1764, Note_on_c, 0, 72, 102
2, 1764, Note_on_c, 0, 48, 82
2, 1816, Note_off_c, 0, 48, 64
2, 1845, Note_off_c, 0, 60, 64
2, 1864, Note_off_c, 0, 72, 64
2, 2066, Note_on_c, 0, 75, 73
2, 2071, Note_on_c, 0, 63, 69
2, 2076, Note_on_c, 0, 51, 67
2, 2124, Note_off_c, 0, 63, 64
2, 2143, Note_off_c, 0, 51, 64
2, 2239, Note_off_c, 0, 75, 64
2, 2594, Note_on_c, 0, 75, 69
2, 2642, Note_off_c, 0, 75, 64
2, 2689, Note_on_c, 0, 77, 75
2, 2733, Note_off_c, 0, 77, 64
2, 2748, Note_on_c, 0, 75, 69
2, 2801, Note_off_c, 0, 75, 64
2, 2824, Note_on_c, 0, 77, 77
2, 2868, Note_on_c, 0, 75, 75
2, 2872, Note_off_c, 0, 77, 64
2, 2949, Note_on_c, 0, 74, 81
2, 2954, Note_off_c, 0, 75, 64
2, 3002, Note_off_c, 0, 74, 64
2, 3016, Note_on_c, 0, 75, 90
2, 3122, Note_off_c, 0, 75, 64
2, 3122, Note_on_c, 0, 79, 88
2, 3410, Note_on_c, 0, 72, 75
2, 3410, Note_on_c, 0, 67, 39
2, 3415, Note_off_c, 0, 79, 64
2, 3424, Note_on_c, 0, 63, 26
2, 3477, Note_off_c, 0, 67, 64
2, 3496, Note_off_c, 0, 63, 64
2, 3496, Note_off_c, 0, 72, 64
2, 3501, Control_c, 0, 64, 127
2, 3592, Control_c, 0, 64, 0
2, 3655, Control_c, 0, 64, 127
2, 3703, Note_on_c, 0, 72, 70
2, 3703, Note_on_c, 0, 63, 35
2, 3717, Note_on_c, 0, 67, 53
2, 3775, Note_off_c, 0, 67, 64
2, 3775, Control_c, 0, 64, 0
2, 3780, Note_off_c, 0, 63, 64
2, 3832, Note_off_c, 0, 72, 64
2, 3900, Control_c, 0, 64, 127
2, 4005, Note_on_c, 0, 63, 44
2, 4010, Note_on_c, 0, 67, 54
2, 4010, Note_on_c, 0, 72, 74
2, 4024, Control_c, 0, 64, 0
2, 4068, Note_off_c, 0, 72, 64
2, 4072, Note_off_c, 0, 63, 64
2, 4072, Note_off_c, 0, 67, 64
2, 4144, Control_c, 0, 64, 127
2, 4221, Control_c, 0, 64, 0
2, 4317, Note_on_c, 0, 80, 64
2, 4485, Control_c, 0, 64, 127
2, 4644, Note_on_c, 0, 68, 26
2, 4651, Note_on_c, 0, 62, 19
2, 4651, Note_on_c, 0, 65, 21
2, 4653, Note_on_c, 0, 71, 33
2, 4687, Note_off_c, 0, 80, 64
2, 4728, Note_off_c, 0, 62, 64
2, 4733, Note_off_c, 0, 65, 64
2, 4778, Note_off_c, 0, 68, 64
2, 4831, Note_off_c, 0, 71, 64
2, 5054, Note_on_c, 0, 65, 16
2, 5056, Note_on_c, 0, 68, 29
2, 5059, Note_on_c, 0, 62, 19
2, 5066, Note_on_c, 0, 71, 31
2, 5114, Control_c, 0, 64, 0
2, 5162, Control_c, 0, 64, 127
2, 5203, Note_off_c, 0, 65, 64
2, 5213, Note_off_c, 0, 62, 64
2, 5220, Note_off_c, 0, 68, 64
2, 5301, Note_off_c, 0, 71, 64
2, 5421, Control_c, 0, 64, 0
2, 5964, Note_on_c, 0, 55, 106
2, 5968, Note_on_c, 0, 43, 100
2, 5973, Note_on_c, 0, 31, 105
2, 6199, Note_off_c, 0, 31, 64
2, 6252, Control_c, 0, 64, 127
2, 6266, Note_off_c, 0, 43, 64
2, 6405, Note_off_c, 0, 55, 64
2, 6597, Note_on_c, 0, 47, 88
2, 6597, Note_on_c, 0, 35, 85
2, 6602, Note_on_c, 0, 59, 92
2, 6636, Note_off_c, 0, 35, 64
2, 6636, Control_c, 0, 64, 0
2, 6645, Note_off_c, 0, 47, 64
2, 6674, Note_off_c, 0, 59, 64
2, 6890, Note_on_c, 0, 62, 98
2, 6904, Note_on_c, 0, 50, 103
2, 6904, Note_on_c, 0, 38, 103
2, 6933, Note_off_c, 0, 38, 64
2, 6952, Note_off_c, 0, 50, 64
2, 7034, Note_off_c, 0, 62, 64
2, 7197, Note_on_c, 0, 67, 104
2, 7202, Note_on_c, 0, 55, 97
2, 7202, Note_on_c, 0, 43, 97
2, 7255, Note_off_c, 0, 43, 64
2, 7284, Note_off_c, 0, 55, 64
2, 7317, Note_off_c, 0, 67, 64
2, 7500, Note_on_c, 0, 71, 78
2, 7504, Note_on_c, 0, 59, 70
2, 7509, Note_on_c, 0, 47, 67
2, 7605, Note_off_c, 0, 47, 64
2, 7615, Note_off_c, 0, 59, 64
2, 7648, Note_off_c, 0, 71, 64
2, 8052, Note_on_c, 0, 74, 54
2, 8100, Note_off_c, 0, 74, 64
2, 8143, Note_on_c, 0, 75, 55
2, 8176, Note_on_c, 0, 74, 87
2, 8191, Note_off_c, 0, 75, 64
2, 8229, Note_off_c, 0, 74, 64
2, 8253, Note_on_c, 0, 75, 69
2, 8316, Note_on_c, 0, 74, 72
2, 8320, Note_off_c, 0, 75, 64
2, 8354, Note_off_c, 0, 74, 64
2, 8354, Note_on_c, 0, 72, 80
2, 8407, Note_off_c, 0, 72, 64
2, 8416, Note_on_c, 0, 74, 95
2, 8474, Note_off_c, 0, 74, 64
2, 8532, Note_on_c, 0, 77, 81
2, 8824, Note_on_c, 0, 68, 40
2, 8829, Note_on_c, 0, 71, 55
2, 8843, Note_on_c, 0, 65, 31
2, 8853, Note_off_c, 0, 77, 64
2, 8857, Note_on_c, 0, 62, 21
2, 8934, Note_off_c, 0, 65, 64
2, 8934, Note_off_c, 0, 62, 64
2, 8959, Note_off_c, 0, 68, 64
2, 8973, Note_off_c, 0, 71, 64
2, 8988, Control_c, 0, 64, 127
2, 9031, Control_c, 0, 64, 0
2, 9127, Note_on_c, 0, 71, 53
2, 9132, Note_on_c, 0, 68, 55
2, 9141, Note_on_c, 0, 62, 34
2, 9150, Note_on_c, 0, 65, 46
2, 9208, Note_off_c, 0, 68, 64
2, 9213, Note_off_c, 0, 65, 64
2, 9213, Note_off_c, 0, 62, 64
2, 9261, Note_off_c, 0, 71, 64
2, 9261, Control_c, 0, 64, 127
2, 9352, Control_c, 0, 64, 0
2, 9429, Note_on_c, 0, 71, 67
2, 9434, Note_on_c, 0, 65, 51
2, 9439, Note_on_c, 0, 68, 50
2, 9468, Note_on_c, 0, 62, 32
2, 9506, Note_off_c, 0, 68, 64
2, 9525, Note_off_c, 0, 65, 64
2, 9535, Note_off_c, 0, 62, 64
2, 9540, Note_off_c, 0, 71, 64
2, 9736, Note_on_c, 0, 79, 70
2, 10039, Note_on_c, 0, 67, 40
2, 10048, Note_off_c, 0, 79, 64
2, 10048, Note_on_c, 0, 72, 50
2, 10048, Note_on_c, 0, 63, 34
2, 10135, Note_off_c, 0, 63, 64
2, 10144, Note_off_c, 0, 67, 64
2, 10183, Control_c, 0, 64, 127
2, 10207, Note_off_c, 0, 72, 64
2, 10308, Control_c, 0, 64, 0
2, 10428, Note_on_c, 0, 72, 42
2, 10437, Note_on_c, 0, 67, 25
2, 10442, Note_on_c, 0, 63, 22
2, 10600, Note_off_c, 0, 67, 64
2, 10600, Control_c, 0, 64, 127
2, 10639, Note_off_c, 0, 63, 64
2, 10644, Note_off_c, 0, 72, 64
2, 10831, Control_c, 0, 64, 0
2, 11152, Control_c, 0, 64, 127
2, 11296, Note_on_c, 0, 67, 87
2, 11311, Note_on_c, 0, 43, 33
2, 11368, Note_off_c, 0, 43, 64
2, 11474, Note_on_c, 0, 55, 48
2, 11536, Note_off_c, 0, 55, 64
2, 11599, Note_on_c, 0, 43, 69
2, 11647, Note_off_c, 0, 43, 64
2, 11743, Note_on_c, 0, 55, 76
2, 11810, Note_off_c, 0, 55, 64
2, 11853, Note_off_c, 0, 67, 64
2, 11877, Note_on_c, 0, 43, 67
2, 11920, Note_off_c, 0, 43, 64
2, 12040, Note_on_c, 0, 55, 56
2, 12098, Note_off_c, 0, 55, 64
2, 12199, Control_c, 0, 64, 0
2, 12199, Note_on_c, 0, 75, 67
2, 12213, Note_on_c, 0, 43, 24
2, 12228, Note_on_c, 0, 67, 43
2, 12285, Note_off_c, 0, 43, 64
2, 12367, Control_c, 0, 64, 127
2, 12376, Note_on_c, 0, 55, 47
2, 12448, Note_off_c, 0, 55, 64
2, 12496, Note_off_c, 0, 67, 64
2, 12520, Control_c, 0, 64, 0
2, 12535, Note_on_c, 0, 66, 48
2, 12564, Note_on_c, 0, 43, 31
2, 12626, Note_off_c, 0, 43, 64
2, 12645, Control_c, 0, 64, 127
2, 12732, Note_on_c, 0, 55, 38
2, 12799, Note_off_c, 0, 55, 64
2, 12818, Note_off_c, 0, 75, 64
2, 12837, Note_on_c, 0, 74, 69
2, 12847, Note_off_c, 0, 66, 64
2, 12861, Note_on_c, 0, 43, 33
2, 12866, Note_on_c, 0, 65, 48
2, 12876, Control_c, 0, 64, 0
2, 12938, Note_off_c, 0, 43, 64
2, 12981, Control_c, 0, 64, 127
2, 13015, Note_on_c, 0, 55, 46
2, 13077, Note_off_c, 0, 55, 64
2, 13087, Note_off_c, 0, 65, 64
2, 13101, Note_off_c, 0, 74, 64
2, 13130, Note_on_c, 0, 64, 60
2, 13144, Note_on_c, 0, 43, 39
2, 13207, Note_off_c, 0, 43, 64
2, 13221, Note_off_c, 0, 64, 64
2, 13303, Note_on_c, 0, 55, 56
2, 13365, Note_off_c, 0, 55, 64
2, 13389, Note_on_c, 0, 72, 86
2, 13423, Note_on_c, 0, 63, 62
2, 13442, Note_on_c, 0, 43, 58
2, 13495, Note_off_c, 0, 43, 64
2, 13533, Note_off_c, 0, 63, 64
2, 13591, Note_on_c, 0, 55, 70
2, 13639, Note_off_c, 0, 55, 64
2, 13716, Note_on_c, 0, 62, 88
2, 13716, Note_on_c, 0, 43, 69
2, 13773, Note_off_c, 0, 43, 64
2, 13874, Note_on_c, 0, 55, 64
2, 13932, Note_off_c, 0, 55, 64
2, 14013, Note_on_c, 0, 43, 48
2, 14037, Note_on_c, 0, 71, 58
2, 14056, Control_c, 0, 64, 0
2, 14090, Note_off_c, 0, 72, 64
2, 14162, Note_off_c, 0, 43, 64
2, 14196, Note_on_c, 0, 55, 59
2, 14239, Control_c, 0, 64, 127
2, 14244, Note_off_c, 0, 62, 64
2, 14258, Note_off_c, 0, 55, 64
2, 14311, Note_off_c, 0, 71, 64
2, 14349, Note_on_c, 0, 43, 51
2, 14397, Note_off_c, 0, 43, 64
2, 14484, Note_on_c, 0, 55, 51
2, 14551, Note_off_c, 0, 55, 64
2, 14656, Note_on_c, 0, 43, 35
2, 14680, Note_on_c, 0, 75, 47
2, 14680, Note_on_c, 0, 79, 84
2, 14700, Control_c, 0, 64, 0
2, 14762, Note_off_c, 0, 43, 64
2, 14839, Note_on_c, 0, 55, 49
2, 14872, Control_c, 0, 64, 127
2, 14901, Note_off_c, 0, 55, 64
2, 14983, Note_on_c, 0, 78, 90
2, 15036, Note_off_c, 0, 79, 64
2, 15036, Note_on_c, 0, 43, 16
2, 15088, Note_off_c, 0, 43, 64
2, 15156, Note_on_c, 0, 55, 53
2, 15218, Note_off_c, 0, 55, 64
2, 15285, Note_on_c, 0, 77, 98
2, 15295, Note_on_c, 0, 43, 49
2, 15304, Note_on_c, 0, 74, 75
2, 15338, Note_off_c, 0, 78, 64
2, 15348, Note_off_c, 0, 75, 64
2, 15372, Note_off_c, 0, 43, 64
2, 15468, Note_on_c, 0, 55, 66
2, 15549, Note_off_c, 0, 55, 64
2, 15568, Note_on_c, 0, 76, 104
2, 15612, Note_on_c, 0, 43, 54
2, 15669, Note_off_c, 0, 77, 64
2, 15669, Note_off_c, 0, 43, 64
2, 15708, Note_off_c, 0, 74, 64
2, 15765, Note_on_c, 0, 55, 73
2, 15837, Note_off_c, 0, 55, 64
2, 15861, Note_on_c, 0, 72, 95
2, 15866, Note_on_c, 0, 75, 95
2, 15895, Note_on_c, 0, 43, 62
2, 15914, Note_off_c, 0, 76, 64
2, 15962, Note_off_c, 0, 43, 64
2, 16053, Note_on_c, 0, 55, 69
2, 16106, Note_off_c, 0, 55, 64
2, 16173, Note_on_c, 0, 74, 97
2, 16188, Note_on_c, 0, 43, 87
2, 16192, Control_c, 0, 64, 0
2, 16202, Note_off_c, 0, 75, 64
2, 16327, Note_off_c, 0, 43, 64
2, 16332, Note_on_c, 0, 55, 88
2, 16394, Note_off_c, 0, 55, 64
2, 16394, Control_c, 0, 64, 127
2, 16466, Note_off_c, 0, 72, 64
2, 16471, Note_on_c, 0, 55, 89
2, 16476, Note_on_c, 0, 71, 66
2, 16485, Control_c, 0, 64, 0
2, 16519, Note_off_c, 0, 55, 64
2, 16610, Note_on_c, 0, 55, 75
2, 16658, Note_off_c, 0, 55, 64
2, 16692, Note_off_c, 0, 74, 64
2, 16754, Note_on_c, 0, 41, 101
2, 16783, Note_off_c, 0, 71, 64
2, 16869, Note_off_c, 0, 41, 64
2, 16898, Note_on_c, 0, 53, 94
2, 16912, Control_c, 0, 64, 127
2, 16951, Note_off_c, 0, 53, 64
2, 16960, Control_c, 0, 64, 0
2, 17052, Note_on_c, 0, 80, 103
2, 17061, Note_on_c, 0, 74, 92
2, 17061, Note_on_c, 0, 53, 70
2, 17066, Note_on_c, 0, 71, 78
2, 17109, Note_off_c, 0, 53, 64
2, 17200, Note_on_c, 0, 53, 60
2, 17253, Note_off_c, 0, 53, 64
2, 17349, Note_on_c, 0, 39, 106
2, 17469, Note_off_c, 0, 39, 64
2, 17488, Note_on_c, 0, 51, 89
2, 17498, Control_c, 0, 64, 127
2, 17536, Note_off_c, 0, 51, 64
2, 17546, Control_c, 0, 64, 0
2, 17551, Note_off_c, 0, 71, 64
2, 17618, Note_off_c, 0, 80, 64
2, 17656, Note_off_c, 0, 74, 64
2, 17666, Note_on_c, 0, 79, 87
2, 17666, Note_on_c, 0, 75, 62
2, 17666, Note_on_c, 0, 72, 83
2, 17680, Note_on_c, 0, 51, 65
2, 17728, Note_off_c, 0, 51, 64
2, 17805, Note_on_c, 0, 51, 65
2, 17853, Note_off_c, 0, 51, 64
2, 17930, Note_off_c, 0, 75, 64
2, 17935, Note_off_c, 0, 72, 64
2, 17968, Note_on_c, 0, 35, 95
2, 18016, Note_off_c, 0, 79, 64
2, 18055, Note_off_c, 0, 35, 64
2, 18112, Note_on_c, 0, 47, 76
2, 18160, Note_off_c, 0, 47, 64
2, 18184, Note_on_c, 0, 67, 91
2, 18252, Note_on_c, 0, 47, 70
2, 18280, Note_on_c, 0, 74, 95
2, 18290, Note_off_c, 0, 67, 64
2, 18304, Note_off_c, 0, 47, 64
2, 18400, Note_off_c, 0, 74, 64
2, 18410, Note_on_c, 0, 47, 57
2, 18453, Note_on_c, 0, 77, 87
2, 18463, Note_off_c, 0, 47, 64
2, 18487, Note_off_c, 0, 77, 64
2, 18525, Note_on_c, 0, 75, 86
2, 18559, Note_on_c, 0, 36, 81
2, 18568, Note_off_c, 0, 75, 64
2, 18578, Note_on_c, 0, 77, 61
2, 18626, Note_on_c, 0, 75, 89
2, 18674, Note_off_c, 0, 36, 64
2, 18674, Note_off_c, 0, 77, 64
2, 18703, Note_on_c, 0, 74, 79
2, 18722, Note_on_c, 0, 48, 71
2, 18736, Note_off_c, 0, 75, 64
2, 18775, Note_off_c, 0, 48, 64
2, 18775, Note_on_c, 0, 75, 48
2, 18780, Note_off_c, 0, 74, 64
2, 18823, Note_off_c, 0, 75, 64
2, 18832, Note_on_c, 0, 77, 71
2, 18900, Note_on_c, 0, 79, 88
2, 18900, Note_on_c, 0, 48, 62
2, 18928, Note_off_c, 0, 77, 64
2, 18943, Note_off_c, 0, 48, 64
2, 19029, Note_on_c, 0, 48, 64
2, 19106, Note_off_c, 0, 48, 64
2, 19154, Note_off_c, 0, 79, 64
2, 19178, Note_on_c, 0, 41, 106
2, 19279, Control_c, 0, 64, 127
2, 19298, Note_off_c, 0, 41, 64
2, 19322, Note_on_c, 0, 53, 94
2, 19394, Note_off_c, 0, 53, 64
2, 19418, Control_c, 0, 64, 0
2, 19461, Note_on_c, 0, 80, 106
2, 19466, Note_on_c, 0, 71, 92
2, 19471, Note_on_c, 0, 53, 88
2, 19476, Note_on_c, 0, 74, 95
2, 19562, Note_off_c, 0, 53, 64
2, 19629, Note_on_c, 0, 53, 92
2, 19682, Note_off_c, 0, 53, 64
2, 19792, Note_on_c, 0, 39, 106
2, 19879, Note_off_c, 0, 39, 64
2, 19927, Control_c, 0, 64, 127
2, 19932, Note_on_c, 0, 51, 91
2, 19941, Note_off_c, 0, 74, 64
2, 19960, Note_off_c, 0, 71, 64
2, 19975, Note_off_c, 0, 51, 64
2, 19984, Control_c, 0, 64, 0
2, 20085, Note_on_c, 0, 51, 79
2, 20090, Note_on_c, 0, 72, 89
2, 20090, Note_on_c, 0, 75, 67
2, 20095, Note_on_c, 0, 79, 89
2, 20138, Note_off_c, 0, 80, 64
2, 20138, Note_off_c, 0, 51, 64
2, 20253, Note_on_c, 0, 51, 62
2, 20296, Control_c, 0, 64, 127
2, 20316, Note_off_c, 0, 72, 64
2, 20316, Note_off_c, 0, 51, 64
2, 20335, Note_off_c, 0, 75, 64
2, 20344, Note_off_c, 0, 79, 64
2, 20392, Note_on_c, 0, 38, 103
2, 20436, Control_c, 0, 64, 0
2, 20541, Note_off_c, 0, 38, 64
2, 20546, Note_on_c, 0, 50, 94
2, 20594, Note_off_c, 0, 50, 64
2, 20618, Note_on_c, 0, 77, 91
2, 20671, Note_on_c, 0, 50, 85
2, 20700, Note_on_c, 0, 83, 88
2, 20719, Note_off_c, 0, 50, 64
2, 20738, Note_off_c, 0, 77, 64
2, 20863, Note_on_c, 0, 50, 59
2, 20887, Note_off_c, 0, 83, 64
2, 20911, Note_off_c, 0, 50, 64
2, 20911, Note_on_c, 0, 89, 72
2, 21002, Note_off_c, 0, 89, 64
2, 21026, Note_on_c, 0, 48, 68
2, 21031, Note_on_c, 0, 87, 72
2, 21122, Note_off_c, 0, 87, 64
2, 21122, Control_c, 0, 64, 127
2, 21170, Note_on_c, 0, 79, 82
2, 21295, Note_off_c, 0, 79, 64
2, 21324, Note_on_c, 0, 84, 85
2, 21333, Note_off_c, 0, 48, 64
2, 21434, Note_off_c, 0, 84, 64
2, 21434, Control_c, 0, 64, 0
2, 21448, Note_on_c, 0, 75, 75
2, 21520, Note_off_c, 0, 75, 64
2, 21607, Note_on_c, 0, 53, 71
2, 21770, Note_on_c, 0, 77, 73
2, 21885, Note_off_c, 0, 53, 64
2, 21909, Note_on_c, 0, 80, 66
2, 21928, Note_off_c, 0, 77, 64
2, 22063, Note_off_c, 0, 80, 64
2, 22068, Note_on_c, 0, 74, 64
2, 22154, Note_off_c, 0, 74, 64
2, 22216, Note_on_c, 0, 55, 59
2, 22365, Note_on_c, 0, 75, 57
2, 22447, Note_off_c, 0, 55, 64
2, 22514, Note_off_c, 0, 75, 64
2, 22528, Note_on_c, 0, 79, 58
2, 22672, Note_off_c, 0, 79, 64
2, 22687, Note_on_c, 0, 72, 49
2, 22768, Note_off_c, 0, 72, 64
2, 22840, Note_on_c, 0, 43, 39
2, 22975, Note_on_c, 0, 74, 39
2, 23028, Note_off_c, 0, 43, 64
2, 23090, Note_off_c, 0, 74, 64
2, 23128, Note_on_c, 0, 77, 50
2, 23234, Note_off_c, 0, 77, 64
2, 23287, Note_on_c, 0, 71, 33
2, 23340, Note_off_c, 0, 71, 64
2, 23464, Note_on_c, 0, 72, 114
2, 23469, Note_on_c, 0, 60, 100
2, 23584, Control_c, 0, 64, 127
2, 23695, Note_off_c, 0, 60, 64
2, 23839, Note_off_c, 0, 72, 64
2, 24069, Note_on_c, 0, 75, 101
2, 24074, Control_c, 0, 64, 0
2, 24079, Note_on_c, 0, 63, 96
2, 24156, Note_off_c, 0, 75, 64
2, 24199, Note_off_c, 0, 63, 64
2, 24372, Note_on_c, 0, 79, 109
2, 24381, Note_on_c, 0, 67, 98
2, 24439, Note_off_c, 0, 67, 64
2, 24468, Note_off_c, 0, 79, 64
2, 24688, Note_on_c, 0, 84, 113
2, 24688, Note_on_c, 0, 72, 111
2, 24794, Note_off_c, 0, 72, 64
2, 24818, Note_off_c, 0, 84, 64
2, 25015, Note_on_c, 0, 87, 102
2, 25024, Note_on_c, 0, 75, 101
2, 25120, Note_off_c, 0, 75, 64
2, 25164, Note_off_c, 0, 87, 64
2, 25528, Note_on_c, 0, 75, 82
2, 25572, Note_off_c, 0, 75, 64
2, 25610, Note_on_c, 0, 77, 94
2, 25648, Note_off_c, 0, 77, 64
2, 25677, Note_on_c, 0, 75, 71
2, 25720, Note_off_c, 0, 75, 64
2, 25725, Note_on_c, 0, 77, 94
2, 25778, Note_off_c, 0, 77, 64
2, 25788, Note_on_c, 0, 75, 78
2, 25860, Note_off_c, 0, 75, 64
2, 25860, Note_on_c, 0, 74, 98
2, 25946, Note_on_c, 0, 75, 90
2, 25970, Note_off_c, 0, 74, 64
2, 26052, Note_off_c, 0, 75, 64
2, 26071, Note_on_c, 0, 46, 119
2, 26071, Note_on_c, 0, 34, 115
2, 26080, Note_on_c, 0, 80, 103
2, 26196, Note_on_c, 0, 82, 106
2, 26224, Control_c, 0, 64, 127
2, 26272, Note_off_c, 0, 80, 64
2, 26292, Note_on_c, 0, 84, 107
2, 26320, Note_off_c, 0, 82, 64
2, 26383, Note_on_c, 0, 82, 99
2, 26407, Note_off_c, 0, 34, 64
2, 26460, Note_off_c, 0, 46, 64
2, 26479, Note_on_c, 0, 80, 92
2, 26484, Note_off_c, 0, 84, 64
2, 26546, Note_off_c, 0, 82, 64
2, 26584, Note_on_c, 0, 79, 94
2, 26618, Note_off_c, 0, 80, 64
2, 26656, Control_c, 0, 64, 0
2, 26671, Note_off_c, 0, 79, 64
2, 26676, Note_on_c, 0, 50, 106
2, 26685, Note_on_c, 0, 77, 97
2, 26690, Note_on_c, 0, 38, 83
2, 26719, Note_off_c, 0, 38, 64
2, 26767, Note_off_c, 0, 50, 64
2, 26786, Note_on_c, 0, 79, 91
2, 26805, Note_off_c, 0, 77, 64
2, 26848, Note_off_c, 0, 79, 64
2, 26863, Note_on_c, 0, 80, 86
2, 26968, Note_on_c, 0, 79, 93
2, 26973, Note_on_c, 0, 53, 104
2, 26978, Note_on_c, 0, 41, 100
2, 26988, Note_off_c, 0, 80, 64
2, 27012, Note_off_c, 0, 41, 64
2, 27055, Note_off_c, 0, 53, 64
2, 27069, Note_on_c, 0, 77, 89
2, 27074, Note_off_c, 0, 79, 64
2, 27170, Note_on_c, 0, 75, 84
2, 27189, Note_off_c, 0, 77, 64
2, 27280, Note_on_c, 0, 74, 101
2, 27280, Note_on_c, 0, 58, 113
2, 27290, Note_on_c, 0, 46, 108
2, 27300, Note_off_c, 0, 75, 64
2, 27333, Note_off_c, 0, 46, 64
2, 27367, Note_on_c, 0, 75, 86
2, 27381, Note_off_c, 0, 58, 64
2, 27391, Note_off_c, 0, 74, 64
2, 27477, Note_on_c, 0, 77, 96
2, 27501, Note_off_c, 0, 75, 64
2, 27578, Note_on_c, 0, 75, 78
2, 27583, Note_on_c, 0, 62, 95
2, 27592, Note_on_c, 0, 50, 92
2, 27616, Note_off_c, 0, 77, 64
2, 27669, Note_off_c, 0, 50, 64
2, 27674, Note_off_c, 0, 62, 64
2, 27684, Note_on_c, 0, 74, 89
2, 27717, Note_off_c, 0, 75, 64
2, 27780, Note_off_c, 0, 74, 64
2, 27780, Note_on_c, 0, 72, 84
2, 27880, Note_on_c, 0, 70, 98
2, 27890, Note_off_c, 0, 72, 64
2, 27967, Note_on_c, 0, 72, 88
2, 27996, Note_off_c, 0, 70, 64
2, 28068, Note_on_c, 0, 70, 89
2, 28092, Note_off_c, 0, 72, 64
2, 28197, Note_off_c, 0, 70, 64
2, 28197, Note_on_c, 0, 68, 63
2, 28288, Note_on_c, 0, 70, 61
2, 28298, Note_off_c, 0, 68, 64
2, 28360, Control_c, 0, 64, 127
2, 28399, Note_on_c, 0, 68, 56
2, 28423, Note_off_c, 0, 70, 64
2, 28490, Note_off_c, 0, 68, 64
2, 28581, Note_on_c, 0, 51, 33
2, 28586, Note_on_c, 0, 67, 55
2, 28653, Control_c, 0, 64, 0
2, 28788, Note_on_c, 0, 58, 62
2, 28893, Note_off_c, 0, 58, 64
2, 28946, Control_c, 0, 64, 127
2, 28946, Note_on_c, 0, 55, 47
2, 28980, Note_off_c, 0, 67, 64
2, 29004, Note_on_c, 0, 68, 69
2, 29052, Note_on_c, 0, 67, 73
2, 29061, Note_off_c, 0, 68, 64
2, 29080, Note_on_c, 0, 58, 55
2, 29104, Note_off_c, 0, 55, 64
2, 29124, Note_off_c, 0, 67, 64
2, 29138, Note_on_c, 0, 65, 63
2, 29186, Note_off_c, 0, 65, 64
2, 29191, Control_c, 0, 64, 0
2, 29210, Note_off_c, 0, 58, 64
2, 29220, Note_on_c, 0, 67, 71
2, 29320, Note_off_c, 0, 51, 64
2, 29320, Note_on_c, 0, 68, 60
2, 29325, Note_off_c, 0, 67, 64
2, 29330, Note_on_c, 0, 53, 33
2, 29488, Note_on_c, 0, 58, 49
2, 29594, Note_off_c, 0, 58, 64
2, 29608, Control_c, 0, 64, 127
2, 29671, Note_on_c, 0, 62, 52
2, 29676, Note_off_c, 0, 68, 64
2, 29695, Note_on_c, 0, 56, 35
2, 29743, Note_off_c, 0, 53, 64
2, 29781, Note_off_c, 0, 56, 64
2, 29858, Note_on_c, 0, 58, 55
2, 29935, Note_off_c, 0, 58, 64
2, 29983, Note_off_c, 0, 62, 64
2, 30012, Note_on_c, 0, 63, 61
2, 30021, Note_on_c, 0, 55, 40
2, 30074, Note_off_c, 0, 63, 64
2, 30170, Note_on_c, 0, 58, 61
2, 30184, Note_on_c, 0, 67, 76
2, 30237, Note_off_c, 0, 67, 64
2, 30276, Note_off_c, 0, 58, 64
2, 30357, Control_c, 0, 64, 0
2, 30367, Note_on_c, 0, 51, 46
2, 30367, Note_on_c, 0, 70, 73
2, 30381, Note_off_c, 0, 55, 64
2, 30535, Note_on_c, 0, 58, 61
2, 30588, Control_c, 0, 64, 127
2, 30626, Note_off_c, 0, 58, 64
2, 30708, Note_off_c, 0, 51, 64
2, 30712, Control_c, 0, 64, 0
2, 30736, Note_on_c, 0, 50, 50
2, 30789, Control_c, 0, 64, 127
2, 30880, Note_on_c, 0, 69, 49
2, 30890, Note_on_c, 0, 58, 63
2, 30900, Note_off_c, 0, 70, 64
2, 30967, Note_off_c, 0, 58, 64
2, 31039, Note_off_c, 0, 50, 64
2, 31072, Note_off_c, 0, 69, 64
2, 31082, Control_c, 0, 64, 0
2, 31082, Note_on_c, 0, 68, 57
2, 31101, Note_on_c, 0, 46, 60
2, 31231, Note_on_c, 0, 66, 67
2, 31236, Note_off_c, 0, 68, 64
2, 31250, Control_c, 0, 64, 127
2, 31250, Note_on_c, 0, 58, 61
2, 31332, Note_off_c, 0, 58, 64
2, 31413, Note_off_c, 0, 46, 64
2, 31418, Note_on_c, 0, 67, 81
2, 31432, Control_c, 0, 64, 0
2, 31447, Note_off_c, 0, 66, 64
2, 31452, Note_on_c, 0, 51, 39
2, 31624, Note_on_c, 0, 58, 55
2, 31696, Note_off_c, 0, 58, 64
2, 31788, Control_c, 0, 64, 127
2, 31845, Note_on_c, 0, 55, 29
2, 31855, Note_off_c, 0, 67, 64
2, 31864, Note_on_c, 0, 68, 76
2, 31936, Note_off_c, 0, 68, 64
2, 31936, Note_on_c, 0, 67, 73
2, 31956, Note_on_c, 0, 58, 43
2, 31965, Note_off_c, 0, 55, 64
2, 31994, Note_off_c, 0, 67, 64
2, 32018, Note_on_c, 0, 65, 67
2, 32100, Note_on_c, 0, 67, 57
2, 32119, Note_off_c, 0, 65, 64
2, 32128, Note_off_c, 0, 58, 64
2, 32176, Note_off_c, 0, 51, 64
2, 32224, Note_on_c, 0, 53, 28
2, 32229, Note_on_c, 0, 68, 62
2, 32239, Note_off_c, 0, 67, 64
2, 32373, Control_c, 0, 64, 0
2, 32412, Note_on_c, 0, 58, 49
2, 32498, Note_off_c, 0, 58, 64
2, 32584, Control_c, 0, 64, 127
2, 32594, Note_on_c, 0, 62, 65
2, 32613, Note_on_c, 0, 56, 42
2, 32623, Note_off_c, 0, 68, 64
2, 32690, Note_off_c, 0, 56, 64
2, 32724, Note_off_c, 0, 53, 64
2, 32743, Note_off_c, 0, 62, 64
2, 32776, Note_on_c, 0, 58, 42
2, 32853, Note_off_c, 0, 58, 64
2, 32949, Note_on_c, 0, 63, 37
2, 32954, Control_c, 0, 64, 0
2, 32992, Note_on_c, 0, 55, 29
2, 33127, Note_on_c, 0, 58, 42
2, 33132, Note_on_c, 0, 75, 55
2, 33146, Note_off_c, 0, 63, 64
2, 33156, Control_c, 0, 64, 127
2, 33204, Note_off_c, 0, 58, 64
2, 33304, Note_off_c, 0, 75, 64
2, 33314, Note_on_c, 0, 74, 69
2, 33333, Note_on_c, 0, 51, 30
2, 33415, Note_off_c, 0, 51, 64
2, 33420, Note_off_c, 0, 55, 64
2, 33468, Note_on_c, 0, 58, 46
2, 33468, Note_on_c, 0, 72, 84
2, 33501, Note_off_c, 0, 74, 64
2, 33535, Note_off_c, 0, 58, 64
2, 33612, Note_on_c, 0, 70, 91
2, 33650, Note_on_c, 0, 50, 44
2, 33660, Note_off_c, 0, 72, 64
2, 33660, Control_c, 0, 64, 0
2, 33775, Note_on_c, 0, 58, 59
2, 33784, Control_c, 0, 64, 127
2, 33794, Note_on_c, 0, 69, 85
2, 33813, Note_off_c, 0, 70, 64
2, 33861, Note_off_c, 0, 58, 64
2, 33890, Note_off_c, 0, 50, 64
2, 33948, Note_on_c, 0, 46, 70
2, 33948, Note_on_c, 0, 68, 78
2, 33996, Note_off_c, 0, 69, 64
2, 34000, Control_c, 0, 64, 0
2, 34106, Note_on_c, 0, 66, 80
2, 34116, Note_on_c, 0, 58, 70
2, 34135, Note_off_c, 0, 68, 64
2, 34154, Control_c, 0, 64, 127
2, 34221, Note_off_c, 0, 58, 64
2, 34274, Note_off_c, 0, 46, 64
2, 34279, Control_c, 0, 64, 0
2, 34317, Note_on_c, 0, 67, 85
2, 34322, Note_on_c, 0, 51, 50
2, 34327, Note_off_c, 0, 66, 64
2, 34509, Note_on_c, 0, 58, 55
2, 34581, Note_off_c, 0, 58, 64
2, 34687, Note_on_c, 0, 70, 74
2, 34720, Note_off_c, 0, 67, 64
2, 34740, Note_on_c, 0, 55, 25
2, 34869, Note_on_c, 0, 58, 54
2, 34879, Note_off_c, 0, 55, 64
2, 34922, Control_c, 0, 64, 127
2, 34951, Note_off_c, 0, 70, 64
2, 34956, Note_off_c, 0, 58, 64
2, 34994, Note_off_c, 0, 51, 64
2, 35061, Note_on_c, 0, 50, 40
2, 35167, Control_c, 0, 64, 0
2, 35191, Note_on_c, 0, 70, 92
2, 35224, Note_on_c, 0, 58, 68
2, 35301, Note_off_c, 0, 70, 64
2, 35306, Note_off_c, 0, 58, 64
2, 35364, Note_on_c, 0, 70, 106
2, 35397, Note_on_c, 0, 53, 46
2, 35464, Note_off_c, 0, 70, 64
2, 35474, Note_off_c, 0, 53, 64
2, 35517, Note_on_c, 0, 70, 108
2, 35536, Control_c, 0, 64, 127
2, 35546, Note_on_c, 0, 58, 52
2, 35575, Note_off_c, 0, 70, 64
2, 35628, Control_c, 0, 64, 0
2, 35637, Note_off_c, 0, 58, 64
2, 35647, Note_off_c, 0, 50, 64
2, 35709, Note_on_c, 0, 77, 94
2, 35757, Note_on_c, 0, 48, 43
2, 35911, Note_on_c, 0, 58, 53
2, 35930, Note_on_c, 0, 75, 69
2, 35949, Note_off_c, 0, 77, 64
2, 36050, Note_off_c, 0, 58, 64
2, 36060, Control_c, 0, 64, 127
2, 36079, Note_off_c, 0, 75, 64
2, 36136, Note_on_c, 0, 75, 84
2, 36146, Note_on_c, 0, 55, 26
2, 36223, Note_off_c, 0, 48, 64
2, 36266, Note_off_c, 0, 75, 64
2, 36319, Note_on_c, 0, 58, 54
2, 36386, Note_off_c, 0, 55, 64
2, 36410, Note_off_c, 0, 58, 64
2, 36516, Note_on_c, 0, 48, 49
2, 36664, Note_on_c, 0, 75, 83
2, 36679, Note_on_c, 0, 58, 61
2, 36717, Note_off_c, 0, 75, 64
2, 36765, Note_off_c, 0, 58, 64
2, 36804, Note_off_c, 0, 48, 64
2, 36828, Note_on_c, 0, 75, 84
2, 36866, Note_on_c, 0, 55, 50
2, 36885, Note_off_c, 0, 75, 64
2, 36919, Note_off_c, 0, 55, 64
2, 36981, Note_on_c, 0, 75, 77
2, 36986, Note_on_c, 0, 58, 80
2, 37034, Note_off_c, 0, 75, 64
2, 37044, Note_off_c, 0, 58, 64
2, 37149, Control_c, 0, 64, 0
2, 37173, Note_on_c, 0, 57, 63
2, 37173, Note_on_c, 0, 48, 73
2, 37173, Note_on_c, 0, 75, 92
2, 37197, Note_on_c, 0, 53, 61
2, 37380, Note_on_c, 0, 77, 85
2, 37413, Note_off_c, 0, 75, 64
2, 37423, Note_off_c, 0, 77, 64
2, 37432, Note_on_c, 0, 79, 86
2, 37519, Note_on_c, 0, 77, 92
2, 37557, Note_off_c, 0, 79, 64
2, 37668, Note_off_c, 0, 77, 64
2, 37687, Note_on_c, 0, 75, 88
2, 37778, Note_off_c, 0, 75, 64
2, 37855, Note_on_c, 0, 74, 95
2, 37903, Note_off_c, 0, 74, 64
2, 38018, Note_on_c, 0, 72, 95
2, 38090, Note_off_c, 0, 72, 64
2, 38172, Note_on_c, 0, 70, 98
2, 38229, Note_off_c, 0, 70, 64
2, 38340, Note_on_c, 0, 69, 89
2, 38378, Note_off_c, 0, 48, 64
2, 38388, Note_off_c, 0, 69, 64
2, 38388, Note_off_c, 0, 53, 64
2, 38440, Note_off_c, 0, 57, 64
2, 38532, Note_on_c, 0, 72, 87
2, 38892, Note_on_c, 0, 70, 66
2, 38901, Note_on_c, 0, 62, 57
2, 38901, Note_on_c, 0, 58, 67
2, 38940, Note_off_c, 0, 72, 64
2, 39218, Note_off_c, 0, 70, 64
2, 39266, Note_off_c, 0, 62, 64
2, 39266, Note_on_c, 0, 63, 47
2, 39271, Note_off_c, 0, 58, 64
2, 39280, Note_on_c, 0, 59, 43
2, 39612, Note_on_c, 0, 75, 69
2, 39679, Note_off_c, 0, 75, 64
2, 39770, Note_on_c, 0, 75, 75
2, 39818, Note_off_c, 0, 63, 64
2, 39828, Note_off_c, 0, 59, 64
2, 39880, Note_off_c, 0, 75, 64
2, 39962, Note_on_c, 0, 82, 84
2, 40327, Note_on_c, 0, 62, 49
2, 40332, Note_on_c, 0, 58, 42
2, 40471, Note_off_c, 0, 82, 64
2, 40687, Note_off_c, 0, 62, 64
2, 40692, Note_on_c, 0, 63, 38
2, 40706, Note_on_c, 0, 59, 43
2, 40735, Note_off_c, 0, 58, 64
2, 41056, Note_on_c, 0, 75, 49
2, 41119, Note_off_c, 0, 75, 64
2, 41133, Note_off_c, 0, 63, 64
2, 41152, Note_off_c, 0, 59, 64
2, 41220, Note_on_c, 0, 75, 48
2, 41311, Note_off_c, 0, 75, 64
2, 41436, Note_on_c, 0, 82, 52
2, 41805, Note_on_c, 0, 62, 37
2, 41810, Note_on_c, 0, 58, 44
2, 41997, Note_off_c, 0, 82, 64
2, 42079, Control_c, 0, 64, 127
2, 42165, Note_off_c, 0, 62, 64
2, 42175, Note_off_c, 0, 58, 64
2, 42175, Note_on_c, 0, 63, 41
2, 42194, Note_on_c, 0, 59, 36
2, 42252, Control_c, 0, 64, 0
2, 42511, Control_c, 0, 64, 127
2, 42549, Note_off_c, 0, 63, 64
2, 42554, Note_on_c, 0, 75, 56
2, 42564, Note_off_c, 0, 59, 64
2, 42612, Note_off_c, 0, 75, 64
2, 42679, Control_c, 0, 64, 0
2, 42708, Note_on_c, 0, 75, 54
2, 42852, Note_off_c, 0, 75, 64
2, 42904, Note_on_c, 0, 58, 65
2, 42909, Note_on_c, 0, 82, 75
2, 42914, Note_on_c, 0, 62, 46
2, 43096, Control_c, 0, 64, 127
2, 43144, Note_off_c, 0, 82, 64
2, 43207, Note_off_c, 0, 58, 64
2, 43216, Note_off_c, 0, 62, 64
2, 43236, Note_on_c, 0, 63, 48
2, 43250, Note_on_c, 0, 75, 72
2, 43255, Note_on_c, 0, 59, 49
2, 43264, Control_c, 0, 64, 0
2, 43298, Note_off_c, 0, 75, 64
2, 43394, Note_on_c, 0, 75, 66
2, 43447, Control_c, 0, 64, 127
2, 43514, Note_off_c, 0, 75, 64
2, 43543, Note_off_c, 0, 59, 64
2, 43543, Control_c, 0, 64, 0
2, 43576, Note_on_c, 0, 58, 55
2, 43576, Note_on_c, 0, 82, 79
2, 43581, Note_off_c, 0, 63, 64
2, 43596, Note_on_c, 0, 62, 36
2, 43788, Note_off_c, 0, 82, 64
2, 43869, Note_off_c, 0, 58, 64
2, 43884, Note_off_c, 0, 62, 64
2, 43893, Note_on_c, 0, 75, 68
2, 43908, Note_on_c, 0, 63, 39
2, 43922, Note_on_c, 0, 59, 29
2, 43941, Note_off_c, 0, 75, 64
2, 44037, Note_on_c, 0, 75, 50
2, 44181, Note_off_c, 0, 75, 64
2, 44239, Note_off_c, 0, 59, 64
2, 44239, Note_on_c, 0, 82, 46
2, 44258, Note_on_c, 0, 58, 40
2, 44277, Note_off_c, 0, 63, 64
2, 44287, Note_on_c, 0, 62, 17
2, 44479, Note_off_c, 0, 82, 64
2, 44493, Control_c, 0, 64, 127
2, 44584, Control_c, 0, 64, 0
2, 44604, Note_on_c, 0, 82, 49
2, 44800, Control_c, 0, 64, 127
2, 44824, Note_off_c, 0, 62, 64
2, 44844, Note_off_c, 0, 82, 64
2, 44868, Note_off_c, 0, 58, 64
2, 44949, Note_on_c, 0, 82, 73
2, 45079, Control_c, 0, 64, 0
2, 45184, Control_c, 0, 64, 127
2, 45194, Note_off_c, 0, 82, 64
2, 45271, Note_on_c, 0, 82, 82
2, 45453, Note_off_c, 0, 82, 64
2, 45621, Note_on_c, 0, 82, 79
2, 45813, Note_on_c, 0, 81, 83
2, 45847, Note_off_c, 0, 82, 64
2, 45972, Note_on_c, 0, 80, 82
2, 46000, Note_off_c, 0, 81, 64
2, 46063, Control_c, 0, 64, 0
2, 46130, Note_on_c, 0, 77, 84
2, 46149, Note_off_c, 0, 80, 64
2, 46303, Note_off_c, 0, 77, 64
2, 46312, Note_on_c, 0, 82, 72
2, 46514, Note_off_c, 0, 82, 64
2, 46519, Note_on_c, 0, 81, 52
2, 46692, Note_on_c, 0, 80, 48
2, 46701, Note_off_c, 0, 81, 64
2, 46802, Control_c, 0, 64, 127
2, 46869, Note_off_c, 0, 80, 64
2, 46888, Note_on_c, 0, 77, 48
2, 47119, Note_on_c, 0, 75, 53
2, 47128, Note_off_c, 0, 77, 64
2, 47138, Control_c, 0, 64, 0
2, 47167, Note_on_c, 0, 67, 21
2, 47306, Control_c, 0, 64, 127
2, 47311, Note_off_c, 0, 67, 64
2, 47325, Note_on_c, 0, 70, 52
2, 47412, Note_off_c, 0, 70, 64
2, 47512, Note_on_c, 0, 67, 41
2, 47608, Note_off_c, 0, 67, 64
2, 47680, Note_off_c, 0, 75, 64
2, 47680, Note_on_c, 0, 70, 50
2, 47695, Note_on_c, 0, 77, 66
2, 47748, Note_off_c, 0, 77, 64
2, 47752, Note_on_c, 0, 75, 74
2, 47767, Note_off_c, 0, 70, 64
2, 47834, Note_on_c, 0, 74, 71
2, 47844, Note_off_c, 0, 75, 64
2, 47906, Note_on_c, 0, 65, 25
2, 48012, Note_off_c, 0, 74, 64
2, 48016, Note_off_c, 0, 65, 64
2, 48026, Note_on_c, 0, 70, 56
2, 48122, Note_off_c, 0, 70, 64
2, 48189, Note_on_c, 0, 75, 78
2, 48199, Control_c, 0, 64, 0
2, 48247, Note_on_c, 0, 67, 35
2, 48309, Note_off_c, 0, 67, 64
2, 48333, Control_c, 0, 64, 127
2, 48376, Note_off_c, 0, 75, 64
2, 48376, Note_on_c, 0, 70, 52
2, 48463, Note_off_c, 0, 70, 64
2, 48554, Note_on_c, 0, 76, 92
2, 48626, Note_on_c, 0, 67, 33
2, 48698, Note_off_c, 0, 67, 64
2, 48741, Note_on_c, 0, 70, 53
2, 48933, Note_off_c, 0, 70, 64
2, 48986, Note_on_c, 0, 67, 23
2, 49072, Note_off_c, 0, 67, 64
2, 49125, Note_on_c, 0, 70, 50
2, 49226, Note_off_c, 0, 70, 64
2, 49288, Note_on_c, 0, 68, 44
2, 49303, Control_c, 0, 64, 0
2, 49303, Note_on_c, 0, 77, 57
2, 49332, Note_off_c, 0, 76, 64
2, 49442, Note_off_c, 0, 68, 64
2, 49471, Note_on_c, 0, 70, 58
2, 49485, Control_c, 0, 64, 127
2, 49528, Note_off_c, 0, 77, 64
2, 49552, Note_off_c, 0, 70, 64
2, 49648, Note_on_c, 0, 68, 36
2, 49720, Note_off_c, 0, 68, 64
2, 49792, Note_on_c, 0, 70, 56
2, 49903, Note_off_c, 0, 70, 64
2, 49975, Note_on_c, 0, 56, 65
2, 49999, Note_on_c, 0, 65, 43
2, 50028, Control_c, 0, 64, 0
2, 50138, Note_off_c, 0, 65, 64
2, 50162, Control_c, 0, 64, 127
2, 50181, Note_on_c, 0, 70, 47
2, 50296, Note_off_c, 0, 70, 64
2, 50421, Note_on_c, 0, 65, 28
2, 50479, Note_off_c, 0, 56, 64
2, 50498, Note_off_c, 0, 65, 64
2, 50512, Note_on_c, 0, 55, 61
2, 50536, Note_on_c, 0, 70, 49
2, 50589, Note_on_c, 0, 56, 37
2, 50599, Note_off_c, 0, 55, 64
2, 50647, Note_off_c, 0, 70, 64
2, 50700, Note_on_c, 0, 58, 68
2, 50714, Note_off_c, 0, 56, 64
2, 50748, Control_c, 0, 64, 0
2, 50752, Note_on_c, 0, 65, 39
2, 50877, Note_on_c, 0, 56, 68
2, 50896, Note_on_c, 0, 70, 49
2, 50901, Control_c, 0, 64, 127
2, 50920, Note_off_c, 0, 65, 64
2, 50930, Note_off_c, 0, 58, 64
2, 50988, Note_off_c, 0, 70, 64
2, 51045, Note_on_c, 0, 55, 75
2, 51074, Note_off_c, 0, 56, 64
2, 51093, Note_on_c, 0, 67, 25
2, 51175, Note_off_c, 0, 67, 64
2, 51199, Note_on_c, 0, 70, 51
2, 51204, Note_off_c, 0, 55, 64
2, 51213, Note_on_c, 0, 53, 68
2, 51348, Note_off_c, 0, 70, 64
2, 51362, Control_c, 0, 64, 0
2, 51391, Note_on_c, 0, 51, 68
2, 51415, Note_on_c, 0, 68, 44
2, 51429, Note_off_c, 0, 53, 64
2, 51568, Note_on_c, 0, 70, 49
2, 51703, Note_off_c, 0, 70, 64
2, 51703, Control_c, 0, 64, 127
2, 51775, Note_off_c, 0, 68, 64
2, 51837, Note_on_c, 0, 65, 18
2, 51943, Note_off_c, 0, 65, 64
2, 51952, Note_on_c, 0, 70, 47
2, 52044, Note_off_c, 0, 70, 64
2, 52149, Note_on_c, 0, 50, 47
2, 52168, Note_on_c, 0, 68, 39
2, 52178, Control_c, 0, 64, 0
2, 52202, Note_off_c, 0, 51, 64
2, 52260, Note_off_c, 0, 68, 64
2, 52317, Note_on_c, 0, 70, 50
2, 52336, Note_off_c, 0, 50, 64
2, 52375, Control_c, 0, 64, 127
2, 52418, Note_off_c, 0, 70, 64
2, 52538, Note_on_c, 0, 65, 33
2, 52615, Note_off_c, 0, 65, 64
2, 52696, Note_on_c, 0, 70, 54
2, 52807, Note_off_c, 0, 70, 64
2, 52879, Note_on_c, 0, 77, 89
2, 52941, Note_on_c, 0, 62, 20
2, 53023, Note_off_c, 0, 62, 64
2, 53037, Note_on_c, 0, 70, 50
2, 53133, Note_off_c, 0, 70, 64
2, 53224, Note_on_c, 0, 62, 45
2, 53335, Note_off_c, 0, 62, 64
2, 53378, Note_on_c, 0, 70, 64
2, 53426, Note_off_c, 0, 77, 64
2, 53426, Note_on_c, 0, 79, 83
2, 53498, Note_on_c, 0, 77, 88
2, 53517, Note_off_c, 0, 70, 64
2, 53532, Note_off_c, 0, 79, 64
2, 53575, Control_c, 0, 64, 0
2, 53589, Note_on_c, 0, 60, 51
2, 53594, Note_on_c, 0, 75, 84
2, 53618, Note_off_c, 0, 77, 64
2, 53695, Note_off_c, 0, 60, 64
2, 53757, Control_c, 0, 64, 127
2, 53757, Note_on_c, 0, 70, 69
2, 53911, Note_off_c, 0, 70, 64
2, 53930, Control_c, 0, 64, 0
2, 53935, Note_off_c, 0, 75, 64
2, 53935, Note_on_c, 0, 77, 95
2, 53978, Note_on_c, 0, 62, 44
2, 54036, Note_off_c, 0, 62, 64
2, 54069, Control_c, 0, 64, 127
2, 54117, Note_on_c, 0, 70, 57
2, 54136, Note_off_c, 0, 77, 64
2, 54213, Note_off_c, 0, 70, 64
2, 54285, Note_on_c, 0, 78, 79
2, 54324, Note_on_c, 0, 62, 30
2, 54410, Note_off_c, 0, 62, 64
2, 54482, Note_on_c, 0, 70, 52
2, 54525, Control_c, 0, 64, 0
2, 54650, Control_c, 0, 64, 127
2, 54664, Note_off_c, 0, 70, 64
2, 54693, Note_on_c, 0, 62, 42
2, 54765, Note_off_c, 0, 62, 64
2, 54856, Note_on_c, 0, 70, 45
2, 54996, Note_off_c, 0, 70, 64
2, 55034, Note_on_c, 0, 79, 62
2, 55044, Note_on_c, 0, 63, 44
2, 55048, Control_c, 0, 64, 0
2, 55077, Note_off_c, 0, 78, 64
2, 55221, Control_c, 0, 64, 127
2, 55231, Note_on_c, 0, 70, 48
2, 55236, Note_off_c, 0, 63, 64
2, 55269, Note_off_c, 0, 79, 64
2, 55322, Note_off_c, 0, 70, 64
2, 55423, Note_on_c, 0, 63, 34
2, 55490, Note_off_c, 0, 63, 64
2, 55581, Note_on_c, 0, 70, 32
2, 55682, Note_off_c, 0, 70, 64
2, 55773, Note_on_c, 0, 58, 60
2, 55826, Note_on_c, 0, 67, 22
2, 55912, Control_c, 0, 64, 0
2, 55951, Note_on_c, 0, 70, 47
2, 56042, Note_off_c, 0, 70, 64
2, 56080, Control_c, 0, 64, 127
2, 56138, Note_on_c, 0, 63, 37
2, 56157, Note_off_c, 0, 67, 64
2, 56268, Note_off_c, 0, 58, 64
2, 56301, Note_on_c, 0, 70, 48
2, 56311, Note_on_c, 0, 57, 62
2, 56378, Note_off_c, 0, 57, 64
2, 56392, Note_on_c, 0, 58, 64
2, 56397, Note_off_c, 0, 63, 64
2, 56397, Note_off_c, 0, 70, 64
2, 56450, Control_c, 0, 64, 0
2, 56460, Note_off_c, 0, 58, 64
2, 56474, Note_on_c, 0, 60, 65
2, 56527, Note_on_c, 0, 67, 34
2, 56618, Control_c, 0, 64, 127
2, 56652, Note_on_c, 0, 70, 46
2, 56652, Note_on_c, 0, 58, 80
2, 56680, Note_off_c, 0, 60, 64
2, 56680, Control_c, 0, 64, 0
2, 56733, Note_off_c, 0, 70, 64
2, 56772, Control_c, 0, 64, 127
2, 56815, Note_on_c, 0, 56, 70
2, 56820, Note_off_c, 0, 67, 64
2, 56839, Note_on_c, 0, 63, 29
2, 56853, Note_off_c, 0, 58, 64
2, 56973, Note_off_c, 0, 63, 64
2, 56983, Note_off_c, 0, 56, 64
2, 56983, Note_on_c, 0, 55, 77
2, 56992, Note_on_c, 0, 70, 47
2, 57026, Note_off_c, 0, 55, 64
2, 57098, Note_off_c, 0, 70, 64
2, 57175, Note_on_c, 0, 53, 69
2, 57208, Note_on_c, 0, 68, 43
2, 57232, Control_c, 0, 64, 0
2, 57367, Note_on_c, 0, 70, 52
2, 57477, Note_off_c, 0, 70, 64
2, 57477, Control_c, 0, 64, 127
2, 57602, Note_on_c, 0, 65, 26
2, 57621, Note_off_c, 0, 68, 64
2, 57698, Note_off_c, 0, 65, 64
2, 57751, Note_on_c, 0, 70, 23
2, 57842, Note_off_c, 0, 70, 64
2, 57924, Note_on_c, 0, 51, 48
2, 57952, Control_c, 0, 64, 0
2, 57957, Note_on_c, 0, 67, 28
2, 57991, Note_off_c, 0, 53, 64
2, 58106, Note_on_c, 0, 70, 48
2, 58154, Control_c, 0, 64, 127
2, 58173, Note_off_c, 0, 51, 64
2, 58183, Note_off_c, 0, 70, 64
2, 58308, Note_on_c, 0, 63, 32
2, 58336, Note_off_c, 0, 67, 64
2, 58394, Note_off_c, 0, 63, 64
2, 58456, Note_on_c, 0, 70, 43
2, 58528, Note_off_c, 0, 70, 64
2, 58639, Note_on_c, 0, 82, 111
2, 58644, Note_on_c, 0, 70, 91
2, 58672, Note_on_c, 0, 63, 61
2, 58778, Note_off_c, 0, 63, 64
2, 58816, Note_on_c, 0, 67, 63
2, 58946, Note_off_c, 0, 67, 64
2, 58989, Note_on_c, 0, 63, 72
2, 59167, Note_on_c, 0, 67, 70
2, 59220, Note_off_c, 0, 63, 64
2, 59277, Note_off_c, 0, 70, 64
2, 59301, Note_off_c, 0, 67, 64
2, 59340, Note_on_c, 0, 71, 90
2, 59340, Note_on_c, 0, 83, 100
2, 59344, Note_on_c, 0, 61, 65
2, 59359, Note_off_c, 0, 82, 64
2, 59368, Control_c, 0, 64, 0
2, 59512, Note_on_c, 0, 65, 77
2, 59536, Note_off_c, 0, 61, 64
2, 59584, Control_c, 0, 64, 127
2, 59637, Note_off_c, 0, 65, 64
2, 59676, Note_off_c, 0, 71, 64
2, 59695, Note_on_c, 0, 61, 78
2, 59844, Note_on_c, 0, 65, 80
2, 59863, Note_off_c, 0, 61, 64
2, 59959, Note_off_c, 0, 65, 64
2, 59959, Note_off_c, 0, 83, 64
2, 60012, Note_on_c, 0, 84, 114
2, 60016, Note_on_c, 0, 72, 103
2, 60026, Note_on_c, 0, 60, 92
2, 60060, Control_c, 0, 64, 0
2, 60189, Note_on_c, 0, 64, 82
2, 60232, Note_off_c, 0, 72, 64
2, 60252, Note_off_c, 0, 60, 64
2, 60256, Control_c, 0, 64, 127
2, 60271, Note_off_c, 0, 64, 64
2, 60376, Note_on_c, 0, 73, 83
2, 60376, Note_on_c, 0, 85, 101
2, 60386, Note_on_c, 0, 58, 95
2, 60410, Note_on_c, 0, 64, 72
2, 60444, Note_off_c, 0, 84, 64
2, 60472, Control_c, 0, 64, 0
2, 60645, Note_off_c, 0, 64, 64
2, 60674, Note_off_c, 0, 73, 64
2, 60703, Control_c, 0, 64, 127
2, 60708, Note_off_c, 0, 58, 64
2, 60712, Note_off_c, 0, 85, 64
2, 60890, Control_c, 0, 64, 0
2, 61557, Note_on_c, 0, 56, 35
2, 61562, Note_on_c, 0, 65, 32
2, 61768, Note_on_c, 0, 84, 54
2, 61932, Control_c, 0, 64, 127
2, 61932, Note_on_c, 0, 82, 79
2, 61956, Note_off_c, 0, 84, 64
2, 61984, Note_off_c, 0, 65, 64
2, 61999, Note_off_c, 0, 56, 64
2, 62085, Note_on_c, 0, 80, 79
2, 62138, Note_off_c, 0, 82, 64
2, 62210, Control_c, 0, 64, 0
2, 62263, Note_on_c, 0, 79, 81
2, 62296, Note_off_c, 0, 80, 64
2, 62440, Note_on_c, 0, 77, 82
2, 62450, Note_off_c, 0, 79, 64
2, 62618, Note_on_c, 0, 79, 77
2, 62661, Note_off_c, 0, 77, 64
2, 62791, Note_on_c, 0, 80, 70
2, 62800, Note_off_c, 0, 79, 64
2, 63021, Note_on_c, 0, 75, 50
2, 63026, Note_off_c, 0, 80, 64
2, 63285, Control_c, 0, 64, 127
2, 63357, Note_on_c, 0, 67, 42
2, 63391, Note_on_c, 0, 58, 33
2, 63717, Note_off_c, 0, 67, 64
2, 63741, Note_on_c, 0, 68, 52
2, 63871, Control_c, 0, 64, 0
2, 63976, Control_c, 0, 64, 127
2, 64000, Note_off_c, 0, 58, 64
2, 64188, Note_on_c, 0, 79, 43
2, 64192, Control_c, 0, 64, 0
2, 64207, Note_on_c, 0, 74, 32
2, 64212, Note_on_c, 0, 59, 27
2, 64226, Note_off_c, 0, 75, 64
2, 64408, Control_c, 0, 64, 127
2, 64418, Note_on_c, 0, 77, 53
2, 64428, Note_off_c, 0, 79, 64
2, 64437, Note_off_c, 0, 74, 64
2, 64476, Note_off_c, 0, 68, 64
2, 64600, Note_off_c, 0, 59, 64
2, 64624, Note_off_c, 0, 77, 64
2, 64668, Note_on_c, 0, 67, 30
2, 64682, Note_on_c, 0, 75, 42
2, 64687, Note_on_c, 0, 60, 32
2, 64730, Control_c, 0, 64, 0
2, 65071, Note_off_c, 0, 75, 64
2, 65100, Control_c, 0, 64, 127
2, 65133, Note_off_c, 0, 67, 64
2, 65191, Note_off_c, 0, 60, 64
2, 65234, Note_on_c, 0, 75, 38
2, 65330, Control_c, 0, 64, 0
2, 65436, Note_off_c, 0, 75, 64
2, 65440, Note_on_c, 0, 74, 55
2, 65608, Note_on_c, 0, 73, 52
2, 65623, Note_off_c, 0, 74, 64
2, 65637, Control_c, 0, 64, 127
2, 65796, Note_off_c, 0, 73, 64
2, 65796, Note_on_c, 0, 72, 82
2, 65973, Note_on_c, 0, 71, 74
2, 65992, Note_off_c, 0, 72, 64
2, 66165, Note_on_c, 0, 51, 52
2, 66175, Note_on_c, 0, 70, 89
2, 66199, Note_off_c, 0, 71, 64
2, 66280, Control_c, 0, 64, 0
2, 66376, Note_on_c, 0, 55, 60
2, 66405, Note_off_c, 0, 51, 64
2, 66420, Control_c, 0, 64, 127
2, 66516, Note_off_c, 0, 55, 64
2, 66535, Note_on_c, 0, 51, 65
2, 66712, Note_on_c, 0, 55, 65
2, 66722, Note_off_c, 0, 51, 64
2, 66842, Note_off_c, 0, 55, 64
2, 66880, Note_on_c, 0, 49, 68
2, 66885, Note_on_c, 0, 59, 71
2, 66885, Note_on_c, 0, 71, 83
2, 66900, Note_off_c, 0, 70, 64
2, 66991, Control_c, 0, 64, 0
2, 67082, Note_on_c, 0, 53, 69
2, 67111, Note_off_c, 0, 49, 64
2, 67173, Control_c, 0, 64, 127
2, 67240, Note_off_c, 0, 53, 64
2, 67255, Note_on_c, 0, 49, 86
2, 67413, Note_on_c, 0, 53, 83
2, 67432, Note_off_c, 0, 59, 64
2, 67485, Note_off_c, 0, 49, 64
2, 67533, Note_off_c, 0, 53, 64
2, 67572, Control_c, 0, 64, 0
2, 67576, Note_on_c, 0, 72, 110
2, 67586, Note_on_c, 0, 60, 95
2, 67586, Note_on_c, 0, 48, 94
2, 67620, Note_off_c, 0, 71, 64
2, 67744, Note_on_c, 0, 52, 88
2, 67788, Control_c, 0, 64, 127
2, 67807, Note_off_c, 0, 48, 64
2, 67807, Note_off_c, 0, 60, 64
2, 67845, Note_off_c, 0, 52, 64
2, 67946, Note_on_c, 0, 73, 97
2, 67951, Note_on_c, 0, 61, 84
2, 67960, Note_on_c, 0, 52, 74
2, 67960, Note_on_c, 0, 46, 95
2, 68018, Note_off_c, 0, 72, 64
2, 68109, Control_c, 0, 64, 0
2, 68306, Note_off_c, 0, 52, 64
2, 68311, Control_c, 0, 64, 127
2, 68335, Note_off_c, 0, 61, 64
2, 68354, Note_off_c, 0, 46, 64
2, 68402, Note_off_c, 0, 73, 64
2, 68512, Control_c, 0, 64, 0
2, 68997, Note_on_c, 0, 72, 111
2, 69002, Note_on_c, 0, 53, 101
2, 69002, Note_on_c, 0, 48, 103
2, 69012, Note_on_c, 0, 44, 78
2, 69127, Control_c, 0, 64, 127
2, 69127, Note_on_c, 0, 77, 99
2, 69151, Note_off_c, 0, 72, 64
2, 69218, Note_off_c, 0, 77, 64
2, 69237, Note_on_c, 0, 67, 98
2, 69348, Note_on_c, 0, 68, 95
2, 69372, Note_off_c, 0, 67, 64
2, 69372, Control_c, 0, 64, 0
2, 69448, Note_on_c, 0, 72, 95
2, 69487, Note_off_c, 0, 68, 64
2, 69544, Note_off_c, 0, 72, 64
2, 69554, Note_on_c, 0, 64, 94
2, 69664, Note_off_c, 0, 64, 64
2, 69674, Note_on_c, 0, 65, 95
2, 69784, Note_off_c, 0, 65, 64
2, 69784, Note_on_c, 0, 68, 92
2, 69847, Control_c, 0, 64, 127
2, 69890, Note_off_c, 0, 68, 64
2, 69895, Note_on_c, 0, 59, 87
2, 69924, Control_c, 0, 64, 0
2, 69986, Note_off_c, 0, 59, 64
2, 70000, Note_off_c, 0, 53, 64
2, 70000, Note_on_c, 0, 60, 92
2, 70063, Note_off_c, 0, 48, 64
2, 70063, Control_c, 0, 64, 127
2, 70092, Note_off_c, 0, 44, 64
2, 70106, Note_on_c, 0, 65, 91
2, 70125, Note_off_c, 0, 60, 64
2, 70202, Note_off_c, 0, 65, 64
2, 70216, Note_on_c, 0, 55, 94
2, 70336, Note_off_c, 0, 55, 64
2, 70351, Note_on_c, 0, 56, 97
2, 70365, Note_on_c, 0, 41, 109
2, 70380, Note_on_c, 0, 36, 109
2, 70385, Note_on_c, 0, 32, 109
2, 70428, Control_c, 0, 64, 0
2, 70476, Note_on_c, 0, 60, 92
2, 70509, Note_off_c, 0, 56, 64
2, 70581, Note_on_c, 0, 52, 92
2, 70600, Note_off_c, 0, 60, 64
2, 70692, Note_off_c, 0, 52, 64
2, 70696, Note_on_c, 0, 53, 92
2, 70802, Note_on_c, 0, 56, 91
2, 70826, Note_off_c, 0, 53, 64
2, 70860, Control_c, 0, 64, 127
2, 70903, Note_off_c, 0, 56, 64
2, 70908, Note_on_c, 0, 47, 86
2, 71013, Control_c, 0, 64, 0
2, 71018, Note_on_c, 0, 48, 106
2, 71032, Note_off_c, 0, 47, 64
2, 71138, Note_on_c, 0, 53, 87
2, 71143, Note_off_c, 0, 48, 64
2, 71176, Note_off_c, 0, 41, 64
2, 71191, Note_off_c, 0, 36, 64
2, 71224, Note_off_c, 0, 53, 64
2, 71244, Note_on_c, 0, 43, 95
2, 71349, Note_on_c, 0, 44, 92
2, 71373, Note_off_c, 0, 43, 64
2, 71474, Note_on_c, 0, 48, 91
2, 71512, Note_off_c, 0, 44, 64
2, 71551, Control_c, 0, 64, 127
2, 71580, Note_on_c, 0, 40, 99
2, 71628, Note_off_c, 0, 48, 64
2, 71628, Control_c, 0, 64, 0
2, 71719, Note_on_c, 0, 41, 97
2, 71728, Note_off_c, 0, 40, 64
2, 71758, Note_off_c, 0, 32, 64
2, 72228, Control_c, 0, 64, 127
2, 72247, Note_on_c, 0, 36, 88
2, 72304, Note_off_c, 0, 41, 64
2, 72439, Note_on_c, 0, 44, 81
2, 72453, Note_off_c, 0, 36, 64
2, 72631, Note_off_c, 0, 44, 64
2, 72636, Note_on_c, 0, 41, 96
2, 72804, Note_on_c, 0, 48, 98
2, 72813, Control_c, 0, 64, 0
2, 72828, Note_off_c, 0, 41, 64
2, 72957, Note_on_c, 0, 44, 89
2, 73010, Note_off_c, 0, 48, 64
2, 73044, Control_c, 0, 64, 127
2, 73101, Control_c, 0, 64, 0
2, 73135, Note_on_c, 0, 53, 91
2, 73144, Note_off_c, 0, 44, 64
2, 73178, Control_c, 0, 64, 127
2, 73269, Note_off_c, 0, 53, 64
2, 73303, Note_on_c, 0, 48, 97
2, 73452, Note_off_c, 0, 48, 64
2, 73456, Note_on_c, 0, 56, 89
2, 73610, Note_off_c, 0, 56, 64
2, 73620, Note_on_c, 0, 53, 94
2, 73778, Note_on_c, 0, 60, 95
2, 73788, Note_off_c, 0, 53, 64
2, 73797, Control_c, 0, 64, 0
2, 73936, Note_on_c, 0, 56, 92
2, 73994, Note_off_c, 0, 60, 64
2, 74028, Control_c, 0, 64, 127
2, 74109, Note_off_c, 0, 56, 64
2, 74109, Note_on_c, 0, 65, 96
2, 74229, Note_off_c, 0, 65, 64
2, 74268, Note_on_c, 0, 60, 89
2, 74397, Control_c, 0, 64, 0
2, 74416, Note_off_c, 0, 60, 64
2, 74436, Note_on_c, 0, 68, 86
2, 74589, Note_off_c, 0, 68, 64
2, 74608, Control_c, 0, 64, 127
2, 74608, Note_on_c, 0, 65, 80
2, 74767, Note_on_c, 0, 72, 89
2, 74781, Note_off_c, 0, 65, 64
2, 74781, Control_c, 0, 64, 0
2, 74925, Note_on_c, 0, 68, 88
2, 74964, Control_c, 0, 64, 127
2, 74973, Note_off_c, 0, 72, 64
2, 75026, Control_c, 0, 64, 0
2, 75103, Note_on_c, 0, 77, 94
2, 75112, Note_off_c, 0, 68, 64
2, 75208, Control_c, 0, 64, 127
2, 75228, Note_off_c, 0, 77, 64
2, 75252, Note_on_c, 0, 72, 100
2, 75256, Control_c, 0, 64, 0
2, 75415, Note_on_c, 0, 80, 95
2, 75420, Note_off_c, 0, 72, 64
2, 75564, Note_on_c, 0, 77, 101
2, 75626, Note_off_c, 0, 80, 64
2, 75765, Note_on_c, 0, 84, 104
2, 75789, Note_off_c, 0, 77, 64
2, 76010, Control_c, 0, 64, 127
2, 76029, Note_off_c, 0, 84, 64
2, 76096, Note_on_c, 0, 56, 53
2, 76111, Note_on_c, 0, 65, 91
2, 76116, Note_on_c, 0, 60, 78
2, 76375, Control_c, 0, 64, 0
2, 76408, Note_off_c, 0, 60, 64
2, 76423, Note_off_c, 0, 65, 64
2, 76432, Note_off_c, 0, 56, 64
2, 76476, Note_on_c, 0, 87, 90
2, 76845, Note_on_c, 0, 66, 48
2, 76868, Note_on_c, 0, 57, 43
2, 76869, Control_c, 0, 64, 127
2, 76874, Note_on_c, 0, 60, 40
2, 76989, Control_c, 0, 64, 0
2, 77013, Note_off_c, 0, 87, 64
2, 77052, Control_c, 0, 64, 127
2, 77061, Note_off_c, 0, 60, 64
2, 77065, Note_off_c, 0, 57, 64
2, 77162, Note_off_c, 0, 66, 64
2, 77258, Note_on_c, 0, 67, 45
2, 77258, Note_on_c, 0, 58, 49
2, 77268, Control_c, 0, 64, 0
2, 77272, Note_on_c, 0, 63, 40
2, 77450, Note_on_c, 0, 70, 81
2, 77623, Note_off_c, 0, 70, 64
2, 77642, Note_on_c, 0, 82, 88
2, 77791, Note_off_c, 0, 67, 64
2, 77815, Note_on_c, 0, 81, 88
2, 77829, Note_off_c, 0, 63, 64
2, 77839, Note_off_c, 0, 82, 64
2, 77848, Note_off_c, 0, 58, 64
2, 77978, Note_on_c, 0, 80, 86
2, 78016, Note_off_c, 0, 81, 64
2, 78156, Note_on_c, 0, 79, 90
2, 78165, Note_off_c, 0, 80, 64
2, 78304, Note_on_c, 0, 78, 81
2, 78314, Note_off_c, 0, 79, 64
2, 78405, Control_c, 0, 64, 127
2, 78434, Control_c, 0, 64, 0
2, 78477, Note_on_c, 0, 77, 84
2, 78482, Note_off_c, 0, 78, 64
2, 78511, Control_c, 0, 64, 127
2, 78520, Note_off_c, 0, 77, 64
2, 78660, Note_on_c, 0, 77, 83
2, 78698, Control_c, 0, 64, 0
2, 78832, Control_c, 0, 64, 127
2, 78842, Note_on_c, 0, 75, 61
2, 78880, Note_off_c, 0, 77, 64
2, 78948, Note_off_c, 0, 75, 64
2, 79015, Note_on_c, 0, 75, 80
2, 79058, Note_on_c, 0, 67, 44
2, 79072, Note_on_c, 0, 58, 34
2, 79216, Control_c, 0, 64, 0
2, 79356, Control_c, 0, 64, 127
2, 79423, Note_on_c, 0, 68, 53
2, 79437, Note_off_c, 0, 67, 64
2, 79543, Control_c, 0, 64, 0
2, 79740, Control_c, 0, 64, 127
2, 79773, Note_on_c, 0, 79, 65
2, 79797, Note_on_c, 0, 74, 44
2, 79802, Control_c, 0, 64, 0
2, 79807, Note_off_c, 0, 75, 64
2, 79927, Note_off_c, 0, 79, 64
2, 79960, Note_on_c, 0, 77, 42
2, 80004, Control_c, 0, 64, 127
2, 80052, Note_off_c, 0, 74, 64
2, 80095, Control_c, 0, 64, 0
2, 80104, Note_off_c, 0, 77, 64
2, 80114, Note_off_c, 0, 58, 64
2, 80119, Note_off_c, 0, 68, 64
2, 80138, Note_on_c, 0, 75, 41
2, 80148, Note_on_c, 0, 63, 31
2, 80306, Note_on_c, 0, 70, 56
2, 80368, Control_c, 0, 64, 127
2, 80416, Note_off_c, 0, 70, 64
2, 80416, Control_c, 0, 64, 0
2, 80469, Note_off_c, 0, 75, 64
2, 80512, Note_on_c, 0, 67, 46
2, 80570, Note_off_c, 0, 63, 64
2, 80623, Note_off_c, 0, 67, 64
2, 80647, Note_on_c, 0, 75, 58
2, 80666, Note_on_c, 0, 70, 57
2, 80805, Note_off_c, 0, 70, 64
2, 80829, Note_on_c, 0, 76, 74
2, 80858, Note_off_c, 0, 75, 64
2, 80868, Note_on_c, 0, 62, 41
2, 81016, Note_on_c, 0, 77, 66
2, 81026, Note_on_c, 0, 70, 57
2, 81036, Note_off_c, 0, 76, 64
2, 81112, Note_off_c, 0, 70, 64
2, 81146, Note_off_c, 0, 77, 64
2, 81194, Note_on_c, 0, 68, 62
2, 81213, Note_off_c, 0, 62, 64
2, 81266, Note_off_c, 0, 68, 64
2, 81348, Note_on_c, 0, 77, 93
2, 81352, Note_on_c, 0, 70, 70
2, 81525, Note_off_c, 0, 70, 64
2, 81525, Note_on_c, 0, 78, 83
2, 81535, Note_on_c, 0, 63, 54
2, 81540, Note_off_c, 0, 77, 64
2, 81688, Note_on_c, 0, 70, 63
2, 81732, Note_off_c, 0, 78, 64
2, 81736, Note_on_c, 0, 79, 61
2, 81828, Note_off_c, 0, 70, 64
2, 81837, Note_off_c, 0, 79, 64
2, 81876, Note_off_c, 0, 63, 64
2, 81890, Note_on_c, 0, 67, 56
2, 82015, Control_c, 0, 64, 127
2, 82029, Note_off_c, 0, 67, 64
2, 82029, Note_on_c, 0, 79, 87
2, 82048, Note_on_c, 0, 70, 78
2, 82096, Note_off_c, 0, 70, 64
2, 82221, Note_on_c, 0, 82, 87
2, 82236, Note_on_c, 0, 53, 65
2, 82269, Note_off_c, 0, 79, 64
2, 82322, Control_c, 0, 64, 0
2, 82399, Note_on_c, 0, 80, 69
2, 82404, Note_on_c, 0, 62, 58
2, 82466, Note_off_c, 0, 82, 64
2, 82538, Note_off_c, 0, 62, 64
2, 82572, Note_off_c, 0, 80, 64
2, 82572, Note_on_c, 0, 56, 73
2, 82668, Note_off_c, 0, 53, 64
2, 82716, Note_on_c, 0, 80, 97
2, 82735, Note_on_c, 0, 62, 67
2, 82869, Note_off_c, 0, 56, 64
2, 82884, Note_off_c, 0, 62, 64
2, 82898, Note_off_c, 0, 80, 64
2, 82898, Note_on_c, 0, 81, 88
2, 82908, Note_on_c, 0, 55, 62
2, 83076, Note_on_c, 0, 63, 66
2, 83076, Note_on_c, 0, 82, 85
2, 83085, Note_off_c, 0, 81, 64
2, 83200, Note_off_c, 0, 63, 64
2, 83244, Note_on_c, 0, 58, 86
2, 83248, Note_off_c, 0, 82, 64
2, 83388, Note_on_c, 0, 82, 110
2, 83407, Note_on_c, 0, 63, 70
2, 83479, Note_off_c, 0, 58, 64
2, 83536, Note_off_c, 0, 55, 64
2, 83560, Note_off_c, 0, 63, 64
2, 83570, Note_on_c, 0, 83, 94
2, 83589, Note_on_c, 0, 56, 62
2, 83599, Note_off_c, 0, 82, 64
2, 83748, Note_on_c, 0, 63, 57
2, 83762, Note_on_c, 0, 84, 87
2, 83767, Note_off_c, 0, 83, 64
2, 83863, Note_off_c, 0, 63, 64
2, 83925, Note_on_c, 0, 60, 65
2, 83930, Note_off_c, 0, 84, 64
2, 83983, Control_c, 0, 64, 127
2, 84012, Note_off_c, 0, 60, 64
2, 84060, Note_on_c, 0, 87, 103
2, 84074, Note_on_c, 0, 63, 64
2, 84088, Note_off_c, 0, 87, 64
2, 84295, Note_off_c, 0, 63, 64
2, 84295, Note_on_c, 0, 87, 97
2, 84319, Note_on_c, 0, 58, 58
2, 84324, Control_c, 0, 64, 0
2, 84338, Note_off_c, 0, 56, 64
2, 84511, Note_on_c, 0, 75, 75
2, 84511, Note_on_c, 0, 67, 61
2, 84535, Note_off_c, 0, 87, 64
2, 84535, Control_c, 0, 64, 127
2, 84607, Note_off_c, 0, 67, 64
2, 84621, Note_off_c, 0, 75, 64
2, 84688, Control_c, 0, 64, 0
2, 84688, Note_on_c, 0, 75, 76
2, 84712, Note_on_c, 0, 63, 51
2, 84842, Control_c, 0, 64, 127
2, 84871, Note_off_c, 0, 58, 64
2, 84895, Note_on_c, 0, 67, 64
2, 84967, Note_off_c, 0, 67, 64
2, 84972, Note_off_c, 0, 63, 64
2, 85063, Note_on_c, 0, 58, 54
2, 85106, Control_c, 0, 64, 0
2, 85260, Note_on_c, 0, 68, 51
2, 85336, Note_off_c, 0, 68, 64
2, 85423, Note_off_c, 0, 75, 64
2, 85423, Note_on_c, 0, 79, 58
2, 85456, Note_on_c, 0, 62, 37
2, 85548, Note_off_c, 0, 62, 64
2, 85596, Control_c, 0, 64, 127
2, 85600, Note_off_c, 0, 79, 64
2, 85600, Note_on_c, 0, 77, 74
2, 85605, Note_on_c, 0, 68, 57
2, 85629, Note_off_c, 0, 58, 64
2, 85648, Note_off_c, 0, 68, 64
2, 85658, Note_off_c, 0, 77, 64
2, 85735, Control_c, 0, 64, 0
2, 85764, Note_on_c, 0, 75, 79
2, 85778, Note_on_c, 0, 51, 73
2, 85807, Note_off_c, 0, 75, 64
2, 85941, Note_on_c, 0, 75, 70
2, 85951, Note_on_c, 0, 58, 70
2, 85980, Note_off_c, 0, 75, 64
2, 86018, Note_off_c, 0, 58, 64
2, 86100, Note_on_c, 0, 77, 72
2, 86133, Note_on_c, 0, 55, 54
2, 86133, Note_on_c, 0, 75, 84
2, 86143, Note_off_c, 0, 77, 64
2, 86176, Note_off_c, 0, 75, 64
2, 86205, Note_on_c, 0, 77, 73
2, 86239, Note_on_c, 0, 75, 71
2, 86253, Note_off_c, 0, 77, 64
2, 86287, Note_on_c, 0, 58, 67
2, 86301, Note_on_c, 0, 74, 80
2, 86306, Note_off_c, 0, 75, 64
2, 86349, Note_off_c, 0, 74, 64
2, 86378, Note_on_c, 0, 75, 78
2, 86402, Note_off_c, 0, 58, 64
2, 86421, Note_on_c, 0, 77, 94
2, 86426, Note_off_c, 0, 75, 64
2, 86440, Note_off_c, 0, 51, 64
2, 86460, Note_off_c, 0, 77, 64
2, 86469, Note_on_c, 0, 50, 59
2, 86474, Note_off_c, 0, 55, 64
2, 86613, Note_on_c, 0, 58, 74
2, 86618, Note_on_c, 0, 77, 83
2, 86652, Note_off_c, 0, 77, 64
2, 86728, Note_off_c, 0, 58, 64
2, 86743, Note_on_c, 0, 79, 95
2, 86776, Note_on_c, 0, 56, 55
2, 86781, Note_off_c, 0, 79, 64
2, 86810, Note_on_c, 0, 77, 78
2, 86853, Note_off_c, 0, 77, 64
2, 86858, Note_on_c, 0, 79, 78
2, 86906, Note_off_c, 0, 79, 64
2, 86906, Note_on_c, 0, 77, 65
2, 86930, Note_on_c, 0, 58, 74
2, 86935, Note_off_c, 0, 56, 64
2, 86959, Note_off_c, 0, 77, 64
2, 86968, Note_on_c, 0, 75, 69
2, 87026, Note_off_c, 0, 58, 64
2, 87031, Note_on_c, 0, 77, 88
2, 87050, Note_off_c, 0, 75, 64
2, 87069, Control_c, 0, 64, 127
2, 87108, Note_on_c, 0, 79, 95
2, 87122, Note_on_c, 0, 51, 68
2, 87136, Note_off_c, 0, 77, 64
2, 87141, Note_off_c, 0, 79, 64
2, 87146, Control_c, 0, 64, 0
2, 87151, Note_off_c, 0, 50, 64
2, 87285, Note_on_c, 0, 79, 92
2, 87290, Note_on_c, 0, 58, 75
2, 87319, Note_off_c, 0, 79, 64
2, 87415, Note_off_c, 0, 58, 64
2, 87429, Note_on_c, 0, 80, 78
2, 87468, Note_off_c, 0, 80, 64
2, 87472, Note_on_c, 0, 55, 56
2, 87472, Note_on_c, 0, 79, 91
2, 87511, Note_off_c, 0, 79, 64
2, 87535, Note_on_c, 0, 80, 73
2, 87544, Control_c, 0, 64, 127
2, 87573, Note_off_c, 0, 55, 64
2, 87573, Note_on_c, 0, 79, 85
2, 87578, Control_c, 0, 64, 0
2, 87588, Note_off_c, 0, 80, 64
2, 87607, Note_on_c, 0, 58, 82
2, 87621, Note_off_c, 0, 79, 64
2, 87621, Note_on_c, 0, 77, 87
2, 87664, Note_off_c, 0, 77, 64
2, 87693, Note_on_c, 0, 79, 96
2, 87756, Note_off_c, 0, 58, 64
2, 87780, Note_off_c, 0, 51, 64
2, 87780, Note_on_c, 0, 80, 101
2, 87784, Note_on_c, 0, 53, 67
2, 87804, Note_off_c, 0, 79, 64
2, 87876, Note_off_c, 0, 80, 64
2, 87943, Note_on_c, 0, 80, 93
2, 87948, Note_on_c, 0, 62, 67
2, 88015, Note_off_c, 0, 80, 64
2, 88087, Note_on_c, 0, 82, 106
2, 88096, Note_off_c, 0, 62, 64
2, 88120, Note_on_c, 0, 58, 79
2, 88144, Note_on_c, 0, 80, 79
2, 88154, Note_off_c, 0, 82, 64
2, 88197, Note_off_c, 0, 80, 64
2, 88221, Note_on_c, 0, 82, 93
2, 88240, Note_off_c, 0, 58, 64
2, 88260, Note_off_c, 0, 82, 64
2, 88264, Note_on_c, 0, 80, 67
2, 88269, Note_on_c, 0, 62, 65
2, 88298, Note_on_c, 0, 79, 94
2, 88308, Note_off_c, 0, 80, 64
2, 88317, Note_off_c, 0, 62, 64
2, 88341, Note_off_c, 0, 53, 64
2, 88380, Note_on_c, 0, 80, 86
2, 88404, Note_off_c, 0, 79, 64
2, 88461, Note_on_c, 0, 63, 78
2, 88471, Note_on_c, 0, 82, 113
2, 88476, Note_on_c, 0, 58, 68
2, 88500, Note_on_c, 0, 55, 52
2, 88509, Note_off_c, 0, 80, 64
2, 88591, Note_off_c, 0, 82, 64
2, 88600, Note_on_c, 0, 84, 105
2, 88711, Note_on_c, 0, 86, 97
2, 88730, Note_off_c, 0, 84, 64
2, 88826, Note_off_c, 0, 86, 64
2, 88826, Note_off_c, 0, 55, 64
2, 88826, Note_on_c, 0, 87, 95
2, 88831, Note_off_c, 0, 58, 64
2, 88836, Note_off_c, 0, 63, 64
2, 88951, Note_on_c, 0, 86, 88
2, 88980, Note_off_c, 0, 87, 64
2, 89042, Note_off_c, 0, 86, 64
2, 89061, Note_on_c, 0, 84, 91
2, 89181, Note_on_c, 0, 82, 102
2, 89200, Note_off_c, 0, 84, 64
2, 89287, Note_on_c, 0, 80, 84
2, 89330, Note_off_c, 0, 82, 64
2, 89392, Note_on_c, 0, 79, 90
2, 89436, Note_off_c, 0, 80, 64
2, 89493, Note_off_c, 0, 79, 64
2, 89508, Note_on_c, 0, 77, 81
2, 89608, Note_on_c, 0, 75, 84
2, 89623, Note_off_c, 0, 77, 64
2, 89700, Note_off_c, 0, 75, 64
2, 89733, Note_on_c, 0, 74, 81
2, 89853, Note_off_c, 0, 74, 64
2, 89858, Note_on_c, 0, 72, 105
2, 89930, Control_c, 0, 64, 127
2, 89959, Note_off_c, 0, 72, 64
2, 90098, Control_c, 0, 64, 0
2, 90213, Note_on_c, 0, 84, 102
2, 90213, Note_on_c, 0, 75, 83
2, 90213, Note_on_c, 0, 80, 91
2, 90213, Note_on_c, 0, 56, 85
2, 90285, Note_off_c, 0, 75, 64
2, 90304, Note_off_c, 0, 80, 64
2, 90314, Note_off_c, 0, 56, 64
2, 90328, Control_c, 0, 64, 127
2, 90376, Note_off_c, 0, 84, 64
2, 90391, Control_c, 0, 64, 0
2, 90554, Note_on_c, 0, 75, 92
2, 90554, Note_on_c, 0, 82, 110
2, 90564, Note_on_c, 0, 79, 95
2, 90573, Note_on_c, 0, 58, 85
2, 90597, Note_off_c, 0, 79, 64
2, 90607, Control_c, 0, 64, 127
2, 90645, Note_off_c, 0, 58, 64
2, 90650, Note_off_c, 0, 75, 64
2, 90660, Note_off_c, 0, 82, 64
2, 90741, Control_c, 0, 64, 0
2, 90914, Note_on_c, 0, 68, 79
2, 90919, Note_on_c, 0, 65, 89
2, 90919, Note_on_c, 0, 46, 87
2, 90919, Note_on_c, 0, 74, 88
2, 90972, Note_off_c, 0, 65, 64
2, 90986, Note_off_c, 0, 68, 64
2, 90991, Note_off_c, 0, 46, 64
2, 90991, Control_c, 0, 64, 127
2, 91020, Note_off_c, 0, 74, 64
2, 91096, Control_c, 0, 64, 0
2, 91269, Note_on_c, 0, 75, 88
2, 91279, Note_on_c, 0, 67, 79
2, 91279, Note_on_c, 0, 51, 58
2, 91322, Note_off_c, 0, 67, 64
2, 91327, Control_c, 0, 64, 127
2, 91380, Note_off_c, 0, 75, 64
2, 91456, Note_off_c, 0, 51, 64
2, 91605, Control_c, 0, 64, 0
2, 91692, Note_on_c, 0, 82, 87
2, 91816, Note_on_c, 0, 80, 69
2, 91840, Note_off_c, 0, 82, 64
2, 91912, Note_on_c, 0, 79, 79
2, 91917, Note_off_c, 0, 80, 64
2, 91984, Note_off_c, 0, 79, 64
2, 92042, Note_on_c, 0, 77, 74
2, 92138, Note_on_c, 0, 75, 72
2, 92157, Note_off_c, 0, 77, 64
2, 92215, Note_off_c, 0, 75, 64
2, 92263, Note_on_c, 0, 74, 69
2, 92311, Note_off_c, 0, 74, 64
2, 92354, Note_on_c, 0, 67, 49
2, 92359, Note_on_c, 0, 63, 32
2, 92368, Note_on_c, 0, 75, 66
2, 92464, Note_off_c, 0, 63, 64
2, 92474, Note_on_c, 0, 73, 65
2, 92493, Note_off_c, 0, 75, 64
2, 92512, Note_off_c, 0, 67, 64
2, 92556, Note_off_c, 0, 73, 64
2, 92573, Note_on_c, 0, 71, 69
2, 92621, Note_off_c, 0, 71, 64
2, 92709, Note_on_c, 0, 68, 41
2, 92714, Note_on_c, 0, 63, 41
2, 92714, Note_on_c, 0, 72, 81
2, 92954, Control_c, 0, 64, 127
2, 93002, Note_off_c, 0, 72, 64
2, 93036, Note_off_c, 0, 63, 64
2, 93064, Note_off_c, 0, 68, 64
2, 93093, Note_on_c, 0, 84, 74
2, 93208, Note_on_c, 0, 82, 80
2, 93218, Note_off_c, 0, 84, 64
2, 93232, Control_c, 0, 64, 0
2, 93314, Note_on_c, 0, 80, 73
2, 93343, Note_off_c, 0, 82, 64
2, 93420, Note_on_c, 0, 79, 81
2, 93439, Note_off_c, 0, 80, 64
2, 93496, Note_off_c, 0, 79, 64
2, 93544, Note_on_c, 0, 77, 59
2, 93631, Note_off_c, 0, 77, 64
2, 93660, Note_on_c, 0, 75, 47
2, 93741, Note_off_c, 0, 75, 64
2, 93760, Note_on_c, 0, 68, 44
2, 93770, Note_on_c, 0, 65, 43
2, 93784, Note_on_c, 0, 74, 57
2, 93789, Note_on_c, 0, 63, 32
2, 93842, Note_off_c, 0, 74, 64
2, 93847, Note_off_c, 0, 65, 64
2, 93852, Note_off_c, 0, 63, 64
2, 93852, Note_off_c, 0, 68, 64
2, 93861, Note_on_c, 0, 80, 59
2, 93962, Note_off_c, 0, 80, 64
2, 93986, Note_on_c, 0, 77, 64
2, 94053, Note_off_c, 0, 77, 64
2, 94149, Note_on_c, 0, 75, 52
2, 94149, Note_on_c, 0, 63, 30
2, 94159, Note_on_c, 0, 67, 37
2, 94183, Control_c, 0, 64, 127
2, 94274, Note_off_c, 0, 67, 64
2, 94279, Note_off_c, 0, 75, 64
2, 94327, Note_off_c, 0, 63, 64
2, 94538, Note_on_c, 0, 70, 75
2, 94615, Control_c, 0, 64, 0
2, 94644, Note_off_c, 0, 70, 64
2, 94644, Note_on_c, 0, 68, 66
2, 94749, Note_on_c, 0, 67, 74
2, 94802, Note_off_c, 0, 68, 64
2, 94807, Note_off_c, 0, 67, 64
2, 94860, Note_on_c, 0, 65, 62
2, 94951, Note_on_c, 0, 63, 79
2, 94984, Note_off_c, 0, 65, 64
2, 95066, Note_on_c, 0, 62, 71
2, 95076, Note_off_c, 0, 63, 64
2, 95133, Note_off_c, 0, 62, 64
2, 95148, Note_on_c, 0, 51, 50
2, 95157, Note_on_c, 0, 55, 55
2, 95167, Note_on_c, 0, 63, 61
2, 95234, Note_off_c, 0, 51, 64
2, 95282, Note_off_c, 0, 55, 64
2, 95282, Note_on_c, 0, 61, 69
2, 95301, Note_off_c, 0, 63, 64
2, 95402, Note_on_c, 0, 59, 56
2, 95412, Note_off_c, 0, 61, 64
2, 95541, Note_off_c, 0, 59, 64
2, 95565, Note_on_c, 0, 56, 45
2, 95565, Note_on_c, 0, 51, 40
2, 95570, Note_on_c, 0, 60, 62
2, 95738, Control_c, 0, 64, 127
2, 95892, Note_off_c, 0, 60, 64
2, 95944, Note_on_c, 0, 72, 73
2, 95959, Note_off_c, 0, 56, 64
2, 95964, Note_off_c, 0, 51, 64
2, 96026, Note_off_c, 0, 72, 64
2, 96050, Note_on_c, 0, 70, 80
2, 96088, Control_c, 0, 64, 0
2, 96146, Note_on_c, 0, 68, 80
2, 96204, Note_off_c, 0, 70, 64
2, 96266, Note_on_c, 0, 67, 79
2, 96280, Note_off_c, 0, 68, 64
2, 96333, Note_off_c, 0, 67, 64
2, 96362, Note_on_c, 0, 65, 79
2, 96468, Note_off_c, 0, 65, 64
2, 96472, Note_on_c, 0, 63, 79
2, 96578, Note_on_c, 0, 56, 63
2, 96592, Note_on_c, 0, 51, 55
2, 96592, Note_on_c, 0, 53, 58
2, 96597, Note_on_c, 0, 62, 75
2, 96616, Note_off_c, 0, 63, 64
2, 96645, Note_off_c, 0, 51, 64
2, 96650, Note_off_c, 0, 53, 64
2, 96650, Note_off_c, 0, 56, 64
2, 96684, Note_on_c, 0, 68, 70
2, 96722, Note_off_c, 0, 62, 64
2, 96799, Note_on_c, 0, 65, 76
2, 96808, Note_off_c, 0, 68, 64
2, 96861, Note_off_c, 0, 65, 64
2, 96924, Note_on_c, 0, 63, 100
2, 96948, Note_on_c, 0, 51, 70
2, 96948, Note_on_c, 0, 55, 63
2, 97149, Control_c, 0, 64, 127
2, 97240, Note_off_c, 0, 51, 64
2, 97274, Note_off_c, 0, 55, 64
2, 97442, Note_off_c, 0, 63, 64
2, 97610, Note_on_c, 0, 67, 100
2, 97672, Control_c, 0, 64, 0
2, 97701, Note_off_c, 0, 67, 64
2, 97932, Note_on_c, 0, 70, 104
2, 98052, Note_off_c, 0, 70, 64
2, 98282, Note_on_c, 0, 75, 93
2, 98296, Note_on_c, 0, 51, 92
2, 98296, Note_on_c, 0, 39, 87
2, 98412, Note_off_c, 0, 75, 64
2, 98647, Note_on_c, 0, 79, 91
2, 98733, Note_off_c, 0, 39, 64
2, 98748, Note_off_c, 0, 51, 64
2, 98762, Note_off_c, 0, 79, 64
2, 98776, Control_c, 0, 64, 127
2, 98964, Note_on_c, 0, 55, 101
2, 98978, Note_on_c, 0, 43, 92
2, 98992, Control_c, 0, 64, 0
2, 99112, Note_off_c, 0, 43, 64
2, 99141, Note_off_c, 0, 55, 64
2, 99194, Control_c, 0, 64, 127
2, 99194, Note_on_c, 0, 79, 95
2, 99228, Note_off_c, 0, 79, 64
2, 99242, Control_c, 0, 64, 0
2, 99266, Note_on_c, 0, 80, 82
2, 99300, Note_on_c, 0, 58, 101
2, 99300, Note_on_c, 0, 46, 101
2, 99314, Note_on_c, 0, 79, 78
2, 99328, Note_off_c, 0, 80, 64
2, 99396, Note_off_c, 0, 79, 64
2, 99396, Note_off_c, 0, 58, 64
2, 99400, Note_off_c, 0, 46, 64
2, 99400, Note_on_c, 0, 80, 86
2, 99487, Note_on_c, 0, 77, 92
2, 99501, Note_off_c, 0, 80, 64
2, 99554, Note_on_c, 0, 79, 100
2, 99588, Note_off_c, 0, 77, 64
2, 99655, Note_on_c, 0, 82, 106
2, 99660, Note_off_c, 0, 79, 64
2, 99660, Note_on_c, 0, 63, 79
2, 99664, Note_on_c, 0, 51, 86
2, 99808, Note_off_c, 0, 51, 64
2, 99808, Control_c, 0, 64, 127
2, 99828, Note_off_c, 0, 63, 64
2, 100024, Note_on_c, 0, 67, 66
2, 100024, Note_on_c, 0, 75, 78
2, 100039, Note_off_c, 0, 82, 64
2, 100044, Note_on_c, 0, 55, 59
2, 100101, Control_c, 0, 64, 0
2, 100212, Note_off_c, 0, 75, 64
2, 100231, Note_off_c, 0, 55, 64
2, 100231, Note_off_c, 0, 67, 64
2, 100365, Note_on_c, 0, 75, 76
2, 100514, Note_off_c, 0, 75, 64
2, 100677, Note_on_c, 0, 75, 58
2, 100802, Note_off_c, 0, 75, 64
2, 101052, Note_on_c, 0, 80, 40
2, 101071, Note_on_c, 0, 65, 39
2, 101076, Note_on_c, 0, 62, 29
2, 101100, Note_on_c, 0, 55, 23
2, 101445, Note_off_c, 0, 80, 64
2, 101460, Note_on_c, 0, 71, 33
2, 101565, Note_off_c, 0, 71, 64
2, 101570, Note_off_c, 0, 55, 64
2, 101589, Note_off_c, 0, 62, 64
2, 101594, Note_off_c, 0, 65, 64
2, 101604, Control_c, 0, 64, 127
2, 101988, Note_on_c, 0, 71, 16
2, 102477, Note_off_c, 0, 71, 64
2, 102775, Control_c, 0, 64, 0
2, 103365, Note_on_c, 0, 60, 110
2, 103375, Note_on_c, 0, 48, 106
2, 103380, Note_on_c, 0, 36, 98
2, 103740, Control_c, 0, 64, 127
2, 103744, Note_off_c, 0, 36, 64
2, 103816, Note_off_c, 0, 48, 64
2, 104004, Note_off_c, 0, 60, 64
2, 104100, Note_on_c, 0, 52, 110
2, 104100, Note_on_c, 0, 40, 103
2, 104100, Note_on_c, 0, 64, 107
2, 104143, Note_off_c, 0, 40, 64
2, 104172, Note_off_c, 0, 64, 64
2, 104181, Note_off_c, 0, 52, 64
2, 104186, Control_c, 0, 64, 0
2, 104421, Note_on_c, 0, 67, 106
2, 104426, Note_on_c, 0, 55, 107
2, 104426, Note_on_c, 0, 43, 103
2, 104464, Note_off_c, 0, 43, 64
2, 104508, Note_off_c, 0, 55, 64
2, 104536, Note_off_c, 0, 67, 64
2, 104743, Note_on_c, 0, 72, 112
2, 104748, Note_on_c, 0, 60, 105
2, 104752, Note_on_c, 0, 48, 108
2, 104824, Note_off_c, 0, 48, 64
2, 104834, Note_off_c, 0, 60, 64
2, 104868, Note_off_c, 0, 72, 64
2, 105069, Note_on_c, 0, 76, 103
2, 105069, Note_on_c, 0, 64, 95
2, 105079, Note_on_c, 0, 52, 89
2, 105170, Note_off_c, 0, 64, 64
2, 105180, Note_off_c, 0, 52, 64
2, 105218, Note_off_c, 0, 76, 64
2, 105597, Note_on_c, 0, 79, 87
2, 105636, Note_off_c, 0, 79, 64
2, 105732, Note_on_c, 0, 80, 97
2, 105794, Note_on_c, 0, 79, 97
2, 105823, Note_off_c, 0, 80, 64
2, 105852, Note_off_c, 0, 79, 64
2, 105880, Note_on_c, 0, 80, 96
2, 105928, Note_on_c, 0, 79, 92
2, 105976, Note_off_c, 0, 80, 64
2, 106015, Note_off_c, 0, 79, 64
2, 106015, Note_on_c, 0, 77, 95
2, 106096, Note_on_c, 0, 79, 87
2, 106149, Note_off_c, 0, 77, 64
2, 106192, Note_on_c, 0, 46, 123
2, 106202, Note_on_c, 0, 34, 114
2, 106216, Note_on_c, 0, 82, 110
2, 106250, Note_off_c, 0, 79, 64
2, 106327, Note_on_c, 0, 84, 100
2, 106336, Control_c, 0, 64, 127
2, 106389, Note_off_c, 0, 82, 64
2, 106423, Note_on_c, 0, 85, 100
2, 106442, Note_off_c, 0, 84, 64
2, 106524, Note_on_c, 0, 84, 92
2, 106528, Note_off_c, 0, 34, 64
2, 106591, Note_off_c, 0, 46, 64
2, 106624, Note_on_c, 0, 82, 108
2, 106639, Note_off_c, 0, 85, 64
2, 106692, Note_off_c, 0, 84, 64
2, 106740, Note_on_c, 0, 80, 96
2, 106788, Note_off_c, 0, 82, 64
2, 106855, Note_on_c, 0, 52, 110
2, 106855, Note_on_c, 0, 79, 101
2, 106855, Note_on_c, 0, 40, 103
2, 106869, Note_off_c, 0, 80, 64
2, 106874, Control_c, 0, 64, 0
2, 106884, Note_off_c, 0, 40, 64
2, 106956, Note_off_c, 0, 52, 64
2, 106956, Note_on_c, 0, 80, 88
2, 106984, Note_off_c, 0, 79, 64
2, 107076, Note_on_c, 0, 82, 105
2, 107085, Note_off_c, 0, 80, 64
2, 107167, Note_on_c, 0, 55, 106
2, 107172, Note_on_c, 0, 80, 84
2, 107172, Note_on_c, 0, 43, 100
2, 107205, Note_off_c, 0, 43, 64
2, 107224, Note_off_c, 0, 55, 64
2, 107229, Note_off_c, 0, 82, 64
2, 107282, Note_on_c, 0, 79, 100
2, 107330, Note_off_c, 0, 80, 64
2, 107388, Note_on_c, 0, 77, 98
2, 107397, Note_off_c, 0, 79, 64
2, 107484, Note_on_c, 0, 58, 110
2, 107498, Note_on_c, 0, 46, 105
2, 107503, Note_on_c, 0, 76, 106
2, 107541, Note_off_c, 0, 46, 64
2, 107584, Note_off_c, 0, 58, 64
2, 107599, Note_on_c, 0, 79, 98
2, 107604, Note_off_c, 0, 77, 64
2, 107608, Note_off_c, 0, 76, 64
2, 107695, Note_on_c, 0, 76, 97
2, 107728, Note_off_c, 0, 79, 64
2, 107796, Note_on_c, 0, 61, 86
2, 107800, Note_off_c, 0, 76, 64
2, 107810, Note_on_c, 0, 49, 80
2, 107810, Note_on_c, 0, 73, 92
2, 107906, Note_on_c, 0, 76, 85
2, 107916, Note_off_c, 0, 61, 64
2, 107930, Note_off_c, 0, 73, 64
2, 107959, Note_off_c, 0, 49, 64
2, 108016, Note_on_c, 0, 73, 70
2, 108050, Note_off_c, 0, 76, 64
2, 108098, Note_on_c, 0, 70, 100
2, 108122, Note_off_c, 0, 73, 64
2, 108204, Note_on_c, 0, 73, 79
2, 108208, Note_off_c, 0, 70, 64
2, 108304, Note_on_c, 0, 70, 75
2, 108343, Note_off_c, 0, 73, 64
2, 108405, Note_off_c, 0, 70, 64
2, 108420, Note_on_c, 0, 67, 76
2, 108468, Note_off_c, 0, 67, 64
2, 108482, Note_on_c, 0, 70, 73
2, 108612, Note_on_c, 0, 67, 73
2, 108616, Note_off_c, 0, 70, 64
2, 108688, Note_off_c, 0, 67, 64
2, 108760, Note_on_c, 0, 68, 63
2, 108775, Note_on_c, 0, 53, 49
2, 108967, Note_on_c, 0, 60, 41
2, 109058, Control_c, 0, 64, 127
2, 109087, Note_off_c, 0, 60, 64
2, 109159, Note_on_c, 0, 56, 30
2, 109221, Note_off_c, 0, 68, 64
2, 109260, Note_on_c, 0, 70, 64
2, 109312, Note_off_c, 0, 56, 64
2, 109313, Note_on_c, 0, 68, 65
2, 109322, Note_off_c, 0, 70, 64
2, 109351, Note_on_c, 0, 60, 25
2, 109380, Note_off_c, 0, 68, 64
2, 109404, Note_on_c, 0, 67, 36
2, 109452, Note_off_c, 0, 60, 64
2, 109456, Note_on_c, 0, 68, 67
2, 109480, Note_off_c, 0, 67, 64
2, 109572, Note_off_c, 0, 53, 64
2, 109615, Note_on_c, 0, 55, 25
2, 109615, Note_on_c, 0, 70, 65
2, 109639, Note_off_c, 0, 68, 64
2, 109687, Control_c, 0, 64, 0
2, 109812, Note_on_c, 0, 60, 45
2, 109936, Note_off_c, 0, 60, 64
2, 110004, Note_off_c, 0, 70, 64
2, 110008, Control_c, 0, 64, 127
2, 110008, Note_on_c, 0, 64, 66
2, 110018, Note_on_c, 0, 58, 40
2, 110128, Note_off_c, 0, 55, 64
2, 110143, Note_off_c, 0, 58, 64
2, 110205, Note_on_c, 0, 60, 44
2, 110282, Note_off_c, 0, 60, 64
2, 110349, Note_off_c, 0, 64, 64
2, 110359, Note_on_c, 0, 65, 71
2, 110378, Note_on_c, 0, 56, 39
2, 110392, Control_c, 0, 64, 0
2, 110474, Note_off_c, 0, 65, 64
2, 110541, Note_on_c, 0, 68, 72
2, 110551, Control_c, 0, 64, 127
2, 110551, Note_on_c, 0, 60, 41
2, 110604, Note_off_c, 0, 68, 64
2, 110637, Note_off_c, 0, 60, 64
2, 110724, Note_on_c, 0, 72, 72
2, 110724, Note_on_c, 0, 53, 37
2, 110776, Note_off_c, 0, 56, 64
2, 110781, Control_c, 0, 64, 0
2, 110930, Note_on_c, 0, 60, 40
2, 110978, Control_c, 0, 64, 127
2, 111055, Note_off_c, 0, 53, 64
2, 111064, Note_off_c, 0, 60, 64
2, 111069, Control_c, 0, 64, 0
2, 111103, Note_on_c, 0, 52, 45
2, 111223, Control_c, 0, 64, 127
2, 111319, Note_on_c, 0, 71, 37
2, 111343, Note_on_c, 0, 60, 34
2, 111372, Note_off_c, 0, 72, 64
2, 111429, Note_off_c, 0, 60, 64
2, 111487, Control_c, 0, 64, 0
2, 111496, Note_on_c, 0, 70, 68
2, 111501, Note_off_c, 0, 71, 64
2, 111520, Note_off_c, 0, 52, 64
2, 111520, Note_on_c, 0, 48, 48
2, 111650, Note_on_c, 0, 67, 74
2, 111655, Note_off_c, 0, 70, 64
2, 111655, Control_c, 0, 64, 127
2, 111664, Note_on_c, 0, 60, 55
2, 111679, Note_off_c, 0, 48, 64
2, 111818, Note_off_c, 0, 60, 64
2, 111832, Note_on_c, 0, 68, 83
2, 111852, Note_on_c, 0, 53, 50
2, 111876, Note_off_c, 0, 67, 64
2, 111991, Control_c, 0, 64, 0
2, 112020, Note_on_c, 0, 60, 49
2, 112120, Note_off_c, 0, 60, 64
2, 112183, Note_on_c, 0, 56, 48
2, 112192, Control_c, 0, 64, 127
2, 112260, Note_on_c, 0, 70, 81
2, 112264, Note_off_c, 0, 68, 64
2, 112322, Note_off_c, 0, 70, 64
2, 112336, Note_on_c, 0, 68, 67
2, 112356, Note_on_c, 0, 60, 40
2, 112384, Note_off_c, 0, 68, 64
2, 112389, Note_on_c, 0, 67, 77
2, 112447, Note_off_c, 0, 56, 64
2, 112456, Note_on_c, 0, 68, 64
2, 112461, Note_off_c, 0, 67, 64
2, 112504, Note_off_c, 0, 60, 64
2, 112586, Note_off_c, 0, 53, 64
2, 112596, Note_on_c, 0, 70, 76
2, 112610, Note_off_c, 0, 68, 64
2, 112620, Control_c, 0, 64, 0
2, 112624, Note_on_c, 0, 55, 31
2, 112816, Note_on_c, 0, 60, 44
2, 112917, Note_off_c, 0, 60, 64
2, 112975, Note_on_c, 0, 64, 68
2, 112989, Note_off_c, 0, 70, 64
2, 112989, Control_c, 0, 64, 127
2, 112994, Note_on_c, 0, 58, 45
2, 113148, Note_off_c, 0, 58, 64
2, 113186, Note_on_c, 0, 60, 38
2, 113191, Note_off_c, 0, 55, 64
2, 113272, Note_off_c, 0, 60, 64
2, 113311, Note_off_c, 0, 64, 64
2, 113340, Note_on_c, 0, 65, 70
2, 113364, Note_on_c, 0, 56, 37
2, 113392, Control_c, 0, 64, 0
2, 113536, Note_off_c, 0, 65, 64
2, 113546, Note_on_c, 0, 77, 83
2, 113556, Note_on_c, 0, 60, 37
2, 113604, Control_c, 0, 64, 127
2, 113642, Note_off_c, 0, 60, 64
2, 113700, Note_on_c, 0, 75, 76
2, 113733, Note_on_c, 0, 53, 42
2, 113752, Note_off_c, 0, 77, 64
2, 113815, Note_off_c, 0, 53, 64
2, 113848, Note_on_c, 0, 73, 86
2, 113892, Note_off_c, 0, 75, 64
2, 113892, Note_on_c, 0, 60, 30
2, 113978, Note_off_c, 0, 60, 64
2, 114021, Note_off_c, 0, 56, 64
2, 114021, Note_on_c, 0, 72, 94
2, 114031, Note_off_c, 0, 73, 64
2, 114060, Note_on_c, 0, 52, 39
2, 114184, Note_on_c, 0, 71, 73
2, 114218, Note_off_c, 0, 72, 64
2, 114242, Note_on_c, 0, 60, 29
2, 114319, Note_off_c, 0, 60, 64
2, 114352, Note_on_c, 0, 70, 89
2, 114372, Note_off_c, 0, 71, 64
2, 114376, Note_on_c, 0, 48, 58
2, 114391, Note_off_c, 0, 52, 64
2, 114420, Control_c, 0, 64, 0
2, 114482, Note_off_c, 0, 48, 64
2, 114516, Note_on_c, 0, 67, 87
2, 114525, Note_on_c, 0, 60, 67
2, 114540, Note_off_c, 0, 70, 64
2, 114573, Control_c, 0, 64, 127
2, 114592, Note_off_c, 0, 60, 64
2, 114664, Control_c, 0, 64, 0
2, 114693, Note_on_c, 0, 53, 108
2, 114703, Note_on_c, 0, 68, 92
2, 114741, Note_off_c, 0, 67, 64
2, 114813, Note_on_c, 0, 56, 100
2, 114828, Note_off_c, 0, 53, 64
2, 114904, Note_off_c, 0, 56, 64
2, 114938, Note_on_c, 0, 60, 92
2, 115048, Note_off_c, 0, 60, 64
2, 115058, Note_on_c, 0, 58, 108
2, 115164, Note_off_c, 0, 58, 64
2, 115164, Note_on_c, 0, 56, 86
2, 115168, Note_off_c, 0, 68, 64
2, 115202, Control_c, 0, 64, 127
2, 115279, Note_on_c, 0, 55, 91
2, 115288, Note_off_c, 0, 56, 64
2, 115380, Note_on_c, 0, 72, 110
2, 115389, Control_c, 0, 64, 0
2, 115404, Note_off_c, 0, 55, 64
2, 115404, Note_on_c, 0, 53, 92
2, 115495, Note_off_c, 0, 72, 64
2, 115504, Note_on_c, 0, 56, 90
2, 115519, Note_off_c, 0, 53, 64
2, 115605, Note_off_c, 0, 56, 64
2, 115639, Note_on_c, 0, 60, 86
2, 115716, Note_on_c, 0, 77, 109
2, 115735, Note_on_c, 0, 58, 108
2, 115749, Note_off_c, 0, 60, 64
2, 115792, Note_off_c, 0, 77, 64
2, 115845, Note_off_c, 0, 58, 64
2, 115850, Note_on_c, 0, 56, 89
2, 115946, Note_on_c, 0, 55, 92
2, 115956, Note_off_c, 0, 56, 64
2, 116047, Note_on_c, 0, 80, 104
2, 116066, Note_on_c, 0, 53, 87
2, 116076, Note_off_c, 0, 55, 64
2, 116157, Note_off_c, 0, 80, 64
2, 116167, Note_on_c, 0, 56, 81
2, 116172, Note_off_c, 0, 53, 64
2, 116239, Note_off_c, 0, 56, 64
2, 116287, Note_on_c, 0, 60, 82
2, 116388, Note_on_c, 0, 84, 110
2, 116397, Note_off_c, 0, 60, 64
2, 116407, Note_on_c, 0, 58, 93
2, 116498, Note_off_c, 0, 58, 64
2, 116503, Note_on_c, 0, 56, 81
2, 116512, Note_off_c, 0, 84, 64
2, 116546, Note_off_c, 0, 56, 64
2, 116608, Note_on_c, 0, 55, 84
2, 116671, Note_off_c, 0, 55, 64
2, 116719, Note_on_c, 0, 53, 101
2, 116820, Note_on_c, 0, 55, 99
2, 116824, Note_off_c, 0, 53, 64
2, 116925, Note_off_c, 0, 55, 64
2, 116925, Note_on_c, 0, 53, 72
2, 117021, Note_on_c, 0, 51, 100
2, 117026, Note_off_c, 0, 53, 64
2, 117117, Note_off_c, 0, 51, 64
2, 117132, Note_on_c, 0, 53, 71
2, 117232, Note_off_c, 0, 53, 64
2, 117242, Note_on_c, 0, 51, 85
2, 117280, Note_off_c, 0, 51, 64
2, 117372, Note_on_c, 0, 50, 121
2, 117372, Note_on_c, 0, 38, 118
2, 117376, Note_on_c, 0, 84, 111
2, 117487, Note_on_c, 0, 86, 100
2, 117506, Control_c, 0, 64, 127
2, 117511, Note_off_c, 0, 84, 64
2, 117588, Note_on_c, 0, 87, 93
2, 117597, Note_off_c, 0, 86, 64
2, 117698, Note_on_c, 0, 86, 80
2, 117741, Note_off_c, 0, 87, 64
2, 117808, Note_off_c, 0, 38, 64
2, 117813, Note_off_c, 0, 86, 64
2, 117818, Note_on_c, 0, 84, 95
2, 117847, Note_off_c, 0, 50, 64
2, 117924, Note_on_c, 0, 82, 101
2, 117948, Note_off_c, 0, 84, 64
2, 118015, Control_c, 0, 64, 0
2, 118015, Note_on_c, 0, 54, 110
2, 118020, Note_on_c, 0, 42, 103
2, 118029, Note_on_c, 0, 81, 105
2, 118044, Note_off_c, 0, 82, 64
2, 118072, Note_off_c, 0, 42, 64
2, 118096, Note_off_c, 0, 54, 64
2, 118125, Note_on_c, 0, 82, 95
2, 118144, Note_off_c, 0, 81, 64
2, 118231, Note_on_c, 0, 84, 101
2, 118250, Note_off_c, 0, 82, 64
2, 118332, Note_on_c, 0, 82, 97
2, 118341, Note_on_c, 0, 57, 116
2, 118346, Note_on_c, 0, 45, 111
2, 118375, Note_off_c, 0, 45, 64
2, 118384, Note_off_c, 0, 84, 64
2, 118413, Note_off_c, 0, 57, 64
2, 118452, Note_on_c, 0, 81, 101
2, 118485, Note_off_c, 0, 82, 64
2, 118548, Note_off_c, 0, 81, 64
2, 118557, Note_on_c, 0, 79, 96
2, 118644, Note_on_c, 0, 62, 115
2, 118648, Note_on_c, 0, 50, 113
2, 118658, Note_on_c, 0, 78, 103
2, 118672, Note_off_c, 0, 79, 64
2, 118677, Note_off_c, 0, 50, 64
2, 118716, Note_off_c, 0, 62, 64
2, 118764, Note_on_c, 0, 81, 100
2, 118792, Note_off_c, 0, 78, 64
2, 118855, Note_on_c, 0, 78, 88
2, 118927, Note_off_c, 0, 81, 64
2, 118946, Note_on_c, 0, 66, 111
2, 118956, Note_on_c, 0, 75, 94
2, 118956, Note_on_c, 0, 54, 98
2, 118999, Note_off_c, 0, 54, 64
2, 119008, Note_off_c, 0, 78, 64
2, 119028, Note_off_c, 0, 66, 64
2, 119052, Note_on_c, 0, 81, 88
2, 119080, Note_off_c, 0, 75, 64
2, 119152, Note_on_c, 0, 75, 81
2, 119239, Note_off_c, 0, 81, 64
2, 119268, Note_on_c, 0, 74, 97
2, 119292, Note_off_c, 0, 75, 64
2, 119373, Note_off_c, 0, 74, 64
2, 119373, Note_on_c, 0, 81, 83
2, 119455, Note_on_c, 0, 74, 74
2, 119532, Note_off_c, 0, 81, 64
2, 119570, Note_on_c, 0, 72, 92
2, 119580, Note_off_c, 0, 74, 64
2, 119652, Note_off_c, 0, 72, 64
2, 119661, Note_on_c, 0, 81, 57
2, 119772, Note_off_c, 0, 81, 64
2, 119772, Note_on_c, 0, 72, 79
2, 119901, Note_on_c, 0, 70, 113
2, 119916, Note_on_c, 0, 55, 57
2, 119935, Control_c, 0, 64, 127
2, 119954, Note_off_c, 0, 72, 64
2, 120016, Note_on_c, 0, 58, 78
2, 120074, Note_off_c, 0, 58, 64
2, 120132, Note_on_c, 0, 62, 68
2, 120184, Note_off_c, 0, 55, 64
2, 120237, Note_on_c, 0, 60, 90
2, 120252, Note_off_c, 0, 62, 64
2, 120328, Note_on_c, 0, 58, 98
2, 120348, Note_off_c, 0, 60, 64
2, 120444, Note_on_c, 0, 57, 88
2, 120463, Note_off_c, 0, 58, 64
2, 120568, Control_c, 0, 64, 0
2, 120568, Note_on_c, 0, 55, 87
2, 120573, Note_off_c, 0, 57, 64
2, 120573, Note_off_c, 0, 70, 64
2, 120578, Note_on_c, 0, 74, 113
2, 120655, Note_off_c, 0, 74, 64
2, 120674, Note_on_c, 0, 58, 95
2, 120679, Note_off_c, 0, 55, 64
2, 120789, Note_on_c, 0, 62, 87
2, 120794, Note_off_c, 0, 58, 64
2, 120890, Note_on_c, 0, 79, 112
2, 120900, Note_off_c, 0, 62, 64
2, 120904, Note_on_c, 0, 60, 88
2, 120991, Note_off_c, 0, 79, 64
2, 120996, Note_on_c, 0, 58, 91
2, 121010, Note_off_c, 0, 60, 64
2, 121101, Note_on_c, 0, 57, 87
2, 121125, Note_off_c, 0, 58, 64
2, 121226, Note_off_c, 0, 57, 64
2, 121226, Note_on_c, 0, 55, 81
2, 121226, Note_on_c, 0, 82, 117
2, 121332, Note_on_c, 0, 58, 94
2, 121341, Note_off_c, 0, 55, 64
2, 121389, Note_off_c, 0, 82, 64
2, 121456, Note_off_c, 0, 58, 64
2, 121456, Note_on_c, 0, 62, 73
2, 121557, Note_off_c, 0, 62, 64
2, 121562, Note_on_c, 0, 86, 110
2, 121591, Note_on_c, 0, 60, 75
2, 121658, Note_off_c, 0, 60, 64
2, 121687, Note_on_c, 0, 58, 84
2, 121725, Note_off_c, 0, 86, 64
2, 121768, Note_off_c, 0, 58, 64
2, 121797, Note_on_c, 0, 57, 79
2, 121850, Note_off_c, 0, 57, 64
2, 121912, Note_on_c, 0, 55, 74
2, 122023, Note_on_c, 0, 58, 78
2, 122042, Note_off_c, 0, 55, 64
2, 122124, Note_off_c, 0, 58, 64
2, 122128, Note_on_c, 0, 62, 55
2, 122210, Note_off_c, 0, 62, 64
2, 122234, Note_on_c, 0, 55, 76
2, 122287, Control_c, 0, 64, 127
2, 122364, Note_on_c, 0, 58, 82
2, 122383, Note_off_c, 0, 55, 64
2, 122440, Note_off_c, 0, 58, 64
2, 122450, Note_on_c, 0, 62, 46
2, 122455, Control_c, 0, 64, 0
2, 122517, Note_off_c, 0, 62, 64
2, 122551, Note_on_c, 0, 71, 100
2, 122565, Note_on_c, 0, 53, 72
2, 122680, Note_on_c, 0, 59, 59
2, 122728, Note_off_c, 0, 59, 64
2, 122767, Note_on_c, 0, 62, 65
2, 122796, Control_c, 0, 64, 127
2, 122824, Note_off_c, 0, 53, 64
2, 122824, Note_off_c, 0, 62, 64
2, 122887, Note_on_c, 0, 55, 72
2, 122930, Control_c, 0, 64, 0
2, 123040, Note_on_c, 0, 59, 38
2, 123045, Note_off_c, 0, 55, 64
2, 123098, Note_off_c, 0, 59, 64
2, 123108, Note_on_c, 0, 62, 51
2, 123117, Control_c, 0, 64, 127
2, 123184, Note_off_c, 0, 62, 64
2, 123194, Control_c, 0, 64, 0
2, 123218, Note_on_c, 0, 74, 108
2, 123223, Note_on_c, 0, 56, 77
2, 123228, Note_off_c, 0, 71, 64
2, 123280, Note_off_c, 0, 56, 64
2, 123357, Note_on_c, 0, 59, 42
2, 123362, Note_off_c, 0, 74, 64
2, 123376, Control_c, 0, 64, 127
2, 123410, Note_off_c, 0, 59, 64
2, 123420, Note_on_c, 0, 62, 53
2, 123424, Control_c, 0, 64, 0
2, 123487, Note_off_c, 0, 62, 64
2, 123535, Note_on_c, 0, 77, 109
2, 123549, Note_on_c, 0, 55, 69
2, 123655, Note_off_c, 0, 77, 64
2, 123655, Control_c, 0, 64, 127
2, 123684, Note_on_c, 0, 59, 56
2, 123708, Note_off_c, 0, 55, 64
2, 123746, Control_c, 0, 64, 0
2, 123756, Note_on_c, 0, 62, 56
2, 123760, Note_off_c, 0, 59, 64
2, 123818, Note_off_c, 0, 62, 64
2, 123856, Note_on_c, 0, 83, 106
2, 123880, Note_on_c, 0, 53, 71
2, 123976, Control_c, 0, 64, 127
2, 123991, Note_off_c, 0, 83, 64
2, 124005, Note_on_c, 0, 59, 55
2, 124053, Control_c, 0, 64, 0
2, 124058, Note_off_c, 0, 59, 64
2, 124087, Note_on_c, 0, 62, 55
2, 124144, Note_off_c, 0, 53, 64
2, 124159, Note_off_c, 0, 62, 64
2, 124216, Note_on_c, 0, 86, 109
2, 124226, Note_on_c, 0, 55, 69
2, 124255, Control_c, 0, 64, 127
2, 124351, Note_off_c, 0, 86, 64
2, 124356, Note_on_c, 0, 59, 62
2, 124370, Note_off_c, 0, 55, 64
2, 124375, Control_c, 0, 64, 0
2, 124437, Note_off_c, 0, 59, 64
2, 124442, Note_on_c, 0, 62, 64
2, 124543, Control_c, 0, 64, 127
2, 124548, Note_off_c, 0, 62, 64
2, 124557, Note_on_c, 0, 56, 81
2, 124639, Control_c, 0, 64, 0
2, 124682, Note_on_c, 0, 59, 57
2, 124701, Note_off_c, 0, 56, 64
2, 124768, Note_on_c, 0, 62, 71
2, 124792, Control_c, 0, 64, 127
2, 124821, Note_off_c, 0, 62, 64
2, 124831, Note_off_c, 0, 59, 64
2, 124893, Note_on_c, 0, 53, 79
2, 124912, Control_c, 0, 64, 0
2, 125013, Note_on_c, 0, 59, 59
2, 125080, Note_on_c, 0, 62, 63
2, 125085, Control_c, 0, 64, 127
2, 125104, Note_off_c, 0, 59, 64
2, 125143, Note_off_c, 0, 62, 64
2, 125157, Note_off_c, 0, 53, 64
2, 125191, Control_c, 0, 64, 0
2, 125205, Note_on_c, 0, 72, 118
2, 125220, Note_on_c, 0, 51, 76
2, 125316, Note_on_c, 0, 55, 77
2, 125392, Control_c, 0, 64, 127
2, 125422, Note_off_c, 0, 55, 64
2, 125436, Note_off_c, 0, 51, 64
2, 125436, Note_on_c, 0, 60, 75
2, 125522, Note_off_c, 0, 60, 64
2, 125541, Control_c, 0, 64, 0
2, 125551, Note_on_c, 0, 53, 89
2, 125676, Note_on_c, 0, 56, 75
2, 125728, Note_off_c, 0, 53, 64
2, 125757, Control_c, 0, 64, 127
2, 125781, Note_on_c, 0, 60, 77
2, 125786, Note_off_c, 0, 56, 64
2, 125853, Control_c, 0, 64, 0
2, 125872, Note_off_c, 0, 60, 64
2, 125887, Note_on_c, 0, 75, 101
2, 125896, Note_on_c, 0, 51, 84
2, 125901, Note_off_c, 0, 72, 64
2, 126002, Note_off_c, 0, 75, 64
2, 126021, Note_on_c, 0, 55, 69
2, 126036, Control_c, 0, 64, 127
2, 126050, Note_off_c, 0, 51, 64
2, 126088, Note_on_c, 0, 60, 67
2, 126112, Control_c, 0, 64, 0
2, 126146, Note_off_c, 0, 55, 64
2, 126204, Note_off_c, 0, 60, 64
2, 126218, Note_on_c, 0, 79, 110
2, 126232, Note_on_c, 0, 50, 80
2, 126290, Note_off_c, 0, 79, 64
2, 126314, Control_c, 0, 64, 127
2, 126362, Note_on_c, 0, 53, 59
2, 126381, Note_off_c, 0, 50, 64
2, 126444, Note_on_c, 0, 60, 65
2, 126468, Control_c, 0, 64, 0
2, 126511, Note_off_c, 0, 53, 64
2, 126540, Note_off_c, 0, 60, 64
2, 126549, Note_on_c, 0, 84, 113
2, 126573, Note_on_c, 0, 51, 76
2, 126664, Control_c, 0, 64, 127
2, 126679, Note_off_c, 0, 84, 64
2, 126698, Note_on_c, 0, 55, 67
2, 126770, Note_on_c, 0, 60, 68
2, 126775, Control_c, 0, 64, 0
2, 126794, Note_off_c, 0, 51, 64
2, 126794, Note_off_c, 0, 55, 64
2, 126856, Note_off_c, 0, 60, 64
2, 126900, Note_on_c, 0, 50, 74
2, 126900, Note_on_c, 0, 87, 103
2, 126991, Control_c, 0, 64, 127
2, 127029, Note_on_c, 0, 53, 67
2, 127058, Note_off_c, 0, 50, 64
2, 127068, Note_off_c, 0, 87, 64
2, 127130, Note_on_c, 0, 60, 72
2, 127144, Control_c, 0, 64, 0
2, 127202, Note_off_c, 0, 53, 64
2, 127216, Note_off_c, 0, 60, 64
2, 127250, Note_on_c, 0, 51, 84
2, 127341, Control_c, 0, 64, 127
2, 127365, Note_on_c, 0, 55, 75
2, 127418, Control_c, 0, 64, 0
2, 127490, Note_on_c, 0, 60, 46
2, 127500, Note_off_c, 0, 55, 64
2, 127524, Note_off_c, 0, 51, 64
2, 127548, Note_off_c, 0, 60, 64
2, 127572, Control_c, 0, 64, 127
2, 127581, Note_on_c, 0, 48, 97
2, 127677, Control_c, 0, 64, 0
2, 127720, Note_on_c, 0, 51, 74
2, 127778, Note_off_c, 0, 48, 64
2, 127797, Note_on_c, 0, 55, 76
2, 127802, Control_c, 0, 64, 127
2, 127845, Note_off_c, 0, 51, 64
2, 127908, Note_off_c, 0, 55, 64
2, 127917, Note_on_c, 0, 74, 119
2, 127917, Note_on_c, 0, 62, 110
2, 127927, Control_c, 0, 64, 0
2, 127927, Note_on_c, 0, 47, 89
2, 128042, Note_on_c, 0, 50, 79
2, 128100, Note_off_c, 0, 47, 64
2, 128128, Control_c, 0, 64, 127
2, 128138, Note_on_c, 0, 55, 82
2, 128152, Note_off_c, 0, 50, 64
2, 128200, Note_off_c, 0, 62, 64
2, 128239, Note_off_c, 0, 55, 64
2, 128268, Note_on_c, 0, 48, 81
2, 128277, Control_c, 0, 64, 0
2, 128277, Note_on_c, 0, 47, 55
2, 128320, Note_off_c, 0, 47, 64
2, 128373, Note_on_c, 0, 50, 90
2, 128402, Control_c, 0, 64, 127
2, 128460, Note_on_c, 0, 55, 87
2, 128493, Note_off_c, 0, 50, 64
2, 128517, Note_off_c, 0, 48, 64
2, 128527, Control_c, 0, 64, 0
2, 128570, Note_off_c, 0, 55, 64
2, 128570, Note_off_c, 0, 74, 64
2, 128594, Note_on_c, 0, 77, 112
2, 128594, Note_on_c, 0, 47, 88
2, 128594, Note_on_c, 0, 65, 110
2, 128709, Note_on_c, 0, 50, 79
2, 128714, Note_off_c, 0, 65, 64
2, 128724, Control_c, 0, 64, 127
2, 128772, Note_off_c, 0, 77, 64
2, 128781, Note_on_c, 0, 55, 79
2, 128810, Note_off_c, 0, 47, 64
2, 128834, Control_c, 0, 64, 0
2, 128844, Note_off_c, 0, 50, 64
2, 128906, Note_off_c, 0, 55, 64
2, 128925, Note_on_c, 0, 79, 117
2, 128925, Note_on_c, 0, 67, 114
2, 128935, Note_on_c, 0, 45, 97
2, 129016, Note_off_c, 0, 67, 64
2, 129016, Control_c, 0, 64, 127
2, 129040, Note_off_c, 0, 79, 64
2, 129064, Note_on_c, 0, 50, 74
2, 129141, Note_on_c, 0, 55, 79
2, 129156, Control_c, 0, 64, 0
2, 129180, Note_off_c, 0, 50, 64
2, 129184, Note_off_c, 0, 45, 64
2, 129237, Note_off_c, 0, 55, 64
2, 129266, Note_on_c, 0, 86, 117
2, 129266, Note_on_c, 0, 74, 113
2, 129276, Note_on_c, 0, 47, 86
2, 129376, Note_off_c, 0, 74, 64
2, 129386, Control_c, 0, 64, 127
2, 129400, Note_on_c, 0, 50, 77
2, 129424, Note_off_c, 0, 86, 64
2, 129468, Note_off_c, 0, 47, 64
2, 129492, Control_c, 0, 64, 0
2, 129492, Note_on_c, 0, 55, 73
2, 129549, Note_off_c, 0, 50, 64
2, 129583, Note_off_c, 0, 55, 64
2, 129626, Note_on_c, 0, 89, 115
2, 129626, Note_on_c, 0, 77, 111
2, 129640, Note_on_c, 0, 43, 91
2, 129684, Note_off_c, 0, 43, 64
2, 129708, Control_c, 0, 64, 127
2, 129727, Note_off_c, 0, 77, 64
2, 129741, Note_off_c, 0, 89, 64
2, 129972, Control_c, 0, 64, 0
2, 130754, Note_on_c, 0, 77, 72
2, 130879, Note_off_c, 0, 77, 64
2, 131128, Note_on_c, 0, 80, 75
2, 131287, Note_off_c, 0, 80, 64
2, 131565, Note_on_c, 0, 71, 51
2, 131575, Note_on_c, 0, 62, 49
2, 132405, Note_off_c, 0, 71, 64
2, 132405, Note_on_c, 0, 74, 74
2, 132415, Note_off_c, 0, 62, 64
2, 132487, Note_off_c, 0, 74, 64
2, 132842, Note_on_c, 0, 77, 59
2, 132952, Note_off_c, 0, 77, 64
2, 133332, Note_on_c, 0, 68, 41
2, 133340, Note_on_c, 0, 59, 32
2, 134349, Note_on_c, 0, 71, 69
2, 134354, Note_off_c, 0, 68, 64
2, 134387, Note_off_c, 0, 59, 64
2, 134527, Note_off_c, 0, 71, 64
2, 134767, Note_on_c, 0, 74, 84
2, 134916, Note_off_c, 0, 74, 64
2, 135151, Note_on_c, 0, 62, 83
2, 135304, Note_off_c, 0, 62, 64
2, 135640, Note_on_c, 0, 65, 52
2, 135876, Note_off_c, 0, 65, 64
2, 136360, Control_c, 0, 64, 127
2, 136384, Note_on_c, 0, 56, 56
2, 136404, Note_on_c, 0, 47, 29
2, 136408, Note_on_c, 0, 50, 40
2, 136408, Note_on_c, 0, 53, 29
2, 136432, Note_on_c, 0, 35, 26
2, 139178, Note_on_c, 0, 55, 17
2, 139370, Note_off_c, 0, 56, 64
2, 139466, Control_c, 0, 64, 0
2, 141112, Note_off_c, 0, 50, 64
2, 141117, Note_off_c, 0, 47, 64
2, 141141, Note_off_c, 0, 53, 64
2, 141141, Note_off_c, 0, 35, 64
2, 141180, Note_off_c, 0, 55, 64
2, 142341, Note_on_c, 0, 60, 110
2, 142346, Note_on_c, 0, 48, 111
2, 142351, Note_on_c, 0, 36, 106
2, 142404, Note_off_c, 0, 36, 64
2, 142418, Control_c, 0, 64, 127
2, 142432, Note_off_c, 0, 48, 64
2, 142480, Note_off_c, 0, 60, 64
2, 142984, Note_on_c, 0, 63, 99
2, 143004, Note_on_c, 0, 39, 96
2, 143004, Note_on_c, 0, 51, 100
2, 143028, Control_c, 0, 64, 0
2, 143037, Note_off_c, 0, 39, 64
2, 143047, Note_off_c, 0, 63, 64
2, 143052, Note_off_c, 0, 51, 64
2, 143316, Note_on_c, 0, 67, 108
2, 143316, Note_on_c, 0, 55, 110
2, 143320, Note_on_c, 0, 43, 100
2, 143349, Note_off_c, 0, 43, 64
2, 143392, Note_off_c, 0, 55, 64
2, 143416, Note_off_c, 0, 67, 64
2, 143628, Note_on_c, 0, 72, 114
2, 143632, Note_on_c, 0, 60, 110
2, 143637, Note_on_c, 0, 48, 107
2, 143680, Note_off_c, 0, 48, 64
2, 143733, Note_off_c, 0, 72, 64
2, 143733, Note_off_c, 0, 60, 64
2, 143935, Note_on_c, 0, 75, 102
2, 143935, Note_on_c, 0, 63, 104
2, 143944, Note_on_c, 0, 51, 103
2, 144021, Note_off_c, 0, 51, 64
2, 144031, Note_off_c, 0, 63, 64
2, 144069, Note_off_c, 0, 75, 64
2, 144386, Note_on_c, 0, 75, 64
2, 144429, Note_off_c, 0, 75, 64
2, 144458, Note_on_c, 0, 77, 88
2, 144496, Note_off_c, 0, 77, 64
2, 144496, Note_on_c, 0, 75, 76
2, 144578, Note_off_c, 0, 75, 64
2, 144578, Note_on_c, 0, 77, 80
2, 144631, Note_on_c, 0, 75, 86
2, 144640, Note_off_c, 0, 77, 64
2, 144684, Note_off_c, 0, 75, 64
2, 144698, Note_on_c, 0, 74, 90
2, 144746, Note_off_c, 0, 74, 64
2, 144770, Note_on_c, 0, 75, 87
2, 144866, Note_on_c, 0, 79, 97
2, 144885, Note_off_c, 0, 75, 64
2, 145164, Note_on_c, 0, 72, 84
2, 145173, Note_on_c, 0, 67, 59
2, 145183, Note_on_c, 0, 63, 46
2, 145192, Note_off_c, 0, 79, 64
2, 145255, Note_off_c, 0, 67, 64
2, 145260, Note_off_c, 0, 63, 64
2, 145303, Control_c, 0, 64, 127
2, 145308, Note_off_c, 0, 72, 64
2, 145365, Control_c, 0, 64, 0
2, 145480, Note_on_c, 0, 72, 87
2, 145500, Note_on_c, 0, 63, 42
2, 145504, Note_on_c, 0, 67, 50
2, 145572, Note_off_c, 0, 67, 64
2, 145576, Note_off_c, 0, 63, 64
2, 145620, Note_off_c, 0, 72, 64
2, 145816, Note_on_c, 0, 72, 69
2, 145826, Note_on_c, 0, 63, 31
2, 145831, Note_on_c, 0, 67, 52
2, 145912, Note_off_c, 0, 72, 64
2, 145936, Note_off_c, 0, 67, 64
2, 145941, Note_off_c, 0, 63, 64
2, 145980, Control_c, 0, 64, 127
2, 146028, Control_c, 0, 64, 0
2, 146157, Note_on_c, 0, 80, 60
2, 146493, Note_on_c, 0, 71, 36
2, 146503, Note_on_c, 0, 68, 26
2, 146532, Note_off_c, 0, 80, 64
2, 146541, Note_on_c, 0, 62, 21
2, 146565, Note_on_c, 0, 65, 18
2, 146642, Note_off_c, 0, 62, 64
2, 146652, Note_off_c, 0, 68, 64
2, 146656, Note_off_c, 0, 65, 64
2, 146671, Control_c, 0, 64, 127
2, 146695, Note_off_c, 0, 71, 64
2, 146901, Note_on_c, 0, 71, 27
2, 146911, Note_on_c, 0, 68, 31
2, 146988, Note_on_c, 0, 62, 16
2, 147007, Note_off_c, 0, 68, 64
2, 147069, Note_off_c, 0, 62, 64
2, 147079, Note_off_c, 0, 71, 64
2, 147256, Control_c, 0, 64, 0
2, 147784, Note_on_c, 0, 55, 110
2, 147794, Note_on_c, 0, 43, 108
2, 147794, Note_on_c, 0, 31, 113
2, 148120, Note_off_c, 0, 31, 64
2, 148164, Control_c, 0, 64, 127
2, 148178, Note_off_c, 0, 43, 64
2, 148293, Note_off_c, 0, 55, 64
2, 148437, Control_c, 0, 64, 0
2, 148452, Note_on_c, 0, 47, 103
2, 148452, Note_on_c, 0, 59, 96
2, 148456, Note_on_c, 0, 35, 95
2, 148509, Note_off_c, 0, 35, 64
2, 148519, Note_off_c, 0, 59, 64
2, 148524, Note_off_c, 0, 47, 64
2, 148764, Note_on_c, 0, 62, 90
2, 148764, Note_on_c, 0, 50, 110
2, 148768, Note_on_c, 0, 38, 108
2, 148802, Note_off_c, 0, 38, 64
2, 148855, Note_off_c, 0, 50, 64
2, 148874, Note_off_c, 0, 62, 64
2, 149076, Note_on_c, 0, 67, 111
2, 149080, Note_on_c, 0, 55, 108
2, 149085, Note_on_c, 0, 43, 102
2, 149167, Note_off_c, 0, 43, 64
2, 149196, Note_off_c, 0, 67, 64
2, 149200, Note_off_c, 0, 55, 64
2, 149373, Note_on_c, 0, 71, 94
2, 149373, Note_on_c, 0, 59, 95
2, 149378, Note_on_c, 0, 47, 90
2, 149455, Note_off_c, 0, 59, 64
2, 149469, Note_off_c, 0, 47, 64
2, 149498, Control_c, 0, 64, 127
2, 149503, Note_off_c, 0, 71, 64
2, 149546, Control_c, 0, 64, 0
2, 149863, Note_on_c, 0, 74, 61
2, 149911, Note_off_c, 0, 74, 64
2, 150012, Note_on_c, 0, 75, 71
2, 150055, Note_off_c, 0, 75, 64
2, 150064, Note_on_c, 0, 74, 89
2, 150098, Note_off_c, 0, 74, 64
2, 150132, Note_on_c, 0, 75, 69
2, 150180, Note_on_c, 0, 74, 80
2, 150232, Note_off_c, 0, 75, 64
2, 150247, Note_on_c, 0, 72, 80
2, 150256, Note_off_c, 0, 74, 64
2, 150309, Note_off_c, 0, 72, 64
2, 150328, Note_on_c, 0, 74, 95
2, 150376, Note_off_c, 0, 74, 64
2, 150420, Note_on_c, 0, 77, 94
2, 150727, Note_off_c, 0, 77, 64
2, 150727, Note_on_c, 0, 71, 67
2, 150741, Note_on_c, 0, 68, 56
2, 150765, Note_on_c, 0, 62, 45
2, 150770, Note_on_c, 0, 65, 41
2, 150852, Note_off_c, 0, 62, 64
2, 150852, Note_off_c, 0, 65, 64
2, 150856, Note_off_c, 0, 68, 64
2, 150876, Note_off_c, 0, 71, 64
2, 151034, Note_on_c, 0, 71, 74
2, 151039, Note_on_c, 0, 68, 66
2, 151058, Note_on_c, 0, 65, 66
2, 151087, Note_on_c, 0, 62, 33
2, 151116, Note_off_c, 0, 68, 64
2, 151116, Note_off_c, 0, 65, 64
2, 151149, Note_off_c, 0, 62, 64
2, 151168, Note_off_c, 0, 71, 64
2, 151341, Note_on_c, 0, 71, 72
2, 151351, Note_on_c, 0, 68, 54
2, 151365, Note_on_c, 0, 65, 47
2, 151394, Note_on_c, 0, 62, 25
2, 151432, Note_off_c, 0, 65, 64
2, 151437, Note_off_c, 0, 68, 64
2, 151461, Note_off_c, 0, 62, 64
2, 151461, Note_off_c, 0, 71, 64
2, 151668, Note_on_c, 0, 79, 59
2, 151999, Note_on_c, 0, 72, 51
2, 152018, Note_off_c, 0, 79, 64
2, 152018, Note_on_c, 0, 67, 32
2, 152018, Note_on_c, 0, 63, 30
2, 152104, Note_off_c, 0, 67, 64
2, 152128, Note_off_c, 0, 63, 64
2, 152157, Control_c, 0, 64, 127
2, 152167, Note_off_c, 0, 72, 64
2, 152220, Control_c, 0, 64, 0
2, 152368, Note_on_c, 0, 72, 43
2, 152383, Note_on_c, 0, 67, 31
2, 152397, Note_on_c, 0, 63, 25
2, 152517, Note_off_c, 0, 67, 64
2, 152556, Control_c, 0, 64, 127
2, 152560, Note_off_c, 0, 63, 64
2, 152570, Note_off_c, 0, 72, 64
2, 152743, Control_c, 0, 64, 0
2, 152988, Control_c, 0, 64, 127
2, 153261, Note_on_c, 0, 67, 97
2, 153295, Note_on_c, 0, 43, 50
2, 153352, Note_off_c, 0, 43, 64
2, 153453, Note_on_c, 0, 55, 71
2, 153535, Note_off_c, 0, 55, 64
2, 153583, Note_on_c, 0, 43, 76
2, 153664, Note_off_c, 0, 43, 64
2, 153732, Note_on_c, 0, 55, 72
2, 153794, Note_off_c, 0, 55, 64
2, 153880, Note_on_c, 0, 43, 69
2, 153933, Note_off_c, 0, 43, 64
2, 153991, Note_off_c, 0, 67, 64
2, 154063, Note_on_c, 0, 55, 62
2, 154116, Note_off_c, 0, 55, 64
2, 154245, Note_on_c, 0, 75, 73
2, 154250, Note_on_c, 0, 43, 39
2, 154269, Note_on_c, 0, 67, 49
2, 154274, Control_c, 0, 64, 0
2, 154384, Note_off_c, 0, 43, 64
2, 154432, Control_c, 0, 64, 127
2, 154447, Note_on_c, 0, 55, 39
2, 154514, Note_off_c, 0, 55, 64
2, 154586, Control_c, 0, 64, 0
2, 154586, Note_on_c, 0, 66, 52
2, 154596, Note_off_c, 0, 67, 64
2, 154596, Note_on_c, 0, 43, 29
2, 154663, Note_off_c, 0, 43, 64
2, 154725, Control_c, 0, 64, 127
2, 154773, Note_on_c, 0, 55, 37
2, 154836, Note_off_c, 0, 75, 64
2, 154850, Note_off_c, 0, 55, 64
2, 154912, Note_on_c, 0, 74, 69
2, 154927, Note_on_c, 0, 43, 34
2, 154951, Note_on_c, 0, 65, 45
2, 154970, Note_off_c, 0, 66, 64
2, 154984, Control_c, 0, 64, 0
2, 154999, Note_off_c, 0, 43, 64
2, 155076, Control_c, 0, 64, 127
2, 155095, Note_on_c, 0, 55, 46
2, 155152, Note_off_c, 0, 55, 64
2, 155172, Note_off_c, 0, 74, 64
2, 155205, Note_off_c, 0, 65, 64
2, 155224, Note_on_c, 0, 64, 78
2, 155244, Note_on_c, 0, 43, 47
2, 155306, Note_off_c, 0, 43, 64
2, 155364, Note_off_c, 0, 64, 64
2, 155416, Note_on_c, 0, 55, 58
2, 155469, Note_off_c, 0, 55, 64
2, 155536, Note_on_c, 0, 72, 98
2, 155541, Note_on_c, 0, 63, 75
2, 155556, Note_on_c, 0, 43, 56
2, 155618, Note_off_c, 0, 43, 64
2, 155685, Note_off_c, 0, 63, 64
2, 155714, Note_on_c, 0, 55, 72
2, 155762, Note_off_c, 0, 55, 64
2, 155863, Note_on_c, 0, 43, 73
2, 155872, Note_on_c, 0, 62, 84
2, 155920, Control_c, 0, 64, 0
2, 156064, Note_on_c, 0, 55, 53
2, 156088, Note_off_c, 0, 43, 64
2, 156108, Control_c, 0, 64, 127
2, 156160, Note_off_c, 0, 55, 64
2, 156228, Control_c, 0, 64, 0
2, 156237, Note_on_c, 0, 71, 58
2, 156242, Note_on_c, 0, 43, 25
2, 156280, Note_off_c, 0, 72, 64
2, 156381, Note_off_c, 0, 43, 64
2, 156410, Note_off_c, 0, 62, 64
2, 156429, Control_c, 0, 64, 127
2, 156434, Note_on_c, 0, 55, 42
2, 156501, Note_off_c, 0, 55, 64
2, 156516, Note_off_c, 0, 71, 64
2, 156583, Note_on_c, 0, 43, 47
2, 156640, Note_off_c, 0, 43, 64
2, 156770, Note_on_c, 0, 55, 41
2, 156832, Note_off_c, 0, 55, 64
2, 156919, Note_on_c, 0, 79, 82
2, 156924, Note_on_c, 0, 75, 49
2, 156928, Note_on_c, 0, 43, 43
2, 156952, Control_c, 0, 64, 0
2, 157015, Note_off_c, 0, 43, 64
2, 157101, Note_on_c, 0, 55, 45
2, 157120, Control_c, 0, 64, 127
2, 157164, Note_off_c, 0, 55, 64
2, 157255, Note_on_c, 0, 78, 88
2, 157255, Note_on_c, 0, 43, 43
2, 157308, Note_off_c, 0, 79, 64
2, 157308, Note_off_c, 0, 43, 64
2, 157437, Note_on_c, 0, 55, 37
2, 157504, Note_off_c, 0, 55, 64
2, 157591, Note_on_c, 0, 77, 92
2, 157610, Note_on_c, 0, 74, 64
2, 157610, Note_on_c, 0, 43, 34
2, 157658, Note_off_c, 0, 78, 64
2, 157658, Note_off_c, 0, 75, 64
2, 157701, Note_off_c, 0, 43, 64
2, 157720, Control_c, 0, 64, 0
2, 157759, Note_on_c, 0, 55, 50
2, 157826, Control_c, 0, 64, 127
2, 157840, Note_off_c, 0, 55, 64
2, 157893, Note_on_c, 0, 76, 105
2, 157893, Note_on_c, 0, 43, 53
2, 157960, Note_off_c, 0, 43, 64
2, 157984, Note_off_c, 0, 77, 64
2, 158023, Note_off_c, 0, 74, 64
2, 158071, Note_on_c, 0, 55, 60
2, 158128, Note_off_c, 0, 55, 64
2, 158191, Note_on_c, 0, 75, 94
2, 158196, Note_on_c, 0, 72, 87
2, 158205, Note_on_c, 0, 43, 57
2, 158248, Note_off_c, 0, 76, 64
2, 158263, Note_off_c, 0, 43, 64
2, 158364, Note_on_c, 0, 55, 69
2, 158416, Note_off_c, 0, 55, 64
2, 158508, Note_on_c, 0, 74, 107
2, 158522, Note_on_c, 0, 43, 97
2, 158570, Note_off_c, 0, 75, 64
2, 158580, Control_c, 0, 64, 0
2, 158680, Note_off_c, 0, 43, 64
2, 158685, Note_on_c, 0, 55, 85
2, 158738, Note_off_c, 0, 55, 64
2, 158839, Note_on_c, 0, 55, 58
2, 158839, Note_on_c, 0, 71, 72
2, 158868, Note_off_c, 0, 72, 64
2, 158892, Note_off_c, 0, 55, 64
2, 158983, Note_on_c, 0, 55, 52
2, 159050, Note_off_c, 0, 55, 64
2, 159146, Note_on_c, 0, 41, 105
2, 159160, Note_off_c, 0, 74, 64
2, 159223, Note_off_c, 0, 71, 64
2, 159276, Note_off_c, 0, 41, 64
2, 159304, Note_on_c, 0, 53, 91
2, 159352, Note_off_c, 0, 53, 64
2, 159468, Note_on_c, 0, 80, 105
2, 159472, Note_on_c, 0, 53, 66
2, 159472, Note_on_c, 0, 74, 94
2, 159477, Note_on_c, 0, 71, 82
2, 159516, Note_off_c, 0, 53, 64
2, 159616, Note_on_c, 0, 53, 53
2, 159674, Note_off_c, 0, 53, 64
2, 159799, Note_on_c, 0, 39, 91
2, 159962, Note_off_c, 0, 39, 64
2, 159962, Control_c, 0, 64, 127
2, 159991, Note_on_c, 0, 51, 76
2, 160010, Note_off_c, 0, 74, 64
2, 160015, Note_off_c, 0, 71, 64
2, 160072, Note_off_c, 0, 51, 64
2, 160116, Control_c, 0, 64, 0
2, 160159, Note_on_c, 0, 51, 83
2, 160159, Note_on_c, 0, 75, 71
2, 160159, Note_on_c, 0, 72, 82
2, 160159, Note_on_c, 0, 79, 92
2, 160212, Note_off_c, 0, 51, 64
2, 160221, Note_off_c, 0, 80, 64
2, 160322, Note_on_c, 0, 51, 72
2, 160370, Note_off_c, 0, 51, 64
2, 160495, Note_on_c, 0, 35, 87
2, 160533, Note_off_c, 0, 79, 64
2, 160538, Note_off_c, 0, 75, 64
2, 160548, Note_off_c, 0, 72, 64
2, 160610, Note_off_c, 0, 35, 64
2, 160648, Note_on_c, 0, 47, 83
2, 160706, Note_off_c, 0, 47, 64
2, 160725, Note_on_c, 0, 67, 97
2, 160792, Note_on_c, 0, 47, 72
2, 160816, Note_on_c, 0, 74, 104
2, 160845, Note_off_c, 0, 67, 64
2, 160874, Note_off_c, 0, 47, 64
2, 160956, Note_on_c, 0, 47, 69
2, 160984, Note_off_c, 0, 74, 64
2, 161004, Note_on_c, 0, 77, 87
2, 161037, Note_off_c, 0, 77, 64
2, 161061, Note_off_c, 0, 47, 64
2, 161080, Note_on_c, 0, 75, 93
2, 161119, Note_off_c, 0, 75, 64
2, 161119, Note_on_c, 0, 36, 86
2, 161143, Note_on_c, 0, 77, 62
2, 161191, Note_on_c, 0, 75, 89
2, 161239, Note_off_c, 0, 77, 64
2, 161244, Note_off_c, 0, 36, 64
2, 161263, Note_on_c, 0, 74, 91
2, 161287, Note_on_c, 0, 48, 75
2, 161292, Note_off_c, 0, 75, 64
2, 161330, Note_on_c, 0, 75, 88
2, 161349, Note_off_c, 0, 48, 64
2, 161349, Note_off_c, 0, 74, 64
2, 161392, Note_on_c, 0, 77, 98
2, 161421, Note_off_c, 0, 75, 64
2, 161469, Note_on_c, 0, 48, 73
2, 161474, Note_on_c, 0, 79, 106
2, 161517, Note_off_c, 0, 48, 64
2, 161541, Note_off_c, 0, 77, 64
2, 161642, Note_on_c, 0, 48, 80
2, 161690, Note_off_c, 0, 48, 64
2, 161800, Note_on_c, 0, 41, 102
2, 161820, Note_off_c, 0, 79, 64
2, 161944, Note_off_c, 0, 41, 64
2, 161954, Note_on_c, 0, 53, 100
2, 162055, Note_off_c, 0, 53, 64
2, 162108, Note_on_c, 0, 80, 105
2, 162108, Note_on_c, 0, 71, 88
2, 162112, Note_on_c, 0, 74, 98
2, 162117, Note_on_c, 0, 53, 91
2, 162218, Note_off_c, 0, 53, 64
2, 162285, Note_on_c, 0, 53, 94
2, 162328, Note_off_c, 0, 53, 64
2, 162448, Note_on_c, 0, 39, 100
2, 162568, Note_off_c, 0, 74, 64
2, 162607, Note_off_c, 0, 39, 64
2, 162612, Note_on_c, 0, 51, 86
2, 162616, Note_off_c, 0, 71, 64
2, 162708, Note_off_c, 0, 51, 64
2, 162799, Note_off_c, 0, 80, 64
2, 162818, Note_on_c, 0, 79, 104
2, 162818, Note_on_c, 0, 72, 98
2, 162818, Note_on_c, 0, 51, 71
2, 162823, Note_on_c, 0, 75, 76
2, 162895, Note_off_c, 0, 51, 64
2, 162957, Note_on_c, 0, 51, 86
2, 163000, Note_off_c, 0, 72, 64
2, 163034, Note_off_c, 0, 75, 64
2, 163058, Note_off_c, 0, 51, 64
2, 163063, Note_off_c, 0, 79, 64
2, 163130, Note_on_c, 0, 38, 104
2, 163269, Note_off_c, 0, 38, 64
2, 163284, Note_on_c, 0, 50, 92
2, 163332, Note_off_c, 0, 50, 64
2, 163346, Note_on_c, 0, 77, 95
2, 163423, Note_on_c, 0, 50, 77
2, 163437, Note_on_c, 0, 83, 98
2, 163485, Note_off_c, 0, 77, 64
2, 163490, Note_off_c, 0, 50, 64
2, 163600, Note_on_c, 0, 50, 62
2, 163648, Note_off_c, 0, 83, 64
2, 163658, Note_off_c, 0, 50, 64
2, 163668, Note_on_c, 0, 89, 88
2, 163778, Note_on_c, 0, 87, 90
2, 163792, Note_on_c, 0, 48, 84
2, 163797, Note_off_c, 0, 89, 64
2, 163912, Control_c, 0, 64, 127
2, 163927, Note_off_c, 0, 87, 64
2, 163951, Note_on_c, 0, 79, 84
2, 164004, Control_c, 0, 64, 0
2, 164114, Note_off_c, 0, 48, 64
2, 164114, Note_off_c, 0, 79, 64
2, 164119, Note_on_c, 0, 84, 92
2, 164248, Note_off_c, 0, 84, 64
2, 164253, Note_on_c, 0, 75, 77
2, 164392, Note_off_c, 0, 75, 64
2, 164440, Note_on_c, 0, 53, 64
2, 164604, Note_on_c, 0, 77, 59
2, 164738, Note_off_c, 0, 53, 64
2, 164752, Note_on_c, 0, 80, 57
2, 164776, Note_off_c, 0, 77, 64
2, 164925, Note_on_c, 0, 74, 55
2, 164968, Note_off_c, 0, 80, 64
2, 165016, Note_off_c, 0, 74, 64
2, 165093, Note_on_c, 0, 55, 56
2, 165256, Note_on_c, 0, 75, 54
2, 165396, Note_off_c, 0, 55, 64
2, 165420, Note_off_c, 0, 75, 64
2, 165424, Note_on_c, 0, 79, 50
2, 165592, Note_off_c, 0, 79, 64
2, 165592, Note_on_c, 0, 72, 48
2, 165669, Note_off_c, 0, 72, 64
2, 165751, Note_on_c, 0, 43, 41
2, 165919, Note_on_c, 0, 74, 50
2, 165962, Note_off_c, 0, 43, 64
2, 166005, Note_off_c, 0, 74, 64
2, 166072, Note_on_c, 0, 77, 54
2, 166144, Note_off_c, 0, 77, 64
2, 166221, Note_on_c, 0, 71, 43
2, 166264, Note_off_c, 0, 71, 64
2, 166384, Note_on_c, 0, 72, 113
2, 167042, Note_off_c, 0, 72, 64
2, 167052, Note_on_c, 0, 60, 106
2, 167052, Note_on_c, 0, 75, 105
2, 167124, Note_off_c, 0, 75, 64
2, 167392, Note_on_c, 0, 79, 108
2, 167469, Note_off_c, 0, 79, 64
2, 167714, Note_off_c, 0, 60, 64
2, 167719, Note_on_c, 0, 84, 112
2, 167728, Note_on_c, 0, 63, 102
2, 167834, Note_off_c, 0, 84, 64
2, 167868, Note_off_c, 0, 63, 64
2, 168045, Note_on_c, 0, 87, 103
2, 168050, Note_on_c, 0, 67, 105
2, 168093, Note_off_c, 0, 67, 64
2, 168132, Note_off_c, 0, 87, 64
2, 168381, Note_on_c, 0, 44, 109
2, 168381, Note_on_c, 0, 80, 103
2, 168386, Note_on_c, 0, 32, 112
2, 168391, Note_on_c, 0, 72, 109
2, 168544, Note_off_c, 0, 72, 64
2, 168549, Note_off_c, 0, 80, 64
2, 168732, Note_on_c, 0, 84, 115
2, 168732, Note_on_c, 0, 75, 95
2, 168765, Control_c, 0, 64, 127
2, 168799, Note_off_c, 0, 84, 64
2, 168804, Note_off_c, 0, 32, 64
2, 168832, Note_off_c, 0, 44, 64
2, 168837, Note_off_c, 0, 75, 64
2, 168981, Control_c, 0, 64, 0
2, 169048, Note_on_c, 0, 77, 109
2, 169048, Note_on_c, 0, 68, 101
2, 169058, Note_on_c, 0, 36, 106
2, 169063, Note_on_c, 0, 48, 107
2, 169159, Note_off_c, 0, 68, 64
2, 169159, Note_off_c, 0, 36, 64
2, 169178, Note_off_c, 0, 48, 64
2, 169212, Note_off_c, 0, 77, 64
2, 169370, Note_on_c, 0, 80, 103
2, 169375, Note_on_c, 0, 53, 103
2, 169375, Note_on_c, 0, 41, 97
2, 169375, Note_on_c, 0, 72, 103
2, 169500, Note_off_c, 0, 80, 64
2, 169500, Note_off_c, 0, 41, 64
2, 169524, Note_off_c, 0, 72, 64
2, 169543, Note_off_c, 0, 53, 64
2, 169706, Note_on_c, 0, 73, 92
2, 169716, Note_on_c, 0, 65, 88
2, 169725, Note_on_c, 0, 56, 88
2, 169740, Note_on_c, 0, 44, 72
2, 169855, Note_off_c, 0, 65, 64
2, 169869, Note_off_c, 0, 73, 64
2, 170066, Note_on_c, 0, 68, 72
2, 170066, Note_on_c, 0, 77, 88
2, 170138, Note_off_c, 0, 68, 64
2, 170239, Note_off_c, 0, 77, 64
2, 170306, Note_off_c, 0, 44, 64
2, 170316, Control_c, 0, 64, 127
2, 170368, Note_off_c, 0, 56, 64
2, 170599, Note_on_c, 0, 72, 76
2, 170733, Control_c, 0, 64, 0
2, 170810, Note_on_c, 0, 66, 39
2, 170935, Note_off_c, 0, 66, 64
2, 170949, Control_c, 0, 64, 127
2, 170978, Note_on_c, 0, 63, 41
2, 171040, Note_off_c, 0, 63, 64
2, 171122, Note_on_c, 0, 66, 43
2, 171199, Note_off_c, 0, 66, 64
2, 171290, Note_on_c, 0, 56, 38
2, 171367, Note_off_c, 0, 56, 64
2, 171458, Note_on_c, 0, 66, 35
2, 171540, Note_off_c, 0, 66, 64
2, 171597, Note_on_c, 0, 80, 67
2, 171616, Note_off_c, 0, 72, 64
2, 171631, Note_on_c, 0, 63, 33
2, 171684, Control_c, 0, 64, 0
2, 171708, Note_off_c, 0, 63, 64
2, 171732, Control_c, 0, 64, 127
2, 171784, Note_on_c, 0, 66, 34
2, 171861, Note_off_c, 0, 80, 64
2, 171919, Note_off_c, 0, 66, 64
2, 172010, Note_on_c, 0, 56, 27
2, 172048, Note_on_c, 0, 80, 57
2, 172130, Control_c, 0, 64, 0
2, 172216, Note_on_c, 0, 65, 46
2, 172308, Note_off_c, 0, 65, 64
2, 172317, Control_c, 0, 64, 127
2, 172394, Note_on_c, 0, 61, 33
2, 172432, Note_off_c, 0, 56, 64
2, 172509, Note_off_c, 0, 61, 64
2, 172548, Note_on_c, 0, 77, 51
2, 172567, Note_off_c, 0, 80, 64
2, 172581, Note_on_c, 0, 65, 32
2, 172615, Note_off_c, 0, 77, 64
2, 172653, Note_off_c, 0, 65, 64
2, 172725, Note_on_c, 0, 73, 52
2, 172740, Note_on_c, 0, 56, 41
2, 172792, Control_c, 0, 64, 0
2, 172840, Note_off_c, 0, 56, 64
2, 172898, Control_c, 0, 64, 127
2, 172912, Note_on_c, 0, 65, 43
2, 172951, Note_off_c, 0, 73, 64
2, 172980, Note_off_c, 0, 65, 64
2, 173028, Note_on_c, 0, 61, 39
2, 173090, Note_off_c, 0, 61, 64
2, 173186, Note_on_c, 0, 65, 45
2, 173258, Note_off_c, 0, 65, 64
2, 173402, Note_on_c, 0, 72, 81
2, 173412, Note_on_c, 0, 56, 30
2, 173498, Control_c, 0, 64, 0
2, 173589, Note_on_c, 0, 66, 44
2, 173656, Note_off_c, 0, 66, 64
2, 173738, Note_on_c, 0, 63, 30
2, 173748, Note_off_c, 0, 56, 64
2, 173776, Control_c, 0, 64, 127
2, 173815, Note_off_c, 0, 63, 64
2, 173863, Note_on_c, 0, 66, 46
2, 173944, Note_off_c, 0, 66, 64
2, 174040, Note_on_c, 0, 56, 49
2, 174108, Note_off_c, 0, 56, 64
2, 174180, Note_on_c, 0, 80, 81
2, 174199, Note_on_c, 0, 66, 46
2, 174237, Note_off_c, 0, 72, 64
2, 174271, Note_off_c, 0, 66, 64
2, 174348, Note_on_c, 0, 82, 94
2, 174362, Note_off_c, 0, 80, 64
2, 174362, Note_on_c, 0, 63, 41
2, 174429, Note_off_c, 0, 63, 64
2, 174501, Note_on_c, 0, 80, 78
2, 174520, Note_on_c, 0, 66, 38
2, 174535, Note_off_c, 0, 82, 64
2, 174549, Note_off_c, 0, 80, 64
2, 174621, Note_off_c, 0, 66, 64
2, 174684, Control_c, 0, 64, 0
2, 174684, Note_on_c, 0, 56, 37
2, 174703, Note_on_c, 0, 80, 68
2, 174890, Note_on_c, 0, 65, 48
2, 174967, Note_off_c, 0, 65, 64
2, 175005, Control_c, 0, 64, 127
2, 175063, Note_on_c, 0, 61, 35
2, 175087, Note_off_c, 0, 56, 64
2, 175188, Note_off_c, 0, 61, 64
2, 175240, Note_off_c, 0, 80, 64
2, 175250, Note_on_c, 0, 65, 34
2, 175260, Note_on_c, 0, 77, 37
2, 175327, Note_off_c, 0, 65, 64
2, 175332, Note_off_c, 0, 77, 64
2, 175413, Note_on_c, 0, 73, 44
2, 175418, Control_c, 0, 64, 0
2, 175428, Note_on_c, 0, 56, 43
2, 175586, Control_c, 0, 64, 127
2, 175596, Note_off_c, 0, 73, 64
2, 175605, Note_on_c, 0, 65, 47
2, 175672, Note_off_c, 0, 65, 64
2, 175730, Note_off_c, 0, 56, 64
2, 175740, Note_on_c, 0, 73, 59
2, 175764, Note_on_c, 0, 61, 41
2, 175831, Note_off_c, 0, 61, 64
2, 175898, Note_on_c, 0, 65, 72
2, 175941, Note_off_c, 0, 65, 64
2, 176076, Note_on_c, 0, 66, 76
2, 176095, Control_c, 0, 64, 0
2, 176104, Note_on_c, 0, 63, 58
2, 176104, Note_on_c, 0, 57, 31
2, 176119, Note_on_c, 0, 60, 40
2, 176234, Note_on_c, 0, 71, 75
2, 176272, Note_off_c, 0, 73, 64
2, 176388, Note_on_c, 0, 72, 97
2, 176436, Note_off_c, 0, 71, 64
2, 176546, Note_on_c, 0, 74, 94
2, 176584, Note_off_c, 0, 72, 64
2, 176709, Note_off_c, 0, 74, 64
2, 176709, Note_on_c, 0, 77, 85
2, 176853, Note_on_c, 0, 75, 75
2, 176872, Note_off_c, 0, 77, 64
2, 177007, Note_on_c, 0, 74, 81
2, 177021, Note_off_c, 0, 75, 64
2, 177160, Note_off_c, 0, 74, 64
2, 177165, Note_on_c, 0, 72, 76
2, 177170, Note_off_c, 0, 66, 64
2, 177175, Note_off_c, 0, 57, 64
2, 177180, Note_off_c, 0, 60, 64
2, 177189, Note_off_c, 0, 63, 64
2, 177309, Note_off_c, 0, 72, 64
2, 177343, Note_on_c, 0, 79, 71
2, 177664, Control_c, 0, 64, 127
2, 177698, Note_on_c, 0, 55, 29
2, 177703, Note_on_c, 0, 59, 38
2, 177789, Note_off_c, 0, 79, 64
2, 177991, Note_off_c, 0, 59, 64
2, 178015, Control_c, 0, 64, 0
2, 178020, Note_off_c, 0, 55, 64
2, 178020, Note_on_c, 0, 56, 46
2, 178024, Note_on_c, 0, 60, 53
2, 178356, Note_off_c, 0, 60, 64
2, 178360, Note_on_c, 0, 72, 73
2, 178399, Note_off_c, 0, 56, 64
2, 178399, Note_off_c, 0, 72, 64
2, 178485, Note_on_c, 0, 72, 65
2, 178639, Note_off_c, 0, 72, 64
2, 178696, Note_on_c, 0, 79, 56
2, 179056, Note_on_c, 0, 55, 30
2, 179056, Note_on_c, 0, 59, 36
2, 179349, Note_off_c, 0, 79, 64
2, 179349, Note_off_c, 0, 59, 64
2, 179364, Note_off_c, 0, 55, 64
2, 179397, Note_on_c, 0, 56, 35
2, 179416, Note_on_c, 0, 60, 43
2, 179695, Note_off_c, 0, 60, 64
2, 179714, Note_off_c, 0, 56, 64
2, 179728, Note_on_c, 0, 72, 65
2, 179776, Note_off_c, 0, 72, 64
2, 179877, Note_on_c, 0, 72, 58
2, 179954, Note_off_c, 0, 72, 64
2, 180050, Note_on_c, 0, 79, 74
2, 180064, Note_on_c, 0, 59, 42
2, 180084, Note_on_c, 0, 55, 35
2, 180276, Control_c, 0, 64, 127
2, 180314, Note_off_c, 0, 79, 64
2, 180324, Note_off_c, 0, 59, 64
2, 180348, Note_off_c, 0, 55, 64
2, 180381, Control_c, 0, 64, 0
2, 180386, Note_on_c, 0, 60, 53
2, 180391, Note_on_c, 0, 72, 76
2, 180400, Note_on_c, 0, 56, 38
2, 180434, Note_off_c, 0, 72, 64
2, 180535, Note_on_c, 0, 72, 68
2, 180621, Note_off_c, 0, 72, 64
2, 180684, Note_off_c, 0, 56, 64
2, 180684, Note_off_c, 0, 60, 64
2, 180698, Note_on_c, 0, 55, 55
2, 180703, Note_on_c, 0, 79, 84
2, 180712, Note_on_c, 0, 59, 45
2, 180914, Note_off_c, 0, 79, 64
2, 181000, Note_off_c, 0, 59, 64
2, 181010, Note_off_c, 0, 55, 64
2, 181010, Note_on_c, 0, 72, 78
2, 181024, Note_on_c, 0, 60, 53
2, 181029, Note_on_c, 0, 56, 48
2, 181053, Note_off_c, 0, 72, 64
2, 181149, Note_on_c, 0, 72, 62
2, 181274, Note_off_c, 0, 56, 64
2, 181274, Note_off_c, 0, 72, 64
2, 181293, Note_off_c, 0, 60, 64
2, 181341, Note_on_c, 0, 55, 32
2, 181356, Note_on_c, 0, 79, 54
2, 181375, Note_on_c, 0, 59, 29
2, 181519, Control_c, 0, 64, 127
2, 181581, Note_off_c, 0, 79, 64
2, 181706, Control_c, 0, 64, 0
2, 181706, Note_on_c, 0, 79, 46
2, 181768, Note_off_c, 0, 55, 64
2, 181802, Note_off_c, 0, 59, 64
2, 181840, Control_c, 0, 64, 127
2, 181903, Note_off_c, 0, 79, 64
2, 182047, Note_on_c, 0, 79, 65
2, 182056, Control_c, 0, 64, 0
2, 182210, Control_c, 0, 64, 127
2, 182234, Note_off_c, 0, 79, 64
2, 182407, Note_on_c, 0, 79, 84
2, 182426, Control_c, 0, 64, 0
2, 182599, Note_off_c, 0, 79, 64
2, 182623, Control_c, 0, 64, 127
2, 182767, Note_on_c, 0, 79, 78
2, 182844, Control_c, 0, 64, 0
2, 182935, Note_on_c, 0, 78, 72
2, 182954, Note_off_c, 0, 79, 64
2, 183103, Note_on_c, 0, 77, 79
2, 183108, Note_off_c, 0, 78, 64
2, 183208, Control_c, 0, 64, 127
2, 183237, Control_c, 0, 64, 0
2, 183261, Note_on_c, 0, 74, 71
2, 183276, Note_off_c, 0, 77, 64
2, 183420, Note_off_c, 0, 74, 64
2, 183448, Note_on_c, 0, 79, 58
2, 183631, Note_off_c, 0, 79, 64
2, 183631, Note_on_c, 0, 78, 52
2, 183732, Control_c, 0, 64, 127
2, 183813, Note_off_c, 0, 78, 64
2, 183823, Note_on_c, 0, 77, 54
2, 183928, Note_off_c, 0, 77, 64
2, 183933, Control_c, 0, 64, 0
2, 184000, Note_on_c, 0, 74, 49
2, 184068, Control_c, 0, 64, 127
2, 184255, Note_on_c, 0, 72, 61
2, 184260, Note_off_c, 0, 74, 64
2, 184269, Note_on_c, 0, 63, 23
2, 184485, Note_off_c, 0, 63, 64
2, 184490, Note_on_c, 0, 67, 43
2, 184562, Note_off_c, 0, 67, 64
2, 184648, Note_on_c, 0, 63, 26
2, 184792, Note_off_c, 0, 72, 64
2, 184821, Note_on_c, 0, 67, 47
2, 184826, Note_on_c, 0, 74, 66
2, 184845, Note_off_c, 0, 63, 64
2, 184879, Note_off_c, 0, 74, 64
2, 184884, Note_on_c, 0, 72, 66
2, 184888, Note_off_c, 0, 67, 64
2, 184975, Control_c, 0, 64, 0
2, 184989, Note_on_c, 0, 71, 66
2, 184994, Note_off_c, 0, 72, 64
2, 185018, Note_on_c, 0, 62, 23
2, 185114, Control_c, 0, 64, 127
2, 185152, Note_off_c, 0, 71, 64
2, 185176, Note_on_c, 0, 67, 55
2, 185244, Note_off_c, 0, 67, 64
2, 185248, Note_off_c, 0, 62, 64
2, 185325, Note_on_c, 0, 72, 89
2, 185364, Note_on_c, 0, 63, 39
2, 185392, Control_c, 0, 64, 0
2, 185464, Note_off_c, 0, 63, 64
2, 185484, Control_c, 0, 64, 127
2, 185517, Note_on_c, 0, 67, 59
2, 185522, Note_off_c, 0, 72, 64
2, 185580, Note_off_c, 0, 67, 64
2, 185680, Control_c, 0, 64, 0
2, 185680, Note_on_c, 0, 73, 75
2, 185719, Note_on_c, 0, 64, 49
2, 185848, Note_off_c, 0, 64, 64
2, 185882, Control_c, 0, 64, 127
2, 185887, Note_on_c, 0, 67, 47
2, 185959, Note_off_c, 0, 67, 64
2, 186064, Note_on_c, 0, 64, 41
2, 186136, Note_off_c, 0, 64, 64
2, 186237, Note_on_c, 0, 67, 39
2, 186343, Note_off_c, 0, 67, 64
2, 186400, Note_on_c, 0, 74, 50
2, 186405, Control_c, 0, 64, 0
2, 186434, Note_off_c, 0, 73, 64
2, 186448, Note_on_c, 0, 65, 38
2, 186549, Note_off_c, 0, 65, 64
2, 186588, Control_c, 0, 64, 127
2, 186621, Note_on_c, 0, 67, 37
2, 186640, Note_off_c, 0, 74, 64
2, 186693, Note_off_c, 0, 67, 64
2, 186804, Note_on_c, 0, 65, 20
2, 186904, Note_off_c, 0, 65, 64
2, 186948, Note_on_c, 0, 67, 31
2, 187029, Note_off_c, 0, 67, 64
2, 187149, Note_on_c, 0, 53, 54
2, 187149, Note_on_c, 0, 62, 33
2, 187255, Note_off_c, 0, 62, 64
2, 187332, Note_on_c, 0, 67, 41
2, 187418, Note_off_c, 0, 67, 64
2, 187519, Note_on_c, 0, 62, 41
2, 187600, Note_off_c, 0, 62, 64
2, 187658, Note_off_c, 0, 53, 64
2, 187668, Note_on_c, 0, 52, 65
2, 187677, Note_on_c, 0, 67, 41
2, 187730, Note_off_c, 0, 52, 64
2, 187744, Note_on_c, 0, 53, 52
2, 187768, Note_off_c, 0, 67, 64
2, 187855, Note_off_c, 0, 53, 64
2, 187864, Note_on_c, 0, 55, 66
2, 187874, Note_on_c, 0, 62, 41
2, 187908, Control_c, 0, 64, 0
2, 188028, Note_on_c, 0, 53, 70
2, 188047, Note_on_c, 0, 67, 44
2, 188052, Note_off_c, 0, 55, 64
2, 188080, Control_c, 0, 64, 127
2, 188128, Note_off_c, 0, 67, 64
2, 188181, Note_off_c, 0, 62, 64
2, 188191, Note_on_c, 0, 51, 69
2, 188196, Note_on_c, 0, 63, 46
2, 188210, Note_off_c, 0, 53, 64
2, 188220, Control_c, 0, 64, 0
2, 188354, Note_on_c, 0, 50, 76
2, 188359, Control_c, 0, 64, 127
2, 188368, Note_on_c, 0, 67, 41
2, 188378, Note_off_c, 0, 51, 64
2, 188440, Note_off_c, 0, 67, 64
2, 188556, Control_c, 0, 64, 0
2, 188560, Note_on_c, 0, 48, 71
2, 188575, Note_off_c, 0, 50, 64
2, 188604, Note_off_c, 0, 63, 64
2, 188604, Note_on_c, 0, 65, 27
2, 188757, Note_on_c, 0, 67, 46
2, 188839, Note_off_c, 0, 67, 64
2, 188954, Note_on_c, 0, 62, 30
2, 188964, Note_off_c, 0, 65, 64
2, 189079, Control_c, 0, 64, 127
2, 189146, Note_on_c, 0, 67, 43
2, 189156, Note_off_c, 0, 62, 64
2, 189223, Note_off_c, 0, 67, 64
2, 189328, Note_on_c, 0, 47, 46
2, 189357, Control_c, 0, 64, 0
2, 189357, Note_on_c, 0, 65, 36
2, 189367, Note_off_c, 0, 48, 64
2, 189487, Note_off_c, 0, 65, 64
2, 189520, Note_on_c, 0, 67, 37
2, 189592, Note_off_c, 0, 67, 64
2, 189597, Note_off_c, 0, 47, 64
2, 189602, Control_c, 0, 64, 127
2, 189693, Note_on_c, 0, 62, 32
2, 189784, Note_off_c, 0, 62, 64
2, 189856, Note_on_c, 0, 67, 36
2, 189952, Note_off_c, 0, 67, 64
2, 190053, Note_on_c, 0, 74, 76
2, 190063, Control_c, 0, 64, 0
2, 190082, Note_on_c, 0, 59, 35
2, 190250, Note_on_c, 0, 67, 55
2, 190260, Control_c, 0, 64, 127
2, 190269, Note_off_c, 0, 59, 64
2, 190370, Note_off_c, 0, 67, 64
2, 190413, Note_on_c, 0, 59, 42
2, 190509, Note_off_c, 0, 74, 64
2, 190533, Note_on_c, 0, 75, 70
2, 190576, Note_on_c, 0, 67, 42
2, 190586, Note_on_c, 0, 74, 84
2, 190591, Note_off_c, 0, 59, 64
2, 190620, Note_off_c, 0, 75, 64
2, 190624, Note_off_c, 0, 74, 64
2, 190653, Note_on_c, 0, 72, 87
2, 190725, Note_on_c, 0, 74, 79
2, 190740, Note_off_c, 0, 67, 64
2, 190744, Note_off_c, 0, 72, 64
2, 190831, Control_c, 0, 64, 0
2, 190831, Note_on_c, 0, 60, 49
2, 190845, Note_on_c, 0, 75, 83
2, 190869, Note_off_c, 0, 74, 64
2, 190999, Note_on_c, 0, 67, 61
2, 191018, Note_off_c, 0, 60, 64
2, 191032, Note_off_c, 0, 75, 64
2, 191042, Control_c, 0, 64, 127
2, 191133, Note_off_c, 0, 67, 64
2, 191181, Note_on_c, 0, 77, 94
2, 191200, Note_on_c, 0, 62, 46
2, 191215, Control_c, 0, 64, 0
2, 191292, Note_off_c, 0, 62, 64
2, 191354, Control_c, 0, 64, 127
2, 191364, Note_on_c, 0, 67, 56
2, 191402, Note_off_c, 0, 77, 64
2, 191445, Note_off_c, 0, 67, 64
2, 191546, Note_on_c, 0, 78, 73
2, 191565, Control_c, 0, 64, 0
2, 191584, Note_on_c, 0, 62, 38
2, 191719, Note_off_c, 0, 62, 64
2, 191752, Control_c, 0, 64, 127
2, 191767, Note_on_c, 0, 67, 41
2, 191853, Note_off_c, 0, 67, 64
2, 191983, Note_on_c, 0, 62, 27
2, 192069, Note_off_c, 0, 62, 64
2, 192151, Note_on_c, 0, 67, 41
2, 192228, Note_off_c, 0, 67, 64
2, 192295, Note_on_c, 0, 79, 50
2, 192304, Control_c, 0, 64, 0
2, 192314, Note_off_c, 0, 78, 64
2, 192338, Note_on_c, 0, 63, 27
2, 192429, Note_off_c, 0, 63, 64
2, 192458, Control_c, 0, 64, 127
2, 192516, Note_off_c, 0, 79, 64
2, 192516, Note_on_c, 0, 67, 36
2, 192602, Note_off_c, 0, 67, 64
2, 192684, Note_on_c, 0, 63, 31
2, 192760, Note_off_c, 0, 63, 64
2, 192876, Note_on_c, 0, 67, 25
2, 192948, Note_off_c, 0, 67, 64
2, 193005, Note_on_c, 0, 63, 44
2, 193015, Note_on_c, 0, 55, 55
2, 193202, Note_on_c, 0, 67, 32
2, 193212, Control_c, 0, 64, 0
2, 193284, Note_off_c, 0, 67, 64
2, 193336, Note_off_c, 0, 63, 64
2, 193351, Control_c, 0, 64, 127
2, 193356, Note_on_c, 0, 60, 48
2, 193461, Note_off_c, 0, 60, 64
2, 193490, Note_off_c, 0, 55, 64
2, 193519, Note_on_c, 0, 54, 66
2, 193548, Note_on_c, 0, 67, 37
2, 193591, Note_off_c, 0, 54, 64
2, 193610, Note_on_c, 0, 55, 42
2, 193653, Note_off_c, 0, 67, 64
2, 193672, Control_c, 0, 64, 0
2, 193701, Note_on_c, 0, 56, 78
2, 193711, Note_off_c, 0, 55, 64
2, 193735, Note_on_c, 0, 63, 53
2, 193879, Note_on_c, 0, 55, 80
2, 193888, Control_c, 0, 64, 127
2, 193898, Note_off_c, 0, 56, 64
2, 193903, Note_on_c, 0, 67, 50
2, 193984, Note_off_c, 0, 67, 64
2, 194032, Note_off_c, 0, 55, 64
2, 194052, Note_on_c, 0, 53, 77
2, 194066, Note_on_c, 0, 60, 52
2, 194071, Control_c, 0, 64, 0
2, 194138, Control_c, 0, 64, 127
2, 194186, Note_off_c, 0, 63, 64
2, 194205, Note_on_c, 0, 51, 79
2, 194239, Note_on_c, 0, 67, 43
2, 194244, Note_off_c, 0, 53, 64
2, 194344, Note_off_c, 0, 67, 64
2, 194344, Note_off_c, 0, 60, 64
2, 194349, Control_c, 0, 64, 0
2, 194397, Note_on_c, 0, 50, 80
2, 194431, Note_on_c, 0, 65, 47
2, 194440, Note_off_c, 0, 51, 64
2, 194599, Note_on_c, 0, 67, 47
2, 194618, Note_on_c, 0, 48, 30
2, 194628, Control_c, 0, 64, 127
2, 194666, Note_off_c, 0, 67, 64
2, 194671, Note_off_c, 0, 48, 64
2, 194781, Note_on_c, 0, 62, 40
2, 194805, Note_off_c, 0, 65, 64
2, 194810, Control_c, 0, 64, 0
2, 194944, Note_on_c, 0, 67, 44
2, 195021, Note_off_c, 0, 62, 64
2, 195055, Note_off_c, 0, 67, 64
2, 195146, Note_on_c, 0, 48, 71
2, 195156, Note_on_c, 0, 63, 34
2, 195160, Note_off_c, 0, 50, 64
2, 195338, Note_on_c, 0, 67, 44
2, 195376, Control_c, 0, 64, 127
2, 195396, Note_off_c, 0, 48, 64
2, 195405, Note_off_c, 0, 67, 64
2, 195516, Note_on_c, 0, 60, 45
2, 195559, Note_off_c, 0, 63, 64
2, 195592, Note_off_c, 0, 60, 64
2, 195703, Note_on_c, 0, 67, 45
2, 195818, Note_off_c, 0, 67, 64
2, 195900, Note_on_c, 0, 84, 120
2, 195904, Note_on_c, 0, 72, 119
2, 195924, Note_on_c, 0, 63, 70
2, 195924, Note_on_c, 0, 60, 67
2, 195948, Control_c, 0, 64, 0
2, 196068, Control_c, 0, 64, 127
2, 196077, Note_on_c, 0, 67, 79
2, 196082, Note_off_c, 0, 63, 64
2, 196092, Note_off_c, 0, 60, 64
2, 196250, Note_on_c, 0, 63, 69
2, 196250, Note_on_c, 0, 60, 88
2, 196264, Note_off_c, 0, 67, 64
2, 196351, Note_off_c, 0, 72, 64
2, 196423, Note_on_c, 0, 67, 89
2, 196461, Note_off_c, 0, 63, 64
2, 196557, Note_off_c, 0, 60, 64
2, 196567, Note_off_c, 0, 67, 64
2, 196586, Note_on_c, 0, 73, 105
2, 196591, Note_on_c, 0, 85, 108
2, 196596, Note_on_c, 0, 64, 98
2, 196600, Note_on_c, 0, 58, 98
2, 196653, Note_off_c, 0, 84, 64
2, 196716, Control_c, 0, 64, 0
2, 196773, Note_on_c, 0, 67, 88
2, 196821, Note_off_c, 0, 64, 64
2, 196831, Note_off_c, 0, 58, 64
2, 196836, Control_c, 0, 64, 127
2, 196908, Note_off_c, 0, 67, 64
2, 196932, Note_on_c, 0, 64, 80
2, 196936, Note_on_c, 0, 58, 78
2, 197100, Note_on_c, 0, 67, 97
2, 197104, Note_off_c, 0, 64, 64
2, 197186, Note_off_c, 0, 85, 64
2, 197191, Note_off_c, 0, 58, 64
2, 197191, Note_off_c, 0, 73, 64
2, 197200, Note_off_c, 0, 67, 64
2, 197292, Note_on_c, 0, 57, 92
2, 197292, Note_on_c, 0, 60, 93
2, 197292, Note_on_c, 0, 72, 115
2, 197292, Note_on_c, 0, 84, 119
2, 197330, Control_c, 0, 64, 0
2, 197479, Note_on_c, 0, 65, 83
2, 197498, Control_c, 0, 64, 127
2, 197508, Note_off_c, 0, 60, 64
2, 197560, Note_off_c, 0, 72, 64
2, 197599, Note_off_c, 0, 57, 64
2, 197599, Note_off_c, 0, 65, 64
2, 197613, Note_off_c, 0, 84, 64
2, 197748, Note_on_c, 0, 87, 111
2, 197752, Note_on_c, 0, 66, 95
2, 197752, Note_on_c, 0, 75, 99
2, 197762, Note_on_c, 0, 56, 87
2, 197772, Note_on_c, 0, 60, 71
2, 197973, Control_c, 0, 64, 0
2, 198180, Note_off_c, 0, 66, 64
2, 198208, Note_off_c, 0, 60, 64
2, 198218, Note_off_c, 0, 75, 64
2, 198232, Note_off_c, 0, 56, 64
2, 198242, Note_off_c, 0, 87, 64
2, 198333, Note_on_c, 0, 87, 26
2, 198396, Note_off_c, 0, 87, 64
2, 198477, Note_on_c, 0, 87, 73
2, 198660, Note_on_c, 0, 86, 87
2, 198679, Note_off_c, 0, 87, 64
2, 198828, Note_on_c, 0, 84, 93
2, 198837, Note_off_c, 0, 86, 64
2, 198996, Note_on_c, 0, 83, 79
2, 199005, Note_off_c, 0, 84, 64
2, 199154, Note_off_c, 0, 83, 64
2, 199168, Note_on_c, 0, 86, 79
2, 199202, Control_c, 0, 64, 127
2, 199308, Note_off_c, 0, 86, 64
2, 199365, Note_on_c, 0, 59, 27
2, 199375, Note_on_c, 0, 55, 28
2, 199399, Note_on_c, 0, 77, 31
2, 199528, Note_off_c, 0, 59, 64
2, 199610, Note_off_c, 0, 55, 64
2, 199668, Control_c, 0, 64, 0
2, 199720, Note_on_c, 0, 62, 42
2, 199754, Note_on_c, 0, 59, 40
2, 199807, Note_off_c, 0, 77, 64
2, 199879, Control_c, 0, 64, 127
2, 199908, Note_on_c, 0, 80, 75
2, 199999, Note_off_c, 0, 62, 64
2, 200008, Note_off_c, 0, 59, 64
2, 200018, Control_c, 0, 64, 0
2, 200066, Note_on_c, 0, 79, 84
2, 200090, Note_off_c, 0, 80, 64
2, 200215, Note_off_c, 0, 79, 64
2, 200229, Note_on_c, 0, 77, 89
2, 200412, Note_on_c, 0, 76, 88
2, 200421, Note_off_c, 0, 77, 64
2, 200527, Control_c, 0, 64, 127
2, 200604, Note_on_c, 0, 79, 69
2, 200613, Note_off_c, 0, 76, 64
2, 200767, Note_off_c, 0, 79, 64
2, 200772, Control_c, 0, 64, 0
2, 200776, Note_on_c, 0, 70, 63
2, 200776, Note_on_c, 0, 48, 40
2, 200800, Note_on_c, 0, 52, 35
2, 200901, Note_off_c, 0, 52, 64
2, 200940, Control_c, 0, 64, 127
2, 201093, Note_off_c, 0, 70, 64
2, 201132, Note_on_c, 0, 55, 61
2, 201132, Note_on_c, 0, 52, 60
2, 201136, Note_off_c, 0, 48, 64
2, 201232, Control_c, 0, 64, 0
2, 201309, Note_on_c, 0, 73, 72
2, 201434, Note_off_c, 0, 55, 64
2, 201463, Note_off_c, 0, 52, 64
2, 201482, Note_on_c, 0, 72, 92
2, 201516, Note_off_c, 0, 73, 64
2, 201645, Note_on_c, 0, 70, 91
2, 201664, Note_off_c, 0, 72, 64
2, 201832, Note_on_c, 0, 68, 73
2, 201832, Note_on_c, 0, 53, 43
2, 201842, Note_off_c, 0, 70, 64
2, 201976, Note_off_c, 0, 68, 64
2, 201991, Note_on_c, 0, 80, 82
2, 202000, Control_c, 0, 64, 127
2, 202063, Control_c, 0, 64, 0
2, 202164, Note_on_c, 0, 79, 89
2, 202192, Note_off_c, 0, 80, 64
2, 202322, Control_c, 0, 64, 127
2, 202336, Note_on_c, 0, 77, 88
2, 202360, Note_off_c, 0, 79, 64
2, 202399, Note_off_c, 0, 53, 64
2, 202399, Control_c, 0, 64, 0
2, 202500, Note_on_c, 0, 75, 75
2, 202524, Note_off_c, 0, 77, 64
2, 202672, Note_on_c, 0, 74, 76
2, 202682, Note_off_c, 0, 75, 64
2, 202855, Note_on_c, 0, 75, 62
2, 202879, Note_off_c, 0, 74, 64
2, 203047, Note_on_c, 0, 77, 60
2, 203052, Note_off_c, 0, 75, 64
2, 203061, Control_c, 0, 64, 127
2, 203287, Note_on_c, 0, 72, 67
2, 203306, Note_off_c, 0, 77, 64
2, 203311, Note_on_c, 0, 55, 33
2, 203335, Control_c, 0, 64, 0
2, 203570, Control_c, 0, 64, 127
2, 203661, Note_on_c, 0, 67, 59
2, 203661, Note_on_c, 0, 63, 53
2, 203757, Note_off_c, 0, 63, 64
2, 203892, Note_off_c, 0, 67, 64
2, 204093, Note_on_c, 0, 65, 42
2, 204106, Note_on_c, 0, 62, 32
2, 204199, Control_c, 0, 64, 0
2, 204396, Control_c, 0, 64, 127
2, 204399, Note_off_c, 0, 62, 64
2, 204444, Note_off_c, 0, 72, 64
2, 204448, Note_off_c, 0, 65, 64
2, 204463, Note_on_c, 0, 75, 46
2, 204477, Note_on_c, 0, 71, 24
2, 204516, Note_off_c, 0, 55, 64
2, 204568, Note_off_c, 0, 71, 64
2, 204621, Note_off_c, 0, 75, 64
2, 204698, Note_on_c, 0, 74, 50
2, 204746, Note_off_c, 0, 74, 64
2, 204928, Note_on_c, 0, 72, 73
2, 204928, Note_on_c, 0, 60, 68
2, 204957, Note_on_c, 0, 51, 40
2, 204962, Note_on_c, 0, 48, 40
2, 205130, Note_off_c, 0, 51, 64
2, 205140, Note_off_c, 0, 48, 64
2, 205159, Note_on_c, 0, 55, 55
2, 205250, Note_off_c, 0, 55, 64
2, 205317, Note_on_c, 0, 48, 74
2, 205322, Note_on_c, 0, 51, 53
2, 205423, Note_off_c, 0, 60, 64
2, 205471, Note_off_c, 0, 51, 64
2, 205485, Note_on_c, 0, 55, 68
2, 205490, Note_off_c, 0, 48, 64
2, 205629, Note_off_c, 0, 55, 64
2, 205653, Note_on_c, 0, 52, 80
2, 205668, Note_on_c, 0, 61, 86
2, 205668, Note_on_c, 0, 46, 79
2, 205677, Note_on_c, 0, 73, 88
2, 205701, Control_c, 0, 64, 0
2, 205725, Note_off_c, 0, 72, 64
2, 205855, Note_on_c, 0, 55, 83
2, 205860, Note_off_c, 0, 52, 64
2, 205888, Note_off_c, 0, 46, 64
2, 205888, Control_c, 0, 64, 127
2, 205975, Note_off_c, 0, 55, 64
2, 206028, Note_on_c, 0, 52, 90
2, 206037, Note_on_c, 0, 46, 88
2, 206143, Note_off_c, 0, 52, 64
2, 206186, Note_on_c, 0, 55, 89
2, 206239, Note_off_c, 0, 46, 64
2, 206248, Note_off_c, 0, 61, 64
2, 206263, Note_off_c, 0, 73, 64
2, 206301, Note_off_c, 0, 55, 64
2, 206364, Control_c, 0, 64, 0
2, 206368, Note_on_c, 0, 45, 87
2, 206378, Note_on_c, 0, 48, 94
2, 206378, Note_on_c, 0, 72, 110
2, 206378, Note_on_c, 0, 60, 95
2, 206570, Note_on_c, 0, 53, 76
2, 206574, Note_off_c, 0, 45, 64
2, 206594, Control_c, 0, 64, 127
2, 206637, Note_off_c, 0, 60, 64
2, 206642, Note_off_c, 0, 48, 64
2, 206661, Note_off_c, 0, 53, 64
2, 206690, Note_off_c, 0, 72, 64
2, 206839, Note_on_c, 0, 75, 100
2, 206843, Note_on_c, 0, 44, 65
2, 206844, Note_on_c, 0, 63, 88
2, 206848, Note_on_c, 0, 54, 77
2, 206852, Note_on_c, 0, 48, 69
2, 206901, Control_c, 0, 64, 0
2, 207356, Note_off_c, 0, 48, 64
2, 207362, Note_off_c, 0, 63, 64
2, 207372, Note_off_c, 0, 54, 64
2, 207409, Note_off_c, 0, 44, 64
2, 207410, Note_off_c, 0, 75, 64
2, 207650, Note_on_c, 0, 75, 62
2, 207837, Note_on_c, 0, 74, 73
2, 207852, Note_off_c, 0, 75, 64
2, 207996, Note_on_c, 0, 72, 76
2, 208005, Note_off_c, 0, 74, 64
2, 208024, Control_c, 0, 64, 127
2, 208159, Note_off_c, 0, 72, 64
2, 208178, Note_on_c, 0, 71, 64
2, 208341, Note_off_c, 0, 71, 64
2, 208360, Note_on_c, 0, 74, 66
2, 208548, Control_c, 0, 64, 0
2, 208548, Note_on_c, 0, 65, 67
2, 208548, Note_on_c, 0, 43, 44
2, 208557, Note_on_c, 0, 47, 40
2, 208572, Note_off_c, 0, 74, 64
2, 208744, Note_off_c, 0, 47, 64
2, 208744, Control_c, 0, 64, 127
2, 208917, Note_off_c, 0, 65, 64
2, 208917, Note_on_c, 0, 50, 64
2, 208932, Note_on_c, 0, 47, 59
2, 208965, Note_off_c, 0, 43, 64
2, 209008, Control_c, 0, 64, 0
2, 209085, Note_on_c, 0, 68, 72
2, 209224, Note_off_c, 0, 50, 64
2, 209248, Note_on_c, 0, 67, 83
2, 209253, Note_off_c, 0, 47, 64
2, 209277, Note_off_c, 0, 68, 64
2, 209412, Note_on_c, 0, 65, 83
2, 209436, Note_off_c, 0, 67, 64
2, 209599, Note_on_c, 0, 64, 83
2, 209637, Note_off_c, 0, 65, 64
2, 209796, Note_on_c, 0, 67, 71
2, 209824, Note_off_c, 0, 64, 64
2, 209988, Note_on_c, 0, 40, 57
2, 209988, Note_on_c, 0, 36, 59
2, 209988, Note_on_c, 0, 58, 68
2, 210026, Note_off_c, 0, 67, 64
2, 210165, Note_off_c, 0, 40, 64
2, 210237, Control_c, 0, 64, 127
2, 210396, Note_on_c, 0, 43, 56
2, 210400, Note_on_c, 0, 40, 63
2, 210410, Note_off_c, 0, 36, 64
2, 210420, Note_off_c, 0, 58, 64
2, 210482, Control_c, 0, 64, 0
2, 210588, Note_on_c, 0, 61, 71
2, 210741, Note_off_c, 0, 43, 64
2, 210760, Note_off_c, 0, 40, 64
2, 210784, Note_off_c, 0, 61, 64
2, 210789, Note_on_c, 0, 60, 77
2, 210957, Note_off_c, 0, 60, 64
2, 210957, Note_on_c, 0, 58, 89
2, 211149, Note_on_c, 0, 56, 103
2, 211159, Note_on_c, 0, 41, 105
2, 211164, Note_on_c, 0, 29, 106
2, 211168, Note_off_c, 0, 58, 64
2, 211269, Note_on_c, 0, 60, 92
2, 211312, Note_off_c, 0, 56, 64
2, 211375, Note_on_c, 0, 52, 94
2, 211404, Note_off_c, 0, 60, 64
2, 211495, Note_off_c, 0, 52, 64
2, 211500, Note_on_c, 0, 53, 97
2, 211572, Control_c, 0, 64, 127
2, 211629, Note_on_c, 0, 56, 95
2, 211648, Note_off_c, 0, 53, 64
2, 211730, Note_off_c, 0, 56, 64
2, 211749, Note_on_c, 0, 47, 79
2, 211860, Note_on_c, 0, 48, 101
2, 211864, Note_off_c, 0, 47, 64
2, 211932, Note_off_c, 0, 41, 64
2, 211975, Note_on_c, 0, 53, 79
2, 211984, Note_off_c, 0, 48, 64
2, 212066, Note_off_c, 0, 53, 64
2, 212071, Note_on_c, 0, 43, 96
2, 212186, Note_on_c, 0, 44, 90
2, 212224, Note_off_c, 0, 43, 64
2, 212292, Note_on_c, 0, 48, 94
2, 212335, Note_off_c, 0, 44, 64
2, 212388, Control_c, 0, 64, 0
2, 212392, Note_on_c, 0, 40, 92
2, 212421, Note_off_c, 0, 48, 64
2, 212488, Note_off_c, 0, 29, 64
2, 212493, Note_off_c, 0, 40, 64
2, 212508, Note_on_c, 0, 41, 95
2, 212604, Control_c, 0, 64, 127
2, 212618, Note_on_c, 0, 36, 95
2, 212647, Note_off_c, 0, 41, 64
2, 212714, Note_off_c, 0, 36, 64
2, 212724, Note_on_c, 0, 41, 72
2, 212786, Control_c, 0, 64, 0
2, 212853, Note_on_c, 0, 44, 76
2, 212863, Note_off_c, 0, 41, 64
2, 212925, Control_c, 0, 64, 127
2, 212935, Note_on_c, 0, 41, 85
2, 212949, Note_off_c, 0, 44, 64
2, 213045, Note_on_c, 0, 44, 72
2, 213093, Note_off_c, 0, 41, 64
2, 213156, Control_c, 0, 64, 0
2, 213165, Note_on_c, 0, 48, 90
2, 213184, Note_off_c, 0, 44, 64
2, 213261, Note_on_c, 0, 44, 75
2, 213300, Note_off_c, 0, 48, 64
2, 213324, Control_c, 0, 64, 127
2, 213372, Note_on_c, 0, 48, 90
2, 213400, Control_c, 0, 64, 0
2, 213405, Note_off_c, 0, 44, 64
2, 213477, Control_c, 0, 64, 127
2, 213487, Note_on_c, 0, 53, 94
2, 213506, Note_off_c, 0, 48, 64
2, 213559, Note_off_c, 0, 53, 64
2, 213588, Note_on_c, 0, 48, 87
2, 213708, Note_on_c, 0, 53, 87
2, 213717, Note_off_c, 0, 48, 64
2, 213722, Control_c, 0, 64, 0
2, 213813, Note_on_c, 0, 56, 90
2, 213837, Note_off_c, 0, 53, 64
2, 213861, Control_c, 0, 64, 127
2, 213904, Note_on_c, 0, 53, 84
2, 213909, Note_off_c, 0, 56, 64
2, 213986, Control_c, 0, 64, 0
2, 214000, Note_on_c, 0, 56, 71
2, 214068, Note_off_c, 0, 53, 64
2, 214106, Control_c, 0, 64, 127
2, 214130, Note_off_c, 0, 56, 64
2, 214130, Note_on_c, 0, 60, 58
2, 214212, Note_off_c, 0, 60, 64
2, 214216, Control_c, 0, 64, 0
2, 214221, Note_on_c, 0, 56, 75
2, 214303, Note_on_c, 0, 60, 69
2, 214336, Note_off_c, 0, 56, 64
2, 214356, Control_c, 0, 64, 127
2, 214423, Note_on_c, 0, 65, 94
2, 214432, Note_off_c, 0, 60, 64
2, 214432, Control_c, 0, 64, 0
2, 214476, Note_off_c, 0, 65, 64
2, 214509, Note_on_c, 0, 60, 76
2, 214572, Control_c, 0, 64, 127
2, 214624, Note_on_c, 0, 65, 95
2, 214629, Control_c, 0, 64, 0
2, 214648, Note_off_c, 0, 60, 64
2, 214735, Note_on_c, 0, 68, 90
2, 214744, Note_off_c, 0, 65, 64
2, 214826, Note_on_c, 0, 65, 88
2, 214840, Note_off_c, 0, 68, 64
2, 214917, Note_on_c, 0, 68, 80
2, 214980, Note_off_c, 0, 65, 64
2, 215032, Note_on_c, 0, 72, 98
2, 215047, Note_off_c, 0, 68, 64
2, 215138, Note_on_c, 0, 68, 81
2, 215162, Note_off_c, 0, 72, 64
2, 215229, Note_on_c, 0, 72, 90
2, 215272, Note_off_c, 0, 68, 64
2, 215340, Note_on_c, 0, 77, 100
2, 215359, Note_off_c, 0, 72, 64
2, 215412, Note_off_c, 0, 77, 64
2, 215440, Note_on_c, 0, 72, 94
2, 215445, Control_c, 0, 64, 127
2, 215522, Control_c, 0, 64, 0
2, 215556, Note_on_c, 0, 77, 100
2, 215584, Note_off_c, 0, 72, 64
2, 215656, Note_on_c, 0, 80, 94
2, 215671, Note_off_c, 0, 77, 64
2, 215676, Control_c, 0, 64, 127
2, 215704, Control_c, 0, 64, 0
2, 215752, Note_on_c, 0, 77, 95
2, 215781, Note_off_c, 0, 80, 64
2, 215863, Note_on_c, 0, 80, 85
2, 215892, Note_off_c, 0, 77, 64
2, 216007, Note_on_c, 0, 84, 92
2, 216012, Note_off_c, 0, 80, 64
2, 216165, Control_c, 0, 64, 127
2, 216175, Note_on_c, 0, 79, 92
2, 216213, Control_c, 0, 64, 0
2, 216223, Note_off_c, 0, 84, 64
2, 216362, Note_on_c, 0, 80, 83
2, 216367, Control_c, 0, 64, 127
2, 216381, Note_off_c, 0, 79, 64
2, 216410, Control_c, 0, 64, 0
2, 216535, Note_off_c, 0, 80, 64
2, 216540, Note_on_c, 0, 76, 86
2, 216583, Control_c, 0, 64, 127
2, 216660, Control_c, 0, 64, 0
2, 216722, Note_on_c, 0, 77, 82
2, 216751, Note_off_c, 0, 76, 64
2, 216895, Note_on_c, 0, 73, 68
2, 216909, Note_off_c, 0, 77, 64
2, 217077, Note_on_c, 0, 74, 71
2, 217096, Note_off_c, 0, 73, 64
2, 217245, Note_off_c, 0, 74, 64
2, 217255, Note_on_c, 0, 80, 58
2, 217456, Note_off_c, 0, 80, 64
2, 217466, Note_on_c, 0, 77, 47
2, 217624, Control_c, 0, 64, 127
2, 217665, Note_off_c, 0, 77, 64
2, 217706, Note_on_c, 0, 74, 36
2, 217870, Note_off_c, 0, 74, 64
2, 217884, Note_on_c, 0, 63, 31
2, 217888, Note_on_c, 0, 60, 21
2, 217912, Note_on_c, 0, 55, 30
2, 218090, Note_on_c, 0, 67, 53
2, 218181, Note_off_c, 0, 67, 64
2, 218258, Control_c, 0, 64, 0
2, 218287, Note_on_c, 0, 79, 57
2, 218464, Note_on_c, 0, 78, 52
2, 218488, Note_off_c, 0, 79, 64
2, 218532, Control_c, 0, 64, 127
2, 218541, Note_off_c, 0, 60, 64
2, 218551, Note_off_c, 0, 63, 64
2, 218556, Note_off_c, 0, 55, 64
2, 218628, Control_c, 0, 64, 0
2, 218642, Note_on_c, 0, 77, 73
2, 218671, Note_off_c, 0, 78, 64
2, 218820, Note_off_c, 0, 77, 64
2, 218820, Note_on_c, 0, 76, 80
2, 218997, Note_on_c, 0, 75, 70
2, 219055, Note_off_c, 0, 76, 64
2, 219146, Control_c, 0, 64, 127
2, 219170, Note_on_c, 0, 74, 76
2, 219184, Note_off_c, 0, 75, 64
2, 219237, Note_off_c, 0, 74, 64
2, 219367, Note_on_c, 0, 63, 38
2, 219381, Note_on_c, 0, 74, 65
2, 219396, Note_on_c, 0, 55, 23
2, 219472, Control_c, 0, 64, 0
2, 219592, Control_c, 0, 64, 127
2, 219602, Note_off_c, 0, 63, 64
2, 219645, Note_on_c, 0, 72, 75
2, 219645, Note_on_c, 0, 67, 37
2, 219693, Note_off_c, 0, 74, 64
2, 219741, Note_off_c, 0, 72, 64
2, 219775, Note_off_c, 0, 67, 64
2, 219837, Note_on_c, 0, 72, 67
2, 219866, Note_on_c, 0, 63, 50
2, 219938, Note_off_c, 0, 63, 64
2, 220044, Note_on_c, 0, 67, 54
2, 220149, Note_off_c, 0, 67, 64
2, 220236, Note_on_c, 0, 65, 60
2, 220255, Control_c, 0, 64, 0
2, 220380, Note_off_c, 0, 65, 64
2, 220394, Control_c, 0, 64, 127
2, 220404, Note_on_c, 0, 67, 51
2, 220519, Note_off_c, 0, 67, 64
2, 220562, Control_c, 0, 64, 0
2, 220586, Note_on_c, 0, 75, 47
2, 220600, Note_on_c, 0, 65, 48
2, 220605, Note_off_c, 0, 72, 64
2, 220610, Note_on_c, 0, 71, 29
2, 220653, Note_off_c, 0, 55, 64
2, 220744, Control_c, 0, 64, 127
2, 220802, Note_off_c, 0, 65, 64
2, 220802, Note_on_c, 0, 74, 51
2, 220802, Note_on_c, 0, 67, 42
2, 220807, Note_off_c, 0, 75, 64
2, 220831, Note_off_c, 0, 71, 64
2, 220874, Note_off_c, 0, 67, 64
2, 221042, Note_on_c, 0, 60, 43
2, 221047, Note_off_c, 0, 74, 64
2, 221052, Note_on_c, 0, 72, 51
2, 221128, Control_c, 0, 64, 0
2, 221239, Note_on_c, 0, 67, 51
2, 221316, Note_off_c, 0, 67, 64
2, 221397, Note_on_c, 0, 63, 44
2, 221407, Note_off_c, 0, 72, 64
2, 221503, Note_off_c, 0, 63, 64
2, 221570, Note_on_c, 0, 72, 81
2, 221594, Note_on_c, 0, 67, 48
2, 221647, Note_off_c, 0, 60, 64
2, 221700, Note_off_c, 0, 67, 64
2, 221748, Note_on_c, 0, 73, 73
2, 221767, Note_off_c, 0, 72, 64
2, 221776, Note_on_c, 0, 59, 38
2, 221944, Note_on_c, 0, 67, 54
2, 221954, Note_on_c, 0, 74, 57
2, 221964, Note_off_c, 0, 73, 64
2, 222016, Note_off_c, 0, 67, 64
2, 222093, Note_off_c, 0, 74, 64
2, 222146, Note_on_c, 0, 65, 49
2, 222276, Note_on_c, 0, 74, 76
2, 222295, Note_off_c, 0, 65, 64
2, 222314, Note_on_c, 0, 67, 59
2, 222357, Note_off_c, 0, 59, 64
2, 222448, Note_off_c, 0, 67, 64
2, 222472, Note_on_c, 0, 77, 77
2, 222487, Note_off_c, 0, 74, 64
2, 222487, Note_on_c, 0, 60, 52
2, 222660, Note_on_c, 0, 67, 42
2, 222660, Note_on_c, 0, 75, 43
2, 222679, Note_off_c, 0, 77, 64
2, 222780, Note_off_c, 0, 67, 64
2, 222789, Note_off_c, 0, 75, 64
2, 222842, Note_on_c, 0, 63, 50
2, 222938, Note_off_c, 0, 63, 64
2, 222957, Control_c, 0, 64, 127
2, 222996, Note_on_c, 0, 75, 70
2, 223015, Note_on_c, 0, 67, 48
2, 223020, Note_off_c, 0, 60, 64
2, 223072, Note_off_c, 0, 67, 64
2, 223178, Note_on_c, 0, 50, 79
2, 223183, Note_on_c, 0, 76, 88
2, 223231, Note_off_c, 0, 75, 64
2, 223264, Control_c, 0, 64, 0
2, 223360, Note_on_c, 0, 59, 42
2, 223370, Note_on_c, 0, 77, 70
2, 223380, Note_off_c, 0, 76, 64
2, 223490, Note_off_c, 0, 77, 64
2, 223490, Note_off_c, 0, 59, 64
2, 223533, Note_on_c, 0, 53, 67
2, 223591, Note_off_c, 0, 50, 64
2, 223701, Note_on_c, 0, 59, 53
2, 223706, Note_on_c, 0, 77, 100
2, 223778, Note_off_c, 0, 53, 64
2, 223888, Note_off_c, 0, 59, 64
2, 223888, Note_on_c, 0, 78, 90
2, 223898, Note_off_c, 0, 77, 64
2, 223898, Note_on_c, 0, 51, 59
2, 224080, Note_on_c, 0, 60, 47
2, 224085, Note_on_c, 0, 79, 79
2, 224109, Control_c, 0, 64, 127
2, 224114, Note_off_c, 0, 78, 64
2, 224157, Note_off_c, 0, 60, 64
2, 224181, Note_off_c, 0, 79, 64
2, 224205, Note_off_c, 0, 51, 64
2, 224239, Note_on_c, 0, 52, 69
2, 224296, Control_c, 0, 64, 0
2, 224388, Note_on_c, 0, 60, 67
2, 224388, Note_on_c, 0, 79, 103
2, 224464, Control_c, 0, 64, 127
2, 224532, Note_off_c, 0, 60, 64
2, 224565, Note_off_c, 0, 79, 64
2, 224570, Note_off_c, 0, 52, 64
2, 224580, Note_on_c, 0, 82, 100
2, 224584, Control_c, 0, 64, 0
2, 224589, Note_on_c, 0, 53, 65
2, 224767, Note_on_c, 0, 60, 51
2, 224772, Note_off_c, 0, 82, 64
2, 224772, Note_on_c, 0, 80, 83
2, 224800, Control_c, 0, 64, 127
2, 224872, Note_off_c, 0, 60, 64
2, 224872, Note_off_c, 0, 53, 64
2, 224916, Note_off_c, 0, 80, 64
2, 224935, Note_on_c, 0, 54, 59
2, 225002, Control_c, 0, 64, 0
2, 225117, Note_on_c, 0, 63, 51
2, 225117, Note_on_c, 0, 84, 88
2, 225127, Control_c, 0, 64, 127
2, 225208, Note_off_c, 0, 54, 64
2, 225237, Note_off_c, 0, 84, 64
2, 225285, Note_off_c, 0, 63, 64
2, 225391, Note_on_c, 0, 84, 83
2, 225410, Note_on_c, 0, 55, 35
2, 225415, Control_c, 0, 64, 0
2, 225602, Control_c, 0, 64, 127
2, 225636, Note_on_c, 0, 63, 33
2, 225645, Note_off_c, 0, 84, 64
2, 225655, Note_on_c, 0, 72, 79
2, 225765, Note_off_c, 0, 72, 64
2, 225804, Note_off_c, 0, 63, 64
2, 225876, Note_on_c, 0, 72, 65
2, 225895, Note_on_c, 0, 60, 34
2, 225986, Note_off_c, 0, 55, 64
2, 226005, Note_off_c, 0, 60, 64
2, 226072, Note_on_c, 0, 63, 53
2, 226164, Note_off_c, 0, 63, 64
2, 226236, Note_on_c, 0, 55, 55
2, 226418, Note_on_c, 0, 65, 59
2, 226476, Control_c, 0, 64, 0
2, 226567, Note_off_c, 0, 65, 64
2, 226576, Note_on_c, 0, 75, 67
2, 226605, Note_off_c, 0, 72, 64
2, 226610, Note_on_c, 0, 59, 40
2, 226668, Note_off_c, 0, 59, 64
2, 226692, Control_c, 0, 64, 127
2, 226759, Note_on_c, 0, 74, 88
2, 226773, Note_on_c, 0, 65, 50
2, 226778, Note_off_c, 0, 75, 64
2, 226792, Note_off_c, 0, 55, 64
2, 226831, Note_off_c, 0, 65, 64
2, 226869, Note_off_c, 0, 74, 64
2, 226932, Note_on_c, 0, 72, 106
2, 226941, Note_on_c, 0, 48, 106
2, 226989, Note_off_c, 0, 72, 64
2, 227032, Control_c, 0, 64, 0
2, 227124, Note_on_c, 0, 72, 100
2, 227124, Note_on_c, 0, 55, 75
2, 227138, Control_c, 0, 64, 127
2, 227152, Note_off_c, 0, 72, 64
2, 227253, Note_off_c, 0, 55, 64
2, 227263, Control_c, 0, 64, 0
2, 227272, Note_on_c, 0, 74, 90
2, 227306, Note_off_c, 0, 74, 64
2, 227306, Note_on_c, 0, 51, 71
2, 227316, Note_on_c, 0, 72, 101
2, 227349, Note_off_c, 0, 72, 64
2, 227373, Note_on_c, 0, 74, 92
2, 227431, Control_c, 0, 64, 127
2, 227431, Note_on_c, 0, 72, 82
2, 227464, Note_on_c, 0, 55, 71
2, 227474, Note_off_c, 0, 74, 64
2, 227498, Note_on_c, 0, 71, 75
2, 227512, Note_off_c, 0, 72, 64
2, 227551, Control_c, 0, 64, 0
2, 227584, Note_on_c, 0, 72, 103
2, 227589, Note_off_c, 0, 55, 64
2, 227599, Note_off_c, 0, 71, 64
2, 227618, Note_off_c, 0, 51, 64
2, 227628, Note_on_c, 0, 74, 105
2, 227637, Note_off_c, 0, 72, 64
2, 227642, Note_off_c, 0, 48, 64
2, 227642, Note_on_c, 0, 47, 76
2, 227676, Note_off_c, 0, 74, 64
2, 227805, Note_on_c, 0, 55, 84
2, 227820, Note_on_c, 0, 74, 99
2, 227844, Control_c, 0, 64, 127
2, 227848, Note_off_c, 0, 74, 64
2, 227935, Note_off_c, 0, 55, 64
2, 227949, Control_c, 0, 64, 0
2, 227959, Note_on_c, 0, 75, 84
2, 227988, Note_on_c, 0, 53, 71
2, 228012, Note_off_c, 0, 75, 64
2, 228016, Note_on_c, 0, 74, 88
2, 228055, Note_off_c, 0, 74, 64
2, 228074, Note_on_c, 0, 75, 84
2, 228127, Note_on_c, 0, 74, 85
2, 228160, Note_on_c, 0, 55, 73
2, 228170, Note_off_c, 0, 75, 64
2, 228189, Note_on_c, 0, 72, 76
2, 228208, Note_off_c, 0, 74, 64
2, 228213, Note_off_c, 0, 47, 64
2, 228256, Note_on_c, 0, 74, 76
2, 228271, Note_off_c, 0, 72, 64
2, 228290, Note_off_c, 0, 55, 64
2, 228309, Note_off_c, 0, 53, 64
2, 228324, Note_on_c, 0, 75, 95
2, 228333, Note_on_c, 0, 48, 89
2, 228343, Note_off_c, 0, 74, 64
2, 228381, Note_off_c, 0, 75, 64
2, 228496, Note_on_c, 0, 75, 83
2, 228501, Note_on_c, 0, 55, 73
2, 228535, Note_off_c, 0, 75, 64
2, 228640, Note_off_c, 0, 55, 64
2, 228650, Note_on_c, 0, 77, 97
2, 228655, Note_on_c, 0, 51, 74
2, 228698, Note_off_c, 0, 77, 64
2, 228703, Note_on_c, 0, 75, 79
2, 228746, Note_off_c, 0, 75, 64
2, 228765, Note_on_c, 0, 77, 95
2, 228808, Note_on_c, 0, 75, 79
2, 228818, Note_on_c, 0, 55, 70
2, 228847, Note_off_c, 0, 77, 64
2, 228876, Note_off_c, 0, 48, 64
2, 228885, Note_on_c, 0, 74, 90
2, 228890, Control_c, 0, 64, 127
2, 228900, Note_off_c, 0, 75, 64
2, 228919, Control_c, 0, 64, 0
2, 228938, Note_off_c, 0, 74, 64
2, 228952, Note_on_c, 0, 75, 75
2, 228986, Note_off_c, 0, 55, 64
2, 228991, Note_on_c, 0, 77, 103
2, 229005, Note_on_c, 0, 50, 88
2, 229010, Note_off_c, 0, 75, 64
2, 229015, Note_off_c, 0, 51, 64
2, 229077, Note_off_c, 0, 77, 64
2, 229159, Note_on_c, 0, 77, 100
2, 229173, Note_on_c, 0, 59, 75
2, 229207, Note_off_c, 0, 77, 64
2, 229298, Note_off_c, 0, 59, 64
2, 229303, Note_on_c, 0, 79, 97
2, 229341, Note_on_c, 0, 55, 75
2, 229346, Note_off_c, 0, 79, 64
2, 229356, Note_on_c, 0, 77, 92
2, 229394, Note_off_c, 0, 77, 64
2, 229413, Note_on_c, 0, 79, 98
2, 229442, Note_off_c, 0, 55, 64
2, 229456, Note_off_c, 0, 79, 64
2, 229456, Note_on_c, 0, 77, 89
2, 229485, Note_on_c, 0, 59, 61
2, 229519, Note_on_c, 0, 75, 86
2, 229528, Note_off_c, 0, 77, 64
2, 229543, Note_off_c, 0, 59, 64
2, 229605, Note_on_c, 0, 77, 101
2, 229610, Note_off_c, 0, 50, 64
2, 229615, Note_off_c, 0, 75, 64
2, 229687, Note_on_c, 0, 79, 106
2, 229687, Note_on_c, 0, 60, 87
2, 229692, Note_on_c, 0, 51, 79
2, 229720, Note_off_c, 0, 77, 64
2, 229816, Note_on_c, 0, 84, 107
2, 229831, Note_off_c, 0, 79, 64
2, 229946, Note_on_c, 0, 82, 108
2, 229965, Note_off_c, 0, 84, 64
2, 230052, Note_on_c, 0, 80, 100
2, 230095, Note_off_c, 0, 82, 64
2, 230167, Note_on_c, 0, 79, 98
2, 230200, Note_off_c, 0, 80, 64
2, 230287, Note_off_c, 0, 79, 64
2, 230287, Note_on_c, 0, 77, 95
2, 230402, Note_on_c, 0, 75, 94
2, 230412, Note_off_c, 0, 77, 64
2, 230532, Note_on_c, 0, 74, 94
2, 230551, Note_off_c, 0, 75, 64
2, 230647, Note_off_c, 0, 74, 64
2, 230652, Note_off_c, 0, 51, 64
2, 230652, Note_on_c, 0, 72, 93
2, 230724, Note_on_c, 0, 52, 88
2, 230767, Note_on_c, 0, 70, 101
2, 230800, Note_off_c, 0, 72, 64
2, 230887, Note_on_c, 0, 68, 88
2, 230935, Note_off_c, 0, 70, 64
2, 230988, Note_on_c, 0, 67, 95
2, 231016, Note_off_c, 0, 68, 64
2, 231055, Note_off_c, 0, 52, 64
2, 231122, Note_off_c, 0, 67, 64
2, 231122, Note_on_c, 0, 68, 96
2, 231127, Note_on_c, 0, 53, 86
2, 231194, Control_c, 0, 64, 127
2, 231199, Note_off_c, 0, 68, 64
2, 231237, Note_off_c, 0, 53, 64
2, 231256, Control_c, 0, 64, 0
2, 231328, Note_off_c, 0, 60, 64
2, 231468, Note_on_c, 0, 80, 97
2, 231468, Note_on_c, 0, 77, 99
2, 231468, Note_on_c, 0, 72, 103
2, 231472, Note_on_c, 0, 53, 94
2, 231564, Control_c, 0, 64, 127
2, 231568, Note_off_c, 0, 53, 64
2, 231578, Note_off_c, 0, 77, 64
2, 231592, Control_c, 0, 64, 0
2, 231616, Note_off_c, 0, 72, 64
2, 231640, Note_off_c, 0, 80, 64
2, 231837, Note_on_c, 0, 72, 104
2, 231837, Note_on_c, 0, 79, 105
2, 231847, Note_on_c, 0, 55, 86
2, 231847, Note_on_c, 0, 75, 78
2, 231871, Control_c, 0, 64, 127
2, 231885, Note_off_c, 0, 79, 64
2, 231890, Note_off_c, 0, 75, 64
2, 231890, Note_off_c, 0, 72, 64
2, 231909, Note_off_c, 0, 55, 64
2, 232024, Control_c, 0, 64, 0
2, 232207, Note_on_c, 0, 62, 92
2, 232216, Note_on_c, 0, 65, 91
2, 232216, Note_on_c, 0, 71, 85
2, 232221, Note_on_c, 0, 43, 81
2, 232274, Note_off_c, 0, 43, 64
2, 232317, Control_c, 0, 64, 127
2, 232336, Note_off_c, 0, 71, 64
2, 232341, Note_off_c, 0, 65, 64
2, 232351, Note_off_c, 0, 62, 64
2, 232423, Control_c, 0, 64, 0
2, 232600, Note_on_c, 0, 63, 90
2, 232605, Note_on_c, 0, 72, 99
2, 232605, Note_on_c, 0, 48, 90
2, 232639, Note_off_c, 0, 63, 64
2, 232644, Note_off_c, 0, 48, 64
2, 232668, Control_c, 0, 64, 127
2, 232687, Note_off_c, 0, 72, 64
2, 232989, Control_c, 0, 64, 0
2, 232989, Note_on_c, 0, 79, 79
2, 233100, Note_off_c, 0, 79, 64
2, 233104, Note_on_c, 0, 78, 79
2, 233220, Note_on_c, 0, 80, 77
2, 233224, Note_off_c, 0, 78, 64
2, 233344, Note_on_c, 0, 79, 83
2, 233383, Note_off_c, 0, 80, 64
2, 233460, Note_off_c, 0, 79, 64
2, 233474, Note_on_c, 0, 77, 73
2, 233599, Note_on_c, 0, 75, 59
2, 233608, Note_off_c, 0, 77, 64
2, 233695, Note_off_c, 0, 75, 64
2, 233695, Note_on_c, 0, 63, 61
2, 233695, Note_on_c, 0, 60, 61
2, 233709, Note_on_c, 0, 74, 73
2, 233772, Note_off_c, 0, 74, 64
2, 233805, Note_on_c, 0, 75, 65
2, 233834, Control_c, 0, 64, 127
2, 233877, Note_off_c, 0, 60, 64
2, 233925, Note_on_c, 0, 72, 80
2, 233940, Note_off_c, 0, 63, 64
2, 233944, Note_off_c, 0, 75, 64
2, 234036, Control_c, 0, 64, 0
2, 234055, Note_off_c, 0, 72, 64
2, 234060, Note_on_c, 0, 71, 65
2, 234074, Note_on_c, 0, 65, 48
2, 234074, Note_on_c, 0, 62, 46
2, 234088, Note_on_c, 0, 55, 44
2, 234314, Control_c, 0, 64, 127
2, 234396, Note_off_c, 0, 65, 64
2, 234434, Note_off_c, 0, 55, 64
2, 234453, Note_off_c, 0, 71, 64
2, 234453, Note_on_c, 0, 77, 81
2, 234458, Note_off_c, 0, 62, 64
2, 234516, Note_off_c, 0, 77, 64
2, 234568, Note_on_c, 0, 76, 84
2, 234588, Control_c, 0, 64, 0
2, 234669, Note_off_c, 0, 76, 64
2, 234679, Note_on_c, 0, 79, 83
2, 234794, Note_on_c, 0, 77, 79
2, 234799, Note_off_c, 0, 79, 64
2, 234895, Note_on_c, 0, 75, 74
2, 234900, Note_off_c, 0, 77, 64
2, 235020, Note_off_c, 0, 75, 64
2, 235020, Note_on_c, 0, 74, 72
2, 235106, Note_off_c, 0, 74, 64
2, 235135, Note_on_c, 0, 72, 70
2, 235135, Note_on_c, 0, 55, 48
2, 235140, Note_on_c, 0, 65, 43
2, 235149, Note_on_c, 0, 62, 39
2, 235226, Note_off_c, 0, 62, 64
2, 235230, Note_off_c, 0, 72, 64
2, 235255, Note_off_c, 0, 55, 64
2, 235260, Note_on_c, 0, 71, 53
2, 235274, Note_off_c, 0, 65, 64
2, 235345, Note_off_c, 0, 71, 64
2, 235375, Note_on_c, 0, 74, 63
2, 235432, Note_off_c, 0, 74, 64
2, 235514, Note_on_c, 0, 63, 38
2, 235524, Note_on_c, 0, 72, 55
2, 235524, Note_on_c, 0, 60, 42
2, 235682, Control_c, 0, 64, 127
2, 235884, Note_on_c, 0, 79, 61
2, 235898, Note_off_c, 0, 72, 64
2, 235922, Note_off_c, 0, 63, 64
2, 235975, Note_off_c, 0, 79, 64
2, 235989, Note_on_c, 0, 78, 71
2, 235999, Note_off_c, 0, 60, 64
2, 236052, Control_c, 0, 64, 0
2, 236109, Note_on_c, 0, 80, 78
2, 236133, Note_off_c, 0, 78, 64
2, 236234, Note_on_c, 0, 79, 87
2, 236272, Note_off_c, 0, 80, 64
2, 236335, Note_off_c, 0, 79, 64
2, 236354, Note_on_c, 0, 77, 91
2, 236474, Note_on_c, 0, 75, 82
2, 236488, Note_off_c, 0, 77, 64
2, 236556, Note_on_c, 0, 51, 88
2, 236565, Note_on_c, 0, 48, 83
2, 236575, Note_on_c, 0, 74, 99
2, 236584, Note_off_c, 0, 75, 64
2, 236623, Note_off_c, 0, 48, 64
2, 236666, Note_off_c, 0, 51, 64
2, 236685, Note_on_c, 0, 75, 77
2, 236709, Note_off_c, 0, 74, 64
2, 236781, Note_off_c, 0, 75, 64
2, 236781, Note_on_c, 0, 72, 103
2, 236882, Note_off_c, 0, 72, 64
2, 236887, Note_on_c, 0, 53, 109
2, 236887, Note_on_c, 0, 43, 101
2, 236892, Note_on_c, 0, 80, 104
2, 236892, Note_on_c, 0, 50, 105
2, 236896, Note_on_c, 0, 47, 90
2, 236911, Control_c, 0, 64, 127
2, 237007, Note_on_c, 0, 79, 101
2, 237036, Note_off_c, 0, 80, 64
2, 237108, Note_off_c, 0, 79, 64
2, 237122, Note_on_c, 0, 77, 100
2, 237213, Note_on_c, 0, 75, 100
2, 237252, Note_off_c, 0, 77, 64
2, 237333, Note_on_c, 0, 74, 105
2, 237376, Note_off_c, 0, 75, 64
2, 237429, Note_on_c, 0, 72, 103
2, 237439, Note_off_c, 0, 74, 64
2, 237540, Note_on_c, 0, 71, 93
2, 237549, Note_off_c, 0, 72, 64
2, 237645, Control_c, 0, 64, 0
2, 237655, Note_on_c, 0, 68, 97
2, 237698, Note_off_c, 0, 71, 64
2, 237756, Note_on_c, 0, 67, 94
2, 237823, Note_off_c, 0, 68, 64
2, 237866, Note_on_c, 0, 65, 100
2, 237876, Note_off_c, 0, 67, 64
2, 237909, Control_c, 0, 64, 127
2, 237924, Note_off_c, 0, 50, 64
2, 237928, Note_off_c, 0, 47, 64
2, 237928, Note_off_c, 0, 53, 64
2, 237967, Note_off_c, 0, 43, 64
2, 237972, Note_on_c, 0, 63, 88
2, 237981, Note_off_c, 0, 65, 64
2, 238068, Note_on_c, 0, 62, 85
2, 238111, Note_off_c, 0, 63, 64
2, 238178, Note_off_c, 0, 62, 64
2, 238183, Note_on_c, 0, 60, 119
2, 238188, Note_on_c, 0, 48, 116
2, 238188, Note_on_c, 0, 36, 112
2, 238322, Control_c, 0, 64, 0
2, 238624, Note_off_c, 0, 36, 64
2, 238653, Note_off_c, 0, 48, 64
2, 238663, Control_c, 0, 64, 127
2, 238912, Note_on_c, 0, 51, 104
2, 238912, Note_on_c, 0, 39, 99
2, 238922, Control_c, 0, 64, 0
2, 238946, Note_off_c, 0, 39, 64
2, 239004, Note_off_c, 0, 51, 64
2, 239148, Note_off_c, 0, 60, 64
2, 239239, Note_on_c, 0, 55, 108
2, 239244, Note_on_c, 0, 43, 104
2, 239287, Note_off_c, 0, 43, 64
2, 239325, Note_off_c, 0, 55, 64
2, 239556, Note_on_c, 0, 72, 116
2, 239565, Note_on_c, 0, 60, 109
2, 239575, Note_on_c, 0, 48, 104
2, 239618, Note_off_c, 0, 48, 64
2, 239661, Note_off_c, 0, 60, 64
2, 239877, Note_on_c, 0, 63, 102
2, 239877, Note_on_c, 0, 51, 95
2, 240151, Note_off_c, 0, 72, 64
2, 240208, Note_on_c, 0, 75, 103
2, 240309, Note_off_c, 0, 75, 64
2, 240444, Note_off_c, 0, 63, 64
2, 240516, Note_off_c, 0, 51, 64
2, 240535, Note_on_c, 0, 79, 111
2, 240684, Note_off_c, 0, 79, 64
2, 240861, Note_on_c, 0, 84, 114
2, 240871, Note_on_c, 0, 44, 109
2, 240871, Note_on_c, 0, 32, 106
2, 241044, Note_off_c, 0, 84, 64
2, 241221, Note_on_c, 0, 87, 100
2, 241274, Control_c, 0, 64, 127
2, 241303, Note_off_c, 0, 32, 64
2, 241322, Note_off_c, 0, 87, 64
2, 241336, Note_off_c, 0, 44, 64
2, 241533, Control_c, 0, 64, 0
2, 241548, Note_on_c, 0, 48, 111
2, 241552, Note_on_c, 0, 36, 103
2, 241677, Note_off_c, 0, 36, 64
2, 241701, Note_off_c, 0, 48, 64
2, 241869, Note_on_c, 0, 51, 111
2, 241879, Note_on_c, 0, 39, 100
2, 241975, Note_off_c, 0, 51, 64
2, 241994, Note_off_c, 0, 39, 64
2, 242200, Note_on_c, 0, 68, 108
2, 242205, Note_on_c, 0, 56, 97
2, 242210, Note_on_c, 0, 44, 93
2, 242301, Note_off_c, 0, 44, 64
2, 242306, Note_off_c, 0, 56, 64
2, 242349, Control_c, 0, 64, 127
2, 242536, Note_on_c, 0, 60, 106
2, 242541, Note_off_c, 0, 68, 64
2, 242541, Note_on_c, 0, 48, 101
2, 242642, Note_off_c, 0, 60, 64
2, 242652, Note_off_c, 0, 48, 64
2, 242844, Note_on_c, 0, 72, 116
2, 242858, Control_c, 0, 64, 0
2, 243002, Note_off_c, 0, 72, 64
2, 243151, Note_on_c, 0, 75, 108
2, 243319, Note_off_c, 0, 75, 64
2, 243492, Note_on_c, 0, 81, 111
2, 243496, Note_on_c, 0, 42, 117
2, 243501, Note_on_c, 0, 30, 111
2, 243751, Note_off_c, 0, 81, 64
2, 243861, Note_on_c, 0, 84, 106
2, 243914, Note_off_c, 0, 30, 64
2, 243914, Control_c, 0, 64, 127
2, 243948, Note_off_c, 0, 42, 64
2, 244063, Note_off_c, 0, 84, 64
2, 244197, Note_on_c, 0, 45, 114
2, 244197, Note_on_c, 0, 33, 111
2, 244240, Control_c, 0, 64, 0
2, 244255, Note_off_c, 0, 33, 64
2, 244303, Note_off_c, 0, 45, 64
2, 244317, Control_c, 0, 64, 127
2, 244495, Note_on_c, 0, 84, 106
2, 244495, Note_on_c, 0, 36, 96
2, 244500, Note_on_c, 0, 48, 111
2, 244514, Control_c, 0, 64, 0
2, 244581, Note_on_c, 0, 87, 100
2, 244586, Note_off_c, 0, 84, 64
2, 244586, Note_off_c, 0, 36, 64
2, 244586, Note_off_c, 0, 48, 64
2, 244653, Control_c, 0, 64, 127
2, 244677, Note_on_c, 0, 84, 86
2, 244749, Note_off_c, 0, 87, 64
2, 244759, Control_c, 0, 64, 0
2, 244773, Note_on_c, 0, 54, 98
2, 244778, Note_on_c, 0, 81, 103
2, 244778, Note_on_c, 0, 42, 95
2, 244792, Note_off_c, 0, 84, 64
2, 244831, Note_off_c, 0, 81, 64
2, 244850, Note_off_c, 0, 42, 64
2, 244864, Note_on_c, 0, 84, 102
2, 244869, Note_off_c, 0, 54, 64
2, 244884, Control_c, 0, 64, 127
2, 244970, Note_on_c, 0, 81, 98
2, 245008, Control_c, 0, 64, 0
2, 245028, Note_off_c, 0, 84, 64
2, 245066, Note_on_c, 0, 57, 105
2, 245066, Note_on_c, 0, 78, 97
2, 245066, Note_on_c, 0, 45, 105
2, 245090, Note_off_c, 0, 81, 64
2, 245143, Note_off_c, 0, 45, 64
2, 245152, Note_on_c, 0, 81, 103
2, 245162, Control_c, 0, 64, 127
2, 245186, Note_off_c, 0, 57, 64
2, 245191, Note_off_c, 0, 78, 64
2, 245244, Note_on_c, 0, 78, 94
2, 245296, Control_c, 0, 64, 0
2, 245306, Note_off_c, 0, 81, 64
2, 245364, Note_on_c, 0, 75, 96
2, 245364, Note_on_c, 0, 60, 105
2, 245373, Note_on_c, 0, 48, 103
2, 245388, Note_off_c, 0, 78, 64
2, 245431, Note_off_c, 0, 48, 64
2, 245436, Note_on_c, 0, 78, 103
2, 245460, Note_off_c, 0, 60, 64
2, 245460, Note_off_c, 0, 75, 64
2, 245484, Control_c, 0, 64, 127
2, 245551, Note_on_c, 0, 75, 76
2, 245608, Note_off_c, 0, 78, 64
2, 245656, Note_on_c, 0, 72, 97
2, 245661, Note_off_c, 0, 75, 64
2, 245671, Note_on_c, 0, 63, 96
2, 245676, Note_on_c, 0, 51, 95
2, 245709, Note_off_c, 0, 51, 64
2, 245714, Note_off_c, 0, 63, 64
2, 245748, Note_on_c, 0, 75, 85
2, 245762, Note_off_c, 0, 72, 64
2, 245844, Note_on_c, 0, 72, 84
2, 245916, Note_off_c, 0, 75, 64
2, 245959, Control_c, 0, 64, 0
2, 245992, Note_off_c, 0, 72, 64
2, 246002, Note_on_c, 0, 67, 108
2, 246016, Note_on_c, 0, 55, 82
2, 246122, Note_on_c, 0, 60, 69
2, 246151, Note_off_c, 0, 67, 64
2, 246165, Note_off_c, 0, 55, 64
2, 246175, Control_c, 0, 64, 127
2, 246204, Note_off_c, 0, 60, 64
2, 246247, Note_on_c, 0, 63, 58
2, 246314, Note_off_c, 0, 63, 64
2, 246396, Note_on_c, 0, 79, 112
2, 246444, Note_on_c, 0, 55, 40
2, 246501, Note_off_c, 0, 55, 64
2, 246520, Note_on_c, 0, 60, 50
2, 246588, Note_off_c, 0, 60, 64
2, 246597, Note_on_c, 0, 63, 52
2, 246703, Note_off_c, 0, 63, 64
2, 246727, Note_on_c, 0, 55, 69
2, 246842, Note_on_c, 0, 60, 77
2, 246847, Note_off_c, 0, 55, 64
2, 246904, Note_off_c, 0, 60, 64
2, 246962, Note_on_c, 0, 63, 66
2, 247039, Note_off_c, 0, 63, 64
2, 247058, Note_on_c, 0, 77, 98
2, 247087, Note_off_c, 0, 79, 64
2, 247096, Note_on_c, 0, 55, 41
2, 247140, Note_on_c, 0, 75, 88
2, 247154, Note_off_c, 0, 55, 64
2, 247159, Note_off_c, 0, 77, 64
2, 247164, Note_on_c, 0, 60, 67
2, 247216, Note_on_c, 0, 74, 94
2, 247231, Note_off_c, 0, 60, 64
2, 247260, Note_off_c, 0, 75, 64
2, 247260, Note_on_c, 0, 63, 61
2, 247298, Note_on_c, 0, 72, 101
2, 247312, Note_off_c, 0, 74, 64
2, 247360, Note_off_c, 0, 72, 64
2, 247360, Note_off_c, 0, 63, 64
2, 247375, Control_c, 0, 64, 0
2, 247380, Note_on_c, 0, 75, 97
2, 247394, Note_on_c, 0, 55, 69
2, 247442, Note_off_c, 0, 75, 64
2, 247461, Note_on_c, 0, 74, 87
2, 247495, Note_off_c, 0, 55, 64
2, 247495, Note_on_c, 0, 59, 42
2, 247509, Note_off_c, 0, 74, 64
2, 247509, Note_on_c, 0, 75, 89
2, 247543, Control_c, 0, 64, 127
2, 247552, Note_off_c, 0, 59, 64
2, 247552, Note_off_c, 0, 75, 64
2, 247572, Note_on_c, 0, 74, 89
2, 247600, Note_on_c, 0, 65, 63
2, 247610, Note_off_c, 0, 74, 64
2, 247624, Note_on_c, 0, 75, 84
2, 247668, Note_off_c, 0, 65, 64
2, 247696, Note_on_c, 0, 74, 71
2, 247711, Note_off_c, 0, 75, 64
2, 247725, Note_on_c, 0, 55, 59
2, 247764, Note_on_c, 0, 75, 66
2, 247768, Note_off_c, 0, 74, 64
2, 247783, Note_off_c, 0, 55, 64
2, 247812, Note_off_c, 0, 75, 64
2, 247826, Note_on_c, 0, 59, 43
2, 247836, Note_on_c, 0, 74, 79
2, 247874, Note_off_c, 0, 74, 64
2, 247884, Note_off_c, 0, 59, 64
2, 247884, Note_on_c, 0, 75, 75
2, 247936, Note_on_c, 0, 65, 66
2, 247941, Note_on_c, 0, 74, 85
2, 247946, Note_off_c, 0, 75, 64
2, 247994, Note_off_c, 0, 65, 64
2, 248013, Note_off_c, 0, 74, 64
2, 248018, Note_on_c, 0, 75, 84
2, 248052, Note_on_c, 0, 55, 58
2, 248085, Note_off_c, 0, 75, 64
2, 248095, Note_on_c, 0, 74, 88
2, 248104, Note_off_c, 0, 55, 64
2, 248138, Note_off_c, 0, 74, 64
2, 248148, Note_on_c, 0, 59, 44
2, 248152, Note_on_c, 0, 75, 79
2, 248205, Note_off_c, 0, 59, 64
2, 248210, Note_off_c, 0, 75, 64
2, 248215, Note_on_c, 0, 74, 83
2, 248253, Note_on_c, 0, 65, 54
2, 248263, Note_off_c, 0, 74, 64
2, 248277, Note_on_c, 0, 75, 85
2, 248316, Note_off_c, 0, 65, 64
2, 248349, Note_off_c, 0, 75, 64
2, 248349, Note_on_c, 0, 74, 74
2, 248368, Note_on_c, 0, 55, 56
2, 248407, Note_off_c, 0, 74, 64
2, 248426, Note_on_c, 0, 75, 81
2, 248450, Note_on_c, 0, 59, 48
2, 248488, Note_on_c, 0, 74, 81
2, 248498, Note_off_c, 0, 75, 64
2, 248522, Note_off_c, 0, 59, 64
2, 248532, Note_off_c, 0, 74, 64
2, 248536, Note_on_c, 0, 72, 83
2, 248623, Note_on_c, 0, 65, 60
2, 248652, Note_off_c, 0, 72, 64
2, 248652, Note_on_c, 0, 74, 63
2, 248690, Note_off_c, 0, 65, 64
2, 248748, Note_off_c, 0, 74, 64
2, 248772, Control_c, 0, 64, 0
2, 248839, Note_on_c, 0, 60, 69
2, 248911, Note_off_c, 0, 55, 64
2, 248983, Note_on_c, 0, 72, 63
2, 249103, Note_on_c, 0, 84, 60
2, 249122, Note_off_c, 0, 72, 64
2, 249141, Control_c, 0, 64, 127
2, 249194, Note_off_c, 0, 84, 64
2, 249223, Note_on_c, 0, 59, 44
2, 249247, Note_off_c, 0, 60, 64
2, 249352, Note_on_c, 0, 71, 41
2, 249487, Note_off_c, 0, 71, 64
2, 249496, Note_on_c, 0, 83, 36
2, 249588, Control_c, 0, 64, 0
2, 249597, Note_on_c, 0, 60, 43
2, 249616, Note_off_c, 0, 83, 64
2, 249631, Note_off_c, 0, 59, 64
2, 249679, Control_c, 0, 64, 127
2, 249698, Note_on_c, 0, 72, 64
2, 249808, Note_off_c, 0, 72, 64
2, 249813, Note_on_c, 0, 84, 70
2, 249861, Note_off_c, 0, 84, 64
2, 249943, Note_on_c, 0, 55, 83
2, 250072, Note_on_c, 0, 67, 73
2, 250087, Note_off_c, 0, 60, 64
2, 250111, Control_c, 0, 64, 0
2, 250173, Note_on_c, 0, 79, 80
2, 250183, Note_off_c, 0, 67, 64
2, 250231, Control_c, 0, 64, 127
2, 250255, Note_off_c, 0, 79, 64
2, 250288, Note_off_c, 0, 55, 64
2, 250293, Note_on_c, 0, 56, 62
2, 250341, Control_c, 0, 64, 0
2, 250418, Note_on_c, 0, 68, 58
2, 250524, Control_c, 0, 64, 127
2, 250543, Note_on_c, 0, 80, 49
2, 250610, Note_off_c, 0, 80, 64
2, 250615, Note_off_c, 0, 68, 64
2, 250653, Note_on_c, 0, 55, 48
2, 250663, Note_off_c, 0, 56, 64
2, 250740, Control_c, 0, 64, 0
2, 250788, Note_on_c, 0, 67, 59
2, 250888, Note_off_c, 0, 67, 64
2, 250893, Control_c, 0, 64, 127
2, 250898, Note_on_c, 0, 79, 54
2, 250989, Note_off_c, 0, 79, 64
2, 250999, Note_on_c, 0, 56, 48
2, 251018, Note_off_c, 0, 55, 64
2, 251076, Control_c, 0, 64, 0
2, 251114, Note_on_c, 0, 68, 62
2, 251167, Control_c, 0, 64, 127
2, 251220, Note_off_c, 0, 68, 64
2, 251220, Note_on_c, 0, 80, 61
2, 251263, Note_off_c, 0, 80, 64
2, 251340, Note_on_c, 0, 51, 81
2, 251445, Note_off_c, 0, 56, 64
2, 251464, Note_on_c, 0, 63, 70
2, 251508, Control_c, 0, 64, 0
2, 251584, Note_on_c, 0, 75, 61
2, 251604, Note_off_c, 0, 63, 64
2, 251656, Note_off_c, 0, 75, 64
2, 251661, Control_c, 0, 64, 127
2, 251700, Note_on_c, 0, 53, 69
2, 251752, Control_c, 0, 64, 0
2, 251805, Note_on_c, 0, 65, 63
2, 251810, Note_off_c, 0, 51, 64
2, 251920, Control_c, 0, 64, 127
2, 251925, Note_off_c, 0, 65, 64
2, 251940, Note_on_c, 0, 77, 28
2, 252016, Note_off_c, 0, 77, 64
2, 252036, Note_on_c, 0, 54, 55
2, 252151, Control_c, 0, 64, 0
2, 252170, Note_on_c, 0, 66, 50
2, 252189, Note_off_c, 0, 53, 64
2, 252271, Note_on_c, 0, 78, 50
2, 252290, Control_c, 0, 64, 127
2, 252333, Note_off_c, 0, 66, 64
2, 252352, Note_off_c, 0, 78, 64
2, 252396, Note_on_c, 0, 55, 47
2, 252429, Note_off_c, 0, 54, 64
2, 252444, Control_c, 0, 64, 0
2, 252492, Note_on_c, 0, 67, 52
2, 252544, Note_off_c, 0, 67, 64
2, 252549, Control_c, 0, 64, 127
2, 252592, Note_on_c, 0, 79, 44
2, 252626, Note_off_c, 0, 79, 64
2, 252684, Note_off_c, 0, 55, 64
2, 252741, Note_on_c, 0, 43, 66
2, 252871, Note_on_c, 0, 55, 45
2, 253005, Note_off_c, 0, 55, 64
2, 253005, Note_on_c, 0, 67, 43
2, 253058, Note_off_c, 0, 67, 64
2, 253149, Note_on_c, 0, 48, 74
2, 253212, Control_c, 0, 64, 0
2, 253216, Note_off_c, 0, 43, 64
2, 253279, Note_on_c, 0, 60, 64
2, 253365, Control_c, 0, 64, 127
2, 253394, Note_on_c, 0, 72, 61
2, 253447, Note_off_c, 0, 60, 64
2, 253466, Note_off_c, 0, 72, 64
2, 253495, Note_on_c, 0, 47, 57
2, 253538, Note_off_c, 0, 48, 64
2, 253610, Control_c, 0, 64, 0
2, 253634, Note_on_c, 0, 59, 43
2, 253740, Note_on_c, 0, 71, 43
2, 253749, Control_c, 0, 64, 127
2, 253764, Note_off_c, 0, 59, 64
2, 253850, Note_off_c, 0, 71, 64
2, 253874, Note_on_c, 0, 48, 50
2, 253888, Note_off_c, 0, 47, 64
2, 253975, Note_on_c, 0, 60, 50
2, 254066, Note_off_c, 0, 60, 64
2, 254066, Note_on_c, 0, 72, 65
2, 254114, Note_off_c, 0, 72, 64
2, 254196, Note_on_c, 0, 43, 91
2, 254272, Control_c, 0, 64, 0
2, 254320, Note_on_c, 0, 55, 72
2, 254359, Note_off_c, 0, 48, 64
2, 254412, Control_c, 0, 64, 127
2, 254416, Note_on_c, 0, 67, 78
2, 254436, Note_off_c, 0, 55, 64
2, 254522, Note_off_c, 0, 67, 64
2, 254536, Note_on_c, 0, 44, 61
2, 254556, Note_off_c, 0, 43, 64
2, 254642, Control_c, 0, 64, 0
2, 254652, Note_on_c, 0, 56, 66
2, 254762, Note_on_c, 0, 68, 50
2, 254810, Control_c, 0, 64, 127
2, 254834, Note_off_c, 0, 56, 64
2, 254892, Note_on_c, 0, 43, 51
2, 254906, Note_off_c, 0, 44, 64
2, 254935, Note_off_c, 0, 68, 64
2, 255012, Control_c, 0, 64, 0
2, 255031, Note_on_c, 0, 55, 40
2, 255112, Note_off_c, 0, 55, 64
2, 255141, Note_on_c, 0, 67, 48
2, 255146, Control_c, 0, 64, 127
2, 255261, Note_on_c, 0, 44, 44
2, 255266, Note_off_c, 0, 67, 64
2, 255280, Note_off_c, 0, 43, 64
2, 255333, Control_c, 0, 64, 0
2, 255343, Note_on_c, 0, 56, 59
2, 255453, Control_c, 0, 64, 127
2, 255463, Note_off_c, 0, 56, 64
2, 255463, Note_on_c, 0, 68, 65
2, 255511, Note_off_c, 0, 68, 64
2, 255607, Note_on_c, 0, 39, 76
2, 255717, Control_c, 0, 64, 0
2, 255732, Note_on_c, 0, 51, 72
2, 255746, Note_off_c, 0, 44, 64
2, 255794, Note_on_c, 0, 58, 32
2, 255828, Note_on_c, 0, 63, 55
2, 255852, Note_off_c, 0, 51, 64
2, 255856, Control_c, 0, 64, 127
2, 255885, Note_off_c, 0, 58, 64
2, 255895, Note_off_c, 0, 63, 64
2, 255948, Note_on_c, 0, 41, 69
2, 256000, Note_off_c, 0, 39, 64
2, 256024, Control_c, 0, 64, 0
2, 256048, Note_on_c, 0, 53, 62
2, 256159, Note_off_c, 0, 53, 64
2, 256178, Control_c, 0, 64, 127
2, 256178, Note_on_c, 0, 65, 35
2, 256255, Note_off_c, 0, 65, 64
2, 256284, Note_on_c, 0, 42, 48
2, 256322, Note_off_c, 0, 41, 64
2, 256380, Control_c, 0, 64, 0
2, 256408, Note_on_c, 0, 54, 53
2, 256524, Note_on_c, 0, 66, 46
2, 256528, Control_c, 0, 64, 127
2, 256548, Note_off_c, 0, 54, 64
2, 256591, Note_off_c, 0, 66, 64
2, 256648, Note_on_c, 0, 43, 44
2, 256653, Note_off_c, 0, 42, 64
2, 256682, Control_c, 0, 64, 0
2, 256744, Note_on_c, 0, 55, 50
2, 256812, Note_off_c, 0, 55, 64
2, 256821, Control_c, 0, 64, 127
2, 256845, Note_on_c, 0, 67, 75
2, 256884, Note_off_c, 0, 67, 64
2, 256912, Note_off_c, 0, 43, 64
2, 257037, Note_on_c, 0, 31, 69
2, 257181, Note_on_c, 0, 43, 64
2, 257277, Note_off_c, 0, 43, 64
2, 257349, Note_on_c, 0, 55, 53
2, 257436, Note_off_c, 0, 55, 64
2, 257503, Note_on_c, 0, 36, 63
2, 257584, Note_off_c, 0, 31, 64
2, 257608, Control_c, 0, 64, 0
2, 257642, Note_on_c, 0, 48, 60
2, 257786, Note_on_c, 0, 51, 54
2, 257834, Control_c, 0, 64, 127
2, 257920, Note_off_c, 0, 51, 64
2, 257944, Note_on_c, 0, 55, 41
2, 258002, Note_off_c, 0, 48, 64
2, 258050, Note_on_c, 0, 51, 39
2, 258069, Note_off_c, 0, 55, 64
2, 258165, Note_off_c, 0, 51, 64
2, 258194, Note_on_c, 0, 48, 41
2, 258300, Note_off_c, 0, 48, 64
2, 258300, Note_on_c, 0, 55, 40
2, 258410, Note_on_c, 0, 51, 52
2, 258420, Note_off_c, 0, 55, 64
2, 258530, Note_off_c, 0, 51, 64
2, 258530, Note_on_c, 0, 48, 54
2, 258602, Note_off_c, 0, 48, 64
2, 258636, Control_c, 0, 64, 0
2, 258669, Note_on_c, 0, 31, 73
2, 258684, Note_on_c, 0, 53, 47
2, 258732, Note_off_c, 0, 36, 64
2, 258784, Note_off_c, 0, 53, 64
2, 258808, Note_on_c, 0, 50, 61
2, 258866, Control_c, 0, 64, 127
2, 258919, Note_on_c, 0, 47, 50
2, 258928, Note_off_c, 0, 50, 64
2, 258928, Control_c, 0, 64, 0
2, 258981, Note_off_c, 0, 47, 64
2, 259044, Note_on_c, 0, 36, 67
2, 259092, Note_off_c, 0, 31, 64
2, 259164, Note_on_c, 0, 43, 65
2, 259293, Note_on_c, 0, 48, 63
2, 259341, Note_off_c, 0, 43, 64
2, 259384, Note_off_c, 0, 48, 64
2, 259413, Note_on_c, 0, 51, 55
2, 259557, Note_on_c, 0, 48, 46
2, 259567, Note_off_c, 0, 51, 64
2, 259653, Note_off_c, 0, 48, 64
2, 259663, Note_on_c, 0, 43, 39
2, 259783, Note_on_c, 0, 51, 49
2, 259812, Note_off_c, 0, 43, 64
2, 259874, Note_off_c, 0, 51, 64
2, 259903, Note_on_c, 0, 48, 43
2, 260013, Note_on_c, 0, 43, 41
2, 260061, Note_off_c, 0, 48, 64
2, 260128, Note_off_c, 0, 43, 64
2, 260181, Note_on_c, 0, 50, 42
2, 260186, Note_on_c, 0, 31, 47
2, 260196, Note_off_c, 0, 36, 64
2, 260330, Note_on_c, 0, 47, 36
2, 260368, Note_off_c, 0, 50, 64
2, 260436, Note_on_c, 0, 43, 47
2, 260498, Note_off_c, 0, 47, 64
2, 260551, Note_off_c, 0, 43, 64
2, 260604, Note_off_c, 0, 31, 64
2, 260647, Note_on_c, 0, 36, 37
2, 260656, Note_on_c, 0, 48, 45
2, 260935, Note_off_c, 0, 36, 64
2, 260940, Control_c, 0, 64, 127
2, 260944, Note_off_c, 0, 48, 64
2, 261079, Control_c, 0, 64, 0
2, 261506, Note_on_c, 0, 43, 34
2, 261511, Note_on_c, 0, 48, 30
2, 261515, Note_on_c, 0, 36, 28
2, 261516, Note_on_c, 0, 39, 23
2, 261650, Control_c, 0, 64, 127
2, 261827, Note_off_c, 0, 36, 64
2, 261847, Note_off_c, 0, 39, 64
2, 261861, Note_off_c, 0, 48, 64
2, 261862, Note_off_c, 0, 43, 64
2, 261924, Control_c, 0, 64, 0
2, 262308, Control_c, 0, 64, 127
2, 262596, Note_on_c, 0, 48, 26
2, 262600, Note_on_c, 0, 43, 19
2, 262608, Note_on_c, 0, 36, 16
2, 262620, Note_on_c, 0, 39, 16
2, 265109, Note_off_c, 0, 36, 64
2, 265159, Note_off_c, 0, 43, 64
2, 265168, Note_off_c, 0, 39, 64
2, 265168, Control_c, 0, 64, 0
2, 265178, Note_off_c, 0, 48, 64
2, 265178, End_track
3, 0, Start_track
3, 0, Title_t, "Track-2"
3, 0, End_track
4, 0, Start_track
4, 0, Title_t, "Track-3"
4, 0, End_track
5, 0, Start_track
5, 0, Title_t, "Track-4"
5, 0, End_track
6, 0, Start_track
6, 0, Title_t, "Track-5"
6, 0, End_track
7, 0, Start_track
7, 0, Title_t, "Track-6"
7, 0, End_track
8, 0, Start_track
8, 0, Title_t, "Track-7"
8, 0, End_track
9, 0, Start_track
9, 0, Title_t, "Track-8"
9, 0, End_track
0, 0, End_of_file
