0, 0, Header, 0, 1, 480
1, 0, Start_track
1, 0, SMPTE_offset, 96, 0, 0, 0, 0
1, 0, Time_signature, 4, 2, 24, 8
1, 0, Key_signature, 0, "major"
1, 0, Tempo, 500000
1, 0, Note_on_c, 0, 72, 39
1, 26, Note_on_c, 0, 60, 16
1, 68, Control_c, 0, 64, 127
1, 230, Note_on_c, 0, 67, 18
1, 408, Note_off_c, 0, 67, 64
1, 440, Note_off_c, 0, 60, 64
1, 468, Note_on_c, 0, 64, 19
1, 588, Note_off_c, 0, 64, 64
1, 678, Note_on_c, 0, 67, 36
1, 818, Note_off_c, 0, 67, 64
1, 876, Note_on_c, 0, 76, 51
1, 920, Note_on_c, 0, 60, 19
1, 928, Control_c, 0, 64, 0
1, 946, Note_off_c, 0, 72, 64
1, 1108, Note_on_c, 0, 67, 32
1, 1278, Note_off_c, 0, 67, 64
1, 1292, Note_on_c, 0, 79, 74
1, 1340, Note_on_c, 0, 64, 29
1, 1352, Note_off_c, 0, 76, 64
1, 1518, Note_off_c, 0, 64, 64
1, 1536, Note_on_c, 0, 67, 39
1, 1710, Note_off_c, 0, 67, 64
1, 1736, Note_on_c, 0, 71, 58
1, 1756, Note_off_c, 0, 60, 64
1, 1758, Note_on_c, 0, 62, 27
1, 1770, Note_off_c, 0, 79, 64
1, 1984, Note_on_c, 0, 67, 31
1, 2156, Note_off_c, 0, 67, 64
1, 2194, Note_on_c, 0, 65, 31
1, 2292, Note_off_c, 0, 65, 64
1, 2420, Note_on_c, 0, 72, 26
1, 2422, Note_off_c, 0, 71, 64
1, 2424, Note_on_c, 0, 67, 29
1, 2486, Note_off_c, 0, 72, 64
1, 2500, Note_on_c, 0, 74, 44
1, 2560, Note_off_c, 0, 67, 64
1, 2590, Note_off_c, 0, 74, 64
1, 2602, Note_off_c, 0, 62, 64
1, 2620, Note_on_c, 0, 72, 31
1, 2646, Note_on_c, 0, 60, 18
1, 2842, Note_on_c, 0, 67, 32
1, 2978, Note_off_c, 0, 72, 64
1, 3002, Control_c, 0, 64, 127
1, 3012, Note_off_c, 0, 60, 64
1, 3064, Note_off_c, 0, 67, 64
1, 3070, Note_on_c, 0, 64, 33
1, 3156, Control_c, 0, 64, 0
1, 3284, Note_on_c, 0, 67, 38
1, 3288, Note_off_c, 0, 64, 64
1, 3496, Note_on_c, 0, 81, 63
1, 3498, Note_off_c, 0, 67, 64
1, 3540, Note_on_c, 0, 60, 18
1, 3714, Note_on_c, 0, 69, 23
1, 3922, Note_off_c, 0, 69, 64
1, 3934, Note_on_c, 0, 65, 31
1, 4132, Note_off_c, 0, 60, 64
1, 4158, Note_on_c, 0, 69, 31
1, 4198, Note_off_c, 0, 65, 64
1, 4392, Note_on_c, 0, 79, 68
1, 4418, Note_off_c, 0, 69, 64
1, 4442, Note_on_c, 0, 60, 22
1, 4502, Note_off_c, 0, 81, 64
1, 4624, Note_on_c, 0, 67, 32
1, 4778, Note_off_c, 0, 67, 64
1, 4804, Note_on_c, 0, 84, 71
1, 4834, Note_on_c, 0, 64, 35
1, 4842, Note_off_c, 0, 79, 64
1, 5042, Note_off_c, 0, 60, 64
1, 5048, Note_on_c, 0, 67, 42
1, 5072, Note_off_c, 0, 64, 64
1, 5218, Note_off_c, 0, 67, 64
1, 5232, Note_on_c, 0, 79, 81
1, 5260, Note_on_c, 0, 59, 31
1, 5280, Note_off_c, 0, 84, 64
1, 5444, Note_on_c, 0, 67, 30
1, 5520, Note_off_c, 0, 79, 64
1, 5576, Note_off_c, 0, 67, 64
1, 5576, Note_on_c, 0, 77, 44
1, 5608, Note_on_c, 0, 79, 59
1, 5622, Note_off_c, 0, 77, 64
1, 5622, Note_on_c, 0, 62, 30
1, 5688, Note_off_c, 0, 59, 64
1, 5692, Note_on_c, 0, 77, 57
1, 5702, Note_off_c, 0, 79, 64
1, 5794, Note_off_c, 0, 77, 64
1, 5802, Note_on_c, 0, 76, 50
1, 5844, Note_on_c, 0, 67, 25
1, 5852, Note_off_c, 0, 62, 64
1, 5858, Note_off_c, 0, 76, 64
1, 5874, Note_on_c, 0, 77, 54
1, 5974, Note_off_c, 0, 67, 64
1, 6012, Note_off_c, 0, 77, 64
1, 6022, Note_on_c, 0, 76, 32
1, 6044, Note_on_c, 0, 60, 23
1, 6268, Note_on_c, 0, 67, 30
1, 6424, Note_off_c, 0, 67, 64
1, 6436, Note_off_c, 0, 60, 64
1, 6480, Note_on_c, 0, 64, 34
1, 6532, Note_off_c, 0, 76, 64
1, 6638, Note_off_c, 0, 64, 64
1, 6686, Note_on_c, 0, 67, 30
1, 6916, Note_on_c, 0, 69, 37
1, 6928, Note_off_c, 0, 67, 64
1, 6948, Note_on_c, 0, 65, 20
1, 7150, Note_off_c, 0, 69, 64
1, 7172, Note_on_c, 0, 71, 50
1, 7230, Note_off_c, 0, 71, 64
1, 7262, Note_on_c, 0, 72, 47
1, 7312, Note_off_c, 0, 72, 64
1, 7315, Note_off_c, 0, 65, 64
1, 7354, Note_on_c, 0, 74, 58
1, 7404, Note_off_c, 0, 74, 64
1, 7452, Note_on_c, 0, 76, 51
1, 7514, Note_off_c, 0, 76, 64
1, 7534, Note_on_c, 0, 77, 53
1, 7628, Note_off_c, 0, 77, 64
1, 7636, Note_on_c, 0, 79, 66
1, 7720, Note_off_c, 0, 79, 64
1, 7728, Note_on_c, 0, 81, 64
1, 7826, Note_on_c, 0, 79, 65
1, 7846, Note_off_c, 0, 81, 64
1, 7922, Note_off_c, 0, 79, 64
1, 7934, Note_on_c, 0, 77, 51
1, 8004, Note_off_c, 0, 77, 64
1, 8036, Note_on_c, 0, 76, 48
1, 8094, Note_off_c, 0, 76, 64
1, 8132, Note_on_c, 0, 74, 53
1, 8140, Note_on_c, 0, 53, 49
1, 8152, Note_on_c, 0, 60, 31
1, 8188, Note_off_c, 0, 74, 64
1, 8220, Note_off_c, 0, 53, 64
1, 8234, Note_on_c, 0, 72, 42
1, 8248, Note_off_c, 0, 60, 64
1, 8324, Note_off_c, 0, 72, 64
1, 8330, Note_on_c, 0, 71, 52
1, 8400, Note_off_c, 0, 71, 64
1, 8446, Note_on_c, 0, 69, 34
1, 8524, Note_off_c, 0, 69, 64
1, 8566, Note_on_c, 0, 67, 48
1, 8576, Note_on_c, 0, 60, 32
1, 8586, Note_on_c, 0, 52, 32
1, 8764, Control_c, 0, 64, 127
1, 8782, Note_off_c, 0, 67, 64
1, 8788, Note_on_c, 0, 69, 43
1, 8804, Note_off_c, 0, 60, 64
1, 8810, Note_off_c, 0, 52, 64
1, 8856, Note_off_c, 0, 69, 64
1, 8882, Note_on_c, 0, 71, 59
1, 8888, Control_c, 0, 64, 0
1, 8934, Note_off_c, 0, 71, 64
1, 8976, Note_on_c, 0, 72, 60
1, 9036, Note_off_c, 0, 72, 64
1, 9078, Note_on_c, 0, 74, 65
1, 9144, Note_off_c, 0, 74, 64
1, 9172, Note_on_c, 0, 76, 48
1, 9266, Note_off_c, 0, 76, 64
1, 9278, Note_on_c, 0, 77, 60
1, 9376, Note_on_c, 0, 79, 78
1, 9396, Note_off_c, 0, 77, 64
1, 9474, Note_on_c, 0, 77, 59
1, 9522, Note_off_c, 0, 79, 64
1, 9584, Note_on_c, 0, 76, 50
1, 9592, Note_off_c, 0, 77, 64
1, 9660, Note_off_c, 0, 76, 64
1, 9688, Note_on_c, 0, 74, 58
1, 9738, Note_off_c, 0, 74, 64
1, 9770, Note_on_c, 0, 60, 42
1, 9776, Note_on_c, 0, 72, 51
1, 9782, Note_on_c, 0, 52, 54
1, 9828, Note_off_c, 0, 52, 64
1, 9832, Note_off_c, 0, 60, 64
1, 9856, Note_off_c, 0, 72, 64
1, 9870, Note_on_c, 0, 71, 59
1, 9948, Note_off_c, 0, 71, 64
1, 9964, Note_on_c, 0, 69, 45
1, 10052, Note_off_c, 0, 69, 64
1, 10074, Note_on_c, 0, 67, 53
1, 10144, Note_off_c, 0, 67, 64
1, 10204, Note_on_c, 0, 65, 47
1, 10207, Note_on_c, 0, 60, 36
1, 10207, Note_on_c, 0, 50, 26
1, 10438, Note_off_c, 0, 65, 64
1, 10440, Control_c, 0, 64, 127
1, 10452, Note_off_c, 0, 60, 64
1, 10455, Note_on_c, 0, 67, 46
1, 10458, Note_off_c, 0, 50, 64
1, 10518, Note_off_c, 0, 67, 64
1, 10544, Note_on_c, 0, 69, 46
1, 10592, Control_c, 0, 64, 0
1, 10602, Note_off_c, 0, 69, 64
1, 10646, Note_on_c, 0, 71, 63
1, 10698, Note_off_c, 0, 71, 64
1, 10750, Note_on_c, 0, 72, 46
1, 10810, Note_off_c, 0, 72, 64
1, 10828, Note_on_c, 0, 74, 57
1, 10902, Note_off_c, 0, 74, 64
1, 10944, Note_on_c, 0, 76, 53
1, 11020, Note_on_c, 0, 77, 74
1, 11032, Note_off_c, 0, 76, 64
1, 11132, Note_on_c, 0, 76, 54
1, 11150, Note_off_c, 0, 77, 64
1, 11244, Note_on_c, 0, 74, 63
1, 11256, Note_off_c, 0, 76, 64
1, 11322, Note_off_c, 0, 74, 64
1, 11342, Note_on_c, 0, 72, 55
1, 11408, Note_off_c, 0, 72, 64
1, 11442, Note_on_c, 0, 71, 61
1, 11445, Note_on_c, 0, 59, 31
1, 11445, Note_on_c, 0, 50, 34
1, 11508, Note_off_c, 0, 71, 64
1, 11514, Note_off_c, 0, 50, 64
1, 11546, Note_on_c, 0, 69, 40
1, 11568, Note_off_c, 0, 59, 64
1, 11632, Note_off_c, 0, 69, 64
1, 11648, Note_on_c, 0, 67, 40
1, 11722, Note_off_c, 0, 67, 64
1, 11740, Note_on_c, 0, 65, 50
1, 11796, Note_off_c, 0, 65, 64
1, 11870, Note_on_c, 0, 64, 61
1, 11878, Note_on_c, 0, 60, 34
1, 11898, Note_on_c, 0, 48, 18
1, 12068, Control_c, 0, 64, 127
1, 12094, Note_off_c, 0, 64, 64
1, 12104, Note_on_c, 0, 65, 44
1, 12162, Note_off_c, 0, 60, 64
1, 12170, Note_off_c, 0, 65, 64
1, 12188, Note_on_c, 0, 67, 55
1, 12206, Note_off_c, 0, 48, 64
1, 12246, Note_off_c, 0, 67, 64
1, 12282, Note_on_c, 0, 69, 51
1, 12298, Control_c, 0, 64, 0
1, 12346, Note_off_c, 0, 69, 64
1, 12388, Note_on_c, 0, 71, 59
1, 12462, Note_off_c, 0, 71, 64
1, 12474, Note_on_c, 0, 72, 51
1, 12578, Note_off_c, 0, 72, 64
1, 12588, Note_on_c, 0, 74, 58
1, 12688, Note_on_c, 0, 76, 56
1, 12704, Note_off_c, 0, 74, 64
1, 12784, Note_on_c, 0, 74, 53
1, 12812, Note_off_c, 0, 76, 64
1, 12894, Note_on_c, 0, 72, 47
1, 12906, Note_off_c, 0, 74, 64
1, 12970, Note_off_c, 0, 72, 64
1, 13012, Note_on_c, 0, 71, 36
1, 13072, Note_off_c, 0, 71, 64
1, 13096, Note_on_c, 0, 69, 39
1, 13108, Note_on_c, 0, 48, 26
1, 13120, Note_on_c, 0, 52, 27
1, 13178, Note_off_c, 0, 69, 64
1, 13202, Note_off_c, 0, 52, 64
1, 13208, Note_off_c, 0, 48, 64
1, 13208, Note_on_c, 0, 67, 37
1, 13304, Note_off_c, 0, 67, 64
1, 13314, Note_on_c, 0, 65, 31
1, 13374, Note_off_c, 0, 65, 64
1, 13406, Note_on_c, 0, 64, 35
1, 13476, Note_off_c, 0, 64, 64
1, 13542, Note_on_c, 0, 62, 36
1, 13544, Note_on_c, 0, 53, 65
1, 13566, Note_on_c, 0, 57, 33
1, 13758, Note_off_c, 0, 62, 64
1, 13808, Note_on_c, 0, 64, 45
1, 13874, Note_off_c, 0, 64, 64
1, 13894, Note_on_c, 0, 65, 54
1, 13948, Note_off_c, 0, 65, 64
1, 13992, Note_on_c, 0, 67, 59
1, 14062, Note_off_c, 0, 67, 64
1, 14096, Note_on_c, 0, 69, 56
1, 14192, Note_on_c, 0, 71, 63
1, 14218, Note_off_c, 0, 69, 64
1, 14284, Note_off_c, 0, 71, 64
1, 14284, Note_on_c, 0, 73, 62
1, 14404, Note_on_c, 0, 74, 78
1, 14420, Note_off_c, 0, 73, 64
1, 14502, Note_on_c, 0, 69, 62
1, 14522, Note_off_c, 0, 74, 64
1, 14592, Note_on_c, 0, 71, 79
1, 14608, Note_off_c, 0, 69, 64
1, 14688, Note_on_c, 0, 73, 78
1, 14714, Note_off_c, 0, 71, 64
1, 14796, Note_off_c, 0, 73, 64
1, 14798, Note_on_c, 0, 74, 88
1, 14854, Note_off_c, 0, 74, 64
1, 14898, Note_on_c, 0, 76, 74
1, 14990, Note_on_c, 0, 77, 82
1, 14996, Note_off_c, 0, 76, 64
1, 14999, Note_off_c, 0, 53, 64
1, 15040, Note_off_c, 0, 77, 64
1, 15082, Note_on_c, 0, 79, 81
1, 15144, Note_off_c, 0, 79, 64
1, 15170, Note_off_c, 0, 57, 64
1, 15196, Note_on_c, 0, 53, 88
1, 15202, Note_on_c, 0, 81, 79
1, 15316, Note_on_c, 0, 83, 89
1, 15332, Note_off_c, 0, 81, 64
1, 15420, Note_on_c, 0, 84, 74
1, 15436, Note_off_c, 0, 83, 64
1, 15520, Note_on_c, 0, 83, 76
1, 15564, Note_off_c, 0, 84, 64
1, 15634, Note_on_c, 0, 81, 60
1, 15642, Note_off_c, 0, 83, 64
1, 15692, Note_off_c, 0, 81, 64
1, 15738, Note_on_c, 0, 79, 66
1, 15794, Note_off_c, 0, 79, 64
1, 15808, Note_off_c, 0, 53, 64
1, 15844, Note_on_c, 0, 77, 63
1, 15844, Note_on_c, 0, 55, 55
1, 15936, Note_off_c, 0, 77, 64
1, 15950, Note_on_c, 0, 76, 56
1, 16008, Note_off_c, 0, 76, 64
1, 16044, Note_off_c, 0, 55, 64
1, 16048, Note_on_c, 0, 77, 62
1, 16060, Note_on_c, 0, 57, 50
1, 16156, Note_on_c, 0, 79, 85
1, 16186, Note_off_c, 0, 77, 64
1, 16258, Note_off_c, 0, 79, 64
1, 16258, Note_on_c, 0, 81, 70
1, 16346, Note_on_c, 0, 79, 65
1, 16388, Note_off_c, 0, 81, 64
1, 16462, Note_on_c, 0, 77, 72
1, 16472, Note_off_c, 0, 79, 64
1, 16566, Note_on_c, 0, 76, 63
1, 16580, Note_off_c, 0, 77, 64
1, 16624, Note_off_c, 0, 57, 64
1, 16636, Note_off_c, 0, 76, 64
1, 16652, Note_on_c, 0, 54, 55
1, 16664, Note_on_c, 0, 74, 64
1, 16702, Note_off_c, 0, 54, 64
1, 16724, Note_off_c, 0, 74, 64
1, 16754, Control_c, 0, 64, 127
1, 16758, Note_on_c, 0, 72, 66
1, 16814, Note_off_c, 0, 72, 64
1, 16814, Control_c, 0, 64, 0
1, 16856, Note_on_c, 0, 71, 83
1, 16862, Note_on_c, 0, 43, 58
1, 16974, Note_off_c, 0, 43, 64
1, 16974, Note_on_c, 0, 47, 55
1, 17040, Note_off_c, 0, 47, 64
1, 17058, Note_on_c, 0, 50, 59
1, 17061, Note_off_c, 0, 71, 64
1, 17070, Note_on_c, 0, 79, 77
1, 17126, Note_off_c, 0, 50, 64
1, 17126, Note_off_c, 0, 79, 64
1, 17140, Note_on_c, 0, 55, 63
1, 17210, Note_off_c, 0, 55, 64
1, 17268, Note_on_c, 0, 43, 69
1, 17274, Note_on_c, 0, 76, 73
1, 17320, Note_off_c, 0, 76, 64
1, 17368, Note_on_c, 0, 48, 62
1, 17380, Note_off_c, 0, 43, 64
1, 17478, Note_on_c, 0, 72, 73
1, 17488, Note_on_c, 0, 52, 78
1, 17494, Note_off_c, 0, 48, 64
1, 17528, Note_off_c, 0, 72, 64
1, 17584, Note_off_c, 0, 52, 64
1, 17592, Note_on_c, 0, 55, 56
1, 17666, Note_off_c, 0, 55, 64
1, 17694, Note_on_c, 0, 74, 87
1, 17704, Note_on_c, 0, 43, 73
1, 17800, Note_on_c, 0, 47, 65
1, 17824, Note_off_c, 0, 43, 64
1, 17898, Note_off_c, 0, 74, 64
1, 17898, Note_on_c, 0, 50, 76
1, 17908, Note_on_c, 0, 79, 91
1, 17926, Note_off_c, 0, 47, 64
1, 17980, Note_off_c, 0, 79, 64
1, 18022, Note_on_c, 0, 55, 47
1, 18036, Note_off_c, 0, 50, 64
1, 18088, Note_off_c, 0, 55, 64
1, 18124, Note_on_c, 0, 76, 78
1, 18132, Note_on_c, 0, 43, 78
1, 18178, Note_off_c, 0, 76, 64
1, 18212, Note_on_c, 0, 48, 73
1, 18232, Note_off_c, 0, 43, 64
1, 18326, Note_on_c, 0, 52, 79
1, 18328, Note_on_c, 0, 72, 78
1, 18348, Note_off_c, 0, 48, 64
1, 18420, Note_off_c, 0, 52, 64
1, 18426, Note_off_c, 0, 72, 64
1, 18430, Note_on_c, 0, 55, 73
1, 18516, Note_off_c, 0, 55, 64
1, 18550, Note_on_c, 0, 74, 92
1, 18556, Note_on_c, 0, 43, 91
1, 18592, Note_off_c, 0, 43, 64
1, 18644, Control_c, 0, 64, 127
1, 18674, Control_c, 0, 64, 0
1, 18692, Note_off_c, 0, 74, 64
1, 18996, Note_on_c, 0, 79, 91
1, 18996, Note_on_c, 0, 71, 81
1, 19002, Note_on_c, 0, 74, 76
1, 19012, Note_on_c, 0, 55, 73
1, 19058, Note_off_c, 0, 71, 64
1, 19090, Note_off_c, 0, 55, 64
1, 19090, Control_c, 0, 64, 127
1, 19112, Note_off_c, 0, 74, 64
1, 19126, Note_off_c, 0, 79, 64
1, 19196, Control_c, 0, 64, 0
1, 19484, Note_on_c, 0, 67, 80
1, 19490, Note_on_c, 0, 43, 55
1, 19538, Note_off_c, 0, 43, 64
1, 19550, Control_c, 0, 64, 127
1, 19576, Note_off_c, 0, 67, 64
1, 19950, Control_c, 0, 64, 0
1, 20570, Note_on_c, 0, 61, 46
1, 20686, Note_off_c, 0, 61, 64
1, 20708, Note_on_c, 0, 62, 39
1, 20782, Note_off_c, 0, 62, 64
1, 20798, Note_on_c, 0, 61, 26
1, 20910, Note_off_c, 0, 61, 64
1, 20926, Note_on_c, 0, 62, 29
1, 20998, Note_off_c, 0, 62, 64
1, 21002, Note_on_c, 0, 61, 35
1, 21120, Note_off_c, 0, 61, 64
1, 21124, Note_on_c, 0, 62, 32
1, 21192, Note_off_c, 0, 62, 64
1, 21214, Note_on_c, 0, 61, 41
1, 21318, Note_off_c, 0, 61, 64
1, 21332, Note_on_c, 0, 62, 41
1, 21402, Note_off_c, 0, 62, 64
1, 21446, Note_on_c, 0, 60, 58
1, 21518, Note_off_c, 0, 60, 64
1, 21556, Note_on_c, 0, 62, 47
1, 21614, Note_off_c, 0, 62, 64
1, 21656, Note_on_c, 0, 60, 41
1, 21728, Note_off_c, 0, 60, 64
1, 21760, Note_on_c, 0, 62, 43
1, 21820, Note_off_c, 0, 62, 64
1, 21864, Note_on_c, 0, 60, 33
1, 21934, Note_off_c, 0, 60, 64
1, 21968, Note_on_c, 0, 62, 44
1, 22026, Note_off_c, 0, 62, 64
1, 22084, Note_on_c, 0, 60, 23
1, 22160, Note_off_c, 0, 60, 64
1, 22206, Note_on_c, 0, 62, 41
1, 22272, Note_off_c, 0, 62, 64
1, 22324, Note_on_c, 0, 86, 60
1, 22342, Note_on_c, 0, 59, 28
1, 22406, Note_off_c, 0, 59, 64
1, 22456, Note_on_c, 0, 62, 34
1, 22522, Note_off_c, 0, 62, 64
1, 22546, Note_on_c, 0, 83, 85
1, 22574, Note_on_c, 0, 59, 27
1, 22608, Note_off_c, 0, 86, 64
1, 22636, Note_off_c, 0, 59, 64
1, 22684, Note_on_c, 0, 62, 33
1, 22746, Note_off_c, 0, 62, 64
1, 22764, Note_on_c, 0, 79, 79
1, 22792, Note_on_c, 0, 59, 29
1, 22795, Note_off_c, 0, 83, 64
1, 22852, Note_off_c, 0, 59, 64
1, 22904, Note_on_c, 0, 62, 31
1, 22966, Note_off_c, 0, 62, 64
1, 22993, Note_on_c, 0, 59, 33
1, 23054, Note_off_c, 0, 59, 64
1, 23100, Note_on_c, 0, 62, 26
1, 23170, Note_off_c, 0, 62, 64
1, 23226, Note_on_c, 0, 59, 31
1, 23286, Note_off_c, 0, 59, 64
1, 23336, Note_on_c, 0, 62, 36
1, 23396, Note_off_c, 0, 62, 64
1, 23440, Note_on_c, 0, 81, 45
1, 23443, Note_on_c, 0, 59, 30
1, 23450, Note_off_c, 0, 79, 64
1, 23494, Note_off_c, 0, 81, 64
1, 23504, Note_off_c, 0, 59, 64
1, 23526, Note_on_c, 0, 83, 65
1, 23552, Note_on_c, 0, 62, 33
1, 23606, Note_on_c, 0, 81, 43
1, 23612, Note_off_c, 0, 62, 64
1, 23614, Note_off_c, 0, 83, 64
1, 23632, Note_on_c, 0, 59, 32
1, 23698, Note_off_c, 0, 59, 64
1, 23736, Note_on_c, 0, 62, 26
1, 23807, Note_off_c, 0, 62, 64
1, 23814, Note_off_c, 0, 81, 64
1, 23832, Note_on_c, 0, 79, 60
1, 23872, Note_on_c, 0, 59, 10
1, 23890, Note_off_c, 0, 79, 64
1, 23922, Note_on_c, 0, 62, 30
1, 23925, Note_on_c, 0, 81, 48
1, 23938, Note_off_c, 0, 59, 64
1, 23974, Note_off_c, 0, 81, 64
1, 23990, Note_on_c, 0, 79, 66
1, 23996, Note_off_c, 0, 62, 64
1, 24044, Note_off_c, 0, 79, 64
1, 24044, Note_on_c, 0, 60, 33
1, 24058, Note_on_c, 0, 81, 42
1, 24108, Note_off_c, 0, 81, 64
1, 24130, Note_off_c, 0, 60, 64
1, 24136, Note_on_c, 0, 79, 30
1, 24166, Note_on_c, 0, 62, 32
1, 24178, Note_on_c, 0, 81, 63
1, 24200, Note_off_c, 0, 79, 64
1, 24234, Note_off_c, 0, 62, 64
1, 24250, Note_off_c, 0, 81, 64
1, 24262, Note_on_c, 0, 59, 36
1, 24274, Note_on_c, 0, 79, 29
1, 24322, Note_on_c, 0, 78, 60
1, 24334, Note_off_c, 0, 59, 64
1, 24346, Note_off_c, 0, 79, 64
1, 24368, Note_off_c, 0, 78, 64
1, 24386, Note_on_c, 0, 62, 24
1, 24432, Note_on_c, 0, 78, 52
1, 24456, Note_off_c, 0, 62, 64
1, 24490, Note_on_c, 0, 57, 36
1, 24560, Note_off_c, 0, 57, 64
1, 24584, Note_on_c, 0, 62, 34
1, 24654, Note_off_c, 0, 62, 64
1, 24684, Note_on_c, 0, 59, 37
1, 24744, Note_off_c, 0, 59, 64
1, 24756, Note_on_c, 0, 62, 38
1, 24842, Note_off_c, 0, 62, 64
1, 24884, Note_on_c, 0, 60, 52
1, 24972, Note_off_c, 0, 60, 64
1, 25006, Note_on_c, 0, 62, 45
1, 25068, Note_off_c, 0, 62, 64
1, 25102, Note_on_c, 0, 59, 49
1, 25162, Note_off_c, 0, 59, 64
1, 25214, Note_on_c, 0, 62, 41
1, 25280, Note_off_c, 0, 62, 64
1, 25288, Note_off_c, 0, 78, 64
1, 25312, Note_on_c, 0, 60, 52
1, 25400, Note_off_c, 0, 60, 64
1, 25418, Note_on_c, 0, 62, 44
1, 25492, Note_off_c, 0, 62, 64
1, 25542, Note_on_c, 0, 57, 32
1, 25614, Note_off_c, 0, 57, 64
1, 25640, Note_on_c, 0, 62, 33
1, 25718, Note_off_c, 0, 62, 64
1, 25762, Note_on_c, 0, 86, 54
1, 25788, Control_c, 0, 64, 127
1, 25798, Note_on_c, 0, 59, 21
1, 25864, Note_off_c, 0, 59, 64
1, 25900, Note_on_c, 0, 62, 36
1, 25962, Note_off_c, 0, 62, 64
1, 25988, Control_c, 0, 64, 0
1, 26018, Note_on_c, 0, 83, 69
1, 26050, Note_on_c, 0, 59, 17
1, 26068, Note_off_c, 0, 86, 64
1, 26120, Note_off_c, 0, 59, 64
1, 26138, Note_on_c, 0, 62, 42
1, 26202, Note_off_c, 0, 62, 64
1, 26228, Note_on_c, 0, 79, 68
1, 26236, Note_on_c, 0, 59, 37
1, 26248, Note_off_c, 0, 83, 64
1, 26250, Control_c, 0, 64, 127
1, 26300, Note_off_c, 0, 59, 64
1, 26372, Control_c, 0, 64, 0
1, 26374, Note_on_c, 0, 62, 31
1, 26438, Note_off_c, 0, 62, 64
1, 26466, Note_on_c, 0, 59, 48
1, 26522, Note_off_c, 0, 59, 64
1, 26556, Note_on_c, 0, 62, 29
1, 26644, Note_off_c, 0, 62, 64
1, 26666, Note_on_c, 0, 59, 49
1, 26726, Note_off_c, 0, 59, 64
1, 26764, Note_on_c, 0, 62, 39
1, 26842, Note_off_c, 0, 62, 64
1, 26874, Note_on_c, 0, 81, 75
1, 26878, Note_on_c, 0, 59, 50
1, 26898, Note_off_c, 0, 79, 64
1, 26936, Note_off_c, 0, 59, 64
1, 26944, Note_off_c, 0, 81, 64
1, 26960, Note_on_c, 0, 83, 88
1, 26976, Note_on_c, 0, 62, 44
1, 27040, Note_off_c, 0, 62, 64
1, 27066, Note_on_c, 0, 81, 79
1, 27084, Note_on_c, 0, 59, 40
1, 27090, Note_off_c, 0, 83, 64
1, 27144, Note_off_c, 0, 59, 64
1, 27182, Note_on_c, 0, 62, 44
1, 27240, Note_off_c, 0, 62, 64
1, 27262, Note_off_c, 0, 81, 64
1, 27274, Note_on_c, 0, 79, 81
1, 27277, Note_on_c, 0, 59, 46
1, 27336, Note_off_c, 0, 59, 64
1, 27346, Note_off_c, 0, 79, 64
1, 27378, Note_on_c, 0, 62, 44
1, 27402, Note_on_c, 0, 81, 56
1, 27434, Note_off_c, 0, 62, 64
1, 27450, Note_off_c, 0, 81, 64
1, 27458, Note_on_c, 0, 79, 66
1, 27480, Note_on_c, 0, 60, 46
1, 27508, Note_off_c, 0, 79, 64
1, 27516, Note_on_c, 0, 81, 59
1, 27564, Note_off_c, 0, 60, 64
1, 27578, Note_off_c, 0, 81, 64
1, 27580, Note_on_c, 0, 62, 45
1, 27582, Note_on_c, 0, 79, 58
1, 27634, Note_off_c, 0, 79, 64
1, 27648, Note_off_c, 0, 62, 64
1, 27658, Note_on_c, 0, 81, 59
1, 27704, Note_on_c, 0, 79, 61
1, 27707, Note_on_c, 0, 59, 39
1, 27732, Note_off_c, 0, 81, 64
1, 27770, Note_off_c, 0, 59, 64
1, 27806, Note_on_c, 0, 78, 58
1, 27809, Note_off_c, 0, 79, 64
1, 27812, Note_on_c, 0, 62, 45
1, 27852, Note_off_c, 0, 78, 64
1, 27880, Note_off_c, 0, 62, 64
1, 27908, Note_on_c, 0, 78, 66
1, 27928, Note_on_c, 0, 57, 43
1, 27996, Note_off_c, 0, 57, 64
1, 28046, Note_on_c, 0, 62, 39
1, 28106, Note_off_c, 0, 62, 64
1, 28128, Note_on_c, 0, 59, 54
1, 28186, Note_off_c, 0, 59, 64
1, 28218, Note_on_c, 0, 62, 34
1, 28308, Note_off_c, 0, 62, 64
1, 28336, Note_on_c, 0, 60, 60
1, 28442, Note_off_c, 0, 60, 64
1, 28452, Note_on_c, 0, 62, 52
1, 28518, Note_off_c, 0, 62, 64
1, 28552, Note_on_c, 0, 59, 46
1, 28614, Note_off_c, 0, 59, 64
1, 28662, Note_on_c, 0, 62, 32
1, 28732, Note_off_c, 0, 62, 64
1, 28762, Note_on_c, 0, 60, 45
1, 28834, Note_off_c, 0, 78, 64
1, 28840, Note_off_c, 0, 60, 64
1, 28860, Note_on_c, 0, 62, 35
1, 28942, Note_off_c, 0, 62, 64
1, 28998, Note_on_c, 0, 57, 19
1, 29070, Note_off_c, 0, 57, 64
1, 29088, Note_on_c, 0, 62, 44
1, 29144, Note_off_c, 0, 62, 64
1, 29216, Note_on_c, 0, 86, 61
1, 29332, Note_on_c, 0, 59, 37
1, 29396, Note_off_c, 0, 59, 64
1, 29414, Control_c, 0, 64, 127
1, 29442, Note_on_c, 0, 62, 30
1, 29506, Note_off_c, 0, 62, 64
1, 29528, Note_on_c, 0, 67, 50
1, 29598, Note_off_c, 0, 67, 64
1, 29640, Note_off_c, 0, 86, 64
1, 29666, Note_on_c, 0, 71, 66
1, 29764, Note_off_c, 0, 71, 64
1, 29768, Note_on_c, 0, 86, 62
1, 29876, Control_c, 0, 64, 0
1, 29882, Note_on_c, 0, 83, 84
1, 29888, Note_off_c, 0, 86, 64
1, 29986, Note_on_c, 0, 79, 74
1, 30014, Note_off_c, 0, 83, 64
1, 30110, Note_off_c, 0, 79, 64
1, 30118, Note_on_c, 0, 76, 66
1, 30210, Note_on_c, 0, 60, 54
1, 30326, Note_on_c, 0, 64, 61
1, 30338, Note_off_c, 0, 60, 64
1, 30398, Control_c, 0, 64, 127
1, 30412, Note_off_c, 0, 64, 64
1, 30442, Note_on_c, 0, 67, 50
1, 30510, Note_off_c, 0, 76, 64
1, 30518, Note_off_c, 0, 67, 64
1, 30546, Note_on_c, 0, 72, 61
1, 30648, Note_on_c, 0, 76, 70
1, 30680, Note_off_c, 0, 72, 64
1, 30690, Control_c, 0, 64, 0
1, 30754, Note_on_c, 0, 79, 85
1, 30757, Note_off_c, 0, 76, 64
1, 30864, Note_on_c, 0, 76, 62
1, 30878, Note_off_c, 0, 79, 64
1, 31002, Note_off_c, 0, 76, 64
1, 31010, Note_on_c, 0, 84, 78
1, 31100, Note_on_c, 0, 57, 44
1, 31226, Note_off_c, 0, 57, 64
1, 31226, Note_on_c, 0, 60, 50
1, 31258, Control_c, 0, 64, 127
1, 31322, Note_off_c, 0, 60, 64
1, 31352, Note_on_c, 0, 66, 34
1, 31404, Note_off_c, 0, 84, 64
1, 31446, Note_off_c, 0, 66, 64
1, 31486, Note_on_c, 0, 69, 37
1, 31590, Note_off_c, 0, 69, 64
1, 31594, Note_on_c, 0, 84, 64
1, 31628, Control_c, 0, 64, 0
1, 31678, Note_off_c, 0, 84, 64
1, 31714, Note_on_c, 0, 81, 47
1, 31826, Note_on_c, 0, 78, 50
1, 31840, Note_off_c, 0, 81, 64
1, 31936, Note_off_c, 0, 78, 64
1, 31966, Note_on_c, 0, 74, 56
1, 32048, Note_on_c, 0, 59, 35
1, 32154, Note_off_c, 0, 59, 64
1, 32168, Note_on_c, 0, 62, 48
1, 32212, Control_c, 0, 64, 127
1, 32246, Note_off_c, 0, 62, 64
1, 32276, Note_on_c, 0, 66, 39
1, 32342, Note_off_c, 0, 74, 64
1, 32358, Note_off_c, 0, 66, 64
1, 32398, Note_on_c, 0, 71, 58
1, 32498, Note_on_c, 0, 74, 71
1, 32564, Control_c, 0, 64, 0
1, 32604, Note_on_c, 0, 78, 70
1, 32610, Note_off_c, 0, 71, 64
1, 32616, Note_off_c, 0, 74, 64
1, 32710, Note_on_c, 0, 74, 59
1, 32716, Note_off_c, 0, 78, 64
1, 32854, Note_off_c, 0, 74, 64
1, 32854, Note_on_c, 0, 83, 97
1, 32936, Note_on_c, 0, 55, 45
1, 33048, Note_on_c, 0, 59, 57
1, 33051, Note_off_c, 0, 55, 64
1, 33118, Control_c, 0, 64, 127
1, 33162, Note_off_c, 0, 59, 64
1, 33178, Note_on_c, 0, 64, 52
1, 33228, Note_off_c, 0, 83, 64
1, 33266, Note_off_c, 0, 64, 64
1, 33304, Note_on_c, 0, 67, 58
1, 33430, Note_off_c, 0, 67, 64
1, 33430, Note_on_c, 0, 83, 95
1, 33502, Control_c, 0, 64, 0
1, 33536, Note_on_c, 0, 79, 79
1, 33548, Note_off_c, 0, 83, 64
1, 33658, Note_on_c, 0, 76, 63
1, 33666, Note_off_c, 0, 79, 64
1, 33774, Note_on_c, 0, 72, 60
1, 33792, Note_off_c, 0, 76, 64
1, 33884, Note_on_c, 0, 57, 48
1, 33988, Note_on_c, 0, 60, 58
1, 34002, Note_off_c, 0, 57, 64
1, 34070, Control_c, 0, 64, 127
1, 34074, Note_off_c, 0, 60, 64
1, 34106, Note_on_c, 0, 64, 55
1, 34136, Note_off_c, 0, 72, 64
1, 34168, Note_off_c, 0, 64, 64
1, 34210, Note_on_c, 0, 69, 50
1, 34322, Note_on_c, 0, 72, 63
1, 34386, Note_off_c, 0, 69, 64
1, 34400, Note_off_c, 0, 72, 64
1, 34426, Note_on_c, 0, 76, 65
1, 34470, Control_c, 0, 64, 0
1, 34540, Note_on_c, 0, 72, 68
1, 34546, Note_off_c, 0, 76, 64
1, 34678, Note_off_c, 0, 72, 64
1, 34698, Note_on_c, 0, 81, 57
1, 34778, Note_on_c, 0, 54, 37
1, 34868, Note_off_c, 0, 54, 64
1, 34900, Note_on_c, 0, 57, 28
1, 34962, Control_c, 0, 64, 127
1, 34980, Note_off_c, 0, 57, 64
1, 35014, Note_on_c, 0, 62, 36
1, 35050, Note_off_c, 0, 81, 64
1, 35088, Note_off_c, 0, 62, 64
1, 35146, Note_on_c, 0, 66, 34
1, 35272, Note_on_c, 0, 81, 48
1, 35334, Note_off_c, 0, 66, 64
1, 35364, Note_off_c, 0, 81, 64
1, 35374, Note_on_c, 0, 78, 43
1, 35377, Control_c, 0, 64, 0
1, 35462, Note_off_c, 0, 78, 64
1, 35506, Note_on_c, 0, 74, 38
1, 35580, Note_off_c, 0, 74, 64
1, 35630, Note_on_c, 0, 71, 55
1, 35736, Note_on_c, 0, 55, 40
1, 35844, Note_off_c, 0, 55, 64
1, 35848, Note_on_c, 0, 59, 28
1, 35924, Note_off_c, 0, 59, 64
1, 35936, Note_on_c, 0, 62, 42
1, 36002, Note_off_c, 0, 62, 64
1, 36068, Note_on_c, 0, 67, 49
1, 36090, Note_off_c, 0, 71, 64
1, 36160, Control_c, 0, 64, 127
1, 36210, Note_on_c, 0, 79, 65
1, 36242, Note_off_c, 0, 67, 64
1, 36292, Note_off_c, 0, 79, 64
1, 36334, Note_on_c, 0, 74, 57
1, 36418, Note_off_c, 0, 74, 64
1, 36448, Note_on_c, 0, 71, 43
1, 36484, Control_c, 0, 64, 0
1, 36514, Note_off_c, 0, 71, 64
1, 36526, Note_on_c, 0, 60, 45
1, 36526, Note_on_c, 0, 64, 44
1, 36529, Note_on_c, 0, 69, 51
1, 36578, Note_off_c, 0, 64, 64
1, 36582, Note_off_c, 0, 60, 64
1, 36752, Note_on_c, 0, 64, 51
1, 36755, Note_on_c, 0, 60, 46
1, 36808, Note_off_c, 0, 64, 64
1, 36818, Note_off_c, 0, 60, 64
1, 36978, Note_on_c, 0, 64, 47
1, 36994, Note_on_c, 0, 60, 42
1, 37034, Note_off_c, 0, 64, 64
1, 37056, Note_off_c, 0, 60, 64
1, 37216, Note_on_c, 0, 64, 29
1, 37224, Note_on_c, 0, 60, 27
1, 37236, Note_off_c, 0, 69, 64
1, 37280, Note_off_c, 0, 64, 64
1, 37292, Note_off_c, 0, 60, 64
1, 37408, Note_on_c, 0, 71, 49
1, 37416, Note_on_c, 0, 72, 54
1, 37426, Note_on_c, 0, 64, 60
1, 37432, Note_on_c, 0, 60, 43
1, 37464, Note_off_c, 0, 71, 64
1, 37482, Note_off_c, 0, 64, 64
1, 37490, Note_off_c, 0, 60, 64
1, 37504, Note_off_c, 0, 72, 64
1, 37652, Note_on_c, 0, 64, 50
1, 37655, Note_on_c, 0, 60, 53
1, 37706, Note_off_c, 0, 64, 64
1, 37714, Note_off_c, 0, 60, 64
1, 37844, Note_on_c, 0, 75, 52
1, 37862, Note_on_c, 0, 76, 78
1, 37868, Note_on_c, 0, 64, 54
1, 37892, Note_on_c, 0, 60, 40
1, 37906, Note_off_c, 0, 75, 64
1, 37918, Note_off_c, 0, 64, 64
1, 37958, Note_off_c, 0, 60, 64
1, 37968, Note_off_c, 0, 76, 64
1, 38086, Note_on_c, 0, 64, 51
1, 38092, Note_on_c, 0, 60, 25
1, 38140, Note_off_c, 0, 64, 64
1, 38160, Note_off_c, 0, 60, 64
1, 38286, Note_on_c, 0, 80, 67
1, 38308, Note_on_c, 0, 64, 50
1, 38314, Note_on_c, 0, 60, 47
1, 38316, Note_on_c, 0, 81, 82
1, 38346, Note_off_c, 0, 80, 64
1, 38360, Note_off_c, 0, 64, 64
1, 38372, Note_off_c, 0, 60, 64
1, 38526, Note_on_c, 0, 64, 52
1, 38540, Note_on_c, 0, 60, 51
1, 38582, Note_off_c, 0, 64, 64
1, 38596, Note_off_c, 0, 60, 64
1, 38754, Note_on_c, 0, 64, 42
1, 38766, Note_on_c, 0, 60, 37
1, 38806, Note_off_c, 0, 81, 64
1, 38806, Note_off_c, 0, 64, 64
1, 38832, Note_off_c, 0, 60, 64
1, 38954, Note_on_c, 0, 83, 84
1, 38976, Note_on_c, 0, 60, 33
1, 38980, Note_on_c, 0, 64, 49
1, 39002, Note_on_c, 0, 81, 60
1, 39012, Note_off_c, 0, 83, 64
1, 39036, Note_off_c, 0, 64, 64
1, 39042, Note_off_c, 0, 60, 64
1, 39046, Note_off_c, 0, 81, 64
1, 39056, Note_on_c, 0, 80, 66
1, 39126, Note_on_c, 0, 81, 49
1, 39164, Note_off_c, 0, 80, 64
1, 39190, Note_on_c, 0, 60, 41
1, 39196, Note_on_c, 0, 64, 50
1, 39200, Note_on_c, 0, 84, 93
1, 39238, Note_off_c, 0, 81, 64
1, 39244, Note_off_c, 0, 64, 64
1, 39252, Note_off_c, 0, 60, 64
1, 39410, Note_on_c, 0, 81, 76
1, 39416, Note_on_c, 0, 60, 57
1, 39416, Note_on_c, 0, 64, 50
1, 39432, Note_off_c, 0, 84, 64
1, 39454, Note_off_c, 0, 81, 64
1, 39470, Note_off_c, 0, 60, 64
1, 39470, Note_off_c, 0, 64, 64
1, 39636, Note_on_c, 0, 84, 92
1, 39640, Note_on_c, 0, 60, 56
1, 39642, Note_on_c, 0, 64, 56
1, 39694, Note_off_c, 0, 64, 64
1, 39708, Note_off_c, 0, 60, 64
1, 39858, Note_on_c, 0, 81, 79
1, 39864, Note_on_c, 0, 60, 67
1, 39880, Note_on_c, 0, 64, 49
1, 39892, Note_off_c, 0, 84, 64
1, 39910, Note_off_c, 0, 60, 64
1, 39928, Note_off_c, 0, 64, 64
1, 39998, Note_off_c, 0, 81, 64
1, 40082, Note_on_c, 0, 83, 108
1, 40085, Note_on_c, 0, 62, 60
1, 40146, Note_off_c, 0, 62, 64
1, 40168, Note_off_c, 0, 83, 64
1, 40216, Note_on_c, 0, 71, 42
1, 40280, Note_off_c, 0, 71, 64
1, 40298, Note_on_c, 0, 79, 89
1, 40314, Note_on_c, 0, 67, 44
1, 40364, Note_off_c, 0, 79, 64
1, 40384, Note_off_c, 0, 67, 64
1, 40440, Note_on_c, 0, 71, 48
1, 40512, Note_off_c, 0, 71, 64
1, 40542, Note_on_c, 0, 86, 90
1, 40572, Note_on_c, 0, 62, 37
1, 40602, Control_c, 0, 64, 127
1, 40632, Note_off_c, 0, 62, 64
1, 40682, Note_on_c, 0, 71, 49
1, 40744, Note_off_c, 0, 71, 64
1, 40794, Note_on_c, 0, 67, 30
1, 40862, Note_off_c, 0, 67, 64
1, 40926, Note_on_c, 0, 71, 32
1, 41000, Note_off_c, 0, 71, 64
1, 41020, Note_on_c, 0, 62, 39
1, 41080, Note_off_c, 0, 62, 64
1, 41122, Note_on_c, 0, 71, 31
1, 41196, Note_off_c, 0, 71, 64
1, 41248, Note_on_c, 0, 67, 29
1, 41318, Note_off_c, 0, 67, 64
1, 41342, Note_on_c, 0, 71, 48
1, 41410, Note_off_c, 0, 71, 64
1, 41450, Note_on_c, 0, 84, 63
1, 41474, Note_off_c, 0, 86, 64
1, 41480, Note_on_c, 0, 62, 25
1, 41556, Note_off_c, 0, 62, 64
1, 41566, Note_on_c, 0, 83, 76
1, 41580, Note_on_c, 0, 71, 44
1, 41582, Note_off_c, 0, 84, 64
1, 41638, Note_off_c, 0, 83, 64
1, 41644, Note_off_c, 0, 71, 64
1, 41668, Note_on_c, 0, 81, 55
1, 41684, Note_on_c, 0, 67, 29
1, 41722, Note_off_c, 0, 81, 64
1, 41754, Note_off_c, 0, 67, 64
1, 41754, Note_on_c, 0, 79, 69
1, 41763, Note_on_c, 0, 71, 39
1, 41784, Control_c, 0, 64, 0
1, 41806, Note_off_c, 0, 79, 64
1, 41830, Note_off_c, 0, 71, 64
1, 41850, Note_on_c, 0, 83, 97
1, 41884, Note_on_c, 0, 62, 38
1, 41890, Note_off_c, 0, 83, 64
1, 41936, Note_on_c, 0, 81, 45
1, 41974, Note_off_c, 0, 62, 64
1, 41974, Note_on_c, 0, 72, 42
1, 41992, Note_off_c, 0, 81, 64
1, 41992, Note_on_c, 0, 83, 80
1, 42030, Control_c, 0, 64, 127
1, 42036, Note_off_c, 0, 83, 64
1, 42054, Note_off_c, 0, 72, 64
1, 42062, Note_on_c, 0, 81, 50
1, 42106, Note_on_c, 0, 66, 22
1, 42112, Note_off_c, 0, 81, 64
1, 42116, Note_on_c, 0, 83, 75
1, 42172, Note_off_c, 0, 83, 64
1, 42198, Note_off_c, 0, 66, 64
1, 42204, Note_on_c, 0, 81, 24
1, 42220, Note_on_c, 0, 72, 32
1, 42254, Note_on_c, 0, 83, 85
1, 42266, Note_off_c, 0, 81, 64
1, 42286, Note_off_c, 0, 72, 64
1, 42318, Note_off_c, 0, 83, 64
1, 42342, Note_on_c, 0, 81, 51
1, 42345, Note_on_c, 0, 62, 25
1, 42412, Note_off_c, 0, 81, 64
1, 42418, Note_off_c, 0, 62, 64
1, 42436, Note_on_c, 0, 83, 80
1, 42440, Note_on_c, 0, 72, 37
1, 42480, Note_off_c, 0, 83, 64
1, 42502, Note_on_c, 0, 81, 49
1, 42504, Note_off_c, 0, 72, 64
1, 42524, Note_on_c, 0, 66, 32
1, 42562, Note_off_c, 0, 81, 64
1, 42588, Note_on_c, 0, 83, 79
1, 42594, Note_off_c, 0, 66, 64
1, 42634, Note_off_c, 0, 83, 64
1, 42644, Note_on_c, 0, 72, 29
1, 42690, Note_on_c, 0, 81, 52
1, 42708, Note_off_c, 0, 72, 64
1, 42736, Note_off_c, 0, 81, 64
1, 42750, Note_on_c, 0, 62, 52
1, 42756, Note_on_c, 0, 83, 85
1, 42796, Note_off_c, 0, 83, 64
1, 42800, Note_off_c, 0, 62, 64
1, 42840, Note_on_c, 0, 81, 39
1, 42854, Note_on_c, 0, 72, 46
1, 42894, Note_off_c, 0, 81, 64
1, 42908, Note_off_c, 0, 72, 64
1, 42910, Note_on_c, 0, 83, 88
1, 42936, Note_on_c, 0, 66, 44
1, 42948, Note_off_c, 0, 83, 64
1, 42994, Note_off_c, 0, 66, 64
1, 43004, Note_on_c, 0, 81, 46
1, 43056, Note_off_c, 0, 81, 64
1, 43062, Note_on_c, 0, 72, 25
1, 43074, Note_on_c, 0, 83, 83
1, 43120, Note_off_c, 0, 83, 64
1, 43130, Note_off_c, 0, 72, 64
1, 43156, Note_on_c, 0, 81, 39
1, 43156, Note_on_c, 0, 62, 51
1, 43208, Note_off_c, 0, 81, 64
1, 43210, Note_on_c, 0, 83, 89
1, 43216, Note_off_c, 0, 62, 64
1, 43264, Note_on_c, 0, 72, 40
1, 43278, Note_off_c, 0, 83, 64
1, 43294, Note_on_c, 0, 81, 36
1, 43334, Note_off_c, 0, 72, 64
1, 43352, Note_off_c, 0, 81, 64
1, 43354, Note_on_c, 0, 83, 102
1, 43388, Note_on_c, 0, 66, 36
1, 43436, Note_on_c, 0, 81, 52
1, 43464, Note_off_c, 0, 83, 64
1, 43480, Note_off_c, 0, 66, 64
1, 43494, Note_off_c, 0, 81, 64
1, 43506, Note_on_c, 0, 79, 71
1, 43511, Note_on_c, 0, 72, 35
1, 43534, Control_c, 0, 64, 0
1, 43556, Note_off_c, 0, 79, 64
1, 43580, Note_on_c, 0, 81, 69
1, 43610, Note_off_c, 0, 72, 64
1, 43668, Note_off_c, 0, 81, 64
1, 43680, Note_on_c, 0, 79, 95
1, 43684, Note_on_c, 0, 67, 43
1, 43688, Note_on_c, 0, 71, 50
1, 43924, Note_off_c, 0, 79, 64
1, 43934, Control_c, 0, 64, 127
1, 43966, Note_off_c, 0, 71, 64
1, 43997, Note_off_c, 0, 67, 64
1, 44132, Note_on_c, 0, 79, 89
1, 44166, Control_c, 0, 64, 0
1, 44182, Note_off_c, 0, 79, 64
1, 44232, Note_on_c, 0, 74, 79
1, 44294, Note_off_c, 0, 74, 64
1, 44354, Note_on_c, 0, 79, 76
1, 44442, Note_off_c, 0, 79, 64
1, 44446, Note_on_c, 0, 83, 87
1, 44562, Note_off_c, 0, 83, 64
1, 44564, Note_on_c, 0, 86, 80
1, 44662, Note_on_c, 0, 83, 90
1, 44702, Note_off_c, 0, 86, 64
1, 44766, Note_off_c, 0, 83, 64
1, 44788, Note_on_c, 0, 79, 80
1, 44850, Note_off_c, 0, 79, 64
1, 44890, Note_on_c, 0, 83, 81
1, 45006, Note_off_c, 0, 83, 64
1, 45006, Note_on_c, 0, 84, 69
1, 45009, Note_on_c, 0, 72, 54
1, 45036, Note_on_c, 0, 62, 35
1, 45039, Note_on_c, 0, 69, 22
1, 45080, Note_off_c, 0, 72, 64
1, 45100, Note_on_c, 0, 81, 71
1, 45106, Note_off_c, 0, 62, 64
1, 45118, Note_off_c, 0, 69, 64
1, 45122, Note_off_c, 0, 84, 64
1, 45154, Note_off_c, 0, 81, 64
1, 45216, Note_on_c, 0, 78, 61
1, 45294, Note_off_c, 0, 78, 64
1, 45334, Note_on_c, 0, 81, 57
1, 45388, Note_off_c, 0, 81, 64
1, 45474, Note_on_c, 0, 71, 32
1, 45474, Note_on_c, 0, 79, 48
1, 45498, Note_on_c, 0, 67, 19
1, 45562, Control_c, 0, 64, 127
1, 45590, Note_off_c, 0, 79, 64
1, 45593, Note_off_c, 0, 71, 64
1, 45602, Note_off_c, 0, 67, 64
1, 45894, Note_on_c, 0, 67, 53
1, 45948, Control_c, 0, 64, 0
1, 45954, Note_off_c, 0, 67, 64
1, 45992, Note_on_c, 0, 62, 61
1, 46052, Note_off_c, 0, 62, 64
1, 46102, Note_on_c, 0, 67, 59
1, 46160, Note_off_c, 0, 67, 64
1, 46202, Note_on_c, 0, 71, 61
1, 46288, Note_off_c, 0, 71, 64
1, 46310, Note_on_c, 0, 74, 63
1, 46420, Note_on_c, 0, 71, 45
1, 46422, Note_off_c, 0, 74, 64
1, 46486, Note_off_c, 0, 71, 64
1, 46512, Note_on_c, 0, 67, 39
1, 46580, Note_off_c, 0, 67, 64
1, 46602, Note_on_c, 0, 71, 52
1, 46734, Note_off_c, 0, 71, 64
1, 46744, Note_on_c, 0, 60, 41
1, 46747, Note_on_c, 0, 72, 46
1, 46756, Note_on_c, 0, 57, 31
1, 46756, Note_on_c, 0, 50, 40
1, 46814, Note_off_c, 0, 60, 64
1, 46828, Note_off_c, 0, 72, 64
1, 46828, Note_off_c, 0, 57, 64
1, 46828, Note_off_c, 0, 50, 64
1, 46846, Note_on_c, 0, 69, 40
1, 46910, Note_off_c, 0, 69, 64
1, 46932, Note_on_c, 0, 66, 42
1, 47020, Note_off_c, 0, 66, 64
1, 47054, Note_on_c, 0, 69, 39
1, 47138, Note_off_c, 0, 69, 64
1, 47194, Note_on_c, 0, 67, 60
1, 47204, Note_on_c, 0, 59, 34
1, 47216, Note_on_c, 0, 55, 33
1, 47280, Note_off_c, 0, 55, 64
1, 47290, Note_off_c, 0, 59, 64
1, 47312, Note_off_c, 0, 67, 64
1, 47315, Control_c, 0, 64, 127
1, 47362, Control_c, 0, 64, 0
1, 47680, Note_on_c, 0, 43, 30
1, 47684, Note_on_c, 0, 55, 34
1, 47690, Note_on_c, 0, 74, 42
1, 47690, Note_on_c, 0, 83, 60
1, 47760, Control_c, 0, 64, 127
1, 47782, Note_off_c, 0, 55, 64
1, 47800, Note_off_c, 0, 43, 64
1, 47800, Note_off_c, 0, 74, 64
1, 47808, Note_off_c, 0, 83, 64
1, 47838, Control_c, 0, 64, 0
1, 48214, Note_on_c, 0, 71, 28
1, 48218, Note_on_c, 0, 79, 24
1, 48232, Note_on_c, 0, 43, 25
1, 48238, Note_on_c, 0, 55, 19
1, 48252, Control_c, 0, 64, 127
1, 48322, Note_off_c, 0, 43, 64
1, 48344, Note_off_c, 0, 55, 64
1, 48416, Note_off_c, 0, 71, 64
1, 48476, Note_off_c, 0, 79, 64
1, 48666, Control_c, 0, 64, 0
1, 49380, Note_on_c, 0, 67, 62
1, 49390, Note_on_c, 0, 55, 43
1, 49396, Note_on_c, 0, 43, 39
1, 49436, Control_c, 0, 64, 127
1, 49492, Note_off_c, 0, 67, 64
1, 49506, Note_off_c, 0, 55, 64
1, 49511, Note_off_c, 0, 43, 64
1, 49836, Note_on_c, 0, 79, 63
1, 49898, Note_off_c, 0, 79, 64
1, 49932, Note_on_c, 0, 74, 51
1, 49998, Note_off_c, 0, 74, 64
1, 50046, Note_on_c, 0, 79, 75
1, 50102, Note_off_c, 0, 79, 64
1, 50136, Note_on_c, 0, 82, 59
1, 50158, Control_c, 0, 64, 0
1, 50246, Note_on_c, 0, 86, 82
1, 50258, Note_off_c, 0, 82, 64
1, 50338, Note_on_c, 0, 82, 56
1, 50384, Note_off_c, 0, 86, 64
1, 50454, Note_on_c, 0, 79, 71
1, 50470, Note_off_c, 0, 82, 64
1, 50548, Note_on_c, 0, 82, 55
1, 50582, Note_off_c, 0, 79, 64
1, 50688, Note_on_c, 0, 84, 73
1, 50688, Note_on_c, 0, 72, 42
1, 50712, Note_on_c, 0, 62, 27
1, 50714, Note_on_c, 0, 69, 23
1, 50726, Note_off_c, 0, 82, 64
1, 50802, Note_on_c, 0, 81, 51
1, 50804, Note_off_c, 0, 62, 64
1, 50814, Note_off_c, 0, 84, 64
1, 50828, Note_off_c, 0, 72, 64
1, 50842, Note_off_c, 0, 69, 64
1, 50870, Note_off_c, 0, 81, 64
1, 50884, Note_on_c, 0, 78, 68
1, 50978, Note_off_c, 0, 78, 64
1, 51002, Note_on_c, 0, 81, 71
1, 51078, Note_off_c, 0, 81, 64
1, 51132, Note_on_c, 0, 79, 79
1, 51138, Note_on_c, 0, 70, 29
1, 51164, Note_on_c, 0, 67, 30
1, 51244, Note_off_c, 0, 79, 64
1, 51247, Control_c, 0, 64, 127
1, 51264, Note_off_c, 0, 70, 64
1, 51284, Note_off_c, 0, 67, 64
1, 51562, Note_on_c, 0, 67, 60
1, 51624, Note_off_c, 0, 67, 64
1, 51632, Control_c, 0, 64, 0
1, 51664, Note_on_c, 0, 62, 61
1, 51742, Note_off_c, 0, 62, 64
1, 51774, Note_on_c, 0, 67, 63
1, 51842, Note_off_c, 0, 67, 64
1, 51868, Note_on_c, 0, 70, 54
1, 51976, Note_on_c, 0, 74, 60
1, 51994, Note_off_c, 0, 70, 64
1, 52066, Note_on_c, 0, 70, 50
1, 52098, Note_off_c, 0, 74, 64
1, 52180, Note_off_c, 0, 70, 64
1, 52184, Note_on_c, 0, 67, 59
1, 52246, Note_off_c, 0, 67, 64
1, 52256, Note_on_c, 0, 70, 49
1, 52384, Note_on_c, 0, 50, 30
1, 52394, Note_on_c, 0, 72, 55
1, 52394, Note_on_c, 0, 60, 20
1, 52416, Note_on_c, 0, 57, 20
1, 52442, Note_off_c, 0, 70, 64
1, 52456, Note_off_c, 0, 72, 64
1, 52490, Note_on_c, 0, 69, 33
1, 52496, Note_off_c, 0, 60, 64
1, 52498, Note_off_c, 0, 57, 64
1, 52552, Note_off_c, 0, 50, 64
1, 52558, Note_off_c, 0, 69, 64
1, 52576, Note_on_c, 0, 66, 41
1, 52646, Note_off_c, 0, 66, 64
1, 52664, Note_on_c, 0, 69, 33
1, 52758, Note_off_c, 0, 69, 64
1, 52830, Note_on_c, 0, 67, 51
1, 52936, Note_on_c, 0, 43, 42
1, 53028, Note_off_c, 0, 43, 64
1, 53032, Note_on_c, 0, 45, 54
1, 53120, Note_on_c, 0, 46, 62
1, 53152, Note_off_c, 0, 45, 64
1, 53238, Note_on_c, 0, 48, 62
1, 53256, Note_off_c, 0, 46, 64
1, 53320, Note_off_c, 0, 48, 64
1, 53330, Note_off_c, 0, 67, 64
1, 53342, Note_on_c, 0, 50, 67
1, 53446, Note_on_c, 0, 52, 83
1, 53468, Note_off_c, 0, 50, 64
1, 53558, Note_on_c, 0, 54, 78
1, 53568, Note_off_c, 0, 52, 64
1, 53666, Note_on_c, 0, 55, 73
1, 53676, Note_off_c, 0, 54, 64
1, 53782, Note_on_c, 0, 79, 81
1, 53898, Note_on_c, 0, 82, 66
1, 53916, Note_off_c, 0, 79, 64
1, 53974, Note_off_c, 0, 55, 64
1, 53996, Note_on_c, 0, 81, 79
1, 54066, Note_off_c, 0, 82, 64
1, 54110, Note_on_c, 0, 79, 86
1, 54134, Note_off_c, 0, 81, 64
1, 54220, Note_off_c, 0, 79, 64
1, 54230, Note_on_c, 0, 77, 75
1, 54338, Note_on_c, 0, 76, 67
1, 54358, Note_off_c, 0, 77, 64
1, 54444, Note_on_c, 0, 74, 72
1, 54468, Note_off_c, 0, 76, 64
1, 54572, Note_off_c, 0, 74, 64
1, 54574, Note_on_c, 0, 73, 56
1, 54676, Note_on_c, 0, 45, 51
1, 54776, Note_on_c, 0, 47, 69
1, 54814, Note_off_c, 0, 45, 64
1, 54872, Note_on_c, 0, 49, 72
1, 54898, Note_off_c, 0, 47, 64
1, 54978, Note_on_c, 0, 50, 74
1, 55006, Note_off_c, 0, 49, 64
1, 55056, Note_off_c, 0, 50, 64
1, 55074, Note_on_c, 0, 52, 84
1, 55146, Note_off_c, 0, 73, 64
1, 55178, Note_on_c, 0, 54, 84
1, 55190, Note_off_c, 0, 52, 64
1, 55280, Note_on_c, 0, 56, 66
1, 55314, Note_off_c, 0, 54, 64
1, 55386, Note_off_c, 0, 56, 64
1, 55404, Note_on_c, 0, 57, 68
1, 55520, Note_on_c, 0, 85, 76
1, 55632, Note_on_c, 0, 88, 81
1, 55648, Note_off_c, 0, 85, 64
1, 55662, Note_off_c, 0, 57, 64
1, 55674, Control_c, 0, 64, 127
1, 55740, Note_on_c, 0, 86, 82
1, 55750, Control_c, 0, 64, 0
1, 55808, Note_off_c, 0, 88, 64
1, 55834, Note_on_c, 0, 85, 78
1, 55898, Note_off_c, 0, 86, 64
1, 55948, Note_on_c, 0, 82, 75
1, 56024, Note_off_c, 0, 85, 64
1, 56048, Note_off_c, 0, 82, 64
1, 56051, Note_on_c, 0, 81, 66
1, 56150, Note_on_c, 0, 79, 83
1, 56166, Note_off_c, 0, 81, 64
1, 56244, Note_off_c, 0, 79, 64
1, 56286, Note_on_c, 0, 77, 75
1, 56288, Note_on_c, 0, 50, 45
1, 56294, Note_on_c, 0, 38, 45
1, 56456, Control_c, 0, 64, 127
1, 56470, Note_off_c, 0, 38, 64
1, 56520, Note_off_c, 0, 50, 64
1, 56576, Note_off_c, 0, 77, 64
1, 56734, Note_on_c, 0, 74, 70
1, 56780, Note_off_c, 0, 74, 64
1, 56818, Note_on_c, 0, 69, 54
1, 56826, Control_c, 0, 64, 0
1, 56902, Note_off_c, 0, 69, 64
1, 56928, Note_on_c, 0, 74, 81
1, 57034, Note_on_c, 0, 77, 74
1, 57062, Note_off_c, 0, 74, 64
1, 57140, Note_on_c, 0, 81, 81
1, 57143, Note_off_c, 0, 77, 64
1, 57238, Note_on_c, 0, 77, 60
1, 57280, Note_off_c, 0, 81, 64
1, 57348, Note_off_c, 0, 77, 64
1, 57351, Note_on_c, 0, 74, 78
1, 57452, Note_on_c, 0, 77, 61
1, 57458, Note_off_c, 0, 74, 64
1, 57568, Note_on_c, 0, 67, 56
1, 57580, Note_on_c, 0, 79, 83
1, 57584, Note_on_c, 0, 57, 36
1, 57592, Note_on_c, 0, 64, 40
1, 57600, Note_off_c, 0, 77, 64
1, 57656, Note_off_c, 0, 64, 64
1, 57672, Note_off_c, 0, 67, 64
1, 57672, Note_on_c, 0, 76, 65
1, 57686, Note_off_c, 0, 57, 64
1, 57696, Note_off_c, 0, 79, 64
1, 57752, Note_off_c, 0, 76, 64
1, 57780, Note_on_c, 0, 73, 62
1, 57890, Note_on_c, 0, 76, 72
1, 57912, Note_off_c, 0, 73, 64
1, 58010, Note_off_c, 0, 76, 64
1, 58020, Note_on_c, 0, 74, 79
1, 58028, Note_on_c, 0, 65, 34
1, 58031, Note_on_c, 0, 62, 33
1, 58116, Control_c, 0, 64, 127
1, 58138, Note_off_c, 0, 74, 64
1, 58142, Note_off_c, 0, 65, 64
1, 58168, Note_off_c, 0, 62, 64
1, 58394, Control_c, 0, 64, 0
1, 58446, Note_on_c, 0, 62, 54
1, 58524, Note_off_c, 0, 62, 64
1, 58542, Note_on_c, 0, 57, 48
1, 58624, Note_off_c, 0, 57, 64
1, 58656, Note_on_c, 0, 62, 41
1, 58718, Note_off_c, 0, 62, 64
1, 58752, Note_on_c, 0, 65, 47
1, 58840, Note_off_c, 0, 65, 64
1, 58852, Note_on_c, 0, 69, 45
1, 58944, Note_on_c, 0, 65, 39
1, 58950, Note_off_c, 0, 69, 64
1, 59034, Note_off_c, 0, 65, 64
1, 59048, Note_on_c, 0, 62, 58
1, 59114, Note_off_c, 0, 62, 64
1, 59140, Note_on_c, 0, 65, 38
1, 59254, Note_on_c, 0, 45, 23
1, 59256, Note_on_c, 0, 55, 28
1, 59266, Note_on_c, 0, 67, 50
1, 59272, Note_on_c, 0, 52, 29
1, 59284, Note_off_c, 0, 65, 64
1, 59340, Note_off_c, 0, 67, 64
1, 59352, Note_off_c, 0, 52, 64
1, 59366, Note_off_c, 0, 45, 64
1, 59378, Note_off_c, 0, 55, 64
1, 59380, Note_on_c, 0, 64, 32
1, 59438, Note_off_c, 0, 64, 64
1, 59438, Note_on_c, 0, 61, 55
1, 59520, Note_off_c, 0, 61, 64
1, 59544, Note_on_c, 0, 64, 35
1, 59630, Note_off_c, 0, 64, 64
1, 59684, Note_on_c, 0, 50, 42
1, 59687, Note_on_c, 0, 53, 62
1, 59804, Note_on_c, 0, 62, 42
1, 59868, Note_off_c, 0, 62, 64
1, 59906, Note_on_c, 0, 64, 55
1, 59966, Note_off_c, 0, 64, 64
1, 59992, Note_on_c, 0, 65, 61
1, 60022, Control_c, 0, 64, 127
1, 60060, Note_off_c, 0, 65, 64
1, 60084, Note_off_c, 0, 50, 64
1, 60092, Note_off_c, 0, 53, 64
1, 60106, Note_on_c, 0, 67, 72
1, 60166, Note_off_c, 0, 67, 64
1, 60176, Control_c, 0, 64, 0
1, 60204, Note_on_c, 0, 69, 66
1, 60304, Note_on_c, 0, 71, 79
1, 60342, Note_off_c, 0, 69, 64
1, 60402, Note_on_c, 0, 73, 67
1, 60430, Note_off_c, 0, 71, 64
1, 60536, Note_on_c, 0, 74, 80
1, 60564, Note_off_c, 0, 73, 64
1, 60658, Note_on_c, 0, 62, 62
1, 60748, Note_off_c, 0, 62, 64
1, 60762, Note_on_c, 0, 65, 46
1, 60872, Note_on_c, 0, 64, 61
1, 60876, Note_off_c, 0, 65, 64
1, 60972, Note_on_c, 0, 62, 66
1, 60990, Note_off_c, 0, 64, 64
1, 61034, Note_off_c, 0, 62, 64
1, 61086, Note_on_c, 0, 60, 59
1, 61168, Note_off_c, 0, 60, 64
1, 61184, Note_on_c, 0, 59, 65
1, 61186, Note_off_c, 0, 74, 64
1, 61290, Note_off_c, 0, 59, 64
1, 61290, Note_on_c, 0, 57, 51
1, 61402, Note_on_c, 0, 56, 53
1, 61406, Note_off_c, 0, 57, 64
1, 61526, Note_on_c, 0, 71, 64
1, 61588, Note_off_c, 0, 71, 64
1, 61638, Note_on_c, 0, 72, 51
1, 61712, Note_off_c, 0, 72, 64
1, 61722, Note_on_c, 0, 74, 77
1, 61760, Note_off_c, 0, 56, 64
1, 61788, Note_off_c, 0, 74, 64
1, 61830, Note_on_c, 0, 76, 67
1, 61942, Note_on_c, 0, 78, 79
1, 61986, Note_off_c, 0, 76, 64
1, 62058, Note_on_c, 0, 80, 81
1, 62094, Note_off_c, 0, 78, 64
1, 62158, Note_on_c, 0, 81, 75
1, 62206, Note_off_c, 0, 80, 64
1, 62288, Note_on_c, 0, 83, 103
1, 62318, Note_off_c, 0, 81, 64
1, 62404, Note_on_c, 0, 56, 65
1, 62506, Note_off_c, 0, 56, 64
1, 62522, Note_on_c, 0, 59, 57
1, 62630, Note_on_c, 0, 57, 57
1, 62640, Note_off_c, 0, 59, 64
1, 62728, Note_on_c, 0, 56, 65
1, 62752, Note_off_c, 0, 57, 64
1, 62844, Note_off_c, 0, 56, 64
1, 62866, Note_on_c, 0, 53, 85
1, 62920, Note_off_c, 0, 53, 64
1, 62932, Note_off_c, 0, 83, 64
1, 62970, Note_on_c, 0, 52, 74
1, 63062, Note_on_c, 0, 50, 74
1, 63064, Note_off_c, 0, 52, 64
1, 63192, Note_off_c, 0, 50, 64
1, 63194, Note_on_c, 0, 48, 59
1, 63312, Note_on_c, 0, 81, 67
1, 63428, Note_off_c, 0, 81, 64
1, 63440, Note_on_c, 0, 88, 82
1, 63558, Note_on_c, 0, 86, 80
1, 63602, Control_c, 0, 64, 127
1, 63616, Note_off_c, 0, 48, 64
1, 63620, Note_off_c, 0, 88, 64
1, 63658, Note_on_c, 0, 84, 81
1, 63694, Control_c, 0, 64, 0
1, 63710, Note_off_c, 0, 86, 64
1, 63762, Note_on_c, 0, 83, 100
1, 63814, Note_off_c, 0, 84, 64
1, 63874, Note_on_c, 0, 81, 72
1, 63894, Note_off_c, 0, 83, 64
1, 63978, Note_on_c, 0, 79, 80
1, 64006, Note_off_c, 0, 81, 64
1, 64104, Note_on_c, 0, 77, 71
1, 64132, Note_off_c, 0, 79, 64
1, 64228, Note_on_c, 0, 62, 57
1, 64338, Note_on_c, 0, 69, 55
1, 64340, Note_off_c, 0, 62, 64
1, 64424, Note_off_c, 0, 69, 64
1, 64452, Note_on_c, 0, 67, 56
1, 64564, Note_on_c, 0, 65, 59
1, 64568, Note_off_c, 0, 67, 64
1, 64586, Control_c, 0, 64, 127
1, 64614, Note_off_c, 0, 65, 64
1, 64674, Note_on_c, 0, 64, 57
1, 64734, Note_off_c, 0, 64, 64
1, 64770, Control_c, 0, 64, 0
1, 64773, Note_on_c, 0, 62, 65
1, 64820, Note_off_c, 0, 77, 64
1, 64876, Note_off_c, 0, 62, 64
1, 64876, Note_on_c, 0, 60, 63
1, 65002, Note_off_c, 0, 60, 64
1, 65020, Note_on_c, 0, 59, 47
1, 65114, Note_on_c, 0, 79, 63
1, 65194, Note_off_c, 0, 79, 64
1, 65248, Note_on_c, 0, 86, 62
1, 65336, Note_off_c, 0, 59, 64
1, 65358, Note_on_c, 0, 84, 68
1, 65392, Note_off_c, 0, 86, 64
1, 65476, Note_on_c, 0, 83, 72
1, 65498, Note_off_c, 0, 84, 64
1, 65562, Note_off_c, 0, 83, 64
1, 65572, Note_on_c, 0, 81, 59
1, 65660, Note_off_c, 0, 81, 64
1, 65684, Note_on_c, 0, 79, 62
1, 65800, Note_on_c, 0, 77, 49
1, 65814, Note_off_c, 0, 79, 64
1, 65860, Note_off_c, 0, 77, 64
1, 65924, Note_on_c, 0, 76, 34
1, 66034, Note_on_c, 0, 60, 37
1, 66144, Note_off_c, 0, 60, 64
1, 66148, Note_on_c, 0, 67, 44
1, 66230, Note_off_c, 0, 67, 64
1, 66230, Control_c, 0, 64, 127
1, 66262, Note_on_c, 0, 65, 41
1, 66334, Note_off_c, 0, 65, 64
1, 66374, Note_on_c, 0, 64, 49
1, 66426, Note_off_c, 0, 64, 64
1, 66478, Note_on_c, 0, 62, 52
1, 66544, Note_off_c, 0, 62, 64
1, 66552, Control_c, 0, 64, 0
1, 66588, Note_on_c, 0, 60, 55
1, 66684, Note_off_c, 0, 60, 64
1, 66687, Note_on_c, 0, 59, 47
1, 66702, Note_off_c, 0, 76, 64
1, 66822, Note_off_c, 0, 59, 64
1, 66838, Note_on_c, 0, 57, 34
1, 66962, Note_on_c, 0, 77, 44
1, 67030, Note_off_c, 0, 77, 64
1, 67078, Note_on_c, 0, 84, 64
1, 67128, Note_off_c, 0, 57, 64
1, 67196, Control_c, 0, 64, 127
1, 67198, Note_on_c, 0, 83, 76
1, 67216, Note_off_c, 0, 84, 64
1, 67294, Note_on_c, 0, 81, 54
1, 67299, Note_off_c, 0, 83, 64
1, 67336, Control_c, 0, 64, 0
1, 67406, Note_on_c, 0, 79, 70
1, 67416, Note_off_c, 0, 81, 64
1, 67518, Note_on_c, 0, 77, 54
1, 67521, Note_off_c, 0, 79, 64
1, 67636, Note_on_c, 0, 76, 40
1, 67658, Note_off_c, 0, 77, 64
1, 67738, Note_off_c, 0, 76, 64
1, 67770, Note_on_c, 0, 74, 43
1, 67914, Note_on_c, 0, 59, 16
1, 67988, Note_off_c, 0, 59, 64
1, 68006, Note_on_c, 0, 65, 39
1, 68084, Note_off_c, 0, 65, 64
1, 68124, Note_on_c, 0, 64, 41
1, 68192, Note_off_c, 0, 64, 64
1, 68212, Note_on_c, 0, 62, 47
1, 68258, Control_c, 0, 64, 127
1, 68266, Note_off_c, 0, 62, 64
1, 68330, Note_on_c, 0, 60, 42
1, 68400, Note_off_c, 0, 60, 64
1, 68440, Note_on_c, 0, 59, 45
1, 68490, Note_off_c, 0, 74, 64
1, 68534, Control_c, 0, 64, 0
1, 68538, Note_off_c, 0, 59, 64
1, 68548, Note_on_c, 0, 57, 35
1, 68678, Note_off_c, 0, 57, 64
1, 68688, Note_on_c, 0, 56, 39
1, 68840, Note_on_c, 0, 76, 34
1, 68922, Note_off_c, 0, 76, 64
1, 68948, Note_on_c, 0, 83, 67
1, 69030, Note_off_c, 0, 83, 64
1, 69048, Note_off_c, 0, 56, 64
1, 69056, Note_on_c, 0, 81, 51
1, 69136, Note_off_c, 0, 81, 64
1, 69156, Note_on_c, 0, 80, 56
1, 69268, Note_on_c, 0, 77, 54
1, 69316, Note_off_c, 0, 80, 64
1, 69364, Note_off_c, 0, 77, 64
1, 69390, Note_on_c, 0, 76, 38
1, 69506, Note_on_c, 0, 74, 36
1, 69528, Note_off_c, 0, 76, 64
1, 69584, Note_off_c, 0, 74, 64
1, 69648, Note_on_c, 0, 72, 35
1, 69746, Note_on_c, 0, 57, 28
1, 69830, Note_off_c, 0, 57, 64
1, 69872, Note_on_c, 0, 60, 41
1, 69976, Note_off_c, 0, 60, 64
1, 69992, Note_on_c, 0, 59, 45
1, 69994, Control_c, 0, 64, 127
1, 70084, Note_off_c, 0, 59, 64
1, 70104, Note_on_c, 0, 57, 46
1, 70166, Note_off_c, 0, 57, 64
1, 70222, Note_on_c, 0, 55, 59
1, 70290, Note_off_c, 0, 55, 64
1, 70336, Note_on_c, 0, 53, 77
1, 70398, Note_off_c, 0, 72, 64
1, 70412, Note_off_c, 0, 53, 64
1, 70452, Note_on_c, 0, 52, 52
1, 70500, Control_c, 0, 64, 0
1, 70568, Note_off_c, 0, 52, 64
1, 70604, Note_on_c, 0, 50, 61
1, 70762, Note_on_c, 0, 70, 41
1, 70858, Note_off_c, 0, 70, 64
1, 70886, Note_on_c, 0, 74, 55
1, 70962, Note_off_c, 0, 74, 64
1, 70992, Note_on_c, 0, 72, 52
1, 71092, Note_off_c, 0, 72, 64
1, 71095, Note_on_c, 0, 70, 54
1, 71210, Note_on_c, 0, 69, 54
1, 71256, Note_off_c, 0, 70, 64
1, 71324, Note_off_c, 0, 69, 64
1, 71328, Note_on_c, 0, 67, 57
1, 71450, Note_off_c, 0, 67, 64
1, 71450, Note_on_c, 0, 65, 52
1, 71554, Note_off_c, 0, 65, 64
1, 71584, Note_on_c, 0, 58, 21
1, 71586, Note_on_c, 0, 64, 55
1, 71594, Note_off_c, 0, 50, 64
1, 71612, Note_on_c, 0, 48, 26
1, 71630, Note_on_c, 0, 55, 32
1, 71720, Note_off_c, 0, 64, 64
1, 71723, Note_on_c, 0, 65, 47
1, 71854, Note_off_c, 0, 65, 64
1, 71860, Note_on_c, 0, 67, 56
1, 71980, Note_off_c, 0, 67, 64
1, 71992, Note_on_c, 0, 69, 44
1, 72112, Note_off_c, 0, 69, 64
1, 72114, Note_on_c, 0, 70, 43
1, 72240, Note_off_c, 0, 55, 64
1, 72246, Note_off_c, 0, 70, 64
1, 72256, Note_on_c, 0, 72, 42
1, 72258, Note_off_c, 0, 48, 64
1, 72268, Control_c, 0, 64, 127
1, 72326, Note_off_c, 0, 72, 64
1, 72346, Note_off_c, 0, 58, 64
1, 72376, Note_on_c, 0, 74, 47
1, 72444, Note_off_c, 0, 74, 64
1, 72500, Note_on_c, 0, 76, 44
1, 72728, Note_on_c, 0, 77, 61
1, 72742, Note_off_c, 0, 76, 64
1, 72774, Control_c, 0, 64, 0
1, 72788, Note_on_c, 0, 65, 14
1, 73058, Note_on_c, 0, 72, 28
1, 73266, Note_off_c, 0, 72, 64
1, 73266, Control_c, 0, 64, 127
1, 73298, Note_on_c, 0, 69, 23
1, 73392, Note_off_c, 0, 65, 64
1, 73536, Note_off_c, 0, 69, 64
1, 73538, Note_on_c, 0, 72, 32
1, 73646, Note_off_c, 0, 72, 64
1, 73748, Note_on_c, 0, 81, 55
1, 73796, Note_on_c, 0, 65, 27
1, 73828, Note_off_c, 0, 77, 64
1, 73850, Control_c, 0, 64, 0
1, 74016, Note_on_c, 0, 72, 29
1, 74130, Note_off_c, 0, 72, 64
1, 74158, Control_c, 0, 64, 127
1, 74230, Note_on_c, 0, 84, 79
1, 74254, Note_on_c, 0, 69, 11
1, 74266, Control_c, 0, 64, 0
1, 74298, Note_off_c, 0, 81, 64
1, 74462, Note_on_c, 0, 72, 33
1, 74542, Note_off_c, 0, 69, 64
1, 74588, Control_c, 0, 64, 127
1, 74610, Note_off_c, 0, 72, 64
1, 74630, Note_off_c, 0, 65, 64
1, 74696, Note_on_c, 0, 76, 51
1, 74738, Note_on_c, 0, 67, 10
1, 74756, Control_c, 0, 64, 0
1, 74828, Note_off_c, 0, 84, 64
1, 74942, Note_on_c, 0, 72, 30
1, 75090, Note_off_c, 0, 72, 64
1, 75160, Note_on_c, 0, 70, 25
1, 75248, Control_c, 0, 64, 127
1, 75422, Note_off_c, 0, 76, 64
1, 75424, Note_on_c, 0, 77, 33
1, 75430, Note_on_c, 0, 72, 19
1, 75482, Note_off_c, 0, 77, 64
1, 75494, Control_c, 0, 64, 0
1, 75526, Note_on_c, 0, 79, 41
1, 75538, Note_off_c, 0, 72, 64
1, 75598, Note_off_c, 0, 67, 64
1, 75612, Note_off_c, 0, 79, 64
1, 75654, Note_on_c, 0, 77, 39
1, 75662, Note_off_c, 0, 70, 64
1, 75662, Note_on_c, 0, 65, 16
1, 75878, Note_on_c, 0, 72, 30
1, 76058, Note_off_c, 0, 72, 64
1, 76128, Note_on_c, 0, 69, 21
1, 76154, Control_c, 0, 64, 127
1, 76252, Note_off_c, 0, 65, 64
1, 76254, Note_off_c, 0, 77, 64
1, 76360, Note_on_c, 0, 72, 33
1, 76396, Note_off_c, 0, 69, 64
1, 76578, Note_off_c, 0, 72, 64
1, 76610, Note_on_c, 0, 86, 63
1, 76646, Note_on_c, 0, 65, 23
1, 76770, Control_c, 0, 64, 0
1, 76856, Note_on_c, 0, 74, 34
1, 77048, Note_off_c, 0, 74, 64
1, 77080, Note_on_c, 0, 70, 30
1, 77092, Control_c, 0, 64, 127
1, 77224, Note_off_c, 0, 65, 64
1, 77332, Note_on_c, 0, 74, 44
1, 77364, Note_off_c, 0, 70, 64
1, 77502, Note_off_c, 0, 74, 64
1, 77554, Note_on_c, 0, 84, 73
1, 77598, Note_on_c, 0, 65, 24
1, 77654, Note_off_c, 0, 86, 64
1, 77692, Control_c, 0, 64, 0
1, 77796, Note_on_c, 0, 72, 32
1, 77954, Control_c, 0, 64, 127
1, 77962, Note_off_c, 0, 72, 64
1, 78026, Note_on_c, 0, 89, 69
1, 78026, Note_on_c, 0, 69, 26
1, 78070, Note_off_c, 0, 84, 64
1, 78122, Control_c, 0, 64, 0
1, 78278, Note_on_c, 0, 72, 33
1, 78312, Note_off_c, 0, 69, 64
1, 78384, Control_c, 0, 64, 127
1, 78436, Note_off_c, 0, 72, 64
1, 78448, Note_off_c, 0, 65, 64
1, 78502, Note_on_c, 0, 84, 78
1, 78542, Note_off_c, 0, 89, 64
1, 78542, Note_on_c, 0, 64, 25
1, 78722, Control_c, 0, 64, 0
1, 78758, Note_on_c, 0, 72, 29
1, 78858, Note_off_c, 0, 84, 64
1, 78904, Note_off_c, 0, 72, 64
1, 78936, Control_c, 0, 64, 127
1, 78942, Note_on_c, 0, 82, 50
1, 78980, Note_on_c, 0, 67, 24
1, 78998, Note_off_c, 0, 82, 64
1, 79034, Note_on_c, 0, 84, 48
1, 79080, Note_on_c, 0, 82, 35
1, 79084, Note_off_c, 0, 84, 64
1, 79148, Note_off_c, 0, 82, 64
1, 79158, Note_off_c, 0, 67, 64
1, 79158, Note_on_c, 0, 84, 56
1, 79194, Note_on_c, 0, 72, 26
1, 79226, Note_on_c, 0, 82, 44
1, 79238, Note_off_c, 0, 84, 64
1, 79294, Note_off_c, 0, 72, 64
1, 79318, Note_off_c, 0, 82, 64
1, 79370, Note_on_c, 0, 82, 24
1, 79382, Control_c, 0, 64, 0
1, 79408, Note_off_c, 0, 64, 64
1, 79434, Note_on_c, 0, 81, 27
1, 79442, Note_off_c, 0, 82, 64
1, 79468, Note_on_c, 0, 65, 19
1, 79660, Note_on_c, 0, 72, 29
1, 79736, Control_c, 0, 64, 127
1, 79754, Note_off_c, 0, 72, 64
1, 79868, Note_on_c, 0, 69, 24
1, 79978, Note_off_c, 0, 81, 64
1, 79994, Note_off_c, 0, 69, 64
1, 80038, Note_off_c, 0, 65, 64
1, 80104, Note_on_c, 0, 72, 35
1, 80278, Note_off_c, 0, 72, 64
1, 80288, Control_c, 0, 64, 0
1, 80330, Note_on_c, 0, 74, 56
1, 80342, Note_on_c, 0, 70, 26
1, 80506, Note_off_c, 0, 70, 64
1, 80580, Control_c, 0, 64, 127
1, 80624, Note_off_c, 0, 74, 64
1, 80638, Note_on_c, 0, 76, 41
1, 80696, Note_off_c, 0, 76, 64
1, 80720, Note_on_c, 0, 77, 56
1, 80762, Note_off_c, 0, 77, 64
1, 80764, Control_c, 0, 64, 0
1, 80816, Note_on_c, 0, 79, 67
1, 80884, Note_off_c, 0, 79, 64
1, 80910, Note_on_c, 0, 81, 59
1, 80980, Note_off_c, 0, 81, 64
1, 80992, Note_on_c, 0, 82, 54
1, 81106, Note_on_c, 0, 84, 65
1, 81128, Note_off_c, 0, 82, 64
1, 81214, Note_on_c, 0, 86, 69
1, 81230, Note_off_c, 0, 84, 64
1, 81314, Note_on_c, 0, 84, 51
1, 81366, Note_off_c, 0, 86, 64
1, 81414, Note_on_c, 0, 82, 58
1, 81442, Note_off_c, 0, 84, 64
1, 81534, Note_on_c, 0, 81, 54
1, 81542, Note_off_c, 0, 82, 64
1, 81596, Note_off_c, 0, 81, 64
1, 81630, Note_on_c, 0, 79, 65
1, 81632, Note_on_c, 0, 58, 22
1, 81634, Note_on_c, 0, 65, 26
1, 81696, Note_off_c, 0, 79, 64
1, 81708, Note_off_c, 0, 65, 64
1, 81714, Note_off_c, 0, 58, 64
1, 81742, Note_on_c, 0, 77, 49
1, 81822, Note_off_c, 0, 77, 64
1, 81832, Note_on_c, 0, 76, 37
1, 81910, Note_off_c, 0, 76, 64
1, 81932, Note_on_c, 0, 74, 51
1, 81998, Note_off_c, 0, 74, 64
1, 82050, Note_on_c, 0, 72, 50
1, 82068, Note_on_c, 0, 65, 24
1, 82074, Note_on_c, 0, 57, 31
1, 82240, Control_c, 0, 64, 127
1, 82270, Note_off_c, 0, 72, 64
1, 82286, Note_off_c, 0, 65, 64
1, 82296, Note_on_c, 0, 74, 45
1, 82320, Note_off_c, 0, 57, 64
1, 82360, Note_off_c, 0, 74, 64
1, 82396, Note_on_c, 0, 76, 47
1, 82424, Control_c, 0, 64, 0
1, 82448, Note_off_c, 0, 76, 64
1, 82494, Note_on_c, 0, 77, 57
1, 82550, Note_off_c, 0, 77, 64
1, 82596, Note_on_c, 0, 79, 68
1, 82690, Note_off_c, 0, 79, 64
1, 82700, Note_on_c, 0, 81, 51
1, 82780, Note_off_c, 0, 81, 64
1, 82806, Note_on_c, 0, 82, 48
1, 82920, Note_on_c, 0, 84, 61
1, 82925, Note_off_c, 0, 82, 64
1, 83026, Note_on_c, 0, 82, 39
1, 83046, Note_off_c, 0, 84, 64
1, 83140, Note_on_c, 0, 81, 42
1, 83166, Note_off_c, 0, 82, 64
1, 83210, Note_off_c, 0, 81, 64
1, 83248, Note_on_c, 0, 79, 48
1, 83308, Note_off_c, 0, 79, 64
1, 83330, Note_on_c, 0, 65, 36
1, 83348, Note_on_c, 0, 57, 28
1, 83351, Note_on_c, 0, 77, 41
1, 83398, Note_off_c, 0, 65, 64
1, 83424, Note_off_c, 0, 57, 64
1, 83434, Note_off_c, 0, 77, 64
1, 83456, Note_on_c, 0, 76, 37
1, 83526, Note_off_c, 0, 76, 64
1, 83550, Note_on_c, 0, 74, 51
1, 83608, Note_off_c, 0, 74, 64
1, 83648, Note_on_c, 0, 72, 44
1, 83778, Note_on_c, 0, 70, 48
1, 83786, Note_off_c, 0, 72, 64
1, 83802, Note_on_c, 0, 65, 25
1, 83826, Note_on_c, 0, 55, 24
1, 84008, Control_c, 0, 64, 127
1, 84014, Note_off_c, 0, 70, 64
1, 84020, Note_on_c, 0, 72, 47
1, 84042, Note_off_c, 0, 65, 64
1, 84058, Note_off_c, 0, 55, 64
1, 84084, Note_off_c, 0, 72, 64
1, 84128, Note_on_c, 0, 74, 64
1, 84128, Control_c, 0, 64, 0
1, 84186, Note_off_c, 0, 74, 64
1, 84220, Note_on_c, 0, 76, 61
1, 84284, Note_off_c, 0, 76, 64
1, 84320, Note_on_c, 0, 77, 67
1, 84378, Note_off_c, 0, 77, 64
1, 84420, Note_on_c, 0, 79, 67
1, 84494, Note_off_c, 0, 79, 64
1, 84514, Note_on_c, 0, 81, 69
1, 84618, Note_off_c, 0, 81, 64
1, 84632, Note_on_c, 0, 82, 56
1, 84734, Note_on_c, 0, 81, 50
1, 84770, Note_off_c, 0, 82, 64
1, 84814, Note_off_c, 0, 81, 64
1, 84840, Note_on_c, 0, 79, 64
1, 84896, Note_off_c, 0, 79, 64
1, 84948, Note_on_c, 0, 77, 56
1, 85048, Note_off_c, 0, 77, 64
1, 85052, Note_on_c, 0, 55, 33
1, 85054, Note_on_c, 0, 64, 31
1, 85065, Note_on_c, 0, 76, 52
1, 85124, Note_off_c, 0, 55, 64
1, 85127, Note_off_c, 0, 76, 64
1, 85148, Note_off_c, 0, 64, 64
1, 85154, Note_on_c, 0, 74, 53
1, 85200, Note_off_c, 0, 74, 64
1, 85246, Note_on_c, 0, 72, 48
1, 85318, Note_off_c, 0, 72, 64
1, 85358, Note_on_c, 0, 70, 34
1, 85466, Note_off_c, 0, 70, 64
1, 85476, Note_on_c, 0, 69, 45
1, 85496, Note_on_c, 0, 65, 28
1, 85520, Note_on_c, 0, 53, 40
1, 85694, Note_off_c, 0, 69, 64
1, 85702, Note_on_c, 0, 70, 39
1, 85744, Note_off_c, 0, 65, 64
1, 85744, Control_c, 0, 64, 127
1, 85754, Note_off_c, 0, 53, 64
1, 85790, Note_off_c, 0, 70, 64
1, 85806, Note_on_c, 0, 72, 57
1, 85856, Note_off_c, 0, 72, 64
1, 85910, Note_on_c, 0, 74, 58
1, 85928, Control_c, 0, 64, 0
1, 85958, Note_off_c, 0, 74, 64
1, 86010, Note_on_c, 0, 76, 47
1, 86086, Note_off_c, 0, 76, 64
1, 86100, Note_on_c, 0, 77, 49
1, 86204, Note_on_c, 0, 79, 65
1, 86220, Note_off_c, 0, 77, 64
1, 86308, Note_on_c, 0, 81, 60
1, 86310, Note_off_c, 0, 79, 64
1, 86408, Note_on_c, 0, 79, 60
1, 86444, Note_off_c, 0, 81, 64
1, 86518, Note_on_c, 0, 77, 62
1, 86538, Note_off_c, 0, 79, 64
1, 86596, Note_off_c, 0, 77, 64
1, 86620, Note_on_c, 0, 76, 52
1, 86682, Note_off_c, 0, 76, 64
1, 86720, Note_on_c, 0, 74, 55
1, 86796, Note_on_c, 0, 72, 62
1, 86820, Note_off_c, 0, 74, 64
1, 86876, Note_off_c, 0, 72, 64
1, 86908, Note_on_c, 0, 70, 58
1, 87000, Note_off_c, 0, 70, 64
1, 87006, Note_on_c, 0, 69, 52
1, 87104, Note_off_c, 0, 69, 64
1, 87134, Note_on_c, 0, 81, 87
1, 87140, Note_on_c, 0, 53, 94
1, 87310, Control_c, 0, 64, 127
1, 87344, Note_on_c, 0, 55, 67
1, 87352, Note_off_c, 0, 53, 64
1, 87438, Note_on_c, 0, 57, 59
1, 87462, Note_off_c, 0, 55, 64
1, 87462, Control_c, 0, 64, 0
1, 87530, Note_on_c, 0, 58, 59
1, 87532, Note_off_c, 0, 57, 64
1, 87558, Note_off_c, 0, 81, 64
1, 87632, Note_on_c, 0, 60, 70
1, 87642, Note_off_c, 0, 58, 64
1, 87732, Note_off_c, 0, 60, 64
1, 87732, Note_on_c, 0, 62, 75
1, 87846, Note_on_c, 0, 64, 69
1, 87852, Note_off_c, 0, 62, 64
1, 87904, Note_off_c, 0, 64, 64
1, 87936, Note_on_c, 0, 65, 67
1, 88016, Note_off_c, 0, 65, 64
1, 88065, Note_on_c, 0, 64, 58
1, 88136, Note_off_c, 0, 64, 64
1, 88148, Note_on_c, 0, 62, 57
1, 88196, Note_off_c, 0, 62, 64
1, 88250, Note_on_c, 0, 60, 58
1, 88330, Note_off_c, 0, 60, 64
1, 88358, Note_on_c, 0, 81, 65
1, 88361, Note_on_c, 0, 58, 55
1, 88368, Note_on_c, 0, 72, 42
1, 88438, Note_off_c, 0, 58, 64
1, 88452, Note_off_c, 0, 72, 64
1, 88458, Note_on_c, 0, 57, 48
1, 88516, Note_off_c, 0, 57, 64
1, 88528, Note_off_c, 0, 81, 64
1, 88548, Note_on_c, 0, 55, 69
1, 88608, Note_off_c, 0, 55, 64
1, 88664, Note_on_c, 0, 53, 61
1, 88732, Note_off_c, 0, 53, 64
1, 88764, Note_on_c, 0, 52, 88
1, 88782, Note_on_c, 0, 79, 81
1, 88798, Note_on_c, 0, 72, 49
1, 89034, Note_off_c, 0, 52, 64
1, 89060, Note_on_c, 0, 53, 84
1, 89108, Note_off_c, 0, 53, 64
1, 89124, Control_c, 0, 64, 127
1, 89152, Note_on_c, 0, 55, 69
1, 89234, Note_off_c, 0, 55, 64
1, 89268, Note_on_c, 0, 57, 58
1, 89376, Note_on_c, 0, 59, 63
1, 89390, Note_off_c, 0, 57, 64
1, 89400, Control_c, 0, 64, 0
1, 89426, Note_off_c, 0, 79, 64
1, 89446, Note_off_c, 0, 72, 64
1, 89474, Note_off_c, 0, 59, 64
1, 89477, Note_on_c, 0, 60, 71
1, 89532, Note_off_c, 0, 60, 64
1, 89572, Note_on_c, 0, 62, 63
1, 89624, Note_off_c, 0, 62, 64
1, 89668, Note_on_c, 0, 64, 79
1, 89730, Note_off_c, 0, 64, 64
1, 89786, Note_on_c, 0, 62, 64
1, 89858, Note_off_c, 0, 62, 64
1, 89870, Note_on_c, 0, 60, 65
1, 89976, Note_on_c, 0, 59, 70
1, 89986, Note_off_c, 0, 60, 64
1, 90030, Note_off_c, 0, 59, 64
1, 90096, Note_on_c, 0, 79, 77
1, 90096, Note_on_c, 0, 57, 64
1, 90096, Note_on_c, 0, 72, 55
1, 90202, Note_off_c, 0, 57, 64
1, 90205, Note_on_c, 0, 55, 77
1, 90226, Note_off_c, 0, 72, 64
1, 90306, Note_off_c, 0, 55, 64
1, 90309, Note_on_c, 0, 53, 88
1, 90324, Note_off_c, 0, 79, 64
1, 90418, Note_off_c, 0, 53, 64
1, 90428, Note_on_c, 0, 52, 68
1, 90504, Note_off_c, 0, 52, 64
1, 90534, Note_on_c, 0, 72, 64
1, 90534, Note_on_c, 0, 77, 79
1, 90537, Note_on_c, 0, 50, 72
1, 90766, Note_off_c, 0, 50, 64
1, 90769, Note_on_c, 0, 52, 70
1, 90860, Note_on_c, 0, 53, 90
1, 90882, Note_off_c, 0, 52, 64
1, 90948, Note_off_c, 0, 53, 64
1, 90956, Note_on_c, 0, 55, 70
1, 90968, Note_off_c, 0, 77, 64
1, 91010, Note_off_c, 0, 55, 64
1, 91034, Note_off_c, 0, 72, 64
1, 91046, Note_on_c, 0, 57, 65
1, 91136, Note_off_c, 0, 57, 64
1, 91146, Note_on_c, 0, 59, 68
1, 91234, Note_off_c, 0, 59, 64
1, 91244, Note_on_c, 0, 60, 69
1, 91340, Note_off_c, 0, 60, 64
1, 91340, Note_on_c, 0, 62, 70
1, 91454, Note_off_c, 0, 62, 64
1, 91456, Note_on_c, 0, 60, 51
1, 91560, Note_on_c, 0, 59, 59
1, 91568, Note_off_c, 0, 60, 64
1, 91614, Note_off_c, 0, 59, 64
1, 91658, Note_on_c, 0, 57, 65
1, 91732, Note_off_c, 0, 57, 64
1, 91786, Note_on_c, 0, 55, 71
1, 91788, Note_on_c, 0, 77, 45
1, 91790, Note_on_c, 0, 71, 44
1, 91880, Note_off_c, 0, 77, 64
1, 91900, Note_off_c, 0, 55, 64
1, 91900, Note_off_c, 0, 71, 64
1, 91908, Note_on_c, 0, 53, 70
1, 92000, Note_off_c, 0, 53, 64
1, 92012, Control_c, 0, 64, 127
1, 92015, Note_on_c, 0, 52, 51
1, 92074, Note_off_c, 0, 52, 64
1, 92108, Note_on_c, 0, 50, 62
1, 92156, Note_off_c, 0, 50, 64
1, 92228, Control_c, 0, 64, 0
1, 92246, Note_on_c, 0, 72, 50
1, 92246, Note_on_c, 0, 76, 53
1, 92256, Note_on_c, 0, 48, 67
1, 92498, Note_on_c, 0, 50, 64
1, 92514, Note_off_c, 0, 48, 64
1, 92568, Note_on_c, 0, 52, 81
1, 92576, Note_off_c, 0, 50, 64
1, 92658, Note_off_c, 0, 72, 64
1, 92688, Note_on_c, 0, 53, 86
1, 92691, Note_off_c, 0, 52, 64
1, 92730, Note_off_c, 0, 76, 64
1, 92763, Note_off_c, 0, 53, 64
1, 92776, Note_on_c, 0, 55, 72
1, 92868, Note_off_c, 0, 55, 64
1, 92878, Note_on_c, 0, 57, 65
1, 92986, Note_on_c, 0, 59, 70
1, 93004, Note_off_c, 0, 57, 64
1, 93080, Note_off_c, 0, 59, 64
1, 93083, Note_on_c, 0, 60, 70
1, 93188, Note_on_c, 0, 59, 59
1, 93208, Note_off_c, 0, 60, 64
1, 93292, Note_on_c, 0, 57, 68
1, 93310, Note_off_c, 0, 59, 64
1, 93365, Note_off_c, 0, 57, 64
1, 93410, Note_on_c, 0, 55, 60
1, 93478, Note_off_c, 0, 55, 64
1, 93510, Note_on_c, 0, 53, 85
1, 93536, Note_on_c, 0, 72, 50
1, 93550, Note_on_c, 0, 76, 40
1, 93568, Note_off_c, 0, 53, 64
1, 93620, Note_off_c, 0, 72, 64
1, 93632, Note_on_c, 0, 52, 41
1, 93702, Note_off_c, 0, 52, 64
1, 93728, Note_on_c, 0, 50, 63
1, 93786, Note_off_c, 0, 76, 64
1, 93800, Note_off_c, 0, 50, 64
1, 93822, Note_on_c, 0, 48, 51
1, 93930, Note_off_c, 0, 48, 64
1, 93938, Note_on_c, 0, 74, 63
1, 93956, Note_on_c, 0, 57, 40
1, 93970, Note_on_c, 0, 53, 70
1, 94022, Note_off_c, 0, 74, 64
1, 94060, Note_on_c, 0, 62, 54
1, 94122, Note_off_c, 0, 62, 64
1, 94170, Note_on_c, 0, 64, 57
1, 94246, Note_off_c, 0, 64, 64
1, 94260, Note_on_c, 0, 65, 60
1, 94326, Note_off_c, 0, 65, 64
1, 94374, Note_on_c, 0, 67, 60
1, 94434, Note_off_c, 0, 67, 64
1, 94472, Note_on_c, 0, 69, 57
1, 94560, Note_off_c, 0, 69, 64
1, 94578, Note_on_c, 0, 71, 58
1, 94652, Note_off_c, 0, 71, 64
1, 94690, Note_on_c, 0, 73, 50
1, 94790, Note_on_c, 0, 74, 80
1, 94822, Note_off_c, 0, 73, 64
1, 94896, Note_on_c, 0, 69, 64
1, 94914, Note_off_c, 0, 74, 64
1, 94990, Note_on_c, 0, 71, 72
1, 95022, Note_off_c, 0, 69, 64
1, 95084, Note_on_c, 0, 73, 68
1, 95098, Note_off_c, 0, 71, 64
1, 95188, Note_off_c, 0, 73, 64
1, 95188, Note_on_c, 0, 74, 84
1, 95280, Note_off_c, 0, 74, 64
1, 95286, Note_on_c, 0, 76, 81
1, 95386, Note_on_c, 0, 77, 87
1, 95416, Note_off_c, 0, 76, 64
1, 95444, Note_off_c, 0, 53, 64
1, 95486, Note_off_c, 0, 77, 64
1, 95494, Note_on_c, 0, 79, 88
1, 95510, Note_off_c, 0, 57, 64
1, 95604, Note_on_c, 0, 81, 89
1, 95607, Note_off_c, 0, 79, 64
1, 95607, Note_on_c, 0, 53, 92
1, 95718, Note_on_c, 0, 83, 100
1, 95766, Note_off_c, 0, 81, 64
1, 95818, Note_on_c, 0, 84, 88
1, 95828, Note_off_c, 0, 83, 64
1, 95932, Note_on_c, 0, 83, 91
1, 95980, Note_off_c, 0, 84, 64
1, 96044, Note_on_c, 0, 81, 75
1, 96066, Note_off_c, 0, 83, 64
1, 96146, Note_on_c, 0, 79, 75
1, 96166, Note_off_c, 0, 81, 64
1, 96184, Note_off_c, 0, 53, 64
1, 96214, Note_off_c, 0, 79, 64
1, 96242, Note_on_c, 0, 77, 66
1, 96270, Note_on_c, 0, 55, 64
1, 96342, Note_off_c, 0, 55, 64
1, 96346, Note_off_c, 0, 77, 64
1, 96346, Note_on_c, 0, 76, 66
1, 96396, Note_off_c, 0, 76, 64
1, 96458, Note_on_c, 0, 77, 71
1, 96466, Note_on_c, 0, 57, 76
1, 96568, Note_on_c, 0, 79, 85
1, 96630, Note_off_c, 0, 77, 64
1, 96678, Note_on_c, 0, 81, 84
1, 96708, Note_off_c, 0, 79, 64
1, 96786, Note_on_c, 0, 79, 72
1, 96854, Note_off_c, 0, 81, 64
1, 96896, Note_on_c, 0, 77, 73
1, 96926, Note_off_c, 0, 79, 64
1, 97004, Note_on_c, 0, 76, 61
1, 97014, Note_off_c, 0, 77, 64
1, 97034, Note_off_c, 0, 57, 64
1, 97072, Note_off_c, 0, 76, 64
1, 97106, Note_on_c, 0, 54, 70
1, 97118, Note_on_c, 0, 74, 61
1, 97156, Note_off_c, 0, 54, 64
1, 97182, Note_off_c, 0, 74, 64
1, 97210, Note_on_c, 0, 72, 66
1, 97262, Note_off_c, 0, 72, 64
1, 97298, Note_on_c, 0, 43, 71
1, 97316, Note_on_c, 0, 71, 80
1, 97420, Note_on_c, 0, 47, 66
1, 97434, Note_off_c, 0, 43, 64
1, 97478, Note_off_c, 0, 71, 64
1, 97526, Note_on_c, 0, 50, 70
1, 97526, Note_on_c, 0, 79, 84
1, 97528, Note_off_c, 0, 47, 64
1, 97580, Note_off_c, 0, 79, 64
1, 97586, Note_off_c, 0, 50, 64
1, 97630, Note_on_c, 0, 55, 56
1, 97708, Note_off_c, 0, 55, 64
1, 97738, Note_on_c, 0, 76, 59
1, 97752, Note_on_c, 0, 43, 60
1, 97786, Note_off_c, 0, 76, 64
1, 97818, Note_off_c, 0, 43, 64
1, 97842, Note_on_c, 0, 48, 62
1, 97950, Note_on_c, 0, 72, 69
1, 97964, Note_off_c, 0, 48, 64
1, 97964, Note_on_c, 0, 52, 74
1, 98006, Note_off_c, 0, 72, 64
1, 98044, Note_off_c, 0, 52, 64
1, 98064, Note_on_c, 0, 55, 63
1, 98138, Note_off_c, 0, 55, 64
1, 98170, Note_on_c, 0, 74, 91
1, 98176, Note_on_c, 0, 43, 73
1, 98270, Note_on_c, 0, 47, 68
1, 98300, Note_off_c, 0, 43, 64
1, 98368, Note_on_c, 0, 50, 75
1, 98390, Note_off_c, 0, 74, 64
1, 98390, Note_on_c, 0, 79, 91
1, 98394, Note_off_c, 0, 47, 64
1, 98458, Note_off_c, 0, 50, 64
1, 98460, Note_off_c, 0, 79, 64
1, 98460, Note_on_c, 0, 55, 62
1, 98556, Note_off_c, 0, 55, 64
1, 98590, Note_on_c, 0, 43, 70
1, 98600, Note_on_c, 0, 76, 76
1, 98679, Note_on_c, 0, 48, 67
1, 98688, Note_off_c, 0, 43, 64
1, 98692, Note_off_c, 0, 76, 64
1, 98792, Note_off_c, 0, 48, 64
1, 98798, Note_on_c, 0, 52, 71
1, 98806, Note_on_c, 0, 72, 79
1, 98872, Note_off_c, 0, 52, 64
1, 98894, Note_on_c, 0, 55, 68
1, 98916, Note_off_c, 0, 72, 64
1, 98948, Note_off_c, 0, 55, 64
1, 99034, Note_on_c, 0, 74, 95
1, 99037, Note_on_c, 0, 43, 84
1, 99072, Note_off_c, 0, 43, 64
1, 99126, Control_c, 0, 64, 127
1, 99162, Note_off_c, 0, 74, 64
1, 99202, Control_c, 0, 64, 0
1, 99466, Note_on_c, 0, 79, 94
1, 99476, Note_on_c, 0, 71, 71
1, 99482, Note_on_c, 0, 55, 55
1, 99482, Note_on_c, 0, 74, 57
1, 99534, Note_off_c, 0, 74, 64
1, 99537, Note_off_c, 0, 71, 64
1, 99564, Note_off_c, 0, 55, 64
1, 99588, Control_c, 0, 64, 127
1, 99604, Note_off_c, 0, 79, 64
1, 99694, Control_c, 0, 64, 0
1, 99938, Note_on_c, 0, 43, 65
1, 99944, Note_on_c, 0, 67, 69
1, 99984, Note_off_c, 0, 43, 64
1, 100032, Control_c, 0, 64, 127
1, 100074, Note_off_c, 0, 67, 64
1, 100324, Control_c, 0, 64, 0
1, 101030, Note_on_c, 0, 66, 23
1, 101136, Note_off_c, 0, 66, 64
1, 101138, Note_on_c, 0, 67, 34
1, 101230, Note_off_c, 0, 67, 64
1, 101238, Note_on_c, 0, 66, 29
1, 101340, Note_on_c, 0, 67, 34
1, 101358, Note_off_c, 0, 66, 64
1, 101424, Note_off_c, 0, 67, 64
1, 101440, Note_on_c, 0, 66, 38
1, 101538, Note_off_c, 0, 66, 64
1, 101541, Note_on_c, 0, 67, 28
1, 101618, Note_off_c, 0, 67, 64
1, 101628, Note_on_c, 0, 66, 37
1, 101742, Note_on_c, 0, 67, 43
1, 101746, Note_off_c, 0, 66, 64
1, 101832, Note_off_c, 0, 67, 64
1, 101874, Note_on_c, 0, 65, 30
1, 101952, Note_off_c, 0, 65, 64
1, 101982, Note_on_c, 0, 67, 34
1, 102060, Note_off_c, 0, 67, 64
1, 102094, Note_on_c, 0, 65, 27
1, 102170, Note_off_c, 0, 65, 64
1, 102198, Note_on_c, 0, 67, 37
1, 102276, Note_off_c, 0, 67, 64
1, 102330, Note_on_c, 0, 65, 35
1, 102394, Note_off_c, 0, 65, 64
1, 102442, Note_on_c, 0, 67, 41
1, 102506, Note_off_c, 0, 67, 64
1, 102562, Note_on_c, 0, 65, 18
1, 102632, Note_off_c, 0, 65, 64
1, 102676, Note_on_c, 0, 67, 37
1, 102776, Note_off_c, 0, 67, 64
1, 102812, Note_on_c, 0, 79, 70
1, 102842, Note_on_c, 0, 64, 36
1, 102906, Note_off_c, 0, 64, 64
1, 102980, Note_on_c, 0, 67, 36
1, 103058, Note_off_c, 0, 67, 64
1, 103076, Note_on_c, 0, 76, 58
1, 103094, Note_on_c, 0, 64, 36
1, 103132, Note_off_c, 0, 79, 64
1, 103152, Note_off_c, 0, 64, 64
1, 103220, Note_on_c, 0, 67, 35
1, 103290, Note_off_c, 0, 67, 64
1, 103308, Note_on_c, 0, 72, 61
1, 103334, Note_on_c, 0, 64, 36
1, 103337, Note_off_c, 0, 76, 64
1, 103390, Note_off_c, 0, 64, 64
1, 103442, Note_on_c, 0, 67, 36
1, 103510, Note_off_c, 0, 67, 64
1, 103568, Note_on_c, 0, 64, 19
1, 103636, Note_off_c, 0, 64, 64
1, 103662, Note_on_c, 0, 67, 33
1, 103730, Note_off_c, 0, 67, 64
1, 103766, Note_on_c, 0, 64, 24
1, 103834, Note_off_c, 0, 64, 64
1, 103904, Note_on_c, 0, 67, 22
1, 103986, Note_off_c, 0, 67, 64
1, 104014, Note_on_c, 0, 74, 39
1, 104016, Note_off_c, 0, 72, 64
1, 104018, Note_on_c, 0, 64, 33
1, 104064, Note_off_c, 0, 74, 64
1, 104076, Note_off_c, 0, 64, 64
1, 104088, Note_on_c, 0, 76, 44
1, 104112, Note_on_c, 0, 67, 17
1, 104168, Note_off_c, 0, 76, 64
1, 104190, Note_off_c, 0, 67, 64
1, 104196, Note_on_c, 0, 74, 38
1, 104234, Note_on_c, 0, 64, 21
1, 104298, Note_off_c, 0, 64, 64
1, 104330, Note_on_c, 0, 67, 20
1, 104374, Note_off_c, 0, 74, 64
1, 104402, Note_on_c, 0, 64, 40
1, 104405, Note_off_c, 0, 67, 64
1, 104405, Note_on_c, 0, 72, 46
1, 104460, Note_off_c, 0, 72, 64
1, 104466, Note_off_c, 0, 64, 64
1, 104480, Note_on_c, 0, 74, 50
1, 104490, Note_on_c, 0, 67, 36
1, 104538, Note_off_c, 0, 74, 64
1, 104550, Note_on_c, 0, 72, 36
1, 104568, Note_off_c, 0, 67, 64
1, 104606, Note_off_c, 0, 72, 64
1, 104622, Note_on_c, 0, 74, 49
1, 104630, Note_on_c, 0, 65, 22
1, 104672, Note_off_c, 0, 74, 64
1, 104684, Note_on_c, 0, 72, 39
1, 104702, Note_off_c, 0, 65, 64
1, 104722, Note_on_c, 0, 67, 41
1, 104736, Note_on_c, 0, 74, 64
1, 104748, Note_off_c, 0, 72, 64
1, 104794, Note_off_c, 0, 67, 64
1, 104802, Note_off_c, 0, 74, 64
1, 104818, Note_on_c, 0, 72, 31
1, 104826, Note_on_c, 0, 64, 43
1, 104888, Note_off_c, 0, 64, 64
1, 104906, Note_off_c, 0, 72, 64
1, 104928, Note_on_c, 0, 71, 42
1, 104948, Note_on_c, 0, 67, 27
1, 104996, Note_off_c, 0, 71, 64
1, 105026, Note_off_c, 0, 67, 64
1, 105042, Note_on_c, 0, 71, 22
1, 105050, Note_on_c, 0, 62, 45
1, 105114, Note_off_c, 0, 62, 64
1, 105152, Note_on_c, 0, 67, 29
1, 105234, Note_off_c, 0, 67, 64
1, 105260, Note_on_c, 0, 64, 43
1, 105318, Note_off_c, 0, 64, 64
1, 105354, Note_on_c, 0, 67, 29
1, 105428, Note_off_c, 0, 67, 64
1, 105472, Note_on_c, 0, 65, 31
1, 105542, Note_off_c, 0, 65, 64
1, 105582, Note_on_c, 0, 67, 30
1, 105662, Note_off_c, 0, 67, 64
1, 105688, Note_on_c, 0, 64, 44
1, 105750, Note_off_c, 0, 64, 64
1, 105806, Note_on_c, 0, 67, 29
1, 105874, Note_off_c, 0, 67, 64
1, 105916, Note_on_c, 0, 65, 30
1, 105920, Note_off_c, 0, 71, 64
1, 105988, Note_off_c, 0, 65, 64
1, 106026, Note_on_c, 0, 67, 25
1, 106108, Note_off_c, 0, 67, 64
1, 106156, Note_on_c, 0, 62, 27
1, 106228, Note_off_c, 0, 62, 64
1, 106256, Note_on_c, 0, 67, 27
1, 106336, Note_off_c, 0, 67, 64
1, 106358, Note_on_c, 0, 79, 56
1, 106386, Note_on_c, 0, 64, 24
1, 106450, Note_off_c, 0, 64, 64
1, 106514, Note_on_c, 0, 67, 35
1, 106578, Note_off_c, 0, 67, 64
1, 106612, Note_on_c, 0, 76, 37
1, 106638, Note_off_c, 0, 79, 64
1, 106638, Note_on_c, 0, 64, 38
1, 106692, Note_off_c, 0, 64, 64
1, 106730, Note_on_c, 0, 67, 38
1, 106800, Note_off_c, 0, 67, 64
1, 106835, Note_on_c, 0, 72, 50
1, 106874, Note_off_c, 0, 76, 64
1, 106882, Note_on_c, 0, 64, 9
1, 106936, Note_off_c, 0, 64, 64
1, 106964, Note_on_c, 0, 67, 39
1, 107032, Note_off_c, 0, 67, 64
1, 107038, Note_on_c, 0, 64, 39
1, 107106, Note_off_c, 0, 64, 64
1, 107152, Note_on_c, 0, 67, 22
1, 107228, Note_off_c, 0, 67, 64
1, 107280, Note_on_c, 0, 64, 37
1, 107336, Note_off_c, 0, 64, 64
1, 107378, Note_on_c, 0, 67, 30
1, 107450, Note_off_c, 0, 67, 64
1, 107496, Note_on_c, 0, 74, 53
1, 107508, Note_off_c, 0, 72, 64
1, 107516, Note_on_c, 0, 64, 26
1, 107554, Note_off_c, 0, 74, 64
1, 107582, Note_off_c, 0, 64, 64
1, 107582, Note_on_c, 0, 76, 54
1, 107612, Note_on_c, 0, 67, 42
1, 107676, Note_off_c, 0, 67, 64
1, 107682, Note_on_c, 0, 74, 69
1, 107696, Note_on_c, 0, 64, 37
1, 107728, Note_off_c, 0, 76, 64
1, 107758, Note_off_c, 0, 64, 64
1, 107822, Note_on_c, 0, 67, 25
1, 107874, Note_off_c, 0, 74, 64
1, 107892, Note_off_c, 0, 67, 64
1, 107900, Note_on_c, 0, 72, 50
1, 107912, Note_on_c, 0, 64, 47
1, 107948, Note_on_c, 0, 74, 70
1, 107950, Note_off_c, 0, 72, 64
1, 107968, Note_off_c, 0, 64, 64
1, 107984, Note_on_c, 0, 67, 32
1, 108006, Note_off_c, 0, 74, 64
1, 108024, Note_on_c, 0, 72, 45
1, 108068, Note_off_c, 0, 67, 64
1, 108080, Note_off_c, 0, 72, 64
1, 108114, Note_on_c, 0, 74, 36
1, 108122, Note_on_c, 0, 65, 30
1, 108148, Note_on_c, 0, 72, 59
1, 108190, Note_off_c, 0, 65, 64
1, 108204, Note_off_c, 0, 72, 64
1, 108240, Note_on_c, 0, 67, 37
1, 108260, Note_off_c, 0, 74, 64
1, 108282, Note_on_c, 0, 72, 48
1, 108310, Note_off_c, 0, 67, 64
1, 108338, Note_on_c, 0, 64, 44
1, 108398, Note_off_c, 0, 64, 64
1, 108412, Note_off_c, 0, 72, 64
1, 108434, Note_on_c, 0, 71, 41
1, 108437, Control_c, 0, 64, 127
1, 108480, Note_on_c, 0, 67, 28
1, 108492, Note_off_c, 0, 71, 64
1, 108544, Control_c, 0, 64, 0
1, 108558, Note_off_c, 0, 67, 64
1, 108570, Note_on_c, 0, 71, 60
1, 108580, Note_on_c, 0, 62, 46
1, 108642, Note_off_c, 0, 62, 64
1, 108676, Note_on_c, 0, 67, 20
1, 108770, Note_off_c, 0, 67, 64
1, 108794, Note_on_c, 0, 64, 46
1, 108850, Note_off_c, 0, 64, 64
1, 108886, Note_on_c, 0, 67, 37
1, 108970, Note_off_c, 0, 67, 64
1, 109014, Note_on_c, 0, 65, 48
1, 109094, Note_off_c, 0, 65, 64
1, 109130, Note_on_c, 0, 67, 47
1, 109196, Note_off_c, 0, 67, 64
1, 109234, Note_on_c, 0, 64, 44
1, 109304, Note_off_c, 0, 64, 64
1, 109310, Note_off_c, 0, 71, 64
1, 109354, Note_on_c, 0, 67, 37
1, 109424, Note_off_c, 0, 67, 64
1, 109444, Note_on_c, 0, 65, 46
1, 109518, Note_off_c, 0, 65, 64
1, 109568, Note_on_c, 0, 67, 32
1, 109642, Note_off_c, 0, 67, 64
1, 109674, Note_on_c, 0, 62, 36
1, 109746, Note_off_c, 0, 62, 64
1, 109792, Note_on_c, 0, 67, 36
1, 109858, Note_off_c, 0, 67, 64
1, 109948, Note_on_c, 0, 79, 66
1, 110052, Note_on_c, 0, 52, 55
1, 110128, Note_off_c, 0, 52, 64
1, 110168, Note_on_c, 0, 55, 45
1, 110246, Note_off_c, 0, 55, 64
1, 110266, Control_c, 0, 64, 127
1, 110276, Note_on_c, 0, 60, 42
1, 110358, Note_off_c, 0, 79, 64
1, 110392, Note_off_c, 0, 60, 64
1, 110414, Note_on_c, 0, 64, 56
1, 110480, Control_c, 0, 64, 0
1, 110530, Note_on_c, 0, 79, 63
1, 110642, Note_on_c, 0, 76, 59
1, 110648, Note_off_c, 0, 64, 64
1, 110664, Note_off_c, 0, 79, 64
1, 110750, Note_on_c, 0, 72, 62
1, 110806, Note_off_c, 0, 76, 64
1, 110872, Note_on_c, 0, 69, 55
1, 110896, Note_off_c, 0, 72, 64
1, 110970, Note_on_c, 0, 53, 73
1, 111066, Note_off_c, 0, 53, 64
1, 111069, Note_on_c, 0, 57, 48
1, 111186, Note_on_c, 0, 60, 57
1, 111189, Note_off_c, 0, 57, 64
1, 111280, Note_off_c, 0, 69, 64
1, 111312, Note_off_c, 0, 60, 64
1, 111326, Note_on_c, 0, 65, 54
1, 111436, Note_on_c, 0, 69, 49
1, 111510, Control_c, 0, 64, 127
1, 111514, Note_off_c, 0, 69, 64
1, 111550, Note_on_c, 0, 72, 72
1, 111558, Note_off_c, 0, 65, 64
1, 111618, Control_c, 0, 64, 0
1, 111658, Note_off_c, 0, 72, 64
1, 111660, Note_on_c, 0, 69, 64
1, 111796, Note_on_c, 0, 77, 79
1, 111824, Note_off_c, 0, 69, 64
1, 111900, Note_on_c, 0, 50, 48
1, 112002, Note_on_c, 0, 53, 79
1, 112006, Note_off_c, 0, 50, 64
1, 112102, Note_off_c, 0, 53, 64
1, 112118, Note_on_c, 0, 59, 48
1, 112218, Control_c, 0, 64, 127
1, 112250, Note_off_c, 0, 59, 64
1, 112252, Note_off_c, 0, 77, 64
1, 112252, Note_on_c, 0, 62, 60
1, 112352, Note_on_c, 0, 77, 57
1, 112402, Control_c, 0, 64, 0
1, 112474, Note_off_c, 0, 62, 64
1, 112480, Note_on_c, 0, 74, 69
1, 112492, Note_off_c, 0, 77, 64
1, 112588, Note_on_c, 0, 71, 74
1, 112604, Note_off_c, 0, 74, 64
1, 112720, Note_off_c, 0, 71, 64
1, 112724, Note_on_c, 0, 67, 72
1, 112822, Note_on_c, 0, 52, 62
1, 112894, Note_off_c, 0, 52, 64
1, 112928, Note_on_c, 0, 55, 54
1, 112970, Control_c, 0, 64, 127
1, 112998, Note_off_c, 0, 67, 64
1, 113002, Note_off_c, 0, 55, 64
1, 113036, Note_on_c, 0, 59, 55
1, 113150, Note_off_c, 0, 59, 64
1, 113162, Note_on_c, 0, 64, 68
1, 113262, Control_c, 0, 64, 0
1, 113270, Note_on_c, 0, 79, 76
1, 113304, Note_off_c, 0, 64, 64
1, 113372, Note_on_c, 0, 83, 101
1, 113374, Note_off_c, 0, 79, 64
1, 113486, Note_on_c, 0, 79, 82
1, 113500, Note_off_c, 0, 83, 64
1, 113622, Note_off_c, 0, 79, 64
1, 113622, Note_on_c, 0, 88, 84
1, 113732, Note_on_c, 0, 60, 50
1, 113818, Note_off_c, 0, 60, 64
1, 113836, Note_on_c, 0, 64, 55
1, 113846, Control_c, 0, 64, 127
1, 113906, Note_off_c, 0, 64, 64
1, 113938, Note_on_c, 0, 69, 46
1, 113946, Note_off_c, 0, 88, 64
1, 114072, Note_off_c, 0, 69, 64
1, 114078, Note_on_c, 0, 72, 63
1, 114172, Note_on_c, 0, 88, 72
1, 114198, Note_off_c, 0, 72, 64
1, 114260, Control_c, 0, 64, 0
1, 114286, Note_on_c, 0, 84, 87
1, 114308, Note_off_c, 0, 88, 64
1, 114402, Note_on_c, 0, 81, 77
1, 114436, Note_off_c, 0, 84, 64
1, 114520, Note_on_c, 0, 77, 74
1, 114548, Note_off_c, 0, 81, 64
1, 114620, Note_on_c, 0, 62, 59
1, 114706, Control_c, 0, 64, 127
1, 114718, Note_off_c, 0, 62, 64
1, 114718, Note_on_c, 0, 65, 57
1, 114826, Note_off_c, 0, 65, 64
1, 114830, Note_on_c, 0, 69, 48
1, 114884, Note_off_c, 0, 77, 64
1, 114916, Note_off_c, 0, 69, 64
1, 114954, Note_on_c, 0, 74, 68
1, 115074, Note_on_c, 0, 77, 74
1, 115120, Note_off_c, 0, 74, 64
1, 115120, Control_c, 0, 64, 0
1, 115150, Note_off_c, 0, 77, 64
1, 115172, Note_on_c, 0, 81, 81
1, 115286, Note_on_c, 0, 77, 85
1, 115306, Note_off_c, 0, 81, 64
1, 115428, Note_off_c, 0, 77, 64
1, 115444, Note_on_c, 0, 86, 74
1, 115548, Note_on_c, 0, 59, 38
1, 115668, Note_on_c, 0, 62, 39
1, 115674, Control_c, 0, 64, 127
1, 115692, Note_off_c, 0, 59, 64
1, 115740, Note_off_c, 0, 62, 64
1, 115786, Note_off_c, 0, 86, 64
1, 115786, Note_on_c, 0, 67, 40
1, 115874, Note_off_c, 0, 67, 64
1, 115914, Note_on_c, 0, 71, 60
1, 116002, Note_on_c, 0, 86, 66
1, 116036, Note_off_c, 0, 71, 64
1, 116104, Control_c, 0, 64, 0
1, 116124, Note_on_c, 0, 83, 81
1, 116140, Note_off_c, 0, 86, 64
1, 116230, Note_on_c, 0, 79, 72
1, 116258, Note_off_c, 0, 83, 64
1, 116370, Note_off_c, 0, 79, 64
1, 116370, Note_on_c, 0, 76, 47
1, 116466, Note_on_c, 0, 60, 45
1, 116570, Note_off_c, 0, 60, 64
1, 116578, Note_on_c, 0, 64, 34
1, 116660, Note_off_c, 0, 64, 64
1, 116684, Note_on_c, 0, 67, 34
1, 116766, Control_c, 0, 64, 127
1, 116782, Note_off_c, 0, 67, 64
1, 116820, Note_on_c, 0, 72, 34
1, 116878, Note_off_c, 0, 76, 64
1, 116952, Note_on_c, 0, 84, 54
1, 117014, Note_off_c, 0, 72, 64
1, 117060, Note_off_c, 0, 84, 64
1, 117082, Note_on_c, 0, 79, 53
1, 117134, Control_c, 0, 64, 0
1, 117180, Note_on_c, 0, 76, 36
1, 117212, Note_off_c, 0, 79, 64
1, 117304, Note_on_c, 0, 74, 55
1, 117312, Note_off_c, 0, 76, 64
1, 117544, Note_on_c, 0, 65, 32
1, 117548, Note_on_c, 0, 69, 25
1, 117612, Note_off_c, 0, 65, 64
1, 117624, Note_off_c, 0, 69, 64
1, 117784, Note_on_c, 0, 69, 29
1, 117794, Note_on_c, 0, 65, 28
1, 117854, Note_off_c, 0, 65, 64
1, 117856, Note_off_c, 0, 69, 64
1, 118010, Note_on_c, 0, 69, 25
1, 118048, Note_off_c, 0, 74, 64
1, 118088, Note_off_c, 0, 69, 64
1, 118208, Note_on_c, 0, 73, 45
1, 118224, Note_on_c, 0, 69, 26
1, 118244, Note_on_c, 0, 74, 55
1, 118264, Note_off_c, 0, 73, 64
1, 118266, Note_on_c, 0, 65, 21
1, 118302, Note_off_c, 0, 69, 64
1, 118332, Note_off_c, 0, 65, 64
1, 118472, Note_on_c, 0, 69, 34
1, 118484, Note_on_c, 0, 65, 19
1, 118500, Note_off_c, 0, 74, 64
1, 118550, Note_off_c, 0, 69, 64
1, 118553, Note_off_c, 0, 65, 64
1, 118680, Note_on_c, 0, 73, 46
1, 118700, Note_on_c, 0, 65, 29
1, 118703, Note_on_c, 0, 69, 44
1, 118708, Note_on_c, 0, 74, 78
1, 118744, Note_off_c, 0, 73, 64
1, 118766, Note_off_c, 0, 69, 64
1, 118772, Note_off_c, 0, 65, 64
1, 118864, Note_off_c, 0, 74, 64
1, 118926, Note_on_c, 0, 69, 41
1, 118942, Note_on_c, 0, 65, 41
1, 118990, Note_off_c, 0, 69, 64
1, 118996, Note_off_c, 0, 65, 64
1, 119168, Note_on_c, 0, 81, 63
1, 119396, Note_on_c, 0, 63, 48
1, 119400, Note_on_c, 0, 54, 52
1, 119420, Note_on_c, 0, 60, 40
1, 119466, Note_off_c, 0, 63, 64
1, 119478, Note_off_c, 0, 54, 64
1, 119478, Note_off_c, 0, 60, 64
1, 119628, Note_on_c, 0, 63, 55
1, 119640, Note_on_c, 0, 54, 46
1, 119642, Note_on_c, 0, 60, 30
1, 119686, Note_off_c, 0, 63, 64
1, 119700, Note_off_c, 0, 54, 64
1, 119702, Note_off_c, 0, 60, 64
1, 119856, Note_on_c, 0, 63, 42
1, 119878, Note_on_c, 0, 54, 35
1, 119882, Note_on_c, 0, 60, 37
1, 119886, Note_off_c, 0, 81, 64
1, 119914, Note_off_c, 0, 63, 64
1, 119946, Note_off_c, 0, 60, 64
1, 119948, Note_off_c, 0, 54, 64
1, 120044, Note_on_c, 0, 80, 56
1, 120068, Note_on_c, 0, 54, 48
1, 120076, Note_on_c, 0, 63, 52
1, 120079, Note_on_c, 0, 60, 29
1, 120084, Note_on_c, 0, 81, 84
1, 120134, Note_off_c, 0, 80, 64
1, 120134, Note_off_c, 0, 63, 64
1, 120146, Note_off_c, 0, 54, 64
1, 120149, Note_off_c, 0, 60, 64
1, 120268, Note_off_c, 0, 81, 64
1, 120300, Note_on_c, 0, 63, 49
1, 120302, Note_on_c, 0, 54, 57
1, 120316, Note_on_c, 0, 60, 54
1, 120360, Note_off_c, 0, 63, 64
1, 120360, Note_off_c, 0, 54, 64
1, 120370, Note_off_c, 0, 60, 64
1, 120488, Note_on_c, 0, 80, 61
1, 120512, Note_on_c, 0, 54, 71
1, 120514, Note_on_c, 0, 81, 95
1, 120514, Note_on_c, 0, 63, 62
1, 120536, Note_on_c, 0, 60, 58
1, 120568, Note_off_c, 0, 63, 64
1, 120572, Note_off_c, 0, 80, 64
1, 120574, Note_off_c, 0, 54, 64
1, 120588, Note_off_c, 0, 60, 64
1, 120630, Note_off_c, 0, 81, 64
1, 120736, Note_on_c, 0, 63, 69
1, 120742, Note_on_c, 0, 54, 73
1, 120754, Note_on_c, 0, 60, 55
1, 120784, Note_off_c, 0, 54, 64
1, 120788, Note_off_c, 0, 63, 64
1, 120804, Note_off_c, 0, 60, 64
1, 120964, Note_on_c, 0, 79, 93
1, 120980, Note_on_c, 0, 55, 72
1, 121110, Note_on_c, 0, 64, 45
1, 121120, Note_off_c, 0, 55, 64
1, 121184, Note_off_c, 0, 64, 64
1, 121234, Note_on_c, 0, 60, 48
1, 121242, Note_off_c, 0, 79, 64
1, 121244, Note_on_c, 0, 81, 76
1, 121316, Note_off_c, 0, 60, 64
1, 121318, Note_off_c, 0, 81, 64
1, 121338, Note_on_c, 0, 83, 104
1, 121348, Note_on_c, 0, 64, 55
1, 121402, Note_off_c, 0, 64, 64
1, 121406, Note_off_c, 0, 83, 64
1, 121444, Note_on_c, 0, 55, 63
1, 121450, Note_on_c, 0, 84, 89
1, 121500, Note_off_c, 0, 55, 64
1, 121544, Note_on_c, 0, 86, 87
1, 121556, Note_off_c, 0, 84, 64
1, 121562, Note_on_c, 0, 64, 39
1, 121618, Note_off_c, 0, 64, 64
1, 121640, Note_off_c, 0, 86, 64
1, 121644, Note_on_c, 0, 88, 82
1, 121644, Note_on_c, 0, 60, 50
1, 121718, Note_off_c, 0, 60, 64
1, 121746, Note_on_c, 0, 86, 75
1, 121764, Note_off_c, 0, 88, 64
1, 121767, Note_on_c, 0, 64, 37
1, 121828, Note_off_c, 0, 64, 64
1, 121846, Note_off_c, 0, 86, 64
1, 121848, Note_on_c, 0, 55, 51
1, 121860, Note_on_c, 0, 84, 82
1, 121908, Note_off_c, 0, 55, 64
1, 121942, Note_on_c, 0, 64, 39
1, 121952, Note_off_c, 0, 84, 64
1, 121966, Note_on_c, 0, 83, 98
1, 122004, Control_c, 0, 64, 127
1, 122009, Note_off_c, 0, 64, 64
1, 122060, Note_on_c, 0, 60, 41
1, 122078, Note_on_c, 0, 81, 59
1, 122081, Note_off_c, 0, 83, 64
1, 122136, Note_off_c, 0, 60, 64
1, 122166, Note_on_c, 0, 64, 41
1, 122169, Note_on_c, 0, 79, 62
1, 122172, Note_off_c, 0, 81, 64
1, 122224, Note_off_c, 0, 79, 64
1, 122227, Note_off_c, 0, 64, 64
1, 122250, Control_c, 0, 64, 0
1, 122260, Note_on_c, 0, 77, 68
1, 122266, Note_on_c, 0, 55, 63
1, 122328, Note_off_c, 0, 77, 64
1, 122328, Note_off_c, 0, 55, 64
1, 122366, Note_on_c, 0, 76, 58
1, 122392, Note_on_c, 0, 64, 32
1, 122448, Note_off_c, 0, 64, 64
1, 122466, Note_off_c, 0, 76, 64
1, 122472, Note_on_c, 0, 60, 50
1, 122476, Note_on_c, 0, 74, 66
1, 122480, Control_c, 0, 64, 127
1, 122528, Note_off_c, 0, 74, 64
1, 122540, Note_off_c, 0, 60, 64
1, 122562, Note_on_c, 0, 72, 58
1, 122582, Note_on_c, 0, 64, 39
1, 122604, Control_c, 0, 64, 0
1, 122614, Note_off_c, 0, 72, 64
1, 122640, Note_off_c, 0, 64, 64
1, 122646, Note_on_c, 0, 76, 64
1, 122672, Note_on_c, 0, 55, 57
1, 122690, Note_off_c, 0, 76, 64
1, 122734, Note_on_c, 0, 74, 49
1, 122746, Note_off_c, 0, 55, 64
1, 122764, Note_on_c, 0, 65, 44
1, 122784, Note_off_c, 0, 74, 64
1, 122786, Note_on_c, 0, 76, 46
1, 122836, Note_off_c, 0, 76, 64
1, 122842, Note_off_c, 0, 65, 64
1, 122866, Control_c, 0, 64, 127
1, 122866, Note_on_c, 0, 74, 42
1, 122880, Note_on_c, 0, 59, 39
1, 122920, Note_off_c, 0, 74, 64
1, 122920, Note_on_c, 0, 76, 48
1, 122948, Note_off_c, 0, 59, 64
1, 122972, Note_off_c, 0, 76, 64
1, 123000, Note_on_c, 0, 65, 34
1, 123004, Note_on_c, 0, 74, 45
1, 123056, Note_on_c, 0, 76, 49
1, 123058, Note_off_c, 0, 74, 64
1, 123066, Note_off_c, 0, 65, 64
1, 123102, Note_on_c, 0, 55, 55
1, 123112, Note_off_c, 0, 76, 64
1, 123136, Note_on_c, 0, 74, 47
1, 123158, Note_off_c, 0, 55, 64
1, 123200, Note_off_c, 0, 74, 64
1, 123206, Note_on_c, 0, 65, 41
1, 123212, Note_on_c, 0, 76, 47
1, 123262, Note_off_c, 0, 76, 64
1, 123274, Note_off_c, 0, 65, 64
1, 123278, Note_on_c, 0, 74, 57
1, 123300, Note_on_c, 0, 59, 49
1, 123346, Note_off_c, 0, 74, 64
1, 123354, Note_on_c, 0, 76, 48
1, 123358, Note_off_c, 0, 59, 64
1, 123402, Note_off_c, 0, 76, 64
1, 123424, Note_on_c, 0, 65, 38
1, 123432, Note_on_c, 0, 74, 58
1, 123484, Note_off_c, 0, 65, 64
1, 123494, Control_c, 0, 64, 0
1, 123496, Note_off_c, 0, 74, 64
1, 123510, Note_on_c, 0, 76, 51
1, 123513, Note_on_c, 0, 55, 69
1, 123558, Note_off_c, 0, 76, 64
1, 123578, Note_off_c, 0, 55, 64
1, 123581, Note_on_c, 0, 74, 74
1, 123620, Note_on_c, 0, 65, 39
1, 123644, Note_off_c, 0, 74, 64
1, 123658, Note_on_c, 0, 76, 55
1, 123678, Control_c, 0, 64, 127
1, 123682, Note_off_c, 0, 65, 64
1, 123702, Note_on_c, 0, 59, 49
1, 123708, Note_off_c, 0, 76, 64
1, 123728, Note_on_c, 0, 74, 66
1, 123758, Note_off_c, 0, 59, 64
1, 123782, Note_off_c, 0, 74, 64
1, 123808, Note_on_c, 0, 76, 50
1, 123808, Note_on_c, 0, 65, 32
1, 123856, Note_off_c, 0, 76, 64
1, 123872, Note_off_c, 0, 65, 64
1, 123872, Note_on_c, 0, 74, 66
1, 123902, Note_on_c, 0, 55, 68
1, 123910, Control_c, 0, 64, 0
1, 123934, Note_off_c, 0, 74, 64
1, 123937, Note_on_c, 0, 76, 54
1, 123962, Note_off_c, 0, 55, 64
1, 123996, Note_off_c, 0, 76, 64
1, 124014, Note_on_c, 0, 65, 44
1, 124014, Note_on_c, 0, 74, 55
1, 124048, Control_c, 0, 64, 127
1, 124064, Note_off_c, 0, 74, 64
1, 124070, Note_off_c, 0, 65, 64
1, 124070, Note_on_c, 0, 76, 64
1, 124124, Control_c, 0, 64, 0
1, 124128, Note_on_c, 0, 59, 46
1, 124142, Note_on_c, 0, 74, 59
1, 124184, Note_off_c, 0, 76, 64
1, 124186, Note_off_c, 0, 59, 64
1, 124226, Note_off_c, 0, 74, 64
1, 124226, Note_on_c, 0, 72, 62
1, 124240, Note_on_c, 0, 65, 41
1, 124270, Note_off_c, 0, 72, 64
1, 124292, Note_on_c, 0, 74, 85
1, 124302, Note_off_c, 0, 65, 64
1, 124370, Note_off_c, 0, 74, 64
1, 124378, Note_on_c, 0, 64, 45
1, 124394, Note_on_c, 0, 60, 31
1, 124414, Note_on_c, 0, 72, 77
1, 124602, Control_c, 0, 64, 127
1, 124624, Note_off_c, 0, 72, 64
1, 124700, Note_off_c, 0, 64, 64
1, 124780, Note_off_c, 0, 60, 64
1, 124890, Note_on_c, 0, 72, 56
1, 124940, Control_c, 0, 64, 0
1, 124950, Note_off_c, 0, 72, 64
1, 124994, Note_on_c, 0, 67, 66
1, 125068, Note_off_c, 0, 67, 64
1, 125096, Note_on_c, 0, 72, 70
1, 125194, Note_off_c, 0, 72, 64
1, 125208, Note_on_c, 0, 76, 67
1, 125316, Note_on_c, 0, 79, 85
1, 125344, Note_off_c, 0, 76, 64
1, 125420, Note_on_c, 0, 76, 57
1, 125446, Note_off_c, 0, 79, 64
1, 125530, Note_on_c, 0, 72, 66
1, 125534, Note_off_c, 0, 76, 64
1, 125598, Note_off_c, 0, 72, 64
1, 125638, Note_on_c, 0, 76, 57
1, 125756, Note_on_c, 0, 65, 45
1, 125766, Note_on_c, 0, 55, 47
1, 125772, Note_off_c, 0, 76, 64
1, 125772, Note_on_c, 0, 77, 54
1, 125775, Note_on_c, 0, 62, 37
1, 125814, Note_off_c, 0, 65, 64
1, 125832, Note_off_c, 0, 55, 64
1, 125840, Note_off_c, 0, 62, 64
1, 125854, Note_off_c, 0, 77, 64
1, 125872, Note_on_c, 0, 74, 49
1, 125946, Note_off_c, 0, 74, 64
1, 125982, Note_on_c, 0, 71, 52
1, 126046, Note_off_c, 0, 71, 64
1, 126104, Note_on_c, 0, 74, 55
1, 126156, Note_off_c, 0, 74, 64
1, 126230, Note_on_c, 0, 72, 51
1, 126244, Note_on_c, 0, 64, 27
1, 126252, Note_on_c, 0, 60, 21
1, 126338, Control_c, 0, 64, 127
1, 126341, Note_off_c, 0, 64, 64
1, 126350, Note_off_c, 0, 72, 64
1, 126408, Note_off_c, 0, 60, 64
1, 126660, Control_c, 0, 64, 0
1, 126688, Note_on_c, 0, 60, 39
1, 126754, Note_off_c, 0, 60, 64
1, 126768, Note_on_c, 0, 55, 54
1, 126844, Note_off_c, 0, 55, 64
1, 126888, Note_on_c, 0, 60, 30
1, 126968, Note_off_c, 0, 60, 64
1, 127006, Note_on_c, 0, 64, 57
1, 127100, Note_off_c, 0, 64, 64
1, 127112, Note_on_c, 0, 67, 61
1, 127218, Note_on_c, 0, 64, 51
1, 127224, Note_off_c, 0, 67, 64
1, 127278, Note_off_c, 0, 64, 64
1, 127316, Note_on_c, 0, 60, 55
1, 127376, Note_off_c, 0, 60, 64
1, 127418, Note_on_c, 0, 64, 53
1, 127530, Note_on_c, 0, 53, 65
1, 127534, Note_off_c, 0, 64, 64
1, 127536, Note_on_c, 0, 43, 41
1, 127546, Note_on_c, 0, 50, 39
1, 127552, Note_on_c, 0, 65, 45
1, 127590, Note_off_c, 0, 53, 64
1, 127618, Note_off_c, 0, 50, 64
1, 127620, Note_off_c, 0, 65, 64
1, 127630, Note_off_c, 0, 43, 64
1, 127642, Note_on_c, 0, 62, 50
1, 127706, Note_off_c, 0, 62, 64
1, 127748, Note_on_c, 0, 59, 45
1, 127820, Note_off_c, 0, 59, 64
1, 127850, Note_on_c, 0, 62, 62
1, 127922, Note_off_c, 0, 62, 64
1, 127980, Note_on_c, 0, 52, 47
1, 127986, Note_on_c, 0, 60, 75
1, 127994, Note_on_c, 0, 48, 31
1, 128070, Note_off_c, 0, 48, 64
1, 128086, Note_off_c, 0, 60, 64
1, 128089, Control_c, 0, 64, 127
1, 128096, Note_off_c, 0, 52, 64
1, 128150, Control_c, 0, 64, 0
1, 128450, Note_on_c, 0, 84, 98
1, 128453, Note_on_c, 0, 76, 78
1, 128458, Note_on_c, 0, 60, 66
1, 128458, Note_on_c, 0, 79, 83
1, 128466, Note_on_c, 0, 48, 52
1, 128502, Note_off_c, 0, 76, 64
1, 128507, Note_off_c, 0, 60, 64
1, 128507, Note_off_c, 0, 79, 64
1, 128526, Note_off_c, 0, 48, 64
1, 128542, Note_off_c, 0, 84, 64
1, 128564, Control_c, 0, 64, 127
1, 128750, Control_c, 0, 64, 0
1, 129066, Note_on_c, 0, 72, 81
1, 129076, Note_on_c, 0, 48, 53
1, 129080, Note_on_c, 0, 36, 53
1, 129180, Control_c, 0, 64, 127
1, 129270, Note_off_c, 0, 48, 64
1, 129286, Note_off_c, 0, 36, 64
1, 129338, Note_off_c, 0, 72, 64
1, 129686, Control_c, 0, 64, 0
1, 130560, Control_c, 0, 64, 0
1, 132480, Control_c, 0, 64, 0
1, 132480, End_track
0, 0, End_of_file
