0, 0, Header, 1, 9, 480
1, 0, Start_track
1, 0, Title_t, "Seq-1"
1, 0, SMPTE_offset, 96, 0, 0, 0, 0
1, 0, Time_signature, 4, 2, 24, 8
1, 0, Tempo, 500000
1, 0, End_track
2, 0, Start_track
2, 0, Title_t, "Track-1"
2, 0, Control_c, 0, 64, 127
2, 988, Note_on_c, 0, 70, 65
2, 998, Note_on_c, 0, 51, 16
2, 1555, Note_on_c, 0, 55, 16
2, 1828, Note_off_c, 0, 51, 64
2, 1876, Note_off_c, 0, 55, 64
2, 1943, Note_on_c, 0, 58, 27
2, 2188, Note_off_c, 0, 58, 64
2, 2380, Note_on_c, 0, 55, 20
2, 2659, Note_off_c, 0, 55, 64
2, 2827, Note_on_c, 0, 67, 43
2, 2831, Note_on_c, 0, 51, 21
2, 3014, Note_off_c, 0, 70, 64
2, 3110, Control_c, 0, 64, 0
2, 3263, Control_c, 0, 64, 127
2, 3268, Note_on_c, 0, 55, 20
2, 3335, Note_off_c, 0, 67, 64
2, 3542, Note_off_c, 0, 55, 64
2, 3638, Note_on_c, 0, 58, 41
2, 3652, Note_on_c, 0, 67, 55
2, 3729, Note_off_c, 0, 58, 64
2, 3820, Note_off_c, 0, 67, 64
2, 4017, Note_off_c, 0, 51, 64
2, 4046, Note_on_c, 0, 55, 19
2, 4156, Note_off_c, 0, 55, 64
2, 4459, Note_on_c, 0, 63, 39
2, 4463, Note_on_c, 0, 67, 72
2, 4463, Note_on_c, 0, 46, 38
2, 4910, Note_on_c, 0, 51, 36
2, 5337, Note_off_c, 0, 51, 64
2, 5404, Note_on_c, 0, 55, 25
2, 5447, Control_c, 0, 64, 0
2, 5567, Control_c, 0, 64, 127
2, 5807, Note_off_c, 0, 55, 64
2, 5817, Note_off_c, 0, 46, 64
2, 5827, Note_on_c, 0, 51, 23
2, 6047, Note_on_c, 0, 68, 38
2, 6071, Note_off_c, 0, 67, 64
2, 6211, Note_off_c, 0, 51, 64
2, 6273, Note_off_c, 0, 68, 64
2, 6335, Note_off_c, 0, 63, 64
2, 6340, Note_on_c, 0, 46, 39
2, 6345, Note_on_c, 0, 65, 39
2, 6379, Note_on_c, 0, 62, 23
2, 6508, Control_c, 0, 64, 0
2, 6739, Control_c, 0, 64, 127
2, 6772, Note_on_c, 0, 50, 39
2, 7012, Note_off_c, 0, 50, 64
2, 7204, Note_on_c, 0, 53, 25
2, 7550, Note_off_c, 0, 62, 64
2, 7579, Note_off_c, 0, 53, 64
2, 7588, Note_off_c, 0, 65, 64
2, 7679, Note_on_c, 0, 50, 29
2, 7795, Note_off_c, 0, 50, 64
2, 7905, Note_off_c, 0, 46, 64
2, 8227, Note_on_c, 0, 63, 65
2, 8241, Note_on_c, 0, 55, 53
2, 8246, Note_on_c, 0, 51, 47
2, 8351, Control_c, 0, 64, 0
2, 8625, Control_c, 0, 64, 127
2, 8745, Note_on_c, 0, 58, 38
2, 8774, Note_off_c, 0, 55, 64
2, 9215, Note_on_c, 0, 55, 25
2, 9230, Note_off_c, 0, 58, 64
2, 9604, Note_off_c, 0, 55, 64
2, 9647, Note_on_c, 0, 58, 34
2, 10060, Note_on_c, 0, 62, 58
2, 10070, Note_on_c, 0, 46, 66
2, 10070, Note_on_c, 0, 65, 75
2, 10123, Note_off_c, 0, 58, 64
2, 10151, Note_off_c, 0, 63, 64
2, 10156, Note_off_c, 0, 51, 64
2, 10502, Note_on_c, 0, 58, 51
2, 10607, Control_c, 0, 64, 0
2, 10703, Note_off_c, 0, 62, 64
2, 10747, Control_c, 0, 64, 127
2, 10963, Note_on_c, 0, 62, 43
2, 11015, Note_off_c, 0, 58, 64
2, 11423, Note_on_c, 0, 58, 51
2, 11438, Note_off_c, 0, 62, 64
2, 11543, Note_off_c, 0, 65, 64
2, 11764, Note_off_c, 0, 58, 64
2, 11961, Note_on_c, 0, 67, 54
2, 11971, Note_on_c, 0, 63, 40
2, 12009, Note_on_c, 0, 39, 34
2, 12043, Note_off_c, 0, 46, 64
2, 12086, Control_c, 0, 64, 0
2, 12239, Control_c, 0, 64, 127
2, 12254, Note_off_c, 0, 67, 64
2, 12268, Note_on_c, 0, 68, 69
2, 12326, Note_off_c, 0, 63, 64
2, 12393, Note_on_c, 0, 67, 54
2, 12417, Note_off_c, 0, 68, 64
2, 12455, Note_off_c, 0, 67, 64
2, 12499, Note_on_c, 0, 65, 64
2, 12595, Note_off_c, 0, 65, 64
2, 12614, Note_on_c, 0, 67, 76
2, 12763, Control_c, 0, 64, 0
2, 12835, Note_on_c, 0, 68, 72
2, 12883, Note_off_c, 0, 67, 64
2, 12931, Control_c, 0, 64, 127
2, 13036, Control_c, 0, 64, 0
2, 13055, Note_on_c, 0, 70, 80
2, 13084, Note_off_c, 0, 68, 64
2, 13286, Note_on_c, 0, 72, 78
2, 13295, Note_off_c, 0, 70, 64
2, 13507, Note_off_c, 0, 72, 64
2, 13521, Note_on_c, 0, 74, 52
2, 13780, Note_on_c, 0, 75, 44
2, 13790, Note_off_c, 0, 74, 64
2, 14001, Note_off_c, 0, 39, 64
2, 14164, Note_off_c, 0, 75, 64
2, 14174, Control_c, 0, 64, 127
2, 14174, Note_on_c, 0, 70, 41
2, 14356, Control_c, 0, 64, 0
2, 14447, Control_c, 0, 64, 127
2, 14481, Control_c, 0, 64, 0
2, 14711, Control_c, 0, 64, 127
2, 14726, Note_off_c, 0, 70, 64
2, 14899, Control_c, 0, 64, 0
2, 15143, Control_c, 0, 64, 127
2, 15542, Note_on_c, 0, 79, 49
2, 15542, Note_on_c, 0, 75, 16
2, 16027, Note_on_c, 0, 77, 59
2, 16031, Note_off_c, 0, 75, 64
2, 16036, Note_on_c, 0, 74, 42
2, 16094, Note_off_c, 0, 79, 64
2, 16199, Control_c, 0, 64, 0
2, 16324, Control_c, 0, 64, 127
2, 16401, Note_off_c, 0, 74, 64
2, 16435, Note_off_c, 0, 77, 64
2, 16435, Note_on_c, 0, 75, 54
2, 16444, Note_on_c, 0, 72, 48
2, 16555, Control_c, 0, 64, 0
2, 16646, Control_c, 0, 64, 127
2, 16713, Note_off_c, 0, 75, 64
2, 16886, Note_on_c, 0, 70, 55
2, 16895, Note_on_c, 0, 74, 64
2, 16905, Note_off_c, 0, 72, 64
2, 17332, Note_on_c, 0, 68, 48
2, 17337, Note_on_c, 0, 72, 63
2, 17347, Note_on_c, 0, 50, 40
2, 17361, Note_off_c, 0, 70, 64
2, 17409, Note_off_c, 0, 74, 64
2, 17476, Control_c, 0, 64, 0
2, 17615, Control_c, 0, 64, 127
2, 17735, Note_on_c, 0, 51, 55
2, 17740, Note_off_c, 0, 68, 64
2, 17755, Note_off_c, 0, 50, 64
2, 17755, Note_on_c, 0, 67, 57
2, 17759, Note_off_c, 0, 72, 64
2, 17759, Note_on_c, 0, 70, 78
2, 17899, Note_off_c, 0, 70, 64
2, 18110, Note_off_c, 0, 67, 64
2, 18119, Note_on_c, 0, 68, 66
2, 18139, Note_on_c, 0, 65, 50
2, 18163, Note_on_c, 0, 53, 52
2, 18297, Note_off_c, 0, 51, 64
2, 18307, Control_c, 0, 64, 0
2, 18446, Control_c, 0, 64, 127
2, 18532, Note_off_c, 0, 68, 64
2, 18532, Note_on_c, 0, 67, 80
2, 18547, Note_on_c, 0, 63, 48
2, 18556, Note_off_c, 0, 65, 64
2, 18561, Note_on_c, 0, 55, 49
2, 18662, Note_off_c, 0, 53, 64
2, 18719, Control_c, 0, 64, 0
2, 18830, Control_c, 0, 64, 127
2, 18835, Note_off_c, 0, 63, 64
2, 18998, Note_on_c, 0, 72, 83
2, 19007, Note_off_c, 0, 55, 64
2, 19012, Note_on_c, 0, 56, 41
2, 19027, Note_on_c, 0, 60, 46
2, 19075, Note_off_c, 0, 67, 64
2, 19137, Control_c, 0, 64, 0
2, 19305, Control_c, 0, 64, 127
2, 19439, Note_on_c, 0, 68, 73
2, 19459, Note_off_c, 0, 60, 64
2, 19463, Note_on_c, 0, 53, 42
2, 19473, Note_on_c, 0, 65, 40
2, 19502, Note_off_c, 0, 72, 64
2, 19555, Note_off_c, 0, 56, 64
2, 19675, Control_c, 0, 64, 0
2, 19766, Control_c, 0, 64, 127
2, 19876, Note_on_c, 0, 67, 69
2, 19900, Note_on_c, 0, 63, 38
2, 19905, Note_off_c, 0, 53, 64
2, 19915, Note_off_c, 0, 65, 64
2, 19919, Note_on_c, 0, 57, 56
2, 19934, Note_off_c, 0, 68, 64
2, 20059, Control_c, 0, 64, 0
2, 20241, Control_c, 0, 64, 127
2, 20356, Note_on_c, 0, 58, 48
2, 20361, Note_off_c, 0, 57, 64
2, 20505, Control_c, 0, 64, 0
2, 20673, Control_c, 0, 64, 127
2, 20769, Note_off_c, 0, 58, 64
2, 20783, Note_on_c, 0, 55, 36
2, 20889, Control_c, 0, 64, 0
2, 21014, Control_c, 0, 64, 127
2, 21235, Note_off_c, 0, 55, 64
2, 21259, Control_c, 0, 64, 0
2, 21263, Note_on_c, 0, 51, 28
2, 21455, Control_c, 0, 64, 127
2, 21652, Note_off_c, 0, 63, 64
2, 21700, Note_off_c, 0, 51, 64
2, 21825, Note_on_c, 0, 65, 41
2, 21825, Note_on_c, 0, 62, 16
2, 21854, Note_on_c, 0, 46, 36
2, 21873, Control_c, 0, 64, 0
2, 21892, Note_off_c, 0, 67, 64
2, 22223, Control_c, 0, 64, 127
2, 22425, Note_off_c, 0, 65, 64
2, 22425, Note_off_c, 0, 62, 64
2, 22425, Note_on_c, 0, 67, 40
2, 22531, Control_c, 0, 64, 0
2, 22684, Control_c, 0, 64, 127
2, 22689, Note_off_c, 0, 67, 64
2, 22857, Note_on_c, 0, 68, 41
2, 22871, Control_c, 0, 64, 0
2, 22915, Note_off_c, 0, 46, 64
2, 23083, Control_c, 0, 64, 127
2, 23126, Note_off_c, 0, 68, 64
2, 23347, Note_on_c, 0, 69, 25
2, 23467, Control_c, 0, 64, 0
2, 23625, Control_c, 0, 64, 127
2, 23726, Note_off_c, 0, 69, 64
2, 23999, Note_on_c, 0, 70, 39
2, 24038, Note_on_c, 0, 51, 20
2, 24484, Control_c, 0, 64, 0
2, 24505, Note_off_c, 0, 51, 64
2, 24508, Note_on_c, 0, 55, 29
2, 24652, Control_c, 0, 64, 127
2, 24878, Note_off_c, 0, 55, 64
2, 24988, Note_on_c, 0, 58, 17
2, 25147, Note_on_c, 0, 74, 42
2, 25214, Note_off_c, 0, 70, 64
2, 25372, Note_off_c, 0, 74, 64
2, 25382, Note_off_c, 0, 58, 64
2, 25382, Note_on_c, 0, 55, 35
2, 25396, Note_on_c, 0, 75, 29
2, 25502, Note_off_c, 0, 55, 64
2, 25579, Note_on_c, 0, 70, 55
2, 25583, Note_off_c, 0, 75, 64
2, 25684, Note_off_c, 0, 70, 64
2, 25799, Note_on_c, 0, 67, 48
2, 25814, Note_on_c, 0, 51, 30
2, 25943, Control_c, 0, 64, 0
2, 26068, Note_off_c, 0, 67, 64
2, 26083, Control_c, 0, 64, 127
2, 26255, Note_on_c, 0, 67, 52
2, 26275, Note_on_c, 0, 55, 34
2, 26284, Note_off_c, 0, 51, 64
2, 26438, Note_off_c, 0, 67, 64
2, 26606, Note_off_c, 0, 55, 64
2, 26683, Note_on_c, 0, 67, 59
2, 26711, Note_on_c, 0, 58, 35
2, 26831, Note_off_c, 0, 67, 64
2, 26836, Note_off_c, 0, 58, 64
2, 27153, Note_on_c, 0, 67, 63
2, 27220, Note_on_c, 0, 55, 21
2, 27307, Note_off_c, 0, 55, 64
2, 27326, Note_off_c, 0, 67, 64
2, 27724, Note_on_c, 0, 67, 60
2, 27729, Note_on_c, 0, 63, 38
2, 27791, Note_on_c, 0, 46, 34
2, 28262, Note_on_c, 0, 51, 31
2, 28747, Note_off_c, 0, 51, 64
2, 28751, Note_on_c, 0, 55, 20
2, 28823, Note_off_c, 0, 67, 64
2, 28891, Note_on_c, 0, 68, 46
2, 28958, Note_off_c, 0, 68, 64
2, 29020, Note_on_c, 0, 67, 32
2, 29097, Note_off_c, 0, 67, 64
2, 29124, Note_on_c, 0, 65, 26
2, 29215, Note_off_c, 0, 65, 64
2, 29222, Note_on_c, 0, 67, 45
2, 29251, Note_on_c, 0, 51, 33
2, 29279, Control_c, 0, 64, 0
2, 29342, Note_off_c, 0, 55, 64
2, 29399, Control_c, 0, 64, 127
2, 29447, Note_off_c, 0, 46, 64
2, 29457, Note_off_c, 0, 67, 64
2, 29476, Note_on_c, 0, 68, 49
2, 29611, Note_off_c, 0, 63, 64
2, 29697, Note_off_c, 0, 51, 64
2, 29774, Note_on_c, 0, 65, 44
2, 29774, Note_on_c, 0, 46, 41
2, 29788, Note_on_c, 0, 62, 27
2, 29807, Note_off_c, 0, 68, 64
2, 29846, Control_c, 0, 64, 0
2, 30201, Control_c, 0, 64, 127
2, 30225, Note_on_c, 0, 50, 39
2, 30403, Note_off_c, 0, 62, 64
2, 30479, Note_off_c, 0, 65, 64
2, 30643, Note_off_c, 0, 50, 64
2, 30671, Note_on_c, 0, 53, 42
2, 30873, Note_on_c, 0, 70, 61
2, 31084, Note_off_c, 0, 53, 64
2, 31099, Note_on_c, 0, 68, 66
2, 31118, Note_off_c, 0, 70, 64
2, 31156, Note_on_c, 0, 50, 36
2, 31295, Note_off_c, 0, 68, 64
2, 31315, Note_on_c, 0, 65, 73
2, 31367, Note_off_c, 0, 65, 64
2, 31444, Note_off_c, 0, 50, 64
2, 31559, Note_on_c, 0, 63, 83
2, 31574, Note_on_c, 0, 51, 50
2, 31819, Note_off_c, 0, 46, 64
2, 31891, Control_c, 0, 64, 0
2, 32006, Note_on_c, 0, 58, 52
2, 32241, Control_c, 0, 64, 127
2, 32404, Note_off_c, 0, 58, 64
2, 32457, Note_on_c, 0, 55, 55
2, 32927, Note_on_c, 0, 58, 48
2, 32990, Note_off_c, 0, 55, 64
2, 33311, Note_off_c, 0, 58, 64
2, 33331, Note_on_c, 0, 46, 82
2, 33331, Note_on_c, 0, 65, 71
2, 33345, Note_on_c, 0, 62, 58
2, 33398, Note_off_c, 0, 63, 64
2, 33475, Note_off_c, 0, 51, 64
2, 33753, Note_on_c, 0, 58, 54
2, 33777, Control_c, 0, 64, 0
2, 33811, Note_off_c, 0, 62, 64
2, 33950, Control_c, 0, 64, 127
2, 34190, Note_on_c, 0, 62, 45
2, 34247, Note_off_c, 0, 58, 64
2, 34655, Note_on_c, 0, 58, 48
2, 34689, Note_off_c, 0, 62, 64
2, 34751, Note_off_c, 0, 65, 64
2, 34876, Note_off_c, 0, 58, 64
2, 35097, Note_on_c, 0, 63, 44
2, 35097, Note_on_c, 0, 67, 62
2, 35135, Note_on_c, 0, 39, 41
2, 35179, Control_c, 0, 64, 0
2, 35203, Note_off_c, 0, 46, 64
2, 35332, Control_c, 0, 64, 127
2, 35356, Note_off_c, 0, 67, 64
2, 35409, Note_on_c, 0, 68, 65
2, 35433, Note_off_c, 0, 63, 64
2, 35496, Note_on_c, 0, 67, 57
2, 35510, Note_off_c, 0, 68, 64
2, 35548, Note_off_c, 0, 67, 64
2, 35567, Note_on_c, 0, 65, 81
2, 35645, Note_off_c, 0, 65, 64
2, 35663, Note_on_c, 0, 67, 62
2, 35865, Note_on_c, 0, 68, 80
2, 35899, Note_off_c, 0, 67, 64
2, 35947, Control_c, 0, 64, 0
2, 36067, Note_on_c, 0, 70, 84
2, 36095, Note_off_c, 0, 68, 64
2, 36292, Note_on_c, 0, 72, 73
2, 36302, Note_off_c, 0, 70, 64
2, 36499, Note_off_c, 0, 72, 64
2, 36513, Note_on_c, 0, 74, 61
2, 36758, Note_off_c, 0, 74, 64
2, 36758, Note_on_c, 0, 75, 46
2, 37113, Note_off_c, 0, 75, 64
2, 37118, Note_on_c, 0, 70, 38
2, 37161, Note_off_c, 0, 39, 64
2, 37588, Control_c, 0, 64, 127
2, 37593, Note_off_c, 0, 70, 64
2, 37895, Control_c, 0, 64, 0
2, 38222, Note_on_c, 0, 75, 38
2, 38361, Note_off_c, 0, 75, 64
2, 38471, Note_on_c, 0, 74, 58
2, 38524, Note_off_c, 0, 74, 64
2, 38663, Note_on_c, 0, 73, 64
2, 38750, Note_off_c, 0, 73, 64
2, 38884, Note_on_c, 0, 72, 65
2, 38956, Note_off_c, 0, 72, 64
2, 39143, Note_on_c, 0, 71, 40
2, 39451, Control_c, 0, 64, 127
2, 39499, Note_off_c, 0, 71, 64
2, 39652, Note_on_c, 0, 63, 19
2, 39664, Note_on_c, 0, 55, 21
2, 39710, Control_c, 0, 64, 0
2, 39988, Control_c, 0, 64, 127
2, 40096, Note_off_c, 0, 55, 64
2, 40137, Note_off_c, 0, 63, 64
2, 40185, Note_on_c, 0, 75, 52
2, 40305, Note_off_c, 0, 75, 64
2, 40339, Control_c, 0, 64, 0
2, 40415, Note_on_c, 0, 74, 85
2, 40483, Note_off_c, 0, 74, 64
2, 40603, Note_on_c, 0, 73, 75
2, 40727, Note_off_c, 0, 73, 64
2, 40804, Note_on_c, 0, 72, 89
2, 40924, Note_off_c, 0, 72, 64
2, 41063, Note_on_c, 0, 71, 60
2, 41337, Control_c, 0, 64, 127
2, 41385, Note_off_c, 0, 71, 64
2, 41548, Note_on_c, 0, 63, 36
2, 41563, Note_on_c, 0, 55, 40
2, 41601, Control_c, 0, 64, 0
2, 41831, Control_c, 0, 64, 127
2, 41889, Note_off_c, 0, 55, 64
2, 41894, Note_off_c, 0, 63, 64
2, 42038, Note_on_c, 0, 75, 47
2, 42062, Control_c, 0, 64, 0
2, 42211, Note_off_c, 0, 75, 64
2, 42273, Note_on_c, 0, 74, 67
2, 42331, Note_off_c, 0, 74, 64
2, 42465, Note_on_c, 0, 73, 76
2, 42590, Note_off_c, 0, 73, 64
2, 42676, Note_on_c, 0, 72, 94
2, 42839, Note_off_c, 0, 72, 64
2, 42998, Control_c, 0, 64, 127
2, 43007, Note_on_c, 0, 71, 69
2, 43017, Note_on_c, 0, 63, 41
2, 43051, Note_on_c, 0, 55, 30
2, 44212, Control_c, 0, 64, 0
2, 44337, Control_c, 0, 64, 127
2, 44495, Note_off_c, 0, 55, 64
2, 44774, Note_on_c, 0, 72, 44
2, 44788, Note_on_c, 0, 56, 19
2, 44894, Note_off_c, 0, 71, 64
2, 44966, Control_c, 0, 64, 0
2, 45287, Control_c, 0, 64, 127
2, 45331, Note_off_c, 0, 63, 64
2, 45350, Note_off_c, 0, 72, 64
2, 45407, Note_off_c, 0, 56, 64
2, 45671, Control_c, 0, 64, 0
2, 45988, Note_on_c, 0, 65, 34
2, 46070, Control_c, 0, 64, 127
2, 46084, Note_off_c, 0, 65, 64
2, 46243, Control_c, 0, 64, 0
2, 46243, Note_on_c, 0, 67, 61
2, 46305, Note_off_c, 0, 67, 64
2, 46435, Note_on_c, 0, 68, 80
2, 46555, Note_off_c, 0, 68, 64
2, 46655, Note_on_c, 0, 69, 85
2, 46785, Note_off_c, 0, 69, 64
2, 46934, Note_on_c, 0, 70, 71
2, 47025, Control_c, 0, 64, 127
2, 47846, Note_on_c, 0, 51, 36
2, 47855, Note_on_c, 0, 43, 47
2, 48091, Note_on_c, 0, 72, 73
2, 48167, Note_off_c, 0, 70, 64
2, 48311, Note_on_c, 0, 74, 81
2, 48326, Note_off_c, 0, 72, 64
2, 48451, Note_off_c, 0, 74, 64
2, 48523, Note_on_c, 0, 75, 79
2, 48571, Note_off_c, 0, 75, 64
2, 48801, Note_on_c, 0, 63, 76
2, 48825, Note_on_c, 0, 46, 57
2, 48839, Note_on_c, 0, 58, 50
2, 48839, Note_on_c, 0, 55, 39
2, 48844, Note_off_c, 0, 51, 64
2, 48974, Control_c, 0, 64, 0
2, 49022, Note_off_c, 0, 43, 64
2, 49531, Control_c, 0, 64, 127
2, 49795, Note_on_c, 0, 56, 53
2, 49862, Note_off_c, 0, 55, 64
2, 50145, Note_off_c, 0, 58, 64
2, 50251, Note_on_c, 0, 62, 38
2, 50251, Note_on_c, 0, 67, 55
2, 50356, Control_c, 0, 64, 0
2, 50385, Note_off_c, 0, 63, 64
2, 50524, Note_on_c, 0, 65, 61
2, 50572, Control_c, 0, 64, 127
2, 50577, Note_off_c, 0, 67, 64
2, 50687, Note_off_c, 0, 56, 64
2, 50836, Note_on_c, 0, 63, 46
2, 50850, Note_on_c, 0, 55, 31
2, 50854, Note_on_c, 0, 51, 29
2, 50855, Note_off_c, 0, 65, 64
2, 50894, Note_off_c, 0, 62, 64
2, 50971, Control_c, 0, 64, 0
2, 50995, Note_off_c, 0, 46, 64
2, 51214, Note_off_c, 0, 55, 64
2, 51248, Note_off_c, 0, 51, 64
2, 51273, Note_off_c, 0, 63, 64
2, 51801, Control_c, 0, 64, 127
2, 51998, Note_on_c, 0, 63, 25
2, 52008, Note_on_c, 0, 51, 24
2, 52022, Note_on_c, 0, 55, 16
2, 52238, Note_off_c, 0, 55, 64
2, 52253, Note_off_c, 0, 51, 64
2, 52286, Note_off_c, 0, 63, 64
2, 52449, Control_c, 0, 64, 0
2, 53951, Control_c, 0, 64, 127
2, 54508, Note_on_c, 0, 77, 57
2, 54531, Note_on_c, 0, 74, 29
2, 54536, Note_on_c, 0, 58, 30
2, 55060, Note_on_c, 0, 65, 29
2, 55175, Note_off_c, 0, 74, 64
2, 55454, Note_off_c, 0, 65, 64
2, 55521, Note_on_c, 0, 74, 18
2, 55665, Note_off_c, 0, 74, 64
2, 55953, Note_on_c, 0, 65, 30
2, 56385, Note_off_c, 0, 65, 64
2, 56404, Note_on_c, 0, 70, 40
2, 56409, Note_on_c, 0, 74, 68
2, 56553, Note_off_c, 0, 77, 64
2, 56860, Note_off_c, 0, 70, 64
2, 56894, Note_on_c, 0, 65, 28
2, 57239, Note_off_c, 0, 65, 64
2, 57287, Note_on_c, 0, 70, 41
2, 57614, Note_off_c, 0, 70, 64
2, 57733, Note_off_c, 0, 58, 64
2, 57743, Note_on_c, 0, 65, 31
2, 57782, Note_off_c, 0, 74, 64
2, 58243, Note_on_c, 0, 77, 77
2, 58252, Note_on_c, 0, 74, 57
2, 58267, Note_off_c, 0, 65, 64
2, 58281, Note_on_c, 0, 53, 29
2, 58295, Note_on_c, 0, 41, 25
2, 58780, Control_c, 0, 64, 0
2, 59068, Control_c, 0, 64, 127
2, 59519, Note_off_c, 0, 74, 64
2, 59639, Note_off_c, 0, 77, 64
2, 59668, Note_on_c, 0, 73, 36
2, 59678, Note_on_c, 0, 76, 40
2, 59745, Note_off_c, 0, 73, 64
2, 59884, Note_off_c, 0, 76, 64
2, 59908, Note_on_c, 0, 75, 54
2, 59927, Note_on_c, 0, 72, 55
2, 59961, Note_off_c, 0, 75, 64
2, 60124, Note_off_c, 0, 72, 64
2, 60139, Note_on_c, 0, 74, 50
2, 60143, Note_on_c, 0, 70, 45
2, 60403, Note_off_c, 0, 74, 64
2, 60422, Control_c, 0, 64, 0
2, 60441, Note_off_c, 0, 70, 64
2, 60470, Note_on_c, 0, 72, 46
2, 60484, Note_on_c, 0, 69, 18
2, 60883, Control_c, 0, 64, 127
2, 60897, Note_off_c, 0, 69, 64
2, 60931, Note_off_c, 0, 53, 64
2, 60935, Note_off_c, 0, 72, 64
2, 60998, Note_off_c, 0, 41, 64
2, 61127, Control_c, 0, 64, 0
2, 61377, Note_on_c, 0, 78, 65
2, 61411, Note_on_c, 0, 74, 46
2, 61420, Control_c, 0, 64, 127
2, 61478, Note_off_c, 0, 74, 64
2, 61607, Note_off_c, 0, 78, 64
2, 61612, Note_on_c, 0, 75, 63
2, 61612, Note_on_c, 0, 79, 78
2, 61814, Note_off_c, 0, 79, 64
2, 61814, Note_on_c, 0, 78, 78
2, 61823, Note_off_c, 0, 75, 64
2, 61833, Note_on_c, 0, 74, 72
2, 61881, Control_c, 0, 64, 0
2, 61895, Note_off_c, 0, 74, 64
2, 62011, Note_off_c, 0, 78, 64
2, 62020, Control_c, 0, 64, 127
2, 62020, Note_on_c, 0, 75, 62
2, 62044, Note_on_c, 0, 79, 76
2, 62097, Note_off_c, 0, 75, 64
2, 62198, Note_off_c, 0, 79, 64
2, 62251, Note_on_c, 0, 66, 56
2, 62279, Note_on_c, 0, 69, 49
2, 62279, Note_on_c, 0, 72, 51
2, 62299, Control_c, 0, 64, 0
2, 62471, Note_off_c, 0, 66, 64
2, 62471, Note_on_c, 0, 65, 71
2, 62495, Control_c, 0, 64, 127
2, 62515, Note_off_c, 0, 69, 64
2, 62529, Note_off_c, 0, 72, 64
2, 62654, Note_off_c, 0, 65, 64
2, 62659, Note_on_c, 0, 66, 65
2, 62740, Control_c, 0, 64, 0
2, 62870, Note_off_c, 0, 66, 64
2, 62870, Note_on_c, 0, 65, 71
2, 63052, Note_off_c, 0, 65, 64
2, 63071, Note_on_c, 0, 78, 82
2, 63091, Note_on_c, 0, 74, 69
2, 63278, Note_off_c, 0, 74, 64
2, 63278, Note_on_c, 0, 79, 74
2, 63287, Note_on_c, 0, 75, 65
2, 63302, Note_off_c, 0, 78, 64
2, 63311, Control_c, 0, 64, 127
2, 63470, Note_off_c, 0, 75, 64
2, 63484, Note_off_c, 0, 79, 64
2, 63489, Note_on_c, 0, 78, 62
2, 63494, Note_on_c, 0, 74, 56
2, 63527, Control_c, 0, 64, 0
2, 63609, Note_off_c, 0, 74, 64
2, 63681, Control_c, 0, 64, 127
2, 63686, Note_off_c, 0, 78, 64
2, 63691, Note_on_c, 0, 75, 49
2, 63710, Note_on_c, 0, 79, 44
2, 63748, Note_off_c, 0, 75, 64
2, 63931, Note_off_c, 0, 79, 64
2, 63940, Note_on_c, 0, 66, 36
2, 63955, Note_on_c, 0, 69, 33
2, 63959, Control_c, 0, 64, 0
2, 63979, Note_on_c, 0, 72, 28
2, 64175, Note_off_c, 0, 66, 64
2, 64190, Note_on_c, 0, 65, 36
2, 64219, Control_c, 0, 64, 127
2, 64324, Control_c, 0, 64, 0
2, 64343, Note_off_c, 0, 69, 64
2, 64353, Note_off_c, 0, 72, 64
2, 64363, Note_off_c, 0, 65, 64
2, 64415, Note_on_c, 0, 66, 32
2, 64526, Control_c, 0, 64, 127
2, 64627, Note_off_c, 0, 66, 64
2, 64641, Note_on_c, 0, 65, 40
2, 64785, Control_c, 0, 64, 0
2, 64857, Note_on_c, 0, 71, 57
2, 64900, Note_off_c, 0, 65, 64
2, 65001, Control_c, 0, 64, 127
2, 65049, Control_c, 0, 64, 0
2, 65073, Note_on_c, 0, 72, 78
2, 65121, Note_off_c, 0, 71, 64
2, 65217, Control_c, 0, 64, 127
2, 65279, Note_on_c, 0, 74, 90
2, 65308, Control_c, 0, 64, 0
2, 65342, Note_off_c, 0, 72, 64
2, 65447, Control_c, 0, 64, 127
2, 65495, Note_on_c, 0, 75, 85
2, 65563, Note_off_c, 0, 74, 64
2, 65788, Note_on_c, 0, 77, 85
2, 65793, Note_on_c, 0, 58, 72
2, 65961, Note_off_c, 0, 75, 64
2, 65971, Control_c, 0, 64, 0
2, 66259, Control_c, 0, 64, 127
2, 66326, Note_on_c, 0, 60, 59
2, 66508, Control_c, 0, 64, 0
2, 66643, Control_c, 0, 64, 127
2, 66801, Note_on_c, 0, 63, 44
2, 66854, Note_off_c, 0, 77, 64
2, 66854, Note_off_c, 0, 60, 64
2, 66883, Note_on_c, 0, 79, 59
2, 66979, Note_on_c, 0, 77, 67
2, 66993, Note_off_c, 0, 79, 64
2, 67103, Note_off_c, 0, 77, 64
2, 67103, Note_on_c, 0, 76, 84
2, 67209, Note_on_c, 0, 77, 64
2, 67252, Note_off_c, 0, 76, 64
2, 67396, Control_c, 0, 64, 0
2, 67406, Note_off_c, 0, 77, 64
2, 67411, Note_on_c, 0, 79, 65
2, 67415, Note_off_c, 0, 63, 64
2, 67420, Note_on_c, 0, 69, 31
2, 67583, Control_c, 0, 64, 127
2, 67670, Note_on_c, 0, 75, 54
2, 67703, Note_off_c, 0, 69, 64
2, 67708, Note_off_c, 0, 79, 64
2, 67727, Note_off_c, 0, 58, 64
2, 68063, Note_on_c, 0, 70, 34
2, 68063, Note_on_c, 0, 74, 36
2, 68107, Note_on_c, 0, 58, 24
2, 68121, Control_c, 0, 64, 0
2, 68179, Note_off_c, 0, 75, 64
2, 68625, Control_c, 0, 64, 127
2, 68635, Note_off_c, 0, 70, 64
2, 68639, Note_off_c, 0, 74, 64
2, 68745, Note_off_c, 0, 58, 64
2, 68932, Control_c, 0, 64, 0
2, 69196, Note_on_c, 0, 77, 52
2, 69211, Control_c, 0, 64, 127
2, 69321, Control_c, 0, 64, 0
2, 69455, Control_c, 0, 64, 127
2, 69604, Note_off_c, 0, 77, 64
2, 69614, Note_on_c, 0, 74, 66
2, 69739, Note_on_c, 0, 77, 84
2, 69767, Note_off_c, 0, 74, 64
2, 69887, Control_c, 0, 64, 0
2, 70027, Control_c, 0, 64, 127
2, 70099, Note_on_c, 0, 74, 75
2, 70113, Note_off_c, 0, 77, 64
2, 70295, Note_on_c, 0, 50, 37
2, 70300, Control_c, 0, 64, 0
2, 70339, Note_on_c, 0, 82, 80
2, 70372, Note_off_c, 0, 74, 64
2, 70790, Note_on_c, 0, 53, 39
2, 70871, Control_c, 0, 64, 127
2, 70972, Note_off_c, 0, 82, 64
2, 71006, Note_off_c, 0, 53, 64
2, 71073, Note_off_c, 0, 50, 64
2, 71241, Note_on_c, 0, 58, 46
2, 71303, Note_on_c, 0, 82, 96
2, 71553, Note_off_c, 0, 58, 64
2, 71745, Note_on_c, 0, 53, 27
2, 71985, Note_off_c, 0, 53, 64
2, 72191, Note_on_c, 0, 50, 36
2, 72345, Control_c, 0, 64, 0
2, 72513, Control_c, 0, 64, 127
2, 72657, Note_on_c, 0, 53, 30
2, 72993, Note_off_c, 0, 53, 64
2, 73118, Note_on_c, 0, 58, 33
2, 73372, Note_on_c, 0, 84, 66
2, 73468, Note_off_c, 0, 82, 64
2, 73665, Note_on_c, 0, 86, 69
2, 73679, Control_c, 0, 64, 0
2, 73694, Note_off_c, 0, 84, 64
2, 73718, Note_on_c, 0, 53, 34
2, 73727, Note_off_c, 0, 58, 64
2, 73761, Control_c, 0, 64, 127
2, 73886, Note_off_c, 0, 50, 64
2, 73900, Note_on_c, 0, 82, 88
2, 74097, Note_off_c, 0, 53, 64
2, 74159, Note_off_c, 0, 86, 64
2, 74164, Note_on_c, 0, 81, 84
2, 74169, Note_on_c, 0, 51, 41
2, 74284, Note_off_c, 0, 82, 64
2, 74294, Control_c, 0, 64, 0
2, 74529, Control_c, 0, 64, 127
2, 74635, Note_on_c, 0, 79, 70
2, 74707, Note_off_c, 0, 81, 64
2, 74707, Note_on_c, 0, 55, 23
2, 75057, Note_off_c, 0, 79, 64
2, 75134, Note_on_c, 0, 79, 74
2, 75143, Note_on_c, 0, 58, 31
2, 75278, Note_off_c, 0, 55, 64
2, 75297, Control_c, 0, 64, 0
2, 75417, Control_c, 0, 64, 127
2, 75580, Note_off_c, 0, 58, 64
2, 75595, Note_off_c, 0, 51, 64
2, 75676, Note_on_c, 0, 55, 18
2, 76007, Note_off_c, 0, 55, 64
2, 76065, Note_on_c, 0, 51, 23
2, 76540, Note_off_c, 0, 51, 64
2, 76545, Note_on_c, 0, 55, 33
2, 76972, Note_on_c, 0, 58, 45
2, 76991, Note_off_c, 0, 55, 64
2, 77174, Note_on_c, 0, 81, 74
2, 77246, Note_off_c, 0, 79, 64
2, 77404, Note_off_c, 0, 58, 64
2, 77433, Note_on_c, 0, 82, 79
2, 77467, Note_off_c, 0, 81, 64
2, 77481, Note_on_c, 0, 55, 31
2, 77659, Note_on_c, 0, 79, 83
2, 77726, Note_off_c, 0, 82, 64
2, 77841, Note_off_c, 0, 55, 64
2, 77923, Note_on_c, 0, 77, 79
2, 77932, Note_on_c, 0, 53, 26
2, 77951, Note_off_c, 0, 79, 64
2, 78153, Control_c, 0, 64, 0
2, 78335, Control_c, 0, 64, 127
2, 78470, Note_on_c, 0, 75, 60
2, 78494, Note_on_c, 0, 57, 31
2, 78614, Note_off_c, 0, 77, 64
2, 78662, Control_c, 0, 64, 0
2, 78767, Control_c, 0, 64, 127
2, 78859, Note_off_c, 0, 75, 64
2, 78897, Note_off_c, 0, 53, 64
2, 78902, Note_off_c, 0, 57, 64
2, 78950, Note_on_c, 0, 60, 26
2, 78964, Note_on_c, 0, 75, 48
2, 79262, Note_off_c, 0, 60, 64
2, 79420, Note_on_c, 0, 57, 31
2, 79761, Note_off_c, 0, 57, 64
2, 79886, Note_on_c, 0, 53, 23
2, 80030, Note_off_c, 0, 75, 64
2, 80323, Note_on_c, 0, 75, 60
2, 80332, Note_on_c, 0, 57, 30
2, 80591, Note_off_c, 0, 75, 64
2, 80611, Note_off_c, 0, 57, 64
2, 80755, Note_on_c, 0, 75, 59
2, 80798, Note_on_c, 0, 60, 38
2, 80999, Note_off_c, 0, 75, 64
2, 81143, Note_off_c, 0, 60, 64
2, 81235, Note_on_c, 0, 75, 54
2, 81278, Note_on_c, 0, 57, 24
2, 81283, Note_off_c, 0, 53, 64
2, 81451, Note_off_c, 0, 75, 64
2, 81479, Note_off_c, 0, 57, 64
2, 81772, Note_on_c, 0, 73, 42
2, 81772, Note_on_c, 0, 55, 27
2, 81935, Control_c, 0, 64, 0
2, 82180, Control_c, 0, 64, 127
2, 82223, Note_on_c, 0, 58, 28
2, 82727, Note_off_c, 0, 58, 64
2, 82761, Note_on_c, 0, 74, 42
2, 82799, Note_on_c, 0, 62, 16
2, 82823, Control_c, 0, 64, 0
2, 82881, Note_off_c, 0, 73, 64
2, 83025, Control_c, 0, 64, 127
2, 83131, Note_off_c, 0, 74, 64
2, 83155, Note_off_c, 0, 55, 64
2, 83159, Note_off_c, 0, 62, 64
2, 83207, Note_on_c, 0, 58, 40
2, 83299, Note_off_c, 0, 58, 64
2, 83611, Note_on_c, 0, 55, 37
2, 83817, Note_on_c, 0, 70, 76
2, 83903, Note_off_c, 0, 70, 64
2, 84019, Note_on_c, 0, 72, 84
2, 84047, Note_on_c, 0, 58, 45
2, 84129, Note_off_c, 0, 72, 64
2, 84206, Note_on_c, 0, 74, 95
2, 84321, Note_off_c, 0, 74, 64
2, 84403, Note_on_c, 0, 75, 88
2, 84427, Note_off_c, 0, 58, 64
2, 84441, Note_on_c, 0, 62, 34
2, 84523, Note_off_c, 0, 75, 64
2, 84604, Note_on_c, 0, 77, 99
2, 84710, Note_off_c, 0, 77, 64
2, 84739, Note_off_c, 0, 62, 64
2, 84806, Note_on_c, 0, 79, 103
2, 84835, Note_on_c, 0, 58, 49
2, 84854, Note_off_c, 0, 55, 64
2, 84921, Note_off_c, 0, 79, 64
2, 84993, Note_off_c, 0, 58, 64
2, 85017, Note_on_c, 0, 81, 104
2, 85127, Note_off_c, 0, 81, 64
2, 85252, Note_on_c, 0, 82, 108
2, 85286, Note_on_c, 0, 50, 61
2, 85377, Control_c, 0, 64, 0
2, 85531, Control_c, 0, 64, 127
2, 85583, Note_on_c, 0, 77, 98
2, 85607, Note_off_c, 0, 82, 64
2, 85727, Note_on_c, 0, 86, 108
2, 85761, Note_on_c, 0, 53, 58
2, 85780, Note_off_c, 0, 77, 64
2, 85867, Control_c, 0, 64, 0
2, 85991, Control_c, 0, 64, 127
2, 86044, Note_on_c, 0, 82, 110
2, 86155, Note_off_c, 0, 86, 64
2, 86193, Note_on_c, 0, 58, 69
2, 86265, Note_on_c, 0, 89, 100
2, 86327, Note_off_c, 0, 82, 64
2, 86356, Control_c, 0, 64, 0
2, 86375, Note_off_c, 0, 53, 64
2, 86529, Control_c, 0, 64, 127
2, 86683, Note_off_c, 0, 50, 64
2, 86702, Note_off_c, 0, 58, 64
2, 86707, Note_on_c, 0, 53, 52
2, 87124, Note_on_c, 0, 50, 63
2, 87148, Note_off_c, 0, 53, 64
2, 87220, Control_c, 0, 64, 0
2, 87321, Note_on_c, 0, 86, 85
2, 87417, Control_c, 0, 64, 127
2, 87547, Note_on_c, 0, 83, 86
2, 87551, Note_off_c, 0, 89, 64
2, 87561, Note_on_c, 0, 53, 57
2, 87628, Note_off_c, 0, 86, 64
2, 87739, Note_on_c, 0, 80, 90
2, 87815, Note_off_c, 0, 83, 64
2, 87940, Note_off_c, 0, 50, 64
2, 87955, Note_on_c, 0, 77, 98
2, 87974, Note_off_c, 0, 80, 64
2, 87998, Note_on_c, 0, 56, 50
2, 88007, Note_off_c, 0, 53, 64
2, 88079, Note_on_c, 0, 50, 16
2, 88171, Note_on_c, 0, 74, 78
2, 88195, Note_off_c, 0, 77, 64
2, 88343, Note_on_c, 0, 71, 78
2, 88396, Note_off_c, 0, 74, 64
2, 88411, Note_on_c, 0, 53, 45
2, 88415, Note_off_c, 0, 50, 64
2, 88531, Note_on_c, 0, 68, 86
2, 88598, Note_off_c, 0, 71, 64
2, 88723, Note_off_c, 0, 53, 64
2, 88756, Note_off_c, 0, 56, 64
2, 88804, Note_on_c, 0, 67, 86
2, 88828, Note_off_c, 0, 68, 64
2, 88828, Note_on_c, 0, 51, 44
2, 88910, Control_c, 0, 64, 0
2, 89217, Control_c, 0, 64, 127
2, 89265, Note_on_c, 0, 78, 88
2, 89308, Note_off_c, 0, 67, 64
2, 89308, Note_on_c, 0, 55, 48
2, 89491, Control_c, 0, 64, 0
2, 89630, Control_c, 0, 64, 127
2, 89822, Note_on_c, 0, 60, 47
2, 89875, Note_off_c, 0, 78, 64
2, 89875, Note_off_c, 0, 55, 64
2, 89879, Note_on_c, 0, 79, 81
2, 89975, Note_on_c, 0, 78, 68
2, 90004, Note_off_c, 0, 79, 64
2, 90076, Note_on_c, 0, 76, 86
2, 90086, Note_off_c, 0, 78, 64
2, 90167, Note_on_c, 0, 78, 81
2, 90230, Note_off_c, 0, 76, 64
2, 90287, Note_on_c, 0, 79, 94
2, 90292, Note_on_c, 0, 55, 54
2, 90335, Note_off_c, 0, 78, 64
2, 90383, Control_c, 0, 64, 0
2, 90537, Control_c, 0, 64, 127
2, 90551, Note_off_c, 0, 60, 64
2, 90643, Note_off_c, 0, 51, 64
2, 90739, Note_on_c, 0, 52, 66
2, 90753, Note_off_c, 0, 55, 64
2, 90955, Control_c, 0, 64, 0
2, 90959, Note_on_c, 0, 81, 88
2, 90983, Note_off_c, 0, 79, 64
2, 91055, Note_on_c, 0, 79, 95
2, 91060, Control_c, 0, 64, 127
2, 91094, Note_off_c, 0, 81, 64
2, 91156, Note_on_c, 0, 78, 86
2, 91166, Note_on_c, 0, 55, 68
2, 91195, Note_off_c, 0, 79, 64
2, 91271, Note_on_c, 0, 79, 92
2, 91291, Note_off_c, 0, 78, 64
2, 91406, Note_on_c, 0, 81, 102
2, 91459, Note_off_c, 0, 79, 64
2, 91627, Control_c, 0, 64, 0
2, 91641, Note_on_c, 0, 61, 67
2, 91785, Note_off_c, 0, 55, 64
2, 91891, Control_c, 0, 64, 127
2, 91915, Note_on_c, 0, 82, 91
2, 91943, Note_off_c, 0, 81, 64
2, 92006, Note_on_c, 0, 81, 79
2, 92035, Note_off_c, 0, 82, 64
2, 92063, Note_off_c, 0, 81, 64
2, 92073, Note_on_c, 0, 79, 85
2, 92188, Note_on_c, 0, 81, 89
2, 92227, Note_off_c, 0, 79, 64
2, 92246, Note_on_c, 0, 55, 42
2, 92289, Control_c, 0, 64, 0
2, 92351, Note_on_c, 0, 82, 96
2, 92385, Note_off_c, 0, 81, 64
2, 92491, Note_off_c, 0, 52, 64
2, 92505, Control_c, 0, 64, 127
2, 92673, Note_off_c, 0, 61, 64
2, 92716, Note_off_c, 0, 55, 64
2, 92769, Note_on_c, 0, 53, 51
2, 92903, Note_on_c, 0, 86, 73
2, 92932, Note_off_c, 0, 82, 64
2, 92990, Note_on_c, 0, 84, 82
2, 93014, Note_off_c, 0, 86, 64
2, 93028, Note_off_c, 0, 84, 64
2, 93047, Note_on_c, 0, 82, 80
2, 93139, Note_on_c, 0, 84, 81
2, 93167, Note_off_c, 0, 82, 64
2, 93268, Note_on_c, 0, 86, 83
2, 93268, Note_on_c, 0, 58, 54
2, 93273, Control_c, 0, 64, 0
2, 93292, Note_off_c, 0, 84, 64
2, 93532, Note_on_c, 0, 89, 71
2, 93547, Note_off_c, 0, 86, 64
2, 93580, Control_c, 0, 64, 127
2, 93825, Note_on_c, 0, 62, 32
2, 93863, Note_off_c, 0, 58, 64
2, 93921, Note_on_c, 0, 77, 76
2, 93940, Note_off_c, 0, 89, 64
2, 94411, Note_on_c, 0, 58, 31
2, 94420, Note_off_c, 0, 53, 64
2, 94502, Note_off_c, 0, 62, 64
2, 94963, Note_off_c, 0, 58, 64
2, 94972, Note_on_c, 0, 53, 32
2, 95025, Control_c, 0, 64, 0
2, 95236, Note_on_c, 0, 78, 53
2, 95241, Control_c, 0, 64, 127
2, 95303, Note_off_c, 0, 77, 64
2, 95491, Note_on_c, 0, 79, 66
2, 95500, Note_off_c, 0, 78, 64
2, 95510, Note_on_c, 0, 57, 37
2, 95548, Control_c, 0, 64, 0
2, 95668, Control_c, 0, 64, 127
2, 95711, Note_on_c, 0, 77, 74
2, 95726, Note_off_c, 0, 79, 64
2, 95779, Note_off_c, 0, 77, 64
2, 95918, Note_off_c, 0, 57, 64
2, 95947, Note_on_c, 0, 77, 64
2, 95961, Note_on_c, 0, 60, 32
2, 96163, Note_on_c, 0, 75, 47
2, 96191, Note_off_c, 0, 77, 64
2, 96302, Note_off_c, 0, 60, 64
2, 96355, Note_off_c, 0, 53, 64
2, 96374, Note_on_c, 0, 74, 59
2, 96388, Note_on_c, 0, 57, 23
2, 96393, Note_off_c, 0, 75, 64
2, 96503, Note_off_c, 0, 57, 64
2, 96585, Note_off_c, 0, 74, 64
2, 96604, Note_on_c, 0, 72, 49
2, 96844, Note_on_c, 0, 58, 50
2, 96883, Note_on_c, 0, 70, 50
2, 96902, Note_off_c, 0, 72, 64
2, 97127, Note_on_c, 0, 62, 48
2, 97281, Control_c, 0, 64, 0
2, 97358, Note_on_c, 0, 65, 50
2, 97367, Note_off_c, 0, 62, 64
2, 97511, Control_c, 0, 64, 127
2, 97579, Note_off_c, 0, 65, 64
2, 97579, Note_on_c, 0, 62, 44
2, 97756, Note_off_c, 0, 62, 64
2, 97780, Note_off_c, 0, 70, 64
2, 97833, Note_on_c, 0, 65, 44
2, 97905, Note_off_c, 0, 65, 64
2, 98039, Note_on_c, 0, 62, 38
2, 98131, Note_off_c, 0, 62, 64
2, 98241, Note_off_c, 0, 58, 64
2, 98275, Note_on_c, 0, 65, 35
2, 98366, Note_off_c, 0, 65, 64
2, 98519, Note_on_c, 0, 62, 38
2, 98577, Note_off_c, 0, 62, 64
2, 98855, Note_on_c, 0, 63, 29
2, 98865, Note_on_c, 0, 69, 47
2, 98894, Control_c, 0, 64, 0
2, 98899, Note_on_c, 0, 53, 20
2, 99134, Note_on_c, 0, 72, 58
2, 99158, Control_c, 0, 64, 127
2, 99355, Note_off_c, 0, 72, 64
2, 99369, Note_on_c, 0, 79, 64
2, 99388, Note_off_c, 0, 69, 64
2, 99571, Note_on_c, 0, 77, 80
2, 99609, Note_off_c, 0, 79, 64
2, 99791, Note_on_c, 0, 79, 84
2, 99801, Note_off_c, 0, 63, 64
2, 99820, Note_off_c, 0, 77, 64
2, 99945, Note_off_c, 0, 53, 64
2, 99979, Note_on_c, 0, 77, 84
2, 100036, Note_off_c, 0, 79, 64
2, 100204, Note_on_c, 0, 79, 94
2, 100233, Note_off_c, 0, 77, 64
2, 100420, Note_on_c, 0, 77, 92
2, 100478, Note_off_c, 0, 79, 64
2, 100516, Note_off_c, 0, 77, 64
2, 100646, Note_on_c, 0, 77, 72
2, 100646, Note_on_c, 0, 58, 45
2, 100742, Control_c, 0, 64, 0
2, 100886, Note_on_c, 0, 62, 38
2, 101063, Control_c, 0, 64, 127
2, 101078, Note_off_c, 0, 62, 64
2, 101111, Note_on_c, 0, 65, 41
2, 101260, Note_off_c, 0, 65, 64
2, 101332, Note_on_c, 0, 62, 46
2, 101534, Note_off_c, 0, 62, 64
2, 101567, Note_on_c, 0, 82, 56
2, 101577, Note_on_c, 0, 65, 34
2, 101582, Note_off_c, 0, 77, 64
2, 101644, Control_c, 0, 64, 0
2, 101750, Note_off_c, 0, 65, 64
2, 101755, Control_c, 0, 64, 127
2, 101812, Note_on_c, 0, 62, 44
2, 101836, Note_off_c, 0, 82, 64
2, 101918, Note_off_c, 0, 62, 64
2, 102028, Note_on_c, 0, 65, 42
2, 102062, Note_off_c, 0, 58, 64
2, 102105, Note_off_c, 0, 65, 64
2, 102249, Note_on_c, 0, 62, 50
2, 102302, Note_off_c, 0, 62, 64
2, 102523, Note_on_c, 0, 69, 54
2, 102532, Note_on_c, 0, 63, 33
2, 102550, Note_on_c, 0, 53, 40
2, 102566, Control_c, 0, 64, 0
2, 102743, Note_on_c, 0, 72, 71
2, 102815, Control_c, 0, 64, 127
2, 102897, Note_off_c, 0, 69, 64
2, 102955, Note_on_c, 0, 79, 79
2, 102983, Note_off_c, 0, 72, 64
2, 103171, Note_on_c, 0, 77, 91
2, 103180, Note_off_c, 0, 63, 64
2, 103228, Note_off_c, 0, 79, 64
2, 103309, Note_off_c, 0, 53, 64
2, 103396, Note_on_c, 0, 79, 94
2, 103430, Note_off_c, 0, 77, 64
2, 103593, Note_on_c, 0, 77, 94
2, 103617, Note_off_c, 0, 79, 64
2, 103804, Note_on_c, 0, 79, 81
2, 103838, Note_off_c, 0, 77, 64
2, 104025, Note_on_c, 0, 77, 76
2, 104083, Note_off_c, 0, 79, 64
2, 104159, Note_off_c, 0, 77, 64
2, 104241, Note_on_c, 0, 58, 50
2, 104250, Note_on_c, 0, 77, 60
2, 104351, Control_c, 0, 64, 0
2, 104500, Note_on_c, 0, 62, 53
2, 104644, Control_c, 0, 64, 127
2, 104702, Note_off_c, 0, 62, 64
2, 104731, Note_on_c, 0, 65, 49
2, 104894, Note_off_c, 0, 65, 64
2, 104932, Note_off_c, 0, 58, 64
2, 104951, Note_on_c, 0, 62, 44
2, 105110, Note_off_c, 0, 62, 64
2, 105187, Note_on_c, 0, 65, 49
2, 105191, Note_off_c, 0, 77, 64
2, 105191, Note_on_c, 0, 70, 50
2, 105374, Note_off_c, 0, 65, 64
2, 105374, Note_on_c, 0, 62, 52
2, 105580, Note_off_c, 0, 62, 64
2, 105595, Note_on_c, 0, 65, 65
2, 105599, Note_off_c, 0, 70, 64
2, 105811, Note_on_c, 0, 62, 71
2, 105825, Note_off_c, 0, 65, 64
2, 105974, Note_off_c, 0, 62, 64
2, 106051, Note_on_c, 0, 63, 58
2, 106051, Note_on_c, 0, 69, 74
2, 106079, Note_on_c, 0, 53, 59
2, 106132, Control_c, 0, 64, 0
2, 106281, Note_on_c, 0, 72, 88
2, 106439, Control_c, 0, 64, 127
2, 106507, Note_off_c, 0, 69, 64
2, 106507, Note_on_c, 0, 79, 84
2, 106550, Note_off_c, 0, 72, 64
2, 106703, Note_on_c, 0, 77, 94
2, 106771, Note_off_c, 0, 79, 64
2, 106929, Note_on_c, 0, 79, 97
2, 106948, Note_off_c, 0, 77, 64
2, 107135, Note_on_c, 0, 77, 88
2, 107159, Note_off_c, 0, 79, 64
2, 107375, Note_on_c, 0, 79, 76
2, 107385, Note_off_c, 0, 77, 64
2, 107591, Note_off_c, 0, 63, 64
2, 107611, Note_on_c, 0, 77, 72
2, 107620, Note_off_c, 0, 79, 64
2, 107692, Note_off_c, 0, 77, 64
2, 107875, Note_on_c, 0, 77, 85
2, 107879, Note_on_c, 0, 58, 48
2, 107889, Note_on_c, 0, 62, 33
2, 107894, Note_off_c, 0, 53, 64
2, 108009, Control_c, 0, 64, 0
2, 108115, Note_on_c, 0, 70, 83
2, 108187, Note_off_c, 0, 77, 64
2, 108331, Control_c, 0, 64, 127
2, 108345, Note_on_c, 0, 82, 94
2, 108359, Note_off_c, 0, 70, 64
2, 108451, Note_off_c, 0, 82, 64
2, 108532, Note_on_c, 0, 82, 92
2, 108547, Control_c, 0, 64, 0
2, 108633, Note_off_c, 0, 82, 64
2, 108729, Note_on_c, 0, 82, 91
2, 108964, Note_on_c, 0, 74, 65
2, 108993, Note_off_c, 0, 82, 64
2, 109113, Note_off_c, 0, 74, 64
2, 109166, Note_on_c, 0, 86, 81
2, 109276, Note_off_c, 0, 86, 64
2, 109363, Note_off_c, 0, 58, 64
2, 109367, Note_on_c, 0, 86, 84
2, 109415, Note_off_c, 0, 62, 64
2, 109468, Note_off_c, 0, 86, 64
2, 109579, Note_on_c, 0, 86, 84
2, 109795, Note_on_c, 0, 77, 72
2, 109819, Note_off_c, 0, 86, 64
2, 109943, Control_c, 0, 64, 127
2, 109982, Note_off_c, 0, 77, 64
2, 110020, Control_c, 0, 64, 0
2, 110020, Note_on_c, 0, 89, 86
2, 110126, Note_off_c, 0, 89, 64
2, 110212, Note_on_c, 0, 89, 90
2, 110323, Note_off_c, 0, 89, 64
2, 110423, Note_on_c, 0, 65, 43
2, 110428, Note_on_c, 0, 89, 79
2, 110429, Note_on_c, 0, 75, 42
2, 110432, Note_on_c, 0, 69, 42
2, 110539, Note_off_c, 0, 89, 64
2, 110659, Note_on_c, 0, 89, 59
2, 110740, Note_off_c, 0, 89, 64
2, 110865, Note_on_c, 0, 89, 73
2, 110947, Note_off_c, 0, 89, 64
2, 111110, Note_on_c, 0, 89, 58
2, 111278, Note_off_c, 0, 75, 64
2, 111283, Note_off_c, 0, 89, 64
2, 111296, Note_off_c, 0, 69, 64
2, 111331, Note_off_c, 0, 65, 64
2, 111412, Note_on_c, 0, 82, 59
2, 111417, Note_on_c, 0, 70, 33
2, 111431, Note_on_c, 0, 74, 27
2, 111801, Control_c, 0, 64, 127
2, 111868, Note_off_c, 0, 74, 64
2, 111878, Note_off_c, 0, 82, 64
2, 111950, Note_off_c, 0, 70, 64
2, 112051, Control_c, 0, 64, 0
2, 112358, Control_c, 0, 64, 127
2, 112372, Note_on_c, 0, 75, 39
2, 112372, Note_on_c, 0, 89, 73
2, 112400, Note_on_c, 0, 69, 37
2, 112401, Note_on_c, 0, 65, 36
2, 112502, Note_off_c, 0, 89, 64
2, 112583, Note_on_c, 0, 89, 71
2, 112699, Note_off_c, 0, 89, 64
2, 112809, Note_on_c, 0, 89, 50
2, 112871, Note_off_c, 0, 89, 64
2, 113020, Note_off_c, 0, 75, 64
2, 113063, Note_on_c, 0, 89, 54
2, 113068, Note_off_c, 0, 65, 64
2, 113106, Note_off_c, 0, 69, 64
2, 113116, Note_off_c, 0, 89, 64
2, 113340, Note_on_c, 0, 82, 34
2, 113356, Note_on_c, 0, 74, 28
2, 113362, Note_on_c, 0, 70, 38
2, 113836, Note_off_c, 0, 74, 64
2, 113907, Note_off_c, 0, 82, 64
2, 113908, Control_c, 0, 64, 0
2, 113918, Note_off_c, 0, 70, 64
2, 114297, Note_on_c, 0, 89, 34
2, 114307, Control_c, 0, 64, 127
2, 114311, Note_on_c, 0, 75, 19
2, 114334, Note_on_c, 0, 65, 16
2, 114339, Note_on_c, 0, 69, 34
2, 114374, Note_off_c, 0, 89, 64
2, 114575, Note_on_c, 0, 89, 45
2, 114638, Note_off_c, 0, 89, 64
2, 114839, Note_on_c, 0, 89, 31
2, 114901, Note_off_c, 0, 65, 64
2, 114902, Note_off_c, 0, 89, 64
2, 114926, Note_off_c, 0, 75, 64
2, 114939, Note_off_c, 0, 69, 64
2, 115103, Note_on_c, 0, 89, 25
2, 115175, Note_off_c, 0, 89, 64
2, 115535, Note_on_c, 0, 82, 34
2, 115545, Note_on_c, 0, 70, 22
2, 115569, Note_on_c, 0, 74, 16
2, 115828, Control_c, 0, 64, 0
2, 115996, Note_off_c, 0, 74, 64
2, 115996, Control_c, 0, 64, 127
2, 116068, Note_off_c, 0, 70, 64
2, 116102, Note_off_c, 0, 82, 64
2, 116212, Control_c, 0, 64, 0
2, 116443, Control_c, 0, 64, 127
2, 116543, Note_on_c, 0, 36, 98
2, 116548, Note_on_c, 0, 48, 98
2, 117465, Note_on_c, 0, 56, 77
2, 117470, Note_on_c, 0, 51, 93
2, 117489, Note_on_c, 0, 53, 79
2, 118483, Note_off_c, 0, 48, 64
2, 118487, Note_off_c, 0, 36, 64
2, 118641, Note_on_c, 0, 47, 74
2, 118651, Note_on_c, 0, 35, 62
2, 118963, Control_c, 0, 64, 0
2, 119207, Control_c, 0, 64, 127
2, 119471, Note_off_c, 0, 47, 64
2, 119980, Note_on_c, 0, 46, 43
2, 119990, Note_on_c, 0, 50, 45
2, 119999, Note_on_c, 0, 34, 34
2, 120009, Control_c, 0, 64, 0
2, 120081, Note_off_c, 0, 35, 64
2, 120326, Note_off_c, 0, 51, 64
2, 120686, Control_c, 0, 64, 127
2, 121439, Note_off_c, 0, 50, 64
2, 121502, Note_on_c, 0, 51, 46
2, 121569, Note_off_c, 0, 53, 64
2, 121727, Note_off_c, 0, 56, 64
2, 121833, Note_on_c, 0, 50, 50
2, 121843, Note_off_c, 0, 51, 64
2, 122107, Note_on_c, 0, 53, 60
2, 122111, Control_c, 0, 64, 0
2, 122188, Note_off_c, 0, 50, 64
2, 122222, Control_c, 0, 64, 127
2, 122318, Note_off_c, 0, 53, 64
2, 122342, Note_on_c, 0, 56, 66
2, 122390, Note_off_c, 0, 56, 64
2, 122567, Note_on_c, 0, 62, 68
2, 122831, Note_on_c, 0, 65, 71
2, 122851, Note_off_c, 0, 62, 64
2, 123062, Note_off_c, 0, 46, 64
2, 123100, Note_off_c, 0, 65, 64
2, 123119, Note_on_c, 0, 68, 68
2, 123182, Note_off_c, 0, 68, 64
2, 123441, Note_on_c, 0, 74, 58
2, 123542, Control_c, 0, 64, 0
2, 123619, Control_c, 0, 64, 127
2, 123628, Note_off_c, 0, 34, 64
2, 123791, Note_off_c, 0, 74, 64
2, 123791, Note_on_c, 0, 77, 41
2, 123863, Control_c, 0, 64, 0
2, 123974, Control_c, 0, 64, 127
2, 124127, Note_off_c, 0, 77, 64
2, 124161, Note_on_c, 0, 80, 27
2, 124339, Control_c, 0, 64, 0
2, 124756, Control_c, 0, 64, 127
2, 124814, Note_off_c, 0, 80, 64
2, 125155, Control_c, 0, 64, 0
2, 125721, Control_c, 0, 64, 127
2, 126604, Note_on_c, 0, 70, 49
2, 126633, Note_on_c, 0, 51, 24
2, 127012, Note_off_c, 0, 51, 64
2, 127180, Note_on_c, 0, 55, 31
2, 127627, Note_off_c, 0, 55, 64
2, 127679, Note_on_c, 0, 58, 29
2, 127953, Note_off_c, 0, 70, 64
2, 127953, Note_on_c, 0, 69, 61
2, 128102, Note_off_c, 0, 69, 64
2, 128102, Note_on_c, 0, 70, 78
2, 128246, Note_off_c, 0, 70, 64
2, 128251, Note_on_c, 0, 72, 74
2, 128284, Note_on_c, 0, 55, 38
2, 128385, Note_on_c, 0, 70, 71
2, 128404, Note_off_c, 0, 72, 64
2, 128515, Note_off_c, 0, 70, 64
2, 128515, Note_on_c, 0, 69, 66
2, 128611, Note_on_c, 0, 70, 71
2, 128639, Note_off_c, 0, 69, 64
2, 128759, Note_off_c, 0, 55, 64
2, 128759, Note_on_c, 0, 51, 34
2, 128779, Note_on_c, 0, 67, 70
2, 128783, Note_off_c, 0, 70, 64
2, 128827, Control_c, 0, 64, 0
2, 129201, Note_off_c, 0, 58, 64
2, 129225, Control_c, 0, 64, 127
2, 129278, Note_on_c, 0, 55, 24
2, 129311, Note_off_c, 0, 67, 64
2, 129527, Note_off_c, 0, 51, 64
2, 129652, Note_off_c, 0, 55, 64
2, 129705, Note_on_c, 0, 58, 42
2, 129715, Note_on_c, 0, 67, 73
2, 129844, Note_off_c, 0, 67, 64
2, 130070, Note_off_c, 0, 58, 64
2, 130147, Note_on_c, 0, 55, 34
2, 130574, Note_off_c, 0, 55, 64
2, 130598, Note_on_c, 0, 63, 44
2, 130607, Note_on_c, 0, 67, 62
2, 130617, Note_on_c, 0, 46, 46
2, 130934, Control_c, 0, 64, 0
2, 131102, Control_c, 0, 64, 127
2, 131150, Note_on_c, 0, 51, 33
2, 131481, Note_off_c, 0, 51, 64
2, 131644, Note_on_c, 0, 55, 30
2, 131735, Note_off_c, 0, 67, 64
2, 131755, Note_on_c, 0, 68, 58
2, 131841, Note_off_c, 0, 68, 64
2, 131865, Note_on_c, 0, 67, 46
2, 131999, Note_off_c, 0, 67, 64
2, 132009, Note_on_c, 0, 65, 50
2, 132129, Note_on_c, 0, 51, 29
2, 132139, Note_on_c, 0, 67, 36
2, 132145, Note_off_c, 0, 65, 64
2, 132177, Control_c, 0, 64, 0
2, 132201, Note_off_c, 0, 55, 64
2, 132331, Control_c, 0, 64, 127
2, 132335, Note_off_c, 0, 46, 64
2, 132436, Note_off_c, 0, 67, 64
2, 132451, Note_on_c, 0, 68, 43
2, 132676, Note_off_c, 0, 68, 64
2, 132743, Note_on_c, 0, 46, 36
2, 132753, Note_on_c, 0, 65, 36
2, 132767, Note_on_c, 0, 62, 24
2, 132791, Note_off_c, 0, 63, 64
2, 132830, Note_off_c, 0, 51, 64
2, 132854, Control_c, 0, 64, 0
2, 133252, Note_on_c, 0, 50, 33
2, 133267, Control_c, 0, 64, 127
2, 133641, Note_off_c, 0, 65, 64
2, 133742, Note_off_c, 0, 50, 64
2, 133751, Note_on_c, 0, 53, 28
2, 133948, Note_off_c, 0, 62, 64
2, 133977, Note_on_c, 0, 70, 52
2, 134174, Note_off_c, 0, 70, 64
2, 134183, Note_off_c, 0, 53, 64
2, 134212, Note_on_c, 0, 68, 61
2, 134251, Note_on_c, 0, 50, 32
2, 134308, Note_off_c, 0, 68, 64
2, 134443, Note_on_c, 0, 65, 76
2, 134481, Note_off_c, 0, 46, 64
2, 134491, Note_off_c, 0, 65, 64
2, 134510, Note_off_c, 0, 50, 64
2, 134707, Note_on_c, 0, 63, 82
2, 134707, Note_on_c, 0, 55, 75
2, 134711, Note_on_c, 0, 51, 58
2, 134803, Control_c, 0, 64, 0
2, 135110, Control_c, 0, 64, 127
2, 135220, Note_on_c, 0, 58, 49
2, 135331, Note_off_c, 0, 55, 64
2, 135710, Note_on_c, 0, 55, 41
2, 135729, Note_off_c, 0, 58, 64
2, 136156, Note_off_c, 0, 55, 64
2, 136195, Note_on_c, 0, 58, 42
2, 136665, Note_on_c, 0, 65, 86
2, 136665, Note_on_c, 0, 46, 93
2, 136675, Note_on_c, 0, 62, 63
2, 136727, Note_off_c, 0, 58, 64
2, 136742, Note_off_c, 0, 63, 64
2, 136766, Note_off_c, 0, 51, 64
2, 137135, Note_on_c, 0, 58, 48
2, 137246, Control_c, 0, 64, 0
2, 137356, Note_off_c, 0, 62, 64
2, 137433, Control_c, 0, 64, 127
2, 137606, Note_on_c, 0, 62, 45
2, 137668, Note_off_c, 0, 58, 64
2, 138119, Note_off_c, 0, 62, 64
2, 138119, Note_on_c, 0, 58, 48
2, 138206, Note_off_c, 0, 65, 64
2, 138451, Note_off_c, 0, 58, 64
2, 138604, Note_on_c, 0, 67, 70
2, 138609, Note_on_c, 0, 63, 47
2, 138619, Note_off_c, 0, 46, 64
2, 138643, Note_on_c, 0, 39, 43
2, 138739, Control_c, 0, 64, 0
2, 138878, Control_c, 0, 64, 127
2, 138892, Note_off_c, 0, 67, 64
2, 138940, Note_on_c, 0, 68, 65
2, 138964, Note_off_c, 0, 63, 64
2, 139022, Note_on_c, 0, 67, 52
2, 139036, Note_off_c, 0, 68, 64
2, 139070, Note_off_c, 0, 67, 64
2, 139103, Note_on_c, 0, 65, 69
2, 139180, Note_on_c, 0, 67, 57
2, 139219, Note_off_c, 0, 65, 64
2, 139305, Control_c, 0, 64, 0
2, 139396, Control_c, 0, 64, 127
2, 139396, Note_on_c, 0, 68, 70
2, 139430, Note_off_c, 0, 67, 64
2, 139492, Control_c, 0, 64, 0
2, 139603, Note_on_c, 0, 70, 72
2, 139612, Control_c, 0, 64, 127
2, 139631, Note_off_c, 0, 68, 64
2, 139660, Control_c, 0, 64, 0
2, 139828, Control_c, 0, 64, 127
2, 139843, Note_on_c, 0, 72, 65
2, 139847, Note_off_c, 0, 70, 64
2, 139857, Control_c, 0, 64, 0
2, 139982, Control_c, 0, 64, 127
2, 140054, Note_off_c, 0, 72, 64
2, 140054, Note_on_c, 0, 74, 59
2, 140073, Control_c, 0, 64, 0
2, 140179, Control_c, 0, 64, 127
2, 140246, Control_c, 0, 64, 0
2, 140308, Note_off_c, 0, 74, 64
2, 140313, Note_on_c, 0, 75, 43
2, 140649, Note_off_c, 0, 75, 64
2, 140678, Note_on_c, 0, 70, 37
2, 140980, Control_c, 0, 64, 127
2, 141081, Note_off_c, 0, 70, 64
2, 141086, Note_off_c, 0, 39, 64
2, 141379, Control_c, 0, 64, 0
2, 141657, Control_c, 0, 64, 127
2, 141902, Note_on_c, 0, 79, 52
2, 141916, Note_on_c, 0, 75, 16
2, 142353, Note_off_c, 0, 75, 64
2, 142377, Note_on_c, 0, 77, 50
2, 142406, Note_off_c, 0, 79, 64
2, 142430, Note_on_c, 0, 74, 16
2, 142564, Control_c, 0, 64, 0
2, 142670, Control_c, 0, 64, 127
2, 142799, Note_off_c, 0, 74, 64
2, 142852, Note_on_c, 0, 75, 41
2, 142857, Note_off_c, 0, 77, 64
2, 142862, Note_on_c, 0, 72, 25
2, 143207, Note_off_c, 0, 75, 64
2, 143399, Note_on_c, 0, 70, 42
2, 143402, Note_on_c, 0, 74, 48
2, 143404, Note_off_c, 0, 72, 64
2, 143913, Note_on_c, 0, 50, 30
2, 143918, Note_on_c, 0, 38, 17
2, 143961, Control_c, 0, 64, 0
2, 144100, Control_c, 0, 64, 127
2, 144134, Note_off_c, 0, 70, 64
2, 144148, Note_off_c, 0, 74, 64
2, 144158, Note_on_c, 0, 68, 48
2, 144172, Note_on_c, 0, 72, 54
2, 144201, Note_off_c, 0, 50, 64
2, 144249, Note_off_c, 0, 38, 64
2, 144403, Note_on_c, 0, 51, 55
2, 144417, Note_on_c, 0, 39, 55
2, 144479, Note_off_c, 0, 68, 64
2, 144633, Note_on_c, 0, 70, 78
2, 144643, Note_off_c, 0, 39, 64
2, 144652, Note_on_c, 0, 67, 64
2, 144676, Note_off_c, 0, 51, 64
2, 144681, Note_off_c, 0, 72, 64
2, 144844, Note_on_c, 0, 41, 68
2, 144854, Note_on_c, 0, 53, 63
2, 144931, Control_c, 0, 64, 0
2, 145065, Control_c, 0, 64, 127
2, 145079, Note_on_c, 0, 65, 67
2, 145084, Note_off_c, 0, 67, 64
2, 145084, Note_on_c, 0, 68, 75
2, 145113, Note_off_c, 0, 70, 64
2, 145137, Note_off_c, 0, 41, 64
2, 145142, Note_off_c, 0, 53, 64
2, 145305, Note_on_c, 0, 55, 76
2, 145319, Note_on_c, 0, 43, 56
2, 145391, Control_c, 0, 64, 0
2, 145516, Control_c, 0, 64, 127
2, 145540, Note_on_c, 0, 67, 82
2, 145550, Note_on_c, 0, 63, 58
2, 145569, Note_off_c, 0, 65, 64
2, 145569, Note_off_c, 0, 55, 64
2, 145588, Note_off_c, 0, 68, 64
2, 145766, Note_on_c, 0, 56, 55
2, 145780, Note_off_c, 0, 43, 64
2, 145780, Note_on_c, 0, 44, 62
2, 145819, Control_c, 0, 64, 0
2, 145929, Note_off_c, 0, 63, 64
2, 146030, Note_on_c, 0, 72, 73
2, 146030, Note_on_c, 0, 60, 46
2, 146068, Control_c, 0, 64, 127
2, 146092, Note_off_c, 0, 67, 64
2, 146111, Note_off_c, 0, 56, 64
2, 146265, Note_off_c, 0, 44, 64
2, 146284, Note_on_c, 0, 41, 57
2, 146299, Note_on_c, 0, 53, 31
2, 146313, Control_c, 0, 64, 0
2, 146447, Control_c, 0, 64, 127
2, 146486, Note_off_c, 0, 60, 64
2, 146505, Note_off_c, 0, 41, 64
2, 146539, Note_on_c, 0, 68, 70
2, 146563, Note_on_c, 0, 65, 48
2, 146606, Note_off_c, 0, 72, 64
2, 146620, Note_off_c, 0, 53, 64
2, 146870, Note_on_c, 0, 67, 70
2, 146879, Note_on_c, 0, 63, 47
2, 146889, Note_on_c, 0, 57, 52
2, 146903, Note_off_c, 0, 65, 64
2, 146971, Control_c, 0, 64, 0
2, 147004, Note_off_c, 0, 68, 64
2, 147374, Control_c, 0, 64, 127
2, 147393, Note_on_c, 0, 58, 58
2, 147446, Note_off_c, 0, 57, 64
2, 147556, Control_c, 0, 64, 0
2, 147739, Control_c, 0, 64, 127
2, 147863, Note_on_c, 0, 55, 36
2, 147873, Note_off_c, 0, 58, 64
2, 147955, Control_c, 0, 64, 0
2, 148142, Control_c, 0, 64, 127
2, 148372, Control_c, 0, 64, 0
2, 148387, Note_on_c, 0, 51, 31
2, 148391, Note_off_c, 0, 55, 64
2, 148651, Control_c, 0, 64, 127
2, 148867, Note_off_c, 0, 63, 64
2, 148871, Note_off_c, 0, 51, 64
2, 149006, Note_on_c, 0, 65, 36
2, 149030, Note_on_c, 0, 62, 24
2, 149035, Note_on_c, 0, 46, 41
2, 149073, Note_off_c, 0, 67, 64
2, 149155, Control_c, 0, 64, 0
2, 149447, Control_c, 0, 64, 127
2, 149519, Note_on_c, 0, 67, 52
2, 149601, Note_off_c, 0, 65, 64
2, 149649, Control_c, 0, 64, 0
2, 149783, Control_c, 0, 64, 127
2, 149942, Note_off_c, 0, 62, 64
2, 149975, Note_on_c, 0, 68, 43
2, 149985, Note_off_c, 0, 67, 64
2, 150105, Control_c, 0, 64, 0
2, 150163, Note_off_c, 0, 46, 64
2, 150230, Control_c, 0, 64, 127
2, 150494, Note_off_c, 0, 68, 64
2, 150523, Note_on_c, 0, 69, 20
2, 150719, Control_c, 0, 64, 0
2, 150892, Control_c, 0, 64, 127
2, 151017, Note_off_c, 0, 69, 64
2, 151199, Note_on_c, 0, 51, 23
2, 151204, Note_on_c, 0, 70, 43
2, 151727, Note_off_c, 0, 51, 64
2, 151737, Note_on_c, 0, 55, 27
2, 151843, Control_c, 0, 64, 0
2, 151996, Control_c, 0, 64, 127
2, 152169, Note_off_c, 0, 55, 64
2, 152169, Note_on_c, 0, 58, 39
2, 152366, Note_on_c, 0, 74, 46
2, 152390, Note_off_c, 0, 70, 64
2, 152543, Note_off_c, 0, 58, 64
2, 152601, Note_off_c, 0, 74, 64
2, 152615, Note_on_c, 0, 75, 38
2, 152630, Note_on_c, 0, 55, 33
2, 152836, Note_on_c, 0, 70, 59
2, 152865, Note_off_c, 0, 75, 64
2, 153081, Note_off_c, 0, 55, 64
2, 153105, Note_on_c, 0, 67, 48
2, 153119, Note_off_c, 0, 70, 64
2, 153119, Note_on_c, 0, 51, 29
2, 153302, Control_c, 0, 64, 0
2, 153412, Note_off_c, 0, 67, 64
2, 153412, Control_c, 0, 64, 127
2, 153681, Note_on_c, 0, 67, 41
2, 153715, Note_on_c, 0, 55, 22
2, 153859, Note_off_c, 0, 67, 64
2, 154156, Note_on_c, 0, 67, 54
2, 154180, Note_off_c, 0, 55, 64
2, 154180, Note_on_c, 0, 58, 40
2, 154319, Note_off_c, 0, 67, 64
2, 154526, Note_off_c, 0, 58, 64
2, 154588, Note_off_c, 0, 51, 64
2, 154607, Note_on_c, 0, 67, 68
2, 154651, Note_on_c, 0, 55, 31
2, 154790, Note_off_c, 0, 55, 64
2, 154795, Note_off_c, 0, 67, 64
2, 155140, Note_on_c, 0, 67, 69
2, 155145, Note_on_c, 0, 63, 45
2, 155174, Note_on_c, 0, 46, 41
2, 155654, Note_on_c, 0, 51, 38
2, 156052, Control_c, 0, 64, 0
2, 156167, Note_on_c, 0, 55, 25
2, 156177, Note_off_c, 0, 51, 64
2, 156191, Control_c, 0, 64, 127
2, 156292, Note_off_c, 0, 67, 64
2, 156398, Note_on_c, 0, 68, 40
2, 156484, Note_off_c, 0, 68, 64
2, 156551, Note_on_c, 0, 67, 32
2, 156619, Note_off_c, 0, 67, 64
2, 156652, Note_on_c, 0, 65, 43
2, 156724, Note_off_c, 0, 65, 64
2, 156724, Note_on_c, 0, 51, 30
2, 156772, Note_on_c, 0, 67, 25
2, 156777, Control_c, 0, 64, 0
2, 156897, Note_off_c, 0, 46, 64
2, 156945, Control_c, 0, 64, 127
2, 157007, Note_off_c, 0, 55, 64
2, 157027, Note_off_c, 0, 67, 64
2, 157065, Note_on_c, 0, 68, 44
2, 157185, Note_off_c, 0, 63, 64
2, 157286, Note_on_c, 0, 46, 47
2, 157315, Note_on_c, 0, 65, 44
2, 157324, Note_on_c, 0, 62, 26
2, 157339, Note_off_c, 0, 68, 64
2, 157348, Note_off_c, 0, 51, 64
2, 157358, Control_c, 0, 64, 0
2, 157727, Control_c, 0, 64, 127
2, 157747, Note_on_c, 0, 50, 36
2, 157934, Note_off_c, 0, 62, 64
2, 157943, Note_off_c, 0, 65, 64
2, 158231, Note_on_c, 0, 53, 36
2, 158241, Note_off_c, 0, 46, 64
2, 158347, Note_off_c, 0, 50, 64
2, 158471, Note_on_c, 0, 58, 56
2, 158721, Note_off_c, 0, 53, 64
2, 158726, Note_on_c, 0, 60, 70
2, 158745, Note_on_c, 0, 46, 59
2, 158750, Note_off_c, 0, 58, 64
2, 158875, Note_off_c, 0, 46, 64
2, 158956, Note_on_c, 0, 62, 66
2, 159153, Note_off_c, 0, 60, 64
2, 159206, Note_on_c, 0, 63, 59
2, 159215, Note_on_c, 0, 51, 54
2, 159249, Control_c, 0, 64, 0
2, 159369, Note_off_c, 0, 62, 64
2, 159700, Note_on_c, 0, 58, 47
2, 159743, Control_c, 0, 64, 127
2, 160214, Note_on_c, 0, 55, 40
2, 160281, Note_off_c, 0, 58, 64
2, 160699, Note_on_c, 0, 58, 46
2, 160809, Note_off_c, 0, 55, 64
2, 160958, Note_off_c, 0, 63, 64
2, 161150, Note_on_c, 0, 46, 80
2, 161159, Note_on_c, 0, 65, 79
2, 161169, Note_on_c, 0, 62, 51
2, 161227, Note_off_c, 0, 51, 64
2, 161255, Note_off_c, 0, 58, 64
2, 161644, Note_on_c, 0, 58, 62
2, 161759, Note_off_c, 0, 62, 64
2, 161971, Control_c, 0, 64, 0
2, 162110, Note_on_c, 0, 62, 50
2, 162259, Control_c, 0, 64, 127
2, 162273, Note_off_c, 0, 58, 64
2, 162590, Note_off_c, 0, 65, 64
2, 162614, Note_off_c, 0, 62, 64
2, 162619, Note_on_c, 0, 58, 59
2, 162691, Note_off_c, 0, 58, 64
2, 162739, Note_off_c, 0, 46, 64
2, 163079, Note_on_c, 0, 67, 71
2, 163089, Note_on_c, 0, 63, 38
2, 163113, Note_on_c, 0, 39, 41
2, 163315, Note_off_c, 0, 67, 64
2, 163353, Note_off_c, 0, 63, 64
2, 163367, Note_on_c, 0, 68, 60
2, 163430, Note_off_c, 0, 68, 64
2, 163435, Note_on_c, 0, 67, 60
2, 163483, Note_off_c, 0, 67, 64
2, 163516, Note_on_c, 0, 65, 67
2, 163583, Note_off_c, 0, 65, 64
2, 163583, Note_on_c, 0, 67, 73
2, 163675, Control_c, 0, 64, 0
2, 163814, Control_c, 0, 64, 127
2, 163823, Note_on_c, 0, 68, 81
2, 163847, Note_off_c, 0, 67, 64
2, 164025, Control_c, 0, 64, 0
2, 164054, Note_off_c, 0, 68, 64
2, 164054, Note_on_c, 0, 70, 69
2, 164193, Note_off_c, 0, 70, 64
2, 164198, Control_c, 0, 64, 127
2, 164279, Note_on_c, 0, 72, 67
2, 164380, Control_c, 0, 64, 0
2, 164519, Note_off_c, 0, 72, 64
2, 164539, Note_on_c, 0, 74, 57
2, 164577, Note_off_c, 0, 39, 64
2, 164649, Note_off_c, 0, 74, 64
2, 164687, Control_c, 0, 64, 127
2, 164831, Note_on_c, 0, 75, 50
2, 164889, Control_c, 0, 64, 0
2, 165057, Control_c, 0, 64, 127
2, 165220, Note_on_c, 0, 70, 45
2, 165254, Note_off_c, 0, 75, 64
2, 165350, Control_c, 0, 64, 0
2, 165595, Control_c, 0, 64, 127
2, 165662, Note_off_c, 0, 70, 64
2, 165950, Control_c, 0, 64, 0
2, 166286, Control_c, 0, 64, 127
2, 166545, Note_on_c, 0, 75, 36
2, 166723, Note_off_c, 0, 75, 64
2, 166814, Note_on_c, 0, 74, 50
2, 166838, Control_c, 0, 64, 0
2, 166871, Note_off_c, 0, 74, 64
2, 167011, Note_on_c, 0, 73, 63
2, 167107, Note_off_c, 0, 73, 64
2, 167236, Note_on_c, 0, 72, 77
2, 167371, Note_off_c, 0, 72, 64
2, 167505, Note_on_c, 0, 71, 57
2, 167841, Control_c, 0, 64, 127
2, 167913, Note_off_c, 0, 71, 64
2, 167990, Note_on_c, 0, 63, 26
2, 168003, Note_on_c, 0, 55, 31
2, 168254, Control_c, 0, 64, 0
2, 168446, Note_on_c, 0, 75, 53
2, 168451, Note_off_c, 0, 63, 64
2, 168455, Note_off_c, 0, 55, 64
2, 168580, Note_off_c, 0, 75, 64
2, 168667, Note_on_c, 0, 74, 74
2, 168743, Note_off_c, 0, 74, 64
2, 168863, Note_on_c, 0, 73, 70
2, 168983, Note_off_c, 0, 73, 64
2, 169094, Note_on_c, 0, 72, 78
2, 169223, Note_off_c, 0, 72, 64
2, 169363, Note_on_c, 0, 71, 48
2, 169665, Control_c, 0, 64, 127
2, 169670, Note_off_c, 0, 71, 64
2, 169828, Note_on_c, 0, 63, 28
2, 169852, Note_on_c, 0, 55, 27
2, 169881, Control_c, 0, 64, 0
2, 170212, Note_off_c, 0, 55, 64
2, 170251, Note_off_c, 0, 63, 64
2, 170270, Note_on_c, 0, 75, 65
2, 170428, Note_off_c, 0, 75, 64
2, 170505, Note_on_c, 0, 74, 89
2, 170611, Note_off_c, 0, 74, 64
2, 170711, Note_on_c, 0, 73, 88
2, 170817, Note_off_c, 0, 73, 64
2, 170932, Note_on_c, 0, 72, 95
2, 171076, Note_off_c, 0, 72, 64
2, 171225, Note_on_c, 0, 71, 88
2, 171225, Note_on_c, 0, 63, 64
2, 171239, Note_on_c, 0, 55, 62
2, 171249, Note_on_c, 0, 61, 59
2, 172233, Control_c, 0, 64, 127
2, 172670, Note_off_c, 0, 55, 64
2, 172814, Note_off_c, 0, 61, 64
2, 173207, Note_on_c, 0, 72, 39
2, 173220, Note_on_c, 0, 56, 22
2, 173220, Note_on_c, 0, 60, 19
2, 173246, Control_c, 0, 64, 0
2, 173337, Note_off_c, 0, 71, 64
2, 173769, Note_off_c, 0, 72, 64
2, 173769, Control_c, 0, 64, 127
2, 173806, Note_off_c, 0, 60, 64
2, 173875, Note_off_c, 0, 63, 64
2, 173882, Note_off_c, 0, 56, 64
2, 174215, Control_c, 0, 64, 0
2, 174494, Note_on_c, 0, 65, 34
2, 174638, Note_off_c, 0, 65, 64
2, 174753, Note_on_c, 0, 67, 50
2, 174815, Note_off_c, 0, 67, 64
2, 174950, Note_on_c, 0, 68, 69
2, 175060, Note_off_c, 0, 68, 64
2, 175185, Note_on_c, 0, 69, 70
2, 175319, Note_off_c, 0, 69, 64
2, 175511, Note_on_c, 0, 70, 62
2, 175550, Control_c, 0, 64, 127
2, 176515, Note_on_c, 0, 51, 26
2, 176515, Note_on_c, 0, 43, 25
2, 176596, Control_c, 0, 64, 0
2, 176750, Control_c, 0, 64, 127
2, 176807, Note_off_c, 0, 70, 64
2, 176851, Note_on_c, 0, 74, 37
2, 176903, Note_off_c, 0, 74, 64
2, 176975, Note_on_c, 0, 72, 42
2, 177091, Note_off_c, 0, 72, 64
2, 177091, Note_on_c, 0, 75, 50
2, 177201, Note_off_c, 0, 75, 64
2, 177220, Note_on_c, 0, 74, 73
2, 177321, Note_off_c, 0, 74, 64
2, 177364, Note_on_c, 0, 77, 50
2, 177465, Note_off_c, 0, 77, 64
2, 177489, Note_on_c, 0, 75, 67
2, 177532, Note_off_c, 0, 75, 64
2, 177724, Note_on_c, 0, 63, 69
2, 177724, Note_on_c, 0, 46, 47
2, 177734, Note_on_c, 0, 58, 59
2, 177758, Note_off_c, 0, 51, 64
2, 177763, Note_on_c, 0, 55, 32
2, 177883, Note_off_c, 0, 43, 64
2, 177935, Control_c, 0, 64, 0
2, 178627, Control_c, 0, 64, 127
2, 178833, Note_off_c, 0, 63, 64
2, 178919, Note_on_c, 0, 65, 32
2, 178987, Note_off_c, 0, 65, 64
2, 179030, Note_on_c, 0, 63, 32
2, 179092, Note_off_c, 0, 63, 64
2, 179135, Note_on_c, 0, 62, 26
2, 179150, Note_on_c, 0, 56, 34
2, 179212, Note_on_c, 0, 63, 35
2, 179222, Note_off_c, 0, 55, 64
2, 179222, Note_off_c, 0, 62, 64
2, 179260, Note_off_c, 0, 58, 64
2, 179375, Control_c, 0, 64, 0
2, 179433, Note_off_c, 0, 63, 64
2, 179457, Note_on_c, 0, 62, 19
2, 179471, Note_on_c, 0, 67, 40
2, 179807, Control_c, 0, 64, 127
2, 179812, Note_off_c, 0, 67, 64
2, 179812, Note_on_c, 0, 65, 38
2, 179822, Note_off_c, 0, 56, 64
2, 179918, Note_off_c, 0, 62, 64
2, 179971, Note_off_c, 0, 46, 64
2, 180153, Note_off_c, 0, 65, 64
2, 180187, Note_on_c, 0, 63, 28
2, 180215, Note_on_c, 0, 51, 20
2, 180239, Note_on_c, 0, 55, 27
2, 180316, Control_c, 0, 64, 0
2, 180623, Control_c, 0, 64, 127
2, 180638, Note_off_c, 0, 55, 64
2, 180671, Note_off_c, 0, 51, 64
2, 180676, Note_off_c, 0, 63, 64
2, 180931, Control_c, 0, 64, 0
2, 181315, Control_c, 0, 64, 127
2, 181430, Note_on_c, 0, 63, 17
2, 181447, Note_on_c, 0, 51, 16
2, 181447, Note_on_c, 0, 55, 16
2, 181619, Note_off_c, 0, 51, 64
2, 181672, Note_off_c, 0, 55, 64
2, 181742, Note_off_c, 0, 63, 64
2, 182236, Control_c, 0, 64, 0
2, 182865, Control_c, 0, 64, 127
2, 183979, Note_on_c, 0, 32, 30
2, 183988, Note_on_c, 0, 51, 34
2, 183993, Note_on_c, 0, 60, 61
2, 184579, Note_off_c, 0, 32, 64
2, 184631, Note_on_c, 0, 44, 22
2, 184828, Note_off_c, 0, 44, 64
2, 185131, Note_on_c, 0, 44, 22
2, 185279, Note_off_c, 0, 44, 64
2, 185596, Note_on_c, 0, 44, 17
2, 185769, Note_off_c, 0, 44, 64
2, 185774, Note_off_c, 0, 51, 64
2, 186071, Note_on_c, 0, 44, 27
2, 186158, Note_on_c, 0, 58, 65
2, 186182, Note_on_c, 0, 49, 25
2, 186340, Control_c, 0, 64, 0
2, 186431, Note_off_c, 0, 44, 64
2, 186460, Control_c, 0, 64, 127
2, 186475, Note_off_c, 0, 60, 64
2, 186647, Note_on_c, 0, 44, 17
2, 186772, Note_off_c, 0, 44, 64
2, 187103, Note_on_c, 0, 44, 19
2, 187238, Note_off_c, 0, 44, 64
2, 187507, Note_off_c, 0, 49, 64
2, 187603, Note_on_c, 0, 44, 22
2, 187732, Note_off_c, 0, 44, 64
2, 188193, Note_on_c, 0, 63, 41
2, 188231, Note_on_c, 0, 56, 35
2, 188231, Note_on_c, 0, 44, 19
2, 188236, Note_on_c, 0, 48, 24
2, 188337, Control_c, 0, 64, 0
2, 188428, Note_off_c, 0, 58, 64
2, 188519, Control_c, 0, 64, 127
2, 188553, Note_off_c, 0, 44, 64
2, 188774, Note_on_c, 0, 44, 27
2, 188951, Note_off_c, 0, 44, 64
2, 189254, Note_on_c, 0, 44, 29
2, 189489, Note_off_c, 0, 44, 64
2, 189753, Note_on_c, 0, 44, 23
2, 190027, Note_off_c, 0, 44, 64
2, 190161, Note_off_c, 0, 56, 64
2, 190292, Note_on_c, 0, 46, 42
2, 190300, Note_on_c, 0, 39, 31
2, 190315, Note_off_c, 0, 48, 64
2, 190319, Note_on_c, 0, 55, 21
2, 190607, Note_on_c, 0, 65, 41
2, 190660, Note_off_c, 0, 39, 64
2, 190665, Note_off_c, 0, 63, 64
2, 190862, Note_on_c, 0, 63, 60
2, 190900, Note_on_c, 0, 39, 28
2, 190905, Note_off_c, 0, 65, 64
2, 190977, Control_c, 0, 64, 0
2, 191107, Note_on_c, 0, 65, 68
2, 191116, Control_c, 0, 64, 127
2, 191126, Note_off_c, 0, 39, 64
2, 191174, Note_off_c, 0, 63, 64
2, 191318, Note_on_c, 0, 61, 71
2, 191337, Note_off_c, 0, 65, 64
2, 191366, Note_on_c, 0, 39, 30
2, 191524, Note_on_c, 0, 63, 74
2, 191539, Note_off_c, 0, 39, 64
2, 191558, Note_off_c, 0, 61, 64
2, 191745, Note_on_c, 0, 61, 68
2, 191774, Note_off_c, 0, 63, 64
2, 191774, Note_on_c, 0, 39, 45
2, 191899, Note_off_c, 0, 55, 64
2, 191908, Note_off_c, 0, 61, 64
2, 191976, Note_off_c, 0, 46, 64
2, 191990, Note_on_c, 0, 63, 61
2, 192014, Note_off_c, 0, 39, 64
2, 192364, Note_on_c, 0, 51, 50
2, 192364, Note_on_c, 0, 60, 70
2, 192393, Note_on_c, 0, 32, 40
2, 192499, Control_c, 0, 64, 0
2, 192695, Note_off_c, 0, 63, 64
2, 192897, Note_on_c, 0, 44, 41
2, 193051, Control_c, 0, 64, 127
2, 193099, Note_off_c, 0, 32, 64
2, 193209, Note_off_c, 0, 44, 64
2, 193435, Note_on_c, 0, 44, 28
2, 193636, Note_off_c, 0, 44, 64
2, 193910, Note_on_c, 0, 44, 28
2, 194107, Note_off_c, 0, 44, 64
2, 194198, Note_off_c, 0, 51, 64
2, 194390, Note_on_c, 0, 44, 29
2, 194399, Note_on_c, 0, 58, 71
2, 194419, Note_on_c, 0, 49, 38
2, 194731, Note_off_c, 0, 44, 64
2, 194865, Note_off_c, 0, 60, 64
2, 194913, Note_on_c, 0, 44, 31
2, 195158, Note_off_c, 0, 44, 64
2, 195350, Note_on_c, 0, 44, 38
2, 195599, Note_off_c, 0, 44, 64
2, 195763, Note_off_c, 0, 49, 64
2, 195835, Note_on_c, 0, 44, 38
2, 195983, Note_off_c, 0, 58, 64
2, 196012, Note_off_c, 0, 44, 64
2, 196324, Note_on_c, 0, 44, 39
2, 196324, Note_on_c, 0, 48, 49
2, 196337, Note_on_c, 0, 63, 67
2, 196347, Note_on_c, 0, 56, 40
2, 196588, Control_c, 0, 64, 0
2, 196727, Note_off_c, 0, 44, 64
2, 196727, Control_c, 0, 64, 127
2, 196915, Note_on_c, 0, 44, 39
2, 197203, Note_off_c, 0, 44, 64
2, 197390, Note_on_c, 0, 44, 40
2, 197711, Note_off_c, 0, 44, 64
2, 197894, Note_on_c, 0, 44, 48
2, 198148, Note_off_c, 0, 44, 64
2, 198228, Note_off_c, 0, 56, 64
2, 198355, Note_off_c, 0, 48, 64
2, 198369, Note_on_c, 0, 46, 57
2, 198379, Note_on_c, 0, 55, 46
2, 198383, Note_on_c, 0, 39, 37
2, 198646, Note_off_c, 0, 63, 64
2, 198657, Note_on_c, 0, 65, 78
2, 198772, Note_off_c, 0, 39, 64
2, 198916, Note_on_c, 0, 63, 76
2, 198935, Note_off_c, 0, 65, 64
2, 198955, Note_on_c, 0, 39, 50
2, 199075, Control_c, 0, 64, 0
2, 199156, Note_on_c, 0, 65, 78
2, 199190, Note_off_c, 0, 39, 64
2, 199209, Control_c, 0, 64, 127
2, 199223, Note_off_c, 0, 63, 64
2, 199372, Note_on_c, 0, 61, 73
2, 199406, Note_on_c, 0, 39, 41
2, 199449, Note_off_c, 0, 65, 64
2, 199593, Note_on_c, 0, 63, 76
2, 199631, Note_off_c, 0, 61, 64
2, 199641, Note_off_c, 0, 39, 64
2, 199795, Note_on_c, 0, 61, 74
2, 199814, Note_on_c, 0, 39, 60
2, 199819, Note_off_c, 0, 63, 64
2, 200020, Note_off_c, 0, 39, 64
2, 200020, Note_off_c, 0, 55, 64
2, 200025, Note_off_c, 0, 46, 64
2, 200030, Note_on_c, 0, 63, 78
2, 200135, Note_off_c, 0, 61, 64
2, 200337, Note_on_c, 0, 60, 81
2, 200347, Note_on_c, 0, 56, 55
2, 200356, Note_on_c, 0, 44, 51
2, 200447, Note_off_c, 0, 63, 64
2, 200457, Control_c, 0, 64, 0
2, 200735, Control_c, 0, 64, 127
2, 200750, Note_off_c, 0, 56, 64
2, 200899, Note_on_c, 0, 56, 62
2, 200947, Note_off_c, 0, 60, 64
2, 201182, Note_off_c, 0, 56, 64
2, 201383, Note_on_c, 0, 56, 51
2, 201393, Note_on_c, 0, 68, 86
2, 201422, Note_on_c, 0, 60, 45
2, 201427, Note_off_c, 0, 44, 64
2, 201700, Note_off_c, 0, 56, 64
2, 201897, Note_on_c, 0, 56, 43
2, 202214, Note_off_c, 0, 56, 64
2, 202396, Note_on_c, 0, 56, 38
2, 202636, Note_off_c, 0, 56, 64
2, 202867, Note_on_c, 0, 56, 47
2, 203068, Note_off_c, 0, 56, 64
2, 203303, Note_on_c, 0, 56, 34
2, 203342, Note_on_c, 0, 63, 57
2, 203342, Note_on_c, 0, 67, 75
2, 203486, Note_off_c, 0, 68, 64
2, 203543, Note_off_c, 0, 60, 64
2, 203625, Note_off_c, 0, 56, 64
2, 203827, Note_on_c, 0, 56, 29
2, 204081, Note_off_c, 0, 56, 64
2, 204110, Note_off_c, 0, 63, 64
2, 204119, Note_off_c, 0, 67, 64
2, 204364, Note_on_c, 0, 67, 75
2, 204364, Note_on_c, 0, 63, 60
2, 204393, Note_on_c, 0, 56, 29
2, 204887, Note_on_c, 0, 65, 62
2, 204892, Note_on_c, 0, 61, 48
2, 204945, Note_off_c, 0, 67, 64
2, 204945, Note_off_c, 0, 63, 64
2, 205007, Control_c, 0, 64, 0
2, 205473, Note_on_c, 0, 60, 39
2, 205478, Note_on_c, 0, 63, 50
2, 205526, Note_off_c, 0, 65, 64
2, 205569, Note_off_c, 0, 61, 64
2, 205713, Note_off_c, 0, 56, 64
2, 205713, Control_c, 0, 64, 127
2, 205905, Note_off_c, 0, 60, 64
2, 205987, Note_off_c, 0, 63, 64
2, 206774, Control_c, 0, 64, 0
2, 207095, Note_on_c, 0, 74, 30
2, 207479, Control_c, 0, 64, 127
2, 207595, Note_on_c, 0, 75, 57
2, 207662, Note_off_c, 0, 74, 64
2, 207993, Note_on_c, 0, 77, 70
2, 208075, Note_off_c, 0, 75, 64
2, 208171, Control_c, 0, 64, 0
2, 208401, Control_c, 0, 64, 127
2, 208497, Note_on_c, 0, 75, 38
2, 208521, Note_off_c, 0, 77, 64
2, 208651, Control_c, 0, 64, 0
2, 208771, Control_c, 0, 64, 127
2, 208838, Note_off_c, 0, 75, 64
2, 208977, Note_on_c, 0, 75, 33
2, 209020, Note_on_c, 0, 51, 23
2, 209505, Note_on_c, 0, 58, 27
2, 209505, Note_on_c, 0, 67, 30
2, 209548, Note_off_c, 0, 75, 64
2, 209759, Note_off_c, 0, 67, 64
2, 209788, Note_off_c, 0, 58, 64
2, 209947, Note_on_c, 0, 61, 28
2, 209956, Note_on_c, 0, 67, 52
2, 210326, Note_off_c, 0, 61, 64
2, 210335, Note_off_c, 0, 51, 64
2, 210369, Note_on_c, 0, 58, 42
2, 210623, Note_off_c, 0, 58, 64
2, 210811, Note_on_c, 0, 51, 45
2, 211171, Note_on_c, 0, 58, 45
2, 211209, Note_off_c, 0, 67, 64
2, 211262, Note_on_c, 0, 68, 63
2, 211353, Note_on_c, 0, 67, 70
2, 211372, Note_off_c, 0, 68, 64
2, 211415, Note_off_c, 0, 67, 64
2, 211444, Note_on_c, 0, 65, 78
2, 211555, Note_on_c, 0, 67, 78
2, 211569, Note_off_c, 0, 65, 64
2, 211622, Note_on_c, 0, 61, 38
2, 211641, Note_off_c, 0, 58, 64
2, 211675, Note_on_c, 0, 68, 86
2, 211708, Note_off_c, 0, 67, 64
2, 211766, Control_c, 0, 64, 0
2, 211905, Control_c, 0, 64, 127
2, 212006, Note_off_c, 0, 61, 64
2, 212030, Note_on_c, 0, 58, 45
2, 212035, Note_off_c, 0, 51, 64
2, 212092, Note_on_c, 0, 70, 94
2, 212111, Note_off_c, 0, 68, 64
2, 212164, Note_off_c, 0, 58, 64
2, 212366, Note_off_c, 0, 70, 64
2, 212471, Note_on_c, 0, 51, 34
2, 212515, Note_on_c, 0, 70, 87
2, 212798, Control_c, 0, 64, 0
2, 212937, Note_on_c, 0, 56, 44
2, 212995, Control_c, 0, 64, 127
2, 213119, Note_on_c, 0, 72, 84
2, 213187, Note_off_c, 0, 70, 64
2, 213331, Note_on_c, 0, 60, 36
2, 213379, Control_c, 0, 64, 0
2, 213407, Note_on_c, 0, 68, 69
2, 213460, Note_off_c, 0, 72, 64
2, 213599, Note_off_c, 0, 56, 64
2, 213657, Control_c, 0, 64, 127
2, 213719, Note_off_c, 0, 51, 64
2, 213729, Note_off_c, 0, 68, 64
2, 213748, Note_off_c, 0, 60, 64
2, 213806, Note_on_c, 0, 56, 37
2, 213911, Note_off_c, 0, 56, 64
2, 214209, Note_on_c, 0, 74, 71
2, 214214, Note_on_c, 0, 51, 36
2, 214435, Note_on_c, 0, 75, 77
2, 214473, Note_off_c, 0, 74, 64
2, 214627, Note_on_c, 0, 56, 48
2, 214627, Note_on_c, 0, 74, 99
2, 214699, Note_off_c, 0, 75, 64
2, 214819, Note_on_c, 0, 75, 90
2, 214857, Note_off_c, 0, 74, 64
2, 215015, Note_on_c, 0, 74, 96
2, 215044, Note_on_c, 0, 60, 38
2, 215083, Note_off_c, 0, 75, 64
2, 215087, Control_c, 0, 64, 0
2, 215174, Note_off_c, 0, 56, 64
2, 215227, Note_on_c, 0, 75, 90
2, 215241, Control_c, 0, 64, 127
2, 215294, Note_off_c, 0, 74, 64
2, 215452, Note_on_c, 0, 77, 87
2, 215467, Note_off_c, 0, 75, 64
2, 215476, Note_on_c, 0, 56, 43
2, 215486, Control_c, 0, 64, 0
2, 215587, Note_off_c, 0, 51, 64
2, 215591, Control_c, 0, 64, 127
2, 215611, Note_off_c, 0, 60, 64
2, 215668, Note_on_c, 0, 75, 78
2, 215697, Note_off_c, 0, 77, 64
2, 215774, Note_off_c, 0, 75, 64
2, 215822, Note_off_c, 0, 56, 64
2, 215899, Note_on_c, 0, 75, 67
2, 215961, Note_on_c, 0, 51, 32
2, 215990, Control_c, 0, 64, 0
2, 216254, Control_c, 0, 64, 127
2, 216436, Note_on_c, 0, 70, 60
2, 216518, Note_on_c, 0, 55, 27
2, 216551, Note_off_c, 0, 75, 64
2, 216623, Control_c, 0, 64, 0
2, 216729, Control_c, 0, 64, 127
2, 216758, Note_off_c, 0, 70, 64
2, 216863, Note_on_c, 0, 70, 49
2, 216897, Note_off_c, 0, 55, 64
2, 216916, Note_on_c, 0, 58, 29
2, 217118, Note_off_c, 0, 51, 64
2, 217238, Note_off_c, 0, 58, 64
2, 217319, Note_on_c, 0, 55, 25
2, 217651, Note_off_c, 0, 55, 64
2, 217699, Note_on_c, 0, 51, 32
2, 217876, Note_off_c, 0, 70, 64
2, 217886, Note_on_c, 0, 72, 64
2, 218030, Note_on_c, 0, 70, 77
2, 218059, Note_off_c, 0, 72, 64
2, 218083, Note_on_c, 0, 55, 34
2, 218140, Note_off_c, 0, 51, 64
2, 218169, Note_on_c, 0, 69, 75
2, 218174, Note_off_c, 0, 70, 64
2, 218294, Note_on_c, 0, 70, 79
2, 218332, Note_off_c, 0, 69, 64
2, 218428, Note_on_c, 0, 58, 37
2, 218457, Note_on_c, 0, 72, 83
2, 218491, Note_off_c, 0, 70, 64
2, 218495, Note_on_c, 0, 51, 16
2, 218558, Control_c, 0, 64, 0
2, 218659, Note_off_c, 0, 55, 64
2, 218726, Control_c, 0, 64, 127
2, 218894, Note_on_c, 0, 73, 64
2, 218918, Note_on_c, 0, 55, 22
2, 218937, Note_off_c, 0, 72, 64
2, 218951, Note_off_c, 0, 51, 64
2, 219009, Note_off_c, 0, 58, 64
2, 219019, Control_c, 0, 64, 0
2, 219110, Control_c, 0, 64, 127
2, 219350, Note_on_c, 0, 71, 39
2, 219374, Note_off_c, 0, 55, 64
2, 219388, Note_on_c, 0, 51, 27
2, 219503, Note_off_c, 0, 73, 64
2, 219542, Control_c, 0, 64, 0
2, 219772, Control_c, 0, 64, 127
2, 219772, Note_on_c, 0, 56, 38
2, 220199, Note_off_c, 0, 56, 64
2, 220219, Note_on_c, 0, 60, 25
2, 220233, Note_on_c, 0, 72, 42
2, 220286, Note_off_c, 0, 71, 64
2, 220310, Control_c, 0, 64, 0
2, 220478, Control_c, 0, 64, 127
2, 220507, Note_off_c, 0, 72, 64
2, 220564, Note_off_c, 0, 51, 64
2, 220612, Note_off_c, 0, 60, 64
2, 220617, Note_on_c, 0, 56, 33
2, 221068, Note_on_c, 0, 71, 41
2, 221068, Note_on_c, 0, 51, 23
2, 221078, Note_off_c, 0, 56, 64
2, 221188, Control_c, 0, 64, 0
2, 221299, Note_off_c, 0, 71, 64
2, 221299, Note_on_c, 0, 72, 58
2, 221308, Control_c, 0, 64, 127
2, 221476, Note_on_c, 0, 71, 58
2, 221500, Note_off_c, 0, 72, 64
2, 221563, Note_off_c, 0, 51, 64
2, 221663, Note_on_c, 0, 72, 85
2, 221687, Note_off_c, 0, 71, 64
2, 221860, Note_on_c, 0, 71, 73
2, 221894, Note_off_c, 0, 72, 64
2, 222057, Note_on_c, 0, 72, 100
2, 222071, Note_off_c, 0, 71, 64
2, 222235, Note_off_c, 0, 72, 64
2, 222254, Note_on_c, 0, 73, 89
2, 222355, Note_off_c, 0, 73, 64
2, 222451, Note_on_c, 0, 72, 109
2, 222605, Note_off_c, 0, 72, 64
2, 222664, Control_c, 0, 64, 0
2, 222703, Note_on_c, 0, 80, 96
2, 222708, Note_on_c, 0, 70, 88
2, 222732, Note_on_c, 0, 77, 75
2, 222732, Note_on_c, 0, 74, 66
2, 222765, Note_on_c, 0, 50, 41
2, 222785, Note_off_c, 0, 74, 64
2, 222821, Control_c, 0, 64, 127
2, 222852, Note_off_c, 0, 70, 64
2, 222953, Note_off_c, 0, 77, 64
2, 223020, Note_off_c, 0, 80, 64
2, 223106, Note_off_c, 0, 50, 64
2, 223169, Note_on_c, 0, 53, 49
2, 223423, Note_off_c, 0, 53, 64
2, 223634, Note_on_c, 0, 58, 58
2, 223649, Note_on_c, 0, 80, 100
2, 223850, Note_off_c, 0, 58, 64
2, 224057, Note_on_c, 0, 53, 55
2, 224455, Note_off_c, 0, 53, 64
2, 224575, Note_on_c, 0, 50, 44
2, 224714, Control_c, 0, 64, 0
2, 224853, Control_c, 0, 64, 127
2, 224877, Note_on_c, 0, 79, 74
2, 224882, Note_off_c, 0, 80, 64
2, 224945, Note_off_c, 0, 50, 64
2, 225031, Note_off_c, 0, 79, 64
2, 225031, Note_on_c, 0, 80, 81
2, 225137, Note_on_c, 0, 82, 91
2, 225141, Note_off_c, 0, 80, 64
2, 225228, Note_on_c, 0, 80, 73
2, 225271, Note_off_c, 0, 82, 64
2, 225329, Note_on_c, 0, 79, 91
2, 225357, Note_off_c, 0, 80, 64
2, 225367, Note_off_c, 0, 79, 64
2, 225415, Note_on_c, 0, 77, 80
2, 225468, Note_off_c, 0, 77, 64
2, 225487, Note_on_c, 0, 75, 79
2, 225573, Note_on_c, 0, 74, 82
2, 225607, Note_off_c, 0, 75, 64
2, 225607, Note_off_c, 0, 74, 64
2, 225641, Note_on_c, 0, 72, 85
2, 225727, Note_on_c, 0, 70, 88
2, 225765, Note_off_c, 0, 72, 64
2, 225809, Note_on_c, 0, 68, 81
2, 225852, Note_off_c, 0, 70, 64
2, 225881, Note_on_c, 0, 67, 80
2, 225929, Note_off_c, 0, 68, 64
2, 225929, Note_off_c, 0, 67, 64
2, 225967, Note_on_c, 0, 65, 84
2, 226029, Note_off_c, 0, 65, 64
2, 226039, Note_on_c, 0, 63, 72
2, 226121, Note_on_c, 0, 62, 76
2, 226149, Note_off_c, 0, 63, 64
2, 226159, Note_off_c, 0, 62, 64
2, 226183, Note_on_c, 0, 60, 77
2, 226255, Note_on_c, 0, 58, 93
2, 226293, Note_off_c, 0, 60, 64
2, 226337, Note_on_c, 0, 56, 83
2, 226418, Note_off_c, 0, 58, 64
2, 226437, Note_on_c, 0, 55, 96
2, 226476, Note_on_c, 0, 39, 55
2, 226509, Note_off_c, 0, 56, 64
2, 226509, Control_c, 0, 64, 0
2, 226865, Control_c, 0, 64, 127
2, 226884, Note_on_c, 0, 43, 86
2, 226903, Note_off_c, 0, 55, 64
2, 227158, Note_off_c, 0, 43, 64
2, 227340, Note_on_c, 0, 51, 87
2, 227364, Note_on_c, 0, 46, 86
2, 227527, Control_c, 0, 64, 0
2, 227638, Note_off_c, 0, 46, 64
2, 227757, Control_c, 0, 64, 127
2, 227777, Note_on_c, 0, 43, 69
2, 227810, Note_off_c, 0, 39, 64
2, 228228, Note_off_c, 0, 43, 64
2, 228309, Note_on_c, 0, 39, 52
2, 228372, Control_c, 0, 64, 0
2, 228415, Note_on_c, 0, 53, 70
2, 228420, Note_off_c, 0, 51, 64
2, 228554, Control_c, 0, 64, 127
2, 228559, Note_on_c, 0, 51, 73
2, 228578, Note_off_c, 0, 53, 64
2, 228665, Note_on_c, 0, 50, 81
2, 228669, Note_off_c, 0, 51, 64
2, 228761, Note_on_c, 0, 51, 69
2, 228789, Note_off_c, 0, 50, 64
2, 228823, Note_off_c, 0, 51, 64
2, 228852, Note_on_c, 0, 53, 81
2, 228929, Note_off_c, 0, 53, 64
2, 228948, Note_on_c, 0, 55, 88
2, 228972, Control_c, 0, 64, 0
2, 229015, Note_on_c, 0, 56, 86
2, 229063, Note_off_c, 0, 55, 64
2, 229063, Control_c, 0, 64, 127
2, 229106, Note_on_c, 0, 58, 100
2, 229135, Note_off_c, 0, 39, 64
2, 229145, Note_off_c, 0, 58, 64
2, 229145, Note_off_c, 0, 56, 64
2, 229178, Note_on_c, 0, 60, 87
2, 229245, Note_off_c, 0, 60, 64
2, 229260, Note_on_c, 0, 62, 90
2, 229322, Note_on_c, 0, 63, 91
2, 229351, Note_off_c, 0, 63, 64
2, 229356, Note_off_c, 0, 62, 64
2, 229399, Note_on_c, 0, 65, 96
2, 229476, Note_on_c, 0, 67, 99
2, 229483, Note_off_c, 0, 65, 64
2, 229533, Note_on_c, 0, 68, 88
2, 229596, Note_off_c, 0, 67, 64
2, 229601, Note_on_c, 0, 70, 98
2, 229639, Note_off_c, 0, 68, 64
2, 229644, Note_off_c, 0, 70, 64
2, 229677, Note_on_c, 0, 72, 96
2, 229745, Note_off_c, 0, 72, 64
2, 229749, Note_on_c, 0, 74, 104
2, 229807, Note_on_c, 0, 75, 92
2, 229826, Note_off_c, 0, 74, 64
2, 229841, Note_off_c, 0, 75, 64
2, 229884, Note_on_c, 0, 77, 104
2, 229893, Control_c, 0, 64, 0
2, 229951, Note_on_c, 0, 79, 102
2, 229994, Note_off_c, 0, 77, 64
2, 230018, Note_on_c, 0, 80, 95
2, 230061, Control_c, 0, 64, 127
2, 230076, Note_off_c, 0, 79, 64
2, 230076, Note_on_c, 0, 82, 104
2, 230124, Note_off_c, 0, 80, 64
2, 230129, Note_off_c, 0, 82, 64
2, 230162, Note_on_c, 0, 84, 101
2, 230229, Note_on_c, 0, 86, 72
2, 230268, Note_off_c, 0, 84, 64
2, 230306, Control_c, 0, 64, 0
2, 230335, Note_on_c, 0, 87, 104
2, 230345, Note_on_c, 0, 48, 59
2, 230359, Note_off_c, 0, 86, 64
2, 230613, Control_c, 0, 64, 127
2, 230681, Note_off_c, 0, 87, 64
2, 230733, Note_off_c, 0, 48, 64
2, 230762, Note_on_c, 0, 51, 50
2, 231141, Note_off_c, 0, 51, 64
2, 231180, Note_on_c, 0, 57, 71
2, 231261, Note_on_c, 0, 87, 107
2, 231545, Note_off_c, 0, 57, 64
2, 231717, Note_on_c, 0, 51, 59
2, 232044, Note_off_c, 0, 51, 64
2, 232145, Note_on_c, 0, 48, 69
2, 232649, Note_off_c, 0, 87, 64
2, 232663, Note_on_c, 0, 86, 72
2, 232807, Note_on_c, 0, 87, 74
2, 232812, Note_off_c, 0, 86, 64
2, 232917, Note_off_c, 0, 87, 64
2, 232927, Note_on_c, 0, 89, 79
2, 233013, Note_on_c, 0, 87, 75
2, 233047, Note_off_c, 0, 89, 64
2, 233138, Note_on_c, 0, 86, 87
2, 233157, Note_off_c, 0, 87, 64
2, 233229, Note_off_c, 0, 86, 64
2, 233239, Note_on_c, 0, 84, 84
2, 233258, Note_off_c, 0, 48, 64
2, 233340, Note_off_c, 0, 84, 64
2, 233340, Note_on_c, 0, 82, 94
2, 233426, Note_on_c, 0, 81, 81
2, 233460, Note_off_c, 0, 82, 64
2, 233508, Note_on_c, 0, 79, 89
2, 233527, Note_off_c, 0, 81, 64
2, 233541, Note_off_c, 0, 79, 64
2, 233580, Note_on_c, 0, 77, 72
2, 233642, Note_off_c, 0, 77, 64
2, 233647, Note_on_c, 0, 75, 81
2, 233757, Note_on_c, 0, 74, 80
2, 233791, Note_off_c, 0, 74, 64
2, 233801, Note_off_c, 0, 75, 64
2, 233810, Note_on_c, 0, 72, 91
2, 233901, Note_on_c, 0, 70, 80
2, 233911, Note_off_c, 0, 72, 64
2, 233973, Note_on_c, 0, 69, 75
2, 234031, Note_off_c, 0, 70, 64
2, 234036, Note_on_c, 0, 67, 85
2, 234045, Note_off_c, 0, 69, 64
2, 234074, Note_off_c, 0, 67, 64
2, 234113, Note_on_c, 0, 65, 80
2, 234165, Note_off_c, 0, 65, 64
2, 234204, Note_on_c, 0, 63, 74
2, 234324, Note_on_c, 0, 62, 76
2, 234329, Note_off_c, 0, 63, 64
2, 234329, Note_on_c, 0, 46, 55
2, 234362, Control_c, 0, 64, 0
2, 234559, Note_on_c, 0, 65, 85
2, 234583, Note_off_c, 0, 62, 64
2, 234881, Note_on_c, 0, 70, 82
2, 234895, Note_off_c, 0, 65, 64
2, 235068, Note_off_c, 0, 46, 64
2, 235068, Control_c, 0, 64, 127
2, 235437, Note_on_c, 0, 68, 51
2, 235457, Note_on_c, 0, 62, 42
2, 235716, Note_off_c, 0, 70, 64
2, 235970, Note_on_c, 0, 70, 72
2, 236023, Control_c, 0, 64, 0
2, 236239, Control_c, 0, 64, 127
2, 236436, Note_off_c, 0, 62, 64
2, 236445, Note_off_c, 0, 68, 64
2, 236484, Note_on_c, 0, 66, 40
2, 236498, Note_on_c, 0, 63, 31
2, 236637, Control_c, 0, 64, 0
2, 236820, Control_c, 0, 64, 127
2, 236959, Note_on_c, 0, 75, 55
2, 236988, Note_off_c, 0, 70, 64
2, 237021, Control_c, 0, 64, 0
2, 237218, Control_c, 0, 64, 127
2, 237468, Note_on_c, 0, 71, 32
2, 237482, Control_c, 0, 64, 0
2, 237530, Note_off_c, 0, 75, 64
2, 237698, Control_c, 0, 64, 127
2, 237775, Control_c, 0, 64, 0
2, 237943, Note_on_c, 0, 69, 36
2, 237957, Control_c, 0, 64, 127
2, 238025, Note_off_c, 0, 71, 64
2, 238034, Control_c, 0, 64, 0
2, 238202, Control_c, 0, 64, 127
2, 238212, Note_off_c, 0, 66, 64
2, 238380, Note_on_c, 0, 70, 52
2, 238393, Note_on_c, 0, 62, 20
2, 238398, Note_on_c, 0, 65, 28
2, 238423, Note_off_c, 0, 63, 64
2, 238428, Note_off_c, 0, 69, 64
2, 238481, Control_c, 0, 64, 0
2, 238609, Note_off_c, 0, 65, 64
2, 238620, Control_c, 0, 64, 127
2, 238647, Note_off_c, 0, 62, 64
2, 238649, Note_off_c, 0, 70, 64
2, 238845, Note_on_c, 0, 75, 72
2, 239018, Control_c, 0, 64, 0
2, 239215, Control_c, 0, 64, 127
2, 239287, Note_on_c, 0, 71, 57
2, 239301, Note_on_c, 0, 66, 47
2, 239301, Note_on_c, 0, 63, 44
2, 239426, Note_off_c, 0, 75, 64
2, 239508, Control_c, 0, 64, 0
2, 239724, Control_c, 0, 64, 127
2, 239786, Note_on_c, 0, 69, 55
2, 239892, Control_c, 0, 64, 0
2, 239906, Note_off_c, 0, 71, 64
2, 240050, Control_c, 0, 64, 127
2, 240146, Note_off_c, 0, 66, 64
2, 240199, Note_on_c, 0, 70, 58
2, 240218, Note_off_c, 0, 63, 64
2, 240226, Note_on_c, 0, 65, 34
2, 240237, Note_off_c, 0, 69, 64
2, 240241, Note_on_c, 0, 62, 18
2, 240309, Control_c, 0, 64, 0
2, 240442, Note_off_c, 0, 65, 64
2, 240444, Control_c, 0, 64, 127
2, 240449, Note_off_c, 0, 70, 64
2, 240505, Note_off_c, 0, 62, 64
2, 240641, Note_on_c, 0, 75, 76
2, 240737, Control_c, 0, 64, 0
2, 240938, Control_c, 0, 64, 127
2, 241111, Note_on_c, 0, 71, 55
2, 241140, Note_on_c, 0, 66, 33
2, 241149, Note_on_c, 0, 63, 25
2, 241298, Note_off_c, 0, 75, 64
2, 241337, Control_c, 0, 64, 0
2, 241524, Control_c, 0, 64, 127
2, 241620, Note_on_c, 0, 69, 38
2, 241701, Note_off_c, 0, 71, 64
2, 241706, Control_c, 0, 64, 0
2, 241874, Control_c, 0, 64, 127
2, 241893, Note_off_c, 0, 66, 64
2, 242157, Note_on_c, 0, 70, 41
2, 242181, Note_off_c, 0, 69, 64
2, 242205, Note_off_c, 0, 63, 64
2, 242210, Note_on_c, 0, 65, 26
2, 242220, Note_on_c, 0, 62, 16
2, 242441, Note_off_c, 0, 70, 64
2, 242604, Note_on_c, 0, 70, 63
2, 242815, Control_c, 0, 64, 0
2, 242969, Control_c, 0, 64, 127
2, 243065, Note_on_c, 0, 69, 55
2, 243156, Note_off_c, 0, 70, 64
2, 243228, Note_off_c, 0, 65, 64
2, 243305, Control_c, 0, 64, 0
2, 243314, Note_off_c, 0, 62, 64
2, 243429, Control_c, 0, 64, 127
2, 243482, Note_on_c, 0, 70, 73
2, 243597, Note_off_c, 0, 69, 64
2, 243717, Control_c, 0, 64, 0
2, 243842, Control_c, 0, 64, 127
2, 243890, Note_on_c, 0, 69, 73
2, 244010, Note_off_c, 0, 70, 64
2, 244164, Control_c, 0, 64, 0
2, 244274, Control_c, 0, 64, 127
2, 244317, Note_on_c, 0, 70, 74
2, 244447, Note_off_c, 0, 69, 64
2, 244567, Control_c, 0, 64, 0
2, 244716, Control_c, 0, 64, 127
2, 244802, Note_on_c, 0, 71, 49
2, 244879, Note_off_c, 0, 70, 64
2, 245009, Control_c, 0, 64, 0
2, 245181, Control_c, 0, 64, 127
2, 245479, Note_on_c, 0, 70, 36
2, 245532, Note_off_c, 0, 71, 64
2, 245565, Control_c, 0, 64, 0
2, 245700, Control_c, 0, 64, 127
2, 245762, Note_off_c, 0, 70, 64
2, 246223, Note_on_c, 0, 70, 31
2, 246285, Note_on_c, 0, 61, 21
2, 246290, Note_on_c, 0, 42, 17
2, 246391, Note_off_c, 0, 42, 64
2, 246756, Note_on_c, 0, 54, 25
2, 246943, Note_off_c, 0, 54, 64
2, 247193, Note_on_c, 0, 54, 20
2, 247317, Note_off_c, 0, 54, 64
2, 247591, Note_on_c, 0, 54, 16
2, 247769, Note_off_c, 0, 54, 64
2, 247817, Note_off_c, 0, 61, 64
2, 248028, Note_on_c, 0, 54, 17
2, 248071, Note_on_c, 0, 68, 50
2, 248084, Note_on_c, 0, 59, 33
2, 248191, Control_c, 0, 64, 0
2, 248220, Note_off_c, 0, 70, 64
2, 248306, Note_off_c, 0, 54, 64
2, 248316, Control_c, 0, 64, 127
2, 248527, Note_on_c, 0, 54, 16
2, 248642, Note_off_c, 0, 54, 64
2, 248935, Note_on_c, 0, 54, 20
2, 249074, Note_off_c, 0, 54, 64
2, 249236, Note_off_c, 0, 59, 64
2, 249367, Note_on_c, 0, 54, 16
2, 249501, Note_off_c, 0, 54, 64
2, 249818, Note_on_c, 0, 73, 60
2, 249833, Note_on_c, 0, 58, 39
2, 249837, Note_on_c, 0, 66, 41
2, 249847, Note_on_c, 0, 54, 23
2, 249986, Control_c, 0, 64, 0
2, 250082, Note_off_c, 0, 68, 64
2, 250140, Control_c, 0, 64, 127
2, 250159, Note_off_c, 0, 54, 64
2, 250356, Note_on_c, 0, 54, 33
2, 250490, Note_off_c, 0, 54, 64
2, 250783, Note_on_c, 0, 54, 26
2, 250946, Note_off_c, 0, 54, 64
2, 251210, Note_on_c, 0, 54, 34
2, 251335, Note_off_c, 0, 54, 64
2, 251431, Note_off_c, 0, 66, 64
2, 251503, Note_off_c, 0, 58, 64
2, 251642, Note_on_c, 0, 49, 34
2, 251642, Note_on_c, 0, 56, 35
2, 251661, Note_on_c, 0, 65, 45
2, 251868, Note_off_c, 0, 49, 64
2, 251892, Note_on_c, 0, 75, 60
2, 251935, Note_off_c, 0, 73, 64
2, 252122, Note_on_c, 0, 73, 70
2, 252132, Note_on_c, 0, 49, 39
2, 252165, Note_off_c, 0, 75, 64
2, 252247, Control_c, 0, 64, 0
2, 252333, Note_on_c, 0, 75, 78
2, 252338, Control_c, 0, 64, 127
2, 252367, Note_off_c, 0, 49, 64
2, 252549, Note_on_c, 0, 71, 68
2, 252564, Note_off_c, 0, 73, 64
2, 252569, Note_off_c, 0, 75, 64
2, 252569, Note_on_c, 0, 49, 44
2, 252741, Note_off_c, 0, 49, 64
2, 252741, Note_on_c, 0, 73, 73
2, 252751, Note_off_c, 0, 71, 64
2, 252967, Note_on_c, 0, 71, 68
2, 252996, Note_on_c, 0, 49, 47
2, 253001, Note_off_c, 0, 73, 64
2, 253068, Note_off_c, 0, 65, 64
2, 253092, Note_off_c, 0, 56, 64
2, 253173, Note_off_c, 0, 49, 64
2, 253202, Note_off_c, 0, 71, 64
2, 253221, Note_on_c, 0, 73, 68
2, 253591, Note_on_c, 0, 70, 78
2, 253601, Note_on_c, 0, 61, 36
2, 253639, Note_on_c, 0, 42, 28
2, 253826, Note_off_c, 0, 73, 64
2, 253922, Control_c, 0, 64, 0
2, 254066, Note_on_c, 0, 54, 40
2, 254181, Control_c, 0, 64, 127
2, 254220, Note_off_c, 0, 42, 64
2, 254258, Note_off_c, 0, 54, 64
2, 254513, Note_on_c, 0, 54, 32
2, 254666, Note_off_c, 0, 54, 64
2, 254945, Note_on_c, 0, 54, 20
2, 255098, Note_off_c, 0, 54, 64
2, 255170, Note_off_c, 0, 61, 64
2, 255372, Note_on_c, 0, 54, 27
2, 255374, Note_on_c, 0, 68, 64
2, 255393, Note_on_c, 0, 59, 32
2, 255549, Control_c, 0, 64, 0
2, 255597, Note_off_c, 0, 70, 64
2, 255684, Note_off_c, 0, 54, 64
2, 255689, Control_c, 0, 64, 127
2, 255861, Note_on_c, 0, 54, 20
2, 256015, Note_off_c, 0, 54, 64
2, 256289, Note_on_c, 0, 54, 21
2, 256433, Note_off_c, 0, 54, 64
2, 256608, Note_off_c, 0, 59, 64
2, 256745, Note_on_c, 0, 54, 18
2, 256908, Note_off_c, 0, 54, 64
2, 257181, Note_on_c, 0, 73, 53
2, 257220, Note_on_c, 0, 58, 32
2, 257229, Note_on_c, 0, 54, 17
2, 257229, Note_on_c, 0, 66, 34
2, 257316, Control_c, 0, 64, 0
2, 257443, Note_off_c, 0, 68, 64
2, 257489, Note_off_c, 0, 54, 64
2, 257489, Control_c, 0, 64, 127
2, 257690, Note_on_c, 0, 54, 26
2, 257901, Control_c, 0, 64, 0
2, 257978, Control_c, 0, 64, 127
2, 257997, Note_off_c, 0, 54, 64
2, 258132, Note_on_c, 0, 54, 23
2, 258314, Note_off_c, 0, 54, 64
2, 258597, Note_on_c, 0, 54, 35
2, 258703, Note_off_c, 0, 54, 64
2, 258770, Note_off_c, 0, 58, 64
2, 258871, Note_off_c, 0, 66, 64
2, 259039, Note_on_c, 0, 56, 32
2, 259049, Note_on_c, 0, 49, 31
2, 259053, Note_on_c, 0, 65, 45
2, 259241, Control_c, 0, 64, 0
2, 259289, Note_on_c, 0, 75, 58
2, 259332, Control_c, 0, 64, 127
2, 259346, Note_off_c, 0, 73, 64
2, 259356, Note_off_c, 0, 49, 64
2, 259524, Note_on_c, 0, 73, 65
2, 259553, Note_off_c, 0, 75, 64
2, 259562, Note_on_c, 0, 49, 44
2, 259735, Note_off_c, 0, 49, 64
2, 259735, Note_on_c, 0, 75, 72
2, 259826, Note_off_c, 0, 73, 64
2, 259951, Note_on_c, 0, 71, 68
2, 259970, Note_on_c, 0, 49, 30
2, 259975, Note_off_c, 0, 75, 64
2, 260009, Control_c, 0, 64, 0
2, 260085, Control_c, 0, 64, 127
2, 260143, Note_on_c, 0, 73, 73
2, 260186, Note_off_c, 0, 49, 64
2, 260191, Note_off_c, 0, 71, 64
2, 260359, Note_on_c, 0, 71, 78
2, 260378, Note_on_c, 0, 49, 39
2, 260397, Note_off_c, 0, 73, 64
2, 260565, Note_off_c, 0, 49, 64
2, 260565, Note_off_c, 0, 56, 64
2, 260599, Note_on_c, 0, 73, 68
2, 260642, Note_off_c, 0, 71, 64
2, 260916, Note_on_c, 0, 54, 34
2, 260940, Note_on_c, 0, 70, 69
2, 261002, Note_off_c, 0, 65, 64
2, 261017, Note_off_c, 0, 73, 64
2, 261084, Control_c, 0, 64, 0
2, 261281, Control_c, 0, 64, 127
2, 261372, Note_on_c, 0, 61, 35
2, 261458, Note_off_c, 0, 70, 64
2, 261477, Note_on_c, 0, 71, 51
2, 261612, Note_off_c, 0, 71, 64
2, 261612, Note_on_c, 0, 70, 78
2, 261727, Note_off_c, 0, 70, 64
2, 261727, Note_on_c, 0, 68, 72
2, 261818, Note_off_c, 0, 61, 64
2, 261837, Note_on_c, 0, 70, 72
2, 261871, Note_off_c, 0, 68, 64
2, 261871, Note_on_c, 0, 58, 38
2, 261996, Note_on_c, 0, 73, 67
2, 262068, Note_off_c, 0, 70, 64
2, 262188, Control_c, 0, 64, 0
2, 262313, Note_on_c, 0, 61, 36
2, 262356, Control_c, 0, 64, 127
2, 262433, Note_off_c, 0, 58, 64
2, 262509, Note_off_c, 0, 54, 64
2, 262663, Note_off_c, 0, 61, 64
2, 262740, Note_on_c, 0, 53, 44
2, 263153, Note_on_c, 0, 61, 43
2, 263585, Note_off_c, 0, 61, 64
2, 263604, Note_on_c, 0, 71, 61
2, 263661, Note_off_c, 0, 53, 64
2, 263685, Note_on_c, 0, 52, 29
2, 263863, Control_c, 0, 64, 0
2, 263887, Note_off_c, 0, 73, 64
2, 264017, Control_c, 0, 64, 127
2, 264079, Note_on_c, 0, 70, 79
2, 264098, Note_on_c, 0, 61, 32
2, 264137, Note_off_c, 0, 71, 64
2, 264305, Note_off_c, 0, 61, 64
2, 264353, Note_off_c, 0, 70, 64
2, 264453, Note_off_c, 0, 52, 64
2, 264516, Note_on_c, 0, 68, 74
2, 264535, Note_on_c, 0, 51, 32
2, 264972, Note_on_c, 0, 61, 34
2, 265058, Note_on_c, 0, 67, 55
2, 265077, Control_c, 0, 64, 0
2, 265101, Note_off_c, 0, 68, 64
2, 265236, Note_off_c, 0, 51, 64
2, 265245, Control_c, 0, 64, 127
2, 265322, Note_off_c, 0, 61, 64
2, 265337, Note_off_c, 0, 67, 64
2, 265457, Note_on_c, 0, 51, 29
2, 265783, Note_off_c, 0, 51, 64
2, 265893, Note_on_c, 0, 61, 24
2, 266153, Note_on_c, 0, 67, 39
2, 266162, Note_off_c, 0, 61, 64
2, 266306, Note_off_c, 0, 67, 64
2, 266325, Note_on_c, 0, 51, 35
2, 266330, Note_on_c, 0, 70, 59
2, 266551, Control_c, 0, 64, 0
2, 266719, Control_c, 0, 64, 127
2, 266772, Note_on_c, 0, 59, 41
2, 266805, Note_off_c, 0, 70, 64
2, 266849, Note_off_c, 0, 51, 64
2, 266969, Note_on_c, 0, 68, 68
2, 267041, Note_off_c, 0, 59, 64
2, 267194, Note_on_c, 0, 71, 67
2, 267204, Note_on_c, 0, 51, 44
2, 267281, Note_off_c, 0, 68, 64
2, 267564, Control_c, 0, 64, 0
2, 267626, Note_on_c, 0, 55, 41
2, 267737, Control_c, 0, 64, 127
2, 267833, Note_on_c, 0, 70, 74
2, 267876, Note_off_c, 0, 71, 64
2, 267881, Note_off_c, 0, 55, 64
2, 268049, Note_on_c, 0, 73, 75
2, 268077, Note_on_c, 0, 56, 46
2, 268164, Note_off_c, 0, 70, 64
2, 268197, Control_c, 0, 64, 0
2, 268202, Note_off_c, 0, 51, 64
2, 268413, Control_c, 0, 64, 127
2, 268452, Note_on_c, 0, 63, 47
2, 268677, Note_on_c, 0, 71, 73
2, 268788, Note_off_c, 0, 73, 64
2, 268845, Note_off_c, 0, 63, 64
2, 268865, Note_on_c, 0, 59, 41
2, 268951, Note_on_c, 0, 75, 72
2, 269090, Note_off_c, 0, 71, 64
2, 269119, Control_c, 0, 64, 0
2, 269273, Control_c, 0, 64, 127
2, 269340, Note_on_c, 0, 63, 35
2, 269589, Note_off_c, 0, 59, 64
2, 269633, Note_off_c, 0, 63, 64
2, 269810, Note_on_c, 0, 55, 55
2, 269820, Note_off_c, 0, 56, 64
2, 270026, Control_c, 0, 64, 0
2, 270161, Control_c, 0, 64, 127
2, 270204, Note_on_c, 0, 74, 73
2, 270209, Note_on_c, 0, 63, 44
2, 270271, Note_off_c, 0, 75, 64
2, 270415, Note_on_c, 0, 75, 90
2, 270516, Note_off_c, 0, 74, 64
2, 270607, Note_off_c, 0, 63, 64
2, 270621, Note_on_c, 0, 77, 83
2, 270636, Note_on_c, 0, 54, 59
2, 270684, Note_off_c, 0, 75, 64
2, 270727, Note_off_c, 0, 55, 64
2, 270780, Control_c, 0, 64, 0
2, 270842, Note_on_c, 0, 75, 81
2, 270948, Control_c, 0, 64, 127
2, 270962, Note_off_c, 0, 77, 64
2, 271039, Note_on_c, 0, 73, 86
2, 271073, Note_on_c, 0, 63, 48
2, 271111, Note_off_c, 0, 75, 64
2, 271226, Note_on_c, 0, 72, 95
2, 271236, Note_off_c, 0, 63, 64
2, 271255, Note_off_c, 0, 73, 64
2, 271457, Note_on_c, 0, 70, 94
2, 271485, Note_on_c, 0, 53, 46
2, 271543, Note_off_c, 0, 54, 64
2, 271557, Note_off_c, 0, 72, 64
2, 271577, Control_c, 0, 64, 0
2, 271793, Control_c, 0, 64, 127
2, 271922, Note_on_c, 0, 63, 36
2, 272018, Note_on_c, 0, 69, 54
2, 272037, Control_c, 0, 64, 0
2, 272066, Note_off_c, 0, 70, 64
2, 272191, Note_off_c, 0, 53, 64
2, 272191, Control_c, 0, 64, 127
2, 272316, Note_off_c, 0, 69, 64
2, 272340, Note_off_c, 0, 63, 64
2, 272412, Note_on_c, 0, 53, 33
2, 272844, Note_on_c, 0, 63, 47
2, 272940, Note_off_c, 0, 53, 64
2, 273079, Note_on_c, 0, 69, 62
2, 273276, Note_off_c, 0, 63, 64
2, 273276, Note_on_c, 0, 72, 69
2, 273281, Note_on_c, 0, 53, 37
2, 273372, Note_off_c, 0, 69, 64
2, 273497, Control_c, 0, 64, 0
2, 273665, Control_c, 0, 64, 127
2, 273684, Note_on_c, 0, 61, 48
2, 273789, Note_off_c, 0, 53, 64
2, 273914, Note_on_c, 0, 70, 84
2, 274044, Note_off_c, 0, 61, 64
2, 274101, Note_on_c, 0, 73, 79
2, 274106, Note_on_c, 0, 53, 55
2, 274173, Note_off_c, 0, 72, 64
2, 274197, Note_off_c, 0, 70, 64
2, 274356, Control_c, 0, 64, 0
2, 274509, Note_on_c, 0, 57, 73
2, 274543, Control_c, 0, 64, 127
2, 274721, Note_off_c, 0, 57, 64
2, 274745, Note_on_c, 0, 72, 99
2, 274797, Note_off_c, 0, 73, 64
2, 274922, Note_on_c, 0, 58, 71
2, 274937, Note_on_c, 0, 75, 85
2, 274951, Note_off_c, 0, 53, 64
2, 275013, Note_off_c, 0, 72, 64
2, 275052, Control_c, 0, 64, 0
2, 275345, Note_on_c, 0, 65, 63
2, 275541, Control_c, 0, 64, 127
2, 275652, Note_on_c, 0, 73, 85
2, 275743, Note_off_c, 0, 65, 64
2, 275781, Note_off_c, 0, 75, 64
2, 275834, Note_on_c, 0, 61, 45
2, 275921, Note_on_c, 0, 77, 90
2, 276012, Note_off_c, 0, 73, 64
2, 276031, Control_c, 0, 64, 0
2, 276233, Control_c, 0, 64, 127
2, 276305, Note_on_c, 0, 65, 45
2, 276655, Note_off_c, 0, 65, 64
2, 276684, Note_off_c, 0, 61, 64
2, 276708, Note_on_c, 0, 57, 72
2, 276756, Note_off_c, 0, 58, 64
2, 277111, Note_on_c, 0, 76, 91
2, 277140, Note_on_c, 0, 65, 58
2, 277207, Note_off_c, 0, 77, 64
2, 277327, Note_on_c, 0, 77, 98
2, 277404, Note_off_c, 0, 76, 64
2, 277433, Note_off_c, 0, 65, 64
2, 277538, Note_on_c, 0, 79, 96
2, 277548, Note_on_c, 0, 56, 68
2, 277586, Note_off_c, 0, 77, 64
2, 277601, Note_off_c, 0, 57, 64
2, 277644, Control_c, 0, 64, 0
2, 277735, Note_on_c, 0, 77, 106
2, 277797, Control_c, 0, 64, 127
2, 277836, Note_off_c, 0, 79, 64
2, 277917, Note_on_c, 0, 75, 88
2, 277941, Note_on_c, 0, 65, 64
2, 277989, Note_off_c, 0, 77, 64
2, 278047, Note_off_c, 0, 56, 64
2, 278119, Note_on_c, 0, 74, 96
2, 278167, Note_off_c, 0, 75, 64
2, 278201, Note_off_c, 0, 74, 64
2, 278273, Note_off_c, 0, 65, 64
2, 278340, Note_on_c, 0, 72, 98
2, 278359, Note_on_c, 0, 55, 58
2, 278585, Control_c, 0, 64, 0
2, 278753, Control_c, 0, 64, 127
2, 278796, Note_on_c, 0, 67, 49
2, 278815, Note_on_c, 0, 71, 52
2, 278858, Control_c, 0, 64, 0
2, 278868, Note_off_c, 0, 72, 64
2, 279060, Control_c, 0, 64, 127
2, 279161, Note_off_c, 0, 67, 64
2, 279175, Note_off_c, 0, 55, 64
2, 279209, Note_on_c, 0, 65, 46
2, 279439, Note_off_c, 0, 71, 64
2, 279621, Note_on_c, 0, 67, 51
2, 279674, Control_c, 0, 64, 0
2, 279842, Control_c, 0, 64, 127
2, 279861, Note_on_c, 0, 71, 45
2, 279972, Note_off_c, 0, 67, 64
2, 280058, Note_on_c, 0, 74, 58
2, 280058, Note_on_c, 0, 63, 30
2, 280073, Note_off_c, 0, 71, 64
2, 280087, Note_off_c, 0, 65, 64
2, 280149, Control_c, 0, 64, 0
2, 280457, Control_c, 0, 64, 127
2, 280466, Note_on_c, 0, 67, 38
2, 280701, Note_off_c, 0, 74, 64
2, 280701, Note_on_c, 0, 72, 67
2, 280740, Note_off_c, 0, 67, 64
2, 280884, Note_on_c, 0, 75, 75
2, 280893, Note_on_c, 0, 59, 29
2, 280941, Note_off_c, 0, 72, 64
2, 280946, Note_off_c, 0, 63, 64
2, 281119, Control_c, 0, 64, 0
2, 281273, Note_on_c, 0, 67, 48
2, 281316, Control_c, 0, 64, 127
2, 281484, Note_on_c, 0, 74, 88
2, 281546, Note_off_c, 0, 75, 64
2, 281546, Note_off_c, 0, 67, 64
2, 281671, Note_off_c, 0, 59, 64
2, 281676, Note_on_c, 0, 77, 87
2, 281705, Note_on_c, 0, 60, 36
2, 281748, Note_off_c, 0, 74, 64
2, 281762, Control_c, 0, 64, 0
2, 282041, Control_c, 0, 64, 127
2, 282065, Note_on_c, 0, 67, 43
2, 282300, Note_on_c, 0, 75, 81
2, 282353, Note_off_c, 0, 67, 64
2, 282372, Note_off_c, 0, 77, 64
2, 282497, Note_on_c, 0, 63, 36
2, 282549, Note_on_c, 0, 79, 79
2, 282583, Note_off_c, 0, 75, 64
2, 282607, Control_c, 0, 64, 0
2, 282900, Control_c, 0, 64, 127
2, 282991, Note_on_c, 0, 67, 33
2, 283221, Note_off_c, 0, 67, 64
2, 283322, Note_off_c, 0, 63, 64
2, 283394, Note_off_c, 0, 60, 64
2, 283409, Note_on_c, 0, 58, 42
2, 283605, Control_c, 0, 64, 0
2, 283745, Control_c, 0, 64, 127
2, 283797, Note_on_c, 0, 78, 72
2, 283831, Note_off_c, 0, 79, 64
2, 283831, Note_on_c, 0, 67, 38
2, 284009, Note_on_c, 0, 79, 90
2, 284052, Note_off_c, 0, 78, 64
2, 284133, Note_off_c, 0, 67, 64
2, 284220, Note_on_c, 0, 80, 86
2, 284239, Note_off_c, 0, 79, 64
2, 284263, Note_on_c, 0, 62, 24
2, 284421, Note_on_c, 0, 79, 91
2, 284556, Note_off_c, 0, 80, 64
2, 284599, Note_on_c, 0, 77, 90
2, 284623, Note_off_c, 0, 79, 64
2, 284633, Note_on_c, 0, 67, 40
2, 284781, Note_on_c, 0, 75, 85
2, 284791, Note_off_c, 0, 67, 64
2, 284925, Note_off_c, 0, 77, 64
2, 284993, Note_on_c, 0, 74, 94
2, 285002, Note_off_c, 0, 58, 64
2, 285012, Note_on_c, 0, 56, 57
2, 285036, Note_off_c, 0, 62, 64
2, 285113, Note_off_c, 0, 75, 64
2, 285453, Control_c, 0, 64, 0
2, 285463, Note_on_c, 0, 67, 62
2, 285650, Control_c, 0, 64, 127
2, 285741, Note_on_c, 0, 72, 100
2, 285833, Note_off_c, 0, 74, 64
2, 285943, Note_off_c, 0, 67, 64
2, 285972, Note_on_c, 0, 63, 53
2, 286082, Note_on_c, 0, 84, 105
2, 286313, Control_c, 0, 64, 0
2, 286428, Note_off_c, 0, 72, 64
2, 286447, Note_on_c, 0, 67, 66
2, 286452, Control_c, 0, 64, 127
2, 286653, Note_off_c, 0, 56, 64
2, 286865, Note_on_c, 0, 56, 55
2, 286879, Note_off_c, 0, 67, 64
2, 287004, Note_off_c, 0, 63, 64
2, 287047, Control_c, 0, 64, 0
2, 287186, Control_c, 0, 64, 127
2, 287282, Note_on_c, 0, 66, 62
2, 287330, Note_off_c, 0, 84, 64
2, 287335, Note_on_c, 0, 86, 86
2, 287412, Note_on_c, 0, 84, 93
2, 287450, Note_off_c, 0, 86, 64
2, 287484, Note_on_c, 0, 83, 81
2, 287503, Note_off_c, 0, 84, 64
2, 287580, Note_on_c, 0, 84, 98
2, 287618, Note_off_c, 0, 83, 64
2, 287762, Note_on_c, 0, 86, 92
2, 287825, Note_off_c, 0, 84, 64
2, 287863, Control_c, 0, 64, 0
2, 287873, Note_on_c, 0, 63, 48
2, 287983, Note_off_c, 0, 66, 64
2, 288026, Note_on_c, 0, 87, 74
2, 288074, Note_off_c, 0, 86, 64
2, 288276, Control_c, 0, 64, 127
2, 288453, Note_off_c, 0, 63, 64
2, 288468, Note_on_c, 0, 60, 39
2, 288799, Note_off_c, 0, 87, 64
2, 288818, Note_on_c, 0, 78, 50
2, 288842, Note_off_c, 0, 56, 64
2, 288905, Note_off_c, 0, 60, 64
2, 289183, Note_on_c, 0, 79, 51
2, 289212, Note_off_c, 0, 78, 64
2, 289418, Note_on_c, 0, 55, 42
2, 289428, Control_c, 0, 64, 0
2, 289644, Note_on_c, 0, 59, 43
2, 289754, Control_c, 0, 64, 127
2, 289831, Note_off_c, 0, 55, 64
2, 289860, Note_on_c, 0, 62, 55
2, 289980, Note_off_c, 0, 79, 64
2, 290081, Note_off_c, 0, 59, 64
2, 290081, Note_on_c, 0, 67, 63
2, 290114, Note_off_c, 0, 62, 64
2, 290277, Note_on_c, 0, 71, 60
2, 290474, Note_on_c, 0, 74, 73
2, 290513, Note_off_c, 0, 71, 64
2, 290623, Note_off_c, 0, 67, 64
2, 290671, Note_on_c, 0, 79, 80
2, 290690, Note_off_c, 0, 74, 64
2, 290877, Note_on_c, 0, 78, 69
2, 290897, Note_off_c, 0, 79, 64
2, 291089, Control_c, 0, 64, 0
2, 291089, Note_on_c, 0, 55, 57
2, 291281, Note_on_c, 0, 60, 62
2, 291319, Control_c, 0, 64, 127
2, 291444, Note_off_c, 0, 55, 64
2, 291482, Note_on_c, 0, 63, 69
2, 291569, Note_off_c, 0, 60, 64
2, 291612, Note_off_c, 0, 78, 64
2, 291684, Note_on_c, 0, 66, 69
2, 291746, Note_off_c, 0, 63, 64
2, 291833, Note_off_c, 0, 66, 64
2, 291861, Note_on_c, 0, 69, 85
2, 292063, Note_on_c, 0, 72, 94
2, 292125, Note_off_c, 0, 69, 64
2, 292255, Note_on_c, 0, 78, 85
2, 292317, Note_off_c, 0, 72, 64
2, 292471, Note_on_c, 0, 79, 85
2, 292543, Note_off_c, 0, 78, 64
2, 292629, Control_c, 0, 64, 0
2, 292668, Note_on_c, 0, 55, 75
2, 292841, Note_on_c, 0, 59, 66
2, 292946, Note_off_c, 0, 55, 64
2, 292965, Control_c, 0, 64, 127
2, 293023, Note_on_c, 0, 62, 61
2, 293105, Note_off_c, 0, 59, 64
2, 293172, Note_off_c, 0, 79, 64
2, 293239, Note_on_c, 0, 67, 64
2, 293258, Note_off_c, 0, 62, 64
2, 293407, Note_off_c, 0, 67, 64
2, 293417, Note_on_c, 0, 71, 56
2, 293633, Note_off_c, 0, 71, 64
2, 293633, Note_on_c, 0, 74, 63
2, 293786, Note_off_c, 0, 74, 64
2, 293815, Note_on_c, 0, 79, 64
2, 294055, Note_off_c, 0, 79, 64
2, 294055, Note_on_c, 0, 78, 56
2, 294218, Note_on_c, 0, 55, 34
2, 294223, Control_c, 0, 64, 0
2, 294425, Note_on_c, 0, 60, 36
2, 294487, Control_c, 0, 64, 127
2, 294554, Note_off_c, 0, 55, 64
2, 294621, Note_on_c, 0, 63, 42
2, 294708, Note_off_c, 0, 63, 64
2, 294756, Note_off_c, 0, 78, 64
2, 294804, Note_off_c, 0, 60, 64
2, 294833, Note_on_c, 0, 66, 36
2, 295025, Note_on_c, 0, 69, 50
2, 295063, Note_off_c, 0, 66, 64
2, 295212, Note_off_c, 0, 69, 64
2, 295226, Note_on_c, 0, 72, 59
2, 295375, Note_off_c, 0, 72, 64
2, 295423, Note_on_c, 0, 78, 52
2, 295644, Note_on_c, 0, 79, 50
2, 295677, Note_off_c, 0, 78, 64
2, 295793, Control_c, 0, 64, 0
2, 295812, Note_on_c, 0, 55, 38
2, 296018, Note_on_c, 0, 59, 38
2, 296095, Note_off_c, 0, 55, 64
2, 296114, Control_c, 0, 64, 127
2, 296201, Note_on_c, 0, 62, 43
2, 296340, Note_off_c, 0, 79, 64
2, 296369, Note_off_c, 0, 59, 64
2, 296412, Note_off_c, 0, 62, 64
2, 296431, Note_on_c, 0, 67, 46
2, 296527, Note_off_c, 0, 67, 64
2, 296633, Note_on_c, 0, 71, 32
2, 296801, Note_off_c, 0, 71, 64
2, 296829, Note_on_c, 0, 74, 51
2, 296978, Note_off_c, 0, 74, 64
2, 297007, Note_on_c, 0, 78, 53
2, 297233, Note_off_c, 0, 78, 64
2, 297237, Note_on_c, 0, 79, 51
2, 297405, Control_c, 0, 64, 0
2, 297410, Note_on_c, 0, 55, 37
2, 297621, Note_on_c, 0, 59, 42
2, 297660, Note_off_c, 0, 55, 64
2, 297713, Control_c, 0, 64, 127
2, 297813, Note_on_c, 0, 62, 40
2, 297866, Note_off_c, 0, 79, 64
2, 297996, Note_off_c, 0, 59, 64
2, 298039, Note_off_c, 0, 62, 64
2, 298039, Note_on_c, 0, 67, 51
2, 298125, Note_off_c, 0, 67, 64
2, 298217, Note_on_c, 0, 71, 49
2, 298413, Note_on_c, 0, 74, 73
2, 298447, Note_off_c, 0, 71, 64
2, 298625, Note_on_c, 0, 79, 83
2, 298673, Note_off_c, 0, 74, 64
2, 298893, Note_on_c, 0, 80, 64
2, 298975, Note_off_c, 0, 79, 64
2, 299109, Note_on_c, 0, 53, 51
2, 299143, Control_c, 0, 64, 0
2, 299311, Note_on_c, 0, 59, 60
2, 299388, Control_c, 0, 64, 127
2, 299402, Note_off_c, 0, 53, 64
2, 299503, Note_on_c, 0, 62, 69
2, 299537, Note_off_c, 0, 59, 64
2, 299657, Note_off_c, 0, 80, 64
2, 299700, Note_off_c, 0, 62, 64
2, 299709, Note_on_c, 0, 65, 76
2, 299849, Note_off_c, 0, 65, 64
2, 299897, Note_on_c, 0, 71, 83
2, 300108, Note_on_c, 0, 74, 94
2, 300165, Note_off_c, 0, 71, 64
2, 300300, Note_on_c, 0, 80, 95
2, 300367, Note_off_c, 0, 74, 64
2, 300521, Note_on_c, 0, 81, 95
2, 300607, Note_off_c, 0, 80, 64
2, 300708, Control_c, 0, 64, 0
2, 300722, Note_on_c, 0, 51, 84
2, 300938, Note_on_c, 0, 57, 88
2, 301106, Control_c, 0, 64, 127
2, 301116, Note_off_c, 0, 51, 64
2, 301135, Note_on_c, 0, 60, 88
2, 301202, Note_off_c, 0, 57, 64
2, 301289, Note_off_c, 0, 81, 64
2, 301346, Note_on_c, 0, 63, 90
2, 301365, Note_off_c, 0, 60, 64
2, 301466, Note_off_c, 0, 63, 64
2, 301509, Note_on_c, 0, 72, 101
2, 301730, Note_on_c, 0, 77, 101
2, 301793, Note_off_c, 0, 72, 64
2, 301965, Note_on_c, 0, 81, 103
2, 301985, Note_off_c, 0, 77, 64
2, 302129, Note_off_c, 0, 81, 64
2, 302249, Note_on_c, 0, 82, 105
2, 302258, Note_on_c, 0, 50, 83
2, 302397, Control_c, 0, 64, 0
2, 302580, Note_on_c, 0, 83, 90
2, 302666, Note_off_c, 0, 82, 64
2, 302873, Note_on_c, 0, 84, 87
2, 302911, Note_off_c, 0, 83, 64
2, 303103, Note_on_c, 0, 82, 97
2, 303165, Note_off_c, 0, 84, 64
2, 303257, Control_c, 0, 64, 127
2, 303300, Note_on_c, 0, 80, 83
2, 303377, Note_off_c, 0, 82, 64
2, 303458, Control_c, 0, 64, 0
2, 303497, Note_on_c, 0, 79, 91
2, 303540, Note_off_c, 0, 80, 64
2, 303660, Control_c, 0, 64, 127
2, 303684, Note_on_c, 0, 77, 89
2, 303703, Note_off_c, 0, 79, 64
2, 303866, Note_on_c, 0, 75, 77
2, 303929, Note_off_c, 0, 77, 64
2, 303953, Note_off_c, 0, 50, 64
2, 304068, Note_on_c, 0, 74, 85
2, 304130, Note_off_c, 0, 75, 64
2, 304250, Note_off_c, 0, 74, 64
2, 304250, Note_on_c, 0, 72, 87
2, 304289, Control_c, 0, 64, 0
2, 304418, Note_on_c, 0, 70, 84
2, 304442, Note_off_c, 0, 72, 64
2, 304519, Control_c, 0, 64, 127
2, 304605, Note_on_c, 0, 69, 76
2, 304649, Note_off_c, 0, 70, 64
2, 304797, Note_on_c, 0, 68, 73
2, 304841, Control_c, 0, 64, 0
2, 304845, Note_off_c, 0, 69, 64
2, 304985, Note_on_c, 0, 67, 73
2, 305028, Note_off_c, 0, 68, 64
2, 305028, Control_c, 0, 64, 127
2, 305177, Note_on_c, 0, 65, 74
2, 305186, Note_off_c, 0, 67, 64
2, 305359, Note_on_c, 0, 63, 63
2, 305393, Note_off_c, 0, 65, 64
2, 305561, Note_on_c, 0, 46, 75
2, 305561, Note_on_c, 0, 53, 58
2, 305565, Note_on_c, 0, 56, 56
2, 305575, Note_on_c, 0, 62, 57
2, 305618, Note_off_c, 0, 63, 64
2, 305671, Control_c, 0, 64, 0
2, 305772, Note_on_c, 0, 60, 75
2, 305786, Note_off_c, 0, 62, 64
2, 305978, Note_on_c, 0, 58, 80
2, 305988, Note_off_c, 0, 60, 64
2, 306146, Control_c, 0, 64, 127
2, 306175, Note_on_c, 0, 60, 69
2, 306189, Note_off_c, 0, 58, 64
2, 306257, Control_c, 0, 64, 0
2, 306372, Note_on_c, 0, 62, 65
2, 306396, Note_off_c, 0, 60, 64
2, 306410, Control_c, 0, 64, 127
2, 306482, Control_c, 0, 64, 0
2, 306569, Note_on_c, 0, 63, 56
2, 306588, Note_off_c, 0, 62, 64
2, 306607, Control_c, 0, 64, 127
2, 306698, Control_c, 0, 64, 0
2, 306761, Control_c, 0, 64, 127
2, 306770, Note_on_c, 0, 65, 59
2, 306785, Note_off_c, 0, 63, 64
2, 306885, Control_c, 0, 64, 0
2, 306986, Note_on_c, 0, 67, 58
2, 307005, Control_c, 0, 64, 127
2, 307044, Note_off_c, 0, 65, 64
2, 307101, Control_c, 0, 64, 0
2, 307197, Note_on_c, 0, 68, 55
2, 307202, Note_off_c, 0, 67, 64
2, 307269, Control_c, 0, 64, 127
2, 307332, Control_c, 0, 64, 0
2, 307389, Control_c, 0, 64, 127
2, 307433, Note_on_c, 0, 67, 54
2, 307447, Note_off_c, 0, 68, 64
2, 307649, Note_off_c, 0, 67, 64
2, 307658, Note_on_c, 0, 65, 53
2, 307889, Note_off_c, 0, 65, 64
2, 307913, Note_on_c, 0, 64, 45
2, 308162, Note_off_c, 0, 64, 64
2, 308177, Control_c, 0, 64, 0
2, 308177, Note_on_c, 0, 65, 42
2, 308393, Control_c, 0, 64, 127
2, 308441, Note_off_c, 0, 65, 64
2, 308465, Note_on_c, 0, 67, 35
2, 308498, Control_c, 0, 64, 0
2, 308589, Control_c, 0, 64, 127
2, 308767, Note_off_c, 0, 67, 64
2, 308777, Note_on_c, 0, 68, 29
2, 309175, Control_c, 0, 64, 0
2, 309199, Note_on_c, 0, 69, 33
2, 309204, Note_off_c, 0, 68, 64
2, 309482, Control_c, 0, 64, 127
2, 309602, Note_off_c, 0, 53, 64
2, 309674, Note_off_c, 0, 69, 64
2, 309900, Note_off_c, 0, 56, 64
2, 310020, Note_on_c, 0, 70, 46
2, 310044, Note_off_c, 0, 46, 64
2, 310049, Note_on_c, 0, 51, 24
2, 310543, Control_c, 0, 64, 0
2, 310610, Note_on_c, 0, 55, 34
2, 310850, Control_c, 0, 64, 127
2, 311095, Note_on_c, 0, 58, 37
2, 311105, Note_off_c, 0, 55, 64
2, 311282, Note_on_c, 0, 72, 65
2, 311316, Note_off_c, 0, 70, 64
2, 311373, Note_off_c, 0, 51, 64
2, 311527, Note_off_c, 0, 72, 64
2, 311527, Note_on_c, 0, 74, 60
2, 311546, Note_on_c, 0, 55, 28
2, 311719, Note_off_c, 0, 74, 64
2, 311743, Note_on_c, 0, 75, 65
2, 311801, Note_off_c, 0, 75, 64
2, 311940, Note_off_c, 0, 55, 64
2, 311945, Note_on_c, 0, 51, 32
2, 311973, Control_c, 0, 64, 0
2, 311973, Note_on_c, 0, 75, 58
2, 312261, Note_off_c, 0, 58, 64
2, 312405, Note_on_c, 0, 67, 48
2, 312415, Note_on_c, 0, 55, 23
2, 312468, Note_off_c, 0, 75, 64
2, 312602, Control_c, 0, 64, 127
2, 312698, Note_off_c, 0, 67, 64
2, 312909, Note_on_c, 0, 67, 35
2, 312929, Note_on_c, 0, 58, 27
2, 312938, Note_off_c, 0, 55, 64
2, 313106, Note_off_c, 0, 67, 64
2, 313341, Note_off_c, 0, 58, 64
2, 313380, Note_on_c, 0, 67, 46
2, 313399, Note_off_c, 0, 51, 64
2, 313418, Note_on_c, 0, 55, 37
2, 313505, Note_off_c, 0, 55, 64
2, 313514, Note_off_c, 0, 67, 64
2, 313855, Note_on_c, 0, 67, 68
2, 313865, Note_on_c, 0, 63, 36
2, 313874, Note_on_c, 0, 46, 48
2, 314364, Note_on_c, 0, 51, 33
2, 314906, Note_on_c, 0, 55, 22
2, 314925, Note_off_c, 0, 51, 64
2, 314945, Note_off_c, 0, 67, 64
2, 314993, Note_on_c, 0, 68, 50
2, 315084, Note_off_c, 0, 68, 64
2, 315146, Note_on_c, 0, 67, 50
2, 315199, Note_off_c, 0, 67, 64
2, 315252, Note_on_c, 0, 65, 43
2, 315324, Note_off_c, 0, 65, 64
2, 315367, Control_c, 0, 64, 0
2, 315367, Note_on_c, 0, 51, 39
2, 315367, Note_on_c, 0, 67, 32
2, 315377, Note_off_c, 0, 55, 64
2, 315583, Note_off_c, 0, 46, 64
2, 315583, Control_c, 0, 64, 127
2, 315617, Note_off_c, 0, 67, 64
2, 315636, Note_on_c, 0, 68, 42
2, 315775, Note_off_c, 0, 51, 64
2, 315804, Note_off_c, 0, 63, 64
2, 315900, Note_on_c, 0, 46, 45
2, 315905, Control_c, 0, 64, 0
2, 315909, Note_on_c, 0, 62, 26
2, 315924, Note_on_c, 0, 65, 45
2, 315953, Note_off_c, 0, 68, 64
2, 316375, Note_on_c, 0, 50, 38
2, 316409, Note_off_c, 0, 62, 64
2, 316409, Control_c, 0, 64, 127
2, 316471, Note_off_c, 0, 65, 64
2, 316879, Note_on_c, 0, 53, 24
2, 316884, Note_off_c, 0, 50, 64
2, 317066, Note_on_c, 0, 70, 49
2, 317268, Note_off_c, 0, 70, 64
2, 317268, Note_on_c, 0, 69, 64
2, 317407, Note_off_c, 0, 53, 64
2, 317431, Note_off_c, 0, 69, 64
2, 317436, Note_on_c, 0, 68, 68
2, 317465, Note_on_c, 0, 50, 36
2, 317484, Note_off_c, 0, 46, 64
2, 317580, Note_off_c, 0, 68, 64
2, 317604, Note_on_c, 0, 67, 66
2, 317676, Note_off_c, 0, 67, 64
2, 317767, Note_on_c, 0, 65, 72
2, 317810, Note_off_c, 0, 65, 64
2, 317887, Note_off_c, 0, 50, 64
2, 317983, Note_on_c, 0, 63, 89
2, 318002, Note_on_c, 0, 51, 50
2, 318017, Note_on_c, 0, 55, 47
2, 318223, Control_c, 0, 64, 0
2, 318501, Control_c, 0, 64, 127
2, 318506, Note_on_c, 0, 58, 45
2, 318535, Note_off_c, 0, 55, 64
2, 318938, Note_off_c, 0, 58, 64
2, 318957, Note_on_c, 0, 55, 44
2, 319413, Note_off_c, 0, 55, 64
2, 319418, Note_on_c, 0, 58, 59
2, 319836, Note_on_c, 0, 46, 78
2, 319850, Note_on_c, 0, 65, 88
2, 319869, Note_off_c, 0, 58, 64
2, 319874, Note_on_c, 0, 62, 59
2, 319937, Note_off_c, 0, 51, 64
2, 319937, Note_off_c, 0, 63, 64
2, 319975, Control_c, 0, 64, 0
2, 320306, Note_on_c, 0, 58, 60
2, 320388, Note_off_c, 0, 62, 64
2, 320575, Control_c, 0, 64, 127
2, 320753, Note_on_c, 0, 62, 49
2, 320762, Note_off_c, 0, 58, 64
2, 321228, Note_off_c, 0, 62, 64
2, 321257, Note_on_c, 0, 58, 55
2, 321357, Note_off_c, 0, 58, 64
2, 321410, Note_off_c, 0, 65, 64
2, 321684, Note_off_c, 0, 46, 64
2, 321775, Note_on_c, 0, 67, 79
2, 321798, Note_on_c, 0, 63, 35
2, 321799, Note_on_c, 0, 39, 46
2, 321895, Control_c, 0, 64, 0
2, 322049, Control_c, 0, 64, 127
2, 322145, Note_off_c, 0, 67, 64
2, 322206, Note_off_c, 0, 63, 64
2, 322216, Note_on_c, 0, 68, 31
2, 322278, Note_off_c, 0, 68, 64
2, 322289, Note_on_c, 0, 67, 56
2, 322347, Note_off_c, 0, 67, 64
2, 322356, Note_on_c, 0, 65, 65
2, 322437, Note_off_c, 0, 65, 64
2, 322442, Note_on_c, 0, 67, 75
2, 322481, Control_c, 0, 64, 0
2, 322634, Control_c, 0, 64, 127
2, 322677, Note_on_c, 0, 68, 77
2, 322682, Control_c, 0, 64, 0
2, 322711, Note_off_c, 0, 67, 64
2, 322836, Control_c, 0, 64, 127
2, 322879, Control_c, 0, 64, 0
2, 322893, Note_on_c, 0, 70, 80
2, 322898, Note_off_c, 0, 68, 64
2, 323109, Note_on_c, 0, 72, 71
2, 323119, Note_off_c, 0, 70, 64
2, 323316, Note_off_c, 0, 72, 64
2, 323335, Note_on_c, 0, 74, 56
2, 323565, Note_off_c, 0, 74, 64
2, 323589, Note_on_c, 0, 75, 40
2, 323945, Note_on_c, 0, 70, 44
2, 323978, Note_off_c, 0, 75, 64
2, 324199, Note_off_c, 0, 39, 64
2, 324468, Note_off_c, 0, 70, 64
2, 324525, Control_c, 0, 64, 127
2, 324617, Control_c, 0, 64, 0
2, 324909, Control_c, 0, 64, 127
2, 325025, Note_on_c, 0, 75, 24
2, 325255, Note_off_c, 0, 75, 64
2, 325289, Note_on_c, 0, 79, 34
2, 325442, Note_off_c, 0, 79, 64
2, 325519, Note_on_c, 0, 74, 27
2, 325706, Control_c, 0, 64, 0
2, 325706, Note_on_c, 0, 77, 50
2, 325721, Note_off_c, 0, 74, 64
2, 325797, Control_c, 0, 64, 127
2, 325917, Note_on_c, 0, 72, 52
2, 325941, Note_off_c, 0, 77, 64
2, 325970, Control_c, 0, 64, 0
2, 325999, Control_c, 0, 64, 127
2, 326105, Note_off_c, 0, 72, 64
2, 326109, Note_on_c, 0, 75, 50
2, 326316, Note_on_c, 0, 70, 67
2, 326335, Note_off_c, 0, 75, 64
2, 326546, Note_on_c, 0, 74, 58
2, 326556, Note_off_c, 0, 70, 64
2, 326709, Note_off_c, 0, 74, 64
2, 326733, Note_on_c, 0, 38, 42
2, 326738, Note_on_c, 0, 68, 50
2, 326781, Control_c, 0, 64, 0
2, 326892, Control_c, 0, 64, 127
2, 326969, Note_on_c, 0, 72, 43
2, 326978, Note_on_c, 0, 50, 36
2, 326988, Note_off_c, 0, 68, 64
2, 327036, Note_off_c, 0, 38, 64
2, 327060, Note_off_c, 0, 72, 64
2, 327103, Note_off_c, 0, 50, 64
2, 327161, Note_on_c, 0, 67, 59
2, 327161, Note_on_c, 0, 39, 62
2, 327353, Note_on_c, 0, 70, 77
2, 327362, Note_off_c, 0, 67, 64
2, 327362, Note_on_c, 0, 51, 59
2, 327434, Note_off_c, 0, 39, 64
2, 327521, Note_off_c, 0, 51, 64
2, 327559, Note_off_c, 0, 70, 64
2, 327564, Note_on_c, 0, 41, 78
2, 327564, Note_on_c, 0, 65, 75
2, 327660, Control_c, 0, 64, 0
2, 327746, Note_on_c, 0, 68, 73
2, 327770, Note_on_c, 0, 53, 72
2, 327780, Control_c, 0, 64, 127
2, 327785, Note_off_c, 0, 41, 64
2, 327818, Note_off_c, 0, 65, 64
2, 327948, Note_off_c, 0, 53, 64
2, 327953, Note_on_c, 0, 63, 74
2, 327967, Note_on_c, 0, 43, 70
2, 328063, Note_off_c, 0, 68, 64
2, 328073, Control_c, 0, 64, 0
2, 328154, Note_on_c, 0, 55, 62
2, 328164, Note_on_c, 0, 67, 84
2, 328197, Control_c, 0, 64, 127
2, 328284, Note_off_c, 0, 43, 64
2, 328322, Note_off_c, 0, 55, 64
2, 328361, Note_on_c, 0, 44, 62
2, 328370, Note_off_c, 0, 63, 64
2, 328380, Note_on_c, 0, 60, 78
2, 328418, Note_off_c, 0, 67, 64
2, 328457, Control_c, 0, 64, 0
2, 328591, Note_on_c, 0, 72, 87
2, 328591, Note_on_c, 0, 56, 49
2, 328644, Control_c, 0, 64, 127
2, 328663, Note_off_c, 0, 56, 64
2, 328716, Note_off_c, 0, 60, 64
2, 328778, Note_off_c, 0, 44, 64
2, 328797, Note_on_c, 0, 65, 87
2, 328797, Note_on_c, 0, 41, 68
2, 328831, Note_off_c, 0, 72, 64
2, 328956, Note_off_c, 0, 41, 64
2, 329004, Note_on_c, 0, 68, 85
2, 329004, Note_on_c, 0, 53, 65
2, 329052, Note_off_c, 0, 53, 64
2, 329095, Note_off_c, 0, 65, 64
2, 329229, Note_on_c, 0, 63, 48
2, 329229, Note_on_c, 0, 57, 75
2, 329234, Note_on_c, 0, 67, 79
2, 329239, Control_c, 0, 64, 0
2, 329311, Note_off_c, 0, 68, 64
2, 329450, Note_on_c, 0, 58, 75
2, 329565, Control_c, 0, 64, 127
2, 329570, Note_off_c, 0, 57, 64
2, 329700, Note_on_c, 0, 60, 55
2, 329705, Note_off_c, 0, 58, 64
2, 329748, Control_c, 0, 64, 0
2, 329887, Control_c, 0, 64, 127
2, 329901, Note_on_c, 0, 58, 55
2, 329949, Control_c, 0, 64, 0
2, 329959, Note_off_c, 0, 60, 64
2, 330012, Control_c, 0, 64, 127
2, 330137, Note_on_c, 0, 57, 43
2, 330141, Note_off_c, 0, 58, 64
2, 330309, Note_off_c, 0, 57, 64
2, 330338, Note_on_c, 0, 58, 58
2, 330501, Control_c, 0, 64, 0
2, 330559, Note_off_c, 0, 58, 64
2, 330569, Note_on_c, 0, 55, 48
2, 330785, Note_off_c, 0, 55, 64
2, 330809, Note_on_c, 0, 51, 38
2, 330823, Control_c, 0, 64, 127
2, 330977, Note_off_c, 0, 63, 64
2, 331077, Note_off_c, 0, 51, 64
2, 331116, Control_c, 0, 64, 0
2, 331121, Note_off_c, 0, 67, 64
2, 331140, Note_on_c, 0, 46, 50
2, 331141, Note_on_c, 0, 62, 31
2, 331145, Note_on_c, 0, 65, 43
2, 331284, Control_c, 0, 64, 127
2, 331356, Note_off_c, 0, 65, 64
2, 331519, Note_on_c, 0, 63, 41
2, 331587, Note_off_c, 0, 62, 64
2, 331596, Note_off_c, 0, 63, 64
2, 331769, Note_on_c, 0, 62, 50
2, 331807, Control_c, 0, 64, 0
2, 331903, Note_off_c, 0, 62, 64
2, 331917, Control_c, 0, 64, 127
2, 331994, Note_on_c, 0, 63, 55
2, 332047, Note_off_c, 0, 46, 64
2, 332119, Note_off_c, 0, 63, 64
2, 332220, Control_c, 0, 64, 0
2, 332220, Note_on_c, 0, 65, 50
2, 332349, Note_off_c, 0, 65, 64
2, 332359, Control_c, 0, 64, 127
2, 332450, Control_c, 0, 64, 0
2, 332455, Note_on_c, 0, 67, 48
2, 332532, Control_c, 0, 64, 127
2, 332551, Note_off_c, 0, 67, 64
2, 332652, Control_c, 0, 64, 0
2, 332724, Note_on_c, 0, 68, 38
2, 332868, Control_c, 0, 64, 127
2, 332887, Note_off_c, 0, 68, 64
2, 333045, Note_on_c, 0, 69, 30
2, 333372, Note_off_c, 0, 69, 64
2, 333405, Note_on_c, 0, 70, 51
2, 333420, Note_on_c, 0, 51, 29
2, 333972, Control_c, 0, 64, 0
2, 334025, Note_on_c, 0, 55, 35
2, 334236, Control_c, 0, 64, 127
2, 334471, Note_off_c, 0, 55, 64
2, 334490, Note_on_c, 0, 58, 38
2, 334711, Note_on_c, 0, 74, 52
2, 334769, Note_off_c, 0, 70, 64
2, 334769, Note_off_c, 0, 74, 64
2, 334817, Note_on_c, 0, 72, 57
2, 334893, Note_off_c, 0, 72, 64
2, 334932, Note_off_c, 0, 51, 64
2, 334941, Note_on_c, 0, 75, 57
2, 334951, Note_on_c, 0, 55, 34
2, 335042, Note_off_c, 0, 75, 64
2, 335061, Note_on_c, 0, 74, 54
2, 335124, Note_off_c, 0, 74, 64
2, 335167, Note_on_c, 0, 77, 77
2, 335220, Note_off_c, 0, 77, 64
2, 335282, Note_on_c, 0, 75, 74
2, 335335, Note_off_c, 0, 75, 64
2, 335561, Note_off_c, 0, 55, 64
2, 335561, Note_on_c, 0, 75, 63
2, 335575, Note_on_c, 0, 51, 36
2, 335805, Note_off_c, 0, 58, 64
2, 335849, Control_c, 0, 64, 0
2, 336108, Note_on_c, 0, 67, 52
2, 336132, Note_off_c, 0, 75, 64
2, 336141, Note_on_c, 0, 55, 35
2, 336247, Control_c, 0, 64, 127
2, 336353, Note_off_c, 0, 67, 64
2, 336521, Note_on_c, 0, 67, 71
2, 336545, Note_off_c, 0, 55, 64
2, 336573, Note_on_c, 0, 58, 42
2, 336669, Note_off_c, 0, 67, 64
2, 336929, Note_off_c, 0, 58, 64
2, 336967, Note_on_c, 0, 67, 73
2, 337029, Note_on_c, 0, 55, 27
2, 337053, Note_off_c, 0, 51, 64
2, 337097, Note_off_c, 0, 67, 64
2, 337101, Note_off_c, 0, 55, 64
2, 337496, Note_on_c, 0, 63, 41
2, 337499, Note_on_c, 0, 67, 72
2, 337509, Note_on_c, 0, 46, 41
2, 337721, Control_c, 0, 64, 0
2, 337889, Note_on_c, 0, 51, 40
2, 337908, Control_c, 0, 64, 127
2, 337979, Note_off_c, 0, 67, 64
2, 338013, Note_on_c, 0, 68, 65
2, 338114, Note_off_c, 0, 68, 64
2, 338133, Note_on_c, 0, 67, 54
2, 338244, Note_off_c, 0, 67, 64
2, 338249, Note_on_c, 0, 65, 74
2, 338364, Note_on_c, 0, 67, 62
2, 338407, Note_off_c, 0, 65, 64
2, 338412, Note_off_c, 0, 51, 64
2, 338474, Control_c, 0, 64, 0
2, 338474, Note_on_c, 0, 55, 20
2, 338565, Note_on_c, 0, 70, 81
2, 338613, Note_off_c, 0, 67, 64
2, 338969, Control_c, 0, 64, 127
2, 338978, Note_off_c, 0, 55, 64
2, 339021, Note_on_c, 0, 51, 32
2, 339089, Note_off_c, 0, 46, 64
2, 339266, Note_off_c, 0, 51, 64
2, 339416, Note_off_c, 0, 63, 64
2, 339559, Note_on_c, 0, 62, 27
2, 339583, Control_c, 0, 64, 0
2, 339588, Note_on_c, 0, 46, 40
2, 339780, Control_c, 0, 64, 127
2, 339833, Note_on_c, 0, 69, 41
2, 339837, Note_off_c, 0, 70, 64
2, 339909, Note_off_c, 0, 69, 64
2, 339981, Control_c, 0, 64, 0
2, 340049, Note_on_c, 0, 68, 55
2, 340073, Note_on_c, 0, 50, 38
2, 340135, Control_c, 0, 64, 127
2, 340159, Note_off_c, 0, 68, 64
2, 340284, Note_on_c, 0, 65, 53
2, 340351, Note_off_c, 0, 65, 64
2, 340481, Note_off_c, 0, 50, 64
2, 340485, Control_c, 0, 64, 0
2, 340524, Note_on_c, 0, 70, 50
2, 340567, Note_on_c, 0, 53, 28
2, 340687, Control_c, 0, 64, 127
2, 340725, Note_off_c, 0, 70, 64
2, 340749, Note_off_c, 0, 62, 64
2, 340764, Note_on_c, 0, 68, 48
2, 340845, Note_off_c, 0, 68, 64
2, 341028, Note_off_c, 0, 53, 64
2, 341071, Control_c, 0, 64, 0
2, 341081, Note_on_c, 0, 50, 21
2, 341095, Note_on_c, 0, 67, 30
2, 341162, Control_c, 0, 64, 127
2, 341191, Note_off_c, 0, 67, 64
2, 341258, Note_off_c, 0, 50, 64
2, 341282, Note_off_c, 0, 46, 64
2, 341393, Note_on_c, 0, 65, 51
2, 341455, Note_off_c, 0, 65, 64
2, 341757, Note_on_c, 0, 63, 70
2, 341781, Note_on_c, 0, 39, 44
2, 341781, Note_on_c, 0, 51, 35
2, 342194, Control_c, 0, 64, 0
2, 342252, Note_on_c, 0, 58, 55
2, 342439, Control_c, 0, 64, 127
2, 342727, Note_on_c, 0, 55, 46
2, 342737, Note_off_c, 0, 58, 64
2, 343053, Note_off_c, 0, 51, 64
2, 343106, Note_off_c, 0, 55, 64
2, 343241, Note_on_c, 0, 58, 44
2, 343337, Note_off_c, 0, 63, 64
2, 343370, Note_off_c, 0, 58, 64
2, 343447, Note_on_c, 0, 64, 72
2, 343557, Note_off_c, 0, 39, 64
2, 343682, Note_on_c, 0, 65, 80
2, 343701, Note_on_c, 0, 46, 78
2, 343706, Note_on_c, 0, 34, 71
2, 343793, Note_off_c, 0, 64, 64
2, 343807, Control_c, 0, 64, 0
2, 344143, Note_on_c, 0, 62, 48
2, 344239, Control_c, 0, 64, 127
2, 344498, Note_off_c, 0, 46, 64
2, 344589, Note_on_c, 0, 58, 58
2, 344599, Note_off_c, 0, 62, 64
2, 345050, Note_off_c, 0, 58, 64
2, 345093, Note_on_c, 0, 62, 50
2, 345137, Note_off_c, 0, 34, 64
2, 345199, Note_off_c, 0, 62, 64
2, 345218, Note_off_c, 0, 65, 64
2, 345333, Note_on_c, 0, 66, 76
2, 345381, Note_off_c, 0, 66, 64
2, 345645, Note_on_c, 0, 63, 48
2, 345650, Note_on_c, 0, 67, 77
2, 345655, Note_on_c, 0, 51, 41
2, 345665, Note_on_c, 0, 39, 38
2, 345756, Control_c, 0, 64, 0
2, 345957, Control_c, 0, 64, 127
2, 345972, Note_off_c, 0, 67, 64
2, 346001, Note_on_c, 0, 68, 61
2, 346068, Note_on_c, 0, 67, 54
2, 346073, Note_off_c, 0, 68, 64
2, 346140, Note_off_c, 0, 67, 64
2, 346159, Note_on_c, 0, 66, 72
2, 346236, Note_off_c, 0, 66, 64
2, 346236, Control_c, 0, 64, 0
2, 346245, Note_on_c, 0, 67, 71
2, 346447, Note_off_c, 0, 63, 64
2, 346452, Control_c, 0, 64, 127
2, 346457, Note_on_c, 0, 68, 72
2, 346466, Note_off_c, 0, 67, 64
2, 346673, Note_off_c, 0, 68, 64
2, 346682, Note_on_c, 0, 69, 70
2, 346725, Note_off_c, 0, 51, 64
2, 346754, Control_c, 0, 64, 0
2, 346884, Note_on_c, 0, 70, 73
2, 346898, Note_off_c, 0, 69, 64
2, 347028, Note_off_c, 0, 70, 64
2, 347033, Control_c, 0, 64, 127
2, 347047, Note_on_c, 0, 71, 64
2, 347138, Control_c, 0, 64, 0
2, 347143, Note_off_c, 0, 71, 64
2, 347191, Note_on_c, 0, 72, 78
2, 347282, Note_off_c, 0, 72, 64
2, 347311, Note_on_c, 0, 73, 62
2, 347417, Note_off_c, 0, 73, 64
2, 347460, Note_on_c, 0, 74, 53
2, 347489, Note_off_c, 0, 39, 64
2, 347561, Note_off_c, 0, 74, 64
2, 347589, Note_on_c, 0, 75, 45
2, 347825, Note_off_c, 0, 75, 64
2, 347849, Note_on_c, 0, 70, 46
2, 348295, Control_c, 0, 64, 127
2, 348319, Note_off_c, 0, 70, 64
2, 348756, Control_c, 0, 64, 0
2, 349197, Note_on_c, 0, 75, 27
2, 349375, Note_off_c, 0, 75, 64
2, 349461, Control_c, 0, 64, 127
2, 349495, Note_on_c, 0, 74, 28
2, 349567, Note_off_c, 0, 74, 64
2, 349697, Note_on_c, 0, 73, 45
2, 349783, Note_off_c, 0, 73, 64
2, 349937, Note_on_c, 0, 72, 64
2, 350076, Note_off_c, 0, 72, 64
2, 350172, Note_on_c, 0, 63, 51
2, 350196, Note_on_c, 0, 71, 40
2, 350244, Control_c, 0, 64, 0
2, 350335, Note_off_c, 0, 63, 64
2, 350421, Note_on_c, 0, 62, 54
2, 350513, Note_off_c, 0, 62, 64
2, 350628, Note_on_c, 0, 61, 58
2, 350695, Note_off_c, 0, 61, 64
2, 350858, Note_on_c, 0, 60, 49
2, 350959, Note_off_c, 0, 60, 64
2, 350993, Note_off_c, 0, 71, 64
2, 351151, Note_on_c, 0, 75, 49
2, 351170, Note_on_c, 0, 59, 39
2, 351185, Note_on_c, 0, 55, 34
2, 351338, Note_off_c, 0, 75, 64
2, 351405, Note_on_c, 0, 74, 71
2, 351482, Note_off_c, 0, 74, 64
2, 351607, Note_off_c, 0, 55, 64
2, 351607, Note_on_c, 0, 73, 76
2, 351669, Note_off_c, 0, 59, 64
2, 351746, Note_off_c, 0, 73, 64
2, 351837, Note_on_c, 0, 72, 85
2, 351986, Note_off_c, 0, 72, 64
2, 352068, Note_on_c, 0, 63, 64
2, 352082, Note_on_c, 0, 71, 65
2, 352241, Note_off_c, 0, 63, 64
2, 352289, Note_on_c, 0, 62, 68
2, 352404, Note_off_c, 0, 62, 64
2, 352481, Note_on_c, 0, 61, 78
2, 352577, Note_off_c, 0, 71, 64
2, 352596, Note_off_c, 0, 61, 64
2, 352692, Note_on_c, 0, 60, 78
2, 352841, Note_off_c, 0, 60, 64
2, 352951, Note_on_c, 0, 55, 47
2, 352955, Note_on_c, 0, 75, 80
2, 352956, Note_on_c, 0, 59, 47
2, 353035, Note_off_c, 0, 75, 64
2, 353157, Note_on_c, 0, 74, 88
2, 353167, Note_off_c, 0, 55, 64
2, 353277, Note_off_c, 0, 74, 64
2, 353278, Note_off_c, 0, 59, 64
2, 353373, Note_on_c, 0, 73, 87
2, 353508, Note_off_c, 0, 73, 64
2, 353613, Note_on_c, 0, 72, 89
2, 353916, Note_on_c, 0, 63, 52
2, 353930, Note_on_c, 0, 55, 34
2, 353997, Note_on_c, 0, 71, 75
2, 354031, Note_off_c, 0, 72, 64
2, 354626, Control_c, 0, 64, 127
2, 354909, Note_off_c, 0, 71, 64
2, 354914, Note_on_c, 0, 72, 66
2, 355087, Note_on_c, 0, 71, 58
2, 355111, Note_off_c, 0, 72, 64
2, 355212, Note_off_c, 0, 71, 64
2, 355212, Note_on_c, 0, 70, 80
2, 355332, Note_on_c, 0, 71, 52
2, 355351, Note_off_c, 0, 70, 64
2, 355500, Control_c, 0, 64, 0
2, 355557, Note_off_c, 0, 71, 64
2, 355562, Note_on_c, 0, 74, 59
2, 356085, Control_c, 0, 64, 127
2, 356311, Note_off_c, 0, 74, 64
2, 356330, Note_off_c, 0, 55, 64
2, 356349, Note_on_c, 0, 72, 36
2, 356474, Note_off_c, 0, 72, 64
2, 356580, Note_on_c, 0, 72, 56
2, 356604, Note_on_c, 0, 56, 26
2, 356652, Control_c, 0, 64, 0
2, 356853, Note_off_c, 0, 63, 64
2, 356868, Control_c, 0, 64, 127
2, 356873, Note_off_c, 0, 72, 64
2, 356892, Note_off_c, 0, 56, 64
2, 358020, Control_c, 0, 64, 0
2, 358773, Note_on_c, 0, 65, 16
2, 358927, Control_c, 0, 64, 127
2, 358980, Note_off_c, 0, 65, 64
2, 359090, Note_on_c, 0, 67, 42
2, 359253, Note_off_c, 0, 67, 64
2, 359349, Note_on_c, 0, 68, 60
2, 359484, Note_off_c, 0, 68, 64
2, 359633, Note_on_c, 0, 69, 69
2, 359767, Note_off_c, 0, 69, 64
2, 360017, Note_on_c, 0, 70, 62
2, 360127, Control_c, 0, 64, 0
2, 360617, Control_c, 0, 64, 127
2, 360938, Note_off_c, 0, 70, 64
2, 361034, Note_on_c, 0, 51, 30
2, 361044, Note_on_c, 0, 43, 24
2, 361255, Note_on_c, 0, 71, 37
2, 361327, Note_off_c, 0, 71, 64
2, 361442, Note_on_c, 0, 72, 68
2, 361500, Note_off_c, 0, 72, 64
2, 361610, Note_on_c, 0, 73, 71
2, 361711, Note_off_c, 0, 73, 64
2, 361730, Note_off_c, 0, 51, 64
2, 361773, Note_on_c, 0, 74, 75
2, 361802, Note_off_c, 0, 43, 64
2, 361860, Note_off_c, 0, 74, 64
2, 361961, Note_on_c, 0, 75, 72
2, 362133, Note_on_c, 0, 46, 52
2, 362162, Note_on_c, 0, 55, 35
2, 362225, Note_on_c, 0, 63, 68
2, 362239, Note_off_c, 0, 75, 64
2, 362397, Control_c, 0, 64, 0
2, 362949, Control_c, 0, 64, 127
2, 363161, Note_off_c, 0, 55, 64
2, 363209, Note_on_c, 0, 56, 35
2, 363343, Note_off_c, 0, 63, 64
2, 363353, Note_on_c, 0, 65, 63
2, 363463, Note_on_c, 0, 63, 48
2, 363468, Note_off_c, 0, 65, 64
2, 363597, Note_on_c, 0, 62, 57
2, 363617, Note_off_c, 0, 63, 64
2, 363693, Note_on_c, 0, 63, 58
2, 363717, Note_off_c, 0, 62, 64
2, 363895, Note_off_c, 0, 63, 64
2, 363905, Note_on_c, 0, 67, 48
2, 363929, Note_on_c, 0, 62, 33
2, 363933, Control_c, 0, 64, 0
2, 364241, Note_on_c, 0, 65, 49
2, 364274, Note_off_c, 0, 67, 64
2, 364413, Control_c, 0, 64, 127
2, 364673, Note_on_c, 0, 51, 30
2, 364677, Note_on_c, 0, 63, 38
2, 364730, Note_off_c, 0, 62, 64
2, 364745, Note_off_c, 0, 56, 64
2, 364773, Note_off_c, 0, 65, 64
2, 364783, Note_off_c, 0, 46, 64
2, 364841, Control_c, 0, 64, 0
2, 365133, Control_c, 0, 64, 127
2, 365249, Note_on_c, 0, 55, 25
2, 365383, Note_off_c, 0, 51, 64
2, 365676, Note_off_c, 0, 55, 64
2, 365681, Note_on_c, 0, 58, 41
2, 365753, Note_off_c, 0, 63, 64
2, 366021, Note_off_c, 0, 58, 64
2, 366093, Note_on_c, 0, 55, 48
2, 366549, Note_on_c, 0, 72, 72
2, 366559, Note_on_c, 0, 51, 39
2, 366626, Note_off_c, 0, 55, 64
2, 366703, Control_c, 0, 64, 0
2, 366977, Control_c, 0, 64, 127
2, 367025, Note_on_c, 0, 56, 40
2, 367466, Note_on_c, 0, 60, 38
2, 367476, Note_off_c, 0, 56, 64
2, 367543, Note_off_c, 0, 72, 64
2, 367567, Note_on_c, 0, 74, 61
2, 367658, Note_on_c, 0, 72, 70
2, 367668, Note_off_c, 0, 74, 64
2, 367769, Note_on_c, 0, 71, 63
2, 367783, Note_off_c, 0, 72, 64
2, 367860, Note_on_c, 0, 72, 88
2, 367917, Note_off_c, 0, 71, 64
2, 368028, Note_on_c, 0, 56, 36
2, 368033, Note_on_c, 0, 75, 72
2, 368037, Control_c, 0, 64, 0
2, 368047, Note_off_c, 0, 72, 64
2, 368066, Note_off_c, 0, 60, 64
2, 368215, Note_off_c, 0, 51, 64
2, 368220, Control_c, 0, 64, 127
2, 368273, Note_on_c, 0, 72, 92
2, 368311, Note_off_c, 0, 75, 64
2, 368498, Note_on_c, 0, 51, 37
2, 368503, Note_on_c, 0, 70, 76
2, 368513, Control_c, 0, 64, 0
2, 368522, Note_off_c, 0, 72, 64
2, 368546, Note_off_c, 0, 56, 64
2, 368705, Note_on_c, 0, 79, 85
2, 368729, Note_off_c, 0, 70, 64
2, 368820, Control_c, 0, 64, 127
2, 368925, Note_on_c, 0, 77, 93
2, 368959, Note_on_c, 0, 55, 38
2, 369045, Note_off_c, 0, 79, 64
2, 369117, Note_on_c, 0, 75, 82
2, 369204, Note_off_c, 0, 77, 64
2, 369329, Note_on_c, 0, 74, 89
2, 369372, Note_on_c, 0, 58, 43
2, 369377, Control_c, 0, 64, 0
2, 369391, Note_off_c, 0, 75, 64
2, 369439, Note_off_c, 0, 55, 64
2, 369540, Note_on_c, 0, 75, 81
2, 369588, Control_c, 0, 64, 127
2, 369607, Note_off_c, 0, 74, 64
2, 369698, Control_c, 0, 64, 0
2, 369756, Note_on_c, 0, 77, 73
2, 369765, Note_off_c, 0, 75, 64
2, 369799, Note_on_c, 0, 55, 41
2, 369847, Note_off_c, 0, 51, 64
2, 369914, Control_c, 0, 64, 127
2, 369991, Note_on_c, 0, 75, 70
2, 370020, Note_off_c, 0, 77, 64
2, 370269, Note_on_c, 0, 51, 35
2, 370279, Note_off_c, 0, 58, 64
2, 370289, Note_on_c, 0, 74, 68
2, 370313, Control_c, 0, 64, 0
2, 370332, Note_off_c, 0, 55, 64
2, 370346, Note_off_c, 0, 75, 64
2, 370649, Control_c, 0, 64, 127
2, 370725, Note_on_c, 0, 56, 33
2, 370730, Note_on_c, 0, 72, 48
2, 370778, Note_off_c, 0, 74, 64
2, 370865, Control_c, 0, 64, 0
2, 371081, Control_c, 0, 64, 127
2, 371196, Note_on_c, 0, 60, 39
2, 371215, Note_off_c, 0, 56, 64
2, 371268, Note_off_c, 0, 72, 64
2, 371306, Note_on_c, 0, 74, 50
2, 371373, Note_off_c, 0, 74, 64
2, 371388, Note_on_c, 0, 72, 59
2, 371445, Note_off_c, 0, 72, 64
2, 371498, Note_on_c, 0, 71, 38
2, 371565, Note_on_c, 0, 72, 48
2, 371599, Note_off_c, 0, 71, 64
2, 371661, Control_c, 0, 64, 0
2, 371714, Note_off_c, 0, 72, 64
2, 371714, Note_off_c, 0, 60, 64
2, 371724, Note_on_c, 0, 75, 41
2, 371729, Note_on_c, 0, 56, 35
2, 371901, Note_off_c, 0, 51, 64
2, 371911, Control_c, 0, 64, 127
2, 371959, Note_off_c, 0, 75, 64
2, 371978, Note_on_c, 0, 72, 48
2, 372026, Note_off_c, 0, 56, 64
2, 372156, Note_off_c, 0, 72, 64
2, 372209, Note_on_c, 0, 70, 51
2, 372228, Note_on_c, 0, 51, 32
2, 372236, Note_on_c, 0, 58, 20
2, 372236, Note_on_c, 0, 55, 17
2, 372261, Control_c, 0, 64, 0
2, 372439, Note_on_c, 0, 79, 80
2, 372449, Control_c, 0, 64, 127
2, 372463, Note_off_c, 0, 70, 64
2, 372540, Control_c, 0, 64, 0
2, 372665, Note_on_c, 0, 77, 84
2, 372761, Note_off_c, 0, 79, 64
2, 372785, Control_c, 0, 64, 127
2, 372876, Note_on_c, 0, 75, 66
2, 372914, Note_off_c, 0, 77, 64
2, 373076, Note_off_c, 0, 55, 64
2, 373076, Note_off_c, 0, 58, 64
2, 373087, Note_on_c, 0, 74, 62
2, 373097, Note_off_c, 0, 75, 64
2, 373116, Note_off_c, 0, 51, 64
2, 373217, Control_c, 0, 64, 0
2, 373298, Note_on_c, 0, 75, 60
2, 373322, Note_off_c, 0, 74, 64
2, 373519, Note_on_c, 0, 77, 50
2, 373533, Note_off_c, 0, 75, 64
2, 373764, Note_on_c, 0, 75, 27
2, 373769, Note_off_c, 0, 77, 64
2, 373831, Control_c, 0, 64, 127
2, 373980, Note_off_c, 0, 75, 64
2, 373985, Note_on_c, 0, 44, 40
2, 373985, Note_on_c, 0, 53, 42
2, 373994, Note_on_c, 0, 48, 41
2, 374201, Note_on_c, 0, 75, 71
2, 374244, Control_c, 0, 64, 0
2, 374431, Note_on_c, 0, 74, 74
2, 374469, Note_off_c, 0, 53, 64
2, 374474, Note_off_c, 0, 75, 64
2, 374503, Control_c, 0, 64, 127
2, 374618, Note_off_c, 0, 48, 64
2, 374652, Note_on_c, 0, 72, 75
2, 374672, Note_off_c, 0, 44, 64
2, 374690, Note_off_c, 0, 74, 64
2, 374829, Control_c, 0, 64, 0
2, 374868, Note_on_c, 0, 71, 55
2, 374897, Note_off_c, 0, 72, 64
2, 375060, Control_c, 0, 64, 127
2, 375089, Control_c, 0, 64, 0
2, 375089, Note_on_c, 0, 72, 68
2, 375127, Note_off_c, 0, 71, 64
2, 375257, Control_c, 0, 64, 127
2, 375319, Control_c, 0, 64, 0
2, 375324, Note_off_c, 0, 72, 64
2, 375329, Note_on_c, 0, 74, 48
2, 375549, Control_c, 0, 64, 127
2, 375559, Note_off_c, 0, 74, 64
2, 375626, Note_on_c, 0, 72, 18
2, 375789, Note_off_c, 0, 72, 64
2, 375847, Note_on_c, 0, 46, 39
2, 375847, Note_on_c, 0, 55, 35
2, 375953, Control_c, 0, 64, 0
2, 375972, Note_on_c, 0, 72, 67
2, 376025, Note_off_c, 0, 72, 64
2, 376034, Note_on_c, 0, 70, 73
2, 376106, Note_off_c, 0, 70, 64
2, 376130, Note_on_c, 0, 69, 40
2, 376178, Note_on_c, 0, 70, 78
2, 376212, Note_off_c, 0, 69, 64
2, 376322, Note_off_c, 0, 70, 64
2, 376332, Note_on_c, 0, 75, 52
2, 376399, Note_off_c, 0, 55, 64
2, 376413, Note_off_c, 0, 46, 64
2, 376505, Control_c, 0, 64, 127
2, 376557, Note_off_c, 0, 75, 64
2, 376557, Note_on_c, 0, 70, 55
2, 376639, Note_off_c, 0, 70, 64
2, 376740, Note_on_c, 0, 51, 39
2, 376764, Note_on_c, 0, 46, 42
2, 376812, Control_c, 0, 64, 0
2, 376845, Note_on_c, 0, 68, 59
2, 376903, Note_off_c, 0, 68, 64
2, 376917, Note_on_c, 0, 67, 57
2, 376961, Note_off_c, 0, 67, 64
2, 376975, Note_on_c, 0, 65, 47
2, 377047, Note_on_c, 0, 67, 62
2, 377105, Note_off_c, 0, 65, 64
2, 377133, Note_off_c, 0, 67, 64
2, 377162, Note_on_c, 0, 70, 61
2, 377253, Note_off_c, 0, 46, 64
2, 377263, Note_off_c, 0, 51, 64
2, 377369, Note_off_c, 0, 70, 64
2, 377393, Control_c, 0, 64, 127
2, 377407, Note_on_c, 0, 67, 28
2, 377570, Note_off_c, 0, 67, 64
2, 377613, Note_on_c, 0, 53, 39
2, 377623, Note_on_c, 0, 46, 38
2, 377709, Note_on_c, 0, 70, 58
2, 377748, Control_c, 0, 64, 0
2, 377767, Note_on_c, 0, 68, 53
2, 377772, Note_off_c, 0, 70, 64
2, 377829, Note_off_c, 0, 68, 64
2, 377853, Note_on_c, 0, 67, 45
2, 377925, Note_on_c, 0, 68, 46
2, 377940, Note_off_c, 0, 67, 64
2, 378079, Note_off_c, 0, 68, 64
2, 378117, Note_on_c, 0, 72, 29
2, 378223, Note_off_c, 0, 46, 64
2, 378261, Note_off_c, 0, 53, 64
2, 378271, Control_c, 0, 64, 127
2, 378305, Note_off_c, 0, 72, 64
2, 378343, Note_on_c, 0, 68, 36
2, 378439, Note_off_c, 0, 68, 64
2, 378569, Note_on_c, 0, 56, 38
2, 378597, Note_on_c, 0, 46, 38
2, 378607, Control_c, 0, 64, 0
2, 378679, Note_on_c, 0, 63, 60
2, 378741, Note_off_c, 0, 63, 64
2, 378756, Note_on_c, 0, 62, 53
2, 378813, Note_off_c, 0, 62, 64
2, 378847, Note_on_c, 0, 60, 51
2, 378943, Note_on_c, 0, 62, 28
2, 378967, Note_off_c, 0, 60, 64
2, 379101, Note_off_c, 0, 62, 64
2, 379125, Note_on_c, 0, 65, 35
2, 379183, Note_off_c, 0, 46, 64
2, 379193, Control_c, 0, 64, 127
2, 379250, Note_off_c, 0, 56, 64
2, 379284, Control_c, 0, 64, 0
2, 379370, Note_on_c, 0, 62, 36
2, 379389, Note_off_c, 0, 65, 64
2, 379673, Note_on_c, 0, 63, 25
2, 379692, Note_on_c, 0, 51, 30
2, 379716, Note_off_c, 0, 62, 64
2, 380023, Control_c, 0, 64, 127
2, 380205, Note_off_c, 0, 51, 64
2, 380229, Note_on_c, 0, 55, 28
2, 380297, Note_off_c, 0, 63, 64
2, 380618, Note_off_c, 0, 55, 64
2, 380637, Note_on_c, 0, 58, 41
2, 380844, Note_on_c, 0, 75, 59
2, 380949, Note_off_c, 0, 75, 64
2, 381021, Note_off_c, 0, 58, 64
2, 381074, Note_on_c, 0, 74, 72
2, 381113, Note_on_c, 0, 55, 36
2, 381146, Note_off_c, 0, 74, 64
2, 381266, Note_on_c, 0, 73, 81
2, 381338, Note_off_c, 0, 55, 64
2, 381386, Note_off_c, 0, 73, 64
2, 381540, Note_on_c, 0, 71, 53
2, 381549, Note_on_c, 0, 51, 39
2, 381679, Control_c, 0, 64, 0
2, 381991, Control_c, 0, 64, 127
2, 382001, Note_on_c, 0, 72, 49
2, 382005, Note_on_c, 0, 56, 32
2, 382034, Note_off_c, 0, 71, 64
2, 382049, Control_c, 0, 64, 0
2, 382106, Note_off_c, 0, 51, 64
2, 382313, Control_c, 0, 64, 127
2, 382418, Note_off_c, 0, 56, 64
2, 382447, Note_on_c, 0, 60, 29
2, 382673, Note_on_c, 0, 75, 54
2, 382701, Note_off_c, 0, 72, 64
2, 382740, Note_off_c, 0, 75, 64
2, 382793, Note_on_c, 0, 74, 52
2, 382850, Control_c, 0, 64, 0
2, 382855, Note_off_c, 0, 74, 64
2, 382874, Note_on_c, 0, 56, 36
2, 382879, Note_off_c, 0, 60, 64
2, 382889, Note_on_c, 0, 77, 69
2, 382941, Control_c, 0, 64, 127
2, 382961, Note_off_c, 0, 77, 64
2, 382994, Note_on_c, 0, 75, 56
2, 383066, Note_off_c, 0, 75, 64
2, 383090, Note_on_c, 0, 74, 59
2, 383138, Note_off_c, 0, 74, 64
2, 383181, Note_on_c, 0, 72, 55
2, 383263, Control_c, 0, 64, 0
2, 383287, Note_off_c, 0, 72, 64
2, 383292, Note_on_c, 0, 51, 35
2, 383297, Note_on_c, 0, 70, 70
2, 383306, Note_off_c, 0, 56, 64
2, 383493, Control_c, 0, 64, 127
2, 383498, Note_on_c, 0, 79, 84
2, 383503, Note_off_c, 0, 70, 64
2, 383681, Control_c, 0, 64, 0
2, 383705, Note_on_c, 0, 77, 92
2, 383724, Control_c, 0, 64, 127
2, 383724, Note_on_c, 0, 55, 39
2, 383767, Note_off_c, 0, 79, 64
2, 383815, Note_off_c, 0, 51, 64
2, 383863, Control_c, 0, 64, 0
2, 383897, Note_on_c, 0, 75, 79
2, 383925, Note_off_c, 0, 77, 64
2, 384017, Control_c, 0, 64, 127
2, 384122, Note_on_c, 0, 74, 78
2, 384141, Note_on_c, 0, 58, 52
2, 384146, Note_off_c, 0, 55, 64
2, 384151, Note_off_c, 0, 75, 64
2, 384156, Control_c, 0, 64, 0
2, 384319, Note_on_c, 0, 51, 16
2, 384348, Note_on_c, 0, 75, 85
2, 384357, Control_c, 0, 64, 127
2, 384396, Note_off_c, 0, 74, 64
2, 384415, Note_off_c, 0, 51, 64
2, 384549, Note_on_c, 0, 77, 93
2, 384588, Note_off_c, 0, 58, 64
2, 384588, Note_on_c, 0, 55, 43
2, 384602, Note_off_c, 0, 75, 64
2, 384679, Control_c, 0, 64, 0
2, 384756, Note_on_c, 0, 75, 90
2, 384813, Control_c, 0, 64, 127
2, 384818, Note_off_c, 0, 77, 64
2, 385029, Control_c, 0, 64, 0
2, 385039, Note_on_c, 0, 74, 97
2, 385039, Note_on_c, 0, 51, 46
2, 385073, Note_off_c, 0, 55, 64
2, 385125, Note_off_c, 0, 75, 64
2, 385260, Control_c, 0, 64, 127
2, 385399, Note_on_c, 0, 72, 91
2, 385433, Note_off_c, 0, 74, 64
2, 385495, Control_c, 0, 64, 0
2, 385557, Note_on_c, 0, 56, 49
2, 385658, Note_off_c, 0, 72, 64
2, 385668, Note_on_c, 0, 84, 89
2, 385951, Control_c, 0, 64, 127
2, 386052, Note_off_c, 0, 56, 64
2, 386138, Note_on_c, 0, 60, 35
2, 386268, Note_off_c, 0, 84, 64
2, 386282, Note_on_c, 0, 82, 63
2, 386421, Note_on_c, 0, 80, 64
2, 386436, Note_off_c, 0, 82, 64
2, 386541, Note_on_c, 0, 79, 76
2, 386546, Note_off_c, 0, 80, 64
2, 386647, Note_off_c, 0, 79, 64
2, 386661, Note_off_c, 0, 51, 64
2, 386676, Note_on_c, 0, 77, 76
2, 386690, Note_on_c, 0, 56, 30
2, 386695, Note_off_c, 0, 60, 64
2, 386791, Note_on_c, 0, 75, 67
2, 386801, Note_off_c, 0, 77, 64
2, 386921, Note_on_c, 0, 74, 74
2, 386935, Note_off_c, 0, 75, 64
2, 386988, Note_off_c, 0, 74, 64
2, 387021, Note_off_c, 0, 56, 64
2, 387021, Note_on_c, 0, 72, 73
2, 387146, Note_on_c, 0, 58, 41
2, 387151, Control_c, 0, 64, 0
2, 387151, Note_on_c, 0, 51, 34
2, 387175, Note_off_c, 0, 72, 64
2, 387185, Note_on_c, 0, 70, 74
2, 387213, Note_on_c, 0, 55, 30
2, 387367, Control_c, 0, 64, 127
2, 387381, Note_off_c, 0, 70, 64
2, 387396, Note_on_c, 0, 79, 78
2, 387458, Control_c, 0, 64, 0
2, 387549, Control_c, 0, 64, 127
2, 387631, Note_on_c, 0, 77, 75
2, 387669, Note_off_c, 0, 79, 64
2, 387703, Control_c, 0, 64, 0
2, 387842, Note_on_c, 0, 75, 55
2, 387857, Control_c, 0, 64, 127
2, 387861, Note_off_c, 0, 77, 64
2, 387948, Note_off_c, 0, 58, 64
2, 388015, Note_off_c, 0, 51, 64
2, 388029, Control_c, 0, 64, 0
2, 388058, Note_on_c, 0, 74, 52
2, 388063, Note_off_c, 0, 75, 64
2, 388077, Note_off_c, 0, 55, 64
2, 388212, Control_c, 0, 64, 127
2, 388260, Control_c, 0, 64, 0
2, 388279, Note_on_c, 0, 75, 54
2, 388308, Note_off_c, 0, 74, 64
2, 388519, Note_on_c, 0, 77, 56
2, 388524, Note_off_c, 0, 75, 64
2, 388701, Control_c, 0, 64, 127
2, 388754, Note_off_c, 0, 77, 64
2, 388769, Note_on_c, 0, 75, 36
2, 388917, Note_off_c, 0, 75, 64
2, 388965, Note_on_c, 0, 58, 53
2, 388965, Note_on_c, 0, 62, 47
2, 388970, Note_on_c, 0, 56, 48
2, 388985, Note_on_c, 0, 53, 39
2, 389057, Control_c, 0, 64, 0
2, 389196, Note_on_c, 0, 80, 80
2, 389335, Control_c, 0, 64, 127
2, 389426, Note_on_c, 0, 79, 90
2, 389508, Note_off_c, 0, 56, 64
2, 389513, Note_off_c, 0, 58, 64
2, 389541, Note_off_c, 0, 80, 64
2, 389556, Note_off_c, 0, 62, 64
2, 389628, Note_on_c, 0, 77, 96
2, 389647, Note_off_c, 0, 53, 64
2, 389729, Note_off_c, 0, 79, 64
2, 389839, Note_on_c, 0, 76, 97
2, 389887, Note_off_c, 0, 77, 64
2, 389901, Control_c, 0, 64, 0
2, 390060, Note_on_c, 0, 77, 98
2, 390117, Control_c, 0, 64, 127
2, 390165, Note_off_c, 0, 76, 64
2, 390266, Note_on_c, 0, 79, 101
2, 390324, Note_off_c, 0, 77, 64
2, 390477, Note_on_c, 0, 77, 107
2, 390588, Note_off_c, 0, 79, 64
2, 390818, Note_on_c, 0, 82, 111
2, 390929, Note_off_c, 0, 77, 64
2, 390977, Control_c, 0, 64, 0
2, 391274, Note_on_c, 0, 55, 71
2, 391514, Control_c, 0, 64, 127
2, 391730, Note_off_c, 0, 55, 64
2, 391749, Note_on_c, 0, 58, 84
2, 391879, Note_on_c, 0, 80, 77
2, 391937, Note_off_c, 0, 82, 64
2, 391970, Note_on_c, 0, 79, 92
2, 392018, Note_off_c, 0, 80, 64
2, 392047, Note_off_c, 0, 79, 64
2, 392066, Note_on_c, 0, 77, 87
2, 392100, Note_off_c, 0, 58, 64
2, 392143, Note_on_c, 0, 75, 83
2, 392167, Note_off_c, 0, 77, 64
2, 392229, Note_on_c, 0, 74, 86
2, 392258, Note_on_c, 0, 63, 64
2, 392268, Note_off_c, 0, 74, 64
2, 392277, Note_off_c, 0, 75, 64
2, 392292, Note_on_c, 0, 72, 92
2, 392311, Note_off_c, 0, 63, 64
2, 392378, Note_on_c, 0, 70, 96
2, 392402, Note_off_c, 0, 72, 64
2, 392450, Note_on_c, 0, 68, 83
2, 392508, Note_on_c, 0, 67, 90
2, 392522, Note_off_c, 0, 70, 64
2, 392551, Note_off_c, 0, 67, 64
2, 392561, Note_off_c, 0, 68, 64
2, 392575, Note_on_c, 0, 65, 83
2, 392652, Note_on_c, 0, 63, 79
2, 392676, Note_off_c, 0, 65, 64
2, 392719, Note_on_c, 0, 62, 89
2, 392753, Note_off_c, 0, 62, 64
2, 392757, Note_off_c, 0, 63, 64
2, 392781, Note_on_c, 0, 60, 81
2, 392849, Note_on_c, 0, 58, 105
2, 392882, Note_off_c, 0, 60, 64
2, 392925, Note_on_c, 0, 56, 89
2, 393002, Note_on_c, 0, 55, 110
2, 393050, Note_off_c, 0, 58, 64
2, 393089, Note_off_c, 0, 56, 64
2, 393127, Control_c, 0, 64, 0
2, 393458, Note_on_c, 0, 36, 79
2, 393530, Control_c, 0, 64, 127
2, 393929, Note_on_c, 0, 39, 70
2, 394245, Note_off_c, 0, 36, 64
2, 394409, Note_on_c, 0, 48, 67
2, 394519, Note_off_c, 0, 39, 64
2, 394797, Note_off_c, 0, 48, 64
2, 394797, Note_on_c, 0, 53, 97
2, 395157, Control_c, 0, 64, 0
2, 395210, Note_on_c, 0, 32, 91
2, 395229, Note_off_c, 0, 55, 64
2, 395695, Note_on_c, 0, 36, 79
2, 395724, Control_c, 0, 64, 127
2, 395887, Note_off_c, 0, 32, 64
2, 396156, Note_on_c, 0, 41, 63
2, 396170, Note_off_c, 0, 36, 64
2, 396549, Note_on_c, 0, 51, 95
2, 396717, Note_off_c, 0, 41, 64
2, 396876, Note_off_c, 0, 53, 64
2, 396986, Note_on_c, 0, 33, 95
2, 397034, Control_c, 0, 64, 0
2, 397433, Control_c, 0, 64, 127
2, 397442, Note_on_c, 0, 36, 86
2, 397884, Note_on_c, 0, 41, 76
2, 397932, Note_off_c, 0, 36, 64
2, 398340, Note_on_c, 0, 34, 91
2, 398393, Note_off_c, 0, 41, 64
2, 398417, Note_off_c, 0, 33, 64
2, 398613, Control_c, 0, 64, 0
2, 398873, Note_on_c, 0, 50, 89
2, 399026, Note_off_c, 0, 51, 64
2, 399319, Control_c, 0, 64, 127
2, 399386, Note_on_c, 0, 39, 83
2, 399597, Note_off_c, 0, 34, 64
2, 399953, Note_on_c, 0, 48, 94
2, 400044, Control_c, 0, 64, 0
2, 400140, Note_off_c, 0, 50, 64
2, 400303, Control_c, 0, 64, 127
2, 400423, Note_on_c, 0, 38, 88
2, 400524, Note_off_c, 0, 39, 64
2, 400917, Note_on_c, 0, 46, 99
2, 401133, Control_c, 0, 64, 0
2, 401148, Note_off_c, 0, 48, 64
2, 401349, Control_c, 0, 64, 127
2, 401450, Note_on_c, 0, 36, 94
2, 401685, Note_off_c, 0, 38, 64
2, 401777, Control_c, 0, 64, 0
2, 401993, Control_c, 0, 64, 127
2, 402141, Note_on_c, 0, 45, 94
2, 402453, Note_off_c, 0, 46, 64
2, 402473, Control_c, 0, 64, 0
2, 402732, Control_c, 0, 64, 127
2, 403073, Note_on_c, 0, 44, 85
2, 403092, Note_on_c, 0, 34, 97
2, 403092, Note_on_c, 0, 41, 85
2, 403097, Note_on_c, 0, 38, 84
2, 403154, Note_off_c, 0, 36, 64
2, 403284, Control_c, 0, 64, 0
2, 403346, Note_off_c, 0, 45, 64
2, 404561, Control_c, 0, 64, 127
2, 405703, Note_on_c, 0, 46, 48
2, 405813, Note_off_c, 0, 44, 64
2, 406025, Note_off_c, 0, 41, 64
2, 406025, Note_on_c, 0, 44, 44
2, 406087, Note_off_c, 0, 46, 64
2, 406241, Note_on_c, 0, 43, 54
2, 406265, Note_off_c, 0, 44, 64
2, 406428, Note_on_c, 0, 44, 62
2, 406452, Note_off_c, 0, 43, 64
2, 406572, Note_on_c, 0, 46, 85
2, 406601, Note_off_c, 0, 44, 64
2, 406706, Note_on_c, 0, 48, 73
2, 406711, Note_off_c, 0, 46, 64
2, 406855, Note_on_c, 0, 50, 76
2, 406865, Note_off_c, 0, 48, 64
2, 406975, Note_off_c, 0, 50, 64
2, 406975, Note_on_c, 0, 51, 76
2, 407057, Note_off_c, 0, 51, 64
2, 407076, Note_on_c, 0, 53, 70
2, 407162, Note_off_c, 0, 53, 64
2, 407186, Note_on_c, 0, 55, 74
2, 407234, Control_c, 0, 64, 0
2, 407273, Note_on_c, 0, 56, 79
2, 407297, Note_off_c, 0, 55, 64
2, 407359, Note_on_c, 0, 58, 98
2, 407393, Note_off_c, 0, 56, 64
2, 407402, Control_c, 0, 64, 127
2, 407407, Note_off_c, 0, 58, 64
2, 407441, Note_on_c, 0, 60, 84
2, 407508, Note_off_c, 0, 60, 64
2, 407517, Note_off_c, 0, 38, 64
2, 407532, Note_on_c, 0, 62, 82
2, 407594, Note_on_c, 0, 63, 82
2, 407628, Note_off_c, 0, 62, 64
2, 407633, Note_off_c, 0, 63, 64
2, 407633, Note_off_c, 0, 34, 64
2, 407671, Note_on_c, 0, 65, 91
2, 407748, Note_off_c, 0, 65, 64
2, 407757, Note_on_c, 0, 67, 92
2, 407820, Note_on_c, 0, 68, 83
2, 407868, Note_off_c, 0, 67, 64
2, 407892, Note_on_c, 0, 70, 100
2, 407921, Note_off_c, 0, 68, 64
2, 407925, Note_off_c, 0, 70, 64
2, 407964, Note_on_c, 0, 72, 94
2, 408021, Note_off_c, 0, 72, 64
2, 408050, Note_on_c, 0, 74, 95
2, 408103, Note_on_c, 0, 75, 88
2, 408141, Note_off_c, 0, 75, 64
2, 408151, Note_off_c, 0, 74, 64
2, 408189, Note_on_c, 0, 77, 96
2, 408247, Control_c, 0, 64, 0
2, 408276, Note_on_c, 0, 79, 95
2, 408305, Note_off_c, 0, 77, 64
2, 408333, Note_on_c, 0, 80, 86
2, 408386, Note_off_c, 0, 79, 64
2, 408401, Control_c, 0, 64, 127
2, 408415, Note_on_c, 0, 82, 95
2, 408458, Note_off_c, 0, 80, 64
2, 408458, Note_off_c, 0, 82, 64
2, 408497, Note_on_c, 0, 84, 94
2, 408554, Control_c, 0, 64, 0
2, 408578, Note_on_c, 0, 86, 88
2, 408588, Note_off_c, 0, 84, 64
2, 408679, Note_on_c, 0, 87, 83
2, 408698, Note_off_c, 0, 86, 64
2, 408770, Control_c, 0, 64, 127
2, 408818, Control_c, 0, 64, 0
2, 408818, Note_on_c, 0, 89, 80
2, 408842, Note_off_c, 0, 87, 64
2, 409140, Control_c, 0, 64, 127
2, 409413, Note_on_c, 0, 86, 60
2, 409481, Note_off_c, 0, 89, 64
2, 409692, Control_c, 0, 64, 0
2, 409797, Control_c, 0, 64, 127
2, 409879, Note_on_c, 0, 82, 60
2, 409884, Note_off_c, 0, 86, 64
2, 410076, Control_c, 0, 64, 0
2, 410201, Control_c, 0, 64, 127
2, 410239, Note_off_c, 0, 82, 64
2, 410484, Note_on_c, 0, 81, 59
2, 410921, Control_c, 0, 64, 0
2, 411477, Control_c, 0, 64, 127
2, 412980, Note_off_c, 0, 81, 64
2, 413028, Note_on_c, 0, 80, 19
2, 413364, Control_c, 0, 64, 0
2, 413671, Control_c, 0, 64, 127
2, 415303, Note_off_c, 0, 80, 64
2, 415423, Control_c, 0, 64, 0
2, 415913, Control_c, 0, 64, 127
2, 415965, Note_on_c, 0, 51, 29
2, 416205, Note_on_c, 0, 80, 59
2, 416268, Note_off_c, 0, 80, 64
2, 416287, Note_on_c, 0, 79, 63
2, 416330, Note_off_c, 0, 79, 64
2, 416369, Note_on_c, 0, 77, 54
2, 416426, Note_on_c, 0, 79, 50
2, 416441, Note_off_c, 0, 77, 64
2, 416469, Control_c, 0, 64, 0
2, 416532, Note_off_c, 0, 79, 64
2, 416537, Note_on_c, 0, 82, 45
2, 416580, Note_off_c, 0, 51, 64
2, 416781, Note_off_c, 0, 82, 64
2, 416801, Note_on_c, 0, 79, 32
2, 416930, Control_c, 0, 64, 127
2, 416959, Note_off_c, 0, 79, 64
2, 417036, Note_on_c, 0, 55, 32
2, 417257, Note_on_c, 0, 77, 56
2, 417309, Note_off_c, 0, 77, 64
2, 417314, Note_on_c, 0, 75, 48
2, 417367, Note_off_c, 0, 75, 64
2, 417377, Note_on_c, 0, 74, 57
2, 417434, Control_c, 0, 64, 0
2, 417439, Note_on_c, 0, 75, 60
2, 417453, Note_off_c, 0, 74, 64
2, 417549, Note_off_c, 0, 75, 64
2, 417554, Note_on_c, 0, 79, 57
2, 417564, Note_off_c, 0, 55, 64
2, 417741, Note_off_c, 0, 79, 64
2, 417765, Note_on_c, 0, 75, 32
2, 417866, Control_c, 0, 64, 127
2, 417881, Note_off_c, 0, 75, 64
2, 417981, Note_on_c, 0, 56, 42
2, 418116, Note_on_c, 0, 74, 59
2, 418164, Note_off_c, 0, 74, 64
2, 418188, Note_on_c, 0, 72, 58
2, 418236, Note_off_c, 0, 72, 64
2, 418245, Note_on_c, 0, 71, 47
2, 418313, Control_c, 0, 64, 0
2, 418317, Note_on_c, 0, 72, 70
2, 418327, Note_off_c, 0, 71, 64
2, 418404, Note_off_c, 0, 72, 64
2, 418442, Note_on_c, 0, 75, 46
2, 418476, Note_off_c, 0, 56, 64
2, 418677, Note_off_c, 0, 75, 64
2, 418725, Note_on_c, 0, 72, 43
2, 418745, Control_c, 0, 64, 127
2, 418855, Note_off_c, 0, 72, 64
2, 418970, Note_on_c, 0, 60, 36
2, 419066, Note_on_c, 0, 70, 60
2, 419128, Note_off_c, 0, 70, 64
2, 419143, Control_c, 0, 64, 0
2, 419148, Note_on_c, 0, 68, 57
2, 419196, Note_off_c, 0, 68, 64
2, 419224, Note_on_c, 0, 67, 46
2, 419292, Note_on_c, 0, 68, 53
2, 419300, Note_off_c, 0, 67, 64
2, 419388, Note_off_c, 0, 60, 64
2, 419431, Note_off_c, 0, 68, 64
2, 419431, Note_on_c, 0, 72, 72
2, 419666, Note_on_c, 0, 68, 69
2, 419705, Note_off_c, 0, 72, 64
2, 419772, Control_c, 0, 64, 127
2, 419969, Note_on_c, 0, 67, 51
2, 419973, Note_off_c, 0, 68, 64
2, 419983, Note_on_c, 0, 46, 41
2, 420045, Control_c, 0, 64, 0
2, 420247, Note_on_c, 0, 70, 54
2, 420257, Note_off_c, 0, 67, 64
2, 420281, Control_c, 0, 64, 127
2, 420449, Control_c, 0, 64, 0
2, 420511, Note_on_c, 0, 55, 41
2, 420617, Control_c, 0, 64, 127
2, 420775, Note_on_c, 0, 69, 61
2, 420881, Note_off_c, 0, 70, 64
2, 420957, Note_off_c, 0, 55, 64
2, 420972, Control_c, 0, 64, 0
2, 420996, Note_on_c, 0, 51, 42
2, 421077, Control_c, 0, 64, 127
2, 421245, Note_on_c, 0, 68, 50
2, 421255, Note_off_c, 0, 69, 64
2, 421385, Control_c, 0, 64, 0
2, 421490, Control_c, 0, 64, 127
2, 421505, Note_on_c, 0, 55, 37
2, 421519, Note_off_c, 0, 46, 64
2, 421677, Note_off_c, 0, 51, 64
2, 421701, Note_off_c, 0, 68, 64
2, 421721, Note_on_c, 0, 67, 47
2, 421740, Note_off_c, 0, 55, 64
2, 421884, Note_off_c, 0, 67, 64
2, 421951, Note_on_c, 0, 46, 51
2, 421956, Note_on_c, 0, 65, 50
2, 422148, Note_on_c, 0, 67, 58
2, 422153, Note_off_c, 0, 65, 64
2, 422205, Note_off_c, 0, 67, 64
2, 422239, Note_on_c, 0, 65, 70
2, 422301, Note_off_c, 0, 65, 64
2, 422306, Note_on_c, 0, 67, 60
2, 422369, Note_off_c, 0, 67, 64
2, 422373, Note_on_c, 0, 56, 43
2, 422393, Note_on_c, 0, 65, 67
2, 422441, Note_off_c, 0, 65, 64
2, 422455, Note_on_c, 0, 67, 68
2, 422503, Note_off_c, 0, 67, 64
2, 422513, Note_on_c, 0, 65, 83
2, 422565, Note_off_c, 0, 65, 64
2, 422599, Note_on_c, 0, 67, 62
2, 422642, Note_on_c, 0, 65, 77
2, 422647, Note_off_c, 0, 67, 64
2, 422705, Note_off_c, 0, 65, 64
2, 422743, Note_on_c, 0, 67, 51
2, 422772, Note_off_c, 0, 56, 64
2, 422781, Note_on_c, 0, 65, 80
2, 422796, Note_off_c, 0, 67, 64
2, 422805, Note_on_c, 0, 50, 39
2, 422815, Control_c, 0, 64, 0
2, 422839, Note_off_c, 0, 65, 64
2, 422857, Note_on_c, 0, 67, 33
2, 422885, Note_off_c, 0, 67, 64
2, 422916, Note_on_c, 0, 65, 73
2, 422973, Note_off_c, 0, 65, 64
2, 422987, Note_on_c, 0, 67, 33
2, 423025, Note_off_c, 0, 67, 64
2, 423069, Note_on_c, 0, 65, 42
2, 423074, Control_c, 0, 64, 127
2, 423180, Control_c, 0, 64, 0
2, 423213, Note_on_c, 0, 56, 36
2, 423222, Note_on_c, 0, 67, 33
2, 423233, Note_off_c, 0, 65, 64
2, 423305, Note_off_c, 0, 67, 64
2, 423343, Note_on_c, 0, 65, 52
2, 423353, Control_c, 0, 64, 127
2, 423453, Note_off_c, 0, 65, 64
2, 423492, Note_on_c, 0, 63, 38
2, 423497, Note_off_c, 0, 50, 64
2, 423578, Note_off_c, 0, 46, 64
2, 423655, Note_off_c, 0, 63, 64
2, 423674, Note_on_c, 0, 65, 44
2, 423698, Note_off_c, 0, 56, 64
2, 423909, Note_on_c, 0, 51, 32
2, 423948, Note_on_c, 0, 63, 40
2, 423957, Note_off_c, 0, 65, 64
2, 424010, Control_c, 0, 64, 0
2, 424231, Note_on_c, 0, 55, 41
2, 424442, Control_c, 0, 64, 127
2, 424471, Note_on_c, 0, 58, 53
2, 424476, Note_off_c, 0, 55, 64
2, 424649, Note_off_c, 0, 58, 64
2, 424706, Note_on_c, 0, 55, 38
2, 424884, Note_off_c, 0, 55, 64
2, 424917, Note_on_c, 0, 58, 44
2, 425028, Control_c, 0, 64, 0
2, 425105, Control_c, 0, 64, 127
2, 425109, Note_off_c, 0, 58, 64
2, 425143, Note_on_c, 0, 55, 45
2, 425277, Note_off_c, 0, 55, 64
2, 425301, Note_off_c, 0, 63, 64
2, 425349, Note_on_c, 0, 58, 41
2, 425493, Note_off_c, 0, 51, 64
2, 425503, Note_off_c, 0, 58, 64
2, 425604, Note_on_c, 0, 55, 41
2, 425753, Note_off_c, 0, 55, 64
2, 425911, Note_on_c, 0, 56, 41
2, 425916, Note_on_c, 0, 62, 34
2, 425930, Note_on_c, 0, 46, 38
2, 425935, Control_c, 0, 64, 0
2, 426180, Note_on_c, 0, 65, 50
2, 426257, Control_c, 0, 64, 127
2, 426425, Control_c, 0, 64, 0
2, 426429, Note_on_c, 0, 72, 54
2, 426492, Note_off_c, 0, 65, 64
2, 426516, Control_c, 0, 64, 127
2, 426631, Note_on_c, 0, 70, 72
2, 426655, Note_off_c, 0, 62, 64
2, 426655, Control_c, 0, 64, 0
2, 426660, Note_off_c, 0, 72, 64
2, 426732, Control_c, 0, 64, 127
2, 426799, Note_off_c, 0, 56, 64
2, 426813, Note_off_c, 0, 46, 64
2, 426861, Note_on_c, 0, 72, 76
2, 426871, Control_c, 0, 64, 0
2, 426895, Note_off_c, 0, 70, 64
2, 427053, Control_c, 0, 64, 127
2, 427063, Note_on_c, 0, 70, 79
2, 427101, Control_c, 0, 64, 0
2, 427111, Note_off_c, 0, 72, 64
2, 427269, Control_c, 0, 64, 127
2, 427303, Note_on_c, 0, 72, 77
2, 427317, Control_c, 0, 64, 0
2, 427332, Note_off_c, 0, 70, 64
2, 427500, Control_c, 0, 64, 127
2, 427548, Note_on_c, 0, 70, 78
2, 427553, Note_off_c, 0, 72, 64
2, 427677, Note_off_c, 0, 70, 64
2, 427817, Note_on_c, 0, 51, 41
2, 427841, Note_on_c, 0, 70, 54
2, 427961, Control_c, 0, 64, 0
2, 428138, Note_on_c, 0, 55, 47
2, 428157, Note_off_c, 0, 51, 64
2, 428205, Control_c, 0, 64, 127
2, 428359, Note_off_c, 0, 55, 64
2, 428364, Note_on_c, 0, 58, 54
2, 428565, Note_off_c, 0, 58, 64
2, 428609, Note_on_c, 0, 55, 35
2, 428805, Note_off_c, 0, 55, 64
2, 428829, Note_on_c, 0, 58, 55
2, 428834, Note_on_c, 0, 75, 43
2, 428853, Control_c, 0, 64, 0
2, 428873, Note_off_c, 0, 70, 64
2, 429031, Note_off_c, 0, 58, 64
2, 429069, Note_on_c, 0, 55, 50
2, 429098, Control_c, 0, 64, 127
2, 429223, Note_off_c, 0, 55, 64
2, 429285, Note_on_c, 0, 58, 45
2, 429324, Note_off_c, 0, 75, 64
2, 429405, Note_off_c, 0, 58, 64
2, 429535, Note_on_c, 0, 55, 34
2, 429693, Note_off_c, 0, 55, 64
2, 429833, Note_on_c, 0, 56, 33
2, 429837, Control_c, 0, 64, 0
2, 429842, Note_on_c, 0, 62, 39
2, 429866, Note_on_c, 0, 46, 40
2, 430101, Note_on_c, 0, 65, 55
2, 430145, Control_c, 0, 64, 127
2, 430193, Note_off_c, 0, 62, 64
2, 430274, Note_off_c, 0, 56, 64
2, 430341, Note_on_c, 0, 72, 79
2, 430361, Note_off_c, 0, 65, 64
2, 430442, Note_off_c, 0, 46, 64
2, 430548, Note_on_c, 0, 70, 89
2, 430581, Note_off_c, 0, 72, 64
2, 430773, Control_c, 0, 64, 0
2, 430778, Note_on_c, 0, 72, 80
2, 430812, Note_off_c, 0, 70, 64
2, 430970, Control_c, 0, 64, 127
2, 430985, Note_on_c, 0, 70, 76
2, 431028, Note_off_c, 0, 72, 64
2, 431052, Control_c, 0, 64, 0
2, 431109, Control_c, 0, 64, 127
2, 431215, Note_on_c, 0, 72, 75
2, 431234, Control_c, 0, 64, 0
2, 431244, Note_off_c, 0, 70, 64
2, 431402, Control_c, 0, 64, 127
2, 431465, Note_on_c, 0, 70, 71
2, 431469, Note_off_c, 0, 72, 64
2, 431609, Note_off_c, 0, 70, 64
2, 431767, Note_on_c, 0, 51, 30
2, 431781, Note_on_c, 0, 70, 54
2, 431877, Control_c, 0, 64, 0
2, 432069, Note_on_c, 0, 55, 39
2, 432079, Note_off_c, 0, 51, 64
2, 432156, Control_c, 0, 64, 127
2, 432218, Control_c, 0, 64, 0
2, 432281, Control_c, 0, 64, 127
2, 432295, Note_off_c, 0, 55, 64
2, 432300, Note_on_c, 0, 58, 47
2, 432506, Note_off_c, 0, 58, 64
2, 432549, Note_on_c, 0, 55, 34
2, 432737, Note_off_c, 0, 55, 64
2, 432751, Note_on_c, 0, 58, 53
2, 432785, Note_on_c, 0, 63, 37
2, 432837, Note_off_c, 0, 70, 64
2, 432847, Control_c, 0, 64, 0
2, 432981, Note_off_c, 0, 58, 64
2, 433005, Note_on_c, 0, 55, 49
2, 433015, Control_c, 0, 64, 127
2, 433178, Note_off_c, 0, 55, 64
2, 433212, Note_on_c, 0, 58, 65
2, 433274, Note_off_c, 0, 63, 64
2, 433409, Note_off_c, 0, 58, 64
2, 433442, Note_on_c, 0, 55, 61
2, 433543, Note_off_c, 0, 55, 64
2, 433677, Note_on_c, 0, 62, 70
2, 433677, Note_on_c, 0, 56, 47
2, 433692, Control_c, 0, 64, 0
2, 433692, Note_on_c, 0, 46, 52
2, 433893, Note_on_c, 0, 65, 79
2, 433999, Control_c, 0, 64, 127
2, 434119, Note_on_c, 0, 72, 88
2, 434148, Note_off_c, 0, 65, 64
2, 434306, Note_on_c, 0, 70, 97
2, 434364, Note_off_c, 0, 72, 64
2, 434493, Note_off_c, 0, 62, 64
2, 434541, Note_on_c, 0, 72, 90
2, 434575, Note_off_c, 0, 70, 64
2, 434757, Note_on_c, 0, 70, 89
2, 434777, Note_off_c, 0, 72, 64
2, 434973, Note_on_c, 0, 72, 81
2, 434993, Note_off_c, 0, 70, 64
2, 435170, Note_off_c, 0, 72, 64
2, 435180, Note_on_c, 0, 70, 84
2, 435194, Note_off_c, 0, 56, 64
2, 435295, Note_off_c, 0, 70, 64
2, 435415, Note_on_c, 0, 70, 75
2, 435415, Note_on_c, 0, 51, 39
2, 435420, Note_on_c, 0, 55, 39
2, 435506, Control_c, 0, 64, 0
2, 435578, Note_off_c, 0, 46, 64
2, 435636, Note_on_c, 0, 63, 75
2, 435698, Note_off_c, 0, 70, 64
2, 435871, Control_c, 0, 64, 127
2, 435876, Note_off_c, 0, 63, 64
2, 435890, Note_on_c, 0, 75, 69
2, 435962, Note_off_c, 0, 75, 64
2, 436010, Control_c, 0, 64, 0
2, 436092, Note_on_c, 0, 75, 81
2, 436173, Note_off_c, 0, 75, 64
2, 436298, Note_on_c, 0, 75, 78
2, 436447, Note_off_c, 0, 51, 64
2, 436466, Note_off_c, 0, 55, 64
2, 436533, Note_on_c, 0, 67, 70
2, 436572, Note_off_c, 0, 75, 64
2, 436706, Note_off_c, 0, 67, 64
2, 436749, Note_on_c, 0, 79, 78
2, 436841, Note_off_c, 0, 79, 64
2, 436961, Note_on_c, 0, 79, 75
2, 437037, Note_off_c, 0, 79, 64
2, 437181, Note_on_c, 0, 79, 68
2, 437393, Note_on_c, 0, 70, 64
2, 437402, Note_off_c, 0, 79, 64
2, 437599, Note_off_c, 0, 70, 64
2, 437609, Note_on_c, 0, 82, 88
2, 437709, Note_off_c, 0, 82, 64
2, 437820, Note_on_c, 0, 82, 92
2, 437925, Note_off_c, 0, 82, 64
2, 438041, Note_on_c, 0, 68, 46
2, 438045, Note_on_c, 0, 82, 80
2, 438051, Note_on_c, 0, 58, 46
2, 438064, Note_on_c, 0, 62, 34
2, 438161, Note_off_c, 0, 82, 64
2, 438252, Note_on_c, 0, 82, 70
2, 438362, Note_off_c, 0, 82, 64
2, 438463, Note_on_c, 0, 82, 65
2, 438554, Note_off_c, 0, 82, 64
2, 438722, Note_on_c, 0, 82, 53
2, 438813, Note_off_c, 0, 82, 64
2, 438876, Note_off_c, 0, 68, 64
2, 438933, Note_off_c, 0, 62, 64
2, 439034, Note_on_c, 0, 75, 38
2, 439035, Note_on_c, 0, 63, 26
2, 439044, Note_on_c, 0, 67, 27
2, 439193, Note_off_c, 0, 58, 64
2, 439389, Control_c, 0, 64, 127
2, 439418, Note_off_c, 0, 67, 64
2, 439433, Note_off_c, 0, 75, 64
2, 439477, Note_off_c, 0, 63, 64
2, 439605, Control_c, 0, 64, 0
2, 440018, Note_on_c, 0, 82, 68
2, 440027, Note_on_c, 0, 62, 34
2, 440028, Note_on_c, 0, 68, 40
2, 440028, Note_on_c, 0, 58, 42
2, 440100, Control_c, 0, 64, 127
2, 440143, Note_off_c, 0, 82, 64
2, 440244, Note_on_c, 0, 82, 71
2, 440340, Note_off_c, 0, 82, 64
2, 440345, Control_c, 0, 64, 0
2, 440465, Note_on_c, 0, 82, 69
2, 440551, Note_off_c, 0, 82, 64
2, 440700, Control_c, 0, 64, 127
2, 440709, Note_on_c, 0, 82, 59
2, 440796, Note_off_c, 0, 82, 64
2, 440868, Note_off_c, 0, 68, 64
2, 440911, Control_c, 0, 64, 0
2, 440920, Note_off_c, 0, 62, 64
2, 441021, Note_on_c, 0, 67, 24
2, 441021, Note_on_c, 0, 75, 26
2, 441026, Note_on_c, 0, 63, 22
2, 441036, Note_off_c, 0, 58, 64
2, 441324, Note_off_c, 0, 67, 64
2, 441357, Control_c, 0, 64, 127
2, 441391, Note_off_c, 0, 63, 64
2, 441434, Note_off_c, 0, 75, 64
2, 441621, Control_c, 0, 64, 0
2, 442073, Note_on_c, 0, 82, 46
2, 442073, Note_on_c, 0, 58, 29
2, 442076, Note_on_c, 0, 62, 24
2, 442078, Note_on_c, 0, 68, 28
2, 442173, Control_c, 0, 64, 127
2, 442178, Note_off_c, 0, 82, 64
2, 442322, Note_on_c, 0, 82, 56
2, 442413, Note_off_c, 0, 82, 64
2, 442577, Note_on_c, 0, 82, 47
2, 442605, Control_c, 0, 64, 0
2, 442649, Note_off_c, 0, 82, 64
2, 442831, Note_on_c, 0, 82, 41
2, 442850, Control_c, 0, 64, 127
2, 442911, Note_off_c, 0, 62, 64
2, 442928, Note_off_c, 0, 68, 64
2, 442941, Note_off_c, 0, 82, 64
2, 443292, Note_on_c, 0, 87, 38
2, 443297, Note_on_c, 0, 63, 20
2, 443311, Note_on_c, 0, 67, 24
2, 443359, Control_c, 0, 64, 0
2, 443421, Note_off_c, 0, 58, 64
2, 444031, Control_c, 0, 64, 127
2, 444045, Note_off_c, 0, 67, 64
2, 444117, Note_off_c, 0, 63, 64
2, 444185, Note_off_c, 0, 87, 64
2, 444218, Control_c, 0, 64, 0
2, 445173, Note_on_c, 0, 56, 80
2, 445183, Control_c, 0, 64, 127
2, 445183, Note_on_c, 0, 62, 82
2, 445183, Note_on_c, 0, 58, 84
2, 445188, Note_on_c, 0, 46, 105
2, 445442, Note_off_c, 0, 46, 64
2, 445581, Note_on_c, 0, 46, 76
2, 445721, Note_off_c, 0, 46, 64
2, 445879, Note_on_c, 0, 46, 77
2, 446004, Note_off_c, 0, 46, 64
2, 446119, Note_on_c, 0, 46, 59
2, 446253, Note_off_c, 0, 46, 64
2, 446364, Note_on_c, 0, 46, 59
2, 446493, Note_off_c, 0, 46, 64
2, 446618, Note_on_c, 0, 46, 53
2, 446757, Note_off_c, 0, 46, 64
2, 446916, Note_on_c, 0, 46, 52
2, 447026, Note_off_c, 0, 46, 64
2, 447213, Note_on_c, 0, 46, 52
2, 447353, Note_off_c, 0, 58, 64
2, 447377, Note_off_c, 0, 46, 64
2, 447487, Note_off_c, 0, 56, 64
2, 447631, Note_on_c, 0, 63, 48
2, 447645, Control_c, 0, 64, 0
2, 447649, Note_on_c, 0, 58, 37
2, 447655, Note_on_c, 0, 39, 38
2, 447659, Note_on_c, 0, 55, 25
2, 447996, Note_off_c, 0, 62, 64
2, 448245, Control_c, 0, 64, 127
2, 448258, Note_off_c, 0, 58, 64
2, 448260, Note_off_c, 0, 39, 64
2, 448264, Note_off_c, 0, 55, 64
2, 448274, Control_c, 0, 64, 0
2, 448337, Note_off_c, 0, 63, 64
2, 448687, Control_c, 0, 64, 127
2, 448764, Note_on_c, 0, 56, 39
2, 448764, Note_on_c, 0, 65, 50
2, 448768, Note_on_c, 0, 62, 31
2, 448768, Note_on_c, 0, 58, 37
2, 448773, Note_on_c, 0, 46, 34
2, 448913, Note_off_c, 0, 46, 64
2, 449028, Note_on_c, 0, 46, 46
2, 449133, Note_off_c, 0, 46, 64
2, 449287, Note_on_c, 0, 46, 44
2, 449349, Note_off_c, 0, 58, 64
2, 449369, Note_off_c, 0, 46, 64
2, 449454, Note_off_c, 0, 62, 64
2, 449561, Note_off_c, 0, 56, 64
2, 449575, Note_on_c, 0, 46, 46
2, 449657, Note_off_c, 0, 46, 64
2, 449901, Note_on_c, 0, 63, 40
2, 449916, Control_c, 0, 64, 0
2, 449919, Note_on_c, 0, 58, 27
2, 449920, Note_on_c, 0, 55, 34
2, 449921, Note_on_c, 0, 39, 31
2, 449978, Note_off_c, 0, 65, 64
2, 450333, Control_c, 0, 64, 127
2, 450361, Note_off_c, 0, 55, 64
2, 450394, Note_off_c, 0, 58, 64
2, 450439, Note_off_c, 0, 39, 64
2, 450473, Note_off_c, 0, 63, 64
2, 450669, Control_c, 0, 64, 0
2, 451178, Control_c, 0, 64, 127
2, 451457, Note_on_c, 0, 58, 30
2, 451457, Note_on_c, 0, 65, 36
2, 451461, Note_on_c, 0, 56, 22
2, 451461, Note_on_c, 0, 62, 16
2, 451476, Note_on_c, 0, 34, 24
2, 451634, Note_off_c, 0, 34, 64
2, 451807, Note_on_c, 0, 34, 34
2, 451961, Note_off_c, 0, 34, 64
2, 452157, Note_on_c, 0, 34, 33
2, 452335, Note_off_c, 0, 34, 64
2, 452484, Control_c, 0, 64, 0
2, 452599, Note_on_c, 0, 34, 27
2, 452762, Control_c, 0, 64, 127
2, 452796, Note_off_c, 0, 34, 64
2, 452873, Note_off_c, 0, 58, 64
2, 452949, Note_off_c, 0, 62, 64
2, 453021, Note_off_c, 0, 56, 64
2, 453223, Note_off_c, 0, 65, 64
2, 453641, Note_on_c, 0, 63, 26
2, 453658, Note_on_c, 0, 55, 20
2, 453658, Note_on_c, 0, 58, 16
2, 453659, Note_on_c, 0, 39, 16
2, 454250, Control_c, 0, 64, 0
2, 455170, Note_off_c, 0, 55, 64
2, 455203, Note_off_c, 0, 58, 64
2, 455244, Note_off_c, 0, 63, 64
2, 455421, Note_off_c, 0, 39, 64
2, 455421, End_track
3, 0, Start_track
3, 0, Title_t, "Track-2"
3, 0, End_track
4, 0, Start_track
4, 0, Title_t, "Track-3"
4, 0, End_track
5, 0, Start_track
5, 0, Title_t, "Track-4"
5, 0, End_track
6, 0, Start_track
6, 0, Title_t, "Track-5"
6, 0, End_track
7, 0, Start_track
7, 0, Title_t, "Track-6"
7, 0, End_track
8, 0, Start_track
8, 0, Title_t, "Track-7"
8, 0, End_track
9, 0, Start_track
9, 0, Title_t, "Track-8"
9, 0, End_track
0, 0, End_of_file
