0, 0, Header, 1, 9, 480
1, 0, Start_track
1, 0, Title_t, "Seq-1"
1, 0, SMPTE_offset, 96, 0, 0, 0, 0
1, 0, Time_signature, 4, 2, 24, 8
1, 0, Tempo, 500000
1, 0, End_track
2, 0, Start_track
2, 0, Title_t, "Track-1"
2, 0, Note_on_c, 0, 79, 56
2, 232, Note_on_c, 0, 63, 48
2, 237, Note_on_c, 0, 60, 40
2, 439, Note_off_c, 0, 79, 64
2, 458, Note_on_c, 0, 75, 61
2, 516, Note_off_c, 0, 75, 64
2, 708, Note_on_c, 0, 72, 87
2, 909, Note_off_c, 0, 60, 64
2, 914, Note_off_c, 0, 63, 64
2, 924, Note_on_c, 0, 62, 47
2, 928, Note_on_c, 0, 65, 59
2, 938, Control_c, 0, 64, 127
2, 986, Control_c, 0, 64, 0
2, 1111, Note_off_c, 0, 72, 64
2, 1130, Note_on_c, 0, 71, 72
2, 1226, Note_off_c, 0, 71, 64
2, 1293, Control_c, 0, 64, 127
2, 1356, Note_off_c, 0, 62, 64
2, 1356, Note_on_c, 0, 80, 85
2, 1365, Note_off_c, 0, 65, 64
2, 1370, Control_c, 0, 64, 0
2, 1576, Note_on_c, 0, 59, 51
2, 1576, Note_on_c, 0, 62, 42
2, 1792, Note_on_c, 0, 79, 77
2, 1812, Note_off_c, 0, 80, 64
2, 1840, Note_off_c, 0, 79, 64
2, 2028, Note_on_c, 0, 77, 84
2, 2248, Note_off_c, 0, 62, 64
2, 2253, Note_on_c, 0, 67, 46
2, 2258, Note_on_c, 0, 60, 54
2, 2277, Note_off_c, 0, 59, 64
2, 2464, Note_on_c, 0, 75, 69
2, 2517, Note_off_c, 0, 77, 64
2, 2546, Note_off_c, 0, 75, 64
2, 2599, Control_c, 0, 64, 127
2, 2628, Note_off_c, 0, 60, 64
2, 2637, Note_off_c, 0, 67, 64
2, 2680, Note_on_c, 0, 79, 99
2, 2704, Control_c, 0, 64, 0
2, 2906, Note_on_c, 0, 63, 51
2, 2911, Note_on_c, 0, 67, 70
2, 3117, Note_on_c, 0, 84, 93
2, 3151, Note_off_c, 0, 79, 64
2, 3199, Control_c, 0, 64, 127
2, 3252, Note_off_c, 0, 84, 64
2, 3266, Note_off_c, 0, 63, 64
2, 3319, Control_c, 0, 64, 0
2, 3343, Note_on_c, 0, 82, 99
2, 3372, Note_on_c, 0, 64, 63
2, 3520, Control_c, 0, 64, 127
2, 3559, Note_off_c, 0, 64, 64
2, 3573, Note_on_c, 0, 68, 78
2, 3583, Note_off_c, 0, 67, 64
2, 3597, Control_c, 0, 64, 0
2, 3607, Note_on_c, 0, 65, 73
2, 3775, Note_off_c, 0, 65, 64
2, 3794, Control_c, 0, 64, 127
2, 3794, Note_on_c, 0, 80, 91
2, 3866, Note_off_c, 0, 82, 64
2, 3919, Note_off_c, 0, 80, 64
2, 3924, Note_off_c, 0, 68, 64
2, 4005, Note_on_c, 0, 70, 79
2, 4015, Note_on_c, 0, 79, 94
2, 4020, Note_on_c, 0, 67, 64
2, 4087, Control_c, 0, 64, 0
2, 4236, Note_on_c, 0, 72, 84
2, 4240, Note_on_c, 0, 68, 69
2, 4250, Note_off_c, 0, 70, 64
2, 4260, Note_off_c, 0, 67, 64
2, 4418, Note_off_c, 0, 79, 64
2, 4437, Note_on_c, 0, 77, 98
2, 4456, Control_c, 0, 64, 127
2, 4552, Note_off_c, 0, 77, 64
2, 4610, Note_off_c, 0, 68, 64
2, 4672, Note_on_c, 0, 78, 80
2, 4677, Note_on_c, 0, 69, 44
2, 4687, Control_c, 0, 64, 0
2, 4874, Note_off_c, 0, 69, 64
2, 4927, Note_on_c, 0, 67, 44
2, 5152, Note_off_c, 0, 72, 64
2, 5176, Note_off_c, 0, 78, 64
2, 5186, Note_on_c, 0, 79, 62
2, 5200, Note_on_c, 0, 71, 31
2, 5258, Note_off_c, 0, 79, 64
2, 5301, Control_c, 0, 64, 127
2, 5316, Note_off_c, 0, 71, 64
2, 5320, Note_off_c, 0, 67, 64
2, 5498, Note_on_c, 0, 67, 62
2, 5580, Control_c, 0, 64, 0
2, 5743, Note_on_c, 0, 51, 59
2, 5751, Note_on_c, 0, 48, 63
2, 5964, Control_c, 0, 64, 127
2, 5964, Note_on_c, 0, 63, 62
2, 6002, Note_off_c, 0, 67, 64
2, 6088, Note_off_c, 0, 63, 64
2, 6175, Note_on_c, 0, 60, 83
2, 6399, Note_off_c, 0, 48, 64
2, 6405, Note_on_c, 0, 53, 67
2, 6415, Note_on_c, 0, 50, 72
2, 6439, Control_c, 0, 64, 0
2, 6477, Note_off_c, 0, 51, 64
2, 6631, Note_on_c, 0, 59, 78
2, 6640, Note_off_c, 0, 60, 64
2, 6732, Control_c, 0, 64, 127
2, 6828, Note_off_c, 0, 59, 64
2, 6866, Note_on_c, 0, 68, 83
2, 6924, Note_off_c, 0, 50, 64
2, 7053, Control_c, 0, 64, 0
2, 7077, Note_off_c, 0, 53, 64
2, 7082, Note_on_c, 0, 47, 57
2, 7087, Note_on_c, 0, 50, 76
2, 7303, Note_on_c, 0, 67, 77
2, 7336, Note_off_c, 0, 68, 64
2, 7408, Note_off_c, 0, 67, 64
2, 7452, Control_c, 0, 64, 127
2, 7562, Note_on_c, 0, 65, 81
2, 7773, Note_on_c, 0, 49, 65
2, 7778, Note_off_c, 0, 50, 64
2, 7778, Note_on_c, 0, 46, 74
2, 7797, Note_off_c, 0, 47, 64
2, 7836, Control_c, 0, 64, 0
2, 7989, Note_off_c, 0, 65, 64
2, 7994, Note_on_c, 0, 64, 88
2, 8080, Control_c, 0, 64, 127
2, 8104, Note_off_c, 0, 46, 64
2, 8104, Note_off_c, 0, 64, 64
2, 8109, Note_off_c, 0, 49, 64
2, 8224, Note_on_c, 0, 73, 88
2, 8421, Control_c, 0, 64, 0
2, 8450, Note_on_c, 0, 55, 63
2, 8460, Note_on_c, 0, 52, 59
2, 8676, Note_on_c, 0, 72, 79
2, 8714, Note_off_c, 0, 73, 64
2, 8805, Control_c, 0, 64, 127
2, 8858, Note_off_c, 0, 72, 64
2, 8901, Note_off_c, 0, 55, 64
2, 8901, Note_on_c, 0, 70, 82
2, 8930, Note_on_c, 0, 60, 57
2, 9021, Note_off_c, 0, 52, 64
2, 9036, Control_c, 0, 64, 0
2, 9117, Note_on_c, 0, 68, 87
2, 9132, Note_on_c, 0, 53, 62
2, 9180, Note_off_c, 0, 70, 64
2, 9319, Note_on_c, 0, 55, 67
2, 9319, Note_on_c, 0, 67, 88
2, 9324, Note_off_c, 0, 53, 64
2, 9324, Note_off_c, 0, 68, 64
2, 9501, Note_off_c, 0, 60, 64
2, 9525, Note_off_c, 0, 55, 64
2, 9535, Note_on_c, 0, 66, 76
2, 9540, Note_off_c, 0, 67, 64
2, 9549, Note_on_c, 0, 56, 55
2, 9698, Note_off_c, 0, 56, 64
2, 9765, Note_on_c, 0, 63, 58
2, 9765, Note_on_c, 0, 55, 53
2, 9765, Note_on_c, 0, 67, 78
2, 9770, Note_off_c, 0, 66, 64
2, 9842, Note_off_c, 0, 63, 64
2, 9967, Note_off_c, 0, 55, 64
2, 9986, Note_on_c, 0, 63, 58
2, 10005, Note_on_c, 0, 60, 53
2, 10015, Note_off_c, 0, 67, 64
2, 10063, Note_off_c, 0, 60, 64
2, 10159, Note_off_c, 0, 63, 64
2, 10216, Note_on_c, 0, 53, 53
2, 10221, Note_on_c, 0, 43, 47
2, 10226, Note_on_c, 0, 62, 34
2, 10231, Note_on_c, 0, 59, 31
2, 10274, Note_off_c, 0, 53, 64
2, 10279, Note_off_c, 0, 43, 64
2, 10322, Note_off_c, 0, 59, 64
2, 10336, Note_off_c, 0, 62, 64
2, 10495, Note_on_c, 0, 51, 42
2, 10495, Note_on_c, 0, 60, 55
2, 10514, Note_on_c, 0, 48, 47
2, 10634, Control_c, 0, 64, 127
2, 10677, Note_off_c, 0, 48, 64
2, 10687, Note_off_c, 0, 60, 64
2, 10696, Note_off_c, 0, 51, 64
2, 10879, Control_c, 0, 64, 0
2, 11004, Note_on_c, 0, 77, 84
2, 11056, Note_off_c, 0, 77, 64
2, 11056, Note_on_c, 0, 75, 70
2, 11100, Note_on_c, 0, 74, 87
2, 11114, Note_off_c, 0, 75, 64
2, 11143, Note_off_c, 0, 74, 64
2, 11162, Note_on_c, 0, 72, 68
2, 11205, Note_on_c, 0, 62, 50
2, 11215, Note_on_c, 0, 79, 99
2, 11215, Note_on_c, 0, 59, 48
2, 11229, Note_off_c, 0, 72, 64
2, 11253, Note_off_c, 0, 79, 64
2, 11263, Note_off_c, 0, 62, 64
2, 11340, Note_off_c, 0, 59, 64
2, 11354, Note_on_c, 0, 55, 37
2, 11421, Note_on_c, 0, 79, 80
2, 11426, Note_off_c, 0, 55, 64
2, 11436, Note_on_c, 0, 67, 44
2, 11440, Note_on_c, 0, 63, 58
2, 11450, Note_on_c, 0, 60, 58
2, 11455, Note_off_c, 0, 79, 64
2, 11498, Note_off_c, 0, 67, 64
2, 11498, Note_off_c, 0, 63, 64
2, 11503, Note_off_c, 0, 60, 64
2, 11532, Note_on_c, 0, 55, 51
2, 11632, Note_on_c, 0, 79, 98
2, 11652, Note_on_c, 0, 67, 62
2, 11656, Note_off_c, 0, 55, 64
2, 11666, Note_off_c, 0, 79, 64
2, 11666, Note_on_c, 0, 65, 73
2, 11676, Note_on_c, 0, 62, 57
2, 11700, Note_off_c, 0, 67, 64
2, 11714, Note_off_c, 0, 65, 64
2, 11728, Note_off_c, 0, 62, 64
2, 11762, Note_on_c, 0, 55, 70
2, 11868, Note_on_c, 0, 79, 115
2, 11877, Note_on_c, 0, 67, 101
2, 11882, Note_on_c, 0, 63, 83
2, 11892, Note_off_c, 0, 55, 64
2, 11896, Note_on_c, 0, 60, 60
2, 11954, Control_c, 0, 64, 127
2, 11963, Note_off_c, 0, 60, 64
2, 11968, Note_off_c, 0, 63, 64
2, 11997, Note_on_c, 0, 55, 60
2, 12112, Note_on_c, 0, 63, 67
2, 12117, Note_off_c, 0, 67, 64
2, 12122, Note_on_c, 0, 60, 59
2, 12127, Note_off_c, 0, 55, 64
2, 12170, Note_off_c, 0, 63, 64
2, 12194, Note_off_c, 0, 60, 64
2, 12237, Note_on_c, 0, 55, 48
2, 12333, Note_on_c, 0, 77, 95
2, 12348, Note_off_c, 0, 79, 64
2, 12362, Note_off_c, 0, 55, 64
2, 12362, Note_on_c, 0, 63, 60
2, 12372, Note_on_c, 0, 60, 66
2, 12386, Control_c, 0, 64, 0
2, 12386, Note_on_c, 0, 75, 89
2, 12410, Note_off_c, 0, 63, 64
2, 12434, Note_off_c, 0, 60, 64
2, 12439, Note_off_c, 0, 77, 64
2, 12448, Note_on_c, 0, 74, 92
2, 12453, Note_on_c, 0, 55, 59
2, 12501, Note_off_c, 0, 75, 64
2, 12501, Note_on_c, 0, 72, 97
2, 12544, Note_on_c, 0, 62, 81
2, 12554, Note_on_c, 0, 59, 65
2, 12564, Note_off_c, 0, 74, 64
2, 12564, Note_on_c, 0, 79, 106
2, 12568, Note_off_c, 0, 55, 64
2, 12607, Note_off_c, 0, 72, 64
2, 12621, Note_off_c, 0, 62, 64
2, 12626, Note_off_c, 0, 79, 64
2, 12655, Note_on_c, 0, 55, 77
2, 12688, Note_off_c, 0, 59, 64
2, 12775, Note_off_c, 0, 55, 64
2, 12775, Note_on_c, 0, 79, 87
2, 12784, Note_on_c, 0, 67, 49
2, 12784, Note_on_c, 0, 63, 81
2, 12794, Note_on_c, 0, 60, 66
2, 12808, Note_off_c, 0, 79, 64
2, 12837, Note_off_c, 0, 63, 64
2, 12842, Note_off_c, 0, 60, 64
2, 12842, Note_off_c, 0, 67, 64
2, 12890, Note_on_c, 0, 55, 64
2, 12981, Note_on_c, 0, 79, 97
2, 13000, Note_on_c, 0, 67, 72
2, 13015, Note_off_c, 0, 55, 64
2, 13015, Note_off_c, 0, 79, 64
2, 13015, Note_on_c, 0, 65, 80
2, 13029, Note_on_c, 0, 62, 67
2, 13044, Note_off_c, 0, 67, 64
2, 13063, Note_off_c, 0, 65, 64
2, 13082, Note_off_c, 0, 62, 64
2, 13125, Note_on_c, 0, 55, 74
2, 13216, Note_on_c, 0, 79, 115
2, 13221, Note_on_c, 0, 67, 108
2, 13236, Note_on_c, 0, 63, 88
2, 13240, Note_on_c, 0, 60, 78
2, 13269, Note_off_c, 0, 55, 64
2, 13307, Note_off_c, 0, 60, 64
2, 13336, Note_off_c, 0, 63, 64
2, 13346, Note_on_c, 0, 55, 85
2, 13437, Note_off_c, 0, 67, 64
2, 13447, Control_c, 0, 64, 127
2, 13447, Note_on_c, 0, 63, 75
2, 13464, Note_on_c, 0, 60, 64
2, 13509, Note_off_c, 0, 55, 64
2, 13560, Note_off_c, 0, 60, 64
2, 13567, Note_off_c, 0, 63, 64
2, 13615, Note_on_c, 0, 55, 50
2, 13658, Note_on_c, 0, 77, 91
2, 13672, Note_off_c, 0, 79, 64
2, 13692, Control_c, 0, 64, 0
2, 13692, Note_on_c, 0, 63, 50
2, 13696, Note_on_c, 0, 75, 83
2, 13706, Note_on_c, 0, 60, 62
2, 13720, Note_off_c, 0, 55, 64
2, 13740, Note_off_c, 0, 77, 64
2, 13740, Note_off_c, 0, 63, 64
2, 13764, Note_on_c, 0, 74, 97
2, 13802, Note_off_c, 0, 74, 64
2, 13807, Note_off_c, 0, 75, 64
2, 13807, Note_on_c, 0, 72, 88
2, 13816, Note_on_c, 0, 55, 56
2, 13826, Note_off_c, 0, 60, 64
2, 13845, Note_off_c, 0, 72, 64
2, 13855, Note_off_c, 0, 55, 64
2, 13908, Note_on_c, 0, 71, 88
2, 13922, Note_on_c, 0, 74, 92
2, 13936, Note_on_c, 0, 80, 105
2, 14095, Note_off_c, 0, 71, 64
2, 14157, Note_off_c, 0, 74, 64
2, 14167, Note_on_c, 0, 41, 105
2, 14172, Note_on_c, 0, 53, 106
2, 14205, Note_off_c, 0, 41, 64
2, 14272, Note_off_c, 0, 53, 64
2, 14277, Control_c, 0, 64, 127
2, 14282, Note_off_c, 0, 80, 64
2, 14416, Note_on_c, 0, 65, 108
2, 14421, Note_on_c, 0, 53, 98
2, 14474, Control_c, 0, 64, 0
2, 14536, Note_off_c, 0, 65, 64
2, 14570, Note_off_c, 0, 53, 64
2, 14613, Note_on_c, 0, 72, 90
2, 14642, Note_on_c, 0, 75, 94
2, 14652, Note_on_c, 0, 79, 111
2, 14863, Note_on_c, 0, 51, 101
2, 14868, Note_on_c, 0, 39, 92
2, 14901, Note_off_c, 0, 39, 64
2, 14920, Note_off_c, 0, 51, 64
2, 15093, Note_on_c, 0, 63, 106
2, 15103, Note_on_c, 0, 51, 102
2, 15141, Note_off_c, 0, 79, 64
2, 15151, Note_off_c, 0, 51, 64
2, 15160, Note_off_c, 0, 63, 64
2, 15213, Note_off_c, 0, 72, 64
2, 15232, Note_off_c, 0, 75, 64
2, 15348, Note_on_c, 0, 62, 109
2, 15348, Note_on_c, 0, 50, 109
2, 15468, Note_off_c, 0, 50, 64
2, 15520, Control_c, 0, 64, 127
2, 15554, Note_on_c, 0, 74, 93
2, 15568, Note_on_c, 0, 77, 103
2, 15573, Note_off_c, 0, 62, 64
2, 15592, Note_on_c, 0, 83, 95
2, 15607, Note_off_c, 0, 77, 64
2, 15607, Note_off_c, 0, 74, 64
2, 15645, Control_c, 0, 64, 0
2, 15688, Note_off_c, 0, 83, 64
2, 15794, Note_on_c, 0, 77, 108
2, 15804, Note_on_c, 0, 83, 86
2, 15813, Note_on_c, 0, 86, 106
2, 15828, Note_off_c, 0, 77, 64
2, 15900, Note_off_c, 0, 83, 64
2, 15914, Note_off_c, 0, 86, 64
2, 16063, Note_on_c, 0, 86, 110
2, 16063, Note_on_c, 0, 79, 111
2, 16068, Note_on_c, 0, 89, 114
2, 16072, Note_on_c, 0, 59, 83
2, 16082, Note_on_c, 0, 47, 71
2, 16092, Note_off_c, 0, 79, 64
2, 16101, Control_c, 0, 64, 127
2, 16116, Note_off_c, 0, 47, 64
2, 16120, Note_off_c, 0, 59, 64
2, 16144, Note_off_c, 0, 86, 64
2, 16149, Note_off_c, 0, 89, 64
2, 16394, Control_c, 0, 64, 0
2, 17978, Note_on_c, 0, 75, 39
2, 18362, Control_c, 0, 64, 127
2, 18871, Note_on_c, 0, 66, 30
2, 18885, Note_on_c, 0, 63, 24
2, 18919, Note_on_c, 0, 60, 16
2, 19034, Note_off_c, 0, 75, 64
2, 19164, Control_c, 0, 64, 0
2, 19298, Control_c, 0, 64, 127
2, 19327, Note_off_c, 0, 60, 64
2, 19365, Note_off_c, 0, 63, 64
2, 19480, Note_off_c, 0, 66, 64
2, 19783, Note_on_c, 0, 65, 31
2, 19784, Note_on_c, 0, 67, 34
2, 19785, Note_on_c, 0, 62, 25
2, 19789, Note_on_c, 0, 59, 16
2, 19898, Control_c, 0, 64, 0
2, 20071, Control_c, 0, 64, 127
2, 20097, Note_off_c, 0, 62, 64
2, 20159, Note_off_c, 0, 67, 64
2, 20186, Note_on_c, 0, 68, 60
2, 20191, Note_off_c, 0, 65, 64
2, 20211, Note_off_c, 0, 59, 64
2, 20287, Note_off_c, 0, 68, 64
2, 20325, Note_on_c, 0, 60, 40
2, 20326, Note_on_c, 0, 63, 44
2, 20330, Note_on_c, 0, 67, 70
2, 20373, Note_off_c, 0, 67, 64
2, 20379, Note_off_c, 0, 63, 64
2, 20388, Note_off_c, 0, 60, 64
2, 20588, Note_on_c, 0, 67, 54
2, 20589, Note_on_c, 0, 63, 61
2, 20599, Note_on_c, 0, 53, 66
2, 20660, Note_off_c, 0, 67, 64
2, 20666, Note_off_c, 0, 53, 64
2, 20666, Note_off_c, 0, 63, 64
2, 20700, Control_c, 0, 64, 0
2, 20719, Note_on_c, 0, 65, 54
2, 20723, Note_on_c, 0, 62, 28
2, 20791, Note_off_c, 0, 65, 64
2, 20795, Note_off_c, 0, 62, 64
2, 20820, Note_on_c, 0, 60, 64
2, 20820, Note_on_c, 0, 63, 78
2, 20826, Note_on_c, 0, 55, 57
2, 20868, Note_off_c, 0, 63, 64
2, 20879, Note_off_c, 0, 55, 64
2, 20882, Note_off_c, 0, 60, 64
2, 21098, Note_on_c, 0, 59, 44
2, 21098, Note_on_c, 0, 62, 50
2, 21103, Note_on_c, 0, 43, 37
2, 21146, Note_off_c, 0, 59, 64
2, 21156, Note_off_c, 0, 62, 64
2, 21160, Note_off_c, 0, 43, 64
2, 21415, Note_on_c, 0, 60, 44
2, 21434, Control_c, 0, 64, 127
2, 21434, Note_on_c, 0, 48, 34
2, 21492, Note_off_c, 0, 60, 64
2, 21501, Note_off_c, 0, 48, 64
2, 21741, Control_c, 0, 64, 0
2, 21967, Note_on_c, 0, 77, 77
2, 22020, Note_on_c, 0, 75, 75
2, 22039, Note_off_c, 0, 77, 64
2, 22072, Note_on_c, 0, 74, 80
2, 22096, Note_off_c, 0, 75, 64
2, 22111, Note_off_c, 0, 74, 64
2, 22116, Note_on_c, 0, 72, 85
2, 22159, Note_off_c, 0, 72, 64
2, 22159, Control_c, 0, 64, 127
2, 22159, Note_on_c, 0, 59, 47
2, 22161, Note_on_c, 0, 62, 52
2, 22168, Note_on_c, 0, 79, 106
2, 22197, Note_off_c, 0, 79, 64
2, 22219, Note_off_c, 0, 62, 64
2, 22221, Note_off_c, 0, 59, 64
2, 22255, Note_on_c, 0, 55, 68
2, 22308, Note_off_c, 0, 55, 64
2, 22341, Control_c, 0, 64, 0
2, 22380, Note_on_c, 0, 63, 64
2, 22388, Note_on_c, 0, 60, 51
2, 22389, Note_on_c, 0, 79, 100
2, 22394, Note_on_c, 0, 67, 88
2, 22423, Note_off_c, 0, 79, 64
2, 22428, Note_off_c, 0, 67, 64
2, 22440, Note_off_c, 0, 60, 64
2, 22471, Note_off_c, 0, 63, 64
2, 22490, Note_on_c, 0, 55, 71
2, 22562, Note_off_c, 0, 55, 64
2, 22620, Note_on_c, 0, 79, 109
2, 22629, Note_on_c, 0, 65, 74
2, 22629, Note_on_c, 0, 67, 101
2, 22630, Note_on_c, 0, 62, 63
2, 22653, Note_off_c, 0, 79, 64
2, 22663, Note_off_c, 0, 67, 64
2, 22678, Note_off_c, 0, 62, 64
2, 22682, Note_off_c, 0, 65, 64
2, 22749, Note_on_c, 0, 55, 73
2, 22884, Note_on_c, 0, 79, 114
2, 22884, Note_on_c, 0, 67, 100
2, 22884, Note_on_c, 0, 63, 75
2, 22893, Note_off_c, 0, 55, 64
2, 22893, Note_on_c, 0, 60, 70
2, 22946, Note_off_c, 0, 60, 64
2, 22956, Note_off_c, 0, 63, 64
2, 22956, Control_c, 0, 64, 127
2, 23023, Note_on_c, 0, 55, 62
2, 23090, Note_off_c, 0, 67, 64
2, 23138, Note_on_c, 0, 63, 72
2, 23144, Note_on_c, 0, 60, 65
2, 23148, Note_off_c, 0, 55, 64
2, 23200, Note_off_c, 0, 63, 64
2, 23212, Note_off_c, 0, 60, 64
2, 23258, Note_on_c, 0, 55, 54
2, 23311, Control_c, 0, 64, 0
2, 23383, Note_off_c, 0, 55, 64
2, 23388, Note_on_c, 0, 63, 69
2, 23392, Note_on_c, 0, 60, 62
2, 23402, Note_on_c, 0, 77, 99
2, 23416, Note_off_c, 0, 79, 64
2, 23440, Note_off_c, 0, 63, 64
2, 23450, Note_on_c, 0, 75, 88
2, 23460, Note_off_c, 0, 60, 64
2, 23484, Note_on_c, 0, 55, 57
2, 23508, Note_off_c, 0, 77, 64
2, 23522, Note_on_c, 0, 74, 91
2, 23556, Note_off_c, 0, 75, 64
2, 23570, Note_on_c, 0, 72, 101
2, 23604, Note_off_c, 0, 55, 64
2, 23604, Note_on_c, 0, 62, 78
2, 23608, Note_off_c, 0, 74, 64
2, 23608, Note_on_c, 0, 59, 70
2, 23637, Note_on_c, 0, 79, 110
2, 23690, Note_off_c, 0, 72, 64
2, 23719, Note_off_c, 0, 79, 64
2, 23719, Note_off_c, 0, 62, 64
2, 23728, Note_on_c, 0, 55, 70
2, 23762, Note_off_c, 0, 59, 64
2, 23868, Note_on_c, 0, 79, 106
2, 23872, Note_on_c, 0, 63, 76
2, 23872, Note_on_c, 0, 67, 77
2, 23877, Note_off_c, 0, 55, 64
2, 23877, Note_on_c, 0, 60, 70
2, 23896, Note_off_c, 0, 79, 64
2, 23911, Note_off_c, 0, 67, 64
2, 23940, Note_off_c, 0, 60, 64
2, 23944, Note_off_c, 0, 63, 64
2, 23973, Note_on_c, 0, 55, 68
2, 24103, Note_on_c, 0, 79, 108
2, 24112, Note_on_c, 0, 67, 91
2, 24122, Note_on_c, 0, 62, 72
2, 24122, Note_on_c, 0, 65, 87
2, 24132, Note_off_c, 0, 55, 64
2, 24132, Note_off_c, 0, 79, 64
2, 24146, Note_off_c, 0, 67, 64
2, 24179, Note_off_c, 0, 62, 64
2, 24184, Note_off_c, 0, 65, 64
2, 24223, Note_on_c, 0, 55, 77
2, 24362, Note_on_c, 0, 79, 116
2, 24367, Note_on_c, 0, 67, 100
2, 24368, Note_on_c, 0, 60, 84
2, 24370, Note_on_c, 0, 63, 86
2, 24400, Note_off_c, 0, 55, 64
2, 24434, Control_c, 0, 64, 127
2, 24440, Note_off_c, 0, 60, 64
2, 24486, Note_off_c, 0, 63, 64
2, 24487, Note_on_c, 0, 55, 73
2, 24501, Note_off_c, 0, 67, 64
2, 24626, Note_on_c, 0, 63, 70
2, 24631, Control_c, 0, 64, 0
2, 24632, Note_on_c, 0, 60, 80
2, 24655, Note_off_c, 0, 55, 64
2, 24698, Note_off_c, 0, 63, 64
2, 24704, Note_off_c, 0, 60, 64
2, 24751, Note_on_c, 0, 55, 62
2, 24856, Note_on_c, 0, 77, 91
2, 24861, Note_on_c, 0, 63, 69
2, 24866, Note_on_c, 0, 60, 75
2, 24871, Note_off_c, 0, 79, 64
2, 24880, Note_off_c, 0, 55, 64
2, 24904, Note_on_c, 0, 75, 86
2, 24938, Note_off_c, 0, 63, 64
2, 24943, Note_off_c, 0, 60, 64
2, 24952, Note_off_c, 0, 77, 64
2, 24976, Note_on_c, 0, 74, 92
2, 24986, Control_c, 0, 64, 127
2, 25010, Note_on_c, 0, 55, 39
2, 25020, Note_off_c, 0, 75, 64
2, 25020, Note_on_c, 0, 72, 103
2, 25029, Note_off_c, 0, 74, 64
2, 25053, Note_off_c, 0, 72, 64
2, 25116, Note_off_c, 0, 55, 64
2, 25120, Note_on_c, 0, 71, 96
2, 25130, Note_on_c, 0, 74, 94
2, 25140, Control_c, 0, 64, 0
2, 25159, Note_on_c, 0, 80, 103
2, 25221, Note_off_c, 0, 71, 64
2, 25341, Note_off_c, 0, 74, 64
2, 25394, Note_on_c, 0, 53, 109
2, 25394, Note_on_c, 0, 41, 106
2, 25423, Note_off_c, 0, 41, 64
2, 25428, Note_off_c, 0, 80, 64
2, 25476, Control_c, 0, 64, 127
2, 25480, Note_off_c, 0, 53, 64
2, 25629, Control_c, 0, 64, 0
2, 25648, Note_on_c, 0, 65, 111
2, 25653, Note_on_c, 0, 53, 105
2, 25783, Note_off_c, 0, 65, 64
2, 25831, Note_off_c, 0, 53, 64
2, 25869, Note_on_c, 0, 72, 102
2, 25888, Note_on_c, 0, 75, 100
2, 25903, Note_on_c, 0, 79, 111
2, 26128, Note_on_c, 0, 51, 105
2, 26128, Note_on_c, 0, 39, 100
2, 26167, Note_off_c, 0, 39, 64
2, 26220, Note_off_c, 0, 51, 64
2, 26272, Control_c, 0, 64, 127
2, 26306, Control_c, 0, 64, 0
2, 26364, Note_on_c, 0, 63, 108
2, 26368, Note_on_c, 0, 51, 104
2, 26378, Note_off_c, 0, 72, 64
2, 26392, Note_off_c, 0, 75, 64
2, 26392, Note_off_c, 0, 79, 64
2, 26412, Note_off_c, 0, 63, 64
2, 26412, Note_off_c, 0, 51, 64
2, 26623, Note_on_c, 0, 62, 113
2, 26623, Note_on_c, 0, 50, 115
2, 26748, Note_off_c, 0, 50, 64
2, 26752, Control_c, 0, 64, 127
2, 26805, Note_off_c, 0, 62, 64
2, 26844, Note_on_c, 0, 74, 81
2, 26853, Note_on_c, 0, 77, 108
2, 26872, Note_on_c, 0, 83, 102
2, 26935, Note_off_c, 0, 74, 64
2, 26935, Control_c, 0, 64, 0
2, 26940, Note_off_c, 0, 77, 64
2, 26968, Note_off_c, 0, 83, 64
2, 27088, Note_on_c, 0, 77, 103
2, 27103, Note_on_c, 0, 83, 94
2, 27108, Note_on_c, 0, 86, 112
2, 27170, Note_off_c, 0, 77, 64
2, 27189, Note_off_c, 0, 83, 64
2, 27232, Note_off_c, 0, 86, 64
2, 27376, Note_on_c, 0, 79, 110
2, 27381, Note_on_c, 0, 86, 111
2, 27400, Note_on_c, 0, 59, 83
2, 27400, Note_on_c, 0, 89, 116
2, 27405, Note_on_c, 0, 47, 73
2, 27444, Control_c, 0, 64, 127
2, 27448, Note_off_c, 0, 79, 64
2, 27487, Note_off_c, 0, 86, 64
2, 27496, Note_off_c, 0, 59, 64
2, 27511, Note_off_c, 0, 89, 64
2, 27511, Note_off_c, 0, 47, 64
2, 27780, Control_c, 0, 64, 0
2, 29364, Note_on_c, 0, 75, 48
2, 29796, Control_c, 0, 64, 127
2, 30261, Note_on_c, 0, 66, 48
2, 30270, Note_on_c, 0, 63, 25
2, 30272, Note_on_c, 0, 60, 26
2, 30405, Note_off_c, 0, 75, 64
2, 30578, Control_c, 0, 64, 0
2, 30699, Note_off_c, 0, 60, 64
2, 30732, Control_c, 0, 64, 127
2, 30760, Note_off_c, 0, 63, 64
2, 30847, Note_off_c, 0, 66, 64
2, 31144, Note_on_c, 0, 67, 50
2, 31148, Note_on_c, 0, 65, 37
2, 31149, Note_on_c, 0, 59, 23
2, 31152, Note_on_c, 0, 62, 26
2, 31269, Control_c, 0, 64, 0
2, 31485, Control_c, 0, 64, 127
2, 31571, Note_off_c, 0, 67, 64
2, 31584, Note_off_c, 0, 65, 64
2, 31600, Note_on_c, 0, 68, 53
2, 31608, Note_off_c, 0, 62, 64
2, 31682, Control_c, 0, 64, 0
2, 31687, Note_off_c, 0, 59, 64
2, 31692, Note_off_c, 0, 68, 64
2, 31740, Note_on_c, 0, 63, 42
2, 31740, Note_on_c, 0, 67, 45
2, 31748, Note_on_c, 0, 60, 33
2, 31773, Control_c, 0, 64, 127
2, 31805, Note_off_c, 0, 60, 64
2, 31812, Note_off_c, 0, 67, 64
2, 31816, Note_off_c, 0, 63, 64
2, 32021, Note_on_c, 0, 67, 65
2, 32023, Note_on_c, 0, 63, 62
2, 32023, Note_on_c, 0, 53, 59
2, 32052, Control_c, 0, 64, 0
2, 32088, Note_off_c, 0, 67, 64
2, 32100, Note_off_c, 0, 63, 64
2, 32148, Note_on_c, 0, 65, 69
2, 32162, Note_on_c, 0, 62, 37
2, 32191, Note_off_c, 0, 53, 64
2, 32205, Note_off_c, 0, 65, 64
2, 32224, Note_off_c, 0, 62, 64
2, 32263, Note_on_c, 0, 60, 59
2, 32263, Note_on_c, 0, 63, 65
2, 32296, Note_on_c, 0, 55, 56
2, 32316, Note_off_c, 0, 63, 64
2, 32349, Note_off_c, 0, 55, 64
2, 32359, Note_off_c, 0, 60, 64
2, 32556, Note_on_c, 0, 62, 51
2, 32560, Note_on_c, 0, 43, 54
2, 32564, Note_on_c, 0, 59, 34
2, 32617, Note_off_c, 0, 59, 64
2, 32618, Note_off_c, 0, 62, 64
2, 32623, Note_off_c, 0, 43, 64
2, 32911, Note_on_c, 0, 48, 31
2, 32916, Note_on_c, 0, 60, 48
2, 33084, Control_c, 0, 64, 127
2, 33122, Note_off_c, 0, 48, 64
2, 33141, Note_off_c, 0, 60, 64
2, 33237, Control_c, 0, 64, 0
2, 33952, Note_on_c, 0, 56, 84
2, 33957, Note_on_c, 0, 62, 95
2, 33957, Note_on_c, 0, 58, 95
2, 33957, Note_on_c, 0, 46, 95
2, 33962, Note_on_c, 0, 34, 94
2, 33962, Note_on_c, 0, 53, 88
2, 33991, Control_c, 0, 64, 127
2, 34000, Note_off_c, 0, 34, 64
2, 34005, Note_off_c, 0, 46, 64
2, 34144, Note_off_c, 0, 53, 64
2, 34274, Note_off_c, 0, 56, 64
2, 34356, Note_off_c, 0, 58, 64
2, 35311, Note_off_c, 0, 62, 64
2, 36117, Note_on_c, 0, 51, 38
2, 36127, Control_c, 0, 64, 0
2, 36300, Note_on_c, 0, 55, 45
2, 36391, Note_off_c, 0, 55, 64
2, 36400, Control_c, 0, 64, 127
2, 36420, Note_on_c, 0, 58, 49
2, 36492, Note_off_c, 0, 58, 64
2, 36516, Note_on_c, 0, 55, 25
2, 36607, Note_off_c, 0, 51, 64
2, 36621, Note_off_c, 0, 55, 64
2, 36645, Note_on_c, 0, 58, 55
2, 36732, Note_off_c, 0, 58, 64
2, 36756, Note_on_c, 0, 55, 19
2, 36861, Control_c, 0, 64, 0
2, 36871, Note_off_c, 0, 55, 64
2, 36885, Note_on_c, 0, 51, 58
2, 36962, Note_off_c, 0, 51, 64
2, 37015, Note_on_c, 0, 55, 38
2, 37077, Control_c, 0, 64, 127
2, 37135, Note_on_c, 0, 70, 84
2, 37135, Note_on_c, 0, 58, 64
2, 37140, Note_off_c, 0, 55, 64
2, 37212, Note_off_c, 0, 58, 64
2, 37216, Note_off_c, 0, 70, 64
2, 37264, Note_on_c, 0, 55, 25
2, 37375, Note_on_c, 0, 70, 94
2, 37399, Note_off_c, 0, 55, 64
2, 37413, Note_on_c, 0, 58, 60
2, 37490, Note_off_c, 0, 70, 64
2, 37490, Note_off_c, 0, 58, 64
2, 37514, Note_on_c, 0, 55, 34
2, 37605, Note_off_c, 0, 55, 64
2, 37677, Note_on_c, 0, 51, 51
2, 37677, Note_on_c, 0, 70, 69
2, 37720, Control_c, 0, 64, 0
2, 37821, Note_on_c, 0, 53, 50
2, 37826, Note_off_c, 0, 70, 64
2, 37836, Note_on_c, 0, 72, 80
2, 37879, Note_off_c, 0, 53, 64
2, 37879, Note_off_c, 0, 72, 64
2, 37884, Note_on_c, 0, 70, 80
2, 37912, Note_on_c, 0, 56, 47
2, 37936, Note_on_c, 0, 69, 82
2, 37941, Note_off_c, 0, 70, 64
2, 37980, Note_off_c, 0, 56, 64
2, 37999, Note_off_c, 0, 69, 64
2, 37999, Note_on_c, 0, 70, 92
2, 38061, Note_on_c, 0, 53, 64
2, 38124, Note_off_c, 0, 53, 64
2, 38124, Note_on_c, 0, 72, 87
2, 38143, Note_off_c, 0, 70, 64
2, 38196, Note_on_c, 0, 56, 61
2, 38229, Note_on_c, 0, 70, 85
2, 38258, Note_off_c, 0, 72, 64
2, 38263, Control_c, 0, 64, 127
2, 38306, Note_off_c, 0, 56, 64
2, 38311, Note_off_c, 0, 51, 64
2, 38368, Note_on_c, 0, 53, 38
2, 38450, Note_off_c, 0, 53, 64
2, 38474, Note_on_c, 0, 51, 56
2, 38503, Note_on_c, 0, 80, 79
2, 38508, Control_c, 0, 64, 0
2, 38527, Note_off_c, 0, 70, 64
2, 38642, Note_on_c, 0, 53, 59
2, 38709, Note_off_c, 0, 53, 64
2, 38757, Note_on_c, 0, 56, 48
2, 38781, Control_c, 0, 64, 127
2, 38829, Note_off_c, 0, 56, 64
2, 38839, Note_off_c, 0, 51, 64
2, 38887, Note_on_c, 0, 53, 58
2, 38954, Note_off_c, 0, 53, 64
2, 39012, Note_on_c, 0, 74, 77
2, 39012, Note_on_c, 0, 56, 54
2, 39031, Note_off_c, 0, 80, 64
2, 39117, Note_off_c, 0, 56, 64
2, 39141, Note_on_c, 0, 53, 52
2, 39204, Note_off_c, 0, 53, 64
2, 39228, Control_c, 0, 64, 0
2, 39261, Note_on_c, 0, 51, 48
2, 39280, Note_on_c, 0, 77, 76
2, 39324, Note_off_c, 0, 74, 64
2, 39424, Note_on_c, 0, 55, 41
2, 39448, Note_off_c, 0, 51, 64
2, 39501, Note_off_c, 0, 55, 64
2, 39535, Note_on_c, 0, 58, 62
2, 39597, Control_c, 0, 64, 127
2, 39607, Note_off_c, 0, 58, 64
2, 39669, Note_on_c, 0, 55, 25
2, 39765, Note_off_c, 0, 55, 64
2, 39789, Note_on_c, 0, 58, 46
2, 39804, Note_off_c, 0, 77, 64
2, 39808, Note_on_c, 0, 75, 43
2, 39828, Control_c, 0, 64, 0
2, 39914, Note_off_c, 0, 58, 64
2, 39957, Note_on_c, 0, 55, 50
2, 40010, Control_c, 0, 64, 127
2, 40020, Note_off_c, 0, 55, 64
2, 40063, Note_off_c, 0, 75, 64
2, 40068, Note_on_c, 0, 51, 52
2, 40164, Control_c, 0, 64, 0
2, 40188, Note_off_c, 0, 51, 64
2, 40221, Note_on_c, 0, 55, 48
2, 40298, Note_off_c, 0, 55, 64
2, 40317, Note_on_c, 0, 58, 60
2, 40317, Note_on_c, 0, 70, 80
2, 40322, Control_c, 0, 64, 127
2, 40384, Note_off_c, 0, 58, 64
2, 40437, Note_on_c, 0, 55, 33
2, 40471, Note_off_c, 0, 70, 64
2, 40552, Note_off_c, 0, 55, 64
2, 40552, Note_on_c, 0, 58, 66
2, 40552, Note_on_c, 0, 70, 78
2, 40639, Note_off_c, 0, 58, 64
2, 40653, Note_on_c, 0, 55, 51
2, 40696, Note_off_c, 0, 70, 64
2, 40740, Note_off_c, 0, 55, 64
2, 40783, Control_c, 0, 64, 0
2, 40797, Note_on_c, 0, 69, 87
2, 40802, Note_on_c, 0, 51, 50
2, 40917, Note_on_c, 0, 70, 91
2, 40927, Note_off_c, 0, 69, 64
2, 40936, Note_on_c, 0, 53, 50
2, 40994, Control_c, 0, 64, 127
2, 40999, Note_off_c, 0, 53, 64
2, 41032, Note_on_c, 0, 72, 93
2, 41042, Note_off_c, 0, 70, 64
2, 41042, Note_on_c, 0, 56, 51
2, 41109, Note_off_c, 0, 56, 64
2, 41152, Note_on_c, 0, 73, 89
2, 41162, Note_off_c, 0, 51, 64
2, 41181, Note_on_c, 0, 53, 49
2, 41186, Note_off_c, 0, 72, 64
2, 41248, Note_off_c, 0, 53, 64
2, 41268, Note_on_c, 0, 74, 94
2, 41282, Note_off_c, 0, 73, 64
2, 41282, Note_on_c, 0, 56, 60
2, 41354, Note_off_c, 0, 56, 64
2, 41368, Note_on_c, 0, 53, 44
2, 41388, Note_on_c, 0, 75, 89
2, 41412, Note_off_c, 0, 74, 64
2, 41445, Note_off_c, 0, 53, 64
2, 41488, Control_c, 0, 64, 0
2, 41498, Note_on_c, 0, 76, 100
2, 41512, Note_off_c, 0, 75, 64
2, 41512, Note_on_c, 0, 51, 60
2, 41608, Note_on_c, 0, 77, 97
2, 41632, Note_on_c, 0, 53, 54
2, 41637, Note_off_c, 0, 76, 64
2, 41714, Note_off_c, 0, 53, 64
2, 41724, Note_off_c, 0, 51, 64
2, 41724, Note_on_c, 0, 78, 95
2, 41728, Note_off_c, 0, 77, 64
2, 41748, Note_on_c, 0, 56, 54
2, 41824, Note_off_c, 0, 56, 64
2, 41839, Note_on_c, 0, 79, 95
2, 41882, Note_off_c, 0, 78, 64
2, 41887, Note_on_c, 0, 53, 54
2, 41959, Note_off_c, 0, 53, 64
2, 41973, Note_on_c, 0, 80, 93
2, 41992, Note_off_c, 0, 79, 64
2, 41997, Note_on_c, 0, 56, 57
2, 42074, Note_off_c, 0, 56, 64
2, 42088, Note_on_c, 0, 74, 92
2, 42112, Note_on_c, 0, 53, 32
2, 42132, Note_off_c, 0, 80, 64
2, 42194, Note_off_c, 0, 53, 64
2, 42247, Note_on_c, 0, 51, 48
2, 42252, Note_on_c, 0, 77, 72
2, 42276, Note_off_c, 0, 74, 64
2, 42400, Note_on_c, 0, 55, 50
2, 42477, Note_off_c, 0, 55, 64
2, 42516, Note_on_c, 0, 58, 53
2, 42583, Note_off_c, 0, 58, 64
2, 42607, Control_c, 0, 64, 127
2, 42626, Note_on_c, 0, 55, 24
2, 42650, Note_off_c, 0, 51, 64
2, 42698, Control_c, 0, 64, 0
2, 42751, Note_off_c, 0, 55, 64
2, 42765, Note_on_c, 0, 58, 57
2, 42794, Note_on_c, 0, 75, 44
2, 42842, Note_off_c, 0, 58, 64
2, 42856, Note_off_c, 0, 77, 64
2, 42909, Note_on_c, 0, 55, 28
2, 43000, Note_off_c, 0, 55, 64
2, 43029, Note_on_c, 0, 51, 50
2, 43116, Control_c, 0, 64, 127
2, 43130, Note_off_c, 0, 51, 64
2, 43135, Note_off_c, 0, 75, 64
2, 43168, Note_on_c, 0, 55, 34
2, 43269, Note_off_c, 0, 55, 64
2, 43279, Note_on_c, 0, 75, 66
2, 43284, Note_on_c, 0, 58, 55
2, 43356, Note_off_c, 0, 58, 64
2, 43394, Note_on_c, 0, 55, 26
2, 43428, Note_off_c, 0, 75, 64
2, 43490, Note_off_c, 0, 55, 64
2, 43524, Note_on_c, 0, 58, 67
2, 43533, Note_on_c, 0, 75, 75
2, 43620, Note_on_c, 0, 55, 40
2, 43644, Note_off_c, 0, 58, 64
2, 43692, Note_off_c, 0, 55, 64
2, 43692, Note_off_c, 0, 75, 64
2, 43792, Note_on_c, 0, 47, 65
2, 43807, Note_on_c, 0, 75, 72
2, 43884, Control_c, 0, 64, 0
2, 43951, Note_on_c, 0, 51, 72
2, 44018, Note_off_c, 0, 51, 64
2, 44100, Control_c, 0, 64, 127
2, 44110, Note_on_c, 0, 57, 55
2, 44210, Note_off_c, 0, 75, 64
2, 44216, Note_off_c, 0, 57, 64
2, 44239, Note_on_c, 0, 77, 78
2, 44277, Note_on_c, 0, 75, 76
2, 44287, Note_off_c, 0, 77, 64
2, 44303, Note_on_c, 0, 51, 57
2, 44354, Note_on_c, 0, 74, 84
2, 44364, Note_off_c, 0, 75, 64
2, 44380, Note_off_c, 0, 51, 64
2, 44383, Note_off_c, 0, 47, 64
2, 44412, Note_off_c, 0, 74, 64
2, 44426, Note_on_c, 0, 75, 97
2, 44436, Note_on_c, 0, 57, 32
2, 44541, Note_on_c, 0, 77, 104
2, 44565, Note_off_c, 0, 75, 64
2, 44575, Note_off_c, 0, 57, 64
2, 44575, Note_on_c, 0, 51, 62
2, 44680, Note_off_c, 0, 51, 64
2, 44724, Note_on_c, 0, 78, 79
2, 44728, Control_c, 0, 64, 0
2, 44733, Note_off_c, 0, 77, 64
2, 44743, Note_on_c, 0, 47, 52
2, 44896, Note_on_c, 0, 51, 57
2, 44968, Note_off_c, 0, 51, 64
2, 45002, Note_on_c, 0, 54, 49
2, 45084, Note_off_c, 0, 54, 64
2, 45084, Control_c, 0, 64, 127
2, 45132, Note_on_c, 0, 51, 55
2, 45223, Note_off_c, 0, 51, 64
2, 45271, Note_on_c, 0, 54, 47
2, 45295, Note_on_c, 0, 69, 58
2, 45304, Note_off_c, 0, 78, 64
2, 45400, Note_on_c, 0, 51, 52
2, 45405, Note_off_c, 0, 47, 64
2, 45472, Note_off_c, 0, 54, 64
2, 45496, Control_c, 0, 64, 0
2, 45520, Note_off_c, 0, 51, 64
2, 45573, Note_on_c, 0, 70, 66
2, 45588, Note_off_c, 0, 69, 64
2, 45592, Note_on_c, 0, 46, 52
2, 45592, Note_on_c, 0, 50, 54
2, 45852, Note_off_c, 0, 50, 64
2, 45871, Note_off_c, 0, 70, 64
2, 45880, Note_on_c, 0, 58, 52
2, 45928, Note_off_c, 0, 46, 64
2, 46024, Note_on_c, 0, 70, 72
2, 46149, Note_off_c, 0, 70, 64
2, 46168, Note_on_c, 0, 69, 59
2, 46212, Note_off_c, 0, 58, 64
2, 46264, Note_on_c, 0, 70, 72
2, 46279, Note_off_c, 0, 69, 64
2, 46404, Note_on_c, 0, 71, 76
2, 46413, Note_off_c, 0, 70, 64
2, 46528, Note_on_c, 0, 72, 92
2, 46552, Note_off_c, 0, 71, 64
2, 46644, Note_on_c, 0, 73, 83
2, 46648, Note_off_c, 0, 72, 64
2, 46768, Note_off_c, 0, 73, 64
2, 46773, Note_on_c, 0, 74, 81
2, 46898, Note_on_c, 0, 63, 56
2, 46898, Note_on_c, 0, 75, 68
2, 46903, Note_off_c, 0, 74, 64
2, 46917, Note_on_c, 0, 59, 47
2, 47028, Note_on_c, 0, 69, 63
2, 47042, Note_off_c, 0, 75, 64
2, 47066, Note_off_c, 0, 63, 64
2, 47085, Note_off_c, 0, 59, 64
2, 47095, Note_off_c, 0, 69, 64
2, 47157, Note_on_c, 0, 70, 76
2, 47167, Note_on_c, 0, 58, 55
2, 47172, Control_c, 0, 64, 127
2, 47172, Note_on_c, 0, 62, 46
2, 47277, Note_off_c, 0, 62, 64
2, 47287, Note_off_c, 0, 70, 64
2, 47287, Note_off_c, 0, 58, 64
2, 47479, Note_on_c, 0, 46, 55
2, 47556, Control_c, 0, 64, 0
2, 47560, Note_on_c, 0, 58, 74
2, 47671, Note_off_c, 0, 58, 64
2, 47695, Note_on_c, 0, 57, 66
2, 47738, Note_off_c, 0, 46, 64
2, 47824, Note_on_c, 0, 58, 82
2, 47829, Note_off_c, 0, 57, 64
2, 47920, Note_off_c, 0, 58, 64
2, 47935, Note_on_c, 0, 59, 64
2, 48064, Note_off_c, 0, 59, 64
2, 48064, Note_on_c, 0, 60, 65
2, 48132, Note_off_c, 0, 60, 64
2, 48160, Note_on_c, 0, 61, 60
2, 48237, Note_off_c, 0, 61, 64
2, 48276, Note_on_c, 0, 62, 64
2, 48357, Note_off_c, 0, 62, 64
2, 48410, Note_on_c, 0, 63, 60
2, 48434, Note_on_c, 0, 51, 44
2, 48444, Note_on_c, 0, 47, 43
2, 48496, Note_off_c, 0, 63, 64
2, 48544, Note_on_c, 0, 57, 60
2, 48583, Note_off_c, 0, 51, 64
2, 48621, Note_off_c, 0, 57, 64
2, 48621, Note_off_c, 0, 47, 64
2, 48674, Note_on_c, 0, 58, 58
2, 48684, Note_on_c, 0, 46, 54
2, 48693, Note_on_c, 0, 50, 45
2, 48813, Note_off_c, 0, 50, 64
2, 48818, Note_off_c, 0, 58, 64
2, 48828, Note_off_c, 0, 46, 64
2, 48832, Control_c, 0, 64, 127
2, 48967, Note_on_c, 0, 34, 75
2, 49092, Control_c, 0, 64, 0
2, 49120, Note_on_c, 0, 81, 73
2, 49221, Note_off_c, 0, 34, 64
2, 49221, Note_on_c, 0, 82, 94
2, 49240, Note_off_c, 0, 81, 64
2, 49356, Note_on_c, 0, 81, 75
2, 49370, Note_off_c, 0, 82, 64
2, 49509, Note_off_c, 0, 81, 64
2, 49533, Note_on_c, 0, 82, 73
2, 49663, Note_off_c, 0, 82, 64
2, 49677, Control_c, 0, 64, 127
2, 49792, Note_on_c, 0, 58, 71
2, 49816, Control_c, 0, 64, 0
2, 49917, Note_on_c, 0, 69, 73
2, 50004, Note_off_c, 0, 58, 64
2, 50018, Note_on_c, 0, 70, 87
2, 50023, Note_off_c, 0, 69, 64
2, 50138, Note_on_c, 0, 69, 71
2, 50162, Note_off_c, 0, 70, 64
2, 50282, Note_off_c, 0, 69, 64
2, 50296, Note_on_c, 0, 70, 69
2, 50431, Control_c, 0, 64, 127
2, 50440, Note_off_c, 0, 70, 64
2, 50522, Control_c, 0, 64, 0
2, 50560, Note_on_c, 0, 46, 52
2, 50733, Note_on_c, 0, 57, 44
2, 50820, Note_off_c, 0, 57, 64
2, 50834, Note_on_c, 0, 58, 64
2, 50844, Note_off_c, 0, 46, 64
2, 50944, Note_off_c, 0, 58, 64
2, 50973, Note_on_c, 0, 57, 48
2, 51127, Note_off_c, 0, 57, 64
2, 51132, Note_on_c, 0, 58, 62
2, 51256, Control_c, 0, 64, 127
2, 51314, Note_off_c, 0, 58, 64
2, 51415, Note_on_c, 0, 34, 68
2, 51429, Control_c, 0, 64, 0
2, 51573, Note_on_c, 0, 45, 82
2, 51693, Note_on_c, 0, 46, 91
2, 51698, Note_off_c, 0, 45, 64
2, 51784, Note_off_c, 0, 34, 64
2, 51818, Note_on_c, 0, 45, 81
2, 51837, Note_off_c, 0, 46, 64
2, 51928, Note_off_c, 0, 45, 64
2, 51962, Note_on_c, 0, 46, 102
2, 52082, Note_off_c, 0, 46, 64
2, 52092, Note_on_c, 0, 47, 86
2, 52202, Note_off_c, 0, 47, 64
2, 52231, Note_on_c, 0, 48, 90
2, 52293, Note_off_c, 0, 48, 64
2, 52346, Note_on_c, 0, 46, 106
2, 52461, Note_off_c, 0, 46, 64
2, 52480, Note_on_c, 0, 44, 89
2, 52586, Note_off_c, 0, 44, 64
2, 52624, Note_on_c, 0, 43, 67
2, 52700, Note_off_c, 0, 43, 64
2, 52749, Note_on_c, 0, 41, 100
2, 52840, Note_off_c, 0, 41, 64
2, 52860, Note_on_c, 0, 39, 88
2, 52956, Note_off_c, 0, 39, 64
2, 52989, Note_on_c, 0, 38, 89
2, 53080, Note_off_c, 0, 38, 64
2, 53121, Note_on_c, 0, 36, 91
2, 53178, Note_off_c, 0, 36, 64
2, 53250, Note_on_c, 0, 34, 88
2, 53308, Note_off_c, 0, 34, 64
2, 53378, Note_on_c, 0, 32, 84
2, 53479, Note_off_c, 0, 32, 64
2, 53575, Note_on_c, 0, 31, 118
2, 54055, Control_c, 0, 64, 127
2, 54175, Note_off_c, 0, 31, 64
2, 54751, Note_on_c, 0, 87, 106
2, 54751, Note_on_c, 0, 75, 98
2, 54765, Note_on_c, 0, 43, 92
2, 55024, Control_c, 0, 64, 0
2, 55389, Control_c, 0, 64, 127
2, 55644, Note_off_c, 0, 43, 64
2, 55653, Control_c, 0, 64, 0
2, 55764, Note_on_c, 0, 44, 47
2, 55802, Note_off_c, 0, 87, 64
2, 55821, Control_c, 0, 64, 127
2, 55874, Note_off_c, 0, 75, 64
2, 56047, Note_on_c, 0, 83, 52
2, 56052, Control_c, 0, 64, 0
2, 56056, Note_on_c, 0, 71, 31
2, 56176, Note_off_c, 0, 71, 64
2, 56191, Control_c, 0, 64, 127
2, 56215, Note_off_c, 0, 83, 64
2, 56220, Note_off_c, 0, 44, 64
2, 56320, Note_on_c, 0, 84, 81
2, 56330, Note_on_c, 0, 72, 84
2, 56354, Note_off_c, 0, 84, 64
2, 56383, Note_off_c, 0, 72, 64
2, 56580, Note_on_c, 0, 76, 99
2, 56589, Note_on_c, 0, 64, 73
2, 56599, Note_on_c, 0, 60, 51
2, 56599, Note_on_c, 0, 56, 48
2, 56752, Note_off_c, 0, 64, 64
2, 56776, Note_off_c, 0, 76, 64
2, 56853, Note_on_c, 0, 77, 104
2, 56868, Control_c, 0, 64, 0
2, 56872, Note_on_c, 0, 65, 78
2, 56973, Note_off_c, 0, 65, 64
2, 56973, Control_c, 0, 64, 127
2, 57007, Note_off_c, 0, 77, 64
2, 57117, Note_on_c, 0, 80, 92
2, 57127, Note_off_c, 0, 56, 64
2, 57132, Note_on_c, 0, 68, 67
2, 57141, Note_off_c, 0, 60, 64
2, 57189, Note_off_c, 0, 68, 64
2, 57204, Control_c, 0, 64, 0
2, 57295, Control_c, 0, 64, 127
2, 57376, Note_off_c, 0, 80, 64
2, 57400, Note_on_c, 0, 75, 87
2, 57434, Control_c, 0, 64, 0
2, 57909, Note_on_c, 0, 66, 41
2, 57943, Note_on_c, 0, 57, 34
2, 58068, Control_c, 0, 64, 127
2, 58101, Note_off_c, 0, 66, 64
2, 58154, Note_off_c, 0, 57, 64
2, 58221, Note_on_c, 0, 67, 47
2, 58240, Note_on_c, 0, 58, 34
2, 58250, Control_c, 0, 64, 0
2, 58524, Note_off_c, 0, 67, 64
2, 58543, Control_c, 0, 64, 127
2, 58696, Control_c, 0, 64, 0
2, 58744, Note_on_c, 0, 68, 35
2, 58749, Note_on_c, 0, 79, 50
2, 58764, Note_off_c, 0, 58, 64
2, 58764, Note_off_c, 0, 75, 64
2, 58769, Note_on_c, 0, 74, 24
2, 58816, Control_c, 0, 64, 127
2, 58860, Note_off_c, 0, 74, 64
2, 58922, Note_on_c, 0, 77, 56
2, 58936, Note_off_c, 0, 79, 64
2, 58989, Control_c, 0, 64, 0
2, 58994, Note_off_c, 0, 68, 64
2, 59004, Note_off_c, 0, 77, 64
2, 59061, Note_on_c, 0, 51, 53
2, 59066, Note_on_c, 0, 75, 56
2, 59196, Note_on_c, 0, 58, 64
2, 59210, Note_off_c, 0, 75, 64
2, 59258, Note_off_c, 0, 58, 64
2, 59272, Note_off_c, 0, 51, 64
2, 59344, Note_on_c, 0, 55, 39
2, 59407, Note_off_c, 0, 55, 64
2, 59440, Note_on_c, 0, 58, 60
2, 59450, Note_on_c, 0, 75, 66
2, 59512, Note_off_c, 0, 58, 64
2, 59584, Note_off_c, 0, 75, 64
2, 59584, Note_on_c, 0, 74, 68
2, 59599, Note_on_c, 0, 55, 36
2, 59656, Note_off_c, 0, 74, 64
2, 59666, Note_off_c, 0, 55, 64
2, 59690, Note_on_c, 0, 75, 67
2, 59690, Note_on_c, 0, 58, 67
2, 59743, Note_off_c, 0, 75, 64
2, 59757, Note_off_c, 0, 58, 64
2, 59829, Note_on_c, 0, 76, 94
2, 59839, Note_on_c, 0, 50, 63
2, 59968, Note_on_c, 0, 58, 72
2, 59973, Note_off_c, 0, 50, 64
2, 59992, Note_off_c, 0, 76, 64
2, 59992, Note_on_c, 0, 77, 66
2, 60040, Note_off_c, 0, 58, 64
2, 60079, Note_on_c, 0, 56, 52
2, 60127, Note_off_c, 0, 77, 64
2, 60146, Note_off_c, 0, 56, 64
2, 60208, Note_on_c, 0, 58, 68
2, 60228, Note_on_c, 0, 77, 80
2, 60276, Note_off_c, 0, 58, 64
2, 60285, Note_off_c, 0, 77, 64
2, 60328, Note_on_c, 0, 50, 52
2, 60362, Note_on_c, 0, 76, 70
2, 60386, Note_off_c, 0, 50, 64
2, 60415, Note_off_c, 0, 76, 64
2, 60463, Note_on_c, 0, 58, 51
2, 60482, Note_on_c, 0, 77, 79
2, 60530, Note_off_c, 0, 77, 64
2, 60540, Note_off_c, 0, 58, 64
2, 60616, Note_on_c, 0, 78, 69
2, 60631, Note_on_c, 0, 49, 49
2, 60751, Note_on_c, 0, 58, 59
2, 60760, Note_off_c, 0, 78, 64
2, 60780, Note_on_c, 0, 79, 59
2, 60828, Note_off_c, 0, 58, 64
2, 60832, Note_off_c, 0, 49, 64
2, 60861, Note_off_c, 0, 79, 64
2, 60876, Note_on_c, 0, 51, 57
2, 60948, Note_off_c, 0, 51, 64
2, 61000, Note_on_c, 0, 58, 67
2, 61020, Note_on_c, 0, 79, 79
2, 61058, Note_off_c, 0, 79, 64
2, 61096, Note_off_c, 0, 58, 64
2, 61130, Note_on_c, 0, 78, 86
2, 61130, Note_on_c, 0, 49, 66
2, 61178, Note_off_c, 0, 78, 64
2, 61197, Note_off_c, 0, 49, 64
2, 61255, Note_on_c, 0, 79, 89
2, 61260, Note_on_c, 0, 58, 80
2, 61288, Note_off_c, 0, 79, 64
2, 61322, Note_off_c, 0, 58, 64
2, 61389, Note_on_c, 0, 79, 81
2, 61394, Note_on_c, 0, 48, 72
2, 61514, Note_off_c, 0, 79, 64
2, 61514, Note_on_c, 0, 56, 53
2, 61543, Note_on_c, 0, 80, 71
2, 61557, Note_off_c, 0, 48, 64
2, 61605, Note_off_c, 0, 56, 64
2, 61663, Note_on_c, 0, 51, 56
2, 61696, Note_off_c, 0, 80, 64
2, 61725, Note_off_c, 0, 51, 64
2, 61768, Note_on_c, 0, 56, 67
2, 61778, Note_on_c, 0, 80, 78
2, 61826, Note_off_c, 0, 56, 64
2, 61850, Note_off_c, 0, 80, 64
2, 61903, Note_on_c, 0, 48, 73
2, 61912, Note_on_c, 0, 79, 93
2, 61951, Note_off_c, 0, 48, 64
2, 61965, Note_off_c, 0, 79, 64
2, 62023, Note_on_c, 0, 56, 69
2, 62028, Note_on_c, 0, 80, 96
2, 62071, Note_off_c, 0, 56, 64
2, 62071, Note_off_c, 0, 80, 64
2, 62172, Note_on_c, 0, 82, 104
2, 62186, Note_on_c, 0, 43, 56
2, 62311, Note_on_c, 0, 79, 79
2, 62340, Note_off_c, 0, 82, 64
2, 62440, Note_off_c, 0, 79, 64
2, 62450, Note_on_c, 0, 87, 68
2, 62484, Note_off_c, 0, 43, 64
2, 62493, Note_off_c, 0, 87, 64
2, 62575, Note_on_c, 0, 87, 60
2, 62623, Note_off_c, 0, 87, 64
2, 62714, Note_on_c, 0, 87, 68
2, 62757, Note_off_c, 0, 87, 64
2, 62868, Note_on_c, 0, 87, 73
2, 62911, Note_off_c, 0, 87, 64
2, 63007, Note_on_c, 0, 65, 60
2, 63007, Note_on_c, 0, 56, 51
2, 63151, Note_on_c, 0, 77, 64
2, 63252, Note_off_c, 0, 65, 64
2, 63252, Note_off_c, 0, 77, 64
2, 63285, Note_on_c, 0, 84, 75
2, 63295, Note_off_c, 0, 56, 64
2, 63324, Note_off_c, 0, 84, 64
2, 63400, Note_on_c, 0, 84, 75
2, 63453, Note_off_c, 0, 84, 64
2, 63544, Note_on_c, 0, 84, 76
2, 63592, Note_off_c, 0, 84, 64
2, 63698, Note_on_c, 0, 84, 71
2, 63751, Note_off_c, 0, 84, 64
2, 63828, Note_on_c, 0, 67, 57
2, 63832, Note_on_c, 0, 58, 52
2, 63972, Note_on_c, 0, 75, 64
2, 64077, Note_off_c, 0, 67, 64
2, 64092, Note_off_c, 0, 75, 64
2, 64120, Note_on_c, 0, 82, 79
2, 64130, Note_off_c, 0, 58, 64
2, 64168, Note_off_c, 0, 82, 64
2, 64250, Note_on_c, 0, 82, 76
2, 64303, Note_off_c, 0, 82, 64
2, 64394, Note_on_c, 0, 82, 71
2, 64452, Note_off_c, 0, 82, 64
2, 64538, Note_on_c, 0, 82, 71
2, 64586, Note_off_c, 0, 82, 64
2, 64668, Note_on_c, 0, 58, 50
2, 64692, Note_on_c, 0, 65, 41
2, 64778, Control_c, 0, 64, 127
2, 64826, Note_on_c, 0, 68, 62
2, 64884, Note_off_c, 0, 65, 64
2, 64927, Note_off_c, 0, 68, 64
2, 64956, Note_off_c, 0, 58, 64
2, 64984, Note_on_c, 0, 74, 64
2, 64994, Control_c, 0, 64, 0
2, 65028, Note_off_c, 0, 74, 64
2, 65095, Note_on_c, 0, 74, 87
2, 65133, Note_off_c, 0, 74, 64
2, 65229, Note_on_c, 0, 74, 85
2, 65277, Note_off_c, 0, 74, 64
2, 65359, Note_on_c, 0, 74, 91
2, 65436, Note_off_c, 0, 74, 64
2, 65532, Note_on_c, 0, 51, 87
2, 65536, Note_on_c, 0, 75, 98
2, 65546, Note_on_c, 0, 70, 74
2, 65546, Note_on_c, 0, 67, 83
2, 65642, Control_c, 0, 64, 127
2, 65680, Note_on_c, 0, 58, 88
2, 65690, Note_off_c, 0, 70, 64
2, 65704, Note_off_c, 0, 75, 64
2, 65719, Note_off_c, 0, 51, 64
2, 65728, Note_off_c, 0, 67, 64
2, 65772, Note_off_c, 0, 58, 64
2, 65829, Note_on_c, 0, 55, 72
2, 65872, Control_c, 0, 64, 0
2, 65892, Note_off_c, 0, 55, 64
2, 65959, Note_on_c, 0, 58, 67
2, 65968, Note_on_c, 0, 63, 71
2, 66040, Note_off_c, 0, 58, 64
2, 66055, Note_off_c, 0, 63, 64
2, 66103, Note_on_c, 0, 51, 57
2, 66108, Note_on_c, 0, 62, 64
2, 66165, Note_off_c, 0, 51, 64
2, 66204, Note_off_c, 0, 62, 64
2, 66213, Note_on_c, 0, 58, 57
2, 66232, Note_on_c, 0, 63, 73
2, 66300, Note_off_c, 0, 58, 64
2, 66362, Note_on_c, 0, 64, 89
2, 66372, Note_on_c, 0, 50, 55
2, 66386, Note_off_c, 0, 63, 64
2, 66487, Note_off_c, 0, 64, 64
2, 66501, Note_on_c, 0, 58, 57
2, 66516, Note_on_c, 0, 65, 72
2, 66525, Note_off_c, 0, 50, 64
2, 66573, Note_off_c, 0, 65, 64
2, 66573, Note_off_c, 0, 58, 64
2, 66621, Note_on_c, 0, 56, 50
2, 66684, Note_off_c, 0, 56, 64
2, 66746, Note_on_c, 0, 58, 68
2, 66760, Note_on_c, 0, 65, 64
2, 66813, Note_off_c, 0, 65, 64
2, 66818, Note_off_c, 0, 58, 64
2, 66876, Note_on_c, 0, 50, 59
2, 66885, Note_on_c, 0, 64, 43
2, 66938, Note_off_c, 0, 64, 64
2, 66943, Note_off_c, 0, 50, 64
2, 66991, Note_on_c, 0, 58, 59
2, 66991, Note_on_c, 0, 65, 79
2, 67068, Note_off_c, 0, 65, 64
2, 67096, Note_off_c, 0, 58, 64
2, 67125, Note_on_c, 0, 66, 83
2, 67130, Note_on_c, 0, 49, 62
2, 67264, Note_on_c, 0, 58, 73
2, 67269, Note_off_c, 0, 66, 64
2, 67288, Note_on_c, 0, 67, 63
2, 67298, Note_off_c, 0, 49, 64
2, 67336, Note_off_c, 0, 58, 64
2, 67346, Note_off_c, 0, 67, 64
2, 67394, Note_on_c, 0, 51, 62
2, 67471, Note_off_c, 0, 51, 64
2, 67524, Note_on_c, 0, 67, 83
2, 67533, Note_on_c, 0, 58, 65
2, 67581, Note_off_c, 0, 67, 64
2, 67610, Note_off_c, 0, 58, 64
2, 67648, Note_on_c, 0, 66, 81
2, 67663, Note_on_c, 0, 49, 56
2, 67720, Note_off_c, 0, 66, 64
2, 67754, Note_off_c, 0, 49, 64
2, 67768, Note_on_c, 0, 67, 92
2, 67773, Note_on_c, 0, 58, 69
2, 67807, Note_off_c, 0, 67, 64
2, 67879, Note_off_c, 0, 58, 64
2, 67903, Note_on_c, 0, 67, 83
2, 67917, Note_on_c, 0, 48, 65
2, 68042, Note_on_c, 0, 56, 54
2, 68052, Note_off_c, 0, 67, 64
2, 68056, Note_on_c, 0, 68, 73
2, 68100, Note_off_c, 0, 48, 64
2, 68128, Note_off_c, 0, 56, 64
2, 68172, Note_off_c, 0, 68, 64
2, 68181, Note_on_c, 0, 51, 54
2, 68253, Note_off_c, 0, 51, 64
2, 68287, Note_on_c, 0, 68, 79
2, 68296, Note_on_c, 0, 56, 62
2, 68354, Note_off_c, 0, 56, 64
2, 68364, Note_off_c, 0, 68, 64
2, 68412, Note_on_c, 0, 67, 91
2, 68426, Note_on_c, 0, 48, 76
2, 68460, Note_off_c, 0, 67, 64
2, 68474, Note_off_c, 0, 48, 64
2, 68532, Note_on_c, 0, 68, 95
2, 68560, Note_on_c, 0, 56, 63
2, 68608, Note_off_c, 0, 56, 64
2, 68613, Note_off_c, 0, 68, 64
2, 68676, Note_on_c, 0, 70, 100
2, 68685, Note_on_c, 0, 43, 70
2, 68810, Note_on_c, 0, 67, 76
2, 68820, Note_off_c, 0, 70, 64
2, 68920, Note_off_c, 0, 67, 64
2, 68935, Note_on_c, 0, 75, 78
2, 68973, Note_off_c, 0, 43, 64
2, 68983, Note_off_c, 0, 75, 64
2, 69074, Note_on_c, 0, 75, 71
2, 69127, Note_off_c, 0, 75, 64
2, 69204, Note_on_c, 0, 75, 73
2, 69266, Note_off_c, 0, 75, 64
2, 69343, Note_on_c, 0, 75, 76
2, 69386, Note_off_c, 0, 75, 64
2, 69487, Note_on_c, 0, 53, 59
2, 69492, Note_on_c, 0, 44, 51
2, 69597, Note_on_c, 0, 65, 82
2, 69727, Note_off_c, 0, 65, 64
2, 69751, Note_on_c, 0, 72, 74
2, 69765, Note_off_c, 0, 53, 64
2, 69794, Note_off_c, 0, 72, 64
2, 69823, Note_off_c, 0, 44, 64
2, 69861, Note_on_c, 0, 72, 89
2, 69914, Note_off_c, 0, 72, 64
2, 70015, Note_on_c, 0, 72, 72
2, 70063, Note_off_c, 0, 72, 64
2, 70154, Note_on_c, 0, 72, 73
2, 70202, Note_off_c, 0, 72, 64
2, 70293, Note_on_c, 0, 46, 59
2, 70293, Note_on_c, 0, 55, 58
2, 70423, Note_on_c, 0, 63, 66
2, 70509, Note_off_c, 0, 63, 64
2, 70567, Note_on_c, 0, 70, 73
2, 70586, Note_off_c, 0, 55, 64
2, 70615, Note_off_c, 0, 70, 64
2, 70639, Note_off_c, 0, 46, 64
2, 70687, Note_on_c, 0, 70, 61
2, 70749, Note_off_c, 0, 70, 64
2, 70831, Note_on_c, 0, 70, 66
2, 70888, Note_off_c, 0, 70, 64
2, 70975, Note_on_c, 0, 70, 63
2, 71032, Note_off_c, 0, 70, 64
2, 71138, Note_on_c, 0, 46, 50
2, 71138, Note_on_c, 0, 53, 45
2, 71292, Note_on_c, 0, 56, 53
2, 71432, Note_off_c, 0, 56, 64
2, 71450, Note_on_c, 0, 62, 51
2, 71498, Note_off_c, 0, 62, 64
2, 71527, Note_off_c, 0, 46, 64
2, 71527, Note_off_c, 0, 53, 64
2, 71556, Note_on_c, 0, 62, 84
2, 71604, Note_off_c, 0, 62, 64
2, 71700, Note_on_c, 0, 62, 69
2, 71757, Note_off_c, 0, 62, 64
2, 71839, Note_on_c, 0, 62, 72
2, 71906, Note_off_c, 0, 62, 64
2, 72007, Note_on_c, 0, 51, 43
2, 72007, Note_on_c, 0, 63, 48
2, 72146, Note_on_c, 0, 58, 63
2, 72160, Note_off_c, 0, 63, 64
2, 72232, Note_off_c, 0, 58, 64
2, 72280, Control_c, 0, 64, 127
2, 72288, Note_on_c, 0, 55, 63
2, 72324, Control_c, 0, 64, 0
2, 72352, Note_off_c, 0, 51, 64
2, 72374, Note_off_c, 0, 55, 64
2, 72405, Note_on_c, 0, 58, 56
2, 72496, Note_off_c, 0, 58, 64
2, 72549, Note_on_c, 0, 55, 54
2, 72616, Note_off_c, 0, 55, 64
2, 72655, Note_on_c, 0, 58, 67
2, 72727, Note_off_c, 0, 58, 64
2, 72780, Note_on_c, 0, 46, 80
2, 72804, Note_on_c, 0, 56, 50
2, 72813, Control_c, 0, 64, 127
2, 72904, Note_off_c, 0, 56, 64
2, 72928, Note_on_c, 0, 58, 61
2, 73024, Note_off_c, 0, 58, 64
2, 73048, Control_c, 0, 64, 0
2, 73053, Note_on_c, 0, 48, 86
2, 73068, Note_on_c, 0, 56, 62
2, 73144, Note_off_c, 0, 46, 64
2, 73159, Note_off_c, 0, 56, 64
2, 73188, Note_on_c, 0, 58, 78
2, 73216, Control_c, 0, 64, 127
2, 73279, Note_off_c, 0, 58, 64
2, 73293, Control_c, 0, 64, 0
2, 73303, Note_on_c, 0, 50, 92
2, 73317, Note_on_c, 0, 56, 64
2, 73360, Note_off_c, 0, 48, 64
2, 73408, Note_off_c, 0, 56, 64
2, 73437, Note_on_c, 0, 58, 72
2, 73548, Note_off_c, 0, 50, 64
2, 73557, Note_off_c, 0, 58, 64
2, 73572, Note_on_c, 0, 51, 73
2, 73600, Note_on_c, 0, 55, 57
2, 73711, Note_on_c, 0, 58, 65
2, 73730, Note_off_c, 0, 55, 64
2, 73816, Control_c, 0, 64, 127
2, 73821, Note_off_c, 0, 51, 64
2, 73864, Note_off_c, 0, 58, 64
2, 73879, Note_on_c, 0, 55, 50
2, 73975, Note_on_c, 0, 58, 45
2, 73980, Note_off_c, 0, 55, 64
2, 74013, Control_c, 0, 64, 0
2, 74128, Note_off_c, 0, 58, 64
2, 74133, Note_on_c, 0, 55, 51
2, 74196, Control_c, 0, 64, 127
2, 74229, Note_on_c, 0, 58, 51
2, 74268, Note_off_c, 0, 55, 64
2, 74368, Control_c, 0, 64, 0
2, 74378, Note_off_c, 0, 58, 64
2, 74378, Note_on_c, 0, 70, 72
2, 74388, Note_on_c, 0, 56, 65
2, 74508, Note_on_c, 0, 58, 45
2, 74517, Note_off_c, 0, 56, 64
2, 74565, Control_c, 0, 64, 127
2, 74628, Control_c, 0, 64, 0
2, 74647, Note_on_c, 0, 72, 82
2, 74652, Note_on_c, 0, 56, 45
2, 74661, Note_off_c, 0, 58, 64
2, 74733, Note_off_c, 0, 70, 64
2, 74781, Note_on_c, 0, 58, 50
2, 74800, Note_off_c, 0, 56, 64
2, 74815, Control_c, 0, 64, 127
2, 74892, Control_c, 0, 64, 0
2, 74896, Note_on_c, 0, 56, 44
2, 74901, Note_off_c, 0, 58, 64
2, 74911, Note_off_c, 0, 72, 64
2, 74920, Note_on_c, 0, 74, 75
2, 75031, Note_off_c, 0, 56, 64
2, 75040, Note_on_c, 0, 58, 48
2, 75060, Control_c, 0, 64, 127
2, 75160, Note_off_c, 0, 58, 64
2, 75184, Control_c, 0, 64, 0
2, 75189, Note_on_c, 0, 55, 43
2, 75204, Note_off_c, 0, 74, 64
2, 75213, Note_on_c, 0, 75, 51
2, 75295, Note_off_c, 0, 55, 64
2, 75309, Note_on_c, 0, 58, 45
2, 75396, Control_c, 0, 64, 127
2, 75424, Note_off_c, 0, 58, 64
2, 75458, Note_on_c, 0, 55, 36
2, 75530, Note_off_c, 0, 75, 64
2, 75530, Note_off_c, 0, 55, 64
2, 75549, Note_on_c, 0, 58, 53
2, 75597, Control_c, 0, 64, 0
2, 75664, Note_off_c, 0, 58, 64
2, 75712, Note_on_c, 0, 55, 25
2, 75799, Note_off_c, 0, 55, 64
2, 75799, Note_on_c, 0, 58, 50
2, 75962, Note_off_c, 0, 58, 64
2, 75967, Note_on_c, 0, 82, 79
2, 75976, Note_on_c, 0, 56, 50
2, 76072, Note_off_c, 0, 56, 64
2, 76082, Note_on_c, 0, 58, 53
2, 76183, Control_c, 0, 64, 127
2, 76226, Control_c, 0, 64, 0
2, 76245, Note_off_c, 0, 58, 64
2, 76245, Note_on_c, 0, 84, 67
2, 76250, Note_on_c, 0, 56, 45
2, 76284, Note_off_c, 0, 82, 64
2, 76351, Note_off_c, 0, 56, 64
2, 76351, Note_on_c, 0, 58, 57
2, 76432, Note_off_c, 0, 58, 64
2, 76480, Note_on_c, 0, 56, 42
2, 76495, Note_off_c, 0, 84, 64
2, 76504, Control_c, 0, 64, 127
2, 76514, Note_on_c, 0, 86, 59
2, 76620, Note_on_c, 0, 58, 52
2, 76644, Note_off_c, 0, 56, 64
2, 76658, Control_c, 0, 64, 0
2, 76797, Note_off_c, 0, 58, 64
2, 76816, Note_off_c, 0, 86, 64
2, 76836, Note_on_c, 0, 87, 51
2, 76850, Note_on_c, 0, 55, 36
2, 77148, Control_c, 0, 64, 127
2, 77200, Note_off_c, 0, 87, 64
2, 77263, Note_off_c, 0, 55, 64
2, 77268, Note_on_c, 0, 58, 64
2, 77364, Note_off_c, 0, 58, 64
2, 77431, Note_on_c, 0, 63, 35
2, 77493, Note_off_c, 0, 63, 64
2, 77522, Note_on_c, 0, 58, 71
2, 77632, Note_off_c, 0, 58, 64
2, 77685, Note_on_c, 0, 67, 70
2, 77781, Note_on_c, 0, 63, 71
2, 77800, Note_off_c, 0, 67, 64
2, 77911, Note_off_c, 0, 63, 64
2, 77916, Note_on_c, 0, 70, 88
2, 77954, Note_off_c, 0, 70, 64
2, 78045, Note_on_c, 0, 67, 60
2, 78165, Note_off_c, 0, 67, 64
2, 78165, Note_on_c, 0, 75, 78
2, 78280, Note_on_c, 0, 70, 91
2, 78285, Note_off_c, 0, 75, 64
2, 78324, Note_off_c, 0, 70, 64
2, 78429, Note_on_c, 0, 45, 103
2, 78429, Note_on_c, 0, 39, 86
2, 78434, Note_on_c, 0, 41, 89
2, 78444, Note_on_c, 0, 65, 74
2, 78549, Note_on_c, 0, 60, 83
2, 78578, Control_c, 0, 64, 0
2, 78602, Note_off_c, 0, 65, 64
2, 78708, Note_on_c, 0, 69, 88
2, 78717, Note_off_c, 0, 60, 64
2, 78818, Note_on_c, 0, 65, 81
2, 78866, Note_off_c, 0, 69, 64
2, 78909, Note_off_c, 0, 39, 64
2, 78909, Note_off_c, 0, 41, 64
2, 78933, Note_off_c, 0, 65, 64
2, 78933, Control_c, 0, 64, 127
2, 78943, Note_on_c, 0, 72, 94
2, 78948, Note_off_c, 0, 45, 64
2, 78976, Note_off_c, 0, 72, 64
2, 79082, Note_on_c, 0, 69, 70
2, 79149, Note_off_c, 0, 69, 64
2, 79207, Note_on_c, 0, 77, 95
2, 79221, Note_on_c, 0, 57, 103
2, 79226, Note_on_c, 0, 53, 85
2, 79226, Note_on_c, 0, 51, 79
2, 79332, Note_on_c, 0, 72, 89
2, 79384, Note_off_c, 0, 77, 64
2, 79442, Note_off_c, 0, 72, 64
2, 79466, Note_on_c, 0, 81, 95
2, 79500, Note_off_c, 0, 81, 64
2, 79586, Note_on_c, 0, 77, 97
2, 79672, Note_off_c, 0, 53, 64
2, 79692, Note_off_c, 0, 51, 64
2, 79701, Note_off_c, 0, 77, 64
2, 79716, Note_on_c, 0, 84, 97
2, 79740, Note_off_c, 0, 57, 64
2, 79831, Note_on_c, 0, 81, 95
2, 79840, Note_off_c, 0, 84, 64
2, 79860, Note_off_c, 0, 81, 64
2, 80023, Note_on_c, 0, 68, 101
2, 80032, Note_on_c, 0, 59, 96
2, 80037, Note_on_c, 0, 56, 88
2, 80042, Note_on_c, 0, 53, 87
2, 80047, Note_on_c, 0, 50, 87
2, 80157, Note_on_c, 0, 65, 92
2, 80210, Note_off_c, 0, 68, 64
2, 80301, Control_c, 0, 64, 0
2, 80301, Note_on_c, 0, 71, 85
2, 80340, Note_off_c, 0, 65, 64
2, 80412, Note_on_c, 0, 68, 96
2, 80479, Note_off_c, 0, 71, 64
2, 80512, Control_c, 0, 64, 127
2, 80527, Note_off_c, 0, 59, 64
2, 80527, Note_off_c, 0, 53, 64
2, 80536, Note_off_c, 0, 56, 64
2, 80536, Note_on_c, 0, 74, 100
2, 80556, Note_off_c, 0, 50, 64
2, 80560, Note_off_c, 0, 68, 64
2, 80570, Note_off_c, 0, 74, 64
2, 80656, Note_on_c, 0, 71, 83
2, 80728, Note_off_c, 0, 71, 64
2, 80791, Note_on_c, 0, 56, 100
2, 80796, Note_on_c, 0, 77, 100
2, 80805, Note_on_c, 0, 53, 85
2, 80810, Note_on_c, 0, 50, 81
2, 80810, Note_on_c, 0, 48, 94
2, 80911, Note_on_c, 0, 74, 95
2, 80944, Note_off_c, 0, 77, 64
2, 80959, Control_c, 0, 64, 0
2, 81026, Note_off_c, 0, 74, 64
2, 81031, Note_on_c, 0, 80, 100
2, 81112, Control_c, 0, 64, 127
2, 81146, Note_off_c, 0, 80, 64
2, 81146, Note_on_c, 0, 77, 105
2, 81199, Note_off_c, 0, 53, 64
2, 81204, Note_off_c, 0, 50, 64
2, 81271, Note_on_c, 0, 86, 107
2, 81280, Note_off_c, 0, 48, 64
2, 81309, Note_off_c, 0, 56, 64
2, 81314, Note_off_c, 0, 77, 64
2, 81391, Note_on_c, 0, 80, 103
2, 81477, Note_off_c, 0, 86, 64
2, 81540, Note_on_c, 0, 55, 94
2, 81544, Note_on_c, 0, 89, 115
2, 81544, Note_on_c, 0, 86, 35
2, 81544, Note_on_c, 0, 47, 80
2, 81549, Note_off_c, 0, 80, 64
2, 81559, Note_on_c, 0, 53, 85
2, 81559, Note_on_c, 0, 50, 87
2, 81597, Note_off_c, 0, 86, 64
2, 81602, Control_c, 0, 64, 0
2, 81909, Note_off_c, 0, 53, 64
2, 81914, Note_off_c, 0, 55, 64
2, 81914, Note_off_c, 0, 50, 64
2, 81952, Note_off_c, 0, 89, 64
2, 81976, Note_off_c, 0, 47, 64
2, 83152, Note_on_c, 0, 79, 49
2, 83431, Note_on_c, 0, 67, 41
2, 83432, Note_on_c, 0, 63, 34
2, 83436, Note_on_c, 0, 60, 34
2, 83618, Control_c, 0, 64, 127
2, 83676, Note_on_c, 0, 75, 53
2, 83724, Note_off_c, 0, 79, 64
2, 83762, Note_off_c, 0, 75, 64
2, 83954, Note_on_c, 0, 72, 74
2, 84008, Note_off_c, 0, 63, 64
2, 84175, Note_off_c, 0, 60, 64
2, 84199, Note_off_c, 0, 67, 64
2, 84213, Note_on_c, 0, 65, 35
2, 84218, Note_on_c, 0, 62, 35
2, 84410, Note_off_c, 0, 72, 64
2, 84429, Note_on_c, 0, 71, 46
2, 84434, Control_c, 0, 64, 0
2, 84602, Control_c, 0, 64, 127
2, 84607, Note_off_c, 0, 71, 64
2, 84636, Note_off_c, 0, 62, 64
2, 84674, Note_off_c, 0, 65, 64
2, 84679, Note_on_c, 0, 80, 78
2, 84919, Note_on_c, 0, 59, 42
2, 84928, Note_on_c, 0, 62, 34
2, 85015, Control_c, 0, 64, 0
2, 85164, Note_on_c, 0, 79, 63
2, 85168, Control_c, 0, 64, 127
2, 85178, Note_off_c, 0, 80, 64
2, 85212, Note_off_c, 0, 79, 64
2, 85423, Note_on_c, 0, 77, 61
2, 85586, Note_off_c, 0, 62, 64
2, 85620, Note_off_c, 0, 59, 64
2, 85670, Note_on_c, 0, 67, 42
2, 85682, Note_on_c, 0, 60, 28
2, 85692, Control_c, 0, 64, 0
2, 85898, Note_on_c, 0, 75, 53
2, 85903, Note_off_c, 0, 77, 64
2, 86008, Note_off_c, 0, 75, 64
2, 86028, Control_c, 0, 64, 127
2, 86066, Note_off_c, 0, 60, 64
2, 86107, Note_off_c, 0, 67, 64
2, 86138, Note_on_c, 0, 79, 91
2, 86364, Note_on_c, 0, 67, 70
2, 86368, Note_on_c, 0, 63, 63
2, 86623, Note_on_c, 0, 84, 97
2, 86642, Control_c, 0, 64, 0
2, 86652, Note_off_c, 0, 79, 64
2, 86800, Control_c, 0, 64, 127
2, 86824, Note_off_c, 0, 63, 64
2, 86853, Note_on_c, 0, 82, 100
2, 86868, Note_on_c, 0, 64, 69
2, 86911, Note_off_c, 0, 64, 64
2, 86925, Note_off_c, 0, 84, 64
2, 87103, Note_on_c, 0, 68, 82
2, 87103, Note_on_c, 0, 65, 76
2, 87156, Note_off_c, 0, 67, 64
2, 87184, Control_c, 0, 64, 0
2, 87328, Note_on_c, 0, 80, 90
2, 87386, Note_off_c, 0, 82, 64
2, 87396, Control_c, 0, 64, 127
2, 87458, Note_off_c, 0, 80, 64
2, 87506, Note_off_c, 0, 68, 64
2, 87506, Note_off_c, 0, 65, 64
2, 87549, Note_on_c, 0, 70, 72
2, 87568, Note_on_c, 0, 79, 94
2, 87568, Note_on_c, 0, 67, 57
2, 87708, Note_off_c, 0, 70, 64
2, 87765, Note_off_c, 0, 67, 64
2, 87799, Note_on_c, 0, 68, 77
2, 87804, Note_on_c, 0, 72, 82
2, 87842, Control_c, 0, 64, 0
2, 88029, Note_off_c, 0, 79, 64
2, 88029, Note_on_c, 0, 77, 95
2, 88092, Control_c, 0, 64, 127
2, 88197, Note_off_c, 0, 68, 64
2, 88202, Note_off_c, 0, 77, 64
2, 88279, Note_on_c, 0, 78, 75
2, 88279, Note_on_c, 0, 69, 50
2, 88380, Control_c, 0, 64, 0
2, 88432, Note_off_c, 0, 69, 64
2, 88538, Note_on_c, 0, 67, 31
2, 88735, Note_off_c, 0, 72, 64
2, 88783, Note_off_c, 0, 78, 64
2, 88797, Control_c, 0, 64, 127
2, 88816, Note_on_c, 0, 79, 45
2, 88845, Note_on_c, 0, 71, 34
2, 88888, Note_off_c, 0, 67, 64
2, 88893, Note_off_c, 0, 71, 64
2, 88917, Note_off_c, 0, 79, 64
2, 89152, Note_on_c, 0, 67, 59
2, 89258, Control_c, 0, 64, 0
2, 89378, Note_on_c, 0, 51, 54
2, 89383, Note_on_c, 0, 48, 56
2, 89546, Control_c, 0, 64, 127
2, 89623, Note_on_c, 0, 63, 65
2, 89647, Note_off_c, 0, 67, 64
2, 89743, Note_off_c, 0, 63, 64
2, 89872, Note_on_c, 0, 60, 78
2, 90088, Note_off_c, 0, 48, 64
2, 90108, Note_off_c, 0, 51, 64
2, 90108, Note_on_c, 0, 50, 48
2, 90108, Note_on_c, 0, 53, 70
2, 90117, Control_c, 0, 64, 0
2, 90319, Note_off_c, 0, 60, 64
2, 90328, Note_on_c, 0, 59, 70
2, 90516, Note_off_c, 0, 50, 64
2, 90535, Note_off_c, 0, 59, 64
2, 90578, Control_c, 0, 64, 127
2, 90588, Note_on_c, 0, 68, 73
2, 90592, Note_off_c, 0, 53, 64
2, 90775, Control_c, 0, 64, 0
2, 90818, Note_on_c, 0, 50, 62
2, 90832, Note_on_c, 0, 47, 50
2, 91058, Note_on_c, 0, 67, 67
2, 91063, Note_off_c, 0, 68, 64
2, 91284, Note_off_c, 0, 67, 64
2, 91341, Note_on_c, 0, 65, 69
2, 91346, Control_c, 0, 64, 127
2, 91452, Control_c, 0, 64, 0
2, 91519, Note_off_c, 0, 50, 64
2, 91548, Note_off_c, 0, 47, 64
2, 91581, Note_on_c, 0, 49, 51
2, 91581, Note_on_c, 0, 46, 56
2, 91821, Note_off_c, 0, 65, 64
2, 91821, Note_on_c, 0, 64, 69
2, 91864, Note_off_c, 0, 46, 64
2, 91864, Note_off_c, 0, 49, 64
2, 91884, Control_c, 0, 64, 127
2, 91941, Note_off_c, 0, 64, 64
2, 92071, Note_on_c, 0, 73, 86
2, 92316, Note_on_c, 0, 52, 65
2, 92316, Note_on_c, 0, 55, 71
2, 92392, Control_c, 0, 64, 0
2, 92565, Note_on_c, 0, 72, 88
2, 92613, Note_off_c, 0, 73, 64
2, 92680, Control_c, 0, 64, 127
2, 92805, Note_on_c, 0, 70, 94
2, 92820, Note_on_c, 0, 60, 69
2, 92844, Note_off_c, 0, 55, 64
2, 92853, Note_off_c, 0, 52, 64
2, 92863, Note_off_c, 0, 72, 64
2, 93036, Control_c, 0, 64, 0
2, 93060, Note_on_c, 0, 68, 82
2, 93084, Note_on_c, 0, 53, 68
2, 93112, Note_off_c, 0, 70, 64
2, 93290, Note_off_c, 0, 53, 64
2, 93295, Note_off_c, 0, 68, 64
2, 93300, Note_on_c, 0, 67, 83
2, 93304, Note_on_c, 0, 55, 63
2, 93487, Note_off_c, 0, 60, 64
2, 93525, Note_off_c, 0, 55, 64
2, 93540, Note_on_c, 0, 56, 65
2, 93540, Note_on_c, 0, 66, 77
2, 93559, Note_off_c, 0, 67, 64
2, 93756, Note_off_c, 0, 56, 64
2, 93799, Note_on_c, 0, 67, 79
2, 93804, Note_off_c, 0, 66, 64
2, 93804, Note_on_c, 0, 55, 63
2, 93976, Note_off_c, 0, 55, 64
2, 94010, Note_on_c, 0, 63, 73
2, 94015, Note_off_c, 0, 67, 64
2, 94024, Note_on_c, 0, 60, 63
2, 94072, Note_off_c, 0, 60, 64
2, 94120, Note_off_c, 0, 63, 64
2, 94274, Note_on_c, 0, 53, 65
2, 94274, Note_on_c, 0, 62, 64
2, 94274, Note_on_c, 0, 43, 69
2, 94274, Note_on_c, 0, 59, 56
2, 94317, Note_off_c, 0, 43, 64
2, 94327, Note_off_c, 0, 53, 64
2, 94332, Note_off_c, 0, 59, 64
2, 94332, Note_off_c, 0, 62, 64
2, 94563, Note_on_c, 0, 48, 67
2, 94563, Note_on_c, 0, 60, 80
2, 94567, Note_on_c, 0, 51, 76
2, 94602, Note_off_c, 0, 48, 64
2, 94605, Control_c, 0, 64, 127
2, 94615, Note_off_c, 0, 51, 64
2, 94630, Note_off_c, 0, 60, 64
2, 94850, Control_c, 0, 64, 0
2, 95151, Note_on_c, 0, 77, 88
2, 95199, Note_on_c, 0, 75, 76
2, 95237, Note_off_c, 0, 77, 64
2, 95261, Note_on_c, 0, 74, 72
2, 95309, Note_on_c, 0, 72, 85
2, 95324, Note_off_c, 0, 75, 64
2, 95328, Note_off_c, 0, 74, 64
2, 95391, Note_on_c, 0, 62, 75
2, 95391, Note_on_c, 0, 79, 109
2, 95396, Note_on_c, 0, 59, 69
2, 95448, Note_off_c, 0, 72, 64
2, 95453, Note_off_c, 0, 62, 64
2, 95492, Note_off_c, 0, 79, 64
2, 95501, Note_off_c, 0, 59, 64
2, 95511, Note_on_c, 0, 55, 76
2, 95640, Note_on_c, 0, 79, 103
2, 95650, Note_on_c, 0, 67, 63
2, 95650, Note_on_c, 0, 63, 75
2, 95655, Note_off_c, 0, 55, 64
2, 95664, Note_on_c, 0, 60, 70
2, 95674, Note_off_c, 0, 79, 64
2, 95693, Note_off_c, 0, 67, 64
2, 95712, Note_off_c, 0, 60, 64
2, 95727, Note_off_c, 0, 63, 64
2, 95756, Note_on_c, 0, 55, 57
2, 95871, Note_on_c, 0, 79, 102
2, 95871, Note_on_c, 0, 67, 89
2, 95880, Note_off_c, 0, 55, 64
2, 95890, Note_on_c, 0, 65, 76
2, 95904, Note_on_c, 0, 62, 59
2, 95919, Note_off_c, 0, 67, 64
2, 95924, Note_off_c, 0, 79, 64
2, 95943, Note_off_c, 0, 65, 64
2, 95952, Note_off_c, 0, 62, 64
2, 96010, Note_on_c, 0, 55, 66
2, 96125, Note_off_c, 0, 55, 64
2, 96125, Note_on_c, 0, 79, 114
2, 96135, Note_on_c, 0, 67, 99
2, 96144, Note_on_c, 0, 63, 79
2, 96164, Note_on_c, 0, 60, 69
2, 96212, Note_off_c, 0, 63, 64
2, 96216, Note_off_c, 0, 60, 64
2, 96240, Control_c, 0, 64, 127
2, 96274, Note_on_c, 0, 55, 71
2, 96384, Note_on_c, 0, 63, 69
2, 96389, Note_off_c, 0, 67, 64
2, 96404, Note_off_c, 0, 55, 64
2, 96404, Note_on_c, 0, 60, 69
2, 96447, Note_off_c, 0, 63, 64
2, 96466, Note_off_c, 0, 60, 64
2, 96471, Control_c, 0, 64, 0
2, 96500, Note_on_c, 0, 55, 62
2, 96629, Note_off_c, 0, 79, 64
2, 96634, Note_off_c, 0, 55, 64
2, 96634, Note_on_c, 0, 63, 74
2, 96639, Note_on_c, 0, 77, 97
2, 96644, Note_on_c, 0, 60, 65
2, 96677, Note_on_c, 0, 75, 87
2, 96692, Note_off_c, 0, 63, 64
2, 96725, Note_off_c, 0, 60, 64
2, 96749, Note_off_c, 0, 77, 64
2, 96749, Note_on_c, 0, 55, 55
2, 96749, Note_on_c, 0, 74, 94
2, 96802, Note_off_c, 0, 75, 64
2, 96812, Note_on_c, 0, 72, 93
2, 96855, Note_off_c, 0, 74, 64
2, 96874, Note_on_c, 0, 62, 80
2, 96879, Note_off_c, 0, 55, 64
2, 96884, Note_on_c, 0, 59, 73
2, 96893, Note_on_c, 0, 79, 108
2, 96927, Note_off_c, 0, 72, 64
2, 96975, Note_off_c, 0, 79, 64
2, 96980, Note_off_c, 0, 62, 64
2, 97004, Note_on_c, 0, 55, 75
2, 97013, Note_off_c, 0, 59, 64
2, 97128, Note_on_c, 0, 79, 102
2, 97138, Note_on_c, 0, 63, 79
2, 97143, Note_off_c, 0, 55, 64
2, 97143, Note_on_c, 0, 67, 71
2, 97152, Note_on_c, 0, 60, 71
2, 97167, Note_off_c, 0, 79, 64
2, 97186, Note_off_c, 0, 67, 64
2, 97210, Note_off_c, 0, 60, 64
2, 97253, Note_off_c, 0, 63, 64
2, 97272, Note_on_c, 0, 55, 63
2, 97373, Note_on_c, 0, 79, 108
2, 97378, Note_on_c, 0, 67, 92
2, 97383, Note_on_c, 0, 65, 75
2, 97389, Note_on_c, 0, 62, 66
2, 97397, Note_off_c, 0, 55, 64
2, 97407, Note_off_c, 0, 79, 64
2, 97416, Note_off_c, 0, 67, 64
2, 97432, Note_off_c, 0, 62, 64
2, 97436, Note_off_c, 0, 65, 64
2, 97512, Note_on_c, 0, 55, 74
2, 97632, Note_on_c, 0, 79, 117
2, 97637, Note_on_c, 0, 67, 105
2, 97647, Note_on_c, 0, 63, 89
2, 97666, Note_off_c, 0, 55, 64
2, 97666, Note_on_c, 0, 60, 73
2, 97719, Note_off_c, 0, 60, 64
2, 97743, Note_off_c, 0, 63, 64
2, 97757, Note_on_c, 0, 55, 76
2, 97887, Note_on_c, 0, 63, 86
2, 97911, Note_off_c, 0, 55, 64
2, 97911, Note_on_c, 0, 60, 74
2, 97916, Note_off_c, 0, 67, 64
2, 97949, Note_off_c, 0, 63, 64
2, 98007, Note_off_c, 0, 60, 64
2, 98012, Note_on_c, 0, 55, 64
2, 98021, Control_c, 0, 64, 127
2, 98112, Note_off_c, 0, 79, 64
2, 98122, Note_on_c, 0, 77, 90
2, 98132, Control_c, 0, 64, 0
2, 98136, Note_on_c, 0, 63, 69
2, 98146, Note_off_c, 0, 55, 64
2, 98151, Note_on_c, 0, 60, 64
2, 98170, Note_on_c, 0, 75, 84
2, 98180, Note_off_c, 0, 63, 64
2, 98223, Note_off_c, 0, 77, 64
2, 98242, Note_on_c, 0, 74, 97
2, 98252, Note_off_c, 0, 60, 64
2, 98256, Note_on_c, 0, 55, 54
2, 98280, Note_off_c, 0, 75, 64
2, 98290, Note_off_c, 0, 74, 64
2, 98295, Note_on_c, 0, 72, 89
2, 98314, Note_off_c, 0, 55, 64
2, 98328, Note_off_c, 0, 72, 64
2, 98396, Note_on_c, 0, 71, 83
2, 98405, Note_on_c, 0, 74, 103
2, 98415, Note_on_c, 0, 80, 110
2, 98559, Note_off_c, 0, 71, 64
2, 98636, Note_off_c, 0, 74, 64
2, 98650, Note_on_c, 0, 53, 107
2, 98655, Note_on_c, 0, 41, 105
2, 98660, Note_off_c, 0, 80, 64
2, 98688, Note_off_c, 0, 41, 64
2, 98756, Note_off_c, 0, 53, 64
2, 98804, Control_c, 0, 64, 127
2, 98914, Control_c, 0, 64, 0
2, 98919, Note_on_c, 0, 65, 109
2, 98919, Note_on_c, 0, 53, 101
2, 99063, Note_off_c, 0, 65, 64
2, 99111, Note_off_c, 0, 53, 64
2, 99140, Note_on_c, 0, 72, 95
2, 99164, Note_on_c, 0, 75, 96
2, 99173, Note_on_c, 0, 79, 112
2, 99413, Note_on_c, 0, 51, 103
2, 99418, Note_on_c, 0, 39, 99
2, 99452, Note_off_c, 0, 39, 64
2, 99495, Note_off_c, 0, 51, 64
2, 99533, Note_off_c, 0, 79, 64
2, 99562, Note_off_c, 0, 75, 64
2, 99567, Note_off_c, 0, 72, 64
2, 99658, Note_on_c, 0, 63, 106
2, 99668, Note_on_c, 0, 51, 101
2, 99706, Note_off_c, 0, 51, 64
2, 99725, Note_off_c, 0, 63, 64
2, 99917, Note_on_c, 0, 62, 110
2, 99922, Note_on_c, 0, 50, 109
2, 100052, Control_c, 0, 64, 127
2, 100080, Note_off_c, 0, 50, 64
2, 100090, Note_off_c, 0, 62, 64
2, 100143, Note_on_c, 0, 74, 95
2, 100162, Note_on_c, 0, 77, 105
2, 100176, Note_on_c, 0, 83, 100
2, 100200, Note_off_c, 0, 77, 64
2, 100224, Note_off_c, 0, 74, 64
2, 100234, Control_c, 0, 64, 0
2, 100282, Note_off_c, 0, 83, 64
2, 100392, Note_on_c, 0, 77, 104
2, 100421, Note_on_c, 0, 83, 74
2, 100431, Note_on_c, 0, 86, 106
2, 100474, Note_off_c, 0, 77, 64
2, 100508, Note_off_c, 0, 83, 64
2, 100541, Note_off_c, 0, 86, 64
2, 100690, Note_on_c, 0, 79, 101
2, 100704, Note_on_c, 0, 86, 105
2, 100714, Note_on_c, 0, 59, 81
2, 100714, Note_on_c, 0, 47, 73
2, 100719, Note_on_c, 0, 89, 115
2, 100724, Control_c, 0, 64, 127
2, 100762, Note_off_c, 0, 79, 64
2, 100762, Note_off_c, 0, 47, 64
2, 100767, Note_off_c, 0, 59, 64
2, 100800, Note_off_c, 0, 86, 64
2, 100810, Note_off_c, 0, 89, 64
2, 101093, Control_c, 0, 64, 0
2, 102437, Note_on_c, 0, 75, 59
2, 102509, Control_c, 0, 64, 127
2, 103320, Note_on_c, 0, 66, 57
2, 103330, Note_on_c, 0, 60, 26
2, 103330, Note_on_c, 0, 63, 28
2, 103445, Note_off_c, 0, 75, 64
2, 103536, Control_c, 0, 64, 0
2, 103723, Note_off_c, 0, 60, 64
2, 103738, Control_c, 0, 64, 127
2, 103824, Note_off_c, 0, 63, 64
2, 103973, Note_off_c, 0, 66, 64
2, 104152, Note_on_c, 0, 65, 49
2, 104156, Note_on_c, 0, 62, 17
2, 104158, Note_on_c, 0, 59, 40
2, 104160, Note_on_c, 0, 67, 63
2, 104290, Control_c, 0, 64, 0
2, 104492, Control_c, 0, 64, 127
2, 104506, Note_off_c, 0, 62, 64
2, 104522, Note_off_c, 0, 59, 64
2, 104549, Note_off_c, 0, 67, 64
2, 104550, Note_off_c, 0, 65, 64
2, 104564, Note_on_c, 0, 68, 64
2, 104640, Note_off_c, 0, 68, 64
2, 104674, Control_c, 0, 64, 0
2, 104674, Note_on_c, 0, 63, 54
2, 104679, Note_on_c, 0, 67, 62
2, 104684, Note_on_c, 0, 60, 48
2, 104703, Control_c, 0, 64, 127
2, 104722, Note_off_c, 0, 63, 64
2, 104722, Note_off_c, 0, 67, 64
2, 104732, Note_off_c, 0, 60, 64
2, 104967, Note_on_c, 0, 63, 62
2, 104967, Note_on_c, 0, 67, 73
2, 104976, Note_on_c, 0, 53, 58
2, 104981, Control_c, 0, 64, 0
2, 105034, Note_off_c, 0, 63, 64
2, 105077, Note_off_c, 0, 53, 64
2, 105077, Note_off_c, 0, 67, 64
2, 105087, Note_on_c, 0, 65, 68
2, 105096, Note_on_c, 0, 62, 55
2, 105144, Note_off_c, 0, 65, 64
2, 105154, Note_off_c, 0, 62, 64
2, 105216, Note_on_c, 0, 60, 60
2, 105216, Note_on_c, 0, 63, 69
2, 105221, Note_on_c, 0, 55, 67
2, 105264, Note_off_c, 0, 63, 64
2, 105269, Note_off_c, 0, 55, 64
2, 105279, Note_off_c, 0, 60, 64
2, 105500, Note_on_c, 0, 43, 49
2, 105500, Note_on_c, 0, 62, 52
2, 105509, Note_on_c, 0, 59, 27
2, 105567, Note_off_c, 0, 43, 64
2, 105567, Note_off_c, 0, 62, 64
2, 105572, Note_off_c, 0, 59, 64
2, 105831, Note_on_c, 0, 60, 45
2, 105864, Note_on_c, 0, 48, 28
2, 105903, Control_c, 0, 64, 127
2, 105951, Note_off_c, 0, 48, 64
2, 105975, Note_off_c, 0, 60, 64
2, 106196, Control_c, 0, 64, 0
2, 106373, Note_on_c, 0, 77, 93
2, 106440, Note_on_c, 0, 75, 74
2, 106460, Note_off_c, 0, 77, 64
2, 106503, Note_on_c, 0, 74, 94
2, 106536, Note_off_c, 0, 75, 64
2, 106541, Note_off_c, 0, 74, 64
2, 106570, Note_on_c, 0, 72, 84
2, 106623, Note_on_c, 0, 62, 72
2, 106628, Note_on_c, 0, 59, 70
2, 106637, Note_on_c, 0, 79, 111
2, 106700, Note_off_c, 0, 72, 64
2, 106704, Note_off_c, 0, 62, 64
2, 106704, Control_c, 0, 64, 127
2, 106738, Note_off_c, 0, 79, 64
2, 106738, Note_on_c, 0, 55, 82
2, 106752, Note_off_c, 0, 59, 64
2, 106810, Control_c, 0, 64, 0
2, 106868, Note_off_c, 0, 55, 64
2, 106872, Note_on_c, 0, 67, 90
2, 106877, Note_on_c, 0, 79, 106
2, 106882, Note_on_c, 0, 60, 70
2, 106882, Note_on_c, 0, 63, 73
2, 106920, Note_off_c, 0, 67, 64
2, 106925, Note_off_c, 0, 79, 64
2, 106940, Note_off_c, 0, 60, 64
2, 106964, Note_off_c, 0, 63, 64
2, 106978, Note_on_c, 0, 55, 71
2, 107108, Note_off_c, 0, 55, 64
2, 107122, Note_on_c, 0, 79, 110
2, 107127, Note_on_c, 0, 65, 78
2, 107132, Note_on_c, 0, 67, 98
2, 107141, Note_on_c, 0, 62, 74
2, 107160, Note_off_c, 0, 79, 64
2, 107170, Note_off_c, 0, 67, 64
2, 107175, Note_off_c, 0, 65, 64
2, 107208, Note_off_c, 0, 62, 64
2, 107232, Note_on_c, 0, 55, 71
2, 107376, Note_on_c, 0, 63, 82
2, 107381, Note_on_c, 0, 79, 117
2, 107386, Note_on_c, 0, 67, 106
2, 107400, Note_off_c, 0, 55, 64
2, 107405, Note_on_c, 0, 60, 63
2, 107439, Control_c, 0, 64, 127
2, 107448, Note_off_c, 0, 63, 64
2, 107463, Note_off_c, 0, 60, 64
2, 107482, Note_on_c, 0, 55, 74
2, 107607, Note_off_c, 0, 67, 64
2, 107616, Note_on_c, 0, 63, 76
2, 107631, Note_on_c, 0, 60, 71
2, 107636, Note_off_c, 0, 55, 64
2, 107708, Note_off_c, 0, 63, 64
2, 107727, Note_off_c, 0, 60, 64
2, 107727, Note_on_c, 0, 55, 72
2, 107871, Control_c, 0, 64, 0
2, 107871, Note_on_c, 0, 63, 73
2, 107876, Note_off_c, 0, 55, 64
2, 107880, Note_on_c, 0, 60, 76
2, 107880, Note_on_c, 0, 77, 101
2, 107904, Note_off_c, 0, 79, 64
2, 107919, Note_off_c, 0, 63, 64
2, 107928, Note_on_c, 0, 75, 87
2, 107947, Note_off_c, 0, 60, 64
2, 107981, Note_on_c, 0, 55, 66
2, 107991, Note_on_c, 0, 74, 94
2, 108000, Note_off_c, 0, 77, 64
2, 108044, Note_off_c, 0, 75, 64
2, 108053, Note_on_c, 0, 72, 106
2, 108082, Note_off_c, 0, 74, 64
2, 108111, Note_on_c, 0, 62, 83
2, 108120, Note_on_c, 0, 59, 77
2, 108130, Note_off_c, 0, 55, 64
2, 108130, Note_on_c, 0, 79, 112
2, 108202, Note_off_c, 0, 72, 64
2, 108221, Control_c, 0, 64, 127
2, 108231, Note_off_c, 0, 62, 64
2, 108231, Note_on_c, 0, 55, 75
2, 108250, Note_off_c, 0, 79, 64
2, 108250, Note_off_c, 0, 59, 64
2, 108255, Control_c, 0, 64, 0
2, 108370, Note_on_c, 0, 63, 81
2, 108380, Note_on_c, 0, 60, 77
2, 108380, Note_on_c, 0, 79, 107
2, 108380, Note_on_c, 0, 67, 98
2, 108384, Note_off_c, 0, 55, 64
2, 108423, Note_off_c, 0, 67, 64
2, 108442, Note_off_c, 0, 79, 64
2, 108471, Note_off_c, 0, 60, 64
2, 108476, Note_on_c, 0, 55, 71
2, 108480, Note_off_c, 0, 63, 64
2, 108624, Note_off_c, 0, 55, 64
2, 108624, Note_on_c, 0, 65, 87
2, 108624, Note_on_c, 0, 79, 111
2, 108629, Note_on_c, 0, 67, 105
2, 108634, Note_on_c, 0, 62, 84
2, 108663, Note_off_c, 0, 79, 64
2, 108663, Note_off_c, 0, 67, 64
2, 108706, Note_off_c, 0, 65, 64
2, 108740, Note_on_c, 0, 55, 78
2, 108744, Note_off_c, 0, 62, 64
2, 108884, Note_on_c, 0, 79, 117
2, 108884, Note_on_c, 0, 67, 110
2, 108888, Note_on_c, 0, 63, 92
2, 108898, Control_c, 0, 64, 127
2, 108903, Note_on_c, 0, 60, 66
2, 108917, Note_off_c, 0, 55, 64
2, 108960, Control_c, 0, 64, 0
2, 108999, Note_off_c, 0, 60, 64
2, 108999, Note_off_c, 0, 63, 64
2, 108999, Note_on_c, 0, 55, 81
2, 109138, Note_on_c, 0, 63, 75
2, 109148, Control_c, 0, 64, 127
2, 109157, Note_on_c, 0, 60, 67
2, 109167, Note_off_c, 0, 55, 64
2, 109176, Control_c, 0, 64, 0
2, 109181, Note_off_c, 0, 67, 64
2, 109215, Note_off_c, 0, 63, 64
2, 109248, Note_off_c, 0, 60, 64
2, 109248, Note_on_c, 0, 55, 76
2, 109349, Note_off_c, 0, 79, 64
2, 109378, Note_on_c, 0, 77, 95
2, 109383, Note_on_c, 0, 63, 76
2, 109397, Note_off_c, 0, 55, 64
2, 109407, Note_on_c, 0, 60, 74
2, 109431, Note_on_c, 0, 75, 84
2, 109450, Note_off_c, 0, 63, 64
2, 109488, Note_off_c, 0, 77, 64
2, 109498, Note_on_c, 0, 74, 98
2, 109532, Note_on_c, 0, 55, 54
2, 109536, Note_off_c, 0, 75, 64
2, 109541, Note_off_c, 0, 74, 64
2, 109546, Note_on_c, 0, 72, 88
2, 109551, Note_off_c, 0, 60, 64
2, 109584, Note_off_c, 0, 72, 64
2, 109637, Note_on_c, 0, 71, 96
2, 109656, Note_on_c, 0, 74, 98
2, 109666, Note_off_c, 0, 55, 64
2, 109671, Note_on_c, 0, 80, 108
2, 109863, Note_off_c, 0, 74, 64
2, 109906, Note_on_c, 0, 53, 106
2, 109906, Note_on_c, 0, 41, 106
2, 109916, Note_off_c, 0, 71, 64
2, 109935, Note_off_c, 0, 41, 64
2, 109959, Note_off_c, 0, 53, 64
2, 110007, Control_c, 0, 64, 127
2, 110016, Note_off_c, 0, 80, 64
2, 110146, Control_c, 0, 64, 0
2, 110175, Note_on_c, 0, 65, 110
2, 110180, Note_on_c, 0, 53, 103
2, 110295, Note_off_c, 0, 65, 64
2, 110357, Note_off_c, 0, 53, 64
2, 110405, Note_on_c, 0, 72, 93
2, 110434, Note_on_c, 0, 75, 100
2, 110439, Note_on_c, 0, 79, 113
2, 110698, Note_on_c, 0, 51, 106
2, 110698, Note_on_c, 0, 39, 102
2, 110732, Note_off_c, 0, 39, 64
2, 110746, Note_off_c, 0, 51, 64
2, 110775, Control_c, 0, 64, 127
2, 110804, Control_c, 0, 64, 0
2, 110914, Note_off_c, 0, 79, 64
2, 110928, Note_on_c, 0, 63, 106
2, 110933, Note_on_c, 0, 51, 103
2, 110972, Note_off_c, 0, 51, 64
2, 110986, Note_off_c, 0, 63, 64
2, 111044, Note_off_c, 0, 72, 64
2, 111125, Note_off_c, 0, 75, 64
2, 111192, Note_on_c, 0, 62, 110
2, 111197, Note_on_c, 0, 50, 110
2, 111341, Control_c, 0, 64, 127
2, 111370, Note_off_c, 0, 50, 64
2, 111384, Note_off_c, 0, 62, 64
2, 111418, Note_on_c, 0, 74, 90
2, 111437, Note_on_c, 0, 77, 106
2, 111456, Note_on_c, 0, 83, 103
2, 111500, Note_off_c, 0, 74, 64
2, 111514, Note_off_c, 0, 77, 64
2, 111514, Control_c, 0, 64, 0
2, 111557, Note_off_c, 0, 83, 64
2, 111677, Note_on_c, 0, 77, 103
2, 111687, Note_on_c, 0, 83, 99
2, 111706, Note_on_c, 0, 86, 110
2, 111778, Note_off_c, 0, 77, 64
2, 111792, Note_off_c, 0, 83, 64
2, 111821, Note_off_c, 0, 86, 64
2, 111989, Control_c, 0, 64, 127
2, 111994, Note_on_c, 0, 79, 107
2, 111999, Note_on_c, 0, 86, 110
2, 112004, Note_on_c, 0, 89, 115
2, 112008, Note_on_c, 0, 59, 88
2, 112008, Note_on_c, 0, 47, 76
2, 112042, Note_off_c, 0, 47, 64
2, 112056, Note_off_c, 0, 59, 64
2, 112066, Note_off_c, 0, 79, 64
2, 112104, Note_off_c, 0, 86, 64
2, 112124, Note_off_c, 0, 89, 64
2, 112388, Control_c, 0, 64, 0
2, 113693, Note_on_c, 0, 61, 106
2, 113698, Note_on_c, 0, 49, 103
2, 113832, Control_c, 0, 64, 127
2, 113871, Note_off_c, 0, 61, 64
2, 113895, Note_off_c, 0, 49, 64
2, 114000, Note_on_c, 0, 76, 105
2, 114005, Note_on_c, 0, 70, 103
2, 114005, Note_on_c, 0, 67, 102
2, 114015, Note_on_c, 0, 58, 107
2, 114020, Note_on_c, 0, 46, 108
2, 114039, Note_off_c, 0, 67, 64
2, 114044, Note_off_c, 0, 70, 64
2, 114048, Note_off_c, 0, 76, 64
2, 114120, Note_off_c, 0, 58, 64
2, 114159, Note_off_c, 0, 46, 64
2, 114341, Note_on_c, 0, 70, 108
2, 114341, Note_on_c, 0, 79, 110
2, 114351, Note_on_c, 0, 55, 104
2, 114351, Note_on_c, 0, 43, 103
2, 114351, Note_on_c, 0, 76, 99
2, 114500, Note_off_c, 0, 70, 64
2, 114500, Note_off_c, 0, 55, 64
2, 114509, Note_off_c, 0, 76, 64
2, 114519, Note_off_c, 0, 79, 64
2, 114596, Note_off_c, 0, 43, 64
2, 114740, Note_on_c, 0, 82, 114
2, 114740, Note_on_c, 0, 73, 99
2, 114744, Note_on_c, 0, 79, 103
2, 114754, Note_on_c, 0, 40, 108
2, 114754, Note_on_c, 0, 52, 100
2, 114989, Note_off_c, 0, 52, 64
2, 115013, Note_off_c, 0, 73, 64
2, 115085, Note_off_c, 0, 40, 64
2, 115090, Note_off_c, 0, 79, 64
2, 115109, Note_off_c, 0, 82, 64
2, 115152, Control_c, 0, 64, 0
2, 117260, Note_on_c, 0, 53, 28
2, 117490, Note_on_c, 0, 56, 38
2, 117600, Note_off_c, 0, 53, 64
2, 117644, Control_c, 0, 64, 127
2, 117740, Note_on_c, 0, 60, 40
2, 117778, Note_off_c, 0, 56, 64
2, 117984, Note_off_c, 0, 60, 64
2, 117994, Note_on_c, 0, 52, 38
2, 118181, Control_c, 0, 64, 0
2, 118239, Note_on_c, 0, 55, 39
2, 118392, Control_c, 0, 64, 127
2, 118407, Note_off_c, 0, 52, 64
2, 118440, Note_off_c, 0, 55, 64
2, 118469, Note_on_c, 0, 58, 53
2, 118580, Note_off_c, 0, 58, 64
2, 118695, Note_on_c, 0, 72, 84
2, 118733, Note_on_c, 0, 53, 34
2, 118796, Control_c, 0, 64, 0
2, 118930, Note_on_c, 0, 56, 52
2, 119074, Control_c, 0, 64, 127
2, 119103, Note_off_c, 0, 72, 64
2, 119127, Note_off_c, 0, 53, 64
2, 119141, Note_off_c, 0, 56, 64
2, 119184, Note_on_c, 0, 60, 51
2, 119386, Note_off_c, 0, 60, 64
2, 119429, Note_on_c, 0, 72, 85
2, 119439, Note_on_c, 0, 52, 23
2, 119549, Control_c, 0, 64, 0
2, 119674, Note_on_c, 0, 55, 45
2, 119736, Note_off_c, 0, 72, 64
2, 119760, Control_c, 0, 64, 127
2, 119823, Note_off_c, 0, 55, 64
2, 119832, Note_off_c, 0, 52, 64
2, 119876, Note_on_c, 0, 58, 58
2, 119976, Note_on_c, 0, 72, 64
2, 120024, Note_off_c, 0, 58, 64
2, 120039, Note_off_c, 0, 72, 64
2, 120154, Note_on_c, 0, 53, 34
2, 120173, Note_on_c, 0, 73, 58
2, 120192, Control_c, 0, 64, 0
2, 120404, Note_on_c, 0, 56, 43
2, 120576, Control_c, 0, 64, 127
2, 120663, Note_on_c, 0, 60, 31
2, 120682, Note_off_c, 0, 56, 64
2, 120716, Note_on_c, 0, 72, 45
2, 120720, Note_off_c, 0, 73, 64
2, 120720, Note_off_c, 0, 53, 64
2, 120759, Note_off_c, 0, 60, 64
2, 120821, Control_c, 0, 64, 0
2, 120893, Note_on_c, 0, 52, 41
2, 121018, Note_off_c, 0, 72, 64
2, 121052, Control_c, 0, 64, 127
2, 121133, Note_on_c, 0, 55, 32
2, 121172, Note_off_c, 0, 52, 64
2, 121320, Note_off_c, 0, 55, 64
2, 121349, Note_on_c, 0, 58, 41
2, 121416, Note_on_c, 0, 84, 71
2, 121464, Note_off_c, 0, 58, 64
2, 121498, Note_off_c, 0, 84, 64
2, 121608, Note_on_c, 0, 85, 65
2, 121618, Note_on_c, 0, 53, 29
2, 121748, Control_c, 0, 64, 0
2, 121839, Note_on_c, 0, 56, 41
2, 122021, Control_c, 0, 64, 127
2, 122084, Note_on_c, 0, 60, 44
2, 122170, Note_off_c, 0, 60, 64
2, 122208, Note_on_c, 0, 84, 34
2, 122218, Note_off_c, 0, 53, 64
2, 122228, Note_off_c, 0, 85, 64
2, 122228, Note_off_c, 0, 56, 64
2, 122372, Note_on_c, 0, 51, 31
2, 122468, Control_c, 0, 64, 0
2, 122516, Note_off_c, 0, 84, 64
2, 122578, Note_on_c, 0, 55, 46
2, 122621, Control_c, 0, 64, 127
2, 122688, Note_off_c, 0, 55, 64
2, 122746, Note_off_c, 0, 51, 64
2, 122794, Note_on_c, 0, 60, 52
2, 122847, Note_off_c, 0, 60, 64
2, 123044, Note_on_c, 0, 62, 97
2, 123053, Note_on_c, 0, 50, 88
2, 123072, Note_off_c, 0, 62, 64
2, 123087, Note_off_c, 0, 50, 64
2, 123264, Control_c, 0, 64, 0
2, 123322, Note_on_c, 0, 78, 109
2, 123322, Note_on_c, 0, 72, 111
2, 123322, Note_on_c, 0, 69, 111
2, 123327, Note_on_c, 0, 60, 108
2, 123327, Note_on_c, 0, 48, 104
2, 123389, Control_c, 0, 64, 127
2, 123399, Note_off_c, 0, 60, 64
2, 123404, Note_off_c, 0, 72, 64
2, 123404, Note_off_c, 0, 69, 64
2, 123418, Note_off_c, 0, 48, 64
2, 123476, Note_off_c, 0, 78, 64
2, 123480, Control_c, 0, 64, 0
2, 123581, Note_on_c, 0, 81, 114
2, 123586, Note_on_c, 0, 72, 108
2, 123586, Note_on_c, 0, 57, 103
2, 123591, Note_on_c, 0, 45, 110
2, 123592, Note_on_c, 0, 78, 106
2, 123629, Note_off_c, 0, 45, 64
2, 123648, Note_off_c, 0, 57, 64
2, 123653, Control_c, 0, 64, 127
2, 123682, Note_off_c, 0, 81, 64
2, 123697, Note_off_c, 0, 78, 64
2, 123725, Note_off_c, 0, 72, 64
2, 123898, Note_on_c, 0, 54, 106
2, 123898, Note_on_c, 0, 84, 119
2, 123898, Note_on_c, 0, 42, 103
2, 123903, Note_on_c, 0, 75, 111
2, 123903, Note_on_c, 0, 81, 110
2, 123941, Note_off_c, 0, 42, 64
2, 123951, Note_off_c, 0, 54, 64
2, 124205, Note_off_c, 0, 75, 64
2, 124248, Control_c, 0, 64, 0
2, 124296, Note_off_c, 0, 84, 64
2, 124301, Note_off_c, 0, 81, 64
2, 125732, Note_on_c, 0, 55, 20
2, 125972, Note_on_c, 0, 58, 50
2, 126125, Control_c, 0, 64, 127
2, 126236, Note_on_c, 0, 62, 36
2, 126298, Note_off_c, 0, 58, 64
2, 126442, Note_off_c, 0, 55, 64
2, 126471, Note_on_c, 0, 54, 40
2, 126485, Note_off_c, 0, 62, 64
2, 126716, Note_on_c, 0, 57, 39
2, 126740, Control_c, 0, 64, 0
2, 126946, Note_off_c, 0, 54, 64
2, 126960, Note_on_c, 0, 60, 48
2, 126970, Control_c, 0, 64, 127
2, 126975, Note_off_c, 0, 57, 64
2, 127268, Note_on_c, 0, 74, 80
2, 127282, Note_off_c, 0, 60, 64
2, 127292, Note_on_c, 0, 55, 34
2, 127397, Control_c, 0, 64, 0
2, 127556, Note_on_c, 0, 58, 50
2, 127671, Note_off_c, 0, 74, 64
2, 127676, Control_c, 0, 64, 127
2, 127815, Note_on_c, 0, 62, 35
2, 127839, Note_off_c, 0, 58, 64
2, 127882, Note_off_c, 0, 55, 64
2, 127992, Note_off_c, 0, 62, 64
2, 128084, Note_on_c, 0, 54, 25
2, 128088, Note_on_c, 0, 74, 67
2, 128184, Control_c, 0, 64, 0
2, 128352, Note_on_c, 0, 57, 44
2, 128410, Note_off_c, 0, 74, 64
2, 128415, Control_c, 0, 64, 127
2, 128544, Note_off_c, 0, 57, 64
2, 128568, Note_on_c, 0, 60, 40
2, 128616, Note_on_c, 0, 74, 89
2, 128660, Note_off_c, 0, 54, 64
2, 128775, Note_off_c, 0, 60, 64
2, 128823, Note_on_c, 0, 75, 67
2, 128842, Note_on_c, 0, 55, 34
2, 128852, Note_off_c, 0, 74, 64
2, 128904, Control_c, 0, 64, 0
2, 129092, Note_on_c, 0, 58, 57
2, 129245, Control_c, 0, 64, 127
2, 129332, Note_off_c, 0, 58, 64
2, 129360, Note_on_c, 0, 74, 43
2, 129365, Note_on_c, 0, 62, 25
2, 129394, Note_off_c, 0, 75, 64
2, 129466, Note_off_c, 0, 55, 64
2, 129557, Note_on_c, 0, 54, 40
2, 129572, Note_off_c, 0, 62, 64
2, 129644, Control_c, 0, 64, 0
2, 129778, Note_off_c, 0, 74, 64
2, 129821, Note_on_c, 0, 57, 46
2, 129860, Control_c, 0, 64, 127
2, 130028, Note_off_c, 0, 57, 64
2, 130042, Note_on_c, 0, 60, 53
2, 130100, Note_on_c, 0, 86, 98
2, 130234, Note_off_c, 0, 54, 64
2, 130244, Note_off_c, 0, 60, 64
2, 130301, Note_on_c, 0, 87, 91
2, 130325, Note_on_c, 0, 55, 32
2, 130330, Note_off_c, 0, 86, 64
2, 130474, Control_c, 0, 64, 0
2, 130570, Note_on_c, 0, 58, 54
2, 130767, Control_c, 0, 64, 127
2, 130776, Note_off_c, 0, 55, 64
2, 130839, Note_on_c, 0, 62, 38
2, 130872, Note_off_c, 0, 58, 64
2, 130920, Note_on_c, 0, 86, 61
2, 130930, Note_off_c, 0, 87, 64
2, 131021, Note_off_c, 0, 62, 64
2, 131108, Note_on_c, 0, 55, 59
2, 131132, Note_off_c, 0, 86, 64
2, 131314, Note_on_c, 0, 59, 76
2, 131348, Control_c, 0, 64, 0
2, 131487, Control_c, 0, 64, 127
2, 131520, Note_on_c, 0, 62, 83
2, 131530, Note_off_c, 0, 59, 64
2, 131573, Note_on_c, 0, 79, 118
2, 131583, Note_on_c, 0, 67, 106
2, 131650, Note_off_c, 0, 62, 64
2, 131679, Note_off_c, 0, 67, 64
2, 131708, Note_off_c, 0, 79, 64
2, 131784, Note_on_c, 0, 80, 113
2, 131789, Note_on_c, 0, 68, 44
2, 131799, Note_on_c, 0, 65, 87
2, 131810, Note_on_c, 0, 62, 51
2, 131813, Note_off_c, 0, 55, 64
2, 131813, Note_on_c, 0, 59, 61
2, 132452, Control_c, 0, 64, 0
2, 133023, Control_c, 0, 64, 127
2, 133230, Note_off_c, 0, 68, 64
2, 133388, Note_off_c, 0, 80, 64
2, 133407, Note_on_c, 0, 79, 55
2, 133436, Note_on_c, 0, 67, 29
2, 133532, Control_c, 0, 64, 0
2, 133716, Note_off_c, 0, 62, 64
2, 133743, Note_off_c, 0, 65, 64
2, 133772, Note_off_c, 0, 67, 64
2, 133776, Note_off_c, 0, 59, 64
2, 133776, Note_off_c, 0, 79, 64
2, 135010, Note_on_c, 0, 48, 46
2, 135111, Control_c, 0, 64, 127
2, 135149, Note_on_c, 0, 51, 52
2, 135216, Note_off_c, 0, 51, 64
2, 135260, Note_off_c, 0, 48, 64
2, 135260, Note_on_c, 0, 55, 42
2, 135341, Note_off_c, 0, 55, 64
2, 135370, Note_on_c, 0, 51, 40
2, 135432, Note_off_c, 0, 51, 64
2, 135466, Note_on_c, 0, 55, 43
2, 135567, Note_off_c, 0, 55, 64
2, 135586, Note_on_c, 0, 51, 34
2, 135653, Control_c, 0, 64, 0
2, 135677, Note_off_c, 0, 51, 64
2, 135735, Note_on_c, 0, 48, 50
2, 135855, Note_on_c, 0, 51, 52
2, 135864, Control_c, 0, 64, 127
2, 135936, Note_off_c, 0, 51, 64
2, 135984, Note_off_c, 0, 48, 64
2, 135984, Note_on_c, 0, 67, 65
2, 136013, Note_on_c, 0, 55, 41
2, 136080, Note_off_c, 0, 67, 64
2, 136085, Note_off_c, 0, 55, 64
2, 136109, Note_on_c, 0, 51, 47
2, 136191, Note_off_c, 0, 51, 64
2, 136215, Note_on_c, 0, 67, 74
2, 136263, Note_on_c, 0, 55, 40
2, 136282, Note_off_c, 0, 67, 64
2, 136340, Note_off_c, 0, 55, 64
2, 136364, Note_on_c, 0, 51, 42
2, 136436, Note_off_c, 0, 51, 64
2, 136498, Note_on_c, 0, 48, 50
2, 136498, Note_on_c, 0, 67, 60
2, 136512, Control_c, 0, 64, 0
2, 136584, Note_off_c, 0, 67, 64
2, 136604, Note_on_c, 0, 68, 73
2, 136623, Note_on_c, 0, 50, 47
2, 136666, Note_on_c, 0, 67, 81
2, 136671, Note_off_c, 0, 68, 64
2, 136695, Control_c, 0, 64, 127
2, 136724, Note_off_c, 0, 67, 64
2, 136743, Note_off_c, 0, 50, 64
2, 136743, Note_on_c, 0, 66, 73
2, 136786, Note_on_c, 0, 53, 45
2, 136815, Note_on_c, 0, 67, 79
2, 136834, Note_off_c, 0, 66, 64
2, 136848, Control_c, 0, 64, 0
2, 136863, Note_off_c, 0, 53, 64
2, 136935, Note_on_c, 0, 68, 87
2, 136944, Note_on_c, 0, 50, 52
2, 136959, Note_off_c, 0, 67, 64
2, 137007, Note_off_c, 0, 50, 64
2, 137084, Note_on_c, 0, 53, 57
2, 137084, Note_on_c, 0, 67, 75
2, 137093, Note_off_c, 0, 68, 64
2, 137127, Note_off_c, 0, 48, 64
2, 137127, Control_c, 0, 64, 127
2, 137189, Note_off_c, 0, 53, 64
2, 137213, Note_on_c, 0, 50, 41
2, 137300, Note_off_c, 0, 50, 64
2, 137372, Note_on_c, 0, 77, 84
2, 137381, Note_off_c, 0, 67, 64
2, 137386, Note_on_c, 0, 48, 48
2, 137448, Control_c, 0, 64, 0
2, 137559, Note_on_c, 0, 50, 48
2, 137626, Note_off_c, 0, 50, 64
2, 137688, Note_on_c, 0, 53, 39
2, 137741, Control_c, 0, 64, 127
2, 137765, Note_off_c, 0, 53, 64
2, 137832, Note_on_c, 0, 50, 39
2, 137866, Note_off_c, 0, 48, 64
2, 137900, Note_off_c, 0, 50, 64
2, 137933, Note_on_c, 0, 71, 55
2, 137972, Note_off_c, 0, 77, 64
2, 137996, Note_on_c, 0, 53, 40
2, 138068, Note_off_c, 0, 53, 64
2, 138087, Note_on_c, 0, 50, 57
2, 138144, Note_off_c, 0, 50, 64
2, 138192, Note_on_c, 0, 74, 71
2, 138202, Control_c, 0, 64, 0
2, 138226, Note_on_c, 0, 48, 51
2, 138250, Note_off_c, 0, 71, 64
2, 138356, Note_on_c, 0, 51, 52
2, 138428, Note_off_c, 0, 51, 64
2, 138452, Note_on_c, 0, 55, 45
2, 138509, Control_c, 0, 64, 127
2, 138557, Note_off_c, 0, 55, 64
2, 138576, Note_on_c, 0, 51, 42
2, 138658, Note_off_c, 0, 51, 64
2, 138687, Note_off_c, 0, 74, 64
2, 138701, Note_on_c, 0, 72, 57
2, 138730, Note_on_c, 0, 55, 36
2, 138759, Note_off_c, 0, 48, 64
2, 138816, Note_off_c, 0, 55, 64
2, 138826, Note_on_c, 0, 51, 57
2, 138845, Control_c, 0, 64, 0
2, 138864, Note_off_c, 0, 72, 64
2, 138888, Note_off_c, 0, 51, 64
2, 138936, Note_on_c, 0, 48, 63
2, 138984, Control_c, 0, 64, 127
2, 139056, Note_on_c, 0, 51, 61
2, 139128, Note_off_c, 0, 51, 64
2, 139181, Note_on_c, 0, 79, 92
2, 139196, Note_on_c, 0, 55, 48
2, 139277, Note_off_c, 0, 55, 64
2, 139282, Note_off_c, 0, 79, 64
2, 139306, Note_on_c, 0, 51, 51
2, 139316, Note_off_c, 0, 48, 64
2, 139402, Note_off_c, 0, 51, 64
2, 139436, Note_on_c, 0, 79, 97
2, 139464, Note_on_c, 0, 55, 59
2, 139541, Note_off_c, 0, 55, 64
2, 139560, Note_on_c, 0, 51, 56
2, 139608, Note_off_c, 0, 79, 64
2, 139628, Note_off_c, 0, 51, 64
2, 139680, Note_on_c, 0, 48, 57
2, 139690, Note_on_c, 0, 78, 86
2, 139704, Control_c, 0, 64, 0
2, 139810, Note_on_c, 0, 50, 67
2, 139815, Note_on_c, 0, 79, 93
2, 139829, Note_off_c, 0, 78, 64
2, 139868, Note_off_c, 0, 50, 64
2, 139930, Note_on_c, 0, 80, 92
2, 139944, Note_off_c, 0, 79, 64
2, 139949, Note_on_c, 0, 53, 40
2, 139997, Control_c, 0, 64, 127
2, 140021, Note_off_c, 0, 53, 64
2, 140040, Note_on_c, 0, 79, 85
2, 140098, Note_off_c, 0, 80, 64
2, 140098, Note_on_c, 0, 50, 49
2, 140136, Note_off_c, 0, 48, 64
2, 140141, Note_off_c, 0, 79, 64
2, 140156, Note_off_c, 0, 50, 64
2, 140175, Note_on_c, 0, 77, 90
2, 140213, Note_on_c, 0, 53, 46
2, 140285, Note_off_c, 0, 53, 64
2, 140285, Note_on_c, 0, 75, 86
2, 140290, Note_off_c, 0, 77, 64
2, 140333, Note_on_c, 0, 50, 60
2, 140396, Note_off_c, 0, 50, 64
2, 140400, Note_on_c, 0, 74, 92
2, 140429, Control_c, 0, 64, 0
2, 140439, Note_on_c, 0, 48, 60
2, 140444, Note_off_c, 0, 75, 64
2, 140520, Note_on_c, 0, 72, 96
2, 140544, Note_off_c, 0, 74, 64
2, 140559, Note_on_c, 0, 50, 50
2, 140612, Note_off_c, 0, 50, 64
2, 140636, Note_on_c, 0, 71, 78
2, 140645, Note_off_c, 0, 72, 64
2, 140645, Note_on_c, 0, 53, 56
2, 140717, Note_off_c, 0, 53, 64
2, 140756, Note_on_c, 0, 74, 94
2, 140760, Note_on_c, 0, 50, 45
2, 140784, Note_off_c, 0, 71, 64
2, 140804, Note_off_c, 0, 48, 64
2, 140813, Control_c, 0, 64, 127
2, 140837, Note_off_c, 0, 50, 64
2, 140871, Note_off_c, 0, 74, 64
2, 140876, Note_on_c, 0, 77, 91
2, 140890, Note_on_c, 0, 53, 57
2, 140981, Note_on_c, 0, 71, 76
2, 140991, Note_off_c, 0, 77, 64
2, 140996, Note_off_c, 0, 53, 64
2, 140996, Note_on_c, 0, 50, 61
2, 141044, Control_c, 0, 64, 0
2, 141077, Note_off_c, 0, 50, 64
2, 141120, Note_off_c, 0, 71, 64
2, 141159, Note_on_c, 0, 48, 52
2, 141168, Note_on_c, 0, 74, 77
2, 141317, Note_on_c, 0, 51, 50
2, 141399, Note_off_c, 0, 51, 64
2, 141452, Note_on_c, 0, 55, 40
2, 141528, Note_off_c, 0, 55, 64
2, 141562, Note_on_c, 0, 51, 56
2, 141581, Control_c, 0, 64, 127
2, 141634, Note_off_c, 0, 51, 64
2, 141672, Control_c, 0, 64, 0
2, 141735, Note_on_c, 0, 72, 63
2, 141749, Note_on_c, 0, 55, 32
2, 141754, Note_off_c, 0, 74, 64
2, 141816, Note_off_c, 0, 55, 64
2, 141826, Note_on_c, 0, 51, 37
2, 141922, Note_off_c, 0, 48, 64
2, 141946, Note_off_c, 0, 51, 64
2, 141975, Note_on_c, 0, 46, 76
2, 141989, Note_off_c, 0, 72, 64
2, 142124, Note_on_c, 0, 52, 59
2, 142176, Note_off_c, 0, 52, 64
2, 142196, Control_c, 0, 64, 127
2, 142234, Note_on_c, 0, 72, 84
2, 142248, Note_on_c, 0, 55, 48
2, 142306, Note_off_c, 0, 55, 64
2, 142349, Note_off_c, 0, 72, 64
2, 142368, Note_on_c, 0, 52, 59
2, 142416, Note_off_c, 0, 52, 64
2, 142474, Note_on_c, 0, 72, 87
2, 142488, Note_on_c, 0, 55, 63
2, 142551, Note_off_c, 0, 55, 64
2, 142580, Note_on_c, 0, 52, 61
2, 142589, Note_off_c, 0, 72, 64
2, 142604, Note_off_c, 0, 46, 64
2, 142628, Note_off_c, 0, 52, 64
2, 142719, Note_on_c, 0, 45, 80
2, 142724, Note_on_c, 0, 72, 89
2, 142781, Control_c, 0, 64, 0
2, 142839, Note_on_c, 0, 48, 75
2, 142930, Note_off_c, 0, 48, 64
2, 142944, Note_on_c, 0, 53, 67
2, 142959, Note_off_c, 0, 72, 64
2, 142964, Control_c, 0, 64, 127
2, 142997, Note_on_c, 0, 74, 82
2, 143026, Note_off_c, 0, 53, 64
2, 143040, Note_on_c, 0, 72, 87
2, 143074, Note_on_c, 0, 48, 79
2, 143093, Note_off_c, 0, 74, 64
2, 143122, Note_on_c, 0, 71, 82
2, 143127, Note_off_c, 0, 48, 64
2, 143141, Note_off_c, 0, 72, 64
2, 143180, Note_on_c, 0, 53, 78
2, 143194, Control_c, 0, 64, 0
2, 143204, Note_on_c, 0, 72, 109
2, 143232, Note_off_c, 0, 71, 64
2, 143232, Note_off_c, 0, 53, 64
2, 143271, Note_on_c, 0, 48, 84
2, 143319, Control_c, 0, 64, 127
2, 143328, Note_off_c, 0, 48, 64
2, 143357, Note_on_c, 0, 74, 106
2, 143396, Note_off_c, 0, 72, 64
2, 143396, Note_on_c, 0, 53, 75
2, 143434, Note_off_c, 0, 45, 64
2, 143458, Note_off_c, 0, 53, 64
2, 143501, Control_c, 0, 64, 0
2, 143516, Note_on_c, 0, 44, 67
2, 143525, Note_on_c, 0, 75, 86
2, 143568, Note_off_c, 0, 74, 64
2, 143655, Note_on_c, 0, 48, 78
2, 143770, Note_on_c, 0, 51, 63
2, 143784, Note_off_c, 0, 48, 64
2, 143842, Note_off_c, 0, 51, 64
2, 143871, Note_on_c, 0, 48, 66
2, 143972, Note_off_c, 0, 48, 64
2, 144024, Note_on_c, 0, 51, 59
2, 144029, Note_off_c, 0, 75, 64
2, 144034, Note_on_c, 0, 66, 62
2, 144140, Note_off_c, 0, 51, 64
2, 144168, Note_on_c, 0, 48, 57
2, 144207, Note_off_c, 0, 44, 64
2, 144231, Note_off_c, 0, 48, 64
2, 144332, Note_off_c, 0, 66, 64
2, 144346, Note_on_c, 0, 43, 36
2, 144351, Note_on_c, 0, 67, 51
2, 144351, Note_on_c, 0, 47, 44
2, 144610, Control_c, 0, 64, 127
2, 144677, Note_off_c, 0, 67, 64
2, 144687, Note_on_c, 0, 55, 51
2, 144778, Note_off_c, 0, 47, 64
2, 144807, Note_off_c, 0, 43, 64
2, 144836, Note_on_c, 0, 67, 55
2, 144903, Note_off_c, 0, 67, 64
2, 144941, Note_on_c, 0, 66, 72
2, 145008, Control_c, 0, 64, 0
2, 145061, Note_on_c, 0, 67, 88
2, 145066, Note_off_c, 0, 66, 64
2, 145090, Note_off_c, 0, 55, 64
2, 145167, Note_off_c, 0, 67, 64
2, 145181, Note_on_c, 0, 68, 84
2, 145292, Note_off_c, 0, 68, 64
2, 145301, Note_on_c, 0, 69, 84
2, 145392, Note_off_c, 0, 69, 64
2, 145402, Note_on_c, 0, 70, 94
2, 145536, Note_on_c, 0, 71, 66
2, 145541, Note_off_c, 0, 70, 64
2, 145618, Note_on_c, 0, 56, 62
2, 145628, Note_on_c, 0, 60, 61
2, 145647, Note_off_c, 0, 71, 64
2, 145661, Note_on_c, 0, 72, 79
2, 145772, Note_on_c, 0, 66, 69
2, 145800, Note_off_c, 0, 72, 64
2, 145844, Note_off_c, 0, 66, 64
2, 145848, Note_off_c, 0, 60, 64
2, 145853, Note_off_c, 0, 56, 64
2, 145916, Note_on_c, 0, 55, 75
2, 145916, Note_on_c, 0, 59, 62
2, 145925, Note_on_c, 0, 67, 74
2, 145988, Note_off_c, 0, 67, 64
2, 145992, Control_c, 0, 64, 127
2, 145997, Note_off_c, 0, 59, 64
2, 146026, Note_off_c, 0, 55, 64
2, 146208, Note_on_c, 0, 43, 75
2, 146328, Control_c, 0, 64, 0
2, 146348, Note_on_c, 0, 55, 68
2, 146391, Note_off_c, 0, 43, 64
2, 146420, Note_off_c, 0, 55, 64
2, 146448, Note_on_c, 0, 54, 80
2, 146578, Note_on_c, 0, 55, 83
2, 146583, Note_off_c, 0, 54, 64
2, 146684, Note_off_c, 0, 55, 64
2, 146688, Note_on_c, 0, 56, 81
2, 146813, Note_off_c, 0, 56, 64
2, 146813, Note_on_c, 0, 57, 83
2, 146885, Note_off_c, 0, 57, 64
2, 146919, Note_on_c, 0, 58, 82
2, 147010, Note_off_c, 0, 58, 64
2, 147033, Note_on_c, 0, 59, 82
2, 147106, Note_off_c, 0, 59, 64
2, 147130, Note_on_c, 0, 60, 82
2, 147144, Note_on_c, 0, 44, 63
2, 147144, Note_on_c, 0, 48, 78
2, 147288, Note_on_c, 0, 54, 68
2, 147293, Note_off_c, 0, 60, 64
2, 147351, Note_off_c, 0, 44, 64
2, 147356, Note_off_c, 0, 48, 64
2, 147380, Note_off_c, 0, 54, 64
2, 147456, Note_on_c, 0, 47, 40
2, 147456, Note_on_c, 0, 43, 28
2, 147461, Note_on_c, 0, 55, 59
2, 147552, Note_off_c, 0, 47, 64
2, 147591, Note_off_c, 0, 43, 64
2, 147605, Control_c, 0, 64, 127
2, 147668, Note_off_c, 0, 55, 64
2, 147850, Note_on_c, 0, 31, 62
2, 147980, Note_on_c, 0, 78, 72
2, 147989, Control_c, 0, 64, 0
2, 148061, Note_off_c, 0, 31, 64
2, 148109, Note_on_c, 0, 79, 85
2, 148119, Note_off_c, 0, 78, 64
2, 148215, Note_on_c, 0, 78, 69
2, 148224, Note_off_c, 0, 79, 64
2, 148364, Note_off_c, 0, 78, 64
2, 148364, Note_on_c, 0, 79, 76
2, 148464, Control_c, 0, 64, 127
2, 148493, Note_off_c, 0, 79, 64
2, 148618, Note_on_c, 0, 55, 43
2, 148680, Control_c, 0, 64, 0
2, 148748, Note_on_c, 0, 66, 62
2, 148824, Note_off_c, 0, 66, 64
2, 148863, Note_off_c, 0, 55, 64
2, 148868, Note_on_c, 0, 67, 70
2, 148949, Note_off_c, 0, 67, 64
2, 148992, Note_on_c, 0, 66, 60
2, 149093, Note_off_c, 0, 66, 64
2, 149141, Note_on_c, 0, 67, 69
2, 149228, Note_off_c, 0, 67, 64
2, 149232, Control_c, 0, 64, 127
2, 149386, Note_on_c, 0, 43, 53
2, 149434, Control_c, 0, 64, 0
2, 149530, Note_on_c, 0, 54, 58
2, 149636, Note_off_c, 0, 54, 64
2, 149650, Note_off_c, 0, 43, 64
2, 149655, Note_on_c, 0, 55, 59
2, 149775, Note_on_c, 0, 54, 55
2, 149784, Note_off_c, 0, 55, 64
2, 149928, Note_on_c, 0, 55, 34
2, 149933, Note_off_c, 0, 54, 64
2, 150096, Control_c, 0, 64, 127
2, 150106, Note_off_c, 0, 55, 64
2, 150317, Note_on_c, 0, 31, 46
2, 150586, Control_c, 0, 64, 0
2, 150600, Note_on_c, 0, 42, 61
2, 150668, Note_off_c, 0, 31, 64
2, 150725, Note_on_c, 0, 43, 76
2, 150740, Note_off_c, 0, 42, 64
2, 150864, Note_on_c, 0, 42, 82
2, 150888, Note_off_c, 0, 43, 64
2, 151018, Note_on_c, 0, 43, 81
2, 151037, Note_off_c, 0, 42, 64
2, 151157, Note_on_c, 0, 38, 89
2, 151172, Note_off_c, 0, 43, 64
2, 151301, Note_on_c, 0, 39, 88
2, 151320, Note_off_c, 0, 38, 64
2, 151397, Control_c, 0, 64, 127
2, 151407, Note_off_c, 0, 39, 64
2, 151421, Note_on_c, 0, 35, 79
2, 151570, Note_off_c, 0, 35, 64
2, 151575, Note_on_c, 0, 36, 80
2, 151613, Control_c, 0, 64, 0
2, 151695, Note_on_c, 0, 30, 78
2, 151700, Note_off_c, 0, 36, 64
2, 151738, Note_off_c, 0, 30, 64
2, 151829, Note_on_c, 0, 31, 101
2, 151964, Note_on_c, 0, 30, 90
2, 151968, Note_off_c, 0, 31, 64
2, 152088, Note_on_c, 0, 31, 75
2, 152112, Note_off_c, 0, 30, 64
2, 152228, Note_on_c, 0, 30, 79
2, 152247, Note_off_c, 0, 31, 64
2, 152367, Note_on_c, 0, 31, 76
2, 152386, Note_off_c, 0, 30, 64
2, 152501, Note_on_c, 0, 30, 90
2, 152516, Note_off_c, 0, 31, 64
2, 152583, Note_off_c, 0, 30, 64
2, 152583, Control_c, 0, 64, 127
2, 152679, Note_on_c, 0, 31, 107
2, 152780, Control_c, 0, 64, 0
2, 152876, Note_off_c, 0, 31, 64
2, 152895, Note_on_c, 0, 35, 91
2, 153024, Note_off_c, 0, 35, 64
2, 153048, Note_on_c, 0, 38, 97
2, 153149, Note_off_c, 0, 38, 64
2, 153188, Note_on_c, 0, 43, 100
2, 153274, Note_off_c, 0, 43, 64
2, 153336, Note_on_c, 0, 47, 91
2, 153423, Note_off_c, 0, 47, 64
2, 153466, Note_on_c, 0, 50, 108
2, 153567, Note_off_c, 0, 50, 64
2, 153605, Note_on_c, 0, 55, 103
2, 153701, Note_off_c, 0, 55, 64
2, 153749, Note_on_c, 0, 59, 87
2, 153855, Note_off_c, 0, 59, 64
2, 153888, Note_on_c, 0, 62, 96
2, 153922, Note_off_c, 0, 62, 64
2, 154037, Note_on_c, 0, 67, 106
2, 154124, Note_off_c, 0, 67, 64
2, 154196, Note_on_c, 0, 71, 97
2, 154292, Note_off_c, 0, 71, 64
2, 154359, Note_on_c, 0, 74, 109
2, 154397, Note_off_c, 0, 74, 64
2, 154503, Control_c, 0, 64, 127
2, 154661, Note_on_c, 0, 89, 121
2, 154661, Note_on_c, 0, 77, 111
2, 154983, Note_on_c, 0, 44, 108
2, 154983, Note_on_c, 0, 32, 105
2, 155007, Note_off_c, 0, 32, 64
2, 155031, Note_off_c, 0, 44, 64
2, 155348, Note_off_c, 0, 89, 64
2, 155391, Note_on_c, 0, 56, 109
2, 155391, Note_on_c, 0, 44, 100
2, 155429, Note_off_c, 0, 77, 64
2, 155655, Control_c, 0, 64, 0
2, 155674, Note_on_c, 0, 83, 106
2, 155674, Note_on_c, 0, 71, 92
2, 155924, Note_off_c, 0, 56, 64
2, 155948, Note_off_c, 0, 44, 64
2, 155962, Control_c, 0, 64, 127
2, 155981, Note_on_c, 0, 55, 103
2, 155991, Note_on_c, 0, 43, 96
2, 156072, Note_off_c, 0, 55, 64
2, 156096, Note_off_c, 0, 43, 64
2, 156255, Note_on_c, 0, 53, 92
2, 156260, Note_on_c, 0, 41, 93
2, 156312, Note_off_c, 0, 41, 64
2, 156341, Note_off_c, 0, 53, 64
2, 156437, Control_c, 0, 64, 0
2, 156557, Note_on_c, 0, 40, 81
2, 156557, Note_on_c, 0, 52, 75
2, 156740, Note_off_c, 0, 71, 64
2, 156778, Control_c, 0, 64, 127
2, 156821, Note_off_c, 0, 40, 64
2, 156840, Note_on_c, 0, 84, 100
2, 156850, Note_on_c, 0, 72, 95
2, 156855, Note_off_c, 0, 52, 64
2, 156864, Note_off_c, 0, 83, 64
2, 156864, Note_off_c, 0, 84, 64
2, 156888, Note_off_c, 0, 72, 64
2, 157128, Note_on_c, 0, 58, 84
2, 157138, Note_on_c, 0, 76, 101
2, 157138, Note_on_c, 0, 64, 81
2, 157148, Note_on_c, 0, 46, 66
2, 157330, Control_c, 0, 64, 0
2, 157335, Note_off_c, 0, 58, 64
2, 157335, Note_off_c, 0, 46, 64
2, 157426, Note_on_c, 0, 57, 69
2, 157431, Note_on_c, 0, 45, 68
2, 157556, Note_off_c, 0, 64, 64
2, 157575, Control_c, 0, 64, 127
2, 157580, Note_off_c, 0, 45, 64
2, 157599, Note_off_c, 0, 76, 64
2, 157647, Note_off_c, 0, 57, 64
2, 157695, Note_on_c, 0, 77, 90
2, 157700, Note_on_c, 0, 65, 75
2, 157733, Note_off_c, 0, 77, 64
2, 157738, Note_off_c, 0, 65, 64
2, 157959, Control_c, 0, 64, 0
2, 157968, Note_on_c, 0, 56, 50
2, 157978, Note_on_c, 0, 78, 67
2, 158232, Note_off_c, 0, 56, 64
2, 158290, Note_on_c, 0, 55, 44
2, 158516, Note_off_c, 0, 78, 64
2, 158535, Note_on_c, 0, 79, 64
2, 158573, Control_c, 0, 64, 127
2, 158751, Note_off_c, 0, 55, 64
2, 158789, Control_c, 0, 64, 0
2, 158804, Note_off_c, 0, 79, 64
2, 158870, Note_on_c, 0, 54, 30
2, 158871, Note_on_c, 0, 81, 52
2, 158872, Note_on_c, 0, 63, 27
2, 158874, Note_on_c, 0, 72, 49
2, 158932, Note_off_c, 0, 72, 64
2, 158957, Control_c, 0, 64, 127
2, 158964, Note_off_c, 0, 63, 64
2, 158976, Note_off_c, 0, 81, 64
2, 159014, Note_off_c, 0, 54, 64
2, 159257, Note_on_c, 0, 55, 21
2, 159260, Note_on_c, 0, 72, 61
2, 159261, Note_on_c, 0, 63, 22
2, 159261, Note_on_c, 0, 67, 33
2, 159375, Control_c, 0, 64, 0
2, 159668, Control_c, 0, 64, 127
2, 159741, Note_off_c, 0, 63, 64
2, 159798, Note_off_c, 0, 67, 64
2, 159845, Note_off_c, 0, 72, 64
2, 159850, Note_on_c, 0, 75, 52
2, 159858, Note_on_c, 0, 65, 21
2, 159858, Note_on_c, 0, 71, 23
2, 159876, Note_off_c, 0, 55, 64
2, 159906, Note_off_c, 0, 65, 64
2, 159944, Note_off_c, 0, 71, 64
2, 160004, Note_off_c, 0, 75, 64
2, 160037, Note_on_c, 0, 74, 44
2, 160176, Note_off_c, 0, 74, 64
2, 160224, Note_on_c, 0, 48, 48
2, 160224, Note_on_c, 0, 72, 54
2, 160383, Note_on_c, 0, 55, 48
2, 160431, Note_off_c, 0, 72, 64
2, 160460, Note_off_c, 0, 55, 64
2, 160503, Note_on_c, 0, 51, 56
2, 160527, Control_c, 0, 64, 0
2, 160565, Note_off_c, 0, 48, 64
2, 160570, Note_off_c, 0, 51, 64
2, 160637, Note_on_c, 0, 72, 74
2, 160642, Note_on_c, 0, 55, 58
2, 160690, Note_off_c, 0, 72, 64
2, 160709, Note_off_c, 0, 55, 64
2, 160757, Note_on_c, 0, 48, 62
2, 160762, Note_on_c, 0, 71, 55
2, 160810, Note_off_c, 0, 71, 64
2, 160820, Note_off_c, 0, 48, 64
2, 160887, Note_on_c, 0, 72, 91
2, 160892, Note_on_c, 0, 55, 52
2, 160935, Note_off_c, 0, 72, 64
2, 160973, Note_off_c, 0, 55, 64
2, 161012, Note_on_c, 0, 73, 79
2, 161021, Note_on_c, 0, 47, 53
2, 161165, Note_off_c, 0, 73, 64
2, 161175, Note_on_c, 0, 55, 43
2, 161194, Note_on_c, 0, 74, 50
2, 161237, Note_off_c, 0, 55, 64
2, 161285, Note_on_c, 0, 53, 49
2, 161343, Note_off_c, 0, 74, 64
2, 161352, Note_off_c, 0, 53, 64
2, 161367, Note_off_c, 0, 47, 64
2, 161424, Note_on_c, 0, 55, 65
2, 161424, Note_on_c, 0, 74, 92
2, 161472, Note_off_c, 0, 74, 64
2, 161492, Note_off_c, 0, 55, 64
2, 161554, Note_on_c, 0, 73, 86
2, 161568, Note_on_c, 0, 47, 46
2, 161602, Note_off_c, 0, 73, 64
2, 161660, Note_off_c, 0, 47, 64
2, 161684, Note_on_c, 0, 74, 100
2, 161693, Note_on_c, 0, 55, 69
2, 161732, Note_off_c, 0, 74, 64
2, 161765, Note_off_c, 0, 55, 64
2, 161823, Note_on_c, 0, 75, 87
2, 161823, Note_on_c, 0, 46, 92
2, 161952, Note_on_c, 0, 55, 64
2, 161976, Note_off_c, 0, 75, 64
2, 161981, Note_on_c, 0, 76, 78
2, 161991, Note_off_c, 0, 46, 64
2, 162024, Note_off_c, 0, 55, 64
2, 162111, Note_on_c, 0, 48, 67
2, 162149, Note_off_c, 0, 76, 64
2, 162202, Note_off_c, 0, 48, 64
2, 162221, Note_on_c, 0, 76, 99
2, 162240, Note_on_c, 0, 55, 64
2, 162322, Note_off_c, 0, 55, 64
2, 162332, Note_off_c, 0, 76, 64
2, 162351, Note_on_c, 0, 75, 97
2, 162360, Note_on_c, 0, 46, 89
2, 162447, Note_off_c, 0, 75, 64
2, 162476, Note_on_c, 0, 76, 110
2, 162490, Note_on_c, 0, 55, 74
2, 162504, Note_off_c, 0, 46, 64
2, 162552, Note_off_c, 0, 76, 64
2, 162610, Note_off_c, 0, 55, 64
2, 162624, Note_on_c, 0, 76, 108
2, 162634, Note_on_c, 0, 44, 88
2, 162759, Note_off_c, 0, 44, 64
2, 162778, Note_on_c, 0, 77, 97
2, 162783, Note_on_c, 0, 53, 73
2, 162807, Note_off_c, 0, 76, 64
2, 162874, Note_off_c, 0, 77, 64
2, 162908, Note_off_c, 0, 53, 64
2, 162927, Note_on_c, 0, 48, 92
2, 162980, Note_off_c, 0, 48, 64
2, 163032, Note_on_c, 0, 77, 103
2, 163032, Note_on_c, 0, 53, 71
2, 163124, Note_off_c, 0, 77, 64
2, 163128, Note_off_c, 0, 53, 64
2, 163162, Note_on_c, 0, 76, 98
2, 163167, Note_on_c, 0, 44, 83
2, 163220, Note_off_c, 0, 44, 64
2, 163224, Note_off_c, 0, 76, 64
2, 163282, Note_on_c, 0, 53, 70
2, 163282, Note_on_c, 0, 77, 105
2, 163325, Note_off_c, 0, 53, 64
2, 163364, Note_off_c, 0, 77, 64
2, 163431, Note_on_c, 0, 79, 104
2, 163431, Note_on_c, 0, 39, 91
2, 163560, Note_on_c, 0, 72, 96
2, 163608, Note_off_c, 0, 79, 64
2, 163676, Note_off_c, 0, 72, 64
2, 163709, Note_on_c, 0, 84, 85
2, 163714, Note_off_c, 0, 39, 64
2, 163748, Note_off_c, 0, 84, 64
2, 163834, Note_on_c, 0, 84, 81
2, 163892, Note_off_c, 0, 84, 64
2, 163983, Note_on_c, 0, 84, 79
2, 164036, Note_off_c, 0, 84, 64
2, 164132, Note_on_c, 0, 84, 87
2, 164180, Note_off_c, 0, 84, 64
2, 164266, Note_on_c, 0, 53, 56
2, 164271, Note_on_c, 0, 62, 55
2, 164410, Note_on_c, 0, 74, 74
2, 164540, Note_off_c, 0, 74, 64
2, 164554, Note_on_c, 0, 80, 75
2, 164573, Note_off_c, 0, 62, 64
2, 164602, Note_off_c, 0, 80, 64
2, 164616, Note_off_c, 0, 53, 64
2, 164679, Note_on_c, 0, 80, 72
2, 164732, Note_off_c, 0, 80, 64
2, 164823, Note_on_c, 0, 80, 68
2, 164876, Note_off_c, 0, 80, 64
2, 164972, Note_on_c, 0, 80, 64
2, 165034, Note_off_c, 0, 80, 64
2, 165106, Note_on_c, 0, 63, 44
2, 165149, Note_on_c, 0, 55, 31
2, 165269, Note_on_c, 0, 72, 61
2, 165336, Note_off_c, 0, 72, 64
2, 165428, Note_on_c, 0, 79, 57
2, 165447, Note_off_c, 0, 55, 64
2, 165461, Note_off_c, 0, 63, 64
2, 165476, Note_off_c, 0, 79, 64
2, 165557, Note_on_c, 0, 79, 70
2, 165605, Note_off_c, 0, 79, 64
2, 165720, Note_on_c, 0, 79, 63
2, 165773, Note_off_c, 0, 79, 64
2, 165845, Note_on_c, 0, 79, 81
2, 165888, Note_off_c, 0, 79, 64
2, 165994, Note_on_c, 0, 62, 44
2, 165999, Note_on_c, 0, 55, 48
2, 166143, Note_on_c, 0, 65, 75
2, 166196, Note_off_c, 0, 62, 64
2, 166224, Note_off_c, 0, 65, 64
2, 166263, Note_off_c, 0, 55, 64
2, 166287, Note_on_c, 0, 71, 59
2, 166325, Note_off_c, 0, 71, 64
2, 166402, Note_on_c, 0, 71, 66
2, 166450, Note_off_c, 0, 71, 64
2, 166560, Note_on_c, 0, 71, 66
2, 166604, Note_off_c, 0, 71, 64
2, 166685, Note_on_c, 0, 71, 75
2, 166748, Note_off_c, 0, 71, 64
2, 166844, Note_on_c, 0, 63, 81
2, 166848, Note_on_c, 0, 72, 100
2, 166853, Note_on_c, 0, 48, 93
2, 166863, Note_on_c, 0, 67, 80
2, 166959, Note_off_c, 0, 67, 64
2, 166978, Control_c, 0, 64, 127
2, 166988, Note_off_c, 0, 72, 64
2, 166988, Note_off_c, 0, 48, 64
2, 166988, Note_on_c, 0, 55, 70
2, 167045, Note_off_c, 0, 63, 64
2, 167093, Note_off_c, 0, 55, 64
2, 167103, Note_on_c, 0, 51, 73
2, 167223, Note_off_c, 0, 51, 64
2, 167228, Control_c, 0, 64, 0
2, 167252, Note_on_c, 0, 55, 55
2, 167261, Note_on_c, 0, 60, 80
2, 167300, Note_off_c, 0, 60, 64
2, 167324, Note_off_c, 0, 55, 64
2, 167391, Note_on_c, 0, 48, 71
2, 167396, Note_on_c, 0, 59, 61
2, 167434, Note_off_c, 0, 59, 64
2, 167444, Note_off_c, 0, 48, 64
2, 167511, Note_on_c, 0, 60, 73
2, 167530, Note_on_c, 0, 55, 55
2, 167564, Note_off_c, 0, 60, 64
2, 167592, Note_off_c, 0, 55, 64
2, 167655, Note_on_c, 0, 61, 76
2, 167674, Note_on_c, 0, 47, 53
2, 167794, Note_on_c, 0, 55, 55
2, 167808, Note_off_c, 0, 61, 64
2, 167808, Note_on_c, 0, 62, 65
2, 167818, Note_off_c, 0, 47, 64
2, 167856, Control_c, 0, 64, 127
2, 167900, Note_off_c, 0, 62, 64
2, 167900, Note_off_c, 0, 55, 64
2, 167938, Note_on_c, 0, 53, 58
2, 167948, Control_c, 0, 64, 0
2, 167996, Note_off_c, 0, 53, 64
2, 168048, Note_on_c, 0, 62, 83
2, 168058, Note_on_c, 0, 55, 67
2, 168096, Note_off_c, 0, 62, 64
2, 168120, Note_off_c, 0, 55, 64
2, 168178, Note_on_c, 0, 61, 90
2, 168188, Note_on_c, 0, 47, 62
2, 168231, Note_off_c, 0, 61, 64
2, 168250, Note_off_c, 0, 47, 64
2, 168322, Note_on_c, 0, 62, 85
2, 168332, Note_on_c, 0, 55, 62
2, 168375, Note_off_c, 0, 62, 64
2, 168408, Note_off_c, 0, 55, 64
2, 168452, Note_on_c, 0, 63, 88
2, 168461, Note_on_c, 0, 46, 93
2, 168591, Note_on_c, 0, 64, 80
2, 168591, Note_on_c, 0, 55, 64
2, 168596, Note_off_c, 0, 63, 64
2, 168596, Note_off_c, 0, 46, 64
2, 168639, Control_c, 0, 64, 127
2, 168672, Note_off_c, 0, 55, 64
2, 168716, Note_off_c, 0, 64, 64
2, 168730, Control_c, 0, 64, 0
2, 168735, Note_on_c, 0, 48, 76
2, 168821, Note_off_c, 0, 48, 64
2, 168836, Note_on_c, 0, 64, 84
2, 168855, Note_on_c, 0, 55, 72
2, 168903, Note_off_c, 0, 64, 64
2, 168927, Note_off_c, 0, 55, 64
2, 168970, Note_on_c, 0, 63, 94
2, 168975, Note_on_c, 0, 46, 92
2, 169066, Note_off_c, 0, 63, 64
2, 169066, Note_off_c, 0, 46, 64
2, 169085, Note_on_c, 0, 55, 82
2, 169100, Note_on_c, 0, 64, 94
2, 169133, Note_off_c, 0, 64, 64
2, 169167, Note_off_c, 0, 55, 64
2, 169229, Note_on_c, 0, 64, 92
2, 169248, Note_on_c, 0, 45, 97
2, 169368, Note_on_c, 0, 65, 97
2, 169373, Note_on_c, 0, 53, 74
2, 169392, Control_c, 0, 64, 127
2, 169397, Note_off_c, 0, 45, 64
2, 169421, Note_off_c, 0, 64, 64
2, 169469, Note_off_c, 0, 53, 64
2, 169484, Note_off_c, 0, 65, 64
2, 169498, Control_c, 0, 64, 0
2, 169508, Note_on_c, 0, 48, 92
2, 169604, Note_off_c, 0, 48, 64
2, 169623, Note_on_c, 0, 53, 84
2, 169628, Note_on_c, 0, 65, 109
2, 169690, Note_off_c, 0, 65, 64
2, 169704, Note_off_c, 0, 53, 64
2, 169752, Note_on_c, 0, 45, 97
2, 169752, Note_on_c, 0, 64, 101
2, 169834, Note_off_c, 0, 64, 64
2, 169863, Note_off_c, 0, 45, 64
2, 169868, Note_on_c, 0, 53, 92
2, 169882, Note_on_c, 0, 65, 101
2, 169935, Note_off_c, 0, 65, 64
2, 169940, Note_off_c, 0, 53, 64
2, 170018, Note_on_c, 0, 65, 103
2, 170021, Note_on_c, 0, 44, 101
2, 170144, Note_on_c, 0, 66, 103
2, 170160, Note_on_c, 0, 51, 80
2, 170170, Note_off_c, 0, 65, 64
2, 170175, Control_c, 0, 64, 127
2, 170213, Note_off_c, 0, 44, 64
2, 170280, Note_off_c, 0, 51, 64
2, 170282, Note_off_c, 0, 66, 64
2, 170295, Note_on_c, 0, 48, 90
2, 170343, Control_c, 0, 64, 0
2, 170396, Note_on_c, 0, 51, 79
2, 170400, Note_off_c, 0, 48, 64
2, 170410, Note_on_c, 0, 66, 96
2, 170496, Note_off_c, 0, 51, 64
2, 170506, Note_off_c, 0, 66, 64
2, 170525, Note_on_c, 0, 44, 78
2, 170530, Note_on_c, 0, 65, 101
2, 170616, Note_off_c, 0, 65, 64
2, 170640, Note_on_c, 0, 66, 102
2, 170645, Note_on_c, 0, 51, 86
2, 170664, Note_off_c, 0, 44, 64
2, 170717, Note_off_c, 0, 51, 64
2, 170722, Note_off_c, 0, 66, 64
2, 170780, Note_on_c, 0, 66, 105
2, 170789, Note_on_c, 0, 43, 98
2, 170909, Note_on_c, 0, 51, 93
2, 170909, Note_on_c, 0, 67, 99
2, 170952, Note_off_c, 0, 66, 64
2, 170986, Note_off_c, 0, 43, 64
2, 171024, Note_off_c, 0, 51, 64
2, 171024, Note_off_c, 0, 67, 64
2, 171044, Note_on_c, 0, 48, 93
2, 171164, Note_off_c, 0, 48, 64
2, 171164, Note_on_c, 0, 51, 92
2, 171178, Note_on_c, 0, 67, 105
2, 171231, Note_off_c, 0, 67, 64
2, 171245, Note_off_c, 0, 51, 64
2, 171288, Note_on_c, 0, 43, 73
2, 171308, Note_on_c, 0, 66, 86
2, 171346, Note_off_c, 0, 43, 64
2, 171365, Note_off_c, 0, 66, 64
2, 171394, Note_on_c, 0, 51, 78
2, 171432, Note_on_c, 0, 67, 92
2, 171471, Note_off_c, 0, 51, 64
2, 171548, Note_off_c, 0, 67, 64
2, 171581, Note_on_c, 0, 69, 95
2, 171586, Note_on_c, 0, 42, 55
2, 171888, Note_on_c, 0, 72, 87
2, 171951, Note_off_c, 0, 69, 64
2, 172191, Note_on_c, 0, 75, 65
2, 172210, Note_off_c, 0, 72, 64
2, 172263, Control_c, 0, 64, 127
2, 172277, Note_off_c, 0, 42, 64
2, 172464, Note_on_c, 0, 54, 47
2, 172767, Note_on_c, 0, 74, 59
2, 172772, Control_c, 0, 64, 0
2, 172829, Note_off_c, 0, 75, 64
2, 172988, Control_c, 0, 64, 127
2, 173045, Note_on_c, 0, 72, 63
2, 173074, Note_off_c, 0, 74, 64
2, 173117, Note_off_c, 0, 54, 64
2, 173280, Note_on_c, 0, 65, 49
2, 173290, Note_on_c, 0, 55, 32
2, 173290, Note_on_c, 0, 62, 31
2, 173324, Control_c, 0, 64, 0
2, 173583, Note_off_c, 0, 72, 64
2, 173583, Note_on_c, 0, 71, 46
2, 173693, Control_c, 0, 64, 127
2, 173842, Note_off_c, 0, 71, 64
2, 173852, Note_on_c, 0, 77, 62
2, 173895, Control_c, 0, 64, 0
2, 173938, Note_off_c, 0, 65, 64
2, 173952, Note_off_c, 0, 62, 64
2, 174015, Control_c, 0, 64, 127
2, 174053, Note_off_c, 0, 55, 64
2, 174135, Note_on_c, 0, 65, 52
2, 174135, Note_on_c, 0, 56, 48
2, 174149, Note_on_c, 0, 62, 30
2, 174413, Note_on_c, 0, 74, 69
2, 174437, Note_off_c, 0, 77, 64
2, 174677, Control_c, 0, 64, 0
2, 174696, Note_on_c, 0, 83, 70
2, 174730, Note_off_c, 0, 74, 64
2, 174744, Note_off_c, 0, 62, 64
2, 174749, Note_off_c, 0, 65, 64
2, 174831, Control_c, 0, 64, 127
2, 174884, Note_off_c, 0, 56, 64
2, 174951, Note_on_c, 0, 65, 38
2, 174961, Note_on_c, 0, 62, 29
2, 174966, Note_on_c, 0, 55, 26
2, 175229, Control_c, 0, 64, 0
2, 175234, Note_off_c, 0, 83, 64
2, 175234, Note_on_c, 0, 77, 61
2, 175460, Note_off_c, 0, 62, 64
2, 175460, Control_c, 0, 64, 127
2, 175484, Note_off_c, 0, 65, 64
2, 175493, Note_off_c, 0, 77, 64
2, 175517, Note_on_c, 0, 86, 52
2, 175542, Note_off_c, 0, 55, 64
2, 175786, Note_on_c, 0, 56, 45
2, 175796, Note_on_c, 0, 65, 33
2, 175802, Note_on_c, 0, 62, 22
2, 175844, Control_c, 0, 64, 0
2, 176074, Note_on_c, 0, 83, 54
2, 176098, Note_off_c, 0, 86, 64
2, 176234, Note_off_c, 0, 62, 64
2, 176280, Note_off_c, 0, 65, 64
2, 176338, Control_c, 0, 64, 127
2, 176357, Note_off_c, 0, 83, 64
2, 176357, Note_on_c, 0, 89, 63
2, 176410, Note_off_c, 0, 56, 64
2, 176639, Note_on_c, 0, 62, 33
2, 176640, Note_on_c, 0, 65, 46
2, 176645, Note_on_c, 0, 55, 37
2, 176736, Control_c, 0, 64, 0
2, 176784, Note_on_c, 0, 86, 55
2, 176837, Note_off_c, 0, 89, 64
2, 176919, Note_off_c, 0, 86, 64
2, 176933, Note_on_c, 0, 83, 52
2, 177029, Control_c, 0, 64, 127
2, 177039, Note_off_c, 0, 83, 64
2, 177048, Note_on_c, 0, 80, 66
2, 177076, Note_off_c, 0, 62, 64
2, 177087, Note_off_c, 0, 65, 64
2, 177178, Note_off_c, 0, 80, 64
2, 177197, Note_off_c, 0, 55, 64
2, 177207, Note_on_c, 0, 77, 75
2, 177278, Note_off_c, 0, 77, 64
2, 177334, Note_on_c, 0, 74, 70
2, 177406, Note_off_c, 0, 74, 64
2, 177442, Note_on_c, 0, 71, 71
2, 177533, Note_off_c, 0, 71, 64
2, 177576, Note_on_c, 0, 68, 72
2, 177687, Note_off_c, 0, 68, 64
2, 177696, Note_on_c, 0, 65, 82
2, 177744, Note_off_c, 0, 65, 64
2, 177816, Note_on_c, 0, 62, 74
2, 177927, Note_on_c, 0, 59, 73
2, 177936, Note_off_c, 0, 62, 64
2, 177965, Control_c, 0, 64, 0
2, 178028, Note_off_c, 0, 59, 64
2, 178047, Note_on_c, 0, 56, 91
2, 178085, Note_off_c, 0, 56, 64
2, 178176, Note_on_c, 0, 55, 76
2, 178311, Note_on_c, 0, 67, 84
2, 178421, Note_on_c, 0, 68, 85
2, 178426, Note_off_c, 0, 67, 64
2, 178536, Note_off_c, 0, 68, 64
2, 178541, Note_on_c, 0, 69, 87
2, 178556, Note_off_c, 0, 55, 64
2, 178652, Note_off_c, 0, 69, 64
2, 178661, Note_on_c, 0, 70, 98
2, 178781, Note_off_c, 0, 70, 64
2, 178786, Note_on_c, 0, 71, 76
2, 178901, Note_off_c, 0, 71, 64
2, 178935, Note_on_c, 0, 72, 68
2, 179055, Note_off_c, 0, 72, 64
2, 179055, Note_on_c, 0, 74, 87
2, 179151, Note_off_c, 0, 74, 64
2, 179189, Note_on_c, 0, 75, 69
2, 179271, Note_off_c, 0, 75, 64
2, 179314, Note_on_c, 0, 76, 70
2, 179372, Note_off_c, 0, 76, 64
2, 179444, Note_on_c, 0, 77, 54
2, 179506, Note_off_c, 0, 77, 64
2, 179549, Note_on_c, 0, 78, 62
2, 179612, Note_off_c, 0, 78, 64
2, 179708, Note_on_c, 0, 79, 64
2, 179708, Note_on_c, 0, 60, 37
2, 179717, Note_on_c, 0, 63, 33
2, 180010, Note_on_c, 0, 75, 55
2, 180034, Note_off_c, 0, 79, 64
2, 180135, Note_off_c, 0, 75, 64
2, 180269, Control_c, 0, 64, 127
2, 180288, Note_on_c, 0, 72, 61
2, 180495, Note_off_c, 0, 63, 64
2, 180509, Note_off_c, 0, 60, 64
2, 180557, Note_on_c, 0, 65, 42
2, 180572, Note_on_c, 0, 62, 17
2, 180610, Control_c, 0, 64, 0
2, 180783, Note_off_c, 0, 72, 64
2, 180831, Note_on_c, 0, 71, 37
2, 180951, Note_off_c, 0, 71, 64
2, 181071, Control_c, 0, 64, 127
2, 181114, Note_on_c, 0, 80, 54
2, 181133, Note_off_c, 0, 62, 64
2, 181172, Note_off_c, 0, 65, 64
2, 181378, Note_on_c, 0, 62, 23
2, 181383, Note_on_c, 0, 59, 30
2, 181469, Control_c, 0, 64, 0
2, 181666, Note_on_c, 0, 79, 33
2, 181714, Note_off_c, 0, 80, 64
2, 181738, Note_off_c, 0, 79, 64
2, 181824, Control_c, 0, 64, 127
2, 181954, Note_on_c, 0, 77, 52
2, 181964, Note_off_c, 0, 62, 64
2, 182036, Note_off_c, 0, 59, 64
2, 182218, Note_on_c, 0, 60, 32
2, 182223, Note_on_c, 0, 67, 35
2, 182252, Control_c, 0, 64, 0
2, 182492, Note_off_c, 0, 77, 64
2, 182511, Note_on_c, 0, 75, 46
2, 182645, Note_off_c, 0, 75, 64
2, 182664, Control_c, 0, 64, 127
2, 182684, Note_off_c, 0, 67, 64
2, 182693, Note_off_c, 0, 60, 64
2, 182770, Note_on_c, 0, 79, 76
2, 183034, Note_on_c, 0, 67, 57
2, 183044, Note_on_c, 0, 63, 48
2, 183096, Control_c, 0, 64, 0
2, 183317, Note_on_c, 0, 84, 65
2, 183327, Note_off_c, 0, 79, 64
2, 183466, Control_c, 0, 64, 127
2, 183514, Note_off_c, 0, 63, 64
2, 183543, Control_c, 0, 64, 0
2, 183572, Note_off_c, 0, 84, 64
2, 183581, Note_on_c, 0, 82, 71
2, 183586, Note_on_c, 0, 64, 53
2, 183648, Note_off_c, 0, 64, 64
2, 183711, Control_c, 0, 64, 127
2, 183845, Note_on_c, 0, 68, 62
2, 183855, Note_off_c, 0, 67, 64
2, 183855, Note_on_c, 0, 65, 60
2, 183912, Control_c, 0, 64, 0
2, 184095, Note_on_c, 0, 80, 74
2, 184143, Note_off_c, 0, 82, 64
2, 184157, Control_c, 0, 64, 127
2, 184229, Note_off_c, 0, 68, 64
2, 184311, Note_off_c, 0, 65, 64
2, 184354, Note_on_c, 0, 67, 64
2, 184354, Note_on_c, 0, 70, 62
2, 184364, Note_on_c, 0, 79, 81
2, 184392, Note_off_c, 0, 80, 64
2, 184402, Control_c, 0, 64, 0
2, 184575, Note_off_c, 0, 70, 64
2, 184580, Note_off_c, 0, 67, 64
2, 184589, Control_c, 0, 64, 127
2, 184632, Control_c, 0, 64, 0
2, 184637, Note_on_c, 0, 72, 58
2, 184637, Note_on_c, 0, 68, 52
2, 184863, Control_c, 0, 64, 127
2, 184882, Note_off_c, 0, 79, 64
2, 184882, Note_on_c, 0, 77, 78
2, 184896, Control_c, 0, 64, 0
2, 185079, Note_off_c, 0, 68, 64
2, 185156, Note_on_c, 0, 78, 51
2, 185180, Note_off_c, 0, 77, 64
2, 185208, Note_on_c, 0, 69, 26
2, 185372, Note_off_c, 0, 69, 64
2, 185439, Note_on_c, 0, 67, 44
2, 185688, Note_off_c, 0, 72, 64
2, 185727, Note_off_c, 0, 78, 64
2, 185770, Note_on_c, 0, 79, 37
2, 185775, Note_on_c, 0, 71, 23
2, 185847, Control_c, 0, 64, 127
2, 185871, Note_off_c, 0, 67, 64
2, 185885, Note_off_c, 0, 79, 64
2, 185919, Note_off_c, 0, 71, 64
2, 186245, Note_on_c, 0, 67, 55
2, 186413, Control_c, 0, 64, 0
2, 186629, Control_c, 0, 64, 127
2, 186754, Note_on_c, 0, 51, 37
2, 186773, Note_on_c, 0, 55, 35
2, 187114, Note_on_c, 0, 63, 64
2, 187229, Note_off_c, 0, 67, 64
2, 187354, Control_c, 0, 64, 0
2, 187460, Control_c, 0, 64, 127
2, 187517, Note_on_c, 0, 60, 75
2, 187556, Note_off_c, 0, 63, 64
2, 187690, Note_off_c, 0, 55, 64
2, 187733, Note_off_c, 0, 51, 64
2, 187848, Note_off_c, 0, 60, 64
2, 188079, Note_on_c, 0, 60, 63
2, 188084, Note_on_c, 0, 56, 26
2, 188088, Note_on_c, 0, 53, 26
2, 188093, Note_on_c, 0, 50, 28
2, 188184, Control_c, 0, 64, 0
2, 188981, Control_c, 0, 64, 127
2, 189010, Note_off_c, 0, 53, 64
2, 189048, Note_off_c, 0, 50, 64
2, 189068, Note_off_c, 0, 56, 64
2, 190738, Note_off_c, 0, 60, 64
2, 190815, Note_on_c, 0, 59, 16
2, 191069, Control_c, 0, 64, 0
2, 191338, Note_off_c, 0, 59, 64
2, 192264, Note_on_c, 0, 68, 68
2, 192562, Control_c, 0, 64, 127
2, 192629, Note_on_c, 0, 47, 50
2, 192629, Note_on_c, 0, 50, 68
2, 192932, Note_on_c, 0, 67, 88
2, 193047, Note_off_c, 0, 68, 64
2, 193272, Note_on_c, 0, 65, 100
2, 193282, Note_off_c, 0, 67, 64
2, 193282, Note_off_c, 0, 47, 64
2, 193282, Note_off_c, 0, 50, 64
2, 193464, Note_off_c, 0, 65, 64
2, 193700, Note_on_c, 0, 65, 99
2, 193719, Note_on_c, 0, 49, 70
2, 193719, Note_on_c, 0, 55, 70
2, 193728, Note_on_c, 0, 46, 70
2, 193978, Control_c, 0, 64, 0
2, 194573, Control_c, 0, 64, 127
2, 195173, Control_c, 0, 64, 0
2, 195341, Control_c, 0, 64, 127
2, 195821, Note_on_c, 0, 64, 30
2, 195898, Control_c, 0, 64, 0
2, 195956, Note_off_c, 0, 65, 64
2, 196383, Note_off_c, 0, 49, 64
2, 196402, Control_c, 0, 64, 127
2, 196464, Note_off_c, 0, 55, 64
2, 196556, Note_off_c, 0, 46, 64
2, 196743, Note_off_c, 0, 64, 64
2, 196757, Control_c, 0, 64, 0
2, 197640, Note_on_c, 0, 70, 56
2, 197972, Control_c, 0, 64, 127
2, 198000, Note_on_c, 0, 60, 41
2, 198010, Note_on_c, 0, 52, 36
2, 198384, Note_on_c, 0, 68, 55
2, 198476, Note_off_c, 0, 70, 64
2, 198600, Control_c, 0, 64, 0
2, 198749, Note_off_c, 0, 68, 64
2, 198759, Note_on_c, 0, 67, 59
2, 198908, Control_c, 0, 64, 127
2, 198984, Note_off_c, 0, 60, 64
2, 199076, Note_off_c, 0, 67, 64
2, 199090, Note_off_c, 0, 52, 64
2, 199320, Note_on_c, 0, 67, 46
2, 199335, Note_on_c, 0, 60, 25
2, 199340, Note_on_c, 0, 53, 28
2, 199570, Control_c, 0, 64, 0
2, 200088, Control_c, 0, 64, 127
2, 200400, Control_c, 0, 64, 0
2, 200554, Control_c, 0, 64, 127
2, 200631, Control_c, 0, 64, 0
2, 200722, Control_c, 0, 64, 127
2, 201111, Note_on_c, 0, 68, 28
2, 201216, Note_off_c, 0, 67, 64
2, 201260, Control_c, 0, 64, 0
2, 201826, Control_c, 0, 64, 127
2, 201879, Note_off_c, 0, 60, 64
2, 201888, Note_off_c, 0, 53, 64
2, 201922, Note_off_c, 0, 68, 64
2, 201980, Control_c, 0, 64, 0
2, 202167, Control_c, 0, 64, 127
2, 202368, Note_on_c, 0, 71, 50
2, 202728, Note_on_c, 0, 53, 38
2, 202730, Note_on_c, 0, 56, 41
2, 203031, Note_on_c, 0, 72, 66
2, 203084, Note_off_c, 0, 71, 64
2, 203444, Note_off_c, 0, 72, 64
2, 203463, Note_on_c, 0, 74, 63
2, 203564, Control_c, 0, 64, 0
2, 203709, Note_off_c, 0, 56, 64
2, 203732, Control_c, 0, 64, 127
2, 203780, Note_off_c, 0, 53, 64
2, 203818, Note_off_c, 0, 74, 64
2, 204149, Note_on_c, 0, 74, 47
2, 204160, Note_on_c, 0, 57, 25
2, 204165, Note_on_c, 0, 54, 26
2, 204826, Control_c, 0, 64, 0
2, 205316, Control_c, 0, 64, 127
2, 206208, Note_on_c, 0, 77, 37
2, 206319, Note_off_c, 0, 74, 64
2, 206765, Note_on_c, 0, 75, 22
2, 206775, Note_off_c, 0, 77, 64
2, 206991, Control_c, 0, 64, 0
2, 207534, Note_off_c, 0, 57, 64
2, 207549, Note_off_c, 0, 54, 64
2, 207620, Note_off_c, 0, 75, 64
2, 208402, Control_c, 0, 64, 127
2, 208503, Note_on_c, 0, 72, 54
2, 208556, Note_off_c, 0, 72, 64
2, 208733, Note_on_c, 0, 74, 70
2, 208757, Note_on_c, 0, 66, 33
2, 208772, Note_on_c, 0, 72, 66
2, 208791, Note_on_c, 0, 63, 32
2, 208824, Note_on_c, 0, 57, 26
2, 208848, Note_off_c, 0, 74, 64
2, 208997, Note_on_c, 0, 71, 47
2, 209002, Note_off_c, 0, 72, 64
2, 209160, Note_off_c, 0, 63, 64
2, 209194, Note_off_c, 0, 57, 64
2, 209218, Note_off_c, 0, 66, 64
2, 209218, Note_off_c, 0, 71, 64
2, 209247, Note_on_c, 0, 72, 69
2, 209304, Note_off_c, 0, 72, 64
2, 209463, Control_c, 0, 64, 0
2, 209535, Note_on_c, 0, 63, 49
2, 209540, Note_on_c, 0, 67, 74
2, 209543, Note_on_c, 0, 55, 42
2, 209645, Control_c, 0, 64, 127
2, 209668, Note_off_c, 0, 55, 64
2, 209684, Note_off_c, 0, 63, 64
2, 209741, Note_off_c, 0, 67, 64
2, 209861, Control_c, 0, 64, 0
2, 210408, Note_on_c, 0, 59, 52
2, 210408, Note_on_c, 0, 50, 59
2, 210409, Note_on_c, 0, 43, 46
2, 210413, Note_on_c, 0, 53, 54
2, 210528, Note_off_c, 0, 50, 64
2, 210538, Control_c, 0, 64, 127
2, 210543, Note_off_c, 0, 43, 64
2, 210552, Note_off_c, 0, 53, 64
2, 210596, Note_off_c, 0, 59, 64
2, 210711, Control_c, 0, 64, 0
2, 211304, Note_on_c, 0, 60, 62
2, 211309, Note_on_c, 0, 48, 39
2, 211310, Note_on_c, 0, 51, 46
2, 211314, Note_on_c, 0, 36, 34
2, 211431, Control_c, 0, 64, 127
2, 211443, Note_off_c, 0, 51, 64
2, 211453, Note_off_c, 0, 48, 64
2, 211458, Note_off_c, 0, 36, 64
2, 211492, Note_off_c, 0, 60, 64
2, 211690, Control_c, 0, 64, 0
2, 211896, Note_on_c, 0, 77, 96
2, 211940, Note_on_c, 0, 75, 84
2, 212002, Note_off_c, 0, 77, 64
2, 212012, Note_on_c, 0, 74, 97
2, 212040, Note_off_c, 0, 75, 64
2, 212055, Note_off_c, 0, 74, 64
2, 212069, Note_on_c, 0, 72, 87
2, 212112, Note_off_c, 0, 72, 64
2, 212156, Note_on_c, 0, 79, 117
2, 212160, Note_on_c, 0, 59, 73
2, 212170, Note_on_c, 0, 62, 64
2, 212213, Note_off_c, 0, 62, 64
2, 212232, Note_off_c, 0, 79, 64
2, 212261, Control_c, 0, 64, 127
2, 212261, Note_on_c, 0, 55, 89
2, 212271, Note_off_c, 0, 59, 64
2, 212290, Control_c, 0, 64, 0
2, 212400, Note_on_c, 0, 79, 114
2, 212400, Note_on_c, 0, 63, 80
2, 212405, Note_on_c, 0, 60, 76
2, 212405, Note_on_c, 0, 67, 94
2, 212410, Note_off_c, 0, 55, 64
2, 212434, Note_off_c, 0, 79, 64
2, 212439, Note_off_c, 0, 67, 64
2, 212453, Note_off_c, 0, 60, 64
2, 212487, Note_off_c, 0, 63, 64
2, 212487, Note_on_c, 0, 55, 79
2, 212626, Note_off_c, 0, 55, 64
2, 212640, Note_on_c, 0, 79, 112
2, 212645, Note_on_c, 0, 65, 76
2, 212645, Note_on_c, 0, 67, 99
2, 212655, Note_on_c, 0, 62, 70
2, 212669, Note_off_c, 0, 79, 64
2, 212679, Note_off_c, 0, 67, 64
2, 212698, Note_off_c, 0, 65, 64
2, 212722, Note_off_c, 0, 62, 64
2, 212751, Note_on_c, 0, 55, 75
2, 212828, Control_c, 0, 64, 127
2, 212900, Note_on_c, 0, 79, 119
2, 212904, Note_on_c, 0, 67, 106
2, 212914, Note_on_c, 0, 63, 79
2, 212924, Note_on_c, 0, 60, 80
2, 212928, Note_off_c, 0, 55, 64
2, 213015, Note_off_c, 0, 63, 64
2, 213024, Note_off_c, 0, 60, 64
2, 213034, Note_on_c, 0, 55, 53
2, 213168, Note_on_c, 0, 63, 70
2, 213188, Note_off_c, 0, 55, 64
2, 213197, Note_off_c, 0, 67, 64
2, 213197, Note_on_c, 0, 60, 68
2, 213231, Note_off_c, 0, 63, 64
2, 213255, Note_off_c, 0, 60, 64
2, 213284, Note_on_c, 0, 55, 55
2, 213394, Control_c, 0, 64, 0
2, 213408, Note_on_c, 0, 77, 103
2, 213418, Note_off_c, 0, 55, 64
2, 213423, Note_on_c, 0, 63, 65
2, 213428, Note_off_c, 0, 79, 64
2, 213432, Note_on_c, 0, 60, 59
2, 213466, Note_on_c, 0, 75, 91
2, 213480, Note_off_c, 0, 63, 64
2, 213490, Control_c, 0, 64, 127
2, 213500, Note_off_c, 0, 60, 64
2, 213519, Control_c, 0, 64, 0
2, 213524, Note_on_c, 0, 55, 56
2, 213533, Note_off_c, 0, 77, 64
2, 213543, Note_on_c, 0, 74, 97
2, 213581, Note_off_c, 0, 75, 64
2, 213600, Note_on_c, 0, 72, 105
2, 213639, Note_off_c, 0, 74, 64
2, 213658, Note_on_c, 0, 62, 73
2, 213663, Note_off_c, 0, 55, 64
2, 213663, Note_on_c, 0, 59, 67
2, 213672, Note_on_c, 0, 79, 117
2, 213706, Note_off_c, 0, 72, 64
2, 213735, Control_c, 0, 64, 127
2, 213764, Note_off_c, 0, 79, 64
2, 213768, Note_off_c, 0, 62, 64
2, 213778, Note_on_c, 0, 55, 67
2, 213797, Note_off_c, 0, 59, 64
2, 213874, Control_c, 0, 64, 0
2, 213917, Note_on_c, 0, 79, 113
2, 213927, Note_on_c, 0, 63, 79
2, 213927, Note_on_c, 0, 67, 91
2, 213932, Note_off_c, 0, 55, 64
2, 213936, Note_on_c, 0, 60, 76
2, 213965, Note_off_c, 0, 67, 64
2, 213975, Note_off_c, 0, 79, 64
2, 213989, Note_off_c, 0, 60, 64
2, 213999, Note_off_c, 0, 63, 64
2, 214013, Control_c, 0, 64, 127
2, 214028, Note_on_c, 0, 55, 73
2, 214104, Control_c, 0, 64, 0
2, 214152, Note_off_c, 0, 55, 64
2, 214172, Note_on_c, 0, 79, 115
2, 214172, Note_on_c, 0, 67, 109
2, 214181, Note_on_c, 0, 65, 88
2, 214186, Note_on_c, 0, 62, 74
2, 214215, Note_off_c, 0, 67, 64
2, 214229, Control_c, 0, 64, 127
2, 214248, Note_off_c, 0, 62, 64
2, 214248, Note_off_c, 0, 65, 64
2, 214268, Note_off_c, 0, 79, 64
2, 214296, Note_on_c, 0, 55, 90
2, 214412, Control_c, 0, 64, 0
2, 214445, Note_on_c, 0, 79, 116
2, 214450, Note_on_c, 0, 67, 111
2, 214464, Note_on_c, 0, 63, 83
2, 214479, Note_on_c, 0, 60, 81
2, 214498, Note_off_c, 0, 55, 64
2, 214565, Control_c, 0, 64, 127
2, 214580, Note_off_c, 0, 63, 64
2, 214584, Note_off_c, 0, 60, 64
2, 214604, Note_on_c, 0, 55, 69
2, 214685, Note_off_c, 0, 67, 64
2, 214719, Control_c, 0, 64, 0
2, 214728, Note_on_c, 0, 63, 72
2, 214738, Note_off_c, 0, 55, 64
2, 214738, Note_on_c, 0, 60, 67
2, 214786, Note_off_c, 0, 63, 64
2, 214810, Control_c, 0, 64, 127
2, 214829, Note_on_c, 0, 55, 63
2, 214834, Note_off_c, 0, 60, 64
2, 214901, Note_off_c, 0, 79, 64
2, 214949, Control_c, 0, 64, 0
2, 214968, Note_off_c, 0, 55, 64
2, 214973, Note_on_c, 0, 63, 68
2, 214973, Note_on_c, 0, 77, 104
2, 214988, Note_on_c, 0, 60, 66
2, 215026, Note_off_c, 0, 63, 64
2, 215026, Note_on_c, 0, 75, 83
2, 215064, Note_off_c, 0, 77, 64
2, 215084, Control_c, 0, 64, 127
2, 215103, Note_on_c, 0, 74, 97
2, 215112, Note_on_c, 0, 55, 57
2, 215117, Note_off_c, 0, 60, 64
2, 215127, Note_off_c, 0, 75, 64
2, 215141, Note_off_c, 0, 74, 64
2, 215141, Note_on_c, 0, 72, 99
2, 215175, Note_off_c, 0, 72, 64
2, 215204, Note_off_c, 0, 55, 64
2, 215242, Control_c, 0, 64, 0
2, 215256, Note_on_c, 0, 71, 95
2, 215271, Note_on_c, 0, 74, 102
2, 215285, Note_on_c, 0, 80, 109
2, 215516, Note_on_c, 0, 53, 107
2, 215520, Note_on_c, 0, 41, 103
2, 215549, Note_off_c, 0, 74, 64
2, 215549, Note_off_c, 0, 41, 64
2, 215549, Control_c, 0, 64, 127
2, 215568, Note_off_c, 0, 71, 64
2, 215607, Note_off_c, 0, 53, 64
2, 215631, Note_off_c, 0, 80, 64
2, 215717, Control_c, 0, 64, 0
2, 215804, Note_on_c, 0, 65, 107
2, 215808, Note_on_c, 0, 53, 105
2, 215861, Note_on_c, 0, 64, 21
2, 215904, Note_off_c, 0, 65, 64
2, 215909, Note_off_c, 0, 64, 64
2, 215914, Control_c, 0, 64, 127
2, 215943, Note_off_c, 0, 53, 64
2, 216039, Control_c, 0, 64, 0
2, 216044, Note_on_c, 0, 72, 95
2, 216068, Note_on_c, 0, 79, 113
2, 216068, Note_on_c, 0, 75, 92
2, 216269, Control_c, 0, 64, 127
2, 216303, Control_c, 0, 64, 0
2, 216312, Note_on_c, 0, 51, 105
2, 216317, Note_on_c, 0, 39, 98
2, 216346, Note_off_c, 0, 39, 64
2, 216356, Note_off_c, 0, 51, 64
2, 216456, Control_c, 0, 64, 127
2, 216514, Control_c, 0, 64, 0
2, 216572, Note_off_c, 0, 75, 64
2, 216572, Note_on_c, 0, 63, 104
2, 216576, Note_on_c, 0, 51, 103
2, 216605, Note_off_c, 0, 79, 64
2, 216624, Note_off_c, 0, 51, 64
2, 216653, Note_off_c, 0, 63, 64
2, 216692, Note_off_c, 0, 72, 64
2, 216840, Note_on_c, 0, 62, 108
2, 216845, Note_on_c, 0, 50, 108
2, 216946, Control_c, 0, 64, 127
2, 216994, Note_off_c, 0, 50, 64
2, 217032, Note_off_c, 0, 62, 64
2, 217066, Note_on_c, 0, 74, 80
2, 217080, Note_on_c, 0, 77, 104
2, 217100, Note_on_c, 0, 83, 102
2, 217143, Note_off_c, 0, 74, 64
2, 217172, Note_off_c, 0, 77, 64
2, 217191, Note_off_c, 0, 83, 64
2, 217239, Control_c, 0, 64, 0
2, 217335, Note_on_c, 0, 77, 103
2, 217344, Note_on_c, 0, 83, 103
2, 217359, Note_on_c, 0, 86, 112
2, 217416, Note_off_c, 0, 77, 64
2, 217450, Note_off_c, 0, 83, 64
2, 217488, Note_off_c, 0, 86, 64
2, 217608, Control_c, 0, 64, 127
2, 217637, Note_on_c, 0, 79, 115
2, 217637, Note_on_c, 0, 86, 114
2, 217642, Note_on_c, 0, 89, 119
2, 217647, Note_on_c, 0, 59, 86
2, 217652, Note_on_c, 0, 47, 80
2, 217680, Note_off_c, 0, 79, 64
2, 217695, Note_off_c, 0, 47, 64
2, 217714, Note_off_c, 0, 59, 64
2, 217724, Note_off_c, 0, 86, 64
2, 217752, Note_off_c, 0, 89, 64
2, 218021, Control_c, 0, 64, 0
2, 219783, Note_on_c, 0, 75, 60
2, 220205, Control_c, 0, 64, 127
2, 220704, Note_on_c, 0, 66, 57
2, 220738, Note_on_c, 0, 63, 26
2, 220743, Note_on_c, 0, 60, 28
2, 220820, Note_off_c, 0, 75, 64
2, 220959, Control_c, 0, 64, 0
2, 221141, Control_c, 0, 64, 127
2, 221160, Note_off_c, 0, 60, 64
2, 221204, Note_off_c, 0, 63, 64
2, 221348, Note_off_c, 0, 66, 64
2, 221559, Note_on_c, 0, 65, 45
2, 221564, Note_on_c, 0, 59, 29
2, 221568, Note_on_c, 0, 62, 27
2, 221573, Note_on_c, 0, 67, 73
2, 221770, Control_c, 0, 64, 0
2, 221924, Control_c, 0, 64, 127
2, 221972, Note_off_c, 0, 62, 64
2, 221996, Note_off_c, 0, 67, 64
2, 222000, Note_on_c, 0, 68, 68
2, 222010, Note_off_c, 0, 65, 64
2, 222044, Note_off_c, 0, 59, 64
2, 222077, Control_c, 0, 64, 0
2, 222096, Note_on_c, 0, 63, 51
2, 222101, Note_off_c, 0, 68, 64
2, 222106, Note_on_c, 0, 67, 72
2, 222120, Note_on_c, 0, 60, 54
2, 222159, Note_off_c, 0, 63, 64
2, 222168, Control_c, 0, 64, 127
2, 222173, Note_off_c, 0, 60, 64
2, 222202, Note_off_c, 0, 67, 64
2, 222384, Note_on_c, 0, 67, 78
2, 222389, Note_on_c, 0, 63, 65
2, 222404, Note_on_c, 0, 53, 52
2, 222418, Control_c, 0, 64, 0
2, 222447, Note_off_c, 0, 63, 64
2, 222495, Note_off_c, 0, 67, 64
2, 222514, Note_on_c, 0, 65, 76
2, 222514, Note_on_c, 0, 62, 60
2, 222576, Note_off_c, 0, 62, 64
2, 222581, Note_off_c, 0, 65, 64
2, 222591, Note_off_c, 0, 53, 64
2, 222648, Note_on_c, 0, 63, 75
2, 222648, Note_on_c, 0, 60, 69
2, 222672, Note_on_c, 0, 55, 60
2, 222725, Note_off_c, 0, 55, 64
2, 222754, Note_off_c, 0, 63, 64
2, 222773, Note_off_c, 0, 60, 64
2, 222936, Note_on_c, 0, 62, 54
2, 222941, Note_on_c, 0, 43, 45
2, 222946, Note_on_c, 0, 59, 30
2, 222999, Note_off_c, 0, 62, 64
2, 223004, Note_off_c, 0, 59, 64
2, 223004, Note_off_c, 0, 43, 64
2, 223292, Control_c, 0, 64, 127
2, 223292, Note_on_c, 0, 48, 39
2, 223296, Note_on_c, 0, 60, 39
2, 223368, Note_off_c, 0, 48, 64
2, 223479, Note_off_c, 0, 60, 64
2, 223661, Control_c, 0, 64, 0
2, 223848, Note_on_c, 0, 77, 80
2, 223911, Note_off_c, 0, 77, 64
2, 223920, Note_on_c, 0, 75, 58
2, 223988, Note_on_c, 0, 74, 79
2, 223992, Note_off_c, 0, 75, 64
2, 224021, Note_off_c, 0, 74, 64
2, 224036, Note_on_c, 0, 72, 80
2, 224093, Note_on_c, 0, 59, 60
2, 224112, Note_on_c, 0, 62, 61
2, 224122, Note_off_c, 0, 72, 64
2, 224127, Note_on_c, 0, 79, 105
2, 224170, Control_c, 0, 64, 127
2, 224180, Note_off_c, 0, 62, 64
2, 224228, Note_on_c, 0, 55, 72
2, 224237, Note_off_c, 0, 79, 64
2, 224252, Note_off_c, 0, 59, 64
2, 224290, Control_c, 0, 64, 0
2, 224357, Note_off_c, 0, 55, 64
2, 224362, Note_on_c, 0, 67, 87
2, 224362, Note_on_c, 0, 79, 94
2, 224362, Note_on_c, 0, 63, 68
2, 224386, Note_on_c, 0, 60, 66
2, 224400, Note_off_c, 0, 67, 64
2, 224400, Note_off_c, 0, 79, 64
2, 224444, Note_off_c, 0, 60, 64
2, 224482, Note_off_c, 0, 63, 64
2, 224487, Note_on_c, 0, 55, 70
2, 224621, Note_off_c, 0, 55, 64
2, 224621, Note_on_c, 0, 79, 104
2, 224621, Note_on_c, 0, 67, 93
2, 224626, Note_on_c, 0, 65, 78
2, 224636, Note_on_c, 0, 62, 67
2, 224655, Note_off_c, 0, 79, 64
2, 224660, Note_off_c, 0, 67, 64
2, 224679, Note_off_c, 0, 65, 64
2, 224693, Note_off_c, 0, 62, 64
2, 224746, Note_on_c, 0, 55, 65
2, 224885, Note_off_c, 0, 55, 64
2, 224885, Note_on_c, 0, 79, 115
2, 224890, Note_on_c, 0, 67, 104
2, 224890, Note_on_c, 0, 63, 73
2, 224900, Note_on_c, 0, 60, 74
2, 224919, Control_c, 0, 64, 127
2, 224962, Note_off_c, 0, 60, 64
2, 224972, Note_off_c, 0, 63, 64
2, 225015, Note_on_c, 0, 55, 66
2, 225135, Note_on_c, 0, 63, 72
2, 225154, Note_off_c, 0, 67, 64
2, 225154, Note_on_c, 0, 60, 72
2, 225159, Note_off_c, 0, 55, 64
2, 225226, Note_off_c, 0, 63, 64
2, 225236, Note_off_c, 0, 60, 64
2, 225245, Note_on_c, 0, 55, 68
2, 225269, Note_off_c, 0, 79, 64
2, 225384, Note_off_c, 0, 55, 64
2, 225384, Control_c, 0, 64, 0
2, 225404, Note_on_c, 0, 63, 69
2, 225408, Note_on_c, 0, 77, 96
2, 225408, Note_on_c, 0, 60, 62
2, 225456, Note_off_c, 0, 63, 64
2, 225466, Note_on_c, 0, 75, 74
2, 225480, Note_off_c, 0, 60, 64
2, 225490, Note_off_c, 0, 77, 64
2, 225519, Note_on_c, 0, 55, 58
2, 225533, Note_on_c, 0, 74, 83
2, 225557, Note_off_c, 0, 75, 64
2, 225572, Note_off_c, 0, 74, 64
2, 225591, Note_on_c, 0, 72, 95
2, 225644, Note_off_c, 0, 72, 64
2, 225653, Note_off_c, 0, 55, 64
2, 225653, Note_on_c, 0, 59, 67
2, 225658, Note_on_c, 0, 62, 71
2, 225658, Note_on_c, 0, 79, 99
2, 225696, Note_off_c, 0, 79, 64
2, 225711, Note_off_c, 0, 62, 64
2, 225740, Note_off_c, 0, 59, 64
2, 225795, Note_on_c, 0, 55, 47
2, 225876, Note_off_c, 0, 55, 64
2, 225908, Note_on_c, 0, 79, 93
2, 225912, Note_on_c, 0, 67, 72
2, 225922, Note_on_c, 0, 63, 70
2, 225932, Note_on_c, 0, 60, 69
2, 225946, Note_off_c, 0, 79, 64
2, 225956, Note_off_c, 0, 67, 64
2, 225989, Note_off_c, 0, 63, 64
2, 225989, Note_off_c, 0, 60, 64
2, 226004, Note_on_c, 0, 55, 63
2, 226148, Note_on_c, 0, 79, 101
2, 226152, Note_on_c, 0, 67, 85
2, 226162, Note_on_c, 0, 65, 76
2, 226172, Note_off_c, 0, 55, 64
2, 226176, Note_on_c, 0, 62, 70
2, 226191, Note_off_c, 0, 79, 64
2, 226196, Note_off_c, 0, 67, 64
2, 226229, Note_off_c, 0, 65, 64
2, 226244, Note_off_c, 0, 62, 64
2, 226258, Note_on_c, 0, 55, 81
2, 226402, Note_on_c, 0, 79, 113
2, 226407, Note_on_c, 0, 67, 100
2, 226416, Note_on_c, 0, 63, 85
2, 226431, Note_on_c, 0, 60, 81
2, 226436, Note_off_c, 0, 55, 64
2, 226527, Note_on_c, 0, 55, 70
2, 226532, Note_off_c, 0, 63, 64
2, 226556, Note_off_c, 0, 60, 64
2, 226580, Control_c, 0, 64, 127
2, 226666, Note_off_c, 0, 67, 64
2, 226666, Note_on_c, 0, 63, 83
2, 226671, Control_c, 0, 64, 0
2, 226680, Note_on_c, 0, 60, 59
2, 226685, Note_off_c, 0, 55, 64
2, 226752, Note_off_c, 0, 63, 64
2, 226776, Note_on_c, 0, 55, 76
2, 226796, Note_off_c, 0, 60, 64
2, 226853, Note_off_c, 0, 79, 64
2, 226858, Control_c, 0, 64, 127
2, 226887, Control_c, 0, 64, 0
2, 226916, Note_off_c, 0, 55, 64
2, 226920, Note_on_c, 0, 63, 80
2, 226925, Note_on_c, 0, 77, 97
2, 226935, Note_on_c, 0, 60, 61
2, 226968, Note_off_c, 0, 63, 64
2, 226968, Note_on_c, 0, 75, 83
2, 226988, Note_off_c, 0, 77, 64
2, 227045, Note_on_c, 0, 55, 38
2, 227050, Note_on_c, 0, 74, 92
2, 227055, Note_off_c, 0, 60, 64
2, 227079, Note_off_c, 0, 75, 64
2, 227093, Note_off_c, 0, 74, 64
2, 227098, Note_on_c, 0, 72, 88
2, 227136, Note_off_c, 0, 72, 64
2, 227170, Note_off_c, 0, 55, 64
2, 227189, Note_on_c, 0, 71, 99
2, 227204, Note_on_c, 0, 74, 101
2, 227213, Note_on_c, 0, 80, 107
2, 227444, Note_off_c, 0, 74, 64
2, 227477, Note_on_c, 0, 53, 106
2, 227482, Note_on_c, 0, 41, 104
2, 227511, Note_off_c, 0, 41, 64
2, 227549, Note_off_c, 0, 53, 64
2, 227564, Note_off_c, 0, 71, 64
2, 227564, Control_c, 0, 64, 127
2, 227636, Note_off_c, 0, 80, 64
2, 227717, Control_c, 0, 64, 0
2, 227760, Note_on_c, 0, 65, 111
2, 227765, Note_on_c, 0, 53, 103
2, 227885, Note_off_c, 0, 65, 64
2, 227933, Note_off_c, 0, 53, 64
2, 227996, Note_on_c, 0, 72, 103
2, 228020, Note_on_c, 0, 75, 101
2, 228020, Note_on_c, 0, 79, 113
2, 228269, Note_on_c, 0, 39, 100
2, 228269, Note_on_c, 0, 51, 100
2, 228308, Note_off_c, 0, 39, 64
2, 228308, Note_off_c, 0, 51, 64
2, 228332, Control_c, 0, 64, 127
2, 228471, Control_c, 0, 64, 0
2, 228519, Note_on_c, 0, 63, 106
2, 228528, Note_off_c, 0, 79, 64
2, 228528, Note_on_c, 0, 51, 104
2, 228591, Note_off_c, 0, 51, 64
2, 228624, Note_off_c, 0, 63, 64
2, 228677, Note_off_c, 0, 72, 64
2, 228706, Note_off_c, 0, 75, 64
2, 228807, Note_on_c, 0, 62, 110
2, 228812, Note_on_c, 0, 50, 110
2, 228917, Control_c, 0, 64, 127
2, 228941, Note_off_c, 0, 50, 64
2, 228975, Note_off_c, 0, 62, 64
2, 229056, Note_on_c, 0, 74, 94
2, 229061, Note_on_c, 0, 77, 106
2, 229080, Note_on_c, 0, 83, 103
2, 229133, Note_off_c, 0, 74, 64
2, 229143, Note_off_c, 0, 77, 64
2, 229191, Note_off_c, 0, 83, 64
2, 229205, Control_c, 0, 64, 0
2, 229340, Note_on_c, 0, 83, 103
2, 229340, Note_on_c, 0, 77, 112
2, 229344, Note_on_c, 0, 86, 110
2, 229436, Note_off_c, 0, 77, 64
2, 229503, Note_off_c, 0, 83, 64
2, 229551, Note_off_c, 0, 86, 64
2, 229647, Note_on_c, 0, 89, 119
2, 229647, Note_on_c, 0, 86, 101
2, 229647, Note_on_c, 0, 79, 117
2, 229652, Note_on_c, 0, 59, 86
2, 229652, Note_on_c, 0, 47, 79
2, 229685, Control_c, 0, 64, 127
2, 229752, Note_off_c, 0, 59, 64
2, 229786, Note_off_c, 0, 47, 64
2, 229786, Note_off_c, 0, 79, 64
2, 229858, Note_off_c, 0, 89, 64
2, 229863, Note_off_c, 0, 86, 64
2, 230021, Control_c, 0, 64, 0
2, 231048, Note_on_c, 0, 61, 115
2, 231053, Note_on_c, 0, 49, 108
2, 231159, Control_c, 0, 64, 127
2, 231212, Note_off_c, 0, 61, 64
2, 231236, Note_off_c, 0, 49, 64
2, 231336, Note_on_c, 0, 70, 107
2, 231336, Note_on_c, 0, 76, 108
2, 231341, Note_on_c, 0, 67, 105
2, 231346, Note_on_c, 0, 58, 113
2, 231356, Note_on_c, 0, 46, 111
2, 231370, Note_off_c, 0, 67, 64
2, 231380, Note_off_c, 0, 70, 64
2, 231394, Note_off_c, 0, 76, 64
2, 231437, Note_off_c, 0, 58, 64
2, 231480, Note_off_c, 0, 46, 64
2, 231620, Control_c, 0, 64, 0
2, 231624, Note_on_c, 0, 70, 107
2, 231624, Note_on_c, 0, 79, 111
2, 231624, Note_on_c, 0, 76, 104
2, 231634, Note_on_c, 0, 55, 106
2, 231634, Note_on_c, 0, 43, 105
2, 231720, Note_off_c, 0, 55, 64
2, 231749, Note_off_c, 0, 43, 64
2, 231759, Control_c, 0, 64, 127
2, 231764, Note_off_c, 0, 70, 64
2, 231764, Note_off_c, 0, 76, 64
2, 231768, Note_off_c, 0, 79, 64
2, 232004, Note_on_c, 0, 73, 104
2, 232004, Note_on_c, 0, 79, 110
2, 232004, Note_on_c, 0, 82, 117
2, 232013, Note_on_c, 0, 52, 110
2, 232018, Note_on_c, 0, 40, 110
2, 232349, Note_off_c, 0, 52, 64
2, 232359, Note_off_c, 0, 73, 64
2, 232402, Note_off_c, 0, 40, 64
2, 232460, Note_off_c, 0, 82, 64
2, 232493, Note_off_c, 0, 79, 64
2, 232632, Control_c, 0, 64, 0
2, 234308, Note_on_c, 0, 53, 33
2, 234576, Note_on_c, 0, 56, 39
2, 234730, Note_off_c, 0, 53, 64
2, 234788, Control_c, 0, 64, 127
2, 234860, Note_on_c, 0, 60, 38
2, 234932, Note_off_c, 0, 56, 64
2, 235124, Note_on_c, 0, 52, 43
2, 235128, Note_off_c, 0, 60, 64
2, 235388, Note_on_c, 0, 55, 40
2, 235474, Control_c, 0, 64, 0
2, 235604, Note_off_c, 0, 52, 64
2, 235632, Note_on_c, 0, 58, 51
2, 235704, Note_off_c, 0, 55, 64
2, 235709, Control_c, 0, 64, 127
2, 235892, Note_on_c, 0, 72, 75
2, 235916, Note_off_c, 0, 58, 64
2, 235920, Note_on_c, 0, 53, 37
2, 236045, Control_c, 0, 64, 0
2, 236165, Note_on_c, 0, 56, 48
2, 236266, Note_off_c, 0, 72, 64
2, 236276, Control_c, 0, 64, 127
2, 236420, Note_on_c, 0, 60, 53
2, 236434, Note_off_c, 0, 53, 64
2, 236444, Note_off_c, 0, 56, 64
2, 236664, Note_on_c, 0, 72, 65
2, 236669, Note_off_c, 0, 60, 64
2, 236736, Note_on_c, 0, 52, 21
2, 236765, Control_c, 0, 64, 0
2, 236943, Note_on_c, 0, 55, 39
2, 236976, Note_off_c, 0, 72, 64
2, 236996, Note_off_c, 0, 52, 64
2, 237015, Control_c, 0, 64, 127
2, 237087, Note_off_c, 0, 55, 64
2, 237154, Note_on_c, 0, 58, 50
2, 237226, Note_on_c, 0, 72, 73
2, 237236, Note_off_c, 0, 58, 64
2, 237288, Note_off_c, 0, 72, 64
2, 237389, Note_on_c, 0, 53, 33
2, 237399, Note_on_c, 0, 73, 63
2, 237413, Control_c, 0, 64, 0
2, 237648, Note_on_c, 0, 56, 43
2, 237826, Control_c, 0, 64, 127
2, 237903, Note_on_c, 0, 60, 37
2, 237922, Note_off_c, 0, 56, 64
2, 237951, Note_off_c, 0, 53, 64
2, 237951, Note_on_c, 0, 72, 46
2, 237965, Note_off_c, 0, 73, 64
2, 238114, Note_off_c, 0, 60, 64
2, 238196, Control_c, 0, 64, 0
2, 238205, Note_on_c, 0, 52, 46
2, 238258, Note_off_c, 0, 72, 64
2, 238455, Note_on_c, 0, 55, 37
2, 238517, Control_c, 0, 64, 127
2, 238637, Note_off_c, 0, 52, 64
2, 238666, Note_off_c, 0, 55, 64
2, 238671, Note_on_c, 0, 58, 58
2, 238776, Note_on_c, 0, 84, 81
2, 238815, Note_off_c, 0, 84, 64
2, 238829, Note_off_c, 0, 58, 64
2, 238911, Note_on_c, 0, 85, 77
2, 238911, Note_on_c, 0, 53, 43
2, 238978, Control_c, 0, 64, 0
2, 239175, Note_on_c, 0, 56, 39
2, 239362, Control_c, 0, 64, 127
2, 239434, Note_off_c, 0, 56, 64
2, 239448, Note_off_c, 0, 85, 64
2, 239453, Note_on_c, 0, 60, 30
2, 239458, Note_off_c, 0, 53, 64
2, 239472, Note_on_c, 0, 84, 45
2, 239573, Note_off_c, 0, 60, 64
2, 239592, Note_off_c, 0, 84, 64
2, 239703, Note_on_c, 0, 52, 44
2, 239957, Note_on_c, 0, 55, 51
2, 239962, Control_c, 0, 64, 0
2, 240192, Note_on_c, 0, 58, 60
2, 240226, Control_c, 0, 64, 127
2, 240250, Note_off_c, 0, 55, 64
2, 240260, Note_off_c, 0, 52, 64
2, 240274, Note_on_c, 0, 60, 71
2, 240418, Note_on_c, 0, 61, 78
2, 240428, Note_off_c, 0, 60, 64
2, 240432, Note_off_c, 0, 58, 64
2, 240447, Note_on_c, 0, 53, 44
2, 240533, Control_c, 0, 64, 0
2, 240677, Note_off_c, 0, 53, 64
2, 240687, Note_on_c, 0, 56, 64
2, 240730, Control_c, 0, 64, 127
2, 240855, Note_off_c, 0, 56, 64
2, 240922, Note_on_c, 0, 60, 72
2, 240922, Note_on_c, 0, 53, 51
2, 240980, Note_off_c, 0, 61, 64
2, 241028, Note_off_c, 0, 60, 64
2, 241066, Note_off_c, 0, 53, 64
2, 241148, Note_on_c, 0, 54, 78
2, 241392, Note_on_c, 0, 57, 85
2, 241421, Control_c, 0, 64, 0
2, 241604, Note_off_c, 0, 57, 64
2, 241637, Control_c, 0, 64, 127
2, 241637, Note_on_c, 0, 63, 75
2, 241685, Note_off_c, 0, 54, 64
2, 241704, Note_on_c, 0, 84, 101
2, 241829, Note_off_c, 0, 63, 64
2, 241844, Note_on_c, 0, 72, 105
2, 241868, Note_off_c, 0, 84, 64
2, 241868, Note_on_c, 0, 55, 67
2, 241964, Control_c, 0, 64, 0
2, 242084, Note_on_c, 0, 60, 78
2, 242266, Note_off_c, 0, 55, 64
2, 242266, Control_c, 0, 64, 127
2, 242314, Note_off_c, 0, 60, 64
2, 242338, Note_on_c, 0, 63, 70
2, 242477, Note_off_c, 0, 72, 64
2, 242525, Note_off_c, 0, 63, 64
2, 242544, Note_on_c, 0, 74, 88
2, 242554, Note_on_c, 0, 55, 65
2, 242578, Note_off_c, 0, 74, 64
2, 242597, Note_on_c, 0, 75, 79
2, 242607, Control_c, 0, 64, 0
2, 242640, Note_off_c, 0, 75, 64
2, 242655, Note_on_c, 0, 74, 79
2, 242703, Note_off_c, 0, 74, 64
2, 242732, Note_on_c, 0, 75, 58
2, 242780, Note_off_c, 0, 75, 64
2, 242784, Note_on_c, 0, 59, 49
2, 242794, Note_on_c, 0, 74, 77
2, 242832, Note_off_c, 0, 74, 64
2, 242837, Note_on_c, 0, 75, 84
2, 242904, Note_on_c, 0, 74, 74
2, 242948, Note_off_c, 0, 75, 64
2, 242996, Note_off_c, 0, 74, 64
2, 242996, Note_off_c, 0, 59, 64
2, 243005, Note_on_c, 0, 72, 91
2, 243020, Control_c, 0, 64, 127
2, 243020, Note_on_c, 0, 65, 62
2, 243111, Note_off_c, 0, 72, 64
2, 243111, Note_off_c, 0, 65, 64
2, 243120, Note_on_c, 0, 74, 51
2, 243173, Control_c, 0, 64, 0
2, 243226, Note_off_c, 0, 55, 64
2, 243245, Note_off_c, 0, 74, 64
2, 243260, Note_on_c, 0, 72, 75
2, 243264, Note_on_c, 0, 63, 48
2, 243274, Note_on_c, 0, 60, 39
2, 243317, Note_off_c, 0, 63, 64
2, 243346, Control_c, 0, 64, 127
2, 243394, Note_on_c, 0, 67, 61
2, 243408, Note_off_c, 0, 72, 64
2, 243447, Note_off_c, 0, 67, 64
2, 243504, Note_on_c, 0, 63, 58
2, 243567, Note_off_c, 0, 63, 64
2, 243620, Note_off_c, 0, 60, 64
2, 243620, Note_on_c, 0, 67, 78
2, 243677, Note_off_c, 0, 67, 64
2, 243735, Note_on_c, 0, 63, 56
2, 243797, Note_off_c, 0, 63, 64
2, 243831, Note_on_c, 0, 67, 63
2, 243946, Note_off_c, 0, 67, 64
2, 243970, Note_on_c, 0, 65, 71
2, 243970, Note_on_c, 0, 55, 90
2, 243989, Control_c, 0, 64, 0
2, 244076, Note_on_c, 0, 67, 57
2, 244090, Note_off_c, 0, 65, 64
2, 244200, Note_on_c, 0, 65, 61
2, 244215, Note_on_c, 0, 57, 90
2, 244220, Note_off_c, 0, 67, 64
2, 244292, Note_off_c, 0, 55, 64
2, 244306, Note_off_c, 0, 65, 64
2, 244311, Note_on_c, 0, 67, 67
2, 244416, Note_on_c, 0, 65, 60
2, 244440, Note_off_c, 0, 67, 64
2, 244445, Note_on_c, 0, 59, 78
2, 244460, Note_off_c, 0, 57, 64
2, 244527, Control_c, 0, 64, 127
2, 244527, Note_on_c, 0, 67, 80
2, 244556, Note_off_c, 0, 59, 64
2, 244560, Note_off_c, 0, 65, 64
2, 244565, Note_off_c, 0, 67, 64
2, 244704, Note_on_c, 0, 60, 86
2, 244704, Note_on_c, 0, 63, 75
2, 244748, Note_off_c, 0, 60, 64
2, 244834, Note_on_c, 0, 60, 72
2, 244853, Note_off_c, 0, 63, 64
2, 244877, Note_off_c, 0, 60, 64
2, 244930, Note_on_c, 0, 55, 66
2, 245045, Note_on_c, 0, 60, 71
2, 245050, Note_off_c, 0, 55, 64
2, 245175, Note_off_c, 0, 60, 64
2, 245175, Note_on_c, 0, 51, 78
2, 245242, Note_off_c, 0, 51, 64
2, 245300, Note_on_c, 0, 55, 63
2, 245372, Control_c, 0, 64, 0
2, 245429, Note_on_c, 0, 67, 89
2, 245434, Note_off_c, 0, 55, 64
2, 245434, Note_on_c, 0, 53, 62
2, 245564, Note_off_c, 0, 53, 64
2, 245568, Note_on_c, 0, 55, 64
2, 245679, Note_on_c, 0, 69, 88
2, 245688, Note_off_c, 0, 55, 64
2, 245688, Note_on_c, 0, 53, 59
2, 245736, Note_off_c, 0, 67, 64
2, 245780, Note_off_c, 0, 53, 64
2, 245794, Note_on_c, 0, 55, 59
2, 245900, Note_off_c, 0, 69, 64
2, 245924, Note_off_c, 0, 55, 64
2, 245924, Note_on_c, 0, 71, 76
2, 245948, Note_on_c, 0, 53, 59
2, 246000, Control_c, 0, 64, 127
2, 246020, Note_off_c, 0, 53, 64
2, 246053, Note_on_c, 0, 55, 39
2, 246111, Control_c, 0, 64, 0
2, 246164, Note_off_c, 0, 71, 64
2, 246173, Note_off_c, 0, 55, 64
2, 246178, Note_on_c, 0, 72, 96
2, 246178, Note_on_c, 0, 51, 67
2, 246279, Note_off_c, 0, 51, 64
2, 246279, Note_on_c, 0, 55, 44
2, 246404, Note_on_c, 0, 51, 62
2, 246408, Note_off_c, 0, 55, 64
2, 246418, Control_c, 0, 64, 127
2, 246437, Note_off_c, 0, 72, 64
2, 246500, Note_on_c, 0, 55, 63
2, 246528, Note_off_c, 0, 51, 64
2, 246620, Note_on_c, 0, 51, 53
2, 246634, Note_off_c, 0, 55, 64
2, 246740, Control_c, 0, 64, 0
2, 246740, Note_on_c, 0, 55, 53
2, 246759, Note_off_c, 0, 51, 64
2, 246898, Note_on_c, 0, 79, 88
2, 246903, Note_off_c, 0, 55, 64
2, 246903, Note_on_c, 0, 53, 68
2, 246970, Note_off_c, 0, 53, 64
2, 246994, Note_on_c, 0, 55, 62
2, 247133, Note_off_c, 0, 55, 64
2, 247148, Note_on_c, 0, 81, 83
2, 247152, Note_on_c, 0, 53, 65
2, 247205, Note_off_c, 0, 53, 64
2, 247210, Note_off_c, 0, 79, 64
2, 247234, Note_on_c, 0, 55, 49
2, 247354, Control_c, 0, 64, 127
2, 247368, Note_on_c, 0, 53, 63
2, 247373, Note_off_c, 0, 55, 64
2, 247383, Note_on_c, 0, 83, 78
2, 247421, Note_off_c, 0, 81, 64
2, 247484, Note_on_c, 0, 55, 52
2, 247503, Note_off_c, 0, 53, 64
2, 247623, Note_off_c, 0, 55, 64
2, 247647, Note_on_c, 0, 51, 62
2, 247656, Note_on_c, 0, 84, 103
2, 247661, Note_off_c, 0, 83, 64
2, 247738, Note_off_c, 0, 51, 64
2, 247762, Note_on_c, 0, 55, 44
2, 247901, Note_off_c, 0, 55, 64
2, 247901, Note_on_c, 0, 51, 60
2, 247968, Control_c, 0, 64, 0
2, 248016, Note_on_c, 0, 55, 45
2, 248031, Note_off_c, 0, 51, 64
2, 248132, Note_on_c, 0, 51, 52
2, 248141, Note_off_c, 0, 55, 64
2, 248151, Control_c, 0, 64, 127
2, 248223, Note_on_c, 0, 55, 82
2, 248242, Note_off_c, 0, 51, 64
2, 248266, Note_off_c, 0, 55, 64
2, 248376, Note_on_c, 0, 52, 73
2, 248386, Note_on_c, 0, 82, 113
2, 248453, Note_off_c, 0, 84, 64
2, 248492, Note_off_c, 0, 52, 64
2, 248506, Note_on_c, 0, 60, 69
2, 248616, Note_on_c, 0, 52, 60
2, 248636, Note_off_c, 0, 60, 64
2, 248708, Control_c, 0, 64, 0
2, 248727, Note_on_c, 0, 60, 47
2, 248746, Note_off_c, 0, 52, 64
2, 248861, Note_off_c, 0, 60, 64
2, 248861, Note_on_c, 0, 52, 64
2, 248890, Control_c, 0, 64, 127
2, 248962, Note_on_c, 0, 60, 54
2, 248991, Note_off_c, 0, 52, 64
2, 249087, Note_on_c, 0, 80, 101
2, 249096, Note_off_c, 0, 60, 64
2, 249101, Note_on_c, 0, 53, 79
2, 249159, Note_off_c, 0, 82, 64
2, 249192, Note_off_c, 0, 53, 64
2, 249197, Note_on_c, 0, 60, 54
2, 249332, Note_off_c, 0, 60, 64
2, 249336, Note_on_c, 0, 53, 70
2, 249442, Note_on_c, 0, 60, 51
2, 249456, Note_off_c, 0, 53, 64
2, 249476, Control_c, 0, 64, 0
2, 249567, Note_off_c, 0, 60, 64
2, 249572, Note_on_c, 0, 53, 52
2, 249615, Control_c, 0, 64, 127
2, 249672, Note_on_c, 0, 60, 48
2, 249701, Note_off_c, 0, 53, 64
2, 249807, Note_on_c, 0, 55, 78
2, 249807, Note_on_c, 0, 77, 98
2, 249816, Note_off_c, 0, 60, 64
2, 249831, Note_off_c, 0, 80, 64
2, 249912, Note_off_c, 0, 55, 64
2, 249922, Note_on_c, 0, 59, 60
2, 250028, Note_off_c, 0, 59, 64
2, 250032, Note_on_c, 0, 55, 55
2, 250104, Control_c, 0, 64, 0
2, 250148, Note_on_c, 0, 59, 47
2, 250167, Note_off_c, 0, 55, 64
2, 250253, Note_on_c, 0, 55, 60
2, 250272, Note_off_c, 0, 59, 64
2, 250287, Control_c, 0, 64, 127
2, 250364, Note_on_c, 0, 59, 49
2, 250388, Note_off_c, 0, 55, 64
2, 250488, Note_off_c, 0, 59, 64
2, 250508, Note_on_c, 0, 56, 75
2, 250512, Note_on_c, 0, 75, 84
2, 250570, Note_off_c, 0, 77, 64
2, 250594, Note_off_c, 0, 56, 64
2, 250637, Note_on_c, 0, 60, 59
2, 250714, Note_off_c, 0, 60, 64
2, 250767, Note_on_c, 0, 56, 64
2, 250853, Note_off_c, 0, 56, 64
2, 250887, Note_on_c, 0, 60, 72
2, 250916, Control_c, 0, 64, 0
2, 250973, Note_off_c, 0, 60, 64
2, 250997, Note_on_c, 0, 56, 63
2, 251074, Control_c, 0, 64, 127
2, 251079, Note_off_c, 0, 56, 64
2, 251098, Note_on_c, 0, 60, 64
2, 251122, Note_off_c, 0, 75, 64
2, 251213, Note_on_c, 0, 73, 97
2, 251228, Note_off_c, 0, 60, 64
2, 251237, Note_on_c, 0, 53, 69
2, 251352, Note_off_c, 0, 53, 64
2, 251357, Note_on_c, 0, 56, 70
2, 251477, Note_on_c, 0, 53, 62
2, 251487, Control_c, 0, 64, 0
2, 251496, Note_off_c, 0, 56, 64
2, 251578, Note_on_c, 0, 56, 62
2, 251602, Note_off_c, 0, 53, 64
2, 251655, Control_c, 0, 64, 127
2, 251717, Note_off_c, 0, 56, 64
2, 251727, Note_on_c, 0, 53, 46
2, 251823, Note_on_c, 0, 56, 45
2, 251866, Note_off_c, 0, 53, 64
2, 251895, Note_off_c, 0, 73, 64
2, 251933, Note_off_c, 0, 56, 64
2, 251948, Note_on_c, 0, 72, 99
2, 251962, Note_on_c, 0, 55, 63
2, 252063, Note_off_c, 0, 55, 64
2, 252063, Note_on_c, 0, 63, 62
2, 252149, Note_off_c, 0, 63, 64
2, 252149, Control_c, 0, 64, 0
2, 252178, Note_on_c, 0, 55, 46
2, 252293, Note_on_c, 0, 63, 62
2, 252303, Note_off_c, 0, 55, 64
2, 252346, Control_c, 0, 64, 127
2, 252394, Note_off_c, 0, 63, 64
2, 252408, Note_on_c, 0, 55, 53
2, 252519, Note_on_c, 0, 63, 50
2, 252528, Note_off_c, 0, 55, 64
2, 252605, Note_off_c, 0, 63, 64
2, 252605, Note_off_c, 0, 72, 64
2, 252658, Note_on_c, 0, 55, 43
2, 252672, Note_on_c, 0, 71, 78
2, 252754, Note_off_c, 0, 55, 64
2, 252764, Control_c, 0, 64, 0
2, 252797, Note_on_c, 0, 62, 52
2, 252860, Note_off_c, 0, 62, 64
2, 252908, Note_on_c, 0, 55, 50
2, 252980, Control_c, 0, 64, 127
2, 252989, Note_off_c, 0, 55, 64
2, 253032, Note_off_c, 0, 71, 64
2, 253056, Note_on_c, 0, 62, 42
2, 253119, Note_off_c, 0, 62, 64
2, 253162, Note_on_c, 0, 55, 55
2, 253244, Note_off_c, 0, 55, 64
2, 253277, Note_on_c, 0, 62, 45
2, 253335, Note_off_c, 0, 62, 64
2, 253392, Note_on_c, 0, 56, 72
2, 253402, Note_on_c, 0, 63, 54
2, 253407, Control_c, 0, 64, 0
2, 253474, Note_off_c, 0, 63, 64
2, 253527, Note_on_c, 0, 72, 61
2, 253594, Control_c, 0, 64, 127
2, 253618, Note_off_c, 0, 72, 64
2, 253661, Note_on_c, 0, 63, 39
2, 253671, Note_off_c, 0, 56, 64
2, 253724, Note_off_c, 0, 63, 64
2, 253800, Note_on_c, 0, 72, 66
2, 253858, Note_off_c, 0, 72, 64
2, 253901, Note_on_c, 0, 63, 54
2, 253959, Note_off_c, 0, 63, 64
2, 254026, Note_on_c, 0, 72, 73
2, 254084, Note_off_c, 0, 72, 64
2, 254132, Note_on_c, 0, 84, 113
2, 254132, Note_on_c, 0, 63, 61
2, 254208, Note_off_c, 0, 63, 64
2, 254280, Note_on_c, 0, 72, 76
2, 254348, Note_off_c, 0, 72, 64
2, 254381, Note_on_c, 0, 63, 58
2, 254482, Note_off_c, 0, 63, 64
2, 254525, Note_on_c, 0, 72, 75
2, 254530, Control_c, 0, 64, 0
2, 254650, Note_on_c, 0, 63, 72
2, 254679, Note_off_c, 0, 72, 64
2, 254698, Control_c, 0, 64, 127
2, 254784, Note_off_c, 0, 63, 64
2, 254808, Note_on_c, 0, 72, 62
2, 254813, Note_off_c, 0, 84, 64
2, 254938, Note_off_c, 0, 72, 64
2, 254938, Note_on_c, 0, 87, 107
2, 254962, Note_on_c, 0, 63, 62
2, 255034, Note_off_c, 0, 63, 64
2, 255120, Note_on_c, 0, 72, 69
2, 255221, Note_off_c, 0, 72, 64
2, 255240, Note_off_c, 0, 87, 64
2, 255255, Note_on_c, 0, 63, 64
2, 255336, Note_off_c, 0, 63, 64
2, 255408, Note_on_c, 0, 72, 67
2, 255495, Note_off_c, 0, 72, 64
2, 255548, Note_on_c, 0, 63, 61
2, 255615, Note_off_c, 0, 63, 64
2, 255716, Note_on_c, 0, 72, 48
2, 255783, Note_off_c, 0, 72, 64
2, 255797, Note_on_c, 0, 30, 99
2, 255826, Note_on_c, 0, 63, 59
2, 255888, Note_off_c, 0, 63, 64
2, 255980, Note_on_c, 0, 72, 50
2, 256037, Note_off_c, 0, 72, 64
2, 256061, Note_on_c, 0, 63, 59
2, 256128, Note_off_c, 0, 63, 64
2, 256220, Note_on_c, 0, 72, 64
2, 256272, Note_off_c, 0, 72, 64
2, 256306, Note_on_c, 0, 63, 58
2, 256378, Note_off_c, 0, 63, 64
2, 256445, Note_on_c, 0, 72, 71
2, 256460, Note_off_c, 0, 30, 64
2, 256503, Note_off_c, 0, 72, 64
2, 256536, Note_on_c, 0, 31, 113
2, 256556, Note_on_c, 0, 63, 63
2, 256652, Control_c, 0, 64, 0
2, 256690, Note_off_c, 0, 63, 64
2, 256700, Note_on_c, 0, 72, 70
2, 256772, Note_off_c, 0, 72, 64
2, 256781, Note_on_c, 0, 63, 59
2, 256834, Control_c, 0, 64, 127
2, 256920, Note_off_c, 0, 63, 64
2, 256935, Note_on_c, 0, 72, 72
2, 256992, Note_off_c, 0, 72, 64
2, 257026, Note_on_c, 0, 63, 41
2, 257165, Note_off_c, 0, 63, 64
2, 257184, Note_on_c, 0, 72, 75
2, 257194, Note_off_c, 0, 31, 64
2, 257276, Note_off_c, 0, 72, 64
2, 257300, Note_on_c, 0, 32, 105
2, 257328, Note_on_c, 0, 63, 68
2, 257386, Control_c, 0, 64, 0
2, 257429, Note_off_c, 0, 63, 64
2, 257468, Note_on_c, 0, 72, 73
2, 257540, Note_off_c, 0, 72, 64
2, 257588, Note_on_c, 0, 63, 69
2, 257602, Control_c, 0, 64, 127
2, 257674, Note_off_c, 0, 63, 64
2, 257717, Note_on_c, 0, 72, 66
2, 257780, Note_off_c, 0, 72, 64
2, 257823, Note_on_c, 0, 63, 63
2, 257880, Note_off_c, 0, 63, 64
2, 257948, Note_on_c, 0, 72, 69
2, 258005, Note_off_c, 0, 72, 64
2, 258048, Note_on_c, 0, 29, 97
2, 258068, Note_on_c, 0, 62, 66
2, 258077, Control_c, 0, 64, 0
2, 258116, Note_off_c, 0, 32, 64
2, 258197, Note_off_c, 0, 62, 64
2, 258207, Note_on_c, 0, 72, 72
2, 258288, Note_off_c, 0, 72, 64
2, 258327, Note_on_c, 0, 62, 45
2, 258341, Control_c, 0, 64, 127
2, 258442, Note_off_c, 0, 62, 64
2, 258476, Note_on_c, 0, 72, 65
2, 258528, Note_off_c, 0, 72, 64
2, 258591, Note_on_c, 0, 62, 42
2, 258672, Note_off_c, 0, 62, 64
2, 258740, Note_on_c, 0, 72, 49
2, 258797, Note_off_c, 0, 72, 64
2, 258831, Control_c, 0, 64, 0
2, 258836, Note_on_c, 0, 31, 78
2, 258850, Note_on_c, 0, 62, 63
2, 258898, Note_off_c, 0, 29, 64
2, 258960, Note_off_c, 0, 62, 64
2, 258999, Note_on_c, 0, 71, 47
2, 259061, Note_off_c, 0, 71, 64
2, 259061, Control_c, 0, 64, 127
2, 259133, Note_on_c, 0, 62, 44
2, 259205, Note_off_c, 0, 62, 64
2, 259263, Note_on_c, 0, 71, 43
2, 259330, Note_off_c, 0, 71, 64
2, 259421, Note_on_c, 0, 62, 41
2, 259493, Note_off_c, 0, 62, 64
2, 259570, Note_on_c, 0, 71, 24
2, 259647, Note_off_c, 0, 71, 64
2, 259724, Control_c, 0, 64, 0
2, 259728, Note_on_c, 0, 63, 33
2, 259733, Note_on_c, 0, 36, 45
2, 259767, Note_off_c, 0, 31, 64
2, 259872, Note_on_c, 0, 72, 53
2, 259997, Note_off_c, 0, 63, 64
2, 259997, Control_c, 0, 64, 127
2, 260002, Note_off_c, 0, 72, 64
2, 260079, Note_on_c, 0, 67, 42
2, 260117, Note_off_c, 0, 36, 64
2, 260146, Note_off_c, 0, 67, 64
2, 260189, Note_on_c, 0, 63, 58
2, 260261, Note_off_c, 0, 63, 64
2, 260328, Note_on_c, 0, 67, 63
2, 260434, Note_off_c, 0, 67, 64
2, 260434, Note_on_c, 0, 63, 60
2, 260520, Note_off_c, 0, 63, 64
2, 260602, Note_on_c, 0, 62, 54
2, 260631, Control_c, 0, 64, 0
2, 260703, Note_off_c, 0, 62, 64
2, 260741, Note_on_c, 0, 65, 37
2, 260751, Control_c, 0, 64, 127
2, 260804, Note_off_c, 0, 65, 64
2, 260832, Note_on_c, 0, 62, 16
2, 260837, Note_on_c, 0, 67, 56
2, 260842, Note_on_c, 0, 79, 55
2, 260890, Note_off_c, 0, 67, 64
2, 260909, Note_off_c, 0, 79, 64
2, 260957, Note_on_c, 0, 65, 37
2, 260962, Note_on_c, 0, 81, 75
2, 260967, Control_c, 0, 64, 0
2, 261024, Note_off_c, 0, 65, 64
2, 261048, Note_off_c, 0, 81, 64
2, 261077, Note_on_c, 0, 67, 52
2, 261077, Note_on_c, 0, 83, 68
2, 261087, Control_c, 0, 64, 127
2, 261140, Note_off_c, 0, 67, 64
2, 261154, Note_off_c, 0, 83, 64
2, 261154, Control_c, 0, 64, 0
2, 261183, Note_on_c, 0, 79, 84
2, 261192, Note_on_c, 0, 65, 39
2, 261226, Note_off_c, 0, 62, 64
2, 261240, Note_off_c, 0, 79, 64
2, 261260, Note_off_c, 0, 65, 64
2, 261327, Note_on_c, 0, 60, 47
2, 261327, Note_on_c, 0, 84, 81
2, 261365, Note_off_c, 0, 84, 64
2, 261365, Control_c, 0, 64, 127
2, 261413, Note_off_c, 0, 60, 64
2, 261432, Note_on_c, 0, 63, 42
2, 261504, Note_off_c, 0, 63, 64
2, 261591, Note_on_c, 0, 67, 41
2, 261591, Note_on_c, 0, 72, 73
2, 261648, Note_off_c, 0, 67, 64
2, 261648, Note_off_c, 0, 72, 64
2, 261692, Note_on_c, 0, 63, 52
2, 261711, Note_on_c, 0, 74, 76
2, 261749, Note_off_c, 0, 63, 64
2, 261816, Note_off_c, 0, 74, 64
2, 261826, Note_on_c, 0, 75, 75
2, 261831, Note_on_c, 0, 67, 53
2, 261932, Note_on_c, 0, 63, 46
2, 261936, Note_off_c, 0, 67, 64
2, 261936, Control_c, 0, 64, 0
2, 261951, Note_on_c, 0, 72, 84
2, 261960, Note_off_c, 0, 75, 64
2, 262004, Note_off_c, 0, 63, 64
2, 262028, Note_off_c, 0, 72, 64
2, 262095, Note_on_c, 0, 62, 49
2, 262105, Note_on_c, 0, 79, 60
2, 262196, Control_c, 0, 64, 127
2, 262220, Note_off_c, 0, 79, 64
2, 262220, Note_on_c, 0, 65, 40
2, 262292, Note_off_c, 0, 65, 64
2, 262325, Note_on_c, 0, 71, 51
2, 262344, Note_on_c, 0, 67, 49
2, 262383, Control_c, 0, 64, 0
2, 262388, Note_off_c, 0, 71, 64
2, 262407, Note_off_c, 0, 67, 64
2, 262455, Note_on_c, 0, 72, 67
2, 262469, Note_on_c, 0, 65, 50
2, 262522, Note_off_c, 0, 65, 64
2, 262536, Note_off_c, 0, 72, 64
2, 262584, Note_on_c, 0, 74, 62
2, 262594, Note_on_c, 0, 67, 50
2, 262656, Note_off_c, 0, 67, 64
2, 262661, Note_off_c, 0, 74, 64
2, 262685, Note_on_c, 0, 65, 38
2, 262700, Note_off_c, 0, 62, 64
2, 262704, Note_on_c, 0, 71, 43
2, 262752, Note_off_c, 0, 65, 64
2, 262767, Note_off_c, 0, 71, 64
2, 262834, Note_on_c, 0, 60, 45
2, 262844, Note_on_c, 0, 72, 63
2, 262935, Note_on_c, 0, 63, 56
2, 262997, Note_off_c, 0, 63, 64
2, 262997, Control_c, 0, 64, 127
2, 263064, Note_on_c, 0, 67, 52
2, 263127, Note_off_c, 0, 67, 64
2, 263180, Note_off_c, 0, 60, 64
2, 263180, Note_on_c, 0, 63, 55
2, 263184, Note_off_c, 0, 72, 64
2, 263252, Note_off_c, 0, 63, 64
2, 263328, Note_on_c, 0, 67, 36
2, 263415, Note_off_c, 0, 67, 64
2, 263424, Note_on_c, 0, 63, 54
2, 263482, Note_off_c, 0, 63, 64
2, 263516, Control_c, 0, 64, 0
2, 263559, Note_on_c, 0, 62, 55
2, 263693, Note_on_c, 0, 65, 42
2, 263765, Note_off_c, 0, 65, 64
2, 263804, Note_on_c, 0, 43, 71
2, 263818, Note_on_c, 0, 67, 43
2, 263876, Note_off_c, 0, 67, 64
2, 263890, Note_off_c, 0, 62, 64
2, 263909, Note_on_c, 0, 45, 84
2, 263924, Note_off_c, 0, 43, 64
2, 263933, Note_on_c, 0, 65, 46
2, 263986, Note_off_c, 0, 65, 64
2, 264020, Note_on_c, 0, 47, 70
2, 264039, Note_off_c, 0, 45, 64
2, 264058, Note_on_c, 0, 67, 63
2, 264120, Note_off_c, 0, 67, 64
2, 264130, Note_on_c, 0, 43, 75
2, 264140, Note_off_c, 0, 47, 64
2, 264188, Note_on_c, 0, 65, 34
2, 264240, Note_off_c, 0, 43, 64
2, 264255, Note_off_c, 0, 65, 64
2, 264288, Note_on_c, 0, 48, 92
2, 264288, Note_on_c, 0, 60, 59
2, 264322, Note_off_c, 0, 48, 64
2, 264332, Control_c, 0, 64, 127
2, 264413, Note_on_c, 0, 63, 61
2, 264480, Note_off_c, 0, 63, 64
2, 264572, Note_on_c, 0, 36, 99
2, 264586, Note_on_c, 0, 67, 48
2, 264610, Control_c, 0, 64, 0
2, 264644, Note_off_c, 0, 67, 64
2, 264672, Note_on_c, 0, 63, 59
2, 264677, Note_on_c, 0, 38, 86
2, 264692, Note_off_c, 0, 36, 64
2, 264749, Note_off_c, 0, 63, 64
2, 264788, Note_on_c, 0, 39, 84
2, 264821, Note_off_c, 0, 38, 64
2, 264826, Note_on_c, 0, 67, 55
2, 264888, Note_off_c, 0, 67, 64
2, 264903, Note_on_c, 0, 36, 92
2, 264922, Note_on_c, 0, 63, 53
2, 264932, Note_off_c, 0, 39, 64
2, 264951, Note_off_c, 0, 60, 64
2, 264980, Note_off_c, 0, 63, 64
2, 265023, Note_off_c, 0, 36, 64
2, 265055, Note_on_c, 0, 43, 79
2, 265076, Note_on_c, 0, 62, 51
2, 265134, Note_off_c, 0, 62, 64
2, 265154, Note_off_c, 0, 43, 64
2, 265162, Control_c, 0, 64, 127
2, 265214, Note_on_c, 0, 65, 51
2, 265272, Note_off_c, 0, 65, 64
2, 265301, Control_c, 0, 64, 0
2, 265340, Note_on_c, 0, 31, 75
2, 265344, Note_on_c, 0, 67, 51
2, 265397, Note_off_c, 0, 67, 64
2, 265445, Note_off_c, 0, 31, 64
2, 265464, Note_on_c, 0, 65, 49
2, 265464, Note_on_c, 0, 33, 76
2, 265527, Note_off_c, 0, 65, 64
2, 265584, Note_on_c, 0, 67, 52
2, 265589, Note_off_c, 0, 33, 64
2, 265594, Note_on_c, 0, 35, 47
2, 265637, Note_off_c, 0, 67, 64
2, 265685, Note_off_c, 0, 35, 64
2, 265708, Note_on_c, 0, 65, 52
2, 265714, Note_on_c, 0, 31, 63
2, 265761, Note_off_c, 0, 65, 64
2, 265863, Note_off_c, 0, 31, 64
2, 265916, Note_on_c, 0, 36, 61
2, 265918, Note_on_c, 0, 60, 47
2, 265918, Note_on_c, 0, 63, 44
2, 266084, Control_c, 0, 64, 127
2, 266098, Note_off_c, 0, 60, 64
2, 266110, Note_off_c, 0, 63, 64
2, 266127, Note_off_c, 0, 36, 64
2, 266376, Control_c, 0, 64, 0
2, 266976, Note_on_c, 0, 79, 112
2, 266981, Note_on_c, 0, 67, 113
2, 266981, Note_on_c, 0, 75, 100
2, 266986, Note_on_c, 0, 72, 114
2, 266986, Note_on_c, 0, 60, 95
2, 266996, Note_on_c, 0, 48, 86
2, 267000, Note_on_c, 0, 55, 94
2, 267005, Note_on_c, 0, 51, 82
2, 267236, Control_c, 0, 64, 127
2, 267240, Note_off_c, 0, 60, 64
2, 267250, Note_off_c, 0, 67, 64
2, 267260, Note_off_c, 0, 48, 64
2, 267274, Note_off_c, 0, 55, 64
2, 267284, Note_off_c, 0, 72, 64
2, 267298, Note_off_c, 0, 51, 64
2, 267322, Note_off_c, 0, 75, 64
2, 267327, Note_off_c, 0, 79, 64
2, 267437, Control_c, 0, 64, 0
2, 267917, Note_on_c, 0, 75, 107
2, 267917, Note_on_c, 0, 84, 116
2, 267922, Note_on_c, 0, 72, 119
2, 267922, Note_on_c, 0, 48, 113
2, 267922, Note_on_c, 0, 79, 110
2, 267927, Note_on_c, 0, 39, 95
2, 267932, Note_on_c, 0, 36, 92
2, 267936, Note_on_c, 0, 43, 95
2, 268066, Control_c, 0, 64, 127
2, 268373, Note_off_c, 0, 72, 64
2, 268383, Note_off_c, 0, 39, 64
2, 268392, Note_off_c, 0, 75, 64
2, 268397, Note_off_c, 0, 84, 64
2, 268402, Note_off_c, 0, 48, 64
2, 268402, Note_off_c, 0, 36, 64
2, 268426, Note_off_c, 0, 79, 64
2, 268431, Note_off_c, 0, 43, 64
2, 268666, Control_c, 0, 64, 0
2, 268666, End_track
3, 0, Start_track
3, 0, Title_t, "Track-2"
3, 0, End_track
4, 0, Start_track
4, 0, Title_t, "Track-3"
4, 0, End_track
5, 0, Start_track
5, 0, Title_t, "Track-4"
5, 0, End_track
6, 0, Start_track
6, 0, Title_t, "Track-5"
6, 0, End_track
7, 0, Start_track
7, 0, Title_t, "Track-6"
7, 0, End_track
8, 0, Start_track
8, 0, Title_t, "Track-7"
8, 0, End_track
9, 0, Start_track
9, 0, Title_t, "Track-8"
9, 0, End_track
0, 0, End_of_file
