0, 0, Header, 1, 2, 256
1, 0, Start_track
1, 0, Title_t, "mozart-k.576 1st mvt"
1, 0, Time_signature, 4, 2, 24, 8
1, 0, Key_signature, 2, "major"
1, 0, Time_signature, 6, 3, 36, 8
1, 0, Tempo, 600000
1, 0, Tempo, 352941
1, 44544, Time_signature, 6, 3, 36, 8
1, 44672, Tempo, 600000
1, 44672, Tempo, 400000
1, 44673, End_track
2, 0, Start_track
2, 0, Control_c, 0, 121, 0
2, 0, Control_c, 0, 91, 59
2, 0, Control_c, 0, 10, 51
2, 0, Control_c, 0, 7, 100
2, 0, Control_c, 0, 121, 0
2, 0, Control_c, 0, 91, 59
2, 0, Control_c, 0, 10, 51
2, 0, Control_c, 0, 7, 100
2, 0, Control_c, 0, 91, 60
2, 0, Control_c, 0, 10, 51
2, 0, Control_c, 0, 7, 100
2, 0, Program_c, 0, 0
2, 0, Note_on_c, 0, 45, 64
2, 0, Note_on_c, 0, 57, 64
2, 128, Note_on_c, 0, 62, 73
2, 128, Note_on_c, 0, 45, 0
2, 128, Note_on_c, 0, 57, 0
2, 128, Note_on_c, 0, 50, 71
2, 256, Note_on_c, 0, 62, 0
2, 256, Note_on_c, 0, 50, 0
2, 256, Note_on_c, 0, 45, 78
2, 256, Note_on_c, 0, 57, 78
2, 384, Note_on_c, 0, 62, 70
2, 384, Note_on_c, 0, 45, 0
2, 384, Note_on_c, 0, 57, 0
2, 384, Note_on_c, 0, 50, 72
2, 512, Note_on_c, 0, 62, 0
2, 512, Note_on_c, 0, 66, 82
2, 512, Note_on_c, 0, 50, 0
2, 512, Note_on_c, 0, 54, 78
2, 640, Note_on_c, 0, 66, 0
2, 640, Note_on_c, 0, 62, 68
2, 640, Note_on_c, 0, 54, 0
2, 640, Note_on_c, 0, 50, 71
2, 768, Note_on_c, 0, 62, 0
2, 768, Note_on_c, 0, 50, 0
2, 768, Note_on_c, 0, 66, 82
2, 768, Note_on_c, 0, 54, 74
2, 896, Note_on_c, 0, 66, 0
2, 896, Note_on_c, 0, 69, 87
2, 896, Note_on_c, 0, 54, 0
2, 896, Note_on_c, 0, 57, 75
2, 1152, Note_on_c, 0, 69, 0
2, 1152, Note_on_c, 0, 69, 75
2, 1152, Note_on_c, 0, 57, 0
2, 1152, Note_on_c, 0, 57, 71
2, 1280, Note_on_c, 0, 69, 0
2, 1280, Note_on_c, 0, 69, 76
2, 1280, Note_on_c, 0, 57, 0
2, 1280, Note_on_c, 0, 57, 78
2, 1536, Note_on_c, 0, 69, 0
2, 1536, Note_on_c, 0, 57, 0
2, 1536, Note_on_c, 0, 67, 85
2, 1536, Note_on_c, 0, 73, 85
2, 1536, Note_on_c, 0, 74, 85
2, 1578, Note_on_c, 0, 73, 0
2, 1578, Note_on_c, 0, 74, 0
2, 1578, Note_on_c, 0, 73, 72
2, 1621, Note_on_c, 0, 73, 0
2, 1621, Note_on_c, 0, 71, 74
2, 1621, Note_on_c, 0, 73, 74
2, 1664, Note_on_c, 0, 67, 0
2, 1664, Note_on_c, 0, 71, 0
2, 1664, Note_on_c, 0, 73, 0
2, 1664, Note_on_c, 0, 66, 77
2, 1664, Note_on_c, 0, 74, 77
2, 1920, Note_on_c, 0, 66, 0
2, 1920, Note_on_c, 0, 74, 0
2, 1920, Note_on_c, 0, 76, 85
2, 1920, Note_on_c, 0, 78, 85
2, 1920, Note_on_c, 0, 61, 65
2, 1962, Note_on_c, 0, 76, 0
2, 1962, Note_on_c, 0, 78, 0
2, 1962, Note_on_c, 0, 76, 72
2, 2005, Note_on_c, 0, 76, 0
2, 2005, Note_on_c, 0, 74, 76
2, 2005, Note_on_c, 0, 76, 76
2, 2048, Note_on_c, 0, 74, 0
2, 2048, Note_on_c, 0, 76, 0
2, 2048, Note_on_c, 0, 78, 81
2, 2048, Note_on_c, 0, 61, 0
2, 2048, Note_on_c, 0, 62, 78
2, 2175, Note_on_c, 0, 78, 0
2, 2175, Note_on_c, 0, 62, 0
2, 2304, Note_on_c, 0, 81, 83
2, 2304, Note_on_c, 0, 55, 84
2, 2304, Note_on_c, 0, 64, 84
2, 2368, Note_on_c, 0, 81, 0
2, 2368, Note_on_c, 0, 79, 73
2, 2432, Note_on_c, 0, 79, 0
2, 2432, Note_on_c, 0, 78, 68
2, 2432, Note_on_c, 0, 55, 0
2, 2432, Note_on_c, 0, 64, 0
2, 2432, Note_on_c, 0, 57, 72
2, 2432, Note_on_c, 0, 62, 72
2, 2816, Note_on_c, 0, 78, 0
2, 2816, Note_on_c, 0, 76, 71
2, 2816, Note_on_c, 0, 57, 0
2, 2816, Note_on_c, 0, 62, 0
2, 2816, Note_on_c, 0, 61, 75
2, 2943, Note_on_c, 0, 76, 0
2, 2943, Note_on_c, 0, 61, 0
2, 3072, Note_on_c, 0, 47, 69
2, 3072, Note_on_c, 0, 59, 69
2, 3200, Note_on_c, 0, 64, 69
2, 3200, Note_on_c, 0, 47, 0
2, 3200, Note_on_c, 0, 59, 0
2, 3200, Note_on_c, 0, 52, 68
2, 3328, Note_on_c, 0, 64, 0
2, 3328, Note_on_c, 0, 52, 0
2, 3328, Note_on_c, 0, 47, 83
2, 3328, Note_on_c, 0, 59, 83
2, 3456, Note_on_c, 0, 64, 67
2, 3456, Note_on_c, 0, 47, 0
2, 3456, Note_on_c, 0, 59, 0
2, 3456, Note_on_c, 0, 52, 69
2, 3584, Note_on_c, 0, 64, 0
2, 3584, Note_on_c, 0, 67, 81
2, 3584, Note_on_c, 0, 52, 0
2, 3584, Note_on_c, 0, 55, 77
2, 3712, Note_on_c, 0, 67, 0
2, 3712, Note_on_c, 0, 64, 71
2, 3712, Note_on_c, 0, 55, 0
2, 3712, Note_on_c, 0, 52, 73
2, 3840, Note_on_c, 0, 64, 0
2, 3840, Note_on_c, 0, 52, 0
2, 3840, Note_on_c, 0, 67, 83
2, 3840, Note_on_c, 0, 55, 75
2, 3968, Note_on_c, 0, 67, 0
2, 3968, Note_on_c, 0, 71, 84
2, 3968, Note_on_c, 0, 55, 0
2, 3968, Note_on_c, 0, 59, 81
2, 4224, Note_on_c, 0, 71, 0
2, 4224, Note_on_c, 0, 71, 78
2, 4224, Note_on_c, 0, 59, 0
2, 4224, Note_on_c, 0, 59, 76
2, 4352, Note_on_c, 0, 71, 0
2, 4352, Note_on_c, 0, 71, 78
2, 4352, Note_on_c, 0, 59, 0
2, 4352, Note_on_c, 0, 59, 76
2, 4608, Note_on_c, 0, 71, 0
2, 4608, Note_on_c, 0, 59, 0
2, 4608, Note_on_c, 0, 66, 82
2, 4608, Note_on_c, 0, 69, 82
2, 4608, Note_on_c, 0, 75, 82
2, 4736, Note_on_c, 0, 66, 0
2, 4736, Note_on_c, 0, 69, 0
2, 4736, Note_on_c, 0, 75, 0
2, 4736, Note_on_c, 0, 67, 82
2, 4736, Note_on_c, 0, 71, 82
2, 4736, Note_on_c, 0, 78, 82
2, 4800, Note_on_c, 0, 78, 0
2, 4800, Note_on_c, 0, 76, 74
2, 4864, Note_on_c, 0, 76, 0
2, 4864, Note_on_c, 0, 79, 82
2, 4928, Note_on_c, 0, 79, 0
2, 4928, Note_on_c, 0, 78, 72
2, 4992, Note_on_c, 0, 67, 0
2, 4992, Note_on_c, 0, 71, 0
2, 4992, Note_on_c, 0, 78, 0
2, 4992, Note_on_c, 0, 81, 84
2, 5056, Note_on_c, 0, 81, 0
2, 5056, Note_on_c, 0, 79, 74
2, 5120, Note_on_c, 0, 79, 0
2, 5120, Note_on_c, 0, 83, 83
2, 5247, Note_on_c, 0, 83, 0
2, 5376, Note_on_c, 0, 73, 64
2, 5376, Note_on_c, 0, 57, 69
2, 5376, Note_on_c, 0, 64, 69
2, 5504, Note_on_c, 0, 73, 0
2, 5504, Note_on_c, 0, 76, 79
2, 5504, Note_on_c, 0, 57, 0
2, 5504, Note_on_c, 0, 64, 0
2, 5504, Note_on_c, 0, 62, 84
2, 5504, Note_on_c, 0, 67, 84
2, 5888, Note_on_c, 0, 76, 0
2, 5888, Note_on_c, 0, 66, 74
2, 5888, Note_on_c, 0, 74, 74
2, 5888, Note_on_c, 0, 62, 0
2, 5888, Note_on_c, 0, 67, 0
2, 6015, Note_on_c, 0, 66, 0
2, 6015, Note_on_c, 0, 74, 0
2, 6144, Note_on_c, 0, 45, 66
2, 6272, Note_on_c, 0, 45, 0
2, 6272, Note_on_c, 0, 50, 78
2, 6400, Note_on_c, 0, 74, 74
2, 6400, Note_on_c, 0, 50, 0
2, 6400, Note_on_c, 0, 45, 71
2, 6528, Note_on_c, 0, 74, 0
2, 6528, Note_on_c, 0, 78, 83
2, 6528, Note_on_c, 0, 45, 0
2, 6528, Note_on_c, 0, 50, 79
2, 6656, Note_on_c, 0, 78, 0
2, 6656, Note_on_c, 0, 81, 86
2, 6656, Note_on_c, 0, 50, 0
2, 6656, Note_on_c, 0, 54, 82
2, 6784, Note_on_c, 0, 81, 0
2, 6784, Note_on_c, 0, 78, 73
2, 6784, Note_on_c, 0, 54, 0
2, 6784, Note_on_c, 0, 50, 77
2, 6912, Note_on_c, 0, 78, 0
2, 6912, Note_on_c, 0, 50, 0
2, 6912, Note_on_c, 0, 86, 101
2, 6912, Note_on_c, 0, 54, 91
2, 7024, Note_on_c, 0, 86, 0
2, 7024, Note_on_c, 0, 54, 0
2, 7040, Note_on_c, 0, 57, 80
2, 7104, Note_on_c, 0, 85, 68
2, 7168, Note_on_c, 0, 85, 0
2, 7168, Note_on_c, 0, 88, 81
2, 7232, Note_on_c, 0, 88, 0
2, 7232, Note_on_c, 0, 86, 64
2, 7296, Note_on_c, 0, 86, 0
2, 7296, Note_on_c, 0, 85, 73
2, 7296, Note_on_c, 0, 57, 0
2, 7296, Note_on_c, 0, 57, 77
2, 7360, Note_on_c, 0, 85, 0
2, 7360, Note_on_c, 0, 83, 71
2, 7424, Note_on_c, 0, 83, 0
2, 7424, Note_on_c, 0, 81, 66
2, 7424, Note_on_c, 0, 57, 0
2, 7424, Note_on_c, 0, 57, 72
2, 7488, Note_on_c, 0, 81, 0
2, 7488, Note_on_c, 0, 83, 75
2, 7552, Note_on_c, 0, 83, 0
2, 7552, Note_on_c, 0, 81, 71
2, 7616, Note_on_c, 0, 81, 0
2, 7616, Note_on_c, 0, 79, 72
2, 7680, Note_on_c, 0, 79, 0
2, 7680, Note_on_c, 0, 57, 0
2, 7680, Note_on_c, 0, 78, 72
2, 7680, Note_on_c, 0, 61, 83
2, 7744, Note_on_c, 0, 78, 0
2, 7744, Note_on_c, 0, 76, 75
2, 7808, Note_on_c, 0, 76, 0
2, 7808, Note_on_c, 0, 78, 78
2, 7808, Note_on_c, 0, 61, 0
2, 7808, Note_on_c, 0, 62, 82
2, 7872, Note_on_c, 0, 78, 0
2, 7872, Note_on_c, 0, 81, 84
2, 7872, Note_on_c, 0, 62, 0
2, 7936, Note_on_c, 0, 81, 0
2, 7936, Note_on_c, 0, 78, 73
2, 8000, Note_on_c, 0, 78, 0
2, 8000, Note_on_c, 0, 74, 66
2, 8064, Note_on_c, 0, 74, 0
2, 8064, Note_on_c, 0, 64, 72
2, 8064, Note_on_c, 0, 73, 72
2, 8128, Note_on_c, 0, 73, 0
2, 8128, Note_on_c, 0, 69, 61
2, 8192, Note_on_c, 0, 64, 0
2, 8192, Note_on_c, 0, 69, 0
2, 8192, Note_on_c, 0, 66, 81
2, 8192, Note_on_c, 0, 74, 81
2, 8256, Note_on_c, 0, 66, 0
2, 8256, Note_on_c, 0, 74, 0
2, 8256, Note_on_c, 0, 73, 73
2, 8320, Note_on_c, 0, 73, 0
2, 8320, Note_on_c, 0, 74, 75
2, 8384, Note_on_c, 0, 74, 0
2, 8384, Note_on_c, 0, 78, 87
2, 8448, Note_on_c, 0, 78, 0
2, 8448, Note_on_c, 0, 67, 76
2, 8448, Note_on_c, 0, 76, 76
2, 8512, Note_on_c, 0, 76, 0
2, 8512, Note_on_c, 0, 79, 83
2, 8576, Note_on_c, 0, 67, 0
2, 8576, Note_on_c, 0, 79, 0
2, 8576, Note_on_c, 0, 66, 61
2, 8576, Note_on_c, 0, 74, 61
2, 8576, Note_on_c, 0, 57, 68
2, 8944, Note_on_c, 0, 57, 0
2, 8960, Note_on_c, 0, 66, 0
2, 8960, Note_on_c, 0, 74, 0
2, 8960, Note_on_c, 0, 73, 69
2, 8960, Note_on_c, 0, 64, 92
2, 9087, Note_on_c, 0, 73, 0
2, 9087, Note_on_c, 0, 64, 0
2, 9216, Note_on_c, 0, 47, 65
2, 9344, Note_on_c, 0, 47, 0
2, 9344, Note_on_c, 0, 52, 79
2, 9472, Note_on_c, 0, 76, 70
2, 9472, Note_on_c, 0, 52, 0
2, 9472, Note_on_c, 0, 47, 74
2, 9600, Note_on_c, 0, 76, 0
2, 9600, Note_on_c, 0, 79, 79
2, 9600, Note_on_c, 0, 47, 0
2, 9600, Note_on_c, 0, 52, 83
2, 9728, Note_on_c, 0, 79, 0
2, 9728, Note_on_c, 0, 83, 85
2, 9728, Note_on_c, 0, 52, 0
2, 9728, Note_on_c, 0, 55, 79
2, 9856, Note_on_c, 0, 83, 0
2, 9856, Note_on_c, 0, 79, 67
2, 9856, Note_on_c, 0, 55, 0
2, 9856, Note_on_c, 0, 52, 72
2, 9984, Note_on_c, 0, 79, 0
2, 9984, Note_on_c, 0, 52, 0
2, 9984, Note_on_c, 0, 88, 105
2, 9984, Note_on_c, 0, 55, 92
2, 10096, Note_on_c, 0, 88, 0
2, 10096, Note_on_c, 0, 55, 0
2, 10112, Note_on_c, 0, 59, 81
2, 10176, Note_on_c, 0, 87, 67
2, 10240, Note_on_c, 0, 87, 0
2, 10240, Note_on_c, 0, 84, 67
2, 10304, Note_on_c, 0, 84, 0
2, 10304, Note_on_c, 0, 83, 72
2, 10368, Note_on_c, 0, 83, 0
2, 10368, Note_on_c, 0, 81, 70
2, 10368, Note_on_c, 0, 59, 0
2, 10368, Note_on_c, 0, 59, 76
2, 10432, Note_on_c, 0, 81, 0
2, 10432, Note_on_c, 0, 79, 74
2, 10496, Note_on_c, 0, 79, 0
2, 10496, Note_on_c, 0, 78, 69
2, 10496, Note_on_c, 0, 59, 0
2, 10496, Note_on_c, 0, 59, 72
2, 10560, Note_on_c, 0, 78, 0
2, 10560, Note_on_c, 0, 76, 71
2, 10624, Note_on_c, 0, 76, 0
2, 10624, Note_on_c, 0, 75, 75
2, 10688, Note_on_c, 0, 75, 0
2, 10688, Note_on_c, 0, 72, 67
2, 10752, Note_on_c, 0, 72, 0
2, 10752, Note_on_c, 0, 59, 0
2, 10752, Note_on_c, 0, 63, 73
2, 10752, Note_on_c, 0, 71, 73
2, 10816, Note_on_c, 0, 71, 0
2, 10816, Note_on_c, 0, 69, 72
2, 10880, Note_on_c, 0, 63, 0
2, 10880, Note_on_c, 0, 69, 0
2, 10880, Note_on_c, 0, 64, 70
2, 10880, Note_on_c, 0, 67, 70
2, 10944, Note_on_c, 0, 67, 0
2, 10944, Note_on_c, 0, 71, 83
2, 11008, Note_on_c, 0, 71, 0
2, 11008, Note_on_c, 0, 76, 88
2, 11072, Note_on_c, 0, 64, 0
2, 11072, Note_on_c, 0, 76, 0
2, 11072, Note_on_c, 0, 71, 62
2, 11136, Note_on_c, 0, 71, 0
2, 11136, Note_on_c, 0, 79, 90
2, 11200, Note_on_c, 0, 79, 0
2, 11200, Note_on_c, 0, 76, 70
2, 11264, Note_on_c, 0, 76, 0
2, 11264, Note_on_c, 0, 83, 93
2, 11392, Note_on_c, 0, 83, 0
2, 11392, Note_on_c, 0, 71, 57
2, 11520, Note_on_c, 0, 71, 0
2, 11520, Note_on_c, 0, 67, 76
2, 11520, Note_on_c, 0, 73, 76
2, 11520, Note_on_c, 0, 57, 74
2, 11648, Note_on_c, 0, 67, 0
2, 11648, Note_on_c, 0, 73, 0
2, 11648, Note_on_c, 0, 62, 84
2, 11648, Note_on_c, 0, 74, 84
2, 11648, Note_on_c, 0, 57, 0
2, 11776, Note_on_c, 0, 62, 0
2, 11776, Note_on_c, 0, 66, 76
2, 11904, Note_on_c, 0, 66, 0
2, 11904, Note_on_c, 0, 74, 0
2, 11904, Note_on_c, 0, 69, 67
2, 12032, Note_on_c, 0, 69, 0
2, 12032, Note_on_c, 0, 62, 61
2, 12160, Note_on_c, 0, 62, 0
2, 12160, Note_on_c, 0, 86, 95
2, 12160, Note_on_c, 0, 66, 67
2, 12224, Note_on_c, 0, 86, 0
2, 12224, Note_on_c, 0, 85, 73
2, 12288, Note_on_c, 0, 85, 0
2, 12288, Note_on_c, 0, 66, 0
2, 12288, Note_on_c, 0, 83, 69
2, 12288, Note_on_c, 0, 69, 80
2, 12352, Note_on_c, 0, 83, 0
2, 12352, Note_on_c, 0, 81, 67
2, 12416, Note_on_c, 0, 81, 0
2, 12416, Note_on_c, 0, 80, 66
2, 12416, Note_on_c, 0, 69, 0
2, 12416, Note_on_c, 0, 61, 63
2, 12480, Note_on_c, 0, 80, 0
2, 12480, Note_on_c, 0, 81, 79
2, 12544, Note_on_c, 0, 81, 0
2, 12544, Note_on_c, 0, 80, 74
2, 12544, Note_on_c, 0, 61, 0
2, 12544, Note_on_c, 0, 64, 77
2, 12608, Note_on_c, 0, 80, 0
2, 12608, Note_on_c, 0, 81, 80
2, 12672, Note_on_c, 0, 81, 0
2, 12672, Note_on_c, 0, 83, 82
2, 12672, Note_on_c, 0, 64, 0
2, 12672, Note_on_c, 0, 69, 87
2, 12736, Note_on_c, 0, 83, 0
2, 12736, Note_on_c, 0, 81, 71
2, 12800, Note_on_c, 0, 81, 0
2, 12800, Note_on_c, 0, 69, 0
2, 12800, Note_on_c, 0, 64, 68
2, 12928, Note_on_c, 0, 81, 66
2, 12928, Note_on_c, 0, 64, 0
2, 12928, Note_on_c, 0, 67, 84
2, 12992, Note_on_c, 0, 81, 0
2, 12992, Note_on_c, 0, 79, 69
2, 13056, Note_on_c, 0, 79, 0
2, 13056, Note_on_c, 0, 67, 0
2, 13056, Note_on_c, 0, 69, 73
2, 13056, Note_on_c, 0, 78, 73
2, 13120, Note_on_c, 0, 78, 0
2, 13120, Note_on_c, 0, 76, 71
2, 13184, Note_on_c, 0, 69, 0
2, 13184, Note_on_c, 0, 76, 0
2, 13184, Note_on_c, 0, 62, 68
2, 13184, Note_on_c, 0, 73, 68
2, 13248, Note_on_c, 0, 73, 0
2, 13248, Note_on_c, 0, 74, 81
2, 13312, Note_on_c, 0, 62, 0
2, 13312, Note_on_c, 0, 74, 0
2, 13312, Note_on_c, 0, 66, 72
2, 13312, Note_on_c, 0, 73, 72
2, 13376, Note_on_c, 0, 73, 0
2, 13376, Note_on_c, 0, 74, 75
2, 13440, Note_on_c, 0, 66, 0
2, 13440, Note_on_c, 0, 74, 0
2, 13440, Note_on_c, 0, 69, 83
2, 13440, Note_on_c, 0, 76, 83
2, 13504, Note_on_c, 0, 76, 0
2, 13504, Note_on_c, 0, 74, 75
2, 13568, Note_on_c, 0, 69, 0
2, 13568, Note_on_c, 0, 74, 0
2, 13568, Note_on_c, 0, 62, 52
2, 13696, Note_on_c, 0, 62, 0
2, 13696, Note_on_c, 0, 86, 91
2, 13696, Note_on_c, 0, 66, 72
2, 13760, Note_on_c, 0, 86, 0
2, 13760, Note_on_c, 0, 85, 76
2, 13824, Note_on_c, 0, 85, 0
2, 13824, Note_on_c, 0, 66, 0
2, 13824, Note_on_c, 0, 83, 70
2, 13824, Note_on_c, 0, 69, 82
2, 13888, Note_on_c, 0, 83, 0
2, 13888, Note_on_c, 0, 81, 67
2, 13952, Note_on_c, 0, 81, 0
2, 13952, Note_on_c, 0, 80, 72
2, 13952, Note_on_c, 0, 69, 0
2, 13952, Note_on_c, 0, 61, 58
2, 14016, Note_on_c, 0, 80, 0
2, 14016, Note_on_c, 0, 81, 77
2, 14080, Note_on_c, 0, 81, 0
2, 14080, Note_on_c, 0, 80, 71
2, 14080, Note_on_c, 0, 61, 0
2, 14080, Note_on_c, 0, 64, 78
2, 14144, Note_on_c, 0, 80, 0
2, 14144, Note_on_c, 0, 81, 77
2, 14208, Note_on_c, 0, 81, 0
2, 14208, Note_on_c, 0, 83, 73
2, 14208, Note_on_c, 0, 64, 0
2, 14208, Note_on_c, 0, 69, 88
2, 14272, Note_on_c, 0, 83, 0
2, 14272, Note_on_c, 0, 81, 76
2, 14336, Note_on_c, 0, 81, 0
2, 14336, Note_on_c, 0, 69, 0
2, 14336, Note_on_c, 0, 64, 66
2, 14464, Note_on_c, 0, 81, 68
2, 14464, Note_on_c, 0, 64, 0
2, 14464, Note_on_c, 0, 67, 80
2, 14528, Note_on_c, 0, 81, 0
2, 14528, Note_on_c, 0, 79, 68
2, 14592, Note_on_c, 0, 79, 0
2, 14592, Note_on_c, 0, 67, 0
2, 14592, Note_on_c, 0, 69, 73
2, 14592, Note_on_c, 0, 78, 73
2, 14656, Note_on_c, 0, 78, 0
2, 14656, Note_on_c, 0, 76, 66
2, 14720, Note_on_c, 0, 69, 0
2, 14720, Note_on_c, 0, 76, 0
2, 14720, Note_on_c, 0, 66, 66
2, 14720, Note_on_c, 0, 69, 66
2, 14720, Note_on_c, 0, 73, 66
2, 14784, Note_on_c, 0, 73, 0
2, 14784, Note_on_c, 0, 74, 77
2, 14848, Note_on_c, 0, 74, 0
2, 14848, Note_on_c, 0, 73, 65
2, 14912, Note_on_c, 0, 73, 0
2, 14912, Note_on_c, 0, 74, 80
2, 14976, Note_on_c, 0, 66, 0
2, 14976, Note_on_c, 0, 69, 0
2, 14976, Note_on_c, 0, 74, 0
2, 14976, Note_on_c, 0, 79, 89
2, 15040, Note_on_c, 0, 79, 0
2, 15040, Note_on_c, 0, 78, 71
2, 15104, Note_on_c, 0, 78, 0
2, 15104, Note_on_c, 0, 69, 68
2, 15104, Note_on_c, 0, 75, 68
2, 15104, Note_on_c, 0, 61, 70
2, 15168, Note_on_c, 0, 75, 0
2, 15168, Note_on_c, 0, 76, 75
2, 15232, Note_on_c, 0, 76, 0
2, 15232, Note_on_c, 0, 75, 76
2, 15296, Note_on_c, 0, 75, 0
2, 15296, Note_on_c, 0, 76, 79
2, 15360, Note_on_c, 0, 69, 0
2, 15360, Note_on_c, 0, 76, 0
2, 15360, Note_on_c, 0, 61, 0
2, 15360, Note_on_c, 0, 81, 83
2, 15424, Note_on_c, 0, 81, 0
2, 15424, Note_on_c, 0, 79, 75
2, 15488, Note_on_c, 0, 79, 0
2, 15488, Note_on_c, 0, 77, 73
2, 15488, Note_on_c, 0, 62, 69
2, 15488, Note_on_c, 0, 69, 69
2, 15552, Note_on_c, 0, 77, 0
2, 15552, Note_on_c, 0, 78, 78
2, 15616, Note_on_c, 0, 78, 0
2, 15616, Note_on_c, 0, 77, 72
2, 15680, Note_on_c, 0, 77, 0
2, 15680, Note_on_c, 0, 78, 78
2, 15744, Note_on_c, 0, 78, 0
2, 15744, Note_on_c, 0, 83, 83
2, 15744, Note_on_c, 0, 62, 0
2, 15744, Note_on_c, 0, 69, 0
2, 15808, Note_on_c, 0, 83, 0
2, 15808, Note_on_c, 0, 81, 75
2, 15872, Note_on_c, 0, 81, 0
2, 15872, Note_on_c, 0, 81, 74
2, 15872, Note_on_c, 0, 64, 67
2, 15872, Note_on_c, 0, 69, 67
2, 15936, Note_on_c, 0, 81, 0
2, 15936, Note_on_c, 0, 79, 74
2, 16000, Note_on_c, 0, 79, 0
2, 16000, Note_on_c, 0, 78, 73
2, 16000, Note_on_c, 0, 64, 0
2, 16000, Note_on_c, 0, 66, 75
2, 16064, Note_on_c, 0, 78, 0
2, 16064, Note_on_c, 0, 76, 71
2, 16128, Note_on_c, 0, 76, 0
2, 16128, Note_on_c, 0, 66, 0
2, 16128, Note_on_c, 0, 67, 67
2, 16128, Note_on_c, 0, 74, 67
2, 16192, Note_on_c, 0, 74, 0
2, 16192, Note_on_c, 0, 73, 74
2, 16256, Note_on_c, 0, 67, 0
2, 16256, Note_on_c, 0, 73, 0
2, 16256, Note_on_c, 0, 66, 75
2, 16256, Note_on_c, 0, 69, 75
2, 16256, Note_on_c, 0, 73, 75
2, 16256, Note_on_c, 0, 69, 0
2, 16320, Note_on_c, 0, 73, 0
2, 16320, Note_on_c, 0, 74, 77
2, 16384, Note_on_c, 0, 74, 0
2, 16384, Note_on_c, 0, 73, 75
2, 16448, Note_on_c, 0, 66, 0
2, 16448, Note_on_c, 0, 69, 0
2, 16448, Note_on_c, 0, 73, 0
2, 16448, Note_on_c, 0, 74, 81
2, 16512, Note_on_c, 0, 74, 0
2, 16512, Note_on_c, 0, 79, 85
2, 16576, Note_on_c, 0, 79, 0
2, 16576, Note_on_c, 0, 78, 73
2, 16640, Note_on_c, 0, 78, 0
2, 16640, Note_on_c, 0, 69, 68
2, 16640, Note_on_c, 0, 75, 68
2, 16640, Note_on_c, 0, 61, 70
2, 16704, Note_on_c, 0, 75, 0
2, 16704, Note_on_c, 0, 76, 81
2, 16768, Note_on_c, 0, 76, 0
2, 16768, Note_on_c, 0, 75, 72
2, 16832, Note_on_c, 0, 75, 0
2, 16832, Note_on_c, 0, 76, 77
2, 16896, Note_on_c, 0, 69, 0
2, 16896, Note_on_c, 0, 76, 0
2, 16896, Note_on_c, 0, 61, 0
2, 16896, Note_on_c, 0, 81, 84
2, 16960, Note_on_c, 0, 81, 0
2, 16960, Note_on_c, 0, 79, 72
2, 17024, Note_on_c, 0, 79, 0
2, 17024, Note_on_c, 0, 77, 71
2, 17024, Note_on_c, 0, 62, 66
2, 17024, Note_on_c, 0, 69, 66
2, 17088, Note_on_c, 0, 77, 0
2, 17088, Note_on_c, 0, 78, 84
2, 17152, Note_on_c, 0, 78, 0
2, 17152, Note_on_c, 0, 77, 74
2, 17216, Note_on_c, 0, 77, 0
2, 17216, Note_on_c, 0, 78, 81
2, 17280, Note_on_c, 0, 78, 0
2, 17280, Note_on_c, 0, 83, 83
2, 17280, Note_on_c, 0, 62, 0
2, 17280, Note_on_c, 0, 69, 0
2, 17344, Note_on_c, 0, 83, 0
2, 17344, Note_on_c, 0, 81, 70
2, 17408, Note_on_c, 0, 81, 0
2, 17408, Note_on_c, 0, 81, 78
2, 17408, Note_on_c, 0, 64, 66
2, 17408, Note_on_c, 0, 69, 66
2, 17472, Note_on_c, 0, 81, 0
2, 17472, Note_on_c, 0, 79, 72
2, 17536, Note_on_c, 0, 79, 0
2, 17536, Note_on_c, 0, 78, 70
2, 17536, Note_on_c, 0, 64, 0
2, 17536, Note_on_c, 0, 66, 74
2, 17600, Note_on_c, 0, 78, 0
2, 17600, Note_on_c, 0, 76, 72
2, 17664, Note_on_c, 0, 76, 0
2, 17664, Note_on_c, 0, 66, 0
2, 17664, Note_on_c, 0, 67, 73
2, 17664, Note_on_c, 0, 74, 73
2, 17728, Note_on_c, 0, 74, 0
2, 17728, Note_on_c, 0, 73, 77
2, 17792, Note_on_c, 0, 67, 0
2, 17792, Note_on_c, 0, 73, 0
2, 17792, Note_on_c, 0, 66, 68
2, 17792, Note_on_c, 0, 69, 68
2, 17792, Note_on_c, 0, 69, 0
2, 17856, Note_on_c, 0, 74, 84
2, 17920, Note_on_c, 0, 74, 0
2, 17920, Note_on_c, 0, 78, 81
2, 17984, Note_on_c, 0, 66, 0
2, 17984, Note_on_c, 0, 69, 0
2, 17984, Note_on_c, 0, 78, 0
2, 17984, Note_on_c, 0, 81, 85
2, 18048, Note_on_c, 0, 81, 0
2, 18048, Note_on_c, 0, 86, 89
2, 18048, Note_on_c, 0, 64, 67
2, 18048, Note_on_c, 0, 67, 67
2, 18112, Note_on_c, 0, 86, 0
2, 18112, Note_on_c, 0, 85, 69
2, 18176, Note_on_c, 0, 85, 0
2, 18176, Note_on_c, 0, 64, 0
2, 18176, Note_on_c, 0, 67, 0
2, 18176, Note_on_c, 0, 62, 71
2, 18176, Note_on_c, 0, 66, 71
2, 18240, Note_on_c, 0, 71, 69
2, 18304, Note_on_c, 0, 71, 0
2, 18304, Note_on_c, 0, 74, 87
2, 18368, Note_on_c, 0, 74, 0
2, 18368, Note_on_c, 0, 78, 83
2, 18432, Note_on_c, 0, 78, 0
2, 18432, Note_on_c, 0, 62, 0
2, 18432, Note_on_c, 0, 66, 0
2, 18432, Note_on_c, 0, 83, 91
2, 18432, Note_on_c, 0, 61, 66
2, 18432, Note_on_c, 0, 64, 66
2, 18496, Note_on_c, 0, 83, 0
2, 18496, Note_on_c, 0, 81, 72
2, 18560, Note_on_c, 0, 81, 0
2, 18560, Note_on_c, 0, 61, 0
2, 18560, Note_on_c, 0, 64, 0
2, 18560, Note_on_c, 0, 59, 65
2, 18560, Note_on_c, 0, 62, 65
2, 18624, Note_on_c, 0, 67, 68
2, 18688, Note_on_c, 0, 67, 0
2, 18688, Note_on_c, 0, 71, 85
2, 18752, Note_on_c, 0, 71, 0
2, 18752, Note_on_c, 0, 74, 82
2, 18816, Note_on_c, 0, 74, 0
2, 18816, Note_on_c, 0, 79, 90
2, 18816, Note_on_c, 0, 59, 0
2, 18816, Note_on_c, 0, 62, 0
2, 18816, Note_on_c, 0, 57, 76
2, 18816, Note_on_c, 0, 61, 76
2, 18880, Note_on_c, 0, 79, 0
2, 18880, Note_on_c, 0, 78, 75
2, 18944, Note_on_c, 0, 78, 0
2, 18944, Note_on_c, 0, 57, 0
2, 18944, Note_on_c, 0, 61, 0
2, 18944, Note_on_c, 0, 55, 73
2, 18944, Note_on_c, 0, 59, 73
2, 19008, Note_on_c, 0, 64, 68
2, 19072, Note_on_c, 0, 64, 0
2, 19072, Note_on_c, 0, 67, 79
2, 19136, Note_on_c, 0, 67, 0
2, 19136, Note_on_c, 0, 71, 82
2, 19200, Note_on_c, 0, 71, 0
2, 19200, Note_on_c, 0, 55, 0
2, 19200, Note_on_c, 0, 59, 0
2, 19200, Note_on_c, 0, 76, 88
2, 19200, Note_on_c, 0, 56, 75
2, 19200, Note_on_c, 0, 59, 75
2, 19264, Note_on_c, 0, 76, 0
2, 19264, Note_on_c, 0, 74, 71
2, 19328, Note_on_c, 0, 74, 0
2, 19328, Note_on_c, 0, 73, 76
2, 19328, Note_on_c, 0, 56, 0
2, 19328, Note_on_c, 0, 59, 0
2, 19328, Note_on_c, 0, 57, 72
2, 19392, Note_on_c, 0, 73, 0
2, 19392, Note_on_c, 0, 64, 60
2, 19392, Note_on_c, 0, 57, 0
2, 19456, Note_on_c, 0, 64, 0
2, 19456, Note_on_c, 0, 81, 90
2, 19456, Note_on_c, 0, 61, 66
2, 19520, Note_on_c, 0, 81, 0
2, 19520, Note_on_c, 0, 61, 0
2, 19520, Note_on_c, 0, 64, 78
2, 19584, Note_on_c, 0, 74, 67
2, 19584, Note_on_c, 0, 78, 67
2, 19584, Note_on_c, 0, 64, 0
2, 19584, Note_on_c, 0, 62, 75
2, 19648, Note_on_c, 0, 74, 0
2, 19648, Note_on_c, 0, 78, 0
2, 19648, Note_on_c, 0, 62, 0
2, 19648, Note_on_c, 0, 66, 89
2, 19712, Note_on_c, 0, 73, 67
2, 19712, Note_on_c, 0, 76, 67
2, 19712, Note_on_c, 0, 66, 0
2, 19712, Note_on_c, 0, 57, 67
2, 19776, Note_on_c, 0, 73, 0
2, 19776, Note_on_c, 0, 76, 0
2, 19776, Note_on_c, 0, 64, 51
2, 19776, Note_on_c, 0, 57, 0
2, 19840, Note_on_c, 0, 64, 0
2, 19840, Note_on_c, 0, 81, 95
2, 19840, Note_on_c, 0, 61, 68
2, 19904, Note_on_c, 0, 81, 0
2, 19904, Note_on_c, 0, 61, 0
2, 19904, Note_on_c, 0, 64, 82
2, 19968, Note_on_c, 0, 64, 0
2, 19968, Note_on_c, 0, 74, 63
2, 19968, Note_on_c, 0, 78, 63
2, 19968, Note_on_c, 0, 62, 67
2, 20032, Note_on_c, 0, 74, 0
2, 20032, Note_on_c, 0, 78, 0
2, 20032, Note_on_c, 0, 62, 0
2, 20032, Note_on_c, 0, 66, 84
2, 20096, Note_on_c, 0, 73, 69
2, 20096, Note_on_c, 0, 76, 69
2, 20096, Note_on_c, 0, 66, 0
2, 20096, Note_on_c, 0, 57, 75
2, 20096, Note_on_c, 0, 61, 75
2, 20096, Note_on_c, 0, 64, 75
2, 20224, Note_on_c, 0, 73, 0
2, 20224, Note_on_c, 0, 76, 0
2, 20224, Note_on_c, 0, 81, 83
2, 20224, Note_on_c, 0, 57, 0
2, 20224, Note_on_c, 0, 61, 0
2, 20224, Note_on_c, 0, 64, 0
2, 20352, Note_on_c, 0, 81, 0
2, 20352, Note_on_c, 0, 57, 52
2, 20352, Note_on_c, 0, 69, 52
2, 20352, Note_on_c, 0, 45, 70
2, 20480, Note_on_c, 0, 57, 0
2, 20480, Note_on_c, 0, 69, 0
2, 20480, Note_on_c, 0, 57, 72
2, 20480, Note_on_c, 0, 69, 72
2, 20480, Note_on_c, 0, 45, 0
2, 20480, Note_on_c, 0, 45, 72
2, 20607, Note_on_c, 0, 57, 0
2, 20607, Note_on_c, 0, 69, 0
2, 20607, Note_on_c, 0, 45, 0
2, 20736, Note_on_c, 0, 76, 90
2, 20864, Note_on_c, 0, 76, 0
2, 20864, Note_on_c, 0, 81, 94
2, 20864, Note_on_c, 0, 64, 68
2, 20992, Note_on_c, 0, 81, 0
2, 20992, Note_on_c, 0, 69, 70
2, 20992, Note_on_c, 0, 76, 70
2, 20992, Note_on_c, 0, 64, 0
2, 21120, Note_on_c, 0, 69, 0
2, 21120, Note_on_c, 0, 76, 0
2, 21120, Note_on_c, 0, 81, 90
2, 21120, Note_on_c, 0, 64, 68
2, 21248, Note_on_c, 0, 81, 0
2, 21248, Note_on_c, 0, 85, 83
2, 21248, Note_on_c, 0, 64, 0
2, 21248, Note_on_c, 0, 69, 83
2, 21376, Note_on_c, 0, 85, 0
2, 21376, Note_on_c, 0, 73, 72
2, 21376, Note_on_c, 0, 81, 72
2, 21376, Note_on_c, 0, 69, 0
2, 21504, Note_on_c, 0, 73, 0
2, 21504, Note_on_c, 0, 81, 0
2, 21504, Note_on_c, 0, 85, 86
2, 21504, Note_on_c, 0, 69, 69
2, 21632, Note_on_c, 0, 85, 0
2, 21632, Note_on_c, 0, 88, 80
2, 21632, Note_on_c, 0, 69, 0
2, 21632, Note_on_c, 0, 73, 82
2, 21696, Note_on_c, 0, 88, 0
2, 21696, Note_on_c, 0, 86, 73
2, 21760, Note_on_c, 0, 86, 0
2, 21760, Note_on_c, 0, 85, 70
2, 21760, Note_on_c, 0, 73, 0
2, 21760, Note_on_c, 0, 76, 86
2, 21824, Note_on_c, 0, 85, 0
2, 21824, Note_on_c, 0, 74, 70
2, 21824, Note_on_c, 0, 83, 70
2, 21824, Note_on_c, 0, 76, 0
2, 21888, Note_on_c, 0, 74, 0
2, 21888, Note_on_c, 0, 83, 0
2, 21888, Note_on_c, 0, 73, 73
2, 21888, Note_on_c, 0, 82, 73
2, 21952, Note_on_c, 0, 73, 0
2, 21952, Note_on_c, 0, 82, 0
2, 21952, Note_on_c, 0, 71, 68
2, 21952, Note_on_c, 0, 80, 68
2, 22016, Note_on_c, 0, 71, 0
2, 22016, Note_on_c, 0, 80, 0
2, 22016, Note_on_c, 0, 70, 70
2, 22016, Note_on_c, 0, 78, 70
2, 22080, Note_on_c, 0, 70, 0
2, 22080, Note_on_c, 0, 78, 0
2, 22080, Note_on_c, 0, 68, 66
2, 22080, Note_on_c, 0, 76, 66
2, 22144, Note_on_c, 0, 68, 0
2, 22144, Note_on_c, 0, 76, 0
2, 22144, Note_on_c, 0, 66, 71
2, 22144, Note_on_c, 0, 74, 71
2, 22208, Note_on_c, 0, 66, 0
2, 22208, Note_on_c, 0, 74, 0
2, 22208, Note_on_c, 0, 64, 73
2, 22208, Note_on_c, 0, 73, 73
2, 22272, Note_on_c, 0, 64, 0
2, 22272, Note_on_c, 0, 73, 0
2, 22272, Note_on_c, 0, 62, 69
2, 22272, Note_on_c, 0, 71, 69
2, 22336, Note_on_c, 0, 62, 0
2, 22336, Note_on_c, 0, 71, 0
2, 22336, Note_on_c, 0, 61, 71
2, 22336, Note_on_c, 0, 70, 71
2, 22400, Note_on_c, 0, 61, 0
2, 22400, Note_on_c, 0, 70, 0
2, 22400, Note_on_c, 0, 71, 74
2, 22400, Note_on_c, 0, 59, 69
2, 22464, Note_on_c, 0, 71, 0
2, 22464, Note_on_c, 0, 59, 0
2, 22464, Note_on_c, 0, 58, 73
2, 22528, Note_on_c, 0, 66, 72
2, 22528, Note_on_c, 0, 58, 0
2, 22528, Note_on_c, 0, 59, 78
2, 22656, Note_on_c, 0, 66, 0
2, 22656, Note_on_c, 0, 71, 83
2, 22656, Note_on_c, 0, 59, 0
2, 22656, Note_on_c, 0, 54, 71
2, 22784, Note_on_c, 0, 71, 0
2, 22784, Note_on_c, 0, 74, 81
2, 22784, Note_on_c, 0, 54, 0
2, 22784, Note_on_c, 0, 59, 75
2, 22912, Note_on_c, 0, 74, 0
2, 22912, Note_on_c, 0, 62, 71
2, 22912, Note_on_c, 0, 71, 71
2, 22912, Note_on_c, 0, 59, 0
2, 23040, Note_on_c, 0, 62, 0
2, 23040, Note_on_c, 0, 71, 0
2, 23040, Note_on_c, 0, 74, 82
2, 23040, Note_on_c, 0, 59, 70
2, 23168, Note_on_c, 0, 74, 0
2, 23168, Note_on_c, 0, 78, 83
2, 23168, Note_on_c, 0, 59, 0
2, 23168, Note_on_c, 0, 62, 83
2, 23232, Note_on_c, 0, 78, 0
2, 23232, Note_on_c, 0, 76, 70
2, 23296, Note_on_c, 0, 76, 0
2, 23296, Note_on_c, 0, 66, 68
2, 23296, Note_on_c, 0, 74, 68
2, 23296, Note_on_c, 0, 62, 0
2, 23360, Note_on_c, 0, 66, 0
2, 23360, Note_on_c, 0, 74, 0
2, 23360, Note_on_c, 0, 64, 71
2, 23360, Note_on_c, 0, 73, 71
2, 23424, Note_on_c, 0, 64, 0
2, 23424, Note_on_c, 0, 73, 0
2, 23424, Note_on_c, 0, 62, 69
2, 23424, Note_on_c, 0, 71, 69
2, 23488, Note_on_c, 0, 62, 0
2, 23488, Note_on_c, 0, 71, 0
2, 23488, Note_on_c, 0, 61, 73
2, 23488, Note_on_c, 0, 70, 73
2, 23552, Note_on_c, 0, 61, 0
2, 23552, Note_on_c, 0, 70, 0
2, 23552, Note_on_c, 0, 74, 82
2, 23552, Note_on_c, 0, 59, 66
2, 23616, Note_on_c, 0, 74, 0
2, 23616, Note_on_c, 0, 73, 71
2, 23616, Note_on_c, 0, 59, 0
2, 23616, Note_on_c, 0, 58, 75
2, 23680, Note_on_c, 0, 73, 0
2, 23680, Note_on_c, 0, 71, 71
2, 23680, Note_on_c, 0, 58, 0
2, 23680, Note_on_c, 0, 62, 84
2, 23744, Note_on_c, 0, 71, 0
2, 23744, Note_on_c, 0, 61, 67
2, 23744, Note_on_c, 0, 69, 67
2, 23744, Note_on_c, 0, 62, 0
2, 23808, Note_on_c, 0, 61, 0
2, 23808, Note_on_c, 0, 69, 0
2, 23808, Note_on_c, 0, 68, 75
2, 23808, Note_on_c, 0, 59, 70
2, 23872, Note_on_c, 0, 68, 0
2, 23872, Note_on_c, 0, 66, 74
2, 23872, Note_on_c, 0, 59, 0
2, 23872, Note_on_c, 0, 57, 74
2, 23936, Note_on_c, 0, 66, 0
2, 23936, Note_on_c, 0, 64, 68
2, 23936, Note_on_c, 0, 57, 0
2, 23936, Note_on_c, 0, 56, 75
2, 24000, Note_on_c, 0, 64, 0
2, 24000, Note_on_c, 0, 56, 0
2, 24000, Note_on_c, 0, 54, 72
2, 24064, Note_on_c, 0, 54, 0
2, 24064, Note_on_c, 0, 52, 82
2, 24064, Note_on_c, 0, 59, 82
2, 24192, Note_on_c, 0, 64, 68
2, 24192, Note_on_c, 0, 52, 0
2, 24192, Note_on_c, 0, 59, 0
2, 24192, Note_on_c, 0, 47, 71
2, 24320, Note_on_c, 0, 64, 0
2, 24320, Note_on_c, 0, 68, 81
2, 24320, Note_on_c, 0, 47, 0
2, 24320, Note_on_c, 0, 52, 77
2, 24448, Note_on_c, 0, 68, 0
2, 24448, Note_on_c, 0, 64, 70
2, 24448, Note_on_c, 0, 52, 0
2, 24448, Note_on_c, 0, 56, 82
2, 24576, Note_on_c, 0, 64, 0
2, 24576, Note_on_c, 0, 56, 0
2, 24576, Note_on_c, 0, 68, 86
2, 24576, Note_on_c, 0, 52, 73
2, 24704, Note_on_c, 0, 68, 0
2, 24704, Note_on_c, 0, 71, 85
2, 24704, Note_on_c, 0, 52, 0
2, 24704, Note_on_c, 0, 56, 79
2, 24768, Note_on_c, 0, 71, 0
2, 24768, Note_on_c, 0, 73, 83
2, 24832, Note_on_c, 0, 73, 0
2, 24832, Note_on_c, 0, 74, 78
2, 24832, Note_on_c, 0, 56, 0
2, 24832, Note_on_c, 0, 59, 81
2, 24896, Note_on_c, 0, 74, 0
2, 24896, Note_on_c, 0, 73, 72
2, 24896, Note_on_c, 0, 59, 0
2, 24896, Note_on_c, 0, 61, 82
2, 24960, Note_on_c, 0, 73, 0
2, 24960, Note_on_c, 0, 62, 74
2, 24960, Note_on_c, 0, 71, 74
2, 24960, Note_on_c, 0, 61, 0
2, 25024, Note_on_c, 0, 62, 0
2, 25024, Note_on_c, 0, 71, 0
2, 25024, Note_on_c, 0, 61, 70
2, 25024, Note_on_c, 0, 69, 70
2, 25088, Note_on_c, 0, 61, 0
2, 25088, Note_on_c, 0, 69, 0
2, 25088, Note_on_c, 0, 68, 72
2, 25088, Note_on_c, 0, 59, 66
2, 25152, Note_on_c, 0, 68, 0
2, 25152, Note_on_c, 0, 66, 74
2, 25152, Note_on_c, 0, 59, 0
2, 25152, Note_on_c, 0, 57, 73
2, 25216, Note_on_c, 0, 66, 0
2, 25216, Note_on_c, 0, 64, 71
2, 25216, Note_on_c, 0, 57, 0
2, 25216, Note_on_c, 0, 56, 72
2, 25280, Note_on_c, 0, 64, 0
2, 25280, Note_on_c, 0, 66, 81
2, 25280, Note_on_c, 0, 56, 0
2, 25280, Note_on_c, 0, 54, 75
2, 25344, Note_on_c, 0, 66, 0
2, 25344, Note_on_c, 0, 54, 0
2, 25344, Note_on_c, 0, 62, 66
2, 25344, Note_on_c, 0, 56, 80
2, 25408, Note_on_c, 0, 62, 0
2, 25408, Note_on_c, 0, 64, 81
2, 25408, Note_on_c, 0, 56, 0
2, 25408, Note_on_c, 0, 52, 74
2, 25472, Note_on_c, 0, 64, 0
2, 25472, Note_on_c, 0, 61, 69
2, 25472, Note_on_c, 0, 52, 0
2, 25472, Note_on_c, 0, 57, 80
2, 25536, Note_on_c, 0, 61, 0
2, 25536, Note_on_c, 0, 64, 80
2, 25600, Note_on_c, 0, 64, 0
2, 25600, Note_on_c, 0, 63, 73
2, 25664, Note_on_c, 0, 63, 0
2, 25664, Note_on_c, 0, 64, 80
2, 25664, Note_on_c, 0, 57, 0
2, 25728, Note_on_c, 0, 64, 0
2, 25728, Note_on_c, 0, 66, 84
2, 25792, Note_on_c, 0, 66, 0
2, 25792, Note_on_c, 0, 64, 73
2, 25856, Note_on_c, 0, 64, 0
2, 25856, Note_on_c, 0, 61, 86
2, 25856, Note_on_c, 0, 69, 86
2, 25856, Note_on_c, 0, 57, 68
2, 25920, Note_on_c, 0, 69, 0
2, 25920, Note_on_c, 0, 64, 70
2, 25984, Note_on_c, 0, 64, 0
2, 25984, Note_on_c, 0, 63, 73
2, 26048, Note_on_c, 0, 63, 0
2, 26048, Note_on_c, 0, 64, 79
2, 26112, Note_on_c, 0, 61, 0
2, 26112, Note_on_c, 0, 64, 0
2, 26112, Note_on_c, 0, 57, 0
2, 26112, Note_on_c, 0, 66, 82
2, 26176, Note_on_c, 0, 66, 0
2, 26176, Note_on_c, 0, 64, 71
2, 26240, Note_on_c, 0, 64, 0
2, 26240, Note_on_c, 0, 56, 68
2, 26240, Note_on_c, 0, 59, 68
2, 26304, Note_on_c, 0, 64, 68
2, 26304, Note_on_c, 0, 59, 0
2, 26368, Note_on_c, 0, 64, 0
2, 26368, Note_on_c, 0, 63, 69
2, 26432, Note_on_c, 0, 63, 0
2, 26432, Note_on_c, 0, 64, 78
2, 26496, Note_on_c, 0, 64, 0
2, 26496, Note_on_c, 0, 61, 65
2, 26496, Note_on_c, 0, 56, 0
2, 26496, Note_on_c, 0, 57, 76
2, 26560, Note_on_c, 0, 61, 0
2, 26560, Note_on_c, 0, 64, 80
2, 26624, Note_on_c, 0, 64, 0
2, 26624, Note_on_c, 0, 62, 71
2, 26624, Note_on_c, 0, 57, 0
2, 26624, Note_on_c, 0, 59, 77
2, 26688, Note_on_c, 0, 62, 0
2, 26688, Note_on_c, 0, 64, 80
2, 26752, Note_on_c, 0, 64, 0
2, 26752, Note_on_c, 0, 61, 73
2, 26752, Note_on_c, 0, 59, 0
2, 26752, Note_on_c, 0, 57, 73
2, 26816, Note_on_c, 0, 61, 0
2, 26816, Note_on_c, 0, 64, 82
2, 26880, Note_on_c, 0, 64, 0
2, 26880, Note_on_c, 0, 57, 0
2, 26880, Note_on_c, 0, 56, 79
2, 26880, Note_on_c, 0, 59, 79
2, 26944, Note_on_c, 0, 64, 68
2, 26944, Note_on_c, 0, 59, 0
2, 27008, Note_on_c, 0, 64, 0
2, 27008, Note_on_c, 0, 61, 66
2, 27008, Note_on_c, 0, 56, 0
2, 27008, Note_on_c, 0, 57, 80
2, 27072, Note_on_c, 0, 61, 0
2, 27072, Note_on_c, 0, 64, 80
2, 27136, Note_on_c, 0, 64, 0
2, 27136, Note_on_c, 0, 63, 67
2, 27200, Note_on_c, 0, 63, 0
2, 27200, Note_on_c, 0, 64, 78
2, 27264, Note_on_c, 0, 64, 0
2, 27264, Note_on_c, 0, 66, 83
2, 27264, Note_on_c, 0, 57, 0
2, 27328, Note_on_c, 0, 66, 0
2, 27328, Note_on_c, 0, 64, 71
2, 27392, Note_on_c, 0, 64, 0
2, 27392, Note_on_c, 0, 61, 82
2, 27392, Note_on_c, 0, 69, 82
2, 27392, Note_on_c, 0, 57, 70
2, 27456, Note_on_c, 0, 69, 0
2, 27456, Note_on_c, 0, 64, 68
2, 27520, Note_on_c, 0, 64, 0
2, 27520, Note_on_c, 0, 63, 74
2, 27584, Note_on_c, 0, 63, 0
2, 27584, Note_on_c, 0, 64, 75
2, 27648, Note_on_c, 0, 61, 0
2, 27648, Note_on_c, 0, 64, 0
2, 27648, Note_on_c, 0, 57, 0
2, 27648, Note_on_c, 0, 66, 80
2, 27712, Note_on_c, 0, 66, 0
2, 27712, Note_on_c, 0, 64, 70
2, 27776, Note_on_c, 0, 64, 0
2, 27776, Note_on_c, 0, 56, 68
2, 27776, Note_on_c, 0, 59, 68
2, 27840, Note_on_c, 0, 64, 67
2, 27840, Note_on_c, 0, 59, 0
2, 27904, Note_on_c, 0, 64, 0
2, 27904, Note_on_c, 0, 63, 75
2, 27968, Note_on_c, 0, 63, 0
2, 27968, Note_on_c, 0, 64, 80
2, 28032, Note_on_c, 0, 64, 0
2, 28032, Note_on_c, 0, 61, 69
2, 28032, Note_on_c, 0, 56, 0
2, 28032, Note_on_c, 0, 57, 76
2, 28096, Note_on_c, 0, 61, 0
2, 28096, Note_on_c, 0, 64, 84
2, 28160, Note_on_c, 0, 64, 0
2, 28160, Note_on_c, 0, 62, 72
2, 28160, Note_on_c, 0, 57, 0
2, 28160, Note_on_c, 0, 59, 78
2, 28224, Note_on_c, 0, 62, 0
2, 28224, Note_on_c, 0, 64, 77
2, 28288, Note_on_c, 0, 64, 0
2, 28288, Note_on_c, 0, 61, 66
2, 28288, Note_on_c, 0, 59, 0
2, 28288, Note_on_c, 0, 57, 75
2, 28352, Note_on_c, 0, 61, 0
2, 28352, Note_on_c, 0, 64, 83
2, 28416, Note_on_c, 0, 64, 0
2, 28416, Note_on_c, 0, 57, 0
2, 28416, Note_on_c, 0, 56, 81
2, 28416, Note_on_c, 0, 59, 81
2, 28480, Note_on_c, 0, 64, 69
2, 28480, Note_on_c, 0, 59, 0
2, 28544, Note_on_c, 0, 64, 0
2, 28544, Note_on_c, 0, 56, 0
2, 28544, Note_on_c, 0, 57, 79
2, 28608, Note_on_c, 0, 61, 65
2, 28672, Note_on_c, 0, 61, 0
2, 28672, Note_on_c, 0, 64, 80
2, 28736, Note_on_c, 0, 64, 0
2, 28736, Note_on_c, 0, 69, 89
2, 28800, Note_on_c, 0, 69, 0
2, 28800, Note_on_c, 0, 73, 88
2, 28800, Note_on_c, 0, 57, 0
2, 28864, Note_on_c, 0, 73, 0
2, 28864, Note_on_c, 0, 76, 86
2, 28928, Note_on_c, 0, 76, 0
2, 28928, Note_on_c, 0, 81, 86
2, 28928, Note_on_c, 0, 57, 67
2, 28928, Note_on_c, 0, 61, 67
2, 28992, Note_on_c, 0, 81, 0
2, 28992, Note_on_c, 0, 80, 75
2, 29056, Note_on_c, 0, 80, 0
2, 29056, Note_on_c, 0, 78, 74
2, 29056, Note_on_c, 0, 57, 0
2, 29056, Note_on_c, 0, 61, 0
2, 29056, Note_on_c, 0, 59, 76
2, 29056, Note_on_c, 0, 62, 76
2, 29120, Note_on_c, 0, 78, 0
2, 29120, Note_on_c, 0, 76, 65
2, 29184, Note_on_c, 0, 76, 0
2, 29184, Note_on_c, 0, 59, 0
2, 29184, Note_on_c, 0, 62, 0
2, 29184, Note_on_c, 0, 74, 71
2, 29184, Note_on_c, 0, 61, 81
2, 29184, Note_on_c, 0, 64, 81
2, 29248, Note_on_c, 0, 74, 0
2, 29248, Note_on_c, 0, 73, 72
2, 29312, Note_on_c, 0, 73, 0
2, 29312, Note_on_c, 0, 62, 61
2, 29312, Note_on_c, 0, 66, 61
2, 29312, Note_on_c, 0, 61, 0
2, 29312, Note_on_c, 0, 64, 0
2, 29376, Note_on_c, 0, 70, 88
2, 29440, Note_on_c, 0, 70, 0
2, 29440, Note_on_c, 0, 71, 79
2, 29504, Note_on_c, 0, 71, 0
2, 29504, Note_on_c, 0, 73, 79
2, 29568, Note_on_c, 0, 62, 0
2, 29568, Note_on_c, 0, 66, 0
2, 29568, Note_on_c, 0, 73, 0
2, 29568, Note_on_c, 0, 74, 80
2, 29632, Note_on_c, 0, 74, 0
2, 29632, Note_on_c, 0, 76, 79
2, 29696, Note_on_c, 0, 76, 0
2, 29696, Note_on_c, 0, 78, 76
2, 29696, Note_on_c, 0, 59, 69
2, 29696, Note_on_c, 0, 62, 69
2, 29760, Note_on_c, 0, 78, 0
2, 29760, Note_on_c, 0, 76, 74
2, 29824, Note_on_c, 0, 76, 0
2, 29824, Note_on_c, 0, 74, 73
2, 29824, Note_on_c, 0, 59, 0
2, 29824, Note_on_c, 0, 62, 0
2, 29824, Note_on_c, 0, 61, 84
2, 29824, Note_on_c, 0, 64, 84
2, 29888, Note_on_c, 0, 74, 0
2, 29888, Note_on_c, 0, 73, 71
2, 29952, Note_on_c, 0, 73, 0
2, 29952, Note_on_c, 0, 61, 0
2, 29952, Note_on_c, 0, 64, 0
2, 29952, Note_on_c, 0, 62, 65
2, 29952, Note_on_c, 0, 66, 65
2, 29952, Note_on_c, 0, 71, 65
2, 30016, Note_on_c, 0, 71, 0
2, 30016, Note_on_c, 0, 69, 67
2, 30080, Note_on_c, 0, 62, 0
2, 30080, Note_on_c, 0, 66, 0
2, 30080, Note_on_c, 0, 69, 0
2, 30080, Note_on_c, 0, 64, 65
2, 30080, Note_on_c, 0, 52, 74
2, 30144, Note_on_c, 0, 64, 0
2, 30144, Note_on_c, 0, 73, 90
2, 30208, Note_on_c, 0, 73, 0
2, 30208, Note_on_c, 0, 61, 70
2, 30208, Note_on_c, 0, 69, 70
2, 30208, Note_on_c, 0, 57, 81
2, 30272, Note_on_c, 0, 69, 0
2, 30272, Note_on_c, 0, 76, 87
2, 30336, Note_on_c, 0, 61, 0
2, 30336, Note_on_c, 0, 76, 0
2, 30336, Note_on_c, 0, 73, 74
2, 30336, Note_on_c, 0, 57, 0
2, 30336, Note_on_c, 0, 57, 84
2, 30336, Note_on_c, 0, 61, 84
2, 30400, Note_on_c, 0, 73, 0
2, 30400, Note_on_c, 0, 81, 93
2, 30464, Note_on_c, 0, 81, 0
2, 30464, Note_on_c, 0, 52, 0
2, 30464, Note_on_c, 0, 57, 0
2, 30464, Note_on_c, 0, 61, 0
2, 30464, Note_on_c, 0, 52, 70
2, 30528, Note_on_c, 0, 71, 74
2, 30592, Note_on_c, 0, 71, 0
2, 30592, Note_on_c, 0, 62, 75
2, 30592, Note_on_c, 0, 72, 75
2, 30592, Note_on_c, 0, 56, 73
2, 30634, Note_on_c, 0, 72, 0
2, 30634, Note_on_c, 0, 71, 74
2, 30677, Note_on_c, 0, 71, 0
2, 30677, Note_on_c, 0, 72, 77
2, 30720, Note_on_c, 0, 62, 0
2, 30720, Note_on_c, 0, 72, 0
2, 30720, Note_on_c, 0, 56, 0
2, 30720, Note_on_c, 0, 62, 73
2, 30720, Note_on_c, 0, 71, 73
2, 30720, Note_on_c, 0, 56, 75
2, 30762, Note_on_c, 0, 71, 0
2, 30762, Note_on_c, 0, 69, 79
2, 30762, Note_on_c, 0, 72, 79
2, 30805, Note_on_c, 0, 69, 0
2, 30805, Note_on_c, 0, 72, 0
2, 30805, Note_on_c, 0, 71, 71
2, 30848, Note_on_c, 0, 62, 0
2, 30848, Note_on_c, 0, 71, 0
2, 30848, Note_on_c, 0, 61, 76
2, 30848, Note_on_c, 0, 69, 76
2, 30848, Note_on_c, 0, 71, 76
2, 30848, Note_on_c, 0, 52, 0
2, 30848, Note_on_c, 0, 56, 0
2, 30848, Note_on_c, 0, 57, 78
2, 30879, Note_on_c, 0, 71, 0
2, 30976, Note_on_c, 0, 61, 0
2, 30976, Note_on_c, 0, 69, 0
2, 30976, Note_on_c, 0, 57, 0
2, 30976, Note_on_c, 0, 45, 67
2, 31104, Note_on_c, 0, 45, 0
2, 31104, Note_on_c, 0, 45, 81
2, 31104, Note_on_c, 0, 57, 81
2, 31232, Note_on_c, 0, 45, 0
2, 31232, Note_on_c, 0, 57, 0
2, 31232, Note_on_c, 0, 45, 74
2, 31232, Note_on_c, 0, 57, 74
2, 31359, Note_on_c, 0, 45, 0
2, 31359, Note_on_c, 0, 57, 0
2, 31488, Note_on_c, 0, 73, 67
2, 31616, Note_on_c, 0, 73, 0
2, 31616, Note_on_c, 0, 74, 80
2, 31872, Note_on_c, 0, 74, 0
2, 31872, Note_on_c, 0, 76, 80
2, 32000, Note_on_c, 0, 76, 0
2, 32000, Note_on_c, 0, 78, 84
2, 32128, Note_on_c, 0, 78, 0
2, 32128, Note_on_c, 0, 76, 70
2, 32192, Note_on_c, 0, 76, 0
2, 32192, Note_on_c, 0, 74, 70
2, 32256, Note_on_c, 0, 74, 0
2, 32256, Note_on_c, 0, 73, 73
2, 32320, Note_on_c, 0, 73, 0
2, 32320, Note_on_c, 0, 71, 69
2, 32384, Note_on_c, 0, 71, 0
2, 32384, Note_on_c, 0, 62, 71
2, 32384, Note_on_c, 0, 69, 71
2, 32384, Note_on_c, 0, 52, 69
2, 32384, Note_on_c, 0, 59, 69
2, 32768, Note_on_c, 0, 69, 0
2, 32768, Note_on_c, 0, 68, 70
2, 33024, Note_on_c, 0, 62, 0
2, 33024, Note_on_c, 0, 68, 0
2, 33024, Note_on_c, 0, 52, 0
2, 33024, Note_on_c, 0, 59, 0
2, 33024, Note_on_c, 0, 66, 74
2, 33024, Note_on_c, 0, 50, 80
2, 33024, Note_on_c, 0, 56, 80
2, 33152, Note_on_c, 0, 66, 0
2, 33152, Note_on_c, 0, 66, 74
2, 33152, Note_on_c, 0, 50, 0
2, 33152, Note_on_c, 0, 56, 0
2, 33152, Note_on_c, 0, 49, 76
2, 33152, Note_on_c, 0, 57, 76
2, 33280, Note_on_c, 0, 66, 0
2, 33280, Note_on_c, 0, 64, 70
2, 33408, Note_on_c, 0, 64, 0
2, 33408, Note_on_c, 0, 64, 74
2, 33408, Note_on_c, 0, 49, 0
2, 33408, Note_on_c, 0, 57, 0
2, 33471, Note_on_c, 0, 64, 0
2, 33536, Note_on_c, 0, 64, 74
2, 33664, Note_on_c, 0, 64, 0
2, 33664, Note_on_c, 0, 69, 89
2, 33664, Note_on_c, 0, 49, 69
2, 33792, Note_on_c, 0, 69, 0
2, 33792, Note_on_c, 0, 49, 0
2, 33792, Note_on_c, 0, 69, 82
2, 33792, Note_on_c, 0, 73, 82
2, 33792, Note_on_c, 0, 45, 71
2, 33920, Note_on_c, 0, 69, 0
2, 33920, Note_on_c, 0, 73, 0
2, 33920, Note_on_c, 0, 69, 79
2, 33920, Note_on_c, 0, 73, 79
2, 33920, Note_on_c, 0, 45, 0
2, 33920, Note_on_c, 0, 52, 81
2, 34176, Note_on_c, 0, 73, 0
2, 34176, Note_on_c, 0, 74, 76
2, 34304, Note_on_c, 0, 69, 0
2, 34304, Note_on_c, 0, 74, 0
2, 34304, Note_on_c, 0, 68, 70
2, 34304, Note_on_c, 0, 71, 70
2, 34431, Note_on_c, 0, 68, 0
2, 34431, Note_on_c, 0, 71, 0
2, 34560, Note_on_c, 0, 52, 0
2, 34560, Note_on_c, 0, 73, 81
2, 34688, Note_on_c, 0, 73, 0
2, 34688, Note_on_c, 0, 74, 80
2, 34816, Note_on_c, 0, 74, 0
2, 34816, Note_on_c, 0, 74, 79
2, 34880, Note_on_c, 0, 74, 0
2, 34880, Note_on_c, 0, 73, 69
2, 34944, Note_on_c, 0, 73, 0
2, 34944, Note_on_c, 0, 76, 82
2, 35008, Note_on_c, 0, 76, 0
2, 35008, Note_on_c, 0, 74, 74
2, 35072, Note_on_c, 0, 74, 0
2, 35072, Note_on_c, 0, 78, 83
2, 35136, Note_on_c, 0, 78, 0
2, 35136, Note_on_c, 0, 76, 74
2, 35200, Note_on_c, 0, 76, 0
2, 35200, Note_on_c, 0, 74, 69
2, 35264, Note_on_c, 0, 74, 0
2, 35264, Note_on_c, 0, 73, 78
2, 35328, Note_on_c, 0, 73, 0
2, 35328, Note_on_c, 0, 74, 79
2, 35392, Note_on_c, 0, 74, 0
2, 35392, Note_on_c, 0, 71, 67
2, 35456, Note_on_c, 0, 71, 0
2, 35456, Note_on_c, 0, 62, 70
2, 35456, Note_on_c, 0, 69, 70
2, 35456, Note_on_c, 0, 52, 70
2, 35456, Note_on_c, 0, 59, 70
2, 35520, Note_on_c, 0, 69, 0
2, 35520, Note_on_c, 0, 68, 75
2, 35584, Note_on_c, 0, 68, 0
2, 35584, Note_on_c, 0, 71, 77
2, 35648, Note_on_c, 0, 71, 0
2, 35648, Note_on_c, 0, 69, 71
2, 35712, Note_on_c, 0, 69, 0
2, 35712, Note_on_c, 0, 73, 87
2, 35776, Note_on_c, 0, 73, 0
2, 35776, Note_on_c, 0, 71, 73
2, 35840, Note_on_c, 0, 71, 0
2, 35840, Note_on_c, 0, 74, 78
2, 35904, Note_on_c, 0, 74, 0
2, 35904, Note_on_c, 0, 73, 74
2, 35968, Note_on_c, 0, 73, 0
2, 35968, Note_on_c, 0, 76, 81
2, 36032, Note_on_c, 0, 76, 0
2, 36032, Note_on_c, 0, 74, 69
2, 36096, Note_on_c, 0, 62, 0
2, 36096, Note_on_c, 0, 74, 0
2, 36096, Note_on_c, 0, 52, 0
2, 36096, Note_on_c, 0, 59, 0
2, 36096, Note_on_c, 0, 78, 82
2, 36096, Note_on_c, 0, 62, 97
2, 36096, Note_on_c, 0, 68, 97
2, 36160, Note_on_c, 0, 78, 0
2, 36160, Note_on_c, 0, 76, 68
2, 36224, Note_on_c, 0, 76, 0
2, 36224, Note_on_c, 0, 69, 74
2, 36224, Note_on_c, 0, 76, 74
2, 36224, Note_on_c, 0, 62, 0
2, 36224, Note_on_c, 0, 68, 0
2, 36224, Note_on_c, 0, 61, 66
2, 36288, Note_on_c, 0, 76, 0
2, 36288, Note_on_c, 0, 81, 86
2, 36352, Note_on_c, 0, 69, 0
2, 36352, Note_on_c, 0, 81, 0
2, 36352, Note_on_c, 0, 80, 71
2, 36352, Note_on_c, 0, 61, 0
2, 36416, Note_on_c, 0, 80, 0
2, 36416, Note_on_c, 0, 79, 68
2, 36480, Note_on_c, 0, 79, 0
2, 36480, Note_on_c, 0, 78, 72
2, 36480, Note_on_c, 0, 62, 65
2, 36480, Note_on_c, 0, 69, 65
2, 36544, Note_on_c, 0, 78, 0
2, 36544, Note_on_c, 0, 77, 69
2, 36608, Note_on_c, 0, 77, 0
2, 36608, Note_on_c, 0, 69, 73
2, 36608, Note_on_c, 0, 76, 73
2, 36608, Note_on_c, 0, 62, 0
2, 36608, Note_on_c, 0, 69, 0
2, 36608, Note_on_c, 0, 61, 59
2, 36672, Note_on_c, 0, 76, 0
2, 36672, Note_on_c, 0, 81, 88
2, 36736, Note_on_c, 0, 69, 0
2, 36736, Note_on_c, 0, 81, 0
2, 36736, Note_on_c, 0, 80, 72
2, 36736, Note_on_c, 0, 61, 0
2, 36800, Note_on_c, 0, 80, 0
2, 36800, Note_on_c, 0, 79, 73
2, 36864, Note_on_c, 0, 79, 0
2, 36864, Note_on_c, 0, 78, 70
2, 36864, Note_on_c, 0, 62, 70
2, 36864, Note_on_c, 0, 69, 70
2, 36928, Note_on_c, 0, 78, 0
2, 36928, Note_on_c, 0, 77, 73
2, 36992, Note_on_c, 0, 77, 0
2, 36992, Note_on_c, 0, 69, 71
2, 36992, Note_on_c, 0, 76, 71
2, 36992, Note_on_c, 0, 62, 0
2, 36992, Note_on_c, 0, 69, 0
2, 36992, Note_on_c, 0, 61, 57
2, 37376, Note_on_c, 0, 69, 0
2, 37376, Note_on_c, 0, 76, 0
2, 37376, Note_on_c, 0, 71, 79
2, 37376, Note_on_c, 0, 77, 79
2, 37376, Note_on_c, 0, 68, 85
2, 37760, Note_on_c, 0, 71, 0
2, 37760, Note_on_c, 0, 77, 0
2, 37760, Note_on_c, 0, 78, 86
2, 37760, Note_on_c, 0, 68, 0
2, 37760, Note_on_c, 0, 62, 79
2, 37760, Note_on_c, 0, 66, 79
2, 37760, Note_on_c, 0, 69, 79
2, 38016, Note_on_c, 0, 78, 0
2, 38016, Note_on_c, 0, 78, 78
2, 38016, Note_on_c, 0, 62, 0
2, 38016, Note_on_c, 0, 66, 0
2, 38016, Note_on_c, 0, 69, 0
2, 38080, Note_on_c, 0, 78, 0
2, 38080, Note_on_c, 0, 80, 76
2, 38144, Note_on_c, 0, 80, 0
2, 38144, Note_on_c, 0, 81, 79
2, 38208, Note_on_c, 0, 81, 0
2, 38208, Note_on_c, 0, 77, 64
2, 38272, Note_on_c, 0, 77, 0
2, 38272, Note_on_c, 0, 78, 77
2, 38336, Note_on_c, 0, 78, 0
2, 38336, Note_on_c, 0, 73, 65
2, 38400, Note_on_c, 0, 73, 0
2, 38400, Note_on_c, 0, 74, 75
2, 38464, Note_on_c, 0, 74, 0
2, 38464, Note_on_c, 0, 71, 65
2, 38528, Note_on_c, 0, 71, 0
2, 38528, Note_on_c, 0, 69, 73
2, 38784, Note_on_c, 0, 61, 75
2, 38784, Note_on_c, 0, 61, 0
2, 38784, Note_on_c, 0, 52, 67
2, 38912, Note_on_c, 0, 61, 0
2, 38912, Note_on_c, 0, 62, 78
2, 38912, Note_on_c, 0, 52, 0
2, 38912, Note_on_c, 0, 53, 73
2, 39168, Note_on_c, 0, 62, 0
2, 39168, Note_on_c, 0, 53, 0
2, 39168, Note_on_c, 0, 63, 73
2, 39168, Note_on_c, 0, 54, 79
2, 39296, Note_on_c, 0, 63, 0
2, 39296, Note_on_c, 0, 69, 0
2, 39296, Note_on_c, 0, 64, 84
2, 39296, Note_on_c, 0, 69, 84
2, 39296, Note_on_c, 0, 73, 84
2, 39296, Note_on_c, 0, 54, 0
2, 39296, Note_on_c, 0, 52, 73
2, 39680, Note_on_c, 0, 64, 0
2, 39680, Note_on_c, 0, 69, 0
2, 39680, Note_on_c, 0, 73, 0
2, 39680, Note_on_c, 0, 62, 81
2, 39680, Note_on_c, 0, 68, 81
2, 39680, Note_on_c, 0, 71, 81
2, 39680, Note_on_c, 0, 73, 81
2, 39744, Note_on_c, 0, 73, 0
2, 39775, Note_on_c, 0, 71, 0
2, 39808, Note_on_c, 0, 69, 77
2, 39920, Note_on_c, 0, 62, 0
2, 39920, Note_on_c, 0, 68, 0
2, 39920, Note_on_c, 0, 69, 0
2, 39936, Note_on_c, 0, 71, 75
2, 39999, Note_on_c, 0, 71, 0
2, 40064, Note_on_c, 0, 69, 71
2, 40064, Note_on_c, 0, 52, 0
2, 40064, Note_on_c, 0, 57, 82
2, 40192, Note_on_c, 0, 69, 0
2, 40192, Note_on_c, 0, 61, 60
2, 40192, Note_on_c, 0, 57, 0
2, 40320, Note_on_c, 0, 61, 0
2, 40320, Note_on_c, 0, 64, 95
2, 40320, Note_on_c, 0, 75, 95
2, 40384, Note_on_c, 0, 75, 0
2, 40384, Note_on_c, 0, 76, 82
2, 40448, Note_on_c, 0, 64, 0
2, 40448, Note_on_c, 0, 76, 0
2, 40448, Note_on_c, 0, 78, 78
2, 40448, Note_on_c, 0, 57, 69
2, 40512, Note_on_c, 0, 78, 0
2, 40512, Note_on_c, 0, 76, 75
2, 40576, Note_on_c, 0, 76, 0
2, 40576, Note_on_c, 0, 74, 68
2, 40576, Note_on_c, 0, 57, 0
2, 40576, Note_on_c, 0, 61, 79
2, 40640, Note_on_c, 0, 74, 0
2, 40640, Note_on_c, 0, 73, 72
2, 40704, Note_on_c, 0, 73, 0
2, 40704, Note_on_c, 0, 61, 0
2, 40704, Note_on_c, 0, 64, 68
2, 40704, Note_on_c, 0, 71, 68
2, 40768, Note_on_c, 0, 71, 0
2, 40768, Note_on_c, 0, 69, 69
2, 40832, Note_on_c, 0, 64, 0
2, 40832, Note_on_c, 0, 69, 0
2, 40832, Note_on_c, 0, 68, 71
2, 40832, Note_on_c, 0, 52, 65
2, 40896, Note_on_c, 0, 68, 0
2, 40896, Note_on_c, 0, 69, 79
2, 40960, Note_on_c, 0, 69, 0
2, 40960, Note_on_c, 0, 71, 78
2, 40960, Note_on_c, 0, 52, 0
2, 40960, Note_on_c, 0, 56, 79
2, 41024, Note_on_c, 0, 71, 0
2, 41024, Note_on_c, 0, 73, 82
2, 41088, Note_on_c, 0, 73, 0
2, 41088, Note_on_c, 0, 74, 75
2, 41088, Note_on_c, 0, 56, 0
2, 41088, Note_on_c, 0, 59, 77
2, 41152, Note_on_c, 0, 74, 0
2, 41152, Note_on_c, 0, 76, 82
2, 41216, Note_on_c, 0, 76, 0
2, 41216, Note_on_c, 0, 78, 82
2, 41216, Note_on_c, 0, 59, 0
2, 41216, Note_on_c, 0, 52, 72
2, 41280, Note_on_c, 0, 78, 0
2, 41280, Note_on_c, 0, 80, 79
2, 41344, Note_on_c, 0, 80, 0
2, 41344, Note_on_c, 0, 81, 78
2, 41344, Note_on_c, 0, 52, 0
2, 41344, Note_on_c, 0, 56, 81
2, 41408, Note_on_c, 0, 81, 0
2, 41408, Note_on_c, 0, 83, 82
2, 41472, Note_on_c, 0, 83, 0
2, 41472, Note_on_c, 0, 56, 0
2, 41472, Note_on_c, 0, 85, 80
2, 41472, Note_on_c, 0, 59, 82
2, 41536, Note_on_c, 0, 85, 0
2, 41536, Note_on_c, 0, 86, 80
2, 41536, Note_on_c, 0, 59, 0
2, 41600, Note_on_c, 0, 86, 0
2, 41600, Note_on_c, 0, 85, 71
2, 41600, Note_on_c, 0, 57, 72
2, 41728, Note_on_c, 0, 85, 0
2, 41728, Note_on_c, 0, 57, 0
2, 41728, Note_on_c, 0, 61, 79
2, 41856, Note_on_c, 0, 64, 63
2, 41856, Note_on_c, 0, 75, 63
2, 41856, Note_on_c, 0, 61, 0
2, 41920, Note_on_c, 0, 75, 0
2, 41920, Note_on_c, 0, 76, 77
2, 41984, Note_on_c, 0, 64, 0
2, 41984, Note_on_c, 0, 76, 0
2, 41984, Note_on_c, 0, 78, 81
2, 41984, Note_on_c, 0, 57, 67
2, 42048, Note_on_c, 0, 78, 0
2, 42048, Note_on_c, 0, 76, 67
2, 42112, Note_on_c, 0, 76, 0
2, 42112, Note_on_c, 0, 74, 68
2, 42112, Note_on_c, 0, 57, 0
2, 42112, Note_on_c, 0, 61, 82
2, 42176, Note_on_c, 0, 74, 0
2, 42176, Note_on_c, 0, 73, 73
2, 42240, Note_on_c, 0, 73, 0
2, 42240, Note_on_c, 0, 61, 0
2, 42240, Note_on_c, 0, 64, 69
2, 42240, Note_on_c, 0, 71, 69
2, 42304, Note_on_c, 0, 71, 0
2, 42304, Note_on_c, 0, 69, 73
2, 42368, Note_on_c, 0, 64, 0
2, 42368, Note_on_c, 0, 69, 0
2, 42368, Note_on_c, 0, 68, 68
2, 42368, Note_on_c, 0, 52, 70
2, 42432, Note_on_c, 0, 68, 0
2, 42432, Note_on_c, 0, 66, 68
2, 42496, Note_on_c, 0, 66, 0
2, 42496, Note_on_c, 0, 64, 67
2, 42496, Note_on_c, 0, 52, 0
2, 42496, Note_on_c, 0, 59, 80
2, 42560, Note_on_c, 0, 64, 0
2, 42560, Note_on_c, 0, 66, 85
2, 42624, Note_on_c, 0, 66, 0
2, 42624, Note_on_c, 0, 62, 85
2, 42624, Note_on_c, 0, 68, 85
2, 42624, Note_on_c, 0, 59, 0
2, 42688, Note_on_c, 0, 68, 0
2, 42688, Note_on_c, 0, 69, 76
2, 42752, Note_on_c, 0, 62, 0
2, 42752, Note_on_c, 0, 69, 0
2, 42752, Note_on_c, 0, 71, 84
2, 42752, Note_on_c, 0, 52, 65
2, 42816, Note_on_c, 0, 71, 0
2, 42816, Note_on_c, 0, 73, 82
2, 42880, Note_on_c, 0, 73, 0
2, 42880, Note_on_c, 0, 74, 79
2, 42880, Note_on_c, 0, 52, 0
2, 42880, Note_on_c, 0, 59, 78
2, 42944, Note_on_c, 0, 74, 0
2, 42944, Note_on_c, 0, 76, 84
2, 43008, Note_on_c, 0, 76, 0
2, 43008, Note_on_c, 0, 59, 0
2, 43008, Note_on_c, 0, 78, 86
2, 43008, Note_on_c, 0, 62, 78
2, 43072, Note_on_c, 0, 78, 0
2, 43072, Note_on_c, 0, 80, 79
2, 43072, Note_on_c, 0, 62, 0
2, 43136, Note_on_c, 0, 80, 0
2, 43136, Note_on_c, 0, 81, 76
2, 43136, Note_on_c, 0, 57, 68
2, 43136, Note_on_c, 0, 61, 68
2, 43264, Note_on_c, 0, 81, 0
2, 43264, Note_on_c, 0, 76, 67
2, 43392, Note_on_c, 0, 76, 0
2, 43392, Note_on_c, 0, 85, 86
2, 43392, Note_on_c, 0, 61, 0
2, 43392, Note_on_c, 0, 64, 86
2, 43520, Note_on_c, 0, 85, 0
2, 43520, Note_on_c, 0, 81, 70
2, 43520, Note_on_c, 0, 57, 0
2, 43520, Note_on_c, 0, 64, 0
2, 43520, Note_on_c, 0, 57, 70
2, 43520, Note_on_c, 0, 61, 70
2, 43648, Note_on_c, 0, 81, 0
2, 43648, Note_on_c, 0, 76, 66
2, 43776, Note_on_c, 0, 76, 0
2, 43776, Note_on_c, 0, 61, 0
2, 43776, Note_on_c, 0, 85, 92
2, 43776, Note_on_c, 0, 64, 82
2, 43904, Note_on_c, 0, 85, 0
2, 43904, Note_on_c, 0, 81, 66
2, 43904, Note_on_c, 0, 57, 0
2, 43904, Note_on_c, 0, 64, 0
2, 43904, Note_on_c, 0, 57, 74
2, 43904, Note_on_c, 0, 61, 74
2, 44096, Note_on_c, 0, 81, 0
2, 44096, Note_on_c, 0, 57, 0
2, 44096, Note_on_c, 0, 61, 0
2, 44672, Note_on_c, 0, 45, 78
2, 44672, Note_on_c, 0, 57, 78
2, 44800, Note_on_c, 0, 62, 66
2, 44800, Note_on_c, 0, 45, 0
2, 44800, Note_on_c, 0, 57, 0
2, 44800, Note_on_c, 0, 50, 71
2, 44928, Note_on_c, 0, 62, 0
2, 44928, Note_on_c, 0, 50, 0
2, 44928, Note_on_c, 0, 45, 79
2, 44928, Note_on_c, 0, 57, 79
2, 45056, Note_on_c, 0, 62, 66
2, 45056, Note_on_c, 0, 45, 0
2, 45056, Note_on_c, 0, 57, 0
2, 45056, Note_on_c, 0, 50, 67
2, 45184, Note_on_c, 0, 62, 0
2, 45184, Note_on_c, 0, 66, 88
2, 45184, Note_on_c, 0, 50, 0
2, 45184, Note_on_c, 0, 54, 81
2, 45312, Note_on_c, 0, 66, 0
2, 45312, Note_on_c, 0, 54, 0
2, 45312, Note_on_c, 0, 62, 75
2, 45312, Note_on_c, 0, 50, 73
2, 45440, Note_on_c, 0, 62, 0
2, 45440, Note_on_c, 0, 66, 83
2, 45440, Note_on_c, 0, 50, 0
2, 45440, Note_on_c, 0, 54, 79
2, 45568, Note_on_c, 0, 66, 0
2, 45568, Note_on_c, 0, 69, 86
2, 45568, Note_on_c, 0, 54, 0
2, 45568, Note_on_c, 0, 57, 84
2, 45824, Note_on_c, 0, 69, 0
2, 45824, Note_on_c, 0, 69, 73
2, 45824, Note_on_c, 0, 57, 0
2, 45824, Note_on_c, 0, 57, 75
2, 45952, Note_on_c, 0, 69, 0
2, 45952, Note_on_c, 0, 69, 75
2, 45952, Note_on_c, 0, 57, 0
2, 45952, Note_on_c, 0, 57, 76
2, 46208, Note_on_c, 0, 69, 0
2, 46208, Note_on_c, 0, 67, 92
2, 46208, Note_on_c, 0, 73, 92
2, 46208, Note_on_c, 0, 74, 92
2, 46208, Note_on_c, 0, 57, 0
2, 46250, Note_on_c, 0, 73, 0
2, 46250, Note_on_c, 0, 74, 0
2, 46250, Note_on_c, 0, 73, 75
2, 46293, Note_on_c, 0, 73, 0
2, 46293, Note_on_c, 0, 71, 73
2, 46293, Note_on_c, 0, 73, 73
2, 46336, Note_on_c, 0, 67, 0
2, 46336, Note_on_c, 0, 71, 0
2, 46336, Note_on_c, 0, 73, 0
2, 46336, Note_on_c, 0, 66, 82
2, 46336, Note_on_c, 0, 74, 82
2, 46527, Note_on_c, 0, 66, 0
2, 46527, Note_on_c, 0, 74, 0
2, 46592, Note_on_c, 0, 76, 87
2, 46592, Note_on_c, 0, 78, 87
2, 46592, Note_on_c, 0, 61, 69
2, 46634, Note_on_c, 0, 76, 0
2, 46634, Note_on_c, 0, 78, 0
2, 46634, Note_on_c, 0, 76, 68
2, 46677, Note_on_c, 0, 76, 0
2, 46677, Note_on_c, 0, 74, 76
2, 46677, Note_on_c, 0, 76, 76
2, 46720, Note_on_c, 0, 74, 0
2, 46720, Note_on_c, 0, 76, 0
2, 46720, Note_on_c, 0, 78, 77
2, 46720, Note_on_c, 0, 61, 0
2, 46720, Note_on_c, 0, 62, 82
2, 46848, Note_on_c, 0, 78, 0
2, 46848, Note_on_c, 0, 62, 0
2, 46976, Note_on_c, 0, 81, 66
2, 46976, Note_on_c, 0, 55, 74
2, 46976, Note_on_c, 0, 64, 74
2, 47040, Note_on_c, 0, 81, 0
2, 47040, Note_on_c, 0, 79, 73
2, 47104, Note_on_c, 0, 79, 0
2, 47104, Note_on_c, 0, 78, 68
2, 47104, Note_on_c, 0, 55, 0
2, 47104, Note_on_c, 0, 64, 0
2, 47104, Note_on_c, 0, 57, 73
2, 47104, Note_on_c, 0, 62, 73
2, 47488, Note_on_c, 0, 78, 0
2, 47488, Note_on_c, 0, 76, 73
2, 47488, Note_on_c, 0, 57, 0
2, 47488, Note_on_c, 0, 62, 0
2, 47488, Note_on_c, 0, 61, 74
2, 47616, Note_on_c, 0, 76, 0
2, 47616, Note_on_c, 0, 61, 0
2, 47744, Note_on_c, 0, 47, 67
2, 47744, Note_on_c, 0, 59, 67
2, 47872, Note_on_c, 0, 64, 72
2, 47872, Note_on_c, 0, 47, 0
2, 47872, Note_on_c, 0, 59, 0
2, 47872, Note_on_c, 0, 52, 72
2, 48000, Note_on_c, 0, 64, 0
2, 48000, Note_on_c, 0, 52, 0
2, 48000, Note_on_c, 0, 47, 80
2, 48000, Note_on_c, 0, 59, 80
2, 48128, Note_on_c, 0, 64, 67
2, 48128, Note_on_c, 0, 47, 0
2, 48128, Note_on_c, 0, 59, 0
2, 48128, Note_on_c, 0, 52, 69
2, 48256, Note_on_c, 0, 64, 0
2, 48256, Note_on_c, 0, 67, 78
2, 48256, Note_on_c, 0, 52, 0
2, 48256, Note_on_c, 0, 55, 78
2, 48384, Note_on_c, 0, 67, 0
2, 48384, Note_on_c, 0, 55, 0
2, 48384, Note_on_c, 0, 64, 76
2, 48384, Note_on_c, 0, 52, 72
2, 48512, Note_on_c, 0, 64, 0
2, 48512, Note_on_c, 0, 67, 79
2, 48512, Note_on_c, 0, 52, 0
2, 48512, Note_on_c, 0, 55, 78
2, 48640, Note_on_c, 0, 67, 0
2, 48640, Note_on_c, 0, 71, 81
2, 48640, Note_on_c, 0, 55, 0
2, 48640, Note_on_c, 0, 59, 85
2, 48896, Note_on_c, 0, 71, 0
2, 48896, Note_on_c, 0, 71, 70
2, 48896, Note_on_c, 0, 59, 0
2, 48896, Note_on_c, 0, 59, 79
2, 49024, Note_on_c, 0, 71, 0
2, 49024, Note_on_c, 0, 71, 77
2, 49024, Note_on_c, 0, 59, 0
2, 49024, Note_on_c, 0, 59, 78
2, 49280, Note_on_c, 0, 71, 0
2, 49280, Note_on_c, 0, 66, 81
2, 49280, Note_on_c, 0, 69, 81
2, 49280, Note_on_c, 0, 75, 81
2, 49280, Note_on_c, 0, 59, 0
2, 49408, Note_on_c, 0, 66, 0
2, 49408, Note_on_c, 0, 69, 0
2, 49408, Note_on_c, 0, 75, 0
2, 49408, Note_on_c, 0, 67, 78
2, 49408, Note_on_c, 0, 71, 78
2, 49408, Note_on_c, 0, 78, 78
2, 49472, Note_on_c, 0, 78, 0
2, 49472, Note_on_c, 0, 76, 74
2, 49536, Note_on_c, 0, 76, 0
2, 49536, Note_on_c, 0, 79, 82
2, 49600, Note_on_c, 0, 79, 0
2, 49600, Note_on_c, 0, 78, 73
2, 49664, Note_on_c, 0, 67, 0
2, 49664, Note_on_c, 0, 71, 0
2, 49664, Note_on_c, 0, 78, 0
2, 49664, Note_on_c, 0, 81, 82
2, 49728, Note_on_c, 0, 81, 0
2, 49728, Note_on_c, 0, 79, 68
2, 49792, Note_on_c, 0, 79, 0
2, 49792, Note_on_c, 0, 83, 81
2, 49920, Note_on_c, 0, 83, 0
2, 50048, Note_on_c, 0, 73, 61
2, 50048, Note_on_c, 0, 57, 68
2, 50048, Note_on_c, 0, 64, 68
2, 50176, Note_on_c, 0, 73, 0
2, 50176, Note_on_c, 0, 76, 80
2, 50176, Note_on_c, 0, 57, 0
2, 50176, Note_on_c, 0, 64, 0
2, 50176, Note_on_c, 0, 62, 83
2, 50176, Note_on_c, 0, 67, 83
2, 50560, Note_on_c, 0, 76, 0
2, 50560, Note_on_c, 0, 66, 75
2, 50560, Note_on_c, 0, 74, 75
2, 50560, Note_on_c, 0, 62, 0
2, 50560, Note_on_c, 0, 67, 0
2, 50688, Note_on_c, 0, 66, 0
2, 50688, Note_on_c, 0, 74, 0
2, 50816, Note_on_c, 0, 45, 65
2, 50944, Note_on_c, 0, 45, 0
2, 50944, Note_on_c, 0, 50, 77
2, 51072, Note_on_c, 0, 74, 71
2, 51072, Note_on_c, 0, 50, 0
2, 51072, Note_on_c, 0, 45, 67
2, 51200, Note_on_c, 0, 74, 0
2, 51200, Note_on_c, 0, 78, 82
2, 51200, Note_on_c, 0, 45, 0
2, 51200, Note_on_c, 0, 50, 77
2, 51328, Note_on_c, 0, 78, 0
2, 51328, Note_on_c, 0, 81, 87
2, 51328, Note_on_c, 0, 50, 0
2, 51328, Note_on_c, 0, 54, 84
2, 51456, Note_on_c, 0, 81, 0
2, 51456, Note_on_c, 0, 54, 0
2, 51456, Note_on_c, 0, 78, 67
2, 51456, Note_on_c, 0, 50, 70
2, 51584, Note_on_c, 0, 78, 0
2, 51584, Note_on_c, 0, 86, 99
2, 51584, Note_on_c, 0, 50, 0
2, 51584, Note_on_c, 0, 54, 92
2, 51696, Note_on_c, 0, 86, 0
2, 51696, Note_on_c, 0, 54, 0
2, 51712, Note_on_c, 0, 57, 77
2, 51776, Note_on_c, 0, 85, 69
2, 51840, Note_on_c, 0, 85, 0
2, 51840, Note_on_c, 0, 88, 82
2, 51904, Note_on_c, 0, 88, 0
2, 51904, Note_on_c, 0, 86, 70
2, 51968, Note_on_c, 0, 86, 0
2, 51968, Note_on_c, 0, 85, 75
2, 51968, Note_on_c, 0, 57, 0
2, 51968, Note_on_c, 0, 57, 71
2, 52032, Note_on_c, 0, 85, 0
2, 52032, Note_on_c, 0, 83, 70
2, 52096, Note_on_c, 0, 83, 0
2, 52096, Note_on_c, 0, 81, 70
2, 52096, Note_on_c, 0, 57, 0
2, 52096, Note_on_c, 0, 57, 75
2, 52160, Note_on_c, 0, 81, 0
2, 52160, Note_on_c, 0, 83, 79
2, 52224, Note_on_c, 0, 83, 0
2, 52224, Note_on_c, 0, 81, 70
2, 52288, Note_on_c, 0, 81, 0
2, 52288, Note_on_c, 0, 79, 70
2, 52352, Note_on_c, 0, 79, 0
2, 52352, Note_on_c, 0, 78, 72
2, 52352, Note_on_c, 0, 57, 0
2, 52352, Note_on_c, 0, 61, 80
2, 52416, Note_on_c, 0, 78, 0
2, 52416, Note_on_c, 0, 76, 69
2, 52480, Note_on_c, 0, 76, 0
2, 52480, Note_on_c, 0, 78, 78
2, 52480, Note_on_c, 0, 61, 0
2, 52480, Note_on_c, 0, 62, 81
2, 52544, Note_on_c, 0, 78, 0
2, 52544, Note_on_c, 0, 81, 82
2, 52544, Note_on_c, 0, 62, 0
2, 52608, Note_on_c, 0, 81, 0
2, 52608, Note_on_c, 0, 78, 73
2, 52672, Note_on_c, 0, 78, 0
2, 52672, Note_on_c, 0, 74, 69
2, 52736, Note_on_c, 0, 74, 0
2, 52736, Note_on_c, 0, 64, 75
2, 52736, Note_on_c, 0, 73, 75
2, 52800, Note_on_c, 0, 73, 0
2, 52800, Note_on_c, 0, 69, 67
2, 52864, Note_on_c, 0, 64, 0
2, 52864, Note_on_c, 0, 69, 0
2, 52864, Note_on_c, 0, 66, 85
2, 52864, Note_on_c, 0, 74, 85
2, 52928, Note_on_c, 0, 66, 0
2, 52928, Note_on_c, 0, 74, 0
2, 52928, Note_on_c, 0, 73, 74
2, 52992, Note_on_c, 0, 73, 0
2, 52992, Note_on_c, 0, 74, 75
2, 53056, Note_on_c, 0, 74, 0
2, 53056, Note_on_c, 0, 78, 81
2, 53120, Note_on_c, 0, 78, 0
2, 53120, Note_on_c, 0, 67, 71
2, 53120, Note_on_c, 0, 76, 71
2, 53184, Note_on_c, 0, 76, 0
2, 53184, Note_on_c, 0, 79, 81
2, 53248, Note_on_c, 0, 67, 0
2, 53248, Note_on_c, 0, 79, 0
2, 53248, Note_on_c, 0, 66, 69
2, 53248, Note_on_c, 0, 74, 69
2, 53248, Note_on_c, 0, 57, 69
2, 53601, Note_on_c, 0, 57, 0
2, 53632, Note_on_c, 0, 66, 0
2, 53632, Note_on_c, 0, 74, 0
2, 53632, Note_on_c, 0, 73, 76
2, 53632, Note_on_c, 0, 64, 94
2, 53760, Note_on_c, 0, 73, 0
2, 53760, Note_on_c, 0, 64, 0
2, 53888, Note_on_c, 0, 47, 67
2, 54016, Note_on_c, 0, 47, 0
2, 54016, Note_on_c, 0, 52, 76
2, 54144, Note_on_c, 0, 76, 68
2, 54144, Note_on_c, 0, 52, 0
2, 54144, Note_on_c, 0, 47, 69
2, 54272, Note_on_c, 0, 76, 0
2, 54272, Note_on_c, 0, 79, 81
2, 54272, Note_on_c, 0, 47, 0
2, 54272, Note_on_c, 0, 52, 82
2, 54400, Note_on_c, 0, 79, 0
2, 54400, Note_on_c, 0, 83, 86
2, 54400, Note_on_c, 0, 52, 0
2, 54400, Note_on_c, 0, 55, 84
2, 54528, Note_on_c, 0, 83, 0
2, 54528, Note_on_c, 0, 55, 0
2, 54528, Note_on_c, 0, 79, 64
2, 54528, Note_on_c, 0, 52, 73
2, 54656, Note_on_c, 0, 79, 0
2, 54656, Note_on_c, 0, 88, 102
2, 54656, Note_on_c, 0, 52, 0
2, 54656, Note_on_c, 0, 55, 92
2, 54768, Note_on_c, 0, 88, 0
2, 54768, Note_on_c, 0, 55, 0
2, 54784, Note_on_c, 0, 59, 83
2, 54848, Note_on_c, 0, 87, 67
2, 54912, Note_on_c, 0, 87, 0
2, 54912, Note_on_c, 0, 84, 64
2, 54976, Note_on_c, 0, 84, 0
2, 54976, Note_on_c, 0, 83, 72
2, 55040, Note_on_c, 0, 83, 0
2, 55040, Note_on_c, 0, 81, 67
2, 55040, Note_on_c, 0, 59, 0
2, 55040, Note_on_c, 0, 59, 73
2, 55104, Note_on_c, 0, 81, 0
2, 55104, Note_on_c, 0, 79, 73
2, 55168, Note_on_c, 0, 79, 0
2, 55168, Note_on_c, 0, 78, 74
2, 55168, Note_on_c, 0, 59, 0
2, 55168, Note_on_c, 0, 59, 77
2, 55232, Note_on_c, 0, 78, 0
2, 55232, Note_on_c, 0, 76, 73
2, 55296, Note_on_c, 0, 76, 0
2, 55296, Note_on_c, 0, 75, 71
2, 55360, Note_on_c, 0, 75, 0
2, 55360, Note_on_c, 0, 72, 67
2, 55424, Note_on_c, 0, 72, 0
2, 55424, Note_on_c, 0, 63, 69
2, 55424, Note_on_c, 0, 71, 69
2, 55424, Note_on_c, 0, 59, 0
2, 55488, Note_on_c, 0, 71, 0
2, 55488, Note_on_c, 0, 69, 70
2, 55552, Note_on_c, 0, 63, 0
2, 55552, Note_on_c, 0, 69, 0
2, 55552, Note_on_c, 0, 64, 70
2, 55552, Note_on_c, 0, 67, 70
2, 55616, Note_on_c, 0, 67, 0
2, 55616, Note_on_c, 0, 71, 82
2, 55680, Note_on_c, 0, 71, 0
2, 55680, Note_on_c, 0, 76, 87
2, 55744, Note_on_c, 0, 64, 0
2, 55744, Note_on_c, 0, 76, 0
2, 55744, Note_on_c, 0, 71, 67
2, 55808, Note_on_c, 0, 71, 0
2, 55808, Note_on_c, 0, 79, 88
2, 55872, Note_on_c, 0, 79, 0
2, 55872, Note_on_c, 0, 76, 75
2, 55936, Note_on_c, 0, 76, 0
2, 55936, Note_on_c, 0, 83, 88
2, 56064, Note_on_c, 0, 83, 0
2, 56064, Note_on_c, 0, 71, 60
2, 56192, Note_on_c, 0, 71, 0
2, 56192, Note_on_c, 0, 67, 74
2, 56192, Note_on_c, 0, 73, 74
2, 56192, Note_on_c, 0, 57, 66
2, 56320, Note_on_c, 0, 67, 0
2, 56320, Note_on_c, 0, 73, 0
2, 56320, Note_on_c, 0, 62, 82
2, 56320, Note_on_c, 0, 74, 82
2, 56320, Note_on_c, 0, 57, 0
2, 56448, Note_on_c, 0, 62, 0
2, 56448, Note_on_c, 0, 66, 77
2, 56576, Note_on_c, 0, 66, 0
2, 56576, Note_on_c, 0, 74, 0
2, 56576, Note_on_c, 0, 69, 60
2, 56704, Note_on_c, 0, 69, 0
2, 56704, Note_on_c, 0, 62, 63
2, 56832, Note_on_c, 0, 62, 0
2, 56832, Note_on_c, 0, 86, 94
2, 56832, Note_on_c, 0, 66, 65
2, 56896, Note_on_c, 0, 86, 0
2, 56896, Note_on_c, 0, 85, 73
2, 56960, Note_on_c, 0, 85, 0
2, 56960, Note_on_c, 0, 83, 72
2, 56960, Note_on_c, 0, 66, 0
2, 56960, Note_on_c, 0, 69, 83
2, 57024, Note_on_c, 0, 83, 0
2, 57024, Note_on_c, 0, 81, 67
2, 57088, Note_on_c, 0, 81, 0
2, 57088, Note_on_c, 0, 80, 71
2, 57088, Note_on_c, 0, 69, 0
2, 57088, Note_on_c, 0, 61, 62
2, 57152, Note_on_c, 0, 80, 0
2, 57152, Note_on_c, 0, 81, 76
2, 57216, Note_on_c, 0, 81, 0
2, 57216, Note_on_c, 0, 80, 73
2, 57216, Note_on_c, 0, 61, 0
2, 57216, Note_on_c, 0, 64, 82
2, 57280, Note_on_c, 0, 80, 0
2, 57280, Note_on_c, 0, 81, 82
2, 57344, Note_on_c, 0, 81, 0
2, 57344, Note_on_c, 0, 83, 79
2, 57344, Note_on_c, 0, 64, 0
2, 57344, Note_on_c, 0, 69, 82
2, 57408, Note_on_c, 0, 83, 0
2, 57408, Note_on_c, 0, 81, 69
2, 57472, Note_on_c, 0, 81, 0
2, 57472, Note_on_c, 0, 69, 0
2, 57472, Note_on_c, 0, 64, 64
2, 57600, Note_on_c, 0, 64, 0
2, 57600, Note_on_c, 0, 81, 69
2, 57600, Note_on_c, 0, 67, 80
2, 57664, Note_on_c, 0, 81, 0
2, 57664, Note_on_c, 0, 79, 70
2, 57728, Note_on_c, 0, 79, 0
2, 57728, Note_on_c, 0, 69, 74
2, 57728, Note_on_c, 0, 78, 74
2, 57728, Note_on_c, 0, 67, 0
2, 57792, Note_on_c, 0, 78, 0
2, 57792, Note_on_c, 0, 76, 75
2, 57856, Note_on_c, 0, 69, 0
2, 57856, Note_on_c, 0, 76, 0
2, 57856, Note_on_c, 0, 62, 70
2, 57856, Note_on_c, 0, 73, 70
2, 57920, Note_on_c, 0, 73, 0
2, 57920, Note_on_c, 0, 74, 80
2, 57984, Note_on_c, 0, 62, 0
2, 57984, Note_on_c, 0, 74, 0
2, 57984, Note_on_c, 0, 66, 75
2, 57984, Note_on_c, 0, 73, 75
2, 58048, Note_on_c, 0, 73, 0
2, 58048, Note_on_c, 0, 74, 75
2, 58112, Note_on_c, 0, 66, 0
2, 58112, Note_on_c, 0, 74, 0
2, 58112, Note_on_c, 0, 69, 83
2, 58112, Note_on_c, 0, 76, 83
2, 58176, Note_on_c, 0, 76, 0
2, 58176, Note_on_c, 0, 74, 67
2, 58240, Note_on_c, 0, 69, 0
2, 58240, Note_on_c, 0, 74, 0
2, 58240, Note_on_c, 0, 62, 54
2, 58368, Note_on_c, 0, 62, 0
2, 58368, Note_on_c, 0, 86, 94
2, 58368, Note_on_c, 0, 66, 70
2, 58432, Note_on_c, 0, 86, 0
2, 58432, Note_on_c, 0, 85, 77
2, 58496, Note_on_c, 0, 85, 0
2, 58496, Note_on_c, 0, 83, 72
2, 58496, Note_on_c, 0, 66, 0
2, 58496, Note_on_c, 0, 69, 79
2, 58560, Note_on_c, 0, 83, 0
2, 58560, Note_on_c, 0, 81, 69
2, 58624, Note_on_c, 0, 81, 0
2, 58624, Note_on_c, 0, 80, 72
2, 58624, Note_on_c, 0, 69, 0
2, 58624, Note_on_c, 0, 61, 61
2, 58688, Note_on_c, 0, 80, 0
2, 58688, Note_on_c, 0, 81, 81
2, 58752, Note_on_c, 0, 81, 0
2, 58752, Note_on_c, 0, 80, 73
2, 58752, Note_on_c, 0, 61, 0
2, 58752, Note_on_c, 0, 64, 80
2, 58816, Note_on_c, 0, 80, 0
2, 58816, Note_on_c, 0, 81, 78
2, 58880, Note_on_c, 0, 81, 0
2, 58880, Note_on_c, 0, 83, 77
2, 58880, Note_on_c, 0, 64, 0
2, 58880, Note_on_c, 0, 69, 90
2, 58944, Note_on_c, 0, 83, 0
2, 58944, Note_on_c, 0, 81, 72
2, 59008, Note_on_c, 0, 81, 0
2, 59008, Note_on_c, 0, 69, 0
2, 59008, Note_on_c, 0, 64, 69
2, 59136, Note_on_c, 0, 64, 0
2, 59136, Note_on_c, 0, 81, 69
2, 59136, Note_on_c, 0, 67, 82
2, 59200, Note_on_c, 0, 81, 0
2, 59200, Note_on_c, 0, 79, 67
2, 59264, Note_on_c, 0, 79, 0
2, 59264, Note_on_c, 0, 69, 68
2, 59264, Note_on_c, 0, 78, 68
2, 59264, Note_on_c, 0, 67, 0
2, 59328, Note_on_c, 0, 78, 0
2, 59328, Note_on_c, 0, 76, 70
2, 59392, Note_on_c, 0, 69, 0
2, 59392, Note_on_c, 0, 76, 0
2, 59392, Note_on_c, 0, 66, 65
2, 59392, Note_on_c, 0, 69, 65
2, 59392, Note_on_c, 0, 73, 65
2, 59456, Note_on_c, 0, 73, 0
2, 59456, Note_on_c, 0, 74, 78
2, 59520, Note_on_c, 0, 74, 0
2, 59520, Note_on_c, 0, 73, 72
2, 59584, Note_on_c, 0, 73, 0
2, 59584, Note_on_c, 0, 74, 80
2, 59648, Note_on_c, 0, 66, 0
2, 59648, Note_on_c, 0, 69, 0
2, 59648, Note_on_c, 0, 74, 0
2, 59648, Note_on_c, 0, 79, 89
2, 59712, Note_on_c, 0, 79, 0
2, 59712, Note_on_c, 0, 78, 70
2, 59776, Note_on_c, 0, 78, 0
2, 59776, Note_on_c, 0, 69, 67
2, 59776, Note_on_c, 0, 75, 67
2, 59776, Note_on_c, 0, 61, 69
2, 59840, Note_on_c, 0, 75, 0
2, 59840, Note_on_c, 0, 76, 77
2, 59904, Note_on_c, 0, 76, 0
2, 59904, Note_on_c, 0, 75, 73
2, 59968, Note_on_c, 0, 75, 0
2, 59968, Note_on_c, 0, 76, 77
2, 60032, Note_on_c, 0, 69, 0
2, 60032, Note_on_c, 0, 76, 0
2, 60032, Note_on_c, 0, 81, 81
2, 60032, Note_on_c, 0, 61, 0
2, 60096, Note_on_c, 0, 81, 0
2, 60096, Note_on_c, 0, 79, 68
2, 60160, Note_on_c, 0, 79, 0
2, 60160, Note_on_c, 0, 77, 69
2, 60160, Note_on_c, 0, 62, 66
2, 60160, Note_on_c, 0, 69, 66
2, 60224, Note_on_c, 0, 77, 0
2, 60224, Note_on_c, 0, 78, 84
2, 60288, Note_on_c, 0, 78, 0
2, 60288, Note_on_c, 0, 77, 68
2, 60352, Note_on_c, 0, 77, 0
2, 60352, Note_on_c, 0, 78, 82
2, 60416, Note_on_c, 0, 78, 0
2, 60416, Note_on_c, 0, 83, 86
2, 60416, Note_on_c, 0, 62, 0
2, 60416, Note_on_c, 0, 69, 0
2, 60480, Note_on_c, 0, 83, 0
2, 60480, Note_on_c, 0, 81, 69
2, 60544, Note_on_c, 0, 81, 0
2, 60544, Note_on_c, 0, 81, 79
2, 60544, Note_on_c, 0, 64, 69
2, 60544, Note_on_c, 0, 69, 69
2, 60608, Note_on_c, 0, 81, 0
2, 60608, Note_on_c, 0, 79, 71
2, 60672, Note_on_c, 0, 79, 0
2, 60672, Note_on_c, 0, 64, 0
2, 60672, Note_on_c, 0, 78, 69
2, 60672, Note_on_c, 0, 66, 75
2, 60736, Note_on_c, 0, 78, 0
2, 60736, Note_on_c, 0, 76, 66
2, 60800, Note_on_c, 0, 76, 0
2, 60800, Note_on_c, 0, 67, 71
2, 60800, Note_on_c, 0, 74, 71
2, 60800, Note_on_c, 0, 66, 0
2, 60864, Note_on_c, 0, 74, 0
2, 60864, Note_on_c, 0, 73, 70
2, 60928, Note_on_c, 0, 67, 0
2, 60928, Note_on_c, 0, 73, 0
2, 60928, Note_on_c, 0, 66, 74
2, 60928, Note_on_c, 0, 69, 74
2, 60928, Note_on_c, 0, 73, 74
2, 60928, Note_on_c, 0, 69, 0
2, 60992, Note_on_c, 0, 73, 0
2, 60992, Note_on_c, 0, 74, 80
2, 61056, Note_on_c, 0, 74, 0
2, 61056, Note_on_c, 0, 73, 74
2, 61120, Note_on_c, 0, 66, 0
2, 61120, Note_on_c, 0, 69, 0
2, 61120, Note_on_c, 0, 73, 0
2, 61120, Note_on_c, 0, 74, 74
2, 61184, Note_on_c, 0, 74, 0
2, 61184, Note_on_c, 0, 79, 88
2, 61248, Note_on_c, 0, 79, 0
2, 61248, Note_on_c, 0, 78, 75
2, 61312, Note_on_c, 0, 78, 0
2, 61312, Note_on_c, 0, 69, 67
2, 61312, Note_on_c, 0, 75, 67
2, 61312, Note_on_c, 0, 61, 64
2, 61376, Note_on_c, 0, 75, 0
2, 61376, Note_on_c, 0, 76, 76
2, 61440, Note_on_c, 0, 76, 0
2, 61440, Note_on_c, 0, 75, 70
2, 61504, Note_on_c, 0, 75, 0
2, 61504, Note_on_c, 0, 76, 76
2, 61568, Note_on_c, 0, 69, 0
2, 61568, Note_on_c, 0, 76, 0
2, 61568, Note_on_c, 0, 81, 85
2, 61568, Note_on_c, 0, 61, 0
2, 61632, Note_on_c, 0, 81, 0
2, 61632, Note_on_c, 0, 79, 73
2, 61696, Note_on_c, 0, 79, 0
2, 61696, Note_on_c, 0, 77, 69
2, 61696, Note_on_c, 0, 62, 63
2, 61696, Note_on_c, 0, 69, 63
2, 61760, Note_on_c, 0, 77, 0
2, 61760, Note_on_c, 0, 78, 78
2, 61824, Note_on_c, 0, 78, 0
2, 61824, Note_on_c, 0, 77, 76
2, 61888, Note_on_c, 0, 77, 0
2, 61888, Note_on_c, 0, 78, 79
2, 61952, Note_on_c, 0, 78, 0
2, 61952, Note_on_c, 0, 83, 93
2, 61952, Note_on_c, 0, 62, 0
2, 61952, Note_on_c, 0, 69, 0
2, 62016, Note_on_c, 0, 83, 0
2, 62016, Note_on_c, 0, 81, 73
2, 62080, Note_on_c, 0, 81, 0
2, 62080, Note_on_c, 0, 81, 78
2, 62080, Note_on_c, 0, 64, 69
2, 62080, Note_on_c, 0, 69, 69
2, 62144, Note_on_c, 0, 81, 0
2, 62144, Note_on_c, 0, 79, 69
2, 62208, Note_on_c, 0, 79, 0
2, 62208, Note_on_c, 0, 64, 0
2, 62208, Note_on_c, 0, 78, 69
2, 62208, Note_on_c, 0, 66, 74
2, 62272, Note_on_c, 0, 78, 0
2, 62272, Note_on_c, 0, 76, 69
2, 62336, Note_on_c, 0, 76, 0
2, 62336, Note_on_c, 0, 67, 74
2, 62336, Note_on_c, 0, 74, 74
2, 62336, Note_on_c, 0, 66, 0
2, 62400, Note_on_c, 0, 74, 0
2, 62400, Note_on_c, 0, 73, 74
2, 62464, Note_on_c, 0, 67, 0
2, 62464, Note_on_c, 0, 73, 0
2, 62464, Note_on_c, 0, 66, 68
2, 62464, Note_on_c, 0, 69, 68
2, 62464, Note_on_c, 0, 69, 0
2, 62528, Note_on_c, 0, 74, 83
2, 62592, Note_on_c, 0, 74, 0
2, 62592, Note_on_c, 0, 78, 87
2, 62656, Note_on_c, 0, 66, 0
2, 62656, Note_on_c, 0, 69, 0
2, 62656, Note_on_c, 0, 78, 0
2, 62656, Note_on_c, 0, 81, 85
2, 62720, Note_on_c, 0, 81, 0
2, 62720, Note_on_c, 0, 86, 89
2, 62720, Note_on_c, 0, 64, 67
2, 62720, Note_on_c, 0, 67, 67
2, 62784, Note_on_c, 0, 86, 0
2, 62784, Note_on_c, 0, 85, 75
2, 62848, Note_on_c, 0, 85, 0
2, 62848, Note_on_c, 0, 64, 0
2, 62848, Note_on_c, 0, 67, 0
2, 62848, Note_on_c, 0, 62, 72
2, 62848, Note_on_c, 0, 66, 72
2, 62912, Note_on_c, 0, 71, 70
2, 62976, Note_on_c, 0, 71, 0
2, 62976, Note_on_c, 0, 74, 80
2, 63040, Note_on_c, 0, 74, 0
2, 63040, Note_on_c, 0, 78, 83
2, 63104, Note_on_c, 0, 78, 0
2, 63104, Note_on_c, 0, 83, 86
2, 63104, Note_on_c, 0, 62, 0
2, 63104, Note_on_c, 0, 66, 0
2, 63104, Note_on_c, 0, 61, 77
2, 63104, Note_on_c, 0, 64, 77
2, 63168, Note_on_c, 0, 83, 0
2, 63168, Note_on_c, 0, 81, 74
2, 63232, Note_on_c, 0, 81, 0
2, 63232, Note_on_c, 0, 61, 0
2, 63232, Note_on_c, 0, 64, 0
2, 63232, Note_on_c, 0, 59, 71
2, 63232, Note_on_c, 0, 62, 71
2, 63296, Note_on_c, 0, 67, 70
2, 63360, Note_on_c, 0, 67, 0
2, 63360, Note_on_c, 0, 71, 79
2, 63424, Note_on_c, 0, 71, 0
2, 63424, Note_on_c, 0, 74, 79
2, 63488, Note_on_c, 0, 74, 0
2, 63488, Note_on_c, 0, 79, 83
2, 63488, Note_on_c, 0, 59, 0
2, 63488, Note_on_c, 0, 62, 0
2, 63488, Note_on_c, 0, 57, 70
2, 63488, Note_on_c, 0, 61, 70
2, 63552, Note_on_c, 0, 79, 0
2, 63552, Note_on_c, 0, 78, 75
2, 63616, Note_on_c, 0, 78, 0
2, 63616, Note_on_c, 0, 57, 0
2, 63616, Note_on_c, 0, 61, 0
2, 63616, Note_on_c, 0, 55, 71
2, 63616, Note_on_c, 0, 59, 71
2, 63680, Note_on_c, 0, 64, 73
2, 63744, Note_on_c, 0, 64, 0
2, 63744, Note_on_c, 0, 67, 83
2, 63808, Note_on_c, 0, 67, 0
2, 63808, Note_on_c, 0, 71, 81
2, 63872, Note_on_c, 0, 71, 0
2, 63872, Note_on_c, 0, 76, 87
2, 63872, Note_on_c, 0, 55, 0
2, 63872, Note_on_c, 0, 59, 0
2, 63872, Note_on_c, 0, 56, 73
2, 63872, Note_on_c, 0, 59, 73
2, 63936, Note_on_c, 0, 76, 0
2, 63936, Note_on_c, 0, 74, 72
2, 64000, Note_on_c, 0, 74, 0
2, 64000, Note_on_c, 0, 73, 71
2, 64000, Note_on_c, 0, 56, 0
2, 64000, Note_on_c, 0, 59, 0
2, 64000, Note_on_c, 0, 57, 73
2, 64064, Note_on_c, 0, 73, 0
2, 64064, Note_on_c, 0, 64, 59
2, 64064, Note_on_c, 0, 57, 0
2, 64128, Note_on_c, 0, 64, 0
2, 64128, Note_on_c, 0, 81, 92
2, 64128, Note_on_c, 0, 61, 70
2, 64192, Note_on_c, 0, 81, 0
2, 64192, Note_on_c, 0, 61, 0
2, 64192, Note_on_c, 0, 64, 78
2, 64256, Note_on_c, 0, 74, 67
2, 64256, Note_on_c, 0, 78, 67
2, 64256, Note_on_c, 0, 64, 0
2, 64256, Note_on_c, 0, 62, 72
2, 64320, Note_on_c, 0, 74, 0
2, 64320, Note_on_c, 0, 78, 0
2, 64320, Note_on_c, 0, 62, 0
2, 64320, Note_on_c, 0, 66, 84
2, 64384, Note_on_c, 0, 73, 69
2, 64384, Note_on_c, 0, 76, 69
2, 64384, Note_on_c, 0, 66, 0
2, 64384, Note_on_c, 0, 57, 71
2, 64448, Note_on_c, 0, 73, 0
2, 64448, Note_on_c, 0, 76, 0
2, 64448, Note_on_c, 0, 64, 59
2, 64448, Note_on_c, 0, 57, 0
2, 64512, Note_on_c, 0, 64, 0
2, 64512, Note_on_c, 0, 81, 90
2, 64512, Note_on_c, 0, 61, 66
2, 64576, Note_on_c, 0, 81, 0
2, 64576, Note_on_c, 0, 61, 0
2, 64576, Note_on_c, 0, 64, 86
2, 64640, Note_on_c, 0, 74, 72
2, 64640, Note_on_c, 0, 78, 72
2, 64640, Note_on_c, 0, 64, 0
2, 64640, Note_on_c, 0, 62, 71
2, 64704, Note_on_c, 0, 74, 0
2, 64704, Note_on_c, 0, 78, 0
2, 64704, Note_on_c, 0, 62, 0
2, 64704, Note_on_c, 0, 66, 77
2, 64768, Note_on_c, 0, 73, 69
2, 64768, Note_on_c, 0, 76, 69
2, 64768, Note_on_c, 0, 66, 0
2, 64768, Note_on_c, 0, 57, 75
2, 64768, Note_on_c, 0, 61, 75
2, 64768, Note_on_c, 0, 64, 75
2, 64896, Note_on_c, 0, 73, 0
2, 64896, Note_on_c, 0, 76, 0
2, 64896, Note_on_c, 0, 81, 87
2, 64896, Note_on_c, 0, 57, 0
2, 64896, Note_on_c, 0, 61, 0
2, 64896, Note_on_c, 0, 64, 0
2, 65024, Note_on_c, 0, 81, 0
2, 65024, Note_on_c, 0, 57, 56
2, 65024, Note_on_c, 0, 69, 56
2, 65024, Note_on_c, 0, 45, 68
2, 65152, Note_on_c, 0, 57, 0
2, 65152, Note_on_c, 0, 69, 0
2, 65152, Note_on_c, 0, 57, 73
2, 65152, Note_on_c, 0, 69, 73
2, 65152, Note_on_c, 0, 45, 0
2, 65152, Note_on_c, 0, 45, 73
2, 65280, Note_on_c, 0, 57, 0
2, 65280, Note_on_c, 0, 69, 0
2, 65280, Note_on_c, 0, 45, 0
2, 65408, Note_on_c, 0, 76, 68
2, 65536, Note_on_c, 0, 76, 0
2, 65536, Note_on_c, 0, 81, 82
2, 65536, Note_on_c, 0, 64, 69
2, 65664, Note_on_c, 0, 81, 0
2, 65664, Note_on_c, 0, 69, 60
2, 65664, Note_on_c, 0, 76, 60
2, 65664, Note_on_c, 0, 64, 0
2, 65792, Note_on_c, 0, 69, 0
2, 65792, Note_on_c, 0, 76, 0
2, 65792, Note_on_c, 0, 81, 85
2, 65792, Note_on_c, 0, 64, 69
2, 65920, Note_on_c, 0, 81, 0
2, 65920, Note_on_c, 0, 85, 90
2, 65920, Note_on_c, 0, 64, 0
2, 65920, Note_on_c, 0, 69, 87
2, 66048, Note_on_c, 0, 85, 0
2, 66048, Note_on_c, 0, 69, 0
2, 66048, Note_on_c, 0, 73, 69
2, 66048, Note_on_c, 0, 81, 69
2, 66176, Note_on_c, 0, 73, 0
2, 66176, Note_on_c, 0, 81, 0
2, 66176, Note_on_c, 0, 85, 82
2, 66176, Note_on_c, 0, 69, 69
2, 66304, Note_on_c, 0, 85, 0
2, 66304, Note_on_c, 0, 88, 84
2, 66304, Note_on_c, 0, 69, 0
2, 66304, Note_on_c, 0, 73, 84
2, 66368, Note_on_c, 0, 88, 0
2, 66368, Note_on_c, 0, 86, 72
2, 66432, Note_on_c, 0, 86, 0
2, 66432, Note_on_c, 0, 85, 69
2, 66432, Note_on_c, 0, 73, 0
2, 66432, Note_on_c, 0, 76, 83
2, 66496, Note_on_c, 0, 85, 0
2, 66496, Note_on_c, 0, 74, 67
2, 66496, Note_on_c, 0, 83, 67
2, 66496, Note_on_c, 0, 76, 0
2, 66560, Note_on_c, 0, 74, 0
2, 66560, Note_on_c, 0, 83, 0
2, 66560, Note_on_c, 0, 73, 72
2, 66560, Note_on_c, 0, 82, 72
2, 66624, Note_on_c, 0, 73, 0
2, 66624, Note_on_c, 0, 82, 0
2, 66624, Note_on_c, 0, 71, 66
2, 66624, Note_on_c, 0, 80, 66
2, 66688, Note_on_c, 0, 71, 0
2, 66688, Note_on_c, 0, 80, 0
2, 66688, Note_on_c, 0, 70, 69
2, 66688, Note_on_c, 0, 78, 69
2, 66752, Note_on_c, 0, 70, 0
2, 66752, Note_on_c, 0, 78, 0
2, 66752, Note_on_c, 0, 68, 73
2, 66752, Note_on_c, 0, 76, 73
2, 66816, Note_on_c, 0, 68, 0
2, 66816, Note_on_c, 0, 76, 0
2, 66816, Note_on_c, 0, 66, 67
2, 66816, Note_on_c, 0, 74, 67
2, 66880, Note_on_c, 0, 66, 0
2, 66880, Note_on_c, 0, 74, 0
2, 66880, Note_on_c, 0, 64, 72
2, 66880, Note_on_c, 0, 73, 72
2, 66944, Note_on_c, 0, 64, 0
2, 66944, Note_on_c, 0, 73, 0
2, 66944, Note_on_c, 0, 62, 69
2, 66944, Note_on_c, 0, 71, 69
2, 67008, Note_on_c, 0, 62, 0
2, 67008, Note_on_c, 0, 71, 0
2, 67008, Note_on_c, 0, 61, 76
2, 67008, Note_on_c, 0, 70, 76
2, 67072, Note_on_c, 0, 61, 0
2, 67072, Note_on_c, 0, 70, 0
2, 67072, Note_on_c, 0, 71, 80
2, 67072, Note_on_c, 0, 59, 65
2, 67136, Note_on_c, 0, 71, 0
2, 67136, Note_on_c, 0, 59, 0
2, 67136, Note_on_c, 0, 58, 72
2, 67200, Note_on_c, 0, 66, 70
2, 67200, Note_on_c, 0, 58, 0
2, 67200, Note_on_c, 0, 59, 76
2, 67328, Note_on_c, 0, 66, 0
2, 67328, Note_on_c, 0, 71, 86
2, 67328, Note_on_c, 0, 59, 0
2, 67328, Note_on_c, 0, 54, 71
2, 67456, Note_on_c, 0, 71, 0
2, 67456, Note_on_c, 0, 74, 85
2, 67456, Note_on_c, 0, 54, 0
2, 67456, Note_on_c, 0, 59, 76
2, 67584, Note_on_c, 0, 74, 0
2, 67584, Note_on_c, 0, 59, 0
2, 67584, Note_on_c, 0, 62, 66
2, 67584, Note_on_c, 0, 71, 66
2, 67712, Note_on_c, 0, 62, 0
2, 67712, Note_on_c, 0, 71, 0
2, 67712, Note_on_c, 0, 74, 77
2, 67712, Note_on_c, 0, 59, 69
2, 67840, Note_on_c, 0, 74, 0
2, 67840, Note_on_c, 0, 78, 86
2, 67840, Note_on_c, 0, 59, 0
2, 67840, Note_on_c, 0, 62, 80
2, 67904, Note_on_c, 0, 78, 0
2, 67904, Note_on_c, 0, 76, 72
2, 67968, Note_on_c, 0, 76, 0
2, 67968, Note_on_c, 0, 66, 68
2, 67968, Note_on_c, 0, 74, 68
2, 67968, Note_on_c, 0, 62, 0
2, 68032, Note_on_c, 0, 66, 0
2, 68032, Note_on_c, 0, 74, 0
2, 68032, Note_on_c, 0, 64, 72
2, 68032, Note_on_c, 0, 73, 72
2, 68096, Note_on_c, 0, 64, 0
2, 68096, Note_on_c, 0, 73, 0
2, 68096, Note_on_c, 0, 62, 74
2, 68096, Note_on_c, 0, 71, 74
2, 68160, Note_on_c, 0, 62, 0
2, 68160, Note_on_c, 0, 71, 0
2, 68160, Note_on_c, 0, 61, 74
2, 68160, Note_on_c, 0, 70, 74
2, 68224, Note_on_c, 0, 61, 0
2, 68224, Note_on_c, 0, 70, 0
2, 68224, Note_on_c, 0, 74, 83
2, 68224, Note_on_c, 0, 59, 64
2, 68288, Note_on_c, 0, 74, 0
2, 68288, Note_on_c, 0, 73, 74
2, 68288, Note_on_c, 0, 59, 0
2, 68288, Note_on_c, 0, 58, 73
2, 68352, Note_on_c, 0, 73, 0
2, 68352, Note_on_c, 0, 58, 0
2, 68352, Note_on_c, 0, 71, 71
2, 68352, Note_on_c, 0, 62, 82
2, 68416, Note_on_c, 0, 71, 0
2, 68416, Note_on_c, 0, 61, 71
2, 68416, Note_on_c, 0, 69, 71
2, 68416, Note_on_c, 0, 62, 0
2, 68480, Note_on_c, 0, 61, 0
2, 68480, Note_on_c, 0, 69, 0
2, 68480, Note_on_c, 0, 68, 70
2, 68480, Note_on_c, 0, 59, 65
2, 68544, Note_on_c, 0, 68, 0
2, 68544, Note_on_c, 0, 66, 71
2, 68544, Note_on_c, 0, 59, 0
2, 68544, Note_on_c, 0, 57, 72
2, 68608, Note_on_c, 0, 66, 0
2, 68608, Note_on_c, 0, 64, 73
2, 68608, Note_on_c, 0, 57, 0
2, 68608, Note_on_c, 0, 56, 75
2, 68672, Note_on_c, 0, 64, 0
2, 68672, Note_on_c, 0, 56, 0
2, 68672, Note_on_c, 0, 54, 78
2, 68736, Note_on_c, 0, 54, 0
2, 68736, Note_on_c, 0, 52, 77
2, 68736, Note_on_c, 0, 59, 77
2, 68864, Note_on_c, 0, 64, 68
2, 68864, Note_on_c, 0, 52, 0
2, 68864, Note_on_c, 0, 59, 0
2, 68864, Note_on_c, 0, 47, 68
2, 68992, Note_on_c, 0, 64, 0
2, 68992, Note_on_c, 0, 68, 82
2, 68992, Note_on_c, 0, 47, 0
2, 68992, Note_on_c, 0, 52, 77
2, 69120, Note_on_c, 0, 68, 0
2, 69120, Note_on_c, 0, 52, 0
2, 69120, Note_on_c, 0, 64, 71
2, 69120, Note_on_c, 0, 56, 81
2, 69248, Note_on_c, 0, 64, 0
2, 69248, Note_on_c, 0, 68, 85
2, 69248, Note_on_c, 0, 56, 0
2, 69248, Note_on_c, 0, 52, 73
2, 69376, Note_on_c, 0, 68, 0
2, 69376, Note_on_c, 0, 71, 83
2, 69376, Note_on_c, 0, 52, 0
2, 69376, Note_on_c, 0, 56, 77
2, 69440, Note_on_c, 0, 71, 0
2, 69440, Note_on_c, 0, 73, 83
2, 69504, Note_on_c, 0, 73, 0
2, 69504, Note_on_c, 0, 74, 78
2, 69504, Note_on_c, 0, 56, 0
2, 69504, Note_on_c, 0, 59, 80
2, 69568, Note_on_c, 0, 74, 0
2, 69568, Note_on_c, 0, 73, 73
2, 69568, Note_on_c, 0, 59, 0
2, 69568, Note_on_c, 0, 61, 83
2, 69632, Note_on_c, 0, 73, 0
2, 69632, Note_on_c, 0, 62, 72
2, 69632, Note_on_c, 0, 71, 72
2, 69632, Note_on_c, 0, 61, 0
2, 69696, Note_on_c, 0, 62, 0
2, 69696, Note_on_c, 0, 71, 0
2, 69696, Note_on_c, 0, 61, 74
2, 69696, Note_on_c, 0, 69, 74
2, 69760, Note_on_c, 0, 61, 0
2, 69760, Note_on_c, 0, 69, 0
2, 69760, Note_on_c, 0, 68, 71
2, 69760, Note_on_c, 0, 59, 68
2, 69824, Note_on_c, 0, 68, 0
2, 69824, Note_on_c, 0, 66, 70
2, 69824, Note_on_c, 0, 59, 0
2, 69824, Note_on_c, 0, 57, 70
2, 69888, Note_on_c, 0, 66, 0
2, 69888, Note_on_c, 0, 57, 0
2, 69888, Note_on_c, 0, 64, 71
2, 69888, Note_on_c, 0, 56, 70
2, 69952, Note_on_c, 0, 64, 0
2, 69952, Note_on_c, 0, 66, 80
2, 69952, Note_on_c, 0, 56, 0
2, 69952, Note_on_c, 0, 54, 72
2, 70016, Note_on_c, 0, 66, 0
2, 70016, Note_on_c, 0, 62, 64
2, 70016, Note_on_c, 0, 54, 0
2, 70016, Note_on_c, 0, 56, 77
2, 70080, Note_on_c, 0, 62, 0
2, 70080, Note_on_c, 0, 64, 82
2, 70080, Note_on_c, 0, 56, 0
2, 70080, Note_on_c, 0, 52, 69
2, 70144, Note_on_c, 0, 64, 0
2, 70144, Note_on_c, 0, 61, 71
2, 70144, Note_on_c, 0, 52, 0
2, 70144, Note_on_c, 0, 57, 76
2, 70208, Note_on_c, 0, 61, 0
2, 70208, Note_on_c, 0, 64, 81
2, 70272, Note_on_c, 0, 64, 0
2, 70272, Note_on_c, 0, 63, 72
2, 70336, Note_on_c, 0, 63, 0
2, 70336, Note_on_c, 0, 64, 79
2, 70336, Note_on_c, 0, 57, 0
2, 70400, Note_on_c, 0, 64, 0
2, 70400, Note_on_c, 0, 66, 78
2, 70464, Note_on_c, 0, 66, 0
2, 70464, Note_on_c, 0, 64, 70
2, 70528, Note_on_c, 0, 64, 0
2, 70528, Note_on_c, 0, 61, 82
2, 70528, Note_on_c, 0, 69, 82
2, 70528, Note_on_c, 0, 57, 68
2, 70592, Note_on_c, 0, 69, 0
2, 70592, Note_on_c, 0, 64, 69
2, 70656, Note_on_c, 0, 64, 0
2, 70656, Note_on_c, 0, 63, 69
2, 70720, Note_on_c, 0, 63, 0
2, 70720, Note_on_c, 0, 64, 78
2, 70784, Note_on_c, 0, 61, 0
2, 70784, Note_on_c, 0, 64, 0
2, 70784, Note_on_c, 0, 66, 79
2, 70784, Note_on_c, 0, 57, 0
2, 70848, Note_on_c, 0, 66, 0
2, 70848, Note_on_c, 0, 64, 67
2, 70912, Note_on_c, 0, 64, 0
2, 70912, Note_on_c, 0, 56, 72
2, 70912, Note_on_c, 0, 59, 72
2, 70976, Note_on_c, 0, 64, 66
2, 70976, Note_on_c, 0, 59, 0
2, 71040, Note_on_c, 0, 64, 0
2, 71040, Note_on_c, 0, 63, 67
2, 71104, Note_on_c, 0, 63, 0
2, 71104, Note_on_c, 0, 64, 79
2, 71168, Note_on_c, 0, 64, 0
2, 71168, Note_on_c, 0, 61, 70
2, 71168, Note_on_c, 0, 56, 0
2, 71168, Note_on_c, 0, 57, 82
2, 71232, Note_on_c, 0, 61, 0
2, 71232, Note_on_c, 0, 64, 84
2, 71296, Note_on_c, 0, 64, 0
2, 71296, Note_on_c, 0, 62, 67
2, 71296, Note_on_c, 0, 57, 0
2, 71296, Note_on_c, 0, 59, 83
2, 71360, Note_on_c, 0, 62, 0
2, 71360, Note_on_c, 0, 64, 78
2, 71424, Note_on_c, 0, 64, 0
2, 71424, Note_on_c, 0, 59, 0
2, 71424, Note_on_c, 0, 61, 69
2, 71424, Note_on_c, 0, 57, 74
2, 71488, Note_on_c, 0, 61, 0
2, 71488, Note_on_c, 0, 64, 81
2, 71552, Note_on_c, 0, 64, 0
2, 71552, Note_on_c, 0, 57, 0
2, 71552, Note_on_c, 0, 56, 75
2, 71552, Note_on_c, 0, 59, 75
2, 71616, Note_on_c, 0, 64, 67
2, 71616, Note_on_c, 0, 59, 0
2, 71680, Note_on_c, 0, 64, 0
2, 71680, Note_on_c, 0, 61, 67
2, 71680, Note_on_c, 0, 56, 0
2, 71680, Note_on_c, 0, 57, 77
2, 71744, Note_on_c, 0, 61, 0
2, 71744, Note_on_c, 0, 64, 80
2, 71808, Note_on_c, 0, 64, 0
2, 71808, Note_on_c, 0, 63, 71
2, 71872, Note_on_c, 0, 63, 0
2, 71872, Note_on_c, 0, 64, 76
2, 71936, Note_on_c, 0, 64, 0
2, 71936, Note_on_c, 0, 66, 81
2, 71936, Note_on_c, 0, 57, 0
2, 72000, Note_on_c, 0, 66, 0
2, 72000, Note_on_c, 0, 64, 72
2, 72064, Note_on_c, 0, 64, 0
2, 72064, Note_on_c, 0, 61, 86
2, 72064, Note_on_c, 0, 69, 86
2, 72064, Note_on_c, 0, 57, 72
2, 72128, Note_on_c, 0, 69, 0
2, 72128, Note_on_c, 0, 64, 65
2, 72192, Note_on_c, 0, 64, 0
2, 72192, Note_on_c, 0, 63, 74
2, 72256, Note_on_c, 0, 63, 0
2, 72256, Note_on_c, 0, 64, 82
2, 72320, Note_on_c, 0, 61, 0
2, 72320, Note_on_c, 0, 64, 0
2, 72320, Note_on_c, 0, 66, 83
2, 72320, Note_on_c, 0, 57, 0
2, 72384, Note_on_c, 0, 66, 0
2, 72384, Note_on_c, 0, 64, 75
2, 72448, Note_on_c, 0, 64, 0
2, 72448, Note_on_c, 0, 56, 69
2, 72448, Note_on_c, 0, 59, 69
2, 72512, Note_on_c, 0, 64, 64
2, 72512, Note_on_c, 0, 59, 0
2, 72576, Note_on_c, 0, 64, 0
2, 72576, Note_on_c, 0, 63, 65
2, 72640, Note_on_c, 0, 63, 0
2, 72640, Note_on_c, 0, 64, 78
2, 72704, Note_on_c, 0, 64, 0
2, 72704, Note_on_c, 0, 61, 71
2, 72704, Note_on_c, 0, 56, 0
2, 72704, Note_on_c, 0, 57, 80
2, 72768, Note_on_c, 0, 61, 0
2, 72768, Note_on_c, 0, 64, 78
2, 72832, Note_on_c, 0, 64, 0
2, 72832, Note_on_c, 0, 62, 72
2, 72832, Note_on_c, 0, 57, 0
2, 72832, Note_on_c, 0, 59, 76
2, 72896, Note_on_c, 0, 62, 0
2, 72896, Note_on_c, 0, 64, 80
2, 72960, Note_on_c, 0, 64, 0
2, 72960, Note_on_c, 0, 59, 0
2, 72960, Note_on_c, 0, 61, 69
2, 72960, Note_on_c, 0, 57, 76
2, 73024, Note_on_c, 0, 61, 0
2, 73024, Note_on_c, 0, 64, 82
2, 73088, Note_on_c, 0, 64, 0
2, 73088, Note_on_c, 0, 57, 0
2, 73088, Note_on_c, 0, 56, 82
2, 73088, Note_on_c, 0, 59, 82
2, 73152, Note_on_c, 0, 64, 73
2, 73152, Note_on_c, 0, 59, 0
2, 73216, Note_on_c, 0, 64, 0
2, 73216, Note_on_c, 0, 56, 0
2, 73216, Note_on_c, 0, 57, 84
2, 73280, Note_on_c, 0, 61, 68
2, 73344, Note_on_c, 0, 61, 0
2, 73344, Note_on_c, 0, 64, 81
2, 73408, Note_on_c, 0, 64, 0
2, 73408, Note_on_c, 0, 69, 87
2, 73472, Note_on_c, 0, 69, 0
2, 73472, Note_on_c, 0, 73, 85
2, 73472, Note_on_c, 0, 57, 0
2, 73536, Note_on_c, 0, 73, 0
2, 73536, Note_on_c, 0, 76, 89
2, 73600, Note_on_c, 0, 76, 0
2, 73600, Note_on_c, 0, 81, 86
2, 73600, Note_on_c, 0, 57, 69
2, 73600, Note_on_c, 0, 61, 69
2, 73664, Note_on_c, 0, 81, 0
2, 73664, Note_on_c, 0, 80, 78
2, 73728, Note_on_c, 0, 80, 0
2, 73728, Note_on_c, 0, 57, 0
2, 73728, Note_on_c, 0, 61, 0
2, 73728, Note_on_c, 0, 78, 71
2, 73728, Note_on_c, 0, 59, 78
2, 73728, Note_on_c, 0, 62, 78
2, 73792, Note_on_c, 0, 78, 0
2, 73792, Note_on_c, 0, 76, 73
2, 73856, Note_on_c, 0, 76, 0
2, 73856, Note_on_c, 0, 74, 68
2, 73856, Note_on_c, 0, 59, 0
2, 73856, Note_on_c, 0, 62, 0
2, 73856, Note_on_c, 0, 61, 83
2, 73856, Note_on_c, 0, 64, 83
2, 73920, Note_on_c, 0, 74, 0
2, 73920, Note_on_c, 0, 73, 71
2, 73984, Note_on_c, 0, 73, 0
2, 73984, Note_on_c, 0, 62, 65
2, 73984, Note_on_c, 0, 66, 65
2, 73984, Note_on_c, 0, 61, 0
2, 73984, Note_on_c, 0, 64, 0
2, 74048, Note_on_c, 0, 70, 81
2, 74112, Note_on_c, 0, 70, 0
2, 74112, Note_on_c, 0, 71, 82
2, 74176, Note_on_c, 0, 71, 0
2, 74176, Note_on_c, 0, 73, 83
2, 74240, Note_on_c, 0, 62, 0
2, 74240, Note_on_c, 0, 66, 0
2, 74240, Note_on_c, 0, 73, 0
2, 74240, Note_on_c, 0, 74, 82
2, 74304, Note_on_c, 0, 74, 0
2, 74304, Note_on_c, 0, 76, 82
2, 74368, Note_on_c, 0, 76, 0
2, 74368, Note_on_c, 0, 78, 80
2, 74368, Note_on_c, 0, 59, 65
2, 74368, Note_on_c, 0, 62, 65
2, 74432, Note_on_c, 0, 78, 0
2, 74432, Note_on_c, 0, 76, 66
2, 74496, Note_on_c, 0, 76, 0
2, 74496, Note_on_c, 0, 59, 0
2, 74496, Note_on_c, 0, 62, 0
2, 74496, Note_on_c, 0, 74, 67
2, 74496, Note_on_c, 0, 61, 78
2, 74496, Note_on_c, 0, 64, 78
2, 74560, Note_on_c, 0, 74, 0
2, 74560, Note_on_c, 0, 73, 76
2, 74624, Note_on_c, 0, 73, 0
2, 74624, Note_on_c, 0, 62, 69
2, 74624, Note_on_c, 0, 66, 69
2, 74624, Note_on_c, 0, 71, 69
2, 74624, Note_on_c, 0, 61, 0
2, 74624, Note_on_c, 0, 64, 0
2, 74688, Note_on_c, 0, 71, 0
2, 74688, Note_on_c, 0, 69, 73
2, 74752, Note_on_c, 0, 62, 0
2, 74752, Note_on_c, 0, 66, 0
2, 74752, Note_on_c, 0, 69, 0
2, 74752, Note_on_c, 0, 64, 64
2, 74752, Note_on_c, 0, 52, 70
2, 74816, Note_on_c, 0, 64, 0
2, 74816, Note_on_c, 0, 73, 93
2, 74880, Note_on_c, 0, 73, 0
2, 74880, Note_on_c, 0, 61, 75
2, 74880, Note_on_c, 0, 69, 75
2, 74880, Note_on_c, 0, 57, 78
2, 74944, Note_on_c, 0, 69, 0
2, 74944, Note_on_c, 0, 76, 87
2, 75008, Note_on_c, 0, 61, 0
2, 75008, Note_on_c, 0, 76, 0
2, 75008, Note_on_c, 0, 73, 70
2, 75008, Note_on_c, 0, 57, 0
2, 75008, Note_on_c, 0, 57, 85
2, 75008, Note_on_c, 0, 61, 85
2, 75072, Note_on_c, 0, 73, 0
2, 75072, Note_on_c, 0, 81, 88
2, 75136, Note_on_c, 0, 81, 0
2, 75136, Note_on_c, 0, 52, 0
2, 75136, Note_on_c, 0, 57, 0
2, 75136, Note_on_c, 0, 61, 0
2, 75136, Note_on_c, 0, 52, 65
2, 75200, Note_on_c, 0, 71, 63
2, 75264, Note_on_c, 0, 71, 0
2, 75264, Note_on_c, 0, 62, 74
2, 75264, Note_on_c, 0, 71, 74
2, 75264, Note_on_c, 0, 72, 74
2, 75264, Note_on_c, 0, 56, 80
2, 75306, Note_on_c, 0, 72, 0
2, 75328, Note_on_c, 0, 56, 0
2, 75349, Note_on_c, 0, 62, 0
2, 75349, Note_on_c, 0, 71, 0
2, 75349, Note_on_c, 0, 72, 81
2, 75392, Note_on_c, 0, 72, 0
2, 75392, Note_on_c, 0, 62, 70
2, 75392, Note_on_c, 0, 71, 70
2, 75392, Note_on_c, 0, 56, 78
2, 75434, Note_on_c, 0, 71, 0
2, 75434, Note_on_c, 0, 69, 77
2, 75434, Note_on_c, 0, 72, 77
2, 75477, Note_on_c, 0, 69, 0
2, 75477, Note_on_c, 0, 72, 0
2, 75477, Note_on_c, 0, 71, 71
2, 75520, Note_on_c, 0, 62, 0
2, 75520, Note_on_c, 0, 71, 0
2, 75520, Note_on_c, 0, 61, 75
2, 75520, Note_on_c, 0, 69, 75
2, 75520, Note_on_c, 0, 71, 75
2, 75520, Note_on_c, 0, 52, 0
2, 75520, Note_on_c, 0, 56, 0
2, 75520, Note_on_c, 0, 57, 79
2, 75551, Note_on_c, 0, 71, 0
2, 75648, Note_on_c, 0, 61, 0
2, 75648, Note_on_c, 0, 69, 0
2, 75648, Note_on_c, 0, 57, 0
2, 75648, Note_on_c, 0, 45, 65
2, 75776, Note_on_c, 0, 45, 0
2, 75776, Note_on_c, 0, 45, 85
2, 75776, Note_on_c, 0, 57, 85
2, 75904, Note_on_c, 0, 45, 0
2, 75904, Note_on_c, 0, 57, 0
2, 75904, Note_on_c, 0, 45, 76
2, 75904, Note_on_c, 0, 57, 76
2, 76032, Note_on_c, 0, 45, 0
2, 76032, Note_on_c, 0, 57, 0
2, 76160, Note_on_c, 0, 73, 64
2, 76288, Note_on_c, 0, 73, 0
2, 76288, Note_on_c, 0, 74, 76
2, 76544, Note_on_c, 0, 74, 0
2, 76544, Note_on_c, 0, 76, 81
2, 76672, Note_on_c, 0, 76, 0
2, 76672, Note_on_c, 0, 78, 79
2, 76800, Note_on_c, 0, 78, 0
2, 76800, Note_on_c, 0, 76, 72
2, 76864, Note_on_c, 0, 76, 0
2, 76864, Note_on_c, 0, 74, 69
2, 76928, Note_on_c, 0, 74, 0
2, 76928, Note_on_c, 0, 73, 69
2, 76992, Note_on_c, 0, 73, 0
2, 76992, Note_on_c, 0, 71, 71
2, 77056, Note_on_c, 0, 71, 0
2, 77056, Note_on_c, 0, 62, 67
2, 77056, Note_on_c, 0, 69, 67
2, 77056, Note_on_c, 0, 52, 68
2, 77056, Note_on_c, 0, 59, 68
2, 77440, Note_on_c, 0, 69, 0
2, 77440, Note_on_c, 0, 68, 72
2, 77696, Note_on_c, 0, 62, 0
2, 77696, Note_on_c, 0, 68, 0
2, 77696, Note_on_c, 0, 66, 72
2, 77696, Note_on_c, 0, 52, 0
2, 77696, Note_on_c, 0, 59, 0
2, 77696, Note_on_c, 0, 50, 73
2, 77696, Note_on_c, 0, 56, 73
2, 77824, Note_on_c, 0, 66, 0
2, 77824, Note_on_c, 0, 66, 75
2, 77824, Note_on_c, 0, 50, 0
2, 77824, Note_on_c, 0, 56, 0
2, 77824, Note_on_c, 0, 49, 81
2, 77824, Note_on_c, 0, 57, 81
2, 77952, Note_on_c, 0, 66, 0
2, 77952, Note_on_c, 0, 64, 68
2, 78080, Note_on_c, 0, 64, 0
2, 78080, Note_on_c, 0, 64, 70
2, 78080, Note_on_c, 0, 49, 0
2, 78080, Note_on_c, 0, 57, 0
2, 78143, Note_on_c, 0, 64, 0
2, 78208, Note_on_c, 0, 64, 78
2, 78336, Note_on_c, 0, 64, 0
2, 78336, Note_on_c, 0, 69, 91
2, 78336, Note_on_c, 0, 49, 66
2, 78464, Note_on_c, 0, 69, 0
2, 78464, Note_on_c, 0, 69, 88
2, 78464, Note_on_c, 0, 73, 88
2, 78464, Note_on_c, 0, 49, 0
2, 78464, Note_on_c, 0, 45, 72
2, 78592, Note_on_c, 0, 69, 0
2, 78592, Note_on_c, 0, 73, 0
2, 78592, Note_on_c, 0, 69, 74
2, 78592, Note_on_c, 0, 73, 74
2, 78592, Note_on_c, 0, 45, 0
2, 78592, Note_on_c, 0, 52, 84
2, 78848, Note_on_c, 0, 73, 0
2, 78848, Note_on_c, 0, 74, 84
2, 78976, Note_on_c, 0, 69, 0
2, 78976, Note_on_c, 0, 74, 0
2, 78976, Note_on_c, 0, 68, 66
2, 78976, Note_on_c, 0, 71, 66
2, 79039, Note_on_c, 0, 68, 0
2, 79039, Note_on_c, 0, 71, 0
2, 79232, Note_on_c, 0, 73, 68
2, 79232, Note_on_c, 0, 52, 0
2, 79360, Note_on_c, 0, 73, 0
2, 79360, Note_on_c, 0, 74, 75
2, 79488, Note_on_c, 0, 74, 0
2, 79488, Note_on_c, 0, 74, 73
2, 79552, Note_on_c, 0, 74, 0
2, 79552, Note_on_c, 0, 73, 71
2, 79616, Note_on_c, 0, 73, 0
2, 79616, Note_on_c, 0, 76, 79
2, 79680, Note_on_c, 0, 76, 0
2, 79680, Note_on_c, 0, 74, 73
2, 79744, Note_on_c, 0, 74, 0
2, 79744, Note_on_c, 0, 78, 82
2, 79808, Note_on_c, 0, 78, 0
2, 79808, Note_on_c, 0, 76, 69
2, 79872, Note_on_c, 0, 76, 0
2, 79872, Note_on_c, 0, 74, 70
2, 79936, Note_on_c, 0, 74, 0
2, 79936, Note_on_c, 0, 73, 71
2, 80000, Note_on_c, 0, 73, 0
2, 80000, Note_on_c, 0, 74, 78
2, 80064, Note_on_c, 0, 74, 0
2, 80064, Note_on_c, 0, 71, 69
2, 80128, Note_on_c, 0, 71, 0
2, 80128, Note_on_c, 0, 62, 71
2, 80128, Note_on_c, 0, 69, 71
2, 80128, Note_on_c, 0, 52, 70
2, 80128, Note_on_c, 0, 59, 70
2, 80192, Note_on_c, 0, 69, 0
2, 80192, Note_on_c, 0, 68, 72
2, 80256, Note_on_c, 0, 68, 0
2, 80256, Note_on_c, 0, 71, 88
2, 80320, Note_on_c, 0, 71, 0
2, 80320, Note_on_c, 0, 69, 68
2, 80384, Note_on_c, 0, 69, 0
2, 80384, Note_on_c, 0, 73, 81
2, 80448, Note_on_c, 0, 73, 0
2, 80448, Note_on_c, 0, 71, 73
2, 80512, Note_on_c, 0, 71, 0
2, 80512, Note_on_c, 0, 74, 84
2, 80576, Note_on_c, 0, 74, 0
2, 80576, Note_on_c, 0, 73, 69
2, 80640, Note_on_c, 0, 73, 0
2, 80640, Note_on_c, 0, 76, 86
2, 80704, Note_on_c, 0, 76, 0
2, 80704, Note_on_c, 0, 74, 70
2, 80768, Note_on_c, 0, 62, 0
2, 80768, Note_on_c, 0, 74, 0
2, 80768, Note_on_c, 0, 78, 86
2, 80768, Note_on_c, 0, 52, 0
2, 80768, Note_on_c, 0, 59, 0
2, 80768, Note_on_c, 0, 62, 92
2, 80768, Note_on_c, 0, 68, 92
2, 80832, Note_on_c, 0, 78, 0
2, 80832, Note_on_c, 0, 76, 69
2, 80896, Note_on_c, 0, 76, 0
2, 80896, Note_on_c, 0, 69, 71
2, 80896, Note_on_c, 0, 76, 71
2, 80896, Note_on_c, 0, 62, 0
2, 80896, Note_on_c, 0, 68, 0
2, 80896, Note_on_c, 0, 61, 65
2, 80960, Note_on_c, 0, 76, 0
2, 80960, Note_on_c, 0, 81, 85
2, 81024, Note_on_c, 0, 69, 0
2, 81024, Note_on_c, 0, 81, 0
2, 81024, Note_on_c, 0, 80, 76
2, 81024, Note_on_c, 0, 61, 0
2, 81088, Note_on_c, 0, 80, 0
2, 81088, Note_on_c, 0, 79, 70
2, 81152, Note_on_c, 0, 79, 0
2, 81152, Note_on_c, 0, 78, 73
2, 81152, Note_on_c, 0, 62, 68
2, 81152, Note_on_c, 0, 69, 68
2, 81216, Note_on_c, 0, 78, 0
2, 81216, Note_on_c, 0, 77, 74
2, 81280, Note_on_c, 0, 77, 0
2, 81280, Note_on_c, 0, 69, 69
2, 81280, Note_on_c, 0, 76, 69
2, 81280, Note_on_c, 0, 62, 0
2, 81280, Note_on_c, 0, 69, 0
2, 81280, Note_on_c, 0, 61, 59
2, 81344, Note_on_c, 0, 76, 0
2, 81344, Note_on_c, 0, 81, 87
2, 81408, Note_on_c, 0, 69, 0
2, 81408, Note_on_c, 0, 81, 0
2, 81408, Note_on_c, 0, 61, 0
2, 81408, Note_on_c, 0, 80, 73
2, 81472, Note_on_c, 0, 80, 0
2, 81472, Note_on_c, 0, 79, 72
2, 81536, Note_on_c, 0, 79, 0
2, 81536, Note_on_c, 0, 78, 72
2, 81536, Note_on_c, 0, 62, 70
2, 81536, Note_on_c, 0, 69, 70
2, 81600, Note_on_c, 0, 78, 0
2, 81600, Note_on_c, 0, 77, 74
2, 81664, Note_on_c, 0, 77, 0
2, 81664, Note_on_c, 0, 69, 72
2, 81664, Note_on_c, 0, 76, 72
2, 81664, Note_on_c, 0, 62, 0
2, 81664, Note_on_c, 0, 69, 0
2, 81664, Note_on_c, 0, 61, 60
2, 82048, Note_on_c, 0, 69, 0
2, 82048, Note_on_c, 0, 76, 0
2, 82048, Note_on_c, 0, 71, 79
2, 82048, Note_on_c, 0, 77, 79
2, 82048, Note_on_c, 0, 68, 89
2, 82432, Note_on_c, 0, 71, 0
2, 82432, Note_on_c, 0, 77, 0
2, 82432, Note_on_c, 0, 78, 76
2, 82432, Note_on_c, 0, 68, 0
2, 82432, Note_on_c, 0, 62, 83
2, 82432, Note_on_c, 0, 66, 83
2, 82432, Note_on_c, 0, 69, 83
2, 82623, Note_on_c, 0, 78, 0
2, 82623, Note_on_c, 0, 62, 0
2, 82623, Note_on_c, 0, 66, 0
2, 82623, Note_on_c, 0, 69, 0
2, 82688, Note_on_c, 0, 78, 76
2, 82752, Note_on_c, 0, 78, 0
2, 82752, Note_on_c, 0, 80, 75
2, 82816, Note_on_c, 0, 80, 0
2, 82816, Note_on_c, 0, 81, 81
2, 82880, Note_on_c, 0, 81, 0
2, 82880, Note_on_c, 0, 77, 64
2, 82944, Note_on_c, 0, 77, 0
2, 82944, Note_on_c, 0, 78, 76
2, 83008, Note_on_c, 0, 78, 0
2, 83008, Note_on_c, 0, 73, 67
2, 83072, Note_on_c, 0, 73, 0
2, 83072, Note_on_c, 0, 74, 81
2, 83136, Note_on_c, 0, 74, 0
2, 83136, Note_on_c, 0, 71, 73
2, 83200, Note_on_c, 0, 71, 0
2, 83200, Note_on_c, 0, 69, 71
2, 83456, Note_on_c, 0, 61, 79
2, 83456, Note_on_c, 0, 61, 0
2, 83456, Note_on_c, 0, 52, 64
2, 83584, Note_on_c, 0, 61, 0
2, 83584, Note_on_c, 0, 62, 72
2, 83584, Note_on_c, 0, 52, 0
2, 83584, Note_on_c, 0, 53, 72
2, 83840, Note_on_c, 0, 62, 0
2, 83840, Note_on_c, 0, 63, 73
2, 83840, Note_on_c, 0, 53, 0
2, 83840, Note_on_c, 0, 54, 76
2, 83968, Note_on_c, 0, 63, 0
2, 83968, Note_on_c, 0, 69, 0
2, 83968, Note_on_c, 0, 64, 90
2, 83968, Note_on_c, 0, 69, 90
2, 83968, Note_on_c, 0, 73, 90
2, 83968, Note_on_c, 0, 54, 0
2, 83968, Note_on_c, 0, 52, 75
2, 84352, Note_on_c, 0, 64, 0
2, 84352, Note_on_c, 0, 69, 0
2, 84352, Note_on_c, 0, 73, 0
2, 84352, Note_on_c, 0, 62, 74
2, 84352, Note_on_c, 0, 68, 74
2, 84352, Note_on_c, 0, 71, 74
2, 84352, Note_on_c, 0, 73, 74
2, 84416, Note_on_c, 0, 73, 0
2, 84480, Note_on_c, 0, 71, 0
2, 84480, Note_on_c, 0, 69, 70
2, 84543, Note_on_c, 0, 69, 0
2, 84608, Note_on_c, 0, 71, 80
2, 84671, Note_on_c, 0, 62, 0
2, 84671, Note_on_c, 0, 68, 0
2, 84671, Note_on_c, 0, 71, 0
2, 84736, Note_on_c, 0, 69, 72
2, 84736, Note_on_c, 0, 52, 0
2, 84736, Note_on_c, 0, 57, 81
2, 84864, Note_on_c, 0, 69, 0
2, 84864, Note_on_c, 0, 61, 59
2, 84864, Note_on_c, 0, 57, 0
2, 84992, Note_on_c, 0, 61, 0
2, 84992, Note_on_c, 0, 64, 98
2, 84992, Note_on_c, 0, 75, 98
2, 85056, Note_on_c, 0, 75, 0
2, 85056, Note_on_c, 0, 76, 81
2, 85120, Note_on_c, 0, 64, 0
2, 85120, Note_on_c, 0, 76, 0
2, 85120, Note_on_c, 0, 78, 77
2, 85120, Note_on_c, 0, 57, 67
2, 85184, Note_on_c, 0, 78, 0
2, 85184, Note_on_c, 0, 76, 71
2, 85248, Note_on_c, 0, 76, 0
2, 85248, Note_on_c, 0, 57, 0
2, 85248, Note_on_c, 0, 74, 68
2, 85248, Note_on_c, 0, 61, 81
2, 85312, Note_on_c, 0, 74, 0
2, 85312, Note_on_c, 0, 73, 75
2, 85376, Note_on_c, 0, 73, 0
2, 85376, Note_on_c, 0, 64, 69
2, 85376, Note_on_c, 0, 71, 69
2, 85376, Note_on_c, 0, 61, 0
2, 85440, Note_on_c, 0, 71, 0
2, 85440, Note_on_c, 0, 69, 71
2, 85504, Note_on_c, 0, 64, 0
2, 85504, Note_on_c, 0, 69, 0
2, 85504, Note_on_c, 0, 68, 71
2, 85504, Note_on_c, 0, 52, 68
2, 85568, Note_on_c, 0, 68, 0
2, 85568, Note_on_c, 0, 69, 79
2, 85632, Note_on_c, 0, 69, 0
2, 85632, Note_on_c, 0, 71, 84
2, 85632, Note_on_c, 0, 52, 0
2, 85632, Note_on_c, 0, 56, 79
2, 85696, Note_on_c, 0, 71, 0
2, 85696, Note_on_c, 0, 73, 85
2, 85760, Note_on_c, 0, 73, 0
2, 85760, Note_on_c, 0, 74, 86
2, 85760, Note_on_c, 0, 56, 0
2, 85760, Note_on_c, 0, 59, 77
2, 85824, Note_on_c, 0, 74, 0
2, 85824, Note_on_c, 0, 76, 80
2, 85888, Note_on_c, 0, 76, 0
2, 85888, Note_on_c, 0, 78, 82
2, 85888, Note_on_c, 0, 59, 0
2, 85888, Note_on_c, 0, 52, 69
2, 85952, Note_on_c, 0, 78, 0
2, 85952, Note_on_c, 0, 80, 90
2, 86016, Note_on_c, 0, 80, 0
2, 86016, Note_on_c, 0, 52, 0
2, 86016, Note_on_c, 0, 81, 83
2, 86016, Note_on_c, 0, 56, 79
2, 86080, Note_on_c, 0, 81, 0
2, 86080, Note_on_c, 0, 83, 79
2, 86144, Note_on_c, 0, 83, 0
2, 86144, Note_on_c, 0, 85, 81
2, 86144, Note_on_c, 0, 56, 0
2, 86144, Note_on_c, 0, 59, 80
2, 86208, Note_on_c, 0, 85, 0
2, 86208, Note_on_c, 0, 86, 79
2, 86208, Note_on_c, 0, 59, 0
2, 86272, Note_on_c, 0, 86, 0
2, 86272, Note_on_c, 0, 85, 71
2, 86272, Note_on_c, 0, 57, 69
2, 86400, Note_on_c, 0, 85, 0
2, 86400, Note_on_c, 0, 57, 0
2, 86400, Note_on_c, 0, 61, 83
2, 86528, Note_on_c, 0, 64, 68
2, 86528, Note_on_c, 0, 75, 68
2, 86528, Note_on_c, 0, 61, 0
2, 86592, Note_on_c, 0, 75, 0
2, 86592, Note_on_c, 0, 76, 82
2, 86656, Note_on_c, 0, 64, 0
2, 86656, Note_on_c, 0, 76, 0
2, 86656, Note_on_c, 0, 78, 83
2, 86656, Note_on_c, 0, 57, 71
2, 86720, Note_on_c, 0, 78, 0
2, 86720, Note_on_c, 0, 76, 73
2, 86784, Note_on_c, 0, 76, 0
2, 86784, Note_on_c, 0, 57, 0
2, 86784, Note_on_c, 0, 74, 65
2, 86784, Note_on_c, 0, 61, 84
2, 86848, Note_on_c, 0, 74, 0
2, 86848, Note_on_c, 0, 73, 70
2, 86912, Note_on_c, 0, 73, 0
2, 86912, Note_on_c, 0, 64, 73
2, 86912, Note_on_c, 0, 71, 73
2, 86912, Note_on_c, 0, 61, 0
2, 86976, Note_on_c, 0, 71, 0
2, 86976, Note_on_c, 0, 69, 67
2, 87040, Note_on_c, 0, 64, 0
2, 87040, Note_on_c, 0, 69, 0
2, 87040, Note_on_c, 0, 68, 71
2, 87040, Note_on_c, 0, 52, 72
2, 87104, Note_on_c, 0, 68, 0
2, 87104, Note_on_c, 0, 66, 70
2, 87168, Note_on_c, 0, 66, 0
2, 87168, Note_on_c, 0, 64, 71
2, 87168, Note_on_c, 0, 52, 0
2, 87168, Note_on_c, 0, 59, 82
2, 87232, Note_on_c, 0, 64, 0
2, 87232, Note_on_c, 0, 66, 80
2, 87296, Note_on_c, 0, 66, 0
2, 87296, Note_on_c, 0, 62, 79
2, 87296, Note_on_c, 0, 68, 79
2, 87296, Note_on_c, 0, 59, 0
2, 87360, Note_on_c, 0, 68, 0
2, 87360, Note_on_c, 0, 69, 77
2, 87424, Note_on_c, 0, 62, 0
2, 87424, Note_on_c, 0, 69, 0
2, 87424, Note_on_c, 0, 71, 82
2, 87424, Note_on_c, 0, 52, 66
2, 87488, Note_on_c, 0, 71, 0
2, 87488, Note_on_c, 0, 73, 83
2, 87552, Note_on_c, 0, 73, 0
2, 87552, Note_on_c, 0, 52, 0
2, 87552, Note_on_c, 0, 74, 80
2, 87552, Note_on_c, 0, 59, 76
2, 87616, Note_on_c, 0, 74, 0
2, 87616, Note_on_c, 0, 76, 83
2, 87680, Note_on_c, 0, 76, 0
2, 87680, Note_on_c, 0, 78, 82
2, 87680, Note_on_c, 0, 59, 0
2, 87680, Note_on_c, 0, 62, 83
2, 87744, Note_on_c, 0, 78, 0
2, 87744, Note_on_c, 0, 80, 80
2, 87744, Note_on_c, 0, 62, 0
2, 87808, Note_on_c, 0, 80, 0
2, 87808, Note_on_c, 0, 81, 81
2, 87808, Note_on_c, 0, 57, 74
2, 87808, Note_on_c, 0, 61, 74
2, 87936, Note_on_c, 0, 81, 0
2, 87936, Note_on_c, 0, 76, 63
2, 88064, Note_on_c, 0, 76, 0
2, 88064, Note_on_c, 0, 85, 93
2, 88064, Note_on_c, 0, 61, 0
2, 88064, Note_on_c, 0, 64, 82
2, 88192, Note_on_c, 0, 85, 0
2, 88192, Note_on_c, 0, 81, 69
2, 88192, Note_on_c, 0, 57, 0
2, 88192, Note_on_c, 0, 64, 0
2, 88192, Note_on_c, 0, 57, 68
2, 88192, Note_on_c, 0, 61, 68
2, 88320, Note_on_c, 0, 81, 0
2, 88320, Note_on_c, 0, 76, 66
2, 88448, Note_on_c, 0, 76, 0
2, 88448, Note_on_c, 0, 85, 88
2, 88448, Note_on_c, 0, 61, 0
2, 88448, Note_on_c, 0, 64, 86
2, 88576, Note_on_c, 0, 85, 0
2, 88576, Note_on_c, 0, 81, 69
2, 88576, Note_on_c, 0, 57, 0
2, 88576, Note_on_c, 0, 64, 0
2, 88576, Note_on_c, 0, 57, 68
2, 88576, Note_on_c, 0, 61, 68
2, 88768, Note_on_c, 0, 81, 0
2, 88768, Note_on_c, 0, 57, 0
2, 88768, Note_on_c, 0, 61, 0
2, 89344, Note_on_c, 0, 81, 66
2, 89344, Note_on_c, 0, 57, 68
2, 89344, Note_on_c, 0, 60, 68
2, 89472, Note_on_c, 0, 81, 0
2, 89472, Note_on_c, 0, 76, 64
2, 89600, Note_on_c, 0, 76, 0
2, 89600, Note_on_c, 0, 84, 88
2, 89600, Note_on_c, 0, 60, 0
2, 89600, Note_on_c, 0, 64, 84
2, 89728, Note_on_c, 0, 84, 0
2, 89728, Note_on_c, 0, 81, 77
2, 89728, Note_on_c, 0, 57, 0
2, 89728, Note_on_c, 0, 64, 0
2, 89728, Note_on_c, 0, 57, 65
2, 89728, Note_on_c, 0, 60, 65
2, 89856, Note_on_c, 0, 81, 0
2, 89856, Note_on_c, 0, 76, 67
2, 89984, Note_on_c, 0, 76, 0
2, 89984, Note_on_c, 0, 84, 92
2, 89984, Note_on_c, 0, 60, 0
2, 89984, Note_on_c, 0, 64, 83
2, 90112, Note_on_c, 0, 84, 0
2, 90112, Note_on_c, 0, 81, 72
2, 90112, Note_on_c, 0, 57, 0
2, 90112, Note_on_c, 0, 64, 0
2, 90112, Note_on_c, 0, 57, 70
2, 90112, Note_on_c, 0, 60, 70
2, 90304, Note_on_c, 0, 81, 0
2, 90304, Note_on_c, 0, 57, 0
2, 90304, Note_on_c, 0, 60, 0
2, 90880, Note_on_c, 0, 81, 68
2, 90880, Note_on_c, 0, 53, 72
2, 90880, Note_on_c, 0, 60, 72
2, 90880, Note_on_c, 0, 63, 72
2, 91008, Note_on_c, 0, 81, 0
2, 91008, Note_on_c, 0, 75, 57
2, 91136, Note_on_c, 0, 75, 0
2, 91136, Note_on_c, 0, 84, 89
2, 91136, Note_on_c, 0, 53, 0
2, 91136, Note_on_c, 0, 60, 0
2, 91136, Note_on_c, 0, 63, 0
2, 91136, Note_on_c, 0, 54, 66
2, 91264, Note_on_c, 0, 84, 0
2, 91264, Note_on_c, 0, 81, 69
2, 91264, Note_on_c, 0, 54, 0
2, 91264, Note_on_c, 0, 53, 92
2, 91264, Note_on_c, 0, 60, 92
2, 91264, Note_on_c, 0, 63, 92
2, 91392, Note_on_c, 0, 81, 0
2, 91392, Note_on_c, 0, 75, 65
2, 91520, Note_on_c, 0, 75, 0
2, 91520, Note_on_c, 0, 84, 89
2, 91520, Note_on_c, 0, 53, 0
2, 91520, Note_on_c, 0, 60, 0
2, 91520, Note_on_c, 0, 63, 0
2, 91520, Note_on_c, 0, 54, 72
2, 91648, Note_on_c, 0, 84, 0
2, 91648, Note_on_c, 0, 81, 73
2, 91648, Note_on_c, 0, 54, 0
2, 91648, Note_on_c, 0, 53, 92
2, 91648, Note_on_c, 0, 60, 92
2, 91648, Note_on_c, 0, 63, 92
2, 91904, Note_on_c, 0, 81, 0
2, 91904, Note_on_c, 0, 53, 0
2, 91904, Note_on_c, 0, 60, 0
2, 91904, Note_on_c, 0, 63, 0
2, 92288, Note_on_c, 0, 65, 67
2, 92416, Note_on_c, 0, 65, 0
2, 92416, Note_on_c, 0, 70, 83
2, 92544, Note_on_c, 0, 70, 0
2, 92544, Note_on_c, 0, 65, 65
2, 92672, Note_on_c, 0, 65, 0
2, 92672, Note_on_c, 0, 70, 85
2, 92800, Note_on_c, 0, 70, 0
2, 92800, Note_on_c, 0, 74, 87
2, 92928, Note_on_c, 0, 74, 0
2, 92928, Note_on_c, 0, 70, 65
2, 93056, Note_on_c, 0, 70, 0
2, 93056, Note_on_c, 0, 74, 88
2, 93056, Note_on_c, 0, 53, 69
2, 93184, Note_on_c, 0, 74, 0
2, 93184, Note_on_c, 0, 77, 81
2, 93184, Note_on_c, 0, 53, 0
2, 93184, Note_on_c, 0, 58, 84
2, 93312, Note_on_c, 0, 58, 0
2, 93312, Note_on_c, 0, 53, 75
2, 93440, Note_on_c, 0, 77, 0
2, 93440, Note_on_c, 0, 77, 75
2, 93440, Note_on_c, 0, 53, 0
2, 93440, Note_on_c, 0, 58, 76
2, 93568, Note_on_c, 0, 77, 0
2, 93568, Note_on_c, 0, 77, 74
2, 93568, Note_on_c, 0, 58, 0
2, 93568, Note_on_c, 0, 62, 84
2, 93696, Note_on_c, 0, 62, 0
2, 93696, Note_on_c, 0, 58, 73
2, 93824, Note_on_c, 0, 77, 0
2, 93824, Note_on_c, 0, 82, 87
2, 93824, Note_on_c, 0, 58, 0
2, 93824, Note_on_c, 0, 62, 92
2, 93952, Note_on_c, 0, 82, 0
2, 93952, Note_on_c, 0, 81, 77
2, 93952, Note_on_c, 0, 62, 0
2, 93952, Note_on_c, 0, 65, 81
2, 94016, Note_on_c, 0, 81, 0
2, 94016, Note_on_c, 0, 79, 70
2, 94080, Note_on_c, 0, 79, 0
2, 94080, Note_on_c, 0, 77, 70
2, 94144, Note_on_c, 0, 77, 0
2, 94144, Note_on_c, 0, 79, 85
2, 94208, Note_on_c, 0, 79, 0
2, 94208, Note_on_c, 0, 81, 80
2, 94208, Note_on_c, 0, 65, 0
2, 94208, Note_on_c, 0, 65, 77
2, 94272, Note_on_c, 0, 81, 0
2, 94272, Note_on_c, 0, 82, 81
2, 94336, Note_on_c, 0, 82, 0
2, 94336, Note_on_c, 0, 84, 81
2, 94336, Note_on_c, 0, 65, 0
2, 94336, Note_on_c, 0, 65, 77
2, 94400, Note_on_c, 0, 84, 0
2, 94400, Note_on_c, 0, 82, 71
2, 94464, Note_on_c, 0, 82, 0
2, 94464, Note_on_c, 0, 81, 73
2, 94528, Note_on_c, 0, 81, 0
2, 94528, Note_on_c, 0, 82, 78
2, 94592, Note_on_c, 0, 82, 0
2, 94592, Note_on_c, 0, 84, 79
2, 94592, Note_on_c, 0, 65, 0
2, 94592, Note_on_c, 0, 70, 88
2, 94656, Note_on_c, 0, 84, 0
2, 94656, Note_on_c, 0, 86, 84
2, 94720, Note_on_c, 0, 86, 0
2, 94720, Note_on_c, 0, 87, 79
2, 94720, Note_on_c, 0, 70, 0
2, 94720, Note_on_c, 0, 69, 73
2, 94784, Note_on_c, 0, 87, 0
2, 94784, Note_on_c, 0, 69, 0
2, 94784, Note_on_c, 0, 67, 73
2, 94848, Note_on_c, 0, 77, 72
2, 94848, Note_on_c, 0, 67, 0
2, 94848, Note_on_c, 0, 65, 71
2, 94912, Note_on_c, 0, 77, 0
2, 94912, Note_on_c, 0, 65, 0
2, 94912, Note_on_c, 0, 67, 80
2, 94976, Note_on_c, 0, 87, 65
2, 94976, Note_on_c, 0, 67, 0
2, 94976, Note_on_c, 0, 69, 82
2, 95040, Note_on_c, 0, 69, 0
2, 95040, Note_on_c, 0, 70, 77
2, 95104, Note_on_c, 0, 70, 0
2, 95104, Note_on_c, 0, 72, 83
2, 95168, Note_on_c, 0, 72, 0
2, 95168, Note_on_c, 0, 70, 69
2, 95232, Note_on_c, 0, 87, 0
2, 95232, Note_on_c, 0, 70, 0
2, 95232, Note_on_c, 0, 77, 53
2, 95232, Note_on_c, 0, 69, 71
2, 95296, Note_on_c, 0, 77, 0
2, 95296, Note_on_c, 0, 69, 0
2, 95296, Note_on_c, 0, 70, 78
2, 95360, Note_on_c, 0, 87, 66
2, 95360, Note_on_c, 0, 70, 0
2, 95360, Note_on_c, 0, 72, 81
2, 95424, Note_on_c, 0, 72, 0
2, 95424, Note_on_c, 0, 74, 83
2, 95488, Note_on_c, 0, 74, 0
2, 95488, Note_on_c, 0, 75, 79
2, 95552, Note_on_c, 0, 87, 0
2, 95552, Note_on_c, 0, 89, 80
2, 95616, Note_on_c, 0, 89, 0
2, 95616, Note_on_c, 0, 87, 72
2, 95680, Note_on_c, 0, 87, 0
2, 95680, Note_on_c, 0, 77, 69
2, 95680, Note_on_c, 0, 86, 69
2, 95680, Note_on_c, 0, 75, 0
2, 95744, Note_on_c, 0, 77, 0
2, 95744, Note_on_c, 0, 86, 0
2, 95744, Note_on_c, 0, 75, 74
2, 95744, Note_on_c, 0, 84, 74
2, 95808, Note_on_c, 0, 75, 0
2, 95808, Note_on_c, 0, 84, 0
2, 95808, Note_on_c, 0, 74, 73
2, 95808, Note_on_c, 0, 82, 73
2, 95872, Note_on_c, 0, 74, 0
2, 95872, Note_on_c, 0, 82, 0
2, 95872, Note_on_c, 0, 72, 72
2, 95872, Note_on_c, 0, 81, 72
2, 95936, Note_on_c, 0, 72, 0
2, 95936, Note_on_c, 0, 81, 0
2, 95936, Note_on_c, 0, 74, 82
2, 95936, Note_on_c, 0, 82, 82
2, 96000, Note_on_c, 0, 74, 0
2, 96000, Note_on_c, 0, 82, 0
2, 96000, Note_on_c, 0, 72, 72
2, 96000, Note_on_c, 0, 81, 72
2, 96064, Note_on_c, 0, 72, 0
2, 96064, Note_on_c, 0, 81, 0
2, 96064, Note_on_c, 0, 70, 71
2, 96064, Note_on_c, 0, 79, 71
2, 96128, Note_on_c, 0, 70, 0
2, 96128, Note_on_c, 0, 79, 0
2, 96128, Note_on_c, 0, 69, 71
2, 96128, Note_on_c, 0, 77, 71
2, 96192, Note_on_c, 0, 69, 0
2, 96192, Note_on_c, 0, 77, 0
2, 96192, Note_on_c, 0, 67, 69
2, 96192, Note_on_c, 0, 75, 69
2, 96256, Note_on_c, 0, 67, 0
2, 96256, Note_on_c, 0, 75, 0
2, 96256, Note_on_c, 0, 66, 72
2, 96256, Note_on_c, 0, 74, 72
2, 96320, Note_on_c, 0, 74, 0
2, 96320, Note_on_c, 0, 75, 84
2, 96384, Note_on_c, 0, 75, 0
2, 96384, Note_on_c, 0, 74, 75
2, 96448, Note_on_c, 0, 74, 0
2, 96448, Note_on_c, 0, 84, 95
2, 96512, Note_on_c, 0, 66, 0
2, 96512, Note_on_c, 0, 84, 0
2, 96512, Note_on_c, 0, 75, 62
2, 96512, Note_on_c, 0, 67, 68
2, 96576, Note_on_c, 0, 75, 0
2, 96576, Note_on_c, 0, 84, 91
2, 96576, Note_on_c, 0, 67, 0
2, 96640, Note_on_c, 0, 84, 0
2, 96640, Note_on_c, 0, 74, 64
2, 96640, Note_on_c, 0, 66, 65
2, 96704, Note_on_c, 0, 74, 0
2, 96704, Note_on_c, 0, 75, 69
2, 96768, Note_on_c, 0, 75, 0
2, 96768, Note_on_c, 0, 74, 71
2, 96832, Note_on_c, 0, 74, 0
2, 96832, Note_on_c, 0, 84, 95
2, 96896, Note_on_c, 0, 84, 0
2, 96896, Note_on_c, 0, 75, 59
2, 96896, Note_on_c, 0, 66, 0
2, 96896, Note_on_c, 0, 67, 77
2, 96960, Note_on_c, 0, 75, 0
2, 96960, Note_on_c, 0, 84, 91
2, 96960, Note_on_c, 0, 67, 0
2, 97024, Note_on_c, 0, 84, 0
2, 97024, Note_on_c, 0, 74, 57
2, 97024, Note_on_c, 0, 66, 70
2, 97088, Note_on_c, 0, 74, 0
2, 97088, Note_on_c, 0, 84, 87
2, 97152, Note_on_c, 0, 84, 0
2, 97152, Note_on_c, 0, 81, 75
2, 97216, Note_on_c, 0, 81, 0
2, 97216, Note_on_c, 0, 79, 68
2, 97280, Note_on_c, 0, 79, 0
2, 97280, Note_on_c, 0, 78, 70
2, 97280, Note_on_c, 0, 66, 0
2, 97344, Note_on_c, 0, 78, 0
2, 97344, Note_on_c, 0, 75, 70
2, 97408, Note_on_c, 0, 75, 0
2, 97408, Note_on_c, 0, 74, 69
2, 97472, Note_on_c, 0, 74, 0
2, 97472, Note_on_c, 0, 75, 80
2, 97536, Note_on_c, 0, 75, 0
2, 97536, Note_on_c, 0, 74, 73
2, 97600, Note_on_c, 0, 74, 0
2, 97600, Note_on_c, 0, 72, 68
2, 97664, Note_on_c, 0, 72, 0
2, 97664, Note_on_c, 0, 70, 73
2, 97664, Note_on_c, 0, 50, 67
2, 97728, Note_on_c, 0, 70, 0
2, 97728, Note_on_c, 0, 69, 66
2, 97792, Note_on_c, 0, 69, 0
2, 97792, Note_on_c, 0, 67, 73
2, 97792, Note_on_c, 0, 50, 0
2, 97792, Note_on_c, 0, 55, 79
2, 97920, Note_on_c, 0, 67, 0
2, 97920, Note_on_c, 0, 55, 0
2, 97920, Note_on_c, 0, 50, 69
2, 98048, Note_on_c, 0, 62, 68
2, 98048, Note_on_c, 0, 50, 0
2, 98048, Note_on_c, 0, 55, 83
2, 98176, Note_on_c, 0, 62, 0
2, 98176, Note_on_c, 0, 67, 83
2, 98176, Note_on_c, 0, 55, 0
2, 98176, Note_on_c, 0, 58, 76
2, 98304, Note_on_c, 0, 67, 0
2, 98304, Note_on_c, 0, 58, 0
2, 98304, Note_on_c, 0, 62, 65
2, 98304, Note_on_c, 0, 55, 77
2, 98432, Note_on_c, 0, 62, 0
2, 98432, Note_on_c, 0, 67, 85
2, 98432, Note_on_c, 0, 55, 0
2, 98432, Note_on_c, 0, 58, 77
2, 98560, Note_on_c, 0, 67, 0
2, 98560, Note_on_c, 0, 62, 85
2, 98560, Note_on_c, 0, 70, 85
2, 98560, Note_on_c, 0, 58, 0
2, 98688, Note_on_c, 0, 70, 0
2, 98688, Note_on_c, 0, 67, 69
2, 98816, Note_on_c, 0, 62, 0
2, 98816, Note_on_c, 0, 67, 0
2, 98816, Note_on_c, 0, 62, 82
2, 98816, Note_on_c, 0, 70, 82
2, 98944, Note_on_c, 0, 62, 0
2, 98944, Note_on_c, 0, 70, 0
2, 98944, Note_on_c, 0, 62, 85
2, 98944, Note_on_c, 0, 74, 85
2, 99200, Note_on_c, 0, 62, 0
2, 99200, Note_on_c, 0, 74, 0
2, 99200, Note_on_c, 0, 67, 78
2, 99200, Note_on_c, 0, 74, 78
2, 99328, Note_on_c, 0, 67, 0
2, 99328, Note_on_c, 0, 74, 0
2, 99328, Note_on_c, 0, 66, 77
2, 99328, Note_on_c, 0, 74, 77
2, 99392, Note_on_c, 0, 66, 0
2, 99392, Note_on_c, 0, 64, 71
2, 99456, Note_on_c, 0, 64, 0
2, 99456, Note_on_c, 0, 66, 77
2, 99520, Note_on_c, 0, 66, 0
2, 99520, Note_on_c, 0, 62, 78
2, 99584, Note_on_c, 0, 62, 0
2, 99584, Note_on_c, 0, 74, 0
2, 99584, Note_on_c, 0, 70, 86
2, 99584, Note_on_c, 0, 79, 86
2, 99712, Note_on_c, 0, 70, 0
2, 99712, Note_on_c, 0, 79, 0
2, 99712, Note_on_c, 0, 69, 73
2, 99712, Note_on_c, 0, 78, 73
2, 99776, Note_on_c, 0, 69, 0
2, 99776, Note_on_c, 0, 78, 0
2, 99776, Note_on_c, 0, 76, 72
2, 99840, Note_on_c, 0, 76, 0
2, 99840, Note_on_c, 0, 78, 79
2, 99904, Note_on_c, 0, 78, 0
2, 99904, Note_on_c, 0, 74, 64
2, 99968, Note_on_c, 0, 74, 0
2, 99968, Note_on_c, 0, 82, 92
2, 99968, Note_on_c, 0, 67, 69
2, 100096, Note_on_c, 0, 82, 0
2, 100096, Note_on_c, 0, 81, 75
2, 100096, Note_on_c, 0, 67, 0
2, 100096, Note_on_c, 0, 66, 69
2, 100160, Note_on_c, 0, 81, 0
2, 100160, Note_on_c, 0, 66, 0
2, 100160, Note_on_c, 0, 64, 70
2, 100224, Note_on_c, 0, 64, 0
2, 100224, Note_on_c, 0, 66, 83
2, 100288, Note_on_c, 0, 66, 0
2, 100288, Note_on_c, 0, 62, 71
2, 100352, Note_on_c, 0, 72, 69
2, 100352, Note_on_c, 0, 81, 69
2, 100352, Note_on_c, 0, 62, 0
2, 100480, Note_on_c, 0, 72, 0
2, 100480, Note_on_c, 0, 81, 0
2, 100480, Note_on_c, 0, 70, 72
2, 100480, Note_on_c, 0, 79, 72
2, 100544, Note_on_c, 0, 70, 0
2, 100544, Note_on_c, 0, 79, 0
2, 100544, Note_on_c, 0, 78, 68
2, 100608, Note_on_c, 0, 78, 0
2, 100608, Note_on_c, 0, 79, 82
2, 100672, Note_on_c, 0, 79, 0
2, 100672, Note_on_c, 0, 74, 66
2, 100736, Note_on_c, 0, 74, 0
2, 100736, Note_on_c, 0, 84, 92
2, 100736, Note_on_c, 0, 69, 70
2, 100864, Note_on_c, 0, 84, 0
2, 100864, Note_on_c, 0, 82, 75
2, 100864, Note_on_c, 0, 69, 0
2, 100864, Note_on_c, 0, 67, 69
2, 100928, Note_on_c, 0, 82, 0
2, 100928, Note_on_c, 0, 74, 60
2, 100992, Note_on_c, 0, 74, 0
2, 100992, Note_on_c, 0, 75, 76
2, 101056, Note_on_c, 0, 75, 0
2, 101056, Note_on_c, 0, 74, 76
2, 101120, Note_on_c, 0, 74, 0
2, 101120, Note_on_c, 0, 75, 81
2, 101184, Note_on_c, 0, 75, 0
2, 101184, Note_on_c, 0, 74, 69
2, 101248, Note_on_c, 0, 74, 0
2, 101248, Note_on_c, 0, 81, 86
2, 101248, Note_on_c, 0, 67, 0
2, 101248, Note_on_c, 0, 65, 68
2, 101312, Note_on_c, 0, 81, 0
2, 101312, Note_on_c, 0, 75, 68
2, 101376, Note_on_c, 0, 75, 0
2, 101376, Note_on_c, 0, 76, 74
2, 101440, Note_on_c, 0, 76, 0
2, 101440, Note_on_c, 0, 75, 76
2, 101504, Note_on_c, 0, 75, 0
2, 101504, Note_on_c, 0, 76, 73
2, 101568, Note_on_c, 0, 76, 0
2, 101568, Note_on_c, 0, 75, 77
2, 101632, Note_on_c, 0, 75, 0
2, 101632, Note_on_c, 0, 80, 87
2, 101632, Note_on_c, 0, 65, 0
2, 101632, Note_on_c, 0, 64, 70
2, 101696, Note_on_c, 0, 80, 0
2, 101696, Note_on_c, 0, 81, 77
2, 101760, Note_on_c, 0, 81, 0
2, 101760, Note_on_c, 0, 83, 78
2, 101824, Note_on_c, 0, 83, 0
2, 101824, Note_on_c, 0, 84, 83
2, 101888, Note_on_c, 0, 84, 0
2, 101888, Note_on_c, 0, 86, 80
2, 101888, Note_on_c, 0, 64, 0
2, 101952, Note_on_c, 0, 86, 0
2, 101952, Note_on_c, 0, 84, 73
2, 102016, Note_on_c, 0, 84, 0
2, 102016, Note_on_c, 0, 83, 74
2, 102080, Note_on_c, 0, 83, 0
2, 102080, Note_on_c, 0, 81, 66
2, 102144, Note_on_c, 0, 81, 0
2, 102144, Note_on_c, 0, 80, 71
2, 102208, Note_on_c, 0, 80, 0
2, 102208, Note_on_c, 0, 77, 77
2, 102272, Note_on_c, 0, 77, 0
2, 102272, Note_on_c, 0, 76, 70
2, 102336, Note_on_c, 0, 76, 0
2, 102336, Note_on_c, 0, 74, 68
2, 102400, Note_on_c, 0, 74, 0
2, 102400, Note_on_c, 0, 72, 77
2, 102400, Note_on_c, 0, 57, 68
2, 102464, Note_on_c, 0, 64, 73
2, 102464, Note_on_c, 0, 57, 0
2, 102528, Note_on_c, 0, 64, 0
2, 102528, Note_on_c, 0, 65, 78
2, 102592, Note_on_c, 0, 65, 0
2, 102592, Note_on_c, 0, 64, 76
2, 102656, Note_on_c, 0, 64, 0
2, 102656, Note_on_c, 0, 65, 74
2, 102720, Note_on_c, 0, 65, 0
2, 102720, Note_on_c, 0, 64, 71
2, 102784, Note_on_c, 0, 64, 0
2, 102784, Note_on_c, 0, 72, 0
2, 102784, Note_on_c, 0, 71, 72
2, 102784, Note_on_c, 0, 55, 69
2, 102848, Note_on_c, 0, 65, 75
2, 102848, Note_on_c, 0, 55, 0
2, 102912, Note_on_c, 0, 65, 0
2, 102912, Note_on_c, 0, 66, 76
2, 102976, Note_on_c, 0, 66, 0
2, 102976, Note_on_c, 0, 65, 76
2, 103040, Note_on_c, 0, 65, 0
2, 103040, Note_on_c, 0, 66, 75
2, 103104, Note_on_c, 0, 66, 0
2, 103104, Note_on_c, 0, 65, 76
2, 103168, Note_on_c, 0, 65, 0
2, 103168, Note_on_c, 0, 71, 0
2, 103168, Note_on_c, 0, 66, 65
2, 103168, Note_on_c, 0, 54, 63
2, 103232, Note_on_c, 0, 70, 84
2, 103296, Note_on_c, 0, 70, 0
2, 103296, Note_on_c, 0, 73, 87
2, 103360, Note_on_c, 0, 73, 0
2, 103360, Note_on_c, 0, 78, 84
2, 103424, Note_on_c, 0, 66, 0
2, 103424, Note_on_c, 0, 78, 0
2, 103424, Note_on_c, 0, 82, 84
2, 103424, Note_on_c, 0, 54, 0
2, 103488, Note_on_c, 0, 82, 0
2, 103488, Note_on_c, 0, 85, 86
2, 103552, Note_on_c, 0, 85, 0
2, 103552, Note_on_c, 0, 88, 82
2, 103616, Note_on_c, 0, 88, 0
2, 103616, Note_on_c, 0, 85, 70
2, 103680, Note_on_c, 0, 85, 0
2, 103680, Note_on_c, 0, 82, 70
2, 103744, Note_on_c, 0, 82, 0
2, 103744, Note_on_c, 0, 79, 66
2, 103808, Note_on_c, 0, 79, 0
2, 103808, Note_on_c, 0, 78, 73
2, 103872, Note_on_c, 0, 78, 0
2, 103872, Note_on_c, 0, 76, 67
2, 103936, Note_on_c, 0, 76, 0
2, 103936, Note_on_c, 0, 74, 70
2, 104000, Note_on_c, 0, 74, 0
2, 104000, Note_on_c, 0, 59, 71
2, 104064, Note_on_c, 0, 59, 0
2, 104064, Note_on_c, 0, 62, 80
2, 104128, Note_on_c, 0, 66, 69
2, 104128, Note_on_c, 0, 62, 0
2, 104192, Note_on_c, 0, 66, 0
2, 104192, Note_on_c, 0, 71, 85
2, 104256, Note_on_c, 0, 74, 79
2, 104320, Note_on_c, 0, 71, 0
2, 104320, Note_on_c, 0, 74, 0
2, 104320, Note_on_c, 0, 77, 83
2, 104384, Note_on_c, 0, 77, 0
2, 104384, Note_on_c, 0, 55, 72
2, 104448, Note_on_c, 0, 55, 0
2, 104448, Note_on_c, 0, 59, 83
2, 104512, Note_on_c, 0, 62, 71
2, 104512, Note_on_c, 0, 59, 0
2, 104576, Note_on_c, 0, 62, 0
2, 104576, Note_on_c, 0, 67, 85
2, 104640, Note_on_c, 0, 71, 94
2, 104640, Note_on_c, 0, 77, 94
2, 104704, Note_on_c, 0, 67, 0
2, 104704, Note_on_c, 0, 71, 0
2, 104704, Note_on_c, 0, 77, 0
2, 104704, Note_on_c, 0, 78, 77
2, 104704, Note_on_c, 0, 54, 65
2, 104768, Note_on_c, 0, 78, 0
2, 104768, Note_on_c, 0, 73, 65
2, 104832, Note_on_c, 0, 73, 0
2, 104832, Note_on_c, 0, 78, 85
2, 104832, Note_on_c, 0, 58, 90
2, 104832, Note_on_c, 0, 61, 90
2, 104896, Note_on_c, 0, 78, 0
2, 104896, Note_on_c, 0, 82, 85
2, 104960, Note_on_c, 0, 82, 0
2, 104960, Note_on_c, 0, 85, 88
2, 104960, Note_on_c, 0, 58, 0
2, 104960, Note_on_c, 0, 61, 0
2, 104960, Note_on_c, 0, 58, 78
2, 104960, Note_on_c, 0, 61, 78
2, 105024, Note_on_c, 0, 85, 0
2, 105024, Note_on_c, 0, 82, 68
2, 105088, Note_on_c, 0, 82, 0
2, 105088, Note_on_c, 0, 86, 86
2, 105088, Note_on_c, 0, 54, 0
2, 105088, Note_on_c, 0, 58, 0
2, 105088, Note_on_c, 0, 61, 0
2, 105088, Note_on_c, 0, 54, 71
2, 105152, Note_on_c, 0, 86, 0
2, 105152, Note_on_c, 0, 83, 69
2, 105216, Note_on_c, 0, 83, 0
2, 105216, Note_on_c, 0, 86, 87
2, 105216, Note_on_c, 0, 59, 89
2, 105216, Note_on_c, 0, 62, 89
2, 105280, Note_on_c, 0, 86, 0
2, 105280, Note_on_c, 0, 83, 70
2, 105344, Note_on_c, 0, 83, 0
2, 105344, Note_on_c, 0, 80, 63
2, 105344, Note_on_c, 0, 59, 0
2, 105344, Note_on_c, 0, 62, 0
2, 105344, Note_on_c, 0, 59, 79
2, 105344, Note_on_c, 0, 62, 79
2, 105408, Note_on_c, 0, 80, 0
2, 105408, Note_on_c, 0, 77, 67
2, 105472, Note_on_c, 0, 77, 0
2, 105472, Note_on_c, 0, 78, 81
2, 105472, Note_on_c, 0, 54, 0
2, 105472, Note_on_c, 0, 59, 0
2, 105472, Note_on_c, 0, 62, 0
2, 105472, Note_on_c, 0, 54, 71
2, 105536, Note_on_c, 0, 78, 0
2, 105536, Note_on_c, 0, 73, 62
2, 105600, Note_on_c, 0, 73, 0
2, 105600, Note_on_c, 0, 78, 86
2, 105600, Note_on_c, 0, 58, 87
2, 105600, Note_on_c, 0, 61, 87
2, 105664, Note_on_c, 0, 78, 0
2, 105664, Note_on_c, 0, 82, 89
2, 105728, Note_on_c, 0, 82, 0
2, 105728, Note_on_c, 0, 85, 82
2, 105728, Note_on_c, 0, 58, 0
2, 105728, Note_on_c, 0, 61, 0
2, 105728, Note_on_c, 0, 58, 74
2, 105728, Note_on_c, 0, 61, 74
2, 105792, Note_on_c, 0, 85, 0
2, 105792, Note_on_c, 0, 82, 69
2, 105856, Note_on_c, 0, 82, 0
2, 105856, Note_on_c, 0, 86, 85
2, 105856, Note_on_c, 0, 54, 0
2, 105856, Note_on_c, 0, 58, 0
2, 105856, Note_on_c, 0, 61, 0
2, 105856, Note_on_c, 0, 54, 71
2, 105920, Note_on_c, 0, 86, 0
2, 105920, Note_on_c, 0, 83, 71
2, 105984, Note_on_c, 0, 83, 0
2, 105984, Note_on_c, 0, 86, 75
2, 105984, Note_on_c, 0, 59, 91
2, 105984, Note_on_c, 0, 62, 91
2, 106048, Note_on_c, 0, 86, 0
2, 106048, Note_on_c, 0, 83, 72
2, 106112, Note_on_c, 0, 83, 0
2, 106112, Note_on_c, 0, 80, 67
2, 106112, Note_on_c, 0, 59, 0
2, 106112, Note_on_c, 0, 62, 0
2, 106112, Note_on_c, 0, 59, 75
2, 106112, Note_on_c, 0, 62, 75
2, 106176, Note_on_c, 0, 80, 0
2, 106176, Note_on_c, 0, 77, 67
2, 106240, Note_on_c, 0, 77, 0
2, 106240, Note_on_c, 0, 78, 79
2, 106240, Note_on_c, 0, 54, 0
2, 106240, Note_on_c, 0, 59, 0
2, 106240, Note_on_c, 0, 62, 0
2, 106240, Note_on_c, 0, 54, 68
2, 106240, Note_on_c, 0, 58, 68
2, 106240, Note_on_c, 0, 61, 68
2, 106368, Note_on_c, 0, 78, 0
2, 106368, Note_on_c, 0, 73, 64
2, 106496, Note_on_c, 0, 73, 0
2, 106496, Note_on_c, 0, 82, 96
2, 106496, Note_on_c, 0, 54, 0
2, 106496, Note_on_c, 0, 58, 0
2, 106496, Note_on_c, 0, 61, 0
2, 106624, Note_on_c, 0, 82, 0
2, 106624, Note_on_c, 0, 78, 70
2, 106752, Note_on_c, 0, 78, 0
2, 106752, Note_on_c, 0, 73, 65
2, 106880, Note_on_c, 0, 73, 0
2, 106880, Note_on_c, 0, 82, 87
2, 107008, Note_on_c, 0, 82, 0
2, 107008, Note_on_c, 0, 66, 79
2, 107008, Note_on_c, 0, 78, 79
2, 107120, Note_on_c, 0, 66, 0
2, 107120, Note_on_c, 0, 78, 0
2, 107136, Note_on_c, 0, 61, 65
2, 107264, Note_on_c, 0, 70, 66
2, 107264, Note_on_c, 0, 61, 0
2, 107392, Note_on_c, 0, 70, 0
2, 107392, Note_on_c, 0, 66, 66
2, 107520, Note_on_c, 0, 66, 0
2, 107520, Note_on_c, 0, 61, 63
2, 107648, Note_on_c, 0, 61, 0
2, 107648, Note_on_c, 0, 70, 91
2, 107776, Note_on_c, 0, 70, 0
2, 107776, Note_on_c, 0, 66, 104
2, 107776, Note_on_c, 0, 78, 104
2, 107888, Note_on_c, 0, 66, 0
2, 107888, Note_on_c, 0, 78, 0
2, 107904, Note_on_c, 0, 73, 67
2, 108032, Note_on_c, 0, 73, 0
2, 108032, Note_on_c, 0, 81, 96
2, 108160, Note_on_c, 0, 81, 0
2, 108160, Note_on_c, 0, 78, 75
2, 108288, Note_on_c, 0, 78, 0
2, 108288, Note_on_c, 0, 73, 65
2, 108416, Note_on_c, 0, 73, 0
2, 108416, Note_on_c, 0, 81, 87
2, 108544, Note_on_c, 0, 81, 0
2, 108544, Note_on_c, 0, 80, 72
2, 108544, Note_on_c, 0, 66, 72
2, 108544, Note_on_c, 0, 71, 72
2, 108672, Note_on_c, 0, 80, 0
2, 108672, Note_on_c, 0, 73, 61
2, 108800, Note_on_c, 0, 73, 0
2, 108800, Note_on_c, 0, 83, 89
2, 108928, Note_on_c, 0, 83, 0
2, 108928, Note_on_c, 0, 80, 71
2, 108928, Note_on_c, 0, 66, 0
2, 108928, Note_on_c, 0, 65, 75
2, 109056, Note_on_c, 0, 80, 0
2, 109056, Note_on_c, 0, 73, 59
2, 109184, Note_on_c, 0, 73, 0
2, 109184, Note_on_c, 0, 83, 91
2, 109312, Note_on_c, 0, 83, 0
2, 109312, Note_on_c, 0, 82, 80
2, 109312, Note_on_c, 0, 65, 0
2, 109312, Note_on_c, 0, 71, 0
2, 109312, Note_on_c, 0, 64, 65
2, 109312, Note_on_c, 0, 67, 65
2, 109440, Note_on_c, 0, 82, 0
2, 109440, Note_on_c, 0, 73, 58
2, 109568, Note_on_c, 0, 73, 0
2, 109568, Note_on_c, 0, 85, 94
2, 109696, Note_on_c, 0, 85, 0
2, 109696, Note_on_c, 0, 82, 73
2, 109696, Note_on_c, 0, 67, 0
2, 109696, Note_on_c, 0, 66, 68
2, 109824, Note_on_c, 0, 82, 0
2, 109824, Note_on_c, 0, 73, 61
2, 109952, Note_on_c, 0, 73, 0
2, 109952, Note_on_c, 0, 85, 90
2, 110080, Note_on_c, 0, 85, 0
2, 110080, Note_on_c, 0, 83, 84
2, 110080, Note_on_c, 0, 64, 0
2, 110080, Note_on_c, 0, 66, 0
2, 110080, Note_on_c, 0, 59, 82
2, 110192, Note_on_c, 0, 83, 0
2, 110192, Note_on_c, 0, 59, 0
2, 110208, Note_on_c, 0, 54, 71
2, 110336, Note_on_c, 0, 54, 0
2, 110336, Note_on_c, 0, 62, 93
2, 110464, Note_on_c, 0, 62, 0
2, 110464, Note_on_c, 0, 59, 78
2, 110592, Note_on_c, 0, 59, 0
2, 110592, Note_on_c, 0, 54, 66
2, 110720, Note_on_c, 0, 62, 66
2, 110720, Note_on_c, 0, 54, 0
2, 110848, Note_on_c, 0, 62, 0
2, 110848, Note_on_c, 0, 76, 95
2, 110848, Note_on_c, 0, 83, 95
2, 110848, Note_on_c, 0, 61, 67
2, 110976, Note_on_c, 0, 61, 0
2, 110976, Note_on_c, 0, 54, 70
2, 111104, Note_on_c, 0, 54, 0
2, 111104, Note_on_c, 0, 64, 93
2, 111232, Note_on_c, 0, 83, 0
2, 111232, Note_on_c, 0, 82, 74
2, 111232, Note_on_c, 0, 64, 0
2, 111232, Note_on_c, 0, 61, 71
2, 111360, Note_on_c, 0, 61, 0
2, 111360, Note_on_c, 0, 54, 65
2, 111488, Note_on_c, 0, 54, 0
2, 111488, Note_on_c, 0, 64, 94
2, 111616, Note_on_c, 0, 76, 0
2, 111616, Note_on_c, 0, 82, 0
2, 111616, Note_on_c, 0, 72, 76
2, 111616, Note_on_c, 0, 81, 76
2, 111616, Note_on_c, 0, 64, 0
2, 111616, Note_on_c, 0, 63, 69
2, 111744, Note_on_c, 0, 63, 0
2, 111744, Note_on_c, 0, 54, 69
2, 111872, Note_on_c, 0, 54, 0
2, 111872, Note_on_c, 0, 66, 100
2, 112000, Note_on_c, 0, 72, 0
2, 112000, Note_on_c, 0, 66, 0
2, 112000, Note_on_c, 0, 63, 91
2, 112000, Note_on_c, 0, 71, 91
2, 112128, Note_on_c, 0, 63, 0
2, 112128, Note_on_c, 0, 54, 78
2, 112256, Note_on_c, 0, 54, 0
2, 112256, Note_on_c, 0, 66, 71
2, 112384, Note_on_c, 0, 81, 0
2, 112384, Note_on_c, 0, 76, 79
2, 112384, Note_on_c, 0, 66, 0
2, 112384, Note_on_c, 0, 71, 0
2, 112384, Note_on_c, 0, 64, 70
2, 112496, Note_on_c, 0, 76, 0
2, 112496, Note_on_c, 0, 64, 0
2, 112512, Note_on_c, 0, 71, 66
2, 112640, Note_on_c, 0, 71, 0
2, 112640, Note_on_c, 0, 79, 90
2, 112768, Note_on_c, 0, 79, 0
2, 112768, Note_on_c, 0, 76, 76
2, 112896, Note_on_c, 0, 76, 0
2, 112896, Note_on_c, 0, 71, 65
2, 113024, Note_on_c, 0, 71, 0
2, 113024, Note_on_c, 0, 79, 85
2, 113152, Note_on_c, 0, 79, 0
2, 113152, Note_on_c, 0, 78, 74
2, 113152, Note_on_c, 0, 59, 65
2, 113152, Note_on_c, 0, 64, 65
2, 113280, Note_on_c, 0, 78, 0
2, 113280, Note_on_c, 0, 71, 59
2, 113408, Note_on_c, 0, 71, 0
2, 113408, Note_on_c, 0, 81, 87
2, 113536, Note_on_c, 0, 81, 0
2, 113536, Note_on_c, 0, 78, 72
2, 113536, Note_on_c, 0, 64, 0
2, 113536, Note_on_c, 0, 63, 71
2, 113664, Note_on_c, 0, 78, 0
2, 113664, Note_on_c, 0, 71, 66
2, 113792, Note_on_c, 0, 71, 0
2, 113792, Note_on_c, 0, 81, 87
2, 113920, Note_on_c, 0, 81, 0
2, 113920, Note_on_c, 0, 80, 73
2, 113920, Note_on_c, 0, 59, 0
2, 113920, Note_on_c, 0, 63, 0
2, 113920, Note_on_c, 0, 53, 75
2, 113920, Note_on_c, 0, 62, 75
2, 114048, Note_on_c, 0, 80, 0
2, 114048, Note_on_c, 0, 71, 57
2, 114176, Note_on_c, 0, 71, 0
2, 114176, Note_on_c, 0, 83, 91
2, 114304, Note_on_c, 0, 83, 0
2, 114304, Note_on_c, 0, 80, 69
2, 114304, Note_on_c, 0, 53, 0
2, 114304, Note_on_c, 0, 52, 81
2, 114432, Note_on_c, 0, 80, 0
2, 114432, Note_on_c, 0, 71, 61
2, 114560, Note_on_c, 0, 71, 0
2, 114560, Note_on_c, 0, 83, 90
2, 114688, Note_on_c, 0, 83, 0
2, 114688, Note_on_c, 0, 81, 87
2, 114688, Note_on_c, 0, 52, 0
2, 114688, Note_on_c, 0, 62, 0
2, 114688, Note_on_c, 0, 61, 88
2, 114800, Note_on_c, 0, 81, 0
2, 114800, Note_on_c, 0, 61, 0
2, 114816, Note_on_c, 0, 57, 72
2, 114944, Note_on_c, 0, 64, 71
2, 114944, Note_on_c, 0, 57, 0
2, 115072, Note_on_c, 0, 64, 0
2, 115072, Note_on_c, 0, 61, 66
2, 115200, Note_on_c, 0, 61, 0
2, 115200, Note_on_c, 0, 57, 69
2, 115328, Note_on_c, 0, 64, 72
2, 115328, Note_on_c, 0, 57, 0
2, 115456, Note_on_c, 0, 64, 0
2, 115456, Note_on_c, 0, 81, 101
2, 115456, Note_on_c, 0, 62, 70
2, 115456, Note_on_c, 0, 70, 70
2, 115584, Note_on_c, 0, 62, 0
2, 115584, Note_on_c, 0, 57, 69
2, 115712, Note_on_c, 0, 57, 0
2, 115712, Note_on_c, 0, 65, 76
2, 115840, Note_on_c, 0, 65, 0
2, 115840, Note_on_c, 0, 70, 0
2, 115840, Note_on_c, 0, 63, 80
2, 115840, Note_on_c, 0, 71, 80
2, 115968, Note_on_c, 0, 63, 0
2, 115968, Note_on_c, 0, 57, 79
2, 116096, Note_on_c, 0, 57, 0
2, 116096, Note_on_c, 0, 66, 74
2, 116224, Note_on_c, 0, 81, 0
2, 116224, Note_on_c, 0, 81, 82
2, 116224, Note_on_c, 0, 66, 0
2, 116224, Note_on_c, 0, 71, 0
2, 116224, Note_on_c, 0, 64, 75
2, 116224, Note_on_c, 0, 72, 75
2, 116352, Note_on_c, 0, 64, 0
2, 116352, Note_on_c, 0, 57, 78
2, 116480, Note_on_c, 0, 57, 0
2, 116480, Note_on_c, 0, 67, 81
2, 116608, Note_on_c, 0, 73, 74
2, 116608, Note_on_c, 0, 67, 0
2, 116608, Note_on_c, 0, 72, 0
2, 116608, Note_on_c, 0, 64, 66
2, 116736, Note_on_c, 0, 64, 0
2, 116736, Note_on_c, 0, 57, 61
2, 116864, Note_on_c, 0, 57, 0
2, 116864, Note_on_c, 0, 67, 91
2, 116992, Note_on_c, 0, 73, 0
2, 116992, Note_on_c, 0, 81, 0
2, 116992, Note_on_c, 0, 74, 76
2, 116992, Note_on_c, 0, 81, 76
2, 116992, Note_on_c, 0, 67, 0
2, 116992, Note_on_c, 0, 66, 73
2, 117120, Note_on_c, 0, 66, 0
2, 117120, Note_on_c, 0, 57, 70
2, 117248, Note_on_c, 0, 69, 72
2, 117248, Note_on_c, 0, 57, 0
2, 117376, Note_on_c, 0, 69, 0
2, 117376, Note_on_c, 0, 74, 0
2, 117376, Note_on_c, 0, 75, 78
2, 117376, Note_on_c, 0, 65, 65
2, 117504, Note_on_c, 0, 65, 0
2, 117504, Note_on_c, 0, 57, 69
2, 117632, Note_on_c, 0, 69, 75
2, 117632, Note_on_c, 0, 57, 0
2, 117760, Note_on_c, 0, 69, 0
2, 117760, Note_on_c, 0, 75, 0
2, 117760, Note_on_c, 0, 81, 0
2, 117760, Note_on_c, 0, 76, 78
2, 117760, Note_on_c, 0, 81, 78
2, 117760, Note_on_c, 0, 64, 66
2, 117888, Note_on_c, 0, 64, 0
2, 117888, Note_on_c, 0, 57, 73
2, 118016, Note_on_c, 0, 69, 81
2, 118016, Note_on_c, 0, 57, 0
2, 118144, Note_on_c, 0, 69, 0
2, 118144, Note_on_c, 0, 76, 0
2, 118144, Note_on_c, 0, 78, 74
2, 118144, Note_on_c, 0, 62, 65
2, 118272, Note_on_c, 0, 62, 0
2, 118272, Note_on_c, 0, 57, 67
2, 118400, Note_on_c, 0, 69, 74
2, 118400, Note_on_c, 0, 57, 0
2, 118528, Note_on_c, 0, 69, 0
2, 118528, Note_on_c, 0, 78, 0
2, 118528, Note_on_c, 0, 81, 0
2, 118528, Note_on_c, 0, 79, 69
2, 118528, Note_on_c, 0, 57, 69
2, 118528, Note_on_c, 0, 61, 69
2, 118592, Note_on_c, 0, 79, 0
2, 118592, Note_on_c, 0, 81, 83
2, 118656, Note_on_c, 0, 81, 0
2, 118656, Note_on_c, 0, 83, 85
2, 118720, Note_on_c, 0, 83, 0
2, 118720, Note_on_c, 0, 81, 70
2, 118720, Note_on_c, 0, 57, 0
2, 118720, Note_on_c, 0, 61, 0
2, 118784, Note_on_c, 0, 81, 0
2, 118784, Note_on_c, 0, 79, 67
2, 118848, Note_on_c, 0, 79, 0
2, 118848, Note_on_c, 0, 78, 74
2, 118912, Note_on_c, 0, 78, 0
2, 118912, Note_on_c, 0, 76, 69
2, 118976, Note_on_c, 0, 76, 0
2, 118976, Note_on_c, 0, 78, 76
2, 119040, Note_on_c, 0, 78, 0
2, 119040, Note_on_c, 0, 79, 83
2, 119104, Note_on_c, 0, 79, 0
2, 119104, Note_on_c, 0, 78, 76
2, 119168, Note_on_c, 0, 78, 0
2, 119168, Note_on_c, 0, 76, 70
2, 119232, Note_on_c, 0, 76, 0
2, 119232, Note_on_c, 0, 74, 68
2, 119296, Note_on_c, 0, 74, 0
2, 119296, Note_on_c, 0, 73, 72
2, 119360, Note_on_c, 0, 73, 0
2, 119360, Note_on_c, 0, 74, 79
2, 119424, Note_on_c, 0, 74, 0
2, 119424, Note_on_c, 0, 76, 81
2, 119488, Note_on_c, 0, 76, 0
2, 119488, Note_on_c, 0, 74, 75
2, 119552, Note_on_c, 0, 74, 0
2, 119552, Note_on_c, 0, 73, 74
2, 119616, Note_on_c, 0, 73, 0
2, 119616, Note_on_c, 0, 71, 67
2, 119680, Note_on_c, 0, 71, 0
2, 119680, Note_on_c, 0, 69, 68
2, 119744, Note_on_c, 0, 69, 0
2, 119744, Note_on_c, 0, 71, 79
2, 119808, Note_on_c, 0, 71, 0
2, 119808, Note_on_c, 0, 69, 71
2, 119872, Note_on_c, 0, 69, 0
2, 119872, Note_on_c, 0, 67, 71
2, 119936, Note_on_c, 0, 67, 0
2, 119936, Note_on_c, 0, 66, 69
2, 119936, Note_on_c, 0, 45, 67
2, 120000, Note_on_c, 0, 66, 0
2, 120000, Note_on_c, 0, 64, 73
2, 120064, Note_on_c, 0, 64, 0
2, 120064, Note_on_c, 0, 62, 72
2, 120064, Note_on_c, 0, 45, 0
2, 120064, Note_on_c, 0, 50, 77
2, 120192, Note_on_c, 0, 62, 0
2, 120192, Note_on_c, 0, 50, 0
2, 120192, Note_on_c, 0, 45, 78
2, 120192, Note_on_c, 0, 57, 78
2, 120320, Note_on_c, 0, 62, 69
2, 120320, Note_on_c, 0, 45, 0
2, 120320, Note_on_c, 0, 57, 0
2, 120320, Note_on_c, 0, 50, 64
2, 120448, Note_on_c, 0, 62, 0
2, 120448, Note_on_c, 0, 66, 79
2, 120448, Note_on_c, 0, 50, 0
2, 120448, Note_on_c, 0, 54, 80
2, 120576, Note_on_c, 0, 66, 0
2, 120576, Note_on_c, 0, 54, 0
2, 120576, Note_on_c, 0, 62, 70
2, 120576, Note_on_c, 0, 50, 70
2, 120704, Note_on_c, 0, 62, 0
2, 120704, Note_on_c, 0, 66, 85
2, 120704, Note_on_c, 0, 50, 0
2, 120704, Note_on_c, 0, 54, 80
2, 120832, Note_on_c, 0, 66, 0
2, 120832, Note_on_c, 0, 69, 86
2, 120832, Note_on_c, 0, 54, 0
2, 120832, Note_on_c, 0, 57, 78
2, 121088, Note_on_c, 0, 69, 0
2, 121088, Note_on_c, 0, 69, 74
2, 121088, Note_on_c, 0, 57, 0
2, 121088, Note_on_c, 0, 57, 79
2, 121216, Note_on_c, 0, 69, 0
2, 121216, Note_on_c, 0, 69, 74
2, 121216, Note_on_c, 0, 57, 0
2, 121216, Note_on_c, 0, 57, 76
2, 121472, Note_on_c, 0, 69, 0
2, 121472, Note_on_c, 0, 67, 80
2, 121472, Note_on_c, 0, 73, 80
2, 121472, Note_on_c, 0, 74, 80
2, 121472, Note_on_c, 0, 57, 0
2, 121514, Note_on_c, 0, 73, 0
2, 121514, Note_on_c, 0, 74, 0
2, 121514, Note_on_c, 0, 73, 73
2, 121557, Note_on_c, 0, 73, 0
2, 121557, Note_on_c, 0, 71, 80
2, 121557, Note_on_c, 0, 73, 80
2, 121600, Note_on_c, 0, 67, 0
2, 121600, Note_on_c, 0, 71, 0
2, 121600, Note_on_c, 0, 73, 0
2, 121600, Note_on_c, 0, 66, 83
2, 121600, Note_on_c, 0, 74, 83
2, 121791, Note_on_c, 0, 66, 0
2, 121791, Note_on_c, 0, 74, 0
2, 121856, Note_on_c, 0, 76, 83
2, 121856, Note_on_c, 0, 78, 83
2, 121856, Note_on_c, 0, 61, 67
2, 121898, Note_on_c, 0, 76, 0
2, 121898, Note_on_c, 0, 78, 0
2, 121898, Note_on_c, 0, 76, 75
2, 121941, Note_on_c, 0, 76, 0
2, 121941, Note_on_c, 0, 74, 79
2, 121941, Note_on_c, 0, 76, 79
2, 121984, Note_on_c, 0, 74, 0
2, 121984, Note_on_c, 0, 76, 0
2, 121984, Note_on_c, 0, 78, 81
2, 121984, Note_on_c, 0, 61, 0
2, 121984, Note_on_c, 0, 62, 77
2, 122112, Note_on_c, 0, 78, 0
2, 122112, Note_on_c, 0, 62, 0
2, 122240, Note_on_c, 0, 81, 69
2, 122240, Note_on_c, 0, 55, 70
2, 122240, Note_on_c, 0, 64, 70
2, 122304, Note_on_c, 0, 81, 0
2, 122304, Note_on_c, 0, 79, 72
2, 122368, Note_on_c, 0, 79, 0
2, 122368, Note_on_c, 0, 78, 71
2, 122368, Note_on_c, 0, 55, 0
2, 122368, Note_on_c, 0, 64, 0
2, 122368, Note_on_c, 0, 57, 72
2, 122368, Note_on_c, 0, 62, 72
2, 122752, Note_on_c, 0, 78, 0
2, 122752, Note_on_c, 0, 76, 70
2, 122752, Note_on_c, 0, 57, 0
2, 122752, Note_on_c, 0, 62, 0
2, 122752, Note_on_c, 0, 61, 73
2, 122880, Note_on_c, 0, 76, 0
2, 122880, Note_on_c, 0, 61, 0
2, 123008, Note_on_c, 0, 47, 66
2, 123008, Note_on_c, 0, 59, 66
2, 123136, Note_on_c, 0, 64, 64
2, 123136, Note_on_c, 0, 47, 0
2, 123136, Note_on_c, 0, 59, 0
2, 123136, Note_on_c, 0, 52, 69
2, 123264, Note_on_c, 0, 64, 0
2, 123264, Note_on_c, 0, 52, 0
2, 123264, Note_on_c, 0, 47, 82
2, 123264, Note_on_c, 0, 59, 82
2, 123392, Note_on_c, 0, 64, 63
2, 123392, Note_on_c, 0, 47, 0
2, 123392, Note_on_c, 0, 59, 0
2, 123392, Note_on_c, 0, 52, 69
2, 123520, Note_on_c, 0, 64, 0
2, 123520, Note_on_c, 0, 67, 82
2, 123520, Note_on_c, 0, 52, 0
2, 123520, Note_on_c, 0, 55, 76
2, 123648, Note_on_c, 0, 67, 0
2, 123648, Note_on_c, 0, 55, 0
2, 123648, Note_on_c, 0, 64, 69
2, 123648, Note_on_c, 0, 52, 69
2, 123776, Note_on_c, 0, 64, 0
2, 123776, Note_on_c, 0, 67, 78
2, 123776, Note_on_c, 0, 52, 0
2, 123776, Note_on_c, 0, 55, 80
2, 123904, Note_on_c, 0, 67, 0
2, 123904, Note_on_c, 0, 71, 82
2, 123904, Note_on_c, 0, 55, 0
2, 123904, Note_on_c, 0, 59, 82
2, 124160, Note_on_c, 0, 71, 0
2, 124160, Note_on_c, 0, 71, 78
2, 124160, Note_on_c, 0, 59, 0
2, 124160, Note_on_c, 0, 59, 72
2, 124288, Note_on_c, 0, 71, 0
2, 124288, Note_on_c, 0, 71, 73
2, 124288, Note_on_c, 0, 59, 0
2, 124288, Note_on_c, 0, 59, 77
2, 124544, Note_on_c, 0, 71, 0
2, 124544, Note_on_c, 0, 66, 84
2, 124544, Note_on_c, 0, 69, 84
2, 124544, Note_on_c, 0, 75, 84
2, 124544, Note_on_c, 0, 59, 0
2, 124672, Note_on_c, 0, 66, 0
2, 124672, Note_on_c, 0, 69, 0
2, 124672, Note_on_c, 0, 75, 0
2, 124672, Note_on_c, 0, 67, 84
2, 124672, Note_on_c, 0, 71, 84
2, 124672, Note_on_c, 0, 78, 84
2, 124736, Note_on_c, 0, 78, 0
2, 124736, Note_on_c, 0, 76, 70
2, 124800, Note_on_c, 0, 76, 0
2, 124800, Note_on_c, 0, 79, 82
2, 124864, Note_on_c, 0, 79, 0
2, 124864, Note_on_c, 0, 78, 74
2, 124928, Note_on_c, 0, 67, 0
2, 124928, Note_on_c, 0, 71, 0
2, 124928, Note_on_c, 0, 78, 0
2, 124928, Note_on_c, 0, 81, 80
2, 124992, Note_on_c, 0, 81, 0
2, 124992, Note_on_c, 0, 79, 74
2, 125056, Note_on_c, 0, 79, 0
2, 125056, Note_on_c, 0, 83, 84
2, 125184, Note_on_c, 0, 83, 0
2, 125312, Note_on_c, 0, 73, 69
2, 125312, Note_on_c, 0, 57, 65
2, 125312, Note_on_c, 0, 64, 65
2, 125440, Note_on_c, 0, 73, 0
2, 125440, Note_on_c, 0, 76, 77
2, 125440, Note_on_c, 0, 57, 0
2, 125440, Note_on_c, 0, 64, 0
2, 125440, Note_on_c, 0, 62, 82
2, 125440, Note_on_c, 0, 67, 82
2, 125824, Note_on_c, 0, 76, 0
2, 125824, Note_on_c, 0, 66, 73
2, 125824, Note_on_c, 0, 74, 73
2, 125824, Note_on_c, 0, 62, 0
2, 125824, Note_on_c, 0, 67, 0
2, 125952, Note_on_c, 0, 66, 0
2, 125952, Note_on_c, 0, 74, 0
2, 126080, Note_on_c, 0, 45, 69
2, 126208, Note_on_c, 0, 45, 0
2, 126208, Note_on_c, 0, 50, 78
2, 126336, Note_on_c, 0, 74, 71
2, 126336, Note_on_c, 0, 50, 0
2, 126336, Note_on_c, 0, 45, 72
2, 126464, Note_on_c, 0, 74, 0
2, 126464, Note_on_c, 0, 78, 76
2, 126464, Note_on_c, 0, 45, 0
2, 126464, Note_on_c, 0, 50, 79
2, 126592, Note_on_c, 0, 78, 0
2, 126592, Note_on_c, 0, 81, 81
2, 126592, Note_on_c, 0, 50, 0
2, 126592, Note_on_c, 0, 54, 80
2, 126720, Note_on_c, 0, 81, 0
2, 126720, Note_on_c, 0, 54, 0
2, 126720, Note_on_c, 0, 78, 69
2, 126720, Note_on_c, 0, 50, 67
2, 126848, Note_on_c, 0, 78, 0
2, 126848, Note_on_c, 0, 86, 103
2, 126848, Note_on_c, 0, 50, 0
2, 126848, Note_on_c, 0, 54, 91
2, 126960, Note_on_c, 0, 86, 0
2, 126960, Note_on_c, 0, 54, 0
2, 126976, Note_on_c, 0, 57, 80
2, 127040, Note_on_c, 0, 85, 66
2, 127104, Note_on_c, 0, 85, 0
2, 127104, Note_on_c, 0, 88, 82
2, 127168, Note_on_c, 0, 88, 0
2, 127168, Note_on_c, 0, 86, 70
2, 127232, Note_on_c, 0, 86, 0
2, 127232, Note_on_c, 0, 85, 71
2, 127232, Note_on_c, 0, 57, 0
2, 127232, Note_on_c, 0, 57, 75
2, 127296, Note_on_c, 0, 85, 0
2, 127296, Note_on_c, 0, 83, 69
2, 127360, Note_on_c, 0, 83, 0
2, 127360, Note_on_c, 0, 81, 73
2, 127360, Note_on_c, 0, 57, 0
2, 127360, Note_on_c, 0, 57, 73
2, 127424, Note_on_c, 0, 81, 0
2, 127424, Note_on_c, 0, 83, 81
2, 127488, Note_on_c, 0, 83, 0
2, 127488, Note_on_c, 0, 81, 76
2, 127552, Note_on_c, 0, 81, 0
2, 127552, Note_on_c, 0, 79, 70
2, 127616, Note_on_c, 0, 79, 0
2, 127616, Note_on_c, 0, 67, 71
2, 127616, Note_on_c, 0, 78, 71
2, 127616, Note_on_c, 0, 57, 0
2, 127680, Note_on_c, 0, 78, 0
2, 127680, Note_on_c, 0, 76, 72
2, 127744, Note_on_c, 0, 76, 0
2, 127744, Note_on_c, 0, 74, 72
2, 127808, Note_on_c, 0, 67, 0
2, 127808, Note_on_c, 0, 66, 77
2, 127872, Note_on_c, 0, 66, 0
2, 127872, Note_on_c, 0, 69, 78
2, 127936, Note_on_c, 0, 69, 0
2, 127936, Note_on_c, 0, 74, 0
2, 127936, Note_on_c, 0, 67, 63
2, 128000, Note_on_c, 0, 67, 0
2, 128000, Note_on_c, 0, 66, 84
2, 128000, Note_on_c, 0, 74, 84
2, 128064, Note_on_c, 0, 66, 0
2, 128064, Note_on_c, 0, 74, 0
2, 128064, Note_on_c, 0, 64, 66
2, 128128, Note_on_c, 0, 64, 0
2, 128128, Note_on_c, 0, 62, 93
2, 128128, Note_on_c, 0, 74, 93
2, 128192, Note_on_c, 0, 62, 0
2, 128192, Note_on_c, 0, 74, 0
2, 128192, Note_on_c, 0, 64, 59
2, 128256, Note_on_c, 0, 64, 0
2, 128256, Note_on_c, 0, 62, 72
2, 128320, Note_on_c, 0, 62, 0
2, 128320, Note_on_c, 0, 60, 73
2, 128384, Note_on_c, 0, 60, 0
2, 128384, Note_on_c, 0, 62, 79
2, 128384, Note_on_c, 0, 59, 70
2, 128448, Note_on_c, 0, 62, 0
2, 128448, Note_on_c, 0, 59, 0
2, 128448, Note_on_c, 0, 57, 72
2, 128512, Note_on_c, 0, 67, 67
2, 128512, Note_on_c, 0, 57, 0
2, 128512, Note_on_c, 0, 55, 71
2, 128640, Note_on_c, 0, 67, 0
2, 128640, Note_on_c, 0, 62, 69
2, 128640, Note_on_c, 0, 55, 0
2, 128640, Note_on_c, 0, 43, 66
2, 128768, Note_on_c, 0, 62, 0
2, 128768, Note_on_c, 0, 67, 88
2, 128768, Note_on_c, 0, 43, 0
2, 128768, Note_on_c, 0, 47, 75
2, 128896, Note_on_c, 0, 67, 0
2, 128896, Note_on_c, 0, 71, 91
2, 128896, Note_on_c, 0, 47, 0
2, 128896, Note_on_c, 0, 50, 81
2, 129024, Note_on_c, 0, 71, 0
2, 129024, Note_on_c, 0, 50, 0
2, 129024, Note_on_c, 0, 67, 69
2, 129024, Note_on_c, 0, 47, 70
2, 129152, Note_on_c, 0, 67, 0
2, 129152, Note_on_c, 0, 71, 94
2, 129152, Note_on_c, 0, 47, 0
2, 129152, Note_on_c, 0, 55, 98
2, 129264, Note_on_c, 0, 71, 0
2, 129264, Note_on_c, 0, 55, 0
2, 129280, Note_on_c, 0, 74, 84
2, 129344, Note_on_c, 0, 54, 68
2, 129408, Note_on_c, 0, 54, 0
2, 129408, Note_on_c, 0, 57, 78
2, 129472, Note_on_c, 0, 57, 0
2, 129472, Note_on_c, 0, 55, 70
2, 129536, Note_on_c, 0, 74, 0
2, 129536, Note_on_c, 0, 74, 77
2, 129536, Note_on_c, 0, 55, 0
2, 129536, Note_on_c, 0, 54, 77
2, 129600, Note_on_c, 0, 74, 0
2, 129600, Note_on_c, 0, 54, 0
2, 129600, Note_on_c, 0, 52, 75
2, 129664, Note_on_c, 0, 74, 70
2, 129664, Note_on_c, 0, 52, 0
2, 129664, Note_on_c, 0, 50, 74
2, 129728, Note_on_c, 0, 74, 0
2, 129728, Note_on_c, 0, 50, 0
2, 129728, Note_on_c, 0, 52, 79
2, 129792, Note_on_c, 0, 52, 0
2, 129792, Note_on_c, 0, 50, 69
2, 129856, Note_on_c, 0, 50, 0
2, 129856, Note_on_c, 0, 48, 78
2, 129920, Note_on_c, 0, 72, 67
2, 129920, Note_on_c, 0, 48, 0
2, 129920, Note_on_c, 0, 47, 79
2, 129984, Note_on_c, 0, 47, 0
2, 129984, Note_on_c, 0, 45, 72
2, 130048, Note_on_c, 0, 45, 0
2, 130048, Note_on_c, 0, 43, 68
2, 130112, Note_on_c, 0, 72, 0
2, 130112, Note_on_c, 0, 71, 72
2, 130112, Note_on_c, 0, 43, 0
2, 130176, Note_on_c, 0, 71, 0
2, 130176, Note_on_c, 0, 74, 82
2, 130240, Note_on_c, 0, 74, 0
2, 130240, Note_on_c, 0, 72, 71
2, 130304, Note_on_c, 0, 72, 0
2, 130304, Note_on_c, 0, 60, 74
2, 130304, Note_on_c, 0, 71, 74
2, 130368, Note_on_c, 0, 71, 0
2, 130368, Note_on_c, 0, 69, 68
2, 130432, Note_on_c, 0, 69, 0
2, 130432, Note_on_c, 0, 67, 66
2, 130496, Note_on_c, 0, 60, 0
2, 130496, Note_on_c, 0, 67, 0
2, 130496, Note_on_c, 0, 59, 68
2, 130560, Note_on_c, 0, 59, 0
2, 130560, Note_on_c, 0, 62, 69
2, 130624, Note_on_c, 0, 62, 0
2, 130624, Note_on_c, 0, 60, 69
2, 130688, Note_on_c, 0, 60, 0
2, 130688, Note_on_c, 0, 84, 95
2, 130688, Note_on_c, 0, 59, 67
2, 130752, Note_on_c, 0, 59, 0
2, 130752, Note_on_c, 0, 57, 74
2, 130816, Note_on_c, 0, 57, 0
2, 130816, Note_on_c, 0, 55, 77
2, 130880, Note_on_c, 0, 84, 0
2, 130880, Note_on_c, 0, 83, 80
2, 130880, Note_on_c, 0, 55, 0
2, 130944, Note_on_c, 0, 83, 0
2, 130944, Note_on_c, 0, 86, 81
2, 131008, Note_on_c, 0, 86, 0
2, 131008, Note_on_c, 0, 84, 68
2, 131072, Note_on_c, 0, 84, 0
2, 131072, Note_on_c, 0, 72, 72
2, 131072, Note_on_c, 0, 83, 72
2, 131136, Note_on_c, 0, 83, 0
2, 131136, Note_on_c, 0, 81, 69
2, 131200, Note_on_c, 0, 81, 0
2, 131200, Note_on_c, 0, 80, 71
2, 131264, Note_on_c, 0, 72, 0
2, 131264, Note_on_c, 0, 80, 0
2, 131264, Note_on_c, 0, 71, 55
2, 131328, Note_on_c, 0, 71, 0
2, 131328, Note_on_c, 0, 76, 83
2, 131392, Note_on_c, 0, 76, 0
2, 131392, Note_on_c, 0, 74, 73
2, 131456, Note_on_c, 0, 74, 0
2, 131456, Note_on_c, 0, 72, 72
2, 131520, Note_on_c, 0, 72, 0
2, 131520, Note_on_c, 0, 71, 72
2, 131584, Note_on_c, 0, 71, 0
2, 131584, Note_on_c, 0, 69, 69
2, 131648, Note_on_c, 0, 69, 0
2, 131648, Note_on_c, 0, 72, 84
2, 131712, Note_on_c, 0, 72, 0
2, 131712, Note_on_c, 0, 76, 84
2, 131776, Note_on_c, 0, 76, 0
2, 131776, Note_on_c, 0, 74, 68
2, 131840, Note_on_c, 0, 74, 0
2, 131840, Note_on_c, 0, 62, 69
2, 131840, Note_on_c, 0, 72, 69
2, 131904, Note_on_c, 0, 72, 0
2, 131904, Note_on_c, 0, 71, 72
2, 131968, Note_on_c, 0, 71, 0
2, 131968, Note_on_c, 0, 69, 73
2, 132032, Note_on_c, 0, 62, 0
2, 132032, Note_on_c, 0, 69, 0
2, 132032, Note_on_c, 0, 60, 55
2, 132096, Note_on_c, 0, 60, 0
2, 132096, Note_on_c, 0, 64, 82
2, 132160, Note_on_c, 0, 64, 0
2, 132160, Note_on_c, 0, 62, 69
2, 132224, Note_on_c, 0, 62, 0
2, 132224, Note_on_c, 0, 86, 99
2, 132224, Note_on_c, 0, 60, 68
2, 132288, Note_on_c, 0, 60, 0
2, 132288, Note_on_c, 0, 59, 77
2, 132352, Note_on_c, 0, 59, 0
2, 132352, Note_on_c, 0, 57, 73
2, 132416, Note_on_c, 0, 86, 0
2, 132416, Note_on_c, 0, 84, 74
2, 132416, Note_on_c, 0, 57, 0
2, 132480, Note_on_c, 0, 84, 0
2, 132480, Note_on_c, 0, 88, 84
2, 132544, Note_on_c, 0, 88, 0
2, 132544, Note_on_c, 0, 86, 73
2, 132608, Note_on_c, 0, 86, 0
2, 132608, Note_on_c, 0, 74, 73
2, 132608, Note_on_c, 0, 84, 73
2, 132672, Note_on_c, 0, 84, 0
2, 132672, Note_on_c, 0, 83, 72
2, 132736, Note_on_c, 0, 83, 0
2, 132736, Note_on_c, 0, 82, 69
2, 132800, Note_on_c, 0, 74, 0
2, 132800, Note_on_c, 0, 82, 0
2, 132800, Note_on_c, 0, 73, 58
2, 132864, Note_on_c, 0, 73, 0
2, 132864, Note_on_c, 0, 78, 84
2, 132928, Note_on_c, 0, 78, 0
2, 132928, Note_on_c, 0, 76, 75
2, 132992, Note_on_c, 0, 76, 0
2, 132992, Note_on_c, 0, 74, 69
2, 133056, Note_on_c, 0, 74, 0
2, 133056, Note_on_c, 0, 73, 68
2, 133120, Note_on_c, 0, 73, 0
2, 133120, Note_on_c, 0, 71, 72
2, 133184, Note_on_c, 0, 71, 0
2, 133184, Note_on_c, 0, 74, 83
2, 133248, Note_on_c, 0, 74, 0
2, 133248, Note_on_c, 0, 78, 82
2, 133312, Note_on_c, 0, 78, 0
2, 133312, Note_on_c, 0, 76, 73
2, 133376, Note_on_c, 0, 76, 0
2, 133376, Note_on_c, 0, 64, 69
2, 133376, Note_on_c, 0, 74, 69
2, 133440, Note_on_c, 0, 74, 0
2, 133440, Note_on_c, 0, 73, 68
2, 133504, Note_on_c, 0, 73, 0
2, 133504, Note_on_c, 0, 71, 72
2, 133568, Note_on_c, 0, 64, 0
2, 133568, Note_on_c, 0, 71, 0
2, 133568, Note_on_c, 0, 62, 54
2, 133632, Note_on_c, 0, 62, 0
2, 133632, Note_on_c, 0, 67, 86
2, 133696, Note_on_c, 0, 67, 0
2, 133696, Note_on_c, 0, 66, 75
2, 133760, Note_on_c, 0, 66, 0
2, 133760, Note_on_c, 0, 78, 96
2, 133760, Note_on_c, 0, 64, 71
2, 133824, Note_on_c, 0, 64, 0
2, 133824, Note_on_c, 0, 62, 71
2, 133888, Note_on_c, 0, 62, 0
2, 133888, Note_on_c, 0, 61, 69
2, 133952, Note_on_c, 0, 78, 0
2, 133952, Note_on_c, 0, 76, 75
2, 133952, Note_on_c, 0, 61, 0
2, 134016, Note_on_c, 0, 76, 0
2, 134016, Note_on_c, 0, 79, 81
2, 134080, Note_on_c, 0, 79, 0
2, 134080, Note_on_c, 0, 78, 75
2, 134144, Note_on_c, 0, 78, 0
2, 134144, Note_on_c, 0, 66, 70
2, 134144, Note_on_c, 0, 76, 70
2, 134208, Note_on_c, 0, 76, 0
2, 134208, Note_on_c, 0, 74, 67
2, 134272, Note_on_c, 0, 74, 0
2, 134272, Note_on_c, 0, 73, 69
2, 134336, Note_on_c, 0, 66, 0
2, 134336, Note_on_c, 0, 73, 0
2, 134336, Note_on_c, 0, 64, 55
2, 134400, Note_on_c, 0, 64, 0
2, 134400, Note_on_c, 0, 69, 85
2, 134464, Note_on_c, 0, 69, 0
2, 134464, Note_on_c, 0, 67, 74
2, 134528, Note_on_c, 0, 67, 0
2, 134528, Note_on_c, 0, 79, 95
2, 134528, Note_on_c, 0, 66, 68
2, 134592, Note_on_c, 0, 79, 0
2, 134592, Note_on_c, 0, 66, 0
2, 134592, Note_on_c, 0, 64, 67
2, 134656, Note_on_c, 0, 78, 69
2, 134656, Note_on_c, 0, 64, 0
2, 134656, Note_on_c, 0, 62, 66
2, 134720, Note_on_c, 0, 78, 0
2, 134720, Note_on_c, 0, 74, 68
2, 134720, Note_on_c, 0, 62, 0
2, 134784, Note_on_c, 0, 74, 0
2, 134784, Note_on_c, 0, 78, 80
2, 134848, Note_on_c, 0, 78, 0
2, 134848, Note_on_c, 0, 81, 88
2, 134912, Note_on_c, 0, 81, 0
2, 134912, Note_on_c, 0, 86, 94
2, 134912, Note_on_c, 0, 64, 66
2, 134912, Note_on_c, 0, 67, 66
2, 134976, Note_on_c, 0, 86, 0
2, 134976, Note_on_c, 0, 85, 73
2, 135040, Note_on_c, 0, 85, 0
2, 135040, Note_on_c, 0, 64, 0
2, 135040, Note_on_c, 0, 67, 0
2, 135040, Note_on_c, 0, 62, 74
2, 135040, Note_on_c, 0, 66, 74
2, 135104, Note_on_c, 0, 71, 67
2, 135168, Note_on_c, 0, 71, 0
2, 135168, Note_on_c, 0, 74, 81
2, 135232, Note_on_c, 0, 74, 0
2, 135232, Note_on_c, 0, 78, 87
2, 135296, Note_on_c, 0, 78, 0
2, 135296, Note_on_c, 0, 83, 89
2, 135296, Note_on_c, 0, 62, 0
2, 135296, Note_on_c, 0, 66, 0
2, 135296, Note_on_c, 0, 61, 69
2, 135296, Note_on_c, 0, 64, 69
2, 135360, Note_on_c, 0, 83, 0
2, 135360, Note_on_c, 0, 81, 73
2, 135424, Note_on_c, 0, 81, 0
2, 135424, Note_on_c, 0, 61, 0
2, 135424, Note_on_c, 0, 64, 0
2, 135424, Note_on_c, 0, 59, 73
2, 135424, Note_on_c, 0, 62, 73
2, 135488, Note_on_c, 0, 67, 66
2, 135552, Note_on_c, 0, 67, 0
2, 135552, Note_on_c, 0, 71, 86
2, 135616, Note_on_c, 0, 71, 0
2, 135616, Note_on_c, 0, 74, 83
2, 135680, Note_on_c, 0, 74, 0
2, 135680, Note_on_c, 0, 79, 90
2, 135680, Note_on_c, 0, 59, 0
2, 135680, Note_on_c, 0, 62, 0
2, 135680, Note_on_c, 0, 57, 72
2, 135680, Note_on_c, 0, 61, 72
2, 135744, Note_on_c, 0, 79, 0
2, 135744, Note_on_c, 0, 78, 76
2, 135808, Note_on_c, 0, 78, 0
2, 135808, Note_on_c, 0, 57, 0
2, 135808, Note_on_c, 0, 61, 0
2, 135808, Note_on_c, 0, 55, 69
2, 135808, Note_on_c, 0, 59, 69
2, 135872, Note_on_c, 0, 64, 71
2, 135936, Note_on_c, 0, 64, 0
2, 135936, Note_on_c, 0, 67, 82
2, 136000, Note_on_c, 0, 67, 0
2, 136000, Note_on_c, 0, 71, 89
2, 136064, Note_on_c, 0, 71, 0
2, 136064, Note_on_c, 0, 76, 91
2, 136064, Note_on_c, 0, 55, 0
2, 136064, Note_on_c, 0, 59, 0
2, 136064, Note_on_c, 0, 56, 78
2, 136064, Note_on_c, 0, 59, 78
2, 136128, Note_on_c, 0, 76, 0
2, 136128, Note_on_c, 0, 74, 75
2, 136192, Note_on_c, 0, 74, 0
2, 136192, Note_on_c, 0, 73, 73
2, 136192, Note_on_c, 0, 56, 0
2, 136192, Note_on_c, 0, 59, 0
2, 136192, Note_on_c, 0, 57, 71
2, 136256, Note_on_c, 0, 73, 0
2, 136256, Note_on_c, 0, 64, 57
2, 136256, Note_on_c, 0, 57, 0
2, 136320, Note_on_c, 0, 64, 0
2, 136320, Note_on_c, 0, 81, 92
2, 136320, Note_on_c, 0, 61, 68
2, 136384, Note_on_c, 0, 81, 0
2, 136384, Note_on_c, 0, 61, 0
2, 136384, Note_on_c, 0, 64, 81
2, 136448, Note_on_c, 0, 74, 68
2, 136448, Note_on_c, 0, 78, 68
2, 136448, Note_on_c, 0, 64, 0
2, 136448, Note_on_c, 0, 62, 74
2, 136512, Note_on_c, 0, 74, 0
2, 136512, Note_on_c, 0, 78, 0
2, 136512, Note_on_c, 0, 62, 0
2, 136512, Note_on_c, 0, 66, 82
2, 136576, Note_on_c, 0, 73, 66
2, 136576, Note_on_c, 0, 76, 66
2, 136576, Note_on_c, 0, 66, 0
2, 136576, Note_on_c, 0, 57, 70
2, 136640, Note_on_c, 0, 73, 0
2, 136640, Note_on_c, 0, 76, 0
2, 136640, Note_on_c, 0, 64, 54
2, 136640, Note_on_c, 0, 57, 0
2, 136704, Note_on_c, 0, 64, 0
2, 136704, Note_on_c, 0, 81, 91
2, 136704, Note_on_c, 0, 61, 65
2, 136768, Note_on_c, 0, 81, 0
2, 136768, Note_on_c, 0, 61, 0
2, 136768, Note_on_c, 0, 64, 84
2, 136832, Note_on_c, 0, 74, 69
2, 136832, Note_on_c, 0, 78, 69
2, 136832, Note_on_c, 0, 64, 0
2, 136832, Note_on_c, 0, 62, 71
2, 136896, Note_on_c, 0, 74, 0
2, 136896, Note_on_c, 0, 78, 0
2, 136896, Note_on_c, 0, 62, 0
2, 136896, Note_on_c, 0, 66, 81
2, 136960, Note_on_c, 0, 73, 69
2, 136960, Note_on_c, 0, 76, 69
2, 136960, Note_on_c, 0, 66, 0
2, 136960, Note_on_c, 0, 57, 71
2, 136960, Note_on_c, 0, 61, 71
2, 136960, Note_on_c, 0, 64, 71
2, 137088, Note_on_c, 0, 73, 0
2, 137088, Note_on_c, 0, 76, 0
2, 137088, Note_on_c, 0, 81, 85
2, 137088, Note_on_c, 0, 57, 0
2, 137088, Note_on_c, 0, 61, 0
2, 137088, Note_on_c, 0, 64, 0
2, 137216, Note_on_c, 0, 81, 0
2, 137216, Note_on_c, 0, 57, 57
2, 137216, Note_on_c, 0, 69, 57
2, 137216, Note_on_c, 0, 45, 68
2, 137344, Note_on_c, 0, 57, 0
2, 137344, Note_on_c, 0, 69, 0
2, 137344, Note_on_c, 0, 57, 67
2, 137344, Note_on_c, 0, 69, 67
2, 137344, Note_on_c, 0, 45, 0
2, 137344, Note_on_c, 0, 45, 74
2, 137472, Note_on_c, 0, 57, 0
2, 137472, Note_on_c, 0, 69, 0
2, 137472, Note_on_c, 0, 45, 0
2, 137600, Note_on_c, 0, 66, 69
2, 137728, Note_on_c, 0, 66, 0
2, 137728, Note_on_c, 0, 67, 78
2, 137984, Note_on_c, 0, 67, 0
2, 137984, Note_on_c, 0, 69, 82
2, 138112, Note_on_c, 0, 69, 0
2, 138112, Note_on_c, 0, 71, 85
2, 138240, Note_on_c, 0, 71, 0
2, 138240, Note_on_c, 0, 69, 71
2, 138304, Note_on_c, 0, 69, 0
2, 138304, Note_on_c, 0, 67, 72
2, 138368, Note_on_c, 0, 67, 0
2, 138368, Note_on_c, 0, 66, 74
2, 138432, Note_on_c, 0, 66, 0
2, 138432, Note_on_c, 0, 64, 67
2, 138496, Note_on_c, 0, 64, 0
2, 138496, Note_on_c, 0, 55, 70
2, 138496, Note_on_c, 0, 62, 70
2, 138496, Note_on_c, 0, 45, 69
2, 138496, Note_on_c, 0, 52, 69
2, 138880, Note_on_c, 0, 62, 0
2, 138880, Note_on_c, 0, 61, 72
2, 139136, Note_on_c, 0, 55, 0
2, 139136, Note_on_c, 0, 61, 0
2, 139136, Note_on_c, 0, 59, 75
2, 139136, Note_on_c, 0, 45, 0
2, 139136, Note_on_c, 0, 52, 0
2, 139136, Note_on_c, 0, 43, 72
2, 139136, Note_on_c, 0, 49, 72
2, 139264, Note_on_c, 0, 59, 0
2, 139264, Note_on_c, 0, 59, 71
2, 139264, Note_on_c, 0, 43, 0
2, 139264, Note_on_c, 0, 49, 0
2, 139264, Note_on_c, 0, 42, 78
2, 139264, Note_on_c, 0, 50, 78
2, 139392, Note_on_c, 0, 59, 0
2, 139392, Note_on_c, 0, 57, 70
2, 139520, Note_on_c, 0, 57, 0
2, 139520, Note_on_c, 0, 57, 78
2, 139520, Note_on_c, 0, 42, 0
2, 139520, Note_on_c, 0, 50, 0
2, 139583, Note_on_c, 0, 57, 0
2, 139648, Note_on_c, 0, 57, 65
2, 139776, Note_on_c, 0, 57, 0
2, 139776, Note_on_c, 0, 62, 67
2, 139776, Note_on_c, 0, 42, 61
2, 139904, Note_on_c, 0, 62, 0
2, 139904, Note_on_c, 0, 62, 82
2, 139904, Note_on_c, 0, 66, 82
2, 139904, Note_on_c, 0, 42, 0
2, 139904, Note_on_c, 0, 38, 67
2, 139967, Note_on_c, 0, 62, 0
2, 139967, Note_on_c, 0, 66, 0
2, 139967, Note_on_c, 0, 38, 0
2, 140032, Note_on_c, 0, 62, 75
2, 140032, Note_on_c, 0, 66, 75
2, 140032, Note_on_c, 0, 45, 82
2, 140288, Note_on_c, 0, 62, 0
2, 140288, Note_on_c, 0, 66, 0
2, 140288, Note_on_c, 0, 64, 81
2, 140288, Note_on_c, 0, 67, 81
2, 140416, Note_on_c, 0, 64, 0
2, 140416, Note_on_c, 0, 67, 0
2, 140416, Note_on_c, 0, 61, 67
2, 140416, Note_on_c, 0, 64, 67
2, 140544, Note_on_c, 0, 61, 0
2, 140544, Note_on_c, 0, 64, 0
2, 140672, Note_on_c, 0, 66, 69
2, 140672, Note_on_c, 0, 45, 0
2, 140800, Note_on_c, 0, 66, 0
2, 140800, Note_on_c, 0, 67, 83
2, 141056, Note_on_c, 0, 67, 0
2, 141056, Note_on_c, 0, 69, 82
2, 141184, Note_on_c, 0, 69, 0
2, 141184, Note_on_c, 0, 71, 79
2, 141312, Note_on_c, 0, 71, 0
2, 141312, Note_on_c, 0, 69, 72
2, 141376, Note_on_c, 0, 69, 0
2, 141376, Note_on_c, 0, 67, 72
2, 141440, Note_on_c, 0, 67, 0
2, 141440, Note_on_c, 0, 66, 69
2, 141504, Note_on_c, 0, 66, 0
2, 141504, Note_on_c, 0, 64, 71
2, 141568, Note_on_c, 0, 64, 0
2, 141568, Note_on_c, 0, 55, 70
2, 141568, Note_on_c, 0, 62, 70
2, 141568, Note_on_c, 0, 45, 72
2, 141568, Note_on_c, 0, 52, 72
2, 141952, Note_on_c, 0, 62, 0
2, 141952, Note_on_c, 0, 61, 74
2, 142080, Note_on_c, 0, 61, 0
2, 142080, Note_on_c, 0, 71, 92
2, 142208, Note_on_c, 0, 55, 0
2, 142208, Note_on_c, 0, 71, 0
2, 142208, Note_on_c, 0, 69, 73
2, 142208, Note_on_c, 0, 45, 0
2, 142208, Note_on_c, 0, 52, 0
2, 142208, Note_on_c, 0, 43, 75
2, 142208, Note_on_c, 0, 49, 75
2, 142336, Note_on_c, 0, 69, 0
2, 142336, Note_on_c, 0, 69, 75
2, 142336, Note_on_c, 0, 43, 0
2, 142336, Note_on_c, 0, 49, 0
2, 142336, Note_on_c, 0, 42, 75
2, 142336, Note_on_c, 0, 50, 75
2, 142464, Note_on_c, 0, 69, 0
2, 142464, Note_on_c, 0, 74, 85
2, 142464, Note_on_c, 0, 42, 0
2, 142464, Note_on_c, 0, 50, 0
2, 142592, Note_on_c, 0, 74, 0
2, 142592, Note_on_c, 0, 55, 56
2, 142592, Note_on_c, 0, 62, 56
2, 142592, Note_on_c, 0, 47, 69
2, 142720, Note_on_c, 0, 55, 0
2, 142720, Note_on_c, 0, 62, 0
2, 142720, Note_on_c, 0, 57, 81
2, 142720, Note_on_c, 0, 62, 81
2, 142720, Note_on_c, 0, 66, 81
2, 142720, Note_on_c, 0, 47, 0
2, 142720, Note_on_c, 0, 45, 70
2, 142848, Note_on_c, 0, 57, 0
2, 142848, Note_on_c, 0, 62, 0
2, 142848, Note_on_c, 0, 66, 0
2, 142848, Note_on_c, 0, 45, 0
2, 142976, Note_on_c, 0, 55, 67
2, 142976, Note_on_c, 0, 61, 67
2, 142976, Note_on_c, 0, 64, 67
2, 142976, Note_on_c, 0, 45, 67
2, 143104, Note_on_c, 0, 55, 0
2, 143104, Note_on_c, 0, 61, 0
2, 143104, Note_on_c, 0, 64, 0
2, 143104, Note_on_c, 0, 61, 76
2, 143104, Note_on_c, 0, 64, 76
2, 143104, Note_on_c, 0, 45, 0
2, 143104, Note_on_c, 0, 50, 82
2, 143104, Note_on_c, 0, 55, 82
2, 143488, Note_on_c, 0, 61, 0
2, 143488, Note_on_c, 0, 64, 0
2, 143488, Note_on_c, 0, 62, 71
2, 143488, Note_on_c, 0, 50, 0
2, 143488, Note_on_c, 0, 55, 0
2, 143488, Note_on_c, 0, 54, 73
2, 143616, Note_on_c, 0, 62, 0
2, 143616, Note_on_c, 0, 54, 0
2, 143744, Note_on_c, 0, 78, 66
2, 143872, Note_on_c, 0, 78, 0
2, 143872, Note_on_c, 0, 79, 79
2, 144000, Note_on_c, 0, 79, 0
2, 144000, Note_on_c, 0, 79, 75
2, 144064, Note_on_c, 0, 79, 0
2, 144064, Note_on_c, 0, 78, 72
2, 144128, Note_on_c, 0, 78, 0
2, 144128, Note_on_c, 0, 81, 83
2, 144192, Note_on_c, 0, 81, 0
2, 144192, Note_on_c, 0, 79, 67
2, 144256, Note_on_c, 0, 79, 0
2, 144256, Note_on_c, 0, 83, 85
2, 144320, Note_on_c, 0, 83, 0
2, 144320, Note_on_c, 0, 81, 73
2, 144384, Note_on_c, 0, 81, 0
2, 144384, Note_on_c, 0, 79, 67
2, 144448, Note_on_c, 0, 79, 0
2, 144448, Note_on_c, 0, 78, 74
2, 144512, Note_on_c, 0, 78, 0
2, 144512, Note_on_c, 0, 79, 76
2, 144576, Note_on_c, 0, 79, 0
2, 144576, Note_on_c, 0, 76, 72
2, 144640, Note_on_c, 0, 76, 0
2, 144640, Note_on_c, 0, 67, 66
2, 144640, Note_on_c, 0, 74, 66
2, 144640, Note_on_c, 0, 57, 68
2, 144640, Note_on_c, 0, 64, 68
2, 144896, Note_on_c, 0, 74, 0
2, 144896, Note_on_c, 0, 76, 79
2, 144960, Note_on_c, 0, 76, 0
2, 144960, Note_on_c, 0, 74, 69
2, 145024, Note_on_c, 0, 74, 0
2, 145024, Note_on_c, 0, 73, 73
2, 145280, Note_on_c, 0, 67, 0
2, 145280, Note_on_c, 0, 73, 0
2, 145280, Note_on_c, 0, 62, 72
2, 145280, Note_on_c, 0, 68, 72
2, 145280, Note_on_c, 0, 71, 72
2, 145280, Note_on_c, 0, 57, 0
2, 145280, Note_on_c, 0, 64, 0
2, 145280, Note_on_c, 0, 59, 74
2, 145408, Note_on_c, 0, 62, 0
2, 145408, Note_on_c, 0, 68, 0
2, 145408, Note_on_c, 0, 71, 0
2, 145408, Note_on_c, 0, 61, 76
2, 145408, Note_on_c, 0, 64, 76
2, 145408, Note_on_c, 0, 67, 76
2, 145408, Note_on_c, 0, 71, 76
2, 145408, Note_on_c, 0, 59, 0
2, 145536, Note_on_c, 0, 71, 0
2, 145536, Note_on_c, 0, 69, 70
2, 145664, Note_on_c, 0, 69, 0
2, 145664, Note_on_c, 0, 69, 74
2, 145727, Note_on_c, 0, 61, 0
2, 145727, Note_on_c, 0, 64, 0
2, 145727, Note_on_c, 0, 67, 0
2, 145727, Note_on_c, 0, 69, 0
2, 145792, Note_on_c, 0, 62, 76
2, 145792, Note_on_c, 0, 66, 76
2, 145792, Note_on_c, 0, 69, 76
2, 145920, Note_on_c, 0, 69, 0
2, 145920, Note_on_c, 0, 74, 86
2, 146048, Note_on_c, 0, 62, 0
2, 146048, Note_on_c, 0, 66, 0
2, 146048, Note_on_c, 0, 74, 0
2, 146048, Note_on_c, 0, 74, 87
2, 146048, Note_on_c, 0, 78, 87
2, 146111, Note_on_c, 0, 74, 0
2, 146111, Note_on_c, 0, 78, 0
2, 146176, Note_on_c, 0, 69, 71
2, 146176, Note_on_c, 0, 74, 71
2, 146176, Note_on_c, 0, 78, 71
2, 146176, Note_on_c, 0, 57, 69
2, 146432, Note_on_c, 0, 74, 0
2, 146432, Note_on_c, 0, 78, 0
2, 146432, Note_on_c, 0, 76, 77
2, 146432, Note_on_c, 0, 79, 77
2, 146560, Note_on_c, 0, 76, 0
2, 146560, Note_on_c, 0, 79, 0
2, 146560, Note_on_c, 0, 73, 71
2, 146560, Note_on_c, 0, 76, 71
2, 146623, Note_on_c, 0, 69, 0
2, 146623, Note_on_c, 0, 73, 0
2, 146623, Note_on_c, 0, 76, 0
2, 146688, Note_on_c, 0, 57, 0
2, 146816, Note_on_c, 0, 78, 66
2, 146944, Note_on_c, 0, 78, 0
2, 146944, Note_on_c, 0, 79, 81
2, 147072, Note_on_c, 0, 79, 0
2, 147072, Note_on_c, 0, 79, 77
2, 147136, Note_on_c, 0, 79, 0
2, 147136, Note_on_c, 0, 78, 73
2, 147200, Note_on_c, 0, 78, 0
2, 147200, Note_on_c, 0, 81, 84
2, 147264, Note_on_c, 0, 81, 0
2, 147264, Note_on_c, 0, 79, 70
2, 147328, Note_on_c, 0, 79, 0
2, 147328, Note_on_c, 0, 83, 78
2, 147392, Note_on_c, 0, 83, 0
2, 147392, Note_on_c, 0, 81, 75
2, 147456, Note_on_c, 0, 81, 0
2, 147456, Note_on_c, 0, 79, 68
2, 147520, Note_on_c, 0, 79, 0
2, 147520, Note_on_c, 0, 78, 70
2, 147584, Note_on_c, 0, 78, 0
2, 147584, Note_on_c, 0, 79, 78
2, 147648, Note_on_c, 0, 79, 0
2, 147648, Note_on_c, 0, 76, 72
2, 147712, Note_on_c, 0, 76, 0
2, 147712, Note_on_c, 0, 67, 67
2, 147712, Note_on_c, 0, 69, 67
2, 147712, Note_on_c, 0, 74, 67
2, 147776, Note_on_c, 0, 74, 0
2, 147776, Note_on_c, 0, 73, 70
2, 147840, Note_on_c, 0, 73, 0
2, 147840, Note_on_c, 0, 76, 85
2, 147904, Note_on_c, 0, 76, 0
2, 147904, Note_on_c, 0, 74, 73
2, 147968, Note_on_c, 0, 74, 0
2, 147968, Note_on_c, 0, 78, 82
2, 148032, Note_on_c, 0, 78, 0
2, 148032, Note_on_c, 0, 76, 78
2, 148096, Note_on_c, 0, 76, 0
2, 148096, Note_on_c, 0, 79, 77
2, 148160, Note_on_c, 0, 79, 0
2, 148160, Note_on_c, 0, 78, 74
2, 148224, Note_on_c, 0, 78, 0
2, 148224, Note_on_c, 0, 81, 86
2, 148288, Note_on_c, 0, 81, 0
2, 148288, Note_on_c, 0, 79, 73
2, 148352, Note_on_c, 0, 79, 0
2, 148352, Note_on_c, 0, 83, 79
2, 148416, Note_on_c, 0, 83, 0
2, 148416, Note_on_c, 0, 81, 72
2, 148480, Note_on_c, 0, 67, 0
2, 148480, Note_on_c, 0, 69, 0
2, 148480, Note_on_c, 0, 81, 0
2, 148480, Note_on_c, 0, 81, 73
2, 148608, Note_on_c, 0, 75, 75
2, 148608, Note_on_c, 0, 65, 67
2, 148736, Note_on_c, 0, 75, 0
2, 148736, Note_on_c, 0, 75, 75
2, 148736, Note_on_c, 0, 65, 0
2, 148736, Note_on_c, 0, 65, 72
2, 148864, Note_on_c, 0, 75, 0
2, 148864, Note_on_c, 0, 81, 0
2, 148864, Note_on_c, 0, 80, 76
2, 148864, Note_on_c, 0, 65, 0
2, 148992, Note_on_c, 0, 74, 75
2, 148992, Note_on_c, 0, 64, 69
2, 149120, Note_on_c, 0, 74, 0
2, 149120, Note_on_c, 0, 74, 74
2, 149120, Note_on_c, 0, 64, 0
2, 149120, Note_on_c, 0, 64, 80
2, 149248, Note_on_c, 0, 74, 0
2, 149248, Note_on_c, 0, 80, 0
2, 149248, Note_on_c, 0, 79, 70
2, 149248, Note_on_c, 0, 64, 0
2, 149376, Note_on_c, 0, 71, 75
2, 149376, Note_on_c, 0, 74, 75
2, 149504, Note_on_c, 0, 71, 0
2, 149504, Note_on_c, 0, 74, 0
2, 149504, Note_on_c, 0, 71, 79
2, 149504, Note_on_c, 0, 74, 79
2, 149632, Note_on_c, 0, 71, 0
2, 149632, Note_on_c, 0, 74, 0
2, 149632, Note_on_c, 0, 79, 0
2, 149632, Note_on_c, 0, 70, 76
2, 149632, Note_on_c, 0, 73, 76
2, 149632, Note_on_c, 0, 78, 76
2, 149760, Note_on_c, 0, 70, 0
2, 149760, Note_on_c, 0, 73, 0
2, 149760, Note_on_c, 0, 78, 0
2, 149888, Note_on_c, 0, 66, 64
2, 150016, Note_on_c, 0, 66, 0
2, 150016, Note_on_c, 0, 71, 82
2, 150016, Note_on_c, 0, 54, 70
2, 150144, Note_on_c, 0, 71, 0
2, 150144, Note_on_c, 0, 66, 68
2, 150144, Note_on_c, 0, 54, 0
2, 150144, Note_on_c, 0, 59, 77
2, 150272, Note_on_c, 0, 66, 0
2, 150272, Note_on_c, 0, 71, 84
2, 150272, Note_on_c, 0, 59, 0
2, 150272, Note_on_c, 0, 54, 74
2, 150400, Note_on_c, 0, 71, 0
2, 150400, Note_on_c, 0, 74, 86
2, 150400, Note_on_c, 0, 54, 0
2, 150400, Note_on_c, 0, 59, 78
2, 150528, Note_on_c, 0, 74, 0
2, 150528, Note_on_c, 0, 59, 0
2, 150528, Note_on_c, 0, 62, 68
2, 150528, Note_on_c, 0, 71, 68
2, 150656, Note_on_c, 0, 62, 0
2, 150656, Note_on_c, 0, 71, 0
2, 150656, Note_on_c, 0, 74, 81
2, 150656, Note_on_c, 0, 59, 71
2, 150784, Note_on_c, 0, 74, 0
2, 150784, Note_on_c, 0, 78, 84
2, 150784, Note_on_c, 0, 59, 0
2, 150784, Note_on_c, 0, 62, 80
2, 150848, Note_on_c, 0, 78, 0
2, 150848, Note_on_c, 0, 76, 76
2, 150912, Note_on_c, 0, 76, 0
2, 150912, Note_on_c, 0, 66, 71
2, 150912, Note_on_c, 0, 74, 71
2, 150912, Note_on_c, 0, 62, 0
2, 150976, Note_on_c, 0, 66, 0
2, 150976, Note_on_c, 0, 74, 0
2, 150976, Note_on_c, 0, 64, 73
2, 150976, Note_on_c, 0, 73, 73
2, 151040, Note_on_c, 0, 64, 0
2, 151040, Note_on_c, 0, 73, 0
2, 151040, Note_on_c, 0, 62, 70
2, 151040, Note_on_c, 0, 71, 70
2, 151104, Note_on_c, 0, 62, 0
2, 151104, Note_on_c, 0, 71, 0
2, 151104, Note_on_c, 0, 61, 71
2, 151104, Note_on_c, 0, 70, 71
2, 151168, Note_on_c, 0, 61, 0
2, 151168, Note_on_c, 0, 70, 0
2, 151168, Note_on_c, 0, 74, 84
2, 151168, Note_on_c, 0, 59, 70
2, 151232, Note_on_c, 0, 74, 0
2, 151232, Note_on_c, 0, 73, 74
2, 151232, Note_on_c, 0, 59, 0
2, 151232, Note_on_c, 0, 58, 76
2, 151296, Note_on_c, 0, 73, 0
2, 151296, Note_on_c, 0, 58, 0
2, 151296, Note_on_c, 0, 71, 69
2, 151296, Note_on_c, 0, 62, 80
2, 151360, Note_on_c, 0, 71, 0
2, 151360, Note_on_c, 0, 61, 71
2, 151360, Note_on_c, 0, 69, 71
2, 151360, Note_on_c, 0, 62, 0
2, 151424, Note_on_c, 0, 61, 0
2, 151424, Note_on_c, 0, 69, 0
2, 151424, Note_on_c, 0, 67, 75
2, 151424, Note_on_c, 0, 59, 70
2, 151488, Note_on_c, 0, 67, 0
2, 151488, Note_on_c, 0, 66, 69
2, 151488, Note_on_c, 0, 59, 0
2, 151488, Note_on_c, 0, 57, 74
2, 151552, Note_on_c, 0, 66, 0
2, 151552, Note_on_c, 0, 64, 70
2, 151552, Note_on_c, 0, 57, 0
2, 151552, Note_on_c, 0, 55, 71
2, 151616, Note_on_c, 0, 64, 0
2, 151616, Note_on_c, 0, 55, 0
2, 151616, Note_on_c, 0, 54, 74
2, 151680, Note_on_c, 0, 54, 0
2, 151680, Note_on_c, 0, 52, 84
2, 151680, Note_on_c, 0, 59, 84
2, 151808, Note_on_c, 0, 64, 71
2, 151808, Note_on_c, 0, 52, 0
2, 151808, Note_on_c, 0, 59, 0
2, 151808, Note_on_c, 0, 47, 62
2, 151936, Note_on_c, 0, 64, 0
2, 151936, Note_on_c, 0, 67, 88
2, 151936, Note_on_c, 0, 47, 0
2, 151936, Note_on_c, 0, 52, 74
2, 152064, Note_on_c, 0, 67, 0
2, 152064, Note_on_c, 0, 52, 0
2, 152064, Note_on_c, 0, 64, 68
2, 152064, Note_on_c, 0, 55, 78
2, 152192, Note_on_c, 0, 64, 0
2, 152192, Note_on_c, 0, 67, 83
2, 152192, Note_on_c, 0, 55, 0
2, 152192, Note_on_c, 0, 52, 69
2, 152320, Note_on_c, 0, 67, 0
2, 152320, Note_on_c, 0, 71, 89
2, 152320, Note_on_c, 0, 52, 0
2, 152320, Note_on_c, 0, 55, 77
2, 152384, Note_on_c, 0, 71, 0
2, 152384, Note_on_c, 0, 69, 75
2, 152448, Note_on_c, 0, 69, 0
2, 152448, Note_on_c, 0, 67, 73
2, 152448, Note_on_c, 0, 55, 0
2, 152448, Note_on_c, 0, 59, 80
2, 152512, Note_on_c, 0, 67, 0
2, 152512, Note_on_c, 0, 66, 68
2, 152512, Note_on_c, 0, 59, 0
2, 152512, Note_on_c, 0, 57, 81
2, 152576, Note_on_c, 0, 66, 0
2, 152576, Note_on_c, 0, 64, 71
2, 152576, Note_on_c, 0, 57, 0
2, 152576, Note_on_c, 0, 55, 74
2, 152640, Note_on_c, 0, 64, 0
2, 152640, Note_on_c, 0, 63, 76
2, 152640, Note_on_c, 0, 55, 0
2, 152640, Note_on_c, 0, 54, 76
2, 152704, Note_on_c, 0, 63, 0
2, 152704, Note_on_c, 0, 79, 94
2, 152704, Note_on_c, 0, 54, 0
2, 152704, Note_on_c, 0, 52, 71
2, 152768, Note_on_c, 0, 79, 0
2, 152768, Note_on_c, 0, 78, 77
2, 152768, Note_on_c, 0, 52, 0
2, 152768, Note_on_c, 0, 51, 73
2, 152832, Note_on_c, 0, 78, 0
2, 152832, Note_on_c, 0, 51, 0
2, 152832, Note_on_c, 0, 67, 73
2, 152832, Note_on_c, 0, 76, 73
2, 152896, Note_on_c, 0, 67, 0
2, 152896, Note_on_c, 0, 76, 0
2, 152896, Note_on_c, 0, 66, 70
2, 152896, Note_on_c, 0, 74, 70
2, 152960, Note_on_c, 0, 66, 0
2, 152960, Note_on_c, 0, 74, 0
2, 152960, Note_on_c, 0, 64, 69
2, 152960, Note_on_c, 0, 73, 69
2, 153024, Note_on_c, 0, 64, 0
2, 153024, Note_on_c, 0, 73, 0
2, 153024, Note_on_c, 0, 62, 70
2, 153024, Note_on_c, 0, 71, 70
2, 153088, Note_on_c, 0, 62, 0
2, 153088, Note_on_c, 0, 71, 0
2, 153088, Note_on_c, 0, 61, 71
2, 153088, Note_on_c, 0, 69, 71
2, 153152, Note_on_c, 0, 61, 0
2, 153152, Note_on_c, 0, 69, 0
2, 153152, Note_on_c, 0, 59, 71
2, 153216, Note_on_c, 0, 64, 70
2, 153216, Note_on_c, 0, 59, 0
2, 153216, Note_on_c, 0, 57, 69
2, 153344, Note_on_c, 0, 64, 0
2, 153344, Note_on_c, 0, 69, 88
2, 153344, Note_on_c, 0, 57, 0
2, 153344, Note_on_c, 0, 52, 67
2, 153472, Note_on_c, 0, 69, 0
2, 153472, Note_on_c, 0, 73, 85
2, 153472, Note_on_c, 0, 52, 0
2, 153472, Note_on_c, 0, 57, 77
2, 153600, Note_on_c, 0, 73, 0
2, 153600, Note_on_c, 0, 57, 0
2, 153600, Note_on_c, 0, 61, 70
2, 153600, Note_on_c, 0, 69, 70
2, 153728, Note_on_c, 0, 61, 0
2, 153728, Note_on_c, 0, 69, 0
2, 153728, Note_on_c, 0, 73, 82
2, 153728, Note_on_c, 0, 57, 62
2, 153856, Note_on_c, 0, 73, 0
2, 153856, Note_on_c, 0, 76, 85
2, 153856, Note_on_c, 0, 57, 0
2, 153856, Note_on_c, 0, 61, 86
2, 153920, Note_on_c, 0, 76, 0
2, 153920, Note_on_c, 0, 78, 83
2, 153984, Note_on_c, 0, 78, 0
2, 153984, Note_on_c, 0, 79, 79
2, 153984, Note_on_c, 0, 61, 0
2, 153984, Note_on_c, 0, 64, 80
2, 154048, Note_on_c, 0, 79, 0
2, 154048, Note_on_c, 0, 78, 72
2, 154048, Note_on_c, 0, 64, 0
2, 154048, Note_on_c, 0, 66, 85
2, 154112, Note_on_c, 0, 78, 0
2, 154112, Note_on_c, 0, 67, 71
2, 154112, Note_on_c, 0, 76, 71
2, 154112, Note_on_c, 0, 66, 0
2, 154176, Note_on_c, 0, 67, 0
2, 154176, Note_on_c, 0, 76, 0
2, 154176, Note_on_c, 0, 66, 67
2, 154176, Note_on_c, 0, 74, 67
2, 154240, Note_on_c, 0, 66, 0
2, 154240, Note_on_c, 0, 74, 0
2, 154240, Note_on_c, 0, 64, 73
2, 154240, Note_on_c, 0, 73, 73
2, 154304, Note_on_c, 0, 64, 0
2, 154304, Note_on_c, 0, 73, 0
2, 154304, Note_on_c, 0, 62, 71
2, 154304, Note_on_c, 0, 71, 71
2, 154368, Note_on_c, 0, 62, 0
2, 154368, Note_on_c, 0, 71, 0
2, 154368, Note_on_c, 0, 61, 74
2, 154368, Note_on_c, 0, 69, 74
2, 154432, Note_on_c, 0, 61, 0
2, 154432, Note_on_c, 0, 69, 0
2, 154432, Note_on_c, 0, 71, 80
2, 154432, Note_on_c, 0, 59, 64
2, 154496, Note_on_c, 0, 71, 0
2, 154496, Note_on_c, 0, 61, 73
2, 154496, Note_on_c, 0, 67, 73
2, 154496, Note_on_c, 0, 59, 0
2, 154560, Note_on_c, 0, 61, 0
2, 154560, Note_on_c, 0, 67, 0
2, 154560, Note_on_c, 0, 69, 82
2, 154560, Note_on_c, 0, 57, 63
2, 154624, Note_on_c, 0, 69, 0
2, 154624, Note_on_c, 0, 62, 71
2, 154624, Note_on_c, 0, 66, 71
2, 154624, Note_on_c, 0, 57, 0
2, 154688, Note_on_c, 0, 66, 0
2, 154688, Note_on_c, 0, 69, 84
2, 154752, Note_on_c, 0, 69, 0
2, 154752, Note_on_c, 0, 68, 73
2, 154816, Note_on_c, 0, 62, 0
2, 154816, Note_on_c, 0, 68, 0
2, 154816, Note_on_c, 0, 69, 80
2, 154880, Note_on_c, 0, 69, 0
2, 154880, Note_on_c, 0, 71, 77
2, 154944, Note_on_c, 0, 71, 0
2, 154944, Note_on_c, 0, 69, 72
2, 155008, Note_on_c, 0, 69, 0
2, 155008, Note_on_c, 0, 62, 83
2, 155008, Note_on_c, 0, 66, 83
2, 155008, Note_on_c, 0, 74, 83
2, 155072, Note_on_c, 0, 74, 0
2, 155072, Note_on_c, 0, 69, 68
2, 155136, Note_on_c, 0, 69, 0
2, 155136, Note_on_c, 0, 68, 68
2, 155200, Note_on_c, 0, 68, 0
2, 155200, Note_on_c, 0, 69, 77
2, 155264, Note_on_c, 0, 62, 0
2, 155264, Note_on_c, 0, 66, 0
2, 155264, Note_on_c, 0, 69, 0
2, 155264, Note_on_c, 0, 71, 79
2, 155328, Note_on_c, 0, 71, 0
2, 155328, Note_on_c, 0, 69, 75
2, 155392, Note_on_c, 0, 69, 0
2, 155392, Note_on_c, 0, 61, 61
2, 155392, Note_on_c, 0, 64, 61
2, 155456, Note_on_c, 0, 64, 0
2, 155456, Note_on_c, 0, 69, 83
2, 155520, Note_on_c, 0, 69, 0
2, 155520, Note_on_c, 0, 68, 77
2, 155584, Note_on_c, 0, 68, 0
2, 155584, Note_on_c, 0, 69, 80
2, 155648, Note_on_c, 0, 61, 0
2, 155648, Note_on_c, 0, 69, 0
2, 155648, Note_on_c, 0, 62, 67
2, 155648, Note_on_c, 0, 66, 67
2, 155712, Note_on_c, 0, 66, 0
2, 155712, Note_on_c, 0, 69, 81
2, 155776, Note_on_c, 0, 62, 0
2, 155776, Note_on_c, 0, 69, 0
2, 155776, Note_on_c, 0, 64, 72
2, 155776, Note_on_c, 0, 67, 72
2, 155840, Note_on_c, 0, 67, 0
2, 155840, Note_on_c, 0, 69, 76
2, 155904, Note_on_c, 0, 64, 0
2, 155904, Note_on_c, 0, 69, 0
2, 155904, Note_on_c, 0, 62, 70
2, 155904, Note_on_c, 0, 66, 70
2, 155968, Note_on_c, 0, 66, 0
2, 155968, Note_on_c, 0, 69, 80
2, 156032, Note_on_c, 0, 62, 0
2, 156032, Note_on_c, 0, 69, 0
2, 156032, Note_on_c, 0, 61, 67
2, 156032, Note_on_c, 0, 64, 67
2, 156096, Note_on_c, 0, 64, 0
2, 156096, Note_on_c, 0, 69, 81
2, 156160, Note_on_c, 0, 61, 0
2, 156160, Note_on_c, 0, 69, 0
2, 156160, Note_on_c, 0, 62, 70
2, 156160, Note_on_c, 0, 66, 70
2, 156224, Note_on_c, 0, 81, 98
2, 156288, Note_on_c, 0, 81, 0
2, 156288, Note_on_c, 0, 80, 76
2, 156352, Note_on_c, 0, 80, 0
2, 156352, Note_on_c, 0, 81, 83
2, 156416, Note_on_c, 0, 62, 0
2, 156416, Note_on_c, 0, 66, 0
2, 156416, Note_on_c, 0, 81, 0
2, 156416, Note_on_c, 0, 83, 79
2, 156480, Note_on_c, 0, 83, 0
2, 156480, Note_on_c, 0, 81, 68
2, 156544, Note_on_c, 0, 81, 0
2, 156544, Note_on_c, 0, 74, 87
2, 156544, Note_on_c, 0, 78, 87
2, 156544, Note_on_c, 0, 86, 87
2, 156608, Note_on_c, 0, 86, 0
2, 156608, Note_on_c, 0, 81, 70
2, 156672, Note_on_c, 0, 81, 0
2, 156672, Note_on_c, 0, 80, 72
2, 156736, Note_on_c, 0, 80, 0
2, 156736, Note_on_c, 0, 81, 76
2, 156800, Note_on_c, 0, 74, 0
2, 156800, Note_on_c, 0, 78, 0
2, 156800, Note_on_c, 0, 81, 0
2, 156800, Note_on_c, 0, 83, 78
2, 156864, Note_on_c, 0, 83, 0
2, 156864, Note_on_c, 0, 81, 74
2, 156928, Note_on_c, 0, 81, 0
2, 156928, Note_on_c, 0, 73, 65
2, 156928, Note_on_c, 0, 76, 65
2, 156992, Note_on_c, 0, 76, 0
2, 156992, Note_on_c, 0, 81, 84
2, 157056, Note_on_c, 0, 81, 0
2, 157056, Note_on_c, 0, 80, 72
2, 157120, Note_on_c, 0, 80, 0
2, 157120, Note_on_c, 0, 81, 78
2, 157184, Note_on_c, 0, 73, 0
2, 157184, Note_on_c, 0, 81, 0
2, 157184, Note_on_c, 0, 74, 66
2, 157184, Note_on_c, 0, 78, 66
2, 157248, Note_on_c, 0, 78, 0
2, 157248, Note_on_c, 0, 81, 82
2, 157312, Note_on_c, 0, 74, 0
2, 157312, Note_on_c, 0, 81, 0
2, 157312, Note_on_c, 0, 76, 73
2, 157312, Note_on_c, 0, 79, 73
2, 157376, Note_on_c, 0, 79, 0
2, 157376, Note_on_c, 0, 81, 77
2, 157440, Note_on_c, 0, 76, 0
2, 157440, Note_on_c, 0, 81, 0
2, 157440, Note_on_c, 0, 74, 70
2, 157440, Note_on_c, 0, 78, 70
2, 157504, Note_on_c, 0, 78, 0
2, 157504, Note_on_c, 0, 81, 80
2, 157568, Note_on_c, 0, 74, 0
2, 157568, Note_on_c, 0, 81, 0
2, 157568, Note_on_c, 0, 73, 64
2, 157568, Note_on_c, 0, 76, 64
2, 157632, Note_on_c, 0, 76, 0
2, 157632, Note_on_c, 0, 81, 84
2, 157696, Note_on_c, 0, 73, 0
2, 157696, Note_on_c, 0, 81, 0
2, 157696, Note_on_c, 0, 74, 61
2, 157760, Note_on_c, 0, 78, 83
2, 157824, Note_on_c, 0, 78, 0
2, 157824, Note_on_c, 0, 79, 78
2, 157888, Note_on_c, 0, 79, 0
2, 157888, Note_on_c, 0, 81, 81
2, 157952, Note_on_c, 0, 74, 0
2, 157952, Note_on_c, 0, 81, 0
2, 157952, Note_on_c, 0, 83, 77
2, 158016, Note_on_c, 0, 83, 0
2, 158016, Note_on_c, 0, 85, 82
2, 158080, Note_on_c, 0, 85, 0
2, 158080, Note_on_c, 0, 86, 82
2, 158080, Note_on_c, 0, 62, 68
2, 158080, Note_on_c, 0, 66, 68
2, 158144, Note_on_c, 0, 86, 0
2, 158144, Note_on_c, 0, 85, 76
2, 158208, Note_on_c, 0, 85, 0
2, 158208, Note_on_c, 0, 62, 0
2, 158208, Note_on_c, 0, 66, 0
2, 158208, Note_on_c, 0, 83, 74
2, 158208, Note_on_c, 0, 64, 75
2, 158208, Note_on_c, 0, 67, 75
2, 158272, Note_on_c, 0, 83, 0
2, 158272, Note_on_c, 0, 81, 77
2, 158336, Note_on_c, 0, 81, 0
2, 158336, Note_on_c, 0, 79, 71
2, 158336, Note_on_c, 0, 64, 0
2, 158336, Note_on_c, 0, 67, 0
2, 158336, Note_on_c, 0, 66, 85
2, 158336, Note_on_c, 0, 69, 85
2, 158400, Note_on_c, 0, 79, 0
2, 158400, Note_on_c, 0, 78, 70
2, 158400, Note_on_c, 0, 66, 0
2, 158400, Note_on_c, 0, 69, 0
2, 158464, Note_on_c, 0, 78, 0
2, 158464, Note_on_c, 0, 67, 63
2, 158464, Note_on_c, 0, 71, 63
2, 158528, Note_on_c, 0, 75, 82
2, 158592, Note_on_c, 0, 75, 0
2, 158592, Note_on_c, 0, 76, 78
2, 158656, Note_on_c, 0, 76, 0
2, 158656, Note_on_c, 0, 78, 82
2, 158720, Note_on_c, 0, 67, 0
2, 158720, Note_on_c, 0, 71, 0
2, 158720, Note_on_c, 0, 78, 0
2, 158720, Note_on_c, 0, 79, 84
2, 158784, Note_on_c, 0, 79, 0
2, 158784, Note_on_c, 0, 81, 83
2, 158848, Note_on_c, 0, 81, 0
2, 158848, Note_on_c, 0, 83, 81
2, 158848, Note_on_c, 0, 64, 69
2, 158848, Note_on_c, 0, 67, 69
2, 158912, Note_on_c, 0, 83, 0
2, 158912, Note_on_c, 0, 81, 69
2, 158976, Note_on_c, 0, 81, 0
2, 158976, Note_on_c, 0, 64, 0
2, 158976, Note_on_c, 0, 67, 0
2, 158976, Note_on_c, 0, 79, 69
2, 158976, Note_on_c, 0, 66, 78
2, 158976, Note_on_c, 0, 69, 78
2, 159040, Note_on_c, 0, 79, 0
2, 159040, Note_on_c, 0, 78, 73
2, 159104, Note_on_c, 0, 78, 0
2, 159104, Note_on_c, 0, 67, 71
2, 159104, Note_on_c, 0, 71, 71
2, 159104, Note_on_c, 0, 76, 71
2, 159104, Note_on_c, 0, 66, 0
2, 159104, Note_on_c, 0, 69, 0
2, 159168, Note_on_c, 0, 67, 0
2, 159168, Note_on_c, 0, 71, 0
2, 159168, Note_on_c, 0, 76, 0
2, 159168, Note_on_c, 0, 74, 73
2, 159232, Note_on_c, 0, 74, 0
2, 159232, Note_on_c, 0, 57, 71
2, 159296, Note_on_c, 0, 68, 69
2, 159360, Note_on_c, 0, 68, 0
2, 159360, Note_on_c, 0, 66, 82
2, 159360, Note_on_c, 0, 71, 82
2, 159360, Note_on_c, 0, 62, 83
2, 159424, Note_on_c, 0, 71, 0
2, 159424, Note_on_c, 0, 69, 72
2, 159488, Note_on_c, 0, 66, 0
2, 159488, Note_on_c, 0, 69, 0
2, 159488, Note_on_c, 0, 66, 82
2, 159488, Note_on_c, 0, 73, 82
2, 159488, Note_on_c, 0, 62, 0
2, 159488, Note_on_c, 0, 62, 80
2, 159552, Note_on_c, 0, 73, 0
2, 159552, Note_on_c, 0, 71, 73
2, 159616, Note_on_c, 0, 66, 0
2, 159616, Note_on_c, 0, 71, 0
2, 159616, Note_on_c, 0, 74, 85
2, 159616, Note_on_c, 0, 57, 0
2, 159616, Note_on_c, 0, 62, 0
2, 159616, Note_on_c, 0, 57, 71
2, 159680, Note_on_c, 0, 74, 0
2, 159680, Note_on_c, 0, 73, 75
2, 159744, Note_on_c, 0, 73, 0
2, 159744, Note_on_c, 0, 76, 80
2, 159744, Note_on_c, 0, 62, 91
2, 159744, Note_on_c, 0, 66, 91
2, 159808, Note_on_c, 0, 76, 0
2, 159808, Note_on_c, 0, 74, 72
2, 159872, Note_on_c, 0, 74, 0
2, 159872, Note_on_c, 0, 78, 84
2, 159872, Note_on_c, 0, 62, 0
2, 159872, Note_on_c, 0, 66, 0
2, 159872, Note_on_c, 0, 62, 78
2, 159872, Note_on_c, 0, 66, 78
2, 159936, Note_on_c, 0, 78, 0
2, 159936, Note_on_c, 0, 76, 70
2, 160000, Note_on_c, 0, 76, 0
2, 160000, Note_on_c, 0, 79, 78
2, 160000, Note_on_c, 0, 57, 0
2, 160000, Note_on_c, 0, 62, 0
2, 160000, Note_on_c, 0, 66, 0
2, 160000, Note_on_c, 0, 57, 65
2, 160064, Note_on_c, 0, 79, 0
2, 160064, Note_on_c, 0, 78, 72
2, 160128, Note_on_c, 0, 78, 0
2, 160128, Note_on_c, 0, 81, 86
2, 160128, Note_on_c, 0, 62, 91
2, 160128, Note_on_c, 0, 66, 91
2, 160192, Note_on_c, 0, 81, 0
2, 160192, Note_on_c, 0, 79, 72
2, 160256, Note_on_c, 0, 79, 0
2, 160256, Note_on_c, 0, 83, 82
2, 160256, Note_on_c, 0, 62, 0
2, 160256, Note_on_c, 0, 66, 0
2, 160256, Note_on_c, 0, 62, 77
2, 160256, Note_on_c, 0, 66, 77
2, 160320, Note_on_c, 0, 83, 0
2, 160320, Note_on_c, 0, 81, 71
2, 160384, Note_on_c, 0, 81, 0
2, 160384, Note_on_c, 0, 85, 83
2, 160384, Note_on_c, 0, 57, 0
2, 160384, Note_on_c, 0, 62, 0
2, 160384, Note_on_c, 0, 66, 0
2, 160384, Note_on_c, 0, 57, 65
2, 160448, Note_on_c, 0, 85, 0
2, 160448, Note_on_c, 0, 83, 75
2, 160512, Note_on_c, 0, 83, 0
2, 160512, Note_on_c, 0, 86, 84
2, 160512, Note_on_c, 0, 62, 94
2, 160512, Note_on_c, 0, 66, 94
2, 160576, Note_on_c, 0, 86, 0
2, 160576, Note_on_c, 0, 85, 71
2, 160640, Note_on_c, 0, 85, 0
2, 160640, Note_on_c, 0, 88, 77
2, 160640, Note_on_c, 0, 62, 0
2, 160640, Note_on_c, 0, 66, 0
2, 160640, Note_on_c, 0, 62, 76
2, 160640, Note_on_c, 0, 66, 76
2, 160704, Note_on_c, 0, 88, 0
2, 160704, Note_on_c, 0, 86, 70
2, 160768, Note_on_c, 0, 86, 0
2, 160768, Note_on_c, 0, 89, 80
2, 160768, Note_on_c, 0, 57, 0
2, 160768, Note_on_c, 0, 62, 0
2, 160768, Note_on_c, 0, 66, 0
2, 160768, Note_on_c, 0, 56, 81
2, 160768, Note_on_c, 0, 59, 81
2, 160768, Note_on_c, 0, 62, 81
2, 160768, Note_on_c, 0, 65, 81
2, 160959, Note_on_c, 0, 89, 0
2, 161024, Note_on_c, 0, 83, 65
2, 161024, Note_on_c, 0, 56, 0
2, 161024, Note_on_c, 0, 59, 0
2, 161024, Note_on_c, 0, 62, 0
2, 161024, Note_on_c, 0, 65, 0
2, 161088, Note_on_c, 0, 83, 0
2, 161088, Note_on_c, 0, 85, 83
2, 161152, Note_on_c, 0, 85, 0
2, 161152, Note_on_c, 0, 86, 75
2, 161216, Note_on_c, 0, 86, 0
2, 161216, Note_on_c, 0, 80, 61
2, 161280, Note_on_c, 0, 80, 0
2, 161280, Note_on_c, 0, 83, 83
2, 161344, Note_on_c, 0, 83, 0
2, 161344, Note_on_c, 0, 74, 60
2, 161408, Note_on_c, 0, 74, 0
2, 161408, Note_on_c, 0, 77, 76
2, 161472, Note_on_c, 0, 77, 0
2, 161472, Note_on_c, 0, 71, 66
2, 161536, Note_on_c, 0, 71, 0
2, 161536, Note_on_c, 0, 74, 81
2, 161792, Note_on_c, 0, 66, 73
2, 161792, Note_on_c, 0, 57, 64
2, 161920, Note_on_c, 0, 66, 0
2, 161920, Note_on_c, 0, 67, 76
2, 161920, Note_on_c, 0, 57, 0
2, 161920, Note_on_c, 0, 58, 78
2, 162176, Note_on_c, 0, 67, 0
2, 162176, Note_on_c, 0, 68, 79
2, 162176, Note_on_c, 0, 58, 0
2, 162176, Note_on_c, 0, 59, 75
2, 162304, Note_on_c, 0, 68, 0
2, 162304, Note_on_c, 0, 74, 0
2, 162304, Note_on_c, 0, 69, 82
2, 162304, Note_on_c, 0, 74, 82
2, 162304, Note_on_c, 0, 78, 82
2, 162304, Note_on_c, 0, 59, 0
2, 162304, Note_on_c, 0, 57, 76
2, 162688, Note_on_c, 0, 69, 0
2, 162688, Note_on_c, 0, 74, 0
2, 162688, Note_on_c, 0, 78, 0
2, 162688, Note_on_c, 0, 67, 79
2, 162688, Note_on_c, 0, 73, 79
2, 162688, Note_on_c, 0, 76, 79
2, 162688, Note_on_c, 0, 78, 79
2, 162752, Note_on_c, 0, 78, 0
2, 162816, Note_on_c, 0, 76, 0
2, 162816, Note_on_c, 0, 74, 68
2, 162879, Note_on_c, 0, 74, 0
2, 162944, Note_on_c, 0, 76, 83
2, 163007, Note_on_c, 0, 67, 0
2, 163007, Note_on_c, 0, 73, 0
2, 163007, Note_on_c, 0, 76, 0
2, 163072, Note_on_c, 0, 62, 71
2, 163072, Note_on_c, 0, 74, 71
2, 163072, Note_on_c, 0, 57, 0
2, 163200, Note_on_c, 0, 62, 0
2, 163200, Note_on_c, 0, 74, 0
2, 163200, Note_on_c, 0, 66, 61
2, 163328, Note_on_c, 0, 66, 0
2, 163328, Note_on_c, 0, 69, 96
2, 163328, Note_on_c, 0, 80, 96
2, 163392, Note_on_c, 0, 80, 0
2, 163392, Note_on_c, 0, 81, 81
2, 163456, Note_on_c, 0, 69, 0
2, 163456, Note_on_c, 0, 81, 0
2, 163456, Note_on_c, 0, 83, 76
2, 163456, Note_on_c, 0, 62, 68
2, 163520, Note_on_c, 0, 83, 0
2, 163520, Note_on_c, 0, 81, 72
2, 163584, Note_on_c, 0, 81, 0
2, 163584, Note_on_c, 0, 62, 0
2, 163584, Note_on_c, 0, 79, 72
2, 163584, Note_on_c, 0, 66, 82
2, 163648, Note_on_c, 0, 79, 0
2, 163648, Note_on_c, 0, 78, 75
2, 163712, Note_on_c, 0, 78, 0
2, 163712, Note_on_c, 0, 69, 67
2, 163712, Note_on_c, 0, 76, 67
2, 163712, Note_on_c, 0, 66, 0
2, 163776, Note_on_c, 0, 76, 0
2, 163776, Note_on_c, 0, 74, 66
2, 163840, Note_on_c, 0, 69, 0
2, 163840, Note_on_c, 0, 74, 0
2, 163840, Note_on_c, 0, 73, 67
2, 163840, Note_on_c, 0, 57, 67
2, 163904, Note_on_c, 0, 73, 0
2, 163904, Note_on_c, 0, 74, 74
2, 163968, Note_on_c, 0, 74, 0
2, 163968, Note_on_c, 0, 75, 80
2, 163968, Note_on_c, 0, 57, 0
2, 163968, Note_on_c, 0, 61, 83
2, 164032, Note_on_c, 0, 75, 0
2, 164032, Note_on_c, 0, 76, 78
2, 164096, Note_on_c, 0, 76, 0
2, 164096, Note_on_c, 0, 77, 81
2, 164096, Note_on_c, 0, 61, 0
2, 164096, Note_on_c, 0, 64, 88
2, 164160, Note_on_c, 0, 77, 0
2, 164160, Note_on_c, 0, 78, 82
2, 164224, Note_on_c, 0, 78, 0
2, 164224, Note_on_c, 0, 79, 78
2, 164224, Note_on_c, 0, 64, 0
2, 164224, Note_on_c, 0, 57, 70
2, 164288, Note_on_c, 0, 79, 0
2, 164288, Note_on_c, 0, 80, 82
2, 164352, Note_on_c, 0, 80, 0
2, 164352, Note_on_c, 0, 57, 0
2, 164352, Note_on_c, 0, 81, 77
2, 164352, Note_on_c, 0, 61, 88
2, 164416, Note_on_c, 0, 81, 0
2, 164416, Note_on_c, 0, 82, 77
2, 164480, Note_on_c, 0, 82, 0
2, 164480, Note_on_c, 0, 83, 80
2, 164480, Note_on_c, 0, 61, 0
2, 164480, Note_on_c, 0, 64, 83
2, 164544, Note_on_c, 0, 83, 0
2, 164544, Note_on_c, 0, 79, 70
2, 164608, Note_on_c, 0, 79, 0
2, 164608, Note_on_c, 0, 78, 74
2, 164608, Note_on_c, 0, 64, 0
2, 164608, Note_on_c, 0, 62, 75
2, 164736, Note_on_c, 0, 78, 0
2, 164736, Note_on_c, 0, 66, 55
2, 164736, Note_on_c, 0, 62, 0
2, 164864, Note_on_c, 0, 66, 0
2, 164864, Note_on_c, 0, 69, 93
2, 164864, Note_on_c, 0, 80, 93
2, 164928, Note_on_c, 0, 80, 0
2, 164928, Note_on_c, 0, 81, 83
2, 164992, Note_on_c, 0, 69, 0
2, 164992, Note_on_c, 0, 81, 0
2, 164992, Note_on_c, 0, 83, 81
2, 164992, Note_on_c, 0, 62, 62
2, 165056, Note_on_c, 0, 83, 0
2, 165056, Note_on_c, 0, 81, 71
2, 165120, Note_on_c, 0, 81, 0
2, 165120, Note_on_c, 0, 62, 0
2, 165120, Note_on_c, 0, 79, 72
2, 165120, Note_on_c, 0, 66, 83
2, 165184, Note_on_c, 0, 79, 0
2, 165184, Note_on_c, 0, 78, 72
2, 165248, Note_on_c, 0, 78, 0
2, 165248, Note_on_c, 0, 69, 73
2, 165248, Note_on_c, 0, 76, 73
2, 165248, Note_on_c, 0, 66, 0
2, 165312, Note_on_c, 0, 76, 0
2, 165312, Note_on_c, 0, 74, 67
2, 165376, Note_on_c, 0, 69, 0
2, 165376, Note_on_c, 0, 74, 0
2, 165376, Note_on_c, 0, 73, 68
2, 165376, Note_on_c, 0, 57, 68
2, 165440, Note_on_c, 0, 73, 0
2, 165440, Note_on_c, 0, 74, 79
2, 165504, Note_on_c, 0, 74, 0
2, 165504, Note_on_c, 0, 64, 84
2, 165504, Note_on_c, 0, 75, 84
2, 165504, Note_on_c, 0, 57, 0
2, 165568, Note_on_c, 0, 75, 0
2, 165568, Note_on_c, 0, 76, 81
2, 165632, Note_on_c, 0, 64, 0
2, 165632, Note_on_c, 0, 76, 0
2, 165632, Note_on_c, 0, 67, 77
2, 165632, Note_on_c, 0, 77, 77
2, 165696, Note_on_c, 0, 77, 0
2, 165696, Note_on_c, 0, 78, 83
2, 165760, Note_on_c, 0, 67, 0
2, 165760, Note_on_c, 0, 78, 0
2, 165760, Note_on_c, 0, 79, 83
2, 165760, Note_on_c, 0, 57, 67
2, 165824, Note_on_c, 0, 79, 0
2, 165824, Note_on_c, 0, 81, 87
2, 165888, Note_on_c, 0, 81, 0
2, 165888, Note_on_c, 0, 57, 0
2, 165888, Note_on_c, 0, 83, 85
2, 165888, Note_on_c, 0, 64, 84
2, 165952, Note_on_c, 0, 83, 0
2, 165952, Note_on_c, 0, 79, 66
2, 166016, Note_on_c, 0, 79, 0
2, 166016, Note_on_c, 0, 76, 68
2, 166016, Note_on_c, 0, 64, 0
2, 166016, Note_on_c, 0, 67, 82
2, 166080, Note_on_c, 0, 76, 0
2, 166080, Note_on_c, 0, 73, 67
2, 166144, Note_on_c, 0, 73, 0
2, 166144, Note_on_c, 0, 66, 78
2, 166144, Note_on_c, 0, 74, 78
2, 166144, Note_on_c, 0, 67, 0
2, 166144, Note_on_c, 0, 62, 69
2, 166272, Note_on_c, 0, 74, 0
2, 166272, Note_on_c, 0, 69, 71
2, 166400, Note_on_c, 0, 66, 0
2, 166400, Note_on_c, 0, 69, 0
2, 166400, Note_on_c, 0, 78, 91
2, 166400, Note_on_c, 0, 69, 91
2, 166528, Note_on_c, 0, 78, 0
2, 166528, Note_on_c, 0, 66, 70
2, 166528, Note_on_c, 0, 74, 70
2, 166528, Note_on_c, 0, 62, 0
2, 166528, Note_on_c, 0, 69, 0
2, 166528, Note_on_c, 0, 62, 63
2, 166656, Note_on_c, 0, 74, 0
2, 166656, Note_on_c, 0, 69, 65
2, 166784, Note_on_c, 0, 66, 0
2, 166784, Note_on_c, 0, 69, 0
2, 166784, Note_on_c, 0, 78, 88
2, 166784, Note_on_c, 0, 69, 87
2, 166912, Note_on_c, 0, 78, 0
2, 166912, Note_on_c, 0, 66, 72
2, 166912, Note_on_c, 0, 74, 72
2, 166912, Note_on_c, 0, 62, 0
2, 166912, Note_on_c, 0, 69, 0
2, 166912, Note_on_c, 0, 62, 66
2, 167168, Note_on_c, 0, 66, 0
2, 167168, Note_on_c, 0, 74, 0
2, 167168, Note_on_c, 0, 62, 0
2, 167169, End_track
0, 0, End_of_file
