0, 0, Header, 1, 2, 120
1, 0, Start_track
1, 0, Time_signature, 3, 2, 24, 8
1, 0, Key_signature, -3, "major"
1, 0, Tempo, 600000
1, 0, End_track
2, 0, Start_track
2, 0, MIDI_port, 0
2, 0, Title_t, "Mozart Sonata. K333-2 in Bb"
2, 0, Program_c, 2, 0
2, 114, Control_c, 2, 0, 0
2, 114, Control_c, 2, 32, 0
2, 114, Program_c, 2, 0
2, 114, Control_c, 2, 7, 127
2, 115, Pitch_bend_c, 2, 8192
2, 115, Control_c, 2, 1, 0
2, 115, Control_c, 2, 64, 0
2, 116, Note_on_c, 2, 51, 60
2, 116, Note_on_c, 2, 70, 68
2, 116, Note_on_c, 2, 67, 60
2, 198, Control_c, 2, 64, 127
2, 302, Note_on_c, 2, 67, 0
2, 324, Note_on_c, 2, 70, 0
2, 361, Note_on_c, 2, 68, 57
2, 361, Note_on_c, 2, 65, 45
2, 419, Note_on_c, 2, 65, 0
2, 427, Note_on_c, 2, 68, 0
2, 486, Note_on_c, 2, 67, 62
2, 486, Note_on_c, 2, 63, 45
2, 494, Control_c, 2, 64, 0
2, 523, Control_c, 2, 64, 127
2, 552, Note_on_c, 2, 67, 0
2, 565, Note_on_c, 2, 63, 0
2, 610, Note_on_c, 2, 72, 55
2, 610, Note_on_c, 2, 68, 45
2, 619, Control_c, 2, 64, 0
2, 653, Control_c, 2, 64, 127
2, 693, Note_on_c, 2, 72, 0
2, 698, Note_on_c, 2, 68, 0
2, 732, Note_on_c, 2, 70, 56
2, 732, Note_on_c, 2, 67, 57
2, 823, Note_on_c, 2, 67, 0
2, 824, Note_on_c, 2, 51, 0
2, 827, Note_on_c, 2, 70, 0
2, 857, Note_on_c, 2, 51, 56
2, 857, Note_on_c, 2, 67, 54
2, 857, Note_on_c, 2, 70, 54
2, 869, Control_c, 2, 64, 0
2, 931, Control_c, 2, 64, 127
2, 1007, Note_on_c, 2, 67, 0
2, 1010, Note_on_c, 2, 51, 0
2, 1019, Note_on_c, 2, 70, 0
2, 1090, Note_on_c, 2, 53, 47
2, 1090, Note_on_c, 2, 65, 46
2, 1090, Note_on_c, 2, 68, 54
2, 1092, Control_c, 2, 64, 0
2, 1136, Control_c, 2, 64, 127
2, 1215, Note_on_c, 2, 68, 0
2, 1215, Note_on_c, 2, 65, 0
2, 1215, Note_on_c, 2, 53, 0
2, 1320, Note_on_c, 2, 67, 56
2, 1323, Note_on_c, 2, 63, 40
2, 1323, Note_on_c, 2, 55, 40
2, 1328, Control_c, 2, 64, 0
2, 1365, Control_c, 2, 64, 127
2, 1406, Note_on_c, 2, 55, 0
2, 1411, Note_on_c, 2, 63, 0
2, 1415, Note_on_c, 2, 67, 0
2, 1565, Note_on_c, 2, 64, 47
2, 1565, Note_on_c, 2, 61, 35
2, 1565, Note_on_c, 2, 58, 39
2, 1578, Control_c, 2, 64, 0
2, 1632, Control_c, 2, 64, 127
2, 1677, Note_on_c, 2, 61, 0
2, 1678, Note_on_c, 2, 58, 0
2, 1682, Note_on_c, 2, 64, 0
2, 1840, Note_on_c, 2, 56, 25
2, 1840, Note_on_c, 2, 60, 27
2, 1840, Note_on_c, 2, 65, 37
2, 1844, Control_c, 2, 64, 0
2, 1907, Control_c, 2, 64, 127
2, 1961, Note_on_c, 2, 72, 53
2, 1982, Note_on_c, 2, 65, 0
2, 2040, Note_on_c, 2, 72, 0
2, 2082, Note_on_c, 2, 70, 44
2, 2090, Note_on_c, 2, 60, 0
2, 2099, Note_on_c, 2, 56, 0
2, 2140, Note_on_c, 2, 68, 38
2, 2148, Note_on_c, 2, 70, 0
2, 2190, Note_on_c, 2, 68, 0
2, 2198, Note_on_c, 2, 67, 39
2, 2257, Note_on_c, 2, 65, 45
2, 2265, Note_on_c, 2, 67, 0
2, 2278, Note_on_c, 2, 65, 0
2, 2321, Note_on_c, 2, 45, 60
2, 2321, Note_on_c, 2, 55, 58
2, 2321, Note_on_c, 2, 63, 59
2, 2336, Control_c, 2, 64, 0
2, 2378, Note_on_c, 2, 46, 40
2, 2383, Note_on_c, 2, 45, 0
2, 2407, Control_c, 2, 64, 127
2, 2440, Note_on_c, 2, 46, 0
2, 2440, Note_on_c, 2, 48, 40
2, 2503, Note_on_c, 2, 48, 0
2, 2503, Note_on_c, 2, 46, 36
2, 2511, Note_on_c, 2, 63, 0
2, 2521, Note_on_c, 2, 55, 0
2, 2532, Note_on_c, 2, 46, 0
2, 2545, Control_c, 2, 64, 0
2, 2566, Note_on_c, 2, 62, 53
2, 2566, Note_on_c, 2, 53, 38
2, 2566, Note_on_c, 2, 46, 39
2, 2574, Control_c, 2, 64, 127
2, 2582, Note_on_c, 2, 53, 0
2, 2594, Note_on_c, 2, 62, 0
2, 2636, Note_on_c, 2, 58, 63
2, 2670, Note_on_c, 2, 62, 55
2, 2674, Note_on_c, 2, 58, 0
2, 2682, Control_c, 2, 64, 0
2, 2699, Note_on_c, 2, 60, 46
2, 2707, Note_on_c, 2, 62, 0
2, 2707, Control_c, 2, 64, 127
2, 2724, Note_on_c, 2, 63, 45
2, 2728, Note_on_c, 2, 60, 0
2, 2749, Note_on_c, 2, 62, 53
2, 2757, Note_on_c, 2, 63, 0
2, 2778, Note_on_c, 2, 65, 50
2, 2790, Note_on_c, 2, 62, 0
2, 2807, Note_on_c, 2, 63, 63
2, 2816, Note_on_c, 2, 65, 0
2, 2836, Note_on_c, 2, 67, 50
2, 2853, Note_on_c, 2, 63, 0
2, 2861, Note_on_c, 2, 65, 53
2, 2866, Note_on_c, 2, 67, 0
2, 2874, Note_on_c, 2, 65, 0
2, 2899, Note_on_c, 2, 68, 34
2, 2928, Note_on_c, 2, 67, 52
2, 2932, Note_on_c, 2, 68, 0
2, 2957, Note_on_c, 2, 70, 53
2, 2970, Note_on_c, 2, 67, 0
2, 2986, Note_on_c, 2, 68, 72
2, 2999, Note_on_c, 2, 70, 0
2, 3012, Note_on_c, 2, 68, 0
2, 3049, Note_on_c, 2, 39, 39
2, 3049, Note_on_c, 2, 51, 36
2, 3049, Note_on_c, 2, 72, 65
2, 3066, Note_on_c, 2, 46, 0
2, 3091, Note_on_c, 2, 72, 0
2, 3170, Note_on_c, 2, 70, 45
2, 3170, Note_on_c, 2, 67, 48
2, 3187, Control_c, 2, 64, 0
2, 3227, Note_on_c, 2, 70, 0
2, 3228, Note_on_c, 2, 72, 54
2, 3249, Note_on_c, 2, 67, 0
2, 3253, Control_c, 2, 64, 127
2, 3261, Note_on_c, 2, 70, 59
2, 3269, Note_on_c, 2, 39, 0
2, 3274, Note_on_c, 2, 72, 0
2, 3286, Note_on_c, 2, 68, 68
2, 3294, Note_on_c, 2, 51, 0
2, 3312, Note_on_c, 2, 70, 0
2, 3349, Note_on_c, 2, 67, 62
2, 3353, Note_on_c, 2, 68, 0
2, 3378, Note_on_c, 2, 67, 0
2, 3411, Note_on_c, 2, 65, 55
2, 3449, Note_on_c, 2, 65, 0
2, 3474, Note_on_c, 2, 63, 59
2, 3491, Note_on_c, 2, 63, 0
2, 3561, Note_on_c, 2, 51, 48
2, 3561, Note_on_c, 2, 60, 40
2, 3561, Note_on_c, 2, 79, 62
2, 3582, Control_c, 2, 64, 0
2, 3624, Note_on_c, 2, 74, 68
2, 3632, Control_c, 2, 64, 127
2, 3640, Note_on_c, 2, 79, 0
2, 3682, Note_on_c, 2, 75, 59
2, 3691, Note_on_c, 2, 74, 0
2, 3731, Note_on_c, 2, 51, 0
2, 3737, Note_on_c, 2, 75, 0
2, 3741, Note_on_c, 2, 72, 66
2, 3744, Note_on_c, 2, 60, 0
2, 3766, Note_on_c, 2, 72, 0
2, 3808, Note_on_c, 2, 53, 49
2, 3808, Note_on_c, 2, 60, 45
2, 3808, Note_on_c, 2, 70, 72
2, 3828, Control_c, 2, 64, 0
2, 3866, Control_c, 2, 64, 127
2, 3962, Note_on_c, 2, 53, 0
2, 3970, Note_on_c, 2, 60, 0
2, 3978, Note_on_c, 2, 70, 0
2, 4078, Note_on_c, 2, 58, 59
2, 4078, Note_on_c, 2, 62, 41
2, 4078, Note_on_c, 2, 70, 66
2, 4082, Control_c, 2, 64, 0
2, 4103, Note_on_c, 2, 70, 0
2, 4103, Note_on_c, 2, 68, 66
2, 4116, Control_c, 2, 64, 127
2, 4120, Note_on_c, 2, 68, 0
2, 4124, Note_on_c, 2, 70, 44
2, 4141, Note_on_c, 2, 70, 0
2, 4145, Note_on_c, 2, 68, 31
2, 4149, Note_on_c, 2, 68, 0
2, 4154, Note_on_c, 2, 70, 44
2, 4162, Note_on_c, 2, 68, 46
2, 4166, Note_on_c, 2, 70, 0
2, 4174, Note_on_c, 2, 68, 0
2, 4183, Note_on_c, 2, 70, 40
2, 4191, Note_on_c, 2, 70, 0
2, 4191, Note_on_c, 2, 68, 45
2, 4199, Note_on_c, 2, 68, 0
2, 4204, Note_on_c, 2, 70, 54
2, 4220, Note_on_c, 2, 70, 0
2, 4220, Note_on_c, 2, 68, 46
2, 4232, Note_on_c, 2, 68, 0
2, 4233, Note_on_c, 2, 70, 48
2, 4253, Note_on_c, 2, 68, 49
2, 4262, Note_on_c, 2, 68, 0
2, 4262, Note_on_c, 2, 70, 0
2, 4262, Note_on_c, 2, 67, 40
2, 4270, Note_on_c, 2, 58, 0
2, 4278, Note_on_c, 2, 62, 0
2, 4287, Note_on_c, 2, 68, 45
2, 4295, Note_on_c, 2, 67, 0
2, 4320, Note_on_c, 2, 68, 0
2, 4324, Note_on_c, 2, 67, 54
2, 4324, Note_on_c, 2, 63, 37
2, 4324, Note_on_c, 2, 60, 30
2, 4341, Control_c, 2, 64, 0
2, 4386, Note_on_c, 2, 75, 40
2, 4391, Control_c, 2, 64, 127
2, 4424, Note_on_c, 2, 75, 0
2, 4453, Note_on_c, 2, 74, 53
2, 4474, Note_on_c, 2, 63, 0
2, 4483, Note_on_c, 2, 60, 0
2, 4487, Note_on_c, 2, 67, 0
2, 4520, Note_on_c, 2, 73, 46
2, 4532, Note_on_c, 2, 74, 0
2, 4608, Note_on_c, 2, 44, 31
2, 4608, Note_on_c, 2, 56, 32
2, 4608, Note_on_c, 2, 71, 40
2, 4616, Note_on_c, 2, 73, 0
2, 4621, Control_c, 2, 64, 0
2, 4678, Note_on_c, 2, 74, 47
2, 4691, Note_on_c, 2, 71, 0
2, 4704, Control_c, 2, 64, 127
2, 4716, Note_on_c, 2, 72, 45
2, 4724, Note_on_c, 2, 74, 0
2, 4749, Note_on_c, 2, 70, 59
2, 4762, Note_on_c, 2, 72, 0
2, 4770, Note_on_c, 2, 56, 0
2, 4778, Note_on_c, 2, 68, 55
2, 4791, Note_on_c, 2, 44, 0
2, 4800, Note_on_c, 2, 70, 0
2, 4812, Note_on_c, 2, 67, 47
2, 4820, Note_on_c, 2, 68, 0
2, 4854, Note_on_c, 2, 65, 49
2, 4862, Note_on_c, 2, 67, 0
2, 4891, Control_c, 2, 64, 0
2, 4899, Note_on_c, 2, 46, 39
2, 4899, Note_on_c, 2, 55, 36
2, 4899, Note_on_c, 2, 63, 48
2, 4907, Note_on_c, 2, 65, 0
2, 4966, Control_c, 2, 64, 127
2, 5015, Note_on_c, 2, 46, 0
2, 5023, Note_on_c, 2, 55, 0
2, 5174, Note_on_c, 2, 56, 22
2, 5174, Note_on_c, 2, 46, 26
2, 5183, Control_c, 2, 64, 0
2, 5312, Control_c, 2, 64, 127
2, 5320, Note_on_c, 2, 62, 42
2, 5320, Note_on_c, 2, 67, 40
2, 5328, Note_on_c, 2, 63, 0
2, 5333, Note_on_c, 2, 46, 0
2, 5378, Note_on_c, 2, 56, 0
2, 5383, Note_on_c, 2, 67, 0
2, 5391, Note_on_c, 2, 62, 0
2, 5391, Note_on_c, 2, 65, 45
2, 5458, Note_on_c, 2, 63, 40
2, 5458, Note_on_c, 2, 51, 35
2, 5470, Note_on_c, 2, 65, 0
2, 5483, Control_c, 2, 64, 0
2, 5520, Note_on_c, 2, 55, 41
2, 5545, Note_on_c, 2, 51, 0
2, 5550, Control_c, 2, 64, 127
2, 5587, Note_on_c, 2, 58, 37
2, 5592, Note_on_c, 2, 55, 0
2, 5646, Note_on_c, 2, 55, 42
2, 5670, Note_on_c, 2, 58, 0
2, 5704, Note_on_c, 2, 55, 0
2, 5716, Note_on_c, 2, 51, 32
2, 5721, Note_on_c, 2, 63, 0
2, 5775, Note_on_c, 2, 55, 35
2, 5804, Note_on_c, 2, 51, 0
2, 5841, Note_on_c, 2, 55, 0
2, 5841, Note_on_c, 2, 58, 33
2, 5842, Note_on_c, 2, 67, 42
2, 5842, Note_on_c, 2, 70, 42
2, 5900, Note_on_c, 2, 55, 48
2, 5916, Note_on_c, 2, 67, 0
2, 5920, Note_on_c, 2, 70, 0
2, 5954, Note_on_c, 2, 55, 0
2, 5958, Note_on_c, 2, 51, 36
2, 5958, Note_on_c, 2, 67, 40
2, 5958, Note_on_c, 2, 70, 44
2, 5962, Note_on_c, 2, 58, 0
2, 6017, Note_on_c, 2, 55, 35
2, 6029, Note_on_c, 2, 67, 0
2, 6033, Note_on_c, 2, 70, 0
2, 6049, Note_on_c, 2, 51, 0
2, 6078, Note_on_c, 2, 51, 18
2, 6078, Note_on_c, 2, 70, 38
2, 6078, Note_on_c, 2, 67, 39
2, 6078, Note_on_c, 2, 58, 36
2, 6083, Note_on_c, 2, 55, 0
2, 6119, Note_on_c, 2, 67, 0
2, 6124, Note_on_c, 2, 70, 0
2, 6141, Note_on_c, 2, 55, 45
2, 6145, Note_on_c, 2, 51, 0
2, 6200, Note_on_c, 2, 55, 0
2, 6203, Note_on_c, 2, 58, 0
2, 6205, Note_on_c, 2, 68, 44
2, 6205, Note_on_c, 2, 75, 45
2, 6205, Note_on_c, 2, 51, 38
2, 6246, Control_c, 2, 64, 0
2, 6271, Note_on_c, 2, 53, 42
2, 6317, Control_c, 2, 64, 127
2, 6333, Note_on_c, 2, 53, 0
2, 6333, Note_on_c, 2, 56, 35
2, 6334, Note_on_c, 2, 74, 51
2, 6341, Note_on_c, 2, 75, 0
2, 6392, Note_on_c, 2, 53, 47
2, 6396, Note_on_c, 2, 51, 0
2, 6446, Note_on_c, 2, 53, 0
2, 6454, Note_on_c, 2, 56, 0
2, 6454, Note_on_c, 2, 51, 35
2, 6463, Note_on_c, 2, 68, 0
2, 6512, Note_on_c, 2, 53, 45
2, 6567, Note_on_c, 2, 53, 0
2, 6575, Note_on_c, 2, 56, 33
2, 6575, Note_on_c, 2, 82, 45
2, 6579, Note_on_c, 2, 74, 0
2, 6633, Note_on_c, 2, 53, 45
2, 6633, Note_on_c, 2, 80, 36
2, 6638, Note_on_c, 2, 51, 0
2, 6654, Note_on_c, 2, 82, 0
2, 6658, Note_on_c, 2, 80, 0
2, 6683, Note_on_c, 2, 53, 0
2, 6696, Note_on_c, 2, 56, 0
2, 6696, Note_on_c, 2, 51, 34
2, 6696, Note_on_c, 2, 79, 39
2, 6750, Note_on_c, 2, 79, 0
2, 6754, Note_on_c, 2, 53, 33
2, 6754, Note_on_c, 2, 77, 36
2, 6812, Note_on_c, 2, 75, 40
2, 6812, Note_on_c, 2, 56, 31
2, 6816, Note_on_c, 2, 53, 0
2, 6821, Note_on_c, 2, 77, 0
2, 6875, Note_on_c, 2, 53, 42
2, 6875, Note_on_c, 2, 74, 37
2, 6879, Note_on_c, 2, 51, 0
2, 6882, Note_on_c, 2, 75, 0
2, 6900, Note_on_c, 2, 74, 0
2, 6905, Note_on_c, 2, 53, 0
2, 6917, Note_on_c, 2, 56, 0
2, 6933, Note_on_c, 2, 77, 57
2, 6934, Note_on_c, 2, 51, 43
2, 6946, Note_on_c, 2, 77, 0
2, 6950, Note_on_c, 2, 75, 57
2, 6958, Note_on_c, 2, 75, 0
2, 6962, Note_on_c, 2, 77, 55
2, 6963, Control_c, 2, 64, 0
2, 6975, Note_on_c, 2, 75, 57
2, 6983, Note_on_c, 2, 77, 0
2, 6992, Note_on_c, 2, 55, 45
2, 6992, Control_c, 2, 64, 127
2, 7012, Note_on_c, 2, 51, 0
2, 7046, Note_on_c, 2, 55, 0
2, 7046, Note_on_c, 2, 75, 0
2, 7050, Note_on_c, 2, 58, 45
2, 7050, Note_on_c, 2, 51, 11
2, 7108, Note_on_c, 2, 51, 0
2, 7112, Note_on_c, 2, 55, 44
2, 7112, Note_on_c, 2, 74, 46
2, 7125, Note_on_c, 2, 58, 0
2, 7142, Note_on_c, 2, 72, 42
2, 7154, Note_on_c, 2, 74, 0
2, 7170, Note_on_c, 2, 55, 0
2, 7171, Note_on_c, 2, 51, 36
2, 7171, Note_on_c, 2, 70, 59
2, 7179, Note_on_c, 2, 72, 0
2, 7188, Control_c, 2, 64, 0
2, 7221, Control_c, 2, 64, 127
2, 7229, Note_on_c, 2, 55, 36
2, 7246, Note_on_c, 2, 51, 0
2, 7250, Note_on_c, 2, 70, 0
2, 7283, Note_on_c, 2, 55, 0
2, 7284, Note_on_c, 2, 51, 15
2, 7287, Note_on_c, 2, 70, 42
2, 7287, Note_on_c, 2, 67, 44
2, 7287, Note_on_c, 2, 58, 35
2, 7346, Note_on_c, 2, 51, 0
2, 7346, Note_on_c, 2, 55, 50
2, 7350, Note_on_c, 2, 67, 0
2, 7353, Note_on_c, 2, 70, 0
2, 7358, Note_on_c, 2, 58, 0
2, 7404, Note_on_c, 2, 55, 0
2, 7405, Note_on_c, 2, 70, 53
2, 7405, Note_on_c, 2, 67, 47
2, 7405, Note_on_c, 2, 51, 38
2, 7466, Note_on_c, 2, 70, 0
2, 7467, Note_on_c, 2, 67, 0
2, 7467, Note_on_c, 2, 55, 40
2, 7479, Note_on_c, 2, 51, 0
2, 7525, Note_on_c, 2, 55, 0
2, 7526, Note_on_c, 2, 51, 14
2, 7526, Note_on_c, 2, 58, 29
2, 7526, Note_on_c, 2, 67, 53
2, 7526, Note_on_c, 2, 70, 57
2, 7554, Note_on_c, 2, 67, 0
2, 7558, Note_on_c, 2, 70, 0
2, 7588, Note_on_c, 2, 55, 29
2, 7592, Note_on_c, 2, 51, 0
2, 7609, Note_on_c, 2, 58, 0
2, 7646, Note_on_c, 2, 55, 0
2, 7646, Note_on_c, 2, 51, 34
2, 7646, Note_on_c, 2, 75, 41
2, 7646, Note_on_c, 2, 68, 39
2, 7675, Control_c, 2, 64, 0
2, 7717, Note_on_c, 2, 53, 37
2, 7733, Control_c, 2, 64, 127
2, 7767, Note_on_c, 2, 75, 0
2, 7771, Note_on_c, 2, 74, 52
2, 7775, Note_on_c, 2, 53, 0
2, 7775, Note_on_c, 2, 56, 26
2, 7800, Note_on_c, 2, 68, 0
2, 7826, Note_on_c, 2, 51, 0
2, 7830, Note_on_c, 2, 53, 42
2, 7850, Note_on_c, 2, 56, 0
2, 7888, Note_on_c, 2, 53, 0
2, 7892, Note_on_c, 2, 51, 32
2, 7950, Note_on_c, 2, 53, 45
2, 8004, Note_on_c, 2, 53, 0
2, 8009, Note_on_c, 2, 56, 31
2, 8009, Note_on_c, 2, 82, 44
2, 8042, Note_on_c, 2, 74, 0
2, 8063, Note_on_c, 2, 51, 0
2, 8071, Note_on_c, 2, 53, 41
2, 8071, Note_on_c, 2, 80, 37
2, 8088, Note_on_c, 2, 82, 0
2, 8092, Note_on_c, 2, 80, 0
2, 8121, Note_on_c, 2, 51, 53
2, 8121, Note_on_c, 2, 79, 57
2, 8125, Note_on_c, 2, 53, 0
2, 8125, Note_on_c, 2, 56, 0
2, 8142, Control_c, 2, 64, 0
2, 8188, Note_on_c, 2, 53, 27
2, 8188, Note_on_c, 2, 77, 40
2, 8192, Note_on_c, 2, 79, 0
2, 8238, Control_c, 2, 64, 127
2, 8246, Note_on_c, 2, 56, 31
2, 8246, Note_on_c, 2, 75, 34
2, 8254, Note_on_c, 2, 77, 0
2, 8254, Note_on_c, 2, 53, 0
2, 8305, Note_on_c, 2, 75, 0
2, 8305, Note_on_c, 2, 74, 40
2, 8305, Note_on_c, 2, 53, 35
2, 8325, Note_on_c, 2, 56, 0
2, 8326, Note_on_c, 2, 51, 0
2, 8330, Note_on_c, 2, 53, 0
2, 8338, Note_on_c, 2, 74, 0
2, 8367, Note_on_c, 2, 51, 36
2, 8367, Note_on_c, 2, 55, 47
2, 8368, Note_on_c, 2, 75, 49
2, 8396, Control_c, 2, 64, 0
2, 8422, Note_on_c, 2, 75, 0
2, 8430, Note_on_c, 2, 77, 42
2, 8455, Note_on_c, 2, 75, 33
2, 8463, Note_on_c, 2, 77, 0
2, 8471, Note_on_c, 2, 74, 46
2, 8475, Note_on_c, 2, 75, 0
2, 8496, Note_on_c, 2, 75, 45
2, 8533, Note_on_c, 2, 74, 0
2, 8536, Note_on_c, 2, 77, 40
2, 8546, Note_on_c, 2, 75, 0
2, 8563, Note_on_c, 2, 79, 32
2, 8578, Note_on_c, 2, 77, 0
2, 8588, Note_on_c, 2, 75, 44
2, 8600, Note_on_c, 2, 79, 0
2, 8619, Note_on_c, 2, 70, 57
2, 8626, Note_on_c, 2, 75, 0
2, 8629, Note_on_c, 2, 51, 0
2, 8629, Note_on_c, 2, 55, 0
2, 8634, Control_c, 2, 64, 127
2, 8640, Note_on_c, 2, 70, 0
2, 8751, Note_on_c, 2, 67, 48
2, 8751, Note_on_c, 2, 70, 46
2, 8752, Note_on_c, 2, 55, 39
2, 8755, Note_on_c, 2, 58, 37
2, 8759, Control_c, 2, 64, 0
2, 8800, Control_c, 2, 64, 127
2, 8834, Note_on_c, 2, 58, 0
2, 8834, Note_on_c, 2, 55, 0
2, 8838, Note_on_c, 2, 67, 0
2, 8846, Note_on_c, 2, 70, 0
2, 8876, Note_on_c, 2, 56, 36
2, 8876, Note_on_c, 2, 68, 48
2, 8876, Note_on_c, 2, 60, 30
2, 8876, Note_on_c, 2, 65, 43
2, 8888, Control_c, 2, 64, 0
2, 8922, Control_c, 2, 64, 127
2, 8946, Note_on_c, 2, 65, 0
2, 8951, Note_on_c, 2, 56, 0
2, 8963, Note_on_c, 2, 60, 0
2, 8963, Note_on_c, 2, 68, 0
2, 8997, Note_on_c, 2, 57, 35
2, 8997, Note_on_c, 2, 67, 45
2, 8997, Note_on_c, 2, 60, 34
2, 8997, Note_on_c, 2, 63, 42
2, 9009, Control_c, 2, 64, 0
2, 9042, Control_c, 2, 64, 127
2, 9063, Note_on_c, 2, 67, 0
2, 9063, Note_on_c, 2, 57, 0
2, 9081, Note_on_c, 2, 60, 0
2, 9084, Note_on_c, 2, 63, 0
2, 9121, Note_on_c, 2, 58, 35
2, 9121, Note_on_c, 2, 63, 48
2, 9121, Note_on_c, 2, 70, 54
2, 9134, Control_c, 2, 64, 0
2, 9180, Control_c, 2, 64, 127
2, 9230, Note_on_c, 2, 63, 0
2, 9234, Note_on_c, 2, 70, 0
2, 9301, Note_on_c, 2, 67, 47
2, 9359, Note_on_c, 2, 67, 0
2, 9363, Note_on_c, 2, 65, 63
2, 9363, Note_on_c, 2, 62, 55
2, 9376, Control_c, 2, 64, 0
2, 9409, Control_c, 2, 64, 127
2, 9434, Note_on_c, 2, 58, 0
2, 9476, Note_on_c, 2, 58, 66
2, 9484, Control_c, 2, 64, 0
2, 9522, Control_c, 2, 64, 127
2, 9580, Note_on_c, 2, 53, 59
2, 9588, Note_on_c, 2, 58, 0
2, 9597, Note_on_c, 2, 62, 0
2, 9684, Note_on_c, 2, 50, 62
2, 9688, Note_on_c, 2, 53, 0
2, 9697, Note_on_c, 2, 65, 0
2, 9759, Note_on_c, 2, 65, 56
2, 9792, Note_on_c, 2, 50, 0
2, 9792, Note_on_c, 2, 46, 45
2, 9792, Note_on_c, 2, 77, 56
2, 9805, Control_c, 2, 64, 0
2, 9893, Control_c, 2, 64, 127
2, 9901, Note_on_c, 2, 50, 53
2, 10005, Note_on_c, 2, 53, 44
2, 10013, Note_on_c, 2, 50, 0
2, 10013, Note_on_c, 2, 65, 0
2, 10029, Note_on_c, 2, 46, 0
2, 10109, Note_on_c, 2, 53, 0
2, 10114, Note_on_c, 2, 58, 34
2, 10114, Note_on_c, 2, 75, 45
2, 10117, Note_on_c, 2, 77, 0
2, 10127, Note_on_c, 2, 58, 0
2, 10130, Note_on_c, 2, 75, 0
2, 10134, Note_on_c, 2, 74, 38
2, 10142, Note_on_c, 2, 74, 0
2, 10160, Note_on_c, 2, 72, 66
2, 10193, Note_on_c, 2, 70, 62
2, 10201, Note_on_c, 2, 72, 0
2, 10213, Note_on_c, 2, 65, 41
2, 10213, Note_on_c, 2, 69, 54
2, 10213, Note_on_c, 2, 63, 45
2, 10217, Note_on_c, 2, 70, 0
2, 10222, Control_c, 2, 64, 0
2, 10243, Control_c, 2, 64, 127
2, 10280, Note_on_c, 2, 63, 0
2, 10292, Note_on_c, 2, 65, 0
2, 10297, Note_on_c, 2, 69, 0
2, 10326, Note_on_c, 2, 70, 60
2, 10327, Note_on_c, 2, 62, 39
2, 10327, Note_on_c, 2, 65, 37
2, 10334, Control_c, 2, 64, 0
2, 10355, Control_c, 2, 64, 127
2, 10368, Note_on_c, 2, 65, 0
2, 10372, Note_on_c, 2, 62, 0
2, 10388, Note_on_c, 2, 70, 0
2, 10438, Note_on_c, 2, 60, 42
2, 10438, Note_on_c, 2, 69, 40
2, 10438, Note_on_c, 2, 63, 37
2, 10438, Note_on_c, 2, 72, 53
2, 10442, Control_c, 2, 64, 0
2, 10459, Control_c, 2, 64, 127
2, 10468, Note_on_c, 2, 72, 0
2, 10468, Note_on_c, 2, 63, 0
2, 10468, Note_on_c, 2, 60, 0
2, 10472, Note_on_c, 2, 69, 0
2, 10555, Note_on_c, 2, 58, 29
2, 10555, Note_on_c, 2, 62, 31
2, 10555, Note_on_c, 2, 75, 40
2, 10555, Note_on_c, 2, 70, 48
2, 10559, Control_c, 2, 64, 0
2, 10580, Control_c, 2, 64, 127
2, 10584, Note_on_c, 2, 70, 0
2, 10584, Note_on_c, 2, 74, 42
2, 10592, Note_on_c, 2, 58, 0
2, 10593, Note_on_c, 2, 62, 0
2, 10593, Note_on_c, 2, 75, 0
2, 10613, Note_on_c, 2, 74, 0
2, 10618, Note_on_c, 2, 72, 45
2, 10639, Note_on_c, 2, 72, 0
2, 10639, Note_on_c, 2, 74, 48
2, 10672, Note_on_c, 2, 74, 0
2, 10680, Note_on_c, 2, 72, 35
2, 10680, Note_on_c, 2, 75, 36
2, 10680, Note_on_c, 2, 60, 19
2, 10680, Note_on_c, 2, 57, 31
2, 10680, Control_c, 2, 64, 0
2, 10726, Control_c, 2, 64, 127
2, 10766, Note_on_c, 2, 72, 0
2, 10792, Note_on_c, 2, 65, 40
2, 10801, Note_on_c, 2, 75, 0
2, 10846, Note_on_c, 2, 65, 0
2, 10859, Note_on_c, 2, 60, 0
2, 10905, Note_on_c, 2, 65, 49
2, 10942, Note_on_c, 2, 65, 0
2, 10963, Note_on_c, 2, 57, 0
2, 11014, Note_on_c, 2, 65, 45
2, 11047, Note_on_c, 2, 65, 0
2, 11118, Note_on_c, 2, 75, 72
2, 11222, Note_on_c, 2, 53, 48
2, 11264, Control_c, 2, 64, 0
2, 11322, Note_on_c, 2, 57, 44
2, 11422, Note_on_c, 2, 60, 40
2, 11422, Note_on_c, 2, 77, 53
2, 11426, Note_on_c, 2, 57, 0
2, 11426, Note_on_c, 2, 75, 0
2, 11430, Note_on_c, 2, 53, 0
2, 11430, Control_c, 2, 64, 127
2, 11447, Note_on_c, 2, 75, 45
2, 11451, Note_on_c, 2, 77, 0
2, 11455, Note_on_c, 2, 60, 0
2, 11472, Note_on_c, 2, 74, 37
2, 11489, Note_on_c, 2, 72, 47
2, 11492, Note_on_c, 2, 74, 0
2, 11506, Note_on_c, 2, 75, 0
2, 11522, Note_on_c, 2, 70, 54
2, 11522, Note_on_c, 2, 62, 46
2, 11526, Note_on_c, 2, 72, 0
2, 11526, Control_c, 2, 64, 0
2, 11555, Control_c, 2, 64, 127
2, 11568, Note_on_c, 2, 62, 0
2, 11601, Note_on_c, 2, 70, 0
2, 11618, Note_on_c, 2, 72, 47
2, 11618, Note_on_c, 2, 65, 42
2, 11618, Note_on_c, 2, 63, 38
2, 11630, Control_c, 2, 64, 0
2, 11652, Control_c, 2, 64, 127
2, 11684, Note_on_c, 2, 65, 0
2, 11689, Note_on_c, 2, 63, 0
2, 11693, Note_on_c, 2, 72, 0
2, 11730, Note_on_c, 2, 74, 51
2, 11730, Note_on_c, 2, 70, 48
2, 11730, Note_on_c, 2, 65, 36
2, 11730, Note_on_c, 2, 62, 38
2, 11751, Note_on_c, 2, 65, 0
2, 11760, Note_on_c, 2, 62, 0
2, 11760, Note_on_c, 2, 74, 0
2, 11768, Note_on_c, 2, 70, 0
2, 11851, Note_on_c, 2, 77, 46
2, 11851, Note_on_c, 2, 72, 40
2, 11851, Note_on_c, 2, 63, 39
2, 11851, Note_on_c, 2, 60, 40
2, 11876, Control_c, 2, 64, 0
2, 11888, Note_on_c, 2, 77, 0
2, 11888, Note_on_c, 2, 75, 40
2, 11910, Control_c, 2, 64, 127
2, 11918, Note_on_c, 2, 60, 0
2, 11922, Note_on_c, 2, 75, 0
2, 11930, Note_on_c, 2, 63, 0
2, 11930, Note_on_c, 2, 74, 37
2, 11946, Note_on_c, 2, 72, 0
2, 11951, Note_on_c, 2, 75, 38
2, 11960, Note_on_c, 2, 74, 0
2, 11984, Note_on_c, 2, 75, 0
2, 11998, Note_on_c, 2, 77, 42
2, 11998, Note_on_c, 2, 74, 42
2, 11998, Note_on_c, 2, 62, 36
2, 11998, Note_on_c, 2, 58, 38
2, 12010, Control_c, 2, 64, 0
2, 12035, Control_c, 2, 64, 127
2, 12044, Note_on_c, 2, 62, 0
2, 12056, Note_on_c, 2, 58, 0
2, 12114, Note_on_c, 2, 46, 64
2, 12172, Note_on_c, 2, 46, 0
2, 12222, Note_on_c, 2, 46, 63
2, 12276, Note_on_c, 2, 46, 0
2, 12335, Note_on_c, 2, 46, 63
2, 12339, Note_on_c, 2, 77, 0
2, 12368, Note_on_c, 2, 74, 0
2, 12406, Control_c, 2, 64, 0
2, 12455, Control_c, 2, 64, 127
2, 12464, Note_on_c, 2, 80, 100
2, 12476, Note_on_c, 2, 46, 0
2, 12568, Note_on_c, 2, 50, 48
2, 12660, Control_c, 2, 64, 0
2, 12672, Control_c, 2, 64, 127
2, 12677, Note_on_c, 2, 53, 47
2, 12702, Note_on_c, 2, 53, 0
2, 12710, Note_on_c, 2, 50, 0
2, 12727, Note_on_c, 2, 80, 0
2, 12781, Note_on_c, 2, 56, 45
2, 12781, Note_on_c, 2, 79, 56
2, 12806, Note_on_c, 2, 77, 50
2, 12822, Note_on_c, 2, 79, 0
2, 12826, Note_on_c, 2, 75, 46
2, 12839, Note_on_c, 2, 77, 0
2, 12843, Note_on_c, 2, 56, 0
2, 12852, Note_on_c, 2, 74, 57
2, 12860, Note_on_c, 2, 75, 0
2, 12885, Note_on_c, 2, 75, 65
2, 12885, Note_on_c, 2, 55, 52
2, 12893, Note_on_c, 2, 74, 0
2, 12902, Control_c, 2, 64, 0
2, 12993, Note_on_c, 2, 55, 0
2, 12998, Note_on_c, 2, 50, 51
2, 13002, Note_on_c, 2, 77, 53
2, 13010, Note_on_c, 2, 75, 0
2, 13123, Note_on_c, 2, 78, 65
2, 13126, Note_on_c, 2, 77, 0
2, 13131, Control_c, 2, 64, 127
2, 13164, Note_on_c, 2, 50, 0
2, 13252, Note_on_c, 2, 58, 45
2, 13252, Note_on_c, 2, 51, 47
2, 13268, Control_c, 2, 64, 0
2, 13306, Control_c, 2, 64, 127
2, 13326, Note_on_c, 2, 51, 0
2, 13335, Note_on_c, 2, 58, 0
2, 13373, Note_on_c, 2, 51, 37
2, 13373, Note_on_c, 2, 58, 32
2, 13402, Note_on_c, 2, 78, 0
2, 13418, Note_on_c, 2, 51, 0
2, 13431, Note_on_c, 2, 58, 0
2, 13502, Note_on_c, 2, 80, 51
2, 13502, Note_on_c, 2, 51, 39
2, 13502, Note_on_c, 2, 59, 37
2, 13502, Control_c, 2, 64, 0
2, 13535, Control_c, 2, 64, 127
2, 13564, Note_on_c, 2, 79, 53
2, 13574, Note_on_c, 2, 51, 0
2, 13585, Note_on_c, 2, 59, 0
2, 13595, Note_on_c, 2, 80, 0
2, 13631, Note_on_c, 2, 60, 36
2, 13631, Note_on_c, 2, 51, 45
2, 13631, Note_on_c, 2, 77, 45
2, 13639, Note_on_c, 2, 79, 0
2, 13640, Control_c, 2, 64, 0
2, 13689, Control_c, 2, 64, 127
2, 13698, Note_on_c, 2, 77, 0
2, 13702, Note_on_c, 2, 75, 36
2, 13710, Note_on_c, 2, 60, 0
2, 13722, Note_on_c, 2, 51, 0
2, 13769, Note_on_c, 2, 51, 44
2, 13769, Note_on_c, 2, 57, 40
2, 13769, Note_on_c, 2, 74, 38
2, 13777, Note_on_c, 2, 75, 0
2, 13781, Control_c, 2, 64, 0
2, 13826, Control_c, 2, 64, 127
2, 13840, Note_on_c, 2, 72, 47
2, 13843, Note_on_c, 2, 74, 0
2, 13844, Note_on_c, 2, 51, 0
2, 13856, Note_on_c, 2, 57, 0
2, 13918, Note_on_c, 2, 50, 46
2, 13918, Note_on_c, 2, 58, 40
2, 13918, Note_on_c, 2, 77, 47
2, 13923, Note_on_c, 2, 72, 0
2, 13936, Control_c, 2, 64, 0
2, 13964, Note_on_c, 2, 77, 0
2, 13968, Note_on_c, 2, 76, 39
2, 13981, Control_c, 2, 64, 127
2, 14014, Note_on_c, 2, 77, 43
2, 14018, Note_on_c, 2, 76, 0
2, 14021, Note_on_c, 2, 50, 0
2, 14031, Note_on_c, 2, 58, 0
2, 14056, Note_on_c, 2, 77, 0
2, 14060, Note_on_c, 2, 51, 45
2, 14060, Note_on_c, 2, 58, 40
2, 14060, Note_on_c, 2, 79, 40
2, 14081, Control_c, 2, 64, 0
2, 14106, Note_on_c, 2, 79, 0
2, 14114, Note_on_c, 2, 67, 39
2, 14127, Control_c, 2, 64, 127
2, 14138, Note_on_c, 2, 51, 0
2, 14152, Note_on_c, 2, 58, 0
2, 14156, Note_on_c, 2, 75, 37
2, 14169, Note_on_c, 2, 67, 0
2, 14206, Note_on_c, 2, 70, 40
2, 14206, Note_on_c, 2, 62, 39
2, 14206, Note_on_c, 2, 53, 39
2, 14214, Note_on_c, 2, 75, 0
2, 14223, Control_c, 2, 64, 0
2, 14260, Control_c, 2, 64, 127
2, 14298, Note_on_c, 2, 53, 0
2, 14298, Note_on_c, 2, 62, 0
2, 14344, Note_on_c, 2, 62, 27
2, 14344, Note_on_c, 2, 53, 32
2, 14385, Note_on_c, 2, 53, 0
2, 14390, Note_on_c, 2, 62, 0
2, 14498, Note_on_c, 2, 74, 32
2, 14498, Note_on_c, 2, 69, 45
2, 14498, Note_on_c, 2, 63, 31
2, 14498, Note_on_c, 2, 53, 23
2, 14509, Note_on_c, 2, 70, 0
2, 14518, Control_c, 2, 64, 0
2, 14568, Note_on_c, 2, 72, 49
2, 14569, Control_c, 2, 64, 127
2, 14581, Note_on_c, 2, 74, 0
2, 14585, Note_on_c, 2, 69, 0
2, 14606, Note_on_c, 2, 63, 0
2, 14627, Note_on_c, 2, 70, 45
2, 14631, Note_on_c, 2, 63, 27
2, 14635, Note_on_c, 2, 72, 0
2, 14664, Note_on_c, 2, 53, 0
2, 14686, Note_on_c, 2, 72, 46
2, 14689, Note_on_c, 2, 70, 0
2, 14694, Note_on_c, 2, 63, 0
2, 14748, Note_on_c, 2, 70, 63
2, 14765, Note_on_c, 2, 72, 0
2, 14810, Note_on_c, 2, 58, 44
2, 14831, Control_c, 2, 64, 0
2, 14864, Note_on_c, 2, 62, 40
2, 14886, Control_c, 2, 64, 127
2, 14919, Note_on_c, 2, 62, 0
2, 14923, Note_on_c, 2, 58, 0
2, 14923, Note_on_c, 2, 65, 39
2, 14977, Note_on_c, 2, 63, 45
2, 14981, Note_on_c, 2, 65, 0
2, 14985, Note_on_c, 2, 70, 0
2, 15032, Note_on_c, 2, 63, 0
2, 15032, Note_on_c, 2, 65, 43
2, 15082, Note_on_c, 2, 70, 47
2, 15082, Note_on_c, 2, 77, 55
2, 15085, Note_on_c, 2, 62, 46
2, 15094, Note_on_c, 2, 65, 0
2, 15098, Control_c, 2, 64, 0
2, 15131, Control_c, 2, 64, 127
2, 15135, Note_on_c, 2, 62, 0
2, 15136, Note_on_c, 2, 65, 45
2, 15152, Note_on_c, 2, 77, 0
2, 15161, Note_on_c, 2, 70, 0
2, 15194, Note_on_c, 2, 65, 0
2, 15194, Note_on_c, 2, 60, 45
2, 15194, Note_on_c, 2, 72, 55
2, 15194, Note_on_c, 2, 77, 65
2, 15215, Control_c, 2, 64, 0
2, 15240, Note_on_c, 2, 65, 49
2, 15248, Note_on_c, 2, 60, 0
2, 15248, Control_c, 2, 64, 127
2, 15265, Note_on_c, 2, 77, 0
2, 15269, Note_on_c, 2, 72, 0
2, 15298, Note_on_c, 2, 65, 0
2, 15298, Note_on_c, 2, 58, 48
2, 15298, Note_on_c, 2, 74, 59
2, 15298, Note_on_c, 2, 77, 55
2, 15327, Control_c, 2, 64, 0
2, 15352, Note_on_c, 2, 65, 46
2, 15352, Control_c, 2, 64, 127
2, 15355, Note_on_c, 2, 74, 0
2, 15355, Note_on_c, 2, 58, 0
2, 15365, Note_on_c, 2, 77, 0
2, 15398, Note_on_c, 2, 65, 0
2, 15406, Note_on_c, 2, 57, 48
2, 15406, Note_on_c, 2, 75, 54
2, 15406, Note_on_c, 2, 77, 48
2, 15431, Control_c, 2, 64, 0
2, 15461, Note_on_c, 2, 60, 46
2, 15478, Control_c, 2, 64, 127
2, 15485, Note_on_c, 2, 57, 0
2, 15511, Note_on_c, 2, 63, 44
2, 15523, Note_on_c, 2, 60, 0
2, 15536, Note_on_c, 2, 77, 0
2, 15540, Note_on_c, 2, 79, 45
2, 15544, Note_on_c, 2, 75, 0
2, 15561, Note_on_c, 2, 63, 0
2, 15569, Note_on_c, 2, 62, 45
2, 15569, Note_on_c, 2, 77, 48
2, 15577, Note_on_c, 2, 79, 0
2, 15594, Note_on_c, 2, 76, 57
2, 15602, Note_on_c, 2, 77, 0
2, 15611, Control_c, 2, 64, 0
2, 15620, Note_on_c, 2, 60, 43
2, 15620, Note_on_c, 2, 77, 54
2, 15632, Note_on_c, 2, 76, 0
2, 15640, Note_on_c, 2, 62, 0
2, 15648, Control_c, 2, 64, 127
2, 15669, Note_on_c, 2, 58, 42
2, 15683, Note_on_c, 2, 60, 0
2, 15690, Note_on_c, 2, 77, 0
2, 15727, Note_on_c, 2, 57, 46
2, 15727, Note_on_c, 2, 69, 55
2, 15727, Note_on_c, 2, 77, 59
2, 15736, Note_on_c, 2, 58, 0
2, 15748, Control_c, 2, 64, 0
2, 15782, Note_on_c, 2, 55, 40
2, 15782, Control_c, 2, 64, 127
2, 15789, Note_on_c, 2, 57, 0
2, 15797, Note_on_c, 2, 69, 0
2, 15802, Note_on_c, 2, 77, 0
2, 15802, Note_on_c, 2, 55, 0
2, 15832, Note_on_c, 2, 53, 45
2, 15832, Note_on_c, 2, 70, 46
2, 15832, Note_on_c, 2, 79, 57
2, 15865, Control_c, 2, 64, 0
2, 15890, Note_on_c, 2, 55, 45
2, 15894, Control_c, 2, 64, 127
2, 15898, Note_on_c, 2, 53, 0
2, 15907, Note_on_c, 2, 55, 0
2, 15911, Note_on_c, 2, 79, 0
2, 15911, Note_on_c, 2, 70, 0
2, 15940, Note_on_c, 2, 81, 62
2, 15940, Note_on_c, 2, 72, 54
2, 15940, Note_on_c, 2, 51, 43
2, 15974, Control_c, 2, 64, 0
2, 15998, Note_on_c, 2, 53, 47
2, 16002, Note_on_c, 2, 51, 0
2, 16002, Control_c, 2, 64, 127
2, 16007, Note_on_c, 2, 81, 0
2, 16007, Note_on_c, 2, 72, 0
2, 16019, Note_on_c, 2, 53, 0
2, 16056, Note_on_c, 2, 82, 49
2, 16056, Note_on_c, 2, 74, 46
2, 16056, Note_on_c, 2, 50, 42
2, 16086, Control_c, 2, 64, 0
2, 16115, Note_on_c, 2, 53, 42
2, 16152, Control_c, 2, 64, 127
2, 16173, Note_on_c, 2, 58, 45
2, 16190, Note_on_c, 2, 53, 0
2, 16206, Note_on_c, 2, 84, 46
2, 16227, Note_on_c, 2, 82, 0
2, 16232, Note_on_c, 2, 58, 0
2, 16236, Note_on_c, 2, 53, 28
2, 16236, Note_on_c, 2, 86, 41
2, 16269, Note_on_c, 2, 82, 40
2, 16270, Control_c, 2, 64, 0
2, 16277, Note_on_c, 2, 84, 0
2, 16282, Note_on_c, 2, 86, 0
2, 16294, Note_on_c, 2, 53, 0
2, 16298, Note_on_c, 2, 50, 0
2, 16298, Note_on_c, 2, 62, 40
2, 16298, Note_on_c, 2, 77, 40
2, 16303, Note_on_c, 2, 82, 0
2, 16304, Control_c, 2, 64, 127
2, 16315, Note_on_c, 2, 77, 0
2, 16318, Note_on_c, 2, 62, 0
2, 16331, Note_on_c, 2, 74, 0
2, 16416, Note_on_c, 2, 58, 46
2, 16416, Note_on_c, 2, 77, 50
2, 16416, Note_on_c, 2, 74, 46
2, 16416, Note_on_c, 2, 62, 45
2, 16419, Control_c, 2, 64, 0
2, 16448, Control_c, 2, 64, 127
2, 16453, Note_on_c, 2, 62, 0
2, 16454, Note_on_c, 2, 58, 0
2, 16482, Note_on_c, 2, 74, 0
2, 16483, Note_on_c, 2, 77, 0
2, 16530, Note_on_c, 2, 60, 47
2, 16530, Note_on_c, 2, 63, 38
2, 16530, Note_on_c, 2, 72, 49
2, 16530, Note_on_c, 2, 75, 43
2, 16532, Control_c, 2, 64, 0
2, 16557, Control_c, 2, 64, 127
2, 16588, Note_on_c, 2, 72, 0
2, 16592, Note_on_c, 2, 75, 0
2, 16592, Note_on_c, 2, 63, 0
2, 16596, Note_on_c, 2, 60, 0
2, 16636, Control_c, 2, 64, 0
2, 16640, Note_on_c, 2, 74, 59
2, 16640, Note_on_c, 2, 70, 54
2, 16640, Note_on_c, 2, 65, 41
2, 16640, Note_on_c, 2, 62, 45
2, 16661, Control_c, 2, 64, 127
2, 16690, Note_on_c, 2, 70, 0
2, 16698, Note_on_c, 2, 65, 0
2, 16707, Note_on_c, 2, 74, 0
2, 16719, Note_on_c, 2, 62, 0
2, 16761, Note_on_c, 2, 72, 63
2, 16761, Note_on_c, 2, 67, 42
2, 16761, Note_on_c, 2, 63, 51
2, 16770, Control_c, 2, 64, 0
2, 16932, Note_on_c, 2, 74, 55
2, 16940, Note_on_c, 2, 72, 0
2, 16961, Note_on_c, 2, 75, 47
2, 16982, Note_on_c, 2, 72, 49
2, 16985, Note_on_c, 2, 74, 0
2, 17006, Note_on_c, 2, 67, 0
2, 17007, Note_on_c, 2, 75, 0
2, 17016, Note_on_c, 2, 79, 55
2, 17023, Note_on_c, 2, 63, 0
2, 17027, Control_c, 2, 64, 127
2, 17036, Note_on_c, 2, 72, 0
2, 17048, Note_on_c, 2, 79, 0
2, 17128, Control_c, 2, 64, 0
2, 17132, Note_on_c, 2, 67, 56
2, 17133, Note_on_c, 2, 51, 49
2, 17133, Note_on_c, 2, 60, 46
2, 17133, Note_on_c, 2, 75, 46
2, 17153, Control_c, 2, 64, 127
2, 17174, Note_on_c, 2, 75, 0
2, 17177, Note_on_c, 2, 51, 0
2, 17186, Note_on_c, 2, 60, 0
2, 17190, Note_on_c, 2, 67, 0
2, 17252, Note_on_c, 2, 53, 53
2, 17253, Note_on_c, 2, 65, 57
2, 17253, Note_on_c, 2, 70, 51
2, 17253, Note_on_c, 2, 62, 40
2, 17253, Control_c, 2, 64, 0
2, 17286, Control_c, 2, 64, 127
2, 17298, Note_on_c, 2, 53, 0
2, 17302, Note_on_c, 2, 62, 0
2, 17307, Note_on_c, 2, 70, 0
2, 17311, Note_on_c, 2, 65, 0
2, 17369, Note_on_c, 2, 53, 47
2, 17369, Note_on_c, 2, 69, 53
2, 17370, Note_on_c, 2, 72, 59
2, 17370, Note_on_c, 2, 63, 42
2, 17374, Control_c, 2, 64, 0
2, 17403, Note_on_c, 2, 53, 0
2, 17403, Control_c, 2, 64, 127
2, 17411, Note_on_c, 2, 69, 0
2, 17415, Note_on_c, 2, 63, 0
2, 17420, Note_on_c, 2, 72, 0
2, 17490, Control_c, 2, 64, 0
2, 17494, Note_on_c, 2, 72, 55
2, 17494, Note_on_c, 2, 69, 45
2, 17494, Note_on_c, 2, 63, 48
2, 17494, Note_on_c, 2, 58, 48
2, 17570, Control_c, 2, 64, 127
2, 17666, Note_on_c, 2, 73, 45
2, 17676, Note_on_c, 2, 69, 0
2, 17682, Note_on_c, 2, 58, 0
2, 17686, Note_on_c, 2, 63, 0
2, 17694, Note_on_c, 2, 72, 0
2, 17703, Note_on_c, 2, 73, 0
2, 17715, Control_c, 2, 64, 0
2, 17724, Note_on_c, 2, 62, 56
2, 17724, Note_on_c, 2, 70, 51
2, 17724, Note_on_c, 2, 74, 57
2, 17749, Control_c, 2, 64, 127
2, 17757, Note_on_c, 2, 62, 0
2, 17765, Note_on_c, 2, 74, 0
2, 17774, Note_on_c, 2, 70, 0
2, 17774, Note_on_c, 2, 58, 55
2, 17828, Note_on_c, 2, 62, 46
2, 17828, Note_on_c, 2, 70, 53
2, 17828, Note_on_c, 2, 77, 53
2, 17840, Note_on_c, 2, 58, 0
2, 17840, Control_c, 2, 64, 0
2, 17874, Control_c, 2, 64, 127
2, 17878, Note_on_c, 2, 62, 0
2, 17878, Note_on_c, 2, 65, 49
2, 17899, Note_on_c, 2, 77, 0
2, 17903, Note_on_c, 2, 70, 0
2, 17932, Note_on_c, 2, 77, 52
2, 17932, Note_on_c, 2, 72, 46
2, 17932, Note_on_c, 2, 63, 49
2, 17949, Note_on_c, 2, 65, 0
2, 17986, Note_on_c, 2, 62, 52
2, 17990, Control_c, 2, 64, 0
2, 18007, Note_on_c, 2, 63, 0
2, 18020, Note_on_c, 2, 77, 0
2, 18036, Note_on_c, 2, 77, 59
2, 18036, Note_on_c, 2, 74, 54
2, 18036, Note_on_c, 2, 60, 53
2, 18036, Control_c, 2, 64, 127
2, 18041, Note_on_c, 2, 72, 0
2, 18048, Note_on_c, 2, 62, 0
2, 18066, Note_on_c, 2, 60, 0
2, 18078, Note_on_c, 2, 74, 0
2, 18090, Note_on_c, 2, 58, 59
2, 18099, Note_on_c, 2, 77, 0
2, 18141, Note_on_c, 2, 58, 0
2, 18145, Note_on_c, 2, 57, 48
2, 18145, Note_on_c, 2, 75, 45
2, 18145, Note_on_c, 2, 77, 46
2, 18162, Control_c, 2, 64, 0
2, 18194, Note_on_c, 2, 60, 46
2, 18207, Control_c, 2, 64, 127
2, 18213, Note_on_c, 2, 57, 0
2, 18249, Note_on_c, 2, 60, 0
2, 18249, Note_on_c, 2, 63, 36
2, 18266, Note_on_c, 2, 77, 0
2, 18273, Note_on_c, 2, 75, 0
2, 18274, Note_on_c, 2, 79, 46
2, 18291, Note_on_c, 2, 62, 46
2, 18291, Note_on_c, 2, 77, 54
2, 18294, Note_on_c, 2, 63, 0
2, 18311, Note_on_c, 2, 79, 0
2, 18324, Note_on_c, 2, 76, 56
2, 18328, Note_on_c, 2, 77, 0
2, 18332, Control_c, 2, 64, 0
2, 18345, Note_on_c, 2, 77, 56
2, 18345, Note_on_c, 2, 60, 45
2, 18350, Note_on_c, 2, 62, 0
2, 18366, Note_on_c, 2, 76, 0
2, 18374, Control_c, 2, 64, 127
2, 18394, Note_on_c, 2, 58, 47
2, 18403, Note_on_c, 2, 60, 0
2, 18407, Note_on_c, 2, 77, 0
2, 18449, Note_on_c, 2, 57, 47
2, 18449, Note_on_c, 2, 69, 56
2, 18449, Note_on_c, 2, 77, 65
2, 18462, Note_on_c, 2, 58, 0
2, 18462, Control_c, 2, 64, 0
2, 18499, Note_on_c, 2, 55, 46
2, 18499, Control_c, 2, 64, 127
2, 18503, Note_on_c, 2, 57, 0
2, 18519, Note_on_c, 2, 69, 0
2, 18520, Note_on_c, 2, 55, 0
2, 18524, Note_on_c, 2, 77, 0
2, 18549, Note_on_c, 2, 70, 45
2, 18549, Note_on_c, 2, 79, 45
2, 18550, Note_on_c, 2, 53, 47
2, 18574, Control_c, 2, 64, 0
2, 18603, Note_on_c, 2, 55, 46
2, 18604, Control_c, 2, 64, 127
2, 18616, Note_on_c, 2, 70, 0
2, 18624, Note_on_c, 2, 79, 0
2, 18624, Note_on_c, 2, 53, 0
2, 18654, Note_on_c, 2, 55, 0
2, 18658, Note_on_c, 2, 51, 42
2, 18658, Note_on_c, 2, 72, 46
2, 18658, Note_on_c, 2, 81, 55
2, 18699, Control_c, 2, 64, 0
2, 18711, Note_on_c, 2, 53, 46
2, 18728, Note_on_c, 2, 51, 0
2, 18732, Control_c, 2, 64, 127
2, 18738, Note_on_c, 2, 72, 0
2, 18738, Note_on_c, 2, 81, 0
2, 18765, Note_on_c, 2, 53, 0
2, 18774, Note_on_c, 2, 82, 49
2, 18774, Note_on_c, 2, 74, 40
2, 18774, Note_on_c, 2, 50, 41
2, 18828, Control_c, 2, 64, 0
2, 18837, Note_on_c, 2, 53, 52
2, 18895, Note_on_c, 2, 58, 48
2, 18908, Note_on_c, 2, 53, 0
2, 18916, Control_c, 2, 64, 127
2, 18924, Note_on_c, 2, 84, 45
2, 18939, Note_on_c, 2, 82, 0
2, 18950, Note_on_c, 2, 53, 42
2, 18950, Note_on_c, 2, 86, 40
2, 18957, Note_on_c, 2, 58, 0
2, 18982, Note_on_c, 2, 82, 40
2, 18991, Control_c, 2, 64, 0
2, 18995, Note_on_c, 2, 86, 0
2, 18999, Note_on_c, 2, 84, 0
2, 19013, Note_on_c, 2, 53, 0
2, 19020, Note_on_c, 2, 50, 0
2, 19023, Note_on_c, 2, 77, 44
2, 19023, Note_on_c, 2, 62, 49
2, 19024, Control_c, 2, 64, 127
2, 19028, Note_on_c, 2, 82, 0
2, 19031, Note_on_c, 2, 77, 0
2, 19048, Note_on_c, 2, 62, 0
2, 19066, Note_on_c, 2, 74, 0
2, 19145, Note_on_c, 2, 58, 41
2, 19145, Note_on_c, 2, 77, 48
2, 19145, Note_on_c, 2, 74, 39
2, 19145, Note_on_c, 2, 62, 33
2, 19145, Control_c, 2, 64, 0
2, 19174, Control_c, 2, 64, 127
2, 19185, Note_on_c, 2, 62, 0
2, 19208, Note_on_c, 2, 58, 0
2, 19211, Note_on_c, 2, 74, 0
2, 19211, Note_on_c, 2, 77, 0
2, 19262, Note_on_c, 2, 75, 40
2, 19262, Note_on_c, 2, 72, 35
2, 19262, Note_on_c, 2, 63, 28
2, 19262, Note_on_c, 2, 60, 30
2, 19270, Control_c, 2, 64, 0
2, 19299, Note_on_c, 2, 63, 0
2, 19300, Control_c, 2, 64, 127
2, 19312, Note_on_c, 2, 72, 0
2, 19320, Note_on_c, 2, 60, 0
2, 19321, Note_on_c, 2, 75, 0
2, 19382, Note_on_c, 2, 70, 40
2, 19382, Note_on_c, 2, 62, 35
2, 19382, Note_on_c, 2, 74, 54
2, 19384, Note_on_c, 2, 65, 27
2, 19391, Control_c, 2, 64, 0
2, 19424, Control_c, 2, 64, 127
2, 19466, Note_on_c, 2, 65, 0
2, 19466, Note_on_c, 2, 70, 0
2, 19470, Note_on_c, 2, 62, 0
2, 19513, Note_on_c, 2, 71, 47
2, 19513, Note_on_c, 2, 67, 40
2, 19513, Note_on_c, 2, 63, 44
2, 19520, Note_on_c, 2, 74, 0
2, 19541, Control_c, 2, 64, 0
2, 19549, Note_on_c, 2, 72, 52
2, 19570, Note_on_c, 2, 71, 0
2, 19586, Note_on_c, 2, 74, 55
2, 19595, Note_on_c, 2, 72, 0
2, 19620, Note_on_c, 2, 72, 47
2, 19624, Note_on_c, 2, 74, 0
2, 19649, Note_on_c, 2, 75, 53
2, 19657, Note_on_c, 2, 72, 0
2, 19682, Note_on_c, 2, 74, 47
2, 19691, Note_on_c, 2, 75, 0
2, 19720, Note_on_c, 2, 77, 47
2, 19724, Note_on_c, 2, 74, 0
2, 19745, Note_on_c, 2, 75, 45
2, 19758, Note_on_c, 2, 77, 0
2, 19782, Note_on_c, 2, 75, 0
2, 19783, Note_on_c, 2, 79, 62
2, 19812, Control_c, 2, 64, 127
2, 19846, Note_on_c, 2, 67, 0
2, 19867, Note_on_c, 2, 63, 0
2, 20038, Note_on_c, 2, 53, 28
2, 20038, Note_on_c, 2, 57, 40
2, 20038, Note_on_c, 2, 63, 23
2, 20038, Note_on_c, 2, 77, 45
2, 20050, Note_on_c, 2, 79, 0
2, 20053, Control_c, 2, 64, 0
2, 20179, Note_on_c, 2, 60, 40
2, 20183, Control_c, 2, 64, 127
2, 20199, Note_on_c, 2, 77, 0
2, 20205, Note_on_c, 2, 57, 0
2, 20209, Note_on_c, 2, 53, 0
2, 20220, Note_on_c, 2, 60, 0
2, 20234, Note_on_c, 2, 63, 0
2, 20283, Note_on_c, 2, 69, 45
2, 20328, Note_on_c, 2, 58, 45
2, 20328, Note_on_c, 2, 70, 49
2, 20337, Note_on_c, 2, 69, 0
2, 20354, Control_c, 2, 64, 0
2, 20400, Note_on_c, 2, 62, 42
2, 20429, Control_c, 2, 64, 127
2, 20462, Note_on_c, 2, 65, 33
2, 20466, Note_on_c, 2, 62, 0
2, 20520, Note_on_c, 2, 62, 37
2, 20532, Note_on_c, 2, 58, 0
2, 20558, Note_on_c, 2, 65, 0
2, 20579, Note_on_c, 2, 62, 0
2, 20583, Note_on_c, 2, 58, 40
2, 20591, Note_on_c, 2, 70, 0
2, 20641, Note_on_c, 2, 62, 41
2, 20700, Note_on_c, 2, 65, 37
2, 20700, Note_on_c, 2, 80, 79
2, 20704, Note_on_c, 2, 62, 0
2, 20758, Note_on_c, 2, 62, 41
2, 20762, Note_on_c, 2, 58, 0
2, 20766, Note_on_c, 2, 65, 0
2, 20779, Note_on_c, 2, 62, 0
2, 20817, Note_on_c, 2, 63, 53
2, 20817, Note_on_c, 2, 79, 54
2, 20825, Note_on_c, 2, 80, 0
2, 20874, Control_c, 2, 64, 0
2, 20879, Note_on_c, 2, 60, 44
2, 20937, Note_on_c, 2, 81, 53
2, 20938, Note_on_c, 2, 65, 42
2, 20943, Note_on_c, 2, 63, 0
2, 20946, Note_on_c, 2, 79, 0
2, 20962, Control_c, 2, 64, 127
2, 20996, Note_on_c, 2, 63, 52
2, 20999, Note_on_c, 2, 60, 0
2, 21050, Note_on_c, 2, 62, 46
2, 21050, Note_on_c, 2, 84, 54
2, 21054, Note_on_c, 2, 65, 0
2, 21054, Note_on_c, 2, 81, 0
2, 21062, Note_on_c, 2, 63, 0
2, 21096, Control_c, 2, 64, 0
2, 21104, Note_on_c, 2, 62, 0
2, 21112, Note_on_c, 2, 65, 45
2, 21137, Control_c, 2, 64, 127
2, 21171, Note_on_c, 2, 62, 46
2, 21171, Note_on_c, 2, 82, 51
2, 21183, Note_on_c, 2, 84, 0
2, 21187, Note_on_c, 2, 65, 0
2, 21233, Note_on_c, 2, 60, 55
2, 21241, Note_on_c, 2, 62, 0
2, 21258, Note_on_c, 2, 60, 0
2, 21292, Note_on_c, 2, 58, 52
2, 21308, Note_on_c, 2, 58, 0
2, 21312, Note_on_c, 2, 82, 0
2, 21354, Note_on_c, 2, 56, 59
2, 21366, Note_on_c, 2, 56, 0
2, 21412, Note_on_c, 2, 53, 68
2, 21412, Note_on_c, 2, 68, 63
2, 21446, Note_on_c, 2, 53, 0
2, 21479, Note_on_c, 2, 50, 65
2, 21512, Control_c, 2, 64, 0
2, 21524, Note_on_c, 2, 50, 0
2, 21533, Note_on_c, 2, 51, 55
2, 21533, Note_on_c, 2, 67, 54
2, 21542, Note_on_c, 2, 68, 0
2, 21558, Control_c, 2, 64, 127
2, 21600, Note_on_c, 2, 51, 0
2, 21604, Note_on_c, 2, 48, 45
2, 21608, Note_on_c, 2, 67, 0
2, 21658, Note_on_c, 2, 48, 0
2, 21662, Note_on_c, 2, 69, 55
2, 21662, Note_on_c, 2, 63, 46
2, 21662, Note_on_c, 2, 53, 40
2, 21679, Control_c, 2, 64, 0
2, 21708, Control_c, 2, 64, 127
2, 21720, Note_on_c, 2, 41, 58
2, 21733, Note_on_c, 2, 53, 0
2, 21766, Note_on_c, 2, 63, 0
2, 21795, Note_on_c, 2, 69, 0
2, 21796, Note_on_c, 2, 72, 66
2, 21796, Note_on_c, 2, 63, 59
2, 21796, Note_on_c, 2, 46, 60
2, 21800, Note_on_c, 2, 41, 0
2, 21808, Control_c, 2, 64, 0
2, 21867, Control_c, 2, 64, 127
2, 21958, Note_on_c, 2, 63, 0
2, 22063, Control_c, 2, 64, 0
2, 22087, Note_on_c, 2, 62, 47
2, 22088, Note_on_c, 2, 70, 54
2, 22103, Note_on_c, 2, 72, 0
2, 22104, Control_c, 2, 64, 127
2, 22129, Note_on_c, 2, 70, 0
2, 22137, Note_on_c, 2, 46, 0
2, 22142, Note_on_c, 2, 62, 0
2, 22221, Note_on_c, 2, 62, 55
2, 22221, Note_on_c, 2, 56, 65
2, 22222, Note_on_c, 2, 65, 59
2, 22225, Control_c, 2, 64, 0
2, 22262, Control_c, 2, 64, 127
2, 22316, Note_on_c, 2, 62, 0
2, 22337, Note_on_c, 2, 65, 0
2, 22346, Note_on_c, 2, 56, 0
2, 22350, Note_on_c, 2, 55, 54
2, 22350, Note_on_c, 2, 63, 54
2, 22350, Note_on_c, 2, 67, 57
2, 22367, Control_c, 2, 64, 0
2, 22421, Control_c, 2, 64, 127
2, 22434, Note_on_c, 2, 63, 0
2, 22446, Note_on_c, 2, 67, 0
2, 22500, Note_on_c, 2, 68, 49
2, 22500, Note_on_c, 2, 65, 47
2, 22500, Note_on_c, 2, 53, 40
2, 22508, Note_on_c, 2, 55, 0
2, 22525, Control_c, 2, 64, 0
2, 22558, Control_c, 2, 64, 127
2, 22608, Note_on_c, 2, 53, 0
2, 22633, Note_on_c, 2, 65, 0
2, 22638, Note_on_c, 2, 68, 0
2, 22763, Note_on_c, 2, 67, 43
2, 22763, Note_on_c, 2, 70, 45
2, 22763, Note_on_c, 2, 51, 29
2, 22775, Control_c, 2, 64, 0
2, 22879, Control_c, 2, 64, 127
2, 22966, Note_on_c, 2, 67, 0
2, 22983, Note_on_c, 2, 70, 0
2, 23046, Note_on_c, 2, 68, 41
2, 23047, Note_on_c, 2, 65, 40
2, 23059, Control_c, 2, 64, 0
2, 23092, Control_c, 2, 64, 127
2, 23121, Note_on_c, 2, 65, 0
2, 23134, Note_on_c, 2, 68, 0
2, 23180, Note_on_c, 2, 67, 54
2, 23180, Note_on_c, 2, 63, 39
2, 23196, Control_c, 2, 64, 0
2, 23229, Control_c, 2, 64, 127
2, 23267, Note_on_c, 2, 67, 0
2, 23279, Note_on_c, 2, 63, 0
2, 23317, Note_on_c, 2, 68, 45
2, 23317, Note_on_c, 2, 72, 45
2, 23330, Control_c, 2, 64, 0
2, 23450, Control_c, 2, 64, 127
2, 23466, Note_on_c, 2, 70, 39
2, 23466, Note_on_c, 2, 67, 41
2, 23471, Note_on_c, 2, 72, 0
2, 23475, Note_on_c, 2, 68, 0
2, 23488, Note_on_c, 2, 51, 0
2, 23562, Note_on_c, 2, 67, 0
2, 23570, Note_on_c, 2, 70, 0
2, 23629, Note_on_c, 2, 51, 38
2, 23629, Note_on_c, 2, 70, 40
2, 23630, Note_on_c, 2, 67, 40
2, 23658, Control_c, 2, 64, 0
2, 23717, Control_c, 2, 64, 127
2, 23783, Note_on_c, 2, 51, 0
2, 23808, Note_on_c, 2, 67, 0
2, 23813, Note_on_c, 2, 70, 0
2, 23896, Note_on_c, 2, 53, 40
2, 23896, Note_on_c, 2, 65, 42
2, 23896, Note_on_c, 2, 68, 44
2, 23912, Control_c, 2, 64, 0
2, 23959, Control_c, 2, 64, 127
2, 24009, Note_on_c, 2, 65, 0
2, 24017, Note_on_c, 2, 53, 0
2, 24025, Note_on_c, 2, 68, 0
2, 24150, Note_on_c, 2, 63, 35
2, 24150, Note_on_c, 2, 67, 52
2, 24154, Note_on_c, 2, 55, 37
2, 24163, Control_c, 2, 64, 0
2, 24196, Control_c, 2, 64, 127
2, 24234, Note_on_c, 2, 55, 0
2, 24250, Note_on_c, 2, 63, 0
2, 24263, Note_on_c, 2, 67, 0
2, 24422, Note_on_c, 2, 58, 28
2, 24422, Note_on_c, 2, 64, 40
2, 24422, Note_on_c, 2, 61, 23
2, 24423, Control_c, 2, 64, 0
2, 24463, Control_c, 2, 64, 127
2, 24522, Note_on_c, 2, 58, 0
2, 24526, Note_on_c, 2, 61, 0
2, 24550, Note_on_c, 2, 64, 0
2, 24717, Note_on_c, 2, 56, 32
2, 24717, Note_on_c, 2, 60, 21
2, 24717, Note_on_c, 2, 65, 37
2, 24717, Control_c, 2, 64, 0
2, 24842, Control_c, 2, 64, 127
2, 24846, Note_on_c, 2, 72, 54
2, 24858, Note_on_c, 2, 65, 0
2, 24913, Note_on_c, 2, 72, 0
2, 24976, Note_on_c, 2, 70, 40
2, 25004, Note_on_c, 2, 60, 0
2, 25034, Note_on_c, 2, 68, 41
2, 25037, Note_on_c, 2, 56, 0
2, 25042, Note_on_c, 2, 70, 0
2, 25092, Note_on_c, 2, 68, 0
2, 25097, Note_on_c, 2, 67, 39
2, 25163, Note_on_c, 2, 67, 0
2, 25163, Note_on_c, 2, 65, 40
2, 25180, Note_on_c, 2, 65, 0
2, 25222, Note_on_c, 2, 55, 55
2, 25222, Note_on_c, 2, 63, 48
2, 25222, Note_on_c, 2, 45, 56
2, 25255, Control_c, 2, 64, 0
2, 25288, Note_on_c, 2, 46, 50
2, 25297, Note_on_c, 2, 45, 0
2, 25350, Note_on_c, 2, 46, 0
2, 25355, Note_on_c, 2, 48, 36
2, 25384, Control_c, 2, 64, 127
2, 25418, Note_on_c, 2, 46, 42
2, 25426, Note_on_c, 2, 48, 0
2, 25434, Note_on_c, 2, 63, 0
2, 25438, Note_on_c, 2, 55, 0
2, 25443, Note_on_c, 2, 46, 0
2, 25480, Control_c, 2, 64, 0
2, 25485, Note_on_c, 2, 62, 56
2, 25485, Note_on_c, 2, 53, 45
2, 25485, Note_on_c, 2, 46, 49
2, 25505, Control_c, 2, 64, 127
2, 25510, Note_on_c, 2, 53, 0
2, 25526, Note_on_c, 2, 62, 0
2, 25555, Note_on_c, 2, 58, 54
2, 25580, Note_on_c, 2, 62, 59
2, 25584, Note_on_c, 2, 58, 0
2, 25614, Note_on_c, 2, 60, 54
2, 25618, Note_on_c, 2, 62, 0
2, 25639, Note_on_c, 2, 60, 0
2, 25642, Note_on_c, 2, 63, 47
2, 25668, Note_on_c, 2, 62, 55
2, 25671, Note_on_c, 2, 63, 0
2, 25692, Note_on_c, 2, 65, 53
2, 25709, Note_on_c, 2, 62, 0
2, 25726, Note_on_c, 2, 63, 68
2, 25734, Note_on_c, 2, 65, 0
2, 25755, Note_on_c, 2, 67, 53
2, 25772, Note_on_c, 2, 63, 0
2, 25780, Note_on_c, 2, 65, 54
2, 25788, Note_on_c, 2, 67, 0
2, 25792, Note_on_c, 2, 65, 0
2, 25817, Note_on_c, 2, 68, 53
2, 25850, Note_on_c, 2, 68, 0
2, 25851, Note_on_c, 2, 67, 53
2, 25876, Note_on_c, 2, 70, 45
2, 25892, Note_on_c, 2, 67, 0
2, 25909, Note_on_c, 2, 68, 70
2, 25918, Note_on_c, 2, 70, 0
2, 25947, Note_on_c, 2, 68, 0
2, 25976, Note_on_c, 2, 39, 40
2, 25976, Note_on_c, 2, 51, 36
2, 25976, Note_on_c, 2, 72, 57
2, 26000, Note_on_c, 2, 46, 0
2, 26022, Note_on_c, 2, 72, 0
2, 26092, Note_on_c, 2, 70, 50
2, 26092, Note_on_c, 2, 67, 46
2, 26110, Control_c, 2, 64, 0
2, 26149, Note_on_c, 2, 70, 0
2, 26155, Note_on_c, 2, 72, 45
2, 26176, Note_on_c, 2, 67, 0
2, 26184, Note_on_c, 2, 70, 57
2, 26188, Control_c, 2, 64, 127
2, 26201, Note_on_c, 2, 72, 0
2, 26210, Note_on_c, 2, 39, 0
2, 26218, Note_on_c, 2, 68, 68
2, 26231, Note_on_c, 2, 51, 0
2, 26242, Note_on_c, 2, 70, 0
2, 26276, Note_on_c, 2, 67, 53
2, 26280, Note_on_c, 2, 68, 0
2, 26334, Note_on_c, 2, 67, 0
2, 26334, Note_on_c, 2, 65, 52
2, 26393, Note_on_c, 2, 65, 0
2, 26401, Note_on_c, 2, 63, 59
2, 26418, Note_on_c, 2, 63, 0
2, 26488, Note_on_c, 2, 51, 45
2, 26488, Note_on_c, 2, 60, 44
2, 26488, Note_on_c, 2, 79, 60
2, 26510, Control_c, 2, 64, 0
2, 26568, Note_on_c, 2, 74, 63
2, 26593, Control_c, 2, 64, 127
2, 26597, Note_on_c, 2, 79, 0
2, 26626, Note_on_c, 2, 75, 54
2, 26630, Note_on_c, 2, 74, 0
2, 26671, Note_on_c, 2, 51, 0
2, 26676, Note_on_c, 2, 75, 0
2, 26680, Note_on_c, 2, 72, 55
2, 26687, Note_on_c, 2, 60, 0
2, 26722, Note_on_c, 2, 72, 0
2, 26744, Note_on_c, 2, 53, 45
2, 26744, Note_on_c, 2, 70, 63
2, 26744, Note_on_c, 2, 60, 39
2, 26768, Control_c, 2, 64, 0
2, 26805, Control_c, 2, 64, 127
2, 26880, Note_on_c, 2, 70, 0
2, 26889, Note_on_c, 2, 60, 0
2, 26915, Note_on_c, 2, 53, 0
2, 27001, Note_on_c, 2, 58, 36
2, 27001, Note_on_c, 2, 62, 37
2, 27014, Control_c, 2, 64, 0
2, 27031, Note_on_c, 2, 70, 59
2, 27051, Control_c, 2, 64, 127
2, 27068, Note_on_c, 2, 70, 0
2, 27068, Note_on_c, 2, 68, 60
2, 27080, Note_on_c, 2, 68, 0
2, 27089, Note_on_c, 2, 70, 47
2, 27106, Note_on_c, 2, 70, 0
2, 27106, Note_on_c, 2, 68, 53
2, 27118, Note_on_c, 2, 68, 0
2, 27122, Note_on_c, 2, 70, 47
2, 27134, Note_on_c, 2, 70, 0
2, 27134, Note_on_c, 2, 68, 41
2, 27143, Note_on_c, 2, 68, 0
2, 27151, Note_on_c, 2, 70, 40
2, 27156, Note_on_c, 2, 70, 0
2, 27156, Note_on_c, 2, 68, 49
2, 27172, Note_on_c, 2, 68, 0
2, 27172, Note_on_c, 2, 70, 50
2, 27188, Note_on_c, 2, 70, 0
2, 27189, Note_on_c, 2, 68, 40
2, 27206, Note_on_c, 2, 68, 0
2, 27209, Note_on_c, 2, 58, 0
2, 27210, Note_on_c, 2, 70, 45
2, 27222, Note_on_c, 2, 68, 38
2, 27230, Note_on_c, 2, 62, 0
2, 27235, Note_on_c, 2, 70, 0
2, 27238, Note_on_c, 2, 68, 0
2, 27238, Note_on_c, 2, 70, 42
2, 27259, Note_on_c, 2, 68, 42
2, 27274, Note_on_c, 2, 68, 0
2, 27276, Note_on_c, 2, 70, 0
2, 27284, Note_on_c, 2, 60, 35
2, 27284, Note_on_c, 2, 63, 37
2, 27284, Note_on_c, 2, 67, 45
2, 27305, Control_c, 2, 64, 0
2, 27352, Note_on_c, 2, 75, 42
2, 27360, Control_c, 2, 64, 127
2, 27388, Note_on_c, 2, 75, 0
2, 27396, Note_on_c, 2, 63, 0
2, 27422, Note_on_c, 2, 74, 45
2, 27425, Note_on_c, 2, 60, 0
2, 27426, Note_on_c, 2, 67, 0
2, 27485, Note_on_c, 2, 74, 0
2, 27493, Note_on_c, 2, 73, 39
2, 27576, Note_on_c, 2, 71, 47
2, 27576, Note_on_c, 2, 56, 38
2, 27576, Note_on_c, 2, 44, 38
2, 27580, Note_on_c, 2, 73, 0
2, 27589, Control_c, 2, 64, 0
2, 27656, Note_on_c, 2, 74, 55
2, 27668, Note_on_c, 2, 71, 0
2, 27689, Control_c, 2, 64, 127
2, 27693, Note_on_c, 2, 72, 48
2, 27706, Note_on_c, 2, 74, 0
2, 27727, Note_on_c, 2, 70, 70
2, 27739, Note_on_c, 2, 72, 0
2, 27756, Note_on_c, 2, 68, 65
2, 27768, Note_on_c, 2, 56, 0
2, 27772, Note_on_c, 2, 44, 0
2, 27776, Note_on_c, 2, 70, 0
2, 27789, Note_on_c, 2, 67, 53
2, 27793, Note_on_c, 2, 68, 0
2, 27822, Note_on_c, 2, 65, 52
2, 27835, Note_on_c, 2, 67, 0
2, 27860, Note_on_c, 2, 63, 68
2, 27864, Note_on_c, 2, 46, 36
2, 27864, Note_on_c, 2, 55, 37
2, 27868, Note_on_c, 2, 65, 0
2, 27872, Control_c, 2, 64, 0
2, 27930, Control_c, 2, 64, 127
2, 27989, Note_on_c, 2, 55, 0
2, 28006, Note_on_c, 2, 46, 0
2, 28127, Control_c, 2, 64, 0
2, 28139, Note_on_c, 2, 46, 32
2, 28139, Note_on_c, 2, 56, 32
2, 28218, Control_c, 2, 64, 127
2, 28309, Note_on_c, 2, 46, 0
2, 28310, Note_on_c, 2, 63, 0
2, 28310, Note_on_c, 2, 67, 49
2, 28310, Note_on_c, 2, 62, 52
2, 28360, Note_on_c, 2, 56, 0
2, 28368, Note_on_c, 2, 67, 0
2, 28385, Note_on_c, 2, 65, 47
2, 28389, Note_on_c, 2, 62, 0
2, 28465, Note_on_c, 2, 63, 48
2, 28465, Note_on_c, 2, 51, 40
2, 28472, Note_on_c, 2, 65, 0
2, 28497, Control_c, 2, 64, 0
2, 28543, Note_on_c, 2, 55, 45
2, 28564, Control_c, 2, 64, 127
2, 28572, Note_on_c, 2, 51, 0
2, 28610, Note_on_c, 2, 55, 0
2, 28610, Note_on_c, 2, 58, 39
2, 28610, Note_on_c, 2, 51, 22
2, 28647, Note_on_c, 2, 51, 0
2, 28668, Note_on_c, 2, 55, 46
2, 28689, Note_on_c, 2, 58, 0
2, 28722, Note_on_c, 2, 55, 0
2, 28731, Note_on_c, 2, 51, 32
2, 28745, Note_on_c, 2, 63, 0
2, 28790, Note_on_c, 2, 55, 33
2, 28818, Note_on_c, 2, 51, 0
2, 28847, Note_on_c, 2, 51, 11
2, 28847, Note_on_c, 2, 58, 35
2, 28847, Note_on_c, 2, 67, 42
2, 28847, Note_on_c, 2, 70, 40
2, 28851, Note_on_c, 2, 55, 0
2, 28860, Control_c, 2, 64, 0
2, 28885, Control_c, 2, 64, 127
2, 28909, Note_on_c, 2, 51, 0
2, 28910, Note_on_c, 2, 55, 40
2, 28930, Note_on_c, 2, 67, 0
2, 28930, Note_on_c, 2, 58, 0
2, 28940, Note_on_c, 2, 70, 0
2, 28956, Note_on_c, 2, 55, 0
2, 28968, Note_on_c, 2, 51, 35
2, 28969, Note_on_c, 2, 70, 39
2, 28972, Note_on_c, 2, 67, 33
2, 29026, Note_on_c, 2, 55, 29
2, 29031, Note_on_c, 2, 67, 0
2, 29035, Note_on_c, 2, 70, 0
2, 29056, Note_on_c, 2, 51, 0
2, 29085, Note_on_c, 2, 55, 0
2, 29086, Note_on_c, 2, 51, 11
2, 29086, Note_on_c, 2, 58, 35
2, 29086, Note_on_c, 2, 67, 35
2, 29086, Note_on_c, 2, 70, 40
2, 29120, Note_on_c, 2, 67, 0
2, 29122, Note_on_c, 2, 70, 0
2, 29140, Note_on_c, 2, 51, 0
2, 29147, Note_on_c, 2, 55, 46
2, 29165, Note_on_c, 2, 58, 0
2, 29202, Note_on_c, 2, 55, 0
2, 29206, Note_on_c, 2, 75, 47
2, 29206, Note_on_c, 2, 68, 40
2, 29210, Note_on_c, 2, 51, 45
2, 29227, Control_c, 2, 64, 0
2, 29264, Note_on_c, 2, 53, 36
2, 29268, Control_c, 2, 64, 127
2, 29323, Note_on_c, 2, 74, 56
2, 29327, Note_on_c, 2, 53, 0
2, 29328, Note_on_c, 2, 56, 38
2, 29331, Note_on_c, 2, 75, 0
2, 29335, Note_on_c, 2, 68, 0
2, 29381, Note_on_c, 2, 51, 0
2, 29385, Note_on_c, 2, 53, 38
2, 29410, Note_on_c, 2, 56, 0
2, 29435, Note_on_c, 2, 53, 0
2, 29443, Note_on_c, 2, 51, 36
2, 29498, Note_on_c, 2, 53, 39
2, 29552, Note_on_c, 2, 53, 0
2, 29552, Note_on_c, 2, 74, 0
2, 29556, Note_on_c, 2, 82, 43
2, 29556, Note_on_c, 2, 56, 35
2, 29614, Note_on_c, 2, 51, 0
2, 29614, Note_on_c, 2, 53, 46
2, 29614, Note_on_c, 2, 80, 33
2, 29631, Note_on_c, 2, 56, 0
2, 29631, Note_on_c, 2, 82, 0
2, 29635, Note_on_c, 2, 80, 0
2, 29656, Note_on_c, 2, 53, 0
2, 29669, Note_on_c, 2, 51, 32
2, 29669, Note_on_c, 2, 79, 39
2, 29710, Control_c, 2, 64, 0
2, 29727, Note_on_c, 2, 53, 38
2, 29731, Note_on_c, 2, 77, 42
2, 29740, Note_on_c, 2, 79, 0
2, 29764, Control_c, 2, 64, 127
2, 29789, Note_on_c, 2, 53, 0
2, 29794, Note_on_c, 2, 56, 30
2, 29794, Note_on_c, 2, 75, 34
2, 29802, Note_on_c, 2, 77, 0
2, 29844, Note_on_c, 2, 51, 0
2, 29852, Note_on_c, 2, 53, 29
2, 29853, Note_on_c, 2, 74, 42
2, 29860, Note_on_c, 2, 75, 0
2, 29873, Note_on_c, 2, 74, 0
2, 29873, Note_on_c, 2, 53, 0
2, 29906, Note_on_c, 2, 51, 45
2, 29906, Note_on_c, 2, 77, 60
2, 29911, Note_on_c, 2, 56, 0
2, 29919, Note_on_c, 2, 77, 0
2, 29919, Note_on_c, 2, 75, 60
2, 29927, Note_on_c, 2, 75, 0
2, 29931, Control_c, 2, 64, 0
2, 29932, Note_on_c, 2, 77, 50
2, 29944, Note_on_c, 2, 75, 53
2, 29956, Note_on_c, 2, 77, 0
2, 29961, Control_c, 2, 64, 127
2, 29964, Note_on_c, 2, 55, 40
2, 29990, Note_on_c, 2, 51, 0
2, 30015, Note_on_c, 2, 55, 0
2, 30023, Note_on_c, 2, 58, 36
2, 30027, Note_on_c, 2, 51, 13
2, 30035, Note_on_c, 2, 75, 0
2, 30077, Note_on_c, 2, 51, 0
2, 30081, Note_on_c, 2, 55, 40
2, 30081, Note_on_c, 2, 74, 47
2, 30106, Note_on_c, 2, 58, 0
2, 30106, Note_on_c, 2, 72, 46
2, 30123, Note_on_c, 2, 74, 0
2, 30127, Note_on_c, 2, 55, 0
2, 30135, Note_on_c, 2, 70, 72
2, 30140, Note_on_c, 2, 51, 32
2, 30144, Note_on_c, 2, 72, 0
2, 30165, Control_c, 2, 64, 0
2, 30194, Note_on_c, 2, 55, 42
2, 30198, Control_c, 2, 64, 127
2, 30218, Note_on_c, 2, 70, 0
2, 30252, Note_on_c, 2, 55, 0
2, 30253, Note_on_c, 2, 58, 36
2, 30253, Note_on_c, 2, 67, 45
2, 30253, Note_on_c, 2, 70, 52
2, 30306, Note_on_c, 2, 51, 0
2, 30306, Note_on_c, 2, 55, 42
2, 30311, Note_on_c, 2, 67, 0
2, 30323, Note_on_c, 2, 70, 0
2, 30336, Note_on_c, 2, 58, 0
2, 30356, Note_on_c, 2, 55, 0
2, 30365, Note_on_c, 2, 51, 31
2, 30365, Note_on_c, 2, 67, 45
2, 30365, Note_on_c, 2, 70, 44
2, 30419, Note_on_c, 2, 55, 41
2, 30423, Note_on_c, 2, 70, 0
2, 30424, Note_on_c, 2, 67, 0
2, 30427, Note_on_c, 2, 51, 0
2, 30477, Note_on_c, 2, 55, 0
2, 30477, Note_on_c, 2, 58, 35
2, 30478, Note_on_c, 2, 67, 35
2, 30478, Note_on_c, 2, 70, 39
2, 30481, Note_on_c, 2, 51, 18
2, 30506, Note_on_c, 2, 67, 0
2, 30514, Note_on_c, 2, 51, 0
2, 30514, Note_on_c, 2, 70, 0
2, 30536, Note_on_c, 2, 55, 28
2, 30581, Note_on_c, 2, 58, 0
2, 30590, Note_on_c, 2, 55, 0
2, 30598, Note_on_c, 2, 51, 44
2, 30598, Note_on_c, 2, 68, 41
2, 30598, Note_on_c, 2, 75, 43
2, 30619, Control_c, 2, 64, 0
2, 30660, Note_on_c, 2, 53, 42
2, 30698, Control_c, 2, 64, 127
2, 30719, Note_on_c, 2, 56, 35
2, 30720, Note_on_c, 2, 74, 53
2, 30723, Note_on_c, 2, 53, 0
2, 30732, Note_on_c, 2, 75, 0
2, 30748, Note_on_c, 2, 68, 0
2, 30778, Note_on_c, 2, 53, 36
2, 30790, Note_on_c, 2, 51, 0
2, 30810, Note_on_c, 2, 56, 0
2, 30836, Note_on_c, 2, 53, 0
2, 30836, Note_on_c, 2, 51, 32
2, 30894, Note_on_c, 2, 53, 41
2, 30948, Note_on_c, 2, 53, 0
2, 30952, Note_on_c, 2, 56, 32
2, 30952, Note_on_c, 2, 82, 44
2, 31006, Note_on_c, 2, 51, 0
2, 31010, Note_on_c, 2, 53, 37
2, 31010, Note_on_c, 2, 80, 36
2, 31023, Note_on_c, 2, 74, 0
2, 31036, Note_on_c, 2, 82, 0
2, 31036, Note_on_c, 2, 80, 0
2, 31068, Note_on_c, 2, 53, 0
2, 31069, Note_on_c, 2, 56, 0
2, 31069, Note_on_c, 2, 51, 42
2, 31069, Note_on_c, 2, 79, 40
2, 31123, Note_on_c, 2, 79, 0
2, 31123, Note_on_c, 2, 53, 36
2, 31123, Note_on_c, 2, 77, 36
2, 31190, Note_on_c, 2, 53, 0
2, 31190, Note_on_c, 2, 56, 37
2, 31190, Note_on_c, 2, 75, 35
2, 31198, Note_on_c, 2, 77, 0
2, 31248, Note_on_c, 2, 74, 40
2, 31248, Note_on_c, 2, 53, 40
2, 31252, Note_on_c, 2, 51, 0
2, 31252, Note_on_c, 2, 75, 0
2, 31260, Note_on_c, 2, 56, 0
2, 31273, Note_on_c, 2, 53, 0
2, 31286, Note_on_c, 2, 74, 0
2, 31307, Note_on_c, 2, 51, 48
2, 31307, Note_on_c, 2, 55, 45
2, 31308, Note_on_c, 2, 75, 45
2, 31332, Note_on_c, 2, 75, 0
2, 31365, Control_c, 2, 64, 0
2, 31374, Note_on_c, 2, 77, 47
2, 31390, Note_on_c, 2, 75, 55
2, 31398, Note_on_c, 2, 77, 0
2, 31406, Note_on_c, 2, 75, 0
2, 31406, Note_on_c, 2, 74, 54
2, 31432, Note_on_c, 2, 75, 48
2, 31457, Note_on_c, 2, 74, 0
2, 31465, Note_on_c, 2, 77, 55
2, 31473, Note_on_c, 2, 75, 0
2, 31486, Note_on_c, 2, 79, 39
2, 31511, Note_on_c, 2, 75, 56
2, 31519, Note_on_c, 2, 77, 0
2, 31520, Note_on_c, 2, 79, 0
2, 31544, Note_on_c, 2, 70, 65
2, 31544, Control_c, 2, 64, 127
2, 31548, Note_on_c, 2, 75, 0
2, 31557, Note_on_c, 2, 51, 0
2, 31560, Note_on_c, 2, 55, 0
2, 31565, Note_on_c, 2, 70, 0
2, 31658, Note_on_c, 2, 70, 55
2, 31658, Note_on_c, 2, 67, 57
2, 31658, Note_on_c, 2, 58, 44
2, 31658, Note_on_c, 2, 55, 48
2, 31661, Control_c, 2, 64, 0
2, 31690, Control_c, 2, 64, 127
2, 31744, Note_on_c, 2, 67, 0
2, 31748, Note_on_c, 2, 55, 0
2, 31748, Note_on_c, 2, 58, 0
2, 31749, Note_on_c, 2, 70, 0
2, 31774, Note_on_c, 2, 56, 49
2, 31774, Note_on_c, 2, 65, 45
2, 31774, Note_on_c, 2, 60, 44
2, 31774, Note_on_c, 2, 68, 53
2, 31782, Control_c, 2, 64, 0
2, 31806, Control_c, 2, 64, 127
2, 31840, Note_on_c, 2, 56, 0
2, 31845, Note_on_c, 2, 65, 0
2, 31857, Note_on_c, 2, 60, 0
2, 31857, Note_on_c, 2, 68, 0
2, 31891, Note_on_c, 2, 57, 45
2, 31891, Note_on_c, 2, 60, 42
2, 31891, Note_on_c, 2, 63, 56
2, 31891, Note_on_c, 2, 67, 55
2, 31894, Control_c, 2, 64, 0
2, 31919, Control_c, 2, 64, 127
2, 31941, Note_on_c, 2, 57, 0
2, 31953, Note_on_c, 2, 67, 0
2, 31974, Note_on_c, 2, 63, 0
2, 31974, Note_on_c, 2, 60, 0
2, 32011, Note_on_c, 2, 70, 54
2, 32011, Note_on_c, 2, 63, 47
2, 32011, Note_on_c, 2, 58, 40
2, 32015, Control_c, 2, 64, 0
2, 32094, Control_c, 2, 64, 127
2, 32157, Note_on_c, 2, 63, 0
2, 32160, Note_on_c, 2, 70, 0
2, 32177, Note_on_c, 2, 67, 46
2, 32236, Note_on_c, 2, 67, 0
2, 32236, Note_on_c, 2, 62, 46
2, 32236, Note_on_c, 2, 65, 54
2, 32269, Control_c, 2, 64, 0
2, 32319, Control_c, 2, 64, 127
2, 32324, Note_on_c, 2, 58, 0
2, 32353, Note_on_c, 2, 58, 66
2, 32457, Note_on_c, 2, 53, 65
2, 32470, Note_on_c, 2, 58, 0
2, 32478, Note_on_c, 2, 62, 0
2, 32557, Note_on_c, 2, 53, 0
2, 32561, Note_on_c, 2, 50, 65
2, 32569, Note_on_c, 2, 65, 0
2, 32645, Note_on_c, 2, 65, 53
2, 32665, Note_on_c, 2, 50, 0
2, 32674, Note_on_c, 2, 46, 49
2, 32674, Note_on_c, 2, 77, 54
2, 32690, Control_c, 2, 64, 0
2, 32782, Note_on_c, 2, 50, 48
2, 32794, Control_c, 2, 64, 127
2, 32886, Note_on_c, 2, 53, 43
2, 32895, Note_on_c, 2, 50, 0
2, 32911, Note_on_c, 2, 46, 0
2, 32916, Note_on_c, 2, 65, 0
2, 32995, Note_on_c, 2, 53, 0
2, 32998, Note_on_c, 2, 58, 38
2, 32999, Note_on_c, 2, 75, 42
2, 33007, Note_on_c, 2, 77, 0
2, 33011, Note_on_c, 2, 58, 0
2, 33020, Note_on_c, 2, 75, 0
2, 33028, Note_on_c, 2, 74, 40
2, 33049, Note_on_c, 2, 72, 52
2, 33057, Note_on_c, 2, 74, 0
2, 33074, Note_on_c, 2, 70, 56
2, 33082, Note_on_c, 2, 72, 0
2, 33103, Note_on_c, 2, 69, 53
2, 33103, Note_on_c, 2, 65, 40
2, 33103, Note_on_c, 2, 63, 42
2, 33107, Note_on_c, 2, 70, 0
2, 33107, Control_c, 2, 64, 0
2, 33136, Control_c, 2, 64, 127
2, 33165, Note_on_c, 2, 63, 0
2, 33173, Note_on_c, 2, 65, 0
2, 33186, Note_on_c, 2, 69, 0
2, 33212, Note_on_c, 2, 65, 41
2, 33212, Note_on_c, 2, 62, 45
2, 33212, Note_on_c, 2, 70, 49
2, 33232, Note_on_c, 2, 65, 0
2, 33236, Note_on_c, 2, 62, 0
2, 33253, Note_on_c, 2, 70, 0
2, 33324, Note_on_c, 2, 60, 30
2, 33324, Note_on_c, 2, 63, 40
2, 33324, Note_on_c, 2, 69, 40
2, 33324, Note_on_c, 2, 72, 54
2, 33324, Control_c, 2, 64, 0
2, 33349, Note_on_c, 2, 60, 0
2, 33349, Control_c, 2, 64, 127
2, 33357, Note_on_c, 2, 63, 0
2, 33357, Note_on_c, 2, 72, 0
2, 33358, Note_on_c, 2, 69, 0
2, 33431, Note_on_c, 2, 58, 39
2, 33431, Note_on_c, 2, 62, 41
2, 33431, Note_on_c, 2, 75, 42
2, 33431, Note_on_c, 2, 70, 48
2, 33434, Control_c, 2, 64, 0
2, 33456, Note_on_c, 2, 70, 0
2, 33457, Control_c, 2, 64, 127
2, 33461, Note_on_c, 2, 58, 0
2, 33461, Note_on_c, 2, 62, 0
2, 33462, Note_on_c, 2, 74, 54
2, 33465, Note_on_c, 2, 75, 0
2, 33490, Note_on_c, 2, 74, 0
2, 33491, Note_on_c, 2, 72, 55
2, 33507, Note_on_c, 2, 74, 53
2, 33515, Note_on_c, 2, 72, 0
2, 33545, Note_on_c, 2, 74, 0
2, 33545, Note_on_c, 2, 57, 40
2, 33545, Note_on_c, 2, 60, 40
2, 33545, Note_on_c, 2, 72, 51
2, 33545, Note_on_c, 2, 75, 43
2, 33561, Control_c, 2, 64, 0
2, 33616, Control_c, 2, 64, 127
2, 33653, Note_on_c, 2, 72, 0
2, 33662, Note_on_c, 2, 65, 48
2, 33670, Note_on_c, 2, 75, 0
2, 33711, Note_on_c, 2, 65, 0
2, 33770, Note_on_c, 2, 65, 49
2, 33794, Note_on_c, 2, 60, 0
2, 33803, Note_on_c, 2, 65, 0
2, 33819, Note_on_c, 2, 57, 0
2, 33882, Note_on_c, 2, 65, 48
2, 33916, Note_on_c, 2, 65, 0
2, 33995, Note_on_c, 2, 75, 72
2, 34103, Note_on_c, 2, 53, 64
2, 34157, Control_c, 2, 64, 0
2, 34207, Note_on_c, 2, 57, 61
2, 34320, Note_on_c, 2, 75, 0
2, 34320, Note_on_c, 2, 60, 31
2, 34320, Note_on_c, 2, 77, 53
2, 34328, Control_c, 2, 64, 127
2, 34337, Note_on_c, 2, 57, 0
2, 34337, Note_on_c, 2, 53, 0
2, 34349, Note_on_c, 2, 75, 42
2, 34354, Note_on_c, 2, 60, 0
2, 34357, Note_on_c, 2, 77, 0
2, 34374, Note_on_c, 2, 74, 45
2, 34399, Note_on_c, 2, 72, 42
2, 34404, Note_on_c, 2, 74, 0
2, 34412, Note_on_c, 2, 75, 0
2, 34428, Note_on_c, 2, 62, 49
2, 34428, Note_on_c, 2, 70, 56
2, 34433, Control_c, 2, 64, 0
2, 34436, Note_on_c, 2, 72, 0
2, 34466, Control_c, 2, 64, 127
2, 34478, Note_on_c, 2, 62, 0
2, 34516, Note_on_c, 2, 70, 0
2, 34545, Note_on_c, 2, 72, 45
2, 34545, Note_on_c, 2, 65, 38
2, 34545, Note_on_c, 2, 63, 41
2, 34549, Control_c, 2, 64, 0
2, 34582, Control_c, 2, 64, 127
2, 34620, Note_on_c, 2, 65, 0
2, 34624, Note_on_c, 2, 63, 0
2, 34628, Note_on_c, 2, 72, 0
2, 34662, Control_c, 2, 64, 0
2, 34666, Note_on_c, 2, 65, 14
2, 34666, Note_on_c, 2, 62, 41
2, 34666, Note_on_c, 2, 70, 45
2, 34666, Note_on_c, 2, 74, 57
2, 34678, Control_c, 2, 64, 127
2, 34679, Note_on_c, 2, 65, 0
2, 34699, Note_on_c, 2, 74, 0
2, 34707, Note_on_c, 2, 70, 0
2, 34707, Note_on_c, 2, 62, 0
2, 34791, Note_on_c, 2, 60, 36
2, 34791, Note_on_c, 2, 63, 38
2, 34791, Note_on_c, 2, 72, 40
2, 34791, Note_on_c, 2, 77, 50
2, 34799, Control_c, 2, 64, 0
2, 34824, Note_on_c, 2, 75, 48
2, 34833, Note_on_c, 2, 77, 0
2, 34836, Control_c, 2, 64, 127
2, 34845, Note_on_c, 2, 63, 0
2, 34845, Note_on_c, 2, 60, 0
2, 34862, Note_on_c, 2, 75, 0
2, 34862, Note_on_c, 2, 74, 37
2, 34882, Note_on_c, 2, 72, 0
2, 34891, Note_on_c, 2, 75, 40
2, 34904, Note_on_c, 2, 74, 0
2, 34928, Note_on_c, 2, 75, 0
2, 34933, Note_on_c, 2, 58, 41
2, 34933, Note_on_c, 2, 74, 45
2, 34933, Note_on_c, 2, 62, 31
2, 34933, Note_on_c, 2, 77, 52
2, 34949, Control_c, 2, 64, 0
2, 34983, Control_c, 2, 64, 127
2, 34992, Note_on_c, 2, 62, 0
2, 34999, Note_on_c, 2, 58, 0
2, 35054, Note_on_c, 2, 46, 59
2, 35099, Note_on_c, 2, 46, 0
2, 35174, Note_on_c, 2, 46, 59
2, 35212, Note_on_c, 2, 46, 0
2, 35296, Note_on_c, 2, 74, 0
2, 35299, Note_on_c, 2, 77, 0
2, 35299, Note_on_c, 2, 46, 55
2, 35441, Note_on_c, 2, 80, 68
2, 35458, Note_on_c, 2, 46, 0
2, 35566, Note_on_c, 2, 50, 54
2, 35620, Control_c, 2, 64, 0
2, 35658, Control_c, 2, 64, 127
2, 35674, Note_on_c, 2, 53, 44
2, 35708, Note_on_c, 2, 50, 0
2, 35716, Note_on_c, 2, 80, 0
2, 35741, Note_on_c, 2, 53, 0
2, 35791, Note_on_c, 2, 56, 43
2, 35792, Note_on_c, 2, 79, 47
2, 35820, Note_on_c, 2, 77, 42
2, 35832, Note_on_c, 2, 79, 0
2, 35837, Note_on_c, 2, 56, 0
2, 35840, Note_on_c, 2, 75, 39
2, 35854, Note_on_c, 2, 77, 0
2, 35870, Note_on_c, 2, 74, 49
2, 35881, Note_on_c, 2, 75, 0
2, 35904, Note_on_c, 2, 55, 46
2, 35904, Note_on_c, 2, 75, 54
2, 35912, Note_on_c, 2, 74, 0
2, 35933, Control_c, 2, 64, 0
2, 36020, Note_on_c, 2, 55, 0
2, 36020, Note_on_c, 2, 50, 46
2, 36021, Note_on_c, 2, 77, 50
2, 36033, Note_on_c, 2, 75, 0
2, 36145, Note_on_c, 2, 78, 79
2, 36150, Note_on_c, 2, 77, 0
2, 36154, Control_c, 2, 64, 127
2, 36170, Note_on_c, 2, 50, 0
2, 36279, Note_on_c, 2, 51, 50
2, 36279, Note_on_c, 2, 58, 51
2, 36308, Control_c, 2, 64, 0
2, 36337, Control_c, 2, 64, 127
2, 36370, Note_on_c, 2, 58, 0
2, 36370, Note_on_c, 2, 51, 0
2, 36412, Note_on_c, 2, 51, 37
2, 36412, Note_on_c, 2, 58, 39
2, 36450, Note_on_c, 2, 51, 0
2, 36450, Note_on_c, 2, 78, 0
2, 36487, Note_on_c, 2, 58, 0
2, 36542, Note_on_c, 2, 51, 41
2, 36542, Note_on_c, 2, 59, 40
2, 36542, Note_on_c, 2, 80, 48
2, 36550, Control_c, 2, 64, 0
2, 36583, Control_c, 2, 64, 127
2, 36587, Note_on_c, 2, 80, 0
2, 36616, Note_on_c, 2, 79, 59
2, 36621, Note_on_c, 2, 51, 0
2, 36633, Note_on_c, 2, 59, 0
2, 36679, Note_on_c, 2, 51, 45
2, 36679, Note_on_c, 2, 60, 37
2, 36679, Note_on_c, 2, 77, 34
2, 36687, Note_on_c, 2, 79, 0
2, 36692, Control_c, 2, 64, 0
2, 36733, Control_c, 2, 64, 127
2, 36754, Note_on_c, 2, 60, 0
2, 36754, Note_on_c, 2, 75, 38
2, 36758, Note_on_c, 2, 77, 0
2, 36775, Note_on_c, 2, 51, 0
2, 36825, Note_on_c, 2, 51, 39
2, 36825, Note_on_c, 2, 57, 28
2, 36825, Note_on_c, 2, 74, 45
2, 36842, Control_c, 2, 64, 0
2, 36846, Note_on_c, 2, 75, 0
2, 36875, Control_c, 2, 64, 127
2, 36904, Note_on_c, 2, 51, 0
2, 36904, Note_on_c, 2, 72, 43
2, 36905, Note_on_c, 2, 57, 0
2, 36908, Note_on_c, 2, 74, 0
2, 36979, Note_on_c, 2, 50, 49
2, 36979, Note_on_c, 2, 58, 32
2, 36979, Note_on_c, 2, 77, 47
2, 36992, Note_on_c, 2, 72, 0
2, 36996, Control_c, 2, 64, 0
2, 37033, Note_on_c, 2, 77, 0
2, 37037, Note_on_c, 2, 76, 44
2, 37042, Control_c, 2, 64, 127
2, 37083, Note_on_c, 2, 50, 0
2, 37083, Note_on_c, 2, 77, 47
2, 37087, Note_on_c, 2, 76, 0
2, 37099, Note_on_c, 2, 58, 0
2, 37133, Note_on_c, 2, 77, 0
2, 37133, Note_on_c, 2, 51, 45
2, 37133, Note_on_c, 2, 58, 42
2, 37133, Note_on_c, 2, 79, 42
2, 37158, Control_c, 2, 64, 0
2, 37192, Note_on_c, 2, 67, 55
2, 37200, Control_c, 2, 64, 127
2, 37204, Note_on_c, 2, 79, 0
2, 37233, Note_on_c, 2, 51, 0
2, 37242, Note_on_c, 2, 75, 45
2, 37249, Note_on_c, 2, 58, 0
2, 37275, Note_on_c, 2, 67, 0
2, 37300, Note_on_c, 2, 53, 38
2, 37300, Note_on_c, 2, 62, 36
2, 37300, Note_on_c, 2, 70, 43
2, 37304, Note_on_c, 2, 75, 0
2, 37312, Control_c, 2, 64, 0
2, 37350, Control_c, 2, 64, 127
2, 37392, Note_on_c, 2, 53, 0
2, 37396, Note_on_c, 2, 62, 0
2, 37446, Note_on_c, 2, 53, 42
2, 37446, Note_on_c, 2, 62, 48
2, 37487, Note_on_c, 2, 53, 0
2, 37500, Note_on_c, 2, 62, 0
2, 37596, Note_on_c, 2, 53, 26
2, 37596, Note_on_c, 2, 63, 37
2, 37596, Note_on_c, 2, 69, 40
2, 37596, Note_on_c, 2, 74, 37
2, 37608, Control_c, 2, 64, 0
2, 37612, Note_on_c, 2, 70, 0
2, 37666, Control_c, 2, 64, 127
2, 37675, Note_on_c, 2, 72, 53
2, 37692, Note_on_c, 2, 69, 0
2, 37692, Note_on_c, 2, 74, 0
2, 37712, Note_on_c, 2, 63, 0
2, 37742, Note_on_c, 2, 63, 40
2, 37742, Note_on_c, 2, 70, 52
2, 37746, Note_on_c, 2, 72, 0
2, 37758, Note_on_c, 2, 53, 0
2, 37808, Note_on_c, 2, 72, 46
2, 37812, Note_on_c, 2, 63, 0
2, 37812, Note_on_c, 2, 70, 0
2, 37875, Note_on_c, 2, 70, 63
2, 37884, Note_on_c, 2, 72, 0
2, 37938, Note_on_c, 2, 58, 55
2, 37963, Control_c, 2, 64, 0
2, 37996, Note_on_c, 2, 62, 41
2, 38008, Control_c, 2, 64, 127
2, 38050, Note_on_c, 2, 62, 0
2, 38054, Note_on_c, 2, 65, 30
2, 38063, Note_on_c, 2, 58, 0
2, 38108, Note_on_c, 2, 70, 0
2, 38112, Note_on_c, 2, 63, 39
2, 38117, Note_on_c, 2, 65, 0
2, 38180, Note_on_c, 2, 63, 0
2, 38183, Note_on_c, 2, 65, 28
2, 38233, Note_on_c, 2, 70, 42
2, 38233, Note_on_c, 2, 77, 55
2, 38234, Note_on_c, 2, 62, 41
2, 38238, Control_c, 2, 64, 0
2, 38246, Note_on_c, 2, 65, 0
2, 38271, Control_c, 2, 64, 127
2, 38288, Note_on_c, 2, 62, 0
2, 38288, Note_on_c, 2, 65, 42
2, 38296, Note_on_c, 2, 77, 0
2, 38304, Note_on_c, 2, 70, 0
2, 38333, Note_on_c, 2, 65, 0
2, 38338, Note_on_c, 2, 77, 49
2, 38338, Note_on_c, 2, 60, 42
2, 38338, Note_on_c, 2, 72, 48
2, 38358, Control_c, 2, 64, 0
2, 38392, Note_on_c, 2, 60, 0
2, 38392, Note_on_c, 2, 65, 42
2, 38392, Control_c, 2, 64, 127
2, 38400, Note_on_c, 2, 77, 0
2, 38408, Note_on_c, 2, 72, 0
2, 38442, Note_on_c, 2, 65, 0
2, 38442, Note_on_c, 2, 58, 40
2, 38442, Note_on_c, 2, 74, 54
2, 38442, Note_on_c, 2, 77, 52
2, 38480, Note_on_c, 2, 74, 0
2, 38488, Note_on_c, 2, 77, 0
2, 38488, Note_on_c, 2, 58, 0
2, 38492, Note_on_c, 2, 65, 44
2, 38538, Note_on_c, 2, 65, 0
2, 38546, Note_on_c, 2, 57, 52
2, 38546, Note_on_c, 2, 75, 40
2, 38546, Note_on_c, 2, 77, 45
2, 38562, Control_c, 2, 64, 0
2, 38604, Note_on_c, 2, 60, 40
2, 38617, Control_c, 2, 64, 127
2, 38633, Note_on_c, 2, 57, 0
2, 38654, Note_on_c, 2, 63, 40
2, 38662, Note_on_c, 2, 60, 0
2, 38675, Note_on_c, 2, 77, 0
2, 38679, Note_on_c, 2, 79, 46
2, 38684, Note_on_c, 2, 75, 0
2, 38704, Note_on_c, 2, 77, 45
2, 38708, Note_on_c, 2, 63, 0
2, 38708, Note_on_c, 2, 62, 44
2, 38717, Note_on_c, 2, 79, 0
2, 38734, Note_on_c, 2, 76, 59
2, 38734, Control_c, 2, 64, 0
2, 38738, Note_on_c, 2, 77, 0
2, 38763, Note_on_c, 2, 60, 40
2, 38763, Note_on_c, 2, 77, 46
2, 38771, Note_on_c, 2, 76, 0
2, 38775, Note_on_c, 2, 62, 0
2, 38775, Control_c, 2, 64, 127
2, 38821, Note_on_c, 2, 58, 45
2, 38829, Note_on_c, 2, 77, 0
2, 38833, Note_on_c, 2, 60, 0
2, 38880, Note_on_c, 2, 57, 33
2, 38880, Note_on_c, 2, 69, 32
2, 38880, Note_on_c, 2, 77, 52
2, 38904, Note_on_c, 2, 58, 0
2, 38905, Control_c, 2, 64, 0
2, 38934, Note_on_c, 2, 57, 0
2, 38938, Note_on_c, 2, 55, 36
2, 38942, Control_c, 2, 64, 127
2, 38950, Note_on_c, 2, 69, 0
2, 38958, Note_on_c, 2, 55, 0
2, 38971, Note_on_c, 2, 77, 0
2, 38992, Note_on_c, 2, 53, 40
2, 38992, Note_on_c, 2, 70, 43
2, 38992, Note_on_c, 2, 79, 55
2, 39021, Control_c, 2, 64, 0
2, 39042, Note_on_c, 2, 55, 40
2, 39050, Control_c, 2, 64, 127
2, 39053, Note_on_c, 2, 53, 0
2, 39062, Note_on_c, 2, 70, 0
2, 39062, Note_on_c, 2, 79, 0
2, 39063, Note_on_c, 2, 55, 0
2, 39092, Note_on_c, 2, 51, 39
2, 39092, Note_on_c, 2, 72, 50
2, 39092, Note_on_c, 2, 81, 56
2, 39121, Note_on_c, 2, 51, 0
2, 39126, Note_on_c, 2, 72, 0
2, 39138, Note_on_c, 2, 81, 0
2, 39142, Note_on_c, 2, 53, 49
2, 39167, Note_on_c, 2, 53, 0
2, 39204, Note_on_c, 2, 50, 40
2, 39204, Note_on_c, 2, 74, 45
2, 39204, Note_on_c, 2, 82, 48
2, 39238, Control_c, 2, 64, 0
2, 39254, Note_on_c, 2, 53, 40
2, 39300, Note_on_c, 2, 50, 0
2, 39300, Control_c, 2, 64, 127
2, 39305, Note_on_c, 2, 58, 45
2, 39321, Note_on_c, 2, 53, 0
2, 39330, Note_on_c, 2, 84, 49
2, 39342, Note_on_c, 2, 82, 0
2, 39359, Note_on_c, 2, 58, 0
2, 39363, Note_on_c, 2, 50, 43
2, 39363, Note_on_c, 2, 86, 32
2, 39388, Control_c, 2, 64, 0
2, 39388, Note_on_c, 2, 82, 46
2, 39400, Note_on_c, 2, 84, 0
2, 39405, Note_on_c, 2, 86, 0
2, 39421, Control_c, 2, 64, 127
2, 39422, Note_on_c, 2, 62, 41
2, 39422, Note_on_c, 2, 77, 38
2, 39425, Note_on_c, 2, 50, 0
2, 39430, Note_on_c, 2, 82, 0
2, 39442, Note_on_c, 2, 77, 0
2, 39446, Note_on_c, 2, 62, 0
2, 39458, Note_on_c, 2, 74, 0
2, 39534, Note_on_c, 2, 58, 36
2, 39534, Note_on_c, 2, 62, 35
2, 39534, Note_on_c, 2, 74, 36
2, 39534, Note_on_c, 2, 77, 41
2, 39538, Control_c, 2, 64, 0
2, 39567, Control_c, 2, 64, 127
2, 39593, Note_on_c, 2, 58, 0
2, 39597, Note_on_c, 2, 62, 0
2, 39597, Note_on_c, 2, 77, 0
2, 39599, Note_on_c, 2, 74, 0
2, 39650, Note_on_c, 2, 75, 40
2, 39650, Note_on_c, 2, 60, 38
2, 39650, Note_on_c, 2, 63, 37
2, 39650, Note_on_c, 2, 72, 36
2, 39659, Control_c, 2, 64, 0
2, 39688, Control_c, 2, 64, 127
2, 39692, Note_on_c, 2, 72, 0
2, 39696, Note_on_c, 2, 75, 0
2, 39700, Note_on_c, 2, 63, 0
2, 39700, Note_on_c, 2, 60, 0
2, 39759, Note_on_c, 2, 62, 39
2, 39759, Note_on_c, 2, 70, 43
2, 39759, Note_on_c, 2, 65, 28
2, 39759, Note_on_c, 2, 74, 48
2, 39767, Control_c, 2, 64, 0
2, 39796, Control_c, 2, 64, 127
2, 39800, Note_on_c, 2, 70, 0
2, 39804, Note_on_c, 2, 74, 0
2, 39813, Note_on_c, 2, 65, 0
2, 39825, Note_on_c, 2, 62, 0
2, 39868, Note_on_c, 2, 72, 52
2, 39868, Note_on_c, 2, 67, 38
2, 39868, Note_on_c, 2, 63, 33
2, 39872, Control_c, 2, 64, 0
2, 40025, Note_on_c, 2, 74, 45
2, 40035, Note_on_c, 2, 72, 0
2, 40051, Note_on_c, 2, 75, 40
2, 40076, Note_on_c, 2, 74, 0
2, 40080, Note_on_c, 2, 72, 40
2, 40097, Note_on_c, 2, 75, 0
2, 40105, Note_on_c, 2, 79, 46
2, 40106, Note_on_c, 2, 67, 0
2, 40117, Note_on_c, 2, 63, 0
2, 40117, Control_c, 2, 64, 127
2, 40122, Note_on_c, 2, 72, 0
2, 40134, Note_on_c, 2, 79, 0
2, 40214, Control_c, 2, 64, 0
2, 40217, Note_on_c, 2, 51, 48
2, 40217, Note_on_c, 2, 60, 40
2, 40217, Note_on_c, 2, 67, 46
2, 40217, Note_on_c, 2, 75, 45
2, 40238, Control_c, 2, 64, 127
2, 40242, Note_on_c, 2, 51, 0
2, 40247, Note_on_c, 2, 75, 0
2, 40250, Note_on_c, 2, 60, 0
2, 40263, Note_on_c, 2, 67, 0
2, 40318, Control_c, 2, 64, 0
2, 40330, Note_on_c, 2, 53, 55
2, 40330, Note_on_c, 2, 65, 56
2, 40330, Note_on_c, 2, 70, 54
2, 40334, Note_on_c, 2, 62, 45
2, 40351, Control_c, 2, 64, 127
2, 40367, Note_on_c, 2, 53, 0
2, 40372, Note_on_c, 2, 62, 0
2, 40384, Note_on_c, 2, 70, 0
2, 40384, Note_on_c, 2, 65, 0
2, 40442, Control_c, 2, 64, 0
2, 40446, Note_on_c, 2, 53, 49
2, 40447, Note_on_c, 2, 63, 44
2, 40447, Note_on_c, 2, 69, 51
2, 40447, Note_on_c, 2, 72, 55
2, 40468, Control_c, 2, 64, 127
2, 40514, Note_on_c, 2, 69, 0
2, 40514, Note_on_c, 2, 63, 0
2, 40526, Note_on_c, 2, 72, 0
2, 40527, Note_on_c, 2, 53, 0
2, 40564, Note_on_c, 2, 63, 49
2, 40564, Note_on_c, 2, 69, 45
2, 40564, Note_on_c, 2, 72, 55
2, 40565, Note_on_c, 2, 58, 50
2, 40576, Control_c, 2, 64, 0
2, 40622, Control_c, 2, 64, 127
2, 40730, Note_on_c, 2, 73, 45
2, 40742, Note_on_c, 2, 69, 0
2, 40746, Note_on_c, 2, 58, 0
2, 40746, Note_on_c, 2, 63, 0
2, 40755, Note_on_c, 2, 72, 0
2, 40759, Note_on_c, 2, 73, 0
2, 40784, Note_on_c, 2, 58, 54
2, 40784, Note_on_c, 2, 74, 55
2, 40784, Note_on_c, 2, 62, 54
2, 40784, Note_on_c, 2, 70, 50
2, 40785, Control_c, 2, 64, 0
2, 40814, Control_c, 2, 64, 127
2, 40830, Note_on_c, 2, 74, 0
2, 40834, Note_on_c, 2, 58, 0
2, 40834, Note_on_c, 2, 62, 0
2, 40834, Note_on_c, 2, 58, 49
2, 40837, Note_on_c, 2, 70, 0
2, 40888, Note_on_c, 2, 77, 56
2, 40888, Note_on_c, 2, 70, 54
2, 40892, Note_on_c, 2, 62, 38
2, 40901, Control_c, 2, 64, 0
2, 40909, Note_on_c, 2, 58, 0
2, 40938, Note_on_c, 2, 62, 0
2, 40938, Control_c, 2, 64, 127
2, 40943, Note_on_c, 2, 65, 43
2, 40960, Note_on_c, 2, 77, 0
2, 40967, Note_on_c, 2, 70, 0
2, 40992, Note_on_c, 2, 63, 47
2, 40992, Note_on_c, 2, 72, 55
2, 40992, Note_on_c, 2, 77, 55
2, 41005, Note_on_c, 2, 65, 0
2, 41038, Control_c, 2, 64, 0
2, 41042, Note_on_c, 2, 62, 57
2, 41058, Note_on_c, 2, 63, 0
2, 41072, Note_on_c, 2, 77, 0
2, 41076, Note_on_c, 2, 72, 0
2, 41080, Control_c, 2, 64, 127
2, 41093, Note_on_c, 2, 60, 54
2, 41093, Note_on_c, 2, 74, 55
2, 41093, Note_on_c, 2, 77, 56
2, 41101, Note_on_c, 2, 62, 0
2, 41118, Note_on_c, 2, 60, 0
2, 41130, Note_on_c, 2, 74, 0
2, 41138, Note_on_c, 2, 77, 0
2, 41146, Note_on_c, 2, 58, 56
2, 41168, Note_on_c, 2, 58, 0
2, 41201, Note_on_c, 2, 57, 44
2, 41201, Note_on_c, 2, 75, 52
2, 41201, Note_on_c, 2, 77, 56
2, 41214, Control_c, 2, 64, 0
2, 41256, Note_on_c, 2, 60, 43
2, 41260, Control_c, 2, 64, 127
2, 41271, Note_on_c, 2, 57, 0
2, 41301, Note_on_c, 2, 63, 46
2, 41314, Note_on_c, 2, 60, 0
2, 41318, Note_on_c, 2, 77, 0
2, 41326, Note_on_c, 2, 79, 53
2, 41330, Note_on_c, 2, 75, 0
2, 41351, Note_on_c, 2, 62, 45
2, 41351, Note_on_c, 2, 77, 51
2, 41359, Note_on_c, 2, 63, 0
2, 41364, Note_on_c, 2, 79, 0
2, 41376, Note_on_c, 2, 76, 60
2, 41385, Note_on_c, 2, 77, 0
2, 41385, Control_c, 2, 64, 0
2, 41401, Note_on_c, 2, 60, 52
2, 41401, Note_on_c, 2, 77, 55
2, 41409, Note_on_c, 2, 62, 0
2, 41413, Note_on_c, 2, 76, 0
2, 41426, Control_c, 2, 64, 127
2, 41455, Note_on_c, 2, 58, 45
2, 41459, Note_on_c, 2, 60, 0
2, 41463, Note_on_c, 2, 77, 0
2, 41505, Note_on_c, 2, 57, 47
2, 41505, Note_on_c, 2, 69, 54
2, 41505, Note_on_c, 2, 77, 56
2, 41513, Control_c, 2, 64, 0
2, 41526, Note_on_c, 2, 58, 0
2, 41551, Control_c, 2, 64, 127
2, 41555, Note_on_c, 2, 55, 50
2, 41558, Note_on_c, 2, 57, 0
2, 41575, Note_on_c, 2, 69, 0
2, 41580, Note_on_c, 2, 77, 0
2, 41580, Note_on_c, 2, 55, 0
2, 41609, Note_on_c, 2, 79, 57
2, 41610, Note_on_c, 2, 53, 47
2, 41610, Note_on_c, 2, 70, 54
2, 41638, Control_c, 2, 64, 0
2, 41664, Note_on_c, 2, 55, 52
2, 41668, Control_c, 2, 64, 127
2, 41676, Note_on_c, 2, 53, 0
2, 41684, Note_on_c, 2, 55, 0
2, 41684, Note_on_c, 2, 70, 0
2, 41689, Note_on_c, 2, 79, 0
2, 41722, Note_on_c, 2, 51, 42
2, 41722, Note_on_c, 2, 72, 54
2, 41722, Note_on_c, 2, 81, 57
2, 41755, Control_c, 2, 64, 0
2, 41784, Note_on_c, 2, 51, 0
2, 41784, Control_c, 2, 64, 127
2, 41788, Note_on_c, 2, 53, 46
2, 41793, Note_on_c, 2, 72, 0
2, 41805, Note_on_c, 2, 53, 0
2, 41805, Note_on_c, 2, 81, 0
2, 41851, Note_on_c, 2, 50, 45
2, 41851, Note_on_c, 2, 82, 53
2, 41851, Note_on_c, 2, 74, 40
2, 41876, Control_c, 2, 64, 0
2, 41914, Note_on_c, 2, 53, 51
2, 41955, Note_on_c, 2, 50, 0
2, 41960, Control_c, 2, 64, 127
2, 41972, Note_on_c, 2, 58, 39
2, 41980, Note_on_c, 2, 53, 0
2, 42010, Note_on_c, 2, 84, 37
2, 42022, Note_on_c, 2, 82, 0
2, 42030, Note_on_c, 2, 58, 0
2, 42039, Note_on_c, 2, 53, 45
2, 42039, Note_on_c, 2, 86, 50
2, 42046, Note_on_c, 2, 84, 0
2, 42068, Note_on_c, 2, 82, 45
2, 42076, Control_c, 2, 64, 0
2, 42097, Note_on_c, 2, 86, 0
2, 42109, Note_on_c, 2, 82, 0
2, 42110, Note_on_c, 2, 53, 0
2, 42110, Note_on_c, 2, 62, 41
2, 42110, Note_on_c, 2, 77, 49
2, 42110, Control_c, 2, 64, 127
2, 42126, Note_on_c, 2, 77, 0
2, 42135, Note_on_c, 2, 62, 0
2, 42147, Note_on_c, 2, 74, 0
2, 42218, Control_c, 2, 64, 0
2, 42224, Note_on_c, 2, 58, 39
2, 42224, Note_on_c, 2, 62, 36
2, 42224, Note_on_c, 2, 74, 33
2, 42224, Note_on_c, 2, 77, 54
2, 42247, Control_c, 2, 64, 127
2, 42265, Note_on_c, 2, 58, 0
2, 42266, Note_on_c, 2, 62, 0
2, 42291, Note_on_c, 2, 74, 0
2, 42294, Note_on_c, 2, 77, 0
2, 42331, Note_on_c, 2, 60, 40
2, 42331, Note_on_c, 2, 63, 36
2, 42331, Note_on_c, 2, 72, 45
2, 42331, Note_on_c, 2, 75, 40
2, 42343, Control_c, 2, 64, 0
2, 42368, Control_c, 2, 64, 127
2, 42402, Note_on_c, 2, 72, 0
2, 42405, Note_on_c, 2, 75, 0
2, 42410, Note_on_c, 2, 63, 0
2, 42411, Note_on_c, 2, 60, 0
2, 42452, Note_on_c, 2, 62, 45
2, 42452, Note_on_c, 2, 65, 37
2, 42452, Note_on_c, 2, 70, 45
2, 42452, Note_on_c, 2, 74, 45
2, 42455, Control_c, 2, 64, 0
2, 42481, Control_c, 2, 64, 127
2, 42526, Note_on_c, 2, 65, 0
2, 42527, Note_on_c, 2, 70, 0
2, 42543, Note_on_c, 2, 62, 0
2, 42568, Note_on_c, 2, 63, 41
2, 42568, Note_on_c, 2, 67, 40
2, 42568, Note_on_c, 2, 71, 49
2, 42572, Note_on_c, 2, 74, 0
2, 42601, Note_on_c, 2, 72, 45
2, 42609, Control_c, 2, 64, 0
2, 42618, Note_on_c, 2, 71, 0
2, 42626, Note_on_c, 2, 74, 45
2, 42635, Note_on_c, 2, 72, 0
2, 42651, Note_on_c, 2, 72, 49
2, 42659, Note_on_c, 2, 74, 0
2, 42685, Note_on_c, 2, 75, 43
2, 42688, Note_on_c, 2, 72, 0
2, 42714, Note_on_c, 2, 74, 53
2, 42722, Note_on_c, 2, 75, 0
2, 42743, Note_on_c, 2, 77, 54
2, 42751, Note_on_c, 2, 74, 0
2, 42772, Note_on_c, 2, 75, 45
2, 42780, Note_on_c, 2, 77, 0
2, 42806, Note_on_c, 2, 75, 0
2, 42806, Note_on_c, 2, 79, 68
2, 42834, Control_c, 2, 64, 127
2, 42876, Note_on_c, 2, 67, 0
2, 42888, Note_on_c, 2, 63, 0
2, 43056, Note_on_c, 2, 57, 62
2, 43056, Note_on_c, 2, 63, 26
2, 43056, Note_on_c, 2, 77, 49
2, 43068, Note_on_c, 2, 79, 0
2, 43093, Control_c, 2, 64, 0
2, 43189, Note_on_c, 2, 60, 48
2, 43202, Control_c, 2, 64, 127
2, 43214, Note_on_c, 2, 57, 0
2, 43248, Note_on_c, 2, 77, 0
2, 43251, Note_on_c, 2, 63, 0
2, 43290, Note_on_c, 2, 60, 0
2, 43304, Note_on_c, 2, 69, 47
2, 43326, Note_on_c, 2, 58, 42
2, 43326, Note_on_c, 2, 70, 56
2, 43348, Control_c, 2, 64, 0
2, 43349, Note_on_c, 2, 69, 0
2, 43385, Note_on_c, 2, 62, 45
2, 43397, Control_c, 2, 64, 127
2, 43444, Note_on_c, 2, 65, 40
2, 43447, Note_on_c, 2, 62, 0
2, 43502, Note_on_c, 2, 58, 0
2, 43502, Note_on_c, 2, 62, 45
2, 43526, Note_on_c, 2, 65, 0
2, 43552, Note_on_c, 2, 62, 0
2, 43564, Note_on_c, 2, 58, 40
2, 43602, Note_on_c, 2, 70, 0
2, 43623, Note_on_c, 2, 62, 33
2, 43685, Note_on_c, 2, 62, 0
2, 43685, Note_on_c, 2, 65, 48
2, 43685, Note_on_c, 2, 80, 56
2, 43742, Note_on_c, 2, 65, 0
2, 43744, Note_on_c, 2, 62, 50
2, 43747, Note_on_c, 2, 58, 0
2, 43760, Note_on_c, 2, 62, 0
2, 43802, Note_on_c, 2, 80, 0
2, 43802, Note_on_c, 2, 63, 52
2, 43802, Note_on_c, 2, 79, 55
2, 43847, Control_c, 2, 64, 0
2, 43860, Note_on_c, 2, 63, 0
2, 43860, Note_on_c, 2, 60, 51
2, 43898, Control_c, 2, 64, 127
2, 43914, Note_on_c, 2, 65, 36
2, 43914, Note_on_c, 2, 81, 53
2, 43927, Note_on_c, 2, 79, 0
2, 43972, Note_on_c, 2, 63, 36
2, 43977, Note_on_c, 2, 60, 0
2, 44026, Note_on_c, 2, 65, 0
2, 44026, Note_on_c, 2, 84, 53
2, 44031, Note_on_c, 2, 81, 0
2, 44031, Note_on_c, 2, 62, 42
2, 44039, Note_on_c, 2, 63, 0
2, 44073, Control_c, 2, 64, 0
2, 44085, Note_on_c, 2, 62, 0
2, 44093, Note_on_c, 2, 65, 37
2, 44106, Control_c, 2, 64, 127
2, 44148, Note_on_c, 2, 82, 57
2, 44148, Note_on_c, 2, 62, 49
2, 44156, Note_on_c, 2, 84, 0
2, 44168, Note_on_c, 2, 65, 0
2, 44206, Note_on_c, 2, 60, 45
2, 44218, Note_on_c, 2, 62, 0
2, 44222, Note_on_c, 2, 60, 0
2, 44260, Note_on_c, 2, 82, 0
2, 44260, Note_on_c, 2, 58, 48
2, 44277, Note_on_c, 2, 58, 0
2, 44318, Note_on_c, 2, 56, 57
2, 44330, Note_on_c, 2, 56, 0
2, 44377, Note_on_c, 2, 53, 53
2, 44377, Note_on_c, 2, 68, 68
2, 44410, Control_c, 2, 64, 0
2, 44436, Note_on_c, 2, 50, 52
2, 44439, Note_on_c, 2, 53, 0
2, 44444, Control_c, 2, 64, 127
2, 44485, Note_on_c, 2, 50, 0
2, 44494, Note_on_c, 2, 68, 0
2, 44494, Note_on_c, 2, 51, 60
2, 44494, Note_on_c, 2, 67, 55
2, 44543, Control_c, 2, 64, 0
2, 44556, Note_on_c, 2, 48, 51
2, 44569, Note_on_c, 2, 51, 0
2, 44573, Note_on_c, 2, 67, 0
2, 44573, Control_c, 2, 64, 127
2, 44614, Note_on_c, 2, 48, 0
2, 44618, Note_on_c, 2, 53, 62
2, 44618, Note_on_c, 2, 69, 51
2, 44618, Note_on_c, 2, 63, 47
2, 44648, Control_c, 2, 64, 0
2, 44685, Control_c, 2, 64, 127
2, 44698, Note_on_c, 2, 41, 63
2, 44701, Note_on_c, 2, 53, 0
2, 44731, Note_on_c, 2, 63, 0
2, 44768, Note_on_c, 2, 69, 0
2, 44773, Note_on_c, 2, 41, 0
2, 44773, Note_on_c, 2, 46, 60
2, 44773, Note_on_c, 2, 63, 42
2, 44773, Note_on_c, 2, 72, 63
2, 44781, Control_c, 2, 64, 0
2, 44848, Control_c, 2, 64, 127
2, 44956, Note_on_c, 2, 63, 0
2, 45040, Control_c, 2, 64, 0
2, 45060, Note_on_c, 2, 62, 36
2, 45060, Note_on_c, 2, 70, 45
2, 45069, Control_c, 2, 64, 127
2, 45073, Note_on_c, 2, 72, 0
2, 45082, Note_on_c, 2, 70, 0
2, 45085, Note_on_c, 2, 46, 0
2, 45089, Note_on_c, 2, 62, 0
2, 45190, Note_on_c, 2, 65, 59
2, 45190, Note_on_c, 2, 62, 54
2, 45190, Note_on_c, 2, 56, 52
2, 45194, Control_c, 2, 64, 0
2, 45227, Control_c, 2, 64, 127
2, 45278, Note_on_c, 2, 62, 0
2, 45285, Note_on_c, 2, 65, 0
2, 45315, Note_on_c, 2, 56, 0
2, 45319, Note_on_c, 2, 63, 51
2, 45319, Note_on_c, 2, 55, 43
2, 45319, Note_on_c, 2, 67, 49
2, 45327, Control_c, 2, 64, 0
2, 45356, Control_c, 2, 64, 127
2, 45381, Note_on_c, 2, 67, 0
2, 45381, Note_on_c, 2, 63, 0
2, 45448, Note_on_c, 2, 68, 42
2, 45448, Note_on_c, 2, 65, 44
2, 45448, Note_on_c, 2, 53, 40
2, 45451, Note_on_c, 2, 55, 0
2, 45452, Control_c, 2, 64, 0
2, 45481, Control_c, 2, 64, 127
2, 45523, Note_on_c, 2, 65, 0
2, 45530, Note_on_c, 2, 68, 0
2, 45536, Note_on_c, 2, 53, 0
2, 45602, Control_c, 2, 64, 0
2, 45606, Note_on_c, 2, 66, 43
2, 45606, Note_on_c, 2, 69, 50
2, 45608, Note_on_c, 2, 52, 37
2, 45673, Control_c, 2, 64, 127
2, 45727, Note_on_c, 2, 66, 0
2, 45732, Note_on_c, 2, 69, 0
2, 45869, Note_on_c, 2, 70, 46
2, 45869, Note_on_c, 2, 67, 46
2, 45877, Control_c, 2, 64, 0
2, 45907, Control_c, 2, 64, 127
2, 45948, Note_on_c, 2, 67, 0
2, 45952, Note_on_c, 2, 70, 0
2, 45956, Note_on_c, 2, 52, 0
2, 45998, Note_on_c, 2, 70, 53
2, 45998, Note_on_c, 2, 73, 53
2, 46027, Note_on_c, 2, 70, 0
2, 46031, Note_on_c, 2, 73, 0
2, 46127, Note_on_c, 2, 64, 47
2, 46127, Note_on_c, 2, 48, 41
2, 46127, Note_on_c, 2, 67, 53
2, 46136, Control_c, 2, 64, 0
2, 46173, Control_c, 2, 64, 127
2, 46202, Note_on_c, 2, 67, 0
2, 46202, Note_on_c, 2, 64, 0
2, 46252, Note_on_c, 2, 68, 45
2, 46252, Note_on_c, 2, 72, 55
2, 46269, Note_on_c, 2, 48, 0
2, 46285, Note_on_c, 2, 72, 0
2, 46301, Note_on_c, 2, 68, 0
2, 46382, Note_on_c, 2, 49, 44
2, 46382, Note_on_c, 2, 67, 48
2, 46382, Note_on_c, 2, 70, 40
2, 46386, Control_c, 2, 64, 0
2, 46502, Control_c, 2, 64, 127
2, 46556, Note_on_c, 2, 70, 0
2, 46562, Note_on_c, 2, 67, 0
2, 46640, Note_on_c, 2, 65, 45
2, 46640, Note_on_c, 2, 68, 49
2, 46648, Control_c, 2, 64, 0
2, 46673, Control_c, 2, 64, 127
2, 46682, Note_on_c, 2, 68, 0
2, 46748, Note_on_c, 2, 49, 0
2, 46769, Note_on_c, 2, 77, 52
2, 46770, Note_on_c, 2, 65, 0
2, 46852, Note_on_c, 2, 77, 0
2, 46890, Note_on_c, 2, 77, 47
2, 46890, Note_on_c, 2, 60, 47
2, 46890, Note_on_c, 2, 56, 41
2, 46911, Control_c, 2, 64, 0
2, 46952, Control_c, 2, 64, 127
2, 46990, Note_on_c, 2, 77, 0
2, 47020, Note_on_c, 2, 77, 37
2, 47032, Note_on_c, 2, 60, 0
2, 47036, Note_on_c, 2, 56, 0
2, 47044, Note_on_c, 2, 77, 0
2, 47141, Note_on_c, 2, 58, 36
2, 47141, Note_on_c, 2, 61, 25
2, 47141, Note_on_c, 2, 78, 39
2, 47153, Control_c, 2, 64, 0
2, 47211, Control_c, 2, 64, 127
2, 47382, Note_on_c, 2, 79, 54
2, 47390, Note_on_c, 2, 78, 0
2, 47429, Note_on_c, 2, 58, 0
2, 47433, Note_on_c, 2, 61, 0
2, 47515, Note_on_c, 2, 82, 54
2, 47524, Note_on_c, 2, 79, 0
2, 47636, Note_on_c, 2, 60, 46
2, 47636, Note_on_c, 2, 70, 35
2, 47657, Control_c, 2, 64, 0
2, 47753, Control_c, 2, 64, 127
2, 47761, Note_on_c, 2, 60, 0
2, 47761, Note_on_c, 2, 82, 0
2, 47761, Note_on_c, 2, 76, 46
2, 47790, Note_on_c, 2, 70, 0
2, 47848, Note_on_c, 2, 76, 0
2, 47891, Note_on_c, 2, 65, 48
2, 47891, Note_on_c, 2, 70, 37
2, 47891, Note_on_c, 2, 79, 45
2, 47907, Control_c, 2, 64, 0
2, 47986, Control_c, 2, 64, 127
2, 48111, Control_c, 2, 64, 0
2, 48165, Control_c, 2, 64, 127
2, 48170, Note_on_c, 2, 68, 46
2, 48170, Note_on_c, 2, 77, 49
2, 48182, Note_on_c, 2, 79, 0
2, 48182, Note_on_c, 2, 70, 0
2, 48187, Note_on_c, 2, 65, 0
2, 48190, Note_on_c, 2, 68, 0
2, 48290, Note_on_c, 2, 41, 60
2, 48365, Note_on_c, 2, 41, 0
2, 48407, Note_on_c, 2, 41, 60
2, 48499, Note_on_c, 2, 41, 0
2, 48532, Note_on_c, 2, 41, 60
2, 48612, Note_on_c, 2, 41, 0
2, 48653, Note_on_c, 2, 41, 65
2, 48670, Control_c, 2, 64, 0
2, 48695, Control_c, 2, 64, 127
2, 48720, Note_on_c, 2, 77, 0
2, 48770, Note_on_c, 2, 80, 63
2, 48807, Note_on_c, 2, 80, 0
2, 48886, Note_on_c, 2, 79, 57
2, 48946, Note_on_c, 2, 77, 55
2, 48957, Note_on_c, 2, 79, 0
2, 48999, Note_on_c, 2, 75, 56
2, 49003, Note_on_c, 2, 77, 0
2, 49049, Note_on_c, 2, 73, 62
2, 49066, Note_on_c, 2, 75, 0
2, 49112, Note_on_c, 2, 73, 0
2, 49112, Note_on_c, 2, 72, 53
2, 49166, Note_on_c, 2, 73, 40
2, 49220, Note_on_c, 2, 72, 0
2, 49232, Note_on_c, 2, 77, 40
2, 49236, Note_on_c, 2, 73, 0
2, 49287, Note_on_c, 2, 73, 52
2, 49290, Note_on_c, 2, 77, 0
2, 49307, Note_on_c, 2, 73, 0
2, 49349, Note_on_c, 2, 62, 66
2, 49349, Note_on_c, 2, 72, 70
2, 49349, Note_on_c, 2, 68, 72
2, 49390, Control_c, 2, 64, 0
2, 49416, Control_c, 2, 64, 127
2, 49595, Note_on_c, 2, 71, 54
2, 49599, Note_on_c, 2, 72, 0
2, 49607, Control_c, 2, 64, 0
2, 49624, Control_c, 2, 64, 127
2, 49678, Note_on_c, 2, 41, 0
2, 49708, Note_on_c, 2, 41, 60
2, 49761, Note_on_c, 2, 41, 0
2, 49816, Note_on_c, 2, 41, 65
2, 49870, Note_on_c, 2, 41, 0
2, 49928, Note_on_c, 2, 41, 63
2, 49966, Note_on_c, 2, 41, 0
2, 50041, Note_on_c, 2, 42, 100
2, 50070, Note_on_c, 2, 62, 0
2, 50074, Control_c, 2, 64, 0
2, 50082, Note_on_c, 2, 68, 0
2, 50082, Note_on_c, 2, 71, 0
2, 50150, Note_on_c, 2, 72, 45
2, 50150, Note_on_c, 2, 63, 63
2, 50162, Control_c, 2, 64, 127
2, 50262, Note_on_c, 2, 71, 58
2, 50311, Note_on_c, 2, 72, 0
2, 50312, Note_on_c, 2, 72, 57
2, 50316, Note_on_c, 2, 71, 0
2, 50328, Note_on_c, 2, 63, 0
2, 50366, Note_on_c, 2, 63, 66
2, 50366, Note_on_c, 2, 74, 63
2, 50370, Control_c, 2, 64, 0
2, 50378, Note_on_c, 2, 72, 0
2, 50395, Control_c, 2, 64, 127
2, 50416, Note_on_c, 2, 72, 55
2, 50420, Note_on_c, 2, 74, 0
2, 50475, Note_on_c, 2, 71, 45
2, 50478, Note_on_c, 2, 72, 0
2, 50520, Note_on_c, 2, 72, 48
2, 50541, Note_on_c, 2, 63, 0
2, 50542, Note_on_c, 2, 71, 0
2, 50578, Note_on_c, 2, 63, 54
2, 50578, Note_on_c, 2, 75, 54
2, 50600, Note_on_c, 2, 75, 0
2, 50608, Note_on_c, 2, 72, 0
2, 50628, Note_on_c, 2, 74, 55
2, 50654, Note_on_c, 2, 63, 0
2, 50679, Note_on_c, 2, 74, 0
2, 50683, Note_on_c, 2, 43, 60
2, 50683, Note_on_c, 2, 63, 56
2, 50683, Note_on_c, 2, 71, 66
2, 50687, Note_on_c, 2, 42, 0
2, 50699, Control_c, 2, 64, 0
2, 50733, Control_c, 2, 64, 127
2, 50820, Note_on_c, 2, 63, 0
2, 50832, Note_on_c, 2, 71, 0
2, 50883, Note_on_c, 2, 72, 63
2, 50883, Note_on_c, 2, 63, 59
2, 50946, Note_on_c, 2, 43, 0
2, 50987, Note_on_c, 2, 43, 65
2, 51037, Note_on_c, 2, 43, 0
2, 51091, Note_on_c, 2, 43, 72
2, 51133, Note_on_c, 2, 43, 0
2, 51200, Note_on_c, 2, 43, 66
2, 51233, Note_on_c, 2, 43, 0
2, 51312, Note_on_c, 2, 44, 96
2, 51316, Control_c, 2, 64, 0
2, 51388, Control_c, 2, 64, 127
2, 51391, Note_on_c, 2, 63, 0
2, 51400, Note_on_c, 2, 72, 0
2, 51428, Note_on_c, 2, 72, 55
2, 51428, Note_on_c, 2, 63, 62
2, 51479, Note_on_c, 2, 63, 0
2, 51491, Note_on_c, 2, 72, 0
2, 51533, Note_on_c, 2, 63, 59
2, 51533, Note_on_c, 2, 72, 53
2, 51571, Note_on_c, 2, 63, 0
2, 51583, Note_on_c, 2, 72, 0
2, 51646, Note_on_c, 2, 72, 51
2, 51646, Note_on_c, 2, 63, 51
2, 51687, Note_on_c, 2, 44, 0
2, 51704, Note_on_c, 2, 63, 0
2, 51704, Note_on_c, 2, 72, 0
2, 51758, Note_on_c, 2, 72, 53
2, 51759, Note_on_c, 2, 45, 54
2, 51759, Control_c, 2, 64, 0
2, 51759, Note_on_c, 2, 63, 53
2, 51783, Control_c, 2, 64, 127
2, 51833, Note_on_c, 2, 63, 0
2, 51846, Note_on_c, 2, 72, 0
2, 51883, Note_on_c, 2, 63, 36
2, 51883, Note_on_c, 2, 72, 53
2, 51904, Note_on_c, 2, 45, 0
2, 51920, Note_on_c, 2, 72, 0
2, 51941, Note_on_c, 2, 63, 0
2, 52000, Note_on_c, 2, 46, 37
2, 52000, Note_on_c, 2, 63, 43
2, 52000, Note_on_c, 2, 73, 56
2, 52004, Control_c, 2, 64, 0
2, 52041, Control_c, 2, 64, 127
2, 52096, Note_on_c, 2, 73, 0
2, 52174, Note_on_c, 2, 72, 55
2, 52204, Note_on_c, 2, 70, 41
2, 52208, Note_on_c, 2, 72, 0
2, 52216, Note_on_c, 2, 63, 0
2, 52237, Note_on_c, 2, 68, 43
2, 52254, Note_on_c, 2, 70, 0
2, 52262, Control_c, 2, 64, 0
2, 52271, Note_on_c, 2, 49, 39
2, 52271, Note_on_c, 2, 63, 40
2, 52271, Note_on_c, 2, 67, 56
2, 52279, Note_on_c, 2, 68, 0
2, 52292, Control_c, 2, 64, 127
2, 52295, Note_on_c, 2, 46, 0
2, 52312, Note_on_c, 2, 63, 0
2, 52312, Note_on_c, 2, 67, 0
2, 52383, Note_on_c, 2, 79, 52
2, 52412, Note_on_c, 2, 49, 0
2, 52421, Note_on_c, 2, 79, 0
2, 52500, Note_on_c, 2, 80, 53
2, 52504, Note_on_c, 2, 48, 36
2, 52521, Control_c, 2, 64, 0
2, 52579, Control_c, 2, 64, 127
2, 52621, Note_on_c, 2, 72, 56
2, 52625, Note_on_c, 2, 80, 0
2, 52629, Note_on_c, 2, 48, 0
2, 52654, Note_on_c, 2, 72, 0
2, 52746, Note_on_c, 2, 49, 47
2, 52775, Control_c, 2, 64, 0
2, 52804, Note_on_c, 2, 70, 45
2, 52821, Control_c, 2, 64, 127
2, 52862, Note_on_c, 2, 73, 35
2, 52866, Note_on_c, 2, 49, 0
2, 52921, Note_on_c, 2, 77, 42
2, 52929, Note_on_c, 2, 73, 0
2, 52954, Note_on_c, 2, 70, 0
2, 52992, Note_on_c, 2, 68, 45
2, 52992, Note_on_c, 2, 51, 36
2, 52992, Note_on_c, 2, 60, 27
2, 52995, Note_on_c, 2, 77, 0
2, 53008, Control_c, 2, 64, 0
2, 53063, Control_c, 2, 64, 127
2, 53125, Note_on_c, 2, 60, 0
2, 53125, Note_on_c, 2, 51, 0
2, 53258, Note_on_c, 2, 51, 34
2, 53258, Note_on_c, 2, 61, 37
2, 53292, Control_c, 2, 64, 0
2, 53380, Control_c, 2, 64, 127
2, 53396, Note_on_c, 2, 51, 0
2, 53396, Note_on_c, 2, 72, 40
2, 53396, Note_on_c, 2, 67, 40
2, 53404, Note_on_c, 2, 68, 0
2, 53437, Note_on_c, 2, 61, 0
2, 53475, Note_on_c, 2, 70, 40
2, 53479, Note_on_c, 2, 72, 0
2, 53488, Note_on_c, 2, 67, 0
2, 53542, Note_on_c, 2, 68, 41
2, 53542, Note_on_c, 2, 56, 36
2, 53558, Note_on_c, 2, 70, 0
2, 53580, Control_c, 2, 64, 0
2, 53621, Note_on_c, 2, 60, 33
2, 53634, Control_c, 2, 64, 127
2, 53676, Note_on_c, 2, 60, 0
2, 53676, Note_on_c, 2, 63, 31
2, 53725, Note_on_c, 2, 56, 0
2, 53725, Note_on_c, 2, 60, 45
2, 53750, Note_on_c, 2, 63, 0
2, 53775, Note_on_c, 2, 60, 0
2, 53783, Note_on_c, 2, 68, 0
2, 53784, Note_on_c, 2, 56, 39
2, 53838, Note_on_c, 2, 60, 40
2, 53888, Note_on_c, 2, 60, 0
2, 53892, Note_on_c, 2, 72, 49
2, 53892, Note_on_c, 2, 63, 31
2, 53892, Note_on_c, 2, 68, 35
2, 53946, Note_on_c, 2, 56, 0
2, 53950, Note_on_c, 2, 60, 40
2, 53955, Note_on_c, 2, 72, 0
2, 53967, Note_on_c, 2, 68, 0
2, 53975, Note_on_c, 2, 63, 0
2, 53992, Note_on_c, 2, 60, 0
2, 54009, Note_on_c, 2, 72, 46
2, 54009, Note_on_c, 2, 68, 35
2, 54009, Note_on_c, 2, 56, 36
2, 54067, Note_on_c, 2, 72, 0
2, 54067, Note_on_c, 2, 60, 28
2, 54075, Note_on_c, 2, 68, 0
2, 54121, Note_on_c, 2, 60, 0
2, 54130, Note_on_c, 2, 68, 37
2, 54130, Note_on_c, 2, 63, 27
2, 54130, Note_on_c, 2, 72, 51
2, 54180, Note_on_c, 2, 56, 0
2, 54188, Note_on_c, 2, 60, 39
2, 54196, Note_on_c, 2, 72, 0
2, 54197, Note_on_c, 2, 68, 0
2, 54213, Note_on_c, 2, 63, 0
2, 54234, Note_on_c, 2, 60, 0
2, 54267, Note_on_c, 2, 72, 45
2, 54267, Note_on_c, 2, 70, 34
2, 54267, Note_on_c, 2, 77, 45
2, 54267, Note_on_c, 2, 55, 41
2, 54304, Control_c, 2, 64, 0
2, 54346, Note_on_c, 2, 58, 38
2, 54363, Control_c, 2, 64, 127
2, 54380, Note_on_c, 2, 70, 0
2, 54396, Note_on_c, 2, 72, 0
2, 54408, Note_on_c, 2, 77, 0
2, 54413, Note_on_c, 2, 58, 0
2, 54413, Note_on_c, 2, 76, 56
2, 54413, Note_on_c, 2, 72, 39
2, 54413, Note_on_c, 2, 70, 36
2, 54413, Note_on_c, 2, 60, 34
2, 54462, Note_on_c, 2, 55, 0
2, 54467, Note_on_c, 2, 58, 45
2, 54500, Note_on_c, 2, 60, 0
2, 54517, Note_on_c, 2, 58, 0
2, 54517, Note_on_c, 2, 55, 40
2, 54561, Note_on_c, 2, 70, 0
2, 54575, Note_on_c, 2, 58, 36
2, 54576, Note_on_c, 2, 72, 0
2, 54634, Note_on_c, 2, 70, 31
2, 54634, Note_on_c, 2, 72, 52
2, 54634, Note_on_c, 2, 60, 37
2, 54638, Note_on_c, 2, 58, 0
2, 54643, Note_on_c, 2, 76, 0
2, 54688, Note_on_c, 2, 55, 0
2, 54688, Note_on_c, 2, 58, 46
2, 54713, Note_on_c, 2, 70, 0
2, 54713, Note_on_c, 2, 72, 0
2, 54734, Note_on_c, 2, 60, 0
2, 54734, Note_on_c, 2, 58, 0
2, 54742, Note_on_c, 2, 55, 38
2, 54742, Note_on_c, 2, 70, 40
2, 54742, Note_on_c, 2, 72, 49
2, 54805, Note_on_c, 2, 58, 34
2, 54809, Note_on_c, 2, 72, 0
2, 54812, Note_on_c, 2, 70, 0
2, 54863, Note_on_c, 2, 60, 25
2, 54863, Note_on_c, 2, 70, 35
2, 54863, Note_on_c, 2, 72, 39
2, 54872, Note_on_c, 2, 58, 0
2, 54913, Note_on_c, 2, 55, 0
2, 54930, Note_on_c, 2, 72, 0
2, 54930, Note_on_c, 2, 58, 34
2, 54942, Note_on_c, 2, 70, 0
2, 54992, Note_on_c, 2, 58, 0
2, 54996, Note_on_c, 2, 60, 0
2, 55008, Note_on_c, 2, 79, 58
2, 55008, Note_on_c, 2, 53, 32
2, 55008, Note_on_c, 2, 68, 35
2, 55008, Note_on_c, 2, 72, 35
2, 55038, Control_c, 2, 64, 0
2, 55076, Note_on_c, 2, 56, 36
2, 55088, Control_c, 2, 64, 127
2, 55116, Note_on_c, 2, 72, 0
2, 55116, Note_on_c, 2, 68, 0
2, 55122, Note_on_c, 2, 79, 0
2, 55134, Note_on_c, 2, 77, 57
2, 55134, Note_on_c, 2, 72, 40
2, 55134, Note_on_c, 2, 68, 35
2, 55134, Note_on_c, 2, 60, 28
2, 55138, Note_on_c, 2, 56, 0
2, 55188, Note_on_c, 2, 56, 33
2, 55202, Note_on_c, 2, 53, 0
2, 55238, Note_on_c, 2, 60, 0
2, 55238, Note_on_c, 2, 56, 0
2, 55242, Note_on_c, 2, 53, 40
2, 55255, Note_on_c, 2, 68, 0
2, 55259, Note_on_c, 2, 72, 0
2, 55296, Note_on_c, 2, 56, 28
2, 55346, Note_on_c, 2, 77, 0
2, 55346, Note_on_c, 2, 60, 36
2, 55346, Note_on_c, 2, 68, 28
2, 55346, Note_on_c, 2, 72, 51
2, 55359, Note_on_c, 2, 56, 0
2, 55401, Note_on_c, 2, 56, 39
2, 55405, Note_on_c, 2, 53, 0
2, 55422, Note_on_c, 2, 72, 0
2, 55422, Note_on_c, 2, 68, 0
2, 55451, Note_on_c, 2, 60, 0
2, 55451, Note_on_c, 2, 56, 0
2, 55459, Note_on_c, 2, 53, 30
2, 55460, Note_on_c, 2, 72, 46
2, 55464, Note_on_c, 2, 68, 32
2, 55518, Note_on_c, 2, 56, 32
2, 55525, Note_on_c, 2, 68, 0
2, 55530, Note_on_c, 2, 72, 0
2, 55580, Note_on_c, 2, 72, 47
2, 55580, Note_on_c, 2, 68, 32
2, 55584, Note_on_c, 2, 56, 0
2, 55584, Note_on_c, 2, 60, 22
2, 55638, Note_on_c, 2, 53, 0
2, 55646, Note_on_c, 2, 56, 24
2, 55654, Note_on_c, 2, 72, 0
2, 55659, Note_on_c, 2, 68, 0
2, 55701, Note_on_c, 2, 60, 0
2, 55717, Note_on_c, 2, 72, 45
2, 55717, Note_on_c, 2, 51, 34
2, 55718, Note_on_c, 2, 80, 59
2, 55718, Note_on_c, 2, 68, 34
2, 55721, Note_on_c, 2, 56, 0
2, 55751, Control_c, 2, 64, 0
2, 55801, Note_on_c, 2, 54, 26
2, 55810, Control_c, 2, 64, 127
2, 55834, Note_on_c, 2, 68, 0
2, 55838, Note_on_c, 2, 72, 0
2, 55850, Note_on_c, 2, 80, 0
2, 55859, Note_on_c, 2, 54, 0
2, 55863, Note_on_c, 2, 78, 62
2, 55863, Note_on_c, 2, 56, 33
2, 55863, Note_on_c, 2, 68, 36
2, 55863, Note_on_c, 2, 72, 40
2, 55922, Note_on_c, 2, 54, 34
2, 55925, Note_on_c, 2, 51, 0
2, 55972, Note_on_c, 2, 54, 0
2, 55980, Note_on_c, 2, 51, 39
2, 55992, Note_on_c, 2, 56, 0
2, 56034, Note_on_c, 2, 54, 39
2, 56043, Note_on_c, 2, 72, 0
2, 56043, Note_on_c, 2, 68, 0
2, 56084, Note_on_c, 2, 54, 0
2, 56088, Note_on_c, 2, 56, 36
2, 56088, Note_on_c, 2, 68, 40
2, 56088, Note_on_c, 2, 72, 52
2, 56105, Note_on_c, 2, 78, 0
2, 56142, Note_on_c, 2, 54, 38
2, 56147, Note_on_c, 2, 51, 0
2, 56151, Note_on_c, 2, 72, 0
2, 56154, Note_on_c, 2, 68, 0
2, 56192, Note_on_c, 2, 54, 0
2, 56197, Note_on_c, 2, 51, 40
2, 56197, Note_on_c, 2, 72, 54
2, 56201, Note_on_c, 2, 68, 36
2, 56205, Note_on_c, 2, 56, 0
2, 56255, Note_on_c, 2, 54, 36
2, 56264, Note_on_c, 2, 72, 0
2, 56267, Note_on_c, 2, 68, 0
2, 56301, Note_on_c, 2, 54, 0
2, 56305, Note_on_c, 2, 68, 40
2, 56305, Note_on_c, 2, 72, 46
2, 56309, Note_on_c, 2, 56, 34
2, 56355, Note_on_c, 2, 72, 0
2, 56367, Note_on_c, 2, 51, 0
2, 56368, Note_on_c, 2, 54, 37
2, 56384, Note_on_c, 2, 68, 0
2, 56405, Note_on_c, 2, 54, 0
2, 56434, Note_on_c, 2, 49, 36
2, 56434, Note_on_c, 2, 68, 36
2, 56434, Note_on_c, 2, 73, 48
2, 56434, Note_on_c, 2, 78, 47
2, 56455, Note_on_c, 2, 56, 0
2, 56459, Control_c, 2, 64, 0
2, 56501, Note_on_c, 2, 52, 33
2, 56505, Control_c, 2, 64, 127
2, 56525, Note_on_c, 2, 68, 0
2, 56526, Note_on_c, 2, 78, 0
2, 56530, Note_on_c, 2, 73, 0
2, 56551, Note_on_c, 2, 52, 0
2, 56551, Note_on_c, 2, 76, 53
2, 56551, Note_on_c, 2, 73, 45
2, 56551, Note_on_c, 2, 68, 34
2, 56551, Note_on_c, 2, 56, 30
2, 56610, Note_on_c, 2, 52, 28
2, 56614, Note_on_c, 2, 49, 0
2, 56659, Note_on_c, 2, 52, 0
2, 56663, Note_on_c, 2, 49, 44
2, 56671, Note_on_c, 2, 76, 0
2, 56684, Note_on_c, 2, 56, 0
2, 56718, Note_on_c, 2, 73, 0
2, 56718, Note_on_c, 2, 52, 40
2, 56738, Note_on_c, 2, 68, 0
2, 56772, Note_on_c, 2, 52, 0
2, 56772, Note_on_c, 2, 56, 46
2, 56772, Note_on_c, 2, 68, 46
2, 56772, Note_on_c, 2, 76, 59
2, 56822, Note_on_c, 2, 52, 49
2, 56830, Note_on_c, 2, 49, 0
2, 56843, Note_on_c, 2, 76, 0
2, 56843, Note_on_c, 2, 68, 0
2, 56876, Note_on_c, 2, 47, 52
2, 56876, Note_on_c, 2, 68, 40
2, 56876, Note_on_c, 2, 76, 55
2, 56888, Note_on_c, 2, 52, 0
2, 56922, Control_c, 2, 64, 0
2, 56938, Note_on_c, 2, 56, 0
2, 56938, Note_on_c, 2, 52, 47
2, 56955, Note_on_c, 2, 68, 0
2, 56955, Control_c, 2, 64, 127
2, 56997, Note_on_c, 2, 76, 0
2, 56997, Note_on_c, 2, 56, 40
2, 56997, Note_on_c, 2, 68, 44
2, 56997, Note_on_c, 2, 75, 62
2, 57005, Note_on_c, 2, 52, 0
2, 57043, Note_on_c, 2, 47, 0
2, 57068, Note_on_c, 2, 75, 0
2, 57072, Note_on_c, 2, 56, 0
2, 57085, Note_on_c, 2, 68, 0
2, 57130, Note_on_c, 2, 46, 70
2, 57130, Note_on_c, 2, 53, 70
2, 57130, Note_on_c, 2, 68, 70
2, 57130, Note_on_c, 2, 75, 70
2, 57151, Control_c, 2, 64, 0
2, 57189, Control_c, 2, 64, 127
2, 57242, Note_on_c, 2, 68, 0
2, 57247, Note_on_c, 2, 75, 0
2, 57301, Note_on_c, 2, 77, 38
2, 57326, Note_on_c, 2, 75, 42
2, 57338, Note_on_c, 2, 77, 0
2, 57356, Note_on_c, 2, 74, 70
2, 57364, Note_on_c, 2, 75, 0
2, 57372, Note_on_c, 2, 74, 0
2, 57375, Note_on_c, 2, 46, 0
2, 57380, Note_on_c, 2, 53, 0
2, 57472, Note_on_c, 2, 46, 56
2, 57472, Note_on_c, 2, 53, 48
2, 57472, Note_on_c, 2, 62, 54
2, 57472, Note_on_c, 2, 68, 63
2, 57488, Control_c, 2, 64, 0
2, 57519, Note_on_c, 2, 46, 0
2, 57523, Note_on_c, 2, 68, 0
2, 57523, Note_on_c, 2, 62, 0
2, 57549, Note_on_c, 2, 53, 0
2, 57589, Note_on_c, 2, 46, 55
2, 57589, Note_on_c, 2, 53, 47
2, 57589, Note_on_c, 2, 68, 54
2, 57589, Note_on_c, 2, 62, 47
2, 57635, Note_on_c, 2, 53, 0
2, 57636, Note_on_c, 2, 68, 0
2, 57639, Note_on_c, 2, 62, 0
2, 57640, Note_on_c, 2, 46, 0
2, 57711, Note_on_c, 2, 46, 36
2, 57711, Note_on_c, 2, 53, 40
2, 57711, Note_on_c, 2, 62, 45
2, 57711, Note_on_c, 2, 68, 51
2, 57753, Note_on_c, 2, 46, 0
2, 57757, Note_on_c, 2, 68, 0
2, 57761, Note_on_c, 2, 53, 0
2, 57762, Note_on_c, 2, 62, 0
2, 57843, Note_on_c, 2, 68, 45
2, 57843, Note_on_c, 2, 53, 27
2, 57847, Note_on_c, 2, 62, 37
2, 57848, Note_on_c, 2, 46, 28
2, 57889, Control_c, 2, 64, 127
2, 57939, Note_on_c, 2, 62, 0
2, 57955, Note_on_c, 2, 68, 0
2, 57976, Note_on_c, 2, 46, 0
2, 57989, Note_on_c, 2, 53, 0
2, 58286, Note_on_c, 2, 58, 44
2, 58286, Note_on_c, 2, 65, 25
2, 58286, Note_on_c, 2, 74, 42
2, 58286, Note_on_c, 2, 80, 46
2, 58293, Control_c, 2, 64, 0
2, 58366, Note_on_c, 2, 80, 0
2, 58366, Note_on_c, 2, 58, 0
2, 58366, Note_on_c, 2, 65, 0
2, 58366, Note_on_c, 2, 74, 0
2, 58398, Note_on_c, 2, 58, 28
2, 58398, Note_on_c, 2, 65, 28
2, 58398, Note_on_c, 2, 74, 39
2, 58398, Note_on_c, 2, 80, 40
2, 58477, Control_c, 2, 64, 127
2, 58478, Note_on_c, 2, 80, 0
2, 58478, Note_on_c, 2, 58, 0
2, 58478, Note_on_c, 2, 65, 0
2, 58478, Note_on_c, 2, 74, 0
2, 58526, Note_on_c, 2, 80, 38
2, 58526, Note_on_c, 2, 58, 31
2, 58526, Note_on_c, 2, 65, 21
2, 58526, Note_on_c, 2, 74, 32
2, 58606, Note_on_c, 2, 74, 0
2, 58606, Note_on_c, 2, 80, 0
2, 58606, Note_on_c, 2, 58, 0
2, 58606, Note_on_c, 2, 65, 0
2, 58668, Control_c, 2, 64, 0
2, 58681, Note_on_c, 2, 58, 34
2, 58681, Note_on_c, 2, 65, 18
2, 58681, Note_on_c, 2, 74, 28
2, 58681, Note_on_c, 2, 80, 40
2, 58702, Control_c, 2, 64, 127
2, 58710, Note_on_c, 2, 74, 0
2, 58714, Note_on_c, 2, 80, 0
2, 58752, Note_on_c, 2, 82, 57
2, 58764, Note_on_c, 2, 80, 44
2, 58772, Note_on_c, 2, 82, 0
2, 58777, Note_on_c, 2, 80, 0
2, 58777, Note_on_c, 2, 79, 45
2, 58777, Control_c, 2, 64, 0
2, 58797, Note_on_c, 2, 80, 44
2, 58810, Note_on_c, 2, 82, 53
2, 58814, Note_on_c, 2, 79, 0
2, 58831, Note_on_c, 2, 80, 0
2, 58839, Control_c, 2, 64, 127
2, 58843, Control_c, 2, 64, 0
2, 58876, Note_on_c, 2, 84, 45
2, 58881, Note_on_c, 2, 82, 0
2, 58939, Note_on_c, 2, 82, 46
2, 58951, Note_on_c, 2, 84, 0
2, 59002, Control_c, 2, 64, 127
2, 59010, Note_on_c, 2, 80, 36
2, 59022, Note_on_c, 2, 82, 0
2, 59085, Note_on_c, 2, 79, 45
2, 59089, Note_on_c, 2, 80, 0
2, 59131, Note_on_c, 2, 79, 0
2, 59164, Note_on_c, 2, 77, 40
2, 59252, Note_on_c, 2, 75, 37
2, 59256, Note_on_c, 2, 77, 0
2, 59364, Note_on_c, 2, 74, 38
2, 59377, Note_on_c, 2, 75, 0
2, 59485, Note_on_c, 2, 74, 0
2, 59485, Note_on_c, 2, 72, 36
2, 59611, Note_on_c, 2, 65, 0
2, 59622, Note_on_c, 2, 72, 0
2, 59627, Note_on_c, 2, 70, 38
2, 59660, Note_on_c, 2, 58, 0
2, 59702, Note_on_c, 2, 70, 0
2, 60011, Note_on_c, 2, 67, 48
2, 60011, Note_on_c, 2, 70, 59
2, 60011, Note_on_c, 2, 51, 40
2, 60073, Control_c, 2, 64, 127
2, 60177, Note_on_c, 2, 72, 52
2, 60185, Note_on_c, 2, 70, 0
2, 60185, Control_c, 2, 64, 0
2, 60211, Note_on_c, 2, 70, 41
2, 60215, Control_c, 2, 64, 127
2, 60219, Note_on_c, 2, 72, 0
2, 60247, Note_on_c, 2, 67, 0
2, 60248, Note_on_c, 2, 65, 31
2, 60248, Note_on_c, 2, 68, 56
2, 60260, Note_on_c, 2, 70, 0
2, 60315, Note_on_c, 2, 65, 0
2, 60319, Note_on_c, 2, 68, 0
2, 60357, Note_on_c, 2, 67, 59
2, 60357, Note_on_c, 2, 63, 46
2, 60369, Control_c, 2, 64, 0
2, 60393, Control_c, 2, 64, 127
2, 60424, Note_on_c, 2, 63, 0
2, 60424, Note_on_c, 2, 67, 0
2, 60469, Note_on_c, 2, 72, 55
2, 60469, Note_on_c, 2, 68, 49
2, 60502, Note_on_c, 2, 72, 0
2, 60519, Note_on_c, 2, 68, 0
2, 60535, Note_on_c, 2, 51, 0
2, 60589, Note_on_c, 2, 67, 55
2, 60589, Note_on_c, 2, 70, 56
2, 60656, Note_on_c, 2, 67, 0
2, 60661, Note_on_c, 2, 70, 0
2, 60703, Note_on_c, 2, 51, 57
2, 60703, Note_on_c, 2, 67, 52
2, 60703, Note_on_c, 2, 70, 55
2, 60715, Control_c, 2, 64, 0
2, 60761, Note_on_c, 2, 55, 56
2, 60761, Control_c, 2, 64, 127
2, 60782, Note_on_c, 2, 51, 0
2, 60823, Note_on_c, 2, 58, 56
2, 60869, Note_on_c, 2, 70, 0
2, 60873, Note_on_c, 2, 55, 0
2, 60873, Note_on_c, 2, 51, 59
2, 60873, Note_on_c, 2, 72, 55
2, 60890, Note_on_c, 2, 51, 0
2, 60898, Note_on_c, 2, 58, 0
2, 60906, Note_on_c, 2, 67, 0
2, 60906, Note_on_c, 2, 70, 55
2, 60914, Note_on_c, 2, 72, 0
2, 60936, Note_on_c, 2, 65, 52
2, 60936, Note_on_c, 2, 68, 70
2, 60936, Note_on_c, 2, 53, 50
2, 60948, Note_on_c, 2, 70, 0
2, 60957, Control_c, 2, 64, 0
2, 60994, Note_on_c, 2, 56, 56
2, 60999, Control_c, 2, 64, 127
2, 61052, Note_on_c, 2, 62, 54
2, 61056, Note_on_c, 2, 53, 0
2, 61073, Note_on_c, 2, 56, 0
2, 61111, Note_on_c, 2, 53, 57
2, 61127, Note_on_c, 2, 53, 0
2, 61127, Note_on_c, 2, 62, 0
2, 61147, Note_on_c, 2, 65, 0
2, 61165, Note_on_c, 2, 67, 53
2, 61165, Note_on_c, 2, 55, 52
2, 61177, Note_on_c, 2, 68, 0
2, 61202, Control_c, 2, 64, 0
2, 61223, Note_on_c, 2, 58, 50
2, 61240, Control_c, 2, 64, 127
2, 61277, Note_on_c, 2, 55, 0
2, 61277, Note_on_c, 2, 63, 52
2, 61311, Note_on_c, 2, 58, 0
2, 61336, Note_on_c, 2, 63, 0
2, 61336, Note_on_c, 2, 55, 51
2, 61377, Note_on_c, 2, 55, 0
2, 61390, Note_on_c, 2, 60, 49
2, 61390, Note_on_c, 2, 56, 43
2, 61402, Note_on_c, 2, 67, 0
2, 61444, Control_c, 2, 64, 0
2, 61448, Note_on_c, 2, 64, 45
2, 61507, Note_on_c, 2, 65, 45
2, 61544, Note_on_c, 2, 64, 0
2, 61565, Note_on_c, 2, 67, 45
2, 61577, Note_on_c, 2, 65, 0
2, 61623, Note_on_c, 2, 68, 44
2, 61624, Control_c, 2, 64, 127
2, 61631, Note_on_c, 2, 67, 0
2, 61673, Note_on_c, 2, 68, 0
2, 61681, Note_on_c, 2, 69, 40
2, 61744, Note_on_c, 2, 70, 34
2, 61748, Note_on_c, 2, 69, 0
2, 61807, Note_on_c, 2, 70, 0
2, 61807, Note_on_c, 2, 71, 40
2, 61832, Note_on_c, 2, 56, 0
2, 61832, Note_on_c, 2, 60, 0
2, 61877, Note_on_c, 2, 56, 35
2, 61877, Note_on_c, 2, 60, 31
2, 61877, Note_on_c, 2, 74, 55
2, 61903, Control_c, 2, 64, 0
2, 61906, Note_on_c, 2, 71, 0
2, 61923, Note_on_c, 2, 72, 46
2, 61935, Note_on_c, 2, 74, 0
2, 61949, Note_on_c, 2, 72, 0
2, 61949, Note_on_c, 2, 71, 31
2, 61957, Control_c, 2, 64, 127
2, 61977, Note_on_c, 2, 71, 0
2, 61977, Note_on_c, 2, 72, 51
2, 62007, Note_on_c, 2, 70, 63
2, 62015, Note_on_c, 2, 72, 0
2, 62027, Note_on_c, 2, 60, 0
2, 62035, Note_on_c, 2, 68, 54
2, 62047, Note_on_c, 2, 56, 0
2, 62049, Note_on_c, 2, 70, 0
2, 62065, Note_on_c, 2, 67, 41
2, 62069, Note_on_c, 2, 68, 0
2, 62090, Note_on_c, 2, 67, 0
2, 62099, Note_on_c, 2, 65, 56
2, 62111, Note_on_c, 2, 65, 0
2, 62140, Note_on_c, 2, 45, 49
2, 62140, Note_on_c, 2, 55, 45
2, 62140, Note_on_c, 2, 63, 45
2, 62161, Control_c, 2, 64, 0
2, 62199, Note_on_c, 2, 46, 48
2, 62202, Control_c, 2, 64, 127
2, 62215, Note_on_c, 2, 45, 0
2, 62249, Note_on_c, 2, 48, 55
2, 62252, Note_on_c, 2, 46, 0
2, 62290, Note_on_c, 2, 63, 0
2, 62307, Note_on_c, 2, 48, 0
2, 62307, Note_on_c, 2, 46, 46
2, 62311, Note_on_c, 2, 55, 0
2, 62332, Note_on_c, 2, 46, 0
2, 62361, Note_on_c, 2, 46, 51
2, 62361, Note_on_c, 2, 53, 47
2, 62361, Note_on_c, 2, 62, 56
2, 62373, Control_c, 2, 64, 0
2, 62386, Note_on_c, 2, 53, 0
2, 62390, Note_on_c, 2, 58, 68
2, 62403, Control_c, 2, 64, 127
2, 62415, Note_on_c, 2, 58, 0
2, 62419, Note_on_c, 2, 57, 54
2, 62440, Note_on_c, 2, 57, 0
2, 62444, Note_on_c, 2, 62, 0
2, 62444, Note_on_c, 2, 58, 70
2, 62457, Control_c, 2, 64, 0
2, 62465, Note_on_c, 2, 58, 0
2, 62469, Note_on_c, 2, 59, 68
2, 62482, Control_c, 2, 64, 127
2, 62494, Note_on_c, 2, 60, 63
2, 62502, Note_on_c, 2, 59, 0
2, 62519, Note_on_c, 2, 61, 62
2, 62527, Note_on_c, 2, 60, 0
2, 62545, Note_on_c, 2, 61, 0
2, 62545, Note_on_c, 2, 62, 54
2, 62569, Note_on_c, 2, 62, 0
2, 62569, Note_on_c, 2, 63, 70
2, 62590, Note_on_c, 2, 63, 0
2, 62594, Note_on_c, 2, 64, 56
2, 62619, Note_on_c, 2, 65, 55
2, 62623, Note_on_c, 2, 64, 0
2, 62644, Note_on_c, 2, 66, 62
2, 62648, Note_on_c, 2, 65, 0
2, 62665, Note_on_c, 2, 66, 0
2, 62669, Note_on_c, 2, 67, 54
2, 62690, Note_on_c, 2, 67, 0
2, 62694, Note_on_c, 2, 68, 68
2, 62719, Note_on_c, 2, 68, 0
2, 62728, Note_on_c, 2, 69, 53
2, 62739, Note_on_c, 2, 46, 0
2, 62748, Note_on_c, 2, 69, 0
2, 62748, Note_on_c, 2, 70, 66
2, 62765, Note_on_c, 2, 70, 0
2, 62781, Note_on_c, 2, 67, 41
2, 62782, Note_on_c, 2, 39, 71
2, 62782, Note_on_c, 2, 51, 72
2, 62782, Note_on_c, 2, 70, 75
2, 62794, Control_c, 2, 64, 0
2, 62824, Control_c, 2, 64, 127
2, 62886, Note_on_c, 2, 70, 0
2, 62899, Note_on_c, 2, 67, 0
2, 62936, Note_on_c, 2, 72, 66
2, 62961, Note_on_c, 2, 70, 68
2, 62973, Note_on_c, 2, 72, 0
2, 62991, Note_on_c, 2, 68, 48
2, 62998, Note_on_c, 2, 70, 0
2, 63007, Note_on_c, 2, 67, 44
2, 63023, Note_on_c, 2, 68, 0
2, 63039, Note_on_c, 2, 72, 36
2, 63056, Note_on_c, 2, 72, 0
2, 63057, Note_on_c, 2, 70, 59
2, 63065, Note_on_c, 2, 70, 0
2, 63065, Note_on_c, 2, 67, 0
2, 63095, Note_on_c, 2, 75, 52
2, 63119, Note_on_c, 2, 74, 46
2, 63123, Note_on_c, 2, 39, 0
2, 63127, Note_on_c, 2, 75, 0
2, 63136, Note_on_c, 2, 51, 0
2, 63144, Note_on_c, 2, 74, 0
2, 63153, Note_on_c, 2, 77, 35
2, 63174, Note_on_c, 2, 77, 0
2, 63174, Note_on_c, 2, 75, 56
2, 63190, Note_on_c, 2, 75, 0
2, 63207, Note_on_c, 2, 51, 45
2, 63207, Note_on_c, 2, 60, 56
2, 63207, Note_on_c, 2, 80, 65
2, 63215, Control_c, 2, 64, 0
2, 63240, Note_on_c, 2, 80, 0
2, 63241, Note_on_c, 2, 79, 54
2, 63244, Control_c, 2, 64, 127
2, 63261, Note_on_c, 2, 79, 0
2, 63262, Note_on_c, 2, 78, 54
2, 63282, Note_on_c, 2, 79, 65
2, 63291, Note_on_c, 2, 78, 0
2, 63307, Note_on_c, 2, 77, 54
2, 63315, Note_on_c, 2, 79, 0
2, 63336, Note_on_c, 2, 75, 55
2, 63348, Note_on_c, 2, 77, 0
2, 63348, Note_on_c, 2, 51, 0
2, 63357, Note_on_c, 2, 74, 63
2, 63374, Note_on_c, 2, 75, 0
2, 63377, Note_on_c, 2, 72, 70
2, 63378, Note_on_c, 2, 60, 0
2, 63382, Note_on_c, 2, 74, 0
2, 63407, Note_on_c, 2, 70, 100
2, 63407, Note_on_c, 2, 60, 47
2, 63407, Note_on_c, 2, 53, 47
2, 63415, Note_on_c, 2, 72, 0
2, 63419, Control_c, 2, 64, 0
2, 63445, Control_c, 2, 64, 127
2, 63519, Note_on_c, 2, 70, 0
2, 63520, Note_on_c, 2, 69, 72
2, 63573, Note_on_c, 2, 60, 0
2, 63574, Note_on_c, 2, 53, 0
2, 63628, Note_on_c, 2, 62, 48
2, 63628, Note_on_c, 2, 58, 49
2, 63629, Control_c, 2, 64, 0
2, 63653, Control_c, 2, 64, 127
2, 63694, Note_on_c, 2, 62, 0
2, 63695, Note_on_c, 2, 58, 0
2, 63699, Note_on_c, 2, 69, 0
2, 63728, Control_c, 2, 64, 0
2, 63733, Note_on_c, 2, 59, 53
2, 63733, Note_on_c, 2, 62, 45
2, 63733, Note_on_c, 2, 68, 53
2, 63753, Control_c, 2, 64, 127
2, 63762, Note_on_c, 2, 62, 0
2, 63766, Note_on_c, 2, 59, 0
2, 63824, Note_on_c, 2, 68, 0
2, 63840, Note_on_c, 2, 60, 47
2, 63840, Note_on_c, 2, 63, 38
2, 63874, Control_c, 2, 64, 0
2, 63895, Note_on_c, 2, 67, 51
2, 63941, Control_c, 2, 64, 127
2, 63953, Note_on_c, 2, 55, 40
2, 63953, Note_on_c, 2, 75, 40
2, 63975, Note_on_c, 2, 60, 0
2, 64003, Note_on_c, 2, 55, 0
2, 64004, Note_on_c, 2, 67, 0
2, 64004, Note_on_c, 2, 73, 45
2, 64011, Note_on_c, 2, 75, 0
2, 64024, Note_on_c, 2, 63, 0
2, 64057, Note_on_c, 2, 73, 0
2, 64061, Note_on_c, 2, 56, 42
2, 64061, Note_on_c, 2, 63, 36
2, 64061, Note_on_c, 2, 71, 39
2, 64087, Control_c, 2, 64, 0
2, 64120, Note_on_c, 2, 72, 45
2, 64141, Note_on_c, 2, 71, 0
2, 64145, Control_c, 2, 64, 127
2, 64178, Note_on_c, 2, 72, 0
2, 64178, Note_on_c, 2, 74, 43
2, 64182, Note_on_c, 2, 63, 0
2, 64198, Note_on_c, 2, 56, 0
2, 64232, Note_on_c, 2, 74, 0
2, 64240, Note_on_c, 2, 75, 28
2, 64261, Note_on_c, 2, 75, 0
2, 64315, Note_on_c, 2, 46, 28
2, 64315, Note_on_c, 2, 55, 22
2, 64315, Note_on_c, 2, 75, 36
2, 64341, Control_c, 2, 64, 0
2, 64387, Control_c, 2, 64, 127
2, 64441, Note_on_c, 2, 70, 32
2, 64449, Note_on_c, 2, 75, 0
2, 64469, Note_on_c, 2, 55, 0
2, 64474, Note_on_c, 2, 46, 0
2, 64574, Note_on_c, 2, 46, 35
2, 64574, Note_on_c, 2, 56, 28
2, 64599, Control_c, 2, 64, 0
2, 64649, Note_on_c, 2, 70, 0
2, 64653, Note_on_c, 2, 72, 47
2, 64661, Control_c, 2, 64, 127
2, 64691, Note_on_c, 2, 70, 49
2, 64695, Note_on_c, 2, 72, 0
2, 64708, Note_on_c, 2, 70, 0
2, 64724, Note_on_c, 2, 46, 0
2, 64724, Note_on_c, 2, 70, 46
2, 64757, Note_on_c, 2, 56, 0
2, 64761, Note_on_c, 2, 68, 32
2, 64774, Note_on_c, 2, 70, 0
2, 64790, Note_on_c, 2, 68, 0
2, 64791, Note_on_c, 2, 67, 42
2, 64837, Note_on_c, 2, 65, 40
2, 64845, Note_on_c, 2, 67, 0
2, 64891, Note_on_c, 2, 51, 49
2, 64891, Note_on_c, 2, 63, 40
2, 64895, Note_on_c, 2, 65, 0
2, 64924, Control_c, 2, 64, 0
2, 64970, Note_on_c, 2, 55, 45
2, 64991, Control_c, 2, 64, 127
2, 65033, Note_on_c, 2, 55, 0
2, 65033, Note_on_c, 2, 58, 41
2, 65074, Note_on_c, 2, 51, 0
2, 65091, Note_on_c, 2, 55, 40
2, 65116, Note_on_c, 2, 58, 0
2, 65132, Note_on_c, 2, 55, 0
2, 65137, Note_on_c, 2, 63, 0
2, 65141, Note_on_c, 2, 51, 45
2, 65195, Note_on_c, 2, 55, 42
2, 65253, Note_on_c, 2, 55, 0
2, 65254, Note_on_c, 2, 58, 35
2, 65254, Note_on_c, 2, 67, 33
2, 65254, Note_on_c, 2, 70, 42
2, 65303, Note_on_c, 2, 51, 0
2, 65311, Note_on_c, 2, 55, 38
2, 65325, Note_on_c, 2, 67, 0
2, 65332, Note_on_c, 2, 70, 0
2, 65370, Note_on_c, 2, 55, 0
2, 65378, Note_on_c, 2, 51, 37
2, 65378, Note_on_c, 2, 67, 29
2, 65378, Note_on_c, 2, 70, 34
2, 65399, Note_on_c, 2, 58, 0
2, 65435, Note_on_c, 2, 55, 45
2, 65436, Note_on_c, 2, 67, 0
2, 65437, Note_on_c, 2, 70, 0
2, 65461, Note_on_c, 2, 51, 0
2, 65483, Note_on_c, 2, 67, 25
2, 65483, Note_on_c, 2, 51, 5
2, 65483, Note_on_c, 2, 58, 36
2, 65483, Note_on_c, 2, 70, 38
2, 65501, Note_on_c, 2, 55, 0
2, 65512, Note_on_c, 2, 67, 0
2, 65520, Note_on_c, 2, 70, 0
2, 65537, Note_on_c, 2, 51, 0
2, 65541, Note_on_c, 2, 55, 36
2, 65595, Note_on_c, 2, 55, 0
2, 65599, Note_on_c, 2, 58, 0
2, 65600, Note_on_c, 2, 75, 49
2, 65600, Note_on_c, 2, 68, 38
2, 65600, Note_on_c, 2, 51, 46
2, 65632, Control_c, 2, 64, 0
2, 65658, Note_on_c, 2, 53, 41
2, 65695, Control_c, 2, 64, 127
2, 65720, Note_on_c, 2, 74, 55
2, 65720, Note_on_c, 2, 56, 46
2, 65724, Note_on_c, 2, 53, 0
2, 65724, Note_on_c, 2, 75, 0
2, 65750, Note_on_c, 2, 68, 0
2, 65775, Note_on_c, 2, 51, 0
2, 65775, Note_on_c, 2, 53, 45
2, 65833, Note_on_c, 2, 53, 0
2, 65833, Note_on_c, 2, 56, 0
2, 65837, Note_on_c, 2, 51, 39
2, 65891, Note_on_c, 2, 53, 42
2, 65953, Note_on_c, 2, 53, 0
2, 65954, Note_on_c, 2, 56, 40
2, 65954, Note_on_c, 2, 82, 45
2, 66008, Note_on_c, 2, 51, 0
2, 66008, Note_on_c, 2, 80, 44
2, 66008, Note_on_c, 2, 53, 47
2, 66028, Note_on_c, 2, 74, 0
2, 66033, Note_on_c, 2, 80, 0
2, 66033, Note_on_c, 2, 82, 0
2, 66046, Note_on_c, 2, 56, 0
2, 66053, Note_on_c, 2, 53, 0
2, 66066, Note_on_c, 2, 51, 36
2, 66066, Note_on_c, 2, 79, 45
2, 66120, Note_on_c, 2, 79, 0
2, 66125, Note_on_c, 2, 53, 37
2, 66125, Note_on_c, 2, 77, 45
2, 66183, Note_on_c, 2, 56, 46
2, 66183, Note_on_c, 2, 75, 35
2, 66188, Note_on_c, 2, 53, 0
2, 66191, Note_on_c, 2, 77, 0
2, 66237, Note_on_c, 2, 51, 0
2, 66237, Note_on_c, 2, 74, 40
2, 66237, Note_on_c, 2, 53, 58
2, 66241, Note_on_c, 2, 75, 0
2, 66262, Note_on_c, 2, 53, 0
2, 66266, Note_on_c, 2, 56, 0
2, 66291, Note_on_c, 2, 51, 40
2, 66291, Note_on_c, 2, 77, 56
2, 66292, Note_on_c, 2, 74, 0
2, 66312, Note_on_c, 2, 77, 0
2, 66312, Note_on_c, 2, 75, 59
2, 66316, Control_c, 2, 64, 0
2, 66325, Note_on_c, 2, 75, 0
2, 66325, Note_on_c, 2, 77, 55
2, 66341, Note_on_c, 2, 75, 54
2, 66345, Control_c, 2, 64, 127
2, 66349, Note_on_c, 2, 77, 0
2, 66354, Note_on_c, 2, 55, 47
2, 66379, Note_on_c, 2, 51, 0
2, 66408, Note_on_c, 2, 55, 0
2, 66412, Note_on_c, 2, 75, 0
2, 66413, Note_on_c, 2, 58, 42
2, 66466, Note_on_c, 2, 55, 40
2, 66467, Note_on_c, 2, 74, 42
2, 66483, Note_on_c, 2, 58, 0
2, 66491, Note_on_c, 2, 72, 40
2, 66503, Note_on_c, 2, 74, 0
2, 66516, Note_on_c, 2, 55, 0
2, 66520, Note_on_c, 2, 51, 35
2, 66520, Note_on_c, 2, 70, 63
2, 66528, Note_on_c, 2, 72, 0
2, 66549, Control_c, 2, 64, 0
2, 66575, Note_on_c, 2, 55, 32
2, 66579, Control_c, 2, 64, 127
2, 66600, Note_on_c, 2, 51, 0
2, 66604, Note_on_c, 2, 70, 0
2, 66637, Note_on_c, 2, 55, 0
2, 66638, Note_on_c, 2, 58, 38
2, 66638, Note_on_c, 2, 67, 44
2, 66638, Note_on_c, 2, 70, 45
2, 66696, Note_on_c, 2, 55, 40
2, 66708, Note_on_c, 2, 67, 0
2, 66712, Note_on_c, 2, 70, 0
2, 66717, Note_on_c, 2, 58, 0
2, 66754, Note_on_c, 2, 55, 0
2, 66759, Note_on_c, 2, 67, 38
2, 66759, Note_on_c, 2, 70, 35
2, 66759, Note_on_c, 2, 51, 39
2, 66808, Note_on_c, 2, 55, 41
2, 66817, Note_on_c, 2, 67, 0
2, 66821, Note_on_c, 2, 70, 0
2, 66825, Note_on_c, 2, 51, 0
2, 66867, Note_on_c, 2, 70, 40
2, 66867, Note_on_c, 2, 67, 39
2, 66867, Note_on_c, 2, 58, 38
2, 66870, Note_on_c, 2, 55, 0
2, 66883, Note_on_c, 2, 51, 5
2, 66900, Note_on_c, 2, 51, 0
2, 66900, Note_on_c, 2, 67, 0
2, 66901, Note_on_c, 2, 70, 0
2, 66925, Note_on_c, 2, 55, 32
2, 66954, Note_on_c, 2, 58, 0
2, 66979, Note_on_c, 2, 55, 0
2, 66983, Note_on_c, 2, 75, 46
2, 66983, Note_on_c, 2, 68, 39
2, 66983, Note_on_c, 2, 51, 37
2, 67016, Control_c, 2, 64, 0
2, 67046, Note_on_c, 2, 53, 46
2, 67070, Control_c, 2, 64, 127
2, 67079, Note_on_c, 2, 74, 59
2, 67083, Note_on_c, 2, 75, 0
2, 67087, Note_on_c, 2, 68, 0
2, 67096, Note_on_c, 2, 74, 0
2, 67112, Note_on_c, 2, 53, 0
2, 67116, Note_on_c, 2, 56, 41
2, 67116, Note_on_c, 2, 84, 65
2, 67175, Note_on_c, 2, 51, 0
2, 67175, Note_on_c, 2, 53, 40
2, 67217, Note_on_c, 2, 56, 0
2, 67225, Note_on_c, 2, 53, 0
2, 67233, Note_on_c, 2, 51, 44
2, 67291, Note_on_c, 2, 53, 36
2, 67312, Note_on_c, 2, 84, 0
2, 67345, Note_on_c, 2, 53, 0
2, 67354, Note_on_c, 2, 56, 36
2, 67354, Note_on_c, 2, 82, 40
2, 67375, Note_on_c, 2, 80, 45
2, 67383, Note_on_c, 2, 82, 0
2, 67396, Note_on_c, 2, 51, 0
2, 67404, Note_on_c, 2, 80, 0
2, 67404, Note_on_c, 2, 53, 35
2, 67404, Note_on_c, 2, 84, 54
2, 67437, Note_on_c, 2, 56, 0
2, 67437, Note_on_c, 2, 80, 50
2, 67445, Note_on_c, 2, 84, 0
2, 67446, Note_on_c, 2, 53, 0
2, 67463, Note_on_c, 2, 51, 36
2, 67463, Note_on_c, 2, 79, 53
2, 67470, Note_on_c, 2, 80, 0
2, 67483, Note_on_c, 2, 77, 51
2, 67491, Note_on_c, 2, 79, 0
2, 67504, Note_on_c, 2, 77, 0
2, 67513, Note_on_c, 2, 53, 46
2, 67513, Note_on_c, 2, 80, 43
2, 67533, Note_on_c, 2, 80, 0
2, 67533, Note_on_c, 2, 77, 47
2, 67554, Note_on_c, 2, 77, 0
2, 67555, Note_on_c, 2, 53, 0
2, 67567, Note_on_c, 2, 56, 35
2, 67567, Note_on_c, 2, 75, 40
2, 67595, Note_on_c, 2, 75, 0
2, 67596, Note_on_c, 2, 74, 40
2, 67613, Note_on_c, 2, 56, 0
2, 67616, Note_on_c, 2, 74, 0
2, 67616, Note_on_c, 2, 53, 35
2, 67616, Note_on_c, 2, 77, 48
2, 67646, Note_on_c, 2, 74, 53
2, 67647, Note_on_c, 2, 51, 0
2, 67654, Note_on_c, 2, 77, 0
2, 67675, Note_on_c, 2, 75, 56
2, 67675, Note_on_c, 2, 51, 46
2, 67675, Note_on_c, 2, 55, 46
2, 67676, Note_on_c, 2, 53, 0
2, 67683, Note_on_c, 2, 74, 0
2, 67699, Note_on_c, 2, 75, 0
2, 67709, Control_c, 2, 64, 0
2, 67725, Note_on_c, 2, 77, 55
2, 67741, Note_on_c, 2, 75, 50
2, 67749, Note_on_c, 2, 77, 0
2, 67758, Note_on_c, 2, 75, 0
2, 67763, Note_on_c, 2, 74, 57
2, 67783, Note_on_c, 2, 75, 55
2, 67796, Control_c, 2, 64, 127
2, 67808, Note_on_c, 2, 77, 52
2, 67816, Note_on_c, 2, 74, 0
2, 67817, Note_on_c, 2, 75, 0
2, 67837, Note_on_c, 2, 78, 54
2, 67845, Note_on_c, 2, 77, 0
2, 67862, Note_on_c, 2, 79, 56
2, 67867, Note_on_c, 2, 78, 0
2, 67887, Note_on_c, 2, 79, 0
2, 67896, Note_on_c, 2, 70, 63
2, 67903, Note_on_c, 2, 51, 0
2, 67908, Note_on_c, 2, 55, 0
2, 67917, Note_on_c, 2, 70, 0
2, 68004, Note_on_c, 2, 70, 55
2, 68004, Note_on_c, 2, 67, 54
2, 68004, Note_on_c, 2, 58, 45
2, 68004, Note_on_c, 2, 55, 47
2, 68013, Control_c, 2, 64, 0
2, 68046, Note_on_c, 2, 58, 0
2, 68046, Control_c, 2, 64, 127
2, 68109, Note_on_c, 2, 56, 55
2, 68109, Note_on_c, 2, 65, 47
2, 68109, Note_on_c, 2, 68, 54
2, 68112, Note_on_c, 2, 67, 0
2, 68117, Note_on_c, 2, 55, 0
2, 68121, Control_c, 2, 64, 0
2, 68125, Note_on_c, 2, 70, 0
2, 68142, Control_c, 2, 64, 127
2, 68175, Note_on_c, 2, 65, 0
2, 68217, Note_on_c, 2, 63, 63
2, 68217, Note_on_c, 2, 57, 56
2, 68217, Note_on_c, 2, 67, 55
2, 68220, Note_on_c, 2, 56, 0
2, 68225, Note_on_c, 2, 68, 0
2, 68229, Control_c, 2, 64, 0
2, 68258, Control_c, 2, 64, 127
2, 68296, Note_on_c, 2, 67, 0
2, 68296, Note_on_c, 2, 63, 0
2, 68313, Note_on_c, 2, 57, 0
2, 68325, Note_on_c, 2, 63, 56
2, 68325, Note_on_c, 2, 70, 59
2, 68325, Note_on_c, 2, 58, 51
2, 68334, Control_c, 2, 64, 0
2, 68367, Control_c, 2, 64, 127
2, 68369, Note_on_c, 2, 63, 0
2, 68379, Note_on_c, 2, 69, 52
2, 68413, Note_on_c, 2, 69, 0
2, 68417, Note_on_c, 2, 70, 0
2, 68438, Note_on_c, 2, 70, 65
2, 68488, Note_on_c, 2, 70, 0
2, 68488, Note_on_c, 2, 67, 56
2, 68542, Note_on_c, 2, 67, 0
2, 68546, Note_on_c, 2, 62, 66
2, 68546, Note_on_c, 2, 65, 70
2, 68567, Control_c, 2, 64, 0
2, 68596, Note_on_c, 2, 59, 56
2, 68609, Note_on_c, 2, 58, 0
2, 68650, Note_on_c, 2, 59, 0
2, 68650, Note_on_c, 2, 60, 66
2, 68650, Control_c, 2, 64, 127
2, 68705, Note_on_c, 2, 58, 66
2, 68713, Note_on_c, 2, 60, 0
2, 68721, Note_on_c, 2, 58, 0
2, 68746, Control_c, 2, 64, 0
2, 68759, Note_on_c, 2, 58, 72
2, 68771, Control_c, 2, 64, 127
2, 68813, Note_on_c, 2, 56, 63
2, 68821, Note_on_c, 2, 58, 0
2, 68854, Note_on_c, 2, 56, 0
2, 68867, Note_on_c, 2, 55, 53
2, 68883, Note_on_c, 2, 62, 0
2, 68891, Note_on_c, 2, 65, 0
2, 68913, Note_on_c, 2, 55, 0
2, 68921, Note_on_c, 2, 53, 48
2, 68963, Note_on_c, 2, 53, 0
2, 68967, Note_on_c, 2, 70, 59
2, 68984, Note_on_c, 2, 51, 68
2, 68984, Note_on_c, 2, 82, 68
2, 69000, Control_c, 2, 64, 0
2, 69088, Control_c, 2, 64, 127
2, 69092, Note_on_c, 2, 55, 55
2, 69102, Note_on_c, 2, 51, 0
2, 69159, Note_on_c, 2, 70, 0
2, 69204, Note_on_c, 2, 58, 56
2, 69209, Note_on_c, 2, 55, 0
2, 69305, Note_on_c, 2, 63, 40
2, 69305, Note_on_c, 2, 80, 48
2, 69313, Note_on_c, 2, 58, 0
2, 69317, Note_on_c, 2, 82, 0
2, 69321, Note_on_c, 2, 63, 0
2, 69334, Note_on_c, 2, 80, 0
2, 69338, Note_on_c, 2, 79, 36
2, 69359, Note_on_c, 2, 77, 59
2, 69367, Note_on_c, 2, 79, 0
2, 69384, Note_on_c, 2, 75, 70
2, 69388, Note_on_c, 2, 77, 0
2, 69409, Note_on_c, 2, 75, 0
2, 69409, Control_c, 2, 64, 0
2, 69413, Note_on_c, 2, 74, 56
2, 69413, Note_on_c, 2, 68, 54
2, 69413, Note_on_c, 2, 65, 57
2, 69433, Control_c, 2, 64, 127
2, 69450, Note_on_c, 2, 65, 0
2, 69463, Note_on_c, 2, 68, 0
2, 69500, Note_on_c, 2, 74, 0
2, 69523, Note_on_c, 2, 63, 45
2, 69523, Note_on_c, 2, 67, 47
2, 69523, Note_on_c, 2, 75, 50
2, 69548, Note_on_c, 2, 67, 0
2, 69553, Note_on_c, 2, 63, 0
2, 69575, Note_on_c, 2, 75, 0
2, 69621, Note_on_c, 2, 62, 48
2, 69621, Note_on_c, 2, 77, 51
2, 69621, Note_on_c, 2, 65, 41
2, 69621, Note_on_c, 2, 74, 51
2, 69625, Control_c, 2, 64, 0
2, 69650, Control_c, 2, 64, 127
2, 69655, Note_on_c, 2, 62, 0
2, 69657, Note_on_c, 2, 77, 0
2, 69671, Note_on_c, 2, 65, 0
2, 69684, Note_on_c, 2, 74, 0
2, 69730, Control_c, 2, 64, 0
2, 69738, Note_on_c, 2, 63, 53
2, 69738, Note_on_c, 2, 67, 44
2, 69738, Note_on_c, 2, 80, 51
2, 69755, Control_c, 2, 64, 127
2, 69759, Note_on_c, 2, 79, 52
2, 69767, Note_on_c, 2, 67, 0
2, 69776, Note_on_c, 2, 80, 0
2, 69784, Note_on_c, 2, 63, 0
2, 69788, Note_on_c, 2, 79, 0
2, 69792, Note_on_c, 2, 77, 51
2, 69813, Note_on_c, 2, 79, 41
2, 69817, Note_on_c, 2, 77, 0
2, 69843, Control_c, 2, 64, 0
2, 69846, Note_on_c, 2, 79, 0
2, 69847, Note_on_c, 2, 77, 70
2, 69847, Note_on_c, 2, 80, 57
2, 69847, Note_on_c, 2, 62, 53
2, 69847, Note_on_c, 2, 65, 47
2, 69871, Control_c, 2, 64, 127
2, 69918, Note_on_c, 2, 77, 0
2, 69942, Note_on_c, 2, 80, 0
2, 69954, Note_on_c, 2, 70, 66
2, 69984, Note_on_c, 2, 70, 0
2, 70059, Note_on_c, 2, 65, 0
2, 70063, Note_on_c, 2, 70, 60
2, 70067, Note_on_c, 2, 62, 0
2, 70084, Note_on_c, 2, 70, 0
2, 70175, Note_on_c, 2, 70, 56
2, 70201, Note_on_c, 2, 70, 0
2, 70284, Note_on_c, 2, 80, 83
2, 70393, Note_on_c, 2, 58, 57
2, 70434, Control_c, 2, 64, 0
2, 70496, Note_on_c, 2, 62, 57
2, 70597, Note_on_c, 2, 65, 55
2, 70601, Note_on_c, 2, 82, 49
2, 70605, Note_on_c, 2, 80, 0
2, 70613, Note_on_c, 2, 58, 0
2, 70613, Note_on_c, 2, 62, 0
2, 70613, Control_c, 2, 64, 127
2, 70630, Note_on_c, 2, 65, 0
2, 70630, Note_on_c, 2, 80, 44
2, 70634, Note_on_c, 2, 82, 0
2, 70647, Note_on_c, 2, 79, 39
2, 70676, Note_on_c, 2, 79, 0
2, 70676, Note_on_c, 2, 77, 52
2, 70684, Note_on_c, 2, 80, 0
2, 70705, Note_on_c, 2, 77, 0
2, 70705, Note_on_c, 2, 75, 63
2, 70705, Note_on_c, 2, 67, 53
2, 70709, Control_c, 2, 64, 0
2, 70734, Control_c, 2, 64, 127
2, 70747, Note_on_c, 2, 67, 0
2, 70775, Note_on_c, 2, 75, 0
2, 70805, Note_on_c, 2, 70, 55
2, 70805, Note_on_c, 2, 68, 57
2, 70805, Note_on_c, 2, 77, 60
2, 70807, Control_c, 2, 64, 0
2, 70830, Control_c, 2, 64, 127
2, 70846, Note_on_c, 2, 68, 0
2, 70851, Note_on_c, 2, 70, 0
2, 70880, Note_on_c, 2, 77, 0
2, 70913, Control_c, 2, 64, 0
2, 70918, Note_on_c, 2, 79, 54
2, 70918, Note_on_c, 2, 75, 48
2, 70918, Note_on_c, 2, 70, 40
2, 70918, Note_on_c, 2, 67, 49
2, 70938, Control_c, 2, 64, 127
2, 70942, Note_on_c, 2, 67, 0
2, 70942, Note_on_c, 2, 70, 0
2, 70947, Note_on_c, 2, 79, 0
2, 70980, Note_on_c, 2, 75, 0
2, 71030, Control_c, 2, 64, 0
2, 71034, Note_on_c, 2, 65, 45
2, 71034, Note_on_c, 2, 68, 40
2, 71034, Note_on_c, 2, 82, 52
2, 71051, Note_on_c, 2, 80, 65
2, 71055, Control_c, 2, 64, 127
2, 71063, Note_on_c, 2, 82, 0
2, 71084, Note_on_c, 2, 80, 0
2, 71085, Note_on_c, 2, 65, 0
2, 71088, Note_on_c, 2, 68, 0
2, 71088, Note_on_c, 2, 79, 69
2, 71109, Note_on_c, 2, 80, 69
2, 71113, Note_on_c, 2, 79, 0
2, 71134, Control_c, 2, 64, 0
2, 71143, Note_on_c, 2, 82, 66
2, 71143, Note_on_c, 2, 79, 65
2, 71143, Note_on_c, 2, 67, 48
2, 71143, Note_on_c, 2, 63, 53
2, 71147, Note_on_c, 2, 80, 0
2, 71159, Control_c, 2, 64, 127
2, 71160, Note_on_c, 2, 67, 0
2, 71167, Note_on_c, 2, 63, 0
2, 71255, Note_on_c, 2, 51, 70
2, 71255, Note_on_c, 2, 39, 70
2, 71301, Note_on_c, 2, 39, 0
2, 71302, Note_on_c, 2, 51, 0
2, 71368, Note_on_c, 2, 39, 70
2, 71368, Note_on_c, 2, 51, 70
2, 71418, Note_on_c, 2, 51, 0
2, 71427, Note_on_c, 2, 39, 0
2, 71452, Note_on_c, 2, 82, 0
2, 71459, Note_on_c, 2, 79, 0
2, 71488, Note_on_c, 2, 39, 70
2, 71488, Note_on_c, 2, 51, 70
2, 71583, Note_on_c, 2, 39, 0
2, 71593, Note_on_c, 2, 51, 0
2, 71617, Note_on_c, 2, 73, 88
2, 71735, Note_on_c, 2, 55, 55
2, 71735, Note_on_c, 2, 63, 53
2, 71759, Control_c, 2, 64, 0
2, 71780, Control_c, 2, 64, 127
2, 71826, Note_on_c, 2, 63, 0
2, 71827, Note_on_c, 2, 55, 0
2, 71859, Note_on_c, 2, 63, 53
2, 71859, Note_on_c, 2, 55, 56
2, 71880, Note_on_c, 2, 73, 0
2, 71905, Note_on_c, 2, 75, 50
2, 71917, Note_on_c, 2, 73, 70
2, 71926, Note_on_c, 2, 55, 0
2, 71926, Note_on_c, 2, 63, 0
2, 71934, Note_on_c, 2, 75, 0
2, 71943, Note_on_c, 2, 73, 0
2, 71943, Note_on_c, 2, 72, 53
2, 71967, Note_on_c, 2, 73, 55
2, 71977, Note_on_c, 2, 75, 51
2, 71977, Note_on_c, 2, 55, 47
2, 71977, Note_on_c, 2, 63, 40
2, 71984, Note_on_c, 2, 72, 0
2, 71993, Note_on_c, 2, 73, 0
2, 72035, Note_on_c, 2, 77, 64
2, 72042, Note_on_c, 2, 75, 0
2, 72056, Note_on_c, 2, 55, 0
2, 72057, Note_on_c, 2, 63, 0
2, 72097, Note_on_c, 2, 55, 45
2, 72097, Note_on_c, 2, 63, 37
2, 72097, Note_on_c, 2, 75, 68
2, 72105, Note_on_c, 2, 77, 0
2, 72159, Note_on_c, 2, 73, 60
2, 72171, Note_on_c, 2, 63, 0
2, 72172, Note_on_c, 2, 75, 0
2, 72172, Note_on_c, 2, 55, 0
2, 72219, Note_on_c, 2, 55, 49
2, 72219, Note_on_c, 2, 63, 38
2, 72219, Note_on_c, 2, 72, 53
2, 72222, Note_on_c, 2, 73, 0
2, 72268, Note_on_c, 2, 72, 0
2, 72276, Note_on_c, 2, 71, 55
2, 72297, Note_on_c, 2, 71, 0
2, 72339, Note_on_c, 2, 71, 68
2, 72401, Note_on_c, 2, 63, 0
2, 72402, Note_on_c, 2, 55, 0
2, 72451, Note_on_c, 2, 63, 41
2, 72451, Note_on_c, 2, 55, 46
2, 72506, Note_on_c, 2, 55, 0
2, 72506, Note_on_c, 2, 63, 0
2, 72572, Note_on_c, 2, 63, 45
2, 72572, Note_on_c, 2, 56, 55
2, 72597, Control_c, 2, 64, 0
2, 72627, Control_c, 2, 64, 127
2, 72635, Note_on_c, 2, 72, 59
2, 72668, Note_on_c, 2, 63, 0
2, 72702, Note_on_c, 2, 71, 0
2, 72702, Note_on_c, 2, 72, 0
2, 72702, Note_on_c, 2, 63, 52
2, 72702, Note_on_c, 2, 75, 52
2, 72759, Note_on_c, 2, 74, 52
2, 72776, Note_on_c, 2, 63, 0
2, 72780, Note_on_c, 2, 56, 0
2, 72780, Note_on_c, 2, 75, 0
2, 72822, Note_on_c, 2, 63, 32
2, 72823, Note_on_c, 2, 56, 45
2, 72823, Note_on_c, 2, 77, 54
2, 72839, Note_on_c, 2, 74, 0
2, 72880, Note_on_c, 2, 56, 0
2, 72889, Note_on_c, 2, 77, 0
2, 72889, Note_on_c, 2, 75, 45
2, 72914, Note_on_c, 2, 63, 0
2, 72959, Note_on_c, 2, 57, 46
2, 72959, Note_on_c, 2, 63, 42
2, 72959, Note_on_c, 2, 74, 44
2, 72989, Note_on_c, 2, 75, 0
2, 73026, Note_on_c, 2, 74, 0
2, 73027, Note_on_c, 2, 72, 51
2, 73043, Note_on_c, 2, 72, 0
2, 73051, Note_on_c, 2, 57, 0
2, 73055, Note_on_c, 2, 63, 0
2, 73110, Note_on_c, 2, 70, 53
2, 73110, Note_on_c, 2, 63, 52
2, 73110, Note_on_c, 2, 58, 53
2, 73131, Control_c, 2, 64, 0
2, 73155, Note_on_c, 2, 70, 0
2, 73155, Note_on_c, 2, 71, 46
2, 73185, Control_c, 2, 64, 127
2, 73201, Note_on_c, 2, 72, 42
2, 73209, Note_on_c, 2, 63, 0
2, 73247, Note_on_c, 2, 73, 44
2, 73247, Note_on_c, 2, 63, 32
2, 73251, Note_on_c, 2, 72, 0
2, 73255, Note_on_c, 2, 71, 0
2, 73268, Note_on_c, 2, 63, 0
2, 73276, Note_on_c, 2, 58, 0
2, 73293, Note_on_c, 2, 74, 50
2, 73297, Note_on_c, 2, 73, 0
2, 73343, Note_on_c, 2, 74, 0
2, 73343, Note_on_c, 2, 75, 45
2, 73364, Note_on_c, 2, 75, 0
2, 73397, Note_on_c, 2, 46, 46
2, 73397, Note_on_c, 2, 55, 40
2, 73397, Note_on_c, 2, 75, 40
2, 73422, Control_c, 2, 64, 0
2, 73459, Note_on_c, 2, 63, 53
2, 73485, Note_on_c, 2, 75, 0
2, 73489, Control_c, 2, 64, 127
2, 73518, Note_on_c, 2, 55, 0
2, 73576, Note_on_c, 2, 55, 55
2, 73588, Note_on_c, 2, 46, 0
2, 73618, Note_on_c, 2, 55, 0
2, 73734, Note_on_c, 2, 63, 0
2, 73739, Note_on_c, 2, 46, 39
2, 73739, Note_on_c, 2, 56, 39
2, 73739, Note_on_c, 2, 62, 40
2, 73739, Note_on_c, 2, 67, 48
2, 73743, Control_c, 2, 64, 0
2, 73819, Control_c, 2, 64, 127
2, 73831, Note_on_c, 2, 65, 40
2, 73839, Note_on_c, 2, 62, 0
2, 73847, Note_on_c, 2, 67, 0
2, 73868, Note_on_c, 2, 56, 0
2, 73909, Note_on_c, 2, 65, 0
2, 73910, Note_on_c, 2, 63, 37
2, 73914, Note_on_c, 2, 56, 27
2, 73960, Note_on_c, 2, 46, 0
2, 73993, Note_on_c, 2, 63, 0
2, 73993, Note_on_c, 2, 65, 40
2, 74010, Note_on_c, 2, 56, 0
2, 74073, Note_on_c, 2, 63, 39
2, 74077, Note_on_c, 2, 65, 0
2, 74156, Note_on_c, 2, 51, 40
2, 74197, Control_c, 2, 64, 0
2, 74223, Note_on_c, 2, 55, 41
2, 74252, Note_on_c, 2, 51, 0
2, 74265, Control_c, 2, 64, 127
2, 74285, Note_on_c, 2, 58, 36
2, 74297, Note_on_c, 2, 55, 0
2, 74348, Note_on_c, 2, 56, 49
2, 74356, Note_on_c, 2, 58, 0
2, 74372, Note_on_c, 2, 63, 0
2, 74434, Note_on_c, 2, 58, 49
2, 74443, Note_on_c, 2, 56, 0
2, 74513, Note_on_c, 2, 58, 0
2, 74515, Note_on_c, 2, 70, 55
2, 74515, Note_on_c, 2, 63, 41
2, 74515, Note_on_c, 2, 55, 46
2, 74547, Control_c, 2, 64, 0
2, 74577, Note_on_c, 2, 58, 41
2, 74581, Control_c, 2, 64, 127
2, 74589, Note_on_c, 2, 70, 0
2, 74602, Note_on_c, 2, 63, 0
2, 74627, Note_on_c, 2, 55, 0
2, 74631, Note_on_c, 2, 58, 0
2, 74631, Note_on_c, 2, 53, 53
2, 74631, Note_on_c, 2, 65, 49
2, 74631, Note_on_c, 2, 70, 53
2, 74681, Note_on_c, 2, 53, 0
2, 74685, Note_on_c, 2, 65, 0
2, 74689, Note_on_c, 2, 58, 37
2, 74693, Note_on_c, 2, 70, 0
2, 74739, Note_on_c, 2, 51, 45
2, 74739, Note_on_c, 2, 67, 32
2, 74739, Note_on_c, 2, 70, 36
2, 74748, Note_on_c, 2, 58, 0
2, 74773, Control_c, 2, 64, 0
2, 74797, Note_on_c, 2, 67, 0
2, 74798, Note_on_c, 2, 58, 40
2, 74798, Control_c, 2, 64, 127
2, 74801, Note_on_c, 2, 51, 0
2, 74810, Note_on_c, 2, 70, 0
2, 74835, Note_on_c, 2, 58, 0
2, 74856, Note_on_c, 2, 50, 47
2, 74856, Note_on_c, 2, 68, 46
2, 74857, Note_on_c, 2, 70, 45
2, 74898, Control_c, 2, 64, 0
2, 74919, Note_on_c, 2, 53, 41
2, 74947, Control_c, 2, 64, 127
2, 74977, Note_on_c, 2, 56, 38
2, 74985, Note_on_c, 2, 50, 0
2, 74989, Note_on_c, 2, 53, 0
2, 75001, Note_on_c, 2, 68, 0
2, 75002, Note_on_c, 2, 70, 0
2, 75006, Note_on_c, 2, 72, 45
2, 75031, Note_on_c, 2, 55, 37
2, 75031, Note_on_c, 2, 70, 51
2, 75040, Note_on_c, 2, 72, 0
2, 75040, Note_on_c, 2, 56, 0
2, 75056, Note_on_c, 2, 69, 46
2, 75064, Note_on_c, 2, 70, 0
2, 75064, Control_c, 2, 64, 0
2, 75090, Note_on_c, 2, 53, 36
2, 75090, Note_on_c, 2, 70, 45
2, 75094, Note_on_c, 2, 55, 0
2, 75102, Note_on_c, 2, 69, 0
2, 75106, Control_c, 2, 64, 127
2, 75157, Note_on_c, 2, 51, 37
2, 75168, Note_on_c, 2, 53, 0
2, 75168, Note_on_c, 2, 70, 0
2, 75219, Note_on_c, 2, 50, 51
2, 75219, Note_on_c, 2, 62, 42
2, 75219, Note_on_c, 2, 70, 46
2, 75239, Note_on_c, 2, 51, 0
2, 75244, Control_c, 2, 64, 0
2, 75264, Note_on_c, 2, 50, 0
2, 75277, Control_c, 2, 64, 127
2, 75277, Note_on_c, 2, 48, 36
2, 75285, Note_on_c, 2, 62, 0
2, 75297, Note_on_c, 2, 48, 0
2, 75319, Note_on_c, 2, 70, 0
2, 75331, Note_on_c, 2, 63, 50
2, 75331, Note_on_c, 2, 72, 56
2, 75331, Note_on_c, 2, 46, 40
2, 75361, Control_c, 2, 64, 0
2, 75377, Note_on_c, 2, 46, 0
2, 75390, Note_on_c, 2, 48, 47
2, 75394, Control_c, 2, 64, 127
2, 75406, Note_on_c, 2, 63, 0
2, 75411, Note_on_c, 2, 48, 0
2, 75419, Note_on_c, 2, 72, 0
2, 75444, Note_on_c, 2, 44, 66
2, 75444, Note_on_c, 2, 74, 59
2, 75444, Note_on_c, 2, 65, 42
2, 75473, Control_c, 2, 64, 0
2, 75503, Control_c, 2, 64, 127
2, 75503, Note_on_c, 2, 46, 36
2, 75506, Note_on_c, 2, 65, 0
2, 75510, Note_on_c, 2, 74, 0
2, 75515, Note_on_c, 2, 44, 0
2, 75527, Note_on_c, 2, 46, 0
2, 75569, Note_on_c, 2, 43, 67
2, 75569, Note_on_c, 2, 67, 36
2, 75569, Note_on_c, 2, 75, 45
2, 75602, Control_c, 2, 64, 0
2, 75631, Note_on_c, 2, 46, 57
2, 75694, Note_on_c, 2, 51, 55
2, 75698, Control_c, 2, 64, 127
2, 75702, Note_on_c, 2, 43, 0
2, 75723, Note_on_c, 2, 77, 43
2, 75735, Note_on_c, 2, 75, 0
2, 75744, Note_on_c, 2, 46, 0
2, 75748, Note_on_c, 2, 79, 40
2, 75748, Note_on_c, 2, 43, 37
2, 75752, Note_on_c, 2, 51, 0
2, 75781, Note_on_c, 2, 75, 40
2, 75790, Note_on_c, 2, 79, 0
2, 75794, Control_c, 2, 64, 0
2, 75798, Note_on_c, 2, 77, 0
2, 75815, Note_on_c, 2, 43, 0
2, 75819, Note_on_c, 2, 70, 55
2, 75819, Note_on_c, 2, 55, 55
2, 75823, Note_on_c, 2, 75, 0
2, 75823, Control_c, 2, 64, 127
2, 75835, Note_on_c, 2, 70, 0
2, 75843, Note_on_c, 2, 55, 0
2, 75852, Note_on_c, 2, 67, 0
2, 75941, Note_on_c, 2, 51, 42
2, 75941, Note_on_c, 2, 55, 46
2, 75941, Note_on_c, 2, 67, 28
2, 75941, Note_on_c, 2, 70, 49
2, 75952, Control_c, 2, 64, 0
2, 75981, Control_c, 2, 64, 127
2, 75983, Note_on_c, 2, 55, 0
2, 75987, Note_on_c, 2, 51, 0
2, 76002, Note_on_c, 2, 67, 0
2, 76015, Note_on_c, 2, 70, 0
2, 76056, Note_on_c, 2, 68, 45
2, 76057, Note_on_c, 2, 65, 38
2, 76057, Note_on_c, 2, 56, 36
2, 76057, Note_on_c, 2, 53, 40
2, 76073, Control_c, 2, 64, 0
2, 76102, Control_c, 2, 64, 127
2, 76106, Note_on_c, 2, 53, 0
2, 76110, Note_on_c, 2, 56, 0
2, 76111, Note_on_c, 2, 68, 0
2, 76119, Note_on_c, 2, 65, 0
2, 76181, Note_on_c, 2, 63, 43
2, 76181, Note_on_c, 2, 67, 45
2, 76181, Note_on_c, 2, 58, 28
2, 76181, Note_on_c, 2, 55, 32
2, 76186, Control_c, 2, 64, 0
2, 76211, Control_c, 2, 64, 127
2, 76227, Note_on_c, 2, 63, 0
2, 76231, Note_on_c, 2, 67, 0
2, 76231, Note_on_c, 2, 58, 0
2, 76231, Note_on_c, 2, 55, 0
2, 76303, Control_c, 2, 64, 0
2, 76311, Note_on_c, 2, 65, 45
2, 76311, Note_on_c, 2, 60, 43
2, 76315, Note_on_c, 2, 56, 29
2, 76340, Control_c, 2, 64, 127
2, 76356, Control_c, 2, 64, 0
2, 76398, Control_c, 2, 64, 127
2, 76402, Control_c, 2, 64, 0
2, 76415, Control_c, 2, 64, 127
2, 76469, Control_c, 2, 64, 0
2, 76473, Note_on_c, 2, 67, 32
2, 76498, Note_on_c, 2, 68, 41
2, 76515, Note_on_c, 2, 67, 0
2, 76530, Note_on_c, 2, 65, 41
2, 76540, Control_c, 2, 64, 127
2, 76548, Note_on_c, 2, 68, 0
2, 76554, Note_on_c, 2, 65, 0
2, 76559, Note_on_c, 2, 60, 0
2, 76569, Note_on_c, 2, 72, 57
2, 76581, Note_on_c, 2, 65, 0
2, 76598, Note_on_c, 2, 72, 0
2, 76598, Note_on_c, 2, 56, 0
2, 76698, Note_on_c, 2, 44, 49
2, 76698, Note_on_c, 2, 53, 41
2, 76698, Note_on_c, 2, 60, 46
2, 76698, Note_on_c, 2, 68, 52
2, 76700, Control_c, 2, 64, 0
2, 76723, Control_c, 2, 64, 127
2, 76732, Note_on_c, 2, 68, 0
2, 76732, Note_on_c, 2, 44, 0
2, 76744, Note_on_c, 2, 53, 0
2, 76757, Note_on_c, 2, 60, 0
2, 76811, Control_c, 2, 64, 0
2, 76815, Note_on_c, 2, 46, 45
2, 76815, Note_on_c, 2, 55, 38
2, 76815, Note_on_c, 2, 58, 48
2, 76815, Note_on_c, 2, 63, 44
2, 76840, Control_c, 2, 64, 127
2, 76852, Note_on_c, 2, 46, 0
2, 76857, Note_on_c, 2, 55, 0
2, 76865, Note_on_c, 2, 63, 0
2, 76869, Note_on_c, 2, 58, 0
2, 76945, Note_on_c, 2, 46, 40
2, 76945, Note_on_c, 2, 56, 40
2, 76945, Note_on_c, 2, 62, 43
2, 76945, Note_on_c, 2, 65, 54
2, 76948, Control_c, 2, 64, 0
2, 76978, Note_on_c, 2, 46, 0
2, 76982, Control_c, 2, 64, 127
2, 76994, Note_on_c, 2, 62, 0
2, 77003, Note_on_c, 2, 56, 0
2, 77003, Note_on_c, 2, 65, 0
2, 77086, Note_on_c, 2, 65, 55
2, 77086, Note_on_c, 2, 62, 54
2, 77086, Note_on_c, 2, 56, 50
2, 77086, Note_on_c, 2, 51, 59
2, 77090, Control_c, 2, 64, 0
2, 77170, Control_c, 2, 64, 127
2, 77273, Note_on_c, 2, 66, 46
2, 77298, Note_on_c, 2, 51, 0
2, 77307, Note_on_c, 2, 56, 0
2, 77308, Note_on_c, 2, 62, 0
2, 77315, Note_on_c, 2, 65, 0
2, 77315, Note_on_c, 2, 66, 0
2, 77332, Control_c, 2, 64, 0
2, 77337, Note_on_c, 2, 67, 54
2, 77337, Note_on_c, 2, 63, 52
2, 77337, Note_on_c, 2, 55, 42
2, 77337, Note_on_c, 2, 51, 46
2, 77361, Control_c, 2, 64, 127
2, 77379, Note_on_c, 2, 67, 0
2, 77380, Note_on_c, 2, 51, 0
2, 77380, Note_on_c, 2, 55, 0
2, 77387, Note_on_c, 2, 63, 0
2, 77403, Note_on_c, 2, 63, 47
2, 77467, Note_on_c, 2, 67, 45
2, 77467, Note_on_c, 2, 75, 45
2, 77467, Note_on_c, 2, 82, 55
2, 77495, Note_on_c, 2, 63, 0
2, 77523, Note_on_c, 2, 70, 40
2, 77525, Note_on_c, 2, 67, 0
2, 77541, Note_on_c, 2, 82, 0
2, 77542, Note_on_c, 2, 75, 0
2, 77573, Note_on_c, 2, 68, 47
2, 77573, Note_on_c, 2, 77, 52
2, 77573, Note_on_c, 2, 82, 54
2, 77582, Control_c, 2, 64, 0
2, 77607, Control_c, 2, 64, 127
2, 77628, Note_on_c, 2, 70, 0
2, 77628, Note_on_c, 2, 67, 45
2, 77640, Note_on_c, 2, 77, 0
2, 77644, Note_on_c, 2, 82, 0
2, 77648, Note_on_c, 2, 68, 0
2, 77661, Note_on_c, 2, 67, 0
2, 77690, Note_on_c, 2, 65, 53
2, 77690, Note_on_c, 2, 79, 56
2, 77690, Note_on_c, 2, 82, 55
2, 77710, Note_on_c, 2, 65, 0
2, 77727, Note_on_c, 2, 79, 0
2, 77740, Note_on_c, 2, 82, 0
2, 77744, Note_on_c, 2, 63, 65
2, 77791, Note_on_c, 2, 63, 0
2, 77803, Note_on_c, 2, 80, 63
2, 77803, Note_on_c, 2, 82, 68
2, 77803, Note_on_c, 2, 62, 53
2, 77823, Control_c, 2, 64, 0
2, 77861, Control_c, 2, 64, 127
2, 77865, Note_on_c, 2, 65, 41
2, 77894, Note_on_c, 2, 62, 0
2, 77919, Note_on_c, 2, 65, 0
2, 77919, Note_on_c, 2, 68, 48
2, 77936, Note_on_c, 2, 82, 0
2, 77940, Note_on_c, 2, 80, 0
2, 77945, Note_on_c, 2, 84, 52
2, 77969, Note_on_c, 2, 68, 0
2, 77969, Note_on_c, 2, 67, 45
2, 77969, Note_on_c, 2, 82, 53
2, 77977, Note_on_c, 2, 84, 0
2, 77999, Note_on_c, 2, 81, 52
2, 78003, Note_on_c, 2, 82, 0
2, 78007, Control_c, 2, 64, 0
2, 78023, Note_on_c, 2, 65, 49
2, 78028, Note_on_c, 2, 82, 68
2, 78031, Note_on_c, 2, 67, 0
2, 78035, Note_on_c, 2, 81, 0
2, 78045, Control_c, 2, 64, 127
2, 78078, Note_on_c, 2, 63, 37
2, 78086, Note_on_c, 2, 65, 0
2, 78090, Note_on_c, 2, 82, 0
2, 78137, Note_on_c, 2, 62, 54
2, 78137, Note_on_c, 2, 82, 62
2, 78137, Note_on_c, 2, 74, 55
2, 78149, Control_c, 2, 64, 0
2, 78153, Note_on_c, 2, 63, 0
2, 78182, Control_c, 2, 64, 127
2, 78195, Note_on_c, 2, 60, 50
2, 78196, Note_on_c, 2, 62, 0
2, 78207, Note_on_c, 2, 74, 0
2, 78245, Note_on_c, 2, 82, 0
2, 78253, Note_on_c, 2, 58, 48
2, 78253, Note_on_c, 2, 75, 56
2, 78253, Note_on_c, 2, 84, 56
2, 78255, Note_on_c, 2, 60, 0
2, 78286, Control_c, 2, 64, 0
2, 78311, Note_on_c, 2, 60, 46
2, 78319, Note_on_c, 2, 58, 0
2, 78319, Control_c, 2, 64, 127
2, 78336, Note_on_c, 2, 60, 0
2, 78340, Note_on_c, 2, 75, 0
2, 78353, Note_on_c, 2, 84, 0
2, 78373, Note_on_c, 2, 77, 50
2, 78373, Note_on_c, 2, 56, 42
2, 78373, Note_on_c, 2, 86, 63
2, 78428, Control_c, 2, 64, 0
2, 78445, Note_on_c, 2, 58, 47
2, 78451, Note_on_c, 2, 77, 0
2, 78453, Control_c, 2, 64, 127
2, 78461, Note_on_c, 2, 56, 0
2, 78461, Note_on_c, 2, 86, 0
2, 78500, Note_on_c, 2, 58, 0
2, 78515, Note_on_c, 2, 79, 37
2, 78515, Note_on_c, 2, 87, 48
2, 78517, Note_on_c, 2, 55, 39
2, 78578, Note_on_c, 2, 58, 36
2, 78587, Control_c, 2, 64, 0
2, 78641, Note_on_c, 2, 63, 35
2, 78657, Control_c, 2, 64, 127
2, 78661, Note_on_c, 2, 55, 0
2, 78670, Note_on_c, 2, 87, 0
2, 78674, Note_on_c, 2, 86, 35
2, 78703, Note_on_c, 2, 58, 0
2, 78703, Note_on_c, 2, 55, 31
2, 78703, Note_on_c, 2, 87, 45
2, 78707, Note_on_c, 2, 63, 0
2, 78711, Note_on_c, 2, 86, 0
2, 78740, Control_c, 2, 64, 0
2, 78745, Note_on_c, 2, 82, 51
2, 78749, Note_on_c, 2, 79, 0
2, 78757, Note_on_c, 2, 87, 0
2, 78773, Note_on_c, 2, 55, 0
2, 78778, Control_c, 2, 64, 127
2, 78782, Note_on_c, 2, 82, 0
2, 78782, Note_on_c, 2, 79, 66
2, 78782, Note_on_c, 2, 67, 39
2, 78803, Note_on_c, 2, 67, 0
2, 78811, Note_on_c, 2, 79, 0
2, 78903, Note_on_c, 2, 63, 52
2, 78903, Note_on_c, 2, 79, 48
2, 78903, Note_on_c, 2, 82, 53
2, 78915, Control_c, 2, 64, 0
2, 78945, Control_c, 2, 64, 127
2, 78979, Note_on_c, 2, 63, 0
2, 78982, Note_on_c, 2, 79, 0
2, 78991, Note_on_c, 2, 82, 0
2, 79028, Note_on_c, 2, 80, 43
2, 79028, Note_on_c, 2, 65, 40
2, 79028, Note_on_c, 2, 68, 40
2, 79028, Note_on_c, 2, 77, 45
2, 79036, Control_c, 2, 64, 0
2, 79061, Control_c, 2, 64, 127
2, 79082, Note_on_c, 2, 65, 0
2, 79082, Note_on_c, 2, 80, 0
2, 79095, Note_on_c, 2, 68, 0
2, 79095, Note_on_c, 2, 77, 0
2, 79157, Note_on_c, 2, 75, 54
2, 79157, Note_on_c, 2, 79, 46
2, 79157, Note_on_c, 2, 70, 43
2, 79157, Note_on_c, 2, 67, 40
2, 79158, Control_c, 2, 64, 0
2, 79187, Control_c, 2, 64, 127
2, 79207, Note_on_c, 2, 70, 0
2, 79236, Note_on_c, 2, 67, 0
2, 79240, Note_on_c, 2, 75, 0
2, 79249, Note_on_c, 2, 79, 0
2, 79284, Note_on_c, 2, 68, 45
2, 79284, Note_on_c, 2, 72, 47
2, 79284, Note_on_c, 2, 76, 52
2, 79320, Note_on_c, 2, 77, 49
2, 79324, Control_c, 2, 64, 0
2, 79337, Note_on_c, 2, 76, 0
2, 79349, Note_on_c, 2, 79, 45
2, 79357, Note_on_c, 2, 77, 0
2, 79378, Note_on_c, 2, 77, 48
2, 79386, Note_on_c, 2, 79, 0
2, 79407, Note_on_c, 2, 80, 52
2, 79411, Note_on_c, 2, 77, 0
2, 79436, Note_on_c, 2, 79, 59
2, 79445, Note_on_c, 2, 80, 0
2, 79469, Note_on_c, 2, 82, 56
2, 79474, Note_on_c, 2, 79, 0
2, 79503, Note_on_c, 2, 80, 45
2, 79507, Note_on_c, 2, 82, 0
2, 79537, Note_on_c, 2, 80, 0
2, 79537, Note_on_c, 2, 84, 66
2, 79557, Control_c, 2, 64, 127
2, 79608, Note_on_c, 2, 72, 0
2, 79621, Note_on_c, 2, 68, 0
2, 79825, Note_on_c, 2, 82, 65
2, 79825, Note_on_c, 2, 58, 45
2, 79825, Note_on_c, 2, 62, 54
2, 79825, Note_on_c, 2, 68, 40
2, 79832, Note_on_c, 2, 84, 0
2, 79861, Control_c, 2, 64, 0
2, 79941, Control_c, 2, 64, 127
2, 79949, Note_on_c, 2, 62, 0
2, 79970, Note_on_c, 2, 65, 40
2, 79984, Note_on_c, 2, 58, 0
2, 79991, Note_on_c, 2, 65, 0
2, 79995, Note_on_c, 2, 68, 0
2, 80025, Note_on_c, 2, 82, 0
2, 80075, Note_on_c, 2, 74, 53
2, 80112, Note_on_c, 2, 75, 65
2, 80116, Note_on_c, 2, 63, 49
2, 80124, Note_on_c, 2, 74, 0
2, 80141, Control_c, 2, 64, 0
2, 80187, Note_on_c, 2, 67, 40
2, 80203, Control_c, 2, 64, 127
2, 80249, Note_on_c, 2, 67, 0
2, 80249, Note_on_c, 2, 70, 36
2, 80303, Note_on_c, 2, 63, 0
2, 80307, Note_on_c, 2, 67, 45
2, 80361, Note_on_c, 2, 67, 0
2, 80366, Note_on_c, 2, 63, 45
2, 80378, Note_on_c, 2, 75, 0
2, 80383, Note_on_c, 2, 70, 0
2, 80420, Note_on_c, 2, 67, 45
2, 80457, Note_on_c, 2, 63, 0
2, 80487, Note_on_c, 2, 70, 59
2, 80487, Note_on_c, 2, 85, 72
2, 80499, Note_on_c, 2, 67, 0
2, 80549, Note_on_c, 2, 67, 39
2, 80574, Note_on_c, 2, 70, 0
2, 80578, Note_on_c, 2, 67, 0
2, 80629, Note_on_c, 2, 68, 45
2, 80629, Note_on_c, 2, 84, 48
2, 80641, Note_on_c, 2, 85, 0
2, 80694, Note_on_c, 2, 65, 47
2, 80707, Control_c, 2, 64, 0
2, 80753, Note_on_c, 2, 86, 55
2, 80754, Note_on_c, 2, 84, 0
2, 80754, Control_c, 2, 64, 127
2, 80757, Note_on_c, 2, 65, 3
2, 80758, Note_on_c, 2, 70, 40
2, 80777, Note_on_c, 2, 68, 0
2, 80796, Note_on_c, 2, 65, 0
2, 80808, Note_on_c, 2, 65, 0
2, 80816, Note_on_c, 2, 68, 35
2, 80845, Note_on_c, 2, 70, 0
2, 80870, Note_on_c, 2, 68, 0
2, 80870, Note_on_c, 2, 67, 47
2, 80870, Note_on_c, 2, 89, 54
2, 80874, Note_on_c, 2, 86, 0
2, 80895, Control_c, 2, 64, 0
2, 80925, Control_c, 2, 64, 127
2, 80929, Note_on_c, 2, 67, 0
2, 80933, Note_on_c, 2, 70, 39
2, 80991, Note_on_c, 2, 67, 39
2, 80991, Note_on_c, 2, 87, 45
2, 80999, Note_on_c, 2, 89, 0
2, 81054, Note_on_c, 2, 65, 55
2, 81062, Note_on_c, 2, 67, 0
2, 81066, Note_on_c, 2, 70, 0
2, 81116, Note_on_c, 2, 63, 65
2, 81128, Note_on_c, 2, 87, 0
2, 81129, Note_on_c, 2, 65, 0
2, 81137, Note_on_c, 2, 63, 0
2, 81174, Note_on_c, 2, 61, 68
2, 81195, Note_on_c, 2, 61, 0
2, 81260, Note_on_c, 2, 58, 57
2, 81260, Note_on_c, 2, 73, 65
2, 81335, Note_on_c, 2, 73, 0
2, 81349, Note_on_c, 2, 58, 0
2, 81360, Note_on_c, 2, 55, 59
2, 81389, Control_c, 2, 64, 0
2, 81414, Control_c, 2, 64, 127
2, 81441, Note_on_c, 2, 56, 49
2, 81441, Note_on_c, 2, 72, 54
2, 81474, Note_on_c, 2, 55, 0
2, 81497, Control_c, 2, 64, 0
2, 81515, Note_on_c, 2, 56, 0
2, 81522, Note_on_c, 2, 53, 48
2, 81527, Control_c, 2, 64, 127
2, 81546, Note_on_c, 2, 72, 0
2, 81585, Note_on_c, 2, 53, 0
2, 81585, Note_on_c, 2, 58, 55
2, 81585, Note_on_c, 2, 68, 54
2, 81585, Note_on_c, 2, 74, 60
2, 81614, Control_c, 2, 64, 0
2, 81652, Control_c, 2, 64, 127
2, 81656, Note_on_c, 2, 46, 48
2, 81669, Note_on_c, 2, 58, 0
2, 81689, Note_on_c, 2, 68, 0
2, 81722, Note_on_c, 2, 74, 0
2, 81727, Note_on_c, 2, 46, 0
2, 81739, Note_on_c, 2, 51, 44
2, 81739, Note_on_c, 2, 68, 46
2, 81739, Note_on_c, 2, 77, 54
2, 81740, Control_c, 2, 64, 0
2, 81790, Control_c, 2, 64, 127
2, 81884, Note_on_c, 2, 68, 0
2, 81960, Control_c, 2, 64, 0
2, 81994, Control_c, 2, 64, 127
2, 81999, Note_on_c, 2, 67, 39
2, 81999, Note_on_c, 2, 75, 47
2, 82009, Note_on_c, 2, 77, 0
2, 82029, Note_on_c, 2, 51, 0
2, 82033, Note_on_c, 2, 75, 0
2, 82040, Note_on_c, 2, 67, 0
2, 82115, Note_on_c, 2, 62, 55
2, 82115, Note_on_c, 2, 56, 47
2, 82115, Note_on_c, 2, 65, 55
2, 82119, Control_c, 2, 64, 0
2, 82156, Control_c, 2, 64, 127
2, 82198, Note_on_c, 2, 62, 0
2, 82206, Note_on_c, 2, 65, 0
2, 82235, Note_on_c, 2, 63, 50
2, 82235, Note_on_c, 2, 55, 35
2, 82235, Note_on_c, 2, 67, 49
2, 82236, Note_on_c, 2, 56, 0
2, 82269, Control_c, 2, 64, 0
2, 82306, Control_c, 2, 64, 127
2, 82315, Note_on_c, 2, 67, 0
2, 82319, Note_on_c, 2, 63, 0
2, 82360, Note_on_c, 2, 55, 0
2, 82365, Note_on_c, 2, 53, 39
2, 82365, Note_on_c, 2, 65, 40
2, 82365, Note_on_c, 2, 68, 47
2, 82377, Control_c, 2, 64, 0
2, 82410, Control_c, 2, 64, 127
2, 82448, Note_on_c, 2, 53, 0
2, 82456, Note_on_c, 2, 65, 0
2, 82464, Note_on_c, 2, 68, 0
2, 82514, Note_on_c, 2, 52, 51
2, 82514, Note_on_c, 2, 66, 39
2, 82514, Note_on_c, 2, 69, 40
2, 82523, Control_c, 2, 64, 0
2, 82590, Control_c, 2, 64, 127
2, 82644, Note_on_c, 2, 69, 0
2, 82648, Note_on_c, 2, 66, 0
2, 82781, Note_on_c, 2, 67, 45
2, 82782, Note_on_c, 2, 70, 41
2, 82786, Control_c, 2, 64, 0
2, 82848, Control_c, 2, 64, 127
2, 82915, Note_on_c, 2, 73, 46
2, 82926, Note_on_c, 2, 52, 0
2, 82936, Note_on_c, 2, 70, 0
2, 82939, Note_on_c, 2, 67, 0
2, 82948, Note_on_c, 2, 73, 0
2, 83035, Note_on_c, 2, 64, 45
2, 83035, Note_on_c, 2, 67, 45
2, 83035, Note_on_c, 2, 48, 24
2, 83040, Control_c, 2, 64, 0
2, 83119, Control_c, 2, 64, 127
2, 83132, Note_on_c, 2, 67, 0
2, 83135, Note_on_c, 2, 64, 0
2, 83160, Note_on_c, 2, 72, 46
2, 83160, Note_on_c, 2, 68, 36
2, 83190, Note_on_c, 2, 48, 0
2, 83198, Note_on_c, 2, 72, 0
2, 83215, Note_on_c, 2, 68, 0
2, 83298, Note_on_c, 2, 49, 42
2, 83298, Note_on_c, 2, 67, 40
2, 83298, Note_on_c, 2, 70, 36
2, 83306, Control_c, 2, 64, 0
2, 83398, Control_c, 2, 64, 127
2, 83456, Note_on_c, 2, 67, 0
2, 83460, Note_on_c, 2, 70, 0
2, 83561, Control_c, 2, 64, 0
2, 83564, Note_on_c, 2, 68, 62
2, 83565, Note_on_c, 2, 65, 54
2, 83590, Control_c, 2, 64, 127
2, 83607, Note_on_c, 2, 68, 0
2, 83661, Note_on_c, 2, 49, 0
2, 83694, Note_on_c, 2, 77, 54
2, 83706, Note_on_c, 2, 65, 0
2, 83769, Note_on_c, 2, 77, 0
2, 83815, Note_on_c, 2, 56, 41
2, 83815, Note_on_c, 2, 60, 40
2, 83815, Note_on_c, 2, 77, 41
2, 83836, Control_c, 2, 64, 0
2, 83878, Control_c, 2, 64, 127
2, 83919, Note_on_c, 2, 77, 0
2, 83944, Note_on_c, 2, 77, 39
2, 83952, Note_on_c, 2, 60, 0
2, 83961, Note_on_c, 2, 56, 0
2, 83974, Note_on_c, 2, 77, 0
2, 84074, Note_on_c, 2, 58, 57
2, 84074, Note_on_c, 2, 61, 32
2, 84074, Note_on_c, 2, 78, 37
2, 84090, Control_c, 2, 64, 0
2, 84153, Control_c, 2, 64, 127
2, 84315, Note_on_c, 2, 79, 48
2, 84324, Note_on_c, 2, 78, 0
2, 84415, Note_on_c, 2, 58, 0
2, 84420, Note_on_c, 2, 61, 0
2, 84444, Note_on_c, 2, 82, 46
2, 84456, Note_on_c, 2, 79, 0
2, 84574, Note_on_c, 2, 70, 35
2, 84574, Note_on_c, 2, 60, 35
2, 84590, Control_c, 2, 64, 0
2, 84686, Control_c, 2, 64, 127
2, 84694, Note_on_c, 2, 82, 0
2, 84698, Note_on_c, 2, 76, 50
2, 84711, Note_on_c, 2, 60, 0
2, 84745, Note_on_c, 2, 70, 0
2, 84790, Note_on_c, 2, 76, 0
2, 84828, Note_on_c, 2, 65, 57
2, 84828, Note_on_c, 2, 70, 41
2, 84828, Note_on_c, 2, 79, 54
2, 84832, Control_c, 2, 64, 0
2, 84894, Control_c, 2, 64, 127
2, 85098, Control_c, 2, 64, 0
2, 85111, Note_on_c, 2, 70, 0
2, 85112, Note_on_c, 2, 68, 51
2, 85112, Note_on_c, 2, 77, 47
2, 85123, Note_on_c, 2, 79, 0
2, 85140, Control_c, 2, 64, 127
2, 85158, Note_on_c, 2, 68, 0
2, 85161, Note_on_c, 2, 65, 0
2, 85236, Note_on_c, 2, 41, 55
2, 85253, Control_c, 2, 64, 0
2, 85278, Control_c, 2, 64, 127
2, 85324, Note_on_c, 2, 41, 0
2, 85357, Note_on_c, 2, 41, 66
2, 85436, Note_on_c, 2, 41, 0
2, 85474, Note_on_c, 2, 41, 56
2, 85561, Note_on_c, 2, 41, 0
2, 85594, Note_on_c, 2, 41, 63
2, 85607, Control_c, 2, 64, 0
2, 85640, Control_c, 2, 64, 127
2, 85657, Note_on_c, 2, 77, 0
2, 85716, Note_on_c, 2, 80, 62
2, 85761, Note_on_c, 2, 80, 0
2, 85828, Note_on_c, 2, 79, 59
2, 85882, Note_on_c, 2, 77, 55
2, 85899, Note_on_c, 2, 79, 0
2, 85936, Note_on_c, 2, 77, 0
2, 85936, Note_on_c, 2, 75, 59
2, 85986, Note_on_c, 2, 73, 72
2, 86003, Note_on_c, 2, 75, 0
2, 86036, Note_on_c, 2, 73, 0
2, 86040, Note_on_c, 2, 72, 66
2, 86091, Note_on_c, 2, 73, 72
2, 86107, Note_on_c, 2, 72, 0
2, 86136, Note_on_c, 2, 77, 54
2, 86144, Note_on_c, 2, 73, 0
2, 86191, Note_on_c, 2, 73, 63
2, 86195, Note_on_c, 2, 77, 0
2, 86207, Note_on_c, 2, 73, 0
2, 86253, Note_on_c, 2, 62, 70
2, 86253, Note_on_c, 2, 68, 66
2, 86253, Note_on_c, 2, 72, 70
2, 86266, Control_c, 2, 64, 0
2, 86303, Control_c, 2, 64, 127
2, 86482, Note_on_c, 2, 71, 60
2, 86487, Control_c, 2, 64, 0
2, 86490, Note_on_c, 2, 72, 0
2, 86524, Control_c, 2, 64, 127
2, 86557, Note_on_c, 2, 41, 0
2, 86595, Note_on_c, 2, 41, 66
2, 86644, Note_on_c, 2, 41, 0
2, 86707, Note_on_c, 2, 41, 65
2, 86744, Note_on_c, 2, 41, 0
2, 86816, Note_on_c, 2, 41, 56
2, 86840, Note_on_c, 2, 41, 0
2, 86928, Note_on_c, 2, 42, 95
2, 86957, Control_c, 2, 64, 0
2, 86966, Note_on_c, 2, 68, 0
2, 86974, Note_on_c, 2, 62, 0
2, 86978, Note_on_c, 2, 71, 0
2, 87037, Note_on_c, 2, 72, 62
2, 87037, Note_on_c, 2, 63, 63
2, 87049, Control_c, 2, 64, 127
2, 87149, Note_on_c, 2, 71, 57
2, 87159, Note_on_c, 2, 72, 0
2, 87204, Note_on_c, 2, 72, 36
2, 87232, Note_on_c, 2, 63, 0
2, 87245, Note_on_c, 2, 71, 0
2, 87258, Note_on_c, 2, 42, 53
2, 87258, Note_on_c, 2, 74, 46
2, 87258, Note_on_c, 2, 63, 32
2, 87278, Note_on_c, 2, 74, 0
2, 87312, Note_on_c, 2, 72, 0
2, 87318, Note_on_c, 2, 42, 0
2, 87319, Note_on_c, 2, 72, 49
2, 87348, Note_on_c, 2, 72, 0
2, 87375, Note_on_c, 2, 71, 50
2, 87420, Note_on_c, 2, 63, 0
2, 87426, Note_on_c, 2, 72, 55
2, 87429, Note_on_c, 2, 71, 0
2, 87470, Note_on_c, 2, 63, 52
2, 87470, Note_on_c, 2, 75, 56
2, 87492, Note_on_c, 2, 72, 0
2, 87498, Note_on_c, 2, 75, 0
2, 87525, Note_on_c, 2, 74, 56
2, 87557, Note_on_c, 2, 63, 0
2, 87570, Note_on_c, 2, 71, 49
2, 87571, Note_on_c, 2, 63, 49
2, 87571, Note_on_c, 2, 43, 53
2, 87578, Note_on_c, 2, 42, 0
2, 87583, Note_on_c, 2, 74, 0
2, 87595, Control_c, 2, 64, 0
2, 87628, Control_c, 2, 64, 127
2, 87708, Note_on_c, 2, 63, 0
2, 87712, Note_on_c, 2, 71, 0
2, 87783, Note_on_c, 2, 72, 65
2, 87783, Note_on_c, 2, 63, 60
2, 87850, Note_on_c, 2, 43, 0
2, 87887, Note_on_c, 2, 43, 62
2, 87932, Note_on_c, 2, 43, 0
2, 87995, Note_on_c, 2, 43, 65
2, 88033, Note_on_c, 2, 43, 0
2, 88104, Note_on_c, 2, 43, 68
2, 88129, Note_on_c, 2, 43, 0
2, 88220, Note_on_c, 2, 44, 88
2, 88228, Control_c, 2, 64, 0
2, 88282, Control_c, 2, 64, 127
2, 88295, Note_on_c, 2, 63, 0
2, 88299, Note_on_c, 2, 72, 0
2, 88329, Note_on_c, 2, 63, 59
2, 88329, Note_on_c, 2, 72, 57
2, 88362, Note_on_c, 2, 63, 0
2, 88378, Note_on_c, 2, 72, 0
2, 88441, Note_on_c, 2, 63, 54
2, 88441, Note_on_c, 2, 72, 45
2, 88462, Note_on_c, 2, 63, 0
2, 88470, Note_on_c, 2, 72, 0
2, 88550, Note_on_c, 2, 63, 49
2, 88550, Note_on_c, 2, 72, 55
2, 88566, Note_on_c, 2, 63, 0
2, 88574, Note_on_c, 2, 44, 0
2, 88579, Note_on_c, 2, 72, 0
2, 88666, Note_on_c, 2, 45, 48
2, 88666, Note_on_c, 2, 63, 49
2, 88666, Note_on_c, 2, 72, 57
2, 88675, Control_c, 2, 64, 0
2, 88737, Control_c, 2, 64, 127
2, 88748, Note_on_c, 2, 63, 0
2, 88758, Note_on_c, 2, 72, 0
2, 88783, Note_on_c, 2, 72, 51
2, 88783, Note_on_c, 2, 63, 37
2, 88804, Note_on_c, 2, 45, 0
2, 88812, Note_on_c, 2, 63, 0
2, 88816, Note_on_c, 2, 72, 0
2, 88908, Note_on_c, 2, 46, 43
2, 88908, Note_on_c, 2, 63, 35
2, 88908, Note_on_c, 2, 73, 55
2, 88928, Control_c, 2, 64, 0
2, 88975, Control_c, 2, 64, 127
2, 89004, Note_on_c, 2, 73, 0
2, 89083, Note_on_c, 2, 72, 41
2, 89108, Note_on_c, 2, 70, 40
2, 89112, Note_on_c, 2, 72, 0
2, 89129, Note_on_c, 2, 63, 0
2, 89137, Note_on_c, 2, 68, 40
2, 89154, Note_on_c, 2, 70, 0
2, 89178, Note_on_c, 2, 63, 48
2, 89178, Note_on_c, 2, 67, 54
2, 89178, Note_on_c, 2, 49, 45
2, 89183, Note_on_c, 2, 68, 0
2, 89184, Control_c, 2, 64, 0
2, 89204, Note_on_c, 2, 46, 0
2, 89225, Control_c, 2, 64, 127
2, 89232, Note_on_c, 2, 63, 0
2, 89233, Note_on_c, 2, 67, 0
2, 89300, Note_on_c, 2, 79, 49
2, 89333, Note_on_c, 2, 79, 0
2, 89361, Note_on_c, 2, 49, 0
2, 89425, Note_on_c, 2, 48, 51
2, 89425, Note_on_c, 2, 80, 49
2, 89449, Control_c, 2, 64, 0
2, 89500, Control_c, 2, 64, 127
2, 89550, Note_on_c, 2, 48, 0
2, 89554, Note_on_c, 2, 72, 40
2, 89562, Note_on_c, 2, 80, 0
2, 89595, Note_on_c, 2, 72, 0
2, 89692, Note_on_c, 2, 49, 40
2, 89708, Control_c, 2, 64, 0
2, 89754, Note_on_c, 2, 70, 42
2, 89766, Control_c, 2, 64, 127
2, 89817, Note_on_c, 2, 73, 46
2, 89841, Note_on_c, 2, 49, 0
2, 89875, Note_on_c, 2, 77, 48
2, 89883, Note_on_c, 2, 73, 0
2, 89891, Note_on_c, 2, 70, 0
2, 89945, Note_on_c, 2, 77, 0
2, 89946, Note_on_c, 2, 68, 49
2, 89946, Note_on_c, 2, 60, 47
2, 89946, Note_on_c, 2, 51, 49
2, 89967, Control_c, 2, 64, 0
2, 90029, Control_c, 2, 64, 127
2, 90088, Note_on_c, 2, 60, 0
2, 90096, Note_on_c, 2, 51, 0
2, 90221, Note_on_c, 2, 61, 55
2, 90221, Note_on_c, 2, 51, 44
2, 90242, Control_c, 2, 64, 0
2, 90337, Control_c, 2, 64, 127
2, 90368, Note_on_c, 2, 67, 35
2, 90368, Note_on_c, 2, 72, 32
2, 90375, Note_on_c, 2, 51, 0
2, 90383, Note_on_c, 2, 68, 0
2, 90413, Note_on_c, 2, 61, 0
2, 90442, Note_on_c, 2, 70, 41
2, 90455, Note_on_c, 2, 67, 0
2, 90458, Note_on_c, 2, 72, 0
2, 90521, Note_on_c, 2, 68, 40
2, 90522, Note_on_c, 2, 56, 35
2, 90538, Note_on_c, 2, 70, 0
2, 90559, Control_c, 2, 64, 0
2, 90604, Note_on_c, 2, 60, 40
2, 90650, Control_c, 2, 64, 127
2, 90667, Note_on_c, 2, 63, 35
2, 90675, Note_on_c, 2, 60, 0
2, 90725, Note_on_c, 2, 56, 0
2, 90725, Note_on_c, 2, 60, 46
2, 90754, Note_on_c, 2, 63, 0
2, 90771, Note_on_c, 2, 60, 0
2, 90783, Note_on_c, 2, 56, 39
2, 90800, Note_on_c, 2, 68, 0
2, 90838, Note_on_c, 2, 60, 42
2, 90887, Note_on_c, 2, 60, 0
2, 90888, Note_on_c, 2, 63, 47
2, 90888, Note_on_c, 2, 68, 40
2, 90888, Note_on_c, 2, 72, 57
2, 90942, Note_on_c, 2, 56, 0
2, 90942, Note_on_c, 2, 60, 50
2, 90950, Note_on_c, 2, 68, 0
2, 90954, Note_on_c, 2, 72, 0
2, 90967, Note_on_c, 2, 63, 0
2, 90992, Note_on_c, 2, 60, 0
2, 91000, Note_on_c, 2, 56, 36
2, 91000, Note_on_c, 2, 68, 40
2, 91000, Note_on_c, 2, 72, 54
2, 91055, Note_on_c, 2, 72, 0
2, 91059, Note_on_c, 2, 68, 0
2, 91059, Note_on_c, 2, 60, 38
2, 91112, Note_on_c, 2, 60, 0
2, 91121, Note_on_c, 2, 63, 28
2, 91122, Note_on_c, 2, 68, 37
2, 91122, Note_on_c, 2, 72, 44
2, 91161, Note_on_c, 2, 56, 0
2, 91184, Note_on_c, 2, 72, 0
2, 91184, Note_on_c, 2, 60, 41
2, 91192, Note_on_c, 2, 68, 0
2, 91204, Note_on_c, 2, 63, 0
2, 91225, Note_on_c, 2, 60, 0
2, 91254, Note_on_c, 2, 55, 44
2, 91254, Note_on_c, 2, 70, 44
2, 91254, Note_on_c, 2, 72, 44
2, 91254, Note_on_c, 2, 77, 44
2, 91288, Control_c, 2, 64, 0
2, 91338, Note_on_c, 2, 58, 44
2, 91338, Control_c, 2, 64, 127
2, 91385, Note_on_c, 2, 70, 0
2, 91396, Note_on_c, 2, 77, 0
2, 91397, Note_on_c, 2, 60, 42
2, 91397, Note_on_c, 2, 72, 40
2, 91397, Note_on_c, 2, 70, 32
2, 91397, Note_on_c, 2, 76, 55
2, 91400, Note_on_c, 2, 58, 0
2, 91401, Note_on_c, 2, 72, 0
2, 91430, Note_on_c, 2, 55, 0
2, 91454, Note_on_c, 2, 58, 42
2, 91483, Note_on_c, 2, 60, 0
2, 91505, Note_on_c, 2, 72, 0
2, 91510, Note_on_c, 2, 58, 0
2, 91513, Note_on_c, 2, 55, 37
2, 91514, Note_on_c, 2, 70, 0
2, 91567, Note_on_c, 2, 58, 34
2, 91625, Note_on_c, 2, 76, 0
2, 91625, Note_on_c, 2, 60, 31
2, 91625, Note_on_c, 2, 70, 35
2, 91625, Note_on_c, 2, 72, 54
2, 91633, Note_on_c, 2, 58, 0
2, 91679, Note_on_c, 2, 55, 0
2, 91679, Note_on_c, 2, 58, 38
2, 91703, Note_on_c, 2, 70, 0
2, 91704, Note_on_c, 2, 72, 0
2, 91717, Note_on_c, 2, 58, 0
2, 91725, Note_on_c, 2, 60, 0
2, 91738, Note_on_c, 2, 70, 36
2, 91738, Note_on_c, 2, 72, 49
2, 91738, Note_on_c, 2, 55, 31
2, 91796, Note_on_c, 2, 58, 36
2, 91800, Note_on_c, 2, 72, 0
2, 91804, Note_on_c, 2, 70, 0
2, 91856, Note_on_c, 2, 60, 28
2, 91856, Note_on_c, 2, 70, 32
2, 91856, Note_on_c, 2, 72, 40
2, 91859, Note_on_c, 2, 58, 0
2, 91905, Note_on_c, 2, 55, 0
2, 91922, Note_on_c, 2, 58, 32
2, 91925, Note_on_c, 2, 72, 0
2, 91935, Note_on_c, 2, 70, 0
2, 91973, Note_on_c, 2, 60, 0
2, 91984, Note_on_c, 2, 58, 0
2, 91996, Note_on_c, 2, 53, 54
2, 91996, Note_on_c, 2, 68, 36
2, 91996, Note_on_c, 2, 72, 45
2, 91996, Note_on_c, 2, 79, 47
2, 92026, Control_c, 2, 64, 0
2, 92072, Note_on_c, 2, 56, 38
2, 92080, Control_c, 2, 64, 127
2, 92104, Note_on_c, 2, 72, 0
2, 92108, Note_on_c, 2, 68, 0
2, 92121, Note_on_c, 2, 79, 0
2, 92130, Note_on_c, 2, 60, 18
2, 92130, Note_on_c, 2, 77, 53
2, 92130, Note_on_c, 2, 72, 48
2, 92130, Note_on_c, 2, 68, 38
2, 92134, Note_on_c, 2, 56, 0
2, 92188, Note_on_c, 2, 56, 40
2, 92197, Note_on_c, 2, 53, 0
2, 92238, Note_on_c, 2, 60, 0
2, 92238, Note_on_c, 2, 56, 0
2, 92242, Note_on_c, 2, 53, 45
2, 92272, Note_on_c, 2, 72, 0
2, 92280, Note_on_c, 2, 68, 0
2, 92292, Note_on_c, 2, 56, 40
2, 92342, Note_on_c, 2, 60, 39
2, 92342, Note_on_c, 2, 68, 40
2, 92342, Note_on_c, 2, 72, 57
2, 92350, Note_on_c, 2, 56, 0
2, 92355, Note_on_c, 2, 77, 0
2, 92396, Note_on_c, 2, 56, 36
2, 92404, Note_on_c, 2, 53, 0
2, 92413, Note_on_c, 2, 68, 0
2, 92413, Note_on_c, 2, 72, 0
2, 92446, Note_on_c, 2, 56, 0
2, 92449, Note_on_c, 2, 60, 0
2, 92451, Note_on_c, 2, 53, 45
2, 92451, Note_on_c, 2, 68, 29
2, 92451, Note_on_c, 2, 72, 45
2, 92505, Note_on_c, 2, 56, 35
2, 92513, Note_on_c, 2, 68, 0
2, 92517, Note_on_c, 2, 72, 0
2, 92567, Note_on_c, 2, 56, 0
2, 92568, Note_on_c, 2, 72, 53
2, 92568, Note_on_c, 2, 68, 37
2, 92568, Note_on_c, 2, 60, 19
2, 92623, Note_on_c, 2, 53, 0
2, 92625, Note_on_c, 2, 56, 31
2, 92630, Note_on_c, 2, 68, 0
2, 92635, Note_on_c, 2, 72, 0
2, 92675, Note_on_c, 2, 60, 0
2, 92688, Note_on_c, 2, 51, 45
2, 92688, Note_on_c, 2, 68, 33
2, 92688, Note_on_c, 2, 72, 45
2, 92688, Note_on_c, 2, 80, 37
2, 92692, Note_on_c, 2, 56, 0
2, 92726, Control_c, 2, 64, 0
2, 92759, Note_on_c, 2, 54, 45
2, 92771, Control_c, 2, 64, 127
2, 92784, Note_on_c, 2, 68, 0
2, 92788, Note_on_c, 2, 72, 0
2, 92813, Note_on_c, 2, 80, 0
2, 92817, Note_on_c, 2, 54, 0
2, 92821, Note_on_c, 2, 56, 22
2, 92821, Note_on_c, 2, 72, 39
2, 92821, Note_on_c, 2, 68, 31
2, 92823, Note_on_c, 2, 78, 45
2, 92872, Note_on_c, 2, 51, 0
2, 92872, Note_on_c, 2, 54, 41
2, 92909, Note_on_c, 2, 56, 0
2, 92922, Note_on_c, 2, 54, 0
2, 92926, Note_on_c, 2, 51, 45
2, 92967, Note_on_c, 2, 68, 0
2, 92976, Note_on_c, 2, 54, 45
2, 92980, Note_on_c, 2, 72, 0
2, 93026, Note_on_c, 2, 68, 45
2, 93026, Note_on_c, 2, 72, 53
2, 93030, Note_on_c, 2, 54, 0
2, 93030, Note_on_c, 2, 56, 40
2, 93080, Note_on_c, 2, 51, 0
2, 93080, Note_on_c, 2, 54, 35
2, 93092, Note_on_c, 2, 68, 0
2, 93097, Note_on_c, 2, 72, 0
2, 93130, Note_on_c, 2, 54, 0
2, 93134, Note_on_c, 2, 78, 0
2, 93134, Note_on_c, 2, 56, 0
2, 93134, Note_on_c, 2, 68, 40
2, 93135, Note_on_c, 2, 72, 55
2, 93135, Note_on_c, 2, 51, 41
2, 93188, Note_on_c, 2, 54, 41
2, 93205, Note_on_c, 2, 72, 0
2, 93205, Note_on_c, 2, 68, 0
2, 93242, Note_on_c, 2, 54, 0
2, 93247, Note_on_c, 2, 56, 31
2, 93247, Note_on_c, 2, 72, 52
2, 93247, Note_on_c, 2, 68, 33
2, 93297, Note_on_c, 2, 72, 0
2, 93309, Note_on_c, 2, 51, 0
2, 93309, Note_on_c, 2, 54, 35
2, 93321, Note_on_c, 2, 68, 0
2, 93364, Note_on_c, 2, 54, 0
2, 93376, Note_on_c, 2, 49, 41
2, 93376, Note_on_c, 2, 68, 42
2, 93376, Note_on_c, 2, 73, 48
2, 93376, Note_on_c, 2, 78, 46
2, 93401, Control_c, 2, 64, 0
2, 93405, Note_on_c, 2, 56, 0
2, 93443, Note_on_c, 2, 52, 39
2, 93444, Control_c, 2, 64, 127
2, 93459, Note_on_c, 2, 73, 0
2, 93463, Note_on_c, 2, 78, 0
2, 93463, Note_on_c, 2, 68, 0
2, 93494, Note_on_c, 2, 56, 34
2, 93494, Note_on_c, 2, 68, 47
2, 93494, Note_on_c, 2, 73, 50
2, 93494, Note_on_c, 2, 76, 59
2, 93496, Note_on_c, 2, 52, 0
2, 93551, Note_on_c, 2, 52, 47
2, 93555, Note_on_c, 2, 49, 0
2, 93564, Note_on_c, 2, 56, 0
2, 93600, Note_on_c, 2, 52, 0
2, 93605, Note_on_c, 2, 49, 45
2, 93626, Note_on_c, 2, 76, 0
2, 93655, Note_on_c, 2, 73, 0
2, 93659, Note_on_c, 2, 52, 45
2, 93660, Note_on_c, 2, 68, 0
2, 93710, Note_on_c, 2, 68, 49
2, 93710, Note_on_c, 2, 76, 57
2, 93713, Note_on_c, 2, 52, 0
2, 93713, Note_on_c, 2, 56, 52
2, 93763, Note_on_c, 2, 49, 0
2, 93763, Note_on_c, 2, 52, 52
2, 93784, Note_on_c, 2, 68, 0
2, 93785, Note_on_c, 2, 76, 0
2, 93818, Note_on_c, 2, 47, 56
2, 93818, Note_on_c, 2, 68, 49
2, 93818, Note_on_c, 2, 76, 63
2, 93826, Note_on_c, 2, 52, 0
2, 93863, Control_c, 2, 64, 0
2, 93876, Note_on_c, 2, 52, 56
2, 93880, Note_on_c, 2, 56, 0
2, 93893, Control_c, 2, 64, 127
2, 93902, Note_on_c, 2, 68, 0
2, 93926, Note_on_c, 2, 76, 0
2, 93926, Note_on_c, 2, 47, 0
2, 93935, Note_on_c, 2, 56, 42
2, 93935, Note_on_c, 2, 68, 50
2, 93935, Note_on_c, 2, 75, 62
2, 93993, Note_on_c, 2, 56, 0
2, 93997, Note_on_c, 2, 47, 47
2, 94000, Note_on_c, 2, 52, 0
2, 94005, Note_on_c, 2, 75, 0
2, 94014, Note_on_c, 2, 47, 0
2, 94023, Note_on_c, 2, 68, 0
2, 94064, Note_on_c, 2, 46, 75
2, 94064, Note_on_c, 2, 53, 55
2, 94064, Note_on_c, 2, 68, 57
2, 94064, Note_on_c, 2, 75, 65
2, 94084, Control_c, 2, 64, 0
2, 94122, Control_c, 2, 64, 127
2, 94222, Control_c, 2, 64, 0
2, 94247, Control_c, 2, 64, 127
2, 94255, Note_on_c, 2, 75, 0
2, 94256, Note_on_c, 2, 68, 0
2, 94260, Note_on_c, 2, 46, 0
2, 94260, Note_on_c, 2, 77, 56
2, 94293, Note_on_c, 2, 75, 48
2, 94306, Note_on_c, 2, 77, 0
2, 94310, Note_on_c, 2, 53, 0
2, 94322, Note_on_c, 2, 74, 72
2, 94330, Note_on_c, 2, 75, 0
2, 94342, Note_on_c, 2, 74, 0
2, 94448, Note_on_c, 2, 46, 47
2, 94448, Note_on_c, 2, 53, 42
2, 94448, Note_on_c, 2, 62, 55
2, 94448, Note_on_c, 2, 68, 65
2, 94472, Control_c, 2, 64, 0
2, 94498, Note_on_c, 2, 68, 0
2, 94498, Note_on_c, 2, 46, 0
2, 94498, Note_on_c, 2, 53, 0
2, 94498, Note_on_c, 2, 62, 0
2, 94568, Note_on_c, 2, 46, 47
2, 94568, Note_on_c, 2, 53, 46
2, 94568, Note_on_c, 2, 62, 49
2, 94568, Note_on_c, 2, 68, 55
2, 94618, Note_on_c, 2, 68, 0
2, 94618, Note_on_c, 2, 46, 0
2, 94618, Note_on_c, 2, 53, 0
2, 94618, Note_on_c, 2, 62, 0
2, 94686, Note_on_c, 2, 46, 45
2, 94686, Note_on_c, 2, 53, 42
2, 94686, Note_on_c, 2, 62, 51
2, 94686, Note_on_c, 2, 68, 55
2, 94759, Note_on_c, 2, 46, 0
2, 94762, Note_on_c, 2, 68, 0
2, 94764, Note_on_c, 2, 62, 0
2, 94764, Note_on_c, 2, 53, 0
2, 94818, Note_on_c, 2, 62, 48
2, 94818, Note_on_c, 2, 68, 50
2, 94819, Note_on_c, 2, 53, 23
2, 94819, Note_on_c, 2, 46, 28
2, 94905, Control_c, 2, 64, 127
2, 94951, Note_on_c, 2, 62, 0
2, 94972, Note_on_c, 2, 68, 0
2, 95005, Note_on_c, 2, 46, 0
2, 95022, Note_on_c, 2, 53, 0
2, 95272, Note_on_c, 2, 74, 46
2, 95272, Note_on_c, 2, 80, 49
2, 95274, Note_on_c, 2, 58, 45
2, 95274, Note_on_c, 2, 65, 41
2, 95274, Control_c, 2, 64, 0
2, 95323, Note_on_c, 2, 80, 0
2, 95323, Note_on_c, 2, 74, 0
2, 95325, Note_on_c, 2, 58, 0
2, 95325, Note_on_c, 2, 65, 0
2, 95394, Control_c, 2, 64, 127
2, 95398, Note_on_c, 2, 58, 30
2, 95398, Note_on_c, 2, 65, 31
2, 95398, Note_on_c, 2, 74, 40
2, 95398, Note_on_c, 2, 80, 39
2, 95440, Note_on_c, 2, 58, 0
2, 95444, Note_on_c, 2, 65, 0
2, 95444, Note_on_c, 2, 80, 0
2, 95449, Note_on_c, 2, 74, 0
2, 95530, Note_on_c, 2, 58, 27
2, 95530, Note_on_c, 2, 65, 14
2, 95530, Note_on_c, 2, 74, 25
2, 95530, Note_on_c, 2, 80, 36
2, 95568, Note_on_c, 2, 58, 0
2, 95573, Note_on_c, 2, 65, 0
2, 95577, Note_on_c, 2, 74, 0
2, 95578, Note_on_c, 2, 80, 0
2, 95672, Note_on_c, 2, 58, 29
2, 95672, Note_on_c, 2, 65, 23
2, 95672, Note_on_c, 2, 74, 28
2, 95672, Note_on_c, 2, 80, 35
2, 95676, Control_c, 2, 64, 0
2, 95705, Note_on_c, 2, 74, 0
2, 95706, Control_c, 2, 64, 127
2, 95710, Note_on_c, 2, 80, 0
2, 95734, Note_on_c, 2, 82, 54
2, 95751, Note_on_c, 2, 80, 53
2, 95760, Note_on_c, 2, 82, 0
2, 95764, Note_on_c, 2, 79, 47
2, 95768, Control_c, 2, 64, 0
2, 95772, Note_on_c, 2, 80, 0
2, 95785, Note_on_c, 2, 80, 43
2, 95797, Note_on_c, 2, 82, 47
2, 95806, Note_on_c, 2, 79, 0
2, 95818, Note_on_c, 2, 80, 0
2, 95864, Note_on_c, 2, 84, 53
2, 95872, Note_on_c, 2, 82, 0
2, 95939, Note_on_c, 2, 82, 56
2, 95947, Note_on_c, 2, 84, 0
2, 96010, Note_on_c, 2, 80, 41
2, 96014, Control_c, 2, 64, 127
2, 96026, Note_on_c, 2, 82, 0
2, 96084, Note_on_c, 2, 79, 45
2, 96089, Note_on_c, 2, 80, 0
2, 96135, Note_on_c, 2, 79, 0
2, 96160, Note_on_c, 2, 77, 38
2, 96201, Note_on_c, 2, 77, 0
2, 96239, Note_on_c, 2, 75, 42
2, 96326, Note_on_c, 2, 74, 39
2, 96339, Note_on_c, 2, 75, 0
2, 96372, Note_on_c, 2, 65, 0
2, 96418, Note_on_c, 2, 74, 0
2, 96427, Note_on_c, 2, 72, 39
2, 96464, Note_on_c, 2, 72, 0
2, 96476, Note_on_c, 2, 58, 0
2, 96551, Note_on_c, 2, 70, 45
2, 96626, Note_on_c, 2, 70, 0
2, 96710, Note_on_c, 2, 51, 31
2, 96710, Note_on_c, 2, 67, 29
2, 96710, Note_on_c, 2, 70, 40
2, 96723, Control_c, 2, 64, 0
2, 96810, Control_c, 2, 64, 127
2, 96864, Note_on_c, 2, 70, 0
2, 96877, Note_on_c, 2, 72, 46
2, 96902, Note_on_c, 2, 70, 40
2, 96914, Control_c, 2, 64, 0
2, 96918, Note_on_c, 2, 72, 0
2, 96935, Note_on_c, 2, 65, 46
2, 96935, Note_on_c, 2, 68, 48
2, 96942, Note_on_c, 2, 67, 0
2, 96948, Control_c, 2, 64, 127
2, 96952, Note_on_c, 2, 70, 0
2, 96993, Note_on_c, 2, 65, 0
2, 97006, Note_on_c, 2, 68, 0
2, 97048, Note_on_c, 2, 63, 49
2, 97048, Note_on_c, 2, 67, 52
2, 97056, Control_c, 2, 64, 0
2, 97085, Control_c, 2, 64, 127
2, 97102, Note_on_c, 2, 67, 0
2, 97114, Note_on_c, 2, 63, 0
2, 97164, Note_on_c, 2, 68, 49
2, 97165, Note_on_c, 2, 72, 52
2, 97268, Note_on_c, 2, 72, 0
2, 97272, Note_on_c, 2, 68, 0
2, 97277, Note_on_c, 2, 70, 46
2, 97277, Note_on_c, 2, 67, 40
2, 97322, Note_on_c, 2, 51, 0
2, 97331, Note_on_c, 2, 67, 0
2, 97343, Note_on_c, 2, 70, 0
2, 97377, Note_on_c, 2, 70, 55
2, 97377, Note_on_c, 2, 67, 54
2, 97378, Note_on_c, 2, 51, 41
2, 97410, Control_c, 2, 64, 0
2, 97435, Note_on_c, 2, 55, 45
2, 97456, Control_c, 2, 64, 127
2, 97464, Note_on_c, 2, 51, 0
2, 97494, Note_on_c, 2, 58, 41
2, 97523, Note_on_c, 2, 55, 0
2, 97539, Note_on_c, 2, 70, 0
2, 97548, Note_on_c, 2, 51, 55
2, 97548, Note_on_c, 2, 72, 54
2, 97564, Note_on_c, 2, 51, 0
2, 97573, Note_on_c, 2, 58, 0
2, 97573, Note_on_c, 2, 70, 54
2, 97581, Note_on_c, 2, 67, 0
2, 97581, Note_on_c, 2, 72, 0
2, 97602, Note_on_c, 2, 53, 56
2, 97602, Note_on_c, 2, 68, 59
2, 97602, Note_on_c, 2, 65, 57
2, 97614, Note_on_c, 2, 70, 0
2, 97618, Control_c, 2, 64, 0
2, 97652, Note_on_c, 2, 56, 40
2, 97669, Control_c, 2, 64, 127
2, 97696, Note_on_c, 2, 53, 0
2, 97715, Note_on_c, 2, 62, 43
2, 97735, Note_on_c, 2, 56, 0
2, 97765, Note_on_c, 2, 53, 53
2, 97777, Note_on_c, 2, 62, 0
2, 97786, Note_on_c, 2, 53, 0
2, 97823, Note_on_c, 2, 55, 47
2, 97824, Note_on_c, 2, 67, 60
2, 97831, Note_on_c, 2, 68, 0
2, 97831, Note_on_c, 2, 65, 0
2, 97856, Control_c, 2, 64, 0
2, 97877, Note_on_c, 2, 58, 38
2, 97894, Control_c, 2, 64, 127
2, 97931, Note_on_c, 2, 63, 40
2, 97935, Note_on_c, 2, 55, 0
2, 97948, Note_on_c, 2, 58, 0
2, 97981, Note_on_c, 2, 63, 0
2, 97981, Note_on_c, 2, 55, 45
2, 98027, Note_on_c, 2, 55, 0
2, 98040, Note_on_c, 2, 60, 45
2, 98040, Note_on_c, 2, 56, 45
2, 98081, Control_c, 2, 64, 0
2, 98090, Note_on_c, 2, 67, 0
2, 98093, Note_on_c, 2, 64, 48
2, 98152, Note_on_c, 2, 65, 38
2, 98181, Note_on_c, 2, 64, 0
2, 98206, Note_on_c, 2, 67, 39
2, 98218, Note_on_c, 2, 65, 0
2, 98260, Note_on_c, 2, 68, 46
2, 98265, Control_c, 2, 64, 127
2, 98269, Note_on_c, 2, 67, 0
2, 98310, Note_on_c, 2, 68, 0
2, 98319, Note_on_c, 2, 69, 44
2, 98382, Note_on_c, 2, 69, 0
2, 98382, Note_on_c, 2, 70, 37
2, 98440, Note_on_c, 2, 70, 0
2, 98444, Note_on_c, 2, 71, 40
2, 98473, Note_on_c, 2, 56, 0
2, 98478, Note_on_c, 2, 60, 0
2, 98511, Note_on_c, 2, 56, 33
2, 98511, Note_on_c, 2, 60, 31
2, 98511, Note_on_c, 2, 74, 56
2, 98527, Note_on_c, 2, 71, 0
2, 98540, Control_c, 2, 64, 0
2, 98548, Note_on_c, 2, 72, 48
2, 98564, Note_on_c, 2, 74, 0
2, 98577, Note_on_c, 2, 72, 0
2, 98578, Note_on_c, 2, 71, 41
2, 98586, Control_c, 2, 64, 127
2, 98602, Note_on_c, 2, 71, 0
2, 98602, Note_on_c, 2, 72, 54
2, 98635, Note_on_c, 2, 70, 66
2, 98648, Note_on_c, 2, 72, 0
2, 98662, Note_on_c, 2, 60, 0
2, 98664, Note_on_c, 2, 68, 52
2, 98678, Note_on_c, 2, 70, 0
2, 98681, Note_on_c, 2, 56, 0
2, 98690, Note_on_c, 2, 67, 53
2, 98694, Note_on_c, 2, 68, 0
2, 98714, Note_on_c, 2, 67, 0
2, 98723, Note_on_c, 2, 65, 48
2, 98735, Note_on_c, 2, 65, 0
2, 98769, Note_on_c, 2, 45, 68
2, 98769, Note_on_c, 2, 55, 59
2, 98769, Note_on_c, 2, 63, 66
2, 98798, Control_c, 2, 64, 0
2, 98832, Note_on_c, 2, 46, 57
2, 98839, Note_on_c, 2, 45, 0
2, 98844, Control_c, 2, 64, 127
2, 98882, Note_on_c, 2, 46, 0
2, 98882, Note_on_c, 2, 48, 47
2, 98919, Note_on_c, 2, 63, 0
2, 98931, Note_on_c, 2, 48, 0
2, 98936, Note_on_c, 2, 55, 0
2, 98936, Note_on_c, 2, 46, 45
2, 98960, Note_on_c, 2, 46, 0
2, 98994, Note_on_c, 2, 53, 54
2, 98994, Note_on_c, 2, 62, 63
2, 98998, Note_on_c, 2, 46, 65
2, 98998, Control_c, 2, 64, 0
2, 99019, Note_on_c, 2, 53, 0
2, 99023, Note_on_c, 2, 58, 68
2, 99028, Control_c, 2, 64, 127
2, 99052, Note_on_c, 2, 58, 0
2, 99052, Note_on_c, 2, 57, 57
2, 99073, Note_on_c, 2, 57, 0
2, 99078, Note_on_c, 2, 58, 68
2, 99082, Control_c, 2, 64, 0
2, 99086, Note_on_c, 2, 62, 0
2, 99098, Note_on_c, 2, 58, 0
2, 99098, Note_on_c, 2, 59, 66
2, 99102, Control_c, 2, 64, 127
2, 99127, Note_on_c, 2, 60, 65
2, 99132, Note_on_c, 2, 59, 0
2, 99153, Note_on_c, 2, 61, 63
2, 99161, Note_on_c, 2, 60, 0
2, 99177, Note_on_c, 2, 61, 0
2, 99182, Note_on_c, 2, 62, 56
2, 99202, Note_on_c, 2, 63, 68
2, 99206, Note_on_c, 2, 62, 0
2, 99228, Note_on_c, 2, 63, 0
2, 99232, Note_on_c, 2, 64, 63
2, 99257, Note_on_c, 2, 65, 54
2, 99260, Note_on_c, 2, 64, 0
2, 99277, Note_on_c, 2, 66, 65
2, 99286, Note_on_c, 2, 65, 0
2, 99303, Note_on_c, 2, 66, 0
2, 99307, Note_on_c, 2, 67, 47
2, 99327, Note_on_c, 2, 67, 0
2, 99332, Note_on_c, 2, 68, 68
2, 99352, Note_on_c, 2, 68, 0
2, 99365, Note_on_c, 2, 69, 55
2, 99373, Note_on_c, 2, 46, 0
2, 99386, Note_on_c, 2, 69, 0
2, 99386, Note_on_c, 2, 70, 48
2, 99398, Note_on_c, 2, 70, 0
2, 99419, Note_on_c, 2, 39, 54
2, 99419, Note_on_c, 2, 51, 55
2, 99419, Note_on_c, 2, 67, 59
2, 99419, Note_on_c, 2, 70, 72
2, 99432, Control_c, 2, 64, 0
2, 99461, Control_c, 2, 64, 127
2, 99532, Note_on_c, 2, 70, 0
2, 99540, Note_on_c, 2, 67, 0
2, 99574, Note_on_c, 2, 72, 62
2, 99599, Note_on_c, 2, 70, 65
2, 99611, Note_on_c, 2, 72, 0
2, 99628, Note_on_c, 2, 68, 45
2, 99640, Note_on_c, 2, 70, 0
2, 99648, Note_on_c, 2, 67, 36
2, 99665, Note_on_c, 2, 68, 0
2, 99678, Note_on_c, 2, 72, 38
2, 99698, Note_on_c, 2, 67, 0
2, 99698, Note_on_c, 2, 70, 53
2, 99702, Note_on_c, 2, 72, 0
2, 99706, Note_on_c, 2, 70, 0
2, 99732, Note_on_c, 2, 75, 55
2, 99756, Note_on_c, 2, 74, 55
2, 99761, Note_on_c, 2, 75, 0
2, 99777, Note_on_c, 2, 39, 0
2, 99784, Note_on_c, 2, 77, 55
2, 99785, Note_on_c, 2, 74, 0
2, 99790, Note_on_c, 2, 51, 0
2, 99796, Note_on_c, 2, 77, 0
2, 99807, Note_on_c, 2, 75, 55
2, 99827, Note_on_c, 2, 75, 0
2, 99846, Note_on_c, 2, 51, 49
2, 99846, Note_on_c, 2, 60, 45
2, 99846, Note_on_c, 2, 80, 60
2, 99846, Note_on_c, 2, 60, 46
2, 99852, Control_c, 2, 64, 0
2, 99878, Control_c, 2, 64, 127
2, 99878, Note_on_c, 2, 79, 56
2, 99898, Note_on_c, 2, 79, 0
2, 99898, Note_on_c, 2, 78, 46
2, 99908, Note_on_c, 2, 80, 0
2, 99918, Note_on_c, 2, 60, 0
2, 99923, Note_on_c, 2, 78, 0
2, 99923, Note_on_c, 2, 79, 65
2, 99948, Note_on_c, 2, 77, 56
2, 99956, Note_on_c, 2, 79, 0
2, 99978, Note_on_c, 2, 75, 56
2, 99984, Note_on_c, 2, 51, 0
2, 99990, Note_on_c, 2, 77, 0
2, 100002, Note_on_c, 2, 74, 46
2, 100009, Note_on_c, 2, 60, 0
2, 100023, Note_on_c, 2, 75, 0
2, 100028, Note_on_c, 2, 74, 0
2, 100028, Note_on_c, 2, 72, 66
2, 100057, Note_on_c, 2, 53, 73
2, 100057, Note_on_c, 2, 60, 67
2, 100057, Note_on_c, 2, 70, 88
2, 100065, Note_on_c, 2, 72, 0
2, 100070, Control_c, 2, 64, 0
2, 100127, Control_c, 2, 64, 127
2, 100170, Note_on_c, 2, 70, 0
2, 100173, Note_on_c, 2, 69, 68
2, 100215, Note_on_c, 2, 60, 0
2, 100236, Note_on_c, 2, 53, 0
2, 100278, Note_on_c, 2, 62, 45
2, 100278, Note_on_c, 2, 58, 53
2, 100286, Control_c, 2, 64, 0
2, 100315, Control_c, 2, 64, 127
2, 100348, Note_on_c, 2, 62, 0
2, 100349, Note_on_c, 2, 58, 0
2, 100353, Note_on_c, 2, 69, 0
2, 100390, Note_on_c, 2, 59, 62
2, 100390, Note_on_c, 2, 62, 47
2, 100390, Note_on_c, 2, 68, 62
2, 100399, Control_c, 2, 64, 0
2, 100420, Control_c, 2, 64, 127
2, 100444, Note_on_c, 2, 62, 0
2, 100448, Note_on_c, 2, 59, 0
2, 100504, Note_on_c, 2, 63, 60
2, 100504, Note_on_c, 2, 60, 65
2, 100540, Control_c, 2, 64, 0
2, 100549, Note_on_c, 2, 68, 0
2, 100557, Note_on_c, 2, 67, 57
2, 100607, Control_c, 2, 64, 127
2, 100615, Note_on_c, 2, 60, 0
2, 100616, Note_on_c, 2, 55, 49
2, 100616, Note_on_c, 2, 75, 51
2, 100669, Note_on_c, 2, 67, 0
2, 100669, Note_on_c, 2, 73, 57
2, 100671, Note_on_c, 2, 55, 0
2, 100677, Note_on_c, 2, 75, 0
2, 100687, Note_on_c, 2, 63, 0
2, 100724, Note_on_c, 2, 73, 0
2, 100724, Note_on_c, 2, 71, 51
2, 100724, Note_on_c, 2, 63, 42
2, 100724, Note_on_c, 2, 56, 46
2, 100745, Control_c, 2, 64, 0
2, 100786, Note_on_c, 2, 72, 50
2, 100794, Note_on_c, 2, 71, 0
2, 100816, Control_c, 2, 64, 127
2, 100836, Note_on_c, 2, 74, 47
2, 100840, Note_on_c, 2, 63, 0
2, 100844, Note_on_c, 2, 72, 0
2, 100856, Note_on_c, 2, 56, 0
2, 100890, Note_on_c, 2, 74, 0
2, 100895, Note_on_c, 2, 75, 33
2, 100924, Note_on_c, 2, 75, 0
2, 100966, Note_on_c, 2, 75, 35
2, 100966, Note_on_c, 2, 46, 34
2, 100966, Note_on_c, 2, 55, 29
2, 100991, Control_c, 2, 64, 0
2, 101041, Control_c, 2, 64, 127
2, 101078, Note_on_c, 2, 55, 0
2, 101103, Note_on_c, 2, 55, 28
2, 101103, Note_on_c, 2, 70, 35
2, 101115, Note_on_c, 2, 75, 0
2, 101149, Note_on_c, 2, 46, 0
2, 101158, Note_on_c, 2, 55, 0
2, 101244, Note_on_c, 2, 56, 35
2, 101249, Note_on_c, 2, 46, 34
2, 101261, Control_c, 2, 64, 0
2, 101312, Control_c, 2, 64, 127
2, 101312, Note_on_c, 2, 72, 48
2, 101315, Note_on_c, 2, 70, 0
2, 101348, Note_on_c, 2, 70, 56
2, 101353, Note_on_c, 2, 56, 0
2, 101357, Note_on_c, 2, 72, 0
2, 101366, Note_on_c, 2, 70, 0
2, 101378, Note_on_c, 2, 56, 32
2, 101382, Note_on_c, 2, 70, 45
2, 101390, Note_on_c, 2, 46, 0
2, 101407, Note_on_c, 2, 68, 32
2, 101424, Note_on_c, 2, 70, 0
2, 101424, Note_on_c, 2, 56, 0
2, 101437, Note_on_c, 2, 67, 47
2, 101440, Note_on_c, 2, 68, 0
2, 101470, Note_on_c, 2, 67, 0
2, 101478, Note_on_c, 2, 65, 36
2, 101512, Note_on_c, 2, 51, 36
2, 101515, Note_on_c, 2, 63, 59
2, 101520, Note_on_c, 2, 65, 0
2, 101540, Control_c, 2, 64, 0
2, 101578, Note_on_c, 2, 55, 40
2, 101598, Control_c, 2, 64, 127
2, 101632, Note_on_c, 2, 55, 0
2, 101636, Note_on_c, 2, 58, 32
2, 101687, Note_on_c, 2, 51, 0
2, 101690, Note_on_c, 2, 55, 39
2, 101719, Note_on_c, 2, 58, 0
2, 101736, Note_on_c, 2, 55, 0
2, 101749, Note_on_c, 2, 51, 30
2, 101757, Note_on_c, 2, 63, 0
2, 101807, Note_on_c, 2, 55, 40
2, 101861, Note_on_c, 2, 55, 0
2, 101862, Note_on_c, 2, 58, 36
2, 101862, Note_on_c, 2, 67, 45
2, 101862, Note_on_c, 2, 70, 39
2, 101916, Note_on_c, 2, 51, 0
2, 101916, Note_on_c, 2, 55, 40
2, 101928, Note_on_c, 2, 70, 0
2, 101929, Note_on_c, 2, 58, 0
2, 101932, Note_on_c, 2, 67, 0
2, 101966, Note_on_c, 2, 55, 0
2, 101974, Note_on_c, 2, 51, 38
2, 101974, Note_on_c, 2, 67, 40
2, 101974, Note_on_c, 2, 70, 44
2, 102028, Note_on_c, 2, 55, 25
2, 102032, Note_on_c, 2, 70, 0
2, 102036, Note_on_c, 2, 67, 0
2, 102061, Note_on_c, 2, 51, 0
2, 102078, Note_on_c, 2, 51, 11
2, 102086, Note_on_c, 2, 55, 0
2, 102087, Note_on_c, 2, 58, 35
2, 102087, Note_on_c, 2, 70, 41
2, 102087, Note_on_c, 2, 67, 41
2, 102124, Note_on_c, 2, 67, 0
2, 102128, Note_on_c, 2, 70, 0
2, 102141, Note_on_c, 2, 51, 0
2, 102144, Note_on_c, 2, 55, 39
2, 102203, Note_on_c, 2, 55, 0
2, 102208, Note_on_c, 2, 68, 42
2, 102208, Note_on_c, 2, 51, 36
2, 102208, Note_on_c, 2, 75, 49
2, 102212, Note_on_c, 2, 58, 0
2, 102241, Control_c, 2, 64, 0
2, 102266, Note_on_c, 2, 53, 42
2, 102324, Note_on_c, 2, 74, 56
2, 102328, Control_c, 2, 64, 127
2, 102328, Note_on_c, 2, 56, 39
2, 102332, Note_on_c, 2, 53, 0
2, 102333, Note_on_c, 2, 75, 0
2, 102367, Note_on_c, 2, 68, 0
2, 102378, Note_on_c, 2, 51, 0
2, 102383, Note_on_c, 2, 53, 36
2, 102436, Note_on_c, 2, 53, 0
2, 102436, Note_on_c, 2, 56, 0
2, 102444, Note_on_c, 2, 51, 47
2, 102508, Note_on_c, 2, 53, 31
2, 102562, Note_on_c, 2, 53, 0
2, 102562, Note_on_c, 2, 82, 47
2, 102562, Note_on_c, 2, 56, 35
2, 102574, Note_on_c, 2, 74, 0
2, 102616, Note_on_c, 2, 51, 0
2, 102617, Note_on_c, 2, 53, 37
2, 102617, Note_on_c, 2, 80, 36
2, 102641, Note_on_c, 2, 82, 0
2, 102645, Note_on_c, 2, 80, 0
2, 102662, Note_on_c, 2, 56, 0
2, 102666, Note_on_c, 2, 53, 0
2, 102674, Note_on_c, 2, 51, 28
2, 102678, Note_on_c, 2, 79, 40
2, 102728, Note_on_c, 2, 79, 0
2, 102733, Note_on_c, 2, 53, 34
2, 102733, Note_on_c, 2, 77, 40
2, 102786, Note_on_c, 2, 56, 30
2, 102786, Note_on_c, 2, 75, 38
2, 102795, Note_on_c, 2, 53, 0
2, 102799, Note_on_c, 2, 77, 0
2, 102816, Note_on_c, 2, 56, 0
2, 102845, Note_on_c, 2, 74, 44
2, 102849, Note_on_c, 2, 51, 0
2, 102850, Note_on_c, 2, 75, 0
2, 102850, Note_on_c, 2, 56, 37
2, 102874, Note_on_c, 2, 56, 0
2, 102874, Note_on_c, 2, 74, 0
2, 102904, Note_on_c, 2, 51, 40
2, 102904, Note_on_c, 2, 77, 59
2, 102916, Note_on_c, 2, 75, 59
2, 102920, Note_on_c, 2, 77, 0
2, 102924, Control_c, 2, 64, 0
2, 102932, Note_on_c, 2, 75, 0
2, 102933, Note_on_c, 2, 77, 51
2, 102949, Note_on_c, 2, 75, 55
2, 102950, Control_c, 2, 64, 127
2, 102958, Note_on_c, 2, 77, 0
2, 102962, Note_on_c, 2, 55, 29
2, 102988, Note_on_c, 2, 51, 0
2, 103008, Note_on_c, 2, 75, 0
2, 103012, Note_on_c, 2, 55, 0
2, 103016, Note_on_c, 2, 51, 15
2, 103020, Note_on_c, 2, 58, 36
2, 103058, Note_on_c, 2, 51, 0
2, 103074, Note_on_c, 2, 55, 42
2, 103074, Note_on_c, 2, 74, 47
2, 103095, Note_on_c, 2, 58, 0
2, 103099, Note_on_c, 2, 72, 44
2, 103112, Note_on_c, 2, 74, 0
2, 103120, Note_on_c, 2, 55, 0
2, 103124, Note_on_c, 2, 70, 66
2, 103128, Note_on_c, 2, 51, 36
2, 103133, Note_on_c, 2, 72, 0
2, 103162, Control_c, 2, 64, 0
2, 103183, Note_on_c, 2, 55, 40
2, 103191, Control_c, 2, 64, 127
2, 103207, Note_on_c, 2, 70, 0
2, 103237, Note_on_c, 2, 58, 37
2, 103237, Note_on_c, 2, 67, 45
2, 103238, Note_on_c, 2, 70, 40
2, 103241, Note_on_c, 2, 55, 0
2, 103287, Note_on_c, 2, 51, 0
2, 103291, Note_on_c, 2, 55, 40
2, 103299, Note_on_c, 2, 67, 0
2, 103299, Note_on_c, 2, 70, 0
2, 103312, Note_on_c, 2, 58, 0
2, 103345, Note_on_c, 2, 55, 0
2, 103349, Note_on_c, 2, 51, 43
2, 103354, Note_on_c, 2, 67, 46
2, 103354, Note_on_c, 2, 70, 55
2, 103408, Note_on_c, 2, 55, 41
2, 103420, Note_on_c, 2, 70, 0
2, 103420, Note_on_c, 2, 51, 0
2, 103420, Note_on_c, 2, 67, 0
2, 103466, Note_on_c, 2, 55, 0
2, 103466, Note_on_c, 2, 58, 35
2, 103466, Note_on_c, 2, 67, 46
2, 103466, Note_on_c, 2, 70, 47
2, 103483, Note_on_c, 2, 51, 14
2, 103500, Note_on_c, 2, 67, 0
2, 103504, Note_on_c, 2, 51, 0
2, 103508, Note_on_c, 2, 70, 0
2, 103528, Note_on_c, 2, 55, 41
2, 103591, Note_on_c, 2, 58, 0
2, 103595, Note_on_c, 2, 55, 0
2, 103599, Note_on_c, 2, 51, 46
2, 103599, Note_on_c, 2, 68, 42
2, 103599, Note_on_c, 2, 75, 46
2, 103629, Control_c, 2, 64, 0
2, 103658, Note_on_c, 2, 53, 31
2, 103678, Control_c, 2, 64, 127
2, 103691, Note_on_c, 2, 74, 57
2, 103700, Note_on_c, 2, 75, 0
2, 103703, Note_on_c, 2, 68, 0
2, 103704, Note_on_c, 2, 74, 0
2, 103728, Note_on_c, 2, 53, 0
2, 103733, Note_on_c, 2, 56, 39
2, 103733, Note_on_c, 2, 84, 62
2, 103787, Note_on_c, 2, 51, 0
2, 103791, Note_on_c, 2, 53, 31
2, 103846, Note_on_c, 2, 56, 0
2, 103850, Note_on_c, 2, 53, 0
2, 103858, Note_on_c, 2, 51, 42
2, 103912, Note_on_c, 2, 53, 39
2, 103932, Note_on_c, 2, 84, 0
2, 103970, Note_on_c, 2, 53, 0
2, 103970, Note_on_c, 2, 56, 42
2, 103970, Note_on_c, 2, 82, 52
2, 103992, Note_on_c, 2, 80, 53
2, 104000, Note_on_c, 2, 82, 0
2, 104020, Note_on_c, 2, 51, 0
2, 104024, Note_on_c, 2, 80, 0
2, 104024, Note_on_c, 2, 84, 62
2, 104054, Note_on_c, 2, 80, 50
2, 104062, Note_on_c, 2, 84, 0
2, 104078, Note_on_c, 2, 51, 38
2, 104078, Note_on_c, 2, 79, 60
2, 104095, Note_on_c, 2, 56, 0
2, 104096, Note_on_c, 2, 80, 0
2, 104112, Note_on_c, 2, 79, 0
2, 104112, Note_on_c, 2, 77, 48
2, 104133, Note_on_c, 2, 77, 0
2, 104137, Note_on_c, 2, 53, 45
2, 104137, Note_on_c, 2, 80, 50
2, 104167, Note_on_c, 2, 80, 0
2, 104167, Note_on_c, 2, 77, 55
2, 104183, Note_on_c, 2, 77, 0
2, 104187, Note_on_c, 2, 53, 0
2, 104196, Note_on_c, 2, 56, 36
2, 104196, Note_on_c, 2, 75, 52
2, 104216, Note_on_c, 2, 75, 0
2, 104220, Note_on_c, 2, 74, 41
2, 104245, Note_on_c, 2, 74, 0
2, 104245, Note_on_c, 2, 53, 40
2, 104245, Note_on_c, 2, 77, 55
2, 104249, Note_on_c, 2, 56, 0
2, 104261, Note_on_c, 2, 51, 0
2, 104274, Note_on_c, 2, 53, 0
2, 104283, Note_on_c, 2, 74, 52
2, 104287, Note_on_c, 2, 77, 0
2, 104304, Note_on_c, 2, 75, 68
2, 104304, Note_on_c, 2, 51, 51
2, 104304, Note_on_c, 2, 55, 45
2, 104320, Note_on_c, 2, 74, 0
2, 104329, Note_on_c, 2, 75, 0
2, 104333, Control_c, 2, 64, 0
2, 104366, Note_on_c, 2, 77, 54
2, 104379, Note_on_c, 2, 75, 68
2, 104391, Note_on_c, 2, 77, 0
2, 104400, Note_on_c, 2, 75, 0
2, 104404, Note_on_c, 2, 74, 57
2, 104425, Note_on_c, 2, 75, 46
2, 104450, Note_on_c, 2, 77, 48
2, 104458, Note_on_c, 2, 75, 0
2, 104458, Note_on_c, 2, 74, 0
2, 104483, Note_on_c, 2, 78, 50
2, 104491, Note_on_c, 2, 77, 0
2, 104508, Note_on_c, 2, 79, 46
2, 104512, Note_on_c, 2, 78, 0
2, 104520, Control_c, 2, 64, 127
2, 104533, Note_on_c, 2, 79, 0
2, 104537, Note_on_c, 2, 70, 62
2, 104545, Note_on_c, 2, 51, 0
2, 104550, Note_on_c, 2, 55, 0
2, 104558, Note_on_c, 2, 70, 0
2, 104646, Control_c, 2, 64, 0
2, 104650, Note_on_c, 2, 70, 55
2, 104650, Note_on_c, 2, 67, 55
2, 104650, Note_on_c, 2, 55, 54
2, 104650, Note_on_c, 2, 58, 48
2, 104675, Control_c, 2, 64, 127
2, 104716, Note_on_c, 2, 67, 0
2, 104720, Note_on_c, 2, 70, 0
2, 104721, Note_on_c, 2, 55, 0
2, 104721, Note_on_c, 2, 58, 0
2, 104754, Note_on_c, 2, 68, 60
2, 104755, Note_on_c, 2, 56, 53
2, 104755, Note_on_c, 2, 60, 44
2, 104755, Note_on_c, 2, 65, 51
2, 104758, Control_c, 2, 64, 0
2, 104787, Control_c, 2, 64, 127
2, 104812, Note_on_c, 2, 56, 0
2, 104825, Note_on_c, 2, 65, 0
2, 104829, Note_on_c, 2, 60, 0
2, 104829, Note_on_c, 2, 68, 0
2, 104862, Control_c, 2, 64, 0
2, 104866, Note_on_c, 2, 67, 59
2, 104866, Note_on_c, 2, 63, 59
2, 104866, Note_on_c, 2, 60, 40
2, 104866, Note_on_c, 2, 57, 48
2, 104887, Control_c, 2, 64, 127
2, 104908, Note_on_c, 2, 57, 0
2, 104915, Note_on_c, 2, 67, 0
2, 104933, Note_on_c, 2, 60, 0
2, 104936, Note_on_c, 2, 63, 0
2, 104972, Note_on_c, 2, 58, 59
2, 104972, Note_on_c, 2, 63, 54
2, 104972, Note_on_c, 2, 70, 56
2, 104975, Control_c, 2, 64, 0
2, 105016, Control_c, 2, 64, 127
2, 105020, Note_on_c, 2, 63, 0
2, 105021, Note_on_c, 2, 70, 0
2, 105029, Note_on_c, 2, 69, 56
2, 105066, Note_on_c, 2, 69, 0
2, 105083, Note_on_c, 2, 70, 51
2, 105133, Note_on_c, 2, 70, 0
2, 105133, Note_on_c, 2, 67, 56
2, 105183, Note_on_c, 2, 67, 0
2, 105187, Note_on_c, 2, 65, 66
2, 105187, Note_on_c, 2, 62, 57
2, 105216, Control_c, 2, 64, 0
2, 105237, Note_on_c, 2, 59, 65
2, 105247, Note_on_c, 2, 58, 0
2, 105287, Note_on_c, 2, 59, 0
2, 105288, Control_c, 2, 64, 127
2, 105288, Note_on_c, 2, 60, 66
2, 105338, Note_on_c, 2, 58, 56
2, 105346, Note_on_c, 2, 60, 0
2, 105354, Note_on_c, 2, 58, 0
2, 105392, Note_on_c, 2, 58, 70
2, 105408, Control_c, 2, 64, 0
2, 105442, Control_c, 2, 64, 127
2, 105442, Note_on_c, 2, 56, 56
2, 105454, Note_on_c, 2, 58, 0
2, 105484, Note_on_c, 2, 56, 0
2, 105496, Note_on_c, 2, 55, 54
2, 105517, Note_on_c, 2, 62, 0
2, 105521, Note_on_c, 2, 65, 0
2, 105554, Note_on_c, 2, 55, 0
2, 105560, Note_on_c, 2, 53, 56
2, 105596, Note_on_c, 2, 70, 60
2, 105605, Note_on_c, 2, 53, 0
2, 105608, Note_on_c, 2, 51, 62
2, 105608, Note_on_c, 2, 82, 63
2, 105621, Control_c, 2, 64, 0
2, 105704, Note_on_c, 2, 55, 53
2, 105800, Control_c, 2, 64, 127
2, 105808, Note_on_c, 2, 58, 52
2, 105825, Note_on_c, 2, 55, 0
2, 105858, Note_on_c, 2, 70, 0
2, 105912, Note_on_c, 2, 51, 0
2, 105912, Note_on_c, 2, 63, 41
2, 105912, Note_on_c, 2, 80, 53
2, 105917, Note_on_c, 2, 58, 0
2, 105925, Note_on_c, 2, 82, 0
2, 105928, Note_on_c, 2, 63, 0
2, 105941, Note_on_c, 2, 80, 0
2, 105946, Note_on_c, 2, 79, 47
2, 105967, Note_on_c, 2, 77, 49
2, 105979, Note_on_c, 2, 79, 0
2, 105988, Note_on_c, 2, 75, 65
2, 105996, Note_on_c, 2, 77, 0
2, 106017, Note_on_c, 2, 65, 58
2, 106017, Note_on_c, 2, 68, 52
2, 106017, Note_on_c, 2, 74, 68
2, 106020, Note_on_c, 2, 75, 0
2, 106059, Note_on_c, 2, 65, 0
2, 106092, Control_c, 2, 64, 0
2, 106101, Note_on_c, 2, 68, 0
2, 106113, Note_on_c, 2, 74, 0
2, 106122, Note_on_c, 2, 75, 47
2, 106122, Note_on_c, 2, 63, 48
2, 106122, Note_on_c, 2, 67, 52
2, 106125, Control_c, 2, 64, 127
2, 106176, Note_on_c, 2, 63, 0
2, 106179, Note_on_c, 2, 67, 0
2, 106198, Note_on_c, 2, 75, 0
2, 106225, Control_c, 2, 64, 0
2, 106226, Note_on_c, 2, 77, 52
2, 106226, Note_on_c, 2, 74, 53
2, 106226, Note_on_c, 2, 65, 47
2, 106226, Note_on_c, 2, 62, 42
2, 106246, Control_c, 2, 64, 127
2, 106262, Note_on_c, 2, 62, 0
2, 106266, Note_on_c, 2, 77, 0
2, 106275, Note_on_c, 2, 65, 0
2, 106292, Note_on_c, 2, 74, 0
2, 106321, Control_c, 2, 64, 0
2, 106330, Note_on_c, 2, 80, 42
2, 106330, Note_on_c, 2, 63, 51
2, 106330, Note_on_c, 2, 67, 40
2, 106346, Control_c, 2, 64, 127
2, 106354, Note_on_c, 2, 79, 54
2, 106363, Note_on_c, 2, 67, 0
2, 106367, Note_on_c, 2, 80, 0
2, 106371, Note_on_c, 2, 63, 0
2, 106384, Note_on_c, 2, 79, 0
2, 106384, Note_on_c, 2, 77, 46
2, 106409, Note_on_c, 2, 77, 0
2, 106409, Note_on_c, 2, 79, 45
2, 106433, Control_c, 2, 64, 0
2, 106438, Note_on_c, 2, 65, 46
2, 106438, Note_on_c, 2, 77, 63
2, 106438, Note_on_c, 2, 80, 56
2, 106438, Note_on_c, 2, 62, 53
2, 106442, Note_on_c, 2, 79, 0
2, 106466, Control_c, 2, 64, 127
2, 106504, Note_on_c, 2, 77, 0
2, 106533, Note_on_c, 2, 80, 0
2, 106542, Note_on_c, 2, 70, 65
2, 106580, Note_on_c, 2, 70, 0
2, 106650, Note_on_c, 2, 70, 72
2, 106684, Note_on_c, 2, 70, 0
2, 106758, Note_on_c, 2, 70, 83
2, 106796, Note_on_c, 2, 70, 0
2, 106796, Note_on_c, 2, 65, 0
2, 106813, Note_on_c, 2, 62, 0
2, 106867, Note_on_c, 2, 80, 88
2, 106963, Note_on_c, 2, 58, 62
2, 107017, Control_c, 2, 64, 0
2, 107059, Note_on_c, 2, 62, 66
2, 107155, Note_on_c, 2, 65, 55
2, 107155, Note_on_c, 2, 82, 52
2, 107158, Note_on_c, 2, 80, 0
2, 107163, Control_c, 2, 64, 127
2, 107171, Note_on_c, 2, 62, 0
2, 107176, Note_on_c, 2, 58, 0
2, 107177, Note_on_c, 2, 65, 0
2, 107184, Note_on_c, 2, 80, 48
2, 107188, Note_on_c, 2, 82, 0
2, 107204, Note_on_c, 2, 79, 45
2, 107226, Note_on_c, 2, 77, 48
2, 107238, Note_on_c, 2, 80, 0
2, 107255, Note_on_c, 2, 75, 65
2, 107255, Note_on_c, 2, 67, 51
2, 107259, Note_on_c, 2, 79, 0
2, 107259, Control_c, 2, 64, 0
2, 107280, Note_on_c, 2, 77, 0
2, 107284, Control_c, 2, 64, 127
2, 107292, Note_on_c, 2, 67, 0
2, 107326, Note_on_c, 2, 75, 0
2, 107359, Note_on_c, 2, 70, 46
2, 107359, Note_on_c, 2, 68, 49
2, 107359, Note_on_c, 2, 77, 54
2, 107363, Control_c, 2, 64, 0
2, 107388, Control_c, 2, 64, 127
2, 107392, Note_on_c, 2, 68, 0
2, 107425, Note_on_c, 2, 70, 0
2, 107434, Note_on_c, 2, 77, 0
2, 107463, Note_on_c, 2, 75, 49
2, 107463, Note_on_c, 2, 79, 46
2, 107463, Note_on_c, 2, 70, 40
2, 107463, Note_on_c, 2, 67, 43
2, 107484, Note_on_c, 2, 67, 0
2, 107484, Note_on_c, 2, 70, 0
2, 107488, Note_on_c, 2, 79, 0
2, 107513, Note_on_c, 2, 75, 0
2, 107567, Control_c, 2, 64, 0
2, 107568, Note_on_c, 2, 65, 45
2, 107568, Note_on_c, 2, 68, 34
2, 107568, Note_on_c, 2, 82, 41
2, 107592, Note_on_c, 2, 80, 59
2, 107596, Control_c, 2, 64, 127
2, 107601, Note_on_c, 2, 82, 0
2, 107622, Note_on_c, 2, 80, 0
2, 107625, Note_on_c, 2, 79, 41
2, 107646, Note_on_c, 2, 80, 45
2, 107651, Note_on_c, 2, 79, 0
2, 107652, Note_on_c, 2, 68, 0
2, 107653, Note_on_c, 2, 65, 0
2, 107684, Note_on_c, 2, 80, 0
2, 107684, Note_on_c, 2, 63, 52
2, 107684, Note_on_c, 2, 67, 48
2, 107684, Note_on_c, 2, 79, 59
2, 107684, Note_on_c, 2, 82, 65
2, 107686, Control_c, 2, 64, 0
2, 107713, Control_c, 2, 64, 127
2, 107765, Note_on_c, 2, 67, 0
2, 107773, Note_on_c, 2, 63, 0
2, 107792, Note_on_c, 2, 51, 73
2, 107793, Note_on_c, 2, 39, 70
2, 107872, Note_on_c, 2, 51, 0
2, 107873, Note_on_c, 2, 39, 0
2, 107905, Note_on_c, 2, 39, 70
2, 107905, Note_on_c, 2, 51, 70
2, 107985, Note_on_c, 2, 39, 0
2, 107992, Note_on_c, 2, 82, 0
2, 107992, Note_on_c, 2, 79, 0
2, 107994, Note_on_c, 2, 51, 0
2, 108022, Note_on_c, 2, 39, 54
2, 108022, Note_on_c, 2, 51, 54
2, 108068, Control_c, 2, 64, 0
2, 108142, Control_c, 2, 64, 127
2, 108147, Note_on_c, 2, 73, 100
2, 108155, Note_on_c, 2, 39, 0
2, 108163, Note_on_c, 2, 51, 0
2, 108263, Note_on_c, 2, 55, 56
2, 108263, Note_on_c, 2, 63, 48
2, 108317, Note_on_c, 2, 55, 0
2, 108326, Note_on_c, 2, 63, 0
2, 108384, Note_on_c, 2, 63, 45
2, 108384, Note_on_c, 2, 55, 47
2, 108401, Note_on_c, 2, 73, 0
2, 108443, Note_on_c, 2, 75, 46
2, 108451, Note_on_c, 2, 73, 72
2, 108455, Note_on_c, 2, 63, 0
2, 108459, Note_on_c, 2, 55, 0
2, 108468, Note_on_c, 2, 75, 0
2, 108471, Note_on_c, 2, 73, 0
2, 108471, Note_on_c, 2, 72, 52
2, 108492, Note_on_c, 2, 73, 46
2, 108509, Note_on_c, 2, 75, 56
2, 108509, Note_on_c, 2, 55, 47
2, 108509, Note_on_c, 2, 63, 44
2, 108513, Note_on_c, 2, 72, 0
2, 108518, Control_c, 2, 64, 0
2, 108522, Note_on_c, 2, 73, 0
2, 108543, Control_c, 2, 64, 127
2, 108576, Note_on_c, 2, 77, 48
2, 108584, Note_on_c, 2, 63, 0
2, 108588, Note_on_c, 2, 75, 0
2, 108592, Note_on_c, 2, 55, 0
2, 108638, Note_on_c, 2, 63, 34
2, 108639, Note_on_c, 2, 55, 36
2, 108639, Note_on_c, 2, 75, 54
2, 108647, Note_on_c, 2, 77, 0
2, 108710, Note_on_c, 2, 73, 39
2, 108722, Note_on_c, 2, 63, 0
2, 108722, Note_on_c, 2, 75, 0
2, 108730, Note_on_c, 2, 55, 0
2, 108780, Note_on_c, 2, 72, 45
2, 108780, Note_on_c, 2, 63, 29
2, 108780, Note_on_c, 2, 55, 40
2, 108788, Note_on_c, 2, 73, 0
2, 108851, Note_on_c, 2, 72, 0
2, 108851, Note_on_c, 2, 71, 53
2, 108867, Note_on_c, 2, 71, 0
2, 108918, Note_on_c, 2, 71, 60
2, 108955, Note_on_c, 2, 55, 0
2, 108967, Note_on_c, 2, 63, 0
2, 109034, Note_on_c, 2, 55, 40
2, 109034, Note_on_c, 2, 63, 31
2, 109064, Note_on_c, 2, 55, 0
2, 109076, Note_on_c, 2, 63, 0
2, 109164, Note_on_c, 2, 56, 48
2, 109164, Note_on_c, 2, 63, 27
2, 109196, Control_c, 2, 64, 0
2, 109230, Note_on_c, 2, 72, 45
2, 109238, Control_c, 2, 64, 127
2, 109255, Note_on_c, 2, 56, 0
2, 109255, Note_on_c, 2, 71, 0
2, 109260, Note_on_c, 2, 63, 0
2, 109292, Note_on_c, 2, 75, 45
2, 109292, Note_on_c, 2, 56, 40
2, 109292, Note_on_c, 2, 63, 31
2, 109301, Note_on_c, 2, 72, 0
2, 109355, Note_on_c, 2, 74, 46
2, 109364, Note_on_c, 2, 56, 0
2, 109366, Note_on_c, 2, 75, 0
2, 109367, Note_on_c, 2, 63, 0
2, 109422, Note_on_c, 2, 56, 39
2, 109422, Note_on_c, 2, 63, 29
2, 109422, Note_on_c, 2, 77, 47
2, 109426, Note_on_c, 2, 74, 0
2, 109480, Note_on_c, 2, 56, 0
2, 109489, Note_on_c, 2, 77, 0
2, 109489, Note_on_c, 2, 75, 40
2, 109517, Note_on_c, 2, 63, 0
2, 109564, Note_on_c, 2, 57, 39
2, 109564, Note_on_c, 2, 63, 31
2, 109564, Note_on_c, 2, 74, 39
2, 109585, Control_c, 2, 64, 0
2, 109622, Control_c, 2, 64, 127
2, 109630, Note_on_c, 2, 74, 0
2, 109630, Note_on_c, 2, 75, 0
2, 109630, Note_on_c, 2, 72, 44
2, 109652, Note_on_c, 2, 72, 0
2, 109660, Note_on_c, 2, 57, 0
2, 109673, Note_on_c, 2, 63, 0
2, 109710, Note_on_c, 2, 58, 41
2, 109710, Note_on_c, 2, 63, 27
2, 109710, Note_on_c, 2, 70, 56
2, 109755, Note_on_c, 2, 70, 0
2, 109756, Control_c, 2, 64, 0
2, 109759, Note_on_c, 2, 71, 48
2, 109789, Control_c, 2, 64, 127
2, 109802, Note_on_c, 2, 72, 50
2, 109818, Note_on_c, 2, 63, 0
2, 109851, Note_on_c, 2, 71, 0
2, 109855, Note_on_c, 2, 72, 0
2, 109855, Note_on_c, 2, 63, 34
2, 109855, Note_on_c, 2, 73, 48
2, 109884, Note_on_c, 2, 58, 0
2, 109897, Note_on_c, 2, 74, 49
2, 109905, Note_on_c, 2, 73, 0
2, 109938, Note_on_c, 2, 74, 0
2, 109940, Note_on_c, 2, 63, 0
2, 109943, Note_on_c, 2, 75, 35
2, 109964, Note_on_c, 2, 75, 0
2, 110001, Note_on_c, 2, 46, 50
2, 110001, Note_on_c, 2, 55, 50
2, 110001, Note_on_c, 2, 75, 54
2, 110034, Control_c, 2, 64, 0
2, 110045, Note_on_c, 2, 63, 44
2, 110080, Note_on_c, 2, 75, 0
2, 110084, Control_c, 2, 64, 127
2, 110112, Note_on_c, 2, 55, 0
2, 110156, Note_on_c, 2, 55, 48
2, 110192, Note_on_c, 2, 46, 0
2, 110210, Note_on_c, 2, 55, 0
2, 110299, Note_on_c, 2, 63, 0
2, 110318, Note_on_c, 2, 46, 26
2, 110318, Note_on_c, 2, 56, 23
2, 110318, Note_on_c, 2, 62, 44
2, 110318, Note_on_c, 2, 67, 32
2, 110326, Control_c, 2, 64, 0
2, 110381, Control_c, 2, 64, 127
2, 110397, Note_on_c, 2, 65, 52
2, 110405, Note_on_c, 2, 67, 0
2, 110412, Note_on_c, 2, 62, 0
2, 110442, Note_on_c, 2, 56, 0
2, 110464, Note_on_c, 2, 63, 45
2, 110464, Note_on_c, 2, 56, 35
2, 110468, Note_on_c, 2, 65, 0
2, 110522, Note_on_c, 2, 65, 50
2, 110531, Note_on_c, 2, 63, 0
2, 110539, Note_on_c, 2, 46, 0
2, 110572, Note_on_c, 2, 56, 0
2, 110589, Note_on_c, 2, 63, 70
2, 110597, Note_on_c, 2, 65, 0
2, 110647, Note_on_c, 2, 51, 62
2, 110680, Control_c, 2, 64, 0
2, 110701, Note_on_c, 2, 55, 50
2, 110731, Control_c, 2, 64, 127
2, 110760, Note_on_c, 2, 58, 52
2, 110768, Note_on_c, 2, 51, 0
2, 110772, Note_on_c, 2, 55, 0
2, 110818, Note_on_c, 2, 56, 40
2, 110830, Note_on_c, 2, 58, 0
2, 110839, Note_on_c, 2, 63, 0
2, 110880, Note_on_c, 2, 58, 40
2, 110922, Note_on_c, 2, 56, 0
2, 110927, Note_on_c, 2, 55, 53
2, 110927, Note_on_c, 2, 63, 45
2, 110927, Note_on_c, 2, 70, 50
2, 110935, Note_on_c, 2, 58, 0
2, 110952, Control_c, 2, 64, 0
2, 110981, Note_on_c, 2, 58, 40
2, 110981, Control_c, 2, 64, 127
2, 111002, Note_on_c, 2, 55, 0
2, 111005, Note_on_c, 2, 70, 0
2, 111011, Note_on_c, 2, 63, 0
2, 111034, Note_on_c, 2, 53, 42
2, 111034, Note_on_c, 2, 70, 54
2, 111034, Note_on_c, 2, 65, 53
2, 111052, Note_on_c, 2, 58, 0
2, 111084, Note_on_c, 2, 53, 0
2, 111094, Note_on_c, 2, 58, 39
2, 111096, Note_on_c, 2, 65, 0
2, 111097, Note_on_c, 2, 70, 0
2, 111139, Note_on_c, 2, 51, 47
2, 111139, Note_on_c, 2, 67, 50
2, 111139, Note_on_c, 2, 70, 52
2, 111139, Control_c, 2, 64, 0
2, 111143, Note_on_c, 2, 58, 0
2, 111173, Control_c, 2, 64, 127
2, 111176, Note_on_c, 2, 67, 0
2, 111193, Note_on_c, 2, 51, 0
2, 111193, Note_on_c, 2, 70, 0
2, 111198, Note_on_c, 2, 58, 42
2, 111231, Note_on_c, 2, 58, 0
2, 111251, Note_on_c, 2, 50, 52
2, 111251, Note_on_c, 2, 68, 51
2, 111251, Note_on_c, 2, 70, 50
2, 111272, Control_c, 2, 64, 0
2, 111306, Note_on_c, 2, 53, 40
2, 111319, Control_c, 2, 64, 127
2, 111355, Note_on_c, 2, 50, 0
2, 111360, Note_on_c, 2, 56, 38
2, 111372, Note_on_c, 2, 53, 0
2, 111381, Note_on_c, 2, 70, 0
2, 111388, Note_on_c, 2, 68, 0
2, 111389, Note_on_c, 2, 72, 49
2, 111414, Note_on_c, 2, 70, 43
2, 111414, Note_on_c, 2, 55, 43
2, 111418, Note_on_c, 2, 56, 0
2, 111422, Note_on_c, 2, 72, 0
2, 111434, Control_c, 2, 64, 0
2, 111439, Note_on_c, 2, 69, 47
2, 111448, Note_on_c, 2, 70, 0
2, 111473, Note_on_c, 2, 53, 37
2, 111473, Note_on_c, 2, 70, 53
2, 111481, Control_c, 2, 64, 127
2, 111485, Note_on_c, 2, 69, 0
2, 111485, Note_on_c, 2, 55, 0
2, 111539, Note_on_c, 2, 51, 48
2, 111547, Note_on_c, 2, 70, 0
2, 111553, Note_on_c, 2, 53, 0
2, 111593, Note_on_c, 2, 50, 59
2, 111593, Note_on_c, 2, 62, 51
2, 111593, Note_on_c, 2, 70, 59
2, 111606, Control_c, 2, 64, 0
2, 111622, Note_on_c, 2, 51, 0
2, 111643, Note_on_c, 2, 50, 0
2, 111643, Control_c, 2, 64, 127
2, 111647, Note_on_c, 2, 48, 49
2, 111660, Note_on_c, 2, 62, 0
2, 111668, Note_on_c, 2, 48, 0
2, 111689, Note_on_c, 2, 70, 0
2, 111702, Note_on_c, 2, 46, 50
2, 111702, Note_on_c, 2, 63, 53
2, 111702, Note_on_c, 2, 72, 56
2, 111731, Control_c, 2, 64, 0
2, 111760, Note_on_c, 2, 46, 0
2, 111760, Note_on_c, 2, 48, 35
2, 111760, Control_c, 2, 64, 127
2, 111776, Note_on_c, 2, 63, 0
2, 111780, Note_on_c, 2, 48, 0
2, 111793, Note_on_c, 2, 72, 0
2, 111814, Note_on_c, 2, 44, 51
2, 111814, Note_on_c, 2, 65, 45
2, 111814, Note_on_c, 2, 74, 55
2, 111856, Control_c, 2, 64, 0
2, 111873, Note_on_c, 2, 46, 51
2, 111881, Control_c, 2, 64, 127
2, 111898, Note_on_c, 2, 46, 0
2, 111928, Note_on_c, 2, 65, 0
2, 111932, Note_on_c, 2, 74, 0
2, 111939, Note_on_c, 2, 43, 41
2, 111939, Note_on_c, 2, 67, 39
2, 111939, Note_on_c, 2, 75, 43
2, 111941, Note_on_c, 2, 44, 0
2, 111994, Control_c, 2, 64, 0
2, 112002, Note_on_c, 2, 46, 55
2, 112081, Control_c, 2, 64, 127
2, 112085, Note_on_c, 2, 51, 59
2, 112123, Note_on_c, 2, 77, 47
2, 112131, Note_on_c, 2, 43, 0
2, 112135, Note_on_c, 2, 51, 0
2, 112135, Note_on_c, 2, 75, 0
2, 112147, Note_on_c, 2, 43, 42
2, 112150, Note_on_c, 2, 79, 38
2, 112152, Note_on_c, 2, 46, 0
2, 112164, Note_on_c, 2, 77, 0
2, 112181, Note_on_c, 2, 75, 40
2, 112182, Control_c, 2, 64, 0
2, 112196, Note_on_c, 2, 79, 0
2, 112210, Note_on_c, 2, 43, 0
2, 112214, Control_c, 2, 64, 127
2, 112215, Note_on_c, 2, 70, 44
2, 112215, Note_on_c, 2, 55, 40
2, 112222, Note_on_c, 2, 75, 0
2, 112235, Note_on_c, 2, 55, 0
2, 112235, Note_on_c, 2, 70, 0
2, 112252, Note_on_c, 2, 67, 0
2, 112339, Note_on_c, 2, 70, 54
2, 112339, Note_on_c, 2, 67, 45
2, 112339, Note_on_c, 2, 55, 46
2, 112339, Note_on_c, 2, 51, 42
2, 112343, Control_c, 2, 64, 0
2, 112373, Control_c, 2, 64, 127
2, 112381, Note_on_c, 2, 51, 0
2, 112385, Note_on_c, 2, 55, 0
2, 112405, Note_on_c, 2, 67, 0
2, 112410, Note_on_c, 2, 70, 0
2, 112452, Note_on_c, 2, 53, 46
2, 112452, Note_on_c, 2, 56, 44
2, 112452, Note_on_c, 2, 65, 44
2, 112452, Note_on_c, 2, 68, 46
2, 112460, Control_c, 2, 64, 0
2, 112486, Control_c, 2, 64, 127
2, 112498, Note_on_c, 2, 53, 0
2, 112502, Note_on_c, 2, 56, 0
2, 112510, Note_on_c, 2, 65, 0
2, 112510, Note_on_c, 2, 68, 0
2, 112564, Note_on_c, 2, 55, 39
2, 112564, Note_on_c, 2, 58, 31
2, 112564, Note_on_c, 2, 63, 44
2, 112564, Note_on_c, 2, 67, 54
2, 112569, Control_c, 2, 64, 0
2, 112594, Control_c, 2, 64, 127
2, 112657, Note_on_c, 2, 67, 0
2, 112660, Note_on_c, 2, 55, 0
2, 112663, Note_on_c, 2, 58, 0
2, 112664, Note_on_c, 2, 63, 0
2, 112685, Note_on_c, 2, 65, 42
2, 112685, Note_on_c, 2, 60, 37
2, 112685, Note_on_c, 2, 56, 49
2, 112690, Control_c, 2, 64, 0
2, 112852, Note_on_c, 2, 67, 42
2, 112859, Note_on_c, 2, 65, 0
2, 112873, Control_c, 2, 64, 127
2, 112881, Note_on_c, 2, 68, 39
2, 112894, Note_on_c, 2, 67, 0
2, 112910, Note_on_c, 2, 65, 31
2, 112922, Note_on_c, 2, 68, 0
2, 112944, Note_on_c, 2, 72, 54
2, 112964, Note_on_c, 2, 60, 0
2, 112964, Note_on_c, 2, 65, 0
2, 112977, Note_on_c, 2, 56, 0
2, 112977, Note_on_c, 2, 72, 0
2, 113069, Note_on_c, 2, 68, 54
2, 113069, Note_on_c, 2, 60, 51
2, 113069, Note_on_c, 2, 53, 47
2, 113069, Note_on_c, 2, 44, 63
2, 113073, Control_c, 2, 64, 0
2, 113098, Control_c, 2, 64, 127
2, 113106, Note_on_c, 2, 44, 0
2, 113106, Note_on_c, 2, 68, 0
2, 113119, Note_on_c, 2, 53, 0
2, 113120, Note_on_c, 2, 60, 0
2, 113190, Note_on_c, 2, 63, 46
2, 113190, Note_on_c, 2, 58, 55
2, 113190, Note_on_c, 2, 55, 42
2, 113190, Note_on_c, 2, 46, 53
2, 113194, Control_c, 2, 64, 0
2, 113223, Note_on_c, 2, 46, 0
2, 113223, Control_c, 2, 64, 127
2, 113232, Note_on_c, 2, 55, 0
2, 113235, Note_on_c, 2, 63, 0
2, 113245, Note_on_c, 2, 58, 0
2, 113311, Note_on_c, 2, 46, 46
2, 113311, Note_on_c, 2, 56, 45
2, 113311, Note_on_c, 2, 62, 53
2, 113311, Note_on_c, 2, 65, 55
2, 113319, Control_c, 2, 64, 0
2, 113344, Note_on_c, 2, 46, 0
2, 113348, Control_c, 2, 64, 127
2, 113356, Note_on_c, 2, 56, 0
2, 113356, Note_on_c, 2, 62, 0
2, 113369, Note_on_c, 2, 65, 0
2, 113436, Note_on_c, 2, 65, 68
2, 113436, Note_on_c, 2, 62, 63
2, 113436, Note_on_c, 2, 56, 65
2, 113436, Note_on_c, 2, 51, 61
2, 113439, Control_c, 2, 64, 0
2, 113477, Control_c, 2, 64, 127
2, 113615, Note_on_c, 2, 66, 45
2, 113635, Note_on_c, 2, 62, 0
2, 113640, Note_on_c, 2, 51, 0
2, 113643, Note_on_c, 2, 65, 0
2, 113648, Note_on_c, 2, 66, 0
2, 113649, Note_on_c, 2, 56, 0
2, 113661, Control_c, 2, 64, 0
2, 113669, Note_on_c, 2, 51, 47
2, 113669, Note_on_c, 2, 55, 52
2, 113669, Note_on_c, 2, 63, 62
2, 113669, Note_on_c, 2, 67, 59
2, 113690, Control_c, 2, 64, 127
2, 113736, Note_on_c, 2, 67, 0
2, 113736, Note_on_c, 2, 63, 52
2, 113742, Note_on_c, 2, 51, 0
2, 113746, Note_on_c, 2, 55, 0
2, 113754, Note_on_c, 2, 63, 0
2, 113790, Note_on_c, 2, 67, 35
2, 113790, Note_on_c, 2, 75, 35
2, 113790, Note_on_c, 2, 82, 47
2, 113832, Note_on_c, 2, 63, 0
2, 113844, Note_on_c, 2, 70, 45
2, 113888, Note_on_c, 2, 67, 0
2, 113888, Note_on_c, 2, 75, 0
2, 113895, Note_on_c, 2, 82, 0
2, 113898, Note_on_c, 2, 82, 54
2, 113898, Note_on_c, 2, 68, 51
2, 113898, Note_on_c, 2, 77, 55
2, 113911, Control_c, 2, 64, 0
2, 113936, Control_c, 2, 64, 127
2, 113952, Note_on_c, 2, 70, 0
2, 113952, Note_on_c, 2, 67, 45
2, 113964, Note_on_c, 2, 77, 0
2, 113973, Note_on_c, 2, 82, 0
2, 113978, Note_on_c, 2, 68, 0
2, 113981, Note_on_c, 2, 67, 0
2, 114010, Note_on_c, 2, 82, 52
2, 114010, Note_on_c, 2, 65, 53
2, 114010, Note_on_c, 2, 67, 45
2, 114010, Note_on_c, 2, 79, 55
2, 114027, Note_on_c, 2, 67, 0
2, 114035, Note_on_c, 2, 65, 0
2, 114044, Note_on_c, 2, 79, 0
2, 114060, Note_on_c, 2, 82, 0
2, 114065, Note_on_c, 2, 63, 60
2, 114082, Note_on_c, 2, 63, 0
2, 114119, Note_on_c, 2, 62, 47
2, 114119, Note_on_c, 2, 80, 65
2, 114119, Note_on_c, 2, 82, 68
2, 114148, Control_c, 2, 64, 0
2, 114182, Note_on_c, 2, 65, 46
2, 114190, Control_c, 2, 64, 127
2, 114201, Note_on_c, 2, 62, 0
2, 114231, Note_on_c, 2, 65, 0
2, 114232, Note_on_c, 2, 68, 50
2, 114244, Note_on_c, 2, 82, 0
2, 114248, Note_on_c, 2, 80, 0
2, 114248, Note_on_c, 2, 84, 50
2, 114277, Note_on_c, 2, 67, 46
2, 114277, Note_on_c, 2, 82, 57
2, 114286, Note_on_c, 2, 68, 0
2, 114290, Note_on_c, 2, 84, 0
2, 114302, Note_on_c, 2, 81, 59
2, 114311, Note_on_c, 2, 82, 0
2, 114328, Control_c, 2, 64, 0
2, 114336, Note_on_c, 2, 82, 62
2, 114336, Note_on_c, 2, 65, 45
2, 114339, Note_on_c, 2, 67, 0
2, 114344, Note_on_c, 2, 81, 0
2, 114360, Control_c, 2, 64, 127
2, 114390, Note_on_c, 2, 63, 42
2, 114398, Note_on_c, 2, 65, 0
2, 114402, Note_on_c, 2, 82, 0
2, 114440, Note_on_c, 2, 62, 49
2, 114440, Note_on_c, 2, 74, 56
2, 114440, Note_on_c, 2, 82, 65
2, 114456, Control_c, 2, 64, 0
2, 114465, Note_on_c, 2, 63, 0
2, 114490, Control_c, 2, 64, 127
2, 114494, Note_on_c, 2, 62, 0
2, 114498, Note_on_c, 2, 60, 44
2, 114506, Note_on_c, 2, 74, 0
2, 114519, Note_on_c, 2, 60, 0
2, 114548, Note_on_c, 2, 82, 0
2, 114553, Note_on_c, 2, 58, 47
2, 114553, Note_on_c, 2, 75, 54
2, 114553, Note_on_c, 2, 84, 56
2, 114586, Control_c, 2, 64, 0
2, 114610, Note_on_c, 2, 60, 45
2, 114624, Note_on_c, 2, 58, 0
2, 114624, Control_c, 2, 64, 127
2, 114632, Note_on_c, 2, 60, 0
2, 114636, Note_on_c, 2, 75, 0
2, 114652, Note_on_c, 2, 84, 0
2, 114669, Note_on_c, 2, 56, 51
2, 114670, Note_on_c, 2, 77, 50
2, 114670, Note_on_c, 2, 86, 66
2, 114723, Note_on_c, 2, 58, 57
2, 114728, Control_c, 2, 64, 0
2, 114744, Note_on_c, 2, 56, 0
2, 114753, Control_c, 2, 64, 127
2, 114782, Note_on_c, 2, 77, 0
2, 114786, Note_on_c, 2, 86, 0
2, 114799, Note_on_c, 2, 55, 40
2, 114799, Note_on_c, 2, 79, 44
2, 114799, Note_on_c, 2, 87, 54
2, 114856, Note_on_c, 2, 58, 0
2, 114857, Note_on_c, 2, 58, 40
2, 114894, Control_c, 2, 64, 0
2, 114920, Note_on_c, 2, 63, 53
2, 114932, Note_on_c, 2, 55, 0
2, 114944, Note_on_c, 2, 87, 0
2, 114944, Control_c, 2, 64, 127
2, 114953, Note_on_c, 2, 86, 45
2, 114969, Note_on_c, 2, 63, 0
2, 114974, Note_on_c, 2, 58, 0
2, 114978, Note_on_c, 2, 55, 45
2, 114978, Note_on_c, 2, 87, 47
2, 114986, Note_on_c, 2, 86, 0
2, 114999, Note_on_c, 2, 79, 0
2, 115015, Note_on_c, 2, 82, 53
2, 115028, Note_on_c, 2, 87, 0
2, 115049, Note_on_c, 2, 63, 40
2, 115049, Note_on_c, 2, 79, 60
2, 115052, Note_on_c, 2, 82, 0
2, 115070, Note_on_c, 2, 55, 0
2, 115086, Note_on_c, 2, 63, 0
2, 115086, Note_on_c, 2, 79, 0
2, 115169, Note_on_c, 2, 63, 45
2, 115169, Note_on_c, 2, 67, 44
2, 115169, Note_on_c, 2, 79, 39
2, 115169, Note_on_c, 2, 82, 52
2, 115182, Control_c, 2, 64, 0
2, 115211, Control_c, 2, 64, 127
2, 115215, Note_on_c, 2, 67, 0
2, 115215, Note_on_c, 2, 63, 0
2, 115239, Note_on_c, 2, 79, 0
2, 115252, Note_on_c, 2, 82, 0
2, 115290, Note_on_c, 2, 65, 45
2, 115290, Note_on_c, 2, 68, 40
2, 115290, Note_on_c, 2, 77, 42
2, 115290, Note_on_c, 2, 80, 42
2, 115315, Control_c, 2, 64, 0
2, 115340, Control_c, 2, 64, 127
2, 115370, Note_on_c, 2, 65, 0
2, 115383, Note_on_c, 2, 80, 0
2, 115387, Note_on_c, 2, 77, 0
2, 115387, Note_on_c, 2, 68, 0
2, 115416, Note_on_c, 2, 67, 45
2, 115416, Note_on_c, 2, 70, 29
2, 115416, Note_on_c, 2, 75, 45
2, 115416, Note_on_c, 2, 79, 53
2, 115428, Control_c, 2, 64, 0
2, 115452, Control_c, 2, 64, 127
2, 115491, Note_on_c, 2, 70, 0
2, 115495, Note_on_c, 2, 75, 0
2, 115512, Note_on_c, 2, 67, 0
2, 115528, Note_on_c, 2, 79, 0
2, 115540, Note_on_c, 2, 68, 45
2, 115540, Note_on_c, 2, 72, 48
2, 115540, Note_on_c, 2, 76, 46
2, 115574, Note_on_c, 2, 77, 46
2, 115578, Control_c, 2, 64, 0
2, 115590, Note_on_c, 2, 76, 0
2, 115603, Note_on_c, 2, 79, 50
2, 115611, Note_on_c, 2, 77, 0
2, 115632, Note_on_c, 2, 77, 44
2, 115636, Control_c, 2, 64, 127
2, 115640, Note_on_c, 2, 79, 0
2, 115665, Note_on_c, 2, 80, 55
2, 115669, Note_on_c, 2, 77, 0
2, 115694, Note_on_c, 2, 79, 47
2, 115702, Note_on_c, 2, 80, 0
2, 115736, Note_on_c, 2, 82, 47
2, 115740, Note_on_c, 2, 79, 0
2, 115757, Note_on_c, 2, 80, 52
2, 115761, Note_on_c, 2, 82, 0
2, 115794, Note_on_c, 2, 80, 0
2, 115798, Note_on_c, 2, 84, 66
2, 115878, Note_on_c, 2, 72, 0
2, 115891, Note_on_c, 2, 68, 0
2, 116067, Note_on_c, 2, 68, 40
2, 116067, Note_on_c, 2, 62, 54
2, 116067, Note_on_c, 2, 58, 44
2, 116067, Note_on_c, 2, 82, 56
2, 116073, Note_on_c, 2, 84, 0
2, 116103, Control_c, 2, 64, 0
2, 116190, Control_c, 2, 64, 127
2, 116195, Note_on_c, 2, 62, 0
2, 116203, Note_on_c, 2, 65, 43
2, 116212, Note_on_c, 2, 58, 0
2, 116216, Note_on_c, 2, 65, 0
2, 116236, Note_on_c, 2, 68, 0
2, 116299, Note_on_c, 2, 74, 46
2, 116311, Note_on_c, 2, 82, 0
2, 116332, Note_on_c, 2, 63, 48
2, 116332, Note_on_c, 2, 75, 66
2, 116344, Note_on_c, 2, 74, 0
2, 116353, Control_c, 2, 64, 0
2, 116394, Control_c, 2, 64, 127
2, 116395, Note_on_c, 2, 67, 40
2, 116424, Note_on_c, 2, 63, 0
2, 116461, Note_on_c, 2, 67, 0
2, 116461, Note_on_c, 2, 70, 38
2, 116469, Note_on_c, 2, 63, 13
2, 116507, Note_on_c, 2, 63, 0
2, 116517, Note_on_c, 2, 67, 42
2, 116562, Note_on_c, 2, 75, 0
2, 116570, Note_on_c, 2, 70, 0
2, 116570, Note_on_c, 2, 63, 42
2, 116571, Note_on_c, 2, 67, 0
2, 116630, Note_on_c, 2, 67, 38
2, 116658, Note_on_c, 2, 63, 0
2, 116682, Note_on_c, 2, 85, 57
2, 116682, Note_on_c, 2, 70, 36
2, 116686, Note_on_c, 2, 63, 12
2, 116696, Note_on_c, 2, 67, 0
2, 116740, Note_on_c, 2, 63, 0
2, 116740, Note_on_c, 2, 67, 36
2, 116757, Note_on_c, 2, 70, 0
2, 116782, Note_on_c, 2, 67, 0
2, 116799, Note_on_c, 2, 85, 0
2, 116799, Note_on_c, 2, 68, 46
2, 116799, Note_on_c, 2, 84, 57
2, 116849, Note_on_c, 2, 65, 42
2, 116852, Note_on_c, 2, 68, 0
2, 116866, Note_on_c, 2, 65, 0
2, 116895, Control_c, 2, 64, 0
2, 116908, Note_on_c, 2, 70, 39
2, 116908, Note_on_c, 2, 86, 53
2, 116916, Note_on_c, 2, 84, 0
2, 116928, Control_c, 2, 64, 127
2, 116966, Note_on_c, 2, 68, 45
2, 117024, Note_on_c, 2, 67, 40
2, 117024, Note_on_c, 2, 89, 57
2, 117028, Note_on_c, 2, 86, 0
2, 117029, Note_on_c, 2, 70, 0
2, 117045, Note_on_c, 2, 68, 0
2, 117053, Control_c, 2, 64, 0
2, 117082, Note_on_c, 2, 70, 37
2, 117086, Control_c, 2, 64, 127
2, 117091, Note_on_c, 2, 67, 0
2, 117145, Note_on_c, 2, 67, 40
2, 117145, Note_on_c, 2, 87, 45
2, 117149, Note_on_c, 2, 70, 0
2, 117150, Note_on_c, 2, 89, 0
2, 117203, Note_on_c, 2, 65, 45
2, 117262, Note_on_c, 2, 63, 31
2, 117278, Note_on_c, 2, 65, 0
2, 117278, Note_on_c, 2, 67, 0
2, 117282, Note_on_c, 2, 63, 0
2, 117295, Note_on_c, 2, 87, 0
2, 117324, Note_on_c, 2, 61, 35
2, 117349, Note_on_c, 2, 61, 0
2, 117402, Note_on_c, 2, 58, 63
2, 117402, Note_on_c, 2, 73, 62
2, 117452, Note_on_c, 2, 58, 0
2, 117464, Note_on_c, 2, 55, 47
2, 117493, Control_c, 2, 64, 0
2, 117519, Note_on_c, 2, 56, 63
2, 117519, Note_on_c, 2, 72, 66
2, 117527, Control_c, 2, 64, 127
2, 117531, Note_on_c, 2, 55, 0
2, 117535, Note_on_c, 2, 73, 0
2, 117585, Note_on_c, 2, 53, 44
2, 117593, Note_on_c, 2, 56, 0
2, 117631, Note_on_c, 2, 72, 0
2, 117656, Note_on_c, 2, 74, 54
2, 117656, Note_on_c, 2, 68, 41
2, 117656, Note_on_c, 2, 58, 45
2, 117664, Note_on_c, 2, 53, 0
2, 117681, Control_c, 2, 64, 0
2, 117715, Control_c, 2, 64, 127
2, 117727, Note_on_c, 2, 46, 66
2, 117744, Note_on_c, 2, 58, 0
2, 117764, Note_on_c, 2, 68, 0
2, 117802, Note_on_c, 2, 74, 0
2, 117802, Note_on_c, 2, 46, 0
2, 117806, Note_on_c, 2, 51, 45
2, 117806, Note_on_c, 2, 68, 49
2, 117806, Note_on_c, 2, 77, 56
2, 117823, Control_c, 2, 64, 0
2, 117860, Control_c, 2, 64, 127
2, 117943, Note_on_c, 2, 68, 0
2, 118039, Control_c, 2, 64, 0
2, 118065, Control_c, 2, 64, 127
2, 118069, Note_on_c, 2, 75, 45
2, 118069, Note_on_c, 2, 67, 40
2, 118077, Note_on_c, 2, 77, 0
2, 118125, Note_on_c, 2, 75, 0
2, 118128, Note_on_c, 2, 67, 0
2, 118185, Note_on_c, 2, 62, 53
2, 118185, Note_on_c, 2, 65, 54
2, 118189, Control_c, 2, 64, 0
2, 118256, Control_c, 2, 64, 127
2, 118302, Note_on_c, 2, 65, 0
2, 118310, Note_on_c, 2, 67, 48
2, 118310, Note_on_c, 2, 63, 41
2, 118322, Note_on_c, 2, 62, 0
2, 118348, Note_on_c, 2, 51, 0
2, 118364, Note_on_c, 2, 63, 0
2, 118373, Note_on_c, 2, 67, 0
2, 118460, Note_on_c, 2, 68, 48
2, 118460, Note_on_c, 2, 65, 46
2, 118460, Note_on_c, 2, 62, 46
2, 118460, Note_on_c, 2, 46, 52
2, 118465, Control_c, 2, 64, 0
2, 118494, Control_c, 2, 64, 127
2, 118511, Note_on_c, 2, 46, 0
2, 118548, Note_on_c, 2, 65, 0
2, 118551, Note_on_c, 2, 68, 0
2, 118568, Note_on_c, 2, 62, 0
2, 118640, Note_on_c, 2, 39, 61
2, 118640, Note_on_c, 2, 62, 67
2, 118640, Note_on_c, 2, 68, 61
2, 118641, Note_on_c, 2, 65, 67
2, 118644, Note_on_c, 2, 51, 58
2, 118661, Control_c, 2, 64, 0
2, 118752, Control_c, 2, 64, 127
2, 119039, Note_on_c, 2, 46, 51
2, 119231, Note_on_c, 2, 65, 0
2, 119231, Note_on_c, 2, 68, 0
2, 119294, Note_on_c, 2, 62, 0
2, 119294, Note_on_c, 2, 46, 0
2, 119519, Note_on_c, 2, 39, 41
2, 119519, Note_on_c, 2, 63, 40
2, 119519, Note_on_c, 2, 67, 35
2, 119773, Note_on_c, 2, 67, 0
2, 119774, Note_on_c, 2, 39, 0
2, 119777, Note_on_c, 2, 63, 0
2, 120307, Note_on_c, 2, 39, 0
2, 120319, Note_on_c, 2, 51, 0
2, 120865, Control_c, 2, 64, 0
2, 120865, End_track
0, 0, End_of_file
