0, 0, Header, 0, 1, 120
1, 0, Start_track
1, 0, Title_t, "untitled"
1, 0, Copyright_t, "Copyright  2001 by Alfy"
1, 0, Text_t, "Alfy"
1, 0, Time_signature, 2, 2, 24, 8
1, 0, Key_signature, 0, "major"
1, 0, Tempo, 461538
1, 0, Program_c, 0, 0
1, 0, Control_c, 0, 7, 127
1, 0, Control_c, 0, 10, 64
1, 0, Control_c, 0, 7, 127
1, 0, Control_c, 0, 10, 64
1, 120, Note_on_c, 0, 71, 100
1, 150, Note_on_c, 0, 71, 0
1, 150, Note_on_c, 0, 69, 100
1, 180, Note_on_c, 0, 69, 0
1, 180, Note_on_c, 0, 68, 100
1, 210, Note_on_c, 0, 68, 0
1, 210, Note_on_c, 0, 69, 100
1, 240, Note_on_c, 0, 69, 0
1, 240, Note_on_c, 0, 72, 100
1, 240, Note_on_c, 0, 57, 100
1, 270, Note_on_c, 0, 72, 0
1, 300, Note_on_c, 0, 57, 0
1, 300, Note_on_c, 0, 64, 100
1, 300, Note_on_c, 0, 60, 100
1, 330, Note_on_c, 0, 60, 0
1, 330, Note_on_c, 0, 64, 0
1, 360, Note_on_c, 0, 74, 100
1, 360, Note_on_c, 0, 64, 100
1, 360, Note_on_c, 0, 60, 100
1, 390, Note_on_c, 0, 60, 0
1, 390, Note_on_c, 0, 64, 0
1, 390, Note_on_c, 0, 74, 0
1, 390, Note_on_c, 0, 72, 100
1, 420, Note_on_c, 0, 72, 0
1, 420, Note_on_c, 0, 71, 100
1, 420, Note_on_c, 0, 64, 100
1, 420, Note_on_c, 0, 60, 100
1, 450, Note_on_c, 0, 60, 0
1, 450, Note_on_c, 0, 64, 0
1, 450, Note_on_c, 0, 71, 0
1, 450, Note_on_c, 0, 72, 100
1, 480, Note_on_c, 0, 72, 0
1, 480, Note_on_c, 0, 76, 100
1, 480, Note_on_c, 0, 57, 100
1, 510, Note_on_c, 0, 76, 0
1, 540, Note_on_c, 0, 57, 0
1, 540, Note_on_c, 0, 64, 100
1, 540, Note_on_c, 0, 60, 100
1, 570, Note_on_c, 0, 60, 0
1, 570, Note_on_c, 0, 64, 0
1, 600, Note_on_c, 0, 77, 100
1, 600, Note_on_c, 0, 64, 100
1, 600, Note_on_c, 0, 60, 100
1, 630, Note_on_c, 0, 60, 0
1, 630, Note_on_c, 0, 64, 0
1, 630, Note_on_c, 0, 77, 0
1, 630, Note_on_c, 0, 76, 100
1, 660, Note_on_c, 0, 76, 0
1, 660, Note_on_c, 0, 75, 100
1, 660, Note_on_c, 0, 64, 100
1, 660, Note_on_c, 0, 60, 100
1, 690, Note_on_c, 0, 60, 0
1, 690, Note_on_c, 0, 64, 0
1, 690, Note_on_c, 0, 75, 0
1, 690, Note_on_c, 0, 76, 100
1, 720, Note_on_c, 0, 76, 0
1, 720, Note_on_c, 0, 83, 100
1, 720, Note_on_c, 0, 57, 100
1, 750, Note_on_c, 0, 57, 0
1, 750, Note_on_c, 0, 83, 0
1, 750, Note_on_c, 0, 81, 100
1, 780, Note_on_c, 0, 81, 0
1, 780, Note_on_c, 0, 80, 100
1, 780, Note_on_c, 0, 64, 100
1, 780, Note_on_c, 0, 60, 100
1, 810, Note_on_c, 0, 60, 0
1, 810, Note_on_c, 0, 64, 0
1, 810, Note_on_c, 0, 80, 0
1, 810, Note_on_c, 0, 81, 100
1, 840, Note_on_c, 0, 81, 0
1, 840, Note_on_c, 0, 83, 100
1, 840, Note_on_c, 0, 57, 100
1, 870, Note_on_c, 0, 57, 0
1, 870, Note_on_c, 0, 83, 0
1, 870, Note_on_c, 0, 81, 100
1, 900, Note_on_c, 0, 81, 0
1, 900, Note_on_c, 0, 80, 100
1, 900, Note_on_c, 0, 64, 100
1, 900, Note_on_c, 0, 60, 100
1, 930, Note_on_c, 0, 60, 0
1, 930, Note_on_c, 0, 64, 0
1, 930, Note_on_c, 0, 80, 0
1, 930, Note_on_c, 0, 81, 100
1, 960, Note_on_c, 0, 81, 0
1, 960, Note_on_c, 0, 84, 100
1, 960, Note_on_c, 0, 57, 100
1, 1020, Note_on_c, 0, 57, 0
1, 1020, Note_on_c, 0, 84, 0
1, 1020, Note_on_c, 0, 64, 100
1, 1020, Note_on_c, 0, 60, 100
1, 1050, Note_on_c, 0, 60, 0
1, 1050, Note_on_c, 0, 64, 0
1, 1080, Note_on_c, 0, 81, 100
1, 1080, Note_on_c, 0, 64, 100
1, 1080, Note_on_c, 0, 60, 100
1, 1110, Note_on_c, 0, 60, 0
1, 1110, Note_on_c, 0, 64, 0
1, 1110, Note_on_c, 0, 81, 0
1, 1140, Note_on_c, 0, 84, 100
1, 1140, Note_on_c, 0, 64, 100
1, 1140, Note_on_c, 0, 60, 100
1, 1170, Note_on_c, 0, 60, 0
1, 1170, Note_on_c, 0, 64, 0
1, 1170, Note_on_c, 0, 84, 0
1, 1200, Note_on_c, 0, 79, 100
1, 1200, Note_on_c, 0, 52, 100
1, 1207, Note_on_c, 0, 79, 0
1, 1207, Note_on_c, 0, 81, 100
1, 1215, Note_on_c, 0, 81, 0
1, 1215, Note_on_c, 0, 83, 100
1, 1230, Note_on_c, 0, 83, 0
1, 1230, Note_on_c, 0, 52, 0
1, 1260, Note_on_c, 0, 81, 100
1, 1260, Note_on_c, 0, 78, 100
1, 1260, Note_on_c, 0, 64, 100
1, 1260, Note_on_c, 0, 59, 100
1, 1290, Note_on_c, 0, 59, 0
1, 1290, Note_on_c, 0, 81, 0
1, 1290, Note_on_c, 0, 78, 0
1, 1290, Note_on_c, 0, 64, 0
1, 1320, Note_on_c, 0, 76, 100
1, 1320, Note_on_c, 0, 79, 100
1, 1320, Note_on_c, 0, 64, 100
1, 1320, Note_on_c, 0, 59, 100
1, 1350, Note_on_c, 0, 59, 0
1, 1350, Note_on_c, 0, 76, 0
1, 1350, Note_on_c, 0, 79, 0
1, 1350, Note_on_c, 0, 64, 0
1, 1380, Note_on_c, 0, 78, 100
1, 1380, Note_on_c, 0, 81, 100
1, 1380, Note_on_c, 0, 64, 100
1, 1380, Note_on_c, 0, 59, 100
1, 1410, Note_on_c, 0, 59, 0
1, 1410, Note_on_c, 0, 78, 0
1, 1410, Note_on_c, 0, 81, 0
1, 1410, Note_on_c, 0, 64, 0
1, 1440, Note_on_c, 0, 79, 100
1, 1440, Note_on_c, 0, 52, 100
1, 1447, Note_on_c, 0, 79, 0
1, 1447, Note_on_c, 0, 81, 100
1, 1455, Note_on_c, 0, 81, 0
1, 1455, Note_on_c, 0, 83, 100
1, 1470, Note_on_c, 0, 83, 0
1, 1470, Note_on_c, 0, 52, 0
1, 1500, Note_on_c, 0, 81, 100
1, 1500, Note_on_c, 0, 78, 100
1, 1500, Note_on_c, 0, 64, 100
1, 1500, Note_on_c, 0, 59, 100
1, 1530, Note_on_c, 0, 59, 0
1, 1530, Note_on_c, 0, 81, 0
1, 1530, Note_on_c, 0, 78, 0
1, 1530, Note_on_c, 0, 64, 0
1, 1560, Note_on_c, 0, 76, 100
1, 1560, Note_on_c, 0, 79, 100
1, 1560, Note_on_c, 0, 64, 100
1, 1560, Note_on_c, 0, 59, 100
1, 1590, Note_on_c, 0, 59, 0
1, 1590, Note_on_c, 0, 76, 0
1, 1590, Note_on_c, 0, 79, 0
1, 1590, Note_on_c, 0, 64, 0
1, 1620, Note_on_c, 0, 78, 100
1, 1620, Note_on_c, 0, 81, 100
1, 1620, Note_on_c, 0, 64, 100
1, 1620, Note_on_c, 0, 59, 100
1, 1650, Note_on_c, 0, 59, 0
1, 1650, Note_on_c, 0, 78, 0
1, 1650, Note_on_c, 0, 81, 0
1, 1650, Note_on_c, 0, 64, 0
1, 1680, Note_on_c, 0, 79, 100
1, 1680, Note_on_c, 0, 52, 100
1, 1687, Note_on_c, 0, 79, 0
1, 1687, Note_on_c, 0, 81, 100
1, 1695, Note_on_c, 0, 81, 0
1, 1695, Note_on_c, 0, 83, 100
1, 1710, Note_on_c, 0, 83, 0
1, 1710, Note_on_c, 0, 52, 0
1, 1740, Note_on_c, 0, 81, 100
1, 1740, Note_on_c, 0, 78, 100
1, 1740, Note_on_c, 0, 64, 100
1, 1740, Note_on_c, 0, 59, 100
1, 1770, Note_on_c, 0, 59, 0
1, 1770, Note_on_c, 0, 81, 0
1, 1770, Note_on_c, 0, 78, 0
1, 1770, Note_on_c, 0, 64, 0
1, 1800, Note_on_c, 0, 76, 100
1, 1800, Note_on_c, 0, 79, 100
1, 1800, Note_on_c, 0, 47, 100
1, 1830, Note_on_c, 0, 47, 0
1, 1830, Note_on_c, 0, 79, 0
1, 1830, Note_on_c, 0, 76, 0
1, 1860, Note_on_c, 0, 75, 100
1, 1860, Note_on_c, 0, 78, 100
1, 1860, Note_on_c, 0, 59, 100
1, 1890, Note_on_c, 0, 59, 0
1, 1890, Note_on_c, 0, 78, 0
1, 1890, Note_on_c, 0, 75, 0
1, 1920, Note_on_c, 0, 76, 100
1, 1920, Note_on_c, 0, 52, 100
1, 2040, Note_on_c, 0, 52, 0
1, 2040, Note_on_c, 0, 76, 0
1, 2040, Note_on_c, 0, 71, 100
1, 2070, Note_on_c, 0, 71, 0
1, 2070, Note_on_c, 0, 69, 100
1, 2100, Note_on_c, 0, 69, 0
1, 2100, Note_on_c, 0, 68, 100
1, 2130, Note_on_c, 0, 68, 0
1, 2130, Note_on_c, 0, 69, 100
1, 2160, Note_on_c, 0, 69, 0
1, 2160, Note_on_c, 0, 72, 100
1, 2160, Note_on_c, 0, 57, 100
1, 2190, Note_on_c, 0, 72, 0
1, 2220, Note_on_c, 0, 57, 0
1, 2220, Note_on_c, 0, 64, 100
1, 2220, Note_on_c, 0, 60, 100
1, 2250, Note_on_c, 0, 60, 0
1, 2250, Note_on_c, 0, 64, 0
1, 2280, Note_on_c, 0, 74, 100
1, 2280, Note_on_c, 0, 64, 100
1, 2280, Note_on_c, 0, 60, 100
1, 2310, Note_on_c, 0, 60, 0
1, 2310, Note_on_c, 0, 64, 0
1, 2310, Note_on_c, 0, 74, 0
1, 2310, Note_on_c, 0, 72, 100
1, 2340, Note_on_c, 0, 72, 0
1, 2340, Note_on_c, 0, 71, 100
1, 2340, Note_on_c, 0, 64, 100
1, 2340, Note_on_c, 0, 60, 100
1, 2370, Note_on_c, 0, 60, 0
1, 2370, Note_on_c, 0, 64, 0
1, 2370, Note_on_c, 0, 71, 0
1, 2370, Note_on_c, 0, 72, 100
1, 2400, Note_on_c, 0, 72, 0
1, 2400, Note_on_c, 0, 76, 100
1, 2400, Note_on_c, 0, 57, 100
1, 2430, Note_on_c, 0, 76, 0
1, 2460, Note_on_c, 0, 57, 0
1, 2460, Note_on_c, 0, 64, 100
1, 2460, Note_on_c, 0, 60, 100
1, 2490, Note_on_c, 0, 60, 0
1, 2490, Note_on_c, 0, 64, 0
1, 2520, Note_on_c, 0, 77, 100
1, 2520, Note_on_c, 0, 64, 100
1, 2520, Note_on_c, 0, 60, 100
1, 2550, Note_on_c, 0, 60, 0
1, 2550, Note_on_c, 0, 64, 0
1, 2550, Note_on_c, 0, 77, 0
1, 2550, Note_on_c, 0, 76, 100
1, 2580, Note_on_c, 0, 76, 0
1, 2580, Note_on_c, 0, 75, 100
1, 2580, Note_on_c, 0, 64, 100
1, 2580, Note_on_c, 0, 60, 100
1, 2610, Note_on_c, 0, 60, 0
1, 2610, Note_on_c, 0, 64, 0
1, 2610, Note_on_c, 0, 75, 0
1, 2610, Note_on_c, 0, 76, 100
1, 2640, Note_on_c, 0, 76, 0
1, 2640, Note_on_c, 0, 83, 100
1, 2640, Note_on_c, 0, 57, 100
1, 2670, Note_on_c, 0, 57, 0
1, 2670, Note_on_c, 0, 83, 0
1, 2670, Note_on_c, 0, 81, 100
1, 2700, Note_on_c, 0, 81, 0
1, 2700, Note_on_c, 0, 80, 100
1, 2700, Note_on_c, 0, 64, 100
1, 2700, Note_on_c, 0, 60, 100
1, 2730, Note_on_c, 0, 60, 0
1, 2730, Note_on_c, 0, 64, 0
1, 2730, Note_on_c, 0, 80, 0
1, 2730, Note_on_c, 0, 81, 100
1, 2760, Note_on_c, 0, 81, 0
1, 2760, Note_on_c, 0, 83, 100
1, 2760, Note_on_c, 0, 57, 100
1, 2790, Note_on_c, 0, 57, 0
1, 2790, Note_on_c, 0, 83, 0
1, 2790, Note_on_c, 0, 81, 100
1, 2820, Note_on_c, 0, 81, 0
1, 2820, Note_on_c, 0, 80, 100
1, 2820, Note_on_c, 0, 64, 100
1, 2820, Note_on_c, 0, 60, 100
1, 2850, Note_on_c, 0, 60, 0
1, 2850, Note_on_c, 0, 64, 0
1, 2850, Note_on_c, 0, 80, 0
1, 2850, Note_on_c, 0, 81, 100
1, 2880, Note_on_c, 0, 81, 0
1, 2880, Note_on_c, 0, 84, 100
1, 2880, Note_on_c, 0, 57, 100
1, 2940, Note_on_c, 0, 57, 0
1, 2940, Note_on_c, 0, 84, 0
1, 2940, Note_on_c, 0, 64, 100
1, 2940, Note_on_c, 0, 60, 100
1, 2970, Note_on_c, 0, 60, 0
1, 2970, Note_on_c, 0, 64, 0
1, 3000, Note_on_c, 0, 81, 100
1, 3000, Note_on_c, 0, 64, 100
1, 3000, Note_on_c, 0, 60, 100
1, 3030, Note_on_c, 0, 60, 0
1, 3030, Note_on_c, 0, 64, 0
1, 3030, Note_on_c, 0, 81, 0
1, 3060, Note_on_c, 0, 84, 100
1, 3060, Note_on_c, 0, 64, 100
1, 3060, Note_on_c, 0, 60, 100
1, 3090, Note_on_c, 0, 60, 0
1, 3090, Note_on_c, 0, 64, 0
1, 3090, Note_on_c, 0, 84, 0
1, 3120, Note_on_c, 0, 79, 100
1, 3120, Note_on_c, 0, 52, 100
1, 3127, Note_on_c, 0, 79, 0
1, 3127, Note_on_c, 0, 81, 100
1, 3135, Note_on_c, 0, 81, 0
1, 3135, Note_on_c, 0, 83, 100
1, 3150, Note_on_c, 0, 83, 0
1, 3150, Note_on_c, 0, 52, 0
1, 3180, Note_on_c, 0, 81, 100
1, 3180, Note_on_c, 0, 78, 100
1, 3180, Note_on_c, 0, 64, 100
1, 3180, Note_on_c, 0, 59, 100
1, 3210, Note_on_c, 0, 59, 0
1, 3210, Note_on_c, 0, 81, 0
1, 3210, Note_on_c, 0, 78, 0
1, 3210, Note_on_c, 0, 64, 0
1, 3240, Note_on_c, 0, 76, 100
1, 3240, Note_on_c, 0, 79, 100
1, 3240, Note_on_c, 0, 64, 100
1, 3240, Note_on_c, 0, 59, 100
1, 3270, Note_on_c, 0, 59, 0
1, 3270, Note_on_c, 0, 76, 0
1, 3270, Note_on_c, 0, 79, 0
1, 3270, Note_on_c, 0, 64, 0
1, 3300, Note_on_c, 0, 78, 100
1, 3300, Note_on_c, 0, 81, 100
1, 3300, Note_on_c, 0, 64, 100
1, 3300, Note_on_c, 0, 59, 100
1, 3330, Note_on_c, 0, 59, 0
1, 3330, Note_on_c, 0, 78, 0
1, 3330, Note_on_c, 0, 81, 0
1, 3330, Note_on_c, 0, 64, 0
1, 3360, Note_on_c, 0, 79, 100
1, 3360, Note_on_c, 0, 52, 100
1, 3367, Note_on_c, 0, 79, 0
1, 3367, Note_on_c, 0, 81, 100
1, 3375, Note_on_c, 0, 81, 0
1, 3375, Note_on_c, 0, 83, 100
1, 3390, Note_on_c, 0, 83, 0
1, 3390, Note_on_c, 0, 52, 0
1, 3420, Note_on_c, 0, 81, 100
1, 3420, Note_on_c, 0, 78, 100
1, 3420, Note_on_c, 0, 64, 100
1, 3420, Note_on_c, 0, 59, 100
1, 3450, Note_on_c, 0, 59, 0
1, 3450, Note_on_c, 0, 81, 0
1, 3450, Note_on_c, 0, 78, 0
1, 3450, Note_on_c, 0, 64, 0
1, 3480, Note_on_c, 0, 76, 100
1, 3480, Note_on_c, 0, 79, 100
1, 3480, Note_on_c, 0, 64, 100
1, 3480, Note_on_c, 0, 59, 100
1, 3510, Note_on_c, 0, 59, 0
1, 3510, Note_on_c, 0, 76, 0
1, 3510, Note_on_c, 0, 79, 0
1, 3510, Note_on_c, 0, 64, 0
1, 3540, Note_on_c, 0, 78, 100
1, 3540, Note_on_c, 0, 81, 100
1, 3540, Note_on_c, 0, 64, 100
1, 3540, Note_on_c, 0, 59, 100
1, 3570, Note_on_c, 0, 59, 0
1, 3570, Note_on_c, 0, 78, 0
1, 3570, Note_on_c, 0, 81, 0
1, 3570, Note_on_c, 0, 64, 0
1, 3600, Note_on_c, 0, 79, 100
1, 3600, Note_on_c, 0, 52, 100
1, 3607, Note_on_c, 0, 79, 0
1, 3607, Note_on_c, 0, 81, 100
1, 3615, Note_on_c, 0, 81, 0
1, 3615, Note_on_c, 0, 83, 100
1, 3630, Note_on_c, 0, 83, 0
1, 3630, Note_on_c, 0, 52, 0
1, 3660, Note_on_c, 0, 81, 100
1, 3660, Note_on_c, 0, 78, 100
1, 3660, Note_on_c, 0, 64, 100
1, 3660, Note_on_c, 0, 59, 100
1, 3690, Note_on_c, 0, 59, 0
1, 3690, Note_on_c, 0, 81, 0
1, 3690, Note_on_c, 0, 78, 0
1, 3690, Note_on_c, 0, 64, 0
1, 3720, Note_on_c, 0, 76, 100
1, 3720, Note_on_c, 0, 79, 100
1, 3720, Note_on_c, 0, 47, 100
1, 3750, Note_on_c, 0, 47, 0
1, 3750, Note_on_c, 0, 79, 0
1, 3750, Note_on_c, 0, 76, 0
1, 3780, Note_on_c, 0, 75, 100
1, 3780, Note_on_c, 0, 78, 100
1, 3780, Note_on_c, 0, 59, 100
1, 3810, Note_on_c, 0, 59, 0
1, 3810, Note_on_c, 0, 78, 0
1, 3810, Note_on_c, 0, 75, 0
1, 3840, Note_on_c, 0, 76, 100
1, 3840, Note_on_c, 0, 52, 100
1, 3960, Note_on_c, 0, 52, 0
1, 3960, Note_on_c, 0, 76, 0
1, 3960, Note_on_c, 0, 72, 100
1, 3960, Note_on_c, 0, 76, 100
1, 3990, Note_on_c, 0, 76, 0
1, 3990, Note_on_c, 0, 72, 0
1, 4020, Note_on_c, 0, 74, 100
1, 4020, Note_on_c, 0, 77, 100
1, 4050, Note_on_c, 0, 77, 0
1, 4050, Note_on_c, 0, 74, 0
1, 4080, Note_on_c, 0, 79, 100
1, 4080, Note_on_c, 0, 76, 100
1, 4080, Note_on_c, 0, 48, 100
1, 4110, Note_on_c, 0, 48, 0
1, 4110, Note_on_c, 0, 76, 0
1, 4110, Note_on_c, 0, 79, 0
1, 4140, Note_on_c, 0, 76, 100
1, 4140, Note_on_c, 0, 79, 100
1, 4140, Note_on_c, 0, 60, 100
1, 4170, Note_on_c, 0, 60, 0
1, 4170, Note_on_c, 0, 79, 0
1, 4170, Note_on_c, 0, 76, 0
1, 4200, Note_on_c, 0, 81, 100
1, 4200, Note_on_c, 0, 52, 100
1, 4230, Note_on_c, 0, 52, 0
1, 4230, Note_on_c, 0, 81, 0
1, 4230, Note_on_c, 0, 79, 100
1, 4260, Note_on_c, 0, 79, 0
1, 4260, Note_on_c, 0, 77, 100
1, 4260, Note_on_c, 0, 64, 100
1, 4290, Note_on_c, 0, 64, 0
1, 4290, Note_on_c, 0, 77, 0
1, 4290, Note_on_c, 0, 76, 100
1, 4320, Note_on_c, 0, 76, 0
1, 4320, Note_on_c, 0, 71, 100
1, 4320, Note_on_c, 0, 74, 100
1, 4320, Note_on_c, 0, 55, 100
1, 4380, Note_on_c, 0, 71, 0
1, 4380, Note_on_c, 0, 67, 100
1, 4440, Note_on_c, 0, 67, 0
1, 4440, Note_on_c, 0, 55, 0
1, 4440, Note_on_c, 0, 74, 0
1, 4440, Note_on_c, 0, 72, 100
1, 4440, Note_on_c, 0, 76, 100
1, 4470, Note_on_c, 0, 76, 0
1, 4470, Note_on_c, 0, 72, 0
1, 4500, Note_on_c, 0, 77, 100
1, 4500, Note_on_c, 0, 74, 100
1, 4530, Note_on_c, 0, 74, 0
1, 4530, Note_on_c, 0, 77, 0
1, 4560, Note_on_c, 0, 79, 100
1, 4560, Note_on_c, 0, 76, 100
1, 4560, Note_on_c, 0, 48, 100
1, 4590, Note_on_c, 0, 48, 0
1, 4590, Note_on_c, 0, 76, 0
1, 4590, Note_on_c, 0, 79, 0
1, 4620, Note_on_c, 0, 76, 100
1, 4620, Note_on_c, 0, 79, 100
1, 4620, Note_on_c, 0, 60, 100
1, 4650, Note_on_c, 0, 60, 0
1, 4650, Note_on_c, 0, 79, 0
1, 4650, Note_on_c, 0, 76, 0
1, 4680, Note_on_c, 0, 81, 100
1, 4680, Note_on_c, 0, 52, 100
1, 4710, Note_on_c, 0, 52, 0
1, 4710, Note_on_c, 0, 81, 0
1, 4710, Note_on_c, 0, 79, 100
1, 4740, Note_on_c, 0, 79, 0
1, 4740, Note_on_c, 0, 77, 100
1, 4740, Note_on_c, 0, 64, 100
1, 4770, Note_on_c, 0, 64, 0
1, 4770, Note_on_c, 0, 77, 0
1, 4770, Note_on_c, 0, 76, 100
1, 4800, Note_on_c, 0, 76, 0
1, 4800, Note_on_c, 0, 71, 100
1, 4800, Note_on_c, 0, 74, 100
1, 4800, Note_on_c, 0, 55, 100
1, 4920, Note_on_c, 0, 55, 0
1, 4920, Note_on_c, 0, 74, 0
1, 4920, Note_on_c, 0, 71, 0
1, 4920, Note_on_c, 0, 69, 100
1, 4920, Note_on_c, 0, 72, 100
1, 4950, Note_on_c, 0, 72, 0
1, 4950, Note_on_c, 0, 69, 0
1, 4980, Note_on_c, 0, 71, 100
1, 4980, Note_on_c, 0, 74, 100
1, 5010, Note_on_c, 0, 74, 0
1, 5010, Note_on_c, 0, 71, 0
1, 5040, Note_on_c, 0, 72, 100
1, 5040, Note_on_c, 0, 76, 100
1, 5040, Note_on_c, 0, 45, 100
1, 5070, Note_on_c, 0, 45, 0
1, 5070, Note_on_c, 0, 76, 0
1, 5070, Note_on_c, 0, 72, 0
1, 5100, Note_on_c, 0, 72, 100
1, 5100, Note_on_c, 0, 76, 100
1, 5100, Note_on_c, 0, 57, 100
1, 5130, Note_on_c, 0, 57, 0
1, 5130, Note_on_c, 0, 76, 0
1, 5130, Note_on_c, 0, 72, 0
1, 5160, Note_on_c, 0, 77, 100
1, 5160, Note_on_c, 0, 48, 100
1, 5190, Note_on_c, 0, 48, 0
1, 5190, Note_on_c, 0, 77, 0
1, 5190, Note_on_c, 0, 76, 100
1, 5220, Note_on_c, 0, 76, 0
1, 5220, Note_on_c, 0, 74, 100
1, 5220, Note_on_c, 0, 60, 100
1, 5250, Note_on_c, 0, 60, 0
1, 5250, Note_on_c, 0, 74, 0
1, 5250, Note_on_c, 0, 72, 100
1, 5280, Note_on_c, 0, 72, 0
1, 5280, Note_on_c, 0, 68, 100
1, 5280, Note_on_c, 0, 71, 100
1, 5280, Note_on_c, 0, 52, 100
1, 5340, Note_on_c, 0, 68, 0
1, 5340, Note_on_c, 0, 64, 100
1, 5400, Note_on_c, 0, 64, 0
1, 5400, Note_on_c, 0, 52, 0
1, 5400, Note_on_c, 0, 71, 0
1, 5400, Note_on_c, 0, 69, 100
1, 5400, Note_on_c, 0, 72, 100
1, 5430, Note_on_c, 0, 72, 0
1, 5430, Note_on_c, 0, 69, 0
1, 5460, Note_on_c, 0, 71, 100
1, 5460, Note_on_c, 0, 74, 100
1, 5490, Note_on_c, 0, 74, 0
1, 5490, Note_on_c, 0, 71, 0
1, 5520, Note_on_c, 0, 72, 100
1, 5520, Note_on_c, 0, 76, 100
1, 5520, Note_on_c, 0, 45, 100
1, 5550, Note_on_c, 0, 45, 0
1, 5550, Note_on_c, 0, 76, 0
1, 5550, Note_on_c, 0, 72, 0
1, 5580, Note_on_c, 0, 72, 100
1, 5580, Note_on_c, 0, 76, 100
1, 5580, Note_on_c, 0, 57, 100
1, 5610, Note_on_c, 0, 57, 0
1, 5610, Note_on_c, 0, 76, 0
1, 5610, Note_on_c, 0, 72, 0
1, 5640, Note_on_c, 0, 77, 100
1, 5640, Note_on_c, 0, 48, 100
1, 5670, Note_on_c, 0, 48, 0
1, 5670, Note_on_c, 0, 77, 0
1, 5670, Note_on_c, 0, 76, 100
1, 5700, Note_on_c, 0, 76, 0
1, 5700, Note_on_c, 0, 74, 100
1, 5700, Note_on_c, 0, 60, 100
1, 5730, Note_on_c, 0, 60, 0
1, 5730, Note_on_c, 0, 74, 0
1, 5730, Note_on_c, 0, 72, 100
1, 5760, Note_on_c, 0, 72, 0
1, 5760, Note_on_c, 0, 71, 100
1, 5760, Note_on_c, 0, 68, 100
1, 5760, Note_on_c, 0, 52, 100
1, 5880, Note_on_c, 0, 52, 0
1, 5880, Note_on_c, 0, 68, 0
1, 5880, Note_on_c, 0, 71, 0
1, 5880, Note_on_c, 0, 71, 100
1, 5910, Note_on_c, 0, 71, 0
1, 5910, Note_on_c, 0, 69, 100
1, 5940, Note_on_c, 0, 69, 0
1, 5940, Note_on_c, 0, 68, 100
1, 5970, Note_on_c, 0, 68, 0
1, 5970, Note_on_c, 0, 69, 100
1, 6000, Note_on_c, 0, 69, 0
1, 6000, Note_on_c, 0, 72, 100
1, 6000, Note_on_c, 0, 57, 100
1, 6030, Note_on_c, 0, 72, 0
1, 6060, Note_on_c, 0, 57, 0
1, 6060, Note_on_c, 0, 64, 100
1, 6060, Note_on_c, 0, 60, 100
1, 6090, Note_on_c, 0, 60, 0
1, 6090, Note_on_c, 0, 64, 0
1, 6120, Note_on_c, 0, 74, 100
1, 6120, Note_on_c, 0, 64, 100
1, 6120, Note_on_c, 0, 60, 100
1, 6150, Note_on_c, 0, 60, 0
1, 6150, Note_on_c, 0, 64, 0
1, 6150, Note_on_c, 0, 74, 0
1, 6150, Note_on_c, 0, 72, 100
1, 6180, Note_on_c, 0, 72, 0
1, 6180, Note_on_c, 0, 71, 100
1, 6180, Note_on_c, 0, 64, 100
1, 6180, Note_on_c, 0, 60, 100
1, 6210, Note_on_c, 0, 60, 0
1, 6210, Note_on_c, 0, 64, 0
1, 6210, Note_on_c, 0, 71, 0
1, 6210, Note_on_c, 0, 72, 100
1, 6240, Note_on_c, 0, 72, 0
1, 6240, Note_on_c, 0, 76, 100
1, 6240, Note_on_c, 0, 57, 100
1, 6270, Note_on_c, 0, 76, 0
1, 6300, Note_on_c, 0, 57, 0
1, 6300, Note_on_c, 0, 64, 100
1, 6300, Note_on_c, 0, 60, 100
1, 6330, Note_on_c, 0, 60, 0
1, 6330, Note_on_c, 0, 64, 0
1, 6360, Note_on_c, 0, 77, 100
1, 6360, Note_on_c, 0, 64, 100
1, 6360, Note_on_c, 0, 60, 100
1, 6390, Note_on_c, 0, 60, 0
1, 6390, Note_on_c, 0, 64, 0
1, 6390, Note_on_c, 0, 77, 0
1, 6390, Note_on_c, 0, 76, 100
1, 6420, Note_on_c, 0, 76, 0
1, 6420, Note_on_c, 0, 75, 100
1, 6420, Note_on_c, 0, 64, 100
1, 6420, Note_on_c, 0, 60, 100
1, 6450, Note_on_c, 0, 60, 0
1, 6450, Note_on_c, 0, 64, 0
1, 6450, Note_on_c, 0, 75, 0
1, 6450, Note_on_c, 0, 76, 100
1, 6480, Note_on_c, 0, 76, 0
1, 6480, Note_on_c, 0, 83, 100
1, 6480, Note_on_c, 0, 57, 100
1, 6510, Note_on_c, 0, 57, 0
1, 6510, Note_on_c, 0, 83, 0
1, 6510, Note_on_c, 0, 81, 100
1, 6540, Note_on_c, 0, 81, 0
1, 6540, Note_on_c, 0, 80, 100
1, 6540, Note_on_c, 0, 64, 100
1, 6540, Note_on_c, 0, 60, 100
1, 6570, Note_on_c, 0, 60, 0
1, 6570, Note_on_c, 0, 64, 0
1, 6570, Note_on_c, 0, 80, 0
1, 6570, Note_on_c, 0, 81, 100
1, 6600, Note_on_c, 0, 81, 0
1, 6600, Note_on_c, 0, 83, 100
1, 6600, Note_on_c, 0, 57, 100
1, 6630, Note_on_c, 0, 57, 0
1, 6630, Note_on_c, 0, 83, 0
1, 6630, Note_on_c, 0, 81, 100
1, 6660, Note_on_c, 0, 81, 0
1, 6660, Note_on_c, 0, 80, 100
1, 6660, Note_on_c, 0, 64, 100
1, 6660, Note_on_c, 0, 60, 100
1, 6690, Note_on_c, 0, 60, 0
1, 6690, Note_on_c, 0, 64, 0
1, 6690, Note_on_c, 0, 80, 0
1, 6690, Note_on_c, 0, 81, 100
1, 6720, Note_on_c, 0, 81, 0
1, 6720, Note_on_c, 0, 84, 100
1, 6720, Note_on_c, 0, 53, 100
1, 6780, Note_on_c, 0, 53, 0
1, 6780, Note_on_c, 0, 63, 100
1, 6780, Note_on_c, 0, 57, 100
1, 6810, Note_on_c, 0, 57, 0
1, 6810, Note_on_c, 0, 63, 0
1, 6840, Note_on_c, 0, 84, 0
1, 6840, Note_on_c, 0, 81, 100
1, 6840, Note_on_c, 0, 63, 100
1, 6840, Note_on_c, 0, 57, 100
1, 6870, Note_on_c, 0, 57, 0
1, 6870, Note_on_c, 0, 63, 0
1, 6870, Note_on_c, 0, 81, 0
1, 6900, Note_on_c, 0, 83, 100
1, 6900, Note_on_c, 0, 63, 100
1, 6900, Note_on_c, 0, 57, 100
1, 6930, Note_on_c, 0, 57, 0
1, 6930, Note_on_c, 0, 63, 0
1, 6930, Note_on_c, 0, 83, 0
1, 6960, Note_on_c, 0, 84, 100
1, 6960, Note_on_c, 0, 52, 100
1, 6990, Note_on_c, 0, 52, 0
1, 6990, Note_on_c, 0, 84, 0
1, 7020, Note_on_c, 0, 83, 100
1, 7020, Note_on_c, 0, 64, 100
1, 7020, Note_on_c, 0, 57, 100
1, 7050, Note_on_c, 0, 57, 0
1, 7050, Note_on_c, 0, 64, 0
1, 7050, Note_on_c, 0, 83, 0
1, 7080, Note_on_c, 0, 81, 100
1, 7080, Note_on_c, 0, 50, 100
1, 7110, Note_on_c, 0, 50, 0
1, 7110, Note_on_c, 0, 81, 0
1, 7140, Note_on_c, 0, 80, 100
1, 7140, Note_on_c, 0, 59, 100
1, 7140, Note_on_c, 0, 53, 100
1, 7170, Note_on_c, 0, 53, 0
1, 7170, Note_on_c, 0, 59, 0
1, 7170, Note_on_c, 0, 80, 0
1, 7200, Note_on_c, 0, 81, 100
1, 7200, Note_on_c, 0, 48, 100
1, 7230, Note_on_c, 0, 48, 0
1, 7230, Note_on_c, 0, 81, 0
1, 7260, Note_on_c, 0, 76, 100
1, 7260, Note_on_c, 0, 57, 100
1, 7260, Note_on_c, 0, 52, 100
1, 7290, Note_on_c, 0, 52, 0
1, 7290, Note_on_c, 0, 57, 0
1, 7290, Note_on_c, 0, 76, 0
1, 7320, Note_on_c, 0, 77, 100
1, 7320, Note_on_c, 0, 50, 100
1, 7350, Note_on_c, 0, 50, 0
1, 7350, Note_on_c, 0, 77, 0
1, 7380, Note_on_c, 0, 74, 100
1, 7380, Note_on_c, 0, 59, 100
1, 7380, Note_on_c, 0, 53, 100
1, 7410, Note_on_c, 0, 53, 0
1, 7410, Note_on_c, 0, 59, 0
1, 7410, Note_on_c, 0, 74, 0
1, 7440, Note_on_c, 0, 72, 100
1, 7440, Note_on_c, 0, 57, 100
1, 7440, Note_on_c, 0, 52, 100
1, 7470, Note_on_c, 0, 52, 0
1, 7470, Note_on_c, 0, 57, 0
1, 7500, Note_on_c, 0, 57, 100
1, 7500, Note_on_c, 0, 52, 100
1, 7530, Note_on_c, 0, 52, 0
1, 7530, Note_on_c, 0, 57, 0
1, 7560, Note_on_c, 0, 72, 0
1, 7560, Note_on_c, 0, 71, 100
1, 7560, Note_on_c, 0, 56, 100
1, 7560, Note_on_c, 0, 52, 100
1, 7575, Note_on_c, 0, 71, 0
1, 7575, Note_on_c, 0, 72, 100
1, 7590, Note_on_c, 0, 72, 0
1, 7590, Note_on_c, 0, 52, 0
1, 7590, Note_on_c, 0, 56, 0
1, 7590, Note_on_c, 0, 71, 100
1, 7605, Note_on_c, 0, 71, 0
1, 7605, Note_on_c, 0, 72, 100
1, 7620, Note_on_c, 0, 72, 0
1, 7620, Note_on_c, 0, 71, 100
1, 7620, Note_on_c, 0, 56, 100
1, 7620, Note_on_c, 0, 52, 100
1, 7635, Note_on_c, 0, 71, 0
1, 7635, Note_on_c, 0, 72, 100
1, 7650, Note_on_c, 0, 72, 0
1, 7650, Note_on_c, 0, 52, 0
1, 7650, Note_on_c, 0, 56, 0
1, 7650, Note_on_c, 0, 69, 100
1, 7665, Note_on_c, 0, 69, 0
1, 7665, Note_on_c, 0, 71, 100
1, 7680, Note_on_c, 0, 71, 0
1, 7680, Note_on_c, 0, 69, 100
1, 7680, Note_on_c, 0, 57, 100
1, 7680, Note_on_c, 0, 45, 100
1, 7800, Note_on_c, 0, 45, 0
1, 7800, Note_on_c, 0, 57, 0
1, 7800, Note_on_c, 0, 69, 0
1, 7800, Note_on_c, 0, 72, 100
1, 7800, Note_on_c, 0, 76, 100
1, 7830, Note_on_c, 0, 76, 0
1, 7830, Note_on_c, 0, 72, 0
1, 7860, Note_on_c, 0, 74, 100
1, 7860, Note_on_c, 0, 77, 100
1, 7890, Note_on_c, 0, 77, 0
1, 7890, Note_on_c, 0, 74, 0
1, 7920, Note_on_c, 0, 79, 100
1, 7920, Note_on_c, 0, 76, 100
1, 7920, Note_on_c, 0, 48, 100
1, 7950, Note_on_c, 0, 48, 0
1, 7950, Note_on_c, 0, 76, 0
1, 7950, Note_on_c, 0, 79, 0
1, 7980, Note_on_c, 0, 76, 100
1, 7980, Note_on_c, 0, 79, 100
1, 7980, Note_on_c, 0, 60, 100
1, 8010, Note_on_c, 0, 60, 0
1, 8010, Note_on_c, 0, 79, 0
1, 8010, Note_on_c, 0, 76, 0
1, 8040, Note_on_c, 0, 81, 100
1, 8040, Note_on_c, 0, 52, 100
1, 8070, Note_on_c, 0, 52, 0
1, 8070, Note_on_c, 0, 81, 0
1, 8070, Note_on_c, 0, 79, 100
1, 8100, Note_on_c, 0, 79, 0
1, 8100, Note_on_c, 0, 77, 100
1, 8100, Note_on_c, 0, 64, 100
1, 8130, Note_on_c, 0, 64, 0
1, 8130, Note_on_c, 0, 77, 0
1, 8130, Note_on_c, 0, 76, 100
1, 8160, Note_on_c, 0, 76, 0
1, 8160, Note_on_c, 0, 71, 100
1, 8160, Note_on_c, 0, 74, 100
1, 8160, Note_on_c, 0, 55, 100
1, 8220, Note_on_c, 0, 71, 0
1, 8220, Note_on_c, 0, 67, 100
1, 8280, Note_on_c, 0, 67, 0
1, 8280, Note_on_c, 0, 55, 0
1, 8280, Note_on_c, 0, 74, 0
1, 8280, Note_on_c, 0, 72, 100
1, 8280, Note_on_c, 0, 76, 100
1, 8310, Note_on_c, 0, 76, 0
1, 8310, Note_on_c, 0, 72, 0
1, 8340, Note_on_c, 0, 77, 100
1, 8340, Note_on_c, 0, 74, 100
1, 8370, Note_on_c, 0, 74, 0
1, 8370, Note_on_c, 0, 77, 0
1, 8400, Note_on_c, 0, 79, 100
1, 8400, Note_on_c, 0, 76, 100
1, 8400, Note_on_c, 0, 48, 100
1, 8430, Note_on_c, 0, 48, 0
1, 8430, Note_on_c, 0, 76, 0
1, 8430, Note_on_c, 0, 79, 0
1, 8460, Note_on_c, 0, 76, 100
1, 8460, Note_on_c, 0, 79, 100
1, 8460, Note_on_c, 0, 60, 100
1, 8490, Note_on_c, 0, 60, 0
1, 8490, Note_on_c, 0, 79, 0
1, 8490, Note_on_c, 0, 76, 0
1, 8520, Note_on_c, 0, 81, 100
1, 8520, Note_on_c, 0, 52, 100
1, 8550, Note_on_c, 0, 52, 0
1, 8550, Note_on_c, 0, 81, 0
1, 8550, Note_on_c, 0, 79, 100
1, 8580, Note_on_c, 0, 79, 0
1, 8580, Note_on_c, 0, 77, 100
1, 8580, Note_on_c, 0, 64, 100
1, 8610, Note_on_c, 0, 64, 0
1, 8610, Note_on_c, 0, 77, 0
1, 8610, Note_on_c, 0, 76, 100
1, 8640, Note_on_c, 0, 76, 0
1, 8640, Note_on_c, 0, 71, 100
1, 8640, Note_on_c, 0, 74, 100
1, 8640, Note_on_c, 0, 55, 100
1, 8760, Note_on_c, 0, 55, 0
1, 8760, Note_on_c, 0, 74, 0
1, 8760, Note_on_c, 0, 71, 0
1, 8760, Note_on_c, 0, 69, 100
1, 8760, Note_on_c, 0, 72, 100
1, 8790, Note_on_c, 0, 72, 0
1, 8790, Note_on_c, 0, 69, 0
1, 8820, Note_on_c, 0, 71, 100
1, 8820, Note_on_c, 0, 74, 100
1, 8850, Note_on_c, 0, 74, 0
1, 8850, Note_on_c, 0, 71, 0
1, 8880, Note_on_c, 0, 72, 100
1, 8880, Note_on_c, 0, 76, 100
1, 8880, Note_on_c, 0, 45, 100
1, 8910, Note_on_c, 0, 45, 0
1, 8910, Note_on_c, 0, 76, 0
1, 8910, Note_on_c, 0, 72, 0
1, 8940, Note_on_c, 0, 72, 100
1, 8940, Note_on_c, 0, 76, 100
1, 8940, Note_on_c, 0, 57, 100
1, 8970, Note_on_c, 0, 57, 0
1, 8970, Note_on_c, 0, 76, 0
1, 8970, Note_on_c, 0, 72, 0
1, 9000, Note_on_c, 0, 77, 100
1, 9000, Note_on_c, 0, 48, 100
1, 9030, Note_on_c, 0, 48, 0
1, 9030, Note_on_c, 0, 77, 0
1, 9030, Note_on_c, 0, 76, 100
1, 9060, Note_on_c, 0, 76, 0
1, 9060, Note_on_c, 0, 74, 100
1, 9060, Note_on_c, 0, 60, 100
1, 9090, Note_on_c, 0, 60, 0
1, 9090, Note_on_c, 0, 74, 0
1, 9090, Note_on_c, 0, 72, 100
1, 9120, Note_on_c, 0, 72, 0
1, 9120, Note_on_c, 0, 68, 100
1, 9120, Note_on_c, 0, 71, 100
1, 9120, Note_on_c, 0, 52, 100
1, 9180, Note_on_c, 0, 68, 0
1, 9180, Note_on_c, 0, 64, 100
1, 9240, Note_on_c, 0, 64, 0
1, 9240, Note_on_c, 0, 52, 0
1, 9240, Note_on_c, 0, 71, 0
1, 9240, Note_on_c, 0, 69, 100
1, 9240, Note_on_c, 0, 72, 100
1, 9270, Note_on_c, 0, 72, 0
1, 9270, Note_on_c, 0, 69, 0
1, 9300, Note_on_c, 0, 71, 100
1, 9300, Note_on_c, 0, 74, 100
1, 9330, Note_on_c, 0, 74, 0
1, 9330, Note_on_c, 0, 71, 0
1, 9360, Note_on_c, 0, 72, 100
1, 9360, Note_on_c, 0, 76, 100
1, 9360, Note_on_c, 0, 45, 100
1, 9390, Note_on_c, 0, 45, 0
1, 9390, Note_on_c, 0, 76, 0
1, 9390, Note_on_c, 0, 72, 0
1, 9420, Note_on_c, 0, 72, 100
1, 9420, Note_on_c, 0, 76, 100
1, 9420, Note_on_c, 0, 57, 100
1, 9450, Note_on_c, 0, 57, 0
1, 9450, Note_on_c, 0, 76, 0
1, 9450, Note_on_c, 0, 72, 0
1, 9480, Note_on_c, 0, 77, 100
1, 9480, Note_on_c, 0, 48, 100
1, 9510, Note_on_c, 0, 48, 0
1, 9510, Note_on_c, 0, 77, 0
1, 9510, Note_on_c, 0, 76, 100
1, 9540, Note_on_c, 0, 76, 0
1, 9540, Note_on_c, 0, 74, 100
1, 9540, Note_on_c, 0, 60, 100
1, 9570, Note_on_c, 0, 60, 0
1, 9570, Note_on_c, 0, 74, 0
1, 9570, Note_on_c, 0, 72, 100
1, 9600, Note_on_c, 0, 72, 0
1, 9600, Note_on_c, 0, 71, 100
1, 9600, Note_on_c, 0, 68, 100
1, 9600, Note_on_c, 0, 52, 100
1, 9720, Note_on_c, 0, 52, 0
1, 9720, Note_on_c, 0, 68, 0
1, 9720, Note_on_c, 0, 71, 0
1, 9720, Note_on_c, 0, 71, 100
1, 9750, Note_on_c, 0, 71, 0
1, 9750, Note_on_c, 0, 69, 100
1, 9780, Note_on_c, 0, 69, 0
1, 9780, Note_on_c, 0, 68, 100
1, 9810, Note_on_c, 0, 68, 0
1, 9810, Note_on_c, 0, 69, 100
1, 9840, Note_on_c, 0, 69, 0
1, 9840, Note_on_c, 0, 72, 100
1, 9840, Note_on_c, 0, 57, 100
1, 9870, Note_on_c, 0, 72, 0
1, 9900, Note_on_c, 0, 57, 0
1, 9900, Note_on_c, 0, 64, 100
1, 9900, Note_on_c, 0, 60, 100
1, 9930, Note_on_c, 0, 60, 0
1, 9930, Note_on_c, 0, 64, 0
1, 9960, Note_on_c, 0, 74, 100
1, 9960, Note_on_c, 0, 64, 100
1, 9960, Note_on_c, 0, 60, 100
1, 9990, Note_on_c, 0, 60, 0
1, 9990, Note_on_c, 0, 64, 0
1, 9990, Note_on_c, 0, 74, 0
1, 9990, Note_on_c, 0, 72, 100
1, 10020, Note_on_c, 0, 72, 0
1, 10020, Note_on_c, 0, 71, 100
1, 10020, Note_on_c, 0, 64, 100
1, 10020, Note_on_c, 0, 60, 100
1, 10050, Note_on_c, 0, 60, 0
1, 10050, Note_on_c, 0, 64, 0
1, 10050, Note_on_c, 0, 71, 0
1, 10050, Note_on_c, 0, 72, 100
1, 10080, Note_on_c, 0, 72, 0
1, 10080, Note_on_c, 0, 76, 100
1, 10080, Note_on_c, 0, 57, 100
1, 10110, Note_on_c, 0, 76, 0
1, 10140, Note_on_c, 0, 57, 0
1, 10140, Note_on_c, 0, 64, 100
1, 10140, Note_on_c, 0, 60, 100
1, 10170, Note_on_c, 0, 60, 0
1, 10170, Note_on_c, 0, 64, 0
1, 10200, Note_on_c, 0, 77, 100
1, 10200, Note_on_c, 0, 64, 100
1, 10200, Note_on_c, 0, 60, 100
1, 10230, Note_on_c, 0, 60, 0
1, 10230, Note_on_c, 0, 64, 0
1, 10230, Note_on_c, 0, 77, 0
1, 10230, Note_on_c, 0, 76, 100
1, 10260, Note_on_c, 0, 76, 0
1, 10260, Note_on_c, 0, 75, 100
1, 10260, Note_on_c, 0, 64, 100
1, 10260, Note_on_c, 0, 60, 100
1, 10290, Note_on_c, 0, 60, 0
1, 10290, Note_on_c, 0, 64, 0
1, 10290, Note_on_c, 0, 75, 0
1, 10290, Note_on_c, 0, 76, 100
1, 10320, Note_on_c, 0, 76, 0
1, 10320, Note_on_c, 0, 83, 100
1, 10320, Note_on_c, 0, 57, 100
1, 10350, Note_on_c, 0, 57, 0
1, 10350, Note_on_c, 0, 83, 0
1, 10350, Note_on_c, 0, 81, 100
1, 10380, Note_on_c, 0, 81, 0
1, 10380, Note_on_c, 0, 80, 100
1, 10380, Note_on_c, 0, 64, 100
1, 10380, Note_on_c, 0, 60, 100
1, 10410, Note_on_c, 0, 60, 0
1, 10410, Note_on_c, 0, 64, 0
1, 10410, Note_on_c, 0, 80, 0
1, 10410, Note_on_c, 0, 81, 100
1, 10440, Note_on_c, 0, 81, 0
1, 10440, Note_on_c, 0, 83, 100
1, 10440, Note_on_c, 0, 57, 100
1, 10470, Note_on_c, 0, 57, 0
1, 10470, Note_on_c, 0, 83, 0
1, 10470, Note_on_c, 0, 81, 100
1, 10500, Note_on_c, 0, 81, 0
1, 10500, Note_on_c, 0, 80, 100
1, 10500, Note_on_c, 0, 64, 100
1, 10500, Note_on_c, 0, 60, 100
1, 10530, Note_on_c, 0, 60, 0
1, 10530, Note_on_c, 0, 64, 0
1, 10530, Note_on_c, 0, 80, 0
1, 10530, Note_on_c, 0, 81, 100
1, 10560, Note_on_c, 0, 81, 0
1, 10560, Note_on_c, 0, 84, 100
1, 10560, Note_on_c, 0, 53, 100
1, 10620, Note_on_c, 0, 53, 0
1, 10620, Note_on_c, 0, 63, 100
1, 10620, Note_on_c, 0, 57, 100
1, 10650, Note_on_c, 0, 57, 0
1, 10650, Note_on_c, 0, 63, 0
1, 10680, Note_on_c, 0, 84, 0
1, 10680, Note_on_c, 0, 81, 100
1, 10680, Note_on_c, 0, 63, 100
1, 10680, Note_on_c, 0, 57, 100
1, 10710, Note_on_c, 0, 57, 0
1, 10710, Note_on_c, 0, 63, 0
1, 10710, Note_on_c, 0, 81, 0
1, 10740, Note_on_c, 0, 83, 100
1, 10740, Note_on_c, 0, 63, 100
1, 10740, Note_on_c, 0, 57, 100
1, 10770, Note_on_c, 0, 57, 0
1, 10770, Note_on_c, 0, 63, 0
1, 10770, Note_on_c, 0, 83, 0
1, 10800, Note_on_c, 0, 84, 100
1, 10800, Note_on_c, 0, 52, 100
1, 10830, Note_on_c, 0, 52, 0
1, 10830, Note_on_c, 0, 84, 0
1, 10860, Note_on_c, 0, 83, 100
1, 10860, Note_on_c, 0, 64, 100
1, 10860, Note_on_c, 0, 57, 100
1, 10890, Note_on_c, 0, 57, 0
1, 10890, Note_on_c, 0, 64, 0
1, 10890, Note_on_c, 0, 83, 0
1, 10920, Note_on_c, 0, 81, 100
1, 10920, Note_on_c, 0, 50, 100
1, 10950, Note_on_c, 0, 50, 0
1, 10950, Note_on_c, 0, 81, 0
1, 10980, Note_on_c, 0, 80, 100
1, 10980, Note_on_c, 0, 59, 100
1, 10980, Note_on_c, 0, 53, 100
1, 11010, Note_on_c, 0, 53, 0
1, 11010, Note_on_c, 0, 59, 0
1, 11010, Note_on_c, 0, 80, 0
1, 11040, Note_on_c, 0, 81, 100
1, 11040, Note_on_c, 0, 48, 100
1, 11070, Note_on_c, 0, 48, 0
1, 11070, Note_on_c, 0, 81, 0
1, 11100, Note_on_c, 0, 76, 100
1, 11100, Note_on_c, 0, 57, 100
1, 11100, Note_on_c, 0, 52, 100
1, 11130, Note_on_c, 0, 52, 0
1, 11130, Note_on_c, 0, 57, 0
1, 11130, Note_on_c, 0, 76, 0
1, 11160, Note_on_c, 0, 77, 100
1, 11160, Note_on_c, 0, 50, 100
1, 11190, Note_on_c, 0, 50, 0
1, 11190, Note_on_c, 0, 77, 0
1, 11220, Note_on_c, 0, 74, 100
1, 11220, Note_on_c, 0, 59, 100
1, 11220, Note_on_c, 0, 53, 100
1, 11250, Note_on_c, 0, 53, 0
1, 11250, Note_on_c, 0, 59, 0
1, 11250, Note_on_c, 0, 74, 0
1, 11280, Note_on_c, 0, 72, 100
1, 11280, Note_on_c, 0, 57, 100
1, 11280, Note_on_c, 0, 52, 100
1, 11310, Note_on_c, 0, 52, 0
1, 11310, Note_on_c, 0, 57, 0
1, 11340, Note_on_c, 0, 57, 100
1, 11340, Note_on_c, 0, 52, 100
1, 11370, Note_on_c, 0, 52, 0
1, 11370, Note_on_c, 0, 57, 0
1, 11400, Note_on_c, 0, 72, 0
1, 11400, Note_on_c, 0, 71, 100
1, 11400, Note_on_c, 0, 56, 100
1, 11400, Note_on_c, 0, 52, 100
1, 11415, Note_on_c, 0, 71, 0
1, 11415, Note_on_c, 0, 72, 100
1, 11430, Note_on_c, 0, 72, 0
1, 11430, Note_on_c, 0, 52, 0
1, 11430, Note_on_c, 0, 56, 0
1, 11430, Note_on_c, 0, 71, 100
1, 11445, Note_on_c, 0, 71, 0
1, 11445, Note_on_c, 0, 72, 100
1, 11460, Note_on_c, 0, 72, 0
1, 11460, Note_on_c, 0, 71, 100
1, 11460, Note_on_c, 0, 56, 100
1, 11460, Note_on_c, 0, 52, 100
1, 11475, Note_on_c, 0, 71, 0
1, 11475, Note_on_c, 0, 72, 100
1, 11490, Note_on_c, 0, 72, 0
1, 11490, Note_on_c, 0, 52, 0
1, 11490, Note_on_c, 0, 56, 0
1, 11490, Note_on_c, 0, 69, 100
1, 11505, Note_on_c, 0, 69, 0
1, 11505, Note_on_c, 0, 71, 100
1, 11520, Key_signature, 3, "major"
1, 11520, Note_on_c, 0, 71, 0
1, 11520, Note_on_c, 0, 69, 100
1, 11520, Note_on_c, 0, 57, 100
1, 11520, Note_on_c, 0, 45, 100
1, 11640, Note_on_c, 0, 45, 0
1, 11640, Note_on_c, 0, 57, 0
1, 11640, Note_on_c, 0, 69, 0
1, 11640, Note_on_c, 0, 81, 100
1, 11640, Note_on_c, 0, 69, 100
1, 11670, Note_on_c, 0, 69, 0
1, 11670, Note_on_c, 0, 81, 0
1, 11700, Note_on_c, 0, 83, 100
1, 11700, Note_on_c, 0, 71, 100
1, 11730, Note_on_c, 0, 71, 0
1, 11730, Note_on_c, 0, 83, 0
1, 11760, Note_on_c, 0, 85, 100
1, 11760, Note_on_c, 0, 73, 100
1, 11760, Note_on_c, 0, 45, 100
1, 11767, Note_on_c, 0, 45, 0
1, 11767, Note_on_c, 0, 49, 100
1, 11775, Note_on_c, 0, 49, 0
1, 11775, Note_on_c, 0, 52, 100
1, 11782, Note_on_c, 0, 52, 0
1, 11782, Note_on_c, 0, 57, 100
1, 11797, Note_on_c, 0, 57, 0
1, 11820, Note_on_c, 0, 57, 100
1, 11850, Note_on_c, 0, 57, 0
1, 11880, Note_on_c, 0, 73, 0
1, 11880, Note_on_c, 0, 85, 0
1, 11880, Note_on_c, 0, 81, 100
1, 11880, Note_on_c, 0, 69, 100
1, 11880, Note_on_c, 0, 57, 100
1, 11910, Note_on_c, 0, 57, 0
1, 11910, Note_on_c, 0, 69, 0
1, 11910, Note_on_c, 0, 81, 0
1, 11940, Note_on_c, 0, 83, 100
1, 11940, Note_on_c, 0, 71, 100
1, 11940, Note_on_c, 0, 57, 100
1, 11970, Note_on_c, 0, 57, 0
1, 11970, Note_on_c, 0, 71, 0
1, 11970, Note_on_c, 0, 83, 0
1, 12000, Note_on_c, 0, 73, 100
1, 12000, Note_on_c, 0, 85, 100
1, 12000, Note_on_c, 0, 45, 100
1, 12007, Note_on_c, 0, 45, 0
1, 12007, Note_on_c, 0, 49, 100
1, 12015, Note_on_c, 0, 49, 0
1, 12015, Note_on_c, 0, 52, 100
1, 12022, Note_on_c, 0, 52, 0
1, 12022, Note_on_c, 0, 57, 100
1, 12030, Note_on_c, 0, 85, 0
1, 12030, Note_on_c, 0, 73, 0
1, 12037, Note_on_c, 0, 57, 0
1, 12060, Note_on_c, 0, 71, 100
1, 12060, Note_on_c, 0, 83, 100
1, 12060, Note_on_c, 0, 57, 100
1, 12090, Note_on_c, 0, 57, 0
1, 12090, Note_on_c, 0, 83, 0
1, 12090, Note_on_c, 0, 71, 0
1, 12120, Note_on_c, 0, 69, 100
1, 12120, Note_on_c, 0, 81, 100
1, 12120, Note_on_c, 0, 57, 100
1, 12150, Note_on_c, 0, 57, 0
1, 12150, Note_on_c, 0, 81, 0
1, 12150, Note_on_c, 0, 69, 0
1, 12180, Note_on_c, 0, 68, 100
1, 12180, Note_on_c, 0, 80, 100
1, 12180, Note_on_c, 0, 57, 100
1, 12210, Note_on_c, 0, 57, 0
1, 12210, Note_on_c, 0, 80, 0
1, 12210, Note_on_c, 0, 68, 0
1, 12240, Note_on_c, 0, 78, 100
1, 12240, Note_on_c, 0, 66, 100
1, 12240, Note_on_c, 0, 38, 100
1, 12247, Note_on_c, 0, 38, 0
1, 12247, Note_on_c, 0, 42, 100
1, 12255, Note_on_c, 0, 42, 0
1, 12255, Note_on_c, 0, 45, 100
1, 12262, Note_on_c, 0, 45, 0
1, 12262, Note_on_c, 0, 50, 100
1, 12270, Note_on_c, 0, 66, 0
1, 12270, Note_on_c, 0, 78, 0
1, 12277, Note_on_c, 0, 50, 0
1, 12300, Note_on_c, 0, 80, 100
1, 12300, Note_on_c, 0, 68, 100
1, 12300, Note_on_c, 0, 50, 100
1, 12330, Note_on_c, 0, 50, 0
1, 12330, Note_on_c, 0, 68, 0
1, 12330, Note_on_c, 0, 80, 0
1, 12360, Note_on_c, 0, 81, 100
1, 12360, Note_on_c, 0, 69, 100
1, 12360, Note_on_c, 0, 39, 100
1, 12367, Note_on_c, 0, 39, 0
1, 12367, Note_on_c, 0, 42, 100
1, 12375, Note_on_c, 0, 42, 0
1, 12375, Note_on_c, 0, 45, 100
1, 12382, Note_on_c, 0, 45, 0
1, 12382, Note_on_c, 0, 51, 100
1, 12390, Note_on_c, 0, 69, 0
1, 12390, Note_on_c, 0, 81, 0
1, 12397, Note_on_c, 0, 51, 0
1, 12420, Note_on_c, 0, 83, 100
1, 12420, Note_on_c, 0, 71, 100
1, 12420, Note_on_c, 0, 51, 100
1, 12450, Note_on_c, 0, 51, 0
1, 12450, Note_on_c, 0, 71, 0
1, 12450, Note_on_c, 0, 83, 0
1, 12480, Note_on_c, 0, 80, 100
1, 12480, Note_on_c, 0, 68, 100
1, 12480, Note_on_c, 0, 40, 100
1, 12487, Note_on_c, 0, 40, 0
1, 12487, Note_on_c, 0, 44, 100
1, 12495, Note_on_c, 0, 44, 0
1, 12495, Note_on_c, 0, 47, 100
1, 12502, Note_on_c, 0, 47, 0
1, 12502, Note_on_c, 0, 52, 100
1, 12517, Note_on_c, 0, 52, 0
1, 12540, Note_on_c, 0, 68, 0
1, 12540, Note_on_c, 0, 80, 0
1, 12540, Note_on_c, 0, 76, 100
1, 12540, Note_on_c, 0, 64, 100
1, 12540, Note_on_c, 0, 52, 100
1, 12570, Note_on_c, 0, 52, 0
1, 12570, Note_on_c, 0, 64, 0
1, 12570, Note_on_c, 0, 76, 0
1, 12600, Note_on_c, 0, 81, 100
1, 12600, Note_on_c, 0, 69, 100
1, 12600, Note_on_c, 0, 52, 100
1, 12630, Note_on_c, 0, 52, 0
1, 12630, Note_on_c, 0, 69, 0
1, 12630, Note_on_c, 0, 81, 0
1, 12660, Note_on_c, 0, 83, 100
1, 12660, Note_on_c, 0, 71, 100
1, 12660, Note_on_c, 0, 52, 100
1, 12690, Note_on_c, 0, 52, 0
1, 12690, Note_on_c, 0, 71, 0
1, 12690, Note_on_c, 0, 83, 0
1, 12720, Note_on_c, 0, 85, 100
1, 12720, Note_on_c, 0, 73, 100
1, 12720, Note_on_c, 0, 45, 100
1, 12727, Note_on_c, 0, 45, 0
1, 12727, Note_on_c, 0, 49, 100
1, 12735, Note_on_c, 0, 49, 0
1, 12735, Note_on_c, 0, 52, 100
1, 12742, Note_on_c, 0, 52, 0
1, 12742, Note_on_c, 0, 57, 100
1, 12757, Note_on_c, 0, 57, 0
1, 12780, Note_on_c, 0, 57, 100
1, 12810, Note_on_c, 0, 57, 0
1, 12840, Note_on_c, 0, 73, 0
1, 12840, Note_on_c, 0, 85, 0
1, 12840, Note_on_c, 0, 81, 100
1, 12840, Note_on_c, 0, 69, 100
1, 12840, Note_on_c, 0, 57, 100
1, 12870, Note_on_c, 0, 57, 0
1, 12870, Note_on_c, 0, 69, 0
1, 12870, Note_on_c, 0, 81, 0
1, 12900, Note_on_c, 0, 83, 100
1, 12900, Note_on_c, 0, 71, 100
1, 12900, Note_on_c, 0, 57, 100
1, 12930, Note_on_c, 0, 57, 0
1, 12930, Note_on_c, 0, 71, 0
1, 12930, Note_on_c, 0, 83, 0
1, 12960, Note_on_c, 0, 73, 100
1, 12960, Note_on_c, 0, 85, 100
1, 12960, Note_on_c, 0, 45, 100
1, 12967, Note_on_c, 0, 45, 0
1, 12967, Note_on_c, 0, 49, 100
1, 12975, Note_on_c, 0, 49, 0
1, 12975, Note_on_c, 0, 52, 100
1, 12982, Note_on_c, 0, 52, 0
1, 12982, Note_on_c, 0, 57, 100
1, 12990, Note_on_c, 0, 85, 0
1, 12990, Note_on_c, 0, 73, 0
1, 12997, Note_on_c, 0, 57, 0
1, 13020, Note_on_c, 0, 71, 100
1, 13020, Note_on_c, 0, 83, 100
1, 13020, Note_on_c, 0, 57, 100
1, 13050, Note_on_c, 0, 57, 0
1, 13050, Note_on_c, 0, 83, 0
1, 13050, Note_on_c, 0, 71, 0
1, 13080, Note_on_c, 0, 69, 100
1, 13080, Note_on_c, 0, 81, 100
1, 13080, Note_on_c, 0, 57, 100
1, 13110, Note_on_c, 0, 57, 0
1, 13110, Note_on_c, 0, 81, 0
1, 13110, Note_on_c, 0, 69, 0
1, 13140, Note_on_c, 0, 68, 100
1, 13140, Note_on_c, 0, 80, 100
1, 13140, Note_on_c, 0, 57, 100
1, 13170, Note_on_c, 0, 57, 0
1, 13170, Note_on_c, 0, 80, 0
1, 13170, Note_on_c, 0, 68, 0
1, 13200, Note_on_c, 0, 78, 100
1, 13200, Note_on_c, 0, 66, 100
1, 13200, Note_on_c, 0, 38, 100
1, 13207, Note_on_c, 0, 38, 0
1, 13207, Note_on_c, 0, 42, 100
1, 13215, Note_on_c, 0, 42, 0
1, 13215, Note_on_c, 0, 45, 100
1, 13222, Note_on_c, 0, 45, 0
1, 13222, Note_on_c, 0, 50, 100
1, 13230, Note_on_c, 0, 66, 0
1, 13230, Note_on_c, 0, 78, 0
1, 13237, Note_on_c, 0, 50, 0
1, 13260, Note_on_c, 0, 83, 100
1, 13260, Note_on_c, 0, 71, 100
1, 13260, Note_on_c, 0, 50, 100
1, 13290, Note_on_c, 0, 50, 0
1, 13290, Note_on_c, 0, 71, 0
1, 13290, Note_on_c, 0, 83, 0
1, 13320, Note_on_c, 0, 80, 100
1, 13320, Note_on_c, 0, 68, 100
1, 13320, Note_on_c, 0, 40, 100
1, 13327, Note_on_c, 0, 40, 0
1, 13327, Note_on_c, 0, 44, 100
1, 13335, Note_on_c, 0, 44, 0
1, 13335, Note_on_c, 0, 47, 100
1, 13342, Note_on_c, 0, 47, 0
1, 13342, Note_on_c, 0, 52, 100
1, 13350, Note_on_c, 0, 68, 0
1, 13350, Note_on_c, 0, 80, 0
1, 13357, Note_on_c, 0, 52, 0
1, 13380, Note_on_c, 0, 76, 100
1, 13380, Note_on_c, 0, 64, 100
1, 13380, Note_on_c, 0, 52, 100
1, 13410, Note_on_c, 0, 52, 0
1, 13410, Note_on_c, 0, 64, 0
1, 13410, Note_on_c, 0, 76, 0
1, 13440, Note_on_c, 0, 81, 100
1, 13440, Note_on_c, 0, 69, 100
1, 13440, Note_on_c, 0, 45, 100
1, 13560, Note_on_c, 0, 45, 0
1, 13560, Note_on_c, 0, 69, 0
1, 13560, Note_on_c, 0, 81, 0
1, 13560, Note_on_c, 0, 81, 100
1, 13560, Note_on_c, 0, 69, 100
1, 13590, Note_on_c, 0, 69, 0
1, 13590, Note_on_c, 0, 81, 0
1, 13620, Note_on_c, 0, 83, 100
1, 13620, Note_on_c, 0, 71, 100
1, 13650, Note_on_c, 0, 71, 0
1, 13650, Note_on_c, 0, 83, 0
1, 13680, Note_on_c, 0, 85, 100
1, 13680, Note_on_c, 0, 73, 100
1, 13680, Note_on_c, 0, 45, 100
1, 13687, Note_on_c, 0, 45, 0
1, 13687, Note_on_c, 0, 49, 100
1, 13695, Note_on_c, 0, 49, 0
1, 13695, Note_on_c, 0, 52, 100
1, 13702, Note_on_c, 0, 52, 0
1, 13702, Note_on_c, 0, 57, 100
1, 13717, Note_on_c, 0, 57, 0
1, 13740, Note_on_c, 0, 57, 100
1, 13770, Note_on_c, 0, 57, 0
1, 13800, Note_on_c, 0, 73, 0
1, 13800, Note_on_c, 0, 85, 0
1, 13800, Note_on_c, 0, 81, 100
1, 13800, Note_on_c, 0, 69, 100
1, 13800, Note_on_c, 0, 57, 100
1, 13830, Note_on_c, 0, 57, 0
1, 13830, Note_on_c, 0, 69, 0
1, 13830, Note_on_c, 0, 81, 0
1, 13860, Note_on_c, 0, 83, 100
1, 13860, Note_on_c, 0, 71, 100
1, 13860, Note_on_c, 0, 57, 100
1, 13890, Note_on_c, 0, 57, 0
1, 13890, Note_on_c, 0, 71, 0
1, 13890, Note_on_c, 0, 83, 0
1, 13920, Note_on_c, 0, 73, 100
1, 13920, Note_on_c, 0, 85, 100
1, 13920, Note_on_c, 0, 45, 100
1, 13927, Note_on_c, 0, 45, 0
1, 13927, Note_on_c, 0, 49, 100
1, 13935, Note_on_c, 0, 49, 0
1, 13935, Note_on_c, 0, 52, 100
1, 13942, Note_on_c, 0, 52, 0
1, 13942, Note_on_c, 0, 57, 100
1, 13950, Note_on_c, 0, 85, 0
1, 13950, Note_on_c, 0, 73, 0
1, 13957, Note_on_c, 0, 57, 0
1, 13980, Note_on_c, 0, 71, 100
1, 13980, Note_on_c, 0, 83, 100
1, 13980, Note_on_c, 0, 57, 100
1, 14010, Note_on_c, 0, 57, 0
1, 14010, Note_on_c, 0, 83, 0
1, 14010, Note_on_c, 0, 71, 0
1, 14040, Note_on_c, 0, 69, 100
1, 14040, Note_on_c, 0, 81, 100
1, 14040, Note_on_c, 0, 57, 100
1, 14070, Note_on_c, 0, 57, 0
1, 14070, Note_on_c, 0, 81, 0
1, 14070, Note_on_c, 0, 69, 0
1, 14100, Note_on_c, 0, 68, 100
1, 14100, Note_on_c, 0, 80, 100
1, 14100, Note_on_c, 0, 57, 100
1, 14130, Note_on_c, 0, 57, 0
1, 14130, Note_on_c, 0, 80, 0
1, 14130, Note_on_c, 0, 68, 0
1, 14160, Note_on_c, 0, 78, 100
1, 14160, Note_on_c, 0, 66, 100
1, 14160, Note_on_c, 0, 38, 100
1, 14167, Note_on_c, 0, 38, 0
1, 14167, Note_on_c, 0, 42, 100
1, 14175, Note_on_c, 0, 42, 0
1, 14175, Note_on_c, 0, 45, 100
1, 14182, Note_on_c, 0, 45, 0
1, 14182, Note_on_c, 0, 50, 100
1, 14190, Note_on_c, 0, 66, 0
1, 14190, Note_on_c, 0, 78, 0
1, 14197, Note_on_c, 0, 50, 0
1, 14220, Note_on_c, 0, 80, 100
1, 14220, Note_on_c, 0, 68, 100
1, 14220, Note_on_c, 0, 50, 100
1, 14250, Note_on_c, 0, 50, 0
1, 14250, Note_on_c, 0, 68, 0
1, 14250, Note_on_c, 0, 80, 0
1, 14280, Note_on_c, 0, 81, 100
1, 14280, Note_on_c, 0, 69, 100
1, 14280, Note_on_c, 0, 39, 100
1, 14287, Note_on_c, 0, 39, 0
1, 14287, Note_on_c, 0, 42, 100
1, 14295, Note_on_c, 0, 42, 0
1, 14295, Note_on_c, 0, 45, 100
1, 14302, Note_on_c, 0, 45, 0
1, 14302, Note_on_c, 0, 51, 100
1, 14310, Note_on_c, 0, 69, 0
1, 14310, Note_on_c, 0, 81, 0
1, 14317, Note_on_c, 0, 51, 0
1, 14340, Note_on_c, 0, 83, 100
1, 14340, Note_on_c, 0, 71, 100
1, 14340, Note_on_c, 0, 51, 100
1, 14370, Note_on_c, 0, 51, 0
1, 14370, Note_on_c, 0, 71, 0
1, 14370, Note_on_c, 0, 83, 0
1, 14400, Note_on_c, 0, 80, 100
1, 14400, Note_on_c, 0, 68, 100
1, 14400, Note_on_c, 0, 40, 100
1, 14407, Note_on_c, 0, 40, 0
1, 14407, Note_on_c, 0, 44, 100
1, 14415, Note_on_c, 0, 44, 0
1, 14415, Note_on_c, 0, 47, 100
1, 14422, Note_on_c, 0, 47, 0
1, 14422, Note_on_c, 0, 52, 100
1, 14437, Note_on_c, 0, 52, 0
1, 14460, Note_on_c, 0, 68, 0
1, 14460, Note_on_c, 0, 80, 0
1, 14460, Note_on_c, 0, 76, 100
1, 14460, Note_on_c, 0, 64, 100
1, 14460, Note_on_c, 0, 52, 100
1, 14490, Note_on_c, 0, 52, 0
1, 14490, Note_on_c, 0, 64, 0
1, 14490, Note_on_c, 0, 76, 0
1, 14520, Note_on_c, 0, 81, 100
1, 14520, Note_on_c, 0, 69, 100
1, 14520, Note_on_c, 0, 52, 100
1, 14550, Note_on_c, 0, 52, 0
1, 14550, Note_on_c, 0, 69, 0
1, 14550, Note_on_c, 0, 81, 0
1, 14580, Note_on_c, 0, 83, 100
1, 14580, Note_on_c, 0, 71, 100
1, 14580, Note_on_c, 0, 52, 100
1, 14610, Note_on_c, 0, 52, 0
1, 14610, Note_on_c, 0, 71, 0
1, 14610, Note_on_c, 0, 83, 0
1, 14640, Note_on_c, 0, 85, 100
1, 14640, Note_on_c, 0, 73, 100
1, 14640, Note_on_c, 0, 45, 100
1, 14647, Note_on_c, 0, 45, 0
1, 14647, Note_on_c, 0, 49, 100
1, 14655, Note_on_c, 0, 49, 0
1, 14655, Note_on_c, 0, 52, 100
1, 14662, Note_on_c, 0, 52, 0
1, 14662, Note_on_c, 0, 57, 100
1, 14677, Note_on_c, 0, 57, 0
1, 14700, Note_on_c, 0, 57, 100
1, 14730, Note_on_c, 0, 57, 0
1, 14760, Note_on_c, 0, 73, 0
1, 14760, Note_on_c, 0, 85, 0
1, 14760, Note_on_c, 0, 81, 100
1, 14760, Note_on_c, 0, 69, 100
1, 14760, Note_on_c, 0, 57, 100
1, 14790, Note_on_c, 0, 57, 0
1, 14790, Note_on_c, 0, 69, 0
1, 14790, Note_on_c, 0, 81, 0
1, 14820, Note_on_c, 0, 83, 100
1, 14820, Note_on_c, 0, 71, 100
1, 14820, Note_on_c, 0, 57, 100
1, 14850, Note_on_c, 0, 57, 0
1, 14850, Note_on_c, 0, 71, 0
1, 14850, Note_on_c, 0, 83, 0
1, 14880, Note_on_c, 0, 73, 100
1, 14880, Note_on_c, 0, 85, 100
1, 14880, Note_on_c, 0, 45, 100
1, 14887, Note_on_c, 0, 45, 0
1, 14887, Note_on_c, 0, 49, 100
1, 14895, Note_on_c, 0, 49, 0
1, 14895, Note_on_c, 0, 52, 100
1, 14902, Note_on_c, 0, 52, 0
1, 14902, Note_on_c, 0, 57, 100
1, 14910, Note_on_c, 0, 85, 0
1, 14910, Note_on_c, 0, 73, 0
1, 14917, Note_on_c, 0, 57, 0
1, 14940, Note_on_c, 0, 71, 100
1, 14940, Note_on_c, 0, 83, 100
1, 14940, Note_on_c, 0, 57, 100
1, 14970, Note_on_c, 0, 57, 0
1, 14970, Note_on_c, 0, 83, 0
1, 14970, Note_on_c, 0, 71, 0
1, 15000, Note_on_c, 0, 69, 100
1, 15000, Note_on_c, 0, 81, 100
1, 15000, Note_on_c, 0, 57, 100
1, 15030, Note_on_c, 0, 57, 0
1, 15030, Note_on_c, 0, 81, 0
1, 15030, Note_on_c, 0, 69, 0
1, 15060, Note_on_c, 0, 68, 100
1, 15060, Note_on_c, 0, 80, 100
1, 15060, Note_on_c, 0, 57, 100
1, 15090, Note_on_c, 0, 57, 0
1, 15090, Note_on_c, 0, 80, 0
1, 15090, Note_on_c, 0, 68, 0
1, 15120, Note_on_c, 0, 78, 100
1, 15120, Note_on_c, 0, 66, 100
1, 15120, Note_on_c, 0, 38, 100
1, 15127, Note_on_c, 0, 38, 0
1, 15127, Note_on_c, 0, 42, 100
1, 15135, Note_on_c, 0, 42, 0
1, 15135, Note_on_c, 0, 45, 100
1, 15142, Note_on_c, 0, 45, 0
1, 15142, Note_on_c, 0, 50, 100
1, 15150, Note_on_c, 0, 66, 0
1, 15150, Note_on_c, 0, 78, 0
1, 15157, Note_on_c, 0, 50, 0
1, 15180, Note_on_c, 0, 83, 100
1, 15180, Note_on_c, 0, 71, 100
1, 15180, Note_on_c, 0, 50, 100
1, 15210, Note_on_c, 0, 50, 0
1, 15210, Note_on_c, 0, 71, 0
1, 15210, Note_on_c, 0, 83, 0
1, 15240, Note_on_c, 0, 80, 100
1, 15240, Note_on_c, 0, 68, 100
1, 15240, Note_on_c, 0, 40, 100
1, 15247, Note_on_c, 0, 40, 0
1, 15247, Note_on_c, 0, 44, 100
1, 15255, Note_on_c, 0, 44, 0
1, 15255, Note_on_c, 0, 47, 100
1, 15262, Note_on_c, 0, 47, 0
1, 15262, Note_on_c, 0, 52, 100
1, 15270, Note_on_c, 0, 68, 0
1, 15270, Note_on_c, 0, 80, 0
1, 15277, Note_on_c, 0, 52, 0
1, 15300, Note_on_c, 0, 76, 100
1, 15300, Note_on_c, 0, 64, 100
1, 15300, Note_on_c, 0, 52, 100
1, 15330, Note_on_c, 0, 52, 0
1, 15330, Note_on_c, 0, 64, 0
1, 15330, Note_on_c, 0, 76, 0
1, 15360, Note_on_c, 0, 81, 100
1, 15360, Note_on_c, 0, 69, 100
1, 15360, Note_on_c, 0, 45, 100
1, 15480, Note_on_c, 0, 45, 0
1, 15480, Note_on_c, 0, 69, 0
1, 15480, Note_on_c, 0, 81, 0
1, 15480, Note_on_c, 0, 85, 100
1, 15510, Note_on_c, 0, 85, 0
1, 15510, Note_on_c, 0, 86, 100
1, 15540, Note_on_c, 0, 86, 0
1, 15540, Note_on_c, 0, 85, 100
1, 15570, Note_on_c, 0, 85, 0
1, 15570, Note_on_c, 0, 83, 100
1, 15600, Note_on_c, 0, 83, 0
1, 15600, Note_on_c, 0, 81, 100
1, 15600, Note_on_c, 0, 54, 100
1, 15630, Note_on_c, 0, 81, 0
1, 15630, Note_on_c, 0, 83, 100
1, 15660, Note_on_c, 0, 83, 0
1, 15660, Note_on_c, 0, 54, 0
1, 15660, Note_on_c, 0, 81, 100
1, 15660, Note_on_c, 0, 57, 100
1, 15660, Note_on_c, 0, 61, 100
1, 15690, Note_on_c, 0, 61, 0
1, 15690, Note_on_c, 0, 57, 0
1, 15690, Note_on_c, 0, 81, 0
1, 15690, Note_on_c, 0, 80, 100
1, 15720, Note_on_c, 0, 80, 0
1, 15720, Note_on_c, 0, 78, 100
1, 15720, Note_on_c, 0, 57, 100
1, 15720, Note_on_c, 0, 61, 100
1, 15750, Note_on_c, 0, 61, 0
1, 15750, Note_on_c, 0, 57, 0
1, 15750, Note_on_c, 0, 78, 0
1, 15750, Note_on_c, 0, 81, 100
1, 15780, Note_on_c, 0, 81, 0
1, 15780, Note_on_c, 0, 80, 100
1, 15780, Note_on_c, 0, 57, 100
1, 15780, Note_on_c, 0, 61, 100
1, 15810, Note_on_c, 0, 61, 0
1, 15810, Note_on_c, 0, 57, 0
1, 15810, Note_on_c, 0, 80, 0
1, 15810, Note_on_c, 0, 78, 100
1, 15840, Note_on_c, 0, 78, 0
1, 15840, Note_on_c, 0, 77, 100
1, 15840, Note_on_c, 0, 56, 100
1, 15870, Note_on_c, 0, 77, 0
1, 15870, Note_on_c, 0, 78, 100
1, 15900, Note_on_c, 0, 78, 0
1, 15900, Note_on_c, 0, 56, 0
1, 15900, Note_on_c, 0, 80, 100
1, 15900, Note_on_c, 0, 59, 100
1, 15900, Note_on_c, 0, 61, 100
1, 15930, Note_on_c, 0, 61, 0
1, 15930, Note_on_c, 0, 59, 0
1, 15930, Note_on_c, 0, 80, 0
1, 15930, Note_on_c, 0, 77, 100
1, 15960, Note_on_c, 0, 77, 0
1, 15960, Note_on_c, 0, 73, 100
1, 15960, Note_on_c, 0, 59, 100
1, 15960, Note_on_c, 0, 61, 100
1, 15990, Note_on_c, 0, 61, 0
1, 15990, Note_on_c, 0, 59, 0
1, 15990, Note_on_c, 0, 73, 0
1, 15990, Note_on_c, 0, 75, 100
1, 16020, Note_on_c, 0, 75, 0
1, 16020, Note_on_c, 0, 77, 100
1, 16020, Note_on_c, 0, 59, 100
1, 16020, Note_on_c, 0, 61, 100
1, 16050, Note_on_c, 0, 61, 0
1, 16050, Note_on_c, 0, 59, 0
1, 16050, Note_on_c, 0, 77, 0
1, 16050, Note_on_c, 0, 73, 100
1, 16080, Note_on_c, 0, 73, 0
1, 16080, Note_on_c, 0, 78, 100
1, 16080, Note_on_c, 0, 54, 100
1, 16110, Note_on_c, 0, 78, 0
1, 16110, Note_on_c, 0, 77, 100
1, 16140, Note_on_c, 0, 77, 0
1, 16140, Note_on_c, 0, 54, 0
1, 16140, Note_on_c, 0, 78, 100
1, 16140, Note_on_c, 0, 57, 100
1, 16140, Note_on_c, 0, 61, 100
1, 16170, Note_on_c, 0, 61, 0
1, 16170, Note_on_c, 0, 57, 0
1, 16170, Note_on_c, 0, 78, 0
1, 16170, Note_on_c, 0, 80, 100
1, 16200, Note_on_c, 0, 80, 0
1, 16200, Note_on_c, 0, 81, 100
1, 16200, Note_on_c, 0, 57, 100
1, 16200, Note_on_c, 0, 61, 100
1, 16230, Note_on_c, 0, 61, 0
1, 16230, Note_on_c, 0, 57, 0
1, 16230, Note_on_c, 0, 81, 0
1, 16230, Note_on_c, 0, 80, 100
1, 16260, Note_on_c, 0, 80, 0
1, 16260, Note_on_c, 0, 81, 100
1, 16260, Note_on_c, 0, 57, 100
1, 16260, Note_on_c, 0, 61, 100
1, 16290, Note_on_c, 0, 61, 0
1, 16290, Note_on_c, 0, 57, 0
1, 16290, Note_on_c, 0, 81, 0
1, 16290, Note_on_c, 0, 83, 100
1, 16320, Note_on_c, 0, 83, 0
1, 16320, Note_on_c, 0, 85, 100
1, 16320, Note_on_c, 0, 53, 100
1, 16350, Note_on_c, 0, 85, 0
1, 16350, Note_on_c, 0, 84, 100
1, 16380, Note_on_c, 0, 84, 0
1, 16380, Note_on_c, 0, 53, 0
1, 16380, Note_on_c, 0, 85, 100
1, 16380, Note_on_c, 0, 56, 100
1, 16380, Note_on_c, 0, 61, 100
1, 16410, Note_on_c, 0, 61, 0
1, 16410, Note_on_c, 0, 56, 0
1, 16410, Note_on_c, 0, 85, 0
1, 16410, Note_on_c, 0, 84, 100
1, 16440, Note_on_c, 0, 84, 0
1, 16440, Note_on_c, 0, 85, 100
1, 16440, Note_on_c, 0, 56, 100
1, 16440, Note_on_c, 0, 61, 100
1, 16470, Note_on_c, 0, 61, 0
1, 16470, Note_on_c, 0, 56, 0
1, 16470, Note_on_c, 0, 85, 0
1, 16470, Note_on_c, 0, 86, 100
1, 16500, Note_on_c, 0, 86, 0
1, 16500, Note_on_c, 0, 85, 100
1, 16500, Note_on_c, 0, 56, 100
1, 16500, Note_on_c, 0, 61, 100
1, 16530, Note_on_c, 0, 61, 0
1, 16530, Note_on_c, 0, 56, 0
1, 16530, Note_on_c, 0, 85, 0
1, 16530, Note_on_c, 0, 83, 100
1, 16560, Note_on_c, 0, 83, 0
1, 16560, Note_on_c, 0, 81, 100
1, 16560, Note_on_c, 0, 54, 100
1, 16590, Note_on_c, 0, 81, 0
1, 16590, Note_on_c, 0, 83, 100
1, 16620, Note_on_c, 0, 83, 0
1, 16620, Note_on_c, 0, 54, 0
1, 16620, Note_on_c, 0, 81, 100
1, 16620, Note_on_c, 0, 57, 100
1, 16620, Note_on_c, 0, 61, 100
1, 16650, Note_on_c, 0, 61, 0
1, 16650, Note_on_c, 0, 57, 0
1, 16650, Note_on_c, 0, 81, 0
1, 16650, Note_on_c, 0, 80, 100
1, 16680, Note_on_c, 0, 80, 0
1, 16680, Note_on_c, 0, 78, 100
1, 16680, Note_on_c, 0, 57, 100
1, 16680, Note_on_c, 0, 61, 100
1, 16710, Note_on_c, 0, 61, 0
1, 16710, Note_on_c, 0, 57, 0
1, 16710, Note_on_c, 0, 78, 0
1, 16710, Note_on_c, 0, 81, 100
1, 16740, Note_on_c, 0, 81, 0
1, 16740, Note_on_c, 0, 80, 100
1, 16740, Note_on_c, 0, 57, 100
1, 16740, Note_on_c, 0, 61, 100
1, 16770, Note_on_c, 0, 61, 0
1, 16770, Note_on_c, 0, 57, 0
1, 16770, Note_on_c, 0, 80, 0
1, 16770, Note_on_c, 0, 78, 100
1, 16800, Note_on_c, 0, 78, 0
1, 16800, Note_on_c, 0, 76, 100
1, 16800, Note_on_c, 0, 56, 100
1, 16830, Note_on_c, 0, 76, 0
1, 16830, Note_on_c, 0, 78, 100
1, 16860, Note_on_c, 0, 78, 0
1, 16860, Note_on_c, 0, 56, 0
1, 16860, Note_on_c, 0, 80, 100
1, 16860, Note_on_c, 0, 64, 100
1, 16860, Note_on_c, 0, 61, 100
1, 16890, Note_on_c, 0, 61, 0
1, 16890, Note_on_c, 0, 64, 0
1, 16890, Note_on_c, 0, 80, 0
1, 16890, Note_on_c, 0, 76, 100
1, 16920, Note_on_c, 0, 76, 0
1, 16920, Note_on_c, 0, 73, 100
1, 16920, Note_on_c, 0, 64, 100
1, 16920, Note_on_c, 0, 61, 100
1, 16950, Note_on_c, 0, 61, 0
1, 16950, Note_on_c, 0, 64, 0
1, 16950, Note_on_c, 0, 73, 0
1, 16950, Note_on_c, 0, 75, 100
1, 16980, Note_on_c, 0, 75, 0
1, 16980, Note_on_c, 0, 76, 100
1, 16980, Note_on_c, 0, 64, 100
1, 16980, Note_on_c, 0, 61, 100
1, 17010, Note_on_c, 0, 61, 0
1, 17010, Note_on_c, 0, 64, 0
1, 17010, Note_on_c, 0, 76, 0
1, 17010, Note_on_c, 0, 73, 100
1, 17040, Note_on_c, 0, 73, 0
1, 17040, Note_on_c, 0, 75, 100
1, 17040, Note_on_c, 0, 56, 100
1, 17070, Note_on_c, 0, 75, 0
1, 17070, Note_on_c, 0, 76, 100
1, 17100, Note_on_c, 0, 76, 0
1, 17100, Note_on_c, 0, 56, 0
1, 17100, Note_on_c, 0, 78, 100
1, 17100, Note_on_c, 0, 66, 100
1, 17100, Note_on_c, 0, 63, 100
1, 17130, Note_on_c, 0, 63, 0
1, 17130, Note_on_c, 0, 66, 0
1, 17130, Note_on_c, 0, 78, 0
1, 17130, Note_on_c, 0, 75, 100
1, 17160, Note_on_c, 0, 75, 0
1, 17160, Note_on_c, 0, 72, 100
1, 17160, Note_on_c, 0, 66, 100
1, 17160, Note_on_c, 0, 63, 100
1, 17190, Note_on_c, 0, 63, 0
1, 17190, Note_on_c, 0, 66, 0
1, 17190, Note_on_c, 0, 72, 0
1, 17190, Note_on_c, 0, 73, 100
1, 17220, Note_on_c, 0, 73, 0
1, 17220, Note_on_c, 0, 75, 100
1, 17220, Note_on_c, 0, 66, 100
1, 17220, Note_on_c, 0, 63, 100
1, 17250, Note_on_c, 0, 63, 0
1, 17250, Note_on_c, 0, 66, 0
1, 17250, Note_on_c, 0, 75, 0
1, 17250, Note_on_c, 0, 72, 100
1, 17280, Note_on_c, 0, 72, 0
1, 17280, Note_on_c, 0, 73, 100
1, 17280, Note_on_c, 0, 64, 100
1, 17280, Note_on_c, 0, 61, 100
1, 17400, Note_on_c, 0, 61, 0
1, 17400, Note_on_c, 0, 64, 0
1, 17400, Note_on_c, 0, 73, 0
1, 17400, Note_on_c, 0, 85, 100
1, 17430, Note_on_c, 0, 85, 0
1, 17430, Note_on_c, 0, 86, 100
1, 17460, Note_on_c, 0, 86, 0
1, 17460, Note_on_c, 0, 85, 100
1, 17490, Note_on_c, 0, 85, 0
1, 17490, Note_on_c, 0, 83, 100
1, 17520, Note_on_c, 0, 83, 0
1, 17520, Note_on_c, 0, 81, 100
1, 17520, Note_on_c, 0, 54, 100
1, 17550, Note_on_c, 0, 81, 0
1, 17550, Note_on_c, 0, 83, 100
1, 17580, Note_on_c, 0, 83, 0
1, 17580, Note_on_c, 0, 54, 0
1, 17580, Note_on_c, 0, 81, 100
1, 17580, Note_on_c, 0, 57, 100
1, 17580, Note_on_c, 0, 61, 100
1, 17610, Note_on_c, 0, 61, 0
1, 17610, Note_on_c, 0, 57, 0
1, 17610, Note_on_c, 0, 81, 0
1, 17610, Note_on_c, 0, 80, 100
1, 17640, Note_on_c, 0, 80, 0
1, 17640, Note_on_c, 0, 78, 100
1, 17640, Note_on_c, 0, 57, 100
1, 17640, Note_on_c, 0, 61, 100
1, 17670, Note_on_c, 0, 61, 0
1, 17670, Note_on_c, 0, 57, 0
1, 17670, Note_on_c, 0, 78, 0
1, 17670, Note_on_c, 0, 81, 100
1, 17700, Note_on_c, 0, 81, 0
1, 17700, Note_on_c, 0, 80, 100
1, 17700, Note_on_c, 0, 57, 100
1, 17700, Note_on_c, 0, 61, 100
1, 17730, Note_on_c, 0, 61, 0
1, 17730, Note_on_c, 0, 57, 0
1, 17730, Note_on_c, 0, 80, 0
1, 17730, Note_on_c, 0, 78, 100
1, 17760, Note_on_c, 0, 78, 0
1, 17760, Note_on_c, 0, 77, 100
1, 17760, Note_on_c, 0, 56, 100
1, 17790, Note_on_c, 0, 77, 0
1, 17790, Note_on_c, 0, 78, 100
1, 17820, Note_on_c, 0, 78, 0
1, 17820, Note_on_c, 0, 56, 0
1, 17820, Note_on_c, 0, 80, 100
1, 17820, Note_on_c, 0, 59, 100
1, 17820, Note_on_c, 0, 61, 100
1, 17850, Note_on_c, 0, 61, 0
1, 17850, Note_on_c, 0, 59, 0
1, 17850, Note_on_c, 0, 80, 0
1, 17850, Note_on_c, 0, 77, 100
1, 17880, Note_on_c, 0, 77, 0
1, 17880, Note_on_c, 0, 73, 100
1, 17880, Note_on_c, 0, 59, 100
1, 17880, Note_on_c, 0, 61, 100
1, 17910, Note_on_c, 0, 61, 0
1, 17910, Note_on_c, 0, 59, 0
1, 17910, Note_on_c, 0, 73, 0
1, 17910, Note_on_c, 0, 75, 100
1, 17940, Note_on_c, 0, 75, 0
1, 17940, Note_on_c, 0, 77, 100
1, 17940, Note_on_c, 0, 59, 100
1, 17940, Note_on_c, 0, 61, 100
1, 17970, Note_on_c, 0, 61, 0
1, 17970, Note_on_c, 0, 59, 0
1, 17970, Note_on_c, 0, 77, 0
1, 17970, Note_on_c, 0, 73, 100
1, 18000, Note_on_c, 0, 73, 0
1, 18000, Note_on_c, 0, 78, 100
1, 18000, Note_on_c, 0, 54, 100
1, 18030, Note_on_c, 0, 78, 0
1, 18030, Note_on_c, 0, 77, 100
1, 18060, Note_on_c, 0, 77, 0
1, 18060, Note_on_c, 0, 54, 0
1, 18060, Note_on_c, 0, 78, 100
1, 18060, Note_on_c, 0, 57, 100
1, 18060, Note_on_c, 0, 61, 100
1, 18090, Note_on_c, 0, 61, 0
1, 18090, Note_on_c, 0, 57, 0
1, 18090, Note_on_c, 0, 78, 0
1, 18090, Note_on_c, 0, 80, 100
1, 18120, Note_on_c, 0, 80, 0
1, 18120, Note_on_c, 0, 81, 100
1, 18120, Note_on_c, 0, 57, 100
1, 18120, Note_on_c, 0, 61, 100
1, 18150, Note_on_c, 0, 61, 0
1, 18150, Note_on_c, 0, 57, 0
1, 18150, Note_on_c, 0, 81, 0
1, 18150, Note_on_c, 0, 80, 100
1, 18180, Note_on_c, 0, 80, 0
1, 18180, Note_on_c, 0, 81, 100
1, 18180, Note_on_c, 0, 57, 100
1, 18180, Note_on_c, 0, 61, 100
1, 18210, Note_on_c, 0, 61, 0
1, 18210, Note_on_c, 0, 57, 0
1, 18210, Note_on_c, 0, 81, 0
1, 18210, Note_on_c, 0, 83, 100
1, 18240, Note_on_c, 0, 83, 0
1, 18240, Note_on_c, 0, 85, 100
1, 18240, Note_on_c, 0, 53, 100
1, 18270, Note_on_c, 0, 85, 0
1, 18270, Note_on_c, 0, 84, 100
1, 18300, Note_on_c, 0, 84, 0
1, 18300, Note_on_c, 0, 53, 0
1, 18300, Note_on_c, 0, 85, 100
1, 18300, Note_on_c, 0, 56, 100
1, 18300, Note_on_c, 0, 61, 100
1, 18330, Note_on_c, 0, 61, 0
1, 18330, Note_on_c, 0, 56, 0
1, 18330, Note_on_c, 0, 85, 0
1, 18330, Note_on_c, 0, 84, 100
1, 18360, Note_on_c, 0, 84, 0
1, 18360, Note_on_c, 0, 85, 100
1, 18360, Note_on_c, 0, 56, 100
1, 18360, Note_on_c, 0, 61, 100
1, 18390, Note_on_c, 0, 61, 0
1, 18390, Note_on_c, 0, 56, 0
1, 18390, Note_on_c, 0, 85, 0
1, 18390, Note_on_c, 0, 86, 100
1, 18420, Note_on_c, 0, 86, 0
1, 18420, Note_on_c, 0, 85, 100
1, 18420, Note_on_c, 0, 56, 100
1, 18420, Note_on_c, 0, 61, 100
1, 18450, Note_on_c, 0, 61, 0
1, 18450, Note_on_c, 0, 56, 0
1, 18450, Note_on_c, 0, 85, 0
1, 18450, Note_on_c, 0, 83, 100
1, 18480, Note_on_c, 0, 83, 0
1, 18480, Note_on_c, 0, 81, 100
1, 18480, Note_on_c, 0, 54, 100
1, 18510, Note_on_c, 0, 81, 0
1, 18510, Note_on_c, 0, 83, 100
1, 18540, Note_on_c, 0, 83, 0
1, 18540, Note_on_c, 0, 54, 0
1, 18540, Note_on_c, 0, 81, 100
1, 18540, Note_on_c, 0, 57, 100
1, 18540, Note_on_c, 0, 61, 100
1, 18570, Note_on_c, 0, 61, 0
1, 18570, Note_on_c, 0, 57, 0
1, 18570, Note_on_c, 0, 81, 0
1, 18570, Note_on_c, 0, 80, 100
1, 18600, Note_on_c, 0, 80, 0
1, 18600, Note_on_c, 0, 78, 100
1, 18600, Note_on_c, 0, 57, 100
1, 18600, Note_on_c, 0, 61, 100
1, 18630, Note_on_c, 0, 61, 0
1, 18630, Note_on_c, 0, 57, 0
1, 18630, Note_on_c, 0, 78, 0
1, 18630, Note_on_c, 0, 81, 100
1, 18660, Note_on_c, 0, 81, 0
1, 18660, Note_on_c, 0, 80, 100
1, 18660, Note_on_c, 0, 57, 100
1, 18660, Note_on_c, 0, 61, 100
1, 18690, Note_on_c, 0, 61, 0
1, 18690, Note_on_c, 0, 57, 0
1, 18690, Note_on_c, 0, 80, 0
1, 18690, Note_on_c, 0, 78, 100
1, 18720, Note_on_c, 0, 78, 0
1, 18720, Note_on_c, 0, 76, 100
1, 18720, Note_on_c, 0, 56, 100
1, 18750, Note_on_c, 0, 76, 0
1, 18750, Note_on_c, 0, 78, 100
1, 18780, Note_on_c, 0, 78, 0
1, 18780, Note_on_c, 0, 56, 0
1, 18780, Note_on_c, 0, 80, 100
1, 18780, Note_on_c, 0, 64, 100
1, 18780, Note_on_c, 0, 61, 100
1, 18810, Note_on_c, 0, 61, 0
1, 18810, Note_on_c, 0, 64, 0
1, 18810, Note_on_c, 0, 80, 0
1, 18810, Note_on_c, 0, 76, 100
1, 18840, Note_on_c, 0, 76, 0
1, 18840, Note_on_c, 0, 73, 100
1, 18840, Note_on_c, 0, 64, 100
1, 18840, Note_on_c, 0, 61, 100
1, 18870, Note_on_c, 0, 61, 0
1, 18870, Note_on_c, 0, 64, 0
1, 18870, Note_on_c, 0, 73, 0
1, 18870, Note_on_c, 0, 75, 100
1, 18900, Note_on_c, 0, 75, 0
1, 18900, Note_on_c, 0, 76, 100
1, 18900, Note_on_c, 0, 64, 100
1, 18900, Note_on_c, 0, 61, 100
1, 18930, Note_on_c, 0, 61, 0
1, 18930, Note_on_c, 0, 64, 0
1, 18930, Note_on_c, 0, 76, 0
1, 18930, Note_on_c, 0, 73, 100
1, 18960, Note_on_c, 0, 73, 0
1, 18960, Note_on_c, 0, 75, 100
1, 18960, Note_on_c, 0, 56, 100
1, 18990, Note_on_c, 0, 75, 0
1, 18990, Note_on_c, 0, 76, 100
1, 19020, Note_on_c, 0, 76, 0
1, 19020, Note_on_c, 0, 56, 0
1, 19020, Note_on_c, 0, 78, 100
1, 19020, Note_on_c, 0, 66, 100
1, 19020, Note_on_c, 0, 63, 100
1, 19050, Note_on_c, 0, 63, 0
1, 19050, Note_on_c, 0, 66, 0
1, 19050, Note_on_c, 0, 78, 0
1, 19050, Note_on_c, 0, 75, 100
1, 19080, Note_on_c, 0, 75, 0
1, 19080, Note_on_c, 0, 72, 100
1, 19080, Note_on_c, 0, 66, 100
1, 19080, Note_on_c, 0, 63, 100
1, 19110, Note_on_c, 0, 63, 0
1, 19110, Note_on_c, 0, 66, 0
1, 19110, Note_on_c, 0, 72, 0
1, 19110, Note_on_c, 0, 73, 100
1, 19140, Note_on_c, 0, 73, 0
1, 19140, Note_on_c, 0, 75, 100
1, 19140, Note_on_c, 0, 66, 100
1, 19140, Note_on_c, 0, 63, 100
1, 19170, Note_on_c, 0, 63, 0
1, 19170, Note_on_c, 0, 66, 0
1, 19170, Note_on_c, 0, 75, 0
1, 19170, Note_on_c, 0, 72, 100
1, 19200, Note_on_c, 0, 72, 0
1, 19200, Note_on_c, 0, 73, 100
1, 19200, Note_on_c, 0, 64, 100
1, 19200, Note_on_c, 0, 61, 100
1, 19320, Note_on_c, 0, 61, 0
1, 19320, Note_on_c, 0, 64, 0
1, 19320, Note_on_c, 0, 73, 0
1, 19320, Note_on_c, 0, 76, 100
1, 19350, Note_on_c, 0, 76, 0
1, 19350, Note_on_c, 0, 74, 100
1, 19380, Note_on_c, 0, 74, 0
1, 19380, Note_on_c, 0, 73, 100
1, 19410, Note_on_c, 0, 73, 0
1, 19410, Note_on_c, 0, 71, 100
1, 19440, Note_on_c, 0, 71, 0
1, 19440, Note_on_c, 0, 69, 100
1, 19440, Note_on_c, 0, 57, 100
1, 19470, Note_on_c, 0, 69, 0
1, 19470, Note_on_c, 0, 71, 100
1, 19500, Note_on_c, 0, 71, 0
1, 19500, Note_on_c, 0, 57, 0
1, 19500, Note_on_c, 0, 73, 100
1, 19500, Note_on_c, 0, 64, 100
1, 19500, Note_on_c, 0, 61, 100
1, 19530, Note_on_c, 0, 61, 0
1, 19530, Note_on_c, 0, 64, 0
1, 19530, Note_on_c, 0, 73, 0
1, 19530, Note_on_c, 0, 74, 100
1, 19560, Note_on_c, 0, 74, 0
1, 19560, Note_on_c, 0, 76, 100
1, 19560, Note_on_c, 0, 64, 100
1, 19560, Note_on_c, 0, 61, 100
1, 19590, Note_on_c, 0, 61, 0
1, 19590, Note_on_c, 0, 64, 0
1, 19590, Note_on_c, 0, 76, 0
1, 19590, Note_on_c, 0, 78, 100
1, 19620, Note_on_c, 0, 78, 0
1, 19620, Note_on_c, 0, 80, 100
1, 19620, Note_on_c, 0, 64, 100
1, 19620, Note_on_c, 0, 61, 100
1, 19650, Note_on_c, 0, 61, 0
1, 19650, Note_on_c, 0, 64, 0
1, 19650, Note_on_c, 0, 80, 0
1, 19650, Note_on_c, 0, 81, 100
1, 19680, Note_on_c, 0, 81, 0
1, 19680, Note_on_c, 0, 81, 100
1, 19680, Note_on_c, 0, 59, 100
1, 19710, Note_on_c, 0, 59, 0
1, 19710, Note_on_c, 0, 81, 0
1, 19710, Note_on_c, 0, 80, 100
1, 19740, Note_on_c, 0, 80, 0
1, 19740, Note_on_c, 0, 78, 100
1, 19740, Note_on_c, 0, 62, 100
1, 19740, Note_on_c, 0, 64, 100
1, 19770, Note_on_c, 0, 64, 0
1, 19770, Note_on_c, 0, 62, 0
1, 19770, Note_on_c, 0, 78, 0
1, 19770, Note_on_c, 0, 76, 100
1, 19800, Note_on_c, 0, 76, 0
1, 19800, Note_on_c, 0, 76, 100
1, 19800, Note_on_c, 0, 56, 100
1, 19830, Note_on_c, 0, 56, 0
1, 19830, Note_on_c, 0, 76, 0
1, 19830, Note_on_c, 0, 74, 100
1, 19860, Note_on_c, 0, 74, 0
1, 19860, Note_on_c, 0, 73, 100
1, 19860, Note_on_c, 0, 64, 100
1, 19860, Note_on_c, 0, 62, 100
1, 19890, Note_on_c, 0, 62, 0
1, 19890, Note_on_c, 0, 64, 0
1, 19890, Note_on_c, 0, 73, 0
1, 19890, Note_on_c, 0, 71, 100
1, 19920, Note_on_c, 0, 71, 0
1, 19920, Note_on_c, 0, 69, 100
1, 19920, Note_on_c, 0, 57, 100
1, 19950, Note_on_c, 0, 69, 0
1, 19950, Note_on_c, 0, 71, 100
1, 19980, Note_on_c, 0, 71, 0
1, 19980, Note_on_c, 0, 57, 0
1, 19980, Note_on_c, 0, 73, 100
1, 19980, Note_on_c, 0, 64, 100
1, 19980, Note_on_c, 0, 61, 100
1, 20010, Note_on_c, 0, 61, 0
1, 20010, Note_on_c, 0, 64, 0
1, 20010, Note_on_c, 0, 73, 0
1, 20010, Note_on_c, 0, 74, 100
1, 20040, Note_on_c, 0, 74, 0
1, 20040, Note_on_c, 0, 76, 100
1, 20040, Note_on_c, 0, 64, 100
1, 20040, Note_on_c, 0, 61, 100
1, 20070, Note_on_c, 0, 61, 0
1, 20070, Note_on_c, 0, 64, 0
1, 20070, Note_on_c, 0, 76, 0
1, 20070, Note_on_c, 0, 78, 100
1, 20100, Note_on_c, 0, 78, 0
1, 20100, Note_on_c, 0, 80, 100
1, 20100, Note_on_c, 0, 64, 100
1, 20100, Note_on_c, 0, 61, 100
1, 20130, Note_on_c, 0, 61, 0
1, 20130, Note_on_c, 0, 64, 0
1, 20130, Note_on_c, 0, 80, 0
1, 20130, Note_on_c, 0, 81, 100
1, 20160, Note_on_c, 0, 81, 0
1, 20160, Note_on_c, 0, 82, 100
1, 20160, Note_on_c, 0, 52, 100
1, 20220, Note_on_c, 0, 52, 0
1, 20220, Note_on_c, 0, 82, 0
1, 20220, Note_on_c, 0, 83, 100
1, 20220, Note_on_c, 0, 62, 100
1, 20220, Note_on_c, 0, 56, 100
1, 20250, Note_on_c, 0, 56, 0
1, 20250, Note_on_c, 0, 62, 0
1, 20250, Note_on_c, 0, 83, 0
1, 20280, Note_on_c, 0, 76, 100
1, 20280, Note_on_c, 0, 62, 100
1, 20280, Note_on_c, 0, 56, 100
1, 20310, Note_on_c, 0, 56, 0
1, 20310, Note_on_c, 0, 62, 0
1, 20310, Note_on_c, 0, 76, 0
1, 20310, Note_on_c, 0, 74, 100
1, 20340, Note_on_c, 0, 74, 0
1, 20340, Note_on_c, 0, 73, 100
1, 20340, Note_on_c, 0, 62, 100
1, 20340, Note_on_c, 0, 56, 100
1, 20370, Note_on_c, 0, 56, 0
1, 20370, Note_on_c, 0, 62, 0
1, 20370, Note_on_c, 0, 73, 0
1, 20370, Note_on_c, 0, 71, 100
1, 20400, Note_on_c, 0, 71, 0
1, 20400, Note_on_c, 0, 69, 100
1, 20400, Note_on_c, 0, 57, 100
1, 20430, Note_on_c, 0, 69, 0
1, 20430, Note_on_c, 0, 71, 100
1, 20460, Note_on_c, 0, 71, 0
1, 20460, Note_on_c, 0, 57, 0
1, 20460, Note_on_c, 0, 73, 100
1, 20460, Note_on_c, 0, 64, 100
1, 20460, Note_on_c, 0, 61, 100
1, 20490, Note_on_c, 0, 61, 0
1, 20490, Note_on_c, 0, 64, 0
1, 20490, Note_on_c, 0, 73, 0
1, 20490, Note_on_c, 0, 74, 100
1, 20520, Note_on_c, 0, 74, 0
1, 20520, Note_on_c, 0, 76, 100
1, 20520, Note_on_c, 0, 64, 100
1, 20520, Note_on_c, 0, 61, 100
1, 20550, Note_on_c, 0, 61, 0
1, 20550, Note_on_c, 0, 64, 0
1, 20550, Note_on_c, 0, 76, 0
1, 20550, Note_on_c, 0, 78, 100
1, 20580, Note_on_c, 0, 78, 0
1, 20580, Note_on_c, 0, 80, 100
1, 20580, Note_on_c, 0, 64, 100
1, 20580, Note_on_c, 0, 61, 100
1, 20610, Note_on_c, 0, 61, 0
1, 20610, Note_on_c, 0, 64, 0
1, 20610, Note_on_c, 0, 80, 0
1, 20610, Note_on_c, 0, 81, 100
1, 20640, Note_on_c, 0, 81, 0
1, 20640, Note_on_c, 0, 81, 100
1, 20640, Note_on_c, 0, 59, 100
1, 20670, Note_on_c, 0, 59, 0
1, 20670, Note_on_c, 0, 81, 0
1, 20670, Note_on_c, 0, 80, 100
1, 20700, Note_on_c, 0, 80, 0
1, 20700, Note_on_c, 0, 78, 100
1, 20700, Note_on_c, 0, 62, 100
1, 20700, Note_on_c, 0, 64, 100
1, 20730, Note_on_c, 0, 64, 0
1, 20730, Note_on_c, 0, 62, 0
1, 20730, Note_on_c, 0, 78, 0
1, 20730, Note_on_c, 0, 76, 100
1, 20760, Note_on_c, 0, 76, 0
1, 20760, Note_on_c, 0, 76, 100
1, 20760, Note_on_c, 0, 56, 100
1, 20790, Note_on_c, 0, 56, 0
1, 20790, Note_on_c, 0, 76, 0
1, 20790, Note_on_c, 0, 74, 100
1, 20820, Note_on_c, 0, 74, 0
1, 20820, Note_on_c, 0, 73, 100
1, 20820, Note_on_c, 0, 64, 100
1, 20820, Note_on_c, 0, 62, 100
1, 20850, Note_on_c, 0, 62, 0
1, 20850, Note_on_c, 0, 64, 0
1, 20850, Note_on_c, 0, 73, 0
1, 20850, Note_on_c, 0, 71, 100
1, 20880, Note_on_c, 0, 71, 0
1, 20880, Note_on_c, 0, 73, 100
1, 20880, Note_on_c, 0, 57, 100
1, 20910, Note_on_c, 0, 57, 0
1, 20910, Note_on_c, 0, 73, 0
1, 20910, Note_on_c, 0, 76, 100
1, 20940, Note_on_c, 0, 76, 0
1, 20940, Note_on_c, 0, 69, 100
1, 20940, Note_on_c, 0, 54, 100
1, 20970, Note_on_c, 0, 54, 0
1, 20970, Note_on_c, 0, 69, 0
1, 20970, Note_on_c, 0, 73, 100
1, 21000, Note_on_c, 0, 73, 0
1, 21000, Note_on_c, 0, 71, 100
1, 21000, Note_on_c, 0, 50, 100
1, 21030, Note_on_c, 0, 50, 0
1, 21030, Note_on_c, 0, 71, 0
1, 21030, Note_on_c, 0, 74, 100
1, 21060, Note_on_c, 0, 74, 0
1, 21060, Note_on_c, 0, 68, 100
1, 21060, Note_on_c, 0, 52, 100
1, 21090, Note_on_c, 0, 52, 0
1, 21090, Note_on_c, 0, 68, 0
1, 21090, Note_on_c, 0, 71, 100
1, 21120, Note_on_c, 0, 71, 0
1, 21120, Note_on_c, 0, 69, 100
1, 21120, Note_on_c, 0, 45, 100
1, 21150, Note_on_c, 0, 45, 0
1, 21180, Note_on_c, 0, 57, 100
1, 21210, Note_on_c, 0, 57, 0
1, 21240, Note_on_c, 0, 69, 0
1, 21240, Note_on_c, 0, 85, 100
1, 21270, Note_on_c, 0, 85, 0
1, 21270, Note_on_c, 0, 86, 100
1, 21300, Note_on_c, 0, 86, 0
1, 21300, Note_on_c, 0, 85, 100
1, 21330, Note_on_c, 0, 85, 0
1, 21330, Note_on_c, 0, 83, 100
1, 21360, Note_on_c, 0, 83, 0
1, 21360, Note_on_c, 0, 81, 100
1, 21360, Note_on_c, 0, 54, 100
1, 21390, Note_on_c, 0, 81, 0
1, 21390, Note_on_c, 0, 83, 100
1, 21420, Note_on_c, 0, 83, 0
1, 21420, Note_on_c, 0, 54, 0
1, 21420, Note_on_c, 0, 81, 100
1, 21420, Note_on_c, 0, 57, 100
1, 21420, Note_on_c, 0, 61, 100
1, 21450, Note_on_c, 0, 61, 0
1, 21450, Note_on_c, 0, 57, 0
1, 21450, Note_on_c, 0, 81, 0
1, 21450, Note_on_c, 0, 80, 100
1, 21480, Note_on_c, 0, 80, 0
1, 21480, Note_on_c, 0, 78, 100
1, 21480, Note_on_c, 0, 57, 100
1, 21480, Note_on_c, 0, 61, 100
1, 21510, Note_on_c, 0, 61, 0
1, 21510, Note_on_c, 0, 57, 0
1, 21510, Note_on_c, 0, 78, 0
1, 21510, Note_on_c, 0, 81, 100
1, 21540, Note_on_c, 0, 81, 0
1, 21540, Note_on_c, 0, 80, 100
1, 21540, Note_on_c, 0, 57, 100
1, 21540, Note_on_c, 0, 61, 100
1, 21570, Note_on_c, 0, 61, 0
1, 21570, Note_on_c, 0, 57, 0
1, 21570, Note_on_c, 0, 80, 0
1, 21570, Note_on_c, 0, 78, 100
1, 21600, Note_on_c, 0, 78, 0
1, 21600, Note_on_c, 0, 77, 100
1, 21600, Note_on_c, 0, 56, 100
1, 21630, Note_on_c, 0, 77, 0
1, 21630, Note_on_c, 0, 78, 100
1, 21660, Note_on_c, 0, 78, 0
1, 21660, Note_on_c, 0, 56, 0
1, 21660, Note_on_c, 0, 80, 100
1, 21660, Note_on_c, 0, 59, 100
1, 21660, Note_on_c, 0, 61, 100
1, 21690, Note_on_c, 0, 61, 0
1, 21690, Note_on_c, 0, 59, 0
1, 21690, Note_on_c, 0, 80, 0
1, 21690, Note_on_c, 0, 77, 100
1, 21720, Note_on_c, 0, 77, 0
1, 21720, Note_on_c, 0, 73, 100
1, 21720, Note_on_c, 0, 59, 100
1, 21720, Note_on_c, 0, 61, 100
1, 21750, Note_on_c, 0, 61, 0
1, 21750, Note_on_c, 0, 59, 0
1, 21750, Note_on_c, 0, 73, 0
1, 21750, Note_on_c, 0, 75, 100
1, 21780, Note_on_c, 0, 75, 0
1, 21780, Note_on_c, 0, 77, 100
1, 21780, Note_on_c, 0, 59, 100
1, 21780, Note_on_c, 0, 61, 100
1, 21810, Note_on_c, 0, 61, 0
1, 21810, Note_on_c, 0, 59, 0
1, 21810, Note_on_c, 0, 77, 0
1, 21810, Note_on_c, 0, 73, 100
1, 21840, Note_on_c, 0, 73, 0
1, 21840, Note_on_c, 0, 78, 100
1, 21840, Note_on_c, 0, 54, 100
1, 21870, Note_on_c, 0, 78, 0
1, 21870, Note_on_c, 0, 77, 100
1, 21900, Note_on_c, 0, 77, 0
1, 21900, Note_on_c, 0, 54, 0
1, 21900, Note_on_c, 0, 78, 100
1, 21900, Note_on_c, 0, 57, 100
1, 21900, Note_on_c, 0, 61, 100
1, 21930, Note_on_c, 0, 61, 0
1, 21930, Note_on_c, 0, 57, 0
1, 21930, Note_on_c, 0, 78, 0
1, 21930, Note_on_c, 0, 80, 100
1, 21960, Note_on_c, 0, 80, 0
1, 21960, Note_on_c, 0, 81, 100
1, 21960, Note_on_c, 0, 57, 100
1, 21960, Note_on_c, 0, 61, 100
1, 21990, Note_on_c, 0, 61, 0
1, 21990, Note_on_c, 0, 57, 0
1, 21990, Note_on_c, 0, 81, 0
1, 21990, Note_on_c, 0, 80, 100
1, 22020, Note_on_c, 0, 80, 0
1, 22020, Note_on_c, 0, 81, 100
1, 22020, Note_on_c, 0, 57, 100
1, 22020, Note_on_c, 0, 61, 100
1, 22050, Note_on_c, 0, 61, 0
1, 22050, Note_on_c, 0, 57, 0
1, 22050, Note_on_c, 0, 81, 0
1, 22050, Note_on_c, 0, 83, 100
1, 22080, Note_on_c, 0, 83, 0
1, 22080, Note_on_c, 0, 85, 100
1, 22080, Note_on_c, 0, 49, 100
1, 22110, Note_on_c, 0, 85, 0
1, 22110, Note_on_c, 0, 84, 100
1, 22140, Note_on_c, 0, 84, 0
1, 22140, Note_on_c, 0, 49, 0
1, 22140, Note_on_c, 0, 85, 100
1, 22140, Note_on_c, 0, 56, 100
1, 22140, Note_on_c, 0, 61, 100
1, 22170, Note_on_c, 0, 61, 0
1, 22170, Note_on_c, 0, 56, 0
1, 22170, Note_on_c, 0, 85, 0
1, 22170, Note_on_c, 0, 84, 100
1, 22200, Note_on_c, 0, 84, 0
1, 22200, Note_on_c, 0, 85, 100
1, 22200, Note_on_c, 0, 55, 100
1, 22200, Note_on_c, 0, 61, 100
1, 22230, Note_on_c, 0, 61, 0
1, 22230, Note_on_c, 0, 55, 0
1, 22230, Note_on_c, 0, 85, 0
1, 22230, Note_on_c, 0, 84, 100
1, 22260, Note_on_c, 0, 84, 0
1, 22260, Note_on_c, 0, 85, 100
1, 22260, Note_on_c, 0, 54, 100
1, 22260, Note_on_c, 0, 61, 100
1, 22290, Note_on_c, 0, 61, 0
1, 22290, Note_on_c, 0, 54, 0
1, 22290, Note_on_c, 0, 85, 0
1, 22290, Note_on_c, 0, 82, 100
1, 22320, Note_on_c, 0, 82, 0
1, 22320, Note_on_c, 0, 86, 100
1, 22320, Note_on_c, 0, 47, 100
1, 22350, Note_on_c, 0, 86, 0
1, 22350, Note_on_c, 0, 85, 100
1, 22380, Note_on_c, 0, 85, 0
1, 22380, Note_on_c, 0, 47, 0
1, 22380, Note_on_c, 0, 86, 100
1, 22380, Note_on_c, 0, 59, 100
1, 22380, Note_on_c, 0, 54, 100
1, 22410, Note_on_c, 0, 54, 0
1, 22410, Note_on_c, 0, 59, 0
1, 22410, Note_on_c, 0, 86, 0
1, 22410, Note_on_c, 0, 85, 100
1, 22440, Note_on_c, 0, 85, 0
1, 22440, Note_on_c, 0, 86, 100
1, 22440, Note_on_c, 0, 59, 100
1, 22440, Note_on_c, 0, 54, 100
1, 22470, Note_on_c, 0, 54, 0
1, 22470, Note_on_c, 0, 59, 0
1, 22470, Note_on_c, 0, 86, 0
1, 22470, Note_on_c, 0, 85, 100
1, 22500, Note_on_c, 0, 85, 0
1, 22500, Note_on_c, 0, 86, 100
1, 22500, Note_on_c, 0, 59, 100
1, 22500, Note_on_c, 0, 54, 100
1, 22530, Note_on_c, 0, 54, 0
1, 22530, Note_on_c, 0, 59, 0
1, 22530, Note_on_c, 0, 86, 0
1, 22530, Note_on_c, 0, 85, 100
1, 22560, Note_on_c, 0, 85, 0
1, 22560, Note_on_c, 0, 86, 100
1, 22560, Note_on_c, 0, 47, 100
1, 22590, Note_on_c, 0, 86, 0
1, 22590, Note_on_c, 0, 85, 100
1, 22620, Note_on_c, 0, 85, 0
1, 22620, Note_on_c, 0, 47, 0
1, 22620, Note_on_c, 0, 83, 100
1, 22620, Note_on_c, 0, 56, 100
1, 22620, Note_on_c, 0, 59, 100
1, 22650, Note_on_c, 0, 59, 0
1, 22650, Note_on_c, 0, 56, 0
1, 22650, Note_on_c, 0, 83, 0
1, 22650, Note_on_c, 0, 81, 100
1, 22680, Note_on_c, 0, 81, 0
1, 22680, Note_on_c, 0, 80, 100
1, 22680, Note_on_c, 0, 56, 100
1, 22680, Note_on_c, 0, 59, 100
1, 22710, Note_on_c, 0, 59, 0
1, 22710, Note_on_c, 0, 56, 0
1, 22710, Note_on_c, 0, 80, 0
1, 22710, Note_on_c, 0, 81, 100
1, 22740, Note_on_c, 0, 81, 0
1, 22740, Note_on_c, 0, 83, 100
1, 22740, Note_on_c, 0, 56, 100
1, 22740, Note_on_c, 0, 59, 100
1, 22770, Note_on_c, 0, 59, 0
1, 22770, Note_on_c, 0, 56, 0
1, 22770, Note_on_c, 0, 83, 0
1, 22770, Note_on_c, 0, 80, 100
1, 22800, Note_on_c, 0, 80, 0
1, 22800, Note_on_c, 0, 81, 100
1, 22800, Note_on_c, 0, 49, 100
1, 22830, Note_on_c, 0, 49, 0
1, 22830, Note_on_c, 0, 81, 0
1, 22830, Note_on_c, 0, 83, 100
1, 22860, Note_on_c, 0, 83, 0
1, 22860, Note_on_c, 0, 85, 100
1, 22860, Note_on_c, 0, 54, 100
1, 22860, Note_on_c, 0, 57, 100
1, 22890, Note_on_c, 0, 57, 0
1, 22890, Note_on_c, 0, 54, 0
1, 22890, Note_on_c, 0, 85, 0
1, 22890, Note_on_c, 0, 78, 100
1, 22920, Note_on_c, 0, 78, 0
1, 22920, Note_on_c, 0, 77, 100
1, 22920, Note_on_c, 0, 49, 100
1, 22950, Note_on_c, 0, 49, 0
1, 22950, Note_on_c, 0, 77, 0
1, 22950, Note_on_c, 0, 78, 100
1, 22980, Note_on_c, 0, 78, 0
1, 22980, Note_on_c, 0, 80, 100
1, 22980, Note_on_c, 0, 59, 100
1, 22980, Note_on_c, 0, 56, 100
1, 23010, Note_on_c, 0, 56, 0
1, 23010, Note_on_c, 0, 59, 0
1, 23010, Note_on_c, 0, 80, 0
1, 23010, Note_on_c, 0, 77, 100
1, 23040, Note_on_c, 0, 77, 0
1, 23040, Note_on_c, 0, 78, 100
1, 23040, Note_on_c, 0, 54, 100
1, 23040, Note_on_c, 0, 57, 100
1, 23160, Note_on_c, 0, 57, 0
1, 23160, Note_on_c, 0, 54, 0
1, 23160, Note_on_c, 0, 78, 0
1, 23160, Note_on_c, 0, 76, 100
1, 23190, Note_on_c, 0, 76, 0
1, 23190, Note_on_c, 0, 74, 100
1, 23220, Note_on_c, 0, 74, 0
1, 23220, Note_on_c, 0, 73, 100
1, 23250, Note_on_c, 0, 73, 0
1, 23250, Note_on_c, 0, 71, 100
1, 23280, Note_on_c, 0, 71, 0
1, 23280, Note_on_c, 0, 69, 100
1, 23280, Note_on_c, 0, 57, 100
1, 23310, Note_on_c, 0, 69, 0
1, 23310, Note_on_c, 0, 71, 100
1, 23340, Note_on_c, 0, 71, 0
1, 23340, Note_on_c, 0, 57, 0
1, 23340, Note_on_c, 0, 73, 100
1, 23340, Note_on_c, 0, 64, 100
1, 23340, Note_on_c, 0, 61, 100
1, 23370, Note_on_c, 0, 61, 0
1, 23370, Note_on_c, 0, 64, 0
1, 23370, Note_on_c, 0, 73, 0
1, 23370, Note_on_c, 0, 74, 100
1, 23400, Note_on_c, 0, 74, 0
1, 23400, Note_on_c, 0, 76, 100
1, 23400, Note_on_c, 0, 64, 100
1, 23400, Note_on_c, 0, 61, 100
1, 23430, Note_on_c, 0, 61, 0
1, 23430, Note_on_c, 0, 64, 0
1, 23430, Note_on_c, 0, 76, 0
1, 23430, Note_on_c, 0, 78, 100
1, 23460, Note_on_c, 0, 78, 0
1, 23460, Note_on_c, 0, 80, 100
1, 23460, Note_on_c, 0, 64, 100
1, 23460, Note_on_c, 0, 61, 100
1, 23490, Note_on_c, 0, 61, 0
1, 23490, Note_on_c, 0, 64, 0
1, 23490, Note_on_c, 0, 80, 0
1, 23490, Note_on_c, 0, 81, 100
1, 23520, Note_on_c, 0, 81, 0
1, 23520, Note_on_c, 0, 81, 100
1, 23520, Note_on_c, 0, 59, 100
1, 23550, Note_on_c, 0, 59, 0
1, 23550, Note_on_c, 0, 81, 0
1, 23550, Note_on_c, 0, 80, 100
1, 23580, Note_on_c, 0, 80, 0
1, 23580, Note_on_c, 0, 78, 100
1, 23580, Note_on_c, 0, 62, 100
1, 23580, Note_on_c, 0, 64, 100
1, 23610, Note_on_c, 0, 64, 0
1, 23610, Note_on_c, 0, 62, 0
1, 23610, Note_on_c, 0, 78, 0
1, 23610, Note_on_c, 0, 76, 100
1, 23640, Note_on_c, 0, 76, 0
1, 23640, Note_on_c, 0, 76, 100
1, 23640, Note_on_c, 0, 56, 100
1, 23670, Note_on_c, 0, 56, 0
1, 23670, Note_on_c, 0, 76, 0
1, 23670, Note_on_c, 0, 74, 100
1, 23700, Note_on_c, 0, 74, 0
1, 23700, Note_on_c, 0, 73, 100
1, 23700, Note_on_c, 0, 64, 100
1, 23700, Note_on_c, 0, 62, 100
1, 23730, Note_on_c, 0, 62, 0
1, 23730, Note_on_c, 0, 64, 0
1, 23730, Note_on_c, 0, 73, 0
1, 23730, Note_on_c, 0, 71, 100
1, 23760, Note_on_c, 0, 71, 0
1, 23760, Note_on_c, 0, 69, 100
1, 23760, Note_on_c, 0, 57, 100
1, 23790, Note_on_c, 0, 69, 0
1, 23790, Note_on_c, 0, 71, 100
1, 23820, Note_on_c, 0, 71, 0
1, 23820, Note_on_c, 0, 57, 0
1, 23820, Note_on_c, 0, 73, 100
1, 23820, Note_on_c, 0, 64, 100
1, 23820, Note_on_c, 0, 61, 100
1, 23850, Note_on_c, 0, 61, 0
1, 23850, Note_on_c, 0, 64, 0
1, 23850, Note_on_c, 0, 73, 0
1, 23850, Note_on_c, 0, 74, 100
1, 23880, Note_on_c, 0, 74, 0
1, 23880, Note_on_c, 0, 76, 100
1, 23880, Note_on_c, 0, 64, 100
1, 23880, Note_on_c, 0, 61, 100
1, 23910, Note_on_c, 0, 61, 0
1, 23910, Note_on_c, 0, 64, 0
1, 23910, Note_on_c, 0, 76, 0
1, 23910, Note_on_c, 0, 78, 100
1, 23940, Note_on_c, 0, 78, 0
1, 23940, Note_on_c, 0, 80, 100
1, 23940, Note_on_c, 0, 64, 100
1, 23940, Note_on_c, 0, 61, 100
1, 23970, Note_on_c, 0, 61, 0
1, 23970, Note_on_c, 0, 64, 0
1, 23970, Note_on_c, 0, 80, 0
1, 23970, Note_on_c, 0, 81, 100
1, 24000, Note_on_c, 0, 81, 0
1, 24000, Note_on_c, 0, 82, 100
1, 24000, Note_on_c, 0, 52, 100
1, 24060, Note_on_c, 0, 52, 0
1, 24060, Note_on_c, 0, 82, 0
1, 24060, Note_on_c, 0, 83, 100
1, 24060, Note_on_c, 0, 62, 100
1, 24060, Note_on_c, 0, 56, 100
1, 24090, Note_on_c, 0, 56, 0
1, 24090, Note_on_c, 0, 62, 0
1, 24090, Note_on_c, 0, 83, 0
1, 24120, Note_on_c, 0, 76, 100
1, 24120, Note_on_c, 0, 62, 100
1, 24120, Note_on_c, 0, 56, 100
1, 24150, Note_on_c, 0, 56, 0
1, 24150, Note_on_c, 0, 62, 0
1, 24150, Note_on_c, 0, 76, 0
1, 24150, Note_on_c, 0, 74, 100
1, 24180, Note_on_c, 0, 74, 0
1, 24180, Note_on_c, 0, 73, 100
1, 24180, Note_on_c, 0, 62, 100
1, 24180, Note_on_c, 0, 56, 100
1, 24210, Note_on_c, 0, 56, 0
1, 24210, Note_on_c, 0, 62, 0
1, 24210, Note_on_c, 0, 73, 0
1, 24210, Note_on_c, 0, 71, 100
1, 24240, Note_on_c, 0, 71, 0
1, 24240, Note_on_c, 0, 69, 100
1, 24240, Note_on_c, 0, 57, 100
1, 24270, Note_on_c, 0, 69, 0
1, 24270, Note_on_c, 0, 71, 100
1, 24300, Note_on_c, 0, 71, 0
1, 24300, Note_on_c, 0, 57, 0
1, 24300, Note_on_c, 0, 73, 100
1, 24300, Note_on_c, 0, 64, 100
1, 24300, Note_on_c, 0, 61, 100
1, 24330, Note_on_c, 0, 61, 0
1, 24330, Note_on_c, 0, 64, 0
1, 24330, Note_on_c, 0, 73, 0
1, 24330, Note_on_c, 0, 74, 100
1, 24360, Note_on_c, 0, 74, 0
1, 24360, Note_on_c, 0, 76, 100
1, 24360, Note_on_c, 0, 64, 100
1, 24360, Note_on_c, 0, 61, 100
1, 24390, Note_on_c, 0, 61, 0
1, 24390, Note_on_c, 0, 64, 0
1, 24390, Note_on_c, 0, 76, 0
1, 24390, Note_on_c, 0, 78, 100
1, 24420, Note_on_c, 0, 78, 0
1, 24420, Note_on_c, 0, 80, 100
1, 24420, Note_on_c, 0, 64, 100
1, 24420, Note_on_c, 0, 61, 100
1, 24450, Note_on_c, 0, 61, 0
1, 24450, Note_on_c, 0, 64, 0
1, 24450, Note_on_c, 0, 80, 0
1, 24450, Note_on_c, 0, 81, 100
1, 24480, Note_on_c, 0, 81, 0
1, 24480, Note_on_c, 0, 81, 100
1, 24480, Note_on_c, 0, 59, 100
1, 24510, Note_on_c, 0, 59, 0
1, 24510, Note_on_c, 0, 81, 0
1, 24510, Note_on_c, 0, 80, 100
1, 24540, Note_on_c, 0, 80, 0
1, 24540, Note_on_c, 0, 78, 100
1, 24540, Note_on_c, 0, 62, 100
1, 24540, Note_on_c, 0, 64, 100
1, 24570, Note_on_c, 0, 64, 0
1, 24570, Note_on_c, 0, 62, 0
1, 24570, Note_on_c, 0, 78, 0
1, 24570, Note_on_c, 0, 76, 100
1, 24600, Note_on_c, 0, 76, 0
1, 24600, Note_on_c, 0, 76, 100
1, 24600, Note_on_c, 0, 56, 100
1, 24630, Note_on_c, 0, 56, 0
1, 24630, Note_on_c, 0, 76, 0
1, 24630, Note_on_c, 0, 74, 100
1, 24660, Note_on_c, 0, 74, 0
1, 24660, Note_on_c, 0, 73, 100
1, 24660, Note_on_c, 0, 64, 100
1, 24660, Note_on_c, 0, 62, 100
1, 24690, Note_on_c, 0, 62, 0
1, 24690, Note_on_c, 0, 64, 0
1, 24690, Note_on_c, 0, 73, 0
1, 24690, Note_on_c, 0, 71, 100
1, 24720, Note_on_c, 0, 71, 0
1, 24720, Note_on_c, 0, 73, 100
1, 24720, Note_on_c, 0, 57, 100
1, 24750, Note_on_c, 0, 57, 0
1, 24750, Note_on_c, 0, 73, 0
1, 24750, Note_on_c, 0, 76, 100
1, 24780, Note_on_c, 0, 76, 0
1, 24780, Note_on_c, 0, 69, 100
1, 24780, Note_on_c, 0, 54, 100
1, 24810, Note_on_c, 0, 54, 0
1, 24810, Note_on_c, 0, 69, 0
1, 24810, Note_on_c, 0, 73, 100
1, 24840, Note_on_c, 0, 73, 0
1, 24840, Note_on_c, 0, 71, 100
1, 24840, Note_on_c, 0, 50, 100
1, 24870, Note_on_c, 0, 50, 0
1, 24870, Note_on_c, 0, 71, 0
1, 24870, Note_on_c, 0, 74, 100
1, 24900, Note_on_c, 0, 74, 0
1, 24900, Note_on_c, 0, 68, 100
1, 24900, Note_on_c, 0, 52, 100
1, 24930, Note_on_c, 0, 52, 0
1, 24930, Note_on_c, 0, 68, 0
1, 24930, Note_on_c, 0, 71, 100
1, 24960, Note_on_c, 0, 71, 0
1, 24960, Note_on_c, 0, 69, 100
1, 24960, Note_on_c, 0, 45, 100
1, 24990, Note_on_c, 0, 45, 0
1, 25020, Note_on_c, 0, 57, 100
1, 25050, Note_on_c, 0, 57, 0
1, 25080, Note_on_c, 0, 69, 0
1, 25080, Note_on_c, 0, 85, 100
1, 25110, Note_on_c, 0, 85, 0
1, 25110, Note_on_c, 0, 86, 100
1, 25140, Note_on_c, 0, 86, 0
1, 25140, Note_on_c, 0, 85, 100
1, 25170, Note_on_c, 0, 85, 0
1, 25170, Note_on_c, 0, 83, 100
1, 25200, Note_on_c, 0, 83, 0
1, 25200, Note_on_c, 0, 81, 100
1, 25200, Note_on_c, 0, 54, 100
1, 25230, Note_on_c, 0, 81, 0
1, 25230, Note_on_c, 0, 83, 100
1, 25260, Note_on_c, 0, 83, 0
1, 25260, Note_on_c, 0, 54, 0
1, 25260, Note_on_c, 0, 81, 100
1, 25260, Note_on_c, 0, 57, 100
1, 25260, Note_on_c, 0, 61, 100
1, 25290, Note_on_c, 0, 61, 0
1, 25290, Note_on_c, 0, 57, 0
1, 25290, Note_on_c, 0, 81, 0
1, 25290, Note_on_c, 0, 80, 100
1, 25320, Note_on_c, 0, 80, 0
1, 25320, Note_on_c, 0, 78, 100
1, 25320, Note_on_c, 0, 57, 100
1, 25320, Note_on_c, 0, 61, 100
1, 25350, Note_on_c, 0, 61, 0
1, 25350, Note_on_c, 0, 57, 0
1, 25350, Note_on_c, 0, 78, 0
1, 25350, Note_on_c, 0, 81, 100
1, 25380, Note_on_c, 0, 81, 0
1, 25380, Note_on_c, 0, 80, 100
1, 25380, Note_on_c, 0, 57, 100
1, 25380, Note_on_c, 0, 61, 100
1, 25410, Note_on_c, 0, 61, 0
1, 25410, Note_on_c, 0, 57, 0
1, 25410, Note_on_c, 0, 80, 0
1, 25410, Note_on_c, 0, 78, 100
1, 25440, Note_on_c, 0, 78, 0
1, 25440, Note_on_c, 0, 77, 100
1, 25440, Note_on_c, 0, 56, 100
1, 25470, Note_on_c, 0, 77, 0
1, 25470, Note_on_c, 0, 78, 100
1, 25500, Note_on_c, 0, 78, 0
1, 25500, Note_on_c, 0, 56, 0
1, 25500, Note_on_c, 0, 80, 100
1, 25500, Note_on_c, 0, 59, 100
1, 25500, Note_on_c, 0, 61, 100
1, 25530, Note_on_c, 0, 61, 0
1, 25530, Note_on_c, 0, 59, 0
1, 25530, Note_on_c, 0, 80, 0
1, 25530, Note_on_c, 0, 77, 100
1, 25560, Note_on_c, 0, 77, 0
1, 25560, Note_on_c, 0, 73, 100
1, 25560, Note_on_c, 0, 59, 100
1, 25560, Note_on_c, 0, 61, 100
1, 25590, Note_on_c, 0, 61, 0
1, 25590, Note_on_c, 0, 59, 0
1, 25590, Note_on_c, 0, 73, 0
1, 25590, Note_on_c, 0, 75, 100
1, 25620, Note_on_c, 0, 75, 0
1, 25620, Note_on_c, 0, 77, 100
1, 25620, Note_on_c, 0, 59, 100
1, 25620, Note_on_c, 0, 61, 100
1, 25650, Note_on_c, 0, 61, 0
1, 25650, Note_on_c, 0, 59, 0
1, 25650, Note_on_c, 0, 77, 0
1, 25650, Note_on_c, 0, 73, 100
1, 25680, Note_on_c, 0, 73, 0
1, 25680, Note_on_c, 0, 78, 100
1, 25680, Note_on_c, 0, 54, 100
1, 25710, Note_on_c, 0, 78, 0
1, 25710, Note_on_c, 0, 77, 100
1, 25740, Note_on_c, 0, 77, 0
1, 25740, Note_on_c, 0, 54, 0
1, 25740, Note_on_c, 0, 78, 100
1, 25740, Note_on_c, 0, 57, 100
1, 25740, Note_on_c, 0, 61, 100
1, 25770, Note_on_c, 0, 61, 0
1, 25770, Note_on_c, 0, 57, 0
1, 25770, Note_on_c, 0, 78, 0
1, 25770, Note_on_c, 0, 80, 100
1, 25800, Note_on_c, 0, 80, 0
1, 25800, Note_on_c, 0, 81, 100
1, 25800, Note_on_c, 0, 57, 100
1, 25800, Note_on_c, 0, 61, 100
1, 25830, Note_on_c, 0, 61, 0
1, 25830, Note_on_c, 0, 57, 0
1, 25830, Note_on_c, 0, 81, 0
1, 25830, Note_on_c, 0, 80, 100
1, 25860, Note_on_c, 0, 80, 0
1, 25860, Note_on_c, 0, 81, 100
1, 25860, Note_on_c, 0, 57, 100
1, 25860, Note_on_c, 0, 61, 100
1, 25890, Note_on_c, 0, 61, 0
1, 25890, Note_on_c, 0, 57, 0
1, 25890, Note_on_c, 0, 81, 0
1, 25890, Note_on_c, 0, 83, 100
1, 25920, Note_on_c, 0, 83, 0
1, 25920, Note_on_c, 0, 85, 100
1, 25920, Note_on_c, 0, 49, 100
1, 25950, Note_on_c, 0, 85, 0
1, 25950, Note_on_c, 0, 84, 100
1, 25980, Note_on_c, 0, 84, 0
1, 25980, Note_on_c, 0, 49, 0
1, 25980, Note_on_c, 0, 85, 100
1, 25980, Note_on_c, 0, 56, 100
1, 25980, Note_on_c, 0, 61, 100
1, 26010, Note_on_c, 0, 61, 0
1, 26010, Note_on_c, 0, 56, 0
1, 26010, Note_on_c, 0, 85, 0
1, 26010, Note_on_c, 0, 84, 100
1, 26040, Note_on_c, 0, 84, 0
1, 26040, Note_on_c, 0, 85, 100
1, 26040, Note_on_c, 0, 55, 100
1, 26040, Note_on_c, 0, 61, 100
1, 26070, Note_on_c, 0, 61, 0
1, 26070, Note_on_c, 0, 55, 0
1, 26070, Note_on_c, 0, 85, 0
1, 26070, Note_on_c, 0, 84, 100
1, 26100, Note_on_c, 0, 84, 0
1, 26100, Note_on_c, 0, 85, 100
1, 26100, Note_on_c, 0, 54, 100
1, 26100, Note_on_c, 0, 61, 100
1, 26130, Note_on_c, 0, 61, 0
1, 26130, Note_on_c, 0, 54, 0
1, 26130, Note_on_c, 0, 85, 0
1, 26130, Note_on_c, 0, 82, 100
1, 26160, Note_on_c, 0, 82, 0
1, 26160, Note_on_c, 0, 86, 100
1, 26160, Note_on_c, 0, 47, 100
1, 26190, Note_on_c, 0, 86, 0
1, 26190, Note_on_c, 0, 85, 100
1, 26220, Note_on_c, 0, 85, 0
1, 26220, Note_on_c, 0, 47, 0
1, 26220, Note_on_c, 0, 86, 100
1, 26220, Note_on_c, 0, 59, 100
1, 26220, Note_on_c, 0, 54, 100
1, 26250, Note_on_c, 0, 54, 0
1, 26250, Note_on_c, 0, 59, 0
1, 26250, Note_on_c, 0, 86, 0
1, 26250, Note_on_c, 0, 85, 100
1, 26280, Note_on_c, 0, 85, 0
1, 26280, Note_on_c, 0, 86, 100
1, 26280, Note_on_c, 0, 59, 100
1, 26280, Note_on_c, 0, 54, 100
1, 26310, Note_on_c, 0, 54, 0
1, 26310, Note_on_c, 0, 59, 0
1, 26310, Note_on_c, 0, 86, 0
1, 26310, Note_on_c, 0, 85, 100
1, 26340, Note_on_c, 0, 85, 0
1, 26340, Note_on_c, 0, 86, 100
1, 26340, Note_on_c, 0, 59, 100
1, 26340, Note_on_c, 0, 54, 100
1, 26370, Note_on_c, 0, 54, 0
1, 26370, Note_on_c, 0, 59, 0
1, 26370, Note_on_c, 0, 86, 0
1, 26370, Note_on_c, 0, 85, 100
1, 26400, Note_on_c, 0, 85, 0
1, 26400, Note_on_c, 0, 86, 100
1, 26400, Note_on_c, 0, 47, 100
1, 26430, Note_on_c, 0, 86, 0
1, 26430, Note_on_c, 0, 85, 100
1, 26460, Note_on_c, 0, 85, 0
1, 26460, Note_on_c, 0, 47, 0
1, 26460, Note_on_c, 0, 83, 100
1, 26460, Note_on_c, 0, 56, 100
1, 26460, Note_on_c, 0, 59, 100
1, 26490, Note_on_c, 0, 59, 0
1, 26490, Note_on_c, 0, 56, 0
1, 26490, Note_on_c, 0, 83, 0
1, 26490, Note_on_c, 0, 81, 100
1, 26520, Note_on_c, 0, 81, 0
1, 26520, Note_on_c, 0, 80, 100
1, 26520, Note_on_c, 0, 56, 100
1, 26520, Note_on_c, 0, 59, 100
1, 26550, Note_on_c, 0, 59, 0
1, 26550, Note_on_c, 0, 56, 0
1, 26550, Note_on_c, 0, 80, 0
1, 26550, Note_on_c, 0, 81, 100
1, 26580, Note_on_c, 0, 81, 0
1, 26580, Note_on_c, 0, 83, 100
1, 26580, Note_on_c, 0, 56, 100
1, 26580, Note_on_c, 0, 59, 100
1, 26610, Note_on_c, 0, 59, 0
1, 26610, Note_on_c, 0, 56, 0
1, 26610, Note_on_c, 0, 83, 0
1, 26610, Note_on_c, 0, 80, 100
1, 26640, Note_on_c, 0, 80, 0
1, 26640, Note_on_c, 0, 81, 100
1, 26640, Note_on_c, 0, 49, 100
1, 26670, Note_on_c, 0, 49, 0
1, 26670, Note_on_c, 0, 81, 0
1, 26670, Note_on_c, 0, 83, 100
1, 26700, Note_on_c, 0, 83, 0
1, 26700, Note_on_c, 0, 85, 100
1, 26700, Note_on_c, 0, 54, 100
1, 26700, Note_on_c, 0, 57, 100
1, 26730, Note_on_c, 0, 57, 0
1, 26730, Note_on_c, 0, 54, 0
1, 26730, Note_on_c, 0, 85, 0
1, 26730, Note_on_c, 0, 78, 100
1, 26760, Note_on_c, 0, 78, 0
1, 26760, Note_on_c, 0, 77, 100
1, 26760, Note_on_c, 0, 49, 100
1, 26790, Note_on_c, 0, 49, 0
1, 26790, Note_on_c, 0, 77, 0
1, 26790, Note_on_c, 0, 78, 100
1, 26820, Note_on_c, 0, 78, 0
1, 26820, Note_on_c, 0, 80, 100
1, 26820, Note_on_c, 0, 59, 100
1, 26820, Note_on_c, 0, 56, 100
1, 26850, Note_on_c, 0, 56, 0
1, 26850, Note_on_c, 0, 59, 0
1, 26850, Note_on_c, 0, 80, 0
1, 26850, Note_on_c, 0, 77, 100
1, 26880, Note_on_c, 0, 77, 0
1, 26880, Note_on_c, 0, 78, 100
1, 26880, Note_on_c, 0, 54, 100
1, 26880, Note_on_c, 0, 57, 100
1, 27000, Note_on_c, 0, 57, 0
1, 27000, Note_on_c, 0, 54, 0
1, 27000, Note_on_c, 0, 78, 0
1, 27000, Note_on_c, 0, 81, 100
1, 27000, Note_on_c, 0, 69, 100
1, 27030, Note_on_c, 0, 69, 0
1, 27030, Note_on_c, 0, 81, 0
1, 27060, Note_on_c, 0, 83, 100
1, 27060, Note_on_c, 0, 71, 100
1, 27090, Note_on_c, 0, 71, 0
1, 27090, Note_on_c, 0, 83, 0
1, 27120, Note_on_c, 0, 85, 100
1, 27120, Note_on_c, 0, 73, 100
1, 27120, Note_on_c, 0, 45, 100
1, 27127, Note_on_c, 0, 45, 0
1, 27127, Note_on_c, 0, 49, 100
1, 27135, Note_on_c, 0, 49, 0
1, 27135, Note_on_c, 0, 52, 100
1, 27142, Note_on_c, 0, 52, 0
1, 27142, Note_on_c, 0, 57, 100
1, 27157, Note_on_c, 0, 57, 0
1, 27180, Note_on_c, 0, 57, 100
1, 27210, Note_on_c, 0, 57, 0
1, 27240, Note_on_c, 0, 73, 0
1, 27240, Note_on_c, 0, 85, 0
1, 27240, Note_on_c, 0, 81, 100
1, 27240, Note_on_c, 0, 69, 100
1, 27240, Note_on_c, 0, 57, 100
1, 27270, Note_on_c, 0, 57, 0
1, 27270, Note_on_c, 0, 69, 0
1, 27270, Note_on_c, 0, 81, 0
1, 27300, Note_on_c, 0, 83, 100
1, 27300, Note_on_c, 0, 71, 100
1, 27300, Note_on_c, 0, 57, 100
1, 27330, Note_on_c, 0, 57, 0
1, 27330, Note_on_c, 0, 71, 0
1, 27330, Note_on_c, 0, 83, 0
1, 27360, Note_on_c, 0, 73, 100
1, 27360, Note_on_c, 0, 85, 100
1, 27360, Note_on_c, 0, 45, 100
1, 27367, Note_on_c, 0, 45, 0
1, 27367, Note_on_c, 0, 49, 100
1, 27375, Note_on_c, 0, 49, 0
1, 27375, Note_on_c, 0, 52, 100
1, 27382, Note_on_c, 0, 52, 0
1, 27382, Note_on_c, 0, 57, 100
1, 27390, Note_on_c, 0, 85, 0
1, 27390, Note_on_c, 0, 73, 0
1, 27397, Note_on_c, 0, 57, 0
1, 27420, Note_on_c, 0, 71, 100
1, 27420, Note_on_c, 0, 83, 100
1, 27420, Note_on_c, 0, 57, 100
1, 27450, Note_on_c, 0, 57, 0
1, 27450, Note_on_c, 0, 83, 0
1, 27450, Note_on_c, 0, 71, 0
1, 27480, Note_on_c, 0, 69, 100
1, 27480, Note_on_c, 0, 81, 100
1, 27480, Note_on_c, 0, 57, 100
1, 27510, Note_on_c, 0, 57, 0
1, 27510, Note_on_c, 0, 81, 0
1, 27510, Note_on_c, 0, 69, 0
1, 27540, Note_on_c, 0, 68, 100
1, 27540, Note_on_c, 0, 80, 100
1, 27540, Note_on_c, 0, 57, 100
1, 27570, Note_on_c, 0, 57, 0
1, 27570, Note_on_c, 0, 80, 0
1, 27570, Note_on_c, 0, 68, 0
1, 27600, Note_on_c, 0, 78, 100
1, 27600, Note_on_c, 0, 66, 100
1, 27600, Note_on_c, 0, 38, 100
1, 27607, Note_on_c, 0, 38, 0
1, 27607, Note_on_c, 0, 42, 100
1, 27615, Note_on_c, 0, 42, 0
1, 27615, Note_on_c, 0, 45, 100
1, 27622, Note_on_c, 0, 45, 0
1, 27622, Note_on_c, 0, 50, 100
1, 27630, Note_on_c, 0, 66, 0
1, 27630, Note_on_c, 0, 78, 0
1, 27637, Note_on_c, 0, 50, 0
1, 27660, Note_on_c, 0, 80, 100
1, 27660, Note_on_c, 0, 68, 100
1, 27660, Note_on_c, 0, 50, 100
1, 27690, Note_on_c, 0, 50, 0
1, 27690, Note_on_c, 0, 68, 0
1, 27690, Note_on_c, 0, 80, 0
1, 27720, Note_on_c, 0, 81, 100
1, 27720, Note_on_c, 0, 69, 100
1, 27720, Note_on_c, 0, 39, 100
1, 27727, Note_on_c, 0, 39, 0
1, 27727, Note_on_c, 0, 42, 100
1, 27735, Note_on_c, 0, 42, 0
1, 27735, Note_on_c, 0, 45, 100
1, 27742, Note_on_c, 0, 45, 0
1, 27742, Note_on_c, 0, 51, 100
1, 27750, Note_on_c, 0, 69, 0
1, 27750, Note_on_c, 0, 81, 0
1, 27757, Note_on_c, 0, 51, 0
1, 27780, Note_on_c, 0, 83, 100
1, 27780, Note_on_c, 0, 71, 100
1, 27780, Note_on_c, 0, 51, 100
1, 27810, Note_on_c, 0, 51, 0
1, 27810, Note_on_c, 0, 71, 0
1, 27810, Note_on_c, 0, 83, 0
1, 27840, Note_on_c, 0, 80, 100
1, 27840, Note_on_c, 0, 68, 100
1, 27840, Note_on_c, 0, 40, 100
1, 27847, Note_on_c, 0, 40, 0
1, 27847, Note_on_c, 0, 44, 100
1, 27855, Note_on_c, 0, 44, 0
1, 27855, Note_on_c, 0, 47, 100
1, 27862, Note_on_c, 0, 47, 0
1, 27862, Note_on_c, 0, 52, 100
1, 27877, Note_on_c, 0, 52, 0
1, 27900, Note_on_c, 0, 68, 0
1, 27900, Note_on_c, 0, 80, 0
1, 27900, Note_on_c, 0, 76, 100
1, 27900, Note_on_c, 0, 64, 100
1, 27900, Note_on_c, 0, 52, 100
1, 27930, Note_on_c, 0, 52, 0
1, 27930, Note_on_c, 0, 64, 0
1, 27930, Note_on_c, 0, 76, 0
1, 27960, Note_on_c, 0, 81, 100
1, 27960, Note_on_c, 0, 69, 100
1, 27960, Note_on_c, 0, 52, 100
1, 27990, Note_on_c, 0, 52, 0
1, 27990, Note_on_c, 0, 69, 0
1, 27990, Note_on_c, 0, 81, 0
1, 28020, Note_on_c, 0, 83, 100
1, 28020, Note_on_c, 0, 71, 100
1, 28020, Note_on_c, 0, 52, 100
1, 28050, Note_on_c, 0, 52, 0
1, 28050, Note_on_c, 0, 71, 0
1, 28050, Note_on_c, 0, 83, 0
1, 28080, Note_on_c, 0, 85, 100
1, 28080, Note_on_c, 0, 73, 100
1, 28080, Note_on_c, 0, 45, 100
1, 28087, Note_on_c, 0, 45, 0
1, 28087, Note_on_c, 0, 49, 100
1, 28095, Note_on_c, 0, 49, 0
1, 28095, Note_on_c, 0, 52, 100
1, 28102, Note_on_c, 0, 52, 0
1, 28102, Note_on_c, 0, 57, 100
1, 28117, Note_on_c, 0, 57, 0
1, 28140, Note_on_c, 0, 57, 100
1, 28170, Note_on_c, 0, 57, 0
1, 28200, Note_on_c, 0, 73, 0
1, 28200, Note_on_c, 0, 85, 0
1, 28200, Note_on_c, 0, 81, 100
1, 28200, Note_on_c, 0, 69, 100
1, 28200, Note_on_c, 0, 57, 100
1, 28230, Note_on_c, 0, 57, 0
1, 28230, Note_on_c, 0, 69, 0
1, 28230, Note_on_c, 0, 81, 0
1, 28260, Note_on_c, 0, 83, 100
1, 28260, Note_on_c, 0, 71, 100
1, 28260, Note_on_c, 0, 57, 100
1, 28290, Note_on_c, 0, 57, 0
1, 28290, Note_on_c, 0, 71, 0
1, 28290, Note_on_c, 0, 83, 0
1, 28320, Note_on_c, 0, 73, 100
1, 28320, Note_on_c, 0, 85, 100
1, 28320, Note_on_c, 0, 45, 100
1, 28327, Note_on_c, 0, 45, 0
1, 28327, Note_on_c, 0, 49, 100
1, 28335, Note_on_c, 0, 49, 0
1, 28335, Note_on_c, 0, 52, 100
1, 28342, Note_on_c, 0, 52, 0
1, 28342, Note_on_c, 0, 57, 100
1, 28350, Note_on_c, 0, 85, 0
1, 28350, Note_on_c, 0, 73, 0
1, 28357, Note_on_c, 0, 57, 0
1, 28380, Note_on_c, 0, 71, 100
1, 28380, Note_on_c, 0, 83, 100
1, 28380, Note_on_c, 0, 57, 100
1, 28410, Note_on_c, 0, 57, 0
1, 28410, Note_on_c, 0, 83, 0
1, 28410, Note_on_c, 0, 71, 0
1, 28440, Note_on_c, 0, 69, 100
1, 28440, Note_on_c, 0, 81, 100
1, 28440, Note_on_c, 0, 57, 100
1, 28470, Note_on_c, 0, 57, 0
1, 28470, Note_on_c, 0, 81, 0
1, 28470, Note_on_c, 0, 69, 0
1, 28500, Note_on_c, 0, 68, 100
1, 28500, Note_on_c, 0, 80, 100
1, 28500, Note_on_c, 0, 57, 100
1, 28530, Note_on_c, 0, 57, 0
1, 28530, Note_on_c, 0, 80, 0
1, 28530, Note_on_c, 0, 68, 0
1, 28560, Note_on_c, 0, 78, 100
1, 28560, Note_on_c, 0, 66, 100
1, 28560, Note_on_c, 0, 38, 100
1, 28567, Note_on_c, 0, 38, 0
1, 28567, Note_on_c, 0, 42, 100
1, 28575, Note_on_c, 0, 42, 0
1, 28575, Note_on_c, 0, 45, 100
1, 28582, Note_on_c, 0, 45, 0
1, 28582, Note_on_c, 0, 50, 100
1, 28590, Note_on_c, 0, 66, 0
1, 28590, Note_on_c, 0, 78, 0
1, 28597, Note_on_c, 0, 50, 0
1, 28620, Note_on_c, 0, 83, 100
1, 28620, Note_on_c, 0, 71, 100
1, 28620, Note_on_c, 0, 50, 100
1, 28650, Note_on_c, 0, 50, 0
1, 28650, Note_on_c, 0, 71, 0
1, 28650, Note_on_c, 0, 83, 0
1, 28680, Note_on_c, 0, 80, 100
1, 28680, Note_on_c, 0, 68, 100
1, 28680, Note_on_c, 0, 40, 100
1, 28687, Note_on_c, 0, 40, 0
1, 28687, Note_on_c, 0, 44, 100
1, 28695, Note_on_c, 0, 44, 0
1, 28695, Note_on_c, 0, 47, 100
1, 28702, Note_on_c, 0, 47, 0
1, 28702, Note_on_c, 0, 52, 100
1, 28710, Note_on_c, 0, 68, 0
1, 28710, Note_on_c, 0, 80, 0
1, 28717, Note_on_c, 0, 52, 0
1, 28740, Note_on_c, 0, 76, 100
1, 28740, Note_on_c, 0, 64, 100
1, 28740, Note_on_c, 0, 52, 100
1, 28770, Note_on_c, 0, 52, 0
1, 28770, Note_on_c, 0, 64, 0
1, 28770, Note_on_c, 0, 76, 0
1, 28800, Note_on_c, 0, 81, 100
1, 28800, Note_on_c, 0, 69, 100
1, 28800, Note_on_c, 0, 45, 100
1, 28920, Note_on_c, 0, 45, 0
1, 28920, Note_on_c, 0, 69, 0
1, 28920, Note_on_c, 0, 81, 0
1, 28920, Note_on_c, 0, 81, 100
1, 28920, Note_on_c, 0, 69, 100
1, 28950, Note_on_c, 0, 69, 0
1, 28950, Note_on_c, 0, 81, 0
1, 28980, Note_on_c, 0, 83, 100
1, 28980, Note_on_c, 0, 71, 100
1, 29010, Note_on_c, 0, 71, 0
1, 29010, Note_on_c, 0, 83, 0
1, 29040, Note_on_c, 0, 85, 100
1, 29040, Note_on_c, 0, 73, 100
1, 29040, Note_on_c, 0, 45, 100
1, 29047, Note_on_c, 0, 45, 0
1, 29047, Note_on_c, 0, 49, 100
1, 29055, Note_on_c, 0, 49, 0
1, 29055, Note_on_c, 0, 52, 100
1, 29062, Note_on_c, 0, 52, 0
1, 29062, Note_on_c, 0, 57, 100
1, 29077, Note_on_c, 0, 57, 0
1, 29100, Note_on_c, 0, 57, 100
1, 29130, Note_on_c, 0, 57, 0
1, 29160, Note_on_c, 0, 73, 0
1, 29160, Note_on_c, 0, 85, 0
1, 29160, Note_on_c, 0, 81, 100
1, 29160, Note_on_c, 0, 69, 100
1, 29160, Note_on_c, 0, 57, 100
1, 29190, Note_on_c, 0, 57, 0
1, 29190, Note_on_c, 0, 69, 0
1, 29190, Note_on_c, 0, 81, 0
1, 29220, Note_on_c, 0, 83, 100
1, 29220, Note_on_c, 0, 71, 100
1, 29220, Note_on_c, 0, 57, 100
1, 29250, Note_on_c, 0, 57, 0
1, 29250, Note_on_c, 0, 71, 0
1, 29250, Note_on_c, 0, 83, 0
1, 29280, Note_on_c, 0, 73, 100
1, 29280, Note_on_c, 0, 85, 100
1, 29280, Note_on_c, 0, 45, 100
1, 29287, Note_on_c, 0, 45, 0
1, 29287, Note_on_c, 0, 49, 100
1, 29295, Note_on_c, 0, 49, 0
1, 29295, Note_on_c, 0, 52, 100
1, 29302, Note_on_c, 0, 52, 0
1, 29302, Note_on_c, 0, 57, 100
1, 29310, Note_on_c, 0, 85, 0
1, 29310, Note_on_c, 0, 73, 0
1, 29317, Note_on_c, 0, 57, 0
1, 29340, Note_on_c, 0, 71, 100
1, 29340, Note_on_c, 0, 83, 100
1, 29340, Note_on_c, 0, 57, 100
1, 29370, Note_on_c, 0, 57, 0
1, 29370, Note_on_c, 0, 83, 0
1, 29370, Note_on_c, 0, 71, 0
1, 29400, Note_on_c, 0, 69, 100
1, 29400, Note_on_c, 0, 81, 100
1, 29400, Note_on_c, 0, 57, 100
1, 29430, Note_on_c, 0, 57, 0
1, 29430, Note_on_c, 0, 81, 0
1, 29430, Note_on_c, 0, 69, 0
1, 29460, Note_on_c, 0, 68, 100
1, 29460, Note_on_c, 0, 80, 100
1, 29460, Note_on_c, 0, 57, 100
1, 29490, Note_on_c, 0, 57, 0
1, 29490, Note_on_c, 0, 80, 0
1, 29490, Note_on_c, 0, 68, 0
1, 29520, Note_on_c, 0, 78, 100
1, 29520, Note_on_c, 0, 66, 100
1, 29520, Note_on_c, 0, 38, 100
1, 29527, Note_on_c, 0, 38, 0
1, 29527, Note_on_c, 0, 42, 100
1, 29535, Note_on_c, 0, 42, 0
1, 29535, Note_on_c, 0, 45, 100
1, 29542, Note_on_c, 0, 45, 0
1, 29542, Note_on_c, 0, 50, 100
1, 29550, Note_on_c, 0, 66, 0
1, 29550, Note_on_c, 0, 78, 0
1, 29557, Note_on_c, 0, 50, 0
1, 29580, Note_on_c, 0, 80, 100
1, 29580, Note_on_c, 0, 68, 100
1, 29580, Note_on_c, 0, 50, 100
1, 29610, Note_on_c, 0, 50, 0
1, 29610, Note_on_c, 0, 68, 0
1, 29610, Note_on_c, 0, 80, 0
1, 29640, Note_on_c, 0, 81, 100
1, 29640, Note_on_c, 0, 69, 100
1, 29640, Note_on_c, 0, 39, 100
1, 29647, Note_on_c, 0, 39, 0
1, 29647, Note_on_c, 0, 42, 100
1, 29655, Note_on_c, 0, 42, 0
1, 29655, Note_on_c, 0, 45, 100
1, 29662, Note_on_c, 0, 45, 0
1, 29662, Note_on_c, 0, 51, 100
1, 29670, Note_on_c, 0, 69, 0
1, 29670, Note_on_c, 0, 81, 0
1, 29677, Note_on_c, 0, 51, 0
1, 29700, Note_on_c, 0, 83, 100
1, 29700, Note_on_c, 0, 71, 100
1, 29700, Note_on_c, 0, 51, 100
1, 29730, Note_on_c, 0, 51, 0
1, 29730, Note_on_c, 0, 71, 0
1, 29730, Note_on_c, 0, 83, 0
1, 29760, Note_on_c, 0, 80, 100
1, 29760, Note_on_c, 0, 68, 100
1, 29760, Note_on_c, 0, 40, 100
1, 29767, Note_on_c, 0, 40, 0
1, 29767, Note_on_c, 0, 44, 100
1, 29775, Note_on_c, 0, 44, 0
1, 29775, Note_on_c, 0, 47, 100
1, 29782, Note_on_c, 0, 47, 0
1, 29782, Note_on_c, 0, 52, 100
1, 29797, Note_on_c, 0, 52, 0
1, 29820, Note_on_c, 0, 68, 0
1, 29820, Note_on_c, 0, 80, 0
1, 29820, Note_on_c, 0, 76, 100
1, 29820, Note_on_c, 0, 64, 100
1, 29820, Note_on_c, 0, 52, 100
1, 29850, Note_on_c, 0, 52, 0
1, 29850, Note_on_c, 0, 64, 0
1, 29850, Note_on_c, 0, 76, 0
1, 29880, Note_on_c, 0, 81, 100
1, 29880, Note_on_c, 0, 69, 100
1, 29880, Note_on_c, 0, 52, 100
1, 29910, Note_on_c, 0, 52, 0
1, 29910, Note_on_c, 0, 69, 0
1, 29910, Note_on_c, 0, 81, 0
1, 29940, Note_on_c, 0, 83, 100
1, 29940, Note_on_c, 0, 71, 100
1, 29940, Note_on_c, 0, 52, 100
1, 29970, Note_on_c, 0, 52, 0
1, 29970, Note_on_c, 0, 71, 0
1, 29970, Note_on_c, 0, 83, 0
1, 30000, Note_on_c, 0, 85, 100
1, 30000, Note_on_c, 0, 73, 100
1, 30000, Note_on_c, 0, 45, 100
1, 30007, Note_on_c, 0, 45, 0
1, 30007, Note_on_c, 0, 49, 100
1, 30015, Note_on_c, 0, 49, 0
1, 30015, Note_on_c, 0, 52, 100
1, 30022, Note_on_c, 0, 52, 0
1, 30022, Note_on_c, 0, 57, 100
1, 30037, Note_on_c, 0, 57, 0
1, 30060, Note_on_c, 0, 57, 100
1, 30090, Note_on_c, 0, 57, 0
1, 30120, Note_on_c, 0, 73, 0
1, 30120, Note_on_c, 0, 85, 0
1, 30120, Note_on_c, 0, 81, 100
1, 30120, Note_on_c, 0, 69, 100
1, 30120, Note_on_c, 0, 57, 100
1, 30150, Note_on_c, 0, 57, 0
1, 30150, Note_on_c, 0, 69, 0
1, 30150, Note_on_c, 0, 81, 0
1, 30180, Note_on_c, 0, 83, 100
1, 30180, Note_on_c, 0, 71, 100
1, 30180, Note_on_c, 0, 57, 100
1, 30210, Note_on_c, 0, 57, 0
1, 30210, Note_on_c, 0, 71, 0
1, 30210, Note_on_c, 0, 83, 0
1, 30240, Note_on_c, 0, 73, 100
1, 30240, Note_on_c, 0, 85, 100
1, 30240, Note_on_c, 0, 45, 100
1, 30247, Note_on_c, 0, 45, 0
1, 30247, Note_on_c, 0, 49, 100
1, 30255, Note_on_c, 0, 49, 0
1, 30255, Note_on_c, 0, 52, 100
1, 30262, Note_on_c, 0, 52, 0
1, 30262, Note_on_c, 0, 57, 100
1, 30270, Note_on_c, 0, 85, 0
1, 30270, Note_on_c, 0, 73, 0
1, 30277, Note_on_c, 0, 57, 0
1, 30300, Note_on_c, 0, 71, 100
1, 30300, Note_on_c, 0, 83, 100
1, 30300, Note_on_c, 0, 57, 100
1, 30330, Note_on_c, 0, 57, 0
1, 30330, Note_on_c, 0, 83, 0
1, 30330, Note_on_c, 0, 71, 0
1, 30360, Note_on_c, 0, 69, 100
1, 30360, Note_on_c, 0, 81, 100
1, 30360, Note_on_c, 0, 57, 100
1, 30390, Note_on_c, 0, 57, 0
1, 30390, Note_on_c, 0, 81, 0
1, 30390, Note_on_c, 0, 69, 0
1, 30420, Note_on_c, 0, 68, 100
1, 30420, Note_on_c, 0, 80, 100
1, 30420, Note_on_c, 0, 57, 100
1, 30450, Note_on_c, 0, 57, 0
1, 30450, Note_on_c, 0, 80, 0
1, 30450, Note_on_c, 0, 68, 0
1, 30480, Note_on_c, 0, 78, 100
1, 30480, Note_on_c, 0, 66, 100
1, 30480, Note_on_c, 0, 38, 100
1, 30487, Note_on_c, 0, 38, 0
1, 30487, Note_on_c, 0, 42, 100
1, 30495, Note_on_c, 0, 42, 0
1, 30495, Note_on_c, 0, 45, 100
1, 30502, Note_on_c, 0, 45, 0
1, 30502, Note_on_c, 0, 50, 100
1, 30510, Note_on_c, 0, 66, 0
1, 30510, Note_on_c, 0, 78, 0
1, 30517, Note_on_c, 0, 50, 0
1, 30540, Note_on_c, 0, 83, 100
1, 30540, Note_on_c, 0, 71, 100
1, 30540, Note_on_c, 0, 50, 100
1, 30570, Note_on_c, 0, 50, 0
1, 30570, Note_on_c, 0, 71, 0
1, 30570, Note_on_c, 0, 83, 0
1, 30600, Note_on_c, 0, 80, 100
1, 30600, Note_on_c, 0, 68, 100
1, 30600, Note_on_c, 0, 40, 100
1, 30607, Note_on_c, 0, 40, 0
1, 30607, Note_on_c, 0, 44, 100
1, 30615, Note_on_c, 0, 44, 0
1, 30615, Note_on_c, 0, 47, 100
1, 30622, Note_on_c, 0, 47, 0
1, 30622, Note_on_c, 0, 52, 100
1, 30630, Note_on_c, 0, 68, 0
1, 30630, Note_on_c, 0, 80, 0
1, 30637, Note_on_c, 0, 52, 0
1, 30660, Note_on_c, 0, 76, 100
1, 30660, Note_on_c, 0, 64, 100
1, 30660, Note_on_c, 0, 52, 100
1, 30690, Note_on_c, 0, 52, 0
1, 30690, Note_on_c, 0, 64, 0
1, 30690, Note_on_c, 0, 76, 0
1, 30720, Key_signature, 0, "major"
1, 30720, Note_on_c, 0, 81, 100
1, 30720, Note_on_c, 0, 69, 100
1, 30720, Note_on_c, 0, 45, 100
1, 30840, Note_on_c, 0, 45, 0
1, 30840, Note_on_c, 0, 69, 0
1, 30840, Note_on_c, 0, 81, 0
1, 30840, Note_on_c, 0, 71, 100
1, 30870, Note_on_c, 0, 71, 0
1, 30870, Note_on_c, 0, 69, 100
1, 30900, Note_on_c, 0, 69, 0
1, 30900, Note_on_c, 0, 68, 100
1, 30930, Note_on_c, 0, 68, 0
1, 30930, Note_on_c, 0, 69, 100
1, 30960, Note_on_c, 0, 69, 0
1, 30960, Note_on_c, 0, 72, 100
1, 30960, Note_on_c, 0, 57, 100
1, 30990, Note_on_c, 0, 72, 0
1, 31020, Note_on_c, 0, 57, 0
1, 31020, Note_on_c, 0, 64, 100
1, 31020, Note_on_c, 0, 60, 100
1, 31050, Note_on_c, 0, 60, 0
1, 31050, Note_on_c, 0, 64, 0
1, 31080, Note_on_c, 0, 74, 100
1, 31080, Note_on_c, 0, 64, 100
1, 31080, Note_on_c, 0, 60, 100
1, 31110, Note_on_c, 0, 60, 0
1, 31110, Note_on_c, 0, 64, 0
1, 31110, Note_on_c, 0, 74, 0
1, 31110, Note_on_c, 0, 72, 100
1, 31140, Note_on_c, 0, 72, 0
1, 31140, Note_on_c, 0, 71, 100
1, 31140, Note_on_c, 0, 64, 100
1, 31140, Note_on_c, 0, 60, 100
1, 31170, Note_on_c, 0, 60, 0
1, 31170, Note_on_c, 0, 64, 0
1, 31170, Note_on_c, 0, 71, 0
1, 31170, Note_on_c, 0, 72, 100
1, 31200, Note_on_c, 0, 72, 0
1, 31200, Note_on_c, 0, 76, 100
1, 31200, Note_on_c, 0, 57, 100
1, 31230, Note_on_c, 0, 76, 0
1, 31260, Note_on_c, 0, 57, 0
1, 31260, Note_on_c, 0, 64, 100
1, 31260, Note_on_c, 0, 60, 100
1, 31290, Note_on_c, 0, 60, 0
1, 31290, Note_on_c, 0, 64, 0
1, 31320, Note_on_c, 0, 77, 100
1, 31320, Note_on_c, 0, 64, 100
1, 31320, Note_on_c, 0, 60, 100
1, 31350, Note_on_c, 0, 60, 0
1, 31350, Note_on_c, 0, 64, 0
1, 31350, Note_on_c, 0, 77, 0
1, 31350, Note_on_c, 0, 76, 100
1, 31380, Note_on_c, 0, 76, 0
1, 31380, Note_on_c, 0, 75, 100
1, 31380, Note_on_c, 0, 64, 100
1, 31380, Note_on_c, 0, 60, 100
1, 31410, Note_on_c, 0, 60, 0
1, 31410, Note_on_c, 0, 64, 0
1, 31410, Note_on_c, 0, 75, 0
1, 31410, Note_on_c, 0, 76, 100
1, 31440, Note_on_c, 0, 76, 0
1, 31440, Note_on_c, 0, 83, 100
1, 31440, Note_on_c, 0, 57, 100
1, 31470, Note_on_c, 0, 57, 0
1, 31470, Note_on_c, 0, 83, 0
1, 31470, Note_on_c, 0, 81, 100
1, 31500, Note_on_c, 0, 81, 0
1, 31500, Note_on_c, 0, 80, 100
1, 31500, Note_on_c, 0, 64, 100
1, 31500, Note_on_c, 0, 60, 100
1, 31530, Note_on_c, 0, 60, 0
1, 31530, Note_on_c, 0, 64, 0
1, 31530, Note_on_c, 0, 80, 0
1, 31530, Note_on_c, 0, 81, 100
1, 31560, Note_on_c, 0, 81, 0
1, 31560, Note_on_c, 0, 83, 100
1, 31560, Note_on_c, 0, 57, 100
1, 31590, Note_on_c, 0, 57, 0
1, 31590, Note_on_c, 0, 83, 0
1, 31590, Note_on_c, 0, 81, 100
1, 31620, Note_on_c, 0, 81, 0
1, 31620, Note_on_c, 0, 80, 100
1, 31620, Note_on_c, 0, 64, 100
1, 31620, Note_on_c, 0, 60, 100
1, 31650, Note_on_c, 0, 60, 0
1, 31650, Note_on_c, 0, 64, 0
1, 31650, Note_on_c, 0, 80, 0
1, 31650, Note_on_c, 0, 81, 100
1, 31680, Note_on_c, 0, 81, 0
1, 31680, Note_on_c, 0, 84, 100
1, 31680, Note_on_c, 0, 57, 100
1, 31740, Note_on_c, 0, 57, 0
1, 31740, Note_on_c, 0, 84, 0
1, 31740, Note_on_c, 0, 64, 100
1, 31740, Note_on_c, 0, 60, 100
1, 31770, Note_on_c, 0, 60, 0
1, 31770, Note_on_c, 0, 64, 0
1, 31800, Note_on_c, 0, 81, 100
1, 31800, Note_on_c, 0, 64, 100
1, 31800, Note_on_c, 0, 60, 100
1, 31830, Note_on_c, 0, 60, 0
1, 31830, Note_on_c, 0, 64, 0
1, 31830, Note_on_c, 0, 81, 0
1, 31860, Note_on_c, 0, 84, 100
1, 31860, Note_on_c, 0, 64, 100
1, 31860, Note_on_c, 0, 60, 100
1, 31890, Note_on_c, 0, 60, 0
1, 31890, Note_on_c, 0, 64, 0
1, 31890, Note_on_c, 0, 84, 0
1, 31920, Note_on_c, 0, 79, 100
1, 31920, Note_on_c, 0, 52, 100
1, 31927, Note_on_c, 0, 79, 0
1, 31927, Note_on_c, 0, 81, 100
1, 31935, Note_on_c, 0, 81, 0
1, 31935, Note_on_c, 0, 83, 100
1, 31950, Note_on_c, 0, 83, 0
1, 31950, Note_on_c, 0, 52, 0
1, 31980, Note_on_c, 0, 81, 100
1, 31980, Note_on_c, 0, 78, 100
1, 31980, Note_on_c, 0, 64, 100
1, 31980, Note_on_c, 0, 59, 100
1, 32010, Note_on_c, 0, 59, 0
1, 32010, Note_on_c, 0, 81, 0
1, 32010, Note_on_c, 0, 78, 0
1, 32010, Note_on_c, 0, 64, 0
1, 32040, Note_on_c, 0, 76, 100
1, 32040, Note_on_c, 0, 79, 100
1, 32040, Note_on_c, 0, 64, 100
1, 32040, Note_on_c, 0, 59, 100
1, 32070, Note_on_c, 0, 59, 0
1, 32070, Note_on_c, 0, 76, 0
1, 32070, Note_on_c, 0, 79, 0
1, 32070, Note_on_c, 0, 64, 0
1, 32100, Note_on_c, 0, 78, 100
1, 32100, Note_on_c, 0, 81, 100
1, 32100, Note_on_c, 0, 64, 100
1, 32100, Note_on_c, 0, 59, 100
1, 32130, Note_on_c, 0, 59, 0
1, 32130, Note_on_c, 0, 78, 0
1, 32130, Note_on_c, 0, 81, 0
1, 32130, Note_on_c, 0, 64, 0
1, 32160, Note_on_c, 0, 79, 100
1, 32160, Note_on_c, 0, 52, 100
1, 32167, Note_on_c, 0, 79, 0
1, 32167, Note_on_c, 0, 81, 100
1, 32175, Note_on_c, 0, 81, 0
1, 32175, Note_on_c, 0, 83, 100
1, 32190, Note_on_c, 0, 83, 0
1, 32190, Note_on_c, 0, 52, 0
1, 32220, Note_on_c, 0, 81, 100
1, 32220, Note_on_c, 0, 78, 100
1, 32220, Note_on_c, 0, 64, 100
1, 32220, Note_on_c, 0, 59, 100
1, 32250, Note_on_c, 0, 59, 0
1, 32250, Note_on_c, 0, 81, 0
1, 32250, Note_on_c, 0, 78, 0
1, 32250, Note_on_c, 0, 64, 0
1, 32280, Note_on_c, 0, 76, 100
1, 32280, Note_on_c, 0, 79, 100
1, 32280, Note_on_c, 0, 64, 100
1, 32280, Note_on_c, 0, 59, 100
1, 32310, Note_on_c, 0, 59, 0
1, 32310, Note_on_c, 0, 76, 0
1, 32310, Note_on_c, 0, 79, 0
1, 32310, Note_on_c, 0, 64, 0
1, 32340, Note_on_c, 0, 78, 100
1, 32340, Note_on_c, 0, 81, 100
1, 32340, Note_on_c, 0, 64, 100
1, 32340, Note_on_c, 0, 59, 100
1, 32370, Note_on_c, 0, 59, 0
1, 32370, Note_on_c, 0, 78, 0
1, 32370, Note_on_c, 0, 81, 0
1, 32370, Note_on_c, 0, 64, 0
1, 32400, Note_on_c, 0, 79, 100
1, 32400, Note_on_c, 0, 52, 100
1, 32407, Note_on_c, 0, 79, 0
1, 32407, Note_on_c, 0, 81, 100
1, 32415, Note_on_c, 0, 81, 0
1, 32415, Note_on_c, 0, 83, 100
1, 32430, Note_on_c, 0, 83, 0
1, 32430, Note_on_c, 0, 52, 0
1, 32460, Note_on_c, 0, 81, 100
1, 32460, Note_on_c, 0, 78, 100
1, 32460, Note_on_c, 0, 64, 100
1, 32460, Note_on_c, 0, 59, 100
1, 32490, Note_on_c, 0, 59, 0
1, 32490, Note_on_c, 0, 81, 0
1, 32490, Note_on_c, 0, 78, 0
1, 32490, Note_on_c, 0, 64, 0
1, 32520, Note_on_c, 0, 76, 100
1, 32520, Note_on_c, 0, 79, 100
1, 32520, Note_on_c, 0, 47, 100
1, 32550, Note_on_c, 0, 47, 0
1, 32550, Note_on_c, 0, 79, 0
1, 32550, Note_on_c, 0, 76, 0
1, 32580, Note_on_c, 0, 75, 100
1, 32580, Note_on_c, 0, 78, 100
1, 32580, Note_on_c, 0, 59, 100
1, 32610, Note_on_c, 0, 59, 0
1, 32610, Note_on_c, 0, 78, 0
1, 32610, Note_on_c, 0, 75, 0
1, 32640, Note_on_c, 0, 76, 100
1, 32640, Note_on_c, 0, 52, 100
1, 32760, Note_on_c, 0, 52, 0
1, 32760, Note_on_c, 0, 76, 0
1, 32760, Note_on_c, 0, 71, 100
1, 32790, Note_on_c, 0, 71, 0
1, 32790, Note_on_c, 0, 69, 100
1, 32820, Note_on_c, 0, 69, 0
1, 32820, Note_on_c, 0, 68, 100
1, 32850, Note_on_c, 0, 68, 0
1, 32850, Note_on_c, 0, 69, 100
1, 32880, Note_on_c, 0, 69, 0
1, 32880, Note_on_c, 0, 72, 100
1, 32880, Note_on_c, 0, 57, 100
1, 32910, Note_on_c, 0, 72, 0
1, 32940, Note_on_c, 0, 57, 0
1, 32940, Note_on_c, 0, 64, 100
1, 32940, Note_on_c, 0, 60, 100
1, 32970, Note_on_c, 0, 60, 0
1, 32970, Note_on_c, 0, 64, 0
1, 33000, Note_on_c, 0, 74, 100
1, 33000, Note_on_c, 0, 64, 100
1, 33000, Note_on_c, 0, 60, 100
1, 33030, Note_on_c, 0, 60, 0
1, 33030, Note_on_c, 0, 64, 0
1, 33030, Note_on_c, 0, 74, 0
1, 33030, Note_on_c, 0, 72, 100
1, 33060, Note_on_c, 0, 72, 0
1, 33060, Note_on_c, 0, 71, 100
1, 33060, Note_on_c, 0, 64, 100
1, 33060, Note_on_c, 0, 60, 100
1, 33090, Note_on_c, 0, 60, 0
1, 33090, Note_on_c, 0, 64, 0
1, 33090, Note_on_c, 0, 71, 0
1, 33090, Note_on_c, 0, 72, 100
1, 33120, Note_on_c, 0, 72, 0
1, 33120, Note_on_c, 0, 76, 100
1, 33120, Note_on_c, 0, 57, 100
1, 33150, Note_on_c, 0, 76, 0
1, 33180, Note_on_c, 0, 57, 0
1, 33180, Note_on_c, 0, 64, 100
1, 33180, Note_on_c, 0, 60, 100
1, 33210, Note_on_c, 0, 60, 0
1, 33210, Note_on_c, 0, 64, 0
1, 33240, Note_on_c, 0, 77, 100
1, 33240, Note_on_c, 0, 64, 100
1, 33240, Note_on_c, 0, 60, 100
1, 33270, Note_on_c, 0, 60, 0
1, 33270, Note_on_c, 0, 64, 0
1, 33270, Note_on_c, 0, 77, 0
1, 33270, Note_on_c, 0, 76, 100
1, 33300, Note_on_c, 0, 76, 0
1, 33300, Note_on_c, 0, 75, 100
1, 33300, Note_on_c, 0, 64, 100
1, 33300, Note_on_c, 0, 60, 100
1, 33330, Note_on_c, 0, 60, 0
1, 33330, Note_on_c, 0, 64, 0
1, 33330, Note_on_c, 0, 75, 0
1, 33330, Note_on_c, 0, 76, 100
1, 33360, Note_on_c, 0, 76, 0
1, 33360, Note_on_c, 0, 83, 100
1, 33360, Note_on_c, 0, 57, 100
1, 33390, Note_on_c, 0, 57, 0
1, 33390, Note_on_c, 0, 83, 0
1, 33390, Note_on_c, 0, 81, 100
1, 33420, Note_on_c, 0, 81, 0
1, 33420, Note_on_c, 0, 80, 100
1, 33420, Note_on_c, 0, 64, 100
1, 33420, Note_on_c, 0, 60, 100
1, 33450, Note_on_c, 0, 60, 0
1, 33450, Note_on_c, 0, 64, 0
1, 33450, Note_on_c, 0, 80, 0
1, 33450, Note_on_c, 0, 81, 100
1, 33480, Note_on_c, 0, 81, 0
1, 33480, Note_on_c, 0, 83, 100
1, 33480, Note_on_c, 0, 57, 100
1, 33510, Note_on_c, 0, 57, 0
1, 33510, Note_on_c, 0, 83, 0
1, 33510, Note_on_c, 0, 81, 100
1, 33540, Note_on_c, 0, 81, 0
1, 33540, Note_on_c, 0, 80, 100
1, 33540, Note_on_c, 0, 64, 100
1, 33540, Note_on_c, 0, 60, 100
1, 33570, Note_on_c, 0, 60, 0
1, 33570, Note_on_c, 0, 64, 0
1, 33570, Note_on_c, 0, 80, 0
1, 33570, Note_on_c, 0, 81, 100
1, 33600, Note_on_c, 0, 81, 0
1, 33600, Note_on_c, 0, 84, 100
1, 33600, Note_on_c, 0, 57, 100
1, 33660, Note_on_c, 0, 57, 0
1, 33660, Note_on_c, 0, 84, 0
1, 33660, Note_on_c, 0, 64, 100
1, 33660, Note_on_c, 0, 60, 100
1, 33690, Note_on_c, 0, 60, 0
1, 33690, Note_on_c, 0, 64, 0
1, 33720, Note_on_c, 0, 81, 100
1, 33720, Note_on_c, 0, 64, 100
1, 33720, Note_on_c, 0, 60, 100
1, 33750, Note_on_c, 0, 60, 0
1, 33750, Note_on_c, 0, 64, 0
1, 33750, Note_on_c, 0, 81, 0
1, 33780, Note_on_c, 0, 84, 100
1, 33780, Note_on_c, 0, 64, 100
1, 33780, Note_on_c, 0, 60, 100
1, 33810, Note_on_c, 0, 60, 0
1, 33810, Note_on_c, 0, 64, 0
1, 33810, Note_on_c, 0, 84, 0
1, 33840, Note_on_c, 0, 79, 100
1, 33840, Note_on_c, 0, 52, 100
1, 33847, Note_on_c, 0, 79, 0
1, 33847, Note_on_c, 0, 81, 100
1, 33855, Note_on_c, 0, 81, 0
1, 33855, Note_on_c, 0, 83, 100
1, 33870, Note_on_c, 0, 83, 0
1, 33870, Note_on_c, 0, 52, 0
1, 33900, Note_on_c, 0, 81, 100
1, 33900, Note_on_c, 0, 78, 100
1, 33900, Note_on_c, 0, 64, 100
1, 33900, Note_on_c, 0, 59, 100
1, 33930, Note_on_c, 0, 59, 0
1, 33930, Note_on_c, 0, 81, 0
1, 33930, Note_on_c, 0, 78, 0
1, 33930, Note_on_c, 0, 64, 0
1, 33960, Note_on_c, 0, 76, 100
1, 33960, Note_on_c, 0, 79, 100
1, 33960, Note_on_c, 0, 64, 100
1, 33960, Note_on_c, 0, 59, 100
1, 33990, Note_on_c, 0, 59, 0
1, 33990, Note_on_c, 0, 76, 0
1, 33990, Note_on_c, 0, 79, 0
1, 33990, Note_on_c, 0, 64, 0
1, 34020, Note_on_c, 0, 78, 100
1, 34020, Note_on_c, 0, 81, 100
1, 34020, Note_on_c, 0, 64, 100
1, 34020, Note_on_c, 0, 59, 100
1, 34050, Note_on_c, 0, 59, 0
1, 34050, Note_on_c, 0, 78, 0
1, 34050, Note_on_c, 0, 81, 0
1, 34050, Note_on_c, 0, 64, 0
1, 34080, Note_on_c, 0, 79, 100
1, 34080, Note_on_c, 0, 52, 100
1, 34087, Note_on_c, 0, 79, 0
1, 34087, Note_on_c, 0, 81, 100
1, 34095, Note_on_c, 0, 81, 0
1, 34095, Note_on_c, 0, 83, 100
1, 34110, Note_on_c, 0, 83, 0
1, 34110, Note_on_c, 0, 52, 0
1, 34140, Note_on_c, 0, 81, 100
1, 34140, Note_on_c, 0, 78, 100
1, 34140, Note_on_c, 0, 64, 100
1, 34140, Note_on_c, 0, 59, 100
1, 34170, Note_on_c, 0, 59, 0
1, 34170, Note_on_c, 0, 81, 0
1, 34170, Note_on_c, 0, 78, 0
1, 34170, Note_on_c, 0, 64, 0
1, 34200, Note_on_c, 0, 76, 100
1, 34200, Note_on_c, 0, 79, 100
1, 34200, Note_on_c, 0, 64, 100
1, 34200, Note_on_c, 0, 59, 100
1, 34230, Note_on_c, 0, 59, 0
1, 34230, Note_on_c, 0, 76, 0
1, 34230, Note_on_c, 0, 79, 0
1, 34230, Note_on_c, 0, 64, 0
1, 34260, Note_on_c, 0, 78, 100
1, 34260, Note_on_c, 0, 81, 100
1, 34260, Note_on_c, 0, 64, 100
1, 34260, Note_on_c, 0, 59, 100
1, 34290, Note_on_c, 0, 59, 0
1, 34290, Note_on_c, 0, 78, 0
1, 34290, Note_on_c, 0, 81, 0
1, 34290, Note_on_c, 0, 64, 0
1, 34320, Note_on_c, 0, 79, 100
1, 34320, Note_on_c, 0, 52, 100
1, 34327, Note_on_c, 0, 79, 0
1, 34327, Note_on_c, 0, 81, 100
1, 34335, Note_on_c, 0, 81, 0
1, 34335, Note_on_c, 0, 83, 100
1, 34350, Note_on_c, 0, 83, 0
1, 34350, Note_on_c, 0, 52, 0
1, 34380, Note_on_c, 0, 81, 100
1, 34380, Note_on_c, 0, 78, 100
1, 34380, Note_on_c, 0, 64, 100
1, 34380, Note_on_c, 0, 59, 100
1, 34410, Note_on_c, 0, 59, 0
1, 34410, Note_on_c, 0, 81, 0
1, 34410, Note_on_c, 0, 78, 0
1, 34410, Note_on_c, 0, 64, 0
1, 34440, Note_on_c, 0, 76, 100
1, 34440, Note_on_c, 0, 79, 100
1, 34440, Note_on_c, 0, 47, 100
1, 34470, Note_on_c, 0, 47, 0
1, 34470, Note_on_c, 0, 79, 0
1, 34470, Note_on_c, 0, 76, 0
1, 34500, Note_on_c, 0, 75, 100
1, 34500, Note_on_c, 0, 78, 100
1, 34500, Note_on_c, 0, 59, 100
1, 34530, Note_on_c, 0, 59, 0
1, 34530, Note_on_c, 0, 78, 0
1, 34530, Note_on_c, 0, 75, 0
1, 34560, Note_on_c, 0, 76, 100
1, 34560, Note_on_c, 0, 52, 100
1, 34680, Note_on_c, 0, 52, 0
1, 34680, Note_on_c, 0, 76, 0
1, 34680, Note_on_c, 0, 72, 100
1, 34680, Note_on_c, 0, 76, 100
1, 34710, Note_on_c, 0, 76, 0
1, 34710, Note_on_c, 0, 72, 0
1, 34740, Note_on_c, 0, 74, 100
1, 34740, Note_on_c, 0, 77, 100
1, 34770, Note_on_c, 0, 77, 0
1, 34770, Note_on_c, 0, 74, 0
1, 34800, Note_on_c, 0, 79, 100
1, 34800, Note_on_c, 0, 76, 100
1, 34800, Note_on_c, 0, 48, 100
1, 34830, Note_on_c, 0, 48, 0
1, 34830, Note_on_c, 0, 76, 0
1, 34830, Note_on_c, 0, 79, 0
1, 34860, Note_on_c, 0, 76, 100
1, 34860, Note_on_c, 0, 79, 100
1, 34860, Note_on_c, 0, 60, 100
1, 34890, Note_on_c, 0, 60, 0
1, 34890, Note_on_c, 0, 79, 0
1, 34890, Note_on_c, 0, 76, 0
1, 34920, Note_on_c, 0, 81, 100
1, 34920, Note_on_c, 0, 52, 100
1, 34950, Note_on_c, 0, 52, 0
1, 34950, Note_on_c, 0, 81, 0
1, 34950, Note_on_c, 0, 79, 100
1, 34980, Note_on_c, 0, 79, 0
1, 34980, Note_on_c, 0, 77, 100
1, 34980, Note_on_c, 0, 64, 100
1, 35010, Note_on_c, 0, 64, 0
1, 35010, Note_on_c, 0, 77, 0
1, 35010, Note_on_c, 0, 76, 100
1, 35040, Note_on_c, 0, 76, 0
1, 35040, Note_on_c, 0, 71, 100
1, 35040, Note_on_c, 0, 74, 100
1, 35040, Note_on_c, 0, 55, 100
1, 35100, Note_on_c, 0, 71, 0
1, 35100, Note_on_c, 0, 67, 100
1, 35160, Note_on_c, 0, 67, 0
1, 35160, Note_on_c, 0, 55, 0
1, 35160, Note_on_c, 0, 74, 0
1, 35160, Note_on_c, 0, 72, 100
1, 35160, Note_on_c, 0, 76, 100
1, 35190, Note_on_c, 0, 76, 0
1, 35190, Note_on_c, 0, 72, 0
1, 35220, Note_on_c, 0, 77, 100
1, 35220, Note_on_c, 0, 74, 100
1, 35250, Note_on_c, 0, 74, 0
1, 35250, Note_on_c, 0, 77, 0
1, 35280, Note_on_c, 0, 79, 100
1, 35280, Note_on_c, 0, 76, 100
1, 35280, Note_on_c, 0, 48, 100
1, 35310, Note_on_c, 0, 48, 0
1, 35310, Note_on_c, 0, 76, 0
1, 35310, Note_on_c, 0, 79, 0
1, 35340, Note_on_c, 0, 76, 100
1, 35340, Note_on_c, 0, 79, 100
1, 35340, Note_on_c, 0, 60, 100
1, 35370, Note_on_c, 0, 60, 0
1, 35370, Note_on_c, 0, 79, 0
1, 35370, Note_on_c, 0, 76, 0
1, 35400, Note_on_c, 0, 81, 100
1, 35400, Note_on_c, 0, 52, 100
1, 35430, Note_on_c, 0, 52, 0
1, 35430, Note_on_c, 0, 81, 0
1, 35430, Note_on_c, 0, 79, 100
1, 35460, Note_on_c, 0, 79, 0
1, 35460, Note_on_c, 0, 77, 100
1, 35460, Note_on_c, 0, 64, 100
1, 35490, Note_on_c, 0, 64, 0
1, 35490, Note_on_c, 0, 77, 0
1, 35490, Note_on_c, 0, 76, 100
1, 35520, Note_on_c, 0, 76, 0
1, 35520, Note_on_c, 0, 71, 100
1, 35520, Note_on_c, 0, 74, 100
1, 35520, Note_on_c, 0, 55, 100
1, 35640, Note_on_c, 0, 55, 0
1, 35640, Note_on_c, 0, 74, 0
1, 35640, Note_on_c, 0, 71, 0
1, 35640, Note_on_c, 0, 69, 100
1, 35640, Note_on_c, 0, 72, 100
1, 35670, Note_on_c, 0, 72, 0
1, 35670, Note_on_c, 0, 69, 0
1, 35700, Note_on_c, 0, 71, 100
1, 35700, Note_on_c, 0, 74, 100
1, 35730, Note_on_c, 0, 74, 0
1, 35730, Note_on_c, 0, 71, 0
1, 35760, Note_on_c, 0, 72, 100
1, 35760, Note_on_c, 0, 76, 100
1, 35760, Note_on_c, 0, 45, 100
1, 35790, Note_on_c, 0, 45, 0
1, 35790, Note_on_c, 0, 76, 0
1, 35790, Note_on_c, 0, 72, 0
1, 35820, Note_on_c, 0, 72, 100
1, 35820, Note_on_c, 0, 76, 100
1, 35820, Note_on_c, 0, 57, 100
1, 35850, Note_on_c, 0, 57, 0
1, 35850, Note_on_c, 0, 76, 0
1, 35850, Note_on_c, 0, 72, 0
1, 35880, Note_on_c, 0, 77, 100
1, 35880, Note_on_c, 0, 48, 100
1, 35910, Note_on_c, 0, 48, 0
1, 35910, Note_on_c, 0, 77, 0
1, 35910, Note_on_c, 0, 76, 100
1, 35940, Note_on_c, 0, 76, 0
1, 35940, Note_on_c, 0, 74, 100
1, 35940, Note_on_c, 0, 60, 100
1, 35970, Note_on_c, 0, 60, 0
1, 35970, Note_on_c, 0, 74, 0
1, 35970, Note_on_c, 0, 72, 100
1, 36000, Note_on_c, 0, 72, 0
1, 36000, Note_on_c, 0, 68, 100
1, 36000, Note_on_c, 0, 71, 100
1, 36000, Note_on_c, 0, 52, 100
1, 36060, Note_on_c, 0, 68, 0
1, 36060, Note_on_c, 0, 64, 100
1, 36120, Note_on_c, 0, 64, 0
1, 36120, Note_on_c, 0, 52, 0
1, 36120, Note_on_c, 0, 71, 0
1, 36120, Note_on_c, 0, 69, 100
1, 36120, Note_on_c, 0, 72, 100
1, 36150, Note_on_c, 0, 72, 0
1, 36150, Note_on_c, 0, 69, 0
1, 36180, Note_on_c, 0, 71, 100
1, 36180, Note_on_c, 0, 74, 100
1, 36210, Note_on_c, 0, 74, 0
1, 36210, Note_on_c, 0, 71, 0
1, 36240, Note_on_c, 0, 72, 100
1, 36240, Note_on_c, 0, 76, 100
1, 36240, Note_on_c, 0, 45, 100
1, 36270, Note_on_c, 0, 45, 0
1, 36270, Note_on_c, 0, 76, 0
1, 36270, Note_on_c, 0, 72, 0
1, 36300, Note_on_c, 0, 72, 100
1, 36300, Note_on_c, 0, 76, 100
1, 36300, Note_on_c, 0, 57, 100
1, 36330, Note_on_c, 0, 57, 0
1, 36330, Note_on_c, 0, 76, 0
1, 36330, Note_on_c, 0, 72, 0
1, 36360, Note_on_c, 0, 77, 100
1, 36360, Note_on_c, 0, 48, 100
1, 36390, Note_on_c, 0, 48, 0
1, 36390, Note_on_c, 0, 77, 0
1, 36390, Note_on_c, 0, 76, 100
1, 36420, Note_on_c, 0, 76, 0
1, 36420, Note_on_c, 0, 74, 100
1, 36420, Note_on_c, 0, 60, 100
1, 36450, Note_on_c, 0, 60, 0
1, 36450, Note_on_c, 0, 74, 0
1, 36450, Note_on_c, 0, 72, 100
1, 36480, Note_on_c, 0, 72, 0
1, 36480, Note_on_c, 0, 71, 100
1, 36480, Note_on_c, 0, 68, 100
1, 36480, Note_on_c, 0, 52, 100
1, 36600, Note_on_c, 0, 52, 0
1, 36600, Note_on_c, 0, 68, 0
1, 36600, Note_on_c, 0, 71, 0
1, 36600, Note_on_c, 0, 71, 100
1, 36630, Note_on_c, 0, 71, 0
1, 36630, Note_on_c, 0, 69, 100
1, 36660, Note_on_c, 0, 69, 0
1, 36660, Note_on_c, 0, 68, 100
1, 36690, Note_on_c, 0, 68, 0
1, 36690, Note_on_c, 0, 69, 100
1, 36720, Note_on_c, 0, 69, 0
1, 36720, Note_on_c, 0, 72, 100
1, 36720, Note_on_c, 0, 57, 100
1, 36750, Note_on_c, 0, 72, 0
1, 36780, Note_on_c, 0, 57, 0
1, 36780, Note_on_c, 0, 64, 100
1, 36780, Note_on_c, 0, 60, 100
1, 36810, Note_on_c, 0, 60, 0
1, 36810, Note_on_c, 0, 64, 0
1, 36840, Note_on_c, 0, 74, 100
1, 36840, Note_on_c, 0, 64, 100
1, 36840, Note_on_c, 0, 60, 100
1, 36870, Note_on_c, 0, 60, 0
1, 36870, Note_on_c, 0, 64, 0
1, 36870, Note_on_c, 0, 74, 0
1, 36870, Note_on_c, 0, 72, 100
1, 36900, Note_on_c, 0, 72, 0
1, 36900, Note_on_c, 0, 71, 100
1, 36900, Note_on_c, 0, 64, 100
1, 36900, Note_on_c, 0, 60, 100
1, 36930, Note_on_c, 0, 60, 0
1, 36930, Note_on_c, 0, 64, 0
1, 36930, Note_on_c, 0, 71, 0
1, 36930, Note_on_c, 0, 72, 100
1, 36960, Note_on_c, 0, 72, 0
1, 36960, Note_on_c, 0, 76, 100
1, 36960, Note_on_c, 0, 57, 100
1, 36990, Note_on_c, 0, 76, 0
1, 37020, Note_on_c, 0, 57, 0
1, 37020, Note_on_c, 0, 64, 100
1, 37020, Note_on_c, 0, 60, 100
1, 37050, Note_on_c, 0, 60, 0
1, 37050, Note_on_c, 0, 64, 0
1, 37080, Note_on_c, 0, 77, 100
1, 37080, Note_on_c, 0, 64, 100
1, 37080, Note_on_c, 0, 60, 100
1, 37110, Note_on_c, 0, 60, 0
1, 37110, Note_on_c, 0, 64, 0
1, 37110, Note_on_c, 0, 77, 0
1, 37110, Note_on_c, 0, 76, 100
1, 37140, Note_on_c, 0, 76, 0
1, 37140, Note_on_c, 0, 75, 100
1, 37140, Note_on_c, 0, 64, 100
1, 37140, Note_on_c, 0, 60, 100
1, 37170, Note_on_c, 0, 60, 0
1, 37170, Note_on_c, 0, 64, 0
1, 37170, Note_on_c, 0, 75, 0
1, 37170, Note_on_c, 0, 76, 100
1, 37200, Note_on_c, 0, 76, 0
1, 37200, Note_on_c, 0, 83, 100
1, 37200, Note_on_c, 0, 57, 100
1, 37230, Note_on_c, 0, 57, 0
1, 37230, Note_on_c, 0, 83, 0
1, 37230, Note_on_c, 0, 81, 100
1, 37260, Note_on_c, 0, 81, 0
1, 37260, Note_on_c, 0, 80, 100
1, 37260, Note_on_c, 0, 64, 100
1, 37260, Note_on_c, 0, 60, 100
1, 37290, Note_on_c, 0, 60, 0
1, 37290, Note_on_c, 0, 64, 0
1, 37290, Note_on_c, 0, 80, 0
1, 37290, Note_on_c, 0, 81, 100
1, 37320, Note_on_c, 0, 81, 0
1, 37320, Note_on_c, 0, 83, 100
1, 37320, Note_on_c, 0, 57, 100
1, 37350, Note_on_c, 0, 57, 0
1, 37350, Note_on_c, 0, 83, 0
1, 37350, Note_on_c, 0, 81, 100
1, 37380, Note_on_c, 0, 81, 0
1, 37380, Note_on_c, 0, 80, 100
1, 37380, Note_on_c, 0, 64, 100
1, 37380, Note_on_c, 0, 60, 100
1, 37410, Note_on_c, 0, 60, 0
1, 37410, Note_on_c, 0, 64, 0
1, 37410, Note_on_c, 0, 80, 0
1, 37410, Note_on_c, 0, 81, 100
1, 37440, Note_on_c, 0, 81, 0
1, 37440, Note_on_c, 0, 84, 100
1, 37440, Note_on_c, 0, 53, 100
1, 37500, Note_on_c, 0, 53, 0
1, 37500, Note_on_c, 0, 63, 100
1, 37500, Note_on_c, 0, 57, 100
1, 37530, Note_on_c, 0, 57, 0
1, 37530, Note_on_c, 0, 63, 0
1, 37560, Note_on_c, 0, 84, 0
1, 37560, Note_on_c, 0, 81, 100
1, 37560, Note_on_c, 0, 63, 100
1, 37560, Note_on_c, 0, 57, 100
1, 37590, Note_on_c, 0, 57, 0
1, 37590, Note_on_c, 0, 63, 0
1, 37590, Note_on_c, 0, 81, 0
1, 37620, Note_on_c, 0, 83, 100
1, 37620, Note_on_c, 0, 63, 100
1, 37620, Note_on_c, 0, 57, 100
1, 37650, Note_on_c, 0, 57, 0
1, 37650, Note_on_c, 0, 63, 0
1, 37650, Note_on_c, 0, 83, 0
1, 37680, Note_on_c, 0, 84, 100
1, 37680, Note_on_c, 0, 52, 100
1, 37710, Note_on_c, 0, 52, 0
1, 37710, Note_on_c, 0, 84, 0
1, 37740, Note_on_c, 0, 83, 100
1, 37740, Note_on_c, 0, 64, 100
1, 37740, Note_on_c, 0, 57, 100
1, 37770, Note_on_c, 0, 57, 0
1, 37770, Note_on_c, 0, 64, 0
1, 37770, Note_on_c, 0, 83, 0
1, 37800, Note_on_c, 0, 81, 100
1, 37800, Note_on_c, 0, 50, 100
1, 37830, Note_on_c, 0, 50, 0
1, 37830, Note_on_c, 0, 81, 0
1, 37860, Note_on_c, 0, 80, 100
1, 37860, Note_on_c, 0, 59, 100
1, 37860, Note_on_c, 0, 53, 100
1, 37890, Note_on_c, 0, 53, 0
1, 37890, Note_on_c, 0, 59, 0
1, 37890, Note_on_c, 0, 80, 0
1, 37920, Note_on_c, 0, 81, 100
1, 37920, Note_on_c, 0, 48, 100
1, 37950, Note_on_c, 0, 48, 0
1, 37950, Note_on_c, 0, 81, 0
1, 37980, Note_on_c, 0, 76, 100
1, 37980, Note_on_c, 0, 57, 100
1, 37980, Note_on_c, 0, 52, 100
1, 38010, Note_on_c, 0, 52, 0
1, 38010, Note_on_c, 0, 57, 0
1, 38010, Note_on_c, 0, 76, 0
1, 38040, Note_on_c, 0, 77, 100
1, 38040, Note_on_c, 0, 50, 100
1, 38070, Note_on_c, 0, 50, 0
1, 38070, Note_on_c, 0, 77, 0
1, 38100, Note_on_c, 0, 74, 100
1, 38100, Note_on_c, 0, 59, 100
1, 38100, Note_on_c, 0, 53, 100
1, 38130, Note_on_c, 0, 53, 0
1, 38130, Note_on_c, 0, 59, 0
1, 38130, Note_on_c, 0, 74, 0
1, 38160, Note_on_c, 0, 72, 100
1, 38160, Note_on_c, 0, 57, 100
1, 38160, Note_on_c, 0, 52, 100
1, 38190, Note_on_c, 0, 52, 0
1, 38190, Note_on_c, 0, 57, 0
1, 38220, Note_on_c, 0, 57, 100
1, 38220, Note_on_c, 0, 52, 100
1, 38250, Note_on_c, 0, 52, 0
1, 38250, Note_on_c, 0, 57, 0
1, 38280, Note_on_c, 0, 72, 0
1, 38280, Note_on_c, 0, 71, 100
1, 38280, Note_on_c, 0, 56, 100
1, 38280, Note_on_c, 0, 52, 100
1, 38295, Note_on_c, 0, 71, 0
1, 38295, Note_on_c, 0, 72, 100
1, 38310, Note_on_c, 0, 72, 0
1, 38310, Note_on_c, 0, 52, 0
1, 38310, Note_on_c, 0, 56, 0
1, 38310, Note_on_c, 0, 71, 100
1, 38325, Note_on_c, 0, 71, 0
1, 38325, Note_on_c, 0, 72, 100
1, 38340, Note_on_c, 0, 72, 0
1, 38340, Note_on_c, 0, 71, 100
1, 38340, Note_on_c, 0, 56, 100
1, 38340, Note_on_c, 0, 52, 100
1, 38355, Note_on_c, 0, 71, 0
1, 38355, Note_on_c, 0, 72, 100
1, 38370, Note_on_c, 0, 72, 0
1, 38370, Note_on_c, 0, 52, 0
1, 38370, Note_on_c, 0, 56, 0
1, 38370, Note_on_c, 0, 69, 100
1, 38385, Note_on_c, 0, 69, 0
1, 38385, Note_on_c, 0, 71, 100
1, 38400, Note_on_c, 0, 71, 0
1, 38400, Note_on_c, 0, 69, 100
1, 38400, Note_on_c, 0, 57, 100
1, 38400, Note_on_c, 0, 45, 100
1, 38520, Note_on_c, 0, 45, 0
1, 38520, Note_on_c, 0, 57, 0
1, 38520, Note_on_c, 0, 69, 0
1, 38520, Note_on_c, 0, 72, 100
1, 38520, Note_on_c, 0, 76, 100
1, 38550, Note_on_c, 0, 76, 0
1, 38550, Note_on_c, 0, 72, 0
1, 38580, Note_on_c, 0, 74, 100
1, 38580, Note_on_c, 0, 77, 100
1, 38610, Note_on_c, 0, 77, 0
1, 38610, Note_on_c, 0, 74, 0
1, 38640, Note_on_c, 0, 79, 100
1, 38640, Note_on_c, 0, 76, 100
1, 38640, Note_on_c, 0, 48, 100
1, 38670, Note_on_c, 0, 48, 0
1, 38670, Note_on_c, 0, 76, 0
1, 38670, Note_on_c, 0, 79, 0
1, 38700, Note_on_c, 0, 76, 100
1, 38700, Note_on_c, 0, 79, 100
1, 38700, Note_on_c, 0, 60, 100
1, 38730, Note_on_c, 0, 60, 0
1, 38730, Note_on_c, 0, 79, 0
1, 38730, Note_on_c, 0, 76, 0
1, 38760, Note_on_c, 0, 81, 100
1, 38760, Note_on_c, 0, 52, 100
1, 38790, Note_on_c, 0, 52, 0
1, 38790, Note_on_c, 0, 81, 0
1, 38790, Note_on_c, 0, 79, 100
1, 38820, Note_on_c, 0, 79, 0
1, 38820, Note_on_c, 0, 77, 100
1, 38820, Note_on_c, 0, 64, 100
1, 38850, Note_on_c, 0, 64, 0
1, 38850, Note_on_c, 0, 77, 0
1, 38850, Note_on_c, 0, 76, 100
1, 38880, Note_on_c, 0, 76, 0
1, 38880, Note_on_c, 0, 71, 100
1, 38880, Note_on_c, 0, 74, 100
1, 38880, Note_on_c, 0, 55, 100
1, 38940, Note_on_c, 0, 71, 0
1, 38940, Note_on_c, 0, 67, 100
1, 39000, Note_on_c, 0, 67, 0
1, 39000, Note_on_c, 0, 55, 0
1, 39000, Note_on_c, 0, 74, 0
1, 39000, Note_on_c, 0, 72, 100
1, 39000, Note_on_c, 0, 76, 100
1, 39030, Note_on_c, 0, 76, 0
1, 39030, Note_on_c, 0, 72, 0
1, 39060, Note_on_c, 0, 77, 100
1, 39060, Note_on_c, 0, 74, 100
1, 39090, Note_on_c, 0, 74, 0
1, 39090, Note_on_c, 0, 77, 0
1, 39120, Note_on_c, 0, 79, 100
1, 39120, Note_on_c, 0, 76, 100
1, 39120, Note_on_c, 0, 48, 100
1, 39150, Note_on_c, 0, 48, 0
1, 39150, Note_on_c, 0, 76, 0
1, 39150, Note_on_c, 0, 79, 0
1, 39180, Note_on_c, 0, 76, 100
1, 39180, Note_on_c, 0, 79, 100
1, 39180, Note_on_c, 0, 60, 100
1, 39210, Note_on_c, 0, 60, 0
1, 39210, Note_on_c, 0, 79, 0
1, 39210, Note_on_c, 0, 76, 0
1, 39240, Note_on_c, 0, 81, 100
1, 39240, Note_on_c, 0, 52, 100
1, 39270, Note_on_c, 0, 52, 0
1, 39270, Note_on_c, 0, 81, 0
1, 39270, Note_on_c, 0, 79, 100
1, 39300, Note_on_c, 0, 79, 0
1, 39300, Note_on_c, 0, 77, 100
1, 39300, Note_on_c, 0, 64, 100
1, 39330, Note_on_c, 0, 64, 0
1, 39330, Note_on_c, 0, 77, 0
1, 39330, Note_on_c, 0, 76, 100
1, 39360, Note_on_c, 0, 76, 0
1, 39360, Note_on_c, 0, 71, 100
1, 39360, Note_on_c, 0, 74, 100
1, 39360, Note_on_c, 0, 55, 100
1, 39480, Note_on_c, 0, 55, 0
1, 39480, Note_on_c, 0, 74, 0
1, 39480, Note_on_c, 0, 71, 0
1, 39480, Note_on_c, 0, 69, 100
1, 39480, Note_on_c, 0, 72, 100
1, 39510, Note_on_c, 0, 72, 0
1, 39510, Note_on_c, 0, 69, 0
1, 39540, Note_on_c, 0, 71, 100
1, 39540, Note_on_c, 0, 74, 100
1, 39570, Note_on_c, 0, 74, 0
1, 39570, Note_on_c, 0, 71, 0
1, 39600, Note_on_c, 0, 72, 100
1, 39600, Note_on_c, 0, 76, 100
1, 39600, Note_on_c, 0, 45, 100
1, 39630, Note_on_c, 0, 45, 0
1, 39630, Note_on_c, 0, 76, 0
1, 39630, Note_on_c, 0, 72, 0
1, 39660, Note_on_c, 0, 72, 100
1, 39660, Note_on_c, 0, 76, 100
1, 39660, Note_on_c, 0, 57, 100
1, 39690, Note_on_c, 0, 57, 0
1, 39690, Note_on_c, 0, 76, 0
1, 39690, Note_on_c, 0, 72, 0
1, 39720, Note_on_c, 0, 77, 100
1, 39720, Note_on_c, 0, 48, 100
1, 39750, Note_on_c, 0, 48, 0
1, 39750, Note_on_c, 0, 77, 0
1, 39750, Note_on_c, 0, 76, 100
1, 39780, Note_on_c, 0, 76, 0
1, 39780, Note_on_c, 0, 74, 100
1, 39780, Note_on_c, 0, 60, 100
1, 39810, Note_on_c, 0, 60, 0
1, 39810, Note_on_c, 0, 74, 0
1, 39810, Note_on_c, 0, 72, 100
1, 39840, Note_on_c, 0, 72, 0
1, 39840, Note_on_c, 0, 68, 100
1, 39840, Note_on_c, 0, 71, 100
1, 39840, Note_on_c, 0, 52, 100
1, 39900, Note_on_c, 0, 68, 0
1, 39900, Note_on_c, 0, 64, 100
1, 39960, Note_on_c, 0, 64, 0
1, 39960, Note_on_c, 0, 52, 0
1, 39960, Note_on_c, 0, 71, 0
1, 39960, Note_on_c, 0, 69, 100
1, 39960, Note_on_c, 0, 72, 100
1, 39990, Note_on_c, 0, 72, 0
1, 39990, Note_on_c, 0, 69, 0
1, 40020, Note_on_c, 0, 71, 100
1, 40020, Note_on_c, 0, 74, 100
1, 40050, Note_on_c, 0, 74, 0
1, 40050, Note_on_c, 0, 71, 0
1, 40080, Note_on_c, 0, 72, 100
1, 40080, Note_on_c, 0, 76, 100
1, 40080, Note_on_c, 0, 45, 100
1, 40110, Note_on_c, 0, 45, 0
1, 40110, Note_on_c, 0, 76, 0
1, 40110, Note_on_c, 0, 72, 0
1, 40140, Note_on_c, 0, 72, 100
1, 40140, Note_on_c, 0, 76, 100
1, 40140, Note_on_c, 0, 57, 100
1, 40170, Note_on_c, 0, 57, 0
1, 40170, Note_on_c, 0, 76, 0
1, 40170, Note_on_c, 0, 72, 0
1, 40200, Note_on_c, 0, 77, 100
1, 40200, Note_on_c, 0, 48, 100
1, 40230, Note_on_c, 0, 48, 0
1, 40230, Note_on_c, 0, 77, 0
1, 40230, Note_on_c, 0, 76, 100
1, 40260, Note_on_c, 0, 76, 0
1, 40260, Note_on_c, 0, 74, 100
1, 40260, Note_on_c, 0, 60, 100
1, 40290, Note_on_c, 0, 60, 0
1, 40290, Note_on_c, 0, 74, 0
1, 40290, Note_on_c, 0, 72, 100
1, 40320, Note_on_c, 0, 72, 0
1, 40320, Note_on_c, 0, 71, 100
1, 40320, Note_on_c, 0, 68, 100
1, 40320, Note_on_c, 0, 52, 100
1, 40440, Note_on_c, 0, 52, 0
1, 40440, Note_on_c, 0, 68, 0
1, 40440, Note_on_c, 0, 71, 0
1, 40440, Note_on_c, 0, 71, 100
1, 40470, Note_on_c, 0, 71, 0
1, 40470, Note_on_c, 0, 69, 100
1, 40500, Note_on_c, 0, 69, 0
1, 40500, Note_on_c, 0, 68, 100
1, 40530, Note_on_c, 0, 68, 0
1, 40530, Note_on_c, 0, 69, 100
1, 40560, Note_on_c, 0, 69, 0
1, 40560, Note_on_c, 0, 72, 100
1, 40560, Note_on_c, 0, 57, 100
1, 40590, Note_on_c, 0, 72, 0
1, 40620, Note_on_c, 0, 57, 0
1, 40620, Note_on_c, 0, 64, 100
1, 40620, Note_on_c, 0, 60, 100
1, 40650, Note_on_c, 0, 60, 0
1, 40650, Note_on_c, 0, 64, 0
1, 40680, Note_on_c, 0, 74, 100
1, 40680, Note_on_c, 0, 64, 100
1, 40680, Note_on_c, 0, 60, 100
1, 40710, Note_on_c, 0, 60, 0
1, 40710, Note_on_c, 0, 64, 0
1, 40710, Note_on_c, 0, 74, 0
1, 40710, Note_on_c, 0, 72, 100
1, 40740, Note_on_c, 0, 72, 0
1, 40740, Note_on_c, 0, 71, 100
1, 40740, Note_on_c, 0, 64, 100
1, 40740, Note_on_c, 0, 60, 100
1, 40770, Note_on_c, 0, 60, 0
1, 40770, Note_on_c, 0, 64, 0
1, 40770, Note_on_c, 0, 71, 0
1, 40770, Note_on_c, 0, 72, 100
1, 40800, Note_on_c, 0, 72, 0
1, 40800, Note_on_c, 0, 76, 100
1, 40800, Note_on_c, 0, 57, 100
1, 40830, Note_on_c, 0, 76, 0
1, 40860, Note_on_c, 0, 57, 0
1, 40860, Note_on_c, 0, 64, 100
1, 40860, Note_on_c, 0, 60, 100
1, 40890, Note_on_c, 0, 60, 0
1, 40890, Note_on_c, 0, 64, 0
1, 40920, Note_on_c, 0, 77, 100
1, 40920, Note_on_c, 0, 64, 100
1, 40920, Note_on_c, 0, 60, 100
1, 40950, Note_on_c, 0, 60, 0
1, 40950, Note_on_c, 0, 64, 0
1, 40950, Note_on_c, 0, 77, 0
1, 40950, Note_on_c, 0, 76, 100
1, 40980, Note_on_c, 0, 76, 0
1, 40980, Note_on_c, 0, 75, 100
1, 40980, Note_on_c, 0, 64, 100
1, 40980, Note_on_c, 0, 60, 100
1, 41010, Note_on_c, 0, 60, 0
1, 41010, Note_on_c, 0, 64, 0
1, 41010, Note_on_c, 0, 75, 0
1, 41010, Note_on_c, 0, 76, 100
1, 41040, Note_on_c, 0, 76, 0
1, 41040, Note_on_c, 0, 83, 100
1, 41040, Note_on_c, 0, 57, 100
1, 41070, Note_on_c, 0, 57, 0
1, 41070, Note_on_c, 0, 83, 0
1, 41070, Note_on_c, 0, 81, 100
1, 41100, Note_on_c, 0, 81, 0
1, 41100, Note_on_c, 0, 80, 100
1, 41100, Note_on_c, 0, 64, 100
1, 41100, Note_on_c, 0, 60, 100
1, 41130, Note_on_c, 0, 60, 0
1, 41130, Note_on_c, 0, 64, 0
1, 41130, Note_on_c, 0, 80, 0
1, 41130, Note_on_c, 0, 81, 100
1, 41160, Note_on_c, 0, 81, 0
1, 41160, Note_on_c, 0, 83, 100
1, 41160, Note_on_c, 0, 57, 100
1, 41190, Note_on_c, 0, 57, 0
1, 41190, Note_on_c, 0, 83, 0
1, 41190, Note_on_c, 0, 81, 100
1, 41220, Note_on_c, 0, 81, 0
1, 41220, Note_on_c, 0, 80, 100
1, 41220, Note_on_c, 0, 64, 100
1, 41220, Note_on_c, 0, 60, 100
1, 41250, Note_on_c, 0, 60, 0
1, 41250, Note_on_c, 0, 64, 0
1, 41250, Note_on_c, 0, 80, 0
1, 41250, Note_on_c, 0, 81, 100
1, 41280, Note_on_c, 0, 81, 0
1, 41280, Note_on_c, 0, 84, 100
1, 41280, Note_on_c, 0, 53, 100
1, 41340, Note_on_c, 0, 53, 0
1, 41340, Note_on_c, 0, 63, 100
1, 41340, Note_on_c, 0, 57, 100
1, 41370, Note_on_c, 0, 57, 0
1, 41370, Note_on_c, 0, 63, 0
1, 41400, Note_on_c, 0, 84, 0
1, 41400, Note_on_c, 0, 81, 100
1, 41400, Note_on_c, 0, 63, 100
1, 41400, Note_on_c, 0, 57, 100
1, 41430, Note_on_c, 0, 57, 0
1, 41430, Note_on_c, 0, 63, 0
1, 41430, Note_on_c, 0, 81, 0
1, 41460, Note_on_c, 0, 83, 100
1, 41460, Note_on_c, 0, 63, 100
1, 41460, Note_on_c, 0, 57, 100
1, 41490, Note_on_c, 0, 57, 0
1, 41490, Note_on_c, 0, 63, 0
1, 41490, Note_on_c, 0, 83, 0
1, 41520, Note_on_c, 0, 84, 100
1, 41520, Note_on_c, 0, 52, 100
1, 41550, Note_on_c, 0, 52, 0
1, 41550, Note_on_c, 0, 84, 0
1, 41580, Note_on_c, 0, 83, 100
1, 41580, Note_on_c, 0, 64, 100
1, 41580, Note_on_c, 0, 57, 100
1, 41610, Note_on_c, 0, 57, 0
1, 41610, Note_on_c, 0, 64, 0
1, 41610, Note_on_c, 0, 83, 0
1, 41640, Note_on_c, 0, 81, 100
1, 41640, Note_on_c, 0, 50, 100
1, 41670, Note_on_c, 0, 50, 0
1, 41670, Note_on_c, 0, 81, 0
1, 41700, Note_on_c, 0, 80, 100
1, 41700, Note_on_c, 0, 59, 100
1, 41700, Note_on_c, 0, 53, 100
1, 41730, Note_on_c, 0, 53, 0
1, 41730, Note_on_c, 0, 59, 0
1, 41730, Note_on_c, 0, 80, 0
1, 41760, Note_on_c, 0, 81, 100
1, 41760, Note_on_c, 0, 48, 100
1, 41790, Note_on_c, 0, 48, 0
1, 41790, Note_on_c, 0, 81, 0
1, 41820, Note_on_c, 0, 76, 100
1, 41820, Note_on_c, 0, 57, 100
1, 41820, Note_on_c, 0, 52, 100
1, 41850, Note_on_c, 0, 52, 0
1, 41850, Note_on_c, 0, 57, 0
1, 41850, Note_on_c, 0, 76, 0
1, 41880, Note_on_c, 0, 77, 100
1, 41880, Note_on_c, 0, 50, 100
1, 41910, Note_on_c, 0, 50, 0
1, 41910, Note_on_c, 0, 77, 0
1, 41940, Note_on_c, 0, 74, 100
1, 41940, Note_on_c, 0, 59, 100
1, 41940, Note_on_c, 0, 53, 100
1, 41970, Note_on_c, 0, 53, 0
1, 41970, Note_on_c, 0, 59, 0
1, 41970, Note_on_c, 0, 74, 0
1, 42000, Note_on_c, 0, 72, 100
1, 42000, Note_on_c, 0, 57, 100
1, 42000, Note_on_c, 0, 52, 100
1, 42030, Note_on_c, 0, 52, 0
1, 42030, Note_on_c, 0, 57, 0
1, 42060, Note_on_c, 0, 57, 100
1, 42060, Note_on_c, 0, 52, 100
1, 42090, Note_on_c, 0, 52, 0
1, 42090, Note_on_c, 0, 57, 0
1, 42120, Note_on_c, 0, 72, 0
1, 42120, Note_on_c, 0, 71, 100
1, 42120, Note_on_c, 0, 56, 100
1, 42120, Note_on_c, 0, 52, 100
1, 42135, Note_on_c, 0, 71, 0
1, 42135, Note_on_c, 0, 72, 100
1, 42150, Note_on_c, 0, 72, 0
1, 42150, Note_on_c, 0, 52, 0
1, 42150, Note_on_c, 0, 56, 0
1, 42150, Note_on_c, 0, 71, 100
1, 42165, Note_on_c, 0, 71, 0
1, 42165, Note_on_c, 0, 72, 100
1, 42180, Note_on_c, 0, 72, 0
1, 42180, Note_on_c, 0, 71, 100
1, 42180, Note_on_c, 0, 56, 100
1, 42180, Note_on_c, 0, 52, 100
1, 42195, Note_on_c, 0, 71, 0
1, 42195, Note_on_c, 0, 72, 100
1, 42210, Note_on_c, 0, 72, 0
1, 42210, Note_on_c, 0, 52, 0
1, 42210, Note_on_c, 0, 56, 0
1, 42210, Note_on_c, 0, 69, 100
1, 42225, Note_on_c, 0, 69, 0
1, 42225, Note_on_c, 0, 71, 100
1, 42240, Key_signature, 3, "major"
1, 42240, Note_on_c, 0, 71, 0
1, 42240, Note_on_c, 0, 69, 100
1, 42240, Note_on_c, 0, 57, 100
1, 42240, Note_on_c, 0, 45, 100
1, 42360, Note_on_c, 0, 45, 0
1, 42360, Note_on_c, 0, 57, 0
1, 42360, Note_on_c, 0, 69, 0
1, 42360, Note_on_c, 0, 69, 100
1, 42390, Note_on_c, 0, 69, 0
1, 42390, Note_on_c, 0, 81, 100
1, 42420, Note_on_c, 0, 81, 0
1, 42420, Note_on_c, 0, 71, 100
1, 42450, Note_on_c, 0, 71, 0
1, 42450, Note_on_c, 0, 83, 100
1, 42480, Note_on_c, 0, 83, 0
1, 42480, Note_on_c, 0, 73, 100
1, 42480, Note_on_c, 0, 45, 100
1, 42487, Note_on_c, 0, 45, 0
1, 42487, Note_on_c, 0, 49, 100
1, 42495, Note_on_c, 0, 49, 0
1, 42495, Note_on_c, 0, 52, 100
1, 42502, Note_on_c, 0, 52, 0
1, 42502, Note_on_c, 0, 57, 100
1, 42510, Note_on_c, 0, 73, 0
1, 42510, Note_on_c, 0, 85, 100
1, 42517, Note_on_c, 0, 57, 0
1, 42540, Note_on_c, 0, 85, 0
1, 42540, Note_on_c, 0, 57, 100
1, 42570, Note_on_c, 0, 57, 0
1, 42600, Note_on_c, 0, 69, 100
1, 42600, Note_on_c, 0, 57, 100
1, 42630, Note_on_c, 0, 57, 0
1, 42630, Note_on_c, 0, 69, 0
1, 42630, Note_on_c, 0, 81, 100
1, 42660, Note_on_c, 0, 81, 0
1, 42660, Note_on_c, 0, 71, 100
1, 42660, Note_on_c, 0, 57, 100
1, 42690, Note_on_c, 0, 57, 0
1, 42690, Note_on_c, 0, 71, 0
1, 42690, Note_on_c, 0, 83, 100
1, 42720, Note_on_c, 0, 83, 0
1, 42720, Note_on_c, 0, 73, 100
1, 42720, Note_on_c, 0, 45, 100
1, 42727, Note_on_c, 0, 45, 0
1, 42727, Note_on_c, 0, 49, 100
1, 42735, Note_on_c, 0, 49, 0
1, 42735, Note_on_c, 0, 52, 100
1, 42742, Note_on_c, 0, 52, 0
1, 42742, Note_on_c, 0, 57, 100
1, 42750, Note_on_c, 0, 73, 0
1, 42750, Note_on_c, 0, 85, 100
1, 42757, Note_on_c, 0, 57, 0
1, 42780, Note_on_c, 0, 85, 0
1, 42780, Note_on_c, 0, 71, 100
1, 42780, Note_on_c, 0, 57, 100
1, 42810, Note_on_c, 0, 57, 0
1, 42810, Note_on_c, 0, 71, 0
1, 42810, Note_on_c, 0, 83, 100
1, 42840, Note_on_c, 0, 83, 0
1, 42840, Note_on_c, 0, 69, 100
1, 42840, Note_on_c, 0, 57, 100
1, 42870, Note_on_c, 0, 57, 0
1, 42870, Note_on_c, 0, 69, 0
1, 42870, Note_on_c, 0, 81, 100
1, 42900, Note_on_c, 0, 81, 0
1, 42900, Note_on_c, 0, 68, 100
1, 42900, Note_on_c, 0, 57, 100
1, 42930, Note_on_c, 0, 57, 0
1, 42930, Note_on_c, 0, 68, 0
1, 42930, Note_on_c, 0, 80, 100
1, 42960, Note_on_c, 0, 80, 0
1, 42960, Note_on_c, 0, 66, 100
1, 42960, Note_on_c, 0, 38, 100
1, 42967, Note_on_c, 0, 38, 0
1, 42967, Note_on_c, 0, 42, 100
1, 42975, Note_on_c, 0, 42, 0
1, 42975, Note_on_c, 0, 45, 100
1, 42982, Note_on_c, 0, 45, 0
1, 42982, Note_on_c, 0, 50, 100
1, 42990, Note_on_c, 0, 66, 0
1, 42990, Note_on_c, 0, 78, 100
1, 42997, Note_on_c, 0, 50, 0
1, 43020, Note_on_c, 0, 78, 0
1, 43020, Note_on_c, 0, 68, 100
1, 43020, Note_on_c, 0, 50, 100
1, 43050, Note_on_c, 0, 50, 0
1, 43050, Note_on_c, 0, 68, 0
1, 43050, Note_on_c, 0, 80, 100
1, 43080, Note_on_c, 0, 80, 0
1, 43080, Note_on_c, 0, 69, 100
1, 43080, Note_on_c, 0, 39, 100
1, 43087, Note_on_c, 0, 39, 0
1, 43087, Note_on_c, 0, 42, 100
1, 43095, Note_on_c, 0, 42, 0
1, 43095, Note_on_c, 0, 45, 100
1, 43102, Note_on_c, 0, 45, 0
1, 43102, Note_on_c, 0, 51, 100
1, 43110, Note_on_c, 0, 69, 0
1, 43110, Note_on_c, 0, 81, 100
1, 43117, Note_on_c, 0, 51, 0
1, 43140, Note_on_c, 0, 81, 0
1, 43140, Note_on_c, 0, 71, 100
1, 43140, Note_on_c, 0, 51, 100
1, 43170, Note_on_c, 0, 51, 0
1, 43170, Note_on_c, 0, 71, 0
1, 43170, Note_on_c, 0, 83, 100
1, 43200, Note_on_c, 0, 83, 0
1, 43200, Note_on_c, 0, 68, 100
1, 43200, Note_on_c, 0, 40, 100
1, 43207, Note_on_c, 0, 40, 0
1, 43207, Note_on_c, 0, 44, 100
1, 43215, Note_on_c, 0, 44, 0
1, 43215, Note_on_c, 0, 47, 100
1, 43222, Note_on_c, 0, 47, 0
1, 43222, Note_on_c, 0, 52, 100
1, 43230, Note_on_c, 0, 68, 0
1, 43230, Note_on_c, 0, 80, 100
1, 43237, Note_on_c, 0, 52, 0
1, 43260, Note_on_c, 0, 80, 0
1, 43260, Note_on_c, 0, 64, 100
1, 43260, Note_on_c, 0, 52, 100
1, 43290, Note_on_c, 0, 52, 0
1, 43290, Note_on_c, 0, 64, 0
1, 43290, Note_on_c, 0, 76, 100
1, 43320, Note_on_c, 0, 76, 0
1, 43320, Note_on_c, 0, 69, 100
1, 43320, Note_on_c, 0, 52, 100
1, 43350, Note_on_c, 0, 52, 0
1, 43350, Note_on_c, 0, 69, 0
1, 43350, Note_on_c, 0, 81, 100
1, 43380, Note_on_c, 0, 81, 0
1, 43380, Note_on_c, 0, 71, 100
1, 43380, Note_on_c, 0, 52, 100
1, 43410, Note_on_c, 0, 52, 0
1, 43410, Note_on_c, 0, 71, 0
1, 43410, Note_on_c, 0, 83, 100
1, 43440, Note_on_c, 0, 83, 0
1, 43440, Note_on_c, 0, 73, 100
1, 43440, Note_on_c, 0, 45, 100
1, 43447, Note_on_c, 0, 45, 0
1, 43447, Note_on_c, 0, 49, 100
1, 43455, Note_on_c, 0, 49, 0
1, 43455, Note_on_c, 0, 52, 100
1, 43462, Note_on_c, 0, 52, 0
1, 43462, Note_on_c, 0, 57, 100
1, 43470, Note_on_c, 0, 73, 0
1, 43470, Note_on_c, 0, 85, 100
1, 43477, Note_on_c, 0, 57, 0
1, 43500, Note_on_c, 0, 85, 0
1, 43500, Note_on_c, 0, 57, 100
1, 43530, Note_on_c, 0, 57, 0
1, 43560, Note_on_c, 0, 69, 100
1, 43560, Note_on_c, 0, 57, 100
1, 43590, Note_on_c, 0, 57, 0
1, 43590, Note_on_c, 0, 69, 0
1, 43590, Note_on_c, 0, 81, 100
1, 43620, Note_on_c, 0, 81, 0
1, 43620, Note_on_c, 0, 71, 100
1, 43620, Note_on_c, 0, 57, 100
1, 43650, Note_on_c, 0, 57, 0
1, 43650, Note_on_c, 0, 71, 0
1, 43650, Note_on_c, 0, 83, 100
1, 43680, Note_on_c, 0, 83, 0
1, 43680, Note_on_c, 0, 73, 100
1, 43680, Note_on_c, 0, 45, 100
1, 43687, Note_on_c, 0, 45, 0
1, 43687, Note_on_c, 0, 49, 100
1, 43695, Note_on_c, 0, 49, 0
1, 43695, Note_on_c, 0, 52, 100
1, 43702, Note_on_c, 0, 52, 0
1, 43702, Note_on_c, 0, 57, 100
1, 43710, Note_on_c, 0, 73, 0
1, 43710, Note_on_c, 0, 85, 100
1, 43717, Note_on_c, 0, 57, 0
1, 43740, Note_on_c, 0, 85, 0
1, 43740, Note_on_c, 0, 71, 100
1, 43740, Note_on_c, 0, 57, 100
1, 43770, Note_on_c, 0, 57, 0
1, 43770, Note_on_c, 0, 71, 0
1, 43770, Note_on_c, 0, 83, 100
1, 43800, Note_on_c, 0, 83, 0
1, 43800, Note_on_c, 0, 69, 100
1, 43800, Note_on_c, 0, 57, 100
1, 43830, Note_on_c, 0, 57, 0
1, 43830, Note_on_c, 0, 69, 0
1, 43830, Note_on_c, 0, 81, 100
1, 43860, Note_on_c, 0, 81, 0
1, 43860, Note_on_c, 0, 68, 100
1, 43860, Note_on_c, 0, 57, 100
1, 43890, Note_on_c, 0, 57, 0
1, 43890, Note_on_c, 0, 68, 0
1, 43890, Note_on_c, 0, 80, 100
1, 43920, Note_on_c, 0, 80, 0
1, 43920, Note_on_c, 0, 66, 100
1, 43920, Note_on_c, 0, 38, 100
1, 43927, Note_on_c, 0, 38, 0
1, 43927, Note_on_c, 0, 42, 100
1, 43935, Note_on_c, 0, 42, 0
1, 43935, Note_on_c, 0, 45, 100
1, 43942, Note_on_c, 0, 45, 0
1, 43942, Note_on_c, 0, 50, 100
1, 43950, Note_on_c, 0, 66, 0
1, 43950, Note_on_c, 0, 78, 100
1, 43957, Note_on_c, 0, 50, 0
1, 43980, Note_on_c, 0, 78, 0
1, 43980, Note_on_c, 0, 71, 100
1, 43980, Note_on_c, 0, 50, 100
1, 44010, Note_on_c, 0, 50, 0
1, 44010, Note_on_c, 0, 71, 0
1, 44010, Note_on_c, 0, 83, 100
1, 44040, Note_on_c, 0, 83, 0
1, 44040, Note_on_c, 0, 68, 100
1, 44040, Note_on_c, 0, 40, 100
1, 44047, Note_on_c, 0, 40, 0
1, 44047, Note_on_c, 0, 44, 100
1, 44055, Note_on_c, 0, 44, 0
1, 44055, Note_on_c, 0, 47, 100
1, 44062, Note_on_c, 0, 47, 0
1, 44062, Note_on_c, 0, 52, 100
1, 44070, Note_on_c, 0, 68, 0
1, 44070, Note_on_c, 0, 80, 100
1, 44077, Note_on_c, 0, 52, 0
1, 44100, Note_on_c, 0, 80, 0
1, 44100, Note_on_c, 0, 64, 100
1, 44100, Note_on_c, 0, 52, 100
1, 44130, Note_on_c, 0, 52, 0
1, 44130, Note_on_c, 0, 64, 0
1, 44130, Note_on_c, 0, 76, 100
1, 44160, Note_on_c, 0, 76, 0
1, 44160, Note_on_c, 0, 81, 100
1, 44160, Note_on_c, 0, 69, 100
1, 44160, Note_on_c, 0, 45, 100
1, 44280, Note_on_c, 0, 45, 0
1, 44280, Note_on_c, 0, 69, 0
1, 44280, Note_on_c, 0, 81, 0
1, 44280, Note_on_c, 0, 69, 100
1, 44310, Note_on_c, 0, 69, 0
1, 44310, Note_on_c, 0, 81, 100
1, 44340, Note_on_c, 0, 81, 0
1, 44340, Note_on_c, 0, 71, 100
1, 44370, Note_on_c, 0, 71, 0
1, 44370, Note_on_c, 0, 83, 100
1, 44400, Note_on_c, 0, 83, 0
1, 44400, Note_on_c, 0, 73, 100
1, 44400, Note_on_c, 0, 45, 100
1, 44407, Note_on_c, 0, 45, 0
1, 44407, Note_on_c, 0, 49, 100
1, 44415, Note_on_c, 0, 49, 0
1, 44415, Note_on_c, 0, 52, 100
1, 44422, Note_on_c, 0, 52, 0
1, 44422, Note_on_c, 0, 57, 100
1, 44430, Note_on_c, 0, 73, 0
1, 44430, Note_on_c, 0, 85, 100
1, 44437, Note_on_c, 0, 57, 0
1, 44460, Note_on_c, 0, 85, 0
1, 44460, Note_on_c, 0, 57, 100
1, 44490, Note_on_c, 0, 57, 0
1, 44520, Note_on_c, 0, 69, 100
1, 44520, Note_on_c, 0, 57, 100
1, 44550, Note_on_c, 0, 57, 0
1, 44550, Note_on_c, 0, 69, 0
1, 44550, Note_on_c, 0, 81, 100
1, 44580, Note_on_c, 0, 81, 0
1, 44580, Note_on_c, 0, 71, 100
1, 44580, Note_on_c, 0, 57, 100
1, 44610, Note_on_c, 0, 57, 0
1, 44610, Note_on_c, 0, 71, 0
1, 44610, Note_on_c, 0, 83, 100
1, 44640, Note_on_c, 0, 83, 0
1, 44640, Note_on_c, 0, 73, 100
1, 44640, Note_on_c, 0, 45, 100
1, 44647, Note_on_c, 0, 45, 0
1, 44647, Note_on_c, 0, 49, 100
1, 44655, Note_on_c, 0, 49, 0
1, 44655, Note_on_c, 0, 52, 100
1, 44662, Note_on_c, 0, 52, 0
1, 44662, Note_on_c, 0, 57, 100
1, 44670, Note_on_c, 0, 73, 0
1, 44670, Note_on_c, 0, 85, 100
1, 44677, Note_on_c, 0, 57, 0
1, 44700, Note_on_c, 0, 85, 0
1, 44700, Note_on_c, 0, 71, 100
1, 44700, Note_on_c, 0, 57, 100
1, 44730, Note_on_c, 0, 57, 0
1, 44730, Note_on_c, 0, 71, 0
1, 44730, Note_on_c, 0, 83, 100
1, 44760, Note_on_c, 0, 83, 0
1, 44760, Note_on_c, 0, 69, 100
1, 44760, Note_on_c, 0, 57, 100
1, 44790, Note_on_c, 0, 57, 0
1, 44790, Note_on_c, 0, 69, 0
1, 44790, Note_on_c, 0, 81, 100
1, 44820, Note_on_c, 0, 81, 0
1, 44820, Note_on_c, 0, 68, 100
1, 44820, Note_on_c, 0, 57, 100
1, 44850, Note_on_c, 0, 57, 0
1, 44850, Note_on_c, 0, 68, 0
1, 44850, Note_on_c, 0, 80, 100
1, 44880, Note_on_c, 0, 80, 0
1, 44880, Note_on_c, 0, 66, 100
1, 44880, Note_on_c, 0, 38, 100
1, 44887, Note_on_c, 0, 38, 0
1, 44887, Note_on_c, 0, 42, 100
1, 44895, Note_on_c, 0, 42, 0
1, 44895, Note_on_c, 0, 45, 100
1, 44902, Note_on_c, 0, 45, 0
1, 44902, Note_on_c, 0, 50, 100
1, 44910, Note_on_c, 0, 66, 0
1, 44910, Note_on_c, 0, 78, 100
1, 44917, Note_on_c, 0, 50, 0
1, 44940, Note_on_c, 0, 78, 0
1, 44940, Note_on_c, 0, 68, 100
1, 44940, Note_on_c, 0, 50, 100
1, 44970, Note_on_c, 0, 50, 0
1, 44970, Note_on_c, 0, 68, 0
1, 44970, Note_on_c, 0, 80, 100
1, 45000, Note_on_c, 0, 80, 0
1, 45000, Note_on_c, 0, 69, 100
1, 45000, Note_on_c, 0, 39, 100
1, 45007, Note_on_c, 0, 39, 0
1, 45007, Note_on_c, 0, 42, 100
1, 45015, Note_on_c, 0, 42, 0
1, 45015, Note_on_c, 0, 45, 100
1, 45022, Note_on_c, 0, 45, 0
1, 45022, Note_on_c, 0, 51, 100
1, 45030, Note_on_c, 0, 69, 0
1, 45030, Note_on_c, 0, 81, 100
1, 45037, Note_on_c, 0, 51, 0
1, 45060, Note_on_c, 0, 81, 0
1, 45060, Note_on_c, 0, 71, 100
1, 45060, Note_on_c, 0, 51, 100
1, 45090, Note_on_c, 0, 51, 0
1, 45090, Note_on_c, 0, 71, 0
1, 45090, Note_on_c, 0, 83, 100
1, 45120, Note_on_c, 0, 83, 0
1, 45120, Note_on_c, 0, 68, 100
1, 45120, Note_on_c, 0, 40, 100
1, 45127, Note_on_c, 0, 40, 0
1, 45127, Note_on_c, 0, 44, 100
1, 45135, Note_on_c, 0, 44, 0
1, 45135, Note_on_c, 0, 47, 100
1, 45142, Note_on_c, 0, 47, 0
1, 45142, Note_on_c, 0, 52, 100
1, 45150, Note_on_c, 0, 68, 0
1, 45150, Note_on_c, 0, 80, 100
1, 45157, Note_on_c, 0, 52, 0
1, 45180, Note_on_c, 0, 80, 0
1, 45180, Note_on_c, 0, 64, 100
1, 45180, Note_on_c, 0, 52, 100
1, 45210, Note_on_c, 0, 52, 0
1, 45210, Note_on_c, 0, 64, 0
1, 45210, Note_on_c, 0, 76, 100
1, 45240, Note_on_c, 0, 76, 0
1, 45240, Note_on_c, 0, 69, 100
1, 45240, Note_on_c, 0, 52, 100
1, 45270, Note_on_c, 0, 52, 0
1, 45270, Note_on_c, 0, 69, 0
1, 45270, Note_on_c, 0, 81, 100
1, 45300, Note_on_c, 0, 81, 0
1, 45300, Note_on_c, 0, 71, 100
1, 45300, Note_on_c, 0, 52, 100
1, 45330, Note_on_c, 0, 52, 0
1, 45330, Note_on_c, 0, 71, 0
1, 45330, Note_on_c, 0, 83, 100
1, 45360, Note_on_c, 0, 83, 0
1, 45360, Note_on_c, 0, 73, 100
1, 45360, Note_on_c, 0, 45, 100
1, 45367, Note_on_c, 0, 45, 0
1, 45367, Note_on_c, 0, 49, 100
1, 45375, Note_on_c, 0, 49, 0
1, 45375, Note_on_c, 0, 52, 100
1, 45382, Note_on_c, 0, 52, 0
1, 45382, Note_on_c, 0, 57, 100
1, 45390, Note_on_c, 0, 73, 0
1, 45390, Note_on_c, 0, 85, 100
1, 45397, Note_on_c, 0, 57, 0
1, 45420, Note_on_c, 0, 85, 0
1, 45420, Note_on_c, 0, 57, 100
1, 45450, Note_on_c, 0, 57, 0
1, 45480, Note_on_c, 0, 69, 100
1, 45480, Note_on_c, 0, 57, 100
1, 45510, Note_on_c, 0, 57, 0
1, 45510, Note_on_c, 0, 69, 0
1, 45510, Note_on_c, 0, 81, 100
1, 45540, Note_on_c, 0, 81, 0
1, 45540, Note_on_c, 0, 71, 100
1, 45540, Note_on_c, 0, 57, 100
1, 45570, Note_on_c, 0, 57, 0
1, 45570, Note_on_c, 0, 71, 0
1, 45570, Note_on_c, 0, 83, 100
1, 45600, Note_on_c, 0, 83, 0
1, 45600, Note_on_c, 0, 73, 100
1, 45600, Note_on_c, 0, 45, 100
1, 45607, Note_on_c, 0, 45, 0
1, 45607, Note_on_c, 0, 49, 100
1, 45615, Note_on_c, 0, 49, 0
1, 45615, Note_on_c, 0, 52, 100
1, 45622, Note_on_c, 0, 52, 0
1, 45622, Note_on_c, 0, 57, 100
1, 45630, Note_on_c, 0, 73, 0
1, 45630, Note_on_c, 0, 85, 100
1, 45637, Note_on_c, 0, 57, 0
1, 45660, Note_on_c, 0, 85, 0
1, 45660, Note_on_c, 0, 71, 100
1, 45660, Note_on_c, 0, 57, 100
1, 45690, Note_on_c, 0, 57, 0
1, 45690, Note_on_c, 0, 71, 0
1, 45690, Note_on_c, 0, 83, 100
1, 45720, Note_on_c, 0, 83, 0
1, 45720, Note_on_c, 0, 69, 100
1, 45720, Note_on_c, 0, 57, 100
1, 45750, Note_on_c, 0, 57, 0
1, 45750, Note_on_c, 0, 69, 0
1, 45750, Note_on_c, 0, 81, 100
1, 45780, Note_on_c, 0, 81, 0
1, 45780, Note_on_c, 0, 68, 100
1, 45780, Note_on_c, 0, 57, 100
1, 45810, Note_on_c, 0, 57, 0
1, 45810, Note_on_c, 0, 68, 0
1, 45810, Note_on_c, 0, 80, 100
1, 45840, Note_on_c, 0, 80, 0
1, 45840, Note_on_c, 0, 66, 100
1, 45840, Note_on_c, 0, 38, 100
1, 45847, Note_on_c, 0, 38, 0
1, 45847, Note_on_c, 0, 42, 100
1, 45855, Note_on_c, 0, 42, 0
1, 45855, Note_on_c, 0, 45, 100
1, 45862, Note_on_c, 0, 45, 0
1, 45862, Note_on_c, 0, 50, 100
1, 45870, Note_on_c, 0, 66, 0
1, 45870, Note_on_c, 0, 78, 100
1, 45877, Note_on_c, 0, 50, 0
1, 45900, Note_on_c, 0, 78, 0
1, 45900, Note_on_c, 0, 71, 100
1, 45900, Note_on_c, 0, 50, 100
1, 45930, Note_on_c, 0, 50, 0
1, 45930, Note_on_c, 0, 71, 0
1, 45930, Note_on_c, 0, 83, 100
1, 45960, Note_on_c, 0, 83, 0
1, 45960, Note_on_c, 0, 68, 100
1, 45960, Note_on_c, 0, 40, 100
1, 45967, Note_on_c, 0, 40, 0
1, 45967, Note_on_c, 0, 44, 100
1, 45975, Note_on_c, 0, 44, 0
1, 45975, Note_on_c, 0, 47, 100
1, 45982, Note_on_c, 0, 47, 0
1, 45982, Note_on_c, 0, 52, 100
1, 45990, Note_on_c, 0, 68, 0
1, 45990, Note_on_c, 0, 80, 100
1, 45997, Note_on_c, 0, 52, 0
1, 46020, Note_on_c, 0, 80, 0
1, 46020, Note_on_c, 0, 64, 100
1, 46020, Note_on_c, 0, 52, 100
1, 46050, Note_on_c, 0, 52, 0
1, 46050, Note_on_c, 0, 64, 0
1, 46050, Note_on_c, 0, 76, 100
1, 46080, Note_on_c, 0, 76, 0
1, 46080, Note_on_c, 0, 81, 100
1, 46080, Note_on_c, 0, 69, 100
1, 46080, Note_on_c, 0, 45, 100
1, 46087, Note_on_c, 0, 45, 0
1, 46087, Note_on_c, 0, 49, 100
1, 46095, Note_on_c, 0, 49, 0
1, 46095, Note_on_c, 0, 52, 100
1, 46102, Note_on_c, 0, 52, 0
1, 46102, Note_on_c, 0, 57, 100
1, 46117, Note_on_c, 0, 57, 0
1, 46140, Note_on_c, 0, 57, 100
1, 46170, Note_on_c, 0, 57, 0
1, 46200, Note_on_c, 0, 69, 0
1, 46200, Note_on_c, 0, 81, 0
1, 46200, Note_on_c, 0, 85, 100
1, 46200, Note_on_c, 0, 73, 100
1, 46200, Note_on_c, 0, 57, 100
1, 46230, Note_on_c, 0, 57, 0
1, 46260, Note_on_c, 0, 57, 100
1, 46290, Note_on_c, 0, 57, 0
1, 46290, Note_on_c, 0, 85, 0
1, 46290, Note_on_c, 0, 85, 100
1, 46320, Note_on_c, 0, 85, 0
1, 46320, Note_on_c, 0, 73, 0
1, 46320, Note_on_c, 0, 73, 100
1, 46320, Note_on_c, 0, 45, 100
1, 46327, Note_on_c, 0, 45, 0
1, 46327, Note_on_c, 0, 49, 100
1, 46335, Note_on_c, 0, 49, 0
1, 46335, Note_on_c, 0, 73, 0
1, 46335, Note_on_c, 0, 76, 100
1, 46335, Note_on_c, 0, 52, 100
1, 46342, Note_on_c, 0, 52, 0
1, 46342, Note_on_c, 0, 57, 100
1, 46350, Note_on_c, 0, 76, 0
1, 46350, Note_on_c, 0, 81, 100
1, 46357, Note_on_c, 0, 57, 0
1, 46365, Note_on_c, 0, 81, 0
1, 46365, Note_on_c, 0, 85, 100
1, 46380, Note_on_c, 0, 57, 100
1, 46410, Note_on_c, 0, 57, 0
1, 46440, Note_on_c, 0, 57, 100
1, 46470, Note_on_c, 0, 57, 0
1, 46500, Note_on_c, 0, 57, 100
1, 46530, Note_on_c, 0, 57, 0
1, 46560, Note_on_c, 0, 85, 0
1, 46560, Note_on_c, 0, 73, 100
1, 46560, Note_on_c, 0, 45, 100
1, 46567, Note_on_c, 0, 45, 0
1, 46567, Note_on_c, 0, 49, 100
1, 46575, Note_on_c, 0, 49, 0
1, 46575, Note_on_c, 0, 73, 0
1, 46575, Note_on_c, 0, 76, 100
1, 46575, Note_on_c, 0, 52, 100
1, 46582, Note_on_c, 0, 52, 0
1, 46582, Note_on_c, 0, 57, 100
1, 46590, Note_on_c, 0, 76, 0
1, 46590, Note_on_c, 0, 81, 100
1, 46597, Note_on_c, 0, 57, 0
1, 46605, Note_on_c, 0, 81, 0
1, 46605, Note_on_c, 0, 85, 100
1, 46620, Note_on_c, 0, 57, 100
1, 46650, Note_on_c, 0, 57, 0
1, 46680, Note_on_c, 0, 57, 100
1, 46710, Note_on_c, 0, 57, 0
1, 46740, Note_on_c, 0, 57, 100
1, 46770, Note_on_c, 0, 57, 0
1, 46800, Note_on_c, 0, 85, 0
1, 46800, Note_on_c, 0, 86, 100
1, 46800, Note_on_c, 0, 45, 100
1, 46807, Note_on_c, 0, 45, 0
1, 46807, Note_on_c, 0, 49, 100
1, 46815, Note_on_c, 0, 49, 0
1, 46815, Note_on_c, 0, 52, 100
1, 46822, Note_on_c, 0, 52, 0
1, 46822, Note_on_c, 0, 57, 100
1, 46830, Note_on_c, 0, 86, 0
1, 46830, Note_on_c, 0, 85, 100
1, 46837, Note_on_c, 0, 57, 0
1, 46845, Note_on_c, 0, 85, 0
1, 46860, Note_on_c, 0, 83, 100
1, 46860, Note_on_c, 0, 57, 100
1, 46875, Note_on_c, 0, 83, 0
1, 46890, Note_on_c, 0, 57, 0
1, 46890, Note_on_c, 0, 85, 100
1, 46905, Note_on_c, 0, 85, 0
1, 46920, Note_on_c, 0, 86, 100
1, 46920, Note_on_c, 0, 57, 100
1, 46950, Note_on_c, 0, 57, 0
1, 46950, Note_on_c, 0, 86, 0
1, 46950, Note_on_c, 0, 85, 100
1, 46965, Note_on_c, 0, 85, 0
1, 46980, Note_on_c, 0, 83, 100
1, 46980, Note_on_c, 0, 57, 100
1, 46995, Note_on_c, 0, 83, 0
1, 47010, Note_on_c, 0, 57, 0
1, 47010, Note_on_c, 0, 85, 100
1, 47025, Note_on_c, 0, 85, 0
1, 47040, Note_on_c, 0, 86, 100
1, 47040, Note_on_c, 0, 81, 100
1, 47040, Note_on_c, 0, 78, 100
1, 47040, Note_on_c, 0, 38, 100
1, 47047, Note_on_c, 0, 38, 0
1, 47047, Note_on_c, 0, 42, 100
1, 47055, Note_on_c, 0, 42, 0
1, 47055, Note_on_c, 0, 45, 100
1, 47062, Note_on_c, 0, 45, 0
1, 47062, Note_on_c, 0, 50, 100
1, 47077, Note_on_c, 0, 50, 0
1, 47100, Note_on_c, 0, 50, 100
1, 47130, Note_on_c, 0, 50, 0
1, 47160, Note_on_c, 0, 50, 100
1, 47190, Note_on_c, 0, 50, 0
1, 47220, Note_on_c, 0, 50, 100
1, 47250, Note_on_c, 0, 50, 0
1, 47280, Note_on_c, 0, 86, 0
1, 47280, Note_on_c, 0, 81, 0
1, 47280, Note_on_c, 0, 78, 0
1, 47280, Note_on_c, 0, 76, 100
1, 47280, Note_on_c, 0, 81, 100
1, 47280, Note_on_c, 0, 86, 100
1, 47280, Note_on_c, 0, 45, 100
1, 47287, Note_on_c, 0, 45, 0
1, 47287, Note_on_c, 0, 86, 0
1, 47287, Note_on_c, 0, 85, 100
1, 47287, Note_on_c, 0, 49, 100
1, 47295, Note_on_c, 0, 49, 0
1, 47295, Note_on_c, 0, 52, 100
1, 47302, Note_on_c, 0, 52, 0
1, 47302, Note_on_c, 0, 57, 100
1, 47310, Note_on_c, 0, 81, 0
1, 47310, Note_on_c, 0, 76, 0
1, 47317, Note_on_c, 0, 85, 0
1, 47317, Note_on_c, 0, 57, 0
1, 47340, Note_on_c, 0, 76, 100
1, 47340, Note_on_c, 0, 81, 100
1, 47340, Note_on_c, 0, 86, 100
1, 47340, Note_on_c, 0, 57, 100
1, 47347, Note_on_c, 0, 86, 0
1, 47347, Note_on_c, 0, 85, 100
1, 47370, Note_on_c, 0, 76, 0
1, 47370, Note_on_c, 0, 57, 0
1, 47370, Note_on_c, 0, 81, 0
1, 47377, Note_on_c, 0, 85, 0
1, 47400, Note_on_c, 0, 76, 100
1, 47400, Note_on_c, 0, 81, 100
1, 47400, Note_on_c, 0, 86, 100
1, 47400, Note_on_c, 0, 57, 100
1, 47407, Note_on_c, 0, 86, 0
1, 47407, Note_on_c, 0, 85, 100
1, 47430, Note_on_c, 0, 76, 0
1, 47430, Note_on_c, 0, 57, 0
1, 47430, Note_on_c, 0, 81, 0
1, 47437, Note_on_c, 0, 85, 0
1, 47460, Note_on_c, 0, 76, 100
1, 47460, Note_on_c, 0, 81, 100
1, 47460, Note_on_c, 0, 86, 100
1, 47460, Note_on_c, 0, 57, 100
1, 47467, Note_on_c, 0, 86, 0
1, 47467, Note_on_c, 0, 85, 100
1, 47490, Note_on_c, 0, 76, 0
1, 47490, Note_on_c, 0, 57, 0
1, 47490, Note_on_c, 0, 81, 0
1, 47497, Note_on_c, 0, 85, 0
1, 47520, Note_on_c, 0, 83, 100
1, 47520, Note_on_c, 0, 80, 100
1, 47520, Note_on_c, 0, 76, 100
1, 47520, Note_on_c, 0, 40, 100
1, 47527, Note_on_c, 0, 40, 0
1, 47527, Note_on_c, 0, 44, 100
1, 47535, Note_on_c, 0, 44, 0
1, 47535, Note_on_c, 0, 47, 100
1, 47542, Note_on_c, 0, 47, 0
1, 47542, Note_on_c, 0, 52, 100
1, 47557, Note_on_c, 0, 52, 0
1, 47580, Note_on_c, 0, 52, 100
1, 47610, Note_on_c, 0, 52, 0
1, 47640, Note_on_c, 0, 52, 100
1, 47670, Note_on_c, 0, 52, 0
1, 47700, Note_on_c, 0, 83, 0
1, 47700, Note_on_c, 0, 88, 100
1, 47700, Note_on_c, 0, 52, 100
1, 47730, Note_on_c, 0, 52, 0
1, 47730, Note_on_c, 0, 88, 0
1, 47760, Note_on_c, 0, 76, 0
1, 47760, Note_on_c, 0, 80, 0
1, 47760, Note_on_c, 0, 73, 100
1, 47760, Note_on_c, 0, 45, 100
1, 47767, Note_on_c, 0, 45, 0
1, 47767, Note_on_c, 0, 49, 100
1, 47775, Note_on_c, 0, 49, 0
1, 47775, Note_on_c, 0, 73, 0
1, 47775, Note_on_c, 0, 76, 100
1, 47775, Note_on_c, 0, 52, 100
1, 47782, Note_on_c, 0, 52, 0
1, 47782, Note_on_c, 0, 57, 100
1, 47790, Note_on_c, 0, 76, 0
1, 47790, Note_on_c, 0, 81, 100
1, 47797, Note_on_c, 0, 57, 0
1, 47805, Note_on_c, 0, 81, 0
1, 47805, Note_on_c, 0, 85, 100
1, 47820, Note_on_c, 0, 57, 100
1, 47850, Note_on_c, 0, 57, 0
1, 47880, Note_on_c, 0, 57, 100
1, 47910, Note_on_c, 0, 57, 0
1, 47940, Note_on_c, 0, 57, 100
1, 47970, Note_on_c, 0, 57, 0
1, 48000, Note_on_c, 0, 85, 0
1, 48000, Note_on_c, 0, 73, 100
1, 48000, Note_on_c, 0, 45, 100
1, 48007, Note_on_c, 0, 45, 0
1, 48007, Note_on_c, 0, 49, 100
1, 48015, Note_on_c, 0, 49, 0
1, 48015, Note_on_c, 0, 73, 0
1, 48015, Note_on_c, 0, 76, 100
1, 48015, Note_on_c, 0, 52, 100
1, 48022, Note_on_c, 0, 52, 0
1, 48022, Note_on_c, 0, 57, 100
1, 48030, Note_on_c, 0, 76, 0
1, 48030, Note_on_c, 0, 81, 100
1, 48037, Note_on_c, 0, 57, 0
1, 48045, Note_on_c, 0, 81, 0
1, 48045, Note_on_c, 0, 85, 100
1, 48060, Note_on_c, 0, 57, 100
1, 48090, Note_on_c, 0, 57, 0
1, 48120, Note_on_c, 0, 57, 100
1, 48150, Note_on_c, 0, 57, 0
1, 48180, Note_on_c, 0, 57, 100
1, 48210, Note_on_c, 0, 57, 0
1, 48240, Note_on_c, 0, 85, 0
1, 48240, Note_on_c, 0, 86, 100
1, 48240, Note_on_c, 0, 45, 100
1, 48247, Note_on_c, 0, 45, 0
1, 48247, Note_on_c, 0, 49, 100
1, 48255, Note_on_c, 0, 49, 0
1, 48255, Note_on_c, 0, 52, 100
1, 48262, Note_on_c, 0, 52, 0
1, 48262, Note_on_c, 0, 57, 100
1, 48270, Note_on_c, 0, 86, 0
1, 48270, Note_on_c, 0, 85, 100
1, 48277, Note_on_c, 0, 57, 0
1, 48285, Note_on_c, 0, 85, 0
1, 48300, Note_on_c, 0, 83, 100
1, 48300, Note_on_c, 0, 57, 100
1, 48315, Note_on_c, 0, 83, 0
1, 48330, Note_on_c, 0, 57, 0
1, 48330, Note_on_c, 0, 85, 100
1, 48345, Note_on_c, 0, 85, 0
1, 48360, Note_on_c, 0, 86, 100
1, 48360, Note_on_c, 0, 57, 100
1, 48390, Note_on_c, 0, 57, 0
1, 48390, Note_on_c, 0, 86, 0
1, 48390, Note_on_c, 0, 85, 100
1, 48405, Note_on_c, 0, 85, 0
1, 48420, Note_on_c, 0, 83, 100
1, 48420, Note_on_c, 0, 57, 100
1, 48435, Note_on_c, 0, 83, 0
1, 48450, Note_on_c, 0, 57, 0
1, 48450, Note_on_c, 0, 85, 100
1, 48465, Note_on_c, 0, 85, 0
1, 48480, Note_on_c, 0, 86, 100
1, 48480, Note_on_c, 0, 81, 100
1, 48480, Note_on_c, 0, 78, 100
1, 48480, Note_on_c, 0, 38, 100
1, 48487, Note_on_c, 0, 38, 0
1, 48487, Note_on_c, 0, 42, 100
1, 48495, Note_on_c, 0, 42, 0
1, 48495, Note_on_c, 0, 45, 100
1, 48502, Note_on_c, 0, 45, 0
1, 48502, Note_on_c, 0, 50, 100
1, 48517, Note_on_c, 0, 50, 0
1, 48540, Note_on_c, 0, 50, 100
1, 48570, Note_on_c, 0, 50, 0
1, 48600, Note_on_c, 0, 50, 100
1, 48630, Note_on_c, 0, 50, 0
1, 48660, Note_on_c, 0, 50, 100
1, 48690, Note_on_c, 0, 50, 0
1, 48720, Note_on_c, 0, 86, 0
1, 48720, Note_on_c, 0, 81, 0
1, 48720, Note_on_c, 0, 78, 0
1, 48720, Note_on_c, 0, 76, 100
1, 48720, Note_on_c, 0, 81, 100
1, 48720, Note_on_c, 0, 86, 100
1, 48720, Note_on_c, 0, 45, 100
1, 48727, Note_on_c, 0, 45, 0
1, 48727, Note_on_c, 0, 86, 0
1, 48727, Note_on_c, 0, 85, 100
1, 48727, Note_on_c, 0, 49, 100
1, 48735, Note_on_c, 0, 49, 0
1, 48735, Note_on_c, 0, 52, 100
1, 48742, Note_on_c, 0, 52, 0
1, 48742, Note_on_c, 0, 57, 100
1, 48757, Note_on_c, 0, 57, 0
1, 48780, Note_on_c, 0, 57, 100
1, 48810, Note_on_c, 0, 57, 0
1, 48840, Note_on_c, 0, 57, 100
1, 48870, Note_on_c, 0, 57, 0
1, 48900, Note_on_c, 0, 57, 100
1, 48930, Note_on_c, 0, 57, 0
1, 48960, Note_on_c, 0, 85, 0
1, 48960, Note_on_c, 0, 81, 0
1, 48960, Note_on_c, 0, 76, 0
1, 48960, Note_on_c, 0, 76, 100
1, 48960, Note_on_c, 0, 80, 100
1, 48960, Note_on_c, 0, 85, 100
1, 48960, Note_on_c, 0, 40, 100
1, 48967, Note_on_c, 0, 40, 0
1, 48967, Note_on_c, 0, 85, 0
1, 48967, Note_on_c, 0, 83, 100
1, 48967, Note_on_c, 0, 44, 100
1, 48975, Note_on_c, 0, 44, 0
1, 48975, Note_on_c, 0, 47, 100
1, 48982, Note_on_c, 0, 47, 0
1, 48982, Note_on_c, 0, 52, 100
1, 48990, Note_on_c, 0, 80, 0
1, 48990, Note_on_c, 0, 76, 0
1, 48997, Note_on_c, 0, 83, 0
1, 48997, Note_on_c, 0, 52, 0
1, 49020, Note_on_c, 0, 76, 100
1, 49020, Note_on_c, 0, 80, 100
1, 49020, Note_on_c, 0, 85, 100
1, 49020, Note_on_c, 0, 52, 100
1, 49027, Note_on_c, 0, 85, 0
1, 49027, Note_on_c, 0, 83, 100
1, 49050, Note_on_c, 0, 76, 0
1, 49050, Note_on_c, 0, 52, 0
1, 49050, Note_on_c, 0, 80, 0
1, 49057, Note_on_c, 0, 83, 0
1, 49080, Note_on_c, 0, 76, 100
1, 49080, Note_on_c, 0, 80, 100
1, 49080, Note_on_c, 0, 85, 100
1, 49080, Note_on_c, 0, 52, 100
1, 49087, Note_on_c, 0, 85, 0
1, 49087, Note_on_c, 0, 83, 100
1, 49110, Note_on_c, 0, 76, 0
1, 49110, Note_on_c, 0, 52, 0
1, 49110, Note_on_c, 0, 80, 0
1, 49117, Note_on_c, 0, 83, 0
1, 49140, Note_on_c, 0, 76, 100
1, 49140, Note_on_c, 0, 80, 100
1, 49140, Note_on_c, 0, 85, 100
1, 49140, Note_on_c, 0, 52, 100
1, 49147, Note_on_c, 0, 85, 0
1, 49147, Note_on_c, 0, 83, 100
1, 49170, Note_on_c, 0, 76, 0
1, 49170, Note_on_c, 0, 52, 0
1, 49170, Note_on_c, 0, 80, 0
1, 49177, Note_on_c, 0, 83, 0
1, 49200, Note_on_c, 0, 81, 100
1, 49200, Note_on_c, 0, 57, 100
1, 49230, Note_on_c, 0, 57, 0
1, 49230, Note_on_c, 0, 64, 100
1, 49260, Note_on_c, 0, 64, 0
1, 49260, Note_on_c, 0, 61, 100
1, 49290, Note_on_c, 0, 61, 0
1, 49290, Note_on_c, 0, 64, 100
1, 49320, Note_on_c, 0, 64, 0
1, 49320, Note_on_c, 0, 81, 0
1, 49320, Note_on_c, 0, 76, 100
1, 49320, Note_on_c, 0, 57, 100
1, 49327, Note_on_c, 0, 76, 0
1, 49327, Note_on_c, 0, 81, 100
1, 49335, Note_on_c, 0, 81, 0
1, 49335, Note_on_c, 0, 85, 100
1, 49350, Note_on_c, 0, 57, 0
1, 49350, Note_on_c, 0, 64, 100
1, 49380, Note_on_c, 0, 64, 0
1, 49380, Note_on_c, 0, 85, 0
1, 49380, Note_on_c, 0, 61, 100
1, 49410, Note_on_c, 0, 61, 0
1, 49410, Note_on_c, 0, 85, 100
1, 49410, Note_on_c, 0, 64, 100
1, 49425, Note_on_c, 0, 85, 0
1, 49440, Note_on_c, 0, 64, 0
1, 49440, Note_on_c, 0, 76, 100
1, 49440, Note_on_c, 0, 57, 100
1, 49447, Note_on_c, 0, 76, 0
1, 49447, Note_on_c, 0, 81, 100
1, 49455, Note_on_c, 0, 81, 0
1, 49455, Note_on_c, 0, 85, 100
1, 49470, Note_on_c, 0, 57, 0
1, 49470, Note_on_c, 0, 64, 100
1, 49500, Note_on_c, 0, 64, 0
1, 49500, Note_on_c, 0, 61, 100
1, 49530, Note_on_c, 0, 61, 0
1, 49530, Note_on_c, 0, 64, 100
1, 49560, Note_on_c, 0, 64, 0
1, 49560, Note_on_c, 0, 57, 100
1, 49590, Note_on_c, 0, 57, 0
1, 49590, Note_on_c, 0, 64, 100
1, 49620, Note_on_c, 0, 64, 0
1, 49620, Note_on_c, 0, 61, 100
1, 49650, Note_on_c, 0, 61, 0
1, 49650, Note_on_c, 0, 64, 100
1, 49680, Note_on_c, 0, 64, 0
1, 49680, Note_on_c, 0, 85, 0
1, 49680, Note_on_c, 0, 76, 100
1, 49680, Note_on_c, 0, 57, 100
1, 49687, Note_on_c, 0, 76, 0
1, 49687, Note_on_c, 0, 81, 100
1, 49695, Note_on_c, 0, 81, 0
1, 49695, Note_on_c, 0, 85, 100
1, 49710, Note_on_c, 0, 57, 0
1, 49710, Note_on_c, 0, 64, 100
1, 49740, Note_on_c, 0, 64, 0
1, 49740, Note_on_c, 0, 61, 100
1, 49770, Note_on_c, 0, 61, 0
1, 49770, Note_on_c, 0, 64, 100
1, 49800, Note_on_c, 0, 64, 0
1, 49800, Note_on_c, 0, 57, 100
1, 49830, Note_on_c, 0, 57, 0
1, 49830, Note_on_c, 0, 64, 100
1, 49860, Note_on_c, 0, 64, 0
1, 49860, Note_on_c, 0, 61, 100
1, 49890, Note_on_c, 0, 61, 0
1, 49890, Note_on_c, 0, 64, 100
1, 49920, Note_on_c, 0, 64, 0
1, 49920, Note_on_c, 0, 85, 0
1, 49920, Note_on_c, 0, 86, 100
1, 49920, Note_on_c, 0, 57, 100
1, 49950, Note_on_c, 0, 57, 0
1, 49950, Note_on_c, 0, 86, 0
1, 49950, Note_on_c, 0, 85, 100
1, 49950, Note_on_c, 0, 64, 100
1, 49965, Note_on_c, 0, 85, 0
1, 49980, Note_on_c, 0, 64, 0
1, 49980, Note_on_c, 0, 83, 100
1, 49980, Note_on_c, 0, 61, 100
1, 49995, Note_on_c, 0, 83, 0
1, 50010, Note_on_c, 0, 61, 0
1, 50010, Note_on_c, 0, 85, 100
1, 50010, Note_on_c, 0, 64, 100
1, 50025, Note_on_c, 0, 85, 0
1, 50040, Note_on_c, 0, 64, 0
1, 50040, Note_on_c, 0, 86, 100
1, 50040, Note_on_c, 0, 57, 100
1, 50070, Note_on_c, 0, 57, 0
1, 50070, Note_on_c, 0, 86, 0
1, 50070, Note_on_c, 0, 85, 100
1, 50070, Note_on_c, 0, 64, 100
1, 50085, Note_on_c, 0, 85, 0
1, 50100, Note_on_c, 0, 64, 0
1, 50100, Note_on_c, 0, 83, 100
1, 50100, Note_on_c, 0, 61, 100
1, 50115, Note_on_c, 0, 83, 0
1, 50130, Note_on_c, 0, 61, 0
1, 50130, Note_on_c, 0, 85, 100
1, 50130, Note_on_c, 0, 64, 100
1, 50145, Note_on_c, 0, 85, 0
1, 50160, Note_on_c, 0, 64, 0
1, 50160, Note_on_c, 0, 86, 100
1, 50160, Note_on_c, 0, 57, 100
1, 50190, Note_on_c, 0, 57, 0
1, 50190, Note_on_c, 0, 66, 100
1, 50220, Note_on_c, 0, 66, 0
1, 50220, Note_on_c, 0, 62, 100
1, 50250, Note_on_c, 0, 62, 0
1, 50250, Note_on_c, 0, 66, 100
1, 50280, Note_on_c, 0, 66, 0
1, 50280, Note_on_c, 0, 57, 100
1, 50310, Note_on_c, 0, 57, 0
1, 50310, Note_on_c, 0, 66, 100
1, 50340, Note_on_c, 0, 66, 0
1, 50340, Note_on_c, 0, 62, 100
1, 50370, Note_on_c, 0, 62, 0
1, 50370, Note_on_c, 0, 66, 100
1, 50400, Note_on_c, 0, 66, 0
1, 50400, Note_on_c, 0, 86, 0
1, 50400, Note_on_c, 0, 86, 100
1, 50400, Note_on_c, 0, 57, 100
1, 50407, Note_on_c, 0, 86, 0
1, 50407, Note_on_c, 0, 85, 100
1, 50430, Note_on_c, 0, 57, 0
1, 50430, Note_on_c, 0, 64, 100
1, 50437, Note_on_c, 0, 85, 0
1, 50460, Note_on_c, 0, 64, 0
1, 50460, Note_on_c, 0, 86, 100
1, 50460, Note_on_c, 0, 61, 100
1, 50467, Note_on_c, 0, 86, 0
1, 50467, Note_on_c, 0, 85, 100
1, 50490, Note_on_c, 0, 61, 0
1, 50490, Note_on_c, 0, 64, 100
1, 50497, Note_on_c, 0, 85, 0
1, 50520, Note_on_c, 0, 64, 0
1, 50520, Note_on_c, 0, 86, 100
1, 50520, Note_on_c, 0, 57, 100
1, 50527, Note_on_c, 0, 86, 0
1, 50527, Note_on_c, 0, 85, 100
1, 50550, Note_on_c, 0, 57, 0
1, 50550, Note_on_c, 0, 64, 100
1, 50557, Note_on_c, 0, 85, 0
1, 50580, Note_on_c, 0, 64, 0
1, 50580, Note_on_c, 0, 86, 100
1, 50580, Note_on_c, 0, 61, 100
1, 50587, Note_on_c, 0, 86, 0
1, 50587, Note_on_c, 0, 85, 100
1, 50610, Note_on_c, 0, 61, 0
1, 50610, Note_on_c, 0, 64, 100
1, 50617, Note_on_c, 0, 85, 0
1, 50640, Note_on_c, 0, 64, 0
1, 50640, Note_on_c, 0, 83, 100
1, 50640, Note_on_c, 0, 52, 100
1, 50670, Note_on_c, 0, 52, 0
1, 50670, Note_on_c, 0, 64, 100
1, 50700, Note_on_c, 0, 64, 0
1, 50700, Note_on_c, 0, 56, 100
1, 50730, Note_on_c, 0, 56, 0
1, 50730, Note_on_c, 0, 64, 100
1, 50760, Note_on_c, 0, 64, 0
1, 50760, Note_on_c, 0, 52, 100
1, 50790, Note_on_c, 0, 52, 0
1, 50790, Note_on_c, 0, 64, 100
1, 50820, Note_on_c, 0, 64, 0
1, 50820, Note_on_c, 0, 83, 0
1, 50820, Note_on_c, 0, 88, 100
1, 50820, Note_on_c, 0, 56, 100
1, 50850, Note_on_c, 0, 56, 0
1, 50850, Note_on_c, 0, 88, 0
1, 50850, Note_on_c, 0, 64, 100
1, 50880, Note_on_c, 0, 64, 0
1, 50880, Note_on_c, 0, 73, 100
1, 50880, Note_on_c, 0, 45, 100
1, 50887, Note_on_c, 0, 45, 0
1, 50887, Note_on_c, 0, 49, 100
1, 50895, Note_on_c, 0, 49, 0
1, 50895, Note_on_c, 0, 73, 0
1, 50895, Note_on_c, 0, 76, 100
1, 50895, Note_on_c, 0, 52, 100
1, 50902, Note_on_c, 0, 52, 0
1, 50902, Note_on_c, 0, 57, 100
1, 50910, Note_on_c, 0, 76, 0
1, 50910, Note_on_c, 0, 81, 100
1, 50917, Note_on_c, 0, 57, 0
1, 50925, Note_on_c, 0, 81, 0
1, 50925, Note_on_c, 0, 85, 100
1, 50940, Note_on_c, 0, 57, 100
1, 50970, Note_on_c, 0, 57, 0
1, 51000, Note_on_c, 0, 57, 100
1, 51030, Note_on_c, 0, 57, 0
1, 51060, Note_on_c, 0, 57, 100
1, 51090, Note_on_c, 0, 57, 0
1, 51120, Note_on_c, 0, 85, 0
1, 51120, Note_on_c, 0, 73, 100
1, 51120, Note_on_c, 0, 45, 100
1, 51127, Note_on_c, 0, 45, 0
1, 51127, Note_on_c, 0, 49, 100
1, 51135, Note_on_c, 0, 49, 0
1, 51135, Note_on_c, 0, 73, 0
1, 51135, Note_on_c, 0, 76, 100
1, 51135, Note_on_c, 0, 52, 100
1, 51142, Note_on_c, 0, 52, 0
1, 51142, Note_on_c, 0, 57, 100
1, 51150, Note_on_c, 0, 76, 0
1, 51150, Note_on_c, 0, 81, 100
1, 51157, Note_on_c, 0, 57, 0
1, 51165, Note_on_c, 0, 81, 0
1, 51165, Note_on_c, 0, 85, 100
1, 51180, Note_on_c, 0, 57, 100
1, 51210, Note_on_c, 0, 57, 0
1, 51240, Note_on_c, 0, 57, 100
1, 51270, Note_on_c, 0, 57, 0
1, 51300, Note_on_c, 0, 57, 100
1, 51330, Note_on_c, 0, 57, 0
1, 51360, Note_on_c, 0, 85, 0
1, 51360, Note_on_c, 0, 86, 100
1, 51360, Note_on_c, 0, 45, 100
1, 51367, Note_on_c, 0, 45, 0
1, 51367, Note_on_c, 0, 49, 100
1, 51375, Note_on_c, 0, 49, 0
1, 51375, Note_on_c, 0, 52, 100
1, 51382, Note_on_c, 0, 52, 0
1, 51382, Note_on_c, 0, 57, 100
1, 51390, Note_on_c, 0, 86, 0
1, 51390, Note_on_c, 0, 85, 100
1, 51397, Note_on_c, 0, 57, 0
1, 51405, Note_on_c, 0, 85, 0
1, 51420, Note_on_c, 0, 83, 100
1, 51420, Note_on_c, 0, 57, 100
1, 51435, Note_on_c, 0, 83, 0
1, 51450, Note_on_c, 0, 57, 0
1, 51450, Note_on_c, 0, 85, 100
1, 51465, Note_on_c, 0, 85, 0
1, 51480, Note_on_c, 0, 86, 100
1, 51480, Note_on_c, 0, 57, 100
1, 51510, Note_on_c, 0, 57, 0
1, 51510, Note_on_c, 0, 86, 0
1, 51510, Note_on_c, 0, 85, 100
1, 51525, Note_on_c, 0, 85, 0
1, 51540, Note_on_c, 0, 83, 100
1, 51540, Note_on_c, 0, 57, 100
1, 51555, Note_on_c, 0, 83, 0
1, 51570, Note_on_c, 0, 57, 0
1, 51570, Note_on_c, 0, 85, 100
1, 51585, Note_on_c, 0, 85, 0
1, 51600, Note_on_c, 0, 86, 100
1, 51600, Note_on_c, 0, 81, 100
1, 51600, Note_on_c, 0, 78, 100
1, 51600, Note_on_c, 0, 38, 100
1, 51607, Note_on_c, 0, 38, 0
1, 51607, Note_on_c, 0, 42, 100
1, 51615, Note_on_c, 0, 42, 0
1, 51615, Note_on_c, 0, 45, 100
1, 51622, Note_on_c, 0, 45, 0
1, 51622, Note_on_c, 0, 50, 100
1, 51637, Note_on_c, 0, 50, 0
1, 51660, Note_on_c, 0, 50, 100
1, 51690, Note_on_c, 0, 50, 0
1, 51720, Note_on_c, 0, 50, 100
1, 51750, Note_on_c, 0, 50, 0
1, 51780, Note_on_c, 0, 50, 100
1, 51810, Note_on_c, 0, 50, 0
1, 51840, Note_on_c, 0, 86, 0
1, 51840, Note_on_c, 0, 81, 0
1, 51840, Note_on_c, 0, 78, 0
1, 51840, Note_on_c, 0, 76, 100
1, 51840, Note_on_c, 0, 81, 100
1, 51840, Note_on_c, 0, 86, 100
1, 51840, Note_on_c, 0, 45, 100
1, 51847, Note_on_c, 0, 45, 0
1, 51847, Note_on_c, 0, 86, 0
1, 51847, Note_on_c, 0, 85, 100
1, 51847, Note_on_c, 0, 49, 100
1, 51855, Note_on_c, 0, 49, 0
1, 51855, Note_on_c, 0, 52, 100
1, 51862, Note_on_c, 0, 52, 0
1, 51862, Note_on_c, 0, 57, 100
1, 51877, Note_on_c, 0, 57, 0
1, 51900, Note_on_c, 0, 57, 100
1, 51930, Note_on_c, 0, 57, 0
1, 51960, Note_on_c, 0, 57, 100
1, 51990, Note_on_c, 0, 57, 0
1, 52020, Note_on_c, 0, 57, 100
1, 52050, Note_on_c, 0, 57, 0
1, 52080, Note_on_c, 0, 85, 0
1, 52080, Note_on_c, 0, 81, 0
1, 52080, Note_on_c, 0, 76, 0
1, 52080, Note_on_c, 0, 76, 100
1, 52080, Note_on_c, 0, 80, 100
1, 52080, Note_on_c, 0, 85, 100
1, 52080, Note_on_c, 0, 40, 100
1, 52087, Note_on_c, 0, 40, 0
1, 52087, Note_on_c, 0, 85, 0
1, 52087, Note_on_c, 0, 83, 100
1, 52087, Note_on_c, 0, 44, 100
1, 52095, Note_on_c, 0, 44, 0
1, 52095, Note_on_c, 0, 47, 100
1, 52102, Note_on_c, 0, 47, 0
1, 52102, Note_on_c, 0, 52, 100
1, 52110, Note_on_c, 0, 80, 0
1, 52110, Note_on_c, 0, 76, 0
1, 52117, Note_on_c, 0, 83, 0
1, 52117, Note_on_c, 0, 52, 0
1, 52140, Note_on_c, 0, 76, 100
1, 52140, Note_on_c, 0, 80, 100
1, 52140, Note_on_c, 0, 85, 100
1, 52140, Note_on_c, 0, 52, 100
1, 52147, Note_on_c, 0, 85, 0
1, 52147, Note_on_c, 0, 83, 100
1, 52170, Note_on_c, 0, 76, 0
1, 52170, Note_on_c, 0, 52, 0
1, 52170, Note_on_c, 0, 80, 0
1, 52177, Note_on_c, 0, 83, 0
1, 52200, Note_on_c, 0, 76, 100
1, 52200, Note_on_c, 0, 80, 100
1, 52200, Note_on_c, 0, 85, 100
1, 52200, Note_on_c, 0, 52, 100
1, 52207, Note_on_c, 0, 85, 0
1, 52207, Note_on_c, 0, 83, 100
1, 52230, Note_on_c, 0, 76, 0
1, 52230, Note_on_c, 0, 52, 0
1, 52230, Note_on_c, 0, 80, 0
1, 52237, Note_on_c, 0, 83, 0
1, 52260, Note_on_c, 0, 76, 100
1, 52260, Note_on_c, 0, 80, 100
1, 52260, Note_on_c, 0, 85, 100
1, 52260, Note_on_c, 0, 52, 100
1, 52267, Note_on_c, 0, 85, 0
1, 52267, Note_on_c, 0, 83, 100
1, 52290, Note_on_c, 0, 76, 0
1, 52290, Note_on_c, 0, 52, 0
1, 52290, Note_on_c, 0, 80, 0
1, 52297, Note_on_c, 0, 83, 0
1, 52320, Note_on_c, 0, 81, 100
1, 52320, Note_on_c, 0, 76, 100
1, 52320, Note_on_c, 0, 73, 100
1, 52320, Note_on_c, 0, 69, 100
1, 52320, Note_on_c, 0, 45, 100
1, 52327, Note_on_c, 0, 45, 0
1, 52327, Note_on_c, 0, 49, 100
1, 52335, Note_on_c, 0, 49, 0
1, 52335, Note_on_c, 0, 52, 100
1, 52342, Note_on_c, 0, 52, 0
1, 52342, Note_on_c, 0, 57, 100
1, 52357, Note_on_c, 0, 57, 0
1, 52380, Note_on_c, 0, 57, 100
1, 52410, Note_on_c, 0, 57, 0
1, 52440, Note_on_c, 0, 57, 100
1, 52470, Note_on_c, 0, 57, 0
1, 52500, Note_on_c, 0, 69, 0
1, 52500, Note_on_c, 0, 81, 0
1, 52500, Note_on_c, 0, 76, 0
1, 52500, Note_on_c, 0, 73, 0
1, 52500, Note_on_c, 0, 85, 100
1, 52500, Note_on_c, 0, 73, 100
1, 52500, Note_on_c, 0, 57, 100
1, 52530, Note_on_c, 0, 57, 0
1, 52530, Note_on_c, 0, 73, 0
1, 52530, Note_on_c, 0, 85, 0
1, 52560, Note_on_c, 0, 81, 100
1, 52560, Note_on_c, 0, 69, 100
1, 52560, Note_on_c, 0, 45, 100
1, 52567, Note_on_c, 0, 45, 0
1, 52567, Note_on_c, 0, 49, 100
1, 52575, Note_on_c, 0, 49, 0
1, 52575, Note_on_c, 0, 52, 100
1, 52582, Note_on_c, 0, 52, 0
1, 52582, Note_on_c, 0, 57, 100
1, 52597, Note_on_c, 0, 57, 0
1, 52620, Note_on_c, 0, 57, 100
1, 52650, Note_on_c, 0, 57, 0
1, 52680, Note_on_c, 0, 57, 100
1, 52710, Note_on_c, 0, 57, 0
1, 52740, Note_on_c, 0, 69, 0
1, 52740, Note_on_c, 0, 81, 0
1, 52740, Note_on_c, 0, 88, 100
1, 52740, Note_on_c, 0, 76, 100
1, 52740, Note_on_c, 0, 57, 100
1, 52770, Note_on_c, 0, 57, 0
1, 52770, Note_on_c, 0, 76, 0
1, 52770, Note_on_c, 0, 88, 0
1, 52800, Note_on_c, 0, 81, 100
1, 52800, Note_on_c, 0, 69, 100
1, 52800, Note_on_c, 0, 45, 100
1, 52807, Note_on_c, 0, 45, 0
1, 52807, Note_on_c, 0, 49, 100
1, 52815, Note_on_c, 0, 49, 0
1, 52815, Note_on_c, 0, 52, 100
1, 52822, Note_on_c, 0, 52, 0
1, 52822, Note_on_c, 0, 57, 100
1, 52837, Note_on_c, 0, 57, 0
1, 52860, Note_on_c, 0, 57, 100
1, 52890, Note_on_c, 0, 57, 0
1, 52920, Note_on_c, 0, 57, 100
1, 52950, Note_on_c, 0, 57, 0
1, 52980, Note_on_c, 0, 69, 0
1, 52980, Note_on_c, 0, 81, 0
1, 52980, Note_on_c, 0, 85, 100
1, 52980, Note_on_c, 0, 73, 100
1, 52980, Note_on_c, 0, 57, 100
1, 53010, Note_on_c, 0, 57, 0
1, 53010, Note_on_c, 0, 73, 0
1, 53010, Note_on_c, 0, 85, 0
1, 53040, Note_on_c, 0, 81, 100
1, 53040, Note_on_c, 0, 69, 100
1, 53040, Note_on_c, 0, 45, 100
1, 53047, Note_on_c, 0, 45, 0
1, 53047, Note_on_c, 0, 49, 100
1, 53055, Note_on_c, 0, 49, 0
1, 53055, Note_on_c, 0, 52, 100
1, 53062, Note_on_c, 0, 52, 0
1, 53062, Note_on_c, 0, 57, 100
1, 53070, Note_on_c, 0, 69, 0
1, 53070, Note_on_c, 0, 81, 0
1, 53077, Note_on_c, 0, 57, 0
1, 53100, Note_on_c, 0, 85, 100
1, 53100, Note_on_c, 0, 73, 100
1, 53100, Note_on_c, 0, 57, 100
1, 53130, Note_on_c, 0, 57, 0
1, 53130, Note_on_c, 0, 73, 0
1, 53130, Note_on_c, 0, 85, 0
1, 53160, Note_on_c, 0, 81, 100
1, 53160, Note_on_c, 0, 69, 100
1, 53160, Note_on_c, 0, 45, 100
1, 53167, Note_on_c, 0, 45, 0
1, 53167, Note_on_c, 0, 49, 100
1, 53175, Note_on_c, 0, 49, 0
1, 53175, Note_on_c, 0, 52, 100
1, 53182, Note_on_c, 0, 52, 0
1, 53182, Note_on_c, 0, 57, 100
1, 53190, Note_on_c, 0, 69, 0
1, 53190, Note_on_c, 0, 81, 0
1, 53197, Note_on_c, 0, 57, 0
1, 53220, Note_on_c, 0, 88, 100
1, 53220, Note_on_c, 0, 76, 100
1, 53220, Note_on_c, 0, 57, 100
1, 53250, Note_on_c, 0, 57, 0
1, 53250, Note_on_c, 0, 76, 0
1, 53250, Note_on_c, 0, 88, 0
1, 53280, Note_on_c, 0, 81, 100
1, 53280, Note_on_c, 0, 69, 100
1, 53280, Note_on_c, 0, 45, 100
1, 53340, Note_on_c, 0, 45, 0
1, 53340, Note_on_c, 0, 69, 0
1, 53340, Note_on_c, 0, 81, 0
1, 53400, Note_on_c, 0, 69, 100
1, 53400, Note_on_c, 0, 73, 100
1, 53400, Note_on_c, 0, 76, 100
1, 53400, Note_on_c, 0, 81, 100
1, 53400, Note_on_c, 0, 45, 100
1, 53400, Note_on_c, 0, 49, 100
1, 53400, Note_on_c, 0, 52, 100
1, 53400, Note_on_c, 0, 57, 100
1, 53460, Note_on_c, 0, 57, 0
1, 53460, Note_on_c, 0, 69, 0
1, 53460, Note_on_c, 0, 45, 0
1, 53460, Note_on_c, 0, 73, 0
1, 53460, Note_on_c, 0, 76, 0
1, 53460, Note_on_c, 0, 81, 0
1, 53460, Note_on_c, 0, 49, 0
1, 53460, Note_on_c, 0, 52, 0
1, 53520, Note_on_c, 0, 69, 100
1, 53520, Note_on_c, 0, 73, 100
1, 53520, Note_on_c, 0, 76, 100
1, 53520, Note_on_c, 0, 81, 100
1, 53520, Note_on_c, 0, 45, 100
1, 53520, Note_on_c, 0, 49, 100
1, 53520, Note_on_c, 0, 52, 100
1, 53520, Note_on_c, 0, 57, 100
1, 54000, Note_on_c, 0, 57, 0
1, 54000, Note_on_c, 0, 69, 0
1, 54000, Note_on_c, 0, 45, 0
1, 54000, Note_on_c, 0, 73, 0
1, 54000, Note_on_c, 0, 76, 0
1, 54000, Note_on_c, 0, 81, 0
1, 54000, Note_on_c, 0, 49, 0
1, 54000, Note_on_c, 0, 52, 0
1, 54000, End_track
0, 0, End_of_file
