0, 0, Header, 1, 3, 240
1, 0, Start_track
1, 0, Title_t, "Track 0"
1, 0, Time_signature, 4, 2, 24, 8
1, 0, Key_signature, -2, "major"
1, 0, Tempo, 461538
1, 0, End_track
2, 0, Start_track
2, 0, MIDI_port, 0
2, 0, Title_t, "Track 1"
2, 0, Program_c, 0, 0
2, 0, Control_c, 0, 7, 127
2, 720, Note_on_c, 0, 79, 64
2, 780, Note_on_c, 0, 79, 0
2, 780, Note_on_c, 0, 77, 64
2, 840, Note_on_c, 0, 77, 0
2, 840, Note_on_c, 0, 75, 64
2, 900, Note_on_c, 0, 75, 0
2, 900, Note_on_c, 0, 74, 64
2, 960, Note_on_c, 0, 74, 0
2, 960, Note_on_c, 0, 72, 64
2, 1080, Note_on_c, 0, 72, 0
2, 1080, Note_on_c, 0, 70, 64
2, 1200, Note_on_c, 0, 70, 0
2, 1200, Note_on_c, 0, 70, 64
2, 1560, Note_on_c, 0, 70, 0
2, 1560, Note_on_c, 0, 74, 64
2, 1680, Note_on_c, 0, 74, 0
2, 1680, Note_on_c, 0, 79, 64
2, 1800, Note_on_c, 0, 79, 0
2, 1800, Note_on_c, 0, 74, 64
2, 1920, Note_on_c, 0, 74, 0
2, 1920, Note_on_c, 0, 77, 64
2, 2160, Note_on_c, 0, 77, 0
2, 2160, Note_on_c, 0, 75, 64
2, 2520, Note_on_c, 0, 75, 0
2, 2520, Note_on_c, 0, 77, 64
2, 2580, Note_on_c, 0, 77, 0
2, 2580, Note_on_c, 0, 79, 64
2, 2640, Note_on_c, 0, 79, 0
2, 2640, Note_on_c, 0, 77, 64
2, 2700, Note_on_c, 0, 77, 0
2, 2700, Note_on_c, 0, 75, 64
2, 2760, Note_on_c, 0, 75, 0
2, 2760, Note_on_c, 0, 74, 64
2, 2820, Note_on_c, 0, 74, 0
2, 2820, Note_on_c, 0, 72, 64
2, 2880, Note_on_c, 0, 72, 0
2, 2880, Note_on_c, 0, 70, 64
2, 3120, Note_on_c, 0, 70, 0
2, 3120, Note_on_c, 0, 69, 64
2, 3480, Note_on_c, 0, 69, 0
2, 3480, Note_on_c, 0, 69, 64
2, 3600, Note_on_c, 0, 69, 0
2, 3600, Note_on_c, 0, 70, 64
2, 3720, Note_on_c, 0, 70, 0
2, 3720, Note_on_c, 0, 72, 64
2, 3840, Note_on_c, 0, 72, 0
2, 3840, Note_on_c, 0, 69, 64
2, 3840, Note_on_c, 0, 72, 64
2, 4080, Note_on_c, 0, 72, 0
2, 4080, Note_on_c, 0, 69, 0
2, 4080, Note_on_c, 0, 70, 64
2, 4080, Note_on_c, 0, 74, 64
2, 4320, Note_on_c, 0, 74, 0
2, 4320, Note_on_c, 0, 70, 0
2, 4440, Note_on_c, 0, 77, 64
2, 4500, Note_on_c, 0, 77, 0
2, 4500, Note_on_c, 0, 76, 64
2, 4560, Note_on_c, 0, 76, 0
2, 4560, Note_on_c, 0, 79, 64
2, 4620, Note_on_c, 0, 79, 0
2, 4620, Note_on_c, 0, 77, 64
2, 4680, Note_on_c, 0, 77, 0
2, 4680, Note_on_c, 0, 75, 64
2, 4740, Note_on_c, 0, 75, 0
2, 4740, Note_on_c, 0, 74, 64
2, 4800, Note_on_c, 0, 74, 0
2, 4800, Note_on_c, 0, 74, 64
2, 4920, Note_on_c, 0, 74, 0
2, 4920, Note_on_c, 0, 72, 64
2, 5160, Note_on_c, 0, 72, 0
2, 5160, Note_on_c, 0, 70, 64
2, 5280, Note_on_c, 0, 70, 0
2, 5280, Note_on_c, 0, 74, 64
2, 5400, Note_on_c, 0, 74, 0
2, 5400, Note_on_c, 0, 72, 64
2, 5640, Note_on_c, 0, 72, 0
2, 5640, Note_on_c, 0, 69, 64
2, 5760, Note_on_c, 0, 69, 0
2, 5760, Note_on_c, 0, 70, 64
2, 5820, Note_on_c, 0, 70, 0
2, 5820, Note_on_c, 0, 72, 64
2, 5880, Note_on_c, 0, 72, 0
2, 5880, Note_on_c, 0, 70, 64
2, 5940, Note_on_c, 0, 70, 0
2, 5940, Note_on_c, 0, 69, 64
2, 6000, Note_on_c, 0, 69, 0
2, 6000, Note_on_c, 0, 70, 64
2, 6060, Note_on_c, 0, 70, 0
2, 6060, Note_on_c, 0, 72, 64
2, 6120, Note_on_c, 0, 72, 0
2, 6120, Note_on_c, 0, 74, 64
2, 6180, Note_on_c, 0, 74, 0
2, 6180, Note_on_c, 0, 75, 64
2, 6240, Note_on_c, 0, 75, 0
2, 6240, Note_on_c, 0, 76, 64
2, 6300, Note_on_c, 0, 76, 0
2, 6300, Note_on_c, 0, 77, 64
2, 6360, Note_on_c, 0, 77, 0
2, 6360, Note_on_c, 0, 76, 64
2, 6420, Note_on_c, 0, 76, 0
2, 6420, Note_on_c, 0, 77, 64
2, 6480, Note_on_c, 0, 77, 0
2, 6480, Note_on_c, 0, 79, 64
2, 6540, Note_on_c, 0, 79, 0
2, 6540, Note_on_c, 0, 77, 64
2, 6600, Note_on_c, 0, 77, 0
2, 6600, Note_on_c, 0, 75, 64
2, 6660, Note_on_c, 0, 75, 0
2, 6660, Note_on_c, 0, 74, 64
2, 6720, Note_on_c, 0, 74, 0
2, 6720, Note_on_c, 0, 74, 64
2, 6840, Note_on_c, 0, 74, 0
2, 6840, Note_on_c, 0, 72, 64
2, 6960, Note_on_c, 0, 72, 0
2, 6960, Note_on_c, 0, 72, 64
2, 7080, Note_on_c, 0, 72, 0
2, 7080, Note_on_c, 0, 70, 64
2, 7200, Note_on_c, 0, 70, 0
2, 7200, Note_on_c, 0, 74, 64
2, 7320, Note_on_c, 0, 74, 0
2, 7320, Note_on_c, 0, 72, 64
2, 7440, Note_on_c, 0, 72, 0
2, 7440, Note_on_c, 0, 72, 64
2, 7560, Note_on_c, 0, 72, 0
2, 7560, Note_on_c, 0, 69, 64
2, 7680, Note_on_c, 0, 69, 0
2, 7680, Note_on_c, 0, 70, 64
2, 7800, Note_on_c, 0, 70, 0
2, 7800, Note_on_c, 0, 72, 64
2, 7860, Note_on_c, 0, 72, 0
2, 7860, Note_on_c, 0, 74, 64
2, 7920, Note_on_c, 0, 74, 0
2, 7920, Note_on_c, 0, 75, 64
2, 7980, Note_on_c, 0, 75, 0
2, 7980, Note_on_c, 0, 77, 64
2, 8040, Note_on_c, 0, 77, 0
2, 8040, Note_on_c, 0, 79, 64
2, 8100, Note_on_c, 0, 79, 0
2, 8100, Note_on_c, 0, 81, 64
2, 8160, Note_on_c, 0, 81, 0
2, 8160, Note_on_c, 0, 82, 64
2, 8220, Note_on_c, 0, 82, 0
2, 8220, Note_on_c, 0, 84, 64
2, 8280, Note_on_c, 0, 84, 0
2, 8280, Note_on_c, 0, 86, 64
2, 8340, Note_on_c, 0, 86, 0
2, 8340, Note_on_c, 0, 87, 64
2, 8400, Note_on_c, 0, 87, 0
2, 8400, Note_on_c, 0, 89, 64
2, 8520, Note_on_c, 0, 89, 0
2, 8520, Note_on_c, 0, 89, 64
2, 8640, Note_on_c, 0, 89, 0
2, 8640, Note_on_c, 0, 89, 64
2, 8640, Note_on_c, 0, 77, 64
2, 8760, Note_on_c, 0, 89, 0
2, 8760, Note_on_c, 0, 87, 64
2, 9000, Note_on_c, 0, 87, 0
2, 9000, Note_on_c, 0, 86, 64
2, 9120, Note_on_c, 0, 86, 0
2, 9120, Note_on_c, 0, 86, 64
2, 9240, Note_on_c, 0, 86, 0
2, 9240, Note_on_c, 0, 77, 0
2, 9240, Note_on_c, 0, 84, 64
2, 9240, Note_on_c, 0, 75, 64
2, 9360, Note_on_c, 0, 75, 0
2, 9360, Note_on_c, 0, 84, 0
2, 9360, Note_on_c, 0, 82, 64
2, 9360, Note_on_c, 0, 74, 64
2, 9480, Note_on_c, 0, 74, 0
2, 9480, Note_on_c, 0, 82, 0
2, 9480, Note_on_c, 0, 81, 64
2, 9480, Note_on_c, 0, 72, 64
2, 9600, Note_on_c, 0, 72, 0
2, 9600, Note_on_c, 0, 81, 0
2, 9600, Note_on_c, 0, 74, 64
2, 9600, Note_on_c, 0, 82, 64
2, 9840, Note_on_c, 0, 82, 0
2, 9840, Note_on_c, 0, 74, 0
2, 9840, Note_on_c, 0, 70, 64
2, 10080, Note_on_c, 0, 70, 0
2, 10320, Note_on_c, 0, 67, 64
2, 10380, Note_on_c, 0, 67, 0
2, 10380, Note_on_c, 0, 65, 64
2, 10440, Note_on_c, 0, 65, 0
2, 10440, Note_on_c, 0, 63, 64
2, 10500, Note_on_c, 0, 63, 0
2, 10500, Note_on_c, 0, 62, 64
2, 10560, Note_on_c, 0, 62, 0
2, 10560, Note_on_c, 0, 60, 64
2, 10680, Note_on_c, 0, 60, 0
2, 10680, Note_on_c, 0, 58, 64
2, 10800, Note_on_c, 0, 58, 0
2, 10800, Note_on_c, 0, 58, 64
2, 11160, Note_on_c, 0, 58, 0
2, 11160, Note_on_c, 0, 70, 64
2, 11280, Note_on_c, 0, 70, 0
2, 11280, Note_on_c, 0, 69, 64
2, 11400, Note_on_c, 0, 69, 0
2, 11400, Note_on_c, 0, 67, 64
2, 11520, Note_on_c, 0, 67, 0
2, 11520, Note_on_c, 0, 65, 64
2, 11760, Note_on_c, 0, 65, 0
2, 11760, Note_on_c, 0, 64, 64
2, 12060, Note_on_c, 0, 64, 0
2, 12060, Note_on_c, 0, 67, 64
2, 12120, Note_on_c, 0, 67, 0
2, 12120, Note_on_c, 0, 65, 64
2, 12180, Note_on_c, 0, 65, 0
2, 12180, Note_on_c, 0, 69, 64
2, 12240, Note_on_c, 0, 69, 0
2, 12240, Note_on_c, 0, 67, 64
2, 12300, Note_on_c, 0, 67, 0
2, 12300, Note_on_c, 0, 70, 64
2, 12360, Note_on_c, 0, 70, 0
2, 12360, Note_on_c, 0, 69, 64
2, 12420, Note_on_c, 0, 69, 0
2, 12420, Note_on_c, 0, 72, 64
2, 12480, Note_on_c, 0, 72, 0
2, 12480, Note_on_c, 0, 70, 64
2, 12540, Note_on_c, 0, 70, 0
2, 12540, Note_on_c, 0, 67, 64
2, 12600, Note_on_c, 0, 67, 0
2, 12600, Note_on_c, 0, 76, 64
2, 12660, Note_on_c, 0, 76, 0
2, 12660, Note_on_c, 0, 72, 64
2, 12720, Note_on_c, 0, 72, 0
2, 12720, Note_on_c, 0, 79, 64
2, 12780, Note_on_c, 0, 79, 0
2, 12780, Note_on_c, 0, 76, 64
2, 12840, Note_on_c, 0, 76, 0
2, 12840, Note_on_c, 0, 82, 64
2, 12900, Note_on_c, 0, 82, 0
2, 12900, Note_on_c, 0, 81, 64
2, 12960, Note_on_c, 0, 81, 0
2, 12960, Note_on_c, 0, 82, 64
2, 13020, Note_on_c, 0, 82, 0
2, 13020, Note_on_c, 0, 81, 64
2, 13080, Note_on_c, 0, 81, 0
2, 13080, Note_on_c, 0, 79, 64
2, 13140, Note_on_c, 0, 79, 0
2, 13140, Note_on_c, 0, 77, 64
2, 13200, Note_on_c, 0, 77, 0
2, 13200, Note_on_c, 0, 76, 64
2, 13260, Note_on_c, 0, 76, 0
2, 13260, Note_on_c, 0, 74, 64
2, 13320, Note_on_c, 0, 74, 0
2, 13320, Note_on_c, 0, 72, 64
2, 13380, Note_on_c, 0, 72, 0
2, 13380, Note_on_c, 0, 70, 64
2, 13440, Note_on_c, 0, 70, 0
2, 13440, Note_on_c, 0, 70, 64
2, 13500, Note_on_c, 0, 70, 0
2, 13500, Note_on_c, 0, 69, 64
2, 13560, Note_on_c, 0, 69, 0
2, 13560, Note_on_c, 0, 74, 64
2, 13620, Note_on_c, 0, 74, 0
2, 13620, Note_on_c, 0, 72, 64
2, 13680, Note_on_c, 0, 72, 0
2, 13680, Note_on_c, 0, 72, 64
2, 13920, Note_on_c, 0, 72, 0
2, 14160, Note_on_c, 0, 86, 64
2, 14220, Note_on_c, 0, 86, 0
2, 14220, Note_on_c, 0, 84, 64
2, 14280, Note_on_c, 0, 84, 0
2, 14280, Note_on_c, 0, 82, 64
2, 14340, Note_on_c, 0, 82, 0
2, 14340, Note_on_c, 0, 81, 64
2, 14400, Note_on_c, 0, 81, 0
2, 14400, Note_on_c, 0, 79, 64
2, 14760, Note_on_c, 0, 79, 0
2, 14760, Note_on_c, 0, 76, 64
2, 14880, Note_on_c, 0, 76, 0
2, 14880, Note_on_c, 0, 77, 64
2, 14940, Note_on_c, 0, 77, 0
2, 14940, Note_on_c, 0, 84, 64
2, 15000, Note_on_c, 0, 84, 0
2, 15000, Note_on_c, 0, 83, 64
2, 15060, Note_on_c, 0, 83, 0
2, 15060, Note_on_c, 0, 84, 64
2, 15120, Note_on_c, 0, 84, 0
2, 15120, Note_on_c, 0, 86, 64
2, 15180, Note_on_c, 0, 86, 0
2, 15180, Note_on_c, 0, 84, 64
2, 15240, Note_on_c, 0, 84, 0
2, 15240, Note_on_c, 0, 82, 64
2, 15300, Note_on_c, 0, 82, 0
2, 15300, Note_on_c, 0, 81, 64
2, 15360, Note_on_c, 0, 81, 0
2, 15360, Note_on_c, 0, 79, 64
2, 15480, Note_on_c, 0, 79, 0
2, 15480, Note_on_c, 0, 79, 64
2, 15720, Note_on_c, 0, 79, 0
2, 15720, Note_on_c, 0, 76, 64
2, 15840, Note_on_c, 0, 76, 0
2, 15840, Note_on_c, 0, 77, 64
2, 15900, Note_on_c, 0, 77, 0
2, 15900, Note_on_c, 0, 84, 64
2, 15960, Note_on_c, 0, 84, 0
2, 15960, Note_on_c, 0, 83, 64
2, 16020, Note_on_c, 0, 83, 0
2, 16020, Note_on_c, 0, 84, 64
2, 16080, Note_on_c, 0, 84, 0
2, 16080, Note_on_c, 0, 86, 64
2, 16140, Note_on_c, 0, 86, 0
2, 16140, Note_on_c, 0, 84, 64
2, 16200, Note_on_c, 0, 84, 0
2, 16200, Note_on_c, 0, 82, 64
2, 16260, Note_on_c, 0, 82, 0
2, 16260, Note_on_c, 0, 81, 64
2, 16320, Note_on_c, 0, 81, 0
2, 16320, Note_on_c, 0, 81, 64
2, 16440, Note_on_c, 0, 81, 0
2, 16440, Note_on_c, 0, 79, 64
2, 16560, Note_on_c, 0, 79, 0
2, 16680, Note_on_c, 0, 79, 64
2, 16800, Note_on_c, 0, 79, 0
2, 16800, Note_on_c, 0, 79, 64
2, 16920, Note_on_c, 0, 79, 0
2, 16920, Note_on_c, 0, 77, 64
2, 17040, Note_on_c, 0, 77, 0
2, 17160, Note_on_c, 0, 77, 64
2, 17280, Note_on_c, 0, 77, 0
2, 17280, Note_on_c, 0, 76, 64
2, 17340, Note_on_c, 0, 76, 0
2, 17340, Note_on_c, 0, 77, 64
2, 17400, Note_on_c, 0, 77, 0
2, 17400, Note_on_c, 0, 76, 64
2, 17460, Note_on_c, 0, 76, 0
2, 17460, Note_on_c, 0, 72, 64
2, 17520, Note_on_c, 0, 72, 0
2, 17520, Note_on_c, 0, 77, 64
2, 17580, Note_on_c, 0, 77, 0
2, 17580, Note_on_c, 0, 79, 64
2, 17640, Note_on_c, 0, 79, 0
2, 17640, Note_on_c, 0, 77, 64
2, 17700, Note_on_c, 0, 77, 0
2, 17700, Note_on_c, 0, 72, 64
2, 17760, Note_on_c, 0, 72, 0
2, 17760, Note_on_c, 0, 79, 64
2, 17820, Note_on_c, 0, 79, 0
2, 17820, Note_on_c, 0, 81, 64
2, 17880, Note_on_c, 0, 81, 0
2, 17880, Note_on_c, 0, 79, 64
2, 17940, Note_on_c, 0, 79, 0
2, 17940, Note_on_c, 0, 72, 64
2, 18000, Note_on_c, 0, 72, 0
2, 18000, Note_on_c, 0, 81, 64
2, 18060, Note_on_c, 0, 81, 0
2, 18060, Note_on_c, 0, 82, 64
2, 18120, Note_on_c, 0, 82, 0
2, 18120, Note_on_c, 0, 81, 64
2, 18180, Note_on_c, 0, 81, 0
2, 18180, Note_on_c, 0, 72, 64
2, 18240, Note_on_c, 0, 72, 0
2, 18240, Note_on_c, 0, 82, 64
2, 18360, Note_on_c, 0, 82, 0
2, 18360, Note_on_c, 0, 82, 64
2, 18480, Note_on_c, 0, 82, 0
2, 18600, Note_on_c, 0, 79, 64
2, 18720, Note_on_c, 0, 79, 0
2, 18720, Note_on_c, 0, 82, 64
2, 18840, Note_on_c, 0, 82, 0
2, 18840, Note_on_c, 0, 81, 64
2, 18960, Note_on_c, 0, 81, 0
2, 18960, Note_on_c, 0, 79, 64
2, 19080, Note_on_c, 0, 79, 0
2, 19080, Note_on_c, 0, 77, 64
2, 19200, Note_on_c, 0, 77, 0
2, 19200, Note_on_c, 0, 76, 64
2, 19260, Note_on_c, 0, 76, 0
2, 19260, Note_on_c, 0, 72, 64
2, 19320, Note_on_c, 0, 72, 0
2, 19320, Note_on_c, 0, 83, 64
2, 19380, Note_on_c, 0, 83, 0
2, 19380, Note_on_c, 0, 84, 64
2, 19440, Note_on_c, 0, 84, 0
2, 19440, Note_on_c, 0, 77, 64
2, 19500, Note_on_c, 0, 77, 0
2, 19500, Note_on_c, 0, 72, 64
2, 19560, Note_on_c, 0, 72, 0
2, 19560, Note_on_c, 0, 83, 64
2, 19620, Note_on_c, 0, 83, 0
2, 19620, Note_on_c, 0, 84, 64
2, 19680, Note_on_c, 0, 84, 0
2, 19680, Note_on_c, 0, 79, 64
2, 19740, Note_on_c, 0, 79, 0
2, 19740, Note_on_c, 0, 72, 64
2, 19800, Note_on_c, 0, 72, 0
2, 19800, Note_on_c, 0, 83, 64
2, 19860, Note_on_c, 0, 83, 0
2, 19860, Note_on_c, 0, 84, 64
2, 19920, Note_on_c, 0, 84, 0
2, 19920, Note_on_c, 0, 81, 64
2, 19980, Note_on_c, 0, 81, 0
2, 19980, Note_on_c, 0, 72, 64
2, 20040, Note_on_c, 0, 72, 0
2, 20040, Note_on_c, 0, 83, 64
2, 20100, Note_on_c, 0, 83, 0
2, 20100, Note_on_c, 0, 84, 64
2, 20160, Note_on_c, 0, 84, 0
2, 20160, Note_on_c, 0, 82, 64
2, 20280, Note_on_c, 0, 82, 0
2, 20280, Note_on_c, 0, 82, 64
2, 20400, Note_on_c, 0, 82, 0
2, 20520, Note_on_c, 0, 79, 64
2, 20560, Note_on_c, 0, 79, 0
2, 20560, Note_on_c, 0, 81, 64
2, 20600, Note_on_c, 0, 81, 0
2, 20600, Note_on_c, 0, 79, 64
2, 20640, Note_on_c, 0, 79, 0
2, 20640, Note_on_c, 0, 82, 64
2, 20760, Note_on_c, 0, 82, 0
2, 20760, Note_on_c, 0, 81, 64
2, 20880, Note_on_c, 0, 81, 0
2, 20880, Note_on_c, 0, 79, 64
2, 21000, Note_on_c, 0, 79, 0
2, 21000, Note_on_c, 0, 77, 64
2, 21120, Note_on_c, 0, 77, 0
2, 21120, Note_on_c, 0, 76, 64
2, 21180, Note_on_c, 0, 76, 0
2, 21180, Note_on_c, 0, 84, 64
2, 21240, Note_on_c, 0, 84, 0
2, 21240, Note_on_c, 0, 79, 64
2, 21300, Note_on_c, 0, 79, 0
2, 21300, Note_on_c, 0, 76, 64
2, 21360, Note_on_c, 0, 76, 0
2, 21360, Note_on_c, 0, 72, 64
2, 21420, Note_on_c, 0, 72, 0
2, 21420, Note_on_c, 0, 67, 64
2, 21480, Note_on_c, 0, 67, 0
2, 21480, Note_on_c, 0, 64, 64
2, 21540, Note_on_c, 0, 64, 0
2, 21540, Note_on_c, 0, 60, 64
2, 21600, Note_on_c, 0, 60, 0
2, 22080, Note_on_c, 0, 60, 64
2, 22080, Note_on_c, 0, 65, 64
2, 22080, Note_on_c, 0, 69, 64
2, 22080, Note_on_c, 0, 72, 64
2, 22440, Note_on_c, 0, 72, 0
2, 22440, Note_on_c, 0, 60, 0
2, 22440, Note_on_c, 0, 65, 0
2, 22440, Note_on_c, 0, 69, 0
2, 22440, Note_on_c, 0, 74, 64
2, 22500, Note_on_c, 0, 74, 0
2, 22500, Note_on_c, 0, 72, 64
2, 22560, Note_on_c, 0, 72, 0
2, 22560, Note_on_c, 0, 70, 64
2, 22680, Note_on_c, 0, 70, 0
2, 22680, Note_on_c, 0, 69, 64
2, 22800, Note_on_c, 0, 69, 0
2, 22800, Note_on_c, 0, 67, 64
2, 22920, Note_on_c, 0, 67, 0
2, 22920, Note_on_c, 0, 65, 64
2, 23040, Note_on_c, 0, 65, 0
2, 23040, Note_on_c, 0, 65, 64
2, 23160, Note_on_c, 0, 65, 0
2, 23160, Note_on_c, 0, 74, 64
2, 23280, Note_on_c, 0, 74, 0
2, 23280, Note_on_c, 0, 65, 64
2, 23280, Note_on_c, 0, 74, 64
2, 23640, Note_on_c, 0, 74, 0
2, 23640, Note_on_c, 0, 65, 0
2, 23640, Note_on_c, 0, 72, 64
2, 23760, Note_on_c, 0, 72, 0
2, 23760, Note_on_c, 0, 76, 64
2, 23880, Note_on_c, 0, 76, 0
2, 23880, Note_on_c, 0, 77, 64
2, 24000, Note_on_c, 0, 77, 0
2, 24000, Note_on_c, 0, 77, 64
2, 24120, Note_on_c, 0, 77, 0
2, 24120, Note_on_c, 0, 67, 64
2, 24360, Note_on_c, 0, 67, 0
2, 24360, Note_on_c, 0, 69, 64
2, 24480, Note_on_c, 0, 69, 0
2, 24480, Note_on_c, 0, 77, 64
2, 24600, Note_on_c, 0, 77, 0
2, 24600, Note_on_c, 0, 67, 64
2, 24840, Note_on_c, 0, 67, 0
2, 24840, Note_on_c, 0, 69, 64
2, 24960, Note_on_c, 0, 69, 0
2, 24960, Note_on_c, 0, 72, 64
2, 25200, Note_on_c, 0, 72, 0
2, 25200, Note_on_c, 0, 70, 64
2, 25240, Note_on_c, 0, 70, 0
2, 25240, Note_on_c, 0, 72, 64
2, 25280, Note_on_c, 0, 72, 0
2, 25280, Note_on_c, 0, 70, 64
2, 25320, Note_on_c, 0, 70, 0
2, 25320, Note_on_c, 0, 72, 64
2, 25350, Note_on_c, 0, 72, 0
2, 25350, Note_on_c, 0, 70, 64
2, 25380, Note_on_c, 0, 70, 0
2, 25380, Note_on_c, 0, 69, 64
2, 25410, Note_on_c, 0, 69, 0
2, 25410, Note_on_c, 0, 70, 64
2, 25440, Note_on_c, 0, 70, 0
2, 25440, Note_on_c, 0, 69, 64
2, 25560, Note_on_c, 0, 69, 0
2, 25560, Note_on_c, 0, 69, 64
2, 25680, Note_on_c, 0, 69, 0
2, 25680, Note_on_c, 0, 70, 64
2, 25800, Note_on_c, 0, 70, 0
2, 25800, Note_on_c, 0, 72, 64
2, 25920, Note_on_c, 0, 72, 0
2, 25920, Note_on_c, 0, 73, 64
2, 26040, Note_on_c, 0, 73, 0
2, 26040, Note_on_c, 0, 74, 64
2, 26280, Note_on_c, 0, 74, 0
2, 26280, Note_on_c, 0, 72, 64
2, 26340, Note_on_c, 0, 72, 0
2, 26340, Note_on_c, 0, 70, 64
2, 26400, Note_on_c, 0, 70, 0
2, 26400, Note_on_c, 0, 69, 64
2, 26520, Note_on_c, 0, 69, 0
2, 26520, Note_on_c, 0, 67, 64
2, 26640, Note_on_c, 0, 67, 0
2, 26640, Note_on_c, 0, 69, 64
2, 26760, Note_on_c, 0, 69, 0
2, 26760, Note_on_c, 0, 70, 64
2, 26880, Note_on_c, 0, 70, 0
2, 26880, Note_on_c, 0, 74, 64
2, 27000, Note_on_c, 0, 74, 0
2, 27000, Note_on_c, 0, 72, 64
2, 27240, Note_on_c, 0, 72, 0
2, 27240, Note_on_c, 0, 70, 64
2, 27300, Note_on_c, 0, 70, 0
2, 27300, Note_on_c, 0, 69, 64
2, 27360, Note_on_c, 0, 69, 0
2, 27360, Note_on_c, 0, 67, 64
2, 27480, Note_on_c, 0, 67, 0
2, 27480, Note_on_c, 0, 65, 64
2, 27600, Note_on_c, 0, 65, 0
2, 27600, Note_on_c, 0, 67, 64
2, 27720, Note_on_c, 0, 67, 0
2, 27720, Note_on_c, 0, 69, 64
2, 27840, Note_on_c, 0, 69, 0
2, 27840, Note_on_c, 0, 72, 64
2, 27960, Note_on_c, 0, 72, 0
2, 27960, Note_on_c, 0, 70, 64
2, 28200, Note_on_c, 0, 70, 0
2, 28200, Note_on_c, 0, 67, 64
2, 28320, Note_on_c, 0, 67, 0
2, 28320, Note_on_c, 0, 70, 64
2, 28440, Note_on_c, 0, 70, 0
2, 28440, Note_on_c, 0, 69, 64
2, 28680, Note_on_c, 0, 69, 0
2, 28680, Note_on_c, 0, 65, 64
2, 28800, Note_on_c, 0, 65, 0
2, 28800, Note_on_c, 0, 64, 64
2, 28860, Note_on_c, 0, 64, 0
2, 28860, Note_on_c, 0, 65, 64
2, 28920, Note_on_c, 0, 65, 0
2, 28920, Note_on_c, 0, 67, 64
2, 28980, Note_on_c, 0, 67, 0
2, 28980, Note_on_c, 0, 69, 64
2, 29040, Note_on_c, 0, 69, 0
2, 29040, Note_on_c, 0, 71, 64
2, 29100, Note_on_c, 0, 71, 0
2, 29100, Note_on_c, 0, 72, 64
2, 29160, Note_on_c, 0, 72, 0
2, 29160, Note_on_c, 0, 71, 64
2, 29220, Note_on_c, 0, 71, 0
2, 29220, Note_on_c, 0, 72, 64
2, 29280, Note_on_c, 0, 72, 0
2, 29280, Note_on_c, 0, 60, 64
2, 29520, Note_on_c, 0, 60, 0
2, 29760, Note_on_c, 0, 69, 64
2, 29760, Note_on_c, 0, 72, 64
2, 30120, Note_on_c, 0, 72, 0
2, 30120, Note_on_c, 0, 69, 0
2, 30120, Note_on_c, 0, 74, 64
2, 30180, Note_on_c, 0, 74, 0
2, 30180, Note_on_c, 0, 72, 64
2, 30240, Note_on_c, 0, 72, 0
2, 30240, Note_on_c, 0, 70, 64
2, 30360, Note_on_c, 0, 70, 0
2, 30360, Note_on_c, 0, 69, 64
2, 30480, Note_on_c, 0, 69, 0
2, 30480, Note_on_c, 0, 67, 64
2, 30600, Note_on_c, 0, 67, 0
2, 30600, Note_on_c, 0, 65, 64
2, 30720, Note_on_c, 0, 65, 0
2, 30720, Note_on_c, 0, 65, 64
2, 30840, Note_on_c, 0, 65, 0
2, 30840, Note_on_c, 0, 74, 64
2, 30960, Note_on_c, 0, 74, 0
2, 30960, Note_on_c, 0, 65, 64
2, 30960, Note_on_c, 0, 74, 64
2, 31320, Note_on_c, 0, 74, 0
2, 31320, Note_on_c, 0, 65, 0
2, 31320, Note_on_c, 0, 72, 64
2, 31440, Note_on_c, 0, 72, 0
2, 31440, Note_on_c, 0, 76, 64
2, 31560, Note_on_c, 0, 76, 0
2, 31560, Note_on_c, 0, 77, 64
2, 31800, Note_on_c, 0, 77, 0
2, 31800, Note_on_c, 0, 67, 64
2, 31920, Note_on_c, 0, 67, 0
2, 31920, Note_on_c, 0, 69, 64
2, 32040, Note_on_c, 0, 69, 0
2, 32040, Note_on_c, 0, 77, 64
2, 32280, Note_on_c, 0, 77, 0
2, 32280, Note_on_c, 0, 67, 64
2, 32400, Note_on_c, 0, 67, 0
2, 32400, Note_on_c, 0, 69, 64
2, 32520, Note_on_c, 0, 69, 0
2, 32520, Note_on_c, 0, 77, 64
2, 32640, Note_on_c, 0, 77, 0
2, 32640, Note_on_c, 0, 72, 64
2, 32880, Note_on_c, 0, 72, 0
2, 32880, Note_on_c, 0, 71, 64
2, 33000, Note_on_c, 0, 71, 0
2, 33000, Note_on_c, 0, 70, 64
2, 33120, Note_on_c, 0, 70, 0
2, 33120, Note_on_c, 0, 69, 64
2, 33240, Note_on_c, 0, 69, 0
2, 33240, Note_on_c, 0, 69, 64
2, 33360, Note_on_c, 0, 69, 0
2, 33360, Note_on_c, 0, 70, 64
2, 33480, Note_on_c, 0, 70, 0
2, 33480, Note_on_c, 0, 72, 64
2, 33600, Note_on_c, 0, 72, 0
2, 33600, Note_on_c, 0, 73, 64
2, 33660, Note_on_c, 0, 73, 0
2, 33660, Note_on_c, 0, 74, 64
2, 33960, Note_on_c, 0, 74, 0
2, 33960, Note_on_c, 0, 76, 64
2, 34020, Note_on_c, 0, 76, 0
2, 34020, Note_on_c, 0, 78, 64
2, 34080, Note_on_c, 0, 78, 0
2, 34080, Note_on_c, 0, 79, 64
2, 34140, Note_on_c, 0, 79, 0
2, 34140, Note_on_c, 0, 81, 64
2, 34200, Note_on_c, 0, 81, 0
2, 34200, Note_on_c, 0, 82, 64
2, 34260, Note_on_c, 0, 82, 0
2, 34260, Note_on_c, 0, 81, 64
2, 34320, Note_on_c, 0, 81, 0
2, 34320, Note_on_c, 0, 79, 64
2, 34380, Note_on_c, 0, 79, 0
2, 34380, Note_on_c, 0, 81, 64
2, 34440, Note_on_c, 0, 81, 0
2, 34440, Note_on_c, 0, 77, 64
2, 34500, Note_on_c, 0, 77, 0
2, 34500, Note_on_c, 0, 79, 64
2, 34560, Note_on_c, 0, 79, 0
2, 34560, Note_on_c, 0, 76, 64
2, 34620, Note_on_c, 0, 76, 0
2, 34620, Note_on_c, 0, 77, 64
2, 34680, Note_on_c, 0, 77, 0
2, 34680, Note_on_c, 0, 74, 64
2, 34740, Note_on_c, 0, 74, 0
2, 34740, Note_on_c, 0, 76, 64
2, 34800, Note_on_c, 0, 76, 0
2, 34800, Note_on_c, 0, 72, 64
2, 34860, Note_on_c, 0, 72, 0
2, 34860, Note_on_c, 0, 74, 64
2, 34920, Note_on_c, 0, 74, 0
2, 34920, Note_on_c, 0, 70, 64
2, 34980, Note_on_c, 0, 70, 0
2, 34980, Note_on_c, 0, 72, 64
2, 35040, Note_on_c, 0, 72, 0
2, 35040, Note_on_c, 0, 69, 64
2, 35100, Note_on_c, 0, 69, 0
2, 35100, Note_on_c, 0, 70, 64
2, 35160, Note_on_c, 0, 70, 0
2, 35160, Note_on_c, 0, 72, 64
2, 35220, Note_on_c, 0, 72, 0
2, 35220, Note_on_c, 0, 74, 64
2, 35280, Note_on_c, 0, 74, 0
2, 35280, Note_on_c, 0, 76, 64
2, 35340, Note_on_c, 0, 76, 0
2, 35340, Note_on_c, 0, 77, 64
2, 35400, Note_on_c, 0, 77, 0
2, 35400, Note_on_c, 0, 76, 64
2, 35460, Note_on_c, 0, 76, 0
2, 35460, Note_on_c, 0, 77, 64
2, 35520, Note_on_c, 0, 77, 0
2, 35520, Note_on_c, 0, 79, 64
2, 35580, Note_on_c, 0, 79, 0
2, 35580, Note_on_c, 0, 77, 64
2, 35640, Note_on_c, 0, 77, 0
2, 35640, Note_on_c, 0, 76, 64
2, 35700, Note_on_c, 0, 76, 0
2, 35700, Note_on_c, 0, 74, 64
2, 35760, Note_on_c, 0, 74, 0
2, 35760, Note_on_c, 0, 76, 64
2, 35820, Note_on_c, 0, 76, 0
2, 35820, Note_on_c, 0, 74, 64
2, 35880, Note_on_c, 0, 74, 0
2, 35880, Note_on_c, 0, 72, 64
2, 35940, Note_on_c, 0, 72, 0
2, 35940, Note_on_c, 0, 70, 64
2, 36000, Note_on_c, 0, 70, 0
2, 36000, Note_on_c, 0, 69, 64
2, 36240, Note_on_c, 0, 69, 0
2, 36240, Note_on_c, 0, 67, 64
2, 36240, Note_on_c, 0, 64, 64
2, 36280, Note_on_c, 0, 67, 0
2, 36280, Note_on_c, 0, 69, 64
2, 36320, Note_on_c, 0, 69, 0
2, 36320, Note_on_c, 0, 67, 64
2, 36360, Note_on_c, 0, 67, 0
2, 36360, Note_on_c, 0, 69, 64
2, 36390, Note_on_c, 0, 69, 0
2, 36390, Note_on_c, 0, 67, 64
2, 36420, Note_on_c, 0, 67, 0
2, 36420, Note_on_c, 0, 65, 64
2, 36450, Note_on_c, 0, 65, 0
2, 36450, Note_on_c, 0, 67, 64
2, 36480, Note_on_c, 0, 67, 0
2, 36480, Note_on_c, 0, 64, 0
2, 36480, Note_on_c, 0, 65, 64
2, 36720, Note_on_c, 0, 65, 0
2, 37440, Note_on_c, 0, 82, 64
2, 37560, Note_on_c, 0, 82, 0
2, 37560, Note_on_c, 0, 79, 64
2, 37680, Note_on_c, 0, 79, 0
2, 37680, Note_on_c, 0, 76, 64
2, 37800, Note_on_c, 0, 76, 0
2, 37800, Note_on_c, 0, 76, 64
2, 37920, Note_on_c, 0, 76, 0
2, 37920, Note_on_c, 0, 82, 64
2, 38040, Note_on_c, 0, 82, 0
2, 38040, Note_on_c, 0, 79, 64
2, 38160, Note_on_c, 0, 79, 0
2, 38160, Note_on_c, 0, 76, 64
2, 38280, Note_on_c, 0, 76, 0
2, 38280, Note_on_c, 0, 76, 64
2, 38400, Note_on_c, 0, 76, 0
2, 38400, Note_on_c, 0, 77, 64
2, 38520, Note_on_c, 0, 77, 0
2, 38520, Note_on_c, 0, 79, 64
2, 38640, Note_on_c, 0, 79, 0
2, 38640, Note_on_c, 0, 81, 64
2, 38760, Note_on_c, 0, 81, 0
2, 38760, Note_on_c, 0, 82, 64
2, 38880, Note_on_c, 0, 82, 0
2, 38880, Note_on_c, 0, 83, 64
2, 39000, Note_on_c, 0, 83, 0
2, 39000, Note_on_c, 0, 84, 64
2, 39120, Note_on_c, 0, 84, 0
2, 39120, Note_on_c, 0, 83, 64
2, 39240, Note_on_c, 0, 83, 0
2, 39240, Note_on_c, 0, 84, 64
2, 39360, Note_on_c, 0, 84, 0
2, 39360, Note_on_c, 0, 82, 64
2, 39480, Note_on_c, 0, 82, 0
2, 39480, Note_on_c, 0, 79, 64
2, 39600, Note_on_c, 0, 79, 0
2, 39600, Note_on_c, 0, 76, 64
2, 39720, Note_on_c, 0, 76, 0
2, 39720, Note_on_c, 0, 76, 64
2, 39840, Note_on_c, 0, 76, 0
2, 39840, Note_on_c, 0, 82, 64
2, 39960, Note_on_c, 0, 82, 0
2, 39960, Note_on_c, 0, 79, 64
2, 40080, Note_on_c, 0, 79, 0
2, 40080, Note_on_c, 0, 76, 64
2, 40200, Note_on_c, 0, 76, 0
2, 40200, Note_on_c, 0, 76, 64
2, 40320, Note_on_c, 0, 76, 0
2, 40320, Note_on_c, 0, 77, 64
2, 40440, Note_on_c, 0, 77, 0
2, 40440, Note_on_c, 0, 79, 64
2, 40560, Note_on_c, 0, 79, 0
2, 40560, Note_on_c, 0, 81, 64
2, 40680, Note_on_c, 0, 81, 0
2, 40680, Note_on_c, 0, 82, 64
2, 40800, Note_on_c, 0, 82, 0
2, 40800, Note_on_c, 0, 83, 64
2, 40920, Note_on_c, 0, 83, 0
2, 40920, Note_on_c, 0, 84, 64
2, 41040, Note_on_c, 0, 84, 0
2, 41040, Note_on_c, 0, 83, 64
2, 41160, Note_on_c, 0, 83, 0
2, 41160, Note_on_c, 0, 84, 64
2, 41280, Note_on_c, 0, 84, 0
2, 41280, Note_on_c, 0, 74, 64
2, 41280, Note_on_c, 0, 86, 64
2, 41760, Note_on_c, 0, 86, 0
2, 41760, Note_on_c, 0, 74, 0
2, 41760, Note_on_c, 0, 76, 64
2, 41760, Note_on_c, 0, 64, 64
2, 42240, Note_on_c, 0, 64, 0
2, 42240, Note_on_c, 0, 76, 0
2, 42240, Note_on_c, 0, 82, 64
2, 42240, Note_on_c, 0, 70, 64
2, 42720, Note_on_c, 0, 70, 0
2, 42720, Note_on_c, 0, 82, 0
2, 42720, Note_on_c, 0, 81, 64
2, 42720, Note_on_c, 0, 69, 64
2, 43200, Note_on_c, 0, 69, 0
2, 43200, Note_on_c, 0, 81, 0
2, 43200, Note_on_c, 0, 81, 64
2, 43260, Note_on_c, 0, 81, 0
2, 43260, Note_on_c, 0, 79, 64
2, 43320, Note_on_c, 0, 79, 0
2, 43320, Note_on_c, 0, 82, 64
2, 43380, Note_on_c, 0, 82, 0
2, 43380, Note_on_c, 0, 81, 64
2, 43440, Note_on_c, 0, 81, 0
2, 43440, Note_on_c, 0, 84, 64
2, 43500, Note_on_c, 0, 84, 0
2, 43500, Note_on_c, 0, 82, 64
2, 43560, Note_on_c, 0, 82, 0
2, 43560, Note_on_c, 0, 81, 64
2, 43620, Note_on_c, 0, 81, 0
2, 43620, Note_on_c, 0, 79, 64
2, 43680, Note_on_c, 0, 79, 0
2, 43680, Note_on_c, 0, 77, 64
2, 43920, Note_on_c, 0, 77, 0
2, 43920, Note_on_c, 0, 76, 64
2, 44160, Note_on_c, 0, 76, 0
2, 44280, Note_on_c, 0, 77, 64
2, 44400, Note_on_c, 0, 77, 0
2, 44400, Note_on_c, 0, 76, 64
2, 44520, Note_on_c, 0, 76, 0
2, 44520, Note_on_c, 0, 77, 64
2, 44640, Note_on_c, 0, 77, 0
2, 44760, Note_on_c, 0, 75, 64
2, 44880, Note_on_c, 0, 75, 0
2, 44880, Note_on_c, 0, 74, 64
2, 45000, Note_on_c, 0, 74, 0
2, 45000, Note_on_c, 0, 75, 64
2, 45120, Note_on_c, 0, 75, 0
2, 45240, Note_on_c, 0, 74, 64
2, 45360, Note_on_c, 0, 74, 0
2, 45360, Note_on_c, 0, 86, 64
2, 45480, Note_on_c, 0, 86, 0
2, 45480, Note_on_c, 0, 86, 64
2, 45600, Note_on_c, 0, 86, 0
2, 45720, Note_on_c, 0, 86, 64
2, 45840, Note_on_c, 0, 86, 0
2, 45840, Note_on_c, 0, 74, 64
2, 45960, Note_on_c, 0, 74, 0
2, 45960, Note_on_c, 0, 74, 64
2, 46080, Note_on_c, 0, 74, 0
2, 46200, Note_on_c, 0, 72, 64
2, 46320, Note_on_c, 0, 72, 0
2, 46320, Note_on_c, 0, 84, 64
2, 46440, Note_on_c, 0, 84, 0
2, 46440, Note_on_c, 0, 84, 64
2, 46560, Note_on_c, 0, 84, 0
2, 46680, Note_on_c, 0, 84, 64
2, 46800, Note_on_c, 0, 84, 0
2, 46800, Note_on_c, 0, 72, 64
2, 46920, Note_on_c, 0, 72, 0
2, 46920, Note_on_c, 0, 72, 64
2, 47040, Note_on_c, 0, 72, 0
2, 47040, Note_on_c, 0, 73, 64
2, 47160, Note_on_c, 0, 73, 0
2, 47160, Note_on_c, 0, 74, 64
2, 47280, Note_on_c, 0, 74, 0
2, 47280, Note_on_c, 0, 76, 64
2, 47400, Note_on_c, 0, 76, 0
2, 47400, Note_on_c, 0, 77, 64
2, 47520, Note_on_c, 0, 77, 0
2, 47520, Note_on_c, 0, 65, 64
2, 47760, Note_on_c, 0, 65, 0
2, 47760, Note_on_c, 0, 69, 64
2, 47760, Note_on_c, 0, 64, 64
2, 47880, Note_on_c, 0, 69, 0
2, 47880, Note_on_c, 0, 67, 64
2, 48000, Note_on_c, 0, 67, 0
2, 48000, Note_on_c, 0, 64, 0
2, 48000, Note_on_c, 0, 65, 64
2, 48120, Note_on_c, 0, 65, 0
2, 48120, Note_on_c, 0, 65, 64
2, 48180, Note_on_c, 0, 65, 0
2, 48180, Note_on_c, 0, 69, 64
2, 48240, Note_on_c, 0, 69, 0
2, 48240, Note_on_c, 0, 67, 64
2, 48300, Note_on_c, 0, 67, 0
2, 48300, Note_on_c, 0, 70, 64
2, 48360, Note_on_c, 0, 70, 0
2, 48360, Note_on_c, 0, 69, 64
2, 48420, Note_on_c, 0, 69, 0
2, 48420, Note_on_c, 0, 72, 64
2, 48480, Note_on_c, 0, 72, 0
2, 48480, Note_on_c, 0, 70, 64
2, 48600, Note_on_c, 0, 70, 0
2, 48600, Note_on_c, 0, 65, 64
2, 48660, Note_on_c, 0, 65, 0
2, 48660, Note_on_c, 0, 69, 64
2, 48720, Note_on_c, 0, 69, 0
2, 48720, Note_on_c, 0, 67, 64
2, 48780, Note_on_c, 0, 67, 0
2, 48780, Note_on_c, 0, 70, 64
2, 48840, Note_on_c, 0, 70, 0
2, 48840, Note_on_c, 0, 69, 64
2, 48900, Note_on_c, 0, 69, 0
2, 48900, Note_on_c, 0, 72, 64
2, 48960, Note_on_c, 0, 72, 0
2, 48960, Note_on_c, 0, 70, 64
2, 49080, Note_on_c, 0, 70, 0
2, 49080, Note_on_c, 0, 65, 64
2, 49140, Note_on_c, 0, 65, 0
2, 49140, Note_on_c, 0, 69, 64
2, 49200, Note_on_c, 0, 69, 0
2, 49200, Note_on_c, 0, 67, 64
2, 49260, Note_on_c, 0, 67, 0
2, 49260, Note_on_c, 0, 70, 64
2, 49320, Note_on_c, 0, 70, 0
2, 49320, Note_on_c, 0, 69, 64
2, 49380, Note_on_c, 0, 69, 0
2, 49380, Note_on_c, 0, 72, 64
2, 49440, Note_on_c, 0, 72, 0
2, 49440, Note_on_c, 0, 70, 64
2, 49500, Note_on_c, 0, 70, 0
2, 49500, Note_on_c, 0, 74, 64
2, 49560, Note_on_c, 0, 74, 0
2, 49560, Note_on_c, 0, 72, 64
2, 49620, Note_on_c, 0, 72, 0
2, 49620, Note_on_c, 0, 75, 64
2, 49680, Note_on_c, 0, 75, 0
2, 49680, Note_on_c, 0, 74, 64
2, 49740, Note_on_c, 0, 74, 0
2, 49740, Note_on_c, 0, 77, 64
2, 49800, Note_on_c, 0, 77, 0
2, 49800, Note_on_c, 0, 76, 64
2, 49860, Note_on_c, 0, 76, 0
2, 49860, Note_on_c, 0, 79, 64
2, 49920, Note_on_c, 0, 79, 0
2, 49920, Note_on_c, 0, 77, 64
2, 49980, Note_on_c, 0, 77, 0
2, 49980, Note_on_c, 0, 79, 64
2, 50040, Note_on_c, 0, 79, 0
2, 50040, Note_on_c, 0, 81, 64
2, 50100, Note_on_c, 0, 81, 0
2, 50100, Note_on_c, 0, 79, 64
2, 50160, Note_on_c, 0, 79, 0
2, 50160, Note_on_c, 0, 77, 64
2, 50220, Note_on_c, 0, 77, 0
2, 50220, Note_on_c, 0, 75, 64
2, 50280, Note_on_c, 0, 75, 0
2, 50280, Note_on_c, 0, 74, 64
2, 50340, Note_on_c, 0, 74, 0
2, 50340, Note_on_c, 0, 73, 64
2, 50400, Note_on_c, 0, 73, 0
2, 50400, Note_on_c, 0, 74, 64
2, 50460, Note_on_c, 0, 74, 0
2, 50460, Note_on_c, 0, 72, 64
2, 50520, Note_on_c, 0, 72, 0
2, 50520, Note_on_c, 0, 70, 64
2, 50580, Note_on_c, 0, 70, 0
2, 50580, Note_on_c, 0, 69, 64
2, 50640, Note_on_c, 0, 69, 0
2, 50640, Note_on_c, 0, 67, 64
2, 50700, Note_on_c, 0, 67, 0
2, 50700, Note_on_c, 0, 65, 64
2, 50760, Note_on_c, 0, 65, 0
2, 50760, Note_on_c, 0, 64, 64
2, 50820, Note_on_c, 0, 64, 0
2, 50820, Note_on_c, 0, 62, 64
2, 50880, Note_on_c, 0, 62, 0
2, 50880, Note_on_c, 0, 60, 64
2, 50940, Note_on_c, 0, 60, 0
2, 50940, Note_on_c, 0, 65, 64
2, 51000, Note_on_c, 0, 65, 0
2, 51000, Note_on_c, 0, 69, 64
2, 51060, Note_on_c, 0, 69, 0
2, 51060, Note_on_c, 0, 72, 64
2, 51120, Note_on_c, 0, 72, 0
2, 51120, Note_on_c, 0, 77, 64
2, 51240, Note_on_c, 0, 77, 0
2, 51240, Note_on_c, 0, 65, 64
2, 51240, Note_on_c, 0, 69, 64
2, 51360, Note_on_c, 0, 69, 0
2, 51360, Note_on_c, 0, 65, 0
2, 51360, Note_on_c, 0, 69, 64
2, 51360, Note_on_c, 0, 72, 64
2, 51480, Note_on_c, 0, 72, 0
2, 51480, Note_on_c, 0, 69, 0
2, 51480, Note_on_c, 0, 67, 64
2, 51480, Note_on_c, 0, 70, 64
2, 51600, Note_on_c, 0, 70, 0
2, 51600, Note_on_c, 0, 67, 0
2, 51600, Note_on_c, 0, 65, 64
2, 51600, Note_on_c, 0, 69, 64
2, 51720, Note_on_c, 0, 69, 0
2, 51720, Note_on_c, 0, 65, 0
2, 51720, Note_on_c, 0, 64, 64
2, 51720, Note_on_c, 0, 67, 64
2, 51840, Note_on_c, 0, 67, 0
2, 51840, Note_on_c, 0, 64, 0
2, 51840, Note_on_c, 0, 65, 64
2, 51960, Note_on_c, 0, 65, 0
2, 51960, Note_on_c, 0, 77, 64
2, 52020, Note_on_c, 0, 77, 0
2, 52020, Note_on_c, 0, 81, 64
2, 52080, Note_on_c, 0, 81, 0
2, 52080, Note_on_c, 0, 79, 64
2, 52140, Note_on_c, 0, 79, 0
2, 52140, Note_on_c, 0, 82, 64
2, 52200, Note_on_c, 0, 82, 0
2, 52200, Note_on_c, 0, 81, 64
2, 52260, Note_on_c, 0, 81, 0
2, 52260, Note_on_c, 0, 84, 64
2, 52320, Note_on_c, 0, 84, 0
2, 52320, Note_on_c, 0, 82, 64
2, 52440, Note_on_c, 0, 82, 0
2, 52440, Note_on_c, 0, 77, 64
2, 52500, Note_on_c, 0, 77, 0
2, 52500, Note_on_c, 0, 81, 64
2, 52560, Note_on_c, 0, 81, 0
2, 52560, Note_on_c, 0, 79, 64
2, 52620, Note_on_c, 0, 79, 0
2, 52620, Note_on_c, 0, 82, 64
2, 52680, Note_on_c, 0, 82, 0
2, 52680, Note_on_c, 0, 81, 64
2, 52740, Note_on_c, 0, 81, 0
2, 52740, Note_on_c, 0, 84, 64
2, 52800, Note_on_c, 0, 84, 0
2, 52800, Note_on_c, 0, 82, 64
2, 52920, Note_on_c, 0, 82, 0
2, 52920, Note_on_c, 0, 77, 64
2, 52980, Note_on_c, 0, 77, 0
2, 52980, Note_on_c, 0, 81, 64
2, 53040, Note_on_c, 0, 81, 0
2, 53040, Note_on_c, 0, 79, 64
2, 53100, Note_on_c, 0, 79, 0
2, 53100, Note_on_c, 0, 82, 64
2, 53160, Note_on_c, 0, 82, 0
2, 53160, Note_on_c, 0, 81, 64
2, 53220, Note_on_c, 0, 81, 0
2, 53220, Note_on_c, 0, 84, 64
2, 53280, Note_on_c, 0, 84, 0
2, 53280, Note_on_c, 0, 82, 64
2, 53340, Note_on_c, 0, 82, 0
2, 53340, Note_on_c, 0, 77, 64
2, 53400, Note_on_c, 0, 77, 0
2, 53400, Note_on_c, 0, 84, 64
2, 53460, Note_on_c, 0, 84, 0
2, 53460, Note_on_c, 0, 77, 64
2, 53520, Note_on_c, 0, 77, 0
2, 53520, Note_on_c, 0, 86, 64
2, 53580, Note_on_c, 0, 86, 0
2, 53580, Note_on_c, 0, 77, 64
2, 53640, Note_on_c, 0, 77, 0
2, 53640, Note_on_c, 0, 88, 64
2, 53700, Note_on_c, 0, 88, 0
2, 53700, Note_on_c, 0, 77, 64
2, 53760, Note_on_c, 0, 77, 0
2, 53760, Note_on_c, 0, 89, 64
2, 53820, Note_on_c, 0, 89, 0
2, 53820, Note_on_c, 0, 88, 64
2, 53880, Note_on_c, 0, 88, 0
2, 53880, Note_on_c, 0, 86, 64
2, 53940, Note_on_c, 0, 86, 0
2, 53940, Note_on_c, 0, 84, 64
2, 54000, Note_on_c, 0, 84, 0
2, 54000, Note_on_c, 0, 82, 64
2, 54060, Note_on_c, 0, 82, 0
2, 54060, Note_on_c, 0, 81, 64
2, 54120, Note_on_c, 0, 81, 0
2, 54120, Note_on_c, 0, 79, 64
2, 54180, Note_on_c, 0, 79, 0
2, 54180, Note_on_c, 0, 77, 64
2, 54240, Note_on_c, 0, 77, 0
2, 54240, Note_on_c, 0, 86, 64
2, 54300, Note_on_c, 0, 86, 0
2, 54300, Note_on_c, 0, 84, 64
2, 54360, Note_on_c, 0, 84, 0
2, 54360, Note_on_c, 0, 82, 64
2, 54420, Note_on_c, 0, 82, 0
2, 54420, Note_on_c, 0, 81, 64
2, 54480, Note_on_c, 0, 81, 0
2, 54480, Note_on_c, 0, 79, 64
2, 54540, Note_on_c, 0, 79, 0
2, 54540, Note_on_c, 0, 77, 64
2, 54600, Note_on_c, 0, 77, 0
2, 54600, Note_on_c, 0, 76, 64
2, 54660, Note_on_c, 0, 76, 0
2, 54660, Note_on_c, 0, 74, 64
2, 54720, Note_on_c, 0, 74, 0
2, 54720, Note_on_c, 0, 72, 64
2, 54840, Note_on_c, 0, 72, 0
2, 54840, Note_on_c, 0, 84, 64
2, 54960, Note_on_c, 0, 84, 0
2, 54960, Note_on_c, 0, 84, 64
2, 55080, Note_on_c, 0, 84, 0
2, 55080, Note_on_c, 0, 84, 64
2, 55200, Note_on_c, 0, 84, 0
2, 55200, Note_on_c, 0, 84, 64
2, 55260, Note_on_c, 0, 84, 0
2, 55260, Note_on_c, 0, 81, 64
2, 55320, Note_on_c, 0, 81, 0
2, 55320, Note_on_c, 0, 77, 64
2, 55380, Note_on_c, 0, 77, 0
2, 55380, Note_on_c, 0, 72, 64
2, 55440, Note_on_c, 0, 72, 0
2, 55440, Note_on_c, 0, 77, 64
2, 55500, Note_on_c, 0, 77, 0
2, 55500, Note_on_c, 0, 72, 64
2, 55560, Note_on_c, 0, 72, 0
2, 55560, Note_on_c, 0, 69, 64
2, 55620, Note_on_c, 0, 69, 0
2, 55620, Note_on_c, 0, 65, 64
2, 55680, Note_on_c, 0, 65, 0
2, 55680, Note_on_c, 0, 69, 64
2, 55720, Note_on_c, 0, 69, 0
2, 55720, Note_on_c, 0, 67, 64
2, 55760, Note_on_c, 0, 67, 0
2, 55760, Note_on_c, 0, 69, 64
2, 55800, Note_on_c, 0, 69, 0
2, 55800, Note_on_c, 0, 67, 64
2, 55840, Note_on_c, 0, 67, 0
2, 55840, Note_on_c, 0, 69, 64
2, 55880, Note_on_c, 0, 69, 0
2, 55880, Note_on_c, 0, 67, 64
2, 55920, Note_on_c, 0, 67, 0
2, 55920, Note_on_c, 0, 69, 64
2, 55960, Note_on_c, 0, 69, 0
2, 55960, Note_on_c, 0, 67, 64
2, 56000, Note_on_c, 0, 67, 0
2, 56000, Note_on_c, 0, 69, 64
2, 56040, Note_on_c, 0, 69, 0
2, 56040, Note_on_c, 0, 67, 64
2, 56080, Note_on_c, 0, 67, 0
2, 56080, Note_on_c, 0, 69, 64
2, 56120, Note_on_c, 0, 69, 0
2, 56120, Note_on_c, 0, 67, 64
2, 56160, Note_on_c, 0, 67, 0
2, 56160, Note_on_c, 0, 69, 64
2, 56200, Note_on_c, 0, 69, 0
2, 56200, Note_on_c, 0, 67, 64
2, 56240, Note_on_c, 0, 67, 0
2, 56240, Note_on_c, 0, 69, 64
2, 56280, Note_on_c, 0, 69, 0
2, 56280, Note_on_c, 0, 67, 64
2, 56320, Note_on_c, 0, 67, 0
2, 56320, Note_on_c, 0, 69, 64
2, 56360, Note_on_c, 0, 69, 0
2, 56360, Note_on_c, 0, 67, 64
2, 56400, Note_on_c, 0, 67, 0
2, 56400, Note_on_c, 0, 69, 64
2, 56440, Note_on_c, 0, 69, 0
2, 56440, Note_on_c, 0, 67, 64
2, 56480, Note_on_c, 0, 67, 0
2, 56480, Note_on_c, 0, 69, 64
2, 56520, Note_on_c, 0, 69, 0
2, 56520, Note_on_c, 0, 67, 64
2, 56560, Note_on_c, 0, 67, 0
2, 56560, Note_on_c, 0, 65, 64
2, 56600, Note_on_c, 0, 65, 0
2, 56600, Note_on_c, 0, 67, 64
2, 56640, Note_on_c, 0, 67, 0
2, 56640, Note_on_c, 0, 65, 64
2, 56760, Note_on_c, 0, 65, 0
2, 56760, Note_on_c, 0, 77, 64
2, 56880, Note_on_c, 0, 77, 0
2, 57000, Note_on_c, 0, 77, 64
2, 57120, Note_on_c, 0, 77, 0
2, 57120, Note_on_c, 0, 76, 64
2, 57240, Note_on_c, 0, 76, 0
2, 57240, Note_on_c, 0, 77, 64
2, 57360, Note_on_c, 0, 77, 0
2, 57360, Note_on_c, 0, 79, 64
2, 57480, Note_on_c, 0, 79, 0
2, 57480, Note_on_c, 0, 81, 64
2, 57600, Note_on_c, 0, 81, 0
2, 57600, Note_on_c, 0, 82, 64
2, 57660, Note_on_c, 0, 82, 0
2, 57660, Note_on_c, 0, 84, 64
2, 57720, Note_on_c, 0, 84, 0
2, 57720, Note_on_c, 0, 86, 64
2, 57780, Note_on_c, 0, 86, 0
2, 57780, Note_on_c, 0, 84, 64
2, 57840, Note_on_c, 0, 84, 0
2, 57840, Note_on_c, 0, 82, 64
2, 57900, Note_on_c, 0, 82, 0
2, 57900, Note_on_c, 0, 80, 64
2, 57960, Note_on_c, 0, 80, 0
2, 57960, Note_on_c, 0, 79, 64
2, 58020, Note_on_c, 0, 79, 0
2, 58020, Note_on_c, 0, 77, 64
2, 58080, Note_on_c, 0, 77, 0
2, 58080, Note_on_c, 0, 76, 64
2, 58140, Note_on_c, 0, 76, 0
2, 58140, Note_on_c, 0, 77, 64
2, 58200, Note_on_c, 0, 77, 0
2, 58200, Note_on_c, 0, 79, 64
2, 58260, Note_on_c, 0, 79, 0
2, 58260, Note_on_c, 0, 77, 64
2, 58320, Note_on_c, 0, 77, 0
2, 58320, Note_on_c, 0, 76, 64
2, 58380, Note_on_c, 0, 76, 0
2, 58380, Note_on_c, 0, 74, 64
2, 58440, Note_on_c, 0, 74, 0
2, 58440, Note_on_c, 0, 72, 64
2, 58500, Note_on_c, 0, 72, 0
2, 58500, Note_on_c, 0, 70, 64
2, 58560, Note_on_c, 0, 70, 0
2, 58560, Note_on_c, 0, 69, 64
2, 58680, Note_on_c, 0, 69, 0
2, 58680, Note_on_c, 0, 69, 64
2, 58800, Note_on_c, 0, 69, 0
2, 58920, Note_on_c, 0, 65, 64
2, 59040, Note_on_c, 0, 65, 0
2, 59040, Note_on_c, 0, 64, 64
2, 59160, Note_on_c, 0, 64, 0
2, 59160, Note_on_c, 0, 65, 64
2, 59280, Note_on_c, 0, 65, 0
2, 59280, Note_on_c, 0, 67, 64
2, 59400, Note_on_c, 0, 67, 0
2, 59400, Note_on_c, 0, 69, 64
2, 59520, Note_on_c, 0, 69, 0
2, 59520, Note_on_c, 0, 70, 64
2, 59640, Note_on_c, 0, 70, 0
2, 59640, Note_on_c, 0, 72, 64
2, 59670, Note_on_c, 0, 72, 0
2, 59670, Note_on_c, 0, 70, 64
2, 59700, Note_on_c, 0, 70, 0
2, 59700, Note_on_c, 0, 69, 64
2, 59730, Note_on_c, 0, 69, 0
2, 59730, Note_on_c, 0, 70, 64
2, 59760, Note_on_c, 0, 70, 0
2, 59760, Note_on_c, 0, 72, 64
2, 59880, Note_on_c, 0, 72, 0
2, 59880, Note_on_c, 0, 74, 64
2, 60000, Note_on_c, 0, 74, 0
2, 60000, Note_on_c, 0, 70, 64
2, 60000, Note_on_c, 0, 74, 64
2, 60120, Note_on_c, 0, 74, 0
2, 60120, Note_on_c, 0, 70, 0
2, 60120, Note_on_c, 0, 69, 64
2, 60120, Note_on_c, 0, 72, 64
2, 60240, Note_on_c, 0, 72, 0
2, 60240, Note_on_c, 0, 69, 0
2, 60360, Note_on_c, 0, 58, 64
2, 60360, Note_on_c, 0, 64, 64
2, 60480, Note_on_c, 0, 64, 0
2, 60480, Note_on_c, 0, 58, 0
2, 60480, Note_on_c, 0, 58, 64
2, 60480, Note_on_c, 0, 67, 64
2, 60960, Note_on_c, 0, 67, 0
2, 60960, Note_on_c, 0, 58, 0
2, 60960, Note_on_c, 0, 57, 64
2, 60960, Note_on_c, 0, 65, 64
2, 61200, Note_on_c, 0, 65, 0
2, 61200, Note_on_c, 0, 57, 0
2, 61200, Note_on_c, 0, 74, 64
2, 61260, Note_on_c, 0, 74, 0
2, 61260, Note_on_c, 0, 72, 64
2, 61320, Note_on_c, 0, 72, 0
2, 61320, Note_on_c, 0, 70, 64
2, 61380, Note_on_c, 0, 70, 0
2, 61380, Note_on_c, 0, 69, 64
2, 61440, Note_on_c, 0, 69, 0
2, 61440, Note_on_c, 0, 67, 64
2, 61560, Note_on_c, 0, 67, 0
2, 61560, Note_on_c, 0, 65, 64
2, 61680, Note_on_c, 0, 65, 0
2, 61680, Note_on_c, 0, 65, 64
2, 62040, Note_on_c, 0, 65, 0
2, 62040, Note_on_c, 0, 77, 64
2, 62160, Note_on_c, 0, 77, 0
2, 62160, Note_on_c, 0, 79, 64
2, 62280, Note_on_c, 0, 79, 0
2, 62280, Note_on_c, 0, 81, 64
2, 62400, Note_on_c, 0, 81, 0
2, 62400, Note_on_c, 0, 76, 64
2, 62460, Note_on_c, 0, 76, 0
2, 62460, Note_on_c, 0, 82, 64
2, 62580, Note_on_c, 0, 82, 0
2, 62580, Note_on_c, 0, 79, 64
2, 62640, Note_on_c, 0, 79, 0
2, 62640, Note_on_c, 0, 76, 64
2, 62880, Note_on_c, 0, 76, 0
2, 63120, Note_on_c, 0, 72, 64
2, 63180, Note_on_c, 0, 72, 0
2, 63180, Note_on_c, 0, 70, 64
2, 63240, Note_on_c, 0, 70, 0
2, 63240, Note_on_c, 0, 69, 64
2, 63300, Note_on_c, 0, 69, 0
2, 63300, Note_on_c, 0, 67, 64
2, 63360, Note_on_c, 0, 67, 0
2, 63360, Note_on_c, 0, 65, 64
2, 63480, Note_on_c, 0, 65, 0
2, 63480, Note_on_c, 0, 64, 64
2, 63600, Note_on_c, 0, 64, 0
2, 63600, Note_on_c, 0, 64, 64
2, 63960, Note_on_c, 0, 64, 0
2, 63960, Note_on_c, 0, 79, 64
2, 64080, Note_on_c, 0, 79, 0
2, 64080, Note_on_c, 0, 81, 64
2, 64200, Note_on_c, 0, 81, 0
2, 64200, Note_on_c, 0, 82, 64
2, 64320, Note_on_c, 0, 82, 0
2, 64320, Note_on_c, 0, 78, 64
2, 64380, Note_on_c, 0, 78, 0
2, 64380, Note_on_c, 0, 84, 64
2, 64500, Note_on_c, 0, 84, 0
2, 64500, Note_on_c, 0, 81, 64
2, 64560, Note_on_c, 0, 81, 0
2, 64560, Note_on_c, 0, 78, 64
2, 64800, Note_on_c, 0, 78, 0
2, 64920, Note_on_c, 0, 81, 64
2, 65040, Note_on_c, 0, 81, 0
2, 65040, Note_on_c, 0, 82, 64
2, 65160, Note_on_c, 0, 82, 0
2, 65160, Note_on_c, 0, 84, 64
2, 65280, Note_on_c, 0, 84, 0
2, 65280, Note_on_c, 0, 79, 64
2, 65340, Note_on_c, 0, 79, 0
2, 65340, Note_on_c, 0, 86, 64
2, 65460, Note_on_c, 0, 86, 0
2, 65460, Note_on_c, 0, 82, 64
2, 65520, Note_on_c, 0, 82, 0
2, 65520, Note_on_c, 0, 79, 64
2, 65640, Note_on_c, 0, 79, 0
2, 65760, Note_on_c, 0, 76, 64
2, 65820, Note_on_c, 0, 76, 0
2, 65820, Note_on_c, 0, 82, 64
2, 65940, Note_on_c, 0, 82, 0
2, 65940, Note_on_c, 0, 79, 64
2, 66000, Note_on_c, 0, 79, 0
2, 66000, Note_on_c, 0, 76, 64
2, 66120, Note_on_c, 0, 76, 0
2, 66240, Note_on_c, 0, 71, 64
2, 66300, Note_on_c, 0, 71, 0
2, 66300, Note_on_c, 0, 77, 64
2, 66420, Note_on_c, 0, 77, 0
2, 66420, Note_on_c, 0, 74, 64
2, 66480, Note_on_c, 0, 74, 0
2, 66480, Note_on_c, 0, 71, 64
2, 66720, Note_on_c, 0, 71, 0
2, 66840, Note_on_c, 0, 71, 64
2, 66960, Note_on_c, 0, 71, 0
2, 66960, Note_on_c, 0, 71, 64
2, 67080, Note_on_c, 0, 71, 0
2, 67080, Note_on_c, 0, 71, 64
2, 67200, Note_on_c, 0, 71, 0
2, 67200, Note_on_c, 0, 72, 64
2, 67260, Note_on_c, 0, 72, 0
2, 67260, Note_on_c, 0, 81, 64
2, 67320, Note_on_c, 0, 81, 0
2, 67320, Note_on_c, 0, 77, 64
2, 67380, Note_on_c, 0, 77, 0
2, 67380, Note_on_c, 0, 72, 64
2, 67440, Note_on_c, 0, 72, 0
2, 67440, Note_on_c, 0, 69, 64
2, 67500, Note_on_c, 0, 69, 0
2, 67500, Note_on_c, 0, 77, 64
2, 67560, Note_on_c, 0, 77, 0
2, 67560, Note_on_c, 0, 72, 64
2, 67620, Note_on_c, 0, 72, 0
2, 67620, Note_on_c, 0, 69, 64
2, 67680, Note_on_c, 0, 69, 0
2, 67680, Note_on_c, 0, 69, 64
2, 67680, Note_on_c, 0, 72, 64
2, 67800, Note_on_c, 0, 72, 0
2, 67800, Note_on_c, 0, 69, 0
2, 67800, Note_on_c, 0, 67, 64
2, 67800, Note_on_c, 0, 70, 64
2, 67920, Note_on_c, 0, 70, 0
2, 67920, Note_on_c, 0, 67, 0
2, 67920, Note_on_c, 0, 65, 64
2, 67920, Note_on_c, 0, 69, 64
2, 68040, Note_on_c, 0, 69, 0
2, 68040, Note_on_c, 0, 65, 0
2, 68040, Note_on_c, 0, 64, 64
2, 68040, Note_on_c, 0, 67, 64
2, 68160, Note_on_c, 0, 67, 0
2, 68160, Note_on_c, 0, 64, 0
2, 68160, Note_on_c, 0, 65, 64
2, 68400, Note_on_c, 0, 65, 0
2, 68700, Note_on_c, 0, 65, 64
2, 68760, Note_on_c, 0, 65, 0
2, 68760, Note_on_c, 0, 67, 64
2, 68820, Note_on_c, 0, 67, 0
2, 68820, Note_on_c, 0, 68, 64
2, 68880, Note_on_c, 0, 68, 0
2, 68880, Note_on_c, 0, 70, 64
2, 68940, Note_on_c, 0, 70, 0
2, 68940, Note_on_c, 0, 72, 64
2, 69000, Note_on_c, 0, 72, 0
2, 69000, Note_on_c, 0, 74, 64
2, 69060, Note_on_c, 0, 74, 0
2, 69060, Note_on_c, 0, 76, 64
2, 69120, Note_on_c, 0, 76, 0
2, 69120, Note_on_c, 0, 77, 64
2, 69180, Note_on_c, 0, 77, 0
2, 69180, Note_on_c, 0, 72, 64
2, 69240, Note_on_c, 0, 72, 0
2, 69240, Note_on_c, 0, 80, 64
2, 69300, Note_on_c, 0, 80, 0
2, 69300, Note_on_c, 0, 79, 64
2, 69360, Note_on_c, 0, 79, 0
2, 69360, Note_on_c, 0, 77, 64
2, 69420, Note_on_c, 0, 77, 0
2, 69420, Note_on_c, 0, 72, 64
2, 69480, Note_on_c, 0, 72, 0
2, 69480, Note_on_c, 0, 80, 64
2, 69540, Note_on_c, 0, 80, 0
2, 69540, Note_on_c, 0, 79, 64
2, 69600, Note_on_c, 0, 79, 0
2, 69600, Note_on_c, 0, 77, 64
2, 69660, Note_on_c, 0, 77, 0
2, 69660, Note_on_c, 0, 79, 64
2, 69720, Note_on_c, 0, 79, 0
2, 69720, Note_on_c, 0, 75, 64
2, 69780, Note_on_c, 0, 75, 0
2, 69780, Note_on_c, 0, 77, 64
2, 69840, Note_on_c, 0, 77, 0
2, 69840, Note_on_c, 0, 74, 64
2, 69900, Note_on_c, 0, 74, 0
2, 69900, Note_on_c, 0, 75, 64
2, 69960, Note_on_c, 0, 75, 0
2, 69960, Note_on_c, 0, 72, 64
2, 70020, Note_on_c, 0, 72, 0
2, 70020, Note_on_c, 0, 74, 64
2, 70080, Note_on_c, 0, 74, 0
2, 70080, Note_on_c, 0, 71, 64
2, 70200, Note_on_c, 0, 71, 0
2, 70200, Note_on_c, 0, 89, 64
2, 70440, Note_on_c, 0, 89, 0
2, 70440, Note_on_c, 0, 87, 64
2, 70680, Note_on_c, 0, 87, 0
2, 70680, Note_on_c, 0, 86, 64
2, 70920, Note_on_c, 0, 86, 0
2, 70920, Note_on_c, 0, 84, 64
2, 71160, Note_on_c, 0, 84, 0
2, 71160, Note_on_c, 0, 83, 64
2, 71400, Note_on_c, 0, 83, 0
2, 71400, Note_on_c, 0, 80, 64
2, 71640, Note_on_c, 0, 80, 0
2, 71640, Note_on_c, 0, 79, 64
2, 71880, Note_on_c, 0, 79, 0
2, 71880, Note_on_c, 0, 77, 64
2, 72000, Note_on_c, 0, 77, 0
2, 72000, Note_on_c, 0, 77, 64
2, 72120, Note_on_c, 0, 77, 0
2, 72120, Note_on_c, 0, 76, 64
2, 72240, Note_on_c, 0, 76, 0
2, 72240, Note_on_c, 0, 75, 64
2, 72480, Note_on_c, 0, 75, 0
2, 72540, Note_on_c, 0, 75, 64
2, 72600, Note_on_c, 0, 75, 0
2, 72600, Note_on_c, 0, 74, 64
2, 72660, Note_on_c, 0, 74, 0
2, 72660, Note_on_c, 0, 75, 64
2, 72720, Note_on_c, 0, 75, 0
2, 72720, Note_on_c, 0, 77, 64
2, 72780, Note_on_c, 0, 77, 0
2, 72780, Note_on_c, 0, 75, 64
2, 72840, Note_on_c, 0, 75, 0
2, 72840, Note_on_c, 0, 74, 64
2, 72900, Note_on_c, 0, 74, 0
2, 72900, Note_on_c, 0, 75, 64
2, 72960, Note_on_c, 0, 75, 0
2, 72960, Note_on_c, 0, 78, 64
2, 73140, Note_on_c, 0, 78, 0
2, 73140, Note_on_c, 0, 75, 64
2, 73200, Note_on_c, 0, 75, 0
2, 73200, Note_on_c, 0, 77, 64
2, 73230, Note_on_c, 0, 77, 0
2, 73230, Note_on_c, 0, 75, 64
2, 73260, Note_on_c, 0, 75, 0
2, 73260, Note_on_c, 0, 77, 64
2, 73290, Note_on_c, 0, 77, 0
2, 73290, Note_on_c, 0, 75, 64
2, 73320, Note_on_c, 0, 75, 0
2, 73320, Note_on_c, 0, 77, 64
2, 73350, Note_on_c, 0, 77, 0
2, 73350, Note_on_c, 0, 75, 64
2, 73380, Note_on_c, 0, 75, 0
2, 73380, Note_on_c, 0, 74, 64
2, 73410, Note_on_c, 0, 74, 0
2, 73410, Note_on_c, 0, 75, 64
2, 73440, Note_on_c, 0, 75, 0
2, 73440, Note_on_c, 0, 82, 64
2, 73620, Note_on_c, 0, 82, 0
2, 73620, Note_on_c, 0, 75, 64
2, 73680, Note_on_c, 0, 75, 0
2, 73680, Note_on_c, 0, 77, 64
2, 73710, Note_on_c, 0, 77, 0
2, 73710, Note_on_c, 0, 75, 64
2, 73740, Note_on_c, 0, 75, 0
2, 73740, Note_on_c, 0, 77, 64
2, 73770, Note_on_c, 0, 77, 0
2, 73770, Note_on_c, 0, 75, 64
2, 73800, Note_on_c, 0, 75, 0
2, 73800, Note_on_c, 0, 77, 64
2, 73830, Note_on_c, 0, 77, 0
2, 73830, Note_on_c, 0, 75, 64
2, 73860, Note_on_c, 0, 75, 0
2, 73860, Note_on_c, 0, 74, 64
2, 73890, Note_on_c, 0, 74, 0
2, 73890, Note_on_c, 0, 75, 64
2, 73920, Note_on_c, 0, 75, 0
2, 73920, Note_on_c, 0, 81, 64
2, 74040, Note_on_c, 0, 81, 0
2, 74040, Note_on_c, 0, 84, 64
2, 74160, Note_on_c, 0, 84, 0
2, 74160, Note_on_c, 0, 87, 64
2, 74460, Note_on_c, 0, 87, 0
2, 74460, Note_on_c, 0, 89, 64
2, 74520, Note_on_c, 0, 89, 0
2, 74520, Note_on_c, 0, 86, 64
2, 74580, Note_on_c, 0, 86, 0
2, 74580, Note_on_c, 0, 87, 64
2, 74640, Note_on_c, 0, 87, 0
2, 74640, Note_on_c, 0, 84, 64
2, 74700, Note_on_c, 0, 84, 0
2, 74700, Note_on_c, 0, 86, 64
2, 74760, Note_on_c, 0, 86, 0
2, 74760, Note_on_c, 0, 82, 64
2, 74820, Note_on_c, 0, 82, 0
2, 74820, Note_on_c, 0, 84, 64
2, 74880, Note_on_c, 0, 84, 0
2, 74880, Note_on_c, 0, 81, 64
2, 74940, Note_on_c, 0, 81, 0
2, 74940, Note_on_c, 0, 82, 64
2, 75000, Note_on_c, 0, 82, 0
2, 75000, Note_on_c, 0, 84, 64
2, 75060, Note_on_c, 0, 84, 0
2, 75060, Note_on_c, 0, 82, 64
2, 75120, Note_on_c, 0, 82, 0
2, 75120, Note_on_c, 0, 81, 64
2, 75180, Note_on_c, 0, 81, 0
2, 75180, Note_on_c, 0, 82, 64
2, 75240, Note_on_c, 0, 82, 0
2, 75240, Note_on_c, 0, 84, 64
2, 75300, Note_on_c, 0, 84, 0
2, 75300, Note_on_c, 0, 86, 64
2, 75360, Note_on_c, 0, 86, 0
2, 75360, Note_on_c, 0, 87, 64
2, 75420, Note_on_c, 0, 87, 0
2, 75420, Note_on_c, 0, 86, 64
2, 75480, Note_on_c, 0, 86, 0
2, 75480, Note_on_c, 0, 84, 64
2, 75540, Note_on_c, 0, 84, 0
2, 75540, Note_on_c, 0, 82, 64
2, 75600, Note_on_c, 0, 82, 0
2, 75600, Note_on_c, 0, 81, 64
2, 75660, Note_on_c, 0, 81, 0
2, 75660, Note_on_c, 0, 79, 64
2, 75720, Note_on_c, 0, 79, 0
2, 75720, Note_on_c, 0, 77, 64
2, 75780, Note_on_c, 0, 77, 0
2, 75780, Note_on_c, 0, 75, 64
2, 75840, Note_on_c, 0, 75, 0
2, 75840, Note_on_c, 0, 77, 64
2, 75870, Note_on_c, 0, 77, 0
2, 75870, Note_on_c, 0, 75, 64
2, 75900, Note_on_c, 0, 75, 0
2, 75900, Note_on_c, 0, 77, 64
2, 75930, Note_on_c, 0, 77, 0
2, 75930, Note_on_c, 0, 75, 64
2, 75960, Note_on_c, 0, 75, 0
2, 75960, Note_on_c, 0, 74, 64
2, 76080, Note_on_c, 0, 74, 0
2, 76080, Note_on_c, 0, 74, 64
2, 76440, Note_on_c, 0, 74, 0
2, 76440, Note_on_c, 0, 74, 64
2, 76560, Note_on_c, 0, 74, 0
2, 76560, Note_on_c, 0, 86, 64
2, 76680, Note_on_c, 0, 86, 0
2, 76680, Note_on_c, 0, 84, 64
2, 76920, Note_on_c, 0, 84, 0
2, 76920, Note_on_c, 0, 82, 64
2, 77160, Note_on_c, 0, 82, 0
2, 77160, Note_on_c, 0, 81, 64
2, 77340, Note_on_c, 0, 81, 0
2, 77340, Note_on_c, 0, 79, 64
2, 77400, Note_on_c, 0, 79, 0
2, 77400, Note_on_c, 0, 82, 64
2, 77460, Note_on_c, 0, 82, 0
2, 77460, Note_on_c, 0, 81, 64
2, 77520, Note_on_c, 0, 81, 0
2, 77520, Note_on_c, 0, 84, 64
2, 77580, Note_on_c, 0, 84, 0
2, 77580, Note_on_c, 0, 82, 64
2, 77640, Note_on_c, 0, 82, 0
2, 77640, Note_on_c, 0, 81, 64
2, 77700, Note_on_c, 0, 81, 0
2, 77700, Note_on_c, 0, 79, 64
2, 77760, Note_on_c, 0, 79, 0
2, 77760, Note_on_c, 0, 78, 64
2, 77820, Note_on_c, 0, 78, 0
2, 77820, Note_on_c, 0, 74, 64
2, 77880, Note_on_c, 0, 74, 0
2, 77880, Note_on_c, 0, 86, 64
2, 77940, Note_on_c, 0, 86, 0
2, 77940, Note_on_c, 0, 85, 64
2, 78000, Note_on_c, 0, 85, 0
2, 78000, Note_on_c, 0, 86, 64
2, 78060, Note_on_c, 0, 86, 0
2, 78060, Note_on_c, 0, 85, 64
2, 78120, Note_on_c, 0, 85, 0
2, 78120, Note_on_c, 0, 86, 64
2, 78180, Note_on_c, 0, 86, 0
2, 78180, Note_on_c, 0, 85, 64
2, 78240, Note_on_c, 0, 85, 0
2, 78240, Note_on_c, 0, 86, 64
2, 78300, Note_on_c, 0, 86, 0
2, 78300, Note_on_c, 0, 87, 64
2, 78360, Note_on_c, 0, 87, 0
2, 78360, Note_on_c, 0, 84, 64
2, 78420, Note_on_c, 0, 84, 0
2, 78420, Note_on_c, 0, 86, 64
2, 78480, Note_on_c, 0, 86, 0
2, 78480, Note_on_c, 0, 82, 64
2, 78540, Note_on_c, 0, 82, 0
2, 78540, Note_on_c, 0, 84, 64
2, 78600, Note_on_c, 0, 84, 0
2, 78600, Note_on_c, 0, 81, 64
2, 78660, Note_on_c, 0, 81, 0
2, 78660, Note_on_c, 0, 82, 64
2, 78720, Note_on_c, 0, 82, 0
2, 78720, Note_on_c, 0, 79, 64
2, 78780, Note_on_c, 0, 79, 0
2, 78780, Note_on_c, 0, 81, 64
2, 78840, Note_on_c, 0, 81, 0
2, 78840, Note_on_c, 0, 77, 64
2, 78900, Note_on_c, 0, 77, 0
2, 78900, Note_on_c, 0, 79, 64
2, 78960, Note_on_c, 0, 79, 0
2, 78960, Note_on_c, 0, 75, 64
2, 79020, Note_on_c, 0, 75, 0
2, 79020, Note_on_c, 0, 77, 64
2, 79080, Note_on_c, 0, 77, 0
2, 79080, Note_on_c, 0, 74, 64
2, 79140, Note_on_c, 0, 74, 0
2, 79140, Note_on_c, 0, 75, 64
2, 79200, Note_on_c, 0, 75, 0
2, 79200, Note_on_c, 0, 73, 64
2, 79320, Note_on_c, 0, 73, 0
2, 79320, Note_on_c, 0, 82, 64
2, 79440, Note_on_c, 0, 82, 0
2, 79440, Note_on_c, 0, 81, 64
2, 79560, Note_on_c, 0, 81, 0
2, 79560, Note_on_c, 0, 79, 64
2, 79680, Note_on_c, 0, 79, 0
2, 79680, Note_on_c, 0, 78, 64
2, 79740, Note_on_c, 0, 78, 0
2, 79740, Note_on_c, 0, 73, 64
2, 79800, Note_on_c, 0, 73, 0
2, 79800, Note_on_c, 0, 74, 64
2, 79860, Note_on_c, 0, 74, 0
2, 79860, Note_on_c, 0, 73, 64
2, 79920, Note_on_c, 0, 73, 0
2, 79920, Note_on_c, 0, 74, 64
2, 79980, Note_on_c, 0, 74, 0
2, 79980, Note_on_c, 0, 73, 64
2, 80040, Note_on_c, 0, 73, 0
2, 80040, Note_on_c, 0, 74, 64
2, 80100, Note_on_c, 0, 74, 0
2, 80100, Note_on_c, 0, 73, 64
2, 80160, Note_on_c, 0, 73, 0
2, 80160, Note_on_c, 0, 74, 64
2, 80220, Note_on_c, 0, 74, 0
2, 80220, Note_on_c, 0, 75, 64
2, 80280, Note_on_c, 0, 75, 0
2, 80280, Note_on_c, 0, 72, 64
2, 80340, Note_on_c, 0, 72, 0
2, 80340, Note_on_c, 0, 74, 64
2, 80400, Note_on_c, 0, 74, 0
2, 80400, Note_on_c, 0, 70, 64
2, 80460, Note_on_c, 0, 70, 0
2, 80460, Note_on_c, 0, 72, 64
2, 80520, Note_on_c, 0, 72, 0
2, 80520, Note_on_c, 0, 69, 64
2, 80580, Note_on_c, 0, 69, 0
2, 80580, Note_on_c, 0, 70, 64
2, 80640, Note_on_c, 0, 70, 0
2, 80640, Note_on_c, 0, 67, 64
2, 80700, Note_on_c, 0, 67, 0
2, 80700, Note_on_c, 0, 69, 64
2, 80760, Note_on_c, 0, 69, 0
2, 80760, Note_on_c, 0, 65, 64
2, 80820, Note_on_c, 0, 65, 0
2, 80820, Note_on_c, 0, 67, 64
2, 80880, Note_on_c, 0, 67, 0
2, 80880, Note_on_c, 0, 63, 64
2, 80940, Note_on_c, 0, 63, 0
2, 80940, Note_on_c, 0, 65, 64
2, 81000, Note_on_c, 0, 65, 0
2, 81000, Note_on_c, 0, 62, 64
2, 81060, Note_on_c, 0, 62, 0
2, 81060, Note_on_c, 0, 63, 64
2, 81120, Note_on_c, 0, 63, 0
2, 81120, Note_on_c, 0, 61, 64
2, 81240, Note_on_c, 0, 61, 0
2, 81240, Note_on_c, 0, 67, 64
2, 81360, Note_on_c, 0, 67, 0
2, 81360, Note_on_c, 0, 70, 64
2, 81480, Note_on_c, 0, 70, 0
2, 81480, Note_on_c, 0, 61, 64
2, 81600, Note_on_c, 0, 61, 0
2, 81600, Note_on_c, 0, 62, 64
2, 81720, Note_on_c, 0, 62, 0
2, 81720, Note_on_c, 0, 74, 64
2, 81840, Note_on_c, 0, 74, 0
2, 81960, Note_on_c, 0, 74, 64
2, 82080, Note_on_c, 0, 74, 0
2, 82200, Note_on_c, 0, 74, 64
2, 82320, Note_on_c, 0, 74, 0
2, 82440, Note_on_c, 0, 74, 64
2, 82560, Note_on_c, 0, 74, 0
2, 82680, Note_on_c, 0, 74, 64
2, 82800, Note_on_c, 0, 74, 0
2, 82800, Note_on_c, 0, 73, 64
2, 82920, Note_on_c, 0, 73, 0
2, 82920, Note_on_c, 0, 74, 64
2, 83040, Note_on_c, 0, 74, 0
2, 83040, Note_on_c, 0, 73, 64
2, 83160, Note_on_c, 0, 73, 0
2, 83160, Note_on_c, 0, 74, 64
2, 83280, Note_on_c, 0, 74, 0
2, 83280, Note_on_c, 0, 73, 64
2, 83400, Note_on_c, 0, 73, 0
2, 83400, Note_on_c, 0, 74, 64
2, 83520, Note_on_c, 0, 74, 0
2, 83520, Note_on_c, 0, 77, 64
2, 83760, Note_on_c, 0, 77, 0
2, 83760, Note_on_c, 0, 75, 64
2, 84000, Note_on_c, 0, 75, 0
2, 84060, Note_on_c, 0, 75, 64
2, 84120, Note_on_c, 0, 75, 0
2, 84120, Note_on_c, 0, 74, 64
2, 84180, Note_on_c, 0, 74, 0
2, 84180, Note_on_c, 0, 75, 64
2, 84240, Note_on_c, 0, 75, 0
2, 84240, Note_on_c, 0, 77, 64
2, 84300, Note_on_c, 0, 77, 0
2, 84300, Note_on_c, 0, 75, 64
2, 84360, Note_on_c, 0, 75, 0
2, 84360, Note_on_c, 0, 74, 64
2, 84420, Note_on_c, 0, 74, 0
2, 84420, Note_on_c, 0, 75, 64
2, 84480, Note_on_c, 0, 75, 0
2, 84480, Note_on_c, 0, 82, 64
2, 84720, Note_on_c, 0, 82, 0
2, 84720, Note_on_c, 0, 81, 64
2, 84960, Note_on_c, 0, 81, 0
2, 85020, Note_on_c, 0, 81, 64
2, 85080, Note_on_c, 0, 81, 0
2, 85080, Note_on_c, 0, 79, 64
2, 85140, Note_on_c, 0, 79, 0
2, 85140, Note_on_c, 0, 81, 64
2, 85200, Note_on_c, 0, 81, 0
2, 85200, Note_on_c, 0, 82, 64
2, 85260, Note_on_c, 0, 82, 0
2, 85260, Note_on_c, 0, 81, 64
2, 85320, Note_on_c, 0, 81, 0
2, 85320, Note_on_c, 0, 79, 64
2, 85380, Note_on_c, 0, 79, 0
2, 85380, Note_on_c, 0, 81, 64
2, 85440, Note_on_c, 0, 81, 0
2, 85440, Note_on_c, 0, 89, 64
2, 85680, Note_on_c, 0, 89, 0
2, 85680, Note_on_c, 0, 87, 64
2, 85920, Note_on_c, 0, 87, 0
2, 85980, Note_on_c, 0, 87, 64
2, 86040, Note_on_c, 0, 87, 0
2, 86040, Note_on_c, 0, 86, 64
2, 86100, Note_on_c, 0, 86, 0
2, 86100, Note_on_c, 0, 87, 64
2, 86160, Note_on_c, 0, 87, 0
2, 86160, Note_on_c, 0, 89, 64
2, 86220, Note_on_c, 0, 89, 0
2, 86220, Note_on_c, 0, 87, 64
2, 86280, Note_on_c, 0, 87, 0
2, 86280, Note_on_c, 0, 85, 64
2, 86340, Note_on_c, 0, 85, 0
2, 86340, Note_on_c, 0, 84, 64
2, 86400, Note_on_c, 0, 84, 0
2, 86400, Note_on_c, 0, 82, 64
2, 86640, Note_on_c, 0, 82, 0
2, 86640, Note_on_c, 0, 81, 64
2, 86880, Note_on_c, 0, 81, 0
2, 86940, Note_on_c, 0, 87, 64
2, 87000, Note_on_c, 0, 87, 0
2, 87000, Note_on_c, 0, 86, 64
2, 87060, Note_on_c, 0, 86, 0
2, 87060, Note_on_c, 0, 87, 64
2, 87120, Note_on_c, 0, 87, 0
2, 87120, Note_on_c, 0, 89, 64
2, 87180, Note_on_c, 0, 89, 0
2, 87180, Note_on_c, 0, 87, 64
2, 87240, Note_on_c, 0, 87, 0
2, 87240, Note_on_c, 0, 85, 64
2, 87300, Note_on_c, 0, 85, 0
2, 87300, Note_on_c, 0, 84, 64
2, 87360, Note_on_c, 0, 84, 0
2, 87360, Note_on_c, 0, 82, 64
2, 87420, Note_on_c, 0, 82, 0
2, 87420, Note_on_c, 0, 81, 64
2, 87480, Note_on_c, 0, 81, 0
2, 87480, Note_on_c, 0, 87, 64
2, 87540, Note_on_c, 0, 87, 0
2, 87540, Note_on_c, 0, 86, 64
2, 87600, Note_on_c, 0, 86, 0
2, 87600, Note_on_c, 0, 89, 64
2, 87660, Note_on_c, 0, 89, 0
2, 87660, Note_on_c, 0, 87, 64
2, 87720, Note_on_c, 0, 87, 0
2, 87720, Note_on_c, 0, 85, 64
2, 87780, Note_on_c, 0, 85, 0
2, 87780, Note_on_c, 0, 84, 64
2, 87840, Note_on_c, 0, 84, 0
2, 87840, Note_on_c, 0, 82, 64
2, 87900, Note_on_c, 0, 82, 0
2, 87900, Note_on_c, 0, 81, 64
2, 87960, Note_on_c, 0, 81, 0
2, 87960, Note_on_c, 0, 87, 64
2, 88020, Note_on_c, 0, 87, 0
2, 88020, Note_on_c, 0, 86, 64
2, 88080, Note_on_c, 0, 86, 0
2, 88080, Note_on_c, 0, 89, 64
2, 88140, Note_on_c, 0, 89, 0
2, 88140, Note_on_c, 0, 87, 64
2, 88200, Note_on_c, 0, 87, 0
2, 88200, Note_on_c, 0, 85, 64
2, 88260, Note_on_c, 0, 85, 0
2, 88260, Note_on_c, 0, 84, 64
2, 88320, Note_on_c, 0, 84, 0
2, 88320, Note_on_c, 0, 82, 64
2, 88380, Note_on_c, 0, 82, 0
2, 88380, Note_on_c, 0, 81, 64
2, 88440, Note_on_c, 0, 81, 0
2, 88440, Note_on_c, 0, 84, 64
2, 88500, Note_on_c, 0, 84, 0
2, 88500, Note_on_c, 0, 83, 64
2, 88560, Note_on_c, 0, 83, 0
2, 88560, Note_on_c, 0, 86, 64
2, 88620, Note_on_c, 0, 86, 0
2, 88620, Note_on_c, 0, 84, 64
2, 88680, Note_on_c, 0, 84, 0
2, 88680, Note_on_c, 0, 82, 64
2, 88740, Note_on_c, 0, 82, 0
2, 88740, Note_on_c, 0, 81, 64
2, 88800, Note_on_c, 0, 81, 0
2, 88800, Note_on_c, 0, 79, 64
2, 88860, Note_on_c, 0, 79, 0
2, 88860, Note_on_c, 0, 77, 64
2, 88920, Note_on_c, 0, 77, 0
2, 88920, Note_on_c, 0, 79, 64
2, 88980, Note_on_c, 0, 79, 0
2, 88980, Note_on_c, 0, 78, 64
2, 89040, Note_on_c, 0, 78, 0
2, 89040, Note_on_c, 0, 81, 64
2, 89100, Note_on_c, 0, 81, 0
2, 89100, Note_on_c, 0, 79, 64
2, 89160, Note_on_c, 0, 79, 0
2, 89160, Note_on_c, 0, 77, 64
2, 89220, Note_on_c, 0, 77, 0
2, 89220, Note_on_c, 0, 75, 64
2, 89280, Note_on_c, 0, 75, 0
2, 89280, Note_on_c, 0, 74, 64
2, 89400, Note_on_c, 0, 74, 0
2, 89400, Note_on_c, 0, 72, 64
2, 89520, Note_on_c, 0, 72, 0
2, 89520, Note_on_c, 0, 74, 64
2, 89640, Note_on_c, 0, 74, 0
2, 89640, Note_on_c, 0, 75, 64
2, 89760, Note_on_c, 0, 75, 0
2, 89760, Note_on_c, 0, 76, 64
2, 89880, Note_on_c, 0, 76, 0
2, 89880, Note_on_c, 0, 77, 64
2, 90000, Note_on_c, 0, 77, 0
2, 90000, Note_on_c, 0, 79, 64
2, 90060, Note_on_c, 0, 79, 0
2, 90060, Note_on_c, 0, 77, 64
2, 90120, Note_on_c, 0, 77, 0
2, 90120, Note_on_c, 0, 75, 64
2, 90180, Note_on_c, 0, 75, 0
2, 90180, Note_on_c, 0, 74, 64
2, 90240, Note_on_c, 0, 74, 0
2, 90240, Note_on_c, 0, 74, 0
2, 90240, Note_on_c, 0, 74, 0
2, 90240, Note_on_c, 0, 72, 64
2, 90360, Note_on_c, 0, 72, 0
2, 90360, Note_on_c, 0, 70, 64
2, 90480, Note_on_c, 0, 70, 0
2, 90480, Note_on_c, 0, 70, 64
2, 90840, Note_on_c, 0, 70, 0
2, 90840, Note_on_c, 0, 74, 64
2, 90960, Note_on_c, 0, 74, 0
2, 90960, Note_on_c, 0, 79, 64
2, 91080, Note_on_c, 0, 79, 0
2, 91080, Note_on_c, 0, 74, 64
2, 91200, Note_on_c, 0, 74, 0
2, 91200, Note_on_c, 0, 77, 64
2, 91440, Note_on_c, 0, 77, 0
2, 91440, Note_on_c, 0, 75, 64
2, 91800, Note_on_c, 0, 75, 0
2, 91800, Note_on_c, 0, 77, 64
2, 91860, Note_on_c, 0, 77, 0
2, 91860, Note_on_c, 0, 79, 64
2, 91920, Note_on_c, 0, 79, 0
2, 91920, Note_on_c, 0, 77, 64
2, 91980, Note_on_c, 0, 77, 0
2, 91980, Note_on_c, 0, 75, 64
2, 92040, Note_on_c, 0, 75, 0
2, 92040, Note_on_c, 0, 74, 64
2, 92100, Note_on_c, 0, 74, 0
2, 92100, Note_on_c, 0, 72, 64
2, 92160, Note_on_c, 0, 72, 0
2, 92160, Note_on_c, 0, 70, 64
2, 92400, Note_on_c, 0, 70, 0
2, 92400, Note_on_c, 0, 69, 64
2, 92760, Note_on_c, 0, 69, 0
2, 92760, Note_on_c, 0, 69, 64
2, 92880, Note_on_c, 0, 69, 0
2, 92880, Note_on_c, 0, 70, 64
2, 93000, Note_on_c, 0, 70, 0
2, 93000, Note_on_c, 0, 72, 64
2, 93120, Note_on_c, 0, 72, 0
2, 93120, Note_on_c, 0, 69, 64
2, 93120, Note_on_c, 0, 72, 64
2, 93360, Note_on_c, 0, 72, 0
2, 93360, Note_on_c, 0, 69, 0
2, 93360, Note_on_c, 0, 70, 64
2, 93360, Note_on_c, 0, 74, 64
2, 93600, Note_on_c, 0, 74, 0
2, 93600, Note_on_c, 0, 70, 0
2, 93720, Note_on_c, 0, 77, 64
2, 93780, Note_on_c, 0, 77, 0
2, 93780, Note_on_c, 0, 76, 64
2, 93840, Note_on_c, 0, 76, 0
2, 93840, Note_on_c, 0, 79, 64
2, 93900, Note_on_c, 0, 79, 0
2, 93900, Note_on_c, 0, 77, 64
2, 93960, Note_on_c, 0, 77, 0
2, 93960, Note_on_c, 0, 75, 64
2, 94020, Note_on_c, 0, 75, 0
2, 94020, Note_on_c, 0, 74, 64
2, 94080, Note_on_c, 0, 74, 0
2, 94080, Note_on_c, 0, 74, 64
2, 94200, Note_on_c, 0, 74, 0
2, 94200, Note_on_c, 0, 72, 64
2, 94440, Note_on_c, 0, 72, 0
2, 94440, Note_on_c, 0, 70, 64
2, 94560, Note_on_c, 0, 70, 0
2, 94560, Note_on_c, 0, 74, 64
2, 94680, Note_on_c, 0, 74, 0
2, 94680, Note_on_c, 0, 72, 64
2, 94920, Note_on_c, 0, 72, 0
2, 94920, Note_on_c, 0, 69, 64
2, 95040, Note_on_c, 0, 69, 0
2, 95040, Note_on_c, 0, 70, 64
2, 95100, Note_on_c, 0, 70, 0
2, 95100, Note_on_c, 0, 72, 64
2, 95160, Note_on_c, 0, 72, 0
2, 95160, Note_on_c, 0, 70, 64
2, 95220, Note_on_c, 0, 70, 0
2, 95220, Note_on_c, 0, 69, 64
2, 95280, Note_on_c, 0, 69, 0
2, 95280, Note_on_c, 0, 70, 64
2, 95340, Note_on_c, 0, 70, 0
2, 95340, Note_on_c, 0, 72, 64
2, 95400, Note_on_c, 0, 72, 0
2, 95400, Note_on_c, 0, 74, 64
2, 95460, Note_on_c, 0, 74, 0
2, 95460, Note_on_c, 0, 75, 64
2, 95520, Note_on_c, 0, 75, 0
2, 95520, Note_on_c, 0, 76, 64
2, 95580, Note_on_c, 0, 76, 0
2, 95580, Note_on_c, 0, 77, 64
2, 95640, Note_on_c, 0, 77, 0
2, 95640, Note_on_c, 0, 76, 64
2, 95700, Note_on_c, 0, 76, 0
2, 95700, Note_on_c, 0, 77, 64
2, 95760, Note_on_c, 0, 77, 0
2, 95760, Note_on_c, 0, 79, 64
2, 95820, Note_on_c, 0, 79, 0
2, 95820, Note_on_c, 0, 77, 64
2, 95880, Note_on_c, 0, 77, 0
2, 95880, Note_on_c, 0, 75, 64
2, 95940, Note_on_c, 0, 75, 0
2, 95940, Note_on_c, 0, 74, 64
2, 96000, Note_on_c, 0, 74, 0
2, 96000, Note_on_c, 0, 74, 64
2, 96120, Note_on_c, 0, 74, 0
2, 96120, Note_on_c, 0, 72, 64
2, 96240, Note_on_c, 0, 72, 0
2, 96240, Note_on_c, 0, 72, 64
2, 96360, Note_on_c, 0, 72, 0
2, 96360, Note_on_c, 0, 70, 64
2, 96480, Note_on_c, 0, 70, 0
2, 96480, Note_on_c, 0, 74, 64
2, 96600, Note_on_c, 0, 74, 0
2, 96600, Note_on_c, 0, 72, 64
2, 96720, Note_on_c, 0, 72, 0
2, 96720, Note_on_c, 0, 72, 64
2, 96840, Note_on_c, 0, 72, 0
2, 96840, Note_on_c, 0, 69, 64
2, 96960, Note_on_c, 0, 69, 0
2, 96960, Note_on_c, 0, 70, 64
2, 97080, Note_on_c, 0, 70, 0
2, 97080, Note_on_c, 0, 72, 64
2, 97140, Note_on_c, 0, 72, 0
2, 97140, Note_on_c, 0, 74, 64
2, 97200, Note_on_c, 0, 74, 0
2, 97200, Note_on_c, 0, 75, 64
2, 97260, Note_on_c, 0, 75, 0
2, 97260, Note_on_c, 0, 77, 64
2, 97320, Note_on_c, 0, 77, 0
2, 97320, Note_on_c, 0, 79, 64
2, 97380, Note_on_c, 0, 79, 0
2, 97380, Note_on_c, 0, 81, 64
2, 97440, Note_on_c, 0, 81, 0
2, 97440, Note_on_c, 0, 82, 64
2, 97500, Note_on_c, 0, 82, 0
2, 97500, Note_on_c, 0, 84, 64
2, 97560, Note_on_c, 0, 84, 0
2, 97560, Note_on_c, 0, 86, 64
2, 97620, Note_on_c, 0, 86, 0
2, 97620, Note_on_c, 0, 87, 64
2, 97680, Note_on_c, 0, 87, 0
2, 97680, Note_on_c, 0, 89, 64
2, 97800, Note_on_c, 0, 89, 0
2, 97800, Note_on_c, 0, 89, 64
2, 97920, Note_on_c, 0, 89, 0
2, 97920, Note_on_c, 0, 89, 64
2, 97920, Note_on_c, 0, 77, 64
2, 98040, Note_on_c, 0, 89, 0
2, 98040, Note_on_c, 0, 87, 64
2, 98280, Note_on_c, 0, 87, 0
2, 98280, Note_on_c, 0, 86, 64
2, 98400, Note_on_c, 0, 86, 0
2, 98400, Note_on_c, 0, 86, 64
2, 98520, Note_on_c, 0, 86, 0
2, 98520, Note_on_c, 0, 77, 0
2, 98520, Note_on_c, 0, 84, 64
2, 98520, Note_on_c, 0, 75, 64
2, 98640, Note_on_c, 0, 75, 0
2, 98640, Note_on_c, 0, 84, 0
2, 98640, Note_on_c, 0, 82, 64
2, 98640, Note_on_c, 0, 74, 64
2, 98760, Note_on_c, 0, 74, 0
2, 98760, Note_on_c, 0, 82, 0
2, 98760, Note_on_c, 0, 81, 64
2, 98760, Note_on_c, 0, 72, 64
2, 98880, Note_on_c, 0, 72, 0
2, 98880, Note_on_c, 0, 81, 0
2, 98880, Note_on_c, 0, 74, 64
2, 98880, Note_on_c, 0, 82, 64
2, 99120, Note_on_c, 0, 82, 0
2, 99120, Note_on_c, 0, 74, 0
2, 99120, Note_on_c, 0, 70, 64
2, 99360, Note_on_c, 0, 70, 0
2, 99600, Note_on_c, 0, 67, 64
2, 99660, Note_on_c, 0, 67, 0
2, 99660, Note_on_c, 0, 65, 64
2, 99720, Note_on_c, 0, 65, 0
2, 99720, Note_on_c, 0, 63, 64
2, 99780, Note_on_c, 0, 63, 0
2, 99780, Note_on_c, 0, 62, 64
2, 99840, Note_on_c, 0, 62, 0
2, 99840, Note_on_c, 0, 60, 64
2, 99960, Note_on_c, 0, 60, 0
2, 99960, Note_on_c, 0, 58, 64
2, 100080, Note_on_c, 0, 58, 0
2, 100080, Note_on_c, 0, 58, 64
2, 100440, Note_on_c, 0, 58, 0
2, 100440, Note_on_c, 0, 70, 64
2, 100560, Note_on_c, 0, 70, 0
2, 100560, Note_on_c, 0, 70, 64
2, 100680, Note_on_c, 0, 70, 0
2, 100680, Note_on_c, 0, 72, 64
2, 100800, Note_on_c, 0, 72, 0
2, 100800, Note_on_c, 0, 70, 64
2, 100920, Note_on_c, 0, 70, 0
2, 100920, Note_on_c, 0, 69, 64
2, 101040, Note_on_c, 0, 69, 0
2, 101040, Note_on_c, 0, 68, 64
2, 101400, Note_on_c, 0, 68, 0
2, 101400, Note_on_c, 0, 68, 64
2, 101520, Note_on_c, 0, 68, 0
2, 101520, Note_on_c, 0, 68, 64
2, 101640, Note_on_c, 0, 68, 0
2, 101640, Note_on_c, 0, 68, 64
2, 101760, Note_on_c, 0, 68, 0
2, 101760, Note_on_c, 0, 80, 64
2, 101820, Note_on_c, 0, 80, 0
2, 101820, Note_on_c, 0, 82, 64
2, 101880, Note_on_c, 0, 82, 0
2, 101880, Note_on_c, 0, 79, 64
2, 101940, Note_on_c, 0, 79, 0
2, 101940, Note_on_c, 0, 80, 64
2, 102000, Note_on_c, 0, 80, 0
2, 102000, Note_on_c, 0, 77, 64
2, 102060, Note_on_c, 0, 77, 0
2, 102060, Note_on_c, 0, 79, 64
2, 102120, Note_on_c, 0, 79, 0
2, 102120, Note_on_c, 0, 75, 64
2, 102180, Note_on_c, 0, 75, 0
2, 102180, Note_on_c, 0, 77, 64
2, 102240, Note_on_c, 0, 77, 0
2, 102240, Note_on_c, 0, 74, 64
2, 102300, Note_on_c, 0, 74, 0
2, 102300, Note_on_c, 0, 75, 64
2, 102360, Note_on_c, 0, 75, 0
2, 102360, Note_on_c, 0, 72, 64
2, 102420, Note_on_c, 0, 72, 0
2, 102420, Note_on_c, 0, 74, 64
2, 102480, Note_on_c, 0, 74, 0
2, 102480, Note_on_c, 0, 70, 64
2, 102540, Note_on_c, 0, 70, 0
2, 102540, Note_on_c, 0, 72, 64
2, 102600, Note_on_c, 0, 72, 0
2, 102600, Note_on_c, 0, 68, 64
2, 102660, Note_on_c, 0, 68, 0
2, 102660, Note_on_c, 0, 70, 64
2, 102720, Note_on_c, 0, 70, 0
2, 102720, Note_on_c, 0, 68, 64
2, 102840, Note_on_c, 0, 68, 0
2, 102840, Note_on_c, 0, 67, 64
2, 102960, Note_on_c, 0, 67, 0
2, 102960, Note_on_c, 0, 67, 64
2, 103320, Note_on_c, 0, 67, 0
2, 103320, Note_on_c, 0, 79, 64
2, 103440, Note_on_c, 0, 79, 0
2, 103440, Note_on_c, 0, 79, 64
2, 103560, Note_on_c, 0, 79, 0
2, 103560, Note_on_c, 0, 77, 64
2, 103680, Note_on_c, 0, 77, 0
2, 103680, Note_on_c, 0, 77, 64
2, 103800, Note_on_c, 0, 77, 0
2, 103800, Note_on_c, 0, 76, 64
2, 103920, Note_on_c, 0, 76, 0
2, 103920, Note_on_c, 0, 76, 64
2, 104280, Note_on_c, 0, 76, 0
2, 104280, Note_on_c, 0, 85, 64
2, 104400, Note_on_c, 0, 85, 0
2, 104400, Note_on_c, 0, 85, 64
2, 104520, Note_on_c, 0, 85, 0
2, 104520, Note_on_c, 0, 76, 64
2, 104640, Note_on_c, 0, 76, 0
2, 104640, Note_on_c, 0, 79, 64
2, 104760, Note_on_c, 0, 79, 0
2, 104760, Note_on_c, 0, 77, 64
2, 104880, Note_on_c, 0, 77, 0
2, 104880, Note_on_c, 0, 77, 64
2, 105240, Note_on_c, 0, 77, 0
2, 105240, Note_on_c, 0, 78, 64
2, 105360, Note_on_c, 0, 78, 0
2, 105360, Note_on_c, 0, 79, 64
2, 105480, Note_on_c, 0, 79, 0
2, 105480, Note_on_c, 0, 75, 64
2, 105600, Note_on_c, 0, 75, 0
2, 105600, Note_on_c, 0, 73, 64
2, 105720, Note_on_c, 0, 73, 0
2, 105720, Note_on_c, 0, 74, 64
2, 105840, Note_on_c, 0, 74, 0
2, 105840, Note_on_c, 0, 74, 64
2, 106080, Note_on_c, 0, 74, 0
2, 106200, Note_on_c, 0, 77, 64
2, 106320, Note_on_c, 0, 77, 0
2, 106320, Note_on_c, 0, 79, 64
2, 106380, Note_on_c, 0, 79, 0
2, 106380, Note_on_c, 0, 77, 64
2, 106440, Note_on_c, 0, 77, 0
2, 106440, Note_on_c, 0, 75, 64
2, 106500, Note_on_c, 0, 75, 0
2, 106500, Note_on_c, 0, 74, 64
2, 106560, Note_on_c, 0, 74, 0
2, 106560, Note_on_c, 0, 72, 64
2, 106920, Note_on_c, 0, 72, 0
2, 106920, Note_on_c, 0, 69, 64
2, 107040, Note_on_c, 0, 69, 0
2, 107040, Note_on_c, 0, 70, 64
2, 107100, Note_on_c, 0, 70, 0
2, 107100, Note_on_c, 0, 77, 64
2, 107160, Note_on_c, 0, 77, 0
2, 107160, Note_on_c, 0, 76, 64
2, 107220, Note_on_c, 0, 76, 0
2, 107220, Note_on_c, 0, 77, 64
2, 107280, Note_on_c, 0, 77, 0
2, 107280, Note_on_c, 0, 79, 64
2, 107340, Note_on_c, 0, 79, 0
2, 107340, Note_on_c, 0, 77, 64
2, 107400, Note_on_c, 0, 77, 0
2, 107400, Note_on_c, 0, 75, 64
2, 107460, Note_on_c, 0, 75, 0
2, 107460, Note_on_c, 0, 74, 64
2, 107520, Note_on_c, 0, 74, 0
2, 107520, Note_on_c, 0, 72, 64
2, 107640, Note_on_c, 0, 72, 0
2, 107640, Note_on_c, 0, 72, 64
2, 107880, Note_on_c, 0, 72, 0
2, 107880, Note_on_c, 0, 69, 64
2, 108000, Note_on_c, 0, 69, 0
2, 108000, Note_on_c, 0, 70, 64
2, 108060, Note_on_c, 0, 70, 0
2, 108060, Note_on_c, 0, 77, 64
2, 108120, Note_on_c, 0, 77, 0
2, 108120, Note_on_c, 0, 76, 64
2, 108180, Note_on_c, 0, 76, 0
2, 108180, Note_on_c, 0, 77, 64
2, 108240, Note_on_c, 0, 77, 0
2, 108240, Note_on_c, 0, 79, 64
2, 108300, Note_on_c, 0, 79, 0
2, 108300, Note_on_c, 0, 77, 64
2, 108360, Note_on_c, 0, 77, 0
2, 108360, Note_on_c, 0, 75, 64
2, 108420, Note_on_c, 0, 75, 0
2, 108420, Note_on_c, 0, 74, 64
2, 108480, Note_on_c, 0, 74, 0
2, 108480, Note_on_c, 0, 74, 64
2, 108600, Note_on_c, 0, 74, 0
2, 108600, Note_on_c, 0, 72, 64
2, 108720, Note_on_c, 0, 72, 0
2, 108840, Note_on_c, 0, 72, 64
2, 108960, Note_on_c, 0, 72, 0
2, 108960, Note_on_c, 0, 72, 64
2, 109080, Note_on_c, 0, 72, 0
2, 109080, Note_on_c, 0, 70, 64
2, 109200, Note_on_c, 0, 70, 0
2, 109320, Note_on_c, 0, 70, 64
2, 109440, Note_on_c, 0, 70, 0
2, 109440, Note_on_c, 0, 69, 64
2, 109500, Note_on_c, 0, 69, 0
2, 109500, Note_on_c, 0, 70, 64
2, 109560, Note_on_c, 0, 70, 0
2, 109560, Note_on_c, 0, 69, 64
2, 109620, Note_on_c, 0, 69, 0
2, 109620, Note_on_c, 0, 65, 64
2, 109680, Note_on_c, 0, 65, 0
2, 109680, Note_on_c, 0, 70, 64
2, 109740, Note_on_c, 0, 70, 0
2, 109740, Note_on_c, 0, 72, 64
2, 109800, Note_on_c, 0, 72, 0
2, 109800, Note_on_c, 0, 70, 64
2, 109860, Note_on_c, 0, 70, 0
2, 109860, Note_on_c, 0, 65, 64
2, 109920, Note_on_c, 0, 65, 0
2, 109920, Note_on_c, 0, 72, 64
2, 109980, Note_on_c, 0, 72, 0
2, 109980, Note_on_c, 0, 74, 64
2, 110040, Note_on_c, 0, 74, 0
2, 110040, Note_on_c, 0, 72, 64
2, 110100, Note_on_c, 0, 72, 0
2, 110100, Note_on_c, 0, 65, 64
2, 110160, Note_on_c, 0, 65, 0
2, 110160, Note_on_c, 0, 74, 64
2, 110220, Note_on_c, 0, 74, 0
2, 110220, Note_on_c, 0, 75, 64
2, 110280, Note_on_c, 0, 75, 0
2, 110280, Note_on_c, 0, 74, 64
2, 110340, Note_on_c, 0, 74, 0
2, 110340, Note_on_c, 0, 65, 64
2, 110400, Note_on_c, 0, 65, 0
2, 110400, Note_on_c, 0, 75, 64
2, 110520, Note_on_c, 0, 75, 0
2, 110520, Note_on_c, 0, 75, 64
2, 110640, Note_on_c, 0, 75, 0
2, 110760, Note_on_c, 0, 72, 64
2, 110880, Note_on_c, 0, 72, 0
2, 110880, Note_on_c, 0, 75, 64
2, 111000, Note_on_c, 0, 75, 0
2, 111000, Note_on_c, 0, 74, 64
2, 111120, Note_on_c, 0, 74, 0
2, 111120, Note_on_c, 0, 72, 64
2, 111240, Note_on_c, 0, 72, 0
2, 111240, Note_on_c, 0, 70, 64
2, 111360, Note_on_c, 0, 70, 0
2, 111360, Note_on_c, 0, 69, 64
2, 111420, Note_on_c, 0, 69, 0
2, 111420, Note_on_c, 0, 65, 64
2, 111480, Note_on_c, 0, 65, 0
2, 111480, Note_on_c, 0, 76, 64
2, 111540, Note_on_c, 0, 76, 0
2, 111540, Note_on_c, 0, 77, 64
2, 111600, Note_on_c, 0, 77, 0
2, 111600, Note_on_c, 0, 70, 64
2, 111660, Note_on_c, 0, 70, 0
2, 111660, Note_on_c, 0, 65, 64
2, 111720, Note_on_c, 0, 65, 0
2, 111720, Note_on_c, 0, 76, 64
2, 111780, Note_on_c, 0, 76, 0
2, 111780, Note_on_c, 0, 77, 64
2, 111840, Note_on_c, 0, 77, 0
2, 111840, Note_on_c, 0, 72, 64
2, 111900, Note_on_c, 0, 72, 0
2, 111900, Note_on_c, 0, 65, 64
2, 111960, Note_on_c, 0, 65, 0
2, 111960, Note_on_c, 0, 76, 64
2, 112020, Note_on_c, 0, 76, 0
2, 112020, Note_on_c, 0, 77, 64
2, 112080, Note_on_c, 0, 77, 0
2, 112080, Note_on_c, 0, 74, 64
2, 112140, Note_on_c, 0, 74, 0
2, 112140, Note_on_c, 0, 65, 64
2, 112200, Note_on_c, 0, 65, 0
2, 112200, Note_on_c, 0, 76, 64
2, 112260, Note_on_c, 0, 76, 0
2, 112260, Note_on_c, 0, 77, 64
2, 112320, Note_on_c, 0, 77, 0
2, 112320, Note_on_c, 0, 75, 64
2, 112440, Note_on_c, 0, 75, 0
2, 112440, Note_on_c, 0, 75, 64
2, 112560, Note_on_c, 0, 75, 0
2, 112680, Note_on_c, 0, 72, 64
2, 112720, Note_on_c, 0, 72, 0
2, 112720, Note_on_c, 0, 74, 64
2, 112760, Note_on_c, 0, 74, 0
2, 112760, Note_on_c, 0, 72, 64
2, 112800, Note_on_c, 0, 72, 0
2, 112800, Note_on_c, 0, 75, 64
2, 112920, Note_on_c, 0, 75, 0
2, 112920, Note_on_c, 0, 74, 64
2, 113040, Note_on_c, 0, 74, 0
2, 113040, Note_on_c, 0, 72, 64
2, 113160, Note_on_c, 0, 72, 0
2, 113160, Note_on_c, 0, 70, 64
2, 113280, Note_on_c, 0, 70, 0
2, 113280, Note_on_c, 0, 69, 64
2, 113340, Note_on_c, 0, 69, 0
2, 113340, Note_on_c, 0, 77, 64
2, 113400, Note_on_c, 0, 77, 0
2, 113400, Note_on_c, 0, 72, 64
2, 113460, Note_on_c, 0, 72, 0
2, 113460, Note_on_c, 0, 69, 64
2, 113520, Note_on_c, 0, 69, 0
2, 113520, Note_on_c, 0, 65, 64
2, 113580, Note_on_c, 0, 65, 0
2, 113580, Note_on_c, 0, 60, 64
2, 113640, Note_on_c, 0, 60, 0
2, 113640, Note_on_c, 0, 57, 64
2, 113700, Note_on_c, 0, 57, 0
2, 113700, Note_on_c, 0, 53, 64
2, 113760, Note_on_c, 0, 53, 0
2, 114240, Note_on_c, 0, 53, 64
2, 114240, Note_on_c, 0, 58, 64
2, 114240, Note_on_c, 0, 62, 64
2, 114240, Note_on_c, 0, 65, 64
2, 114600, Note_on_c, 0, 65, 0
2, 114600, Note_on_c, 0, 53, 0
2, 114600, Note_on_c, 0, 58, 0
2, 114600, Note_on_c, 0, 62, 0
2, 114600, Note_on_c, 0, 67, 64
2, 114660, Note_on_c, 0, 67, 0
2, 114660, Note_on_c, 0, 65, 64
2, 114720, Note_on_c, 0, 65, 0
2, 114720, Note_on_c, 0, 63, 64
2, 114840, Note_on_c, 0, 63, 0
2, 114840, Note_on_c, 0, 62, 64
2, 114960, Note_on_c, 0, 62, 0
2, 114960, Note_on_c, 0, 60, 64
2, 115080, Note_on_c, 0, 60, 0
2, 115080, Note_on_c, 0, 58, 64
2, 115200, Note_on_c, 0, 58, 0
2, 115200, Note_on_c, 0, 58, 64
2, 115320, Note_on_c, 0, 58, 0
2, 115320, Note_on_c, 0, 67, 64
2, 115440, Note_on_c, 0, 67, 0
2, 115440, Note_on_c, 0, 58, 64
2, 115440, Note_on_c, 0, 67, 64
2, 115800, Note_on_c, 0, 67, 0
2, 115800, Note_on_c, 0, 58, 0
2, 115800, Note_on_c, 0, 65, 64
2, 115920, Note_on_c, 0, 65, 0
2, 115920, Note_on_c, 0, 69, 64
2, 116040, Note_on_c, 0, 69, 0
2, 116040, Note_on_c, 0, 70, 64
2, 116160, Note_on_c, 0, 70, 0
2, 116160, Note_on_c, 0, 70, 64
2, 116280, Note_on_c, 0, 70, 0
2, 116280, Note_on_c, 0, 60, 64
2, 116520, Note_on_c, 0, 60, 0
2, 116520, Note_on_c, 0, 62, 64
2, 116640, Note_on_c, 0, 62, 0
2, 116640, Note_on_c, 0, 70, 64
2, 116760, Note_on_c, 0, 70, 0
2, 116760, Note_on_c, 0, 60, 64
2, 117000, Note_on_c, 0, 60, 0
2, 117000, Note_on_c, 0, 62, 64
2, 117120, Note_on_c, 0, 62, 0
2, 117120, Note_on_c, 0, 65, 64
2, 117360, Note_on_c, 0, 65, 0
2, 117360, Note_on_c, 0, 63, 64
2, 117390, Note_on_c, 0, 63, 0
2, 117390, Note_on_c, 0, 65, 64
2, 117420, Note_on_c, 0, 65, 0
2, 117420, Note_on_c, 0, 63, 64
2, 117450, Note_on_c, 0, 63, 0
2, 117450, Note_on_c, 0, 65, 64
2, 117480, Note_on_c, 0, 65, 0
2, 117480, Note_on_c, 0, 63, 64
2, 117510, Note_on_c, 0, 63, 0
2, 117510, Note_on_c, 0, 62, 64
2, 117540, Note_on_c, 0, 62, 0
2, 117540, Note_on_c, 0, 63, 64
2, 117570, Note_on_c, 0, 63, 0
2, 117570, Note_on_c, 0, 62, 64
2, 117600, Note_on_c, 0, 62, 0
2, 117600, Note_on_c, 0, 62, 64
2, 117720, Note_on_c, 0, 62, 0
2, 117720, Note_on_c, 0, 62, 64
2, 117840, Note_on_c, 0, 62, 0
2, 117840, Note_on_c, 0, 63, 64
2, 117960, Note_on_c, 0, 63, 0
2, 117960, Note_on_c, 0, 65, 64
2, 118080, Note_on_c, 0, 65, 0
2, 118080, Note_on_c, 0, 66, 64
2, 118200, Note_on_c, 0, 66, 0
2, 118200, Note_on_c, 0, 67, 64
2, 118440, Note_on_c, 0, 67, 0
2, 118440, Note_on_c, 0, 65, 64
2, 118500, Note_on_c, 0, 65, 0
2, 118500, Note_on_c, 0, 63, 64
2, 118560, Note_on_c, 0, 63, 0
2, 118560, Note_on_c, 0, 62, 64
2, 118680, Note_on_c, 0, 62, 0
2, 118680, Note_on_c, 0, 60, 64
2, 118800, Note_on_c, 0, 60, 0
2, 118800, Note_on_c, 0, 62, 64
2, 118920, Note_on_c, 0, 62, 0
2, 118920, Note_on_c, 0, 63, 64
2, 119040, Note_on_c, 0, 63, 0
2, 119040, Note_on_c, 0, 67, 64
2, 119160, Note_on_c, 0, 67, 0
2, 119160, Note_on_c, 0, 65, 64
2, 119400, Note_on_c, 0, 65, 0
2, 119400, Note_on_c, 0, 63, 64
2, 119460, Note_on_c, 0, 63, 0
2, 119460, Note_on_c, 0, 62, 64
2, 119520, Note_on_c, 0, 62, 0
2, 119520, Note_on_c, 0, 60, 64
2, 119640, Note_on_c, 0, 60, 0
2, 119640, Note_on_c, 0, 58, 64
2, 119760, Note_on_c, 0, 58, 0
2, 119760, Note_on_c, 0, 60, 64
2, 119880, Note_on_c, 0, 60, 0
2, 119880, Note_on_c, 0, 62, 64
2, 120000, Note_on_c, 0, 62, 0
2, 120000, Note_on_c, 0, 65, 64
2, 120120, Note_on_c, 0, 65, 0
2, 120120, Note_on_c, 0, 63, 64
2, 120360, Note_on_c, 0, 63, 0
2, 120360, Note_on_c, 0, 60, 64
2, 120480, Note_on_c, 0, 60, 0
2, 120480, Note_on_c, 0, 63, 64
2, 120600, Note_on_c, 0, 63, 0
2, 120600, Note_on_c, 0, 62, 64
2, 120840, Note_on_c, 0, 62, 0
2, 120840, Note_on_c, 0, 58, 64
2, 120960, Note_on_c, 0, 58, 0
2, 120960, Note_on_c, 0, 57, 64
2, 121020, Note_on_c, 0, 57, 0
2, 121020, Note_on_c, 0, 58, 64
2, 121080, Note_on_c, 0, 58, 0
2, 121080, Note_on_c, 0, 59, 64
2, 121140, Note_on_c, 0, 59, 0
2, 121140, Note_on_c, 0, 60, 64
2, 121200, Note_on_c, 0, 60, 0
2, 121200, Note_on_c, 0, 61, 64
2, 121260, Note_on_c, 0, 61, 0
2, 121260, Note_on_c, 0, 62, 64
2, 121320, Note_on_c, 0, 62, 0
2, 121320, Note_on_c, 0, 63, 64
2, 121380, Note_on_c, 0, 63, 0
2, 121380, Note_on_c, 0, 64, 64
2, 121440, Note_on_c, 0, 64, 0
2, 121440, Note_on_c, 0, 65, 64
2, 121680, Note_on_c, 0, 65, 0
2, 121920, Note_on_c, 0, 65, 64
2, 121920, Note_on_c, 0, 70, 64
2, 121920, Note_on_c, 0, 74, 64
2, 121920, Note_on_c, 0, 77, 64
2, 122280, Note_on_c, 0, 77, 0
2, 122280, Note_on_c, 0, 65, 0
2, 122280, Note_on_c, 0, 70, 0
2, 122280, Note_on_c, 0, 74, 0
2, 122280, Note_on_c, 0, 79, 64
2, 122340, Note_on_c, 0, 79, 0
2, 122340, Note_on_c, 0, 77, 64
2, 122400, Note_on_c, 0, 77, 0
2, 122400, Note_on_c, 0, 75, 64
2, 122520, Note_on_c, 0, 75, 0
2, 122520, Note_on_c, 0, 74, 64
2, 122640, Note_on_c, 0, 74, 0
2, 122640, Note_on_c, 0, 72, 64
2, 122760, Note_on_c, 0, 72, 0
2, 122760, Note_on_c, 0, 70, 64
2, 122880, Note_on_c, 0, 70, 0
2, 122880, Note_on_c, 0, 70, 64
2, 123000, Note_on_c, 0, 70, 0
2, 123000, Note_on_c, 0, 79, 64
2, 123120, Note_on_c, 0, 79, 0
2, 123120, Note_on_c, 0, 70, 64
2, 123120, Note_on_c, 0, 79, 64
2, 123480, Note_on_c, 0, 79, 0
2, 123480, Note_on_c, 0, 70, 0
2, 123480, Note_on_c, 0, 77, 64
2, 123600, Note_on_c, 0, 77, 0
2, 123600, Note_on_c, 0, 81, 64
2, 123720, Note_on_c, 0, 81, 0
2, 123720, Note_on_c, 0, 82, 64
2, 123960, Note_on_c, 0, 82, 0
2, 123960, Note_on_c, 0, 72, 64
2, 124080, Note_on_c, 0, 72, 0
2, 124080, Note_on_c, 0, 74, 64
2, 124200, Note_on_c, 0, 74, 0
2, 124200, Note_on_c, 0, 82, 64
2, 124440, Note_on_c, 0, 82, 0
2, 124440, Note_on_c, 0, 72, 64
2, 124560, Note_on_c, 0, 72, 0
2, 124560, Note_on_c, 0, 74, 64
2, 124680, Note_on_c, 0, 74, 0
2, 124680, Note_on_c, 0, 82, 64
2, 124800, Note_on_c, 0, 82, 0
2, 124800, Note_on_c, 0, 77, 64
2, 125040, Note_on_c, 0, 77, 0
2, 125040, Note_on_c, 0, 76, 64
2, 125160, Note_on_c, 0, 76, 0
2, 125160, Note_on_c, 0, 75, 64
2, 125280, Note_on_c, 0, 75, 0
2, 125280, Note_on_c, 0, 74, 64
2, 125400, Note_on_c, 0, 74, 0
2, 125400, Note_on_c, 0, 74, 64
2, 125520, Note_on_c, 0, 74, 0
2, 125520, Note_on_c, 0, 75, 64
2, 125640, Note_on_c, 0, 75, 0
2, 125640, Note_on_c, 0, 77, 64
2, 125760, Note_on_c, 0, 77, 0
2, 125760, Note_on_c, 0, 79, 64
2, 126120, Note_on_c, 0, 79, 0
2, 126120, Note_on_c, 0, 81, 64
2, 126180, Note_on_c, 0, 81, 0
2, 126180, Note_on_c, 0, 83, 64
2, 126240, Note_on_c, 0, 83, 0
2, 126240, Note_on_c, 0, 84, 64
2, 126300, Note_on_c, 0, 84, 0
2, 126300, Note_on_c, 0, 86, 64
2, 126360, Note_on_c, 0, 86, 0
2, 126360, Note_on_c, 0, 87, 64
2, 126420, Note_on_c, 0, 87, 0
2, 126420, Note_on_c, 0, 86, 64
2, 126480, Note_on_c, 0, 86, 0
2, 126480, Note_on_c, 0, 84, 64
2, 126540, Note_on_c, 0, 84, 0
2, 126540, Note_on_c, 0, 86, 64
2, 126600, Note_on_c, 0, 86, 0
2, 126600, Note_on_c, 0, 82, 64
2, 126660, Note_on_c, 0, 82, 0
2, 126660, Note_on_c, 0, 84, 64
2, 126720, Note_on_c, 0, 84, 0
2, 126720, Note_on_c, 0, 81, 64
2, 126780, Note_on_c, 0, 81, 0
2, 126780, Note_on_c, 0, 82, 64
2, 126840, Note_on_c, 0, 82, 0
2, 126840, Note_on_c, 0, 79, 64
2, 126900, Note_on_c, 0, 79, 0
2, 126900, Note_on_c, 0, 81, 64
2, 126960, Note_on_c, 0, 81, 0
2, 126960, Note_on_c, 0, 77, 64
2, 127020, Note_on_c, 0, 77, 0
2, 127020, Note_on_c, 0, 79, 64
2, 127080, Note_on_c, 0, 79, 0
2, 127080, Note_on_c, 0, 75, 64
2, 127140, Note_on_c, 0, 75, 0
2, 127140, Note_on_c, 0, 77, 64
2, 127200, Note_on_c, 0, 77, 0
2, 127200, Note_on_c, 0, 74, 64
2, 127260, Note_on_c, 0, 74, 0
2, 127260, Note_on_c, 0, 75, 64
2, 127320, Note_on_c, 0, 75, 0
2, 127320, Note_on_c, 0, 77, 64
2, 127380, Note_on_c, 0, 77, 0
2, 127380, Note_on_c, 0, 79, 64
2, 127440, Note_on_c, 0, 79, 0
2, 127440, Note_on_c, 0, 81, 64
2, 127500, Note_on_c, 0, 81, 0
2, 127500, Note_on_c, 0, 82, 64
2, 127560, Note_on_c, 0, 82, 0
2, 127560, Note_on_c, 0, 81, 64
2, 127620, Note_on_c, 0, 81, 0
2, 127620, Note_on_c, 0, 82, 64
2, 127680, Note_on_c, 0, 82, 0
2, 127680, Note_on_c, 0, 84, 64
2, 127740, Note_on_c, 0, 84, 0
2, 127740, Note_on_c, 0, 82, 64
2, 127800, Note_on_c, 0, 82, 0
2, 127800, Note_on_c, 0, 81, 64
2, 127860, Note_on_c, 0, 81, 0
2, 127860, Note_on_c, 0, 79, 64
2, 127920, Note_on_c, 0, 79, 0
2, 127920, Note_on_c, 0, 81, 64
2, 127980, Note_on_c, 0, 81, 0
2, 127980, Note_on_c, 0, 79, 64
2, 128040, Note_on_c, 0, 79, 0
2, 128040, Note_on_c, 0, 77, 64
2, 128100, Note_on_c, 0, 77, 0
2, 128100, Note_on_c, 0, 75, 64
2, 128160, Note_on_c, 0, 75, 0
2, 128160, Note_on_c, 0, 74, 64
2, 128400, Note_on_c, 0, 74, 0
2, 128400, Note_on_c, 0, 72, 64
2, 128400, Note_on_c, 0, 69, 64
2, 128440, Note_on_c, 0, 72, 0
2, 128440, Note_on_c, 0, 74, 64
2, 128480, Note_on_c, 0, 74, 0
2, 128480, Note_on_c, 0, 72, 64
2, 128520, Note_on_c, 0, 72, 0
2, 128520, Note_on_c, 0, 74, 64
2, 128550, Note_on_c, 0, 74, 0
2, 128550, Note_on_c, 0, 72, 64
2, 128580, Note_on_c, 0, 72, 0
2, 128580, Note_on_c, 0, 70, 64
2, 128610, Note_on_c, 0, 70, 0
2, 128610, Note_on_c, 0, 72, 64
2, 128640, Note_on_c, 0, 72, 0
2, 128640, Note_on_c, 0, 69, 0
2, 128640, Note_on_c, 0, 70, 64
2, 128880, Note_on_c, 0, 70, 0
2, 129600, Note_on_c, 0, 75, 64
2, 129720, Note_on_c, 0, 75, 0
2, 129720, Note_on_c, 0, 72, 64
2, 129840, Note_on_c, 0, 72, 0
2, 129840, Note_on_c, 0, 69, 64
2, 129960, Note_on_c, 0, 69, 0
2, 129960, Note_on_c, 0, 69, 64
2, 130080, Note_on_c, 0, 69, 0
2, 130080, Note_on_c, 0, 75, 64
2, 130200, Note_on_c, 0, 75, 0
2, 130200, Note_on_c, 0, 72, 64
2, 130320, Note_on_c, 0, 72, 0
2, 130320, Note_on_c, 0, 69, 64
2, 130440, Note_on_c, 0, 69, 0
2, 130440, Note_on_c, 0, 69, 64
2, 130560, Note_on_c, 0, 69, 0
2, 130560, Note_on_c, 0, 70, 64
2, 130680, Note_on_c, 0, 70, 0
2, 130680, Note_on_c, 0, 72, 64
2, 130800, Note_on_c, 0, 72, 0
2, 130800, Note_on_c, 0, 74, 64
2, 130920, Note_on_c, 0, 74, 0
2, 130920, Note_on_c, 0, 75, 64
2, 131040, Note_on_c, 0, 75, 0
2, 131040, Note_on_c, 0, 76, 64
2, 131160, Note_on_c, 0, 76, 0
2, 131160, Note_on_c, 0, 77, 64
2, 131280, Note_on_c, 0, 77, 0
2, 131280, Note_on_c, 0, 76, 64
2, 131400, Note_on_c, 0, 76, 0
2, 131400, Note_on_c, 0, 77, 64
2, 131520, Note_on_c, 0, 77, 0
2, 131520, Note_on_c, 0, 75, 64
2, 131520, Note_on_c, 0, 87, 64
2, 131640, Note_on_c, 0, 87, 0
2, 131640, Note_on_c, 0, 75, 0
2, 131640, Note_on_c, 0, 84, 64
2, 131640, Note_on_c, 0, 72, 64
2, 131760, Note_on_c, 0, 72, 0
2, 131760, Note_on_c, 0, 84, 0
2, 131760, Note_on_c, 0, 81, 64
2, 131760, Note_on_c, 0, 69, 64
2, 131880, Note_on_c, 0, 69, 0
2, 131880, Note_on_c, 0, 81, 0
2, 131880, Note_on_c, 0, 69, 64
2, 131880, Note_on_c, 0, 81, 64
2, 132000, Note_on_c, 0, 81, 0
2, 132000, Note_on_c, 0, 69, 0
2, 132000, Note_on_c, 0, 87, 64
2, 132000, Note_on_c, 0, 75, 64
2, 132120, Note_on_c, 0, 75, 0
2, 132120, Note_on_c, 0, 87, 0
2, 132120, Note_on_c, 0, 72, 64
2, 132120, Note_on_c, 0, 84, 64
2, 132240, Note_on_c, 0, 84, 0
2, 132240, Note_on_c, 0, 72, 0
2, 132240, Note_on_c, 0, 81, 64
2, 132240, Note_on_c, 0, 69, 64
2, 132360, Note_on_c, 0, 69, 0
2, 132360, Note_on_c, 0, 81, 0
2, 132360, Note_on_c, 0, 69, 64
2, 132360, Note_on_c, 0, 81, 64
2, 132480, Note_on_c, 0, 81, 0
2, 132480, Note_on_c, 0, 69, 0
2, 132480, Note_on_c, 0, 82, 64
2, 132480, Note_on_c, 0, 70, 64
2, 132600, Note_on_c, 0, 70, 0
2, 132600, Note_on_c, 0, 82, 0
2, 132600, Note_on_c, 0, 72, 64
2, 132600, Note_on_c, 0, 84, 64
2, 132720, Note_on_c, 0, 84, 0
2, 132720, Note_on_c, 0, 72, 0
2, 132720, Note_on_c, 0, 86, 64
2, 132720, Note_on_c, 0, 74, 64
2, 132840, Note_on_c, 0, 74, 0
2, 132840, Note_on_c, 0, 86, 0
2, 132840, Note_on_c, 0, 75, 64
2, 132840, Note_on_c, 0, 87, 64
2, 132960, Note_on_c, 0, 87, 0
2, 132960, Note_on_c, 0, 75, 0
2, 132960, Note_on_c, 0, 88, 64
2, 132960, Note_on_c, 0, 76, 64
2, 133080, Note_on_c, 0, 76, 0
2, 133080, Note_on_c, 0, 88, 0
2, 133080, Note_on_c, 0, 77, 64
2, 133080, Note_on_c, 0, 89, 64
2, 133200, Note_on_c, 0, 89, 0
2, 133200, Note_on_c, 0, 77, 0
2, 133200, Note_on_c, 0, 88, 64
2, 133200, Note_on_c, 0, 76, 64
2, 133320, Note_on_c, 0, 76, 0
2, 133320, Note_on_c, 0, 88, 0
2, 133320, Note_on_c, 0, 77, 64
2, 133320, Note_on_c, 0, 89, 64
2, 133440, Note_on_c, 0, 89, 0
2, 133440, Note_on_c, 0, 77, 0
2, 133440, Note_on_c, 0, 79, 64
2, 133440, Note_on_c, 0, 91, 64
2, 133920, Note_on_c, 0, 91, 0
2, 133920, Note_on_c, 0, 79, 0
2, 133920, Note_on_c, 0, 69, 64
2, 133920, Note_on_c, 0, 81, 64
2, 134400, Note_on_c, 0, 81, 0
2, 134400, Note_on_c, 0, 69, 0
2, 134400, Note_on_c, 0, 87, 64
2, 134400, Note_on_c, 0, 75, 64
2, 134880, Note_on_c, 0, 75, 0
2, 134880, Note_on_c, 0, 87, 0
2, 134880, Note_on_c, 0, 86, 64
2, 134880, Note_on_c, 0, 74, 64
2, 135360, Note_on_c, 0, 74, 0
2, 135360, Note_on_c, 0, 86, 0
2, 135360, Note_on_c, 0, 86, 64
2, 135420, Note_on_c, 0, 86, 0
2, 135420, Note_on_c, 0, 84, 64
2, 135480, Note_on_c, 0, 84, 0
2, 135480, Note_on_c, 0, 87, 64
2, 135540, Note_on_c, 0, 87, 0
2, 135540, Note_on_c, 0, 86, 64
2, 135600, Note_on_c, 0, 86, 0
2, 135600, Note_on_c, 0, 89, 64
2, 135660, Note_on_c, 0, 89, 0
2, 135660, Note_on_c, 0, 87, 64
2, 135720, Note_on_c, 0, 87, 0
2, 135720, Note_on_c, 0, 86, 64
2, 135780, Note_on_c, 0, 86, 0
2, 135780, Note_on_c, 0, 84, 64
2, 135840, Note_on_c, 0, 84, 0
2, 135840, Note_on_c, 0, 82, 64
2, 136080, Note_on_c, 0, 82, 0
2, 136080, Note_on_c, 0, 81, 64
2, 136320, Note_on_c, 0, 81, 0
2, 136440, Note_on_c, 0, 82, 64
2, 136560, Note_on_c, 0, 82, 0
2, 136560, Note_on_c, 0, 81, 64
2, 136680, Note_on_c, 0, 81, 0
2, 136680, Note_on_c, 0, 82, 64
2, 136800, Note_on_c, 0, 82, 0
2, 136920, Note_on_c, 0, 80, 64
2, 137040, Note_on_c, 0, 80, 0
2, 137040, Note_on_c, 0, 79, 64
2, 137160, Note_on_c, 0, 79, 0
2, 137160, Note_on_c, 0, 80, 64
2, 137280, Note_on_c, 0, 80, 0
2, 137400, Note_on_c, 0, 79, 64
2, 137520, Note_on_c, 0, 79, 0
2, 137520, Note_on_c, 0, 78, 64
2, 137640, Note_on_c, 0, 78, 0
2, 137640, Note_on_c, 0, 79, 64
2, 137760, Note_on_c, 0, 79, 0
2, 137880, Note_on_c, 0, 79, 64
2, 138000, Note_on_c, 0, 79, 0
2, 138000, Note_on_c, 0, 87, 64
2, 138120, Note_on_c, 0, 87, 0
2, 138120, Note_on_c, 0, 87, 64
2, 138240, Note_on_c, 0, 87, 0
2, 138360, Note_on_c, 0, 87, 64
2, 138480, Note_on_c, 0, 87, 0
2, 138480, Note_on_c, 0, 77, 64
2, 138600, Note_on_c, 0, 77, 0
2, 138600, Note_on_c, 0, 77, 64
2, 138720, Note_on_c, 0, 77, 0
2, 138840, Note_on_c, 0, 77, 64
2, 138960, Note_on_c, 0, 77, 0
2, 138960, Note_on_c, 0, 86, 64
2, 139080, Note_on_c, 0, 86, 0
2, 139080, Note_on_c, 0, 86, 64
2, 139200, Note_on_c, 0, 86, 0
2, 139320, Note_on_c, 0, 86, 64
2, 139440, Note_on_c, 0, 86, 0
2, 139440, Note_on_c, 0, 75, 64
2, 139560, Note_on_c, 0, 75, 0
2, 139560, Note_on_c, 0, 75, 64
2, 139680, Note_on_c, 0, 75, 0
2, 139800, Note_on_c, 0, 75, 64
2, 139920, Note_on_c, 0, 75, 0
2, 139920, Note_on_c, 0, 84, 64
2, 140040, Note_on_c, 0, 84, 0
2, 140040, Note_on_c, 0, 84, 64
2, 140160, Note_on_c, 0, 84, 0
2, 140280, Note_on_c, 0, 84, 64
2, 140400, Note_on_c, 0, 84, 0
2, 140400, Note_on_c, 0, 74, 64
2, 140520, Note_on_c, 0, 74, 0
2, 140520, Note_on_c, 0, 74, 64
2, 140640, Note_on_c, 0, 74, 0
2, 140760, Note_on_c, 0, 74, 64
2, 140880, Note_on_c, 0, 74, 0
2, 140880, Note_on_c, 0, 82, 64
2, 141000, Note_on_c, 0, 82, 0
2, 141000, Note_on_c, 0, 82, 64
2, 141120, Note_on_c, 0, 82, 0
2, 141120, Note_on_c, 0, 82, 64
2, 141240, Note_on_c, 0, 82, 0
2, 141240, Note_on_c, 0, 72, 64
2, 141360, Note_on_c, 0, 72, 0
2, 141600, Note_on_c, 0, 82, 64
2, 141720, Note_on_c, 0, 82, 0
2, 141720, Note_on_c, 0, 74, 64
2, 141840, Note_on_c, 0, 74, 0
2, 142080, Note_on_c, 0, 82, 64
2, 142200, Note_on_c, 0, 82, 0
2, 142200, Note_on_c, 0, 75, 64
2, 142320, Note_on_c, 0, 75, 0
2, 142560, Note_on_c, 0, 82, 64
2, 142680, Note_on_c, 0, 82, 0
2, 142680, Note_on_c, 0, 76, 64
2, 142800, Note_on_c, 0, 76, 0
2, 143040, Note_on_c, 0, 82, 64
2, 143160, Note_on_c, 0, 82, 0
2, 143160, Note_on_c, 0, 77, 64
2, 143280, Note_on_c, 0, 77, 0
2, 143280, Note_on_c, 0, 82, 64
2, 143400, Note_on_c, 0, 82, 0
2, 143400, Note_on_c, 0, 78, 64
2, 143520, Note_on_c, 0, 78, 0
2, 143520, Note_on_c, 0, 82, 64
2, 143640, Note_on_c, 0, 82, 0
2, 143640, Note_on_c, 0, 79, 64
2, 143760, Note_on_c, 0, 79, 0
2, 143760, Note_on_c, 0, 87, 64
2, 143880, Note_on_c, 0, 87, 0
2, 143880, Note_on_c, 0, 81, 64
2, 144000, Note_on_c, 0, 81, 0
2, 144000, Note_on_c, 0, 87, 64
2, 144030, Note_on_c, 0, 87, 0
2, 144030, Note_on_c, 0, 86, 64
2, 144060, Note_on_c, 0, 86, 0
2, 144060, Note_on_c, 0, 87, 64
2, 144090, Note_on_c, 0, 87, 0
2, 144090, Note_on_c, 0, 86, 64
2, 144120, Note_on_c, 0, 86, 0
2, 144120, Note_on_c, 0, 89, 64
2, 144240, Note_on_c, 0, 89, 0
2, 144240, Note_on_c, 0, 84, 64
2, 144270, Note_on_c, 0, 84, 0
2, 144270, Note_on_c, 0, 82, 64
2, 144300, Note_on_c, 0, 82, 0
2, 144300, Note_on_c, 0, 84, 64
2, 144330, Note_on_c, 0, 84, 0
2, 144330, Note_on_c, 0, 82, 64
2, 144360, Note_on_c, 0, 82, 0
2, 144360, Note_on_c, 0, 86, 64
2, 144480, Note_on_c, 0, 86, 0
2, 144480, Note_on_c, 0, 81, 64
2, 144510, Note_on_c, 0, 81, 0
2, 144510, Note_on_c, 0, 79, 64
2, 144540, Note_on_c, 0, 79, 0
2, 144540, Note_on_c, 0, 81, 64
2, 144570, Note_on_c, 0, 81, 0
2, 144570, Note_on_c, 0, 79, 64
2, 144600, Note_on_c, 0, 79, 0
2, 144600, Note_on_c, 0, 82, 64
2, 144720, Note_on_c, 0, 82, 0
2, 144720, Note_on_c, 0, 74, 64
2, 144750, Note_on_c, 0, 74, 0
2, 144750, Note_on_c, 0, 72, 64
2, 144780, Note_on_c, 0, 72, 0
2, 144780, Note_on_c, 0, 74, 64
2, 144810, Note_on_c, 0, 74, 0
2, 144810, Note_on_c, 0, 72, 64
2, 144840, Note_on_c, 0, 72, 0
2, 144840, Note_on_c, 0, 75, 64
2, 144960, Note_on_c, 0, 75, 0
2, 144960, Note_on_c, 0, 65, 64
2, 145020, Note_on_c, 0, 65, 0
2, 145020, Note_on_c, 0, 77, 64
2, 145080, Note_on_c, 0, 77, 0
2, 145080, Note_on_c, 0, 79, 64
2, 145140, Note_on_c, 0, 79, 0
2, 145140, Note_on_c, 0, 77, 64
2, 145200, Note_on_c, 0, 77, 0
2, 145200, Note_on_c, 0, 75, 64
2, 145260, Note_on_c, 0, 75, 0
2, 145260, Note_on_c, 0, 74, 64
2, 145320, Note_on_c, 0, 74, 0
2, 145320, Note_on_c, 0, 72, 64
2, 145380, Note_on_c, 0, 72, 0
2, 145380, Note_on_c, 0, 70, 64
2, 145440, Note_on_c, 0, 70, 0
2, 145440, Note_on_c, 0, 74, 64
2, 145480, Note_on_c, 0, 74, 0
2, 145480, Note_on_c, 0, 72, 64
2, 145520, Note_on_c, 0, 72, 0
2, 145520, Note_on_c, 0, 74, 64
2, 145560, Note_on_c, 0, 74, 0
2, 145560, Note_on_c, 0, 72, 64
2, 145600, Note_on_c, 0, 72, 0
2, 145600, Note_on_c, 0, 74, 64
2, 145640, Note_on_c, 0, 74, 0
2, 145640, Note_on_c, 0, 72, 64
2, 145680, Note_on_c, 0, 72, 0
2, 145680, Note_on_c, 0, 74, 64
2, 145720, Note_on_c, 0, 74, 0
2, 145720, Note_on_c, 0, 72, 64
2, 145760, Note_on_c, 0, 72, 0
2, 145760, Note_on_c, 0, 74, 64
2, 145800, Note_on_c, 0, 74, 0
2, 145800, Note_on_c, 0, 72, 64
2, 145840, Note_on_c, 0, 72, 0
2, 145840, Note_on_c, 0, 70, 64
2, 145880, Note_on_c, 0, 70, 0
2, 145880, Note_on_c, 0, 72, 64
2, 145920, Note_on_c, 0, 72, 0
2, 145920, Note_on_c, 0, 70, 64
2, 146040, Note_on_c, 0, 70, 0
2, 146040, Note_on_c, 0, 58, 64
2, 146100, Note_on_c, 0, 58, 0
2, 146100, Note_on_c, 0, 62, 64
2, 146160, Note_on_c, 0, 62, 0
2, 146160, Note_on_c, 0, 60, 64
2, 146220, Note_on_c, 0, 60, 0
2, 146220, Note_on_c, 0, 63, 64
2, 146280, Note_on_c, 0, 63, 0
2, 146280, Note_on_c, 0, 62, 64
2, 146340, Note_on_c, 0, 62, 0
2, 146340, Note_on_c, 0, 65, 64
2, 146400, Note_on_c, 0, 65, 0
2, 146400, Note_on_c, 0, 63, 64
2, 146520, Note_on_c, 0, 63, 0
2, 146520, Note_on_c, 0, 58, 64
2, 146580, Note_on_c, 0, 58, 0
2, 146580, Note_on_c, 0, 62, 64
2, 146640, Note_on_c, 0, 62, 0
2, 146640, Note_on_c, 0, 60, 64
2, 146700, Note_on_c, 0, 60, 0
2, 146700, Note_on_c, 0, 63, 64
2, 146760, Note_on_c, 0, 63, 0
2, 146760, Note_on_c, 0, 62, 64
2, 146820, Note_on_c, 0, 62, 0
2, 146820, Note_on_c, 0, 65, 64
2, 146880, Note_on_c, 0, 65, 0
2, 146880, Note_on_c, 0, 63, 64
2, 147000, Note_on_c, 0, 63, 0
2, 147000, Note_on_c, 0, 58, 64
2, 147060, Note_on_c, 0, 58, 0
2, 147060, Note_on_c, 0, 62, 64
2, 147120, Note_on_c, 0, 62, 0
2, 147120, Note_on_c, 0, 60, 64
2, 147180, Note_on_c, 0, 60, 0
2, 147180, Note_on_c, 0, 63, 64
2, 147240, Note_on_c, 0, 63, 0
2, 147240, Note_on_c, 0, 62, 64
2, 147300, Note_on_c, 0, 62, 0
2, 147300, Note_on_c, 0, 65, 64
2, 147360, Note_on_c, 0, 65, 0
2, 147360, Note_on_c, 0, 63, 64
2, 147420, Note_on_c, 0, 63, 0
2, 147420, Note_on_c, 0, 67, 64
2, 147480, Note_on_c, 0, 67, 0
2, 147480, Note_on_c, 0, 65, 64
2, 147540, Note_on_c, 0, 65, 0
2, 147540, Note_on_c, 0, 68, 64
2, 147600, Note_on_c, 0, 68, 0
2, 147600, Note_on_c, 0, 67, 64
2, 147660, Note_on_c, 0, 67, 0
2, 147660, Note_on_c, 0, 70, 64
2, 147720, Note_on_c, 0, 70, 0
2, 147720, Note_on_c, 0, 69, 64
2, 147780, Note_on_c, 0, 69, 0
2, 147780, Note_on_c, 0, 72, 64
2, 147840, Note_on_c, 0, 72, 0
2, 147840, Note_on_c, 0, 70, 64
2, 147900, Note_on_c, 0, 70, 0
2, 147900, Note_on_c, 0, 72, 64
2, 147960, Note_on_c, 0, 72, 0
2, 147960, Note_on_c, 0, 74, 64
2, 148020, Note_on_c, 0, 74, 0
2, 148020, Note_on_c, 0, 72, 64
2, 148080, Note_on_c, 0, 72, 0
2, 148080, Note_on_c, 0, 70, 64
2, 148140, Note_on_c, 0, 70, 0
2, 148140, Note_on_c, 0, 68, 64
2, 148200, Note_on_c, 0, 68, 0
2, 148200, Note_on_c, 0, 67, 64
2, 148260, Note_on_c, 0, 67, 0
2, 148260, Note_on_c, 0, 66, 64
2, 148320, Note_on_c, 0, 66, 0
2, 148320, Note_on_c, 0, 67, 64
2, 148380, Note_on_c, 0, 67, 0
2, 148380, Note_on_c, 0, 72, 64
2, 148440, Note_on_c, 0, 72, 0
2, 148440, Note_on_c, 0, 75, 64
2, 148500, Note_on_c, 0, 75, 0
2, 148500, Note_on_c, 0, 74, 64
2, 148560, Note_on_c, 0, 74, 0
2, 148560, Note_on_c, 0, 72, 64
2, 148620, Note_on_c, 0, 72, 0
2, 148620, Note_on_c, 0, 70, 64
2, 148680, Note_on_c, 0, 70, 0
2, 148680, Note_on_c, 0, 69, 64
2, 148740, Note_on_c, 0, 69, 0
2, 148740, Note_on_c, 0, 67, 64
2, 148800, Note_on_c, 0, 67, 0
2, 148800, Note_on_c, 0, 65, 64
2, 148860, Note_on_c, 0, 65, 0
2, 148860, Note_on_c, 0, 70, 64
2, 148920, Note_on_c, 0, 70, 0
2, 148920, Note_on_c, 0, 74, 64
2, 148980, Note_on_c, 0, 74, 0
2, 148980, Note_on_c, 0, 77, 64
2, 149040, Note_on_c, 0, 77, 0
2, 149040, Note_on_c, 0, 82, 64
2, 149160, Note_on_c, 0, 82, 0
2, 149160, Note_on_c, 0, 70, 64
2, 149160, Note_on_c, 0, 74, 64
2, 149280, Note_on_c, 0, 74, 0
2, 149280, Note_on_c, 0, 70, 0
2, 149280, Note_on_c, 0, 74, 64
2, 149280, Note_on_c, 0, 77, 64
2, 149400, Note_on_c, 0, 77, 0
2, 149400, Note_on_c, 0, 74, 0
2, 149400, Note_on_c, 0, 72, 64
2, 149400, Note_on_c, 0, 75, 64
2, 149520, Note_on_c, 0, 75, 0
2, 149520, Note_on_c, 0, 72, 0
2, 149520, Note_on_c, 0, 70, 64
2, 149520, Note_on_c, 0, 74, 64
2, 149640, Note_on_c, 0, 74, 0
2, 149640, Note_on_c, 0, 70, 0
2, 149640, Note_on_c, 0, 69, 64
2, 149640, Note_on_c, 0, 72, 64
2, 149760, Note_on_c, 0, 72, 0
2, 149760, Note_on_c, 0, 69, 0
2, 149760, Note_on_c, 0, 70, 64
2, 149880, Note_on_c, 0, 70, 0
2, 149880, Note_on_c, 0, 70, 64
2, 149940, Note_on_c, 0, 70, 0
2, 149940, Note_on_c, 0, 74, 64
2, 150000, Note_on_c, 0, 74, 0
2, 150000, Note_on_c, 0, 72, 64
2, 150060, Note_on_c, 0, 72, 0
2, 150060, Note_on_c, 0, 75, 64
2, 150120, Note_on_c, 0, 75, 0
2, 150120, Note_on_c, 0, 74, 64
2, 150180, Note_on_c, 0, 74, 0
2, 150180, Note_on_c, 0, 77, 64
2, 150240, Note_on_c, 0, 77, 0
2, 150240, Note_on_c, 0, 75, 64
2, 150360, Note_on_c, 0, 75, 0
2, 150360, Note_on_c, 0, 82, 64
2, 150420, Note_on_c, 0, 82, 0
2, 150420, Note_on_c, 0, 86, 64
2, 150480, Note_on_c, 0, 86, 0
2, 150480, Note_on_c, 0, 84, 64
2, 150540, Note_on_c, 0, 84, 0
2, 150540, Note_on_c, 0, 87, 64
2, 150600, Note_on_c, 0, 87, 0
2, 150600, Note_on_c, 0, 86, 64
2, 150660, Note_on_c, 0, 86, 0
2, 150660, Note_on_c, 0, 89, 64
2, 150720, Note_on_c, 0, 89, 0
2, 150720, Note_on_c, 0, 87, 64
2, 150840, Note_on_c, 0, 87, 0
2, 150840, Note_on_c, 0, 70, 64
2, 150900, Note_on_c, 0, 70, 0
2, 150900, Note_on_c, 0, 74, 64
2, 150960, Note_on_c, 0, 74, 0
2, 150960, Note_on_c, 0, 72, 64
2, 151020, Note_on_c, 0, 72, 0
2, 151020, Note_on_c, 0, 75, 64
2, 151080, Note_on_c, 0, 75, 0
2, 151080, Note_on_c, 0, 74, 64
2, 151140, Note_on_c, 0, 74, 0
2, 151140, Note_on_c, 0, 77, 64
2, 151200, Note_on_c, 0, 77, 0
2, 151200, Note_on_c, 0, 75, 64
2, 151260, Note_on_c, 0, 75, 0
2, 151260, Note_on_c, 0, 70, 64
2, 151320, Note_on_c, 0, 70, 0
2, 151320, Note_on_c, 0, 77, 64
2, 151380, Note_on_c, 0, 77, 0
2, 151380, Note_on_c, 0, 70, 64
2, 151440, Note_on_c, 0, 70, 0
2, 151440, Note_on_c, 0, 79, 64
2, 151500, Note_on_c, 0, 79, 0
2, 151500, Note_on_c, 0, 70, 64
2, 151560, Note_on_c, 0, 70, 0
2, 151560, Note_on_c, 0, 81, 64
2, 151620, Note_on_c, 0, 81, 0
2, 151620, Note_on_c, 0, 70, 64
2, 151680, Note_on_c, 0, 70, 0
2, 151680, Note_on_c, 0, 82, 64
2, 151740, Note_on_c, 0, 82, 0
2, 151740, Note_on_c, 0, 84, 64
2, 151800, Note_on_c, 0, 84, 0
2, 151800, Note_on_c, 0, 86, 64
2, 151860, Note_on_c, 0, 86, 0
2, 151860, Note_on_c, 0, 84, 64
2, 151920, Note_on_c, 0, 84, 0
2, 151920, Note_on_c, 0, 82, 64
2, 151980, Note_on_c, 0, 82, 0
2, 151980, Note_on_c, 0, 80, 64
2, 152040, Note_on_c, 0, 80, 0
2, 152040, Note_on_c, 0, 79, 64
2, 152100, Note_on_c, 0, 79, 0
2, 152100, Note_on_c, 0, 78, 64
2, 152160, Note_on_c, 0, 78, 0
2, 152160, Note_on_c, 0, 79, 64
2, 152220, Note_on_c, 0, 79, 0
2, 152220, Note_on_c, 0, 77, 64
2, 152280, Note_on_c, 0, 77, 0
2, 152280, Note_on_c, 0, 75, 64
2, 152340, Note_on_c, 0, 75, 0
2, 152340, Note_on_c, 0, 74, 64
2, 152400, Note_on_c, 0, 74, 0
2, 152400, Note_on_c, 0, 72, 64
2, 152460, Note_on_c, 0, 72, 0
2, 152460, Note_on_c, 0, 70, 64
2, 152520, Note_on_c, 0, 70, 0
2, 152520, Note_on_c, 0, 69, 64
2, 152580, Note_on_c, 0, 69, 0
2, 152580, Note_on_c, 0, 67, 64
2, 152640, Note_on_c, 0, 67, 0
2, 152640, Note_on_c, 0, 65, 64
2, 152760, Note_on_c, 0, 65, 0
2, 152760, Note_on_c, 0, 86, 64
2, 152880, Note_on_c, 0, 86, 0
2, 152880, Note_on_c, 0, 86, 64
2, 153000, Note_on_c, 0, 86, 0
2, 153000, Note_on_c, 0, 86, 64
2, 153120, Note_on_c, 0, 86, 0
2, 153120, Note_on_c, 0, 86, 64
2, 153180, Note_on_c, 0, 86, 0
2, 153180, Note_on_c, 0, 82, 64
2, 153240, Note_on_c, 0, 82, 0
2, 153240, Note_on_c, 0, 77, 64
2, 153300, Note_on_c, 0, 77, 0
2, 153300, Note_on_c, 0, 74, 64
2, 153360, Note_on_c, 0, 74, 0
2, 153360, Note_on_c, 0, 82, 64
2, 153420, Note_on_c, 0, 82, 0
2, 153420, Note_on_c, 0, 77, 64
2, 153480, Note_on_c, 0, 77, 0
2, 153480, Note_on_c, 0, 74, 64
2, 153540, Note_on_c, 0, 74, 0
2, 153540, Note_on_c, 0, 70, 64
2, 153600, Note_on_c, 0, 70, 0
2, 153600, Note_on_c, 0, 74, 64
2, 153640, Note_on_c, 0, 74, 0
2, 153640, Note_on_c, 0, 72, 64
2, 153680, Note_on_c, 0, 72, 0
2, 153680, Note_on_c, 0, 74, 64
2, 153720, Note_on_c, 0, 74, 0
2, 153720, Note_on_c, 0, 72, 64
2, 153760, Note_on_c, 0, 72, 0
2, 153760, Note_on_c, 0, 74, 64
2, 153800, Note_on_c, 0, 74, 0
2, 153800, Note_on_c, 0, 72, 64
2, 153840, Note_on_c, 0, 72, 0
2, 153840, Note_on_c, 0, 74, 64
2, 153880, Note_on_c, 0, 74, 0
2, 153880, Note_on_c, 0, 72, 64
2, 153920, Note_on_c, 0, 72, 0
2, 153920, Note_on_c, 0, 74, 64
2, 153960, Note_on_c, 0, 74, 0
2, 153960, Note_on_c, 0, 72, 64
2, 154000, Note_on_c, 0, 72, 0
2, 154000, Note_on_c, 0, 74, 64
2, 154040, Note_on_c, 0, 74, 0
2, 154040, Note_on_c, 0, 72, 64
2, 154080, Note_on_c, 0, 72, 0
2, 154080, Note_on_c, 0, 74, 64
2, 154120, Note_on_c, 0, 74, 0
2, 154120, Note_on_c, 0, 72, 64
2, 154160, Note_on_c, 0, 72, 0
2, 154160, Note_on_c, 0, 74, 64
2, 154200, Note_on_c, 0, 74, 0
2, 154200, Note_on_c, 0, 72, 64
2, 154240, Note_on_c, 0, 72, 0
2, 154240, Note_on_c, 0, 74, 64
2, 154280, Note_on_c, 0, 74, 0
2, 154280, Note_on_c, 0, 72, 64
2, 154320, Note_on_c, 0, 72, 0
2, 154320, Note_on_c, 0, 74, 64
2, 154360, Note_on_c, 0, 74, 0
2, 154360, Note_on_c, 0, 72, 64
2, 154400, Note_on_c, 0, 72, 0
2, 154400, Note_on_c, 0, 74, 64
2, 154440, Note_on_c, 0, 74, 0
2, 154440, Note_on_c, 0, 72, 64
2, 154480, Note_on_c, 0, 72, 0
2, 154480, Note_on_c, 0, 70, 64
2, 154520, Note_on_c, 0, 70, 0
2, 154520, Note_on_c, 0, 72, 64
2, 154560, Note_on_c, 0, 72, 0
2, 154560, Note_on_c, 0, 70, 64
2, 154680, Note_on_c, 0, 70, 0
2, 154680, Note_on_c, 0, 82, 64
2, 154800, Note_on_c, 0, 82, 0
2, 154920, Note_on_c, 0, 82, 64
2, 155040, Note_on_c, 0, 82, 0
2, 155040, Note_on_c, 0, 81, 64
2, 155160, Note_on_c, 0, 81, 0
2, 155160, Note_on_c, 0, 82, 64
2, 155280, Note_on_c, 0, 82, 0
2, 155280, Note_on_c, 0, 84, 64
2, 155400, Note_on_c, 0, 84, 0
2, 155400, Note_on_c, 0, 86, 64
2, 155520, Note_on_c, 0, 86, 0
2, 155520, Note_on_c, 0, 87, 64
2, 155580, Note_on_c, 0, 87, 0
2, 155580, Note_on_c, 0, 86, 64
2, 155640, Note_on_c, 0, 86, 0
2, 155640, Note_on_c, 0, 87, 64
2, 155700, Note_on_c, 0, 87, 0
2, 155700, Note_on_c, 0, 86, 64
2, 155760, Note_on_c, 0, 86, 0
2, 155760, Note_on_c, 0, 87, 64
2, 155820, Note_on_c, 0, 87, 0
2, 155820, Note_on_c, 0, 85, 64
2, 155880, Note_on_c, 0, 85, 0
2, 155880, Note_on_c, 0, 84, 64
2, 155940, Note_on_c, 0, 84, 0
2, 155940, Note_on_c, 0, 82, 64
2, 156000, Note_on_c, 0, 82, 0
2, 156000, Note_on_c, 0, 81, 64
2, 156060, Note_on_c, 0, 81, 0
2, 156060, Note_on_c, 0, 82, 64
2, 156120, Note_on_c, 0, 82, 0
2, 156120, Note_on_c, 0, 84, 64
2, 156180, Note_on_c, 0, 84, 0
2, 156180, Note_on_c, 0, 82, 64
2, 156240, Note_on_c, 0, 82, 0
2, 156240, Note_on_c, 0, 81, 64
2, 156300, Note_on_c, 0, 81, 0
2, 156300, Note_on_c, 0, 79, 64
2, 156360, Note_on_c, 0, 79, 0
2, 156360, Note_on_c, 0, 77, 64
2, 156420, Note_on_c, 0, 77, 0
2, 156420, Note_on_c, 0, 75, 64
2, 156480, Note_on_c, 0, 75, 0
2, 156480, Note_on_c, 0, 74, 64
2, 156600, Note_on_c, 0, 74, 0
2, 156600, Note_on_c, 0, 74, 64
2, 156720, Note_on_c, 0, 74, 0
2, 156840, Note_on_c, 0, 70, 64
2, 156960, Note_on_c, 0, 70, 0
2, 156960, Note_on_c, 0, 69, 64
2, 157080, Note_on_c, 0, 69, 0
2, 157080, Note_on_c, 0, 70, 64
2, 157200, Note_on_c, 0, 70, 0
2, 157200, Note_on_c, 0, 72, 64
2, 157320, Note_on_c, 0, 72, 0
2, 157320, Note_on_c, 0, 74, 64
2, 157440, Note_on_c, 0, 74, 0
2, 157440, Note_on_c, 0, 75, 64
2, 157560, Note_on_c, 0, 75, 0
2, 157560, Note_on_c, 0, 77, 64
2, 157590, Note_on_c, 0, 77, 0
2, 157590, Note_on_c, 0, 75, 64
2, 157620, Note_on_c, 0, 75, 0
2, 157620, Note_on_c, 0, 74, 64
2, 157650, Note_on_c, 0, 74, 0
2, 157650, Note_on_c, 0, 75, 64
2, 157680, Note_on_c, 0, 75, 0
2, 157680, Note_on_c, 0, 77, 64
2, 157800, Note_on_c, 0, 77, 0
2, 157800, Note_on_c, 0, 79, 64
2, 157920, Note_on_c, 0, 79, 0
2, 157920, Note_on_c, 0, 79, 64
2, 157920, Note_on_c, 0, 75, 64
2, 158040, Note_on_c, 0, 75, 0
2, 158040, Note_on_c, 0, 79, 0
2, 158040, Note_on_c, 0, 74, 64
2, 158040, Note_on_c, 0, 77, 64
2, 158160, Note_on_c, 0, 77, 0
2, 158160, Note_on_c, 0, 74, 0
2, 158280, Note_on_c, 0, 63, 64
2, 158280, Note_on_c, 0, 69, 64
2, 158400, Note_on_c, 0, 69, 0
2, 158400, Note_on_c, 0, 63, 0
2, 158400, Note_on_c, 0, 63, 64
2, 158400, Note_on_c, 0, 72, 64
2, 158880, Note_on_c, 0, 72, 0
2, 158880, Note_on_c, 0, 63, 0
2, 158880, Note_on_c, 0, 62, 64
2, 158880, Note_on_c, 0, 70, 64
2, 159120, Note_on_c, 0, 70, 0
2, 159120, Note_on_c, 0, 62, 0
2, 159120, End_track
3, 0, Start_track
3, 0, MIDI_port, 0
3, 0, Title_t, "Track 2"
3, 0, Program_c, 1, 1
3, 0, Control_c, 1, 7, 102
3, 1080, Note_on_c, 1, 58, 64
3, 1200, Note_on_c, 1, 58, 0
3, 1200, Note_on_c, 1, 62, 64
3, 1320, Note_on_c, 1, 62, 0
3, 1320, Note_on_c, 1, 65, 64
3, 1440, Note_on_c, 1, 65, 0
3, 1440, Note_on_c, 1, 62, 64
3, 1560, Note_on_c, 1, 62, 0
3, 1560, Note_on_c, 1, 58, 64
3, 1680, Note_on_c, 1, 58, 0
3, 1680, Note_on_c, 1, 62, 64
3, 1800, Note_on_c, 1, 62, 0
3, 1800, Note_on_c, 1, 67, 64
3, 1920, Note_on_c, 1, 67, 0
3, 2040, Note_on_c, 1, 60, 64
3, 2160, Note_on_c, 1, 60, 0
3, 2160, Note_on_c, 1, 63, 64
3, 2280, Note_on_c, 1, 63, 0
3, 2280, Note_on_c, 1, 67, 64
3, 2400, Note_on_c, 1, 67, 0
3, 2400, Note_on_c, 1, 63, 64
3, 2520, Note_on_c, 1, 63, 0
3, 2520, Note_on_c, 1, 60, 64
3, 2640, Note_on_c, 1, 60, 0
3, 2640, Note_on_c, 1, 63, 64
3, 2760, Note_on_c, 1, 63, 0
3, 2760, Note_on_c, 1, 67, 64
3, 2880, Note_on_c, 1, 67, 0
3, 3000, Note_on_c, 1, 53, 64
3, 3120, Note_on_c, 1, 53, 0
3, 3120, Note_on_c, 1, 60, 64
3, 3240, Note_on_c, 1, 60, 0
3, 3240, Note_on_c, 1, 63, 64
3, 3360, Note_on_c, 1, 63, 0
3, 3360, Note_on_c, 1, 60, 64
3, 3480, Note_on_c, 1, 60, 0
3, 3480, Note_on_c, 1, 53, 64
3, 3600, Note_on_c, 1, 53, 0
3, 3600, Note_on_c, 1, 60, 64
3, 3720, Note_on_c, 1, 60, 0
3, 3720, Note_on_c, 1, 63, 64
3, 3840, Note_on_c, 1, 63, 0
3, 3960, Note_on_c, 1, 58, 64
3, 4080, Note_on_c, 1, 58, 0
3, 4080, Note_on_c, 1, 62, 64
3, 4200, Note_on_c, 1, 62, 0
3, 4200, Note_on_c, 1, 65, 64
3, 4320, Note_on_c, 1, 65, 0
3, 4320, Note_on_c, 1, 62, 64
3, 4440, Note_on_c, 1, 62, 0
3, 4440, Note_on_c, 1, 58, 64
3, 4560, Note_on_c, 1, 58, 0
3, 4560, Note_on_c, 1, 62, 64
3, 4680, Note_on_c, 1, 62, 0
3, 4680, Note_on_c, 1, 65, 64
3, 4800, Note_on_c, 1, 65, 0
3, 4800, Note_on_c, 1, 63, 64
3, 4920, Note_on_c, 1, 63, 0
3, 4920, Note_on_c, 1, 67, 64
3, 5040, Note_on_c, 1, 67, 0
3, 5040, Note_on_c, 1, 62, 64
3, 5160, Note_on_c, 1, 62, 0
3, 5160, Note_on_c, 1, 65, 64
3, 5280, Note_on_c, 1, 65, 0
3, 5280, Note_on_c, 1, 63, 64
3, 5400, Note_on_c, 1, 63, 0
3, 5400, Note_on_c, 1, 67, 64
3, 5520, Note_on_c, 1, 67, 0
3, 5520, Note_on_c, 1, 60, 64
3, 5640, Note_on_c, 1, 60, 0
3, 5640, Note_on_c, 1, 63, 64
3, 5760, Note_on_c, 1, 63, 0
3, 5760, Note_on_c, 1, 62, 64
3, 5760, Note_on_c, 1, 65, 64
3, 6000, Note_on_c, 1, 65, 0
3, 6000, Note_on_c, 1, 62, 0
3, 6720, Note_on_c, 1, 63, 64
3, 6840, Note_on_c, 1, 63, 0
3, 6840, Note_on_c, 1, 67, 64
3, 6960, Note_on_c, 1, 67, 0
3, 6960, Note_on_c, 1, 62, 64
3, 7080, Note_on_c, 1, 62, 0
3, 7080, Note_on_c, 1, 65, 64
3, 7200, Note_on_c, 1, 65, 0
3, 7200, Note_on_c, 1, 63, 64
3, 7320, Note_on_c, 1, 63, 0
3, 7320, Note_on_c, 1, 67, 64
3, 7440, Note_on_c, 1, 67, 0
3, 7440, Note_on_c, 1, 60, 64
3, 7560, Note_on_c, 1, 60, 0
3, 7560, Note_on_c, 1, 63, 64
3, 7680, Note_on_c, 1, 63, 0
3, 7680, Note_on_c, 1, 62, 64
3, 7680, Note_on_c, 1, 65, 64
3, 7920, Note_on_c, 1, 65, 0
3, 7920, Note_on_c, 1, 62, 0
3, 8640, Note_on_c, 1, 57, 64
3, 8880, Note_on_c, 1, 57, 0
3, 8880, Note_on_c, 1, 58, 64
3, 9120, Note_on_c, 1, 58, 0
3, 9120, Note_on_c, 1, 51, 64
3, 9360, Note_on_c, 1, 51, 0
3, 9360, Note_on_c, 1, 53, 64
3, 9600, Note_on_c, 1, 53, 0
3, 9720, Note_on_c, 1, 46, 64
3, 9840, Note_on_c, 1, 46, 0
3, 9840, Note_on_c, 1, 50, 64
3, 9960, Note_on_c, 1, 50, 0
3, 9960, Note_on_c, 1, 53, 64
3, 10080, Note_on_c, 1, 53, 0
3, 10080, Note_on_c, 1, 58, 64
3, 10320, Note_on_c, 1, 58, 0
3, 10680, Note_on_c, 1, 46, 64
3, 10800, Note_on_c, 1, 46, 0
3, 10800, Note_on_c, 1, 50, 64
3, 10920, Note_on_c, 1, 50, 0
3, 10920, Note_on_c, 1, 53, 64
3, 11040, Note_on_c, 1, 53, 0
3, 11040, Note_on_c, 1, 50, 64
3, 11160, Note_on_c, 1, 50, 0
3, 11160, Note_on_c, 1, 46, 64
3, 11280, Note_on_c, 1, 46, 0
3, 11280, Note_on_c, 1, 50, 64
3, 11400, Note_on_c, 1, 50, 0
3, 11400, Note_on_c, 1, 55, 64
3, 11520, Note_on_c, 1, 55, 0
3, 11640, Note_on_c, 1, 48, 64
3, 11760, Note_on_c, 1, 48, 0
3, 11760, Note_on_c, 1, 55, 64
3, 11880, Note_on_c, 1, 55, 0
3, 11880, Note_on_c, 1, 58, 64
3, 12000, Note_on_c, 1, 58, 0
3, 12000, Note_on_c, 1, 55, 64
3, 12120, Note_on_c, 1, 55, 0
3, 12120, Note_on_c, 1, 48, 64
3, 12240, Note_on_c, 1, 48, 0
3, 12240, Note_on_c, 1, 55, 64
3, 12360, Note_on_c, 1, 55, 0
3, 12360, Note_on_c, 1, 58, 64
3, 12480, Note_on_c, 1, 58, 0
3, 12600, Note_on_c, 1, 52, 64
3, 12720, Note_on_c, 1, 52, 0
3, 12720, Note_on_c, 1, 55, 64
3, 12840, Note_on_c, 1, 55, 0
3, 12840, Note_on_c, 1, 60, 64
3, 12960, Note_on_c, 1, 60, 0
3, 12960, Note_on_c, 1, 55, 64
3, 13080, Note_on_c, 1, 55, 0
3, 13080, Note_on_c, 1, 52, 64
3, 13200, Note_on_c, 1, 52, 0
3, 13200, Note_on_c, 1, 55, 64
3, 13320, Note_on_c, 1, 55, 0
3, 13320, Note_on_c, 1, 60, 64
3, 13440, Note_on_c, 1, 60, 0
3, 13560, Note_on_c, 1, 53, 64
3, 13680, Note_on_c, 1, 53, 0
3, 13680, Note_on_c, 1, 57, 64
3, 13800, Note_on_c, 1, 57, 0
3, 13800, Note_on_c, 1, 60, 64
3, 13920, Note_on_c, 1, 60, 0
3, 13920, Note_on_c, 1, 57, 64
3, 14040, Note_on_c, 1, 57, 0
3, 14040, Note_on_c, 1, 53, 64
3, 14160, Note_on_c, 1, 53, 0
3, 14160, Note_on_c, 1, 57, 64
3, 14280, Note_on_c, 1, 57, 0
3, 14280, Note_on_c, 1, 60, 64
3, 14400, Note_on_c, 1, 60, 0
3, 14400, Note_on_c, 1, 58, 64
3, 14520, Note_on_c, 1, 58, 0
3, 14520, Note_on_c, 1, 60, 64
3, 14640, Note_on_c, 1, 60, 0
3, 14640, Note_on_c, 1, 58, 64
3, 14760, Note_on_c, 1, 58, 0
3, 14760, Note_on_c, 1, 60, 64
3, 14880, Note_on_c, 1, 60, 0
3, 14880, Note_on_c, 1, 57, 64
3, 15000, Note_on_c, 1, 57, 0
3, 15000, Note_on_c, 1, 60, 64
3, 15120, Note_on_c, 1, 60, 0
3, 15120, Note_on_c, 1, 57, 64
3, 15240, Note_on_c, 1, 57, 0
3, 15240, Note_on_c, 1, 60, 64
3, 15360, Note_on_c, 1, 60, 0
3, 15360, Note_on_c, 1, 58, 64
3, 15480, Note_on_c, 1, 58, 0
3, 15480, Note_on_c, 1, 60, 64
3, 15600, Note_on_c, 1, 60, 0
3, 15600, Note_on_c, 1, 58, 64
3, 15720, Note_on_c, 1, 58, 0
3, 15720, Note_on_c, 1, 60, 64
3, 15840, Note_on_c, 1, 60, 0
3, 15840, Note_on_c, 1, 57, 64
3, 15960, Note_on_c, 1, 57, 0
3, 15960, Note_on_c, 1, 60, 64
3, 16080, Note_on_c, 1, 60, 0
3, 16080, Note_on_c, 1, 57, 64
3, 16200, Note_on_c, 1, 57, 0
3, 16200, Note_on_c, 1, 60, 64
3, 16320, Note_on_c, 1, 60, 0
3, 16320, Note_on_c, 1, 58, 64
3, 16440, Note_on_c, 1, 58, 0
3, 16440, Note_on_c, 1, 62, 64
3, 16560, Note_on_c, 1, 62, 0
3, 16560, Note_on_c, 1, 58, 64
3, 16680, Note_on_c, 1, 58, 0
3, 16680, Note_on_c, 1, 62, 64
3, 16800, Note_on_c, 1, 62, 0
3, 16800, Note_on_c, 1, 59, 64
3, 16920, Note_on_c, 1, 59, 0
3, 16920, Note_on_c, 1, 62, 64
3, 17040, Note_on_c, 1, 62, 0
3, 17040, Note_on_c, 1, 59, 64
3, 17160, Note_on_c, 1, 59, 0
3, 17160, Note_on_c, 1, 62, 64
3, 17280, Note_on_c, 1, 62, 0
3, 17280, Note_on_c, 1, 60, 64
3, 17520, Note_on_c, 1, 60, 0
3, 17520, Note_on_c, 1, 62, 64
3, 17760, Note_on_c, 1, 62, 0
3, 17760, Note_on_c, 1, 64, 64
3, 18000, Note_on_c, 1, 64, 0
3, 18000, Note_on_c, 1, 65, 64
3, 18240, Note_on_c, 1, 65, 0
3, 18240, Note_on_c, 1, 67, 64
3, 18360, Note_on_c, 1, 67, 0
3, 18360, Note_on_c, 1, 72, 64
3, 18480, Note_on_c, 1, 72, 0
3, 18480, Note_on_c, 1, 64, 64
3, 18600, Note_on_c, 1, 64, 0
3, 18600, Note_on_c, 1, 72, 64
3, 18720, Note_on_c, 1, 72, 0
3, 18720, Note_on_c, 1, 65, 64
3, 18840, Note_on_c, 1, 65, 0
3, 18840, Note_on_c, 1, 72, 64
3, 18960, Note_on_c, 1, 72, 0
3, 18960, Note_on_c, 1, 62, 64
3, 19080, Note_on_c, 1, 62, 0
3, 19080, Note_on_c, 1, 72, 64
3, 19200, Note_on_c, 1, 72, 0
3, 19200, Note_on_c, 1, 60, 64
3, 19440, Note_on_c, 1, 60, 0
3, 19440, Note_on_c, 1, 62, 64
3, 19680, Note_on_c, 1, 62, 0
3, 19680, Note_on_c, 1, 64, 64
3, 19920, Note_on_c, 1, 64, 0
3, 19920, Note_on_c, 1, 65, 64
3, 20160, Note_on_c, 1, 65, 0
3, 20160, Note_on_c, 1, 67, 64
3, 20220, Note_on_c, 1, 67, 0
3, 20220, Note_on_c, 1, 72, 64
3, 20280, Note_on_c, 1, 72, 0
3, 20280, Note_on_c, 1, 71, 64
3, 20340, Note_on_c, 1, 71, 0
3, 20340, Note_on_c, 1, 72, 64
3, 20400, Note_on_c, 1, 72, 0
3, 20400, Note_on_c, 1, 64, 64
3, 20460, Note_on_c, 1, 64, 0
3, 20460, Note_on_c, 1, 72, 64
3, 20520, Note_on_c, 1, 72, 0
3, 20520, Note_on_c, 1, 71, 64
3, 20580, Note_on_c, 1, 71, 0
3, 20580, Note_on_c, 1, 72, 64
3, 20640, Note_on_c, 1, 72, 0
3, 20640, Note_on_c, 1, 65, 64
3, 20700, Note_on_c, 1, 65, 0
3, 20700, Note_on_c, 1, 72, 64
3, 20760, Note_on_c, 1, 72, 0
3, 20760, Note_on_c, 1, 71, 64
3, 20820, Note_on_c, 1, 71, 0
3, 20820, Note_on_c, 1, 72, 64
3, 20880, Note_on_c, 1, 72, 0
3, 20880, Note_on_c, 1, 62, 64
3, 20940, Note_on_c, 1, 62, 0
3, 20940, Note_on_c, 1, 71, 64
3, 21000, Note_on_c, 1, 71, 0
3, 21000, Note_on_c, 1, 69, 64
3, 21060, Note_on_c, 1, 69, 0
3, 21060, Note_on_c, 1, 71, 64
3, 21120, Note_on_c, 1, 71, 0
3, 21120, Note_on_c, 1, 60, 64
3, 21120, Note_on_c, 1, 72, 64
3, 21360, Note_on_c, 1, 72, 0
3, 21360, Note_on_c, 1, 60, 0
3, 21600, Note_on_c, 1, 48, 64
3, 21600, Note_on_c, 1, 36, 64
3, 21840, Note_on_c, 1, 36, 0
3, 21840, Note_on_c, 1, 48, 0
3, 22080, Note_on_c, 1, 41, 64
3, 22080, Note_on_c, 1, 53, 64
3, 22560, Note_on_c, 1, 53, 0
3, 22560, Note_on_c, 1, 41, 0
3, 23280, Note_on_c, 1, 46, 64
3, 23280, Note_on_c, 1, 58, 64
3, 23760, Note_on_c, 1, 58, 0
3, 23760, Note_on_c, 1, 46, 0
3, 23760, Note_on_c, 1, 57, 64
3, 24000, Note_on_c, 1, 57, 0
3, 24000, Note_on_c, 1, 59, 64
3, 24000, Note_on_c, 1, 62, 64
3, 24240, Note_on_c, 1, 62, 0
3, 24240, Note_on_c, 1, 59, 0
3, 24240, Note_on_c, 1, 60, 64
3, 24480, Note_on_c, 1, 60, 0
3, 24480, Note_on_c, 1, 59, 64
3, 24480, Note_on_c, 1, 62, 64
3, 24720, Note_on_c, 1, 62, 0
3, 24720, Note_on_c, 1, 59, 0
3, 24720, Note_on_c, 1, 60, 64
3, 24960, Note_on_c, 1, 60, 0
3, 24960, Note_on_c, 1, 62, 64
3, 25200, Note_on_c, 1, 62, 0
3, 25200, Note_on_c, 1, 64, 64
3, 25440, Note_on_c, 1, 64, 0
3, 25440, Note_on_c, 1, 65, 64
3, 25680, Note_on_c, 1, 65, 0
3, 26040, Note_on_c, 1, 46, 64
3, 26160, Note_on_c, 1, 46, 0
3, 26160, Note_on_c, 1, 50, 64
3, 26280, Note_on_c, 1, 50, 0
3, 26280, Note_on_c, 1, 55, 64
3, 26400, Note_on_c, 1, 55, 0
3, 26400, Note_on_c, 1, 58, 64
3, 26640, Note_on_c, 1, 58, 0
3, 27000, Note_on_c, 1, 45, 64
3, 27120, Note_on_c, 1, 45, 0
3, 27120, Note_on_c, 1, 48, 64
3, 27240, Note_on_c, 1, 48, 0
3, 27240, Note_on_c, 1, 53, 64
3, 27360, Note_on_c, 1, 53, 0
3, 27360, Note_on_c, 1, 57, 64
3, 27600, Note_on_c, 1, 57, 0
3, 27840, Note_on_c, 1, 55, 64
3, 28080, Note_on_c, 1, 55, 0
3, 28080, Note_on_c, 1, 52, 64
3, 28320, Note_on_c, 1, 52, 0
3, 28320, Note_on_c, 1, 53, 64
3, 28560, Note_on_c, 1, 53, 0
3, 28560, Note_on_c, 1, 50, 64
3, 28800, Note_on_c, 1, 50, 0
3, 28800, Note_on_c, 1, 48, 64
3, 29040, Note_on_c, 1, 48, 0
3, 29280, Note_on_c, 1, 48, 64
3, 29340, Note_on_c, 1, 48, 0
3, 29340, Note_on_c, 1, 50, 64
3, 29400, Note_on_c, 1, 50, 0
3, 29400, Note_on_c, 1, 46, 64
3, 29460, Note_on_c, 1, 46, 0
3, 29460, Note_on_c, 1, 48, 64
3, 29520, Note_on_c, 1, 48, 0
3, 29520, Note_on_c, 1, 45, 64
3, 29580, Note_on_c, 1, 45, 0
3, 29580, Note_on_c, 1, 46, 64
3, 29640, Note_on_c, 1, 46, 0
3, 29640, Note_on_c, 1, 43, 64
3, 29700, Note_on_c, 1, 43, 0
3, 29700, Note_on_c, 1, 45, 64
3, 29760, Note_on_c, 1, 45, 0
3, 29760, Note_on_c, 1, 41, 64
3, 30000, Note_on_c, 1, 41, 0
3, 30000, Note_on_c, 1, 53, 64
3, 30240, Note_on_c, 1, 53, 0
3, 30960, Note_on_c, 1, 46, 64
3, 30960, Note_on_c, 1, 58, 64
3, 31440, Note_on_c, 1, 58, 0
3, 31440, Note_on_c, 1, 46, 0
3, 31440, Note_on_c, 1, 57, 64
3, 31680, Note_on_c, 1, 57, 0
3, 31680, Note_on_c, 1, 59, 64
3, 31680, Note_on_c, 1, 62, 64
3, 31920, Note_on_c, 1, 62, 0
3, 31920, Note_on_c, 1, 59, 0
3, 31920, Note_on_c, 1, 60, 64
3, 32160, Note_on_c, 1, 60, 0
3, 32160, Note_on_c, 1, 59, 64
3, 32160, Note_on_c, 1, 62, 64
3, 32400, Note_on_c, 1, 62, 0
3, 32400, Note_on_c, 1, 59, 0
3, 32400, Note_on_c, 1, 60, 64
3, 32640, Note_on_c, 1, 60, 0
3, 32640, Note_on_c, 1, 62, 64
3, 32640, Note_on_c, 1, 65, 64
3, 32880, Note_on_c, 1, 65, 0
3, 32880, Note_on_c, 1, 62, 0
3, 32880, Note_on_c, 1, 64, 64
3, 32880, Note_on_c, 1, 67, 64
3, 33120, Note_on_c, 1, 67, 0
3, 33120, Note_on_c, 1, 64, 0
3, 33120, Note_on_c, 1, 65, 64
3, 33360, Note_on_c, 1, 65, 0
3, 33720, Note_on_c, 1, 50, 64
3, 33840, Note_on_c, 1, 50, 0
3, 33840, Note_on_c, 1, 62, 64
3, 33960, Note_on_c, 1, 62, 0
3, 33960, Note_on_c, 1, 60, 64
3, 34080, Note_on_c, 1, 60, 0
3, 34080, Note_on_c, 1, 58, 64
3, 34200, Note_on_c, 1, 58, 0
3, 34200, Note_on_c, 1, 46, 64
3, 34320, Note_on_c, 1, 46, 0
3, 34320, Note_on_c, 1, 58, 64
3, 34440, Note_on_c, 1, 58, 0
3, 34440, Note_on_c, 1, 57, 64
3, 34560, Note_on_c, 1, 57, 0
3, 34560, Note_on_c, 1, 55, 64
3, 34680, Note_on_c, 1, 55, 0
3, 34680, Note_on_c, 1, 53, 64
3, 34800, Note_on_c, 1, 53, 0
3, 34800, Note_on_c, 1, 52, 64
3, 34920, Note_on_c, 1, 52, 0
3, 34920, Note_on_c, 1, 48, 64
3, 35040, Note_on_c, 1, 48, 0
3, 35040, Note_on_c, 1, 53, 64
3, 35280, Note_on_c, 1, 53, 0
3, 35280, Note_on_c, 1, 45, 64
3, 35520, Note_on_c, 1, 45, 0
3, 35520, Note_on_c, 1, 46, 64
3, 35760, Note_on_c, 1, 46, 0
3, 35760, Note_on_c, 1, 58, 64
3, 36000, Note_on_c, 1, 58, 0
3, 36000, Note_on_c, 1, 60, 64
3, 36240, Note_on_c, 1, 60, 0
3, 36240, Note_on_c, 1, 48, 64
3, 36480, Note_on_c, 1, 48, 0
3, 36480, Note_on_c, 1, 53, 64
3, 36540, Note_on_c, 1, 53, 0
3, 36540, Note_on_c, 1, 60, 64
3, 36600, Note_on_c, 1, 60, 0
3, 36600, Note_on_c, 1, 59, 64
3, 36660, Note_on_c, 1, 59, 0
3, 36660, Note_on_c, 1, 60, 64
3, 36720, Note_on_c, 1, 60, 0
3, 36720, Note_on_c, 1, 62, 64
3, 36780, Note_on_c, 1, 62, 0
3, 36780, Note_on_c, 1, 60, 64
3, 36840, Note_on_c, 1, 60, 0
3, 36840, Note_on_c, 1, 59, 64
3, 36900, Note_on_c, 1, 59, 0
3, 36900, Note_on_c, 1, 60, 64
3, 36960, Note_on_c, 1, 60, 0
3, 36960, Note_on_c, 1, 58, 64
3, 37020, Note_on_c, 1, 58, 0
3, 37020, Note_on_c, 1, 60, 64
3, 37080, Note_on_c, 1, 60, 0
3, 37080, Note_on_c, 1, 57, 64
3, 37140, Note_on_c, 1, 57, 0
3, 37140, Note_on_c, 1, 60, 64
3, 37200, Note_on_c, 1, 60, 0
3, 37200, Note_on_c, 1, 55, 64
3, 37260, Note_on_c, 1, 55, 0
3, 37260, Note_on_c, 1, 60, 64
3, 37320, Note_on_c, 1, 60, 0
3, 37320, Note_on_c, 1, 53, 64
3, 37380, Note_on_c, 1, 53, 0
3, 37380, Note_on_c, 1, 60, 64
3, 37440, Note_on_c, 1, 60, 0
3, 37440, Note_on_c, 1, 52, 64
3, 37500, Note_on_c, 1, 52, 0
3, 37500, Note_on_c, 1, 60, 64
3, 37560, Note_on_c, 1, 60, 0
3, 37560, Note_on_c, 1, 55, 64
3, 37620, Note_on_c, 1, 55, 0
3, 37620, Note_on_c, 1, 60, 64
3, 37680, Note_on_c, 1, 60, 0
3, 37680, Note_on_c, 1, 58, 64
3, 37740, Note_on_c, 1, 58, 0
3, 37740, Note_on_c, 1, 60, 64
3, 37800, Note_on_c, 1, 60, 0
3, 37800, Note_on_c, 1, 58, 64
3, 37860, Note_on_c, 1, 58, 0
3, 37860, Note_on_c, 1, 60, 64
3, 37920, Note_on_c, 1, 60, 0
3, 37920, Note_on_c, 1, 52, 64
3, 37980, Note_on_c, 1, 52, 0
3, 37980, Note_on_c, 1, 60, 64
3, 38040, Note_on_c, 1, 60, 0
3, 38040, Note_on_c, 1, 55, 64
3, 38100, Note_on_c, 1, 55, 0
3, 38100, Note_on_c, 1, 60, 64
3, 38160, Note_on_c, 1, 60, 0
3, 38160, Note_on_c, 1, 58, 64
3, 38220, Note_on_c, 1, 58, 0
3, 38220, Note_on_c, 1, 60, 64
3, 38280, Note_on_c, 1, 60, 0
3, 38280, Note_on_c, 1, 58, 64
3, 38340, Note_on_c, 1, 58, 0
3, 38340, Note_on_c, 1, 60, 64
3, 38400, Note_on_c, 1, 60, 0
3, 38400, Note_on_c, 1, 57, 64
3, 38460, Note_on_c, 1, 57, 0
3, 38460, Note_on_c, 1, 60, 64
3, 38520, Note_on_c, 1, 60, 0
3, 38520, Note_on_c, 1, 52, 64
3, 38580, Note_on_c, 1, 52, 0
3, 38580, Note_on_c, 1, 60, 64
3, 38640, Note_on_c, 1, 60, 0
3, 38640, Note_on_c, 1, 53, 64
3, 38700, Note_on_c, 1, 53, 0
3, 38700, Note_on_c, 1, 60, 64
3, 38760, Note_on_c, 1, 60, 0
3, 38760, Note_on_c, 1, 55, 64
3, 38820, Note_on_c, 1, 55, 0
3, 38820, Note_on_c, 1, 60, 64
3, 38880, Note_on_c, 1, 60, 0
3, 38880, Note_on_c, 1, 56, 64
3, 38940, Note_on_c, 1, 56, 0
3, 38940, Note_on_c, 1, 60, 64
3, 39000, Note_on_c, 1, 60, 0
3, 39000, Note_on_c, 1, 57, 64
3, 39060, Note_on_c, 1, 57, 0
3, 39060, Note_on_c, 1, 60, 64
3, 39120, Note_on_c, 1, 60, 0
3, 39120, Note_on_c, 1, 56, 64
3, 39180, Note_on_c, 1, 56, 0
3, 39180, Note_on_c, 1, 60, 64
3, 39240, Note_on_c, 1, 60, 0
3, 39240, Note_on_c, 1, 57, 64
3, 39300, Note_on_c, 1, 57, 0
3, 39300, Note_on_c, 1, 60, 64
3, 39360, Note_on_c, 1, 60, 0
3, 39360, Note_on_c, 1, 52, 64
3, 39420, Note_on_c, 1, 52, 0
3, 39420, Note_on_c, 1, 60, 64
3, 39480, Note_on_c, 1, 60, 0
3, 39480, Note_on_c, 1, 55, 64
3, 39540, Note_on_c, 1, 55, 0
3, 39540, Note_on_c, 1, 60, 64
3, 39600, Note_on_c, 1, 60, 0
3, 39600, Note_on_c, 1, 58, 64
3, 39660, Note_on_c, 1, 58, 0
3, 39660, Note_on_c, 1, 60, 64
3, 39720, Note_on_c, 1, 60, 0
3, 39720, Note_on_c, 1, 58, 64
3, 39780, Note_on_c, 1, 58, 0
3, 39780, Note_on_c, 1, 60, 64
3, 39840, Note_on_c, 1, 60, 0
3, 39840, Note_on_c, 1, 52, 64
3, 39900, Note_on_c, 1, 52, 0
3, 39900, Note_on_c, 1, 60, 64
3, 39960, Note_on_c, 1, 60, 0
3, 39960, Note_on_c, 1, 55, 64
3, 40020, Note_on_c, 1, 55, 0
3, 40020, Note_on_c, 1, 60, 64
3, 40080, Note_on_c, 1, 60, 0
3, 40080, Note_on_c, 1, 58, 64
3, 40140, Note_on_c, 1, 58, 0
3, 40140, Note_on_c, 1, 60, 64
3, 40200, Note_on_c, 1, 60, 0
3, 40200, Note_on_c, 1, 58, 64
3, 40260, Note_on_c, 1, 58, 0
3, 40260, Note_on_c, 1, 60, 64
3, 40320, Note_on_c, 1, 60, 0
3, 40320, Note_on_c, 1, 57, 64
3, 40380, Note_on_c, 1, 57, 0
3, 40380, Note_on_c, 1, 60, 64
3, 40440, Note_on_c, 1, 60, 0
3, 40440, Note_on_c, 1, 52, 64
3, 40500, Note_on_c, 1, 52, 0
3, 40500, Note_on_c, 1, 60, 64
3, 40560, Note_on_c, 1, 60, 0
3, 40560, Note_on_c, 1, 53, 64
3, 40620, Note_on_c, 1, 53, 0
3, 40620, Note_on_c, 1, 60, 64
3, 40680, Note_on_c, 1, 60, 0
3, 40680, Note_on_c, 1, 55, 64
3, 40740, Note_on_c, 1, 55, 0
3, 40740, Note_on_c, 1, 60, 64
3, 40800, Note_on_c, 1, 60, 0
3, 40800, Note_on_c, 1, 56, 64
3, 40860, Note_on_c, 1, 56, 0
3, 40860, Note_on_c, 1, 60, 64
3, 40920, Note_on_c, 1, 60, 0
3, 40920, Note_on_c, 1, 57, 64
3, 40980, Note_on_c, 1, 57, 0
3, 40980, Note_on_c, 1, 60, 64
3, 41040, Note_on_c, 1, 60, 0
3, 41040, Note_on_c, 1, 56, 64
3, 41100, Note_on_c, 1, 56, 0
3, 41100, Note_on_c, 1, 60, 64
3, 41160, Note_on_c, 1, 60, 0
3, 41160, Note_on_c, 1, 57, 64
3, 41220, Note_on_c, 1, 57, 0
3, 41220, Note_on_c, 1, 60, 64
3, 41280, Note_on_c, 1, 60, 0
3, 41400, Note_on_c, 1, 58, 64
3, 41520, Note_on_c, 1, 58, 0
3, 41520, Note_on_c, 1, 57, 64
3, 41640, Note_on_c, 1, 57, 0
3, 41640, Note_on_c, 1, 58, 64
3, 41760, Note_on_c, 1, 58, 0
3, 41880, Note_on_c, 1, 60, 64
3, 42000, Note_on_c, 1, 60, 0
3, 42000, Note_on_c, 1, 59, 64
3, 42120, Note_on_c, 1, 59, 0
3, 42120, Note_on_c, 1, 60, 64
3, 42240, Note_on_c, 1, 60, 0
3, 42360, Note_on_c, 1, 61, 64
3, 42480, Note_on_c, 1, 61, 0
3, 42480, Note_on_c, 1, 59, 64
3, 42600, Note_on_c, 1, 59, 0
3, 42600, Note_on_c, 1, 61, 64
3, 42720, Note_on_c, 1, 61, 0
3, 42840, Note_on_c, 1, 62, 64
3, 42960, Note_on_c, 1, 62, 0
3, 42960, Note_on_c, 1, 61, 64
3, 43080, Note_on_c, 1, 61, 0
3, 43080, Note_on_c, 1, 62, 64
3, 43200, Note_on_c, 1, 62, 0
3, 43440, Note_on_c, 1, 58, 64
3, 43440, Note_on_c, 1, 67, 64
3, 43680, Note_on_c, 1, 67, 0
3, 43680, Note_on_c, 1, 58, 0
3, 43680, Note_on_c, 1, 69, 64
3, 43680, Note_on_c, 1, 60, 64
3, 43920, Note_on_c, 1, 69, 0
3, 43920, Note_on_c, 1, 70, 64
3, 44160, Note_on_c, 1, 70, 0
3, 44160, Note_on_c, 1, 60, 0
3, 44160, Note_on_c, 1, 65, 64
3, 44160, Note_on_c, 1, 69, 64
3, 44640, Note_on_c, 1, 69, 0
3, 44640, Note_on_c, 1, 65, 0
3, 44640, Note_on_c, 1, 65, 64
3, 44640, Note_on_c, 1, 69, 64
3, 45120, Note_on_c, 1, 69, 0
3, 45120, Note_on_c, 1, 65, 0
3, 45120, Note_on_c, 1, 54, 64
3, 45120, Note_on_c, 1, 57, 64
3, 45120, Note_on_c, 1, 60, 64
3, 45600, Note_on_c, 1, 60, 0
3, 45600, Note_on_c, 1, 57, 0
3, 45600, Note_on_c, 1, 54, 0
3, 45600, Note_on_c, 1, 55, 64
3, 45600, Note_on_c, 1, 58, 64
3, 46080, Note_on_c, 1, 58, 0
3, 46080, Note_on_c, 1, 55, 0
3, 46080, Note_on_c, 1, 52, 64
3, 46080, Note_on_c, 1, 55, 64
3, 46080, Note_on_c, 1, 58, 64
3, 46560, Note_on_c, 1, 58, 0
3, 46560, Note_on_c, 1, 55, 0
3, 46560, Note_on_c, 1, 52, 0
3, 46560, Note_on_c, 1, 53, 64
3, 46560, Note_on_c, 1, 57, 64
3, 47040, Note_on_c, 1, 57, 0
3, 47040, Note_on_c, 1, 53, 0
3, 47280, Note_on_c, 1, 47, 64
3, 47280, Note_on_c, 1, 55, 64
3, 47520, Note_on_c, 1, 55, 0
3, 47520, Note_on_c, 1, 47, 0
3, 47520, Note_on_c, 1, 57, 64
3, 47520, Note_on_c, 1, 48, 64
3, 47760, Note_on_c, 1, 57, 0
3, 47760, Note_on_c, 1, 58, 64
3, 48000, Note_on_c, 1, 58, 0
3, 48000, Note_on_c, 1, 48, 0
3, 48000, Note_on_c, 1, 57, 64
3, 48000, Note_on_c, 1, 60, 64
3, 48120, Note_on_c, 1, 60, 0
3, 48120, Note_on_c, 1, 57, 0
3, 48240, Note_on_c, 1, 64, 64
3, 48360, Note_on_c, 1, 64, 0
3, 48360, Note_on_c, 1, 63, 64
3, 48480, Note_on_c, 1, 63, 0
3, 48480, Note_on_c, 1, 53, 64
3, 48480, Note_on_c, 1, 62, 64
3, 48600, Note_on_c, 1, 62, 0
3, 48600, Note_on_c, 1, 53, 0
3, 48720, Note_on_c, 1, 64, 64
3, 48840, Note_on_c, 1, 64, 0
3, 48840, Note_on_c, 1, 63, 64
3, 48960, Note_on_c, 1, 63, 0
3, 48960, Note_on_c, 1, 53, 64
3, 48960, Note_on_c, 1, 62, 64
3, 49080, Note_on_c, 1, 62, 0
3, 49080, Note_on_c, 1, 53, 0
3, 49200, Note_on_c, 1, 64, 64
3, 49320, Note_on_c, 1, 64, 0
3, 49320, Note_on_c, 1, 63, 64
3, 49440, Note_on_c, 1, 63, 0
3, 49440, Note_on_c, 1, 62, 64
3, 49560, Note_on_c, 1, 62, 0
3, 49560, Note_on_c, 1, 57, 64
3, 49680, Note_on_c, 1, 57, 0
3, 49680, Note_on_c, 1, 58, 64
3, 49800, Note_on_c, 1, 58, 0
3, 49800, Note_on_c, 1, 55, 64
3, 49920, Note_on_c, 1, 55, 0
3, 49920, Note_on_c, 1, 57, 64
3, 50160, Note_on_c, 1, 57, 0
3, 50400, Note_on_c, 1, 58, 64
3, 50640, Note_on_c, 1, 58, 0
3, 50880, Note_on_c, 1, 48, 64
3, 51000, Note_on_c, 1, 48, 0
3, 51000, Note_on_c, 1, 53, 64
3, 51120, Note_on_c, 1, 53, 0
3, 51120, Note_on_c, 1, 57, 64
3, 51240, Note_on_c, 1, 57, 0
3, 51240, Note_on_c, 1, 53, 64
3, 51360, Note_on_c, 1, 53, 0
3, 51360, Note_on_c, 1, 48, 64
3, 51480, Note_on_c, 1, 48, 0
3, 51480, Note_on_c, 1, 55, 64
3, 51600, Note_on_c, 1, 55, 0
3, 51600, Note_on_c, 1, 58, 64
3, 51720, Note_on_c, 1, 58, 0
3, 51720, Note_on_c, 1, 55, 64
3, 51840, Note_on_c, 1, 55, 0
3, 51840, Note_on_c, 1, 53, 64
3, 51840, Note_on_c, 1, 57, 64
3, 51960, Note_on_c, 1, 57, 0
3, 51960, Note_on_c, 1, 53, 0
3, 51960, Note_on_c, 1, 65, 64
3, 52080, Note_on_c, 1, 65, 0
3, 52080, Note_on_c, 1, 64, 64
3, 52200, Note_on_c, 1, 64, 0
3, 52200, Note_on_c, 1, 63, 64
3, 52320, Note_on_c, 1, 63, 0
3, 52320, Note_on_c, 1, 53, 64
3, 52320, Note_on_c, 1, 62, 64
3, 52440, Note_on_c, 1, 62, 0
3, 52440, Note_on_c, 1, 53, 0
3, 52440, Note_on_c, 1, 65, 64
3, 52560, Note_on_c, 1, 65, 0
3, 52560, Note_on_c, 1, 64, 64
3, 52680, Note_on_c, 1, 64, 0
3, 52680, Note_on_c, 1, 63, 64
3, 52800, Note_on_c, 1, 63, 0
3, 52800, Note_on_c, 1, 53, 64
3, 52800, Note_on_c, 1, 62, 64
3, 52920, Note_on_c, 1, 62, 0
3, 52920, Note_on_c, 1, 53, 0
3, 52920, Note_on_c, 1, 65, 64
3, 53040, Note_on_c, 1, 65, 0
3, 53040, Note_on_c, 1, 64, 64
3, 53160, Note_on_c, 1, 64, 0
3, 53160, Note_on_c, 1, 63, 64
3, 53280, Note_on_c, 1, 63, 0
3, 53280, Note_on_c, 1, 62, 64
3, 53400, Note_on_c, 1, 62, 0
3, 53400, Note_on_c, 1, 57, 64
3, 53520, Note_on_c, 1, 57, 0
3, 53520, Note_on_c, 1, 58, 64
3, 53640, Note_on_c, 1, 58, 0
3, 53640, Note_on_c, 1, 55, 64
3, 53760, Note_on_c, 1, 55, 0
3, 53760, Note_on_c, 1, 57, 64
3, 53760, Note_on_c, 1, 45, 64
3, 54000, Note_on_c, 1, 45, 0
3, 54000, Note_on_c, 1, 57, 0
3, 54240, Note_on_c, 1, 58, 64
3, 54240, Note_on_c, 1, 46, 64
3, 54480, Note_on_c, 1, 46, 0
3, 54480, Note_on_c, 1, 58, 0
3, 54720, Note_on_c, 1, 48, 64
3, 54780, Note_on_c, 1, 48, 0
3, 54780, Note_on_c, 1, 57, 64
3, 54840, Note_on_c, 1, 57, 0
3, 54840, Note_on_c, 1, 53, 64
3, 54900, Note_on_c, 1, 53, 0
3, 54900, Note_on_c, 1, 57, 64
3, 54960, Note_on_c, 1, 57, 0
3, 54960, Note_on_c, 1, 48, 64
3, 55020, Note_on_c, 1, 48, 0
3, 55020, Note_on_c, 1, 57, 64
3, 55080, Note_on_c, 1, 57, 0
3, 55080, Note_on_c, 1, 53, 64
3, 55140, Note_on_c, 1, 53, 0
3, 55140, Note_on_c, 1, 57, 64
3, 55200, Note_on_c, 1, 57, 0
3, 55200, Note_on_c, 1, 48, 64
3, 55260, Note_on_c, 1, 48, 0
3, 55260, Note_on_c, 1, 57, 64
3, 55320, Note_on_c, 1, 57, 0
3, 55320, Note_on_c, 1, 53, 64
3, 55380, Note_on_c, 1, 53, 0
3, 55380, Note_on_c, 1, 57, 64
3, 55440, Note_on_c, 1, 57, 0
3, 55440, Note_on_c, 1, 48, 64
3, 55500, Note_on_c, 1, 48, 0
3, 55500, Note_on_c, 1, 57, 64
3, 55560, Note_on_c, 1, 57, 0
3, 55560, Note_on_c, 1, 53, 64
3, 55620, Note_on_c, 1, 53, 0
3, 55620, Note_on_c, 1, 57, 64
3, 55680, Note_on_c, 1, 57, 0
3, 55680, Note_on_c, 1, 48, 64
3, 55740, Note_on_c, 1, 48, 0
3, 55740, Note_on_c, 1, 58, 64
3, 55800, Note_on_c, 1, 58, 0
3, 55800, Note_on_c, 1, 52, 64
3, 55860, Note_on_c, 1, 52, 0
3, 55860, Note_on_c, 1, 58, 64
3, 55920, Note_on_c, 1, 58, 0
3, 55920, Note_on_c, 1, 48, 64
3, 55980, Note_on_c, 1, 48, 0
3, 55980, Note_on_c, 1, 58, 64
3, 56040, Note_on_c, 1, 58, 0
3, 56040, Note_on_c, 1, 52, 64
3, 56100, Note_on_c, 1, 52, 0
3, 56100, Note_on_c, 1, 58, 64
3, 56160, Note_on_c, 1, 58, 0
3, 56160, Note_on_c, 1, 48, 64
3, 56220, Note_on_c, 1, 48, 0
3, 56220, Note_on_c, 1, 58, 64
3, 56280, Note_on_c, 1, 58, 0
3, 56280, Note_on_c, 1, 52, 64
3, 56340, Note_on_c, 1, 52, 0
3, 56340, Note_on_c, 1, 58, 64
3, 56400, Note_on_c, 1, 58, 0
3, 56400, Note_on_c, 1, 48, 64
3, 56460, Note_on_c, 1, 48, 0
3, 56460, Note_on_c, 1, 58, 64
3, 56520, Note_on_c, 1, 58, 0
3, 56520, Note_on_c, 1, 52, 64
3, 56580, Note_on_c, 1, 52, 0
3, 56580, Note_on_c, 1, 58, 64
3, 56640, Note_on_c, 1, 58, 0
3, 56640, Note_on_c, 1, 53, 64
3, 56760, Note_on_c, 1, 53, 0
3, 56760, Note_on_c, 1, 65, 64
3, 56880, Note_on_c, 1, 65, 0
3, 56880, Note_on_c, 1, 64, 64
3, 57000, Note_on_c, 1, 64, 0
3, 57000, Note_on_c, 1, 65, 64
3, 57120, Note_on_c, 1, 65, 0
3, 57120, Note_on_c, 1, 67, 64
3, 57240, Note_on_c, 1, 67, 0
3, 57240, Note_on_c, 1, 65, 64
3, 57360, Note_on_c, 1, 65, 0
3, 57360, Note_on_c, 1, 64, 64
3, 57480, Note_on_c, 1, 64, 0
3, 57480, Note_on_c, 1, 63, 64
3, 57600, Note_on_c, 1, 63, 0
3, 57600, Note_on_c, 1, 62, 64
3, 57720, Note_on_c, 1, 62, 0
3, 57720, Note_on_c, 1, 53, 64
3, 57840, Note_on_c, 1, 53, 0
3, 57840, Note_on_c, 1, 61, 64
3, 57960, Note_on_c, 1, 61, 0
3, 57960, Note_on_c, 1, 53, 64
3, 58080, Note_on_c, 1, 53, 0
3, 58080, Note_on_c, 1, 60, 64
3, 58200, Note_on_c, 1, 60, 0
3, 58200, Note_on_c, 1, 53, 64
3, 58320, Note_on_c, 1, 53, 0
3, 58320, Note_on_c, 1, 64, 64
3, 58440, Note_on_c, 1, 64, 0
3, 58440, Note_on_c, 1, 53, 64
3, 58560, Note_on_c, 1, 53, 0
3, 58560, Note_on_c, 1, 65, 64
3, 58680, Note_on_c, 1, 65, 0
3, 58680, Note_on_c, 1, 53, 64
3, 58800, Note_on_c, 1, 53, 0
3, 58800, Note_on_c, 1, 52, 64
3, 58920, Note_on_c, 1, 52, 0
3, 58920, Note_on_c, 1, 53, 64
3, 59040, Note_on_c, 1, 53, 0
3, 59040, Note_on_c, 1, 55, 64
3, 59160, Note_on_c, 1, 55, 0
3, 59160, Note_on_c, 1, 53, 64
3, 59280, Note_on_c, 1, 53, 0
3, 59280, Note_on_c, 1, 52, 64
3, 59400, Note_on_c, 1, 52, 0
3, 59400, Note_on_c, 1, 51, 64
3, 59520, Note_on_c, 1, 51, 0
3, 59520, Note_on_c, 1, 50, 64
3, 59760, Note_on_c, 1, 50, 0
3, 59760, Note_on_c, 1, 46, 64
3, 60000, Note_on_c, 1, 46, 0
3, 60000, Note_on_c, 1, 48, 64
3, 60240, Note_on_c, 1, 48, 0
3, 60240, Note_on_c, 1, 48, 64
3, 60480, Note_on_c, 1, 48, 0
3, 60480, Note_on_c, 1, 53, 64
3, 60720, Note_on_c, 1, 53, 0
3, 60720, Note_on_c, 1, 48, 64
3, 60960, Note_on_c, 1, 48, 0
3, 60960, Note_on_c, 1, 41, 64
3, 61200, Note_on_c, 1, 41, 0
3, 61560, Note_on_c, 1, 41, 64
3, 61680, Note_on_c, 1, 41, 0
3, 61680, Note_on_c, 1, 45, 64
3, 61800, Note_on_c, 1, 45, 0
3, 61800, Note_on_c, 1, 48, 64
3, 61920, Note_on_c, 1, 48, 0
3, 61920, Note_on_c, 1, 45, 64
3, 62040, Note_on_c, 1, 45, 0
3, 62040, Note_on_c, 1, 41, 64
3, 62160, Note_on_c, 1, 41, 0
3, 62160, Note_on_c, 1, 45, 64
3, 62280, Note_on_c, 1, 45, 0
3, 62280, Note_on_c, 1, 48, 64
3, 62400, Note_on_c, 1, 48, 0
3, 62520, Note_on_c, 1, 55, 64
3, 62640, Note_on_c, 1, 55, 0
3, 62640, Note_on_c, 1, 58, 64
3, 62760, Note_on_c, 1, 58, 0
3, 62760, Note_on_c, 1, 64, 64
3, 62880, Note_on_c, 1, 64, 0
3, 62880, Note_on_c, 1, 58, 64
3, 63000, Note_on_c, 1, 58, 0
3, 63000, Note_on_c, 1, 55, 64
3, 63120, Note_on_c, 1, 55, 0
3, 63120, Note_on_c, 1, 58, 64
3, 63240, Note_on_c, 1, 58, 0
3, 63240, Note_on_c, 1, 64, 64
3, 63360, Note_on_c, 1, 64, 0
3, 63480, Note_on_c, 1, 43, 64
3, 63600, Note_on_c, 1, 43, 0
3, 63600, Note_on_c, 1, 46, 64
3, 63720, Note_on_c, 1, 46, 0
3, 63720, Note_on_c, 1, 52, 64
3, 63840, Note_on_c, 1, 52, 0
3, 63840, Note_on_c, 1, 46, 64
3, 63960, Note_on_c, 1, 46, 0
3, 63960, Note_on_c, 1, 43, 64
3, 64080, Note_on_c, 1, 43, 0
3, 64080, Note_on_c, 1, 46, 64
3, 64200, Note_on_c, 1, 46, 0
3, 64200, Note_on_c, 1, 52, 64
3, 64320, Note_on_c, 1, 52, 0
3, 64440, Note_on_c, 1, 57, 64
3, 64560, Note_on_c, 1, 57, 0
3, 64560, Note_on_c, 1, 60, 64
3, 64680, Note_on_c, 1, 60, 0
3, 64680, Note_on_c, 1, 63, 64
3, 64800, Note_on_c, 1, 63, 0
3, 64800, Note_on_c, 1, 60, 64
3, 64920, Note_on_c, 1, 60, 0
3, 64920, Note_on_c, 1, 57, 64
3, 65040, Note_on_c, 1, 57, 0
3, 65040, Note_on_c, 1, 60, 64
3, 65160, Note_on_c, 1, 60, 0
3, 65160, Note_on_c, 1, 63, 64
3, 65280, Note_on_c, 1, 63, 0
3, 65400, Note_on_c, 1, 46, 64
3, 65520, Note_on_c, 1, 46, 0
3, 65520, Note_on_c, 1, 50, 64
3, 65640, Note_on_c, 1, 50, 0
3, 65640, Note_on_c, 1, 55, 64
3, 65760, Note_on_c, 1, 55, 0
3, 65880, Note_on_c, 1, 48, 64
3, 66000, Note_on_c, 1, 48, 0
3, 66000, Note_on_c, 1, 55, 64
3, 66120, Note_on_c, 1, 55, 0
3, 66120, Note_on_c, 1, 58, 64
3, 66240, Note_on_c, 1, 58, 0
3, 66360, Note_on_c, 1, 50, 64
3, 66480, Note_on_c, 1, 50, 0
3, 66480, Note_on_c, 1, 53, 64
3, 66600, Note_on_c, 1, 53, 0
3, 66600, Note_on_c, 1, 56, 64
3, 66720, Note_on_c, 1, 56, 0
3, 66720, Note_on_c, 1, 53, 64
3, 66840, Note_on_c, 1, 53, 0
3, 66840, Note_on_c, 1, 50, 64
3, 66960, Note_on_c, 1, 50, 0
3, 66960, Note_on_c, 1, 53, 64
3, 67080, Note_on_c, 1, 53, 0
3, 67080, Note_on_c, 1, 56, 64
3, 67200, Note_on_c, 1, 56, 0
3, 67200, Note_on_c, 1, 48, 64
3, 67200, Note_on_c, 1, 57, 64
3, 67680, Note_on_c, 1, 57, 0
3, 67680, Note_on_c, 1, 48, 0
3, 67680, Note_on_c, 1, 60, 64
3, 67920, Note_on_c, 1, 60, 0
3, 67920, Note_on_c, 1, 48, 64
3, 68160, Note_on_c, 1, 48, 0
3, 68160, Note_on_c, 1, 53, 64
3, 68220, Note_on_c, 1, 53, 0
3, 68220, Note_on_c, 1, 60, 64
3, 68280, Note_on_c, 1, 60, 0
3, 68280, Note_on_c, 1, 56, 64
3, 68340, Note_on_c, 1, 56, 0
3, 68340, Note_on_c, 1, 60, 64
3, 68400, Note_on_c, 1, 60, 0
3, 68400, Note_on_c, 1, 53, 64
3, 68460, Note_on_c, 1, 53, 0
3, 68460, Note_on_c, 1, 60, 64
3, 68520, Note_on_c, 1, 60, 0
3, 68520, Note_on_c, 1, 56, 64
3, 68580, Note_on_c, 1, 56, 0
3, 68580, Note_on_c, 1, 60, 64
3, 68640, Note_on_c, 1, 60, 0
3, 68640, Note_on_c, 1, 53, 64
3, 68700, Note_on_c, 1, 53, 0
3, 68700, Note_on_c, 1, 60, 64
3, 68760, Note_on_c, 1, 60, 0
3, 68760, Note_on_c, 1, 56, 64
3, 68820, Note_on_c, 1, 56, 0
3, 68820, Note_on_c, 1, 60, 64
3, 68880, Note_on_c, 1, 60, 0
3, 68880, Note_on_c, 1, 53, 64
3, 68940, Note_on_c, 1, 53, 0
3, 68940, Note_on_c, 1, 60, 64
3, 69000, Note_on_c, 1, 60, 0
3, 69000, Note_on_c, 1, 56, 64
3, 69060, Note_on_c, 1, 56, 0
3, 69060, Note_on_c, 1, 60, 64
3, 69120, Note_on_c, 1, 60, 0
3, 69120, Note_on_c, 1, 53, 64
3, 69180, Note_on_c, 1, 53, 0
3, 69180, Note_on_c, 1, 60, 64
3, 69240, Note_on_c, 1, 60, 0
3, 69240, Note_on_c, 1, 56, 64
3, 69300, Note_on_c, 1, 56, 0
3, 69300, Note_on_c, 1, 60, 64
3, 69360, Note_on_c, 1, 60, 0
3, 69360, Note_on_c, 1, 53, 64
3, 69420, Note_on_c, 1, 53, 0
3, 69420, Note_on_c, 1, 60, 64
3, 69480, Note_on_c, 1, 60, 0
3, 69480, Note_on_c, 1, 56, 64
3, 69540, Note_on_c, 1, 56, 0
3, 69540, Note_on_c, 1, 60, 64
3, 69600, Note_on_c, 1, 60, 0
3, 69600, Note_on_c, 1, 53, 64
3, 69660, Note_on_c, 1, 53, 0
3, 69660, Note_on_c, 1, 60, 64
3, 69720, Note_on_c, 1, 60, 0
3, 69720, Note_on_c, 1, 56, 64
3, 69780, Note_on_c, 1, 56, 0
3, 69780, Note_on_c, 1, 60, 64
3, 69840, Note_on_c, 1, 60, 0
3, 69840, Note_on_c, 1, 53, 64
3, 69900, Note_on_c, 1, 53, 0
3, 69900, Note_on_c, 1, 60, 64
3, 69960, Note_on_c, 1, 60, 0
3, 69960, Note_on_c, 1, 56, 64
3, 70020, Note_on_c, 1, 56, 0
3, 70020, Note_on_c, 1, 60, 64
3, 70080, Note_on_c, 1, 60, 0
3, 70080, Note_on_c, 1, 55, 64
3, 70140, Note_on_c, 1, 55, 0
3, 70140, Note_on_c, 1, 65, 64
3, 70200, Note_on_c, 1, 65, 0
3, 70200, Note_on_c, 1, 62, 64
3, 70260, Note_on_c, 1, 62, 0
3, 70260, Note_on_c, 1, 65, 64
3, 70320, Note_on_c, 1, 65, 0
3, 70320, Note_on_c, 1, 55, 64
3, 70380, Note_on_c, 1, 55, 0
3, 70380, Note_on_c, 1, 65, 64
3, 70440, Note_on_c, 1, 65, 0
3, 70440, Note_on_c, 1, 62, 64
3, 70500, Note_on_c, 1, 62, 0
3, 70500, Note_on_c, 1, 65, 64
3, 70560, Note_on_c, 1, 65, 0
3, 70560, Note_on_c, 1, 55, 64
3, 70620, Note_on_c, 1, 55, 0
3, 70620, Note_on_c, 1, 65, 64
3, 70680, Note_on_c, 1, 65, 0
3, 70680, Note_on_c, 1, 62, 64
3, 70740, Note_on_c, 1, 62, 0
3, 70740, Note_on_c, 1, 65, 64
3, 70800, Note_on_c, 1, 65, 0
3, 70800, Note_on_c, 1, 55, 64
3, 70860, Note_on_c, 1, 55, 0
3, 70860, Note_on_c, 1, 65, 64
3, 70920, Note_on_c, 1, 65, 0
3, 70920, Note_on_c, 1, 62, 64
3, 70980, Note_on_c, 1, 62, 0
3, 70980, Note_on_c, 1, 65, 64
3, 71040, Note_on_c, 1, 65, 0
3, 71040, Note_on_c, 1, 55, 64
3, 71100, Note_on_c, 1, 55, 0
3, 71100, Note_on_c, 1, 65, 64
3, 71160, Note_on_c, 1, 65, 0
3, 71160, Note_on_c, 1, 62, 64
3, 71220, Note_on_c, 1, 62, 0
3, 71220, Note_on_c, 1, 65, 64
3, 71280, Note_on_c, 1, 65, 0
3, 71280, Note_on_c, 1, 55, 64
3, 71340, Note_on_c, 1, 55, 0
3, 71340, Note_on_c, 1, 65, 64
3, 71400, Note_on_c, 1, 65, 0
3, 71400, Note_on_c, 1, 62, 64
3, 71460, Note_on_c, 1, 62, 0
3, 71460, Note_on_c, 1, 65, 64
3, 71520, Note_on_c, 1, 65, 0
3, 71520, Note_on_c, 1, 55, 64
3, 71580, Note_on_c, 1, 55, 0
3, 71580, Note_on_c, 1, 62, 64
3, 71640, Note_on_c, 1, 62, 0
3, 71640, Note_on_c, 1, 59, 64
3, 71700, Note_on_c, 1, 59, 0
3, 71700, Note_on_c, 1, 62, 64
3, 71760, Note_on_c, 1, 62, 0
3, 71760, Note_on_c, 1, 55, 64
3, 71820, Note_on_c, 1, 55, 0
3, 71820, Note_on_c, 1, 62, 64
3, 71880, Note_on_c, 1, 62, 0
3, 71880, Note_on_c, 1, 59, 64
3, 71940, Note_on_c, 1, 59, 0
3, 71940, Note_on_c, 1, 62, 64
3, 72000, Note_on_c, 1, 62, 0
3, 72000, Note_on_c, 1, 55, 64
3, 72060, Note_on_c, 1, 55, 0
3, 72060, Note_on_c, 1, 64, 64
3, 72120, Note_on_c, 1, 64, 0
3, 72120, Note_on_c, 1, 60, 64
3, 72180, Note_on_c, 1, 60, 0
3, 72180, Note_on_c, 1, 64, 64
3, 72240, Note_on_c, 1, 64, 0
3, 72240, Note_on_c, 1, 55, 64
3, 72300, Note_on_c, 1, 55, 0
3, 72300, Note_on_c, 1, 63, 64
3, 72360, Note_on_c, 1, 63, 0
3, 72360, Note_on_c, 1, 60, 64
3, 72420, Note_on_c, 1, 60, 0
3, 72420, Note_on_c, 1, 63, 64
3, 72480, Note_on_c, 1, 63, 0
3, 72480, Note_on_c, 1, 55, 64
3, 72540, Note_on_c, 1, 55, 0
3, 72540, Note_on_c, 1, 63, 64
3, 72600, Note_on_c, 1, 63, 0
3, 72600, Note_on_c, 1, 60, 64
3, 72660, Note_on_c, 1, 60, 0
3, 72660, Note_on_c, 1, 63, 64
3, 72720, Note_on_c, 1, 63, 0
3, 72720, Note_on_c, 1, 55, 64
3, 72780, Note_on_c, 1, 55, 0
3, 72780, Note_on_c, 1, 63, 64
3, 72840, Note_on_c, 1, 63, 0
3, 72840, Note_on_c, 1, 60, 64
3, 72900, Note_on_c, 1, 60, 0
3, 72900, Note_on_c, 1, 63, 64
3, 72960, Note_on_c, 1, 63, 0
3, 72960, Note_on_c, 1, 54, 64
3, 73020, Note_on_c, 1, 54, 0
3, 73020, Note_on_c, 1, 63, 64
3, 73080, Note_on_c, 1, 63, 0
3, 73080, Note_on_c, 1, 58, 64
3, 73140, Note_on_c, 1, 58, 0
3, 73140, Note_on_c, 1, 63, 64
3, 73200, Note_on_c, 1, 63, 0
3, 73200, Note_on_c, 1, 54, 64
3, 73260, Note_on_c, 1, 54, 0
3, 73260, Note_on_c, 1, 63, 64
3, 73320, Note_on_c, 1, 63, 0
3, 73320, Note_on_c, 1, 58, 64
3, 73380, Note_on_c, 1, 58, 0
3, 73380, Note_on_c, 1, 63, 64
3, 73440, Note_on_c, 1, 63, 0
3, 73440, Note_on_c, 1, 54, 64
3, 73500, Note_on_c, 1, 54, 0
3, 73500, Note_on_c, 1, 63, 64
3, 73560, Note_on_c, 1, 63, 0
3, 73560, Note_on_c, 1, 58, 64
3, 73620, Note_on_c, 1, 58, 0
3, 73620, Note_on_c, 1, 63, 64
3, 73680, Note_on_c, 1, 63, 0
3, 73680, Note_on_c, 1, 54, 64
3, 73740, Note_on_c, 1, 54, 0
3, 73740, Note_on_c, 1, 63, 64
3, 73800, Note_on_c, 1, 63, 0
3, 73800, Note_on_c, 1, 58, 64
3, 73860, Note_on_c, 1, 58, 0
3, 73860, Note_on_c, 1, 63, 64
3, 73920, Note_on_c, 1, 63, 0
3, 73920, Note_on_c, 1, 53, 64
3, 73980, Note_on_c, 1, 53, 0
3, 73980, Note_on_c, 1, 63, 64
3, 74040, Note_on_c, 1, 63, 0
3, 74040, Note_on_c, 1, 60, 64
3, 74100, Note_on_c, 1, 60, 0
3, 74100, Note_on_c, 1, 63, 64
3, 74160, Note_on_c, 1, 63, 0
3, 74160, Note_on_c, 1, 53, 64
3, 74220, Note_on_c, 1, 53, 0
3, 74220, Note_on_c, 1, 63, 64
3, 74280, Note_on_c, 1, 63, 0
3, 74280, Note_on_c, 1, 60, 64
3, 74340, Note_on_c, 1, 60, 0
3, 74340, Note_on_c, 1, 63, 64
3, 74400, Note_on_c, 1, 63, 0
3, 74400, Note_on_c, 1, 53, 64
3, 74460, Note_on_c, 1, 53, 0
3, 74460, Note_on_c, 1, 63, 64
3, 74520, Note_on_c, 1, 63, 0
3, 74520, Note_on_c, 1, 60, 64
3, 74580, Note_on_c, 1, 60, 0
3, 74580, Note_on_c, 1, 63, 64
3, 74640, Note_on_c, 1, 63, 0
3, 74640, Note_on_c, 1, 53, 64
3, 74700, Note_on_c, 1, 53, 0
3, 74700, Note_on_c, 1, 63, 64
3, 74760, Note_on_c, 1, 63, 0
3, 74760, Note_on_c, 1, 60, 64
3, 74820, Note_on_c, 1, 60, 0
3, 74820, Note_on_c, 1, 63, 64
3, 74880, Note_on_c, 1, 63, 0
3, 74880, Note_on_c, 1, 53, 64
3, 74940, Note_on_c, 1, 53, 0
3, 74940, Note_on_c, 1, 63, 64
3, 75000, Note_on_c, 1, 63, 0
3, 75000, Note_on_c, 1, 60, 64
3, 75060, Note_on_c, 1, 60, 0
3, 75060, Note_on_c, 1, 63, 64
3, 75120, Note_on_c, 1, 63, 0
3, 75120, Note_on_c, 1, 53, 64
3, 75180, Note_on_c, 1, 53, 0
3, 75180, Note_on_c, 1, 63, 64
3, 75240, Note_on_c, 1, 63, 0
3, 75240, Note_on_c, 1, 60, 64
3, 75300, Note_on_c, 1, 60, 0
3, 75300, Note_on_c, 1, 63, 64
3, 75360, Note_on_c, 1, 63, 0
3, 75360, Note_on_c, 1, 53, 64
3, 75420, Note_on_c, 1, 53, 0
3, 75420, Note_on_c, 1, 60, 64
3, 75480, Note_on_c, 1, 60, 0
3, 75480, Note_on_c, 1, 57, 64
3, 75540, Note_on_c, 1, 57, 0
3, 75540, Note_on_c, 1, 60, 64
3, 75600, Note_on_c, 1, 60, 0
3, 75600, Note_on_c, 1, 53, 64
3, 75660, Note_on_c, 1, 53, 0
3, 75660, Note_on_c, 1, 60, 64
3, 75720, Note_on_c, 1, 60, 0
3, 75720, Note_on_c, 1, 57, 64
3, 75780, Note_on_c, 1, 57, 0
3, 75780, Note_on_c, 1, 60, 64
3, 75840, Note_on_c, 1, 60, 0
3, 75840, Note_on_c, 1, 54, 64
3, 75900, Note_on_c, 1, 54, 0
3, 75900, Note_on_c, 1, 60, 64
3, 75960, Note_on_c, 1, 60, 0
3, 75960, Note_on_c, 1, 57, 64
3, 76020, Note_on_c, 1, 57, 0
3, 76020, Note_on_c, 1, 60, 64
3, 76080, Note_on_c, 1, 60, 0
3, 76080, Note_on_c, 1, 54, 64
3, 76140, Note_on_c, 1, 54, 0
3, 76140, Note_on_c, 1, 60, 64
3, 76200, Note_on_c, 1, 60, 0
3, 76200, Note_on_c, 1, 57, 64
3, 76260, Note_on_c, 1, 57, 0
3, 76260, Note_on_c, 1, 60, 64
3, 76320, Note_on_c, 1, 60, 0
3, 76320, Note_on_c, 1, 54, 64
3, 76380, Note_on_c, 1, 54, 0
3, 76380, Note_on_c, 1, 60, 64
3, 76440, Note_on_c, 1, 60, 0
3, 76440, Note_on_c, 1, 57, 64
3, 76500, Note_on_c, 1, 57, 0
3, 76500, Note_on_c, 1, 60, 64
3, 76560, Note_on_c, 1, 60, 0
3, 76560, Note_on_c, 1, 54, 64
3, 76620, Note_on_c, 1, 54, 0
3, 76620, Note_on_c, 1, 62, 64
3, 76680, Note_on_c, 1, 62, 0
3, 76680, Note_on_c, 1, 57, 64
3, 76740, Note_on_c, 1, 57, 0
3, 76740, Note_on_c, 1, 62, 64
3, 76800, Note_on_c, 1, 62, 0
3, 76800, Note_on_c, 1, 55, 64
3, 76860, Note_on_c, 1, 55, 0
3, 76860, Note_on_c, 1, 62, 64
3, 76920, Note_on_c, 1, 62, 0
3, 76920, Note_on_c, 1, 58, 64
3, 76980, Note_on_c, 1, 58, 0
3, 76980, Note_on_c, 1, 62, 64
3, 77040, Note_on_c, 1, 62, 0
3, 77040, Note_on_c, 1, 53, 64
3, 77100, Note_on_c, 1, 53, 0
3, 77100, Note_on_c, 1, 62, 64
3, 77160, Note_on_c, 1, 62, 0
3, 77160, Note_on_c, 1, 57, 64
3, 77220, Note_on_c, 1, 57, 0
3, 77220, Note_on_c, 1, 62, 64
3, 77280, Note_on_c, 1, 62, 0
3, 77280, Note_on_c, 1, 52, 64
3, 77340, Note_on_c, 1, 52, 0
3, 77340, Note_on_c, 1, 62, 64
3, 77400, Note_on_c, 1, 62, 0
3, 77400, Note_on_c, 1, 55, 64
3, 77460, Note_on_c, 1, 55, 0
3, 77460, Note_on_c, 1, 62, 64
3, 77520, Note_on_c, 1, 62, 0
3, 77520, Note_on_c, 1, 51, 64
3, 77580, Note_on_c, 1, 51, 0
3, 77580, Note_on_c, 1, 61, 64
3, 77640, Note_on_c, 1, 61, 0
3, 77640, Note_on_c, 1, 55, 64
3, 77700, Note_on_c, 1, 55, 0
3, 77700, Note_on_c, 1, 61, 64
3, 77760, Note_on_c, 1, 61, 0
3, 77760, Note_on_c, 1, 62, 64
3, 77760, Note_on_c, 1, 50, 64
3, 78000, Note_on_c, 1, 50, 0
3, 78000, Note_on_c, 1, 62, 0
3, 78480, Note_on_c, 1, 63, 64
3, 78480, Note_on_c, 1, 66, 64
3, 78720, Note_on_c, 1, 66, 0
3, 78720, Note_on_c, 1, 63, 0
3, 78720, Note_on_c, 1, 63, 64
3, 78720, Note_on_c, 1, 67, 64
3, 78960, Note_on_c, 1, 67, 0
3, 78960, Note_on_c, 1, 63, 0
3, 79440, Note_on_c, 1, 51, 64
3, 79440, Note_on_c, 1, 61, 64
3, 79680, Note_on_c, 1, 61, 0
3, 79680, Note_on_c, 1, 51, 0
3, 79680, Note_on_c, 1, 50, 64
3, 79680, Note_on_c, 1, 62, 64
3, 79920, Note_on_c, 1, 62, 0
3, 79920, Note_on_c, 1, 50, 0
3, 80400, Note_on_c, 1, 50, 64
3, 80400, Note_on_c, 1, 60, 64
3, 80640, Note_on_c, 1, 60, 0
3, 80640, Note_on_c, 1, 50, 0
3, 80640, Note_on_c, 1, 51, 64
3, 80640, Note_on_c, 1, 58, 64
3, 80880, Note_on_c, 1, 58, 0
3, 80880, Note_on_c, 1, 51, 0
3, 81360, Note_on_c, 1, 51, 64
3, 81360, Note_on_c, 1, 55, 64
3, 81600, Note_on_c, 1, 55, 0
3, 81600, Note_on_c, 1, 51, 0
3, 81600, Note_on_c, 1, 50, 64
3, 81600, Note_on_c, 1, 54, 64
3, 81720, Note_on_c, 1, 54, 0
3, 81720, Note_on_c, 1, 50, 0
3, 81840, Note_on_c, 1, 50, 64
3, 81840, Note_on_c, 1, 55, 64
3, 81840, Note_on_c, 1, 58, 64
3, 81960, Note_on_c, 1, 58, 0
3, 81960, Note_on_c, 1, 55, 0
3, 81960, Note_on_c, 1, 50, 0
3, 82080, Note_on_c, 1, 50, 64
3, 82080, Note_on_c, 1, 54, 64
3, 82080, Note_on_c, 1, 57, 64
3, 82200, Note_on_c, 1, 57, 0
3, 82200, Note_on_c, 1, 54, 0
3, 82200, Note_on_c, 1, 50, 0
3, 82320, Note_on_c, 1, 50, 64
3, 82320, Note_on_c, 1, 55, 64
3, 82320, Note_on_c, 1, 58, 64
3, 82440, Note_on_c, 1, 58, 0
3, 82440, Note_on_c, 1, 55, 0
3, 82440, Note_on_c, 1, 50, 0
3, 82560, Note_on_c, 1, 50, 64
3, 82560, Note_on_c, 1, 54, 64
3, 82560, Note_on_c, 1, 57, 64
3, 82800, Note_on_c, 1, 57, 0
3, 82800, Note_on_c, 1, 54, 0
3, 82800, Note_on_c, 1, 50, 0
3, 83640, Note_on_c, 1, 60, 64
3, 83640, Note_on_c, 1, 65, 64
3, 83640, Note_on_c, 1, 69, 64
3, 83760, Note_on_c, 1, 69, 0
3, 83760, Note_on_c, 1, 65, 0
3, 83760, Note_on_c, 1, 60, 0
3, 83760, Note_on_c, 1, 60, 64
3, 83760, Note_on_c, 1, 65, 64
3, 83760, Note_on_c, 1, 69, 64
3, 83880, Note_on_c, 1, 69, 0
3, 83880, Note_on_c, 1, 65, 0
3, 83880, Note_on_c, 1, 60, 0
3, 83880, Note_on_c, 1, 60, 64
3, 83880, Note_on_c, 1, 65, 64
3, 83880, Note_on_c, 1, 69, 64
3, 84000, Note_on_c, 1, 69, 0
3, 84000, Note_on_c, 1, 65, 0
3, 84000, Note_on_c, 1, 60, 0
3, 84000, Note_on_c, 1, 60, 64
3, 84000, Note_on_c, 1, 65, 64
3, 84000, Note_on_c, 1, 69, 64
3, 84240, Note_on_c, 1, 69, 0
3, 84240, Note_on_c, 1, 65, 0
3, 84240, Note_on_c, 1, 60, 0
3, 84600, Note_on_c, 1, 65, 64
3, 84600, Note_on_c, 1, 72, 64
3, 84600, Note_on_c, 1, 75, 64
3, 84720, Note_on_c, 1, 75, 0
3, 84720, Note_on_c, 1, 72, 0
3, 84720, Note_on_c, 1, 65, 0
3, 84720, Note_on_c, 1, 75, 64
3, 84720, Note_on_c, 1, 72, 64
3, 84720, Note_on_c, 1, 65, 64
3, 84840, Note_on_c, 1, 65, 0
3, 84840, Note_on_c, 1, 72, 0
3, 84840, Note_on_c, 1, 75, 0
3, 84840, Note_on_c, 1, 65, 64
3, 84840, Note_on_c, 1, 72, 64
3, 84840, Note_on_c, 1, 75, 64
3, 84960, Note_on_c, 1, 75, 0
3, 84960, Note_on_c, 1, 72, 0
3, 84960, Note_on_c, 1, 65, 0
3, 84960, Note_on_c, 1, 65, 64
3, 84960, Note_on_c, 1, 72, 64
3, 84960, Note_on_c, 1, 75, 64
3, 85200, Note_on_c, 1, 75, 0
3, 85200, Note_on_c, 1, 72, 0
3, 85200, Note_on_c, 1, 65, 0
3, 85560, Note_on_c, 1, 65, 64
3, 85680, Note_on_c, 1, 65, 0
3, 85680, Note_on_c, 1, 72, 64
3, 85800, Note_on_c, 1, 72, 0
3, 85800, Note_on_c, 1, 75, 64
3, 85920, Note_on_c, 1, 75, 0
3, 85920, Note_on_c, 1, 66, 64
3, 86400, Note_on_c, 1, 66, 0
3, 86520, Note_on_c, 1, 65, 64
3, 86640, Note_on_c, 1, 65, 0
3, 86640, Note_on_c, 1, 72, 64
3, 86760, Note_on_c, 1, 72, 0
3, 86760, Note_on_c, 1, 75, 64
3, 86880, Note_on_c, 1, 75, 0
3, 86880, Note_on_c, 1, 66, 64
3, 87360, Note_on_c, 1, 66, 0
3, 87360, Note_on_c, 1, 65, 64
3, 87480, Note_on_c, 1, 65, 0
3, 87600, Note_on_c, 1, 66, 64
3, 87600, Note_on_c, 1, 72, 64
3, 87600, Note_on_c, 1, 75, 64
3, 87840, Note_on_c, 1, 66, 0
3, 87840, Note_on_c, 1, 65, 64
3, 88080, Note_on_c, 1, 65, 0
3, 88080, Note_on_c, 1, 75, 0
3, 88080, Note_on_c, 1, 72, 0
3, 88080, Note_on_c, 1, 66, 64
3, 88080, Note_on_c, 1, 72, 64
3, 88080, Note_on_c, 1, 75, 64
3, 88320, Note_on_c, 1, 66, 0
3, 88320, Note_on_c, 1, 65, 64
3, 88560, Note_on_c, 1, 65, 0
3, 88560, Note_on_c, 1, 75, 0
3, 88560, Note_on_c, 1, 72, 0
3, 90360, Note_on_c, 1, 58, 64
3, 90480, Note_on_c, 1, 58, 0
3, 90480, Note_on_c, 1, 62, 64
3, 90600, Note_on_c, 1, 62, 0
3, 90600, Note_on_c, 1, 65, 64
3, 90720, Note_on_c, 1, 65, 0
3, 90720, Note_on_c, 1, 62, 64
3, 90840, Note_on_c, 1, 62, 0
3, 90840, Note_on_c, 1, 58, 64
3, 90960, Note_on_c, 1, 58, 0
3, 90960, Note_on_c, 1, 62, 64
3, 91080, Note_on_c, 1, 62, 0
3, 91080, Note_on_c, 1, 67, 64
3, 91200, Note_on_c, 1, 67, 0
3, 91320, Note_on_c, 1, 60, 64
3, 91440, Note_on_c, 1, 60, 0
3, 91440, Note_on_c, 1, 63, 64
3, 91560, Note_on_c, 1, 63, 0
3, 91560, Note_on_c, 1, 67, 64
3, 91680, Note_on_c, 1, 67, 0
3, 91680, Note_on_c, 1, 63, 64
3, 91800, Note_on_c, 1, 63, 0
3, 91800, Note_on_c, 1, 60, 64
3, 91920, Note_on_c, 1, 60, 0
3, 91920, Note_on_c, 1, 63, 64
3, 92040, Note_on_c, 1, 63, 0
3, 92040, Note_on_c, 1, 67, 64
3, 92160, Note_on_c, 1, 67, 0
3, 92280, Note_on_c, 1, 53, 64
3, 92400, Note_on_c, 1, 53, 0
3, 92400, Note_on_c, 1, 60, 64
3, 92520, Note_on_c, 1, 60, 0
3, 92520, Note_on_c, 1, 63, 64
3, 92640, Note_on_c, 1, 63, 0
3, 92640, Note_on_c, 1, 60, 64
3, 92760, Note_on_c, 1, 60, 0
3, 92760, Note_on_c, 1, 53, 64
3, 92880, Note_on_c, 1, 53, 0
3, 92880, Note_on_c, 1, 60, 64
3, 93000, Note_on_c, 1, 60, 0
3, 93000, Note_on_c, 1, 63, 64
3, 93120, Note_on_c, 1, 63, 0
3, 93240, Note_on_c, 1, 58, 64
3, 93360, Note_on_c, 1, 58, 0
3, 93360, Note_on_c, 1, 62, 64
3, 93480, Note_on_c, 1, 62, 0
3, 93480, Note_on_c, 1, 65, 64
3, 93600, Note_on_c, 1, 65, 0
3, 93600, Note_on_c, 1, 62, 64
3, 93720, Note_on_c, 1, 62, 0
3, 93720, Note_on_c, 1, 58, 64
3, 93840, Note_on_c, 1, 58, 0
3, 93840, Note_on_c, 1, 62, 64
3, 93960, Note_on_c, 1, 62, 0
3, 93960, Note_on_c, 1, 65, 64
3, 94080, Note_on_c, 1, 65, 0
3, 94080, Note_on_c, 1, 63, 64
3, 94200, Note_on_c, 1, 63, 0
3, 94200, Note_on_c, 1, 67, 64
3, 94320, Note_on_c, 1, 67, 0
3, 94320, Note_on_c, 1, 62, 64
3, 94440, Note_on_c, 1, 62, 0
3, 94440, Note_on_c, 1, 65, 64
3, 94560, Note_on_c, 1, 65, 0
3, 94560, Note_on_c, 1, 63, 64
3, 94680, Note_on_c, 1, 63, 0
3, 94680, Note_on_c, 1, 67, 64
3, 94800, Note_on_c, 1, 67, 0
3, 94800, Note_on_c, 1, 60, 64
3, 94920, Note_on_c, 1, 60, 0
3, 94920, Note_on_c, 1, 63, 64
3, 95040, Note_on_c, 1, 63, 0
3, 95040, Note_on_c, 1, 62, 64
3, 95040, Note_on_c, 1, 65, 64
3, 95280, Note_on_c, 1, 65, 0
3, 95280, Note_on_c, 1, 62, 0
3, 96000, Note_on_c, 1, 63, 64
3, 96120, Note_on_c, 1, 63, 0
3, 96120, Note_on_c, 1, 67, 64
3, 96240, Note_on_c, 1, 67, 0
3, 96240, Note_on_c, 1, 62, 64
3, 96360, Note_on_c, 1, 62, 0
3, 96360, Note_on_c, 1, 65, 64
3, 96480, Note_on_c, 1, 65, 0
3, 96480, Note_on_c, 1, 63, 64
3, 96600, Note_on_c, 1, 63, 0
3, 96600, Note_on_c, 1, 67, 64
3, 96720, Note_on_c, 1, 67, 0
3, 96720, Note_on_c, 1, 60, 64
3, 96840, Note_on_c, 1, 60, 0
3, 96840, Note_on_c, 1, 63, 64
3, 96960, Note_on_c, 1, 63, 0
3, 96960, Note_on_c, 1, 62, 64
3, 96960, Note_on_c, 1, 65, 64
3, 97200, Note_on_c, 1, 65, 0
3, 97200, Note_on_c, 1, 62, 0
3, 97920, Note_on_c, 1, 57, 64
3, 98160, Note_on_c, 1, 57, 0
3, 98160, Note_on_c, 1, 58, 64
3, 98400, Note_on_c, 1, 58, 0
3, 98400, Note_on_c, 1, 51, 64
3, 98640, Note_on_c, 1, 51, 0
3, 98640, Note_on_c, 1, 53, 64
3, 98880, Note_on_c, 1, 53, 0
3, 99000, Note_on_c, 1, 46, 64
3, 99120, Note_on_c, 1, 46, 0
3, 99120, Note_on_c, 1, 50, 64
3, 99240, Note_on_c, 1, 50, 0
3, 99240, Note_on_c, 1, 53, 64
3, 99360, Note_on_c, 1, 53, 0
3, 99360, Note_on_c, 1, 58, 64
3, 99600, Note_on_c, 1, 58, 0
3, 99960, Note_on_c, 1, 46, 64
3, 100080, Note_on_c, 1, 46, 0
3, 100080, Note_on_c, 1, 50, 64
3, 100200, Note_on_c, 1, 50, 0
3, 100200, Note_on_c, 1, 53, 64
3, 100320, Note_on_c, 1, 53, 0
3, 100320, Note_on_c, 1, 50, 64
3, 100440, Note_on_c, 1, 50, 0
3, 100440, Note_on_c, 1, 46, 64
3, 100560, Note_on_c, 1, 46, 0
3, 100560, Note_on_c, 1, 50, 64
3, 100680, Note_on_c, 1, 50, 0
3, 100680, Note_on_c, 1, 53, 64
3, 100800, Note_on_c, 1, 53, 0
3, 100920, Note_on_c, 1, 46, 64
3, 101040, Note_on_c, 1, 46, 0
3, 101040, Note_on_c, 1, 50, 64
3, 101160, Note_on_c, 1, 50, 0
3, 101160, Note_on_c, 1, 53, 64
3, 101280, Note_on_c, 1, 53, 0
3, 101280, Note_on_c, 1, 50, 64
3, 101400, Note_on_c, 1, 50, 0
3, 101400, Note_on_c, 1, 46, 64
3, 101520, Note_on_c, 1, 46, 0
3, 101520, Note_on_c, 1, 50, 64
3, 101640, Note_on_c, 1, 50, 0
3, 101640, Note_on_c, 1, 53, 64
3, 101760, Note_on_c, 1, 53, 0
3, 101880, Note_on_c, 1, 46, 64
3, 102000, Note_on_c, 1, 46, 0
3, 102000, Note_on_c, 1, 50, 64
3, 102120, Note_on_c, 1, 50, 0
3, 102120, Note_on_c, 1, 53, 64
3, 102240, Note_on_c, 1, 53, 0
3, 102240, Note_on_c, 1, 56, 64
3, 102360, Note_on_c, 1, 56, 0
3, 102360, Note_on_c, 1, 53, 64
3, 102480, Note_on_c, 1, 53, 0
3, 102480, Note_on_c, 1, 50, 64
3, 102600, Note_on_c, 1, 50, 0
3, 102600, Note_on_c, 1, 46, 64
3, 102720, Note_on_c, 1, 46, 0
3, 102840, Note_on_c, 1, 47, 64
3, 102960, Note_on_c, 1, 47, 0
3, 102960, Note_on_c, 1, 50, 64
3, 103080, Note_on_c, 1, 50, 0
3, 103080, Note_on_c, 1, 53, 64
3, 103200, Note_on_c, 1, 53, 0
3, 103200, Note_on_c, 1, 55, 64
3, 103320, Note_on_c, 1, 55, 0
3, 103320, Note_on_c, 1, 53, 64
3, 103440, Note_on_c, 1, 53, 0
3, 103440, Note_on_c, 1, 50, 64
3, 103560, Note_on_c, 1, 50, 0
3, 103560, Note_on_c, 1, 47, 64
3, 103680, Note_on_c, 1, 47, 0
3, 103800, Note_on_c, 1, 58, 64
3, 103920, Note_on_c, 1, 58, 0
3, 103920, Note_on_c, 1, 61, 64
3, 104040, Note_on_c, 1, 61, 0
3, 104040, Note_on_c, 1, 64, 64
3, 104160, Note_on_c, 1, 64, 0
3, 104160, Note_on_c, 1, 67, 64
3, 104400, Note_on_c, 1, 67, 0
3, 104760, Note_on_c, 1, 57, 64
3, 104880, Note_on_c, 1, 57, 0
3, 104880, Note_on_c, 1, 60, 64
3, 105000, Note_on_c, 1, 60, 0
3, 105000, Note_on_c, 1, 65, 64
3, 105120, Note_on_c, 1, 65, 0
3, 105120, Note_on_c, 1, 69, 64
3, 105360, Note_on_c, 1, 69, 0
3, 105720, Note_on_c, 1, 58, 64
3, 105840, Note_on_c, 1, 58, 0
3, 105840, Note_on_c, 1, 62, 64
3, 105960, Note_on_c, 1, 62, 0
3, 105960, Note_on_c, 1, 65, 64
3, 106080, Note_on_c, 1, 65, 0
3, 106080, Note_on_c, 1, 70, 64
3, 106320, Note_on_c, 1, 70, 0
3, 106560, Note_on_c, 1, 63, 64
3, 106680, Note_on_c, 1, 63, 0
3, 106680, Note_on_c, 1, 65, 64
3, 106800, Note_on_c, 1, 65, 0
3, 106800, Note_on_c, 1, 63, 64
3, 106920, Note_on_c, 1, 63, 0
3, 106920, Note_on_c, 1, 65, 64
3, 107040, Note_on_c, 1, 65, 0
3, 107040, Note_on_c, 1, 62, 64
3, 107160, Note_on_c, 1, 62, 0
3, 107160, Note_on_c, 1, 65, 64
3, 107280, Note_on_c, 1, 65, 0
3, 107280, Note_on_c, 1, 62, 64
3, 107400, Note_on_c, 1, 62, 0
3, 107400, Note_on_c, 1, 65, 64
3, 107520, Note_on_c, 1, 65, 0
3, 107520, Note_on_c, 1, 63, 64
3, 107640, Note_on_c, 1, 63, 0
3, 107640, Note_on_c, 1, 65, 64
3, 107760, Note_on_c, 1, 65, 0
3, 107760, Note_on_c, 1, 63, 64
3, 107880, Note_on_c, 1, 63, 0
3, 107880, Note_on_c, 1, 65, 64
3, 108000, Note_on_c, 1, 65, 0
3, 108000, Note_on_c, 1, 62, 64
3, 108120, Note_on_c, 1, 62, 0
3, 108120, Note_on_c, 1, 65, 64
3, 108240, Note_on_c, 1, 65, 0
3, 108240, Note_on_c, 1, 62, 64
3, 108360, Note_on_c, 1, 62, 0
3, 108360, Note_on_c, 1, 65, 64
3, 108480, Note_on_c, 1, 65, 0
3, 108480, Note_on_c, 1, 63, 64
3, 108600, Note_on_c, 1, 63, 0
3, 108600, Note_on_c, 1, 67, 64
3, 108720, Note_on_c, 1, 67, 0
3, 108720, Note_on_c, 1, 63, 64
3, 108840, Note_on_c, 1, 63, 0
3, 108840, Note_on_c, 1, 67, 64
3, 108960, Note_on_c, 1, 67, 0
3, 108960, Note_on_c, 1, 64, 64
3, 109080, Note_on_c, 1, 64, 0
3, 109080, Note_on_c, 1, 67, 64
3, 109200, Note_on_c, 1, 67, 0
3, 109200, Note_on_c, 1, 64, 64
3, 109320, Note_on_c, 1, 64, 0
3, 109320, Note_on_c, 1, 67, 64
3, 109440, Note_on_c, 1, 67, 0
3, 109440, Note_on_c, 1, 53, 64
3, 109680, Note_on_c, 1, 53, 0
3, 109680, Note_on_c, 1, 55, 64
3, 109920, Note_on_c, 1, 55, 0
3, 109920, Note_on_c, 1, 57, 64
3, 110160, Note_on_c, 1, 57, 0
3, 110160, Note_on_c, 1, 58, 64
3, 110400, Note_on_c, 1, 58, 0
3, 110400, Note_on_c, 1, 60, 64
3, 110520, Note_on_c, 1, 60, 0
3, 110520, Note_on_c, 1, 65, 64
3, 110640, Note_on_c, 1, 65, 0
3, 110640, Note_on_c, 1, 57, 64
3, 110760, Note_on_c, 1, 57, 0
3, 110760, Note_on_c, 1, 65, 64
3, 110880, Note_on_c, 1, 65, 0
3, 110880, Note_on_c, 1, 58, 64
3, 111000, Note_on_c, 1, 58, 0
3, 111000, Note_on_c, 1, 65, 64
3, 111120, Note_on_c, 1, 65, 0
3, 111120, Note_on_c, 1, 55, 64
3, 111240, Note_on_c, 1, 55, 0
3, 111240, Note_on_c, 1, 65, 64
3, 111360, Note_on_c, 1, 65, 0
3, 111360, Note_on_c, 1, 53, 64
3, 111600, Note_on_c, 1, 53, 0
3, 111600, Note_on_c, 1, 55, 64
3, 111840, Note_on_c, 1, 55, 0
3, 111840, Note_on_c, 1, 57, 64
3, 112080, Note_on_c, 1, 57, 0
3, 112080, Note_on_c, 1, 58, 64
3, 112320, Note_on_c, 1, 58, 0
3, 112320, Note_on_c, 1, 60, 64
3, 112380, Note_on_c, 1, 60, 0
3, 112380, Note_on_c, 1, 65, 64
3, 112440, Note_on_c, 1, 65, 0
3, 112440, Note_on_c, 1, 64, 64
3, 112500, Note_on_c, 1, 64, 0
3, 112500, Note_on_c, 1, 65, 64
3, 112560, Note_on_c, 1, 65, 0
3, 112560, Note_on_c, 1, 57, 64
3, 112620, Note_on_c, 1, 57, 0
3, 112620, Note_on_c, 1, 65, 64
3, 112680, Note_on_c, 1, 65, 0
3, 112680, Note_on_c, 1, 64, 64
3, 112740, Note_on_c, 1, 64, 0
3, 112740, Note_on_c, 1, 65, 64
3, 112800, Note_on_c, 1, 65, 0
3, 112800, Note_on_c, 1, 58, 64
3, 112860, Note_on_c, 1, 58, 0
3, 112860, Note_on_c, 1, 65, 64
3, 112920, Note_on_c, 1, 65, 0
3, 112920, Note_on_c, 1, 64, 64
3, 112980, Note_on_c, 1, 64, 0
3, 112980, Note_on_c, 1, 65, 64
3, 113040, Note_on_c, 1, 65, 0
3, 113040, Note_on_c, 1, 55, 64
3, 113100, Note_on_c, 1, 55, 0
3, 113100, Note_on_c, 1, 64, 64
3, 113160, Note_on_c, 1, 64, 0
3, 113160, Note_on_c, 1, 62, 64
3, 113220, Note_on_c, 1, 62, 0
3, 113220, Note_on_c, 1, 64, 64
3, 113280, Note_on_c, 1, 64, 0
3, 113280, Note_on_c, 1, 53, 64
3, 113280, Note_on_c, 1, 65, 64
3, 113520, Note_on_c, 1, 65, 0
3, 113520, Note_on_c, 1, 53, 0
3, 113760, Note_on_c, 1, 41, 64
3, 113760, Note_on_c, 1, 29, 64
3, 114000, Note_on_c, 1, 29, 0
3, 114000, Note_on_c, 1, 41, 0
3, 114240, Note_on_c, 1, 46, 64
3, 114240, Note_on_c, 1, 34, 64
3, 114720, Note_on_c, 1, 34, 0
3, 114720, Note_on_c, 1, 46, 0
3, 115440, Note_on_c, 1, 39, 64
3, 115440, Note_on_c, 1, 51, 64
3, 115920, Note_on_c, 1, 51, 0
3, 115920, Note_on_c, 1, 39, 0
3, 115920, Note_on_c, 1, 50, 64
3, 116160, Note_on_c, 1, 50, 0
3, 116160, Note_on_c, 1, 52, 64
3, 116160, Note_on_c, 1, 55, 64
3, 116400, Note_on_c, 1, 55, 0
3, 116400, Note_on_c, 1, 52, 0
3, 116400, Note_on_c, 1, 53, 64
3, 116640, Note_on_c, 1, 53, 0
3, 116640, Note_on_c, 1, 55, 64
3, 116640, Note_on_c, 1, 52, 64
3, 116880, Note_on_c, 1, 52, 0
3, 116880, Note_on_c, 1, 55, 0
3, 116880, Note_on_c, 1, 53, 64
3, 117120, Note_on_c, 1, 53, 0
3, 117120, Note_on_c, 1, 55, 64
3, 117360, Note_on_c, 1, 55, 0
3, 117360, Note_on_c, 1, 57, 64
3, 117600, Note_on_c, 1, 57, 0
3, 117600, Note_on_c, 1, 58, 64
3, 117840, Note_on_c, 1, 58, 0
3, 118200, Note_on_c, 1, 39, 64
3, 118320, Note_on_c, 1, 39, 0
3, 118320, Note_on_c, 1, 43, 64
3, 118440, Note_on_c, 1, 43, 0
3, 118440, Note_on_c, 1, 48, 64
3, 118560, Note_on_c, 1, 48, 0
3, 118560, Note_on_c, 1, 51, 64
3, 118800, Note_on_c, 1, 51, 0
3, 119160, Note_on_c, 1, 38, 64
3, 119280, Note_on_c, 1, 38, 0
3, 119280, Note_on_c, 1, 41, 64
3, 119400, Note_on_c, 1, 41, 0
3, 119400, Note_on_c, 1, 46, 64
3, 119520, Note_on_c, 1, 46, 0
3, 119520, Note_on_c, 1, 50, 64
3, 119760, Note_on_c, 1, 50, 0
3, 120000, Note_on_c, 1, 48, 64
3, 120240, Note_on_c, 1, 48, 0
3, 120240, Note_on_c, 1, 45, 64
3, 120480, Note_on_c, 1, 45, 0
3, 120480, Note_on_c, 1, 46, 64
3, 120720, Note_on_c, 1, 46, 0
3, 120720, Note_on_c, 1, 43, 64
3, 120960, Note_on_c, 1, 43, 0
3, 120960, Note_on_c, 1, 41, 64
3, 121200, Note_on_c, 1, 41, 0
3, 121440, Note_on_c, 1, 53, 64
3, 121500, Note_on_c, 1, 53, 0
3, 121500, Note_on_c, 1, 55, 64
3, 121560, Note_on_c, 1, 55, 0
3, 121560, Note_on_c, 1, 51, 64
3, 121620, Note_on_c, 1, 51, 0
3, 121620, Note_on_c, 1, 53, 64
3, 121680, Note_on_c, 1, 53, 0
3, 121680, Note_on_c, 1, 50, 64
3, 121740, Note_on_c, 1, 50, 0
3, 121740, Note_on_c, 1, 51, 64
3, 121800, Note_on_c, 1, 51, 0
3, 121800, Note_on_c, 1, 48, 64
3, 121860, Note_on_c, 1, 48, 0
3, 121860, Note_on_c, 1, 50, 64
3, 121920, Note_on_c, 1, 50, 0
3, 121920, Note_on_c, 1, 46, 64
3, 122160, Note_on_c, 1, 46, 0
3, 122160, Note_on_c, 1, 58, 64
3, 122400, Note_on_c, 1, 58, 0
3, 123120, Note_on_c, 1, 51, 64
3, 123120, Note_on_c, 1, 63, 64
3, 123600, Note_on_c, 1, 63, 0
3, 123600, Note_on_c, 1, 51, 0
3, 123600, Note_on_c, 1, 62, 64
3, 123840, Note_on_c, 1, 62, 0
3, 123840, Note_on_c, 1, 64, 64
3, 123840, Note_on_c, 1, 67, 64
3, 124080, Note_on_c, 1, 67, 0
3, 124080, Note_on_c, 1, 64, 0
3, 124080, Note_on_c, 1, 65, 64
3, 124320, Note_on_c, 1, 65, 0
3, 124320, Note_on_c, 1, 64, 64
3, 124320, Note_on_c, 1, 67, 64
3, 124560, Note_on_c, 1, 67, 0
3, 124560, Note_on_c, 1, 64, 0
3, 124560, Note_on_c, 1, 65, 64
3, 124800, Note_on_c, 1, 65, 0
3, 124800, Note_on_c, 1, 67, 64
3, 124800, Note_on_c, 1, 70, 64
3, 125040, Note_on_c, 1, 70, 0
3, 125040, Note_on_c, 1, 67, 0
3, 125040, Note_on_c, 1, 69, 64
3, 125040, Note_on_c, 1, 72, 64
3, 125280, Note_on_c, 1, 72, 0
3, 125280, Note_on_c, 1, 69, 0
3, 125280, Note_on_c, 1, 70, 64
3, 125520, Note_on_c, 1, 70, 0
3, 125880, Note_on_c, 1, 55, 64
3, 126000, Note_on_c, 1, 55, 0
3, 126000, Note_on_c, 1, 67, 64
3, 126120, Note_on_c, 1, 67, 0
3, 126120, Note_on_c, 1, 65, 64
3, 126240, Note_on_c, 1, 65, 0
3, 126240, Note_on_c, 1, 63, 64
3, 126360, Note_on_c, 1, 63, 0
3, 126360, Note_on_c, 1, 51, 64
3, 126480, Note_on_c, 1, 51, 0
3, 126480, Note_on_c, 1, 63, 64
3, 126600, Note_on_c, 1, 63, 0
3, 126600, Note_on_c, 1, 62, 64
3, 126720, Note_on_c, 1, 62, 0
3, 126720, Note_on_c, 1, 60, 64
3, 126840, Note_on_c, 1, 60, 0
3, 126840, Note_on_c, 1, 58, 64
3, 126960, Note_on_c, 1, 58, 0
3, 126960, Note_on_c, 1, 57, 64
3, 127080, Note_on_c, 1, 57, 0
3, 127080, Note_on_c, 1, 53, 64
3, 127200, Note_on_c, 1, 53, 0
3, 127200, Note_on_c, 1, 58, 64
3, 127440, Note_on_c, 1, 58, 0
3, 127440, Note_on_c, 1, 50, 64
3, 127680, Note_on_c, 1, 50, 0
3, 127680, Note_on_c, 1, 51, 64
3, 127920, Note_on_c, 1, 51, 0
3, 127920, Note_on_c, 1, 63, 64
3, 128160, Note_on_c, 1, 63, 0
3, 128160, Note_on_c, 1, 65, 64
3, 128400, Note_on_c, 1, 65, 0
3, 128400, Note_on_c, 1, 53, 64
3, 128640, Note_on_c, 1, 53, 0
3, 128640, Note_on_c, 1, 58, 64
3, 128700, Note_on_c, 1, 58, 0
3, 128700, Note_on_c, 1, 65, 64
3, 128760, Note_on_c, 1, 65, 0
3, 128760, Note_on_c, 1, 64, 64
3, 128820, Note_on_c, 1, 64, 0
3, 128820, Note_on_c, 1, 65, 64
3, 128880, Note_on_c, 1, 65, 0
3, 128880, Note_on_c, 1, 67, 64
3, 128940, Note_on_c, 1, 67, 0
3, 128940, Note_on_c, 1, 65, 64
3, 129000, Note_on_c, 1, 65, 0
3, 129000, Note_on_c, 1, 64, 64
3, 129060, Note_on_c, 1, 64, 0
3, 129060, Note_on_c, 1, 65, 64
3, 129120, Note_on_c, 1, 65, 0
3, 129120, Note_on_c, 1, 63, 64
3, 129180, Note_on_c, 1, 63, 0
3, 129180, Note_on_c, 1, 65, 64
3, 129240, Note_on_c, 1, 65, 0
3, 129240, Note_on_c, 1, 62, 64
3, 129300, Note_on_c, 1, 62, 0
3, 129300, Note_on_c, 1, 65, 64
3, 129360, Note_on_c, 1, 65, 0
3, 129360, Note_on_c, 1, 60, 64
3, 129420, Note_on_c, 1, 60, 0
3, 129420, Note_on_c, 1, 65, 64
3, 129480, Note_on_c, 1, 65, 0
3, 129480, Note_on_c, 1, 58, 64
3, 129540, Note_on_c, 1, 58, 0
3, 129540, Note_on_c, 1, 65, 64
3, 129600, Note_on_c, 1, 65, 0
3, 129600, Note_on_c, 1, 57, 64
3, 129660, Note_on_c, 1, 57, 0
3, 129660, Note_on_c, 1, 65, 64
3, 129720, Note_on_c, 1, 65, 0
3, 129720, Note_on_c, 1, 60, 64
3, 129780, Note_on_c, 1, 60, 0
3, 129780, Note_on_c, 1, 65, 64
3, 129840, Note_on_c, 1, 65, 0
3, 129840, Note_on_c, 1, 63, 64
3, 129900, Note_on_c, 1, 63, 0
3, 129900, Note_on_c, 1, 65, 64
3, 129960, Note_on_c, 1, 65, 0
3, 129960, Note_on_c, 1, 63, 64
3, 130020, Note_on_c, 1, 63, 0
3, 130020, Note_on_c, 1, 65, 64
3, 130080, Note_on_c, 1, 65, 0
3, 130080, Note_on_c, 1, 57, 64
3, 130140, Note_on_c, 1, 57, 0
3, 130140, Note_on_c, 1, 65, 64
3, 130200, Note_on_c, 1, 65, 0
3, 130200, Note_on_c, 1, 60, 64
3, 130260, Note_on_c, 1, 60, 0
3, 130260, Note_on_c, 1, 65, 64
3, 130320, Note_on_c, 1, 65, 0
3, 130320, Note_on_c, 1, 63, 64
3, 130380, Note_on_c, 1, 63, 0
3, 130380, Note_on_c, 1, 65, 64
3, 130440, Note_on_c, 1, 65, 0
3, 130440, Note_on_c, 1, 63, 64
3, 130500, Note_on_c, 1, 63, 0
3, 130500, Note_on_c, 1, 65, 64
3, 130560, Note_on_c, 1, 65, 0
3, 130560, Note_on_c, 1, 62, 64
3, 130620, Note_on_c, 1, 62, 0
3, 130620, Note_on_c, 1, 65, 64
3, 130680, Note_on_c, 1, 65, 0
3, 130680, Note_on_c, 1, 57, 64
3, 130740, Note_on_c, 1, 57, 0
3, 130740, Note_on_c, 1, 65, 64
3, 130800, Note_on_c, 1, 65, 0
3, 130800, Note_on_c, 1, 58, 64
3, 130860, Note_on_c, 1, 58, 0
3, 130860, Note_on_c, 1, 65, 64
3, 130920, Note_on_c, 1, 65, 0
3, 130920, Note_on_c, 1, 60, 64
3, 130980, Note_on_c, 1, 60, 0
3, 130980, Note_on_c, 1, 65, 64
3, 131040, Note_on_c, 1, 65, 0
3, 131040, Note_on_c, 1, 61, 64
3, 131100, Note_on_c, 1, 61, 0
3, 131100, Note_on_c, 1, 65, 64
3, 131160, Note_on_c, 1, 65, 0
3, 131160, Note_on_c, 1, 62, 64
3, 131220, Note_on_c, 1, 62, 0
3, 131220, Note_on_c, 1, 65, 64
3, 131280, Note_on_c, 1, 65, 0
3, 131280, Note_on_c, 1, 61, 64
3, 131340, Note_on_c, 1, 61, 0
3, 131340, Note_on_c, 1, 65, 64
3, 131400, Note_on_c, 1, 65, 0
3, 131400, Note_on_c, 1, 62, 64
3, 131460, Note_on_c, 1, 62, 0
3, 131460, Note_on_c, 1, 65, 64
3, 131520, Note_on_c, 1, 65, 0
3, 131520, Note_on_c, 1, 57, 64
3, 131580, Note_on_c, 1, 57, 0
3, 131580, Note_on_c, 1, 65, 64
3, 131640, Note_on_c, 1, 65, 0
3, 131640, Note_on_c, 1, 60, 64
3, 131700, Note_on_c, 1, 60, 0
3, 131700, Note_on_c, 1, 65, 64
3, 131760, Note_on_c, 1, 65, 0
3, 131760, Note_on_c, 1, 63, 64
3, 131820, Note_on_c, 1, 63, 0
3, 131820, Note_on_c, 1, 65, 64
3, 131880, Note_on_c, 1, 65, 0
3, 131880, Note_on_c, 1, 63, 64
3, 131940, Note_on_c, 1, 63, 0
3, 131940, Note_on_c, 1, 65, 64
3, 132000, Note_on_c, 1, 65, 0
3, 132000, Note_on_c, 1, 57, 64
3, 132060, Note_on_c, 1, 57, 0
3, 132060, Note_on_c, 1, 65, 64
3, 132120, Note_on_c, 1, 65, 0
3, 132120, Note_on_c, 1, 60, 64
3, 132180, Note_on_c, 1, 60, 0
3, 132180, Note_on_c, 1, 65, 64
3, 132240, Note_on_c, 1, 65, 0
3, 132240, Note_on_c, 1, 63, 64
3, 132300, Note_on_c, 1, 63, 0
3, 132300, Note_on_c, 1, 65, 64
3, 132360, Note_on_c, 1, 65, 0
3, 132360, Note_on_c, 1, 63, 64
3, 132420, Note_on_c, 1, 63, 0
3, 132420, Note_on_c, 1, 65, 64
3, 132480, Note_on_c, 1, 65, 0
3, 132480, Note_on_c, 1, 62, 64
3, 132540, Note_on_c, 1, 62, 0
3, 132540, Note_on_c, 1, 65, 64
3, 132600, Note_on_c, 1, 65, 0
3, 132600, Note_on_c, 1, 57, 64
3, 132660, Note_on_c, 1, 57, 0
3, 132660, Note_on_c, 1, 65, 64
3, 132720, Note_on_c, 1, 65, 0
3, 132720, Note_on_c, 1, 58, 64
3, 132780, Note_on_c, 1, 58, 0
3, 132780, Note_on_c, 1, 65, 64
3, 132840, Note_on_c, 1, 65, 0
3, 132840, Note_on_c, 1, 60, 64
3, 132900, Note_on_c, 1, 60, 0
3, 132900, Note_on_c, 1, 65, 64
3, 132960, Note_on_c, 1, 65, 0
3, 132960, Note_on_c, 1, 61, 64
3, 133020, Note_on_c, 1, 61, 0
3, 133020, Note_on_c, 1, 65, 64
3, 133080, Note_on_c, 1, 65, 0
3, 133080, Note_on_c, 1, 62, 64
3, 133140, Note_on_c, 1, 62, 0
3, 133140, Note_on_c, 1, 65, 64
3, 133200, Note_on_c, 1, 65, 0
3, 133200, Note_on_c, 1, 61, 64
3, 133260, Note_on_c, 1, 61, 0
3, 133260, Note_on_c, 1, 65, 64
3, 133320, Note_on_c, 1, 65, 0
3, 133320, Note_on_c, 1, 62, 64
3, 133380, Note_on_c, 1, 62, 0
3, 133380, Note_on_c, 1, 65, 64
3, 133440, Note_on_c, 1, 65, 0
3, 133560, Note_on_c, 1, 51, 64
3, 133680, Note_on_c, 1, 51, 0
3, 133680, Note_on_c, 1, 50, 64
3, 133800, Note_on_c, 1, 50, 0
3, 133800, Note_on_c, 1, 51, 64
3, 133920, Note_on_c, 1, 51, 0
3, 134040, Note_on_c, 1, 53, 64
3, 134160, Note_on_c, 1, 53, 0
3, 134160, Note_on_c, 1, 52, 64
3, 134280, Note_on_c, 1, 52, 0
3, 134280, Note_on_c, 1, 53, 64
3, 134400, Note_on_c, 1, 53, 0
3, 134520, Note_on_c, 1, 54, 64
3, 134640, Note_on_c, 1, 54, 0
3, 134640, Note_on_c, 1, 52, 64
3, 134760, Note_on_c, 1, 52, 0
3, 134760, Note_on_c, 1, 54, 64
3, 134880, Note_on_c, 1, 54, 0
3, 135000, Note_on_c, 1, 55, 64
3, 135120, Note_on_c, 1, 55, 0
3, 135120, Note_on_c, 1, 54, 64
3, 135240, Note_on_c, 1, 54, 0
3, 135240, Note_on_c, 1, 55, 64
3, 135360, Note_on_c, 1, 55, 0
3, 135600, Note_on_c, 1, 63, 64
3, 135600, Note_on_c, 1, 72, 64
3, 135840, Note_on_c, 1, 72, 0
3, 135840, Note_on_c, 1, 63, 0
3, 135840, Note_on_c, 1, 74, 64
3, 135840, Note_on_c, 1, 65, 64
3, 136080, Note_on_c, 1, 74, 0
3, 136080, Note_on_c, 1, 75, 64
3, 136320, Note_on_c, 1, 75, 0
3, 136320, Note_on_c, 1, 65, 0
3, 136320, Note_on_c, 1, 74, 64
3, 136320, Note_on_c, 1, 77, 64
3, 136800, Note_on_c, 1, 77, 0
3, 136800, Note_on_c, 1, 74, 0
3, 136800, Note_on_c, 1, 77, 64
3, 136800, Note_on_c, 1, 74, 64
3, 137280, Note_on_c, 1, 74, 0
3, 137280, Note_on_c, 1, 77, 0
3, 137280, Note_on_c, 1, 71, 64
3, 137280, Note_on_c, 1, 74, 64
3, 137280, Note_on_c, 1, 77, 64
3, 137760, Note_on_c, 1, 77, 0
3, 137760, Note_on_c, 1, 74, 0
3, 137760, Note_on_c, 1, 71, 0
3, 137760, Note_on_c, 1, 72, 64
3, 137760, Note_on_c, 1, 75, 64
3, 138240, Note_on_c, 1, 75, 0
3, 138240, Note_on_c, 1, 72, 0
3, 138240, Note_on_c, 1, 69, 64
3, 138240, Note_on_c, 1, 72, 64
3, 138240, Note_on_c, 1, 75, 64
3, 138720, Note_on_c, 1, 75, 0
3, 138720, Note_on_c, 1, 72, 0
3, 138720, Note_on_c, 1, 69, 0
3, 138720, Note_on_c, 1, 70, 64
3, 138720, Note_on_c, 1, 74, 64
3, 139200, Note_on_c, 1, 74, 0
3, 139200, Note_on_c, 1, 70, 0
3, 139200, Note_on_c, 1, 67, 64
3, 139200, Note_on_c, 1, 70, 64
3, 139200, Note_on_c, 1, 74, 64
3, 139680, Note_on_c, 1, 74, 0
3, 139680, Note_on_c, 1, 70, 0
3, 139680, Note_on_c, 1, 67, 0
3, 139680, Note_on_c, 1, 69, 64
3, 139680, Note_on_c, 1, 72, 64
3, 140160, Note_on_c, 1, 72, 0
3, 140160, Note_on_c, 1, 69, 0
3, 140160, Note_on_c, 1, 66, 64
3, 140160, Note_on_c, 1, 69, 64
3, 140160, Note_on_c, 1, 72, 64
3, 140640, Note_on_c, 1, 72, 0
3, 140640, Note_on_c, 1, 69, 0
3, 140640, Note_on_c, 1, 66, 0
3, 140640, Note_on_c, 1, 67, 64
3, 140640, Note_on_c, 1, 70, 64
3, 141120, Note_on_c, 1, 70, 0
3, 141120, Note_on_c, 1, 67, 0
3, 141240, Note_on_c, 1, 64, 64
3, 141240, Note_on_c, 1, 70, 64
3, 141360, Note_on_c, 1, 70, 0
3, 141360, Note_on_c, 1, 64, 0
3, 141360, Note_on_c, 1, 70, 64
3, 141360, Note_on_c, 1, 64, 64
3, 141480, Note_on_c, 1, 64, 0
3, 141480, Note_on_c, 1, 70, 0
3, 141480, Note_on_c, 1, 64, 64
3, 141480, Note_on_c, 1, 70, 64
3, 141600, Note_on_c, 1, 70, 0
3, 141600, Note_on_c, 1, 64, 0
3, 141720, Note_on_c, 1, 65, 64
3, 141720, Note_on_c, 1, 70, 64
3, 141840, Note_on_c, 1, 70, 0
3, 141840, Note_on_c, 1, 65, 0
3, 141840, Note_on_c, 1, 70, 64
3, 141840, Note_on_c, 1, 65, 64
3, 141960, Note_on_c, 1, 65, 0
3, 141960, Note_on_c, 1, 70, 0
3, 141960, Note_on_c, 1, 65, 64
3, 141960, Note_on_c, 1, 70, 64
3, 142080, Note_on_c, 1, 70, 0
3, 142080, Note_on_c, 1, 65, 0
3, 142200, Note_on_c, 1, 67, 64
3, 142200, Note_on_c, 1, 70, 64
3, 142320, Note_on_c, 1, 70, 0
3, 142320, Note_on_c, 1, 67, 0
3, 142320, Note_on_c, 1, 70, 64
3, 142320, Note_on_c, 1, 67, 64
3, 142440, Note_on_c, 1, 67, 0
3, 142440, Note_on_c, 1, 70, 0
3, 142440, Note_on_c, 1, 67, 64
3, 142440, Note_on_c, 1, 70, 64
3, 142560, Note_on_c, 1, 70, 0
3, 142560, Note_on_c, 1, 67, 0
3, 142680, Note_on_c, 1, 66, 64
3, 142680, Note_on_c, 1, 70, 64
3, 142800, Note_on_c, 1, 70, 0
3, 142800, Note_on_c, 1, 66, 0
3, 142800, Note_on_c, 1, 70, 64
3, 142800, Note_on_c, 1, 66, 64
3, 142920, Note_on_c, 1, 66, 0
3, 142920, Note_on_c, 1, 70, 0
3, 142920, Note_on_c, 1, 66, 64
3, 142920, Note_on_c, 1, 70, 64
3, 143040, Note_on_c, 1, 70, 0
3, 143040, Note_on_c, 1, 66, 0
3, 143040, Note_on_c, 1, 65, 64
3, 143040, Note_on_c, 1, 70, 64
3, 143280, Note_on_c, 1, 70, 0
3, 143280, Note_on_c, 1, 65, 0
3, 143280, Note_on_c, 1, 62, 64
3, 143280, Note_on_c, 1, 70, 64
3, 143520, Note_on_c, 1, 70, 0
3, 143520, Note_on_c, 1, 62, 0
3, 143520, Note_on_c, 1, 63, 64
3, 143520, Note_on_c, 1, 70, 64
3, 143760, Note_on_c, 1, 70, 0
3, 143760, Note_on_c, 1, 63, 0
3, 143760, Note_on_c, 1, 60, 64
3, 143760, Note_on_c, 1, 65, 64
3, 144000, Note_on_c, 1, 65, 0
3, 144000, Note_on_c, 1, 60, 0
3, 144000, Note_on_c, 1, 58, 64
3, 144000, Note_on_c, 1, 65, 64
3, 144240, Note_on_c, 1, 65, 0
3, 144240, Note_on_c, 1, 58, 0
3, 144240, Note_on_c, 1, 50, 64
3, 144240, Note_on_c, 1, 53, 64
3, 144480, Note_on_c, 1, 53, 0
3, 144480, Note_on_c, 1, 50, 0
3, 144480, Note_on_c, 1, 51, 64
3, 144480, Note_on_c, 1, 58, 64
3, 144720, Note_on_c, 1, 58, 0
3, 144720, Note_on_c, 1, 51, 0
3, 144720, Note_on_c, 1, 55, 64
3, 144720, Note_on_c, 1, 51, 64
3, 144960, Note_on_c, 1, 51, 0
3, 144960, Note_on_c, 1, 55, 0
3, 145200, Note_on_c, 1, 50, 64
3, 145200, Note_on_c, 1, 58, 64
3, 145440, Note_on_c, 1, 50, 0
3, 145440, Note_on_c, 1, 51, 64
3, 145680, Note_on_c, 1, 51, 0
3, 145680, Note_on_c, 1, 58, 0
3, 145680, Note_on_c, 1, 53, 64
3, 145680, Note_on_c, 1, 57, 64
3, 145920, Note_on_c, 1, 57, 0
3, 145920, Note_on_c, 1, 53, 0
3, 145920, Note_on_c, 1, 46, 64
3, 145920, Note_on_c, 1, 58, 64
3, 146040, Note_on_c, 1, 58, 0
3, 146040, Note_on_c, 1, 46, 0
3, 146160, Note_on_c, 1, 57, 64
3, 146280, Note_on_c, 1, 57, 0
3, 146280, Note_on_c, 1, 56, 64
3, 146400, Note_on_c, 1, 56, 0
3, 146400, Note_on_c, 1, 46, 64
3, 146400, Note_on_c, 1, 55, 64
3, 146520, Note_on_c, 1, 55, 0
3, 146520, Note_on_c, 1, 46, 0
3, 146640, Note_on_c, 1, 57, 64
3, 146760, Note_on_c, 1, 57, 0
3, 146760, Note_on_c, 1, 56, 64
3, 146880, Note_on_c, 1, 56, 0
3, 146880, Note_on_c, 1, 46, 64
3, 146880, Note_on_c, 1, 55, 64
3, 147000, Note_on_c, 1, 55, 0
3, 147000, Note_on_c, 1, 46, 0
3, 147120, Note_on_c, 1, 57, 64
3, 147240, Note_on_c, 1, 57, 0
3, 147240, Note_on_c, 1, 56, 64
3, 147360, Note_on_c, 1, 56, 0
3, 147360, Note_on_c, 1, 55, 64
3, 147480, Note_on_c, 1, 55, 0
3, 147480, Note_on_c, 1, 50, 64
3, 147600, Note_on_c, 1, 50, 0
3, 147600, Note_on_c, 1, 51, 64
3, 147720, Note_on_c, 1, 51, 0
3, 147720, Note_on_c, 1, 48, 64
3, 147840, Note_on_c, 1, 48, 0
3, 147840, Note_on_c, 1, 50, 64
3, 148080, Note_on_c, 1, 50, 0
3, 148320, Note_on_c, 1, 51, 64
3, 148560, Note_on_c, 1, 51, 0
3, 148800, Note_on_c, 1, 53, 64
3, 148920, Note_on_c, 1, 53, 0
3, 148920, Note_on_c, 1, 58, 64
3, 149040, Note_on_c, 1, 58, 0
3, 149040, Note_on_c, 1, 62, 64
3, 149160, Note_on_c, 1, 62, 0
3, 149160, Note_on_c, 1, 58, 64
3, 149280, Note_on_c, 1, 58, 0
3, 149280, Note_on_c, 1, 53, 64
3, 149400, Note_on_c, 1, 53, 0
3, 149400, Note_on_c, 1, 60, 64
3, 149520, Note_on_c, 1, 60, 0
3, 149520, Note_on_c, 1, 63, 64
3, 149640, Note_on_c, 1, 63, 0
3, 149640, Note_on_c, 1, 60, 64
3, 149760, Note_on_c, 1, 60, 0
3, 149760, Note_on_c, 1, 58, 64
3, 149760, Note_on_c, 1, 62, 64
3, 149880, Note_on_c, 1, 62, 0
3, 149880, Note_on_c, 1, 58, 0
3, 150000, Note_on_c, 1, 69, 64
3, 150120, Note_on_c, 1, 69, 0
3, 150120, Note_on_c, 1, 68, 64
3, 150240, Note_on_c, 1, 68, 0
3, 150240, Note_on_c, 1, 58, 64
3, 150240, Note_on_c, 1, 67, 64
3, 150360, Note_on_c, 1, 67, 0
3, 150360, Note_on_c, 1, 58, 0
3, 150360, Note_on_c, 1, 70, 64
3, 150480, Note_on_c, 1, 70, 0
3, 150480, Note_on_c, 1, 69, 64
3, 150600, Note_on_c, 1, 69, 0
3, 150600, Note_on_c, 1, 68, 64
3, 150720, Note_on_c, 1, 68, 0
3, 150720, Note_on_c, 1, 58, 64
3, 150720, Note_on_c, 1, 67, 64
3, 150840, Note_on_c, 1, 67, 0
3, 150840, Note_on_c, 1, 58, 0
3, 150960, Note_on_c, 1, 69, 64
3, 151080, Note_on_c, 1, 69, 0
3, 151080, Note_on_c, 1, 68, 64
3, 151200, Note_on_c, 1, 68, 0
3, 151200, Note_on_c, 1, 67, 64
3, 151320, Note_on_c, 1, 67, 0
3, 151320, Note_on_c, 1, 62, 64
3, 151440, Note_on_c, 1, 62, 0
3, 151440, Note_on_c, 1, 63, 64
3, 151560, Note_on_c, 1, 63, 0
3, 151560, Note_on_c, 1, 60, 64
3, 151680, Note_on_c, 1, 60, 0
3, 151680, Note_on_c, 1, 50, 64
3, 151680, Note_on_c, 1, 62, 64
3, 151920, Note_on_c, 1, 62, 0
3, 151920, Note_on_c, 1, 50, 0
3, 152160, Note_on_c, 1, 63, 64
3, 152160, Note_on_c, 1, 51, 64
3, 152400, Note_on_c, 1, 51, 0
3, 152400, Note_on_c, 1, 63, 0
3, 152640, Note_on_c, 1, 53, 64
3, 152700, Note_on_c, 1, 53, 0
3, 152700, Note_on_c, 1, 62, 64
3, 152760, Note_on_c, 1, 62, 0
3, 152760, Note_on_c, 1, 58, 64
3, 152820, Note_on_c, 1, 58, 0
3, 152820, Note_on_c, 1, 62, 64
3, 152880, Note_on_c, 1, 62, 0
3, 152880, Note_on_c, 1, 53, 64
3, 152940, Note_on_c, 1, 53, 0
3, 152940, Note_on_c, 1, 62, 64
3, 153000, Note_on_c, 1, 62, 0
3, 153000, Note_on_c, 1, 58, 64
3, 153060, Note_on_c, 1, 58, 0
3, 153060, Note_on_c, 1, 62, 64
3, 153120, Note_on_c, 1, 62, 0
3, 153120, Note_on_c, 1, 53, 64
3, 153180, Note_on_c, 1, 53, 0
3, 153180, Note_on_c, 1, 62, 64
3, 153240, Note_on_c, 1, 62, 0
3, 153240, Note_on_c, 1, 58, 64
3, 153300, Note_on_c, 1, 58, 0
3, 153300, Note_on_c, 1, 62, 64
3, 153360, Note_on_c, 1, 62, 0
3, 153360, Note_on_c, 1, 53, 64
3, 153420, Note_on_c, 1, 53, 0
3, 153420, Note_on_c, 1, 62, 64
3, 153480, Note_on_c, 1, 62, 0
3, 153480, Note_on_c, 1, 58, 64
3, 153540, Note_on_c, 1, 58, 0
3, 153540, Note_on_c, 1, 62, 64
3, 153600, Note_on_c, 1, 62, 0
3, 153600, Note_on_c, 1, 53, 64
3, 153660, Note_on_c, 1, 53, 0
3, 153660, Note_on_c, 1, 63, 64
3, 153720, Note_on_c, 1, 63, 0
3, 153720, Note_on_c, 1, 57, 64
3, 153780, Note_on_c, 1, 57, 0
3, 153780, Note_on_c, 1, 63, 64
3, 153840, Note_on_c, 1, 63, 0
3, 153840, Note_on_c, 1, 53, 64
3, 153900, Note_on_c, 1, 53, 0
3, 153900, Note_on_c, 1, 63, 64
3, 153960, Note_on_c, 1, 63, 0
3, 153960, Note_on_c, 1, 57, 64
3, 154020, Note_on_c, 1, 57, 0
3, 154020, Note_on_c, 1, 63, 64
3, 154080, Note_on_c, 1, 63, 0
3, 154080, Note_on_c, 1, 53, 64
3, 154140, Note_on_c, 1, 53, 0
3, 154140, Note_on_c, 1, 63, 64
3, 154200, Note_on_c, 1, 63, 0
3, 154200, Note_on_c, 1, 57, 64
3, 154260, Note_on_c, 1, 57, 0
3, 154260, Note_on_c, 1, 63, 64
3, 154320, Note_on_c, 1, 63, 0
3, 154320, Note_on_c, 1, 53, 64
3, 154380, Note_on_c, 1, 53, 0
3, 154380, Note_on_c, 1, 63, 64
3, 154440, Note_on_c, 1, 63, 0
3, 154440, Note_on_c, 1, 57, 64
3, 154500, Note_on_c, 1, 57, 0
3, 154500, Note_on_c, 1, 63, 64
3, 154560, Note_on_c, 1, 63, 0
3, 154560, Note_on_c, 1, 58, 64
3, 154680, Note_on_c, 1, 58, 0
3, 154680, Note_on_c, 1, 70, 64
3, 154800, Note_on_c, 1, 70, 0
3, 154800, Note_on_c, 1, 69, 64
3, 154920, Note_on_c, 1, 69, 0
3, 154920, Note_on_c, 1, 70, 64
3, 155040, Note_on_c, 1, 70, 0
3, 155040, Note_on_c, 1, 72, 64
3, 155160, Note_on_c, 1, 72, 0
3, 155160, Note_on_c, 1, 70, 64
3, 155280, Note_on_c, 1, 70, 0
3, 155280, Note_on_c, 1, 69, 64
3, 155400, Note_on_c, 1, 69, 0
3, 155400, Note_on_c, 1, 68, 64
3, 155520, Note_on_c, 1, 68, 0
3, 155520, Note_on_c, 1, 67, 64
3, 155640, Note_on_c, 1, 67, 0
3, 155640, Note_on_c, 1, 58, 64
3, 155760, Note_on_c, 1, 58, 0
3, 155760, Note_on_c, 1, 66, 64
3, 155880, Note_on_c, 1, 66, 0
3, 155880, Note_on_c, 1, 58, 64
3, 156000, Note_on_c, 1, 58, 0
3, 156000, Note_on_c, 1, 65, 64
3, 156120, Note_on_c, 1, 65, 0
3, 156120, Note_on_c, 1, 58, 64
3, 156240, Note_on_c, 1, 58, 0
3, 156240, Note_on_c, 1, 69, 64
3, 156360, Note_on_c, 1, 69, 0
3, 156360, Note_on_c, 1, 58, 64
3, 156480, Note_on_c, 1, 58, 0
3, 156480, Note_on_c, 1, 70, 64
3, 156600, Note_on_c, 1, 70, 0
3, 156600, Note_on_c, 1, 58, 64
3, 156720, Note_on_c, 1, 58, 0
3, 156720, Note_on_c, 1, 57, 64
3, 156840, Note_on_c, 1, 57, 0
3, 156840, Note_on_c, 1, 58, 64
3, 156960, Note_on_c, 1, 58, 0
3, 156960, Note_on_c, 1, 60, 64
3, 157080, Note_on_c, 1, 60, 0
3, 157080, Note_on_c, 1, 58, 64
3, 157200, Note_on_c, 1, 58, 0
3, 157200, Note_on_c, 1, 57, 64
3, 157320, Note_on_c, 1, 57, 0
3, 157320, Note_on_c, 1, 56, 64
3, 157440, Note_on_c, 1, 56, 0
3, 157440, Note_on_c, 1, 55, 64
3, 157680, Note_on_c, 1, 55, 0
3, 157680, Note_on_c, 1, 51, 64
3, 157920, Note_on_c, 1, 51, 0
3, 157920, Note_on_c, 1, 53, 64
3, 158160, Note_on_c, 1, 53, 0
3, 158160, Note_on_c, 1, 53, 64
3, 158400, Note_on_c, 1, 53, 0
3, 158400, Note_on_c, 1, 58, 64
3, 158640, Note_on_c, 1, 58, 0
3, 158640, Note_on_c, 1, 53, 64
3, 158880, Note_on_c, 1, 53, 0
3, 158880, Note_on_c, 1, 46, 64
3, 159120, Note_on_c, 1, 46, 0
3, 159120, End_track
0, 0, End_of_file
