0, 0, Header, 1, 2, 480
1, 0, Start_track
1, 0, MIDI_port, 0
1, 0, System_exclusive, 10, 65, 16, 66, 18, 64, 0, 127, 0, 65, 247
1, 0, MIDI_port, 0
1, 0, System_exclusive, 8, 67, 16, 76, 0, 0, 126, 0, 247
1, 0, MIDI_port, 0
1, 0, Time_signature, 4, 2, 24, 8
1, 0, Key_signature, 0, "major"
1, 0, Tempo, 500000
1, 0, End_track
2, 0, Start_track
2, 0, MIDI_port, 0
2, 0, Title_t, "Acoustic Piano"
2, 0, Control_c, 0, 0, 0
2, 0, Control_c, 0, 32, 0
2, 0, Program_c, 0, 0
2, 0, Control_c, 0, 7, 127
2, 0, Control_c, 0, 10, 64
2, 0, Control_c, 0, 11, 127
2, 0, Control_c, 0, 91, 60
2, 0, Control_c, 0, 93, 0
2, 0, Control_c, 0, 64, 0
2, 0, Note_on_c, 0, 39, 60
2, 74, Note_on_c, 0, 43, 55
2, 110, Note_on_c, 0, 46, 55
2, 118, Control_c, 0, 64, 127
2, 146, Note_on_c, 0, 43, 0
2, 146, Note_on_c, 0, 51, 88
2, 149, Note_on_c, 0, 39, 0
2, 162, Note_on_c, 0, 55, 68
2, 190, Note_on_c, 0, 58, 79
2, 206, Note_on_c, 0, 51, 0
2, 206, Note_on_c, 0, 46, 0
2, 209, Note_on_c, 0, 63, 101
2, 448, Note_on_c, 0, 55, 0
2, 470, Note_on_c, 0, 58, 0
2, 574, Note_on_c, 0, 63, 0
2, 978, Control_c, 0, 64, 0
2, 986, Note_on_c, 0, 67, 94
2, 992, Note_on_c, 0, 49, 72
2, 994, Note_on_c, 0, 63, 75
2, 994, Note_on_c, 0, 61, 73
2, 1002, Note_on_c, 0, 39, 54
2, 1010, Note_on_c, 0, 46, 52
2, 1022, Note_on_c, 0, 43, 52
2, 1084, Note_on_c, 0, 43, 0
2, 1208, Control_c, 0, 64, 127
2, 1212, Note_on_c, 0, 49, 0
2, 1230, Note_on_c, 0, 39, 0
2, 1236, Note_on_c, 0, 46, 0
2, 1268, Note_on_c, 0, 61, 0
2, 1270, Note_on_c, 0, 67, 0
2, 1272, Note_on_c, 0, 63, 0
2, 1580, Note_on_c, 0, 67, 89
2, 1582, Note_on_c, 0, 61, 69
2, 1584, Note_on_c, 0, 49, 64
2, 1588, Note_on_c, 0, 39, 57
2, 1594, Note_on_c, 0, 46, 47
2, 1600, Note_on_c, 0, 63, 55
2, 1606, Note_on_c, 0, 43, 55
2, 1634, Note_on_c, 0, 39, 0
2, 1646, Note_on_c, 0, 46, 0
2, 1646, Note_on_c, 0, 63, 0
2, 1658, Note_on_c, 0, 43, 0
2, 1684, Note_on_c, 0, 49, 0
2, 1692, Note_on_c, 0, 61, 0
2, 1738, Note_on_c, 0, 39, 40
2, 1758, Note_on_c, 0, 44, 73
2, 1774, Note_on_c, 0, 60, 78
2, 1776, Control_c, 0, 64, 0
2, 1782, Note_on_c, 0, 48, 64
2, 1800, Note_on_c, 0, 63, 72
2, 1802, Note_on_c, 0, 68, 90
2, 1876, Note_on_c, 0, 67, 0
2, 2568, Note_on_c, 0, 63, 0
2, 2634, Note_on_c, 0, 60, 0
2, 2636, Control_c, 0, 64, 127
2, 2694, Note_on_c, 0, 68, 0
2, 2788, Note_on_c, 0, 39, 0
2, 2812, Note_on_c, 0, 48, 0
2, 2858, Note_on_c, 0, 44, 0
2, 2976, Note_on_c, 0, 68, 72
2, 3056, Note_on_c, 0, 67, 70
2, 3128, Note_on_c, 0, 68, 0
2, 3152, Note_on_c, 0, 65, 68
2, 3190, Note_on_c, 0, 67, 0
2, 3206, Note_on_c, 0, 65, 0
2, 3220, Note_on_c, 0, 63, 55
2, 3240, Note_on_c, 0, 39, 54
2, 3260, Note_on_c, 0, 41, 56
2, 3266, Note_on_c, 0, 63, 0
2, 3292, Note_on_c, 0, 44, 60
2, 3338, Note_on_c, 0, 50, 84
2, 3341, Note_on_c, 0, 62, 95
2, 3344, Control_c, 0, 64, 0
2, 3344, Note_on_c, 0, 56, 85
2, 3352, Note_on_c, 0, 58, 64
2, 3594, Note_on_c, 0, 50, 0
2, 3602, Note_on_c, 0, 56, 0
2, 3616, Note_on_c, 0, 39, 0
2, 3620, Control_c, 0, 64, 127
2, 3628, Note_on_c, 0, 41, 0
2, 3631, Note_on_c, 0, 44, 0
2, 3670, Note_on_c, 0, 62, 0
2, 3672, Note_on_c, 0, 58, 0
2, 3952, Note_on_c, 0, 65, 87
2, 4042, Note_on_c, 0, 65, 0
2, 4098, Note_on_c, 0, 39, 56
2, 4112, Control_c, 0, 64, 0
2, 4142, Note_on_c, 0, 41, 47
2, 4148, Note_on_c, 0, 44, 54
2, 4152, Note_on_c, 0, 62, 71
2, 4160, Note_on_c, 0, 65, 54
2, 4163, Note_on_c, 0, 70, 87
2, 4170, Note_on_c, 0, 50, 80
2, 4358, Control_c, 0, 64, 127
2, 4388, Note_on_c, 0, 62, 0
2, 4434, Note_on_c, 0, 50, 0
2, 4440, Note_on_c, 0, 65, 0
2, 4458, Note_on_c, 0, 39, 0
2, 4522, Note_on_c, 0, 44, 0
2, 4594, Note_on_c, 0, 41, 0
2, 4774, Note_on_c, 0, 68, 78
2, 4844, Note_on_c, 0, 70, 0
2, 4874, Note_on_c, 0, 39, 42
2, 4924, Note_on_c, 0, 43, 40
2, 4934, Note_on_c, 0, 68, 0
2, 4948, Note_on_c, 0, 46, 43
2, 4958, Control_c, 0, 64, 0
2, 4958, Note_on_c, 0, 58, 44
2, 4990, Note_on_c, 0, 51, 59
2, 4993, Note_on_c, 0, 63, 70
2, 5002, Note_on_c, 0, 67, 85
2, 5286, Note_on_c, 0, 43, 0
2, 5296, Control_c, 0, 64, 127
2, 5324, Note_on_c, 0, 46, 0
2, 5334, Note_on_c, 0, 39, 0
2, 5358, Note_on_c, 0, 51, 0
2, 5514, Note_on_c, 0, 63, 0
2, 5524, Note_on_c, 0, 58, 0
2, 5674, Note_on_c, 0, 67, 0
2, 5802, Control_c, 0, 64, 0
2, 6586, Note_on_c, 0, 74, 46
2, 6588, Note_on_c, 0, 68, 26
2, 6596, Note_on_c, 0, 58, 19
2, 6608, Note_on_c, 0, 65, 24
2, 6816, Control_c, 0, 64, 127
2, 6870, Note_on_c, 0, 65, 0
2, 6873, Note_on_c, 0, 68, 0
2, 6890, Note_on_c, 0, 58, 0
2, 6970, Control_c, 0, 64, 0
2, 7152, Note_on_c, 0, 77, 54
2, 7236, Note_on_c, 0, 74, 0
2, 7376, Note_on_c, 0, 58, 25
2, 7380, Note_on_c, 0, 68, 28
2, 7380, Note_on_c, 0, 82, 50
2, 7386, Note_on_c, 0, 65, 24
2, 7420, Note_on_c, 0, 77, 0
2, 7550, Note_on_c, 0, 68, 0
2, 7560, Note_on_c, 0, 65, 0
2, 7592, Note_on_c, 0, 58, 0
2, 7614, Control_c, 0, 64, 127
2, 7708, Control_c, 0, 64, 0
2, 8000, Note_on_c, 0, 80, 34
2, 8036, Note_on_c, 0, 62, 23
2, 8094, Note_on_c, 0, 82, 0
2, 8214, Note_on_c, 0, 63, 31
2, 8248, Note_on_c, 0, 62, 0
2, 8254, Note_on_c, 0, 79, 44
2, 8320, Note_on_c, 0, 80, 0
2, 8584, Control_c, 0, 64, 127
2, 8592, Note_on_c, 0, 63, 0
2, 8624, Note_on_c, 0, 79, 0
2, 8768, Control_c, 0, 64, 0
2, 9258, Note_on_c, 0, 80, 60
2, 9258, Note_on_c, 0, 58, 30
2, 9261, Note_on_c, 0, 84, 73
2, 9450, Note_on_c, 0, 79, 66
2, 9450, Note_on_c, 0, 82, 62
2, 9452, Note_on_c, 0, 80, 0
2, 9452, Note_on_c, 0, 60, 38
2, 9458, Note_on_c, 0, 58, 0
2, 9506, Note_on_c, 0, 84, 0
2, 9622, Note_on_c, 0, 79, 0
2, 9634, Note_on_c, 0, 80, 76
2, 9634, Note_on_c, 0, 77, 58
2, 9650, Note_on_c, 0, 60, 0
2, 9650, Note_on_c, 0, 62, 35
2, 9687, Note_on_c, 0, 77, 0
2, 9700, Note_on_c, 0, 82, 0
2, 9840, Note_on_c, 0, 79, 80
2, 9842, Note_on_c, 0, 75, 50
2, 9848, Note_on_c, 0, 63, 35
2, 9862, Note_on_c, 0, 62, 0
2, 9874, Note_on_c, 0, 80, 0
2, 9916, Note_on_c, 0, 75, 0
2, 10006, Note_on_c, 0, 75, 3
2, 10050, Note_on_c, 0, 63, 0
2, 10058, Control_c, 0, 64, 127
2, 10074, Note_on_c, 0, 75, 0
2, 10084, Note_on_c, 0, 79, 0
2, 10304, Control_c, 0, 64, 0
2, 10724, Note_on_c, 0, 80, 38
2, 10730, Note_on_c, 0, 58, 26
2, 10732, Note_on_c, 0, 84, 37
2, 10904, Note_on_c, 0, 80, 0
2, 10910, Note_on_c, 0, 79, 49
2, 10913, Note_on_c, 0, 82, 36
2, 10924, Note_on_c, 0, 60, 31
2, 10926, Note_on_c, 0, 58, 0
2, 10946, Note_on_c, 0, 84, 0
2, 11002, Note_on_c, 0, 79, 0
2, 11036, Note_on_c, 0, 60, 0
2, 11076, Note_on_c, 0, 80, 54
2, 11092, Note_on_c, 0, 82, 0
2, 11098, Note_on_c, 0, 77, 30
2, 11120, Note_on_c, 0, 62, 22
2, 11150, Control_c, 0, 64, 127
2, 11153, Note_on_c, 0, 77, 0
2, 11222, Note_on_c, 0, 62, 0
2, 11274, Note_on_c, 0, 75, 32
2, 11298, Note_on_c, 0, 80, 0
2, 11300, Note_on_c, 0, 79, 49
2, 11324, Note_on_c, 0, 63, 15
2, 11334, Control_c, 0, 64, 0
2, 11568, Note_on_c, 0, 79, 0
2, 11571, Note_on_c, 0, 75, 0
2, 11580, Note_on_c, 0, 63, 0
2, 11580, Control_c, 0, 64, 127
2, 11840, Control_c, 0, 64, 0
2, 12078, Note_on_c, 0, 80, 61
2, 12084, Note_on_c, 0, 84, 77
2, 12282, Note_on_c, 0, 82, 70
2, 12284, Note_on_c, 0, 79, 75
2, 12286, Note_on_c, 0, 80, 0
2, 12318, Control_c, 0, 64, 127
2, 12372, Note_on_c, 0, 84, 0
2, 12436, Note_on_c, 0, 79, 0
2, 12448, Note_on_c, 0, 80, 81
2, 12448, Note_on_c, 0, 77, 62
2, 12496, Note_on_c, 0, 77, 0
2, 12502, Note_on_c, 0, 82, 0
2, 12590, Note_on_c, 0, 80, 0
2, 12630, Note_on_c, 0, 75, 64
2, 12630, Note_on_c, 0, 79, 85
2, 12678, Note_on_c, 0, 75, 0
2, 12690, Note_on_c, 0, 79, 0
2, 12716, Control_c, 0, 64, 0
2, 12804, Note_on_c, 0, 80, 73
2, 12814, Note_on_c, 0, 84, 81
2, 12974, Note_on_c, 0, 80, 0
2, 12998, Note_on_c, 0, 82, 62
2, 13000, Note_on_c, 0, 79, 69
2, 13040, Control_c, 0, 64, 127
2, 13058, Note_on_c, 0, 84, 0
2, 13120, Note_on_c, 0, 79, 0
2, 13174, Note_on_c, 0, 80, 76
2, 13180, Note_on_c, 0, 77, 43
2, 13212, Note_on_c, 0, 82, 0
2, 13228, Note_on_c, 0, 77, 0
2, 13290, Note_on_c, 0, 80, 0
2, 13352, Note_on_c, 0, 79, 81
2, 13358, Note_on_c, 0, 75, 49
2, 13424, Note_on_c, 0, 79, 0
2, 13427, Note_on_c, 0, 75, 0
2, 13536, Note_on_c, 0, 82, 72
2, 13546, Control_c, 0, 64, 0
2, 13550, Note_on_c, 0, 79, 74
2, 13696, Note_on_c, 0, 79, 0
2, 13720, Note_on_c, 0, 80, 73
2, 13722, Note_on_c, 0, 77, 68
2, 13776, Control_c, 0, 64, 127
2, 13780, Note_on_c, 0, 80, 0
2, 13780, Note_on_c, 0, 82, 0
2, 13898, Note_on_c, 0, 75, 73
2, 13914, Note_on_c, 0, 79, 79
2, 13958, Note_on_c, 0, 77, 0
2, 14040, Note_on_c, 0, 75, 0
2, 14102, Note_on_c, 0, 74, 66
2, 14104, Note_on_c, 0, 77, 80
2, 14130, Control_c, 0, 64, 0
2, 14144, Note_on_c, 0, 79, 0
2, 14266, Note_on_c, 0, 72, 63
2, 14272, Note_on_c, 0, 74, 0
2, 14274, Note_on_c, 0, 75, 68
2, 14294, Note_on_c, 0, 77, 0
2, 14314, Control_c, 0, 64, 127
2, 14316, Note_on_c, 0, 75, 0
2, 14458, Note_on_c, 0, 70, 50
2, 14466, Note_on_c, 0, 74, 57
2, 14504, Note_on_c, 0, 72, 0
2, 14578, Note_on_c, 0, 70, 0
2, 14624, Note_on_c, 0, 72, 59
2, 14630, Note_on_c, 0, 68, 49
2, 14642, Note_on_c, 0, 74, 0
2, 14744, Control_c, 0, 64, 0
2, 14814, Note_on_c, 0, 70, 64
2, 14817, Note_on_c, 0, 67, 51
2, 14840, Note_on_c, 0, 68, 0
2, 14844, Note_on_c, 0, 72, 0
2, 14866, Note_on_c, 0, 70, 0
2, 14914, Control_c, 0, 64, 127
2, 14980, Note_on_c, 0, 67, 0
2, 14980, Note_on_c, 0, 68, 66
2, 15010, Note_on_c, 0, 65, 41
2, 15078, Note_on_c, 0, 65, 0
2, 15136, Note_on_c, 0, 68, 0
2, 15168, Note_on_c, 0, 63, 60
2, 15176, Note_on_c, 0, 67, 63
2, 15238, Note_on_c, 0, 63, 0
2, 15258, Note_on_c, 0, 67, 0
2, 15362, Note_on_c, 0, 65, 63
2, 15378, Note_on_c, 0, 62, 57
2, 15434, Note_on_c, 0, 65, 0
2, 15560, Control_c, 0, 64, 0
2, 15572, Note_on_c, 0, 63, 76
2, 15592, Note_on_c, 0, 48, 19
2, 15640, Note_on_c, 0, 62, 0
2, 15786, Note_on_c, 0, 56, 33
2, 15816, Note_on_c, 0, 48, 0
2, 15836, Control_c, 0, 64, 127
2, 15970, Note_on_c, 0, 56, 0
2, 16000, Note_on_c, 0, 48, 38
2, 16020, Control_c, 0, 64, 0
2, 16168, Note_on_c, 0, 56, 35
2, 16173, Control_c, 0, 64, 127
2, 16198, Note_on_c, 0, 48, 0
2, 16354, Note_on_c, 0, 56, 0
2, 16388, Note_on_c, 0, 48, 34
2, 16468, Note_on_c, 0, 48, 0
2, 16540, Note_on_c, 0, 56, 29
2, 16712, Note_on_c, 0, 56, 0
2, 16740, Note_on_c, 0, 48, 38
2, 16908, Note_on_c, 0, 63, 0
2, 16918, Note_on_c, 0, 56, 35
2, 16932, Note_on_c, 0, 65, 46
2, 16996, Note_on_c, 0, 63, 52
2, 17050, Control_c, 0, 64, 0
2, 17056, Note_on_c, 0, 65, 0
2, 17072, Note_on_c, 0, 48, 0
2, 17096, Note_on_c, 0, 56, 0
2, 17134, Note_on_c, 0, 62, 65
2, 17136, Note_on_c, 0, 46, 23
2, 17206, Note_on_c, 0, 63, 0
2, 17340, Note_on_c, 0, 56, 37
2, 17380, Note_on_c, 0, 46, 0
2, 17388, Control_c, 0, 64, 127
2, 17498, Note_on_c, 0, 56, 0
2, 17530, Note_on_c, 0, 46, 36
2, 17726, Note_on_c, 0, 56, 41
2, 17728, Note_on_c, 0, 46, 0
2, 17818, Note_on_c, 0, 56, 0
2, 17878, Note_on_c, 0, 61, 70
2, 17908, Note_on_c, 0, 46, 42
2, 17940, Control_c, 0, 64, 0
2, 17990, Note_on_c, 0, 62, 0
2, 18114, Note_on_c, 0, 55, 44
2, 18126, Note_on_c, 0, 46, 0
2, 18186, Control_c, 0, 64, 127
2, 18228, Note_on_c, 0, 55, 0
2, 18292, Note_on_c, 0, 46, 47
2, 18474, Note_on_c, 0, 46, 0
2, 18492, Note_on_c, 0, 55, 37
2, 18578, Note_on_c, 0, 55, 0
2, 18646, Control_c, 0, 64, 0
2, 18688, Note_on_c, 0, 60, 58
2, 18696, Note_on_c, 0, 44, 41
2, 18800, Note_on_c, 0, 61, 0
2, 18894, Note_on_c, 0, 55, 43
2, 18918, Note_on_c, 0, 44, 0
2, 18970, Control_c, 0, 64, 127
2, 19022, Note_on_c, 0, 55, 0
2, 19096, Note_on_c, 0, 44, 52
2, 19178, Note_on_c, 0, 44, 0
2, 19292, Note_on_c, 0, 55, 40
2, 19386, Note_on_c, 0, 55, 0
2, 19464, Note_on_c, 0, 44, 37
2, 19616, Control_c, 0, 64, 0
2, 19654, Note_on_c, 0, 53, 69
2, 19692, Note_on_c, 0, 44, 0
2, 19814, Control_c, 0, 64, 127
2, 19824, Note_on_c, 0, 53, 0
2, 19860, Note_on_c, 0, 44, 46
2, 20024, Note_on_c, 0, 53, 59
2, 20040, Note_on_c, 0, 62, 70
2, 20048, Note_on_c, 0, 44, 0
2, 20060, Note_on_c, 0, 60, 0
2, 20122, Note_on_c, 0, 60, 83
2, 20164, Note_on_c, 0, 62, 0
2, 20194, Note_on_c, 0, 53, 0
2, 20238, Note_on_c, 0, 58, 69
2, 20260, Note_on_c, 0, 43, 37
2, 20308, Note_on_c, 0, 60, 0
2, 20308, Control_c, 0, 64, 0
2, 20440, Note_on_c, 0, 43, 0
2, 20464, Note_on_c, 0, 53, 64
2, 20538, Control_c, 0, 64, 127
2, 20594, Note_on_c, 0, 53, 0
2, 20664, Note_on_c, 0, 43, 46
2, 20740, Note_on_c, 0, 43, 0
2, 20806, Note_on_c, 0, 58, 0
2, 20809, Note_on_c, 0, 60, 75
2, 20860, Note_on_c, 0, 53, 55
2, 20894, Note_on_c, 0, 62, 91
2, 20942, Note_on_c, 0, 60, 0
2, 20950, Note_on_c, 0, 53, 0
2, 20992, Note_on_c, 0, 63, 92
2, 21014, Control_c, 0, 64, 0
2, 21022, Note_on_c, 0, 43, 48
2, 21048, Note_on_c, 0, 62, 0
2, 21182, Note_on_c, 0, 51, 49
2, 21212, Note_on_c, 0, 43, 0
2, 21260, Control_c, 0, 64, 127
2, 21302, Note_on_c, 0, 51, 0
2, 21350, Note_on_c, 0, 43, 50
2, 21492, Note_on_c, 0, 63, 0
2, 21508, Note_on_c, 0, 65, 59
2, 21516, Note_on_c, 0, 51, 52
2, 21598, Note_on_c, 0, 67, 81
2, 21658, Note_on_c, 0, 65, 0
2, 21682, Note_on_c, 0, 43, 0
2, 21682, Note_on_c, 0, 51, 0
2, 21706, Control_c, 0, 64, 0
2, 21709, Note_on_c, 0, 68, 79
2, 21730, Note_on_c, 0, 41, 48
2, 21776, Note_on_c, 0, 67, 0
2, 21929, Note_on_c, 0, 50, 50
2, 21968, Note_on_c, 0, 41, 0
2, 21982, Control_c, 0, 64, 127
2, 22050, Note_on_c, 0, 50, 0
2, 22094, Note_on_c, 0, 41, 34
2, 22284, Note_on_c, 0, 41, 0
2, 22284, Note_on_c, 0, 50, 44
2, 22372, Note_on_c, 0, 50, 0
2, 22464, Note_on_c, 0, 39, 46
2, 22478, Note_on_c, 0, 67, 67
2, 22488, Control_c, 0, 64, 0
2, 22540, Note_on_c, 0, 68, 0
2, 22656, Note_on_c, 0, 43, 66
2, 22814, Note_on_c, 0, 46, 67
2, 22882, Note_on_c, 0, 43, 0
2, 22980, Control_c, 0, 64, 127
2, 22982, Note_on_c, 0, 51, 86
2, 23004, Note_on_c, 0, 39, 0
2, 23042, Note_on_c, 0, 46, 0
2, 23082, Note_on_c, 0, 51, 0
2, 23172, Note_on_c, 0, 65, 78
2, 23174, Note_on_c, 0, 60, 70
2, 23177, Note_on_c, 0, 44, 82
2, 23184, Note_on_c, 0, 56, 83
2, 23187, Note_on_c, 0, 67, 0
2, 23286, Note_on_c, 0, 56, 0
2, 23296, Note_on_c, 0, 44, 0
2, 23342, Note_on_c, 0, 60, 0
2, 23356, Note_on_c, 0, 65, 0
2, 23426, Control_c, 0, 64, 0
2, 23938, Note_on_c, 0, 62, 60
2, 23940, Note_on_c, 0, 56, 39
2, 23948, Note_on_c, 0, 53, 72
2, 23950, Note_on_c, 0, 46, 36
2, 24018, Note_on_c, 0, 53, 0
2, 24072, Note_on_c, 0, 62, 0
2, 24072, Control_c, 0, 64, 127
2, 24075, Note_on_c, 0, 56, 0
2, 24078, Note_on_c, 0, 46, 0
2, 24256, Control_c, 0, 64, 0
2, 24586, Note_on_c, 0, 51, 44
2, 24648, Note_on_c, 0, 51, 0
2, 24648, Note_on_c, 0, 55, 55
2, 24682, Note_on_c, 0, 58, 52
2, 24688, Note_on_c, 0, 67, 69
2, 24696, Note_on_c, 0, 55, 0
2, 24716, Note_on_c, 0, 63, 94
2, 24718, Note_on_c, 0, 70, 64
2, 24718, Control_c, 0, 64, 127
2, 24730, Note_on_c, 0, 75, 100
2, 24733, Note_on_c, 0, 58, 0
2, 24758, Note_on_c, 0, 63, 0
2, 24882, Note_on_c, 0, 70, 0
2, 24934, Note_on_c, 0, 67, 0
2, 25060, Note_on_c, 0, 75, 0
2, 25468, Note_on_c, 0, 79, 105
2, 25470, Control_c, 0, 64, 0
2, 25475, Note_on_c, 0, 55, 53
2, 25476, Note_on_c, 0, 61, 68
2, 25476, Note_on_c, 0, 51, 52
2, 25480, Note_on_c, 0, 75, 44
2, 25480, Note_on_c, 0, 73, 55
2, 25482, Note_on_c, 0, 58, 40
2, 25662, Note_on_c, 0, 75, 0
2, 25716, Control_c, 0, 64, 127
2, 25750, Note_on_c, 0, 73, 0
2, 25768, Note_on_c, 0, 55, 0
2, 25804, Note_on_c, 0, 79, 0
2, 25842, Note_on_c, 0, 58, 0
2, 25878, Note_on_c, 0, 51, 0
2, 25922, Note_on_c, 0, 61, 0
2, 26056, Note_on_c, 0, 75, 86
2, 26172, Note_on_c, 0, 75, 0
2, 26250, Note_on_c, 0, 80, 97
2, 26264, Note_on_c, 0, 75, 53
2, 26270, Note_on_c, 0, 72, 76
2, 26270, Note_on_c, 0, 60, 57
2, 26273, Note_on_c, 0, 56, 50
2, 26282, Note_on_c, 0, 51, 49
2, 26300, Control_c, 0, 64, 0
2, 26592, Control_c, 0, 64, 127
2, 26720, Note_on_c, 0, 72, 0
2, 26726, Note_on_c, 0, 75, 0
2, 26772, Note_on_c, 0, 80, 0
2, 27026, Note_on_c, 0, 84, 91
2, 27114, Note_on_c, 0, 82, 69
2, 27186, Note_on_c, 0, 84, 0
2, 27214, Note_on_c, 0, 80, 66
2, 27276, Note_on_c, 0, 82, 0
2, 27300, Note_on_c, 0, 79, 85
2, 27340, Note_on_c, 0, 51, 0
2, 27366, Note_on_c, 0, 56, 0
2, 27374, Note_on_c, 0, 80, 0
2, 27390, Note_on_c, 0, 79, 0
2, 27398, Note_on_c, 0, 77, 76
2, 27468, Note_on_c, 0, 60, 0
2, 27470, Note_on_c, 0, 75, 74
2, 27516, Note_on_c, 0, 77, 0
2, 27560, Note_on_c, 0, 74, 83
2, 27602, Note_on_c, 0, 51, 55
2, 27605, Control_c, 0, 64, 0
2, 27610, Note_on_c, 0, 74, 0
2, 27622, Note_on_c, 0, 75, 0
2, 27632, Note_on_c, 0, 53, 88
2, 27634, Note_on_c, 0, 72, 68
2, 27672, Note_on_c, 0, 56, 68
2, 27700, Note_on_c, 0, 58, 68
2, 27726, Note_on_c, 0, 62, 96
2, 27726, Note_on_c, 0, 70, 87
2, 27766, Note_on_c, 0, 53, 0
2, 27778, Note_on_c, 0, 72, 0
2, 27806, Control_c, 0, 64, 127
2, 27818, Note_on_c, 0, 68, 73
2, 27821, Note_on_c, 0, 56, 0
2, 27826, Note_on_c, 0, 62, 0
2, 27846, Note_on_c, 0, 58, 0
2, 27860, Note_on_c, 0, 51, 0
2, 27898, Note_on_c, 0, 67, 87
2, 27900, Note_on_c, 0, 70, 0
2, 27970, Note_on_c, 0, 68, 0
2, 27980, Note_on_c, 0, 65, 70
2, 27985, Note_on_c, 0, 67, 0
2, 28060, Note_on_c, 0, 63, 78
2, 28082, Note_on_c, 0, 65, 0
2, 28148, Note_on_c, 0, 62, 80
2, 28208, Note_on_c, 0, 63, 0
2, 28226, Note_on_c, 0, 60, 75
2, 28231, Note_on_c, 0, 62, 0
2, 28314, Note_on_c, 0, 58, 70
2, 28350, Note_on_c, 0, 60, 0
2, 28398, Note_on_c, 0, 56, 76
2, 28462, Note_on_c, 0, 55, 84
2, 28468, Note_on_c, 0, 58, 0
2, 28520, Note_on_c, 0, 55, 0
2, 28520, Note_on_c, 0, 56, 0
2, 28526, Note_on_c, 0, 53, 100
2, 28606, Note_on_c, 0, 51, 69
2, 28636, Note_on_c, 0, 53, 0
2, 28676, Note_on_c, 0, 50, 87
2, 28720, Note_on_c, 0, 50, 0
2, 28724, Note_on_c, 0, 51, 0
2, 28744, Note_on_c, 0, 48, 75
2, 28758, Control_c, 0, 64, 0
2, 28806, Note_on_c, 0, 46, 76
2, 28844, Note_on_c, 0, 48, 0
2, 28882, Note_on_c, 0, 44, 81
2, 28952, Note_on_c, 0, 43, 81
2, 28962, Note_on_c, 0, 46, 0
2, 29026, Note_on_c, 0, 44, 0
2, 29036, Note_on_c, 0, 41, 80
2, 29072, Note_on_c, 0, 43, 0
2, 29126, Note_on_c, 0, 39, 83
2, 29146, Note_on_c, 0, 41, 0
2, 29496, Note_on_c, 0, 39, 0
2, 29526, Control_c, 0, 64, 127
2, 29978, Note_on_c, 0, 84, 51
2, 29984, Note_on_c, 0, 75, 48
2, 30002, Control_c, 0, 64, 0
2, 30194, Note_on_c, 0, 79, 50
2, 30214, Note_on_c, 0, 84, 0
2, 30278, Control_c, 0, 64, 127
2, 30352, Note_on_c, 0, 79, 0
2, 30376, Note_on_c, 0, 84, 46
2, 30426, Note_on_c, 0, 75, 0
2, 30488, Note_on_c, 0, 84, 0
2, 30504, Note_on_c, 0, 77, 39
2, 30516, Note_on_c, 0, 79, 49
2, 30574, Note_on_c, 0, 75, 62
2, 30576, Note_on_c, 0, 77, 0
2, 30644, Note_on_c, 0, 79, 0
2, 30648, Control_c, 0, 64, 0
2, 30664, Note_on_c, 0, 84, 52
2, 30672, Note_on_c, 0, 74, 80
2, 30674, Note_on_c, 0, 75, 0
2, 30836, Note_on_c, 0, 77, 48
2, 30850, Note_on_c, 0, 84, 0
2, 31014, Note_on_c, 0, 77, 0
2, 31026, Note_on_c, 0, 84, 66
2, 31062, Control_c, 0, 64, 127
2, 31204, Note_on_c, 0, 77, 69
2, 31210, Note_on_c, 0, 84, 0
2, 31374, Note_on_c, 0, 77, 0
2, 31374, Note_on_c, 0, 73, 61
2, 31378, Note_on_c, 0, 82, 65
2, 31444, Note_on_c, 0, 74, 0
2, 31572, Note_on_c, 0, 77, 66
2, 31590, Note_on_c, 0, 82, 0
2, 31662, Control_c, 0, 64, 0
2, 31742, Note_on_c, 0, 82, 57
2, 31744, Note_on_c, 0, 77, 0
2, 31908, Control_c, 0, 64, 127
2, 31930, Note_on_c, 0, 77, 63
2, 31952, Note_on_c, 0, 82, 0
2, 32092, Note_on_c, 0, 72, 64
2, 32104, Note_on_c, 0, 82, 55
2, 32134, Note_on_c, 0, 77, 0
2, 32138, Control_c, 0, 64, 0
2, 32142, Note_on_c, 0, 73, 0
2, 32294, Note_on_c, 0, 76, 47
2, 32298, Note_on_c, 0, 82, 0
2, 32454, Note_on_c, 0, 76, 0
2, 32470, Note_on_c, 0, 82, 48
2, 32536, Control_c, 0, 64, 127
2, 32662, Note_on_c, 0, 76, 48
2, 32674, Note_on_c, 0, 82, 0
2, 32834, Note_on_c, 0, 76, 0
2, 32838, Note_on_c, 0, 80, 55
2, 32952, Control_c, 0, 64, 0
2, 33010, Note_on_c, 0, 75, 48
2, 33022, Note_on_c, 0, 80, 0
2, 33168, Control_c, 0, 64, 127
2, 33182, Note_on_c, 0, 80, 50
2, 33200, Note_on_c, 0, 75, 0
2, 33302, Note_on_c, 0, 72, 0
2, 33370, Note_on_c, 0, 75, 42
2, 33376, Note_on_c, 0, 80, 0
2, 33379, Note_on_c, 0, 74, 41
2, 33442, Note_on_c, 0, 74, 0
2, 33482, Note_on_c, 0, 72, 57
2, 33562, Note_on_c, 0, 80, 41
2, 33580, Note_on_c, 0, 70, 58
2, 33583, Note_on_c, 0, 75, 0
2, 33587, Note_on_c, 0, 72, 0
2, 33598, Control_c, 0, 64, 0
2, 33774, Note_on_c, 0, 74, 54
2, 33792, Note_on_c, 0, 80, 0
2, 33920, Control_c, 0, 64, 127
2, 33948, Note_on_c, 0, 74, 0
2, 33956, Note_on_c, 0, 80, 58
2, 34122, Note_on_c, 0, 80, 0
2, 34142, Note_on_c, 0, 74, 57
2, 34300, Note_on_c, 0, 74, 0
2, 34320, Control_c, 0, 64, 0
2, 34332, Note_on_c, 0, 79, 62
2, 34496, Note_on_c, 0, 73, 47
2, 34498, Note_on_c, 0, 79, 0
2, 34566, Control_c, 0, 64, 127
2, 34658, Note_on_c, 0, 73, 0
2, 34690, Note_on_c, 0, 79, 68
2, 34772, Note_on_c, 0, 79, 0
2, 34802, Note_on_c, 0, 70, 0
2, 34854, Note_on_c, 0, 73, 43
2, 34858, Note_on_c, 0, 72, 47
2, 34930, Note_on_c, 0, 72, 0
2, 34934, Note_on_c, 0, 70, 56
2, 35016, Note_on_c, 0, 79, 63
2, 35030, Note_on_c, 0, 69, 69
2, 35038, Note_on_c, 0, 73, 0
2, 35050, Note_on_c, 0, 70, 0
2, 35134, Control_c, 0, 64, 0
2, 35198, Note_on_c, 0, 79, 0
2, 35214, Note_on_c, 0, 72, 53
2, 35382, Note_on_c, 0, 72, 0
2, 35394, Control_c, 0, 64, 127
2, 35402, Note_on_c, 0, 79, 68
2, 35468, Note_on_c, 0, 69, 0
2, 35568, Note_on_c, 0, 79, 0
2, 35574, Note_on_c, 0, 72, 56
2, 35736, Note_on_c, 0, 68, 74
2, 35740, Note_on_c, 0, 72, 0
2, 35748, Note_on_c, 0, 77, 54
2, 35842, Control_c, 0, 64, 0
2, 35944, Note_on_c, 0, 72, 55
2, 35958, Note_on_c, 0, 77, 0
2, 36086, Control_c, 0, 64, 127
2, 36114, Note_on_c, 0, 72, 0
2, 36114, Note_on_c, 0, 77, 67
2, 36172, Note_on_c, 0, 68, 0
2, 36272, Note_on_c, 0, 72, 45
2, 36284, Note_on_c, 0, 70, 52
2, 36302, Note_on_c, 0, 77, 0
2, 36376, Note_on_c, 0, 70, 0
2, 36376, Note_on_c, 0, 68, 66
2, 36440, Note_on_c, 0, 72, 0
2, 36460, Note_on_c, 0, 77, 65
2, 36468, Note_on_c, 0, 67, 78
2, 36486, Control_c, 0, 64, 0
2, 36510, Note_on_c, 0, 68, 0
2, 36642, Note_on_c, 0, 70, 46
2, 36676, Note_on_c, 0, 77, 0
2, 36748, Control_c, 0, 64, 127
2, 36842, Note_on_c, 0, 77, 63
2, 36850, Note_on_c, 0, 70, 0
2, 37006, Note_on_c, 0, 70, 47
2, 37040, Note_on_c, 0, 77, 0
2, 37152, Note_on_c, 0, 66, 66
2, 37170, Note_on_c, 0, 75, 58
2, 37182, Note_on_c, 0, 70, 0
2, 37248, Note_on_c, 0, 67, 0
2, 37346, Control_c, 0, 64, 0
2, 37348, Note_on_c, 0, 70, 49
2, 37384, Note_on_c, 0, 75, 0
2, 37532, Note_on_c, 0, 75, 61
2, 37546, Control_c, 0, 64, 127
2, 37566, Note_on_c, 0, 70, 0
2, 37712, Note_on_c, 0, 70, 55
2, 37742, Note_on_c, 0, 75, 0
2, 37892, Note_on_c, 0, 75, 62
2, 37904, Note_on_c, 0, 65, 73
2, 37916, Note_on_c, 0, 70, 0
2, 38008, Note_on_c, 0, 66, 0
2, 38070, Note_on_c, 0, 69, 51
2, 38104, Note_on_c, 0, 75, 0
2, 38176, Control_c, 0, 64, 0
2, 38248, Note_on_c, 0, 69, 0
2, 38256, Note_on_c, 0, 75, 66
2, 38418, Note_on_c, 0, 69, 58
2, 38421, Control_c, 0, 64, 127
2, 38466, Note_on_c, 0, 75, 0
2, 38602, Note_on_c, 0, 73, 61
2, 38607, Note_on_c, 0, 64, 78
2, 38618, Note_on_c, 0, 69, 0
2, 38668, Note_on_c, 0, 65, 0
2, 38772, Note_on_c, 0, 70, 50
2, 38788, Note_on_c, 0, 73, 0
2, 38956, Note_on_c, 0, 73, 58
2, 38959, Control_c, 0, 64, 0
2, 38974, Note_on_c, 0, 70, 0
2, 39118, Note_on_c, 0, 70, 58
2, 39144, Control_c, 0, 64, 127
2, 39180, Note_on_c, 0, 73, 0
2, 39188, Note_on_c, 0, 64, 0
2, 39298, Note_on_c, 0, 53, 108
2, 39308, Note_on_c, 0, 69, 55
2, 39310, Note_on_c, 0, 65, 60
2, 39322, Note_on_c, 0, 70, 0
2, 39476, Note_on_c, 0, 72, 61
2, 39652, Note_on_c, 0, 72, 0
2, 39666, Note_on_c, 0, 77, 73
2, 39832, Note_on_c, 0, 72, 72
2, 39876, Note_on_c, 0, 77, 0
2, 39902, Note_on_c, 0, 69, 0
2, 39998, Note_on_c, 0, 63, 92
2, 40000, Note_on_c, 0, 78, 83
2, 40024, Note_on_c, 0, 65, 0
2, 40030, Note_on_c, 0, 72, 0
2, 40052, Control_c, 0, 64, 0
2, 40178, Note_on_c, 0, 69, 51
2, 40280, Control_c, 0, 64, 127
2, 40296, Note_on_c, 0, 69, 0
2, 40354, Note_on_c, 0, 81, 89
2, 40430, Note_on_c, 0, 63, 0
2, 40442, Note_on_c, 0, 78, 0
2, 40512, Note_on_c, 0, 72, 61
2, 40528, Note_on_c, 0, 65, 57
2, 40570, Note_on_c, 0, 81, 0
2, 40588, Note_on_c, 0, 63, 75
2, 40604, Note_on_c, 0, 65, 0
2, 40626, Note_on_c, 0, 72, 0
2, 40670, Note_on_c, 0, 82, 78
2, 40676, Note_on_c, 0, 61, 83
2, 40716, Note_on_c, 0, 63, 0
2, 40774, Control_c, 0, 64, 0
2, 40842, Note_on_c, 0, 70, 62
2, 40988, Control_c, 0, 64, 127
2, 40996, Note_on_c, 0, 58, 65
2, 41016, Note_on_c, 0, 78, 79
2, 41056, Note_on_c, 0, 70, 0
2, 41074, Note_on_c, 0, 61, 0
2, 41106, Note_on_c, 0, 82, 0
2, 41142, Control_c, 0, 64, 0
2, 41180, Note_on_c, 0, 70, 50
2, 41342, Control_c, 0, 64, 127
2, 41342, Note_on_c, 0, 60, 74
2, 41358, Note_on_c, 0, 77, 78
2, 41376, Note_on_c, 0, 70, 0
2, 41438, Note_on_c, 0, 78, 0
2, 41474, Note_on_c, 0, 58, 0
2, 41504, Note_on_c, 0, 70, 47
2, 41652, Note_on_c, 0, 70, 0
2, 41655, Note_on_c, 0, 61, 74
2, 41666, Note_on_c, 0, 76, 73
2, 41706, Note_on_c, 0, 60, 0
2, 41714, Note_on_c, 0, 77, 0
2, 41802, Note_on_c, 0, 53, 0
2, 41814, Note_on_c, 0, 70, 52
2, 41950, Note_on_c, 0, 76, 0
2, 41972, Note_on_c, 0, 53, 101
2, 41986, Note_on_c, 0, 60, 71
2, 41986, Note_on_c, 0, 77, 81
2, 42012, Note_on_c, 0, 70, 0
2, 42054, Note_on_c, 0, 61, 0
2, 42156, Note_on_c, 0, 69, 52
2, 42156, Control_c, 0, 64, 0
2, 42308, Note_on_c, 0, 69, 0
2, 42311, Note_on_c, 0, 72, 74
2, 42410, Note_on_c, 0, 77, 0
2, 42432, Control_c, 0, 64, 127
2, 42470, Note_on_c, 0, 69, 68
2, 42550, Note_on_c, 0, 72, 0
2, 42626, Note_on_c, 0, 78, 91
2, 42638, Note_on_c, 0, 63, 88
2, 42662, Note_on_c, 0, 69, 0
2, 42712, Note_on_c, 0, 60, 0
2, 42812, Note_on_c, 0, 69, 67
2, 42932, Note_on_c, 0, 69, 0
2, 42992, Note_on_c, 0, 81, 88
2, 43062, Note_on_c, 0, 63, 0
2, 43084, Note_on_c, 0, 78, 0
2, 43132, Note_on_c, 0, 65, 57
2, 43156, Note_on_c, 0, 72, 50
2, 43208, Note_on_c, 0, 65, 0
2, 43208, Note_on_c, 0, 81, 0
2, 43222, Note_on_c, 0, 63, 80
2, 43252, Note_on_c, 0, 72, 0
2, 43308, Control_c, 0, 64, 0
2, 43312, Note_on_c, 0, 82, 73
2, 43324, Note_on_c, 0, 61, 81
2, 43358, Note_on_c, 0, 63, 0
2, 43498, Note_on_c, 0, 70, 48
2, 43616, Control_c, 0, 64, 127
2, 43658, Note_on_c, 0, 58, 52
2, 43666, Note_on_c, 0, 78, 70
2, 43680, Note_on_c, 0, 70, 0
2, 43696, Note_on_c, 0, 61, 0
2, 43764, Note_on_c, 0, 82, 0
2, 43780, Control_c, 0, 64, 0
2, 43824, Note_on_c, 0, 70, 50
2, 43986, Note_on_c, 0, 70, 0
2, 44000, Note_on_c, 0, 60, 55
2, 44000, Control_c, 0, 64, 127
2, 44014, Note_on_c, 0, 77, 73
2, 44078, Note_on_c, 0, 58, 0
2, 44088, Note_on_c, 0, 78, 0
2, 44092, Control_c, 0, 64, 0
2, 44146, Note_on_c, 0, 70, 51
2, 44292, Control_c, 0, 64, 127
2, 44306, Note_on_c, 0, 70, 0
2, 44320, Note_on_c, 0, 61, 60
2, 44326, Note_on_c, 0, 76, 64
2, 44336, Note_on_c, 0, 60, 0
2, 44338, Control_c, 0, 64, 0
2, 44364, Note_on_c, 0, 77, 0
2, 44476, Control_c, 0, 64, 127
2, 44478, Note_on_c, 0, 53, 0
2, 44490, Note_on_c, 0, 70, 48
2, 44520, Note_on_c, 0, 76, 0
2, 44640, Note_on_c, 0, 70, 0
2, 44678, Note_on_c, 0, 77, 60
2, 44688, Note_on_c, 0, 60, 46
2, 44690, Note_on_c, 0, 53, 52
2, 44722, Control_c, 0, 64, 0
2, 44754, Note_on_c, 0, 61, 0
2, 44856, Note_on_c, 0, 69, 34
2, 45002, Note_on_c, 0, 69, 0
2, 45050, Note_on_c, 0, 72, 47
2, 45076, Control_c, 0, 64, 127
2, 45128, Note_on_c, 0, 77, 0
2, 45180, Note_on_c, 0, 60, 0
2, 45230, Note_on_c, 0, 69, 45
2, 45264, Note_on_c, 0, 72, 0
2, 45358, Note_on_c, 0, 60, 70
2, 45362, Note_on_c, 0, 57, 55
2, 45372, Note_on_c, 0, 77, 74
2, 45384, Note_on_c, 0, 69, 0
2, 45494, Note_on_c, 0, 72, 47
2, 45544, Note_on_c, 0, 77, 0
2, 45584, Note_on_c, 0, 69, 55
2, 45638, Note_on_c, 0, 72, 0
2, 45716, Note_on_c, 0, 77, 73
2, 45726, Note_on_c, 0, 69, 0
2, 45838, Note_on_c, 0, 72, 59
2, 45924, Note_on_c, 0, 77, 0
2, 45926, Note_on_c, 0, 69, 63
2, 45960, Note_on_c, 0, 72, 0
2, 46034, Note_on_c, 0, 61, 83
2, 46036, Note_on_c, 0, 76, 78
2, 46038, Note_on_c, 0, 58, 67
2, 46074, Note_on_c, 0, 69, 0
2, 46080, Note_on_c, 0, 57, 0
2, 46094, Note_on_c, 0, 60, 0
2, 46146, Note_on_c, 0, 70, 52
2, 46242, Note_on_c, 0, 67, 73
2, 46246, Note_on_c, 0, 76, 0
2, 46296, Note_on_c, 0, 70, 0
2, 46382, Note_on_c, 0, 76, 90
2, 46402, Note_on_c, 0, 67, 0
2, 46492, Note_on_c, 0, 70, 69
2, 46584, Note_on_c, 0, 67, 74
2, 46587, Note_on_c, 0, 76, 0
2, 46690, Note_on_c, 0, 60, 92
2, 46694, Note_on_c, 0, 75, 87
2, 46700, Note_on_c, 0, 61, 0
2, 46703, Control_c, 0, 64, 0
2, 46706, Note_on_c, 0, 57, 75
2, 46726, Note_on_c, 0, 67, 0
2, 46740, Note_on_c, 0, 58, 0
2, 46778, Note_on_c, 0, 70, 0
2, 46816, Note_on_c, 0, 72, 73
2, 46892, Note_on_c, 0, 75, 0
2, 46914, Note_on_c, 0, 65, 72
2, 46934, Control_c, 0, 64, 127
2, 46974, Note_on_c, 0, 53, 0
2, 46978, Note_on_c, 0, 57, 0
2, 46988, Note_on_c, 0, 72, 0
2, 47028, Note_on_c, 0, 75, 91
2, 47032, Note_on_c, 0, 60, 0
2, 47036, Note_on_c, 0, 65, 0
2, 47132, Note_on_c, 0, 72, 74
2, 47192, Note_on_c, 0, 75, 0
2, 47192, Note_on_c, 0, 65, 62
2, 47216, Note_on_c, 0, 46, 65
2, 47220, Note_on_c, 0, 72, 0
2, 47234, Note_on_c, 0, 65, 0
2, 47260, Note_on_c, 0, 50, 74
2, 47302, Note_on_c, 0, 53, 98
2, 47342, Note_on_c, 0, 62, 74
2, 47376, Note_on_c, 0, 58, 72
2, 47394, Note_on_c, 0, 65, 73
2, 47420, Note_on_c, 0, 70, 94
2, 47472, Control_c, 0, 64, 0
2, 47810, Control_c, 0, 64, 127
2, 47880, Note_on_c, 0, 65, 0
2, 47924, Note_on_c, 0, 50, 0
2, 47946, Note_on_c, 0, 62, 0
2, 47956, Note_on_c, 0, 53, 0
2, 47956, Note_on_c, 0, 70, 0
2, 47976, Note_on_c, 0, 46, 0
2, 48050, Note_on_c, 0, 58, 0
2, 48162, Note_on_c, 0, 74, 98
2, 48162, Note_on_c, 0, 56, 78
2, 48165, Note_on_c, 0, 68, 74
2, 48176, Note_on_c, 0, 46, 59
2, 48180, Note_on_c, 0, 70, 54
2, 48186, Note_on_c, 0, 53, 83
2, 48206, Note_on_c, 0, 50, 52
2, 48252, Note_on_c, 0, 70, 0
2, 48364, Control_c, 0, 64, 0
2, 48578, Control_c, 0, 64, 127
2, 48732, Note_on_c, 0, 53, 0
2, 48748, Note_on_c, 0, 68, 0
2, 48750, Note_on_c, 0, 46, 0
2, 48760, Note_on_c, 0, 50, 0
2, 48762, Note_on_c, 0, 70, 80
2, 48818, Note_on_c, 0, 74, 0
2, 48842, Note_on_c, 0, 56, 0
2, 48852, Note_on_c, 0, 67, 83
2, 48868, Note_on_c, 0, 70, 0
2, 48950, Note_on_c, 0, 70, 50
2, 48984, Note_on_c, 0, 55, 68
2, 48984, Note_on_c, 0, 46, 52
2, 48994, Note_on_c, 0, 51, 58
2, 49014, Note_on_c, 0, 75, 95
2, 49070, Control_c, 0, 64, 0
2, 49746, Note_on_c, 0, 67, 0
2, 49770, Note_on_c, 0, 70, 0
2, 49824, Control_c, 0, 64, 127
2, 50030, Note_on_c, 0, 79, 79
2, 50040, Note_on_c, 0, 75, 0
2, 50120, Note_on_c, 0, 77, 79
2, 50140, Note_on_c, 0, 46, 0
2, 50172, Note_on_c, 0, 79, 0
2, 50202, Note_on_c, 0, 55, 0
2, 50222, Note_on_c, 0, 75, 66
2, 50232, Note_on_c, 0, 51, 0
2, 50236, Note_on_c, 0, 77, 0
2, 50296, Note_on_c, 0, 74, 80
2, 50342, Note_on_c, 0, 75, 0
2, 50350, Note_on_c, 0, 74, 0
2, 50386, Note_on_c, 0, 72, 65
2, 50460, Note_on_c, 0, 70, 68
2, 50492, Note_on_c, 0, 72, 0
2, 50516, Control_c, 0, 64, 0
2, 50544, Note_on_c, 0, 57, 77
2, 50552, Note_on_c, 0, 46, 58
2, 50554, Note_on_c, 0, 69, 89
2, 50556, Note_on_c, 0, 51, 66
2, 50566, Note_on_c, 0, 48, 57
2, 50584, Note_on_c, 0, 70, 0
2, 50644, Note_on_c, 0, 70, 73
2, 50690, Note_on_c, 0, 69, 0
2, 50746, Control_c, 0, 64, 127
2, 50749, Note_on_c, 0, 72, 79
2, 50754, Note_on_c, 0, 70, 0
2, 50846, Note_on_c, 0, 74, 84
2, 50872, Note_on_c, 0, 72, 0
2, 50918, Note_on_c, 0, 75, 84
2, 50946, Note_on_c, 0, 74, 0
2, 51014, Note_on_c, 0, 77, 82
2, 51028, Note_on_c, 0, 75, 0
2, 51088, Note_on_c, 0, 79, 97
2, 51114, Control_c, 0, 64, 0
2, 51118, Note_on_c, 0, 77, 0
2, 51166, Note_on_c, 0, 81, 87
2, 51242, Note_on_c, 0, 79, 0
2, 51256, Note_on_c, 0, 82, 79
2, 51304, Note_on_c, 0, 81, 0
2, 51314, Note_on_c, 0, 82, 0
2, 51330, Note_on_c, 0, 84, 95
2, 51376, Control_c, 0, 64, 127
2, 51418, Note_on_c, 0, 86, 87
2, 51436, Control_c, 0, 64, 0
2, 51472, Note_on_c, 0, 84, 0
2, 51502, Note_on_c, 0, 87, 83
2, 51566, Note_on_c, 0, 86, 0
2, 51592, Note_on_c, 0, 89, 92
2, 51654, Note_on_c, 0, 87, 0
2, 51682, Note_on_c, 0, 89, 0
2, 51774, Control_c, 0, 64, 127
2, 51800, Note_on_c, 0, 87, 81
2, 51808, Note_on_c, 0, 57, 0
2, 51828, Note_on_c, 0, 46, 0
2, 51844, Note_on_c, 0, 51, 0
2, 51856, Note_on_c, 0, 48, 0
2, 51902, Note_on_c, 0, 87, 0
2, 51928, Control_c, 0, 64, 0
2, 51986, Note_on_c, 0, 58, 41
2, 51998, Note_on_c, 0, 86, 82
2, 51998, Note_on_c, 0, 53, 72
2, 52000, Note_on_c, 0, 46, 31
2, 52006, Note_on_c, 0, 50, 41
2, 52080, Note_on_c, 0, 53, 0
2, 52094, Note_on_c, 0, 50, 0
2, 52110, Note_on_c, 0, 46, 0
2, 52112, Note_on_c, 0, 58, 0
2, 52114, Note_on_c, 0, 86, 0
2, 52127, Control_c, 0, 64, 127
2, 52184, Note_on_c, 0, 84, 75
2, 52286, Note_on_c, 0, 84, 0
2, 52328, Control_c, 0, 64, 0
2, 52384, Note_on_c, 0, 82, 65
2, 52504, Note_on_c, 0, 82, 0
2, 52582, Note_on_c, 0, 81, 68
2, 52646, Note_on_c, 0, 81, 0
2, 52782, Note_on_c, 0, 79, 72
2, 52838, Note_on_c, 0, 79, 0
2, 52956, Note_on_c, 0, 77, 54
2, 53070, Note_on_c, 0, 77, 0
2, 53152, Note_on_c, 0, 75, 53
2, 53218, Note_on_c, 0, 75, 0
2, 53362, Note_on_c, 0, 74, 55
2, 53414, Note_on_c, 0, 74, 0
2, 53566, Note_on_c, 0, 57, 70
2, 53569, Note_on_c, 0, 51, 84
2, 53576, Note_on_c, 0, 46, 52
2, 53576, Note_on_c, 0, 72, 64
2, 53584, Note_on_c, 0, 48, 57
2, 53688, Note_on_c, 0, 70, 65
2, 53693, Control_c, 0, 64, 127
2, 53718, Note_on_c, 0, 72, 0
2, 53798, Note_on_c, 0, 69, 57
2, 53808, Note_on_c, 0, 70, 0
2, 53880, Note_on_c, 0, 70, 57
2, 53936, Note_on_c, 0, 69, 0
2, 53984, Note_on_c, 0, 70, 0
2, 53994, Note_on_c, 0, 72, 69
2, 54082, Note_on_c, 0, 74, 84
2, 54124, Note_on_c, 0, 72, 0
2, 54168, Note_on_c, 0, 75, 77
2, 54184, Note_on_c, 0, 74, 0
2, 54246, Note_on_c, 0, 75, 0
2, 54260, Note_on_c, 0, 77, 83
2, 54334, Note_on_c, 0, 79, 96
2, 54382, Note_on_c, 0, 77, 0
2, 54402, Note_on_c, 0, 81, 85
2, 54464, Note_on_c, 0, 79, 0
2, 54472, Note_on_c, 0, 82, 75
2, 54502, Note_on_c, 0, 81, 0
2, 54504, Note_on_c, 0, 82, 0
2, 54538, Note_on_c, 0, 84, 94
2, 54616, Note_on_c, 0, 86, 81
2, 54658, Note_on_c, 0, 84, 0
2, 54676, Note_on_c, 0, 87, 72
2, 54742, Note_on_c, 0, 89, 95
2, 54746, Note_on_c, 0, 86, 0
2, 54806, Note_on_c, 0, 87, 0
2, 54858, Note_on_c, 0, 57, 0
2, 54870, Note_on_c, 0, 89, 0
2, 54912, Note_on_c, 0, 51, 0
2, 54936, Note_on_c, 0, 87, 90
2, 54956, Note_on_c, 0, 46, 0
2, 54958, Note_on_c, 0, 48, 0
2, 55028, Note_on_c, 0, 87, 0
2, 55094, Control_c, 0, 64, 0
2, 55128, Note_on_c, 0, 58, 40
2, 55131, Note_on_c, 0, 86, 80
2, 55138, Note_on_c, 0, 46, 34
2, 55142, Note_on_c, 0, 50, 38
2, 55142, Note_on_c, 0, 53, 65
2, 55175, Note_on_c, 0, 87, 69
2, 55178, Note_on_c, 0, 86, 0
2, 55242, Note_on_c, 0, 86, 77
2, 55320, Note_on_c, 0, 87, 0
2, 55338, Control_c, 0, 64, 127
2, 55340, Note_on_c, 0, 84, 81
2, 55378, Note_on_c, 0, 86, 0
2, 55394, Note_on_c, 0, 84, 0
2, 55462, Control_c, 0, 64, 0
2, 55532, Note_on_c, 0, 82, 61
2, 55570, Note_on_c, 0, 84, 84
2, 55588, Note_on_c, 0, 82, 0
2, 55660, Note_on_c, 0, 82, 68
2, 55680, Note_on_c, 0, 84, 0
2, 55734, Note_on_c, 0, 81, 76
2, 55770, Control_c, 0, 64, 127
2, 55772, Note_on_c, 0, 53, 0
2, 55786, Note_on_c, 0, 82, 0
2, 55788, Note_on_c, 0, 58, 0
2, 55791, Note_on_c, 0, 46, 0
2, 55794, Note_on_c, 0, 81, 0
2, 55796, Note_on_c, 0, 50, 0
2, 55862, Control_c, 0, 64, 0
2, 55922, Note_on_c, 0, 79, 80
2, 55966, Note_on_c, 0, 79, 0
2, 55978, Note_on_c, 0, 81, 70
2, 56040, Note_on_c, 0, 79, 63
2, 56088, Note_on_c, 0, 81, 0
2, 56091, Control_c, 0, 64, 127
2, 56120, Note_on_c, 0, 77, 71
2, 56158, Note_on_c, 0, 79, 0
2, 56168, Control_c, 0, 64, 0
2, 56173, Note_on_c, 0, 77, 0
2, 56314, Note_on_c, 0, 75, 63
2, 56362, Note_on_c, 0, 75, 0
2, 56376, Note_on_c, 0, 77, 63
2, 56442, Note_on_c, 0, 75, 54
2, 56498, Note_on_c, 0, 77, 0
2, 56542, Note_on_c, 0, 74, 63
2, 56602, Note_on_c, 0, 75, 0
2, 56616, Control_c, 0, 64, 127
2, 56660, Note_on_c, 0, 74, 0
2, 56772, Note_on_c, 0, 79, 83
2, 56778, Note_on_c, 0, 51, 34
2, 56784, Control_c, 0, 64, 0
2, 56798, Note_on_c, 0, 74, 35
2, 57028, Note_on_c, 0, 77, 43
2, 57031, Note_on_c, 0, 55, 45
2, 57072, Note_on_c, 0, 74, 0
2, 57112, Note_on_c, 0, 51, 0
2, 57216, Note_on_c, 0, 75, 43
2, 57219, Note_on_c, 0, 57, 43
2, 57226, Note_on_c, 0, 55, 0
2, 57234, Note_on_c, 0, 77, 0
2, 57290, Control_c, 0, 64, 127
2, 57384, Note_on_c, 0, 57, 0
2, 57410, Note_on_c, 0, 59, 53
2, 57413, Note_on_c, 0, 74, 59
2, 57416, Note_on_c, 0, 75, 0
2, 57536, Control_c, 0, 64, 0
2, 57626, Note_on_c, 0, 59, 0
2, 57631, Note_on_c, 0, 75, 46
2, 57635, Note_on_c, 0, 60, 51
2, 57644, Note_on_c, 0, 74, 0
2, 57826, Note_on_c, 0, 82, 53
2, 57838, Note_on_c, 0, 79, 0
2, 58012, Control_c, 0, 64, 127
2, 58026, Note_on_c, 0, 82, 0
2, 58048, Note_on_c, 0, 81, 56
2, 58222, Note_on_c, 0, 58, 15
2, 58256, Note_on_c, 0, 79, 75
2, 58312, Note_on_c, 0, 81, 0
2, 58332, Note_on_c, 0, 60, 0
2, 58428, Control_c, 0, 64, 0
2, 58470, Note_on_c, 0, 77, 59
2, 58472, Note_on_c, 0, 57, 38
2, 58476, Note_on_c, 0, 58, 0
2, 58502, Note_on_c, 0, 79, 0
2, 58598, Note_on_c, 0, 75, 0
2, 58648, Note_on_c, 0, 65, 37
2, 58656, Note_on_c, 0, 57, 0
2, 58656, Note_on_c, 0, 74, 49
2, 58736, Control_c, 0, 64, 127
2, 58818, Note_on_c, 0, 65, 0
2, 58838, Note_on_c, 0, 75, 56
2, 58841, Note_on_c, 0, 67, 42
2, 58846, Note_on_c, 0, 74, 0
2, 58950, Control_c, 0, 64, 0
2, 59012, Note_on_c, 0, 67, 0
2, 59016, Note_on_c, 0, 72, 54
2, 59022, Note_on_c, 0, 69, 39
2, 59042, Note_on_c, 0, 75, 0
2, 59184, Note_on_c, 0, 72, 0
2, 59220, Note_on_c, 0, 74, 50
2, 59236, Note_on_c, 0, 70, 33
2, 59246, Note_on_c, 0, 69, 0
2, 59428, Note_on_c, 0, 77, 0
2, 59434, Note_on_c, 0, 82, 52
2, 59580, Control_c, 0, 64, 127
2, 59638, Note_on_c, 0, 81, 64
2, 59700, Note_on_c, 0, 82, 0
2, 59736, Note_on_c, 0, 70, 0
2, 59824, Note_on_c, 0, 79, 66
2, 59864, Note_on_c, 0, 81, 0
2, 59904, Note_on_c, 0, 74, 0
2, 60020, Note_on_c, 0, 77, 58
2, 60024, Note_on_c, 0, 72, 46
2, 60040, Note_on_c, 0, 70, 25
2, 60052, Note_on_c, 0, 79, 0
2, 60052, Note_on_c, 0, 67, 27
2, 60055, Control_c, 0, 64, 0
2, 60224, Note_on_c, 0, 76, 47
2, 60266, Note_on_c, 0, 77, 0
2, 60428, Note_on_c, 0, 79, 52
2, 60466, Note_on_c, 0, 76, 0
2, 60548, Control_c, 0, 64, 127
2, 60612, Note_on_c, 0, 77, 44
2, 60632, Note_on_c, 0, 79, 0
2, 60808, Note_on_c, 0, 77, 0
2, 60820, Note_on_c, 0, 76, 33
2, 60840, Control_c, 0, 64, 0
2, 61016, Note_on_c, 0, 82, 47
2, 61028, Note_on_c, 0, 76, 0
2, 61132, Control_c, 0, 64, 127
2, 61224, Note_on_c, 0, 81, 61
2, 61330, Note_on_c, 0, 82, 0
2, 61376, Note_on_c, 0, 72, 0
2, 61414, Note_on_c, 0, 79, 69
2, 61448, Note_on_c, 0, 67, 0
2, 61472, Note_on_c, 0, 81, 0
2, 61611, Note_on_c, 0, 73, 59
2, 61612, Note_on_c, 0, 77, 63
2, 61617, Note_on_c, 0, 67, 25
2, 61650, Note_on_c, 0, 79, 0
2, 61808, Control_c, 0, 64, 0
2, 61808, Note_on_c, 0, 76, 52
2, 61858, Note_on_c, 0, 77, 0
2, 62004, Note_on_c, 0, 79, 64
2, 62056, Note_on_c, 0, 76, 0
2, 62176, Control_c, 0, 64, 127
2, 62204, Note_on_c, 0, 77, 49
2, 62226, Note_on_c, 0, 79, 0
2, 62330, Control_c, 0, 64, 0
2, 62382, Note_on_c, 0, 77, 0
2, 62390, Note_on_c, 0, 76, 38
2, 62568, Note_on_c, 0, 76, 0
2, 62573, Note_on_c, 0, 82, 47
2, 62730, Control_c, 0, 64, 127
2, 62772, Note_on_c, 0, 81, 58
2, 62804, Note_on_c, 0, 82, 0
2, 62941, Note_on_c, 0, 73, 0
2, 62954, Note_on_c, 0, 79, 70
2, 63014, Note_on_c, 0, 81, 0
2, 63128, Control_c, 0, 64, 0
2, 63154, Note_on_c, 0, 72, 50
2, 63156, Note_on_c, 0, 77, 57
2, 63162, Note_on_c, 0, 79, 0
2, 63344, Note_on_c, 0, 76, 55
2, 63374, Note_on_c, 0, 77, 0
2, 63539, Note_on_c, 0, 79, 73
2, 63608, Note_on_c, 0, 76, 0
2, 63668, Control_c, 0, 64, 127
2, 63671, Note_on_c, 0, 70, 0
2, 63728, Note_on_c, 0, 77, 69
2, 63752, Note_on_c, 0, 79, 0
2, 63902, Note_on_c, 0, 77, 0
2, 63912, Note_on_c, 0, 76, 56
2, 63928, Note_on_c, 0, 70, 52
2, 63960, Control_c, 0, 64, 0
2, 64032, Note_on_c, 0, 72, 0
2, 64118, Note_on_c, 0, 82, 63
2, 64176, Note_on_c, 0, 76, 0
2, 64316, Note_on_c, 0, 79, 78
2, 64374, Control_c, 0, 64, 127
2, 64382, Note_on_c, 0, 82, 0
2, 64502, Note_on_c, 0, 79, 0
2, 64502, Note_on_c, 0, 76, 63
2, 64535, Note_on_c, 0, 67, 0
2, 64604, Control_c, 0, 64, 0
2, 64700, Note_on_c, 0, 70, 0
2, 64700, Note_on_c, 0, 79, 74
2, 64712, Note_on_c, 0, 65, 25
2, 64712, Note_on_c, 0, 69, 21
2, 64738, Note_on_c, 0, 76, 0
2, 64892, Note_on_c, 0, 77, 57
2, 64946, Note_on_c, 0, 79, 0
2, 65086, Note_on_c, 0, 77, 0
2, 65086, Note_on_c, 0, 76, 42
2, 65276, Note_on_c, 0, 77, 44
2, 65292, Note_on_c, 0, 76, 0
2, 65354, Note_on_c, 0, 69, 0
2, 65382, Note_on_c, 0, 65, 0
2, 65448, Note_on_c, 0, 77, 0
2, 65464, Note_on_c, 0, 76, 44
2, 65658, Note_on_c, 0, 76, 0
2, 65661, Note_on_c, 0, 77, 47
2, 65784, Note_on_c, 0, 55, 39
2, 65790, Note_on_c, 0, 58, 37
2, 65792, Note_on_c, 0, 70, 47
2, 65814, Note_on_c, 0, 77, 0
2, 65826, Note_on_c, 0, 63, 61
2, 65846, Note_on_c, 0, 75, 48
2, 65854, Note_on_c, 0, 67, 77
2, 65868, Note_on_c, 0, 82, 86
2, 65874, Note_on_c, 0, 79, 77
2, 65932, Note_on_c, 0, 70, 0
2, 65934, Note_on_c, 0, 75, 0
2, 65940, Control_c, 0, 64, 127
2, 65988, Note_on_c, 0, 55, 0
2, 66056, Note_on_c, 0, 58, 0
2, 66062, Note_on_c, 0, 63, 0
2, 66074, Note_on_c, 0, 75, 78
2, 66092, Note_on_c, 0, 82, 0
2, 66092, Note_on_c, 0, 79, 0
2, 66095, Note_on_c, 0, 67, 0
2, 66124, Note_on_c, 0, 75, 0
2, 66188, Control_c, 0, 64, 0
2, 66262, Note_on_c, 0, 75, 74
2, 66280, Note_on_c, 0, 69, 36
2, 66290, Note_on_c, 0, 65, 32
2, 66470, Note_on_c, 0, 74, 58
2, 66496, Note_on_c, 0, 75, 0
2, 66644, Note_on_c, 0, 74, 0
2, 66650, Note_on_c, 0, 73, 53
2, 66752, Note_on_c, 0, 69, 0
2, 66858, Note_on_c, 0, 65, 0
2, 66858, Note_on_c, 0, 74, 54
2, 66892, Note_on_c, 0, 73, 0
2, 67038, Note_on_c, 0, 74, 0
2, 67050, Note_on_c, 0, 73, 53
2, 67202, Note_on_c, 0, 73, 0
2, 67224, Note_on_c, 0, 74, 59
2, 67310, Note_on_c, 0, 74, 0
2, 67350, Note_on_c, 0, 51, 44
2, 67352, Note_on_c, 0, 55, 37
2, 67358, Note_on_c, 0, 67, 54
2, 67374, Note_on_c, 0, 60, 44
2, 67402, Note_on_c, 0, 72, 59
2, 67405, Note_on_c, 0, 63, 77
2, 67420, Note_on_c, 0, 67, 0
2, 67426, Note_on_c, 0, 75, 79
2, 67446, Note_on_c, 0, 79, 98
2, 67508, Control_c, 0, 64, 127
2, 67516, Note_on_c, 0, 72, 0
2, 67558, Note_on_c, 0, 51, 0
2, 67558, Note_on_c, 0, 55, 0
2, 67570, Note_on_c, 0, 60, 0
2, 67630, Note_on_c, 0, 79, 0
2, 67660, Note_on_c, 0, 72, 73
2, 67663, Note_on_c, 0, 63, 0
2, 67698, Note_on_c, 0, 75, 0
2, 67716, Note_on_c, 0, 72, 0
2, 67754, Control_c, 0, 64, 0
2, 67852, Note_on_c, 0, 72, 72
2, 67858, Note_on_c, 0, 65, 39
2, 67884, Note_on_c, 0, 62, 30
2, 68034, Note_on_c, 0, 70, 48
2, 68060, Note_on_c, 0, 72, 0
2, 68238, Note_on_c, 0, 69, 42
2, 68246, Note_on_c, 0, 70, 0
2, 68428, Note_on_c, 0, 70, 47
2, 68446, Note_on_c, 0, 69, 0
2, 68608, Note_on_c, 0, 62, 0
2, 68610, Note_on_c, 0, 65, 0
2, 68612, Note_on_c, 0, 70, 0
2, 68628, Note_on_c, 0, 69, 40
2, 68764, Note_on_c, 0, 69, 0
2, 68796, Note_on_c, 0, 70, 44
2, 68878, Note_on_c, 0, 70, 0
2, 68932, Note_on_c, 0, 65, 50
2, 68935, Note_on_c, 0, 50, 52
2, 68954, Control_c, 0, 64, 127
2, 68962, Note_on_c, 0, 53, 63
2, 68984, Control_c, 0, 64, 0
2, 68984, Note_on_c, 0, 70, 45
2, 68992, Note_on_c, 0, 58, 41
2, 69006, Note_on_c, 0, 62, 78
2, 69018, Note_on_c, 0, 74, 76
2, 69021, Note_on_c, 0, 65, 0
2, 69030, Note_on_c, 0, 77, 89
2, 69110, Note_on_c, 0, 70, 0
2, 69128, Note_on_c, 0, 50, 0
2, 69158, Note_on_c, 0, 74, 0
2, 69180, Note_on_c, 0, 62, 0
2, 69180, Note_on_c, 0, 53, 0
2, 69204, Note_on_c, 0, 77, 0
2, 69206, Note_on_c, 0, 70, 58
2, 69209, Note_on_c, 0, 58, 0
2, 69214, Control_c, 0, 64, 127
2, 69244, Control_c, 0, 64, 0
2, 69258, Note_on_c, 0, 70, 0
2, 69400, Note_on_c, 0, 69, 72
2, 69406, Note_on_c, 0, 60, 66
2, 69406, Note_on_c, 0, 51, 34
2, 69408, Note_on_c, 0, 53, 44
2, 69412, Note_on_c, 0, 57, 38
2, 69480, Note_on_c, 0, 53, 0
2, 69506, Control_c, 0, 64, 127
2, 69516, Note_on_c, 0, 79, 76
2, 69530, Note_on_c, 0, 60, 0
2, 69530, Note_on_c, 0, 69, 0
2, 69590, Note_on_c, 0, 57, 0
2, 69610, Note_on_c, 0, 77, 68
2, 69622, Note_on_c, 0, 51, 0
2, 69628, Control_c, 0, 64, 0
2, 69644, Note_on_c, 0, 79, 0
2, 69704, Note_on_c, 0, 75, 60
2, 69707, Note_on_c, 0, 77, 0
2, 69782, Note_on_c, 0, 74, 74
2, 69824, Note_on_c, 0, 74, 0
2, 69842, Note_on_c, 0, 75, 0
2, 69874, Note_on_c, 0, 72, 58
2, 69960, Note_on_c, 0, 72, 0
2, 69968, Note_on_c, 0, 70, 58
2, 70072, Note_on_c, 0, 69, 60
2, 70075, Note_on_c, 0, 70, 0
2, 70156, Note_on_c, 0, 58, 40
2, 70160, Note_on_c, 0, 62, 56
2, 70168, Note_on_c, 0, 70, 64
2, 70170, Note_on_c, 0, 69, 0
2, 70176, Note_on_c, 0, 53, 68
2, 70176, Note_on_c, 0, 50, 42
2, 70274, Note_on_c, 0, 70, 0
2, 70290, Note_on_c, 0, 77, 73
2, 70290, Control_c, 0, 64, 127
2, 70308, Note_on_c, 0, 62, 0
2, 70360, Note_on_c, 0, 53, 0
2, 70366, Control_c, 0, 64, 0
2, 70370, Note_on_c, 0, 50, 0
2, 70372, Note_on_c, 0, 79, 89
2, 70378, Note_on_c, 0, 58, 0
2, 70400, Note_on_c, 0, 77, 0
2, 70466, Note_on_c, 0, 77, 74
2, 70522, Note_on_c, 0, 79, 0
2, 70566, Note_on_c, 0, 75, 67
2, 70608, Note_on_c, 0, 77, 0
2, 70648, Note_on_c, 0, 74, 72
2, 70690, Note_on_c, 0, 74, 0
2, 70716, Note_on_c, 0, 75, 0
2, 70734, Note_on_c, 0, 72, 65
2, 70812, Note_on_c, 0, 72, 0
2, 70818, Note_on_c, 0, 70, 65
2, 70912, Note_on_c, 0, 60, 57
2, 70922, Note_on_c, 0, 70, 0
2, 70922, Note_on_c, 0, 57, 49
2, 70926, Note_on_c, 0, 69, 59
2, 70926, Note_on_c, 0, 51, 48
2, 70926, Note_on_c, 0, 53, 75
2, 70996, Note_on_c, 0, 69, 0
2, 71014, Note_on_c, 0, 79, 85
2, 71028, Control_c, 0, 64, 127
2, 71080, Note_on_c, 0, 60, 0
2, 71098, Note_on_c, 0, 53, 0
2, 71108, Note_on_c, 0, 77, 72
2, 71120, Note_on_c, 0, 57, 0
2, 71134, Note_on_c, 0, 51, 0
2, 71137, Note_on_c, 0, 79, 0
2, 71196, Control_c, 0, 64, 0
2, 71202, Note_on_c, 0, 75, 73
2, 71230, Note_on_c, 0, 77, 0
2, 71296, Note_on_c, 0, 74, 77
2, 71358, Note_on_c, 0, 75, 0
2, 71388, Note_on_c, 0, 72, 60
2, 71396, Note_on_c, 0, 74, 0
2, 71476, Note_on_c, 0, 70, 67
2, 71518, Note_on_c, 0, 72, 0
2, 71568, Note_on_c, 0, 69, 69
2, 71596, Note_on_c, 0, 70, 0
2, 71668, Note_on_c, 0, 70, 63
2, 71682, Note_on_c, 0, 62, 60
2, 71688, Note_on_c, 0, 58, 41
2, 71702, Note_on_c, 0, 50, 52
2, 71706, Note_on_c, 0, 69, 0
2, 71716, Note_on_c, 0, 53, 75
2, 71764, Note_on_c, 0, 70, 0
2, 71772, Note_on_c, 0, 72, 76
2, 71796, Note_on_c, 0, 62, 0
2, 71796, Control_c, 0, 64, 127
2, 71844, Note_on_c, 0, 50, 0
2, 71847, Note_on_c, 0, 53, 0
2, 71854, Note_on_c, 0, 58, 0
2, 71872, Note_on_c, 0, 74, 85
2, 71898, Note_on_c, 0, 72, 0
2, 71934, Control_c, 0, 64, 0
2, 71958, Note_on_c, 0, 75, 81
2, 71982, Note_on_c, 0, 74, 0
2, 72018, Note_on_c, 0, 75, 0
2, 72062, Note_on_c, 0, 77, 81
2, 72142, Note_on_c, 0, 79, 92
2, 72192, Note_on_c, 0, 77, 0
2, 72240, Note_on_c, 0, 81, 84
2, 72274, Note_on_c, 0, 79, 0
2, 72338, Note_on_c, 0, 82, 76
2, 72348, Note_on_c, 0, 81, 0
2, 72456, Note_on_c, 0, 80, 90
2, 72462, Note_on_c, 0, 82, 0
2, 72472, Control_c, 0, 64, 127
2, 72472, Note_on_c, 0, 58, 42
2, 72478, Note_on_c, 0, 62, 59
2, 72480, Note_on_c, 0, 53, 71
2, 72481, Note_on_c, 0, 56, 44
2, 72484, Note_on_c, 0, 50, 46
2, 72580, Note_on_c, 0, 82, 81
2, 72654, Note_on_c, 0, 80, 0
2, 72692, Note_on_c, 0, 84, 89
2, 72722, Note_on_c, 0, 82, 0
2, 72788, Note_on_c, 0, 82, 64
2, 72878, Note_on_c, 0, 84, 0
2, 72884, Note_on_c, 0, 80, 79
2, 72946, Note_on_c, 0, 82, 0
2, 72980, Note_on_c, 0, 79, 85
2, 73040, Note_on_c, 0, 80, 0
2, 73066, Note_on_c, 0, 79, 0
2, 73072, Note_on_c, 0, 77, 67
2, 73162, Note_on_c, 0, 75, 58
2, 73198, Note_on_c, 0, 77, 0
2, 73222, Note_on_c, 0, 75, 0
2, 73236, Note_on_c, 0, 74, 76
2, 73336, Note_on_c, 0, 75, 62
2, 73350, Note_on_c, 0, 74, 0
2, 73424, Note_on_c, 0, 77, 69
2, 73448, Note_on_c, 0, 75, 0
2, 73514, Note_on_c, 0, 75, 64
2, 73550, Note_on_c, 0, 77, 0
2, 73616, Note_on_c, 0, 74, 69
2, 73658, Note_on_c, 0, 75, 0
2, 73660, Note_on_c, 0, 50, 0
2, 73668, Note_on_c, 0, 62, 0
2, 73672, Note_on_c, 0, 74, 0
2, 73710, Note_on_c, 0, 72, 50
2, 73722, Note_on_c, 0, 56, 0
2, 73725, Note_on_c, 0, 58, 0
2, 73740, Note_on_c, 0, 53, 0
2, 73792, Note_on_c, 0, 70, 58
2, 73806, Note_on_c, 0, 72, 0
2, 73898, Note_on_c, 0, 68, 60
2, 73940, Note_on_c, 0, 70, 0
2, 73992, Control_c, 0, 64, 0
2, 74038, Note_on_c, 0, 68, 0
2, 74048, Note_on_c, 0, 63, 33
2, 74056, Note_on_c, 0, 67, 62
2, 74064, Note_on_c, 0, 58, 24
2, 74076, Note_on_c, 0, 51, 21
2, 74082, Note_on_c, 0, 55, 22
2, 74216, Note_on_c, 0, 67, 0
2, 74256, Note_on_c, 0, 79, 71
2, 74312, Note_on_c, 0, 79, 0
2, 74444, Note_on_c, 0, 78, 68
2, 74504, Note_on_c, 0, 78, 0
2, 74630, Note_on_c, 0, 81, 67
2, 74680, Note_on_c, 0, 81, 0
2, 74822, Note_on_c, 0, 79, 67
2, 74858, Note_on_c, 0, 55, 0
2, 74872, Note_on_c, 0, 79, 0
2, 74886, Note_on_c, 0, 58, 0
2, 74900, Note_on_c, 0, 63, 0
2, 74932, Note_on_c, 0, 51, 0
2, 74994, Note_on_c, 0, 82, 50
2, 75052, Note_on_c, 0, 82, 0
2, 75200, Note_on_c, 0, 78, 51
2, 75254, Note_on_c, 0, 78, 0
2, 75402, Note_on_c, 0, 81, 51
2, 75456, Note_on_c, 0, 81, 0
2, 75584, Note_on_c, 0, 79, 74
2, 75636, Note_on_c, 0, 79, 0
2, 75764, Note_on_c, 0, 82, 54
2, 75830, Note_on_c, 0, 82, 0
2, 75950, Note_on_c, 0, 78, 70
2, 75954, Note_on_c, 0, 66, 50
2, 76008, Note_on_c, 0, 66, 0
2, 76040, Note_on_c, 0, 78, 0
2, 76144, Note_on_c, 0, 81, 76
2, 76154, Note_on_c, 0, 69, 49
2, 76220, Note_on_c, 0, 69, 0
2, 76236, Note_on_c, 0, 81, 0
2, 76328, Note_on_c, 0, 79, 86
2, 76340, Note_on_c, 0, 67, 69
2, 76392, Note_on_c, 0, 67, 0
2, 76412, Note_on_c, 0, 79, 0
2, 76516, Note_on_c, 0, 82, 65
2, 76524, Note_on_c, 0, 70, 50
2, 76618, Note_on_c, 0, 70, 0
2, 76644, Note_on_c, 0, 82, 0
2, 76728, Note_on_c, 0, 79, 73
2, 76740, Note_on_c, 0, 67, 51
2, 76848, Note_on_c, 0, 67, 0
2, 76870, Note_on_c, 0, 75, 50
2, 76878, Note_on_c, 0, 79, 0
2, 76882, Note_on_c, 0, 63, 57
2, 76942, Control_c, 0, 64, 127
2, 76992, Note_on_c, 0, 63, 0
2, 77006, Note_on_c, 0, 75, 0
2, 77006, Note_on_c, 0, 72, 67
2, 77026, Note_on_c, 0, 60, 41
2, 77090, Note_on_c, 0, 60, 0
2, 77182, Note_on_c, 0, 70, 72
2, 77224, Note_on_c, 0, 53, 68
2, 77229, Note_on_c, 0, 62, 48
2, 77284, Note_on_c, 0, 72, 0
2, 77388, Control_c, 0, 64, 0
2, 77696, Control_c, 0, 64, 127
2, 77744, Note_on_c, 0, 70, 0
2, 77746, Note_on_c, 0, 72, 55
2, 77802, Note_on_c, 0, 70, 62
2, 77805, Note_on_c, 0, 72, 0
2, 77864, Note_on_c, 0, 70, 0
2, 77866, Note_on_c, 0, 69, 61
2, 77932, Note_on_c, 0, 69, 0
2, 77942, Note_on_c, 0, 70, 62
2, 77972, Control_c, 0, 64, 0
2, 78046, Note_on_c, 0, 74, 86
2, 78048, Note_on_c, 0, 62, 0
2, 78060, Note_on_c, 0, 63, 51
2, 78068, Note_on_c, 0, 69, 48
2, 78084, Note_on_c, 0, 70, 0
2, 78632, Control_c, 0, 64, 127
2, 78686, Note_on_c, 0, 72, 61
2, 78712, Note_on_c, 0, 74, 0
2, 78850, Note_on_c, 0, 63, 0
2, 78878, Control_c, 0, 64, 0
2, 78942, Note_on_c, 0, 58, 25
2, 78944, Note_on_c, 0, 70, 56
2, 78944, Note_on_c, 0, 62, 35
2, 78958, Note_on_c, 0, 69, 0
2, 78990, Note_on_c, 0, 53, 0
2, 78996, Note_on_c, 0, 72, 0
2, 79232, Control_c, 0, 64, 127
2, 79258, Note_on_c, 0, 62, 0
2, 79274, Note_on_c, 0, 70, 0
2, 79280, Note_on_c, 0, 58, 0
2, 79386, Control_c, 0, 64, 0
2, 79698, Note_on_c, 0, 89, 44
2, 79750, Note_on_c, 0, 74, 47
2, 79756, Note_on_c, 0, 86, 59
2, 79762, Note_on_c, 0, 89, 0
2, 79768, Note_on_c, 0, 70, 28
2, 79806, Note_on_c, 0, 74, 0
2, 79812, Note_on_c, 0, 86, 0
2, 79832, Note_on_c, 0, 70, 0
2, 80066, Note_on_c, 0, 89, 52
2, 80118, Note_on_c, 0, 72, 35
2, 80124, Note_on_c, 0, 65, 39
2, 80128, Note_on_c, 0, 89, 0
2, 80132, Note_on_c, 0, 84, 66
2, 80182, Note_on_c, 0, 65, 0
2, 80194, Note_on_c, 0, 84, 0
2, 80194, Note_on_c, 0, 72, 0
2, 80434, Note_on_c, 0, 89, 51
2, 80486, Note_on_c, 0, 70, 36
2, 80494, Note_on_c, 0, 82, 61
2, 80514, Note_on_c, 0, 62, 28
2, 80530, Note_on_c, 0, 89, 0
2, 80624, Note_on_c, 0, 82, 0
2, 80646, Note_on_c, 0, 70, 0
2, 80662, Note_on_c, 0, 62, 0
2, 80816, Note_on_c, 0, 89, 48
2, 80874, Note_on_c, 0, 89, 0
2, 80898, Note_on_c, 0, 77, 58
2, 80962, Note_on_c, 0, 77, 0
2, 81202, Note_on_c, 0, 89, 48
2, 81264, Note_on_c, 0, 74, 47
2, 81268, Note_on_c, 0, 86, 68
2, 81274, Note_on_c, 0, 70, 32
2, 81282, Note_on_c, 0, 89, 0
2, 81332, Note_on_c, 0, 86, 0
2, 81335, Note_on_c, 0, 74, 0
2, 81350, Note_on_c, 0, 70, 0
2, 81590, Note_on_c, 0, 89, 54
2, 81654, Note_on_c, 0, 72, 43
2, 81660, Note_on_c, 0, 84, 71
2, 81666, Note_on_c, 0, 65, 31
2, 81669, Note_on_c, 0, 89, 0
2, 81726, Note_on_c, 0, 72, 0
2, 81734, Note_on_c, 0, 84, 0
2, 81748, Note_on_c, 0, 65, 0
2, 81968, Note_on_c, 0, 89, 46
2, 82020, Note_on_c, 0, 70, 36
2, 82034, Note_on_c, 0, 62, 31
2, 82040, Note_on_c, 0, 82, 50
2, 82098, Note_on_c, 0, 89, 0
2, 82140, Note_on_c, 0, 82, 0
2, 82168, Note_on_c, 0, 62, 0
2, 82180, Note_on_c, 0, 70, 0
2, 82342, Note_on_c, 0, 89, 49
2, 82396, Note_on_c, 0, 89, 0
2, 82428, Note_on_c, 0, 77, 56
2, 82492, Note_on_c, 0, 77, 0
2, 82722, Note_on_c, 0, 89, 52
2, 82796, Note_on_c, 0, 70, 32
2, 82800, Note_on_c, 0, 89, 0
2, 82800, Note_on_c, 0, 80, 55
2, 82812, Note_on_c, 0, 62, 33
2, 82886, Note_on_c, 0, 62, 0
2, 82892, Note_on_c, 0, 80, 0
2, 82892, Note_on_c, 0, 70, 0
2, 83100, Note_on_c, 0, 89, 44
2, 83154, Note_on_c, 0, 78, 67
2, 83168, Note_on_c, 0, 89, 0
2, 83174, Note_on_c, 0, 70, 29
2, 83176, Note_on_c, 0, 62, 46
2, 83242, Note_on_c, 0, 62, 0
2, 83248, Note_on_c, 0, 70, 0
2, 83262, Note_on_c, 0, 78, 0
2, 83436, Note_on_c, 0, 89, 56
2, 83492, Note_on_c, 0, 89, 0
2, 83524, Note_on_c, 0, 79, 72
2, 83548, Note_on_c, 0, 70, 29
2, 83550, Note_on_c, 0, 63, 41
2, 83598, Note_on_c, 0, 79, 0
2, 83814, Note_on_c, 0, 83, 79
2, 83860, Note_on_c, 0, 83, 0
2, 83860, Note_on_c, 0, 70, 0
2, 83892, Note_on_c, 0, 84, 83
2, 83910, Note_on_c, 0, 67, 60
2, 83996, Note_on_c, 0, 84, 0
2, 84170, Note_on_c, 0, 86, 56
2, 84254, Note_on_c, 0, 87, 70
2, 84282, Note_on_c, 0, 67, 0
2, 84282, Note_on_c, 0, 72, 64
2, 84285, Note_on_c, 0, 86, 0
2, 84360, Note_on_c, 0, 87, 0
2, 84556, Note_on_c, 0, 63, 0
2, 84568, Note_on_c, 0, 86, 54
2, 84620, Note_on_c, 0, 86, 0
2, 84632, Note_on_c, 0, 64, 49
2, 84648, Note_on_c, 0, 84, 65
2, 84738, Note_on_c, 0, 84, 0
2, 84920, Note_on_c, 0, 82, 48
2, 84994, Note_on_c, 0, 64, 0
2, 85002, Note_on_c, 0, 81, 79
2, 85006, Note_on_c, 0, 65, 37
2, 85050, Note_on_c, 0, 82, 0
2, 85058, Note_on_c, 0, 81, 0
2, 85280, Note_on_c, 0, 79, 51
2, 85334, Note_on_c, 0, 79, 0
2, 85354, Note_on_c, 0, 65, 0
2, 85356, Note_on_c, 0, 77, 59
2, 85362, Note_on_c, 0, 67, 34
2, 85450, Note_on_c, 0, 72, 0
2, 85482, Note_on_c, 0, 77, 0
2, 85620, Note_on_c, 0, 76, 40
2, 85688, Note_on_c, 0, 76, 0
2, 85702, Note_on_c, 0, 67, 0
2, 85712, Note_on_c, 0, 77, 62
2, 85718, Note_on_c, 0, 69, 25
2, 85794, Note_on_c, 0, 77, 0
2, 85830, Note_on_c, 0, 69, 0
2, 85990, Note_on_c, 0, 79, 38
2, 86064, Note_on_c, 0, 79, 0
2, 86078, Note_on_c, 0, 77, 42
2, 86078, Note_on_c, 0, 65, 20
2, 86092, Note_on_c, 0, 57, 23
2, 86142, Note_on_c, 0, 77, 0
2, 86334, Note_on_c, 0, 75, 38
2, 86368, Note_on_c, 0, 57, 0
2, 86390, Note_on_c, 0, 75, 0
2, 86426, Note_on_c, 0, 65, 0
2, 86476, Note_on_c, 0, 73, 71
2, 86484, Note_on_c, 0, 58, 39
2, 86492, Note_on_c, 0, 61, 41
2, 86544, Control_c, 0, 64, 127
2, 86568, Note_on_c, 0, 75, 69
2, 86594, Note_on_c, 0, 73, 0
2, 86602, Note_on_c, 0, 61, 0
2, 86616, Note_on_c, 0, 58, 0
2, 86622, Control_c, 0, 64, 0
2, 86650, Note_on_c, 0, 65, 39
2, 86658, Note_on_c, 0, 73, 61
2, 86694, Note_on_c, 0, 75, 0
2, 86762, Note_on_c, 0, 72, 61
2, 86786, Note_on_c, 0, 73, 0
2, 86786, Note_on_c, 0, 65, 0
2, 86810, Note_on_c, 0, 61, 48
2, 86816, Note_on_c, 0, 58, 36
2, 86820, Note_on_c, 0, 70, 70
2, 86830, Note_on_c, 0, 72, 0
2, 86876, Note_on_c, 0, 70, 0
2, 87010, Note_on_c, 0, 70, 74
2, 87020, Note_on_c, 0, 65, 43
2, 87088, Note_on_c, 0, 70, 0
2, 87122, Note_on_c, 0, 61, 0
2, 87204, Note_on_c, 0, 65, 0
2, 87204, Note_on_c, 0, 75, 84
2, 87212, Note_on_c, 0, 58, 0
2, 87216, Note_on_c, 0, 57, 52
2, 87224, Note_on_c, 0, 60, 56
2, 87288, Note_on_c, 0, 77, 83
2, 87314, Note_on_c, 0, 75, 0
2, 87372, Note_on_c, 0, 75, 76
2, 87406, Control_c, 0, 64, 127
2, 87409, Note_on_c, 0, 65, 46
2, 87426, Note_on_c, 0, 77, 0
2, 87442, Note_on_c, 0, 57, 0
2, 87456, Note_on_c, 0, 60, 0
2, 87476, Note_on_c, 0, 73, 71
2, 87514, Control_c, 0, 64, 0
2, 87532, Note_on_c, 0, 75, 0
2, 87564, Note_on_c, 0, 72, 87
2, 87594, Note_on_c, 0, 65, 0
2, 87598, Note_on_c, 0, 60, 49
2, 87604, Note_on_c, 0, 73, 0
2, 87604, Note_on_c, 0, 57, 51
2, 87640, Note_on_c, 0, 72, 0
2, 87772, Note_on_c, 0, 72, 82
2, 87790, Note_on_c, 0, 65, 52
2, 87798, Note_on_c, 0, 60, 0
2, 87820, Note_on_c, 0, 72, 0
2, 87948, Note_on_c, 0, 57, 0
2, 87968, Note_on_c, 0, 65, 0
2, 87968, Note_on_c, 0, 58, 39
2, 87971, Note_on_c, 0, 73, 57
2, 87986, Note_on_c, 0, 61, 39
2, 88026, Note_on_c, 0, 73, 0
2, 88052, Note_on_c, 0, 75, 45
2, 88132, Note_on_c, 0, 73, 41
2, 88136, Note_on_c, 0, 75, 0
2, 88156, Note_on_c, 0, 65, 35
2, 88159, Note_on_c, 0, 61, 0
2, 88204, Control_c, 0, 64, 127
2, 88216, Note_on_c, 0, 58, 0
2, 88248, Note_on_c, 0, 73, 0
2, 88254, Note_on_c, 0, 72, 42
2, 88298, Control_c, 0, 64, 0
2, 88316, Note_on_c, 0, 72, 0
2, 88316, Note_on_c, 0, 70, 48
2, 88326, Note_on_c, 0, 65, 0
2, 88338, Note_on_c, 0, 58, 21
2, 88344, Note_on_c, 0, 61, 34
2, 88376, Note_on_c, 0, 70, 0
2, 88534, Note_on_c, 0, 70, 47
2, 88546, Note_on_c, 0, 65, 37
2, 88588, Note_on_c, 0, 70, 0
2, 88600, Note_on_c, 0, 61, 0
2, 88680, Note_on_c, 0, 58, 0
2, 88720, Note_on_c, 0, 65, 0
2, 88723, Note_on_c, 0, 75, 52
2, 88738, Note_on_c, 0, 57, 29
2, 88766, Note_on_c, 0, 60, 38
2, 88778, Note_on_c, 0, 75, 0
2, 88812, Note_on_c, 0, 77, 48
2, 88876, Note_on_c, 0, 75, 32
2, 88882, Note_on_c, 0, 77, 0
2, 88928, Note_on_c, 0, 57, 0
2, 88930, Note_on_c, 0, 65, 27
2, 88956, Note_on_c, 0, 60, 0
2, 88972, Note_on_c, 0, 73, 42
2, 88990, Note_on_c, 0, 75, 0
2, 89046, Note_on_c, 0, 73, 0
2, 89066, Note_on_c, 0, 65, 0
2, 89080, Note_on_c, 0, 72, 57
2, 89092, Note_on_c, 0, 57, 23
2, 89134, Note_on_c, 0, 72, 0
2, 89146, Note_on_c, 0, 60, 19
2, 89194, Note_on_c, 0, 57, 0
2, 89250, Note_on_c, 0, 60, 0
2, 89294, Note_on_c, 0, 72, 49
2, 89350, Note_on_c, 0, 72, 0
2, 89480, Note_on_c, 0, 73, 57
2, 89498, Note_on_c, 0, 61, 47
2, 89500, Note_on_c, 0, 49, 47
2, 89542, Note_on_c, 0, 73, 0
2, 89542, Control_c, 0, 64, 127
2, 89566, Note_on_c, 0, 75, 55
2, 89638, Note_on_c, 0, 61, 0
2, 89686, Note_on_c, 0, 75, 0
2, 89690, Note_on_c, 0, 49, 0
2, 89690, Note_on_c, 0, 73, 47
2, 89756, Note_on_c, 0, 73, 0
2, 89770, Note_on_c, 0, 72, 51
2, 89788, Control_c, 0, 64, 0
2, 89844, Note_on_c, 0, 72, 0
2, 89864, Note_on_c, 0, 70, 66
2, 89868, Note_on_c, 0, 58, 65
2, 89870, Note_on_c, 0, 46, 73
2, 89952, Note_on_c, 0, 72, 54
2, 89972, Note_on_c, 0, 70, 0
2, 90030, Note_on_c, 0, 70, 64
2, 90036, Note_on_c, 0, 58, 0
2, 90048, Control_c, 0, 64, 127
2, 90092, Note_on_c, 0, 72, 0
2, 90102, Note_on_c, 0, 46, 0
2, 90148, Note_on_c, 0, 68, 67
2, 90156, Control_c, 0, 64, 0
2, 90178, Note_on_c, 0, 70, 0
2, 90222, Note_on_c, 0, 54, 93
2, 90228, Note_on_c, 0, 42, 84
2, 90242, Note_on_c, 0, 66, 71
2, 90256, Note_on_c, 0, 68, 0
2, 90316, Note_on_c, 0, 68, 73
2, 90342, Note_on_c, 0, 66, 0
2, 90404, Note_on_c, 0, 66, 70
2, 90418, Note_on_c, 0, 54, 0
2, 90418, Control_c, 0, 64, 127
2, 90448, Note_on_c, 0, 68, 0
2, 90472, Note_on_c, 0, 42, 0
2, 90494, Control_c, 0, 64, 0
2, 90500, Note_on_c, 0, 65, 60
2, 90512, Note_on_c, 0, 66, 0
2, 90578, Note_on_c, 0, 51, 90
2, 90586, Note_on_c, 0, 39, 86
2, 90590, Note_on_c, 0, 63, 84
2, 90608, Note_on_c, 0, 65, 0
2, 90676, Note_on_c, 0, 65, 79
2, 90694, Note_on_c, 0, 63, 0
2, 90728, Note_on_c, 0, 51, 0
2, 90740, Control_c, 0, 64, 127
2, 90764, Note_on_c, 0, 63, 80
2, 90772, Note_on_c, 0, 39, 0
2, 90802, Note_on_c, 0, 65, 0
2, 90850, Note_on_c, 0, 61, 74
2, 90864, Control_c, 0, 64, 0
2, 90894, Note_on_c, 0, 63, 0
2, 90958, Note_on_c, 0, 61, 0
2, 90972, Note_on_c, 0, 60, 75
2, 90978, Note_on_c, 0, 48, 88
2, 90980, Note_on_c, 0, 36, 90
2, 91087, Note_on_c, 0, 61, 62
2, 91132, Note_on_c, 0, 60, 0
2, 91180, Note_on_c, 0, 63, 69
2, 91183, Note_on_c, 0, 61, 0
2, 91258, Note_on_c, 0, 61, 61
2, 91312, Note_on_c, 0, 63, 0
2, 91370, Control_c, 0, 64, 127
2, 91376, Note_on_c, 0, 60, 59
2, 91378, Note_on_c, 0, 61, 0
2, 91456, Note_on_c, 0, 48, 0
2, 91462, Note_on_c, 0, 61, 43
2, 91488, Note_on_c, 0, 60, 0
2, 91562, Note_on_c, 0, 63, 62
2, 91576, Note_on_c, 0, 61, 0
2, 91652, Note_on_c, 0, 61, 54
2, 91698, Note_on_c, 0, 63, 0
2, 91698, Note_on_c, 0, 36, 0
2, 91738, Control_c, 0, 64, 0
2, 91740, Note_on_c, 0, 46, 76
2, 91748, Note_on_c, 0, 34, 79
2, 91766, Note_on_c, 0, 61, 0
2, 91766, Note_on_c, 0, 60, 71
2, 91852, Note_on_c, 0, 61, 58
2, 91901, Note_on_c, 0, 60, 0
2, 91936, Note_on_c, 0, 63, 65
2, 91958, Note_on_c, 0, 61, 0
2, 92024, Note_on_c, 0, 61, 70
2, 92070, Note_on_c, 0, 63, 0
2, 92126, Note_on_c, 0, 60, 58
2, 92142, Note_on_c, 0, 61, 0
2, 92210, Note_on_c, 0, 61, 62
2, 92254, Note_on_c, 0, 60, 0
2, 92260, Control_c, 0, 64, 127
2, 92318, Note_on_c, 0, 63, 58
2, 92328, Note_on_c, 0, 61, 0
2, 92396, Note_on_c, 0, 61, 64
2, 92416, Note_on_c, 0, 46, 0
2, 92419, Note_on_c, 0, 63, 0
2, 92446, Control_c, 0, 64, 0
2, 92498, Note_on_c, 0, 61, 0
2, 92498, Note_on_c, 0, 45, 67
2, 92504, Note_on_c, 0, 60, 62
2, 92506, Note_on_c, 0, 33, 74
2, 92532, Note_on_c, 0, 34, 0
2, 92582, Note_on_c, 0, 61, 55
2, 92628, Note_on_c, 0, 60, 0
2, 92682, Note_on_c, 0, 63, 60
2, 92696, Note_on_c, 0, 61, 0
2, 92772, Note_on_c, 0, 61, 55
2, 92810, Note_on_c, 0, 63, 0
2, 92860, Note_on_c, 0, 61, 0
2, 92876, Note_on_c, 0, 60, 52
2, 92952, Control_c, 0, 64, 127
2, 92958, Note_on_c, 0, 61, 44
2, 92961, Note_on_c, 0, 45, 0
2, 93000, Note_on_c, 0, 60, 0
2, 93070, Note_on_c, 0, 63, 51
2, 93076, Note_on_c, 0, 61, 0
2, 93154, Note_on_c, 0, 61, 50
2, 93156, Note_on_c, 0, 63, 0
2, 93230, Control_c, 0, 64, 0
2, 93256, Note_on_c, 0, 61, 0
2, 93270, Note_on_c, 0, 60, 50
2, 93272, Note_on_c, 0, 42, 61
2, 93272, Note_on_c, 0, 30, 59
2, 93282, Note_on_c, 0, 33, 0
2, 93346, Note_on_c, 0, 61, 44
2, 93376, Note_on_c, 0, 60, 0
2, 93452, Note_on_c, 0, 63, 55
2, 93468, Note_on_c, 0, 61, 0
2, 93544, Note_on_c, 0, 61, 54
2, 93580, Note_on_c, 0, 63, 0
2, 93652, Note_on_c, 0, 61, 0
2, 93662, Note_on_c, 0, 60, 43
2, 93734, Note_on_c, 0, 61, 46
2, 93737, Control_c, 0, 64, 127
2, 93766, Note_on_c, 0, 60, 0
2, 93854, Note_on_c, 0, 61, 0
2, 93857, Note_on_c, 0, 63, 47
2, 93932, Note_on_c, 0, 61, 50
2, 93934, Note_on_c, 0, 63, 0
2, 93936, Control_c, 0, 64, 0
2, 93950, Note_on_c, 0, 42, 0
2, 94052, Note_on_c, 0, 61, 0
2, 94062, Note_on_c, 0, 60, 47
2, 94068, Note_on_c, 0, 30, 0
2, 94068, Note_on_c, 0, 29, 42
2, 94068, Note_on_c, 0, 41, 49
2, 94166, Note_on_c, 0, 60, 0
2, 94168, Note_on_c, 0, 62, 36
2, 94226, Note_on_c, 0, 62, 0
2, 94240, Note_on_c, 0, 63, 49
2, 94328, Note_on_c, 0, 62, 32
2, 94362, Note_on_c, 0, 63, 0
2, 94410, Note_on_c, 0, 62, 0
2, 94442, Note_on_c, 0, 60, 44
2, 94524, Note_on_c, 0, 62, 34
2, 94527, Note_on_c, 0, 60, 0
2, 94604, Note_on_c, 0, 62, 0
2, 94618, Note_on_c, 0, 63, 51
2, 94712, Note_on_c, 0, 63, 0
2, 94716, Note_on_c, 0, 62, 38
2, 94794, Note_on_c, 0, 62, 0
2, 94824, Note_on_c, 0, 60, 48
2, 94902, Note_on_c, 0, 60, 0
2, 94902, Note_on_c, 0, 62, 39
2, 94972, Note_on_c, 0, 62, 0
2, 95000, Note_on_c, 0, 63, 36
2, 95074, Note_on_c, 0, 62, 41
2, 95076, Note_on_c, 0, 63, 0
2, 95150, Note_on_c, 0, 62, 0
2, 95186, Note_on_c, 0, 60, 34
2, 95252, Note_on_c, 0, 62, 39
2, 95264, Note_on_c, 0, 60, 0
2, 95324, Note_on_c, 0, 62, 0
2, 95352, Note_on_c, 0, 63, 43
2, 95430, Note_on_c, 0, 62, 34
2, 95433, Note_on_c, 0, 63, 0
2, 95506, Note_on_c, 0, 62, 0
2, 95530, Note_on_c, 0, 60, 47
2, 95604, Note_on_c, 0, 62, 46
2, 95616, Note_on_c, 0, 60, 0
2, 95680, Note_on_c, 0, 62, 0
2, 95694, Note_on_c, 0, 63, 60
2, 95786, Note_on_c, 0, 62, 50
2, 95802, Note_on_c, 0, 63, 0
2, 95826, Control_c, 0, 64, 127
2, 95856, Control_c, 0, 64, 0
2, 95884, Note_on_c, 0, 62, 0
2, 95886, Note_on_c, 0, 60, 59
2, 95960, Note_on_c, 0, 62, 67
2, 95974, Note_on_c, 0, 60, 0
2, 96056, Note_on_c, 0, 63, 77
2, 96068, Note_on_c, 0, 62, 0
2, 96140, Note_on_c, 0, 62, 77
2, 96172, Note_on_c, 0, 63, 0
2, 96238, Note_on_c, 0, 62, 0
2, 96241, Note_on_c, 0, 60, 73
2, 96308, Note_on_c, 0, 62, 65
2, 96348, Control_c, 0, 64, 127
2, 96358, Note_on_c, 0, 29, 0
2, 96362, Note_on_c, 0, 60, 0
2, 96374, Note_on_c, 0, 41, 0
2, 96398, Note_on_c, 0, 63, 85
2, 96438, Note_on_c, 0, 62, 0
2, 96500, Note_on_c, 0, 65, 67
2, 96534, Note_on_c, 0, 63, 0
2, 96542, Note_on_c, 0, 65, 0
2, 96580, Note_on_c, 0, 67, 91
2, 96594, Control_c, 0, 64, 0
2, 96670, Note_on_c, 0, 69, 85
2, 96706, Note_on_c, 0, 67, 0
2, 96756, Note_on_c, 0, 70, 70
2, 96820, Note_on_c, 0, 69, 0
2, 96834, Note_on_c, 0, 72, 87
2, 96900, Note_on_c, 0, 70, 0
2, 96936, Note_on_c, 0, 74, 107
2, 96936, Note_on_c, 0, 65, 92
2, 96944, Note_on_c, 0, 70, 91
2, 96944, Note_on_c, 0, 58, 72
2, 96948, Note_on_c, 0, 62, 82
2, 96978, Note_on_c, 0, 72, 0
2, 97270, Control_c, 0, 64, 127
2, 97364, Note_on_c, 0, 65, 0
2, 97390, Note_on_c, 0, 70, 0
2, 97420, Note_on_c, 0, 74, 0
2, 97426, Note_on_c, 0, 62, 0
2, 97540, Note_on_c, 0, 58, 0
2, 97700, Note_on_c, 0, 57, 65
2, 97712, Note_on_c, 0, 65, 76
2, 97714, Note_on_c, 0, 60, 69
2, 97718, Note_on_c, 0, 77, 104
2, 97722, Note_on_c, 0, 72, 81
2, 97838, Control_c, 0, 64, 0
2, 98116, Control_c, 0, 64, 127
2, 98160, Note_on_c, 0, 72, 0
2, 98176, Note_on_c, 0, 57, 0
2, 98184, Note_on_c, 0, 60, 0
2, 98332, Note_on_c, 0, 65, 0
2, 98394, Note_on_c, 0, 55, 61
2, 98420, Note_on_c, 0, 58, 40
2, 98456, Note_on_c, 0, 70, 58
2, 98486, Note_on_c, 0, 63, 66
2, 98500, Control_c, 0, 64, 0
2, 98524, Note_on_c, 0, 75, 57
2, 98534, Note_on_c, 0, 82, 95
2, 98560, Note_on_c, 0, 77, 0
2, 99038, Control_c, 0, 64, 127
2, 99252, Note_on_c, 0, 63, 0
2, 99257, Note_on_c, 0, 70, 0
2, 99262, Note_on_c, 0, 55, 0
2, 99288, Note_on_c, 0, 75, 0
2, 99308, Note_on_c, 0, 58, 0
2, 99820, Note_on_c, 0, 81, 49
2, 99878, Note_on_c, 0, 82, 0
2, 99896, Note_on_c, 0, 81, 0
2, 99900, Note_on_c, 0, 79, 52
2, 99952, Note_on_c, 0, 79, 0
2, 99952, Note_on_c, 0, 77, 59
2, 99990, Control_c, 0, 64, 0
2, 100002, Note_on_c, 0, 77, 0
2, 100008, Note_on_c, 0, 70, 25
2, 100008, Note_on_c, 0, 75, 63
2, 100020, Note_on_c, 0, 67, 28
2, 100258, Note_on_c, 0, 70, 0
2, 100274, Note_on_c, 0, 75, 0
2, 100312, Control_c, 0, 64, 127
2, 100320, Note_on_c, 0, 67, 0
2, 100344, Control_c, 0, 64, 0
2, 100574, Note_on_c, 0, 70, 38
2, 100578, Note_on_c, 0, 74, 68
2, 100582, Note_on_c, 0, 65, 28
2, 100798, Note_on_c, 0, 79, 72
2, 100806, Note_on_c, 0, 63, 44
2, 100808, Note_on_c, 0, 65, 0
2, 100822, Note_on_c, 0, 74, 0
2, 101004, Control_c, 0, 64, 127
2, 101024, Note_on_c, 0, 63, 0
2, 101046, Note_on_c, 0, 79, 0
2, 101049, Note_on_c, 0, 70, 0
2, 101158, Control_c, 0, 64, 0
2, 101454, Note_on_c, 0, 77, 39
2, 101456, Note_on_c, 0, 61, 27
2, 101456, Note_on_c, 0, 70, 15
2, 101474, Note_on_c, 0, 65, 8
2, 101678, Note_on_c, 0, 65, 0
2, 101738, Note_on_c, 0, 76, 31
2, 101742, Note_on_c, 0, 61, 0
2, 101750, Note_on_c, 0, 67, 22
2, 101760, Note_on_c, 0, 60, 26
2, 101764, Note_on_c, 0, 77, 0
2, 102188, Control_c, 0, 64, 127
2, 102318, Note_on_c, 0, 67, 0
2, 102342, Note_on_c, 0, 70, 0
2, 102380, Note_on_c, 0, 76, 0
2, 102408, Note_on_c, 0, 60, 0
2, 102632, Control_c, 0, 64, 0
2, 102970, Note_on_c, 0, 75, 53
2, 102970, Note_on_c, 0, 79, 66
2, 103080, Note_on_c, 0, 75, 0
2, 103174, Note_on_c, 0, 79, 0
2, 103177, Note_on_c, 0, 77, 52
2, 103182, Note_on_c, 0, 74, 52
2, 103252, Note_on_c, 0, 74, 0
2, 103324, Control_c, 0, 64, 127
2, 103332, Note_on_c, 0, 77, 0
2, 103334, Note_on_c, 0, 75, 60
2, 103342, Note_on_c, 0, 72, 37
2, 103380, Note_on_c, 0, 75, 0
2, 103494, Control_c, 0, 64, 0
2, 103538, Note_on_c, 0, 74, 65
2, 103550, Note_on_c, 0, 70, 35
2, 103570, Note_on_c, 0, 72, 0
2, 103646, Note_on_c, 0, 70, 0
2, 103692, Note_on_c, 0, 74, 0
2, 103724, Control_c, 0, 64, 127
2, 103732, Note_on_c, 0, 65, 65
2, 103738, Note_on_c, 0, 62, 63
2, 103818, Note_on_c, 0, 65, 0
2, 103918, Note_on_c, 0, 62, 0
2, 103928, Note_on_c, 0, 63, 70
2, 103938, Note_on_c, 0, 60, 66
2, 103954, Control_c, 0, 64, 0
2, 104092, Note_on_c, 0, 60, 0
2, 104120, Note_on_c, 0, 58, 48
2, 104126, Note_on_c, 0, 62, 66
2, 104158, Note_on_c, 0, 63, 0
2, 104270, Note_on_c, 0, 62, 0
2, 104286, Note_on_c, 0, 58, 0
2, 104320, Note_on_c, 0, 60, 62
2, 104324, Note_on_c, 0, 57, 43
2, 104446, Note_on_c, 0, 60, 0
2, 104462, Note_on_c, 0, 57, 0
2, 104496, Note_on_c, 0, 79, 73
2, 104502, Note_on_c, 0, 75, 56
2, 104588, Note_on_c, 0, 75, 0
2, 104688, Note_on_c, 0, 79, 0
2, 104692, Note_on_c, 0, 77, 53
2, 104698, Note_on_c, 0, 74, 50
2, 104772, Note_on_c, 0, 74, 0
2, 104844, Note_on_c, 0, 77, 0
2, 104876, Control_c, 0, 64, 127
2, 104876, Note_on_c, 0, 75, 53
2, 104894, Note_on_c, 0, 72, 36
2, 104926, Note_on_c, 0, 75, 0
2, 105046, Control_c, 0, 64, 0
2, 105068, Note_on_c, 0, 74, 50
2, 105078, Note_on_c, 0, 70, 32
2, 105098, Note_on_c, 0, 72, 0
2, 105162, Note_on_c, 0, 74, 0
2, 105174, Note_on_c, 0, 70, 0
2, 105250, Note_on_c, 0, 65, 56
2, 105260, Note_on_c, 0, 62, 55
2, 105290, Control_c, 0, 64, 127
2, 105306, Note_on_c, 0, 65, 0
2, 105412, Note_on_c, 0, 62, 0
2, 105438, Note_on_c, 0, 63, 68
2, 105452, Note_on_c, 0, 60, 49
2, 105576, Note_on_c, 0, 60, 0
2, 105618, Note_on_c, 0, 58, 46
2, 105620, Note_on_c, 0, 63, 0
2, 105630, Note_on_c, 0, 62, 60
2, 105644, Control_c, 0, 64, 0
2, 105720, Note_on_c, 0, 62, 0
2, 105766, Note_on_c, 0, 58, 0
2, 105798, Note_on_c, 0, 60, 72
2, 105806, Note_on_c, 0, 57, 54
2, 105842, Note_on_c, 0, 60, 0
2, 105854, Note_on_c, 0, 57, 0
2, 105976, Note_on_c, 0, 75, 63
2, 105982, Note_on_c, 0, 79, 70
2, 105988, Note_on_c, 0, 65, 66
2, 106114, Note_on_c, 0, 75, 0
2, 106164, Note_on_c, 0, 77, 71
2, 106166, Note_on_c, 0, 67, 71
2, 106174, Note_on_c, 0, 74, 68
2, 106182, Note_on_c, 0, 65, 0
2, 106182, Note_on_c, 0, 79, 0
2, 106268, Note_on_c, 0, 74, 0
2, 106340, Note_on_c, 0, 67, 0
2, 106352, Note_on_c, 0, 69, 63
2, 106352, Note_on_c, 0, 75, 80
2, 106358, Note_on_c, 0, 72, 64
2, 106382, Note_on_c, 0, 77, 0
2, 106472, Note_on_c, 0, 72, 0
2, 106480, Note_on_c, 0, 75, 0
2, 106528, Note_on_c, 0, 69, 0
2, 106530, Note_on_c, 0, 74, 83
2, 106532, Note_on_c, 0, 70, 76
2, 106568, Note_on_c, 0, 74, 0
2, 106594, Note_on_c, 0, 70, 0
2, 106718, Note_on_c, 0, 82, 67
2, 106728, Note_on_c, 0, 74, 74
2, 106732, Note_on_c, 0, 77, 57
2, 106874, Note_on_c, 0, 82, 0
2, 106880, Note_on_c, 0, 74, 0
2, 106916, Note_on_c, 0, 75, 60
2, 106920, Note_on_c, 0, 81, 59
2, 106930, Note_on_c, 0, 77, 0
2, 106938, Note_on_c, 0, 72, 52
2, 107016, Note_on_c, 0, 72, 0
2, 107088, Note_on_c, 0, 75, 0
2, 107092, Note_on_c, 0, 81, 0
2, 107096, Note_on_c, 0, 74, 54
2, 107102, Note_on_c, 0, 79, 68
2, 107112, Note_on_c, 0, 70, 38
2, 107152, Note_on_c, 0, 74, 0
2, 107166, Control_c, 0, 64, 127
2, 107196, Note_on_c, 0, 70, 0
2, 107262, Note_on_c, 0, 79, 0
2, 107270, Note_on_c, 0, 77, 68
2, 107276, Note_on_c, 0, 72, 57
2, 107284, Note_on_c, 0, 69, 45
2, 107308, Note_on_c, 0, 77, 0
2, 107426, Note_on_c, 0, 69, 0
2, 107432, Note_on_c, 0, 70, 64
2, 107450, Note_on_c, 0, 75, 61
2, 107454, Note_on_c, 0, 72, 0
2, 107456, Note_on_c, 0, 67, 68
2, 107514, Note_on_c, 0, 67, 0
2, 107517, Note_on_c, 0, 70, 0
2, 107624, Note_on_c, 0, 65, 63
2, 107650, Note_on_c, 0, 69, 18
2, 107652, Note_on_c, 0, 74, 73
2, 107662, Note_on_c, 0, 75, 0
2, 107706, Note_on_c, 0, 74, 0
2, 107720, Note_on_c, 0, 69, 0
2, 107768, Note_on_c, 0, 65, 0
2, 107790, Note_on_c, 0, 72, 73
2, 107792, Note_on_c, 0, 63, 81
2, 107795, Note_on_c, 0, 67, 56
2, 107844, Note_on_c, 0, 72, 0
2, 107858, Note_on_c, 0, 67, 0
2, 107912, Note_on_c, 0, 63, 0
2, 108020, Note_on_c, 0, 71, 82
2, 108034, Note_on_c, 0, 65, 60
2, 108044, Note_on_c, 0, 62, 59
2, 108118, Control_c, 0, 64, 0
2, 108886, Note_on_c, 0, 72, 47
2, 108892, Note_on_c, 0, 67, 32
2, 108896, Note_on_c, 0, 65, 0
2, 108904, Note_on_c, 0, 63, 38
2, 108912, Note_on_c, 0, 71, 0
2, 108922, Note_on_c, 0, 62, 0
2, 109102, Control_c, 0, 64, 127
2, 109164, Note_on_c, 0, 63, 0
2, 109170, Note_on_c, 0, 67, 0
2, 109184, Note_on_c, 0, 72, 0
2, 109286, Control_c, 0, 64, 0
2, 109864, Note_on_c, 0, 69, 31
2, 109870, Note_on_c, 0, 63, 26
2, 109870, Note_on_c, 0, 65, 19
2, 109870, Note_on_c, 0, 60, 22
2, 110530, Control_c, 0, 64, 127
2, 110716, Control_c, 0, 64, 0
2, 110764, Note_on_c, 0, 60, 0
2, 110798, Note_on_c, 0, 70, 21
2, 110804, Note_on_c, 0, 63, 0
2, 110822, Note_on_c, 0, 62, 9
2, 110844, Note_on_c, 0, 69, 0
2, 111196, Note_on_c, 0, 65, 0
2, 111240, Note_on_c, 0, 62, 0
2, 111278, Note_on_c, 0, 70, 0
2, 113342, Note_on_c, 0, 67, 45
2, 113350, Note_on_c, 0, 55, 38
2, 114202, Control_c, 0, 64, 127
2, 114574, Note_on_c, 0, 55, 0
2, 115124, Control_c, 0, 64, 0
2, 115126, Note_on_c, 0, 66, 36
2, 115138, Note_on_c, 0, 42, 23
2, 115140, Note_on_c, 0, 54, 29
2, 115142, Note_on_c, 0, 30, 20
2, 115262, Note_on_c, 0, 67, 0
2, 116292, Control_c, 0, 64, 127
2, 116424, Note_on_c, 0, 54, 0
2, 116448, Note_on_c, 0, 42, 0
2, 116474, Note_on_c, 0, 30, 0
2, 116534, Note_on_c, 0, 66, 0
2, 116626, Note_on_c, 0, 65, 80
2, 116626, Note_on_c, 0, 53, 95
2, 116636, Note_on_c, 0, 29, 75
2, 116662, Note_on_c, 0, 53, 0
2, 116702, Note_on_c, 0, 41, 72
2, 116708, Note_on_c, 0, 65, 0
2, 116738, Note_on_c, 0, 29, 0
2, 116814, Note_on_c, 0, 29, 73
2, 116816, Note_on_c, 0, 41, 0
2, 116918, Note_on_c, 0, 41, 56
2, 116930, Note_on_c, 0, 29, 0
2, 116986, Note_on_c, 0, 41, 0
2, 116996, Note_on_c, 0, 29, 73
2, 117000, Note_on_c, 0, 77, 89
2, 117000, Note_on_c, 0, 65, 73
2, 117010, Note_on_c, 0, 70, 55
2, 117013, Note_on_c, 0, 74, 67
2, 117038, Note_on_c, 0, 65, 0
2, 117050, Note_on_c, 0, 74, 0
2, 117058, Note_on_c, 0, 70, 0
2, 117086, Note_on_c, 0, 41, 64
2, 117089, Note_on_c, 0, 77, 0
2, 117100, Note_on_c, 0, 29, 0
2, 117158, Note_on_c, 0, 41, 0
2, 117166, Note_on_c, 0, 29, 80
2, 117264, Note_on_c, 0, 29, 0
2, 117267, Note_on_c, 0, 41, 66
2, 117366, Note_on_c, 0, 82, 92
2, 117368, Note_on_c, 0, 74, 94
2, 117368, Note_on_c, 0, 29, 78
2, 117370, Note_on_c, 0, 41, 0
2, 117372, Note_on_c, 0, 77, 87
2, 117420, Note_on_c, 0, 77, 0
2, 117446, Note_on_c, 0, 74, 0
2, 117464, Note_on_c, 0, 41, 64
2, 117466, Note_on_c, 0, 29, 0
2, 117512, Note_on_c, 0, 82, 0
2, 117554, Note_on_c, 0, 29, 78
2, 117564, Note_on_c, 0, 41, 0
2, 117666, Note_on_c, 0, 41, 71
2, 117678, Note_on_c, 0, 29, 0
2, 117730, Note_on_c, 0, 86, 100
2, 117730, Note_on_c, 0, 77, 89
2, 117730, Note_on_c, 0, 82, 81
2, 117760, Note_on_c, 0, 29, 84
2, 117765, Note_on_c, 0, 41, 0
2, 117824, Note_on_c, 0, 82, 0
2, 117832, Note_on_c, 0, 86, 0
2, 117834, Note_on_c, 0, 77, 0
2, 117858, Note_on_c, 0, 41, 72
2, 117876, Note_on_c, 0, 29, 0
2, 117940, Note_on_c, 0, 29, 91
2, 117966, Note_on_c, 0, 41, 0
2, 118024, Note_on_c, 0, 41, 89
2, 118050, Note_on_c, 0, 29, 0
2, 118112, Note_on_c, 0, 89, 103
2, 118114, Note_on_c, 0, 77, 98
2, 118116, Note_on_c, 0, 29, 101
2, 118118, Note_on_c, 0, 86, 95
2, 118118, Note_on_c, 0, 82, 83
2, 118120, Note_on_c, 0, 41, 0
2, 118186, Note_on_c, 0, 29, 0
2, 118198, Note_on_c, 0, 77, 0
2, 118230, Note_on_c, 0, 89, 0
2, 118244, Note_on_c, 0, 86, 0
2, 118248, Note_on_c, 0, 82, 0
2, 118336, Control_c, 0, 64, 0
2, 118854, Note_on_c, 0, 81, 100
2, 118856, Note_on_c, 0, 72, 95
2, 118856, Note_on_c, 0, 63, 90
2, 118856, Note_on_c, 0, 75, 83
2, 118862, Note_on_c, 0, 77, 85
2, 118864, Note_on_c, 0, 53, 103
2, 118876, Note_on_c, 0, 60, 70
2, 118882, Note_on_c, 0, 57, 63
2, 118950, Note_on_c, 0, 57, 0
2, 118950, Note_on_c, 0, 60, 0
2, 118950, Note_on_c, 0, 63, 0
2, 118966, Control_c, 0, 64, 127
2, 118974, Note_on_c, 0, 53, 0
2, 118982, Note_on_c, 0, 72, 0
2, 119008, Note_on_c, 0, 81, 0
2, 119012, Note_on_c, 0, 77, 0
2, 119012, Note_on_c, 0, 75, 0
2, 119180, Control_c, 0, 64, 0
2, 119628, Note_on_c, 0, 58, 66
2, 119630, Note_on_c, 0, 82, 88
2, 119630, Note_on_c, 0, 46, 67
2, 119644, Note_on_c, 0, 50, 71
2, 119647, Note_on_c, 0, 53, 91
2, 119704, Note_on_c, 0, 53, 0
2, 119712, Note_on_c, 0, 50, 0
2, 119730, Note_on_c, 0, 58, 0
2, 119730, Note_on_c, 0, 86, 86
2, 119733, Control_c, 0, 64, 127
2, 119744, Note_on_c, 0, 46, 0
2, 119766, Note_on_c, 0, 82, 0
2, 119818, Note_on_c, 0, 84, 92
2, 119898, Note_on_c, 0, 86, 0
2, 119902, Control_c, 0, 64, 0
2, 119904, Note_on_c, 0, 82, 71
2, 119986, Note_on_c, 0, 84, 0
2, 120002, Note_on_c, 0, 81, 78
2, 120072, Note_on_c, 0, 82, 0
2, 120086, Note_on_c, 0, 79, 81
2, 120102, Note_on_c, 0, 81, 0
2, 120138, Note_on_c, 0, 79, 0
2, 120188, Note_on_c, 0, 77, 46
2, 120202, Note_on_c, 0, 79, 66
2, 120250, Note_on_c, 0, 79, 0
2, 120266, Note_on_c, 0, 76, 65
2, 120274, Note_on_c, 0, 77, 0
2, 120358, Note_on_c, 0, 75, 85
2, 120358, Note_on_c, 0, 57, 67
2, 120361, Note_on_c, 0, 46, 53
2, 120364, Note_on_c, 0, 51, 62
2, 120384, Note_on_c, 0, 48, 44
2, 120390, Note_on_c, 0, 76, 0
2, 120458, Note_on_c, 0, 79, 87
2, 120466, Note_on_c, 0, 75, 0
2, 120466, Note_on_c, 0, 57, 0
2, 120472, Control_c, 0, 64, 127
2, 120500, Note_on_c, 0, 48, 0
2, 120506, Note_on_c, 0, 46, 0
2, 120512, Note_on_c, 0, 51, 0
2, 120542, Note_on_c, 0, 77, 84
2, 120584, Note_on_c, 0, 79, 0
2, 120610, Control_c, 0, 64, 0
2, 120636, Note_on_c, 0, 75, 74
2, 120658, Note_on_c, 0, 77, 0
2, 120730, Note_on_c, 0, 74, 79
2, 120782, Note_on_c, 0, 74, 0
2, 120782, Note_on_c, 0, 75, 0
2, 120804, Note_on_c, 0, 72, 63
2, 120890, Note_on_c, 0, 70, 70
2, 120926, Note_on_c, 0, 72, 0
2, 120970, Note_on_c, 0, 69, 69
2, 121000, Note_on_c, 0, 70, 0
2, 121054, Note_on_c, 0, 69, 0
2, 121054, Note_on_c, 0, 58, 59
2, 121068, Note_on_c, 0, 46, 58
2, 121068, Note_on_c, 0, 70, 70
2, 121078, Note_on_c, 0, 53, 86
2, 121084, Note_on_c, 0, 50, 59
2, 121134, Note_on_c, 0, 53, 0
2, 121152, Note_on_c, 0, 50, 0
2, 121160, Note_on_c, 0, 74, 81
2, 121166, Note_on_c, 0, 58, 0
2, 121178, Note_on_c, 0, 70, 0
2, 121178, Control_c, 0, 64, 127
2, 121190, Note_on_c, 0, 46, 0
2, 121250, Note_on_c, 0, 72, 76
2, 121274, Note_on_c, 0, 74, 0
2, 121318, Control_c, 0, 64, 0
2, 121332, Note_on_c, 0, 70, 70
2, 121358, Note_on_c, 0, 72, 0
2, 121422, Note_on_c, 0, 69, 64
2, 121486, Note_on_c, 0, 70, 0
2, 121502, Note_on_c, 0, 69, 0
2, 121508, Note_on_c, 0, 67, 72
2, 121572, Note_on_c, 0, 67, 0
2, 121590, Note_on_c, 0, 65, 80
2, 121680, Note_on_c, 0, 64, 79
2, 121694, Note_on_c, 0, 65, 0
2, 121774, Note_on_c, 0, 63, 90
2, 121784, Note_on_c, 0, 57, 70
2, 121790, Note_on_c, 0, 46, 52
2, 121792, Note_on_c, 0, 64, 0
2, 121796, Note_on_c, 0, 51, 61
2, 121812, Note_on_c, 0, 48, 44
2, 121866, Note_on_c, 0, 67, 78
2, 121878, Note_on_c, 0, 63, 0
2, 121894, Note_on_c, 0, 48, 0
2, 121916, Control_c, 0, 64, 127
2, 121940, Note_on_c, 0, 57, 0
2, 121943, Note_on_c, 0, 46, 0
2, 121952, Note_on_c, 0, 65, 76
2, 121972, Note_on_c, 0, 51, 0
2, 121990, Note_on_c, 0, 67, 0
2, 122008, Control_c, 0, 64, 0
2, 122046, Note_on_c, 0, 63, 75
2, 122064, Note_on_c, 0, 65, 0
2, 122130, Note_on_c, 0, 62, 74
2, 122170, Note_on_c, 0, 63, 0
2, 122178, Note_on_c, 0, 62, 0
2, 122196, Note_on_c, 0, 60, 64
2, 122280, Note_on_c, 0, 58, 62
2, 122312, Note_on_c, 0, 60, 0
2, 122378, Note_on_c, 0, 57, 57
2, 122398, Note_on_c, 0, 58, 0
2, 122436, Note_on_c, 0, 57, 0
2, 122454, Note_on_c, 0, 58, 68
2, 122482, Note_on_c, 0, 46, 83
2, 122488, Note_on_c, 0, 34, 84
2, 122556, Note_on_c, 0, 57, 52
2, 122562, Note_on_c, 0, 34, 0
2, 122568, Note_on_c, 0, 58, 0
2, 122570, Note_on_c, 0, 46, 0
2, 122592, Control_c, 0, 64, 127
2, 122630, Note_on_c, 0, 58, 62
2, 122635, Note_on_c, 0, 57, 0
2, 122668, Control_c, 0, 64, 0
2, 122732, Note_on_c, 0, 53, 95
2, 122744, Note_on_c, 0, 58, 0
2, 122778, Note_on_c, 0, 53, 0
2, 122832, Note_on_c, 0, 62, 84
2, 122846, Note_on_c, 0, 50, 87
2, 122852, Note_on_c, 0, 38, 74
2, 122913, Note_on_c, 0, 38, 0
2, 122913, Note_on_c, 0, 62, 0
2, 122922, Note_on_c, 0, 61, 81
2, 122968, Note_on_c, 0, 50, 0
2, 123008, Note_on_c, 0, 62, 78
2, 123032, Note_on_c, 0, 61, 0
2, 123068, Note_on_c, 0, 62, 0
2, 123092, Note_on_c, 0, 58, 68
2, 123142, Note_on_c, 0, 58, 0
2, 123198, Note_on_c, 0, 65, 79
2, 123200, Note_on_c, 0, 53, 106
2, 123202, Note_on_c, 0, 41, 88
2, 123280, Note_on_c, 0, 41, 0
2, 123280, Note_on_c, 0, 64, 78
2, 123302, Note_on_c, 0, 65, 0
2, 123324, Note_on_c, 0, 53, 0
2, 123358, Note_on_c, 0, 65, 83
2, 123362, Note_on_c, 0, 64, 0
2, 123424, Note_on_c, 0, 65, 0
2, 123458, Note_on_c, 0, 62, 73
2, 123526, Note_on_c, 0, 62, 0
2, 123554, Note_on_c, 0, 58, 83
2, 123556, Note_on_c, 0, 70, 81
2, 123560, Note_on_c, 0, 46, 78
2, 123656, Note_on_c, 0, 69, 71
2, 123666, Note_on_c, 0, 70, 0
2, 123666, Control_c, 0, 64, 127
2, 123678, Note_on_c, 0, 58, 0
2, 123682, Note_on_c, 0, 46, 0
2, 123714, Control_c, 0, 64, 0
2, 123746, Note_on_c, 0, 70, 63
2, 123790, Note_on_c, 0, 69, 0
2, 123838, Note_on_c, 0, 65, 63
2, 123854, Note_on_c, 0, 70, 0
2, 123884, Note_on_c, 0, 65, 0
2, 123918, Note_on_c, 0, 62, 93
2, 123926, Note_on_c, 0, 50, 85
2, 123928, Note_on_c, 0, 74, 89
2, 124004, Note_on_c, 0, 74, 0
2, 124006, Note_on_c, 0, 50, 0
2, 124006, Control_c, 0, 64, 127
2, 124009, Note_on_c, 0, 73, 70
2, 124038, Note_on_c, 0, 62, 0
2, 124066, Control_c, 0, 64, 0
2, 124100, Note_on_c, 0, 74, 76
2, 124118, Note_on_c, 0, 73, 0
2, 124146, Note_on_c, 0, 74, 0
2, 124176, Note_on_c, 0, 70, 70
2, 124232, Note_on_c, 0, 70, 0
2, 124282, Note_on_c, 0, 65, 83
2, 124284, Note_on_c, 0, 77, 87
2, 124296, Note_on_c, 0, 53, 85
2, 124338, Note_on_c, 0, 53, 0
2, 124358, Control_c, 0, 64, 127
2, 124366, Note_on_c, 0, 76, 70
2, 124376, Note_on_c, 0, 77, 0
2, 124392, Note_on_c, 0, 65, 0
2, 124404, Control_c, 0, 64, 0
2, 124436, Note_on_c, 0, 77, 83
2, 124440, Note_on_c, 0, 76, 0
2, 124484, Note_on_c, 0, 77, 0
2, 124560, Note_on_c, 0, 74, 45
2, 124608, Note_on_c, 0, 74, 0
2, 124634, Note_on_c, 0, 82, 72
2, 124634, Note_on_c, 0, 70, 69
2, 124637, Note_on_c, 0, 58, 63
2, 124696, Note_on_c, 0, 58, 0
2, 124722, Note_on_c, 0, 81, 81
2, 124724, Note_on_c, 0, 70, 0
2, 124730, Note_on_c, 0, 82, 0
2, 124812, Note_on_c, 0, 82, 70
2, 124850, Note_on_c, 0, 81, 0
2, 124900, Note_on_c, 0, 77, 63
2, 124910, Note_on_c, 0, 82, 0
2, 124954, Note_on_c, 0, 77, 0
2, 124994, Note_on_c, 0, 75, 60
2, 125004, Note_on_c, 0, 84, 81
2, 125024, Note_on_c, 0, 65, 37
2, 125068, Note_on_c, 0, 84, 0
2, 125094, Note_on_c, 0, 83, 97
2, 125142, Control_c, 0, 64, 127
2, 125176, Note_on_c, 0, 83, 0
2, 125190, Note_on_c, 0, 84, 77
2, 125222, Note_on_c, 0, 65, 0
2, 125234, Note_on_c, 0, 84, 0
2, 125276, Note_on_c, 0, 77, 57
2, 125296, Control_c, 0, 64, 0
2, 125300, Note_on_c, 0, 75, 0
2, 125350, Note_on_c, 0, 77, 0
2, 125370, Note_on_c, 0, 82, 73
2, 125374, Note_on_c, 0, 74, 60
2, 125382, Note_on_c, 0, 70, 32
2, 125462, Note_on_c, 0, 81, 71
2, 125474, Note_on_c, 0, 82, 0
2, 125546, Note_on_c, 0, 74, 0
2, 125548, Note_on_c, 0, 82, 64
2, 125554, Note_on_c, 0, 81, 0
2, 125558, Control_c, 0, 64, 127
2, 125590, Note_on_c, 0, 70, 0
2, 125618, Control_c, 0, 64, 0
2, 125640, Note_on_c, 0, 77, 70
2, 125656, Note_on_c, 0, 82, 0
2, 125694, Note_on_c, 0, 77, 0
2, 125730, Note_on_c, 0, 75, 70
2, 125736, Note_on_c, 0, 84, 86
2, 125746, Note_on_c, 0, 65, 56
2, 125822, Note_on_c, 0, 84, 0
2, 125828, Note_on_c, 0, 83, 98
2, 125850, Control_c, 0, 64, 127
2, 125888, Note_on_c, 0, 65, 0
2, 125910, Note_on_c, 0, 83, 0
2, 125920, Note_on_c, 0, 75, 0
2, 125922, Note_on_c, 0, 84, 82
2, 125972, Control_c, 0, 64, 0
2, 125992, Note_on_c, 0, 84, 0
2, 126000, Note_on_c, 0, 77, 64
2, 126084, Note_on_c, 0, 74, 69
2, 126086, Note_on_c, 0, 77, 0
2, 126088, Note_on_c, 0, 82, 81
2, 126092, Note_on_c, 0, 70, 47
2, 126184, Note_on_c, 0, 81, 77
2, 126200, Note_on_c, 0, 82, 0
2, 126218, Control_c, 0, 64, 127
2, 126232, Note_on_c, 0, 74, 0
2, 126266, Note_on_c, 0, 82, 69
2, 126290, Note_on_c, 0, 81, 0
2, 126304, Note_on_c, 0, 70, 0
2, 126310, Control_c, 0, 64, 0
2, 126350, Note_on_c, 0, 77, 80
2, 126382, Note_on_c, 0, 82, 0
2, 126428, Note_on_c, 0, 77, 0
2, 126452, Note_on_c, 0, 84, 86
2, 126452, Note_on_c, 0, 75, 67
2, 126482, Note_on_c, 0, 65, 37
2, 126512, Note_on_c, 0, 84, 0
2, 126542, Note_on_c, 0, 83, 97
2, 126602, Control_c, 0, 64, 127
2, 126604, Note_on_c, 0, 83, 0
2, 126626, Note_on_c, 0, 65, 0
2, 126626, Note_on_c, 0, 84, 75
2, 126666, Note_on_c, 0, 75, 0
2, 126704, Note_on_c, 0, 84, 0
2, 126716, Note_on_c, 0, 77, 45
2, 126726, Control_c, 0, 64, 0
2, 126804, Note_on_c, 0, 82, 84
2, 126816, Note_on_c, 0, 77, 0
2, 126819, Note_on_c, 0, 70, 44
2, 126878, Note_on_c, 0, 70, 0
2, 126894, Note_on_c, 0, 74, 71
2, 126926, Note_on_c, 0, 82, 0
2, 126952, Note_on_c, 0, 74, 0
2, 126992, Note_on_c, 0, 70, 49
2, 127054, Note_on_c, 0, 70, 0
2, 127076, Note_on_c, 0, 74, 62
2, 127130, Note_on_c, 0, 74, 0
2, 127156, Note_on_c, 0, 82, 69
2, 127160, Note_on_c, 0, 86, 84
2, 127170, Note_on_c, 0, 70, 53
2, 127226, Note_on_c, 0, 70, 0
2, 127254, Note_on_c, 0, 74, 53
2, 127258, Note_on_c, 0, 82, 0
2, 127272, Note_on_c, 0, 86, 0
2, 127318, Note_on_c, 0, 74, 0
2, 127342, Note_on_c, 0, 70, 46
2, 127406, Note_on_c, 0, 70, 0
2, 127428, Note_on_c, 0, 74, 50
2, 127490, Note_on_c, 0, 74, 0
2, 127518, Note_on_c, 0, 86, 65
2, 127518, Note_on_c, 0, 89, 63
2, 127530, Note_on_c, 0, 70, 44
2, 127590, Note_on_c, 0, 86, 0
2, 127594, Note_on_c, 0, 70, 0
2, 127618, Note_on_c, 0, 74, 51
2, 127628, Note_on_c, 0, 89, 0
2, 127678, Note_on_c, 0, 74, 0
2, 127714, Note_on_c, 0, 70, 38
2, 127782, Note_on_c, 0, 70, 0
2, 127802, Note_on_c, 0, 74, 43
2, 127870, Note_on_c, 0, 74, 0
2, 127873, Note_on_c, 0, 82, 48
2, 127886, Note_on_c, 0, 86, 42
2, 127886, Note_on_c, 0, 70, 29
2, 127948, Note_on_c, 0, 82, 0
2, 127964, Note_on_c, 0, 70, 0
2, 127982, Note_on_c, 0, 74, 42
2, 127985, Note_on_c, 0, 86, 0
2, 128046, Note_on_c, 0, 74, 0
2, 128068, Note_on_c, 0, 70, 31
2, 128150, Note_on_c, 0, 70, 0
2, 128160, Note_on_c, 0, 74, 40
2, 128244, Note_on_c, 0, 74, 0
2, 128302, Note_on_c, 0, 89, 46
2, 128310, Note_on_c, 0, 86, 32
2, 128322, Note_on_c, 0, 70, 30
2, 128408, Note_on_c, 0, 86, 0
2, 128446, Control_c, 0, 64, 127
2, 128454, Note_on_c, 0, 70, 0
2, 128480, Note_on_c, 0, 89, 0
2, 128568, Control_c, 0, 64, 0
2, 129116, Note_on_c, 0, 70, 17
2, 129116, Note_on_c, 0, 82, 18
2, 129130, Note_on_c, 0, 74, 22
2, 129132, Note_on_c, 0, 86, 29
2, 129230, Note_on_c, 0, 74, 0
2, 129240, Note_on_c, 0, 86, 0
2, 129260, Control_c, 0, 64, 127
2, 129280, Note_on_c, 0, 82, 0
2, 129294, Note_on_c, 0, 70, 0
2, 129382, Control_c, 0, 64, 0
2, 129916, Note_on_c, 0, 82, 28
2, 129930, Note_on_c, 0, 70, 15
2, 129932, Note_on_c, 0, 77, 17
2, 129936, Note_on_c, 0, 74, 19
2, 130062, Note_on_c, 0, 77, 0
2, 130065, Note_on_c, 0, 74, 0
2, 130090, Control_c, 0, 64, 127
2, 130104, Note_on_c, 0, 70, 0
2, 130126, Note_on_c, 0, 82, 0
2, 130458, Control_c, 0, 64, 0
2, 132134, Note_on_c, 0, 46, 36
2, 132142, Note_on_c, 0, 65, 42
2, 132146, Note_on_c, 0, 62, 45
2, 132148, Note_on_c, 0, 34, 26
2, 132466, Control_c, 0, 64, 127
2, 133336, Note_on_c, 0, 46, 0
2, 133610, Note_on_c, 0, 66, 42
2, 133612, Note_on_c, 0, 60, 37
2, 133616, Note_on_c, 0, 32, 31
2, 133619, Note_on_c, 0, 44, 41
2, 133712, Note_on_c, 0, 34, 0
2, 133740, Note_on_c, 0, 62, 0
2, 133784, Note_on_c, 0, 65, 0
2, 133972, Control_c, 0, 64, 0
2, 134432, Control_c, 0, 64, 127
2, 135058, Note_on_c, 0, 44, 0
2, 135288, Note_on_c, 0, 60, 0
2, 135358, Note_on_c, 0, 32, 0
2, 135886, Note_on_c, 0, 67, 22
2, 135910, Note_on_c, 0, 43, 13
2, 135912, Note_on_c, 0, 31, 24
2, 135914, Note_on_c, 0, 59, 12
2, 135980, Note_on_c, 0, 66, 0
2, 136230, Control_c, 0, 64, 0
2, 136922, Control_c, 0, 64, 127
2, 137852, Note_on_c, 0, 59, 0
2, 137894, Note_on_c, 0, 43, 0
2, 138004, Note_on_c, 0, 31, 0
2, 138044, Note_on_c, 0, 67, 0
2, 138750, Control_c, 0, 64, 0
2, 139286, Note_on_c, 0, 79, 68
2, 139344, Note_on_c, 0, 76, 76
2, 139346, Note_on_c, 0, 64, 65
2, 139356, Note_on_c, 0, 60, 64
2, 139376, Note_on_c, 0, 79, 0
2, 139390, Note_on_c, 0, 64, 0
2, 139404, Note_on_c, 0, 76, 0
2, 139404, Note_on_c, 0, 60, 0
2, 139630, Note_on_c, 0, 79, 59
2, 139688, Note_on_c, 0, 62, 57
2, 139688, Note_on_c, 0, 74, 63
2, 139691, Note_on_c, 0, 79, 0
2, 139696, Note_on_c, 0, 55, 59
2, 139738, Note_on_c, 0, 62, 0
2, 139744, Note_on_c, 0, 55, 0
2, 139748, Note_on_c, 0, 74, 0
2, 139972, Note_on_c, 0, 79, 59
2, 140048, Note_on_c, 0, 79, 0
2, 140051, Note_on_c, 0, 60, 48
2, 140054, Note_on_c, 0, 72, 58
2, 140056, Note_on_c, 0, 52, 50
2, 140120, Note_on_c, 0, 72, 0
2, 140174, Note_on_c, 0, 60, 0
2, 140226, Note_on_c, 0, 52, 0
2, 140326, Note_on_c, 0, 79, 62
2, 140394, Note_on_c, 0, 79, 0
2, 140408, Note_on_c, 0, 67, 78
2, 140458, Note_on_c, 0, 67, 0
2, 140668, Note_on_c, 0, 79, 78
2, 140734, Note_on_c, 0, 76, 91
2, 140746, Note_on_c, 0, 64, 80
2, 140760, Note_on_c, 0, 60, 68
2, 140792, Note_on_c, 0, 79, 0
2, 140806, Note_on_c, 0, 60, 0
2, 140812, Note_on_c, 0, 64, 0
2, 140822, Note_on_c, 0, 76, 0
2, 141024, Note_on_c, 0, 79, 78
2, 141088, Note_on_c, 0, 62, 57
2, 141092, Note_on_c, 0, 74, 88
2, 141102, Note_on_c, 0, 55, 56
2, 141136, Note_on_c, 0, 74, 0
2, 141138, Note_on_c, 0, 79, 0
2, 141144, Note_on_c, 0, 62, 0
2, 141156, Note_on_c, 0, 55, 0
2, 141366, Note_on_c, 0, 79, 79
2, 141426, Note_on_c, 0, 60, 44
2, 141438, Note_on_c, 0, 72, 66
2, 141441, Note_on_c, 0, 52, 44
2, 141482, Note_on_c, 0, 79, 0
2, 141538, Note_on_c, 0, 72, 0
2, 141554, Note_on_c, 0, 52, 0
2, 141582, Note_on_c, 0, 60, 0
2, 141696, Note_on_c, 0, 79, 76
2, 141746, Note_on_c, 0, 79, 0
2, 141772, Note_on_c, 0, 67, 74
2, 141816, Note_on_c, 0, 67, 0
2, 142024, Note_on_c, 0, 60, 45
2, 142036, Note_on_c, 0, 84, 71
2, 142112, Note_on_c, 0, 79, 70
2, 142115, Note_on_c, 0, 60, 0
2, 142120, Note_on_c, 0, 64, 58
2, 142130, Note_on_c, 0, 84, 0
2, 142162, Note_on_c, 0, 79, 0
2, 142164, Note_on_c, 0, 64, 0
2, 142346, Note_on_c, 0, 60, 44
2, 142360, Note_on_c, 0, 84, 54
2, 142426, Note_on_c, 0, 60, 0
2, 142436, Note_on_c, 0, 84, 0
2, 142444, Note_on_c, 0, 65, 53
2, 142444, Note_on_c, 0, 81, 60
2, 142494, Note_on_c, 0, 65, 0
2, 142502, Note_on_c, 0, 81, 0
2, 142712, Note_on_c, 0, 84, 56
2, 142714, Note_on_c, 0, 60, 45
2, 142776, Note_on_c, 0, 60, 0
2, 142788, Note_on_c, 0, 82, 69
2, 142802, Note_on_c, 0, 67, 54
2, 142836, Note_on_c, 0, 84, 0
2, 142874, Note_on_c, 0, 67, 0
2, 142912, Note_on_c, 0, 82, 0
2, 143048, Note_on_c, 0, 84, 79
2, 143062, Note_on_c, 0, 60, 41
2, 143122, Note_on_c, 0, 81, 89
2, 143130, Note_on_c, 0, 60, 0
2, 143134, Note_on_c, 0, 69, 61
2, 143156, Note_on_c, 0, 84, 0
2, 143216, Note_on_c, 0, 69, 0
2, 143228, Note_on_c, 0, 81, 0
2, 143380, Note_on_c, 0, 60, 59
2, 143392, Note_on_c, 0, 84, 85
2, 143464, Note_on_c, 0, 60, 0
2, 143464, Note_on_c, 0, 79, 95
2, 143467, Note_on_c, 0, 70, 73
2, 143528, Note_on_c, 0, 84, 0
2, 143556, Note_on_c, 0, 70, 0
2, 143574, Note_on_c, 0, 79, 0
2, 143706, Note_on_c, 0, 60, 62
2, 143709, Note_on_c, 0, 84, 73
2, 143784, Note_on_c, 0, 60, 0
2, 143794, Note_on_c, 0, 76, 83
2, 143802, Note_on_c, 0, 70, 72
2, 143810, Note_on_c, 0, 84, 0
2, 143874, Note_on_c, 0, 76, 0
2, 143880, Note_on_c, 0, 70, 0
2, 144030, Note_on_c, 0, 84, 82
2, 144036, Note_on_c, 0, 60, 44
2, 144110, Note_on_c, 0, 60, 0
2, 144122, Note_on_c, 0, 84, 0
2, 144138, Note_on_c, 0, 77, 68
2, 144168, Note_on_c, 0, 69, 37
2, 144212, Note_on_c, 0, 65, 16
2, 144222, Note_on_c, 0, 77, 0
2, 144242, Note_on_c, 0, 84, 61
2, 144342, Control_c, 0, 64, 127
2, 144347, Note_on_c, 0, 84, 0
2, 144347, Note_on_c, 0, 86, 71
2, 144372, Note_on_c, 0, 69, 0
2, 144392, Note_on_c, 0, 65, 0
2, 144422, Note_on_c, 0, 84, 73
2, 144478, Note_on_c, 0, 86, 0
2, 144512, Control_c, 0, 64, 0
2, 144524, Note_on_c, 0, 82, 70
2, 144562, Note_on_c, 0, 84, 0
2, 144622, Note_on_c, 0, 81, 76
2, 144688, Note_on_c, 0, 81, 0
2, 144694, Note_on_c, 0, 82, 0
2, 144702, Note_on_c, 0, 79, 74
2, 144758, Note_on_c, 0, 79, 0
2, 144790, Note_on_c, 0, 77, 80
2, 144862, Note_on_c, 0, 77, 0
2, 144886, Note_on_c, 0, 70, 38
2, 144889, Note_on_c, 0, 76, 65
2, 144900, Note_on_c, 0, 60, 22
2, 144976, Note_on_c, 0, 79, 87
2, 145012, Note_on_c, 0, 76, 0
2, 145034, Control_c, 0, 64, 127
2, 145074, Note_on_c, 0, 82, 73
2, 145094, Note_on_c, 0, 79, 0
2, 145102, Note_on_c, 0, 60, 0
2, 145120, Note_on_c, 0, 70, 0
2, 145172, Note_on_c, 0, 86, 74
2, 145178, Note_on_c, 0, 82, 0
2, 145250, Control_c, 0, 64, 0
2, 145276, Note_on_c, 0, 84, 84
2, 145330, Note_on_c, 0, 86, 0
2, 145360, Note_on_c, 0, 82, 71
2, 145386, Note_on_c, 0, 84, 0
2, 145456, Note_on_c, 0, 81, 78
2, 145492, Note_on_c, 0, 82, 0
2, 145526, Note_on_c, 0, 81, 0
2, 145540, Note_on_c, 0, 79, 67
2, 145644, Note_on_c, 0, 69, 34
2, 145646, Note_on_c, 0, 62, 28
2, 145647, Note_on_c, 0, 77, 77
2, 145648, Note_on_c, 0, 65, 23
2, 145656, Note_on_c, 0, 79, 0
2, 145736, Note_on_c, 0, 76, 60
2, 145740, Note_on_c, 0, 77, 0
2, 145824, Note_on_c, 0, 77, 70
2, 145848, Control_c, 0, 64, 127
2, 145866, Note_on_c, 0, 76, 0
2, 145928, Note_on_c, 0, 69, 0
2, 145931, Note_on_c, 0, 79, 84
2, 145932, Note_on_c, 0, 65, 0
2, 145952, Note_on_c, 0, 77, 0
2, 145954, Note_on_c, 0, 62, 0
2, 146002, Control_c, 0, 64, 0
2, 146038, Note_on_c, 0, 81, 78
2, 146070, Note_on_c, 0, 79, 0
2, 146132, Note_on_c, 0, 77, 80
2, 146172, Note_on_c, 0, 81, 0
2, 146220, Note_on_c, 0, 76, 78
2, 146254, Note_on_c, 0, 77, 0
2, 146320, Note_on_c, 0, 74, 73
2, 146334, Note_on_c, 0, 76, 0
2, 146414, Note_on_c, 0, 73, 73
2, 146428, Note_on_c, 0, 67, 38
2, 146434, Note_on_c, 0, 74, 0
2, 146442, Note_on_c, 0, 57, 29
2, 146510, Control_c, 0, 64, 127
2, 146518, Note_on_c, 0, 76, 72
2, 146526, Note_on_c, 0, 73, 0
2, 146628, Note_on_c, 0, 79, 76
2, 146678, Note_on_c, 0, 76, 0
2, 146712, Note_on_c, 0, 82, 71
2, 146718, Note_on_c, 0, 67, 0
2, 146744, Note_on_c, 0, 79, 0
2, 146750, Note_on_c, 0, 57, 0
2, 146786, Control_c, 0, 64, 0
2, 146808, Note_on_c, 0, 81, 78
2, 146858, Note_on_c, 0, 82, 0
2, 146900, Note_on_c, 0, 79, 88
2, 146926, Note_on_c, 0, 81, 0
2, 146998, Note_on_c, 0, 77, 70
2, 147016, Note_on_c, 0, 79, 0
2, 147058, Note_on_c, 0, 77, 0
2, 147090, Note_on_c, 0, 76, 63
2, 147184, Note_on_c, 0, 74, 76
2, 147198, Note_on_c, 0, 58, 31
2, 147200, Note_on_c, 0, 65, 39
2, 147214, Note_on_c, 0, 76, 0
2, 147300, Note_on_c, 0, 75, 75
2, 147340, Note_on_c, 0, 74, 0
2, 147400, Control_c, 0, 64, 127
2, 147402, Note_on_c, 0, 77, 72
2, 147428, Note_on_c, 0, 75, 0
2, 147464, Note_on_c, 0, 65, 0
2, 147488, Note_on_c, 0, 79, 83
2, 147510, Note_on_c, 0, 77, 0
2, 147542, Note_on_c, 0, 58, 0
2, 147570, Control_c, 0, 64, 0
2, 147584, Note_on_c, 0, 77, 72
2, 147624, Note_on_c, 0, 79, 0
2, 147692, Note_on_c, 0, 74, 79
2, 147700, Note_on_c, 0, 77, 0
2, 147764, Note_on_c, 0, 74, 0
2, 147794, Note_on_c, 0, 72, 59
2, 147850, Note_on_c, 0, 72, 0
2, 147880, Note_on_c, 0, 70, 57
2, 147968, Note_on_c, 0, 63, 40
2, 147988, Note_on_c, 0, 69, 57
2, 148000, Note_on_c, 0, 53, 52
2, 148004, Note_on_c, 0, 70, 0
2, 148081, Note_on_c, 0, 72, 64
2, 148138, Note_on_c, 0, 69, 0
2, 148138, Control_c, 0, 64, 127
2, 148178, Note_on_c, 0, 75, 65
2, 148206, Note_on_c, 0, 72, 0
2, 148246, Note_on_c, 0, 63, 0
2, 148254, Note_on_c, 0, 75, 0
2, 148262, Note_on_c, 0, 53, 0
2, 148264, Note_on_c, 0, 79, 76
2, 148322, Control_c, 0, 64, 0
2, 148336, Note_on_c, 0, 79, 0
2, 148374, Note_on_c, 0, 77, 71
2, 148460, Note_on_c, 0, 75, 72
2, 148488, Note_on_c, 0, 77, 0
2, 148556, Note_on_c, 0, 74, 72
2, 148598, Note_on_c, 0, 75, 0
2, 148610, Note_on_c, 0, 74, 0
2, 148642, Note_on_c, 0, 72, 56
2, 148730, Note_on_c, 0, 70, 69
2, 148746, Note_on_c, 0, 62, 39
2, 148756, Note_on_c, 0, 55, 40
2, 148766, Note_on_c, 0, 72, 0
2, 148826, Note_on_c, 0, 70, 0
2, 148830, Note_on_c, 0, 69, 53
2, 148908, Note_on_c, 0, 69, 0
2, 148908, Note_on_c, 0, 70, 61
2, 148938, Control_c, 0, 64, 127
2, 149010, Note_on_c, 0, 62, 0
2, 149032, Note_on_c, 0, 72, 72
2, 149058, Note_on_c, 0, 70, 0
2, 149072, Note_on_c, 0, 55, 0
2, 149136, Note_on_c, 0, 74, 69
2, 149136, Control_c, 0, 64, 0
2, 149139, Note_on_c, 0, 72, 0
2, 149222, Note_on_c, 0, 70, 68
2, 149268, Note_on_c, 0, 74, 0
2, 149320, Note_on_c, 0, 69, 68
2, 149352, Note_on_c, 0, 70, 0
2, 149402, Note_on_c, 0, 69, 0
2, 149426, Note_on_c, 0, 67, 52
2, 149498, Note_on_c, 0, 67, 0
2, 149501, Note_on_c, 0, 60, 45
2, 149504, Note_on_c, 0, 66, 67
2, 149510, Note_on_c, 0, 50, 42
2, 149566, Note_on_c, 0, 66, 0
2, 149600, Note_on_c, 0, 69, 57
2, 149644, Control_c, 0, 64, 127
2, 149710, Note_on_c, 0, 72, 70
2, 149746, Note_on_c, 0, 69, 0
2, 149802, Note_on_c, 0, 75, 66
2, 149812, Note_on_c, 0, 60, 0
2, 149820, Note_on_c, 0, 72, 0
2, 149828, Note_on_c, 0, 50, 0
2, 149860, Control_c, 0, 64, 0
2, 149900, Note_on_c, 0, 74, 82
2, 149948, Note_on_c, 0, 75, 0
2, 149968, Note_on_c, 0, 74, 0
2, 150002, Note_on_c, 0, 72, 69
2, 150090, Note_on_c, 0, 70, 73
2, 150132, Note_on_c, 0, 72, 0
2, 150200, Note_on_c, 0, 69, 65
2, 150226, Note_on_c, 0, 70, 0
2, 150322, Note_on_c, 0, 69, 0
2, 150322, Note_on_c, 0, 67, 94
2, 150325, Note_on_c, 0, 51, 47
2, 150392, Note_on_c, 0, 51, 0
2, 150430, Note_on_c, 0, 55, 54
2, 150458, Control_c, 0, 64, 127
2, 150502, Note_on_c, 0, 55, 0
2, 150530, Note_on_c, 0, 51, 51
2, 150533, Note_on_c, 0, 67, 0
2, 150594, Note_on_c, 0, 51, 0
2, 150616, Note_on_c, 0, 55, 54
2, 150698, Note_on_c, 0, 55, 0
2, 150736, Note_on_c, 0, 51, 56
2, 150736, Note_on_c, 0, 82, 99
2, 150742, Note_on_c, 0, 70, 85
2, 150810, Note_on_c, 0, 51, 0
2, 150858, Note_on_c, 0, 55, 50
2, 150926, Note_on_c, 0, 55, 0
2, 150962, Note_on_c, 0, 51, 55
2, 151024, Note_on_c, 0, 51, 0
2, 151064, Note_on_c, 0, 55, 50
2, 151130, Note_on_c, 0, 55, 0
2, 151148, Note_on_c, 0, 51, 56
2, 151208, Note_on_c, 0, 51, 0
2, 151232, Note_on_c, 0, 55, 49
2, 151320, Note_on_c, 0, 55, 0
2, 151346, Note_on_c, 0, 51, 50
2, 151400, Note_on_c, 0, 51, 0
2, 151432, Note_on_c, 0, 55, 52
2, 151496, Note_on_c, 0, 70, 0
2, 151496, Note_on_c, 0, 82, 0
2, 151514, Note_on_c, 0, 55, 0
2, 151534, Note_on_c, 0, 81, 98
2, 151540, Note_on_c, 0, 69, 76
2, 151554, Note_on_c, 0, 51, 58
2, 151606, Note_on_c, 0, 51, 0
2, 151656, Note_on_c, 0, 55, 57
2, 151714, Note_on_c, 0, 55, 0
2, 151748, Note_on_c, 0, 51, 52
2, 151800, Note_on_c, 0, 51, 0
2, 151808, Note_on_c, 0, 81, 0
2, 151828, Note_on_c, 0, 69, 0
2, 151828, Note_on_c, 0, 55, 47
2, 151900, Note_on_c, 0, 55, 0
2, 151932, Note_on_c, 0, 51, 53
2, 151934, Control_c, 0, 64, 0
2, 151940, Note_on_c, 0, 79, 106
2, 151950, Note_on_c, 0, 67, 92
2, 151994, Note_on_c, 0, 51, 0
2, 152050, Note_on_c, 0, 55, 56
2, 152086, Control_c, 0, 64, 127
2, 152106, Note_on_c, 0, 55, 0
2, 152128, Note_on_c, 0, 79, 0
2, 152144, Note_on_c, 0, 51, 49
2, 152164, Note_on_c, 0, 67, 0
2, 152198, Note_on_c, 0, 51, 0
2, 152236, Note_on_c, 0, 55, 51
2, 152300, Note_on_c, 0, 55, 0
2, 152334, Note_on_c, 0, 75, 94
2, 152340, Note_on_c, 0, 63, 90
2, 152346, Note_on_c, 0, 51, 54
2, 152398, Note_on_c, 0, 51, 0
2, 152452, Note_on_c, 0, 55, 59
2, 152506, Note_on_c, 0, 55, 0
2, 152536, Note_on_c, 0, 51, 55
2, 152594, Note_on_c, 0, 51, 0
2, 152622, Note_on_c, 0, 63, 0
2, 152634, Note_on_c, 0, 75, 0
2, 152646, Note_on_c, 0, 55, 50
2, 152700, Note_on_c, 0, 55, 0
2, 152702, Control_c, 0, 64, 0
2, 152714, Note_on_c, 0, 74, 100
2, 152724, Note_on_c, 0, 62, 84
2, 152727, Note_on_c, 0, 51, 60
2, 152792, Note_on_c, 0, 51, 0
2, 152832, Note_on_c, 0, 55, 49
2, 152888, Note_on_c, 0, 55, 0
2, 152902, Control_c, 0, 64, 127
2, 152916, Note_on_c, 0, 51, 53
2, 152974, Note_on_c, 0, 62, 0
2, 153014, Note_on_c, 0, 51, 0
2, 153016, Note_on_c, 0, 55, 55
2, 153068, Note_on_c, 0, 74, 0
2, 153090, Note_on_c, 0, 55, 0
2, 153104, Note_on_c, 0, 73, 81
2, 153104, Note_on_c, 0, 61, 79
2, 153116, Note_on_c, 0, 51, 54
2, 153208, Note_on_c, 0, 51, 0
2, 153222, Note_on_c, 0, 55, 51
2, 153284, Note_on_c, 0, 61, 0
2, 153298, Note_on_c, 0, 55, 0
2, 153298, Note_on_c, 0, 51, 56
2, 153370, Note_on_c, 0, 51, 0
2, 153388, Note_on_c, 0, 55, 55
2, 153462, Note_on_c, 0, 55, 0
2, 153476, Note_on_c, 0, 73, 0
2, 153498, Note_on_c, 0, 62, 68
2, 153501, Note_on_c, 0, 74, 85
2, 153522, Note_on_c, 0, 54, 55
2, 153532, Note_on_c, 0, 50, 52
2, 153542, Note_on_c, 0, 62, 0
2, 153545, Note_on_c, 0, 74, 0
2, 153752, Note_on_c, 0, 86, 85
2, 153824, Control_c, 0, 64, 0
2, 153934, Note_on_c, 0, 85, 86
2, 153998, Note_on_c, 0, 86, 0
2, 154130, Note_on_c, 0, 88, 80
2, 154198, Note_on_c, 0, 85, 0
2, 154316, Control_c, 0, 64, 127
2, 154334, Note_on_c, 0, 86, 75
2, 154378, Note_on_c, 0, 54, 0
2, 154388, Note_on_c, 0, 88, 0
2, 154500, Note_on_c, 0, 86, 0
2, 154504, Note_on_c, 0, 82, 62
2, 154518, Note_on_c, 0, 55, 64
2, 154674, Note_on_c, 0, 55, 0
2, 154678, Note_on_c, 0, 54, 76
2, 154692, Note_on_c, 0, 81, 69
2, 154724, Note_on_c, 0, 82, 0
2, 154792, Control_c, 0, 64, 0
2, 154860, Note_on_c, 0, 57, 73
2, 154862, Note_on_c, 0, 54, 0
2, 154870, Note_on_c, 0, 84, 76
2, 154886, Note_on_c, 0, 81, 0
2, 154930, Control_c, 0, 64, 127
2, 155060, Note_on_c, 0, 82, 62
2, 155064, Note_on_c, 0, 55, 79
2, 155068, Control_c, 0, 64, 0
2, 155092, Note_on_c, 0, 57, 0
2, 155102, Note_on_c, 0, 84, 0
2, 155234, Note_on_c, 0, 79, 76
2, 155248, Note_on_c, 0, 82, 0
2, 155250, Note_on_c, 0, 58, 64
2, 155348, Note_on_c, 0, 55, 0
2, 155410, Note_on_c, 0, 78, 65
2, 155430, Note_on_c, 0, 58, 0
2, 155432, Note_on_c, 0, 57, 72
2, 155456, Note_on_c, 0, 79, 0
2, 155600, Note_on_c, 0, 57, 0
2, 155602, Note_on_c, 0, 81, 73
2, 155610, Note_on_c, 0, 60, 54
2, 155620, Note_on_c, 0, 78, 0
2, 155798, Note_on_c, 0, 79, 70
2, 155804, Note_on_c, 0, 81, 0
2, 155810, Note_on_c, 0, 60, 0
2, 155828, Note_on_c, 0, 58, 32
2, 155978, Note_on_c, 0, 75, 56
2, 155981, Note_on_c, 0, 79, 0
2, 156082, Control_c, 0, 64, 127
2, 156174, Note_on_c, 0, 55, 43
2, 156184, Note_on_c, 0, 74, 58
2, 156187, Note_on_c, 0, 75, 0
2, 156204, Control_c, 0, 64, 0
2, 156216, Note_on_c, 0, 58, 0
2, 156348, Note_on_c, 0, 50, 0
2, 156358, Note_on_c, 0, 74, 0
2, 156364, Note_on_c, 0, 73, 47
2, 156404, Control_c, 0, 64, 127
2, 156548, Note_on_c, 0, 73, 0
2, 156558, Control_c, 0, 64, 0
2, 156566, Note_on_c, 0, 74, 53
2, 156568, Note_on_c, 0, 54, 39
2, 156582, Note_on_c, 0, 55, 0
2, 156582, Note_on_c, 0, 50, 38
2, 156722, Note_on_c, 0, 74, 0
2, 156794, Note_on_c, 0, 86, 30
2, 156940, Note_on_c, 0, 85, 65
2, 156978, Note_on_c, 0, 86, 0
2, 157088, Note_on_c, 0, 50, 0
2, 157110, Note_on_c, 0, 88, 66
2, 157128, Note_on_c, 0, 54, 0
2, 157128, Control_c, 0, 64, 127
2, 157172, Note_on_c, 0, 85, 0
2, 157310, Note_on_c, 0, 86, 80
2, 157358, Control_c, 0, 64, 0
2, 157380, Note_on_c, 0, 88, 0
2, 157478, Note_on_c, 0, 82, 68
2, 157500, Note_on_c, 0, 67, 49
2, 157506, Note_on_c, 0, 86, 0
2, 157662, Note_on_c, 0, 81, 67
2, 157666, Note_on_c, 0, 67, 0
2, 157670, Note_on_c, 0, 66, 49
2, 157712, Note_on_c, 0, 82, 0
2, 157836, Note_on_c, 0, 66, 0
2, 157840, Note_on_c, 0, 84, 83
2, 157852, Note_on_c, 0, 69, 49
2, 157860, Note_on_c, 0, 81, 0
2, 158026, Note_on_c, 0, 67, 61
2, 158029, Note_on_c, 0, 82, 65
2, 158032, Note_on_c, 0, 69, 0
2, 158086, Note_on_c, 0, 84, 0
2, 158192, Note_on_c, 0, 79, 71
2, 158210, Note_on_c, 0, 82, 0
2, 158210, Note_on_c, 0, 70, 52
2, 158224, Note_on_c, 0, 67, 0
2, 158380, Note_on_c, 0, 78, 63
2, 158382, Note_on_c, 0, 70, 0
2, 158386, Note_on_c, 0, 79, 0
2, 158402, Note_on_c, 0, 69, 34
2, 158534, Note_on_c, 0, 69, 0
2, 158564, Note_on_c, 0, 81, 61
2, 158576, Note_on_c, 0, 78, 0
2, 158592, Note_on_c, 0, 72, 30
2, 158732, Note_on_c, 0, 81, 0
2, 158754, Note_on_c, 0, 72, 0
2, 158757, Note_on_c, 0, 79, 57
2, 158786, Note_on_c, 0, 70, 34
2, 158946, Note_on_c, 0, 87, 70
2, 158949, Note_on_c, 0, 70, 0
2, 158966, Note_on_c, 0, 67, 32
2, 158970, Note_on_c, 0, 79, 0
2, 159092, Note_on_c, 0, 67, 0
2, 159136, Note_on_c, 0, 86, 75
2, 159140, Note_on_c, 0, 66, 37
2, 159196, Note_on_c, 0, 87, 0
2, 159300, Note_on_c, 0, 66, 0
2, 159314, Note_on_c, 0, 69, 40
2, 159316, Note_on_c, 0, 84, 74
2, 159356, Note_on_c, 0, 86, 0
2, 159408, Note_on_c, 0, 69, 0
2, 159492, Note_on_c, 0, 82, 52
2, 159494, Control_c, 0, 64, 127
2, 159506, Note_on_c, 0, 67, 56
2, 159508, Note_on_c, 0, 84, 0
2, 159656, Note_on_c, 0, 82, 0
2, 159664, Note_on_c, 0, 79, 61
2, 159672, Note_on_c, 0, 75, 79
2, 159682, Note_on_c, 0, 67, 0
2, 159846, Note_on_c, 0, 78, 67
2, 159852, Note_on_c, 0, 79, 0
2, 159856, Note_on_c, 0, 75, 0
2, 159858, Note_on_c, 0, 74, 76
2, 159924, Control_c, 0, 64, 0
2, 160034, Note_on_c, 0, 81, 65
2, 160048, Note_on_c, 0, 72, 57
2, 160054, Note_on_c, 0, 74, 0
2, 160072, Note_on_c, 0, 78, 0
2, 160206, Note_on_c, 0, 81, 0
2, 160214, Note_on_c, 0, 79, 74
2, 160220, Note_on_c, 0, 72, 0
2, 160232, Note_on_c, 0, 70, 39
2, 160384, Note_on_c, 0, 87, 75
2, 160386, Note_on_c, 0, 70, 0
2, 160400, Control_c, 0, 64, 127
2, 160416, Note_on_c, 0, 67, 43
2, 160420, Note_on_c, 0, 79, 0
2, 160556, Note_on_c, 0, 67, 0
2, 160578, Note_on_c, 0, 86, 75
2, 160578, Note_on_c, 0, 66, 37
2, 160584, Control_c, 0, 64, 0
2, 160626, Note_on_c, 0, 87, 0
2, 160760, Note_on_c, 0, 84, 71
2, 160766, Note_on_c, 0, 66, 0
2, 160774, Note_on_c, 0, 69, 29
2, 160786, Note_on_c, 0, 86, 0
2, 160882, Note_on_c, 0, 69, 0
2, 160938, Note_on_c, 0, 84, 0
2, 160944, Note_on_c, 0, 82, 47
2, 160962, Note_on_c, 0, 67, 36
2, 161068, Note_on_c, 0, 67, 0
2, 161076, Control_c, 0, 64, 127
2, 161100, Note_on_c, 0, 82, 0
2, 161120, Note_on_c, 0, 79, 49
2, 161122, Note_on_c, 0, 75, 72
2, 161278, Note_on_c, 0, 75, 0
2, 161288, Note_on_c, 0, 78, 49
2, 161292, Note_on_c, 0, 79, 0
2, 161304, Note_on_c, 0, 74, 59
2, 161382, Control_c, 0, 64, 0
2, 161472, Note_on_c, 0, 74, 0
2, 161475, Note_on_c, 0, 81, 55
2, 161480, Note_on_c, 0, 78, 0
2, 161492, Note_on_c, 0, 72, 37
2, 161646, Note_on_c, 0, 72, 0
2, 161652, Note_on_c, 0, 79, 70
2, 161662, Note_on_c, 0, 70, 38
2, 161676, Control_c, 0, 64, 127
2, 161680, Note_on_c, 0, 81, 0
2, 161736, Control_c, 0, 64, 0
2, 161836, Note_on_c, 0, 82, 50
2, 161838, Note_on_c, 0, 70, 0
2, 161846, Note_on_c, 0, 79, 0
2, 161852, Note_on_c, 0, 67, 41
2, 161982, Control_c, 0, 64, 127
2, 161984, Note_on_c, 0, 67, 0
2, 162020, Note_on_c, 0, 72, 42
2, 162023, Note_on_c, 0, 76, 46
2, 162074, Note_on_c, 0, 82, 0
2, 162152, Control_c, 0, 64, 0
2, 162190, Note_on_c, 0, 79, 67
2, 162204, Note_on_c, 0, 76, 0
2, 162204, Note_on_c, 0, 72, 0
2, 162204, Note_on_c, 0, 70, 42
2, 162362, Note_on_c, 0, 77, 67
2, 162366, Control_c, 0, 64, 127
2, 162372, Note_on_c, 0, 70, 0
2, 162376, Note_on_c, 0, 68, 39
2, 162380, Note_on_c, 0, 79, 0
2, 162412, Control_c, 0, 64, 0
2, 162524, Note_on_c, 0, 80, 64
2, 162528, Note_on_c, 0, 68, 0
2, 162548, Note_on_c, 0, 65, 44
2, 162554, Note_on_c, 0, 77, 0
2, 162628, Control_c, 0, 64, 127
2, 162700, Note_on_c, 0, 65, 0
2, 162706, Note_on_c, 0, 70, 54
2, 162708, Note_on_c, 0, 74, 71
2, 162720, Control_c, 0, 64, 0
2, 162738, Note_on_c, 0, 80, 0
2, 162874, Note_on_c, 0, 77, 74
2, 162882, Note_on_c, 0, 70, 0
2, 162885, Note_on_c, 0, 74, 0
2, 162890, Note_on_c, 0, 68, 54
2, 162920, Control_c, 0, 64, 127
2, 163028, Control_c, 0, 64, 0
2, 163042, Note_on_c, 0, 68, 0
2, 163052, Note_on_c, 0, 75, 73
2, 163062, Note_on_c, 0, 67, 56
2, 163086, Note_on_c, 0, 77, 0
2, 163212, Control_c, 0, 64, 127
2, 163226, Note_on_c, 0, 67, 0
2, 163230, Note_on_c, 0, 79, 79
2, 163242, Note_on_c, 0, 63, 62
2, 163264, Note_on_c, 0, 75, 0
2, 163274, Control_c, 0, 64, 0
2, 163402, Note_on_c, 0, 72, 56
2, 163414, Note_on_c, 0, 68, 56
2, 163426, Note_on_c, 0, 63, 0
2, 163432, Note_on_c, 0, 79, 0
2, 163488, Control_c, 0, 64, 127
2, 163556, Note_on_c, 0, 75, 60
2, 163584, Note_on_c, 0, 72, 0
2, 163584, Note_on_c, 0, 68, 0
2, 163592, Note_on_c, 0, 67, 49
2, 163704, Control_c, 0, 64, 0
2, 163752, Note_on_c, 0, 74, 59
2, 163766, Note_on_c, 0, 75, 0
2, 163776, Note_on_c, 0, 65, 47
2, 163778, Note_on_c, 0, 67, 0
2, 163906, Note_on_c, 0, 65, 0
2, 163930, Note_on_c, 0, 77, 46
2, 163944, Note_on_c, 0, 74, 0
2, 163958, Note_on_c, 0, 62, 38
2, 164062, Note_on_c, 0, 62, 0
2, 164088, Note_on_c, 0, 77, 0
2, 164091, Note_on_c, 0, 71, 50
2, 164102, Control_c, 0, 64, 127
2, 164120, Note_on_c, 0, 67, 36
2, 164148, Control_c, 0, 64, 0
2, 164192, Note_on_c, 0, 71, 0
2, 164236, Note_on_c, 0, 67, 0
2, 164276, Note_on_c, 0, 74, 50
2, 164318, Control_c, 0, 64, 127
2, 164330, Note_on_c, 0, 65, 20
2, 164424, Note_on_c, 0, 65, 0
2, 164442, Control_c, 0, 64, 0
2, 164460, Note_on_c, 0, 74, 0
2, 164466, Note_on_c, 0, 72, 53
2, 164478, Note_on_c, 0, 63, 40
2, 164594, Control_c, 0, 64, 127
2, 164624, Note_on_c, 0, 63, 0
2, 164628, Note_on_c, 0, 80, 78
2, 164672, Control_c, 0, 64, 0
2, 164678, Note_on_c, 0, 60, 36
2, 164681, Note_on_c, 0, 72, 0
2, 164796, Note_on_c, 0, 60, 0
2, 164818, Note_on_c, 0, 79, 85
2, 164838, Note_on_c, 0, 59, 38
2, 164900, Note_on_c, 0, 80, 0
2, 164902, Control_c, 0, 64, 127
2, 164962, Note_on_c, 0, 59, 0
2, 165002, Note_on_c, 0, 77, 66
2, 165008, Note_on_c, 0, 62, 40
2, 165044, Note_on_c, 0, 79, 0
2, 165132, Control_c, 0, 64, 0
2, 165150, Note_on_c, 0, 62, 0
2, 165180, Note_on_c, 0, 75, 53
2, 165186, Note_on_c, 0, 60, 50
2, 165196, Note_on_c, 0, 77, 0
2, 165310, Note_on_c, 0, 60, 0
2, 165316, Control_c, 0, 64, 127
2, 165342, Note_on_c, 0, 75, 0
2, 165344, Note_on_c, 0, 68, 79
2, 165356, Note_on_c, 0, 72, 47
2, 165516, Note_on_c, 0, 68, 0
2, 165532, Note_on_c, 0, 67, 58
2, 165542, Note_on_c, 0, 72, 0
2, 165550, Note_on_c, 0, 71, 52
2, 165640, Control_c, 0, 64, 0
2, 165714, Note_on_c, 0, 74, 54
2, 165716, Note_on_c, 0, 67, 0
2, 165720, Note_on_c, 0, 71, 0
2, 165740, Note_on_c, 0, 65, 44
2, 165854, Note_on_c, 0, 65, 0
2, 165856, Note_on_c, 0, 74, 0
2, 165870, Control_c, 0, 64, 127
2, 165890, Note_on_c, 0, 72, 58
2, 165918, Note_on_c, 0, 63, 46
2, 166060, Note_on_c, 0, 63, 0
2, 166072, Note_on_c, 0, 80, 86
2, 166118, Note_on_c, 0, 72, 0
2, 166121, Note_on_c, 0, 60, 30
2, 166208, Note_on_c, 0, 60, 0
2, 166208, Control_c, 0, 64, 0
2, 166266, Note_on_c, 0, 59, 36
2, 166266, Note_on_c, 0, 79, 74
2, 166324, Note_on_c, 0, 80, 0
2, 166406, Note_on_c, 0, 59, 0
2, 166440, Note_on_c, 0, 62, 34
2, 166450, Note_on_c, 0, 77, 46
2, 166454, Control_c, 0, 64, 127
2, 166456, Note_on_c, 0, 79, 0
2, 166576, Control_c, 0, 64, 0
2, 166584, Note_on_c, 0, 62, 0
2, 166616, Note_on_c, 0, 75, 42
2, 166622, Note_on_c, 0, 77, 0
2, 166622, Note_on_c, 0, 60, 44
2, 166760, Control_c, 0, 64, 127
2, 166776, Note_on_c, 0, 68, 63
2, 166788, Note_on_c, 0, 72, 44
2, 166792, Note_on_c, 0, 75, 0
2, 166802, Note_on_c, 0, 60, 0
2, 166852, Control_c, 0, 64, 0
2, 166968, Note_on_c, 0, 68, 0
2, 166974, Note_on_c, 0, 67, 55
2, 166977, Note_on_c, 0, 71, 52
2, 166984, Note_on_c, 0, 72, 0
2, 167038, Control_c, 0, 64, 127
2, 167084, Control_c, 0, 64, 0
2, 167158, Note_on_c, 0, 74, 51
2, 167161, Note_on_c, 0, 67, 0
2, 167172, Note_on_c, 0, 65, 36
2, 167182, Note_on_c, 0, 71, 0
2, 167222, Control_c, 0, 64, 127
2, 167318, Note_on_c, 0, 65, 0
2, 167320, Note_on_c, 0, 74, 0
2, 167330, Control_c, 0, 64, 0
2, 167350, Note_on_c, 0, 72, 39
2, 167366, Note_on_c, 0, 63, 31
2, 167518, Note_on_c, 0, 79, 56
2, 167528, Control_c, 0, 64, 127
2, 167532, Note_on_c, 0, 72, 0
2, 167574, Note_on_c, 0, 63, 0
2, 167682, Note_on_c, 0, 79, 0
2, 167694, Note_on_c, 0, 71, 56
2, 167714, Control_c, 0, 64, 0
2, 167864, Note_on_c, 0, 74, 65
2, 167870, Note_on_c, 0, 68, 50
2, 167872, Note_on_c, 0, 71, 0
2, 167894, Note_on_c, 0, 65, 32
2, 168054, Note_on_c, 0, 72, 52
2, 168082, Note_on_c, 0, 68, 0
2, 168085, Note_on_c, 0, 74, 0
2, 168092, Note_on_c, 0, 67, 43
2, 168094, Note_on_c, 0, 65, 0
2, 168108, Note_on_c, 0, 63, 43
2, 168240, Note_on_c, 0, 67, 0
2, 168262, Note_on_c, 0, 79, 55
2, 168268, Note_on_c, 0, 72, 0
2, 168286, Note_on_c, 0, 63, 0
2, 168444, Note_on_c, 0, 79, 0
2, 168456, Note_on_c, 0, 71, 44
2, 168622, Note_on_c, 0, 68, 31
2, 168628, Note_on_c, 0, 71, 0
2, 168638, Note_on_c, 0, 74, 37
2, 168644, Note_on_c, 0, 65, 26
2, 168822, Note_on_c, 0, 74, 0
2, 168822, Note_on_c, 0, 72, 28
2, 168824, Note_on_c, 0, 68, 0
2, 168838, Note_on_c, 0, 65, 0
2, 168852, Note_on_c, 0, 67, 28
2, 168856, Note_on_c, 0, 63, 39
2, 169012, Note_on_c, 0, 67, 0
2, 169018, Note_on_c, 0, 72, 0
2, 169020, Note_on_c, 0, 79, 41
2, 169030, Note_on_c, 0, 63, 0
2, 169162, Note_on_c, 0, 79, 0
2, 169202, Note_on_c, 0, 71, 40
2, 169358, Note_on_c, 0, 71, 0
2, 169374, Note_on_c, 0, 68, 32
2, 169380, Note_on_c, 0, 65, 17
2, 169382, Note_on_c, 0, 74, 41
2, 169558, Note_on_c, 0, 72, 35
2, 169562, Note_on_c, 0, 63, 47
2, 169565, Note_on_c, 0, 67, 44
2, 169566, Note_on_c, 0, 74, 0
2, 169570, Note_on_c, 0, 65, 0
2, 169576, Note_on_c, 0, 68, 0
2, 169770, Note_on_c, 0, 72, 0
2, 169780, Note_on_c, 0, 79, 48
2, 169956, Control_c, 0, 64, 127
2, 169960, Note_on_c, 0, 79, 0
2, 169964, Note_on_c, 0, 72, 46
2, 170144, Note_on_c, 0, 72, 0
2, 170148, Note_on_c, 0, 79, 62
2, 170318, Note_on_c, 0, 79, 0
2, 170332, Note_on_c, 0, 72, 54
2, 170378, Note_on_c, 0, 67, 0
2, 170500, Note_on_c, 0, 72, 0
2, 170506, Note_on_c, 0, 79, 68
2, 170622, Note_on_c, 0, 63, 0
2, 170686, Note_on_c, 0, 72, 56
2, 170689, Note_on_c, 0, 79, 0
2, 170834, Note_on_c, 0, 72, 0
2, 170852, Note_on_c, 0, 79, 75
2, 171018, Note_on_c, 0, 63, 41
2, 171026, Note_on_c, 0, 79, 0
2, 171034, Note_on_c, 0, 72, 66
2, 171042, Note_on_c, 0, 67, 27
2, 171114, Note_on_c, 0, 63, 0
2, 171164, Note_on_c, 0, 67, 0
2, 171204, Note_on_c, 0, 72, 0
2, 171214, Note_on_c, 0, 79, 57
2, 171220, Note_on_c, 0, 84, 64
2, 171244, Note_on_c, 0, 60, 33
2, 171340, Note_on_c, 0, 60, 0
2, 171364, Note_on_c, 0, 84, 0
2, 171396, Note_on_c, 0, 72, 70
2, 171396, Note_on_c, 0, 67, 41
2, 171398, Note_on_c, 0, 63, 54
2, 171400, Note_on_c, 0, 79, 0
2, 171524, Note_on_c, 0, 67, 0
2, 171540, Note_on_c, 0, 63, 0
2, 171556, Note_on_c, 0, 60, 58
2, 171560, Note_on_c, 0, 72, 0
2, 171560, Note_on_c, 0, 79, 90
2, 171562, Note_on_c, 0, 84, 89
2, 171706, Note_on_c, 0, 60, 0
2, 171732, Note_on_c, 0, 84, 0
2, 171732, Note_on_c, 0, 67, 62
2, 171732, Note_on_c, 0, 72, 91
2, 171738, Note_on_c, 0, 63, 65
2, 171756, Note_on_c, 0, 79, 0
2, 171862, Note_on_c, 0, 67, 0
2, 171874, Note_on_c, 0, 63, 0
2, 171898, Note_on_c, 0, 79, 95
2, 171902, Note_on_c, 0, 84, 95
2, 171904, Note_on_c, 0, 72, 0
2, 171904, Note_on_c, 0, 60, 72
2, 172058, Note_on_c, 0, 60, 0
2, 172080, Note_on_c, 0, 84, 0
2, 172080, Note_on_c, 0, 67, 80
2, 172080, Note_on_c, 0, 72, 98
2, 172083, Note_on_c, 0, 63, 75
2, 172104, Note_on_c, 0, 79, 0
2, 172214, Note_on_c, 0, 63, 0
2, 172236, Note_on_c, 0, 79, 103
2, 172236, Note_on_c, 0, 84, 97
2, 172242, Note_on_c, 0, 72, 0
2, 172252, Note_on_c, 0, 60, 76
2, 172254, Note_on_c, 0, 67, 0
2, 172312, Note_on_c, 0, 60, 0
2, 172332, Note_on_c, 0, 79, 0
2, 172354, Note_on_c, 0, 84, 0
2, 172428, Note_on_c, 0, 84, 92
2, 172430, Note_on_c, 0, 79, 94
2, 172436, Note_on_c, 0, 68, 79
2, 172446, Control_c, 0, 64, 0
2, 172650, Note_on_c, 0, 72, 57
2, 172684, Note_on_c, 0, 68, 0
2, 172722, Control_c, 0, 64, 127
2, 172832, Note_on_c, 0, 68, 59
2, 172840, Note_on_c, 0, 72, 0
2, 172964, Note_on_c, 0, 79, 0
2, 172998, Note_on_c, 0, 68, 0
2, 173018, Note_on_c, 0, 80, 72
2, 173024, Note_on_c, 0, 72, 59
2, 173088, Note_on_c, 0, 79, 91
2, 173150, Note_on_c, 0, 72, 0
2, 173158, Note_on_c, 0, 80, 0
2, 173164, Note_on_c, 0, 77, 98
2, 173168, Note_on_c, 0, 68, 65
2, 173184, Control_c, 0, 64, 0
2, 173220, Note_on_c, 0, 79, 0
2, 173298, Note_on_c, 0, 77, 0
2, 173354, Note_on_c, 0, 72, 67
2, 173357, Note_on_c, 0, 68, 0
2, 173520, Note_on_c, 0, 72, 0
2, 173520, Note_on_c, 0, 77, 98
2, 173520, Note_on_c, 0, 68, 59
2, 173604, Note_on_c, 0, 77, 0
2, 173710, Note_on_c, 0, 72, 62
2, 173718, Note_on_c, 0, 84, 0
2, 173738, Note_on_c, 0, 68, 0
2, 173752, Control_c, 0, 64, 127
2, 173846, Note_on_c, 0, 72, 0
2, 173866, Note_on_c, 0, 85, 95
2, 173874, Note_on_c, 0, 77, 95
2, 173886, Note_on_c, 0, 67, 52
2, 174044, Control_c, 0, 64, 0
2, 174088, Note_on_c, 0, 70, 44
2, 174138, Note_on_c, 0, 67, 0
2, 174228, Control_c, 0, 64, 127
2, 174276, Note_on_c, 0, 67, 63
2, 174279, Note_on_c, 0, 70, 0
2, 174334, Note_on_c, 0, 77, 0
2, 174420, Note_on_c, 0, 79, 79
2, 174422, Note_on_c, 0, 70, 61
2, 174492, Note_on_c, 0, 77, 75
2, 174542, Note_on_c, 0, 79, 0
2, 174556, Note_on_c, 0, 70, 0
2, 174586, Note_on_c, 0, 76, 80
2, 174589, Note_on_c, 0, 60, 62
2, 174596, Control_c, 0, 64, 0
2, 174638, Note_on_c, 0, 77, 0
2, 174666, Note_on_c, 0, 67, 0
2, 174744, Note_on_c, 0, 70, 58
2, 174770, Note_on_c, 0, 60, 0
2, 174774, Note_on_c, 0, 76, 0
2, 174828, Control_c, 0, 64, 127
2, 174872, Note_on_c, 0, 70, 0
2, 174920, Control_c, 0, 64, 0
2, 174923, Note_on_c, 0, 60, 63
2, 174932, Note_on_c, 0, 76, 66
2, 174934, Note_on_c, 0, 82, 71
2, 175014, Note_on_c, 0, 60, 0
2, 175046, Note_on_c, 0, 85, 0
2, 175082, Note_on_c, 0, 70, 66
2, 175104, Control_c, 0, 64, 127
2, 175112, Note_on_c, 0, 79, 88
2, 175174, Note_on_c, 0, 82, 0
2, 175210, Note_on_c, 0, 70, 0
2, 175216, Note_on_c, 0, 76, 0
2, 175300, Note_on_c, 0, 80, 64
2, 175302, Note_on_c, 0, 65, 63
2, 175304, Control_c, 0, 64, 0
2, 175312, Note_on_c, 0, 79, 0
2, 175484, Note_on_c, 0, 72, 63
2, 175488, Note_on_c, 0, 80, 0
2, 175596, Note_on_c, 0, 65, 0
2, 175596, Control_c, 0, 64, 127
2, 175642, Note_on_c, 0, 72, 0
2, 175666, Note_on_c, 0, 80, 71
2, 175828, Note_on_c, 0, 80, 0
2, 175840, Note_on_c, 0, 72, 56
2, 176004, Note_on_c, 0, 80, 52
2, 176010, Note_on_c, 0, 72, 0
2, 176026, Note_on_c, 0, 41, 85
2, 176042, Control_c, 0, 64, 0
2, 176204, Note_on_c, 0, 73, 48
2, 176218, Note_on_c, 0, 80, 0
2, 176372, Note_on_c, 0, 73, 0
2, 176380, Control_c, 0, 64, 127
2, 176380, Note_on_c, 0, 80, 50
2, 176502, Note_on_c, 0, 41, 0
2, 176570, Note_on_c, 0, 43, 63
2, 176574, Note_on_c, 0, 73, 46
2, 176610, Note_on_c, 0, 80, 0
2, 176644, Note_on_c, 0, 43, 0
2, 176660, Note_on_c, 0, 41, 74
2, 176734, Control_c, 0, 64, 0
2, 176760, Note_on_c, 0, 79, 69
2, 176766, Note_on_c, 0, 73, 0
2, 176766, Note_on_c, 0, 40, 92
2, 176788, Note_on_c, 0, 41, 0
2, 176944, Note_on_c, 0, 79, 0
2, 176947, Note_on_c, 0, 73, 50
2, 177058, Note_on_c, 0, 40, 0
2, 177070, Control_c, 0, 64, 127
2, 177134, Note_on_c, 0, 79, 76
2, 177142, Note_on_c, 0, 73, 0
2, 177192, Control_c, 0, 64, 0
2, 177302, Note_on_c, 0, 73, 54
2, 177336, Note_on_c, 0, 79, 0
2, 177484, Note_on_c, 0, 63, 65
2, 177492, Note_on_c, 0, 73, 0
2, 177496, Note_on_c, 0, 79, 69
2, 177640, Note_on_c, 0, 79, 0
2, 177690, Note_on_c, 0, 72, 42
2, 177848, Note_on_c, 0, 72, 0
2, 177870, Control_c, 0, 64, 127
2, 177884, Note_on_c, 0, 79, 59
2, 177948, Note_on_c, 0, 63, 0
2, 178000, Note_on_c, 0, 79, 0
2, 178042, Note_on_c, 0, 72, 35
2, 178045, Note_on_c, 0, 65, 27
2, 178110, Note_on_c, 0, 63, 59
2, 178118, Note_on_c, 0, 65, 0
2, 178142, Note_on_c, 0, 72, 0
2, 178146, Control_c, 0, 64, 0
2, 178210, Note_on_c, 0, 77, 44
2, 178213, Note_on_c, 0, 63, 0
2, 178228, Note_on_c, 0, 62, 51
2, 178388, Note_on_c, 0, 77, 0
2, 178406, Note_on_c, 0, 72, 44
2, 178516, Control_c, 0, 64, 127
2, 178528, Note_on_c, 0, 62, 0
2, 178554, Note_on_c, 0, 72, 0
2, 178588, Note_on_c, 0, 77, 48
2, 178608, Control_c, 0, 64, 0
2, 178750, Note_on_c, 0, 77, 0
2, 178750, Note_on_c, 0, 72, 44
2, 178910, Note_on_c, 0, 37, 78
2, 178913, Note_on_c, 0, 77, 59
2, 178954, Note_on_c, 0, 72, 0
2, 178976, Control_c, 0, 64, 127
2, 179084, Note_on_c, 0, 70, 38
2, 179092, Note_on_c, 0, 77, 0
2, 179176, Control_c, 0, 64, 0
2, 179276, Note_on_c, 0, 77, 48
2, 179286, Note_on_c, 0, 70, 0
2, 179396, Note_on_c, 0, 37, 0
2, 179406, Control_c, 0, 64, 127
2, 179438, Note_on_c, 0, 70, 44
2, 179446, Note_on_c, 0, 39, 51
2, 179500, Note_on_c, 0, 77, 0
2, 179530, Note_on_c, 0, 37, 70
2, 179560, Control_c, 0, 64, 0
2, 179570, Note_on_c, 0, 39, 0
2, 179640, Note_on_c, 0, 36, 75
2, 179652, Note_on_c, 0, 75, 44
2, 179678, Note_on_c, 0, 70, 0
2, 179681, Note_on_c, 0, 37, 0
2, 179834, Note_on_c, 0, 70, 41
2, 179866, Note_on_c, 0, 75, 0
2, 179958, Note_on_c, 0, 36, 0
2, 179990, Control_c, 0, 64, 127
2, 180026, Note_on_c, 0, 75, 45
2, 180052, Note_on_c, 0, 70, 0
2, 180082, Control_c, 0, 64, 0
2, 180210, Note_on_c, 0, 75, 0
2, 180213, Note_on_c, 0, 70, 46
2, 180394, Note_on_c, 0, 60, 72
2, 180406, Note_on_c, 0, 75, 43
2, 180408, Note_on_c, 0, 70, 0
2, 180576, Note_on_c, 0, 75, 0
2, 180579, Note_on_c, 0, 68, 44
2, 180636, Control_c, 0, 64, 127
2, 180748, Note_on_c, 0, 68, 0
2, 180751, Note_on_c, 0, 75, 47
2, 180834, Note_on_c, 0, 60, 0
2, 180906, Note_on_c, 0, 61, 49
2, 180920, Note_on_c, 0, 68, 42
2, 180972, Note_on_c, 0, 75, 0
2, 180972, Control_c, 0, 64, 0
2, 180975, Note_on_c, 0, 61, 0
2, 181000, Note_on_c, 0, 60, 51
2, 181108, Note_on_c, 0, 73, 44
2, 181108, Note_on_c, 0, 58, 54
2, 181126, Note_on_c, 0, 68, 0
2, 181129, Note_on_c, 0, 60, 0
2, 181296, Note_on_c, 0, 73, 0
2, 181296, Note_on_c, 0, 68, 45
2, 181358, Control_c, 0, 64, 127
2, 181386, Note_on_c, 0, 58, 0
2, 181498, Note_on_c, 0, 73, 48
2, 181501, Note_on_c, 0, 68, 0
2, 181556, Control_c, 0, 64, 0
2, 181662, Note_on_c, 0, 73, 0
2, 181662, Note_on_c, 0, 68, 48
2, 181838, Note_on_c, 0, 34, 65
2, 181868, Note_on_c, 0, 73, 42
2, 181876, Note_on_c, 0, 68, 0
2, 182040, Note_on_c, 0, 67, 45
2, 182054, Note_on_c, 0, 73, 0
2, 182186, Note_on_c, 0, 67, 0
2, 182212, Note_on_c, 0, 73, 51
2, 182264, Control_c, 0, 64, 127
2, 182336, Note_on_c, 0, 34, 0
2, 182400, Note_on_c, 0, 73, 0
2, 182403, Note_on_c, 0, 36, 61
2, 182410, Note_on_c, 0, 67, 49
2, 182478, Note_on_c, 0, 34, 69
2, 182492, Note_on_c, 0, 36, 0
2, 182556, Note_on_c, 0, 32, 73
2, 182558, Note_on_c, 0, 67, 0
2, 182572, Note_on_c, 0, 34, 0
2, 182578, Note_on_c, 0, 72, 60
2, 182602, Control_c, 0, 64, 0
2, 182680, Note_on_c, 0, 75, 60
2, 182692, Note_on_c, 0, 72, 0
2, 182778, Note_on_c, 0, 77, 60
2, 182796, Note_on_c, 0, 75, 0
2, 182856, Note_on_c, 0, 32, 0
2, 182856, Note_on_c, 0, 75, 69
2, 182878, Control_c, 0, 64, 127
2, 182918, Note_on_c, 0, 77, 0
2, 182971, Note_on_c, 0, 73, 58
2, 183014, Note_on_c, 0, 75, 0
2, 183038, Note_on_c, 0, 73, 0
2, 183056, Note_on_c, 0, 72, 52
2, 183128, Note_on_c, 0, 72, 0
2, 183140, Note_on_c, 0, 70, 63
2, 183238, Note_on_c, 0, 68, 67
2, 183262, Control_c, 0, 64, 0
2, 183278, Note_on_c, 0, 61, 63
2, 183284, Note_on_c, 0, 70, 0
2, 183284, Note_on_c, 0, 58, 45
2, 183306, Note_on_c, 0, 51, 32
2, 183332, Note_on_c, 0, 67, 77
2, 183354, Note_on_c, 0, 68, 0
2, 183414, Note_on_c, 0, 67, 0
2, 183426, Note_on_c, 0, 77, 75
2, 183512, Note_on_c, 0, 75, 51
2, 183548, Note_on_c, 0, 77, 0
2, 183596, Note_on_c, 0, 73, 65
2, 183652, Note_on_c, 0, 75, 0
2, 183684, Note_on_c, 0, 72, 67
2, 183706, Note_on_c, 0, 73, 0
2, 183708, Control_c, 0, 64, 127
2, 183768, Note_on_c, 0, 70, 62
2, 183820, Note_on_c, 0, 72, 0
2, 183858, Note_on_c, 0, 68, 64
2, 183930, Note_on_c, 0, 70, 0
2, 183944, Note_on_c, 0, 67, 76
2, 183950, Note_on_c, 0, 61, 0
2, 183952, Note_on_c, 0, 68, 0
2, 184000, Control_c, 0, 64, 0
2, 184016, Note_on_c, 0, 58, 0
2, 184028, Note_on_c, 0, 60, 50
2, 184042, Note_on_c, 0, 68, 60
2, 184046, Note_on_c, 0, 56, 30
2, 184050, Note_on_c, 0, 67, 0
2, 184096, Note_on_c, 0, 51, 0
2, 184126, Note_on_c, 0, 70, 73
2, 184152, Note_on_c, 0, 68, 0
2, 184204, Note_on_c, 0, 70, 0
2, 184216, Note_on_c, 0, 72, 80
2, 184276, Control_c, 0, 64, 127
2, 184302, Note_on_c, 0, 73, 78
2, 184307, Note_on_c, 0, 72, 0
2, 184382, Note_on_c, 0, 75, 83
2, 184422, Note_on_c, 0, 73, 0
2, 184480, Note_on_c, 0, 77, 86
2, 184485, Note_on_c, 0, 75, 0
2, 184500, Note_on_c, 0, 56, 0
2, 184562, Note_on_c, 0, 79, 95
2, 184580, Note_on_c, 0, 77, 0
2, 184616, Note_on_c, 0, 60, 0
2, 184652, Note_on_c, 0, 80, 86
2, 184692, Note_on_c, 0, 79, 0
2, 184695, Note_on_c, 0, 63, 67
2, 184708, Control_c, 0, 64, 0
2, 184716, Note_on_c, 0, 58, 38
2, 184724, Note_on_c, 0, 55, 52
2, 184752, Note_on_c, 0, 82, 76
2, 184832, Note_on_c, 0, 80, 0
2, 184842, Note_on_c, 0, 84, 96
2, 184868, Note_on_c, 0, 82, 0
2, 184928, Note_on_c, 0, 82, 69
2, 185006, Note_on_c, 0, 84, 0
2, 185022, Note_on_c, 0, 80, 75
2, 185060, Control_c, 0, 64, 127
2, 185080, Note_on_c, 0, 82, 0
2, 185100, Note_on_c, 0, 79, 80
2, 185152, Note_on_c, 0, 79, 0
2, 185154, Note_on_c, 0, 80, 0
2, 185186, Note_on_c, 0, 77, 63
2, 185216, Note_on_c, 0, 63, 0
2, 185238, Note_on_c, 0, 77, 0
2, 185274, Note_on_c, 0, 75, 58
2, 185342, Note_on_c, 0, 73, 60
2, 185366, Note_on_c, 0, 75, 0
2, 185368, Control_c, 0, 64, 0
2, 185424, Note_on_c, 0, 63, 57
2, 185428, Note_on_c, 0, 56, 44
2, 185430, Note_on_c, 0, 60, 42
2, 185446, Note_on_c, 0, 72, 70
2, 185450, Note_on_c, 0, 55, 0
2, 185456, Note_on_c, 0, 73, 0
2, 185460, Note_on_c, 0, 58, 0
2, 185522, Note_on_c, 0, 72, 0
2, 185526, Note_on_c, 0, 75, 67
2, 185620, Note_on_c, 0, 77, 73
2, 185630, Note_on_c, 0, 75, 0
2, 185710, Note_on_c, 0, 75, 62
2, 185734, Note_on_c, 0, 77, 0
2, 185806, Note_on_c, 0, 73, 62
2, 185840, Note_on_c, 0, 75, 0
2, 185860, Control_c, 0, 64, 127
2, 185898, Note_on_c, 0, 72, 55
2, 185908, Note_on_c, 0, 63, 0
2, 185908, Note_on_c, 0, 73, 0
2, 185922, Note_on_c, 0, 60, 0
2, 185966, Note_on_c, 0, 72, 0
2, 185976, Note_on_c, 0, 70, 54
2, 186060, Note_on_c, 0, 68, 61
2, 186104, Control_c, 0, 64, 0
2, 186124, Note_on_c, 0, 70, 0
2, 186142, Note_on_c, 0, 63, 55
2, 186148, Note_on_c, 0, 58, 29
2, 186150, Note_on_c, 0, 61, 42
2, 186158, Note_on_c, 0, 67, 65
2, 186164, Note_on_c, 0, 68, 0
2, 186202, Note_on_c, 0, 56, 0
2, 186216, Note_on_c, 0, 67, 0
2, 186260, Note_on_c, 0, 77, 51
2, 186318, Note_on_c, 0, 77, 0
2, 186326, Note_on_c, 0, 75, 42
2, 186412, Note_on_c, 0, 73, 56
2, 186464, Note_on_c, 0, 75, 0
2, 186488, Note_on_c, 0, 73, 0
2, 186508, Note_on_c, 0, 72, 54
2, 186590, Note_on_c, 0, 70, 49
2, 186608, Note_on_c, 0, 72, 0
2, 186618, Note_on_c, 0, 63, 0
2, 186626, Control_c, 0, 64, 127
2, 186672, Note_on_c, 0, 68, 53
2, 186700, Note_on_c, 0, 61, 0
2, 186748, Note_on_c, 0, 70, 0
2, 186756, Note_on_c, 0, 68, 0
2, 186766, Note_on_c, 0, 67, 63
2, 186812, Control_c, 0, 64, 0
2, 186832, Note_on_c, 0, 67, 0
2, 186838, Note_on_c, 0, 63, 57
2, 186846, Note_on_c, 0, 60, 50
2, 186858, Note_on_c, 0, 68, 50
2, 186922, Note_on_c, 0, 58, 0
2, 186942, Note_on_c, 0, 70, 65
2, 186970, Note_on_c, 0, 68, 0
2, 187004, Note_on_c, 0, 70, 0
2, 187030, Note_on_c, 0, 72, 75
2, 187088, Note_on_c, 0, 72, 0
2, 187114, Note_on_c, 0, 73, 73
2, 187192, Note_on_c, 0, 75, 84
2, 187224, Note_on_c, 0, 73, 0
2, 187286, Note_on_c, 0, 77, 78
2, 187294, Note_on_c, 0, 75, 0
2, 187348, Note_on_c, 0, 77, 0
2, 187360, Note_on_c, 0, 63, 0
2, 187364, Control_c, 0, 64, 127
2, 187382, Note_on_c, 0, 79, 81
2, 187472, Control_c, 0, 64, 0
2, 187477, Note_on_c, 0, 80, 72
2, 187488, Note_on_c, 0, 79, 0
2, 187524, Note_on_c, 0, 63, 57
2, 187532, Note_on_c, 0, 58, 37
2, 187534, Note_on_c, 0, 55, 55
2, 187576, Note_on_c, 0, 82, 66
2, 187602, Note_on_c, 0, 80, 0
2, 187638, Note_on_c, 0, 60, 0
2, 187666, Note_on_c, 0, 84, 73
2, 187684, Note_on_c, 0, 82, 0
2, 187746, Note_on_c, 0, 82, 61
2, 187800, Note_on_c, 0, 84, 0
2, 187842, Note_on_c, 0, 80, 64
2, 187884, Note_on_c, 0, 82, 0
2, 187934, Note_on_c, 0, 79, 63
2, 187978, Note_on_c, 0, 80, 0
2, 187984, Note_on_c, 0, 79, 0
2, 188010, Control_c, 0, 64, 127
2, 188016, Note_on_c, 0, 77, 47
2, 188077, Note_on_c, 0, 55, 0
2, 188078, Note_on_c, 0, 77, 0
2, 188094, Note_on_c, 0, 75, 50
2, 188184, Note_on_c, 0, 73, 47
2, 188202, Note_on_c, 0, 75, 0
2, 188205, Note_on_c, 0, 58, 0
2, 188220, Control_c, 0, 64, 0
2, 188262, Note_on_c, 0, 68, 58
2, 188274, Note_on_c, 0, 73, 0
2, 188286, Note_on_c, 0, 63, 0
2, 188292, Note_on_c, 0, 72, 51
2, 188356, Note_on_c, 0, 72, 0
2, 188374, Note_on_c, 0, 73, 34
2, 188466, Note_on_c, 0, 73, 0
2, 188466, Note_on_c, 0, 75, 54
2, 188564, Note_on_c, 0, 73, 42
2, 188598, Note_on_c, 0, 75, 0
2, 188646, Note_on_c, 0, 73, 0
2, 188649, Note_on_c, 0, 63, 55
2, 188664, Note_on_c, 0, 72, 44
2, 188670, Note_on_c, 0, 68, 0
2, 188734, Note_on_c, 0, 73, 37
2, 188738, Note_on_c, 0, 72, 0
2, 188820, Note_on_c, 0, 73, 0
2, 188824, Note_on_c, 0, 75, 52
2, 188914, Note_on_c, 0, 73, 36
2, 188932, Note_on_c, 0, 75, 0
2, 188986, Note_on_c, 0, 73, 0
2, 189006, Note_on_c, 0, 63, 0
2, 189010, Note_on_c, 0, 72, 38
2, 189012, Note_on_c, 0, 60, 47
2, 189074, Note_on_c, 0, 73, 40
2, 189084, Note_on_c, 0, 72, 0
2, 189176, Note_on_c, 0, 75, 46
2, 189179, Note_on_c, 0, 73, 0
2, 189272, Note_on_c, 0, 73, 38
2, 189280, Note_on_c, 0, 75, 0
2, 189338, Note_on_c, 0, 60, 0
2, 189346, Note_on_c, 0, 56, 43
2, 189350, Note_on_c, 0, 73, 0
2, 189376, Note_on_c, 0, 72, 40
2, 189448, Note_on_c, 0, 73, 35
2, 189451, Note_on_c, 0, 72, 0
2, 189538, Note_on_c, 0, 73, 0
2, 189552, Note_on_c, 0, 75, 35
2, 189626, Note_on_c, 0, 73, 32
2, 189638, Note_on_c, 0, 75, 0
2, 189706, Note_on_c, 0, 73, 0
2, 189724, Note_on_c, 0, 56, 0
2, 189726, Note_on_c, 0, 66, 30
2, 189746, Note_on_c, 0, 72, 27
2, 189822, Note_on_c, 0, 73, 26
2, 189824, Note_on_c, 0, 72, 0
2, 189908, Note_on_c, 0, 73, 0
2, 189922, Note_on_c, 0, 75, 36
2, 190010, Note_on_c, 0, 73, 28
2, 190014, Note_on_c, 0, 75, 0
2, 190092, Note_on_c, 0, 73, 0
2, 190092, Note_on_c, 0, 63, 38
2, 190122, Note_on_c, 0, 72, 30
2, 190162, Note_on_c, 0, 66, 0
2, 190190, Note_on_c, 0, 73, 30
2, 190198, Note_on_c, 0, 72, 0
2, 190278, Note_on_c, 0, 73, 0
2, 190282, Note_on_c, 0, 75, 39
2, 190360, Note_on_c, 0, 73, 42
2, 190376, Note_on_c, 0, 75, 0
2, 190448, Note_on_c, 0, 73, 0
2, 190448, Note_on_c, 0, 60, 45
2, 190470, Note_on_c, 0, 72, 40
2, 190492, Note_on_c, 0, 63, 0
2, 190542, Note_on_c, 0, 73, 42
2, 190545, Note_on_c, 0, 72, 0
2, 190642, Note_on_c, 0, 75, 52
2, 190654, Note_on_c, 0, 73, 0
2, 190720, Note_on_c, 0, 73, 57
2, 190758, Note_on_c, 0, 75, 0
2, 190804, Note_on_c, 0, 73, 0
2, 190810, Note_on_c, 0, 60, 0
2, 190814, Note_on_c, 0, 72, 51
2, 190822, Note_on_c, 0, 54, 65
2, 190898, Note_on_c, 0, 72, 0
2, 190902, Note_on_c, 0, 73, 46
2, 190914, Control_c, 0, 64, 127
2, 190958, Note_on_c, 0, 54, 0
2, 190984, Note_on_c, 0, 75, 57
2, 191002, Note_on_c, 0, 73, 0
2, 191084, Note_on_c, 0, 73, 47
2, 191130, Note_on_c, 0, 75, 0
2, 191264, Note_on_c, 0, 72, 70
2, 191274, Note_on_c, 0, 73, 0
2, 191277, Note_on_c, 0, 42, 97
2, 191280, Note_on_c, 0, 30, 102
2, 191382, Note_on_c, 0, 74, 63
2, 191464, Note_on_c, 0, 72, 0
2, 191466, Note_on_c, 0, 74, 0
2, 191472, Note_on_c, 0, 75, 67
2, 191564, Note_on_c, 0, 74, 71
2, 191606, Note_on_c, 0, 75, 0
2, 191670, Note_on_c, 0, 74, 0
2, 191676, Note_on_c, 0, 72, 68
2, 191764, Note_on_c, 0, 74, 55
2, 191804, Note_on_c, 0, 72, 0
2, 191850, Note_on_c, 0, 75, 67
2, 191860, Note_on_c, 0, 74, 0
2, 191936, Note_on_c, 0, 74, 76
2, 191973, Note_on_c, 0, 75, 0
2, 192034, Note_on_c, 0, 74, 0
2, 192036, Note_on_c, 0, 72, 78
2, 192120, Note_on_c, 0, 74, 72
2, 192156, Note_on_c, 0, 72, 0
2, 192214, Note_on_c, 0, 75, 75
2, 192218, Note_on_c, 0, 74, 0
2, 192300, Note_on_c, 0, 74, 69
2, 192360, Note_on_c, 0, 75, 0
2, 192404, Note_on_c, 0, 72, 80
2, 192426, Note_on_c, 0, 74, 0
2, 192494, Note_on_c, 0, 75, 71
2, 192530, Note_on_c, 0, 72, 0
2, 192578, Note_on_c, 0, 74, 84
2, 192622, Note_on_c, 0, 75, 0
2, 192680, Note_on_c, 0, 72, 63
2, 192686, Note_on_c, 0, 74, 0
2, 192714, Note_on_c, 0, 30, 0
2, 192717, Note_on_c, 0, 42, 0
2, 192726, Note_on_c, 0, 72, 0
2, 192750, Note_on_c, 0, 43, 92
2, 192756, Note_on_c, 0, 31, 94
2, 192771, Note_on_c, 0, 71, 95
2, 192858, Note_on_c, 0, 67, 76
2, 192861, Note_on_c, 0, 71, 0
2, 192932, Note_on_c, 0, 67, 0
2, 192932, Note_on_c, 0, 71, 85
2, 192956, Note_on_c, 0, 31, 0
2, 193004, Control_c, 0, 64, 0
2, 193032, Note_on_c, 0, 74, 90
2, 193036, Note_on_c, 0, 43, 0
2, 193052, Note_on_c, 0, 71, 0
2, 193120, Note_on_c, 0, 79, 89
2, 193144, Note_on_c, 0, 74, 0
2, 193206, Note_on_c, 0, 74, 88
2, 193234, Note_on_c, 0, 79, 0
2, 193292, Note_on_c, 0, 71, 78
2, 193326, Note_on_c, 0, 74, 0
2, 193338, Note_on_c, 0, 71, 0
2, 193364, Note_on_c, 0, 67, 65
2, 193464, Note_on_c, 0, 67, 0
2, 193476, Note_on_c, 0, 66, 84
2, 193482, Note_on_c, 0, 55, 94
2, 193486, Note_on_c, 0, 48, 71
2, 193488, Note_on_c, 0, 51, 81
2, 193488, Note_on_c, 0, 43, 83
2, 193542, Control_c, 0, 64, 127
2, 193566, Note_on_c, 0, 55, 0
2, 193574, Note_on_c, 0, 66, 0
2, 193574, Note_on_c, 0, 67, 80
2, 193588, Note_on_c, 0, 43, 0
2, 193602, Note_on_c, 0, 48, 0
2, 193608, Note_on_c, 0, 51, 0
2, 193664, Note_on_c, 0, 72, 78
2, 193698, Note_on_c, 0, 67, 0
2, 193750, Note_on_c, 0, 75, 72
2, 193752, Control_c, 0, 64, 0
2, 193778, Note_on_c, 0, 72, 0
2, 193834, Note_on_c, 0, 79, 89
2, 193860, Note_on_c, 0, 75, 0
2, 193918, Note_on_c, 0, 75, 81
2, 193936, Note_on_c, 0, 79, 0
2, 193996, Note_on_c, 0, 72, 74
2, 194030, Note_on_c, 0, 75, 0
2, 194058, Note_on_c, 0, 72, 0
2, 194074, Note_on_c, 0, 67, 78
2, 194168, Note_on_c, 0, 55, 87
2, 194168, Note_on_c, 0, 66, 81
2, 194174, Note_on_c, 0, 67, 0
2, 194174, Note_on_c, 0, 47, 71
2, 194176, Note_on_c, 0, 50, 81
2, 194178, Note_on_c, 0, 43, 69
2, 194248, Control_c, 0, 64, 127
2, 194256, Note_on_c, 0, 67, 80
2, 194264, Note_on_c, 0, 43, 0
2, 194270, Note_on_c, 0, 55, 0
2, 194276, Note_on_c, 0, 66, 0
2, 194282, Note_on_c, 0, 50, 0
2, 194292, Note_on_c, 0, 47, 0
2, 194340, Note_on_c, 0, 71, 84
2, 194352, Note_on_c, 0, 67, 0
2, 194402, Control_c, 0, 64, 0
2, 194430, Note_on_c, 0, 74, 86
2, 194460, Note_on_c, 0, 71, 0
2, 194510, Note_on_c, 0, 74, 0
2, 194516, Note_on_c, 0, 79, 96
2, 194592, Note_on_c, 0, 74, 79
2, 194618, Note_on_c, 0, 79, 0
2, 194674, Note_on_c, 0, 71, 83
2, 194690, Note_on_c, 0, 74, 0
2, 194716, Note_on_c, 0, 71, 0
2, 194752, Note_on_c, 0, 67, 80
2, 194842, Note_on_c, 0, 67, 0
2, 194846, Note_on_c, 0, 55, 94
2, 194850, Note_on_c, 0, 66, 81
2, 194852, Note_on_c, 0, 48, 73
2, 194856, Note_on_c, 0, 51, 79
2, 194856, Note_on_c, 0, 43, 79
2, 194924, Control_c, 0, 64, 127
2, 194934, Note_on_c, 0, 67, 67
2, 194936, Note_on_c, 0, 43, 0
2, 194948, Note_on_c, 0, 66, 0
2, 194951, Note_on_c, 0, 55, 0
2, 194976, Note_on_c, 0, 48, 0
2, 194984, Note_on_c, 0, 51, 0
2, 195022, Note_on_c, 0, 72, 77
2, 195062, Control_c, 0, 64, 0
2, 195070, Note_on_c, 0, 67, 0
2, 195104, Note_on_c, 0, 75, 81
2, 195130, Note_on_c, 0, 72, 0
2, 195196, Note_on_c, 0, 79, 80
2, 195206, Note_on_c, 0, 75, 0
2, 195264, Note_on_c, 0, 75, 74
2, 195324, Note_on_c, 0, 79, 0
2, 195352, Note_on_c, 0, 72, 68
2, 195422, Note_on_c, 0, 75, 0
2, 195422, Note_on_c, 0, 67, 74
2, 195474, Note_on_c, 0, 72, 0
2, 195518, Note_on_c, 0, 43, 94
2, 195530, Note_on_c, 0, 79, 103
2, 195538, Note_on_c, 0, 67, 0
2, 195566, Note_on_c, 0, 47, 91
2, 195620, Note_on_c, 0, 43, 0
2, 195648, Control_c, 0, 64, 127
2, 195672, Note_on_c, 0, 79, 0
2, 195675, Note_on_c, 0, 50, 94
2, 195706, Note_on_c, 0, 47, 0
2, 195730, Note_on_c, 0, 50, 0
2, 195766, Note_on_c, 0, 55, 83
2, 195800, Control_c, 0, 64, 0
2, 195872, Note_on_c, 0, 56, 75
2, 195880, Note_on_c, 0, 55, 0
2, 195938, Note_on_c, 0, 55, 83
2, 195954, Note_on_c, 0, 56, 0
2, 196046, Note_on_c, 0, 50, 100
2, 196054, Note_on_c, 0, 55, 0
2, 196066, Note_on_c, 0, 67, 65
2, 196132, Note_on_c, 0, 72, 53
2, 196144, Note_on_c, 0, 50, 0
2, 196148, Note_on_c, 0, 47, 74
2, 196188, Note_on_c, 0, 75, 67
2, 196198, Note_on_c, 0, 47, 0
2, 196202, Note_on_c, 0, 67, 0
2, 196214, Note_on_c, 0, 79, 97
2, 196230, Note_on_c, 0, 43, 66
2, 196248, Note_on_c, 0, 72, 0
2, 196296, Note_on_c, 0, 48, 74
2, 196306, Note_on_c, 0, 75, 0
2, 196316, Note_on_c, 0, 43, 0
2, 196354, Control_c, 0, 64, 127
2, 196364, Note_on_c, 0, 79, 0
2, 196370, Note_on_c, 0, 51, 87
2, 196398, Note_on_c, 0, 48, 0
2, 196456, Note_on_c, 0, 55, 82
2, 196484, Note_on_c, 0, 51, 0
2, 196522, Control_c, 0, 64, 0
2, 196558, Note_on_c, 0, 55, 0
2, 196558, Note_on_c, 0, 56, 90
2, 196646, Note_on_c, 0, 55, 78
2, 196662, Note_on_c, 0, 56, 0
2, 196742, Note_on_c, 0, 51, 92
2, 196748, Note_on_c, 0, 67, 59
2, 196750, Note_on_c, 0, 55, 0
2, 196804, Note_on_c, 0, 71, 71
2, 196822, Note_on_c, 0, 48, 77
2, 196854, Note_on_c, 0, 51, 0
2, 196878, Note_on_c, 0, 74, 83
2, 196884, Note_on_c, 0, 67, 0
2, 196918, Note_on_c, 0, 43, 100
2, 196924, Note_on_c, 0, 79, 99
2, 196930, Note_on_c, 0, 48, 0
2, 196936, Note_on_c, 0, 71, 0
2, 196980, Note_on_c, 0, 74, 0
2, 196998, Note_on_c, 0, 47, 91
2, 197016, Note_on_c, 0, 79, 0
2, 197030, Control_c, 0, 64, 127
2, 197042, Note_on_c, 0, 43, 0
2, 197088, Note_on_c, 0, 50, 79
2, 197128, Note_on_c, 0, 47, 0
2, 197140, Note_on_c, 0, 50, 0
2, 197164, Note_on_c, 0, 55, 85
2, 197168, Control_c, 0, 64, 0
2, 197266, Note_on_c, 0, 55, 0
2, 197276, Note_on_c, 0, 56, 73
2, 197340, Note_on_c, 0, 55, 71
2, 197366, Note_on_c, 0, 56, 0
2, 197444, Note_on_c, 0, 55, 0
2, 197458, Note_on_c, 0, 50, 92
2, 197466, Note_on_c, 0, 67, 60
2, 197528, Note_on_c, 0, 72, 64
2, 197536, Note_on_c, 0, 47, 79
2, 197562, Note_on_c, 0, 50, 0
2, 197586, Note_on_c, 0, 75, 72
2, 197598, Note_on_c, 0, 67, 0
2, 197620, Note_on_c, 0, 43, 95
2, 197632, Note_on_c, 0, 79, 100
2, 197644, Note_on_c, 0, 47, 0
2, 197662, Note_on_c, 0, 72, 0
2, 197704, Note_on_c, 0, 48, 72
2, 197714, Note_on_c, 0, 75, 0
2, 197726, Note_on_c, 0, 79, 0
2, 197736, Control_c, 0, 64, 127
2, 197754, Note_on_c, 0, 43, 0
2, 197786, Note_on_c, 0, 51, 87
2, 197806, Note_on_c, 0, 48, 0
2, 197872, Note_on_c, 0, 55, 87
2, 197884, Note_on_c, 0, 51, 0
2, 197890, Control_c, 0, 64, 0
2, 197972, Note_on_c, 0, 56, 85
2, 197974, Note_on_c, 0, 55, 0
2, 198038, Note_on_c, 0, 56, 0
2, 198060, Note_on_c, 0, 55, 69
2, 198150, Note_on_c, 0, 51, 91
2, 198174, Note_on_c, 0, 55, 0
2, 198240, Note_on_c, 0, 48, 79
2, 198274, Note_on_c, 0, 51, 0
2, 198320, Note_on_c, 0, 43, 98
2, 198326, Note_on_c, 0, 48, 0
2, 198326, Note_on_c, 0, 79, 103
2, 198326, Note_on_c, 0, 67, 95
2, 198329, Note_on_c, 0, 71, 95
2, 198334, Note_on_c, 0, 74, 91
2, 198376, Note_on_c, 0, 43, 0
2, 198424, Note_on_c, 0, 67, 0
2, 198440, Control_c, 0, 64, 127
2, 198456, Note_on_c, 0, 79, 0
2, 198482, Note_on_c, 0, 71, 0
2, 198501, Note_on_c, 0, 74, 0
2, 198674, Control_c, 0, 64, 0
2, 199052, Note_on_c, 0, 83, 116
2, 199052, Note_on_c, 0, 74, 100
2, 199058, Note_on_c, 0, 79, 98
2, 199058, Note_on_c, 0, 55, 92
2, 199064, Note_on_c, 0, 43, 84
2, 199072, Note_on_c, 0, 50, 78
2, 199082, Note_on_c, 0, 47, 72
2, 199130, Note_on_c, 0, 50, 0
2, 199132, Note_on_c, 0, 83, 0
2, 199132, Note_on_c, 0, 47, 0
2, 199158, Note_on_c, 0, 74, 0
2, 199162, Note_on_c, 0, 55, 0
2, 199168, Note_on_c, 0, 43, 0
2, 199180, Control_c, 0, 64, 127
2, 199186, Note_on_c, 0, 79, 0
2, 199442, Control_c, 0, 64, 0
2, 199946, Note_on_c, 0, 47, 92
2, 199948, Note_on_c, 0, 55, 99
2, 199948, Note_on_c, 0, 50, 94
2, 199958, Note_on_c, 0, 43, 85
2, 199962, Note_on_c, 0, 31, 83
2, 200130, Note_on_c, 0, 31, 0
2, 200164, Note_on_c, 0, 43, 0
2, 200164, Control_c, 0, 64, 127
2, 200208, Note_on_c, 0, 47, 0
2, 200332, Note_on_c, 0, 50, 0
2, 200422, Note_on_c, 0, 55, 0
2, 203282, Control_c, 0, 64, 0
2, 204162, Note_on_c, 0, 83, 51
2, 204214, Note_on_c, 0, 80, 62
2, 204220, Note_on_c, 0, 68, 40
2, 204224, Note_on_c, 0, 83, 0
2, 204266, Note_on_c, 0, 80, 0
2, 204282, Note_on_c, 0, 68, 0
2, 204508, Note_on_c, 0, 83, 66
2, 204568, Note_on_c, 0, 66, 45
2, 204568, Note_on_c, 0, 78, 69
2, 204570, Note_on_c, 0, 83, 0
2, 204598, Note_on_c, 0, 59, 42
2, 204642, Note_on_c, 0, 78, 0
2, 204650, Note_on_c, 0, 59, 0
2, 204654, Note_on_c, 0, 66, 0
2, 204852, Note_on_c, 0, 83, 67
2, 204918, Note_on_c, 0, 83, 0
2, 204936, Note_on_c, 0, 76, 57
2, 204944, Note_on_c, 0, 56, 26
2, 204956, Note_on_c, 0, 64, 34
2, 204990, Note_on_c, 0, 76, 0
2, 205054, Note_on_c, 0, 64, 0
2, 205054, Note_on_c, 0, 56, 0
2, 205254, Note_on_c, 0, 83, 71
2, 205306, Note_on_c, 0, 83, 0
2, 205336, Note_on_c, 0, 71, 58
2, 205400, Note_on_c, 0, 71, 0
2, 205620, Note_on_c, 0, 83, 75
2, 205680, Note_on_c, 0, 68, 46
2, 205680, Note_on_c, 0, 80, 75
2, 205683, Note_on_c, 0, 83, 0
2, 205694, Note_on_c, 0, 64, 48
2, 205744, Note_on_c, 0, 64, 0
2, 205758, Note_on_c, 0, 68, 0
2, 205786, Note_on_c, 0, 80, 0
2, 205978, Note_on_c, 0, 83, 77
2, 206026, Note_on_c, 0, 83, 0
2, 206042, Note_on_c, 0, 78, 61
2, 206052, Note_on_c, 0, 66, 38
2, 206072, Note_on_c, 0, 59, 31
2, 206100, Note_on_c, 0, 78, 0
2, 206122, Note_on_c, 0, 66, 0
2, 206134, Note_on_c, 0, 59, 0
2, 206326, Note_on_c, 0, 83, 79
2, 206378, Note_on_c, 0, 83, 0
2, 206412, Note_on_c, 0, 56, 30
2, 206412, Note_on_c, 0, 76, 57
2, 206422, Note_on_c, 0, 64, 36
2, 206482, Note_on_c, 0, 76, 0
2, 206626, Note_on_c, 0, 56, 0
2, 206634, Note_on_c, 0, 64, 0
2, 206702, Note_on_c, 0, 83, 48
2, 206764, Note_on_c, 0, 83, 0
2, 206767, Note_on_c, 0, 71, 69
2, 206812, Note_on_c, 0, 71, 0
2, 207034, Note_on_c, 0, 64, 47
2, 207036, Note_on_c, 0, 88, 60
2, 207100, Note_on_c, 0, 83, 103
2, 207108, Note_on_c, 0, 68, 73
2, 207110, Note_on_c, 0, 64, 0
2, 207160, Note_on_c, 0, 88, 0
2, 207162, Note_on_c, 0, 68, 0
2, 207214, Note_on_c, 0, 83, 0
2, 207358, Note_on_c, 0, 64, 62
2, 207368, Note_on_c, 0, 88, 66
2, 207430, Note_on_c, 0, 85, 87
2, 207436, Note_on_c, 0, 64, 0
2, 207436, Note_on_c, 0, 69, 77
2, 207480, Note_on_c, 0, 88, 0
2, 207500, Note_on_c, 0, 69, 0
2, 207532, Note_on_c, 0, 85, 0
2, 207698, Note_on_c, 0, 88, 71
2, 207714, Note_on_c, 0, 64, 54
2, 207766, Note_on_c, 0, 64, 0
2, 207774, Note_on_c, 0, 86, 94
2, 207774, Note_on_c, 0, 71, 89
2, 207834, Note_on_c, 0, 88, 0
2, 207872, Note_on_c, 0, 86, 0
2, 207878, Note_on_c, 0, 71, 0
2, 208050, Note_on_c, 0, 88, 70
2, 208068, Note_on_c, 0, 64, 44
2, 208118, Note_on_c, 0, 64, 0
2, 208134, Note_on_c, 0, 85, 75
2, 208136, Note_on_c, 0, 73, 70
2, 208176, Note_on_c, 0, 73, 0
2, 208176, Note_on_c, 0, 88, 0
2, 208202, Note_on_c, 0, 85, 0
2, 208404, Note_on_c, 0, 88, 50
2, 208410, Note_on_c, 0, 64, 37
2, 208466, Note_on_c, 0, 64, 0
2, 208469, Note_on_c, 0, 88, 0
2, 208484, Note_on_c, 0, 83, 85
2, 208486, Note_on_c, 0, 74, 62
2, 208536, Note_on_c, 0, 83, 0
2, 208544, Note_on_c, 0, 74, 0
2, 208726, Note_on_c, 0, 88, 57
2, 208754, Note_on_c, 0, 64, 44
2, 208804, Note_on_c, 0, 88, 0
2, 208816, Note_on_c, 0, 64, 0
2, 208822, Note_on_c, 0, 80, 66
2, 208856, Note_on_c, 0, 74, 56
2, 208878, Note_on_c, 0, 80, 0
2, 208908, Note_on_c, 0, 74, 0
2, 209062, Note_on_c, 0, 88, 44
2, 209072, Note_on_c, 0, 64, 33
2, 209130, Note_on_c, 0, 64, 0
2, 209132, Note_on_c, 0, 88, 0
2, 209188, Note_on_c, 0, 81, 30
2, 209196, Note_on_c, 0, 73, 26
2, 209268, Note_on_c, 0, 81, 0
2, 209388, Note_on_c, 0, 73, 0
2, 209398, Control_c, 0, 64, 127
2, 209450, Note_on_c, 0, 85, 37
2, 209460, Control_c, 0, 64, 0
2, 209508, Note_on_c, 0, 85, 0
2, 209552, Note_on_c, 0, 76, 43
2, 209604, Note_on_c, 0, 76, 0
2, 209816, Note_on_c, 0, 76, 40
2, 209892, Note_on_c, 0, 73, 63
2, 209897, Note_on_c, 0, 61, 41
2, 209916, Note_on_c, 0, 57, 36
2, 209936, Note_on_c, 0, 76, 0
2, 209984, Note_on_c, 0, 57, 0
2, 209994, Note_on_c, 0, 73, 0
2, 209996, Note_on_c, 0, 61, 0
2, 210176, Note_on_c, 0, 76, 45
2, 210242, Note_on_c, 0, 76, 0
2, 210242, Note_on_c, 0, 59, 54
2, 210250, Note_on_c, 0, 71, 51
2, 210264, Note_on_c, 0, 52, 46
2, 210316, Note_on_c, 0, 52, 0
2, 210326, Note_on_c, 0, 71, 0
2, 210336, Note_on_c, 0, 59, 0
2, 210526, Note_on_c, 0, 76, 30
2, 210596, Note_on_c, 0, 76, 0
2, 210606, Note_on_c, 0, 49, 30
2, 210616, Note_on_c, 0, 69, 42
2, 210618, Note_on_c, 0, 57, 31
2, 210694, Note_on_c, 0, 69, 0
2, 210758, Note_on_c, 0, 49, 0
2, 210782, Note_on_c, 0, 57, 0
2, 210898, Note_on_c, 0, 76, 36
2, 210964, Note_on_c, 0, 76, 0
2, 211010, Note_on_c, 0, 64, 44
2, 211074, Note_on_c, 0, 64, 0
2, 211266, Note_on_c, 0, 76, 36
2, 211330, Note_on_c, 0, 76, 0
2, 211336, Note_on_c, 0, 73, 47
2, 211356, Note_on_c, 0, 61, 39
2, 211366, Note_on_c, 0, 57, 33
2, 211464, Note_on_c, 0, 57, 0
2, 211464, Note_on_c, 0, 73, 0
2, 211500, Note_on_c, 0, 61, 0
2, 211624, Note_on_c, 0, 76, 33
2, 211694, Note_on_c, 0, 76, 0
2, 211710, Note_on_c, 0, 71, 59
2, 211732, Note_on_c, 0, 59, 41
2, 211752, Note_on_c, 0, 52, 35
2, 211784, Note_on_c, 0, 71, 0
2, 211792, Note_on_c, 0, 59, 0
2, 211818, Note_on_c, 0, 52, 0
2, 212000, Note_on_c, 0, 76, 40
2, 212066, Note_on_c, 0, 76, 0
2, 212090, Note_on_c, 0, 57, 29
2, 212090, Note_on_c, 0, 49, 27
2, 212093, Note_on_c, 0, 69, 47
2, 212174, Note_on_c, 0, 69, 0
2, 212268, Note_on_c, 0, 57, 0
2, 212286, Note_on_c, 0, 49, 0
2, 212362, Note_on_c, 0, 76, 45
2, 212396, Control_c, 0, 64, 127
2, 212426, Note_on_c, 0, 76, 0
2, 212452, Note_on_c, 0, 64, 65
2, 212496, Note_on_c, 0, 64, 0
2, 212594, Control_c, 0, 64, 0
2, 212748, Note_on_c, 0, 81, 50
2, 212814, Note_on_c, 0, 81, 0
2, 212822, Note_on_c, 0, 69, 53
2, 212874, Note_on_c, 0, 69, 0
2, 212932, Control_c, 0, 64, 127
2, 212978, Control_c, 0, 64, 0
2, 213096, Note_on_c, 0, 85, 56
2, 213166, Note_on_c, 0, 73, 46
2, 213228, Note_on_c, 0, 85, 0
2, 213231, Note_on_c, 0, 73, 0
2, 213428, Note_on_c, 0, 88, 34
2, 213502, Note_on_c, 0, 88, 0
2, 213506, Note_on_c, 0, 79, 50
2, 213514, Note_on_c, 0, 73, 34
2, 213522, Note_on_c, 0, 76, 44
2, 213570, Note_on_c, 0, 79, 0
2, 213802, Note_on_c, 0, 88, 38
2, 213874, Note_on_c, 0, 88, 0
2, 213892, Note_on_c, 0, 79, 49
2, 213962, Note_on_c, 0, 79, 0
2, 214070, Control_c, 0, 64, 127
2, 214106, Note_on_c, 0, 76, 0
2, 214152, Note_on_c, 0, 88, 47
2, 214226, Note_on_c, 0, 88, 0
2, 214226, Note_on_c, 0, 74, 72
2, 214238, Note_on_c, 0, 79, 66
2, 214240, Note_on_c, 0, 71, 59
2, 214260, Note_on_c, 0, 73, 0
2, 214310, Note_on_c, 0, 79, 0
2, 214470, Control_c, 0, 64, 0
2, 214506, Note_on_c, 0, 88, 59
2, 214580, Note_on_c, 0, 79, 84
2, 214612, Note_on_c, 0, 88, 0
2, 214686, Note_on_c, 0, 79, 0
2, 214760, Control_c, 0, 64, 127
2, 214850, Note_on_c, 0, 88, 76
2, 214912, Note_on_c, 0, 88, 0
2, 214914, Control_c, 0, 64, 0
2, 214932, Note_on_c, 0, 73, 64
2, 214936, Note_on_c, 0, 78, 84
2, 214944, Note_on_c, 0, 70, 53
2, 214966, Note_on_c, 0, 71, 0
2, 214978, Note_on_c, 0, 74, 0
2, 215044, Note_on_c, 0, 78, 0
2, 215190, Control_c, 0, 64, 127
2, 215216, Note_on_c, 0, 88, 70
2, 215290, Note_on_c, 0, 71, 78
2, 215290, Note_on_c, 0, 74, 87
2, 215294, Note_on_c, 0, 79, 86
2, 215308, Note_on_c, 0, 88, 0
2, 215322, Note_on_c, 0, 73, 0
2, 215338, Note_on_c, 0, 70, 0
2, 215344, Control_c, 0, 64, 0
2, 215424, Note_on_c, 0, 79, 0
2, 215528, Control_c, 0, 64, 127
2, 215546, Note_on_c, 0, 88, 74
2, 215632, Note_on_c, 0, 78, 92
2, 215642, Note_on_c, 0, 73, 73
2, 215654, Note_on_c, 0, 70, 55
2, 215682, Note_on_c, 0, 88, 0
2, 215684, Control_c, 0, 64, 0
2, 215694, Note_on_c, 0, 71, 0
2, 215700, Note_on_c, 0, 74, 0
2, 215776, Note_on_c, 0, 78, 0
2, 215852, Control_c, 0, 64, 127
2, 215892, Note_on_c, 0, 70, 0
2, 215900, Note_on_c, 0, 88, 84
2, 215978, Note_on_c, 0, 85, 87
2, 215998, Note_on_c, 0, 66, 44
2, 215998, Note_on_c, 0, 70, 50
2, 216016, Note_on_c, 0, 88, 0
2, 216064, Note_on_c, 0, 73, 0
2, 216134, Note_on_c, 0, 85, 0
2, 216228, Note_on_c, 0, 88, 90
2, 216328, Control_c, 0, 64, 0
2, 216332, Note_on_c, 0, 86, 98
2, 216337, Note_on_c, 0, 71, 57
2, 216352, Note_on_c, 0, 66, 0
2, 216372, Note_on_c, 0, 70, 0
2, 216400, Note_on_c, 0, 88, 0
2, 216548, Note_on_c, 0, 74, 67
2, 216570, Note_on_c, 0, 71, 0
2, 216590, Control_c, 0, 64, 127
2, 216662, Note_on_c, 0, 86, 0
2, 216684, Note_on_c, 0, 74, 0
2, 216722, Note_on_c, 0, 71, 79
2, 216876, Note_on_c, 0, 71, 0
2, 216882, Note_on_c, 0, 74, 71
2, 217030, Note_on_c, 0, 74, 0
2, 217030, Note_on_c, 0, 79, 107
2, 217058, Note_on_c, 0, 71, 67
2, 217216, Note_on_c, 0, 71, 0
2, 217232, Note_on_c, 0, 74, 63
2, 217376, Note_on_c, 0, 74, 0
2, 217402, Note_on_c, 0, 71, 73
2, 217578, Note_on_c, 0, 74, 70
2, 217586, Note_on_c, 0, 79, 0
2, 217589, Note_on_c, 0, 81, 87
2, 217592, Note_on_c, 0, 71, 0
2, 217666, Note_on_c, 0, 79, 85
2, 217726, Note_on_c, 0, 81, 0
2, 217754, Note_on_c, 0, 70, 43
2, 217768, Note_on_c, 0, 78, 93
2, 217804, Control_c, 0, 64, 0
2, 217812, Note_on_c, 0, 74, 0
2, 217826, Note_on_c, 0, 79, 0
2, 217964, Note_on_c, 0, 73, 55
2, 218008, Note_on_c, 0, 70, 0
2, 218018, Control_c, 0, 64, 127
2, 218134, Note_on_c, 0, 70, 52
2, 218146, Note_on_c, 0, 73, 0
2, 218294, Note_on_c, 0, 73, 71
2, 218324, Note_on_c, 0, 70, 0
2, 218432, Note_on_c, 0, 73, 0
2, 218450, Note_on_c, 0, 77, 85
2, 218464, Note_on_c, 0, 71, 60
2, 218530, Note_on_c, 0, 78, 0
2, 218588, Control_c, 0, 64, 0
2, 218644, Note_on_c, 0, 74, 63
2, 218684, Note_on_c, 0, 71, 0
2, 218770, Control_c, 0, 64, 127
2, 218826, Note_on_c, 0, 74, 0
2, 218838, Note_on_c, 0, 71, 72
2, 218992, Note_on_c, 0, 71, 0
2, 219000, Note_on_c, 0, 74, 63
2, 219140, Note_on_c, 0, 78, 83
2, 219156, Note_on_c, 0, 70, 45
2, 219200, Note_on_c, 0, 74, 0
2, 219202, Control_c, 0, 64, 0
2, 219240, Note_on_c, 0, 77, 0
2, 219332, Note_on_c, 0, 73, 57
2, 219360, Note_on_c, 0, 70, 0
2, 219402, Control_c, 0, 64, 127
2, 219488, Note_on_c, 0, 73, 0
2, 219506, Note_on_c, 0, 70, 59
2, 219636, Note_on_c, 0, 70, 0
2, 219672, Note_on_c, 0, 73, 50
2, 219744, Note_on_c, 0, 73, 0
2, 219838, Note_on_c, 0, 86, 74
2, 219838, Note_on_c, 0, 71, 97
2, 219850, Note_on_c, 0, 78, 0
2, 219892, Control_c, 0, 64, 0
2, 220022, Note_on_c, 0, 79, 78
2, 220066, Note_on_c, 0, 86, 0
2, 220124, Control_c, 0, 64, 127
2, 220198, Note_on_c, 0, 86, 84
2, 220201, Note_on_c, 0, 79, 0
2, 220230, Note_on_c, 0, 71, 0
2, 220352, Note_on_c, 0, 79, 77
2, 220374, Note_on_c, 0, 73, 64
2, 220460, Note_on_c, 0, 71, 88
2, 220502, Note_on_c, 0, 73, 0
2, 220524, Note_on_c, 0, 79, 0
2, 220550, Note_on_c, 0, 85, 78
2, 220572, Note_on_c, 0, 70, 79
2, 220600, Control_c, 0, 64, 0
2, 220612, Note_on_c, 0, 86, 0
2, 220630, Note_on_c, 0, 71, 0
2, 220736, Note_on_c, 0, 79, 79
2, 220768, Note_on_c, 0, 85, 0
2, 220846, Control_c, 0, 64, 127
2, 220912, Note_on_c, 0, 79, 0
2, 220916, Note_on_c, 0, 85, 72
2, 221068, Note_on_c, 0, 79, 76
2, 221102, Note_on_c, 0, 85, 0
2, 221230, Note_on_c, 0, 69, 75
2, 221234, Note_on_c, 0, 84, 82
2, 221244, Note_on_c, 0, 79, 0
2, 221288, Note_on_c, 0, 70, 0
2, 221394, Note_on_c, 0, 78, 65
2, 221444, Note_on_c, 0, 84, 0
2, 221568, Control_c, 0, 64, 0
2, 221598, Note_on_c, 0, 84, 88
2, 221601, Note_on_c, 0, 78, 0
2, 221752, Note_on_c, 0, 78, 71
2, 221754, Control_c, 0, 64, 127
2, 221790, Note_on_c, 0, 84, 0
2, 221924, Note_on_c, 0, 68, 62
2, 221927, Note_on_c, 0, 83, 91
2, 221934, Note_on_c, 0, 78, 0
2, 221996, Note_on_c, 0, 69, 0
2, 222090, Control_c, 0, 64, 0
2, 222112, Note_on_c, 0, 77, 68
2, 222162, Note_on_c, 0, 83, 0
2, 222292, Note_on_c, 0, 83, 69
2, 222304, Note_on_c, 0, 77, 0
2, 222304, Control_c, 0, 64, 127
2, 222396, Note_on_c, 0, 68, 0
2, 222444, Note_on_c, 0, 83, 0
2, 222460, Note_on_c, 0, 77, 71
2, 222598, Note_on_c, 0, 77, 0
2, 222608, Note_on_c, 0, 67, 87
2, 222610, Note_on_c, 0, 83, 83
2, 222782, Note_on_c, 0, 76, 55
2, 222804, Note_on_c, 0, 83, 0
2, 222874, Control_c, 0, 64, 0
2, 222962, Note_on_c, 0, 83, 98
2, 222980, Note_on_c, 0, 76, 0
2, 223058, Control_c, 0, 64, 127
2, 223090, Note_on_c, 0, 67, 0
2, 223102, Note_on_c, 0, 69, 61
2, 223132, Note_on_c, 0, 76, 62
2, 223186, Note_on_c, 0, 67, 63
2, 223244, Note_on_c, 0, 69, 0
2, 223286, Note_on_c, 0, 76, 0
2, 223286, Note_on_c, 0, 66, 74
2, 223296, Note_on_c, 0, 82, 62
2, 223304, Control_c, 0, 64, 0
2, 223324, Note_on_c, 0, 67, 0
2, 223344, Note_on_c, 0, 83, 0
2, 223482, Note_on_c, 0, 76, 49
2, 223546, Note_on_c, 0, 82, 0
2, 223580, Control_c, 0, 64, 127
2, 223648, Note_on_c, 0, 82, 37
2, 223678, Note_on_c, 0, 76, 0
2, 223832, Note_on_c, 0, 76, 55
2, 223852, Note_on_c, 0, 82, 0
2, 223966, Note_on_c, 0, 76, 0
2, 223988, Note_on_c, 0, 82, 69
2, 224140, Note_on_c, 0, 76, 54
2, 224224, Note_on_c, 0, 82, 0
2, 224296, Note_on_c, 0, 67, 85
2, 224308, Note_on_c, 0, 83, 102
2, 224318, Note_on_c, 0, 76, 0
2, 224356, Note_on_c, 0, 66, 0
2, 224472, Note_on_c, 0, 76, 56
2, 224604, Note_on_c, 0, 76, 0
2, 224626, Note_on_c, 0, 82, 66
2, 224632, Note_on_c, 0, 66, 66
2, 224656, Control_c, 0, 64, 0
2, 224670, Note_on_c, 0, 67, 0
2, 224698, Note_on_c, 0, 83, 0
2, 224794, Note_on_c, 0, 76, 55
2, 224876, Note_on_c, 0, 82, 0
2, 224916, Control_c, 0, 64, 127
2, 224948, Note_on_c, 0, 82, 52
2, 224982, Note_on_c, 0, 76, 0
2, 225124, Note_on_c, 0, 76, 57
2, 225148, Note_on_c, 0, 82, 0
2, 225280, Note_on_c, 0, 76, 0
2, 225286, Note_on_c, 0, 82, 69
2, 225438, Note_on_c, 0, 76, 54
2, 225540, Note_on_c, 0, 82, 0
2, 225584, Note_on_c, 0, 67, 75
2, 225588, Note_on_c, 0, 76, 0
2, 225598, Note_on_c, 0, 66, 0
2, 225598, Note_on_c, 0, 83, 105
2, 225758, Note_on_c, 0, 76, 59
2, 225886, Control_c, 0, 64, 0
2, 225894, Note_on_c, 0, 76, 0
2, 225906, Note_on_c, 0, 66, 76
2, 225908, Note_on_c, 0, 82, 70
2, 225968, Note_on_c, 0, 83, 0
2, 225973, Note_on_c, 0, 67, 0
2, 226070, Note_on_c, 0, 76, 54
2, 226130, Note_on_c, 0, 82, 0
2, 226146, Control_c, 0, 64, 127
2, 226222, Note_on_c, 0, 82, 51
2, 226248, Note_on_c, 0, 76, 0
2, 226402, Note_on_c, 0, 76, 56
2, 226430, Note_on_c, 0, 82, 0
2, 226534, Note_on_c, 0, 76, 0
2, 226566, Note_on_c, 0, 82, 62
2, 226708, Note_on_c, 0, 76, 52
2, 226734, Note_on_c, 0, 82, 0
2, 226842, Note_on_c, 0, 76, 0
2, 226880, Note_on_c, 0, 82, 55
2, 227028, Note_on_c, 0, 82, 0
2, 227042, Note_on_c, 0, 76, 43
2, 227204, Note_on_c, 0, 76, 0
2, 227222, Control_c, 0, 64, 0
2, 227226, Note_on_c, 0, 81, 45
2, 227228, Note_on_c, 0, 65, 34
2, 227234, Note_on_c, 0, 66, 0
2, 227382, Note_on_c, 0, 75, 44
2, 227406, Note_on_c, 0, 81, 0
2, 227514, Control_c, 0, 64, 127
2, 227548, Note_on_c, 0, 75, 0
2, 227574, Note_on_c, 0, 81, 51
2, 227676, Note_on_c, 0, 81, 0
2, 227722, Note_on_c, 0, 75, 27
2, 227830, Note_on_c, 0, 75, 0
2, 227920, Note_on_c, 0, 81, 29
2, 227998, Note_on_c, 0, 81, 0
2, 228058, Note_on_c, 0, 75, 32
2, 228160, Note_on_c, 0, 75, 0
2, 228236, Note_on_c, 0, 81, 42
2, 228239, Note_on_c, 0, 65, 0
2, 228304, Note_on_c, 0, 81, 0
2, 228388, Note_on_c, 0, 75, 38
2, 228552, Note_on_c, 0, 75, 0
2, 228552, Note_on_c, 0, 80, 41
2, 228560, Note_on_c, 0, 58, 38
2, 228574, Control_c, 0, 64, 0
2, 228584, Note_on_c, 0, 65, 26
2, 228712, Note_on_c, 0, 74, 48
2, 228730, Note_on_c, 0, 80, 0
2, 228862, Note_on_c, 0, 74, 0
2, 228892, Note_on_c, 0, 80, 41
2, 228912, Control_c, 0, 64, 127
2, 229052, Note_on_c, 0, 74, 37
2, 229060, Note_on_c, 0, 80, 0
2, 229142, Note_on_c, 0, 74, 0
2, 229224, Note_on_c, 0, 80, 48
2, 229372, Note_on_c, 0, 80, 0
2, 229382, Note_on_c, 0, 74, 40
2, 229464, Note_on_c, 0, 74, 0
2, 229467, Note_on_c, 0, 58, 0
2, 229534, Note_on_c, 0, 80, 50
2, 229542, Note_on_c, 0, 59, 47
2, 229688, Note_on_c, 0, 65, 0
2, 229694, Note_on_c, 0, 75, 47
2, 229697, Note_on_c, 0, 80, 0
2, 229760, Note_on_c, 0, 59, 0
2, 229860, Note_on_c, 0, 80, 52
2, 229862, Note_on_c, 0, 58, 51
2, 229868, Note_on_c, 0, 75, 0
2, 229874, Note_on_c, 0, 65, 46
2, 230026, Note_on_c, 0, 74, 49
2, 230028, Note_on_c, 0, 80, 0
2, 230178, Note_on_c, 0, 74, 0
2, 230192, Note_on_c, 0, 80, 55
2, 230202, Control_c, 0, 64, 0
2, 230346, Note_on_c, 0, 74, 51
2, 230376, Note_on_c, 0, 80, 0
2, 230486, Note_on_c, 0, 74, 0
2, 230494, Control_c, 0, 64, 127
2, 230536, Note_on_c, 0, 80, 52
2, 230678, Note_on_c, 0, 74, 34
2, 230686, Note_on_c, 0, 80, 0
2, 230826, Note_on_c, 0, 74, 0
2, 230850, Note_on_c, 0, 58, 0
2, 230852, Note_on_c, 0, 80, 46
2, 230860, Note_on_c, 0, 59, 39
2, 230894, Control_c, 0, 64, 0
2, 230996, Note_on_c, 0, 65, 0
2, 230998, Note_on_c, 0, 75, 38
2, 231008, Note_on_c, 0, 80, 0
2, 231094, Control_c, 0, 64, 127
2, 231125, Control_c, 0, 64, 0
2, 231164, Note_on_c, 0, 75, 0
2, 231174, Note_on_c, 0, 59, 0
2, 231176, Note_on_c, 0, 65, 35
2, 231180, Note_on_c, 0, 80, 58
2, 231184, Note_on_c, 0, 58, 37
2, 231276, Note_on_c, 0, 80, 0
2, 231330, Note_on_c, 0, 74, 47
2, 231340, Control_c, 0, 64, 127
2, 231456, Note_on_c, 0, 74, 0
2, 231514, Note_on_c, 0, 77, 54
2, 231584, Note_on_c, 0, 65, 0
2, 231648, Note_on_c, 0, 68, 60
2, 231651, Note_on_c, 0, 58, 0
2, 231670, Note_on_c, 0, 77, 0
2, 231776, Note_on_c, 0, 68, 0
2, 231820, Note_on_c, 0, 72, 62
2, 231876, Note_on_c, 0, 72, 0
2, 231960, Note_on_c, 0, 65, 58
2, 232064, Note_on_c, 0, 65, 0
2, 232128, Note_on_c, 0, 68, 65
2, 232186, Note_on_c, 0, 68, 0
2, 232262, Note_on_c, 0, 62, 54
2, 232382, Note_on_c, 0, 62, 0
2, 232438, Note_on_c, 0, 65, 71
2, 232566, Note_on_c, 0, 56, 61
2, 232644, Note_on_c, 0, 65, 0
2, 232736, Note_on_c, 0, 60, 80
2, 232738, Control_c, 0, 64, 0
2, 232753, Note_on_c, 0, 56, 0
2, 232880, Note_on_c, 0, 53, 97
2, 232938, Note_on_c, 0, 60, 0
2, 233030, Control_c, 0, 64, 127
2, 233030, Note_on_c, 0, 56, 90
2, 233046, Note_on_c, 0, 53, 0
2, 233198, Note_on_c, 0, 46, 94
2, 233218, Note_on_c, 0, 56, 0
2, 233354, Note_on_c, 0, 48, 96
2, 233412, Note_on_c, 0, 46, 0
2, 233484, Note_on_c, 0, 50, 103
2, 233492, Note_on_c, 0, 48, 0
2, 233588, Note_on_c, 0, 39, 87
2, 233628, Note_on_c, 0, 50, 0
2, 233628, Note_on_c, 0, 43, 73
2, 233704, Note_on_c, 0, 46, 78
2, 233742, Note_on_c, 0, 55, 91
2, 233754, Note_on_c, 0, 58, 83
2, 233758, Note_on_c, 0, 51, 105
2, 233760, Note_on_c, 0, 63, 107
2, 233814, Control_c, 0, 64, 0
2, 234136, Control_c, 0, 64, 127
2, 234188, Note_on_c, 0, 43, 0
2, 234218, Note_on_c, 0, 58, 0
2, 234232, Note_on_c, 0, 63, 0
2, 234238, Note_on_c, 0, 46, 0
2, 234312, Note_on_c, 0, 39, 0
2, 234400, Note_on_c, 0, 51, 0
2, 234440, Note_on_c, 0, 55, 0
2, 234472, Note_on_c, 0, 67, 105
2, 234472, Note_on_c, 0, 61, 98
2, 234472, Note_on_c, 0, 49, 97
2, 234478, Note_on_c, 0, 39, 78
2, 234480, Note_on_c, 0, 63, 94
2, 234492, Note_on_c, 0, 46, 72
2, 234500, Note_on_c, 0, 43, 74
2, 234844, Note_on_c, 0, 63, 0
2, 234850, Note_on_c, 0, 61, 0
2, 234856, Note_on_c, 0, 67, 0
2, 234866, Note_on_c, 0, 43, 0
2, 234868, Note_on_c, 0, 49, 0
2, 234874, Note_on_c, 0, 39, 0
2, 234912, Note_on_c, 0, 46, 0
2, 235040, Note_on_c, 0, 61, 93
2, 235042, Note_on_c, 0, 67, 98
2, 235044, Note_on_c, 0, 49, 86
2, 235048, Note_on_c, 0, 63, 83
2, 235054, Note_on_c, 0, 46, 54
2, 235056, Note_on_c, 0, 39, 68
2, 235062, Note_on_c, 0, 43, 64
2, 235112, Note_on_c, 0, 39, 0
2, 235130, Note_on_c, 0, 63, 0
2, 235134, Note_on_c, 0, 46, 0
2, 235174, Note_on_c, 0, 49, 0
2, 235184, Note_on_c, 0, 39, 68
2, 235188, Note_on_c, 0, 61, 0
2, 235220, Note_on_c, 0, 60, 97
2, 235220, Note_on_c, 0, 44, 82
2, 235226, Note_on_c, 0, 48, 88
2, 235228, Note_on_c, 0, 63, 83
2, 235244, Note_on_c, 0, 68, 100
2, 235248, Note_on_c, 0, 43, 0
2, 235290, Control_c, 0, 64, 0
2, 235352, Note_on_c, 0, 67, 0
2, 236010, Control_c, 0, 64, 127
2, 236016, Note_on_c, 0, 60, 0
2, 236040, Note_on_c, 0, 68, 0
2, 236040, Note_on_c, 0, 63, 0
2, 236170, Note_on_c, 0, 39, 0
2, 236204, Note_on_c, 0, 48, 0
2, 236240, Note_on_c, 0, 44, 0
2, 236302, Note_on_c, 0, 68, 83
2, 236372, Note_on_c, 0, 67, 82
2, 236440, Note_on_c, 0, 68, 0
2, 236468, Note_on_c, 0, 65, 75
2, 236506, Note_on_c, 0, 67, 0
2, 236538, Note_on_c, 0, 63, 84
2, 236564, Note_on_c, 0, 65, 0
2, 236566, Note_on_c, 0, 39, 66
2, 236570, Note_on_c, 0, 63, 0
2, 236592, Note_on_c, 0, 41, 69
2, 236618, Note_on_c, 0, 44, 62
2, 236662, Note_on_c, 0, 63, 69
2, 236674, Note_on_c, 0, 50, 84
2, 236686, Note_on_c, 0, 56, 88
2, 236688, Note_on_c, 0, 62, 106
2, 236700, Note_on_c, 0, 63, 0
2, 236702, Note_on_c, 0, 58, 76
2, 236718, Control_c, 0, 64, 0
2, 237024, Control_c, 0, 64, 127
2, 237062, Note_on_c, 0, 56, 0
2, 237064, Note_on_c, 0, 62, 0
2, 237072, Note_on_c, 0, 58, 0
2, 237134, Note_on_c, 0, 50, 0
2, 237152, Note_on_c, 0, 39, 0
2, 237162, Note_on_c, 0, 41, 0
2, 237224, Note_on_c, 0, 44, 0
2, 237248, Note_on_c, 0, 65, 91
2, 237368, Note_on_c, 0, 65, 0
2, 237380, Note_on_c, 0, 62, 57
2, 237392, Note_on_c, 0, 39, 61
2, 237408, Note_on_c, 0, 41, 63
2, 237432, Note_on_c, 0, 44, 68
2, 237434, Note_on_c, 0, 65, 74
2, 237440, Control_c, 0, 64, 0
2, 237452, Note_on_c, 0, 70, 99
2, 237458, Note_on_c, 0, 50, 90
2, 237732, Control_c, 0, 64, 127
2, 237742, Note_on_c, 0, 65, 0
2, 237858, Note_on_c, 0, 39, 0
2, 237906, Note_on_c, 0, 62, 0
2, 237920, Note_on_c, 0, 41, 0
2, 237946, Note_on_c, 0, 44, 0
2, 237996, Note_on_c, 0, 50, 0
2, 238008, Note_on_c, 0, 68, 83
2, 238080, Note_on_c, 0, 70, 0
2, 238083, Note_on_c, 0, 39, 50
2, 238116, Note_on_c, 0, 43, 64
2, 238162, Control_c, 0, 64, 0
2, 238176, Note_on_c, 0, 46, 55
2, 238206, Note_on_c, 0, 67, 99
2, 238209, Note_on_c, 0, 51, 87
2, 238209, Note_on_c, 0, 63, 86
2, 238280, Note_on_c, 0, 68, 0
2, 238372, Note_on_c, 0, 39, 0
2, 238492, Note_on_c, 0, 43, 0
2, 238516, Control_c, 0, 64, 127
2, 238552, Note_on_c, 0, 51, 0
2, 238558, Note_on_c, 0, 63, 0
2, 238562, Note_on_c, 0, 46, 0
2, 238566, Note_on_c, 0, 67, 0
2, 238916, Control_c, 0, 64, 0
2, 239730, Note_on_c, 0, 74, 52
2, 239736, Note_on_c, 0, 68, 25
2, 239738, Note_on_c, 0, 58, 17
2, 239754, Note_on_c, 0, 65, 19
2, 239922, Note_on_c, 0, 68, 0
2, 239928, Control_c, 0, 64, 127
2, 239942, Note_on_c, 0, 58, 0
2, 239948, Note_on_c, 0, 65, 0
2, 240098, Control_c, 0, 64, 0
2, 240272, Note_on_c, 0, 77, 64
2, 240370, Note_on_c, 0, 74, 0
2, 240486, Note_on_c, 0, 58, 25
2, 240488, Note_on_c, 0, 68, 24
2, 240494, Note_on_c, 0, 82, 50
2, 240512, Note_on_c, 0, 65, 26
2, 240536, Note_on_c, 0, 77, 0
2, 240636, Control_c, 0, 64, 127
2, 240672, Note_on_c, 0, 68, 0
2, 240682, Note_on_c, 0, 65, 0
2, 240740, Note_on_c, 0, 58, 0
2, 240744, Control_c, 0, 64, 0
2, 241050, Note_on_c, 0, 80, 41
2, 241084, Note_on_c, 0, 62, 23
2, 241152, Note_on_c, 0, 82, 0
2, 241224, Note_on_c, 0, 62, 0
2, 241276, Note_on_c, 0, 79, 44
2, 241280, Note_on_c, 0, 80, 0
2, 241284, Note_on_c, 0, 63, 17
2, 241588, Control_c, 0, 64, 127
2, 241628, Note_on_c, 0, 63, 0
2, 241654, Note_on_c, 0, 79, 0
2, 241804, Control_c, 0, 64, 0
2, 242272, Note_on_c, 0, 80, 54
2, 242275, Note_on_c, 0, 84, 66
2, 242284, Note_on_c, 0, 58, 28
2, 242418, Note_on_c, 0, 80, 0
2, 242462, Note_on_c, 0, 82, 57
2, 242466, Note_on_c, 0, 79, 63
2, 242472, Note_on_c, 0, 58, 0
2, 242474, Note_on_c, 0, 60, 42
2, 242524, Note_on_c, 0, 84, 0
2, 242594, Note_on_c, 0, 79, 0
2, 242636, Note_on_c, 0, 77, 58
2, 242640, Note_on_c, 0, 80, 72
2, 242656, Note_on_c, 0, 60, 0
2, 242670, Note_on_c, 0, 62, 35
2, 242692, Note_on_c, 0, 77, 0
2, 242702, Note_on_c, 0, 82, 0
2, 242846, Note_on_c, 0, 63, 32
2, 242848, Note_on_c, 0, 62, 0
2, 242848, Note_on_c, 0, 75, 52
2, 242848, Note_on_c, 0, 79, 78
2, 242886, Note_on_c, 0, 80, 0
2, 243064, Control_c, 0, 64, 127
2, 243078, Note_on_c, 0, 63, 0
2, 243086, Note_on_c, 0, 75, 0
2, 243108, Note_on_c, 0, 79, 0
2, 243216, Control_c, 0, 64, 0
2, 243870, Note_on_c, 0, 80, 40
2, 243880, Note_on_c, 0, 84, 40
2, 243892, Note_on_c, 0, 58, 21
2, 244000, Note_on_c, 0, 80, 0
2, 244064, Note_on_c, 0, 82, 40
2, 244068, Note_on_c, 0, 60, 33
2, 244070, Note_on_c, 0, 58, 0
2, 244080, Note_on_c, 0, 84, 0
2, 244082, Note_on_c, 0, 79, 32
2, 244168, Note_on_c, 0, 79, 0
2, 244222, Note_on_c, 0, 60, 0
2, 244234, Note_on_c, 0, 80, 48
2, 244244, Note_on_c, 0, 82, 0
2, 244248, Note_on_c, 0, 77, 25
2, 244268, Note_on_c, 0, 62, 26
2, 244308, Note_on_c, 0, 77, 0
2, 244358, Note_on_c, 0, 62, 0
2, 244436, Note_on_c, 0, 75, 33
2, 244446, Control_c, 0, 64, 127
2, 244454, Note_on_c, 0, 80, 0
2, 244460, Note_on_c, 0, 79, 45
2, 244468, Note_on_c, 0, 63, 19
2, 244538, Control_c, 0, 64, 0
2, 244732, Note_on_c, 0, 63, 0
2, 244732, Note_on_c, 0, 79, 0
2, 244768, Note_on_c, 0, 75, 0
2, 245372, Note_on_c, 0, 80, 55
2, 245377, Note_on_c, 0, 84, 65
2, 245566, Note_on_c, 0, 79, 77
2, 245568, Note_on_c, 0, 82, 65
2, 245570, Note_on_c, 0, 80, 0
2, 245622, Note_on_c, 0, 84, 0
2, 245718, Note_on_c, 0, 79, 0
2, 245742, Note_on_c, 0, 80, 75
2, 245745, Note_on_c, 0, 77, 59
2, 245792, Note_on_c, 0, 77, 0
2, 245794, Note_on_c, 0, 82, 0
2, 245798, Control_c, 0, 64, 127
2, 245870, Note_on_c, 0, 80, 0
2, 245930, Note_on_c, 0, 79, 80
2, 245933, Note_on_c, 0, 75, 59
2, 245982, Control_c, 0, 64, 0
2, 245984, Note_on_c, 0, 75, 0
2, 245990, Note_on_c, 0, 79, 0
2, 246104, Note_on_c, 0, 80, 65
2, 246108, Note_on_c, 0, 84, 73
2, 246258, Note_on_c, 0, 80, 0
2, 246292, Note_on_c, 0, 82, 53
2, 246298, Note_on_c, 0, 79, 52
2, 246328, Note_on_c, 0, 84, 0
2, 246384, Note_on_c, 0, 79, 0
2, 246444, Control_c, 0, 64, 127
2, 246478, Note_on_c, 0, 80, 59
2, 246478, Note_on_c, 0, 77, 40
2, 246508, Note_on_c, 0, 82, 0
2, 246528, Note_on_c, 0, 77, 0
2, 246628, Note_on_c, 0, 80, 0
2, 246658, Note_on_c, 0, 75, 49
2, 246670, Note_on_c, 0, 79, 52
2, 246728, Note_on_c, 0, 79, 0
2, 246742, Note_on_c, 0, 75, 0
2, 246832, Note_on_c, 0, 79, 55
2, 246842, Note_on_c, 0, 82, 56
2, 246874, Control_c, 0, 64, 0
2, 246958, Note_on_c, 0, 79, 0
2, 247016, Note_on_c, 0, 77, 66
2, 247018, Note_on_c, 0, 80, 69
2, 247060, Note_on_c, 0, 80, 0
2, 247060, Note_on_c, 0, 82, 0
2, 247074, Control_c, 0, 64, 127
2, 247188, Note_on_c, 0, 75, 69
2, 247206, Note_on_c, 0, 79, 72
2, 247222, Note_on_c, 0, 77, 0
2, 247290, Note_on_c, 0, 75, 0
2, 247378, Note_on_c, 0, 77, 72
2, 247380, Note_on_c, 0, 74, 71
2, 247404, Note_on_c, 0, 79, 0
2, 247412, Control_c, 0, 64, 0
2, 247530, Note_on_c, 0, 74, 0
2, 247544, Note_on_c, 0, 72, 64
2, 247548, Note_on_c, 0, 75, 71
2, 247570, Note_on_c, 0, 77, 0
2, 247580, Control_c, 0, 64, 127
2, 247592, Note_on_c, 0, 75, 0
2, 247722, Note_on_c, 0, 70, 67
2, 247732, Note_on_c, 0, 74, 68
2, 247746, Note_on_c, 0, 72, 0
2, 247832, Note_on_c, 0, 70, 0
2, 247892, Note_on_c, 0, 68, 58
2, 247898, Note_on_c, 0, 72, 74
2, 247906, Note_on_c, 0, 74, 0
2, 247920, Control_c, 0, 64, 0
2, 248062, Note_on_c, 0, 70, 69
2, 248070, Note_on_c, 0, 67, 60
2, 248082, Note_on_c, 0, 68, 0
2, 248088, Control_c, 0, 64, 127
2, 248100, Note_on_c, 0, 72, 0
2, 248120, Note_on_c, 0, 70, 0
2, 248162, Note_on_c, 0, 67, 0
2, 248228, Note_on_c, 0, 68, 62
2, 248246, Note_on_c, 0, 65, 49
2, 248310, Note_on_c, 0, 65, 0
2, 248378, Note_on_c, 0, 68, 0
2, 248404, Note_on_c, 0, 67, 72
2, 248406, Note_on_c, 0, 63, 72
2, 248466, Note_on_c, 0, 63, 0
2, 248566, Note_on_c, 0, 67, 0
2, 248582, Note_on_c, 0, 65, 71
2, 248588, Note_on_c, 0, 62, 72
2, 248656, Note_on_c, 0, 65, 0
2, 248764, Control_c, 0, 64, 0
2, 248788, Note_on_c, 0, 63, 89
2, 248808, Note_on_c, 0, 48, 28
2, 248862, Note_on_c, 0, 62, 0
2, 249020, Note_on_c, 0, 56, 30
2, 249032, Note_on_c, 0, 48, 0
2, 249056, Control_c, 0, 64, 127
2, 249190, Note_on_c, 0, 56, 0
2, 249218, Note_on_c, 0, 48, 37
2, 249308, Note_on_c, 0, 48, 0
2, 249384, Note_on_c, 0, 56, 39
2, 249542, Note_on_c, 0, 56, 0
2, 249560, Note_on_c, 0, 48, 44
2, 249702, Note_on_c, 0, 48, 0
2, 249734, Note_on_c, 0, 56, 49
2, 249850, Note_on_c, 0, 56, 0
2, 249876, Note_on_c, 0, 48, 38
2, 250048, Note_on_c, 0, 56, 47
2, 250048, Note_on_c, 0, 65, 67
2, 250058, Note_on_c, 0, 63, 0
2, 250126, Note_on_c, 0, 63, 77
2, 250160, Note_on_c, 0, 48, 0
2, 250178, Note_on_c, 0, 65, 0
2, 250178, Control_c, 0, 64, 0
2, 250232, Note_on_c, 0, 56, 0
2, 250254, Note_on_c, 0, 62, 79
2, 250260, Note_on_c, 0, 46, 31
2, 250302, Note_on_c, 0, 63, 0
2, 250440, Note_on_c, 0, 56, 41
2, 250466, Note_on_c, 0, 46, 0
2, 250530, Control_c, 0, 64, 127
2, 250598, Note_on_c, 0, 56, 0
2, 250630, Note_on_c, 0, 46, 33
2, 250770, Note_on_c, 0, 46, 0
2, 250804, Note_on_c, 0, 56, 36
2, 250956, Note_on_c, 0, 56, 0
2, 250964, Note_on_c, 0, 61, 75
2, 250982, Note_on_c, 0, 46, 35
2, 251038, Control_c, 0, 64, 0
2, 251072, Note_on_c, 0, 62, 0
2, 251182, Note_on_c, 0, 55, 48
2, 251194, Note_on_c, 0, 46, 0
2, 251268, Control_c, 0, 64, 127
2, 251320, Note_on_c, 0, 55, 0
2, 251356, Note_on_c, 0, 46, 49
2, 251528, Note_on_c, 0, 55, 49
2, 251550, Note_on_c, 0, 46, 0
2, 251622, Note_on_c, 0, 55, 0
2, 251690, Note_on_c, 0, 60, 75
2, 251698, Control_c, 0, 64, 0
2, 251730, Note_on_c, 0, 44, 35
2, 251778, Note_on_c, 0, 61, 0
2, 251902, Note_on_c, 0, 55, 45
2, 251920, Note_on_c, 0, 44, 0
2, 251976, Control_c, 0, 64, 127
2, 252022, Note_on_c, 0, 55, 0
2, 252088, Note_on_c, 0, 44, 45
2, 252220, Note_on_c, 0, 44, 0
2, 252276, Note_on_c, 0, 55, 44
2, 252392, Note_on_c, 0, 55, 0
2, 252438, Note_on_c, 0, 44, 41
2, 252514, Control_c, 0, 64, 0
2, 252622, Note_on_c, 0, 53, 69
2, 252670, Note_on_c, 0, 44, 0
2, 252682, Control_c, 0, 64, 127
2, 252778, Note_on_c, 0, 53, 0
2, 252790, Note_on_c, 0, 44, 41
2, 252954, Note_on_c, 0, 62, 75
2, 252968, Note_on_c, 0, 44, 0
2, 252968, Note_on_c, 0, 60, 0
2, 252976, Note_on_c, 0, 53, 62
2, 253034, Note_on_c, 0, 60, 75
2, 253040, Note_on_c, 0, 53, 0
2, 253092, Note_on_c, 0, 62, 0
2, 253122, Note_on_c, 0, 43, 57
2, 253146, Note_on_c, 0, 58, 69
2, 253158, Control_c, 0, 64, 0
2, 253198, Note_on_c, 0, 60, 0
2, 253346, Note_on_c, 0, 53, 66
2, 253364, Note_on_c, 0, 43, 0
2, 253388, Control_c, 0, 64, 127
2, 253436, Note_on_c, 0, 53, 0
2, 253528, Note_on_c, 0, 43, 64
2, 253704, Note_on_c, 0, 58, 0
2, 253706, Note_on_c, 0, 53, 67
2, 253709, Note_on_c, 0, 43, 0
2, 253709, Note_on_c, 0, 60, 67
2, 253786, Note_on_c, 0, 53, 0
2, 253808, Note_on_c, 0, 62, 77
2, 253848, Note_on_c, 0, 60, 0
2, 253868, Note_on_c, 0, 43, 67
2, 253914, Note_on_c, 0, 63, 83
2, 253942, Control_c, 0, 64, 0
2, 253952, Note_on_c, 0, 62, 0
2, 254076, Note_on_c, 0, 51, 50
2, 254124, Note_on_c, 0, 43, 0
2, 254172, Control_c, 0, 64, 127
2, 254206, Note_on_c, 0, 51, 0
2, 254210, Note_on_c, 0, 43, 50
2, 254400, Note_on_c, 0, 63, 0
2, 254400, Note_on_c, 0, 51, 55
2, 254410, Note_on_c, 0, 65, 74
2, 254500, Note_on_c, 0, 67, 83
2, 254542, Note_on_c, 0, 65, 0
2, 254554, Note_on_c, 0, 51, 0
2, 254588, Control_c, 0, 64, 0
2, 254591, Note_on_c, 0, 41, 63
2, 254594, Note_on_c, 0, 43, 0
2, 254604, Note_on_c, 0, 68, 86
2, 254654, Note_on_c, 0, 67, 0
2, 254782, Note_on_c, 0, 50, 58
2, 254844, Note_on_c, 0, 41, 0
2, 254847, Control_c, 0, 64, 127
2, 254936, Note_on_c, 0, 50, 0
2, 254970, Note_on_c, 0, 41, 56
2, 255138, Note_on_c, 0, 50, 74
2, 255218, Note_on_c, 0, 50, 0
2, 255238, Note_on_c, 0, 41, 0
2, 255310, Note_on_c, 0, 67, 75
2, 255322, Note_on_c, 0, 39, 68
2, 255386, Control_c, 0, 64, 0
2, 255424, Note_on_c, 0, 68, 0
2, 255508, Note_on_c, 0, 43, 72
2, 255662, Note_on_c, 0, 46, 57
2, 255670, Note_on_c, 0, 43, 0
2, 255670, Note_on_c, 0, 39, 0
2, 255756, Control_c, 0, 64, 127
2, 255798, Note_on_c, 0, 46, 0
2, 255834, Note_on_c, 0, 51, 51
2, 255970, Control_c, 0, 64, 0
2, 255998, Note_on_c, 0, 51, 0
2, 256020, Note_on_c, 0, 46, 38
2, 256050, Note_on_c, 0, 67, 0
2, 256050, Note_on_c, 0, 65, 40
2, 256228, Note_on_c, 0, 65, 0
2, 256244, Note_on_c, 0, 70, 40
2, 256370, Control_c, 0, 64, 127
2, 256420, Note_on_c, 0, 69, 44
2, 256428, Note_on_c, 0, 46, 0
2, 256431, Note_on_c, 0, 70, 0
2, 256582, Note_on_c, 0, 72, 59
2, 256600, Control_c, 0, 64, 0
2, 256622, Note_on_c, 0, 69, 0
2, 256752, Note_on_c, 0, 70, 59
2, 256774, Note_on_c, 0, 72, 0
2, 256930, Note_on_c, 0, 74, 70
2, 256930, Note_on_c, 0, 58, 40
2, 256962, Note_on_c, 0, 70, 0
2, 257094, Note_on_c, 0, 57, 43
2, 257100, Note_on_c, 0, 58, 0
2, 257102, Note_on_c, 0, 72, 60
2, 257110, Note_on_c, 0, 74, 0
2, 257260, Note_on_c, 0, 75, 75
2, 257262, Note_on_c, 0, 60, 57
2, 257272, Note_on_c, 0, 57, 0
2, 257324, Note_on_c, 0, 72, 0
2, 257424, Note_on_c, 0, 58, 43
2, 257430, Note_on_c, 0, 60, 0
2, 257436, Note_on_c, 0, 74, 81
2, 257468, Note_on_c, 0, 75, 0
2, 257576, Note_on_c, 0, 77, 79
2, 257584, Note_on_c, 0, 58, 0
2, 257596, Note_on_c, 0, 62, 56
2, 257610, Note_on_c, 0, 74, 0
2, 257746, Note_on_c, 0, 75, 76
2, 257750, Note_on_c, 0, 60, 57
2, 257758, Note_on_c, 0, 62, 0
2, 257796, Note_on_c, 0, 77, 0
2, 257898, Note_on_c, 0, 63, 72
2, 257912, Note_on_c, 0, 79, 88
2, 257934, Note_on_c, 0, 75, 0
2, 257936, Note_on_c, 0, 60, 0
2, 258078, Note_on_c, 0, 77, 80
2, 258082, Note_on_c, 0, 79, 0
2, 258088, Note_on_c, 0, 62, 60
2, 258096, Note_on_c, 0, 63, 0
2, 258234, Note_on_c, 0, 62, 0
2, 258234, Note_on_c, 0, 80, 80
2, 258244, Note_on_c, 0, 65, 53
2, 258282, Note_on_c, 0, 77, 0
2, 258400, Note_on_c, 0, 79, 82
2, 258416, Note_on_c, 0, 64, 62
2, 258424, Note_on_c, 0, 80, 0
2, 258427, Note_on_c, 0, 65, 0
2, 258564, Note_on_c, 0, 82, 65
2, 258566, Note_on_c, 0, 79, 0
2, 258572, Note_on_c, 0, 64, 0
2, 258578, Note_on_c, 0, 67, 54
2, 258750, Note_on_c, 0, 80, 64
2, 258762, Note_on_c, 0, 65, 59
2, 258770, Note_on_c, 0, 67, 0
2, 258794, Note_on_c, 0, 82, 0
2, 258930, Note_on_c, 0, 79, 64
2, 258962, Note_on_c, 0, 80, 0
2, 259106, Note_on_c, 0, 77, 57
2, 259108, Note_on_c, 0, 79, 0
2, 259262, Note_on_c, 0, 75, 62
2, 259278, Note_on_c, 0, 77, 0
2, 259456, Note_on_c, 0, 74, 62
2, 259458, Note_on_c, 0, 75, 0
2, 259464, Note_on_c, 0, 58, 27
2, 259606, Note_on_c, 0, 74, 0
2, 259614, Note_on_c, 0, 84, 60
2, 259788, Note_on_c, 0, 82, 47
2, 259804, Note_on_c, 0, 84, 0
2, 259944, Note_on_c, 0, 80, 49
2, 259954, Note_on_c, 0, 82, 0
2, 260144, Note_on_c, 0, 79, 48
2, 260146, Note_on_c, 0, 80, 0
2, 260146, Note_on_c, 0, 63, 19
2, 260148, Note_on_c, 0, 58, 0
2, 260156, Note_on_c, 0, 67, 30
2, 260168, Note_on_c, 0, 65, 0
2, 260346, Note_on_c, 0, 80, 47
2, 260352, Note_on_c, 0, 79, 0
2, 260514, Note_on_c, 0, 82, 43
2, 260538, Note_on_c, 0, 63, 0
2, 260540, Note_on_c, 0, 67, 0
2, 260550, Control_c, 0, 64, 127
2, 260552, Note_on_c, 0, 80, 0
2, 260680, Note_on_c, 0, 83, 67
2, 260686, Note_on_c, 0, 82, 0
2, 260832, Note_on_c, 0, 75, 54
2, 260837, Note_on_c, 0, 83, 0
2, 260840, Control_c, 0, 64, 0
2, 260870, Note_on_c, 0, 84, 48
2, 261030, Note_on_c, 0, 79, 51
2, 261038, Note_on_c, 0, 84, 0
2, 261118, Control_c, 0, 64, 127
2, 261130, Note_on_c, 0, 79, 0
2, 261220, Note_on_c, 0, 84, 45
2, 261234, Note_on_c, 0, 75, 0
2, 261302, Note_on_c, 0, 84, 0
2, 261348, Note_on_c, 0, 77, 43
2, 261388, Note_on_c, 0, 79, 46
2, 261402, Note_on_c, 0, 77, 0
2, 261416, Note_on_c, 0, 75, 50
2, 261470, Control_c, 0, 64, 0
2, 261484, Note_on_c, 0, 75, 0
2, 261498, Note_on_c, 0, 79, 0
2, 261526, Note_on_c, 0, 74, 63
2, 261564, Note_on_c, 0, 84, 47
2, 261716, Note_on_c, 0, 84, 0
2, 261732, Control_c, 0, 64, 127
2, 261748, Note_on_c, 0, 77, 38
2, 261750, Note_on_c, 0, 74, 0
2, 261856, Note_on_c, 0, 77, 0
2, 261904, Note_on_c, 0, 84, 47
2, 262054, Note_on_c, 0, 84, 0
2, 262070, Control_c, 0, 64, 0
2, 262070, Note_on_c, 0, 77, 44
2, 262178, Note_on_c, 0, 77, 0
2, 262210, Note_on_c, 0, 37, 75
2, 262228, Note_on_c, 0, 82, 38
2, 262398, Note_on_c, 0, 82, 0
2, 262428, Note_on_c, 0, 77, 37
2, 262506, Note_on_c, 0, 77, 0
2, 262572, Note_on_c, 0, 82, 41
2, 262575, Control_c, 0, 64, 127
2, 262598, Note_on_c, 0, 37, 0
2, 262724, Note_on_c, 0, 39, 43
2, 262748, Note_on_c, 0, 82, 0
2, 262754, Note_on_c, 0, 77, 46
2, 262804, Note_on_c, 0, 37, 62
2, 262822, Control_c, 0, 64, 0
2, 262842, Note_on_c, 0, 39, 0
2, 262910, Note_on_c, 0, 36, 66
2, 262920, Note_on_c, 0, 82, 46
2, 262938, Note_on_c, 0, 77, 0
2, 262950, Note_on_c, 0, 37, 0
2, 263114, Note_on_c, 0, 76, 42
2, 263144, Note_on_c, 0, 82, 0
2, 263244, Note_on_c, 0, 36, 0
2, 263284, Note_on_c, 0, 76, 0
2, 263288, Note_on_c, 0, 82, 45
2, 263298, Control_c, 0, 64, 127
2, 263406, Control_c, 0, 64, 0
2, 263450, Note_on_c, 0, 76, 47
2, 263460, Note_on_c, 0, 82, 0
2, 263608, Note_on_c, 0, 76, 0
2, 263611, Note_on_c, 0, 80, 50
2, 263618, Note_on_c, 0, 72, 76
2, 263782, Note_on_c, 0, 75, 42
2, 263796, Note_on_c, 0, 80, 0
2, 263944, Control_c, 0, 64, 127
2, 263966, Note_on_c, 0, 75, 0
2, 263968, Note_on_c, 0, 80, 54
2, 263972, Note_on_c, 0, 72, 0
2, 264118, Note_on_c, 0, 73, 43
2, 264136, Note_on_c, 0, 75, 49
2, 264146, Note_on_c, 0, 80, 0
2, 264180, Note_on_c, 0, 73, 0
2, 264214, Note_on_c, 0, 72, 46
2, 264220, Control_c, 0, 64, 0
2, 264280, Note_on_c, 0, 72, 0
2, 264306, Note_on_c, 0, 70, 54
2, 264306, Note_on_c, 0, 80, 50
2, 264312, Note_on_c, 0, 75, 0
2, 264484, Note_on_c, 0, 80, 0
2, 264508, Note_on_c, 0, 74, 43
2, 264511, Control_c, 0, 64, 127
2, 264536, Note_on_c, 0, 70, 0
2, 264626, Note_on_c, 0, 74, 0
2, 264670, Note_on_c, 0, 80, 47
2, 264682, Control_c, 0, 64, 0
2, 264844, Note_on_c, 0, 74, 46
2, 264866, Note_on_c, 0, 80, 0
2, 264928, Note_on_c, 0, 74, 0
2, 264986, Note_on_c, 0, 34, 58
2, 264994, Note_on_c, 0, 79, 54
2, 265084, Note_on_c, 0, 79, 0
2, 265194, Note_on_c, 0, 74, 39
2, 265318, Note_on_c, 0, 74, 0
2, 265342, Control_c, 0, 64, 127
2, 265370, Note_on_c, 0, 79, 43
2, 265404, Note_on_c, 0, 34, 0
2, 265458, Note_on_c, 0, 36, 38
2, 265532, Note_on_c, 0, 79, 0
2, 265556, Note_on_c, 0, 74, 24
2, 265566, Note_on_c, 0, 34, 41
2, 265586, Note_on_c, 0, 36, 0
2, 265672, Note_on_c, 0, 32, 52
2, 265675, Note_on_c, 0, 74, 0
2, 265678, Note_on_c, 0, 34, 0
2, 265708, Note_on_c, 0, 79, 50
2, 265742, Control_c, 0, 64, 0
2, 265794, Note_on_c, 0, 79, 0
2, 265898, Note_on_c, 0, 72, 28
2, 265948, Note_on_c, 0, 32, 0
2, 265972, Control_c, 0, 64, 127
2, 266016, Note_on_c, 0, 72, 0
2, 266052, Note_on_c, 0, 79, 49
2, 266210, Note_on_c, 0, 72, 44
2, 266214, Note_on_c, 0, 79, 0
2, 266292, Note_on_c, 0, 72, 0
2, 266295, Control_c, 0, 64, 0
2, 266370, Note_on_c, 0, 68, 46
2, 266372, Note_on_c, 0, 77, 50
2, 266540, Note_on_c, 0, 77, 0
2, 266550, Note_on_c, 0, 72, 39
2, 266618, Control_c, 0, 64, 127
2, 266670, Note_on_c, 0, 72, 0
2, 266698, Note_on_c, 0, 68, 0
2, 266720, Note_on_c, 0, 77, 41
2, 266860, Note_on_c, 0, 70, 36
2, 266882, Note_on_c, 0, 72, 41
2, 266902, Note_on_c, 0, 77, 0
2, 266928, Note_on_c, 0, 70, 0
2, 266940, Control_c, 0, 64, 0
2, 266942, Note_on_c, 0, 68, 38
2, 267008, Note_on_c, 0, 68, 0
2, 267036, Note_on_c, 0, 67, 54
2, 267066, Note_on_c, 0, 77, 45
2, 267068, Note_on_c, 0, 72, 0
2, 267204, Note_on_c, 0, 77, 0
2, 267207, Note_on_c, 0, 70, 45
2, 267216, Control_c, 0, 64, 127
2, 267234, Note_on_c, 0, 67, 0
2, 267376, Note_on_c, 0, 70, 0
2, 267378, Note_on_c, 0, 77, 51
2, 267540, Note_on_c, 0, 70, 48
2, 267576, Note_on_c, 0, 77, 0
2, 267716, Note_on_c, 0, 70, 0
2, 267716, Note_on_c, 0, 31, 75
2, 267724, Note_on_c, 0, 75, 49
2, 267726, Control_c, 0, 64, 0
2, 267894, Note_on_c, 0, 70, 52
2, 267952, Note_on_c, 0, 75, 0
2, 267970, Control_c, 0, 64, 127
2, 268032, Note_on_c, 0, 70, 0
2, 268042, Note_on_c, 0, 31, 0
2, 268064, Note_on_c, 0, 75, 53
2, 268172, Note_on_c, 0, 32, 48
2, 268224, Note_on_c, 0, 70, 44
2, 268254, Note_on_c, 0, 75, 0
2, 268268, Note_on_c, 0, 31, 76
2, 268326, Note_on_c, 0, 70, 0
2, 268326, Note_on_c, 0, 32, 0
2, 268374, Note_on_c, 0, 29, 77
2, 268382, Note_on_c, 0, 31, 0
2, 268385, Control_c, 0, 64, 0
2, 268385, Note_on_c, 0, 74, 71
2, 268540, Note_on_c, 0, 70, 50
2, 268552, Note_on_c, 0, 74, 0
2, 268630, Control_c, 0, 64, 127
2, 268692, Note_on_c, 0, 29, 0
2, 268692, Control_c, 0, 64, 0
2, 268696, Note_on_c, 0, 70, 0
2, 268700, Note_on_c, 0, 38, 69
2, 268708, Note_on_c, 0, 80, 70
2, 268872, Note_on_c, 0, 70, 36
2, 268938, Control_c, 0, 64, 127
2, 268948, Note_on_c, 0, 80, 0
2, 269014, Note_on_c, 0, 39, 75
2, 269014, Control_c, 0, 64, 0
2, 269022, Note_on_c, 0, 38, 0
2, 269038, Note_on_c, 0, 79, 86
2, 269042, Note_on_c, 0, 70, 0
2, 269178, Note_on_c, 0, 70, 62
2, 269244, Control_c, 0, 64, 127
2, 269294, Note_on_c, 0, 79, 0
2, 269310, Note_on_c, 0, 70, 0
2, 269338, Control_c, 0, 64, 0
2, 269352, Note_on_c, 0, 43, 84
2, 269352, Note_on_c, 0, 75, 73
2, 269360, Note_on_c, 0, 39, 0
2, 269512, Note_on_c, 0, 70, 65
2, 269552, Control_c, 0, 64, 127
2, 269598, Note_on_c, 0, 75, 0
2, 269636, Note_on_c, 0, 43, 0
2, 269660, Control_c, 0, 64, 0
2, 269663, Note_on_c, 0, 70, 0
2, 269668, Note_on_c, 0, 46, 71
2, 269676, Note_on_c, 0, 74, 88
2, 269812, Note_on_c, 0, 46, 0
2, 269830, Note_on_c, 0, 74, 0
2, 269844, Control_c, 0, 64, 127
2, 269994, Note_on_c, 0, 82, 75
2, 269994, Note_on_c, 0, 74, 63
2, 270006, Note_on_c, 0, 53, 90
2, 270044, Control_c, 0, 64, 0
2, 270148, Note_on_c, 0, 46, 52
2, 270214, Note_on_c, 0, 53, 0
2, 270228, Control_c, 0, 64, 127
2, 270318, Note_on_c, 0, 82, 0
2, 270336, Note_on_c, 0, 54, 81
2, 270338, Note_on_c, 0, 81, 84
2, 270338, Note_on_c, 0, 75, 66
2, 270366, Note_on_c, 0, 74, 0
2, 270366, Control_c, 0, 64, 0
2, 270378, Note_on_c, 0, 46, 0
2, 270512, Note_on_c, 0, 46, 50
2, 270552, Control_c, 0, 64, 127
2, 270555, Note_on_c, 0, 75, 0
2, 270592, Note_on_c, 0, 54, 0
2, 270650, Note_on_c, 0, 78, 88
2, 270654, Note_on_c, 0, 75, 53
2, 270658, Note_on_c, 0, 57, 74
2, 270682, Note_on_c, 0, 46, 0
2, 270732, Note_on_c, 0, 81, 0
2, 270826, Note_on_c, 0, 46, 68
2, 270850, Note_on_c, 0, 57, 0
2, 270936, Control_c, 0, 64, 0
2, 270974, Note_on_c, 0, 77, 92
2, 270980, Note_on_c, 0, 75, 0
2, 270980, Note_on_c, 0, 58, 70
2, 270983, Note_on_c, 0, 74, 69
2, 271004, Note_on_c, 0, 46, 0
2, 271090, Note_on_c, 0, 78, 0
2, 271108, Note_on_c, 0, 74, 0
2, 271134, Note_on_c, 0, 58, 0
2, 271134, Control_c, 0, 64, 127
2, 271142, Note_on_c, 0, 46, 75
2, 271196, Note_on_c, 0, 77, 0
2, 271268, Note_on_c, 0, 82, 95
2, 271276, Note_on_c, 0, 53, 100
2, 271284, Note_on_c, 0, 74, 88
2, 271298, Note_on_c, 0, 46, 0
2, 271438, Note_on_c, 0, 46, 73
2, 271498, Note_on_c, 0, 53, 0
2, 271598, Note_on_c, 0, 54, 86
2, 271600, Note_on_c, 0, 75, 71
2, 271604, Note_on_c, 0, 81, 89
2, 271610, Note_on_c, 0, 82, 0
2, 271612, Control_c, 0, 64, 0
2, 271640, Note_on_c, 0, 46, 0
2, 271668, Note_on_c, 0, 74, 0
2, 271774, Note_on_c, 0, 46, 66
2, 271812, Control_c, 0, 64, 127
2, 271822, Note_on_c, 0, 75, 0
2, 271864, Note_on_c, 0, 54, 0
2, 271906, Note_on_c, 0, 78, 84
2, 271909, Note_on_c, 0, 57, 68
2, 271909, Note_on_c, 0, 75, 55
2, 271950, Note_on_c, 0, 46, 0
2, 271974, Note_on_c, 0, 81, 0
2, 272058, Note_on_c, 0, 57, 0
2, 272064, Note_on_c, 0, 46, 58
2, 272226, Control_c, 0, 64, 0
2, 272244, Note_on_c, 0, 75, 0
2, 272248, Note_on_c, 0, 58, 57
2, 272254, Note_on_c, 0, 77, 83
2, 272254, Note_on_c, 0, 74, 75
2, 272257, Note_on_c, 0, 46, 0
2, 272400, Note_on_c, 0, 78, 0
2, 272410, Note_on_c, 0, 46, 60
2, 272436, Note_on_c, 0, 58, 0
2, 272439, Control_c, 0, 64, 127
2, 272548, Note_on_c, 0, 79, 101
2, 272550, Note_on_c, 0, 76, 80
2, 272556, Note_on_c, 0, 74, 0
2, 272558, Note_on_c, 0, 46, 0
2, 272566, Note_on_c, 0, 58, 56
2, 272604, Note_on_c, 0, 77, 0
2, 272720, Note_on_c, 0, 46, 61
2, 272734, Note_on_c, 0, 58, 0
2, 272862, Note_on_c, 0, 79, 0
2, 272868, Note_on_c, 0, 80, 95
2, 272871, Note_on_c, 0, 77, 90
2, 272874, Note_on_c, 0, 58, 73
2, 272888, Note_on_c, 0, 46, 0
2, 272902, Note_on_c, 0, 76, 0
2, 272902, Control_c, 0, 64, 0
2, 273028, Note_on_c, 0, 46, 73
2, 273044, Note_on_c, 0, 58, 0
2, 273056, Control_c, 0, 64, 127
2, 273122, Note_on_c, 0, 80, 0
2, 273166, Note_on_c, 0, 77, 0
2, 273184, Note_on_c, 0, 58, 71
2, 273187, Note_on_c, 0, 46, 0
2, 273187, Note_on_c, 0, 79, 103
2, 273194, Note_on_c, 0, 76, 87
2, 273324, Note_on_c, 0, 79, 0
2, 273327, Note_on_c, 0, 46, 70
2, 273331, Note_on_c, 0, 58, 0
2, 273526, Note_on_c, 0, 82, 95
2, 273526, Note_on_c, 0, 79, 101
2, 273530, Note_on_c, 0, 46, 0
2, 273530, Note_on_c, 0, 58, 72
2, 273592, Note_on_c, 0, 76, 0
2, 273678, Note_on_c, 0, 46, 62
2, 273718, Note_on_c, 0, 58, 0
2, 273856, Note_on_c, 0, 58, 72
2, 273882, Note_on_c, 0, 46, 0
2, 274012, Note_on_c, 0, 58, 0
2, 274014, Note_on_c, 0, 46, 82
2, 274152, Note_on_c, 0, 79, 0
2, 274194, Note_on_c, 0, 80, 92
2, 274194, Note_on_c, 0, 58, 78
2, 274200, Note_on_c, 0, 77, 91
2, 274214, Note_on_c, 0, 46, 0
2, 274278, Note_on_c, 0, 82, 0
2, 274338, Note_on_c, 0, 58, 0
2, 274344, Note_on_c, 0, 77, 0
2, 274346, Note_on_c, 0, 46, 82
2, 274512, Note_on_c, 0, 80, 0
2, 274520, Note_on_c, 0, 46, 0
2, 274520, Note_on_c, 0, 58, 72
2, 274523, Note_on_c, 0, 77, 97
2, 274528, Note_on_c, 0, 74, 91
2, 274578, Note_on_c, 0, 74, 0
2, 274606, Note_on_c, 0, 77, 0
2, 274634, Note_on_c, 0, 58, 0
2, 274652, Note_on_c, 0, 46, 75
2, 274694, Note_on_c, 0, 46, 0
2, 274812, Note_on_c, 0, 51, 59
2, 274896, Note_on_c, 0, 55, 64
2, 274912, Note_on_c, 0, 67, 48
2, 274940, Note_on_c, 0, 70, 76
2, 274943, Note_on_c, 0, 75, 102
2, 274943, Note_on_c, 0, 58, 56
2, 274964, Note_on_c, 0, 63, 96
2, 274976, Control_c, 0, 64, 0
2, 275298, Control_c, 0, 64, 127
2, 275326, Note_on_c, 0, 55, 0
2, 275370, Note_on_c, 0, 58, 0
2, 275378, Note_on_c, 0, 70, 0
2, 275410, Note_on_c, 0, 75, 0
2, 275456, Note_on_c, 0, 63, 0
2, 275464, Note_on_c, 0, 67, 0
2, 275474, Note_on_c, 0, 51, 0
2, 275686, Note_on_c, 0, 79, 108
2, 275689, Note_on_c, 0, 73, 86
2, 275689, Note_on_c, 0, 61, 94
2, 275694, Note_on_c, 0, 51, 78
2, 275694, Note_on_c, 0, 75, 88
2, 275710, Note_on_c, 0, 58, 59
2, 275718, Note_on_c, 0, 55, 66
2, 275832, Note_on_c, 0, 61, 0
2, 275992, Note_on_c, 0, 73, 0
2, 275998, Note_on_c, 0, 79, 0
2, 276002, Note_on_c, 0, 58, 0
2, 276002, Note_on_c, 0, 55, 0
2, 276006, Note_on_c, 0, 75, 0
2, 276032, Note_on_c, 0, 51, 0
2, 276260, Note_on_c, 0, 73, 75
2, 276262, Note_on_c, 0, 79, 103
2, 276265, Note_on_c, 0, 61, 86
2, 276284, Note_on_c, 0, 75, 62
2, 276290, Note_on_c, 0, 58, 50
2, 276296, Note_on_c, 0, 55, 58
2, 276300, Note_on_c, 0, 51, 31
2, 276332, Note_on_c, 0, 75, 0
2, 276344, Note_on_c, 0, 58, 0
2, 276370, Note_on_c, 0, 55, 0
2, 276373, Note_on_c, 0, 51, 0
2, 276384, Note_on_c, 0, 61, 0
2, 276420, Note_on_c, 0, 51, 71
2, 276428, Note_on_c, 0, 73, 0
2, 276472, Note_on_c, 0, 56, 60
2, 276474, Note_on_c, 0, 72, 78
2, 276496, Note_on_c, 0, 75, 80
2, 276502, Note_on_c, 0, 60, 88
2, 276504, Note_on_c, 0, 80, 101
2, 276512, Control_c, 0, 64, 0
2, 276570, Note_on_c, 0, 79, 0
2, 276988, Control_c, 0, 64, 127
2, 277168, Note_on_c, 0, 75, 0
2, 277170, Note_on_c, 0, 72, 0
2, 277342, Note_on_c, 0, 82, 67
2, 277408, Note_on_c, 0, 51, 0
2, 277440, Note_on_c, 0, 80, 0
2, 277442, Note_on_c, 0, 84, 87
2, 277476, Note_on_c, 0, 82, 0
2, 277504, Note_on_c, 0, 56, 0
2, 277532, Note_on_c, 0, 82, 75
2, 277568, Note_on_c, 0, 60, 0
2, 277612, Note_on_c, 0, 84, 0
2, 277618, Note_on_c, 0, 80, 74
2, 277688, Note_on_c, 0, 82, 0
2, 277700, Note_on_c, 0, 79, 89
2, 277762, Note_on_c, 0, 80, 0
2, 277788, Note_on_c, 0, 79, 0
2, 277792, Note_on_c, 0, 77, 71
2, 277868, Note_on_c, 0, 75, 79
2, 277910, Note_on_c, 0, 77, 0
2, 277942, Note_on_c, 0, 62, 85
2, 277948, Note_on_c, 0, 56, 65
2, 277954, Note_on_c, 0, 51, 53
2, 277956, Note_on_c, 0, 74, 92
2, 277964, Note_on_c, 0, 53, 92
2, 277972, Control_c, 0, 64, 0
2, 277974, Note_on_c, 0, 75, 0
2, 278036, Note_on_c, 0, 75, 71
2, 278072, Note_on_c, 0, 74, 0
2, 278130, Note_on_c, 0, 75, 0
2, 278140, Note_on_c, 0, 77, 79
2, 278224, Note_on_c, 0, 79, 94
2, 278250, Note_on_c, 0, 77, 0
2, 278314, Note_on_c, 0, 80, 81
2, 278328, Note_on_c, 0, 79, 0
2, 278392, Note_on_c, 0, 79, 87
2, 278402, Control_c, 0, 64, 127
2, 278442, Note_on_c, 0, 80, 0
2, 278486, Note_on_c, 0, 79, 0
2, 278492, Note_on_c, 0, 77, 64
2, 278574, Note_on_c, 0, 75, 70
2, 278596, Note_on_c, 0, 77, 0
2, 278642, Note_on_c, 0, 75, 0
2, 278656, Note_on_c, 0, 74, 82
2, 278710, Control_c, 0, 64, 0
2, 278742, Note_on_c, 0, 74, 0
2, 278748, Note_on_c, 0, 75, 72
2, 278840, Note_on_c, 0, 77, 76
2, 278862, Note_on_c, 0, 75, 0
2, 278922, Note_on_c, 0, 75, 66
2, 278964, Note_on_c, 0, 77, 0
2, 279016, Note_on_c, 0, 74, 79
2, 279016, Control_c, 0, 64, 127
2, 279072, Note_on_c, 0, 75, 0
2, 279076, Note_on_c, 0, 74, 0
2, 279102, Note_on_c, 0, 56, 0
2, 279116, Note_on_c, 0, 72, 57
2, 279124, Note_on_c, 0, 62, 0
2, 279124, Note_on_c, 0, 51, 0
2, 279146, Note_on_c, 0, 53, 0
2, 279182, Note_on_c, 0, 72, 0
2, 279182, Note_on_c, 0, 70, 69
2, 279272, Note_on_c, 0, 68, 70
2, 279318, Note_on_c, 0, 70, 0
2, 279362, Note_on_c, 0, 67, 64
2, 279368, Note_on_c, 0, 63, 79
2, 279372, Note_on_c, 0, 68, 0
2, 279375, Note_on_c, 0, 51, 58
2, 279386, Control_c, 0, 64, 0
2, 279390, Note_on_c, 0, 55, 57
2, 279398, Note_on_c, 0, 58, 40
2, 279412, Note_on_c, 0, 67, 0
2, 279506, Note_on_c, 0, 82, 73
2, 279622, Note_on_c, 0, 84, 87
2, 279642, Note_on_c, 0, 82, 0
2, 279702, Note_on_c, 0, 82, 67
2, 279770, Note_on_c, 0, 55, 0
2, 279784, Note_on_c, 0, 84, 0
2, 279788, Note_on_c, 0, 80, 72
2, 279800, Note_on_c, 0, 58, 0
2, 279816, Control_c, 0, 64, 127
2, 279844, Note_on_c, 0, 51, 0
2, 279856, Note_on_c, 0, 82, 0
2, 279869, Note_on_c, 0, 79, 79
2, 279916, Note_on_c, 0, 79, 0
2, 279926, Note_on_c, 0, 63, 0
2, 279932, Note_on_c, 0, 80, 0
2, 279952, Note_on_c, 0, 77, 70
2, 280004, Note_on_c, 0, 77, 0
2, 280042, Note_on_c, 0, 75, 67
2, 280078, Control_c, 0, 64, 0
2, 280100, Note_on_c, 0, 65, 79
2, 280110, Note_on_c, 0, 58, 48
2, 280120, Note_on_c, 0, 56, 48
2, 280134, Note_on_c, 0, 74, 78
2, 280140, Note_on_c, 0, 75, 0
2, 280182, Note_on_c, 0, 74, 0
2, 280222, Note_on_c, 0, 84, 86
2, 280312, Note_on_c, 0, 82, 67
2, 280382, Note_on_c, 0, 84, 0
2, 280394, Note_on_c, 0, 80, 75
2, 280468, Note_on_c, 0, 82, 0
2, 280484, Note_on_c, 0, 79, 82
2, 280548, Note_on_c, 0, 79, 0
2, 280556, Note_on_c, 0, 80, 0
2, 280568, Control_c, 0, 64, 127
2, 280578, Note_on_c, 0, 77, 60
2, 280610, Note_on_c, 0, 58, 0
2, 280628, Note_on_c, 0, 65, 0
2, 280634, Note_on_c, 0, 77, 0
2, 280660, Note_on_c, 0, 75, 65
2, 280699, Note_on_c, 0, 56, 0
2, 280742, Note_on_c, 0, 75, 0
2, 280744, Note_on_c, 0, 74, 70
2, 280770, Control_c, 0, 64, 0
2, 280816, Note_on_c, 0, 63, 73
2, 280826, Note_on_c, 0, 55, 63
2, 280826, Note_on_c, 0, 75, 75
2, 280832, Note_on_c, 0, 74, 0
2, 280832, Note_on_c, 0, 58, 44
2, 280924, Note_on_c, 0, 75, 0
2, 280930, Note_on_c, 0, 82, 66
2, 281022, Note_on_c, 0, 84, 77
2, 281048, Note_on_c, 0, 82, 0
2, 281104, Note_on_c, 0, 82, 68
2, 281176, Note_on_c, 0, 84, 0
2, 281202, Note_on_c, 0, 80, 62
2, 281252, Note_on_c, 0, 82, 0
2, 281276, Note_on_c, 0, 79, 59
2, 281300, Note_on_c, 0, 58, 0
2, 281306, Control_c, 0, 64, 127
2, 281324, Note_on_c, 0, 79, 0
2, 281326, Note_on_c, 0, 80, 0
2, 281346, Note_on_c, 0, 77, 53
2, 281362, Note_on_c, 0, 63, 0
2, 281400, Note_on_c, 0, 77, 0
2, 281426, Note_on_c, 0, 75, 65
2, 281490, Control_c, 0, 64, 0
2, 281500, Note_on_c, 0, 55, 0
2, 281510, Note_on_c, 0, 75, 0
2, 281514, Note_on_c, 0, 65, 61
2, 281529, Note_on_c, 0, 58, 43
2, 281532, Note_on_c, 0, 56, 47
2, 281536, Note_on_c, 0, 74, 56
2, 281584, Note_on_c, 0, 74, 0
2, 281604, Note_on_c, 0, 84, 80
2, 281698, Note_on_c, 0, 82, 59
2, 281728, Note_on_c, 0, 84, 0
2, 281776, Note_on_c, 0, 80, 74
2, 281824, Note_on_c, 0, 82, 0
2, 281866, Note_on_c, 0, 79, 80
2, 281902, Note_on_c, 0, 80, 0
2, 281928, Note_on_c, 0, 79, 0
2, 281956, Note_on_c, 0, 77, 62
2, 281984, Control_c, 0, 64, 127
2, 281990, Note_on_c, 0, 58, 0
2, 282024, Note_on_c, 0, 65, 0
2, 282038, Note_on_c, 0, 75, 73
2, 282066, Note_on_c, 0, 77, 0
2, 282114, Note_on_c, 0, 56, 0
2, 282122, Note_on_c, 0, 74, 85
2, 282138, Note_on_c, 0, 75, 0
2, 282182, Control_c, 0, 64, 0
2, 282208, Note_on_c, 0, 75, 78
2, 282210, Note_on_c, 0, 63, 68
2, 282224, Note_on_c, 0, 58, 41
2, 282228, Note_on_c, 0, 55, 52
2, 282238, Note_on_c, 0, 74, 0
2, 282300, Note_on_c, 0, 77, 76
2, 282318, Note_on_c, 0, 75, 0
2, 282388, Note_on_c, 0, 79, 92
2, 282422, Note_on_c, 0, 77, 0
2, 282474, Note_on_c, 0, 80, 81
2, 282496, Note_on_c, 0, 79, 0
2, 282560, Note_on_c, 0, 82, 81
2, 282612, Note_on_c, 0, 80, 0
2, 282652, Note_on_c, 0, 84, 95
2, 282670, Note_on_c, 0, 82, 0
2, 282726, Note_on_c, 0, 85, 86
2, 282764, Note_on_c, 0, 84, 0
2, 282810, Note_on_c, 0, 87, 83
2, 282812, Control_c, 0, 64, 127
2, 282838, Note_on_c, 0, 85, 0
2, 282902, Note_on_c, 0, 85, 80
2, 282952, Note_on_c, 0, 87, 0
2, 282996, Control_c, 0, 64, 0
2, 283006, Note_on_c, 0, 84, 75
2, 283014, Note_on_c, 0, 85, 0
2, 283088, Note_on_c, 0, 82, 73
2, 283118, Note_on_c, 0, 84, 0
2, 283184, Note_on_c, 0, 80, 58
2, 283242, Note_on_c, 0, 82, 0
2, 283262, Note_on_c, 0, 79, 72
2, 283320, Note_on_c, 0, 79, 0
2, 283320, Control_c, 0, 64, 127
2, 283330, Note_on_c, 0, 80, 0
2, 283374, Note_on_c, 0, 77, 47
2, 283410, Note_on_c, 0, 63, 0
2, 283438, Note_on_c, 0, 77, 0
2, 283446, Note_on_c, 0, 75, 56
2, 283548, Note_on_c, 0, 73, 52
2, 283558, Note_on_c, 0, 55, 0
2, 283566, Control_c, 0, 64, 0
2, 283574, Note_on_c, 0, 75, 0
2, 283658, Note_on_c, 0, 58, 0
2, 283688, Note_on_c, 0, 56, 31
2, 283690, Note_on_c, 0, 63, 33
2, 283692, Note_on_c, 0, 73, 0
2, 283694, Note_on_c, 0, 72, 61
2, 283716, Note_on_c, 0, 60, 33
2, 283796, Note_on_c, 0, 72, 0
2, 283842, Control_c, 0, 64, 127
2, 283906, Note_on_c, 0, 84, 70
2, 283928, Note_on_c, 0, 60, 0
2, 283942, Note_on_c, 0, 63, 0
2, 283950, Note_on_c, 0, 56, 0
2, 283982, Note_on_c, 0, 84, 0
2, 284042, Control_c, 0, 64, 0
2, 284074, Note_on_c, 0, 83, 87
2, 284128, Note_on_c, 0, 83, 0
2, 284250, Note_on_c, 0, 86, 69
2, 284302, Note_on_c, 0, 86, 0
2, 284440, Note_on_c, 0, 84, 72
2, 284492, Note_on_c, 0, 84, 0
2, 284612, Note_on_c, 0, 87, 55
2, 284676, Note_on_c, 0, 87, 0
2, 284820, Note_on_c, 0, 83, 68
2, 284874, Note_on_c, 0, 83, 0
2, 285000, Note_on_c, 0, 86, 59
2, 285058, Note_on_c, 0, 86, 0
2, 285174, Note_on_c, 0, 84, 76
2, 285236, Note_on_c, 0, 84, 0
2, 285354, Note_on_c, 0, 87, 58
2, 285418, Note_on_c, 0, 87, 0
2, 285536, Note_on_c, 0, 71, 53
2, 285540, Note_on_c, 0, 83, 86
2, 285588, Note_on_c, 0, 71, 0
2, 285591, Note_on_c, 0, 83, 0
2, 285724, Note_on_c, 0, 74, 60
2, 285724, Note_on_c, 0, 86, 69
2, 285778, Note_on_c, 0, 74, 0
2, 285820, Note_on_c, 0, 86, 0
2, 285904, Note_on_c, 0, 72, 66
2, 285907, Note_on_c, 0, 84, 88
2, 285970, Note_on_c, 0, 72, 0
2, 286016, Note_on_c, 0, 84, 0
2, 286086, Note_on_c, 0, 87, 64
2, 286094, Note_on_c, 0, 75, 69
2, 286142, Note_on_c, 0, 75, 0
2, 286202, Note_on_c, 0, 87, 0
2, 286284, Note_on_c, 0, 72, 55
2, 286298, Note_on_c, 0, 84, 72
2, 286374, Note_on_c, 0, 72, 0
2, 286414, Note_on_c, 0, 80, 56
2, 286426, Note_on_c, 0, 68, 50
2, 286434, Note_on_c, 0, 84, 0
2, 286454, Control_c, 0, 64, 127
2, 286542, Note_on_c, 0, 80, 0
2, 286542, Note_on_c, 0, 77, 71
2, 286545, Note_on_c, 0, 65, 51
2, 286562, Note_on_c, 0, 68, 0
2, 286592, Note_on_c, 0, 65, 0
2, 286680, Note_on_c, 0, 75, 68
2, 286692, Note_on_c, 0, 58, 47
2, 286698, Note_on_c, 0, 67, 45
2, 286698, Control_c, 0, 64, 0
2, 286738, Note_on_c, 0, 77, 0
2, 287068, Control_c, 0, 64, 127
2, 287162, Note_on_c, 0, 75, 0
2, 287176, Note_on_c, 0, 77, 55
2, 287222, Note_on_c, 0, 75, 68
2, 287226, Note_on_c, 0, 77, 0
2, 287296, Note_on_c, 0, 74, 65
2, 287306, Note_on_c, 0, 75, 0
2, 287350, Note_on_c, 0, 74, 0
2, 287368, Note_on_c, 0, 75, 76
2, 287376, Control_c, 0, 64, 0
2, 287484, Note_on_c, 0, 79, 91
2, 287486, Note_on_c, 0, 67, 0
2, 287498, Note_on_c, 0, 75, 0
2, 287502, Note_on_c, 0, 74, 56
2, 287504, Note_on_c, 0, 68, 29
2, 288068, Control_c, 0, 64, 127
2, 288106, Note_on_c, 0, 77, 57
2, 288110, Note_on_c, 0, 79, 0
2, 288256, Note_on_c, 0, 68, 0
2, 288282, Control_c, 0, 64, 0
2, 288334, Note_on_c, 0, 75, 48
2, 288354, Note_on_c, 0, 74, 0
2, 288360, Note_on_c, 0, 63, 22
2, 288364, Note_on_c, 0, 67, 25
2, 288376, Note_on_c, 0, 77, 0
2, 288388, Note_on_c, 0, 58, 0
2, 288740, Note_on_c, 0, 67, 0
2, 288750, Note_on_c, 0, 63, 0
2, 288758, Control_c, 0, 64, 127
2, 288806, Note_on_c, 0, 75, 0
2, 288820, Control_c, 0, 64, 0
2, 289110, Note_on_c, 0, 82, 36
2, 289190, Note_on_c, 0, 79, 56
2, 289198, Note_on_c, 0, 67, 42
2, 289208, Note_on_c, 0, 63, 40
2, 289210, Note_on_c, 0, 82, 0
2, 289262, Note_on_c, 0, 79, 0
2, 289262, Note_on_c, 0, 63, 0
2, 289265, Note_on_c, 0, 67, 0
2, 289494, Note_on_c, 0, 82, 37
2, 289562, Note_on_c, 0, 82, 0
2, 289564, Note_on_c, 0, 58, 18
2, 289570, Note_on_c, 0, 77, 49
2, 289578, Note_on_c, 0, 65, 20
2, 289628, Note_on_c, 0, 77, 0
2, 289654, Note_on_c, 0, 65, 0
2, 289669, Note_on_c, 0, 58, 0
2, 289874, Note_on_c, 0, 82, 29
2, 289942, Note_on_c, 0, 63, 32
2, 289946, Note_on_c, 0, 75, 44
2, 289952, Note_on_c, 0, 55, 25
2, 289960, Note_on_c, 0, 82, 0
2, 290014, Note_on_c, 0, 75, 0
2, 290090, Note_on_c, 0, 55, 0
2, 290100, Note_on_c, 0, 63, 0
2, 290240, Note_on_c, 0, 82, 39
2, 290304, Note_on_c, 0, 82, 0
2, 290318, Note_on_c, 0, 70, 48
2, 290392, Note_on_c, 0, 70, 0
2, 290600, Note_on_c, 0, 82, 46
2, 290676, Note_on_c, 0, 67, 50
2, 290684, Note_on_c, 0, 79, 76
2, 290700, Note_on_c, 0, 63, 38
2, 290748, Note_on_c, 0, 82, 0
2, 290764, Note_on_c, 0, 67, 0
2, 290767, Note_on_c, 0, 63, 0
2, 290800, Note_on_c, 0, 79, 0
2, 290988, Note_on_c, 0, 82, 49
2, 291046, Note_on_c, 0, 58, 40
2, 291062, Note_on_c, 0, 77, 58
2, 291072, Note_on_c, 0, 65, 32
2, 291098, Note_on_c, 0, 82, 0
2, 291116, Note_on_c, 0, 77, 0
2, 291128, Note_on_c, 0, 58, 0
2, 291140, Note_on_c, 0, 65, 0
2, 291356, Note_on_c, 0, 82, 41
2, 291424, Note_on_c, 0, 63, 38
2, 291438, Note_on_c, 0, 82, 0
2, 291438, Note_on_c, 0, 75, 40
2, 291450, Note_on_c, 0, 55, 31
2, 291500, Note_on_c, 0, 75, 0
2, 291572, Note_on_c, 0, 55, 0
2, 291616, Note_on_c, 0, 63, 0
2, 291706, Note_on_c, 0, 82, 48
2, 291782, Note_on_c, 0, 82, 0
2, 291796, Note_on_c, 0, 70, 46
2, 291886, Note_on_c, 0, 70, 0
2, 292082, Note_on_c, 0, 82, 43
2, 292148, Note_on_c, 0, 63, 35
2, 292154, Note_on_c, 0, 82, 0
2, 292160, Note_on_c, 0, 73, 46
2, 292163, Note_on_c, 0, 55, 25
2, 292252, Note_on_c, 0, 63, 0
2, 292258, Note_on_c, 0, 55, 0
2, 292260, Note_on_c, 0, 73, 0
2, 292426, Note_on_c, 0, 82, 36
2, 292518, Note_on_c, 0, 63, 40
2, 292518, Note_on_c, 0, 71, 57
2, 292526, Note_on_c, 0, 55, 42
2, 292564, Note_on_c, 0, 82, 0
2, 292588, Note_on_c, 0, 71, 0
2, 292591, Note_on_c, 0, 63, 0
2, 292608, Note_on_c, 0, 55, 0
2, 292764, Note_on_c, 0, 82, 46
2, 292844, Note_on_c, 0, 82, 0
2, 292864, Note_on_c, 0, 72, 57
2, 292872, Note_on_c, 0, 56, 41
2, 292890, Note_on_c, 0, 63, 41
2, 292932, Note_on_c, 0, 72, 0
2, 293128, Note_on_c, 0, 76, 55
2, 293212, Note_on_c, 0, 77, 79
2, 293238, Note_on_c, 0, 63, 0
2, 293241, Note_on_c, 0, 60, 49
2, 293262, Note_on_c, 0, 76, 0
2, 293328, Note_on_c, 0, 77, 0
2, 293504, Note_on_c, 0, 79, 55
2, 293568, Note_on_c, 0, 80, 75
2, 293582, Note_on_c, 0, 79, 0
2, 293598, Note_on_c, 0, 65, 46
2, 293614, Note_on_c, 0, 60, 0
2, 293710, Note_on_c, 0, 80, 0
2, 293866, Note_on_c, 0, 79, 60
2, 293880, Note_on_c, 0, 56, 0
2, 293948, Note_on_c, 0, 77, 58
2, 293951, Note_on_c, 0, 57, 36
2, 293956, Note_on_c, 0, 79, 0
2, 294010, Note_on_c, 0, 77, 0
2, 294204, Note_on_c, 0, 75, 46
2, 294278, Note_on_c, 0, 75, 0
2, 294294, Note_on_c, 0, 58, 29
2, 294300, Note_on_c, 0, 57, 0
2, 294310, Note_on_c, 0, 74, 47
2, 294374, Note_on_c, 0, 74, 0
2, 294564, Note_on_c, 0, 84, 55
2, 294648, Note_on_c, 0, 60, 48
2, 294648, Note_on_c, 0, 82, 56
2, 294698, Note_on_c, 0, 84, 0
2, 294698, Note_on_c, 0, 58, 0
2, 294744, Note_on_c, 0, 82, 0
2, 294932, Note_on_c, 0, 81, 48
2, 294968, Note_on_c, 0, 62, 34
2, 294992, Note_on_c, 0, 60, 0
2, 295002, Note_on_c, 0, 81, 0
2, 295008, Note_on_c, 0, 82, 55
2, 295100, Note_on_c, 0, 82, 0
2, 295268, Note_on_c, 0, 84, 48
2, 295338, Note_on_c, 0, 84, 0
2, 295352, Note_on_c, 0, 70, 21
2, 295355, Note_on_c, 0, 82, 32
2, 295434, Note_on_c, 0, 82, 0
2, 295520, Control_c, 0, 64, 127
2, 295536, Note_on_c, 0, 62, 0
2, 295552, Note_on_c, 0, 65, 0
2, 295608, Note_on_c, 0, 80, 40
2, 295674, Note_on_c, 0, 80, 0
2, 295752, Note_on_c, 0, 70, 0
2, 295762, Note_on_c, 0, 78, 57
2, 295782, Control_c, 0, 64, 0
2, 295788, Note_on_c, 0, 63, 33
2, 295788, Note_on_c, 0, 66, 20
2, 295862, Note_on_c, 0, 78, 0
2, 295867, Note_on_c, 0, 80, 59
2, 295896, Note_on_c, 0, 63, 0
2, 295946, Note_on_c, 0, 78, 57
2, 295952, Note_on_c, 0, 70, 40
2, 295966, Control_c, 0, 64, 127
2, 295984, Note_on_c, 0, 66, 0
2, 295986, Note_on_c, 0, 80, 0
2, 296068, Note_on_c, 0, 77, 63
2, 296071, Note_on_c, 0, 78, 0
2, 296108, Note_on_c, 0, 70, 0
2, 296132, Note_on_c, 0, 75, 64
2, 296132, Control_c, 0, 64, 0
2, 296135, Note_on_c, 0, 66, 42
2, 296140, Note_on_c, 0, 63, 45
2, 296154, Note_on_c, 0, 77, 0
2, 296180, Note_on_c, 0, 75, 0
2, 296304, Note_on_c, 0, 70, 45
2, 296308, Note_on_c, 0, 75, 70
2, 296360, Note_on_c, 0, 75, 0
2, 296386, Note_on_c, 0, 66, 0
2, 296434, Note_on_c, 0, 63, 0
2, 296486, Note_on_c, 0, 80, 84
2, 296504, Note_on_c, 0, 65, 44
2, 296506, Note_on_c, 0, 70, 0
2, 296526, Note_on_c, 0, 62, 33
2, 296554, Note_on_c, 0, 82, 75
2, 296592, Note_on_c, 0, 80, 0
2, 296638, Note_on_c, 0, 80, 67
2, 296642, Control_c, 0, 64, 127
2, 296662, Note_on_c, 0, 70, 48
2, 296686, Note_on_c, 0, 62, 0
2, 296696, Note_on_c, 0, 65, 0
2, 296704, Note_on_c, 0, 82, 0
2, 296720, Note_on_c, 0, 78, 83
2, 296794, Note_on_c, 0, 80, 0
2, 296810, Control_c, 0, 64, 0
2, 296836, Note_on_c, 0, 77, 93
2, 296850, Note_on_c, 0, 70, 0
2, 296858, Note_on_c, 0, 62, 51
2, 296864, Note_on_c, 0, 65, 47
2, 296874, Note_on_c, 0, 78, 0
2, 296924, Note_on_c, 0, 77, 0
2, 297040, Note_on_c, 0, 70, 50
2, 297046, Note_on_c, 0, 77, 64
2, 297074, Note_on_c, 0, 65, 0
2, 297092, Note_on_c, 0, 77, 0
2, 297164, Note_on_c, 0, 62, 0
2, 297222, Note_on_c, 0, 78, 73
2, 297234, Note_on_c, 0, 70, 0
2, 297244, Note_on_c, 0, 66, 32
2, 297252, Note_on_c, 0, 63, 41
2, 297274, Note_on_c, 0, 78, 0
2, 297324, Note_on_c, 0, 80, 33
2, 297352, Note_on_c, 0, 63, 0
2, 297388, Note_on_c, 0, 78, 50
2, 297414, Note_on_c, 0, 70, 35
2, 297417, Note_on_c, 0, 80, 0
2, 297438, Note_on_c, 0, 66, 0
2, 297456, Control_c, 0, 64, 127
2, 297518, Note_on_c, 0, 77, 49
2, 297532, Note_on_c, 0, 78, 0
2, 297532, Control_c, 0, 64, 0
2, 297586, Note_on_c, 0, 70, 0
2, 297589, Note_on_c, 0, 77, 0
2, 297589, Note_on_c, 0, 75, 48
2, 297600, Note_on_c, 0, 63, 42
2, 297602, Note_on_c, 0, 66, 37
2, 297646, Note_on_c, 0, 75, 0
2, 297684, Note_on_c, 0, 66, 0
2, 297776, Note_on_c, 0, 70, 38
2, 297798, Note_on_c, 0, 75, 53
2, 297846, Note_on_c, 0, 75, 0
2, 297854, Note_on_c, 0, 63, 0
2, 297966, Note_on_c, 0, 80, 56
2, 297976, Note_on_c, 0, 70, 0
2, 297994, Note_on_c, 0, 65, 35
2, 298006, Note_on_c, 0, 62, 27
2, 298018, Note_on_c, 0, 80, 0
2, 298036, Note_on_c, 0, 82, 48
2, 298114, Note_on_c, 0, 80, 40
2, 298152, Note_on_c, 0, 70, 28
2, 298168, Note_on_c, 0, 62, 0
2, 298180, Note_on_c, 0, 82, 0
2, 298188, Note_on_c, 0, 65, 0
2, 298204, Note_on_c, 0, 78, 51
2, 298256, Note_on_c, 0, 80, 0
2, 298288, Note_on_c, 0, 78, 0
2, 298318, Note_on_c, 0, 77, 55
2, 298336, Note_on_c, 0, 70, 0
2, 298372, Note_on_c, 0, 77, 0
2, 298380, Note_on_c, 0, 65, 25
2, 298398, Note_on_c, 0, 62, 6
2, 298470, Note_on_c, 0, 65, 0
2, 298506, Note_on_c, 0, 62, 0
2, 298520, Note_on_c, 0, 70, 39
2, 298528, Note_on_c, 0, 77, 56
2, 298578, Note_on_c, 0, 77, 0
2, 298578, Note_on_c, 0, 70, 0
2, 298700, Note_on_c, 0, 78, 64
2, 298708, Note_on_c, 0, 66, 40
2, 298726, Note_on_c, 0, 54, 44
2, 298782, Note_on_c, 0, 78, 0
2, 298788, Note_on_c, 0, 80, 59
2, 298838, Control_c, 0, 64, 127
2, 298886, Note_on_c, 0, 78, 55
2, 298908, Note_on_c, 0, 66, 0
2, 298922, Note_on_c, 0, 80, 0
2, 298960, Note_on_c, 0, 54, 0
2, 298960, Note_on_c, 0, 78, 0
2, 298978, Note_on_c, 0, 77, 55
2, 299022, Control_c, 0, 64, 0
2, 299080, Note_on_c, 0, 63, 75
2, 299080, Note_on_c, 0, 75, 67
2, 299086, Note_on_c, 0, 51, 73
2, 299089, Note_on_c, 0, 77, 0
2, 299146, Note_on_c, 0, 75, 0
2, 299162, Note_on_c, 0, 77, 75
2, 299190, Note_on_c, 0, 63, 0
2, 299208, Control_c, 0, 64, 127
2, 299218, Note_on_c, 0, 51, 0
2, 299264, Note_on_c, 0, 75, 65
2, 299294, Note_on_c, 0, 77, 0
2, 299356, Note_on_c, 0, 73, 60
2, 299368, Note_on_c, 0, 75, 0
2, 299406, Control_c, 0, 64, 0
2, 299430, Note_on_c, 0, 59, 89
2, 299436, Note_on_c, 0, 47, 78
2, 299440, Note_on_c, 0, 73, 0
2, 299460, Note_on_c, 0, 71, 67
2, 299520, Note_on_c, 0, 71, 0
2, 299526, Note_on_c, 0, 73, 35
2, 299546, Control_c, 0, 64, 127
2, 299602, Note_on_c, 0, 59, 0
2, 299630, Note_on_c, 0, 71, 36
2, 299664, Note_on_c, 0, 73, 0
2, 299664, Note_on_c, 0, 47, 0
2, 299716, Note_on_c, 0, 70, 67
2, 299746, Note_on_c, 0, 71, 0
2, 299776, Control_c, 0, 64, 0
2, 299794, Note_on_c, 0, 56, 79
2, 299802, Note_on_c, 0, 44, 83
2, 299806, Note_on_c, 0, 68, 77
2, 299812, Note_on_c, 0, 70, 0
2, 299884, Note_on_c, 0, 68, 0
2, 299906, Note_on_c, 0, 70, 53
2, 299980, Note_on_c, 0, 56, 0
2, 299980, Note_on_c, 0, 68, 62
2, 299990, Control_c, 0, 64, 127
2, 300032, Note_on_c, 0, 70, 0
2, 300064, Note_on_c, 0, 66, 70
2, 300100, Note_on_c, 0, 68, 0
2, 300114, Control_c, 0, 64, 0
2, 300142, Note_on_c, 0, 44, 0
2, 300150, Note_on_c, 0, 53, 104
2, 300154, Note_on_c, 0, 41, 87
2, 300170, Note_on_c, 0, 65, 76
2, 300186, Note_on_c, 0, 66, 0
2, 300248, Note_on_c, 0, 66, 62
2, 300268, Note_on_c, 0, 65, 0
2, 300334, Note_on_c, 0, 68, 57
2, 300364, Note_on_c, 0, 66, 0
2, 300424, Note_on_c, 0, 66, 64
2, 300460, Note_on_c, 0, 68, 0
2, 300520, Note_on_c, 0, 65, 60
2, 300534, Note_on_c, 0, 66, 0
2, 300606, Control_c, 0, 64, 127
2, 300606, Note_on_c, 0, 66, 58
2, 300632, Note_on_c, 0, 65, 0
2, 300666, Note_on_c, 0, 53, 0
2, 300692, Note_on_c, 0, 68, 71
2, 300724, Note_on_c, 0, 66, 0
2, 300788, Note_on_c, 0, 66, 65
2, 300840, Note_on_c, 0, 68, 0
2, 300870, Note_on_c, 0, 51, 89
2, 300875, Note_on_c, 0, 39, 82
2, 300878, Note_on_c, 0, 41, 0
2, 300882, Note_on_c, 0, 65, 77
2, 300902, Note_on_c, 0, 66, 0
2, 300972, Note_on_c, 0, 65, 0
2, 300972, Note_on_c, 0, 66, 61
2, 301054, Note_on_c, 0, 68, 67
2, 301086, Note_on_c, 0, 66, 0
2, 301144, Note_on_c, 0, 66, 69
2, 301200, Note_on_c, 0, 68, 0
2, 301242, Note_on_c, 0, 65, 69
2, 301254, Note_on_c, 0, 66, 0
2, 301328, Note_on_c, 0, 66, 59
2, 301334, Note_on_c, 0, 65, 0
2, 301424, Note_on_c, 0, 68, 70
2, 301444, Note_on_c, 0, 66, 0
2, 301506, Note_on_c, 0, 66, 64
2, 301552, Note_on_c, 0, 68, 0
2, 301574, Note_on_c, 0, 51, 0
2, 301588, Control_c, 0, 64, 0
2, 301600, Note_on_c, 0, 50, 84
2, 301600, Note_on_c, 0, 65, 67
2, 301600, Note_on_c, 0, 38, 81
2, 301624, Note_on_c, 0, 66, 0
2, 301664, Note_on_c, 0, 39, 0
2, 301682, Note_on_c, 0, 66, 65
2, 301718, Note_on_c, 0, 65, 0
2, 301766, Note_on_c, 0, 68, 64
2, 301800, Note_on_c, 0, 66, 0
2, 301858, Note_on_c, 0, 66, 65
2, 301888, Note_on_c, 0, 68, 0
2, 301928, Control_c, 0, 64, 127
2, 301952, Note_on_c, 0, 65, 52
2, 301968, Note_on_c, 0, 66, 0
2, 302028, Note_on_c, 0, 65, 0
2, 302028, Note_on_c, 0, 66, 62
2, 302114, Note_on_c, 0, 68, 58
2, 302124, Note_on_c, 0, 66, 0
2, 302124, Note_on_c, 0, 50, 0
2, 302200, Note_on_c, 0, 66, 53
2, 302248, Note_on_c, 0, 68, 0
2, 302280, Control_c, 0, 64, 0
2, 302304, Note_on_c, 0, 65, 54
2, 302306, Note_on_c, 0, 47, 70
2, 302308, Note_on_c, 0, 35, 88
2, 302314, Note_on_c, 0, 66, 0
2, 302334, Note_on_c, 0, 38, 0
2, 302388, Note_on_c, 0, 66, 48
2, 302396, Note_on_c, 0, 65, 0
2, 302474, Note_on_c, 0, 68, 51
2, 302498, Note_on_c, 0, 66, 0
2, 302566, Note_on_c, 0, 66, 54
2, 302610, Note_on_c, 0, 68, 0
2, 302676, Note_on_c, 0, 65, 40
2, 302680, Note_on_c, 0, 66, 0
2, 302746, Note_on_c, 0, 65, 0
2, 302748, Note_on_c, 0, 66, 49
2, 302756, Control_c, 0, 64, 127
2, 302764, Note_on_c, 0, 47, 0
2, 302836, Note_on_c, 0, 66, 0
2, 302844, Note_on_c, 0, 68, 45
2, 302948, Note_on_c, 0, 66, 37
2, 302982, Note_on_c, 0, 68, 0
2, 303048, Control_c, 0, 64, 0
2, 303052, Note_on_c, 0, 66, 0
2, 303072, Note_on_c, 0, 65, 43
2, 303078, Note_on_c, 0, 34, 56
2, 303086, Note_on_c, 0, 46, 40
2, 303096, Note_on_c, 0, 35, 0
2, 303160, Note_on_c, 0, 65, 0
2, 303180, Note_on_c, 0, 67, 42
2, 303240, Note_on_c, 0, 67, 0
2, 303244, Note_on_c, 0, 68, 44
2, 303340, Note_on_c, 0, 67, 34
2, 303350, Note_on_c, 0, 68, 0
2, 303422, Note_on_c, 0, 67, 0
2, 303450, Note_on_c, 0, 65, 35
2, 303520, Note_on_c, 0, 67, 41
2, 303522, Note_on_c, 0, 65, 0
2, 303594, Note_on_c, 0, 67, 0
2, 303614, Note_on_c, 0, 68, 29
2, 303688, Note_on_c, 0, 67, 36
2, 303696, Note_on_c, 0, 68, 0
2, 303764, Note_on_c, 0, 67, 0
2, 303786, Note_on_c, 0, 65, 34
2, 303832, Control_c, 0, 64, 127
2, 303850, Note_on_c, 0, 67, 39
2, 303855, Note_on_c, 0, 65, 0
2, 303936, Note_on_c, 0, 67, 0
2, 303954, Note_on_c, 0, 68, 32
2, 304024, Note_on_c, 0, 67, 40
2, 304029, Note_on_c, 0, 68, 0
2, 304102, Note_on_c, 0, 67, 0
2, 304130, Note_on_c, 0, 65, 36
2, 304192, Note_on_c, 0, 67, 47
2, 304198, Note_on_c, 0, 65, 0
2, 304264, Note_on_c, 0, 67, 0
2, 304276, Note_on_c, 0, 68, 51
2, 304366, Note_on_c, 0, 67, 46
2, 304390, Note_on_c, 0, 68, 0
2, 304462, Note_on_c, 0, 67, 0
2, 304462, Note_on_c, 0, 65, 62
2, 304532, Note_on_c, 0, 65, 0
2, 304532, Control_c, 0, 64, 0
2, 304532, Note_on_c, 0, 67, 68
2, 304628, Note_on_c, 0, 68, 64
2, 304648, Note_on_c, 0, 67, 0
2, 304706, Note_on_c, 0, 67, 85
2, 304748, Note_on_c, 0, 68, 0
2, 304760, Control_c, 0, 64, 127
2, 304810, Note_on_c, 0, 65, 66
2, 304816, Control_c, 0, 64, 0
2, 304828, Note_on_c, 0, 67, 0
2, 304886, Note_on_c, 0, 65, 0
2, 304888, Note_on_c, 0, 67, 82
2, 304960, Note_on_c, 0, 67, 0
2, 304963, Note_on_c, 0, 68, 78
2, 305014, Control_c, 0, 64, 127
2, 305052, Note_on_c, 0, 67, 68
2, 305060, Control_c, 0, 64, 0
2, 305092, Note_on_c, 0, 68, 0
2, 305136, Note_on_c, 0, 65, 69
2, 305156, Note_on_c, 0, 67, 0
2, 305214, Note_on_c, 0, 67, 82
2, 305252, Note_on_c, 0, 65, 0
2, 305276, Control_c, 0, 64, 127
2, 305278, Note_on_c, 0, 34, 0
2, 305300, Note_on_c, 0, 68, 81
2, 305336, Note_on_c, 0, 46, 0
2, 305339, Note_on_c, 0, 67, 0
2, 305384, Note_on_c, 0, 70, 68
2, 305426, Note_on_c, 0, 68, 0
2, 305444, Note_on_c, 0, 70, 0
2, 305472, Note_on_c, 0, 72, 87
2, 305556, Note_on_c, 0, 74, 92
2, 305608, Note_on_c, 0, 72, 0
2, 305642, Note_on_c, 0, 75, 76
2, 305708, Note_on_c, 0, 74, 0
2, 305726, Note_on_c, 0, 77, 75
2, 305780, Note_on_c, 0, 75, 0
2, 305798, Control_c, 0, 64, 0
2, 305818, Note_on_c, 0, 77, 0
2, 305818, Note_on_c, 0, 79, 110
2, 305824, Note_on_c, 0, 75, 100
2, 305824, Note_on_c, 0, 70, 79
2, 305827, Note_on_c, 0, 67, 78
2, 305834, Note_on_c, 0, 63, 75
2, 306168, Control_c, 0, 64, 127
2, 306228, Note_on_c, 0, 67, 0
2, 306244, Note_on_c, 0, 75, 0
2, 306256, Note_on_c, 0, 70, 0
2, 306274, Note_on_c, 0, 79, 0
2, 306384, Note_on_c, 0, 63, 0
2, 306476, Note_on_c, 0, 62, 64
2, 306498, Note_on_c, 0, 65, 64
2, 306536, Control_c, 0, 64, 0
2, 306540, Note_on_c, 0, 70, 83
2, 306548, Note_on_c, 0, 77, 87
2, 306564, Note_on_c, 0, 82, 103
2, 306814, Control_c, 0, 64, 127
2, 306924, Note_on_c, 0, 62, 0
2, 306962, Note_on_c, 0, 77, 0
2, 306965, Note_on_c, 0, 70, 0
2, 307096, Note_on_c, 0, 65, 0
2, 307122, Note_on_c, 0, 60, 55
2, 307130, Note_on_c, 0, 63, 62
2, 307166, Note_on_c, 0, 68, 50
2, 307196, Note_on_c, 0, 75, 66
2, 307199, Note_on_c, 0, 72, 69
2, 307278, Note_on_c, 0, 80, 70
2, 307306, Note_on_c, 0, 82, 0
2, 307312, Note_on_c, 0, 87, 99
2, 307336, Control_c, 0, 64, 0
2, 308058, Control_c, 0, 64, 127
2, 308102, Note_on_c, 0, 72, 0
2, 308146, Note_on_c, 0, 60, 0
2, 308162, Note_on_c, 0, 80, 0
2, 308248, Note_on_c, 0, 63, 0
2, 308250, Note_on_c, 0, 68, 0
2, 308254, Note_on_c, 0, 75, 0
2, 308424, Note_on_c, 0, 87, 0
2, 308456, Note_on_c, 0, 86, 59
2, 308538, Note_on_c, 0, 84, 78
2, 308578, Note_on_c, 0, 86, 0
2, 308600, Note_on_c, 0, 82, 68
2, 308634, Note_on_c, 0, 84, 0
2, 308654, Note_on_c, 0, 75, 45
2, 308656, Note_on_c, 0, 80, 80
2, 308666, Note_on_c, 0, 72, 35
2, 308706, Note_on_c, 0, 82, 0
2, 308718, Control_c, 0, 64, 0
2, 308952, Note_on_c, 0, 80, 0
2, 308954, Note_on_c, 0, 75, 0
2, 309028, Note_on_c, 0, 72, 0
2, 309200, Note_on_c, 0, 79, 93
2, 309212, Note_on_c, 0, 75, 43
2, 309230, Note_on_c, 0, 70, 34
2, 309322, Note_on_c, 0, 75, 0
2, 309424, Note_on_c, 0, 84, 83
2, 309458, Note_on_c, 0, 79, 0
2, 309460, Note_on_c, 0, 75, 34
2, 309472, Note_on_c, 0, 68, 29
2, 309484, Note_on_c, 0, 70, 0
2, 309694, Note_on_c, 0, 75, 0
2, 309710, Note_on_c, 0, 68, 0
2, 309718, Control_c, 0, 64, 127
2, 309760, Note_on_c, 0, 84, 0
2, 309840, Control_c, 0, 64, 0
2, 310028, Note_on_c, 0, 66, 32
2, 310034, Note_on_c, 0, 82, 47
2, 310036, Note_on_c, 0, 75, 36
2, 310046, Note_on_c, 0, 70, 28
2, 310286, Note_on_c, 0, 66, 0
2, 310290, Note_on_c, 0, 70, 0
2, 310292, Note_on_c, 0, 81, 45
2, 310298, Note_on_c, 0, 72, 32
2, 310314, Note_on_c, 0, 65, 20
2, 310324, Note_on_c, 0, 82, 0
2, 310746, Control_c, 0, 64, 127
2, 310842, Note_on_c, 0, 72, 0
2, 310926, Note_on_c, 0, 81, 0
2, 310940, Note_on_c, 0, 65, 0
2, 310942, Note_on_c, 0, 75, 0
2, 311084, Control_c, 0, 64, 0
2, 311414, Note_on_c, 0, 80, 57
2, 311420, Note_on_c, 0, 84, 73
2, 311564, Note_on_c, 0, 80, 0
2, 311604, Note_on_c, 0, 82, 57
2, 311612, Note_on_c, 0, 79, 63
2, 311686, Note_on_c, 0, 84, 0
2, 311756, Note_on_c, 0, 79, 0
2, 311790, Note_on_c, 0, 80, 61
2, 311790, Control_c, 0, 64, 127
2, 311810, Note_on_c, 0, 77, 45
2, 311838, Note_on_c, 0, 82, 0
2, 311852, Note_on_c, 0, 80, 0
2, 311944, Control_c, 0, 64, 0
2, 311978, Note_on_c, 0, 75, 49
2, 311981, Note_on_c, 0, 79, 63
2, 312000, Note_on_c, 0, 77, 0
2, 312130, Note_on_c, 0, 79, 0
2, 312130, Note_on_c, 0, 75, 0
2, 312166, Note_on_c, 0, 70, 62
2, 312176, Control_c, 0, 64, 127
2, 312179, Note_on_c, 0, 67, 64
2, 312244, Note_on_c, 0, 70, 0
2, 312320, Note_on_c, 0, 67, 0
2, 312348, Note_on_c, 0, 68, 65
2, 312372, Note_on_c, 0, 65, 51
2, 312464, Note_on_c, 0, 65, 0
2, 312466, Control_c, 0, 64, 0
2, 312534, Note_on_c, 0, 63, 69
2, 312542, Note_on_c, 0, 67, 74
2, 312566, Note_on_c, 0, 68, 0
2, 312678, Note_on_c, 0, 63, 0
2, 312690, Note_on_c, 0, 67, 0
2, 312722, Note_on_c, 0, 65, 69
2, 312734, Note_on_c, 0, 62, 57
2, 312874, Note_on_c, 0, 65, 0
2, 312877, Note_on_c, 0, 62, 0
2, 312892, Note_on_c, 0, 84, 84
2, 312892, Note_on_c, 0, 80, 75
2, 313038, Note_on_c, 0, 80, 0
2, 313078, Note_on_c, 0, 82, 65
2, 313086, Note_on_c, 0, 79, 71
2, 313170, Note_on_c, 0, 84, 0
2, 313250, Control_c, 0, 64, 127
2, 313256, Note_on_c, 0, 80, 71
2, 313270, Note_on_c, 0, 79, 0
2, 313273, Note_on_c, 0, 77, 55
2, 313302, Note_on_c, 0, 82, 0
2, 313314, Note_on_c, 0, 80, 0
2, 313420, Control_c, 0, 64, 0
2, 313448, Note_on_c, 0, 79, 66
2, 313450, Note_on_c, 0, 75, 53
2, 313488, Note_on_c, 0, 77, 0
2, 313538, Note_on_c, 0, 75, 0
2, 313552, Note_on_c, 0, 79, 0
2, 313620, Control_c, 0, 64, 127
2, 313630, Note_on_c, 0, 70, 51
2, 313652, Note_on_c, 0, 67, 54
2, 313706, Note_on_c, 0, 70, 0
2, 313722, Note_on_c, 0, 67, 0
2, 313830, Note_on_c, 0, 68, 48
2, 313833, Note_on_c, 0, 65, 38
2, 313898, Note_on_c, 0, 65, 0
2, 313952, Note_on_c, 0, 68, 0
2, 313992, Note_on_c, 0, 63, 64
2, 314002, Note_on_c, 0, 67, 56
2, 314080, Control_c, 0, 64, 0
2, 314090, Note_on_c, 0, 67, 0
2, 314144, Note_on_c, 0, 63, 0
2, 314184, Note_on_c, 0, 65, 51
2, 314187, Note_on_c, 0, 62, 57
2, 314230, Note_on_c, 0, 62, 0
2, 314230, Note_on_c, 0, 65, 0
2, 314250, Control_c, 0, 64, 127
2, 314358, Control_c, 0, 64, 0
2, 314366, Note_on_c, 0, 70, 52
2, 314369, Note_on_c, 0, 80, 62
2, 314374, Note_on_c, 0, 84, 65
2, 314532, Note_on_c, 0, 80, 0
2, 314548, Note_on_c, 0, 82, 67
2, 314558, Note_on_c, 0, 79, 78
2, 314564, Note_on_c, 0, 72, 72
2, 314582, Note_on_c, 0, 84, 0
2, 314590, Note_on_c, 0, 70, 0
2, 314700, Note_on_c, 0, 79, 0
2, 314738, Note_on_c, 0, 72, 0
2, 314744, Note_on_c, 0, 74, 78
2, 314744, Note_on_c, 0, 80, 76
2, 314746, Note_on_c, 0, 77, 67
2, 314806, Note_on_c, 0, 82, 0
2, 314834, Control_c, 0, 64, 127
2, 314854, Note_on_c, 0, 77, 0
2, 314906, Note_on_c, 0, 79, 88
2, 314912, Note_on_c, 0, 74, 0
2, 314920, Note_on_c, 0, 75, 78
2, 314940, Control_c, 0, 64, 0
2, 314946, Note_on_c, 0, 79, 0
2, 314958, Note_on_c, 0, 80, 0
2, 315048, Note_on_c, 0, 75, 0
2, 315096, Note_on_c, 0, 82, 71
2, 315096, Note_on_c, 0, 79, 85
2, 315096, Note_on_c, 0, 87, 75
2, 315234, Note_on_c, 0, 87, 0
2, 315236, Note_on_c, 0, 79, 0
2, 315268, Note_on_c, 0, 82, 0
2, 315271, Note_on_c, 0, 86, 69
2, 315275, Note_on_c, 0, 77, 78
2, 315275, Note_on_c, 0, 80, 69
2, 315310, Control_c, 0, 64, 127
2, 315313, Note_on_c, 0, 86, 0
2, 315358, Note_on_c, 0, 80, 0
2, 315400, Note_on_c, 0, 77, 0
2, 315436, Note_on_c, 0, 84, 85
2, 315439, Note_on_c, 0, 79, 83
2, 315444, Note_on_c, 0, 75, 64
2, 315556, Note_on_c, 0, 79, 0
2, 315572, Note_on_c, 0, 75, 0
2, 315572, Note_on_c, 0, 84, 0
2, 315596, Note_on_c, 0, 82, 74
2, 315602, Note_on_c, 0, 77, 74
2, 315604, Note_on_c, 0, 74, 78
2, 315656, Note_on_c, 0, 82, 0
2, 315706, Note_on_c, 0, 77, 0
2, 315722, Note_on_c, 0, 74, 0
2, 315762, Note_on_c, 0, 80, 83
2, 315776, Note_on_c, 0, 72, 78
2, 315778, Note_on_c, 0, 75, 71
2, 315878, Note_on_c, 0, 80, 0
2, 315904, Note_on_c, 0, 72, 0
2, 315922, Note_on_c, 0, 75, 0
2, 315936, Note_on_c, 0, 79, 80
2, 315938, Note_on_c, 0, 74, 83
2, 315938, Note_on_c, 0, 70, 70
2, 315988, Note_on_c, 0, 79, 0
2, 315991, Note_on_c, 0, 74, 0
2, 316072, Note_on_c, 0, 70, 0
2, 316100, Note_on_c, 0, 72, 63
2, 316106, Note_on_c, 0, 77, 79
2, 316110, Note_on_c, 0, 68, 63
2, 316196, Note_on_c, 0, 77, 0
2, 316212, Note_on_c, 0, 72, 0
2, 316228, Note_on_c, 0, 68, 0
2, 316330, Note_on_c, 0, 76, 84
2, 316344, Note_on_c, 0, 70, 60
2, 316346, Note_on_c, 0, 67, 63
2, 316478, Control_c, 0, 64, 0
2, 317170, Note_on_c, 0, 77, 56
2, 317173, Note_on_c, 0, 72, 28
2, 317176, Note_on_c, 0, 68, 26
2, 317192, Note_on_c, 0, 67, 0
2, 317230, Note_on_c, 0, 76, 0
2, 317238, Note_on_c, 0, 70, 0
2, 317522, Control_c, 0, 64, 127
2, 317578, Note_on_c, 0, 77, 0
2, 317580, Note_on_c, 0, 72, 0
2, 317620, Note_on_c, 0, 68, 0
2, 317630, Control_c, 0, 64, 0
2, 318010, Note_on_c, 0, 70, 37
2, 318014, Note_on_c, 0, 74, 63
2, 318018, Note_on_c, 0, 68, 30
2, 318028, Note_on_c, 0, 65, 35
2, 318840, Note_on_c, 0, 74, 0
2, 318876, Note_on_c, 0, 75, 32
2, 318882, Note_on_c, 0, 68, 0
2, 318885, Note_on_c, 0, 67, 21
2, 318926, Note_on_c, 0, 65, 0
2, 319244, Control_c, 0, 64, 127
2, 319288, Note_on_c, 0, 70, 0
2, 319302, Note_on_c, 0, 75, 0
2, 319370, Note_on_c, 0, 67, 0
2, 319504, Control_c, 0, 64, 0
2, 321026, Note_on_c, 0, 72, 36
2, 321054, Note_on_c, 0, 60, 21
2, 321808, Control_c, 0, 64, 127
2, 322112, Note_on_c, 0, 72, 0
2, 322126, Note_on_c, 0, 60, 0
2, 322662, Note_on_c, 0, 71, 26
2, 322684, Note_on_c, 0, 35, 22
2, 322690, Note_on_c, 0, 47, 13
2, 322692, Note_on_c, 0, 59, 10
2, 322962, Control_c, 0, 64, 0
2, 323376, Control_c, 0, 64, 127
2, 323520, Note_on_c, 0, 47, 0
2, 323662, Note_on_c, 0, 59, 0
2, 323706, Note_on_c, 0, 71, 0
2, 323802, Note_on_c, 0, 35, 0
2, 324304, Note_on_c, 0, 69, 17
2, 324320, Note_on_c, 0, 57, 20
2, 324324, Note_on_c, 0, 45, 12
2, 324334, Note_on_c, 0, 33, 22
2, 324652, Control_c, 0, 64, 0
2, 325096, Control_c, 0, 64, 127
2, 325504, Note_on_c, 0, 57, 0
2, 325562, Note_on_c, 0, 45, 0
2, 325850, Note_on_c, 0, 33, 0
2, 326022, Note_on_c, 0, 32, 21
2, 326024, Note_on_c, 0, 68, 33
2, 326026, Note_on_c, 0, 56, 23
2, 326032, Note_on_c, 0, 44, 21
2, 326168, Note_on_c, 0, 69, 0
2, 326646, Note_on_c, 0, 56, 0
2, 326720, Note_on_c, 0, 44, 0
2, 326730, Note_on_c, 0, 32, 0
2, 326806, Note_on_c, 0, 69, 44
2, 326814, Note_on_c, 0, 57, 34
2, 326832, Note_on_c, 0, 33, 33
2, 326832, Note_on_c, 0, 45, 24
2, 326850, Note_on_c, 0, 68, 0
2, 326850, Control_c, 0, 64, 0
2, 327082, Note_on_c, 0, 45, 0
2, 327084, Note_on_c, 0, 33, 0
2, 327094, Control_c, 0, 64, 127
2, 327168, Note_on_c, 0, 57, 0
2, 327266, Note_on_c, 0, 69, 0
2, 327566, Note_on_c, 0, 58, 88
2, 327568, Note_on_c, 0, 70, 88
2, 327570, Note_on_c, 0, 34, 100
2, 327570, Note_on_c, 0, 67, 87
2, 327574, Note_on_c, 0, 63, 86
2, 327648, Control_c, 0, 64, 0
2, 327660, Note_on_c, 0, 46, 79
2, 327696, Note_on_c, 0, 34, 0
2, 327756, Note_on_c, 0, 34, 73
2, 327770, Control_c, 0, 64, 127
2, 327780, Note_on_c, 0, 46, 0
2, 327844, Note_on_c, 0, 46, 60
2, 327847, Note_on_c, 0, 58, 0
2, 327870, Note_on_c, 0, 34, 0
2, 327928, Note_on_c, 0, 63, 0
2, 327928, Note_on_c, 0, 34, 76
2, 327942, Note_on_c, 0, 67, 0
2, 327952, Note_on_c, 0, 46, 0
2, 328004, Note_on_c, 0, 70, 0
2, 328023, Note_on_c, 0, 46, 57
2, 328028, Note_on_c, 0, 34, 0
2, 328120, Note_on_c, 0, 34, 60
2, 328134, Note_on_c, 0, 46, 0
2, 328214, Note_on_c, 0, 46, 55
2, 328246, Note_on_c, 0, 34, 0
2, 328322, Note_on_c, 0, 34, 69
2, 328322, Note_on_c, 0, 75, 90
2, 328324, Note_on_c, 0, 67, 83
2, 328330, Note_on_c, 0, 46, 0
2, 328332, Note_on_c, 0, 70, 61
2, 328368, Note_on_c, 0, 67, 0
2, 328374, Note_on_c, 0, 70, 0
2, 328398, Note_on_c, 0, 46, 67
2, 328424, Note_on_c, 0, 34, 0
2, 328432, Note_on_c, 0, 75, 0
2, 328492, Note_on_c, 0, 34, 73
2, 328504, Note_on_c, 0, 46, 0
2, 328584, Note_on_c, 0, 46, 61
2, 328614, Note_on_c, 0, 34, 0
2, 328678, Note_on_c, 0, 34, 81
2, 328678, Note_on_c, 0, 70, 90
2, 328681, Note_on_c, 0, 46, 0
2, 328681, Note_on_c, 0, 79, 104
2, 328688, Note_on_c, 0, 75, 83
2, 328730, Note_on_c, 0, 75, 0
2, 328756, Note_on_c, 0, 46, 76
2, 328766, Note_on_c, 0, 70, 0
2, 328784, Note_on_c, 0, 79, 0
2, 328792, Note_on_c, 0, 34, 0
2, 328858, Note_on_c, 0, 46, 0
2, 328864, Note_on_c, 0, 34, 78
2, 328918, Note_on_c, 0, 46, 70
2, 328974, Note_on_c, 0, 34, 0
2, 329040, Note_on_c, 0, 46, 0
2, 329052, Note_on_c, 0, 82, 92
2, 329056, Note_on_c, 0, 75, 88
2, 329056, Note_on_c, 0, 79, 97
2, 329058, Note_on_c, 0, 34, 94
2, 329130, Note_on_c, 0, 34, 0
2, 329172, Note_on_c, 0, 79, 0
2, 329175, Note_on_c, 0, 75, 0
2, 329232, Note_on_c, 0, 82, 0
2, 329612, Note_on_c, 0, 79, 94
2, 329612, Note_on_c, 0, 75, 79
2, 329618, Note_on_c, 0, 63, 99
2, 329620, Note_on_c, 0, 67, 89
2, 329656, Note_on_c, 0, 67, 0
2, 329658, Note_on_c, 0, 63, 0
2, 329722, Note_on_c, 0, 75, 0
2, 329724, Note_on_c, 0, 79, 0
2, 329794, Note_on_c, 0, 79, 89
2, 329794, Note_on_c, 0, 82, 88
2, 329796, Note_on_c, 0, 70, 91
2, 329806, Note_on_c, 0, 67, 91
2, 329854, Note_on_c, 0, 67, 0
2, 329860, Control_c, 0, 64, 0
2, 329878, Note_on_c, 0, 70, 0
2, 329912, Note_on_c, 0, 79, 0
2, 329920, Note_on_c, 0, 82, 0
2, 329968, Note_on_c, 0, 79, 94
2, 329980, Note_on_c, 0, 75, 72
2, 329983, Note_on_c, 0, 67, 81
2, 329986, Note_on_c, 0, 63, 81
2, 330026, Note_on_c, 0, 67, 0
2, 330032, Note_on_c, 0, 63, 0
2, 330034, Note_on_c, 0, 75, 0
2, 330086, Note_on_c, 0, 79, 0
2, 330148, Note_on_c, 0, 70, 75
2, 330148, Note_on_c, 0, 82, 83
2, 330151, Note_on_c, 0, 79, 84
2, 330166, Note_on_c, 0, 67, 67
2, 330192, Note_on_c, 0, 70, 0
2, 330208, Note_on_c, 0, 67, 0
2, 330212, Note_on_c, 0, 79, 0
2, 330256, Note_on_c, 0, 82, 0
2, 330320, Note_on_c, 0, 75, 76
2, 330322, Note_on_c, 0, 79, 91
2, 330332, Note_on_c, 0, 67, 63
2, 330336, Note_on_c, 0, 63, 73
2, 330366, Note_on_c, 0, 75, 0
2, 330380, Note_on_c, 0, 67, 0
2, 330386, Note_on_c, 0, 63, 0
2, 330414, Note_on_c, 0, 79, 0
2, 330506, Note_on_c, 0, 82, 97
2, 330512, Note_on_c, 0, 70, 88
2, 330516, Note_on_c, 0, 79, 93
2, 330522, Note_on_c, 0, 67, 91
2, 330558, Note_on_c, 0, 67, 0
2, 330564, Note_on_c, 0, 79, 0
2, 330570, Note_on_c, 0, 70, 0
2, 330614, Control_c, 0, 64, 127
2, 330617, Note_on_c, 0, 82, 0
2, 330766, Control_c, 0, 64, 0
2, 331259, Note_on_c, 0, 53, 105
2, 331260, Note_on_c, 0, 74, 104
2, 331262, Note_on_c, 0, 68, 81
2, 331262, Note_on_c, 0, 65, 95
2, 331262, Note_on_c, 0, 58, 82
2, 331264, Note_on_c, 0, 70, 78
2, 331266, Note_on_c, 0, 50, 74
2, 331268, Note_on_c, 0, 46, 79
2, 331342, Note_on_c, 0, 53, 0
2, 331344, Note_on_c, 0, 58, 0
2, 331344, Note_on_c, 0, 65, 0
2, 331350, Note_on_c, 0, 50, 0
2, 331352, Note_on_c, 0, 74, 0
2, 331366, Control_c, 0, 64, 127
2, 331380, Note_on_c, 0, 46, 0
2, 331386, Note_on_c, 0, 68, 0
2, 331388, Note_on_c, 0, 70, 0
2, 331596, Control_c, 0, 64, 0
2, 332014, Note_on_c, 0, 75, 88
2, 332017, Note_on_c, 0, 55, 84
2, 332020, Note_on_c, 0, 51, 83
2, 332060, Note_on_c, 0, 55, 0
2, 332068, Note_on_c, 0, 51, 0
2, 332072, Control_c, 0, 64, 127
2, 332104, Note_on_c, 0, 79, 95
2, 332140, Note_on_c, 0, 75, 0
2, 332204, Note_on_c, 0, 77, 84
2, 332264, Note_on_c, 0, 79, 0
2, 332284, Note_on_c, 0, 75, 65
2, 332288, Control_c, 0, 64, 0
2, 332340, Note_on_c, 0, 77, 0
2, 332374, Note_on_c, 0, 74, 84
2, 332434, Note_on_c, 0, 75, 0
2, 332436, Note_on_c, 0, 74, 0
2, 332472, Note_on_c, 0, 72, 63
2, 332526, Note_on_c, 0, 72, 0
2, 332554, Note_on_c, 0, 70, 72
2, 332636, Note_on_c, 0, 69, 63
2, 332650, Note_on_c, 0, 70, 0
2, 332726, Note_on_c, 0, 46, 70
2, 332728, Note_on_c, 0, 68, 85
2, 332730, Note_on_c, 0, 53, 100
2, 332768, Note_on_c, 0, 69, 0
2, 332770, Note_on_c, 0, 53, 0
2, 332810, Note_on_c, 0, 72, 78
2, 332826, Note_on_c, 0, 68, 0
2, 332826, Control_c, 0, 64, 127
2, 332858, Note_on_c, 0, 46, 0
2, 332900, Note_on_c, 0, 70, 73
2, 332968, Note_on_c, 0, 72, 0
2, 333000, Note_on_c, 0, 68, 69
2, 333026, Control_c, 0, 64, 0
2, 333052, Note_on_c, 0, 70, 0
2, 333084, Note_on_c, 0, 67, 82
2, 333128, Note_on_c, 0, 68, 0
2, 333174, Note_on_c, 0, 65, 63
2, 333182, Note_on_c, 0, 67, 0
2, 333266, Note_on_c, 0, 63, 79
2, 333288, Note_on_c, 0, 65, 0
2, 333370, Note_on_c, 0, 62, 73
2, 333378, Note_on_c, 0, 63, 0
2, 333432, Note_on_c, 0, 62, 0
2, 333442, Note_on_c, 0, 55, 83
2, 333444, Note_on_c, 0, 63, 79
2, 333445, Note_on_c, 0, 51, 70
2, 333518, Control_c, 0, 64, 127
2, 333556, Note_on_c, 0, 63, 0
2, 333566, Note_on_c, 0, 51, 0
2, 333566, Note_on_c, 0, 55, 0
2, 333624, Note_on_c, 0, 79, 95
2, 333712, Note_on_c, 0, 77, 80
2, 333716, Control_c, 0, 64, 0
2, 333790, Note_on_c, 0, 79, 0
2, 333792, Note_on_c, 0, 75, 71
2, 333846, Note_on_c, 0, 77, 0
2, 333878, Note_on_c, 0, 74, 82
2, 333936, Note_on_c, 0, 75, 0
2, 333944, Note_on_c, 0, 74, 0
2, 333964, Note_on_c, 0, 72, 63
2, 334022, Note_on_c, 0, 72, 0
2, 334048, Note_on_c, 0, 70, 64
2, 334130, Note_on_c, 0, 69, 59
2, 334152, Note_on_c, 0, 70, 0
2, 334186, Note_on_c, 0, 46, 62
2, 334194, Note_on_c, 0, 53, 97
2, 334212, Note_on_c, 0, 68, 84
2, 334260, Note_on_c, 0, 69, 0
2, 334294, Note_on_c, 0, 53, 0
2, 334302, Control_c, 0, 64, 127
2, 334305, Note_on_c, 0, 72, 75
2, 334324, Note_on_c, 0, 68, 0
2, 334346, Note_on_c, 0, 46, 0
2, 334388, Note_on_c, 0, 70, 71
2, 334456, Note_on_c, 0, 72, 0
2, 334486, Note_on_c, 0, 68, 62
2, 334500, Control_c, 0, 64, 0
2, 334538, Note_on_c, 0, 70, 0
2, 334568, Note_on_c, 0, 67, 75
2, 334624, Note_on_c, 0, 67, 0
2, 334632, Note_on_c, 0, 68, 0
2, 334646, Note_on_c, 0, 65, 66
2, 334700, Note_on_c, 0, 65, 0
2, 334740, Note_on_c, 0, 63, 75
2, 334830, Note_on_c, 0, 62, 69
2, 334836, Note_on_c, 0, 63, 0
2, 334896, Note_on_c, 0, 62, 0
2, 334918, Note_on_c, 0, 63, 73
2, 334921, Note_on_c, 0, 51, 76
2, 334924, Note_on_c, 0, 39, 81
2, 334966, Note_on_c, 0, 39, 0
2, 334974, Note_on_c, 0, 63, 0
2, 334992, Note_on_c, 0, 51, 0
2, 334992, Control_c, 0, 64, 127
2, 334995, Note_on_c, 0, 62, 59
2, 335090, Note_on_c, 0, 63, 73
2, 335118, Note_on_c, 0, 62, 0
2, 335162, Control_c, 0, 64, 0
2, 335172, Note_on_c, 0, 67, 78
2, 335182, Note_on_c, 0, 63, 0
2, 335214, Note_on_c, 0, 67, 0
2, 335270, Note_on_c, 0, 55, 78
2, 335276, Note_on_c, 0, 43, 68
2, 335294, Note_on_c, 0, 67, 33
2, 335302, Note_on_c, 0, 65, 46
2, 335330, Note_on_c, 0, 43, 0
2, 335354, Note_on_c, 0, 65, 0
2, 335356, Note_on_c, 0, 67, 0
2, 335360, Note_on_c, 0, 55, 0
2, 335370, Note_on_c, 0, 66, 80
2, 335392, Control_c, 0, 64, 127
2, 335440, Note_on_c, 0, 66, 0
2, 335472, Note_on_c, 0, 67, 66
2, 335514, Control_c, 0, 64, 0
2, 335519, Note_on_c, 0, 67, 0
2, 335534, Note_on_c, 0, 70, 76
2, 335578, Note_on_c, 0, 70, 0
2, 335644, Note_on_c, 0, 58, 74
2, 335650, Note_on_c, 0, 46, 69
2, 335666, Note_on_c, 0, 70, 18
2, 335694, Note_on_c, 0, 69, 41
2, 335718, Note_on_c, 0, 46, 0
2, 335728, Note_on_c, 0, 70, 0
2, 335750, Note_on_c, 0, 58, 0
2, 335760, Control_c, 0, 64, 127
2, 335820, Note_on_c, 0, 70, 65
2, 335846, Note_on_c, 0, 69, 0
2, 335884, Control_c, 0, 64, 0
2, 335898, Note_on_c, 0, 75, 69
2, 335926, Note_on_c, 0, 70, 0
2, 335940, Note_on_c, 0, 75, 0
2, 336008, Note_on_c, 0, 75, 62
2, 336008, Note_on_c, 0, 63, 81
2, 336016, Note_on_c, 0, 51, 68
2, 336076, Note_on_c, 0, 75, 0
2, 336090, Note_on_c, 0, 51, 0
2, 336096, Note_on_c, 0, 74, 81
2, 336114, Control_c, 0, 64, 127
2, 336126, Note_on_c, 0, 63, 0
2, 336162, Note_on_c, 0, 74, 0
2, 336190, Note_on_c, 0, 75, 73
2, 336222, Control_c, 0, 64, 0
2, 336266, Note_on_c, 0, 75, 0
2, 336268, Note_on_c, 0, 79, 68
2, 336316, Note_on_c, 0, 79, 0
2, 336358, Note_on_c, 0, 67, 90
2, 336364, Note_on_c, 0, 79, 98
2, 336366, Note_on_c, 0, 55, 78
2, 336416, Note_on_c, 0, 55, 0
2, 336444, Note_on_c, 0, 78, 90
2, 336452, Control_c, 0, 64, 127
2, 336472, Note_on_c, 0, 79, 0
2, 336480, Note_on_c, 0, 67, 0
2, 336534, Note_on_c, 0, 79, 88
2, 336537, Note_on_c, 0, 78, 0
2, 336606, Control_c, 0, 64, 0
2, 336616, Note_on_c, 0, 82, 70
2, 336621, Note_on_c, 0, 79, 0
2, 336658, Note_on_c, 0, 82, 0
2, 336712, Note_on_c, 0, 70, 79
2, 336722, Note_on_c, 0, 82, 66
2, 336726, Note_on_c, 0, 58, 62
2, 336800, Note_on_c, 0, 58, 0
2, 336808, Note_on_c, 0, 81, 85
2, 336820, Note_on_c, 0, 82, 0
2, 336820, Control_c, 0, 64, 127
2, 336834, Note_on_c, 0, 70, 0
2, 336906, Note_on_c, 0, 82, 66
2, 336909, Note_on_c, 0, 81, 0
2, 336958, Control_c, 0, 64, 0
2, 336986, Note_on_c, 0, 87, 69
2, 337006, Note_on_c, 0, 82, 0
2, 337026, Note_on_c, 0, 87, 0
2, 337096, Note_on_c, 0, 75, 82
2, 337099, Note_on_c, 0, 87, 66
2, 337114, Note_on_c, 0, 63, 68
2, 337140, Note_on_c, 0, 75, 0
2, 337160, Note_on_c, 0, 63, 0
2, 337174, Control_c, 0, 64, 127
2, 337190, Note_on_c, 0, 82, 71
2, 337274, Note_on_c, 0, 81, 72
2, 337282, Note_on_c, 0, 82, 0
2, 337282, Note_on_c, 0, 87, 0
2, 337296, Control_c, 0, 64, 0
2, 337356, Note_on_c, 0, 82, 70
2, 337382, Note_on_c, 0, 81, 0
2, 337456, Note_on_c, 0, 68, 51
2, 337466, Note_on_c, 0, 86, 72
2, 337470, Note_on_c, 0, 82, 0
2, 337482, Note_on_c, 0, 58, 26
2, 337546, Note_on_c, 0, 82, 48
2, 337584, Note_on_c, 0, 58, 0
2, 337587, Note_on_c, 0, 86, 0
2, 337590, Control_c, 0, 64, 127
2, 337622, Note_on_c, 0, 68, 0
2, 337646, Note_on_c, 0, 81, 66
2, 337658, Note_on_c, 0, 82, 0
2, 337722, Note_on_c, 0, 82, 58
2, 337752, Note_on_c, 0, 81, 0
2, 337758, Control_c, 0, 64, 0
2, 337832, Note_on_c, 0, 67, 46
2, 337836, Note_on_c, 0, 63, 38
2, 337836, Note_on_c, 0, 87, 74
2, 337844, Note_on_c, 0, 82, 0
2, 337916, Note_on_c, 0, 82, 57
2, 337974, Control_c, 0, 64, 127
2, 337984, Note_on_c, 0, 67, 0
2, 337998, Note_on_c, 0, 87, 0
2, 338004, Note_on_c, 0, 63, 0
2, 338018, Note_on_c, 0, 81, 72
2, 338024, Note_on_c, 0, 82, 0
2, 338102, Note_on_c, 0, 82, 55
2, 338112, Note_on_c, 0, 81, 0
2, 338112, Control_c, 0, 64, 0
2, 338186, Note_on_c, 0, 68, 64
2, 338188, Note_on_c, 0, 86, 92
2, 338200, Note_on_c, 0, 58, 47
2, 338214, Note_on_c, 0, 82, 0
2, 338278, Note_on_c, 0, 82, 68
2, 338332, Note_on_c, 0, 58, 0
2, 338342, Control_c, 0, 64, 127
2, 338352, Note_on_c, 0, 86, 0
2, 338370, Note_on_c, 0, 81, 78
2, 338378, Note_on_c, 0, 68, 0
2, 338388, Note_on_c, 0, 82, 0
2, 338460, Note_on_c, 0, 82, 68
2, 338480, Control_c, 0, 64, 0
2, 338500, Note_on_c, 0, 81, 0
2, 338548, Note_on_c, 0, 67, 75
2, 338550, Note_on_c, 0, 87, 86
2, 338556, Note_on_c, 0, 63, 67
2, 338566, Note_on_c, 0, 82, 0
2, 338642, Note_on_c, 0, 82, 68
2, 338706, Note_on_c, 0, 67, 0
2, 338720, Control_c, 0, 64, 127
2, 338726, Note_on_c, 0, 81, 83
2, 338728, Note_on_c, 0, 87, 0
2, 338754, Note_on_c, 0, 82, 0
2, 338756, Note_on_c, 0, 63, 0
2, 338818, Note_on_c, 0, 82, 74
2, 338836, Note_on_c, 0, 81, 0
2, 338850, Control_c, 0, 64, 0
2, 338900, Note_on_c, 0, 68, 75
2, 338904, Note_on_c, 0, 86, 92
2, 338916, Note_on_c, 0, 82, 0
2, 338922, Note_on_c, 0, 58, 51
2, 338976, Note_on_c, 0, 82, 70
2, 339060, Note_on_c, 0, 86, 0
2, 339060, Note_on_c, 0, 81, 84
2, 339064, Control_c, 0, 64, 127
2, 339092, Note_on_c, 0, 82, 0
2, 339104, Note_on_c, 0, 68, 0
2, 339116, Note_on_c, 0, 58, 0
2, 339144, Note_on_c, 0, 82, 78
2, 339174, Note_on_c, 0, 81, 0
2, 339188, Control_c, 0, 64, 0
2, 339256, Note_on_c, 0, 63, 81
2, 339258, Note_on_c, 0, 87, 97
2, 339304, Note_on_c, 0, 82, 0
2, 339334, Note_on_c, 0, 67, 81
2, 339340, Note_on_c, 0, 63, 0
2, 339372, Note_on_c, 0, 87, 0
2, 339372, Control_c, 0, 64, 127
2, 339412, Note_on_c, 0, 67, 0
2, 339428, Note_on_c, 0, 63, 76
2, 339448, Control_c, 0, 64, 0
2, 339494, Note_on_c, 0, 63, 0
2, 339522, Note_on_c, 0, 67, 53
2, 339582, Note_on_c, 0, 67, 0
2, 339585, Note_on_c, 0, 75, 81
2, 339589, Note_on_c, 0, 79, 97
2, 339610, Note_on_c, 0, 63, 71
2, 339656, Note_on_c, 0, 63, 0
2, 339658, Note_on_c, 0, 75, 0
2, 339686, Note_on_c, 0, 67, 56
2, 339702, Note_on_c, 0, 79, 0
2, 339746, Note_on_c, 0, 67, 0
2, 339766, Note_on_c, 0, 63, 57
2, 339832, Note_on_c, 0, 67, 46
2, 339835, Note_on_c, 0, 63, 0
2, 339924, Note_on_c, 0, 67, 0
2, 339938, Note_on_c, 0, 63, 65
2, 339944, Note_on_c, 0, 82, 84
2, 339956, Note_on_c, 0, 79, 81
2, 340000, Note_on_c, 0, 79, 0
2, 340012, Note_on_c, 0, 63, 0
2, 340036, Note_on_c, 0, 67, 53
2, 340048, Note_on_c, 0, 82, 0
2, 340096, Note_on_c, 0, 67, 0
2, 340134, Note_on_c, 0, 63, 57
2, 340194, Note_on_c, 0, 63, 0
2, 340244, Note_on_c, 0, 67, 43
2, 340306, Note_on_c, 0, 67, 0
2, 340306, Note_on_c, 0, 63, 55
2, 340306, Note_on_c, 0, 75, 60
2, 340306, Note_on_c, 0, 79, 80
2, 340368, Note_on_c, 0, 79, 0
2, 340370, Note_on_c, 0, 63, 0
2, 340376, Note_on_c, 0, 75, 0
2, 340398, Note_on_c, 0, 67, 32
2, 340478, Note_on_c, 0, 63, 47
2, 340482, Note_on_c, 0, 67, 0
2, 340552, Note_on_c, 0, 63, 0
2, 340574, Note_on_c, 0, 67, 39
2, 340646, Note_on_c, 0, 67, 0
2, 340646, Note_on_c, 0, 63, 46
2, 340664, Note_on_c, 0, 82, 57
2, 340664, Note_on_c, 0, 79, 59
2, 340710, Note_on_c, 0, 82, 0
2, 340718, Note_on_c, 0, 79, 0
2, 340746, Note_on_c, 0, 67, 35
2, 340752, Note_on_c, 0, 63, 0
2, 340770, Control_c, 0, 64, 127
2, 340826, Note_on_c, 0, 67, 0
2, 340836, Note_on_c, 0, 63, 52
2, 340878, Control_c, 0, 64, 0
2, 340914, Note_on_c, 0, 63, 0
2, 340938, Note_on_c, 0, 67, 36
2, 341004, Note_on_c, 0, 50, 83
2, 341004, Note_on_c, 0, 63, 58
2, 341007, Note_on_c, 0, 67, 0
2, 341010, Note_on_c, 0, 51, 81
2, 341056, Note_on_c, 0, 50, 0
2, 341076, Note_on_c, 0, 51, 0
2, 341096, Note_on_c, 0, 63, 0
2, 341118, Note_on_c, 0, 67, 41
2, 341186, Note_on_c, 0, 67, 0
2, 341198, Note_on_c, 0, 63, 45
2, 341284, Note_on_c, 0, 63, 0
2, 341322, Note_on_c, 0, 67, 39
2, 341370, Note_on_c, 0, 45, 69
2, 341386, Note_on_c, 0, 67, 0
2, 341396, Note_on_c, 0, 46, 81
2, 341404, Note_on_c, 0, 63, 47
2, 341416, Note_on_c, 0, 45, 0
2, 341468, Note_on_c, 0, 63, 0
2, 341470, Note_on_c, 0, 46, 0
2, 341538, Note_on_c, 0, 67, 30
2, 341614, Note_on_c, 0, 67, 0
2, 341636, Note_on_c, 0, 63, 58
2, 341692, Note_on_c, 0, 63, 0
2, 341714, Note_on_c, 0, 42, 42
2, 341736, Note_on_c, 0, 43, 82
2, 341748, Note_on_c, 0, 67, 36
2, 341766, Note_on_c, 0, 42, 0
2, 341786, Note_on_c, 0, 43, 0
2, 341816, Note_on_c, 0, 67, 0
2, 341860, Note_on_c, 0, 63, 50
2, 341916, Note_on_c, 0, 63, 0
2, 341980, Note_on_c, 0, 67, 28
2, 342094, Note_on_c, 0, 67, 0
2, 342120, Note_on_c, 0, 38, 22
2, 342134, Note_on_c, 0, 39, 66
2, 342156, Note_on_c, 0, 63, 48
2, 342190, Note_on_c, 0, 38, 0
2, 342240, Note_on_c, 0, 63, 0
2, 342306, Control_c, 0, 64, 127
2, 342314, Note_on_c, 0, 39, 0
2, 342522, Control_c, 0, 64, 0
2, 342912, Note_on_c, 0, 87, 96
2, 342914, Note_on_c, 0, 82, 81
2, 342914, Note_on_c, 0, 79, 103
2, 342917, Note_on_c, 0, 63, 96
2, 342920, Note_on_c, 0, 51, 86
2, 342934, Note_on_c, 0, 58, 61
2, 342934, Note_on_c, 0, 55, 76
2, 342986, Note_on_c, 0, 55, 0
2, 342992, Note_on_c, 0, 58, 0
2, 342995, Note_on_c, 0, 79, 0
2, 342995, Note_on_c, 0, 63, 0
2, 343012, Control_c, 0, 64, 127
2, 343017, Note_on_c, 0, 51, 0
2, 343021, Note_on_c, 0, 82, 0
2, 343030, Note_on_c, 0, 87, 0
2, 343788, Note_on_c, 0, 58, 82
2, 343790, Note_on_c, 0, 63, 104
2, 343790, Note_on_c, 0, 51, 90
2, 343792, Note_on_c, 0, 55, 100
2, 343796, Note_on_c, 0, 43, 26
2, 343803, Note_on_c, 0, 39, 79
2, 343804, Note_on_c, 0, 46, 73
2, 344012, Control_c, 0, 64, 0
2, 344442, Control_c, 0, 64, 127
2, 344454, Note_on_c, 0, 43, 0
2, 344514, Note_on_c, 0, 51, 0
2, 344524, Note_on_c, 0, 55, 0
2, 344572, Note_on_c, 0, 39, 0
2, 344578, Note_on_c, 0, 46, 0
2, 344584, Note_on_c, 0, 58, 0
2, 344596, Note_on_c, 0, 63, 0
2, 344994, Control_c, 0, 64, 0
2, 344994, End_track
0, 0, End_of_file
