0, 0, Header, 0, 1, 480
1, 0, Start_track
1, 0, MIDI_port, 0
1, 0, System_exclusive, 10, 65, 16, 66, 18, 64, 0, 127, 0, 65, 247
1, 0, MIDI_port, 0
1, 0, System_exclusive, 8, 67, 16, 76, 0, 0, 126, 0, 247
1, 0, MIDI_port, 0
1, 0, Time_signature, 4, 2, 24, 8
1, 0, Key_signature, 0, "major"
1, 0, Tempo, 500000
1, 0, Control_c, 0, 0, 0
1, 0, Control_c, 0, 32, 0
1, 0, Program_c, 0, 0
1, 0, Control_c, 0, 7, 127
1, 0, Control_c, 0, 10, 64
1, 0, Control_c, 0, 11, 127
1, 0, Control_c, 0, 91, 60
1, 0, Control_c, 0, 93, 0
1, 0, Control_c, 0, 64, 0
1, 0, Note_on_c, 0, 67, 44
1, 64, Note_on_c, 0, 67, 0
1, 150, Note_on_c, 0, 67, 40
1, 236, Note_on_c, 0, 67, 0
1, 306, Note_on_c, 0, 67, 59
1, 364, Note_on_c, 0, 67, 0
1, 476, Note_on_c, 0, 67, 57
1, 534, Note_on_c, 0, 67, 0
1, 638, Note_on_c, 0, 67, 49
1, 690, Note_on_c, 0, 67, 0
1, 824, Note_on_c, 0, 67, 58
1, 830, Note_on_c, 0, 39, 34
1, 1010, Note_on_c, 0, 51, 46
1, 1074, Note_on_c, 0, 51, 0
1, 1162, Note_on_c, 0, 70, 39
1, 1196, Note_on_c, 0, 51, 40
1, 1220, Note_on_c, 0, 67, 0
1, 1260, Note_on_c, 0, 51, 0
1, 1332, Note_on_c, 0, 63, 62
1, 1352, Note_on_c, 0, 70, 0
1, 1366, Note_on_c, 0, 51, 36
1, 1434, Note_on_c, 0, 51, 0
1, 1498, Note_on_c, 0, 62, 79
1, 1524, Note_on_c, 0, 51, 46
1, 1532, Note_on_c, 0, 63, 0
1, 1588, Note_on_c, 0, 51, 0
1, 1666, Note_on_c, 0, 65, 72
1, 1678, Note_on_c, 0, 51, 42
1, 1690, Note_on_c, 0, 62, 0
1, 1740, Note_on_c, 0, 51, 0
1, 1822, Note_on_c, 0, 68, 71
1, 1836, Note_on_c, 0, 51, 41
1, 1858, Note_on_c, 0, 65, 0
1, 1910, Note_on_c, 0, 51, 0
1, 1984, Note_on_c, 0, 62, 80
1, 1998, Note_on_c, 0, 51, 42
1, 2022, Note_on_c, 0, 68, 0
1, 2028, Note_on_c, 0, 39, 0
1, 2072, Note_on_c, 0, 51, 0
1, 2154, Note_on_c, 0, 63, 78
1, 2174, Note_on_c, 0, 62, 0
1, 2177, Note_on_c, 0, 39, 44
1, 2346, Note_on_c, 0, 51, 48
1, 2350, Note_on_c, 0, 67, 51
1, 2360, Note_on_c, 0, 63, 0
1, 2406, Note_on_c, 0, 51, 0
1, 2506, Note_on_c, 0, 58, 37
1, 2520, Note_on_c, 0, 67, 0
1, 2520, Note_on_c, 0, 51, 35
1, 2576, Note_on_c, 0, 58, 0
1, 2579, Note_on_c, 0, 51, 0
1, 2666, Note_on_c, 0, 58, 35
1, 2686, Note_on_c, 0, 51, 36
1, 2754, Note_on_c, 0, 51, 0
1, 2834, Note_on_c, 0, 56, 62
1, 2852, Note_on_c, 0, 51, 35
1, 2894, Note_on_c, 0, 58, 0
1, 2916, Note_on_c, 0, 51, 0
1, 3020, Note_on_c, 0, 51, 31
1, 3023, Note_on_c, 0, 62, 60
1, 3076, Note_on_c, 0, 56, 0
1, 3094, Note_on_c, 0, 51, 0
1, 3166, Note_on_c, 0, 62, 0
1, 3182, Note_on_c, 0, 65, 64
1, 3194, Note_on_c, 0, 51, 40
1, 3262, Note_on_c, 0, 51, 0
1, 3346, Note_on_c, 0, 62, 69
1, 3362, Note_on_c, 0, 65, 0
1, 3362, Note_on_c, 0, 51, 33
1, 3384, Note_on_c, 0, 39, 0
1, 3448, Note_on_c, 0, 51, 0
1, 3526, Note_on_c, 0, 63, 71
1, 3542, Note_on_c, 0, 39, 38
1, 3548, Note_on_c, 0, 62, 0
1, 3696, Note_on_c, 0, 67, 55
1, 3706, Note_on_c, 0, 51, 42
1, 3710, Note_on_c, 0, 63, 0
1, 3770, Note_on_c, 0, 51, 0
1, 3862, Note_on_c, 0, 51, 41
1, 3867, Note_on_c, 0, 58, 39
1, 3870, Note_on_c, 0, 67, 0
1, 3936, Note_on_c, 0, 51, 0
1, 3939, Note_on_c, 0, 58, 0
1, 4020, Note_on_c, 0, 58, 36
1, 4036, Note_on_c, 0, 51, 32
1, 4114, Note_on_c, 0, 51, 0
1, 4208, Note_on_c, 0, 56, 47
1, 4236, Note_on_c, 0, 51, 29
1, 4250, Note_on_c, 0, 58, 0
1, 4304, Note_on_c, 0, 51, 0
1, 4408, Note_on_c, 0, 56, 0
1, 4408, Note_on_c, 0, 62, 44
1, 4422, Note_on_c, 0, 51, 21
1, 4498, Note_on_c, 0, 51, 0
1, 4498, Note_on_c, 0, 62, 0
1, 4622, Note_on_c, 0, 51, 19
1, 4630, Note_on_c, 0, 65, 27
1, 4702, Note_on_c, 0, 51, 0
1, 4808, Note_on_c, 0, 39, 0
1, 4830, Note_on_c, 0, 65, 0
1, 4868, Note_on_c, 0, 51, 23
1, 4890, Note_on_c, 0, 62, 21
1, 4976, Note_on_c, 0, 51, 0
1, 5222, Note_on_c, 0, 63, 26
1, 5225, Note_on_c, 0, 62, 0
1, 5262, Note_on_c, 0, 39, 20
1, 5758, Note_on_c, 0, 63, 0
1, 5786, Note_on_c, 0, 39, 0
1, 6038, Note_on_c, 0, 68, 42
1, 6108, Note_on_c, 0, 68, 0
1, 6190, Note_on_c, 0, 68, 52
1, 6284, Note_on_c, 0, 68, 0
1, 6350, Note_on_c, 0, 68, 65
1, 6410, Note_on_c, 0, 68, 0
1, 6518, Note_on_c, 0, 68, 69
1, 6610, Note_on_c, 0, 68, 0
1, 6670, Note_on_c, 0, 68, 82
1, 6776, Note_on_c, 0, 68, 0
1, 6842, Note_on_c, 0, 68, 79
1, 6866, Note_on_c, 0, 41, 67
1, 7028, Note_on_c, 0, 53, 89
1, 7078, Note_on_c, 0, 53, 0
1, 7206, Note_on_c, 0, 72, 72
1, 7214, Note_on_c, 0, 53, 81
1, 7264, Note_on_c, 0, 53, 0
1, 7280, Note_on_c, 0, 68, 0
1, 7342, Note_on_c, 0, 65, 77
1, 7380, Note_on_c, 0, 53, 73
1, 7383, Note_on_c, 0, 72, 0
1, 7428, Note_on_c, 0, 53, 0
1, 7534, Note_on_c, 0, 64, 98
1, 7540, Note_on_c, 0, 53, 69
1, 7572, Note_on_c, 0, 65, 0
1, 7590, Note_on_c, 0, 53, 0
1, 7686, Note_on_c, 0, 67, 88
1, 7690, Note_on_c, 0, 53, 61
1, 7750, Note_on_c, 0, 53, 0
1, 7752, Note_on_c, 0, 64, 0
1, 7848, Note_on_c, 0, 70, 81
1, 7872, Note_on_c, 0, 53, 63
1, 7894, Note_on_c, 0, 67, 0
1, 7922, Note_on_c, 0, 53, 0
1, 8020, Note_on_c, 0, 64, 97
1, 8036, Note_on_c, 0, 53, 62
1, 8058, Note_on_c, 0, 70, 0
1, 8058, Note_on_c, 0, 41, 0
1, 8092, Note_on_c, 0, 53, 0
1, 8198, Note_on_c, 0, 65, 92
1, 8226, Note_on_c, 0, 41, 67
1, 8242, Note_on_c, 0, 64, 0
1, 8360, Note_on_c, 0, 68, 72
1, 8378, Note_on_c, 0, 53, 79
1, 8396, Note_on_c, 0, 65, 0
1, 8426, Note_on_c, 0, 53, 0
1, 8524, Note_on_c, 0, 60, 78
1, 8550, Note_on_c, 0, 53, 62
1, 8568, Note_on_c, 0, 68, 0
1, 8600, Note_on_c, 0, 53, 0
1, 8618, Note_on_c, 0, 60, 0
1, 8682, Note_on_c, 0, 60, 83
1, 8702, Note_on_c, 0, 53, 63
1, 8758, Note_on_c, 0, 53, 0
1, 8850, Note_on_c, 0, 58, 72
1, 8876, Note_on_c, 0, 53, 54
1, 8918, Note_on_c, 0, 60, 0
1, 8928, Note_on_c, 0, 53, 0
1, 9018, Note_on_c, 0, 64, 72
1, 9030, Note_on_c, 0, 53, 57
1, 9080, Note_on_c, 0, 58, 0
1, 9083, Note_on_c, 0, 53, 0
1, 9162, Note_on_c, 0, 64, 0
1, 9182, Note_on_c, 0, 67, 69
1, 9188, Note_on_c, 0, 53, 58
1, 9248, Note_on_c, 0, 53, 0
1, 9348, Note_on_c, 0, 64, 79
1, 9362, Note_on_c, 0, 53, 45
1, 9374, Note_on_c, 0, 67, 0
1, 9382, Note_on_c, 0, 41, 0
1, 9440, Note_on_c, 0, 53, 0
1, 9514, Note_on_c, 0, 65, 60
1, 9548, Note_on_c, 0, 64, 0
1, 9560, Note_on_c, 0, 41, 35
1, 9698, Note_on_c, 0, 68, 52
1, 9732, Note_on_c, 0, 53, 50
1, 9752, Note_on_c, 0, 65, 0
1, 9792, Note_on_c, 0, 53, 0
1, 9856, Note_on_c, 0, 60, 46
1, 9870, Note_on_c, 0, 68, 0
1, 9886, Note_on_c, 0, 53, 69
1, 9934, Note_on_c, 0, 60, 0
1, 9937, Note_on_c, 0, 53, 0
1, 10014, Note_on_c, 0, 60, 54
1, 10030, Note_on_c, 0, 53, 67
1, 10092, Note_on_c, 0, 53, 0
1, 10208, Note_on_c, 0, 58, 43
1, 10211, Note_on_c, 0, 53, 52
1, 10252, Note_on_c, 0, 60, 0
1, 10280, Note_on_c, 0, 53, 0
1, 10418, Note_on_c, 0, 53, 39
1, 10418, Note_on_c, 0, 64, 44
1, 10484, Note_on_c, 0, 53, 0
1, 10550, Note_on_c, 0, 58, 0
1, 10608, Note_on_c, 0, 64, 0
1, 10632, Note_on_c, 0, 67, 37
1, 10652, Note_on_c, 0, 53, 28
1, 10724, Note_on_c, 0, 53, 0
1, 10848, Note_on_c, 0, 53, 30
1, 10851, Note_on_c, 0, 67, 0
1, 10870, Note_on_c, 0, 64, 26
1, 10904, Note_on_c, 0, 41, 0
1, 10926, Note_on_c, 0, 53, 0
1, 11160, Note_on_c, 0, 64, 0
1, 11162, Note_on_c, 0, 65, 19
1, 11202, Note_on_c, 0, 41, 21
1, 11830, Note_on_c, 0, 41, 0
1, 11866, Note_on_c, 0, 65, 0
1, 12438, Note_on_c, 0, 46, 86
1, 12440, Note_on_c, 0, 34, 88
1, 12528, Note_on_c, 0, 34, 0
1, 12531, Note_on_c, 0, 46, 0
1, 12598, Note_on_c, 0, 46, 86
1, 12601, Note_on_c, 0, 34, 85
1, 12680, Note_on_c, 0, 34, 0
1, 12680, Note_on_c, 0, 46, 0
1, 12772, Note_on_c, 0, 46, 83
1, 12776, Note_on_c, 0, 34, 85
1, 12850, Note_on_c, 0, 34, 0
1, 12854, Note_on_c, 0, 46, 0
1, 12936, Note_on_c, 0, 46, 87
1, 12940, Note_on_c, 0, 34, 88
1, 13034, Note_on_c, 0, 34, 0
1, 13036, Note_on_c, 0, 46, 0
1, 13116, Note_on_c, 0, 46, 83
1, 13126, Note_on_c, 0, 84, 94
1, 13128, Note_on_c, 0, 34, 87
1, 13204, Note_on_c, 0, 46, 0
1, 13214, Note_on_c, 0, 34, 0
1, 13232, Note_on_c, 0, 82, 75
1, 13332, Note_on_c, 0, 80, 87
1, 13336, Note_on_c, 0, 84, 0
1, 13342, Note_on_c, 0, 46, 103
1, 13350, Note_on_c, 0, 34, 97
1, 13404, Note_on_c, 0, 34, 0
1, 13406, Note_on_c, 0, 82, 0
1, 13412, Control_c, 0, 64, 127
1, 13438, Note_on_c, 0, 46, 0
1, 13438, Note_on_c, 0, 79, 94
1, 13494, Note_on_c, 0, 80, 0
1, 13532, Note_on_c, 0, 79, 0
1, 13546, Note_on_c, 0, 77, 67
1, 13638, Note_on_c, 0, 75, 75
1, 13658, Note_on_c, 0, 77, 0
1, 13710, Note_on_c, 0, 53, 96
1, 13728, Note_on_c, 0, 74, 84
1, 13758, Note_on_c, 0, 75, 0
1, 13816, Note_on_c, 0, 75, 81
1, 13828, Control_c, 0, 64, 0
1, 13834, Note_on_c, 0, 53, 0
1, 13846, Note_on_c, 0, 74, 0
1, 13904, Note_on_c, 0, 77, 84
1, 13914, Note_on_c, 0, 44, 81
1, 13944, Note_on_c, 0, 75, 0
1, 13988, Note_on_c, 0, 74, 87
1, 14006, Note_on_c, 0, 77, 0
1, 14034, Note_on_c, 0, 44, 0
1, 14086, Note_on_c, 0, 75, 84
1, 14092, Note_on_c, 0, 43, 68
1, 14122, Note_on_c, 0, 74, 0
1, 14174, Note_on_c, 0, 79, 84
1, 14184, Note_on_c, 0, 75, 0
1, 14268, Note_on_c, 0, 77, 81
1, 14286, Note_on_c, 0, 46, 48
1, 14296, Note_on_c, 0, 79, 0
1, 14376, Note_on_c, 0, 75, 75
1, 14384, Note_on_c, 0, 43, 0
1, 14390, Note_on_c, 0, 77, 0
1, 14462, Note_on_c, 0, 74, 78
1, 14484, Note_on_c, 0, 51, 62
1, 14500, Note_on_c, 0, 46, 0
1, 14503, Note_on_c, 0, 74, 0
1, 14506, Note_on_c, 0, 75, 0
1, 14552, Note_on_c, 0, 72, 53
1, 14650, Note_on_c, 0, 70, 60
1, 14670, Note_on_c, 0, 43, 65
1, 14682, Note_on_c, 0, 72, 0
1, 14688, Note_on_c, 0, 51, 0
1, 14706, Note_on_c, 0, 70, 0
1, 14724, Note_on_c, 0, 75, 72
1, 14788, Note_on_c, 0, 75, 0
1, 14800, Note_on_c, 0, 43, 0
1, 14814, Note_on_c, 0, 44, 70
1, 14830, Note_on_c, 0, 74, 85
1, 14920, Note_on_c, 0, 75, 75
1, 14934, Note_on_c, 0, 74, 0
1, 14960, Note_on_c, 0, 75, 0
1, 15006, Note_on_c, 0, 77, 78
1, 15014, Note_on_c, 0, 50, 61
1, 15072, Note_on_c, 0, 77, 0
1, 15084, Note_on_c, 0, 44, 0
1, 15092, Note_on_c, 0, 79, 86
1, 15188, Note_on_c, 0, 79, 0
1, 15188, Note_on_c, 0, 80, 73
1, 15196, Note_on_c, 0, 50, 0
1, 15206, Note_on_c, 0, 53, 85
1, 15242, Note_on_c, 0, 80, 0
1, 15282, Note_on_c, 0, 77, 54
1, 15356, Note_on_c, 0, 53, 0
1, 15364, Note_on_c, 0, 44, 69
1, 15374, Note_on_c, 0, 75, 62
1, 15396, Note_on_c, 0, 77, 0
1, 15454, Note_on_c, 0, 75, 0
1, 15456, Note_on_c, 0, 74, 67
1, 15544, Note_on_c, 0, 74, 0
1, 15544, Note_on_c, 0, 44, 0
1, 15547, Note_on_c, 0, 43, 64
1, 15550, Note_on_c, 0, 75, 65
1, 15632, Note_on_c, 0, 79, 78
1, 15656, Note_on_c, 0, 75, 0
1, 15728, Note_on_c, 0, 77, 78
1, 15736, Note_on_c, 0, 46, 51
1, 15748, Note_on_c, 0, 43, 0
1, 15778, Note_on_c, 0, 79, 0
1, 15816, Note_on_c, 0, 75, 70
1, 15838, Note_on_c, 0, 77, 0
1, 15896, Note_on_c, 0, 46, 0
1, 15914, Note_on_c, 0, 74, 76
1, 15914, Note_on_c, 0, 51, 54
1, 15930, Note_on_c, 0, 75, 0
1, 15954, Note_on_c, 0, 74, 0
1, 16002, Note_on_c, 0, 72, 54
1, 16090, Note_on_c, 0, 70, 64
1, 16094, Note_on_c, 0, 51, 0
1, 16116, Note_on_c, 0, 43, 53
1, 16119, Note_on_c, 0, 72, 0
1, 16160, Note_on_c, 0, 70, 0
1, 16170, Note_on_c, 0, 75, 63
1, 16230, Note_on_c, 0, 75, 0
1, 16236, Note_on_c, 0, 43, 0
1, 16260, Note_on_c, 0, 44, 59
1, 16276, Note_on_c, 0, 74, 81
1, 16370, Note_on_c, 0, 75, 70
1, 16380, Note_on_c, 0, 74, 0
1, 16406, Note_on_c, 0, 75, 0
1, 16452, Note_on_c, 0, 77, 70
1, 16455, Note_on_c, 0, 50, 53
1, 16464, Note_on_c, 0, 44, 0
1, 16538, Note_on_c, 0, 77, 0
1, 16542, Note_on_c, 0, 79, 80
1, 16610, Note_on_c, 0, 50, 0
1, 16620, Note_on_c, 0, 79, 0
1, 16634, Note_on_c, 0, 80, 71
1, 16654, Note_on_c, 0, 53, 76
1, 16684, Note_on_c, 0, 80, 0
1, 16726, Note_on_c, 0, 77, 57
1, 16786, Note_on_c, 0, 53, 0
1, 16798, Note_on_c, 0, 77, 0
1, 16816, Note_on_c, 0, 44, 54
1, 16819, Note_on_c, 0, 75, 52
1, 16876, Note_on_c, 0, 75, 0
1, 16906, Note_on_c, 0, 74, 58
1, 16968, Note_on_c, 0, 74, 0
1, 16968, Note_on_c, 0, 44, 0
1, 17002, Note_on_c, 0, 43, 47
1, 17006, Note_on_c, 0, 75, 55
1, 17106, Note_on_c, 0, 75, 0
1, 17106, Note_on_c, 0, 77, 58
1, 17156, Note_on_c, 0, 77, 0
1, 17184, Note_on_c, 0, 79, 65
1, 17194, Note_on_c, 0, 46, 40
1, 17208, Note_on_c, 0, 43, 0
1, 17266, Note_on_c, 0, 79, 0
1, 17294, Note_on_c, 0, 77, 44
1, 17352, Note_on_c, 0, 77, 0
1, 17358, Note_on_c, 0, 75, 53
1, 17380, Note_on_c, 0, 46, 0
1, 17392, Note_on_c, 0, 51, 40
1, 17472, Note_on_c, 0, 75, 0
1, 17472, Note_on_c, 0, 74, 43
1, 17500, Note_on_c, 0, 51, 0
1, 17524, Note_on_c, 0, 74, 0
1, 17548, Note_on_c, 0, 72, 49
1, 17564, Note_on_c, 0, 55, 49
1, 17608, Note_on_c, 0, 72, 0
1, 17632, Note_on_c, 0, 70, 48
1, 17682, Note_on_c, 0, 55, 0
1, 17700, Note_on_c, 0, 70, 0
1, 17716, Note_on_c, 0, 44, 63
1, 17726, Note_on_c, 0, 72, 56
1, 17778, Note_on_c, 0, 72, 0
1, 17818, Note_on_c, 0, 75, 57
1, 17880, Note_on_c, 0, 75, 0
1, 17894, Note_on_c, 0, 44, 0
1, 17902, Note_on_c, 0, 48, 52
1, 17902, Note_on_c, 0, 77, 57
1, 17988, Note_on_c, 0, 77, 0
1, 17988, Note_on_c, 0, 75, 60
1, 18058, Note_on_c, 0, 75, 0
1, 18060, Note_on_c, 0, 48, 0
1, 18084, Note_on_c, 0, 74, 71
1, 18096, Note_on_c, 0, 53, 67
1, 18124, Note_on_c, 0, 74, 0
1, 18156, Note_on_c, 0, 53, 0
1, 18174, Note_on_c, 0, 72, 45
1, 18238, Note_on_c, 0, 70, 60
1, 18252, Note_on_c, 0, 72, 0
1, 18252, Note_on_c, 0, 56, 50
1, 18322, Note_on_c, 0, 68, 52
1, 18324, Note_on_c, 0, 70, 0
1, 18400, Note_on_c, 0, 56, 0
1, 18416, Note_on_c, 0, 68, 0
1, 18419, Note_on_c, 0, 67, 80
1, 18423, Note_on_c, 0, 58, 86
1, 18494, Note_on_c, 0, 67, 0
1, 18506, Note_on_c, 0, 70, 62
1, 18509, Note_on_c, 0, 58, 0
1, 18598, Note_on_c, 0, 70, 0
1, 18601, Note_on_c, 0, 67, 47
1, 18601, Note_on_c, 0, 58, 46
1, 18658, Note_on_c, 0, 58, 0
1, 18666, Note_on_c, 0, 67, 0
1, 18684, Note_on_c, 0, 70, 51
1, 18742, Note_on_c, 0, 70, 0
1, 18772, Note_on_c, 0, 58, 57
1, 18784, Note_on_c, 0, 65, 37
1, 18822, Note_on_c, 0, 58, 0
1, 18840, Note_on_c, 0, 65, 0
1, 18872, Note_on_c, 0, 68, 53
1, 18922, Note_on_c, 0, 68, 0
1, 18950, Note_on_c, 0, 58, 62
1, 18960, Note_on_c, 0, 65, 24
1, 18994, Note_on_c, 0, 58, 0
1, 19024, Note_on_c, 0, 65, 0
1, 19027, Note_on_c, 0, 68, 35
1, 19092, Note_on_c, 0, 68, 0
1, 19108, Note_on_c, 0, 46, 87
1, 19114, Note_on_c, 0, 63, 74
1, 19184, Note_on_c, 0, 63, 0
1, 19184, Note_on_c, 0, 46, 0
1, 19214, Note_on_c, 0, 67, 54
1, 19272, Note_on_c, 0, 67, 0
1, 19296, Note_on_c, 0, 46, 60
1, 19299, Note_on_c, 0, 63, 46
1, 19342, Note_on_c, 0, 46, 0
1, 19358, Note_on_c, 0, 63, 0
1, 19366, Note_on_c, 0, 67, 40
1, 19446, Note_on_c, 0, 67, 0
1, 19472, Note_on_c, 0, 46, 53
1, 19474, Note_on_c, 0, 62, 57
1, 19520, Note_on_c, 0, 62, 0
1, 19528, Note_on_c, 0, 46, 0
1, 19550, Note_on_c, 0, 65, 54
1, 19604, Note_on_c, 0, 65, 0
1, 19642, Note_on_c, 0, 46, 59
1, 19646, Note_on_c, 0, 62, 35
1, 19690, Note_on_c, 0, 46, 0
1, 19712, Note_on_c, 0, 62, 0
1, 19718, Note_on_c, 0, 65, 42
1, 19808, Note_on_c, 0, 51, 78
1, 19814, Note_on_c, 0, 63, 69
1, 19838, Note_on_c, 0, 65, 0
1, 19856, Note_on_c, 0, 51, 0
1, 19870, Note_on_c, 0, 63, 0
1, 19898, Note_on_c, 0, 58, 40
1, 19966, Note_on_c, 0, 58, 0
1, 19980, Note_on_c, 0, 55, 64
1, 20004, Note_on_c, 0, 63, 41
1, 20028, Note_on_c, 0, 55, 0
1, 20060, Note_on_c, 0, 63, 0
1, 20068, Note_on_c, 0, 58, 25
1, 20140, Note_on_c, 0, 58, 0
1, 20150, Note_on_c, 0, 51, 70
1, 20152, Note_on_c, 0, 63, 52
1, 20194, Note_on_c, 0, 51, 0
1, 20220, Note_on_c, 0, 63, 0
1, 20234, Note_on_c, 0, 58, 26
1, 20308, Note_on_c, 0, 58, 0
1, 20342, Note_on_c, 0, 55, 60
1, 20346, Note_on_c, 0, 63, 46
1, 20388, Note_on_c, 0, 55, 0
1, 20398, Note_on_c, 0, 58, 28
1, 20404, Note_on_c, 0, 63, 0
1, 20488, Note_on_c, 0, 58, 0
1, 20560, Note_on_c, 0, 63, 65
1, 20563, Note_on_c, 0, 51, 33
1, 20680, Control_c, 0, 64, 127
1, 20716, Note_on_c, 0, 63, 0
1, 20760, Note_on_c, 0, 51, 0
1, 20896, Control_c, 0, 64, 0
1, 21066, Note_on_c, 0, 79, 63
1, 21266, Note_on_c, 0, 80, 80
1, 21300, Note_on_c, 0, 79, 0
1, 21340, Control_c, 0, 64, 127
1, 21432, Note_on_c, 0, 81, 88
1, 21466, Note_on_c, 0, 80, 0
1, 21526, Control_c, 0, 64, 0
1, 21610, Note_on_c, 0, 82, 85
1, 21662, Note_on_c, 0, 81, 0
1, 21786, Note_on_c, 0, 83, 108
1, 21836, Note_on_c, 0, 82, 0
1, 21952, Note_on_c, 0, 63, 37
1, 21990, Note_on_c, 0, 84, 79
1, 22016, Note_on_c, 0, 83, 0
1, 22178, Note_on_c, 0, 67, 35
1, 22182, Note_on_c, 0, 79, 53
1, 22192, Note_on_c, 0, 84, 0
1, 22308, Note_on_c, 0, 67, 0
1, 22308, Control_c, 0, 64, 127
1, 22360, Note_on_c, 0, 79, 0
1, 22363, Note_on_c, 0, 72, 31
1, 22486, Note_on_c, 0, 72, 0
1, 22524, Note_on_c, 0, 79, 90
1, 22576, Note_on_c, 0, 67, 23
1, 22614, Note_on_c, 0, 79, 0
1, 22662, Note_on_c, 0, 67, 0
1, 22698, Note_on_c, 0, 63, 0
1, 22710, Note_on_c, 0, 79, 79
1, 22736, Note_on_c, 0, 62, 30
1, 22888, Note_on_c, 0, 77, 81
1, 22906, Note_on_c, 0, 67, 40
1, 22906, Control_c, 0, 64, 0
1, 22946, Note_on_c, 0, 79, 0
1, 22986, Note_on_c, 0, 67, 0
1, 23072, Note_on_c, 0, 80, 62
1, 23082, Note_on_c, 0, 71, 49
1, 23104, Note_on_c, 0, 77, 0
1, 23200, Control_c, 0, 64, 127
1, 23240, Note_on_c, 0, 71, 0
1, 23252, Note_on_c, 0, 80, 0
1, 23254, Note_on_c, 0, 77, 58
1, 23278, Note_on_c, 0, 67, 34
1, 23304, Note_on_c, 0, 77, 0
1, 23346, Note_on_c, 0, 67, 0
1, 23412, Note_on_c, 0, 62, 0
1, 23415, Control_c, 0, 64, 0
1, 23432, Note_on_c, 0, 60, 38
1, 23446, Note_on_c, 0, 77, 53
1, 23528, Note_on_c, 0, 77, 0
1, 23628, Note_on_c, 0, 63, 43
1, 23634, Note_on_c, 0, 75, 45
1, 23676, Control_c, 0, 64, 127
1, 23684, Note_on_c, 0, 75, 0
1, 23690, Note_on_c, 0, 63, 0
1, 23800, Note_on_c, 0, 67, 42
1, 23964, Note_on_c, 0, 79, 83
1, 23976, Note_on_c, 0, 67, 0
1, 24000, Note_on_c, 0, 63, 45
1, 24072, Note_on_c, 0, 63, 0
1, 24122, Note_on_c, 0, 60, 0
1, 24148, Note_on_c, 0, 80, 83
1, 24160, Note_on_c, 0, 58, 35
1, 24192, Note_on_c, 0, 79, 0
1, 24230, Control_c, 0, 64, 0
1, 24324, Note_on_c, 0, 81, 88
1, 24352, Note_on_c, 0, 80, 0
1, 24366, Note_on_c, 0, 63, 42
1, 24430, Note_on_c, 0, 63, 0
1, 24498, Note_on_c, 0, 82, 76
1, 24520, Note_on_c, 0, 81, 0
1, 24522, Control_c, 0, 64, 127
1, 24522, Note_on_c, 0, 67, 48
1, 24634, Note_on_c, 0, 67, 0
1, 24666, Note_on_c, 0, 83, 111
1, 24686, Note_on_c, 0, 82, 0
1, 24692, Note_on_c, 0, 63, 42
1, 24788, Note_on_c, 0, 63, 0
1, 24800, Note_on_c, 0, 83, 0
1, 24824, Note_on_c, 0, 84, 98
1, 24830, Note_on_c, 0, 58, 0
1, 24842, Note_on_c, 0, 57, 39
1, 24906, Control_c, 0, 64, 0
1, 24928, Note_on_c, 0, 84, 0
1, 24966, Note_on_c, 0, 86, 88
1, 25006, Note_on_c, 0, 84, 81
1, 25006, Note_on_c, 0, 60, 36
1, 25072, Note_on_c, 0, 86, 0
1, 25096, Note_on_c, 0, 83, 101
1, 25122, Note_on_c, 0, 84, 0
1, 25152, Control_c, 0, 64, 127
1, 25158, Note_on_c, 0, 60, 0
1, 25188, Note_on_c, 0, 84, 90
1, 25214, Control_c, 0, 64, 0
1, 25214, Note_on_c, 0, 65, 33
1, 25232, Note_on_c, 0, 83, 0
1, 25290, Note_on_c, 0, 86, 89
1, 25314, Note_on_c, 0, 84, 0
1, 25392, Note_on_c, 0, 87, 80
1, 25414, Note_on_c, 0, 65, 0
1, 25414, Note_on_c, 0, 86, 0
1, 25417, Note_on_c, 0, 60, 36
1, 25448, Note_on_c, 0, 57, 0
1, 25536, Note_on_c, 0, 60, 0
1, 25612, Control_c, 0, 64, 127
1, 25626, Note_on_c, 0, 57, 37
1, 25722, Note_on_c, 0, 86, 59
1, 25744, Note_on_c, 0, 87, 0
1, 25778, Note_on_c, 0, 86, 0
1, 25828, Note_on_c, 0, 84, 54
1, 25886, Note_on_c, 0, 60, 21
1, 25920, Note_on_c, 0, 82, 52
1, 25928, Note_on_c, 0, 84, 0
1, 25968, Note_on_c, 0, 60, 0
1, 26008, Note_on_c, 0, 81, 60
1, 26046, Note_on_c, 0, 82, 0
1, 26066, Note_on_c, 0, 65, 23
1, 26094, Note_on_c, 0, 79, 71
1, 26104, Note_on_c, 0, 81, 0
1, 26144, Note_on_c, 0, 79, 0
1, 26168, Note_on_c, 0, 65, 0
1, 26184, Note_on_c, 0, 77, 62
1, 26238, Note_on_c, 0, 77, 0
1, 26264, Note_on_c, 0, 60, 16
1, 26278, Note_on_c, 0, 75, 57
1, 26340, Note_on_c, 0, 75, 0
1, 26364, Note_on_c, 0, 60, 0
1, 26370, Note_on_c, 0, 57, 0
1, 26404, Note_on_c, 0, 74, 70
1, 26414, Note_on_c, 0, 58, 23
1, 26442, Note_on_c, 0, 74, 0
1, 26680, Note_on_c, 0, 89, 36
1, 26688, Note_on_c, 0, 62, 18
1, 26766, Control_c, 0, 64, 0
1, 26874, Note_on_c, 0, 62, 0
1, 26912, Note_on_c, 0, 60, 40
1, 26988, Note_on_c, 0, 58, 0
1, 26996, Control_c, 0, 64, 127
1, 27098, Note_on_c, 0, 81, 62
1, 27106, Note_on_c, 0, 89, 0
1, 27106, Note_on_c, 0, 63, 40
1, 27234, Note_on_c, 0, 63, 0
1, 27264, Note_on_c, 0, 60, 0
1, 27272, Control_c, 0, 64, 0
1, 27308, Note_on_c, 0, 62, 32
1, 27460, Note_on_c, 0, 62, 0
1, 27472, Control_c, 0, 64, 127
1, 27472, Note_on_c, 0, 82, 62
1, 27506, Note_on_c, 0, 65, 22
1, 27532, Note_on_c, 0, 81, 0
1, 27578, Note_on_c, 0, 65, 0
1, 27682, Note_on_c, 0, 50, 64
1, 27854, Note_on_c, 0, 80, 70
1, 27862, Note_on_c, 0, 58, 36
1, 27938, Note_on_c, 0, 58, 0
1, 27994, Control_c, 0, 64, 0
1, 28020, Note_on_c, 0, 82, 0
1, 28022, Note_on_c, 0, 50, 0
1, 28046, Note_on_c, 0, 51, 59
1, 28226, Note_on_c, 0, 79, 76
1, 28226, Note_on_c, 0, 58, 37
1, 28240, Note_on_c, 0, 80, 0
1, 28254, Control_c, 0, 64, 127
1, 28332, Control_c, 0, 64, 0
1, 28376, Note_on_c, 0, 58, 0
1, 28418, Note_on_c, 0, 53, 83
1, 28442, Note_on_c, 0, 51, 0
1, 28580, Note_on_c, 0, 77, 71
1, 28582, Note_on_c, 0, 58, 41
1, 28594, Control_c, 0, 64, 127
1, 28642, Note_on_c, 0, 79, 0
1, 28686, Control_c, 0, 64, 0
1, 28740, Note_on_c, 0, 58, 0
1, 28784, Note_on_c, 0, 55, 55
1, 28834, Note_on_c, 0, 53, 0
1, 28950, Note_on_c, 0, 76, 66
1, 28972, Note_on_c, 0, 77, 0
1, 28978, Control_c, 0, 64, 127
1, 28981, Note_on_c, 0, 58, 32
1, 29008, Control_c, 0, 64, 0
1, 29080, Note_on_c, 0, 58, 0
1, 29144, Note_on_c, 0, 54, 60
1, 29176, Note_on_c, 0, 55, 0
1, 29298, Note_on_c, 0, 75, 65
1, 29328, Note_on_c, 0, 58, 31
1, 29352, Note_on_c, 0, 76, 0
1, 29440, Note_on_c, 0, 58, 0
1, 29498, Note_on_c, 0, 54, 0
1, 29501, Note_on_c, 0, 53, 78
1, 29672, Note_on_c, 0, 74, 78
1, 29700, Note_on_c, 0, 58, 28
1, 29706, Note_on_c, 0, 75, 0
1, 29856, Note_on_c, 0, 58, 0
1, 29862, Note_on_c, 0, 53, 0
1, 29878, Note_on_c, 0, 52, 68
1, 29976, Control_c, 0, 64, 127
1, 30046, Note_on_c, 0, 73, 69
1, 30062, Note_on_c, 0, 58, 42
1, 30082, Note_on_c, 0, 52, 0
1, 30096, Note_on_c, 0, 74, 0
1, 30192, Control_c, 0, 64, 0
1, 30252, Note_on_c, 0, 52, 66
1, 30276, Note_on_c, 0, 58, 0
1, 30412, Note_on_c, 0, 72, 72
1, 30415, Note_on_c, 0, 52, 0
1, 30422, Control_c, 0, 64, 127
1, 30436, Note_on_c, 0, 60, 43
1, 30452, Note_on_c, 0, 73, 0
1, 30576, Control_c, 0, 64, 0
1, 30610, Note_on_c, 0, 52, 51
1, 30626, Note_on_c, 0, 60, 0
1, 30766, Note_on_c, 0, 70, 62
1, 30800, Note_on_c, 0, 61, 52
1, 30802, Note_on_c, 0, 52, 0
1, 30886, Note_on_c, 0, 72, 0
1, 30974, Note_on_c, 0, 53, 72
1, 31006, Note_on_c, 0, 61, 0
1, 31146, Note_on_c, 0, 69, 60
1, 31156, Note_on_c, 0, 60, 52
1, 31204, Note_on_c, 0, 70, 0
1, 31252, Note_on_c, 0, 53, 0
1, 31328, Note_on_c, 0, 60, 0
1, 31356, Note_on_c, 0, 52, 59
1, 31516, Note_on_c, 0, 52, 0
1, 31538, Note_on_c, 0, 61, 50
1, 31556, Note_on_c, 0, 70, 41
1, 31608, Note_on_c, 0, 69, 0
1, 31746, Note_on_c, 0, 53, 55
1, 31764, Note_on_c, 0, 61, 0
1, 31900, Note_on_c, 0, 69, 39
1, 31901, Note_on_c, 0, 53, 0
1, 31936, Note_on_c, 0, 60, 31
1, 31946, Note_on_c, 0, 70, 0
1, 32086, Note_on_c, 0, 60, 0
1, 32120, Note_on_c, 0, 52, 42
1, 32264, Note_on_c, 0, 52, 0
1, 32282, Note_on_c, 0, 61, 40
1, 32282, Note_on_c, 0, 70, 48
1, 32306, Note_on_c, 0, 69, 0
1, 32467, Note_on_c, 0, 61, 0
1, 32473, Note_on_c, 0, 70, 0
1, 32486, Note_on_c, 0, 69, 38
1, 32494, Note_on_c, 0, 60, 32
1, 32514, Note_on_c, 0, 53, 43
1, 32674, Note_on_c, 0, 69, 0
1, 32690, Note_on_c, 0, 77, 45
1, 32728, Note_on_c, 0, 60, 0
1, 32740, Note_on_c, 0, 77, 0
1, 32768, Note_on_c, 0, 53, 0
1, 32844, Note_on_c, 0, 77, 44
1, 32906, Note_on_c, 0, 77, 0
1, 33028, Note_on_c, 0, 77, 92
1, 33132, Note_on_c, 0, 77, 0
1, 33198, Note_on_c, 0, 77, 64
1, 33292, Note_on_c, 0, 77, 0
1, 33384, Note_on_c, 0, 77, 48
1, 33454, Note_on_c, 0, 77, 0
1, 33592, Note_on_c, 0, 77, 55
1, 33638, Note_on_c, 0, 77, 0
1, 33738, Note_on_c, 0, 77, 70
1, 33748, Note_on_c, 0, 76, 83
1, 33800, Note_on_c, 0, 76, 0
1, 33832, Note_on_c, 0, 77, 0
1, 33928, Note_on_c, 0, 77, 47
1, 33931, Note_on_c, 0, 76, 68
1, 33980, Note_on_c, 0, 76, 0
1, 33994, Note_on_c, 0, 77, 0
1, 34108, Note_on_c, 0, 77, 49
1, 34116, Note_on_c, 0, 76, 51
1, 34168, Note_on_c, 0, 76, 0
1, 34170, Note_on_c, 0, 77, 0
1, 34280, Note_on_c, 0, 77, 43
1, 34284, Note_on_c, 0, 76, 34
1, 34338, Note_on_c, 0, 77, 0
1, 34340, Note_on_c, 0, 76, 0
1, 34442, Note_on_c, 0, 65, 61
1, 34445, Note_on_c, 0, 75, 61
1, 34448, Note_on_c, 0, 77, 47
1, 34510, Note_on_c, 0, 77, 0
1, 34510, Note_on_c, 0, 75, 0
1, 34620, Note_on_c, 0, 75, 52
1, 34626, Note_on_c, 0, 66, 56
1, 34632, Note_on_c, 0, 65, 0
1, 34632, Note_on_c, 0, 77, 45
1, 34690, Note_on_c, 0, 77, 0
1, 34698, Note_on_c, 0, 75, 0
1, 34778, Note_on_c, 0, 66, 0
1, 34794, Note_on_c, 0, 75, 52
1, 34802, Note_on_c, 0, 77, 46
1, 34804, Note_on_c, 0, 67, 52
1, 34862, Note_on_c, 0, 77, 0
1, 34882, Note_on_c, 0, 75, 0
1, 34958, Note_on_c, 0, 68, 62
1, 34968, Note_on_c, 0, 67, 0
1, 34968, Note_on_c, 0, 75, 54
1, 34974, Note_on_c, 0, 77, 53
1, 35042, Note_on_c, 0, 77, 0
1, 35048, Note_on_c, 0, 75, 0
1, 35134, Note_on_c, 0, 75, 66
1, 35140, Note_on_c, 0, 69, 66
1, 35146, Note_on_c, 0, 77, 63
1, 35149, Note_on_c, 0, 68, 0
1, 35228, Note_on_c, 0, 77, 0
1, 35230, Note_on_c, 0, 75, 0
1, 35278, Note_on_c, 0, 69, 0
1, 35314, Note_on_c, 0, 74, 90
1, 35314, Note_on_c, 0, 77, 80
1, 35322, Note_on_c, 0, 70, 90
1, 35410, Note_on_c, 0, 77, 0
1, 35426, Note_on_c, 0, 74, 0
1, 35490, Note_on_c, 0, 74, 80
1, 35490, Note_on_c, 0, 77, 57
1, 35560, Note_on_c, 0, 74, 0
1, 35572, Note_on_c, 0, 70, 0
1, 35584, Control_c, 0, 64, 127
1, 35586, Note_on_c, 0, 77, 0
1, 35662, Note_on_c, 0, 77, 67
1, 35662, Note_on_c, 0, 74, 59
1, 35698, Note_on_c, 0, 77, 0
1, 35702, Note_on_c, 0, 74, 0
1, 35800, Control_c, 0, 64, 0
1, 35854, Note_on_c, 0, 77, 96
1, 35857, Note_on_c, 0, 86, 91
1, 35860, Note_on_c, 0, 82, 79
1, 35862, Note_on_c, 0, 65, 73
1, 35862, Note_on_c, 0, 89, 87
1, 35866, Note_on_c, 0, 58, 64
1, 35868, Note_on_c, 0, 62, 72
1, 35900, Note_on_c, 0, 77, 0
1, 35904, Note_on_c, 0, 89, 0
1, 35904, Note_on_c, 0, 86, 0
1, 35906, Note_on_c, 0, 82, 0
1, 35910, Note_on_c, 0, 65, 0
1, 35913, Note_on_c, 0, 62, 0
1, 35928, Note_on_c, 0, 58, 0
1, 36030, Note_on_c, 0, 77, 110
1, 36030, Note_on_c, 0, 82, 92
1, 36030, Note_on_c, 0, 89, 104
1, 36030, Note_on_c, 0, 86, 100
1, 36033, Note_on_c, 0, 65, 98
1, 36036, Note_on_c, 0, 58, 83
1, 36036, Note_on_c, 0, 62, 91
1, 36076, Note_on_c, 0, 62, 0
1, 36090, Note_on_c, 0, 65, 0
1, 36112, Note_on_c, 0, 77, 0
1, 36120, Note_on_c, 0, 82, 0
1, 36124, Note_on_c, 0, 86, 0
1, 36132, Note_on_c, 0, 89, 0
1, 36144, Note_on_c, 0, 58, 0
1, 36192, Note_on_c, 0, 89, 98
1, 36195, Note_on_c, 0, 77, 93
1, 36195, Note_on_c, 0, 82, 80
1, 36195, Note_on_c, 0, 58, 83
1, 36198, Note_on_c, 0, 86, 92
1, 36198, Note_on_c, 0, 65, 92
1, 36204, Note_on_c, 0, 62, 97
1, 36240, Note_on_c, 0, 62, 0
1, 36252, Note_on_c, 0, 65, 0
1, 36262, Note_on_c, 0, 86, 0
1, 36282, Note_on_c, 0, 89, 0
1, 36290, Note_on_c, 0, 77, 0
1, 36302, Note_on_c, 0, 82, 0
1, 36302, Note_on_c, 0, 58, 0
1, 36362, Note_on_c, 0, 89, 82
1, 36362, Note_on_c, 0, 77, 95
1, 36362, Note_on_c, 0, 82, 83
1, 36368, Note_on_c, 0, 86, 93
1, 36372, Note_on_c, 0, 58, 64
1, 36374, Note_on_c, 0, 62, 90
1, 36376, Note_on_c, 0, 65, 83
1, 36416, Note_on_c, 0, 65, 0
1, 36418, Note_on_c, 0, 86, 0
1, 36422, Note_on_c, 0, 62, 0
1, 36436, Note_on_c, 0, 58, 0
1, 36460, Note_on_c, 0, 89, 0
1, 36462, Note_on_c, 0, 77, 0
1, 36464, Note_on_c, 0, 82, 0
1, 36532, Note_on_c, 0, 89, 87
1, 36532, Note_on_c, 0, 77, 92
1, 36535, Note_on_c, 0, 82, 73
1, 36543, Note_on_c, 0, 86, 87
1, 36543, Note_on_c, 0, 65, 81
1, 36550, Note_on_c, 0, 58, 69
1, 36556, Note_on_c, 0, 62, 69
1, 36576, Note_on_c, 0, 86, 0
1, 36582, Note_on_c, 0, 65, 0
1, 36598, Note_on_c, 0, 82, 0
1, 36598, Note_on_c, 0, 62, 0
1, 36601, Note_on_c, 0, 89, 0
1, 36604, Note_on_c, 0, 58, 0
1, 36624, Note_on_c, 0, 77, 0
1, 36748, Note_on_c, 0, 60, 105
1, 36748, Note_on_c, 0, 81, 109
1, 36750, Note_on_c, 0, 75, 101
1, 36760, Note_on_c, 0, 53, 106
1, 37014, Control_c, 0, 64, 127
1, 37036, Note_on_c, 0, 75, 0
1, 37066, Note_on_c, 0, 53, 0
1, 37090, Control_c, 0, 64, 0
1, 37100, Note_on_c, 0, 60, 0
1, 37110, Note_on_c, 0, 62, 73
1, 37116, Note_on_c, 0, 82, 85
1, 37120, Note_on_c, 0, 58, 56
1, 37132, Note_on_c, 0, 74, 74
1, 37140, Note_on_c, 0, 81, 0
1, 37156, Note_on_c, 0, 62, 0
1, 37168, Note_on_c, 0, 58, 0
1, 37172, Note_on_c, 0, 74, 0
1, 37182, Note_on_c, 0, 82, 0
1, 37298, Note_on_c, 0, 62, 85
1, 37301, Note_on_c, 0, 77, 98
1, 37308, Note_on_c, 0, 58, 73
1, 37310, Note_on_c, 0, 74, 86
1, 37338, Note_on_c, 0, 62, 0
1, 37348, Note_on_c, 0, 74, 0
1, 37348, Note_on_c, 0, 58, 0
1, 37362, Note_on_c, 0, 77, 0
1, 37490, Note_on_c, 0, 81, 108
1, 37490, Note_on_c, 0, 75, 100
1, 37493, Note_on_c, 0, 60, 103
1, 37500, Note_on_c, 0, 53, 112
1, 37596, Control_c, 0, 64, 127
1, 37744, Note_on_c, 0, 53, 0
1, 37749, Note_on_c, 0, 75, 0
1, 37804, Note_on_c, 0, 60, 0
1, 37836, Note_on_c, 0, 81, 0
1, 37836, Note_on_c, 0, 82, 82
1, 37839, Note_on_c, 0, 62, 87
1, 37844, Control_c, 0, 64, 0
1, 37844, Note_on_c, 0, 74, 80
1, 37847, Note_on_c, 0, 58, 67
1, 37888, Note_on_c, 0, 74, 0
1, 37898, Note_on_c, 0, 62, 0
1, 37906, Note_on_c, 0, 58, 0
1, 37950, Note_on_c, 0, 82, 0
1, 38018, Note_on_c, 0, 77, 96
1, 38022, Note_on_c, 0, 62, 87
1, 38026, Note_on_c, 0, 74, 89
1, 38034, Note_on_c, 0, 58, 70
1, 38070, Note_on_c, 0, 74, 0
1, 38074, Note_on_c, 0, 62, 0
1, 38082, Note_on_c, 0, 58, 0
1, 38106, Note_on_c, 0, 77, 0
1, 38204, Note_on_c, 0, 75, 99
1, 38206, Note_on_c, 0, 81, 110
1, 38208, Note_on_c, 0, 60, 106
1, 38218, Note_on_c, 0, 53, 109
1, 38304, Control_c, 0, 64, 127
1, 38464, Note_on_c, 0, 75, 0
1, 38476, Note_on_c, 0, 53, 0
1, 38528, Note_on_c, 0, 60, 0
1, 38544, Note_on_c, 0, 62, 87
1, 38552, Note_on_c, 0, 58, 72
1, 38552, Note_on_c, 0, 82, 92
1, 38558, Note_on_c, 0, 74, 90
1, 38578, Note_on_c, 0, 81, 0
1, 38596, Control_c, 0, 64, 0
1, 38602, Note_on_c, 0, 58, 0
1, 38608, Note_on_c, 0, 74, 0
1, 38610, Note_on_c, 0, 62, 0
1, 38638, Note_on_c, 0, 82, 0
1, 38722, Note_on_c, 0, 65, 89
1, 38722, Note_on_c, 0, 83, 122
1, 38722, Note_on_c, 0, 56, 86
1, 38728, Note_on_c, 0, 74, 98
1, 38768, Note_on_c, 0, 65, 0
1, 38770, Note_on_c, 0, 56, 0
1, 38802, Note_on_c, 0, 83, 0
1, 38808, Note_on_c, 0, 74, 0
1, 38938, Note_on_c, 0, 83, 125
1, 38940, Note_on_c, 0, 74, 109
1, 38944, Note_on_c, 0, 65, 102
1, 38948, Note_on_c, 0, 56, 95
1, 38980, Control_c, 0, 64, 127
1, 39632, Note_on_c, 0, 74, 0
1, 39718, Note_on_c, 0, 84, 107
1, 39722, Note_on_c, 0, 72, 86
1, 39722, Note_on_c, 0, 63, 93
1, 39774, Note_on_c, 0, 65, 0
1, 39838, Note_on_c, 0, 83, 0
1, 40120, Note_on_c, 0, 82, 95
1, 40126, Note_on_c, 0, 54, 90
1, 40132, Control_c, 0, 64, 0
1, 40164, Note_on_c, 0, 56, 0
1, 40246, Note_on_c, 0, 84, 0
1, 40332, Control_c, 0, 64, 127
1, 40398, Note_on_c, 0, 63, 0
1, 40456, Note_on_c, 0, 72, 0
1, 40476, Note_on_c, 0, 54, 0
1, 40516, Note_on_c, 0, 82, 0
1, 40558, Note_on_c, 0, 81, 100
1, 40558, Note_on_c, 0, 63, 68
1, 40566, Note_on_c, 0, 72, 74
1, 40580, Note_on_c, 0, 53, 87
1, 40702, Control_c, 0, 64, 0
1, 41346, Control_c, 0, 64, 127
1, 41454, Note_on_c, 0, 72, 0
1, 41672, Note_on_c, 0, 63, 0
1, 41942, Note_on_c, 0, 82, 44
1, 41956, Note_on_c, 0, 70, 26
1, 41958, Note_on_c, 0, 53, 0
1, 41960, Note_on_c, 0, 55, 30
1, 41966, Note_on_c, 0, 62, 23
1, 42052, Control_c, 0, 64, 0
1, 42250, Note_on_c, 0, 81, 0
1, 42776, Control_c, 0, 64, 127
1, 43022, Note_on_c, 0, 55, 0
1, 43062, Note_on_c, 0, 62, 0
1, 43080, Note_on_c, 0, 70, 0
1, 43420, Note_on_c, 0, 82, 0
1, 43576, Note_on_c, 0, 70, 24
1, 43578, Note_on_c, 0, 74, 30
1, 43582, Note_on_c, 0, 78, 41
1, 43590, Control_c, 0, 64, 0
1, 43752, Note_on_c, 0, 74, 0
1, 43788, Control_c, 0, 64, 127
1, 43796, Note_on_c, 0, 70, 0
1, 43816, Note_on_c, 0, 78, 0
1, 43994, Note_on_c, 0, 78, 68
1, 44000, Note_on_c, 0, 70, 44
1, 44010, Note_on_c, 0, 74, 57
1, 44328, Control_c, 0, 64, 0
1, 44572, Control_c, 0, 64, 127
1, 44620, Note_on_c, 0, 70, 0
1, 44800, Note_on_c, 0, 74, 0
1, 44804, Control_c, 0, 64, 0
1, 44822, Note_on_c, 0, 79, 65
1, 44830, Note_on_c, 0, 70, 30
1, 44837, Note_on_c, 0, 75, 47
1, 44850, Note_on_c, 0, 78, 0
1, 44972, Control_c, 0, 64, 127
1, 44975, Note_on_c, 0, 75, 0
1, 44996, Note_on_c, 0, 70, 0
1, 45040, Note_on_c, 0, 79, 0
1, 45192, Note_on_c, 0, 79, 92
1, 45196, Note_on_c, 0, 71, 88
1, 45204, Note_on_c, 0, 63, 73
1, 45214, Note_on_c, 0, 51, 55
1, 45242, Note_on_c, 0, 63, 0
1, 45266, Note_on_c, 0, 51, 0
1, 45396, Note_on_c, 0, 71, 0
1, 45424, Note_on_c, 0, 79, 0
1, 45624, Note_on_c, 0, 71, 95
1, 45624, Note_on_c, 0, 51, 59
1, 45626, Note_on_c, 0, 79, 101
1, 45630, Note_on_c, 0, 63, 74
1, 46388, Note_on_c, 0, 74, 73
1, 46422, Note_on_c, 0, 71, 0
1, 46432, Control_c, 0, 64, 0
1, 46578, Note_on_c, 0, 72, 69
1, 46606, Note_on_c, 0, 74, 0
1, 46632, Control_c, 0, 64, 127
1, 46744, Note_on_c, 0, 75, 73
1, 46747, Note_on_c, 0, 72, 0
1, 46756, Control_c, 0, 64, 0
1, 46910, Note_on_c, 0, 74, 80
1, 46934, Note_on_c, 0, 75, 0
1, 46954, Control_c, 0, 64, 127
1, 47062, Control_c, 0, 64, 0
1, 47090, Note_on_c, 0, 77, 74
1, 47130, Note_on_c, 0, 74, 0
1, 47202, Note_on_c, 0, 79, 0
1, 47264, Note_on_c, 0, 75, 54
1, 47278, Note_on_c, 0, 77, 0
1, 47292, Control_c, 0, 64, 127
1, 47354, Control_c, 0, 64, 0
1, 47434, Note_on_c, 0, 75, 0
1, 47439, Note_on_c, 0, 80, 63
1, 47444, Note_on_c, 0, 77, 52
1, 47526, Note_on_c, 0, 77, 0
1, 47606, Note_on_c, 0, 75, 54
1, 47610, Note_on_c, 0, 79, 76
1, 47614, Note_on_c, 0, 80, 0
1, 47646, Control_c, 0, 64, 127
1, 47742, Note_on_c, 0, 75, 0
1, 47780, Note_on_c, 0, 78, 74
1, 47780, Note_on_c, 0, 74, 73
1, 47804, Note_on_c, 0, 79, 0
1, 47832, Note_on_c, 0, 78, 0
1, 47950, Note_on_c, 0, 75, 74
1, 47950, Note_on_c, 0, 79, 80
1, 48006, Note_on_c, 0, 74, 0
1, 48066, Note_on_c, 0, 75, 0
1, 48092, Control_c, 0, 64, 0
1, 48120, Note_on_c, 0, 77, 83
1, 48122, Note_on_c, 0, 74, 59
1, 48174, Note_on_c, 0, 79, 0
1, 48244, Control_c, 0, 64, 127
1, 48246, Note_on_c, 0, 74, 0
1, 48284, Note_on_c, 0, 72, 75
1, 48294, Note_on_c, 0, 75, 78
1, 48312, Note_on_c, 0, 77, 0
1, 48335, Note_on_c, 0, 51, 0
1, 48352, Note_on_c, 0, 75, 0
1, 48366, Note_on_c, 0, 63, 0
1, 48500, Note_on_c, 0, 70, 64
1, 48502, Note_on_c, 0, 74, 84
1, 48506, Note_on_c, 0, 65, 38
1, 48534, Note_on_c, 0, 72, 0
1, 48534, Note_on_c, 0, 53, 49
1, 48568, Control_c, 0, 64, 0
1, 48844, Control_c, 0, 64, 127
1, 48870, Note_on_c, 0, 65, 0
1, 48938, Note_on_c, 0, 70, 0
1, 48940, Note_on_c, 0, 53, 0
1, 48972, Note_on_c, 0, 74, 0
1, 49062, Note_on_c, 0, 74, 66
1, 49070, Note_on_c, 0, 77, 76
1, 49116, Note_on_c, 0, 74, 0
1, 49144, Note_on_c, 0, 77, 0
1, 49212, Control_c, 0, 64, 0
1, 49264, Note_on_c, 0, 74, 85
1, 49264, Note_on_c, 0, 77, 78
1, 49280, Note_on_c, 0, 53, 62
1, 49284, Note_on_c, 0, 41, 34
1, 49428, Note_on_c, 0, 74, 0
1, 49442, Note_on_c, 0, 75, 64
1, 49442, Note_on_c, 0, 72, 55
1, 49458, Control_c, 0, 64, 127
1, 49468, Note_on_c, 0, 77, 0
1, 49488, Note_on_c, 0, 75, 0
1, 49610, Note_on_c, 0, 70, 59
1, 49614, Control_c, 0, 64, 0
1, 49616, Note_on_c, 0, 72, 0
1, 49619, Note_on_c, 0, 74, 69
1, 49742, Note_on_c, 0, 70, 0
1, 49782, Note_on_c, 0, 74, 0
1, 49788, Note_on_c, 0, 69, 55
1, 49791, Note_on_c, 0, 41, 0
1, 49796, Note_on_c, 0, 72, 60
1, 49828, Control_c, 0, 64, 127
1, 49838, Note_on_c, 0, 53, 0
1, 49852, Note_on_c, 0, 72, 0
1, 49890, Note_on_c, 0, 69, 0
1, 49904, Control_c, 0, 64, 0
1, 49964, Note_on_c, 0, 70, 84
1, 50062, Note_on_c, 0, 77, 74
1, 50098, Note_on_c, 0, 70, 0
1, 50134, Note_on_c, 0, 74, 80
1, 50184, Note_on_c, 0, 77, 0
1, 50220, Note_on_c, 0, 70, 59
1, 50292, Note_on_c, 0, 74, 0
1, 50298, Note_on_c, 0, 65, 74
1, 50346, Note_on_c, 0, 70, 0
1, 50380, Control_c, 0, 64, 127
1, 50398, Note_on_c, 0, 62, 79
1, 50426, Note_on_c, 0, 65, 0
1, 50488, Control_c, 0, 64, 0
1, 50490, Note_on_c, 0, 58, 67
1, 50500, Note_on_c, 0, 62, 0
1, 50578, Note_on_c, 0, 62, 78
1, 50612, Note_on_c, 0, 58, 0
1, 50618, Note_on_c, 0, 62, 0
1, 50658, Note_on_c, 0, 69, 72
1, 50740, Note_on_c, 0, 77, 73
1, 50780, Note_on_c, 0, 69, 0
1, 50810, Note_on_c, 0, 75, 71
1, 50866, Note_on_c, 0, 77, 0
1, 50898, Note_on_c, 0, 72, 66
1, 50970, Note_on_c, 0, 75, 0
1, 50984, Note_on_c, 0, 69, 67
1, 51054, Note_on_c, 0, 72, 0
1, 51060, Note_on_c, 0, 65, 67
1, 51114, Note_on_c, 0, 63, 76
1, 51118, Note_on_c, 0, 69, 0
1, 51166, Note_on_c, 0, 63, 0
1, 51186, Note_on_c, 0, 60, 73
1, 51204, Note_on_c, 0, 65, 0
1, 51274, Note_on_c, 0, 60, 0
1, 51277, Note_on_c, 0, 63, 71
1, 51316, Note_on_c, 0, 63, 0
1, 51324, Note_on_c, 0, 70, 67
1, 51402, Note_on_c, 0, 77, 75
1, 51440, Note_on_c, 0, 70, 0
1, 51488, Note_on_c, 0, 74, 75
1, 51516, Note_on_c, 0, 77, 0
1, 51558, Note_on_c, 0, 70, 54
1, 51642, Note_on_c, 0, 74, 0
1, 51654, Note_on_c, 0, 65, 64
1, 51692, Note_on_c, 0, 70, 0
1, 51710, Note_on_c, 0, 62, 72
1, 51758, Note_on_c, 0, 62, 0
1, 51770, Note_on_c, 0, 65, 0
1, 51800, Note_on_c, 0, 58, 64
1, 51904, Note_on_c, 0, 58, 0
1, 51904, Note_on_c, 0, 62, 79
1, 51944, Note_on_c, 0, 62, 0
1, 51976, Note_on_c, 0, 69, 70
1, 52064, Note_on_c, 0, 77, 72
1, 52122, Note_on_c, 0, 69, 0
1, 52138, Note_on_c, 0, 75, 66
1, 52202, Note_on_c, 0, 77, 0
1, 52216, Note_on_c, 0, 72, 61
1, 52240, Control_c, 0, 64, 127
1, 52294, Note_on_c, 0, 75, 0
1, 52300, Note_on_c, 0, 69, 67
1, 52346, Note_on_c, 0, 72, 0
1, 52382, Note_on_c, 0, 65, 60
1, 52422, Note_on_c, 0, 60, 51
1, 52432, Note_on_c, 0, 69, 0
1, 52452, Note_on_c, 0, 65, 0
1, 52486, Control_c, 0, 64, 0
1, 52490, Note_on_c, 0, 60, 0
1, 52516, Note_on_c, 0, 63, 64
1, 52558, Note_on_c, 0, 63, 0
1, 52622, Note_on_c, 0, 77, 76
1, 52704, Note_on_c, 0, 70, 62
1, 52754, Note_on_c, 0, 70, 0
1, 52754, Note_on_c, 0, 77, 0
1, 52778, Note_on_c, 0, 62, 49
1, 52852, Note_on_c, 0, 70, 46
1, 52864, Note_on_c, 0, 62, 0
1, 52916, Note_on_c, 0, 70, 0
1, 52940, Note_on_c, 0, 79, 85
1, 53026, Note_on_c, 0, 70, 55
1, 53094, Note_on_c, 0, 70, 0
1, 53102, Note_on_c, 0, 79, 0
1, 53108, Note_on_c, 0, 63, 59
1, 53160, Note_on_c, 0, 63, 0
1, 53192, Note_on_c, 0, 70, 56
1, 53250, Note_on_c, 0, 70, 0
1, 53270, Note_on_c, 0, 81, 94
1, 53340, Note_on_c, 0, 70, 66
1, 53420, Note_on_c, 0, 81, 0
1, 53444, Note_on_c, 0, 65, 59
1, 53462, Note_on_c, 0, 70, 0
1, 53516, Note_on_c, 0, 70, 73
1, 53530, Note_on_c, 0, 65, 0
1, 53546, Control_c, 0, 64, 127
1, 53592, Control_c, 0, 64, 0
1, 53608, Note_on_c, 0, 82, 90
1, 53626, Note_on_c, 0, 70, 0
1, 53684, Note_on_c, 0, 70, 74
1, 53744, Note_on_c, 0, 82, 0
1, 53772, Note_on_c, 0, 67, 71
1, 53798, Note_on_c, 0, 70, 0
1, 53838, Control_c, 0, 64, 127
1, 53844, Note_on_c, 0, 70, 80
1, 53846, Note_on_c, 0, 67, 0
1, 53884, Control_c, 0, 64, 0
1, 53938, Note_on_c, 0, 70, 0
1, 53946, Note_on_c, 0, 77, 82
1, 54052, Note_on_c, 0, 70, 35
1, 54064, Note_on_c, 0, 77, 0
1, 54110, Note_on_c, 0, 62, 62
1, 54124, Note_on_c, 0, 70, 0
1, 54146, Control_c, 0, 64, 127
1, 54164, Note_on_c, 0, 62, 0
1, 54176, Control_c, 0, 64, 0
1, 54190, Note_on_c, 0, 70, 55
1, 54294, Note_on_c, 0, 70, 0
1, 54294, Note_on_c, 0, 79, 79
1, 54370, Note_on_c, 0, 70, 42
1, 54412, Note_on_c, 0, 79, 0
1, 54436, Control_c, 0, 64, 127
1, 54470, Note_on_c, 0, 63, 40
1, 54482, Control_c, 0, 64, 0
1, 54484, Note_on_c, 0, 70, 0
1, 54528, Note_on_c, 0, 63, 0
1, 54552, Note_on_c, 0, 70, 54
1, 54608, Note_on_c, 0, 70, 0
1, 54642, Note_on_c, 0, 81, 62
1, 54722, Note_on_c, 0, 70, 46
1, 54730, Note_on_c, 0, 81, 0
1, 54730, Control_c, 0, 64, 127
1, 54806, Note_on_c, 0, 70, 0
1, 54806, Control_c, 0, 64, 0
1, 54816, Note_on_c, 0, 65, 40
1, 54878, Note_on_c, 0, 65, 0
1, 54884, Note_on_c, 0, 70, 51
1, 54964, Note_on_c, 0, 70, 0
1, 54988, Note_on_c, 0, 82, 66
1, 55052, Control_c, 0, 64, 127
1, 55070, Note_on_c, 0, 70, 55
1, 55098, Control_c, 0, 64, 0
1, 55136, Note_on_c, 0, 70, 0
1, 55146, Note_on_c, 0, 82, 0
1, 55149, Note_on_c, 0, 67, 48
1, 55222, Note_on_c, 0, 67, 0
1, 55238, Note_on_c, 0, 70, 48
1, 55304, Note_on_c, 0, 70, 0
1, 55328, Control_c, 0, 64, 127
1, 55333, Note_on_c, 0, 85, 86
1, 55374, Control_c, 0, 64, 0
1, 55424, Note_on_c, 0, 73, 62
1, 55472, Note_on_c, 0, 85, 0
1, 55504, Note_on_c, 0, 66, 50
1, 55514, Note_on_c, 0, 73, 0
1, 55558, Control_c, 0, 64, 127
1, 55584, Note_on_c, 0, 70, 59
1, 55586, Note_on_c, 0, 66, 0
1, 55632, Note_on_c, 0, 70, 0
1, 55636, Control_c, 0, 64, 0
1, 55672, Note_on_c, 0, 82, 90
1, 55752, Note_on_c, 0, 70, 70
1, 55794, Note_on_c, 0, 70, 0
1, 55806, Control_c, 0, 64, 127
1, 55809, Note_on_c, 0, 82, 0
1, 55858, Note_on_c, 0, 66, 70
1, 55912, Control_c, 0, 64, 0
1, 55938, Note_on_c, 0, 70, 73
1, 55958, Note_on_c, 0, 66, 0
1, 56004, Note_on_c, 0, 70, 0
1, 56024, Note_on_c, 0, 88, 99
1, 56118, Note_on_c, 0, 76, 63
1, 56127, Control_c, 0, 64, 127
1, 56152, Note_on_c, 0, 88, 0
1, 56172, Note_on_c, 0, 76, 0
1, 56206, Note_on_c, 0, 66, 57
1, 56276, Note_on_c, 0, 70, 67
1, 56292, Note_on_c, 0, 66, 0
1, 56324, Note_on_c, 0, 70, 0
1, 56327, Control_c, 0, 64, 0
1, 56366, Note_on_c, 0, 82, 93
1, 56456, Note_on_c, 0, 70, 83
1, 56526, Control_c, 0, 64, 127
1, 56528, Note_on_c, 0, 66, 69
1, 56542, Note_on_c, 0, 70, 0
1, 56596, Note_on_c, 0, 82, 0
1, 56620, Control_c, 0, 64, 0
1, 56620, Note_on_c, 0, 70, 61
1, 56623, Note_on_c, 0, 66, 0
1, 56668, Note_on_c, 0, 70, 0
1, 56704, Note_on_c, 0, 81, 95
1, 56778, Note_on_c, 0, 69, 66
1, 56810, Note_on_c, 0, 81, 0
1, 56818, Control_c, 0, 64, 127
1, 56856, Note_on_c, 0, 65, 85
1, 56898, Note_on_c, 0, 69, 0
1, 56940, Note_on_c, 0, 65, 0
1, 56957, Note_on_c, 0, 53, 94
1, 56992, Note_on_c, 0, 53, 0
1, 57024, Note_on_c, 0, 77, 93
1, 57106, Note_on_c, 0, 77, 0
1, 57108, Note_on_c, 0, 65, 84
1, 57192, Note_on_c, 0, 60, 85
1, 57214, Note_on_c, 0, 65, 0
1, 57262, Note_on_c, 0, 48, 72
1, 57284, Note_on_c, 0, 60, 0
1, 57318, Note_on_c, 0, 48, 0
1, 57346, Note_on_c, 0, 72, 89
1, 57430, Note_on_c, 0, 72, 0
1, 57430, Note_on_c, 0, 60, 85
1, 57532, Note_on_c, 0, 57, 81
1, 57544, Note_on_c, 0, 60, 0
1, 57596, Note_on_c, 0, 45, 73
1, 57636, Note_on_c, 0, 57, 0
1, 57692, Note_on_c, 0, 45, 0
1, 57692, Note_on_c, 0, 69, 78
1, 57784, Note_on_c, 0, 57, 89
1, 57804, Note_on_c, 0, 69, 0
1, 57832, Note_on_c, 0, 57, 0
1, 57918, Note_on_c, 0, 53, 99
1, 58002, Note_on_c, 0, 41, 97
1, 58040, Note_on_c, 0, 53, 0
1, 58230, Note_on_c, 0, 29, 110
1, 58252, Note_on_c, 0, 41, 0
1, 58570, Control_c, 0, 64, 0
1, 59062, Control_c, 0, 64, 127
1, 59230, Note_on_c, 0, 29, 0
1, 60122, Control_c, 0, 64, 0
1, 60310, Note_on_c, 0, 63, 39
1, 60364, Note_on_c, 0, 63, 0
1, 60462, Note_on_c, 0, 63, 39
1, 60540, Note_on_c, 0, 63, 0
1, 60630, Note_on_c, 0, 63, 56
1, 60702, Note_on_c, 0, 63, 0
1, 60806, Note_on_c, 0, 63, 59
1, 60860, Note_on_c, 0, 63, 0
1, 60966, Note_on_c, 0, 72, 92
1, 60988, Note_on_c, 0, 63, 56
1, 61036, Note_on_c, 0, 63, 0
1, 61046, Note_on_c, 0, 72, 0
1, 61150, Note_on_c, 0, 65, 62
1, 61150, Note_on_c, 0, 63, 48
1, 61206, Note_on_c, 0, 63, 0
1, 61306, Note_on_c, 0, 65, 0
1, 61310, Note_on_c, 0, 66, 52
1, 61324, Note_on_c, 0, 63, 41
1, 61376, Note_on_c, 0, 63, 0
1, 61494, Note_on_c, 0, 63, 43
1, 61497, Note_on_c, 0, 66, 0
1, 61502, Note_on_c, 0, 65, 50
1, 61540, Note_on_c, 0, 63, 0
1, 61548, Note_on_c, 0, 65, 0
1, 61660, Note_on_c, 0, 75, 94
1, 61670, Note_on_c, 0, 63, 59
1, 61714, Note_on_c, 0, 63, 0
1, 61780, Note_on_c, 0, 75, 0
1, 61842, Note_on_c, 0, 63, 50
1, 61846, Note_on_c, 0, 69, 59
1, 61894, Note_on_c, 0, 63, 0
1, 61986, Note_on_c, 0, 69, 0
1, 62004, Note_on_c, 0, 70, 54
1, 62018, Note_on_c, 0, 63, 43
1, 62068, Note_on_c, 0, 63, 0
1, 62166, Note_on_c, 0, 70, 0
1, 62186, Note_on_c, 0, 69, 54
1, 62200, Note_on_c, 0, 63, 37
1, 62236, Note_on_c, 0, 69, 0
1, 62252, Note_on_c, 0, 63, 0
1, 62350, Note_on_c, 0, 78, 95
1, 62362, Note_on_c, 0, 63, 57
1, 62408, Note_on_c, 0, 63, 0
1, 62468, Note_on_c, 0, 78, 0
1, 62532, Note_on_c, 0, 72, 81
1, 62536, Note_on_c, 0, 63, 61
1, 62586, Note_on_c, 0, 63, 0
1, 62698, Note_on_c, 0, 72, 0
1, 62704, Note_on_c, 0, 73, 58
1, 62716, Note_on_c, 0, 63, 55
1, 62766, Note_on_c, 0, 63, 0
1, 62882, Note_on_c, 0, 73, 0
1, 62886, Note_on_c, 0, 63, 52
1, 62888, Note_on_c, 0, 72, 60
1, 62930, Note_on_c, 0, 63, 0
1, 62938, Note_on_c, 0, 72, 0
1, 63058, Note_on_c, 0, 81, 92
1, 63060, Note_on_c, 0, 63, 73
1, 63120, Note_on_c, 0, 63, 0
1, 63144, Note_on_c, 0, 81, 0
1, 63234, Note_on_c, 0, 77, 84
1, 63234, Note_on_c, 0, 63, 73
1, 63284, Note_on_c, 0, 63, 0
1, 63397, Note_on_c, 0, 77, 0
1, 63402, Note_on_c, 0, 78, 69
1, 63410, Note_on_c, 0, 63, 55
1, 63454, Note_on_c, 0, 63, 0
1, 63561, Note_on_c, 0, 78, 0
1, 63574, Note_on_c, 0, 63, 41
1, 63576, Note_on_c, 0, 77, 67
1, 63624, Note_on_c, 0, 63, 0
1, 63628, Note_on_c, 0, 77, 0
1, 63738, Note_on_c, 0, 89, 62
1, 63776, Note_on_c, 0, 63, 18
1, 63790, Note_on_c, 0, 89, 0
1, 63836, Note_on_c, 0, 63, 0
1, 63922, Note_on_c, 0, 62, 85
1, 63962, Note_on_c, 0, 62, 0
1, 64096, Note_on_c, 0, 86, 64
1, 64098, Note_on_c, 0, 89, 65
1, 64142, Note_on_c, 0, 89, 0
1, 64142, Note_on_c, 0, 86, 0
1, 64262, Note_on_c, 0, 63, 72
1, 64312, Note_on_c, 0, 63, 0
1, 64428, Note_on_c, 0, 87, 58
1, 64434, Note_on_c, 0, 84, 63
1, 64472, Note_on_c, 0, 87, 0
1, 64486, Note_on_c, 0, 84, 0
1, 64602, Note_on_c, 0, 65, 51
1, 64652, Note_on_c, 0, 65, 0
1, 64754, Note_on_c, 0, 82, 55
1, 64762, Note_on_c, 0, 86, 55
1, 64806, Note_on_c, 0, 82, 0
1, 64824, Note_on_c, 0, 86, 0
1, 64936, Note_on_c, 0, 65, 59
1, 64988, Note_on_c, 0, 65, 0
1, 65110, Note_on_c, 0, 84, 52
1, 65118, Note_on_c, 0, 81, 39
1, 65170, Note_on_c, 0, 84, 0
1, 65173, Note_on_c, 0, 81, 0
1, 65270, Note_on_c, 0, 82, 67
1, 65278, Note_on_c, 0, 58, 37
1, 65310, Note_on_c, 0, 82, 0
1, 65332, Control_c, 0, 64, 127
1, 65410, Note_on_c, 0, 58, 0
1, 65472, Note_on_c, 0, 63, 72
1, 65500, Control_c, 0, 64, 0
1, 65520, Note_on_c, 0, 63, 0
1, 65632, Note_on_c, 0, 63, 55
1, 65692, Note_on_c, 0, 63, 0
1, 65802, Note_on_c, 0, 63, 56
1, 65852, Note_on_c, 0, 63, 0
1, 65972, Note_on_c, 0, 63, 41
1, 66024, Note_on_c, 0, 63, 0
1, 66120, Note_on_c, 0, 63, 46
1, 66200, Note_on_c, 0, 63, 0
1, 66292, Note_on_c, 0, 63, 56
1, 66352, Note_on_c, 0, 63, 0
1, 66440, Note_on_c, 0, 48, 74
1, 66454, Note_on_c, 0, 63, 60
1, 66504, Note_on_c, 0, 48, 0
1, 66514, Note_on_c, 0, 63, 0
1, 66616, Note_on_c, 0, 63, 55
1, 66626, Note_on_c, 0, 41, 76
1, 66694, Note_on_c, 0, 63, 0
1, 66778, Note_on_c, 0, 63, 64
1, 66784, Note_on_c, 0, 41, 0
1, 66786, Note_on_c, 0, 42, 65
1, 66864, Note_on_c, 0, 63, 0
1, 66962, Note_on_c, 0, 63, 55
1, 66968, Note_on_c, 0, 41, 71
1, 66977, Note_on_c, 0, 42, 0
1, 67008, Note_on_c, 0, 41, 0
1, 67022, Note_on_c, 0, 63, 0
1, 67126, Note_on_c, 0, 51, 92
1, 67132, Note_on_c, 0, 63, 65
1, 67194, Note_on_c, 0, 63, 0
1, 67220, Note_on_c, 0, 51, 0
1, 67306, Note_on_c, 0, 45, 70
1, 67309, Note_on_c, 0, 63, 62
1, 67380, Note_on_c, 0, 63, 0
1, 67454, Note_on_c, 0, 45, 0
1, 67457, Note_on_c, 0, 63, 64
1, 67466, Note_on_c, 0, 46, 65
1, 67566, Note_on_c, 0, 63, 0
1, 67636, Note_on_c, 0, 46, 0
1, 67648, Note_on_c, 0, 63, 58
1, 67648, Note_on_c, 0, 45, 59
1, 67698, Note_on_c, 0, 45, 0
1, 67708, Note_on_c, 0, 63, 0
1, 67806, Note_on_c, 0, 63, 69
1, 67812, Note_on_c, 0, 54, 99
1, 67902, Note_on_c, 0, 63, 0
1, 67910, Note_on_c, 0, 54, 0
1, 67988, Note_on_c, 0, 48, 67
1, 67991, Note_on_c, 0, 63, 63
1, 68094, Note_on_c, 0, 63, 0
1, 68132, Note_on_c, 0, 48, 0
1, 68156, Note_on_c, 0, 49, 75
1, 68168, Note_on_c, 0, 63, 65
1, 68240, Note_on_c, 0, 63, 0
1, 68266, Note_on_c, 0, 49, 0
1, 68328, Note_on_c, 0, 48, 63
1, 68331, Note_on_c, 0, 63, 62
1, 68374, Note_on_c, 0, 48, 0
1, 68394, Note_on_c, 0, 63, 0
1, 68496, Note_on_c, 0, 63, 78
1, 68496, Note_on_c, 0, 57, 95
1, 68592, Note_on_c, 0, 63, 0
1, 68594, Note_on_c, 0, 57, 0
1, 68674, Note_on_c, 0, 63, 67
1, 68684, Note_on_c, 0, 53, 95
1, 68760, Note_on_c, 0, 63, 0
1, 68816, Note_on_c, 0, 53, 0
1, 68834, Note_on_c, 0, 63, 67
1, 68844, Note_on_c, 0, 54, 74
1, 68912, Note_on_c, 0, 54, 0
1, 68917, Note_on_c, 0, 63, 0
1, 69004, Note_on_c, 0, 63, 59
1, 69010, Note_on_c, 0, 53, 79
1, 69056, Note_on_c, 0, 53, 0
1, 69068, Note_on_c, 0, 63, 0
1, 69170, Note_on_c, 0, 63, 66
1, 69182, Note_on_c, 0, 57, 65
1, 69226, Note_on_c, 0, 57, 0
1, 69226, Note_on_c, 0, 63, 0
1, 69350, Note_on_c, 0, 58, 70
1, 69353, Note_on_c, 0, 62, 82
1, 69412, Note_on_c, 0, 62, 0
1, 69414, Note_on_c, 0, 70, 66
1, 69424, Note_on_c, 0, 58, 0
1, 69470, Note_on_c, 0, 70, 0
1, 69518, Note_on_c, 0, 46, 44
1, 69520, Note_on_c, 0, 62, 51
1, 69572, Note_on_c, 0, 62, 0
1, 69574, Note_on_c, 0, 46, 0
1, 69586, Note_on_c, 0, 70, 57
1, 69644, Note_on_c, 0, 70, 0
1, 69672, Note_on_c, 0, 58, 55
1, 69686, Note_on_c, 0, 63, 70
1, 69734, Note_on_c, 0, 58, 0
1, 69737, Note_on_c, 0, 63, 0
1, 69774, Note_on_c, 0, 69, 42
1, 69834, Note_on_c, 0, 69, 0
1, 69837, Note_on_c, 0, 46, 55
1, 69856, Note_on_c, 0, 63, 53
1, 69890, Note_on_c, 0, 46, 0
1, 69904, Note_on_c, 0, 63, 0
1, 69910, Note_on_c, 0, 69, 43
1, 69954, Note_on_c, 0, 69, 0
1, 70016, Note_on_c, 0, 69, 61
1, 70016, Note_on_c, 0, 58, 61
1, 70080, Note_on_c, 0, 58, 0
1, 70094, Note_on_c, 0, 75, 68
1, 70130, Note_on_c, 0, 69, 0
1, 70156, Note_on_c, 0, 75, 0
1, 70182, Note_on_c, 0, 46, 47
1, 70190, Note_on_c, 0, 69, 58
1, 70236, Note_on_c, 0, 46, 0
1, 70266, Note_on_c, 0, 75, 52
1, 70270, Note_on_c, 0, 69, 0
1, 70322, Note_on_c, 0, 75, 0
1, 70342, Note_on_c, 0, 58, 54
1, 70354, Note_on_c, 0, 70, 62
1, 70404, Note_on_c, 0, 58, 0
1, 70407, Note_on_c, 0, 70, 0
1, 70440, Note_on_c, 0, 74, 78
1, 70484, Note_on_c, 0, 74, 0
1, 70510, Note_on_c, 0, 46, 49
1, 70528, Note_on_c, 0, 70, 51
1, 70562, Note_on_c, 0, 46, 0
1, 70580, Note_on_c, 0, 70, 0
1, 70596, Note_on_c, 0, 74, 55
1, 70642, Note_on_c, 0, 74, 0
1, 70692, Note_on_c, 0, 74, 98
1, 70700, Note_on_c, 0, 58, 55
1, 70734, Note_on_c, 0, 74, 0
1, 70760, Note_on_c, 0, 58, 0
1, 70762, Note_on_c, 0, 82, 75
1, 70812, Note_on_c, 0, 82, 0
1, 70864, Note_on_c, 0, 46, 52
1, 70866, Note_on_c, 0, 74, 76
1, 70904, Note_on_c, 0, 74, 0
1, 70916, Note_on_c, 0, 46, 0
1, 70950, Note_on_c, 0, 82, 61
1, 70994, Note_on_c, 0, 82, 0
1, 71016, Note_on_c, 0, 75, 82
1, 71022, Note_on_c, 0, 58, 57
1, 71070, Note_on_c, 0, 75, 0
1, 71078, Note_on_c, 0, 58, 0
1, 71098, Note_on_c, 0, 81, 69
1, 71146, Note_on_c, 0, 81, 0
1, 71174, Note_on_c, 0, 46, 66
1, 71188, Note_on_c, 0, 75, 67
1, 71222, Note_on_c, 0, 46, 0
1, 71232, Note_on_c, 0, 75, 0
1, 71272, Note_on_c, 0, 81, 61
1, 71316, Note_on_c, 0, 81, 0
1, 71346, Note_on_c, 0, 58, 73
1, 71364, Note_on_c, 0, 81, 97
1, 71404, Note_on_c, 0, 81, 0
1, 71407, Note_on_c, 0, 58, 0
1, 71446, Note_on_c, 0, 87, 66
1, 71488, Note_on_c, 0, 87, 0
1, 71512, Note_on_c, 0, 81, 74
1, 71518, Note_on_c, 0, 46, 67
1, 71556, Note_on_c, 0, 81, 0
1, 71564, Note_on_c, 0, 46, 0
1, 71602, Note_on_c, 0, 87, 58
1, 71660, Note_on_c, 0, 87, 0
1, 71668, Note_on_c, 0, 58, 84
1, 71670, Note_on_c, 0, 82, 78
1, 71752, Note_on_c, 0, 86, 78
1, 71762, Note_on_c, 0, 82, 0
1, 71796, Note_on_c, 0, 58, 0
1, 71804, Note_on_c, 0, 86, 0
1, 71838, Note_on_c, 0, 82, 67
1, 71906, Note_on_c, 0, 86, 69
1, 71922, Control_c, 0, 64, 127
1, 71934, Note_on_c, 0, 82, 0
1, 71950, Note_on_c, 0, 86, 0
1, 71998, Note_on_c, 0, 77, 105
1, 71998, Note_on_c, 0, 86, 96
1, 72001, Note_on_c, 0, 89, 106
1, 72001, Note_on_c, 0, 62, 101
1, 72001, Note_on_c, 0, 82, 81
1, 72008, Note_on_c, 0, 50, 92
1, 72010, Note_on_c, 0, 58, 79
1, 72012, Note_on_c, 0, 53, 100
1, 72046, Control_c, 0, 64, 0
1, 72062, Note_on_c, 0, 50, 0
1, 72068, Note_on_c, 0, 53, 0
1, 72072, Note_on_c, 0, 77, 0
1, 72078, Note_on_c, 0, 62, 0
1, 72114, Note_on_c, 0, 86, 0
1, 72118, Note_on_c, 0, 82, 0
1, 72122, Note_on_c, 0, 58, 0
1, 72124, Note_on_c, 0, 89, 0
1, 72352, Note_on_c, 0, 79, 100
1, 72354, Note_on_c, 0, 87, 94
1, 72357, Note_on_c, 0, 60, 89
1, 72357, Note_on_c, 0, 84, 101
1, 72357, Note_on_c, 0, 51, 85
1, 72368, Note_on_c, 0, 55, 83
1, 72410, Note_on_c, 0, 55, 0
1, 72440, Note_on_c, 0, 60, 0
1, 72452, Note_on_c, 0, 51, 0
1, 72460, Note_on_c, 0, 79, 0
1, 72470, Note_on_c, 0, 84, 0
1, 72472, Note_on_c, 0, 87, 0
1, 72730, Note_on_c, 0, 86, 101
1, 72730, Note_on_c, 0, 77, 102
1, 72733, Note_on_c, 0, 82, 92
1, 72737, Note_on_c, 0, 62, 94
1, 72742, Note_on_c, 0, 53, 105
1, 72744, Note_on_c, 0, 58, 73
1, 72782, Note_on_c, 0, 53, 0
1, 72788, Note_on_c, 0, 62, 0
1, 72804, Note_on_c, 0, 58, 0
1, 72810, Note_on_c, 0, 77, 0
1, 72812, Note_on_c, 0, 86, 0
1, 72844, Control_c, 0, 64, 127
1, 72858, Note_on_c, 0, 82, 0
1, 72876, Control_c, 0, 64, 0
1, 73092, Note_on_c, 0, 81, 100
1, 73094, Note_on_c, 0, 60, 94
1, 73098, Note_on_c, 0, 72, 93
1, 73098, Note_on_c, 0, 75, 88
1, 73098, Note_on_c, 0, 53, 105
1, 73116, Note_on_c, 0, 57, 64
1, 73130, Note_on_c, 0, 53, 0
1, 73133, Note_on_c, 0, 60, 0
1, 73162, Note_on_c, 0, 57, 0
1, 73176, Note_on_c, 0, 72, 0
1, 73182, Control_c, 0, 64, 127
1, 73204, Note_on_c, 0, 75, 0
1, 73214, Note_on_c, 0, 81, 0
1, 73214, Control_c, 0, 64, 0
1, 73458, Note_on_c, 0, 82, 96
1, 73464, Note_on_c, 0, 74, 84
1, 73470, Note_on_c, 0, 77, 76
1, 73478, Note_on_c, 0, 58, 70
1, 73520, Control_c, 0, 64, 127
1, 73548, Note_on_c, 0, 58, 0
1, 73560, Note_on_c, 0, 57, 62
1, 73622, Note_on_c, 0, 57, 0
1, 73668, Note_on_c, 0, 58, 52
1, 73674, Note_on_c, 0, 77, 0
1, 73700, Note_on_c, 0, 82, 0
1, 73722, Note_on_c, 0, 58, 0
1, 73744, Note_on_c, 0, 57, 50
1, 73766, Control_c, 0, 64, 0
1, 73770, Note_on_c, 0, 74, 0
1, 73822, Note_on_c, 0, 57, 0
1, 73828, Note_on_c, 0, 58, 37
1, 73900, Note_on_c, 0, 58, 0
1, 73936, Note_on_c, 0, 57, 31
1, 73980, Note_on_c, 0, 79, 79
1, 73980, Note_on_c, 0, 75, 65
1, 74004, Note_on_c, 0, 57, 0
1, 74012, Note_on_c, 0, 58, 41
1, 74062, Note_on_c, 0, 75, 0
1, 74100, Note_on_c, 0, 58, 0
1, 74130, Note_on_c, 0, 57, 35
1, 74160, Note_on_c, 0, 77, 87
1, 74160, Note_on_c, 0, 74, 83
1, 74182, Note_on_c, 0, 79, 0
1, 74190, Note_on_c, 0, 58, 42
1, 74193, Note_on_c, 0, 57, 0
1, 74284, Note_on_c, 0, 58, 0
1, 74300, Note_on_c, 0, 57, 38
1, 74310, Note_on_c, 0, 74, 0
1, 74332, Note_on_c, 0, 72, 67
1, 74342, Note_on_c, 0, 75, 65
1, 74362, Note_on_c, 0, 77, 0
1, 74365, Note_on_c, 0, 58, 43
1, 74370, Note_on_c, 0, 57, 0
1, 74384, Note_on_c, 0, 75, 0
1, 74460, Note_on_c, 0, 57, 51
1, 74468, Note_on_c, 0, 58, 0
1, 74506, Note_on_c, 0, 70, 66
1, 74516, Note_on_c, 0, 74, 72
1, 74528, Note_on_c, 0, 57, 0
1, 74530, Note_on_c, 0, 58, 59
1, 74586, Note_on_c, 0, 72, 0
1, 74606, Note_on_c, 0, 70, 0
1, 74626, Note_on_c, 0, 57, 51
1, 74636, Note_on_c, 0, 58, 0
1, 74674, Note_on_c, 0, 72, 54
1, 74686, Note_on_c, 0, 69, 59
1, 74689, Note_on_c, 0, 74, 0
1, 74698, Note_on_c, 0, 58, 60
1, 74720, Note_on_c, 0, 57, 0
1, 74782, Note_on_c, 0, 57, 71
1, 74798, Note_on_c, 0, 58, 0
1, 74818, Note_on_c, 0, 72, 0
1, 74826, Note_on_c, 0, 69, 0
1, 74834, Note_on_c, 0, 57, 0
1, 74858, Note_on_c, 0, 58, 62
1, 74868, Note_on_c, 0, 70, 66
1, 74952, Note_on_c, 0, 69, 59
1, 74972, Note_on_c, 0, 70, 0
1, 75018, Note_on_c, 0, 69, 0
1, 75030, Note_on_c, 0, 70, 65
1, 75058, Control_c, 0, 64, 127
1, 75110, Note_on_c, 0, 69, 45
1, 75116, Note_on_c, 0, 70, 0
1, 75134, Control_c, 0, 64, 0
1, 75162, Note_on_c, 0, 58, 0
1, 75184, Note_on_c, 0, 69, 0
1, 75190, Note_on_c, 0, 70, 55
1, 75258, Note_on_c, 0, 69, 44
1, 75261, Note_on_c, 0, 70, 0
1, 75358, Note_on_c, 0, 69, 0
1, 75358, Note_on_c, 0, 70, 59
1, 75382, Note_on_c, 0, 55, 78
1, 75385, Note_on_c, 0, 51, 66
1, 75434, Note_on_c, 0, 69, 43
1, 75442, Note_on_c, 0, 55, 0
1, 75454, Note_on_c, 0, 70, 0
1, 75530, Note_on_c, 0, 70, 53
1, 75533, Note_on_c, 0, 51, 0
1, 75540, Note_on_c, 0, 69, 0
1, 75546, Note_on_c, 0, 53, 101
1, 75556, Note_on_c, 0, 50, 73
1, 75580, Control_c, 0, 64, 127
1, 75612, Note_on_c, 0, 69, 55
1, 75622, Note_on_c, 0, 53, 0
1, 75640, Note_on_c, 0, 70, 0
1, 75686, Note_on_c, 0, 50, 0
1, 75686, Control_c, 0, 64, 0
1, 75704, Note_on_c, 0, 70, 59
1, 75716, Note_on_c, 0, 69, 0
1, 75722, Note_on_c, 0, 55, 74
1, 75728, Note_on_c, 0, 51, 60
1, 75772, Note_on_c, 0, 55, 0
1, 75794, Note_on_c, 0, 69, 45
1, 75816, Note_on_c, 0, 70, 0
1, 75856, Note_on_c, 0, 51, 0
1, 75890, Note_on_c, 0, 50, 60
1, 75890, Note_on_c, 0, 70, 50
1, 75890, Note_on_c, 0, 53, 83
1, 75896, Note_on_c, 0, 69, 0
1, 75962, Note_on_c, 0, 50, 0
1, 75970, Note_on_c, 0, 69, 49
1, 75973, Note_on_c, 0, 70, 0
1, 75973, Note_on_c, 0, 53, 0
1, 76052, Note_on_c, 0, 69, 0
1, 76066, Note_on_c, 0, 51, 61
1, 76072, Note_on_c, 0, 70, 54
1, 76076, Note_on_c, 0, 48, 37
1, 76158, Note_on_c, 0, 69, 38
1, 76164, Note_on_c, 0, 70, 0
1, 76168, Note_on_c, 0, 48, 0
1, 76178, Note_on_c, 0, 51, 0
1, 76246, Note_on_c, 0, 70, 84
1, 76246, Note_on_c, 0, 50, 84
1, 76246, Note_on_c, 0, 46, 62
1, 76274, Note_on_c, 0, 69, 0
1, 76290, Note_on_c, 0, 50, 0
1, 76296, Note_on_c, 0, 46, 0
1, 76328, Note_on_c, 0, 70, 0
1, 76642, Note_on_c, 0, 82, 95
1, 76648, Note_on_c, 0, 74, 91
1, 76652, Note_on_c, 0, 58, 73
1, 76652, Note_on_c, 0, 77, 90
1, 76655, Note_on_c, 0, 46, 73
1, 76670, Note_on_c, 0, 50, 81
1, 76676, Note_on_c, 0, 53, 94
1, 76764, Note_on_c, 0, 58, 0
1, 76767, Note_on_c, 0, 46, 0
1, 76767, Note_on_c, 0, 74, 0
1, 76770, Note_on_c, 0, 50, 0
1, 76772, Note_on_c, 0, 53, 0
1, 76778, Control_c, 0, 64, 127
1, 76786, Note_on_c, 0, 77, 0
1, 76810, Note_on_c, 0, 82, 0
1, 77008, Control_c, 0, 64, 0
1, 78600, Note_on_c, 0, 67, 37
1, 78660, Note_on_c, 0, 67, 0
1, 78740, Note_on_c, 0, 67, 46
1, 78818, Note_on_c, 0, 67, 0
1, 78904, Note_on_c, 0, 67, 50
1, 78970, Note_on_c, 0, 67, 0
1, 79078, Note_on_c, 0, 67, 55
1, 79132, Note_on_c, 0, 67, 0
1, 79248, Note_on_c, 0, 67, 52
1, 79296, Note_on_c, 0, 67, 0
1, 79444, Note_on_c, 0, 39, 33
1, 79446, Note_on_c, 0, 67, 59
1, 79624, Note_on_c, 0, 51, 40
1, 79686, Note_on_c, 0, 51, 0
1, 79808, Note_on_c, 0, 70, 43
1, 79832, Note_on_c, 0, 51, 43
1, 79844, Note_on_c, 0, 67, 0
1, 79890, Note_on_c, 0, 51, 0
1, 79972, Note_on_c, 0, 63, 63
1, 79984, Note_on_c, 0, 51, 38
1, 79998, Note_on_c, 0, 70, 0
1, 80052, Note_on_c, 0, 51, 0
1, 80148, Note_on_c, 0, 62, 70
1, 80154, Note_on_c, 0, 63, 0
1, 80168, Note_on_c, 0, 51, 44
1, 80230, Note_on_c, 0, 51, 0
1, 80320, Note_on_c, 0, 62, 0
1, 80323, Note_on_c, 0, 65, 70
1, 80356, Note_on_c, 0, 51, 34
1, 80422, Note_on_c, 0, 51, 0
1, 80486, Note_on_c, 0, 68, 70
1, 80512, Note_on_c, 0, 65, 0
1, 80516, Note_on_c, 0, 51, 43
1, 80604, Note_on_c, 0, 51, 0
1, 80652, Note_on_c, 0, 39, 0
1, 80657, Note_on_c, 0, 68, 0
1, 80670, Note_on_c, 0, 62, 77
1, 80702, Note_on_c, 0, 51, 34
1, 80772, Note_on_c, 0, 51, 0
1, 80840, Note_on_c, 0, 63, 77
1, 80846, Note_on_c, 0, 62, 0
1, 80851, Note_on_c, 0, 39, 33
1, 81026, Note_on_c, 0, 67, 56
1, 81034, Note_on_c, 0, 63, 0
1, 81037, Note_on_c, 0, 51, 42
1, 81096, Note_on_c, 0, 51, 0
1, 81180, Note_on_c, 0, 67, 0
1, 81200, Note_on_c, 0, 51, 36
1, 81200, Note_on_c, 0, 58, 46
1, 81258, Note_on_c, 0, 58, 0
1, 81258, Note_on_c, 0, 51, 0
1, 81360, Note_on_c, 0, 58, 25
1, 81384, Note_on_c, 0, 51, 31
1, 81448, Note_on_c, 0, 51, 0
1, 81532, Note_on_c, 0, 56, 59
1, 81552, Note_on_c, 0, 51, 36
1, 81574, Note_on_c, 0, 58, 0
1, 81616, Note_on_c, 0, 51, 0
1, 81726, Note_on_c, 0, 51, 35
1, 81729, Note_on_c, 0, 62, 55
1, 81758, Note_on_c, 0, 56, 0
1, 81792, Note_on_c, 0, 51, 0
1, 81824, Note_on_c, 0, 62, 0
1, 81888, Note_on_c, 0, 65, 52
1, 81904, Note_on_c, 0, 51, 37
1, 81968, Note_on_c, 0, 51, 0
1, 82054, Note_on_c, 0, 65, 0
1, 82054, Note_on_c, 0, 62, 62
1, 82063, Note_on_c, 0, 39, 0
1, 82063, Note_on_c, 0, 51, 32
1, 82126, Note_on_c, 0, 51, 0
1, 82222, Note_on_c, 0, 62, 0
1, 82238, Note_on_c, 0, 63, 60
1, 82242, Note_on_c, 0, 39, 38
1, 82408, Note_on_c, 0, 63, 0
1, 82416, Note_on_c, 0, 67, 50
1, 82420, Note_on_c, 0, 51, 41
1, 82482, Note_on_c, 0, 51, 0
1, 82574, Note_on_c, 0, 67, 0
1, 82582, Note_on_c, 0, 51, 32
1, 82590, Note_on_c, 0, 58, 28
1, 82644, Note_on_c, 0, 51, 0
1, 82660, Note_on_c, 0, 58, 0
1, 82746, Note_on_c, 0, 58, 23
1, 82772, Note_on_c, 0, 51, 22
1, 82842, Note_on_c, 0, 51, 0
1, 82940, Note_on_c, 0, 56, 45
1, 82952, Note_on_c, 0, 51, 28
1, 82974, Note_on_c, 0, 58, 0
1, 83024, Note_on_c, 0, 51, 0
1, 83112, Note_on_c, 0, 56, 0
1, 83146, Note_on_c, 0, 62, 37
1, 83162, Note_on_c, 0, 51, 22
1, 83234, Note_on_c, 0, 62, 0
1, 83236, Note_on_c, 0, 51, 0
1, 83350, Note_on_c, 0, 65, 29
1, 83356, Note_on_c, 0, 51, 18
1, 83436, Note_on_c, 0, 51, 0
1, 83524, Note_on_c, 0, 65, 0
1, 83566, Note_on_c, 0, 62, 33
1, 83592, Note_on_c, 0, 39, 0
1, 83598, Note_on_c, 0, 51, 16
1, 83686, Note_on_c, 0, 51, 0
1, 83850, Note_on_c, 0, 63, 32
1, 83870, Note_on_c, 0, 62, 0
1, 83900, Note_on_c, 0, 39, 22
1, 84554, Note_on_c, 0, 63, 0
1, 84584, Note_on_c, 0, 39, 0
1, 84896, Note_on_c, 0, 68, 33
1, 84964, Note_on_c, 0, 68, 0
1, 85064, Note_on_c, 0, 68, 31
1, 85140, Note_on_c, 0, 68, 0
1, 85220, Note_on_c, 0, 68, 42
1, 85290, Note_on_c, 0, 68, 0
1, 85396, Note_on_c, 0, 68, 47
1, 85452, Note_on_c, 0, 68, 0
1, 85560, Note_on_c, 0, 68, 51
1, 85616, Note_on_c, 0, 68, 0
1, 85774, Note_on_c, 0, 68, 44
1, 85782, Note_on_c, 0, 41, 38
1, 85828, Control_c, 0, 64, 127
1, 85990, Note_on_c, 0, 53, 44
1, 86050, Note_on_c, 0, 53, 0
1, 86156, Note_on_c, 0, 53, 51
1, 86180, Note_on_c, 0, 72, 39
1, 86212, Control_c, 0, 64, 0
1, 86214, Note_on_c, 0, 53, 0
1, 86232, Note_on_c, 0, 68, 0
1, 86344, Note_on_c, 0, 65, 60
1, 86347, Note_on_c, 0, 53, 59
1, 86366, Note_on_c, 0, 72, 0
1, 86404, Note_on_c, 0, 53, 0
1, 86516, Note_on_c, 0, 53, 54
1, 86524, Note_on_c, 0, 64, 65
1, 86558, Note_on_c, 0, 65, 0
1, 86574, Note_on_c, 0, 53, 0
1, 86684, Note_on_c, 0, 67, 70
1, 86702, Note_on_c, 0, 53, 42
1, 86750, Note_on_c, 0, 64, 0
1, 86764, Note_on_c, 0, 53, 0
1, 86844, Note_on_c, 0, 70, 62
1, 86868, Note_on_c, 0, 53, 61
1, 86870, Note_on_c, 0, 67, 0
1, 86924, Note_on_c, 0, 53, 0
1, 87014, Note_on_c, 0, 64, 88
1, 87036, Note_on_c, 0, 53, 59
1, 87052, Note_on_c, 0, 70, 0
1, 87052, Note_on_c, 0, 41, 0
1, 87094, Note_on_c, 0, 53, 0
1, 87190, Note_on_c, 0, 65, 85
1, 87232, Note_on_c, 0, 41, 53
1, 87250, Note_on_c, 0, 64, 0
1, 87366, Note_on_c, 0, 68, 62
1, 87390, Note_on_c, 0, 53, 63
1, 87400, Note_on_c, 0, 65, 0
1, 87440, Note_on_c, 0, 53, 0
1, 87542, Note_on_c, 0, 60, 73
1, 87552, Note_on_c, 0, 53, 55
1, 87570, Note_on_c, 0, 68, 0
1, 87604, Note_on_c, 0, 53, 0
1, 87610, Note_on_c, 0, 60, 0
1, 87708, Note_on_c, 0, 60, 67
1, 87716, Note_on_c, 0, 53, 62
1, 87770, Note_on_c, 0, 53, 0
1, 87884, Note_on_c, 0, 58, 55
1, 87892, Note_on_c, 0, 53, 58
1, 87942, Note_on_c, 0, 53, 0
1, 87968, Note_on_c, 0, 60, 0
1, 88066, Note_on_c, 0, 53, 53
1, 88082, Note_on_c, 0, 64, 51
1, 88120, Note_on_c, 0, 53, 0
1, 88140, Note_on_c, 0, 58, 0
1, 88222, Note_on_c, 0, 64, 0
1, 88232, Note_on_c, 0, 67, 50
1, 88234, Note_on_c, 0, 53, 49
1, 88290, Note_on_c, 0, 53, 0
1, 88400, Note_on_c, 0, 64, 69
1, 88410, Note_on_c, 0, 53, 43
1, 88424, Note_on_c, 0, 41, 0
1, 88427, Note_on_c, 0, 67, 0
1, 88472, Note_on_c, 0, 53, 0
1, 88575, Note_on_c, 0, 65, 66
1, 88614, Note_on_c, 0, 41, 47
1, 88617, Note_on_c, 0, 64, 0
1, 88732, Note_on_c, 0, 68, 59
1, 88766, Note_on_c, 0, 65, 0
1, 88774, Note_on_c, 0, 53, 54
1, 88830, Note_on_c, 0, 53, 0
1, 88916, Note_on_c, 0, 60, 51
1, 88922, Note_on_c, 0, 53, 62
1, 88948, Note_on_c, 0, 68, 0
1, 88978, Note_on_c, 0, 53, 0
1, 88984, Note_on_c, 0, 60, 0
1, 89070, Note_on_c, 0, 60, 51
1, 89094, Note_on_c, 0, 53, 46
1, 89150, Note_on_c, 0, 53, 0
1, 89266, Note_on_c, 0, 58, 45
1, 89284, Note_on_c, 0, 53, 35
1, 89308, Note_on_c, 0, 60, 0
1, 89348, Note_on_c, 0, 53, 0
1, 89460, Note_on_c, 0, 53, 37
1, 89480, Note_on_c, 0, 64, 44
1, 89524, Note_on_c, 0, 53, 0
1, 89532, Note_on_c, 0, 58, 0
1, 89644, Note_on_c, 0, 64, 0
1, 89666, Note_on_c, 0, 67, 37
1, 89700, Note_on_c, 0, 53, 15
1, 89748, Note_on_c, 0, 53, 0
1, 89896, Note_on_c, 0, 67, 0
1, 89908, Note_on_c, 0, 53, 38
1, 89911, Note_on_c, 0, 64, 39
1, 89982, Note_on_c, 0, 41, 0
1, 90012, Note_on_c, 0, 53, 0
1, 90236, Note_on_c, 0, 65, 27
1, 90256, Note_on_c, 0, 64, 0
1, 90276, Note_on_c, 0, 41, 27
1, 90544, Control_c, 0, 64, 127
1, 90626, Note_on_c, 0, 41, 0
1, 90728, Note_on_c, 0, 65, 0
1, 90882, Control_c, 0, 64, 0
1, 91490, Note_on_c, 0, 46, 95
1, 91496, Note_on_c, 0, 34, 100
1, 91558, Control_c, 0, 64, 127
1, 91574, Note_on_c, 0, 46, 0
1, 91588, Note_on_c, 0, 34, 0
1, 91654, Note_on_c, 0, 46, 87
1, 91658, Note_on_c, 0, 34, 95
1, 91736, Note_on_c, 0, 34, 0
1, 91754, Note_on_c, 0, 46, 0
1, 91824, Note_on_c, 0, 46, 92
1, 91828, Note_on_c, 0, 34, 93
1, 91908, Note_on_c, 0, 34, 0
1, 91914, Note_on_c, 0, 46, 0
1, 91928, Control_c, 0, 64, 0
1, 91990, Note_on_c, 0, 46, 92
1, 91993, Note_on_c, 0, 34, 95
1, 92072, Note_on_c, 0, 34, 0
1, 92078, Note_on_c, 0, 46, 0
1, 92150, Note_on_c, 0, 46, 90
1, 92158, Note_on_c, 0, 34, 92
1, 92161, Note_on_c, 0, 84, 99
1, 92234, Control_c, 0, 64, 127
1, 92236, Note_on_c, 0, 82, 83
1, 92244, Note_on_c, 0, 46, 0
1, 92250, Note_on_c, 0, 34, 0
1, 92328, Note_on_c, 0, 80, 90
1, 92332, Note_on_c, 0, 46, 101
1, 92332, Note_on_c, 0, 34, 94
1, 92344, Note_on_c, 0, 84, 0
1, 92408, Note_on_c, 0, 34, 0
1, 92411, Note_on_c, 0, 82, 0
1, 92424, Note_on_c, 0, 46, 0
1, 92427, Note_on_c, 0, 79, 98
1, 92484, Note_on_c, 0, 80, 0
1, 92516, Note_on_c, 0, 79, 0
1, 92524, Note_on_c, 0, 77, 75
1, 92618, Note_on_c, 0, 75, 77
1, 92658, Note_on_c, 0, 77, 0
1, 92714, Note_on_c, 0, 74, 85
1, 92722, Note_on_c, 0, 53, 101
1, 92742, Note_on_c, 0, 75, 0
1, 92798, Note_on_c, 0, 75, 82
1, 92854, Note_on_c, 0, 74, 0
1, 92902, Note_on_c, 0, 53, 0
1, 92904, Note_on_c, 0, 77, 80
1, 92906, Note_on_c, 0, 44, 81
1, 92946, Note_on_c, 0, 75, 0
1, 92992, Note_on_c, 0, 74, 79
1, 93006, Note_on_c, 0, 77, 0
1, 93024, Note_on_c, 0, 44, 0
1, 93048, Control_c, 0, 64, 0
1, 93074, Note_on_c, 0, 43, 87
1, 93082, Note_on_c, 0, 74, 0
1, 93085, Note_on_c, 0, 75, 84
1, 93156, Note_on_c, 0, 79, 85
1, 93180, Note_on_c, 0, 75, 0
1, 93254, Note_on_c, 0, 77, 76
1, 93270, Note_on_c, 0, 46, 61
1, 93282, Note_on_c, 0, 79, 0
1, 93342, Note_on_c, 0, 75, 70
1, 93362, Note_on_c, 0, 77, 0
1, 93372, Note_on_c, 0, 43, 0
1, 93426, Note_on_c, 0, 74, 82
1, 93446, Note_on_c, 0, 51, 78
1, 93459, Note_on_c, 0, 75, 0
1, 93474, Note_on_c, 0, 74, 0
1, 93502, Note_on_c, 0, 46, 0
1, 93510, Note_on_c, 0, 72, 65
1, 93604, Note_on_c, 0, 70, 72
1, 93622, Note_on_c, 0, 43, 83
1, 93624, Note_on_c, 0, 72, 0
1, 93644, Note_on_c, 0, 51, 0
1, 93670, Note_on_c, 0, 70, 0
1, 93673, Note_on_c, 0, 75, 73
1, 93772, Note_on_c, 0, 75, 0
1, 93772, Note_on_c, 0, 44, 86
1, 93775, Note_on_c, 0, 74, 90
1, 93812, Note_on_c, 0, 43, 0
1, 93832, Control_c, 0, 64, 127
1, 93854, Note_on_c, 0, 75, 71
1, 93892, Note_on_c, 0, 74, 0
1, 93948, Note_on_c, 0, 75, 0
1, 93952, Note_on_c, 0, 77, 76
1, 93952, Note_on_c, 0, 50, 76
1, 94002, Control_c, 0, 64, 0
1, 94032, Note_on_c, 0, 79, 95
1, 94066, Note_on_c, 0, 77, 0
1, 94126, Note_on_c, 0, 53, 100
1, 94130, Note_on_c, 0, 80, 86
1, 94150, Note_on_c, 0, 79, 0
1, 94178, Note_on_c, 0, 50, 0
1, 94192, Note_on_c, 0, 44, 0
1, 94212, Note_on_c, 0, 77, 81
1, 94214, Control_c, 0, 64, 127
1, 94218, Note_on_c, 0, 80, 0
1, 94292, Note_on_c, 0, 44, 66
1, 94310, Note_on_c, 0, 75, 73
1, 94324, Note_on_c, 0, 77, 0
1, 94356, Note_on_c, 0, 53, 0
1, 94386, Note_on_c, 0, 74, 88
1, 94406, Note_on_c, 0, 75, 0
1, 94416, Control_c, 0, 64, 0
1, 94458, Note_on_c, 0, 43, 81
1, 94474, Note_on_c, 0, 75, 78
1, 94480, Note_on_c, 0, 44, 0
1, 94518, Note_on_c, 0, 74, 0
1, 94558, Note_on_c, 0, 79, 89
1, 94580, Note_on_c, 0, 75, 0
1, 94644, Note_on_c, 0, 77, 86
1, 94656, Note_on_c, 0, 46, 56
1, 94682, Note_on_c, 0, 79, 0
1, 94718, Note_on_c, 0, 43, 0
1, 94724, Note_on_c, 0, 75, 69
1, 94764, Note_on_c, 0, 77, 0
1, 94786, Control_c, 0, 64, 127
1, 94812, Note_on_c, 0, 74, 75
1, 94840, Note_on_c, 0, 51, 70
1, 94854, Note_on_c, 0, 74, 0
1, 94854, Note_on_c, 0, 46, 0
1, 94854, Note_on_c, 0, 75, 0
1, 94894, Note_on_c, 0, 72, 68
1, 94954, Control_c, 0, 64, 0
1, 94986, Note_on_c, 0, 70, 71
1, 95000, Note_on_c, 0, 51, 0
1, 95018, Note_on_c, 0, 43, 72
1, 95028, Note_on_c, 0, 72, 0
1, 95058, Note_on_c, 0, 75, 73
1, 95060, Note_on_c, 0, 70, 0
1, 95134, Note_on_c, 0, 75, 0
1, 95154, Note_on_c, 0, 43, 0
1, 95157, Note_on_c, 0, 44, 64
1, 95157, Note_on_c, 0, 74, 91
1, 95238, Note_on_c, 0, 75, 78
1, 95258, Note_on_c, 0, 74, 0
1, 95316, Note_on_c, 0, 75, 0
1, 95328, Note_on_c, 0, 77, 79
1, 95340, Note_on_c, 0, 50, 63
1, 95370, Control_c, 0, 64, 127
1, 95406, Note_on_c, 0, 79, 95
1, 95430, Note_on_c, 0, 77, 0
1, 95442, Note_on_c, 0, 44, 0
1, 95462, Control_c, 0, 64, 0
1, 95494, Note_on_c, 0, 80, 92
1, 95512, Note_on_c, 0, 53, 95
1, 95515, Note_on_c, 0, 79, 0
1, 95524, Note_on_c, 0, 50, 0
1, 95580, Note_on_c, 0, 77, 81
1, 95586, Note_on_c, 0, 80, 0
1, 95646, Control_c, 0, 64, 127
1, 95668, Note_on_c, 0, 44, 75
1, 95678, Note_on_c, 0, 75, 81
1, 95698, Note_on_c, 0, 77, 0
1, 95706, Note_on_c, 0, 53, 0
1, 95766, Note_on_c, 0, 74, 88
1, 95796, Note_on_c, 0, 75, 0
1, 95800, Control_c, 0, 64, 0
1, 95832, Note_on_c, 0, 44, 0
1, 95852, Note_on_c, 0, 74, 0
1, 95852, Note_on_c, 0, 75, 78
1, 95864, Note_on_c, 0, 43, 55
1, 95954, Note_on_c, 0, 77, 76
1, 95998, Note_on_c, 0, 75, 0
1, 96026, Note_on_c, 0, 46, 59
1, 96030, Note_on_c, 0, 79, 90
1, 96056, Note_on_c, 0, 77, 0
1, 96110, Note_on_c, 0, 43, 0
1, 96122, Note_on_c, 0, 77, 75
1, 96156, Note_on_c, 0, 79, 0
1, 96198, Note_on_c, 0, 51, 62
1, 96206, Note_on_c, 0, 75, 72
1, 96216, Note_on_c, 0, 46, 0
1, 96228, Note_on_c, 0, 77, 0
1, 96276, Control_c, 0, 64, 127
1, 96296, Note_on_c, 0, 74, 82
1, 96322, Note_on_c, 0, 75, 0
1, 96344, Note_on_c, 0, 74, 0
1, 96358, Note_on_c, 0, 55, 83
1, 96361, Note_on_c, 0, 51, 0
1, 96386, Note_on_c, 0, 72, 57
1, 96430, Control_c, 0, 64, 0
1, 96454, Note_on_c, 0, 72, 0
1, 96462, Note_on_c, 0, 70, 69
1, 96508, Note_on_c, 0, 70, 0
1, 96522, Note_on_c, 0, 55, 0
1, 96536, Note_on_c, 0, 72, 66
1, 96552, Note_on_c, 0, 44, 82
1, 96628, Note_on_c, 0, 75, 81
1, 96640, Note_on_c, 0, 72, 0
1, 96716, Note_on_c, 0, 48, 73
1, 96720, Note_on_c, 0, 77, 85
1, 96746, Note_on_c, 0, 44, 0
1, 96756, Note_on_c, 0, 75, 0
1, 96808, Note_on_c, 0, 75, 82
1, 96858, Note_on_c, 0, 77, 0
1, 96890, Note_on_c, 0, 53, 91
1, 96906, Note_on_c, 0, 74, 88
1, 96936, Note_on_c, 0, 48, 0
1, 96950, Note_on_c, 0, 75, 0
1, 96990, Note_on_c, 0, 72, 63
1, 96998, Control_c, 0, 64, 127
1, 97000, Note_on_c, 0, 74, 0
1, 97044, Note_on_c, 0, 56, 73
1, 97047, Note_on_c, 0, 53, 0
1, 97068, Note_on_c, 0, 70, 77
1, 97102, Note_on_c, 0, 72, 0
1, 97162, Note_on_c, 0, 68, 72
1, 97198, Note_on_c, 0, 70, 0
1, 97198, Control_c, 0, 64, 0
1, 97220, Note_on_c, 0, 56, 0
1, 97238, Note_on_c, 0, 67, 87
1, 97240, Note_on_c, 0, 58, 83
1, 97268, Note_on_c, 0, 68, 0
1, 97292, Note_on_c, 0, 58, 0
1, 97314, Note_on_c, 0, 70, 70
1, 97318, Note_on_c, 0, 67, 0
1, 97396, Note_on_c, 0, 67, 70
1, 97412, Note_on_c, 0, 58, 65
1, 97424, Note_on_c, 0, 70, 0
1, 97454, Note_on_c, 0, 58, 0
1, 97462, Note_on_c, 0, 67, 0
1, 97492, Note_on_c, 0, 70, 52
1, 97558, Note_on_c, 0, 70, 0
1, 97580, Note_on_c, 0, 58, 55
1, 97583, Note_on_c, 0, 65, 60
1, 97634, Note_on_c, 0, 58, 0
1, 97640, Note_on_c, 0, 65, 0
1, 97670, Note_on_c, 0, 68, 75
1, 97718, Note_on_c, 0, 68, 0
1, 97742, Note_on_c, 0, 58, 62
1, 97774, Note_on_c, 0, 65, 40
1, 97784, Note_on_c, 0, 58, 0
1, 97826, Note_on_c, 0, 65, 0
1, 97838, Note_on_c, 0, 68, 60
1, 97898, Note_on_c, 0, 68, 0
1, 97912, Note_on_c, 0, 46, 83
1, 97926, Note_on_c, 0, 63, 69
1, 97960, Note_on_c, 0, 46, 0
1, 97978, Note_on_c, 0, 63, 0
1, 98004, Note_on_c, 0, 67, 64
1, 98064, Note_on_c, 0, 67, 0
1, 98094, Note_on_c, 0, 46, 75
1, 98096, Note_on_c, 0, 63, 46
1, 98148, Note_on_c, 0, 63, 0
1, 98148, Note_on_c, 0, 46, 0
1, 98154, Note_on_c, 0, 67, 55
1, 98212, Note_on_c, 0, 67, 0
1, 98260, Note_on_c, 0, 62, 54
1, 98272, Note_on_c, 0, 46, 67
1, 98308, Note_on_c, 0, 62, 0
1, 98324, Note_on_c, 0, 46, 0
1, 98334, Note_on_c, 0, 65, 65
1, 98398, Note_on_c, 0, 65, 0
1, 98438, Note_on_c, 0, 62, 45
1, 98446, Note_on_c, 0, 46, 65
1, 98490, Note_on_c, 0, 46, 0
1, 98504, Note_on_c, 0, 62, 0
1, 98534, Note_on_c, 0, 65, 51
1, 98612, Note_on_c, 0, 65, 0
1, 98618, Note_on_c, 0, 51, 71
1, 98630, Note_on_c, 0, 63, 66
1, 98662, Note_on_c, 0, 51, 0
1, 98672, Note_on_c, 0, 63, 0
1, 98686, Note_on_c, 0, 58, 33
1, 98764, Note_on_c, 0, 58, 0
1, 98786, Note_on_c, 0, 55, 62
1, 98794, Note_on_c, 0, 63, 44
1, 98840, Note_on_c, 0, 55, 0
1, 98856, Note_on_c, 0, 63, 0
1, 98888, Note_on_c, 0, 58, 35
1, 98952, Note_on_c, 0, 58, 0
1, 98960, Note_on_c, 0, 51, 44
1, 98990, Note_on_c, 0, 63, 44
1, 99018, Note_on_c, 0, 51, 0
1, 99044, Note_on_c, 0, 63, 0
1, 99068, Note_on_c, 0, 58, 31
1, 99148, Note_on_c, 0, 55, 45
1, 99150, Note_on_c, 0, 58, 0
1, 99202, Note_on_c, 0, 63, 43
1, 99206, Note_on_c, 0, 55, 0
1, 99254, Note_on_c, 0, 63, 0
1, 99294, Note_on_c, 0, 58, 30
1, 99366, Note_on_c, 0, 58, 0
1, 99400, Note_on_c, 0, 51, 21
1, 99408, Note_on_c, 0, 63, 55
1, 99472, Control_c, 0, 64, 127
1, 99590, Note_on_c, 0, 63, 0
1, 99642, Note_on_c, 0, 51, 0
1, 99780, Control_c, 0, 64, 0
1, 99966, Note_on_c, 0, 79, 57
1, 100174, Note_on_c, 0, 80, 72
1, 100210, Control_c, 0, 64, 127
1, 100218, Note_on_c, 0, 79, 0
1, 100346, Note_on_c, 0, 81, 81
1, 100382, Note_on_c, 0, 80, 0
1, 100456, Control_c, 0, 64, 0
1, 100530, Note_on_c, 0, 82, 75
1, 100568, Note_on_c, 0, 81, 0
1, 100714, Note_on_c, 0, 83, 100
1, 100764, Note_on_c, 0, 82, 0
1, 100944, Note_on_c, 0, 63, 29
1, 100950, Note_on_c, 0, 84, 76
1, 100978, Note_on_c, 0, 83, 0
1, 101222, Note_on_c, 0, 67, 18
1, 101224, Note_on_c, 0, 79, 47
1, 101280, Note_on_c, 0, 84, 0
1, 101362, Control_c, 0, 64, 127
1, 101416, Note_on_c, 0, 67, 0
1, 101418, Note_on_c, 0, 72, 29
1, 101428, Note_on_c, 0, 79, 0
1, 101528, Note_on_c, 0, 72, 0
1, 101572, Note_on_c, 0, 79, 87
1, 101602, Note_on_c, 0, 67, 29
1, 101631, Note_on_c, 0, 79, 0
1, 101704, Note_on_c, 0, 67, 0
1, 101760, Note_on_c, 0, 63, 0
1, 101774, Note_on_c, 0, 79, 85
1, 101790, Note_on_c, 0, 62, 34
1, 101884, Control_c, 0, 64, 0
1, 101952, Note_on_c, 0, 77, 75
1, 101966, Note_on_c, 0, 67, 31
1, 102002, Note_on_c, 0, 79, 0
1, 102038, Note_on_c, 0, 67, 0
1, 102136, Note_on_c, 0, 80, 69
1, 102146, Note_on_c, 0, 77, 0
1, 102146, Note_on_c, 0, 71, 46
1, 102278, Note_on_c, 0, 71, 0
1, 102284, Control_c, 0, 64, 127
1, 102298, Note_on_c, 0, 80, 0
1, 102304, Note_on_c, 0, 77, 67
1, 102344, Note_on_c, 0, 67, 36
1, 102376, Note_on_c, 0, 77, 0
1, 102410, Note_on_c, 0, 67, 0
1, 102456, Note_on_c, 0, 62, 0
1, 102498, Note_on_c, 0, 60, 41
1, 102514, Control_c, 0, 64, 0
1, 102524, Note_on_c, 0, 77, 53
1, 102740, Note_on_c, 0, 77, 0
1, 102748, Note_on_c, 0, 75, 37
1, 102752, Note_on_c, 0, 63, 25
1, 102834, Note_on_c, 0, 63, 0
1, 102884, Control_c, 0, 64, 127
1, 102914, Note_on_c, 0, 75, 0
1, 102934, Note_on_c, 0, 67, 25
1, 103058, Note_on_c, 0, 67, 0
1, 103134, Note_on_c, 0, 79, 62
1, 103140, Note_on_c, 0, 63, 32
1, 103228, Note_on_c, 0, 63, 0
1, 103288, Note_on_c, 0, 60, 0
1, 103326, Note_on_c, 0, 80, 67
1, 103326, Note_on_c, 0, 58, 34
1, 103348, Note_on_c, 0, 79, 0
1, 103360, Control_c, 0, 64, 0
1, 103512, Note_on_c, 0, 81, 75
1, 103526, Note_on_c, 0, 80, 0
1, 103550, Note_on_c, 0, 63, 36
1, 103604, Control_c, 0, 64, 127
1, 103616, Note_on_c, 0, 63, 0
1, 103678, Note_on_c, 0, 81, 0
1, 103688, Note_on_c, 0, 82, 76
1, 103691, Note_on_c, 0, 67, 33
1, 103792, Note_on_c, 0, 67, 0
1, 103850, Note_on_c, 0, 82, 0
1, 103860, Note_on_c, 0, 83, 107
1, 103866, Note_on_c, 0, 63, 55
1, 103946, Note_on_c, 0, 63, 0
1, 103956, Note_on_c, 0, 83, 0
1, 103966, Note_on_c, 0, 58, 0
1, 104006, Note_on_c, 0, 57, 40
1, 104028, Note_on_c, 0, 84, 100
1, 104132, Note_on_c, 0, 84, 0
1, 104174, Note_on_c, 0, 86, 91
1, 104208, Note_on_c, 0, 60, 38
1, 104238, Note_on_c, 0, 84, 76
1, 104288, Note_on_c, 0, 86, 0
1, 104306, Note_on_c, 0, 83, 105
1, 104340, Note_on_c, 0, 84, 0
1, 104374, Control_c, 0, 64, 0
1, 104396, Note_on_c, 0, 84, 100
1, 104432, Note_on_c, 0, 83, 0
1, 104452, Note_on_c, 0, 60, 0
1, 104452, Note_on_c, 0, 65, 35
1, 104506, Note_on_c, 0, 86, 92
1, 104530, Note_on_c, 0, 84, 0
1, 104620, Note_on_c, 0, 87, 87
1, 104650, Note_on_c, 0, 60, 35
1, 104652, Note_on_c, 0, 86, 0
1, 104680, Control_c, 0, 64, 127
1, 104694, Note_on_c, 0, 57, 0
1, 104714, Note_on_c, 0, 65, 0
1, 104788, Control_c, 0, 64, 0
1, 104859, Note_on_c, 0, 60, 0
1, 104868, Note_on_c, 0, 57, 44
1, 104976, Note_on_c, 0, 86, 59
1, 104988, Control_c, 0, 64, 127
1, 105008, Note_on_c, 0, 87, 0
1, 105066, Note_on_c, 0, 84, 62
1, 105076, Note_on_c, 0, 86, 0
1, 105082, Note_on_c, 0, 60, 27
1, 105168, Note_on_c, 0, 82, 69
1, 105192, Note_on_c, 0, 60, 0
1, 105196, Note_on_c, 0, 84, 0
1, 105276, Note_on_c, 0, 81, 68
1, 105286, Note_on_c, 0, 65, 29
1, 105308, Note_on_c, 0, 82, 0
1, 105368, Note_on_c, 0, 79, 69
1, 105378, Note_on_c, 0, 81, 0
1, 105432, Note_on_c, 0, 79, 0
1, 105444, Note_on_c, 0, 77, 57
1, 105488, Note_on_c, 0, 65, 0
1, 105498, Note_on_c, 0, 60, 22
1, 105518, Note_on_c, 0, 77, 0
1, 105540, Note_on_c, 0, 75, 68
1, 105596, Note_on_c, 0, 57, 0
1, 105602, Control_c, 0, 64, 0
1, 105620, Note_on_c, 0, 60, 0
1, 105658, Note_on_c, 0, 58, 32
1, 105660, Note_on_c, 0, 75, 0
1, 105668, Note_on_c, 0, 74, 82
1, 105714, Note_on_c, 0, 74, 0
1, 105772, Control_c, 0, 64, 127
1, 105962, Note_on_c, 0, 89, 92
1, 105985, Note_on_c, 0, 62, 47
1, 106182, Note_on_c, 0, 62, 0
1, 106190, Note_on_c, 0, 60, 41
1, 106212, Note_on_c, 0, 58, 0
1, 106388, Note_on_c, 0, 81, 76
1, 106388, Note_on_c, 0, 63, 47
1, 106430, Note_on_c, 0, 89, 0
1, 106468, Note_on_c, 0, 60, 0
1, 106550, Note_on_c, 0, 63, 0
1, 106582, Note_on_c, 0, 62, 50
1, 106587, Control_c, 0, 64, 0
1, 106740, Control_c, 0, 64, 127
1, 106770, Note_on_c, 0, 82, 74
1, 106772, Note_on_c, 0, 62, 0
1, 106832, Note_on_c, 0, 81, 0
1, 106972, Note_on_c, 0, 50, 75
1, 107108, Control_c, 0, 64, 0
1, 107160, Note_on_c, 0, 80, 79
1, 107176, Note_on_c, 0, 58, 41
1, 107292, Note_on_c, 0, 58, 0
1, 107298, Note_on_c, 0, 82, 0
1, 107345, Note_on_c, 0, 51, 78
1, 107360, Note_on_c, 0, 50, 0
1, 107370, Control_c, 0, 64, 127
1, 107508, Control_c, 0, 64, 0
1, 107538, Note_on_c, 0, 58, 50
1, 107540, Note_on_c, 0, 79, 89
1, 107608, Note_on_c, 0, 80, 0
1, 107698, Note_on_c, 0, 58, 0
1, 107726, Note_on_c, 0, 53, 99
1, 107764, Note_on_c, 0, 51, 0
1, 107784, Control_c, 0, 64, 127
1, 107876, Control_c, 0, 64, 0
1, 107916, Note_on_c, 0, 77, 86
1, 107921, Note_on_c, 0, 58, 44
1, 107928, Note_on_c, 0, 79, 0
1, 108082, Note_on_c, 0, 58, 0
1, 108108, Note_on_c, 0, 55, 76
1, 108122, Control_c, 0, 64, 127
1, 108128, Note_on_c, 0, 53, 0
1, 108152, Control_c, 0, 64, 0
1, 108284, Note_on_c, 0, 76, 76
1, 108302, Note_on_c, 0, 58, 44
1, 108352, Note_on_c, 0, 77, 0
1, 108486, Note_on_c, 0, 54, 62
1, 108492, Note_on_c, 0, 58, 0
1, 108522, Note_on_c, 0, 55, 0
1, 108674, Note_on_c, 0, 75, 65
1, 108674, Note_on_c, 0, 58, 39
1, 108764, Note_on_c, 0, 76, 0
1, 108850, Note_on_c, 0, 58, 0
1, 108862, Note_on_c, 0, 54, 0
1, 108880, Note_on_c, 0, 53, 63
1, 109056, Note_on_c, 0, 74, 72
1, 109070, Note_on_c, 0, 58, 26
1, 109096, Note_on_c, 0, 75, 0
1, 109158, Note_on_c, 0, 53, 0
1, 109246, Note_on_c, 0, 58, 0
1, 109262, Note_on_c, 0, 52, 45
1, 109366, Control_c, 0, 64, 127
1, 109416, Note_on_c, 0, 52, 0
1, 109424, Note_on_c, 0, 73, 67
1, 109434, Note_on_c, 0, 58, 30
1, 109514, Note_on_c, 0, 74, 0
1, 109598, Control_c, 0, 64, 0
1, 109628, Note_on_c, 0, 52, 57
1, 109646, Note_on_c, 0, 58, 0
1, 109776, Note_on_c, 0, 52, 0
1, 109798, Control_c, 0, 64, 127
1, 109801, Note_on_c, 0, 72, 67
1, 109810, Note_on_c, 0, 60, 44
1, 109874, Note_on_c, 0, 73, 0
1, 109950, Control_c, 0, 64, 0
1, 109998, Note_on_c, 0, 52, 60
1, 110022, Note_on_c, 0, 60, 0
1, 110150, Control_c, 0, 64, 127
1, 110176, Note_on_c, 0, 70, 52
1, 110184, Note_on_c, 0, 52, 0
1, 110187, Note_on_c, 0, 61, 65
1, 110310, Note_on_c, 0, 72, 0
1, 110366, Control_c, 0, 64, 0
1, 110388, Note_on_c, 0, 61, 0
1, 110398, Note_on_c, 0, 53, 52
1, 110542, Note_on_c, 0, 53, 0
1, 110582, Note_on_c, 0, 69, 44
1, 110588, Note_on_c, 0, 60, 39
1, 110612, Control_c, 0, 64, 127
1, 110658, Note_on_c, 0, 70, 0
1, 110750, Control_c, 0, 64, 0
1, 110764, Note_on_c, 0, 60, 0
1, 110766, Note_on_c, 0, 52, 58
1, 110922, Note_on_c, 0, 52, 0
1, 110938, Note_on_c, 0, 70, 52
1, 110944, Note_on_c, 0, 61, 46
1, 110950, Control_c, 0, 64, 127
1, 111010, Note_on_c, 0, 69, 0
1, 111042, Control_c, 0, 64, 0
1, 111148, Note_on_c, 0, 61, 0
1, 111164, Note_on_c, 0, 53, 41
1, 111262, Note_on_c, 0, 53, 0
1, 111272, Control_c, 0, 64, 127
1, 111336, Note_on_c, 0, 69, 34
1, 111344, Note_on_c, 0, 60, 31
1, 111380, Control_c, 0, 64, 0
1, 111390, Note_on_c, 0, 70, 0
1, 111514, Note_on_c, 0, 60, 0
1, 111542, Note_on_c, 0, 52, 36
1, 111664, Note_on_c, 0, 52, 0
1, 111698, Note_on_c, 0, 70, 42
1, 111710, Note_on_c, 0, 61, 39
1, 111740, Note_on_c, 0, 69, 0
1, 111806, Note_on_c, 0, 61, 0
1, 111910, Note_on_c, 0, 70, 0
1, 111910, Note_on_c, 0, 69, 43
1, 111916, Note_on_c, 0, 60, 33
1, 111940, Note_on_c, 0, 53, 34
1, 112100, Note_on_c, 0, 69, 0
1, 112100, Note_on_c, 0, 77, 41
1, 112156, Note_on_c, 0, 77, 0
1, 112274, Note_on_c, 0, 77, 35
1, 112322, Note_on_c, 0, 60, 0
1, 112328, Note_on_c, 0, 77, 0
1, 112352, Note_on_c, 0, 53, 0
1, 112448, Note_on_c, 0, 77, 82
1, 112544, Note_on_c, 0, 77, 0
1, 112634, Note_on_c, 0, 77, 38
1, 112706, Note_on_c, 0, 77, 0
1, 112824, Note_on_c, 0, 77, 35
1, 112886, Note_on_c, 0, 77, 0
1, 113008, Note_on_c, 0, 77, 38
1, 113059, Note_on_c, 0, 77, 0
1, 113174, Note_on_c, 0, 77, 72
1, 113174, Note_on_c, 0, 76, 84
1, 113266, Note_on_c, 0, 76, 0
1, 113278, Note_on_c, 0, 77, 0
1, 113348, Note_on_c, 0, 76, 55
1, 113350, Note_on_c, 0, 77, 63
1, 113412, Note_on_c, 0, 76, 0
1, 113418, Note_on_c, 0, 77, 0
1, 113538, Note_on_c, 0, 77, 37
1, 113544, Note_on_c, 0, 76, 37
1, 113602, Note_on_c, 0, 77, 0
1, 113608, Note_on_c, 0, 76, 0
1, 113710, Note_on_c, 0, 76, 40
1, 113714, Note_on_c, 0, 77, 34
1, 113774, Note_on_c, 0, 77, 0
1, 113776, Note_on_c, 0, 76, 0
1, 113882, Note_on_c, 0, 75, 75
1, 113884, Note_on_c, 0, 77, 61
1, 113886, Note_on_c, 0, 65, 58
1, 113988, Note_on_c, 0, 77, 0
1, 113994, Note_on_c, 0, 75, 0
1, 114048, Note_on_c, 0, 65, 0
1, 114066, Note_on_c, 0, 75, 55
1, 114066, Note_on_c, 0, 77, 56
1, 114078, Note_on_c, 0, 66, 39
1, 114124, Note_on_c, 0, 77, 0
1, 114140, Note_on_c, 0, 75, 0
1, 114234, Note_on_c, 0, 66, 0
1, 114244, Note_on_c, 0, 67, 62
1, 114244, Note_on_c, 0, 75, 48
1, 114258, Note_on_c, 0, 77, 54
1, 114308, Note_on_c, 0, 77, 0
1, 114314, Note_on_c, 0, 75, 0
1, 114408, Note_on_c, 0, 68, 82
1, 114411, Note_on_c, 0, 75, 54
1, 114416, Note_on_c, 0, 77, 55
1, 114448, Note_on_c, 0, 67, 0
1, 114490, Note_on_c, 0, 77, 0
1, 114490, Note_on_c, 0, 75, 0
1, 114572, Note_on_c, 0, 75, 73
1, 114580, Note_on_c, 0, 77, 75
1, 114584, Note_on_c, 0, 69, 85
1, 114608, Note_on_c, 0, 68, 0
1, 114670, Note_on_c, 0, 75, 0
1, 114682, Note_on_c, 0, 77, 0
1, 114754, Note_on_c, 0, 69, 0
1, 114756, Note_on_c, 0, 77, 87
1, 114764, Note_on_c, 0, 74, 99
1, 114764, Note_on_c, 0, 70, 103
1, 114846, Note_on_c, 0, 74, 0
1, 114868, Note_on_c, 0, 77, 0
1, 114932, Note_on_c, 0, 74, 64
1, 114932, Note_on_c, 0, 77, 83
1, 115006, Control_c, 0, 64, 127
1, 115020, Note_on_c, 0, 74, 0
1, 115032, Note_on_c, 0, 77, 0
1, 115054, Note_on_c, 0, 70, 0
1, 115108, Note_on_c, 0, 74, 78
1, 115108, Note_on_c, 0, 77, 83
1, 115140, Note_on_c, 0, 74, 0
1, 115146, Note_on_c, 0, 77, 0
1, 115222, Control_c, 0, 64, 0
1, 115292, Note_on_c, 0, 77, 102
1, 115292, Note_on_c, 0, 89, 100
1, 115295, Note_on_c, 0, 65, 86
1, 115298, Note_on_c, 0, 62, 88
1, 115300, Note_on_c, 0, 82, 76
1, 115300, Note_on_c, 0, 58, 73
1, 115302, Note_on_c, 0, 86, 75
1, 115310, Note_on_c, 0, 79, 82
1, 115338, Note_on_c, 0, 82, 0
1, 115341, Note_on_c, 0, 77, 0
1, 115344, Note_on_c, 0, 62, 0
1, 115344, Note_on_c, 0, 65, 0
1, 115346, Note_on_c, 0, 86, 0
1, 115350, Note_on_c, 0, 79, 0
1, 115368, Note_on_c, 0, 58, 0
1, 115378, Note_on_c, 0, 89, 0
1, 115456, Note_on_c, 0, 89, 98
1, 115456, Note_on_c, 0, 82, 95
1, 115456, Note_on_c, 0, 77, 113
1, 115459, Note_on_c, 0, 86, 100
1, 115464, Note_on_c, 0, 65, 104
1, 115464, Note_on_c, 0, 58, 84
1, 115467, Note_on_c, 0, 62, 99
1, 115501, Note_on_c, 0, 62, 0
1, 115506, Note_on_c, 0, 65, 0
1, 115534, Note_on_c, 0, 89, 0
1, 115538, Note_on_c, 0, 82, 0
1, 115556, Note_on_c, 0, 77, 0
1, 115566, Note_on_c, 0, 58, 0
1, 115584, Note_on_c, 0, 86, 0
1, 115626, Note_on_c, 0, 77, 98
1, 115628, Note_on_c, 0, 89, 84
1, 115628, Note_on_c, 0, 86, 101
1, 115630, Note_on_c, 0, 82, 78
1, 115630, Note_on_c, 0, 58, 72
1, 115634, Note_on_c, 0, 65, 94
1, 115640, Note_on_c, 0, 62, 91
1, 115672, Note_on_c, 0, 65, 0
1, 115675, Note_on_c, 0, 62, 0
1, 115682, Note_on_c, 0, 86, 0
1, 115714, Note_on_c, 0, 89, 0
1, 115722, Note_on_c, 0, 82, 0
1, 115726, Note_on_c, 0, 77, 0
1, 115738, Note_on_c, 0, 58, 0
1, 115792, Note_on_c, 0, 77, 102
1, 115794, Note_on_c, 0, 89, 91
1, 115796, Note_on_c, 0, 82, 83
1, 115800, Note_on_c, 0, 58, 70
1, 115800, Note_on_c, 0, 86, 99
1, 115803, Note_on_c, 0, 65, 92
1, 115810, Note_on_c, 0, 62, 83
1, 115846, Note_on_c, 0, 86, 0
1, 115849, Note_on_c, 0, 65, 0
1, 115849, Note_on_c, 0, 62, 0
1, 115882, Note_on_c, 0, 58, 0
1, 115894, Note_on_c, 0, 77, 0
1, 115900, Note_on_c, 0, 82, 0
1, 115900, Note_on_c, 0, 89, 0
1, 115956, Note_on_c, 0, 89, 94
1, 115958, Note_on_c, 0, 77, 97
1, 115960, Note_on_c, 0, 82, 84
1, 115968, Note_on_c, 0, 86, 94
1, 115970, Note_on_c, 0, 58, 64
1, 115972, Note_on_c, 0, 65, 79
1, 115978, Note_on_c, 0, 62, 71
1, 116000, Note_on_c, 0, 86, 0
1, 116008, Note_on_c, 0, 65, 0
1, 116016, Note_on_c, 0, 62, 0
1, 116032, Note_on_c, 0, 89, 0
1, 116036, Note_on_c, 0, 58, 0
1, 116050, Note_on_c, 0, 77, 0
1, 116064, Note_on_c, 0, 82, 0
1, 116164, Note_on_c, 0, 81, 107
1, 116164, Note_on_c, 0, 75, 100
1, 116168, Note_on_c, 0, 60, 98
1, 116174, Note_on_c, 0, 53, 106
1, 116390, Control_c, 0, 64, 127
1, 116434, Note_on_c, 0, 53, 0
1, 116438, Note_on_c, 0, 75, 0
1, 116478, Note_on_c, 0, 60, 0
1, 116496, Control_c, 0, 64, 0
1, 116516, Note_on_c, 0, 81, 0
1, 116516, Note_on_c, 0, 82, 80
1, 116519, Note_on_c, 0, 62, 70
1, 116526, Note_on_c, 0, 74, 78
1, 116538, Note_on_c, 0, 58, 41
1, 116564, Note_on_c, 0, 62, 0
1, 116567, Note_on_c, 0, 74, 0
1, 116590, Note_on_c, 0, 82, 0
1, 116596, Note_on_c, 0, 58, 0
1, 116706, Note_on_c, 0, 58, 42
1, 116706, Note_on_c, 0, 77, 92
1, 116712, Note_on_c, 0, 62, 73
1, 116712, Note_on_c, 0, 74, 90
1, 116752, Note_on_c, 0, 74, 0
1, 116752, Note_on_c, 0, 77, 0
1, 116755, Note_on_c, 0, 62, 0
1, 116760, Note_on_c, 0, 58, 0
1, 116886, Note_on_c, 0, 81, 108
1, 116888, Note_on_c, 0, 75, 97
1, 116891, Note_on_c, 0, 60, 94
1, 116896, Note_on_c, 0, 53, 103
1, 116958, Control_c, 0, 64, 127
1, 117112, Note_on_c, 0, 53, 0
1, 117118, Note_on_c, 0, 75, 0
1, 117186, Note_on_c, 0, 60, 0
1, 117210, Note_on_c, 0, 81, 0
1, 117244, Note_on_c, 0, 82, 84
1, 117247, Note_on_c, 0, 62, 85
1, 117250, Note_on_c, 0, 74, 84
1, 117256, Note_on_c, 0, 58, 62
1, 117296, Note_on_c, 0, 74, 0
1, 117296, Note_on_c, 0, 62, 0
1, 117310, Note_on_c, 0, 58, 0
1, 117312, Control_c, 0, 64, 0
1, 117350, Note_on_c, 0, 82, 0
1, 117414, Note_on_c, 0, 74, 87
1, 117420, Note_on_c, 0, 77, 93
1, 117430, Note_on_c, 0, 62, 87
1, 117436, Note_on_c, 0, 58, 66
1, 117472, Note_on_c, 0, 62, 0
1, 117484, Note_on_c, 0, 58, 0
1, 117516, Note_on_c, 0, 74, 0
1, 117519, Note_on_c, 0, 77, 0
1, 117608, Note_on_c, 0, 75, 95
1, 117610, Note_on_c, 0, 81, 107
1, 117613, Note_on_c, 0, 60, 100
1, 117628, Note_on_c, 0, 53, 105
1, 117786, Control_c, 0, 64, 127
1, 117918, Note_on_c, 0, 75, 0
1, 118000, Note_on_c, 0, 53, 0
1, 118004, Note_on_c, 0, 62, 74
1, 118006, Note_on_c, 0, 82, 93
1, 118010, Note_on_c, 0, 58, 67
1, 118014, Note_on_c, 0, 74, 84
1, 118028, Note_on_c, 0, 60, 0
1, 118048, Note_on_c, 0, 81, 0
1, 118062, Note_on_c, 0, 62, 0
1, 118090, Note_on_c, 0, 58, 0
1, 118098, Note_on_c, 0, 74, 0
1, 118128, Note_on_c, 0, 82, 0
1, 118174, Note_on_c, 0, 83, 117
1, 118174, Note_on_c, 0, 74, 82
1, 118174, Note_on_c, 0, 65, 90
1, 118184, Note_on_c, 0, 56, 81
1, 118186, Control_c, 0, 64, 0
1, 118218, Note_on_c, 0, 65, 0
1, 118228, Note_on_c, 0, 56, 0
1, 118266, Note_on_c, 0, 74, 0
1, 118288, Note_on_c, 0, 83, 0
1, 118402, Note_on_c, 0, 83, 121
1, 118404, Note_on_c, 0, 74, 108
1, 118412, Note_on_c, 0, 65, 97
1, 118412, Note_on_c, 0, 56, 90
1, 118448, Control_c, 0, 64, 127
1, 119114, Note_on_c, 0, 74, 0
1, 119258, Note_on_c, 0, 84, 106
1, 119264, Note_on_c, 0, 72, 81
1, 119266, Note_on_c, 0, 63, 89
1, 119304, Note_on_c, 0, 65, 0
1, 119362, Note_on_c, 0, 83, 0
1, 119672, Note_on_c, 0, 82, 93
1, 119682, Note_on_c, 0, 54, 89
1, 119716, Note_on_c, 0, 56, 0
1, 119724, Control_c, 0, 64, 0
1, 119856, Note_on_c, 0, 84, 0
1, 119908, Control_c, 0, 64, 127
1, 119964, Note_on_c, 0, 63, 0
1, 120002, Note_on_c, 0, 72, 0
1, 120078, Note_on_c, 0, 54, 0
1, 120168, Note_on_c, 0, 81, 101
1, 120170, Note_on_c, 0, 63, 59
1, 120174, Note_on_c, 0, 72, 82
1, 120188, Note_on_c, 0, 53, 97
1, 120310, Note_on_c, 0, 82, 0
1, 120506, Control_c, 0, 64, 0
1, 120892, Control_c, 0, 64, 127
1, 121684, Note_on_c, 0, 63, 0
1, 121750, Note_on_c, 0, 72, 0
1, 122060, Note_on_c, 0, 82, 57
1, 122080, Note_on_c, 0, 70, 26
1, 122090, Note_on_c, 0, 55, 33
1, 122110, Note_on_c, 0, 62, 26
1, 122146, Note_on_c, 0, 53, 0
1, 122258, Control_c, 0, 64, 0
1, 122470, Note_on_c, 0, 81, 0
1, 122874, Control_c, 0, 64, 127
1, 123110, Note_on_c, 0, 55, 0
1, 123160, Note_on_c, 0, 62, 0
1, 123322, Note_on_c, 0, 70, 0
1, 123730, Note_on_c, 0, 82, 0
1, 123730, Note_on_c, 0, 78, 32
1, 123744, Note_on_c, 0, 70, 14
1, 123746, Note_on_c, 0, 74, 18
1, 123796, Control_c, 0, 64, 0
1, 123822, Note_on_c, 0, 74, 0
1, 123928, Note_on_c, 0, 78, 0
1, 123938, Note_on_c, 0, 70, 0
1, 124158, Note_on_c, 0, 78, 57
1, 124162, Note_on_c, 0, 70, 40
1, 124168, Note_on_c, 0, 74, 35
1, 124226, Control_c, 0, 64, 127
1, 124714, Note_on_c, 0, 70, 0
1, 124904, Note_on_c, 0, 74, 0
1, 124962, Control_c, 0, 64, 0
1, 124996, Note_on_c, 0, 78, 0
1, 124998, Note_on_c, 0, 70, 23
1, 125002, Note_on_c, 0, 75, 26
1, 125006, Note_on_c, 0, 79, 45
1, 125088, Note_on_c, 0, 75, 0
1, 125162, Control_c, 0, 64, 127
1, 125176, Note_on_c, 0, 70, 0
1, 125200, Note_on_c, 0, 79, 0
1, 125388, Note_on_c, 0, 71, 79
1, 125391, Note_on_c, 0, 79, 84
1, 125404, Note_on_c, 0, 63, 43
1, 125407, Note_on_c, 0, 51, 44
1, 125424, Control_c, 0, 64, 0
1, 125540, Note_on_c, 0, 63, 0
1, 125560, Note_on_c, 0, 51, 0
1, 125576, Control_c, 0, 64, 127
1, 125606, Note_on_c, 0, 71, 0
1, 125608, Note_on_c, 0, 79, 0
1, 125862, Note_on_c, 0, 63, 45
1, 125862, Note_on_c, 0, 71, 60
1, 125862, Note_on_c, 0, 79, 87
1, 125872, Note_on_c, 0, 51, 40
1, 126612, Note_on_c, 0, 74, 68
1, 126634, Note_on_c, 0, 71, 0
1, 126798, Note_on_c, 0, 72, 57
1, 126806, Note_on_c, 0, 74, 0
1, 126944, Note_on_c, 0, 72, 0
1, 126960, Control_c, 0, 64, 0
1, 126972, Note_on_c, 0, 75, 69
1, 127128, Control_c, 0, 64, 127
1, 127142, Note_on_c, 0, 74, 75
1, 127176, Note_on_c, 0, 75, 0
1, 127282, Control_c, 0, 64, 0
1, 127314, Note_on_c, 0, 74, 0
1, 127338, Note_on_c, 0, 77, 72
1, 127444, Note_on_c, 0, 79, 0
1, 127514, Control_c, 0, 64, 127
1, 127517, Note_on_c, 0, 75, 55
1, 127528, Note_on_c, 0, 77, 0
1, 127590, Control_c, 0, 64, 0
1, 127678, Note_on_c, 0, 75, 0
1, 127686, Note_on_c, 0, 80, 62
1, 127694, Note_on_c, 0, 77, 52
1, 127808, Note_on_c, 0, 77, 0
1, 127860, Note_on_c, 0, 75, 50
1, 127872, Note_on_c, 0, 79, 72
1, 127874, Note_on_c, 0, 80, 0
1, 127898, Control_c, 0, 64, 127
1, 127928, Control_c, 0, 64, 0
1, 127980, Note_on_c, 0, 75, 0
1, 128040, Note_on_c, 0, 78, 72
1, 128043, Note_on_c, 0, 74, 68
1, 128060, Note_on_c, 0, 79, 0
1, 128108, Note_on_c, 0, 78, 0
1, 128128, Control_c, 0, 64, 127
1, 128220, Note_on_c, 0, 79, 73
1, 128220, Note_on_c, 0, 75, 65
1, 128276, Note_on_c, 0, 74, 0
1, 128282, Control_c, 0, 64, 0
1, 128324, Note_on_c, 0, 75, 0
1, 128390, Note_on_c, 0, 77, 81
1, 128396, Note_on_c, 0, 74, 54
1, 128428, Note_on_c, 0, 79, 0
1, 128480, Control_c, 0, 64, 127
1, 128494, Note_on_c, 0, 74, 0
1, 128566, Note_on_c, 0, 75, 76
1, 128566, Note_on_c, 0, 72, 59
1, 128569, Note_on_c, 0, 77, 0
1, 128630, Note_on_c, 0, 75, 0
1, 128630, Note_on_c, 0, 63, 0
1, 128633, Note_on_c, 0, 51, 0
1, 128758, Control_c, 0, 64, 0
1, 128776, Note_on_c, 0, 74, 91
1, 128776, Note_on_c, 0, 70, 65
1, 128782, Note_on_c, 0, 65, 37
1, 128798, Note_on_c, 0, 53, 54
1, 128814, Note_on_c, 0, 72, 0
1, 129050, Control_c, 0, 64, 127
1, 129124, Note_on_c, 0, 65, 0
1, 129198, Note_on_c, 0, 70, 0
1, 129224, Note_on_c, 0, 74, 0
1, 129224, Note_on_c, 0, 53, 0
1, 129340, Note_on_c, 0, 74, 73
1, 129340, Note_on_c, 0, 77, 79
1, 129386, Note_on_c, 0, 74, 0
1, 129440, Note_on_c, 0, 77, 0
1, 129510, Control_c, 0, 64, 0
1, 129532, Note_on_c, 0, 77, 74
1, 129534, Note_on_c, 0, 74, 88
1, 129542, Note_on_c, 0, 41, 56
1, 129546, Note_on_c, 0, 53, 72
1, 129692, Note_on_c, 0, 74, 0
1, 129710, Note_on_c, 0, 75, 66
1, 129712, Note_on_c, 0, 72, 62
1, 129714, Note_on_c, 0, 53, 0
1, 129736, Note_on_c, 0, 77, 0
1, 129740, Control_c, 0, 64, 127
1, 129758, Note_on_c, 0, 75, 0
1, 129810, Note_on_c, 0, 41, 0
1, 129876, Note_on_c, 0, 70, 68
1, 129884, Note_on_c, 0, 74, 79
1, 129890, Note_on_c, 0, 72, 0
1, 130010, Note_on_c, 0, 70, 0
1, 130040, Note_on_c, 0, 74, 0
1, 130044, Note_on_c, 0, 72, 77
1, 130050, Note_on_c, 0, 69, 66
1, 130144, Note_on_c, 0, 69, 0
1, 130144, Note_on_c, 0, 72, 0
1, 130202, Control_c, 0, 64, 0
1, 130228, Note_on_c, 0, 70, 89
1, 130314, Note_on_c, 0, 77, 85
1, 130350, Note_on_c, 0, 70, 0
1, 130396, Note_on_c, 0, 74, 83
1, 130466, Note_on_c, 0, 77, 0
1, 130478, Control_c, 0, 64, 127
1, 130480, Note_on_c, 0, 70, 64
1, 130546, Note_on_c, 0, 74, 0
1, 130556, Note_on_c, 0, 65, 74
1, 130614, Note_on_c, 0, 70, 0
1, 130626, Note_on_c, 0, 62, 73
1, 130674, Note_on_c, 0, 62, 0
1, 130677, Note_on_c, 0, 65, 0
1, 130706, Note_on_c, 0, 58, 52
1, 130766, Note_on_c, 0, 58, 0
1, 130792, Note_on_c, 0, 62, 60
1, 130834, Note_on_c, 0, 62, 0
1, 130862, Control_c, 0, 64, 0
1, 130870, Note_on_c, 0, 69, 82
1, 130946, Note_on_c, 0, 77, 79
1, 130968, Note_on_c, 0, 69, 0
1, 131040, Note_on_c, 0, 75, 70
1, 131104, Note_on_c, 0, 77, 0
1, 131114, Note_on_c, 0, 72, 69
1, 131124, Control_c, 0, 64, 127
1, 131192, Note_on_c, 0, 75, 0
1, 131204, Note_on_c, 0, 69, 63
1, 131284, Note_on_c, 0, 65, 72
1, 131287, Note_on_c, 0, 72, 0
1, 131324, Note_on_c, 0, 69, 0
1, 131356, Note_on_c, 0, 60, 59
1, 131378, Note_on_c, 0, 65, 0
1, 131418, Note_on_c, 0, 60, 0
1, 131430, Note_on_c, 0, 63, 79
1, 131474, Note_on_c, 0, 63, 0
1, 131477, Control_c, 0, 64, 0
1, 131536, Note_on_c, 0, 70, 79
1, 131624, Note_on_c, 0, 77, 81
1, 131666, Note_on_c, 0, 70, 0
1, 131714, Note_on_c, 0, 74, 78
1, 131738, Control_c, 0, 64, 127
1, 131780, Note_on_c, 0, 77, 0
1, 131804, Note_on_c, 0, 70, 64
1, 131886, Note_on_c, 0, 74, 0
1, 131896, Note_on_c, 0, 65, 67
1, 131934, Note_on_c, 0, 70, 0
1, 131960, Note_on_c, 0, 62, 63
1, 132008, Note_on_c, 0, 62, 0
1, 132008, Note_on_c, 0, 65, 0
1, 132034, Note_on_c, 0, 58, 60
1, 132112, Note_on_c, 0, 58, 0
1, 132138, Control_c, 0, 64, 0
1, 132160, Note_on_c, 0, 62, 63
1, 132204, Note_on_c, 0, 62, 0
1, 132207, Note_on_c, 0, 69, 85
1, 132306, Note_on_c, 0, 77, 79
1, 132348, Note_on_c, 0, 69, 0
1, 132384, Control_c, 0, 64, 127
1, 132388, Note_on_c, 0, 75, 69
1, 132458, Note_on_c, 0, 77, 0
1, 132458, Note_on_c, 0, 72, 70
1, 132538, Note_on_c, 0, 69, 71
1, 132540, Note_on_c, 0, 75, 0
1, 132612, Note_on_c, 0, 72, 0
1, 132626, Note_on_c, 0, 65, 66
1, 132668, Note_on_c, 0, 69, 0
1, 132672, Note_on_c, 0, 60, 46
1, 132690, Note_on_c, 0, 65, 0
1, 132742, Note_on_c, 0, 60, 0
1, 132768, Control_c, 0, 64, 0
1, 132772, Note_on_c, 0, 63, 64
1, 132812, Note_on_c, 0, 63, 0
1, 132870, Note_on_c, 0, 77, 84
1, 132962, Note_on_c, 0, 70, 55
1, 132998, Control_c, 0, 64, 127
1, 133004, Note_on_c, 0, 77, 0
1, 133012, Note_on_c, 0, 70, 0
1, 133028, Note_on_c, 0, 62, 44
1, 133094, Note_on_c, 0, 62, 0
1, 133104, Note_on_c, 0, 70, 32
1, 133172, Note_on_c, 0, 70, 0
1, 133200, Note_on_c, 0, 79, 85
1, 133244, Control_c, 0, 64, 0
1, 133298, Note_on_c, 0, 70, 62
1, 133362, Note_on_c, 0, 79, 0
1, 133365, Note_on_c, 0, 70, 0
1, 133365, Note_on_c, 0, 63, 54
1, 133424, Note_on_c, 0, 63, 0
1, 133436, Note_on_c, 0, 70, 57
1, 133444, Control_c, 0, 64, 127
1, 133526, Note_on_c, 0, 70, 0
1, 133546, Note_on_c, 0, 81, 78
1, 133568, Control_c, 0, 64, 0
1, 133614, Note_on_c, 0, 70, 67
1, 133678, Note_on_c, 0, 81, 0
1, 133716, Note_on_c, 0, 70, 0
1, 133716, Note_on_c, 0, 65, 52
1, 133752, Control_c, 0, 64, 127
1, 133788, Note_on_c, 0, 65, 0
1, 133788, Note_on_c, 0, 70, 55
1, 133860, Control_c, 0, 64, 0
1, 133886, Note_on_c, 0, 70, 0
1, 133890, Note_on_c, 0, 82, 73
1, 133978, Note_on_c, 0, 70, 49
1, 134026, Note_on_c, 0, 82, 0
1, 134056, Note_on_c, 0, 70, 0
1, 134066, Note_on_c, 0, 67, 54
1, 134090, Control_c, 0, 64, 127
1, 134126, Note_on_c, 0, 67, 0
1, 134144, Note_on_c, 0, 70, 48
1, 134150, Control_c, 0, 64, 0
1, 134220, Note_on_c, 0, 70, 0
1, 134236, Note_on_c, 0, 77, 69
1, 134300, Note_on_c, 0, 70, 50
1, 134346, Note_on_c, 0, 77, 0
1, 134382, Control_c, 0, 64, 127
1, 134390, Note_on_c, 0, 62, 61
1, 134432, Note_on_c, 0, 70, 0
1, 134464, Note_on_c, 0, 62, 0
1, 134474, Control_c, 0, 64, 0
1, 134492, Note_on_c, 0, 70, 55
1, 134544, Note_on_c, 0, 70, 0
1, 134558, Note_on_c, 0, 79, 88
1, 134634, Note_on_c, 0, 70, 53
1, 134688, Note_on_c, 0, 79, 0
1, 134690, Control_c, 0, 64, 127
1, 134724, Note_on_c, 0, 63, 76
1, 134752, Note_on_c, 0, 70, 0
1, 134768, Note_on_c, 0, 63, 0
1, 134796, Control_c, 0, 64, 0
1, 134798, Note_on_c, 0, 70, 75
1, 134888, Note_on_c, 0, 81, 94
1, 134904, Note_on_c, 0, 70, 0
1, 134970, Note_on_c, 0, 70, 78
1, 134996, Note_on_c, 0, 81, 0
1, 135026, Control_c, 0, 64, 127
1, 135066, Note_on_c, 0, 65, 65
1, 135076, Note_on_c, 0, 70, 0
1, 135134, Control_c, 0, 64, 0
1, 135138, Note_on_c, 0, 70, 70
1, 135162, Note_on_c, 0, 65, 0
1, 135238, Note_on_c, 0, 82, 91
1, 135241, Note_on_c, 0, 70, 0
1, 135316, Note_on_c, 0, 70, 66
1, 135350, Control_c, 0, 64, 127
1, 135408, Note_on_c, 0, 67, 67
1, 135418, Note_on_c, 0, 70, 0
1, 135418, Note_on_c, 0, 82, 0
1, 135456, Control_c, 0, 64, 0
1, 135492, Note_on_c, 0, 70, 67
1, 135502, Note_on_c, 0, 67, 0
1, 135580, Note_on_c, 0, 70, 0
1, 135583, Note_on_c, 0, 85, 102
1, 135668, Note_on_c, 0, 73, 73
1, 135702, Control_c, 0, 64, 127
1, 135714, Note_on_c, 0, 85, 0
1, 135758, Note_on_c, 0, 66, 62
1, 135776, Note_on_c, 0, 73, 0
1, 135832, Note_on_c, 0, 70, 70
1, 135846, Note_on_c, 0, 66, 0
1, 135872, Control_c, 0, 64, 0
1, 135888, Note_on_c, 0, 70, 0
1, 135922, Note_on_c, 0, 82, 98
1, 135988, Note_on_c, 0, 80, 19
1, 136000, Note_on_c, 0, 70, 81
1, 136048, Note_on_c, 0, 70, 0
1, 136054, Note_on_c, 0, 80, 0
1, 136070, Note_on_c, 0, 82, 0
1, 136072, Control_c, 0, 64, 127
1, 136104, Note_on_c, 0, 66, 69
1, 136172, Note_on_c, 0, 70, 81
1, 136210, Note_on_c, 0, 66, 0
1, 136224, Control_c, 0, 64, 0
1, 136278, Note_on_c, 0, 70, 0
1, 136298, Note_on_c, 0, 88, 108
1, 136390, Note_on_c, 0, 76, 45
1, 136400, Note_on_c, 0, 88, 0
1, 136410, Control_c, 0, 64, 127
1, 136460, Note_on_c, 0, 76, 0
1, 136474, Note_on_c, 0, 66, 62
1, 136550, Note_on_c, 0, 70, 69
1, 136582, Note_on_c, 0, 66, 0
1, 136602, Note_on_c, 0, 70, 0
1, 136652, Note_on_c, 0, 82, 92
1, 136686, Control_c, 0, 64, 0
1, 136744, Note_on_c, 0, 70, 80
1, 136810, Note_on_c, 0, 66, 64
1, 136842, Note_on_c, 0, 82, 0
1, 136848, Note_on_c, 0, 70, 0
1, 136862, Note_on_c, 0, 66, 0
1, 136870, Control_c, 0, 64, 127
1, 136892, Note_on_c, 0, 70, 66
1, 136938, Note_on_c, 0, 70, 0
1, 136948, Control_c, 0, 64, 0
1, 136988, Note_on_c, 0, 81, 102
1, 137070, Note_on_c, 0, 69, 69
1, 137090, Note_on_c, 0, 81, 0
1, 137148, Control_c, 0, 64, 127
1, 137162, Note_on_c, 0, 65, 78
1, 137204, Note_on_c, 0, 69, 0
1, 137218, Note_on_c, 0, 65, 0
1, 137248, Note_on_c, 0, 53, 98
1, 137290, Note_on_c, 0, 53, 0
1, 137324, Note_on_c, 0, 77, 94
1, 137394, Note_on_c, 0, 77, 0
1, 137397, Note_on_c, 0, 65, 79
1, 137494, Note_on_c, 0, 60, 91
1, 137522, Note_on_c, 0, 65, 0
1, 137572, Note_on_c, 0, 48, 68
1, 137586, Note_on_c, 0, 60, 0
1, 137654, Note_on_c, 0, 72, 89
1, 137676, Note_on_c, 0, 48, 0
1, 137754, Note_on_c, 0, 60, 91
1, 137764, Note_on_c, 0, 72, 0
1, 137858, Note_on_c, 0, 57, 81
1, 137868, Note_on_c, 0, 60, 0
1, 137932, Note_on_c, 0, 45, 77
1, 137958, Note_on_c, 0, 57, 0
1, 138018, Note_on_c, 0, 69, 79
1, 138038, Note_on_c, 0, 45, 0
1, 138118, Note_on_c, 0, 57, 87
1, 138142, Note_on_c, 0, 69, 0
1, 138162, Note_on_c, 0, 57, 0
1, 138244, Note_on_c, 0, 53, 97
1, 138344, Note_on_c, 0, 41, 93
1, 138380, Note_on_c, 0, 53, 0
1, 138542, Note_on_c, 0, 29, 108
1, 138544, Note_on_c, 0, 41, 0
1, 139160, Control_c, 0, 64, 0
1, 139836, Control_c, 0, 64, 127
1, 139880, Note_on_c, 0, 29, 0
1, 140404, Control_c, 0, 64, 0
1, 140608, Note_on_c, 0, 63, 42
1, 140666, Note_on_c, 0, 63, 0
1, 140754, Note_on_c, 0, 63, 51
1, 140854, Note_on_c, 0, 63, 0
1, 140932, Note_on_c, 0, 63, 61
1, 141000, Note_on_c, 0, 63, 0
1, 141122, Note_on_c, 0, 63, 58
1, 141174, Note_on_c, 0, 63, 0
1, 141270, Note_on_c, 0, 72, 87
1, 141278, Note_on_c, 0, 63, 66
1, 141324, Note_on_c, 0, 63, 0
1, 141376, Note_on_c, 0, 72, 0
1, 141458, Note_on_c, 0, 65, 63
1, 141468, Note_on_c, 0, 63, 49
1, 141518, Note_on_c, 0, 63, 0
1, 141616, Note_on_c, 0, 65, 0
1, 141630, Note_on_c, 0, 66, 57
1, 141630, Note_on_c, 0, 63, 41
1, 141694, Note_on_c, 0, 63, 0
1, 141796, Note_on_c, 0, 66, 0
1, 141810, Note_on_c, 0, 65, 73
1, 141820, Note_on_c, 0, 63, 47
1, 141850, Note_on_c, 0, 65, 0
1, 141866, Note_on_c, 0, 63, 0
1, 141978, Note_on_c, 0, 75, 90
1, 141986, Note_on_c, 0, 63, 51
1, 142038, Note_on_c, 0, 63, 0
1, 142098, Note_on_c, 0, 75, 0
1, 142172, Note_on_c, 0, 63, 46
1, 142172, Note_on_c, 0, 69, 38
1, 142224, Note_on_c, 0, 63, 0
1, 142330, Note_on_c, 0, 70, 56
1, 142332, Note_on_c, 0, 69, 0
1, 142340, Note_on_c, 0, 63, 47
1, 142392, Note_on_c, 0, 63, 0
1, 142514, Note_on_c, 0, 70, 0
1, 142518, Note_on_c, 0, 69, 61
1, 142524, Note_on_c, 0, 63, 55
1, 142564, Note_on_c, 0, 63, 0
1, 142566, Note_on_c, 0, 69, 0
1, 142684, Note_on_c, 0, 78, 92
1, 142687, Note_on_c, 0, 63, 57
1, 142742, Note_on_c, 0, 63, 0
1, 142802, Note_on_c, 0, 78, 0
1, 142866, Note_on_c, 0, 72, 73
1, 142876, Note_on_c, 0, 63, 55
1, 142928, Note_on_c, 0, 63, 0
1, 143020, Note_on_c, 0, 72, 0
1, 143032, Note_on_c, 0, 73, 58
1, 143044, Note_on_c, 0, 63, 50
1, 143096, Note_on_c, 0, 63, 0
1, 143185, Note_on_c, 0, 73, 0
1, 143206, Note_on_c, 0, 72, 63
1, 143216, Note_on_c, 0, 63, 50
1, 143258, Note_on_c, 0, 72, 0
1, 143270, Note_on_c, 0, 63, 0
1, 143374, Note_on_c, 0, 81, 98
1, 143378, Note_on_c, 0, 63, 65
1, 143432, Note_on_c, 0, 63, 0
1, 143496, Note_on_c, 0, 81, 0
1, 143550, Note_on_c, 0, 63, 68
1, 143556, Note_on_c, 0, 77, 79
1, 143608, Note_on_c, 0, 63, 0
1, 143674, Note_on_c, 0, 77, 0
1, 143708, Control_c, 0, 64, 127
1, 143710, Note_on_c, 0, 63, 68
1, 143714, Note_on_c, 0, 78, 79
1, 143766, Note_on_c, 0, 63, 0
1, 143830, Note_on_c, 0, 78, 0
1, 143862, Control_c, 0, 64, 0
1, 143880, Note_on_c, 0, 77, 81
1, 143890, Note_on_c, 0, 63, 68
1, 143940, Note_on_c, 0, 63, 0
1, 143970, Note_on_c, 0, 77, 0
1, 144066, Note_on_c, 0, 63, 65
1, 144070, Note_on_c, 0, 89, 39
1, 144106, Note_on_c, 0, 63, 0
1, 144126, Note_on_c, 0, 89, 0
1, 144246, Note_on_c, 0, 62, 83
1, 144310, Note_on_c, 0, 62, 0
1, 144422, Note_on_c, 0, 86, 75
1, 144427, Note_on_c, 0, 89, 69
1, 144480, Note_on_c, 0, 86, 0
1, 144490, Note_on_c, 0, 89, 0
1, 144594, Note_on_c, 0, 63, 65
1, 144658, Note_on_c, 0, 63, 0
1, 144766, Note_on_c, 0, 84, 74
1, 144769, Note_on_c, 0, 87, 66
1, 144818, Note_on_c, 0, 87, 0
1, 144856, Note_on_c, 0, 84, 0
1, 144956, Note_on_c, 0, 65, 47
1, 145014, Note_on_c, 0, 65, 0
1, 145108, Note_on_c, 0, 82, 55
1, 145114, Note_on_c, 0, 86, 58
1, 145166, Note_on_c, 0, 82, 0
1, 145174, Note_on_c, 0, 86, 0
1, 145304, Note_on_c, 0, 65, 46
1, 145354, Note_on_c, 0, 65, 0
1, 145470, Note_on_c, 0, 81, 48
1, 145470, Note_on_c, 0, 84, 51
1, 145522, Note_on_c, 0, 81, 0
1, 145530, Note_on_c, 0, 84, 0
1, 145644, Note_on_c, 0, 58, 38
1, 145652, Note_on_c, 0, 82, 55
1, 145700, Note_on_c, 0, 82, 0
1, 145706, Control_c, 0, 64, 127
1, 145730, Note_on_c, 0, 58, 0
1, 145816, Note_on_c, 0, 63, 57
1, 145860, Control_c, 0, 64, 0
1, 145866, Note_on_c, 0, 63, 0
1, 145994, Note_on_c, 0, 63, 65
1, 146048, Note_on_c, 0, 63, 0
1, 146160, Note_on_c, 0, 63, 58
1, 146236, Note_on_c, 0, 63, 0
1, 146324, Note_on_c, 0, 63, 70
1, 146396, Note_on_c, 0, 63, 0
1, 146496, Note_on_c, 0, 63, 62
1, 146566, Note_on_c, 0, 63, 0
1, 146670, Note_on_c, 0, 63, 55
1, 146728, Note_on_c, 0, 63, 0
1, 146832, Note_on_c, 0, 48, 54
1, 146836, Note_on_c, 0, 63, 55
1, 146886, Note_on_c, 0, 48, 0
1, 146896, Note_on_c, 0, 63, 0
1, 147012, Note_on_c, 0, 41, 79
1, 147026, Note_on_c, 0, 63, 57
1, 147088, Note_on_c, 0, 63, 0
1, 147180, Note_on_c, 0, 63, 56
1, 147186, Note_on_c, 0, 42, 57
1, 147188, Note_on_c, 0, 41, 0
1, 147270, Note_on_c, 0, 63, 0
1, 147338, Note_on_c, 0, 42, 0
1, 147360, Note_on_c, 0, 63, 53
1, 147364, Note_on_c, 0, 41, 72
1, 147404, Note_on_c, 0, 41, 0
1, 147424, Note_on_c, 0, 63, 0
1, 147536, Note_on_c, 0, 63, 65
1, 147536, Note_on_c, 0, 51, 95
1, 147624, Note_on_c, 0, 63, 0
1, 147634, Note_on_c, 0, 51, 0
1, 147716, Note_on_c, 0, 45, 67
1, 147719, Note_on_c, 0, 63, 61
1, 147814, Note_on_c, 0, 63, 0
1, 147886, Note_on_c, 0, 46, 64
1, 147888, Note_on_c, 0, 63, 66
1, 147922, Note_on_c, 0, 45, 0
1, 147970, Note_on_c, 0, 63, 0
1, 148061, Note_on_c, 0, 46, 0
1, 148064, Note_on_c, 0, 63, 65
1, 148064, Note_on_c, 0, 45, 75
1, 148106, Note_on_c, 0, 45, 0
1, 148130, Note_on_c, 0, 63, 0
1, 148232, Note_on_c, 0, 54, 101
1, 148234, Note_on_c, 0, 63, 78
1, 148322, Note_on_c, 0, 63, 0
1, 148346, Note_on_c, 0, 54, 0
1, 148404, Note_on_c, 0, 48, 74
1, 148414, Note_on_c, 0, 63, 70
1, 148510, Note_on_c, 0, 63, 0
1, 148574, Note_on_c, 0, 63, 77
1, 148575, Note_on_c, 0, 48, 0
1, 148584, Note_on_c, 0, 49, 83
1, 148672, Note_on_c, 0, 63, 0
1, 148740, Note_on_c, 0, 49, 0
1, 148756, Note_on_c, 0, 63, 67
1, 148756, Note_on_c, 0, 48, 77
1, 148796, Note_on_c, 0, 48, 0
1, 148826, Note_on_c, 0, 63, 0
1, 148924, Note_on_c, 0, 63, 80
1, 148930, Note_on_c, 0, 57, 103
1, 149018, Note_on_c, 0, 63, 0
1, 149038, Note_on_c, 0, 57, 0
1, 149114, Note_on_c, 0, 63, 73
1, 149118, Note_on_c, 0, 53, 103
1, 149214, Note_on_c, 0, 63, 0
1, 149275, Note_on_c, 0, 53, 0
1, 149280, Note_on_c, 0, 63, 77
1, 149284, Note_on_c, 0, 54, 90
1, 149380, Note_on_c, 0, 63, 0
1, 149440, Note_on_c, 0, 54, 0
1, 149454, Note_on_c, 0, 63, 68
1, 149464, Note_on_c, 0, 53, 94
1, 149504, Note_on_c, 0, 53, 0
1, 149518, Note_on_c, 0, 63, 0
1, 149628, Note_on_c, 0, 63, 84
1, 149638, Note_on_c, 0, 57, 81
1, 149676, Note_on_c, 0, 57, 0
1, 149688, Note_on_c, 0, 63, 0
1, 149806, Note_on_c, 0, 62, 95
1, 149809, Note_on_c, 0, 58, 81
1, 149882, Note_on_c, 0, 70, 69
1, 149892, Note_on_c, 0, 58, 0
1, 149894, Note_on_c, 0, 62, 0
1, 149962, Note_on_c, 0, 70, 0
1, 149964, Note_on_c, 0, 62, 69
1, 149974, Note_on_c, 0, 46, 55
1, 150028, Note_on_c, 0, 46, 0
1, 150042, Note_on_c, 0, 70, 57
1, 150058, Note_on_c, 0, 62, 0
1, 150128, Note_on_c, 0, 70, 0
1, 150136, Note_on_c, 0, 63, 76
1, 150150, Note_on_c, 0, 58, 54
1, 150204, Note_on_c, 0, 63, 0
1, 150212, Note_on_c, 0, 58, 0
1, 150224, Note_on_c, 0, 69, 57
1, 150280, Note_on_c, 0, 69, 0
1, 150290, Note_on_c, 0, 63, 72
1, 150302, Note_on_c, 0, 46, 53
1, 150360, Note_on_c, 0, 46, 0
1, 150372, Note_on_c, 0, 69, 43
1, 150392, Note_on_c, 0, 63, 0
1, 150420, Note_on_c, 0, 69, 0
1, 150468, Note_on_c, 0, 69, 79
1, 150478, Note_on_c, 0, 58, 57
1, 150540, Note_on_c, 0, 58, 0
1, 150542, Note_on_c, 0, 75, 75
1, 150574, Note_on_c, 0, 69, 0
1, 150594, Note_on_c, 0, 75, 0
1, 150642, Note_on_c, 0, 69, 55
1, 150656, Note_on_c, 0, 46, 48
1, 150712, Note_on_c, 0, 46, 0
1, 150724, Note_on_c, 0, 69, 0
1, 150726, Note_on_c, 0, 75, 48
1, 150780, Note_on_c, 0, 75, 0
1, 150814, Note_on_c, 0, 70, 66
1, 150816, Note_on_c, 0, 58, 52
1, 150868, Note_on_c, 0, 70, 0
1, 150878, Note_on_c, 0, 58, 0
1, 150906, Note_on_c, 0, 74, 62
1, 150950, Note_on_c, 0, 74, 0
1, 150974, Note_on_c, 0, 70, 54
1, 150974, Note_on_c, 0, 46, 49
1, 151028, Note_on_c, 0, 70, 0
1, 151031, Note_on_c, 0, 46, 0
1, 151058, Note_on_c, 0, 74, 34
1, 151118, Note_on_c, 0, 74, 0
1, 151164, Note_on_c, 0, 58, 52
1, 151167, Note_on_c, 0, 74, 76
1, 151206, Note_on_c, 0, 74, 0
1, 151222, Note_on_c, 0, 58, 0
1, 151225, Note_on_c, 0, 82, 72
1, 151272, Note_on_c, 0, 82, 0
1, 151320, Note_on_c, 0, 46, 48
1, 151328, Note_on_c, 0, 74, 48
1, 151374, Note_on_c, 0, 46, 0
1, 151378, Note_on_c, 0, 74, 0
1, 151414, Note_on_c, 0, 82, 62
1, 151460, Note_on_c, 0, 82, 0
1, 151484, Note_on_c, 0, 75, 76
1, 151490, Note_on_c, 0, 58, 52
1, 151548, Note_on_c, 0, 58, 0
1, 151551, Note_on_c, 0, 75, 0
1, 151578, Note_on_c, 0, 81, 61
1, 151624, Note_on_c, 0, 81, 0
1, 151646, Note_on_c, 0, 46, 56
1, 151646, Note_on_c, 0, 75, 64
1, 151698, Note_on_c, 0, 46, 0
1, 151702, Note_on_c, 0, 75, 0
1, 151734, Note_on_c, 0, 81, 53
1, 151782, Note_on_c, 0, 81, 0
1, 151812, Note_on_c, 0, 58, 63
1, 151838, Note_on_c, 0, 81, 80
1, 151874, Note_on_c, 0, 58, 0
1, 151878, Note_on_c, 0, 81, 0
1, 151892, Note_on_c, 0, 87, 78
1, 151940, Note_on_c, 0, 87, 0
1, 151978, Note_on_c, 0, 81, 53
1, 151984, Note_on_c, 0, 46, 58
1, 152032, Note_on_c, 0, 46, 0
1, 152036, Note_on_c, 0, 81, 0
1, 152064, Note_on_c, 0, 87, 61
1, 152120, Note_on_c, 0, 87, 0
1, 152140, Note_on_c, 0, 58, 78
1, 152143, Note_on_c, 0, 82, 78
1, 152211, Note_on_c, 0, 86, 79
1, 152236, Control_c, 0, 64, 127
1, 152248, Note_on_c, 0, 82, 0
1, 152272, Note_on_c, 0, 58, 0
1, 152276, Note_on_c, 0, 86, 0
1, 152306, Note_on_c, 0, 82, 69
1, 152370, Note_on_c, 0, 86, 83
1, 152402, Note_on_c, 0, 82, 0
1, 152416, Note_on_c, 0, 86, 0
1, 152468, Note_on_c, 0, 86, 95
1, 152474, Note_on_c, 0, 77, 103
1, 152474, Note_on_c, 0, 62, 101
1, 152476, Note_on_c, 0, 89, 105
1, 152478, Note_on_c, 0, 50, 93
1, 152480, Note_on_c, 0, 58, 76
1, 152482, Note_on_c, 0, 82, 75
1, 152488, Note_on_c, 0, 53, 100
1, 152510, Note_on_c, 0, 62, 0
1, 152518, Note_on_c, 0, 50, 0
1, 152526, Note_on_c, 0, 53, 0
1, 152534, Note_on_c, 0, 82, 0
1, 152542, Control_c, 0, 64, 0
1, 152562, Note_on_c, 0, 77, 0
1, 152564, Note_on_c, 0, 89, 0
1, 152572, Note_on_c, 0, 58, 0
1, 152578, Note_on_c, 0, 86, 0
1, 152834, Note_on_c, 0, 79, 98
1, 152836, Note_on_c, 0, 87, 91
1, 152840, Note_on_c, 0, 60, 89
1, 152840, Note_on_c, 0, 84, 96
1, 152848, Note_on_c, 0, 51, 76
1, 152850, Note_on_c, 0, 55, 84
1, 152900, Note_on_c, 0, 51, 0
1, 152905, Note_on_c, 0, 55, 0
1, 152924, Note_on_c, 0, 60, 0
1, 152924, Note_on_c, 0, 79, 0
1, 152942, Control_c, 0, 64, 127
1, 152944, Note_on_c, 0, 84, 0
1, 152964, Note_on_c, 0, 87, 0
1, 152972, Control_c, 0, 64, 0
1, 153212, Note_on_c, 0, 86, 101
1, 153212, Note_on_c, 0, 82, 88
1, 153214, Note_on_c, 0, 77, 98
1, 153216, Note_on_c, 0, 62, 90
1, 153220, Note_on_c, 0, 58, 72
1, 153230, Note_on_c, 0, 53, 96
1, 153260, Note_on_c, 0, 62, 0
1, 153268, Note_on_c, 0, 53, 0
1, 153276, Note_on_c, 0, 58, 0
1, 153296, Note_on_c, 0, 86, 0
1, 153310, Control_c, 0, 64, 127
1, 153315, Note_on_c, 0, 82, 0
1, 153320, Note_on_c, 0, 77, 0
1, 153358, Control_c, 0, 64, 0
1, 153580, Note_on_c, 0, 81, 97
1, 153586, Note_on_c, 0, 72, 87
1, 153586, Note_on_c, 0, 60, 76
1, 153588, Note_on_c, 0, 75, 81
1, 153596, Note_on_c, 0, 53, 81
1, 153608, Note_on_c, 0, 57, 41
1, 153626, Note_on_c, 0, 60, 0
1, 153628, Note_on_c, 0, 72, 0
1, 153636, Note_on_c, 0, 53, 0
1, 153640, Note_on_c, 0, 75, 0
1, 153664, Control_c, 0, 64, 127
1, 153666, Note_on_c, 0, 81, 0
1, 153672, Note_on_c, 0, 57, 0
1, 153696, Control_c, 0, 64, 0
1, 153930, Note_on_c, 0, 82, 89
1, 153930, Note_on_c, 0, 74, 81
1, 153938, Note_on_c, 0, 77, 74
1, 153946, Note_on_c, 0, 58, 60
1, 153986, Note_on_c, 0, 77, 0
1, 153986, Control_c, 0, 64, 127
1, 154002, Note_on_c, 0, 58, 0
1, 154020, Note_on_c, 0, 57, 59
1, 154082, Note_on_c, 0, 57, 0
1, 154106, Note_on_c, 0, 58, 51
1, 154166, Note_on_c, 0, 82, 0
1, 154182, Note_on_c, 0, 58, 0
1, 154186, Note_on_c, 0, 57, 55
1, 154232, Control_c, 0, 64, 0
1, 154250, Note_on_c, 0, 74, 0
1, 154264, Note_on_c, 0, 57, 0
1, 154268, Note_on_c, 0, 58, 54
1, 154340, Note_on_c, 0, 58, 0
1, 154354, Note_on_c, 0, 57, 59
1, 154426, Note_on_c, 0, 57, 0
1, 154442, Note_on_c, 0, 79, 99
1, 154442, Note_on_c, 0, 75, 84
1, 154442, Note_on_c, 0, 58, 51
1, 154518, Note_on_c, 0, 58, 0
1, 154530, Note_on_c, 0, 57, 54
1, 154556, Note_on_c, 0, 75, 0
1, 154594, Note_on_c, 0, 57, 0
1, 154604, Note_on_c, 0, 58, 50
1, 154618, Note_on_c, 0, 77, 90
1, 154618, Note_on_c, 0, 74, 85
1, 154660, Note_on_c, 0, 79, 0
1, 154706, Note_on_c, 0, 57, 50
1, 154710, Note_on_c, 0, 58, 0
1, 154768, Note_on_c, 0, 57, 0
1, 154772, Note_on_c, 0, 74, 0
1, 154776, Note_on_c, 0, 58, 52
1, 154790, Note_on_c, 0, 72, 62
1, 154796, Note_on_c, 0, 75, 71
1, 154826, Note_on_c, 0, 77, 0
1, 154846, Note_on_c, 0, 75, 0
1, 154876, Note_on_c, 0, 58, 0
1, 154888, Note_on_c, 0, 57, 41
1, 154946, Note_on_c, 0, 58, 45
1, 154962, Note_on_c, 0, 57, 0
1, 154965, Note_on_c, 0, 70, 58
1, 154972, Note_on_c, 0, 74, 73
1, 155052, Note_on_c, 0, 70, 0
1, 155060, Note_on_c, 0, 57, 42
1, 155068, Note_on_c, 0, 58, 0
1, 155078, Note_on_c, 0, 72, 0
1, 155136, Note_on_c, 0, 58, 45
1, 155138, Note_on_c, 0, 74, 0
1, 155138, Note_on_c, 0, 69, 36
1, 155146, Note_on_c, 0, 72, 62
1, 155160, Note_on_c, 0, 57, 0
1, 155220, Note_on_c, 0, 72, 0
1, 155240, Note_on_c, 0, 57, 57
1, 155254, Note_on_c, 0, 58, 0
1, 155266, Note_on_c, 0, 69, 0
1, 155310, Note_on_c, 0, 70, 61
1, 155316, Note_on_c, 0, 57, 0
1, 155316, Note_on_c, 0, 58, 52
1, 155400, Note_on_c, 0, 70, 0
1, 155402, Note_on_c, 0, 69, 46
1, 155474, Note_on_c, 0, 70, 50
1, 155477, Note_on_c, 0, 69, 0
1, 155568, Note_on_c, 0, 69, 37
1, 155570, Note_on_c, 0, 70, 0
1, 155648, Note_on_c, 0, 69, 0
1, 155650, Note_on_c, 0, 70, 46
1, 155654, Note_on_c, 0, 58, 0
1, 155738, Note_on_c, 0, 70, 0
1, 155738, Note_on_c, 0, 69, 36
1, 155824, Note_on_c, 0, 69, 0
1, 155832, Note_on_c, 0, 70, 45
1, 155840, Note_on_c, 0, 55, 60
1, 155862, Note_on_c, 0, 51, 32
1, 155890, Note_on_c, 0, 55, 0
1, 155930, Note_on_c, 0, 69, 30
1, 155948, Note_on_c, 0, 70, 0
1, 155970, Control_c, 0, 64, 127
1, 155986, Note_on_c, 0, 51, 0
1, 156012, Note_on_c, 0, 53, 81
1, 156014, Note_on_c, 0, 70, 49
1, 156024, Note_on_c, 0, 69, 0
1, 156034, Note_on_c, 0, 50, 46
1, 156056, Note_on_c, 0, 53, 0
1, 156098, Note_on_c, 0, 50, 0
1, 156114, Note_on_c, 0, 69, 34
1, 156130, Note_on_c, 0, 70, 0
1, 156154, Control_c, 0, 64, 0
1, 156184, Note_on_c, 0, 55, 57
1, 156192, Note_on_c, 0, 51, 49
1, 156198, Note_on_c, 0, 69, 0
1, 156200, Note_on_c, 0, 70, 47
1, 156238, Note_on_c, 0, 55, 0
1, 156286, Note_on_c, 0, 69, 35
1, 156304, Note_on_c, 0, 70, 0
1, 156320, Note_on_c, 0, 51, 0
1, 156364, Note_on_c, 0, 50, 42
1, 156367, Note_on_c, 0, 53, 69
1, 156384, Note_on_c, 0, 69, 0
1, 156384, Note_on_c, 0, 70, 41
1, 156438, Note_on_c, 0, 53, 0
1, 156442, Note_on_c, 0, 50, 0
1, 156476, Note_on_c, 0, 69, 30
1, 156486, Note_on_c, 0, 70, 0
1, 156542, Note_on_c, 0, 51, 52
1, 156554, Note_on_c, 0, 69, 0
1, 156557, Note_on_c, 0, 70, 47
1, 156560, Note_on_c, 0, 48, 37
1, 156632, Note_on_c, 0, 51, 0
1, 156660, Note_on_c, 0, 48, 0
1, 156660, Note_on_c, 0, 69, 41
1, 156662, Note_on_c, 0, 70, 0
1, 156734, Note_on_c, 0, 50, 84
1, 156734, Note_on_c, 0, 70, 72
1, 156737, Note_on_c, 0, 46, 57
1, 156750, Note_on_c, 0, 69, 0
1, 156778, Note_on_c, 0, 50, 0
1, 156784, Control_c, 0, 64, 127
1, 156786, Note_on_c, 0, 46, 0
1, 156808, Note_on_c, 0, 70, 0
1, 156906, Control_c, 0, 64, 0
1, 157108, Note_on_c, 0, 82, 97
1, 157108, Note_on_c, 0, 58, 86
1, 157108, Note_on_c, 0, 74, 100
1, 157111, Note_on_c, 0, 46, 83
1, 157116, Note_on_c, 0, 77, 100
1, 157128, Note_on_c, 0, 53, 106
1, 157131, Note_on_c, 0, 50, 80
1, 157162, Note_on_c, 0, 74, 0
1, 157164, Note_on_c, 0, 53, 0
1, 157166, Note_on_c, 0, 46, 0
1, 157170, Note_on_c, 0, 50, 0
1, 157198, Note_on_c, 0, 58, 0
1, 157198, Control_c, 0, 64, 127
1, 157202, Note_on_c, 0, 77, 0
1, 157208, Note_on_c, 0, 82, 0
1, 157752, Control_c, 0, 64, 0
1, 159244, Note_on_c, 0, 65, 35
1, 159304, Note_on_c, 0, 65, 0
1, 159422, Note_on_c, 0, 56, 46
1, 159428, Note_on_c, 0, 48, 38
1, 159444, Note_on_c, 0, 36, 41
1, 159620, Note_on_c, 0, 58, 42
1, 159648, Note_on_c, 0, 56, 0
1, 159800, Note_on_c, 0, 58, 0
1, 159800, Note_on_c, 0, 56, 53
1, 159918, Note_on_c, 0, 56, 0
1, 159998, Note_on_c, 0, 65, 51
1, 160028, Note_on_c, 0, 48, 0
1, 160040, Control_c, 0, 64, 127
1, 160046, Note_on_c, 0, 65, 0
1, 160148, Control_c, 0, 64, 0
1, 160182, Note_on_c, 0, 36, 0
1, 160198, Note_on_c, 0, 55, 44
1, 160216, Note_on_c, 0, 47, 18
1, 160234, Note_on_c, 0, 35, 25
1, 160364, Note_on_c, 0, 55, 0
1, 160382, Note_on_c, 0, 56, 51
1, 160438, Note_on_c, 0, 35, 0
1, 160500, Note_on_c, 0, 47, 0
1, 160558, Note_on_c, 0, 56, 0
1, 160561, Control_c, 0, 64, 127
1, 160602, Note_on_c, 0, 55, 65
1, 160648, Note_on_c, 0, 55, 0
1, 160716, Control_c, 0, 64, 0
1, 160822, Note_on_c, 0, 68, 61
1, 160852, Note_on_c, 0, 60, 56
1, 161010, Note_on_c, 0, 59, 63
1, 161020, Note_on_c, 0, 67, 72
1, 161030, Note_on_c, 0, 60, 0
1, 161050, Note_on_c, 0, 68, 0
1, 161192, Note_on_c, 0, 60, 61
1, 161195, Note_on_c, 0, 68, 65
1, 161200, Note_on_c, 0, 59, 0
1, 161220, Note_on_c, 0, 67, 0
1, 161356, Note_on_c, 0, 60, 0
1, 161376, Note_on_c, 0, 59, 42
1, 161378, Note_on_c, 0, 67, 61
1, 161424, Note_on_c, 0, 68, 0
1, 161512, Note_on_c, 0, 59, 0
1, 161564, Note_on_c, 0, 67, 0
1, 161568, Note_on_c, 0, 62, 40
1, 161570, Note_on_c, 0, 65, 50
1, 161722, Note_on_c, 0, 62, 0
1, 161760, Note_on_c, 0, 63, 46
1, 161762, Note_on_c, 0, 65, 0
1, 161772, Note_on_c, 0, 60, 37
1, 161916, Note_on_c, 0, 63, 0
1, 161962, Control_c, 0, 64, 127
1, 161962, Note_on_c, 0, 72, 39
1, 162008, Note_on_c, 0, 60, 0
1, 162022, Note_on_c, 0, 72, 0
1, 162124, Note_on_c, 0, 72, 33
1, 162130, Control_c, 0, 64, 0
1, 162194, Note_on_c, 0, 72, 0
1, 162306, Note_on_c, 0, 72, 59
1, 162308, Note_on_c, 0, 63, 49
1, 162374, Note_on_c, 0, 72, 0
1, 162488, Note_on_c, 0, 72, 42
1, 162500, Note_on_c, 0, 64, 53
1, 162503, Note_on_c, 0, 63, 0
1, 162574, Note_on_c, 0, 72, 0
1, 162670, Note_on_c, 0, 72, 46
1, 162673, Note_on_c, 0, 64, 0
1, 162694, Note_on_c, 0, 65, 40
1, 162738, Note_on_c, 0, 72, 0
1, 162858, Note_on_c, 0, 72, 44
1, 162864, Note_on_c, 0, 65, 0
1, 162866, Note_on_c, 0, 66, 34
1, 162922, Note_on_c, 0, 72, 0
1, 163040, Note_on_c, 0, 66, 0
1, 163052, Note_on_c, 0, 72, 40
1, 163058, Note_on_c, 0, 67, 36
1, 163114, Note_on_c, 0, 72, 0
1, 163246, Note_on_c, 0, 68, 30
1, 163248, Note_on_c, 0, 67, 0
1, 163248, Note_on_c, 0, 72, 35
1, 163320, Note_on_c, 0, 72, 0
1, 163434, Note_on_c, 0, 72, 35
1, 163492, Note_on_c, 0, 72, 0
1, 163604, Note_on_c, 0, 72, 27
1, 163666, Note_on_c, 0, 72, 0
1, 163796, Note_on_c, 0, 74, 75
1, 163804, Note_on_c, 0, 68, 0
1, 163804, Note_on_c, 0, 65, 37
1, 163807, Note_on_c, 0, 72, 53
1, 163858, Note_on_c, 0, 72, 0
1, 163974, Note_on_c, 0, 75, 68
1, 163976, Note_on_c, 0, 66, 41
1, 163979, Note_on_c, 0, 65, 0
1, 163996, Note_on_c, 0, 72, 43
1, 164004, Note_on_c, 0, 74, 0
1, 164050, Note_on_c, 0, 72, 0
1, 164148, Note_on_c, 0, 66, 0
1, 164162, Note_on_c, 0, 76, 63
1, 164174, Note_on_c, 0, 72, 40
1, 164177, Note_on_c, 0, 67, 45
1, 164186, Note_on_c, 0, 75, 0
1, 164228, Note_on_c, 0, 72, 0
1, 164320, Note_on_c, 0, 76, 0
1, 164328, Note_on_c, 0, 68, 40
1, 164336, Note_on_c, 0, 67, 0
1, 164340, Note_on_c, 0, 77, 63
1, 164344, Note_on_c, 0, 72, 35
1, 164400, Note_on_c, 0, 72, 0
1, 164440, Note_on_c, 0, 68, 0
1, 164520, Note_on_c, 0, 78, 62
1, 164524, Note_on_c, 0, 72, 36
1, 164534, Note_on_c, 0, 77, 0
1, 164552, Note_on_c, 0, 69, 14
1, 164590, Note_on_c, 0, 72, 0
1, 164658, Note_on_c, 0, 69, 0
1, 164718, Note_on_c, 0, 70, 32
1, 164728, Note_on_c, 0, 79, 57
1, 164734, Note_on_c, 0, 72, 32
1, 164744, Note_on_c, 0, 78, 0
1, 164798, Note_on_c, 0, 72, 0
1, 164904, Note_on_c, 0, 72, 32
1, 164970, Note_on_c, 0, 72, 0
1, 165098, Note_on_c, 0, 72, 39
1, 165154, Note_on_c, 0, 72, 0
1, 165286, Note_on_c, 0, 70, 0
1, 165294, Note_on_c, 0, 79, 0
1, 165296, Note_on_c, 0, 76, 58
1, 165304, Note_on_c, 0, 72, 46
1, 165312, Note_on_c, 0, 67, 33
1, 165356, Note_on_c, 0, 72, 0
1, 165488, Note_on_c, 0, 77, 70
1, 165490, Note_on_c, 0, 67, 0
1, 165490, Note_on_c, 0, 68, 52
1, 165496, Note_on_c, 0, 72, 40
1, 165510, Note_on_c, 0, 76, 0
1, 165554, Note_on_c, 0, 72, 0
1, 165656, Note_on_c, 0, 79, 88
1, 165661, Note_on_c, 0, 77, 0
1, 165672, Note_on_c, 0, 72, 52
1, 165680, Control_c, 0, 64, 127
1, 165688, Note_on_c, 0, 68, 0
1, 165690, Note_on_c, 0, 64, 57
1, 165728, Note_on_c, 0, 72, 0
1, 165832, Note_on_c, 0, 80, 94
1, 165840, Note_on_c, 0, 65, 61
1, 165848, Note_on_c, 0, 64, 0
1, 165854, Note_on_c, 0, 72, 62
1, 165874, Note_on_c, 0, 79, 0
1, 165910, Control_c, 0, 64, 0
1, 165912, Note_on_c, 0, 72, 0
1, 166010, Note_on_c, 0, 82, 93
1, 166030, Note_on_c, 0, 67, 73
1, 166033, Note_on_c, 0, 72, 66
1, 166048, Note_on_c, 0, 65, 0
1, 166078, Note_on_c, 0, 72, 0
1, 166106, Note_on_c, 0, 80, 0
1, 166210, Note_on_c, 0, 84, 103
1, 166214, Note_on_c, 0, 68, 73
1, 166216, Note_on_c, 0, 72, 65
1, 166228, Note_on_c, 0, 67, 0
1, 166268, Note_on_c, 0, 72, 0
1, 166302, Note_on_c, 0, 82, 0
1, 166396, Note_on_c, 0, 72, 68
1, 166504, Note_on_c, 0, 72, 0
1, 166584, Note_on_c, 0, 72, 52
1, 166664, Note_on_c, 0, 72, 0
1, 166774, Note_on_c, 0, 80, 88
1, 166790, Note_on_c, 0, 65, 53
1, 166794, Note_on_c, 0, 72, 64
1, 166836, Note_on_c, 0, 68, 0
1, 166860, Note_on_c, 0, 84, 0
1, 166863, Note_on_c, 0, 72, 0
1, 166970, Note_on_c, 0, 65, 0
1, 166970, Note_on_c, 0, 82, 83
1, 166988, Note_on_c, 0, 72, 65
1, 166996, Note_on_c, 0, 67, 57
1, 167046, Note_on_c, 0, 72, 0
1, 167072, Note_on_c, 0, 80, 0
1, 167196, Note_on_c, 0, 72, 29
1, 167272, Note_on_c, 0, 72, 0
1, 167354, Note_on_c, 0, 72, 50
1, 167416, Note_on_c, 0, 72, 0
1, 167546, Note_on_c, 0, 79, 76
1, 167556, Note_on_c, 0, 72, 36
1, 167562, Note_on_c, 0, 64, 55
1, 167588, Note_on_c, 0, 67, 0
1, 167610, Note_on_c, 0, 82, 0
1, 167628, Note_on_c, 0, 72, 0
1, 167738, Note_on_c, 0, 80, 76
1, 167746, Note_on_c, 0, 72, 57
1, 167768, Note_on_c, 0, 65, 66
1, 167788, Note_on_c, 0, 79, 0
1, 167816, Note_on_c, 0, 72, 0
1, 167840, Note_on_c, 0, 64, 0
1, 167934, Note_on_c, 0, 72, 55
1, 168014, Note_on_c, 0, 72, 0
1, 168110, Note_on_c, 0, 72, 63
1, 168216, Note_on_c, 0, 72, 0
1, 168302, Note_on_c, 0, 72, 61
1, 168414, Note_on_c, 0, 72, 0
1, 168494, Note_on_c, 0, 73, 62
1, 168560, Note_on_c, 0, 73, 0
1, 168688, Note_on_c, 0, 73, 47
1, 168746, Note_on_c, 0, 73, 0
1, 168880, Note_on_c, 0, 73, 39
1, 168936, Note_on_c, 0, 73, 0
1, 169056, Note_on_c, 0, 73, 27
1, 169074, Control_c, 0, 64, 127
1, 169114, Note_on_c, 0, 73, 0
1, 169148, Note_on_c, 0, 80, 0
1, 169236, Note_on_c, 0, 73, 47
1, 169238, Note_on_c, 0, 79, 83
1, 169258, Note_on_c, 0, 64, 56
1, 169258, Control_c, 0, 64, 0
1, 169264, Note_on_c, 0, 65, 0
1, 169314, Note_on_c, 0, 73, 0
1, 169418, Note_on_c, 0, 73, 46
1, 169522, Note_on_c, 0, 73, 0
1, 169618, Note_on_c, 0, 72, 51
1, 169628, Note_on_c, 0, 63, 59
1, 169642, Note_on_c, 0, 64, 0
1, 169690, Note_on_c, 0, 72, 0
1, 169808, Note_on_c, 0, 72, 42
1, 169858, Control_c, 0, 64, 127
1, 169870, Note_on_c, 0, 72, 0
1, 169872, Note_on_c, 0, 79, 0
1, 169982, Control_c, 0, 64, 0
1, 170002, Note_on_c, 0, 77, 54
1, 170004, Note_on_c, 0, 72, 43
1, 170007, Note_on_c, 0, 62, 47
1, 170012, Note_on_c, 0, 63, 0
1, 170068, Note_on_c, 0, 72, 0
1, 170186, Note_on_c, 0, 72, 25
1, 170262, Note_on_c, 0, 72, 0
1, 170288, Control_c, 0, 64, 127
1, 170334, Control_c, 0, 64, 0
1, 170374, Note_on_c, 0, 62, 0
1, 170376, Note_on_c, 0, 71, 30
1, 170378, Note_on_c, 0, 61, 38
1, 170444, Note_on_c, 0, 71, 0
1, 170554, Note_on_c, 0, 71, 34
1, 170582, Control_c, 0, 64, 127
1, 170618, Note_on_c, 0, 71, 0
1, 170652, Note_on_c, 0, 61, 0
1, 170688, Control_c, 0, 64, 0
1, 170716, Note_on_c, 0, 60, 46
1, 170730, Note_on_c, 0, 77, 0
1, 170733, Note_on_c, 0, 72, 52
1, 170738, Note_on_c, 0, 76, 52
1, 170774, Note_on_c, 0, 60, 0
1, 170806, Note_on_c, 0, 59, 61
1, 170858, Control_c, 0, 64, 127
1, 170862, Note_on_c, 0, 59, 0
1, 170884, Note_on_c, 0, 72, 0
1, 170892, Note_on_c, 0, 60, 34
1, 170908, Note_on_c, 0, 76, 0
1, 170952, Note_on_c, 0, 60, 0
1, 170974, Note_on_c, 0, 59, 55
1, 171012, Control_c, 0, 64, 0
1, 171036, Note_on_c, 0, 59, 0
1, 171040, Note_on_c, 0, 60, 45
1, 171118, Note_on_c, 0, 60, 0
1, 171128, Note_on_c, 0, 59, 59
1, 171192, Note_on_c, 0, 59, 0
1, 171208, Note_on_c, 0, 60, 63
1, 171246, Note_on_c, 0, 84, 95
1, 171246, Note_on_c, 0, 80, 81
1, 171272, Note_on_c, 0, 60, 0
1, 171302, Note_on_c, 0, 59, 63
1, 171356, Note_on_c, 0, 59, 0
1, 171376, Note_on_c, 0, 80, 0
1, 171382, Note_on_c, 0, 60, 66
1, 171422, Note_on_c, 0, 82, 86
1, 171425, Note_on_c, 0, 79, 91
1, 171434, Note_on_c, 0, 60, 0
1, 171460, Note_on_c, 0, 59, 67
1, 171480, Note_on_c, 0, 84, 0
1, 171516, Note_on_c, 0, 59, 0
1, 171556, Note_on_c, 0, 60, 62
1, 171606, Note_on_c, 0, 60, 0
1, 171609, Note_on_c, 0, 82, 0
1, 171609, Note_on_c, 0, 80, 78
1, 171612, Note_on_c, 0, 84, 84
1, 171640, Note_on_c, 0, 59, 63
1, 171652, Note_on_c, 0, 79, 0
1, 171696, Note_on_c, 0, 59, 0
1, 171718, Note_on_c, 0, 60, 57
1, 171734, Note_on_c, 0, 80, 0
1, 171772, Note_on_c, 0, 82, 72
1, 171778, Note_on_c, 0, 60, 0
1, 171788, Note_on_c, 0, 79, 76
1, 171802, Note_on_c, 0, 84, 0
1, 171812, Note_on_c, 0, 59, 57
1, 171880, Note_on_c, 0, 59, 0
1, 171904, Note_on_c, 0, 60, 69
1, 171906, Note_on_c, 0, 79, 0
1, 171930, Note_on_c, 0, 80, 74
1, 171940, Note_on_c, 0, 77, 60
1, 171978, Note_on_c, 0, 82, 0
1, 171984, Note_on_c, 0, 60, 0
1, 171992, Note_on_c, 0, 80, 0
1, 172018, Note_on_c, 0, 59, 57
1, 172072, Note_on_c, 0, 59, 0
1, 172104, Note_on_c, 0, 76, 67
1, 172107, Note_on_c, 0, 79, 87
1, 172114, Note_on_c, 0, 60, 83
1, 172117, Note_on_c, 0, 77, 0
1, 172180, Note_on_c, 0, 60, 0
1, 172206, Note_on_c, 0, 59, 74
1, 172240, Control_c, 0, 64, 127
1, 172260, Note_on_c, 0, 59, 0
1, 172260, Note_on_c, 0, 79, 0
1, 172266, Note_on_c, 0, 76, 0
1, 172314, Note_on_c, 0, 60, 54
1, 172366, Note_on_c, 0, 60, 0
1, 172382, Note_on_c, 0, 59, 63
1, 172448, Note_on_c, 0, 59, 0
1, 172468, Note_on_c, 0, 60, 48
1, 172486, Control_c, 0, 64, 0
1, 172538, Note_on_c, 0, 60, 0
1, 172562, Note_on_c, 0, 59, 46
1, 172624, Note_on_c, 0, 59, 0
1, 172626, Note_on_c, 0, 60, 53
1, 172658, Note_on_c, 0, 48, 73
1, 172662, Note_on_c, 0, 44, 68
1, 172734, Note_on_c, 0, 60, 0
1, 172750, Note_on_c, 0, 59, 45
1, 172806, Note_on_c, 0, 44, 0
1, 172814, Note_on_c, 0, 59, 0
1, 172822, Note_on_c, 0, 46, 72
1, 172826, Note_on_c, 0, 43, 80
1, 172844, Note_on_c, 0, 60, 61
1, 172846, Note_on_c, 0, 48, 0
1, 172912, Note_on_c, 0, 60, 0
1, 172978, Note_on_c, 0, 59, 46
1, 172986, Note_on_c, 0, 43, 0
1, 173010, Note_on_c, 0, 41, 76
1, 173010, Note_on_c, 0, 44, 70
1, 173032, Note_on_c, 0, 59, 0
1, 173050, Note_on_c, 0, 46, 0
1, 173060, Note_on_c, 0, 60, 69
1, 173068, Note_on_c, 0, 44, 0
1, 173112, Note_on_c, 0, 60, 0
1, 173164, Note_on_c, 0, 59, 37
1, 173190, Note_on_c, 0, 40, 84
1, 173192, Note_on_c, 0, 43, 67
1, 173216, Note_on_c, 0, 41, 0
1, 173226, Note_on_c, 0, 59, 0
1, 173258, Note_on_c, 0, 60, 59
1, 173304, Note_on_c, 0, 40, 0
1, 173316, Note_on_c, 0, 60, 0
1, 173368, Note_on_c, 0, 38, 59
1, 173376, Note_on_c, 0, 41, 71
1, 173378, Note_on_c, 0, 59, 42
1, 173380, Note_on_c, 0, 43, 0
1, 173432, Note_on_c, 0, 59, 0
1, 173462, Note_on_c, 0, 60, 53
1, 173516, Note_on_c, 0, 60, 0
1, 173558, Note_on_c, 0, 59, 35
1, 173580, Note_on_c, 0, 38, 0
1, 173592, Note_on_c, 0, 41, 0
1, 173612, Note_on_c, 0, 59, 0
1, 173640, Note_on_c, 0, 40, 69
1, 173640, Note_on_c, 0, 36, 48
1, 173670, Note_on_c, 0, 60, 55
1, 173916, Control_c, 0, 64, 127
1, 173919, Note_on_c, 0, 36, 0
1, 173962, Note_on_c, 0, 40, 0
1, 174020, Note_on_c, 0, 60, 0
1, 174368, Note_on_c, 0, 84, 83
1, 174422, Control_c, 0, 64, 0
1, 174478, Note_on_c, 0, 84, 0
1, 174536, Note_on_c, 0, 84, 89
1, 174630, Note_on_c, 0, 84, 0
1, 174706, Note_on_c, 0, 84, 84
1, 174798, Note_on_c, 0, 84, 0
1, 174884, Note_on_c, 0, 84, 81
1, 174974, Note_on_c, 0, 84, 0
1, 175062, Note_on_c, 0, 84, 65
1, 175168, Note_on_c, 0, 84, 0
1, 175252, Note_on_c, 0, 56, 26
1, 175258, Note_on_c, 0, 60, 25
1, 175284, Note_on_c, 0, 84, 55
1, 175298, Control_c, 0, 64, 127
1, 175422, Note_on_c, 0, 84, 0
1, 175426, Note_on_c, 0, 85, 63
1, 175488, Note_on_c, 0, 60, 0
1, 175500, Note_on_c, 0, 56, 0
1, 175500, Note_on_c, 0, 84, 69
1, 175540, Note_on_c, 0, 63, 34
1, 175556, Note_on_c, 0, 85, 0
1, 175594, Note_on_c, 0, 82, 59
1, 175614, Note_on_c, 0, 84, 0
1, 175680, Note_on_c, 0, 84, 89
1, 175702, Note_on_c, 0, 82, 0
1, 175738, Note_on_c, 0, 63, 0
1, 175774, Control_c, 0, 64, 0
1, 175790, Note_on_c, 0, 60, 32
1, 175798, Note_on_c, 0, 56, 30
1, 175801, Note_on_c, 0, 87, 60
1, 175840, Note_on_c, 0, 84, 0
1, 175974, Control_c, 0, 64, 127
1, 176004, Note_on_c, 0, 60, 0
1, 176012, Note_on_c, 0, 80, 81
1, 176018, Note_on_c, 0, 56, 0
1, 176030, Note_on_c, 0, 63, 44
1, 176104, Note_on_c, 0, 87, 0
1, 176186, Note_on_c, 0, 63, 0
1, 176204, Note_on_c, 0, 79, 94
1, 176220, Note_on_c, 0, 61, 39
1, 176226, Note_on_c, 0, 58, 24
1, 176240, Note_on_c, 0, 56, 24
1, 176260, Note_on_c, 0, 80, 0
1, 176266, Control_c, 0, 64, 0
1, 176384, Note_on_c, 0, 56, 0
1, 176402, Note_on_c, 0, 82, 89
1, 176408, Note_on_c, 0, 61, 0
1, 176418, Note_on_c, 0, 63, 50
1, 176446, Note_on_c, 0, 58, 0
1, 176466, Control_c, 0, 64, 127
1, 176474, Note_on_c, 0, 79, 0
1, 176576, Note_on_c, 0, 63, 0
1, 176582, Note_on_c, 0, 85, 88
1, 176604, Control_c, 0, 64, 0
1, 176606, Note_on_c, 0, 61, 40
1, 176610, Note_on_c, 0, 58, 34
1, 176616, Note_on_c, 0, 56, 34
1, 176654, Note_on_c, 0, 82, 0
1, 176728, Note_on_c, 0, 56, 0
1, 176742, Note_on_c, 0, 58, 0
1, 176774, Note_on_c, 0, 79, 93
1, 176788, Control_c, 0, 64, 127
1, 176792, Note_on_c, 0, 63, 54
1, 176822, Note_on_c, 0, 61, 0
1, 176862, Note_on_c, 0, 85, 0
1, 176954, Note_on_c, 0, 63, 0
1, 176956, Control_c, 0, 64, 0
1, 176966, Note_on_c, 0, 80, 82
1, 176969, Note_on_c, 0, 60, 49
1, 176986, Note_on_c, 0, 56, 35
1, 177010, Note_on_c, 0, 79, 0
1, 177158, Control_c, 0, 64, 127
1, 177166, Note_on_c, 0, 63, 53
1, 177168, Note_on_c, 0, 84, 80
1, 177182, Note_on_c, 0, 60, 0
1, 177192, Note_on_c, 0, 56, 0
1, 177200, Note_on_c, 0, 80, 0
1, 177326, Control_c, 0, 64, 0
1, 177338, Note_on_c, 0, 63, 0
1, 177360, Note_on_c, 0, 56, 41
1, 177364, Note_on_c, 0, 75, 67
1, 177370, Note_on_c, 0, 60, 37
1, 177400, Note_on_c, 0, 84, 0
1, 177434, Note_on_c, 0, 75, 0
1, 177480, Control_c, 0, 64, 127
1, 177548, Note_on_c, 0, 75, 76
1, 177548, Note_on_c, 0, 63, 59
1, 177560, Note_on_c, 0, 56, 0
1, 177570, Note_on_c, 0, 60, 0
1, 177694, Control_c, 0, 64, 0
1, 177699, Note_on_c, 0, 75, 0
1, 177702, Note_on_c, 0, 63, 0
1, 177734, Note_on_c, 0, 56, 32
1, 177744, Note_on_c, 0, 61, 42
1, 177744, Note_on_c, 0, 73, 68
1, 177750, Note_on_c, 0, 58, 28
1, 177926, Control_c, 0, 64, 127
1, 177936, Note_on_c, 0, 61, 0
1, 177936, Note_on_c, 0, 79, 79
1, 177948, Note_on_c, 0, 63, 49
1, 177960, Note_on_c, 0, 58, 0
1, 177972, Note_on_c, 0, 56, 0
1, 177972, Note_on_c, 0, 73, 0
1, 178078, Control_c, 0, 64, 0
1, 178084, Note_on_c, 0, 63, 0
1, 178106, Note_on_c, 0, 82, 56
1, 178114, Note_on_c, 0, 79, 0
1, 178124, Note_on_c, 0, 58, 25
1, 178138, Note_on_c, 0, 61, 40
1, 178154, Note_on_c, 0, 56, 34
1, 178240, Note_on_c, 0, 56, 0
1, 178248, Note_on_c, 0, 61, 0
1, 178290, Note_on_c, 0, 58, 0
1, 178302, Note_on_c, 0, 79, 78
1, 178305, Note_on_c, 0, 82, 0
1, 178308, Note_on_c, 0, 63, 48
1, 178310, Control_c, 0, 64, 127
1, 178386, Control_c, 0, 64, 0
1, 178438, Note_on_c, 0, 79, 0
1, 178486, Note_on_c, 0, 80, 82
1, 178494, Note_on_c, 0, 63, 0
1, 178496, Note_on_c, 0, 60, 58
1, 178500, Note_on_c, 0, 56, 39
1, 178578, Note_on_c, 0, 82, 75
1, 178630, Note_on_c, 0, 80, 0
1, 178674, Note_on_c, 0, 82, 0
1, 178674, Note_on_c, 0, 84, 79
1, 178728, Note_on_c, 0, 60, 0
1, 178738, Note_on_c, 0, 56, 0
1, 178752, Note_on_c, 0, 82, 57
1, 178814, Note_on_c, 0, 84, 0
1, 178850, Note_on_c, 0, 80, 67
1, 178886, Note_on_c, 0, 82, 0
1, 178940, Note_on_c, 0, 79, 87
1, 178980, Note_on_c, 0, 80, 0
1, 179049, Note_on_c, 0, 79, 0
1, 179054, Note_on_c, 0, 77, 59
1, 179134, Note_on_c, 0, 75, 60
1, 179140, Note_on_c, 0, 77, 0
1, 179236, Note_on_c, 0, 61, 51
1, 179236, Note_on_c, 0, 73, 74
1, 179237, Note_on_c, 0, 75, 0
1, 179242, Note_on_c, 0, 51, 49
1, 179242, Note_on_c, 0, 55, 54
1, 179250, Note_on_c, 0, 58, 31
1, 179330, Note_on_c, 0, 72, 63
1, 179332, Note_on_c, 0, 55, 0
1, 179338, Note_on_c, 0, 73, 0
1, 179424, Note_on_c, 0, 70, 66
1, 179448, Note_on_c, 0, 61, 0
1, 179458, Note_on_c, 0, 72, 0
1, 179472, Note_on_c, 0, 58, 0
1, 179496, Note_on_c, 0, 51, 0
1, 179526, Note_on_c, 0, 68, 61
1, 179558, Note_on_c, 0, 70, 0
1, 179608, Note_on_c, 0, 67, 74
1, 179646, Note_on_c, 0, 68, 0
1, 179701, Note_on_c, 0, 67, 0
1, 179706, Note_on_c, 0, 65, 59
1, 179790, Note_on_c, 0, 63, 65
1, 179798, Note_on_c, 0, 65, 0
1, 179878, Note_on_c, 0, 61, 65
1, 179881, Note_on_c, 0, 63, 0
1, 179950, Note_on_c, 0, 61, 0
1, 179958, Note_on_c, 0, 56, 72
1, 179964, Note_on_c, 0, 44, 72
1, 179974, Note_on_c, 0, 60, 72
1, 180046, Note_on_c, 0, 60, 0
1, 180056, Note_on_c, 0, 61, 60
1, 180120, Note_on_c, 0, 56, 0
1, 180138, Control_c, 0, 64, 127
1, 180150, Note_on_c, 0, 63, 73
1, 180164, Note_on_c, 0, 61, 0
1, 180178, Note_on_c, 0, 44, 0
1, 180216, Control_c, 0, 64, 0
1, 180232, Note_on_c, 0, 61, 66
1, 180234, Note_on_c, 0, 63, 0
1, 180340, Note_on_c, 0, 60, 72
1, 180346, Note_on_c, 0, 61, 0
1, 180392, Note_on_c, 0, 60, 0
1, 180454, Note_on_c, 0, 72, 51
1, 180522, Note_on_c, 0, 72, 0
1, 180548, Note_on_c, 0, 70, 46
1, 180556, Note_on_c, 0, 56, 35
1, 180568, Note_on_c, 0, 60, 44
1, 180628, Note_on_c, 0, 70, 0
1, 180632, Note_on_c, 0, 68, 56
1, 180664, Note_on_c, 0, 60, 0
1, 180696, Note_on_c, 0, 68, 0
1, 180700, Note_on_c, 0, 56, 0
1, 180724, Note_on_c, 0, 61, 52
1, 180730, Note_on_c, 0, 67, 57
1, 180756, Note_on_c, 0, 58, 23
1, 180800, Note_on_c, 0, 67, 0
1, 180820, Note_on_c, 0, 68, 44
1, 180896, Note_on_c, 0, 68, 0
1, 180912, Note_on_c, 0, 70, 54
1, 180956, Note_on_c, 0, 58, 0
1, 180958, Note_on_c, 0, 61, 0
1, 180996, Note_on_c, 0, 70, 0
1, 181000, Note_on_c, 0, 68, 46
1, 181094, Note_on_c, 0, 68, 0
1, 181104, Note_on_c, 0, 67, 64
1, 181154, Note_on_c, 0, 67, 0
1, 181208, Note_on_c, 0, 77, 62
1, 181266, Note_on_c, 0, 77, 0
1, 181280, Note_on_c, 0, 58, 48
1, 181292, Note_on_c, 0, 75, 53
1, 181312, Note_on_c, 0, 55, 36
1, 181387, Note_on_c, 0, 73, 51
1, 181396, Note_on_c, 0, 75, 0
1, 181398, Note_on_c, 0, 55, 0
1, 181440, Note_on_c, 0, 58, 0
1, 181454, Note_on_c, 0, 73, 0
1, 181480, Note_on_c, 0, 72, 60
1, 181492, Note_on_c, 0, 60, 36
1, 181495, Note_on_c, 0, 56, 36
1, 181556, Note_on_c, 0, 72, 0
1, 181588, Note_on_c, 0, 73, 44
1, 181664, Note_on_c, 0, 73, 0
1, 181672, Note_on_c, 0, 75, 55
1, 181692, Note_on_c, 0, 60, 0
1, 181704, Note_on_c, 0, 56, 0
1, 181764, Note_on_c, 0, 73, 46
1, 181766, Note_on_c, 0, 75, 0
1, 181864, Note_on_c, 0, 72, 70
1, 181874, Note_on_c, 0, 73, 0
1, 181914, Note_on_c, 0, 72, 0
1, 181974, Note_on_c, 0, 84, 76
1, 182066, Note_on_c, 0, 84, 0
1, 182066, Note_on_c, 0, 56, 31
1, 182069, Note_on_c, 0, 82, 54
1, 182080, Note_on_c, 0, 60, 39
1, 182158, Note_on_c, 0, 80, 67
1, 182198, Note_on_c, 0, 82, 0
1, 182201, Note_on_c, 0, 60, 0
1, 182220, Note_on_c, 0, 56, 0
1, 182256, Note_on_c, 0, 61, 45
1, 182264, Note_on_c, 0, 79, 70
1, 182272, Note_on_c, 0, 80, 0
1, 182290, Note_on_c, 0, 58, 22
1, 182340, Note_on_c, 0, 80, 62
1, 182343, Note_on_c, 0, 79, 0
1, 182446, Note_on_c, 0, 82, 59
1, 182451, Note_on_c, 0, 80, 0
1, 182494, Note_on_c, 0, 61, 0
1, 182510, Note_on_c, 0, 58, 0
1, 182530, Note_on_c, 0, 80, 60
1, 182580, Note_on_c, 0, 82, 0
1, 182634, Note_on_c, 0, 80, 0
1, 182636, Note_on_c, 0, 79, 80
1, 182682, Note_on_c, 0, 79, 0
1, 182740, Note_on_c, 0, 89, 68
1, 182816, Note_on_c, 0, 89, 0
1, 182816, Note_on_c, 0, 58, 40
1, 182834, Note_on_c, 0, 87, 55
1, 182850, Note_on_c, 0, 55, 18
1, 182924, Note_on_c, 0, 85, 64
1, 182932, Note_on_c, 0, 87, 0
1, 182992, Note_on_c, 0, 58, 0
1, 182998, Note_on_c, 0, 85, 0
1, 183004, Note_on_c, 0, 55, 0
1, 183030, Note_on_c, 0, 84, 71
1, 183036, Note_on_c, 0, 56, 37
1, 183046, Note_on_c, 0, 60, 36
1, 183092, Note_on_c, 0, 84, 0
1, 183126, Note_on_c, 0, 85, 56
1, 183186, Note_on_c, 0, 85, 0
1, 183196, Control_c, 0, 64, 127
1, 183202, Note_on_c, 0, 87, 62
1, 183246, Note_on_c, 0, 56, 0
1, 183280, Note_on_c, 0, 60, 0
1, 183286, Note_on_c, 0, 87, 0
1, 183302, Note_on_c, 0, 85, 59
1, 183318, Control_c, 0, 64, 0
1, 183364, Note_on_c, 0, 85, 0
1, 183396, Note_on_c, 0, 84, 67
1, 183480, Note_on_c, 0, 82, 67
1, 183514, Note_on_c, 0, 84, 0
1, 183578, Note_on_c, 0, 80, 69
1, 183604, Note_on_c, 0, 61, 55
1, 183612, Note_on_c, 0, 58, 30
1, 183620, Note_on_c, 0, 82, 0
1, 183680, Note_on_c, 0, 79, 81
1, 183706, Note_on_c, 0, 80, 0
1, 183754, Note_on_c, 0, 61, 0
1, 183774, Note_on_c, 0, 58, 0
1, 183774, Note_on_c, 0, 80, 66
1, 183780, Note_on_c, 0, 63, 57
1, 183802, Note_on_c, 0, 79, 0
1, 183816, Note_on_c, 0, 60, 32
1, 183874, Note_on_c, 0, 82, 67
1, 183902, Control_c, 0, 64, 127
1, 183934, Note_on_c, 0, 80, 0
1, 183964, Note_on_c, 0, 63, 0
1, 183974, Note_on_c, 0, 84, 82
1, 183994, Note_on_c, 0, 82, 0
1, 183996, Note_on_c, 0, 60, 0
1, 184040, Control_c, 0, 64, 0
1, 184070, Note_on_c, 0, 82, 54
1, 184112, Note_on_c, 0, 84, 0
1, 184176, Note_on_c, 0, 80, 70
1, 184210, Note_on_c, 0, 82, 0
1, 184268, Note_on_c, 0, 79, 71
1, 184306, Note_on_c, 0, 80, 0
1, 184316, Note_on_c, 0, 79, 0
1, 184352, Note_on_c, 0, 68, 55
1, 184358, Note_on_c, 0, 77, 58
1, 184372, Note_on_c, 0, 59, 47
1, 184426, Note_on_c, 0, 77, 0
1, 184438, Note_on_c, 0, 68, 0
1, 184442, Note_on_c, 0, 75, 61
1, 184548, Control_c, 0, 64, 127
1, 184562, Note_on_c, 0, 75, 0
1, 184564, Note_on_c, 0, 74, 60
1, 184570, Note_on_c, 0, 58, 49
1, 184590, Note_on_c, 0, 59, 0
1, 184590, Note_on_c, 0, 68, 45
1, 184626, Note_on_c, 0, 74, 0
1, 184630, Note_on_c, 0, 75, 54
1, 184748, Note_on_c, 0, 77, 63
1, 184766, Note_on_c, 0, 75, 0
1, 184810, Control_c, 0, 64, 0
1, 184842, Note_on_c, 0, 75, 52
1, 184872, Note_on_c, 0, 77, 0
1, 184956, Note_on_c, 0, 74, 67
1, 184968, Note_on_c, 0, 75, 0
1, 184976, Note_on_c, 0, 68, 0
1, 185022, Note_on_c, 0, 74, 0
1, 185048, Note_on_c, 0, 80, 66
1, 185086, Control_c, 0, 64, 127
1, 185142, Note_on_c, 0, 58, 0
1, 185148, Note_on_c, 0, 59, 65
1, 185148, Note_on_c, 0, 68, 59
1, 185151, Note_on_c, 0, 77, 71
1, 185176, Note_on_c, 0, 80, 0
1, 185226, Note_on_c, 0, 68, 0
1, 185254, Note_on_c, 0, 75, 66
1, 185286, Control_c, 0, 64, 0
1, 185296, Note_on_c, 0, 77, 0
1, 185352, Note_on_c, 0, 75, 0
1, 185360, Note_on_c, 0, 74, 65
1, 185370, Note_on_c, 0, 58, 54
1, 185378, Note_on_c, 0, 68, 39
1, 185404, Note_on_c, 0, 59, 0
1, 185442, Note_on_c, 0, 74, 0
1, 185460, Note_on_c, 0, 75, 55
1, 185558, Note_on_c, 0, 77, 65
1, 185574, Note_on_c, 0, 75, 0
1, 185652, Note_on_c, 0, 75, 55
1, 185684, Note_on_c, 0, 77, 0
1, 185694, Note_on_c, 0, 68, 0
1, 185762, Note_on_c, 0, 74, 64
1, 185776, Note_on_c, 0, 75, 0
1, 185830, Note_on_c, 0, 74, 0
1, 185854, Note_on_c, 0, 80, 59
1, 185860, Note_on_c, 0, 58, 0
1, 185930, Note_on_c, 0, 68, 42
1, 185938, Note_on_c, 0, 59, 39
1, 185956, Note_on_c, 0, 77, 59
1, 185976, Note_on_c, 0, 80, 0
1, 185986, Note_on_c, 0, 68, 0
1, 186046, Note_on_c, 0, 75, 63
1, 186074, Note_on_c, 0, 77, 0
1, 186140, Note_on_c, 0, 59, 0
1, 186144, Note_on_c, 0, 68, 45
1, 186146, Note_on_c, 0, 58, 36
1, 186148, Note_on_c, 0, 74, 58
1, 186172, Note_on_c, 0, 75, 0
1, 186210, Note_on_c, 0, 74, 0
1, 186228, Note_on_c, 0, 77, 59
1, 186310, Note_on_c, 0, 77, 0
1, 186320, Note_on_c, 0, 75, 68
1, 186420, Note_on_c, 0, 79, 73
1, 186434, Note_on_c, 0, 75, 0
1, 186468, Note_on_c, 0, 79, 0
1, 186498, Note_on_c, 0, 77, 74
1, 186594, Note_on_c, 0, 80, 76
1, 186596, Note_on_c, 0, 77, 0
1, 186696, Note_on_c, 0, 79, 78
1, 186704, Note_on_c, 0, 80, 0
1, 186740, Note_on_c, 0, 79, 0
1, 186776, Note_on_c, 0, 82, 68
1, 186876, Note_on_c, 0, 82, 0
1, 186884, Note_on_c, 0, 80, 64
1, 186906, Note_on_c, 0, 62, 21
1, 186938, Note_on_c, 0, 68, 0
1, 186956, Note_on_c, 0, 80, 0
1, 186982, Note_on_c, 0, 79, 69
1, 187030, Note_on_c, 0, 79, 0
1, 187074, Note_on_c, 0, 77, 47
1, 187162, Note_on_c, 0, 75, 55
1, 187164, Note_on_c, 0, 77, 0
1, 187262, Note_on_c, 0, 75, 0
1, 187265, Note_on_c, 0, 74, 56
1, 187308, Note_on_c, 0, 74, 0
1, 187334, Note_on_c, 0, 58, 0
1, 187344, Note_on_c, 0, 72, 47
1, 187360, Note_on_c, 0, 62, 0
1, 187424, Note_on_c, 0, 70, 50
1, 187446, Note_on_c, 0, 72, 0
1, 187518, Note_on_c, 0, 68, 61
1, 187562, Note_on_c, 0, 70, 0
1, 187612, Note_on_c, 0, 67, 83
1, 187615, Note_on_c, 0, 63, 102
1, 187622, Note_on_c, 0, 51, 81
1, 187624, Note_on_c, 0, 68, 0
1, 187632, Note_on_c, 0, 58, 69
1, 187635, Note_on_c, 0, 55, 76
1, 187694, Note_on_c, 0, 70, 78
1, 187722, Note_on_c, 0, 67, 0
1, 187726, Note_on_c, 0, 63, 0
1, 187744, Control_c, 0, 64, 127
1, 187766, Note_on_c, 0, 58, 0
1, 187774, Note_on_c, 0, 51, 0
1, 187777, Note_on_c, 0, 55, 0
1, 187812, Note_on_c, 0, 72, 78
1, 187838, Note_on_c, 0, 70, 0
1, 187910, Note_on_c, 0, 70, 53
1, 187964, Note_on_c, 0, 72, 0
1, 188000, Note_on_c, 0, 68, 69
1, 188006, Control_c, 0, 64, 0
1, 188046, Note_on_c, 0, 70, 0
1, 188098, Note_on_c, 0, 67, 81
1, 188130, Note_on_c, 0, 68, 0
1, 188192, Note_on_c, 0, 67, 0
1, 188206, Note_on_c, 0, 65, 52
1, 188292, Note_on_c, 0, 63, 71
1, 188324, Note_on_c, 0, 65, 0
1, 188364, Note_on_c, 0, 63, 0
1, 188378, Note_on_c, 0, 56, 92
1, 188381, Note_on_c, 0, 46, 89
1, 188388, Note_on_c, 0, 62, 83
1, 188446, Note_on_c, 0, 56, 0
1, 188476, Note_on_c, 0, 46, 0
1, 188482, Note_on_c, 0, 63, 84
1, 188482, Control_c, 0, 64, 127
1, 188510, Note_on_c, 0, 62, 0
1, 188576, Note_on_c, 0, 65, 79
1, 188592, Note_on_c, 0, 63, 0
1, 188676, Note_on_c, 0, 63, 70
1, 188696, Control_c, 0, 64, 0
1, 188708, Note_on_c, 0, 65, 0
1, 188772, Note_on_c, 0, 62, 78
1, 188810, Note_on_c, 0, 63, 0
1, 188842, Note_on_c, 0, 62, 0
1, 188870, Note_on_c, 0, 60, 65
1, 188956, Note_on_c, 0, 58, 59
1, 188976, Note_on_c, 0, 60, 0
1, 189046, Note_on_c, 0, 56, 63
1, 189078, Note_on_c, 0, 58, 0
1, 189128, Note_on_c, 0, 51, 88
1, 189136, Note_on_c, 0, 39, 86
1, 189138, Note_on_c, 0, 55, 76
1, 189140, Note_on_c, 0, 56, 0
1, 189174, Note_on_c, 0, 51, 0
1, 189184, Note_on_c, 0, 39, 0
1, 189226, Note_on_c, 0, 56, 59
1, 189232, Note_on_c, 0, 55, 0
1, 189250, Control_c, 0, 64, 127
1, 189322, Note_on_c, 0, 58, 59
1, 189336, Note_on_c, 0, 56, 0
1, 189400, Note_on_c, 0, 56, 62
1, 189436, Note_on_c, 0, 58, 0
1, 189506, Note_on_c, 0, 55, 83
1, 189509, Control_c, 0, 64, 0
1, 189512, Note_on_c, 0, 56, 0
1, 189554, Note_on_c, 0, 55, 0
1, 189618, Note_on_c, 0, 67, 75
1, 189710, Note_on_c, 0, 55, 75
1, 189713, Note_on_c, 0, 67, 0
1, 189713, Note_on_c, 0, 51, 66
1, 189713, Note_on_c, 0, 65, 58
1, 189780, Note_on_c, 0, 65, 0
1, 189796, Note_on_c, 0, 63, 70
1, 189888, Note_on_c, 0, 63, 0
1, 189890, Note_on_c, 0, 62, 72
1, 189900, Note_on_c, 0, 56, 62
1, 189904, Note_on_c, 0, 53, 95
1, 189920, Note_on_c, 0, 55, 0
1, 189942, Note_on_c, 0, 51, 0
1, 189974, Note_on_c, 0, 62, 0
1, 189998, Note_on_c, 0, 63, 62
1, 190064, Control_c, 0, 64, 127
1, 190074, Note_on_c, 0, 56, 0
1, 190074, Note_on_c, 0, 65, 69
1, 190078, Note_on_c, 0, 63, 0
1, 190086, Note_on_c, 0, 53, 0
1, 190140, Control_c, 0, 64, 0
1, 190150, Note_on_c, 0, 65, 0
1, 190160, Note_on_c, 0, 63, 75
1, 190264, Note_on_c, 0, 63, 0
1, 190270, Note_on_c, 0, 62, 75
1, 190318, Note_on_c, 0, 62, 0
1, 190366, Note_on_c, 0, 72, 81
1, 190468, Note_on_c, 0, 70, 57
1, 190472, Note_on_c, 0, 53, 89
1, 190484, Note_on_c, 0, 72, 0
1, 190484, Note_on_c, 0, 50, 56
1, 190546, Note_on_c, 0, 68, 68
1, 190592, Note_on_c, 0, 70, 0
1, 190618, Note_on_c, 0, 53, 0
1, 190630, Note_on_c, 0, 50, 0
1, 190648, Note_on_c, 0, 68, 0
1, 190650, Note_on_c, 0, 67, 80
1, 190658, Note_on_c, 0, 55, 71
1, 190660, Note_on_c, 0, 51, 52
1, 190744, Note_on_c, 0, 68, 57
1, 190784, Note_on_c, 0, 67, 0
1, 190814, Note_on_c, 0, 55, 0
1, 190844, Note_on_c, 0, 70, 71
1, 190847, Note_on_c, 0, 51, 0
1, 190862, Note_on_c, 0, 68, 0
1, 190862, Control_c, 0, 64, 127
1, 190938, Note_on_c, 0, 68, 62
1, 190970, Control_c, 0, 64, 0
1, 190990, Note_on_c, 0, 70, 0
1, 191030, Note_on_c, 0, 67, 79
1, 191038, Note_on_c, 0, 68, 0
1, 191082, Note_on_c, 0, 67, 0
1, 191144, Note_on_c, 0, 79, 87
1, 191244, Note_on_c, 0, 77, 65
1, 191246, Note_on_c, 0, 67, 51
1, 191252, Note_on_c, 0, 63, 56
1, 191286, Note_on_c, 0, 79, 0
1, 191316, Note_on_c, 0, 75, 70
1, 191322, Note_on_c, 0, 77, 0
1, 191416, Note_on_c, 0, 74, 74
1, 191424, Note_on_c, 0, 67, 0
1, 191426, Note_on_c, 0, 75, 0
1, 191434, Note_on_c, 0, 63, 0
1, 191450, Note_on_c, 0, 68, 46
1, 191454, Note_on_c, 0, 65, 37
1, 191518, Note_on_c, 0, 74, 0
1, 191524, Note_on_c, 0, 75, 53
1, 191606, Note_on_c, 0, 75, 0
1, 191608, Note_on_c, 0, 77, 69
1, 191646, Control_c, 0, 64, 127
1, 191678, Note_on_c, 0, 77, 0
1, 191681, Note_on_c, 0, 65, 0
1, 191686, Note_on_c, 0, 68, 0
1, 191692, Note_on_c, 0, 75, 62
1, 191724, Control_c, 0, 64, 0
1, 191790, Note_on_c, 0, 74, 64
1, 191793, Note_on_c, 0, 75, 0
1, 191840, Note_on_c, 0, 74, 0
1, 191876, Note_on_c, 0, 84, 84
1, 191984, Note_on_c, 0, 80, 57
1, 192010, Note_on_c, 0, 84, 0
1, 192074, Note_on_c, 0, 77, 57
1, 192110, Note_on_c, 0, 80, 0
1, 192198, Note_on_c, 0, 77, 0
1, 192202, Note_on_c, 0, 79, 63
1, 192272, Note_on_c, 0, 79, 0
1, 192286, Note_on_c, 0, 75, 39
1, 192338, Control_c, 0, 64, 127
1, 192348, Note_on_c, 0, 75, 0
1, 192364, Note_on_c, 0, 74, 40
1, 192422, Note_on_c, 0, 74, 0
1, 192428, Note_on_c, 0, 75, 40
1, 192462, Control_c, 0, 64, 0
1, 192522, Note_on_c, 0, 75, 0
1, 192562, Note_on_c, 0, 79, 60
1, 192646, Note_on_c, 0, 75, 38
1, 192656, Note_on_c, 0, 79, 0
1, 192712, Note_on_c, 0, 75, 0
1, 192742, Note_on_c, 0, 74, 38
1, 192752, Control_c, 0, 64, 127
1, 192798, Note_on_c, 0, 75, 34
1, 192802, Note_on_c, 0, 74, 0
1, 192815, Control_c, 0, 64, 0
1, 192894, Note_on_c, 0, 75, 0
1, 192922, Note_on_c, 0, 80, 53
1, 193022, Note_on_c, 0, 75, 32
1, 193074, Note_on_c, 0, 80, 0
1, 193090, Control_c, 0, 64, 127
1, 193098, Note_on_c, 0, 75, 0
1, 193148, Note_on_c, 0, 72, 33
1, 193214, Note_on_c, 0, 72, 0
1, 193216, Control_c, 0, 64, 0
1, 193220, Note_on_c, 0, 75, 31
1, 193288, Note_on_c, 0, 75, 0
1, 193304, Note_on_c, 0, 80, 54
1, 193398, Note_on_c, 0, 75, 37
1, 193450, Note_on_c, 0, 80, 0
1, 193490, Control_c, 0, 64, 127
1, 193496, Note_on_c, 0, 75, 0
1, 193520, Note_on_c, 0, 72, 30
1, 193566, Control_c, 0, 64, 0
1, 193571, Note_on_c, 0, 75, 47
1, 193588, Note_on_c, 0, 72, 0
1, 193680, Note_on_c, 0, 75, 0
1, 193706, Note_on_c, 0, 82, 43
1, 193776, Note_on_c, 0, 75, 41
1, 193792, Note_on_c, 0, 82, 0
1, 193828, Control_c, 0, 64, 127
1, 193892, Note_on_c, 0, 75, 0
1, 193902, Note_on_c, 0, 67, 34
1, 193936, Control_c, 0, 64, 0
1, 193974, Note_on_c, 0, 75, 38
1, 194016, Note_on_c, 0, 67, 0
1, 194074, Note_on_c, 0, 75, 0
1, 194106, Note_on_c, 0, 82, 56
1, 194182, Control_c, 0, 64, 127
1, 194208, Note_on_c, 0, 82, 0
1, 194208, Note_on_c, 0, 75, 41
1, 194284, Note_on_c, 0, 75, 0
1, 194296, Note_on_c, 0, 67, 25
1, 194336, Control_c, 0, 64, 0
1, 194358, Note_on_c, 0, 75, 47
1, 194394, Note_on_c, 0, 67, 0
1, 194490, Note_on_c, 0, 75, 0
1, 194506, Note_on_c, 0, 84, 55
1, 194594, Note_on_c, 0, 75, 27
1, 194596, Control_c, 0, 64, 127
1, 194602, Note_on_c, 0, 84, 0
1, 194668, Note_on_c, 0, 68, 24
1, 194671, Note_on_c, 0, 75, 0
1, 194734, Control_c, 0, 64, 0
1, 194746, Note_on_c, 0, 68, 0
1, 194754, Note_on_c, 0, 75, 46
1, 194876, Note_on_c, 0, 75, 0
1, 194888, Note_on_c, 0, 82, 45
1, 194954, Note_on_c, 0, 75, 44
1, 194980, Control_c, 0, 64, 127
1, 194985, Note_on_c, 0, 82, 0
1, 195060, Note_on_c, 0, 75, 0
1, 195062, Note_on_c, 0, 66, 34
1, 195120, Control_c, 0, 64, 0
1, 195138, Note_on_c, 0, 75, 46
1, 195150, Note_on_c, 0, 66, 0
1, 195256, Note_on_c, 0, 75, 0
1, 195270, Note_on_c, 0, 81, 62
1, 195378, Note_on_c, 0, 75, 39
1, 195380, Control_c, 0, 64, 127
1, 195410, Note_on_c, 0, 81, 0
1, 195450, Note_on_c, 0, 75, 0
1, 195468, Note_on_c, 0, 65, 31
1, 195504, Control_c, 0, 64, 0
1, 195544, Note_on_c, 0, 75, 44
1, 195566, Note_on_c, 0, 65, 0
1, 195666, Note_on_c, 0, 75, 0
1, 195670, Note_on_c, 0, 82, 61
1, 195748, Note_on_c, 0, 75, 47
1, 195750, Control_c, 0, 64, 127
1, 195818, Note_on_c, 0, 82, 0
1, 195856, Note_on_c, 0, 75, 0
1, 195856, Note_on_c, 0, 66, 37
1, 195872, Control_c, 0, 64, 0
1, 195940, Note_on_c, 0, 75, 47
1, 195964, Note_on_c, 0, 66, 0
1, 196048, Note_on_c, 0, 81, 71
1, 196062, Note_on_c, 0, 75, 0
1, 196118, Control_c, 0, 64, 127
1, 196140, Note_on_c, 0, 75, 47
1, 196188, Note_on_c, 0, 81, 0
1, 196234, Note_on_c, 0, 65, 34
1, 196240, Control_c, 0, 64, 0
1, 196264, Note_on_c, 0, 75, 0
1, 196300, Note_on_c, 0, 65, 0
1, 196332, Note_on_c, 0, 75, 63
1, 196384, Note_on_c, 0, 75, 0
1, 196422, Note_on_c, 0, 84, 81
1, 196502, Control_c, 0, 64, 127
1, 196518, Note_on_c, 0, 75, 39
1, 196566, Note_on_c, 0, 84, 0
1, 196582, Note_on_c, 0, 75, 0
1, 196602, Note_on_c, 0, 69, 42
1, 196610, Control_c, 0, 64, 0
1, 196668, Note_on_c, 0, 69, 0
1, 196684, Note_on_c, 0, 75, 54
1, 196752, Note_on_c, 0, 75, 0
1, 196800, Note_on_c, 0, 77, 79
1, 196886, Control_c, 0, 64, 127
1, 196894, Note_on_c, 0, 74, 63
1, 196924, Note_on_c, 0, 77, 0
1, 196948, Note_on_c, 0, 74, 0
1, 196954, Note_on_c, 0, 70, 41
1, 196994, Control_c, 0, 64, 0
1, 197020, Note_on_c, 0, 70, 0
1, 197062, Note_on_c, 0, 74, 51
1, 197146, Note_on_c, 0, 74, 0
1, 197149, Note_on_c, 0, 79, 82
1, 197246, Note_on_c, 0, 75, 55
1, 197254, Control_c, 0, 64, 127
1, 197264, Note_on_c, 0, 79, 0
1, 197302, Note_on_c, 0, 75, 0
1, 197336, Note_on_c, 0, 70, 36
1, 197348, Control_c, 0, 64, 0
1, 197400, Note_on_c, 0, 70, 0
1, 197418, Note_on_c, 0, 75, 50
1, 197496, Note_on_c, 0, 75, 0
1, 197526, Note_on_c, 0, 80, 62
1, 197608, Control_c, 0, 64, 127
1, 197622, Note_on_c, 0, 77, 57
1, 197650, Note_on_c, 0, 80, 0
1, 197664, Note_on_c, 0, 77, 0
1, 197710, Note_on_c, 0, 70, 35
1, 197782, Note_on_c, 0, 77, 35
1, 197792, Control_c, 0, 64, 0
1, 197798, Note_on_c, 0, 70, 0
1, 197826, Note_on_c, 0, 77, 0
1, 197896, Note_on_c, 0, 77, 57
1, 197996, Note_on_c, 0, 74, 52
1, 197998, Note_on_c, 0, 77, 0
1, 198046, Note_on_c, 0, 74, 0
1, 198054, Control_c, 0, 64, 127
1, 198108, Note_on_c, 0, 70, 15
1, 198148, Note_on_c, 0, 74, 37
1, 198162, Control_c, 0, 64, 0
1, 198192, Note_on_c, 0, 70, 0
1, 198197, Note_on_c, 0, 74, 0
1, 198274, Note_on_c, 0, 79, 63
1, 198364, Note_on_c, 0, 70, 40
1, 198404, Note_on_c, 0, 79, 0
1, 198407, Control_c, 0, 64, 127
1, 198426, Note_on_c, 0, 70, 0
1, 198431, Note_on_c, 0, 63, 51
1, 198484, Control_c, 0, 64, 0
1, 198502, Note_on_c, 0, 63, 0
1, 198526, Note_on_c, 0, 70, 43
1, 198578, Note_on_c, 0, 70, 0
1, 198644, Note_on_c, 0, 77, 63
1, 198730, Control_c, 0, 64, 127
1, 198734, Note_on_c, 0, 68, 46
1, 198790, Note_on_c, 0, 68, 0
1, 198794, Note_on_c, 0, 77, 0
1, 198818, Note_on_c, 0, 63, 46
1, 198822, Control_c, 0, 64, 0
1, 198882, Note_on_c, 0, 63, 0
1, 198888, Note_on_c, 0, 68, 35
1, 198952, Note_on_c, 0, 68, 0
1, 199002, Note_on_c, 0, 75, 61
1, 199084, Control_c, 0, 64, 127
1, 199087, Note_on_c, 0, 67, 55
1, 199120, Note_on_c, 0, 75, 0
1, 199148, Note_on_c, 0, 67, 0
1, 199178, Note_on_c, 0, 63, 47
1, 199190, Control_c, 0, 64, 0
1, 199242, Note_on_c, 0, 63, 0
1, 199252, Note_on_c, 0, 67, 34
1, 199326, Note_on_c, 0, 67, 0
1, 199378, Note_on_c, 0, 79, 81
1, 199456, Note_on_c, 0, 70, 61
1, 199468, Control_c, 0, 64, 127
1, 199518, Note_on_c, 0, 79, 0
1, 199536, Note_on_c, 0, 63, 48
1, 199542, Note_on_c, 0, 70, 0
1, 199574, Control_c, 0, 64, 0
1, 199602, Note_on_c, 0, 63, 0
1, 199634, Note_on_c, 0, 70, 50
1, 199700, Note_on_c, 0, 70, 0
1, 199742, Note_on_c, 0, 80, 71
1, 199806, Control_c, 0, 64, 127
1, 199836, Note_on_c, 0, 72, 57
1, 199890, Note_on_c, 0, 72, 0
1, 199904, Note_on_c, 0, 80, 0
1, 199938, Note_on_c, 0, 63, 52
1, 199960, Control_c, 0, 64, 0
1, 199992, Note_on_c, 0, 63, 0
1, 200050, Note_on_c, 0, 72, 46
1, 200102, Note_on_c, 0, 72, 0
1, 200160, Control_c, 0, 64, 127
1, 200166, Note_on_c, 0, 79, 50
1, 200228, Note_on_c, 0, 70, 39
1, 200242, Note_on_c, 0, 79, 0
1, 200306, Note_on_c, 0, 70, 0
1, 200320, Note_on_c, 0, 63, 39
1, 200328, Control_c, 0, 64, 0
1, 200380, Note_on_c, 0, 63, 0
1, 200396, Note_on_c, 0, 70, 47
1, 200460, Note_on_c, 0, 70, 0
1, 200524, Note_on_c, 0, 77, 51
1, 200542, Control_c, 0, 64, 127
1, 200600, Note_on_c, 0, 77, 0
1, 200608, Note_on_c, 0, 68, 51
1, 200676, Note_on_c, 0, 68, 0
1, 200682, Control_c, 0, 64, 0
1, 200698, Note_on_c, 0, 63, 40
1, 200762, Note_on_c, 0, 63, 0
1, 200780, Note_on_c, 0, 68, 36
1, 200844, Note_on_c, 0, 68, 0
1, 200884, Note_on_c, 0, 80, 64
1, 200926, Control_c, 0, 64, 127
1, 200978, Note_on_c, 0, 72, 47
1, 201032, Note_on_c, 0, 72, 0
1, 201058, Note_on_c, 0, 63, 42
1, 201060, Note_on_c, 0, 80, 0
1, 201066, Control_c, 0, 64, 0
1, 201116, Note_on_c, 0, 63, 0
1, 201154, Note_on_c, 0, 72, 34
1, 201220, Note_on_c, 0, 72, 0
1, 201278, Note_on_c, 0, 79, 58
1, 201296, Control_c, 0, 64, 127
1, 201342, Note_on_c, 0, 70, 41
1, 201370, Note_on_c, 0, 79, 0
1, 201416, Note_on_c, 0, 63, 47
1, 201418, Note_on_c, 0, 70, 0
1, 201450, Control_c, 0, 64, 0
1, 201490, Note_on_c, 0, 63, 0
1, 201528, Note_on_c, 0, 70, 41
1, 201588, Note_on_c, 0, 70, 0
1, 201640, Note_on_c, 0, 77, 56
1, 201680, Control_c, 0, 64, 127
1, 201720, Note_on_c, 0, 68, 50
1, 201760, Note_on_c, 0, 77, 0
1, 201785, Note_on_c, 0, 68, 0
1, 201806, Note_on_c, 0, 63, 41
1, 201834, Control_c, 0, 64, 0
1, 201888, Note_on_c, 0, 63, 0
1, 201892, Note_on_c, 0, 68, 32
1, 201962, Note_on_c, 0, 68, 0
1, 202010, Note_on_c, 0, 75, 64
1, 202048, Control_c, 0, 64, 127
1, 202100, Note_on_c, 0, 67, 46
1, 202105, Note_on_c, 0, 75, 0
1, 202164, Note_on_c, 0, 67, 0
1, 202174, Note_on_c, 0, 63, 34
1, 202242, Note_on_c, 0, 67, 42
1, 202248, Control_c, 0, 64, 0
1, 202250, Note_on_c, 0, 63, 0
1, 202310, Note_on_c, 0, 67, 0
1, 202380, Note_on_c, 0, 82, 66
1, 202470, Note_on_c, 0, 79, 71
1, 202478, Control_c, 0, 64, 127
1, 202492, Note_on_c, 0, 82, 0
1, 202516, Note_on_c, 0, 79, 0
1, 202540, Note_on_c, 0, 75, 51
1, 202638, Note_on_c, 0, 75, 0
1, 202644, Note_on_c, 0, 79, 45
1, 202696, Note_on_c, 0, 79, 0
1, 202726, Control_c, 0, 64, 0
1, 202746, Note_on_c, 0, 82, 75
1, 202834, Note_on_c, 0, 77, 71
1, 202884, Note_on_c, 0, 77, 0
1, 202910, Note_on_c, 0, 82, 0
1, 202920, Note_on_c, 0, 74, 61
1, 202940, Control_c, 0, 64, 127
1, 202978, Note_on_c, 0, 74, 0
1, 203006, Note_on_c, 0, 77, 57
1, 203054, Note_on_c, 0, 77, 0
1, 203104, Note_on_c, 0, 82, 73
1, 203109, Control_c, 0, 64, 0
1, 203196, Note_on_c, 0, 75, 68
1, 203262, Note_on_c, 0, 82, 0
1, 203266, Note_on_c, 0, 75, 0
1, 203288, Note_on_c, 0, 72, 45
1, 203324, Control_c, 0, 64, 127
1, 203358, Note_on_c, 0, 75, 62
1, 203360, Note_on_c, 0, 72, 0
1, 203442, Note_on_c, 0, 75, 0
1, 203468, Note_on_c, 0, 82, 78
1, 203478, Control_c, 0, 64, 0
1, 203556, Note_on_c, 0, 74, 69
1, 203602, Note_on_c, 0, 74, 0
1, 203602, Note_on_c, 0, 82, 0
1, 203632, Note_on_c, 0, 70, 44
1, 203662, Control_c, 0, 64, 127
1, 203726, Note_on_c, 0, 70, 0
1, 203726, Note_on_c, 0, 74, 52
1, 203754, Control_c, 0, 64, 0
1, 203776, Note_on_c, 0, 74, 0
1, 203830, Note_on_c, 0, 82, 58
1, 203910, Note_on_c, 0, 79, 71
1, 203952, Note_on_c, 0, 82, 0
1, 203956, Note_on_c, 0, 79, 0
1, 203970, Control_c, 0, 64, 127
1, 203978, Note_on_c, 0, 75, 44
1, 204070, Note_on_c, 0, 75, 0
1, 204088, Note_on_c, 0, 79, 49
1, 204142, Note_on_c, 0, 79, 0
1, 204178, Note_on_c, 0, 82, 83
1, 204214, Control_c, 0, 64, 0
1, 204286, Note_on_c, 0, 77, 71
1, 204330, Note_on_c, 0, 82, 0
1, 204336, Note_on_c, 0, 77, 0
1, 204362, Note_on_c, 0, 74, 55
1, 204400, Control_c, 0, 64, 127
1, 204432, Note_on_c, 0, 74, 0
1, 204432, Note_on_c, 0, 77, 53
1, 204492, Note_on_c, 0, 77, 0
1, 204536, Note_on_c, 0, 82, 81
1, 204626, Note_on_c, 0, 75, 65
1, 204656, Note_on_c, 0, 82, 0
1, 204676, Note_on_c, 0, 75, 0
1, 204710, Note_on_c, 0, 72, 44
1, 204802, Note_on_c, 0, 72, 0
1, 204804, Note_on_c, 0, 75, 50
1, 204860, Note_on_c, 0, 75, 0
1, 204906, Note_on_c, 0, 82, 69
1, 204968, Control_c, 0, 64, 0
1, 205010, Note_on_c, 0, 74, 55
1, 205062, Note_on_c, 0, 74, 0
1, 205065, Note_on_c, 0, 70, 43
1, 205090, Note_on_c, 0, 82, 0
1, 205136, Note_on_c, 0, 74, 56
1, 205142, Note_on_c, 0, 70, 0
1, 205152, Control_c, 0, 64, 127
1, 205216, Note_on_c, 0, 74, 0
1, 205270, Note_on_c, 0, 82, 63
1, 205386, Note_on_c, 0, 74, 39
1, 205422, Note_on_c, 0, 82, 0
1, 205432, Note_on_c, 0, 68, 36
1, 205438, Note_on_c, 0, 74, 0
1, 205518, Note_on_c, 0, 74, 48
1, 205524, Note_on_c, 0, 68, 0
1, 205588, Note_on_c, 0, 74, 0
1, 205650, Note_on_c, 0, 83, 83
1, 205706, Control_c, 0, 64, 0
1, 205762, Note_on_c, 0, 74, 51
1, 205820, Note_on_c, 0, 74, 0
1, 205832, Note_on_c, 0, 67, 47
1, 205876, Note_on_c, 0, 83, 0
1, 205906, Control_c, 0, 64, 127
1, 205934, Note_on_c, 0, 74, 38
1, 205972, Note_on_c, 0, 67, 0
1, 206026, Note_on_c, 0, 74, 0
1, 206062, Note_on_c, 0, 83, 95
1, 206156, Note_on_c, 0, 74, 46
1, 206228, Note_on_c, 0, 74, 0
1, 206258, Note_on_c, 0, 67, 47
1, 206270, Note_on_c, 0, 83, 0
1, 206332, Note_on_c, 0, 74, 57
1, 206370, Note_on_c, 0, 67, 0
1, 206418, Note_on_c, 0, 74, 0
1, 206468, Note_on_c, 0, 84, 83
1, 206550, Note_on_c, 0, 75, 60
1, 206566, Control_c, 0, 64, 0
1, 206648, Note_on_c, 0, 66, 57
1, 206706, Note_on_c, 0, 84, 0
1, 206712, Note_on_c, 0, 75, 0
1, 206750, Control_c, 0, 64, 127
1, 206770, Note_on_c, 0, 75, 72
1, 206808, Note_on_c, 0, 66, 0
1, 206832, Note_on_c, 0, 75, 0
1, 206848, Note_on_c, 0, 84, 95
1, 206916, Note_on_c, 0, 75, 61
1, 207006, Note_on_c, 0, 66, 65
1, 207020, Note_on_c, 0, 84, 0
1, 207026, Note_on_c, 0, 75, 0
1, 207094, Note_on_c, 0, 75, 64
1, 207120, Note_on_c, 0, 66, 0
1, 207190, Note_on_c, 0, 83, 115
1, 207208, Note_on_c, 0, 75, 0
1, 207274, Control_c, 0, 64, 0
1, 207290, Note_on_c, 0, 74, 73
1, 207352, Note_on_c, 0, 74, 0
1, 207372, Note_on_c, 0, 67, 85
1, 207398, Note_on_c, 0, 83, 0
1, 207456, Control_c, 0, 64, 127
1, 207458, Note_on_c, 0, 74, 69
1, 207482, Note_on_c, 0, 67, 0
1, 207544, Note_on_c, 0, 83, 114
1, 207546, Note_on_c, 0, 74, 0
1, 207628, Note_on_c, 0, 74, 63
1, 207712, Note_on_c, 0, 67, 84
1, 207724, Note_on_c, 0, 74, 0
1, 207724, Note_on_c, 0, 83, 0
1, 207800, Note_on_c, 0, 74, 78
1, 207812, Note_on_c, 0, 67, 0
1, 207904, Note_on_c, 0, 84, 103
1, 207906, Note_on_c, 0, 74, 0
1, 208006, Note_on_c, 0, 75, 75
1, 208042, Control_c, 0, 64, 0
1, 208104, Note_on_c, 0, 66, 88
1, 208158, Note_on_c, 0, 75, 0
1, 208178, Note_on_c, 0, 84, 0
1, 208210, Note_on_c, 0, 75, 79
1, 208226, Control_c, 0, 64, 127
1, 208272, Note_on_c, 0, 66, 0
1, 208300, Note_on_c, 0, 84, 107
1, 208328, Note_on_c, 0, 75, 0
1, 208386, Note_on_c, 0, 75, 76
1, 208448, Note_on_c, 0, 66, 81
1, 208470, Note_on_c, 0, 84, 0
1, 208486, Note_on_c, 0, 75, 0
1, 208550, Note_on_c, 0, 75, 66
1, 208558, Note_on_c, 0, 66, 0
1, 208590, Note_on_c, 0, 75, 0
1, 208650, Note_on_c, 0, 83, 119
1, 208656, Control_c, 0, 64, 0
1, 208756, Note_on_c, 0, 71, 89
1, 208780, Note_on_c, 0, 83, 0
1, 208826, Control_c, 0, 64, 127
1, 208842, Note_on_c, 0, 67, 84
1, 208872, Note_on_c, 0, 71, 0
1, 208942, Note_on_c, 0, 55, 79
1, 208945, Note_on_c, 0, 67, 0
1, 208980, Note_on_c, 0, 55, 0
1, 208996, Note_on_c, 0, 79, 96
1, 209088, Note_on_c, 0, 79, 0
1, 209104, Note_on_c, 0, 67, 68
1, 209200, Note_on_c, 0, 67, 0
1, 209200, Note_on_c, 0, 62, 81
1, 209272, Note_on_c, 0, 50, 88
1, 209300, Note_on_c, 0, 62, 0
1, 209364, Note_on_c, 0, 74, 96
1, 209378, Note_on_c, 0, 50, 0
1, 209462, Note_on_c, 0, 74, 0
1, 209472, Note_on_c, 0, 62, 83
1, 209578, Note_on_c, 0, 59, 86
1, 209580, Note_on_c, 0, 62, 0
1, 209670, Note_on_c, 0, 47, 81
1, 209706, Note_on_c, 0, 59, 0
1, 209738, Note_on_c, 0, 71, 94
1, 209744, Note_on_c, 0, 47, 0
1, 209840, Note_on_c, 0, 59, 89
1, 209846, Note_on_c, 0, 71, 0
1, 209876, Note_on_c, 0, 59, 0
1, 209972, Note_on_c, 0, 55, 79
1, 210080, Note_on_c, 0, 43, 88
1, 210098, Note_on_c, 0, 55, 0
1, 210216, Note_on_c, 0, 43, 0
1, 210308, Note_on_c, 0, 31, 112
1, 210470, Control_c, 0, 64, 0
1, 210714, Control_c, 0, 64, 127
1, 210780, Note_on_c, 0, 31, 0
1, 212528, Control_c, 0, 64, 0
1, 212692, Note_on_c, 0, 67, 73
1, 212826, Note_on_c, 0, 67, 0
1, 212916, Note_on_c, 0, 67, 43
1, 212986, Note_on_c, 0, 67, 0
1, 213092, Note_on_c, 0, 67, 37
1, 213172, Note_on_c, 0, 67, 0
1, 213278, Note_on_c, 0, 67, 57
1, 213342, Note_on_c, 0, 67, 0
1, 213460, Note_on_c, 0, 67, 80
1, 213464, Note_on_c, 0, 68, 70
1, 213566, Note_on_c, 0, 67, 0
1, 213580, Note_on_c, 0, 68, 0
1, 213638, Note_on_c, 0, 68, 67
1, 213640, Note_on_c, 0, 67, 68
1, 213752, Note_on_c, 0, 67, 0
1, 213760, Note_on_c, 0, 68, 0
1, 213822, Note_on_c, 0, 68, 61
1, 213825, Note_on_c, 0, 67, 69
1, 213938, Note_on_c, 0, 68, 0
1, 213942, Note_on_c, 0, 67, 0
1, 213996, Note_on_c, 0, 68, 67
1, 213999, Note_on_c, 0, 67, 80
1, 214124, Note_on_c, 0, 67, 0
1, 214124, Note_on_c, 0, 68, 0
1, 214182, Note_on_c, 0, 53, 105
1, 214192, Note_on_c, 0, 68, 63
1, 214204, Note_on_c, 0, 65, 65
1, 214284, Note_on_c, 0, 65, 0
1, 214320, Note_on_c, 0, 68, 0
1, 214368, Note_on_c, 0, 63, 87
1, 214378, Note_on_c, 0, 53, 0
1, 214381, Note_on_c, 0, 68, 66
1, 214388, Note_on_c, 0, 65, 54
1, 214482, Note_on_c, 0, 65, 0
1, 214506, Note_on_c, 0, 68, 0
1, 214566, Note_on_c, 0, 62, 78
1, 214568, Note_on_c, 0, 68, 64
1, 214574, Note_on_c, 0, 65, 57
1, 214590, Note_on_c, 0, 63, 0
1, 214640, Note_on_c, 0, 65, 0
1, 214688, Note_on_c, 0, 68, 0
1, 214754, Note_on_c, 0, 68, 56
1, 214762, Note_on_c, 0, 61, 62
1, 214768, Note_on_c, 0, 62, 0
1, 214770, Note_on_c, 0, 65, 58
1, 214826, Note_on_c, 0, 65, 0
1, 214868, Note_on_c, 0, 68, 0
1, 214948, Note_on_c, 0, 61, 0
1, 214948, Note_on_c, 0, 68, 51
1, 214948, Note_on_c, 0, 60, 54
1, 214966, Note_on_c, 0, 65, 37
1, 215030, Note_on_c, 0, 65, 0
1, 215076, Note_on_c, 0, 68, 0
1, 215190, Note_on_c, 0, 60, 0
1, 215216, Note_on_c, 0, 67, 42
1, 215220, Note_on_c, 0, 65, 32
1, 215228, Note_on_c, 0, 59, 31
1, 215448, Control_c, 0, 64, 127
1, 215470, Note_on_c, 0, 65, 0
1, 215484, Note_on_c, 0, 67, 0
1, 215532, Note_on_c, 0, 59, 0
1, 215678, Control_c, 0, 64, 0
1, 215778, Note_on_c, 0, 72, 67
1, 215840, Note_on_c, 0, 72, 0
1, 215976, Note_on_c, 0, 72, 50
1, 216034, Note_on_c, 0, 72, 0
1, 216160, Note_on_c, 0, 72, 33
1, 216234, Note_on_c, 0, 72, 0
1, 216346, Note_on_c, 0, 72, 49
1, 216402, Note_on_c, 0, 72, 0
1, 216526, Note_on_c, 0, 73, 61
1, 216529, Note_on_c, 0, 72, 57
1, 216588, Note_on_c, 0, 72, 0
1, 216634, Note_on_c, 0, 73, 0
1, 216702, Note_on_c, 0, 73, 50
1, 216716, Note_on_c, 0, 72, 55
1, 216770, Note_on_c, 0, 72, 0
1, 216812, Note_on_c, 0, 73, 0
1, 216886, Note_on_c, 0, 73, 44
1, 216902, Note_on_c, 0, 72, 47
1, 216956, Note_on_c, 0, 72, 0
1, 216994, Note_on_c, 0, 73, 0
1, 217066, Note_on_c, 0, 73, 48
1, 217094, Note_on_c, 0, 72, 40
1, 217154, Note_on_c, 0, 72, 0
1, 217170, Note_on_c, 0, 73, 0
1, 217252, Note_on_c, 0, 51, 39
1, 217257, Note_on_c, 0, 73, 40
1, 217274, Note_on_c, 0, 70, 35
1, 217344, Note_on_c, 0, 73, 0
1, 217346, Note_on_c, 0, 70, 0
1, 217434, Note_on_c, 0, 70, 43
1, 217438, Note_on_c, 0, 52, 67
1, 217442, Note_on_c, 0, 73, 40
1, 217450, Note_on_c, 0, 51, 0
1, 217526, Note_on_c, 0, 70, 0
1, 217534, Note_on_c, 0, 73, 0
1, 217608, Note_on_c, 0, 70, 49
1, 217620, Note_on_c, 0, 73, 48
1, 217626, Note_on_c, 0, 53, 85
1, 217662, Note_on_c, 0, 52, 0
1, 217706, Note_on_c, 0, 70, 0
1, 217718, Note_on_c, 0, 73, 0
1, 217784, Note_on_c, 0, 54, 79
1, 217790, Note_on_c, 0, 70, 48
1, 217790, Note_on_c, 0, 73, 57
1, 217798, Note_on_c, 0, 53, 0
1, 217892, Note_on_c, 0, 70, 0
1, 217906, Note_on_c, 0, 73, 0
1, 217962, Note_on_c, 0, 70, 59
1, 217964, Note_on_c, 0, 73, 73
1, 217966, Note_on_c, 0, 54, 0
1, 217968, Note_on_c, 0, 55, 85
1, 218078, Note_on_c, 0, 73, 0
1, 218078, Note_on_c, 0, 70, 0
1, 218146, Note_on_c, 0, 68, 74
1, 218154, Note_on_c, 0, 72, 80
1, 218160, Note_on_c, 0, 56, 83
1, 218184, Note_on_c, 0, 55, 0
1, 218258, Note_on_c, 0, 68, 0
1, 218284, Note_on_c, 0, 72, 0
1, 218326, Note_on_c, 0, 68, 54
1, 218342, Note_on_c, 0, 72, 80
1, 218402, Note_on_c, 0, 68, 0
1, 218406, Note_on_c, 0, 72, 0
1, 218484, Note_on_c, 0, 56, 0
1, 218504, Control_c, 0, 64, 127
1, 218518, Note_on_c, 0, 72, 64
1, 218526, Note_on_c, 0, 68, 41
1, 218562, Note_on_c, 0, 72, 0
1, 218576, Note_on_c, 0, 68, 0
1, 218716, Note_on_c, 0, 75, 95
1, 218720, Note_on_c, 0, 80, 94
1, 218720, Note_on_c, 0, 84, 106
1, 218724, Note_on_c, 0, 63, 98
1, 218726, Note_on_c, 0, 56, 86
1, 218730, Note_on_c, 0, 60, 83
1, 218736, Control_c, 0, 64, 0
1, 218750, Note_on_c, 0, 75, 0
1, 218764, Note_on_c, 0, 80, 0
1, 218770, Note_on_c, 0, 63, 0
1, 218776, Note_on_c, 0, 60, 0
1, 218788, Note_on_c, 0, 84, 0
1, 218814, Note_on_c, 0, 56, 0
1, 218884, Note_on_c, 0, 75, 94
1, 218884, Note_on_c, 0, 56, 76
1, 218884, Note_on_c, 0, 84, 95
1, 218887, Note_on_c, 0, 80, 88
1, 218894, Note_on_c, 0, 63, 84
1, 218896, Note_on_c, 0, 60, 71
1, 218927, Note_on_c, 0, 75, 0
1, 218931, Note_on_c, 0, 63, 0
1, 218936, Note_on_c, 0, 80, 0
1, 218942, Note_on_c, 0, 60, 0
1, 218946, Note_on_c, 0, 84, 0
1, 218948, Note_on_c, 0, 56, 0
1, 219062, Note_on_c, 0, 75, 83
1, 219064, Note_on_c, 0, 84, 90
1, 219068, Note_on_c, 0, 80, 83
1, 219082, Note_on_c, 0, 56, 66
1, 219088, Note_on_c, 0, 63, 56
1, 219098, Note_on_c, 0, 60, 43
1, 219106, Note_on_c, 0, 75, 0
1, 219108, Note_on_c, 0, 84, 0
1, 219108, Note_on_c, 0, 80, 0
1, 219126, Note_on_c, 0, 56, 0
1, 219134, Note_on_c, 0, 63, 0
1, 219162, Note_on_c, 0, 60, 0
1, 219238, Note_on_c, 0, 84, 96
1, 219240, Note_on_c, 0, 75, 84
1, 219244, Note_on_c, 0, 80, 80
1, 219252, Note_on_c, 0, 63, 68
1, 219252, Note_on_c, 0, 56, 62
1, 219252, Note_on_c, 0, 60, 49
1, 219294, Note_on_c, 0, 80, 0
1, 219294, Note_on_c, 0, 75, 0
1, 219297, Note_on_c, 0, 63, 0
1, 219300, Note_on_c, 0, 56, 0
1, 219302, Note_on_c, 0, 84, 0
1, 219308, Note_on_c, 0, 60, 0
1, 219418, Note_on_c, 0, 84, 95
1, 219421, Note_on_c, 0, 75, 90
1, 219421, Note_on_c, 0, 63, 78
1, 219428, Note_on_c, 0, 60, 60
1, 219428, Note_on_c, 0, 80, 73
1, 219431, Note_on_c, 0, 56, 68
1, 219462, Note_on_c, 0, 63, 0
1, 219466, Note_on_c, 0, 84, 0
1, 219472, Note_on_c, 0, 80, 0
1, 219476, Note_on_c, 0, 60, 0
1, 219480, Note_on_c, 0, 75, 0
1, 219486, Note_on_c, 0, 56, 0
1, 219620, Note_on_c, 0, 63, 100
1, 219622, Note_on_c, 0, 73, 96
1, 219622, Note_on_c, 0, 79, 110
1, 219634, Note_on_c, 0, 58, 74
1, 219800, Note_on_c, 0, 63, 0
1, 219858, Control_c, 0, 64, 127
1, 219918, Note_on_c, 0, 79, 0
1, 219946, Note_on_c, 0, 73, 0
1, 219954, Note_on_c, 0, 58, 0
1, 220002, Note_on_c, 0, 80, 77
1, 220002, Note_on_c, 0, 72, 62
1, 220010, Note_on_c, 0, 63, 52
1, 220010, Note_on_c, 0, 60, 49
1, 220040, Note_on_c, 0, 80, 0
1, 220048, Note_on_c, 0, 72, 0
1, 220088, Control_c, 0, 64, 0
1, 220126, Note_on_c, 0, 63, 0
1, 220160, Note_on_c, 0, 60, 0
1, 220190, Note_on_c, 0, 87, 81
1, 220194, Note_on_c, 0, 84, 87
1, 220230, Note_on_c, 0, 84, 0
1, 220240, Note_on_c, 0, 87, 0
1, 220366, Note_on_c, 0, 87, 86
1, 220378, Note_on_c, 0, 84, 87
1, 220414, Note_on_c, 0, 84, 0
1, 220446, Note_on_c, 0, 87, 0
1, 220534, Note_on_c, 0, 87, 78
1, 220544, Note_on_c, 0, 84, 70
1, 220588, Note_on_c, 0, 84, 0
1, 220638, Note_on_c, 0, 87, 0
1, 220708, Note_on_c, 0, 87, 72
1, 220724, Note_on_c, 0, 84, 73
1, 220766, Note_on_c, 0, 84, 0
1, 220802, Note_on_c, 0, 87, 0
1, 220886, Note_on_c, 0, 87, 74
1, 220900, Note_on_c, 0, 84, 78
1, 220934, Note_on_c, 0, 84, 0
1, 220962, Note_on_c, 0, 87, 0
1, 221084, Note_on_c, 0, 79, 90
1, 221088, Note_on_c, 0, 82, 81
1, 221096, Note_on_c, 0, 75, 82
1, 221432, Note_on_c, 0, 79, 0
1, 221464, Note_on_c, 0, 80, 67
1, 221472, Note_on_c, 0, 84, 73
1, 221476, Note_on_c, 0, 68, 39
1, 221486, Note_on_c, 0, 75, 0
1, 221506, Note_on_c, 0, 82, 0
1, 221516, Note_on_c, 0, 84, 0
1, 221516, Note_on_c, 0, 80, 0
1, 221652, Note_on_c, 0, 80, 68
1, 221654, Note_on_c, 0, 84, 76
1, 221704, Note_on_c, 0, 84, 0
1, 221744, Note_on_c, 0, 68, 0
1, 221747, Note_on_c, 0, 80, 0
1, 221838, Note_on_c, 0, 84, 59
1, 221842, Note_on_c, 0, 80, 57
1, 221892, Note_on_c, 0, 84, 0
1, 221915, Note_on_c, 0, 80, 0
1, 222030, Note_on_c, 0, 84, 56
1, 222030, Note_on_c, 0, 80, 47
1, 222090, Note_on_c, 0, 80, 0
1, 222093, Note_on_c, 0, 84, 0
1, 222214, Note_on_c, 0, 84, 53
1, 222232, Note_on_c, 0, 80, 43
1, 222280, Note_on_c, 0, 84, 0
1, 222282, Note_on_c, 0, 80, 0
1, 222444, Note_on_c, 0, 84, 61
1, 222444, Note_on_c, 0, 80, 44
1, 222526, Note_on_c, 0, 80, 0
1, 222554, Note_on_c, 0, 84, 0
1, 222746, Note_on_c, 0, 79, 57
1, 222754, Note_on_c, 0, 76, 40
1, 222757, Note_on_c, 0, 72, 27
1, 223426, Note_on_c, 0, 76, 0
1, 223446, Note_on_c, 0, 80, 24
1, 223456, Note_on_c, 0, 65, 18
1, 223460, Note_on_c, 0, 79, 0
1, 223466, Note_on_c, 0, 77, 17
1, 223484, Note_on_c, 0, 72, 0
1, 223800, Note_on_c, 0, 65, 0
1, 223860, Note_on_c, 0, 77, 0
1, 223868, Control_c, 0, 64, 127
1, 223870, Note_on_c, 0, 80, 0
1, 223990, Control_c, 0, 64, 0
1, 224876, Note_on_c, 0, 80, 33
1, 224882, Note_on_c, 0, 65, 36
1, 224912, Note_on_c, 0, 77, 11
1, 224958, Note_on_c, 0, 80, 0
1, 224986, Note_on_c, 0, 77, 0
1, 225096, Note_on_c, 0, 77, 27
1, 225122, Note_on_c, 0, 64, 38
1, 225126, Note_on_c, 0, 65, 0
1, 225132, Note_on_c, 0, 80, 30
1, 225172, Note_on_c, 0, 77, 0
1, 225200, Note_on_c, 0, 80, 0
1, 225292, Note_on_c, 0, 80, 41
1, 225292, Note_on_c, 0, 77, 34
1, 225294, Note_on_c, 0, 64, 0
1, 225296, Note_on_c, 0, 63, 48
1, 225356, Note_on_c, 0, 77, 0
1, 225390, Note_on_c, 0, 80, 0
1, 225480, Note_on_c, 0, 80, 48
1, 225490, Note_on_c, 0, 62, 53
1, 225492, Note_on_c, 0, 63, 0
1, 225500, Note_on_c, 0, 77, 40
1, 225556, Note_on_c, 0, 77, 0
1, 225580, Note_on_c, 0, 80, 0
1, 225674, Note_on_c, 0, 80, 50
1, 225676, Note_on_c, 0, 62, 0
1, 225678, Note_on_c, 0, 61, 58
1, 225688, Note_on_c, 0, 77, 48
1, 225740, Note_on_c, 0, 77, 0
1, 225764, Note_on_c, 0, 80, 0
1, 225910, Note_on_c, 0, 61, 0
1, 225916, Note_on_c, 0, 77, 45
1, 225919, Note_on_c, 0, 60, 39
1, 225919, Note_on_c, 0, 80, 55
1, 226144, Note_on_c, 0, 60, 0
1, 226148, Note_on_c, 0, 59, 43
1, 226320, Note_on_c, 0, 77, 0
1, 226328, Note_on_c, 0, 80, 0
1, 226332, Note_on_c, 0, 59, 0
1, 226346, Note_on_c, 0, 60, 33
1, 226362, Note_on_c, 0, 79, 28
1, 226372, Note_on_c, 0, 76, 19
1, 226460, Note_on_c, 0, 79, 0
1, 226526, Note_on_c, 0, 60, 0
1, 226556, Control_c, 0, 64, 127
1, 226566, Note_on_c, 0, 75, 59
1, 226566, Note_on_c, 0, 78, 69
1, 226566, Note_on_c, 0, 63, 52
1, 226632, Note_on_c, 0, 76, 0
1, 226652, Note_on_c, 0, 75, 0
1, 226688, Note_on_c, 0, 78, 0
1, 226750, Note_on_c, 0, 78, 72
1, 226760, Note_on_c, 0, 75, 56
1, 226763, Note_on_c, 0, 63, 0
1, 226766, Note_on_c, 0, 62, 61
1, 226818, Control_c, 0, 64, 0
1, 226840, Note_on_c, 0, 75, 0
1, 226862, Note_on_c, 0, 78, 0
1, 226926, Note_on_c, 0, 78, 69
1, 226928, Note_on_c, 0, 75, 55
1, 226934, Note_on_c, 0, 61, 60
1, 226946, Note_on_c, 0, 62, 0
1, 227028, Note_on_c, 0, 75, 0
1, 227031, Note_on_c, 0, 78, 0
1, 227110, Note_on_c, 0, 75, 59
1, 227110, Note_on_c, 0, 78, 62
1, 227118, Note_on_c, 0, 60, 64
1, 227128, Note_on_c, 0, 61, 0
1, 227198, Note_on_c, 0, 75, 0
1, 227220, Note_on_c, 0, 78, 0
1, 227288, Note_on_c, 0, 78, 71
1, 227296, Note_on_c, 0, 75, 56
1, 227302, Note_on_c, 0, 60, 0
1, 227310, Note_on_c, 0, 59, 57
1, 227356, Note_on_c, 0, 75, 0
1, 227394, Note_on_c, 0, 78, 0
1, 227498, Note_on_c, 0, 59, 0
1, 227506, Note_on_c, 0, 58, 41
1, 227522, Note_on_c, 0, 75, 52
1, 227522, Note_on_c, 0, 78, 64
1, 227730, Note_on_c, 0, 58, 0
1, 227740, Note_on_c, 0, 57, 37
1, 227934, Note_on_c, 0, 57, 0
1, 227966, Note_on_c, 0, 58, 31
1, 227969, Note_on_c, 0, 75, 0
1, 227976, Note_on_c, 0, 77, 57
1, 227986, Note_on_c, 0, 78, 0
1, 227989, Note_on_c, 0, 74, 45
1, 228078, Note_on_c, 0, 58, 0
1, 228124, Control_c, 0, 64, 127
1, 228206, Note_on_c, 0, 74, 0
1, 228228, Note_on_c, 0, 73, 46
1, 228240, Note_on_c, 0, 70, 34
1, 228250, Note_on_c, 0, 82, 66
1, 228270, Note_on_c, 0, 77, 0
1, 228304, Note_on_c, 0, 73, 0
1, 228304, Note_on_c, 0, 70, 0
1, 228324, Control_c, 0, 64, 0
1, 228432, Note_on_c, 0, 73, 54
1, 228442, Note_on_c, 0, 81, 70
1, 228464, Note_on_c, 0, 70, 34
1, 228508, Note_on_c, 0, 73, 0
1, 228520, Note_on_c, 0, 82, 0
1, 228526, Note_on_c, 0, 70, 0
1, 228616, Note_on_c, 0, 73, 54
1, 228624, Note_on_c, 0, 80, 78
1, 228624, Note_on_c, 0, 70, 32
1, 228674, Note_on_c, 0, 81, 0
1, 228690, Note_on_c, 0, 70, 0
1, 228694, Note_on_c, 0, 73, 0
1, 228804, Note_on_c, 0, 73, 57
1, 228814, Note_on_c, 0, 79, 87
1, 228820, Note_on_c, 0, 70, 48
1, 228830, Note_on_c, 0, 80, 0
1, 228868, Note_on_c, 0, 70, 0
1, 228898, Note_on_c, 0, 73, 0
1, 228992, Note_on_c, 0, 78, 70
1, 228998, Note_on_c, 0, 73, 57
1, 229032, Note_on_c, 0, 70, 38
1, 229048, Note_on_c, 0, 79, 0
1, 229054, Note_on_c, 0, 73, 0
1, 229096, Note_on_c, 0, 70, 0
1, 229210, Note_on_c, 0, 77, 57
1, 229216, Note_on_c, 0, 73, 55
1, 229244, Note_on_c, 0, 70, 26
1, 229254, Note_on_c, 0, 78, 0
1, 229426, Note_on_c, 0, 76, 46
1, 229444, Note_on_c, 0, 77, 0
1, 229460, Control_c, 0, 64, 127
1, 229568, Note_on_c, 0, 73, 0
1, 229622, Note_on_c, 0, 70, 0
1, 229638, Note_on_c, 0, 77, 47
1, 229640, Note_on_c, 0, 72, 39
1, 229656, Note_on_c, 0, 76, 0
1, 229676, Note_on_c, 0, 68, 14
1, 229708, Note_on_c, 0, 72, 0
1, 229752, Note_on_c, 0, 68, 0
1, 229832, Note_on_c, 0, 68, 36
1, 229832, Note_on_c, 0, 80, 74
1, 229844, Note_on_c, 0, 71, 65
1, 229900, Note_on_c, 0, 77, 0
1, 229906, Note_on_c, 0, 71, 0
1, 229906, Control_c, 0, 64, 0
1, 229909, Note_on_c, 0, 68, 0
1, 230028, Note_on_c, 0, 79, 89
1, 230046, Note_on_c, 0, 71, 73
1, 230046, Note_on_c, 0, 68, 54
1, 230102, Note_on_c, 0, 71, 0
1, 230106, Note_on_c, 0, 68, 0
1, 230120, Note_on_c, 0, 80, 0
1, 230216, Note_on_c, 0, 78, 81
1, 230226, Note_on_c, 0, 71, 75
1, 230232, Note_on_c, 0, 68, 52
1, 230266, Note_on_c, 0, 79, 0
1, 230280, Note_on_c, 0, 71, 0
1, 230296, Note_on_c, 0, 68, 0
1, 230416, Note_on_c, 0, 77, 84
1, 230419, Note_on_c, 0, 71, 83
1, 230428, Note_on_c, 0, 68, 56
1, 230446, Note_on_c, 0, 78, 0
1, 230478, Note_on_c, 0, 68, 0
1, 230490, Note_on_c, 0, 71, 0
1, 230606, Note_on_c, 0, 76, 76
1, 230626, Note_on_c, 0, 68, 59
1, 230626, Note_on_c, 0, 71, 83
1, 230682, Note_on_c, 0, 77, 0
1, 230694, Note_on_c, 0, 68, 0
1, 230710, Note_on_c, 0, 71, 0
1, 230838, Note_on_c, 0, 75, 66
1, 230872, Note_on_c, 0, 68, 26
1, 230874, Note_on_c, 0, 71, 52
1, 230910, Note_on_c, 0, 76, 0
1, 231104, Note_on_c, 0, 74, 55
1, 231172, Note_on_c, 0, 75, 0
1, 231314, Note_on_c, 0, 74, 0
1, 231338, Note_on_c, 0, 71, 0
1, 231338, Note_on_c, 0, 75, 51
1, 231350, Note_on_c, 0, 68, 0
1, 231374, Note_on_c, 0, 70, 19
1, 231400, Note_on_c, 0, 67, 16
1, 231550, Control_c, 0, 64, 127
1, 231553, Note_on_c, 0, 87, 89
1, 231610, Note_on_c, 0, 75, 0
1, 231872, Note_on_c, 0, 87, 0
1, 231900, Note_on_c, 0, 86, 94
1, 231926, Note_on_c, 0, 70, 0
1, 231964, Note_on_c, 0, 67, 0
1, 232186, Note_on_c, 0, 85, 91
1, 232276, Note_on_c, 0, 86, 0
1, 232444, Note_on_c, 0, 84, 105
1, 232532, Control_c, 0, 64, 0
1, 232554, Note_on_c, 0, 85, 0
1, 232686, Control_c, 0, 64, 127
1, 232718, Note_on_c, 0, 83, 117
1, 232780, Note_on_c, 0, 84, 0
1, 233092, Note_on_c, 0, 82, 99
1, 233102, Note_on_c, 0, 63, 80
1, 233105, Note_on_c, 0, 60, 73
1, 233192, Note_on_c, 0, 83, 0
1, 233656, Control_c, 0, 64, 0
1, 233886, Control_c, 0, 64, 127
1, 234324, Note_on_c, 0, 60, 0
1, 234488, Note_on_c, 0, 63, 0
1, 234650, Note_on_c, 0, 82, 0
1, 234676, Note_on_c, 0, 60, 61
1, 234808, Note_on_c, 0, 63, 68
1, 234928, Note_on_c, 0, 65, 66
1, 235006, Note_on_c, 0, 81, 91
1, 235008, Note_on_c, 0, 75, 66
1, 235011, Note_on_c, 0, 72, 62
1, 235011, Note_on_c, 0, 77, 74
1, 235026, Note_on_c, 0, 69, 64
1, 235990, Control_c, 0, 64, 0
1, 236220, Control_c, 0, 64, 127
1, 237310, Note_on_c, 0, 65, 0
1, 237315, Note_on_c, 0, 72, 0
1, 237320, Note_on_c, 0, 69, 0
1, 237326, Note_on_c, 0, 81, 0
1, 237352, Note_on_c, 0, 77, 0
1, 237355, Note_on_c, 0, 63, 0
1, 237364, Note_on_c, 0, 75, 0
1, 237396, Note_on_c, 0, 60, 0
1, 237450, Control_c, 0, 64, 0
1, 237700, Note_on_c, 0, 80, 83
1, 237896, Control_c, 0, 64, 127
1, 237974, Note_on_c, 0, 80, 0
1, 238102, Note_on_c, 0, 79, 91
1, 238338, Note_on_c, 0, 79, 0
1, 238408, Note_on_c, 0, 78, 86
1, 238480, Control_c, 0, 64, 0
1, 238618, Control_c, 0, 64, 127
1, 238682, Note_on_c, 0, 78, 0
1, 238732, Note_on_c, 0, 77, 84
1, 238786, Control_c, 0, 64, 0
1, 238956, Control_c, 0, 64, 127
1, 239148, Note_on_c, 0, 76, 54
1, 239206, Note_on_c, 0, 77, 0
1, 239232, Control_c, 0, 64, 0
1, 239432, Control_c, 0, 64, 127
1, 239566, Note_on_c, 0, 76, 0
1, 239778, Note_on_c, 0, 75, 31
1, 239794, Note_on_c, 0, 68, 17
1, 239798, Note_on_c, 0, 65, 14
1, 239798, Note_on_c, 0, 58, 7
1, 240016, Control_c, 0, 64, 0
1, 240338, Control_c, 0, 64, 127
1, 241250, Note_on_c, 0, 74, 24
1, 241256, Note_on_c, 0, 75, 0
1, 241290, Control_c, 0, 64, 0
1, 241506, Control_c, 0, 64, 127
1, 241516, Note_on_c, 0, 74, 0
1, 241844, Note_on_c, 0, 84, 89
1, 242016, Note_on_c, 0, 65, 0
1, 242032, Note_on_c, 0, 68, 0
1, 242038, Note_on_c, 0, 58, 0
1, 242198, Control_c, 0, 64, 0
1, 242384, Note_on_c, 0, 84, 0
1, 242412, Control_c, 0, 64, 127
1, 242434, Note_on_c, 0, 83, 106
1, 242796, Note_on_c, 0, 83, 0
1, 242892, Note_on_c, 0, 82, 81
1, 243170, Note_on_c, 0, 82, 0
1, 243286, Note_on_c, 0, 81, 81
1, 243614, Note_on_c, 0, 81, 0
1, 243617, Note_on_c, 0, 80, 88
1, 243884, Note_on_c, 0, 80, 0
1, 243960, Note_on_c, 0, 79, 100
1, 244118, Control_c, 0, 64, 0
1, 244268, Note_on_c, 0, 79, 0
1, 244272, Control_c, 0, 64, 127
1, 244342, Note_on_c, 0, 78, 91
1, 244548, Control_c, 0, 64, 0
1, 244670, Control_c, 0, 64, 127
1, 244694, Note_on_c, 0, 78, 0
1, 244764, Note_on_c, 0, 77, 90
1, 244964, Control_c, 0, 64, 0
1, 245132, Control_c, 0, 64, 127
1, 245158, Note_on_c, 0, 77, 0
1, 245274, Note_on_c, 0, 76, 80
1, 245454, Control_c, 0, 64, 0
1, 245624, Control_c, 0, 64, 127
1, 245796, Note_on_c, 0, 76, 0
1, 246116, Note_on_c, 0, 75, 81
1, 246130, Note_on_c, 0, 68, 31
1, 246130, Note_on_c, 0, 65, 27
1, 246133, Note_on_c, 0, 58, 23
1, 246792, Control_c, 0, 64, 0
1, 247190, Control_c, 0, 64, 127
1, 247916, Note_on_c, 0, 74, 72
1, 248000, Note_on_c, 0, 75, 0
1, 248206, Note_on_c, 0, 75, 77
1, 248276, Note_on_c, 0, 74, 0
1, 248436, Note_on_c, 0, 77, 67
1, 248436, Control_c, 0, 64, 0
1, 248470, Note_on_c, 0, 75, 0
1, 248636, Control_c, 0, 64, 127
1, 248668, Note_on_c, 0, 75, 57
1, 248724, Note_on_c, 0, 77, 0
1, 248866, Note_on_c, 0, 74, 56
1, 248906, Note_on_c, 0, 75, 0
1, 249004, Control_c, 0, 64, 0
1, 249066, Note_on_c, 0, 77, 45
1, 249094, Note_on_c, 0, 74, 0
1, 249374, Control_c, 0, 64, 127
1, 249562, Note_on_c, 0, 75, 28
1, 249598, Note_on_c, 0, 77, 0
1, 249772, Control_c, 0, 64, 0
1, 249926, Control_c, 0, 64, 127
1, 250186, Note_on_c, 0, 74, 26
1, 250206, Note_on_c, 0, 75, 0
1, 250372, Control_c, 0, 64, 0
1, 250602, Control_c, 0, 64, 127
1, 250748, Note_on_c, 0, 74, 0
1, 251286, Note_on_c, 0, 74, 14
1, 251902, Note_on_c, 0, 74, 0
1, 253240, Note_on_c, 0, 68, 0
1, 253246, Note_on_c, 0, 65, 0
1, 253476, Note_on_c, 0, 58, 0
1, 253752, Control_c, 0, 64, 0
1, 254076, Note_on_c, 0, 67, 36
1, 254142, Note_on_c, 0, 67, 0
1, 254244, Note_on_c, 0, 67, 40
1, 254306, Note_on_c, 0, 67, 0
1, 254428, Note_on_c, 0, 67, 31
1, 254492, Note_on_c, 0, 67, 0
1, 254612, Note_on_c, 0, 67, 30
1, 254678, Note_on_c, 0, 67, 0
1, 254762, Note_on_c, 0, 67, 40
1, 254822, Note_on_c, 0, 67, 0
1, 254932, Note_on_c, 0, 39, 39
1, 254942, Note_on_c, 0, 67, 50
1, 255118, Note_on_c, 0, 51, 41
1, 255180, Note_on_c, 0, 51, 0
1, 255294, Note_on_c, 0, 70, 38
1, 255300, Note_on_c, 0, 51, 31
1, 255326, Note_on_c, 0, 67, 0
1, 255366, Note_on_c, 0, 51, 0
1, 255454, Note_on_c, 0, 63, 62
1, 255454, Note_on_c, 0, 51, 45
1, 255488, Note_on_c, 0, 70, 0
1, 255508, Note_on_c, 0, 51, 0
1, 255618, Note_on_c, 0, 51, 48
1, 255622, Note_on_c, 0, 62, 69
1, 255638, Note_on_c, 0, 63, 0
1, 255692, Note_on_c, 0, 51, 0
1, 255790, Note_on_c, 0, 51, 45
1, 255804, Note_on_c, 0, 65, 64
1, 255820, Note_on_c, 0, 62, 0
1, 255864, Note_on_c, 0, 51, 0
1, 255962, Note_on_c, 0, 51, 42
1, 255964, Note_on_c, 0, 68, 58
1, 255984, Note_on_c, 0, 65, 0
1, 256024, Note_on_c, 0, 51, 0
1, 256122, Note_on_c, 0, 68, 0
1, 256134, Note_on_c, 0, 51, 33
1, 256136, Note_on_c, 0, 62, 65
1, 256170, Note_on_c, 0, 39, 0
1, 256198, Note_on_c, 0, 51, 0
1, 256306, Note_on_c, 0, 63, 67
1, 256310, Note_on_c, 0, 62, 0
1, 256338, Note_on_c, 0, 39, 44
1, 256496, Note_on_c, 0, 51, 41
1, 256506, Note_on_c, 0, 67, 46
1, 256510, Note_on_c, 0, 63, 0
1, 256556, Note_on_c, 0, 51, 0
1, 256644, Note_on_c, 0, 67, 0
1, 256647, Note_on_c, 0, 51, 36
1, 256662, Note_on_c, 0, 58, 38
1, 256714, Note_on_c, 0, 51, 0
1, 256730, Note_on_c, 0, 58, 0
1, 256820, Note_on_c, 0, 58, 35
1, 256834, Note_on_c, 0, 51, 32
1, 256894, Note_on_c, 0, 51, 0
1, 257004, Note_on_c, 0, 51, 36
1, 257004, Note_on_c, 0, 56, 57
1, 257046, Note_on_c, 0, 58, 0
1, 257062, Note_on_c, 0, 51, 0
1, 257184, Note_on_c, 0, 62, 55
1, 257188, Note_on_c, 0, 51, 32
1, 257206, Note_on_c, 0, 56, 0
1, 257252, Note_on_c, 0, 51, 0
1, 257346, Note_on_c, 0, 51, 36
1, 257348, Note_on_c, 0, 65, 47
1, 257360, Note_on_c, 0, 62, 0
1, 257416, Note_on_c, 0, 51, 0
1, 257506, Note_on_c, 0, 65, 0
1, 257520, Note_on_c, 0, 51, 31
1, 257523, Note_on_c, 0, 62, 53
1, 257544, Note_on_c, 0, 39, 0
1, 257586, Note_on_c, 0, 51, 0
1, 257687, Note_on_c, 0, 62, 0
1, 257700, Note_on_c, 0, 63, 55
1, 257728, Note_on_c, 0, 39, 44
1, 257858, Note_on_c, 0, 63, 0
1, 257894, Note_on_c, 0, 67, 41
1, 257904, Note_on_c, 0, 51, 27
1, 257978, Note_on_c, 0, 51, 0
1, 258040, Note_on_c, 0, 67, 0
1, 258060, Note_on_c, 0, 58, 31
1, 258064, Note_on_c, 0, 51, 41
1, 258120, Note_on_c, 0, 51, 0
1, 258126, Note_on_c, 0, 58, 0
1, 258226, Note_on_c, 0, 51, 30
1, 258229, Note_on_c, 0, 58, 18
1, 258292, Note_on_c, 0, 51, 0
1, 258408, Note_on_c, 0, 56, 44
1, 258418, Note_on_c, 0, 51, 28
1, 258468, Note_on_c, 0, 58, 0
1, 258488, Note_on_c, 0, 51, 0
1, 258608, Note_on_c, 0, 51, 27
1, 258618, Note_on_c, 0, 62, 38
1, 258626, Note_on_c, 0, 56, 0
1, 258678, Note_on_c, 0, 51, 0
1, 258808, Note_on_c, 0, 62, 0
1, 258822, Note_on_c, 0, 65, 28
1, 258827, Note_on_c, 0, 51, 23
1, 258898, Note_on_c, 0, 51, 0
1, 259036, Note_on_c, 0, 65, 0
1, 259048, Note_on_c, 0, 51, 20
1, 259052, Note_on_c, 0, 62, 31
1, 259072, Note_on_c, 0, 39, 0
1, 259138, Note_on_c, 0, 51, 0
1, 259310, Note_on_c, 0, 62, 0
1, 259340, Note_on_c, 0, 63, 31
1, 259344, Note_on_c, 0, 39, 21
1, 259706, Note_on_c, 0, 63, 0
1, 259728, Note_on_c, 0, 39, 0
1, 260274, Note_on_c, 0, 68, 28
1, 260338, Note_on_c, 0, 68, 0
1, 260440, Note_on_c, 0, 68, 32
1, 260514, Note_on_c, 0, 68, 0
1, 260602, Note_on_c, 0, 68, 44
1, 260666, Note_on_c, 0, 68, 0
1, 260768, Note_on_c, 0, 68, 49
1, 260828, Note_on_c, 0, 68, 0
1, 260944, Note_on_c, 0, 68, 40
1, 260996, Note_on_c, 0, 68, 0
1, 261142, Note_on_c, 0, 41, 36
1, 261168, Note_on_c, 0, 68, 42
1, 261338, Note_on_c, 0, 53, 37
1, 261404, Note_on_c, 0, 53, 0
1, 261504, Note_on_c, 0, 53, 55
1, 261520, Note_on_c, 0, 72, 39
1, 261522, Note_on_c, 0, 68, 0
1, 261564, Note_on_c, 0, 53, 0
1, 261648, Note_on_c, 0, 72, 0
1, 261698, Note_on_c, 0, 65, 56
1, 261704, Note_on_c, 0, 53, 59
1, 261756, Note_on_c, 0, 53, 0
1, 261866, Note_on_c, 0, 65, 0
1, 261868, Note_on_c, 0, 61, 65
1, 261880, Note_on_c, 0, 64, 70
1, 262064, Note_on_c, 0, 55, 48
1, 262068, Note_on_c, 0, 67, 60
1, 262094, Note_on_c, 0, 64, 0
1, 262126, Note_on_c, 0, 55, 0
1, 262232, Note_on_c, 0, 70, 47
1, 262246, Note_on_c, 0, 67, 0
1, 262246, Note_on_c, 0, 55, 45
1, 262368, Note_on_c, 0, 41, 0
1, 262402, Note_on_c, 0, 70, 0
1, 262414, Note_on_c, 0, 64, 57
1, 262417, Control_c, 0, 64, 127
1, 262468, Note_on_c, 0, 55, 0
1, 262582, Note_on_c, 0, 61, 0
1, 262585, Control_c, 0, 64, 0
1, 262591, Note_on_c, 0, 41, 43
1, 262602, Note_on_c, 0, 60, 40
1, 262602, Note_on_c, 0, 65, 39
1, 262614, Note_on_c, 0, 64, 0
1, 262764, Note_on_c, 0, 56, 44
1, 262804, Note_on_c, 0, 68, 35
1, 262822, Note_on_c, 0, 56, 0
1, 262846, Note_on_c, 0, 65, 0
1, 262854, Note_on_c, 0, 60, 0
1, 262940, Control_c, 0, 64, 127
1, 262948, Note_on_c, 0, 60, 51
1, 262954, Note_on_c, 0, 56, 46
1, 263012, Note_on_c, 0, 56, 0
1, 263036, Note_on_c, 0, 60, 0
1, 263042, Note_on_c, 0, 68, 0
1, 263116, Note_on_c, 0, 60, 68
1, 263124, Note_on_c, 0, 56, 40
1, 263166, Note_on_c, 0, 60, 0
1, 263182, Note_on_c, 0, 56, 0
1, 263296, Note_on_c, 0, 61, 74
1, 263312, Note_on_c, 0, 64, 57
1, 263356, Control_c, 0, 64, 0
1, 263462, Note_on_c, 0, 55, 54
1, 263488, Note_on_c, 0, 67, 52
1, 263508, Note_on_c, 0, 64, 0
1, 263526, Note_on_c, 0, 55, 0
1, 263650, Note_on_c, 0, 70, 40
1, 263660, Note_on_c, 0, 67, 0
1, 263662, Note_on_c, 0, 55, 38
1, 263738, Note_on_c, 0, 55, 0
1, 263770, Control_c, 0, 64, 127
1, 263818, Note_on_c, 0, 41, 0
1, 263838, Note_on_c, 0, 64, 44
1, 263841, Note_on_c, 0, 55, 31
1, 263844, Note_on_c, 0, 70, 0
1, 263916, Note_on_c, 0, 55, 0
1, 263964, Note_on_c, 0, 61, 0
1, 264000, Control_c, 0, 64, 0
1, 264016, Note_on_c, 0, 60, 38
1, 264024, Note_on_c, 0, 41, 34
1, 264024, Note_on_c, 0, 65, 34
1, 264048, Note_on_c, 0, 64, 0
1, 264196, Note_on_c, 0, 56, 39
1, 264220, Note_on_c, 0, 68, 32
1, 264258, Note_on_c, 0, 60, 0
1, 264261, Note_on_c, 0, 56, 0
1, 264261, Control_c, 0, 64, 127
1, 264290, Note_on_c, 0, 65, 0
1, 264370, Note_on_c, 0, 60, 41
1, 264404, Note_on_c, 0, 56, 18
1, 264446, Note_on_c, 0, 68, 0
1, 264448, Note_on_c, 0, 60, 0
1, 264470, Note_on_c, 0, 56, 0
1, 264548, Note_on_c, 0, 60, 42
1, 264548, Note_on_c, 0, 56, 49
1, 264600, Control_c, 0, 64, 0
1, 264604, Note_on_c, 0, 60, 0
1, 264624, Note_on_c, 0, 56, 0
1, 264738, Note_on_c, 0, 61, 50
1, 264756, Note_on_c, 0, 64, 42
1, 264928, Note_on_c, 0, 55, 43
1, 264931, Note_on_c, 0, 64, 0
1, 264944, Note_on_c, 0, 67, 28
1, 264994, Note_on_c, 0, 55, 0
1, 265116, Note_on_c, 0, 70, 28
1, 265134, Note_on_c, 0, 67, 0
1, 265164, Note_on_c, 0, 55, 28
1, 265198, Control_c, 0, 64, 127
1, 265238, Note_on_c, 0, 55, 0
1, 265314, Note_on_c, 0, 41, 0
1, 265338, Note_on_c, 0, 64, 35
1, 265346, Note_on_c, 0, 55, 30
1, 265376, Note_on_c, 0, 70, 0
1, 265418, Note_on_c, 0, 55, 0
1, 265468, Note_on_c, 0, 61, 0
1, 265598, Control_c, 0, 64, 0
1, 265620, Note_on_c, 0, 64, 0
1, 265684, Note_on_c, 0, 65, 29
1, 265690, Note_on_c, 0, 60, 22
1, 265691, Note_on_c, 0, 56, 38
1, 265694, Note_on_c, 0, 41, 21
1, 266090, Control_c, 0, 64, 127
1, 266145, Note_on_c, 0, 56, 0
1, 266148, Note_on_c, 0, 41, 0
1, 266148, Note_on_c, 0, 60, 0
1, 266172, Note_on_c, 0, 65, 0
1, 266382, Control_c, 0, 64, 0
1, 266910, Note_on_c, 0, 46, 103
1, 266916, Note_on_c, 0, 34, 100
1, 267006, Note_on_c, 0, 46, 0
1, 267026, Note_on_c, 0, 34, 0
1, 267074, Note_on_c, 0, 46, 85
1, 267078, Note_on_c, 0, 34, 97
1, 267164, Note_on_c, 0, 34, 0
1, 267174, Note_on_c, 0, 46, 0
1, 267244, Note_on_c, 0, 46, 88
1, 267252, Note_on_c, 0, 34, 87
1, 267336, Note_on_c, 0, 34, 0
1, 267342, Note_on_c, 0, 46, 0
1, 267406, Note_on_c, 0, 46, 86
1, 267414, Note_on_c, 0, 34, 85
1, 267500, Note_on_c, 0, 34, 0
1, 267506, Note_on_c, 0, 46, 0
1, 267586, Note_on_c, 0, 46, 83
1, 267592, Note_on_c, 0, 34, 88
1, 267598, Note_on_c, 0, 84, 98
1, 267670, Note_on_c, 0, 34, 0
1, 267674, Note_on_c, 0, 46, 0
1, 267687, Note_on_c, 0, 82, 78
1, 267772, Note_on_c, 0, 46, 98
1, 267778, Note_on_c, 0, 80, 89
1, 267782, Note_on_c, 0, 34, 95
1, 267792, Note_on_c, 0, 84, 0
1, 267812, Control_c, 0, 64, 127
1, 267824, Note_on_c, 0, 34, 0
1, 267856, Note_on_c, 0, 82, 0
1, 267878, Note_on_c, 0, 46, 0
1, 267878, Note_on_c, 0, 79, 95
1, 267940, Note_on_c, 0, 80, 0
1, 267970, Note_on_c, 0, 77, 75
1, 267976, Note_on_c, 0, 79, 0
1, 268068, Note_on_c, 0, 75, 74
1, 268092, Note_on_c, 0, 77, 0
1, 268152, Note_on_c, 0, 75, 0
1, 268156, Note_on_c, 0, 53, 101
1, 268156, Note_on_c, 0, 74, 82
1, 268242, Note_on_c, 0, 75, 69
1, 268256, Note_on_c, 0, 74, 0
1, 268324, Note_on_c, 0, 77, 81
1, 268352, Note_on_c, 0, 44, 76
1, 268362, Note_on_c, 0, 75, 0
1, 268380, Note_on_c, 0, 53, 0
1, 268410, Control_c, 0, 64, 0
1, 268416, Note_on_c, 0, 74, 81
1, 268434, Note_on_c, 0, 77, 0
1, 268501, Note_on_c, 0, 75, 84
1, 268512, Note_on_c, 0, 43, 88
1, 268524, Note_on_c, 0, 74, 0
1, 268534, Note_on_c, 0, 44, 0
1, 268586, Note_on_c, 0, 79, 89
1, 268602, Note_on_c, 0, 75, 0
1, 268682, Note_on_c, 0, 77, 80
1, 268692, Note_on_c, 0, 46, 69
1, 268748, Note_on_c, 0, 79, 0
1, 268774, Note_on_c, 0, 43, 0
1, 268780, Note_on_c, 0, 75, 68
1, 268794, Control_c, 0, 64, 127
1, 268804, Note_on_c, 0, 77, 0
1, 268866, Note_on_c, 0, 74, 78
1, 268878, Note_on_c, 0, 51, 81
1, 268894, Note_on_c, 0, 75, 0
1, 268910, Note_on_c, 0, 74, 0
1, 268913, Note_on_c, 0, 46, 0
1, 268950, Note_on_c, 0, 72, 63
1, 269046, Note_on_c, 0, 70, 69
1, 269064, Note_on_c, 0, 43, 83
1, 269074, Note_on_c, 0, 51, 0
1, 269077, Note_on_c, 0, 72, 0
1, 269106, Note_on_c, 0, 70, 0
1, 269116, Note_on_c, 0, 75, 75
1, 269162, Control_c, 0, 64, 0
1, 269214, Note_on_c, 0, 44, 78
1, 269220, Note_on_c, 0, 75, 0
1, 269223, Note_on_c, 0, 43, 0
1, 269228, Note_on_c, 0, 74, 86
1, 269304, Note_on_c, 0, 75, 72
1, 269340, Note_on_c, 0, 74, 0
1, 269400, Note_on_c, 0, 77, 82
1, 269404, Note_on_c, 0, 50, 73
1, 269414, Note_on_c, 0, 75, 0
1, 269492, Note_on_c, 0, 79, 92
1, 269522, Note_on_c, 0, 77, 0
1, 269588, Note_on_c, 0, 53, 96
1, 269590, Note_on_c, 0, 80, 84
1, 269610, Note_on_c, 0, 79, 0
1, 269616, Note_on_c, 0, 50, 0
1, 269650, Note_on_c, 0, 44, 0
1, 269680, Note_on_c, 0, 77, 72
1, 269688, Note_on_c, 0, 80, 0
1, 269772, Note_on_c, 0, 44, 76
1, 269776, Note_on_c, 0, 75, 73
1, 269806, Note_on_c, 0, 77, 0
1, 269824, Note_on_c, 0, 53, 0
1, 269840, Note_on_c, 0, 75, 0
1, 269858, Note_on_c, 0, 74, 77
1, 269946, Note_on_c, 0, 43, 76
1, 269950, Note_on_c, 0, 74, 0
1, 269950, Note_on_c, 0, 75, 66
1, 269984, Note_on_c, 0, 44, 0
1, 270036, Note_on_c, 0, 79, 74
1, 270054, Note_on_c, 0, 75, 0
1, 270132, Note_on_c, 0, 77, 67
1, 270138, Note_on_c, 0, 46, 59
1, 270164, Note_on_c, 0, 79, 0
1, 270222, Note_on_c, 0, 43, 0
1, 270222, Note_on_c, 0, 75, 61
1, 270234, Note_on_c, 0, 77, 0
1, 270318, Note_on_c, 0, 74, 60
1, 270326, Note_on_c, 0, 51, 56
1, 270334, Note_on_c, 0, 75, 0
1, 270358, Note_on_c, 0, 46, 0
1, 270358, Note_on_c, 0, 74, 0
1, 270394, Note_on_c, 0, 72, 49
1, 270480, Note_on_c, 0, 51, 0
1, 270484, Note_on_c, 0, 70, 57
1, 270500, Note_on_c, 0, 43, 75
1, 270514, Note_on_c, 0, 72, 0
1, 270552, Note_on_c, 0, 70, 0
1, 270562, Note_on_c, 0, 75, 64
1, 270626, Note_on_c, 0, 75, 0
1, 270658, Note_on_c, 0, 44, 78
1, 270666, Note_on_c, 0, 74, 79
1, 270688, Note_on_c, 0, 43, 0
1, 270738, Note_on_c, 0, 74, 0
1, 270746, Note_on_c, 0, 75, 74
1, 270814, Note_on_c, 0, 75, 0
1, 270838, Note_on_c, 0, 50, 76
1, 270852, Note_on_c, 0, 77, 55
1, 270930, Note_on_c, 0, 77, 0
1, 270930, Note_on_c, 0, 79, 84
1, 271012, Note_on_c, 0, 53, 92
1, 271018, Note_on_c, 0, 79, 0
1, 271022, Note_on_c, 0, 80, 77
1, 271044, Note_on_c, 0, 50, 0
1, 271058, Note_on_c, 0, 44, 0
1, 271108, Note_on_c, 0, 80, 0
1, 271122, Note_on_c, 0, 77, 64
1, 271194, Note_on_c, 0, 53, 0
1, 271194, Note_on_c, 0, 44, 78
1, 271212, Note_on_c, 0, 75, 68
1, 271240, Note_on_c, 0, 77, 0
1, 271270, Note_on_c, 0, 75, 0
1, 271294, Note_on_c, 0, 74, 62
1, 271322, Note_on_c, 0, 44, 0
1, 271362, Note_on_c, 0, 74, 0
1, 271362, Note_on_c, 0, 43, 82
1, 271376, Note_on_c, 0, 75, 67
1, 271472, Note_on_c, 0, 77, 71
1, 271508, Note_on_c, 0, 75, 0
1, 271540, Note_on_c, 0, 46, 72
1, 271556, Note_on_c, 0, 79, 82
1, 271572, Note_on_c, 0, 77, 0
1, 271596, Note_on_c, 0, 43, 0
1, 271646, Note_on_c, 0, 77, 64
1, 271702, Note_on_c, 0, 79, 0
1, 271734, Note_on_c, 0, 75, 62
1, 271740, Note_on_c, 0, 51, 65
1, 271764, Note_on_c, 0, 77, 0
1, 271776, Note_on_c, 0, 46, 0
1, 271820, Note_on_c, 0, 74, 64
1, 271866, Note_on_c, 0, 75, 0
1, 271869, Note_on_c, 0, 74, 0
1, 271872, Note_on_c, 0, 51, 0
1, 271908, Note_on_c, 0, 55, 71
1, 271914, Note_on_c, 0, 72, 47
1, 271988, Note_on_c, 0, 70, 57
1, 271996, Note_on_c, 0, 72, 0
1, 272048, Note_on_c, 0, 70, 0
1, 272060, Note_on_c, 0, 55, 0
1, 272078, Note_on_c, 0, 72, 61
1, 272088, Note_on_c, 0, 44, 76
1, 272178, Note_on_c, 0, 75, 67
1, 272190, Note_on_c, 0, 72, 0
1, 272246, Note_on_c, 0, 48, 69
1, 272272, Note_on_c, 0, 77, 77
1, 272286, Note_on_c, 0, 75, 0
1, 272300, Note_on_c, 0, 44, 0
1, 272362, Note_on_c, 0, 75, 65
1, 272390, Note_on_c, 0, 77, 0
1, 272432, Note_on_c, 0, 53, 92
1, 272456, Note_on_c, 0, 74, 84
1, 272484, Note_on_c, 0, 75, 0
1, 272484, Note_on_c, 0, 48, 0
1, 272516, Note_on_c, 0, 74, 0
1, 272542, Note_on_c, 0, 72, 63
1, 272596, Note_on_c, 0, 53, 0
1, 272602, Note_on_c, 0, 56, 84
1, 272605, Note_on_c, 0, 70, 77
1, 272656, Note_on_c, 0, 72, 0
1, 272712, Note_on_c, 0, 68, 68
1, 272760, Note_on_c, 0, 70, 0
1, 272780, Note_on_c, 0, 56, 0
1, 272786, Note_on_c, 0, 67, 92
1, 272794, Note_on_c, 0, 58, 81
1, 272824, Note_on_c, 0, 68, 0
1, 272856, Note_on_c, 0, 58, 0
1, 272866, Note_on_c, 0, 70, 64
1, 272884, Note_on_c, 0, 67, 0
1, 272954, Note_on_c, 0, 67, 73
1, 272964, Note_on_c, 0, 58, 64
1, 272974, Note_on_c, 0, 70, 0
1, 273014, Note_on_c, 0, 58, 0
1, 273017, Note_on_c, 0, 67, 0
1, 273036, Note_on_c, 0, 70, 67
1, 273100, Note_on_c, 0, 70, 0
1, 273130, Note_on_c, 0, 65, 66
1, 273140, Note_on_c, 0, 58, 66
1, 273180, Note_on_c, 0, 65, 0
1, 273188, Note_on_c, 0, 58, 0
1, 273216, Note_on_c, 0, 68, 69
1, 273264, Note_on_c, 0, 68, 0
1, 273316, Note_on_c, 0, 65, 45
1, 273316, Note_on_c, 0, 58, 53
1, 273366, Note_on_c, 0, 65, 0
1, 273368, Note_on_c, 0, 58, 0
1, 273376, Note_on_c, 0, 68, 49
1, 273434, Note_on_c, 0, 68, 0
1, 273458, Note_on_c, 0, 63, 78
1, 273468, Note_on_c, 0, 46, 92
1, 273530, Note_on_c, 0, 46, 0
1, 273542, Note_on_c, 0, 63, 0
1, 273564, Note_on_c, 0, 67, 59
1, 273622, Note_on_c, 0, 67, 0
1, 273642, Note_on_c, 0, 63, 58
1, 273654, Note_on_c, 0, 46, 66
1, 273700, Note_on_c, 0, 46, 0
1, 273720, Note_on_c, 0, 63, 0
1, 273720, Note_on_c, 0, 67, 46
1, 273816, Note_on_c, 0, 67, 0
1, 273816, Note_on_c, 0, 46, 62
1, 273830, Note_on_c, 0, 62, 58
1, 273880, Note_on_c, 0, 62, 0
1, 273883, Note_on_c, 0, 46, 0
1, 273894, Note_on_c, 0, 65, 64
1, 273946, Note_on_c, 0, 65, 0
1, 273986, Note_on_c, 0, 62, 44
1, 274000, Note_on_c, 0, 46, 67
1, 274046, Note_on_c, 0, 46, 0
1, 274060, Note_on_c, 0, 62, 0
1, 274088, Note_on_c, 0, 65, 51
1, 274166, Note_on_c, 0, 65, 0
1, 274170, Note_on_c, 0, 51, 69
1, 274174, Note_on_c, 0, 63, 68
1, 274226, Note_on_c, 0, 51, 0
1, 274228, Note_on_c, 0, 63, 0
1, 274250, Note_on_c, 0, 58, 41
1, 274318, Note_on_c, 0, 58, 0
1, 274344, Note_on_c, 0, 55, 56
1, 274366, Note_on_c, 0, 63, 48
1, 274396, Note_on_c, 0, 55, 0
1, 274414, Note_on_c, 0, 63, 0
1, 274420, Note_on_c, 0, 58, 33
1, 274490, Note_on_c, 0, 58, 0
1, 274514, Note_on_c, 0, 63, 52
1, 274518, Note_on_c, 0, 51, 55
1, 274568, Note_on_c, 0, 51, 0
1, 274582, Note_on_c, 0, 63, 0
1, 274616, Note_on_c, 0, 58, 36
1, 274680, Note_on_c, 0, 58, 0
1, 274704, Note_on_c, 0, 55, 58
1, 274722, Note_on_c, 0, 63, 58
1, 274754, Note_on_c, 0, 55, 0
1, 274768, Note_on_c, 0, 63, 0
1, 274792, Note_on_c, 0, 58, 24
1, 274876, Note_on_c, 0, 58, 0
1, 274926, Note_on_c, 0, 51, 44
1, 274926, Note_on_c, 0, 63, 72
1, 274968, Note_on_c, 0, 63, 0
1, 274984, Note_on_c, 0, 51, 0
1, 274986, Control_c, 0, 64, 127
1, 275278, Control_c, 0, 64, 0
1, 275728, Note_on_c, 0, 79, 47
1, 275906, Note_on_c, 0, 80, 64
1, 275930, Note_on_c, 0, 79, 0
1, 276084, Note_on_c, 0, 81, 83
1, 276114, Note_on_c, 0, 80, 0
1, 276252, Note_on_c, 0, 82, 86
1, 276312, Note_on_c, 0, 81, 0
1, 276436, Note_on_c, 0, 83, 109
1, 276526, Note_on_c, 0, 82, 0
1, 276678, Note_on_c, 0, 84, 83
1, 276712, Note_on_c, 0, 63, 35
1, 276732, Note_on_c, 0, 83, 0
1, 276916, Note_on_c, 0, 79, 63
1, 276924, Note_on_c, 0, 67, 39
1, 276978, Note_on_c, 0, 84, 0
1, 277000, Note_on_c, 0, 67, 0
1, 277060, Control_c, 0, 64, 127
1, 277120, Note_on_c, 0, 72, 39
1, 277150, Note_on_c, 0, 79, 0
1, 277272, Note_on_c, 0, 79, 88
1, 277284, Note_on_c, 0, 72, 0
1, 277318, Note_on_c, 0, 67, 23
1, 277380, Note_on_c, 0, 79, 0
1, 277420, Note_on_c, 0, 67, 0
1, 277440, Note_on_c, 0, 63, 0
1, 277444, Note_on_c, 0, 79, 83
1, 277474, Note_on_c, 0, 62, 37
1, 277506, Control_c, 0, 64, 0
1, 277644, Note_on_c, 0, 77, 80
1, 277678, Note_on_c, 0, 67, 39
1, 277688, Note_on_c, 0, 79, 0
1, 277784, Note_on_c, 0, 67, 0
1, 277822, Note_on_c, 0, 80, 72
1, 277844, Note_on_c, 0, 71, 50
1, 277846, Note_on_c, 0, 77, 0
1, 277968, Control_c, 0, 64, 127
1, 277994, Note_on_c, 0, 71, 0
1, 278006, Note_on_c, 0, 77, 66
1, 278020, Note_on_c, 0, 80, 0
1, 278030, Note_on_c, 0, 67, 42
1, 278072, Note_on_c, 0, 77, 0
1, 278096, Note_on_c, 0, 67, 0
1, 278174, Note_on_c, 0, 62, 0
1, 278194, Note_on_c, 0, 60, 43
1, 278204, Note_on_c, 0, 77, 48
1, 278228, Control_c, 0, 64, 0
1, 278414, Note_on_c, 0, 75, 49
1, 278438, Note_on_c, 0, 63, 45
1, 278446, Note_on_c, 0, 77, 0
1, 278504, Note_on_c, 0, 63, 0
1, 278620, Note_on_c, 0, 67, 38
1, 278628, Control_c, 0, 64, 127
1, 278662, Note_on_c, 0, 75, 0
1, 278798, Note_on_c, 0, 75, 53
1, 278830, Note_on_c, 0, 63, 31
1, 278856, Note_on_c, 0, 67, 0
1, 278924, Note_on_c, 0, 63, 0
1, 278946, Note_on_c, 0, 60, 0
1, 278966, Control_c, 0, 64, 0
1, 278990, Note_on_c, 0, 58, 33
1, 278998, Note_on_c, 0, 76, 59
1, 279008, Note_on_c, 0, 75, 0
1, 279186, Note_on_c, 0, 77, 65
1, 279226, Note_on_c, 0, 76, 0
1, 279229, Note_on_c, 0, 61, 21
1, 279318, Note_on_c, 0, 61, 0
1, 279364, Note_on_c, 0, 78, 59
1, 279374, Note_on_c, 0, 77, 0
1, 279382, Note_on_c, 0, 63, 32
1, 279552, Note_on_c, 0, 78, 0
1, 279554, Note_on_c, 0, 79, 57
1, 279582, Note_on_c, 0, 63, 0
1, 279588, Note_on_c, 0, 61, 40
1, 279670, Note_on_c, 0, 61, 0
1, 279764, Note_on_c, 0, 79, 0
1, 279784, Note_on_c, 0, 56, 31
1, 279788, Note_on_c, 0, 58, 0
1, 279790, Note_on_c, 0, 80, 43
1, 280022, Note_on_c, 0, 75, 36
1, 280060, Note_on_c, 0, 60, 21
1, 280084, Note_on_c, 0, 80, 0
1, 280134, Control_c, 0, 64, 127
1, 280158, Note_on_c, 0, 60, 0
1, 280214, Note_on_c, 0, 63, 36
1, 280264, Note_on_c, 0, 75, 0
1, 280376, Note_on_c, 0, 75, 50
1, 280384, Note_on_c, 0, 63, 0
1, 280416, Note_on_c, 0, 60, 31
1, 280448, Note_on_c, 0, 75, 0
1, 280502, Note_on_c, 0, 56, 0
1, 280508, Note_on_c, 0, 60, 0
1, 280582, Note_on_c, 0, 55, 38
1, 280585, Note_on_c, 0, 75, 52
1, 280762, Note_on_c, 0, 73, 44
1, 280792, Note_on_c, 0, 75, 0
1, 280804, Note_on_c, 0, 58, 20
1, 280890, Note_on_c, 0, 58, 0
1, 280940, Note_on_c, 0, 73, 0
1, 280940, Note_on_c, 0, 77, 61
1, 280954, Note_on_c, 0, 63, 35
1, 281066, Note_on_c, 0, 63, 0
1, 281086, Control_c, 0, 64, 0
1, 281130, Note_on_c, 0, 73, 62
1, 281136, Note_on_c, 0, 77, 0
1, 281144, Note_on_c, 0, 58, 35
1, 281294, Note_on_c, 0, 73, 0
1, 281308, Note_on_c, 0, 55, 0
1, 281332, Note_on_c, 0, 72, 57
1, 281360, Note_on_c, 0, 56, 34
1, 281368, Note_on_c, 0, 58, 0
1, 281424, Control_c, 0, 64, 127
1, 281580, Note_on_c, 0, 63, 39
1, 281618, Note_on_c, 0, 84, 74
1, 281658, Note_on_c, 0, 72, 0
1, 281702, Control_c, 0, 64, 0
1, 281808, Note_on_c, 0, 56, 0
1, 281808, Note_on_c, 0, 55, 46
1, 281860, Note_on_c, 0, 63, 0
1, 281946, Control_c, 0, 64, 127
1, 282054, Note_on_c, 0, 82, 64
1, 282062, Note_on_c, 0, 64, 37
1, 282146, Control_c, 0, 64, 0
1, 282164, Note_on_c, 0, 55, 0
1, 282170, Note_on_c, 0, 84, 0
1, 282232, Note_on_c, 0, 53, 75
1, 282258, Note_on_c, 0, 64, 0
1, 282346, Control_c, 0, 64, 127
1, 282420, Note_on_c, 0, 53, 0
1, 282422, Note_on_c, 0, 80, 75
1, 282456, Note_on_c, 0, 65, 34
1, 282566, Note_on_c, 0, 82, 0
1, 282608, Control_c, 0, 64, 0
1, 282614, Note_on_c, 0, 55, 59
1, 282778, Note_on_c, 0, 65, 0
1, 282808, Control_c, 0, 64, 127
1, 282808, Note_on_c, 0, 79, 93
1, 282826, Note_on_c, 0, 58, 36
1, 282870, Note_on_c, 0, 55, 0
1, 282894, Note_on_c, 0, 80, 0
1, 283004, Note_on_c, 0, 56, 54
1, 283022, Control_c, 0, 64, 0
1, 283048, Note_on_c, 0, 58, 0
1, 283190, Note_on_c, 0, 77, 91
1, 283192, Control_c, 0, 64, 127
1, 283204, Note_on_c, 0, 60, 53
1, 283210, Note_on_c, 0, 56, 0
1, 283222, Note_on_c, 0, 79, 0
1, 283366, Note_on_c, 0, 60, 0
1, 283384, Note_on_c, 0, 57, 57
1, 283422, Control_c, 0, 64, 0
1, 283558, Note_on_c, 0, 75, 81
1, 283574, Note_on_c, 0, 65, 36
1, 283622, Control_c, 0, 64, 127
1, 283668, Note_on_c, 0, 77, 0
1, 283732, Note_on_c, 0, 57, 0
1, 283732, Note_on_c, 0, 65, 0
1, 283744, Control_c, 0, 64, 0
1, 283749, Note_on_c, 0, 58, 52
1, 283944, Control_c, 0, 64, 127
1, 283946, Note_on_c, 0, 65, 46
1, 283948, Note_on_c, 0, 74, 81
1, 284040, Note_on_c, 0, 75, 0
1, 284046, Note_on_c, 0, 65, 0
1, 284112, Note_on_c, 0, 58, 0
1, 284112, Control_c, 0, 64, 0
1, 284134, Note_on_c, 0, 60, 45
1, 284316, Note_on_c, 0, 72, 69
1, 284316, Note_on_c, 0, 63, 47
1, 284328, Control_c, 0, 64, 127
1, 284332, Note_on_c, 0, 74, 0
1, 284400, Note_on_c, 0, 60, 0
1, 284482, Control_c, 0, 64, 0
1, 284496, Note_on_c, 0, 63, 0
1, 284516, Note_on_c, 0, 62, 44
1, 284680, Note_on_c, 0, 70, 54
1, 284694, Note_on_c, 0, 65, 33
1, 284698, Control_c, 0, 64, 127
1, 284782, Note_on_c, 0, 62, 0
1, 284784, Note_on_c, 0, 72, 0
1, 284854, Note_on_c, 0, 65, 0
1, 284866, Control_c, 0, 64, 0
1, 284890, Note_on_c, 0, 63, 40
1, 285056, Note_on_c, 0, 63, 0
1, 285059, Note_on_c, 0, 69, 41
1, 285066, Control_c, 0, 64, 127
1, 285074, Note_on_c, 0, 66, 28
1, 285106, Note_on_c, 0, 70, 0
1, 285204, Control_c, 0, 64, 0
1, 285252, Note_on_c, 0, 66, 0
1, 285286, Note_on_c, 0, 62, 25
1, 285392, Note_on_c, 0, 62, 0
1, 285420, Control_c, 0, 64, 127
1, 285430, Note_on_c, 0, 70, 33
1, 285442, Note_on_c, 0, 65, 26
1, 285482, Note_on_c, 0, 69, 0
1, 285568, Note_on_c, 0, 65, 0
1, 285572, Control_c, 0, 64, 0
1, 285630, Note_on_c, 0, 63, 36
1, 285772, Control_c, 0, 64, 127
1, 285790, Note_on_c, 0, 69, 34
1, 285810, Note_on_c, 0, 63, 0
1, 285816, Note_on_c, 0, 66, 26
1, 285820, Note_on_c, 0, 70, 0
1, 285956, Control_c, 0, 64, 0
1, 286000, Note_on_c, 0, 66, 0
1, 286030, Note_on_c, 0, 62, 25
1, 286126, Note_on_c, 0, 62, 0
1, 286142, Control_c, 0, 64, 127
1, 286162, Note_on_c, 0, 70, 32
1, 286182, Note_on_c, 0, 65, 22
1, 286198, Note_on_c, 0, 69, 0
1, 286280, Control_c, 0, 64, 0
1, 286288, Note_on_c, 0, 65, 0
1, 286370, Note_on_c, 0, 63, 34
1, 286454, Note_on_c, 0, 63, 0
1, 286496, Control_c, 0, 64, 127
1, 286540, Note_on_c, 0, 66, 25
1, 286548, Note_on_c, 0, 69, 32
1, 286552, Note_on_c, 0, 70, 0
1, 286632, Note_on_c, 0, 66, 0
1, 286648, Control_c, 0, 64, 0
1, 286674, Note_on_c, 0, 69, 0
1, 286738, Note_on_c, 0, 70, 32
1, 286754, Note_on_c, 0, 65, 26
1, 286760, Note_on_c, 0, 62, 23
1, 286848, Control_c, 0, 64, 127
1, 286920, Note_on_c, 0, 82, 48
1, 286960, Note_on_c, 0, 70, 0
1, 286980, Note_on_c, 0, 82, 0
1, 287050, Note_on_c, 0, 62, 0
1, 287068, Note_on_c, 0, 65, 0
1, 287106, Note_on_c, 0, 82, 68
1, 287110, Control_c, 0, 64, 0
1, 287156, Note_on_c, 0, 82, 0
1, 287278, Note_on_c, 0, 82, 96
1, 287386, Note_on_c, 0, 82, 0
1, 287464, Note_on_c, 0, 82, 61
1, 287536, Note_on_c, 0, 82, 0
1, 287640, Note_on_c, 0, 82, 43
1, 287712, Note_on_c, 0, 82, 0
1, 287820, Note_on_c, 0, 82, 47
1, 287870, Note_on_c, 0, 82, 0
1, 287984, Note_on_c, 0, 82, 73
1, 287996, Note_on_c, 0, 81, 82
1, 288078, Note_on_c, 0, 82, 0
1, 288094, Note_on_c, 0, 81, 0
1, 288170, Note_on_c, 0, 81, 65
1, 288170, Note_on_c, 0, 82, 51
1, 288236, Note_on_c, 0, 82, 0
1, 288262, Note_on_c, 0, 81, 0
1, 288354, Note_on_c, 0, 82, 58
1, 288358, Note_on_c, 0, 81, 34
1, 288412, Note_on_c, 0, 81, 0
1, 288422, Note_on_c, 0, 82, 0
1, 288540, Note_on_c, 0, 81, 36
1, 288542, Note_on_c, 0, 82, 46
1, 288598, Note_on_c, 0, 82, 0
1, 288616, Note_on_c, 0, 81, 0
1, 288708, Note_on_c, 0, 70, 47
1, 288724, Note_on_c, 0, 82, 46
1, 288724, Note_on_c, 0, 80, 54
1, 288780, Note_on_c, 0, 80, 0
1, 288790, Note_on_c, 0, 82, 0
1, 288888, Note_on_c, 0, 82, 48
1, 288890, Note_on_c, 0, 80, 51
1, 288918, Note_on_c, 0, 71, 52
1, 288922, Note_on_c, 0, 70, 0
1, 288956, Note_on_c, 0, 80, 0
1, 288990, Note_on_c, 0, 82, 0
1, 289060, Note_on_c, 0, 71, 0
1, 289060, Note_on_c, 0, 82, 57
1, 289070, Note_on_c, 0, 80, 52
1, 289086, Note_on_c, 0, 72, 52
1, 289128, Note_on_c, 0, 80, 0
1, 289168, Note_on_c, 0, 82, 0
1, 289228, Note_on_c, 0, 82, 67
1, 289242, Note_on_c, 0, 80, 58
1, 289254, Note_on_c, 0, 73, 65
1, 289274, Note_on_c, 0, 72, 0
1, 289312, Note_on_c, 0, 80, 0
1, 289346, Note_on_c, 0, 82, 0
1, 289404, Note_on_c, 0, 82, 73
1, 289412, Note_on_c, 0, 80, 62
1, 289426, Note_on_c, 0, 73, 0
1, 289434, Note_on_c, 0, 74, 79
1, 289508, Note_on_c, 0, 80, 0
1, 289514, Note_on_c, 0, 82, 0
1, 289556, Note_on_c, 0, 74, 0
1, 289586, Note_on_c, 0, 82, 67
1, 289592, Note_on_c, 0, 79, 89
1, 289612, Note_on_c, 0, 75, 92
1, 289684, Note_on_c, 0, 79, 0
1, 289704, Note_on_c, 0, 82, 0
1, 289764, Note_on_c, 0, 82, 69
1, 289768, Note_on_c, 0, 75, 0
1, 289768, Note_on_c, 0, 79, 65
1, 289860, Note_on_c, 0, 79, 0
1, 289876, Note_on_c, 0, 82, 0
1, 289876, Control_c, 0, 64, 127
1, 289946, Note_on_c, 0, 82, 62
1, 289946, Note_on_c, 0, 79, 69
1, 289992, Note_on_c, 0, 82, 0
1, 290002, Note_on_c, 0, 79, 0
1, 290130, Note_on_c, 0, 70, 84
1, 290136, Control_c, 0, 64, 0
1, 290140, Note_on_c, 0, 75, 67
1, 290140, Note_on_c, 0, 79, 91
1, 290144, Note_on_c, 0, 63, 78
1, 290162, Note_on_c, 0, 55, 56
1, 290162, Note_on_c, 0, 51, 64
1, 290168, Note_on_c, 0, 58, 40
1, 290206, Note_on_c, 0, 70, 0
1, 290208, Note_on_c, 0, 79, 0
1, 290212, Note_on_c, 0, 75, 0
1, 290214, Note_on_c, 0, 63, 0
1, 290218, Note_on_c, 0, 55, 0
1, 290220, Note_on_c, 0, 51, 0
1, 290224, Note_on_c, 0, 58, 0
1, 290304, Note_on_c, 0, 79, 87
1, 290310, Note_on_c, 0, 75, 73
1, 290312, Note_on_c, 0, 63, 81
1, 290312, Note_on_c, 0, 51, 64
1, 290314, Note_on_c, 0, 70, 69
1, 290328, Note_on_c, 0, 55, 37
1, 290331, Note_on_c, 0, 58, 21
1, 290380, Note_on_c, 0, 51, 0
1, 290383, Note_on_c, 0, 70, 0
1, 290390, Note_on_c, 0, 55, 0
1, 290392, Note_on_c, 0, 63, 0
1, 290396, Note_on_c, 0, 58, 0
1, 290398, Note_on_c, 0, 79, 0
1, 290426, Note_on_c, 0, 75, 0
1, 290470, Note_on_c, 0, 79, 87
1, 290472, Note_on_c, 0, 63, 75
1, 290476, Note_on_c, 0, 70, 66
1, 290482, Note_on_c, 0, 51, 58
1, 290482, Note_on_c, 0, 75, 78
1, 290485, Note_on_c, 0, 58, 32
1, 290485, Note_on_c, 0, 55, 43
1, 290546, Note_on_c, 0, 51, 0
1, 290549, Note_on_c, 0, 55, 0
1, 290556, Note_on_c, 0, 75, 0
1, 290558, Note_on_c, 0, 58, 0
1, 290560, Note_on_c, 0, 79, 0
1, 290564, Note_on_c, 0, 63, 0
1, 290574, Note_on_c, 0, 70, 0
1, 290642, Note_on_c, 0, 75, 75
1, 290648, Note_on_c, 0, 79, 87
1, 290648, Note_on_c, 0, 70, 64
1, 290652, Note_on_c, 0, 63, 72
1, 290660, Note_on_c, 0, 58, 33
1, 290664, Note_on_c, 0, 55, 39
1, 290670, Note_on_c, 0, 51, 51
1, 290700, Note_on_c, 0, 79, 0
1, 290720, Note_on_c, 0, 63, 0
1, 290722, Note_on_c, 0, 51, 0
1, 290724, Note_on_c, 0, 70, 0
1, 290726, Note_on_c, 0, 55, 0
1, 290728, Note_on_c, 0, 58, 0
1, 290750, Note_on_c, 0, 75, 0
1, 290804, Note_on_c, 0, 79, 76
1, 290806, Note_on_c, 0, 55, 58
1, 290808, Note_on_c, 0, 75, 69
1, 290810, Note_on_c, 0, 51, 51
1, 290812, Note_on_c, 0, 58, 37
1, 290818, Note_on_c, 0, 70, 62
1, 290820, Note_on_c, 0, 63, 46
1, 290846, Note_on_c, 0, 79, 0
1, 290860, Note_on_c, 0, 55, 0
1, 290863, Note_on_c, 0, 75, 0
1, 290878, Note_on_c, 0, 63, 0
1, 290886, Note_on_c, 0, 51, 0
1, 290888, Note_on_c, 0, 58, 0
1, 290916, Note_on_c, 0, 70, 0
1, 291012, Note_on_c, 0, 68, 91
1, 291012, Note_on_c, 0, 74, 98
1, 291020, Note_on_c, 0, 62, 89
1, 291022, Note_on_c, 0, 56, 69
1, 291026, Note_on_c, 0, 70, 58
1, 291029, Note_on_c, 0, 58, 51
1, 291034, Note_on_c, 0, 53, 97
1, 291142, Note_on_c, 0, 53, 0
1, 291176, Note_on_c, 0, 62, 0
1, 291176, Note_on_c, 0, 70, 0
1, 291214, Note_on_c, 0, 56, 0
1, 291216, Note_on_c, 0, 58, 0
1, 291228, Control_c, 0, 64, 127
1, 291231, Note_on_c, 0, 68, 0
1, 291302, Note_on_c, 0, 74, 0
1, 291358, Note_on_c, 0, 58, 32
1, 291362, Note_on_c, 0, 51, 79
1, 291362, Note_on_c, 0, 70, 47
1, 291362, Note_on_c, 0, 75, 60
1, 291364, Note_on_c, 0, 63, 78
1, 291364, Note_on_c, 0, 55, 24
1, 291370, Note_on_c, 0, 67, 38
1, 291382, Control_c, 0, 64, 0
1, 291402, Note_on_c, 0, 51, 0
1, 291408, Note_on_c, 0, 75, 0
1, 291418, Note_on_c, 0, 63, 0
1, 291418, Note_on_c, 0, 70, 0
1, 291422, Note_on_c, 0, 58, 0
1, 291426, Note_on_c, 0, 55, 0
1, 291446, Note_on_c, 0, 67, 0
1, 291500, Note_on_c, 0, 80, 35
1, 291562, Note_on_c, 0, 80, 0
1, 291572, Note_on_c, 0, 75, 73
1, 291578, Note_on_c, 0, 79, 92
1, 291682, Note_on_c, 0, 75, 0
1, 291694, Note_on_c, 0, 79, 0
1, 291768, Note_on_c, 0, 74, 88
1, 291770, Note_on_c, 0, 80, 91
1, 291772, Note_on_c, 0, 77, 89
1, 291774, Note_on_c, 0, 65, 81
1, 291776, Note_on_c, 0, 58, 61
1, 291996, Control_c, 0, 64, 127
1, 292024, Note_on_c, 0, 77, 0
1, 292052, Note_on_c, 0, 74, 0
1, 292074, Note_on_c, 0, 65, 0
1, 292082, Note_on_c, 0, 58, 0
1, 292082, Note_on_c, 0, 80, 0
1, 292120, Note_on_c, 0, 75, 79
1, 292120, Note_on_c, 0, 67, 68
1, 292126, Note_on_c, 0, 79, 88
1, 292130, Note_on_c, 0, 63, 68
1, 292158, Note_on_c, 0, 75, 0
1, 292166, Note_on_c, 0, 79, 0
1, 292166, Control_c, 0, 64, 0
1, 292182, Note_on_c, 0, 63, 0
1, 292194, Note_on_c, 0, 67, 0
1, 292306, Note_on_c, 0, 82, 97
1, 292314, Note_on_c, 0, 79, 97
1, 292368, Note_on_c, 0, 79, 0
1, 292426, Note_on_c, 0, 82, 0
1, 292508, Note_on_c, 0, 86, 106
1, 292514, Note_on_c, 0, 80, 92
1, 292516, Note_on_c, 0, 77, 94
1, 292518, Note_on_c, 0, 65, 84
1, 292526, Note_on_c, 0, 58, 67
1, 292718, Control_c, 0, 64, 127
1, 292774, Note_on_c, 0, 77, 0
1, 292788, Note_on_c, 0, 80, 0
1, 292834, Note_on_c, 0, 65, 0
1, 292868, Note_on_c, 0, 87, 91
1, 292868, Note_on_c, 0, 63, 68
1, 292870, Note_on_c, 0, 79, 94
1, 292870, Note_on_c, 0, 67, 73
1, 292884, Note_on_c, 0, 58, 0
1, 292912, Note_on_c, 0, 86, 0
1, 292914, Note_on_c, 0, 67, 0
1, 292952, Note_on_c, 0, 63, 0
1, 292952, Note_on_c, 0, 79, 0
1, 292985, Note_on_c, 0, 87, 0
1, 293052, Note_on_c, 0, 88, 105
1, 293052, Note_on_c, 0, 70, 86
1, 293055, Note_on_c, 0, 79, 97
1, 293055, Note_on_c, 0, 61, 76
1, 293126, Note_on_c, 0, 61, 0
1, 293154, Note_on_c, 0, 70, 0
1, 293160, Note_on_c, 0, 79, 0
1, 293222, Note_on_c, 0, 88, 0
1, 293326, Note_on_c, 0, 88, 101
1, 293330, Note_on_c, 0, 79, 100
1, 293330, Note_on_c, 0, 70, 88
1, 293340, Note_on_c, 0, 61, 74
1, 293394, Control_c, 0, 64, 0
1, 293978, Control_c, 0, 64, 127
1, 294054, Note_on_c, 0, 79, 0
1, 294214, Note_on_c, 0, 89, 94
1, 294224, Note_on_c, 0, 68, 69
1, 294224, Note_on_c, 0, 77, 73
1, 294250, Note_on_c, 0, 70, 0
1, 294308, Note_on_c, 0, 88, 0
1, 294644, Note_on_c, 0, 87, 92
1, 294658, Note_on_c, 0, 59, 70
1, 294684, Control_c, 0, 64, 0
1, 294722, Note_on_c, 0, 61, 0
1, 294774, Note_on_c, 0, 89, 0
1, 294946, Control_c, 0, 64, 127
1, 294992, Note_on_c, 0, 68, 0
1, 295004, Note_on_c, 0, 77, 0
1, 295102, Note_on_c, 0, 87, 0
1, 295170, Note_on_c, 0, 86, 101
1, 295173, Note_on_c, 0, 77, 74
1, 295184, Note_on_c, 0, 58, 43
1, 295184, Note_on_c, 0, 68, 57
1, 295198, Note_on_c, 0, 59, 0
1, 295530, Control_c, 0, 64, 0
1, 296206, Control_c, 0, 64, 127
1, 296512, Note_on_c, 0, 77, 0
1, 296668, Note_on_c, 0, 68, 0
1, 296754, Note_on_c, 0, 58, 0
1, 297026, Note_on_c, 0, 87, 33
1, 297044, Note_on_c, 0, 75, 22
1, 297050, Control_c, 0, 64, 0
1, 297062, Note_on_c, 0, 67, 22
1, 297064, Note_on_c, 0, 60, 22
1, 297126, Note_on_c, 0, 86, 0
1, 297358, Control_c, 0, 64, 127
1, 297424, Note_on_c, 0, 67, 0
1, 297470, Note_on_c, 0, 60, 0
1, 297830, Note_on_c, 0, 75, 0
1, 298286, Note_on_c, 0, 87, 0
1, 298910, Control_c, 0, 64, 0
1, 299070, Note_on_c, 0, 83, 63
1, 299078, Note_on_c, 0, 75, 22
1, 299084, Note_on_c, 0, 79, 31
1, 299200, Note_on_c, 0, 79, 0
1, 299210, Note_on_c, 0, 75, 0
1, 299222, Note_on_c, 0, 83, 0
1, 299522, Note_on_c, 0, 83, 83
1, 299528, Note_on_c, 0, 75, 33
1, 299528, Note_on_c, 0, 79, 43
1, 299678, Control_c, 0, 64, 127
1, 300064, Note_on_c, 0, 75, 0
1, 300116, Note_on_c, 0, 79, 0
1, 300524, Control_c, 0, 64, 0
1, 300534, Note_on_c, 0, 83, 0
1, 300534, Note_on_c, 0, 84, 37
1, 300536, Note_on_c, 0, 75, 21
1, 300537, Note_on_c, 0, 80, 38
1, 300738, Control_c, 0, 64, 127
1, 300752, Note_on_c, 0, 84, 0
1, 300758, Note_on_c, 0, 75, 0
1, 300950, Note_on_c, 0, 80, 0
1, 300952, Note_on_c, 0, 68, 70
1, 300954, Note_on_c, 0, 84, 89
1, 300954, Note_on_c, 0, 76, 79
1, 300962, Note_on_c, 0, 56, 58
1, 300994, Note_on_c, 0, 68, 0
1, 301008, Note_on_c, 0, 56, 0
1, 301260, Note_on_c, 0, 84, 0
1, 301262, Note_on_c, 0, 76, 0
1, 301456, Note_on_c, 0, 76, 83
1, 301458, Note_on_c, 0, 56, 57
1, 301459, Note_on_c, 0, 68, 67
1, 301459, Note_on_c, 0, 84, 98
1, 302234, Note_on_c, 0, 79, 87
1, 302284, Note_on_c, 0, 76, 0
1, 302432, Note_on_c, 0, 77, 83
1, 302476, Note_on_c, 0, 79, 0
1, 302620, Note_on_c, 0, 80, 88
1, 302656, Note_on_c, 0, 77, 0
1, 302810, Note_on_c, 0, 79, 100
1, 302838, Note_on_c, 0, 80, 0
1, 302966, Control_c, 0, 64, 0
1, 303000, Note_on_c, 0, 82, 88
1, 303066, Note_on_c, 0, 79, 0
1, 303106, Note_on_c, 0, 84, 0
1, 303182, Control_c, 0, 64, 127
1, 303190, Note_on_c, 0, 80, 70
1, 303238, Note_on_c, 0, 82, 0
1, 303336, Control_c, 0, 64, 0
1, 303384, Note_on_c, 0, 85, 76
1, 303398, Note_on_c, 0, 82, 45
1, 303418, Note_on_c, 0, 80, 0
1, 303558, Note_on_c, 0, 82, 0
1, 303574, Note_on_c, 0, 80, 61
1, 303584, Note_on_c, 0, 84, 76
1, 303596, Control_c, 0, 64, 127
1, 303618, Note_on_c, 0, 85, 0
1, 303734, Control_c, 0, 64, 0
1, 303736, Note_on_c, 0, 80, 0
1, 303768, Note_on_c, 0, 79, 80
1, 303768, Note_on_c, 0, 83, 101
1, 303802, Note_on_c, 0, 84, 0
1, 303826, Note_on_c, 0, 83, 0
1, 303888, Control_c, 0, 64, 127
1, 303942, Note_on_c, 0, 80, 83
1, 303947, Note_on_c, 0, 84, 91
1, 304004, Note_on_c, 0, 79, 0
1, 304062, Note_on_c, 0, 80, 0
1, 304116, Note_on_c, 0, 82, 78
1, 304132, Note_on_c, 0, 79, 85
1, 304192, Note_on_c, 0, 84, 0
1, 304196, Control_c, 0, 64, 0
1, 304254, Note_on_c, 0, 79, 0
1, 304288, Control_c, 0, 64, 127
1, 304288, Note_on_c, 0, 80, 79
1, 304291, Note_on_c, 0, 77, 70
1, 304308, Note_on_c, 0, 56, 0
1, 304348, Note_on_c, 0, 82, 0
1, 304356, Note_on_c, 0, 68, 0
1, 304398, Note_on_c, 0, 80, 0
1, 304516, Note_on_c, 0, 79, 87
1, 304524, Note_on_c, 0, 75, 54
1, 304526, Note_on_c, 0, 70, 31
1, 304544, Note_on_c, 0, 58, 24
1, 304546, Note_on_c, 0, 77, 0
1, 304580, Control_c, 0, 64, 0
1, 304866, Note_on_c, 0, 79, 0
1, 304872, Control_c, 0, 64, 127
1, 305088, Note_on_c, 0, 75, 0
1, 305150, Note_on_c, 0, 82, 62
1, 305160, Note_on_c, 0, 79, 54
1, 305211, Note_on_c, 0, 79, 0
1, 305278, Note_on_c, 0, 82, 0
1, 305318, Control_c, 0, 64, 0
1, 305340, Note_on_c, 0, 82, 69
1, 305376, Note_on_c, 0, 79, 50
1, 305494, Note_on_c, 0, 79, 0
1, 305532, Note_on_c, 0, 80, 59
1, 305546, Note_on_c, 0, 77, 52
1, 305566, Note_on_c, 0, 82, 0
1, 305578, Control_c, 0, 64, 127
1, 305580, Note_on_c, 0, 80, 0
1, 305706, Note_on_c, 0, 77, 0
1, 305716, Note_on_c, 0, 75, 57
1, 305732, Note_on_c, 0, 79, 61
1, 305790, Note_on_c, 0, 75, 0
1, 305793, Control_c, 0, 64, 0
1, 305910, Note_on_c, 0, 79, 0
1, 305912, Note_on_c, 0, 77, 62
1, 305914, Note_on_c, 0, 74, 60
1, 305946, Note_on_c, 0, 70, 0
1, 305956, Note_on_c, 0, 77, 0
1, 305978, Control_c, 0, 64, 127
1, 306025, Note_on_c, 0, 58, 0
1, 306062, Note_on_c, 0, 74, 0
1, 306070, Control_c, 0, 64, 0
1, 306100, Note_on_c, 0, 75, 83
1, 306182, Note_on_c, 0, 79, 80
1, 306192, Note_on_c, 0, 75, 0
1, 306254, Note_on_c, 0, 75, 68
1, 306270, Control_c, 0, 64, 127
1, 306290, Note_on_c, 0, 79, 0
1, 306352, Note_on_c, 0, 70, 57
1, 306400, Note_on_c, 0, 75, 0
1, 306426, Note_on_c, 0, 67, 63
1, 306464, Note_on_c, 0, 70, 0
1, 306494, Note_on_c, 0, 67, 0
1, 306520, Note_on_c, 0, 63, 68
1, 306572, Note_on_c, 0, 63, 0
1, 306618, Note_on_c, 0, 51, 60
1, 306676, Note_on_c, 0, 51, 0
1, 306704, Note_on_c, 0, 63, 72
1, 306748, Note_on_c, 0, 63, 0
1, 306776, Control_c, 0, 64, 0
1, 306792, Note_on_c, 0, 74, 91
1, 306866, Note_on_c, 0, 80, 75
1, 306926, Note_on_c, 0, 74, 0
1, 306962, Note_on_c, 0, 77, 72
1, 306976, Control_c, 0, 64, 127
1, 307022, Note_on_c, 0, 80, 0
1, 307024, Note_on_c, 0, 74, 44
1, 307078, Note_on_c, 0, 77, 0
1, 307136, Note_on_c, 0, 70, 66
1, 307212, Note_on_c, 0, 74, 0
1, 307220, Note_on_c, 0, 68, 68
1, 307282, Note_on_c, 0, 70, 0
1, 307304, Note_on_c, 0, 62, 65
1, 307324, Note_on_c, 0, 68, 0
1, 307352, Note_on_c, 0, 62, 0
1, 307400, Note_on_c, 0, 65, 58
1, 307452, Note_on_c, 0, 65, 0
1, 307468, Control_c, 0, 64, 0
1, 307508, Note_on_c, 0, 75, 80
1, 307606, Note_on_c, 0, 79, 76
1, 307610, Note_on_c, 0, 75, 0
1, 307690, Note_on_c, 0, 75, 58
1, 307700, Control_c, 0, 64, 127
1, 307726, Note_on_c, 0, 79, 0
1, 307786, Note_on_c, 0, 70, 62
1, 307850, Note_on_c, 0, 75, 0
1, 307880, Note_on_c, 0, 67, 62
1, 307908, Note_on_c, 0, 70, 0
1, 307942, Note_on_c, 0, 67, 0
1, 307954, Note_on_c, 0, 63, 62
1, 308000, Note_on_c, 0, 63, 0
1, 308034, Note_on_c, 0, 51, 56
1, 308094, Note_on_c, 0, 51, 0
1, 308118, Note_on_c, 0, 63, 62
1, 308178, Note_on_c, 0, 63, 0
1, 308190, Control_c, 0, 64, 0
1, 308202, Note_on_c, 0, 74, 84
1, 308284, Note_on_c, 0, 80, 76
1, 308302, Note_on_c, 0, 74, 0
1, 308382, Note_on_c, 0, 77, 76
1, 308390, Control_c, 0, 64, 127
1, 308446, Note_on_c, 0, 80, 0
1, 308478, Note_on_c, 0, 74, 65
1, 308530, Note_on_c, 0, 77, 0
1, 308572, Note_on_c, 0, 70, 60
1, 308602, Note_on_c, 0, 74, 0
1, 308630, Note_on_c, 0, 68, 59
1, 308676, Note_on_c, 0, 68, 0
1, 308676, Note_on_c, 0, 70, 0
1, 308700, Note_on_c, 0, 62, 35
1, 308756, Note_on_c, 0, 62, 0
1, 308798, Note_on_c, 0, 65, 44
1, 308848, Note_on_c, 0, 65, 0
1, 308860, Control_c, 0, 64, 0
1, 308910, Note_on_c, 0, 82, 62
1, 309004, Note_on_c, 0, 75, 52
1, 309064, Note_on_c, 0, 82, 0
1, 309078, Note_on_c, 0, 75, 0
1, 309088, Note_on_c, 0, 67, 44
1, 309096, Control_c, 0, 64, 127
1, 309160, Note_on_c, 0, 67, 0
1, 309160, Note_on_c, 0, 75, 49
1, 309236, Note_on_c, 0, 75, 0
1, 309252, Note_on_c, 0, 84, 78
1, 309342, Note_on_c, 0, 75, 50
1, 309412, Note_on_c, 0, 84, 0
1, 309426, Note_on_c, 0, 68, 48
1, 309454, Note_on_c, 0, 75, 0
1, 309510, Note_on_c, 0, 68, 0
1, 309518, Note_on_c, 0, 75, 68
1, 309602, Note_on_c, 0, 86, 92
1, 309605, Note_on_c, 0, 75, 0
1, 309650, Control_c, 0, 64, 0
1, 309692, Note_on_c, 0, 75, 67
1, 309770, Note_on_c, 0, 70, 59
1, 309800, Note_on_c, 0, 75, 0
1, 309800, Note_on_c, 0, 86, 0
1, 309850, Control_c, 0, 64, 127
1, 309864, Note_on_c, 0, 70, 0
1, 309866, Note_on_c, 0, 75, 65
1, 309916, Note_on_c, 0, 75, 0
1, 309940, Note_on_c, 0, 87, 90
1, 310028, Note_on_c, 0, 75, 70
1, 310108, Note_on_c, 0, 75, 0
1, 310108, Note_on_c, 0, 87, 0
1, 310114, Note_on_c, 0, 72, 67
1, 310170, Note_on_c, 0, 72, 0
1, 310178, Note_on_c, 0, 75, 65
1, 310286, Note_on_c, 0, 75, 0
1, 310286, Note_on_c, 0, 82, 84
1, 310326, Control_c, 0, 64, 0
1, 310378, Note_on_c, 0, 75, 50
1, 310434, Note_on_c, 0, 67, 61
1, 310472, Note_on_c, 0, 82, 0
1, 310526, Control_c, 0, 64, 127
1, 310608, Note_on_c, 0, 67, 0
1, 310618, Note_on_c, 0, 84, 92
1, 310626, Note_on_c, 0, 75, 0
1, 310692, Note_on_c, 0, 75, 70
1, 310782, Note_on_c, 0, 68, 65
1, 310788, Note_on_c, 0, 84, 0
1, 310794, Note_on_c, 0, 75, 0
1, 310864, Control_c, 0, 64, 0
1, 310867, Note_on_c, 0, 75, 64
1, 310968, Note_on_c, 0, 86, 97
1, 310992, Note_on_c, 0, 75, 0
1, 311014, Note_on_c, 0, 68, 0
1, 311050, Note_on_c, 0, 75, 76
1, 311064, Control_c, 0, 64, 127
1, 311146, Note_on_c, 0, 75, 0
1, 311151, Note_on_c, 0, 86, 0
1, 311160, Note_on_c, 0, 70, 55
1, 311226, Note_on_c, 0, 70, 0
1, 311234, Note_on_c, 0, 75, 55
1, 311318, Note_on_c, 0, 75, 0
1, 311332, Note_on_c, 0, 87, 85
1, 311340, Control_c, 0, 64, 0
1, 311434, Note_on_c, 0, 75, 65
1, 311466, Control_c, 0, 64, 127
1, 311482, Note_on_c, 0, 75, 0
1, 311494, Note_on_c, 0, 87, 0
1, 311518, Note_on_c, 0, 72, 58
1, 311576, Note_on_c, 0, 72, 0
1, 311614, Note_on_c, 0, 75, 73
1, 311656, Note_on_c, 0, 75, 0
1, 311704, Note_on_c, 0, 85, 84
1, 311770, Control_c, 0, 64, 0
1, 311802, Note_on_c, 0, 75, 73
1, 311898, Note_on_c, 0, 67, 56
1, 311912, Note_on_c, 0, 75, 0
1, 311940, Note_on_c, 0, 85, 0
1, 311954, Control_c, 0, 64, 127
1, 311972, Note_on_c, 0, 75, 77
1, 312032, Note_on_c, 0, 67, 0
1, 312076, Note_on_c, 0, 84, 101
1, 312084, Note_on_c, 0, 75, 0
1, 312154, Note_on_c, 0, 75, 57
1, 312256, Note_on_c, 0, 68, 67
1, 312259, Note_on_c, 0, 84, 0
1, 312264, Note_on_c, 0, 75, 0
1, 312332, Note_on_c, 0, 75, 79
1, 312396, Note_on_c, 0, 68, 0
1, 312416, Control_c, 0, 64, 0
1, 312424, Note_on_c, 0, 82, 92
1, 312430, Note_on_c, 0, 75, 0
1, 312528, Note_on_c, 0, 72, 64
1, 312569, Control_c, 0, 64, 127
1, 312608, Note_on_c, 0, 64, 71
1, 312610, Note_on_c, 0, 72, 0
1, 312624, Note_on_c, 0, 82, 0
1, 312686, Note_on_c, 0, 72, 67
1, 312748, Note_on_c, 0, 64, 0
1, 312768, Note_on_c, 0, 72, 0
1, 312774, Note_on_c, 0, 80, 96
1, 312882, Note_on_c, 0, 72, 60
1, 312936, Note_on_c, 0, 72, 0
1, 312956, Note_on_c, 0, 65, 76
1, 312968, Note_on_c, 0, 80, 0
1, 313042, Note_on_c, 0, 72, 63
1, 313110, Note_on_c, 0, 65, 0
1, 313118, Note_on_c, 0, 72, 0
1, 313138, Note_on_c, 0, 76, 95
1, 313244, Note_on_c, 0, 72, 72
1, 313292, Note_on_c, 0, 76, 0
1, 313300, Note_on_c, 0, 72, 0
1, 313306, Note_on_c, 0, 67, 82
1, 313388, Note_on_c, 0, 72, 71
1, 313470, Note_on_c, 0, 67, 0
1, 313482, Note_on_c, 0, 77, 101
1, 313485, Note_on_c, 0, 72, 0
1, 313556, Note_on_c, 0, 72, 73
1, 313630, Note_on_c, 0, 77, 0
1, 313634, Note_on_c, 0, 68, 83
1, 313658, Note_on_c, 0, 72, 0
1, 313718, Note_on_c, 0, 72, 73
1, 313762, Note_on_c, 0, 68, 0
1, 313784, Control_c, 0, 64, 0
1, 313814, Note_on_c, 0, 84, 111
1, 313832, Note_on_c, 0, 72, 0
1, 313882, Note_on_c, 0, 75, 74
1, 313968, Note_on_c, 0, 69, 64
1, 313980, Note_on_c, 0, 75, 0
1, 313983, Note_on_c, 0, 84, 0
1, 313983, Control_c, 0, 64, 127
1, 314056, Note_on_c, 0, 75, 64
1, 314116, Note_on_c, 0, 69, 0
1, 314142, Note_on_c, 0, 87, 103
1, 314150, Note_on_c, 0, 75, 0
1, 314240, Note_on_c, 0, 75, 74
1, 314276, Note_on_c, 0, 69, 52
1, 314334, Note_on_c, 0, 87, 0
1, 314342, Note_on_c, 0, 75, 0
1, 314386, Note_on_c, 0, 75, 76
1, 314414, Note_on_c, 0, 69, 0
1, 314428, Note_on_c, 0, 75, 0
1, 314474, Control_c, 0, 64, 0
1, 314478, Note_on_c, 0, 86, 108
1, 314570, Note_on_c, 0, 74, 88
1, 314578, Note_on_c, 0, 86, 0
1, 314644, Control_c, 0, 64, 127
1, 314646, Note_on_c, 0, 70, 83
1, 314674, Note_on_c, 0, 74, 0
1, 314744, Note_on_c, 0, 58, 67
1, 314746, Note_on_c, 0, 70, 0
1, 314786, Note_on_c, 0, 58, 0
1, 314830, Note_on_c, 0, 82, 92
1, 314912, Note_on_c, 0, 70, 83
1, 314958, Note_on_c, 0, 82, 0
1, 315014, Note_on_c, 0, 65, 85
1, 315022, Note_on_c, 0, 70, 0
1, 315084, Note_on_c, 0, 53, 100
1, 315120, Note_on_c, 0, 65, 0
1, 315172, Note_on_c, 0, 53, 0
1, 315175, Note_on_c, 0, 77, 94
1, 315258, Note_on_c, 0, 65, 88
1, 315270, Note_on_c, 0, 77, 0
1, 315356, Note_on_c, 0, 62, 92
1, 315386, Note_on_c, 0, 65, 0
1, 315432, Note_on_c, 0, 50, 94
1, 315458, Note_on_c, 0, 62, 0
1, 315516, Note_on_c, 0, 74, 93
1, 315536, Note_on_c, 0, 50, 0
1, 315608, Note_on_c, 0, 62, 101
1, 315628, Note_on_c, 0, 74, 0
1, 315646, Note_on_c, 0, 62, 0
1, 315730, Note_on_c, 0, 58, 79
1, 315816, Note_on_c, 0, 46, 86
1, 315868, Note_on_c, 0, 58, 0
1, 315972, Note_on_c, 0, 34, 103
1, 316826, Note_on_c, 0, 46, 0
1, 316826, Control_c, 0, 64, 0
1, 317318, Control_c, 0, 64, 127
1, 317572, Note_on_c, 0, 34, 0
1, 318238, Control_c, 0, 64, 0
1, 318244, Note_on_c, 0, 56, 49
1, 318308, Note_on_c, 0, 56, 0
1, 318428, Note_on_c, 0, 56, 41
1, 318500, Note_on_c, 0, 56, 0
1, 318598, Note_on_c, 0, 56, 33
1, 318678, Note_on_c, 0, 56, 0
1, 318774, Note_on_c, 0, 56, 48
1, 318844, Note_on_c, 0, 56, 0
1, 318944, Note_on_c, 0, 65, 73
1, 318950, Note_on_c, 0, 56, 44
1, 318998, Note_on_c, 0, 65, 0
1, 319014, Note_on_c, 0, 56, 0
1, 319120, Note_on_c, 0, 58, 39
1, 319134, Note_on_c, 0, 56, 27
1, 319208, Note_on_c, 0, 56, 0
1, 319304, Note_on_c, 0, 56, 31
1, 319314, Note_on_c, 0, 59, 51
1, 319320, Note_on_c, 0, 58, 0
1, 319392, Note_on_c, 0, 56, 0
1, 319461, Note_on_c, 0, 59, 0
1, 319470, Note_on_c, 0, 58, 36
1, 319480, Note_on_c, 0, 56, 31
1, 319550, Note_on_c, 0, 56, 0
1, 319550, Note_on_c, 0, 58, 0
1, 319640, Note_on_c, 0, 68, 81
1, 319640, Note_on_c, 0, 56, 48
1, 319716, Note_on_c, 0, 56, 0
1, 319719, Note_on_c, 0, 68, 0
1, 319816, Note_on_c, 0, 56, 47
1, 319824, Note_on_c, 0, 62, 63
1, 319902, Note_on_c, 0, 56, 0
1, 319978, Note_on_c, 0, 62, 0
1, 319992, Note_on_c, 0, 56, 42
1, 319994, Note_on_c, 0, 63, 67
1, 320064, Note_on_c, 0, 56, 0
1, 320156, Note_on_c, 0, 56, 41
1, 320168, Note_on_c, 0, 62, 65
1, 320182, Note_on_c, 0, 63, 0
1, 320214, Note_on_c, 0, 62, 0
1, 320226, Note_on_c, 0, 56, 0
1, 320332, Note_on_c, 0, 71, 100
1, 320340, Note_on_c, 0, 56, 48
1, 320406, Note_on_c, 0, 56, 0
1, 320438, Note_on_c, 0, 71, 0
1, 320514, Note_on_c, 0, 65, 70
1, 320516, Note_on_c, 0, 56, 38
1, 320602, Note_on_c, 0, 56, 0
1, 320680, Note_on_c, 0, 66, 62
1, 320683, Note_on_c, 0, 56, 40
1, 320694, Note_on_c, 0, 65, 0
1, 320752, Note_on_c, 0, 56, 0
1, 320842, Note_on_c, 0, 66, 0
1, 320844, Note_on_c, 0, 56, 48
1, 320847, Note_on_c, 0, 65, 70
1, 320912, Note_on_c, 0, 65, 0
1, 320912, Note_on_c, 0, 56, 0
1, 320998, Note_on_c, 0, 56, 50
1, 321010, Note_on_c, 0, 74, 100
1, 321070, Note_on_c, 0, 56, 0
1, 321074, Note_on_c, 0, 74, 0
1, 321176, Note_on_c, 0, 70, 86
1, 321190, Note_on_c, 0, 56, 60
1, 321254, Note_on_c, 0, 56, 0
1, 321342, Note_on_c, 0, 56, 59
1, 321352, Note_on_c, 0, 71, 93
1, 321390, Note_on_c, 0, 70, 0
1, 321414, Note_on_c, 0, 56, 0
1, 321498, Note_on_c, 0, 71, 0
1, 321506, Note_on_c, 0, 56, 62
1, 321508, Note_on_c, 0, 70, 84
1, 321560, Note_on_c, 0, 56, 0
1, 321612, Note_on_c, 0, 70, 0
1, 321676, Note_on_c, 0, 82, 79
1, 321686, Note_on_c, 0, 56, 54
1, 321728, Note_on_c, 0, 82, 0
1, 321731, Note_on_c, 0, 56, 0
1, 321848, Note_on_c, 0, 55, 99
1, 321932, Note_on_c, 0, 55, 0
1, 322020, Note_on_c, 0, 79, 81
1, 322022, Note_on_c, 0, 82, 63
1, 322066, Note_on_c, 0, 79, 0
1, 322080, Note_on_c, 0, 82, 0
1, 322188, Note_on_c, 0, 56, 79
1, 322232, Note_on_c, 0, 56, 0
1, 322364, Note_on_c, 0, 80, 69
1, 322376, Note_on_c, 0, 77, 55
1, 322404, Note_on_c, 0, 80, 0
1, 322430, Note_on_c, 0, 77, 0
1, 322522, Note_on_c, 0, 58, 62
1, 322606, Note_on_c, 0, 58, 0
1, 322692, Note_on_c, 0, 75, 50
1, 322694, Note_on_c, 0, 79, 68
1, 322750, Note_on_c, 0, 79, 0
1, 322750, Note_on_c, 0, 75, 0
1, 322848, Note_on_c, 0, 46, 64
1, 322898, Note_on_c, 0, 46, 0
1, 323004, Note_on_c, 0, 77, 67
1, 323010, Note_on_c, 0, 74, 63
1, 323052, Note_on_c, 0, 74, 0
1, 323054, Note_on_c, 0, 77, 0
1, 323204, Note_on_c, 0, 75, 62
1, 323212, Note_on_c, 0, 51, 32
1, 323356, Control_c, 0, 64, 127
1, 323372, Note_on_c, 0, 75, 0
1, 323374, Note_on_c, 0, 68, 40
1, 323440, Note_on_c, 0, 51, 0
1, 323444, Note_on_c, 0, 68, 0
1, 323478, Control_c, 0, 64, 0
1, 323550, Note_on_c, 0, 68, 39
1, 323618, Note_on_c, 0, 68, 0
1, 323720, Note_on_c, 0, 68, 36
1, 323784, Note_on_c, 0, 68, 0
1, 323894, Note_on_c, 0, 68, 46
1, 323958, Note_on_c, 0, 68, 0
1, 324064, Note_on_c, 0, 68, 44
1, 324128, Note_on_c, 0, 68, 0
1, 324224, Note_on_c, 0, 68, 39
1, 324288, Note_on_c, 0, 68, 0
1, 324384, Note_on_c, 0, 53, 108
1, 324386, Note_on_c, 0, 68, 55
1, 324450, Note_on_c, 0, 68, 0
1, 324470, Note_on_c, 0, 53, 0
1, 324536, Note_on_c, 0, 68, 52
1, 324568, Note_on_c, 0, 46, 59
1, 324626, Note_on_c, 0, 70, 52
1, 324634, Note_on_c, 0, 68, 0
1, 324682, Note_on_c, 0, 70, 0
1, 324698, Note_on_c, 0, 68, 61
1, 324738, Note_on_c, 0, 46, 0
1, 324744, Note_on_c, 0, 47, 59
1, 324750, Note_on_c, 0, 68, 0
1, 324756, Note_on_c, 0, 70, 41
1, 324826, Note_on_c, 0, 68, 41
1, 324840, Note_on_c, 0, 70, 0
1, 324894, Note_on_c, 0, 47, 0
1, 324900, Note_on_c, 0, 68, 0
1, 324910, Note_on_c, 0, 46, 56
1, 324920, Note_on_c, 0, 70, 41
1, 324960, Note_on_c, 0, 46, 0
1, 324968, Note_on_c, 0, 68, 52
1, 324976, Note_on_c, 0, 70, 0
1, 325042, Note_on_c, 0, 70, 47
1, 325045, Note_on_c, 0, 68, 0
1, 325082, Note_on_c, 0, 56, 88
1, 325118, Note_on_c, 0, 68, 52
1, 325136, Note_on_c, 0, 70, 0
1, 325180, Note_on_c, 0, 56, 0
1, 325194, Note_on_c, 0, 68, 0
1, 325202, Note_on_c, 0, 70, 54
1, 325272, Note_on_c, 0, 70, 0
1, 325274, Note_on_c, 0, 50, 68
1, 325274, Note_on_c, 0, 68, 44
1, 325342, Note_on_c, 0, 70, 48
1, 325358, Note_on_c, 0, 68, 0
1, 325412, Note_on_c, 0, 50, 0
1, 325430, Note_on_c, 0, 51, 56
1, 325434, Note_on_c, 0, 70, 0
1, 325438, Note_on_c, 0, 68, 50
1, 325494, Note_on_c, 0, 68, 0
1, 325500, Note_on_c, 0, 70, 55
1, 325576, Note_on_c, 0, 68, 36
1, 325582, Note_on_c, 0, 70, 0
1, 325604, Note_on_c, 0, 51, 0
1, 325610, Note_on_c, 0, 50, 55
1, 325658, Note_on_c, 0, 68, 0
1, 325658, Note_on_c, 0, 70, 49
1, 325664, Note_on_c, 0, 50, 0
1, 325730, Note_on_c, 0, 68, 55
1, 325732, Note_on_c, 0, 70, 0
1, 325760, Note_on_c, 0, 59, 96
1, 325806, Note_on_c, 0, 70, 50
1, 325838, Note_on_c, 0, 68, 0
1, 325852, Note_on_c, 0, 59, 0
1, 325902, Note_on_c, 0, 68, 60
1, 325920, Note_on_c, 0, 70, 0
1, 325952, Note_on_c, 0, 53, 84
1, 325974, Note_on_c, 0, 68, 0
1, 325986, Note_on_c, 0, 70, 58
1, 326056, Note_on_c, 0, 68, 40
1, 326062, Note_on_c, 0, 70, 0
1, 326100, Note_on_c, 0, 53, 0
1, 326100, Note_on_c, 0, 54, 69
1, 326136, Note_on_c, 0, 70, 47
1, 326156, Note_on_c, 0, 68, 0
1, 326224, Note_on_c, 0, 68, 53
1, 326230, Note_on_c, 0, 70, 0
1, 326254, Note_on_c, 0, 54, 0
1, 326272, Note_on_c, 0, 53, 77
1, 326298, Note_on_c, 0, 68, 0
1, 326298, Note_on_c, 0, 70, 53
1, 326314, Note_on_c, 0, 53, 0
1, 326386, Note_on_c, 0, 68, 53
1, 326394, Note_on_c, 0, 70, 0
1, 326426, Note_on_c, 0, 62, 96
1, 326460, Note_on_c, 0, 70, 60
1, 326478, Note_on_c, 0, 68, 0
1, 326488, Note_on_c, 0, 62, 0
1, 326556, Note_on_c, 0, 68, 55
1, 326580, Note_on_c, 0, 70, 0
1, 326600, Note_on_c, 0, 58, 69
1, 326640, Note_on_c, 0, 70, 62
1, 326644, Note_on_c, 0, 68, 0
1, 326722, Note_on_c, 0, 68, 51
1, 326740, Note_on_c, 0, 70, 0
1, 326786, Note_on_c, 0, 59, 57
1, 326804, Note_on_c, 0, 58, 0
1, 326806, Note_on_c, 0, 70, 56
1, 326820, Note_on_c, 0, 68, 0
1, 326892, Note_on_c, 0, 70, 0
1, 326892, Note_on_c, 0, 68, 55
1, 326908, Note_on_c, 0, 59, 0
1, 326932, Note_on_c, 0, 58, 36
1, 326952, Note_on_c, 0, 68, 0
1, 326958, Note_on_c, 0, 70, 58
1, 327000, Note_on_c, 0, 58, 0
1, 327018, Note_on_c, 0, 70, 0
1, 327022, Note_on_c, 0, 68, 55
1, 327086, Note_on_c, 0, 70, 54
1, 327090, Note_on_c, 0, 68, 0
1, 327116, Note_on_c, 0, 62, 56
1, 327162, Note_on_c, 0, 62, 0
1, 327182, Note_on_c, 0, 68, 41
1, 327214, Note_on_c, 0, 70, 0
1, 327254, Note_on_c, 0, 68, 0
1, 327257, Note_on_c, 0, 63, 79
1, 327280, Note_on_c, 0, 67, 59
1, 327314, Note_on_c, 0, 63, 0
1, 327336, Note_on_c, 0, 67, 0
1, 327352, Note_on_c, 0, 75, 58
1, 327408, Note_on_c, 0, 75, 0
1, 327420, Note_on_c, 0, 51, 56
1, 327438, Note_on_c, 0, 67, 44
1, 327470, Note_on_c, 0, 51, 0
1, 327496, Note_on_c, 0, 67, 0
1, 327524, Note_on_c, 0, 75, 36
1, 327582, Note_on_c, 0, 75, 0
1, 327582, Note_on_c, 0, 68, 62
1, 327590, Note_on_c, 0, 63, 63
1, 327638, Note_on_c, 0, 63, 0
1, 327638, Note_on_c, 0, 68, 0
1, 327678, Note_on_c, 0, 74, 47
1, 327724, Note_on_c, 0, 74, 0
1, 327740, Note_on_c, 0, 68, 53
1, 327752, Note_on_c, 0, 51, 59
1, 327796, Note_on_c, 0, 68, 0
1, 327799, Note_on_c, 0, 51, 0
1, 327806, Note_on_c, 0, 74, 46
1, 327848, Note_on_c, 0, 74, 0
1, 327902, Note_on_c, 0, 74, 84
1, 327916, Note_on_c, 0, 63, 75
1, 327956, Note_on_c, 0, 74, 0
1, 327962, Note_on_c, 0, 63, 0
1, 327982, Note_on_c, 0, 80, 70
1, 328024, Note_on_c, 0, 80, 0
1, 328078, Note_on_c, 0, 74, 48
1, 328088, Note_on_c, 0, 51, 65
1, 328124, Note_on_c, 0, 74, 0
1, 328134, Note_on_c, 0, 51, 0
1, 328137, Note_on_c, 0, 80, 51
1, 328190, Note_on_c, 0, 80, 0
1, 328238, Note_on_c, 0, 75, 65
1, 328242, Note_on_c, 0, 63, 69
1, 328286, Note_on_c, 0, 75, 0
1, 328289, Note_on_c, 0, 63, 0
1, 328324, Note_on_c, 0, 79, 75
1, 328376, Note_on_c, 0, 79, 0
1, 328404, Note_on_c, 0, 51, 61
1, 328406, Note_on_c, 0, 75, 53
1, 328452, Note_on_c, 0, 75, 0
1, 328454, Note_on_c, 0, 51, 0
1, 328470, Note_on_c, 0, 79, 64
1, 328518, Note_on_c, 0, 79, 0
1, 328570, Note_on_c, 0, 63, 75
1, 328573, Note_on_c, 0, 80, 90
1, 328618, Note_on_c, 0, 63, 0
1, 328642, Note_on_c, 0, 84, 78
1, 328660, Note_on_c, 0, 80, 0
1, 328686, Note_on_c, 0, 84, 0
1, 328728, Note_on_c, 0, 80, 73
1, 328742, Note_on_c, 0, 51, 62
1, 328792, Note_on_c, 0, 51, 0
1, 328800, Note_on_c, 0, 80, 0
1, 328806, Note_on_c, 0, 84, 75
1, 328860, Note_on_c, 0, 84, 0
1, 328898, Note_on_c, 0, 79, 84
1, 328906, Note_on_c, 0, 63, 72
1, 328940, Note_on_c, 0, 79, 0
1, 328946, Note_on_c, 0, 63, 0
1, 328968, Note_on_c, 0, 82, 80
1, 329018, Note_on_c, 0, 82, 0
1, 329056, Note_on_c, 0, 79, 76
1, 329064, Note_on_c, 0, 51, 68
1, 329108, Note_on_c, 0, 51, 0
1, 329108, Note_on_c, 0, 79, 0
1, 329126, Note_on_c, 0, 82, 71
1, 329180, Note_on_c, 0, 82, 0
1, 329218, Note_on_c, 0, 63, 84
1, 329226, Note_on_c, 0, 80, 88
1, 329264, Note_on_c, 0, 63, 0
1, 329298, Note_on_c, 0, 86, 81
1, 329310, Note_on_c, 0, 80, 0
1, 329346, Note_on_c, 0, 86, 0
1, 329374, Note_on_c, 0, 80, 80
1, 329378, Note_on_c, 0, 51, 68
1, 329424, Note_on_c, 0, 51, 0
1, 329458, Note_on_c, 0, 86, 76
1, 329472, Note_on_c, 0, 80, 0
1, 329516, Note_on_c, 0, 86, 0
1, 329544, Note_on_c, 0, 63, 70
1, 329562, Note_on_c, 0, 79, 78
1, 329592, Note_on_c, 0, 63, 0
1, 329608, Note_on_c, 0, 79, 0
1, 329611, Note_on_c, 0, 87, 81
1, 329658, Note_on_c, 0, 87, 0
1, 329716, Note_on_c, 0, 51, 62
1, 329716, Note_on_c, 0, 79, 65
1, 329770, Note_on_c, 0, 51, 0
1, 329772, Note_on_c, 0, 79, 0
1, 329790, Note_on_c, 0, 87, 75
1, 329846, Note_on_c, 0, 87, 0
1, 329890, Note_on_c, 0, 63, 102
1, 329890, Note_on_c, 0, 80, 99
1, 329893, Note_on_c, 0, 84, 106
1, 329900, Note_on_c, 0, 56, 81
1, 329938, Note_on_c, 0, 56, 0
1, 329948, Note_on_c, 0, 63, 0
1, 329978, Control_c, 0, 64, 127
1, 330000, Note_on_c, 0, 84, 0
1, 330002, Note_on_c, 0, 80, 0
1, 330178, Control_c, 0, 64, 0
1, 330604, Note_on_c, 0, 58, 87
1, 330606, Note_on_c, 0, 68, 88
1, 330609, Note_on_c, 0, 46, 88
1, 330609, Note_on_c, 0, 74, 102
1, 330614, Note_on_c, 0, 65, 95
1, 330692, Note_on_c, 0, 46, 0
1, 330692, Note_on_c, 0, 58, 0
1, 330692, Note_on_c, 0, 68, 0
1, 330706, Note_on_c, 0, 74, 0
1, 330716, Control_c, 0, 64, 127
1, 330724, Note_on_c, 0, 65, 0
1, 330900, Control_c, 0, 64, 0
1, 331314, Note_on_c, 0, 75, 90
1, 331314, Note_on_c, 0, 70, 72
1, 331320, Note_on_c, 0, 67, 82
1, 331330, Note_on_c, 0, 63, 75
1, 331366, Note_on_c, 0, 63, 0
1, 331376, Control_c, 0, 64, 127
1, 331398, Note_on_c, 0, 62, 74
1, 331438, Note_on_c, 0, 67, 0
1, 331452, Note_on_c, 0, 70, 0
1, 331456, Note_on_c, 0, 62, 0
1, 331494, Note_on_c, 0, 75, 0
1, 331524, Note_on_c, 0, 63, 55
1, 331578, Note_on_c, 0, 63, 0
1, 331592, Control_c, 0, 64, 0
1, 331592, Note_on_c, 0, 62, 60
1, 331666, Note_on_c, 0, 63, 63
1, 331669, Note_on_c, 0, 62, 0
1, 331758, Note_on_c, 0, 62, 61
1, 331762, Note_on_c, 0, 63, 0
1, 331830, Note_on_c, 0, 62, 0
1, 331846, Note_on_c, 0, 63, 65
1, 331852, Note_on_c, 0, 84, 96
1, 331858, Note_on_c, 0, 80, 81
1, 331936, Note_on_c, 0, 63, 0
1, 331944, Note_on_c, 0, 62, 50
1, 331970, Note_on_c, 0, 80, 0
1, 332008, Note_on_c, 0, 62, 0
1, 332030, Note_on_c, 0, 63, 65
1, 332036, Note_on_c, 0, 79, 86
1, 332038, Note_on_c, 0, 82, 75
1, 332098, Note_on_c, 0, 84, 0
1, 332120, Note_on_c, 0, 63, 0
1, 332134, Note_on_c, 0, 62, 48
1, 332192, Note_on_c, 0, 62, 0
1, 332195, Note_on_c, 0, 79, 0
1, 332212, Note_on_c, 0, 63, 58
1, 332212, Note_on_c, 0, 77, 64
1, 332215, Note_on_c, 0, 80, 70
1, 332264, Note_on_c, 0, 82, 0
1, 332268, Note_on_c, 0, 80, 0
1, 332292, Note_on_c, 0, 63, 0
1, 332310, Note_on_c, 0, 62, 47
1, 332382, Note_on_c, 0, 62, 0
1, 332384, Note_on_c, 0, 75, 65
1, 332392, Note_on_c, 0, 79, 71
1, 332398, Note_on_c, 0, 63, 52
1, 332440, Note_on_c, 0, 75, 0
1, 332458, Note_on_c, 0, 77, 0
1, 332484, Note_on_c, 0, 63, 0
1, 332504, Note_on_c, 0, 62, 46
1, 332540, Note_on_c, 0, 77, 49
1, 332548, Note_on_c, 0, 74, 59
1, 332558, Note_on_c, 0, 79, 0
1, 332564, Note_on_c, 0, 63, 60
1, 332566, Note_on_c, 0, 62, 0
1, 332636, Note_on_c, 0, 74, 0
1, 332650, Note_on_c, 0, 63, 0
1, 332650, Note_on_c, 0, 62, 55
1, 332694, Note_on_c, 0, 77, 0
1, 332704, Note_on_c, 0, 62, 0
1, 332722, Note_on_c, 0, 63, 72
1, 332726, Note_on_c, 0, 75, 57
1, 332786, Note_on_c, 0, 75, 0
1, 332796, Note_on_c, 0, 74, 57
1, 332852, Control_c, 0, 64, 127
1, 332862, Note_on_c, 0, 74, 0
1, 332876, Note_on_c, 0, 75, 46
1, 332940, Note_on_c, 0, 63, 0
1, 332960, Note_on_c, 0, 75, 0
1, 332960, Note_on_c, 0, 74, 46
1, 333020, Control_c, 0, 64, 0
1, 333036, Note_on_c, 0, 74, 0
1, 333052, Note_on_c, 0, 75, 48
1, 333128, Note_on_c, 0, 74, 46
1, 333138, Note_on_c, 0, 75, 0
1, 333214, Note_on_c, 0, 74, 0
1, 333224, Note_on_c, 0, 75, 52
1, 333232, Note_on_c, 0, 56, 62
1, 333234, Note_on_c, 0, 60, 57
1, 333304, Note_on_c, 0, 74, 49
1, 333326, Note_on_c, 0, 75, 0
1, 333364, Note_on_c, 0, 60, 0
1, 333366, Note_on_c, 0, 56, 0
1, 333390, Note_on_c, 0, 58, 58
1, 333392, Note_on_c, 0, 55, 68
1, 333394, Note_on_c, 0, 75, 64
1, 333406, Note_on_c, 0, 74, 0
1, 333480, Note_on_c, 0, 74, 66
1, 333498, Note_on_c, 0, 75, 0
1, 333500, Note_on_c, 0, 55, 0
1, 333522, Note_on_c, 0, 58, 0
1, 333550, Note_on_c, 0, 74, 0
1, 333562, Note_on_c, 0, 56, 60
1, 333565, Note_on_c, 0, 60, 48
1, 333565, Note_on_c, 0, 75, 61
1, 333632, Note_on_c, 0, 56, 0
1, 333646, Note_on_c, 0, 74, 52
1, 333652, Note_on_c, 0, 75, 0
1, 333682, Note_on_c, 0, 60, 0
1, 333722, Note_on_c, 0, 74, 0
1, 333730, Note_on_c, 0, 58, 32
1, 333738, Note_on_c, 0, 55, 48
1, 333740, Note_on_c, 0, 75, 54
1, 333802, Note_on_c, 0, 75, 0
1, 333802, Note_on_c, 0, 74, 57
1, 333808, Note_on_c, 0, 55, 0
1, 333822, Note_on_c, 0, 58, 0
1, 333888, Note_on_c, 0, 74, 0
1, 333912, Note_on_c, 0, 56, 46
1, 333920, Note_on_c, 0, 75, 50
1, 333934, Note_on_c, 0, 53, 80
1, 333976, Note_on_c, 0, 53, 0
1, 333976, Note_on_c, 0, 56, 0
1, 333978, Note_on_c, 0, 74, 53
1, 333982, Note_on_c, 0, 75, 0
1, 334058, Note_on_c, 0, 74, 0
1, 334090, Note_on_c, 0, 75, 91
1, 334090, Note_on_c, 0, 55, 88
1, 334096, Note_on_c, 0, 51, 87
1, 334128, Note_on_c, 0, 55, 0
1, 334134, Note_on_c, 0, 51, 0
1, 334158, Control_c, 0, 64, 127
1, 334212, Note_on_c, 0, 75, 0
1, 334450, Control_c, 0, 64, 0
1, 334834, Note_on_c, 0, 79, 109
1, 334834, Note_on_c, 0, 87, 100
1, 334836, Note_on_c, 0, 82, 94
1, 334840, Note_on_c, 0, 51, 99
1, 334840, Note_on_c, 0, 39, 86
1, 334844, Note_on_c, 0, 46, 79
1, 334852, Note_on_c, 0, 43, 76
1, 334890, Note_on_c, 0, 43, 0
1, 334916, Note_on_c, 0, 39, 0
1, 334940, Control_c, 0, 64, 127
1, 334942, Note_on_c, 0, 51, 0
1, 334956, Note_on_c, 0, 79, 0
1, 334958, Note_on_c, 0, 87, 0
1, 334958, Note_on_c, 0, 46, 0
1, 334972, Note_on_c, 0, 82, 0
1, 335186, Control_c, 0, 64, 0
1, 335649, Note_on_c, 0, 55, 111
1, 335652, Note_on_c, 0, 39, 92
1, 335654, Note_on_c, 0, 63, 110
1, 335654, Note_on_c, 0, 43, 90
1, 335654, Note_on_c, 0, 51, 103
1, 335656, Note_on_c, 0, 58, 95
1, 335656, Note_on_c, 0, 46, 83
1, 335724, Control_c, 0, 64, 127
1, 335756, Note_on_c, 0, 46, 0
1, 335756, Note_on_c, 0, 51, 0
1, 335758, Note_on_c, 0, 55, 0
1, 335762, Note_on_c, 0, 39, 0
1, 335772, Note_on_c, 0, 43, 0
1, 335792, Note_on_c, 0, 63, 0
1, 335808, Note_on_c, 0, 58, 0
1, 336676, Control_c, 0, 64, 0
1, 337920, Control_c, 0, 64, 0
1, 339840, Control_c, 0, 64, 0
1, 339840, End_track
0, 0, End_of_file
