0, 0, Header, 1, 2, 480
1, 0, Start_track
1, 0, MIDI_port, 0
1, 0, System_exclusive, 10, 65, 16, 66, 18, 64, 0, 127, 0, 65, 247
1, 0, MIDI_port, 0
1, 0, System_exclusive, 8, 67, 16, 76, 0, 0, 126, 0, 247
1, 0, MIDI_port, 0
1, 0, Time_signature, 4, 2, 24, 8
1, 0, Key_signature, 0, "major"
1, 0, Tempo, 500000
1, 0, End_track
2, 0, Start_track
2, 0, MIDI_port, 0
2, 0, Title_t, "Acoustic Piano"
2, 0, Control_c, 0, 0, 0
2, 0, Control_c, 0, 32, 0
2, 0, Program_c, 0, 0
2, 0, Control_c, 0, 7, 127
2, 0, Control_c, 0, 10, 64
2, 0, Control_c, 0, 11, 127
2, 0, Control_c, 0, 91, 60
2, 0, Control_c, 0, 93, 0
2, 0, Control_c, 0, 64, 0
2, 0, Control_c, 0, 64, 127
2, 0, Note_on_c, 0, 64, 44
2, 0, Note_on_c, 0, 56, 21
2, 32, Note_on_c, 0, 52, 37
2, 1326, Note_on_c, 0, 63, 47
2, 1340, Note_on_c, 0, 54, 32
2, 1422, Note_on_c, 0, 56, 0
2, 1458, Note_on_c, 0, 64, 0
2, 1572, Note_on_c, 0, 66, 37
2, 1594, Note_on_c, 0, 57, 25
2, 1668, Control_c, 0, 64, 0
2, 1722, Note_on_c, 0, 63, 0
2, 1760, Note_on_c, 0, 54, 0
2, 2006, Control_c, 0, 64, 127
2, 3152, Note_on_c, 0, 59, 18
2, 3358, Note_on_c, 0, 66, 0
2, 3388, Control_c, 0, 64, 0
2, 3650, Control_c, 0, 64, 127
2, 3908, Note_on_c, 0, 57, 0
2, 4068, Note_on_c, 0, 52, 0
2, 4538, Note_on_c, 0, 59, 0
2, 4704, Note_on_c, 0, 59, 38
2, 4764, Note_on_c, 0, 56, 13
2, 4778, Note_on_c, 0, 52, 28
2, 4936, Note_on_c, 0, 71, 64
2, 5188, Control_c, 0, 64, 0
2, 5418, Control_c, 0, 64, 127
2, 5476, Note_on_c, 0, 59, 0
2, 6158, Note_on_c, 0, 69, 48
2, 6172, Note_on_c, 0, 54, 35
2, 6196, Note_on_c, 0, 56, 0
2, 6230, Note_on_c, 0, 71, 0
2, 6396, Note_on_c, 0, 73, 59
2, 6444, Note_on_c, 0, 57, 27
2, 6464, Note_on_c, 0, 54, 0
2, 6570, Control_c, 0, 64, 0
2, 6592, Note_on_c, 0, 69, 0
2, 6876, Control_c, 0, 64, 127
2, 8066, Note_on_c, 0, 66, 20
2, 8084, Note_on_c, 0, 63, 18
2, 8290, Control_c, 0, 64, 0
2, 8336, Note_on_c, 0, 73, 0
2, 8552, Control_c, 0, 64, 127
2, 9178, Note_on_c, 0, 52, 0
2, 9210, Note_on_c, 0, 57, 0
2, 9466, Note_on_c, 0, 63, 0
2, 9566, Note_on_c, 0, 52, 52
2, 9580, Note_on_c, 0, 66, 0
2, 9628, Note_on_c, 0, 56, 41
2, 9728, Note_on_c, 0, 59, 42
2, 9764, Note_on_c, 0, 64, 57
2, 9824, Note_on_c, 0, 68, 61
2, 9918, Note_on_c, 0, 71, 74
2, 10000, Note_on_c, 0, 76, 82
2, 10088, Control_c, 0, 64, 0
2, 10350, Control_c, 0, 64, 127
2, 10614, Note_on_c, 0, 64, 0
2, 10660, Note_on_c, 0, 71, 0
2, 10752, Note_on_c, 0, 56, 0
2, 10756, Note_on_c, 0, 59, 0
2, 10774, Note_on_c, 0, 68, 0
2, 10780, Note_on_c, 0, 52, 0
2, 11056, Control_c, 0, 64, 0
2, 11344, Note_on_c, 0, 75, 78
2, 11348, Control_c, 0, 64, 127
2, 11354, Note_on_c, 0, 54, 75
2, 11360, Note_on_c, 0, 57, 57
2, 11394, Note_on_c, 0, 76, 0
2, 11430, Note_on_c, 0, 54, 0
2, 11442, Note_on_c, 0, 57, 0
2, 11470, Note_on_c, 0, 51, 69
2, 11502, Note_on_c, 0, 75, 0
2, 11522, Note_on_c, 0, 71, 82
2, 11532, Note_on_c, 0, 54, 69
2, 11572, Note_on_c, 0, 75, 58
2, 11590, Note_on_c, 0, 59, 55
2, 11612, Note_on_c, 0, 78, 80
2, 11634, Note_on_c, 0, 81, 101
2, 11716, Control_c, 0, 64, 0
2, 11962, Control_c, 0, 64, 127
2, 12114, Note_on_c, 0, 59, 0
2, 12140, Note_on_c, 0, 54, 0
2, 12142, Note_on_c, 0, 51, 0
2, 12484, Control_c, 0, 64, 0
2, 12746, Note_on_c, 0, 75, 0
2, 12762, Control_c, 0, 64, 127
2, 12828, Note_on_c, 0, 71, 0
2, 12868, Note_on_c, 0, 78, 0
2, 12882, Note_on_c, 0, 59, 70
2, 12890, Note_on_c, 0, 52, 84
2, 12890, Note_on_c, 0, 80, 90
2, 12896, Note_on_c, 0, 76, 74
2, 12918, Note_on_c, 0, 81, 0
2, 12940, Note_on_c, 0, 59, 0
2, 12996, Note_on_c, 0, 45, 72
2, 12999, Note_on_c, 0, 52, 0
2, 13042, Note_on_c, 0, 49, 67
2, 13066, Note_on_c, 0, 76, 0
2, 13088, Note_on_c, 0, 52, 75
2, 13120, Note_on_c, 0, 57, 68
2, 13142, Note_on_c, 0, 73, 74
2, 13176, Control_c, 0, 64, 0
2, 13234, Note_on_c, 0, 85, 92
2, 13252, Note_on_c, 0, 81, 84
2, 13258, Note_on_c, 0, 80, 0
2, 13438, Note_on_c, 0, 73, 0
2, 13606, Control_c, 0, 64, 127
2, 13648, Note_on_c, 0, 81, 0
2, 13664, Note_on_c, 0, 85, 0
2, 13752, Note_on_c, 0, 49, 0
2, 13754, Note_on_c, 0, 52, 0
2, 13768, Note_on_c, 0, 57, 0
2, 13771, Note_on_c, 0, 45, 0
2, 13918, Note_on_c, 0, 80, 84
2, 13918, Note_on_c, 0, 83, 108
2, 13958, Note_on_c, 0, 80, 0
2, 13966, Note_on_c, 0, 83, 0
2, 14046, Note_on_c, 0, 83, 101
2, 14056, Note_on_c, 0, 80, 56
2, 14154, Note_on_c, 0, 78, 73
2, 14156, Note_on_c, 0, 81, 87
2, 14216, Note_on_c, 0, 83, 0
2, 14219, Note_on_c, 0, 80, 0
2, 14268, Control_c, 0, 64, 0
2, 14544, Control_c, 0, 64, 127
2, 14564, Note_on_c, 0, 81, 0
2, 14574, Note_on_c, 0, 78, 0
2, 14814, Note_on_c, 0, 80, 81
2, 14824, Note_on_c, 0, 76, 62
2, 14880, Note_on_c, 0, 76, 0
2, 14920, Note_on_c, 0, 80, 0
2, 15006, Note_on_c, 0, 80, 63
2, 15024, Note_on_c, 0, 76, 64
2, 15046, Note_on_c, 0, 47, 34
2, 15112, Control_c, 0, 64, 0
2, 16050, Control_c, 0, 64, 127
2, 16480, Note_on_c, 0, 81, 46
2, 16512, Note_on_c, 0, 80, 0
2, 16748, Note_on_c, 0, 78, 41
2, 16758, Note_on_c, 0, 75, 31
2, 16788, Note_on_c, 0, 81, 0
2, 16790, Note_on_c, 0, 59, 16
2, 16838, Note_on_c, 0, 76, 0
2, 16848, Control_c, 0, 64, 0
2, 16932, Note_on_c, 0, 47, 0
2, 17478, Control_c, 0, 64, 127
2, 17626, Note_on_c, 0, 75, 0
2, 17634, Note_on_c, 0, 78, 0
2, 17816, Control_c, 0, 64, 0
2, 18218, Note_on_c, 0, 76, 37
2, 18226, Note_on_c, 0, 73, 20
2, 18430, Note_on_c, 0, 73, 0
2, 18464, Note_on_c, 0, 76, 0
2, 18578, Note_on_c, 0, 75, 42
2, 18594, Note_on_c, 0, 71, 43
2, 18660, Note_on_c, 0, 71, 0
2, 18666, Note_on_c, 0, 75, 0
2, 18846, Note_on_c, 0, 73, 51
2, 18846, Note_on_c, 0, 69, 37
2, 18914, Note_on_c, 0, 73, 0
2, 18940, Note_on_c, 0, 69, 0
2, 19068, Note_on_c, 0, 68, 50
2, 19076, Note_on_c, 0, 71, 61
2, 19122, Note_on_c, 0, 59, 0
2, 19149, Note_on_c, 0, 71, 0
2, 19160, Note_on_c, 0, 68, 0
2, 19278, Note_on_c, 0, 66, 51
2, 19290, Note_on_c, 0, 69, 39
2, 19352, Note_on_c, 0, 66, 0
2, 19366, Note_on_c, 0, 69, 0
2, 19498, Note_on_c, 0, 68, 44
2, 19512, Note_on_c, 0, 64, 44
2, 19558, Note_on_c, 0, 68, 0
2, 19570, Note_on_c, 0, 64, 0
2, 19734, Note_on_c, 0, 63, 49
2, 19734, Note_on_c, 0, 66, 35
2, 19794, Note_on_c, 0, 63, 0
2, 19820, Note_on_c, 0, 66, 0
2, 20096, Note_on_c, 0, 64, 68
2, 20116, Note_on_c, 0, 56, 23
2, 20124, Note_on_c, 0, 52, 31
2, 21198, Control_c, 0, 64, 127
2, 21434, Note_on_c, 0, 63, 48
2, 21472, Note_on_c, 0, 54, 29
2, 21522, Note_on_c, 0, 64, 0
2, 21612, Note_on_c, 0, 56, 0
2, 21628, Control_c, 0, 64, 0
2, 21640, Note_on_c, 0, 66, 42
2, 21676, Note_on_c, 0, 57, 30
2, 21772, Note_on_c, 0, 63, 0
2, 21808, Note_on_c, 0, 54, 0
2, 22196, Control_c, 0, 64, 127
2, 23104, Note_on_c, 0, 59, 24
2, 23272, Control_c, 0, 64, 0
2, 23282, Note_on_c, 0, 66, 0
2, 23656, Control_c, 0, 64, 127
2, 24042, Note_on_c, 0, 52, 0
2, 24126, Note_on_c, 0, 59, 0
2, 24140, Note_on_c, 0, 57, 0
2, 24366, Note_on_c, 0, 59, 31
2, 24474, Note_on_c, 0, 56, 19
2, 24488, Note_on_c, 0, 71, 50
2, 24494, Note_on_c, 0, 52, 26
2, 24624, Control_c, 0, 64, 0
2, 24650, Note_on_c, 0, 59, 0
2, 24900, Control_c, 0, 64, 127
2, 25622, Note_on_c, 0, 69, 39
2, 25628, Note_on_c, 0, 56, 0
2, 25636, Note_on_c, 0, 54, 32
2, 25650, Note_on_c, 0, 71, 0
2, 25704, Note_on_c, 0, 52, 0
2, 25778, Note_on_c, 0, 72, 60
2, 25826, Note_on_c, 0, 57, 28
2, 25826, Note_on_c, 0, 51, 26
2, 25838, Control_c, 0, 64, 0
2, 25841, Note_on_c, 0, 54, 0
2, 25900, Note_on_c, 0, 69, 0
2, 26420, Control_c, 0, 64, 127
2, 26760, Note_on_c, 0, 57, 0
2, 26908, Note_on_c, 0, 66, 38
2, 26932, Note_on_c, 0, 49, 46
2, 26974, Note_on_c, 0, 66, 0
2, 26988, Note_on_c, 0, 54, 53
2, 27006, Note_on_c, 0, 61, 49
2, 27016, Note_on_c, 0, 72, 0
2, 27034, Note_on_c, 0, 51, 0
2, 27058, Note_on_c, 0, 57, 42
2, 27086, Note_on_c, 0, 66, 28
2, 27136, Note_on_c, 0, 69, 46
2, 27198, Note_on_c, 0, 73, 69
2, 27250, Control_c, 0, 64, 0
2, 27650, Control_c, 0, 64, 127
2, 27698, Note_on_c, 0, 61, 0
2, 27928, Note_on_c, 0, 66, 0
2, 27928, Note_on_c, 0, 69, 0
2, 28010, Note_on_c, 0, 49, 0
2, 28062, Note_on_c, 0, 54, 0
2, 28294, Note_on_c, 0, 57, 0
2, 28330, Note_on_c, 0, 66, 62
2, 28366, Note_on_c, 0, 48, 49
2, 28430, Note_on_c, 0, 51, 62
2, 28450, Note_on_c, 0, 73, 0
2, 28458, Note_on_c, 0, 56, 65
2, 28470, Note_on_c, 0, 66, 0
2, 28556, Note_on_c, 0, 75, 88
2, 28558, Note_on_c, 0, 60, 73
2, 28574, Note_on_c, 0, 66, 42
2, 28590, Note_on_c, 0, 68, 36
2, 28726, Control_c, 0, 64, 0
2, 29186, Control_c, 0, 64, 127
2, 29236, Note_on_c, 0, 68, 0
2, 29412, Note_on_c, 0, 48, 0
2, 29420, Note_on_c, 0, 56, 0
2, 29472, Note_on_c, 0, 51, 0
2, 29590, Note_on_c, 0, 68, 79
2, 29608, Note_on_c, 0, 60, 0
2, 29618, Note_on_c, 0, 66, 0
2, 29634, Note_on_c, 0, 49, 47
2, 29674, Note_on_c, 0, 75, 0
2, 29692, Note_on_c, 0, 52, 62
2, 29747, Note_on_c, 0, 68, 0
2, 29758, Note_on_c, 0, 64, 68
2, 29758, Note_on_c, 0, 56, 48
2, 29824, Note_on_c, 0, 61, 54
2, 29848, Note_on_c, 0, 68, 48
2, 29912, Note_on_c, 0, 73, 62
2, 29924, Control_c, 0, 64, 0
2, 30008, Note_on_c, 0, 68, 0
2, 30020, Note_on_c, 0, 76, 80
2, 30026, Note_on_c, 0, 64, 0
2, 30084, Note_on_c, 0, 73, 0
2, 30140, Control_c, 0, 64, 127
2, 30218, Note_on_c, 0, 78, 77
2, 30252, Note_on_c, 0, 76, 0
2, 30342, Note_on_c, 0, 76, 51
2, 30370, Note_on_c, 0, 78, 0
2, 30458, Note_on_c, 0, 75, 72
2, 30460, Note_on_c, 0, 76, 0
2, 30542, Note_on_c, 0, 76, 51
2, 30592, Note_on_c, 0, 75, 0
2, 30662, Note_on_c, 0, 78, 78
2, 30700, Note_on_c, 0, 76, 0
2, 30724, Control_c, 0, 64, 0
2, 30830, Note_on_c, 0, 80, 65
2, 30856, Note_on_c, 0, 78, 0
2, 30882, Note_on_c, 0, 61, 0
2, 30890, Note_on_c, 0, 52, 0
2, 30896, Note_on_c, 0, 56, 0
2, 30940, Note_on_c, 0, 49, 0
2, 31098, Note_on_c, 0, 76, 54
2, 31190, Note_on_c, 0, 80, 0
2, 31322, Note_on_c, 0, 73, 43
2, 31378, Note_on_c, 0, 76, 0
2, 31606, Note_on_c, 0, 63, 28
2, 31609, Note_on_c, 0, 71, 44
2, 31616, Note_on_c, 0, 54, 32
2, 31619, Note_on_c, 0, 73, 0
2, 31814, Control_c, 0, 64, 127
2, 31844, Note_on_c, 0, 63, 0
2, 31858, Note_on_c, 0, 54, 0
2, 31876, Note_on_c, 0, 71, 0
2, 32060, Control_c, 0, 64, 0
2, 32378, Note_on_c, 0, 70, 29
2, 32408, Note_on_c, 0, 61, 23
2, 32432, Note_on_c, 0, 64, 19
2, 32435, Note_on_c, 0, 54, 24
2, 32552, Control_c, 0, 64, 127
2, 32568, Note_on_c, 0, 54, 0
2, 32590, Note_on_c, 0, 61, 0
2, 32600, Note_on_c, 0, 64, 0
2, 32672, Note_on_c, 0, 70, 0
2, 32920, Control_c, 0, 64, 0
2, 33336, Control_c, 0, 64, 127
2, 33394, Note_on_c, 0, 73, 35
2, 33408, Note_on_c, 0, 70, 22
2, 33418, Note_on_c, 0, 64, 36
2, 33462, Note_on_c, 0, 47, 28
2, 34860, Note_on_c, 0, 64, 0
2, 34924, Note_on_c, 0, 70, 0
2, 35026, Note_on_c, 0, 66, 3
2, 35194, Note_on_c, 0, 66, 0
2, 35290, Note_on_c, 0, 66, 31
2, 35622, Note_on_c, 0, 66, 0
2, 35648, Note_on_c, 0, 71, 31
2, 35654, Note_on_c, 0, 63, 29
2, 35882, Note_on_c, 0, 73, 0
2, 35948, Control_c, 0, 64, 0
2, 35952, Note_on_c, 0, 35, 43
2, 36216, Note_on_c, 0, 39, 44
2, 36242, Note_on_c, 0, 47, 0
2, 36394, Control_c, 0, 64, 127
2, 36436, Note_on_c, 0, 42, 54
2, 36462, Note_on_c, 0, 35, 0
2, 36536, Note_on_c, 0, 39, 0
2, 36660, Note_on_c, 0, 47, 53
2, 36680, Note_on_c, 0, 42, 0
2, 36892, Note_on_c, 0, 51, 56
2, 36896, Note_on_c, 0, 47, 0
2, 37084, Control_c, 0, 64, 0
2, 37120, Note_on_c, 0, 54, 60
2, 37196, Note_on_c, 0, 51, 0
2, 37362, Note_on_c, 0, 57, 53
2, 37386, Note_on_c, 0, 54, 0
2, 37404, Note_on_c, 0, 71, 0
2, 37452, Note_on_c, 0, 63, 0
2, 37546, Control_c, 0, 64, 127
2, 37612, Note_on_c, 0, 56, 46
2, 37622, Control_c, 0, 64, 0
2, 37644, Note_on_c, 0, 57, 0
2, 37908, Note_on_c, 0, 59, 37
2, 37922, Note_on_c, 0, 56, 0
2, 38176, Control_c, 0, 64, 127
2, 38220, Note_on_c, 0, 59, 0
2, 38220, Note_on_c, 0, 57, 24
2, 38422, Control_c, 0, 64, 0
2, 38522, Note_on_c, 0, 54, 30
2, 38568, Note_on_c, 0, 57, 0
2, 38806, Control_c, 0, 64, 127
2, 39020, Note_on_c, 0, 54, 0
2, 39034, Note_on_c, 0, 56, 18
2, 39042, Note_on_c, 0, 64, 52
2, 39090, Note_on_c, 0, 52, 20
2, 39604, Control_c, 0, 64, 0
2, 39850, Control_c, 0, 64, 127
2, 40274, Note_on_c, 0, 63, 45
2, 40274, Note_on_c, 0, 54, 28
2, 40336, Note_on_c, 0, 56, 0
2, 40356, Note_on_c, 0, 64, 0
2, 40508, Note_on_c, 0, 66, 40
2, 40558, Control_c, 0, 64, 0
2, 40576, Note_on_c, 0, 57, 25
2, 40612, Note_on_c, 0, 54, 0
2, 40644, Note_on_c, 0, 63, 0
2, 41080, Control_c, 0, 64, 127
2, 42062, Note_on_c, 0, 59, 22
2, 42198, Note_on_c, 0, 66, 0
2, 42232, Control_c, 0, 64, 0
2, 42524, Control_c, 0, 64, 127
2, 42742, Note_on_c, 0, 57, 0
2, 42788, Note_on_c, 0, 59, 0
2, 42926, Note_on_c, 0, 52, 0
2, 43368, Note_on_c, 0, 59, 17
2, 43460, Note_on_c, 0, 56, 16
2, 43492, Note_on_c, 0, 52, 25
2, 43514, Note_on_c, 0, 71, 58
2, 43662, Control_c, 0, 64, 0
2, 43906, Control_c, 0, 64, 127
2, 43968, Note_on_c, 0, 59, 0
2, 44802, Note_on_c, 0, 54, 38
2, 44812, Note_on_c, 0, 69, 36
2, 44842, Note_on_c, 0, 71, 0
2, 44880, Note_on_c, 0, 56, 0
2, 45000, Note_on_c, 0, 73, 46
2, 45040, Note_on_c, 0, 57, 27
2, 45070, Note_on_c, 0, 54, 0
2, 45086, Note_on_c, 0, 69, 0
2, 45150, Control_c, 0, 64, 0
2, 45582, Control_c, 0, 64, 127
2, 46498, Note_on_c, 0, 66, 29
2, 46514, Note_on_c, 0, 63, 20
2, 46714, Note_on_c, 0, 73, 0
2, 46888, Control_c, 0, 64, 0
2, 47118, Control_c, 0, 64, 127
2, 47342, Note_on_c, 0, 57, 0
2, 47398, Note_on_c, 0, 63, 0
2, 47398, Note_on_c, 0, 52, 0
2, 47512, Note_on_c, 0, 66, 0
2, 47726, Note_on_c, 0, 52, 37
2, 47796, Note_on_c, 0, 56, 35
2, 47854, Note_on_c, 0, 59, 47
2, 47857, Note_on_c, 0, 64, 51
2, 47904, Note_on_c, 0, 68, 61
2, 47970, Note_on_c, 0, 71, 86
2, 48022, Note_on_c, 0, 76, 83
2, 48286, Control_c, 0, 64, 0
2, 48500, Control_c, 0, 64, 127
2, 48564, Note_on_c, 0, 64, 0
2, 48700, Note_on_c, 0, 71, 0
2, 48716, Note_on_c, 0, 59, 0
2, 48724, Note_on_c, 0, 68, 0
2, 48734, Note_on_c, 0, 56, 0
2, 48740, Note_on_c, 0, 52, 0
2, 48854, Control_c, 0, 64, 0
2, 49038, Control_c, 0, 64, 127
2, 49158, Note_on_c, 0, 75, 88
2, 49158, Note_on_c, 0, 54, 83
2, 49172, Note_on_c, 0, 57, 54
2, 49180, Note_on_c, 0, 76, 0
2, 49228, Note_on_c, 0, 54, 0
2, 49236, Note_on_c, 0, 57, 0
2, 49268, Note_on_c, 0, 51, 73
2, 49284, Note_on_c, 0, 75, 0
2, 49298, Note_on_c, 0, 71, 87
2, 49334, Note_on_c, 0, 54, 62
2, 49358, Note_on_c, 0, 75, 61
2, 49400, Note_on_c, 0, 59, 61
2, 49400, Note_on_c, 0, 78, 82
2, 49432, Note_on_c, 0, 81, 100
2, 49484, Control_c, 0, 64, 0
2, 49698, Control_c, 0, 64, 127
2, 49748, Note_on_c, 0, 59, 0
2, 49756, Note_on_c, 0, 51, 0
2, 49766, Note_on_c, 0, 54, 0
2, 50252, Control_c, 0, 64, 0
2, 50416, Note_on_c, 0, 75, 0
2, 50482, Control_c, 0, 64, 127
2, 50530, Note_on_c, 0, 71, 0
2, 50572, Note_on_c, 0, 81, 0
2, 50574, Note_on_c, 0, 78, 0
2, 50580, Note_on_c, 0, 80, 88
2, 50586, Note_on_c, 0, 59, 75
2, 50596, Note_on_c, 0, 76, 73
2, 50602, Note_on_c, 0, 52, 78
2, 50638, Note_on_c, 0, 59, 0
2, 50648, Note_on_c, 0, 52, 0
2, 50710, Note_on_c, 0, 45, 62
2, 50740, Note_on_c, 0, 49, 71
2, 50754, Note_on_c, 0, 76, 0
2, 50786, Note_on_c, 0, 73, 64
2, 50802, Note_on_c, 0, 52, 64
2, 50810, Note_on_c, 0, 80, 0
2, 50820, Note_on_c, 0, 57, 72
2, 50852, Control_c, 0, 64, 0
2, 50876, Note_on_c, 0, 81, 87
2, 50880, Note_on_c, 0, 85, 95
2, 51084, Note_on_c, 0, 73, 0
2, 51128, Control_c, 0, 64, 127
2, 51164, Note_on_c, 0, 81, 0
2, 51182, Note_on_c, 0, 85, 0
2, 51466, Note_on_c, 0, 83, 108
2, 51471, Note_on_c, 0, 80, 79
2, 51514, Note_on_c, 0, 80, 0
2, 51554, Note_on_c, 0, 83, 0
2, 51660, Note_on_c, 0, 83, 97
2, 51696, Note_on_c, 0, 78, 69
2, 51714, Note_on_c, 0, 81, 84
2, 51773, Control_c, 0, 64, 0
2, 51782, Note_on_c, 0, 83, 0
2, 51782, Note_on_c, 0, 49, 0
2, 51790, Note_on_c, 0, 52, 0
2, 51818, Note_on_c, 0, 57, 0
2, 51868, Note_on_c, 0, 45, 0
2, 52266, Control_c, 0, 64, 127
2, 52312, Note_on_c, 0, 80, 83
2, 52324, Note_on_c, 0, 78, 0
2, 52326, Note_on_c, 0, 76, 47
2, 52330, Note_on_c, 0, 81, 0
2, 52410, Note_on_c, 0, 76, 0
2, 52446, Note_on_c, 0, 80, 0
2, 52528, Note_on_c, 0, 80, 66
2, 52546, Note_on_c, 0, 76, 71
2, 52558, Note_on_c, 0, 47, 39
2, 52788, Control_c, 0, 64, 0
2, 53526, Control_c, 0, 64, 127
2, 53978, Note_on_c, 0, 81, 46
2, 54004, Note_on_c, 0, 80, 0
2, 54246, Note_on_c, 0, 78, 44
2, 54254, Note_on_c, 0, 75, 41
2, 54264, Control_c, 0, 64, 0
2, 54286, Note_on_c, 0, 59, 20
2, 54300, Note_on_c, 0, 81, 0
2, 54338, Note_on_c, 0, 76, 0
2, 54456, Note_on_c, 0, 47, 0
2, 55032, Control_c, 0, 64, 127
2, 55140, Note_on_c, 0, 78, 0
2, 55148, Note_on_c, 0, 75, 0
2, 55400, Control_c, 0, 64, 0
2, 55522, Note_on_c, 0, 73, 45
2, 55534, Note_on_c, 0, 76, 37
2, 55692, Control_c, 0, 64, 127
2, 55718, Note_on_c, 0, 73, 0
2, 55774, Note_on_c, 0, 76, 0
2, 55882, Note_on_c, 0, 75, 49
2, 55890, Note_on_c, 0, 71, 53
2, 55908, Control_c, 0, 64, 0
2, 55960, Note_on_c, 0, 71, 0
2, 55976, Note_on_c, 0, 75, 0
2, 56122, Note_on_c, 0, 69, 45
2, 56122, Note_on_c, 0, 73, 58
2, 56154, Note_on_c, 0, 59, 0
2, 56200, Note_on_c, 0, 73, 0
2, 56252, Note_on_c, 0, 69, 0
2, 56332, Note_on_c, 0, 71, 69
2, 56332, Note_on_c, 0, 68, 53
2, 56408, Note_on_c, 0, 68, 0
2, 56438, Note_on_c, 0, 71, 0
2, 56538, Note_on_c, 0, 69, 52
2, 56548, Note_on_c, 0, 66, 44
2, 56618, Note_on_c, 0, 66, 0
2, 56658, Note_on_c, 0, 69, 0
2, 56768, Note_on_c, 0, 68, 46
2, 56790, Note_on_c, 0, 64, 43
2, 56826, Note_on_c, 0, 68, 0
2, 56856, Note_on_c, 0, 64, 0
2, 57024, Note_on_c, 0, 63, 38
2, 57027, Note_on_c, 0, 66, 29
2, 57088, Note_on_c, 0, 63, 0
2, 57148, Note_on_c, 0, 66, 0
2, 57366, Note_on_c, 0, 64, 34
2, 57376, Note_on_c, 0, 56, 20
2, 57394, Note_on_c, 0, 52, 23
2, 57566, Control_c, 0, 64, 127
2, 58640, Note_on_c, 0, 63, 33
2, 58640, Note_on_c, 0, 54, 25
2, 58698, Note_on_c, 0, 64, 0
2, 58716, Note_on_c, 0, 56, 0
2, 58876, Note_on_c, 0, 66, 28
2, 58906, Note_on_c, 0, 57, 25
2, 58918, Control_c, 0, 64, 0
2, 58926, Note_on_c, 0, 54, 0
2, 58966, Note_on_c, 0, 63, 0
2, 59426, Control_c, 0, 64, 127
2, 60296, Note_on_c, 0, 59, 26
2, 60434, Note_on_c, 0, 66, 0
2, 60502, Control_c, 0, 64, 0
2, 60684, Control_c, 0, 64, 127
2, 60786, Note_on_c, 0, 57, 0
2, 60962, Note_on_c, 0, 59, 0
2, 61176, Note_on_c, 0, 52, 0
2, 61652, Note_on_c, 0, 59, 22
2, 61672, Note_on_c, 0, 56, 12
2, 61692, Note_on_c, 0, 52, 16
2, 61792, Note_on_c, 0, 71, 49
2, 61838, Control_c, 0, 64, 0
2, 62054, Control_c, 0, 64, 127
2, 62174, Note_on_c, 0, 59, 0
2, 62588, Note_on_c, 0, 56, 0
2, 62710, Note_on_c, 0, 52, 0
2, 62890, Note_on_c, 0, 69, 44
2, 62898, Note_on_c, 0, 54, 34
2, 62948, Note_on_c, 0, 71, 0
2, 63082, Note_on_c, 0, 72, 65
2, 63085, Note_on_c, 0, 54, 0
2, 63096, Note_on_c, 0, 57, 35
2, 63108, Note_on_c, 0, 51, 35
2, 63206, Control_c, 0, 64, 0
2, 63222, Note_on_c, 0, 69, 0
2, 63528, Control_c, 0, 64, 127
2, 64042, Note_on_c, 0, 57, 0
2, 64214, Note_on_c, 0, 66, 52
2, 64282, Note_on_c, 0, 72, 0
2, 64282, Note_on_c, 0, 49, 37
2, 64292, Note_on_c, 0, 66, 0
2, 64310, Note_on_c, 0, 54, 57
2, 64314, Note_on_c, 0, 61, 55
2, 64370, Note_on_c, 0, 57, 48
2, 64372, Note_on_c, 0, 51, 0
2, 64378, Note_on_c, 0, 66, 43
2, 64412, Note_on_c, 0, 69, 57
2, 64436, Note_on_c, 0, 73, 81
2, 64604, Control_c, 0, 64, 0
2, 64942, Control_c, 0, 64, 127
2, 64986, Note_on_c, 0, 61, 0
2, 65170, Note_on_c, 0, 66, 0
2, 65210, Note_on_c, 0, 69, 0
2, 65302, Note_on_c, 0, 54, 0
2, 65380, Note_on_c, 0, 49, 0
2, 65468, Note_on_c, 0, 73, 0
2, 65510, Note_on_c, 0, 57, 0
2, 65572, Note_on_c, 0, 66, 82
2, 65714, Note_on_c, 0, 66, 0
2, 65856, Note_on_c, 0, 75, 91
2, 65872, Note_on_c, 0, 68, 62
2, 65876, Note_on_c, 0, 60, 59
2, 65880, Note_on_c, 0, 66, 57
2, 65884, Note_on_c, 0, 48, 43
2, 65888, Note_on_c, 0, 56, 47
2, 65904, Note_on_c, 0, 51, 52
2, 66146, Control_c, 0, 64, 127
2, 66386, Note_on_c, 0, 66, 0
2, 66514, Note_on_c, 0, 68, 0
2, 66618, Note_on_c, 0, 56, 0
2, 66621, Note_on_c, 0, 48, 0
2, 66706, Note_on_c, 0, 51, 0
2, 66720, Note_on_c, 0, 60, 0
2, 66898, Note_on_c, 0, 68, 81
2, 66958, Note_on_c, 0, 49, 58
2, 66990, Note_on_c, 0, 75, 0
2, 67012, Note_on_c, 0, 52, 77
2, 67072, Note_on_c, 0, 56, 59
2, 67112, Note_on_c, 0, 68, 0
2, 67134, Note_on_c, 0, 61, 78
2, 67150, Note_on_c, 0, 64, 83
2, 67158, Control_c, 0, 64, 0
2, 67248, Note_on_c, 0, 68, 84
2, 67296, Note_on_c, 0, 64, 0
2, 67344, Control_c, 0, 64, 127
2, 67356, Note_on_c, 0, 73, 73
2, 67398, Note_on_c, 0, 68, 0
2, 67480, Note_on_c, 0, 73, 0
2, 67534, Note_on_c, 0, 76, 78
2, 67574, Note_on_c, 0, 77, 31
2, 67642, Note_on_c, 0, 77, 0
2, 67736, Note_on_c, 0, 76, 0
2, 67748, Note_on_c, 0, 78, 82
2, 67858, Note_on_c, 0, 76, 74
2, 67882, Control_c, 0, 64, 0
2, 67896, Note_on_c, 0, 78, 0
2, 67944, Note_on_c, 0, 75, 73
2, 67964, Note_on_c, 0, 76, 0
2, 68018, Note_on_c, 0, 56, 0
2, 68018, Note_on_c, 0, 76, 89
2, 68044, Note_on_c, 0, 52, 0
2, 68052, Note_on_c, 0, 61, 0
2, 68074, Note_on_c, 0, 49, 0
2, 68096, Note_on_c, 0, 75, 0
2, 68208, Note_on_c, 0, 78, 74
2, 68236, Note_on_c, 0, 76, 0
2, 68450, Note_on_c, 0, 80, 59
2, 68458, Note_on_c, 0, 78, 0
2, 68752, Note_on_c, 0, 76, 37
2, 68806, Note_on_c, 0, 80, 0
2, 68974, Note_on_c, 0, 73, 33
2, 69016, Note_on_c, 0, 76, 0
2, 69266, Note_on_c, 0, 71, 40
2, 69269, Note_on_c, 0, 63, 26
2, 69274, Note_on_c, 0, 54, 30
2, 69276, Note_on_c, 0, 73, 0
2, 69526, Note_on_c, 0, 63, 0
2, 69536, Note_on_c, 0, 54, 0
2, 69540, Control_c, 0, 64, 127
2, 69548, Note_on_c, 0, 71, 0
2, 69664, Control_c, 0, 64, 0
2, 70052, Note_on_c, 0, 70, 33
2, 70068, Note_on_c, 0, 61, 20
2, 70082, Note_on_c, 0, 64, 27
2, 70088, Note_on_c, 0, 54, 23
2, 70248, Control_c, 0, 64, 127
2, 70262, Note_on_c, 0, 64, 0
2, 70284, Note_on_c, 0, 61, 0
2, 70318, Note_on_c, 0, 54, 0
2, 70350, Note_on_c, 0, 70, 0
2, 70538, Control_c, 0, 64, 0
2, 71000, Control_c, 0, 64, 127
2, 71006, Note_on_c, 0, 73, 38
2, 71026, Note_on_c, 0, 70, 20
2, 71028, Note_on_c, 0, 47, 26
2, 71056, Note_on_c, 0, 64, 19
2, 72206, Note_on_c, 0, 64, 0
2, 72324, Note_on_c, 0, 70, 0
2, 72502, Note_on_c, 0, 66, 6
2, 72856, Note_on_c, 0, 63, 15
2, 72860, Control_c, 0, 64, 0
2, 72878, Note_on_c, 0, 71, 24
2, 72888, Note_on_c, 0, 66, 0
2, 72988, Note_on_c, 0, 73, 0
2, 73120, Control_c, 0, 64, 127
2, 73168, Note_on_c, 0, 63, 0
2, 73186, Note_on_c, 0, 71, 0
2, 73412, Note_on_c, 0, 35, 29
2, 73456, Note_on_c, 0, 47, 0
2, 73710, Note_on_c, 0, 35, 0
2, 73724, Note_on_c, 0, 39, 32
2, 73956, Note_on_c, 0, 39, 0
2, 73956, Note_on_c, 0, 42, 34
2, 74130, Note_on_c, 0, 42, 0
2, 74186, Note_on_c, 0, 47, 52
2, 74342, Note_on_c, 0, 47, 0
2, 74402, Note_on_c, 0, 51, 36
2, 74592, Note_on_c, 0, 54, 59
2, 74644, Note_on_c, 0, 51, 0
2, 74812, Note_on_c, 0, 54, 0
2, 74818, Note_on_c, 0, 57, 58
2, 75028, Note_on_c, 0, 57, 0
2, 75042, Note_on_c, 0, 59, 64
2, 75246, Note_on_c, 0, 63, 69
2, 75306, Note_on_c, 0, 59, 0
2, 75466, Note_on_c, 0, 66, 62
2, 75568, Note_on_c, 0, 63, 0
2, 75700, Note_on_c, 0, 69, 69
2, 75784, Note_on_c, 0, 66, 0
2, 76064, Note_on_c, 0, 72, 68
2, 76072, Note_on_c, 0, 66, 24
2, 76090, Note_on_c, 0, 63, 30
2, 76118, Note_on_c, 0, 57, 15
2, 76162, Control_c, 0, 64, 0
2, 76174, Note_on_c, 0, 69, 0
2, 76946, Control_c, 0, 64, 127
2, 77222, Note_on_c, 0, 72, 0
2, 77234, Note_on_c, 0, 71, 65
2, 77278, Note_on_c, 0, 71, 0
2, 77414, Note_on_c, 0, 71, 57
2, 77530, Control_c, 0, 64, 0
2, 77544, Note_on_c, 0, 78, 64
2, 77566, Note_on_c, 0, 71, 0
2, 77976, Control_c, 0, 64, 127
2, 78592, Note_on_c, 0, 78, 0
2, 78628, Note_on_c, 0, 63, 0
2, 78650, Note_on_c, 0, 57, 0
2, 78660, Note_on_c, 0, 66, 0
2, 78662, Note_on_c, 0, 71, 70
2, 78716, Note_on_c, 0, 71, 0
2, 78798, Note_on_c, 0, 71, 73
2, 78826, Note_on_c, 0, 64, 52
2, 78829, Note_on_c, 0, 59, 42
2, 78852, Note_on_c, 0, 55, 27
2, 78944, Note_on_c, 0, 79, 95
2, 79082, Control_c, 0, 64, 0
2, 79234, Note_on_c, 0, 71, 0
2, 79450, Control_c, 0, 64, 127
2, 79782, Note_on_c, 0, 55, 0
2, 79788, Note_on_c, 0, 64, 0
2, 79792, Note_on_c, 0, 59, 0
2, 79996, Note_on_c, 0, 79, 0
2, 80086, Note_on_c, 0, 71, 98
2, 80242, Note_on_c, 0, 71, 0
2, 80338, Note_on_c, 0, 81, 105
2, 80341, Note_on_c, 0, 74, 92
2, 80344, Note_on_c, 0, 77, 92
2, 80344, Note_on_c, 0, 71, 100
2, 80348, Note_on_c, 0, 65, 87
2, 80356, Note_on_c, 0, 62, 65
2, 80356, Note_on_c, 0, 55, 74
2, 80356, Note_on_c, 0, 59, 66
2, 80526, Control_c, 0, 64, 0
2, 80880, Control_c, 0, 64, 127
2, 81080, Note_on_c, 0, 62, 0
2, 81098, Note_on_c, 0, 74, 0
2, 81170, Note_on_c, 0, 59, 0
2, 81170, Note_on_c, 0, 65, 0
2, 81198, Note_on_c, 0, 55, 0
2, 81218, Note_on_c, 0, 77, 0
2, 81280, Note_on_c, 0, 81, 0
2, 81416, Note_on_c, 0, 71, 0
2, 81504, Note_on_c, 0, 59, 97
2, 81504, Note_on_c, 0, 55, 95
2, 81588, Note_on_c, 0, 59, 0
2, 81628, Note_on_c, 0, 55, 0
2, 81678, Note_on_c, 0, 77, 99
2, 81678, Note_on_c, 0, 67, 89
2, 81681, Note_on_c, 0, 71, 94
2, 81684, Note_on_c, 0, 74, 92
2, 81690, Note_on_c, 0, 62, 92
2, 81694, Note_on_c, 0, 59, 71
2, 81848, Control_c, 0, 64, 0
2, 82186, Control_c, 0, 64, 127
2, 82284, Note_on_c, 0, 62, 0
2, 82312, Note_on_c, 0, 59, 0
2, 82728, Note_on_c, 0, 71, 0
2, 82744, Note_on_c, 0, 74, 0
2, 82748, Note_on_c, 0, 67, 0
2, 82812, Note_on_c, 0, 55, 92
2, 82814, Note_on_c, 0, 59, 88
2, 82928, Note_on_c, 0, 59, 0
2, 82958, Note_on_c, 0, 55, 0
2, 82994, Note_on_c, 0, 76, 87
2, 83000, Note_on_c, 0, 72, 69
2, 83002, Note_on_c, 0, 67, 71
2, 83004, Note_on_c, 0, 64, 72
2, 83010, Note_on_c, 0, 60, 68
2, 83078, Control_c, 0, 64, 0
2, 83128, Note_on_c, 0, 77, 0
2, 83568, Control_c, 0, 64, 127
2, 83796, Note_on_c, 0, 67, 0
2, 83834, Note_on_c, 0, 72, 0
2, 84036, Note_on_c, 0, 64, 0
2, 84048, Note_on_c, 0, 74, 93
2, 84060, Note_on_c, 0, 65, 52
2, 84066, Note_on_c, 0, 60, 0
2, 84076, Note_on_c, 0, 62, 44
2, 84112, Note_on_c, 0, 76, 0
2, 84166, Note_on_c, 0, 74, 0
2, 84228, Note_on_c, 0, 62, 0
2, 84234, Note_on_c, 0, 74, 84
2, 84246, Note_on_c, 0, 65, 0
2, 84252, Note_on_c, 0, 67, 54
2, 84260, Note_on_c, 0, 64, 48
2, 84414, Control_c, 0, 64, 0
2, 84966, Control_c, 0, 64, 127
2, 85292, Note_on_c, 0, 72, 76
2, 85352, Note_on_c, 0, 74, 0
2, 85404, Note_on_c, 0, 72, 0
2, 85458, Note_on_c, 0, 72, 84
2, 85488, Note_on_c, 0, 65, 36
2, 85494, Note_on_c, 0, 67, 0
2, 85494, Note_on_c, 0, 62, 33
2, 85572, Note_on_c, 0, 64, 0
2, 85612, Control_c, 0, 64, 0
2, 86118, Control_c, 0, 64, 127
2, 86528, Note_on_c, 0, 71, 66
2, 86542, Note_on_c, 0, 72, 0
2, 86622, Note_on_c, 0, 71, 0
2, 86702, Note_on_c, 0, 71, 72
2, 86744, Note_on_c, 0, 65, 0
2, 86762, Note_on_c, 0, 60, 16
2, 86764, Note_on_c, 0, 64, 23
2, 86826, Control_c, 0, 64, 0
2, 86852, Note_on_c, 0, 62, 0
2, 87318, Control_c, 0, 64, 127
2, 87620, Note_on_c, 0, 71, 0
2, 87710, Note_on_c, 0, 64, 0
2, 87846, Note_on_c, 0, 70, 38
2, 87972, Note_on_c, 0, 70, 0
2, 88068, Note_on_c, 0, 70, 29
2, 88102, Note_on_c, 0, 59, 18
2, 88106, Note_on_c, 0, 64, 30
2, 88108, Note_on_c, 0, 60, 0
2, 88316, Control_c, 0, 64, 0
2, 88824, Control_c, 0, 64, 127
2, 89574, Note_on_c, 0, 63, 20
2, 89696, Note_on_c, 0, 64, 0
2, 89884, Control_c, 0, 64, 0
2, 90130, Control_c, 0, 64, 127
2, 90468, Note_on_c, 0, 71, 26
2, 90562, Note_on_c, 0, 70, 0
2, 90574, Control_c, 0, 64, 0
2, 90868, Control_c, 0, 64, 127
2, 91128, Note_on_c, 0, 69, 17
2, 91206, Control_c, 0, 64, 0
2, 91218, Note_on_c, 0, 71, 0
2, 91466, Control_c, 0, 64, 127
2, 91774, Control_c, 0, 64, 0
2, 91796, Note_on_c, 0, 69, 0
2, 91799, Note_on_c, 0, 66, 13
2, 91988, Control_c, 0, 64, 127
2, 92062, Note_on_c, 0, 63, 0
2, 92112, Note_on_c, 0, 59, 0
2, 92132, Note_on_c, 0, 66, 0
2, 92676, Note_on_c, 0, 64, 30
2, 92690, Note_on_c, 0, 56, 11
2, 92706, Note_on_c, 0, 52, 22
2, 92864, Control_c, 0, 64, 0
2, 93448, Control_c, 0, 64, 127
2, 93940, Note_on_c, 0, 64, 0
2, 93943, Note_on_c, 0, 63, 27
2, 93947, Note_on_c, 0, 54, 25
2, 94030, Note_on_c, 0, 56, 0
2, 94140, Control_c, 0, 64, 0
2, 94164, Note_on_c, 0, 66, 30
2, 94204, Note_on_c, 0, 57, 18
2, 94212, Note_on_c, 0, 54, 0
2, 94215, Note_on_c, 0, 63, 0
2, 94724, Control_c, 0, 64, 127
2, 94888, Note_on_c, 0, 66, 0
2, 95492, Note_on_c, 0, 59, 35
2, 95550, Note_on_c, 0, 59, 0
2, 95584, Control_c, 0, 64, 0
2, 95656, Note_on_c, 0, 61, 58
2, 95716, Note_on_c, 0, 61, 0
2, 95820, Note_on_c, 0, 63, 65
2, 95868, Note_on_c, 0, 63, 0
2, 95990, Note_on_c, 0, 64, 55
2, 96044, Note_on_c, 0, 64, 0
2, 96146, Note_on_c, 0, 66, 47
2, 96216, Note_on_c, 0, 66, 0
2, 96304, Note_on_c, 0, 68, 52
2, 96358, Note_on_c, 0, 68, 0
2, 96380, Note_on_c, 0, 57, 0
2, 96426, Note_on_c, 0, 52, 0
2, 96460, Note_on_c, 0, 69, 48
2, 96526, Note_on_c, 0, 69, 0
2, 96626, Note_on_c, 0, 70, 45
2, 96686, Note_on_c, 0, 70, 0
2, 96802, Note_on_c, 0, 71, 60
2, 96810, Note_on_c, 0, 64, 45
2, 96820, Note_on_c, 0, 56, 31
2, 96872, Note_on_c, 0, 71, 0
2, 97170, Note_on_c, 0, 71, 52
2, 97234, Note_on_c, 0, 71, 0
2, 97526, Note_on_c, 0, 71, 40
2, 97598, Note_on_c, 0, 71, 0
2, 97852, Note_on_c, 0, 71, 43
2, 97924, Note_on_c, 0, 71, 0
2, 97954, Note_on_c, 0, 56, 0
2, 97962, Note_on_c, 0, 64, 0
2, 97966, Note_on_c, 0, 63, 52
2, 97990, Note_on_c, 0, 54, 42
2, 98058, Control_c, 0, 64, 127
2, 98136, Control_c, 0, 64, 0
2, 98178, Note_on_c, 0, 71, 51
2, 98196, Note_on_c, 0, 66, 42
2, 98236, Note_on_c, 0, 57, 36
2, 98260, Note_on_c, 0, 71, 0
2, 98286, Note_on_c, 0, 63, 0
2, 98314, Note_on_c, 0, 54, 0
2, 98460, Note_on_c, 0, 71, 68
2, 98546, Note_on_c, 0, 71, 0
2, 98648, Note_on_c, 0, 71, 69
2, 98758, Note_on_c, 0, 71, 0
2, 98822, Note_on_c, 0, 71, 79
2, 98920, Note_on_c, 0, 71, 0
2, 98980, Note_on_c, 0, 71, 92
2, 99092, Note_on_c, 0, 71, 0
2, 99124, Note_on_c, 0, 71, 74
2, 99220, Note_on_c, 0, 71, 0
2, 99266, Note_on_c, 0, 71, 106
2, 99320, Note_on_c, 0, 57, 0
2, 99332, Note_on_c, 0, 66, 0
2, 99358, Note_on_c, 0, 71, 0
2, 99410, Control_c, 0, 64, 127
2, 99432, Note_on_c, 0, 71, 89
2, 99436, Note_on_c, 0, 66, 46
2, 99450, Note_on_c, 0, 57, 33
2, 99450, Note_on_c, 0, 59, 56
2, 99464, Note_on_c, 0, 63, 48
2, 99652, Note_on_c, 0, 71, 0
2, 99658, Note_on_c, 0, 73, 76
2, 99788, Note_on_c, 0, 71, 92
2, 99832, Note_on_c, 0, 73, 0
2, 99884, Note_on_c, 0, 70, 83
2, 99894, Note_on_c, 0, 71, 0
2, 99994, Note_on_c, 0, 70, 0
2, 100002, Note_on_c, 0, 71, 83
2, 100100, Note_on_c, 0, 73, 81
2, 100134, Note_on_c, 0, 71, 0
2, 100204, Note_on_c, 0, 75, 74
2, 100252, Note_on_c, 0, 73, 0
2, 100256, Note_on_c, 0, 75, 0
2, 100290, Note_on_c, 0, 76, 72
2, 100368, Note_on_c, 0, 78, 78
2, 100394, Note_on_c, 0, 76, 0
2, 100436, Note_on_c, 0, 80, 85
2, 100468, Note_on_c, 0, 80, 0
2, 100486, Note_on_c, 0, 78, 0
2, 100510, Note_on_c, 0, 81, 89
2, 100516, Note_on_c, 0, 63, 0
2, 100522, Note_on_c, 0, 59, 0
2, 100550, Note_on_c, 0, 57, 0
2, 100570, Note_on_c, 0, 83, 108
2, 100578, Note_on_c, 0, 66, 0
2, 100608, Note_on_c, 0, 81, 0
2, 100630, Note_on_c, 0, 85, 84
2, 100706, Note_on_c, 0, 87, 85
2, 100712, Note_on_c, 0, 83, 0
2, 100790, Note_on_c, 0, 76, 101
2, 100790, Note_on_c, 0, 64, 75
2, 100792, Note_on_c, 0, 88, 103
2, 100794, Note_on_c, 0, 56, 52
2, 100814, Note_on_c, 0, 59, 52
2, 100864, Note_on_c, 0, 87, 0
2, 100882, Note_on_c, 0, 85, 0
2, 100930, Control_c, 0, 64, 0
2, 101392, Control_c, 0, 64, 127
2, 101732, Note_on_c, 0, 76, 0
2, 101860, Note_on_c, 0, 59, 0
2, 101886, Note_on_c, 0, 87, 87
2, 101886, Note_on_c, 0, 75, 87
2, 101926, Note_on_c, 0, 56, 0
2, 101942, Note_on_c, 0, 64, 0
2, 101972, Note_on_c, 0, 88, 0
2, 102036, Note_on_c, 0, 75, 0
2, 102041, Note_on_c, 0, 87, 0
2, 102074, Note_on_c, 0, 86, 105
2, 102076, Note_on_c, 0, 74, 101
2, 102082, Note_on_c, 0, 65, 71
2, 102086, Note_on_c, 0, 56, 51
2, 102106, Note_on_c, 0, 59, 54
2, 102112, Note_on_c, 0, 85, 31
2, 102184, Note_on_c, 0, 85, 0
2, 102314, Control_c, 0, 64, 0
2, 102744, Control_c, 0, 64, 127
2, 103206, Note_on_c, 0, 65, 0
2, 103262, Note_on_c, 0, 74, 0
2, 103396, Note_on_c, 0, 59, 0
2, 103398, Note_on_c, 0, 85, 85
2, 103406, Note_on_c, 0, 73, 68
2, 103408, Note_on_c, 0, 66, 50
2, 103422, Note_on_c, 0, 61, 43
2, 103422, Note_on_c, 0, 57, 43
2, 103498, Note_on_c, 0, 56, 0
2, 103632, Note_on_c, 0, 86, 0
2, 103640, Control_c, 0, 64, 0
2, 104096, Control_c, 0, 64, 127
2, 104568, Note_on_c, 0, 85, 0
2, 104624, Note_on_c, 0, 73, 0
2, 104648, Note_on_c, 0, 66, 0
2, 104668, Note_on_c, 0, 61, 0
2, 104680, Note_on_c, 0, 59, 55
2, 104708, Note_on_c, 0, 57, 0
2, 104720, Note_on_c, 0, 64, 57
2, 104760, Note_on_c, 0, 68, 71
2, 104832, Note_on_c, 0, 71, 84
2, 104890, Note_on_c, 0, 76, 77
2, 104970, Note_on_c, 0, 80, 88
2, 105018, Control_c, 0, 64, 0
2, 105050, Note_on_c, 0, 83, 118
2, 105386, Control_c, 0, 64, 127
2, 105540, Note_on_c, 0, 71, 0
2, 105632, Note_on_c, 0, 76, 0
2, 105752, Note_on_c, 0, 80, 0
2, 105752, Note_on_c, 0, 83, 0
2, 105766, Note_on_c, 0, 64, 0
2, 105996, Note_on_c, 0, 68, 0
2, 106116, Note_on_c, 0, 59, 0
2, 106162, Note_on_c, 0, 82, 85
2, 106286, Note_on_c, 0, 82, 0
2, 106360, Note_on_c, 0, 88, 97
2, 106378, Note_on_c, 0, 61, 36
2, 106380, Note_on_c, 0, 67, 37
2, 106420, Note_on_c, 0, 64, 36
2, 106540, Control_c, 0, 64, 0
2, 106878, Control_c, 0, 64, 127
2, 108276, Note_on_c, 0, 88, 0
2, 108282, Note_on_c, 0, 67, 0
2, 108288, Note_on_c, 0, 64, 0
2, 108318, Note_on_c, 0, 61, 0
2, 108384, Control_c, 0, 64, 0
2, 109278, Note_on_c, 0, 81, 38
2, 109281, Note_on_c, 0, 78, 27
2, 109298, Note_on_c, 0, 63, 26
2, 109308, Note_on_c, 0, 71, 30
2, 109936, Control_c, 0, 64, 127
2, 110122, Note_on_c, 0, 63, 0
2, 110132, Note_on_c, 0, 81, 0
2, 110144, Note_on_c, 0, 78, 0
2, 110244, Note_on_c, 0, 71, 0
2, 110382, Note_on_c, 0, 80, 43
2, 110402, Note_on_c, 0, 76, 18
2, 110408, Note_on_c, 0, 64, 25
2, 110478, Note_on_c, 0, 76, 0
2, 110486, Note_on_c, 0, 64, 0
2, 110564, Control_c, 0, 64, 0
2, 110578, Note_on_c, 0, 76, 20
2, 110610, Note_on_c, 0, 85, 36
2, 110624, Note_on_c, 0, 57, 22
2, 110630, Note_on_c, 0, 69, 13
2, 110640, Note_on_c, 0, 80, 0
2, 110910, Note_on_c, 0, 69, 0
2, 110930, Note_on_c, 0, 57, 0
2, 110950, Control_c, 0, 64, 127
2, 110982, Note_on_c, 0, 76, 0
2, 110994, Note_on_c, 0, 85, 0
2, 111272, Control_c, 0, 64, 0
2, 111762, Note_on_c, 0, 75, 29
2, 111790, Note_on_c, 0, 66, 12
2, 111790, Note_on_c, 0, 69, 13
2, 111832, Note_on_c, 0, 59, 19
2, 111990, Note_on_c, 0, 59, 0
2, 112010, Control_c, 0, 64, 127
2, 112104, Note_on_c, 0, 66, 0
2, 112118, Note_on_c, 0, 69, 0
2, 112156, Note_on_c, 0, 75, 0
2, 112316, Control_c, 0, 64, 0
2, 112854, Control_c, 0, 64, 127
2, 112960, Note_on_c, 0, 75, 43
2, 112984, Note_on_c, 0, 66, 17
2, 112986, Note_on_c, 0, 69, 10
2, 113008, Note_on_c, 0, 64, 23
2, 113512, Note_on_c, 0, 69, 0
2, 113558, Note_on_c, 0, 66, 0
2, 114122, Note_on_c, 0, 75, 0
2, 114154, Note_on_c, 0, 71, 25
2, 114458, Note_on_c, 0, 71, 0
2, 114486, Note_on_c, 0, 68, 8
2, 114492, Note_on_c, 0, 76, 22
2, 114516, Note_on_c, 0, 52, 20
2, 114560, Control_c, 0, 64, 0
2, 115082, Control_c, 0, 64, 127
2, 115300, Note_on_c, 0, 64, 0
2, 115726, Note_on_c, 0, 52, 0
2, 115832, Note_on_c, 0, 76, 0
2, 115906, Note_on_c, 0, 68, 0
2, 116742, Control_c, 0, 64, 0
2, 117040, Note_on_c, 0, 72, 39
2, 117046, Note_on_c, 0, 63, 26
2, 117054, Note_on_c, 0, 66, 17
2, 117088, Note_on_c, 0, 57, 17
2, 117142, Control_c, 0, 64, 127
2, 117954, Note_on_c, 0, 72, 0
2, 118138, Note_on_c, 0, 71, 48
2, 118190, Note_on_c, 0, 71, 0
2, 118264, Note_on_c, 0, 71, 51
2, 118370, Control_c, 0, 64, 0
2, 118416, Note_on_c, 0, 78, 60
2, 118422, Note_on_c, 0, 71, 0
2, 118694, Control_c, 0, 64, 127
2, 119162, Note_on_c, 0, 78, 0
2, 119246, Note_on_c, 0, 63, 0
2, 119284, Note_on_c, 0, 57, 0
2, 119340, Note_on_c, 0, 66, 0
2, 119376, Note_on_c, 0, 71, 62
2, 119430, Note_on_c, 0, 71, 0
2, 119524, Note_on_c, 0, 71, 63
2, 119538, Note_on_c, 0, 64, 48
2, 119552, Note_on_c, 0, 59, 34
2, 119574, Note_on_c, 0, 55, 25
2, 119660, Control_c, 0, 64, 0
2, 119686, Note_on_c, 0, 79, 89
2, 119810, Note_on_c, 0, 71, 0
2, 120030, Control_c, 0, 64, 127
2, 120212, Note_on_c, 0, 55, 0
2, 120262, Note_on_c, 0, 64, 0
2, 120282, Note_on_c, 0, 79, 0
2, 120340, Note_on_c, 0, 59, 0
2, 120614, Note_on_c, 0, 71, 91
2, 120746, Note_on_c, 0, 71, 0
2, 120844, Note_on_c, 0, 65, 75
2, 120846, Note_on_c, 0, 81, 100
2, 120848, Note_on_c, 0, 74, 88
2, 120852, Note_on_c, 0, 77, 84
2, 120852, Note_on_c, 0, 71, 92
2, 120858, Note_on_c, 0, 55, 54
2, 120858, Note_on_c, 0, 59, 51
2, 120858, Note_on_c, 0, 62, 55
2, 120982, Control_c, 0, 64, 0
2, 121290, Control_c, 0, 64, 127
2, 121430, Note_on_c, 0, 62, 0
2, 121500, Note_on_c, 0, 55, 0
2, 121534, Note_on_c, 0, 65, 0
2, 121542, Note_on_c, 0, 59, 0
2, 121672, Note_on_c, 0, 74, 0
2, 121686, Note_on_c, 0, 77, 0
2, 121816, Note_on_c, 0, 81, 0
2, 121902, Note_on_c, 0, 71, 0
2, 121956, Note_on_c, 0, 59, 84
2, 121958, Note_on_c, 0, 55, 85
2, 122024, Note_on_c, 0, 59, 0
2, 122102, Note_on_c, 0, 55, 0
2, 122130, Note_on_c, 0, 77, 93
2, 122134, Note_on_c, 0, 67, 80
2, 122142, Note_on_c, 0, 71, 80
2, 122144, Note_on_c, 0, 74, 80
2, 122147, Note_on_c, 0, 62, 79
2, 122152, Note_on_c, 0, 59, 72
2, 122288, Control_c, 0, 64, 0
2, 122566, Control_c, 0, 64, 127
2, 122606, Note_on_c, 0, 59, 0
2, 122740, Note_on_c, 0, 62, 0
2, 123072, Note_on_c, 0, 71, 0
2, 123102, Note_on_c, 0, 67, 0
2, 123134, Note_on_c, 0, 55, 75
2, 123144, Note_on_c, 0, 74, 0
2, 123146, Note_on_c, 0, 59, 67
2, 123232, Note_on_c, 0, 59, 0
2, 123332, Note_on_c, 0, 76, 74
2, 123336, Note_on_c, 0, 72, 59
2, 123340, Note_on_c, 0, 60, 65
2, 123340, Note_on_c, 0, 64, 57
2, 123344, Note_on_c, 0, 67, 54
2, 123378, Note_on_c, 0, 55, 0
2, 123380, Control_c, 0, 64, 0
2, 123426, Note_on_c, 0, 77, 0
2, 123810, Control_c, 0, 64, 127
2, 123938, Note_on_c, 0, 67, 0
2, 124066, Note_on_c, 0, 72, 0
2, 124312, Note_on_c, 0, 64, 0
2, 124322, Note_on_c, 0, 74, 73
2, 124338, Note_on_c, 0, 65, 38
2, 124350, Note_on_c, 0, 62, 40
2, 124356, Note_on_c, 0, 60, 0
2, 124410, Note_on_c, 0, 76, 0
2, 124446, Note_on_c, 0, 74, 0
2, 124506, Note_on_c, 0, 74, 92
2, 124526, Note_on_c, 0, 67, 58
2, 124534, Note_on_c, 0, 64, 50
2, 124536, Note_on_c, 0, 62, 0
2, 124564, Note_on_c, 0, 65, 0
2, 124578, Control_c, 0, 64, 0
2, 125008, Control_c, 0, 64, 127
2, 125430, Note_on_c, 0, 72, 64
2, 125470, Note_on_c, 0, 74, 0
2, 125544, Note_on_c, 0, 72, 0
2, 125602, Note_on_c, 0, 72, 85
2, 125618, Note_on_c, 0, 65, 36
2, 125622, Note_on_c, 0, 62, 32
2, 125628, Note_on_c, 0, 67, 0
2, 125684, Control_c, 0, 64, 0
2, 125716, Note_on_c, 0, 64, 0
2, 126160, Control_c, 0, 64, 127
2, 126506, Note_on_c, 0, 71, 69
2, 126524, Note_on_c, 0, 72, 0
2, 126614, Note_on_c, 0, 71, 0
2, 126698, Note_on_c, 0, 71, 71
2, 126732, Note_on_c, 0, 60, 19
2, 126750, Note_on_c, 0, 65, 0
2, 126750, Note_on_c, 0, 64, 28
2, 126770, Note_on_c, 0, 62, 0
2, 126776, Control_c, 0, 64, 0
2, 127298, Control_c, 0, 64, 127
2, 127574, Note_on_c, 0, 64, 0
2, 127680, Note_on_c, 0, 71, 0
2, 127688, Note_on_c, 0, 70, 37
2, 127846, Note_on_c, 0, 70, 0
2, 127922, Note_on_c, 0, 70, 40
2, 127968, Note_on_c, 0, 59, 20
2, 127978, Note_on_c, 0, 64, 26
2, 128006, Note_on_c, 0, 60, 0
2, 128066, Control_c, 0, 64, 0
2, 128680, Control_c, 0, 64, 127
2, 129320, Note_on_c, 0, 63, 22
2, 129418, Note_on_c, 0, 64, 0
2, 129478, Control_c, 0, 64, 0
2, 129832, Control_c, 0, 64, 127
2, 130082, Note_on_c, 0, 71, 25
2, 130214, Note_on_c, 0, 70, 0
2, 130248, Control_c, 0, 64, 0
2, 130494, Control_c, 0, 64, 127
2, 130710, Note_on_c, 0, 69, 18
2, 130838, Note_on_c, 0, 71, 0
2, 130954, Control_c, 0, 64, 0
2, 131154, Control_c, 0, 64, 127
2, 131380, Note_on_c, 0, 66, 10
2, 131398, Note_on_c, 0, 69, 0
2, 131446, Control_c, 0, 64, 0
2, 131646, Control_c, 0, 64, 127
2, 131706, Note_on_c, 0, 63, 0
2, 131744, Note_on_c, 0, 59, 0
2, 131844, Note_on_c, 0, 66, 0
2, 132364, Note_on_c, 0, 64, 24
2, 132400, Note_on_c, 0, 56, 10
2, 132418, Note_on_c, 0, 52, 15
2, 132952, Control_c, 0, 64, 0
2, 133120, Control_c, 0, 64, 127
2, 133664, Note_on_c, 0, 64, 0
2, 133669, Note_on_c, 0, 54, 21
2, 133676, Note_on_c, 0, 63, 23
2, 133700, Note_on_c, 0, 56, 0
2, 133904, Control_c, 0, 64, 0
2, 133910, Note_on_c, 0, 66, 28
2, 133920, Note_on_c, 0, 57, 19
2, 133934, Note_on_c, 0, 54, 0
2, 133952, Note_on_c, 0, 63, 0
2, 134596, Control_c, 0, 64, 127
2, 135250, Note_on_c, 0, 66, 0
2, 135310, Note_on_c, 0, 59, 22
2, 135396, Note_on_c, 0, 59, 0
2, 135472, Control_c, 0, 64, 0
2, 135492, Note_on_c, 0, 61, 42
2, 135554, Note_on_c, 0, 61, 0
2, 135652, Note_on_c, 0, 63, 55
2, 135702, Note_on_c, 0, 63, 0
2, 135838, Note_on_c, 0, 64, 24
2, 135900, Note_on_c, 0, 64, 0
2, 135992, Note_on_c, 0, 66, 19
2, 136086, Note_on_c, 0, 66, 0
2, 136160, Note_on_c, 0, 68, 21
2, 136236, Note_on_c, 0, 68, 0
2, 136320, Note_on_c, 0, 69, 28
2, 136398, Note_on_c, 0, 69, 0
2, 136482, Note_on_c, 0, 70, 37
2, 136550, Note_on_c, 0, 70, 0
2, 136668, Note_on_c, 0, 57, 0
2, 136676, Note_on_c, 0, 64, 43
2, 136682, Note_on_c, 0, 71, 48
2, 136688, Note_on_c, 0, 56, 13
2, 136758, Note_on_c, 0, 71, 0
2, 136802, Note_on_c, 0, 52, 0
2, 137028, Note_on_c, 0, 71, 53
2, 137122, Note_on_c, 0, 71, 0
2, 137366, Note_on_c, 0, 71, 47
2, 137452, Note_on_c, 0, 71, 0
2, 137622, Control_c, 0, 64, 127
2, 137712, Note_on_c, 0, 71, 41
2, 137790, Note_on_c, 0, 71, 0
2, 137810, Note_on_c, 0, 56, 0
2, 137812, Note_on_c, 0, 64, 0
2, 137832, Note_on_c, 0, 63, 41
2, 137860, Note_on_c, 0, 54, 41
2, 137960, Control_c, 0, 64, 0
2, 138004, Note_on_c, 0, 66, 49
2, 138006, Note_on_c, 0, 71, 57
2, 138062, Note_on_c, 0, 57, 37
2, 138074, Note_on_c, 0, 54, 0
2, 138098, Note_on_c, 0, 71, 0
2, 138132, Note_on_c, 0, 63, 0
2, 138270, Note_on_c, 0, 71, 68
2, 138352, Note_on_c, 0, 71, 0
2, 138454, Note_on_c, 0, 71, 63
2, 138546, Note_on_c, 0, 71, 0
2, 138620, Note_on_c, 0, 71, 78
2, 138728, Note_on_c, 0, 71, 0
2, 138776, Control_c, 0, 64, 127
2, 138788, Note_on_c, 0, 71, 92
2, 138882, Note_on_c, 0, 71, 0
2, 138936, Note_on_c, 0, 71, 94
2, 139024, Note_on_c, 0, 71, 0
2, 139078, Note_on_c, 0, 57, 0
2, 139078, Note_on_c, 0, 71, 102
2, 139088, Note_on_c, 0, 66, 0
2, 139178, Note_on_c, 0, 71, 0
2, 139232, Note_on_c, 0, 66, 51
2, 139246, Note_on_c, 0, 57, 42
2, 139260, Note_on_c, 0, 63, 50
2, 139266, Note_on_c, 0, 71, 80
2, 139268, Note_on_c, 0, 59, 38
2, 139432, Note_on_c, 0, 71, 0
2, 139458, Note_on_c, 0, 73, 73
2, 139570, Note_on_c, 0, 71, 80
2, 139618, Note_on_c, 0, 73, 0
2, 139648, Note_on_c, 0, 70, 79
2, 139674, Note_on_c, 0, 71, 0
2, 139746, Note_on_c, 0, 71, 88
2, 139754, Note_on_c, 0, 70, 0
2, 139844, Note_on_c, 0, 73, 84
2, 139868, Note_on_c, 0, 71, 0
2, 139936, Note_on_c, 0, 75, 88
2, 139986, Note_on_c, 0, 73, 0
2, 140002, Note_on_c, 0, 75, 0
2, 140018, Note_on_c, 0, 76, 83
2, 140096, Note_on_c, 0, 78, 84
2, 140124, Note_on_c, 0, 76, 0
2, 140158, Note_on_c, 0, 80, 88
2, 140186, Note_on_c, 0, 59, 0
2, 140192, Note_on_c, 0, 80, 0
2, 140204, Note_on_c, 0, 57, 0
2, 140207, Note_on_c, 0, 63, 0
2, 140212, Note_on_c, 0, 78, 0
2, 140236, Note_on_c, 0, 81, 91
2, 140250, Note_on_c, 0, 66, 0
2, 140298, Note_on_c, 0, 83, 108
2, 140346, Note_on_c, 0, 81, 0
2, 140356, Note_on_c, 0, 85, 82
2, 140430, Note_on_c, 0, 87, 85
2, 140442, Note_on_c, 0, 83, 0
2, 140504, Note_on_c, 0, 85, 0
2, 140530, Note_on_c, 0, 76, 106
2, 140532, Note_on_c, 0, 88, 107
2, 140534, Note_on_c, 0, 64, 89
2, 140534, Note_on_c, 0, 56, 67
2, 140548, Note_on_c, 0, 59, 72
2, 140580, Note_on_c, 0, 85, 26
2, 140600, Note_on_c, 0, 87, 0
2, 140650, Note_on_c, 0, 85, 0
2, 140772, Control_c, 0, 64, 0
2, 141264, Control_c, 0, 64, 127
2, 141432, Note_on_c, 0, 88, 0
2, 141450, Note_on_c, 0, 76, 0
2, 141556, Note_on_c, 0, 56, 0
2, 141580, Note_on_c, 0, 59, 0
2, 141604, Note_on_c, 0, 87, 94
2, 141610, Note_on_c, 0, 64, 0
2, 141610, Note_on_c, 0, 75, 88
2, 141718, Note_on_c, 0, 75, 0
2, 141754, Note_on_c, 0, 87, 0
2, 141788, Note_on_c, 0, 86, 108
2, 141791, Note_on_c, 0, 74, 108
2, 141796, Note_on_c, 0, 65, 75
2, 141800, Note_on_c, 0, 56, 61
2, 141816, Note_on_c, 0, 59, 62
2, 142032, Control_c, 0, 64, 0
2, 142524, Control_c, 0, 64, 127
2, 142858, Note_on_c, 0, 65, 0
2, 142910, Note_on_c, 0, 74, 0
2, 143014, Note_on_c, 0, 59, 0
2, 143050, Note_on_c, 0, 73, 85
2, 143050, Note_on_c, 0, 66, 64
2, 143053, Note_on_c, 0, 85, 92
2, 143068, Note_on_c, 0, 61, 53
2, 143068, Note_on_c, 0, 57, 50
2, 143110, Note_on_c, 0, 56, 0
2, 143212, Note_on_c, 0, 86, 0
2, 143338, Control_c, 0, 64, 0
2, 143676, Control_c, 0, 64, 127
2, 144022, Note_on_c, 0, 85, 0
2, 144054, Note_on_c, 0, 73, 0
2, 144074, Note_on_c, 0, 61, 0
2, 144106, Note_on_c, 0, 59, 51
2, 144120, Note_on_c, 0, 66, 0
2, 144146, Note_on_c, 0, 64, 63
2, 144173, Note_on_c, 0, 57, 0
2, 144202, Note_on_c, 0, 68, 76
2, 144238, Note_on_c, 0, 71, 77
2, 144292, Note_on_c, 0, 76, 79
2, 144352, Note_on_c, 0, 80, 80
2, 144368, Control_c, 0, 64, 0
2, 144408, Note_on_c, 0, 83, 119
2, 144752, Control_c, 0, 64, 127
2, 144836, Note_on_c, 0, 71, 0
2, 144950, Note_on_c, 0, 76, 0
2, 145060, Note_on_c, 0, 80, 0
2, 145084, Note_on_c, 0, 83, 0
2, 145220, Note_on_c, 0, 64, 0
2, 145414, Note_on_c, 0, 68, 0
2, 145448, Note_on_c, 0, 82, 84
2, 145640, Note_on_c, 0, 88, 92
2, 145646, Note_on_c, 0, 67, 41
2, 145652, Note_on_c, 0, 61, 41
2, 145684, Note_on_c, 0, 64, 36
2, 145690, Note_on_c, 0, 59, 0
2, 145716, Note_on_c, 0, 82, 0
2, 145812, Control_c, 0, 64, 0
2, 146304, Control_c, 0, 64, 127
2, 147238, Note_on_c, 0, 67, 0
2, 147244, Note_on_c, 0, 64, 0
2, 147278, Note_on_c, 0, 61, 0
2, 147286, Note_on_c, 0, 88, 0
2, 147334, Control_c, 0, 64, 0
2, 148206, Note_on_c, 0, 78, 38
2, 148212, Note_on_c, 0, 81, 49
2, 148226, Note_on_c, 0, 71, 33
2, 148229, Note_on_c, 0, 63, 26
2, 148456, Control_c, 0, 64, 127
2, 148934, Note_on_c, 0, 78, 0
2, 149000, Note_on_c, 0, 81, 0
2, 149003, Note_on_c, 0, 71, 0
2, 149052, Note_on_c, 0, 63, 0
2, 149246, Note_on_c, 0, 80, 45
2, 149266, Note_on_c, 0, 76, 27
2, 149266, Note_on_c, 0, 64, 32
2, 149332, Note_on_c, 0, 76, 0
2, 149340, Note_on_c, 0, 64, 0
2, 149438, Control_c, 0, 64, 0
2, 149458, Note_on_c, 0, 85, 44
2, 149466, Note_on_c, 0, 76, 17
2, 149468, Note_on_c, 0, 80, 0
2, 149480, Note_on_c, 0, 57, 21
2, 149484, Note_on_c, 0, 69, 18
2, 149760, Note_on_c, 0, 69, 0
2, 149760, Control_c, 0, 64, 127
2, 149794, Note_on_c, 0, 57, 0
2, 149816, Note_on_c, 0, 76, 0
2, 149838, Note_on_c, 0, 85, 0
2, 150114, Control_c, 0, 64, 0
2, 150590, Note_on_c, 0, 75, 41
2, 150610, Note_on_c, 0, 69, 18
2, 150620, Note_on_c, 0, 66, 13
2, 150654, Note_on_c, 0, 59, 14
2, 150746, Control_c, 0, 64, 127
2, 150780, Note_on_c, 0, 59, 0
2, 150850, Note_on_c, 0, 69, 0
2, 150862, Note_on_c, 0, 66, 0
2, 150906, Note_on_c, 0, 75, 0
2, 151160, Control_c, 0, 64, 0
2, 151844, Note_on_c, 0, 75, 42
2, 151860, Note_on_c, 0, 69, 21
2, 151863, Note_on_c, 0, 66, 35
2, 151866, Control_c, 0, 64, 127
2, 151882, Note_on_c, 0, 64, 25
2, 152374, Note_on_c, 0, 69, 0
2, 152730, Note_on_c, 0, 66, 0
2, 152906, Note_on_c, 0, 64, 0
2, 153142, Note_on_c, 0, 75, 0
2, 153178, Note_on_c, 0, 71, 24
2, 153514, Note_on_c, 0, 68, 22
2, 153516, Note_on_c, 0, 76, 17
2, 153526, Note_on_c, 0, 64, 16
2, 153554, Note_on_c, 0, 52, 26
2, 153618, Note_on_c, 0, 71, 0
2, 153618, Control_c, 0, 64, 0
2, 154156, Control_c, 0, 64, 127
2, 155252, Note_on_c, 0, 52, 0
2, 155266, Note_on_c, 0, 64, 0
2, 155320, Note_on_c, 0, 76, 0
2, 155326, Note_on_c, 0, 68, 0
2, 155692, Control_c, 0, 64, 0
2, 156032, Note_on_c, 0, 52, 109
2, 156037, Note_on_c, 0, 40, 112
2, 156736, Control_c, 0, 64, 127
2, 157245, Note_on_c, 0, 51, 85
2, 157249, Note_on_c, 0, 39, 81
2, 157302, Note_on_c, 0, 40, 0
2, 157308, Note_on_c, 0, 52, 0
2, 157426, Note_on_c, 0, 54, 98
2, 157429, Note_on_c, 0, 42, 86
2, 157444, Control_c, 0, 64, 0
2, 157478, Note_on_c, 0, 39, 0
2, 157512, Note_on_c, 0, 51, 0
2, 157782, Control_c, 0, 64, 127
2, 157892, Note_on_c, 0, 52, 94
2, 157895, Note_on_c, 0, 40, 90
2, 157902, Note_on_c, 0, 54, 0
2, 157940, Note_on_c, 0, 42, 0
2, 157980, Note_on_c, 0, 55, 99
2, 157985, Note_on_c, 0, 43, 91
2, 158010, Note_on_c, 0, 40, 0
2, 158016, Note_on_c, 0, 52, 0
2, 158120, Control_c, 0, 64, 0
2, 158396, Control_c, 0, 64, 127
2, 158422, Note_on_c, 0, 54, 92
2, 158430, Note_on_c, 0, 42, 86
2, 158452, Note_on_c, 0, 43, 0
2, 158474, Note_on_c, 0, 55, 0
2, 158516, Note_on_c, 0, 45, 91
2, 158518, Note_on_c, 0, 57, 89
2, 158586, Note_on_c, 0, 42, 0
2, 158598, Note_on_c, 0, 54, 0
2, 158642, Control_c, 0, 64, 0
2, 158920, Control_c, 0, 64, 127
2, 159010, Note_on_c, 0, 55, 91
2, 159013, Note_on_c, 0, 43, 86
2, 159034, Note_on_c, 0, 45, 0
2, 159112, Note_on_c, 0, 47, 94
2, 159120, Note_on_c, 0, 59, 97
2, 159160, Note_on_c, 0, 43, 0
2, 159178, Note_on_c, 0, 55, 0
2, 159190, Note_on_c, 0, 57, 0
2, 159256, Control_c, 0, 64, 0
2, 159564, Control_c, 0, 64, 127
2, 159634, Note_on_c, 0, 57, 95
2, 159638, Note_on_c, 0, 45, 89
2, 159698, Note_on_c, 0, 47, 0
2, 159702, Note_on_c, 0, 59, 0
2, 159788, Note_on_c, 0, 48, 78
2, 159788, Note_on_c, 0, 60, 100
2, 159796, Control_c, 0, 64, 0
2, 159898, Note_on_c, 0, 45, 0
2, 159950, Note_on_c, 0, 57, 0
2, 160470, Control_c, 0, 64, 127
2, 160788, Note_on_c, 0, 48, 0
2, 161030, Note_on_c, 0, 50, 105
2, 161034, Note_on_c, 0, 48, 66
2, 161034, Note_on_c, 0, 42, 68
2, 161040, Note_on_c, 0, 45, 64
2, 161220, Note_on_c, 0, 60, 0
2, 161270, Control_c, 0, 64, 0
2, 161420, Note_on_c, 0, 52, 85
2, 161454, Control_c, 0, 64, 127
2, 161530, Note_on_c, 0, 50, 0
2, 161574, Note_on_c, 0, 54, 80
2, 161606, Note_on_c, 0, 52, 0
2, 161696, Note_on_c, 0, 55, 80
2, 161702, Note_on_c, 0, 54, 0
2, 161790, Note_on_c, 0, 55, 0
2, 161798, Note_on_c, 0, 57, 71
2, 161876, Note_on_c, 0, 59, 74
2, 161882, Note_on_c, 0, 57, 0
2, 161914, Note_on_c, 0, 59, 0
2, 161948, Note_on_c, 0, 60, 74
2, 162020, Note_on_c, 0, 62, 85
2, 162046, Note_on_c, 0, 60, 0
2, 162088, Note_on_c, 0, 64, 76
2, 162134, Note_on_c, 0, 62, 0
2, 162146, Note_on_c, 0, 66, 72
2, 162190, Note_on_c, 0, 66, 0
2, 162193, Note_on_c, 0, 64, 0
2, 162210, Note_on_c, 0, 67, 79
2, 162280, Note_on_c, 0, 69, 77
2, 162300, Note_on_c, 0, 67, 0
2, 162358, Note_on_c, 0, 71, 57
2, 162402, Note_on_c, 0, 69, 0
2, 162414, Note_on_c, 0, 71, 0
2, 162417, Note_on_c, 0, 72, 78
2, 162488, Note_on_c, 0, 74, 84
2, 162491, Note_on_c, 0, 72, 0
2, 162542, Note_on_c, 0, 76, 57
2, 162602, Note_on_c, 0, 78, 76
2, 162606, Note_on_c, 0, 74, 0
2, 162656, Note_on_c, 0, 76, 0
2, 162666, Note_on_c, 0, 78, 0
2, 162680, Note_on_c, 0, 79, 90
2, 162730, Note_on_c, 0, 79, 0
2, 162758, Note_on_c, 0, 81, 86
2, 162830, Note_on_c, 0, 83, 90
2, 162868, Note_on_c, 0, 83, 0
2, 162878, Note_on_c, 0, 81, 0
2, 162910, Note_on_c, 0, 84, 82
2, 162928, Control_c, 0, 64, 0
2, 162988, Note_on_c, 0, 86, 73
2, 163018, Note_on_c, 0, 84, 0
2, 163102, Note_on_c, 0, 88, 75
2, 163170, Note_on_c, 0, 86, 0
2, 163442, Note_on_c, 0, 45, 0
2, 163448, Note_on_c, 0, 42, 0
2, 163458, Note_on_c, 0, 48, 0
2, 163482, Control_c, 0, 64, 127
2, 163628, Note_on_c, 0, 88, 0
2, 163652, Control_c, 0, 64, 0
2, 164232, Note_on_c, 0, 88, 51
2, 164244, Note_on_c, 0, 84, 43
2, 164244, Note_on_c, 0, 66, 30
2, 164406, Note_on_c, 0, 83, 72
2, 164410, Note_on_c, 0, 86, 61
2, 164430, Note_on_c, 0, 67, 41
2, 164446, Note_on_c, 0, 66, 0
2, 164446, Note_on_c, 0, 84, 0
2, 164468, Note_on_c, 0, 88, 0
2, 164726, Control_c, 0, 64, 127
2, 164748, Note_on_c, 0, 67, 0
2, 164774, Note_on_c, 0, 83, 0
2, 164777, Note_on_c, 0, 86, 0
2, 164926, Control_c, 0, 64, 0
2, 165480, Note_on_c, 0, 81, 32
2, 165486, Note_on_c, 0, 66, 22
2, 165574, Note_on_c, 0, 81, 0
2, 165592, Note_on_c, 0, 84, 36
2, 165680, Note_on_c, 0, 88, 34
2, 165704, Note_on_c, 0, 84, 0
2, 165764, Note_on_c, 0, 88, 0
2, 165780, Note_on_c, 0, 66, 0
2, 165790, Note_on_c, 0, 67, 17
2, 165796, Note_on_c, 0, 83, 48
2, 165806, Note_on_c, 0, 86, 39
2, 166018, Control_c, 0, 64, 127
2, 166028, Note_on_c, 0, 86, 0
2, 166042, Note_on_c, 0, 83, 0
2, 166050, Note_on_c, 0, 67, 0
2, 166124, Control_c, 0, 64, 0
2, 166794, Note_on_c, 0, 86, 54
2, 166796, Note_on_c, 0, 74, 62
2, 166828, Note_on_c, 0, 71, 45
2, 166846, Note_on_c, 0, 74, 0
2, 166894, Note_on_c, 0, 71, 0
2, 166902, Note_on_c, 0, 83, 81
2, 166938, Note_on_c, 0, 86, 0
2, 166976, Note_on_c, 0, 83, 0
2, 167014, Note_on_c, 0, 79, 47
2, 167090, Note_on_c, 0, 72, 58
2, 167100, Note_on_c, 0, 69, 52
2, 167108, Note_on_c, 0, 78, 70
2, 167124, Note_on_c, 0, 79, 0
2, 167132, Note_on_c, 0, 72, 0
2, 167152, Note_on_c, 0, 69, 0
2, 167236, Note_on_c, 0, 78, 0
2, 167402, Note_on_c, 0, 71, 66
2, 167408, Note_on_c, 0, 83, 94
2, 167416, Note_on_c, 0, 67, 48
2, 167478, Note_on_c, 0, 71, 0
2, 167482, Note_on_c, 0, 67, 0
2, 167506, Note_on_c, 0, 79, 80
2, 167530, Note_on_c, 0, 83, 0
2, 167604, Note_on_c, 0, 76, 54
2, 167628, Note_on_c, 0, 79, 0
2, 167682, Note_on_c, 0, 76, 0
2, 167704, Note_on_c, 0, 74, 76
2, 167716, Note_on_c, 0, 69, 48
2, 167722, Note_on_c, 0, 66, 46
2, 167768, Note_on_c, 0, 69, 0
2, 167778, Note_on_c, 0, 66, 0
2, 167816, Note_on_c, 0, 74, 0
2, 168014, Note_on_c, 0, 79, 66
2, 168024, Note_on_c, 0, 67, 44
2, 168036, Note_on_c, 0, 64, 42
2, 168080, Note_on_c, 0, 79, 0
2, 168088, Note_on_c, 0, 64, 0
2, 168092, Note_on_c, 0, 67, 0
2, 168132, Note_on_c, 0, 76, 43
2, 168204, Note_on_c, 0, 76, 0
2, 168232, Note_on_c, 0, 72, 39
2, 168310, Note_on_c, 0, 72, 0
2, 168348, Note_on_c, 0, 71, 53
2, 168366, Note_on_c, 0, 66, 25
2, 168378, Note_on_c, 0, 62, 30
2, 168578, Note_on_c, 0, 66, 0
2, 168630, Note_on_c, 0, 62, 0
2, 168630, Note_on_c, 0, 71, 0
2, 169314, Note_on_c, 0, 76, 32
2, 169332, Note_on_c, 0, 64, 43
2, 169332, Note_on_c, 0, 60, 37
2, 169410, Note_on_c, 0, 60, 0
2, 169416, Note_on_c, 0, 64, 0
2, 169440, Note_on_c, 0, 72, 28
2, 169488, Note_on_c, 0, 76, 0
2, 169538, Note_on_c, 0, 69, 26
2, 169620, Note_on_c, 0, 72, 0
2, 169678, Note_on_c, 0, 67, 37
2, 169694, Note_on_c, 0, 69, 0
2, 169694, Note_on_c, 0, 62, 22
2, 169697, Note_on_c, 0, 59, 28
2, 169806, Note_on_c, 0, 62, 0
2, 169838, Note_on_c, 0, 59, 0
2, 169914, Note_on_c, 0, 67, 0
2, 170672, Note_on_c, 0, 74, 51
2, 170686, Note_on_c, 0, 59, 37
2, 170690, Note_on_c, 0, 62, 36
2, 170744, Note_on_c, 0, 62, 0
2, 170744, Note_on_c, 0, 59, 0
2, 170754, Note_on_c, 0, 74, 0
2, 170788, Note_on_c, 0, 71, 52
2, 170848, Note_on_c, 0, 71, 0
2, 170864, Note_on_c, 0, 68, 55
2, 170974, Note_on_c, 0, 68, 0
2, 171016, Note_on_c, 0, 69, 67
2, 171040, Note_on_c, 0, 64, 47
2, 171043, Note_on_c, 0, 60, 43
2, 171488, Control_c, 0, 64, 127
2, 171574, Note_on_c, 0, 71, 83
2, 171586, Note_on_c, 0, 66, 57
2, 171594, Note_on_c, 0, 64, 0
2, 171596, Note_on_c, 0, 62, 38
2, 171620, Note_on_c, 0, 69, 0
2, 171666, Note_on_c, 0, 60, 0
2, 171718, Note_on_c, 0, 72, 90
2, 171722, Note_on_c, 0, 67, 66
2, 171730, Note_on_c, 0, 64, 63
2, 171732, Control_c, 0, 64, 0
2, 171734, Note_on_c, 0, 66, 0
2, 171756, Note_on_c, 0, 62, 0
2, 171782, Note_on_c, 0, 71, 0
2, 171994, Control_c, 0, 64, 127
2, 172030, Note_on_c, 0, 64, 0
2, 172070, Note_on_c, 0, 67, 0
2, 172292, Note_on_c, 0, 73, 81
2, 172294, Note_on_c, 0, 70, 64
2, 172320, Note_on_c, 0, 72, 0
2, 172328, Note_on_c, 0, 64, 50
2, 172336, Note_on_c, 0, 67, 37
2, 172392, Note_on_c, 0, 64, 0
2, 172400, Note_on_c, 0, 67, 0
2, 172414, Note_on_c, 0, 70, 0
2, 172438, Note_on_c, 0, 73, 0
2, 172464, Note_on_c, 0, 74, 99
2, 172468, Note_on_c, 0, 71, 83
2, 172472, Note_on_c, 0, 67, 44
2, 172500, Control_c, 0, 64, 0
2, 172502, Note_on_c, 0, 62, 44
2, 172854, Control_c, 0, 64, 127
2, 173038, Note_on_c, 0, 74, 0
2, 173038, Note_on_c, 0, 75, 64
2, 173148, Note_on_c, 0, 75, 0
2, 173150, Note_on_c, 0, 76, 63
2, 173240, Note_on_c, 0, 77, 80
2, 173280, Note_on_c, 0, 76, 0
2, 173324, Note_on_c, 0, 78, 78
2, 173344, Note_on_c, 0, 77, 0
2, 173370, Note_on_c, 0, 78, 0
2, 173402, Note_on_c, 0, 79, 89
2, 173464, Note_on_c, 0, 80, 81
2, 173502, Note_on_c, 0, 79, 0
2, 173536, Note_on_c, 0, 81, 81
2, 173590, Note_on_c, 0, 80, 0
2, 173590, Note_on_c, 0, 82, 75
2, 173626, Note_on_c, 0, 82, 0
2, 173646, Note_on_c, 0, 81, 0
2, 173656, Note_on_c, 0, 83, 101
2, 173734, Note_on_c, 0, 84, 83
2, 173766, Note_on_c, 0, 83, 0
2, 173788, Note_on_c, 0, 85, 82
2, 173846, Note_on_c, 0, 84, 0
2, 173880, Note_on_c, 0, 86, 97
2, 173884, Control_c, 0, 64, 0
2, 173922, Note_on_c, 0, 85, 0
2, 174058, Note_on_c, 0, 86, 0
2, 174068, Control_c, 0, 64, 127
2, 174122, Note_on_c, 0, 71, 0
2, 174138, Note_on_c, 0, 67, 0
2, 174184, Note_on_c, 0, 62, 0
2, 174542, Note_on_c, 0, 62, 69
2, 174546, Note_on_c, 0, 50, 69
2, 174634, Note_on_c, 0, 62, 0
2, 174640, Note_on_c, 0, 63, 70
2, 174652, Note_on_c, 0, 51, 64
2, 174666, Note_on_c, 0, 50, 0
2, 174688, Note_on_c, 0, 63, 0
2, 174738, Note_on_c, 0, 64, 52
2, 174738, Note_on_c, 0, 52, 65
2, 174760, Note_on_c, 0, 51, 0
2, 174784, Note_on_c, 0, 52, 0
2, 174790, Note_on_c, 0, 53, 93
2, 174796, Note_on_c, 0, 64, 0
2, 174798, Note_on_c, 0, 65, 70
2, 174842, Note_on_c, 0, 53, 0
2, 174862, Note_on_c, 0, 66, 67
2, 174872, Note_on_c, 0, 54, 76
2, 174900, Note_on_c, 0, 65, 0
2, 174908, Note_on_c, 0, 66, 0
2, 174924, Note_on_c, 0, 54, 0
2, 174942, Note_on_c, 0, 67, 72
2, 174966, Note_on_c, 0, 55, 81
2, 174990, Note_on_c, 0, 67, 0
2, 175009, Note_on_c, 0, 55, 0
2, 175016, Note_on_c, 0, 68, 71
2, 175036, Note_on_c, 0, 56, 45
2, 175060, Note_on_c, 0, 68, 0
2, 175094, Note_on_c, 0, 56, 0
2, 175096, Note_on_c, 0, 69, 60
2, 175108, Note_on_c, 0, 57, 70
2, 175168, Note_on_c, 0, 70, 60
2, 175176, Note_on_c, 0, 57, 0
2, 175180, Note_on_c, 0, 58, 55
2, 175194, Note_on_c, 0, 69, 0
2, 175256, Note_on_c, 0, 71, 88
2, 175259, Note_on_c, 0, 59, 69
2, 175286, Note_on_c, 0, 58, 0
2, 175290, Note_on_c, 0, 70, 0
2, 175312, Control_c, 0, 64, 0
2, 175317, Note_on_c, 0, 59, 0
2, 175338, Note_on_c, 0, 72, 90
2, 175354, Note_on_c, 0, 60, 68
2, 175366, Note_on_c, 0, 71, 0
2, 175532, Note_on_c, 0, 60, 0
2, 175532, Note_on_c, 0, 72, 0
2, 176074, Note_on_c, 0, 66, 53
2, 176080, Note_on_c, 0, 60, 47
2, 176098, Note_on_c, 0, 50, 47
2, 176188, Control_c, 0, 64, 127
2, 176232, Note_on_c, 0, 60, 0
2, 176240, Note_on_c, 0, 50, 0
2, 176296, Note_on_c, 0, 66, 0
2, 176374, Control_c, 0, 64, 0
2, 176834, Control_c, 0, 64, 127
2, 176876, Note_on_c, 0, 69, 50
2, 176900, Note_on_c, 0, 31, 28
2, 176902, Note_on_c, 0, 60, 30
2, 177006, Note_on_c, 0, 31, 0
2, 177848, Control_c, 0, 64, 0
2, 178164, Note_on_c, 0, 43, 46
2, 178348, Note_on_c, 0, 43, 0
2, 178352, Note_on_c, 0, 45, 50
2, 178356, Control_c, 0, 64, 127
2, 178426, Note_on_c, 0, 45, 0
2, 178450, Note_on_c, 0, 47, 51
2, 178502, Note_on_c, 0, 47, 0
2, 178510, Note_on_c, 0, 48, 47
2, 178594, Note_on_c, 0, 49, 65
2, 178602, Note_on_c, 0, 48, 0
2, 178742, Note_on_c, 0, 50, 28
2, 178756, Control_c, 0, 64, 0
2, 178766, Note_on_c, 0, 51, 66
2, 178774, Note_on_c, 0, 49, 0
2, 178816, Note_on_c, 0, 50, 0
2, 178864, Note_on_c, 0, 51, 0
2, 178872, Note_on_c, 0, 52, 49
2, 178932, Note_on_c, 0, 52, 0
2, 178954, Control_c, 0, 64, 127
2, 178956, Note_on_c, 0, 53, 65
2, 179042, Note_on_c, 0, 53, 0
2, 179060, Note_on_c, 0, 54, 48
2, 179063, Control_c, 0, 64, 0
2, 179162, Note_on_c, 0, 54, 0
2, 179206, Note_on_c, 0, 55, 36
2, 179492, Control_c, 0, 64, 127
2, 179504, Note_on_c, 0, 55, 0
2, 179614, Note_on_c, 0, 60, 0
2, 180050, Note_on_c, 0, 67, 20
2, 180064, Note_on_c, 0, 59, 18
2, 180074, Note_on_c, 0, 43, 22
2, 180122, Control_c, 0, 64, 0
2, 180256, Note_on_c, 0, 69, 0
2, 180676, Control_c, 0, 64, 127
2, 180956, Note_on_c, 0, 59, 0
2, 180984, Note_on_c, 0, 43, 0
2, 181082, Note_on_c, 0, 67, 0
2, 181336, Control_c, 0, 64, 0
2, 181950, Note_on_c, 0, 74, 23
2, 181968, Note_on_c, 0, 71, 27
2, 181974, Note_on_c, 0, 67, 15
2, 182106, Note_on_c, 0, 74, 0
2, 182120, Control_c, 0, 64, 127
2, 182335, Note_on_c, 0, 74, 41
2, 182404, Note_on_c, 0, 74, 0
2, 182676, Note_on_c, 0, 74, 46
2, 182764, Note_on_c, 0, 74, 0
2, 183032, Note_on_c, 0, 71, 0
2, 183032, Note_on_c, 0, 74, 47
2, 183066, Note_on_c, 0, 67, 0
2, 183098, Note_on_c, 0, 74, 0
2, 183164, Note_on_c, 0, 69, 49
2, 183178, Note_on_c, 0, 66, 42
2, 183214, Note_on_c, 0, 69, 0
2, 183346, Note_on_c, 0, 72, 65
2, 183349, Note_on_c, 0, 74, 40
2, 183356, Note_on_c, 0, 69, 41
2, 183434, Note_on_c, 0, 74, 0
2, 183548, Note_on_c, 0, 66, 0
2, 183642, Control_c, 0, 64, 0
2, 183704, Note_on_c, 0, 74, 52
2, 183822, Note_on_c, 0, 74, 0
2, 183886, Control_c, 0, 64, 127
2, 184054, Note_on_c, 0, 74, 35
2, 184086, Control_c, 0, 64, 0
2, 184146, Note_on_c, 0, 74, 0
2, 184240, Control_c, 0, 64, 127
2, 184406, Note_on_c, 0, 74, 33
2, 184472, Note_on_c, 0, 69, 0
2, 184482, Note_on_c, 0, 74, 0
2, 184726, Note_on_c, 0, 74, 37
2, 184746, Note_on_c, 0, 69, 23
2, 184764, Note_on_c, 0, 62, 22
2, 184788, Note_on_c, 0, 72, 0
2, 184818, Note_on_c, 0, 74, 0
2, 184978, Control_c, 0, 64, 0
2, 185090, Note_on_c, 0, 74, 35
2, 185188, Note_on_c, 0, 74, 0
2, 185240, Control_c, 0, 64, 127
2, 185378, Control_c, 0, 64, 0
2, 185416, Note_on_c, 0, 74, 30
2, 185524, Note_on_c, 0, 74, 0
2, 185576, Control_c, 0, 64, 127
2, 185700, Control_c, 0, 64, 0
2, 185762, Note_on_c, 0, 74, 34
2, 185854, Note_on_c, 0, 74, 0
2, 185854, Control_c, 0, 64, 127
2, 185862, Note_on_c, 0, 69, 0
2, 185888, Note_on_c, 0, 62, 0
2, 186068, Control_c, 0, 64, 0
2, 186092, Note_on_c, 0, 75, 46
2, 186106, Note_on_c, 0, 69, 21
2, 186116, Note_on_c, 0, 71, 31
2, 186198, Note_on_c, 0, 71, 0
2, 186216, Note_on_c, 0, 69, 0
2, 186446, Note_on_c, 0, 71, 37
2, 186468, Note_on_c, 0, 69, 19
2, 186544, Note_on_c, 0, 71, 0
2, 186554, Note_on_c, 0, 69, 0
2, 186606, Control_c, 0, 64, 127
2, 186760, Control_c, 0, 64, 0
2, 186788, Note_on_c, 0, 71, 30
2, 186792, Note_on_c, 0, 69, 20
2, 186884, Note_on_c, 0, 71, 0
2, 186886, Note_on_c, 0, 69, 0
2, 186930, Control_c, 0, 64, 127
2, 187052, Control_c, 0, 64, 0
2, 187122, Note_on_c, 0, 71, 31
2, 187134, Note_on_c, 0, 69, 14
2, 187190, Control_c, 0, 64, 127
2, 187212, Note_on_c, 0, 71, 0
2, 187238, Note_on_c, 0, 69, 0
2, 187238, Note_on_c, 0, 75, 0
2, 187248, Note_on_c, 0, 83, 68
2, 187322, Note_on_c, 0, 75, 48
2, 187366, Note_on_c, 0, 83, 0
2, 187390, Control_c, 0, 64, 0
2, 187448, Note_on_c, 0, 76, 61
2, 187453, Note_on_c, 0, 67, 27
2, 187462, Note_on_c, 0, 75, 0
2, 187465, Note_on_c, 0, 71, 28
2, 187562, Note_on_c, 0, 71, 0
2, 187616, Note_on_c, 0, 67, 0
2, 187652, Control_c, 0, 64, 127
2, 187728, Control_c, 0, 64, 0
2, 187806, Note_on_c, 0, 67, 29
2, 187806, Note_on_c, 0, 71, 41
2, 187878, Note_on_c, 0, 71, 0
2, 187894, Note_on_c, 0, 67, 0
2, 187912, Control_c, 0, 64, 127
2, 187928, Note_on_c, 0, 76, 0
2, 187948, Note_on_c, 0, 83, 75
2, 188000, Note_on_c, 0, 76, 55
2, 188004, Control_c, 0, 64, 0
2, 188016, Note_on_c, 0, 83, 0
2, 188092, Note_on_c, 0, 78, 78
2, 188106, Note_on_c, 0, 71, 44
2, 188110, Note_on_c, 0, 63, 42
2, 188136, Note_on_c, 0, 76, 0
2, 188196, Note_on_c, 0, 71, 0
2, 188202, Note_on_c, 0, 63, 0
2, 188236, Control_c, 0, 64, 127
2, 188358, Control_c, 0, 64, 0
2, 188432, Note_on_c, 0, 71, 52
2, 188436, Note_on_c, 0, 63, 55
2, 188500, Note_on_c, 0, 71, 0
2, 188508, Note_on_c, 0, 63, 0
2, 188570, Note_on_c, 0, 78, 0
2, 188574, Control_c, 0, 64, 127
2, 188574, Note_on_c, 0, 83, 98
2, 188666, Note_on_c, 0, 78, 62
2, 188680, Control_c, 0, 64, 0
2, 188722, Note_on_c, 0, 83, 0
2, 188756, Note_on_c, 0, 79, 92
2, 188758, Note_on_c, 0, 71, 49
2, 188766, Note_on_c, 0, 78, 0
2, 188774, Note_on_c, 0, 64, 42
2, 188872, Note_on_c, 0, 64, 0
2, 188882, Note_on_c, 0, 71, 0
2, 188942, Control_c, 0, 64, 127
2, 189050, Control_c, 0, 64, 0
2, 189090, Note_on_c, 0, 71, 57
2, 189102, Note_on_c, 0, 64, 47
2, 189188, Note_on_c, 0, 64, 0
2, 189190, Note_on_c, 0, 71, 0
2, 189220, Note_on_c, 0, 79, 0
2, 189226, Note_on_c, 0, 83, 91
2, 189248, Control_c, 0, 64, 127
2, 189294, Note_on_c, 0, 79, 81
2, 189352, Note_on_c, 0, 83, 0
2, 189372, Control_c, 0, 64, 0
2, 189414, Note_on_c, 0, 78, 85
2, 189414, Note_on_c, 0, 69, 37
2, 189432, Note_on_c, 0, 59, 31
2, 189444, Note_on_c, 0, 79, 0
2, 189564, Note_on_c, 0, 59, 0
2, 189564, Note_on_c, 0, 69, 0
2, 189602, Control_c, 0, 64, 127
2, 189726, Control_c, 0, 64, 0
2, 189760, Note_on_c, 0, 69, 43
2, 189786, Note_on_c, 0, 59, 39
2, 189886, Note_on_c, 0, 69, 0
2, 189889, Note_on_c, 0, 78, 0
2, 189892, Note_on_c, 0, 59, 0
2, 189904, Note_on_c, 0, 83, 91
2, 189910, Control_c, 0, 64, 127
2, 189986, Note_on_c, 0, 78, 60
2, 190020, Note_on_c, 0, 83, 0
2, 190040, Note_on_c, 0, 78, 0
2, 190110, Note_on_c, 0, 78, 62
2, 190132, Note_on_c, 0, 67, 42
2, 190138, Note_on_c, 0, 60, 24
2, 190172, Control_c, 0, 64, 0
2, 190196, Note_on_c, 0, 76, 69
2, 190258, Note_on_c, 0, 78, 0
2, 190326, Note_on_c, 0, 67, 0
2, 190358, Note_on_c, 0, 60, 0
2, 190386, Control_c, 0, 64, 127
2, 190528, Note_on_c, 0, 67, 43
2, 190546, Note_on_c, 0, 60, 28
2, 190588, Note_on_c, 0, 76, 0
2, 190658, Note_on_c, 0, 67, 0
2, 190664, Note_on_c, 0, 60, 0
2, 190680, Note_on_c, 0, 88, 72
2, 190720, Note_on_c, 0, 88, 0
2, 190784, Note_on_c, 0, 88, 59
2, 190830, Note_on_c, 0, 68, 43
2, 190862, Control_c, 0, 64, 0
2, 190864, Note_on_c, 0, 76, 69
2, 190868, Note_on_c, 0, 60, 23
2, 190892, Note_on_c, 0, 88, 0
2, 191022, Note_on_c, 0, 60, 0
2, 191036, Note_on_c, 0, 68, 0
2, 191078, Control_c, 0, 64, 127
2, 191192, Note_on_c, 0, 68, 50
2, 191206, Note_on_c, 0, 60, 35
2, 191238, Note_on_c, 0, 76, 0
2, 191308, Note_on_c, 0, 60, 0
2, 191322, Note_on_c, 0, 68, 0
2, 191336, Note_on_c, 0, 86, 94
2, 191372, Note_on_c, 0, 86, 0
2, 191462, Note_on_c, 0, 86, 56
2, 191496, Note_on_c, 0, 69, 49
2, 191524, Note_on_c, 0, 76, 85
2, 191526, Control_c, 0, 64, 0
2, 191532, Note_on_c, 0, 60, 29
2, 191596, Note_on_c, 0, 86, 0
2, 191690, Note_on_c, 0, 69, 0
2, 191702, Note_on_c, 0, 60, 0
2, 191738, Control_c, 0, 64, 127
2, 191850, Note_on_c, 0, 69, 59
2, 191870, Note_on_c, 0, 60, 49
2, 191900, Note_on_c, 0, 76, 0
2, 191982, Note_on_c, 0, 60, 0
2, 191990, Note_on_c, 0, 69, 0
2, 192006, Note_on_c, 0, 84, 99
2, 192048, Note_on_c, 0, 84, 0
2, 192136, Note_on_c, 0, 84, 89
2, 192166, Note_on_c, 0, 71, 81
2, 192184, Control_c, 0, 64, 0
2, 192186, Note_on_c, 0, 60, 55
2, 192188, Note_on_c, 0, 76, 92
2, 192316, Note_on_c, 0, 84, 0
2, 192348, Note_on_c, 0, 60, 0
2, 192364, Note_on_c, 0, 71, 0
2, 192398, Control_c, 0, 64, 127
2, 192500, Note_on_c, 0, 71, 91
2, 192504, Note_on_c, 0, 60, 69
2, 192546, Note_on_c, 0, 76, 0
2, 192610, Note_on_c, 0, 83, 110
2, 192624, Note_on_c, 0, 60, 0
2, 192632, Note_on_c, 0, 71, 0
2, 192664, Note_on_c, 0, 83, 0
2, 192750, Note_on_c, 0, 83, 111
2, 192842, Note_on_c, 0, 82, 91
2, 192844, Note_on_c, 0, 72, 72
2, 192844, Control_c, 0, 64, 0
2, 192858, Note_on_c, 0, 60, 57
2, 192860, Note_on_c, 0, 76, 84
2, 192916, Note_on_c, 0, 83, 0
2, 193042, Note_on_c, 0, 60, 0
2, 193054, Note_on_c, 0, 72, 0
2, 193076, Control_c, 0, 64, 127
2, 193208, Note_on_c, 0, 76, 0
2, 193216, Note_on_c, 0, 72, 78
2, 193234, Note_on_c, 0, 60, 71
2, 193236, Note_on_c, 0, 82, 0
2, 193332, Note_on_c, 0, 82, 85
2, 193338, Note_on_c, 0, 79, 99
2, 193348, Note_on_c, 0, 72, 0
2, 193360, Note_on_c, 0, 60, 0
2, 193374, Note_on_c, 0, 79, 0
2, 193428, Note_on_c, 0, 82, 0
2, 193464, Note_on_c, 0, 79, 75
2, 193474, Note_on_c, 0, 82, 81
2, 193544, Note_on_c, 0, 78, 95
2, 193568, Note_on_c, 0, 72, 68
2, 193590, Note_on_c, 0, 79, 0
2, 193590, Note_on_c, 0, 60, 49
2, 193598, Control_c, 0, 64, 0
2, 193744, Note_on_c, 0, 72, 0
2, 193749, Note_on_c, 0, 60, 0
2, 193814, Control_c, 0, 64, 127
2, 193866, Note_on_c, 0, 78, 0
2, 193910, Note_on_c, 0, 72, 75
2, 193918, Note_on_c, 0, 60, 64
2, 193974, Note_on_c, 0, 72, 0
2, 193990, Note_on_c, 0, 60, 0
2, 194126, Note_on_c, 0, 76, 87
2, 194192, Note_on_c, 0, 76, 0
2, 194204, Note_on_c, 0, 82, 0
2, 194314, Note_on_c, 0, 83, 110
2, 194322, Note_on_c, 0, 76, 86
2, 194330, Note_on_c, 0, 71, 62
2, 194340, Note_on_c, 0, 59, 50
2, 194428, Control_c, 0, 64, 0
2, 195040, Note_on_c, 0, 75, 67
2, 195084, Note_on_c, 0, 76, 0
2, 195168, Note_on_c, 0, 75, 0
2, 195171, Note_on_c, 0, 78, 54
2, 195564, Control_c, 0, 64, 127
2, 195688, Note_on_c, 0, 71, 0
2, 195910, Note_on_c, 0, 75, 34
2, 195934, Control_c, 0, 64, 0
2, 196012, Note_on_c, 0, 75, 0
2, 196046, Note_on_c, 0, 78, 0
2, 196058, Note_on_c, 0, 71, 48
2, 196456, Control_c, 0, 64, 127
2, 196628, Note_on_c, 0, 59, 0
2, 196668, Note_on_c, 0, 83, 0
2, 196732, Note_on_c, 0, 71, 0
2, 197056, Control_c, 0, 64, 0
2, 197684, Control_c, 0, 64, 127
2, 197698, Note_on_c, 0, 60, 57
2, 197698, Note_on_c, 0, 48, 47
2, 197748, Note_on_c, 0, 60, 0
2, 197751, Note_on_c, 0, 48, 0
2, 197806, Note_on_c, 0, 60, 73
2, 197812, Note_on_c, 0, 48, 60
2, 197864, Note_on_c, 0, 59, 79
2, 197870, Control_c, 0, 64, 0
2, 197880, Note_on_c, 0, 47, 74
2, 197906, Note_on_c, 0, 48, 0
2, 197922, Note_on_c, 0, 60, 0
2, 198134, Note_on_c, 0, 47, 0
2, 198146, Control_c, 0, 64, 127
2, 198180, Note_on_c, 0, 59, 0
2, 198330, Control_c, 0, 64, 0
2, 198412, Note_on_c, 0, 45, 80
2, 198417, Note_on_c, 0, 57, 79
2, 198460, Note_on_c, 0, 57, 0
2, 198460, Note_on_c, 0, 45, 0
2, 198508, Note_on_c, 0, 57, 82
2, 198511, Note_on_c, 0, 45, 80
2, 198556, Note_on_c, 0, 55, 95
2, 198574, Note_on_c, 0, 43, 92
2, 198622, Note_on_c, 0, 45, 0
2, 198647, Note_on_c, 0, 57, 0
2, 198934, Note_on_c, 0, 43, 0
2, 198960, Control_c, 0, 64, 127
2, 198972, Note_on_c, 0, 55, 0
2, 199226, Note_on_c, 0, 54, 97
2, 199238, Note_on_c, 0, 42, 81
2, 199288, Note_on_c, 0, 42, 0
2, 199312, Note_on_c, 0, 54, 0
2, 199374, Control_c, 0, 64, 0
2, 199376, Note_on_c, 0, 52, 113
2, 199394, Note_on_c, 0, 40, 112
2, 200436, Control_c, 0, 64, 127
2, 200642, Note_on_c, 0, 39, 81
2, 200648, Note_on_c, 0, 51, 89
2, 200672, Note_on_c, 0, 40, 0
2, 200708, Note_on_c, 0, 52, 0
2, 200760, Note_on_c, 0, 54, 99
2, 200770, Note_on_c, 0, 42, 93
2, 200824, Note_on_c, 0, 39, 0
2, 200850, Note_on_c, 0, 51, 0
2, 200896, Control_c, 0, 64, 0
2, 201188, Control_c, 0, 64, 127
2, 201324, Note_on_c, 0, 52, 92
2, 201334, Note_on_c, 0, 40, 98
2, 201354, Note_on_c, 0, 54, 0
2, 201354, Note_on_c, 0, 42, 0
2, 201424, Note_on_c, 0, 55, 101
2, 201427, Note_on_c, 0, 43, 98
2, 201470, Note_on_c, 0, 52, 0
2, 201486, Note_on_c, 0, 40, 0
2, 201618, Control_c, 0, 64, 0
2, 201910, Control_c, 0, 64, 127
2, 201940, Note_on_c, 0, 42, 79
2, 201943, Note_on_c, 0, 54, 88
2, 202022, Note_on_c, 0, 43, 0
2, 202042, Note_on_c, 0, 55, 0
2, 202045, Note_on_c, 0, 45, 89
2, 202049, Note_on_c, 0, 57, 94
2, 202114, Note_on_c, 0, 54, 0
2, 202126, Note_on_c, 0, 42, 0
2, 202248, Control_c, 0, 64, 0
2, 202510, Control_c, 0, 64, 127
2, 202588, Note_on_c, 0, 55, 99
2, 202592, Note_on_c, 0, 43, 92
2, 202628, Note_on_c, 0, 57, 0
2, 202640, Note_on_c, 0, 45, 0
2, 202702, Note_on_c, 0, 59, 97
2, 202704, Note_on_c, 0, 47, 98
2, 202766, Note_on_c, 0, 43, 0
2, 202778, Note_on_c, 0, 55, 0
2, 202862, Control_c, 0, 64, 0
2, 203140, Control_c, 0, 64, 127
2, 203226, Note_on_c, 0, 57, 95
2, 203238, Note_on_c, 0, 45, 91
2, 203310, Note_on_c, 0, 47, 0
2, 203320, Note_on_c, 0, 59, 0
2, 203386, Note_on_c, 0, 60, 104
2, 203394, Note_on_c, 0, 48, 97
2, 203416, Control_c, 0, 64, 0
2, 203460, Note_on_c, 0, 45, 0
2, 203474, Note_on_c, 0, 57, 0
2, 204030, Control_c, 0, 64, 127
2, 204620, Note_on_c, 0, 51, 79
2, 204628, Note_on_c, 0, 39, 78
2, 204904, Note_on_c, 0, 48, 0
2, 204912, Note_on_c, 0, 60, 0
2, 204938, Control_c, 0, 64, 0
2, 205414, Control_c, 0, 64, 127
2, 205536, Note_on_c, 0, 39, 0
2, 205600, Note_on_c, 0, 51, 0
2, 205882, Note_on_c, 0, 59, 98
2, 205882, Note_on_c, 0, 47, 95
2, 206090, Control_c, 0, 64, 0
2, 206304, Control_c, 0, 64, 127
2, 206376, Note_on_c, 0, 50, 96
2, 206382, Note_on_c, 0, 38, 93
2, 206392, Note_on_c, 0, 59, 0
2, 206412, Note_on_c, 0, 47, 0
2, 206518, Note_on_c, 0, 58, 86
2, 206530, Note_on_c, 0, 46, 90
2, 206580, Note_on_c, 0, 38, 0
2, 206582, Control_c, 0, 64, 0
2, 206612, Note_on_c, 0, 50, 0
2, 206980, Control_c, 0, 64, 127
2, 207084, Note_on_c, 0, 37, 82
2, 207084, Note_on_c, 0, 49, 88
2, 207174, Note_on_c, 0, 46, 0
2, 207186, Note_on_c, 0, 58, 0
2, 207196, Control_c, 0, 64, 0
2, 207252, Note_on_c, 0, 57, 81
2, 207257, Note_on_c, 0, 45, 84
2, 207324, Note_on_c, 0, 49, 0
2, 207340, Note_on_c, 0, 37, 0
2, 208318, Control_c, 0, 64, 127
2, 208504, Note_on_c, 0, 36, 70
2, 208510, Note_on_c, 0, 48, 65
2, 208684, Note_on_c, 0, 45, 0
2, 208702, Control_c, 0, 64, 0
2, 208812, Note_on_c, 0, 57, 0
2, 209286, Control_c, 0, 64, 127
2, 209430, Note_on_c, 0, 36, 0
2, 209530, Note_on_c, 0, 48, 0
2, 209750, Note_on_c, 0, 57, 82
2, 209766, Note_on_c, 0, 45, 83
2, 209976, Control_c, 0, 64, 0
2, 210208, Control_c, 0, 64, 127
2, 210296, Note_on_c, 0, 35, 98
2, 210300, Note_on_c, 0, 45, 0
2, 210302, Note_on_c, 0, 47, 84
2, 210342, Note_on_c, 0, 57, 0
2, 210444, Note_on_c, 0, 57, 63
2, 210447, Note_on_c, 0, 45, 87
2, 210460, Note_on_c, 0, 35, 0
2, 210494, Note_on_c, 0, 47, 0
2, 210560, Control_c, 0, 64, 0
2, 210760, Control_c, 0, 64, 127
2, 211054, Note_on_c, 0, 45, 0
2, 211066, Note_on_c, 0, 47, 91
2, 211072, Note_on_c, 0, 35, 94
2, 211136, Note_on_c, 0, 57, 0
2, 211278, Note_on_c, 0, 35, 0
2, 211288, Note_on_c, 0, 57, 81
2, 211292, Note_on_c, 0, 45, 75
2, 211328, Note_on_c, 0, 47, 0
2, 211496, Note_on_c, 0, 47, 87
2, 211499, Note_on_c, 0, 35, 86
2, 211654, Note_on_c, 0, 45, 0
2, 211657, Note_on_c, 0, 39, 74
2, 211662, Note_on_c, 0, 51, 84
2, 211688, Note_on_c, 0, 47, 0
2, 211704, Note_on_c, 0, 57, 0
2, 211714, Note_on_c, 0, 35, 0
2, 211816, Note_on_c, 0, 42, 68
2, 211824, Note_on_c, 0, 54, 85
2, 211858, Note_on_c, 0, 51, 0
2, 211910, Note_on_c, 0, 39, 0
2, 211980, Note_on_c, 0, 54, 0
2, 211988, Note_on_c, 0, 57, 84
2, 211988, Note_on_c, 0, 45, 73
2, 212040, Note_on_c, 0, 42, 0
2, 212146, Note_on_c, 0, 60, 87
2, 212152, Note_on_c, 0, 48, 67
2, 212155, Note_on_c, 0, 45, 0
2, 212246, Note_on_c, 0, 57, 0
2, 212312, Note_on_c, 0, 63, 84
2, 212320, Note_on_c, 0, 51, 76
2, 212358, Note_on_c, 0, 60, 0
2, 212362, Note_on_c, 0, 48, 0
2, 212470, Note_on_c, 0, 54, 77
2, 212473, Note_on_c, 0, 66, 69
2, 212517, Note_on_c, 0, 63, 0
2, 212544, Note_on_c, 0, 51, 0
2, 212650, Note_on_c, 0, 57, 63
2, 212652, Note_on_c, 0, 69, 69
2, 212654, Note_on_c, 0, 66, 0
2, 212682, Note_on_c, 0, 54, 0
2, 212682, Control_c, 0, 64, 0
2, 212826, Note_on_c, 0, 72, 66
2, 212830, Note_on_c, 0, 57, 0
2, 212842, Note_on_c, 0, 60, 66
2, 212892, Note_on_c, 0, 69, 0
2, 213014, Note_on_c, 0, 75, 68
2, 213032, Note_on_c, 0, 63, 58
2, 213056, Note_on_c, 0, 60, 0
2, 213076, Note_on_c, 0, 72, 0
2, 213216, Note_on_c, 0, 66, 39
2, 213219, Note_on_c, 0, 78, 65
2, 213234, Note_on_c, 0, 63, 0
2, 213262, Note_on_c, 0, 75, 0
2, 213424, Note_on_c, 0, 78, 0
2, 213432, Note_on_c, 0, 66, 0
2, 213448, Note_on_c, 0, 69, 22
2, 213458, Note_on_c, 0, 81, 51
2, 213598, Note_on_c, 0, 69, 0
2, 213632, Note_on_c, 0, 81, 0
2, 213792, Note_on_c, 0, 84, 42
2, 213818, Note_on_c, 0, 72, 24
2, 214022, Note_on_c, 0, 72, 0
2, 214044, Note_on_c, 0, 84, 0
2, 214242, Note_on_c, 0, 87, 27
2, 214254, Note_on_c, 0, 75, 17
2, 214946, Note_on_c, 0, 75, 0
2, 214948, Note_on_c, 0, 87, 0
2, 215832, Control_c, 0, 64, 127
2, 217596, Note_on_c, 0, 56, 19
2, 217599, Note_on_c, 0, 64, 40
2, 217604, Note_on_c, 0, 52, 27
2, 218136, Control_c, 0, 64, 0
2, 218320, Control_c, 0, 64, 127
2, 218954, Note_on_c, 0, 63, 32
2, 218974, Note_on_c, 0, 54, 26
2, 219000, Note_on_c, 0, 64, 0
2, 219026, Note_on_c, 0, 56, 0
2, 219164, Note_on_c, 0, 66, 28
2, 219192, Note_on_c, 0, 57, 25
2, 219220, Note_on_c, 0, 63, 0
2, 219226, Note_on_c, 0, 54, 0
2, 219288, Control_c, 0, 64, 0
2, 219810, Control_c, 0, 64, 127
2, 220698, Note_on_c, 0, 59, 23
2, 220914, Note_on_c, 0, 66, 0
2, 221102, Control_c, 0, 64, 0
2, 221300, Control_c, 0, 64, 127
2, 221330, Note_on_c, 0, 57, 0
2, 221364, Note_on_c, 0, 52, 0
2, 221636, Note_on_c, 0, 59, 0
2, 221654, Note_on_c, 0, 52, 27
2, 221734, Note_on_c, 0, 56, 28
2, 221870, Note_on_c, 0, 59, 55
2, 221982, Note_on_c, 0, 64, 45
2, 222088, Note_on_c, 0, 68, 50
2, 222112, Note_on_c, 0, 59, 0
2, 222216, Note_on_c, 0, 71, 83
2, 222260, Note_on_c, 0, 64, 0
2, 222364, Note_on_c, 0, 68, 0
2, 222756, Note_on_c, 0, 52, 0
2, 223106, Note_on_c, 0, 56, 0
2, 223380, Note_on_c, 0, 69, 55
2, 223550, Note_on_c, 0, 71, 0
2, 223600, Note_on_c, 0, 73, 52
2, 223618, Note_on_c, 0, 57, 25
2, 223638, Note_on_c, 0, 52, 27
2, 223744, Control_c, 0, 64, 0
2, 223846, Note_on_c, 0, 69, 0
2, 224128, Control_c, 0, 64, 127
2, 225036, Note_on_c, 0, 66, 33
2, 225058, Note_on_c, 0, 63, 24
2, 225196, Note_on_c, 0, 73, 0
2, 225358, Control_c, 0, 64, 0
2, 225573, Control_c, 0, 64, 127
2, 225706, Note_on_c, 0, 52, 0
2, 225774, Note_on_c, 0, 57, 0
2, 226076, Note_on_c, 0, 63, 0
2, 226114, Note_on_c, 0, 66, 0
2, 226122, Note_on_c, 0, 52, 52
2, 226190, Note_on_c, 0, 56, 40
2, 226276, Note_on_c, 0, 59, 45
2, 226342, Note_on_c, 0, 64, 55
2, 226398, Note_on_c, 0, 68, 68
2, 226484, Note_on_c, 0, 71, 76
2, 226548, Note_on_c, 0, 76, 90
2, 226818, Control_c, 0, 64, 0
2, 227124, Control_c, 0, 64, 127
2, 227190, Note_on_c, 0, 52, 0
2, 227193, Note_on_c, 0, 59, 0
2, 227202, Note_on_c, 0, 56, 0
2, 227354, Control_c, 0, 64, 0
2, 227444, Note_on_c, 0, 71, 0
2, 227458, Note_on_c, 0, 64, 0
2, 227461, Control_c, 0, 64, 127
2, 227498, Note_on_c, 0, 68, 0
2, 227640, Note_on_c, 0, 75, 91
2, 227648, Note_on_c, 0, 57, 67
2, 227651, Note_on_c, 0, 54, 74
2, 227672, Note_on_c, 0, 76, 0
2, 227700, Note_on_c, 0, 54, 0
2, 227710, Note_on_c, 0, 57, 0
2, 227736, Note_on_c, 0, 51, 78
2, 227774, Note_on_c, 0, 75, 0
2, 227808, Note_on_c, 0, 54, 74
2, 227822, Note_on_c, 0, 71, 89
2, 227854, Note_on_c, 0, 59, 65
2, 227868, Note_on_c, 0, 75, 50
2, 227898, Note_on_c, 0, 78, 75
2, 227914, Note_on_c, 0, 81, 103
2, 227954, Control_c, 0, 64, 0
2, 228184, Control_c, 0, 64, 127
2, 228306, Note_on_c, 0, 59, 0
2, 228344, Note_on_c, 0, 54, 0
2, 228356, Note_on_c, 0, 51, 0
2, 228660, Control_c, 0, 64, 0
2, 228830, Control_c, 0, 64, 127
2, 228833, Note_on_c, 0, 75, 0
2, 228892, Note_on_c, 0, 71, 0
2, 228928, Note_on_c, 0, 59, 54
2, 228930, Note_on_c, 0, 78, 0
2, 228934, Note_on_c, 0, 81, 0
2, 228942, Note_on_c, 0, 52, 69
2, 228960, Note_on_c, 0, 80, 90
2, 228970, Note_on_c, 0, 76, 72
2, 228978, Note_on_c, 0, 59, 0
2, 228988, Note_on_c, 0, 52, 0
2, 229036, Note_on_c, 0, 45, 58
2, 229086, Note_on_c, 0, 49, 45
2, 229140, Note_on_c, 0, 73, 66
2, 229148, Note_on_c, 0, 76, 0
2, 229148, Note_on_c, 0, 52, 65
2, 229178, Note_on_c, 0, 57, 61
2, 229242, Note_on_c, 0, 85, 98
2, 229260, Control_c, 0, 64, 0
2, 229270, Note_on_c, 0, 81, 91
2, 229310, Note_on_c, 0, 80, 0
2, 229498, Note_on_c, 0, 73, 0
2, 229552, Control_c, 0, 64, 127
2, 229634, Note_on_c, 0, 81, 0
2, 229636, Note_on_c, 0, 85, 0
2, 229794, Note_on_c, 0, 80, 80
2, 229802, Note_on_c, 0, 83, 88
2, 229832, Note_on_c, 0, 80, 0
2, 229850, Note_on_c, 0, 83, 0
2, 229904, Note_on_c, 0, 83, 108
2, 229910, Note_on_c, 0, 80, 52
2, 229964, Note_on_c, 0, 57, 0
2, 229964, Note_on_c, 0, 52, 0
2, 229964, Note_on_c, 0, 49, 0
2, 229990, Note_on_c, 0, 45, 0
2, 230006, Note_on_c, 0, 78, 78
2, 230014, Note_on_c, 0, 81, 92
2, 230060, Control_c, 0, 64, 0
2, 230076, Note_on_c, 0, 80, 0
2, 230086, Note_on_c, 0, 83, 0
2, 230274, Control_c, 0, 64, 127
2, 230336, Note_on_c, 0, 81, 0
2, 230352, Note_on_c, 0, 78, 0
2, 230490, Note_on_c, 0, 80, 77
2, 230504, Note_on_c, 0, 76, 55
2, 230552, Note_on_c, 0, 76, 0
2, 230555, Note_on_c, 0, 80, 0
2, 230734, Note_on_c, 0, 81, 81
2, 230752, Note_on_c, 0, 76, 59
2, 230764, Note_on_c, 0, 47, 30
2, 230820, Note_on_c, 0, 80, 69
2, 230860, Note_on_c, 0, 81, 0
2, 230890, Control_c, 0, 64, 0
2, 230902, Note_on_c, 0, 78, 81
2, 230928, Note_on_c, 0, 80, 0
2, 231022, Note_on_c, 0, 80, 68
2, 231066, Note_on_c, 0, 78, 0
2, 231389, Note_on_c, 0, 81, 61
2, 231429, Note_on_c, 0, 80, 0
2, 231504, Control_c, 0, 64, 127
2, 231688, Control_c, 0, 64, 0
2, 231750, Note_on_c, 0, 82, 60
2, 231752, Note_on_c, 0, 81, 0
2, 232378, Control_c, 0, 64, 127
2, 232494, Note_on_c, 0, 83, 54
2, 232532, Note_on_c, 0, 82, 0
2, 232594, Control_c, 0, 64, 0
2, 232716, Note_on_c, 0, 78, 35
2, 232718, Note_on_c, 0, 75, 30
2, 232758, Note_on_c, 0, 59, 23
2, 232761, Note_on_c, 0, 83, 0
2, 232788, Note_on_c, 0, 76, 0
2, 232984, Note_on_c, 0, 47, 0
2, 233362, Control_c, 0, 64, 127
2, 233528, Note_on_c, 0, 75, 0
2, 233531, Note_on_c, 0, 78, 0
2, 233748, Control_c, 0, 64, 0
2, 233840, Control_c, 0, 64, 127
2, 233900, Control_c, 0, 64, 0
2, 233916, Note_on_c, 0, 76, 44
2, 233919, Note_on_c, 0, 73, 36
2, 233998, Note_on_c, 0, 76, 0
2, 234000, Note_on_c, 0, 73, 0
2, 234054, Control_c, 0, 64, 127
2, 234192, Note_on_c, 0, 73, 40
2, 234204, Note_on_c, 0, 76, 40
2, 234264, Note_on_c, 0, 75, 52
2, 234267, Note_on_c, 0, 76, 0
2, 234267, Note_on_c, 0, 71, 35
2, 234310, Note_on_c, 0, 73, 0
2, 234334, Note_on_c, 0, 75, 0
2, 234356, Note_on_c, 0, 71, 0
2, 234376, Control_c, 0, 64, 0
2, 234490, Note_on_c, 0, 69, 46
2, 234490, Note_on_c, 0, 73, 51
2, 234538, Note_on_c, 0, 73, 0
2, 234559, Note_on_c, 0, 69, 0
2, 234676, Note_on_c, 0, 71, 74
2, 234679, Note_on_c, 0, 68, 55
2, 234726, Note_on_c, 0, 71, 0
2, 234736, Note_on_c, 0, 68, 0
2, 234818, Note_on_c, 0, 59, 0
2, 234860, Note_on_c, 0, 71, 49
2, 234878, Note_on_c, 0, 66, 53
2, 234896, Note_on_c, 0, 69, 54
2, 234920, Note_on_c, 0, 71, 0
2, 234976, Note_on_c, 0, 66, 0
2, 235030, Note_on_c, 0, 69, 0
2, 235106, Note_on_c, 0, 68, 47
2, 235112, Note_on_c, 0, 64, 52
2, 235158, Note_on_c, 0, 68, 0
2, 235168, Note_on_c, 0, 64, 0
2, 235342, Note_on_c, 0, 66, 32
2, 235354, Note_on_c, 0, 63, 26
2, 235424, Note_on_c, 0, 63, 0
2, 235428, Note_on_c, 0, 66, 0
2, 235684, Note_on_c, 0, 64, 35
2, 235702, Note_on_c, 0, 56, 18
2, 235724, Note_on_c, 0, 52, 22
2, 236144, Control_c, 0, 64, 127
2, 236468, Note_on_c, 0, 63, 34
2, 236490, Note_on_c, 0, 54, 29
2, 236508, Note_on_c, 0, 64, 0
2, 236510, Note_on_c, 0, 56, 0
2, 236656, Note_on_c, 0, 54, 0
2, 236704, Note_on_c, 0, 64, 40
2, 236716, Note_on_c, 0, 55, 34
2, 236748, Note_on_c, 0, 63, 0
2, 236844, Note_on_c, 0, 52, 0
2, 236848, Note_on_c, 0, 55, 0
2, 236892, Note_on_c, 0, 65, 55
2, 236904, Note_on_c, 0, 56, 31
2, 236924, Note_on_c, 0, 64, 0
2, 237096, Control_c, 0, 64, 0
2, 237128, Note_on_c, 0, 66, 42
2, 237150, Note_on_c, 0, 57, 31
2, 237162, Note_on_c, 0, 52, 36
2, 237172, Note_on_c, 0, 56, 0
2, 237248, Note_on_c, 0, 65, 0
2, 237926, Control_c, 0, 64, 127
2, 238466, Note_on_c, 0, 59, 28
2, 238506, Note_on_c, 0, 66, 0
2, 238510, Control_c, 0, 64, 0
2, 238718, Note_on_c, 0, 63, 37
2, 238766, Note_on_c, 0, 59, 0
2, 238802, Control_c, 0, 64, 127
2, 238914, Note_on_c, 0, 66, 38
2, 238958, Note_on_c, 0, 63, 0
2, 239016, Control_c, 0, 64, 0
2, 239082, Note_on_c, 0, 68, 50
2, 239142, Note_on_c, 0, 66, 0
2, 239262, Note_on_c, 0, 69, 44
2, 239276, Note_on_c, 0, 68, 0
2, 239400, Control_c, 0, 64, 127
2, 239430, Note_on_c, 0, 52, 0
2, 239446, Note_on_c, 0, 63, 64
2, 239452, Note_on_c, 0, 69, 0
2, 239710, Note_on_c, 0, 56, 31
2, 239713, Note_on_c, 0, 71, 63
2, 239724, Control_c, 0, 64, 0
2, 239736, Note_on_c, 0, 57, 0
2, 239740, Note_on_c, 0, 52, 36
2, 239746, Note_on_c, 0, 63, 0
2, 240184, Control_c, 0, 64, 127
2, 240428, Note_on_c, 0, 69, 37
2, 240432, Note_on_c, 0, 56, 0
2, 240446, Note_on_c, 0, 54, 38
2, 240490, Note_on_c, 0, 71, 0
2, 240584, Note_on_c, 0, 54, 0
2, 240636, Note_on_c, 0, 70, 55
2, 240648, Note_on_c, 0, 55, 42
2, 240684, Note_on_c, 0, 69, 0
2, 240728, Note_on_c, 0, 52, 0
2, 240816, Note_on_c, 0, 71, 78
2, 240820, Note_on_c, 0, 55, 0
2, 240822, Note_on_c, 0, 56, 53
2, 240938, Note_on_c, 0, 70, 0
2, 241050, Note_on_c, 0, 51, 56
2, 241053, Note_on_c, 0, 57, 44
2, 241058, Note_on_c, 0, 72, 72
2, 241092, Control_c, 0, 64, 0
2, 241110, Note_on_c, 0, 56, 0
2, 241200, Note_on_c, 0, 71, 0
2, 241736, Control_c, 0, 64, 127
2, 242124, Note_on_c, 0, 57, 0
2, 242138, Note_on_c, 0, 66, 64
2, 242200, Note_on_c, 0, 66, 0
2, 242262, Note_on_c, 0, 66, 75
2, 242314, Note_on_c, 0, 57, 57
2, 242318, Note_on_c, 0, 54, 59
2, 242324, Note_on_c, 0, 49, 41
2, 242368, Note_on_c, 0, 73, 78
2, 242420, Note_on_c, 0, 72, 0
2, 242474, Control_c, 0, 64, 0
2, 242506, Note_on_c, 0, 51, 0
2, 242610, Note_on_c, 0, 66, 0
2, 242950, Control_c, 0, 64, 127
2, 243184, Note_on_c, 0, 73, 0
2, 243340, Note_on_c, 0, 54, 0
2, 243412, Note_on_c, 0, 49, 0
2, 243432, Note_on_c, 0, 57, 0
2, 243466, Note_on_c, 0, 66, 75
2, 243608, Note_on_c, 0, 66, 0
2, 243686, Note_on_c, 0, 75, 95
2, 243686, Note_on_c, 0, 66, 67
2, 243698, Note_on_c, 0, 60, 76
2, 243698, Note_on_c, 0, 68, 65
2, 243708, Note_on_c, 0, 56, 59
2, 243711, Note_on_c, 0, 48, 53
2, 243711, Note_on_c, 0, 51, 59
2, 243964, Control_c, 0, 64, 0
2, 244410, Control_c, 0, 64, 127
2, 244528, Note_on_c, 0, 68, 0
2, 244654, Note_on_c, 0, 48, 0
2, 244744, Note_on_c, 0, 56, 0
2, 244760, Note_on_c, 0, 51, 0
2, 244796, Note_on_c, 0, 66, 0
2, 244808, Note_on_c, 0, 68, 84
2, 244870, Note_on_c, 0, 60, 0
2, 244904, Note_on_c, 0, 75, 0
2, 244914, Note_on_c, 0, 49, 73
2, 245002, Note_on_c, 0, 52, 88
2, 245024, Note_on_c, 0, 68, 0
2, 245094, Note_on_c, 0, 56, 76
2, 245172, Note_on_c, 0, 61, 88
2, 245194, Control_c, 0, 64, 0
2, 245270, Note_on_c, 0, 64, 88
2, 245350, Note_on_c, 0, 68, 84
2, 245378, Control_c, 0, 64, 127
2, 245380, Note_on_c, 0, 64, 0
2, 245438, Note_on_c, 0, 73, 72
2, 245462, Note_on_c, 0, 68, 0
2, 245494, Note_on_c, 0, 73, 0
2, 245534, Note_on_c, 0, 76, 87
2, 245612, Note_on_c, 0, 80, 92
2, 245680, Note_on_c, 0, 56, 0
2, 245698, Note_on_c, 0, 52, 0
2, 245704, Note_on_c, 0, 76, 0
2, 245712, Note_on_c, 0, 85, 87
2, 245744, Note_on_c, 0, 61, 0
2, 245756, Note_on_c, 0, 80, 0
2, 245760, Note_on_c, 0, 49, 0
2, 245818, Note_on_c, 0, 88, 93
2, 245848, Note_on_c, 0, 85, 0
2, 245920, Note_on_c, 0, 85, 67
2, 245962, Note_on_c, 0, 88, 0
2, 246048, Note_on_c, 0, 80, 79
2, 246082, Note_on_c, 0, 85, 0
2, 246144, Note_on_c, 0, 80, 0
2, 246158, Note_on_c, 0, 76, 52
2, 246274, Note_on_c, 0, 73, 59
2, 246306, Note_on_c, 0, 76, 0
2, 246376, Control_c, 0, 64, 0
2, 246406, Note_on_c, 0, 54, 38
2, 246414, Note_on_c, 0, 63, 38
2, 246424, Note_on_c, 0, 71, 62
2, 246454, Note_on_c, 0, 73, 0
2, 246762, Note_on_c, 0, 71, 0
2, 246764, Note_on_c, 0, 63, 0
2, 246784, Note_on_c, 0, 54, 0
2, 247112, Note_on_c, 0, 70, 46
2, 247124, Note_on_c, 0, 64, 27
2, 247124, Note_on_c, 0, 61, 38
2, 247132, Note_on_c, 0, 54, 34
2, 247298, Control_c, 0, 64, 127
2, 247338, Note_on_c, 0, 61, 0
2, 247386, Note_on_c, 0, 54, 0
2, 247392, Note_on_c, 0, 64, 0
2, 247438, Note_on_c, 0, 70, 0
2, 247620, Control_c, 0, 64, 0
2, 247956, Note_on_c, 0, 73, 60
2, 247966, Note_on_c, 0, 64, 55
2, 247968, Note_on_c, 0, 70, 42
2, 247974, Note_on_c, 0, 47, 53
2, 248068, Control_c, 0, 64, 127
2, 249262, Note_on_c, 0, 64, 0
2, 249334, Note_on_c, 0, 66, 30
2, 249688, Note_on_c, 0, 63, 32
2, 249704, Note_on_c, 0, 66, 0
2, 249707, Note_on_c, 0, 71, 41
2, 249814, Note_on_c, 0, 70, 0
2, 249852, Note_on_c, 0, 73, 0
2, 249880, Control_c, 0, 64, 0
2, 250064, Control_c, 0, 64, 127
2, 250084, Note_on_c, 0, 51, 36
2, 250166, Note_on_c, 0, 47, 0
2, 250210, Note_on_c, 0, 71, 0
2, 250282, Note_on_c, 0, 63, 0
2, 250296, Note_on_c, 0, 54, 43
2, 250376, Note_on_c, 0, 51, 0
2, 250428, Note_on_c, 0, 54, 0
2, 250512, Note_on_c, 0, 59, 36
2, 250666, Note_on_c, 0, 54, 47
2, 250682, Note_on_c, 0, 59, 0
2, 250778, Note_on_c, 0, 54, 0
2, 250802, Note_on_c, 0, 51, 35
2, 250928, Note_on_c, 0, 47, 47
2, 250940, Note_on_c, 0, 51, 0
2, 251012, Note_on_c, 0, 47, 0
2, 251040, Note_on_c, 0, 42, 38
2, 251164, Note_on_c, 0, 39, 41
2, 251208, Note_on_c, 0, 42, 0
2, 251294, Control_c, 0, 64, 0
2, 251340, Note_on_c, 0, 39, 0
2, 251346, Note_on_c, 0, 35, 33
2, 251908, Control_c, 0, 64, 127
2, 251976, Note_on_c, 0, 35, 0
2, 252214, Control_c, 0, 64, 0
2, 253416, Note_on_c, 0, 72, 37
2, 253434, Note_on_c, 0, 66, 11
2, 253448, Note_on_c, 0, 57, 14
2, 253451, Note_on_c, 0, 63, 23
2, 254028, Control_c, 0, 64, 127
2, 254538, Note_on_c, 0, 72, 0
2, 254634, Note_on_c, 0, 71, 41
2, 254690, Note_on_c, 0, 71, 0
2, 254768, Note_on_c, 0, 71, 55
2, 254842, Control_c, 0, 64, 0
2, 254916, Note_on_c, 0, 78, 57
2, 254922, Note_on_c, 0, 71, 0
2, 255318, Control_c, 0, 64, 127
2, 255930, Note_on_c, 0, 71, 43
2, 255935, Note_on_c, 0, 57, 0
2, 255948, Note_on_c, 0, 66, 0
2, 255954, Note_on_c, 0, 63, 0
2, 255992, Note_on_c, 0, 71, 0
2, 255996, Note_on_c, 0, 78, 0
2, 256068, Note_on_c, 0, 71, 56
2, 256106, Note_on_c, 0, 64, 33
2, 256138, Note_on_c, 0, 59, 16
2, 256154, Note_on_c, 0, 55, 26
2, 256292, Note_on_c, 0, 79, 66
2, 256340, Note_on_c, 0, 71, 0
2, 256394, Control_c, 0, 64, 0
2, 256748, Control_c, 0, 64, 127
2, 257342, Note_on_c, 0, 55, 0
2, 257354, Note_on_c, 0, 64, 0
2, 257378, Note_on_c, 0, 59, 0
2, 257440, Note_on_c, 0, 79, 0
2, 257444, Note_on_c, 0, 71, 73
2, 257624, Note_on_c, 0, 71, 0
2, 257730, Note_on_c, 0, 81, 101
2, 257736, Note_on_c, 0, 65, 63
2, 257738, Note_on_c, 0, 71, 84
2, 257740, Note_on_c, 0, 74, 81
2, 257740, Note_on_c, 0, 77, 78
2, 257758, Note_on_c, 0, 62, 49
2, 257762, Note_on_c, 0, 55, 42
2, 257764, Note_on_c, 0, 59, 48
2, 258268, Control_c, 0, 64, 0
2, 258468, Control_c, 0, 64, 127
2, 258496, Note_on_c, 0, 62, 0
2, 258562, Note_on_c, 0, 59, 0
2, 258567, Note_on_c, 0, 65, 0
2, 258586, Note_on_c, 0, 55, 0
2, 258624, Note_on_c, 0, 77, 0
2, 258646, Note_on_c, 0, 74, 0
2, 258766, Note_on_c, 0, 81, 0
2, 258878, Note_on_c, 0, 71, 0
2, 258918, Note_on_c, 0, 59, 61
2, 258924, Note_on_c, 0, 55, 44
2, 258984, Note_on_c, 0, 59, 0
2, 259046, Note_on_c, 0, 55, 0
2, 259094, Note_on_c, 0, 77, 94
2, 259100, Note_on_c, 0, 67, 79
2, 259106, Note_on_c, 0, 71, 81
2, 259108, Note_on_c, 0, 62, 84
2, 259110, Note_on_c, 0, 74, 78
2, 259116, Note_on_c, 0, 59, 66
2, 259620, Control_c, 0, 64, 0
2, 259836, Control_c, 0, 64, 127
2, 259914, Note_on_c, 0, 59, 0
2, 259940, Note_on_c, 0, 62, 0
2, 260138, Note_on_c, 0, 71, 0
2, 260158, Note_on_c, 0, 74, 0
2, 260164, Note_on_c, 0, 67, 0
2, 260192, Note_on_c, 0, 59, 70
2, 260194, Note_on_c, 0, 55, 69
2, 260264, Note_on_c, 0, 59, 0
2, 260269, Note_on_c, 0, 55, 0
2, 260378, Note_on_c, 0, 76, 73
2, 260386, Note_on_c, 0, 72, 53
2, 260388, Note_on_c, 0, 67, 49
2, 260414, Note_on_c, 0, 64, 40
2, 260414, Note_on_c, 0, 60, 44
2, 260528, Control_c, 0, 64, 0
2, 260586, Note_on_c, 0, 77, 0
2, 261034, Control_c, 0, 64, 127
2, 261214, Note_on_c, 0, 67, 0
2, 261252, Note_on_c, 0, 72, 0
2, 261464, Note_on_c, 0, 64, 0
2, 261472, Note_on_c, 0, 60, 0
2, 261492, Note_on_c, 0, 74, 83
2, 261506, Note_on_c, 0, 65, 45
2, 261512, Note_on_c, 0, 62, 33
2, 261586, Note_on_c, 0, 76, 0
2, 261608, Note_on_c, 0, 65, 0
2, 261612, Note_on_c, 0, 74, 0
2, 261666, Note_on_c, 0, 62, 0
2, 261672, Note_on_c, 0, 74, 93
2, 261686, Note_on_c, 0, 67, 53
2, 261694, Note_on_c, 0, 64, 47
2, 261758, Control_c, 0, 64, 0
2, 262418, Control_c, 0, 64, 127
2, 262708, Note_on_c, 0, 74, 0
2, 262712, Note_on_c, 0, 72, 70
2, 262828, Note_on_c, 0, 84, 87
2, 262836, Note_on_c, 0, 72, 0
2, 262934, Note_on_c, 0, 65, 32
2, 262939, Note_on_c, 0, 62, 30
2, 262970, Note_on_c, 0, 72, 71
2, 262980, Note_on_c, 0, 67, 0
2, 262986, Control_c, 0, 64, 0
2, 263052, Note_on_c, 0, 64, 0
2, 263206, Note_on_c, 0, 84, 0
2, 263554, Control_c, 0, 64, 127
2, 263838, Note_on_c, 0, 71, 63
2, 263841, Note_on_c, 0, 72, 0
2, 263952, Note_on_c, 0, 83, 98
2, 263970, Note_on_c, 0, 71, 0
2, 264100, Note_on_c, 0, 64, 38
2, 264108, Note_on_c, 0, 71, 80
2, 264110, Note_on_c, 0, 60, 21
2, 264126, Note_on_c, 0, 65, 0
2, 264138, Control_c, 0, 64, 0
2, 264148, Note_on_c, 0, 62, 0
2, 264362, Note_on_c, 0, 83, 0
2, 264860, Control_c, 0, 64, 127
2, 265164, Note_on_c, 0, 71, 0
2, 265166, Note_on_c, 0, 70, 36
2, 265190, Note_on_c, 0, 64, 0
2, 265336, Note_on_c, 0, 70, 0
2, 265338, Note_on_c, 0, 82, 44
2, 265520, Note_on_c, 0, 70, 52
2, 265542, Note_on_c, 0, 64, 36
2, 265552, Note_on_c, 0, 59, 25
2, 265604, Note_on_c, 0, 60, 0
2, 265618, Note_on_c, 0, 82, 0
2, 266166, Control_c, 0, 64, 0
2, 266628, Control_c, 0, 64, 127
2, 267014, Note_on_c, 0, 63, 17
2, 267106, Note_on_c, 0, 64, 0
2, 267180, Control_c, 0, 64, 0
2, 267580, Control_c, 0, 64, 127
2, 267698, Note_on_c, 0, 71, 25
2, 267764, Control_c, 0, 64, 0
2, 267766, Note_on_c, 0, 70, 0
2, 268072, Control_c, 0, 64, 127
2, 268378, Note_on_c, 0, 69, 15
2, 268476, Note_on_c, 0, 71, 0
2, 268486, Control_c, 0, 64, 0
2, 268824, Control_c, 0, 64, 127
2, 269054, Note_on_c, 0, 66, 16
2, 269054, Control_c, 0, 64, 0
2, 269086, Note_on_c, 0, 69, 0
2, 269224, Control_c, 0, 64, 127
2, 269238, Note_on_c, 0, 63, 0
2, 269276, Note_on_c, 0, 59, 0
2, 269372, Note_on_c, 0, 66, 0
2, 269854, Note_on_c, 0, 64, 29
2, 269874, Note_on_c, 0, 56, 13
2, 269900, Note_on_c, 0, 52, 28
2, 270362, Control_c, 0, 64, 0
2, 270638, Control_c, 0, 64, 127
2, 271190, Note_on_c, 0, 54, 19
2, 271195, Note_on_c, 0, 63, 26
2, 271208, Note_on_c, 0, 64, 0
2, 271244, Note_on_c, 0, 56, 0
2, 271330, Control_c, 0, 64, 0
2, 271414, Note_on_c, 0, 66, 28
2, 271428, Note_on_c, 0, 57, 22
2, 271440, Note_on_c, 0, 54, 0
2, 271440, Note_on_c, 0, 63, 0
2, 272006, Control_c, 0, 64, 127
2, 272242, Note_on_c, 0, 66, 0
2, 272744, Note_on_c, 0, 59, 35
2, 272790, Control_c, 0, 64, 0
2, 272812, Note_on_c, 0, 59, 0
2, 272914, Note_on_c, 0, 61, 52
2, 272972, Note_on_c, 0, 61, 0
2, 273072, Note_on_c, 0, 63, 64
2, 273128, Note_on_c, 0, 63, 0
2, 273240, Note_on_c, 0, 64, 56
2, 273304, Note_on_c, 0, 64, 0
2, 273402, Note_on_c, 0, 66, 41
2, 273484, Note_on_c, 0, 66, 0
2, 273570, Note_on_c, 0, 68, 48
2, 273624, Note_on_c, 0, 68, 0
2, 273736, Note_on_c, 0, 69, 35
2, 273810, Note_on_c, 0, 69, 0
2, 273900, Note_on_c, 0, 70, 37
2, 273964, Note_on_c, 0, 70, 0
2, 274016, Note_on_c, 0, 57, 0
2, 274114, Note_on_c, 0, 56, 32
2, 274116, Note_on_c, 0, 64, 60
2, 274120, Note_on_c, 0, 71, 34
2, 274134, Note_on_c, 0, 52, 0
2, 274200, Note_on_c, 0, 71, 0
2, 274464, Note_on_c, 0, 71, 57
2, 274552, Note_on_c, 0, 71, 0
2, 274782, Note_on_c, 0, 71, 59
2, 274860, Note_on_c, 0, 71, 0
2, 275126, Note_on_c, 0, 71, 34
2, 275226, Note_on_c, 0, 71, 0
2, 275244, Note_on_c, 0, 63, 56
2, 275252, Note_on_c, 0, 64, 0
2, 275262, Control_c, 0, 64, 127
2, 275267, Note_on_c, 0, 56, 0
2, 275270, Note_on_c, 0, 54, 54
2, 275432, Control_c, 0, 64, 0
2, 275472, Note_on_c, 0, 71, 52
2, 275490, Note_on_c, 0, 66, 43
2, 275522, Note_on_c, 0, 57, 46
2, 275562, Note_on_c, 0, 71, 0
2, 275584, Note_on_c, 0, 63, 0
2, 275618, Note_on_c, 0, 54, 0
2, 275752, Note_on_c, 0, 71, 62
2, 275830, Note_on_c, 0, 71, 0
2, 275938, Note_on_c, 0, 71, 62
2, 276018, Note_on_c, 0, 71, 0
2, 276108, Note_on_c, 0, 71, 65
2, 276194, Note_on_c, 0, 71, 0
2, 276266, Note_on_c, 0, 71, 79
2, 276364, Note_on_c, 0, 71, 0
2, 276422, Note_on_c, 0, 71, 89
2, 276476, Control_c, 0, 64, 127
2, 276498, Note_on_c, 0, 71, 0
2, 276556, Note_on_c, 0, 71, 95
2, 276580, Note_on_c, 0, 57, 0
2, 276594, Note_on_c, 0, 66, 0
2, 276652, Note_on_c, 0, 71, 0
2, 276730, Note_on_c, 0, 66, 48
2, 276734, Note_on_c, 0, 71, 80
2, 276748, Note_on_c, 0, 57, 37
2, 276750, Note_on_c, 0, 63, 42
2, 276756, Note_on_c, 0, 59, 35
2, 276940, Note_on_c, 0, 71, 0
2, 276952, Note_on_c, 0, 73, 72
2, 277078, Note_on_c, 0, 71, 90
2, 277130, Note_on_c, 0, 73, 0
2, 277170, Note_on_c, 0, 70, 80
2, 277202, Note_on_c, 0, 71, 0
2, 277272, Note_on_c, 0, 70, 0
2, 277278, Note_on_c, 0, 71, 83
2, 277378, Note_on_c, 0, 73, 81
2, 277408, Note_on_c, 0, 71, 0
2, 277472, Note_on_c, 0, 75, 83
2, 277522, Note_on_c, 0, 73, 0
2, 277566, Note_on_c, 0, 76, 83
2, 277586, Note_on_c, 0, 75, 0
2, 277642, Note_on_c, 0, 78, 85
2, 277688, Note_on_c, 0, 76, 0
2, 277712, Note_on_c, 0, 80, 83
2, 277746, Note_on_c, 0, 80, 0
2, 277756, Note_on_c, 0, 78, 0
2, 277774, Note_on_c, 0, 59, 0
2, 277786, Note_on_c, 0, 81, 94
2, 277789, Note_on_c, 0, 63, 0
2, 277808, Note_on_c, 0, 57, 0
2, 277836, Note_on_c, 0, 66, 0
2, 277854, Note_on_c, 0, 83, 107
2, 277886, Note_on_c, 0, 81, 0
2, 277912, Note_on_c, 0, 85, 83
2, 277988, Note_on_c, 0, 87, 88
2, 278004, Note_on_c, 0, 83, 0
2, 278068, Note_on_c, 0, 85, 0
2, 278094, Note_on_c, 0, 87, 0
2, 278104, Note_on_c, 0, 76, 107
2, 278106, Note_on_c, 0, 88, 107
2, 278112, Note_on_c, 0, 64, 92
2, 278114, Note_on_c, 0, 56, 67
2, 278124, Note_on_c, 0, 59, 73
2, 278130, Note_on_c, 0, 85, 59
2, 278172, Note_on_c, 0, 85, 0
2, 278366, Control_c, 0, 64, 0
2, 278950, Control_c, 0, 64, 127
2, 279096, Note_on_c, 0, 76, 0
2, 279108, Note_on_c, 0, 88, 0
2, 279166, Note_on_c, 0, 59, 0
2, 279180, Note_on_c, 0, 56, 0
2, 279226, Note_on_c, 0, 64, 0
2, 279232, Note_on_c, 0, 87, 95
2, 279236, Note_on_c, 0, 75, 93
2, 279370, Note_on_c, 0, 75, 0
2, 279378, Note_on_c, 0, 87, 0
2, 279412, Note_on_c, 0, 86, 106
2, 279415, Note_on_c, 0, 74, 104
2, 279426, Note_on_c, 0, 65, 80
2, 279436, Note_on_c, 0, 56, 59
2, 279444, Note_on_c, 0, 59, 52
2, 279626, Control_c, 0, 64, 0
2, 280226, Control_c, 0, 64, 127
2, 280578, Note_on_c, 0, 65, 0
2, 280596, Note_on_c, 0, 74, 0
2, 280670, Note_on_c, 0, 59, 0
2, 280698, Note_on_c, 0, 73, 90
2, 280704, Note_on_c, 0, 85, 92
2, 280716, Note_on_c, 0, 66, 79
2, 280722, Note_on_c, 0, 61, 57
2, 280734, Note_on_c, 0, 57, 50
2, 280766, Note_on_c, 0, 56, 0
2, 280860, Note_on_c, 0, 86, 0
2, 281148, Control_c, 0, 64, 0
2, 281424, Control_c, 0, 64, 127
2, 281662, Note_on_c, 0, 85, 0
2, 281714, Note_on_c, 0, 73, 0
2, 281728, Note_on_c, 0, 61, 0
2, 281744, Note_on_c, 0, 59, 75
2, 281750, Note_on_c, 0, 66, 0
2, 281754, Note_on_c, 0, 57, 0
2, 281824, Note_on_c, 0, 64, 74
2, 281884, Note_on_c, 0, 68, 84
2, 281976, Control_c, 0, 64, 0
2, 281981, Note_on_c, 0, 71, 95
2, 282052, Note_on_c, 0, 76, 82
2, 282132, Note_on_c, 0, 80, 90
2, 282208, Control_c, 0, 64, 127
2, 282244, Note_on_c, 0, 76, 0
2, 282274, Note_on_c, 0, 83, 121
2, 282286, Note_on_c, 0, 59, 0
2, 282350, Note_on_c, 0, 64, 0
2, 282366, Note_on_c, 0, 71, 0
2, 282489, Note_on_c, 0, 80, 0
2, 282492, Note_on_c, 0, 68, 0
2, 283148, Note_on_c, 0, 83, 0
2, 283238, Note_on_c, 0, 82, 92
2, 283448, Note_on_c, 0, 88, 103
2, 283456, Note_on_c, 0, 61, 70
2, 283456, Note_on_c, 0, 79, 88
2, 283459, Note_on_c, 0, 67, 70
2, 283470, Note_on_c, 0, 64, 69
2, 283530, Note_on_c, 0, 82, 0
2, 283590, Control_c, 0, 64, 0
2, 283826, Note_on_c, 0, 85, 93
2, 283852, Control_c, 0, 64, 127
2, 283954, Note_on_c, 0, 79, 0
2, 283964, Note_on_c, 0, 88, 0
2, 284016, Note_on_c, 0, 82, 85
2, 284064, Note_on_c, 0, 64, 0
2, 284116, Note_on_c, 0, 85, 0
2, 284122, Note_on_c, 0, 67, 0
2, 284168, Note_on_c, 0, 79, 90
2, 284171, Note_on_c, 0, 61, 0
2, 284218, Note_on_c, 0, 82, 0
2, 284308, Note_on_c, 0, 76, 78
2, 284314, Note_on_c, 0, 79, 0
2, 284444, Note_on_c, 0, 73, 76
2, 284488, Note_on_c, 0, 76, 0
2, 284562, Note_on_c, 0, 70, 67
2, 284620, Note_on_c, 0, 73, 0
2, 284682, Note_on_c, 0, 67, 71
2, 284710, Note_on_c, 0, 70, 0
2, 284754, Note_on_c, 0, 67, 0
2, 284774, Note_on_c, 0, 64, 69
2, 284868, Note_on_c, 0, 61, 85
2, 284888, Note_on_c, 0, 64, 0
2, 284982, Note_on_c, 0, 58, 70
2, 285042, Note_on_c, 0, 61, 0
2, 285094, Note_on_c, 0, 55, 85
2, 285136, Note_on_c, 0, 58, 0
2, 285198, Note_on_c, 0, 52, 94
2, 285256, Note_on_c, 0, 55, 0
2, 285310, Note_on_c, 0, 49, 78
2, 285386, Note_on_c, 0, 52, 0
2, 285450, Note_on_c, 0, 46, 70
2, 285474, Note_on_c, 0, 49, 0
2, 285572, Control_c, 0, 64, 0
2, 285836, Note_on_c, 0, 46, 0
2, 287036, Note_on_c, 0, 81, 57
2, 287038, Note_on_c, 0, 78, 37
2, 287058, Note_on_c, 0, 71, 34
2, 287060, Note_on_c, 0, 63, 28
2, 287754, Control_c, 0, 64, 127
2, 287868, Note_on_c, 0, 63, 0
2, 287978, Note_on_c, 0, 78, 0
2, 288042, Note_on_c, 0, 81, 0
2, 288100, Note_on_c, 0, 71, 0
2, 288180, Note_on_c, 0, 80, 67
2, 288212, Note_on_c, 0, 76, 31
2, 288244, Note_on_c, 0, 64, 19
2, 288270, Note_on_c, 0, 76, 0
2, 288328, Note_on_c, 0, 64, 0
2, 288354, Control_c, 0, 64, 0
2, 288412, Note_on_c, 0, 85, 52
2, 288446, Note_on_c, 0, 69, 17
2, 288448, Note_on_c, 0, 76, 22
2, 288464, Note_on_c, 0, 57, 18
2, 288496, Note_on_c, 0, 80, 0
2, 288784, Control_c, 0, 64, 127
2, 288806, Note_on_c, 0, 69, 0
2, 288842, Note_on_c, 0, 76, 0
2, 288876, Note_on_c, 0, 85, 0
2, 288904, Note_on_c, 0, 57, 0
2, 289398, Control_c, 0, 64, 0
2, 289756, Note_on_c, 0, 75, 24
2, 289760, Note_on_c, 0, 69, 15
2, 289774, Note_on_c, 0, 66, 13
2, 289816, Note_on_c, 0, 59, 15
2, 290014, Control_c, 0, 64, 127
2, 290178, Note_on_c, 0, 59, 0
2, 290196, Note_on_c, 0, 66, 0
2, 290198, Note_on_c, 0, 69, 0
2, 290250, Note_on_c, 0, 75, 0
2, 290582, Control_c, 0, 64, 0
2, 291248, Note_on_c, 0, 75, 45
2, 291251, Note_on_c, 0, 69, 27
2, 291274, Note_on_c, 0, 64, 16
2, 291277, Note_on_c, 0, 52, 25
2, 291304, Control_c, 0, 64, 127
2, 292554, Note_on_c, 0, 69, 0
2, 292704, Note_on_c, 0, 71, 25
2, 293024, Note_on_c, 0, 71, 0
2, 293038, Note_on_c, 0, 68, 12
2, 293040, Control_c, 0, 64, 0
2, 293060, Note_on_c, 0, 76, 27
2, 293144, Note_on_c, 0, 75, 0
2, 293302, Control_c, 0, 64, 127
2, 293360, Note_on_c, 0, 76, 0
2, 293430, Note_on_c, 0, 68, 0
2, 293972, Note_on_c, 0, 40, 33
2, 294206, Note_on_c, 0, 40, 0
2, 294688, Note_on_c, 0, 40, 41
2, 294906, Note_on_c, 0, 40, 0
2, 295380, Note_on_c, 0, 40, 36
2, 295422, Note_on_c, 0, 52, 0
2, 295484, Note_on_c, 0, 64, 0
2, 295572, Note_on_c, 0, 40, 0
2, 296052, Note_on_c, 0, 56, 29
2, 296058, Note_on_c, 0, 62, 52
2, 296064, Note_on_c, 0, 40, 41
2, 296086, Note_on_c, 0, 59, 40
2, 296510, Note_on_c, 0, 40, 0
2, 296920, Note_on_c, 0, 40, 44
2, 297118, Note_on_c, 0, 40, 0
2, 297270, Note_on_c, 0, 64, 61
2, 297290, Note_on_c, 0, 62, 0
2, 297410, Note_on_c, 0, 59, 0
2, 297614, Note_on_c, 0, 61, 57
2, 297634, Note_on_c, 0, 40, 44
2, 297652, Note_on_c, 0, 57, 39
2, 297714, Note_on_c, 0, 56, 0
2, 297766, Note_on_c, 0, 64, 0
2, 298048, Note_on_c, 0, 40, 0
2, 298326, Note_on_c, 0, 40, 51
2, 298402, Control_c, 0, 64, 0
2, 298586, Control_c, 0, 64, 127
2, 298728, Note_on_c, 0, 40, 0
2, 299022, Note_on_c, 0, 40, 63
2, 299444, Note_on_c, 0, 40, 0
2, 299814, Note_on_c, 0, 40, 65
2, 300070, Note_on_c, 0, 40, 0
2, 300124, Note_on_c, 0, 57, 0
2, 300162, Note_on_c, 0, 61, 0
2, 300830, Note_on_c, 0, 63, 79
2, 300840, Note_on_c, 0, 54, 64
2, 300840, Note_on_c, 0, 40, 73
2, 300846, Note_on_c, 0, 59, 69
2, 300852, Note_on_c, 0, 57, 57
2, 302324, Note_on_c, 0, 40, 0
2, 303654, Note_on_c, 0, 81, 63
2, 304608, Note_on_c, 0, 83, 77
2, 304634, Note_on_c, 0, 81, 0
2, 304794, Note_on_c, 0, 81, 71
2, 304830, Note_on_c, 0, 83, 0
2, 304940, Note_on_c, 0, 80, 76
2, 304972, Note_on_c, 0, 81, 0
2, 305126, Note_on_c, 0, 81, 75
2, 305154, Note_on_c, 0, 80, 0
2, 305572, Note_on_c, 0, 85, 51
2, 305646, Note_on_c, 0, 81, 0
2, 306126, Note_on_c, 0, 83, 68
2, 306164, Note_on_c, 0, 85, 0
2, 306180, Note_on_c, 0, 59, 0
2, 306204, Note_on_c, 0, 57, 0
2, 306356, Note_on_c, 0, 63, 0
2, 306362, Note_on_c, 0, 54, 0
2, 306908, Note_on_c, 0, 81, 42
2, 306930, Note_on_c, 0, 64, 20
2, 306942, Note_on_c, 0, 59, 22
2, 306954, Note_on_c, 0, 52, 16
2, 307244, Note_on_c, 0, 83, 0
2, 307314, Control_c, 0, 64, 0
2, 307530, Control_c, 0, 64, 127
2, 309234, Note_on_c, 0, 81, 0
2, 309266, Note_on_c, 0, 80, 19
2, 309496, Control_c, 0, 64, 0
2, 309742, Control_c, 0, 64, 127
2, 310106, Note_on_c, 0, 64, 0
2, 310118, Note_on_c, 0, 80, 0
2, 310166, Note_on_c, 0, 59, 0
2, 310198, Note_on_c, 0, 52, 0
2, 311178, Note_on_c, 0, 52, 17
2, 311180, Note_on_c, 0, 40, 20
2, 311180, Note_on_c, 0, 56, 7
2, 311180, Note_on_c, 0, 59, 17
2, 311182, Note_on_c, 0, 64, 15
2, 311722, Note_on_c, 0, 40, 0
2, 312082, Note_on_c, 0, 52, 0
2, 312104, Note_on_c, 0, 59, 0
2, 312142, Note_on_c, 0, 64, 0
2, 312154, Note_on_c, 0, 56, 0
2, 313130, Note_on_c, 0, 40, 19
2, 313142, Note_on_c, 0, 64, 13
2, 313146, Note_on_c, 0, 59, 15
2, 313150, Note_on_c, 0, 52, 25
2, 313152, Note_on_c, 0, 56, 4
2, 313308, Note_on_c, 0, 52, 0
2, 313338, Note_on_c, 0, 64, 0
2, 313338, Note_on_c, 0, 56, 0
2, 313348, Note_on_c, 0, 40, 0
2, 313354, Note_on_c, 0, 59, 0
2, 313918, Note_on_c, 0, 40, 10
2, 313918, Note_on_c, 0, 59, 11
2, 313921, Note_on_c, 0, 64, 12
2, 313924, Note_on_c, 0, 56, 7
2, 313924, Note_on_c, 0, 52, 13
2, 318814, Note_on_c, 0, 40, 0
2, 318898, Note_on_c, 0, 64, 0
2, 319022, Note_on_c, 0, 59, 0
2, 319032, Note_on_c, 0, 56, 0
2, 319046, Note_on_c, 0, 52, 0
2, 320744, Control_c, 0, 64, 0
2, 320744, End_track
0, 0, End_of_file
