0, 0, Header, 1, 6, 96
1, 0, Start_track
1, 0, Copyright_t, "Copyright  2000 <copyright holder>"
1, 0, Text_t, "Sonata I\015\012"
1, 0, Text_t, "Haydn\015\012"
1, 0, Sequencer_specific, 16, 68, 87, 77, 90, 86, 82, 83, 78, 32, 55, 46, 48, 46, 56, 46, 48
1, 0, Time_signature, 3, 3, 24, 8
1, 0, Tempo, 1333333
1, 0, Key_signature, 1, "major"
1, 19584, End_track
2, 0, Start_track
2, 0, Program_c, 0, 0
2, 0, Control_c, 0, 7, 127
2, 0, Control_c, 0, 10, 64
2, 0, Note_on_c, 0, 71, 70
2, 63, Note_on_c, 0, 71, 0
2, 64, Note_on_c, 0, 79, 70
2, 79, Note_on_c, 0, 79, 0
2, 80, Note_on_c, 0, 78, 70
2, 95, Note_on_c, 0, 78, 0
2, 96, Note_on_c, 0, 76, 70
2, 111, Note_on_c, 0, 76, 0
2, 112, Note_on_c, 0, 75, 70
2, 127, Note_on_c, 0, 75, 0
2, 128, Note_on_c, 0, 78, 70
2, 143, Note_on_c, 0, 78, 0
2, 144, Note_on_c, 0, 78, 70
2, 159, Note_on_c, 0, 78, 0
2, 160, Note_on_c, 0, 76, 70
2, 175, Note_on_c, 0, 76, 0
2, 176, Note_on_c, 0, 71, 70
2, 191, Note_on_c, 0, 71, 0
2, 192, Note_on_c, 0, 83, 86
2, 255, Note_on_c, 0, 83, 0
2, 256, Note_on_c, 0, 79, 70
2, 271, Note_on_c, 0, 79, 0
2, 272, Note_on_c, 0, 76, 70
2, 287, Note_on_c, 0, 76, 0
2, 288, Note_on_c, 0, 74, 70
2, 303, Note_on_c, 0, 74, 0
2, 304, Note_on_c, 0, 72, 70
2, 319, Note_on_c, 0, 72, 0
2, 320, Note_on_c, 0, 76, 70
2, 335, Note_on_c, 0, 76, 0
2, 336, Note_on_c, 0, 72, 70
2, 351, Note_on_c, 0, 72, 0
2, 352, Note_on_c, 0, 71, 70
2, 367, Note_on_c, 0, 71, 0
2, 368, Note_on_c, 0, 76, 70
2, 383, Note_on_c, 0, 76, 0
2, 384, Note_on_c, 0, 71, 70
2, 399, Note_on_c, 0, 71, 0
2, 400, Note_on_c, 0, 69, 70
2, 415, Note_on_c, 0, 69, 0
2, 416, Note_on_c, 0, 78, 70
2, 431, Note_on_c, 0, 78, 0
2, 432, Note_on_c, 0, 78, 70
2, 466, Note_on_c, 0, 78, 0
2, 468, Note_on_c, 0, 76, 71
2, 480, Note_on_c, 0, 76, 0
2, 480, Note_on_c, 0, 75, 72
2, 525, Note_on_c, 0, 75, 0
2, 576, Note_on_c, 0, 59, 70
2, 639, Note_on_c, 0, 59, 0
2, 640, Note_on_c, 0, 67, 70
2, 655, Note_on_c, 0, 67, 0
2, 656, Note_on_c, 0, 66, 70
2, 671, Note_on_c, 0, 66, 0
2, 672, Note_on_c, 0, 64, 70
2, 687, Note_on_c, 0, 64, 0
2, 688, Note_on_c, 0, 63, 70
2, 703, Note_on_c, 0, 63, 0
2, 704, Note_on_c, 0, 66, 70
2, 719, Note_on_c, 0, 66, 0
2, 720, Note_on_c, 0, 66, 70
2, 735, Note_on_c, 0, 66, 0
2, 736, Note_on_c, 0, 64, 70
2, 751, Note_on_c, 0, 64, 0
2, 752, Note_on_c, 0, 59, 70
2, 767, Note_on_c, 0, 59, 0
2, 768, Note_on_c, 0, 71, 86
2, 831, Note_on_c, 0, 71, 0
2, 832, Note_on_c, 0, 67, 70
2, 847, Note_on_c, 0, 67, 0
2, 848, Note_on_c, 0, 64, 70
2, 863, Note_on_c, 0, 64, 0
2, 864, Note_on_c, 0, 62, 70
2, 879, Note_on_c, 0, 62, 0
2, 880, Note_on_c, 0, 60, 70
2, 895, Note_on_c, 0, 60, 0
2, 896, Note_on_c, 0, 64, 70
2, 911, Note_on_c, 0, 64, 0
2, 912, Note_on_c, 0, 60, 70
2, 927, Note_on_c, 0, 60, 0
2, 928, Note_on_c, 0, 72, 70
2, 943, Note_on_c, 0, 72, 0
2, 944, Note_on_c, 0, 69, 70
2, 959, Note_on_c, 0, 69, 0
2, 960, Note_on_c, 0, 66, 70
2, 975, Note_on_c, 0, 66, 0
2, 976, Note_on_c, 0, 60, 70
2, 991, Note_on_c, 0, 60, 0
2, 992, Note_on_c, 0, 69, 70
2, 1007, Note_on_c, 0, 69, 0
2, 1008, Note_on_c, 0, 62, 70
2, 1032, Note_on_c, 0, 62, 0
2, 1032, Note_on_c, 0, 60, 70
2, 1038, Note_on_c, 0, 60, 0
2, 1038, Note_on_c, 0, 62, 70
2, 1044, Note_on_c, 0, 62, 0
2, 1044, Note_on_c, 0, 60, 70
2, 1055, Note_on_c, 0, 60, 0
2, 1056, Note_on_c, 0, 59, 70
2, 1071, Note_on_c, 0, 59, 0
2, 1072, Note_on_c, 0, 67, 70
2, 1087, Note_on_c, 0, 67, 0
2, 1088, Note_on_c, 0, 62, 70
2, 1103, Note_on_c, 0, 62, 0
2, 1104, Note_on_c, 0, 71, 70
2, 1119, Note_on_c, 0, 71, 0
2, 1120, Note_on_c, 0, 67, 70
2, 1135, Note_on_c, 0, 67, 0
2, 1136, Note_on_c, 0, 74, 70
2, 1151, Note_on_c, 0, 74, 0
2, 1152, Note_on_c, 0, 74, 70
2, 1167, Note_on_c, 0, 74, 0
2, 1168, Note_on_c, 0, 64, 70
2, 1183, Note_on_c, 0, 64, 0
2, 1184, Note_on_c, 0, 72, 71
2, 1199, Note_on_c, 0, 72, 0
2, 1200, Note_on_c, 0, 72, 71
2, 1215, Note_on_c, 0, 72, 0
2, 1216, Note_on_c, 0, 69, 72
2, 1231, Note_on_c, 0, 69, 0
2, 1232, Note_on_c, 0, 76, 72
2, 1247, Note_on_c, 0, 76, 0
2, 1248, Note_on_c, 0, 76, 73
2, 1263, Note_on_c, 0, 76, 0
2, 1264, Note_on_c, 0, 64, 75
2, 1279, Note_on_c, 0, 64, 0
2, 1280, Note_on_c, 0, 69, 75
2, 1295, Note_on_c, 0, 69, 0
2, 1296, Note_on_c, 0, 67, 75
2, 1392, Note_on_c, 0, 67, 0
2, 1392, Note_on_c, 0, 66, 71
2, 1398, Note_on_c, 0, 66, 0
2, 1398, Note_on_c, 0, 67, 71
2, 1404, Note_on_c, 0, 67, 0
2, 1404, Note_on_c, 0, 66, 71
2, 1439, Note_on_c, 0, 66, 0
2, 1440, Note_on_c, 0, 74, 75
2, 1551, Note_on_c, 0, 74, 0
2, 1552, Note_on_c, 0, 81, 76
2, 1567, Note_on_c, 0, 81, 0
2, 1568, Note_on_c, 0, 78, 77
2, 1583, Note_on_c, 0, 78, 0
2, 1584, Note_on_c, 0, 79, 80
2, 1599, Note_on_c, 0, 79, 0
2, 1600, Note_on_c, 0, 74, 79
2, 1615, Note_on_c, 0, 74, 0
2, 1616, Note_on_c, 0, 83, 79
2, 1631, Note_on_c, 0, 83, 0
2, 1632, Note_on_c, 0, 79, 78
2, 1647, Note_on_c, 0, 79, 0
2, 1648, Note_on_c, 0, 86, 78
2, 1663, Note_on_c, 0, 86, 0
2, 1664, Note_on_c, 0, 83, 77
2, 1679, Note_on_c, 0, 83, 0
2, 1680, Note_on_c, 0, 79, 77
2, 1695, Note_on_c, 0, 79, 0
2, 1696, Note_on_c, 0, 74, 77
2, 1711, Note_on_c, 0, 74, 0
2, 1712, Note_on_c, 0, 71, 76
2, 1727, Note_on_c, 0, 71, 0
2, 1728, Note_on_c, 0, 74, 75
2, 1839, Note_on_c, 0, 74, 0
2, 1840, Note_on_c, 0, 81, 78
2, 1855, Note_on_c, 0, 81, 0
2, 1856, Note_on_c, 0, 78, 79
2, 1871, Note_on_c, 0, 78, 0
2, 1872, Note_on_c, 0, 79, 80
2, 1887, Note_on_c, 0, 79, 0
2, 1888, Note_on_c, 0, 74, 79
2, 1903, Note_on_c, 0, 74, 0
2, 1904, Note_on_c, 0, 83, 79
2, 1919, Note_on_c, 0, 83, 0
2, 1920, Note_on_c, 0, 79, 78
2, 1935, Note_on_c, 0, 79, 0
2, 1936, Note_on_c, 0, 86, 78
2, 1951, Note_on_c, 0, 86, 0
2, 1952, Note_on_c, 0, 83, 77
2, 1967, Note_on_c, 0, 83, 0
2, 1968, Note_on_c, 0, 79, 77
2, 1983, Note_on_c, 0, 79, 0
2, 1984, Note_on_c, 0, 74, 77
2, 1999, Note_on_c, 0, 74, 0
2, 2000, Note_on_c, 0, 71, 76
2, 2015, Note_on_c, 0, 71, 0
2, 2016, Note_on_c, 0, 74, 75
2, 2127, Note_on_c, 0, 74, 0
2, 2128, Note_on_c, 0, 74, 78
2, 2143, Note_on_c, 0, 74, 0
2, 2144, Note_on_c, 0, 71, 79
2, 2159, Note_on_c, 0, 71, 0
2, 2160, Note_on_c, 0, 76, 80
2, 2175, Note_on_c, 0, 76, 0
2, 2176, Note_on_c, 0, 72, 78
2, 2191, Note_on_c, 0, 72, 0
2, 2192, Note_on_c, 0, 78, 77
2, 2207, Note_on_c, 0, 78, 0
2, 2208, Note_on_c, 0, 79, 76
2, 2228, Note_on_c, 0, 79, 0
2, 2320, Note_on_c, 0, 71, 64
2, 2335, Note_on_c, 0, 71, 0
2, 2336, Note_on_c, 0, 72, 64
2, 2351, Note_on_c, 0, 72, 0
2, 2352, Note_on_c, 0, 79, 64
2, 2372, Note_on_c, 0, 79, 0
2, 2400, Note_on_c, 0, 78, 66
2, 2420, Note_on_c, 0, 78, 0
2, 2464, Note_on_c, 0, 68, 67
2, 2479, Note_on_c, 0, 68, 0
2, 2480, Note_on_c, 0, 69, 68
2, 2495, Note_on_c, 0, 69, 0
2, 2496, Note_on_c, 0, 76, 68
2, 2516, Note_on_c, 0, 76, 0
2, 2544, Note_on_c, 0, 74, 69
2, 2564, Note_on_c, 0, 74, 0
2, 2608, Note_on_c, 0, 66, 71
2, 2623, Note_on_c, 0, 66, 0
2, 2624, Note_on_c, 0, 69, 71
2, 2639, Note_on_c, 0, 69, 0
2, 2640, Note_on_c, 0, 72, 71
2, 2655, Note_on_c, 0, 72, 0
2, 2656, Note_on_c, 0, 62, 72
2, 2671, Note_on_c, 0, 62, 0
2, 2672, Note_on_c, 0, 63, 72
2, 2687, Note_on_c, 0, 63, 0
2, 2704, Note_on_c, 0, 62, 73
2, 2719, Note_on_c, 0, 62, 0
2, 2720, Note_on_c, 0, 63, 75
2, 2735, Note_on_c, 0, 63, 0
2, 2752, Note_on_c, 0, 66, 75
2, 2767, Note_on_c, 0, 66, 0
2, 2768, Note_on_c, 0, 69, 75
2, 2783, Note_on_c, 0, 69, 0
2, 2784, Note_on_c, 0, 72, 75
2, 2799, Note_on_c, 0, 72, 0
2, 2800, Note_on_c, 0, 62, 75
2, 2816, Note_on_c, 0, 62, 0
2, 2816, Note_on_c, 0, 63, 75
2, 2831, Note_on_c, 0, 63, 0
2, 2832, Note_on_c, 0, 62, 75
2, 2847, Note_on_c, 0, 62, 0
2, 2848, Note_on_c, 0, 76, 75
2, 2863, Note_on_c, 0, 76, 0
2, 2864, Note_on_c, 0, 74, 75
2, 2879, Note_on_c, 0, 74, 0
2, 2880, Note_on_c, 0, 71, 75
2, 2925, Note_on_c, 0, 71, 0
2, 2928, Note_on_c, 0, 69, 75
2, 2991, Note_on_c, 0, 69, 0
2, 2992, Note_on_c, 0, 71, 75
2, 3007, Note_on_c, 0, 71, 0
2, 3008, Note_on_c, 0, 72, 75
2, 3023, Note_on_c, 0, 72, 0
2, 3024, Note_on_c, 0, 74, 75
2, 3030, Note_on_c, 0, 74, 0
2, 3030, Note_on_c, 0, 72, 75
2, 3036, Note_on_c, 0, 72, 0
2, 3036, Note_on_c, 0, 71, 75
2, 3042, Note_on_c, 0, 71, 0
2, 3042, Note_on_c, 0, 72, 75
2, 3120, Note_on_c, 0, 72, 0
2, 3120, Note_on_c, 0, 71, 75
2, 3140, Note_on_c, 0, 71, 0
2, 3168, Note_on_c, 0, 71, 75
2, 3213, Note_on_c, 0, 71, 0
2, 3216, Note_on_c, 0, 69, 75
2, 3279, Note_on_c, 0, 69, 0
2, 3280, Note_on_c, 0, 71, 75
2, 3295, Note_on_c, 0, 71, 0
2, 3296, Note_on_c, 0, 72, 75
2, 3311, Note_on_c, 0, 72, 0
2, 3312, Note_on_c, 0, 72, 70
2, 3328, Note_on_c, 0, 72, 0
2, 3328, Note_on_c, 0, 71, 70
2, 3343, Note_on_c, 0, 71, 0
2, 3344, Note_on_c, 0, 76, 71
2, 3351, Note_on_c, 0, 76, 0
2, 3360, Note_on_c, 0, 76, 71
2, 3376, Note_on_c, 0, 76, 0
2, 3376, Note_on_c, 0, 74, 72
2, 3391, Note_on_c, 0, 74, 0
2, 3392, Note_on_c, 0, 72, 72
2, 3399, Note_on_c, 0, 72, 0
2, 3408, Note_on_c, 0, 72, 73
2, 3424, Note_on_c, 0, 72, 0
2, 3424, Note_on_c, 0, 71, 73
2, 3439, Note_on_c, 0, 71, 0
2, 3440, Note_on_c, 0, 76, 74
2, 3447, Note_on_c, 0, 76, 0
2, 3456, Note_on_c, 0, 76, 74
2, 3472, Note_on_c, 0, 76, 0
2, 3472, Note_on_c, 0, 74, 75
2, 3487, Note_on_c, 0, 74, 0
2, 3488, Note_on_c, 0, 72, 75
2, 3495, Note_on_c, 0, 72, 0
2, 3504, Note_on_c, 0, 72, 76
2, 3520, Note_on_c, 0, 72, 0
2, 3520, Note_on_c, 0, 71, 76
2, 3535, Note_on_c, 0, 71, 0
2, 3536, Note_on_c, 0, 76, 77
2, 3543, Note_on_c, 0, 76, 0
2, 3552, Note_on_c, 0, 76, 77
2, 3568, Note_on_c, 0, 76, 0
2, 3568, Note_on_c, 0, 74, 78
2, 3583, Note_on_c, 0, 74, 0
2, 3584, Note_on_c, 0, 78, 78
2, 3591, Note_on_c, 0, 78, 0
2, 3600, Note_on_c, 0, 78, 79
2, 3696, Note_on_c, 0, 78, 0
2, 3696, Note_on_c, 0, 79, 70
2, 3716, Note_on_c, 0, 79, 0
2, 3760, Note_on_c, 0, 57, 64
2, 3775, Note_on_c, 0, 57, 0
2, 3776, Note_on_c, 0, 60, 64
2, 3791, Note_on_c, 0, 60, 0
2, 3792, Note_on_c, 0, 64, 64
2, 3807, Note_on_c, 0, 64, 0
2, 3808, Note_on_c, 0, 60, 64
2, 3823, Note_on_c, 0, 60, 0
2, 3824, Note_on_c, 0, 72, 64
2, 3839, Note_on_c, 0, 72, 0
2, 3840, Note_on_c, 0, 72, 64
2, 3855, Note_on_c, 0, 72, 0
2, 3856, Note_on_c, 0, 69, 64
2, 3871, Note_on_c, 0, 69, 0
2, 3872, Note_on_c, 0, 66, 64
2, 3872, Note_on_c, 0, 60, 64
2, 3887, Note_on_c, 0, 66, 0
2, 3887, Note_on_c, 0, 60, 0
2, 3888, Note_on_c, 0, 66, 64
2, 3984, Note_on_c, 0, 66, 0
2, 3984, Note_on_c, 0, 67, 64
2, 4004, Note_on_c, 0, 67, 0
2, 4032, Note_on_c, 0, 71, 70
2, 4095, Note_on_c, 0, 71, 0
2, 4096, Note_on_c, 0, 79, 70
2, 4111, Note_on_c, 0, 79, 0
2, 4112, Note_on_c, 0, 78, 70
2, 4127, Note_on_c, 0, 78, 0
2, 4128, Note_on_c, 0, 76, 70
2, 4143, Note_on_c, 0, 76, 0
2, 4144, Note_on_c, 0, 75, 70
2, 4159, Note_on_c, 0, 75, 0
2, 4160, Note_on_c, 0, 78, 70
2, 4175, Note_on_c, 0, 78, 0
2, 4176, Note_on_c, 0, 78, 70
2, 4191, Note_on_c, 0, 78, 0
2, 4192, Note_on_c, 0, 76, 70
2, 4207, Note_on_c, 0, 76, 0
2, 4208, Note_on_c, 0, 71, 70
2, 4223, Note_on_c, 0, 71, 0
2, 4224, Note_on_c, 0, 83, 86
2, 4287, Note_on_c, 0, 83, 0
2, 4288, Note_on_c, 0, 79, 70
2, 4303, Note_on_c, 0, 79, 0
2, 4304, Note_on_c, 0, 76, 70
2, 4319, Note_on_c, 0, 76, 0
2, 4320, Note_on_c, 0, 74, 70
2, 4335, Note_on_c, 0, 74, 0
2, 4336, Note_on_c, 0, 72, 70
2, 4351, Note_on_c, 0, 72, 0
2, 4352, Note_on_c, 0, 76, 70
2, 4367, Note_on_c, 0, 76, 0
2, 4368, Note_on_c, 0, 72, 70
2, 4383, Note_on_c, 0, 72, 0
2, 4384, Note_on_c, 0, 71, 70
2, 4399, Note_on_c, 0, 71, 0
2, 4400, Note_on_c, 0, 76, 70
2, 4415, Note_on_c, 0, 76, 0
2, 4416, Note_on_c, 0, 71, 70
2, 4431, Note_on_c, 0, 71, 0
2, 4432, Note_on_c, 0, 69, 70
2, 4447, Note_on_c, 0, 69, 0
2, 4448, Note_on_c, 0, 78, 70
2, 4463, Note_on_c, 0, 78, 0
2, 4464, Note_on_c, 0, 78, 70
2, 4498, Note_on_c, 0, 78, 0
2, 4500, Note_on_c, 0, 76, 71
2, 4512, Note_on_c, 0, 76, 0
2, 4512, Note_on_c, 0, 75, 72
2, 4557, Note_on_c, 0, 75, 0
2, 4608, Note_on_c, 0, 59, 70
2, 4671, Note_on_c, 0, 59, 0
2, 4672, Note_on_c, 0, 67, 70
2, 4687, Note_on_c, 0, 67, 0
2, 4688, Note_on_c, 0, 66, 70
2, 4703, Note_on_c, 0, 66, 0
2, 4704, Note_on_c, 0, 64, 70
2, 4719, Note_on_c, 0, 64, 0
2, 4720, Note_on_c, 0, 63, 70
2, 4735, Note_on_c, 0, 63, 0
2, 4736, Note_on_c, 0, 66, 70
2, 4751, Note_on_c, 0, 66, 0
2, 4752, Note_on_c, 0, 66, 70
2, 4767, Note_on_c, 0, 66, 0
2, 4768, Note_on_c, 0, 64, 70
2, 4783, Note_on_c, 0, 64, 0
2, 4784, Note_on_c, 0, 59, 70
2, 4799, Note_on_c, 0, 59, 0
2, 4800, Note_on_c, 0, 71, 86
2, 4863, Note_on_c, 0, 71, 0
2, 4864, Note_on_c, 0, 67, 70
2, 4879, Note_on_c, 0, 67, 0
2, 4880, Note_on_c, 0, 64, 70
2, 4895, Note_on_c, 0, 64, 0
2, 4896, Note_on_c, 0, 62, 70
2, 4911, Note_on_c, 0, 62, 0
2, 4912, Note_on_c, 0, 60, 70
2, 4927, Note_on_c, 0, 60, 0
2, 4928, Note_on_c, 0, 64, 70
2, 4943, Note_on_c, 0, 64, 0
2, 4944, Note_on_c, 0, 60, 70
2, 4959, Note_on_c, 0, 60, 0
2, 4960, Note_on_c, 0, 72, 70
2, 4975, Note_on_c, 0, 72, 0
2, 4976, Note_on_c, 0, 69, 70
2, 4991, Note_on_c, 0, 69, 0
2, 4992, Note_on_c, 0, 66, 70
2, 5007, Note_on_c, 0, 66, 0
2, 5008, Note_on_c, 0, 60, 70
2, 5023, Note_on_c, 0, 60, 0
2, 5024, Note_on_c, 0, 69, 70
2, 5039, Note_on_c, 0, 69, 0
2, 5040, Note_on_c, 0, 62, 70
2, 5064, Note_on_c, 0, 62, 0
2, 5064, Note_on_c, 0, 60, 70
2, 5070, Note_on_c, 0, 60, 0
2, 5070, Note_on_c, 0, 62, 70
2, 5076, Note_on_c, 0, 62, 0
2, 5076, Note_on_c, 0, 60, 70
2, 5087, Note_on_c, 0, 60, 0
2, 5088, Note_on_c, 0, 59, 70
2, 5103, Note_on_c, 0, 59, 0
2, 5104, Note_on_c, 0, 67, 70
2, 5119, Note_on_c, 0, 67, 0
2, 5120, Note_on_c, 0, 62, 70
2, 5135, Note_on_c, 0, 62, 0
2, 5136, Note_on_c, 0, 71, 70
2, 5151, Note_on_c, 0, 71, 0
2, 5152, Note_on_c, 0, 67, 70
2, 5167, Note_on_c, 0, 67, 0
2, 5168, Note_on_c, 0, 74, 70
2, 5183, Note_on_c, 0, 74, 0
2, 5184, Note_on_c, 0, 74, 70
2, 5199, Note_on_c, 0, 74, 0
2, 5200, Note_on_c, 0, 64, 70
2, 5215, Note_on_c, 0, 64, 0
2, 5216, Note_on_c, 0, 72, 71
2, 5231, Note_on_c, 0, 72, 0
2, 5232, Note_on_c, 0, 72, 71
2, 5247, Note_on_c, 0, 72, 0
2, 5248, Note_on_c, 0, 69, 72
2, 5263, Note_on_c, 0, 69, 0
2, 5264, Note_on_c, 0, 76, 72
2, 5279, Note_on_c, 0, 76, 0
2, 5280, Note_on_c, 0, 76, 73
2, 5295, Note_on_c, 0, 76, 0
2, 5296, Note_on_c, 0, 64, 75
2, 5311, Note_on_c, 0, 64, 0
2, 5312, Note_on_c, 0, 69, 75
2, 5327, Note_on_c, 0, 69, 0
2, 5328, Note_on_c, 0, 67, 75
2, 5424, Note_on_c, 0, 67, 0
2, 5424, Note_on_c, 0, 66, 71
2, 5430, Note_on_c, 0, 66, 0
2, 5430, Note_on_c, 0, 67, 71
2, 5436, Note_on_c, 0, 67, 0
2, 5436, Note_on_c, 0, 66, 71
2, 5471, Note_on_c, 0, 66, 0
2, 5472, Note_on_c, 0, 74, 75
2, 5583, Note_on_c, 0, 74, 0
2, 5584, Note_on_c, 0, 81, 76
2, 5599, Note_on_c, 0, 81, 0
2, 5600, Note_on_c, 0, 78, 77
2, 5615, Note_on_c, 0, 78, 0
2, 5616, Note_on_c, 0, 79, 80
2, 5631, Note_on_c, 0, 79, 0
2, 5632, Note_on_c, 0, 74, 79
2, 5647, Note_on_c, 0, 74, 0
2, 5648, Note_on_c, 0, 83, 79
2, 5663, Note_on_c, 0, 83, 0
2, 5664, Note_on_c, 0, 79, 78
2, 5679, Note_on_c, 0, 79, 0
2, 5680, Note_on_c, 0, 86, 78
2, 5695, Note_on_c, 0, 86, 0
2, 5696, Note_on_c, 0, 83, 77
2, 5711, Note_on_c, 0, 83, 0
2, 5712, Note_on_c, 0, 79, 77
2, 5727, Note_on_c, 0, 79, 0
2, 5728, Note_on_c, 0, 74, 77
2, 5743, Note_on_c, 0, 74, 0
2, 5744, Note_on_c, 0, 71, 76
2, 5759, Note_on_c, 0, 71, 0
2, 5760, Note_on_c, 0, 74, 75
2, 5871, Note_on_c, 0, 74, 0
2, 5872, Note_on_c, 0, 81, 78
2, 5887, Note_on_c, 0, 81, 0
2, 5888, Note_on_c, 0, 78, 79
2, 5903, Note_on_c, 0, 78, 0
2, 5904, Note_on_c, 0, 79, 80
2, 5919, Note_on_c, 0, 79, 0
2, 5920, Note_on_c, 0, 74, 79
2, 5935, Note_on_c, 0, 74, 0
2, 5936, Note_on_c, 0, 83, 79
2, 5951, Note_on_c, 0, 83, 0
2, 5952, Note_on_c, 0, 79, 78
2, 5967, Note_on_c, 0, 79, 0
2, 5968, Note_on_c, 0, 86, 78
2, 5983, Note_on_c, 0, 86, 0
2, 5984, Note_on_c, 0, 83, 77
2, 5999, Note_on_c, 0, 83, 0
2, 6000, Note_on_c, 0, 79, 77
2, 6015, Note_on_c, 0, 79, 0
2, 6016, Note_on_c, 0, 74, 77
2, 6031, Note_on_c, 0, 74, 0
2, 6032, Note_on_c, 0, 71, 76
2, 6047, Note_on_c, 0, 71, 0
2, 6048, Note_on_c, 0, 74, 75
2, 6159, Note_on_c, 0, 74, 0
2, 6160, Note_on_c, 0, 74, 78
2, 6175, Note_on_c, 0, 74, 0
2, 6176, Note_on_c, 0, 71, 79
2, 6191, Note_on_c, 0, 71, 0
2, 6192, Note_on_c, 0, 76, 80
2, 6207, Note_on_c, 0, 76, 0
2, 6208, Note_on_c, 0, 72, 78
2, 6223, Note_on_c, 0, 72, 0
2, 6224, Note_on_c, 0, 78, 77
2, 6239, Note_on_c, 0, 78, 0
2, 6240, Note_on_c, 0, 79, 76
2, 6260, Note_on_c, 0, 79, 0
2, 6352, Note_on_c, 0, 71, 64
2, 6367, Note_on_c, 0, 71, 0
2, 6368, Note_on_c, 0, 72, 64
2, 6383, Note_on_c, 0, 72, 0
2, 6384, Note_on_c, 0, 79, 64
2, 6404, Note_on_c, 0, 79, 0
2, 6432, Note_on_c, 0, 78, 66
2, 6452, Note_on_c, 0, 78, 0
2, 6496, Note_on_c, 0, 68, 67
2, 6511, Note_on_c, 0, 68, 0
2, 6512, Note_on_c, 0, 69, 68
2, 6527, Note_on_c, 0, 69, 0
2, 6528, Note_on_c, 0, 76, 68
2, 6548, Note_on_c, 0, 76, 0
2, 6576, Note_on_c, 0, 74, 69
2, 6596, Note_on_c, 0, 74, 0
2, 6640, Note_on_c, 0, 66, 71
2, 6655, Note_on_c, 0, 66, 0
2, 6656, Note_on_c, 0, 69, 71
2, 6671, Note_on_c, 0, 69, 0
2, 6672, Note_on_c, 0, 72, 71
2, 6687, Note_on_c, 0, 72, 0
2, 6688, Note_on_c, 0, 62, 72
2, 6703, Note_on_c, 0, 62, 0
2, 6704, Note_on_c, 0, 63, 72
2, 6719, Note_on_c, 0, 63, 0
2, 6736, Note_on_c, 0, 62, 73
2, 6751, Note_on_c, 0, 62, 0
2, 6752, Note_on_c, 0, 63, 75
2, 6767, Note_on_c, 0, 63, 0
2, 6784, Note_on_c, 0, 66, 75
2, 6799, Note_on_c, 0, 66, 0
2, 6800, Note_on_c, 0, 69, 75
2, 6815, Note_on_c, 0, 69, 0
2, 6816, Note_on_c, 0, 72, 75
2, 6831, Note_on_c, 0, 72, 0
2, 6832, Note_on_c, 0, 62, 75
2, 6848, Note_on_c, 0, 62, 0
2, 6848, Note_on_c, 0, 63, 75
2, 6863, Note_on_c, 0, 63, 0
2, 6864, Note_on_c, 0, 62, 75
2, 6879, Note_on_c, 0, 62, 0
2, 6880, Note_on_c, 0, 76, 75
2, 6895, Note_on_c, 0, 76, 0
2, 6896, Note_on_c, 0, 74, 75
2, 6911, Note_on_c, 0, 74, 0
2, 6912, Note_on_c, 0, 71, 75
2, 6957, Note_on_c, 0, 71, 0
2, 6960, Note_on_c, 0, 69, 75
2, 7023, Note_on_c, 0, 69, 0
2, 7024, Note_on_c, 0, 71, 75
2, 7039, Note_on_c, 0, 71, 0
2, 7040, Note_on_c, 0, 72, 75
2, 7055, Note_on_c, 0, 72, 0
2, 7056, Note_on_c, 0, 74, 75
2, 7062, Note_on_c, 0, 74, 0
2, 7062, Note_on_c, 0, 72, 75
2, 7068, Note_on_c, 0, 72, 0
2, 7068, Note_on_c, 0, 71, 75
2, 7074, Note_on_c, 0, 71, 0
2, 7074, Note_on_c, 0, 72, 75
2, 7152, Note_on_c, 0, 72, 0
2, 7152, Note_on_c, 0, 71, 75
2, 7172, Note_on_c, 0, 71, 0
2, 7200, Note_on_c, 0, 71, 75
2, 7245, Note_on_c, 0, 71, 0
2, 7248, Note_on_c, 0, 69, 75
2, 7311, Note_on_c, 0, 69, 0
2, 7312, Note_on_c, 0, 71, 75
2, 7327, Note_on_c, 0, 71, 0
2, 7328, Note_on_c, 0, 72, 75
2, 7343, Note_on_c, 0, 72, 0
2, 7344, Note_on_c, 0, 72, 70
2, 7360, Note_on_c, 0, 72, 0
2, 7360, Note_on_c, 0, 71, 70
2, 7375, Note_on_c, 0, 71, 0
2, 7376, Note_on_c, 0, 76, 71
2, 7383, Note_on_c, 0, 76, 0
2, 7392, Note_on_c, 0, 76, 71
2, 7408, Note_on_c, 0, 76, 0
2, 7408, Note_on_c, 0, 74, 72
2, 7423, Note_on_c, 0, 74, 0
2, 7424, Note_on_c, 0, 72, 72
2, 7431, Note_on_c, 0, 72, 0
2, 7440, Note_on_c, 0, 72, 73
2, 7456, Note_on_c, 0, 72, 0
2, 7456, Note_on_c, 0, 71, 73
2, 7471, Note_on_c, 0, 71, 0
2, 7472, Note_on_c, 0, 76, 74
2, 7479, Note_on_c, 0, 76, 0
2, 7488, Note_on_c, 0, 76, 74
2, 7504, Note_on_c, 0, 76, 0
2, 7504, Note_on_c, 0, 74, 75
2, 7519, Note_on_c, 0, 74, 0
2, 7520, Note_on_c, 0, 72, 75
2, 7527, Note_on_c, 0, 72, 0
2, 7536, Note_on_c, 0, 72, 76
2, 7552, Note_on_c, 0, 72, 0
2, 7552, Note_on_c, 0, 71, 76
2, 7567, Note_on_c, 0, 71, 0
2, 7568, Note_on_c, 0, 76, 77
2, 7575, Note_on_c, 0, 76, 0
2, 7584, Note_on_c, 0, 76, 77
2, 7600, Note_on_c, 0, 76, 0
2, 7600, Note_on_c, 0, 74, 78
2, 7615, Note_on_c, 0, 74, 0
2, 7616, Note_on_c, 0, 78, 78
2, 7623, Note_on_c, 0, 78, 0
2, 7632, Note_on_c, 0, 78, 79
2, 7728, Note_on_c, 0, 78, 0
2, 7728, Note_on_c, 0, 79, 70
2, 7748, Note_on_c, 0, 79, 0
2, 7792, Note_on_c, 0, 57, 64
2, 7807, Note_on_c, 0, 57, 0
2, 7808, Note_on_c, 0, 60, 64
2, 7823, Note_on_c, 0, 60, 0
2, 7824, Note_on_c, 0, 64, 64
2, 7839, Note_on_c, 0, 64, 0
2, 7840, Note_on_c, 0, 60, 64
2, 7855, Note_on_c, 0, 60, 0
2, 7856, Note_on_c, 0, 72, 64
2, 7871, Note_on_c, 0, 72, 0
2, 7872, Note_on_c, 0, 72, 64
2, 7887, Note_on_c, 0, 72, 0
2, 7888, Note_on_c, 0, 69, 64
2, 7903, Note_on_c, 0, 69, 0
2, 7904, Note_on_c, 0, 66, 64
2, 7904, Note_on_c, 0, 60, 64
2, 7919, Note_on_c, 0, 66, 0
2, 7919, Note_on_c, 0, 60, 0
2, 7920, Note_on_c, 0, 66, 64
2, 8016, Note_on_c, 0, 66, 0
2, 8016, Note_on_c, 0, 67, 64
2, 8036, Note_on_c, 0, 67, 0
2, 8064, Note_on_c, 0, 74, 75
2, 8127, Note_on_c, 0, 74, 0
2, 8128, Note_on_c, 0, 83, 75
2, 8143, Note_on_c, 0, 83, 0
2, 8144, Note_on_c, 0, 81, 75
2, 8159, Note_on_c, 0, 81, 0
2, 8160, Note_on_c, 0, 79, 75
2, 8175, Note_on_c, 0, 79, 0
2, 8176, Note_on_c, 0, 78, 75
2, 8191, Note_on_c, 0, 78, 0
2, 8192, Note_on_c, 0, 81, 75
2, 8207, Note_on_c, 0, 81, 0
2, 8208, Note_on_c, 0, 81, 75
2, 8223, Note_on_c, 0, 81, 0
2, 8224, Note_on_c, 0, 79, 75
2, 8239, Note_on_c, 0, 79, 0
2, 8240, Note_on_c, 0, 74, 75
2, 8255, Note_on_c, 0, 74, 0
2, 8256, Note_on_c, 0, 86, 91
2, 8319, Note_on_c, 0, 86, 0
2, 8320, Note_on_c, 0, 83, 75
2, 8335, Note_on_c, 0, 83, 0
2, 8336, Note_on_c, 0, 79, 75
2, 8351, Note_on_c, 0, 79, 0
2, 8352, Note_on_c, 0, 78, 75
2, 8367, Note_on_c, 0, 78, 0
2, 8368, Note_on_c, 0, 76, 75
2, 8383, Note_on_c, 0, 76, 0
2, 8384, Note_on_c, 0, 79, 75
2, 8399, Note_on_c, 0, 79, 0
2, 8400, Note_on_c, 0, 76, 76
2, 8415, Note_on_c, 0, 76, 0
2, 8416, Note_on_c, 0, 74, 76
2, 8431, Note_on_c, 0, 74, 0
2, 8432, Note_on_c, 0, 79, 77
2, 8447, Note_on_c, 0, 79, 0
2, 8448, Note_on_c, 0, 74, 77
2, 8463, Note_on_c, 0, 74, 0
2, 8464, Note_on_c, 0, 72, 77
2, 8479, Note_on_c, 0, 72, 0
2, 8480, Note_on_c, 0, 81, 78
2, 8495, Note_on_c, 0, 81, 0
2, 8496, Note_on_c, 0, 81, 80
2, 8530, Note_on_c, 0, 81, 0
2, 8532, Note_on_c, 0, 79, 78
2, 8544, Note_on_c, 0, 79, 0
2, 8544, Note_on_c, 0, 78, 77
2, 8589, Note_on_c, 0, 78, 0
2, 8640, Note_on_c, 0, 62, 75
2, 8703, Note_on_c, 0, 62, 0
2, 8704, Note_on_c, 0, 71, 75
2, 8719, Note_on_c, 0, 71, 0
2, 8720, Note_on_c, 0, 69, 75
2, 8735, Note_on_c, 0, 69, 0
2, 8736, Note_on_c, 0, 67, 75
2, 8751, Note_on_c, 0, 67, 0
2, 8752, Note_on_c, 0, 66, 75
2, 8767, Note_on_c, 0, 66, 0
2, 8768, Note_on_c, 0, 69, 75
2, 8783, Note_on_c, 0, 69, 0
2, 8784, Note_on_c, 0, 69, 75
2, 8799, Note_on_c, 0, 69, 0
2, 8800, Note_on_c, 0, 67, 75
2, 8815, Note_on_c, 0, 67, 0
2, 8816, Note_on_c, 0, 62, 75
2, 8831, Note_on_c, 0, 62, 0
2, 8832, Note_on_c, 0, 74, 91
2, 8895, Note_on_c, 0, 74, 0
2, 8896, Note_on_c, 0, 71, 75
2, 8911, Note_on_c, 0, 71, 0
2, 8912, Note_on_c, 0, 67, 75
2, 8927, Note_on_c, 0, 67, 0
2, 8928, Note_on_c, 0, 69, 75
2, 8943, Note_on_c, 0, 69, 0
2, 8944, Note_on_c, 0, 68, 75
2, 8959, Note_on_c, 0, 68, 0
2, 8960, Note_on_c, 0, 62, 75
2, 8975, Note_on_c, 0, 62, 0
2, 8976, Note_on_c, 0, 77, 91
2, 9039, Note_on_c, 0, 77, 0
2, 9040, Note_on_c, 0, 74, 75
2, 9055, Note_on_c, 0, 74, 0
2, 9056, Note_on_c, 0, 71, 75
2, 9071, Note_on_c, 0, 71, 0
2, 9072, Note_on_c, 0, 74, 75
2, 9087, Note_on_c, 0, 74, 0
2, 9088, Note_on_c, 0, 72, 75
2, 9103, Note_on_c, 0, 72, 0
2, 9104, Note_on_c, 0, 69, 75
2, 9119, Note_on_c, 0, 69, 0
2, 9120, Note_on_c, 0, 68, 75
2, 9140, Note_on_c, 0, 68, 0
2, 9216, Note_on_c, 0, 76, 75
2, 9327, Note_on_c, 0, 76, 0
2, 9328, Note_on_c, 0, 83, 75
2, 9343, Note_on_c, 0, 83, 0
2, 9344, Note_on_c, 0, 80, 75
2, 9359, Note_on_c, 0, 80, 0
2, 9360, Note_on_c, 0, 81, 75
2, 9471, Note_on_c, 0, 81, 0
2, 9472, Note_on_c, 0, 76, 75
2, 9487, Note_on_c, 0, 76, 0
2, 9488, Note_on_c, 0, 73, 75
2, 9503, Note_on_c, 0, 73, 0
2, 9504, Note_on_c, 0, 74, 75
2, 9615, Note_on_c, 0, 74, 0
2, 9616, Note_on_c, 0, 81, 75
2, 9631, Note_on_c, 0, 81, 0
2, 9632, Note_on_c, 0, 78, 75
2, 9647, Note_on_c, 0, 78, 0
2, 9648, Note_on_c, 0, 79, 75
2, 9759, Note_on_c, 0, 79, 0
2, 9760, Note_on_c, 0, 86, 75
2, 9775, Note_on_c, 0, 86, 0
2, 9776, Note_on_c, 0, 77, 75
2, 9791, Note_on_c, 0, 77, 0
2, 9808, Note_on_c, 0, 75, 75
2, 9823, Note_on_c, 0, 75, 0
2, 9824, Note_on_c, 0, 76, 75
2, 9839, Note_on_c, 0, 76, 0
2, 9840, Note_on_c, 0, 84, 75
2, 9855, Note_on_c, 0, 84, 0
2, 9856, Note_on_c, 0, 79, 75
2, 9871, Note_on_c, 0, 79, 0
2, 9872, Note_on_c, 0, 76, 75
2, 9887, Note_on_c, 0, 76, 0
2, 9904, Note_on_c, 0, 83, 75
2, 9919, Note_on_c, 0, 83, 0
2, 9920, Note_on_c, 0, 74, 75
2, 9935, Note_on_c, 0, 74, 0
2, 9952, Note_on_c, 0, 71, 75
2, 9967, Note_on_c, 0, 71, 0
2, 9968, Note_on_c, 0, 72, 75
2, 9983, Note_on_c, 0, 72, 0
2, 9984, Note_on_c, 0, 81, 75
2, 9999, Note_on_c, 0, 81, 0
2, 10000, Note_on_c, 0, 76, 75
2, 10015, Note_on_c, 0, 76, 0
2, 10016, Note_on_c, 0, 72, 75
2, 10031, Note_on_c, 0, 72, 0
2, 10048, Note_on_c, 0, 79, 75
2, 10063, Note_on_c, 0, 79, 0
2, 10064, Note_on_c, 0, 71, 75
2, 10079, Note_on_c, 0, 71, 0
2, 10096, Note_on_c, 0, 68, 75
2, 10111, Note_on_c, 0, 68, 0
2, 10112, Note_on_c, 0, 69, 75
2, 10127, Note_on_c, 0, 69, 0
2, 10128, Note_on_c, 0, 78, 75
2, 10143, Note_on_c, 0, 78, 0
2, 10144, Note_on_c, 0, 75, 75
2, 10159, Note_on_c, 0, 75, 0
2, 10160, Note_on_c, 0, 69, 75
2, 10175, Note_on_c, 0, 69, 0
2, 10192, Note_on_c, 0, 67, 75
2, 10207, Note_on_c, 0, 67, 0
2, 10208, Note_on_c, 0, 76, 75
2, 10223, Note_on_c, 0, 76, 0
2, 10240, Note_on_c, 0, 67, 75
2, 10255, Note_on_c, 0, 67, 0
2, 10256, Note_on_c, 0, 70, 75
2, 10271, Note_on_c, 0, 70, 0
2, 10272, Note_on_c, 0, 76, 75
2, 10287, Note_on_c, 0, 76, 0
2, 10288, Note_on_c, 0, 70, 75
2, 10303, Note_on_c, 0, 70, 0
2, 10304, Note_on_c, 0, 79, 75
2, 10319, Note_on_c, 0, 79, 0
2, 10336, Note_on_c, 0, 76, 75
2, 10351, Note_on_c, 0, 76, 0
2, 10352, Note_on_c, 0, 67, 75
2, 10367, Note_on_c, 0, 67, 0
2, 10384, Note_on_c, 0, 66, 75
2, 10399, Note_on_c, 0, 66, 0
2, 10400, Note_on_c, 0, 75, 75
2, 10415, Note_on_c, 0, 75, 0
2, 10512, Note_on_c, 0, 71, 75
2, 10575, Note_on_c, 0, 71, 0
2, 10576, Note_on_c, 0, 79, 75
2, 10591, Note_on_c, 0, 79, 0
2, 10592, Note_on_c, 0, 78, 75
2, 10607, Note_on_c, 0, 78, 0
2, 10608, Note_on_c, 0, 76, 75
2, 10623, Note_on_c, 0, 76, 0
2, 10624, Note_on_c, 0, 75, 75
2, 10639, Note_on_c, 0, 75, 0
2, 10640, Note_on_c, 0, 78, 75
2, 10655, Note_on_c, 0, 78, 0
2, 10656, Note_on_c, 0, 78, 75
2, 10671, Note_on_c, 0, 78, 0
2, 10672, Note_on_c, 0, 76, 75
2, 10687, Note_on_c, 0, 76, 0
2, 10688, Note_on_c, 0, 71, 75
2, 10703, Note_on_c, 0, 71, 0
2, 10704, Note_on_c, 0, 83, 91
2, 10767, Note_on_c, 0, 83, 0
2, 10768, Note_on_c, 0, 79, 75
2, 10783, Note_on_c, 0, 79, 0
2, 10784, Note_on_c, 0, 76, 75
2, 10799, Note_on_c, 0, 76, 0
2, 10800, Note_on_c, 0, 74, 75
2, 10815, Note_on_c, 0, 74, 0
2, 10816, Note_on_c, 0, 72, 75
2, 10831, Note_on_c, 0, 72, 0
2, 10832, Note_on_c, 0, 76, 75
2, 10847, Note_on_c, 0, 76, 0
2, 10848, Note_on_c, 0, 72, 76
2, 10863, Note_on_c, 0, 72, 0
2, 10864, Note_on_c, 0, 71, 76
2, 10879, Note_on_c, 0, 71, 0
2, 10880, Note_on_c, 0, 76, 77
2, 10895, Note_on_c, 0, 76, 0
2, 10896, Note_on_c, 0, 71, 77
2, 10911, Note_on_c, 0, 71, 0
2, 10912, Note_on_c, 0, 69, 77
2, 10927, Note_on_c, 0, 69, 0
2, 10928, Note_on_c, 0, 78, 78
2, 10943, Note_on_c, 0, 78, 0
2, 10944, Note_on_c, 0, 78, 80
2, 10978, Note_on_c, 0, 78, 0
2, 10980, Note_on_c, 0, 76, 78
2, 10992, Note_on_c, 0, 76, 0
2, 10992, Note_on_c, 0, 75, 77
2, 11037, Note_on_c, 0, 75, 0
2, 11088, Note_on_c, 0, 71, 75
2, 11199, Note_on_c, 0, 71, 0
2, 11200, Note_on_c, 0, 78, 78
2, 11215, Note_on_c, 0, 78, 0
2, 11216, Note_on_c, 0, 75, 79
2, 11231, Note_on_c, 0, 75, 0
2, 11232, Note_on_c, 0, 76, 79
2, 11247, Note_on_c, 0, 76, 0
2, 11248, Note_on_c, 0, 71, 80
2, 11263, Note_on_c, 0, 71, 0
2, 11264, Note_on_c, 0, 79, 79
2, 11279, Note_on_c, 0, 79, 0
2, 11280, Note_on_c, 0, 76, 79
2, 11295, Note_on_c, 0, 76, 0
2, 11296, Note_on_c, 0, 83, 78
2, 11311, Note_on_c, 0, 83, 0
2, 11312, Note_on_c, 0, 79, 78
2, 11327, Note_on_c, 0, 79, 0
2, 11328, Note_on_c, 0, 76, 77
2, 11343, Note_on_c, 0, 76, 0
2, 11344, Note_on_c, 0, 71, 77
2, 11359, Note_on_c, 0, 71, 0
2, 11360, Note_on_c, 0, 67, 77
2, 11375, Note_on_c, 0, 67, 0
2, 11376, Note_on_c, 0, 71, 75
2, 11487, Note_on_c, 0, 71, 0
2, 11488, Note_on_c, 0, 78, 78
2, 11503, Note_on_c, 0, 78, 0
2, 11504, Note_on_c, 0, 75, 79
2, 11519, Note_on_c, 0, 75, 0
2, 11520, Note_on_c, 0, 76, 79
2, 11535, Note_on_c, 0, 76, 0
2, 11536, Note_on_c, 0, 71, 80
2, 11551, Note_on_c, 0, 71, 0
2, 11552, Note_on_c, 0, 79, 79
2, 11567, Note_on_c, 0, 79, 0
2, 11568, Note_on_c, 0, 76, 79
2, 11583, Note_on_c, 0, 76, 0
2, 11584, Note_on_c, 0, 83, 78
2, 11599, Note_on_c, 0, 83, 0
2, 11600, Note_on_c, 0, 79, 78
2, 11615, Note_on_c, 0, 79, 0
2, 11616, Note_on_c, 0, 76, 77
2, 11631, Note_on_c, 0, 76, 0
2, 11632, Note_on_c, 0, 71, 77
2, 11647, Note_on_c, 0, 71, 0
2, 11648, Note_on_c, 0, 67, 77
2, 11663, Note_on_c, 0, 67, 0
2, 11664, Note_on_c, 0, 71, 75
2, 11775, Note_on_c, 0, 71, 0
2, 11776, Note_on_c, 0, 71, 76
2, 11791, Note_on_c, 0, 71, 0
2, 11792, Note_on_c, 0, 67, 77
2, 11807, Note_on_c, 0, 67, 0
2, 11824, Note_on_c, 0, 84, 80
2, 11839, Note_on_c, 0, 84, 0
2, 11840, Note_on_c, 0, 78, 80
2, 11855, Note_on_c, 0, 78, 0
2, 11856, Note_on_c, 0, 75, 80
2, 11876, Note_on_c, 0, 75, 0
2, 11904, Note_on_c, 0, 76, 80
2, 11924, Note_on_c, 0, 76, 0
2, 11968, Note_on_c, 0, 68, 80
2, 11984, Note_on_c, 0, 68, 0
2, 11984, Note_on_c, 0, 69, 80
2, 11999, Note_on_c, 0, 69, 0
2, 12000, Note_on_c, 0, 81, 80
2, 12000, Note_on_c, 0, 75, 80
2, 12048, Note_on_c, 0, 81, 0
2, 12048, Note_on_c, 0, 75, 0
2, 12048, Note_on_c, 0, 79, 80
2, 12048, Note_on_c, 0, 76, 80
2, 12093, Note_on_c, 0, 79, 0
2, 12093, Note_on_c, 0, 76, 0
2, 12112, Note_on_c, 0, 64, 79
2, 12127, Note_on_c, 0, 64, 0
2, 12128, Note_on_c, 0, 65, 79
2, 12143, Note_on_c, 0, 65, 0
2, 12144, Note_on_c, 0, 72, 78
2, 12159, Note_on_c, 0, 72, 0
2, 12160, Note_on_c, 0, 64, 78
2, 12175, Note_on_c, 0, 64, 0
2, 12176, Note_on_c, 0, 65, 77
2, 12191, Note_on_c, 0, 65, 0
2, 12208, Note_on_c, 0, 63, 76
2, 12223, Note_on_c, 0, 63, 0
2, 12224, Note_on_c, 0, 64, 76
2, 12239, Note_on_c, 0, 64, 0
2, 12256, Note_on_c, 0, 63, 75
2, 12271, Note_on_c, 0, 63, 0
2, 12272, Note_on_c, 0, 66, 74
2, 12287, Note_on_c, 0, 66, 0
2, 12288, Note_on_c, 0, 69, 74
2, 12303, Note_on_c, 0, 69, 0
2, 12304, Note_on_c, 0, 59, 73
2, 12319, Note_on_c, 0, 59, 0
2, 12320, Note_on_c, 0, 60, 73
2, 12335, Note_on_c, 0, 60, 0
2, 12352, Note_on_c, 0, 59, 70
2, 12367, Note_on_c, 0, 59, 0
2, 12368, Note_on_c, 0, 69, 70
2, 12383, Note_on_c, 0, 69, 0
2, 12384, Note_on_c, 0, 67, 75
2, 12429, Note_on_c, 0, 67, 0
2, 12432, Note_on_c, 0, 66, 71
2, 12495, Note_on_c, 0, 66, 0
2, 12496, Note_on_c, 0, 67, 66
2, 12511, Note_on_c, 0, 67, 0
2, 12512, Note_on_c, 0, 69, 65
2, 12527, Note_on_c, 0, 69, 0
2, 12528, Note_on_c, 0, 69, 64
2, 12624, Note_on_c, 0, 69, 0
2, 12624, Note_on_c, 0, 67, 64
2, 12644, Note_on_c, 0, 67, 0
2, 12672, Note_on_c, 0, 79, 64
2, 12672, Note_on_c, 0, 76, 64
2, 12717, Note_on_c, 0, 79, 0
2, 12717, Note_on_c, 0, 76, 0
2, 12720, Note_on_c, 0, 78, 65
2, 12720, Note_on_c, 0, 76, 65
2, 12765, Note_on_c, 0, 78, 0
2, 12765, Note_on_c, 0, 76, 0
2, 12768, Note_on_c, 0, 78, 67
2, 12768, Note_on_c, 0, 74, 67
2, 12813, Note_on_c, 0, 78, 0
2, 12813, Note_on_c, 0, 74, 0
2, 12816, Note_on_c, 0, 83, 69
2, 12816, Note_on_c, 0, 76, 69
2, 12816, Note_on_c, 0, 74, 69
2, 12861, Note_on_c, 0, 83, 0
2, 12861, Note_on_c, 0, 76, 0
2, 12861, Note_on_c, 0, 74, 0
2, 12864, Note_on_c, 0, 76, 71
2, 12864, Note_on_c, 0, 72, 71
2, 12909, Note_on_c, 0, 76, 0
2, 12909, Note_on_c, 0, 72, 0
2, 12912, Note_on_c, 0, 81, 72
2, 12912, Note_on_c, 0, 74, 72
2, 12912, Note_on_c, 0, 72, 72
2, 12957, Note_on_c, 0, 81, 0
2, 12957, Note_on_c, 0, 74, 0
2, 12957, Note_on_c, 0, 72, 0
2, 12960, Note_on_c, 0, 74, 74
2, 12960, Note_on_c, 0, 71, 74
2, 13005, Note_on_c, 0, 74, 0
2, 13005, Note_on_c, 0, 71, 0
2, 13008, Note_on_c, 0, 79, 76
2, 13008, Note_on_c, 0, 72, 76
2, 13008, Note_on_c, 0, 71, 76
2, 13053, Note_on_c, 0, 79, 0
2, 13053, Note_on_c, 0, 72, 0
2, 13053, Note_on_c, 0, 71, 0
2, 13056, Note_on_c, 0, 72, 78
2, 13056, Note_on_c, 0, 69, 78
2, 13101, Note_on_c, 0, 72, 0
2, 13101, Note_on_c, 0, 69, 0
2, 13104, Note_on_c, 0, 78, 80
2, 13104, Note_on_c, 0, 71, 80
2, 13104, Note_on_c, 0, 69, 80
2, 13149, Note_on_c, 0, 78, 0
2, 13149, Note_on_c, 0, 71, 0
2, 13149, Note_on_c, 0, 69, 0
2, 13152, Note_on_c, 0, 71, 80
2, 13167, Note_on_c, 0, 71, 0
2, 13184, Note_on_c, 0, 69, 80
2, 13191, Note_on_c, 0, 69, 0
2, 13200, Note_on_c, 0, 69, 80
2, 13216, Note_on_c, 0, 69, 0
2, 13216, Note_on_c, 0, 67, 81
2, 13231, Note_on_c, 0, 67, 0
2, 13232, Note_on_c, 0, 72, 81
2, 13239, Note_on_c, 0, 72, 0
2, 13248, Note_on_c, 0, 72, 81
2, 13264, Note_on_c, 0, 72, 0
2, 13264, Note_on_c, 0, 71, 82
2, 13279, Note_on_c, 0, 71, 0
2, 13280, Note_on_c, 0, 69, 82
2, 13287, Note_on_c, 0, 69, 0
2, 13296, Note_on_c, 0, 69, 82
2, 13312, Note_on_c, 0, 69, 0
2, 13312, Note_on_c, 0, 67, 83
2, 13327, Note_on_c, 0, 67, 0
2, 13328, Note_on_c, 0, 72, 83
2, 13335, Note_on_c, 0, 72, 0
2, 13344, Note_on_c, 0, 72, 83
2, 13360, Note_on_c, 0, 72, 0
2, 13360, Note_on_c, 0, 71, 83
2, 13375, Note_on_c, 0, 71, 0
2, 13376, Note_on_c, 0, 75, 84
2, 13383, Note_on_c, 0, 75, 0
2, 13392, Note_on_c, 0, 75, 80
2, 13488, Note_on_c, 0, 75, 0
2, 13488, Note_on_c, 0, 76, 73
2, 13508, Note_on_c, 0, 76, 0
2, 13552, Note_on_c, 0, 72, 75
2, 13567, Note_on_c, 0, 72, 0
2, 13568, Note_on_c, 0, 69, 73
2, 13583, Note_on_c, 0, 69, 0
2, 13584, Note_on_c, 0, 66, 72
2, 13599, Note_on_c, 0, 66, 0
2, 13600, Note_on_c, 0, 60, 71
2, 13615, Note_on_c, 0, 60, 0
2, 13616, Note_on_c, 0, 57, 70
2, 13631, Note_on_c, 0, 57, 0
2, 13632, Note_on_c, 0, 54, 69
2, 13666, Note_on_c, 0, 54, 0
2, 13668, Note_on_c, 0, 63, 64
2, 13668, Note_on_c, 0, 57, 64
2, 13680, Note_on_c, 0, 63, 0
2, 13680, Note_on_c, 0, 57, 0
2, 13680, Note_on_c, 0, 63, 64
2, 13680, Note_on_c, 0, 57, 64
2, 13776, Note_on_c, 0, 63, 0
2, 13776, Note_on_c, 0, 57, 0
2, 13776, Note_on_c, 0, 64, 58
2, 13776, Note_on_c, 0, 55, 58
2, 13796, Note_on_c, 0, 64, 0
2, 13796, Note_on_c, 0, 55, 0
2, 13824, Note_on_c, 0, 74, 75
2, 13887, Note_on_c, 0, 74, 0
2, 13888, Note_on_c, 0, 83, 75
2, 13903, Note_on_c, 0, 83, 0
2, 13904, Note_on_c, 0, 81, 75
2, 13919, Note_on_c, 0, 81, 0
2, 13920, Note_on_c, 0, 79, 75
2, 13935, Note_on_c, 0, 79, 0
2, 13936, Note_on_c, 0, 78, 75
2, 13951, Note_on_c, 0, 78, 0
2, 13952, Note_on_c, 0, 81, 75
2, 13967, Note_on_c, 0, 81, 0
2, 13968, Note_on_c, 0, 81, 75
2, 13983, Note_on_c, 0, 81, 0
2, 13984, Note_on_c, 0, 79, 75
2, 13999, Note_on_c, 0, 79, 0
2, 14000, Note_on_c, 0, 74, 75
2, 14015, Note_on_c, 0, 74, 0
2, 14016, Note_on_c, 0, 86, 91
2, 14079, Note_on_c, 0, 86, 0
2, 14080, Note_on_c, 0, 83, 75
2, 14095, Note_on_c, 0, 83, 0
2, 14096, Note_on_c, 0, 79, 75
2, 14111, Note_on_c, 0, 79, 0
2, 14112, Note_on_c, 0, 78, 75
2, 14127, Note_on_c, 0, 78, 0
2, 14128, Note_on_c, 0, 76, 75
2, 14143, Note_on_c, 0, 76, 0
2, 14144, Note_on_c, 0, 79, 75
2, 14159, Note_on_c, 0, 79, 0
2, 14160, Note_on_c, 0, 76, 76
2, 14175, Note_on_c, 0, 76, 0
2, 14176, Note_on_c, 0, 74, 76
2, 14191, Note_on_c, 0, 74, 0
2, 14192, Note_on_c, 0, 79, 77
2, 14207, Note_on_c, 0, 79, 0
2, 14208, Note_on_c, 0, 74, 77
2, 14223, Note_on_c, 0, 74, 0
2, 14224, Note_on_c, 0, 72, 77
2, 14239, Note_on_c, 0, 72, 0
2, 14240, Note_on_c, 0, 81, 78
2, 14255, Note_on_c, 0, 81, 0
2, 14256, Note_on_c, 0, 81, 80
2, 14290, Note_on_c, 0, 81, 0
2, 14292, Note_on_c, 0, 79, 78
2, 14304, Note_on_c, 0, 79, 0
2, 14304, Note_on_c, 0, 78, 77
2, 14349, Note_on_c, 0, 78, 0
2, 14400, Note_on_c, 0, 62, 75
2, 14463, Note_on_c, 0, 62, 0
2, 14464, Note_on_c, 0, 71, 75
2, 14479, Note_on_c, 0, 71, 0
2, 14480, Note_on_c, 0, 69, 75
2, 14495, Note_on_c, 0, 69, 0
2, 14496, Note_on_c, 0, 67, 75
2, 14511, Note_on_c, 0, 67, 0
2, 14512, Note_on_c, 0, 66, 75
2, 14527, Note_on_c, 0, 66, 0
2, 14528, Note_on_c, 0, 69, 75
2, 14543, Note_on_c, 0, 69, 0
2, 14544, Note_on_c, 0, 69, 75
2, 14559, Note_on_c, 0, 69, 0
2, 14560, Note_on_c, 0, 67, 75
2, 14575, Note_on_c, 0, 67, 0
2, 14576, Note_on_c, 0, 62, 75
2, 14591, Note_on_c, 0, 62, 0
2, 14592, Note_on_c, 0, 74, 91
2, 14655, Note_on_c, 0, 74, 0
2, 14656, Note_on_c, 0, 71, 75
2, 14671, Note_on_c, 0, 71, 0
2, 14672, Note_on_c, 0, 67, 75
2, 14687, Note_on_c, 0, 67, 0
2, 14688, Note_on_c, 0, 69, 75
2, 14703, Note_on_c, 0, 69, 0
2, 14704, Note_on_c, 0, 68, 75
2, 14719, Note_on_c, 0, 68, 0
2, 14720, Note_on_c, 0, 62, 75
2, 14735, Note_on_c, 0, 62, 0
2, 14736, Note_on_c, 0, 77, 91
2, 14799, Note_on_c, 0, 77, 0
2, 14800, Note_on_c, 0, 74, 75
2, 14815, Note_on_c, 0, 74, 0
2, 14816, Note_on_c, 0, 71, 75
2, 14831, Note_on_c, 0, 71, 0
2, 14832, Note_on_c, 0, 74, 75
2, 14847, Note_on_c, 0, 74, 0
2, 14848, Note_on_c, 0, 72, 75
2, 14863, Note_on_c, 0, 72, 0
2, 14864, Note_on_c, 0, 69, 75
2, 14879, Note_on_c, 0, 69, 0
2, 14880, Note_on_c, 0, 68, 75
2, 14900, Note_on_c, 0, 68, 0
2, 14976, Note_on_c, 0, 76, 75
2, 15087, Note_on_c, 0, 76, 0
2, 15088, Note_on_c, 0, 83, 75
2, 15103, Note_on_c, 0, 83, 0
2, 15104, Note_on_c, 0, 80, 75
2, 15119, Note_on_c, 0, 80, 0
2, 15120, Note_on_c, 0, 81, 75
2, 15231, Note_on_c, 0, 81, 0
2, 15232, Note_on_c, 0, 76, 75
2, 15247, Note_on_c, 0, 76, 0
2, 15248, Note_on_c, 0, 73, 75
2, 15263, Note_on_c, 0, 73, 0
2, 15264, Note_on_c, 0, 74, 75
2, 15375, Note_on_c, 0, 74, 0
2, 15376, Note_on_c, 0, 81, 75
2, 15391, Note_on_c, 0, 81, 0
2, 15392, Note_on_c, 0, 78, 75
2, 15407, Note_on_c, 0, 78, 0
2, 15408, Note_on_c, 0, 79, 75
2, 15519, Note_on_c, 0, 79, 0
2, 15520, Note_on_c, 0, 86, 75
2, 15535, Note_on_c, 0, 86, 0
2, 15536, Note_on_c, 0, 77, 75
2, 15551, Note_on_c, 0, 77, 0
2, 15568, Note_on_c, 0, 75, 75
2, 15583, Note_on_c, 0, 75, 0
2, 15584, Note_on_c, 0, 76, 75
2, 15599, Note_on_c, 0, 76, 0
2, 15600, Note_on_c, 0, 84, 75
2, 15615, Note_on_c, 0, 84, 0
2, 15616, Note_on_c, 0, 79, 75
2, 15631, Note_on_c, 0, 79, 0
2, 15632, Note_on_c, 0, 76, 75
2, 15647, Note_on_c, 0, 76, 0
2, 15664, Note_on_c, 0, 83, 75
2, 15679, Note_on_c, 0, 83, 0
2, 15680, Note_on_c, 0, 74, 75
2, 15695, Note_on_c, 0, 74, 0
2, 15712, Note_on_c, 0, 71, 75
2, 15727, Note_on_c, 0, 71, 0
2, 15728, Note_on_c, 0, 72, 75
2, 15743, Note_on_c, 0, 72, 0
2, 15744, Note_on_c, 0, 81, 75
2, 15759, Note_on_c, 0, 81, 0
2, 15760, Note_on_c, 0, 76, 75
2, 15775, Note_on_c, 0, 76, 0
2, 15776, Note_on_c, 0, 72, 75
2, 15791, Note_on_c, 0, 72, 0
2, 15808, Note_on_c, 0, 79, 75
2, 15823, Note_on_c, 0, 79, 0
2, 15824, Note_on_c, 0, 71, 75
2, 15839, Note_on_c, 0, 71, 0
2, 15856, Note_on_c, 0, 68, 75
2, 15871, Note_on_c, 0, 68, 0
2, 15872, Note_on_c, 0, 69, 75
2, 15887, Note_on_c, 0, 69, 0
2, 15888, Note_on_c, 0, 78, 75
2, 15903, Note_on_c, 0, 78, 0
2, 15904, Note_on_c, 0, 75, 75
2, 15919, Note_on_c, 0, 75, 0
2, 15920, Note_on_c, 0, 69, 75
2, 15935, Note_on_c, 0, 69, 0
2, 15952, Note_on_c, 0, 67, 75
2, 15967, Note_on_c, 0, 67, 0
2, 15968, Note_on_c, 0, 76, 75
2, 15983, Note_on_c, 0, 76, 0
2, 16000, Note_on_c, 0, 67, 75
2, 16015, Note_on_c, 0, 67, 0
2, 16016, Note_on_c, 0, 70, 75
2, 16031, Note_on_c, 0, 70, 0
2, 16032, Note_on_c, 0, 76, 75
2, 16047, Note_on_c, 0, 76, 0
2, 16048, Note_on_c, 0, 70, 75
2, 16063, Note_on_c, 0, 70, 0
2, 16064, Note_on_c, 0, 79, 75
2, 16079, Note_on_c, 0, 79, 0
2, 16096, Note_on_c, 0, 76, 75
2, 16111, Note_on_c, 0, 76, 0
2, 16112, Note_on_c, 0, 67, 75
2, 16127, Note_on_c, 0, 67, 0
2, 16144, Note_on_c, 0, 66, 75
2, 16159, Note_on_c, 0, 66, 0
2, 16160, Note_on_c, 0, 75, 75
2, 16175, Note_on_c, 0, 75, 0
2, 16272, Note_on_c, 0, 71, 75
2, 16335, Note_on_c, 0, 71, 0
2, 16336, Note_on_c, 0, 79, 75
2, 16351, Note_on_c, 0, 79, 0
2, 16352, Note_on_c, 0, 78, 75
2, 16367, Note_on_c, 0, 78, 0
2, 16368, Note_on_c, 0, 76, 75
2, 16383, Note_on_c, 0, 76, 0
2, 16384, Note_on_c, 0, 75, 75
2, 16399, Note_on_c, 0, 75, 0
2, 16400, Note_on_c, 0, 78, 75
2, 16415, Note_on_c, 0, 78, 0
2, 16416, Note_on_c, 0, 78, 75
2, 16431, Note_on_c, 0, 78, 0
2, 16432, Note_on_c, 0, 76, 75
2, 16447, Note_on_c, 0, 76, 0
2, 16448, Note_on_c, 0, 71, 75
2, 16463, Note_on_c, 0, 71, 0
2, 16464, Note_on_c, 0, 83, 91
2, 16527, Note_on_c, 0, 83, 0
2, 16528, Note_on_c, 0, 79, 75
2, 16543, Note_on_c, 0, 79, 0
2, 16544, Note_on_c, 0, 76, 75
2, 16559, Note_on_c, 0, 76, 0
2, 16560, Note_on_c, 0, 74, 75
2, 16575, Note_on_c, 0, 74, 0
2, 16576, Note_on_c, 0, 72, 75
2, 16591, Note_on_c, 0, 72, 0
2, 16592, Note_on_c, 0, 76, 75
2, 16607, Note_on_c, 0, 76, 0
2, 16608, Note_on_c, 0, 72, 76
2, 16623, Note_on_c, 0, 72, 0
2, 16624, Note_on_c, 0, 71, 76
2, 16639, Note_on_c, 0, 71, 0
2, 16640, Note_on_c, 0, 76, 77
2, 16655, Note_on_c, 0, 76, 0
2, 16656, Note_on_c, 0, 71, 77
2, 16671, Note_on_c, 0, 71, 0
2, 16672, Note_on_c, 0, 69, 77
2, 16687, Note_on_c, 0, 69, 0
2, 16688, Note_on_c, 0, 78, 78
2, 16703, Note_on_c, 0, 78, 0
2, 16704, Note_on_c, 0, 78, 80
2, 16738, Note_on_c, 0, 78, 0
2, 16740, Note_on_c, 0, 76, 78
2, 16752, Note_on_c, 0, 76, 0
2, 16752, Note_on_c, 0, 75, 77
2, 16797, Note_on_c, 0, 75, 0
2, 16848, Note_on_c, 0, 71, 75
2, 16959, Note_on_c, 0, 71, 0
2, 16960, Note_on_c, 0, 78, 78
2, 16975, Note_on_c, 0, 78, 0
2, 16976, Note_on_c, 0, 75, 79
2, 16991, Note_on_c, 0, 75, 0
2, 16992, Note_on_c, 0, 76, 79
2, 17007, Note_on_c, 0, 76, 0
2, 17008, Note_on_c, 0, 71, 80
2, 17023, Note_on_c, 0, 71, 0
2, 17024, Note_on_c, 0, 79, 79
2, 17039, Note_on_c, 0, 79, 0
2, 17040, Note_on_c, 0, 76, 79
2, 17055, Note_on_c, 0, 76, 0
2, 17056, Note_on_c, 0, 83, 78
2, 17071, Note_on_c, 0, 83, 0
2, 17072, Note_on_c, 0, 79, 78
2, 17087, Note_on_c, 0, 79, 0
2, 17088, Note_on_c, 0, 76, 77
2, 17103, Note_on_c, 0, 76, 0
2, 17104, Note_on_c, 0, 71, 77
2, 17119, Note_on_c, 0, 71, 0
2, 17120, Note_on_c, 0, 67, 77
2, 17135, Note_on_c, 0, 67, 0
2, 17136, Note_on_c, 0, 71, 75
2, 17247, Note_on_c, 0, 71, 0
2, 17248, Note_on_c, 0, 78, 78
2, 17263, Note_on_c, 0, 78, 0
2, 17264, Note_on_c, 0, 75, 79
2, 17279, Note_on_c, 0, 75, 0
2, 17280, Note_on_c, 0, 76, 79
2, 17295, Note_on_c, 0, 76, 0
2, 17296, Note_on_c, 0, 71, 80
2, 17311, Note_on_c, 0, 71, 0
2, 17312, Note_on_c, 0, 79, 79
2, 17327, Note_on_c, 0, 79, 0
2, 17328, Note_on_c, 0, 76, 79
2, 17343, Note_on_c, 0, 76, 0
2, 17344, Note_on_c, 0, 83, 78
2, 17359, Note_on_c, 0, 83, 0
2, 17360, Note_on_c, 0, 79, 78
2, 17375, Note_on_c, 0, 79, 0
2, 17376, Note_on_c, 0, 76, 77
2, 17391, Note_on_c, 0, 76, 0
2, 17392, Note_on_c, 0, 71, 77
2, 17407, Note_on_c, 0, 71, 0
2, 17408, Note_on_c, 0, 67, 77
2, 17423, Note_on_c, 0, 67, 0
2, 17424, Note_on_c, 0, 71, 75
2, 17535, Note_on_c, 0, 71, 0
2, 17536, Note_on_c, 0, 71, 76
2, 17551, Note_on_c, 0, 71, 0
2, 17552, Note_on_c, 0, 67, 77
2, 17567, Note_on_c, 0, 67, 0
2, 17584, Note_on_c, 0, 84, 80
2, 17599, Note_on_c, 0, 84, 0
2, 17600, Note_on_c, 0, 78, 80
2, 17615, Note_on_c, 0, 78, 0
2, 17616, Note_on_c, 0, 75, 80
2, 17636, Note_on_c, 0, 75, 0
2, 17664, Note_on_c, 0, 76, 80
2, 17684, Note_on_c, 0, 76, 0
2, 17728, Note_on_c, 0, 68, 80
2, 17744, Note_on_c, 0, 68, 0
2, 17744, Note_on_c, 0, 69, 80
2, 17759, Note_on_c, 0, 69, 0
2, 17760, Note_on_c, 0, 81, 80
2, 17760, Note_on_c, 0, 75, 80
2, 17808, Note_on_c, 0, 81, 0
2, 17808, Note_on_c, 0, 75, 0
2, 17808, Note_on_c, 0, 79, 80
2, 17808, Note_on_c, 0, 76, 80
2, 17853, Note_on_c, 0, 79, 0
2, 17853, Note_on_c, 0, 76, 0
2, 17872, Note_on_c, 0, 64, 79
2, 17887, Note_on_c, 0, 64, 0
2, 17888, Note_on_c, 0, 65, 79
2, 17903, Note_on_c, 0, 65, 0
2, 17904, Note_on_c, 0, 72, 78
2, 17919, Note_on_c, 0, 72, 0
2, 17920, Note_on_c, 0, 64, 78
2, 17935, Note_on_c, 0, 64, 0
2, 17936, Note_on_c, 0, 65, 77
2, 17951, Note_on_c, 0, 65, 0
2, 17968, Note_on_c, 0, 63, 76
2, 17983, Note_on_c, 0, 63, 0
2, 17984, Note_on_c, 0, 64, 76
2, 17999, Note_on_c, 0, 64, 0
2, 18016, Note_on_c, 0, 63, 75
2, 18031, Note_on_c, 0, 63, 0
2, 18032, Note_on_c, 0, 66, 74
2, 18047, Note_on_c, 0, 66, 0
2, 18048, Note_on_c, 0, 69, 74
2, 18063, Note_on_c, 0, 69, 0
2, 18064, Note_on_c, 0, 59, 73
2, 18079, Note_on_c, 0, 59, 0
2, 18080, Note_on_c, 0, 60, 73
2, 18095, Note_on_c, 0, 60, 0
2, 18112, Note_on_c, 0, 59, 70
2, 18127, Note_on_c, 0, 59, 0
2, 18128, Note_on_c, 0, 69, 70
2, 18143, Note_on_c, 0, 69, 0
2, 18144, Note_on_c, 0, 67, 75
2, 18189, Note_on_c, 0, 67, 0
2, 18192, Note_on_c, 0, 66, 71
2, 18255, Note_on_c, 0, 66, 0
2, 18256, Note_on_c, 0, 67, 66
2, 18271, Note_on_c, 0, 67, 0
2, 18272, Note_on_c, 0, 69, 65
2, 18287, Note_on_c, 0, 69, 0
2, 18288, Note_on_c, 0, 69, 64
2, 18384, Note_on_c, 0, 69, 0
2, 18384, Note_on_c, 0, 67, 64
2, 18404, Note_on_c, 0, 67, 0
2, 18432, Note_on_c, 0, 79, 64
2, 18432, Note_on_c, 0, 76, 64
2, 18477, Note_on_c, 0, 79, 0
2, 18477, Note_on_c, 0, 76, 0
2, 18480, Note_on_c, 0, 78, 65
2, 18480, Note_on_c, 0, 76, 65
2, 18525, Note_on_c, 0, 78, 0
2, 18525, Note_on_c, 0, 76, 0
2, 18528, Note_on_c, 0, 78, 67
2, 18528, Note_on_c, 0, 74, 67
2, 18573, Note_on_c, 0, 78, 0
2, 18573, Note_on_c, 0, 74, 0
2, 18576, Note_on_c, 0, 83, 69
2, 18576, Note_on_c, 0, 76, 69
2, 18576, Note_on_c, 0, 74, 69
2, 18621, Note_on_c, 0, 83, 0
2, 18621, Note_on_c, 0, 76, 0
2, 18621, Note_on_c, 0, 74, 0
2, 18624, Note_on_c, 0, 76, 71
2, 18624, Note_on_c, 0, 72, 71
2, 18669, Note_on_c, 0, 76, 0
2, 18669, Note_on_c, 0, 72, 0
2, 18672, Note_on_c, 0, 81, 72
2, 18672, Note_on_c, 0, 74, 72
2, 18672, Note_on_c, 0, 72, 72
2, 18717, Note_on_c, 0, 81, 0
2, 18717, Note_on_c, 0, 74, 0
2, 18717, Note_on_c, 0, 72, 0
2, 18720, Note_on_c, 0, 74, 74
2, 18720, Note_on_c, 0, 71, 74
2, 18765, Note_on_c, 0, 74, 0
2, 18765, Note_on_c, 0, 71, 0
2, 18768, Note_on_c, 0, 79, 76
2, 18768, Note_on_c, 0, 72, 76
2, 18768, Note_on_c, 0, 71, 76
2, 18813, Note_on_c, 0, 79, 0
2, 18813, Note_on_c, 0, 72, 0
2, 18813, Note_on_c, 0, 71, 0
2, 18816, Note_on_c, 0, 72, 78
2, 18816, Note_on_c, 0, 69, 78
2, 18861, Note_on_c, 0, 72, 0
2, 18861, Note_on_c, 0, 69, 0
2, 18864, Note_on_c, 0, 78, 80
2, 18864, Note_on_c, 0, 71, 80
2, 18864, Note_on_c, 0, 69, 80
2, 18909, Note_on_c, 0, 78, 0
2, 18909, Note_on_c, 0, 71, 0
2, 18909, Note_on_c, 0, 69, 0
2, 18912, Note_on_c, 0, 71, 80
2, 18927, Note_on_c, 0, 71, 0
2, 18944, Note_on_c, 0, 69, 80
2, 18951, Note_on_c, 0, 69, 0
2, 18960, Note_on_c, 0, 69, 80
2, 18976, Note_on_c, 0, 69, 0
2, 18976, Note_on_c, 0, 67, 81
2, 18991, Note_on_c, 0, 67, 0
2, 18992, Note_on_c, 0, 72, 81
2, 18999, Note_on_c, 0, 72, 0
2, 19008, Note_on_c, 0, 72, 81
2, 19024, Note_on_c, 0, 72, 0
2, 19024, Note_on_c, 0, 71, 82
2, 19039, Note_on_c, 0, 71, 0
2, 19040, Note_on_c, 0, 69, 82
2, 19047, Note_on_c, 0, 69, 0
2, 19056, Note_on_c, 0, 69, 82
2, 19072, Note_on_c, 0, 69, 0
2, 19072, Note_on_c, 0, 67, 83
2, 19087, Note_on_c, 0, 67, 0
2, 19088, Note_on_c, 0, 72, 83
2, 19095, Note_on_c, 0, 72, 0
2, 19104, Note_on_c, 0, 72, 83
2, 19120, Note_on_c, 0, 72, 0
2, 19120, Note_on_c, 0, 71, 83
2, 19135, Note_on_c, 0, 71, 0
2, 19136, Note_on_c, 0, 75, 84
2, 19143, Note_on_c, 0, 75, 0
2, 19152, Note_on_c, 0, 75, 80
2, 19248, Note_on_c, 0, 75, 0
2, 19248, Note_on_c, 0, 76, 73
2, 19268, Note_on_c, 0, 76, 0
2, 19312, Note_on_c, 0, 72, 75
2, 19327, Note_on_c, 0, 72, 0
2, 19328, Note_on_c, 0, 69, 73
2, 19343, Note_on_c, 0, 69, 0
2, 19344, Note_on_c, 0, 66, 72
2, 19359, Note_on_c, 0, 66, 0
2, 19360, Note_on_c, 0, 60, 71
2, 19375, Note_on_c, 0, 60, 0
2, 19376, Note_on_c, 0, 57, 70
2, 19391, Note_on_c, 0, 57, 0
2, 19392, Note_on_c, 0, 54, 69
2, 19426, Note_on_c, 0, 54, 0
2, 19428, Note_on_c, 0, 63, 64
2, 19428, Note_on_c, 0, 57, 64
2, 19440, Note_on_c, 0, 63, 0
2, 19440, Note_on_c, 0, 57, 0
2, 19440, Note_on_c, 0, 63, 64
2, 19440, Note_on_c, 0, 57, 64
2, 19536, Note_on_c, 0, 63, 0
2, 19536, Note_on_c, 0, 57, 0
2, 19536, Note_on_c, 0, 64, 58
2, 19536, Note_on_c, 0, 55, 58
2, 19556, Note_on_c, 0, 64, 0
2, 19556, Note_on_c, 0, 55, 0
2, 19584, End_track
3, 0, Start_track
3, 0, Program_c, 0, 0
3, 0, Control_c, 0, 7, 127
3, 0, Control_c, 0, 10, 64
3, 416, Note_on_c, 0, 81, 64
3, 431, Note_on_c, 0, 81, 0
3, 432, Note_on_c, 0, 81, 75
3, 466, Note_on_c, 0, 81, 0
3, 468, Note_on_c, 0, 79, 71
3, 480, Note_on_c, 0, 79, 0
3, 480, Note_on_c, 0, 78, 70
3, 500, Note_on_c, 0, 78, 0
3, 1456, Note_on_c, 0, 69, 75
3, 1471, Note_on_c, 0, 69, 0
3, 1472, Note_on_c, 0, 66, 75
3, 1487, Note_on_c, 0, 66, 0
3, 1488, Note_on_c, 0, 71, 75
3, 1503, Note_on_c, 0, 71, 0
3, 1504, Note_on_c, 0, 67, 76
3, 1519, Note_on_c, 0, 67, 0
3, 1520, Note_on_c, 0, 72, 76
3, 1535, Note_on_c, 0, 72, 0
3, 1536, Note_on_c, 0, 69, 77
3, 1551, Note_on_c, 0, 69, 0
3, 1744, Note_on_c, 0, 69, 75
3, 1759, Note_on_c, 0, 69, 0
3, 1760, Note_on_c, 0, 66, 75
3, 1775, Note_on_c, 0, 66, 0
3, 1776, Note_on_c, 0, 71, 76
3, 1791, Note_on_c, 0, 71, 0
3, 1792, Note_on_c, 0, 67, 76
3, 1807, Note_on_c, 0, 67, 0
3, 1808, Note_on_c, 0, 72, 77
3, 1823, Note_on_c, 0, 72, 0
3, 1824, Note_on_c, 0, 69, 77
3, 1839, Note_on_c, 0, 69, 0
3, 2032, Note_on_c, 0, 69, 75
3, 2047, Note_on_c, 0, 69, 0
3, 2048, Note_on_c, 0, 66, 75
3, 2063, Note_on_c, 0, 66, 0
3, 2064, Note_on_c, 0, 71, 76
3, 2079, Note_on_c, 0, 71, 0
3, 2080, Note_on_c, 0, 67, 76
3, 2095, Note_on_c, 0, 67, 0
3, 2096, Note_on_c, 0, 72, 77
3, 2111, Note_on_c, 0, 72, 0
3, 2112, Note_on_c, 0, 69, 77
3, 2127, Note_on_c, 0, 69, 0
3, 2880, Note_on_c, 0, 67, 80
3, 2925, Note_on_c, 0, 67, 0
3, 2928, Note_on_c, 0, 67, 80
3, 2973, Note_on_c, 0, 67, 0
3, 2976, Note_on_c, 0, 66, 80
3, 3021, Note_on_c, 0, 66, 0
3, 3024, Note_on_c, 0, 67, 80
3, 3157, Note_on_c, 0, 67, 0
3, 3168, Note_on_c, 0, 67, 80
3, 3213, Note_on_c, 0, 67, 0
3, 3216, Note_on_c, 0, 67, 80
3, 3261, Note_on_c, 0, 67, 0
3, 3264, Note_on_c, 0, 66, 80
3, 3309, Note_on_c, 0, 66, 0
3, 3312, Note_on_c, 0, 67, 70
3, 3327, Note_on_c, 0, 67, 0
3, 3344, Note_on_c, 0, 67, 71
3, 3359, Note_on_c, 0, 67, 0
3, 3360, Note_on_c, 0, 67, 71
3, 3375, Note_on_c, 0, 67, 0
3, 3392, Note_on_c, 0, 67, 72
3, 3407, Note_on_c, 0, 67, 0
3, 3408, Note_on_c, 0, 67, 73
3, 3423, Note_on_c, 0, 67, 0
3, 3440, Note_on_c, 0, 67, 74
3, 3455, Note_on_c, 0, 67, 0
3, 3456, Note_on_c, 0, 67, 74
3, 3471, Note_on_c, 0, 67, 0
3, 3488, Note_on_c, 0, 67, 75
3, 3503, Note_on_c, 0, 67, 0
3, 3504, Note_on_c, 0, 67, 76
3, 3519, Note_on_c, 0, 67, 0
3, 3536, Note_on_c, 0, 67, 77
3, 3551, Note_on_c, 0, 67, 0
3, 3552, Note_on_c, 0, 67, 77
3, 3567, Note_on_c, 0, 67, 0
3, 3584, Note_on_c, 0, 72, 78
3, 3599, Note_on_c, 0, 72, 0
3, 3600, Note_on_c, 0, 72, 79
3, 3696, Note_on_c, 0, 72, 0
3, 3696, Note_on_c, 0, 71, 70
3, 3741, Note_on_c, 0, 71, 0
3, 3888, Note_on_c, 0, 60, 70
3, 3977, Note_on_c, 0, 60, 0
3, 3984, Note_on_c, 0, 59, 70
3, 4029, Note_on_c, 0, 59, 0
3, 4448, Note_on_c, 0, 81, 64
3, 4463, Note_on_c, 0, 81, 0
3, 4464, Note_on_c, 0, 81, 75
3, 4498, Note_on_c, 0, 81, 0
3, 4500, Note_on_c, 0, 79, 71
3, 4512, Note_on_c, 0, 79, 0
3, 4512, Note_on_c, 0, 78, 70
3, 4532, Note_on_c, 0, 78, 0
3, 5488, Note_on_c, 0, 69, 75
3, 5503, Note_on_c, 0, 69, 0
3, 5504, Note_on_c, 0, 66, 75
3, 5519, Note_on_c, 0, 66, 0
3, 5520, Note_on_c, 0, 71, 75
3, 5535, Note_on_c, 0, 71, 0
3, 5536, Note_on_c, 0, 67, 76
3, 5551, Note_on_c, 0, 67, 0
3, 5552, Note_on_c, 0, 72, 76
3, 5567, Note_on_c, 0, 72, 0
3, 5568, Note_on_c, 0, 69, 77
3, 5583, Note_on_c, 0, 69, 0
3, 5776, Note_on_c, 0, 69, 75
3, 5791, Note_on_c, 0, 69, 0
3, 5792, Note_on_c, 0, 66, 75
3, 5807, Note_on_c, 0, 66, 0
3, 5808, Note_on_c, 0, 71, 76
3, 5823, Note_on_c, 0, 71, 0
3, 5824, Note_on_c, 0, 67, 76
3, 5839, Note_on_c, 0, 67, 0
3, 5840, Note_on_c, 0, 72, 77
3, 5855, Note_on_c, 0, 72, 0
3, 5856, Note_on_c, 0, 69, 77
3, 5871, Note_on_c, 0, 69, 0
3, 6064, Note_on_c, 0, 69, 75
3, 6079, Note_on_c, 0, 69, 0
3, 6080, Note_on_c, 0, 66, 75
3, 6095, Note_on_c, 0, 66, 0
3, 6096, Note_on_c, 0, 71, 76
3, 6111, Note_on_c, 0, 71, 0
3, 6112, Note_on_c, 0, 67, 76
3, 6127, Note_on_c, 0, 67, 0
3, 6128, Note_on_c, 0, 72, 77
3, 6143, Note_on_c, 0, 72, 0
3, 6144, Note_on_c, 0, 69, 77
3, 6159, Note_on_c, 0, 69, 0
3, 6912, Note_on_c, 0, 67, 80
3, 6957, Note_on_c, 0, 67, 0
3, 6960, Note_on_c, 0, 67, 80
3, 7005, Note_on_c, 0, 67, 0
3, 7008, Note_on_c, 0, 66, 80
3, 7053, Note_on_c, 0, 66, 0
3, 7056, Note_on_c, 0, 67, 80
3, 7189, Note_on_c, 0, 67, 0
3, 7200, Note_on_c, 0, 67, 80
3, 7245, Note_on_c, 0, 67, 0
3, 7248, Note_on_c, 0, 67, 80
3, 7293, Note_on_c, 0, 67, 0
3, 7296, Note_on_c, 0, 66, 80
3, 7341, Note_on_c, 0, 66, 0
3, 7344, Note_on_c, 0, 67, 70
3, 7359, Note_on_c, 0, 67, 0
3, 7376, Note_on_c, 0, 67, 71
3, 7391, Note_on_c, 0, 67, 0
3, 7392, Note_on_c, 0, 67, 71
3, 7407, Note_on_c, 0, 67, 0
3, 7424, Note_on_c, 0, 67, 72
3, 7439, Note_on_c, 0, 67, 0
3, 7440, Note_on_c, 0, 67, 73
3, 7455, Note_on_c, 0, 67, 0
3, 7472, Note_on_c, 0, 67, 74
3, 7487, Note_on_c, 0, 67, 0
3, 7488, Note_on_c, 0, 67, 74
3, 7503, Note_on_c, 0, 67, 0
3, 7520, Note_on_c, 0, 67, 75
3, 7535, Note_on_c, 0, 67, 0
3, 7536, Note_on_c, 0, 67, 76
3, 7551, Note_on_c, 0, 67, 0
3, 7568, Note_on_c, 0, 67, 77
3, 7583, Note_on_c, 0, 67, 0
3, 7584, Note_on_c, 0, 67, 77
3, 7599, Note_on_c, 0, 67, 0
3, 7616, Note_on_c, 0, 72, 78
3, 7631, Note_on_c, 0, 72, 0
3, 7632, Note_on_c, 0, 72, 79
3, 7728, Note_on_c, 0, 72, 0
3, 7728, Note_on_c, 0, 71, 70
3, 7773, Note_on_c, 0, 71, 0
3, 7920, Note_on_c, 0, 60, 70
3, 8009, Note_on_c, 0, 60, 0
3, 8016, Note_on_c, 0, 59, 70
3, 8061, Note_on_c, 0, 59, 0
3, 8480, Note_on_c, 0, 84, 75
3, 8495, Note_on_c, 0, 84, 0
3, 8496, Note_on_c, 0, 84, 80
3, 8530, Note_on_c, 0, 84, 0
3, 8532, Note_on_c, 0, 83, 78
3, 8544, Note_on_c, 0, 83, 0
3, 8544, Note_on_c, 0, 81, 77
3, 8564, Note_on_c, 0, 81, 0
3, 9232, Note_on_c, 0, 71, 75
3, 9247, Note_on_c, 0, 71, 0
3, 9248, Note_on_c, 0, 68, 75
3, 9263, Note_on_c, 0, 68, 0
3, 9264, Note_on_c, 0, 72, 75
3, 9279, Note_on_c, 0, 72, 0
3, 9280, Note_on_c, 0, 69, 75
3, 9295, Note_on_c, 0, 69, 0
3, 9296, Note_on_c, 0, 74, 75
3, 9311, Note_on_c, 0, 74, 0
3, 9312, Note_on_c, 0, 71, 75
3, 9327, Note_on_c, 0, 71, 0
3, 9376, Note_on_c, 0, 76, 75
3, 9391, Note_on_c, 0, 76, 0
3, 9392, Note_on_c, 0, 73, 75
3, 9407, Note_on_c, 0, 73, 0
3, 9408, Note_on_c, 0, 78, 75
3, 9423, Note_on_c, 0, 78, 0
3, 9424, Note_on_c, 0, 74, 75
3, 9439, Note_on_c, 0, 74, 0
3, 9440, Note_on_c, 0, 79, 75
3, 9455, Note_on_c, 0, 79, 0
3, 9456, Note_on_c, 0, 76, 75
3, 9471, Note_on_c, 0, 76, 0
3, 9520, Note_on_c, 0, 69, 75
3, 9535, Note_on_c, 0, 69, 0
3, 9536, Note_on_c, 0, 66, 75
3, 9551, Note_on_c, 0, 66, 0
3, 9552, Note_on_c, 0, 71, 75
3, 9567, Note_on_c, 0, 71, 0
3, 9568, Note_on_c, 0, 67, 75
3, 9583, Note_on_c, 0, 67, 0
3, 9584, Note_on_c, 0, 72, 75
3, 9599, Note_on_c, 0, 72, 0
3, 9600, Note_on_c, 0, 69, 75
3, 9615, Note_on_c, 0, 69, 0
3, 9664, Note_on_c, 0, 74, 75
3, 9679, Note_on_c, 0, 74, 0
3, 9680, Note_on_c, 0, 71, 75
3, 9695, Note_on_c, 0, 71, 0
3, 9696, Note_on_c, 0, 76, 75
3, 9711, Note_on_c, 0, 76, 0
3, 9712, Note_on_c, 0, 72, 75
3, 9727, Note_on_c, 0, 72, 0
3, 9728, Note_on_c, 0, 77, 75
3, 9743, Note_on_c, 0, 77, 0
3, 9744, Note_on_c, 0, 74, 75
3, 9759, Note_on_c, 0, 74, 0
3, 10928, Note_on_c, 0, 81, 79
3, 10943, Note_on_c, 0, 81, 0
3, 10944, Note_on_c, 0, 81, 80
3, 10978, Note_on_c, 0, 81, 0
3, 10980, Note_on_c, 0, 79, 78
3, 10992, Note_on_c, 0, 79, 0
3, 10992, Note_on_c, 0, 78, 77
3, 11012, Note_on_c, 0, 78, 0
3, 11104, Note_on_c, 0, 66, 75
3, 11119, Note_on_c, 0, 66, 0
3, 11120, Note_on_c, 0, 63, 75
3, 11135, Note_on_c, 0, 63, 0
3, 11136, Note_on_c, 0, 67, 76
3, 11151, Note_on_c, 0, 67, 0
3, 11152, Note_on_c, 0, 64, 76
3, 11167, Note_on_c, 0, 64, 0
3, 11168, Note_on_c, 0, 69, 77
3, 11183, Note_on_c, 0, 69, 0
3, 11184, Note_on_c, 0, 66, 77
3, 11199, Note_on_c, 0, 66, 0
3, 11392, Note_on_c, 0, 66, 75
3, 11407, Note_on_c, 0, 66, 0
3, 11408, Note_on_c, 0, 63, 75
3, 11423, Note_on_c, 0, 63, 0
3, 11424, Note_on_c, 0, 67, 76
3, 11439, Note_on_c, 0, 67, 0
3, 11440, Note_on_c, 0, 64, 76
3, 11455, Note_on_c, 0, 64, 0
3, 11456, Note_on_c, 0, 69, 77
3, 11471, Note_on_c, 0, 69, 0
3, 11472, Note_on_c, 0, 66, 77
3, 11487, Note_on_c, 0, 66, 0
3, 11680, Note_on_c, 0, 66, 75
3, 11695, Note_on_c, 0, 66, 0
3, 11696, Note_on_c, 0, 63, 75
3, 11711, Note_on_c, 0, 63, 0
3, 11712, Note_on_c, 0, 67, 75
3, 11727, Note_on_c, 0, 67, 0
3, 11728, Note_on_c, 0, 64, 76
3, 11743, Note_on_c, 0, 64, 0
3, 11744, Note_on_c, 0, 69, 76
3, 11759, Note_on_c, 0, 69, 0
3, 11760, Note_on_c, 0, 66, 77
3, 11775, Note_on_c, 0, 66, 0
3, 12384, Note_on_c, 0, 64, 80
3, 12429, Note_on_c, 0, 64, 0
3, 12432, Note_on_c, 0, 64, 80
3, 12477, Note_on_c, 0, 64, 0
3, 12480, Note_on_c, 0, 63, 80
3, 12525, Note_on_c, 0, 63, 0
3, 12528, Note_on_c, 0, 64, 64
3, 12661, Note_on_c, 0, 64, 0
3, 13152, Note_on_c, 0, 67, 80
3, 13167, Note_on_c, 0, 67, 0
3, 13184, Note_on_c, 0, 64, 80
3, 13199, Note_on_c, 0, 64, 0
3, 13200, Note_on_c, 0, 64, 80
3, 13215, Note_on_c, 0, 64, 0
3, 13232, Note_on_c, 0, 64, 81
3, 13247, Note_on_c, 0, 64, 0
3, 13248, Note_on_c, 0, 64, 81
3, 13263, Note_on_c, 0, 64, 0
3, 13280, Note_on_c, 0, 64, 82
3, 13295, Note_on_c, 0, 64, 0
3, 13296, Note_on_c, 0, 64, 82
3, 13311, Note_on_c, 0, 64, 0
3, 13328, Note_on_c, 0, 64, 83
3, 13343, Note_on_c, 0, 64, 0
3, 13344, Note_on_c, 0, 64, 83
3, 13359, Note_on_c, 0, 64, 0
3, 13376, Note_on_c, 0, 69, 84
3, 13391, Note_on_c, 0, 69, 0
3, 13392, Note_on_c, 0, 69, 80
3, 13488, Note_on_c, 0, 69, 0
3, 13488, Note_on_c, 0, 71, 73
3, 13535, Note_on_c, 0, 71, 0
3, 14240, Note_on_c, 0, 84, 75
3, 14255, Note_on_c, 0, 84, 0
3, 14256, Note_on_c, 0, 84, 80
3, 14290, Note_on_c, 0, 84, 0
3, 14292, Note_on_c, 0, 83, 78
3, 14304, Note_on_c, 0, 83, 0
3, 14304, Note_on_c, 0, 81, 77
3, 14324, Note_on_c, 0, 81, 0
3, 14992, Note_on_c, 0, 71, 75
3, 15007, Note_on_c, 0, 71, 0
3, 15008, Note_on_c, 0, 68, 75
3, 15023, Note_on_c, 0, 68, 0
3, 15024, Note_on_c, 0, 72, 75
3, 15039, Note_on_c, 0, 72, 0
3, 15040, Note_on_c, 0, 69, 75
3, 15055, Note_on_c, 0, 69, 0
3, 15056, Note_on_c, 0, 74, 75
3, 15071, Note_on_c, 0, 74, 0
3, 15072, Note_on_c, 0, 71, 75
3, 15087, Note_on_c, 0, 71, 0
3, 15136, Note_on_c, 0, 76, 75
3, 15151, Note_on_c, 0, 76, 0
3, 15152, Note_on_c, 0, 73, 75
3, 15167, Note_on_c, 0, 73, 0
3, 15168, Note_on_c, 0, 78, 75
3, 15183, Note_on_c, 0, 78, 0
3, 15184, Note_on_c, 0, 74, 75
3, 15199, Note_on_c, 0, 74, 0
3, 15200, Note_on_c, 0, 79, 75
3, 15215, Note_on_c, 0, 79, 0
3, 15216, Note_on_c, 0, 76, 75
3, 15231, Note_on_c, 0, 76, 0
3, 15280, Note_on_c, 0, 69, 75
3, 15295, Note_on_c, 0, 69, 0
3, 15296, Note_on_c, 0, 66, 75
3, 15311, Note_on_c, 0, 66, 0
3, 15312, Note_on_c, 0, 71, 75
3, 15327, Note_on_c, 0, 71, 0
3, 15328, Note_on_c, 0, 67, 75
3, 15343, Note_on_c, 0, 67, 0
3, 15344, Note_on_c, 0, 72, 75
3, 15359, Note_on_c, 0, 72, 0
3, 15360, Note_on_c, 0, 69, 75
3, 15375, Note_on_c, 0, 69, 0
3, 15424, Note_on_c, 0, 74, 75
3, 15439, Note_on_c, 0, 74, 0
3, 15440, Note_on_c, 0, 71, 75
3, 15455, Note_on_c, 0, 71, 0
3, 15456, Note_on_c, 0, 76, 75
3, 15471, Note_on_c, 0, 76, 0
3, 15472, Note_on_c, 0, 72, 75
3, 15487, Note_on_c, 0, 72, 0
3, 15488, Note_on_c, 0, 77, 75
3, 15503, Note_on_c, 0, 77, 0
3, 15504, Note_on_c, 0, 74, 75
3, 15519, Note_on_c, 0, 74, 0
3, 16688, Note_on_c, 0, 81, 79
3, 16703, Note_on_c, 0, 81, 0
3, 16704, Note_on_c, 0, 81, 80
3, 16738, Note_on_c, 0, 81, 0
3, 16740, Note_on_c, 0, 79, 78
3, 16752, Note_on_c, 0, 79, 0
3, 16752, Note_on_c, 0, 78, 77
3, 16772, Note_on_c, 0, 78, 0
3, 16864, Note_on_c, 0, 66, 75
3, 16879, Note_on_c, 0, 66, 0
3, 16880, Note_on_c, 0, 63, 75
3, 16895, Note_on_c, 0, 63, 0
3, 16896, Note_on_c, 0, 67, 76
3, 16911, Note_on_c, 0, 67, 0
3, 16912, Note_on_c, 0, 64, 76
3, 16927, Note_on_c, 0, 64, 0
3, 16928, Note_on_c, 0, 69, 77
3, 16943, Note_on_c, 0, 69, 0
3, 16944, Note_on_c, 0, 66, 77
3, 16959, Note_on_c, 0, 66, 0
3, 17152, Note_on_c, 0, 66, 75
3, 17167, Note_on_c, 0, 66, 0
3, 17168, Note_on_c, 0, 63, 75
3, 17183, Note_on_c, 0, 63, 0
3, 17184, Note_on_c, 0, 67, 76
3, 17199, Note_on_c, 0, 67, 0
3, 17200, Note_on_c, 0, 64, 76
3, 17215, Note_on_c, 0, 64, 0
3, 17216, Note_on_c, 0, 69, 77
3, 17231, Note_on_c, 0, 69, 0
3, 17232, Note_on_c, 0, 66, 77
3, 17247, Note_on_c, 0, 66, 0
3, 17440, Note_on_c, 0, 66, 75
3, 17455, Note_on_c, 0, 66, 0
3, 17456, Note_on_c, 0, 63, 75
3, 17471, Note_on_c, 0, 63, 0
3, 17472, Note_on_c, 0, 67, 75
3, 17487, Note_on_c, 0, 67, 0
3, 17488, Note_on_c, 0, 64, 76
3, 17503, Note_on_c, 0, 64, 0
3, 17504, Note_on_c, 0, 69, 76
3, 17519, Note_on_c, 0, 69, 0
3, 17520, Note_on_c, 0, 66, 77
3, 17535, Note_on_c, 0, 66, 0
3, 18144, Note_on_c, 0, 64, 80
3, 18189, Note_on_c, 0, 64, 0
3, 18192, Note_on_c, 0, 64, 80
3, 18237, Note_on_c, 0, 64, 0
3, 18240, Note_on_c, 0, 63, 80
3, 18285, Note_on_c, 0, 63, 0
3, 18288, Note_on_c, 0, 64, 64
3, 18421, Note_on_c, 0, 64, 0
3, 18912, Note_on_c, 0, 67, 80
3, 18927, Note_on_c, 0, 67, 0
3, 18944, Note_on_c, 0, 64, 80
3, 18959, Note_on_c, 0, 64, 0
3, 18960, Note_on_c, 0, 64, 80
3, 18975, Note_on_c, 0, 64, 0
3, 18992, Note_on_c, 0, 64, 81
3, 19007, Note_on_c, 0, 64, 0
3, 19008, Note_on_c, 0, 64, 81
3, 19023, Note_on_c, 0, 64, 0
3, 19040, Note_on_c, 0, 64, 82
3, 19055, Note_on_c, 0, 64, 0
3, 19056, Note_on_c, 0, 64, 82
3, 19071, Note_on_c, 0, 64, 0
3, 19088, Note_on_c, 0, 64, 83
3, 19103, Note_on_c, 0, 64, 0
3, 19104, Note_on_c, 0, 64, 83
3, 19119, Note_on_c, 0, 64, 0
3, 19136, Note_on_c, 0, 69, 84
3, 19151, Note_on_c, 0, 69, 0
3, 19152, Note_on_c, 0, 69, 80
3, 19248, Note_on_c, 0, 69, 0
3, 19248, Note_on_c, 0, 71, 73
3, 19295, Note_on_c, 0, 71, 0
3, 19584, End_track
4, 0, Start_track
4, 0, Program_c, 1, 0
4, 0, Control_c, 1, 7, 127
4, 0, Control_c, 1, 10, 64
4, 48, Note_on_c, 1, 67, 70
4, 48, Note_on_c, 1, 64, 70
4, 93, Note_on_c, 1, 67, 0
4, 93, Note_on_c, 1, 64, 0
4, 96, Note_on_c, 1, 69, 70
4, 96, Note_on_c, 1, 66, 70
4, 141, Note_on_c, 1, 69, 0
4, 141, Note_on_c, 1, 66, 0
4, 144, Note_on_c, 1, 71, 70
4, 144, Note_on_c, 1, 67, 70
4, 164, Note_on_c, 1, 71, 0
4, 164, Note_on_c, 1, 67, 0
4, 240, Note_on_c, 1, 67, 70
4, 285, Note_on_c, 1, 67, 0
4, 288, Note_on_c, 1, 69, 70
4, 333, Note_on_c, 1, 69, 0
4, 336, Note_on_c, 1, 67, 70
4, 381, Note_on_c, 1, 67, 0
4, 384, Note_on_c, 1, 66, 70
4, 399, Note_on_c, 1, 66, 0
4, 416, Note_on_c, 1, 63, 70
4, 431, Note_on_c, 1, 63, 0
4, 432, Note_on_c, 1, 64, 70
4, 466, Note_on_c, 1, 64, 0
4, 468, Note_on_c, 1, 58, 71
4, 480, Note_on_c, 1, 58, 0
4, 480, Note_on_c, 1, 59, 72
4, 525, Note_on_c, 1, 59, 0
4, 624, Note_on_c, 1, 55, 70
4, 624, Note_on_c, 1, 52, 70
4, 669, Note_on_c, 1, 55, 0
4, 669, Note_on_c, 1, 52, 0
4, 672, Note_on_c, 1, 57, 70
4, 672, Note_on_c, 1, 54, 70
4, 717, Note_on_c, 1, 57, 0
4, 717, Note_on_c, 1, 54, 0
4, 720, Note_on_c, 1, 59, 70
4, 720, Note_on_c, 1, 55, 70
4, 740, Note_on_c, 1, 59, 0
4, 740, Note_on_c, 1, 55, 0
4, 816, Note_on_c, 1, 55, 70
4, 861, Note_on_c, 1, 55, 0
4, 864, Note_on_c, 1, 57, 70
4, 953, Note_on_c, 1, 57, 0
4, 960, Note_on_c, 1, 50, 70
4, 1005, Note_on_c, 1, 50, 0
4, 1008, Note_on_c, 1, 55, 70
4, 1097, Note_on_c, 1, 55, 0
4, 1104, Note_on_c, 1, 47, 70
4, 1149, Note_on_c, 1, 47, 0
4, 1152, Note_on_c, 1, 48, 70
4, 1241, Note_on_c, 1, 48, 0
4, 1248, Note_on_c, 1, 49, 73
4, 1293, Note_on_c, 1, 49, 0
4, 1296, Note_on_c, 1, 50, 75
4, 1341, Note_on_c, 1, 50, 0
4, 1344, Note_on_c, 1, 45, 73
4, 1389, Note_on_c, 1, 45, 0
4, 1392, Note_on_c, 1, 38, 71
4, 1437, Note_on_c, 1, 38, 0
4, 1456, Note_on_c, 1, 54, 75
4, 1471, Note_on_c, 1, 54, 0
4, 1472, Note_on_c, 1, 50, 75
4, 1487, Note_on_c, 1, 50, 0
4, 1488, Note_on_c, 1, 55, 75
4, 1503, Note_on_c, 1, 55, 0
4, 1504, Note_on_c, 1, 52, 76
4, 1519, Note_on_c, 1, 52, 0
4, 1520, Note_on_c, 1, 57, 76
4, 1535, Note_on_c, 1, 57, 0
4, 1536, Note_on_c, 1, 54, 77
4, 1551, Note_on_c, 1, 54, 0
4, 1568, Note_on_c, 1, 74, 78
4, 1568, Note_on_c, 1, 72, 78
4, 1584, Note_on_c, 1, 72, 0
4, 1584, Note_on_c, 1, 71, 80
4, 1607, Note_on_c, 1, 74, 0
4, 1607, Note_on_c, 1, 71, 0
4, 1744, Note_on_c, 1, 54, 75
4, 1759, Note_on_c, 1, 54, 0
4, 1760, Note_on_c, 1, 50, 75
4, 1775, Note_on_c, 1, 50, 0
4, 1776, Note_on_c, 1, 55, 76
4, 1791, Note_on_c, 1, 55, 0
4, 1792, Note_on_c, 1, 52, 76
4, 1807, Note_on_c, 1, 52, 0
4, 1808, Note_on_c, 1, 57, 77
4, 1823, Note_on_c, 1, 57, 0
4, 1824, Note_on_c, 1, 54, 77
4, 1839, Note_on_c, 1, 54, 0
4, 1856, Note_on_c, 1, 74, 78
4, 1856, Note_on_c, 1, 72, 78
4, 1872, Note_on_c, 1, 72, 0
4, 1872, Note_on_c, 1, 71, 80
4, 1895, Note_on_c, 1, 74, 0
4, 1895, Note_on_c, 1, 71, 0
4, 2032, Note_on_c, 1, 54, 75
4, 2047, Note_on_c, 1, 54, 0
4, 2048, Note_on_c, 1, 50, 75
4, 2063, Note_on_c, 1, 50, 0
4, 2064, Note_on_c, 1, 55, 76
4, 2079, Note_on_c, 1, 55, 0
4, 2080, Note_on_c, 1, 52, 76
4, 2095, Note_on_c, 1, 52, 0
4, 2096, Note_on_c, 1, 57, 77
4, 2111, Note_on_c, 1, 57, 0
4, 2112, Note_on_c, 1, 54, 77
4, 2127, Note_on_c, 1, 54, 0
4, 2128, Note_on_c, 1, 59, 78
4, 2143, Note_on_c, 1, 59, 0
4, 2144, Note_on_c, 1, 55, 80
4, 2159, Note_on_c, 1, 55, 0
4, 2160, Note_on_c, 1, 60, 80
4, 2175, Note_on_c, 1, 60, 0
4, 2176, Note_on_c, 1, 57, 78
4, 2191, Note_on_c, 1, 57, 0
4, 2192, Note_on_c, 1, 62, 77
4, 2207, Note_on_c, 1, 62, 0
4, 2208, Note_on_c, 1, 64, 76
4, 2228, Note_on_c, 1, 64, 0
4, 2304, Note_on_c, 1, 52, 64
4, 2349, Note_on_c, 1, 52, 0
4, 2368, Note_on_c, 1, 64, 65
4, 2384, Note_on_c, 1, 64, 0
4, 2384, Note_on_c, 1, 52, 65
4, 2399, Note_on_c, 1, 52, 0
4, 2416, Note_on_c, 1, 62, 66
4, 2432, Note_on_c, 1, 62, 0
4, 2432, Note_on_c, 1, 50, 66
4, 2447, Note_on_c, 1, 50, 0
4, 2448, Note_on_c, 1, 48, 67
4, 2493, Note_on_c, 1, 48, 0
4, 2512, Note_on_c, 1, 60, 68
4, 2528, Note_on_c, 1, 60, 0
4, 2528, Note_on_c, 1, 48, 68
4, 2543, Note_on_c, 1, 48, 0
4, 2560, Note_on_c, 1, 59, 69
4, 2576, Note_on_c, 1, 59, 0
4, 2576, Note_on_c, 1, 47, 69
4, 2591, Note_on_c, 1, 47, 0
4, 2592, Note_on_c, 1, 45, 70
4, 2637, Note_on_c, 1, 45, 0
4, 2688, Note_on_c, 1, 58, 72
4, 2688, Note_on_c, 1, 55, 72
4, 2733, Note_on_c, 1, 58, 0
4, 2733, Note_on_c, 1, 55, 0
4, 2736, Note_on_c, 1, 57, 75
4, 2736, Note_on_c, 1, 54, 75
4, 2869, Note_on_c, 1, 57, 0
4, 2869, Note_on_c, 1, 54, 0
4, 2896, Note_on_c, 1, 55, 75
4, 2911, Note_on_c, 1, 55, 0
4, 2912, Note_on_c, 1, 59, 75
4, 2927, Note_on_c, 1, 59, 0
4, 2928, Note_on_c, 1, 60, 75
4, 2943, Note_on_c, 1, 60, 0
4, 2944, Note_on_c, 1, 57, 75
4, 2959, Note_on_c, 1, 57, 0
4, 2960, Note_on_c, 1, 61, 75
4, 2975, Note_on_c, 1, 61, 0
4, 2976, Note_on_c, 1, 62, 75
4, 2991, Note_on_c, 1, 62, 0
4, 2992, Note_on_c, 1, 50, 75
4, 3007, Note_on_c, 1, 50, 0
4, 3008, Note_on_c, 1, 62, 75
4, 3023, Note_on_c, 1, 62, 0
4, 3024, Note_on_c, 1, 64, 75
4, 3157, Note_on_c, 1, 64, 0
4, 3184, Note_on_c, 1, 55, 75
4, 3199, Note_on_c, 1, 55, 0
4, 3200, Note_on_c, 1, 59, 75
4, 3215, Note_on_c, 1, 59, 0
4, 3216, Note_on_c, 1, 60, 75
4, 3231, Note_on_c, 1, 60, 0
4, 3232, Note_on_c, 1, 57, 75
4, 3247, Note_on_c, 1, 57, 0
4, 3248, Note_on_c, 1, 61, 75
4, 3263, Note_on_c, 1, 61, 0
4, 3264, Note_on_c, 1, 62, 75
4, 3279, Note_on_c, 1, 62, 0
4, 3280, Note_on_c, 1, 50, 75
4, 3295, Note_on_c, 1, 50, 0
4, 3296, Note_on_c, 1, 62, 75
4, 3311, Note_on_c, 1, 62, 0
4, 3312, Note_on_c, 1, 64, 70
4, 3328, Note_on_c, 1, 64, 0
4, 3328, Note_on_c, 1, 62, 70
4, 3343, Note_on_c, 1, 62, 0
4, 3344, Note_on_c, 1, 60, 71
4, 3351, Note_on_c, 1, 60, 0
4, 3360, Note_on_c, 1, 60, 71
4, 3376, Note_on_c, 1, 60, 0
4, 3376, Note_on_c, 1, 59, 72
4, 3391, Note_on_c, 1, 59, 0
4, 3392, Note_on_c, 1, 64, 72
4, 3399, Note_on_c, 1, 64, 0
4, 3408, Note_on_c, 1, 64, 73
4, 3424, Note_on_c, 1, 64, 0
4, 3424, Note_on_c, 1, 62, 73
4, 3439, Note_on_c, 1, 62, 0
4, 3440, Note_on_c, 1, 60, 74
4, 3447, Note_on_c, 1, 60, 0
4, 3456, Note_on_c, 1, 60, 74
4, 3472, Note_on_c, 1, 60, 0
4, 3472, Note_on_c, 1, 59, 75
4, 3487, Note_on_c, 1, 59, 0
4, 3488, Note_on_c, 1, 64, 75
4, 3495, Note_on_c, 1, 64, 0
4, 3504, Note_on_c, 1, 64, 76
4, 3520, Note_on_c, 1, 64, 0
4, 3520, Note_on_c, 1, 62, 76
4, 3535, Note_on_c, 1, 62, 0
4, 3536, Note_on_c, 1, 60, 77
4, 3543, Note_on_c, 1, 60, 0
4, 3552, Note_on_c, 1, 60, 77
4, 3568, Note_on_c, 1, 60, 0
4, 3568, Note_on_c, 1, 59, 78
4, 3583, Note_on_c, 1, 59, 0
4, 3584, Note_on_c, 1, 57, 78
4, 3591, Note_on_c, 1, 57, 0
4, 3600, Note_on_c, 1, 57, 79
4, 3696, Note_on_c, 1, 57, 0
4, 3696, Note_on_c, 1, 55, 70
4, 3716, Note_on_c, 1, 55, 0
4, 3744, Note_on_c, 1, 36, 64
4, 3789, Note_on_c, 1, 36, 0
4, 3840, Note_on_c, 1, 38, 64
4, 3885, Note_on_c, 1, 38, 0
4, 3888, Note_on_c, 1, 43, 64
4, 4021, Note_on_c, 1, 43, 0
4, 4080, Note_on_c, 1, 67, 70
4, 4080, Note_on_c, 1, 64, 70
4, 4125, Note_on_c, 1, 67, 0
4, 4125, Note_on_c, 1, 64, 0
4, 4128, Note_on_c, 1, 69, 70
4, 4128, Note_on_c, 1, 66, 70
4, 4173, Note_on_c, 1, 69, 0
4, 4173, Note_on_c, 1, 66, 0
4, 4176, Note_on_c, 1, 71, 70
4, 4176, Note_on_c, 1, 67, 70
4, 4196, Note_on_c, 1, 71, 0
4, 4196, Note_on_c, 1, 67, 0
4, 4272, Note_on_c, 1, 67, 70
4, 4317, Note_on_c, 1, 67, 0
4, 4320, Note_on_c, 1, 69, 70
4, 4365, Note_on_c, 1, 69, 0
4, 4368, Note_on_c, 1, 67, 70
4, 4413, Note_on_c, 1, 67, 0
4, 4416, Note_on_c, 1, 66, 70
4, 4431, Note_on_c, 1, 66, 0
4, 4448, Note_on_c, 1, 63, 70
4, 4463, Note_on_c, 1, 63, 0
4, 4464, Note_on_c, 1, 64, 70
4, 4498, Note_on_c, 1, 64, 0
4, 4500, Note_on_c, 1, 58, 71
4, 4512, Note_on_c, 1, 58, 0
4, 4512, Note_on_c, 1, 59, 72
4, 4557, Note_on_c, 1, 59, 0
4, 4656, Note_on_c, 1, 55, 70
4, 4656, Note_on_c, 1, 52, 70
4, 4701, Note_on_c, 1, 55, 0
4, 4701, Note_on_c, 1, 52, 0
4, 4704, Note_on_c, 1, 57, 70
4, 4704, Note_on_c, 1, 54, 70
4, 4749, Note_on_c, 1, 57, 0
4, 4749, Note_on_c, 1, 54, 0
4, 4752, Note_on_c, 1, 59, 70
4, 4752, Note_on_c, 1, 55, 70
4, 4772, Note_on_c, 1, 59, 0
4, 4772, Note_on_c, 1, 55, 0
4, 4848, Note_on_c, 1, 55, 70
4, 4893, Note_on_c, 1, 55, 0
4, 4896, Note_on_c, 1, 57, 70
4, 4985, Note_on_c, 1, 57, 0
4, 4992, Note_on_c, 1, 50, 70
4, 5037, Note_on_c, 1, 50, 0
4, 5040, Note_on_c, 1, 55, 70
4, 5129, Note_on_c, 1, 55, 0
4, 5136, Note_on_c, 1, 47, 70
4, 5181, Note_on_c, 1, 47, 0
4, 5184, Note_on_c, 1, 48, 70
4, 5273, Note_on_c, 1, 48, 0
4, 5280, Note_on_c, 1, 49, 73
4, 5325, Note_on_c, 1, 49, 0
4, 5328, Note_on_c, 1, 50, 75
4, 5373, Note_on_c, 1, 50, 0
4, 5376, Note_on_c, 1, 45, 73
4, 5421, Note_on_c, 1, 45, 0
4, 5424, Note_on_c, 1, 38, 71
4, 5469, Note_on_c, 1, 38, 0
4, 5488, Note_on_c, 1, 54, 75
4, 5503, Note_on_c, 1, 54, 0
4, 5504, Note_on_c, 1, 50, 75
4, 5519, Note_on_c, 1, 50, 0
4, 5520, Note_on_c, 1, 55, 75
4, 5535, Note_on_c, 1, 55, 0
4, 5536, Note_on_c, 1, 52, 76
4, 5551, Note_on_c, 1, 52, 0
4, 5552, Note_on_c, 1, 57, 76
4, 5567, Note_on_c, 1, 57, 0
4, 5568, Note_on_c, 1, 54, 77
4, 5583, Note_on_c, 1, 54, 0
4, 5600, Note_on_c, 1, 74, 78
4, 5600, Note_on_c, 1, 72, 78
4, 5616, Note_on_c, 1, 72, 0
4, 5616, Note_on_c, 1, 71, 80
4, 5639, Note_on_c, 1, 74, 0
4, 5639, Note_on_c, 1, 71, 0
4, 5776, Note_on_c, 1, 54, 75
4, 5791, Note_on_c, 1, 54, 0
4, 5792, Note_on_c, 1, 50, 75
4, 5807, Note_on_c, 1, 50, 0
4, 5808, Note_on_c, 1, 55, 76
4, 5823, Note_on_c, 1, 55, 0
4, 5824, Note_on_c, 1, 52, 76
4, 5839, Note_on_c, 1, 52, 0
4, 5840, Note_on_c, 1, 57, 77
4, 5855, Note_on_c, 1, 57, 0
4, 5856, Note_on_c, 1, 54, 77
4, 5871, Note_on_c, 1, 54, 0
4, 5888, Note_on_c, 1, 74, 78
4, 5888, Note_on_c, 1, 72, 78
4, 5904, Note_on_c, 1, 72, 0
4, 5904, Note_on_c, 1, 71, 80
4, 5927, Note_on_c, 1, 74, 0
4, 5927, Note_on_c, 1, 71, 0
4, 6064, Note_on_c, 1, 54, 75
4, 6079, Note_on_c, 1, 54, 0
4, 6080, Note_on_c, 1, 50, 75
4, 6095, Note_on_c, 1, 50, 0
4, 6096, Note_on_c, 1, 55, 76
4, 6111, Note_on_c, 1, 55, 0
4, 6112, Note_on_c, 1, 52, 76
4, 6127, Note_on_c, 1, 52, 0
4, 6128, Note_on_c, 1, 57, 77
4, 6143, Note_on_c, 1, 57, 0
4, 6144, Note_on_c, 1, 54, 77
4, 6159, Note_on_c, 1, 54, 0
4, 6160, Note_on_c, 1, 59, 78
4, 6175, Note_on_c, 1, 59, 0
4, 6176, Note_on_c, 1, 55, 80
4, 6191, Note_on_c, 1, 55, 0
4, 6192, Note_on_c, 1, 60, 80
4, 6207, Note_on_c, 1, 60, 0
4, 6208, Note_on_c, 1, 57, 78
4, 6223, Note_on_c, 1, 57, 0
4, 6224, Note_on_c, 1, 62, 77
4, 6239, Note_on_c, 1, 62, 0
4, 6240, Note_on_c, 1, 64, 76
4, 6260, Note_on_c, 1, 64, 0
4, 6336, Note_on_c, 1, 52, 64
4, 6381, Note_on_c, 1, 52, 0
4, 6400, Note_on_c, 1, 64, 65
4, 6416, Note_on_c, 1, 64, 0
4, 6416, Note_on_c, 1, 52, 65
4, 6431, Note_on_c, 1, 52, 0
4, 6448, Note_on_c, 1, 62, 66
4, 6464, Note_on_c, 1, 62, 0
4, 6464, Note_on_c, 1, 50, 66
4, 6479, Note_on_c, 1, 50, 0
4, 6480, Note_on_c, 1, 48, 67
4, 6525, Note_on_c, 1, 48, 0
4, 6544, Note_on_c, 1, 60, 68
4, 6560, Note_on_c, 1, 60, 0
4, 6560, Note_on_c, 1, 48, 68
4, 6575, Note_on_c, 1, 48, 0
4, 6592, Note_on_c, 1, 59, 69
4, 6608, Note_on_c, 1, 59, 0
4, 6608, Note_on_c, 1, 47, 69
4, 6623, Note_on_c, 1, 47, 0
4, 6624, Note_on_c, 1, 45, 70
4, 6669, Note_on_c, 1, 45, 0
4, 6720, Note_on_c, 1, 58, 72
4, 6720, Note_on_c, 1, 55, 72
4, 6765, Note_on_c, 1, 58, 0
4, 6765, Note_on_c, 1, 55, 0
4, 6768, Note_on_c, 1, 57, 75
4, 6768, Note_on_c, 1, 54, 75
4, 6901, Note_on_c, 1, 57, 0
4, 6901, Note_on_c, 1, 54, 0
4, 6928, Note_on_c, 1, 55, 75
4, 6943, Note_on_c, 1, 55, 0
4, 6944, Note_on_c, 1, 59, 75
4, 6959, Note_on_c, 1, 59, 0
4, 6960, Note_on_c, 1, 60, 75
4, 6975, Note_on_c, 1, 60, 0
4, 6976, Note_on_c, 1, 57, 75
4, 6991, Note_on_c, 1, 57, 0
4, 6992, Note_on_c, 1, 61, 75
4, 7007, Note_on_c, 1, 61, 0
4, 7008, Note_on_c, 1, 62, 75
4, 7023, Note_on_c, 1, 62, 0
4, 7024, Note_on_c, 1, 50, 75
4, 7039, Note_on_c, 1, 50, 0
4, 7040, Note_on_c, 1, 62, 75
4, 7055, Note_on_c, 1, 62, 0
4, 7056, Note_on_c, 1, 64, 75
4, 7189, Note_on_c, 1, 64, 0
4, 7216, Note_on_c, 1, 55, 75
4, 7231, Note_on_c, 1, 55, 0
4, 7232, Note_on_c, 1, 59, 75
4, 7247, Note_on_c, 1, 59, 0
4, 7248, Note_on_c, 1, 60, 75
4, 7263, Note_on_c, 1, 60, 0
4, 7264, Note_on_c, 1, 57, 75
4, 7279, Note_on_c, 1, 57, 0
4, 7280, Note_on_c, 1, 61, 75
4, 7295, Note_on_c, 1, 61, 0
4, 7296, Note_on_c, 1, 62, 75
4, 7311, Note_on_c, 1, 62, 0
4, 7312, Note_on_c, 1, 50, 75
4, 7327, Note_on_c, 1, 50, 0
4, 7328, Note_on_c, 1, 62, 75
4, 7343, Note_on_c, 1, 62, 0
4, 7344, Note_on_c, 1, 64, 70
4, 7360, Note_on_c, 1, 64, 0
4, 7360, Note_on_c, 1, 62, 70
4, 7375, Note_on_c, 1, 62, 0
4, 7376, Note_on_c, 1, 60, 71
4, 7383, Note_on_c, 1, 60, 0
4, 7392, Note_on_c, 1, 60, 71
4, 7408, Note_on_c, 1, 60, 0
4, 7408, Note_on_c, 1, 59, 72
4, 7423, Note_on_c, 1, 59, 0
4, 7424, Note_on_c, 1, 64, 72
4, 7431, Note_on_c, 1, 64, 0
4, 7440, Note_on_c, 1, 64, 73
4, 7456, Note_on_c, 1, 64, 0
4, 7456, Note_on_c, 1, 62, 73
4, 7471, Note_on_c, 1, 62, 0
4, 7472, Note_on_c, 1, 60, 74
4, 7479, Note_on_c, 1, 60, 0
4, 7488, Note_on_c, 1, 60, 74
4, 7504, Note_on_c, 1, 60, 0
4, 7504, Note_on_c, 1, 59, 75
4, 7519, Note_on_c, 1, 59, 0
4, 7520, Note_on_c, 1, 64, 75
4, 7527, Note_on_c, 1, 64, 0
4, 7536, Note_on_c, 1, 64, 76
4, 7552, Note_on_c, 1, 64, 0
4, 7552, Note_on_c, 1, 62, 76
4, 7567, Note_on_c, 1, 62, 0
4, 7568, Note_on_c, 1, 60, 77
4, 7575, Note_on_c, 1, 60, 0
4, 7584, Note_on_c, 1, 60, 77
4, 7600, Note_on_c, 1, 60, 0
4, 7600, Note_on_c, 1, 59, 78
4, 7615, Note_on_c, 1, 59, 0
4, 7616, Note_on_c, 1, 57, 78
4, 7623, Note_on_c, 1, 57, 0
4, 7632, Note_on_c, 1, 57, 79
4, 7728, Note_on_c, 1, 57, 0
4, 7728, Note_on_c, 1, 55, 70
4, 7748, Note_on_c, 1, 55, 0
4, 7776, Note_on_c, 1, 36, 64
4, 7821, Note_on_c, 1, 36, 0
4, 7872, Note_on_c, 1, 38, 64
4, 7917, Note_on_c, 1, 38, 0
4, 7920, Note_on_c, 1, 43, 64
4, 8053, Note_on_c, 1, 43, 0
4, 8112, Note_on_c, 1, 71, 75
4, 8112, Note_on_c, 1, 67, 75
4, 8157, Note_on_c, 1, 71, 0
4, 8157, Note_on_c, 1, 67, 0
4, 8160, Note_on_c, 1, 72, 75
4, 8160, Note_on_c, 1, 69, 75
4, 8205, Note_on_c, 1, 72, 0
4, 8205, Note_on_c, 1, 69, 0
4, 8208, Note_on_c, 1, 74, 75
4, 8208, Note_on_c, 1, 71, 75
4, 8228, Note_on_c, 1, 74, 0
4, 8228, Note_on_c, 1, 71, 0
4, 8304, Note_on_c, 1, 71, 75
4, 8349, Note_on_c, 1, 71, 0
4, 8352, Note_on_c, 1, 72, 75
4, 8397, Note_on_c, 1, 72, 0
4, 8400, Note_on_c, 1, 71, 76
4, 8445, Note_on_c, 1, 71, 0
4, 8448, Note_on_c, 1, 69, 78
4, 8463, Note_on_c, 1, 69, 0
4, 8480, Note_on_c, 1, 66, 79
4, 8495, Note_on_c, 1, 66, 0
4, 8496, Note_on_c, 1, 67, 80
4, 8530, Note_on_c, 1, 67, 0
4, 8532, Note_on_c, 1, 61, 76
4, 8544, Note_on_c, 1, 61, 0
4, 8544, Note_on_c, 1, 62, 75
4, 8589, Note_on_c, 1, 62, 0
4, 8688, Note_on_c, 1, 59, 75
4, 8688, Note_on_c, 1, 55, 75
4, 8733, Note_on_c, 1, 59, 0
4, 8733, Note_on_c, 1, 55, 0
4, 8736, Note_on_c, 1, 60, 75
4, 8736, Note_on_c, 1, 57, 75
4, 8781, Note_on_c, 1, 60, 0
4, 8781, Note_on_c, 1, 57, 0
4, 8784, Note_on_c, 1, 62, 75
4, 8784, Note_on_c, 1, 59, 75
4, 8804, Note_on_c, 1, 62, 0
4, 8804, Note_on_c, 1, 59, 0
4, 8880, Note_on_c, 1, 53, 75
4, 8928, Note_on_c, 1, 53, 0
4, 8928, Note_on_c, 1, 52, 75
4, 8973, Note_on_c, 1, 52, 0
4, 9024, Note_on_c, 1, 56, 75
4, 9069, Note_on_c, 1, 56, 0
4, 9072, Note_on_c, 1, 57, 75
4, 9087, Note_on_c, 1, 57, 0
4, 9104, Note_on_c, 1, 60, 75
4, 9104, Note_on_c, 1, 51, 75
4, 9119, Note_on_c, 1, 60, 0
4, 9119, Note_on_c, 1, 51, 0
4, 9120, Note_on_c, 1, 59, 75
4, 9120, Note_on_c, 1, 52, 75
4, 9140, Note_on_c, 1, 59, 0
4, 9140, Note_on_c, 1, 52, 0
4, 9232, Note_on_c, 1, 56, 75
4, 9247, Note_on_c, 1, 56, 0
4, 9248, Note_on_c, 1, 52, 75
4, 9263, Note_on_c, 1, 52, 0
4, 9264, Note_on_c, 1, 57, 75
4, 9279, Note_on_c, 1, 57, 0
4, 9280, Note_on_c, 1, 54, 75
4, 9295, Note_on_c, 1, 54, 0
4, 9296, Note_on_c, 1, 59, 75
4, 9311, Note_on_c, 1, 59, 0
4, 9312, Note_on_c, 1, 56, 75
4, 9357, Note_on_c, 1, 56, 0
4, 9376, Note_on_c, 1, 61, 75
4, 9391, Note_on_c, 1, 61, 0
4, 9392, Note_on_c, 1, 57, 75
4, 9407, Note_on_c, 1, 57, 0
4, 9408, Note_on_c, 1, 62, 75
4, 9423, Note_on_c, 1, 62, 0
4, 9424, Note_on_c, 1, 59, 75
4, 9439, Note_on_c, 1, 59, 0
4, 9440, Note_on_c, 1, 64, 75
4, 9455, Note_on_c, 1, 64, 0
4, 9456, Note_on_c, 1, 61, 75
4, 9501, Note_on_c, 1, 61, 0
4, 9520, Note_on_c, 1, 54, 75
4, 9535, Note_on_c, 1, 54, 0
4, 9536, Note_on_c, 1, 50, 75
4, 9551, Note_on_c, 1, 50, 0
4, 9552, Note_on_c, 1, 55, 75
4, 9567, Note_on_c, 1, 55, 0
4, 9568, Note_on_c, 1, 52, 75
4, 9583, Note_on_c, 1, 52, 0
4, 9584, Note_on_c, 1, 57, 75
4, 9599, Note_on_c, 1, 57, 0
4, 9600, Note_on_c, 1, 54, 75
4, 9645, Note_on_c, 1, 54, 0
4, 9664, Note_on_c, 1, 59, 75
4, 9679, Note_on_c, 1, 59, 0
4, 9680, Note_on_c, 1, 55, 75
4, 9695, Note_on_c, 1, 55, 0
4, 9696, Note_on_c, 1, 60, 75
4, 9711, Note_on_c, 1, 60, 0
4, 9712, Note_on_c, 1, 57, 75
4, 9727, Note_on_c, 1, 57, 0
4, 9728, Note_on_c, 1, 62, 75
4, 9743, Note_on_c, 1, 62, 0
4, 9744, Note_on_c, 1, 59, 75
4, 9789, Note_on_c, 1, 59, 0
4, 9792, Note_on_c, 1, 72, 75
4, 9812, Note_on_c, 1, 72, 0
4, 9888, Note_on_c, 1, 68, 75
4, 9908, Note_on_c, 1, 68, 0
4, 9936, Note_on_c, 1, 69, 75
4, 9956, Note_on_c, 1, 69, 0
4, 10032, Note_on_c, 1, 64, 75
4, 10052, Note_on_c, 1, 64, 0
4, 10080, Note_on_c, 1, 66, 75
4, 10100, Note_on_c, 1, 66, 0
4, 10128, Note_on_c, 1, 63, 75
4, 10148, Note_on_c, 1, 63, 0
4, 10176, Note_on_c, 1, 64, 75
4, 10196, Note_on_c, 1, 64, 0
4, 10224, Note_on_c, 1, 60, 75
4, 10320, Note_on_c, 1, 60, 0
4, 10320, Note_on_c, 1, 58, 75
4, 10365, Note_on_c, 1, 58, 0
4, 10368, Note_on_c, 1, 59, 75
4, 10413, Note_on_c, 1, 59, 0
4, 10416, Note_on_c, 1, 47, 75
4, 10461, Note_on_c, 1, 47, 0
4, 10560, Note_on_c, 1, 67, 75
4, 10560, Note_on_c, 1, 64, 75
4, 10605, Note_on_c, 1, 67, 0
4, 10605, Note_on_c, 1, 64, 0
4, 10608, Note_on_c, 1, 69, 75
4, 10608, Note_on_c, 1, 66, 75
4, 10653, Note_on_c, 1, 69, 0
4, 10653, Note_on_c, 1, 66, 0
4, 10656, Note_on_c, 1, 71, 75
4, 10656, Note_on_c, 1, 67, 75
4, 10676, Note_on_c, 1, 71, 0
4, 10676, Note_on_c, 1, 67, 0
4, 10752, Note_on_c, 1, 67, 75
4, 10797, Note_on_c, 1, 67, 0
4, 10800, Note_on_c, 1, 69, 75
4, 10845, Note_on_c, 1, 69, 0
4, 10848, Note_on_c, 1, 67, 76
4, 10893, Note_on_c, 1, 67, 0
4, 10896, Note_on_c, 1, 66, 78
4, 10911, Note_on_c, 1, 66, 0
4, 10928, Note_on_c, 1, 63, 79
4, 10943, Note_on_c, 1, 63, 0
4, 10944, Note_on_c, 1, 64, 80
4, 10978, Note_on_c, 1, 64, 0
4, 10980, Note_on_c, 1, 58, 78
4, 10992, Note_on_c, 1, 58, 0
4, 10992, Note_on_c, 1, 59, 77
4, 11037, Note_on_c, 1, 59, 0
4, 11104, Note_on_c, 1, 51, 75
4, 11119, Note_on_c, 1, 51, 0
4, 11120, Note_on_c, 1, 47, 75
4, 11135, Note_on_c, 1, 47, 0
4, 11136, Note_on_c, 1, 52, 76
4, 11151, Note_on_c, 1, 52, 0
4, 11152, Note_on_c, 1, 49, 76
4, 11167, Note_on_c, 1, 49, 0
4, 11168, Note_on_c, 1, 54, 77
4, 11183, Note_on_c, 1, 54, 0
4, 11184, Note_on_c, 1, 51, 77
4, 11199, Note_on_c, 1, 51, 0
4, 11216, Note_on_c, 1, 71, 78
4, 11216, Note_on_c, 1, 69, 78
4, 11232, Note_on_c, 1, 69, 0
4, 11232, Note_on_c, 1, 67, 78
4, 11277, Note_on_c, 1, 71, 0
4, 11277, Note_on_c, 1, 67, 0
4, 11392, Note_on_c, 1, 51, 75
4, 11407, Note_on_c, 1, 51, 0
4, 11408, Note_on_c, 1, 47, 75
4, 11423, Note_on_c, 1, 47, 0
4, 11424, Note_on_c, 1, 52, 76
4, 11439, Note_on_c, 1, 52, 0
4, 11440, Note_on_c, 1, 49, 76
4, 11455, Note_on_c, 1, 49, 0
4, 11456, Note_on_c, 1, 54, 77
4, 11471, Note_on_c, 1, 54, 0
4, 11472, Note_on_c, 1, 51, 77
4, 11487, Note_on_c, 1, 51, 0
4, 11504, Note_on_c, 1, 71, 78
4, 11504, Note_on_c, 1, 69, 78
4, 11520, Note_on_c, 1, 69, 0
4, 11520, Note_on_c, 1, 67, 78
4, 11565, Note_on_c, 1, 71, 0
4, 11565, Note_on_c, 1, 67, 0
4, 11680, Note_on_c, 1, 51, 75
4, 11695, Note_on_c, 1, 51, 0
4, 11696, Note_on_c, 1, 47, 75
4, 11711, Note_on_c, 1, 47, 0
4, 11712, Note_on_c, 1, 52, 75
4, 11727, Note_on_c, 1, 52, 0
4, 11728, Note_on_c, 1, 49, 76
4, 11743, Note_on_c, 1, 49, 0
4, 11744, Note_on_c, 1, 54, 76
4, 11759, Note_on_c, 1, 54, 0
4, 11760, Note_on_c, 1, 51, 77
4, 11775, Note_on_c, 1, 51, 0
4, 11776, Note_on_c, 1, 55, 77
4, 11791, Note_on_c, 1, 55, 0
4, 11792, Note_on_c, 1, 52, 78
4, 11807, Note_on_c, 1, 52, 0
4, 11808, Note_on_c, 1, 57, 80
4, 11828, Note_on_c, 1, 57, 0
4, 11872, Note_on_c, 1, 69, 80
4, 11888, Note_on_c, 1, 69, 0
4, 11888, Note_on_c, 1, 57, 80
4, 11903, Note_on_c, 1, 57, 0
4, 11920, Note_on_c, 1, 67, 80
4, 11936, Note_on_c, 1, 67, 0
4, 11936, Note_on_c, 1, 55, 80
4, 11951, Note_on_c, 1, 55, 0
4, 11952, Note_on_c, 1, 54, 80
4, 11997, Note_on_c, 1, 54, 0
4, 12016, Note_on_c, 1, 66, 80
4, 12032, Note_on_c, 1, 66, 0
4, 12032, Note_on_c, 1, 54, 80
4, 12047, Note_on_c, 1, 54, 0
4, 12064, Note_on_c, 1, 64, 80
4, 12080, Note_on_c, 1, 64, 0
4, 12080, Note_on_c, 1, 52, 80
4, 12095, Note_on_c, 1, 52, 0
4, 12096, Note_on_c, 1, 60, 80
4, 12096, Note_on_c, 1, 57, 80
4, 12192, Note_on_c, 1, 60, 0
4, 12192, Note_on_c, 1, 57, 0
4, 12192, Note_on_c, 1, 59, 76
4, 12192, Note_on_c, 1, 55, 76
4, 12237, Note_on_c, 1, 59, 0
4, 12237, Note_on_c, 1, 55, 0
4, 12240, Note_on_c, 1, 57, 75
4, 12240, Note_on_c, 1, 54, 75
4, 12336, Note_on_c, 1, 57, 0
4, 12336, Note_on_c, 1, 51, 71
4, 12381, Note_on_c, 1, 54, 0
4, 12381, Note_on_c, 1, 51, 0
4, 12400, Note_on_c, 1, 52, 74
4, 12415, Note_on_c, 1, 52, 0
4, 12416, Note_on_c, 1, 55, 73
4, 12431, Note_on_c, 1, 55, 0
4, 12432, Note_on_c, 1, 57, 72
4, 12447, Note_on_c, 1, 57, 0
4, 12448, Note_on_c, 1, 54, 71
4, 12463, Note_on_c, 1, 54, 0
4, 12464, Note_on_c, 1, 58, 70
4, 12479, Note_on_c, 1, 58, 0
4, 12480, Note_on_c, 1, 59, 69
4, 12495, Note_on_c, 1, 59, 0
4, 12496, Note_on_c, 1, 47, 68
4, 12511, Note_on_c, 1, 47, 0
4, 12512, Note_on_c, 1, 59, 67
4, 12527, Note_on_c, 1, 59, 0
4, 12528, Note_on_c, 1, 60, 64
4, 12661, Note_on_c, 1, 60, 0
4, 12688, Note_on_c, 1, 64, 64
4, 12703, Note_on_c, 1, 64, 0
4, 12704, Note_on_c, 1, 67, 64
4, 12719, Note_on_c, 1, 67, 0
4, 12720, Note_on_c, 1, 69, 65
4, 12735, Note_on_c, 1, 69, 0
4, 12736, Note_on_c, 1, 66, 65
4, 12751, Note_on_c, 1, 66, 0
4, 12752, Note_on_c, 1, 70, 66
4, 12767, Note_on_c, 1, 70, 0
4, 12768, Note_on_c, 1, 71, 66
4, 12783, Note_on_c, 1, 71, 0
4, 12784, Note_on_c, 1, 59, 67
4, 12799, Note_on_c, 1, 59, 0
4, 12800, Note_on_c, 1, 71, 67
4, 12815, Note_on_c, 1, 71, 0
4, 12816, Note_on_c, 1, 68, 68
4, 12831, Note_on_c, 1, 68, 0
4, 12832, Note_on_c, 1, 64, 68
4, 12847, Note_on_c, 1, 64, 0
4, 12848, Note_on_c, 1, 68, 68
4, 12863, Note_on_c, 1, 68, 0
4, 12864, Note_on_c, 1, 69, 69
4, 12879, Note_on_c, 1, 69, 0
4, 12880, Note_on_c, 1, 57, 69
4, 12895, Note_on_c, 1, 57, 0
4, 12896, Note_on_c, 1, 69, 70
4, 12911, Note_on_c, 1, 69, 0
4, 12912, Note_on_c, 1, 66, 70
4, 12927, Note_on_c, 1, 66, 0
4, 12928, Note_on_c, 1, 62, 71
4, 12943, Note_on_c, 1, 62, 0
4, 12944, Note_on_c, 1, 66, 71
4, 12959, Note_on_c, 1, 66, 0
4, 12960, Note_on_c, 1, 67, 72
4, 12975, Note_on_c, 1, 67, 0
4, 12976, Note_on_c, 1, 55, 72
4, 12991, Note_on_c, 1, 55, 0
4, 12992, Note_on_c, 1, 67, 72
4, 13007, Note_on_c, 1, 67, 0
4, 13008, Note_on_c, 1, 64, 73
4, 13023, Note_on_c, 1, 64, 0
4, 13024, Note_on_c, 1, 60, 73
4, 13039, Note_on_c, 1, 60, 0
4, 13040, Note_on_c, 1, 64, 74
4, 13055, Note_on_c, 1, 64, 0
4, 13056, Note_on_c, 1, 66, 74
4, 13071, Note_on_c, 1, 66, 0
4, 13072, Note_on_c, 1, 54, 75
4, 13087, Note_on_c, 1, 54, 0
4, 13088, Note_on_c, 1, 66, 75
4, 13103, Note_on_c, 1, 66, 0
4, 13104, Note_on_c, 1, 63, 80
4, 13119, Note_on_c, 1, 63, 0
4, 13120, Note_on_c, 1, 59, 80
4, 13135, Note_on_c, 1, 59, 0
4, 13136, Note_on_c, 1, 63, 80
4, 13151, Note_on_c, 1, 63, 0
4, 13152, Note_on_c, 1, 64, 80
4, 13167, Note_on_c, 1, 64, 0
4, 13168, Note_on_c, 1, 52, 80
4, 13183, Note_on_c, 1, 52, 0
4, 13184, Note_on_c, 1, 60, 80
4, 13191, Note_on_c, 1, 60, 0
4, 13200, Note_on_c, 1, 60, 80
4, 13216, Note_on_c, 1, 60, 0
4, 13216, Note_on_c, 1, 59, 81
4, 13231, Note_on_c, 1, 59, 0
4, 13232, Note_on_c, 1, 57, 81
4, 13239, Note_on_c, 1, 57, 0
4, 13248, Note_on_c, 1, 57, 81
4, 13264, Note_on_c, 1, 57, 0
4, 13264, Note_on_c, 1, 55, 82
4, 13279, Note_on_c, 1, 55, 0
4, 13280, Note_on_c, 1, 60, 82
4, 13287, Note_on_c, 1, 60, 0
4, 13296, Note_on_c, 1, 60, 82
4, 13312, Note_on_c, 1, 60, 0
4, 13312, Note_on_c, 1, 59, 83
4, 13327, Note_on_c, 1, 59, 0
4, 13328, Note_on_c, 1, 57, 83
4, 13335, Note_on_c, 1, 57, 0
4, 13344, Note_on_c, 1, 57, 83
4, 13360, Note_on_c, 1, 57, 0
4, 13360, Note_on_c, 1, 55, 83
4, 13375, Note_on_c, 1, 55, 0
4, 13376, Note_on_c, 1, 54, 84
4, 13383, Note_on_c, 1, 54, 0
4, 13392, Note_on_c, 1, 54, 75
4, 13488, Note_on_c, 1, 54, 0
4, 13488, Note_on_c, 1, 55, 71
4, 13508, Note_on_c, 1, 55, 0
4, 13536, Note_on_c, 1, 45, 70
4, 13581, Note_on_c, 1, 45, 0
4, 13632, Note_on_c, 1, 47, 64
4, 13677, Note_on_c, 1, 47, 0
4, 13680, Note_on_c, 1, 40, 64
4, 13813, Note_on_c, 1, 40, 0
4, 13872, Note_on_c, 1, 71, 75
4, 13872, Note_on_c, 1, 67, 75
4, 13917, Note_on_c, 1, 71, 0
4, 13917, Note_on_c, 1, 67, 0
4, 13920, Note_on_c, 1, 72, 75
4, 13920, Note_on_c, 1, 69, 75
4, 13965, Note_on_c, 1, 72, 0
4, 13965, Note_on_c, 1, 69, 0
4, 13968, Note_on_c, 1, 74, 75
4, 13968, Note_on_c, 1, 71, 75
4, 13988, Note_on_c, 1, 74, 0
4, 13988, Note_on_c, 1, 71, 0
4, 14064, Note_on_c, 1, 71, 75
4, 14109, Note_on_c, 1, 71, 0
4, 14112, Note_on_c, 1, 72, 75
4, 14157, Note_on_c, 1, 72, 0
4, 14160, Note_on_c, 1, 71, 76
4, 14205, Note_on_c, 1, 71, 0
4, 14208, Note_on_c, 1, 69, 78
4, 14223, Note_on_c, 1, 69, 0
4, 14240, Note_on_c, 1, 66, 79
4, 14255, Note_on_c, 1, 66, 0
4, 14256, Note_on_c, 1, 67, 80
4, 14290, Note_on_c, 1, 67, 0
4, 14292, Note_on_c, 1, 61, 76
4, 14304, Note_on_c, 1, 61, 0
4, 14304, Note_on_c, 1, 62, 75
4, 14349, Note_on_c, 1, 62, 0
4, 14448, Note_on_c, 1, 59, 75
4, 14448, Note_on_c, 1, 55, 75
4, 14493, Note_on_c, 1, 59, 0
4, 14493, Note_on_c, 1, 55, 0
4, 14496, Note_on_c, 1, 60, 75
4, 14496, Note_on_c, 1, 57, 75
4, 14541, Note_on_c, 1, 60, 0
4, 14541, Note_on_c, 1, 57, 0
4, 14544, Note_on_c, 1, 62, 75
4, 14544, Note_on_c, 1, 59, 75
4, 14564, Note_on_c, 1, 62, 0
4, 14564, Note_on_c, 1, 59, 0
4, 14640, Note_on_c, 1, 53, 75
4, 14688, Note_on_c, 1, 53, 0
4, 14688, Note_on_c, 1, 52, 75
4, 14733, Note_on_c, 1, 52, 0
4, 14784, Note_on_c, 1, 56, 75
4, 14829, Note_on_c, 1, 56, 0
4, 14832, Note_on_c, 1, 57, 75
4, 14847, Note_on_c, 1, 57, 0
4, 14864, Note_on_c, 1, 60, 75
4, 14864, Note_on_c, 1, 51, 75
4, 14879, Note_on_c, 1, 60, 0
4, 14879, Note_on_c, 1, 51, 0
4, 14880, Note_on_c, 1, 59, 75
4, 14880, Note_on_c, 1, 52, 75
4, 14900, Note_on_c, 1, 59, 0
4, 14900, Note_on_c, 1, 52, 0
4, 14992, Note_on_c, 1, 56, 75
4, 15007, Note_on_c, 1, 56, 0
4, 15008, Note_on_c, 1, 52, 75
4, 15023, Note_on_c, 1, 52, 0
4, 15024, Note_on_c, 1, 57, 75
4, 15039, Note_on_c, 1, 57, 0
4, 15040, Note_on_c, 1, 54, 75
4, 15055, Note_on_c, 1, 54, 0
4, 15056, Note_on_c, 1, 59, 75
4, 15071, Note_on_c, 1, 59, 0
4, 15072, Note_on_c, 1, 56, 75
4, 15117, Note_on_c, 1, 56, 0
4, 15136, Note_on_c, 1, 61, 75
4, 15151, Note_on_c, 1, 61, 0
4, 15152, Note_on_c, 1, 57, 75
4, 15167, Note_on_c, 1, 57, 0
4, 15168, Note_on_c, 1, 62, 75
4, 15183, Note_on_c, 1, 62, 0
4, 15184, Note_on_c, 1, 59, 75
4, 15199, Note_on_c, 1, 59, 0
4, 15200, Note_on_c, 1, 64, 75
4, 15215, Note_on_c, 1, 64, 0
4, 15216, Note_on_c, 1, 61, 75
4, 15261, Note_on_c, 1, 61, 0
4, 15280, Note_on_c, 1, 54, 75
4, 15295, Note_on_c, 1, 54, 0
4, 15296, Note_on_c, 1, 50, 75
4, 15311, Note_on_c, 1, 50, 0
4, 15312, Note_on_c, 1, 55, 75
4, 15327, Note_on_c, 1, 55, 0
4, 15328, Note_on_c, 1, 52, 75
4, 15343, Note_on_c, 1, 52, 0
4, 15344, Note_on_c, 1, 57, 75
4, 15359, Note_on_c, 1, 57, 0
4, 15360, Note_on_c, 1, 54, 75
4, 15405, Note_on_c, 1, 54, 0
4, 15424, Note_on_c, 1, 59, 75
4, 15439, Note_on_c, 1, 59, 0
4, 15440, Note_on_c, 1, 55, 75
4, 15455, Note_on_c, 1, 55, 0
4, 15456, Note_on_c, 1, 60, 75
4, 15471, Note_on_c, 1, 60, 0
4, 15472, Note_on_c, 1, 57, 75
4, 15487, Note_on_c, 1, 57, 0
4, 15488, Note_on_c, 1, 62, 75
4, 15503, Note_on_c, 1, 62, 0
4, 15504, Note_on_c, 1, 59, 75
4, 15549, Note_on_c, 1, 59, 0
4, 15552, Note_on_c, 1, 72, 75
4, 15572, Note_on_c, 1, 72, 0
4, 15648, Note_on_c, 1, 68, 75
4, 15668, Note_on_c, 1, 68, 0
4, 15696, Note_on_c, 1, 69, 75
4, 15716, Note_on_c, 1, 69, 0
4, 15792, Note_on_c, 1, 64, 75
4, 15812, Note_on_c, 1, 64, 0
4, 15840, Note_on_c, 1, 66, 75
4, 15860, Note_on_c, 1, 66, 0
4, 15888, Note_on_c, 1, 63, 75
4, 15908, Note_on_c, 1, 63, 0
4, 15936, Note_on_c, 1, 64, 75
4, 15956, Note_on_c, 1, 64, 0
4, 15984, Note_on_c, 1, 60, 75
4, 16080, Note_on_c, 1, 60, 0
4, 16080, Note_on_c, 1, 58, 75
4, 16125, Note_on_c, 1, 58, 0
4, 16128, Note_on_c, 1, 59, 75
4, 16173, Note_on_c, 1, 59, 0
4, 16176, Note_on_c, 1, 47, 75
4, 16221, Note_on_c, 1, 47, 0
4, 16320, Note_on_c, 1, 67, 75
4, 16320, Note_on_c, 1, 64, 75
4, 16365, Note_on_c, 1, 67, 0
4, 16365, Note_on_c, 1, 64, 0
4, 16368, Note_on_c, 1, 69, 75
4, 16368, Note_on_c, 1, 66, 75
4, 16413, Note_on_c, 1, 69, 0
4, 16413, Note_on_c, 1, 66, 0
4, 16416, Note_on_c, 1, 71, 75
4, 16416, Note_on_c, 1, 67, 75
4, 16436, Note_on_c, 1, 71, 0
4, 16436, Note_on_c, 1, 67, 0
4, 16512, Note_on_c, 1, 67, 75
4, 16557, Note_on_c, 1, 67, 0
4, 16560, Note_on_c, 1, 69, 75
4, 16605, Note_on_c, 1, 69, 0
4, 16608, Note_on_c, 1, 67, 76
4, 16653, Note_on_c, 1, 67, 0
4, 16656, Note_on_c, 1, 66, 78
4, 16671, Note_on_c, 1, 66, 0
4, 16688, Note_on_c, 1, 63, 79
4, 16703, Note_on_c, 1, 63, 0
4, 16704, Note_on_c, 1, 64, 80
4, 16738, Note_on_c, 1, 64, 0
4, 16740, Note_on_c, 1, 58, 78
4, 16752, Note_on_c, 1, 58, 0
4, 16752, Note_on_c, 1, 59, 77
4, 16797, Note_on_c, 1, 59, 0
4, 16864, Note_on_c, 1, 51, 75
4, 16879, Note_on_c, 1, 51, 0
4, 16880, Note_on_c, 1, 47, 75
4, 16895, Note_on_c, 1, 47, 0
4, 16896, Note_on_c, 1, 52, 76
4, 16911, Note_on_c, 1, 52, 0
4, 16912, Note_on_c, 1, 49, 76
4, 16927, Note_on_c, 1, 49, 0
4, 16928, Note_on_c, 1, 54, 77
4, 16943, Note_on_c, 1, 54, 0
4, 16944, Note_on_c, 1, 51, 77
4, 16959, Note_on_c, 1, 51, 0
4, 16976, Note_on_c, 1, 71, 78
4, 16976, Note_on_c, 1, 69, 78
4, 16992, Note_on_c, 1, 69, 0
4, 16992, Note_on_c, 1, 67, 78
4, 17037, Note_on_c, 1, 71, 0
4, 17037, Note_on_c, 1, 67, 0
4, 17152, Note_on_c, 1, 51, 75
4, 17167, Note_on_c, 1, 51, 0
4, 17168, Note_on_c, 1, 47, 75
4, 17183, Note_on_c, 1, 47, 0
4, 17184, Note_on_c, 1, 52, 76
4, 17199, Note_on_c, 1, 52, 0
4, 17200, Note_on_c, 1, 49, 76
4, 17215, Note_on_c, 1, 49, 0
4, 17216, Note_on_c, 1, 54, 77
4, 17231, Note_on_c, 1, 54, 0
4, 17232, Note_on_c, 1, 51, 77
4, 17247, Note_on_c, 1, 51, 0
4, 17264, Note_on_c, 1, 71, 78
4, 17264, Note_on_c, 1, 69, 78
4, 17280, Note_on_c, 1, 69, 0
4, 17280, Note_on_c, 1, 67, 78
4, 17325, Note_on_c, 1, 71, 0
4, 17325, Note_on_c, 1, 67, 0
4, 17440, Note_on_c, 1, 51, 75
4, 17455, Note_on_c, 1, 51, 0
4, 17456, Note_on_c, 1, 47, 75
4, 17471, Note_on_c, 1, 47, 0
4, 17472, Note_on_c, 1, 52, 75
4, 17487, Note_on_c, 1, 52, 0
4, 17488, Note_on_c, 1, 49, 76
4, 17503, Note_on_c, 1, 49, 0
4, 17504, Note_on_c, 1, 54, 76
4, 17519, Note_on_c, 1, 54, 0
4, 17520, Note_on_c, 1, 51, 77
4, 17535, Note_on_c, 1, 51, 0
4, 17536, Note_on_c, 1, 55, 77
4, 17551, Note_on_c, 1, 55, 0
4, 17552, Note_on_c, 1, 52, 78
4, 17567, Note_on_c, 1, 52, 0
4, 17568, Note_on_c, 1, 57, 80
4, 17588, Note_on_c, 1, 57, 0
4, 17632, Note_on_c, 1, 69, 80
4, 17648, Note_on_c, 1, 69, 0
4, 17648, Note_on_c, 1, 57, 80
4, 17663, Note_on_c, 1, 57, 0
4, 17680, Note_on_c, 1, 67, 80
4, 17696, Note_on_c, 1, 67, 0
4, 17696, Note_on_c, 1, 55, 80
4, 17711, Note_on_c, 1, 55, 0
4, 17712, Note_on_c, 1, 54, 80
4, 17757, Note_on_c, 1, 54, 0
4, 17776, Note_on_c, 1, 66, 80
4, 17792, Note_on_c, 1, 66, 0
4, 17792, Note_on_c, 1, 54, 80
4, 17807, Note_on_c, 1, 54, 0
4, 17824, Note_on_c, 1, 64, 80
4, 17840, Note_on_c, 1, 64, 0
4, 17840, Note_on_c, 1, 52, 80
4, 17855, Note_on_c, 1, 52, 0
4, 17856, Note_on_c, 1, 60, 80
4, 17856, Note_on_c, 1, 57, 80
4, 17952, Note_on_c, 1, 60, 0
4, 17952, Note_on_c, 1, 57, 0
4, 17952, Note_on_c, 1, 59, 76
4, 17952, Note_on_c, 1, 55, 76
4, 17997, Note_on_c, 1, 59, 0
4, 17997, Note_on_c, 1, 55, 0
4, 18000, Note_on_c, 1, 57, 75
4, 18000, Note_on_c, 1, 54, 75
4, 18096, Note_on_c, 1, 57, 0
4, 18096, Note_on_c, 1, 51, 71
4, 18141, Note_on_c, 1, 54, 0
4, 18141, Note_on_c, 1, 51, 0
4, 18160, Note_on_c, 1, 52, 74
4, 18175, Note_on_c, 1, 52, 0
4, 18176, Note_on_c, 1, 55, 73
4, 18191, Note_on_c, 1, 55, 0
4, 18192, Note_on_c, 1, 57, 72
4, 18207, Note_on_c, 1, 57, 0
4, 18208, Note_on_c, 1, 54, 71
4, 18223, Note_on_c, 1, 54, 0
4, 18224, Note_on_c, 1, 58, 70
4, 18239, Note_on_c, 1, 58, 0
4, 18240, Note_on_c, 1, 59, 69
4, 18255, Note_on_c, 1, 59, 0
4, 18256, Note_on_c, 1, 47, 68
4, 18271, Note_on_c, 1, 47, 0
4, 18272, Note_on_c, 1, 59, 67
4, 18287, Note_on_c, 1, 59, 0
4, 18288, Note_on_c, 1, 60, 64
4, 18421, Note_on_c, 1, 60, 0
4, 18448, Note_on_c, 1, 64, 64
4, 18463, Note_on_c, 1, 64, 0
4, 18464, Note_on_c, 1, 67, 64
4, 18479, Note_on_c, 1, 67, 0
4, 18480, Note_on_c, 1, 69, 65
4, 18495, Note_on_c, 1, 69, 0
4, 18496, Note_on_c, 1, 66, 65
4, 18511, Note_on_c, 1, 66, 0
4, 18512, Note_on_c, 1, 70, 66
4, 18527, Note_on_c, 1, 70, 0
4, 18528, Note_on_c, 1, 71, 66
4, 18543, Note_on_c, 1, 71, 0
4, 18544, Note_on_c, 1, 59, 67
4, 18559, Note_on_c, 1, 59, 0
4, 18560, Note_on_c, 1, 71, 67
4, 18575, Note_on_c, 1, 71, 0
4, 18576, Note_on_c, 1, 68, 68
4, 18591, Note_on_c, 1, 68, 0
4, 18592, Note_on_c, 1, 64, 68
4, 18607, Note_on_c, 1, 64, 0
4, 18608, Note_on_c, 1, 68, 68
4, 18623, Note_on_c, 1, 68, 0
4, 18624, Note_on_c, 1, 69, 69
4, 18639, Note_on_c, 1, 69, 0
4, 18640, Note_on_c, 1, 57, 69
4, 18655, Note_on_c, 1, 57, 0
4, 18656, Note_on_c, 1, 69, 70
4, 18671, Note_on_c, 1, 69, 0
4, 18672, Note_on_c, 1, 66, 70
4, 18687, Note_on_c, 1, 66, 0
4, 18688, Note_on_c, 1, 62, 71
4, 18703, Note_on_c, 1, 62, 0
4, 18704, Note_on_c, 1, 66, 71
4, 18719, Note_on_c, 1, 66, 0
4, 18720, Note_on_c, 1, 67, 72
4, 18735, Note_on_c, 1, 67, 0
4, 18736, Note_on_c, 1, 55, 72
4, 18751, Note_on_c, 1, 55, 0
4, 18752, Note_on_c, 1, 67, 72
4, 18767, Note_on_c, 1, 67, 0
4, 18768, Note_on_c, 1, 64, 73
4, 18783, Note_on_c, 1, 64, 0
4, 18784, Note_on_c, 1, 60, 73
4, 18799, Note_on_c, 1, 60, 0
4, 18800, Note_on_c, 1, 64, 74
4, 18815, Note_on_c, 1, 64, 0
4, 18816, Note_on_c, 1, 66, 74
4, 18831, Note_on_c, 1, 66, 0
4, 18832, Note_on_c, 1, 54, 75
4, 18847, Note_on_c, 1, 54, 0
4, 18848, Note_on_c, 1, 66, 75
4, 18863, Note_on_c, 1, 66, 0
4, 18864, Note_on_c, 1, 63, 80
4, 18879, Note_on_c, 1, 63, 0
4, 18880, Note_on_c, 1, 59, 80
4, 18895, Note_on_c, 1, 59, 0
4, 18896, Note_on_c, 1, 63, 80
4, 18911, Note_on_c, 1, 63, 0
4, 18912, Note_on_c, 1, 64, 80
4, 18927, Note_on_c, 1, 64, 0
4, 18928, Note_on_c, 1, 52, 80
4, 18943, Note_on_c, 1, 52, 0
4, 18944, Note_on_c, 1, 60, 80
4, 18951, Note_on_c, 1, 60, 0
4, 18960, Note_on_c, 1, 60, 80
4, 18976, Note_on_c, 1, 60, 0
4, 18976, Note_on_c, 1, 59, 81
4, 18991, Note_on_c, 1, 59, 0
4, 18992, Note_on_c, 1, 57, 81
4, 18999, Note_on_c, 1, 57, 0
4, 19008, Note_on_c, 1, 57, 81
4, 19024, Note_on_c, 1, 57, 0
4, 19024, Note_on_c, 1, 55, 82
4, 19039, Note_on_c, 1, 55, 0
4, 19040, Note_on_c, 1, 60, 82
4, 19047, Note_on_c, 1, 60, 0
4, 19056, Note_on_c, 1, 60, 82
4, 19072, Note_on_c, 1, 60, 0
4, 19072, Note_on_c, 1, 59, 83
4, 19087, Note_on_c, 1, 59, 0
4, 19088, Note_on_c, 1, 57, 83
4, 19095, Note_on_c, 1, 57, 0
4, 19104, Note_on_c, 1, 57, 83
4, 19120, Note_on_c, 1, 57, 0
4, 19120, Note_on_c, 1, 55, 83
4, 19135, Note_on_c, 1, 55, 0
4, 19136, Note_on_c, 1, 54, 84
4, 19143, Note_on_c, 1, 54, 0
4, 19152, Note_on_c, 1, 54, 75
4, 19248, Note_on_c, 1, 54, 0
4, 19248, Note_on_c, 1, 55, 71
4, 19268, Note_on_c, 1, 55, 0
4, 19296, Note_on_c, 1, 45, 70
4, 19341, Note_on_c, 1, 45, 0
4, 19392, Note_on_c, 1, 47, 64
4, 19437, Note_on_c, 1, 47, 0
4, 19440, Note_on_c, 1, 40, 64
4, 19573, Note_on_c, 1, 40, 0
4, 19584, Note_on_c, 1, 40, 0
4, 19673, Note_on_c, 1, 40, 0
4, 19680, End_track
5, 0, Start_track
5, 0, Program_c, 1, 0
5, 0, Control_c, 1, 7, 127
5, 0, Control_c, 1, 10, 64
5, 19584, End_track
6, 0, Start_track
6, 0, Title_t, "Sonata I   Haydn  "
6, 0, End_track
0, 0, End_of_file
