0, 0, Header, 1, 6, 96
1, 0, Start_track
1, 0, Copyright_t, "Copyright  2000 <copyright holder>"
1, 0, Text_t, "Sonata I\015\012"
1, 0, Text_t, "Haydn\015\012"
1, 0, Sequencer_specific, 16, 68, 87, 77, 90, 86, 82, 83, 78, 32, 55, 46, 49, 46, 51, 46, 48
1, 0, Time_signature, 3, 2, 24, 8
1, 0, Tempo, 444444
1, 0, Key_signature, -3, "major"
1, 6912, Tempo, 1000000
1, 7104, Tempo, 444444
1, 11520, Tempo, 500000
1, 12000, Tempo, 705882
1, 12096, Tempo, 444444
1, 16992, Tempo, 500000
1, 17280, Tempo, 444444
1, 25344, Tempo, 1000000
1, 25536, Tempo, 444444
1, 29952, Tempo, 500000
1, 30432, Tempo, 705882
1, 30528, Tempo, 444444
1, 35424, Tempo, 500000
1, 35712, Tempo, 444444
1, 57408, Tempo, 461538
1, 57600, Tempo, 600000
1, 57696, Tempo, 1000000
1, 57792, Tempo, 444444
1, 68832, Tempo, 500000
1, 69312, Tempo, 705882
1, 69408, Tempo, 444444
1, 73152, Tempo, 500000
1, 73440, Tempo, 444444
1, 75840, Tempo, 500000
1, 76032, Tempo, 1000000
1, 76272, Tempo, 444444
1, 103200, Tempo, 461538
1, 103392, Tempo, 600000
1, 103488, Tempo, 1000000
1, 103584, Tempo, 444444
1, 114624, Tempo, 500000
1, 115104, Tempo, 705882
1, 115200, Tempo, 444444
1, 118944, Tempo, 500000
1, 119232, Tempo, 444444
1, 121632, Tempo, 500000
1, 121824, Tempo, 1000000
1, 122064, Tempo, 444444
1, 128736, End_track
2, 0, Start_track
2, 0, Program_c, 0, 0
2, 0, Control_c, 0, 7, 127
2, 0, Control_c, 0, 10, 64
2, 192, Note_on_c, 0, 55, 75
2, 216, Note_on_c, 0, 55, 0
2, 216, Note_on_c, 0, 58, 75
2, 239, Note_on_c, 0, 58, 0
2, 240, Note_on_c, 0, 56, 75
2, 264, Note_on_c, 0, 56, 0
2, 264, Note_on_c, 0, 60, 75
2, 287, Note_on_c, 0, 60, 0
2, 288, Note_on_c, 0, 58, 75
2, 308, Note_on_c, 0, 58, 0
2, 480, Note_on_c, 0, 67, 75
2, 504, Note_on_c, 0, 67, 0
2, 504, Note_on_c, 0, 63, 75
2, 527, Note_on_c, 0, 63, 0
2, 528, Note_on_c, 0, 62, 75
2, 552, Note_on_c, 0, 62, 0
2, 552, Note_on_c, 0, 65, 75
2, 575, Note_on_c, 0, 65, 0
2, 576, Note_on_c, 0, 63, 75
2, 596, Note_on_c, 0, 63, 0
2, 720, Note_on_c, 0, 63, 75
2, 740, Note_on_c, 0, 63, 0
2, 768, Note_on_c, 0, 67, 75
2, 788, Note_on_c, 0, 67, 0
2, 816, Note_on_c, 0, 70, 75
2, 836, Note_on_c, 0, 70, 0
2, 864, Note_on_c, 0, 70, 87
2, 960, Note_on_c, 0, 70, 0
2, 960, Note_on_c, 0, 68, 75
2, 1005, Note_on_c, 0, 68, 0
2, 1008, Note_on_c, 0, 67, 75
2, 1053, Note_on_c, 0, 67, 0
2, 1056, Note_on_c, 0, 65, 75
2, 1101, Note_on_c, 0, 65, 0
2, 1104, Note_on_c, 0, 63, 75
2, 1149, Note_on_c, 0, 63, 0
2, 1152, Note_on_c, 0, 62, 75
2, 1224, Note_on_c, 0, 62, 0
2, 1224, Note_on_c, 0, 65, 75
2, 1247, Note_on_c, 0, 65, 0
2, 1248, Note_on_c, 0, 68, 75
2, 1268, Note_on_c, 0, 68, 0
2, 1344, Note_on_c, 0, 58, 75
2, 1368, Note_on_c, 0, 58, 0
2, 1368, Note_on_c, 0, 62, 75
2, 1391, Note_on_c, 0, 62, 0
2, 1392, Note_on_c, 0, 60, 75
2, 1416, Note_on_c, 0, 60, 0
2, 1416, Note_on_c, 0, 63, 75
2, 1439, Note_on_c, 0, 63, 0
2, 1440, Note_on_c, 0, 62, 75
2, 1460, Note_on_c, 0, 62, 0
2, 1632, Note_on_c, 0, 62, 75
2, 1656, Note_on_c, 0, 62, 0
2, 1656, Note_on_c, 0, 65, 75
2, 1679, Note_on_c, 0, 65, 0
2, 1680, Note_on_c, 0, 63, 75
2, 1704, Note_on_c, 0, 63, 0
2, 1704, Note_on_c, 0, 67, 75
2, 1727, Note_on_c, 0, 67, 0
2, 1728, Note_on_c, 0, 65, 75
2, 1748, Note_on_c, 0, 65, 0
2, 1872, Note_on_c, 0, 65, 75
2, 1892, Note_on_c, 0, 65, 0
2, 1920, Note_on_c, 0, 68, 75
2, 1940, Note_on_c, 0, 68, 0
2, 1968, Note_on_c, 0, 72, 75
2, 1988, Note_on_c, 0, 72, 0
2, 2016, Note_on_c, 0, 72, 87
2, 2112, Note_on_c, 0, 72, 0
2, 2112, Note_on_c, 0, 70, 75
2, 2157, Note_on_c, 0, 70, 0
2, 2160, Note_on_c, 0, 68, 75
2, 2205, Note_on_c, 0, 68, 0
2, 2208, Note_on_c, 0, 67, 75
2, 2253, Note_on_c, 0, 67, 0
2, 2256, Note_on_c, 0, 65, 75
2, 2301, Note_on_c, 0, 65, 0
2, 2304, Note_on_c, 0, 63, 75
2, 2316, Note_on_c, 0, 63, 0
2, 2316, Note_on_c, 0, 65, 75
2, 2328, Note_on_c, 0, 65, 0
2, 2328, Note_on_c, 0, 63, 75
2, 2340, Note_on_c, 0, 63, 0
2, 2340, Note_on_c, 0, 62, 75
2, 2352, Note_on_c, 0, 62, 0
2, 2352, Note_on_c, 0, 63, 75
2, 2376, Note_on_c, 0, 63, 0
2, 2376, Note_on_c, 0, 67, 75
2, 2399, Note_on_c, 0, 67, 0
2, 2400, Note_on_c, 0, 70, 75
2, 2420, Note_on_c, 0, 70, 0
2, 2496, Note_on_c, 0, 75, 75
2, 2520, Note_on_c, 0, 75, 0
2, 2520, Note_on_c, 0, 74, 75
2, 2543, Note_on_c, 0, 74, 0
2, 2544, Note_on_c, 0, 77, 75
2, 2568, Note_on_c, 0, 77, 0
2, 2568, Note_on_c, 0, 75, 75
2, 2591, Note_on_c, 0, 75, 0
2, 2592, Note_on_c, 0, 79, 75
2, 2615, Note_on_c, 0, 79, 0
2, 2616, Note_on_c, 0, 77, 75
2, 2639, Note_on_c, 0, 77, 0
2, 2640, Note_on_c, 0, 80, 76
2, 2663, Note_on_c, 0, 80, 0
2, 2664, Note_on_c, 0, 79, 77
2, 2687, Note_on_c, 0, 79, 0
2, 2688, Note_on_c, 0, 82, 78
2, 2711, Note_on_c, 0, 82, 0
2, 2712, Note_on_c, 0, 80, 79
2, 2735, Note_on_c, 0, 80, 0
2, 2736, Note_on_c, 0, 79, 80
2, 2759, Note_on_c, 0, 79, 0
2, 2760, Note_on_c, 0, 77, 79
2, 2783, Note_on_c, 0, 77, 0
2, 2784, Note_on_c, 0, 75, 78
2, 2807, Note_on_c, 0, 75, 0
2, 2808, Note_on_c, 0, 74, 77
2, 2831, Note_on_c, 0, 74, 0
2, 2832, Note_on_c, 0, 72, 76
2, 2855, Note_on_c, 0, 72, 0
2, 2856, Note_on_c, 0, 71, 75
2, 2879, Note_on_c, 0, 71, 0
2, 2880, Note_on_c, 0, 71, 75
2, 2976, Note_on_c, 0, 71, 0
2, 2976, Note_on_c, 0, 72, 77
2, 2996, Note_on_c, 0, 72, 0
2, 3024, Note_on_c, 0, 74, 78
2, 3030, Note_on_c, 0, 74, 0
2, 3030, Note_on_c, 0, 72, 78
2, 3036, Note_on_c, 0, 72, 0
2, 3036, Note_on_c, 0, 71, 78
2, 3042, Note_on_c, 0, 71, 0
2, 3042, Note_on_c, 0, 72, 78
2, 3069, Note_on_c, 0, 72, 0
2, 3072, Note_on_c, 0, 74, 79
2, 3117, Note_on_c, 0, 74, 0
2, 3120, Note_on_c, 0, 75, 80
2, 3165, Note_on_c, 0, 75, 0
2, 3168, Note_on_c, 0, 75, 80
2, 3216, Note_on_c, 0, 75, 0
2, 3216, Note_on_c, 0, 65, 79
2, 3261, Note_on_c, 0, 65, 0
2, 3264, Note_on_c, 0, 72, 78
2, 3312, Note_on_c, 0, 72, 0
2, 3312, Note_on_c, 0, 60, 77
2, 3357, Note_on_c, 0, 60, 0
2, 3360, Note_on_c, 0, 68, 77
2, 3408, Note_on_c, 0, 68, 0
2, 3408, Note_on_c, 0, 62, 76
2, 3453, Note_on_c, 0, 62, 0
2, 3456, Note_on_c, 0, 63, 75
2, 3476, Note_on_c, 0, 63, 0
2, 3696, Note_on_c, 0, 58, 75
2, 3716, Note_on_c, 0, 58, 0
2, 3744, Note_on_c, 0, 63, 75
2, 3981, Note_on_c, 0, 63, 0
2, 3984, Note_on_c, 0, 62, 75
2, 4004, Note_on_c, 0, 62, 0
2, 4032, Note_on_c, 0, 68, 75
2, 4269, Note_on_c, 0, 68, 0
2, 4272, Note_on_c, 0, 67, 75
2, 4292, Note_on_c, 0, 67, 0
2, 4320, Note_on_c, 0, 75, 75
2, 4557, Note_on_c, 0, 75, 0
2, 4560, Note_on_c, 0, 74, 75
2, 4580, Note_on_c, 0, 74, 0
2, 4608, Note_on_c, 0, 80, 75
2, 4845, Note_on_c, 0, 80, 0
2, 4848, Note_on_c, 0, 79, 75
2, 4868, Note_on_c, 0, 79, 0
2, 4896, Note_on_c, 0, 84, 75
2, 5133, Note_on_c, 0, 84, 0
2, 5136, Note_on_c, 0, 83, 75
2, 5156, Note_on_c, 0, 83, 0
2, 5184, Note_on_c, 0, 86, 75
2, 5184, Note_on_c, 0, 77, 75
2, 5421, Note_on_c, 0, 86, 0
2, 5421, Note_on_c, 0, 77, 0
2, 5424, Note_on_c, 0, 84, 75
2, 5424, Note_on_c, 0, 75, 75
2, 5444, Note_on_c, 0, 84, 0
2, 5444, Note_on_c, 0, 75, 0
2, 5472, Note_on_c, 0, 87, 75
2, 5472, Note_on_c, 0, 79, 75
2, 5605, Note_on_c, 0, 87, 0
2, 5605, Note_on_c, 0, 79, 0
2, 5616, Note_on_c, 0, 86, 76
2, 5616, Note_on_c, 0, 77, 76
2, 5661, Note_on_c, 0, 86, 0
2, 5661, Note_on_c, 0, 77, 0
2, 5664, Note_on_c, 0, 84, 77
2, 5664, Note_on_c, 0, 75, 77
2, 5709, Note_on_c, 0, 84, 0
2, 5709, Note_on_c, 0, 75, 0
2, 5712, Note_on_c, 0, 82, 78
2, 5712, Note_on_c, 0, 74, 78
2, 5757, Note_on_c, 0, 82, 0
2, 5757, Note_on_c, 0, 74, 0
2, 5760, Note_on_c, 0, 82, 78
2, 5760, Note_on_c, 0, 74, 78
2, 5856, Note_on_c, 0, 82, 0
2, 5856, Note_on_c, 0, 74, 0
2, 5856, Note_on_c, 0, 81, 80
2, 5856, Note_on_c, 0, 72, 80
2, 5876, Note_on_c, 0, 81, 0
2, 5876, Note_on_c, 0, 72, 0
2, 5904, Note_on_c, 0, 79, 92
2, 5949, Note_on_c, 0, 79, 0
2, 5952, Note_on_c, 0, 77, 80
2, 5997, Note_on_c, 0, 77, 0
2, 6000, Note_on_c, 0, 76, 72
2, 6045, Note_on_c, 0, 76, 0
2, 6048, Note_on_c, 0, 76, 64
2, 6144, Note_on_c, 0, 76, 0
2, 6144, Note_on_c, 0, 77, 64
2, 6164, Note_on_c, 0, 77, 0
2, 6192, Note_on_c, 0, 79, 76
2, 6237, Note_on_c, 0, 79, 0
2, 6240, Note_on_c, 0, 77, 64
2, 6285, Note_on_c, 0, 77, 0
2, 6288, Note_on_c, 0, 76, 64
2, 6333, Note_on_c, 0, 76, 0
2, 6336, Note_on_c, 0, 76, 64
2, 6432, Note_on_c, 0, 76, 0
2, 6432, Note_on_c, 0, 77, 64
2, 6452, Note_on_c, 0, 77, 0
2, 6480, Note_on_c, 0, 79, 76
2, 6480, Note_on_c, 0, 73, 76
2, 6525, Note_on_c, 0, 79, 0
2, 6525, Note_on_c, 0, 73, 0
2, 6528, Note_on_c, 0, 77, 64
2, 6528, Note_on_c, 0, 72, 64
2, 6573, Note_on_c, 0, 77, 0
2, 6573, Note_on_c, 0, 72, 0
2, 6576, Note_on_c, 0, 76, 64
2, 6576, Note_on_c, 0, 70, 64
2, 6621, Note_on_c, 0, 76, 0
2, 6621, Note_on_c, 0, 70, 0
2, 6624, Note_on_c, 0, 76, 64
2, 6624, Note_on_c, 0, 70, 64
2, 6889, Note_on_c, 0, 76, 0
2, 6889, Note_on_c, 0, 70, 0
2, 6912, Note_on_c, 0, 75, 64
2, 6912, Note_on_c, 0, 69, 64
2, 7089, Note_on_c, 0, 75, 0
2, 7089, Note_on_c, 0, 69, 0
2, 7104, Note_on_c, 0, 62, 75
2, 7128, Note_on_c, 0, 62, 0
2, 7128, Note_on_c, 0, 65, 75
2, 7151, Note_on_c, 0, 65, 0
2, 7152, Note_on_c, 0, 63, 75
2, 7176, Note_on_c, 0, 63, 0
2, 7176, Note_on_c, 0, 67, 75
2, 7199, Note_on_c, 0, 67, 0
2, 7200, Note_on_c, 0, 65, 75
2, 7220, Note_on_c, 0, 65, 0
2, 7344, Note_on_c, 0, 79, 75
2, 7367, Note_on_c, 0, 79, 0
2, 7368, Note_on_c, 0, 77, 75
2, 7391, Note_on_c, 0, 77, 0
2, 7392, Note_on_c, 0, 75, 75
2, 7415, Note_on_c, 0, 75, 0
2, 7416, Note_on_c, 0, 74, 75
2, 7439, Note_on_c, 0, 74, 0
2, 7440, Note_on_c, 0, 72, 75
2, 7463, Note_on_c, 0, 72, 0
2, 7464, Note_on_c, 0, 70, 75
2, 7487, Note_on_c, 0, 70, 0
2, 7488, Note_on_c, 0, 69, 75
2, 7508, Note_on_c, 0, 69, 0
2, 7680, Note_on_c, 0, 72, 75
2, 7704, Note_on_c, 0, 72, 0
2, 7704, Note_on_c, 0, 75, 75
2, 7727, Note_on_c, 0, 75, 0
2, 7728, Note_on_c, 0, 74, 75
2, 7752, Note_on_c, 0, 74, 0
2, 7752, Note_on_c, 0, 77, 75
2, 7775, Note_on_c, 0, 77, 0
2, 7776, Note_on_c, 0, 75, 75
2, 7796, Note_on_c, 0, 75, 0
2, 7920, Note_on_c, 0, 84, 75
2, 7943, Note_on_c, 0, 84, 0
2, 7944, Note_on_c, 0, 82, 75
2, 7967, Note_on_c, 0, 82, 0
2, 7968, Note_on_c, 0, 81, 75
2, 7991, Note_on_c, 0, 81, 0
2, 7992, Note_on_c, 0, 79, 75
2, 8015, Note_on_c, 0, 79, 0
2, 8016, Note_on_c, 0, 77, 75
2, 8039, Note_on_c, 0, 77, 0
2, 8040, Note_on_c, 0, 75, 75
2, 8063, Note_on_c, 0, 75, 0
2, 8064, Note_on_c, 0, 74, 75
2, 8084, Note_on_c, 0, 74, 0
2, 8160, Note_on_c, 0, 70, 80
2, 8183, Note_on_c, 0, 70, 0
2, 8184, Note_on_c, 0, 72, 80
2, 8207, Note_on_c, 0, 72, 0
2, 8208, Note_on_c, 0, 74, 81
2, 8231, Note_on_c, 0, 74, 0
2, 8232, Note_on_c, 0, 75, 82
2, 8255, Note_on_c, 0, 75, 0
2, 8256, Note_on_c, 0, 77, 83
2, 8279, Note_on_c, 0, 77, 0
2, 8280, Note_on_c, 0, 79, 83
2, 8303, Note_on_c, 0, 79, 0
2, 8304, Note_on_c, 0, 81, 84
2, 8327, Note_on_c, 0, 81, 0
2, 8328, Note_on_c, 0, 82, 85
2, 8351, Note_on_c, 0, 82, 0
2, 8352, Note_on_c, 0, 82, 102
2, 8448, Note_on_c, 0, 82, 0
2, 8448, Note_on_c, 0, 81, 83
2, 8493, Note_on_c, 0, 81, 0
2, 8496, Note_on_c, 0, 79, 82
2, 8541, Note_on_c, 0, 79, 0
2, 8544, Note_on_c, 0, 77, 81
2, 8589, Note_on_c, 0, 77, 0
2, 8592, Note_on_c, 0, 75, 80
2, 8637, Note_on_c, 0, 75, 0
2, 8640, Note_on_c, 0, 73, 80
2, 8688, Note_on_c, 0, 73, 0
2, 8688, Note_on_c, 0, 74, 80
2, 8733, Note_on_c, 0, 74, 0
2, 8736, Note_on_c, 0, 70, 80
2, 8759, Note_on_c, 0, 70, 0
2, 8760, Note_on_c, 0, 72, 80
2, 8783, Note_on_c, 0, 72, 0
2, 8784, Note_on_c, 0, 74, 81
2, 8807, Note_on_c, 0, 74, 0
2, 8808, Note_on_c, 0, 75, 82
2, 8831, Note_on_c, 0, 75, 0
2, 8832, Note_on_c, 0, 77, 83
2, 8855, Note_on_c, 0, 77, 0
2, 8856, Note_on_c, 0, 79, 83
2, 8879, Note_on_c, 0, 79, 0
2, 8880, Note_on_c, 0, 81, 84
2, 8903, Note_on_c, 0, 81, 0
2, 8904, Note_on_c, 0, 82, 85
2, 8914, Note_on_c, 0, 82, 0
2, 8928, Note_on_c, 0, 82, 102
2, 9024, Note_on_c, 0, 82, 0
2, 9024, Note_on_c, 0, 81, 84
2, 9069, Note_on_c, 0, 81, 0
2, 9072, Note_on_c, 0, 79, 83
2, 9117, Note_on_c, 0, 79, 0
2, 9120, Note_on_c, 0, 77, 82
2, 9165, Note_on_c, 0, 77, 0
2, 9168, Note_on_c, 0, 75, 81
2, 9213, Note_on_c, 0, 75, 0
2, 9216, Note_on_c, 0, 73, 80
2, 9264, Note_on_c, 0, 73, 0
2, 9264, Note_on_c, 0, 74, 80
2, 9309, Note_on_c, 0, 74, 0
2, 9312, Note_on_c, 0, 70, 80
2, 9335, Note_on_c, 0, 70, 0
2, 9336, Note_on_c, 0, 72, 80
2, 9359, Note_on_c, 0, 72, 0
2, 9360, Note_on_c, 0, 74, 81
2, 9383, Note_on_c, 0, 74, 0
2, 9384, Note_on_c, 0, 75, 82
2, 9407, Note_on_c, 0, 75, 0
2, 9408, Note_on_c, 0, 77, 83
2, 9431, Note_on_c, 0, 77, 0
2, 9432, Note_on_c, 0, 79, 83
2, 9455, Note_on_c, 0, 79, 0
2, 9456, Note_on_c, 0, 80, 84
2, 9479, Note_on_c, 0, 80, 0
2, 9480, Note_on_c, 0, 82, 85
2, 9490, Note_on_c, 0, 82, 0
2, 9504, Note_on_c, 0, 84, 102
2, 9648, Note_on_c, 0, 84, 0
2, 9648, Note_on_c, 0, 86, 86
2, 9660, Note_on_c, 0, 86, 0
2, 9660, Note_on_c, 0, 84, 86
2, 9672, Note_on_c, 0, 84, 0
2, 9672, Note_on_c, 0, 83, 86
2, 9684, Note_on_c, 0, 83, 0
2, 9684, Note_on_c, 0, 84, 86
2, 9696, Note_on_c, 0, 84, 0
2, 9696, Note_on_c, 0, 89, 86
2, 9763, Note_on_c, 0, 89, 0
2, 9768, Note_on_c, 0, 86, 86
2, 9791, Note_on_c, 0, 86, 0
2, 9792, Note_on_c, 0, 84, 86
2, 9881, Note_on_c, 0, 84, 0
2, 9888, Note_on_c, 0, 83, 86
2, 9902, Note_on_c, 0, 83, 0
2, 9903, Note_on_c, 0, 84, 86
2, 9917, Note_on_c, 0, 84, 0
2, 9918, Note_on_c, 0, 83, 86
2, 9932, Note_on_c, 0, 83, 0
2, 9933, Note_on_c, 0, 84, 86
2, 9947, Note_on_c, 0, 84, 0
2, 9948, Note_on_c, 0, 83, 86
2, 9962, Note_on_c, 0, 83, 0
2, 9963, Note_on_c, 0, 84, 86
2, 9977, Note_on_c, 0, 84, 0
2, 9978, Note_on_c, 0, 83, 86
2, 9992, Note_on_c, 0, 83, 0
2, 9993, Note_on_c, 0, 84, 86
2, 10007, Note_on_c, 0, 84, 0
2, 10008, Note_on_c, 0, 83, 86
2, 10022, Note_on_c, 0, 83, 0
2, 10023, Note_on_c, 0, 84, 86
2, 10037, Note_on_c, 0, 84, 0
2, 10038, Note_on_c, 0, 83, 86
2, 10051, Note_on_c, 0, 83, 0
2, 10052, Note_on_c, 0, 81, 86
2, 10065, Note_on_c, 0, 81, 0
2, 10066, Note_on_c, 0, 83, 86
2, 10079, Note_on_c, 0, 83, 0
2, 10080, Note_on_c, 0, 84, 86
2, 10099, Note_on_c, 0, 84, 0
2, 10104, Note_on_c, 0, 86, 86
2, 10116, Note_on_c, 0, 86, 0
2, 10116, Note_on_c, 0, 84, 86
2, 10128, Note_on_c, 0, 84, 0
2, 10128, Note_on_c, 0, 83, 86
2, 10140, Note_on_c, 0, 83, 0
2, 10140, Note_on_c, 0, 84, 86
2, 10152, Note_on_c, 0, 84, 0
2, 10152, Note_on_c, 0, 86, 86
2, 10175, Note_on_c, 0, 86, 0
2, 10176, Note_on_c, 0, 87, 86
2, 10221, Note_on_c, 0, 87, 0
2, 10248, Note_on_c, 0, 86, 86
2, 10271, Note_on_c, 0, 86, 0
2, 10272, Note_on_c, 0, 84, 86
2, 10317, Note_on_c, 0, 84, 0
2, 10344, Note_on_c, 0, 82, 86
2, 10367, Note_on_c, 0, 82, 0
2, 10368, Note_on_c, 0, 82, 86
2, 10457, Note_on_c, 0, 82, 0
2, 10464, Note_on_c, 0, 81, 83
2, 10477, Note_on_c, 0, 81, 0
2, 10478, Note_on_c, 0, 82, 82
2, 10491, Note_on_c, 0, 82, 0
2, 10492, Note_on_c, 0, 81, 82
2, 10505, Note_on_c, 0, 81, 0
2, 10506, Note_on_c, 0, 82, 81
2, 10519, Note_on_c, 0, 82, 0
2, 10520, Note_on_c, 0, 81, 81
2, 10533, Note_on_c, 0, 81, 0
2, 10534, Note_on_c, 0, 79, 81
2, 10546, Note_on_c, 0, 79, 0
2, 10547, Note_on_c, 0, 81, 80
2, 10559, Note_on_c, 0, 81, 0
2, 10560, Note_on_c, 0, 82, 80
2, 10649, Note_on_c, 0, 82, 0
2, 10656, Note_on_c, 0, 81, 75
2, 10679, Note_on_c, 0, 81, 0
2, 10680, Note_on_c, 0, 79, 75
2, 10703, Note_on_c, 0, 79, 0
2, 10704, Note_on_c, 0, 78, 75
2, 10727, Note_on_c, 0, 78, 0
2, 10728, Note_on_c, 0, 79, 75
2, 10751, Note_on_c, 0, 79, 0
2, 10752, Note_on_c, 0, 78, 75
2, 10775, Note_on_c, 0, 78, 0
2, 10776, Note_on_c, 0, 79, 75
2, 10799, Note_on_c, 0, 79, 0
2, 10800, Note_on_c, 0, 78, 75
2, 10823, Note_on_c, 0, 78, 0
2, 10824, Note_on_c, 0, 79, 75
2, 10847, Note_on_c, 0, 79, 0
2, 10848, Note_on_c, 0, 82, 75
2, 10893, Note_on_c, 0, 82, 0
2, 10896, Note_on_c, 0, 79, 75
2, 10941, Note_on_c, 0, 79, 0
2, 10944, Note_on_c, 0, 77, 75
2, 10967, Note_on_c, 0, 77, 0
2, 10968, Note_on_c, 0, 75, 75
2, 10991, Note_on_c, 0, 75, 0
2, 10992, Note_on_c, 0, 74, 75
2, 11015, Note_on_c, 0, 74, 0
2, 11016, Note_on_c, 0, 75, 75
2, 11039, Note_on_c, 0, 75, 0
2, 11040, Note_on_c, 0, 74, 75
2, 11063, Note_on_c, 0, 74, 0
2, 11064, Note_on_c, 0, 75, 75
2, 11087, Note_on_c, 0, 75, 0
2, 11088, Note_on_c, 0, 74, 75
2, 11111, Note_on_c, 0, 74, 0
2, 11112, Note_on_c, 0, 75, 75
2, 11135, Note_on_c, 0, 75, 0
2, 11136, Note_on_c, 0, 79, 75
2, 11181, Note_on_c, 0, 79, 0
2, 11184, Note_on_c, 0, 75, 75
2, 11229, Note_on_c, 0, 75, 0
2, 11232, Note_on_c, 0, 74, 75
2, 11255, Note_on_c, 0, 74, 0
2, 11256, Note_on_c, 0, 72, 75
2, 11279, Note_on_c, 0, 72, 0
2, 11280, Note_on_c, 0, 71, 75
2, 11303, Note_on_c, 0, 71, 0
2, 11304, Note_on_c, 0, 72, 75
2, 11327, Note_on_c, 0, 72, 0
2, 11328, Note_on_c, 0, 74, 75
2, 11351, Note_on_c, 0, 74, 0
2, 11352, Note_on_c, 0, 72, 75
2, 11375, Note_on_c, 0, 72, 0
2, 11376, Note_on_c, 0, 71, 75
2, 11399, Note_on_c, 0, 71, 0
2, 11400, Note_on_c, 0, 72, 75
2, 11423, Note_on_c, 0, 72, 0
2, 11424, Note_on_c, 0, 74, 75
2, 11447, Note_on_c, 0, 74, 0
2, 11448, Note_on_c, 0, 72, 75
2, 11471, Note_on_c, 0, 72, 0
2, 11472, Note_on_c, 0, 71, 75
2, 11495, Note_on_c, 0, 71, 0
2, 11496, Note_on_c, 0, 72, 75
2, 11519, Note_on_c, 0, 72, 0
2, 11520, Note_on_c, 0, 78, 75
2, 11573, Note_on_c, 0, 78, 0
2, 11580, Note_on_c, 0, 79, 75
2, 11592, Note_on_c, 0, 79, 0
2, 11592, Note_on_c, 0, 78, 75
2, 11604, Note_on_c, 0, 78, 0
2, 11604, Note_on_c, 0, 76, 75
2, 11616, Note_on_c, 0, 76, 0
2, 11616, Note_on_c, 0, 78, 75
2, 11683, Note_on_c, 0, 78, 0
2, 11688, Note_on_c, 0, 81, 75
2, 11711, Note_on_c, 0, 81, 0
2, 11712, Note_on_c, 0, 79, 75
2, 11742, Note_on_c, 0, 79, 0
2, 11744, Note_on_c, 0, 75, 75
2, 11774, Note_on_c, 0, 75, 0
2, 11776, Note_on_c, 0, 72, 75
2, 11806, Note_on_c, 0, 72, 0
2, 11808, Note_on_c, 0, 70, 75
2, 11941, Note_on_c, 0, 70, 0
2, 11952, Note_on_c, 0, 72, 75
2, 11964, Note_on_c, 0, 72, 0
2, 11964, Note_on_c, 0, 70, 75
2, 11976, Note_on_c, 0, 70, 0
2, 11976, Note_on_c, 0, 69, 75
2, 11988, Note_on_c, 0, 69, 0
2, 11988, Note_on_c, 0, 70, 75
2, 12000, Note_on_c, 0, 70, 0
2, 12000, Note_on_c, 0, 74, 75
2, 12067, Note_on_c, 0, 74, 0
2, 12072, Note_on_c, 0, 72, 75
2, 12095, Note_on_c, 0, 72, 0
2, 12096, Note_on_c, 0, 70, 75
2, 12185, Note_on_c, 0, 70, 0
2, 12240, Note_on_c, 0, 41, 80
2, 12285, Note_on_c, 0, 41, 0
2, 12288, Note_on_c, 0, 46, 80
2, 12333, Note_on_c, 0, 46, 0
2, 12336, Note_on_c, 0, 50, 80
2, 12381, Note_on_c, 0, 50, 0
2, 12384, Note_on_c, 0, 51, 96
2, 12528, Note_on_c, 0, 51, 0
2, 12528, Note_on_c, 0, 48, 80
2, 12551, Note_on_c, 0, 48, 0
2, 12552, Note_on_c, 0, 45, 80
2, 12575, Note_on_c, 0, 45, 0
2, 12576, Note_on_c, 0, 41, 80
2, 12621, Note_on_c, 0, 41, 0
2, 12624, Note_on_c, 0, 39, 80
2, 12669, Note_on_c, 0, 39, 0
2, 12672, Note_on_c, 0, 38, 80
2, 12717, Note_on_c, 0, 38, 0
2, 12816, Note_on_c, 0, 77, 80
2, 12861, Note_on_c, 0, 77, 0
2, 12864, Note_on_c, 0, 82, 80
2, 12909, Note_on_c, 0, 82, 0
2, 12912, Note_on_c, 0, 86, 80
2, 12957, Note_on_c, 0, 86, 0
2, 12960, Note_on_c, 0, 77, 80
2, 12972, Note_on_c, 0, 77, 0
2, 12972, Note_on_c, 0, 81, 80
2, 12984, Note_on_c, 0, 81, 0
2, 12984, Note_on_c, 0, 84, 80
2, 12996, Note_on_c, 0, 84, 0
2, 12996, Note_on_c, 0, 87, 96
2, 13104, Note_on_c, 0, 87, 0
2, 13104, Note_on_c, 0, 84, 80
2, 13127, Note_on_c, 0, 84, 0
2, 13128, Note_on_c, 0, 81, 80
2, 13151, Note_on_c, 0, 81, 0
2, 13152, Note_on_c, 0, 77, 80
2, 13197, Note_on_c, 0, 77, 0
2, 13200, Note_on_c, 0, 75, 80
2, 13245, Note_on_c, 0, 75, 0
2, 13248, Note_on_c, 0, 74, 80
2, 13293, Note_on_c, 0, 74, 0
2, 13392, Note_on_c, 0, 41, 80
2, 13437, Note_on_c, 0, 41, 0
2, 13440, Note_on_c, 0, 46, 80
2, 13485, Note_on_c, 0, 46, 0
2, 13488, Note_on_c, 0, 50, 80
2, 13533, Note_on_c, 0, 50, 0
2, 13536, Note_on_c, 0, 51, 96
2, 13584, Note_on_c, 0, 51, 0
2, 13608, Note_on_c, 0, 51, 80
2, 13620, Note_on_c, 0, 51, 0
2, 13620, Note_on_c, 0, 48, 80
2, 13632, Note_on_c, 0, 48, 0
2, 13632, Note_on_c, 0, 45, 96
2, 13680, Note_on_c, 0, 45, 0
2, 13704, Note_on_c, 0, 48, 80
2, 13716, Note_on_c, 0, 48, 0
2, 13716, Note_on_c, 0, 45, 80
2, 13728, Note_on_c, 0, 45, 0
2, 13728, Note_on_c, 0, 41, 80
2, 13773, Note_on_c, 0, 41, 0
2, 13776, Note_on_c, 0, 39, 80
2, 13821, Note_on_c, 0, 39, 0
2, 13824, Note_on_c, 0, 38, 80
2, 13869, Note_on_c, 0, 38, 0
2, 13944, Note_on_c, 0, 77, 80
2, 13967, Note_on_c, 0, 77, 0
2, 13968, Note_on_c, 0, 82, 80
2, 13991, Note_on_c, 0, 82, 0
2, 13992, Note_on_c, 0, 86, 80
2, 14015, Note_on_c, 0, 86, 0
2, 14016, Note_on_c, 0, 89, 80
2, 14061, Note_on_c, 0, 89, 0
2, 14064, Note_on_c, 0, 89, 80
2, 14109, Note_on_c, 0, 89, 0
2, 14112, Note_on_c, 0, 87, 80
2, 14135, Note_on_c, 0, 87, 0
2, 14136, Note_on_c, 0, 89, 80
2, 14159, Note_on_c, 0, 89, 0
2, 14160, Note_on_c, 0, 87, 80
2, 14183, Note_on_c, 0, 87, 0
2, 14184, Note_on_c, 0, 86, 80
2, 14207, Note_on_c, 0, 86, 0
2, 14208, Note_on_c, 0, 84, 80
2, 14231, Note_on_c, 0, 84, 0
2, 14232, Note_on_c, 0, 82, 80
2, 14255, Note_on_c, 0, 82, 0
2, 14256, Note_on_c, 0, 81, 79
2, 14279, Note_on_c, 0, 81, 0
2, 14280, Note_on_c, 0, 79, 78
2, 14303, Note_on_c, 0, 79, 0
2, 14304, Note_on_c, 0, 77, 77
2, 14327, Note_on_c, 0, 77, 0
2, 14328, Note_on_c, 0, 75, 77
2, 14351, Note_on_c, 0, 75, 0
2, 14352, Note_on_c, 0, 74, 76
2, 14375, Note_on_c, 0, 74, 0
2, 14376, Note_on_c, 0, 72, 75
2, 14399, Note_on_c, 0, 72, 0
2, 14400, Note_on_c, 0, 70, 75
2, 14445, Note_on_c, 0, 70, 0
2, 14448, Note_on_c, 0, 86, 75
2, 14448, Note_on_c, 0, 82, 75
2, 14493, Note_on_c, 0, 86, 0
2, 14493, Note_on_c, 0, 82, 0
2, 14544, Note_on_c, 0, 84, 75
2, 14544, Note_on_c, 0, 81, 75
2, 14589, Note_on_c, 0, 84, 0
2, 14589, Note_on_c, 0, 81, 0
2, 14640, Note_on_c, 0, 82, 70
2, 14640, Note_on_c, 0, 79, 70
2, 14685, Note_on_c, 0, 82, 0
2, 14685, Note_on_c, 0, 79, 0
2, 14736, Note_on_c, 0, 80, 66
2, 14736, Note_on_c, 0, 77, 66
2, 14781, Note_on_c, 0, 80, 0
2, 14781, Note_on_c, 0, 77, 0
2, 14832, Note_on_c, 0, 79, 64
2, 14832, Note_on_c, 0, 75, 64
2, 14877, Note_on_c, 0, 79, 0
2, 14877, Note_on_c, 0, 75, 0
2, 14928, Note_on_c, 0, 77, 64
2, 14928, Note_on_c, 0, 74, 64
2, 14973, Note_on_c, 0, 77, 0
2, 14973, Note_on_c, 0, 74, 0
2, 15024, Note_on_c, 0, 75, 64
2, 15024, Note_on_c, 0, 72, 64
2, 15069, Note_on_c, 0, 75, 0
2, 15069, Note_on_c, 0, 72, 0
2, 15408, Note_on_c, 0, 75, 64
2, 15408, Note_on_c, 0, 72, 64
2, 15428, Note_on_c, 0, 75, 0
2, 15428, Note_on_c, 0, 72, 0
2, 15456, Note_on_c, 0, 75, 64
2, 15456, Note_on_c, 0, 72, 64
2, 15476, Note_on_c, 0, 75, 0
2, 15476, Note_on_c, 0, 72, 0
2, 15504, Note_on_c, 0, 75, 64
2, 15504, Note_on_c, 0, 72, 64
2, 15524, Note_on_c, 0, 75, 0
2, 15524, Note_on_c, 0, 72, 0
2, 15552, Note_on_c, 0, 75, 64
2, 15552, Note_on_c, 0, 72, 64
2, 15973, Note_on_c, 0, 75, 0
2, 15973, Note_on_c, 0, 72, 0
2, 15984, Note_on_c, 0, 75, 64
2, 15984, Note_on_c, 0, 72, 64
2, 16004, Note_on_c, 0, 75, 0
2, 16004, Note_on_c, 0, 72, 0
2, 16032, Note_on_c, 0, 75, 64
2, 16032, Note_on_c, 0, 72, 64
2, 16052, Note_on_c, 0, 75, 0
2, 16052, Note_on_c, 0, 72, 0
2, 16080, Note_on_c, 0, 75, 64
2, 16080, Note_on_c, 0, 72, 64
2, 16100, Note_on_c, 0, 75, 0
2, 16100, Note_on_c, 0, 72, 0
2, 16128, Note_on_c, 0, 75, 64
2, 16128, Note_on_c, 0, 72, 64
2, 16593, Note_on_c, 0, 75, 0
2, 16593, Note_on_c, 0, 72, 0
2, 16608, Note_on_c, 0, 76, 75
2, 16608, Note_on_c, 0, 73, 75
2, 16608, Note_on_c, 0, 70, 75
2, 16697, Note_on_c, 0, 76, 0
2, 16697, Note_on_c, 0, 73, 0
2, 16697, Note_on_c, 0, 70, 0
2, 16704, Note_on_c, 0, 65, 77
2, 16716, Note_on_c, 0, 70, 77
2, 16728, Note_on_c, 0, 74, 77
2, 16740, Note_on_c, 0, 77, 77
2, 16845, Note_on_c, 0, 77, 0
2, 16845, Note_on_c, 0, 74, 0
2, 16845, Note_on_c, 0, 70, 0
2, 16845, Note_on_c, 0, 65, 0
2, 16848, Note_on_c, 0, 79, 80
2, 16871, Note_on_c, 0, 79, 0
2, 16872, Note_on_c, 0, 77, 80
2, 16895, Note_on_c, 0, 77, 0
2, 16896, Note_on_c, 0, 75, 80
2, 16919, Note_on_c, 0, 75, 0
2, 16920, Note_on_c, 0, 74, 80
2, 16943, Note_on_c, 0, 74, 0
2, 16944, Note_on_c, 0, 72, 80
2, 16967, Note_on_c, 0, 72, 0
2, 16968, Note_on_c, 0, 70, 80
2, 16991, Note_on_c, 0, 70, 0
2, 16992, Note_on_c, 0, 69, 80
2, 17089, Note_on_c, 0, 69, 0
2, 17100, Note_on_c, 0, 74, 80
2, 17112, Note_on_c, 0, 74, 0
2, 17112, Note_on_c, 0, 72, 80
2, 17124, Note_on_c, 0, 72, 0
2, 17124, Note_on_c, 0, 71, 80
2, 17136, Note_on_c, 0, 71, 0
2, 17136, Note_on_c, 0, 72, 80
2, 17181, Note_on_c, 0, 72, 0
2, 17184, Note_on_c, 0, 75, 76
2, 17229, Note_on_c, 0, 75, 0
2, 17232, Note_on_c, 0, 69, 73
2, 17277, Note_on_c, 0, 69, 0
2, 17280, Note_on_c, 0, 70, 70
2, 17325, Note_on_c, 0, 70, 0
2, 17328, Note_on_c, 0, 65, 67
2, 17373, Note_on_c, 0, 65, 0
2, 17376, Note_on_c, 0, 66, 64
2, 17421, Note_on_c, 0, 66, 0
2, 17424, Note_on_c, 0, 67, 64
2, 17469, Note_on_c, 0, 67, 0
2, 17472, Note_on_c, 0, 68, 64
2, 17517, Note_on_c, 0, 68, 0
2, 17520, Note_on_c, 0, 69, 64
2, 17565, Note_on_c, 0, 69, 0
2, 17568, Note_on_c, 0, 70, 64
2, 17613, Note_on_c, 0, 70, 0
2, 17616, Note_on_c, 0, 71, 64
2, 17661, Note_on_c, 0, 71, 0
2, 17664, Note_on_c, 0, 72, 64
2, 17709, Note_on_c, 0, 72, 0
2, 17712, Note_on_c, 0, 74, 64
2, 17757, Note_on_c, 0, 74, 0
2, 17760, Note_on_c, 0, 75, 64
2, 17805, Note_on_c, 0, 75, 0
2, 17808, Note_on_c, 0, 69, 64
2, 17853, Note_on_c, 0, 69, 0
2, 17856, Note_on_c, 0, 70, 64
2, 17876, Note_on_c, 0, 70, 0
2, 17904, Note_on_c, 0, 77, 80
2, 17904, Note_on_c, 0, 74, 80
2, 17949, Note_on_c, 0, 77, 0
2, 17949, Note_on_c, 0, 74, 0
2, 17952, Note_on_c, 0, 79, 80
2, 17952, Note_on_c, 0, 75, 80
2, 17997, Note_on_c, 0, 79, 0
2, 17997, Note_on_c, 0, 75, 0
2, 18000, Note_on_c, 0, 77, 80
2, 18000, Note_on_c, 0, 74, 80
2, 18045, Note_on_c, 0, 77, 0
2, 18045, Note_on_c, 0, 74, 0
2, 18048, Note_on_c, 0, 75, 80
2, 18048, Note_on_c, 0, 72, 80
2, 18093, Note_on_c, 0, 75, 0
2, 18093, Note_on_c, 0, 72, 0
2, 18096, Note_on_c, 0, 74, 80
2, 18096, Note_on_c, 0, 70, 80
2, 18141, Note_on_c, 0, 74, 0
2, 18141, Note_on_c, 0, 70, 0
2, 18144, Note_on_c, 0, 72, 80
2, 18144, Note_on_c, 0, 69, 80
2, 18233, Note_on_c, 0, 72, 0
2, 18233, Note_on_c, 0, 69, 0
2, 18336, Note_on_c, 0, 81, 80
2, 18336, Note_on_c, 0, 75, 80
2, 18336, Note_on_c, 0, 72, 80
2, 18375, Note_on_c, 0, 81, 0
2, 18375, Note_on_c, 0, 75, 0
2, 18375, Note_on_c, 0, 72, 0
2, 18432, Note_on_c, 0, 82, 80
2, 18432, Note_on_c, 0, 77, 80
2, 18432, Note_on_c, 0, 74, 80
2, 18521, Note_on_c, 0, 82, 0
2, 18521, Note_on_c, 0, 77, 0
2, 18521, Note_on_c, 0, 74, 0
2, 18624, Note_on_c, 0, 55, 75
2, 18648, Note_on_c, 0, 55, 0
2, 18648, Note_on_c, 0, 58, 75
2, 18671, Note_on_c, 0, 58, 0
2, 18672, Note_on_c, 0, 56, 75
2, 18696, Note_on_c, 0, 56, 0
2, 18696, Note_on_c, 0, 60, 75
2, 18719, Note_on_c, 0, 60, 0
2, 18720, Note_on_c, 0, 58, 75
2, 18740, Note_on_c, 0, 58, 0
2, 18912, Note_on_c, 0, 67, 75
2, 18936, Note_on_c, 0, 67, 0
2, 18936, Note_on_c, 0, 63, 75
2, 18959, Note_on_c, 0, 63, 0
2, 18960, Note_on_c, 0, 62, 75
2, 18984, Note_on_c, 0, 62, 0
2, 18984, Note_on_c, 0, 65, 75
2, 19007, Note_on_c, 0, 65, 0
2, 19008, Note_on_c, 0, 63, 75
2, 19028, Note_on_c, 0, 63, 0
2, 19152, Note_on_c, 0, 63, 75
2, 19172, Note_on_c, 0, 63, 0
2, 19200, Note_on_c, 0, 67, 75
2, 19220, Note_on_c, 0, 67, 0
2, 19248, Note_on_c, 0, 70, 75
2, 19268, Note_on_c, 0, 70, 0
2, 19296, Note_on_c, 0, 70, 87
2, 19392, Note_on_c, 0, 70, 0
2, 19392, Note_on_c, 0, 68, 75
2, 19437, Note_on_c, 0, 68, 0
2, 19440, Note_on_c, 0, 67, 75
2, 19485, Note_on_c, 0, 67, 0
2, 19488, Note_on_c, 0, 65, 75
2, 19533, Note_on_c, 0, 65, 0
2, 19536, Note_on_c, 0, 63, 75
2, 19581, Note_on_c, 0, 63, 0
2, 19584, Note_on_c, 0, 62, 75
2, 19656, Note_on_c, 0, 62, 0
2, 19656, Note_on_c, 0, 65, 75
2, 19679, Note_on_c, 0, 65, 0
2, 19680, Note_on_c, 0, 68, 75
2, 19700, Note_on_c, 0, 68, 0
2, 19776, Note_on_c, 0, 58, 75
2, 19800, Note_on_c, 0, 58, 0
2, 19800, Note_on_c, 0, 62, 75
2, 19823, Note_on_c, 0, 62, 0
2, 19824, Note_on_c, 0, 60, 75
2, 19848, Note_on_c, 0, 60, 0
2, 19848, Note_on_c, 0, 63, 75
2, 19871, Note_on_c, 0, 63, 0
2, 19872, Note_on_c, 0, 62, 75
2, 19892, Note_on_c, 0, 62, 0
2, 20064, Note_on_c, 0, 62, 75
2, 20088, Note_on_c, 0, 62, 0
2, 20088, Note_on_c, 0, 65, 75
2, 20111, Note_on_c, 0, 65, 0
2, 20112, Note_on_c, 0, 63, 75
2, 20136, Note_on_c, 0, 63, 0
2, 20136, Note_on_c, 0, 67, 75
2, 20159, Note_on_c, 0, 67, 0
2, 20160, Note_on_c, 0, 65, 75
2, 20180, Note_on_c, 0, 65, 0
2, 20304, Note_on_c, 0, 65, 75
2, 20324, Note_on_c, 0, 65, 0
2, 20352, Note_on_c, 0, 68, 75
2, 20372, Note_on_c, 0, 68, 0
2, 20400, Note_on_c, 0, 72, 75
2, 20420, Note_on_c, 0, 72, 0
2, 20448, Note_on_c, 0, 72, 87
2, 20544, Note_on_c, 0, 72, 0
2, 20544, Note_on_c, 0, 70, 75
2, 20589, Note_on_c, 0, 70, 0
2, 20592, Note_on_c, 0, 68, 75
2, 20637, Note_on_c, 0, 68, 0
2, 20640, Note_on_c, 0, 67, 75
2, 20685, Note_on_c, 0, 67, 0
2, 20688, Note_on_c, 0, 65, 75
2, 20733, Note_on_c, 0, 65, 0
2, 20736, Note_on_c, 0, 63, 75
2, 20748, Note_on_c, 0, 63, 0
2, 20748, Note_on_c, 0, 65, 75
2, 20760, Note_on_c, 0, 65, 0
2, 20760, Note_on_c, 0, 63, 75
2, 20772, Note_on_c, 0, 63, 0
2, 20772, Note_on_c, 0, 62, 75
2, 20784, Note_on_c, 0, 62, 0
2, 20784, Note_on_c, 0, 63, 75
2, 20808, Note_on_c, 0, 63, 0
2, 20808, Note_on_c, 0, 67, 75
2, 20831, Note_on_c, 0, 67, 0
2, 20832, Note_on_c, 0, 70, 75
2, 20852, Note_on_c, 0, 70, 0
2, 20928, Note_on_c, 0, 75, 75
2, 20952, Note_on_c, 0, 75, 0
2, 20952, Note_on_c, 0, 74, 75
2, 20975, Note_on_c, 0, 74, 0
2, 20976, Note_on_c, 0, 77, 75
2, 21000, Note_on_c, 0, 77, 0
2, 21000, Note_on_c, 0, 75, 75
2, 21023, Note_on_c, 0, 75, 0
2, 21024, Note_on_c, 0, 79, 75
2, 21047, Note_on_c, 0, 79, 0
2, 21048, Note_on_c, 0, 77, 75
2, 21071, Note_on_c, 0, 77, 0
2, 21072, Note_on_c, 0, 80, 76
2, 21095, Note_on_c, 0, 80, 0
2, 21096, Note_on_c, 0, 79, 77
2, 21119, Note_on_c, 0, 79, 0
2, 21120, Note_on_c, 0, 82, 78
2, 21143, Note_on_c, 0, 82, 0
2, 21144, Note_on_c, 0, 80, 79
2, 21167, Note_on_c, 0, 80, 0
2, 21168, Note_on_c, 0, 79, 80
2, 21191, Note_on_c, 0, 79, 0
2, 21192, Note_on_c, 0, 77, 79
2, 21215, Note_on_c, 0, 77, 0
2, 21216, Note_on_c, 0, 75, 78
2, 21239, Note_on_c, 0, 75, 0
2, 21240, Note_on_c, 0, 74, 77
2, 21263, Note_on_c, 0, 74, 0
2, 21264, Note_on_c, 0, 72, 76
2, 21287, Note_on_c, 0, 72, 0
2, 21288, Note_on_c, 0, 71, 75
2, 21311, Note_on_c, 0, 71, 0
2, 21312, Note_on_c, 0, 71, 75
2, 21408, Note_on_c, 0, 71, 0
2, 21408, Note_on_c, 0, 72, 77
2, 21428, Note_on_c, 0, 72, 0
2, 21456, Note_on_c, 0, 74, 78
2, 21462, Note_on_c, 0, 74, 0
2, 21462, Note_on_c, 0, 72, 78
2, 21468, Note_on_c, 0, 72, 0
2, 21468, Note_on_c, 0, 71, 78
2, 21474, Note_on_c, 0, 71, 0
2, 21474, Note_on_c, 0, 72, 78
2, 21501, Note_on_c, 0, 72, 0
2, 21504, Note_on_c, 0, 74, 79
2, 21549, Note_on_c, 0, 74, 0
2, 21552, Note_on_c, 0, 75, 80
2, 21597, Note_on_c, 0, 75, 0
2, 21600, Note_on_c, 0, 75, 80
2, 21648, Note_on_c, 0, 75, 0
2, 21648, Note_on_c, 0, 65, 79
2, 21693, Note_on_c, 0, 65, 0
2, 21696, Note_on_c, 0, 72, 78
2, 21744, Note_on_c, 0, 72, 0
2, 21744, Note_on_c, 0, 60, 77
2, 21789, Note_on_c, 0, 60, 0
2, 21792, Note_on_c, 0, 68, 77
2, 21840, Note_on_c, 0, 68, 0
2, 21840, Note_on_c, 0, 62, 76
2, 21885, Note_on_c, 0, 62, 0
2, 21888, Note_on_c, 0, 63, 75
2, 21908, Note_on_c, 0, 63, 0
2, 22128, Note_on_c, 0, 58, 75
2, 22148, Note_on_c, 0, 58, 0
2, 22176, Note_on_c, 0, 63, 75
2, 22413, Note_on_c, 0, 63, 0
2, 22416, Note_on_c, 0, 62, 75
2, 22436, Note_on_c, 0, 62, 0
2, 22464, Note_on_c, 0, 68, 75
2, 22701, Note_on_c, 0, 68, 0
2, 22704, Note_on_c, 0, 67, 75
2, 22724, Note_on_c, 0, 67, 0
2, 22752, Note_on_c, 0, 75, 75
2, 22989, Note_on_c, 0, 75, 0
2, 22992, Note_on_c, 0, 74, 75
2, 23012, Note_on_c, 0, 74, 0
2, 23040, Note_on_c, 0, 80, 75
2, 23277, Note_on_c, 0, 80, 0
2, 23280, Note_on_c, 0, 79, 75
2, 23300, Note_on_c, 0, 79, 0
2, 23328, Note_on_c, 0, 84, 75
2, 23565, Note_on_c, 0, 84, 0
2, 23568, Note_on_c, 0, 83, 75
2, 23588, Note_on_c, 0, 83, 0
2, 23616, Note_on_c, 0, 86, 75
2, 23616, Note_on_c, 0, 77, 75
2, 23853, Note_on_c, 0, 86, 0
2, 23853, Note_on_c, 0, 77, 0
2, 23856, Note_on_c, 0, 84, 75
2, 23856, Note_on_c, 0, 75, 75
2, 23876, Note_on_c, 0, 84, 0
2, 23876, Note_on_c, 0, 75, 0
2, 23904, Note_on_c, 0, 87, 75
2, 23904, Note_on_c, 0, 79, 75
2, 24037, Note_on_c, 0, 87, 0
2, 24037, Note_on_c, 0, 79, 0
2, 24048, Note_on_c, 0, 86, 76
2, 24048, Note_on_c, 0, 77, 76
2, 24093, Note_on_c, 0, 86, 0
2, 24093, Note_on_c, 0, 77, 0
2, 24096, Note_on_c, 0, 84, 77
2, 24096, Note_on_c, 0, 75, 77
2, 24141, Note_on_c, 0, 84, 0
2, 24141, Note_on_c, 0, 75, 0
2, 24144, Note_on_c, 0, 82, 78
2, 24144, Note_on_c, 0, 74, 78
2, 24189, Note_on_c, 0, 82, 0
2, 24189, Note_on_c, 0, 74, 0
2, 24192, Note_on_c, 0, 82, 78
2, 24192, Note_on_c, 0, 74, 78
2, 24288, Note_on_c, 0, 82, 0
2, 24288, Note_on_c, 0, 74, 0
2, 24288, Note_on_c, 0, 81, 80
2, 24288, Note_on_c, 0, 72, 80
2, 24308, Note_on_c, 0, 81, 0
2, 24308, Note_on_c, 0, 72, 0
2, 24336, Note_on_c, 0, 79, 92
2, 24381, Note_on_c, 0, 79, 0
2, 24384, Note_on_c, 0, 77, 80
2, 24429, Note_on_c, 0, 77, 0
2, 24432, Note_on_c, 0, 76, 72
2, 24477, Note_on_c, 0, 76, 0
2, 24480, Note_on_c, 0, 76, 64
2, 24576, Note_on_c, 0, 76, 0
2, 24576, Note_on_c, 0, 77, 64
2, 24596, Note_on_c, 0, 77, 0
2, 24624, Note_on_c, 0, 79, 76
2, 24669, Note_on_c, 0, 79, 0
2, 24672, Note_on_c, 0, 77, 64
2, 24717, Note_on_c, 0, 77, 0
2, 24720, Note_on_c, 0, 76, 64
2, 24765, Note_on_c, 0, 76, 0
2, 24768, Note_on_c, 0, 76, 64
2, 24864, Note_on_c, 0, 76, 0
2, 24864, Note_on_c, 0, 77, 64
2, 24884, Note_on_c, 0, 77, 0
2, 24912, Note_on_c, 0, 79, 76
2, 24912, Note_on_c, 0, 73, 76
2, 24957, Note_on_c, 0, 79, 0
2, 24957, Note_on_c, 0, 73, 0
2, 24960, Note_on_c, 0, 77, 64
2, 24960, Note_on_c, 0, 72, 64
2, 25005, Note_on_c, 0, 77, 0
2, 25005, Note_on_c, 0, 72, 0
2, 25008, Note_on_c, 0, 76, 64
2, 25008, Note_on_c, 0, 70, 64
2, 25053, Note_on_c, 0, 76, 0
2, 25053, Note_on_c, 0, 70, 0
2, 25056, Note_on_c, 0, 76, 64
2, 25056, Note_on_c, 0, 70, 64
2, 25321, Note_on_c, 0, 76, 0
2, 25321, Note_on_c, 0, 70, 0
2, 25344, Note_on_c, 0, 75, 64
2, 25344, Note_on_c, 0, 69, 64
2, 25521, Note_on_c, 0, 75, 0
2, 25521, Note_on_c, 0, 69, 0
2, 25536, Note_on_c, 0, 62, 75
2, 25560, Note_on_c, 0, 62, 0
2, 25560, Note_on_c, 0, 65, 75
2, 25583, Note_on_c, 0, 65, 0
2, 25584, Note_on_c, 0, 63, 75
2, 25608, Note_on_c, 0, 63, 0
2, 25608, Note_on_c, 0, 67, 75
2, 25631, Note_on_c, 0, 67, 0
2, 25632, Note_on_c, 0, 65, 75
2, 25652, Note_on_c, 0, 65, 0
2, 25776, Note_on_c, 0, 79, 75
2, 25799, Note_on_c, 0, 79, 0
2, 25800, Note_on_c, 0, 77, 75
2, 25823, Note_on_c, 0, 77, 0
2, 25824, Note_on_c, 0, 75, 75
2, 25847, Note_on_c, 0, 75, 0
2, 25848, Note_on_c, 0, 74, 75
2, 25871, Note_on_c, 0, 74, 0
2, 25872, Note_on_c, 0, 72, 75
2, 25895, Note_on_c, 0, 72, 0
2, 25896, Note_on_c, 0, 70, 75
2, 25919, Note_on_c, 0, 70, 0
2, 25920, Note_on_c, 0, 69, 75
2, 25940, Note_on_c, 0, 69, 0
2, 26112, Note_on_c, 0, 72, 75
2, 26136, Note_on_c, 0, 72, 0
2, 26136, Note_on_c, 0, 75, 75
2, 26159, Note_on_c, 0, 75, 0
2, 26160, Note_on_c, 0, 74, 75
2, 26184, Note_on_c, 0, 74, 0
2, 26184, Note_on_c, 0, 77, 75
2, 26207, Note_on_c, 0, 77, 0
2, 26208, Note_on_c, 0, 75, 75
2, 26228, Note_on_c, 0, 75, 0
2, 26352, Note_on_c, 0, 84, 75
2, 26375, Note_on_c, 0, 84, 0
2, 26376, Note_on_c, 0, 82, 75
2, 26399, Note_on_c, 0, 82, 0
2, 26400, Note_on_c, 0, 81, 75
2, 26423, Note_on_c, 0, 81, 0
2, 26424, Note_on_c, 0, 79, 75
2, 26447, Note_on_c, 0, 79, 0
2, 26448, Note_on_c, 0, 77, 75
2, 26471, Note_on_c, 0, 77, 0
2, 26472, Note_on_c, 0, 75, 75
2, 26495, Note_on_c, 0, 75, 0
2, 26496, Note_on_c, 0, 74, 75
2, 26516, Note_on_c, 0, 74, 0
2, 26592, Note_on_c, 0, 70, 80
2, 26615, Note_on_c, 0, 70, 0
2, 26616, Note_on_c, 0, 72, 80
2, 26639, Note_on_c, 0, 72, 0
2, 26640, Note_on_c, 0, 74, 81
2, 26663, Note_on_c, 0, 74, 0
2, 26664, Note_on_c, 0, 75, 82
2, 26687, Note_on_c, 0, 75, 0
2, 26688, Note_on_c, 0, 77, 83
2, 26711, Note_on_c, 0, 77, 0
2, 26712, Note_on_c, 0, 79, 83
2, 26735, Note_on_c, 0, 79, 0
2, 26736, Note_on_c, 0, 81, 84
2, 26759, Note_on_c, 0, 81, 0
2, 26760, Note_on_c, 0, 82, 85
2, 26783, Note_on_c, 0, 82, 0
2, 26784, Note_on_c, 0, 82, 102
2, 26880, Note_on_c, 0, 82, 0
2, 26880, Note_on_c, 0, 81, 83
2, 26925, Note_on_c, 0, 81, 0
2, 26928, Note_on_c, 0, 79, 82
2, 26973, Note_on_c, 0, 79, 0
2, 26976, Note_on_c, 0, 77, 81
2, 27021, Note_on_c, 0, 77, 0
2, 27024, Note_on_c, 0, 75, 80
2, 27069, Note_on_c, 0, 75, 0
2, 27072, Note_on_c, 0, 73, 80
2, 27120, Note_on_c, 0, 73, 0
2, 27120, Note_on_c, 0, 74, 80
2, 27165, Note_on_c, 0, 74, 0
2, 27168, Note_on_c, 0, 70, 80
2, 27191, Note_on_c, 0, 70, 0
2, 27192, Note_on_c, 0, 72, 80
2, 27215, Note_on_c, 0, 72, 0
2, 27216, Note_on_c, 0, 74, 81
2, 27239, Note_on_c, 0, 74, 0
2, 27240, Note_on_c, 0, 75, 82
2, 27263, Note_on_c, 0, 75, 0
2, 27264, Note_on_c, 0, 77, 83
2, 27287, Note_on_c, 0, 77, 0
2, 27288, Note_on_c, 0, 79, 83
2, 27311, Note_on_c, 0, 79, 0
2, 27312, Note_on_c, 0, 81, 84
2, 27335, Note_on_c, 0, 81, 0
2, 27336, Note_on_c, 0, 82, 85
2, 27346, Note_on_c, 0, 82, 0
2, 27360, Note_on_c, 0, 82, 102
2, 27456, Note_on_c, 0, 82, 0
2, 27456, Note_on_c, 0, 81, 84
2, 27501, Note_on_c, 0, 81, 0
2, 27504, Note_on_c, 0, 79, 83
2, 27549, Note_on_c, 0, 79, 0
2, 27552, Note_on_c, 0, 77, 82
2, 27597, Note_on_c, 0, 77, 0
2, 27600, Note_on_c, 0, 75, 81
2, 27645, Note_on_c, 0, 75, 0
2, 27648, Note_on_c, 0, 73, 80
2, 27696, Note_on_c, 0, 73, 0
2, 27696, Note_on_c, 0, 74, 80
2, 27741, Note_on_c, 0, 74, 0
2, 27744, Note_on_c, 0, 70, 80
2, 27767, Note_on_c, 0, 70, 0
2, 27768, Note_on_c, 0, 72, 80
2, 27791, Note_on_c, 0, 72, 0
2, 27792, Note_on_c, 0, 74, 81
2, 27815, Note_on_c, 0, 74, 0
2, 27816, Note_on_c, 0, 75, 82
2, 27839, Note_on_c, 0, 75, 0
2, 27840, Note_on_c, 0, 77, 83
2, 27863, Note_on_c, 0, 77, 0
2, 27864, Note_on_c, 0, 79, 83
2, 27887, Note_on_c, 0, 79, 0
2, 27888, Note_on_c, 0, 80, 84
2, 27911, Note_on_c, 0, 80, 0
2, 27912, Note_on_c, 0, 82, 85
2, 27922, Note_on_c, 0, 82, 0
2, 27936, Note_on_c, 0, 84, 102
2, 28080, Note_on_c, 0, 84, 0
2, 28080, Note_on_c, 0, 86, 86
2, 28092, Note_on_c, 0, 86, 0
2, 28092, Note_on_c, 0, 84, 86
2, 28104, Note_on_c, 0, 84, 0
2, 28104, Note_on_c, 0, 83, 86
2, 28116, Note_on_c, 0, 83, 0
2, 28116, Note_on_c, 0, 84, 86
2, 28128, Note_on_c, 0, 84, 0
2, 28128, Note_on_c, 0, 89, 86
2, 28195, Note_on_c, 0, 89, 0
2, 28200, Note_on_c, 0, 86, 86
2, 28223, Note_on_c, 0, 86, 0
2, 28224, Note_on_c, 0, 84, 86
2, 28313, Note_on_c, 0, 84, 0
2, 28320, Note_on_c, 0, 83, 86
2, 28334, Note_on_c, 0, 83, 0
2, 28335, Note_on_c, 0, 84, 86
2, 28349, Note_on_c, 0, 84, 0
2, 28350, Note_on_c, 0, 83, 86
2, 28364, Note_on_c, 0, 83, 0
2, 28365, Note_on_c, 0, 84, 86
2, 28379, Note_on_c, 0, 84, 0
2, 28380, Note_on_c, 0, 83, 86
2, 28394, Note_on_c, 0, 83, 0
2, 28395, Note_on_c, 0, 84, 86
2, 28409, Note_on_c, 0, 84, 0
2, 28410, Note_on_c, 0, 83, 86
2, 28424, Note_on_c, 0, 83, 0
2, 28425, Note_on_c, 0, 84, 86
2, 28439, Note_on_c, 0, 84, 0
2, 28440, Note_on_c, 0, 83, 86
2, 28454, Note_on_c, 0, 83, 0
2, 28455, Note_on_c, 0, 84, 86
2, 28469, Note_on_c, 0, 84, 0
2, 28470, Note_on_c, 0, 83, 86
2, 28483, Note_on_c, 0, 83, 0
2, 28484, Note_on_c, 0, 81, 86
2, 28497, Note_on_c, 0, 81, 0
2, 28498, Note_on_c, 0, 83, 86
2, 28511, Note_on_c, 0, 83, 0
2, 28512, Note_on_c, 0, 84, 86
2, 28531, Note_on_c, 0, 84, 0
2, 28536, Note_on_c, 0, 86, 86
2, 28548, Note_on_c, 0, 86, 0
2, 28548, Note_on_c, 0, 84, 86
2, 28560, Note_on_c, 0, 84, 0
2, 28560, Note_on_c, 0, 83, 86
2, 28572, Note_on_c, 0, 83, 0
2, 28572, Note_on_c, 0, 84, 86
2, 28584, Note_on_c, 0, 84, 0
2, 28584, Note_on_c, 0, 86, 86
2, 28607, Note_on_c, 0, 86, 0
2, 28608, Note_on_c, 0, 87, 86
2, 28653, Note_on_c, 0, 87, 0
2, 28680, Note_on_c, 0, 86, 86
2, 28703, Note_on_c, 0, 86, 0
2, 28704, Note_on_c, 0, 84, 86
2, 28749, Note_on_c, 0, 84, 0
2, 28776, Note_on_c, 0, 82, 86
2, 28799, Note_on_c, 0, 82, 0
2, 28800, Note_on_c, 0, 82, 86
2, 28889, Note_on_c, 0, 82, 0
2, 28896, Note_on_c, 0, 81, 83
2, 28909, Note_on_c, 0, 81, 0
2, 28910, Note_on_c, 0, 82, 82
2, 28923, Note_on_c, 0, 82, 0
2, 28924, Note_on_c, 0, 81, 82
2, 28937, Note_on_c, 0, 81, 0
2, 28938, Note_on_c, 0, 82, 81
2, 28951, Note_on_c, 0, 82, 0
2, 28952, Note_on_c, 0, 81, 81
2, 28965, Note_on_c, 0, 81, 0
2, 28966, Note_on_c, 0, 79, 81
2, 28978, Note_on_c, 0, 79, 0
2, 28979, Note_on_c, 0, 81, 80
2, 28991, Note_on_c, 0, 81, 0
2, 28992, Note_on_c, 0, 82, 80
2, 29081, Note_on_c, 0, 82, 0
2, 29088, Note_on_c, 0, 81, 75
2, 29111, Note_on_c, 0, 81, 0
2, 29112, Note_on_c, 0, 79, 75
2, 29135, Note_on_c, 0, 79, 0
2, 29136, Note_on_c, 0, 78, 75
2, 29159, Note_on_c, 0, 78, 0
2, 29160, Note_on_c, 0, 79, 75
2, 29183, Note_on_c, 0, 79, 0
2, 29184, Note_on_c, 0, 78, 75
2, 29207, Note_on_c, 0, 78, 0
2, 29208, Note_on_c, 0, 79, 75
2, 29231, Note_on_c, 0, 79, 0
2, 29232, Note_on_c, 0, 78, 75
2, 29255, Note_on_c, 0, 78, 0
2, 29256, Note_on_c, 0, 79, 75
2, 29279, Note_on_c, 0, 79, 0
2, 29280, Note_on_c, 0, 82, 75
2, 29325, Note_on_c, 0, 82, 0
2, 29328, Note_on_c, 0, 79, 75
2, 29373, Note_on_c, 0, 79, 0
2, 29376, Note_on_c, 0, 77, 75
2, 29399, Note_on_c, 0, 77, 0
2, 29400, Note_on_c, 0, 75, 75
2, 29423, Note_on_c, 0, 75, 0
2, 29424, Note_on_c, 0, 74, 75
2, 29447, Note_on_c, 0, 74, 0
2, 29448, Note_on_c, 0, 75, 75
2, 29471, Note_on_c, 0, 75, 0
2, 29472, Note_on_c, 0, 74, 75
2, 29495, Note_on_c, 0, 74, 0
2, 29496, Note_on_c, 0, 75, 75
2, 29519, Note_on_c, 0, 75, 0
2, 29520, Note_on_c, 0, 74, 75
2, 29543, Note_on_c, 0, 74, 0
2, 29544, Note_on_c, 0, 75, 75
2, 29567, Note_on_c, 0, 75, 0
2, 29568, Note_on_c, 0, 79, 75
2, 29613, Note_on_c, 0, 79, 0
2, 29616, Note_on_c, 0, 75, 75
2, 29661, Note_on_c, 0, 75, 0
2, 29664, Note_on_c, 0, 74, 75
2, 29687, Note_on_c, 0, 74, 0
2, 29688, Note_on_c, 0, 72, 75
2, 29711, Note_on_c, 0, 72, 0
2, 29712, Note_on_c, 0, 71, 75
2, 29735, Note_on_c, 0, 71, 0
2, 29736, Note_on_c, 0, 72, 75
2, 29759, Note_on_c, 0, 72, 0
2, 29760, Note_on_c, 0, 74, 75
2, 29783, Note_on_c, 0, 74, 0
2, 29784, Note_on_c, 0, 72, 75
2, 29807, Note_on_c, 0, 72, 0
2, 29808, Note_on_c, 0, 71, 75
2, 29831, Note_on_c, 0, 71, 0
2, 29832, Note_on_c, 0, 72, 75
2, 29855, Note_on_c, 0, 72, 0
2, 29856, Note_on_c, 0, 74, 75
2, 29879, Note_on_c, 0, 74, 0
2, 29880, Note_on_c, 0, 72, 75
2, 29903, Note_on_c, 0, 72, 0
2, 29904, Note_on_c, 0, 71, 75
2, 29927, Note_on_c, 0, 71, 0
2, 29928, Note_on_c, 0, 72, 75
2, 29951, Note_on_c, 0, 72, 0
2, 29952, Note_on_c, 0, 78, 75
2, 30005, Note_on_c, 0, 78, 0
2, 30012, Note_on_c, 0, 79, 75
2, 30024, Note_on_c, 0, 79, 0
2, 30024, Note_on_c, 0, 78, 75
2, 30036, Note_on_c, 0, 78, 0
2, 30036, Note_on_c, 0, 76, 75
2, 30048, Note_on_c, 0, 76, 0
2, 30048, Note_on_c, 0, 78, 75
2, 30115, Note_on_c, 0, 78, 0
2, 30120, Note_on_c, 0, 81, 75
2, 30143, Note_on_c, 0, 81, 0
2, 30144, Note_on_c, 0, 79, 75
2, 30174, Note_on_c, 0, 79, 0
2, 30176, Note_on_c, 0, 75, 75
2, 30206, Note_on_c, 0, 75, 0
2, 30208, Note_on_c, 0, 72, 75
2, 30238, Note_on_c, 0, 72, 0
2, 30240, Note_on_c, 0, 70, 75
2, 30373, Note_on_c, 0, 70, 0
2, 30384, Note_on_c, 0, 72, 75
2, 30396, Note_on_c, 0, 72, 0
2, 30396, Note_on_c, 0, 70, 75
2, 30408, Note_on_c, 0, 70, 0
2, 30408, Note_on_c, 0, 69, 75
2, 30420, Note_on_c, 0, 69, 0
2, 30420, Note_on_c, 0, 70, 75
2, 30432, Note_on_c, 0, 70, 0
2, 30432, Note_on_c, 0, 74, 75
2, 30499, Note_on_c, 0, 74, 0
2, 30504, Note_on_c, 0, 72, 75
2, 30527, Note_on_c, 0, 72, 0
2, 30528, Note_on_c, 0, 70, 75
2, 30617, Note_on_c, 0, 70, 0
2, 30672, Note_on_c, 0, 41, 80
2, 30717, Note_on_c, 0, 41, 0
2, 30720, Note_on_c, 0, 46, 80
2, 30765, Note_on_c, 0, 46, 0
2, 30768, Note_on_c, 0, 50, 80
2, 30813, Note_on_c, 0, 50, 0
2, 30816, Note_on_c, 0, 51, 96
2, 30960, Note_on_c, 0, 51, 0
2, 30960, Note_on_c, 0, 48, 80
2, 30983, Note_on_c, 0, 48, 0
2, 30984, Note_on_c, 0, 45, 80
2, 31007, Note_on_c, 0, 45, 0
2, 31008, Note_on_c, 0, 41, 80
2, 31053, Note_on_c, 0, 41, 0
2, 31056, Note_on_c, 0, 39, 80
2, 31101, Note_on_c, 0, 39, 0
2, 31104, Note_on_c, 0, 38, 80
2, 31149, Note_on_c, 0, 38, 0
2, 31248, Note_on_c, 0, 77, 80
2, 31293, Note_on_c, 0, 77, 0
2, 31296, Note_on_c, 0, 82, 80
2, 31341, Note_on_c, 0, 82, 0
2, 31344, Note_on_c, 0, 86, 80
2, 31389, Note_on_c, 0, 86, 0
2, 31392, Note_on_c, 0, 77, 80
2, 31404, Note_on_c, 0, 77, 0
2, 31404, Note_on_c, 0, 81, 80
2, 31416, Note_on_c, 0, 81, 0
2, 31416, Note_on_c, 0, 84, 80
2, 31428, Note_on_c, 0, 84, 0
2, 31428, Note_on_c, 0, 87, 96
2, 31536, Note_on_c, 0, 87, 0
2, 31536, Note_on_c, 0, 84, 80
2, 31559, Note_on_c, 0, 84, 0
2, 31560, Note_on_c, 0, 81, 80
2, 31583, Note_on_c, 0, 81, 0
2, 31584, Note_on_c, 0, 77, 80
2, 31629, Note_on_c, 0, 77, 0
2, 31632, Note_on_c, 0, 75, 80
2, 31677, Note_on_c, 0, 75, 0
2, 31680, Note_on_c, 0, 74, 80
2, 31725, Note_on_c, 0, 74, 0
2, 31824, Note_on_c, 0, 41, 80
2, 31869, Note_on_c, 0, 41, 0
2, 31872, Note_on_c, 0, 46, 80
2, 31917, Note_on_c, 0, 46, 0
2, 31920, Note_on_c, 0, 50, 80
2, 31965, Note_on_c, 0, 50, 0
2, 31968, Note_on_c, 0, 51, 96
2, 32016, Note_on_c, 0, 51, 0
2, 32040, Note_on_c, 0, 51, 80
2, 32052, Note_on_c, 0, 51, 0
2, 32052, Note_on_c, 0, 48, 80
2, 32064, Note_on_c, 0, 48, 0
2, 32064, Note_on_c, 0, 45, 96
2, 32112, Note_on_c, 0, 45, 0
2, 32136, Note_on_c, 0, 48, 80
2, 32148, Note_on_c, 0, 48, 0
2, 32148, Note_on_c, 0, 45, 80
2, 32160, Note_on_c, 0, 45, 0
2, 32160, Note_on_c, 0, 41, 80
2, 32205, Note_on_c, 0, 41, 0
2, 32208, Note_on_c, 0, 39, 80
2, 32253, Note_on_c, 0, 39, 0
2, 32256, Note_on_c, 0, 38, 80
2, 32301, Note_on_c, 0, 38, 0
2, 32376, Note_on_c, 0, 77, 80
2, 32399, Note_on_c, 0, 77, 0
2, 32400, Note_on_c, 0, 82, 80
2, 32423, Note_on_c, 0, 82, 0
2, 32424, Note_on_c, 0, 86, 80
2, 32447, Note_on_c, 0, 86, 0
2, 32448, Note_on_c, 0, 89, 80
2, 32493, Note_on_c, 0, 89, 0
2, 32496, Note_on_c, 0, 89, 80
2, 32541, Note_on_c, 0, 89, 0
2, 32544, Note_on_c, 0, 87, 80
2, 32567, Note_on_c, 0, 87, 0
2, 32568, Note_on_c, 0, 89, 80
2, 32591, Note_on_c, 0, 89, 0
2, 32592, Note_on_c, 0, 87, 80
2, 32615, Note_on_c, 0, 87, 0
2, 32616, Note_on_c, 0, 86, 80
2, 32639, Note_on_c, 0, 86, 0
2, 32640, Note_on_c, 0, 84, 80
2, 32663, Note_on_c, 0, 84, 0
2, 32664, Note_on_c, 0, 82, 80
2, 32687, Note_on_c, 0, 82, 0
2, 32688, Note_on_c, 0, 81, 79
2, 32711, Note_on_c, 0, 81, 0
2, 32712, Note_on_c, 0, 79, 78
2, 32735, Note_on_c, 0, 79, 0
2, 32736, Note_on_c, 0, 77, 77
2, 32759, Note_on_c, 0, 77, 0
2, 32760, Note_on_c, 0, 75, 77
2, 32783, Note_on_c, 0, 75, 0
2, 32784, Note_on_c, 0, 74, 76
2, 32807, Note_on_c, 0, 74, 0
2, 32808, Note_on_c, 0, 72, 75
2, 32831, Note_on_c, 0, 72, 0
2, 32832, Note_on_c, 0, 70, 75
2, 32877, Note_on_c, 0, 70, 0
2, 32880, Note_on_c, 0, 86, 75
2, 32880, Note_on_c, 0, 82, 75
2, 32925, Note_on_c, 0, 86, 0
2, 32925, Note_on_c, 0, 82, 0
2, 32976, Note_on_c, 0, 84, 75
2, 32976, Note_on_c, 0, 81, 75
2, 33021, Note_on_c, 0, 84, 0
2, 33021, Note_on_c, 0, 81, 0
2, 33072, Note_on_c, 0, 82, 70
2, 33072, Note_on_c, 0, 79, 70
2, 33117, Note_on_c, 0, 82, 0
2, 33117, Note_on_c, 0, 79, 0
2, 33168, Note_on_c, 0, 80, 66
2, 33168, Note_on_c, 0, 77, 66
2, 33213, Note_on_c, 0, 80, 0
2, 33213, Note_on_c, 0, 77, 0
2, 33264, Note_on_c, 0, 79, 64
2, 33264, Note_on_c, 0, 75, 64
2, 33309, Note_on_c, 0, 79, 0
2, 33309, Note_on_c, 0, 75, 0
2, 33360, Note_on_c, 0, 77, 64
2, 33360, Note_on_c, 0, 74, 64
2, 33405, Note_on_c, 0, 77, 0
2, 33405, Note_on_c, 0, 74, 0
2, 33456, Note_on_c, 0, 75, 64
2, 33456, Note_on_c, 0, 72, 64
2, 33501, Note_on_c, 0, 75, 0
2, 33501, Note_on_c, 0, 72, 0
2, 33840, Note_on_c, 0, 75, 64
2, 33840, Note_on_c, 0, 72, 64
2, 33860, Note_on_c, 0, 75, 0
2, 33860, Note_on_c, 0, 72, 0
2, 33888, Note_on_c, 0, 75, 64
2, 33888, Note_on_c, 0, 72, 64
2, 33908, Note_on_c, 0, 75, 0
2, 33908, Note_on_c, 0, 72, 0
2, 33936, Note_on_c, 0, 75, 64
2, 33936, Note_on_c, 0, 72, 64
2, 33956, Note_on_c, 0, 75, 0
2, 33956, Note_on_c, 0, 72, 0
2, 33984, Note_on_c, 0, 75, 64
2, 33984, Note_on_c, 0, 72, 64
2, 34405, Note_on_c, 0, 75, 0
2, 34405, Note_on_c, 0, 72, 0
2, 34416, Note_on_c, 0, 75, 64
2, 34416, Note_on_c, 0, 72, 64
2, 34436, Note_on_c, 0, 75, 0
2, 34436, Note_on_c, 0, 72, 0
2, 34464, Note_on_c, 0, 75, 64
2, 34464, Note_on_c, 0, 72, 64
2, 34484, Note_on_c, 0, 75, 0
2, 34484, Note_on_c, 0, 72, 0
2, 34512, Note_on_c, 0, 75, 64
2, 34512, Note_on_c, 0, 72, 64
2, 34532, Note_on_c, 0, 75, 0
2, 34532, Note_on_c, 0, 72, 0
2, 34560, Note_on_c, 0, 75, 64
2, 34560, Note_on_c, 0, 72, 64
2, 35025, Note_on_c, 0, 75, 0
2, 35025, Note_on_c, 0, 72, 0
2, 35040, Note_on_c, 0, 76, 75
2, 35040, Note_on_c, 0, 73, 75
2, 35040, Note_on_c, 0, 70, 75
2, 35129, Note_on_c, 0, 76, 0
2, 35129, Note_on_c, 0, 73, 0
2, 35129, Note_on_c, 0, 70, 0
2, 35136, Note_on_c, 0, 65, 77
2, 35148, Note_on_c, 0, 70, 77
2, 35160, Note_on_c, 0, 74, 77
2, 35172, Note_on_c, 0, 77, 77
2, 35277, Note_on_c, 0, 77, 0
2, 35277, Note_on_c, 0, 74, 0
2, 35277, Note_on_c, 0, 70, 0
2, 35277, Note_on_c, 0, 65, 0
2, 35280, Note_on_c, 0, 79, 80
2, 35303, Note_on_c, 0, 79, 0
2, 35304, Note_on_c, 0, 77, 80
2, 35327, Note_on_c, 0, 77, 0
2, 35328, Note_on_c, 0, 75, 80
2, 35351, Note_on_c, 0, 75, 0
2, 35352, Note_on_c, 0, 74, 80
2, 35375, Note_on_c, 0, 74, 0
2, 35376, Note_on_c, 0, 72, 80
2, 35399, Note_on_c, 0, 72, 0
2, 35400, Note_on_c, 0, 70, 80
2, 35423, Note_on_c, 0, 70, 0
2, 35424, Note_on_c, 0, 69, 80
2, 35521, Note_on_c, 0, 69, 0
2, 35532, Note_on_c, 0, 74, 80
2, 35544, Note_on_c, 0, 74, 0
2, 35544, Note_on_c, 0, 72, 80
2, 35556, Note_on_c, 0, 72, 0
2, 35556, Note_on_c, 0, 71, 80
2, 35568, Note_on_c, 0, 71, 0
2, 35568, Note_on_c, 0, 72, 80
2, 35613, Note_on_c, 0, 72, 0
2, 35616, Note_on_c, 0, 75, 76
2, 35661, Note_on_c, 0, 75, 0
2, 35664, Note_on_c, 0, 69, 73
2, 35709, Note_on_c, 0, 69, 0
2, 35712, Note_on_c, 0, 70, 70
2, 35757, Note_on_c, 0, 70, 0
2, 35760, Note_on_c, 0, 65, 67
2, 35805, Note_on_c, 0, 65, 0
2, 35808, Note_on_c, 0, 66, 64
2, 35853, Note_on_c, 0, 66, 0
2, 35856, Note_on_c, 0, 67, 64
2, 35901, Note_on_c, 0, 67, 0
2, 35904, Note_on_c, 0, 68, 64
2, 35949, Note_on_c, 0, 68, 0
2, 35952, Note_on_c, 0, 69, 64
2, 35997, Note_on_c, 0, 69, 0
2, 36000, Note_on_c, 0, 70, 64
2, 36045, Note_on_c, 0, 70, 0
2, 36048, Note_on_c, 0, 71, 64
2, 36093, Note_on_c, 0, 71, 0
2, 36096, Note_on_c, 0, 72, 64
2, 36141, Note_on_c, 0, 72, 0
2, 36144, Note_on_c, 0, 74, 64
2, 36189, Note_on_c, 0, 74, 0
2, 36192, Note_on_c, 0, 75, 64
2, 36237, Note_on_c, 0, 75, 0
2, 36240, Note_on_c, 0, 69, 64
2, 36285, Note_on_c, 0, 69, 0
2, 36288, Note_on_c, 0, 70, 64
2, 36308, Note_on_c, 0, 70, 0
2, 36336, Note_on_c, 0, 77, 80
2, 36336, Note_on_c, 0, 74, 80
2, 36381, Note_on_c, 0, 77, 0
2, 36381, Note_on_c, 0, 74, 0
2, 36384, Note_on_c, 0, 79, 80
2, 36384, Note_on_c, 0, 75, 80
2, 36429, Note_on_c, 0, 79, 0
2, 36429, Note_on_c, 0, 75, 0
2, 36432, Note_on_c, 0, 77, 80
2, 36432, Note_on_c, 0, 74, 80
2, 36477, Note_on_c, 0, 77, 0
2, 36477, Note_on_c, 0, 74, 0
2, 36480, Note_on_c, 0, 75, 80
2, 36480, Note_on_c, 0, 72, 80
2, 36525, Note_on_c, 0, 75, 0
2, 36525, Note_on_c, 0, 72, 0
2, 36528, Note_on_c, 0, 74, 80
2, 36528, Note_on_c, 0, 70, 80
2, 36573, Note_on_c, 0, 74, 0
2, 36573, Note_on_c, 0, 70, 0
2, 36576, Note_on_c, 0, 72, 80
2, 36576, Note_on_c, 0, 69, 80
2, 36665, Note_on_c, 0, 72, 0
2, 36665, Note_on_c, 0, 69, 0
2, 36768, Note_on_c, 0, 81, 80
2, 36768, Note_on_c, 0, 75, 80
2, 36768, Note_on_c, 0, 72, 80
2, 36807, Note_on_c, 0, 81, 0
2, 36807, Note_on_c, 0, 75, 0
2, 36807, Note_on_c, 0, 72, 0
2, 36864, Note_on_c, 0, 82, 80
2, 36864, Note_on_c, 0, 77, 80
2, 36864, Note_on_c, 0, 74, 80
2, 36953, Note_on_c, 0, 82, 0
2, 36953, Note_on_c, 0, 77, 0
2, 36953, Note_on_c, 0, 74, 0
2, 37104, Note_on_c, 0, 65, 70
2, 37104, Note_on_c, 0, 62, 70
2, 37149, Note_on_c, 0, 65, 0
2, 37149, Note_on_c, 0, 62, 0
2, 37152, Note_on_c, 0, 67, 70
2, 37152, Note_on_c, 0, 63, 70
2, 37197, Note_on_c, 0, 67, 0
2, 37197, Note_on_c, 0, 63, 0
2, 37200, Note_on_c, 0, 65, 70
2, 37200, Note_on_c, 0, 62, 70
2, 37245, Note_on_c, 0, 65, 0
2, 37245, Note_on_c, 0, 62, 0
2, 37248, Note_on_c, 0, 63, 70
2, 37248, Note_on_c, 0, 60, 70
2, 37293, Note_on_c, 0, 63, 0
2, 37293, Note_on_c, 0, 60, 0
2, 37296, Note_on_c, 0, 62, 70
2, 37296, Note_on_c, 0, 58, 70
2, 37341, Note_on_c, 0, 62, 0
2, 37341, Note_on_c, 0, 58, 0
2, 37344, Note_on_c, 0, 60, 70
2, 37344, Note_on_c, 0, 57, 70
2, 37389, Note_on_c, 0, 60, 0
2, 37389, Note_on_c, 0, 57, 0
2, 37392, Note_on_c, 0, 63, 70
2, 37392, Note_on_c, 0, 60, 70
2, 37437, Note_on_c, 0, 63, 0
2, 37437, Note_on_c, 0, 60, 0
2, 37440, Note_on_c, 0, 62, 70
2, 37529, Note_on_c, 0, 62, 0
2, 37536, Note_on_c, 0, 70, 70
2, 37669, Note_on_c, 0, 70, 0
2, 37680, Note_on_c, 0, 69, 70
2, 37725, Note_on_c, 0, 69, 0
2, 37728, Note_on_c, 0, 68, 70
2, 37817, Note_on_c, 0, 68, 0
2, 37824, Note_on_c, 0, 67, 70
2, 37913, Note_on_c, 0, 67, 0
2, 37920, Note_on_c, 0, 75, 70
2, 38105, Note_on_c, 0, 75, 0
2, 38112, Note_on_c, 0, 74, 70
2, 38393, Note_on_c, 0, 74, 0
2, 38400, Note_on_c, 0, 72, 70
2, 38681, Note_on_c, 0, 72, 0
2, 38688, Note_on_c, 0, 71, 70
2, 38969, Note_on_c, 0, 71, 0
2, 38976, Note_on_c, 0, 68, 70
2, 39065, Note_on_c, 0, 68, 0
2, 39072, Note_on_c, 0, 77, 70
2, 39257, Note_on_c, 0, 77, 0
2, 39264, Note_on_c, 0, 76, 70
2, 39353, Note_on_c, 0, 76, 0
2, 39360, Note_on_c, 0, 79, 70
2, 39501, Note_on_c, 0, 79, 0
2, 39504, Note_on_c, 0, 76, 70
2, 39549, Note_on_c, 0, 76, 0
2, 39552, Note_on_c, 0, 77, 70
2, 39597, Note_on_c, 0, 77, 0
2, 39600, Note_on_c, 0, 79, 70
2, 39645, Note_on_c, 0, 79, 0
2, 39648, Note_on_c, 0, 80, 70
2, 39833, Note_on_c, 0, 80, 0
2, 39840, Note_on_c, 0, 79, 70
2, 39929, Note_on_c, 0, 79, 0
2, 39936, Note_on_c, 0, 77, 70
2, 40025, Note_on_c, 0, 77, 0
2, 40032, Note_on_c, 0, 75, 70
2, 40297, Note_on_c, 0, 75, 0
2, 40320, Note_on_c, 0, 74, 70
2, 40653, Note_on_c, 0, 74, 0
2, 40656, Note_on_c, 0, 71, 70
2, 40701, Note_on_c, 0, 71, 0
2, 40704, Note_on_c, 0, 72, 70
2, 40749, Note_on_c, 0, 72, 0
2, 40752, Note_on_c, 0, 74, 70
2, 40797, Note_on_c, 0, 74, 0
2, 40800, Note_on_c, 0, 75, 70
2, 40845, Note_on_c, 0, 75, 0
2, 40848, Note_on_c, 0, 66, 70
2, 40893, Note_on_c, 0, 66, 0
2, 40896, Note_on_c, 0, 67, 70
2, 40941, Note_on_c, 0, 67, 0
2, 40944, Note_on_c, 0, 78, 70
2, 40992, Note_on_c, 0, 78, 0
2, 40992, Note_on_c, 0, 79, 70
2, 41037, Note_on_c, 0, 79, 0
2, 41040, Note_on_c, 0, 77, 70
2, 41085, Note_on_c, 0, 77, 0
2, 41088, Note_on_c, 0, 75, 70
2, 41133, Note_on_c, 0, 75, 0
2, 41136, Note_on_c, 0, 74, 70
2, 41181, Note_on_c, 0, 74, 0
2, 41184, Note_on_c, 0, 72, 70
2, 41229, Note_on_c, 0, 72, 0
2, 41232, Note_on_c, 0, 71, 70
2, 41277, Note_on_c, 0, 71, 0
2, 41280, Note_on_c, 0, 72, 70
2, 41325, Note_on_c, 0, 72, 0
2, 41328, Note_on_c, 0, 68, 70
2, 41373, Note_on_c, 0, 68, 0
2, 41376, Note_on_c, 0, 67, 70
2, 41421, Note_on_c, 0, 67, 0
2, 41424, Note_on_c, 0, 66, 70
2, 41469, Note_on_c, 0, 66, 0
2, 41472, Note_on_c, 0, 67, 70
2, 41511, Note_on_c, 0, 67, 0
2, 41664, Note_on_c, 0, 72, 75
2, 41688, Note_on_c, 0, 72, 0
2, 41688, Note_on_c, 0, 75, 75
2, 41711, Note_on_c, 0, 75, 0
2, 41712, Note_on_c, 0, 74, 75
2, 41736, Note_on_c, 0, 74, 0
2, 41736, Note_on_c, 0, 77, 75
2, 41759, Note_on_c, 0, 77, 0
2, 41760, Note_on_c, 0, 75, 75
2, 41780, Note_on_c, 0, 75, 0
2, 41904, Note_on_c, 0, 80, 75
2, 41927, Note_on_c, 0, 80, 0
2, 41928, Note_on_c, 0, 79, 75
2, 41951, Note_on_c, 0, 79, 0
2, 41952, Note_on_c, 0, 77, 75
2, 41975, Note_on_c, 0, 77, 0
2, 41976, Note_on_c, 0, 75, 75
2, 41999, Note_on_c, 0, 75, 0
2, 42000, Note_on_c, 0, 74, 75
2, 42023, Note_on_c, 0, 74, 0
2, 42024, Note_on_c, 0, 72, 75
2, 42047, Note_on_c, 0, 72, 0
2, 42048, Note_on_c, 0, 71, 75
2, 42068, Note_on_c, 0, 71, 0
2, 42240, Note_on_c, 0, 74, 75
2, 42264, Note_on_c, 0, 74, 0
2, 42264, Note_on_c, 0, 77, 75
2, 42287, Note_on_c, 0, 77, 0
2, 42288, Note_on_c, 0, 75, 75
2, 42312, Note_on_c, 0, 75, 0
2, 42312, Note_on_c, 0, 79, 75
2, 42335, Note_on_c, 0, 79, 0
2, 42336, Note_on_c, 0, 77, 75
2, 42356, Note_on_c, 0, 77, 0
2, 42480, Note_on_c, 0, 86, 75
2, 42503, Note_on_c, 0, 86, 0
2, 42504, Note_on_c, 0, 84, 75
2, 42527, Note_on_c, 0, 84, 0
2, 42528, Note_on_c, 0, 83, 75
2, 42551, Note_on_c, 0, 83, 0
2, 42552, Note_on_c, 0, 80, 75
2, 42575, Note_on_c, 0, 80, 0
2, 42576, Note_on_c, 0, 79, 75
2, 42599, Note_on_c, 0, 79, 0
2, 42600, Note_on_c, 0, 77, 75
2, 42623, Note_on_c, 0, 77, 0
2, 42624, Note_on_c, 0, 75, 75
2, 42644, Note_on_c, 0, 75, 0
2, 42720, Note_on_c, 0, 72, 80
2, 42743, Note_on_c, 0, 72, 0
2, 42744, Note_on_c, 0, 74, 80
2, 42767, Note_on_c, 0, 74, 0
2, 42768, Note_on_c, 0, 75, 80
2, 42791, Note_on_c, 0, 75, 0
2, 42792, Note_on_c, 0, 77, 80
2, 42815, Note_on_c, 0, 77, 0
2, 42816, Note_on_c, 0, 79, 80
2, 42839, Note_on_c, 0, 79, 0
2, 42840, Note_on_c, 0, 81, 80
2, 42863, Note_on_c, 0, 81, 0
2, 42864, Note_on_c, 0, 83, 80
2, 42887, Note_on_c, 0, 83, 0
2, 42888, Note_on_c, 0, 84, 80
2, 42898, Note_on_c, 0, 84, 0
2, 42912, Note_on_c, 0, 84, 96
2, 43008, Note_on_c, 0, 84, 0
2, 43008, Note_on_c, 0, 83, 80
2, 43053, Note_on_c, 0, 83, 0
2, 43056, Note_on_c, 0, 80, 80
2, 43101, Note_on_c, 0, 80, 0
2, 43104, Note_on_c, 0, 79, 80
2, 43149, Note_on_c, 0, 79, 0
2, 43152, Note_on_c, 0, 77, 80
2, 43197, Note_on_c, 0, 77, 0
2, 43200, Note_on_c, 0, 75, 80
2, 43245, Note_on_c, 0, 75, 0
2, 43296, Note_on_c, 0, 72, 80
2, 43319, Note_on_c, 0, 72, 0
2, 43320, Note_on_c, 0, 74, 80
2, 43343, Note_on_c, 0, 74, 0
2, 43344, Note_on_c, 0, 75, 80
2, 43367, Note_on_c, 0, 75, 0
2, 43368, Note_on_c, 0, 77, 80
2, 43391, Note_on_c, 0, 77, 0
2, 43392, Note_on_c, 0, 79, 80
2, 43415, Note_on_c, 0, 79, 0
2, 43416, Note_on_c, 0, 81, 80
2, 43439, Note_on_c, 0, 81, 0
2, 43440, Note_on_c, 0, 83, 80
2, 43463, Note_on_c, 0, 83, 0
2, 43464, Note_on_c, 0, 84, 80
2, 43487, Note_on_c, 0, 84, 0
2, 43488, Note_on_c, 0, 85, 96
2, 43632, Note_on_c, 0, 85, 0
2, 43632, Note_on_c, 0, 82, 80
2, 43655, Note_on_c, 0, 82, 0
2, 43656, Note_on_c, 0, 79, 80
2, 43679, Note_on_c, 0, 79, 0
2, 43680, Note_on_c, 0, 75, 80
2, 43725, Note_on_c, 0, 75, 0
2, 43728, Note_on_c, 0, 73, 80
2, 43773, Note_on_c, 0, 73, 0
2, 43776, Note_on_c, 0, 72, 80
2, 43821, Note_on_c, 0, 72, 0
2, 43872, Note_on_c, 0, 68, 80
2, 43895, Note_on_c, 0, 68, 0
2, 43896, Note_on_c, 0, 70, 80
2, 43919, Note_on_c, 0, 70, 0
2, 43920, Note_on_c, 0, 72, 80
2, 43943, Note_on_c, 0, 72, 0
2, 43944, Note_on_c, 0, 73, 80
2, 43967, Note_on_c, 0, 73, 0
2, 43968, Note_on_c, 0, 75, 80
2, 43991, Note_on_c, 0, 75, 0
2, 43992, Note_on_c, 0, 77, 80
2, 44015, Note_on_c, 0, 77, 0
2, 44016, Note_on_c, 0, 79, 80
2, 44039, Note_on_c, 0, 79, 0
2, 44040, Note_on_c, 0, 80, 80
2, 44050, Note_on_c, 0, 80, 0
2, 44064, Note_on_c, 0, 80, 96
2, 44160, Note_on_c, 0, 80, 0
2, 44160, Note_on_c, 0, 79, 80
2, 44205, Note_on_c, 0, 79, 0
2, 44208, Note_on_c, 0, 77, 80
2, 44253, Note_on_c, 0, 77, 0
2, 44256, Note_on_c, 0, 75, 80
2, 44301, Note_on_c, 0, 75, 0
2, 44304, Note_on_c, 0, 73, 80
2, 44349, Note_on_c, 0, 73, 0
2, 44352, Note_on_c, 0, 72, 80
2, 44397, Note_on_c, 0, 72, 0
2, 44448, Note_on_c, 0, 72, 80
2, 44471, Note_on_c, 0, 72, 0
2, 44472, Note_on_c, 0, 73, 80
2, 44495, Note_on_c, 0, 73, 0
2, 44496, Note_on_c, 0, 75, 80
2, 44519, Note_on_c, 0, 75, 0
2, 44520, Note_on_c, 0, 77, 80
2, 44543, Note_on_c, 0, 77, 0
2, 44544, Note_on_c, 0, 79, 80
2, 44567, Note_on_c, 0, 79, 0
2, 44568, Note_on_c, 0, 80, 80
2, 44591, Note_on_c, 0, 80, 0
2, 44592, Note_on_c, 0, 82, 80
2, 44615, Note_on_c, 0, 82, 0
2, 44616, Note_on_c, 0, 84, 80
2, 44639, Note_on_c, 0, 84, 0
2, 44640, Note_on_c, 0, 82, 96
2, 44784, Note_on_c, 0, 82, 0
2, 44784, Note_on_c, 0, 79, 80
2, 44807, Note_on_c, 0, 79, 0
2, 44808, Note_on_c, 0, 76, 80
2, 44831, Note_on_c, 0, 76, 0
2, 44832, Note_on_c, 0, 72, 80
2, 44877, Note_on_c, 0, 72, 0
2, 44880, Note_on_c, 0, 70, 80
2, 44925, Note_on_c, 0, 70, 0
2, 44928, Note_on_c, 0, 68, 80
2, 44973, Note_on_c, 0, 68, 0
2, 45024, Note_on_c, 0, 65, 80
2, 45047, Note_on_c, 0, 65, 0
2, 45048, Note_on_c, 0, 67, 80
2, 45071, Note_on_c, 0, 67, 0
2, 45072, Note_on_c, 0, 68, 80
2, 45095, Note_on_c, 0, 68, 0
2, 45096, Note_on_c, 0, 70, 80
2, 45119, Note_on_c, 0, 70, 0
2, 45120, Note_on_c, 0, 72, 80
2, 45143, Note_on_c, 0, 72, 0
2, 45144, Note_on_c, 0, 74, 80
2, 45167, Note_on_c, 0, 74, 0
2, 45168, Note_on_c, 0, 76, 80
2, 45191, Note_on_c, 0, 76, 0
2, 45192, Note_on_c, 0, 77, 80
2, 45202, Note_on_c, 0, 77, 0
2, 45216, Note_on_c, 0, 77, 96
2, 45312, Note_on_c, 0, 77, 0
2, 45312, Note_on_c, 0, 76, 80
2, 45357, Note_on_c, 0, 76, 0
2, 45360, Note_on_c, 0, 73, 80
2, 45405, Note_on_c, 0, 73, 0
2, 45408, Note_on_c, 0, 72, 80
2, 45453, Note_on_c, 0, 72, 0
2, 45456, Note_on_c, 0, 70, 80
2, 45501, Note_on_c, 0, 70, 0
2, 45504, Note_on_c, 0, 68, 80
2, 45549, Note_on_c, 0, 68, 0
2, 45600, Note_on_c, 0, 65, 80
2, 45623, Note_on_c, 0, 65, 0
2, 45624, Note_on_c, 0, 67, 80
2, 45647, Note_on_c, 0, 67, 0
2, 45648, Note_on_c, 0, 68, 80
2, 45671, Note_on_c, 0, 68, 0
2, 45672, Note_on_c, 0, 70, 80
2, 45695, Note_on_c, 0, 70, 0
2, 45696, Note_on_c, 0, 72, 80
2, 45719, Note_on_c, 0, 72, 0
2, 45720, Note_on_c, 0, 74, 80
2, 45743, Note_on_c, 0, 74, 0
2, 45744, Note_on_c, 0, 76, 80
2, 45767, Note_on_c, 0, 76, 0
2, 45768, Note_on_c, 0, 77, 80
2, 45791, Note_on_c, 0, 77, 0
2, 45792, Note_on_c, 0, 78, 96
2, 45936, Note_on_c, 0, 78, 0
2, 45936, Note_on_c, 0, 75, 80
2, 45959, Note_on_c, 0, 75, 0
2, 45960, Note_on_c, 0, 72, 80
2, 45983, Note_on_c, 0, 72, 0
2, 45984, Note_on_c, 0, 68, 80
2, 46029, Note_on_c, 0, 68, 0
2, 46032, Note_on_c, 0, 66, 80
2, 46077, Note_on_c, 0, 66, 0
2, 46080, Note_on_c, 0, 65, 80
2, 46169, Note_on_c, 0, 65, 0
2, 46224, Note_on_c, 0, 77, 80
2, 46269, Note_on_c, 0, 77, 0
2, 46272, Note_on_c, 0, 77, 80
2, 46317, Note_on_c, 0, 77, 0
2, 46320, Note_on_c, 0, 77, 80
2, 46365, Note_on_c, 0, 77, 0
2, 46368, Note_on_c, 0, 75, 80
2, 46380, Note_on_c, 0, 75, 0
2, 46380, Note_on_c, 0, 77, 80
2, 46392, Note_on_c, 0, 77, 0
2, 46392, Note_on_c, 0, 78, 96
2, 46512, Note_on_c, 0, 78, 0
2, 46512, Note_on_c, 0, 75, 80
2, 46535, Note_on_c, 0, 75, 0
2, 46536, Note_on_c, 0, 72, 80
2, 46559, Note_on_c, 0, 72, 0
2, 46560, Note_on_c, 0, 68, 80
2, 46605, Note_on_c, 0, 68, 0
2, 46608, Note_on_c, 0, 66, 80
2, 46653, Note_on_c, 0, 66, 0
2, 46656, Note_on_c, 0, 65, 80
2, 46745, Note_on_c, 0, 65, 0
2, 46800, Note_on_c, 0, 73, 80
2, 46823, Note_on_c, 0, 73, 0
2, 46824, Note_on_c, 0, 77, 80
2, 46847, Note_on_c, 0, 77, 0
2, 46848, Note_on_c, 0, 80, 80
2, 46893, Note_on_c, 0, 80, 0
2, 46896, Note_on_c, 0, 80, 80
2, 46941, Note_on_c, 0, 80, 0
2, 46944, Note_on_c, 0, 78, 80
2, 46967, Note_on_c, 0, 78, 0
2, 46968, Note_on_c, 0, 80, 80
2, 46991, Note_on_c, 0, 80, 0
2, 46992, Note_on_c, 0, 78, 80
2, 47015, Note_on_c, 0, 78, 0
2, 47016, Note_on_c, 0, 77, 80
2, 47039, Note_on_c, 0, 77, 0
2, 47040, Note_on_c, 0, 75, 80
2, 47063, Note_on_c, 0, 75, 0
2, 47064, Note_on_c, 0, 77, 80
2, 47087, Note_on_c, 0, 77, 0
2, 47088, Note_on_c, 0, 75, 80
2, 47111, Note_on_c, 0, 75, 0
2, 47112, Note_on_c, 0, 73, 80
2, 47135, Note_on_c, 0, 73, 0
2, 47136, Note_on_c, 0, 72, 80
2, 47159, Note_on_c, 0, 72, 0
2, 47160, Note_on_c, 0, 70, 80
2, 47183, Note_on_c, 0, 70, 0
2, 47184, Note_on_c, 0, 68, 80
2, 47207, Note_on_c, 0, 68, 0
2, 47208, Note_on_c, 0, 66, 80
2, 47231, Note_on_c, 0, 66, 0
2, 47232, Note_on_c, 0, 65, 80
2, 47321, Note_on_c, 0, 65, 0
2, 47376, Note_on_c, 0, 77, 80
2, 47421, Note_on_c, 0, 77, 0
2, 47424, Note_on_c, 0, 77, 80
2, 47469, Note_on_c, 0, 77, 0
2, 47472, Note_on_c, 0, 77, 80
2, 47517, Note_on_c, 0, 77, 0
2, 47520, Note_on_c, 0, 77, 80
2, 47532, Note_on_c, 0, 77, 0
2, 47532, Note_on_c, 0, 79, 80
2, 47544, Note_on_c, 0, 79, 0
2, 47544, Note_on_c, 0, 80, 96
2, 47616, Note_on_c, 0, 80, 0
2, 47664, Note_on_c, 0, 77, 75
2, 47709, Note_on_c, 0, 77, 0
2, 47712, Note_on_c, 0, 77, 75
2, 47757, Note_on_c, 0, 77, 0
2, 47760, Note_on_c, 0, 77, 75
2, 47805, Note_on_c, 0, 77, 0
2, 47808, Note_on_c, 0, 77, 75
2, 47820, Note_on_c, 0, 77, 0
2, 47820, Note_on_c, 0, 79, 75
2, 47832, Note_on_c, 0, 79, 0
2, 47832, Note_on_c, 0, 80, 91
2, 47904, Note_on_c, 0, 80, 0
2, 47952, Note_on_c, 0, 77, 75
2, 47997, Note_on_c, 0, 77, 0
2, 48000, Note_on_c, 0, 77, 76
2, 48045, Note_on_c, 0, 77, 0
2, 48048, Note_on_c, 0, 77, 77
2, 48093, Note_on_c, 0, 77, 0
2, 48096, Note_on_c, 0, 76, 79
2, 48119, Note_on_c, 0, 76, 0
2, 48120, Note_on_c, 0, 72, 80
2, 48143, Note_on_c, 0, 72, 0
2, 48144, Note_on_c, 0, 76, 80
2, 48167, Note_on_c, 0, 76, 0
2, 48168, Note_on_c, 0, 79, 80
2, 48191, Note_on_c, 0, 79, 0
2, 48192, Note_on_c, 0, 84, 80
2, 48215, Note_on_c, 0, 84, 0
2, 48216, Note_on_c, 0, 72, 80
2, 48239, Note_on_c, 0, 72, 0
2, 48240, Note_on_c, 0, 76, 80
2, 48263, Note_on_c, 0, 76, 0
2, 48264, Note_on_c, 0, 79, 80
2, 48287, Note_on_c, 0, 79, 0
2, 48288, Note_on_c, 0, 84, 80
2, 48311, Note_on_c, 0, 84, 0
2, 48312, Note_on_c, 0, 82, 80
2, 48335, Note_on_c, 0, 82, 0
2, 48336, Note_on_c, 0, 80, 80
2, 48359, Note_on_c, 0, 80, 0
2, 48360, Note_on_c, 0, 79, 80
2, 48383, Note_on_c, 0, 79, 0
2, 48384, Note_on_c, 0, 80, 80
2, 48407, Note_on_c, 0, 80, 0
2, 48408, Note_on_c, 0, 72, 80
2, 48431, Note_on_c, 0, 72, 0
2, 48432, Note_on_c, 0, 77, 80
2, 48455, Note_on_c, 0, 77, 0
2, 48456, Note_on_c, 0, 80, 80
2, 48479, Note_on_c, 0, 80, 0
2, 48480, Note_on_c, 0, 84, 80
2, 48503, Note_on_c, 0, 84, 0
2, 48504, Note_on_c, 0, 72, 80
2, 48527, Note_on_c, 0, 72, 0
2, 48528, Note_on_c, 0, 77, 80
2, 48551, Note_on_c, 0, 77, 0
2, 48552, Note_on_c, 0, 80, 80
2, 48575, Note_on_c, 0, 80, 0
2, 48576, Note_on_c, 0, 84, 80
2, 48599, Note_on_c, 0, 84, 0
2, 48600, Note_on_c, 0, 80, 80
2, 48623, Note_on_c, 0, 80, 0
2, 48624, Note_on_c, 0, 79, 80
2, 48647, Note_on_c, 0, 79, 0
2, 48648, Note_on_c, 0, 77, 80
2, 48671, Note_on_c, 0, 77, 0
2, 48672, Note_on_c, 0, 76, 80
2, 48695, Note_on_c, 0, 76, 0
2, 48696, Note_on_c, 0, 72, 80
2, 48719, Note_on_c, 0, 72, 0
2, 48720, Note_on_c, 0, 76, 80
2, 48743, Note_on_c, 0, 76, 0
2, 48744, Note_on_c, 0, 79, 80
2, 48767, Note_on_c, 0, 79, 0
2, 48768, Note_on_c, 0, 84, 80
2, 48791, Note_on_c, 0, 84, 0
2, 48792, Note_on_c, 0, 72, 80
2, 48815, Note_on_c, 0, 72, 0
2, 48816, Note_on_c, 0, 76, 80
2, 48839, Note_on_c, 0, 76, 0
2, 48840, Note_on_c, 0, 79, 80
2, 48863, Note_on_c, 0, 79, 0
2, 48864, Note_on_c, 0, 84, 80
2, 48887, Note_on_c, 0, 84, 0
2, 48888, Note_on_c, 0, 82, 80
2, 48911, Note_on_c, 0, 82, 0
2, 48912, Note_on_c, 0, 80, 80
2, 48935, Note_on_c, 0, 80, 0
2, 48936, Note_on_c, 0, 79, 80
2, 48959, Note_on_c, 0, 79, 0
2, 48960, Note_on_c, 0, 80, 80
2, 48983, Note_on_c, 0, 80, 0
2, 48984, Note_on_c, 0, 72, 80
2, 49007, Note_on_c, 0, 72, 0
2, 49008, Note_on_c, 0, 77, 80
2, 49031, Note_on_c, 0, 77, 0
2, 49032, Note_on_c, 0, 80, 80
2, 49055, Note_on_c, 0, 80, 0
2, 49056, Note_on_c, 0, 84, 80
2, 49079, Note_on_c, 0, 84, 0
2, 49080, Note_on_c, 0, 72, 80
2, 49103, Note_on_c, 0, 72, 0
2, 49104, Note_on_c, 0, 77, 80
2, 49127, Note_on_c, 0, 77, 0
2, 49128, Note_on_c, 0, 80, 80
2, 49151, Note_on_c, 0, 80, 0
2, 49152, Note_on_c, 0, 84, 80
2, 49175, Note_on_c, 0, 84, 0
2, 49176, Note_on_c, 0, 80, 80
2, 49199, Note_on_c, 0, 80, 0
2, 49200, Note_on_c, 0, 79, 80
2, 49223, Note_on_c, 0, 79, 0
2, 49224, Note_on_c, 0, 77, 80
2, 49247, Note_on_c, 0, 77, 0
2, 49248, Note_on_c, 0, 76, 80
2, 49260, Note_on_c, 0, 76, 0
2, 49260, Note_on_c, 0, 79, 80
2, 49272, Note_on_c, 0, 79, 0
2, 49272, Note_on_c, 0, 84, 96
2, 49392, Note_on_c, 0, 84, 0
2, 49680, Note_on_c, 0, 73, 64
2, 49680, Note_on_c, 0, 70, 64
2, 49700, Note_on_c, 0, 73, 0
2, 49700, Note_on_c, 0, 70, 0
2, 49728, Note_on_c, 0, 73, 64
2, 49728, Note_on_c, 0, 70, 64
2, 49748, Note_on_c, 0, 73, 0
2, 49748, Note_on_c, 0, 70, 0
2, 49776, Note_on_c, 0, 73, 64
2, 49776, Note_on_c, 0, 70, 64
2, 49796, Note_on_c, 0, 73, 0
2, 49796, Note_on_c, 0, 70, 0
2, 49824, Note_on_c, 0, 73, 64
2, 49824, Note_on_c, 0, 70, 64
2, 49863, Note_on_c, 0, 73, 0
2, 49863, Note_on_c, 0, 70, 0
2, 50256, Note_on_c, 0, 72, 64
2, 50256, Note_on_c, 0, 70, 64
2, 50276, Note_on_c, 0, 72, 0
2, 50276, Note_on_c, 0, 70, 0
2, 50304, Note_on_c, 0, 72, 64
2, 50304, Note_on_c, 0, 70, 64
2, 50324, Note_on_c, 0, 72, 0
2, 50324, Note_on_c, 0, 70, 0
2, 50352, Note_on_c, 0, 72, 64
2, 50352, Note_on_c, 0, 70, 64
2, 50372, Note_on_c, 0, 72, 0
2, 50372, Note_on_c, 0, 70, 0
2, 50400, Note_on_c, 0, 72, 64
2, 50400, Note_on_c, 0, 70, 64
2, 50439, Note_on_c, 0, 72, 0
2, 50439, Note_on_c, 0, 70, 0
2, 50832, Note_on_c, 0, 78, 64
2, 50832, Note_on_c, 0, 69, 64
2, 50852, Note_on_c, 0, 78, 0
2, 50852, Note_on_c, 0, 69, 0
2, 50880, Note_on_c, 0, 78, 64
2, 50880, Note_on_c, 0, 69, 64
2, 50900, Note_on_c, 0, 78, 0
2, 50900, Note_on_c, 0, 69, 0
2, 50928, Note_on_c, 0, 78, 64
2, 50928, Note_on_c, 0, 69, 64
2, 50948, Note_on_c, 0, 78, 0
2, 50948, Note_on_c, 0, 69, 0
2, 50976, Note_on_c, 0, 78, 64
2, 50976, Note_on_c, 0, 69, 64
2, 51015, Note_on_c, 0, 78, 0
2, 51015, Note_on_c, 0, 69, 0
2, 51408, Note_on_c, 0, 77, 64
2, 51408, Note_on_c, 0, 70, 64
2, 51428, Note_on_c, 0, 77, 0
2, 51428, Note_on_c, 0, 70, 0
2, 51456, Note_on_c, 0, 77, 64
2, 51456, Note_on_c, 0, 70, 64
2, 51476, Note_on_c, 0, 77, 0
2, 51476, Note_on_c, 0, 70, 0
2, 51504, Note_on_c, 0, 77, 64
2, 51504, Note_on_c, 0, 70, 64
2, 51524, Note_on_c, 0, 77, 0
2, 51524, Note_on_c, 0, 70, 0
2, 51552, Note_on_c, 0, 77, 64
2, 51552, Note_on_c, 0, 70, 64
2, 51591, Note_on_c, 0, 77, 0
2, 51591, Note_on_c, 0, 70, 0
2, 51984, Note_on_c, 0, 73, 64
2, 51984, Note_on_c, 0, 70, 64
2, 52004, Note_on_c, 0, 73, 0
2, 52004, Note_on_c, 0, 70, 0
2, 52032, Note_on_c, 0, 73, 64
2, 52032, Note_on_c, 0, 70, 64
2, 52052, Note_on_c, 0, 73, 0
2, 52052, Note_on_c, 0, 70, 0
2, 52080, Note_on_c, 0, 73, 64
2, 52080, Note_on_c, 0, 70, 64
2, 52100, Note_on_c, 0, 73, 0
2, 52100, Note_on_c, 0, 70, 0
2, 52128, Note_on_c, 0, 73, 64
2, 52128, Note_on_c, 0, 70, 64
2, 52305, Note_on_c, 0, 73, 0
2, 52305, Note_on_c, 0, 70, 0
2, 52320, Note_on_c, 0, 74, 76
2, 52409, Note_on_c, 0, 74, 0
2, 52416, Note_on_c, 0, 75, 64
2, 52593, Note_on_c, 0, 75, 0
2, 52608, Note_on_c, 0, 75, 76
2, 52793, Note_on_c, 0, 75, 0
2, 52800, Note_on_c, 0, 73, 64
2, 52889, Note_on_c, 0, 73, 0
2, 52896, Note_on_c, 0, 76, 76
2, 52985, Note_on_c, 0, 76, 0
2, 52992, Note_on_c, 0, 77, 64
2, 53169, Note_on_c, 0, 77, 0
2, 53184, Note_on_c, 0, 77, 76
2, 53369, Note_on_c, 0, 77, 0
2, 53376, Note_on_c, 0, 75, 64
2, 53465, Note_on_c, 0, 75, 0
2, 53472, Note_on_c, 0, 78, 64
2, 53568, Note_on_c, 0, 78, 0
2, 53568, Note_on_c, 0, 79, 64
2, 53701, Note_on_c, 0, 79, 0
2, 53712, Note_on_c, 0, 80, 80
2, 53732, Note_on_c, 0, 80, 0
2, 53760, Note_on_c, 0, 80, 80
2, 53780, Note_on_c, 0, 80, 0
2, 53808, Note_on_c, 0, 80, 80
2, 53828, Note_on_c, 0, 80, 0
2, 53856, Note_on_c, 0, 80, 80
2, 53856, Note_on_c, 0, 74, 80
2, 53856, Note_on_c, 0, 71, 80
2, 53945, Note_on_c, 0, 80, 0
2, 53945, Note_on_c, 0, 74, 0
2, 53945, Note_on_c, 0, 71, 0
2, 54288, Note_on_c, 0, 80, 64
2, 54288, Note_on_c, 0, 77, 64
2, 54308, Note_on_c, 0, 80, 0
2, 54308, Note_on_c, 0, 77, 0
2, 54336, Note_on_c, 0, 80, 64
2, 54336, Note_on_c, 0, 77, 64
2, 54356, Note_on_c, 0, 80, 0
2, 54356, Note_on_c, 0, 77, 0
2, 54384, Note_on_c, 0, 80, 64
2, 54384, Note_on_c, 0, 77, 64
2, 54404, Note_on_c, 0, 80, 0
2, 54404, Note_on_c, 0, 77, 0
2, 54432, Note_on_c, 0, 80, 64
2, 54432, Note_on_c, 0, 77, 64
2, 54521, Note_on_c, 0, 80, 0
2, 54521, Note_on_c, 0, 77, 0
2, 54720, Note_on_c, 0, 50, 64
2, 54744, Note_on_c, 0, 50, 0
2, 54744, Note_on_c, 0, 53, 64
2, 54767, Note_on_c, 0, 53, 0
2, 54768, Note_on_c, 0, 51, 64
2, 54792, Note_on_c, 0, 51, 0
2, 54792, Note_on_c, 0, 55, 65
2, 54815, Note_on_c, 0, 55, 0
2, 54816, Note_on_c, 0, 53, 65
2, 54861, Note_on_c, 0, 53, 0
2, 55008, Note_on_c, 0, 62, 68
2, 55032, Note_on_c, 0, 62, 0
2, 55032, Note_on_c, 0, 65, 68
2, 55055, Note_on_c, 0, 65, 0
2, 55056, Note_on_c, 0, 63, 69
2, 55080, Note_on_c, 0, 63, 0
2, 55080, Note_on_c, 0, 67, 69
2, 55103, Note_on_c, 0, 67, 0
2, 55104, Note_on_c, 0, 65, 69
2, 55149, Note_on_c, 0, 65, 0
2, 55296, Note_on_c, 0, 74, 72
2, 55320, Note_on_c, 0, 74, 0
2, 55320, Note_on_c, 0, 77, 73
2, 55343, Note_on_c, 0, 77, 0
2, 55344, Note_on_c, 0, 75, 73
2, 55368, Note_on_c, 0, 75, 0
2, 55368, Note_on_c, 0, 79, 73
2, 55391, Note_on_c, 0, 79, 0
2, 55392, Note_on_c, 0, 77, 74
2, 55437, Note_on_c, 0, 77, 0
2, 55488, Note_on_c, 0, 74, 75
2, 55512, Note_on_c, 0, 74, 0
2, 55512, Note_on_c, 0, 77, 76
2, 55535, Note_on_c, 0, 77, 0
2, 55536, Note_on_c, 0, 75, 76
2, 55560, Note_on_c, 0, 75, 0
2, 55560, Note_on_c, 0, 79, 76
2, 55583, Note_on_c, 0, 79, 0
2, 55584, Note_on_c, 0, 77, 77
2, 55629, Note_on_c, 0, 77, 0
2, 55680, Note_on_c, 0, 74, 78
2, 55704, Note_on_c, 0, 74, 0
2, 55704, Note_on_c, 0, 77, 79
2, 55727, Note_on_c, 0, 77, 0
2, 55728, Note_on_c, 0, 75, 79
2, 55751, Note_on_c, 0, 75, 0
2, 55752, Note_on_c, 0, 79, 79
2, 55775, Note_on_c, 0, 79, 0
2, 55776, Note_on_c, 0, 77, 80
2, 55821, Note_on_c, 0, 77, 0
2, 55920, Note_on_c, 0, 72, 82
2, 55943, Note_on_c, 0, 72, 0
2, 55944, Note_on_c, 0, 74, 82
2, 55967, Note_on_c, 0, 74, 0
2, 55968, Note_on_c, 0, 75, 83
2, 55991, Note_on_c, 0, 75, 0
2, 55992, Note_on_c, 0, 77, 83
2, 56015, Note_on_c, 0, 77, 0
2, 56016, Note_on_c, 0, 79, 83
2, 56039, Note_on_c, 0, 79, 0
2, 56040, Note_on_c, 0, 80, 84
2, 56063, Note_on_c, 0, 80, 0
2, 56064, Note_on_c, 0, 82, 84
2, 56087, Note_on_c, 0, 82, 0
2, 56088, Note_on_c, 0, 84, 84
2, 56111, Note_on_c, 0, 84, 0
2, 56112, Note_on_c, 0, 86, 85
2, 56135, Note_on_c, 0, 86, 0
2, 56136, Note_on_c, 0, 87, 85
2, 56159, Note_on_c, 0, 87, 0
2, 56160, Note_on_c, 0, 89, 86
2, 56471, Note_on_c, 0, 89, 0
2, 56472, Note_on_c, 0, 87, 75
2, 56495, Note_on_c, 0, 87, 0
2, 56496, Note_on_c, 0, 86, 75
2, 56519, Note_on_c, 0, 86, 0
2, 56520, Note_on_c, 0, 84, 75
2, 56543, Note_on_c, 0, 84, 0
2, 56544, Note_on_c, 0, 82, 75
2, 56567, Note_on_c, 0, 82, 0
2, 56568, Note_on_c, 0, 80, 75
2, 56591, Note_on_c, 0, 80, 0
2, 56592, Note_on_c, 0, 79, 75
2, 56615, Note_on_c, 0, 79, 0
2, 56616, Note_on_c, 0, 77, 75
2, 56639, Note_on_c, 0, 77, 0
2, 56640, Note_on_c, 0, 80, 75
2, 56663, Note_on_c, 0, 80, 0
2, 56664, Note_on_c, 0, 79, 75
2, 56687, Note_on_c, 0, 79, 0
2, 56688, Note_on_c, 0, 82, 75
2, 56711, Note_on_c, 0, 82, 0
2, 56712, Note_on_c, 0, 80, 75
2, 56735, Note_on_c, 0, 80, 0
2, 56736, Note_on_c, 0, 84, 75
2, 56759, Note_on_c, 0, 84, 0
2, 56760, Note_on_c, 0, 82, 75
2, 56783, Note_on_c, 0, 82, 0
2, 56784, Note_on_c, 0, 80, 75
2, 56807, Note_on_c, 0, 80, 0
2, 56808, Note_on_c, 0, 79, 75
2, 56831, Note_on_c, 0, 79, 0
2, 56832, Note_on_c, 0, 77, 75
2, 56855, Note_on_c, 0, 77, 0
2, 56856, Note_on_c, 0, 76, 75
2, 56879, Note_on_c, 0, 76, 0
2, 56880, Note_on_c, 0, 79, 75
2, 56903, Note_on_c, 0, 79, 0
2, 56904, Note_on_c, 0, 77, 75
2, 56927, Note_on_c, 0, 77, 0
2, 56928, Note_on_c, 0, 80, 75
2, 56951, Note_on_c, 0, 80, 0
2, 56952, Note_on_c, 0, 79, 75
2, 56975, Note_on_c, 0, 79, 0
2, 56976, Note_on_c, 0, 82, 75
2, 56999, Note_on_c, 0, 82, 0
2, 57000, Note_on_c, 0, 80, 75
2, 57023, Note_on_c, 0, 80, 0
2, 57024, Note_on_c, 0, 79, 75
2, 57047, Note_on_c, 0, 79, 0
2, 57048, Note_on_c, 0, 77, 75
2, 57071, Note_on_c, 0, 77, 0
2, 57072, Note_on_c, 0, 75, 75
2, 57095, Note_on_c, 0, 75, 0
2, 57096, Note_on_c, 0, 74, 75
2, 57119, Note_on_c, 0, 74, 0
2, 57120, Note_on_c, 0, 77, 75
2, 57143, Note_on_c, 0, 77, 0
2, 57144, Note_on_c, 0, 75, 75
2, 57167, Note_on_c, 0, 75, 0
2, 57168, Note_on_c, 0, 79, 75
2, 57191, Note_on_c, 0, 79, 0
2, 57192, Note_on_c, 0, 77, 75
2, 57215, Note_on_c, 0, 77, 0
2, 57216, Note_on_c, 0, 75, 75
2, 57239, Note_on_c, 0, 75, 0
2, 57240, Note_on_c, 0, 74, 75
2, 57263, Note_on_c, 0, 74, 0
2, 57264, Note_on_c, 0, 72, 75
2, 57287, Note_on_c, 0, 72, 0
2, 57288, Note_on_c, 0, 71, 75
2, 57311, Note_on_c, 0, 71, 0
2, 57312, Note_on_c, 0, 70, 75
2, 57335, Note_on_c, 0, 70, 0
2, 57336, Note_on_c, 0, 69, 75
2, 57359, Note_on_c, 0, 69, 0
2, 57360, Note_on_c, 0, 68, 75
2, 57383, Note_on_c, 0, 68, 0
2, 57384, Note_on_c, 0, 67, 75
2, 57407, Note_on_c, 0, 67, 0
2, 57408, Note_on_c, 0, 66, 75
2, 57431, Note_on_c, 0, 66, 0
2, 57432, Note_on_c, 0, 65, 75
2, 57455, Note_on_c, 0, 65, 0
2, 57456, Note_on_c, 0, 64, 75
2, 57479, Note_on_c, 0, 64, 0
2, 57480, Note_on_c, 0, 63, 75
2, 57503, Note_on_c, 0, 63, 0
2, 57504, Note_on_c, 0, 62, 75
2, 57527, Note_on_c, 0, 62, 0
2, 57528, Note_on_c, 0, 61, 75
2, 57551, Note_on_c, 0, 61, 0
2, 57552, Note_on_c, 0, 60, 75
2, 57575, Note_on_c, 0, 60, 0
2, 57576, Note_on_c, 0, 59, 75
2, 57599, Note_on_c, 0, 59, 0
2, 57600, Note_on_c, 0, 58, 75
2, 57645, Note_on_c, 0, 58, 0
2, 57648, Note_on_c, 0, 57, 75
2, 57693, Note_on_c, 0, 57, 0
2, 57696, Note_on_c, 0, 56, 75
2, 57792, Note_on_c, 0, 56, 0
2, 57792, Note_on_c, 0, 55, 75
2, 57815, Note_on_c, 0, 55, 0
2, 57816, Note_on_c, 0, 58, 75
2, 57839, Note_on_c, 0, 58, 0
2, 57840, Note_on_c, 0, 56, 75
2, 57864, Note_on_c, 0, 56, 0
2, 57864, Note_on_c, 0, 60, 75
2, 57887, Note_on_c, 0, 60, 0
2, 57888, Note_on_c, 0, 58, 75
2, 57908, Note_on_c, 0, 58, 0
2, 58080, Note_on_c, 0, 67, 75
2, 58104, Note_on_c, 0, 67, 0
2, 58104, Note_on_c, 0, 63, 75
2, 58127, Note_on_c, 0, 63, 0
2, 58128, Note_on_c, 0, 62, 75
2, 58152, Note_on_c, 0, 62, 0
2, 58152, Note_on_c, 0, 65, 75
2, 58175, Note_on_c, 0, 65, 0
2, 58176, Note_on_c, 0, 63, 75
2, 58196, Note_on_c, 0, 63, 0
2, 58320, Note_on_c, 0, 63, 75
2, 58365, Note_on_c, 0, 63, 0
2, 58368, Note_on_c, 0, 67, 75
2, 58413, Note_on_c, 0, 67, 0
2, 58416, Note_on_c, 0, 70, 75
2, 58461, Note_on_c, 0, 70, 0
2, 58464, Note_on_c, 0, 70, 87
2, 58560, Note_on_c, 0, 70, 0
2, 58560, Note_on_c, 0, 68, 75
2, 58605, Note_on_c, 0, 68, 0
2, 58608, Note_on_c, 0, 67, 75
2, 58653, Note_on_c, 0, 67, 0
2, 58656, Note_on_c, 0, 65, 75
2, 58701, Note_on_c, 0, 65, 0
2, 58704, Note_on_c, 0, 63, 75
2, 58749, Note_on_c, 0, 63, 0
2, 58752, Note_on_c, 0, 62, 75
2, 58824, Note_on_c, 0, 62, 0
2, 58824, Note_on_c, 0, 65, 75
2, 58847, Note_on_c, 0, 65, 0
2, 58848, Note_on_c, 0, 68, 75
2, 58868, Note_on_c, 0, 68, 0
2, 58944, Note_on_c, 0, 58, 75
2, 58968, Note_on_c, 0, 58, 0
2, 58968, Note_on_c, 0, 62, 75
2, 58991, Note_on_c, 0, 62, 0
2, 58992, Note_on_c, 0, 60, 75
2, 59016, Note_on_c, 0, 60, 0
2, 59016, Note_on_c, 0, 63, 75
2, 59039, Note_on_c, 0, 63, 0
2, 59040, Note_on_c, 0, 62, 75
2, 59060, Note_on_c, 0, 62, 0
2, 59232, Note_on_c, 0, 62, 75
2, 59256, Note_on_c, 0, 62, 0
2, 59256, Note_on_c, 0, 65, 75
2, 59279, Note_on_c, 0, 65, 0
2, 59280, Note_on_c, 0, 63, 75
2, 59304, Note_on_c, 0, 63, 0
2, 59304, Note_on_c, 0, 67, 75
2, 59327, Note_on_c, 0, 67, 0
2, 59328, Note_on_c, 0, 65, 75
2, 59348, Note_on_c, 0, 65, 0
2, 59472, Note_on_c, 0, 65, 75
2, 59517, Note_on_c, 0, 65, 0
2, 59520, Note_on_c, 0, 68, 75
2, 59565, Note_on_c, 0, 68, 0
2, 59568, Note_on_c, 0, 72, 75
2, 59613, Note_on_c, 0, 72, 0
2, 59616, Note_on_c, 0, 72, 87
2, 59712, Note_on_c, 0, 72, 0
2, 59712, Note_on_c, 0, 70, 75
2, 59757, Note_on_c, 0, 70, 0
2, 59760, Note_on_c, 0, 68, 75
2, 59805, Note_on_c, 0, 68, 0
2, 59808, Note_on_c, 0, 67, 75
2, 59853, Note_on_c, 0, 67, 0
2, 59856, Note_on_c, 0, 65, 75
2, 59901, Note_on_c, 0, 65, 0
2, 59904, Note_on_c, 0, 63, 75
2, 59916, Note_on_c, 0, 63, 0
2, 59916, Note_on_c, 0, 65, 75
2, 59928, Note_on_c, 0, 65, 0
2, 59928, Note_on_c, 0, 63, 75
2, 59940, Note_on_c, 0, 63, 0
2, 59940, Note_on_c, 0, 62, 75
2, 59952, Note_on_c, 0, 62, 0
2, 59952, Note_on_c, 0, 63, 75
2, 59976, Note_on_c, 0, 63, 0
2, 59976, Note_on_c, 0, 67, 75
2, 59999, Note_on_c, 0, 67, 0
2, 60000, Note_on_c, 0, 70, 75
2, 60020, Note_on_c, 0, 70, 0
2, 60096, Note_on_c, 0, 75, 75
2, 60120, Note_on_c, 0, 75, 0
2, 60120, Note_on_c, 0, 74, 75
2, 60143, Note_on_c, 0, 74, 0
2, 60144, Note_on_c, 0, 77, 75
2, 60168, Note_on_c, 0, 77, 0
2, 60168, Note_on_c, 0, 75, 75
2, 60191, Note_on_c, 0, 75, 0
2, 60192, Note_on_c, 0, 79, 75
2, 60215, Note_on_c, 0, 79, 0
2, 60216, Note_on_c, 0, 77, 75
2, 60239, Note_on_c, 0, 77, 0
2, 60240, Note_on_c, 0, 80, 75
2, 60263, Note_on_c, 0, 80, 0
2, 60264, Note_on_c, 0, 79, 75
2, 60287, Note_on_c, 0, 79, 0
2, 60288, Note_on_c, 0, 82, 75
2, 60311, Note_on_c, 0, 82, 0
2, 60312, Note_on_c, 0, 80, 75
2, 60335, Note_on_c, 0, 80, 0
2, 60336, Note_on_c, 0, 79, 75
2, 60359, Note_on_c, 0, 79, 0
2, 60360, Note_on_c, 0, 77, 75
2, 60383, Note_on_c, 0, 77, 0
2, 60384, Note_on_c, 0, 75, 75
2, 60407, Note_on_c, 0, 75, 0
2, 60408, Note_on_c, 0, 74, 75
2, 60431, Note_on_c, 0, 74, 0
2, 60432, Note_on_c, 0, 72, 75
2, 60455, Note_on_c, 0, 72, 0
2, 60456, Note_on_c, 0, 71, 75
2, 60479, Note_on_c, 0, 71, 0
2, 60480, Note_on_c, 0, 71, 75
2, 60576, Note_on_c, 0, 71, 0
2, 60576, Note_on_c, 0, 72, 75
2, 60596, Note_on_c, 0, 72, 0
2, 60624, Note_on_c, 0, 74, 75
2, 60630, Note_on_c, 0, 74, 0
2, 60630, Note_on_c, 0, 72, 75
2, 60636, Note_on_c, 0, 72, 0
2, 60636, Note_on_c, 0, 71, 75
2, 60642, Note_on_c, 0, 71, 0
2, 60642, Note_on_c, 0, 72, 75
2, 60669, Note_on_c, 0, 72, 0
2, 60672, Note_on_c, 0, 74, 75
2, 60717, Note_on_c, 0, 74, 0
2, 60720, Note_on_c, 0, 75, 75
2, 60765, Note_on_c, 0, 75, 0
2, 60768, Note_on_c, 0, 75, 75
2, 60816, Note_on_c, 0, 75, 0
2, 60816, Note_on_c, 0, 65, 75
2, 60861, Note_on_c, 0, 65, 0
2, 60864, Note_on_c, 0, 72, 75
2, 60912, Note_on_c, 0, 72, 0
2, 60912, Note_on_c, 0, 60, 75
2, 60957, Note_on_c, 0, 60, 0
2, 60960, Note_on_c, 0, 68, 75
2, 61008, Note_on_c, 0, 68, 0
2, 61008, Note_on_c, 0, 62, 75
2, 61053, Note_on_c, 0, 62, 0
2, 61056, Note_on_c, 0, 63, 75
2, 61076, Note_on_c, 0, 63, 0
2, 61296, Note_on_c, 0, 58, 75
2, 61316, Note_on_c, 0, 58, 0
2, 61344, Note_on_c, 0, 63, 75
2, 61581, Note_on_c, 0, 63, 0
2, 61584, Note_on_c, 0, 62, 75
2, 61604, Note_on_c, 0, 62, 0
2, 61632, Note_on_c, 0, 68, 75
2, 61869, Note_on_c, 0, 68, 0
2, 61872, Note_on_c, 0, 67, 75
2, 61892, Note_on_c, 0, 67, 0
2, 61920, Note_on_c, 0, 75, 75
2, 62157, Note_on_c, 0, 75, 0
2, 62160, Note_on_c, 0, 74, 75
2, 62180, Note_on_c, 0, 74, 0
2, 62208, Note_on_c, 0, 80, 75
2, 62445, Note_on_c, 0, 80, 0
2, 62448, Note_on_c, 0, 79, 75
2, 62468, Note_on_c, 0, 79, 0
2, 62496, Note_on_c, 0, 84, 75
2, 62733, Note_on_c, 0, 84, 0
2, 62736, Note_on_c, 0, 83, 75
2, 62756, Note_on_c, 0, 83, 0
2, 62784, Note_on_c, 0, 86, 75
2, 62784, Note_on_c, 0, 77, 75
2, 63021, Note_on_c, 0, 86, 0
2, 63021, Note_on_c, 0, 77, 0
2, 63024, Note_on_c, 0, 84, 75
2, 63024, Note_on_c, 0, 75, 75
2, 63044, Note_on_c, 0, 84, 0
2, 63044, Note_on_c, 0, 75, 0
2, 63072, Note_on_c, 0, 82, 75
2, 63072, Note_on_c, 0, 73, 75
2, 63309, Note_on_c, 0, 82, 0
2, 63309, Note_on_c, 0, 73, 0
2, 63312, Note_on_c, 0, 80, 75
2, 63312, Note_on_c, 0, 72, 75
2, 63332, Note_on_c, 0, 80, 0
2, 63332, Note_on_c, 0, 72, 0
2, 63360, Note_on_c, 0, 79, 75
2, 63360, Note_on_c, 0, 70, 75
2, 63597, Note_on_c, 0, 79, 0
2, 63597, Note_on_c, 0, 70, 0
2, 63600, Note_on_c, 0, 77, 75
2, 63600, Note_on_c, 0, 68, 75
2, 63620, Note_on_c, 0, 77, 0
2, 63620, Note_on_c, 0, 68, 0
2, 63648, Note_on_c, 0, 80, 75
2, 63648, Note_on_c, 0, 71, 75
2, 63885, Note_on_c, 0, 80, 0
2, 63885, Note_on_c, 0, 71, 0
2, 63888, Note_on_c, 0, 79, 75
2, 63888, Note_on_c, 0, 70, 75
2, 63908, Note_on_c, 0, 79, 0
2, 63908, Note_on_c, 0, 70, 0
2, 63936, Note_on_c, 0, 77, 75
2, 63936, Note_on_c, 0, 68, 75
2, 64173, Note_on_c, 0, 77, 0
2, 64173, Note_on_c, 0, 68, 0
2, 64176, Note_on_c, 0, 75, 75
2, 64176, Note_on_c, 0, 67, 75
2, 64196, Note_on_c, 0, 75, 0
2, 64196, Note_on_c, 0, 67, 0
2, 64272, Note_on_c, 0, 72, 75
2, 64320, Note_on_c, 0, 72, 0
2, 64320, Note_on_c, 0, 79, 75
2, 64365, Note_on_c, 0, 79, 0
2, 64368, Note_on_c, 0, 76, 75
2, 64416, Note_on_c, 0, 76, 0
2, 64416, Note_on_c, 0, 80, 75
2, 64461, Note_on_c, 0, 80, 0
2, 64464, Note_on_c, 0, 77, 75
2, 64512, Note_on_c, 0, 77, 0
2, 64512, Note_on_c, 0, 83, 75
2, 64560, Note_on_c, 0, 83, 0
2, 64560, Note_on_c, 0, 86, 75
2, 64605, Note_on_c, 0, 86, 0
2, 64608, Note_on_c, 0, 84, 75
2, 64656, Note_on_c, 0, 84, 0
2, 64656, Note_on_c, 0, 79, 75
2, 64701, Note_on_c, 0, 79, 0
2, 64704, Note_on_c, 0, 80, 75
2, 64749, Note_on_c, 0, 80, 0
2, 64752, Note_on_c, 0, 77, 75
2, 64797, Note_on_c, 0, 77, 0
2, 64800, Note_on_c, 0, 75, 75
2, 64845, Note_on_c, 0, 75, 0
2, 64848, Note_on_c, 0, 74, 75
2, 64893, Note_on_c, 0, 74, 0
2, 64896, Note_on_c, 0, 80, 75
2, 64941, Note_on_c, 0, 80, 0
2, 64944, Note_on_c, 0, 77, 75
2, 64989, Note_on_c, 0, 77, 0
2, 64992, Note_on_c, 0, 74, 75
2, 65037, Note_on_c, 0, 74, 0
2, 65040, Note_on_c, 0, 71, 75
2, 65085, Note_on_c, 0, 71, 0
2, 65088, Note_on_c, 0, 70, 75
2, 65133, Note_on_c, 0, 70, 0
2, 65136, Note_on_c, 0, 69, 75
2, 65181, Note_on_c, 0, 69, 0
2, 65184, Note_on_c, 0, 77, 75
2, 65232, Note_on_c, 0, 77, 0
2, 65232, Note_on_c, 0, 69, 75
2, 65277, Note_on_c, 0, 69, 0
2, 65280, Note_on_c, 0, 77, 75
2, 65328, Note_on_c, 0, 77, 0
2, 65328, Note_on_c, 0, 68, 75
2, 65373, Note_on_c, 0, 68, 0
2, 65376, Note_on_c, 0, 67, 75
2, 65421, Note_on_c, 0, 67, 0
2, 65472, Note_on_c, 0, 63, 80
2, 65495, Note_on_c, 0, 63, 0
2, 65496, Note_on_c, 0, 65, 80
2, 65519, Note_on_c, 0, 65, 0
2, 65520, Note_on_c, 0, 67, 80
2, 65543, Note_on_c, 0, 67, 0
2, 65544, Note_on_c, 0, 68, 80
2, 65567, Note_on_c, 0, 68, 0
2, 65568, Note_on_c, 0, 70, 80
2, 65591, Note_on_c, 0, 70, 0
2, 65592, Note_on_c, 0, 72, 80
2, 65615, Note_on_c, 0, 72, 0
2, 65616, Note_on_c, 0, 74, 80
2, 65639, Note_on_c, 0, 74, 0
2, 65640, Note_on_c, 0, 75, 80
2, 65650, Note_on_c, 0, 75, 0
2, 65664, Note_on_c, 0, 75, 96
2, 65760, Note_on_c, 0, 75, 0
2, 65760, Note_on_c, 0, 74, 80
2, 65805, Note_on_c, 0, 74, 0
2, 65808, Note_on_c, 0, 72, 80
2, 65828, Note_on_c, 0, 72, 0
2, 65856, Note_on_c, 0, 70, 80
2, 65876, Note_on_c, 0, 70, 0
2, 65904, Note_on_c, 0, 68, 80
2, 65924, Note_on_c, 0, 68, 0
2, 65952, Note_on_c, 0, 66, 80
2, 66000, Note_on_c, 0, 66, 0
2, 66000, Note_on_c, 0, 67, 80
2, 66045, Note_on_c, 0, 67, 0
2, 66048, Note_on_c, 0, 63, 80
2, 66071, Note_on_c, 0, 63, 0
2, 66072, Note_on_c, 0, 65, 80
2, 66095, Note_on_c, 0, 65, 0
2, 66096, Note_on_c, 0, 67, 80
2, 66119, Note_on_c, 0, 67, 0
2, 66120, Note_on_c, 0, 68, 80
2, 66143, Note_on_c, 0, 68, 0
2, 66144, Note_on_c, 0, 70, 80
2, 66167, Note_on_c, 0, 70, 0
2, 66168, Note_on_c, 0, 72, 80
2, 66191, Note_on_c, 0, 72, 0
2, 66192, Note_on_c, 0, 74, 80
2, 66215, Note_on_c, 0, 74, 0
2, 66216, Note_on_c, 0, 75, 80
2, 66226, Note_on_c, 0, 75, 0
2, 66240, Note_on_c, 0, 75, 96
2, 66336, Note_on_c, 0, 75, 0
2, 66336, Note_on_c, 0, 74, 80
2, 66381, Note_on_c, 0, 74, 0
2, 66384, Note_on_c, 0, 72, 80
2, 66404, Note_on_c, 0, 72, 0
2, 66432, Note_on_c, 0, 70, 80
2, 66452, Note_on_c, 0, 70, 0
2, 66480, Note_on_c, 0, 68, 80
2, 66500, Note_on_c, 0, 68, 0
2, 66528, Note_on_c, 0, 66, 80
2, 66576, Note_on_c, 0, 66, 0
2, 66576, Note_on_c, 0, 67, 80
2, 66621, Note_on_c, 0, 67, 0
2, 66624, Note_on_c, 0, 63, 80
2, 66647, Note_on_c, 0, 63, 0
2, 66648, Note_on_c, 0, 65, 80
2, 66671, Note_on_c, 0, 65, 0
2, 66672, Note_on_c, 0, 67, 80
2, 66695, Note_on_c, 0, 67, 0
2, 66696, Note_on_c, 0, 68, 80
2, 66719, Note_on_c, 0, 68, 0
2, 66720, Note_on_c, 0, 70, 80
2, 66743, Note_on_c, 0, 70, 0
2, 66744, Note_on_c, 0, 72, 80
2, 66767, Note_on_c, 0, 72, 0
2, 66768, Note_on_c, 0, 73, 80
2, 66791, Note_on_c, 0, 73, 0
2, 66792, Note_on_c, 0, 75, 80
2, 66815, Note_on_c, 0, 75, 0
2, 66816, Note_on_c, 0, 77, 96
2, 66960, Note_on_c, 0, 77, 0
2, 66960, Note_on_c, 0, 79, 80
2, 66972, Note_on_c, 0, 79, 0
2, 66972, Note_on_c, 0, 77, 80
2, 66984, Note_on_c, 0, 77, 0
2, 66984, Note_on_c, 0, 76, 80
2, 66996, Note_on_c, 0, 76, 0
2, 66996, Note_on_c, 0, 77, 80
2, 67008, Note_on_c, 0, 77, 0
2, 67008, Note_on_c, 0, 82, 80
2, 67075, Note_on_c, 0, 82, 0
2, 67080, Note_on_c, 0, 79, 80
2, 67103, Note_on_c, 0, 79, 0
2, 67104, Note_on_c, 0, 77, 80
2, 67193, Note_on_c, 0, 77, 0
2, 67200, Note_on_c, 0, 76, 80
2, 67214, Note_on_c, 0, 76, 0
2, 67215, Note_on_c, 0, 77, 80
2, 67229, Note_on_c, 0, 77, 0
2, 67230, Note_on_c, 0, 76, 80
2, 67244, Note_on_c, 0, 76, 0
2, 67245, Note_on_c, 0, 77, 80
2, 67259, Note_on_c, 0, 77, 0
2, 67260, Note_on_c, 0, 76, 80
2, 67274, Note_on_c, 0, 76, 0
2, 67275, Note_on_c, 0, 77, 80
2, 67289, Note_on_c, 0, 77, 0
2, 67290, Note_on_c, 0, 76, 80
2, 67304, Note_on_c, 0, 76, 0
2, 67305, Note_on_c, 0, 77, 80
2, 67319, Note_on_c, 0, 77, 0
2, 67320, Note_on_c, 0, 76, 80
2, 67334, Note_on_c, 0, 76, 0
2, 67335, Note_on_c, 0, 77, 80
2, 67349, Note_on_c, 0, 77, 0
2, 67350, Note_on_c, 0, 74, 80
2, 67363, Note_on_c, 0, 74, 0
2, 67364, Note_on_c, 0, 76, 80
2, 67377, Note_on_c, 0, 76, 0
2, 67378, Note_on_c, 0, 76, 80
2, 67391, Note_on_c, 0, 76, 0
2, 67392, Note_on_c, 0, 77, 80
2, 67411, Note_on_c, 0, 77, 0
2, 67416, Note_on_c, 0, 79, 80
2, 67428, Note_on_c, 0, 79, 0
2, 67428, Note_on_c, 0, 77, 80
2, 67440, Note_on_c, 0, 77, 0
2, 67440, Note_on_c, 0, 75, 80
2, 67452, Note_on_c, 0, 75, 0
2, 67452, Note_on_c, 0, 77, 80
2, 67464, Note_on_c, 0, 77, 0
2, 67464, Note_on_c, 0, 79, 80
2, 67487, Note_on_c, 0, 79, 0
2, 67488, Note_on_c, 0, 80, 80
2, 67533, Note_on_c, 0, 80, 0
2, 67560, Note_on_c, 0, 79, 80
2, 67583, Note_on_c, 0, 79, 0
2, 67584, Note_on_c, 0, 77, 80
2, 67629, Note_on_c, 0, 77, 0
2, 67656, Note_on_c, 0, 75, 80
2, 67679, Note_on_c, 0, 75, 0
2, 67680, Note_on_c, 0, 75, 80
2, 67769, Note_on_c, 0, 75, 0
2, 67776, Note_on_c, 0, 74, 80
2, 67789, Note_on_c, 0, 74, 0
2, 67790, Note_on_c, 0, 75, 80
2, 67803, Note_on_c, 0, 75, 0
2, 67804, Note_on_c, 0, 74, 80
2, 67817, Note_on_c, 0, 74, 0
2, 67818, Note_on_c, 0, 75, 80
2, 67831, Note_on_c, 0, 75, 0
2, 67832, Note_on_c, 0, 74, 80
2, 67845, Note_on_c, 0, 74, 0
2, 67846, Note_on_c, 0, 72, 80
2, 67858, Note_on_c, 0, 72, 0
2, 67859, Note_on_c, 0, 74, 80
2, 67871, Note_on_c, 0, 74, 0
2, 67872, Note_on_c, 0, 75, 80
2, 67961, Note_on_c, 0, 75, 0
2, 67968, Note_on_c, 0, 74, 75
2, 67991, Note_on_c, 0, 74, 0
2, 67992, Note_on_c, 0, 72, 75
2, 68015, Note_on_c, 0, 72, 0
2, 68016, Note_on_c, 0, 71, 75
2, 68039, Note_on_c, 0, 71, 0
2, 68040, Note_on_c, 0, 72, 75
2, 68063, Note_on_c, 0, 72, 0
2, 68064, Note_on_c, 0, 71, 75
2, 68087, Note_on_c, 0, 71, 0
2, 68088, Note_on_c, 0, 72, 75
2, 68111, Note_on_c, 0, 72, 0
2, 68112, Note_on_c, 0, 71, 75
2, 68135, Note_on_c, 0, 71, 0
2, 68136, Note_on_c, 0, 72, 75
2, 68159, Note_on_c, 0, 72, 0
2, 68160, Note_on_c, 0, 75, 75
2, 68205, Note_on_c, 0, 75, 0
2, 68208, Note_on_c, 0, 72, 75
2, 68253, Note_on_c, 0, 72, 0
2, 68256, Note_on_c, 0, 70, 75
2, 68279, Note_on_c, 0, 70, 0
2, 68280, Note_on_c, 0, 68, 75
2, 68303, Note_on_c, 0, 68, 0
2, 68304, Note_on_c, 0, 67, 75
2, 68327, Note_on_c, 0, 67, 0
2, 68328, Note_on_c, 0, 68, 75
2, 68351, Note_on_c, 0, 68, 0
2, 68352, Note_on_c, 0, 67, 75
2, 68375, Note_on_c, 0, 67, 0
2, 68376, Note_on_c, 0, 68, 75
2, 68399, Note_on_c, 0, 68, 0
2, 68400, Note_on_c, 0, 67, 75
2, 68423, Note_on_c, 0, 67, 0
2, 68424, Note_on_c, 0, 68, 75
2, 68447, Note_on_c, 0, 68, 0
2, 68448, Note_on_c, 0, 72, 75
2, 68493, Note_on_c, 0, 72, 0
2, 68496, Note_on_c, 0, 68, 75
2, 68541, Note_on_c, 0, 68, 0
2, 68544, Note_on_c, 0, 67, 75
2, 68567, Note_on_c, 0, 67, 0
2, 68568, Note_on_c, 0, 65, 75
2, 68591, Note_on_c, 0, 65, 0
2, 68592, Note_on_c, 0, 64, 75
2, 68615, Note_on_c, 0, 64, 0
2, 68616, Note_on_c, 0, 65, 75
2, 68639, Note_on_c, 0, 65, 0
2, 68640, Note_on_c, 0, 73, 75
2, 68663, Note_on_c, 0, 73, 0
2, 68664, Note_on_c, 0, 72, 75
2, 68687, Note_on_c, 0, 72, 0
2, 68688, Note_on_c, 0, 71, 75
2, 68711, Note_on_c, 0, 71, 0
2, 68712, Note_on_c, 0, 72, 75
2, 68735, Note_on_c, 0, 72, 0
2, 68736, Note_on_c, 0, 79, 75
2, 68759, Note_on_c, 0, 79, 0
2, 68760, Note_on_c, 0, 77, 75
2, 68783, Note_on_c, 0, 77, 0
2, 68784, Note_on_c, 0, 76, 75
2, 68807, Note_on_c, 0, 76, 0
2, 68808, Note_on_c, 0, 77, 75
2, 68831, Note_on_c, 0, 77, 0
2, 68832, Note_on_c, 0, 83, 75
2, 68885, Note_on_c, 0, 83, 0
2, 68892, Note_on_c, 0, 84, 75
2, 68904, Note_on_c, 0, 84, 0
2, 68904, Note_on_c, 0, 83, 75
2, 68916, Note_on_c, 0, 83, 0
2, 68916, Note_on_c, 0, 81, 75
2, 68928, Note_on_c, 0, 81, 0
2, 68928, Note_on_c, 0, 83, 75
2, 68995, Note_on_c, 0, 83, 0
2, 69000, Note_on_c, 0, 86, 75
2, 69023, Note_on_c, 0, 86, 0
2, 69024, Note_on_c, 0, 84, 75
2, 69054, Note_on_c, 0, 84, 0
2, 69056, Note_on_c, 0, 80, 75
2, 69086, Note_on_c, 0, 80, 0
2, 69088, Note_on_c, 0, 77, 75
2, 69118, Note_on_c, 0, 77, 0
2, 69120, Note_on_c, 0, 75, 75
2, 69253, Note_on_c, 0, 75, 0
2, 69264, Note_on_c, 0, 77, 75
2, 69276, Note_on_c, 0, 77, 0
2, 69276, Note_on_c, 0, 75, 75
2, 69288, Note_on_c, 0, 75, 0
2, 69288, Note_on_c, 0, 74, 75
2, 69300, Note_on_c, 0, 74, 0
2, 69300, Note_on_c, 0, 75, 75
2, 69312, Note_on_c, 0, 75, 0
2, 69312, Note_on_c, 0, 79, 75
2, 69379, Note_on_c, 0, 79, 0
2, 69384, Note_on_c, 0, 77, 75
2, 69407, Note_on_c, 0, 77, 0
2, 70272, Note_on_c, 0, 80, 75
2, 70295, Note_on_c, 0, 80, 0
2, 70296, Note_on_c, 0, 82, 75
2, 70319, Note_on_c, 0, 82, 0
2, 70320, Note_on_c, 0, 80, 75
2, 70343, Note_on_c, 0, 80, 0
2, 70344, Note_on_c, 0, 79, 75
2, 70367, Note_on_c, 0, 79, 0
2, 70368, Note_on_c, 0, 77, 75
2, 70391, Note_on_c, 0, 77, 0
2, 70392, Note_on_c, 0, 75, 75
2, 70415, Note_on_c, 0, 75, 0
2, 70416, Note_on_c, 0, 74, 75
2, 70439, Note_on_c, 0, 74, 0
2, 70440, Note_on_c, 0, 72, 75
2, 70463, Note_on_c, 0, 72, 0
2, 70464, Note_on_c, 0, 70, 75
2, 70487, Note_on_c, 0, 70, 0
2, 70488, Note_on_c, 0, 68, 75
2, 70511, Note_on_c, 0, 68, 0
2, 70512, Note_on_c, 0, 67, 75
2, 70535, Note_on_c, 0, 67, 0
2, 70536, Note_on_c, 0, 65, 75
2, 70559, Note_on_c, 0, 65, 0
2, 70560, Note_on_c, 0, 63, 75
2, 70605, Note_on_c, 0, 63, 0
2, 70608, Note_on_c, 0, 79, 74
2, 70608, Note_on_c, 0, 75, 74
2, 70653, Note_on_c, 0, 79, 0
2, 70653, Note_on_c, 0, 75, 0
2, 70704, Note_on_c, 0, 77, 72
2, 70704, Note_on_c, 0, 74, 72
2, 70749, Note_on_c, 0, 77, 0
2, 70749, Note_on_c, 0, 74, 0
2, 70800, Note_on_c, 0, 75, 71
2, 70800, Note_on_c, 0, 72, 71
2, 70845, Note_on_c, 0, 75, 0
2, 70845, Note_on_c, 0, 72, 0
2, 70896, Note_on_c, 0, 73, 69
2, 70896, Note_on_c, 0, 70, 69
2, 70941, Note_on_c, 0, 73, 0
2, 70941, Note_on_c, 0, 70, 0
2, 70992, Note_on_c, 0, 72, 67
2, 70992, Note_on_c, 0, 68, 67
2, 71037, Note_on_c, 0, 72, 0
2, 71037, Note_on_c, 0, 68, 0
2, 71088, Note_on_c, 0, 70, 66
2, 71088, Note_on_c, 0, 67, 66
2, 71133, Note_on_c, 0, 70, 0
2, 71133, Note_on_c, 0, 67, 0
2, 71184, Note_on_c, 0, 68, 64
2, 71184, Note_on_c, 0, 65, 64
2, 71229, Note_on_c, 0, 68, 0
2, 71229, Note_on_c, 0, 65, 0
2, 71568, Note_on_c, 0, 68, 64
2, 71568, Note_on_c, 0, 65, 64
2, 71588, Note_on_c, 0, 68, 0
2, 71588, Note_on_c, 0, 65, 0
2, 71616, Note_on_c, 0, 68, 64
2, 71616, Note_on_c, 0, 65, 64
2, 71636, Note_on_c, 0, 68, 0
2, 71636, Note_on_c, 0, 65, 0
2, 71664, Note_on_c, 0, 68, 64
2, 71664, Note_on_c, 0, 65, 64
2, 71684, Note_on_c, 0, 68, 0
2, 71684, Note_on_c, 0, 65, 0
2, 71712, Note_on_c, 0, 68, 64
2, 71712, Note_on_c, 0, 65, 64
2, 71977, Note_on_c, 0, 68, 0
2, 71977, Note_on_c, 0, 65, 0
2, 72144, Note_on_c, 0, 67, 64
2, 72150, Note_on_c, 0, 67, 0
2, 72150, Note_on_c, 0, 68, 64
2, 72150, Note_on_c, 0, 65, 64
2, 72164, Note_on_c, 0, 68, 0
2, 72164, Note_on_c, 0, 65, 0
2, 72192, Note_on_c, 0, 67, 64
2, 72198, Note_on_c, 0, 67, 0
2, 72198, Note_on_c, 0, 68, 64
2, 72198, Note_on_c, 0, 65, 64
2, 72212, Note_on_c, 0, 68, 0
2, 72212, Note_on_c, 0, 65, 0
2, 72240, Note_on_c, 0, 67, 64
2, 72246, Note_on_c, 0, 67, 0
2, 72246, Note_on_c, 0, 68, 64
2, 72246, Note_on_c, 0, 65, 64
2, 72260, Note_on_c, 0, 68, 0
2, 72260, Note_on_c, 0, 65, 0
2, 72288, Note_on_c, 0, 67, 64
2, 72294, Note_on_c, 0, 67, 0
2, 72294, Note_on_c, 0, 68, 64
2, 72294, Note_on_c, 0, 65, 64
2, 72753, Note_on_c, 0, 68, 0
2, 72753, Note_on_c, 0, 65, 0
2, 72768, Note_on_c, 0, 69, 71
2, 72768, Note_on_c, 0, 66, 71
2, 72768, Note_on_c, 0, 63, 71
2, 72857, Note_on_c, 0, 69, 0
2, 72857, Note_on_c, 0, 66, 0
2, 72857, Note_on_c, 0, 63, 0
2, 72864, Note_on_c, 0, 70, 74
2, 72864, Note_on_c, 0, 67, 74
2, 72864, Note_on_c, 0, 63, 74
2, 72997, Note_on_c, 0, 70, 0
2, 72997, Note_on_c, 0, 67, 0
2, 72997, Note_on_c, 0, 63, 0
2, 73008, Note_on_c, 0, 72, 80
2, 73031, Note_on_c, 0, 72, 0
2, 73032, Note_on_c, 0, 70, 80
2, 73055, Note_on_c, 0, 70, 0
2, 73056, Note_on_c, 0, 68, 80
2, 73079, Note_on_c, 0, 68, 0
2, 73080, Note_on_c, 0, 67, 80
2, 73103, Note_on_c, 0, 67, 0
2, 73104, Note_on_c, 0, 65, 80
2, 73127, Note_on_c, 0, 65, 0
2, 73128, Note_on_c, 0, 63, 80
2, 73151, Note_on_c, 0, 63, 0
2, 73152, Note_on_c, 0, 62, 80
2, 73249, Note_on_c, 0, 62, 0
2, 73260, Note_on_c, 0, 67, 80
2, 73272, Note_on_c, 0, 67, 0
2, 73272, Note_on_c, 0, 65, 80
2, 73284, Note_on_c, 0, 65, 0
2, 73284, Note_on_c, 0, 63, 80
2, 73296, Note_on_c, 0, 63, 0
2, 73296, Note_on_c, 0, 65, 80
2, 73341, Note_on_c, 0, 65, 0
2, 73344, Note_on_c, 0, 68, 80
2, 73389, Note_on_c, 0, 68, 0
2, 73392, Note_on_c, 0, 62, 80
2, 73437, Note_on_c, 0, 62, 0
2, 73440, Note_on_c, 0, 63, 80
2, 73485, Note_on_c, 0, 63, 0
2, 73488, Note_on_c, 0, 58, 64
2, 73533, Note_on_c, 0, 58, 0
2, 73536, Note_on_c, 0, 59, 64
2, 73581, Note_on_c, 0, 59, 0
2, 73584, Note_on_c, 0, 60, 64
2, 73629, Note_on_c, 0, 60, 0
2, 73632, Note_on_c, 0, 61, 64
2, 73677, Note_on_c, 0, 61, 0
2, 73680, Note_on_c, 0, 62, 64
2, 73725, Note_on_c, 0, 62, 0
2, 73728, Note_on_c, 0, 63, 64
2, 73773, Note_on_c, 0, 63, 0
2, 73776, Note_on_c, 0, 64, 64
2, 73821, Note_on_c, 0, 64, 0
2, 73824, Note_on_c, 0, 65, 64
2, 73869, Note_on_c, 0, 65, 0
2, 73872, Note_on_c, 0, 67, 64
2, 73917, Note_on_c, 0, 67, 0
2, 73920, Note_on_c, 0, 68, 64
2, 73965, Note_on_c, 0, 68, 0
2, 73968, Note_on_c, 0, 62, 64
2, 74013, Note_on_c, 0, 62, 0
2, 74016, Note_on_c, 0, 63, 64
2, 74036, Note_on_c, 0, 63, 0
2, 74064, Note_on_c, 0, 70, 80
2, 74064, Note_on_c, 0, 67, 80
2, 74109, Note_on_c, 0, 70, 0
2, 74109, Note_on_c, 0, 67, 0
2, 74112, Note_on_c, 0, 72, 80
2, 74112, Note_on_c, 0, 68, 80
2, 74157, Note_on_c, 0, 72, 0
2, 74157, Note_on_c, 0, 68, 0
2, 74160, Note_on_c, 0, 70, 80
2, 74160, Note_on_c, 0, 67, 80
2, 74205, Note_on_c, 0, 70, 0
2, 74205, Note_on_c, 0, 67, 0
2, 74208, Note_on_c, 0, 68, 80
2, 74208, Note_on_c, 0, 65, 80
2, 74253, Note_on_c, 0, 68, 0
2, 74253, Note_on_c, 0, 65, 0
2, 74256, Note_on_c, 0, 67, 80
2, 74256, Note_on_c, 0, 63, 80
2, 74301, Note_on_c, 0, 67, 0
2, 74301, Note_on_c, 0, 63, 0
2, 74304, Note_on_c, 0, 65, 80
2, 74304, Note_on_c, 0, 62, 80
2, 74393, Note_on_c, 0, 65, 0
2, 74393, Note_on_c, 0, 62, 0
2, 74496, Note_on_c, 0, 74, 80
2, 74496, Note_on_c, 0, 68, 80
2, 74496, Note_on_c, 0, 65, 80
2, 74585, Note_on_c, 0, 74, 0
2, 74585, Note_on_c, 0, 68, 0
2, 74585, Note_on_c, 0, 65, 0
2, 74592, Note_on_c, 0, 75, 80
2, 74592, Note_on_c, 0, 70, 80
2, 74592, Note_on_c, 0, 67, 80
2, 74612, Note_on_c, 0, 75, 0
2, 74612, Note_on_c, 0, 70, 0
2, 74612, Note_on_c, 0, 67, 0
2, 74640, Note_on_c, 0, 82, 64
2, 74640, Note_on_c, 0, 79, 64
2, 74685, Note_on_c, 0, 82, 0
2, 74685, Note_on_c, 0, 79, 0
2, 74688, Note_on_c, 0, 84, 64
2, 74688, Note_on_c, 0, 80, 64
2, 74733, Note_on_c, 0, 84, 0
2, 74733, Note_on_c, 0, 80, 0
2, 74736, Note_on_c, 0, 82, 64
2, 74736, Note_on_c, 0, 79, 64
2, 74781, Note_on_c, 0, 82, 0
2, 74781, Note_on_c, 0, 79, 0
2, 74784, Note_on_c, 0, 80, 64
2, 74784, Note_on_c, 0, 77, 64
2, 74829, Note_on_c, 0, 80, 0
2, 74829, Note_on_c, 0, 77, 0
2, 74832, Note_on_c, 0, 79, 64
2, 74832, Note_on_c, 0, 75, 64
2, 74877, Note_on_c, 0, 79, 0
2, 74877, Note_on_c, 0, 75, 0
2, 74880, Note_on_c, 0, 77, 64
2, 74880, Note_on_c, 0, 74, 64
2, 75072, Note_on_c, 0, 77, 0
2, 75072, Note_on_c, 0, 74, 0
2, 75072, Note_on_c, 0, 79, 64
2, 75072, Note_on_c, 0, 75, 64
2, 75161, Note_on_c, 0, 79, 0
2, 75161, Note_on_c, 0, 75, 0
2, 75168, Note_on_c, 0, 80, 64
2, 75168, Note_on_c, 0, 77, 64
2, 75257, Note_on_c, 0, 80, 0
2, 75257, Note_on_c, 0, 77, 0
2, 75264, Note_on_c, 0, 75, 64
2, 75264, Note_on_c, 0, 72, 64
2, 75353, Note_on_c, 0, 75, 0
2, 75353, Note_on_c, 0, 72, 0
2, 75360, Note_on_c, 0, 77, 64
2, 75360, Note_on_c, 0, 74, 64
2, 75449, Note_on_c, 0, 77, 0
2, 75449, Note_on_c, 0, 74, 0
2, 75456, Note_on_c, 0, 79, 64
2, 75456, Note_on_c, 0, 75, 64
2, 75504, Note_on_c, 0, 79, 0
2, 75504, Note_on_c, 0, 75, 0
2, 75504, Note_on_c, 0, 77, 64
2, 75504, Note_on_c, 0, 74, 64
2, 75549, Note_on_c, 0, 77, 0
2, 75549, Note_on_c, 0, 74, 0
2, 75552, Note_on_c, 0, 80, 64
2, 75552, Note_on_c, 0, 75, 64
2, 75597, Note_on_c, 0, 80, 0
2, 75597, Note_on_c, 0, 75, 0
2, 75600, Note_on_c, 0, 79, 64
2, 75600, Note_on_c, 0, 74, 64
2, 75645, Note_on_c, 0, 79, 0
2, 75645, Note_on_c, 0, 74, 0
2, 75648, Note_on_c, 0, 77, 64
2, 75648, Note_on_c, 0, 72, 64
2, 75693, Note_on_c, 0, 77, 0
2, 75693, Note_on_c, 0, 72, 0
2, 75696, Note_on_c, 0, 75, 64
2, 75696, Note_on_c, 0, 70, 64
2, 75741, Note_on_c, 0, 75, 0
2, 75741, Note_on_c, 0, 70, 0
2, 75744, Note_on_c, 0, 74, 64
2, 75744, Note_on_c, 0, 68, 64
2, 75789, Note_on_c, 0, 74, 0
2, 75789, Note_on_c, 0, 68, 0
2, 75792, Note_on_c, 0, 72, 64
2, 75792, Note_on_c, 0, 67, 64
2, 75837, Note_on_c, 0, 72, 0
2, 75837, Note_on_c, 0, 67, 0
2, 75840, Note_on_c, 0, 70, 64
2, 75840, Note_on_c, 0, 65, 64
2, 75929, Note_on_c, 0, 70, 0
2, 75929, Note_on_c, 0, 65, 0
2, 75936, Note_on_c, 0, 69, 64
2, 75936, Note_on_c, 0, 63, 64
2, 76025, Note_on_c, 0, 69, 0
2, 76025, Note_on_c, 0, 63, 0
2, 76032, Note_on_c, 0, 68, 64
2, 76032, Note_on_c, 0, 62, 64
2, 76209, Note_on_c, 0, 68, 0
2, 76209, Note_on_c, 0, 62, 0
2, 76368, Note_on_c, 0, 63, 64
2, 76413, Note_on_c, 0, 63, 0
2, 76416, Note_on_c, 0, 67, 64
2, 76461, Note_on_c, 0, 67, 0
2, 76464, Note_on_c, 0, 63, 64
2, 76509, Note_on_c, 0, 63, 0
2, 76512, Note_on_c, 0, 68, 64
2, 76557, Note_on_c, 0, 68, 0
2, 76560, Note_on_c, 0, 58, 64
2, 76605, Note_on_c, 0, 58, 0
2, 76656, Note_on_c, 0, 70, 64
2, 76701, Note_on_c, 0, 70, 0
2, 76704, Note_on_c, 0, 74, 64
2, 76749, Note_on_c, 0, 74, 0
2, 76752, Note_on_c, 0, 70, 64
2, 76797, Note_on_c, 0, 70, 0
2, 76800, Note_on_c, 0, 75, 64
2, 76845, Note_on_c, 0, 75, 0
2, 76848, Note_on_c, 0, 63, 64
2, 76893, Note_on_c, 0, 63, 0
2, 76944, Note_on_c, 0, 75, 64
2, 76989, Note_on_c, 0, 75, 0
2, 76992, Note_on_c, 0, 79, 64
2, 77037, Note_on_c, 0, 79, 0
2, 77040, Note_on_c, 0, 75, 64
2, 77085, Note_on_c, 0, 75, 0
2, 77088, Note_on_c, 0, 80, 64
2, 77133, Note_on_c, 0, 80, 0
2, 77136, Note_on_c, 0, 68, 64
2, 77181, Note_on_c, 0, 68, 0
2, 77184, Note_on_c, 0, 81, 64
2, 77229, Note_on_c, 0, 81, 0
2, 77232, Note_on_c, 0, 69, 66
2, 77277, Note_on_c, 0, 69, 0
2, 77280, Note_on_c, 0, 82, 68
2, 77325, Note_on_c, 0, 82, 0
2, 77328, Note_on_c, 0, 70, 70
2, 77373, Note_on_c, 0, 70, 0
2, 77376, Note_on_c, 0, 83, 73
2, 77421, Note_on_c, 0, 83, 0
2, 77424, Note_on_c, 0, 71, 75
2, 77469, Note_on_c, 0, 71, 0
2, 77472, Note_on_c, 0, 84, 77
2, 77517, Note_on_c, 0, 84, 0
2, 77520, Note_on_c, 0, 72, 80
2, 77565, Note_on_c, 0, 72, 0
2, 77568, Note_on_c, 0, 86, 80
2, 77613, Note_on_c, 0, 86, 0
2, 77616, Note_on_c, 0, 74, 80
2, 77661, Note_on_c, 0, 74, 0
2, 77664, Note_on_c, 0, 87, 80
2, 77709, Note_on_c, 0, 87, 0
2, 77712, Note_on_c, 0, 75, 80
2, 77757, Note_on_c, 0, 75, 0
2, 78000, Note_on_c, 0, 60, 64
2, 78020, Note_on_c, 0, 60, 0
2, 78048, Note_on_c, 0, 72, 64
2, 78285, Note_on_c, 0, 72, 0
2, 78288, Note_on_c, 0, 62, 64
2, 78308, Note_on_c, 0, 62, 0
2, 78336, Note_on_c, 0, 63, 64
2, 78381, Note_on_c, 0, 63, 0
2, 78384, Note_on_c, 0, 70, 64
2, 78384, Note_on_c, 0, 67, 64
2, 78429, Note_on_c, 0, 70, 0
2, 78429, Note_on_c, 0, 67, 0
2, 78432, Note_on_c, 0, 72, 64
2, 78432, Note_on_c, 0, 68, 64
2, 78477, Note_on_c, 0, 72, 0
2, 78477, Note_on_c, 0, 68, 0
2, 78480, Note_on_c, 0, 70, 64
2, 78480, Note_on_c, 0, 67, 64
2, 78525, Note_on_c, 0, 70, 0
2, 78525, Note_on_c, 0, 67, 0
2, 78528, Note_on_c, 0, 68, 64
2, 78528, Note_on_c, 0, 65, 64
2, 78573, Note_on_c, 0, 68, 0
2, 78573, Note_on_c, 0, 65, 0
2, 78576, Note_on_c, 0, 67, 64
2, 78576, Note_on_c, 0, 63, 64
2, 78621, Note_on_c, 0, 67, 0
2, 78621, Note_on_c, 0, 63, 0
2, 78624, Note_on_c, 0, 65, 64
2, 78624, Note_on_c, 0, 62, 64
2, 78713, Note_on_c, 0, 65, 0
2, 78713, Note_on_c, 0, 62, 0
2, 78960, Note_on_c, 0, 58, 64
2, 78960, Note_on_c, 0, 55, 64
2, 79005, Note_on_c, 0, 58, 0
2, 79005, Note_on_c, 0, 55, 0
2, 79008, Note_on_c, 0, 60, 64
2, 79008, Note_on_c, 0, 56, 64
2, 79053, Note_on_c, 0, 60, 0
2, 79053, Note_on_c, 0, 56, 0
2, 79056, Note_on_c, 0, 58, 64
2, 79056, Note_on_c, 0, 55, 64
2, 79101, Note_on_c, 0, 58, 0
2, 79101, Note_on_c, 0, 55, 0
2, 79104, Note_on_c, 0, 56, 64
2, 79104, Note_on_c, 0, 53, 64
2, 79149, Note_on_c, 0, 56, 0
2, 79149, Note_on_c, 0, 53, 0
2, 79152, Note_on_c, 0, 55, 64
2, 79152, Note_on_c, 0, 51, 64
2, 79197, Note_on_c, 0, 55, 0
2, 79197, Note_on_c, 0, 51, 0
2, 79200, Note_on_c, 0, 53, 64
2, 79200, Note_on_c, 0, 50, 64
2, 79289, Note_on_c, 0, 53, 0
2, 79289, Note_on_c, 0, 50, 0
2, 79536, Note_on_c, 0, 51, 64
2, 79581, Note_on_c, 0, 51, 0
2, 79584, Note_on_c, 0, 52, 64
2, 79629, Note_on_c, 0, 52, 0
2, 79632, Note_on_c, 0, 53, 64
2, 79677, Note_on_c, 0, 53, 0
2, 79680, Note_on_c, 0, 54, 64
2, 79725, Note_on_c, 0, 54, 0
2, 79728, Note_on_c, 0, 55, 64
2, 79773, Note_on_c, 0, 55, 0
2, 79776, Note_on_c, 0, 56, 64
2, 80013, Note_on_c, 0, 56, 0
2, 80016, Note_on_c, 0, 55, 64
2, 80036, Note_on_c, 0, 55, 0
2, 80064, Note_on_c, 0, 60, 64
2, 80301, Note_on_c, 0, 60, 0
2, 80304, Note_on_c, 0, 58, 64
2, 80324, Note_on_c, 0, 58, 0
2, 80352, Note_on_c, 0, 68, 80
2, 80352, Note_on_c, 0, 65, 80
2, 80352, Note_on_c, 0, 58, 80
2, 80544, Note_on_c, 0, 58, 0
2, 80589, Note_on_c, 0, 68, 0
2, 80589, Note_on_c, 0, 65, 0
2, 80592, Note_on_c, 0, 67, 64
2, 80592, Note_on_c, 0, 63, 64
2, 80637, Note_on_c, 0, 67, 0
2, 80637, Note_on_c, 0, 63, 0
2, 80688, Note_on_c, 0, 65, 64
2, 80688, Note_on_c, 0, 60, 64
2, 80733, Note_on_c, 0, 65, 0
2, 80733, Note_on_c, 0, 60, 0
2, 80784, Note_on_c, 0, 63, 64
2, 80784, Note_on_c, 0, 58, 64
2, 80829, Note_on_c, 0, 63, 0
2, 80829, Note_on_c, 0, 58, 0
2, 80880, Note_on_c, 0, 62, 64
2, 80880, Note_on_c, 0, 56, 64
2, 80925, Note_on_c, 0, 62, 0
2, 80925, Note_on_c, 0, 56, 0
2, 80928, Note_on_c, 0, 68, 80
2, 80928, Note_on_c, 0, 65, 80
2, 80928, Note_on_c, 0, 58, 80
2, 81120, Note_on_c, 0, 58, 0
2, 81165, Note_on_c, 0, 68, 0
2, 81165, Note_on_c, 0, 65, 0
2, 81168, Note_on_c, 0, 67, 64
2, 81168, Note_on_c, 0, 63, 64
2, 81213, Note_on_c, 0, 67, 0
2, 81213, Note_on_c, 0, 63, 0
2, 81264, Note_on_c, 0, 65, 64
2, 81264, Note_on_c, 0, 60, 64
2, 81309, Note_on_c, 0, 65, 0
2, 81309, Note_on_c, 0, 60, 0
2, 81360, Note_on_c, 0, 63, 64
2, 81360, Note_on_c, 0, 58, 64
2, 81405, Note_on_c, 0, 63, 0
2, 81405, Note_on_c, 0, 58, 0
2, 81456, Note_on_c, 0, 62, 64
2, 81456, Note_on_c, 0, 56, 64
2, 81501, Note_on_c, 0, 62, 0
2, 81501, Note_on_c, 0, 56, 0
2, 81552, Note_on_c, 0, 70, 64
2, 81552, Note_on_c, 0, 67, 64
2, 81597, Note_on_c, 0, 70, 0
2, 81597, Note_on_c, 0, 67, 0
2, 81600, Note_on_c, 0, 72, 64
2, 81600, Note_on_c, 0, 68, 64
2, 81645, Note_on_c, 0, 72, 0
2, 81645, Note_on_c, 0, 68, 0
2, 81648, Note_on_c, 0, 70, 64
2, 81648, Note_on_c, 0, 67, 64
2, 81693, Note_on_c, 0, 70, 0
2, 81693, Note_on_c, 0, 67, 0
2, 81696, Note_on_c, 0, 68, 64
2, 81696, Note_on_c, 0, 65, 64
2, 81741, Note_on_c, 0, 68, 0
2, 81741, Note_on_c, 0, 65, 0
2, 81744, Note_on_c, 0, 67, 64
2, 81744, Note_on_c, 0, 63, 64
2, 81789, Note_on_c, 0, 67, 0
2, 81789, Note_on_c, 0, 63, 0
2, 81840, Note_on_c, 0, 82, 64
2, 81885, Note_on_c, 0, 82, 0
2, 81888, Note_on_c, 0, 83, 64
2, 81933, Note_on_c, 0, 83, 0
2, 81936, Note_on_c, 0, 84, 64
2, 81981, Note_on_c, 0, 84, 0
2, 81984, Note_on_c, 0, 85, 64
2, 82029, Note_on_c, 0, 85, 0
2, 82032, Note_on_c, 0, 86, 64
2, 82077, Note_on_c, 0, 86, 0
2, 82080, Note_on_c, 0, 87, 64
2, 82125, Note_on_c, 0, 87, 0
2, 82128, Note_on_c, 0, 70, 64
2, 82128, Note_on_c, 0, 67, 64
2, 82173, Note_on_c, 0, 70, 0
2, 82173, Note_on_c, 0, 67, 0
2, 82176, Note_on_c, 0, 72, 64
2, 82176, Note_on_c, 0, 68, 64
2, 82221, Note_on_c, 0, 72, 0
2, 82221, Note_on_c, 0, 68, 0
2, 82224, Note_on_c, 0, 70, 64
2, 82224, Note_on_c, 0, 67, 64
2, 82269, Note_on_c, 0, 70, 0
2, 82269, Note_on_c, 0, 67, 0
2, 82272, Note_on_c, 0, 68, 64
2, 82272, Note_on_c, 0, 65, 64
2, 82317, Note_on_c, 0, 68, 0
2, 82317, Note_on_c, 0, 65, 0
2, 82320, Note_on_c, 0, 67, 64
2, 82320, Note_on_c, 0, 63, 64
2, 82365, Note_on_c, 0, 67, 0
2, 82365, Note_on_c, 0, 63, 0
2, 82368, Note_on_c, 0, 58, 80
2, 82487, Note_on_c, 0, 58, 0
2, 82488, Note_on_c, 0, 60, 80
2, 82511, Note_on_c, 0, 60, 0
2, 82512, Note_on_c, 0, 62, 80
2, 82535, Note_on_c, 0, 62, 0
2, 82536, Note_on_c, 0, 63, 80
2, 82559, Note_on_c, 0, 63, 0
2, 82560, Note_on_c, 0, 65, 80
2, 82572, Note_on_c, 0, 65, 0
2, 82572, Note_on_c, 0, 67, 80
2, 82584, Note_on_c, 0, 67, 0
2, 82584, Note_on_c, 0, 68, 80
2, 82596, Note_on_c, 0, 68, 0
2, 82596, Note_on_c, 0, 70, 80
2, 82608, Note_on_c, 0, 70, 0
2, 82608, Note_on_c, 0, 72, 80
2, 82620, Note_on_c, 0, 72, 0
2, 82620, Note_on_c, 0, 74, 80
2, 82632, Note_on_c, 0, 74, 0
2, 82632, Note_on_c, 0, 75, 80
2, 82644, Note_on_c, 0, 75, 0
2, 82644, Note_on_c, 0, 77, 80
2, 82656, Note_on_c, 0, 77, 0
2, 82656, Note_on_c, 0, 79, 80
2, 82745, Note_on_c, 0, 79, 0
2, 82896, Note_on_c, 0, 65, 70
2, 82896, Note_on_c, 0, 62, 70
2, 82941, Note_on_c, 0, 65, 0
2, 82941, Note_on_c, 0, 62, 0
2, 82944, Note_on_c, 0, 67, 70
2, 82944, Note_on_c, 0, 63, 70
2, 82989, Note_on_c, 0, 67, 0
2, 82989, Note_on_c, 0, 63, 0
2, 82992, Note_on_c, 0, 65, 70
2, 82992, Note_on_c, 0, 62, 70
2, 83037, Note_on_c, 0, 65, 0
2, 83037, Note_on_c, 0, 62, 0
2, 83040, Note_on_c, 0, 63, 70
2, 83040, Note_on_c, 0, 60, 70
2, 83085, Note_on_c, 0, 63, 0
2, 83085, Note_on_c, 0, 60, 0
2, 83088, Note_on_c, 0, 62, 70
2, 83088, Note_on_c, 0, 58, 70
2, 83133, Note_on_c, 0, 62, 0
2, 83133, Note_on_c, 0, 58, 0
2, 83136, Note_on_c, 0, 60, 70
2, 83136, Note_on_c, 0, 57, 70
2, 83181, Note_on_c, 0, 60, 0
2, 83181, Note_on_c, 0, 57, 0
2, 83184, Note_on_c, 0, 63, 70
2, 83184, Note_on_c, 0, 60, 70
2, 83229, Note_on_c, 0, 63, 0
2, 83229, Note_on_c, 0, 60, 0
2, 83232, Note_on_c, 0, 62, 70
2, 83321, Note_on_c, 0, 62, 0
2, 83328, Note_on_c, 0, 70, 70
2, 83461, Note_on_c, 0, 70, 0
2, 83472, Note_on_c, 0, 69, 70
2, 83517, Note_on_c, 0, 69, 0
2, 83520, Note_on_c, 0, 68, 70
2, 83609, Note_on_c, 0, 68, 0
2, 83616, Note_on_c, 0, 67, 70
2, 83705, Note_on_c, 0, 67, 0
2, 83712, Note_on_c, 0, 75, 70
2, 83897, Note_on_c, 0, 75, 0
2, 83904, Note_on_c, 0, 74, 70
2, 84185, Note_on_c, 0, 74, 0
2, 84192, Note_on_c, 0, 72, 70
2, 84473, Note_on_c, 0, 72, 0
2, 84480, Note_on_c, 0, 71, 70
2, 84761, Note_on_c, 0, 71, 0
2, 84768, Note_on_c, 0, 68, 70
2, 84857, Note_on_c, 0, 68, 0
2, 84864, Note_on_c, 0, 77, 70
2, 85049, Note_on_c, 0, 77, 0
2, 85056, Note_on_c, 0, 76, 70
2, 85145, Note_on_c, 0, 76, 0
2, 85152, Note_on_c, 0, 79, 70
2, 85293, Note_on_c, 0, 79, 0
2, 85296, Note_on_c, 0, 76, 70
2, 85341, Note_on_c, 0, 76, 0
2, 85344, Note_on_c, 0, 77, 70
2, 85389, Note_on_c, 0, 77, 0
2, 85392, Note_on_c, 0, 79, 70
2, 85437, Note_on_c, 0, 79, 0
2, 85440, Note_on_c, 0, 80, 70
2, 85625, Note_on_c, 0, 80, 0
2, 85632, Note_on_c, 0, 79, 70
2, 85721, Note_on_c, 0, 79, 0
2, 85728, Note_on_c, 0, 77, 70
2, 85817, Note_on_c, 0, 77, 0
2, 85824, Note_on_c, 0, 75, 70
2, 86089, Note_on_c, 0, 75, 0
2, 86112, Note_on_c, 0, 74, 70
2, 86445, Note_on_c, 0, 74, 0
2, 86448, Note_on_c, 0, 71, 70
2, 86493, Note_on_c, 0, 71, 0
2, 86496, Note_on_c, 0, 72, 70
2, 86541, Note_on_c, 0, 72, 0
2, 86544, Note_on_c, 0, 74, 70
2, 86589, Note_on_c, 0, 74, 0
2, 86592, Note_on_c, 0, 75, 70
2, 86637, Note_on_c, 0, 75, 0
2, 86640, Note_on_c, 0, 66, 70
2, 86685, Note_on_c, 0, 66, 0
2, 86688, Note_on_c, 0, 67, 70
2, 86733, Note_on_c, 0, 67, 0
2, 86736, Note_on_c, 0, 78, 70
2, 86784, Note_on_c, 0, 78, 0
2, 86784, Note_on_c, 0, 79, 70
2, 86829, Note_on_c, 0, 79, 0
2, 86832, Note_on_c, 0, 77, 70
2, 86877, Note_on_c, 0, 77, 0
2, 86880, Note_on_c, 0, 75, 70
2, 86925, Note_on_c, 0, 75, 0
2, 86928, Note_on_c, 0, 74, 70
2, 86973, Note_on_c, 0, 74, 0
2, 86976, Note_on_c, 0, 72, 70
2, 87021, Note_on_c, 0, 72, 0
2, 87024, Note_on_c, 0, 71, 70
2, 87069, Note_on_c, 0, 71, 0
2, 87072, Note_on_c, 0, 72, 70
2, 87117, Note_on_c, 0, 72, 0
2, 87120, Note_on_c, 0, 68, 70
2, 87165, Note_on_c, 0, 68, 0
2, 87168, Note_on_c, 0, 67, 70
2, 87213, Note_on_c, 0, 67, 0
2, 87216, Note_on_c, 0, 66, 70
2, 87261, Note_on_c, 0, 66, 0
2, 87264, Note_on_c, 0, 67, 70
2, 87303, Note_on_c, 0, 67, 0
2, 87456, Note_on_c, 0, 72, 75
2, 87480, Note_on_c, 0, 72, 0
2, 87480, Note_on_c, 0, 75, 75
2, 87503, Note_on_c, 0, 75, 0
2, 87504, Note_on_c, 0, 74, 75
2, 87528, Note_on_c, 0, 74, 0
2, 87528, Note_on_c, 0, 77, 75
2, 87551, Note_on_c, 0, 77, 0
2, 87552, Note_on_c, 0, 75, 75
2, 87572, Note_on_c, 0, 75, 0
2, 87696, Note_on_c, 0, 80, 75
2, 87719, Note_on_c, 0, 80, 0
2, 87720, Note_on_c, 0, 79, 75
2, 87743, Note_on_c, 0, 79, 0
2, 87744, Note_on_c, 0, 77, 75
2, 87767, Note_on_c, 0, 77, 0
2, 87768, Note_on_c, 0, 75, 75
2, 87791, Note_on_c, 0, 75, 0
2, 87792, Note_on_c, 0, 74, 75
2, 87815, Note_on_c, 0, 74, 0
2, 87816, Note_on_c, 0, 72, 75
2, 87839, Note_on_c, 0, 72, 0
2, 87840, Note_on_c, 0, 71, 75
2, 87860, Note_on_c, 0, 71, 0
2, 88032, Note_on_c, 0, 74, 75
2, 88056, Note_on_c, 0, 74, 0
2, 88056, Note_on_c, 0, 77, 75
2, 88079, Note_on_c, 0, 77, 0
2, 88080, Note_on_c, 0, 75, 75
2, 88104, Note_on_c, 0, 75, 0
2, 88104, Note_on_c, 0, 79, 75
2, 88127, Note_on_c, 0, 79, 0
2, 88128, Note_on_c, 0, 77, 75
2, 88148, Note_on_c, 0, 77, 0
2, 88272, Note_on_c, 0, 86, 75
2, 88295, Note_on_c, 0, 86, 0
2, 88296, Note_on_c, 0, 84, 75
2, 88319, Note_on_c, 0, 84, 0
2, 88320, Note_on_c, 0, 83, 75
2, 88343, Note_on_c, 0, 83, 0
2, 88344, Note_on_c, 0, 80, 75
2, 88367, Note_on_c, 0, 80, 0
2, 88368, Note_on_c, 0, 79, 75
2, 88391, Note_on_c, 0, 79, 0
2, 88392, Note_on_c, 0, 77, 75
2, 88415, Note_on_c, 0, 77, 0
2, 88416, Note_on_c, 0, 75, 75
2, 88436, Note_on_c, 0, 75, 0
2, 88512, Note_on_c, 0, 72, 80
2, 88535, Note_on_c, 0, 72, 0
2, 88536, Note_on_c, 0, 74, 80
2, 88559, Note_on_c, 0, 74, 0
2, 88560, Note_on_c, 0, 75, 80
2, 88583, Note_on_c, 0, 75, 0
2, 88584, Note_on_c, 0, 77, 80
2, 88607, Note_on_c, 0, 77, 0
2, 88608, Note_on_c, 0, 79, 80
2, 88631, Note_on_c, 0, 79, 0
2, 88632, Note_on_c, 0, 81, 80
2, 88655, Note_on_c, 0, 81, 0
2, 88656, Note_on_c, 0, 83, 80
2, 88679, Note_on_c, 0, 83, 0
2, 88680, Note_on_c, 0, 84, 80
2, 88690, Note_on_c, 0, 84, 0
2, 88704, Note_on_c, 0, 84, 96
2, 88800, Note_on_c, 0, 84, 0
2, 88800, Note_on_c, 0, 83, 80
2, 88845, Note_on_c, 0, 83, 0
2, 88848, Note_on_c, 0, 80, 80
2, 88893, Note_on_c, 0, 80, 0
2, 88896, Note_on_c, 0, 79, 80
2, 88941, Note_on_c, 0, 79, 0
2, 88944, Note_on_c, 0, 77, 80
2, 88989, Note_on_c, 0, 77, 0
2, 88992, Note_on_c, 0, 75, 80
2, 89037, Note_on_c, 0, 75, 0
2, 89088, Note_on_c, 0, 72, 80
2, 89111, Note_on_c, 0, 72, 0
2, 89112, Note_on_c, 0, 74, 80
2, 89135, Note_on_c, 0, 74, 0
2, 89136, Note_on_c, 0, 75, 80
2, 89159, Note_on_c, 0, 75, 0
2, 89160, Note_on_c, 0, 77, 80
2, 89183, Note_on_c, 0, 77, 0
2, 89184, Note_on_c, 0, 79, 80
2, 89207, Note_on_c, 0, 79, 0
2, 89208, Note_on_c, 0, 81, 80
2, 89231, Note_on_c, 0, 81, 0
2, 89232, Note_on_c, 0, 83, 80
2, 89255, Note_on_c, 0, 83, 0
2, 89256, Note_on_c, 0, 84, 80
2, 89279, Note_on_c, 0, 84, 0
2, 89280, Note_on_c, 0, 85, 96
2, 89424, Note_on_c, 0, 85, 0
2, 89424, Note_on_c, 0, 82, 80
2, 89447, Note_on_c, 0, 82, 0
2, 89448, Note_on_c, 0, 79, 80
2, 89471, Note_on_c, 0, 79, 0
2, 89472, Note_on_c, 0, 75, 80
2, 89517, Note_on_c, 0, 75, 0
2, 89520, Note_on_c, 0, 73, 80
2, 89565, Note_on_c, 0, 73, 0
2, 89568, Note_on_c, 0, 72, 80
2, 89613, Note_on_c, 0, 72, 0
2, 89664, Note_on_c, 0, 68, 80
2, 89687, Note_on_c, 0, 68, 0
2, 89688, Note_on_c, 0, 70, 80
2, 89711, Note_on_c, 0, 70, 0
2, 89712, Note_on_c, 0, 72, 80
2, 89735, Note_on_c, 0, 72, 0
2, 89736, Note_on_c, 0, 73, 80
2, 89759, Note_on_c, 0, 73, 0
2, 89760, Note_on_c, 0, 75, 80
2, 89783, Note_on_c, 0, 75, 0
2, 89784, Note_on_c, 0, 77, 80
2, 89807, Note_on_c, 0, 77, 0
2, 89808, Note_on_c, 0, 79, 80
2, 89831, Note_on_c, 0, 79, 0
2, 89832, Note_on_c, 0, 80, 80
2, 89842, Note_on_c, 0, 80, 0
2, 89856, Note_on_c, 0, 80, 96
2, 89952, Note_on_c, 0, 80, 0
2, 89952, Note_on_c, 0, 79, 80
2, 89997, Note_on_c, 0, 79, 0
2, 90000, Note_on_c, 0, 77, 80
2, 90045, Note_on_c, 0, 77, 0
2, 90048, Note_on_c, 0, 75, 80
2, 90093, Note_on_c, 0, 75, 0
2, 90096, Note_on_c, 0, 73, 80
2, 90141, Note_on_c, 0, 73, 0
2, 90144, Note_on_c, 0, 72, 80
2, 90189, Note_on_c, 0, 72, 0
2, 90240, Note_on_c, 0, 72, 80
2, 90263, Note_on_c, 0, 72, 0
2, 90264, Note_on_c, 0, 73, 80
2, 90287, Note_on_c, 0, 73, 0
2, 90288, Note_on_c, 0, 75, 80
2, 90311, Note_on_c, 0, 75, 0
2, 90312, Note_on_c, 0, 77, 80
2, 90335, Note_on_c, 0, 77, 0
2, 90336, Note_on_c, 0, 79, 80
2, 90359, Note_on_c, 0, 79, 0
2, 90360, Note_on_c, 0, 80, 80
2, 90383, Note_on_c, 0, 80, 0
2, 90384, Note_on_c, 0, 82, 80
2, 90407, Note_on_c, 0, 82, 0
2, 90408, Note_on_c, 0, 84, 80
2, 90431, Note_on_c, 0, 84, 0
2, 90432, Note_on_c, 0, 82, 96
2, 90576, Note_on_c, 0, 82, 0
2, 90576, Note_on_c, 0, 79, 80
2, 90599, Note_on_c, 0, 79, 0
2, 90600, Note_on_c, 0, 76, 80
2, 90623, Note_on_c, 0, 76, 0
2, 90624, Note_on_c, 0, 72, 80
2, 90669, Note_on_c, 0, 72, 0
2, 90672, Note_on_c, 0, 70, 80
2, 90717, Note_on_c, 0, 70, 0
2, 90720, Note_on_c, 0, 68, 80
2, 90765, Note_on_c, 0, 68, 0
2, 90816, Note_on_c, 0, 65, 80
2, 90839, Note_on_c, 0, 65, 0
2, 90840, Note_on_c, 0, 67, 80
2, 90863, Note_on_c, 0, 67, 0
2, 90864, Note_on_c, 0, 68, 80
2, 90887, Note_on_c, 0, 68, 0
2, 90888, Note_on_c, 0, 70, 80
2, 90911, Note_on_c, 0, 70, 0
2, 90912, Note_on_c, 0, 72, 80
2, 90935, Note_on_c, 0, 72, 0
2, 90936, Note_on_c, 0, 74, 80
2, 90959, Note_on_c, 0, 74, 0
2, 90960, Note_on_c, 0, 76, 80
2, 90983, Note_on_c, 0, 76, 0
2, 90984, Note_on_c, 0, 77, 80
2, 90994, Note_on_c, 0, 77, 0
2, 91008, Note_on_c, 0, 77, 96
2, 91104, Note_on_c, 0, 77, 0
2, 91104, Note_on_c, 0, 76, 80
2, 91149, Note_on_c, 0, 76, 0
2, 91152, Note_on_c, 0, 73, 80
2, 91197, Note_on_c, 0, 73, 0
2, 91200, Note_on_c, 0, 72, 80
2, 91245, Note_on_c, 0, 72, 0
2, 91248, Note_on_c, 0, 70, 80
2, 91293, Note_on_c, 0, 70, 0
2, 91296, Note_on_c, 0, 68, 80
2, 91341, Note_on_c, 0, 68, 0
2, 91392, Note_on_c, 0, 65, 80
2, 91415, Note_on_c, 0, 65, 0
2, 91416, Note_on_c, 0, 67, 80
2, 91439, Note_on_c, 0, 67, 0
2, 91440, Note_on_c, 0, 68, 80
2, 91463, Note_on_c, 0, 68, 0
2, 91464, Note_on_c, 0, 70, 80
2, 91487, Note_on_c, 0, 70, 0
2, 91488, Note_on_c, 0, 72, 80
2, 91511, Note_on_c, 0, 72, 0
2, 91512, Note_on_c, 0, 74, 80
2, 91535, Note_on_c, 0, 74, 0
2, 91536, Note_on_c, 0, 76, 80
2, 91559, Note_on_c, 0, 76, 0
2, 91560, Note_on_c, 0, 77, 80
2, 91583, Note_on_c, 0, 77, 0
2, 91584, Note_on_c, 0, 78, 96
2, 91728, Note_on_c, 0, 78, 0
2, 91728, Note_on_c, 0, 75, 80
2, 91751, Note_on_c, 0, 75, 0
2, 91752, Note_on_c, 0, 72, 80
2, 91775, Note_on_c, 0, 72, 0
2, 91776, Note_on_c, 0, 68, 80
2, 91821, Note_on_c, 0, 68, 0
2, 91824, Note_on_c, 0, 66, 80
2, 91869, Note_on_c, 0, 66, 0
2, 91872, Note_on_c, 0, 65, 80
2, 91961, Note_on_c, 0, 65, 0
2, 92016, Note_on_c, 0, 77, 80
2, 92061, Note_on_c, 0, 77, 0
2, 92064, Note_on_c, 0, 77, 80
2, 92109, Note_on_c, 0, 77, 0
2, 92112, Note_on_c, 0, 77, 80
2, 92157, Note_on_c, 0, 77, 0
2, 92160, Note_on_c, 0, 75, 80
2, 92172, Note_on_c, 0, 75, 0
2, 92172, Note_on_c, 0, 77, 80
2, 92184, Note_on_c, 0, 77, 0
2, 92184, Note_on_c, 0, 78, 96
2, 92304, Note_on_c, 0, 78, 0
2, 92304, Note_on_c, 0, 75, 80
2, 92327, Note_on_c, 0, 75, 0
2, 92328, Note_on_c, 0, 72, 80
2, 92351, Note_on_c, 0, 72, 0
2, 92352, Note_on_c, 0, 68, 80
2, 92397, Note_on_c, 0, 68, 0
2, 92400, Note_on_c, 0, 66, 80
2, 92445, Note_on_c, 0, 66, 0
2, 92448, Note_on_c, 0, 65, 80
2, 92537, Note_on_c, 0, 65, 0
2, 92592, Note_on_c, 0, 73, 80
2, 92615, Note_on_c, 0, 73, 0
2, 92616, Note_on_c, 0, 77, 80
2, 92639, Note_on_c, 0, 77, 0
2, 92640, Note_on_c, 0, 80, 80
2, 92685, Note_on_c, 0, 80, 0
2, 92688, Note_on_c, 0, 80, 80
2, 92733, Note_on_c, 0, 80, 0
2, 92736, Note_on_c, 0, 78, 80
2, 92759, Note_on_c, 0, 78, 0
2, 92760, Note_on_c, 0, 80, 80
2, 92783, Note_on_c, 0, 80, 0
2, 92784, Note_on_c, 0, 78, 80
2, 92807, Note_on_c, 0, 78, 0
2, 92808, Note_on_c, 0, 77, 80
2, 92831, Note_on_c, 0, 77, 0
2, 92832, Note_on_c, 0, 75, 80
2, 92855, Note_on_c, 0, 75, 0
2, 92856, Note_on_c, 0, 77, 80
2, 92879, Note_on_c, 0, 77, 0
2, 92880, Note_on_c, 0, 75, 80
2, 92903, Note_on_c, 0, 75, 0
2, 92904, Note_on_c, 0, 73, 80
2, 92927, Note_on_c, 0, 73, 0
2, 92928, Note_on_c, 0, 72, 80
2, 92951, Note_on_c, 0, 72, 0
2, 92952, Note_on_c, 0, 70, 80
2, 92975, Note_on_c, 0, 70, 0
2, 92976, Note_on_c, 0, 68, 80
2, 92999, Note_on_c, 0, 68, 0
2, 93000, Note_on_c, 0, 66, 80
2, 93023, Note_on_c, 0, 66, 0
2, 93024, Note_on_c, 0, 65, 80
2, 93113, Note_on_c, 0, 65, 0
2, 93168, Note_on_c, 0, 77, 80
2, 93213, Note_on_c, 0, 77, 0
2, 93216, Note_on_c, 0, 77, 80
2, 93261, Note_on_c, 0, 77, 0
2, 93264, Note_on_c, 0, 77, 80
2, 93309, Note_on_c, 0, 77, 0
2, 93312, Note_on_c, 0, 77, 80
2, 93324, Note_on_c, 0, 77, 0
2, 93324, Note_on_c, 0, 79, 80
2, 93336, Note_on_c, 0, 79, 0
2, 93336, Note_on_c, 0, 80, 96
2, 93408, Note_on_c, 0, 80, 0
2, 93456, Note_on_c, 0, 77, 75
2, 93501, Note_on_c, 0, 77, 0
2, 93504, Note_on_c, 0, 77, 75
2, 93549, Note_on_c, 0, 77, 0
2, 93552, Note_on_c, 0, 77, 75
2, 93597, Note_on_c, 0, 77, 0
2, 93600, Note_on_c, 0, 77, 75
2, 93612, Note_on_c, 0, 77, 0
2, 93612, Note_on_c, 0, 79, 75
2, 93624, Note_on_c, 0, 79, 0
2, 93624, Note_on_c, 0, 80, 91
2, 93696, Note_on_c, 0, 80, 0
2, 93744, Note_on_c, 0, 77, 75
2, 93789, Note_on_c, 0, 77, 0
2, 93792, Note_on_c, 0, 77, 76
2, 93837, Note_on_c, 0, 77, 0
2, 93840, Note_on_c, 0, 77, 77
2, 93885, Note_on_c, 0, 77, 0
2, 93888, Note_on_c, 0, 76, 79
2, 93911, Note_on_c, 0, 76, 0
2, 93912, Note_on_c, 0, 72, 80
2, 93935, Note_on_c, 0, 72, 0
2, 93936, Note_on_c, 0, 76, 80
2, 93959, Note_on_c, 0, 76, 0
2, 93960, Note_on_c, 0, 79, 80
2, 93983, Note_on_c, 0, 79, 0
2, 93984, Note_on_c, 0, 84, 80
2, 94007, Note_on_c, 0, 84, 0
2, 94008, Note_on_c, 0, 72, 80
2, 94031, Note_on_c, 0, 72, 0
2, 94032, Note_on_c, 0, 76, 80
2, 94055, Note_on_c, 0, 76, 0
2, 94056, Note_on_c, 0, 79, 80
2, 94079, Note_on_c, 0, 79, 0
2, 94080, Note_on_c, 0, 84, 80
2, 94103, Note_on_c, 0, 84, 0
2, 94104, Note_on_c, 0, 82, 80
2, 94127, Note_on_c, 0, 82, 0
2, 94128, Note_on_c, 0, 80, 80
2, 94151, Note_on_c, 0, 80, 0
2, 94152, Note_on_c, 0, 79, 80
2, 94175, Note_on_c, 0, 79, 0
2, 94176, Note_on_c, 0, 80, 80
2, 94199, Note_on_c, 0, 80, 0
2, 94200, Note_on_c, 0, 72, 80
2, 94223, Note_on_c, 0, 72, 0
2, 94224, Note_on_c, 0, 77, 80
2, 94247, Note_on_c, 0, 77, 0
2, 94248, Note_on_c, 0, 80, 80
2, 94271, Note_on_c, 0, 80, 0
2, 94272, Note_on_c, 0, 84, 80
2, 94295, Note_on_c, 0, 84, 0
2, 94296, Note_on_c, 0, 72, 80
2, 94319, Note_on_c, 0, 72, 0
2, 94320, Note_on_c, 0, 77, 80
2, 94343, Note_on_c, 0, 77, 0
2, 94344, Note_on_c, 0, 80, 80
2, 94367, Note_on_c, 0, 80, 0
2, 94368, Note_on_c, 0, 84, 80
2, 94391, Note_on_c, 0, 84, 0
2, 94392, Note_on_c, 0, 80, 80
2, 94415, Note_on_c, 0, 80, 0
2, 94416, Note_on_c, 0, 79, 80
2, 94439, Note_on_c, 0, 79, 0
2, 94440, Note_on_c, 0, 77, 80
2, 94463, Note_on_c, 0, 77, 0
2, 94464, Note_on_c, 0, 76, 80
2, 94487, Note_on_c, 0, 76, 0
2, 94488, Note_on_c, 0, 72, 80
2, 94511, Note_on_c, 0, 72, 0
2, 94512, Note_on_c, 0, 76, 80
2, 94535, Note_on_c, 0, 76, 0
2, 94536, Note_on_c, 0, 79, 80
2, 94559, Note_on_c, 0, 79, 0
2, 94560, Note_on_c, 0, 84, 80
2, 94583, Note_on_c, 0, 84, 0
2, 94584, Note_on_c, 0, 72, 80
2, 94607, Note_on_c, 0, 72, 0
2, 94608, Note_on_c, 0, 76, 80
2, 94631, Note_on_c, 0, 76, 0
2, 94632, Note_on_c, 0, 79, 80
2, 94655, Note_on_c, 0, 79, 0
2, 94656, Note_on_c, 0, 84, 80
2, 94679, Note_on_c, 0, 84, 0
2, 94680, Note_on_c, 0, 82, 80
2, 94703, Note_on_c, 0, 82, 0
2, 94704, Note_on_c, 0, 80, 80
2, 94727, Note_on_c, 0, 80, 0
2, 94728, Note_on_c, 0, 79, 80
2, 94751, Note_on_c, 0, 79, 0
2, 94752, Note_on_c, 0, 80, 80
2, 94775, Note_on_c, 0, 80, 0
2, 94776, Note_on_c, 0, 72, 80
2, 94799, Note_on_c, 0, 72, 0
2, 94800, Note_on_c, 0, 77, 80
2, 94823, Note_on_c, 0, 77, 0
2, 94824, Note_on_c, 0, 80, 80
2, 94847, Note_on_c, 0, 80, 0
2, 94848, Note_on_c, 0, 84, 80
2, 94871, Note_on_c, 0, 84, 0
2, 94872, Note_on_c, 0, 72, 80
2, 94895, Note_on_c, 0, 72, 0
2, 94896, Note_on_c, 0, 77, 80
2, 94919, Note_on_c, 0, 77, 0
2, 94920, Note_on_c, 0, 80, 80
2, 94943, Note_on_c, 0, 80, 0
2, 94944, Note_on_c, 0, 84, 80
2, 94967, Note_on_c, 0, 84, 0
2, 94968, Note_on_c, 0, 80, 80
2, 94991, Note_on_c, 0, 80, 0
2, 94992, Note_on_c, 0, 79, 80
2, 95015, Note_on_c, 0, 79, 0
2, 95016, Note_on_c, 0, 77, 80
2, 95039, Note_on_c, 0, 77, 0
2, 95040, Note_on_c, 0, 76, 80
2, 95052, Note_on_c, 0, 76, 0
2, 95052, Note_on_c, 0, 79, 80
2, 95064, Note_on_c, 0, 79, 0
2, 95064, Note_on_c, 0, 84, 96
2, 95184, Note_on_c, 0, 84, 0
2, 95472, Note_on_c, 0, 73, 64
2, 95472, Note_on_c, 0, 70, 64
2, 95492, Note_on_c, 0, 73, 0
2, 95492, Note_on_c, 0, 70, 0
2, 95520, Note_on_c, 0, 73, 64
2, 95520, Note_on_c, 0, 70, 64
2, 95540, Note_on_c, 0, 73, 0
2, 95540, Note_on_c, 0, 70, 0
2, 95568, Note_on_c, 0, 73, 64
2, 95568, Note_on_c, 0, 70, 64
2, 95588, Note_on_c, 0, 73, 0
2, 95588, Note_on_c, 0, 70, 0
2, 95616, Note_on_c, 0, 73, 64
2, 95616, Note_on_c, 0, 70, 64
2, 95655, Note_on_c, 0, 73, 0
2, 95655, Note_on_c, 0, 70, 0
2, 96048, Note_on_c, 0, 72, 64
2, 96048, Note_on_c, 0, 70, 64
2, 96068, Note_on_c, 0, 72, 0
2, 96068, Note_on_c, 0, 70, 0
2, 96096, Note_on_c, 0, 72, 64
2, 96096, Note_on_c, 0, 70, 64
2, 96116, Note_on_c, 0, 72, 0
2, 96116, Note_on_c, 0, 70, 0
2, 96144, Note_on_c, 0, 72, 64
2, 96144, Note_on_c, 0, 70, 64
2, 96164, Note_on_c, 0, 72, 0
2, 96164, Note_on_c, 0, 70, 0
2, 96192, Note_on_c, 0, 72, 64
2, 96192, Note_on_c, 0, 70, 64
2, 96231, Note_on_c, 0, 72, 0
2, 96231, Note_on_c, 0, 70, 0
2, 96624, Note_on_c, 0, 78, 64
2, 96624, Note_on_c, 0, 69, 64
2, 96644, Note_on_c, 0, 78, 0
2, 96644, Note_on_c, 0, 69, 0
2, 96672, Note_on_c, 0, 78, 64
2, 96672, Note_on_c, 0, 69, 64
2, 96692, Note_on_c, 0, 78, 0
2, 96692, Note_on_c, 0, 69, 0
2, 96720, Note_on_c, 0, 78, 64
2, 96720, Note_on_c, 0, 69, 64
2, 96740, Note_on_c, 0, 78, 0
2, 96740, Note_on_c, 0, 69, 0
2, 96768, Note_on_c, 0, 78, 64
2, 96768, Note_on_c, 0, 69, 64
2, 96807, Note_on_c, 0, 78, 0
2, 96807, Note_on_c, 0, 69, 0
2, 97200, Note_on_c, 0, 77, 64
2, 97200, Note_on_c, 0, 70, 64
2, 97220, Note_on_c, 0, 77, 0
2, 97220, Note_on_c, 0, 70, 0
2, 97248, Note_on_c, 0, 77, 64
2, 97248, Note_on_c, 0, 70, 64
2, 97268, Note_on_c, 0, 77, 0
2, 97268, Note_on_c, 0, 70, 0
2, 97296, Note_on_c, 0, 77, 64
2, 97296, Note_on_c, 0, 70, 64
2, 97316, Note_on_c, 0, 77, 0
2, 97316, Note_on_c, 0, 70, 0
2, 97344, Note_on_c, 0, 77, 64
2, 97344, Note_on_c, 0, 70, 64
2, 97383, Note_on_c, 0, 77, 0
2, 97383, Note_on_c, 0, 70, 0
2, 97776, Note_on_c, 0, 73, 64
2, 97776, Note_on_c, 0, 70, 64
2, 97796, Note_on_c, 0, 73, 0
2, 97796, Note_on_c, 0, 70, 0
2, 97824, Note_on_c, 0, 73, 64
2, 97824, Note_on_c, 0, 70, 64
2, 97844, Note_on_c, 0, 73, 0
2, 97844, Note_on_c, 0, 70, 0
2, 97872, Note_on_c, 0, 73, 64
2, 97872, Note_on_c, 0, 70, 64
2, 97892, Note_on_c, 0, 73, 0
2, 97892, Note_on_c, 0, 70, 0
2, 97920, Note_on_c, 0, 73, 64
2, 97920, Note_on_c, 0, 70, 64
2, 98097, Note_on_c, 0, 73, 0
2, 98097, Note_on_c, 0, 70, 0
2, 98112, Note_on_c, 0, 74, 76
2, 98201, Note_on_c, 0, 74, 0
2, 98208, Note_on_c, 0, 75, 64
2, 98385, Note_on_c, 0, 75, 0
2, 98400, Note_on_c, 0, 75, 76
2, 98585, Note_on_c, 0, 75, 0
2, 98592, Note_on_c, 0, 73, 64
2, 98681, Note_on_c, 0, 73, 0
2, 98688, Note_on_c, 0, 76, 76
2, 98777, Note_on_c, 0, 76, 0
2, 98784, Note_on_c, 0, 77, 64
2, 98961, Note_on_c, 0, 77, 0
2, 98976, Note_on_c, 0, 77, 76
2, 99161, Note_on_c, 0, 77, 0
2, 99168, Note_on_c, 0, 75, 64
2, 99257, Note_on_c, 0, 75, 0
2, 99264, Note_on_c, 0, 78, 64
2, 99360, Note_on_c, 0, 78, 0
2, 99360, Note_on_c, 0, 79, 64
2, 99493, Note_on_c, 0, 79, 0
2, 99504, Note_on_c, 0, 80, 80
2, 99524, Note_on_c, 0, 80, 0
2, 99552, Note_on_c, 0, 80, 80
2, 99572, Note_on_c, 0, 80, 0
2, 99600, Note_on_c, 0, 80, 80
2, 99620, Note_on_c, 0, 80, 0
2, 99648, Note_on_c, 0, 80, 80
2, 99648, Note_on_c, 0, 74, 80
2, 99648, Note_on_c, 0, 71, 80
2, 99737, Note_on_c, 0, 80, 0
2, 99737, Note_on_c, 0, 74, 0
2, 99737, Note_on_c, 0, 71, 0
2, 100080, Note_on_c, 0, 80, 64
2, 100080, Note_on_c, 0, 77, 64
2, 100100, Note_on_c, 0, 80, 0
2, 100100, Note_on_c, 0, 77, 0
2, 100128, Note_on_c, 0, 80, 64
2, 100128, Note_on_c, 0, 77, 64
2, 100148, Note_on_c, 0, 80, 0
2, 100148, Note_on_c, 0, 77, 0
2, 100176, Note_on_c, 0, 80, 64
2, 100176, Note_on_c, 0, 77, 64
2, 100196, Note_on_c, 0, 80, 0
2, 100196, Note_on_c, 0, 77, 0
2, 100224, Note_on_c, 0, 80, 64
2, 100224, Note_on_c, 0, 77, 64
2, 100313, Note_on_c, 0, 80, 0
2, 100313, Note_on_c, 0, 77, 0
2, 100512, Note_on_c, 0, 50, 64
2, 100536, Note_on_c, 0, 50, 0
2, 100536, Note_on_c, 0, 53, 64
2, 100559, Note_on_c, 0, 53, 0
2, 100560, Note_on_c, 0, 51, 64
2, 100584, Note_on_c, 0, 51, 0
2, 100584, Note_on_c, 0, 55, 65
2, 100607, Note_on_c, 0, 55, 0
2, 100608, Note_on_c, 0, 53, 65
2, 100653, Note_on_c, 0, 53, 0
2, 100800, Note_on_c, 0, 62, 68
2, 100824, Note_on_c, 0, 62, 0
2, 100824, Note_on_c, 0, 65, 68
2, 100847, Note_on_c, 0, 65, 0
2, 100848, Note_on_c, 0, 63, 69
2, 100872, Note_on_c, 0, 63, 0
2, 100872, Note_on_c, 0, 67, 69
2, 100895, Note_on_c, 0, 67, 0
2, 100896, Note_on_c, 0, 65, 69
2, 100941, Note_on_c, 0, 65, 0
2, 101088, Note_on_c, 0, 74, 72
2, 101112, Note_on_c, 0, 74, 0
2, 101112, Note_on_c, 0, 77, 73
2, 101135, Note_on_c, 0, 77, 0
2, 101136, Note_on_c, 0, 75, 73
2, 101160, Note_on_c, 0, 75, 0
2, 101160, Note_on_c, 0, 79, 73
2, 101183, Note_on_c, 0, 79, 0
2, 101184, Note_on_c, 0, 77, 74
2, 101229, Note_on_c, 0, 77, 0
2, 101280, Note_on_c, 0, 74, 75
2, 101304, Note_on_c, 0, 74, 0
2, 101304, Note_on_c, 0, 77, 76
2, 101327, Note_on_c, 0, 77, 0
2, 101328, Note_on_c, 0, 75, 76
2, 101352, Note_on_c, 0, 75, 0
2, 101352, Note_on_c, 0, 79, 76
2, 101375, Note_on_c, 0, 79, 0
2, 101376, Note_on_c, 0, 77, 77
2, 101421, Note_on_c, 0, 77, 0
2, 101472, Note_on_c, 0, 74, 78
2, 101496, Note_on_c, 0, 74, 0
2, 101496, Note_on_c, 0, 77, 79
2, 101519, Note_on_c, 0, 77, 0
2, 101520, Note_on_c, 0, 75, 79
2, 101543, Note_on_c, 0, 75, 0
2, 101544, Note_on_c, 0, 79, 79
2, 101567, Note_on_c, 0, 79, 0
2, 101568, Note_on_c, 0, 77, 80
2, 101613, Note_on_c, 0, 77, 0
2, 101712, Note_on_c, 0, 72, 82
2, 101735, Note_on_c, 0, 72, 0
2, 101736, Note_on_c, 0, 74, 82
2, 101759, Note_on_c, 0, 74, 0
2, 101760, Note_on_c, 0, 75, 83
2, 101783, Note_on_c, 0, 75, 0
2, 101784, Note_on_c, 0, 77, 83
2, 101807, Note_on_c, 0, 77, 0
2, 101808, Note_on_c, 0, 79, 83
2, 101831, Note_on_c, 0, 79, 0
2, 101832, Note_on_c, 0, 80, 84
2, 101855, Note_on_c, 0, 80, 0
2, 101856, Note_on_c, 0, 82, 84
2, 101879, Note_on_c, 0, 82, 0
2, 101880, Note_on_c, 0, 84, 84
2, 101903, Note_on_c, 0, 84, 0
2, 101904, Note_on_c, 0, 86, 85
2, 101927, Note_on_c, 0, 86, 0
2, 101928, Note_on_c, 0, 87, 85
2, 101951, Note_on_c, 0, 87, 0
2, 101952, Note_on_c, 0, 89, 86
2, 102263, Note_on_c, 0, 89, 0
2, 102264, Note_on_c, 0, 87, 75
2, 102287, Note_on_c, 0, 87, 0
2, 102288, Note_on_c, 0, 86, 75
2, 102311, Note_on_c, 0, 86, 0
2, 102312, Note_on_c, 0, 84, 75
2, 102335, Note_on_c, 0, 84, 0
2, 102336, Note_on_c, 0, 82, 75
2, 102359, Note_on_c, 0, 82, 0
2, 102360, Note_on_c, 0, 80, 75
2, 102383, Note_on_c, 0, 80, 0
2, 102384, Note_on_c, 0, 79, 75
2, 102407, Note_on_c, 0, 79, 0
2, 102408, Note_on_c, 0, 77, 75
2, 102431, Note_on_c, 0, 77, 0
2, 102432, Note_on_c, 0, 80, 75
2, 102455, Note_on_c, 0, 80, 0
2, 102456, Note_on_c, 0, 79, 75
2, 102479, Note_on_c, 0, 79, 0
2, 102480, Note_on_c, 0, 82, 75
2, 102503, Note_on_c, 0, 82, 0
2, 102504, Note_on_c, 0, 80, 75
2, 102527, Note_on_c, 0, 80, 0
2, 102528, Note_on_c, 0, 84, 75
2, 102551, Note_on_c, 0, 84, 0
2, 102552, Note_on_c, 0, 82, 75
2, 102575, Note_on_c, 0, 82, 0
2, 102576, Note_on_c, 0, 80, 75
2, 102599, Note_on_c, 0, 80, 0
2, 102600, Note_on_c, 0, 79, 75
2, 102623, Note_on_c, 0, 79, 0
2, 102624, Note_on_c, 0, 77, 75
2, 102647, Note_on_c, 0, 77, 0
2, 102648, Note_on_c, 0, 76, 75
2, 102671, Note_on_c, 0, 76, 0
2, 102672, Note_on_c, 0, 79, 75
2, 102695, Note_on_c, 0, 79, 0
2, 102696, Note_on_c, 0, 77, 75
2, 102719, Note_on_c, 0, 77, 0
2, 102720, Note_on_c, 0, 80, 75
2, 102743, Note_on_c, 0, 80, 0
2, 102744, Note_on_c, 0, 79, 75
2, 102767, Note_on_c, 0, 79, 0
2, 102768, Note_on_c, 0, 82, 75
2, 102791, Note_on_c, 0, 82, 0
2, 102792, Note_on_c, 0, 80, 75
2, 102815, Note_on_c, 0, 80, 0
2, 102816, Note_on_c, 0, 79, 75
2, 102839, Note_on_c, 0, 79, 0
2, 102840, Note_on_c, 0, 77, 75
2, 102863, Note_on_c, 0, 77, 0
2, 102864, Note_on_c, 0, 75, 75
2, 102887, Note_on_c, 0, 75, 0
2, 102888, Note_on_c, 0, 74, 75
2, 102911, Note_on_c, 0, 74, 0
2, 102912, Note_on_c, 0, 77, 75
2, 102935, Note_on_c, 0, 77, 0
2, 102936, Note_on_c, 0, 75, 75
2, 102959, Note_on_c, 0, 75, 0
2, 102960, Note_on_c, 0, 79, 75
2, 102983, Note_on_c, 0, 79, 0
2, 102984, Note_on_c, 0, 77, 75
2, 103007, Note_on_c, 0, 77, 0
2, 103008, Note_on_c, 0, 75, 75
2, 103031, Note_on_c, 0, 75, 0
2, 103032, Note_on_c, 0, 74, 75
2, 103055, Note_on_c, 0, 74, 0
2, 103056, Note_on_c, 0, 72, 75
2, 103079, Note_on_c, 0, 72, 0
2, 103080, Note_on_c, 0, 71, 75
2, 103103, Note_on_c, 0, 71, 0
2, 103104, Note_on_c, 0, 70, 75
2, 103127, Note_on_c, 0, 70, 0
2, 103128, Note_on_c, 0, 69, 75
2, 103151, Note_on_c, 0, 69, 0
2, 103152, Note_on_c, 0, 68, 75
2, 103175, Note_on_c, 0, 68, 0
2, 103176, Note_on_c, 0, 67, 75
2, 103199, Note_on_c, 0, 67, 0
2, 103200, Note_on_c, 0, 66, 75
2, 103223, Note_on_c, 0, 66, 0
2, 103224, Note_on_c, 0, 65, 75
2, 103247, Note_on_c, 0, 65, 0
2, 103248, Note_on_c, 0, 64, 75
2, 103271, Note_on_c, 0, 64, 0
2, 103272, Note_on_c, 0, 63, 75
2, 103295, Note_on_c, 0, 63, 0
2, 103296, Note_on_c, 0, 62, 75
2, 103319, Note_on_c, 0, 62, 0
2, 103320, Note_on_c, 0, 61, 75
2, 103343, Note_on_c, 0, 61, 0
2, 103344, Note_on_c, 0, 60, 75
2, 103367, Note_on_c, 0, 60, 0
2, 103368, Note_on_c, 0, 59, 75
2, 103391, Note_on_c, 0, 59, 0
2, 103392, Note_on_c, 0, 58, 75
2, 103437, Note_on_c, 0, 58, 0
2, 103440, Note_on_c, 0, 57, 75
2, 103485, Note_on_c, 0, 57, 0
2, 103488, Note_on_c, 0, 56, 75
2, 103584, Note_on_c, 0, 56, 0
2, 103584, Note_on_c, 0, 55, 75
2, 103607, Note_on_c, 0, 55, 0
2, 103608, Note_on_c, 0, 58, 75
2, 103631, Note_on_c, 0, 58, 0
2, 103632, Note_on_c, 0, 56, 75
2, 103656, Note_on_c, 0, 56, 0
2, 103656, Note_on_c, 0, 60, 75
2, 103679, Note_on_c, 0, 60, 0
2, 103680, Note_on_c, 0, 58, 75
2, 103700, Note_on_c, 0, 58, 0
2, 103872, Note_on_c, 0, 67, 75
2, 103896, Note_on_c, 0, 67, 0
2, 103896, Note_on_c, 0, 63, 75
2, 103919, Note_on_c, 0, 63, 0
2, 103920, Note_on_c, 0, 62, 75
2, 103944, Note_on_c, 0, 62, 0
2, 103944, Note_on_c, 0, 65, 75
2, 103967, Note_on_c, 0, 65, 0
2, 103968, Note_on_c, 0, 63, 75
2, 103988, Note_on_c, 0, 63, 0
2, 104112, Note_on_c, 0, 63, 75
2, 104157, Note_on_c, 0, 63, 0
2, 104160, Note_on_c, 0, 67, 75
2, 104205, Note_on_c, 0, 67, 0
2, 104208, Note_on_c, 0, 70, 75
2, 104253, Note_on_c, 0, 70, 0
2, 104256, Note_on_c, 0, 70, 87
2, 104352, Note_on_c, 0, 70, 0
2, 104352, Note_on_c, 0, 68, 75
2, 104397, Note_on_c, 0, 68, 0
2, 104400, Note_on_c, 0, 67, 75
2, 104445, Note_on_c, 0, 67, 0
2, 104448, Note_on_c, 0, 65, 75
2, 104493, Note_on_c, 0, 65, 0
2, 104496, Note_on_c, 0, 63, 75
2, 104541, Note_on_c, 0, 63, 0
2, 104544, Note_on_c, 0, 62, 75
2, 104616, Note_on_c, 0, 62, 0
2, 104616, Note_on_c, 0, 65, 75
2, 104639, Note_on_c, 0, 65, 0
2, 104640, Note_on_c, 0, 68, 75
2, 104660, Note_on_c, 0, 68, 0
2, 104736, Note_on_c, 0, 58, 75
2, 104760, Note_on_c, 0, 58, 0
2, 104760, Note_on_c, 0, 62, 75
2, 104783, Note_on_c, 0, 62, 0
2, 104784, Note_on_c, 0, 60, 75
2, 104808, Note_on_c, 0, 60, 0
2, 104808, Note_on_c, 0, 63, 75
2, 104831, Note_on_c, 0, 63, 0
2, 104832, Note_on_c, 0, 62, 75
2, 104852, Note_on_c, 0, 62, 0
2, 105024, Note_on_c, 0, 62, 75
2, 105048, Note_on_c, 0, 62, 0
2, 105048, Note_on_c, 0, 65, 75
2, 105071, Note_on_c, 0, 65, 0
2, 105072, Note_on_c, 0, 63, 75
2, 105096, Note_on_c, 0, 63, 0
2, 105096, Note_on_c, 0, 67, 75
2, 105119, Note_on_c, 0, 67, 0
2, 105120, Note_on_c, 0, 65, 75
2, 105140, Note_on_c, 0, 65, 0
2, 105264, Note_on_c, 0, 65, 75
2, 105309, Note_on_c, 0, 65, 0
2, 105312, Note_on_c, 0, 68, 75
2, 105357, Note_on_c, 0, 68, 0
2, 105360, Note_on_c, 0, 72, 75
2, 105405, Note_on_c, 0, 72, 0
2, 105408, Note_on_c, 0, 72, 87
2, 105504, Note_on_c, 0, 72, 0
2, 105504, Note_on_c, 0, 70, 75
2, 105549, Note_on_c, 0, 70, 0
2, 105552, Note_on_c, 0, 68, 75
2, 105597, Note_on_c, 0, 68, 0
2, 105600, Note_on_c, 0, 67, 75
2, 105645, Note_on_c, 0, 67, 0
2, 105648, Note_on_c, 0, 65, 75
2, 105693, Note_on_c, 0, 65, 0
2, 105696, Note_on_c, 0, 63, 75
2, 105708, Note_on_c, 0, 63, 0
2, 105708, Note_on_c, 0, 65, 75
2, 105720, Note_on_c, 0, 65, 0
2, 105720, Note_on_c, 0, 63, 75
2, 105732, Note_on_c, 0, 63, 0
2, 105732, Note_on_c, 0, 62, 75
2, 105744, Note_on_c, 0, 62, 0
2, 105744, Note_on_c, 0, 63, 75
2, 105768, Note_on_c, 0, 63, 0
2, 105768, Note_on_c, 0, 67, 75
2, 105791, Note_on_c, 0, 67, 0
2, 105792, Note_on_c, 0, 70, 75
2, 105812, Note_on_c, 0, 70, 0
2, 105888, Note_on_c, 0, 75, 75
2, 105912, Note_on_c, 0, 75, 0
2, 105912, Note_on_c, 0, 74, 75
2, 105935, Note_on_c, 0, 74, 0
2, 105936, Note_on_c, 0, 77, 75
2, 105960, Note_on_c, 0, 77, 0
2, 105960, Note_on_c, 0, 75, 75
2, 105983, Note_on_c, 0, 75, 0
2, 105984, Note_on_c, 0, 79, 75
2, 106007, Note_on_c, 0, 79, 0
2, 106008, Note_on_c, 0, 77, 75
2, 106031, Note_on_c, 0, 77, 0
2, 106032, Note_on_c, 0, 80, 75
2, 106055, Note_on_c, 0, 80, 0
2, 106056, Note_on_c, 0, 79, 75
2, 106079, Note_on_c, 0, 79, 0
2, 106080, Note_on_c, 0, 82, 75
2, 106103, Note_on_c, 0, 82, 0
2, 106104, Note_on_c, 0, 80, 75
2, 106127, Note_on_c, 0, 80, 0
2, 106128, Note_on_c, 0, 79, 75
2, 106151, Note_on_c, 0, 79, 0
2, 106152, Note_on_c, 0, 77, 75
2, 106175, Note_on_c, 0, 77, 0
2, 106176, Note_on_c, 0, 75, 75
2, 106199, Note_on_c, 0, 75, 0
2, 106200, Note_on_c, 0, 74, 75
2, 106223, Note_on_c, 0, 74, 0
2, 106224, Note_on_c, 0, 72, 75
2, 106247, Note_on_c, 0, 72, 0
2, 106248, Note_on_c, 0, 71, 75
2, 106271, Note_on_c, 0, 71, 0
2, 106272, Note_on_c, 0, 71, 75
2, 106368, Note_on_c, 0, 71, 0
2, 106368, Note_on_c, 0, 72, 75
2, 106388, Note_on_c, 0, 72, 0
2, 106416, Note_on_c, 0, 74, 75
2, 106422, Note_on_c, 0, 74, 0
2, 106422, Note_on_c, 0, 72, 75
2, 106428, Note_on_c, 0, 72, 0
2, 106428, Note_on_c, 0, 71, 75
2, 106434, Note_on_c, 0, 71, 0
2, 106434, Note_on_c, 0, 72, 75
2, 106461, Note_on_c, 0, 72, 0
2, 106464, Note_on_c, 0, 74, 75
2, 106509, Note_on_c, 0, 74, 0
2, 106512, Note_on_c, 0, 75, 75
2, 106557, Note_on_c, 0, 75, 0
2, 106560, Note_on_c, 0, 75, 75
2, 106608, Note_on_c, 0, 75, 0
2, 106608, Note_on_c, 0, 65, 75
2, 106653, Note_on_c, 0, 65, 0
2, 106656, Note_on_c, 0, 72, 75
2, 106704, Note_on_c, 0, 72, 0
2, 106704, Note_on_c, 0, 60, 75
2, 106749, Note_on_c, 0, 60, 0
2, 106752, Note_on_c, 0, 68, 75
2, 106800, Note_on_c, 0, 68, 0
2, 106800, Note_on_c, 0, 62, 75
2, 106845, Note_on_c, 0, 62, 0
2, 106848, Note_on_c, 0, 63, 75
2, 106868, Note_on_c, 0, 63, 0
2, 107088, Note_on_c, 0, 58, 75
2, 107108, Note_on_c, 0, 58, 0
2, 107136, Note_on_c, 0, 63, 75
2, 107373, Note_on_c, 0, 63, 0
2, 107376, Note_on_c, 0, 62, 75
2, 107396, Note_on_c, 0, 62, 0
2, 107424, Note_on_c, 0, 68, 75
2, 107661, Note_on_c, 0, 68, 0
2, 107664, Note_on_c, 0, 67, 75
2, 107684, Note_on_c, 0, 67, 0
2, 107712, Note_on_c, 0, 75, 75
2, 107949, Note_on_c, 0, 75, 0
2, 107952, Note_on_c, 0, 74, 75
2, 107972, Note_on_c, 0, 74, 0
2, 108000, Note_on_c, 0, 80, 75
2, 108237, Note_on_c, 0, 80, 0
2, 108240, Note_on_c, 0, 79, 75
2, 108260, Note_on_c, 0, 79, 0
2, 108288, Note_on_c, 0, 84, 75
2, 108525, Note_on_c, 0, 84, 0
2, 108528, Note_on_c, 0, 83, 75
2, 108548, Note_on_c, 0, 83, 0
2, 108576, Note_on_c, 0, 86, 75
2, 108576, Note_on_c, 0, 77, 75
2, 108813, Note_on_c, 0, 86, 0
2, 108813, Note_on_c, 0, 77, 0
2, 108816, Note_on_c, 0, 84, 75
2, 108816, Note_on_c, 0, 75, 75
2, 108836, Note_on_c, 0, 84, 0
2, 108836, Note_on_c, 0, 75, 0
2, 108864, Note_on_c, 0, 82, 75
2, 108864, Note_on_c, 0, 73, 75
2, 109101, Note_on_c, 0, 82, 0
2, 109101, Note_on_c, 0, 73, 0
2, 109104, Note_on_c, 0, 80, 75
2, 109104, Note_on_c, 0, 72, 75
2, 109124, Note_on_c, 0, 80, 0
2, 109124, Note_on_c, 0, 72, 0
2, 109152, Note_on_c, 0, 79, 75
2, 109152, Note_on_c, 0, 70, 75
2, 109389, Note_on_c, 0, 79, 0
2, 109389, Note_on_c, 0, 70, 0
2, 109392, Note_on_c, 0, 77, 75
2, 109392, Note_on_c, 0, 68, 75
2, 109412, Note_on_c, 0, 77, 0
2, 109412, Note_on_c, 0, 68, 0
2, 109440, Note_on_c, 0, 80, 75
2, 109440, Note_on_c, 0, 71, 75
2, 109677, Note_on_c, 0, 80, 0
2, 109677, Note_on_c, 0, 71, 0
2, 109680, Note_on_c, 0, 79, 75
2, 109680, Note_on_c, 0, 70, 75
2, 109700, Note_on_c, 0, 79, 0
2, 109700, Note_on_c, 0, 70, 0
2, 109728, Note_on_c, 0, 77, 75
2, 109728, Note_on_c, 0, 68, 75
2, 109965, Note_on_c, 0, 77, 0
2, 109965, Note_on_c, 0, 68, 0
2, 109968, Note_on_c, 0, 75, 75
2, 109968, Note_on_c, 0, 67, 75
2, 109988, Note_on_c, 0, 75, 0
2, 109988, Note_on_c, 0, 67, 0
2, 110064, Note_on_c, 0, 72, 75
2, 110112, Note_on_c, 0, 72, 0
2, 110112, Note_on_c, 0, 79, 75
2, 110157, Note_on_c, 0, 79, 0
2, 110160, Note_on_c, 0, 76, 75
2, 110208, Note_on_c, 0, 76, 0
2, 110208, Note_on_c, 0, 80, 75
2, 110253, Note_on_c, 0, 80, 0
2, 110256, Note_on_c, 0, 77, 75
2, 110304, Note_on_c, 0, 77, 0
2, 110304, Note_on_c, 0, 83, 75
2, 110352, Note_on_c, 0, 83, 0
2, 110352, Note_on_c, 0, 86, 75
2, 110397, Note_on_c, 0, 86, 0
2, 110400, Note_on_c, 0, 84, 75
2, 110448, Note_on_c, 0, 84, 0
2, 110448, Note_on_c, 0, 79, 75
2, 110493, Note_on_c, 0, 79, 0
2, 110496, Note_on_c, 0, 80, 75
2, 110541, Note_on_c, 0, 80, 0
2, 110544, Note_on_c, 0, 77, 75
2, 110589, Note_on_c, 0, 77, 0
2, 110592, Note_on_c, 0, 75, 75
2, 110637, Note_on_c, 0, 75, 0
2, 110640, Note_on_c, 0, 74, 75
2, 110685, Note_on_c, 0, 74, 0
2, 110688, Note_on_c, 0, 80, 75
2, 110733, Note_on_c, 0, 80, 0
2, 110736, Note_on_c, 0, 77, 75
2, 110781, Note_on_c, 0, 77, 0
2, 110784, Note_on_c, 0, 74, 75
2, 110829, Note_on_c, 0, 74, 0
2, 110832, Note_on_c, 0, 71, 75
2, 110877, Note_on_c, 0, 71, 0
2, 110880, Note_on_c, 0, 70, 75
2, 110925, Note_on_c, 0, 70, 0
2, 110928, Note_on_c, 0, 69, 75
2, 110973, Note_on_c, 0, 69, 0
2, 110976, Note_on_c, 0, 77, 75
2, 111024, Note_on_c, 0, 77, 0
2, 111024, Note_on_c, 0, 69, 75
2, 111069, Note_on_c, 0, 69, 0
2, 111072, Note_on_c, 0, 77, 75
2, 111120, Note_on_c, 0, 77, 0
2, 111120, Note_on_c, 0, 68, 75
2, 111165, Note_on_c, 0, 68, 0
2, 111168, Note_on_c, 0, 67, 75
2, 111213, Note_on_c, 0, 67, 0
2, 111264, Note_on_c, 0, 63, 80
2, 111287, Note_on_c, 0, 63, 0
2, 111288, Note_on_c, 0, 65, 80
2, 111311, Note_on_c, 0, 65, 0
2, 111312, Note_on_c, 0, 67, 80
2, 111335, Note_on_c, 0, 67, 0
2, 111336, Note_on_c, 0, 68, 80
2, 111359, Note_on_c, 0, 68, 0
2, 111360, Note_on_c, 0, 70, 80
2, 111383, Note_on_c, 0, 70, 0
2, 111384, Note_on_c, 0, 72, 80
2, 111407, Note_on_c, 0, 72, 0
2, 111408, Note_on_c, 0, 74, 80
2, 111431, Note_on_c, 0, 74, 0
2, 111432, Note_on_c, 0, 75, 80
2, 111442, Note_on_c, 0, 75, 0
2, 111456, Note_on_c, 0, 75, 96
2, 111552, Note_on_c, 0, 75, 0
2, 111552, Note_on_c, 0, 74, 80
2, 111597, Note_on_c, 0, 74, 0
2, 111600, Note_on_c, 0, 72, 80
2, 111620, Note_on_c, 0, 72, 0
2, 111648, Note_on_c, 0, 70, 80
2, 111668, Note_on_c, 0, 70, 0
2, 111696, Note_on_c, 0, 68, 80
2, 111716, Note_on_c, 0, 68, 0
2, 111744, Note_on_c, 0, 66, 80
2, 111792, Note_on_c, 0, 66, 0
2, 111792, Note_on_c, 0, 67, 80
2, 111837, Note_on_c, 0, 67, 0
2, 111840, Note_on_c, 0, 63, 80
2, 111863, Note_on_c, 0, 63, 0
2, 111864, Note_on_c, 0, 65, 80
2, 111887, Note_on_c, 0, 65, 0
2, 111888, Note_on_c, 0, 67, 80
2, 111911, Note_on_c, 0, 67, 0
2, 111912, Note_on_c, 0, 68, 80
2, 111935, Note_on_c, 0, 68, 0
2, 111936, Note_on_c, 0, 70, 80
2, 111959, Note_on_c, 0, 70, 0
2, 111960, Note_on_c, 0, 72, 80
2, 111983, Note_on_c, 0, 72, 0
2, 111984, Note_on_c, 0, 74, 80
2, 112007, Note_on_c, 0, 74, 0
2, 112008, Note_on_c, 0, 75, 80
2, 112018, Note_on_c, 0, 75, 0
2, 112032, Note_on_c, 0, 75, 96
2, 112128, Note_on_c, 0, 75, 0
2, 112128, Note_on_c, 0, 74, 80
2, 112173, Note_on_c, 0, 74, 0
2, 112176, Note_on_c, 0, 72, 80
2, 112196, Note_on_c, 0, 72, 0
2, 112224, Note_on_c, 0, 70, 80
2, 112244, Note_on_c, 0, 70, 0
2, 112272, Note_on_c, 0, 68, 80
2, 112292, Note_on_c, 0, 68, 0
2, 112320, Note_on_c, 0, 66, 80
2, 112368, Note_on_c, 0, 66, 0
2, 112368, Note_on_c, 0, 67, 80
2, 112413, Note_on_c, 0, 67, 0
2, 112416, Note_on_c, 0, 63, 80
2, 112439, Note_on_c, 0, 63, 0
2, 112440, Note_on_c, 0, 65, 80
2, 112463, Note_on_c, 0, 65, 0
2, 112464, Note_on_c, 0, 67, 80
2, 112487, Note_on_c, 0, 67, 0
2, 112488, Note_on_c, 0, 68, 80
2, 112511, Note_on_c, 0, 68, 0
2, 112512, Note_on_c, 0, 70, 80
2, 112535, Note_on_c, 0, 70, 0
2, 112536, Note_on_c, 0, 72, 80
2, 112559, Note_on_c, 0, 72, 0
2, 112560, Note_on_c, 0, 73, 80
2, 112583, Note_on_c, 0, 73, 0
2, 112584, Note_on_c, 0, 75, 80
2, 112607, Note_on_c, 0, 75, 0
2, 112608, Note_on_c, 0, 77, 96
2, 112752, Note_on_c, 0, 77, 0
2, 112752, Note_on_c, 0, 79, 80
2, 112764, Note_on_c, 0, 79, 0
2, 112764, Note_on_c, 0, 77, 80
2, 112776, Note_on_c, 0, 77, 0
2, 112776, Note_on_c, 0, 76, 80
2, 112788, Note_on_c, 0, 76, 0
2, 112788, Note_on_c, 0, 77, 80
2, 112800, Note_on_c, 0, 77, 0
2, 112800, Note_on_c, 0, 82, 80
2, 112867, Note_on_c, 0, 82, 0
2, 112872, Note_on_c, 0, 79, 80
2, 112895, Note_on_c, 0, 79, 0
2, 112896, Note_on_c, 0, 77, 80
2, 112985, Note_on_c, 0, 77, 0
2, 112992, Note_on_c, 0, 76, 80
2, 113006, Note_on_c, 0, 76, 0
2, 113007, Note_on_c, 0, 77, 80
2, 113021, Note_on_c, 0, 77, 0
2, 113022, Note_on_c, 0, 76, 80
2, 113036, Note_on_c, 0, 76, 0
2, 113037, Note_on_c, 0, 77, 80
2, 113051, Note_on_c, 0, 77, 0
2, 113052, Note_on_c, 0, 76, 80
2, 113066, Note_on_c, 0, 76, 0
2, 113067, Note_on_c, 0, 77, 80
2, 113081, Note_on_c, 0, 77, 0
2, 113082, Note_on_c, 0, 76, 80
2, 113096, Note_on_c, 0, 76, 0
2, 113097, Note_on_c, 0, 77, 80
2, 113111, Note_on_c, 0, 77, 0
2, 113112, Note_on_c, 0, 76, 80
2, 113126, Note_on_c, 0, 76, 0
2, 113127, Note_on_c, 0, 77, 80
2, 113141, Note_on_c, 0, 77, 0
2, 113142, Note_on_c, 0, 74, 80
2, 113155, Note_on_c, 0, 74, 0
2, 113156, Note_on_c, 0, 76, 80
2, 113169, Note_on_c, 0, 76, 0
2, 113170, Note_on_c, 0, 76, 80
2, 113183, Note_on_c, 0, 76, 0
2, 113184, Note_on_c, 0, 77, 80
2, 113203, Note_on_c, 0, 77, 0
2, 113208, Note_on_c, 0, 79, 80
2, 113220, Note_on_c, 0, 79, 0
2, 113220, Note_on_c, 0, 77, 80
2, 113232, Note_on_c, 0, 77, 0
2, 113232, Note_on_c, 0, 75, 80
2, 113244, Note_on_c, 0, 75, 0
2, 113244, Note_on_c, 0, 77, 80
2, 113256, Note_on_c, 0, 77, 0
2, 113256, Note_on_c, 0, 79, 80
2, 113279, Note_on_c, 0, 79, 0
2, 113280, Note_on_c, 0, 80, 80
2, 113325, Note_on_c, 0, 80, 0
2, 113352, Note_on_c, 0, 79, 80
2, 113375, Note_on_c, 0, 79, 0
2, 113376, Note_on_c, 0, 77, 80
2, 113421, Note_on_c, 0, 77, 0
2, 113448, Note_on_c, 0, 75, 80
2, 113471, Note_on_c, 0, 75, 0
2, 113472, Note_on_c, 0, 75, 80
2, 113561, Note_on_c, 0, 75, 0
2, 113568, Note_on_c, 0, 74, 80
2, 113581, Note_on_c, 0, 74, 0
2, 113582, Note_on_c, 0, 75, 80
2, 113595, Note_on_c, 0, 75, 0
2, 113596, Note_on_c, 0, 74, 80
2, 113609, Note_on_c, 0, 74, 0
2, 113610, Note_on_c, 0, 75, 80
2, 113623, Note_on_c, 0, 75, 0
2, 113624, Note_on_c, 0, 74, 80
2, 113637, Note_on_c, 0, 74, 0
2, 113638, Note_on_c, 0, 72, 80
2, 113650, Note_on_c, 0, 72, 0
2, 113651, Note_on_c, 0, 74, 80
2, 113663, Note_on_c, 0, 74, 0
2, 113664, Note_on_c, 0, 75, 80
2, 113753, Note_on_c, 0, 75, 0
2, 113760, Note_on_c, 0, 74, 75
2, 113783, Note_on_c, 0, 74, 0
2, 113784, Note_on_c, 0, 72, 75
2, 113807, Note_on_c, 0, 72, 0
2, 113808, Note_on_c, 0, 71, 75
2, 113831, Note_on_c, 0, 71, 0
2, 113832, Note_on_c, 0, 72, 75
2, 113855, Note_on_c, 0, 72, 0
2, 113856, Note_on_c, 0, 71, 75
2, 113879, Note_on_c, 0, 71, 0
2, 113880, Note_on_c, 0, 72, 75
2, 113903, Note_on_c, 0, 72, 0
2, 113904, Note_on_c, 0, 71, 75
2, 113927, Note_on_c, 0, 71, 0
2, 113928, Note_on_c, 0, 72, 75
2, 113951, Note_on_c, 0, 72, 0
2, 113952, Note_on_c, 0, 75, 75
2, 113997, Note_on_c, 0, 75, 0
2, 114000, Note_on_c, 0, 72, 75
2, 114045, Note_on_c, 0, 72, 0
2, 114048, Note_on_c, 0, 70, 75
2, 114071, Note_on_c, 0, 70, 0
2, 114072, Note_on_c, 0, 68, 75
2, 114095, Note_on_c, 0, 68, 0
2, 114096, Note_on_c, 0, 67, 75
2, 114119, Note_on_c, 0, 67, 0
2, 114120, Note_on_c, 0, 68, 75
2, 114143, Note_on_c, 0, 68, 0
2, 114144, Note_on_c, 0, 67, 75
2, 114167, Note_on_c, 0, 67, 0
2, 114168, Note_on_c, 0, 68, 75
2, 114191, Note_on_c, 0, 68, 0
2, 114192, Note_on_c, 0, 67, 75
2, 114215, Note_on_c, 0, 67, 0
2, 114216, Note_on_c, 0, 68, 75
2, 114239, Note_on_c, 0, 68, 0
2, 114240, Note_on_c, 0, 72, 75
2, 114285, Note_on_c, 0, 72, 0
2, 114288, Note_on_c, 0, 68, 75
2, 114333, Note_on_c, 0, 68, 0
2, 114336, Note_on_c, 0, 67, 75
2, 114359, Note_on_c, 0, 67, 0
2, 114360, Note_on_c, 0, 65, 75
2, 114383, Note_on_c, 0, 65, 0
2, 114384, Note_on_c, 0, 64, 75
2, 114407, Note_on_c, 0, 64, 0
2, 114408, Note_on_c, 0, 65, 75
2, 114431, Note_on_c, 0, 65, 0
2, 114432, Note_on_c, 0, 73, 75
2, 114455, Note_on_c, 0, 73, 0
2, 114456, Note_on_c, 0, 72, 75
2, 114479, Note_on_c, 0, 72, 0
2, 114480, Note_on_c, 0, 71, 75
2, 114503, Note_on_c, 0, 71, 0
2, 114504, Note_on_c, 0, 72, 75
2, 114527, Note_on_c, 0, 72, 0
2, 114528, Note_on_c, 0, 79, 75
2, 114551, Note_on_c, 0, 79, 0
2, 114552, Note_on_c, 0, 77, 75
2, 114575, Note_on_c, 0, 77, 0
2, 114576, Note_on_c, 0, 76, 75
2, 114599, Note_on_c, 0, 76, 0
2, 114600, Note_on_c, 0, 77, 75
2, 114623, Note_on_c, 0, 77, 0
2, 114624, Note_on_c, 0, 83, 75
2, 114677, Note_on_c, 0, 83, 0
2, 114684, Note_on_c, 0, 84, 75
2, 114696, Note_on_c, 0, 84, 0
2, 114696, Note_on_c, 0, 83, 75
2, 114708, Note_on_c, 0, 83, 0
2, 114708, Note_on_c, 0, 81, 75
2, 114720, Note_on_c, 0, 81, 0
2, 114720, Note_on_c, 0, 83, 75
2, 114787, Note_on_c, 0, 83, 0
2, 114792, Note_on_c, 0, 86, 75
2, 114815, Note_on_c, 0, 86, 0
2, 114816, Note_on_c, 0, 84, 75
2, 114846, Note_on_c, 0, 84, 0
2, 114848, Note_on_c, 0, 80, 75
2, 114878, Note_on_c, 0, 80, 0
2, 114880, Note_on_c, 0, 77, 75
2, 114910, Note_on_c, 0, 77, 0
2, 114912, Note_on_c, 0, 75, 75
2, 115045, Note_on_c, 0, 75, 0
2, 115056, Note_on_c, 0, 77, 75
2, 115068, Note_on_c, 0, 77, 0
2, 115068, Note_on_c, 0, 75, 75
2, 115080, Note_on_c, 0, 75, 0
2, 115080, Note_on_c, 0, 74, 75
2, 115092, Note_on_c, 0, 74, 0
2, 115092, Note_on_c, 0, 75, 75
2, 115104, Note_on_c, 0, 75, 0
2, 115104, Note_on_c, 0, 79, 75
2, 115171, Note_on_c, 0, 79, 0
2, 115176, Note_on_c, 0, 77, 75
2, 115199, Note_on_c, 0, 77, 0
2, 116064, Note_on_c, 0, 80, 75
2, 116087, Note_on_c, 0, 80, 0
2, 116088, Note_on_c, 0, 82, 75
2, 116111, Note_on_c, 0, 82, 0
2, 116112, Note_on_c, 0, 80, 75
2, 116135, Note_on_c, 0, 80, 0
2, 116136, Note_on_c, 0, 79, 75
2, 116159, Note_on_c, 0, 79, 0
2, 116160, Note_on_c, 0, 77, 75
2, 116183, Note_on_c, 0, 77, 0
2, 116184, Note_on_c, 0, 75, 75
2, 116207, Note_on_c, 0, 75, 0
2, 116208, Note_on_c, 0, 74, 75
2, 116231, Note_on_c, 0, 74, 0
2, 116232, Note_on_c, 0, 72, 75
2, 116255, Note_on_c, 0, 72, 0
2, 116256, Note_on_c, 0, 70, 75
2, 116279, Note_on_c, 0, 70, 0
2, 116280, Note_on_c, 0, 68, 75
2, 116303, Note_on_c, 0, 68, 0
2, 116304, Note_on_c, 0, 67, 75
2, 116327, Note_on_c, 0, 67, 0
2, 116328, Note_on_c, 0, 65, 75
2, 116351, Note_on_c, 0, 65, 0
2, 116352, Note_on_c, 0, 63, 75
2, 116397, Note_on_c, 0, 63, 0
2, 116400, Note_on_c, 0, 79, 74
2, 116400, Note_on_c, 0, 75, 74
2, 116445, Note_on_c, 0, 79, 0
2, 116445, Note_on_c, 0, 75, 0
2, 116496, Note_on_c, 0, 77, 72
2, 116496, Note_on_c, 0, 74, 72
2, 116541, Note_on_c, 0, 77, 0
2, 116541, Note_on_c, 0, 74, 0
2, 116592, Note_on_c, 0, 75, 71
2, 116592, Note_on_c, 0, 72, 71
2, 116637, Note_on_c, 0, 75, 0
2, 116637, Note_on_c, 0, 72, 0
2, 116688, Note_on_c, 0, 73, 69
2, 116688, Note_on_c, 0, 70, 69
2, 116733, Note_on_c, 0, 73, 0
2, 116733, Note_on_c, 0, 70, 0
2, 116784, Note_on_c, 0, 72, 67
2, 116784, Note_on_c, 0, 68, 67
2, 116829, Note_on_c, 0, 72, 0
2, 116829, Note_on_c, 0, 68, 0
2, 116880, Note_on_c, 0, 70, 66
2, 116880, Note_on_c, 0, 67, 66
2, 116925, Note_on_c, 0, 70, 0
2, 116925, Note_on_c, 0, 67, 0
2, 116976, Note_on_c, 0, 68, 64
2, 116976, Note_on_c, 0, 65, 64
2, 117021, Note_on_c, 0, 68, 0
2, 117021, Note_on_c, 0, 65, 0
2, 117360, Note_on_c, 0, 68, 64
2, 117360, Note_on_c, 0, 65, 64
2, 117380, Note_on_c, 0, 68, 0
2, 117380, Note_on_c, 0, 65, 0
2, 117408, Note_on_c, 0, 68, 64
2, 117408, Note_on_c, 0, 65, 64
2, 117428, Note_on_c, 0, 68, 0
2, 117428, Note_on_c, 0, 65, 0
2, 117456, Note_on_c, 0, 68, 64
2, 117456, Note_on_c, 0, 65, 64
2, 117476, Note_on_c, 0, 68, 0
2, 117476, Note_on_c, 0, 65, 0
2, 117504, Note_on_c, 0, 68, 64
2, 117504, Note_on_c, 0, 65, 64
2, 117769, Note_on_c, 0, 68, 0
2, 117769, Note_on_c, 0, 65, 0
2, 117936, Note_on_c, 0, 67, 64
2, 117942, Note_on_c, 0, 67, 0
2, 117942, Note_on_c, 0, 68, 64
2, 117942, Note_on_c, 0, 65, 64
2, 117956, Note_on_c, 0, 68, 0
2, 117956, Note_on_c, 0, 65, 0
2, 117984, Note_on_c, 0, 67, 64
2, 117990, Note_on_c, 0, 67, 0
2, 117990, Note_on_c, 0, 68, 64
2, 117990, Note_on_c, 0, 65, 64
2, 118004, Note_on_c, 0, 68, 0
2, 118004, Note_on_c, 0, 65, 0
2, 118032, Note_on_c, 0, 67, 64
2, 118038, Note_on_c, 0, 67, 0
2, 118038, Note_on_c, 0, 68, 64
2, 118038, Note_on_c, 0, 65, 64
2, 118052, Note_on_c, 0, 68, 0
2, 118052, Note_on_c, 0, 65, 0
2, 118080, Note_on_c, 0, 67, 64
2, 118086, Note_on_c, 0, 67, 0
2, 118086, Note_on_c, 0, 68, 64
2, 118086, Note_on_c, 0, 65, 64
2, 118545, Note_on_c, 0, 68, 0
2, 118545, Note_on_c, 0, 65, 0
2, 118560, Note_on_c, 0, 69, 71
2, 118560, Note_on_c, 0, 66, 71
2, 118560, Note_on_c, 0, 63, 71
2, 118649, Note_on_c, 0, 69, 0
2, 118649, Note_on_c, 0, 66, 0
2, 118649, Note_on_c, 0, 63, 0
2, 118656, Note_on_c, 0, 70, 74
2, 118656, Note_on_c, 0, 67, 74
2, 118656, Note_on_c, 0, 63, 74
2, 118789, Note_on_c, 0, 70, 0
2, 118789, Note_on_c, 0, 67, 0
2, 118789, Note_on_c, 0, 63, 0
2, 118800, Note_on_c, 0, 72, 80
2, 118823, Note_on_c, 0, 72, 0
2, 118824, Note_on_c, 0, 70, 80
2, 118847, Note_on_c, 0, 70, 0
2, 118848, Note_on_c, 0, 68, 80
2, 118871, Note_on_c, 0, 68, 0
2, 118872, Note_on_c, 0, 67, 80
2, 118895, Note_on_c, 0, 67, 0
2, 118896, Note_on_c, 0, 65, 80
2, 118919, Note_on_c, 0, 65, 0
2, 118920, Note_on_c, 0, 63, 80
2, 118943, Note_on_c, 0, 63, 0
2, 118944, Note_on_c, 0, 62, 80
2, 119041, Note_on_c, 0, 62, 0
2, 119052, Note_on_c, 0, 67, 80
2, 119064, Note_on_c, 0, 67, 0
2, 119064, Note_on_c, 0, 65, 80
2, 119076, Note_on_c, 0, 65, 0
2, 119076, Note_on_c, 0, 63, 80
2, 119088, Note_on_c, 0, 63, 0
2, 119088, Note_on_c, 0, 65, 80
2, 119133, Note_on_c, 0, 65, 0
2, 119136, Note_on_c, 0, 68, 80
2, 119181, Note_on_c, 0, 68, 0
2, 119184, Note_on_c, 0, 62, 80
2, 119229, Note_on_c, 0, 62, 0
2, 119232, Note_on_c, 0, 63, 80
2, 119277, Note_on_c, 0, 63, 0
2, 119280, Note_on_c, 0, 58, 64
2, 119325, Note_on_c, 0, 58, 0
2, 119328, Note_on_c, 0, 59, 64
2, 119373, Note_on_c, 0, 59, 0
2, 119376, Note_on_c, 0, 60, 64
2, 119421, Note_on_c, 0, 60, 0
2, 119424, Note_on_c, 0, 61, 64
2, 119469, Note_on_c, 0, 61, 0
2, 119472, Note_on_c, 0, 62, 64
2, 119517, Note_on_c, 0, 62, 0
2, 119520, Note_on_c, 0, 63, 64
2, 119565, Note_on_c, 0, 63, 0
2, 119568, Note_on_c, 0, 64, 64
2, 119613, Note_on_c, 0, 64, 0
2, 119616, Note_on_c, 0, 65, 64
2, 119661, Note_on_c, 0, 65, 0
2, 119664, Note_on_c, 0, 67, 64
2, 119709, Note_on_c, 0, 67, 0
2, 119712, Note_on_c, 0, 68, 64
2, 119757, Note_on_c, 0, 68, 0
2, 119760, Note_on_c, 0, 62, 64
2, 119805, Note_on_c, 0, 62, 0
2, 119808, Note_on_c, 0, 63, 64
2, 119828, Note_on_c, 0, 63, 0
2, 119856, Note_on_c, 0, 70, 80
2, 119856, Note_on_c, 0, 67, 80
2, 119901, Note_on_c, 0, 70, 0
2, 119901, Note_on_c, 0, 67, 0
2, 119904, Note_on_c, 0, 72, 80
2, 119904, Note_on_c, 0, 68, 80
2, 119949, Note_on_c, 0, 72, 0
2, 119949, Note_on_c, 0, 68, 0
2, 119952, Note_on_c, 0, 70, 80
2, 119952, Note_on_c, 0, 67, 80
2, 119997, Note_on_c, 0, 70, 0
2, 119997, Note_on_c, 0, 67, 0
2, 120000, Note_on_c, 0, 68, 80
2, 120000, Note_on_c, 0, 65, 80
2, 120045, Note_on_c, 0, 68, 0
2, 120045, Note_on_c, 0, 65, 0
2, 120048, Note_on_c, 0, 67, 80
2, 120048, Note_on_c, 0, 63, 80
2, 120093, Note_on_c, 0, 67, 0
2, 120093, Note_on_c, 0, 63, 0
2, 120096, Note_on_c, 0, 65, 80
2, 120096, Note_on_c, 0, 62, 80
2, 120185, Note_on_c, 0, 65, 0
2, 120185, Note_on_c, 0, 62, 0
2, 120288, Note_on_c, 0, 74, 80
2, 120288, Note_on_c, 0, 68, 80
2, 120288, Note_on_c, 0, 65, 80
2, 120377, Note_on_c, 0, 74, 0
2, 120377, Note_on_c, 0, 68, 0
2, 120377, Note_on_c, 0, 65, 0
2, 120384, Note_on_c, 0, 75, 80
2, 120384, Note_on_c, 0, 70, 80
2, 120384, Note_on_c, 0, 67, 80
2, 120404, Note_on_c, 0, 75, 0
2, 120404, Note_on_c, 0, 70, 0
2, 120404, Note_on_c, 0, 67, 0
2, 120432, Note_on_c, 0, 82, 64
2, 120432, Note_on_c, 0, 79, 64
2, 120477, Note_on_c, 0, 82, 0
2, 120477, Note_on_c, 0, 79, 0
2, 120480, Note_on_c, 0, 84, 64
2, 120480, Note_on_c, 0, 80, 64
2, 120525, Note_on_c, 0, 84, 0
2, 120525, Note_on_c, 0, 80, 0
2, 120528, Note_on_c, 0, 82, 64
2, 120528, Note_on_c, 0, 79, 64
2, 120573, Note_on_c, 0, 82, 0
2, 120573, Note_on_c, 0, 79, 0
2, 120576, Note_on_c, 0, 80, 64
2, 120576, Note_on_c, 0, 77, 64
2, 120621, Note_on_c, 0, 80, 0
2, 120621, Note_on_c, 0, 77, 0
2, 120624, Note_on_c, 0, 79, 64
2, 120624, Note_on_c, 0, 75, 64
2, 120669, Note_on_c, 0, 79, 0
2, 120669, Note_on_c, 0, 75, 0
2, 120672, Note_on_c, 0, 77, 64
2, 120672, Note_on_c, 0, 74, 64
2, 120864, Note_on_c, 0, 77, 0
2, 120864, Note_on_c, 0, 74, 0
2, 120864, Note_on_c, 0, 79, 64
2, 120864, Note_on_c, 0, 75, 64
2, 120953, Note_on_c, 0, 79, 0
2, 120953, Note_on_c, 0, 75, 0
2, 120960, Note_on_c, 0, 80, 64
2, 120960, Note_on_c, 0, 77, 64
2, 121049, Note_on_c, 0, 80, 0
2, 121049, Note_on_c, 0, 77, 0
2, 121056, Note_on_c, 0, 75, 64
2, 121056, Note_on_c, 0, 72, 64
2, 121145, Note_on_c, 0, 75, 0
2, 121145, Note_on_c, 0, 72, 0
2, 121152, Note_on_c, 0, 77, 64
2, 121152, Note_on_c, 0, 74, 64
2, 121241, Note_on_c, 0, 77, 0
2, 121241, Note_on_c, 0, 74, 0
2, 121248, Note_on_c, 0, 79, 64
2, 121248, Note_on_c, 0, 75, 64
2, 121296, Note_on_c, 0, 79, 0
2, 121296, Note_on_c, 0, 75, 0
2, 121296, Note_on_c, 0, 77, 64
2, 121296, Note_on_c, 0, 74, 64
2, 121341, Note_on_c, 0, 77, 0
2, 121341, Note_on_c, 0, 74, 0
2, 121344, Note_on_c, 0, 80, 64
2, 121344, Note_on_c, 0, 75, 64
2, 121389, Note_on_c, 0, 80, 0
2, 121389, Note_on_c, 0, 75, 0
2, 121392, Note_on_c, 0, 79, 64
2, 121392, Note_on_c, 0, 74, 64
2, 121437, Note_on_c, 0, 79, 0
2, 121437, Note_on_c, 0, 74, 0
2, 121440, Note_on_c, 0, 77, 64
2, 121440, Note_on_c, 0, 72, 64
2, 121485, Note_on_c, 0, 77, 0
2, 121485, Note_on_c, 0, 72, 0
2, 121488, Note_on_c, 0, 75, 64
2, 121488, Note_on_c, 0, 70, 64
2, 121533, Note_on_c, 0, 75, 0
2, 121533, Note_on_c, 0, 70, 0
2, 121536, Note_on_c, 0, 74, 64
2, 121536, Note_on_c, 0, 68, 64
2, 121581, Note_on_c, 0, 74, 0
2, 121581, Note_on_c, 0, 68, 0
2, 121584, Note_on_c, 0, 72, 64
2, 121584, Note_on_c, 0, 67, 64
2, 121629, Note_on_c, 0, 72, 0
2, 121629, Note_on_c, 0, 67, 0
2, 121632, Note_on_c, 0, 70, 64
2, 121632, Note_on_c, 0, 65, 64
2, 121721, Note_on_c, 0, 70, 0
2, 121721, Note_on_c, 0, 65, 0
2, 121728, Note_on_c, 0, 69, 64
2, 121728, Note_on_c, 0, 63, 64
2, 121817, Note_on_c, 0, 69, 0
2, 121817, Note_on_c, 0, 63, 0
2, 121824, Note_on_c, 0, 68, 64
2, 121824, Note_on_c, 0, 62, 64
2, 122001, Note_on_c, 0, 68, 0
2, 122001, Note_on_c, 0, 62, 0
2, 122160, Note_on_c, 0, 63, 64
2, 122205, Note_on_c, 0, 63, 0
2, 122208, Note_on_c, 0, 67, 64
2, 122253, Note_on_c, 0, 67, 0
2, 122256, Note_on_c, 0, 63, 64
2, 122301, Note_on_c, 0, 63, 0
2, 122304, Note_on_c, 0, 68, 64
2, 122349, Note_on_c, 0, 68, 0
2, 122352, Note_on_c, 0, 58, 64
2, 122397, Note_on_c, 0, 58, 0
2, 122448, Note_on_c, 0, 70, 64
2, 122493, Note_on_c, 0, 70, 0
2, 122496, Note_on_c, 0, 74, 64
2, 122541, Note_on_c, 0, 74, 0
2, 122544, Note_on_c, 0, 70, 64
2, 122589, Note_on_c, 0, 70, 0
2, 122592, Note_on_c, 0, 75, 64
2, 122637, Note_on_c, 0, 75, 0
2, 122640, Note_on_c, 0, 63, 64
2, 122685, Note_on_c, 0, 63, 0
2, 122736, Note_on_c, 0, 75, 64
2, 122781, Note_on_c, 0, 75, 0
2, 122784, Note_on_c, 0, 79, 64
2, 122829, Note_on_c, 0, 79, 0
2, 122832, Note_on_c, 0, 75, 64
2, 122877, Note_on_c, 0, 75, 0
2, 122880, Note_on_c, 0, 80, 64
2, 122925, Note_on_c, 0, 80, 0
2, 122928, Note_on_c, 0, 68, 64
2, 122973, Note_on_c, 0, 68, 0
2, 122976, Note_on_c, 0, 81, 64
2, 123021, Note_on_c, 0, 81, 0
2, 123024, Note_on_c, 0, 69, 66
2, 123069, Note_on_c, 0, 69, 0
2, 123072, Note_on_c, 0, 82, 68
2, 123117, Note_on_c, 0, 82, 0
2, 123120, Note_on_c, 0, 70, 70
2, 123165, Note_on_c, 0, 70, 0
2, 123168, Note_on_c, 0, 83, 73
2, 123213, Note_on_c, 0, 83, 0
2, 123216, Note_on_c, 0, 71, 75
2, 123261, Note_on_c, 0, 71, 0
2, 123264, Note_on_c, 0, 84, 77
2, 123309, Note_on_c, 0, 84, 0
2, 123312, Note_on_c, 0, 72, 80
2, 123357, Note_on_c, 0, 72, 0
2, 123360, Note_on_c, 0, 86, 80
2, 123405, Note_on_c, 0, 86, 0
2, 123408, Note_on_c, 0, 74, 80
2, 123453, Note_on_c, 0, 74, 0
2, 123456, Note_on_c, 0, 87, 80
2, 123501, Note_on_c, 0, 87, 0
2, 123504, Note_on_c, 0, 75, 80
2, 123549, Note_on_c, 0, 75, 0
2, 123792, Note_on_c, 0, 60, 64
2, 123812, Note_on_c, 0, 60, 0
2, 123840, Note_on_c, 0, 72, 64
2, 124077, Note_on_c, 0, 72, 0
2, 124080, Note_on_c, 0, 62, 64
2, 124100, Note_on_c, 0, 62, 0
2, 124128, Note_on_c, 0, 63, 64
2, 124173, Note_on_c, 0, 63, 0
2, 124176, Note_on_c, 0, 70, 64
2, 124176, Note_on_c, 0, 67, 64
2, 124221, Note_on_c, 0, 70, 0
2, 124221, Note_on_c, 0, 67, 0
2, 124224, Note_on_c, 0, 72, 64
2, 124224, Note_on_c, 0, 68, 64
2, 124269, Note_on_c, 0, 72, 0
2, 124269, Note_on_c, 0, 68, 0
2, 124272, Note_on_c, 0, 70, 64
2, 124272, Note_on_c, 0, 67, 64
2, 124317, Note_on_c, 0, 70, 0
2, 124317, Note_on_c, 0, 67, 0
2, 124320, Note_on_c, 0, 68, 64
2, 124320, Note_on_c, 0, 65, 64
2, 124365, Note_on_c, 0, 68, 0
2, 124365, Note_on_c, 0, 65, 0
2, 124368, Note_on_c, 0, 67, 64
2, 124368, Note_on_c, 0, 63, 64
2, 124413, Note_on_c, 0, 67, 0
2, 124413, Note_on_c, 0, 63, 0
2, 124416, Note_on_c, 0, 65, 64
2, 124416, Note_on_c, 0, 62, 64
2, 124505, Note_on_c, 0, 65, 0
2, 124505, Note_on_c, 0, 62, 0
2, 124752, Note_on_c, 0, 58, 64
2, 124752, Note_on_c, 0, 55, 64
2, 124797, Note_on_c, 0, 58, 0
2, 124797, Note_on_c, 0, 55, 0
2, 124800, Note_on_c, 0, 60, 64
2, 124800, Note_on_c, 0, 56, 64
2, 124845, Note_on_c, 0, 60, 0
2, 124845, Note_on_c, 0, 56, 0
2, 124848, Note_on_c, 0, 58, 64
2, 124848, Note_on_c, 0, 55, 64
2, 124893, Note_on_c, 0, 58, 0
2, 124893, Note_on_c, 0, 55, 0
2, 124896, Note_on_c, 0, 56, 64
2, 124896, Note_on_c, 0, 53, 64
2, 124941, Note_on_c, 0, 56, 0
2, 124941, Note_on_c, 0, 53, 0
2, 124944, Note_on_c, 0, 55, 64
2, 124944, Note_on_c, 0, 51, 64
2, 124989, Note_on_c, 0, 55, 0
2, 124989, Note_on_c, 0, 51, 0
2, 124992, Note_on_c, 0, 53, 64
2, 124992, Note_on_c, 0, 50, 64
2, 125081, Note_on_c, 0, 53, 0
2, 125081, Note_on_c, 0, 50, 0
2, 125328, Note_on_c, 0, 51, 64
2, 125373, Note_on_c, 0, 51, 0
2, 125376, Note_on_c, 0, 52, 64
2, 125421, Note_on_c, 0, 52, 0
2, 125424, Note_on_c, 0, 53, 64
2, 125469, Note_on_c, 0, 53, 0
2, 125472, Note_on_c, 0, 54, 64
2, 125517, Note_on_c, 0, 54, 0
2, 125520, Note_on_c, 0, 55, 64
2, 125565, Note_on_c, 0, 55, 0
2, 125568, Note_on_c, 0, 56, 64
2, 125805, Note_on_c, 0, 56, 0
2, 125808, Note_on_c, 0, 55, 64
2, 125828, Note_on_c, 0, 55, 0
2, 125856, Note_on_c, 0, 60, 64
2, 126093, Note_on_c, 0, 60, 0
2, 126096, Note_on_c, 0, 58, 64
2, 126116, Note_on_c, 0, 58, 0
2, 126144, Note_on_c, 0, 68, 80
2, 126144, Note_on_c, 0, 65, 80
2, 126144, Note_on_c, 0, 58, 80
2, 126336, Note_on_c, 0, 58, 0
2, 126381, Note_on_c, 0, 68, 0
2, 126381, Note_on_c, 0, 65, 0
2, 126384, Note_on_c, 0, 67, 64
2, 126384, Note_on_c, 0, 63, 64
2, 126429, Note_on_c, 0, 67, 0
2, 126429, Note_on_c, 0, 63, 0
2, 126480, Note_on_c, 0, 65, 64
2, 126480, Note_on_c, 0, 60, 64
2, 126525, Note_on_c, 0, 65, 0
2, 126525, Note_on_c, 0, 60, 0
2, 126576, Note_on_c, 0, 63, 64
2, 126576, Note_on_c, 0, 58, 64
2, 126621, Note_on_c, 0, 63, 0
2, 126621, Note_on_c, 0, 58, 0
2, 126672, Note_on_c, 0, 62, 64
2, 126672, Note_on_c, 0, 56, 64
2, 126717, Note_on_c, 0, 62, 0
2, 126717, Note_on_c, 0, 56, 0
2, 126720, Note_on_c, 0, 68, 80
2, 126720, Note_on_c, 0, 65, 80
2, 126720, Note_on_c, 0, 58, 80
2, 126912, Note_on_c, 0, 58, 0
2, 126957, Note_on_c, 0, 68, 0
2, 126957, Note_on_c, 0, 65, 0
2, 126960, Note_on_c, 0, 67, 64
2, 126960, Note_on_c, 0, 63, 64
2, 127005, Note_on_c, 0, 67, 0
2, 127005, Note_on_c, 0, 63, 0
2, 127056, Note_on_c, 0, 65, 64
2, 127056, Note_on_c, 0, 60, 64
2, 127101, Note_on_c, 0, 65, 0
2, 127101, Note_on_c, 0, 60, 0
2, 127152, Note_on_c, 0, 63, 64
2, 127152, Note_on_c, 0, 58, 64
2, 127197, Note_on_c, 0, 63, 0
2, 127197, Note_on_c, 0, 58, 0
2, 127248, Note_on_c, 0, 62, 64
2, 127248, Note_on_c, 0, 56, 64
2, 127293, Note_on_c, 0, 62, 0
2, 127293, Note_on_c, 0, 56, 0
2, 127344, Note_on_c, 0, 70, 64
2, 127344, Note_on_c, 0, 67, 64
2, 127389, Note_on_c, 0, 70, 0
2, 127389, Note_on_c, 0, 67, 0
2, 127392, Note_on_c, 0, 72, 64
2, 127392, Note_on_c, 0, 68, 64
2, 127437, Note_on_c, 0, 72, 0
2, 127437, Note_on_c, 0, 68, 0
2, 127440, Note_on_c, 0, 70, 64
2, 127440, Note_on_c, 0, 67, 64
2, 127485, Note_on_c, 0, 70, 0
2, 127485, Note_on_c, 0, 67, 0
2, 127488, Note_on_c, 0, 68, 64
2, 127488, Note_on_c, 0, 65, 64
2, 127533, Note_on_c, 0, 68, 0
2, 127533, Note_on_c, 0, 65, 0
2, 127536, Note_on_c, 0, 67, 64
2, 127536, Note_on_c, 0, 63, 64
2, 127581, Note_on_c, 0, 67, 0
2, 127581, Note_on_c, 0, 63, 0
2, 127632, Note_on_c, 0, 82, 64
2, 127677, Note_on_c, 0, 82, 0
2, 127680, Note_on_c, 0, 83, 64
2, 127725, Note_on_c, 0, 83, 0
2, 127728, Note_on_c, 0, 84, 64
2, 127773, Note_on_c, 0, 84, 0
2, 127776, Note_on_c, 0, 85, 64
2, 127821, Note_on_c, 0, 85, 0
2, 127824, Note_on_c, 0, 86, 64
2, 127869, Note_on_c, 0, 86, 0
2, 127872, Note_on_c, 0, 87, 64
2, 127917, Note_on_c, 0, 87, 0
2, 127920, Note_on_c, 0, 70, 64
2, 127920, Note_on_c, 0, 67, 64
2, 127965, Note_on_c, 0, 70, 0
2, 127965, Note_on_c, 0, 67, 0
2, 127968, Note_on_c, 0, 72, 64
2, 127968, Note_on_c, 0, 68, 64
2, 128013, Note_on_c, 0, 72, 0
2, 128013, Note_on_c, 0, 68, 0
2, 128016, Note_on_c, 0, 70, 64
2, 128016, Note_on_c, 0, 67, 64
2, 128061, Note_on_c, 0, 70, 0
2, 128061, Note_on_c, 0, 67, 0
2, 128064, Note_on_c, 0, 68, 64
2, 128064, Note_on_c, 0, 65, 64
2, 128109, Note_on_c, 0, 68, 0
2, 128109, Note_on_c, 0, 65, 0
2, 128112, Note_on_c, 0, 67, 64
2, 128112, Note_on_c, 0, 63, 64
2, 128157, Note_on_c, 0, 67, 0
2, 128157, Note_on_c, 0, 63, 0
2, 128160, Note_on_c, 0, 58, 80
2, 128279, Note_on_c, 0, 58, 0
2, 128280, Note_on_c, 0, 60, 80
2, 128303, Note_on_c, 0, 60, 0
2, 128304, Note_on_c, 0, 62, 80
2, 128327, Note_on_c, 0, 62, 0
2, 128328, Note_on_c, 0, 63, 80
2, 128351, Note_on_c, 0, 63, 0
2, 128352, Note_on_c, 0, 65, 80
2, 128364, Note_on_c, 0, 65, 0
2, 128364, Note_on_c, 0, 67, 80
2, 128376, Note_on_c, 0, 67, 0
2, 128376, Note_on_c, 0, 68, 80
2, 128388, Note_on_c, 0, 68, 0
2, 128388, Note_on_c, 0, 70, 80
2, 128400, Note_on_c, 0, 70, 0
2, 128400, Note_on_c, 0, 72, 80
2, 128412, Note_on_c, 0, 72, 0
2, 128412, Note_on_c, 0, 74, 80
2, 128424, Note_on_c, 0, 74, 0
2, 128424, Note_on_c, 0, 75, 80
2, 128436, Note_on_c, 0, 75, 0
2, 128436, Note_on_c, 0, 77, 80
2, 128448, Note_on_c, 0, 77, 0
2, 128448, Note_on_c, 0, 79, 80
2, 128537, Note_on_c, 0, 79, 0
2, 128736, End_track
3, 0, Start_track
3, 0, Program_c, 0, 0
3, 0, Control_c, 0, 7, 127
3, 0, Control_c, 0, 10, 64
3, 4320, Note_on_c, 0, 67, 64
3, 4497, Note_on_c, 0, 67, 0
3, 4512, Note_on_c, 0, 65, 64
3, 4606, Note_on_c, 0, 65, 0
3, 4608, Note_on_c, 0, 77, 64
3, 4845, Note_on_c, 0, 77, 0
3, 4848, Note_on_c, 0, 79, 64
3, 4893, Note_on_c, 0, 79, 0
3, 5904, Note_on_c, 0, 72, 76
3, 6181, Note_on_c, 0, 72, 0
3, 6192, Note_on_c, 0, 72, 76
3, 6469, Note_on_c, 0, 72, 0
3, 12000, Note_on_c, 0, 69, 64
3, 12089, Note_on_c, 0, 69, 0
3, 22752, Note_on_c, 0, 67, 64
3, 22929, Note_on_c, 0, 67, 0
3, 22944, Note_on_c, 0, 65, 64
3, 23038, Note_on_c, 0, 65, 0
3, 23040, Note_on_c, 0, 77, 64
3, 23277, Note_on_c, 0, 77, 0
3, 23280, Note_on_c, 0, 79, 64
3, 23325, Note_on_c, 0, 79, 0
3, 24336, Note_on_c, 0, 72, 76
3, 24613, Note_on_c, 0, 72, 0
3, 24624, Note_on_c, 0, 72, 76
3, 24901, Note_on_c, 0, 72, 0
3, 30432, Note_on_c, 0, 69, 64
3, 30521, Note_on_c, 0, 69, 0
3, 37440, Note_on_c, 0, 58, 70
3, 37529, Note_on_c, 0, 58, 0
3, 37536, Note_on_c, 0, 62, 70
3, 37625, Note_on_c, 0, 62, 0
3, 37632, Note_on_c, 0, 63, 70
3, 37721, Note_on_c, 0, 63, 0
3, 37728, Note_on_c, 0, 62, 70
3, 37817, Note_on_c, 0, 62, 0
3, 37824, Note_on_c, 0, 63, 70
3, 37913, Note_on_c, 0, 63, 0
3, 37920, Note_on_c, 0, 67, 70
3, 38009, Note_on_c, 0, 67, 0
3, 38016, Note_on_c, 0, 68, 70
3, 38149, Note_on_c, 0, 68, 0
3, 38160, Note_on_c, 0, 72, 70
3, 38205, Note_on_c, 0, 72, 0
3, 38208, Note_on_c, 0, 70, 70
3, 38253, Note_on_c, 0, 70, 0
3, 38256, Note_on_c, 0, 68, 70
3, 38301, Note_on_c, 0, 68, 0
3, 38304, Note_on_c, 0, 67, 70
3, 38437, Note_on_c, 0, 67, 0
3, 38448, Note_on_c, 0, 70, 70
3, 38493, Note_on_c, 0, 70, 0
3, 38496, Note_on_c, 0, 68, 70
3, 38541, Note_on_c, 0, 68, 0
3, 38544, Note_on_c, 0, 67, 70
3, 38589, Note_on_c, 0, 67, 0
3, 38592, Note_on_c, 0, 65, 70
3, 38725, Note_on_c, 0, 65, 0
3, 38736, Note_on_c, 0, 68, 70
3, 38781, Note_on_c, 0, 68, 0
3, 38784, Note_on_c, 0, 67, 70
3, 38829, Note_on_c, 0, 67, 0
3, 38832, Note_on_c, 0, 65, 70
3, 38877, Note_on_c, 0, 65, 0
3, 38880, Note_on_c, 0, 64, 70
3, 38969, Note_on_c, 0, 64, 0
3, 38976, Note_on_c, 0, 65, 70
3, 39065, Note_on_c, 0, 65, 0
3, 39072, Note_on_c, 0, 68, 70
3, 39161, Note_on_c, 0, 68, 0
3, 39168, Note_on_c, 0, 70, 70
3, 39433, Note_on_c, 0, 70, 0
3, 39456, Note_on_c, 0, 72, 70
3, 39721, Note_on_c, 0, 72, 0
3, 39744, Note_on_c, 0, 71, 70
3, 39789, Note_on_c, 0, 71, 0
3, 39792, Note_on_c, 0, 72, 70
3, 39837, Note_on_c, 0, 72, 0
3, 39840, Note_on_c, 0, 74, 70
3, 40121, Note_on_c, 0, 74, 0
3, 40128, Note_on_c, 0, 72, 70
3, 40305, Note_on_c, 0, 72, 0
3, 40320, Note_on_c, 0, 72, 70
3, 40365, Note_on_c, 0, 72, 0
3, 40368, Note_on_c, 0, 69, 70
3, 40413, Note_on_c, 0, 69, 0
3, 40416, Note_on_c, 0, 71, 70
3, 40461, Note_on_c, 0, 71, 0
3, 40464, Note_on_c, 0, 68, 70
3, 40509, Note_on_c, 0, 68, 0
3, 40512, Note_on_c, 0, 67, 70
3, 40557, Note_on_c, 0, 67, 0
3, 40560, Note_on_c, 0, 65, 70
3, 40605, Note_on_c, 0, 65, 0
3, 40608, Note_on_c, 0, 67, 70
3, 40697, Note_on_c, 0, 67, 0
3, 52320, Note_on_c, 0, 71, 82
3, 52320, Note_on_c, 0, 68, 82
3, 52505, Note_on_c, 0, 71, 0
3, 52505, Note_on_c, 0, 68, 0
3, 52512, Note_on_c, 0, 70, 70
3, 52512, Note_on_c, 0, 67, 70
3, 52601, Note_on_c, 0, 70, 0
3, 52601, Note_on_c, 0, 67, 0
3, 52608, Note_on_c, 0, 69, 82
3, 52697, Note_on_c, 0, 69, 0
3, 52704, Note_on_c, 0, 70, 70
3, 52881, Note_on_c, 0, 70, 0
3, 52896, Note_on_c, 0, 73, 82
3, 52896, Note_on_c, 0, 70, 82
3, 53081, Note_on_c, 0, 73, 0
3, 53081, Note_on_c, 0, 70, 0
3, 53088, Note_on_c, 0, 72, 70
3, 53088, Note_on_c, 0, 68, 70
3, 53177, Note_on_c, 0, 72, 0
3, 53177, Note_on_c, 0, 68, 0
3, 53184, Note_on_c, 0, 71, 70
3, 53273, Note_on_c, 0, 71, 0
3, 53280, Note_on_c, 0, 72, 70
3, 53457, Note_on_c, 0, 72, 0
3, 53472, Note_on_c, 0, 75, 82
3, 53472, Note_on_c, 0, 72, 82
3, 53657, Note_on_c, 0, 75, 0
3, 53657, Note_on_c, 0, 72, 0
3, 53664, Note_on_c, 0, 74, 70
3, 53664, Note_on_c, 0, 71, 70
3, 53709, Note_on_c, 0, 74, 0
3, 53709, Note_on_c, 0, 71, 0
3, 53712, Note_on_c, 0, 74, 80
3, 53712, Note_on_c, 0, 71, 80
3, 53732, Note_on_c, 0, 74, 0
3, 53732, Note_on_c, 0, 71, 0
3, 53760, Note_on_c, 0, 74, 80
3, 53760, Note_on_c, 0, 71, 80
3, 53780, Note_on_c, 0, 74, 0
3, 53780, Note_on_c, 0, 71, 0
3, 53808, Note_on_c, 0, 74, 80
3, 53808, Note_on_c, 0, 71, 80
3, 53828, Note_on_c, 0, 74, 0
3, 53828, Note_on_c, 0, 71, 0
3, 61920, Note_on_c, 0, 67, 80
3, 62097, Note_on_c, 0, 67, 0
3, 62112, Note_on_c, 0, 65, 80
3, 62206, Note_on_c, 0, 65, 0
3, 62208, Note_on_c, 0, 77, 80
3, 62445, Note_on_c, 0, 77, 0
3, 62448, Note_on_c, 0, 79, 80
3, 62493, Note_on_c, 0, 79, 0
3, 69312, Note_on_c, 0, 74, 80
3, 69401, Note_on_c, 0, 74, 0
3, 69408, Note_on_c, 0, 75, 80
3, 69497, Note_on_c, 0, 75, 0
3, 69552, Note_on_c, 0, 70, 80
3, 69597, Note_on_c, 0, 70, 0
3, 69600, Note_on_c, 0, 75, 80
3, 69645, Note_on_c, 0, 75, 0
3, 69648, Note_on_c, 0, 79, 80
3, 69693, Note_on_c, 0, 79, 0
3, 69696, Note_on_c, 0, 74, 80
3, 69708, Note_on_c, 0, 74, 0
3, 69708, Note_on_c, 0, 77, 80
3, 69720, Note_on_c, 0, 77, 0
3, 69720, Note_on_c, 0, 80, 96
3, 69840, Note_on_c, 0, 80, 0
3, 69840, Note_on_c, 0, 77, 80
3, 69863, Note_on_c, 0, 77, 0
3, 69864, Note_on_c, 0, 74, 80
3, 69887, Note_on_c, 0, 74, 0
3, 69888, Note_on_c, 0, 70, 80
3, 69933, Note_on_c, 0, 70, 0
3, 69936, Note_on_c, 0, 68, 80
3, 69981, Note_on_c, 0, 68, 0
3, 69984, Note_on_c, 0, 67, 80
3, 70073, Note_on_c, 0, 67, 0
3, 70104, Note_on_c, 0, 70, 80
3, 70127, Note_on_c, 0, 70, 0
3, 70128, Note_on_c, 0, 75, 80
3, 70151, Note_on_c, 0, 75, 0
3, 70152, Note_on_c, 0, 79, 80
3, 70175, Note_on_c, 0, 79, 0
3, 70176, Note_on_c, 0, 82, 80
3, 70221, Note_on_c, 0, 82, 0
3, 70224, Note_on_c, 0, 82, 80
3, 70269, Note_on_c, 0, 82, 0
3, 83232, Note_on_c, 0, 58, 70
3, 83321, Note_on_c, 0, 58, 0
3, 83328, Note_on_c, 0, 62, 70
3, 83417, Note_on_c, 0, 62, 0
3, 83424, Note_on_c, 0, 63, 70
3, 83513, Note_on_c, 0, 63, 0
3, 83520, Note_on_c, 0, 62, 70
3, 83609, Note_on_c, 0, 62, 0
3, 83616, Note_on_c, 0, 63, 70
3, 83705, Note_on_c, 0, 63, 0
3, 83712, Note_on_c, 0, 67, 70
3, 83801, Note_on_c, 0, 67, 0
3, 83808, Note_on_c, 0, 68, 70
3, 83941, Note_on_c, 0, 68, 0
3, 83952, Note_on_c, 0, 72, 70
3, 83997, Note_on_c, 0, 72, 0
3, 84000, Note_on_c, 0, 70, 70
3, 84045, Note_on_c, 0, 70, 0
3, 84048, Note_on_c, 0, 68, 70
3, 84093, Note_on_c, 0, 68, 0
3, 84096, Note_on_c, 0, 67, 70
3, 84229, Note_on_c, 0, 67, 0
3, 84240, Note_on_c, 0, 70, 70
3, 84285, Note_on_c, 0, 70, 0
3, 84288, Note_on_c, 0, 68, 70
3, 84333, Note_on_c, 0, 68, 0
3, 84336, Note_on_c, 0, 67, 70
3, 84381, Note_on_c, 0, 67, 0
3, 84384, Note_on_c, 0, 65, 70
3, 84517, Note_on_c, 0, 65, 0
3, 84528, Note_on_c, 0, 68, 70
3, 84573, Note_on_c, 0, 68, 0
3, 84576, Note_on_c, 0, 67, 70
3, 84621, Note_on_c, 0, 67, 0
3, 84624, Note_on_c, 0, 65, 70
3, 84669, Note_on_c, 0, 65, 0
3, 84672, Note_on_c, 0, 64, 70
3, 84761, Note_on_c, 0, 64, 0
3, 84768, Note_on_c, 0, 65, 70
3, 84857, Note_on_c, 0, 65, 0
3, 84864, Note_on_c, 0, 68, 70
3, 84953, Note_on_c, 0, 68, 0
3, 84960, Note_on_c, 0, 70, 70
3, 85225, Note_on_c, 0, 70, 0
3, 85248, Note_on_c, 0, 72, 70
3, 85513, Note_on_c, 0, 72, 0
3, 85536, Note_on_c, 0, 71, 70
3, 85581, Note_on_c, 0, 71, 0
3, 85584, Note_on_c, 0, 72, 70
3, 85629, Note_on_c, 0, 72, 0
3, 85632, Note_on_c, 0, 74, 70
3, 85913, Note_on_c, 0, 74, 0
3, 85920, Note_on_c, 0, 72, 70
3, 86097, Note_on_c, 0, 72, 0
3, 86112, Note_on_c, 0, 72, 70
3, 86157, Note_on_c, 0, 72, 0
3, 86160, Note_on_c, 0, 69, 70
3, 86205, Note_on_c, 0, 69, 0
3, 86208, Note_on_c, 0, 71, 70
3, 86253, Note_on_c, 0, 71, 0
3, 86256, Note_on_c, 0, 68, 70
3, 86301, Note_on_c, 0, 68, 0
3, 86304, Note_on_c, 0, 67, 70
3, 86349, Note_on_c, 0, 67, 0
3, 86352, Note_on_c, 0, 65, 70
3, 86397, Note_on_c, 0, 65, 0
3, 86400, Note_on_c, 0, 67, 70
3, 86489, Note_on_c, 0, 67, 0
3, 98112, Note_on_c, 0, 71, 82
3, 98112, Note_on_c, 0, 68, 82
3, 98297, Note_on_c, 0, 71, 0
3, 98297, Note_on_c, 0, 68, 0
3, 98304, Note_on_c, 0, 70, 70
3, 98304, Note_on_c, 0, 67, 70
3, 98393, Note_on_c, 0, 70, 0
3, 98393, Note_on_c, 0, 67, 0
3, 98400, Note_on_c, 0, 69, 82
3, 98489, Note_on_c, 0, 69, 0
3, 98496, Note_on_c, 0, 70, 70
3, 98673, Note_on_c, 0, 70, 0
3, 98688, Note_on_c, 0, 73, 82
3, 98688, Note_on_c, 0, 70, 82
3, 98873, Note_on_c, 0, 73, 0
3, 98873, Note_on_c, 0, 70, 0
3, 98880, Note_on_c, 0, 72, 70
3, 98880, Note_on_c, 0, 68, 70
3, 98969, Note_on_c, 0, 72, 0
3, 98969, Note_on_c, 0, 68, 0
3, 98976, Note_on_c, 0, 71, 70
3, 99065, Note_on_c, 0, 71, 0
3, 99072, Note_on_c, 0, 72, 70
3, 99249, Note_on_c, 0, 72, 0
3, 99264, Note_on_c, 0, 75, 82
3, 99264, Note_on_c, 0, 72, 82
3, 99449, Note_on_c, 0, 75, 0
3, 99449, Note_on_c, 0, 72, 0
3, 99456, Note_on_c, 0, 74, 70
3, 99456, Note_on_c, 0, 71, 70
3, 99501, Note_on_c, 0, 74, 0
3, 99501, Note_on_c, 0, 71, 0
3, 99504, Note_on_c, 0, 74, 80
3, 99504, Note_on_c, 0, 71, 80
3, 99524, Note_on_c, 0, 74, 0
3, 99524, Note_on_c, 0, 71, 0
3, 99552, Note_on_c, 0, 74, 80
3, 99552, Note_on_c, 0, 71, 80
3, 99572, Note_on_c, 0, 74, 0
3, 99572, Note_on_c, 0, 71, 0
3, 99600, Note_on_c, 0, 74, 80
3, 99600, Note_on_c, 0, 71, 80
3, 99620, Note_on_c, 0, 74, 0
3, 99620, Note_on_c, 0, 71, 0
3, 107712, Note_on_c, 0, 67, 80
3, 107889, Note_on_c, 0, 67, 0
3, 107904, Note_on_c, 0, 65, 80
3, 107998, Note_on_c, 0, 65, 0
3, 108000, Note_on_c, 0, 77, 80
3, 108237, Note_on_c, 0, 77, 0
3, 108240, Note_on_c, 0, 79, 80
3, 108285, Note_on_c, 0, 79, 0
3, 115104, Note_on_c, 0, 74, 80
3, 115193, Note_on_c, 0, 74, 0
3, 115200, Note_on_c, 0, 75, 80
3, 115289, Note_on_c, 0, 75, 0
3, 115344, Note_on_c, 0, 70, 80
3, 115389, Note_on_c, 0, 70, 0
3, 115392, Note_on_c, 0, 75, 80
3, 115437, Note_on_c, 0, 75, 0
3, 115440, Note_on_c, 0, 79, 80
3, 115485, Note_on_c, 0, 79, 0
3, 115488, Note_on_c, 0, 74, 80
3, 115500, Note_on_c, 0, 74, 0
3, 115500, Note_on_c, 0, 77, 80
3, 115512, Note_on_c, 0, 77, 0
3, 115512, Note_on_c, 0, 80, 96
3, 115632, Note_on_c, 0, 80, 0
3, 115632, Note_on_c, 0, 77, 80
3, 115655, Note_on_c, 0, 77, 0
3, 115656, Note_on_c, 0, 74, 80
3, 115679, Note_on_c, 0, 74, 0
3, 115680, Note_on_c, 0, 70, 80
3, 115725, Note_on_c, 0, 70, 0
3, 115728, Note_on_c, 0, 68, 80
3, 115773, Note_on_c, 0, 68, 0
3, 115776, Note_on_c, 0, 67, 80
3, 115865, Note_on_c, 0, 67, 0
3, 115896, Note_on_c, 0, 70, 80
3, 115919, Note_on_c, 0, 70, 0
3, 115920, Note_on_c, 0, 75, 80
3, 115943, Note_on_c, 0, 75, 0
3, 115944, Note_on_c, 0, 79, 80
3, 115967, Note_on_c, 0, 79, 0
3, 115968, Note_on_c, 0, 82, 80
3, 116013, Note_on_c, 0, 82, 0
3, 116016, Note_on_c, 0, 82, 80
3, 116061, Note_on_c, 0, 82, 0
3, 128736, End_track
4, 0, Start_track
4, 0, Program_c, 1, 0
4, 0, Control_c, 1, 7, 127
4, 0, Control_c, 1, 10, 64
4, 288, Note_on_c, 1, 43, 75
4, 288, Note_on_c, 1, 39, 75
4, 333, Note_on_c, 1, 43, 0
4, 333, Note_on_c, 1, 39, 0
4, 384, Note_on_c, 1, 55, 75
4, 384, Note_on_c, 1, 51, 75
4, 404, Note_on_c, 1, 55, 0
4, 404, Note_on_c, 1, 51, 0
4, 576, Note_on_c, 1, 43, 75
4, 576, Note_on_c, 1, 39, 75
4, 621, Note_on_c, 1, 43, 0
4, 621, Note_on_c, 1, 39, 0
4, 672, Note_on_c, 1, 55, 75
4, 672, Note_on_c, 1, 51, 75
4, 692, Note_on_c, 1, 55, 0
4, 692, Note_on_c, 1, 51, 0
4, 864, Note_on_c, 1, 63, 87
4, 864, Note_on_c, 1, 60, 87
4, 997, Note_on_c, 1, 63, 0
4, 997, Note_on_c, 1, 60, 0
4, 1008, Note_on_c, 1, 62, 75
4, 1008, Note_on_c, 1, 58, 75
4, 1053, Note_on_c, 1, 62, 0
4, 1053, Note_on_c, 1, 58, 0
4, 1056, Note_on_c, 1, 60, 75
4, 1056, Note_on_c, 1, 56, 75
4, 1101, Note_on_c, 1, 60, 0
4, 1101, Note_on_c, 1, 56, 0
4, 1104, Note_on_c, 1, 58, 75
4, 1104, Note_on_c, 1, 55, 75
4, 1149, Note_on_c, 1, 58, 0
4, 1149, Note_on_c, 1, 55, 0
4, 1152, Note_on_c, 1, 56, 75
4, 1152, Note_on_c, 1, 53, 75
4, 1241, Note_on_c, 1, 56, 0
4, 1241, Note_on_c, 1, 53, 0
4, 1440, Note_on_c, 1, 38, 75
4, 1440, Note_on_c, 1, 34, 75
4, 1485, Note_on_c, 1, 38, 0
4, 1485, Note_on_c, 1, 34, 0
4, 1536, Note_on_c, 1, 50, 75
4, 1536, Note_on_c, 1, 46, 75
4, 1556, Note_on_c, 1, 50, 0
4, 1556, Note_on_c, 1, 46, 0
4, 1728, Note_on_c, 1, 38, 75
4, 1728, Note_on_c, 1, 34, 75
4, 1773, Note_on_c, 1, 38, 0
4, 1773, Note_on_c, 1, 34, 0
4, 1824, Note_on_c, 1, 50, 75
4, 1824, Note_on_c, 1, 46, 75
4, 1844, Note_on_c, 1, 50, 0
4, 1844, Note_on_c, 1, 46, 0
4, 2016, Note_on_c, 1, 65, 87
4, 2016, Note_on_c, 1, 62, 87
4, 2149, Note_on_c, 1, 65, 0
4, 2149, Note_on_c, 1, 62, 0
4, 2160, Note_on_c, 1, 63, 75
4, 2160, Note_on_c, 1, 60, 75
4, 2205, Note_on_c, 1, 63, 0
4, 2205, Note_on_c, 1, 60, 0
4, 2208, Note_on_c, 1, 62, 75
4, 2208, Note_on_c, 1, 58, 75
4, 2253, Note_on_c, 1, 62, 0
4, 2253, Note_on_c, 1, 58, 0
4, 2256, Note_on_c, 1, 60, 75
4, 2256, Note_on_c, 1, 56, 75
4, 2301, Note_on_c, 1, 60, 0
4, 2301, Note_on_c, 1, 56, 0
4, 2304, Note_on_c, 1, 58, 75
4, 2304, Note_on_c, 1, 55, 75
4, 2393, Note_on_c, 1, 58, 0
4, 2393, Note_on_c, 1, 55, 0
4, 2592, Note_on_c, 1, 51, 75
4, 2592, Note_on_c, 1, 46, 75
4, 2592, Note_on_c, 1, 43, 75
4, 2857, Note_on_c, 1, 51, 0
4, 2857, Note_on_c, 1, 46, 0
4, 2857, Note_on_c, 1, 43, 0
4, 2880, Note_on_c, 1, 51, 75
4, 2880, Note_on_c, 1, 44, 75
4, 3013, Note_on_c, 1, 51, 0
4, 3013, Note_on_c, 1, 44, 0
4, 3360, Note_on_c, 1, 53, 75
4, 3360, Note_on_c, 1, 46, 75
4, 3449, Note_on_c, 1, 53, 0
4, 3449, Note_on_c, 1, 46, 0
4, 3504, Note_on_c, 1, 51, 75
4, 3549, Note_on_c, 1, 51, 0
4, 3552, Note_on_c, 1, 46, 75
4, 3597, Note_on_c, 1, 46, 0
4, 3600, Note_on_c, 1, 43, 75
4, 3645, Note_on_c, 1, 43, 0
4, 3648, Note_on_c, 1, 39, 75
4, 3668, Note_on_c, 1, 39, 0
4, 3792, Note_on_c, 1, 51, 70
4, 3837, Note_on_c, 1, 51, 0
4, 3840, Note_on_c, 1, 55, 70
4, 3885, Note_on_c, 1, 55, 0
4, 3888, Note_on_c, 1, 51, 70
4, 3933, Note_on_c, 1, 51, 0
4, 3936, Note_on_c, 1, 56, 70
4, 3981, Note_on_c, 1, 56, 0
4, 3984, Note_on_c, 1, 46, 70
4, 4029, Note_on_c, 1, 46, 0
4, 4080, Note_on_c, 1, 46, 70
4, 4125, Note_on_c, 1, 46, 0
4, 4128, Note_on_c, 1, 50, 70
4, 4173, Note_on_c, 1, 50, 0
4, 4176, Note_on_c, 1, 46, 70
4, 4221, Note_on_c, 1, 46, 0
4, 4224, Note_on_c, 1, 51, 70
4, 4269, Note_on_c, 1, 51, 0
4, 4272, Note_on_c, 1, 39, 70
4, 4317, Note_on_c, 1, 39, 0
4, 4368, Note_on_c, 1, 51, 70
4, 4413, Note_on_c, 1, 51, 0
4, 4416, Note_on_c, 1, 55, 70
4, 4461, Note_on_c, 1, 55, 0
4, 4464, Note_on_c, 1, 51, 70
4, 4509, Note_on_c, 1, 51, 0
4, 4512, Note_on_c, 1, 56, 70
4, 4557, Note_on_c, 1, 56, 0
4, 4560, Note_on_c, 1, 46, 70
4, 4605, Note_on_c, 1, 46, 0
4, 4656, Note_on_c, 1, 58, 70
4, 4701, Note_on_c, 1, 58, 0
4, 4704, Note_on_c, 1, 62, 70
4, 4749, Note_on_c, 1, 62, 0
4, 4752, Note_on_c, 1, 58, 70
4, 4797, Note_on_c, 1, 58, 0
4, 4800, Note_on_c, 1, 63, 70
4, 4845, Note_on_c, 1, 63, 0
4, 4848, Note_on_c, 1, 51, 70
4, 4893, Note_on_c, 1, 51, 0
4, 4944, Note_on_c, 1, 63, 70
4, 4989, Note_on_c, 1, 63, 0
4, 4992, Note_on_c, 1, 67, 70
4, 5037, Note_on_c, 1, 67, 0
4, 5040, Note_on_c, 1, 63, 70
4, 5085, Note_on_c, 1, 63, 0
4, 5088, Note_on_c, 1, 62, 70
4, 5133, Note_on_c, 1, 62, 0
4, 5136, Note_on_c, 1, 65, 70
4, 5181, Note_on_c, 1, 65, 0
4, 5232, Note_on_c, 1, 55, 70
4, 5277, Note_on_c, 1, 55, 0
4, 5280, Note_on_c, 1, 59, 70
4, 5325, Note_on_c, 1, 59, 0
4, 5328, Note_on_c, 1, 55, 70
4, 5373, Note_on_c, 1, 55, 0
4, 5376, Note_on_c, 1, 60, 70
4, 5421, Note_on_c, 1, 60, 0
4, 5424, Note_on_c, 1, 48, 70
4, 5469, Note_on_c, 1, 48, 0
4, 5520, Note_on_c, 1, 59, 71
4, 5520, Note_on_c, 1, 47, 71
4, 5565, Note_on_c, 1, 59, 0
4, 5565, Note_on_c, 1, 47, 0
4, 5568, Note_on_c, 1, 60, 72
4, 5568, Note_on_c, 1, 48, 72
4, 5613, Note_on_c, 1, 60, 0
4, 5613, Note_on_c, 1, 48, 0
4, 5616, Note_on_c, 1, 62, 73
4, 5616, Note_on_c, 1, 50, 73
4, 5661, Note_on_c, 1, 62, 0
4, 5661, Note_on_c, 1, 50, 0
4, 5664, Note_on_c, 1, 63, 74
4, 5664, Note_on_c, 1, 51, 74
4, 5709, Note_on_c, 1, 63, 0
4, 5709, Note_on_c, 1, 51, 0
4, 5712, Note_on_c, 1, 64, 75
4, 5712, Note_on_c, 1, 52, 75
4, 5757, Note_on_c, 1, 64, 0
4, 5757, Note_on_c, 1, 52, 0
4, 5760, Note_on_c, 1, 65, 76
4, 5760, Note_on_c, 1, 53, 76
4, 5893, Note_on_c, 1, 65, 0
4, 5893, Note_on_c, 1, 53, 0
4, 5904, Note_on_c, 1, 70, 92
4, 5949, Note_on_c, 1, 70, 0
4, 5952, Note_on_c, 1, 69, 80
4, 5997, Note_on_c, 1, 69, 0
4, 6000, Note_on_c, 1, 67, 72
4, 6045, Note_on_c, 1, 67, 0
4, 6048, Note_on_c, 1, 67, 64
4, 6144, Note_on_c, 1, 67, 0
4, 6144, Note_on_c, 1, 69, 64
4, 6164, Note_on_c, 1, 69, 0
4, 6192, Note_on_c, 1, 70, 76
4, 6237, Note_on_c, 1, 70, 0
4, 6240, Note_on_c, 1, 69, 64
4, 6285, Note_on_c, 1, 69, 0
4, 6288, Note_on_c, 1, 67, 64
4, 6333, Note_on_c, 1, 67, 0
4, 6336, Note_on_c, 1, 67, 64
4, 6432, Note_on_c, 1, 67, 0
4, 6432, Note_on_c, 1, 69, 64
4, 6452, Note_on_c, 1, 69, 0
4, 6480, Note_on_c, 1, 70, 76
4, 6525, Note_on_c, 1, 70, 0
4, 6528, Note_on_c, 1, 69, 64
4, 6573, Note_on_c, 1, 69, 0
4, 6576, Note_on_c, 1, 67, 64
4, 6621, Note_on_c, 1, 67, 0
4, 6624, Note_on_c, 1, 67, 64
4, 6816, Note_on_c, 1, 67, 0
4, 6816, Note_on_c, 1, 66, 64
4, 6905, Note_on_c, 1, 66, 0
4, 6912, Note_on_c, 1, 65, 64
4, 7089, Note_on_c, 1, 65, 0
4, 7200, Note_on_c, 1, 50, 75
4, 7200, Note_on_c, 1, 46, 75
4, 7245, Note_on_c, 1, 50, 0
4, 7245, Note_on_c, 1, 46, 0
4, 7296, Note_on_c, 1, 62, 75
4, 7296, Note_on_c, 1, 58, 75
4, 7316, Note_on_c, 1, 62, 0
4, 7316, Note_on_c, 1, 58, 0
4, 7488, Note_on_c, 1, 45, 75
4, 7488, Note_on_c, 1, 41, 75
4, 7533, Note_on_c, 1, 45, 0
4, 7533, Note_on_c, 1, 41, 0
4, 7584, Note_on_c, 1, 57, 75
4, 7584, Note_on_c, 1, 53, 75
4, 7604, Note_on_c, 1, 57, 0
4, 7604, Note_on_c, 1, 53, 0
4, 7776, Note_on_c, 1, 45, 75
4, 7776, Note_on_c, 1, 41, 75
4, 7821, Note_on_c, 1, 45, 0
4, 7821, Note_on_c, 1, 41, 0
4, 7872, Note_on_c, 1, 57, 75
4, 7872, Note_on_c, 1, 53, 75
4, 7892, Note_on_c, 1, 57, 0
4, 7892, Note_on_c, 1, 53, 0
4, 8064, Note_on_c, 1, 58, 64
4, 8087, Note_on_c, 1, 58, 0
4, 8088, Note_on_c, 1, 65, 64
4, 8111, Note_on_c, 1, 65, 0
4, 8112, Note_on_c, 1, 62, 64
4, 8135, Note_on_c, 1, 62, 0
4, 8136, Note_on_c, 1, 65, 64
4, 8159, Note_on_c, 1, 65, 0
4, 8160, Note_on_c, 1, 58, 64
4, 8183, Note_on_c, 1, 58, 0
4, 8184, Note_on_c, 1, 65, 64
4, 8207, Note_on_c, 1, 65, 0
4, 8208, Note_on_c, 1, 62, 64
4, 8231, Note_on_c, 1, 62, 0
4, 8232, Note_on_c, 1, 65, 64
4, 8255, Note_on_c, 1, 65, 0
4, 8256, Note_on_c, 1, 58, 64
4, 8279, Note_on_c, 1, 58, 0
4, 8280, Note_on_c, 1, 65, 64
4, 8303, Note_on_c, 1, 65, 0
4, 8304, Note_on_c, 1, 62, 64
4, 8327, Note_on_c, 1, 62, 0
4, 8328, Note_on_c, 1, 65, 64
4, 8351, Note_on_c, 1, 65, 0
4, 8352, Note_on_c, 1, 60, 64
4, 8375, Note_on_c, 1, 60, 0
4, 8376, Note_on_c, 1, 65, 64
4, 8399, Note_on_c, 1, 65, 0
4, 8400, Note_on_c, 1, 63, 64
4, 8423, Note_on_c, 1, 63, 0
4, 8424, Note_on_c, 1, 65, 64
4, 8447, Note_on_c, 1, 65, 0
4, 8448, Note_on_c, 1, 60, 64
4, 8471, Note_on_c, 1, 60, 0
4, 8472, Note_on_c, 1, 65, 64
4, 8495, Note_on_c, 1, 65, 0
4, 8496, Note_on_c, 1, 58, 64
4, 8519, Note_on_c, 1, 58, 0
4, 8520, Note_on_c, 1, 65, 64
4, 8543, Note_on_c, 1, 65, 0
4, 8544, Note_on_c, 1, 57, 64
4, 8567, Note_on_c, 1, 57, 0
4, 8568, Note_on_c, 1, 65, 64
4, 8591, Note_on_c, 1, 65, 0
4, 8592, Note_on_c, 1, 60, 64
4, 8615, Note_on_c, 1, 60, 0
4, 8616, Note_on_c, 1, 65, 64
4, 8639, Note_on_c, 1, 65, 0
4, 8640, Note_on_c, 1, 58, 64
4, 8663, Note_on_c, 1, 58, 0
4, 8664, Note_on_c, 1, 65, 64
4, 8687, Note_on_c, 1, 65, 0
4, 8688, Note_on_c, 1, 62, 64
4, 8711, Note_on_c, 1, 62, 0
4, 8712, Note_on_c, 1, 65, 64
4, 8735, Note_on_c, 1, 65, 0
4, 8736, Note_on_c, 1, 58, 64
4, 8759, Note_on_c, 1, 58, 0
4, 8760, Note_on_c, 1, 65, 64
4, 8783, Note_on_c, 1, 65, 0
4, 8784, Note_on_c, 1, 62, 64
4, 8807, Note_on_c, 1, 62, 0
4, 8808, Note_on_c, 1, 65, 64
4, 8831, Note_on_c, 1, 65, 0
4, 8832, Note_on_c, 1, 58, 64
4, 8855, Note_on_c, 1, 58, 0
4, 8856, Note_on_c, 1, 65, 64
4, 8879, Note_on_c, 1, 65, 0
4, 8880, Note_on_c, 1, 62, 64
4, 8903, Note_on_c, 1, 62, 0
4, 8904, Note_on_c, 1, 65, 64
4, 8927, Note_on_c, 1, 65, 0
4, 8928, Note_on_c, 1, 60, 64
4, 8951, Note_on_c, 1, 60, 0
4, 8952, Note_on_c, 1, 65, 64
4, 8975, Note_on_c, 1, 65, 0
4, 8976, Note_on_c, 1, 63, 64
4, 8999, Note_on_c, 1, 63, 0
4, 9000, Note_on_c, 1, 65, 64
4, 9023, Note_on_c, 1, 65, 0
4, 9024, Note_on_c, 1, 60, 64
4, 9047, Note_on_c, 1, 60, 0
4, 9048, Note_on_c, 1, 65, 64
4, 9071, Note_on_c, 1, 65, 0
4, 9072, Note_on_c, 1, 58, 64
4, 9095, Note_on_c, 1, 58, 0
4, 9096, Note_on_c, 1, 65, 64
4, 9119, Note_on_c, 1, 65, 0
4, 9120, Note_on_c, 1, 57, 64
4, 9143, Note_on_c, 1, 57, 0
4, 9144, Note_on_c, 1, 65, 64
4, 9167, Note_on_c, 1, 65, 0
4, 9168, Note_on_c, 1, 60, 64
4, 9191, Note_on_c, 1, 60, 0
4, 9192, Note_on_c, 1, 65, 64
4, 9215, Note_on_c, 1, 65, 0
4, 9216, Note_on_c, 1, 58, 64
4, 9239, Note_on_c, 1, 58, 0
4, 9240, Note_on_c, 1, 65, 64
4, 9263, Note_on_c, 1, 65, 0
4, 9264, Note_on_c, 1, 62, 64
4, 9287, Note_on_c, 1, 62, 0
4, 9288, Note_on_c, 1, 65, 64
4, 9311, Note_on_c, 1, 65, 0
4, 9312, Note_on_c, 1, 58, 64
4, 9335, Note_on_c, 1, 58, 0
4, 9336, Note_on_c, 1, 65, 64
4, 9359, Note_on_c, 1, 65, 0
4, 9360, Note_on_c, 1, 62, 64
4, 9383, Note_on_c, 1, 62, 0
4, 9384, Note_on_c, 1, 65, 64
4, 9407, Note_on_c, 1, 65, 0
4, 9408, Note_on_c, 1, 58, 64
4, 9431, Note_on_c, 1, 58, 0
4, 9432, Note_on_c, 1, 65, 64
4, 9455, Note_on_c, 1, 65, 0
4, 9456, Note_on_c, 1, 62, 64
4, 9479, Note_on_c, 1, 62, 0
4, 9480, Note_on_c, 1, 65, 64
4, 9503, Note_on_c, 1, 65, 0
4, 9504, Note_on_c, 1, 56, 64
4, 9527, Note_on_c, 1, 56, 0
4, 9528, Note_on_c, 1, 65, 64
4, 9551, Note_on_c, 1, 65, 0
4, 9552, Note_on_c, 1, 62, 64
4, 9575, Note_on_c, 1, 62, 0
4, 9576, Note_on_c, 1, 65, 64
4, 9599, Note_on_c, 1, 65, 0
4, 9600, Note_on_c, 1, 56, 64
4, 9623, Note_on_c, 1, 56, 0
4, 9624, Note_on_c, 1, 65, 64
4, 9647, Note_on_c, 1, 65, 0
4, 9648, Note_on_c, 1, 62, 64
4, 9671, Note_on_c, 1, 62, 0
4, 9672, Note_on_c, 1, 65, 64
4, 9695, Note_on_c, 1, 65, 0
4, 9696, Note_on_c, 1, 56, 64
4, 9719, Note_on_c, 1, 56, 0
4, 9720, Note_on_c, 1, 65, 64
4, 9743, Note_on_c, 1, 65, 0
4, 9744, Note_on_c, 1, 62, 64
4, 9767, Note_on_c, 1, 62, 0
4, 9768, Note_on_c, 1, 65, 64
4, 9791, Note_on_c, 1, 65, 0
4, 9792, Note_on_c, 1, 55, 64
4, 9815, Note_on_c, 1, 55, 0
4, 9816, Note_on_c, 1, 65, 64
4, 9839, Note_on_c, 1, 65, 0
4, 9840, Note_on_c, 1, 62, 64
4, 9863, Note_on_c, 1, 62, 0
4, 9864, Note_on_c, 1, 65, 64
4, 9887, Note_on_c, 1, 65, 0
4, 9888, Note_on_c, 1, 55, 64
4, 9911, Note_on_c, 1, 55, 0
4, 9912, Note_on_c, 1, 65, 64
4, 9935, Note_on_c, 1, 65, 0
4, 9936, Note_on_c, 1, 62, 64
4, 9959, Note_on_c, 1, 62, 0
4, 9960, Note_on_c, 1, 65, 64
4, 9983, Note_on_c, 1, 65, 0
4, 9984, Note_on_c, 1, 55, 64
4, 10007, Note_on_c, 1, 55, 0
4, 10008, Note_on_c, 1, 65, 64
4, 10031, Note_on_c, 1, 65, 0
4, 10032, Note_on_c, 1, 62, 64
4, 10055, Note_on_c, 1, 62, 0
4, 10056, Note_on_c, 1, 65, 64
4, 10079, Note_on_c, 1, 65, 0
4, 10080, Note_on_c, 1, 55, 64
4, 10103, Note_on_c, 1, 55, 0
4, 10104, Note_on_c, 1, 63, 64
4, 10127, Note_on_c, 1, 63, 0
4, 10128, Note_on_c, 1, 60, 64
4, 10151, Note_on_c, 1, 60, 0
4, 10152, Note_on_c, 1, 63, 64
4, 10175, Note_on_c, 1, 63, 0
4, 10176, Note_on_c, 1, 55, 64
4, 10199, Note_on_c, 1, 55, 0
4, 10200, Note_on_c, 1, 63, 64
4, 10223, Note_on_c, 1, 63, 0
4, 10224, Note_on_c, 1, 60, 64
4, 10247, Note_on_c, 1, 60, 0
4, 10248, Note_on_c, 1, 63, 64
4, 10271, Note_on_c, 1, 63, 0
4, 10272, Note_on_c, 1, 54, 64
4, 10295, Note_on_c, 1, 54, 0
4, 10296, Note_on_c, 1, 63, 64
4, 10319, Note_on_c, 1, 63, 0
4, 10320, Note_on_c, 1, 60, 64
4, 10343, Note_on_c, 1, 60, 0
4, 10344, Note_on_c, 1, 63, 64
4, 10367, Note_on_c, 1, 63, 0
4, 10368, Note_on_c, 1, 53, 64
4, 10391, Note_on_c, 1, 53, 0
4, 10392, Note_on_c, 1, 63, 64
4, 10415, Note_on_c, 1, 63, 0
4, 10416, Note_on_c, 1, 60, 64
4, 10439, Note_on_c, 1, 60, 0
4, 10440, Note_on_c, 1, 63, 64
4, 10463, Note_on_c, 1, 63, 0
4, 10464, Note_on_c, 1, 53, 64
4, 10487, Note_on_c, 1, 53, 0
4, 10488, Note_on_c, 1, 63, 64
4, 10511, Note_on_c, 1, 63, 0
4, 10512, Note_on_c, 1, 60, 64
4, 10535, Note_on_c, 1, 60, 0
4, 10536, Note_on_c, 1, 63, 64
4, 10559, Note_on_c, 1, 63, 0
4, 10560, Note_on_c, 1, 55, 64
4, 10583, Note_on_c, 1, 55, 0
4, 10584, Note_on_c, 1, 62, 64
4, 10607, Note_on_c, 1, 62, 0
4, 10608, Note_on_c, 1, 58, 64
4, 10631, Note_on_c, 1, 58, 0
4, 10632, Note_on_c, 1, 62, 64
4, 10655, Note_on_c, 1, 62, 0
4, 10656, Note_on_c, 1, 51, 64
4, 10745, Note_on_c, 1, 51, 0
4, 10944, Note_on_c, 1, 67, 64
4, 10944, Note_on_c, 1, 63, 64
4, 11033, Note_on_c, 1, 67, 0
4, 11033, Note_on_c, 1, 63, 0
4, 11808, Note_on_c, 1, 62, 75
4, 11808, Note_on_c, 1, 53, 75
4, 11997, Note_on_c, 1, 62, 0
4, 11997, Note_on_c, 1, 53, 0
4, 12000, Note_on_c, 1, 63, 75
4, 12000, Note_on_c, 1, 53, 75
4, 12089, Note_on_c, 1, 63, 0
4, 12089, Note_on_c, 1, 53, 0
4, 12096, Note_on_c, 1, 58, 70
4, 12119, Note_on_c, 1, 58, 0
4, 12120, Note_on_c, 1, 65, 70
4, 12143, Note_on_c, 1, 65, 0
4, 12144, Note_on_c, 1, 62, 70
4, 12167, Note_on_c, 1, 62, 0
4, 12168, Note_on_c, 1, 65, 70
4, 12191, Note_on_c, 1, 65, 0
4, 12192, Note_on_c, 1, 58, 70
4, 12215, Note_on_c, 1, 58, 0
4, 12216, Note_on_c, 1, 65, 70
4, 12239, Note_on_c, 1, 65, 0
4, 12240, Note_on_c, 1, 62, 70
4, 12263, Note_on_c, 1, 62, 0
4, 12264, Note_on_c, 1, 65, 70
4, 12287, Note_on_c, 1, 65, 0
4, 12288, Note_on_c, 1, 58, 70
4, 12311, Note_on_c, 1, 58, 0
4, 12312, Note_on_c, 1, 65, 70
4, 12335, Note_on_c, 1, 65, 0
4, 12336, Note_on_c, 1, 62, 70
4, 12359, Note_on_c, 1, 62, 0
4, 12360, Note_on_c, 1, 65, 70
4, 12383, Note_on_c, 1, 65, 0
4, 12384, Note_on_c, 1, 57, 70
4, 12407, Note_on_c, 1, 57, 0
4, 12408, Note_on_c, 1, 65, 70
4, 12431, Note_on_c, 1, 65, 0
4, 12432, Note_on_c, 1, 60, 70
4, 12455, Note_on_c, 1, 60, 0
4, 12456, Note_on_c, 1, 65, 70
4, 12479, Note_on_c, 1, 65, 0
4, 12480, Note_on_c, 1, 57, 70
4, 12503, Note_on_c, 1, 57, 0
4, 12504, Note_on_c, 1, 65, 70
4, 12527, Note_on_c, 1, 65, 0
4, 12528, Note_on_c, 1, 60, 70
4, 12551, Note_on_c, 1, 60, 0
4, 12552, Note_on_c, 1, 65, 70
4, 12575, Note_on_c, 1, 65, 0
4, 12576, Note_on_c, 1, 57, 70
4, 12599, Note_on_c, 1, 57, 0
4, 12600, Note_on_c, 1, 65, 70
4, 12623, Note_on_c, 1, 65, 0
4, 12624, Note_on_c, 1, 60, 70
4, 12647, Note_on_c, 1, 60, 0
4, 12648, Note_on_c, 1, 65, 70
4, 12671, Note_on_c, 1, 65, 0
4, 12672, Note_on_c, 1, 58, 70
4, 12695, Note_on_c, 1, 58, 0
4, 12696, Note_on_c, 1, 65, 70
4, 12719, Note_on_c, 1, 65, 0
4, 12720, Note_on_c, 1, 62, 70
4, 12743, Note_on_c, 1, 62, 0
4, 12744, Note_on_c, 1, 65, 70
4, 12767, Note_on_c, 1, 65, 0
4, 12768, Note_on_c, 1, 58, 70
4, 12791, Note_on_c, 1, 58, 0
4, 12792, Note_on_c, 1, 65, 70
4, 12815, Note_on_c, 1, 65, 0
4, 12816, Note_on_c, 1, 62, 70
4, 12839, Note_on_c, 1, 62, 0
4, 12840, Note_on_c, 1, 65, 70
4, 12863, Note_on_c, 1, 65, 0
4, 12864, Note_on_c, 1, 58, 70
4, 12887, Note_on_c, 1, 58, 0
4, 12888, Note_on_c, 1, 65, 70
4, 12911, Note_on_c, 1, 65, 0
4, 12912, Note_on_c, 1, 62, 70
4, 12935, Note_on_c, 1, 62, 0
4, 12936, Note_on_c, 1, 65, 70
4, 12959, Note_on_c, 1, 65, 0
4, 12960, Note_on_c, 1, 57, 70
4, 12983, Note_on_c, 1, 57, 0
4, 12984, Note_on_c, 1, 65, 70
4, 13007, Note_on_c, 1, 65, 0
4, 13008, Note_on_c, 1, 60, 70
4, 13031, Note_on_c, 1, 60, 0
4, 13032, Note_on_c, 1, 65, 70
4, 13055, Note_on_c, 1, 65, 0
4, 13056, Note_on_c, 1, 57, 70
4, 13079, Note_on_c, 1, 57, 0
4, 13080, Note_on_c, 1, 65, 70
4, 13103, Note_on_c, 1, 65, 0
4, 13104, Note_on_c, 1, 60, 70
4, 13127, Note_on_c, 1, 60, 0
4, 13128, Note_on_c, 1, 65, 70
4, 13151, Note_on_c, 1, 65, 0
4, 13152, Note_on_c, 1, 57, 70
4, 13175, Note_on_c, 1, 57, 0
4, 13176, Note_on_c, 1, 65, 70
4, 13199, Note_on_c, 1, 65, 0
4, 13200, Note_on_c, 1, 60, 70
4, 13223, Note_on_c, 1, 60, 0
4, 13224, Note_on_c, 1, 65, 70
4, 13247, Note_on_c, 1, 65, 0
4, 13248, Note_on_c, 1, 58, 70
4, 13271, Note_on_c, 1, 58, 0
4, 13272, Note_on_c, 1, 65, 70
4, 13295, Note_on_c, 1, 65, 0
4, 13296, Note_on_c, 1, 62, 70
4, 13319, Note_on_c, 1, 62, 0
4, 13320, Note_on_c, 1, 65, 70
4, 13343, Note_on_c, 1, 65, 0
4, 13344, Note_on_c, 1, 58, 70
4, 13367, Note_on_c, 1, 58, 0
4, 13368, Note_on_c, 1, 65, 70
4, 13391, Note_on_c, 1, 65, 0
4, 13392, Note_on_c, 1, 62, 70
4, 13415, Note_on_c, 1, 62, 0
4, 13416, Note_on_c, 1, 65, 70
4, 13439, Note_on_c, 1, 65, 0
4, 13440, Note_on_c, 1, 58, 70
4, 13463, Note_on_c, 1, 58, 0
4, 13464, Note_on_c, 1, 65, 70
4, 13487, Note_on_c, 1, 65, 0
4, 13488, Note_on_c, 1, 62, 70
4, 13511, Note_on_c, 1, 62, 0
4, 13512, Note_on_c, 1, 65, 70
4, 13535, Note_on_c, 1, 65, 0
4, 13536, Note_on_c, 1, 57, 70
4, 13559, Note_on_c, 1, 57, 0
4, 13560, Note_on_c, 1, 65, 70
4, 13583, Note_on_c, 1, 65, 0
4, 13584, Note_on_c, 1, 60, 70
4, 13607, Note_on_c, 1, 60, 0
4, 13608, Note_on_c, 1, 65, 70
4, 13631, Note_on_c, 1, 65, 0
4, 13632, Note_on_c, 1, 57, 70
4, 13655, Note_on_c, 1, 57, 0
4, 13656, Note_on_c, 1, 65, 70
4, 13679, Note_on_c, 1, 65, 0
4, 13680, Note_on_c, 1, 60, 70
4, 13703, Note_on_c, 1, 60, 0
4, 13704, Note_on_c, 1, 65, 70
4, 13727, Note_on_c, 1, 65, 0
4, 13728, Note_on_c, 1, 57, 70
4, 13751, Note_on_c, 1, 57, 0
4, 13752, Note_on_c, 1, 65, 70
4, 13775, Note_on_c, 1, 65, 0
4, 13776, Note_on_c, 1, 60, 70
4, 13799, Note_on_c, 1, 60, 0
4, 13800, Note_on_c, 1, 65, 70
4, 13823, Note_on_c, 1, 65, 0
4, 13824, Note_on_c, 1, 58, 70
4, 13847, Note_on_c, 1, 58, 0
4, 13848, Note_on_c, 1, 65, 70
4, 13871, Note_on_c, 1, 65, 0
4, 13872, Note_on_c, 1, 62, 70
4, 13895, Note_on_c, 1, 62, 0
4, 13896, Note_on_c, 1, 65, 70
4, 13919, Note_on_c, 1, 65, 0
4, 13920, Note_on_c, 1, 58, 70
4, 13943, Note_on_c, 1, 58, 0
4, 13944, Note_on_c, 1, 65, 70
4, 13967, Note_on_c, 1, 65, 0
4, 13968, Note_on_c, 1, 62, 70
4, 13991, Note_on_c, 1, 62, 0
4, 13992, Note_on_c, 1, 65, 70
4, 14015, Note_on_c, 1, 65, 0
4, 14016, Note_on_c, 1, 58, 70
4, 14039, Note_on_c, 1, 58, 0
4, 14040, Note_on_c, 1, 65, 70
4, 14063, Note_on_c, 1, 65, 0
4, 14064, Note_on_c, 1, 62, 70
4, 14087, Note_on_c, 1, 62, 0
4, 14088, Note_on_c, 1, 65, 70
4, 14111, Note_on_c, 1, 65, 0
4, 14112, Note_on_c, 1, 57, 70
4, 14201, Note_on_c, 1, 57, 0
4, 14400, Note_on_c, 1, 58, 75
4, 14445, Note_on_c, 1, 58, 0
4, 14496, Note_on_c, 1, 65, 75
4, 14541, Note_on_c, 1, 65, 0
4, 14592, Note_on_c, 1, 67, 70
4, 14637, Note_on_c, 1, 67, 0
4, 14688, Note_on_c, 1, 62, 66
4, 14733, Note_on_c, 1, 62, 0
4, 14784, Note_on_c, 1, 63, 64
4, 14829, Note_on_c, 1, 63, 0
4, 14880, Note_on_c, 1, 71, 64
4, 14880, Note_on_c, 1, 67, 64
4, 14925, Note_on_c, 1, 71, 0
4, 14925, Note_on_c, 1, 67, 0
4, 14976, Note_on_c, 1, 68, 64
4, 15021, Note_on_c, 1, 68, 0
4, 15696, Note_on_c, 1, 68, 64
4, 15716, Note_on_c, 1, 68, 0
4, 15744, Note_on_c, 1, 68, 64
4, 15764, Note_on_c, 1, 68, 0
4, 15792, Note_on_c, 1, 68, 64
4, 15812, Note_on_c, 1, 68, 0
4, 15840, Note_on_c, 1, 68, 64
4, 16105, Note_on_c, 1, 68, 0
4, 16272, Note_on_c, 1, 56, 64
4, 16292, Note_on_c, 1, 56, 0
4, 16320, Note_on_c, 1, 56, 65
4, 16340, Note_on_c, 1, 56, 0
4, 16368, Note_on_c, 1, 56, 66
4, 16388, Note_on_c, 1, 56, 0
4, 16416, Note_on_c, 1, 56, 67
4, 16505, Note_on_c, 1, 56, 0
4, 16512, Note_on_c, 1, 55, 69
4, 16601, Note_on_c, 1, 55, 0
4, 16608, Note_on_c, 1, 54, 71
4, 16697, Note_on_c, 1, 54, 0
4, 16704, Note_on_c, 1, 62, 73
4, 16704, Note_on_c, 1, 58, 73
4, 16704, Note_on_c, 1, 53, 73
4, 16969, Note_on_c, 1, 62, 0
4, 16969, Note_on_c, 1, 58, 0
4, 16969, Note_on_c, 1, 53, 0
4, 16992, Note_on_c, 1, 63, 80
4, 16992, Note_on_c, 1, 60, 80
4, 16992, Note_on_c, 1, 53, 80
4, 17257, Note_on_c, 1, 63, 0
4, 17257, Note_on_c, 1, 60, 0
4, 17257, Note_on_c, 1, 53, 0
4, 17328, Note_on_c, 1, 62, 64
4, 17373, Note_on_c, 1, 62, 0
4, 17376, Note_on_c, 1, 63, 64
4, 17421, Note_on_c, 1, 63, 0
4, 17424, Note_on_c, 1, 64, 64
4, 17469, Note_on_c, 1, 64, 0
4, 17472, Note_on_c, 1, 65, 64
4, 17517, Note_on_c, 1, 65, 0
4, 17520, Note_on_c, 1, 66, 64
4, 17565, Note_on_c, 1, 66, 0
4, 17568, Note_on_c, 1, 67, 64
4, 17613, Note_on_c, 1, 67, 0
4, 17616, Note_on_c, 1, 65, 64
4, 17661, Note_on_c, 1, 65, 0
4, 17664, Note_on_c, 1, 63, 64
4, 17709, Note_on_c, 1, 63, 0
4, 17712, Note_on_c, 1, 62, 64
4, 17757, Note_on_c, 1, 62, 0
4, 17760, Note_on_c, 1, 60, 64
4, 17805, Note_on_c, 1, 60, 0
4, 17808, Note_on_c, 1, 63, 64
4, 17853, Note_on_c, 1, 63, 0
4, 17856, Note_on_c, 1, 62, 64
4, 17856, Note_on_c, 1, 58, 64
4, 17901, Note_on_c, 1, 62, 0
4, 17901, Note_on_c, 1, 58, 0
4, 18144, Note_on_c, 1, 53, 80
4, 18144, Note_on_c, 1, 41, 80
4, 18164, Note_on_c, 1, 53, 0
4, 18164, Note_on_c, 1, 41, 0
4, 18192, Note_on_c, 1, 52, 80
4, 18192, Note_on_c, 1, 40, 80
4, 18212, Note_on_c, 1, 52, 0
4, 18212, Note_on_c, 1, 40, 0
4, 18240, Note_on_c, 1, 51, 80
4, 18240, Note_on_c, 1, 39, 80
4, 18260, Note_on_c, 1, 51, 0
4, 18260, Note_on_c, 1, 39, 0
4, 18288, Note_on_c, 1, 50, 80
4, 18288, Note_on_c, 1, 38, 80
4, 18308, Note_on_c, 1, 50, 0
4, 18308, Note_on_c, 1, 38, 0
4, 18336, Note_on_c, 1, 48, 80
4, 18336, Note_on_c, 1, 36, 80
4, 18356, Note_on_c, 1, 48, 0
4, 18356, Note_on_c, 1, 36, 0
4, 18384, Note_on_c, 1, 53, 80
4, 18384, Note_on_c, 1, 41, 80
4, 18404, Note_on_c, 1, 53, 0
4, 18404, Note_on_c, 1, 41, 0
4, 18432, Note_on_c, 1, 46, 80
4, 18432, Note_on_c, 1, 34, 80
4, 18521, Note_on_c, 1, 46, 0
4, 18521, Note_on_c, 1, 34, 0
4, 18720, Note_on_c, 1, 43, 75
4, 18720, Note_on_c, 1, 39, 75
4, 18765, Note_on_c, 1, 43, 0
4, 18765, Note_on_c, 1, 39, 0
4, 18816, Note_on_c, 1, 55, 75
4, 18816, Note_on_c, 1, 51, 75
4, 18836, Note_on_c, 1, 55, 0
4, 18836, Note_on_c, 1, 51, 0
4, 19008, Note_on_c, 1, 43, 75
4, 19008, Note_on_c, 1, 39, 75
4, 19053, Note_on_c, 1, 43, 0
4, 19053, Note_on_c, 1, 39, 0
4, 19104, Note_on_c, 1, 55, 75
4, 19104, Note_on_c, 1, 51, 75
4, 19124, Note_on_c, 1, 55, 0
4, 19124, Note_on_c, 1, 51, 0
4, 19296, Note_on_c, 1, 63, 87
4, 19296, Note_on_c, 1, 60, 87
4, 19429, Note_on_c, 1, 63, 0
4, 19429, Note_on_c, 1, 60, 0
4, 19440, Note_on_c, 1, 62, 75
4, 19440, Note_on_c, 1, 58, 75
4, 19485, Note_on_c, 1, 62, 0
4, 19485, Note_on_c, 1, 58, 0
4, 19488, Note_on_c, 1, 60, 75
4, 19488, Note_on_c, 1, 56, 75
4, 19533, Note_on_c, 1, 60, 0
4, 19533, Note_on_c, 1, 56, 0
4, 19536, Note_on_c, 1, 58, 75
4, 19536, Note_on_c, 1, 55, 75
4, 19581, Note_on_c, 1, 58, 0
4, 19581, Note_on_c, 1, 55, 0
4, 19584, Note_on_c, 1, 56, 75
4, 19584, Note_on_c, 1, 53, 75
4, 19673, Note_on_c, 1, 56, 0
4, 19673, Note_on_c, 1, 53, 0
4, 19872, Note_on_c, 1, 38, 75
4, 19872, Note_on_c, 1, 34, 75
4, 19917, Note_on_c, 1, 38, 0
4, 19917, Note_on_c, 1, 34, 0
4, 19968, Note_on_c, 1, 50, 75
4, 19968, Note_on_c, 1, 46, 75
4, 19988, Note_on_c, 1, 50, 0
4, 19988, Note_on_c, 1, 46, 0
4, 20160, Note_on_c, 1, 38, 75
4, 20160, Note_on_c, 1, 34, 75
4, 20205, Note_on_c, 1, 38, 0
4, 20205, Note_on_c, 1, 34, 0
4, 20256, Note_on_c, 1, 50, 75
4, 20256, Note_on_c, 1, 46, 75
4, 20276, Note_on_c, 1, 50, 0
4, 20276, Note_on_c, 1, 46, 0
4, 20448, Note_on_c, 1, 65, 87
4, 20448, Note_on_c, 1, 62, 87
4, 20581, Note_on_c, 1, 65, 0
4, 20581, Note_on_c, 1, 62, 0
4, 20592, Note_on_c, 1, 63, 75
4, 20592, Note_on_c, 1, 60, 75
4, 20637, Note_on_c, 1, 63, 0
4, 20637, Note_on_c, 1, 60, 0
4, 20640, Note_on_c, 1, 62, 75
4, 20640, Note_on_c, 1, 58, 75
4, 20685, Note_on_c, 1, 62, 0
4, 20685, Note_on_c, 1, 58, 0
4, 20688, Note_on_c, 1, 60, 75
4, 20688, Note_on_c, 1, 56, 75
4, 20733, Note_on_c, 1, 60, 0
4, 20733, Note_on_c, 1, 56, 0
4, 20736, Note_on_c, 1, 58, 75
4, 20736, Note_on_c, 1, 55, 75
4, 20825, Note_on_c, 1, 58, 0
4, 20825, Note_on_c, 1, 55, 0
4, 21024, Note_on_c, 1, 51, 75
4, 21024, Note_on_c, 1, 46, 75
4, 21024, Note_on_c, 1, 43, 75
4, 21289, Note_on_c, 1, 51, 0
4, 21289, Note_on_c, 1, 46, 0
4, 21289, Note_on_c, 1, 43, 0
4, 21312, Note_on_c, 1, 51, 75
4, 21312, Note_on_c, 1, 44, 75
4, 21445, Note_on_c, 1, 51, 0
4, 21445, Note_on_c, 1, 44, 0
4, 21792, Note_on_c, 1, 53, 75
4, 21792, Note_on_c, 1, 46, 75
4, 21881, Note_on_c, 1, 53, 0
4, 21881, Note_on_c, 1, 46, 0
4, 21936, Note_on_c, 1, 51, 75
4, 21981, Note_on_c, 1, 51, 0
4, 21984, Note_on_c, 1, 46, 75
4, 22029, Note_on_c, 1, 46, 0
4, 22032, Note_on_c, 1, 43, 75
4, 22077, Note_on_c, 1, 43, 0
4, 22080, Note_on_c, 1, 39, 75
4, 22100, Note_on_c, 1, 39, 0
4, 22224, Note_on_c, 1, 51, 70
4, 22269, Note_on_c, 1, 51, 0
4, 22272, Note_on_c, 1, 55, 70
4, 22317, Note_on_c, 1, 55, 0
4, 22320, Note_on_c, 1, 51, 70
4, 22365, Note_on_c, 1, 51, 0
4, 22368, Note_on_c, 1, 56, 70
4, 22413, Note_on_c, 1, 56, 0
4, 22416, Note_on_c, 1, 46, 70
4, 22461, Note_on_c, 1, 46, 0
4, 22512, Note_on_c, 1, 46, 70
4, 22557, Note_on_c, 1, 46, 0
4, 22560, Note_on_c, 1, 50, 70
4, 22605, Note_on_c, 1, 50, 0
4, 22608, Note_on_c, 1, 46, 70
4, 22653, Note_on_c, 1, 46, 0
4, 22656, Note_on_c, 1, 51, 70
4, 22701, Note_on_c, 1, 51, 0
4, 22704, Note_on_c, 1, 39, 70
4, 22749, Note_on_c, 1, 39, 0
4, 22800, Note_on_c, 1, 51, 70
4, 22845, Note_on_c, 1, 51, 0
4, 22848, Note_on_c, 1, 55, 70
4, 22893, Note_on_c, 1, 55, 0
4, 22896, Note_on_c, 1, 51, 70
4, 22941, Note_on_c, 1, 51, 0
4, 22944, Note_on_c, 1, 56, 70
4, 22989, Note_on_c, 1, 56, 0
4, 22992, Note_on_c, 1, 46, 70
4, 23037, Note_on_c, 1, 46, 0
4, 23088, Note_on_c, 1, 58, 70
4, 23133, Note_on_c, 1, 58, 0
4, 23136, Note_on_c, 1, 62, 70
4, 23181, Note_on_c, 1, 62, 0
4, 23184, Note_on_c, 1, 58, 70
4, 23229, Note_on_c, 1, 58, 0
4, 23232, Note_on_c, 1, 63, 70
4, 23277, Note_on_c, 1, 63, 0
4, 23280, Note_on_c, 1, 51, 70
4, 23325, Note_on_c, 1, 51, 0
4, 23376, Note_on_c, 1, 63, 70
4, 23421, Note_on_c, 1, 63, 0
4, 23424, Note_on_c, 1, 67, 70
4, 23469, Note_on_c, 1, 67, 0
4, 23472, Note_on_c, 1, 63, 70
4, 23517, Note_on_c, 1, 63, 0
4, 23520, Note_on_c, 1, 62, 70
4, 23565, Note_on_c, 1, 62, 0
4, 23568, Note_on_c, 1, 65, 70
4, 23613, Note_on_c, 1, 65, 0
4, 23664, Note_on_c, 1, 55, 70
4, 23709, Note_on_c, 1, 55, 0
4, 23712, Note_on_c, 1, 59, 70
4, 23757, Note_on_c, 1, 59, 0
4, 23760, Note_on_c, 1, 55, 70
4, 23805, Note_on_c, 1, 55, 0
4, 23808, Note_on_c, 1, 60, 70
4, 23853, Note_on_c, 1, 60, 0
4, 23856, Note_on_c, 1, 48, 70
4, 23901, Note_on_c, 1, 48, 0
4, 23952, Note_on_c, 1, 59, 71
4, 23952, Note_on_c, 1, 47, 71
4, 23997, Note_on_c, 1, 59, 0
4, 23997, Note_on_c, 1, 47, 0
4, 24000, Note_on_c, 1, 60, 72
4, 24000, Note_on_c, 1, 48, 72
4, 24045, Note_on_c, 1, 60, 0
4, 24045, Note_on_c, 1, 48, 0
4, 24048, Note_on_c, 1, 62, 73
4, 24048, Note_on_c, 1, 50, 73
4, 24093, Note_on_c, 1, 62, 0
4, 24093, Note_on_c, 1, 50, 0
4, 24096, Note_on_c, 1, 63, 74
4, 24096, Note_on_c, 1, 51, 74
4, 24141, Note_on_c, 1, 63, 0
4, 24141, Note_on_c, 1, 51, 0
4, 24144, Note_on_c, 1, 64, 75
4, 24144, Note_on_c, 1, 52, 75
4, 24189, Note_on_c, 1, 64, 0
4, 24189, Note_on_c, 1, 52, 0
4, 24192, Note_on_c, 1, 65, 76
4, 24192, Note_on_c, 1, 53, 76
4, 24325, Note_on_c, 1, 65, 0
4, 24325, Note_on_c, 1, 53, 0
4, 24336, Note_on_c, 1, 70, 92
4, 24381, Note_on_c, 1, 70, 0
4, 24384, Note_on_c, 1, 69, 80
4, 24429, Note_on_c, 1, 69, 0
4, 24432, Note_on_c, 1, 67, 72
4, 24477, Note_on_c, 1, 67, 0
4, 24480, Note_on_c, 1, 67, 64
4, 24576, Note_on_c, 1, 67, 0
4, 24576, Note_on_c, 1, 69, 64
4, 24596, Note_on_c, 1, 69, 0
4, 24624, Note_on_c, 1, 70, 76
4, 24669, Note_on_c, 1, 70, 0
4, 24672, Note_on_c, 1, 69, 64
4, 24717, Note_on_c, 1, 69, 0
4, 24720, Note_on_c, 1, 67, 64
4, 24765, Note_on_c, 1, 67, 0
4, 24768, Note_on_c, 1, 67, 64
4, 24864, Note_on_c, 1, 67, 0
4, 24864, Note_on_c, 1, 69, 64
4, 24884, Note_on_c, 1, 69, 0
4, 24912, Note_on_c, 1, 70, 76
4, 24957, Note_on_c, 1, 70, 0
4, 24960, Note_on_c, 1, 69, 64
4, 25005, Note_on_c, 1, 69, 0
4, 25008, Note_on_c, 1, 67, 64
4, 25053, Note_on_c, 1, 67, 0
4, 25056, Note_on_c, 1, 67, 64
4, 25248, Note_on_c, 1, 67, 0
4, 25248, Note_on_c, 1, 66, 64
4, 25337, Note_on_c, 1, 66, 0
4, 25344, Note_on_c, 1, 65, 64
4, 25521, Note_on_c, 1, 65, 0
4, 25632, Note_on_c, 1, 50, 75
4, 25632, Note_on_c, 1, 46, 75
4, 25677, Note_on_c, 1, 50, 0
4, 25677, Note_on_c, 1, 46, 0
4, 25728, Note_on_c, 1, 62, 75
4, 25728, Note_on_c, 1, 58, 75
4, 25748, Note_on_c, 1, 62, 0
4, 25748, Note_on_c, 1, 58, 0
4, 25920, Note_on_c, 1, 45, 75
4, 25920, Note_on_c, 1, 41, 75
4, 25965, Note_on_c, 1, 45, 0
4, 25965, Note_on_c, 1, 41, 0
4, 26016, Note_on_c, 1, 57, 75
4, 26016, Note_on_c, 1, 53, 75
4, 26036, Note_on_c, 1, 57, 0
4, 26036, Note_on_c, 1, 53, 0
4, 26208, Note_on_c, 1, 45, 75
4, 26208, Note_on_c, 1, 41, 75
4, 26253, Note_on_c, 1, 45, 0
4, 26253, Note_on_c, 1, 41, 0
4, 26304, Note_on_c, 1, 57, 75
4, 26304, Note_on_c, 1, 53, 75
4, 26324, Note_on_c, 1, 57, 0
4, 26324, Note_on_c, 1, 53, 0
4, 26496, Note_on_c, 1, 58, 64
4, 26519, Note_on_c, 1, 58, 0
4, 26520, Note_on_c, 1, 65, 64
4, 26543, Note_on_c, 1, 65, 0
4, 26544, Note_on_c, 1, 62, 64
4, 26567, Note_on_c, 1, 62, 0
4, 26568, Note_on_c, 1, 65, 64
4, 26591, Note_on_c, 1, 65, 0
4, 26592, Note_on_c, 1, 58, 64
4, 26615, Note_on_c, 1, 58, 0
4, 26616, Note_on_c, 1, 65, 64
4, 26639, Note_on_c, 1, 65, 0
4, 26640, Note_on_c, 1, 62, 64
4, 26663, Note_on_c, 1, 62, 0
4, 26664, Note_on_c, 1, 65, 64
4, 26687, Note_on_c, 1, 65, 0
4, 26688, Note_on_c, 1, 58, 64
4, 26711, Note_on_c, 1, 58, 0
4, 26712, Note_on_c, 1, 65, 64
4, 26735, Note_on_c, 1, 65, 0
4, 26736, Note_on_c, 1, 62, 64
4, 26759, Note_on_c, 1, 62, 0
4, 26760, Note_on_c, 1, 65, 64
4, 26783, Note_on_c, 1, 65, 0
4, 26784, Note_on_c, 1, 60, 64
4, 26807, Note_on_c, 1, 60, 0
4, 26808, Note_on_c, 1, 65, 64
4, 26831, Note_on_c, 1, 65, 0
4, 26832, Note_on_c, 1, 63, 64
4, 26855, Note_on_c, 1, 63, 0
4, 26856, Note_on_c, 1, 65, 64
4, 26879, Note_on_c, 1, 65, 0
4, 26880, Note_on_c, 1, 60, 64
4, 26903, Note_on_c, 1, 60, 0
4, 26904, Note_on_c, 1, 65, 64
4, 26927, Note_on_c, 1, 65, 0
4, 26928, Note_on_c, 1, 58, 64
4, 26951, Note_on_c, 1, 58, 0
4, 26952, Note_on_c, 1, 65, 64
4, 26975, Note_on_c, 1, 65, 0
4, 26976, Note_on_c, 1, 57, 64
4, 26999, Note_on_c, 1, 57, 0
4, 27000, Note_on_c, 1, 65, 64
4, 27023, Note_on_c, 1, 65, 0
4, 27024, Note_on_c, 1, 60, 64
4, 27047, Note_on_c, 1, 60, 0
4, 27048, Note_on_c, 1, 65, 64
4, 27071, Note_on_c, 1, 65, 0
4, 27072, Note_on_c, 1, 58, 64
4, 27095, Note_on_c, 1, 58, 0
4, 27096, Note_on_c, 1, 65, 64
4, 27119, Note_on_c, 1, 65, 0
4, 27120, Note_on_c, 1, 62, 64
4, 27143, Note_on_c, 1, 62, 0
4, 27144, Note_on_c, 1, 65, 64
4, 27167, Note_on_c, 1, 65, 0
4, 27168, Note_on_c, 1, 58, 64
4, 27191, Note_on_c, 1, 58, 0
4, 27192, Note_on_c, 1, 65, 64
4, 27215, Note_on_c, 1, 65, 0
4, 27216, Note_on_c, 1, 62, 64
4, 27239, Note_on_c, 1, 62, 0
4, 27240, Note_on_c, 1, 65, 64
4, 27263, Note_on_c, 1, 65, 0
4, 27264, Note_on_c, 1, 58, 64
4, 27287, Note_on_c, 1, 58, 0
4, 27288, Note_on_c, 1, 65, 64
4, 27311, Note_on_c, 1, 65, 0
4, 27312, Note_on_c, 1, 62, 64
4, 27335, Note_on_c, 1, 62, 0
4, 27336, Note_on_c, 1, 65, 64
4, 27359, Note_on_c, 1, 65, 0
4, 27360, Note_on_c, 1, 60, 64
4, 27383, Note_on_c, 1, 60, 0
4, 27384, Note_on_c, 1, 65, 64
4, 27407, Note_on_c, 1, 65, 0
4, 27408, Note_on_c, 1, 63, 64
4, 27431, Note_on_c, 1, 63, 0
4, 27432, Note_on_c, 1, 65, 64
4, 27455, Note_on_c, 1, 65, 0
4, 27456, Note_on_c, 1, 60, 64
4, 27479, Note_on_c, 1, 60, 0
4, 27480, Note_on_c, 1, 65, 64
4, 27503, Note_on_c, 1, 65, 0
4, 27504, Note_on_c, 1, 58, 64
4, 27527, Note_on_c, 1, 58, 0
4, 27528, Note_on_c, 1, 65, 64
4, 27551, Note_on_c, 1, 65, 0
4, 27552, Note_on_c, 1, 57, 64
4, 27575, Note_on_c, 1, 57, 0
4, 27576, Note_on_c, 1, 65, 64
4, 27599, Note_on_c, 1, 65, 0
4, 27600, Note_on_c, 1, 60, 64
4, 27623, Note_on_c, 1, 60, 0
4, 27624, Note_on_c, 1, 65, 64
4, 27647, Note_on_c, 1, 65, 0
4, 27648, Note_on_c, 1, 58, 64
4, 27671, Note_on_c, 1, 58, 0
4, 27672, Note_on_c, 1, 65, 64
4, 27695, Note_on_c, 1, 65, 0
4, 27696, Note_on_c, 1, 62, 64
4, 27719, Note_on_c, 1, 62, 0
4, 27720, Note_on_c, 1, 65, 64
4, 27743, Note_on_c, 1, 65, 0
4, 27744, Note_on_c, 1, 58, 64
4, 27767, Note_on_c, 1, 58, 0
4, 27768, Note_on_c, 1, 65, 64
4, 27791, Note_on_c, 1, 65, 0
4, 27792, Note_on_c, 1, 62, 64
4, 27815, Note_on_c, 1, 62, 0
4, 27816, Note_on_c, 1, 65, 64
4, 27839, Note_on_c, 1, 65, 0
4, 27840, Note_on_c, 1, 58, 64
4, 27863, Note_on_c, 1, 58, 0
4, 27864, Note_on_c, 1, 65, 64
4, 27887, Note_on_c, 1, 65, 0
4, 27888, Note_on_c, 1, 62, 64
4, 27911, Note_on_c, 1, 62, 0
4, 27912, Note_on_c, 1, 65, 64
4, 27935, Note_on_c, 1, 65, 0
4, 27936, Note_on_c, 1, 56, 64
4, 27959, Note_on_c, 1, 56, 0
4, 27960, Note_on_c, 1, 65, 64
4, 27983, Note_on_c, 1, 65, 0
4, 27984, Note_on_c, 1, 62, 64
4, 28007, Note_on_c, 1, 62, 0
4, 28008, Note_on_c, 1, 65, 64
4, 28031, Note_on_c, 1, 65, 0
4, 28032, Note_on_c, 1, 56, 64
4, 28055, Note_on_c, 1, 56, 0
4, 28056, Note_on_c, 1, 65, 64
4, 28079, Note_on_c, 1, 65, 0
4, 28080, Note_on_c, 1, 62, 64
4, 28103, Note_on_c, 1, 62, 0
4, 28104, Note_on_c, 1, 65, 64
4, 28127, Note_on_c, 1, 65, 0
4, 28128, Note_on_c, 1, 56, 64
4, 28151, Note_on_c, 1, 56, 0
4, 28152, Note_on_c, 1, 65, 64
4, 28175, Note_on_c, 1, 65, 0
4, 28176, Note_on_c, 1, 62, 64
4, 28199, Note_on_c, 1, 62, 0
4, 28200, Note_on_c, 1, 65, 64
4, 28223, Note_on_c, 1, 65, 0
4, 28224, Note_on_c, 1, 55, 64
4, 28247, Note_on_c, 1, 55, 0
4, 28248, Note_on_c, 1, 65, 64
4, 28271, Note_on_c, 1, 65, 0
4, 28272, Note_on_c, 1, 62, 64
4, 28295, Note_on_c, 1, 62, 0
4, 28296, Note_on_c, 1, 65, 64
4, 28319, Note_on_c, 1, 65, 0
4, 28320, Note_on_c, 1, 55, 64
4, 28343, Note_on_c, 1, 55, 0
4, 28344, Note_on_c, 1, 65, 64
4, 28367, Note_on_c, 1, 65, 0
4, 28368, Note_on_c, 1, 62, 64
4, 28391, Note_on_c, 1, 62, 0
4, 28392, Note_on_c, 1, 65, 64
4, 28415, Note_on_c, 1, 65, 0
4, 28416, Note_on_c, 1, 55, 64
4, 28439, Note_on_c, 1, 55, 0
4, 28440, Note_on_c, 1, 65, 64
4, 28463, Note_on_c, 1, 65, 0
4, 28464, Note_on_c, 1, 62, 64
4, 28487, Note_on_c, 1, 62, 0
4, 28488, Note_on_c, 1, 65, 64
4, 28511, Note_on_c, 1, 65, 0
4, 28512, Note_on_c, 1, 55, 64
4, 28535, Note_on_c, 1, 55, 0
4, 28536, Note_on_c, 1, 63, 64
4, 28559, Note_on_c, 1, 63, 0
4, 28560, Note_on_c, 1, 60, 64
4, 28583, Note_on_c, 1, 60, 0
4, 28584, Note_on_c, 1, 63, 64
4, 28607, Note_on_c, 1, 63, 0
4, 28608, Note_on_c, 1, 55, 64
4, 28631, Note_on_c, 1, 55, 0
4, 28632, Note_on_c, 1, 63, 64
4, 28655, Note_on_c, 1, 63, 0
4, 28656, Note_on_c, 1, 60, 64
4, 28679, Note_on_c, 1, 60, 0
4, 28680, Note_on_c, 1, 63, 64
4, 28703, Note_on_c, 1, 63, 0
4, 28704, Note_on_c, 1, 54, 64
4, 28727, Note_on_c, 1, 54, 0
4, 28728, Note_on_c, 1, 63, 64
4, 28751, Note_on_c, 1, 63, 0
4, 28752, Note_on_c, 1, 60, 64
4, 28775, Note_on_c, 1, 60, 0
4, 28776, Note_on_c, 1, 63, 64
4, 28799, Note_on_c, 1, 63, 0
4, 28800, Note_on_c, 1, 53, 64
4, 28823, Note_on_c, 1, 53, 0
4, 28824, Note_on_c, 1, 63, 64
4, 28847, Note_on_c, 1, 63, 0
4, 28848, Note_on_c, 1, 60, 64
4, 28871, Note_on_c, 1, 60, 0
4, 28872, Note_on_c, 1, 63, 64
4, 28895, Note_on_c, 1, 63, 0
4, 28896, Note_on_c, 1, 53, 64
4, 28919, Note_on_c, 1, 53, 0
4, 28920, Note_on_c, 1, 63, 64
4, 28943, Note_on_c, 1, 63, 0
4, 28944, Note_on_c, 1, 60, 64
4, 28967, Note_on_c, 1, 60, 0
4, 28968, Note_on_c, 1, 63, 64
4, 28991, Note_on_c, 1, 63, 0
4, 28992, Note_on_c, 1, 55, 64
4, 29015, Note_on_c, 1, 55, 0
4, 29016, Note_on_c, 1, 62, 64
4, 29039, Note_on_c, 1, 62, 0
4, 29040, Note_on_c, 1, 58, 64
4, 29063, Note_on_c, 1, 58, 0
4, 29064, Note_on_c, 1, 62, 64
4, 29087, Note_on_c, 1, 62, 0
4, 29088, Note_on_c, 1, 51, 64
4, 29177, Note_on_c, 1, 51, 0
4, 29376, Note_on_c, 1, 67, 64
4, 29376, Note_on_c, 1, 63, 64
4, 29465, Note_on_c, 1, 67, 0
4, 29465, Note_on_c, 1, 63, 0
4, 30240, Note_on_c, 1, 62, 75
4, 30240, Note_on_c, 1, 53, 75
4, 30429, Note_on_c, 1, 62, 0
4, 30429, Note_on_c, 1, 53, 0
4, 30432, Note_on_c, 1, 63, 75
4, 30432, Note_on_c, 1, 53, 75
4, 30521, Note_on_c, 1, 63, 0
4, 30521, Note_on_c, 1, 53, 0
4, 30528, Note_on_c, 1, 58, 70
4, 30551, Note_on_c, 1, 58, 0
4, 30552, Note_on_c, 1, 65, 70
4, 30575, Note_on_c, 1, 65, 0
4, 30576, Note_on_c, 1, 62, 70
4, 30599, Note_on_c, 1, 62, 0
4, 30600, Note_on_c, 1, 65, 70
4, 30623, Note_on_c, 1, 65, 0
4, 30624, Note_on_c, 1, 58, 70
4, 30647, Note_on_c, 1, 58, 0
4, 30648, Note_on_c, 1, 65, 70
4, 30671, Note_on_c, 1, 65, 0
4, 30672, Note_on_c, 1, 62, 70
4, 30695, Note_on_c, 1, 62, 0
4, 30696, Note_on_c, 1, 65, 70
4, 30719, Note_on_c, 1, 65, 0
4, 30720, Note_on_c, 1, 58, 70
4, 30743, Note_on_c, 1, 58, 0
4, 30744, Note_on_c, 1, 65, 70
4, 30767, Note_on_c, 1, 65, 0
4, 30768, Note_on_c, 1, 62, 70
4, 30791, Note_on_c, 1, 62, 0
4, 30792, Note_on_c, 1, 65, 70
4, 30815, Note_on_c, 1, 65, 0
4, 30816, Note_on_c, 1, 57, 70
4, 30839, Note_on_c, 1, 57, 0
4, 30840, Note_on_c, 1, 65, 70
4, 30863, Note_on_c, 1, 65, 0
4, 30864, Note_on_c, 1, 60, 70
4, 30887, Note_on_c, 1, 60, 0
4, 30888, Note_on_c, 1, 65, 70
4, 30911, Note_on_c, 1, 65, 0
4, 30912, Note_on_c, 1, 57, 70
4, 30935, Note_on_c, 1, 57, 0
4, 30936, Note_on_c, 1, 65, 70
4, 30959, Note_on_c, 1, 65, 0
4, 30960, Note_on_c, 1, 60, 70
4, 30983, Note_on_c, 1, 60, 0
4, 30984, Note_on_c, 1, 65, 70
4, 31007, Note_on_c, 1, 65, 0
4, 31008, Note_on_c, 1, 57, 70
4, 31031, Note_on_c, 1, 57, 0
4, 31032, Note_on_c, 1, 65, 70
4, 31055, Note_on_c, 1, 65, 0
4, 31056, Note_on_c, 1, 60, 70
4, 31079, Note_on_c, 1, 60, 0
4, 31080, Note_on_c, 1, 65, 70
4, 31103, Note_on_c, 1, 65, 0
4, 31104, Note_on_c, 1, 58, 70
4, 31127, Note_on_c, 1, 58, 0
4, 31128, Note_on_c, 1, 65, 70
4, 31151, Note_on_c, 1, 65, 0
4, 31152, Note_on_c, 1, 62, 70
4, 31175, Note_on_c, 1, 62, 0
4, 31176, Note_on_c, 1, 65, 70
4, 31199, Note_on_c, 1, 65, 0
4, 31200, Note_on_c, 1, 58, 70
4, 31223, Note_on_c, 1, 58, 0
4, 31224, Note_on_c, 1, 65, 70
4, 31247, Note_on_c, 1, 65, 0
4, 31248, Note_on_c, 1, 62, 70
4, 31271, Note_on_c, 1, 62, 0
4, 31272, Note_on_c, 1, 65, 70
4, 31295, Note_on_c, 1, 65, 0
4, 31296, Note_on_c, 1, 58, 70
4, 31319, Note_on_c, 1, 58, 0
4, 31320, Note_on_c, 1, 65, 70
4, 31343, Note_on_c, 1, 65, 0
4, 31344, Note_on_c, 1, 62, 70
4, 31367, Note_on_c, 1, 62, 0
4, 31368, Note_on_c, 1, 65, 70
4, 31391, Note_on_c, 1, 65, 0
4, 31392, Note_on_c, 1, 57, 70
4, 31415, Note_on_c, 1, 57, 0
4, 31416, Note_on_c, 1, 65, 70
4, 31439, Note_on_c, 1, 65, 0
4, 31440, Note_on_c, 1, 60, 70
4, 31463, Note_on_c, 1, 60, 0
4, 31464, Note_on_c, 1, 65, 70
4, 31487, Note_on_c, 1, 65, 0
4, 31488, Note_on_c, 1, 57, 70
4, 31511, Note_on_c, 1, 57, 0
4, 31512, Note_on_c, 1, 65, 70
4, 31535, Note_on_c, 1, 65, 0
4, 31536, Note_on_c, 1, 60, 70
4, 31559, Note_on_c, 1, 60, 0
4, 31560, Note_on_c, 1, 65, 70
4, 31583, Note_on_c, 1, 65, 0
4, 31584, Note_on_c, 1, 57, 70
4, 31607, Note_on_c, 1, 57, 0
4, 31608, Note_on_c, 1, 65, 70
4, 31631, Note_on_c, 1, 65, 0
4, 31632, Note_on_c, 1, 60, 70
4, 31655, Note_on_c, 1, 60, 0
4, 31656, Note_on_c, 1, 65, 70
4, 31679, Note_on_c, 1, 65, 0
4, 31680, Note_on_c, 1, 58, 70
4, 31703, Note_on_c, 1, 58, 0
4, 31704, Note_on_c, 1, 65, 70
4, 31727, Note_on_c, 1, 65, 0
4, 31728, Note_on_c, 1, 62, 70
4, 31751, Note_on_c, 1, 62, 0
4, 31752, Note_on_c, 1, 65, 70
4, 31775, Note_on_c, 1, 65, 0
4, 31776, Note_on_c, 1, 58, 70
4, 31799, Note_on_c, 1, 58, 0
4, 31800, Note_on_c, 1, 65, 70
4, 31823, Note_on_c, 1, 65, 0
4, 31824, Note_on_c, 1, 62, 70
4, 31847, Note_on_c, 1, 62, 0
4, 31848, Note_on_c, 1, 65, 70
4, 31871, Note_on_c, 1, 65, 0
4, 31872, Note_on_c, 1, 58, 70
4, 31895, Note_on_c, 1, 58, 0
4, 31896, Note_on_c, 1, 65, 70
4, 31919, Note_on_c, 1, 65, 0
4, 31920, Note_on_c, 1, 62, 70
4, 31943, Note_on_c, 1, 62, 0
4, 31944, Note_on_c, 1, 65, 70
4, 31967, Note_on_c, 1, 65, 0
4, 31968, Note_on_c, 1, 57, 70
4, 31991, Note_on_c, 1, 57, 0
4, 31992, Note_on_c, 1, 65, 70
4, 32015, Note_on_c, 1, 65, 0
4, 32016, Note_on_c, 1, 60, 70
4, 32039, Note_on_c, 1, 60, 0
4, 32040, Note_on_c, 1, 65, 70
4, 32063, Note_on_c, 1, 65, 0
4, 32064, Note_on_c, 1, 57, 70
4, 32087, Note_on_c, 1, 57, 0
4, 32088, Note_on_c, 1, 65, 70
4, 32111, Note_on_c, 1, 65, 0
4, 32112, Note_on_c, 1, 60, 70
4, 32135, Note_on_c, 1, 60, 0
4, 32136, Note_on_c, 1, 65, 70
4, 32159, Note_on_c, 1, 65, 0
4, 32160, Note_on_c, 1, 57, 70
4, 32183, Note_on_c, 1, 57, 0
4, 32184, Note_on_c, 1, 65, 70
4, 32207, Note_on_c, 1, 65, 0
4, 32208, Note_on_c, 1, 60, 70
4, 32231, Note_on_c, 1, 60, 0
4, 32232, Note_on_c, 1, 65, 70
4, 32255, Note_on_c, 1, 65, 0
4, 32256, Note_on_c, 1, 58, 70
4, 32279, Note_on_c, 1, 58, 0
4, 32280, Note_on_c, 1, 65, 70
4, 32303, Note_on_c, 1, 65, 0
4, 32304, Note_on_c, 1, 62, 70
4, 32327, Note_on_c, 1, 62, 0
4, 32328, Note_on_c, 1, 65, 70
4, 32351, Note_on_c, 1, 65, 0
4, 32352, Note_on_c, 1, 58, 70
4, 32375, Note_on_c, 1, 58, 0
4, 32376, Note_on_c, 1, 65, 70
4, 32399, Note_on_c, 1, 65, 0
4, 32400, Note_on_c, 1, 62, 70
4, 32423, Note_on_c, 1, 62, 0
4, 32424, Note_on_c, 1, 65, 70
4, 32447, Note_on_c, 1, 65, 0
4, 32448, Note_on_c, 1, 58, 70
4, 32471, Note_on_c, 1, 58, 0
4, 32472, Note_on_c, 1, 65, 70
4, 32495, Note_on_c, 1, 65, 0
4, 32496, Note_on_c, 1, 62, 70
4, 32519, Note_on_c, 1, 62, 0
4, 32520, Note_on_c, 1, 65, 70
4, 32543, Note_on_c, 1, 65, 0
4, 32544, Note_on_c, 1, 57, 70
4, 32633, Note_on_c, 1, 57, 0
4, 32832, Note_on_c, 1, 58, 75
4, 32877, Note_on_c, 1, 58, 0
4, 32928, Note_on_c, 1, 65, 75
4, 32973, Note_on_c, 1, 65, 0
4, 33024, Note_on_c, 1, 67, 70
4, 33069, Note_on_c, 1, 67, 0
4, 33120, Note_on_c, 1, 62, 66
4, 33165, Note_on_c, 1, 62, 0
4, 33216, Note_on_c, 1, 63, 64
4, 33261, Note_on_c, 1, 63, 0
4, 33312, Note_on_c, 1, 71, 64
4, 33312, Note_on_c, 1, 67, 64
4, 33357, Note_on_c, 1, 71, 0
4, 33357, Note_on_c, 1, 67, 0
4, 33408, Note_on_c, 1, 68, 64
4, 33453, Note_on_c, 1, 68, 0
4, 34128, Note_on_c, 1, 68, 64
4, 34148, Note_on_c, 1, 68, 0
4, 34176, Note_on_c, 1, 68, 64
4, 34196, Note_on_c, 1, 68, 0
4, 34224, Note_on_c, 1, 68, 64
4, 34244, Note_on_c, 1, 68, 0
4, 34272, Note_on_c, 1, 68, 64
4, 34537, Note_on_c, 1, 68, 0
4, 34704, Note_on_c, 1, 56, 64
4, 34724, Note_on_c, 1, 56, 0
4, 34752, Note_on_c, 1, 56, 65
4, 34772, Note_on_c, 1, 56, 0
4, 34800, Note_on_c, 1, 56, 66
4, 34820, Note_on_c, 1, 56, 0
4, 34848, Note_on_c, 1, 56, 67
4, 34937, Note_on_c, 1, 56, 0
4, 34944, Note_on_c, 1, 55, 69
4, 35033, Note_on_c, 1, 55, 0
4, 35040, Note_on_c, 1, 54, 71
4, 35129, Note_on_c, 1, 54, 0
4, 35136, Note_on_c, 1, 62, 73
4, 35136, Note_on_c, 1, 58, 73
4, 35136, Note_on_c, 1, 53, 73
4, 35401, Note_on_c, 1, 62, 0
4, 35401, Note_on_c, 1, 58, 0
4, 35401, Note_on_c, 1, 53, 0
4, 35424, Note_on_c, 1, 63, 80
4, 35424, Note_on_c, 1, 60, 80
4, 35424, Note_on_c, 1, 53, 80
4, 35689, Note_on_c, 1, 63, 0
4, 35689, Note_on_c, 1, 60, 0
4, 35689, Note_on_c, 1, 53, 0
4, 35760, Note_on_c, 1, 62, 64
4, 35805, Note_on_c, 1, 62, 0
4, 35808, Note_on_c, 1, 63, 64
4, 35853, Note_on_c, 1, 63, 0
4, 35856, Note_on_c, 1, 64, 64
4, 35901, Note_on_c, 1, 64, 0
4, 35904, Note_on_c, 1, 65, 64
4, 35949, Note_on_c, 1, 65, 0
4, 35952, Note_on_c, 1, 66, 64
4, 35997, Note_on_c, 1, 66, 0
4, 36000, Note_on_c, 1, 67, 64
4, 36045, Note_on_c, 1, 67, 0
4, 36048, Note_on_c, 1, 65, 64
4, 36093, Note_on_c, 1, 65, 0
4, 36096, Note_on_c, 1, 63, 64
4, 36141, Note_on_c, 1, 63, 0
4, 36144, Note_on_c, 1, 62, 64
4, 36189, Note_on_c, 1, 62, 0
4, 36192, Note_on_c, 1, 60, 64
4, 36237, Note_on_c, 1, 60, 0
4, 36240, Note_on_c, 1, 63, 64
4, 36285, Note_on_c, 1, 63, 0
4, 36288, Note_on_c, 1, 62, 64
4, 36288, Note_on_c, 1, 58, 64
4, 36333, Note_on_c, 1, 62, 0
4, 36333, Note_on_c, 1, 58, 0
4, 36576, Note_on_c, 1, 53, 80
4, 36576, Note_on_c, 1, 41, 80
4, 36596, Note_on_c, 1, 53, 0
4, 36596, Note_on_c, 1, 41, 0
4, 36624, Note_on_c, 1, 52, 80
4, 36624, Note_on_c, 1, 40, 80
4, 36644, Note_on_c, 1, 52, 0
4, 36644, Note_on_c, 1, 40, 0
4, 36672, Note_on_c, 1, 51, 80
4, 36672, Note_on_c, 1, 39, 80
4, 36692, Note_on_c, 1, 51, 0
4, 36692, Note_on_c, 1, 39, 0
4, 36720, Note_on_c, 1, 50, 80
4, 36720, Note_on_c, 1, 38, 80
4, 36740, Note_on_c, 1, 50, 0
4, 36740, Note_on_c, 1, 38, 0
4, 36768, Note_on_c, 1, 48, 80
4, 36768, Note_on_c, 1, 36, 80
4, 36788, Note_on_c, 1, 48, 0
4, 36788, Note_on_c, 1, 36, 0
4, 36816, Note_on_c, 1, 53, 80
4, 36816, Note_on_c, 1, 41, 80
4, 36836, Note_on_c, 1, 53, 0
4, 36836, Note_on_c, 1, 41, 0
4, 36864, Note_on_c, 1, 46, 80
4, 36864, Note_on_c, 1, 34, 80
4, 36953, Note_on_c, 1, 46, 0
4, 36953, Note_on_c, 1, 34, 0
4, 37392, Note_on_c, 1, 53, 70
4, 37437, Note_on_c, 1, 53, 0
4, 37440, Note_on_c, 1, 55, 70
4, 37485, Note_on_c, 1, 55, 0
4, 37488, Note_on_c, 1, 53, 70
4, 37533, Note_on_c, 1, 53, 0
4, 37536, Note_on_c, 1, 51, 70
4, 37581, Note_on_c, 1, 51, 0
4, 37584, Note_on_c, 1, 50, 70
4, 37629, Note_on_c, 1, 50, 0
4, 37632, Note_on_c, 1, 48, 70
4, 37677, Note_on_c, 1, 48, 0
4, 37680, Note_on_c, 1, 53, 70
4, 37725, Note_on_c, 1, 53, 0
4, 37728, Note_on_c, 1, 46, 70
4, 37773, Note_on_c, 1, 46, 0
4, 37776, Note_on_c, 1, 58, 70
4, 37821, Note_on_c, 1, 58, 0
4, 37824, Note_on_c, 1, 60, 70
4, 37869, Note_on_c, 1, 60, 0
4, 37872, Note_on_c, 1, 58, 70
4, 37917, Note_on_c, 1, 58, 0
4, 37920, Note_on_c, 1, 56, 70
4, 37965, Note_on_c, 1, 56, 0
4, 37968, Note_on_c, 1, 55, 70
4, 38013, Note_on_c, 1, 55, 0
4, 38016, Note_on_c, 1, 53, 70
4, 38061, Note_on_c, 1, 53, 0
4, 38064, Note_on_c, 1, 60, 70
4, 38109, Note_on_c, 1, 60, 0
4, 38112, Note_on_c, 1, 58, 70
4, 38157, Note_on_c, 1, 58, 0
4, 38160, Note_on_c, 1, 56, 70
4, 38205, Note_on_c, 1, 56, 0
4, 38208, Note_on_c, 1, 55, 70
4, 38253, Note_on_c, 1, 55, 0
4, 38256, Note_on_c, 1, 53, 70
4, 38301, Note_on_c, 1, 53, 0
4, 38304, Note_on_c, 1, 51, 70
4, 38349, Note_on_c, 1, 51, 0
4, 38352, Note_on_c, 1, 58, 70
4, 38397, Note_on_c, 1, 58, 0
4, 38400, Note_on_c, 1, 56, 70
4, 38445, Note_on_c, 1, 56, 0
4, 38448, Note_on_c, 1, 55, 70
4, 38493, Note_on_c, 1, 55, 0
4, 38496, Note_on_c, 1, 53, 70
4, 38541, Note_on_c, 1, 53, 0
4, 38544, Note_on_c, 1, 51, 70
4, 38589, Note_on_c, 1, 51, 0
4, 38592, Note_on_c, 1, 50, 70
4, 38637, Note_on_c, 1, 50, 0
4, 38640, Note_on_c, 1, 56, 70
4, 38685, Note_on_c, 1, 56, 0
4, 38688, Note_on_c, 1, 55, 70
4, 38733, Note_on_c, 1, 55, 0
4, 38736, Note_on_c, 1, 53, 70
4, 38781, Note_on_c, 1, 53, 0
4, 38784, Note_on_c, 1, 51, 70
4, 38829, Note_on_c, 1, 51, 0
4, 38832, Note_on_c, 1, 50, 70
4, 38877, Note_on_c, 1, 50, 0
4, 38880, Note_on_c, 1, 48, 70
4, 38925, Note_on_c, 1, 48, 0
4, 38928, Note_on_c, 1, 60, 70
4, 38973, Note_on_c, 1, 60, 0
4, 38976, Note_on_c, 1, 61, 70
4, 39021, Note_on_c, 1, 61, 0
4, 39024, Note_on_c, 1, 60, 70
4, 39069, Note_on_c, 1, 60, 0
4, 39072, Note_on_c, 1, 58, 70
4, 39117, Note_on_c, 1, 58, 0
4, 39120, Note_on_c, 1, 56, 70
4, 39165, Note_on_c, 1, 56, 0
4, 39168, Note_on_c, 1, 55, 70
4, 39213, Note_on_c, 1, 55, 0
4, 39216, Note_on_c, 1, 61, 70
4, 39261, Note_on_c, 1, 61, 0
4, 39264, Note_on_c, 1, 60, 70
4, 39309, Note_on_c, 1, 60, 0
4, 39312, Note_on_c, 1, 58, 70
4, 39357, Note_on_c, 1, 58, 0
4, 39360, Note_on_c, 1, 56, 70
4, 39405, Note_on_c, 1, 56, 0
4, 39408, Note_on_c, 1, 55, 70
4, 39453, Note_on_c, 1, 55, 0
4, 39456, Note_on_c, 1, 56, 70
4, 39501, Note_on_c, 1, 56, 0
4, 39504, Note_on_c, 1, 58, 70
4, 39549, Note_on_c, 1, 58, 0
4, 39552, Note_on_c, 1, 56, 70
4, 39597, Note_on_c, 1, 56, 0
4, 39600, Note_on_c, 1, 55, 70
4, 39645, Note_on_c, 1, 55, 0
4, 39648, Note_on_c, 1, 53, 70
4, 39693, Note_on_c, 1, 53, 0
4, 39696, Note_on_c, 1, 51, 70
4, 39741, Note_on_c, 1, 51, 0
4, 39744, Note_on_c, 1, 50, 70
4, 39789, Note_on_c, 1, 50, 0
4, 39792, Note_on_c, 1, 48, 70
4, 39837, Note_on_c, 1, 48, 0
4, 39840, Note_on_c, 1, 47, 70
4, 39885, Note_on_c, 1, 47, 0
4, 39888, Note_on_c, 1, 43, 70
4, 39933, Note_on_c, 1, 43, 0
4, 39936, Note_on_c, 1, 45, 70
4, 39981, Note_on_c, 1, 45, 0
4, 39984, Note_on_c, 1, 47, 70
4, 40029, Note_on_c, 1, 47, 0
4, 40032, Note_on_c, 1, 48, 70
4, 40077, Note_on_c, 1, 48, 0
4, 40080, Note_on_c, 1, 50, 70
4, 40125, Note_on_c, 1, 50, 0
4, 40128, Note_on_c, 1, 51, 70
4, 40173, Note_on_c, 1, 51, 0
4, 40176, Note_on_c, 1, 52, 70
4, 40221, Note_on_c, 1, 52, 0
4, 40224, Note_on_c, 1, 53, 70
4, 40269, Note_on_c, 1, 53, 0
4, 40272, Note_on_c, 1, 54, 70
4, 40317, Note_on_c, 1, 54, 0
4, 40464, Note_on_c, 1, 59, 70
4, 40509, Note_on_c, 1, 59, 0
4, 40512, Note_on_c, 1, 60, 70
4, 40557, Note_on_c, 1, 60, 0
4, 40560, Note_on_c, 1, 62, 70
4, 40605, Note_on_c, 1, 62, 0
4, 40608, Note_on_c, 1, 63, 70
4, 40785, Note_on_c, 1, 63, 0
4, 40800, Note_on_c, 1, 60, 70
4, 40889, Note_on_c, 1, 60, 0
4, 40896, Note_on_c, 1, 59, 70
4, 41029, Note_on_c, 1, 59, 0
4, 41040, Note_on_c, 1, 59, 70
4, 41085, Note_on_c, 1, 59, 0
4, 41088, Note_on_c, 1, 60, 70
4, 41133, Note_on_c, 1, 60, 0
4, 41136, Note_on_c, 1, 62, 70
4, 41181, Note_on_c, 1, 62, 0
4, 41184, Note_on_c, 1, 63, 70
4, 41361, Note_on_c, 1, 63, 0
4, 41376, Note_on_c, 1, 60, 70
4, 41465, Note_on_c, 1, 60, 0
4, 41472, Note_on_c, 1, 59, 70
4, 41566, Note_on_c, 1, 59, 0
4, 41760, Note_on_c, 1, 51, 75
4, 41760, Note_on_c, 1, 48, 75
4, 41805, Note_on_c, 1, 51, 0
4, 41805, Note_on_c, 1, 48, 0
4, 41856, Note_on_c, 1, 63, 75
4, 41856, Note_on_c, 1, 60, 75
4, 41876, Note_on_c, 1, 63, 0
4, 41876, Note_on_c, 1, 60, 0
4, 42048, Note_on_c, 1, 47, 75
4, 42048, Note_on_c, 1, 43, 75
4, 42093, Note_on_c, 1, 47, 0
4, 42093, Note_on_c, 1, 43, 0
4, 42144, Note_on_c, 1, 59, 75
4, 42144, Note_on_c, 1, 55, 75
4, 42164, Note_on_c, 1, 59, 0
4, 42164, Note_on_c, 1, 55, 0
4, 42336, Note_on_c, 1, 47, 75
4, 42336, Note_on_c, 1, 43, 75
4, 42381, Note_on_c, 1, 47, 0
4, 42381, Note_on_c, 1, 43, 0
4, 42432, Note_on_c, 1, 59, 75
4, 42432, Note_on_c, 1, 55, 75
4, 42452, Note_on_c, 1, 59, 0
4, 42452, Note_on_c, 1, 55, 0
4, 42624, Note_on_c, 1, 60, 70
4, 42647, Note_on_c, 1, 60, 0
4, 42648, Note_on_c, 1, 67, 70
4, 42671, Note_on_c, 1, 67, 0
4, 42672, Note_on_c, 1, 63, 70
4, 42695, Note_on_c, 1, 63, 0
4, 42696, Note_on_c, 1, 67, 70
4, 42719, Note_on_c, 1, 67, 0
4, 42720, Note_on_c, 1, 60, 70
4, 42743, Note_on_c, 1, 60, 0
4, 42744, Note_on_c, 1, 67, 70
4, 42767, Note_on_c, 1, 67, 0
4, 42768, Note_on_c, 1, 63, 70
4, 42791, Note_on_c, 1, 63, 0
4, 42792, Note_on_c, 1, 67, 70
4, 42815, Note_on_c, 1, 67, 0
4, 42816, Note_on_c, 1, 60, 70
4, 42839, Note_on_c, 1, 60, 0
4, 42840, Note_on_c, 1, 67, 70
4, 42863, Note_on_c, 1, 67, 0
4, 42864, Note_on_c, 1, 63, 70
4, 42887, Note_on_c, 1, 63, 0
4, 42888, Note_on_c, 1, 67, 70
4, 42911, Note_on_c, 1, 67, 0
4, 42912, Note_on_c, 1, 62, 70
4, 42935, Note_on_c, 1, 62, 0
4, 42936, Note_on_c, 1, 67, 70
4, 42959, Note_on_c, 1, 67, 0
4, 42960, Note_on_c, 1, 65, 70
4, 42983, Note_on_c, 1, 65, 0
4, 42984, Note_on_c, 1, 67, 70
4, 43007, Note_on_c, 1, 67, 0
4, 43008, Note_on_c, 1, 62, 70
4, 43031, Note_on_c, 1, 62, 0
4, 43032, Note_on_c, 1, 67, 70
4, 43055, Note_on_c, 1, 67, 0
4, 43056, Note_on_c, 1, 60, 70
4, 43079, Note_on_c, 1, 60, 0
4, 43080, Note_on_c, 1, 67, 70
4, 43103, Note_on_c, 1, 67, 0
4, 43104, Note_on_c, 1, 59, 70
4, 43127, Note_on_c, 1, 59, 0
4, 43128, Note_on_c, 1, 67, 70
4, 43151, Note_on_c, 1, 67, 0
4, 43152, Note_on_c, 1, 62, 70
4, 43175, Note_on_c, 1, 62, 0
4, 43176, Note_on_c, 1, 67, 70
4, 43199, Note_on_c, 1, 67, 0
4, 43200, Note_on_c, 1, 60, 70
4, 43223, Note_on_c, 1, 60, 0
4, 43224, Note_on_c, 1, 67, 70
4, 43247, Note_on_c, 1, 67, 0
4, 43248, Note_on_c, 1, 63, 70
4, 43271, Note_on_c, 1, 63, 0
4, 43272, Note_on_c, 1, 67, 70
4, 43295, Note_on_c, 1, 67, 0
4, 43296, Note_on_c, 1, 60, 70
4, 43319, Note_on_c, 1, 60, 0
4, 43320, Note_on_c, 1, 67, 70
4, 43343, Note_on_c, 1, 67, 0
4, 43344, Note_on_c, 1, 63, 70
4, 43367, Note_on_c, 1, 63, 0
4, 43368, Note_on_c, 1, 67, 70
4, 43391, Note_on_c, 1, 67, 0
4, 43392, Note_on_c, 1, 60, 70
4, 43415, Note_on_c, 1, 60, 0
4, 43416, Note_on_c, 1, 67, 70
4, 43439, Note_on_c, 1, 67, 0
4, 43440, Note_on_c, 1, 63, 70
4, 43463, Note_on_c, 1, 63, 0
4, 43464, Note_on_c, 1, 67, 70
4, 43487, Note_on_c, 1, 67, 0
4, 43488, Note_on_c, 1, 58, 70
4, 43511, Note_on_c, 1, 58, 0
4, 43512, Note_on_c, 1, 67, 70
4, 43535, Note_on_c, 1, 67, 0
4, 43536, Note_on_c, 1, 63, 70
4, 43559, Note_on_c, 1, 63, 0
4, 43560, Note_on_c, 1, 67, 70
4, 43583, Note_on_c, 1, 67, 0
4, 43584, Note_on_c, 1, 58, 70
4, 43607, Note_on_c, 1, 58, 0
4, 43608, Note_on_c, 1, 67, 70
4, 43631, Note_on_c, 1, 67, 0
4, 43632, Note_on_c, 1, 63, 70
4, 43655, Note_on_c, 1, 63, 0
4, 43656, Note_on_c, 1, 67, 70
4, 43679, Note_on_c, 1, 67, 0
4, 43680, Note_on_c, 1, 58, 70
4, 43703, Note_on_c, 1, 58, 0
4, 43704, Note_on_c, 1, 67, 70
4, 43727, Note_on_c, 1, 67, 0
4, 43728, Note_on_c, 1, 63, 70
4, 43751, Note_on_c, 1, 63, 0
4, 43752, Note_on_c, 1, 67, 70
4, 43775, Note_on_c, 1, 67, 0
4, 43776, Note_on_c, 1, 56, 70
4, 43799, Note_on_c, 1, 56, 0
4, 43800, Note_on_c, 1, 63, 70
4, 43823, Note_on_c, 1, 63, 0
4, 43824, Note_on_c, 1, 60, 70
4, 43847, Note_on_c, 1, 60, 0
4, 43848, Note_on_c, 1, 63, 70
4, 43871, Note_on_c, 1, 63, 0
4, 43872, Note_on_c, 1, 56, 70
4, 43895, Note_on_c, 1, 56, 0
4, 43896, Note_on_c, 1, 63, 70
4, 43919, Note_on_c, 1, 63, 0
4, 43920, Note_on_c, 1, 60, 70
4, 43943, Note_on_c, 1, 60, 0
4, 43944, Note_on_c, 1, 63, 70
4, 43967, Note_on_c, 1, 63, 0
4, 43968, Note_on_c, 1, 56, 70
4, 43991, Note_on_c, 1, 56, 0
4, 43992, Note_on_c, 1, 63, 70
4, 44015, Note_on_c, 1, 63, 0
4, 44016, Note_on_c, 1, 60, 70
4, 44039, Note_on_c, 1, 60, 0
4, 44040, Note_on_c, 1, 63, 70
4, 44063, Note_on_c, 1, 63, 0
4, 44064, Note_on_c, 1, 58, 70
4, 44087, Note_on_c, 1, 58, 0
4, 44088, Note_on_c, 1, 63, 70
4, 44111, Note_on_c, 1, 63, 0
4, 44112, Note_on_c, 1, 61, 70
4, 44135, Note_on_c, 1, 61, 0
4, 44136, Note_on_c, 1, 63, 70
4, 44159, Note_on_c, 1, 63, 0
4, 44160, Note_on_c, 1, 58, 70
4, 44183, Note_on_c, 1, 58, 0
4, 44184, Note_on_c, 1, 63, 70
4, 44207, Note_on_c, 1, 63, 0
4, 44208, Note_on_c, 1, 56, 70
4, 44231, Note_on_c, 1, 56, 0
4, 44232, Note_on_c, 1, 63, 70
4, 44255, Note_on_c, 1, 63, 0
4, 44256, Note_on_c, 1, 55, 70
4, 44279, Note_on_c, 1, 55, 0
4, 44280, Note_on_c, 1, 63, 70
4, 44303, Note_on_c, 1, 63, 0
4, 44304, Note_on_c, 1, 58, 70
4, 44327, Note_on_c, 1, 58, 0
4, 44328, Note_on_c, 1, 63, 70
4, 44351, Note_on_c, 1, 63, 0
4, 44352, Note_on_c, 1, 56, 70
4, 44375, Note_on_c, 1, 56, 0
4, 44376, Note_on_c, 1, 63, 70
4, 44399, Note_on_c, 1, 63, 0
4, 44400, Note_on_c, 1, 60, 70
4, 44423, Note_on_c, 1, 60, 0
4, 44424, Note_on_c, 1, 63, 70
4, 44447, Note_on_c, 1, 63, 0
4, 44448, Note_on_c, 1, 56, 70
4, 44471, Note_on_c, 1, 56, 0
4, 44472, Note_on_c, 1, 63, 70
4, 44495, Note_on_c, 1, 63, 0
4, 44496, Note_on_c, 1, 60, 70
4, 44519, Note_on_c, 1, 60, 0
4, 44520, Note_on_c, 1, 63, 70
4, 44543, Note_on_c, 1, 63, 0
4, 44544, Note_on_c, 1, 56, 70
4, 44567, Note_on_c, 1, 56, 0
4, 44568, Note_on_c, 1, 63, 70
4, 44591, Note_on_c, 1, 63, 0
4, 44592, Note_on_c, 1, 60, 70
4, 44615, Note_on_c, 1, 60, 0
4, 44616, Note_on_c, 1, 63, 70
4, 44639, Note_on_c, 1, 63, 0
4, 44640, Note_on_c, 1, 55, 70
4, 44663, Note_on_c, 1, 55, 0
4, 44664, Note_on_c, 1, 64, 70
4, 44687, Note_on_c, 1, 64, 0
4, 44688, Note_on_c, 1, 58, 70
4, 44711, Note_on_c, 1, 58, 0
4, 44712, Note_on_c, 1, 64, 70
4, 44735, Note_on_c, 1, 64, 0
4, 44736, Note_on_c, 1, 55, 70
4, 44759, Note_on_c, 1, 55, 0
4, 44760, Note_on_c, 1, 64, 70
4, 44783, Note_on_c, 1, 64, 0
4, 44784, Note_on_c, 1, 58, 70
4, 44807, Note_on_c, 1, 58, 0
4, 44808, Note_on_c, 1, 64, 70
4, 44831, Note_on_c, 1, 64, 0
4, 44832, Note_on_c, 1, 55, 70
4, 44855, Note_on_c, 1, 55, 0
4, 44856, Note_on_c, 1, 64, 70
4, 44879, Note_on_c, 1, 64, 0
4, 44880, Note_on_c, 1, 58, 70
4, 44903, Note_on_c, 1, 58, 0
4, 44904, Note_on_c, 1, 64, 70
4, 44927, Note_on_c, 1, 64, 0
4, 44928, Note_on_c, 1, 53, 70
4, 44951, Note_on_c, 1, 53, 0
4, 44952, Note_on_c, 1, 60, 70
4, 44975, Note_on_c, 1, 60, 0
4, 44976, Note_on_c, 1, 56, 70
4, 44999, Note_on_c, 1, 56, 0
4, 45000, Note_on_c, 1, 60, 70
4, 45023, Note_on_c, 1, 60, 0
4, 45024, Note_on_c, 1, 53, 70
4, 45047, Note_on_c, 1, 53, 0
4, 45048, Note_on_c, 1, 60, 70
4, 45071, Note_on_c, 1, 60, 0
4, 45072, Note_on_c, 1, 56, 70
4, 45095, Note_on_c, 1, 56, 0
4, 45096, Note_on_c, 1, 60, 70
4, 45119, Note_on_c, 1, 60, 0
4, 45120, Note_on_c, 1, 53, 70
4, 45143, Note_on_c, 1, 53, 0
4, 45144, Note_on_c, 1, 60, 70
4, 45167, Note_on_c, 1, 60, 0
4, 45168, Note_on_c, 1, 56, 70
4, 45191, Note_on_c, 1, 56, 0
4, 45192, Note_on_c, 1, 60, 70
4, 45215, Note_on_c, 1, 60, 0
4, 45216, Note_on_c, 1, 55, 70
4, 45239, Note_on_c, 1, 55, 0
4, 45240, Note_on_c, 1, 60, 70
4, 45263, Note_on_c, 1, 60, 0
4, 45264, Note_on_c, 1, 58, 70
4, 45287, Note_on_c, 1, 58, 0
4, 45288, Note_on_c, 1, 60, 70
4, 45311, Note_on_c, 1, 60, 0
4, 45312, Note_on_c, 1, 55, 70
4, 45335, Note_on_c, 1, 55, 0
4, 45336, Note_on_c, 1, 60, 70
4, 45359, Note_on_c, 1, 60, 0
4, 45360, Note_on_c, 1, 53, 70
4, 45383, Note_on_c, 1, 53, 0
4, 45384, Note_on_c, 1, 60, 70
4, 45407, Note_on_c, 1, 60, 0
4, 45408, Note_on_c, 1, 52, 70
4, 45431, Note_on_c, 1, 52, 0
4, 45432, Note_on_c, 1, 60, 70
4, 45455, Note_on_c, 1, 60, 0
4, 45456, Note_on_c, 1, 55, 70
4, 45479, Note_on_c, 1, 55, 0
4, 45480, Note_on_c, 1, 60, 70
4, 45503, Note_on_c, 1, 60, 0
4, 45504, Note_on_c, 1, 53, 70
4, 45527, Note_on_c, 1, 53, 0
4, 45528, Note_on_c, 1, 60, 70
4, 45551, Note_on_c, 1, 60, 0
4, 45552, Note_on_c, 1, 56, 70
4, 45575, Note_on_c, 1, 56, 0
4, 45576, Note_on_c, 1, 60, 70
4, 45599, Note_on_c, 1, 60, 0
4, 45600, Note_on_c, 1, 53, 70
4, 45623, Note_on_c, 1, 53, 0
4, 45624, Note_on_c, 1, 60, 70
4, 45647, Note_on_c, 1, 60, 0
4, 45648, Note_on_c, 1, 56, 70
4, 45671, Note_on_c, 1, 56, 0
4, 45672, Note_on_c, 1, 60, 70
4, 45695, Note_on_c, 1, 60, 0
4, 45696, Note_on_c, 1, 53, 70
4, 45719, Note_on_c, 1, 53, 0
4, 45720, Note_on_c, 1, 60, 70
4, 45743, Note_on_c, 1, 60, 0
4, 45744, Note_on_c, 1, 56, 70
4, 45767, Note_on_c, 1, 56, 0
4, 45768, Note_on_c, 1, 60, 70
4, 45791, Note_on_c, 1, 60, 0
4, 45792, Note_on_c, 1, 51, 70
4, 45815, Note_on_c, 1, 51, 0
4, 45816, Note_on_c, 1, 60, 70
4, 45839, Note_on_c, 1, 60, 0
4, 45840, Note_on_c, 1, 56, 70
4, 45863, Note_on_c, 1, 56, 0
4, 45864, Note_on_c, 1, 60, 70
4, 45887, Note_on_c, 1, 60, 0
4, 45888, Note_on_c, 1, 51, 70
4, 45911, Note_on_c, 1, 51, 0
4, 45912, Note_on_c, 1, 60, 70
4, 45935, Note_on_c, 1, 60, 0
4, 45936, Note_on_c, 1, 56, 70
4, 45959, Note_on_c, 1, 56, 0
4, 45960, Note_on_c, 1, 60, 70
4, 45983, Note_on_c, 1, 60, 0
4, 45984, Note_on_c, 1, 51, 70
4, 46007, Note_on_c, 1, 51, 0
4, 46008, Note_on_c, 1, 60, 70
4, 46031, Note_on_c, 1, 60, 0
4, 46032, Note_on_c, 1, 56, 70
4, 46055, Note_on_c, 1, 56, 0
4, 46056, Note_on_c, 1, 60, 70
4, 46079, Note_on_c, 1, 60, 0
4, 46080, Note_on_c, 1, 49, 70
4, 46103, Note_on_c, 1, 49, 0
4, 46104, Note_on_c, 1, 56, 70
4, 46127, Note_on_c, 1, 56, 0
4, 46128, Note_on_c, 1, 53, 70
4, 46151, Note_on_c, 1, 53, 0
4, 46152, Note_on_c, 1, 56, 70
4, 46175, Note_on_c, 1, 56, 0
4, 46176, Note_on_c, 1, 49, 70
4, 46199, Note_on_c, 1, 49, 0
4, 46200, Note_on_c, 1, 56, 70
4, 46223, Note_on_c, 1, 56, 0
4, 46224, Note_on_c, 1, 53, 70
4, 46247, Note_on_c, 1, 53, 0
4, 46248, Note_on_c, 1, 56, 70
4, 46271, Note_on_c, 1, 56, 0
4, 46272, Note_on_c, 1, 49, 70
4, 46295, Note_on_c, 1, 49, 0
4, 46296, Note_on_c, 1, 56, 70
4, 46319, Note_on_c, 1, 56, 0
4, 46320, Note_on_c, 1, 53, 70
4, 46343, Note_on_c, 1, 53, 0
4, 46344, Note_on_c, 1, 56, 70
4, 46367, Note_on_c, 1, 56, 0
4, 46368, Note_on_c, 1, 48, 70
4, 46391, Note_on_c, 1, 48, 0
4, 46392, Note_on_c, 1, 56, 70
4, 46415, Note_on_c, 1, 56, 0
4, 46416, Note_on_c, 1, 51, 70
4, 46439, Note_on_c, 1, 51, 0
4, 46440, Note_on_c, 1, 56, 70
4, 46463, Note_on_c, 1, 56, 0
4, 46464, Note_on_c, 1, 48, 70
4, 46487, Note_on_c, 1, 48, 0
4, 46488, Note_on_c, 1, 56, 70
4, 46511, Note_on_c, 1, 56, 0
4, 46512, Note_on_c, 1, 51, 70
4, 46535, Note_on_c, 1, 51, 0
4, 46536, Note_on_c, 1, 56, 70
4, 46559, Note_on_c, 1, 56, 0
4, 46560, Note_on_c, 1, 48, 70
4, 46583, Note_on_c, 1, 48, 0
4, 46584, Note_on_c, 1, 56, 70
4, 46607, Note_on_c, 1, 56, 0
4, 46608, Note_on_c, 1, 51, 70
4, 46631, Note_on_c, 1, 51, 0
4, 46632, Note_on_c, 1, 56, 70
4, 46655, Note_on_c, 1, 56, 0
4, 46656, Note_on_c, 1, 49, 70
4, 46679, Note_on_c, 1, 49, 0
4, 46680, Note_on_c, 1, 56, 70
4, 46703, Note_on_c, 1, 56, 0
4, 46704, Note_on_c, 1, 53, 70
4, 46727, Note_on_c, 1, 53, 0
4, 46728, Note_on_c, 1, 56, 70
4, 46751, Note_on_c, 1, 56, 0
4, 46752, Note_on_c, 1, 49, 70
4, 46775, Note_on_c, 1, 49, 0
4, 46776, Note_on_c, 1, 56, 70
4, 46799, Note_on_c, 1, 56, 0
4, 46800, Note_on_c, 1, 53, 70
4, 46823, Note_on_c, 1, 53, 0
4, 46824, Note_on_c, 1, 56, 70
4, 46847, Note_on_c, 1, 56, 0
4, 46848, Note_on_c, 1, 49, 70
4, 46871, Note_on_c, 1, 49, 0
4, 46872, Note_on_c, 1, 56, 70
4, 46895, Note_on_c, 1, 56, 0
4, 46896, Note_on_c, 1, 53, 70
4, 46919, Note_on_c, 1, 53, 0
4, 46920, Note_on_c, 1, 56, 70
4, 46943, Note_on_c, 1, 56, 0
4, 46944, Note_on_c, 1, 48, 70
4, 46967, Note_on_c, 1, 48, 0
4, 46968, Note_on_c, 1, 56, 70
4, 46991, Note_on_c, 1, 56, 0
4, 46992, Note_on_c, 1, 51, 70
4, 47015, Note_on_c, 1, 51, 0
4, 47016, Note_on_c, 1, 56, 70
4, 47039, Note_on_c, 1, 56, 0
4, 47040, Note_on_c, 1, 48, 70
4, 47063, Note_on_c, 1, 48, 0
4, 47064, Note_on_c, 1, 56, 70
4, 47087, Note_on_c, 1, 56, 0
4, 47088, Note_on_c, 1, 51, 70
4, 47111, Note_on_c, 1, 51, 0
4, 47112, Note_on_c, 1, 56, 70
4, 47135, Note_on_c, 1, 56, 0
4, 47136, Note_on_c, 1, 48, 70
4, 47159, Note_on_c, 1, 48, 0
4, 47160, Note_on_c, 1, 56, 70
4, 47183, Note_on_c, 1, 56, 0
4, 47184, Note_on_c, 1, 51, 70
4, 47207, Note_on_c, 1, 51, 0
4, 47208, Note_on_c, 1, 56, 70
4, 47231, Note_on_c, 1, 56, 0
4, 47232, Note_on_c, 1, 49, 70
4, 47255, Note_on_c, 1, 49, 0
4, 47256, Note_on_c, 1, 56, 70
4, 47279, Note_on_c, 1, 56, 0
4, 47280, Note_on_c, 1, 53, 70
4, 47303, Note_on_c, 1, 53, 0
4, 47304, Note_on_c, 1, 56, 70
4, 47327, Note_on_c, 1, 56, 0
4, 47328, Note_on_c, 1, 49, 70
4, 47351, Note_on_c, 1, 49, 0
4, 47352, Note_on_c, 1, 56, 70
4, 47375, Note_on_c, 1, 56, 0
4, 47376, Note_on_c, 1, 53, 70
4, 47399, Note_on_c, 1, 53, 0
4, 47400, Note_on_c, 1, 56, 70
4, 47423, Note_on_c, 1, 56, 0
4, 47424, Note_on_c, 1, 49, 70
4, 47447, Note_on_c, 1, 49, 0
4, 47448, Note_on_c, 1, 56, 70
4, 47471, Note_on_c, 1, 56, 0
4, 47472, Note_on_c, 1, 53, 70
4, 47495, Note_on_c, 1, 53, 0
4, 47496, Note_on_c, 1, 56, 70
4, 47519, Note_on_c, 1, 56, 0
4, 47520, Note_on_c, 1, 48, 70
4, 47543, Note_on_c, 1, 48, 0
4, 47544, Note_on_c, 1, 56, 70
4, 47567, Note_on_c, 1, 56, 0
4, 47568, Note_on_c, 1, 53, 70
4, 47591, Note_on_c, 1, 53, 0
4, 47592, Note_on_c, 1, 56, 70
4, 47615, Note_on_c, 1, 56, 0
4, 47616, Note_on_c, 1, 48, 70
4, 47639, Note_on_c, 1, 48, 0
4, 47640, Note_on_c, 1, 56, 70
4, 47663, Note_on_c, 1, 56, 0
4, 47664, Note_on_c, 1, 53, 70
4, 47687, Note_on_c, 1, 53, 0
4, 47688, Note_on_c, 1, 56, 70
4, 47711, Note_on_c, 1, 56, 0
4, 47712, Note_on_c, 1, 48, 70
4, 47735, Note_on_c, 1, 48, 0
4, 47736, Note_on_c, 1, 56, 70
4, 47759, Note_on_c, 1, 56, 0
4, 47760, Note_on_c, 1, 53, 70
4, 47783, Note_on_c, 1, 53, 0
4, 47784, Note_on_c, 1, 56, 70
4, 47807, Note_on_c, 1, 56, 0
4, 47808, Note_on_c, 1, 47, 70
4, 47831, Note_on_c, 1, 47, 0
4, 47832, Note_on_c, 1, 56, 70
4, 47855, Note_on_c, 1, 56, 0
4, 47856, Note_on_c, 1, 53, 70
4, 47879, Note_on_c, 1, 53, 0
4, 47880, Note_on_c, 1, 56, 70
4, 47903, Note_on_c, 1, 56, 0
4, 47904, Note_on_c, 1, 47, 70
4, 47927, Note_on_c, 1, 47, 0
4, 47928, Note_on_c, 1, 56, 70
4, 47951, Note_on_c, 1, 56, 0
4, 47952, Note_on_c, 1, 53, 71
4, 47975, Note_on_c, 1, 53, 0
4, 47976, Note_on_c, 1, 56, 72
4, 47999, Note_on_c, 1, 56, 0
4, 48000, Note_on_c, 1, 47, 73
4, 48023, Note_on_c, 1, 47, 0
4, 48024, Note_on_c, 1, 56, 74
4, 48047, Note_on_c, 1, 56, 0
4, 48048, Note_on_c, 1, 53, 75
4, 48071, Note_on_c, 1, 53, 0
4, 48072, Note_on_c, 1, 56, 75
4, 48095, Note_on_c, 1, 56, 0
4, 48096, Note_on_c, 1, 48, 76
4, 48185, Note_on_c, 1, 48, 0
4, 48288, Note_on_c, 1, 64, 80
4, 48288, Note_on_c, 1, 60, 80
4, 48377, Note_on_c, 1, 64, 0
4, 48377, Note_on_c, 1, 60, 0
4, 48384, Note_on_c, 1, 65, 80
4, 48384, Note_on_c, 1, 60, 80
4, 48473, Note_on_c, 1, 65, 0
4, 48473, Note_on_c, 1, 60, 0
4, 48576, Note_on_c, 1, 68, 80
4, 48576, Note_on_c, 1, 60, 80
4, 48665, Note_on_c, 1, 68, 0
4, 48665, Note_on_c, 1, 60, 0
4, 48672, Note_on_c, 1, 67, 80
4, 48672, Note_on_c, 1, 60, 80
4, 48761, Note_on_c, 1, 67, 0
4, 48761, Note_on_c, 1, 60, 0
4, 48816, Note_on_c, 1, 64, 80
4, 48816, Note_on_c, 1, 60, 80
4, 48836, Note_on_c, 1, 64, 0
4, 48836, Note_on_c, 1, 60, 0
4, 48864, Note_on_c, 1, 64, 80
4, 48864, Note_on_c, 1, 60, 80
4, 48884, Note_on_c, 1, 64, 0
4, 48884, Note_on_c, 1, 60, 0
4, 48912, Note_on_c, 1, 64, 80
4, 48912, Note_on_c, 1, 60, 80
4, 48932, Note_on_c, 1, 64, 0
4, 48932, Note_on_c, 1, 60, 0
4, 48960, Note_on_c, 1, 65, 80
4, 48960, Note_on_c, 1, 60, 80
4, 49049, Note_on_c, 1, 65, 0
4, 49049, Note_on_c, 1, 60, 0
4, 49104, Note_on_c, 1, 68, 80
4, 49104, Note_on_c, 1, 60, 80
4, 49124, Note_on_c, 1, 68, 0
4, 49124, Note_on_c, 1, 60, 0
4, 49152, Note_on_c, 1, 68, 80
4, 49152, Note_on_c, 1, 60, 80
4, 49172, Note_on_c, 1, 68, 0
4, 49172, Note_on_c, 1, 60, 0
4, 49200, Note_on_c, 1, 68, 80
4, 49200, Note_on_c, 1, 60, 80
4, 49220, Note_on_c, 1, 68, 0
4, 49220, Note_on_c, 1, 60, 0
4, 49248, Note_on_c, 1, 67, 80
4, 49248, Note_on_c, 1, 60, 80
4, 49381, Note_on_c, 1, 67, 0
4, 49381, Note_on_c, 1, 60, 0
4, 49968, Note_on_c, 1, 40, 75
4, 49988, Note_on_c, 1, 40, 0
4, 50016, Note_on_c, 1, 40, 75
4, 50036, Note_on_c, 1, 40, 0
4, 50064, Note_on_c, 1, 40, 75
4, 50084, Note_on_c, 1, 40, 0
4, 50112, Note_on_c, 1, 40, 75
4, 50151, Note_on_c, 1, 40, 0
4, 50256, Note_on_c, 1, 67, 64
4, 50256, Note_on_c, 1, 64, 64
4, 50276, Note_on_c, 1, 67, 0
4, 50276, Note_on_c, 1, 64, 0
4, 50304, Note_on_c, 1, 67, 64
4, 50304, Note_on_c, 1, 64, 64
4, 50324, Note_on_c, 1, 67, 0
4, 50324, Note_on_c, 1, 64, 0
4, 50352, Note_on_c, 1, 67, 64
4, 50352, Note_on_c, 1, 64, 64
4, 50372, Note_on_c, 1, 67, 0
4, 50372, Note_on_c, 1, 64, 0
4, 50400, Note_on_c, 1, 67, 64
4, 50400, Note_on_c, 1, 64, 64
4, 50439, Note_on_c, 1, 67, 0
4, 50439, Note_on_c, 1, 64, 0
4, 50544, Note_on_c, 1, 41, 75
4, 50564, Note_on_c, 1, 41, 0
4, 50592, Note_on_c, 1, 41, 75
4, 50612, Note_on_c, 1, 41, 0
4, 50640, Note_on_c, 1, 41, 75
4, 50660, Note_on_c, 1, 41, 0
4, 50688, Note_on_c, 1, 41, 75
4, 50727, Note_on_c, 1, 41, 0
4, 50832, Note_on_c, 1, 63, 64
4, 50852, Note_on_c, 1, 63, 0
4, 50880, Note_on_c, 1, 63, 64
4, 50900, Note_on_c, 1, 63, 0
4, 50928, Note_on_c, 1, 63, 64
4, 50948, Note_on_c, 1, 63, 0
4, 50976, Note_on_c, 1, 63, 64
4, 51015, Note_on_c, 1, 63, 0
4, 51120, Note_on_c, 1, 36, 75
4, 51140, Note_on_c, 1, 36, 0
4, 51168, Note_on_c, 1, 36, 75
4, 51188, Note_on_c, 1, 36, 0
4, 51216, Note_on_c, 1, 36, 75
4, 51236, Note_on_c, 1, 36, 0
4, 51264, Note_on_c, 1, 36, 75
4, 51303, Note_on_c, 1, 36, 0
4, 51408, Note_on_c, 1, 61, 64
4, 51428, Note_on_c, 1, 61, 0
4, 51456, Note_on_c, 1, 61, 64
4, 51476, Note_on_c, 1, 61, 0
4, 51504, Note_on_c, 1, 61, 64
4, 51524, Note_on_c, 1, 61, 0
4, 51552, Note_on_c, 1, 61, 64
4, 51591, Note_on_c, 1, 61, 0
4, 51696, Note_on_c, 1, 34, 75
4, 51716, Note_on_c, 1, 34, 0
4, 51744, Note_on_c, 1, 34, 75
4, 51764, Note_on_c, 1, 34, 0
4, 51792, Note_on_c, 1, 34, 75
4, 51812, Note_on_c, 1, 34, 0
4, 51840, Note_on_c, 1, 34, 75
4, 51879, Note_on_c, 1, 34, 0
4, 51984, Note_on_c, 1, 66, 64
4, 52004, Note_on_c, 1, 66, 0
4, 52032, Note_on_c, 1, 66, 64
4, 52052, Note_on_c, 1, 66, 0
4, 52080, Note_on_c, 1, 66, 64
4, 52100, Note_on_c, 1, 66, 0
4, 52128, Note_on_c, 1, 66, 64
4, 52217, Note_on_c, 1, 66, 0
4, 52224, Note_on_c, 1, 65, 64
4, 52313, Note_on_c, 1, 65, 0
4, 52320, Note_on_c, 1, 64, 76
4, 52409, Note_on_c, 1, 64, 0
4, 52416, Note_on_c, 1, 63, 64
4, 52593, Note_on_c, 1, 63, 0
4, 52608, Note_on_c, 1, 65, 76
4, 52697, Note_on_c, 1, 65, 0
4, 52704, Note_on_c, 1, 66, 64
4, 52793, Note_on_c, 1, 66, 0
4, 52800, Note_on_c, 1, 65, 64
4, 52889, Note_on_c, 1, 65, 0
4, 52896, Note_on_c, 1, 67, 76
4, 52985, Note_on_c, 1, 67, 0
4, 52992, Note_on_c, 1, 65, 64
4, 53169, Note_on_c, 1, 65, 0
4, 53184, Note_on_c, 1, 67, 76
4, 53273, Note_on_c, 1, 67, 0
4, 53280, Note_on_c, 1, 68, 64
4, 53369, Note_on_c, 1, 68, 0
4, 53376, Note_on_c, 1, 67, 64
4, 53465, Note_on_c, 1, 67, 0
4, 53472, Note_on_c, 1, 68, 76
4, 53561, Note_on_c, 1, 68, 0
4, 53568, Note_on_c, 1, 67, 64
4, 53701, Note_on_c, 1, 67, 0
4, 53712, Note_on_c, 1, 65, 80
4, 53732, Note_on_c, 1, 65, 0
4, 53760, Note_on_c, 1, 65, 80
4, 53780, Note_on_c, 1, 65, 0
4, 53808, Note_on_c, 1, 65, 80
4, 53828, Note_on_c, 1, 65, 0
4, 53856, Note_on_c, 1, 65, 80
4, 53945, Note_on_c, 1, 65, 0
4, 54000, Note_on_c, 1, 35, 80
4, 54020, Note_on_c, 1, 35, 0
4, 54048, Note_on_c, 1, 35, 80
4, 54068, Note_on_c, 1, 35, 0
4, 54096, Note_on_c, 1, 35, 80
4, 54116, Note_on_c, 1, 35, 0
4, 54144, Note_on_c, 1, 35, 80
4, 54233, Note_on_c, 1, 35, 0
4, 54576, Note_on_c, 1, 34, 80
4, 54596, Note_on_c, 1, 34, 0
4, 54624, Note_on_c, 1, 34, 80
4, 54644, Note_on_c, 1, 34, 0
4, 54672, Note_on_c, 1, 34, 80
4, 54692, Note_on_c, 1, 34, 0
4, 54720, Note_on_c, 1, 34, 80
4, 54809, Note_on_c, 1, 34, 0
4, 54864, Note_on_c, 1, 58, 64
4, 54864, Note_on_c, 1, 56, 64
4, 54884, Note_on_c, 1, 58, 0
4, 54884, Note_on_c, 1, 56, 0
4, 54912, Note_on_c, 1, 58, 64
4, 54912, Note_on_c, 1, 56, 64
4, 54932, Note_on_c, 1, 58, 0
4, 54932, Note_on_c, 1, 56, 0
4, 54960, Note_on_c, 1, 58, 65
4, 54960, Note_on_c, 1, 56, 65
4, 54980, Note_on_c, 1, 58, 0
4, 54980, Note_on_c, 1, 56, 0
4, 55008, Note_on_c, 1, 58, 66
4, 55008, Note_on_c, 1, 56, 66
4, 55097, Note_on_c, 1, 58, 0
4, 55097, Note_on_c, 1, 56, 0
4, 55152, Note_on_c, 1, 70, 68
4, 55152, Note_on_c, 1, 68, 68
4, 55172, Note_on_c, 1, 70, 0
4, 55172, Note_on_c, 1, 68, 0
4, 55200, Note_on_c, 1, 70, 69
4, 55200, Note_on_c, 1, 68, 69
4, 55220, Note_on_c, 1, 70, 0
4, 55220, Note_on_c, 1, 68, 0
4, 55248, Note_on_c, 1, 70, 70
4, 55248, Note_on_c, 1, 68, 70
4, 55268, Note_on_c, 1, 70, 0
4, 55268, Note_on_c, 1, 68, 0
4, 55296, Note_on_c, 1, 70, 71
4, 55296, Note_on_c, 1, 68, 71
4, 55341, Note_on_c, 1, 70, 0
4, 55341, Note_on_c, 1, 68, 0
4, 55488, Note_on_c, 1, 70, 74
4, 55488, Note_on_c, 1, 68, 74
4, 55508, Note_on_c, 1, 70, 0
4, 55508, Note_on_c, 1, 68, 0
4, 55536, Note_on_c, 1, 70, 75
4, 55536, Note_on_c, 1, 68, 75
4, 55556, Note_on_c, 1, 70, 0
4, 55556, Note_on_c, 1, 68, 0
4, 55584, Note_on_c, 1, 70, 76
4, 55584, Note_on_c, 1, 68, 76
4, 55629, Note_on_c, 1, 70, 0
4, 55629, Note_on_c, 1, 68, 0
4, 55680, Note_on_c, 1, 70, 77
4, 55680, Note_on_c, 1, 68, 77
4, 55700, Note_on_c, 1, 70, 0
4, 55700, Note_on_c, 1, 68, 0
4, 55728, Note_on_c, 1, 70, 78
4, 55728, Note_on_c, 1, 68, 78
4, 55748, Note_on_c, 1, 70, 0
4, 55748, Note_on_c, 1, 68, 0
4, 55776, Note_on_c, 1, 70, 79
4, 55776, Note_on_c, 1, 68, 79
4, 55821, Note_on_c, 1, 70, 0
4, 55821, Note_on_c, 1, 68, 0
4, 55872, Note_on_c, 1, 68, 81
4, 55895, Note_on_c, 1, 68, 0
4, 55896, Note_on_c, 1, 70, 81
4, 55919, Note_on_c, 1, 70, 0
4, 56160, Note_on_c, 1, 65, 86
4, 56160, Note_on_c, 1, 62, 86
4, 56160, Note_on_c, 1, 58, 86
4, 56160, Note_on_c, 1, 56, 86
4, 56625, Note_on_c, 1, 65, 0
4, 56625, Note_on_c, 1, 62, 0
4, 56625, Note_on_c, 1, 58, 0
4, 56625, Note_on_c, 1, 56, 0
4, 57888, Note_on_c, 1, 43, 75
4, 57888, Note_on_c, 1, 39, 75
4, 57933, Note_on_c, 1, 43, 0
4, 57933, Note_on_c, 1, 39, 0
4, 57984, Note_on_c, 1, 55, 75
4, 57984, Note_on_c, 1, 51, 75
4, 58004, Note_on_c, 1, 55, 0
4, 58004, Note_on_c, 1, 51, 0
4, 58176, Note_on_c, 1, 43, 75
4, 58176, Note_on_c, 1, 39, 75
4, 58221, Note_on_c, 1, 43, 0
4, 58221, Note_on_c, 1, 39, 0
4, 58272, Note_on_c, 1, 55, 75
4, 58272, Note_on_c, 1, 51, 75
4, 58292, Note_on_c, 1, 55, 0
4, 58292, Note_on_c, 1, 51, 0
4, 58464, Note_on_c, 1, 63, 87
4, 58464, Note_on_c, 1, 60, 87
4, 58597, Note_on_c, 1, 63, 0
4, 58597, Note_on_c, 1, 60, 0
4, 58608, Note_on_c, 1, 62, 75
4, 58608, Note_on_c, 1, 58, 75
4, 58653, Note_on_c, 1, 62, 0
4, 58653, Note_on_c, 1, 58, 0
4, 58656, Note_on_c, 1, 60, 75
4, 58656, Note_on_c, 1, 56, 75
4, 58701, Note_on_c, 1, 60, 0
4, 58701, Note_on_c, 1, 56, 0
4, 58704, Note_on_c, 1, 58, 75
4, 58704, Note_on_c, 1, 55, 75
4, 58749, Note_on_c, 1, 58, 0
4, 58749, Note_on_c, 1, 55, 0
4, 58752, Note_on_c, 1, 56, 75
4, 58752, Note_on_c, 1, 53, 75
4, 58841, Note_on_c, 1, 56, 0
4, 58841, Note_on_c, 1, 53, 0
4, 59040, Note_on_c, 1, 38, 75
4, 59040, Note_on_c, 1, 34, 75
4, 59085, Note_on_c, 1, 38, 0
4, 59085, Note_on_c, 1, 34, 0
4, 59136, Note_on_c, 1, 50, 75
4, 59136, Note_on_c, 1, 46, 75
4, 59156, Note_on_c, 1, 50, 0
4, 59156, Note_on_c, 1, 46, 0
4, 59328, Note_on_c, 1, 38, 75
4, 59328, Note_on_c, 1, 34, 75
4, 59373, Note_on_c, 1, 38, 0
4, 59373, Note_on_c, 1, 34, 0
4, 59424, Note_on_c, 1, 50, 75
4, 59424, Note_on_c, 1, 46, 75
4, 59444, Note_on_c, 1, 50, 0
4, 59444, Note_on_c, 1, 46, 0
4, 59616, Note_on_c, 1, 65, 87
4, 59616, Note_on_c, 1, 62, 87
4, 59749, Note_on_c, 1, 65, 0
4, 59749, Note_on_c, 1, 62, 0
4, 59760, Note_on_c, 1, 63, 75
4, 59760, Note_on_c, 1, 60, 75
4, 59805, Note_on_c, 1, 63, 0
4, 59805, Note_on_c, 1, 60, 0
4, 59808, Note_on_c, 1, 62, 75
4, 59808, Note_on_c, 1, 58, 75
4, 59853, Note_on_c, 1, 62, 0
4, 59853, Note_on_c, 1, 58, 0
4, 59856, Note_on_c, 1, 60, 75
4, 59856, Note_on_c, 1, 56, 75
4, 59901, Note_on_c, 1, 60, 0
4, 59901, Note_on_c, 1, 56, 0
4, 59904, Note_on_c, 1, 58, 75
4, 59904, Note_on_c, 1, 55, 75
4, 59993, Note_on_c, 1, 58, 0
4, 59993, Note_on_c, 1, 55, 0
4, 60192, Note_on_c, 1, 51, 75
4, 60192, Note_on_c, 1, 46, 75
4, 60192, Note_on_c, 1, 43, 75
4, 60457, Note_on_c, 1, 51, 0
4, 60457, Note_on_c, 1, 46, 0
4, 60457, Note_on_c, 1, 43, 0
4, 60480, Note_on_c, 1, 51, 75
4, 60480, Note_on_c, 1, 44, 75
4, 60613, Note_on_c, 1, 51, 0
4, 60613, Note_on_c, 1, 44, 0
4, 60960, Note_on_c, 1, 53, 75
4, 60960, Note_on_c, 1, 46, 75
4, 61049, Note_on_c, 1, 53, 0
4, 61049, Note_on_c, 1, 46, 0
4, 61104, Note_on_c, 1, 51, 75
4, 61149, Note_on_c, 1, 51, 0
4, 61152, Note_on_c, 1, 46, 75
4, 61197, Note_on_c, 1, 46, 0
4, 61200, Note_on_c, 1, 43, 75
4, 61245, Note_on_c, 1, 43, 0
4, 61248, Note_on_c, 1, 39, 75
4, 61268, Note_on_c, 1, 39, 0
4, 61392, Note_on_c, 1, 51, 70
4, 61437, Note_on_c, 1, 51, 0
4, 61440, Note_on_c, 1, 55, 70
4, 61485, Note_on_c, 1, 55, 0
4, 61488, Note_on_c, 1, 51, 70
4, 61533, Note_on_c, 1, 51, 0
4, 61536, Note_on_c, 1, 56, 70
4, 61581, Note_on_c, 1, 56, 0
4, 61584, Note_on_c, 1, 46, 70
4, 61629, Note_on_c, 1, 46, 0
4, 61680, Note_on_c, 1, 46, 70
4, 61725, Note_on_c, 1, 46, 0
4, 61728, Note_on_c, 1, 50, 70
4, 61773, Note_on_c, 1, 50, 0
4, 61776, Note_on_c, 1, 46, 70
4, 61821, Note_on_c, 1, 46, 0
4, 61824, Note_on_c, 1, 51, 70
4, 61869, Note_on_c, 1, 51, 0
4, 61872, Note_on_c, 1, 39, 70
4, 61917, Note_on_c, 1, 39, 0
4, 61968, Note_on_c, 1, 51, 70
4, 62013, Note_on_c, 1, 51, 0
4, 62016, Note_on_c, 1, 55, 70
4, 62061, Note_on_c, 1, 55, 0
4, 62064, Note_on_c, 1, 51, 70
4, 62109, Note_on_c, 1, 51, 0
4, 62112, Note_on_c, 1, 56, 70
4, 62157, Note_on_c, 1, 56, 0
4, 62160, Note_on_c, 1, 46, 70
4, 62205, Note_on_c, 1, 46, 0
4, 62256, Note_on_c, 1, 58, 70
4, 62301, Note_on_c, 1, 58, 0
4, 62304, Note_on_c, 1, 62, 70
4, 62349, Note_on_c, 1, 62, 0
4, 62352, Note_on_c, 1, 58, 70
4, 62397, Note_on_c, 1, 58, 0
4, 62400, Note_on_c, 1, 63, 70
4, 62445, Note_on_c, 1, 63, 0
4, 62448, Note_on_c, 1, 51, 70
4, 62493, Note_on_c, 1, 51, 0
4, 62544, Note_on_c, 1, 63, 70
4, 62589, Note_on_c, 1, 63, 0
4, 62592, Note_on_c, 1, 67, 70
4, 62637, Note_on_c, 1, 67, 0
4, 62640, Note_on_c, 1, 63, 70
4, 62685, Note_on_c, 1, 63, 0
4, 62688, Note_on_c, 1, 62, 70
4, 62733, Note_on_c, 1, 62, 0
4, 62736, Note_on_c, 1, 65, 70
4, 62781, Note_on_c, 1, 65, 0
4, 62832, Note_on_c, 1, 55, 70
4, 62877, Note_on_c, 1, 55, 0
4, 62880, Note_on_c, 1, 59, 70
4, 62925, Note_on_c, 1, 59, 0
4, 62928, Note_on_c, 1, 55, 70
4, 62973, Note_on_c, 1, 55, 0
4, 62976, Note_on_c, 1, 60, 70
4, 63021, Note_on_c, 1, 60, 0
4, 63024, Note_on_c, 1, 48, 70
4, 63069, Note_on_c, 1, 48, 0
4, 63120, Note_on_c, 1, 63, 70
4, 63165, Note_on_c, 1, 63, 0
4, 63168, Note_on_c, 1, 67, 70
4, 63213, Note_on_c, 1, 67, 0
4, 63216, Note_on_c, 1, 63, 70
4, 63261, Note_on_c, 1, 63, 0
4, 63264, Note_on_c, 1, 68, 70
4, 63309, Note_on_c, 1, 68, 0
4, 63312, Note_on_c, 1, 56, 70
4, 63357, Note_on_c, 1, 56, 0
4, 63408, Note_on_c, 1, 48, 70
4, 63453, Note_on_c, 1, 48, 0
4, 63456, Note_on_c, 1, 52, 70
4, 63501, Note_on_c, 1, 52, 0
4, 63504, Note_on_c, 1, 48, 70
4, 63549, Note_on_c, 1, 48, 0
4, 63552, Note_on_c, 1, 53, 70
4, 63597, Note_on_c, 1, 53, 0
4, 63600, Note_on_c, 1, 41, 70
4, 63645, Note_on_c, 1, 41, 0
4, 63696, Note_on_c, 1, 62, 70
4, 63741, Note_on_c, 1, 62, 0
4, 63744, Note_on_c, 1, 65, 70
4, 63789, Note_on_c, 1, 65, 0
4, 63792, Note_on_c, 1, 62, 70
4, 63837, Note_on_c, 1, 62, 0
4, 63840, Note_on_c, 1, 63, 70
4, 63885, Note_on_c, 1, 63, 0
4, 63888, Note_on_c, 1, 67, 70
4, 63933, Note_on_c, 1, 67, 0
4, 63984, Note_on_c, 1, 59, 70
4, 64029, Note_on_c, 1, 59, 0
4, 64032, Note_on_c, 1, 62, 70
4, 64077, Note_on_c, 1, 62, 0
4, 64080, Note_on_c, 1, 59, 70
4, 64125, Note_on_c, 1, 59, 0
4, 64128, Note_on_c, 1, 58, 70
4, 64173, Note_on_c, 1, 58, 0
4, 64176, Note_on_c, 1, 63, 70
4, 64221, Note_on_c, 1, 63, 0
4, 64224, Note_on_c, 1, 65, 75
4, 64224, Note_on_c, 1, 60, 75
4, 64224, Note_on_c, 1, 56, 75
4, 64777, Note_on_c, 1, 65, 0
4, 64777, Note_on_c, 1, 60, 0
4, 64777, Note_on_c, 1, 56, 0
4, 64800, Note_on_c, 1, 68, 75
4, 64800, Note_on_c, 1, 65, 75
4, 64800, Note_on_c, 1, 58, 75
4, 65065, Note_on_c, 1, 68, 0
4, 65065, Note_on_c, 1, 65, 0
4, 65065, Note_on_c, 1, 58, 0
4, 65376, Note_on_c, 1, 51, 70
4, 65399, Note_on_c, 1, 51, 0
4, 65400, Note_on_c, 1, 58, 70
4, 65423, Note_on_c, 1, 58, 0
4, 65424, Note_on_c, 1, 55, 70
4, 65447, Note_on_c, 1, 55, 0
4, 65448, Note_on_c, 1, 58, 70
4, 65471, Note_on_c, 1, 58, 0
4, 65472, Note_on_c, 1, 51, 70
4, 65495, Note_on_c, 1, 51, 0
4, 65496, Note_on_c, 1, 58, 70
4, 65519, Note_on_c, 1, 58, 0
4, 65520, Note_on_c, 1, 55, 70
4, 65543, Note_on_c, 1, 55, 0
4, 65544, Note_on_c, 1, 58, 70
4, 65567, Note_on_c, 1, 58, 0
4, 65568, Note_on_c, 1, 51, 70
4, 65591, Note_on_c, 1, 51, 0
4, 65592, Note_on_c, 1, 58, 70
4, 65615, Note_on_c, 1, 58, 0
4, 65616, Note_on_c, 1, 55, 70
4, 65639, Note_on_c, 1, 55, 0
4, 65640, Note_on_c, 1, 58, 70
4, 65663, Note_on_c, 1, 58, 0
4, 65664, Note_on_c, 1, 53, 70
4, 65687, Note_on_c, 1, 53, 0
4, 65688, Note_on_c, 1, 58, 70
4, 65711, Note_on_c, 1, 58, 0
4, 65712, Note_on_c, 1, 56, 70
4, 65735, Note_on_c, 1, 56, 0
4, 65736, Note_on_c, 1, 58, 70
4, 65759, Note_on_c, 1, 58, 0
4, 65760, Note_on_c, 1, 53, 70
4, 65783, Note_on_c, 1, 53, 0
4, 65784, Note_on_c, 1, 58, 70
4, 65807, Note_on_c, 1, 58, 0
4, 65808, Note_on_c, 1, 51, 70
4, 65831, Note_on_c, 1, 51, 0
4, 65832, Note_on_c, 1, 58, 70
4, 65855, Note_on_c, 1, 58, 0
4, 65856, Note_on_c, 1, 50, 70
4, 65879, Note_on_c, 1, 50, 0
4, 65880, Note_on_c, 1, 58, 70
4, 65903, Note_on_c, 1, 58, 0
4, 65904, Note_on_c, 1, 53, 70
4, 65927, Note_on_c, 1, 53, 0
4, 65928, Note_on_c, 1, 58, 70
4, 65951, Note_on_c, 1, 58, 0
4, 65952, Note_on_c, 1, 51, 70
4, 65975, Note_on_c, 1, 51, 0
4, 65976, Note_on_c, 1, 58, 70
4, 65999, Note_on_c, 1, 58, 0
4, 66000, Note_on_c, 1, 55, 70
4, 66023, Note_on_c, 1, 55, 0
4, 66024, Note_on_c, 1, 58, 70
4, 66047, Note_on_c, 1, 58, 0
4, 66048, Note_on_c, 1, 51, 70
4, 66071, Note_on_c, 1, 51, 0
4, 66072, Note_on_c, 1, 58, 70
4, 66095, Note_on_c, 1, 58, 0
4, 66096, Note_on_c, 1, 55, 70
4, 66119, Note_on_c, 1, 55, 0
4, 66120, Note_on_c, 1, 58, 70
4, 66143, Note_on_c, 1, 58, 0
4, 66144, Note_on_c, 1, 51, 70
4, 66167, Note_on_c, 1, 51, 0
4, 66168, Note_on_c, 1, 58, 70
4, 66191, Note_on_c, 1, 58, 0
4, 66192, Note_on_c, 1, 55, 70
4, 66215, Note_on_c, 1, 55, 0
4, 66216, Note_on_c, 1, 58, 70
4, 66239, Note_on_c, 1, 58, 0
4, 66240, Note_on_c, 1, 53, 70
4, 66263, Note_on_c, 1, 53, 0
4, 66264, Note_on_c, 1, 58, 70
4, 66287, Note_on_c, 1, 58, 0
4, 66288, Note_on_c, 1, 56, 70
4, 66311, Note_on_c, 1, 56, 0
4, 66312, Note_on_c, 1, 58, 70
4, 66335, Note_on_c, 1, 58, 0
4, 66336, Note_on_c, 1, 53, 70
4, 66359, Note_on_c, 1, 53, 0
4, 66360, Note_on_c, 1, 58, 70
4, 66383, Note_on_c, 1, 58, 0
4, 66384, Note_on_c, 1, 51, 70
4, 66407, Note_on_c, 1, 51, 0
4, 66408, Note_on_c, 1, 58, 70
4, 66431, Note_on_c, 1, 58, 0
4, 66432, Note_on_c, 1, 50, 70
4, 66455, Note_on_c, 1, 50, 0
4, 66456, Note_on_c, 1, 58, 70
4, 66479, Note_on_c, 1, 58, 0
4, 66480, Note_on_c, 1, 53, 70
4, 66503, Note_on_c, 1, 53, 0
4, 66504, Note_on_c, 1, 58, 70
4, 66527, Note_on_c, 1, 58, 0
4, 66528, Note_on_c, 1, 51, 70
4, 66551, Note_on_c, 1, 51, 0
4, 66552, Note_on_c, 1, 58, 70
4, 66575, Note_on_c, 1, 58, 0
4, 66576, Note_on_c, 1, 55, 70
4, 66599, Note_on_c, 1, 55, 0
4, 66600, Note_on_c, 1, 58, 70
4, 66623, Note_on_c, 1, 58, 0
4, 66624, Note_on_c, 1, 51, 70
4, 66647, Note_on_c, 1, 51, 0
4, 66648, Note_on_c, 1, 58, 70
4, 66671, Note_on_c, 1, 58, 0
4, 66672, Note_on_c, 1, 55, 70
4, 66695, Note_on_c, 1, 55, 0
4, 66696, Note_on_c, 1, 58, 70
4, 66719, Note_on_c, 1, 58, 0
4, 66720, Note_on_c, 1, 51, 70
4, 66743, Note_on_c, 1, 51, 0
4, 66744, Note_on_c, 1, 58, 70
4, 66767, Note_on_c, 1, 58, 0
4, 66768, Note_on_c, 1, 55, 70
4, 66791, Note_on_c, 1, 55, 0
4, 66792, Note_on_c, 1, 58, 70
4, 66815, Note_on_c, 1, 58, 0
4, 66816, Note_on_c, 1, 49, 70
4, 66839, Note_on_c, 1, 49, 0
4, 66840, Note_on_c, 1, 58, 70
4, 66863, Note_on_c, 1, 58, 0
4, 66864, Note_on_c, 1, 55, 70
4, 66887, Note_on_c, 1, 55, 0
4, 66888, Note_on_c, 1, 58, 70
4, 66911, Note_on_c, 1, 58, 0
4, 66912, Note_on_c, 1, 49, 70
4, 66935, Note_on_c, 1, 49, 0
4, 66936, Note_on_c, 1, 58, 70
4, 66959, Note_on_c, 1, 58, 0
4, 66960, Note_on_c, 1, 55, 70
4, 66983, Note_on_c, 1, 55, 0
4, 66984, Note_on_c, 1, 58, 70
4, 67007, Note_on_c, 1, 58, 0
4, 67008, Note_on_c, 1, 49, 70
4, 67031, Note_on_c, 1, 49, 0
4, 67032, Note_on_c, 1, 58, 70
4, 67055, Note_on_c, 1, 58, 0
4, 67056, Note_on_c, 1, 55, 70
4, 67079, Note_on_c, 1, 55, 0
4, 67080, Note_on_c, 1, 58, 70
4, 67103, Note_on_c, 1, 58, 0
4, 67104, Note_on_c, 1, 48, 70
4, 67127, Note_on_c, 1, 48, 0
4, 67128, Note_on_c, 1, 58, 70
4, 67151, Note_on_c, 1, 58, 0
4, 67152, Note_on_c, 1, 55, 70
4, 67175, Note_on_c, 1, 55, 0
4, 67176, Note_on_c, 1, 58, 70
4, 67199, Note_on_c, 1, 58, 0
4, 67200, Note_on_c, 1, 48, 70
4, 67223, Note_on_c, 1, 48, 0
4, 67224, Note_on_c, 1, 58, 70
4, 67247, Note_on_c, 1, 58, 0
4, 67248, Note_on_c, 1, 55, 70
4, 67271, Note_on_c, 1, 55, 0
4, 67272, Note_on_c, 1, 58, 70
4, 67295, Note_on_c, 1, 58, 0
4, 67296, Note_on_c, 1, 48, 70
4, 67319, Note_on_c, 1, 48, 0
4, 67320, Note_on_c, 1, 58, 70
4, 67343, Note_on_c, 1, 58, 0
4, 67344, Note_on_c, 1, 55, 70
4, 67367, Note_on_c, 1, 55, 0
4, 67368, Note_on_c, 1, 58, 70
4, 67391, Note_on_c, 1, 58, 0
4, 67392, Note_on_c, 1, 48, 70
4, 67415, Note_on_c, 1, 48, 0
4, 67416, Note_on_c, 1, 56, 70
4, 67439, Note_on_c, 1, 56, 0
4, 67440, Note_on_c, 1, 53, 70
4, 67463, Note_on_c, 1, 53, 0
4, 67464, Note_on_c, 1, 56, 70
4, 67487, Note_on_c, 1, 56, 0
4, 67488, Note_on_c, 1, 48, 70
4, 67511, Note_on_c, 1, 48, 0
4, 67512, Note_on_c, 1, 56, 70
4, 67535, Note_on_c, 1, 56, 0
4, 67536, Note_on_c, 1, 53, 70
4, 67559, Note_on_c, 1, 53, 0
4, 67560, Note_on_c, 1, 56, 70
4, 67583, Note_on_c, 1, 56, 0
4, 67584, Note_on_c, 1, 47, 70
4, 67608, Note_on_c, 1, 47, 0
4, 67608, Note_on_c, 1, 56, 70
4, 67631, Note_on_c, 1, 56, 0
4, 67632, Note_on_c, 1, 53, 70
4, 67655, Note_on_c, 1, 53, 0
4, 67656, Note_on_c, 1, 56, 70
4, 67679, Note_on_c, 1, 56, 0
4, 67680, Note_on_c, 1, 46, 70
4, 67703, Note_on_c, 1, 46, 0
4, 67704, Note_on_c, 1, 56, 70
4, 67727, Note_on_c, 1, 56, 0
4, 67728, Note_on_c, 1, 53, 70
4, 67751, Note_on_c, 1, 53, 0
4, 67752, Note_on_c, 1, 56, 70
4, 67775, Note_on_c, 1, 56, 0
4, 67776, Note_on_c, 1, 46, 70
4, 67799, Note_on_c, 1, 46, 0
4, 67800, Note_on_c, 1, 56, 70
4, 67823, Note_on_c, 1, 56, 0
4, 67824, Note_on_c, 1, 53, 70
4, 67847, Note_on_c, 1, 53, 0
4, 67848, Note_on_c, 1, 56, 70
4, 67871, Note_on_c, 1, 56, 0
4, 67872, Note_on_c, 1, 48, 70
4, 67895, Note_on_c, 1, 48, 0
4, 67896, Note_on_c, 1, 55, 70
4, 67919, Note_on_c, 1, 55, 0
4, 67920, Note_on_c, 1, 51, 70
4, 67943, Note_on_c, 1, 51, 0
4, 67944, Note_on_c, 1, 55, 70
4, 67967, Note_on_c, 1, 55, 0
4, 67968, Note_on_c, 1, 44, 70
4, 68057, Note_on_c, 1, 44, 0
4, 68256, Note_on_c, 1, 60, 75
4, 68256, Note_on_c, 1, 56, 75
4, 68345, Note_on_c, 1, 60, 0
4, 68345, Note_on_c, 1, 56, 0
4, 69120, Note_on_c, 1, 67, 75
4, 69297, Note_on_c, 1, 67, 0
4, 69312, Note_on_c, 1, 68, 75
4, 69401, Note_on_c, 1, 68, 0
4, 69408, Note_on_c, 1, 51, 70
4, 69431, Note_on_c, 1, 51, 0
4, 69432, Note_on_c, 1, 58, 70
4, 69455, Note_on_c, 1, 58, 0
4, 69456, Note_on_c, 1, 55, 70
4, 69479, Note_on_c, 1, 55, 0
4, 69480, Note_on_c, 1, 58, 70
4, 69503, Note_on_c, 1, 58, 0
4, 69504, Note_on_c, 1, 51, 70
4, 69527, Note_on_c, 1, 51, 0
4, 69528, Note_on_c, 1, 58, 70
4, 69551, Note_on_c, 1, 58, 0
4, 69552, Note_on_c, 1, 55, 70
4, 69575, Note_on_c, 1, 55, 0
4, 69576, Note_on_c, 1, 58, 70
4, 69599, Note_on_c, 1, 58, 0
4, 69600, Note_on_c, 1, 51, 70
4, 69623, Note_on_c, 1, 51, 0
4, 69624, Note_on_c, 1, 58, 70
4, 69647, Note_on_c, 1, 58, 0
4, 69648, Note_on_c, 1, 55, 70
4, 69671, Note_on_c, 1, 55, 0
4, 69672, Note_on_c, 1, 58, 70
4, 69695, Note_on_c, 1, 58, 0
4, 69696, Note_on_c, 1, 50, 70
4, 69719, Note_on_c, 1, 50, 0
4, 69720, Note_on_c, 1, 58, 70
4, 69743, Note_on_c, 1, 58, 0
4, 69744, Note_on_c, 1, 53, 70
4, 69767, Note_on_c, 1, 53, 0
4, 69768, Note_on_c, 1, 58, 70
4, 69791, Note_on_c, 1, 58, 0
4, 69792, Note_on_c, 1, 50, 70
4, 69815, Note_on_c, 1, 50, 0
4, 69816, Note_on_c, 1, 58, 70
4, 69839, Note_on_c, 1, 58, 0
4, 69840, Note_on_c, 1, 53, 70
4, 69863, Note_on_c, 1, 53, 0
4, 69864, Note_on_c, 1, 58, 70
4, 69887, Note_on_c, 1, 58, 0
4, 69888, Note_on_c, 1, 50, 70
4, 69911, Note_on_c, 1, 50, 0
4, 69912, Note_on_c, 1, 58, 70
4, 69935, Note_on_c, 1, 58, 0
4, 69936, Note_on_c, 1, 53, 70
4, 69959, Note_on_c, 1, 53, 0
4, 69960, Note_on_c, 1, 58, 70
4, 69983, Note_on_c, 1, 58, 0
4, 69984, Note_on_c, 1, 51, 70
4, 70007, Note_on_c, 1, 51, 0
4, 70008, Note_on_c, 1, 58, 70
4, 70031, Note_on_c, 1, 58, 0
4, 70032, Note_on_c, 1, 55, 70
4, 70055, Note_on_c, 1, 55, 0
4, 70056, Note_on_c, 1, 58, 70
4, 70079, Note_on_c, 1, 58, 0
4, 70080, Note_on_c, 1, 51, 70
4, 70103, Note_on_c, 1, 51, 0
4, 70104, Note_on_c, 1, 58, 70
4, 70127, Note_on_c, 1, 58, 0
4, 70128, Note_on_c, 1, 55, 70
4, 70151, Note_on_c, 1, 55, 0
4, 70152, Note_on_c, 1, 58, 70
4, 70175, Note_on_c, 1, 58, 0
4, 70176, Note_on_c, 1, 51, 70
4, 70199, Note_on_c, 1, 51, 0
4, 70200, Note_on_c, 1, 58, 70
4, 70223, Note_on_c, 1, 58, 0
4, 70224, Note_on_c, 1, 55, 70
4, 70247, Note_on_c, 1, 55, 0
4, 70248, Note_on_c, 1, 58, 70
4, 70271, Note_on_c, 1, 58, 0
4, 70272, Note_on_c, 1, 50, 70
4, 70361, Note_on_c, 1, 50, 0
4, 70560, Note_on_c, 1, 51, 75
4, 70605, Note_on_c, 1, 51, 0
4, 70656, Note_on_c, 1, 58, 75
4, 70701, Note_on_c, 1, 58, 0
4, 70752, Note_on_c, 1, 60, 73
4, 70797, Note_on_c, 1, 60, 0
4, 70848, Note_on_c, 1, 55, 71
4, 70893, Note_on_c, 1, 55, 0
4, 70944, Note_on_c, 1, 56, 69
4, 70989, Note_on_c, 1, 56, 0
4, 71040, Note_on_c, 1, 64, 67
4, 71040, Note_on_c, 1, 60, 67
4, 71085, Note_on_c, 1, 64, 0
4, 71085, Note_on_c, 1, 60, 0
4, 71136, Note_on_c, 1, 61, 65
4, 71181, Note_on_c, 1, 61, 0
4, 71856, Note_on_c, 1, 61, 64
4, 71876, Note_on_c, 1, 61, 0
4, 71904, Note_on_c, 1, 61, 64
4, 71924, Note_on_c, 1, 61, 0
4, 71952, Note_on_c, 1, 61, 64
4, 71972, Note_on_c, 1, 61, 0
4, 72000, Note_on_c, 1, 61, 64
4, 72177, Note_on_c, 1, 61, 0
4, 72432, Note_on_c, 1, 48, 80
4, 72438, Note_on_c, 1, 48, 0
4, 72438, Note_on_c, 1, 49, 80
4, 72452, Note_on_c, 1, 49, 0
4, 72480, Note_on_c, 1, 48, 80
4, 72486, Note_on_c, 1, 48, 0
4, 72486, Note_on_c, 1, 49, 80
4, 72500, Note_on_c, 1, 49, 0
4, 72528, Note_on_c, 1, 48, 80
4, 72534, Note_on_c, 1, 48, 0
4, 72534, Note_on_c, 1, 49, 80
4, 72548, Note_on_c, 1, 49, 0
4, 72576, Note_on_c, 1, 48, 80
4, 72582, Note_on_c, 1, 48, 0
4, 72582, Note_on_c, 1, 49, 80
4, 72665, Note_on_c, 1, 49, 0
4, 72672, Note_on_c, 1, 48, 80
4, 72761, Note_on_c, 1, 48, 0
4, 72768, Note_on_c, 1, 47, 80
4, 72857, Note_on_c, 1, 47, 0
4, 72864, Note_on_c, 1, 55, 80
4, 72864, Note_on_c, 1, 51, 80
4, 72864, Note_on_c, 1, 46, 80
4, 73129, Note_on_c, 1, 55, 0
4, 73129, Note_on_c, 1, 51, 0
4, 73129, Note_on_c, 1, 46, 0
4, 73152, Note_on_c, 1, 56, 80
4, 73152, Note_on_c, 1, 53, 80
4, 73152, Note_on_c, 1, 46, 80
4, 73417, Note_on_c, 1, 56, 0
4, 73417, Note_on_c, 1, 53, 0
4, 73417, Note_on_c, 1, 46, 0
4, 73488, Note_on_c, 1, 55, 64
4, 73533, Note_on_c, 1, 55, 0
4, 73536, Note_on_c, 1, 56, 64
4, 73581, Note_on_c, 1, 56, 0
4, 73584, Note_on_c, 1, 57, 64
4, 73629, Note_on_c, 1, 57, 0
4, 73632, Note_on_c, 1, 58, 64
4, 73677, Note_on_c, 1, 58, 0
4, 73680, Note_on_c, 1, 59, 64
4, 73725, Note_on_c, 1, 59, 0
4, 73728, Note_on_c, 1, 60, 64
4, 73773, Note_on_c, 1, 60, 0
4, 73776, Note_on_c, 1, 58, 64
4, 73821, Note_on_c, 1, 58, 0
4, 73824, Note_on_c, 1, 56, 64
4, 73869, Note_on_c, 1, 56, 0
4, 73872, Note_on_c, 1, 55, 64
4, 73917, Note_on_c, 1, 55, 0
4, 73920, Note_on_c, 1, 53, 64
4, 73965, Note_on_c, 1, 53, 0
4, 73968, Note_on_c, 1, 56, 64
4, 74013, Note_on_c, 1, 56, 0
4, 74016, Note_on_c, 1, 55, 64
4, 74016, Note_on_c, 1, 51, 64
4, 74061, Note_on_c, 1, 55, 0
4, 74061, Note_on_c, 1, 51, 0
4, 74304, Note_on_c, 1, 58, 80
4, 74304, Note_on_c, 1, 46, 80
4, 74324, Note_on_c, 1, 58, 0
4, 74324, Note_on_c, 1, 46, 0
4, 74352, Note_on_c, 1, 57, 80
4, 74352, Note_on_c, 1, 45, 80
4, 74372, Note_on_c, 1, 57, 0
4, 74372, Note_on_c, 1, 45, 0
4, 74400, Note_on_c, 1, 56, 80
4, 74400, Note_on_c, 1, 44, 80
4, 74420, Note_on_c, 1, 56, 0
4, 74420, Note_on_c, 1, 44, 0
4, 74448, Note_on_c, 1, 55, 80
4, 74448, Note_on_c, 1, 43, 80
4, 74468, Note_on_c, 1, 55, 0
4, 74468, Note_on_c, 1, 43, 0
4, 74496, Note_on_c, 1, 53, 80
4, 74496, Note_on_c, 1, 41, 80
4, 74516, Note_on_c, 1, 53, 0
4, 74516, Note_on_c, 1, 41, 0
4, 74544, Note_on_c, 1, 58, 80
4, 74544, Note_on_c, 1, 46, 80
4, 74564, Note_on_c, 1, 58, 0
4, 74564, Note_on_c, 1, 46, 0
4, 74592, Note_on_c, 1, 51, 80
4, 74592, Note_on_c, 1, 39, 80
4, 74681, Note_on_c, 1, 51, 0
4, 74681, Note_on_c, 1, 39, 0
4, 74928, Note_on_c, 1, 70, 64
4, 74973, Note_on_c, 1, 70, 0
4, 74976, Note_on_c, 1, 72, 64
4, 75021, Note_on_c, 1, 72, 0
4, 75024, Note_on_c, 1, 70, 64
4, 75069, Note_on_c, 1, 70, 0
4, 75072, Note_on_c, 1, 68, 64
4, 75117, Note_on_c, 1, 68, 0
4, 75120, Note_on_c, 1, 67, 64
4, 75165, Note_on_c, 1, 67, 0
4, 75168, Note_on_c, 1, 65, 64
4, 75213, Note_on_c, 1, 65, 0
4, 75216, Note_on_c, 1, 68, 64
4, 75261, Note_on_c, 1, 68, 0
4, 75264, Note_on_c, 1, 70, 64
4, 75309, Note_on_c, 1, 70, 0
4, 75312, Note_on_c, 1, 68, 64
4, 75357, Note_on_c, 1, 68, 0
4, 75360, Note_on_c, 1, 67, 64
4, 75405, Note_on_c, 1, 67, 0
4, 75408, Note_on_c, 1, 65, 64
4, 75453, Note_on_c, 1, 65, 0
4, 75456, Note_on_c, 1, 63, 64
4, 75504, Note_on_c, 1, 63, 0
4, 75504, Note_on_c, 1, 70, 64
4, 75549, Note_on_c, 1, 70, 0
4, 75552, Note_on_c, 1, 72, 64
4, 75597, Note_on_c, 1, 72, 0
4, 75600, Note_on_c, 1, 70, 64
4, 75645, Note_on_c, 1, 70, 0
4, 75648, Note_on_c, 1, 68, 64
4, 75693, Note_on_c, 1, 68, 0
4, 75696, Note_on_c, 1, 67, 64
4, 75741, Note_on_c, 1, 67, 0
4, 75744, Note_on_c, 1, 65, 64
4, 75789, Note_on_c, 1, 65, 0
4, 75792, Note_on_c, 1, 63, 64
4, 75837, Note_on_c, 1, 63, 0
4, 75840, Note_on_c, 1, 62, 64
4, 75888, Note_on_c, 1, 62, 0
4, 75888, Note_on_c, 1, 61, 64
4, 75933, Note_on_c, 1, 61, 0
4, 75936, Note_on_c, 1, 60, 64
4, 75984, Note_on_c, 1, 60, 0
4, 75984, Note_on_c, 1, 59, 64
4, 76029, Note_on_c, 1, 59, 0
4, 76032, Note_on_c, 1, 58, 64
4, 76209, Note_on_c, 1, 58, 0
4, 76272, Note_on_c, 1, 46, 75
4, 76292, Note_on_c, 1, 46, 0
4, 76320, Note_on_c, 1, 51, 75
4, 76557, Note_on_c, 1, 51, 0
4, 76560, Note_on_c, 1, 50, 75
4, 76580, Note_on_c, 1, 50, 0
4, 76608, Note_on_c, 1, 56, 75
4, 76845, Note_on_c, 1, 56, 0
4, 76848, Note_on_c, 1, 55, 75
4, 76868, Note_on_c, 1, 55, 0
4, 76896, Note_on_c, 1, 61, 75
4, 77133, Note_on_c, 1, 61, 0
4, 77136, Note_on_c, 1, 60, 75
4, 77156, Note_on_c, 1, 60, 0
4, 77232, Note_on_c, 1, 65, 66
4, 77232, Note_on_c, 1, 63, 66
4, 77277, Note_on_c, 1, 65, 0
4, 77277, Note_on_c, 1, 63, 0
4, 77328, Note_on_c, 1, 65, 70
4, 77328, Note_on_c, 1, 62, 70
4, 77373, Note_on_c, 1, 65, 0
4, 77373, Note_on_c, 1, 62, 0
4, 77424, Note_on_c, 1, 67, 75
4, 77424, Note_on_c, 1, 65, 75
4, 77469, Note_on_c, 1, 67, 0
4, 77469, Note_on_c, 1, 65, 0
4, 77520, Note_on_c, 1, 67, 80
4, 77520, Note_on_c, 1, 63, 80
4, 77565, Note_on_c, 1, 67, 0
4, 77565, Note_on_c, 1, 63, 0
4, 77616, Note_on_c, 1, 70, 80
4, 77616, Note_on_c, 1, 68, 80
4, 77661, Note_on_c, 1, 70, 0
4, 77661, Note_on_c, 1, 68, 0
4, 77712, Note_on_c, 1, 70, 80
4, 77712, Note_on_c, 1, 67, 80
4, 77757, Note_on_c, 1, 70, 0
4, 77757, Note_on_c, 1, 67, 0
4, 78096, Note_on_c, 1, 44, 64
4, 78141, Note_on_c, 1, 44, 0
4, 78144, Note_on_c, 1, 56, 64
4, 78189, Note_on_c, 1, 56, 0
4, 78192, Note_on_c, 1, 53, 64
4, 78237, Note_on_c, 1, 53, 0
4, 78240, Note_on_c, 1, 58, 64
4, 78285, Note_on_c, 1, 58, 0
4, 78288, Note_on_c, 1, 46, 64
4, 78333, Note_on_c, 1, 46, 0
4, 78336, Note_on_c, 1, 51, 64
4, 78425, Note_on_c, 1, 51, 0
4, 78672, Note_on_c, 1, 58, 64
4, 78717, Note_on_c, 1, 58, 0
4, 78720, Note_on_c, 1, 57, 64
4, 78765, Note_on_c, 1, 57, 0
4, 78768, Note_on_c, 1, 58, 64
4, 78813, Note_on_c, 1, 58, 0
4, 78816, Note_on_c, 1, 56, 64
4, 78861, Note_on_c, 1, 56, 0
4, 78864, Note_on_c, 1, 53, 64
4, 78909, Note_on_c, 1, 53, 0
4, 78912, Note_on_c, 1, 51, 64
4, 79001, Note_on_c, 1, 51, 0
4, 79248, Note_on_c, 1, 34, 64
4, 79293, Note_on_c, 1, 34, 0
4, 79296, Note_on_c, 1, 35, 64
4, 79341, Note_on_c, 1, 35, 0
4, 79344, Note_on_c, 1, 36, 64
4, 79389, Note_on_c, 1, 36, 0
4, 79392, Note_on_c, 1, 37, 64
4, 79437, Note_on_c, 1, 37, 0
4, 79440, Note_on_c, 1, 38, 64
4, 79485, Note_on_c, 1, 38, 0
4, 79488, Note_on_c, 1, 39, 64
4, 79577, Note_on_c, 1, 39, 0
4, 79824, Note_on_c, 1, 48, 64
4, 79869, Note_on_c, 1, 48, 0
4, 79872, Note_on_c, 1, 51, 64
4, 79917, Note_on_c, 1, 51, 0
4, 79920, Note_on_c, 1, 48, 64
4, 79965, Note_on_c, 1, 48, 0
4, 79968, Note_on_c, 1, 46, 64
4, 80013, Note_on_c, 1, 46, 0
4, 80016, Note_on_c, 1, 51, 64
4, 80061, Note_on_c, 1, 51, 0
4, 80112, Note_on_c, 1, 44, 64
4, 80157, Note_on_c, 1, 44, 0
4, 80160, Note_on_c, 1, 51, 64
4, 80205, Note_on_c, 1, 51, 0
4, 80208, Note_on_c, 1, 44, 64
4, 80253, Note_on_c, 1, 44, 0
4, 80256, Note_on_c, 1, 43, 64
4, 80301, Note_on_c, 1, 43, 0
4, 80304, Note_on_c, 1, 51, 64
4, 80349, Note_on_c, 1, 51, 0
4, 80400, Note_on_c, 1, 38, 80
4, 80445, Note_on_c, 1, 38, 0
4, 80448, Note_on_c, 1, 50, 80
4, 80493, Note_on_c, 1, 50, 0
4, 80496, Note_on_c, 1, 38, 80
4, 80541, Note_on_c, 1, 38, 0
4, 80544, Note_on_c, 1, 39, 80
4, 80589, Note_on_c, 1, 39, 0
4, 80592, Note_on_c, 1, 51, 80
4, 80637, Note_on_c, 1, 51, 0
4, 80640, Note_on_c, 1, 56, 64
4, 80640, Note_on_c, 1, 44, 64
4, 80685, Note_on_c, 1, 56, 0
4, 80685, Note_on_c, 1, 44, 0
4, 80736, Note_on_c, 1, 55, 64
4, 80736, Note_on_c, 1, 46, 64
4, 80781, Note_on_c, 1, 55, 0
4, 80781, Note_on_c, 1, 46, 0
4, 80832, Note_on_c, 1, 53, 64
4, 80832, Note_on_c, 1, 46, 64
4, 80877, Note_on_c, 1, 53, 0
4, 80877, Note_on_c, 1, 46, 0
4, 80976, Note_on_c, 1, 38, 80
4, 81021, Note_on_c, 1, 38, 0
4, 81024, Note_on_c, 1, 50, 80
4, 81069, Note_on_c, 1, 50, 0
4, 81072, Note_on_c, 1, 38, 80
4, 81117, Note_on_c, 1, 38, 0
4, 81120, Note_on_c, 1, 39, 80
4, 81165, Note_on_c, 1, 39, 0
4, 81168, Note_on_c, 1, 51, 80
4, 81213, Note_on_c, 1, 51, 0
4, 81216, Note_on_c, 1, 56, 64
4, 81216, Note_on_c, 1, 44, 64
4, 81261, Note_on_c, 1, 56, 0
4, 81261, Note_on_c, 1, 44, 0
4, 81312, Note_on_c, 1, 55, 64
4, 81312, Note_on_c, 1, 46, 64
4, 81357, Note_on_c, 1, 55, 0
4, 81357, Note_on_c, 1, 46, 0
4, 81408, Note_on_c, 1, 53, 64
4, 81408, Note_on_c, 1, 46, 64
4, 81453, Note_on_c, 1, 53, 0
4, 81453, Note_on_c, 1, 46, 0
4, 81504, Note_on_c, 1, 55, 64
4, 81504, Note_on_c, 1, 51, 64
4, 81593, Note_on_c, 1, 55, 0
4, 81593, Note_on_c, 1, 51, 0
4, 81792, Note_on_c, 1, 65, 64
4, 81792, Note_on_c, 1, 62, 64
4, 81792, Note_on_c, 1, 58, 64
4, 81792, Note_on_c, 1, 56, 64
4, 82057, Note_on_c, 1, 65, 0
4, 82057, Note_on_c, 1, 62, 0
4, 82057, Note_on_c, 1, 58, 0
4, 82057, Note_on_c, 1, 56, 0
4, 82080, Note_on_c, 1, 63, 64
4, 82080, Note_on_c, 1, 58, 64
4, 82080, Note_on_c, 1, 55, 64
4, 82169, Note_on_c, 1, 63, 0
4, 82169, Note_on_c, 1, 58, 0
4, 82169, Note_on_c, 1, 55, 0
4, 82368, Note_on_c, 1, 56, 80
4, 82368, Note_on_c, 1, 53, 80
4, 82368, Note_on_c, 1, 50, 80
4, 82368, Note_on_c, 1, 46, 80
4, 82633, Note_on_c, 1, 56, 0
4, 82633, Note_on_c, 1, 53, 0
4, 82633, Note_on_c, 1, 50, 0
4, 82633, Note_on_c, 1, 46, 0
4, 82656, Note_on_c, 1, 51, 80
4, 82656, Note_on_c, 1, 46, 80
4, 82656, Note_on_c, 1, 43, 80
4, 82656, Note_on_c, 1, 39, 80
4, 82745, Note_on_c, 1, 51, 0
4, 82745, Note_on_c, 1, 46, 0
4, 82745, Note_on_c, 1, 43, 0
4, 82745, Note_on_c, 1, 39, 0
4, 83184, Note_on_c, 1, 53, 70
4, 83229, Note_on_c, 1, 53, 0
4, 83232, Note_on_c, 1, 55, 70
4, 83277, Note_on_c, 1, 55, 0
4, 83280, Note_on_c, 1, 53, 70
4, 83325, Note_on_c, 1, 53, 0
4, 83328, Note_on_c, 1, 51, 70
4, 83373, Note_on_c, 1, 51, 0
4, 83376, Note_on_c, 1, 50, 70
4, 83421, Note_on_c, 1, 50, 0
4, 83424, Note_on_c, 1, 48, 70
4, 83469, Note_on_c, 1, 48, 0
4, 83472, Note_on_c, 1, 53, 70
4, 83517, Note_on_c, 1, 53, 0
4, 83520, Note_on_c, 1, 46, 70
4, 83565, Note_on_c, 1, 46, 0
4, 83568, Note_on_c, 1, 58, 70
4, 83613, Note_on_c, 1, 58, 0
4, 83616, Note_on_c, 1, 60, 70
4, 83661, Note_on_c, 1, 60, 0
4, 83664, Note_on_c, 1, 58, 70
4, 83709, Note_on_c, 1, 58, 0
4, 83712, Note_on_c, 1, 56, 70
4, 83757, Note_on_c, 1, 56, 0
4, 83760, Note_on_c, 1, 55, 70
4, 83805, Note_on_c, 1, 55, 0
4, 83808, Note_on_c, 1, 53, 70
4, 83853, Note_on_c, 1, 53, 0
4, 83856, Note_on_c, 1, 60, 70
4, 83901, Note_on_c, 1, 60, 0
4, 83904, Note_on_c, 1, 58, 70
4, 83949, Note_on_c, 1, 58, 0
4, 83952, Note_on_c, 1, 56, 70
4, 83997, Note_on_c, 1, 56, 0
4, 84000, Note_on_c, 1, 55, 70
4, 84045, Note_on_c, 1, 55, 0
4, 84048, Note_on_c, 1, 53, 70
4, 84093, Note_on_c, 1, 53, 0
4, 84096, Note_on_c, 1, 51, 70
4, 84141, Note_on_c, 1, 51, 0
4, 84144, Note_on_c, 1, 58, 70
4, 84189, Note_on_c, 1, 58, 0
4, 84192, Note_on_c, 1, 56, 70
4, 84237, Note_on_c, 1, 56, 0
4, 84240, Note_on_c, 1, 55, 70
4, 84285, Note_on_c, 1, 55, 0
4, 84288, Note_on_c, 1, 53, 70
4, 84333, Note_on_c, 1, 53, 0
4, 84336, Note_on_c, 1, 51, 70
4, 84381, Note_on_c, 1, 51, 0
4, 84384, Note_on_c, 1, 50, 70
4, 84429, Note_on_c, 1, 50, 0
4, 84432, Note_on_c, 1, 56, 70
4, 84477, Note_on_c, 1, 56, 0
4, 84480, Note_on_c, 1, 55, 70
4, 84525, Note_on_c, 1, 55, 0
4, 84528, Note_on_c, 1, 53, 70
4, 84573, Note_on_c, 1, 53, 0
4, 84576, Note_on_c, 1, 51, 70
4, 84621, Note_on_c, 1, 51, 0
4, 84624, Note_on_c, 1, 50, 70
4, 84669, Note_on_c, 1, 50, 0
4, 84672, Note_on_c, 1, 48, 70
4, 84717, Note_on_c, 1, 48, 0
4, 84720, Note_on_c, 1, 60, 70
4, 84765, Note_on_c, 1, 60, 0
4, 84768, Note_on_c, 1, 61, 70
4, 84813, Note_on_c, 1, 61, 0
4, 84816, Note_on_c, 1, 60, 70
4, 84861, Note_on_c, 1, 60, 0
4, 84864, Note_on_c, 1, 58, 70
4, 84909, Note_on_c, 1, 58, 0
4, 84912, Note_on_c, 1, 56, 70
4, 84957, Note_on_c, 1, 56, 0
4, 84960, Note_on_c, 1, 55, 70
4, 85005, Note_on_c, 1, 55, 0
4, 85008, Note_on_c, 1, 61, 70
4, 85053, Note_on_c, 1, 61, 0
4, 85056, Note_on_c, 1, 60, 70
4, 85101, Note_on_c, 1, 60, 0
4, 85104, Note_on_c, 1, 58, 70
4, 85149, Note_on_c, 1, 58, 0
4, 85152, Note_on_c, 1, 56, 70
4, 85197, Note_on_c, 1, 56, 0
4, 85200, Note_on_c, 1, 55, 70
4, 85245, Note_on_c, 1, 55, 0
4, 85248, Note_on_c, 1, 56, 70
4, 85293, Note_on_c, 1, 56, 0
4, 85296, Note_on_c, 1, 58, 70
4, 85341, Note_on_c, 1, 58, 0
4, 85344, Note_on_c, 1, 56, 70
4, 85389, Note_on_c, 1, 56, 0
4, 85392, Note_on_c, 1, 55, 70
4, 85437, Note_on_c, 1, 55, 0
4, 85440, Note_on_c, 1, 53, 70
4, 85485, Note_on_c, 1, 53, 0
4, 85488, Note_on_c, 1, 51, 70
4, 85533, Note_on_c, 1, 51, 0
4, 85536, Note_on_c, 1, 50, 70
4, 85581, Note_on_c, 1, 50, 0
4, 85584, Note_on_c, 1, 48, 70
4, 85629, Note_on_c, 1, 48, 0
4, 85632, Note_on_c, 1, 47, 70
4, 85677, Note_on_c, 1, 47, 0
4, 85680, Note_on_c, 1, 43, 70
4, 85725, Note_on_c, 1, 43, 0
4, 85728, Note_on_c, 1, 45, 70
4, 85773, Note_on_c, 1, 45, 0
4, 85776, Note_on_c, 1, 47, 70
4, 85821, Note_on_c, 1, 47, 0
4, 85824, Note_on_c, 1, 48, 70
4, 85869, Note_on_c, 1, 48, 0
4, 85872, Note_on_c, 1, 50, 70
4, 85917, Note_on_c, 1, 50, 0
4, 85920, Note_on_c, 1, 51, 70
4, 85965, Note_on_c, 1, 51, 0
4, 85968, Note_on_c, 1, 52, 70
4, 86013, Note_on_c, 1, 52, 0
4, 86016, Note_on_c, 1, 53, 70
4, 86061, Note_on_c, 1, 53, 0
4, 86064, Note_on_c, 1, 54, 70
4, 86109, Note_on_c, 1, 54, 0
4, 86256, Note_on_c, 1, 59, 70
4, 86301, Note_on_c, 1, 59, 0
4, 86304, Note_on_c, 1, 60, 70
4, 86349, Note_on_c, 1, 60, 0
4, 86352, Note_on_c, 1, 62, 70
4, 86397, Note_on_c, 1, 62, 0
4, 86400, Note_on_c, 1, 63, 70
4, 86577, Note_on_c, 1, 63, 0
4, 86592, Note_on_c, 1, 60, 70
4, 86681, Note_on_c, 1, 60, 0
4, 86688, Note_on_c, 1, 59, 70
4, 86821, Note_on_c, 1, 59, 0
4, 86832, Note_on_c, 1, 59, 70
4, 86877, Note_on_c, 1, 59, 0
4, 86880, Note_on_c, 1, 60, 70
4, 86925, Note_on_c, 1, 60, 0
4, 86928, Note_on_c, 1, 62, 70
4, 86973, Note_on_c, 1, 62, 0
4, 86976, Note_on_c, 1, 63, 70
4, 87153, Note_on_c, 1, 63, 0
4, 87168, Note_on_c, 1, 60, 70
4, 87257, Note_on_c, 1, 60, 0
4, 87264, Note_on_c, 1, 59, 70
4, 87358, Note_on_c, 1, 59, 0
4, 87552, Note_on_c, 1, 51, 75
4, 87552, Note_on_c, 1, 48, 75
4, 87597, Note_on_c, 1, 51, 0
4, 87597, Note_on_c, 1, 48, 0
4, 87648, Note_on_c, 1, 63, 75
4, 87648, Note_on_c, 1, 60, 75
4, 87668, Note_on_c, 1, 63, 0
4, 87668, Note_on_c, 1, 60, 0
4, 87840, Note_on_c, 1, 47, 75
4, 87840, Note_on_c, 1, 43, 75
4, 87885, Note_on_c, 1, 47, 0
4, 87885, Note_on_c, 1, 43, 0
4, 87936, Note_on_c, 1, 59, 75
4, 87936, Note_on_c, 1, 55, 75
4, 87956, Note_on_c, 1, 59, 0
4, 87956, Note_on_c, 1, 55, 0
4, 88128, Note_on_c, 1, 47, 75
4, 88128, Note_on_c, 1, 43, 75
4, 88173, Note_on_c, 1, 47, 0
4, 88173, Note_on_c, 1, 43, 0
4, 88224, Note_on_c, 1, 59, 75
4, 88224, Note_on_c, 1, 55, 75
4, 88244, Note_on_c, 1, 59, 0
4, 88244, Note_on_c, 1, 55, 0
4, 88416, Note_on_c, 1, 60, 70
4, 88439, Note_on_c, 1, 60, 0
4, 88440, Note_on_c, 1, 67, 70
4, 88463, Note_on_c, 1, 67, 0
4, 88464, Note_on_c, 1, 63, 70
4, 88487, Note_on_c, 1, 63, 0
4, 88488, Note_on_c, 1, 67, 70
4, 88511, Note_on_c, 1, 67, 0
4, 88512, Note_on_c, 1, 60, 70
4, 88535, Note_on_c, 1, 60, 0
4, 88536, Note_on_c, 1, 67, 70
4, 88559, Note_on_c, 1, 67, 0
4, 88560, Note_on_c, 1, 63, 70
4, 88583, Note_on_c, 1, 63, 0
4, 88584, Note_on_c, 1, 67, 70
4, 88607, Note_on_c, 1, 67, 0
4, 88608, Note_on_c, 1, 60, 70
4, 88631, Note_on_c, 1, 60, 0
4, 88632, Note_on_c, 1, 67, 70
4, 88655, Note_on_c, 1, 67, 0
4, 88656, Note_on_c, 1, 63, 70
4, 88679, Note_on_c, 1, 63, 0
4, 88680, Note_on_c, 1, 67, 70
4, 88703, Note_on_c, 1, 67, 0
4, 88704, Note_on_c, 1, 62, 70
4, 88727, Note_on_c, 1, 62, 0
4, 88728, Note_on_c, 1, 67, 70
4, 88751, Note_on_c, 1, 67, 0
4, 88752, Note_on_c, 1, 65, 70
4, 88775, Note_on_c, 1, 65, 0
4, 88776, Note_on_c, 1, 67, 70
4, 88799, Note_on_c, 1, 67, 0
4, 88800, Note_on_c, 1, 62, 70
4, 88823, Note_on_c, 1, 62, 0
4, 88824, Note_on_c, 1, 67, 70
4, 88847, Note_on_c, 1, 67, 0
4, 88848, Note_on_c, 1, 60, 70
4, 88871, Note_on_c, 1, 60, 0
4, 88872, Note_on_c, 1, 67, 70
4, 88895, Note_on_c, 1, 67, 0
4, 88896, Note_on_c, 1, 59, 70
4, 88919, Note_on_c, 1, 59, 0
4, 88920, Note_on_c, 1, 67, 70
4, 88943, Note_on_c, 1, 67, 0
4, 88944, Note_on_c, 1, 62, 70
4, 88967, Note_on_c, 1, 62, 0
4, 88968, Note_on_c, 1, 67, 70
4, 88991, Note_on_c, 1, 67, 0
4, 88992, Note_on_c, 1, 60, 70
4, 89015, Note_on_c, 1, 60, 0
4, 89016, Note_on_c, 1, 67, 70
4, 89039, Note_on_c, 1, 67, 0
4, 89040, Note_on_c, 1, 63, 70
4, 89063, Note_on_c, 1, 63, 0
4, 89064, Note_on_c, 1, 67, 70
4, 89087, Note_on_c, 1, 67, 0
4, 89088, Note_on_c, 1, 60, 70
4, 89111, Note_on_c, 1, 60, 0
4, 89112, Note_on_c, 1, 67, 70
4, 89135, Note_on_c, 1, 67, 0
4, 89136, Note_on_c, 1, 63, 70
4, 89159, Note_on_c, 1, 63, 0
4, 89160, Note_on_c, 1, 67, 70
4, 89183, Note_on_c, 1, 67, 0
4, 89184, Note_on_c, 1, 60, 70
4, 89207, Note_on_c, 1, 60, 0
4, 89208, Note_on_c, 1, 67, 70
4, 89231, Note_on_c, 1, 67, 0
4, 89232, Note_on_c, 1, 63, 70
4, 89255, Note_on_c, 1, 63, 0
4, 89256, Note_on_c, 1, 67, 70
4, 89279, Note_on_c, 1, 67, 0
4, 89280, Note_on_c, 1, 58, 70
4, 89303, Note_on_c, 1, 58, 0
4, 89304, Note_on_c, 1, 67, 70
4, 89327, Note_on_c, 1, 67, 0
4, 89328, Note_on_c, 1, 63, 70
4, 89351, Note_on_c, 1, 63, 0
4, 89352, Note_on_c, 1, 67, 70
4, 89375, Note_on_c, 1, 67, 0
4, 89376, Note_on_c, 1, 58, 70
4, 89399, Note_on_c, 1, 58, 0
4, 89400, Note_on_c, 1, 67, 70
4, 89423, Note_on_c, 1, 67, 0
4, 89424, Note_on_c, 1, 63, 70
4, 89447, Note_on_c, 1, 63, 0
4, 89448, Note_on_c, 1, 67, 70
4, 89471, Note_on_c, 1, 67, 0
4, 89472, Note_on_c, 1, 58, 70
4, 89495, Note_on_c, 1, 58, 0
4, 89496, Note_on_c, 1, 67, 70
4, 89519, Note_on_c, 1, 67, 0
4, 89520, Note_on_c, 1, 63, 70
4, 89543, Note_on_c, 1, 63, 0
4, 89544, Note_on_c, 1, 67, 70
4, 89567, Note_on_c, 1, 67, 0
4, 89568, Note_on_c, 1, 56, 70
4, 89591, Note_on_c, 1, 56, 0
4, 89592, Note_on_c, 1, 63, 70
4, 89615, Note_on_c, 1, 63, 0
4, 89616, Note_on_c, 1, 60, 70
4, 89639, Note_on_c, 1, 60, 0
4, 89640, Note_on_c, 1, 63, 70
4, 89663, Note_on_c, 1, 63, 0
4, 89664, Note_on_c, 1, 56, 70
4, 89687, Note_on_c, 1, 56, 0
4, 89688, Note_on_c, 1, 63, 70
4, 89711, Note_on_c, 1, 63, 0
4, 89712, Note_on_c, 1, 60, 70
4, 89735, Note_on_c, 1, 60, 0
4, 89736, Note_on_c, 1, 63, 70
4, 89759, Note_on_c, 1, 63, 0
4, 89760, Note_on_c, 1, 56, 70
4, 89783, Note_on_c, 1, 56, 0
4, 89784, Note_on_c, 1, 63, 70
4, 89807, Note_on_c, 1, 63, 0
4, 89808, Note_on_c, 1, 60, 70
4, 89831, Note_on_c, 1, 60, 0
4, 89832, Note_on_c, 1, 63, 70
4, 89855, Note_on_c, 1, 63, 0
4, 89856, Note_on_c, 1, 58, 70
4, 89879, Note_on_c, 1, 58, 0
4, 89880, Note_on_c, 1, 63, 70
4, 89903, Note_on_c, 1, 63, 0
4, 89904, Note_on_c, 1, 61, 70
4, 89927, Note_on_c, 1, 61, 0
4, 89928, Note_on_c, 1, 63, 70
4, 89951, Note_on_c, 1, 63, 0
4, 89952, Note_on_c, 1, 58, 70
4, 89975, Note_on_c, 1, 58, 0
4, 89976, Note_on_c, 1, 63, 70
4, 89999, Note_on_c, 1, 63, 0
4, 90000, Note_on_c, 1, 56, 70
4, 90023, Note_on_c, 1, 56, 0
4, 90024, Note_on_c, 1, 63, 70
4, 90047, Note_on_c, 1, 63, 0
4, 90048, Note_on_c, 1, 55, 70
4, 90071, Note_on_c, 1, 55, 0
4, 90072, Note_on_c, 1, 63, 70
4, 90095, Note_on_c, 1, 63, 0
4, 90096, Note_on_c, 1, 58, 70
4, 90119, Note_on_c, 1, 58, 0
4, 90120, Note_on_c, 1, 63, 70
4, 90143, Note_on_c, 1, 63, 0
4, 90144, Note_on_c, 1, 56, 70
4, 90167, Note_on_c, 1, 56, 0
4, 90168, Note_on_c, 1, 63, 70
4, 90191, Note_on_c, 1, 63, 0
4, 90192, Note_on_c, 1, 60, 70
4, 90215, Note_on_c, 1, 60, 0
4, 90216, Note_on_c, 1, 63, 70
4, 90239, Note_on_c, 1, 63, 0
4, 90240, Note_on_c, 1, 56, 70
4, 90263, Note_on_c, 1, 56, 0
4, 90264, Note_on_c, 1, 63, 70
4, 90287, Note_on_c, 1, 63, 0
4, 90288, Note_on_c, 1, 60, 70
4, 90311, Note_on_c, 1, 60, 0
4, 90312, Note_on_c, 1, 63, 70
4, 90335, Note_on_c, 1, 63, 0
4, 90336, Note_on_c, 1, 56, 70
4, 90359, Note_on_c, 1, 56, 0
4, 90360, Note_on_c, 1, 63, 70
4, 90383, Note_on_c, 1, 63, 0
4, 90384, Note_on_c, 1, 60, 70
4, 90407, Note_on_c, 1, 60, 0
4, 90408, Note_on_c, 1, 63, 70
4, 90431, Note_on_c, 1, 63, 0
4, 90432, Note_on_c, 1, 55, 70
4, 90455, Note_on_c, 1, 55, 0
4, 90456, Note_on_c, 1, 64, 70
4, 90479, Note_on_c, 1, 64, 0
4, 90480, Note_on_c, 1, 58, 70
4, 90503, Note_on_c, 1, 58, 0
4, 90504, Note_on_c, 1, 64, 70
4, 90527, Note_on_c, 1, 64, 0
4, 90528, Note_on_c, 1, 55, 70
4, 90551, Note_on_c, 1, 55, 0
4, 90552, Note_on_c, 1, 64, 70
4, 90575, Note_on_c, 1, 64, 0
4, 90576, Note_on_c, 1, 58, 70
4, 90599, Note_on_c, 1, 58, 0
4, 90600, Note_on_c, 1, 64, 70
4, 90623, Note_on_c, 1, 64, 0
4, 90624, Note_on_c, 1, 55, 70
4, 90647, Note_on_c, 1, 55, 0
4, 90648, Note_on_c, 1, 64, 70
4, 90671, Note_on_c, 1, 64, 0
4, 90672, Note_on_c, 1, 58, 70
4, 90695, Note_on_c, 1, 58, 0
4, 90696, Note_on_c, 1, 64, 70
4, 90719, Note_on_c, 1, 64, 0
4, 90720, Note_on_c, 1, 53, 70
4, 90743, Note_on_c, 1, 53, 0
4, 90744, Note_on_c, 1, 60, 70
4, 90767, Note_on_c, 1, 60, 0
4, 90768, Note_on_c, 1, 56, 70
4, 90791, Note_on_c, 1, 56, 0
4, 90792, Note_on_c, 1, 60, 70
4, 90815, Note_on_c, 1, 60, 0
4, 90816, Note_on_c, 1, 53, 70
4, 90839, Note_on_c, 1, 53, 0
4, 90840, Note_on_c, 1, 60, 70
4, 90863, Note_on_c, 1, 60, 0
4, 90864, Note_on_c, 1, 56, 70
4, 90887, Note_on_c, 1, 56, 0
4, 90888, Note_on_c, 1, 60, 70
4, 90911, Note_on_c, 1, 60, 0
4, 90912, Note_on_c, 1, 53, 70
4, 90935, Note_on_c, 1, 53, 0
4, 90936, Note_on_c, 1, 60, 70
4, 90959, Note_on_c, 1, 60, 0
4, 90960, Note_on_c, 1, 56, 70
4, 90983, Note_on_c, 1, 56, 0
4, 90984, Note_on_c, 1, 60, 70
4, 91007, Note_on_c, 1, 60, 0
4, 91008, Note_on_c, 1, 55, 70
4, 91031, Note_on_c, 1, 55, 0
4, 91032, Note_on_c, 1, 60, 70
4, 91055, Note_on_c, 1, 60, 0
4, 91056, Note_on_c, 1, 58, 70
4, 91079, Note_on_c, 1, 58, 0
4, 91080, Note_on_c, 1, 60, 70
4, 91103, Note_on_c, 1, 60, 0
4, 91104, Note_on_c, 1, 55, 70
4, 91127, Note_on_c, 1, 55, 0
4, 91128, Note_on_c, 1, 60, 70
4, 91151, Note_on_c, 1, 60, 0
4, 91152, Note_on_c, 1, 53, 70
4, 91175, Note_on_c, 1, 53, 0
4, 91176, Note_on_c, 1, 60, 70
4, 91199, Note_on_c, 1, 60, 0
4, 91200, Note_on_c, 1, 52, 70
4, 91223, Note_on_c, 1, 52, 0
4, 91224, Note_on_c, 1, 60, 70
4, 91247, Note_on_c, 1, 60, 0
4, 91248, Note_on_c, 1, 55, 70
4, 91271, Note_on_c, 1, 55, 0
4, 91272, Note_on_c, 1, 60, 70
4, 91295, Note_on_c, 1, 60, 0
4, 91296, Note_on_c, 1, 53, 70
4, 91319, Note_on_c, 1, 53, 0
4, 91320, Note_on_c, 1, 60, 70
4, 91343, Note_on_c, 1, 60, 0
4, 91344, Note_on_c, 1, 56, 70
4, 91367, Note_on_c, 1, 56, 0
4, 91368, Note_on_c, 1, 60, 70
4, 91391, Note_on_c, 1, 60, 0
4, 91392, Note_on_c, 1, 53, 70
4, 91415, Note_on_c, 1, 53, 0
4, 91416, Note_on_c, 1, 60, 70
4, 91439, Note_on_c, 1, 60, 0
4, 91440, Note_on_c, 1, 56, 70
4, 91463, Note_on_c, 1, 56, 0
4, 91464, Note_on_c, 1, 60, 70
4, 91487, Note_on_c, 1, 60, 0
4, 91488, Note_on_c, 1, 53, 70
4, 91511, Note_on_c, 1, 53, 0
4, 91512, Note_on_c, 1, 60, 70
4, 91535, Note_on_c, 1, 60, 0
4, 91536, Note_on_c, 1, 56, 70
4, 91559, Note_on_c, 1, 56, 0
4, 91560, Note_on_c, 1, 60, 70
4, 91583, Note_on_c, 1, 60, 0
4, 91584, Note_on_c, 1, 51, 70
4, 91607, Note_on_c, 1, 51, 0
4, 91608, Note_on_c, 1, 60, 70
4, 91631, Note_on_c, 1, 60, 0
4, 91632, Note_on_c, 1, 56, 70
4, 91655, Note_on_c, 1, 56, 0
4, 91656, Note_on_c, 1, 60, 70
4, 91679, Note_on_c, 1, 60, 0
4, 91680, Note_on_c, 1, 51, 70
4, 91703, Note_on_c, 1, 51, 0
4, 91704, Note_on_c, 1, 60, 70
4, 91727, Note_on_c, 1, 60, 0
4, 91728, Note_on_c, 1, 56, 70
4, 91751, Note_on_c, 1, 56, 0
4, 91752, Note_on_c, 1, 60, 70
4, 91775, Note_on_c, 1, 60, 0
4, 91776, Note_on_c, 1, 51, 70
4, 91799, Note_on_c, 1, 51, 0
4, 91800, Note_on_c, 1, 60, 70
4, 91823, Note_on_c, 1, 60, 0
4, 91824, Note_on_c, 1, 56, 70
4, 91847, Note_on_c, 1, 56, 0
4, 91848, Note_on_c, 1, 60, 70
4, 91871, Note_on_c, 1, 60, 0
4, 91872, Note_on_c, 1, 49, 70
4, 91895, Note_on_c, 1, 49, 0
4, 91896, Note_on_c, 1, 56, 70
4, 91919, Note_on_c, 1, 56, 0
4, 91920, Note_on_c, 1, 53, 70
4, 91943, Note_on_c, 1, 53, 0
4, 91944, Note_on_c, 1, 56, 70
4, 91967, Note_on_c, 1, 56, 0
4, 91968, Note_on_c, 1, 49, 70
4, 91991, Note_on_c, 1, 49, 0
4, 91992, Note_on_c, 1, 56, 70
4, 92015, Note_on_c, 1, 56, 0
4, 92016, Note_on_c, 1, 53, 70
4, 92039, Note_on_c, 1, 53, 0
4, 92040, Note_on_c, 1, 56, 70
4, 92063, Note_on_c, 1, 56, 0
4, 92064, Note_on_c, 1, 49, 70
4, 92087, Note_on_c, 1, 49, 0
4, 92088, Note_on_c, 1, 56, 70
4, 92111, Note_on_c, 1, 56, 0
4, 92112, Note_on_c, 1, 53, 70
4, 92135, Note_on_c, 1, 53, 0
4, 92136, Note_on_c, 1, 56, 70
4, 92159, Note_on_c, 1, 56, 0
4, 92160, Note_on_c, 1, 48, 70
4, 92183, Note_on_c, 1, 48, 0
4, 92184, Note_on_c, 1, 56, 70
4, 92207, Note_on_c, 1, 56, 0
4, 92208, Note_on_c, 1, 51, 70
4, 92231, Note_on_c, 1, 51, 0
4, 92232, Note_on_c, 1, 56, 70
4, 92255, Note_on_c, 1, 56, 0
4, 92256, Note_on_c, 1, 48, 70
4, 92279, Note_on_c, 1, 48, 0
4, 92280, Note_on_c, 1, 56, 70
4, 92303, Note_on_c, 1, 56, 0
4, 92304, Note_on_c, 1, 51, 70
4, 92327, Note_on_c, 1, 51, 0
4, 92328, Note_on_c, 1, 56, 70
4, 92351, Note_on_c, 1, 56, 0
4, 92352, Note_on_c, 1, 48, 70
4, 92375, Note_on_c, 1, 48, 0
4, 92376, Note_on_c, 1, 56, 70
4, 92399, Note_on_c, 1, 56, 0
4, 92400, Note_on_c, 1, 51, 70
4, 92423, Note_on_c, 1, 51, 0
4, 92424, Note_on_c, 1, 56, 70
4, 92447, Note_on_c, 1, 56, 0
4, 92448, Note_on_c, 1, 49, 70
4, 92471, Note_on_c, 1, 49, 0
4, 92472, Note_on_c, 1, 56, 70
4, 92495, Note_on_c, 1, 56, 0
4, 92496, Note_on_c, 1, 53, 70
4, 92519, Note_on_c, 1, 53, 0
4, 92520, Note_on_c, 1, 56, 70
4, 92543, Note_on_c, 1, 56, 0
4, 92544, Note_on_c, 1, 49, 70
4, 92567, Note_on_c, 1, 49, 0
4, 92568, Note_on_c, 1, 56, 70
4, 92591, Note_on_c, 1, 56, 0
4, 92592, Note_on_c, 1, 53, 70
4, 92615, Note_on_c, 1, 53, 0
4, 92616, Note_on_c, 1, 56, 70
4, 92639, Note_on_c, 1, 56, 0
4, 92640, Note_on_c, 1, 49, 70
4, 92663, Note_on_c, 1, 49, 0
4, 92664, Note_on_c, 1, 56, 70
4, 92687, Note_on_c, 1, 56, 0
4, 92688, Note_on_c, 1, 53, 70
4, 92711, Note_on_c, 1, 53, 0
4, 92712, Note_on_c, 1, 56, 70
4, 92735, Note_on_c, 1, 56, 0
4, 92736, Note_on_c, 1, 48, 70
4, 92759, Note_on_c, 1, 48, 0
4, 92760, Note_on_c, 1, 56, 70
4, 92783, Note_on_c, 1, 56, 0
4, 92784, Note_on_c, 1, 51, 70
4, 92807, Note_on_c, 1, 51, 0
4, 92808, Note_on_c, 1, 56, 70
4, 92831, Note_on_c, 1, 56, 0
4, 92832, Note_on_c, 1, 48, 70
4, 92855, Note_on_c, 1, 48, 0
4, 92856, Note_on_c, 1, 56, 70
4, 92879, Note_on_c, 1, 56, 0
4, 92880, Note_on_c, 1, 51, 70
4, 92903, Note_on_c, 1, 51, 0
4, 92904, Note_on_c, 1, 56, 70
4, 92927, Note_on_c, 1, 56, 0
4, 92928, Note_on_c, 1, 48, 70
4, 92951, Note_on_c, 1, 48, 0
4, 92952, Note_on_c, 1, 56, 70
4, 92975, Note_on_c, 1, 56, 0
4, 92976, Note_on_c, 1, 51, 70
4, 92999, Note_on_c, 1, 51, 0
4, 93000, Note_on_c, 1, 56, 70
4, 93023, Note_on_c, 1, 56, 0
4, 93024, Note_on_c, 1, 49, 70
4, 93047, Note_on_c, 1, 49, 0
4, 93048, Note_on_c, 1, 56, 70
4, 93071, Note_on_c, 1, 56, 0
4, 93072, Note_on_c, 1, 53, 70
4, 93095, Note_on_c, 1, 53, 0
4, 93096, Note_on_c, 1, 56, 70
4, 93119, Note_on_c, 1, 56, 0
4, 93120, Note_on_c, 1, 49, 70
4, 93143, Note_on_c, 1, 49, 0
4, 93144, Note_on_c, 1, 56, 70
4, 93167, Note_on_c, 1, 56, 0
4, 93168, Note_on_c, 1, 53, 70
4, 93191, Note_on_c, 1, 53, 0
4, 93192, Note_on_c, 1, 56, 70
4, 93215, Note_on_c, 1, 56, 0
4, 93216, Note_on_c, 1, 49, 70
4, 93239, Note_on_c, 1, 49, 0
4, 93240, Note_on_c, 1, 56, 70
4, 93263, Note_on_c, 1, 56, 0
4, 93264, Note_on_c, 1, 53, 70
4, 93287, Note_on_c, 1, 53, 0
4, 93288, Note_on_c, 1, 56, 70
4, 93311, Note_on_c, 1, 56, 0
4, 93312, Note_on_c, 1, 48, 70
4, 93335, Note_on_c, 1, 48, 0
4, 93336, Note_on_c, 1, 56, 70
4, 93359, Note_on_c, 1, 56, 0
4, 93360, Note_on_c, 1, 53, 70
4, 93383, Note_on_c, 1, 53, 0
4, 93384, Note_on_c, 1, 56, 70
4, 93407, Note_on_c, 1, 56, 0
4, 93408, Note_on_c, 1, 48, 70
4, 93431, Note_on_c, 1, 48, 0
4, 93432, Note_on_c, 1, 56, 70
4, 93455, Note_on_c, 1, 56, 0
4, 93456, Note_on_c, 1, 53, 70
4, 93479, Note_on_c, 1, 53, 0
4, 93480, Note_on_c, 1, 56, 70
4, 93503, Note_on_c, 1, 56, 0
4, 93504, Note_on_c, 1, 48, 70
4, 93527, Note_on_c, 1, 48, 0
4, 93528, Note_on_c, 1, 56, 70
4, 93551, Note_on_c, 1, 56, 0
4, 93552, Note_on_c, 1, 53, 70
4, 93575, Note_on_c, 1, 53, 0
4, 93576, Note_on_c, 1, 56, 70
4, 93599, Note_on_c, 1, 56, 0
4, 93600, Note_on_c, 1, 47, 70
4, 93623, Note_on_c, 1, 47, 0
4, 93624, Note_on_c, 1, 56, 70
4, 93647, Note_on_c, 1, 56, 0
4, 93648, Note_on_c, 1, 53, 70
4, 93671, Note_on_c, 1, 53, 0
4, 93672, Note_on_c, 1, 56, 70
4, 93695, Note_on_c, 1, 56, 0
4, 93696, Note_on_c, 1, 47, 70
4, 93719, Note_on_c, 1, 47, 0
4, 93720, Note_on_c, 1, 56, 70
4, 93743, Note_on_c, 1, 56, 0
4, 93744, Note_on_c, 1, 53, 71
4, 93767, Note_on_c, 1, 53, 0
4, 93768, Note_on_c, 1, 56, 72
4, 93791, Note_on_c, 1, 56, 0
4, 93792, Note_on_c, 1, 47, 73
4, 93815, Note_on_c, 1, 47, 0
4, 93816, Note_on_c, 1, 56, 74
4, 93839, Note_on_c, 1, 56, 0
4, 93840, Note_on_c, 1, 53, 75
4, 93863, Note_on_c, 1, 53, 0
4, 93864, Note_on_c, 1, 56, 75
4, 93887, Note_on_c, 1, 56, 0
4, 93888, Note_on_c, 1, 48, 76
4, 93977, Note_on_c, 1, 48, 0
4, 94080, Note_on_c, 1, 64, 80
4, 94080, Note_on_c, 1, 60, 80
4, 94169, Note_on_c, 1, 64, 0
4, 94169, Note_on_c, 1, 60, 0
4, 94176, Note_on_c, 1, 65, 80
4, 94176, Note_on_c, 1, 60, 80
4, 94265, Note_on_c, 1, 65, 0
4, 94265, Note_on_c, 1, 60, 0
4, 94368, Note_on_c, 1, 68, 80
4, 94368, Note_on_c, 1, 60, 80
4, 94457, Note_on_c, 1, 68, 0
4, 94457, Note_on_c, 1, 60, 0
4, 94464, Note_on_c, 1, 67, 80
4, 94464, Note_on_c, 1, 60, 80
4, 94553, Note_on_c, 1, 67, 0
4, 94553, Note_on_c, 1, 60, 0
4, 94608, Note_on_c, 1, 64, 80
4, 94608, Note_on_c, 1, 60, 80
4, 94628, Note_on_c, 1, 64, 0
4, 94628, Note_on_c, 1, 60, 0
4, 94656, Note_on_c, 1, 64, 80
4, 94656, Note_on_c, 1, 60, 80
4, 94676, Note_on_c, 1, 64, 0
4, 94676, Note_on_c, 1, 60, 0
4, 94704, Note_on_c, 1, 64, 80
4, 94704, Note_on_c, 1, 60, 80
4, 94724, Note_on_c, 1, 64, 0
4, 94724, Note_on_c, 1, 60, 0
4, 94752, Note_on_c, 1, 65, 80
4, 94752, Note_on_c, 1, 60, 80
4, 94841, Note_on_c, 1, 65, 0
4, 94841, Note_on_c, 1, 60, 0
4, 94896, Note_on_c, 1, 68, 80
4, 94896, Note_on_c, 1, 60, 80
4, 94916, Note_on_c, 1, 68, 0
4, 94916, Note_on_c, 1, 60, 0
4, 94944, Note_on_c, 1, 68, 80
4, 94944, Note_on_c, 1, 60, 80
4, 94964, Note_on_c, 1, 68, 0
4, 94964, Note_on_c, 1, 60, 0
4, 94992, Note_on_c, 1, 68, 80
4, 94992, Note_on_c, 1, 60, 80
4, 95012, Note_on_c, 1, 68, 0
4, 95012, Note_on_c, 1, 60, 0
4, 95040, Note_on_c, 1, 67, 80
4, 95040, Note_on_c, 1, 60, 80
4, 95173, Note_on_c, 1, 67, 0
4, 95173, Note_on_c, 1, 60, 0
4, 95760, Note_on_c, 1, 40, 75
4, 95780, Note_on_c, 1, 40, 0
4, 95808, Note_on_c, 1, 40, 75
4, 95828, Note_on_c, 1, 40, 0
4, 95856, Note_on_c, 1, 40, 75
4, 95876, Note_on_c, 1, 40, 0
4, 95904, Note_on_c, 1, 40, 75
4, 95943, Note_on_c, 1, 40, 0
4, 96048, Note_on_c, 1, 67, 64
4, 96048, Note_on_c, 1, 64, 64
4, 96068, Note_on_c, 1, 67, 0
4, 96068, Note_on_c, 1, 64, 0
4, 96096, Note_on_c, 1, 67, 64
4, 96096, Note_on_c, 1, 64, 64
4, 96116, Note_on_c, 1, 67, 0
4, 96116, Note_on_c, 1, 64, 0
4, 96144, Note_on_c, 1, 67, 64
4, 96144, Note_on_c, 1, 64, 64
4, 96164, Note_on_c, 1, 67, 0
4, 96164, Note_on_c, 1, 64, 0
4, 96192, Note_on_c, 1, 67, 64
4, 96192, Note_on_c, 1, 64, 64
4, 96231, Note_on_c, 1, 67, 0
4, 96231, Note_on_c, 1, 64, 0
4, 96336, Note_on_c, 1, 41, 75
4, 96356, Note_on_c, 1, 41, 0
4, 96384, Note_on_c, 1, 41, 75
4, 96404, Note_on_c, 1, 41, 0
4, 96432, Note_on_c, 1, 41, 75
4, 96452, Note_on_c, 1, 41, 0
4, 96480, Note_on_c, 1, 41, 75
4, 96519, Note_on_c, 1, 41, 0
4, 96624, Note_on_c, 1, 63, 64
4, 96644, Note_on_c, 1, 63, 0
4, 96672, Note_on_c, 1, 63, 64
4, 96692, Note_on_c, 1, 63, 0
4, 96720, Note_on_c, 1, 63, 64
4, 96740, Note_on_c, 1, 63, 0
4, 96768, Note_on_c, 1, 63, 64
4, 96807, Note_on_c, 1, 63, 0
4, 96912, Note_on_c, 1, 36, 75
4, 96932, Note_on_c, 1, 36, 0
4, 96960, Note_on_c, 1, 36, 75
4, 96980, Note_on_c, 1, 36, 0
4, 97008, Note_on_c, 1, 36, 75
4, 97028, Note_on_c, 1, 36, 0
4, 97056, Note_on_c, 1, 36, 75
4, 97095, Note_on_c, 1, 36, 0
4, 97200, Note_on_c, 1, 61, 64
4, 97220, Note_on_c, 1, 61, 0
4, 97248, Note_on_c, 1, 61, 64
4, 97268, Note_on_c, 1, 61, 0
4, 97296, Note_on_c, 1, 61, 64
4, 97316, Note_on_c, 1, 61, 0
4, 97344, Note_on_c, 1, 61, 64
4, 97383, Note_on_c, 1, 61, 0
4, 97488, Note_on_c, 1, 34, 75
4, 97508, Note_on_c, 1, 34, 0
4, 97536, Note_on_c, 1, 34, 75
4, 97556, Note_on_c, 1, 34, 0
4, 97584, Note_on_c, 1, 34, 75
4, 97604, Note_on_c, 1, 34, 0
4, 97632, Note_on_c, 1, 34, 75
4, 97671, Note_on_c, 1, 34, 0
4, 97776, Note_on_c, 1, 66, 64
4, 97796, Note_on_c, 1, 66, 0
4, 97824, Note_on_c, 1, 66, 64
4, 97844, Note_on_c, 1, 66, 0
4, 97872, Note_on_c, 1, 66, 64
4, 97892, Note_on_c, 1, 66, 0
4, 97920, Note_on_c, 1, 66, 64
4, 98009, Note_on_c, 1, 66, 0
4, 98016, Note_on_c, 1, 65, 64
4, 98105, Note_on_c, 1, 65, 0
4, 98112, Note_on_c, 1, 64, 76
4, 98201, Note_on_c, 1, 64, 0
4, 98208, Note_on_c, 1, 63, 64
4, 98385, Note_on_c, 1, 63, 0
4, 98400, Note_on_c, 1, 65, 76
4, 98489, Note_on_c, 1, 65, 0
4, 98496, Note_on_c, 1, 66, 64
4, 98585, Note_on_c, 1, 66, 0
4, 98592, Note_on_c, 1, 65, 64
4, 98681, Note_on_c, 1, 65, 0
4, 98688, Note_on_c, 1, 67, 76
4, 98777, Note_on_c, 1, 67, 0
4, 98784, Note_on_c, 1, 65, 64
4, 98961, Note_on_c, 1, 65, 0
4, 98976, Note_on_c, 1, 67, 76
4, 99065, Note_on_c, 1, 67, 0
4, 99072, Note_on_c, 1, 68, 64
4, 99161, Note_on_c, 1, 68, 0
4, 99168, Note_on_c, 1, 67, 64
4, 99257, Note_on_c, 1, 67, 0
4, 99264, Note_on_c, 1, 68, 76
4, 99353, Note_on_c, 1, 68, 0
4, 99360, Note_on_c, 1, 67, 64
4, 99493, Note_on_c, 1, 67, 0
4, 99504, Note_on_c, 1, 65, 80
4, 99524, Note_on_c, 1, 65, 0
4, 99552, Note_on_c, 1, 65, 80
4, 99572, Note_on_c, 1, 65, 0
4, 99600, Note_on_c, 1, 65, 80
4, 99620, Note_on_c, 1, 65, 0
4, 99648, Note_on_c, 1, 65, 80
4, 99737, Note_on_c, 1, 65, 0
4, 99792, Note_on_c, 1, 35, 80
4, 99812, Note_on_c, 1, 35, 0
4, 99840, Note_on_c, 1, 35, 80
4, 99860, Note_on_c, 1, 35, 0
4, 99888, Note_on_c, 1, 35, 80
4, 99908, Note_on_c, 1, 35, 0
4, 99936, Note_on_c, 1, 35, 80
4, 100025, Note_on_c, 1, 35, 0
4, 100368, Note_on_c, 1, 34, 80
4, 100388, Note_on_c, 1, 34, 0
4, 100416, Note_on_c, 1, 34, 80
4, 100436, Note_on_c, 1, 34, 0
4, 100464, Note_on_c, 1, 34, 80
4, 100484, Note_on_c, 1, 34, 0
4, 100512, Note_on_c, 1, 34, 80
4, 100601, Note_on_c, 1, 34, 0
4, 100656, Note_on_c, 1, 58, 64
4, 100656, Note_on_c, 1, 56, 64
4, 100676, Note_on_c, 1, 58, 0
4, 100676, Note_on_c, 1, 56, 0
4, 100704, Note_on_c, 1, 58, 64
4, 100704, Note_on_c, 1, 56, 64
4, 100724, Note_on_c, 1, 58, 0
4, 100724, Note_on_c, 1, 56, 0
4, 100752, Note_on_c, 1, 58, 65
4, 100752, Note_on_c, 1, 56, 65
4, 100772, Note_on_c, 1, 58, 0
4, 100772, Note_on_c, 1, 56, 0
4, 100800, Note_on_c, 1, 58, 66
4, 100800, Note_on_c, 1, 56, 66
4, 100889, Note_on_c, 1, 58, 0
4, 100889, Note_on_c, 1, 56, 0
4, 100944, Note_on_c, 1, 70, 68
4, 100944, Note_on_c, 1, 68, 68
4, 100964, Note_on_c, 1, 70, 0
4, 100964, Note_on_c, 1, 68, 0
4, 100992, Note_on_c, 1, 70, 69
4, 100992, Note_on_c, 1, 68, 69
4, 101012, Note_on_c, 1, 70, 0
4, 101012, Note_on_c, 1, 68, 0
4, 101040, Note_on_c, 1, 70, 70
4, 101040, Note_on_c, 1, 68, 70
4, 101060, Note_on_c, 1, 70, 0
4, 101060, Note_on_c, 1, 68, 0
4, 101088, Note_on_c, 1, 70, 71
4, 101088, Note_on_c, 1, 68, 71
4, 101133, Note_on_c, 1, 70, 0
4, 101133, Note_on_c, 1, 68, 0
4, 101280, Note_on_c, 1, 70, 74
4, 101280, Note_on_c, 1, 68, 74
4, 101300, Note_on_c, 1, 70, 0
4, 101300, Note_on_c, 1, 68, 0
4, 101328, Note_on_c, 1, 70, 75
4, 101328, Note_on_c, 1, 68, 75
4, 101348, Note_on_c, 1, 70, 0
4, 101348, Note_on_c, 1, 68, 0
4, 101376, Note_on_c, 1, 70, 76
4, 101376, Note_on_c, 1, 68, 76
4, 101421, Note_on_c, 1, 70, 0
4, 101421, Note_on_c, 1, 68, 0
4, 101472, Note_on_c, 1, 70, 77
4, 101472, Note_on_c, 1, 68, 77
4, 101492, Note_on_c, 1, 70, 0
4, 101492, Note_on_c, 1, 68, 0
4, 101520, Note_on_c, 1, 70, 78
4, 101520, Note_on_c, 1, 68, 78
4, 101540, Note_on_c, 1, 70, 0
4, 101540, Note_on_c, 1, 68, 0
4, 101568, Note_on_c, 1, 70, 79
4, 101568, Note_on_c, 1, 68, 79
4, 101613, Note_on_c, 1, 70, 0
4, 101613, Note_on_c, 1, 68, 0
4, 101664, Note_on_c, 1, 68, 81
4, 101687, Note_on_c, 1, 68, 0
4, 101688, Note_on_c, 1, 70, 81
4, 101711, Note_on_c, 1, 70, 0
4, 101952, Note_on_c, 1, 65, 86
4, 101952, Note_on_c, 1, 62, 86
4, 101952, Note_on_c, 1, 58, 86
4, 101952, Note_on_c, 1, 56, 86
4, 102417, Note_on_c, 1, 65, 0
4, 102417, Note_on_c, 1, 62, 0
4, 102417, Note_on_c, 1, 58, 0
4, 102417, Note_on_c, 1, 56, 0
4, 103680, Note_on_c, 1, 43, 75
4, 103680, Note_on_c, 1, 39, 75
4, 103725, Note_on_c, 1, 43, 0
4, 103725, Note_on_c, 1, 39, 0
4, 103776, Note_on_c, 1, 55, 75
4, 103776, Note_on_c, 1, 51, 75
4, 103796, Note_on_c, 1, 55, 0
4, 103796, Note_on_c, 1, 51, 0
4, 103968, Note_on_c, 1, 43, 75
4, 103968, Note_on_c, 1, 39, 75
4, 104013, Note_on_c, 1, 43, 0
4, 104013, Note_on_c, 1, 39, 0
4, 104064, Note_on_c, 1, 55, 75
4, 104064, Note_on_c, 1, 51, 75
4, 104084, Note_on_c, 1, 55, 0
4, 104084, Note_on_c, 1, 51, 0
4, 104256, Note_on_c, 1, 63, 87
4, 104256, Note_on_c, 1, 60, 87
4, 104389, Note_on_c, 1, 63, 0
4, 104389, Note_on_c, 1, 60, 0
4, 104400, Note_on_c, 1, 62, 75
4, 104400, Note_on_c, 1, 58, 75
4, 104445, Note_on_c, 1, 62, 0
4, 104445, Note_on_c, 1, 58, 0
4, 104448, Note_on_c, 1, 60, 75
4, 104448, Note_on_c, 1, 56, 75
4, 104493, Note_on_c, 1, 60, 0
4, 104493, Note_on_c, 1, 56, 0
4, 104496, Note_on_c, 1, 58, 75
4, 104496, Note_on_c, 1, 55, 75
4, 104541, Note_on_c, 1, 58, 0
4, 104541, Note_on_c, 1, 55, 0
4, 104544, Note_on_c, 1, 56, 75
4, 104544, Note_on_c, 1, 53, 75
4, 104633, Note_on_c, 1, 56, 0
4, 104633, Note_on_c, 1, 53, 0
4, 104832, Note_on_c, 1, 38, 75
4, 104832, Note_on_c, 1, 34, 75
4, 104877, Note_on_c, 1, 38, 0
4, 104877, Note_on_c, 1, 34, 0
4, 104928, Note_on_c, 1, 50, 75
4, 104928, Note_on_c, 1, 46, 75
4, 104948, Note_on_c, 1, 50, 0
4, 104948, Note_on_c, 1, 46, 0
4, 105120, Note_on_c, 1, 38, 75
4, 105120, Note_on_c, 1, 34, 75
4, 105165, Note_on_c, 1, 38, 0
4, 105165, Note_on_c, 1, 34, 0
4, 105216, Note_on_c, 1, 50, 75
4, 105216, Note_on_c, 1, 46, 75
4, 105236, Note_on_c, 1, 50, 0
4, 105236, Note_on_c, 1, 46, 0
4, 105408, Note_on_c, 1, 65, 87
4, 105408, Note_on_c, 1, 62, 87
4, 105541, Note_on_c, 1, 65, 0
4, 105541, Note_on_c, 1, 62, 0
4, 105552, Note_on_c, 1, 63, 75
4, 105552, Note_on_c, 1, 60, 75
4, 105597, Note_on_c, 1, 63, 0
4, 105597, Note_on_c, 1, 60, 0
4, 105600, Note_on_c, 1, 62, 75
4, 105600, Note_on_c, 1, 58, 75
4, 105645, Note_on_c, 1, 62, 0
4, 105645, Note_on_c, 1, 58, 0
4, 105648, Note_on_c, 1, 60, 75
4, 105648, Note_on_c, 1, 56, 75
4, 105693, Note_on_c, 1, 60, 0
4, 105693, Note_on_c, 1, 56, 0
4, 105696, Note_on_c, 1, 58, 75
4, 105696, Note_on_c, 1, 55, 75
4, 105785, Note_on_c, 1, 58, 0
4, 105785, Note_on_c, 1, 55, 0
4, 105984, Note_on_c, 1, 51, 75
4, 105984, Note_on_c, 1, 46, 75
4, 105984, Note_on_c, 1, 43, 75
4, 106249, Note_on_c, 1, 51, 0
4, 106249, Note_on_c, 1, 46, 0
4, 106249, Note_on_c, 1, 43, 0
4, 106272, Note_on_c, 1, 51, 75
4, 106272, Note_on_c, 1, 44, 75
4, 106405, Note_on_c, 1, 51, 0
4, 106405, Note_on_c, 1, 44, 0
4, 106752, Note_on_c, 1, 53, 75
4, 106752, Note_on_c, 1, 46, 75
4, 106841, Note_on_c, 1, 53, 0
4, 106841, Note_on_c, 1, 46, 0
4, 106896, Note_on_c, 1, 51, 75
4, 106941, Note_on_c, 1, 51, 0
4, 106944, Note_on_c, 1, 46, 75
4, 106989, Note_on_c, 1, 46, 0
4, 106992, Note_on_c, 1, 43, 75
4, 107037, Note_on_c, 1, 43, 0
4, 107040, Note_on_c, 1, 39, 75
4, 107060, Note_on_c, 1, 39, 0
4, 107184, Note_on_c, 1, 51, 70
4, 107229, Note_on_c, 1, 51, 0
4, 107232, Note_on_c, 1, 55, 70
4, 107277, Note_on_c, 1, 55, 0
4, 107280, Note_on_c, 1, 51, 70
4, 107325, Note_on_c, 1, 51, 0
4, 107328, Note_on_c, 1, 56, 70
4, 107373, Note_on_c, 1, 56, 0
4, 107376, Note_on_c, 1, 46, 70
4, 107421, Note_on_c, 1, 46, 0
4, 107472, Note_on_c, 1, 46, 70
4, 107517, Note_on_c, 1, 46, 0
4, 107520, Note_on_c, 1, 50, 70
4, 107565, Note_on_c, 1, 50, 0
4, 107568, Note_on_c, 1, 46, 70
4, 107613, Note_on_c, 1, 46, 0
4, 107616, Note_on_c, 1, 51, 70
4, 107661, Note_on_c, 1, 51, 0
4, 107664, Note_on_c, 1, 39, 70
4, 107709, Note_on_c, 1, 39, 0
4, 107760, Note_on_c, 1, 51, 70
4, 107805, Note_on_c, 1, 51, 0
4, 107808, Note_on_c, 1, 55, 70
4, 107853, Note_on_c, 1, 55, 0
4, 107856, Note_on_c, 1, 51, 70
4, 107901, Note_on_c, 1, 51, 0
4, 107904, Note_on_c, 1, 56, 70
4, 107949, Note_on_c, 1, 56, 0
4, 107952, Note_on_c, 1, 46, 70
4, 107997, Note_on_c, 1, 46, 0
4, 108048, Note_on_c, 1, 58, 70
4, 108093, Note_on_c, 1, 58, 0
4, 108096, Note_on_c, 1, 62, 70
4, 108141, Note_on_c, 1, 62, 0
4, 108144, Note_on_c, 1, 58, 70
4, 108189, Note_on_c, 1, 58, 0
4, 108192, Note_on_c, 1, 63, 70
4, 108237, Note_on_c, 1, 63, 0
4, 108240, Note_on_c, 1, 51, 70
4, 108285, Note_on_c, 1, 51, 0
4, 108336, Note_on_c, 1, 63, 70
4, 108381, Note_on_c, 1, 63, 0
4, 108384, Note_on_c, 1, 67, 70
4, 108429, Note_on_c, 1, 67, 0
4, 108432, Note_on_c, 1, 63, 70
4, 108477, Note_on_c, 1, 63, 0
4, 108480, Note_on_c, 1, 62, 70
4, 108525, Note_on_c, 1, 62, 0
4, 108528, Note_on_c, 1, 65, 70
4, 108573, Note_on_c, 1, 65, 0
4, 108624, Note_on_c, 1, 55, 70
4, 108669, Note_on_c, 1, 55, 0
4, 108672, Note_on_c, 1, 59, 70
4, 108717, Note_on_c, 1, 59, 0
4, 108720, Note_on_c, 1, 55, 70
4, 108765, Note_on_c, 1, 55, 0
4, 108768, Note_on_c, 1, 60, 70
4, 108813, Note_on_c, 1, 60, 0
4, 108816, Note_on_c, 1, 48, 70
4, 108861, Note_on_c, 1, 48, 0
4, 108912, Note_on_c, 1, 63, 70
4, 108957, Note_on_c, 1, 63, 0
4, 108960, Note_on_c, 1, 67, 70
4, 109005, Note_on_c, 1, 67, 0
4, 109008, Note_on_c, 1, 63, 70
4, 109053, Note_on_c, 1, 63, 0
4, 109056, Note_on_c, 1, 68, 70
4, 109101, Note_on_c, 1, 68, 0
4, 109104, Note_on_c, 1, 56, 70
4, 109149, Note_on_c, 1, 56, 0
4, 109200, Note_on_c, 1, 48, 70
4, 109245, Note_on_c, 1, 48, 0
4, 109248, Note_on_c, 1, 52, 70
4, 109293, Note_on_c, 1, 52, 0
4, 109296, Note_on_c, 1, 48, 70
4, 109341, Note_on_c, 1, 48, 0
4, 109344, Note_on_c, 1, 53, 70
4, 109389, Note_on_c, 1, 53, 0
4, 109392, Note_on_c, 1, 41, 70
4, 109437, Note_on_c, 1, 41, 0
4, 109488, Note_on_c, 1, 62, 70
4, 109533, Note_on_c, 1, 62, 0
4, 109536, Note_on_c, 1, 65, 70
4, 109581, Note_on_c, 1, 65, 0
4, 109584, Note_on_c, 1, 62, 70
4, 109629, Note_on_c, 1, 62, 0
4, 109632, Note_on_c, 1, 63, 70
4, 109677, Note_on_c, 1, 63, 0
4, 109680, Note_on_c, 1, 67, 70
4, 109725, Note_on_c, 1, 67, 0
4, 109776, Note_on_c, 1, 59, 70
4, 109821, Note_on_c, 1, 59, 0
4, 109824, Note_on_c, 1, 62, 70
4, 109869, Note_on_c, 1, 62, 0
4, 109872, Note_on_c, 1, 59, 70
4, 109917, Note_on_c, 1, 59, 0
4, 109920, Note_on_c, 1, 58, 70
4, 109965, Note_on_c, 1, 58, 0
4, 109968, Note_on_c, 1, 63, 70
4, 110013, Note_on_c, 1, 63, 0
4, 110016, Note_on_c, 1, 65, 75
4, 110016, Note_on_c, 1, 60, 75
4, 110016, Note_on_c, 1, 56, 75
4, 110569, Note_on_c, 1, 65, 0
4, 110569, Note_on_c, 1, 60, 0
4, 110569, Note_on_c, 1, 56, 0
4, 110592, Note_on_c, 1, 68, 75
4, 110592, Note_on_c, 1, 65, 75
4, 110592, Note_on_c, 1, 58, 75
4, 110857, Note_on_c, 1, 68, 0
4, 110857, Note_on_c, 1, 65, 0
4, 110857, Note_on_c, 1, 58, 0
4, 111168, Note_on_c, 1, 51, 70
4, 111191, Note_on_c, 1, 51, 0
4, 111192, Note_on_c, 1, 58, 70
4, 111215, Note_on_c, 1, 58, 0
4, 111216, Note_on_c, 1, 55, 70
4, 111239, Note_on_c, 1, 55, 0
4, 111240, Note_on_c, 1, 58, 70
4, 111263, Note_on_c, 1, 58, 0
4, 111264, Note_on_c, 1, 51, 70
4, 111287, Note_on_c, 1, 51, 0
4, 111288, Note_on_c, 1, 58, 70
4, 111311, Note_on_c, 1, 58, 0
4, 111312, Note_on_c, 1, 55, 70
4, 111335, Note_on_c, 1, 55, 0
4, 111336, Note_on_c, 1, 58, 70
4, 111359, Note_on_c, 1, 58, 0
4, 111360, Note_on_c, 1, 51, 70
4, 111383, Note_on_c, 1, 51, 0
4, 111384, Note_on_c, 1, 58, 70
4, 111407, Note_on_c, 1, 58, 0
4, 111408, Note_on_c, 1, 55, 70
4, 111431, Note_on_c, 1, 55, 0
4, 111432, Note_on_c, 1, 58, 70
4, 111455, Note_on_c, 1, 58, 0
4, 111456, Note_on_c, 1, 53, 70
4, 111479, Note_on_c, 1, 53, 0
4, 111480, Note_on_c, 1, 58, 70
4, 111503, Note_on_c, 1, 58, 0
4, 111504, Note_on_c, 1, 56, 70
4, 111527, Note_on_c, 1, 56, 0
4, 111528, Note_on_c, 1, 58, 70
4, 111551, Note_on_c, 1, 58, 0
4, 111552, Note_on_c, 1, 53, 70
4, 111575, Note_on_c, 1, 53, 0
4, 111576, Note_on_c, 1, 58, 70
4, 111599, Note_on_c, 1, 58, 0
4, 111600, Note_on_c, 1, 51, 70
4, 111623, Note_on_c, 1, 51, 0
4, 111624, Note_on_c, 1, 58, 70
4, 111647, Note_on_c, 1, 58, 0
4, 111648, Note_on_c, 1, 50, 70
4, 111671, Note_on_c, 1, 50, 0
4, 111672, Note_on_c, 1, 58, 70
4, 111695, Note_on_c, 1, 58, 0
4, 111696, Note_on_c, 1, 53, 70
4, 111719, Note_on_c, 1, 53, 0
4, 111720, Note_on_c, 1, 58, 70
4, 111743, Note_on_c, 1, 58, 0
4, 111744, Note_on_c, 1, 51, 70
4, 111767, Note_on_c, 1, 51, 0
4, 111768, Note_on_c, 1, 58, 70
4, 111791, Note_on_c, 1, 58, 0
4, 111792, Note_on_c, 1, 55, 70
4, 111815, Note_on_c, 1, 55, 0
4, 111816, Note_on_c, 1, 58, 70
4, 111839, Note_on_c, 1, 58, 0
4, 111840, Note_on_c, 1, 51, 70
4, 111863, Note_on_c, 1, 51, 0
4, 111864, Note_on_c, 1, 58, 70
4, 111887, Note_on_c, 1, 58, 0
4, 111888, Note_on_c, 1, 55, 70
4, 111911, Note_on_c, 1, 55, 0
4, 111912, Note_on_c, 1, 58, 70
4, 111935, Note_on_c, 1, 58, 0
4, 111936, Note_on_c, 1, 51, 70
4, 111959, Note_on_c, 1, 51, 0
4, 111960, Note_on_c, 1, 58, 70
4, 111983, Note_on_c, 1, 58, 0
4, 111984, Note_on_c, 1, 55, 70
4, 112007, Note_on_c, 1, 55, 0
4, 112008, Note_on_c, 1, 58, 70
4, 112031, Note_on_c, 1, 58, 0
4, 112032, Note_on_c, 1, 53, 70
4, 112055, Note_on_c, 1, 53, 0
4, 112056, Note_on_c, 1, 58, 70
4, 112079, Note_on_c, 1, 58, 0
4, 112080, Note_on_c, 1, 56, 70
4, 112103, Note_on_c, 1, 56, 0
4, 112104, Note_on_c, 1, 58, 70
4, 112127, Note_on_c, 1, 58, 0
4, 112128, Note_on_c, 1, 53, 70
4, 112151, Note_on_c, 1, 53, 0
4, 112152, Note_on_c, 1, 58, 70
4, 112175, Note_on_c, 1, 58, 0
4, 112176, Note_on_c, 1, 51, 70
4, 112199, Note_on_c, 1, 51, 0
4, 112200, Note_on_c, 1, 58, 70
4, 112223, Note_on_c, 1, 58, 0
4, 112224, Note_on_c, 1, 50, 70
4, 112247, Note_on_c, 1, 50, 0
4, 112248, Note_on_c, 1, 58, 70
4, 112271, Note_on_c, 1, 58, 0
4, 112272, Note_on_c, 1, 53, 70
4, 112295, Note_on_c, 1, 53, 0
4, 112296, Note_on_c, 1, 58, 70
4, 112319, Note_on_c, 1, 58, 0
4, 112320, Note_on_c, 1, 51, 70
4, 112343, Note_on_c, 1, 51, 0
4, 112344, Note_on_c, 1, 58, 70
4, 112367, Note_on_c, 1, 58, 0
4, 112368, Note_on_c, 1, 55, 70
4, 112391, Note_on_c, 1, 55, 0
4, 112392, Note_on_c, 1, 58, 70
4, 112415, Note_on_c, 1, 58, 0
4, 112416, Note_on_c, 1, 51, 70
4, 112439, Note_on_c, 1, 51, 0
4, 112440, Note_on_c, 1, 58, 70
4, 112463, Note_on_c, 1, 58, 0
4, 112464, Note_on_c, 1, 55, 70
4, 112487, Note_on_c, 1, 55, 0
4, 112488, Note_on_c, 1, 58, 70
4, 112511, Note_on_c, 1, 58, 0
4, 112512, Note_on_c, 1, 51, 70
4, 112535, Note_on_c, 1, 51, 0
4, 112536, Note_on_c, 1, 58, 70
4, 112559, Note_on_c, 1, 58, 0
4, 112560, Note_on_c, 1, 55, 70
4, 112583, Note_on_c, 1, 55, 0
4, 112584, Note_on_c, 1, 58, 70
4, 112607, Note_on_c, 1, 58, 0
4, 112608, Note_on_c, 1, 49, 70
4, 112631, Note_on_c, 1, 49, 0
4, 112632, Note_on_c, 1, 58, 70
4, 112655, Note_on_c, 1, 58, 0
4, 112656, Note_on_c, 1, 55, 70
4, 112679, Note_on_c, 1, 55, 0
4, 112680, Note_on_c, 1, 58, 70
4, 112703, Note_on_c, 1, 58, 0
4, 112704, Note_on_c, 1, 49, 70
4, 112727, Note_on_c, 1, 49, 0
4, 112728, Note_on_c, 1, 58, 70
4, 112751, Note_on_c, 1, 58, 0
4, 112752, Note_on_c, 1, 55, 70
4, 112775, Note_on_c, 1, 55, 0
4, 112776, Note_on_c, 1, 58, 70
4, 112799, Note_on_c, 1, 58, 0
4, 112800, Note_on_c, 1, 49, 70
4, 112823, Note_on_c, 1, 49, 0
4, 112824, Note_on_c, 1, 58, 70
4, 112847, Note_on_c, 1, 58, 0
4, 112848, Note_on_c, 1, 55, 70
4, 112871, Note_on_c, 1, 55, 0
4, 112872, Note_on_c, 1, 58, 70
4, 112895, Note_on_c, 1, 58, 0
4, 112896, Note_on_c, 1, 48, 70
4, 112919, Note_on_c, 1, 48, 0
4, 112920, Note_on_c, 1, 58, 70
4, 112943, Note_on_c, 1, 58, 0
4, 112944, Note_on_c, 1, 55, 70
4, 112967, Note_on_c, 1, 55, 0
4, 112968, Note_on_c, 1, 58, 70
4, 112991, Note_on_c, 1, 58, 0
4, 112992, Note_on_c, 1, 48, 70
4, 113015, Note_on_c, 1, 48, 0
4, 113016, Note_on_c, 1, 58, 70
4, 113039, Note_on_c, 1, 58, 0
4, 113040, Note_on_c, 1, 55, 70
4, 113063, Note_on_c, 1, 55, 0
4, 113064, Note_on_c, 1, 58, 70
4, 113087, Note_on_c, 1, 58, 0
4, 113088, Note_on_c, 1, 48, 70
4, 113111, Note_on_c, 1, 48, 0
4, 113112, Note_on_c, 1, 58, 70
4, 113135, Note_on_c, 1, 58, 0
4, 113136, Note_on_c, 1, 55, 70
4, 113159, Note_on_c, 1, 55, 0
4, 113160, Note_on_c, 1, 58, 70
4, 113183, Note_on_c, 1, 58, 0
4, 113184, Note_on_c, 1, 48, 70
4, 113207, Note_on_c, 1, 48, 0
4, 113208, Note_on_c, 1, 56, 70
4, 113231, Note_on_c, 1, 56, 0
4, 113232, Note_on_c, 1, 53, 70
4, 113255, Note_on_c, 1, 53, 0
4, 113256, Note_on_c, 1, 56, 70
4, 113279, Note_on_c, 1, 56, 0
4, 113280, Note_on_c, 1, 48, 70
4, 113303, Note_on_c, 1, 48, 0
4, 113304, Note_on_c, 1, 56, 70
4, 113327, Note_on_c, 1, 56, 0
4, 113328, Note_on_c, 1, 53, 70
4, 113351, Note_on_c, 1, 53, 0
4, 113352, Note_on_c, 1, 56, 70
4, 113375, Note_on_c, 1, 56, 0
4, 113376, Note_on_c, 1, 47, 70
4, 113400, Note_on_c, 1, 47, 0
4, 113400, Note_on_c, 1, 56, 70
4, 113423, Note_on_c, 1, 56, 0
4, 113424, Note_on_c, 1, 53, 70
4, 113447, Note_on_c, 1, 53, 0
4, 113448, Note_on_c, 1, 56, 70
4, 113471, Note_on_c, 1, 56, 0
4, 113472, Note_on_c, 1, 46, 70
4, 113495, Note_on_c, 1, 46, 0
4, 113496, Note_on_c, 1, 56, 70
4, 113519, Note_on_c, 1, 56, 0
4, 113520, Note_on_c, 1, 53, 70
4, 113543, Note_on_c, 1, 53, 0
4, 113544, Note_on_c, 1, 56, 70
4, 113567, Note_on_c, 1, 56, 0
4, 113568, Note_on_c, 1, 46, 70
4, 113591, Note_on_c, 1, 46, 0
4, 113592, Note_on_c, 1, 56, 70
4, 113615, Note_on_c, 1, 56, 0
4, 113616, Note_on_c, 1, 53, 70
4, 113639, Note_on_c, 1, 53, 0
4, 113640, Note_on_c, 1, 56, 70
4, 113663, Note_on_c, 1, 56, 0
4, 113664, Note_on_c, 1, 48, 70
4, 113687, Note_on_c, 1, 48, 0
4, 113688, Note_on_c, 1, 55, 70
4, 113711, Note_on_c, 1, 55, 0
4, 113712, Note_on_c, 1, 51, 70
4, 113735, Note_on_c, 1, 51, 0
4, 113736, Note_on_c, 1, 55, 70
4, 113759, Note_on_c, 1, 55, 0
4, 113760, Note_on_c, 1, 44, 70
4, 113849, Note_on_c, 1, 44, 0
4, 114048, Note_on_c, 1, 60, 75
4, 114048, Note_on_c, 1, 56, 75
4, 114137, Note_on_c, 1, 60, 0
4, 114137, Note_on_c, 1, 56, 0
4, 114912, Note_on_c, 1, 67, 75
4, 115089, Note_on_c, 1, 67, 0
4, 115104, Note_on_c, 1, 68, 75
4, 115193, Note_on_c, 1, 68, 0
4, 115200, Note_on_c, 1, 51, 70
4, 115223, Note_on_c, 1, 51, 0
4, 115224, Note_on_c, 1, 58, 70
4, 115247, Note_on_c, 1, 58, 0
4, 115248, Note_on_c, 1, 55, 70
4, 115271, Note_on_c, 1, 55, 0
4, 115272, Note_on_c, 1, 58, 70
4, 115295, Note_on_c, 1, 58, 0
4, 115296, Note_on_c, 1, 51, 70
4, 115319, Note_on_c, 1, 51, 0
4, 115320, Note_on_c, 1, 58, 70
4, 115343, Note_on_c, 1, 58, 0
4, 115344, Note_on_c, 1, 55, 70
4, 115367, Note_on_c, 1, 55, 0
4, 115368, Note_on_c, 1, 58, 70
4, 115391, Note_on_c, 1, 58, 0
4, 115392, Note_on_c, 1, 51, 70
4, 115415, Note_on_c, 1, 51, 0
4, 115416, Note_on_c, 1, 58, 70
4, 115439, Note_on_c, 1, 58, 0
4, 115440, Note_on_c, 1, 55, 70
4, 115463, Note_on_c, 1, 55, 0
4, 115464, Note_on_c, 1, 58, 70
4, 115487, Note_on_c, 1, 58, 0
4, 115488, Note_on_c, 1, 50, 70
4, 115511, Note_on_c, 1, 50, 0
4, 115512, Note_on_c, 1, 58, 70
4, 115535, Note_on_c, 1, 58, 0
4, 115536, Note_on_c, 1, 53, 70
4, 115559, Note_on_c, 1, 53, 0
4, 115560, Note_on_c, 1, 58, 70
4, 115583, Note_on_c, 1, 58, 0
4, 115584, Note_on_c, 1, 50, 70
4, 115607, Note_on_c, 1, 50, 0
4, 115608, Note_on_c, 1, 58, 70
4, 115631, Note_on_c, 1, 58, 0
4, 115632, Note_on_c, 1, 53, 70
4, 115655, Note_on_c, 1, 53, 0
4, 115656, Note_on_c, 1, 58, 70
4, 115679, Note_on_c, 1, 58, 0
4, 115680, Note_on_c, 1, 50, 70
4, 115703, Note_on_c, 1, 50, 0
4, 115704, Note_on_c, 1, 58, 70
4, 115727, Note_on_c, 1, 58, 0
4, 115728, Note_on_c, 1, 53, 70
4, 115751, Note_on_c, 1, 53, 0
4, 115752, Note_on_c, 1, 58, 70
4, 115775, Note_on_c, 1, 58, 0
4, 115776, Note_on_c, 1, 51, 70
4, 115799, Note_on_c, 1, 51, 0
4, 115800, Note_on_c, 1, 58, 70
4, 115823, Note_on_c, 1, 58, 0
4, 115824, Note_on_c, 1, 55, 70
4, 115847, Note_on_c, 1, 55, 0
4, 115848, Note_on_c, 1, 58, 70
4, 115871, Note_on_c, 1, 58, 0
4, 115872, Note_on_c, 1, 51, 70
4, 115895, Note_on_c, 1, 51, 0
4, 115896, Note_on_c, 1, 58, 70
4, 115919, Note_on_c, 1, 58, 0
4, 115920, Note_on_c, 1, 55, 70
4, 115943, Note_on_c, 1, 55, 0
4, 115944, Note_on_c, 1, 58, 70
4, 115967, Note_on_c, 1, 58, 0
4, 115968, Note_on_c, 1, 51, 70
4, 115991, Note_on_c, 1, 51, 0
4, 115992, Note_on_c, 1, 58, 70
4, 116015, Note_on_c, 1, 58, 0
4, 116016, Note_on_c, 1, 55, 70
4, 116039, Note_on_c, 1, 55, 0
4, 116040, Note_on_c, 1, 58, 70
4, 116063, Note_on_c, 1, 58, 0
4, 116064, Note_on_c, 1, 50, 70
4, 116153, Note_on_c, 1, 50, 0
4, 116352, Note_on_c, 1, 51, 75
4, 116397, Note_on_c, 1, 51, 0
4, 116448, Note_on_c, 1, 58, 75
4, 116493, Note_on_c, 1, 58, 0
4, 116544, Note_on_c, 1, 60, 73
4, 116589, Note_on_c, 1, 60, 0
4, 116640, Note_on_c, 1, 55, 71
4, 116685, Note_on_c, 1, 55, 0
4, 116736, Note_on_c, 1, 56, 69
4, 116781, Note_on_c, 1, 56, 0
4, 116832, Note_on_c, 1, 64, 67
4, 116832, Note_on_c, 1, 60, 67
4, 116877, Note_on_c, 1, 64, 0
4, 116877, Note_on_c, 1, 60, 0
4, 116928, Note_on_c, 1, 61, 65
4, 116973, Note_on_c, 1, 61, 0
4, 117648, Note_on_c, 1, 61, 64
4, 117668, Note_on_c, 1, 61, 0
4, 117696, Note_on_c, 1, 61, 64
4, 117716, Note_on_c, 1, 61, 0
4, 117744, Note_on_c, 1, 61, 64
4, 117764, Note_on_c, 1, 61, 0
4, 117792, Note_on_c, 1, 61, 64
4, 117969, Note_on_c, 1, 61, 0
4, 118224, Note_on_c, 1, 48, 80
4, 118230, Note_on_c, 1, 48, 0
4, 118230, Note_on_c, 1, 49, 80
4, 118244, Note_on_c, 1, 49, 0
4, 118272, Note_on_c, 1, 48, 80
4, 118278, Note_on_c, 1, 48, 0
4, 118278, Note_on_c, 1, 49, 80
4, 118292, Note_on_c, 1, 49, 0
4, 118320, Note_on_c, 1, 48, 80
4, 118326, Note_on_c, 1, 48, 0
4, 118326, Note_on_c, 1, 49, 80
4, 118340, Note_on_c, 1, 49, 0
4, 118368, Note_on_c, 1, 48, 80
4, 118374, Note_on_c, 1, 48, 0
4, 118374, Note_on_c, 1, 49, 80
4, 118457, Note_on_c, 1, 49, 0
4, 118464, Note_on_c, 1, 48, 80
4, 118553, Note_on_c, 1, 48, 0
4, 118560, Note_on_c, 1, 47, 80
4, 118649, Note_on_c, 1, 47, 0
4, 118656, Note_on_c, 1, 55, 80
4, 118656, Note_on_c, 1, 51, 80
4, 118656, Note_on_c, 1, 46, 80
4, 118921, Note_on_c, 1, 55, 0
4, 118921, Note_on_c, 1, 51, 0
4, 118921, Note_on_c, 1, 46, 0
4, 118944, Note_on_c, 1, 56, 80
4, 118944, Note_on_c, 1, 53, 80
4, 118944, Note_on_c, 1, 46, 80
4, 119209, Note_on_c, 1, 56, 0
4, 119209, Note_on_c, 1, 53, 0
4, 119209, Note_on_c, 1, 46, 0
4, 119280, Note_on_c, 1, 55, 64
4, 119325, Note_on_c, 1, 55, 0
4, 119328, Note_on_c, 1, 56, 64
4, 119373, Note_on_c, 1, 56, 0
4, 119376, Note_on_c, 1, 57, 64
4, 119421, Note_on_c, 1, 57, 0
4, 119424, Note_on_c, 1, 58, 64
4, 119469, Note_on_c, 1, 58, 0
4, 119472, Note_on_c, 1, 59, 64
4, 119517, Note_on_c, 1, 59, 0
4, 119520, Note_on_c, 1, 60, 64
4, 119565, Note_on_c, 1, 60, 0
4, 119568, Note_on_c, 1, 58, 64
4, 119613, Note_on_c, 1, 58, 0
4, 119616, Note_on_c, 1, 56, 64
4, 119661, Note_on_c, 1, 56, 0
4, 119664, Note_on_c, 1, 55, 64
4, 119709, Note_on_c, 1, 55, 0
4, 119712, Note_on_c, 1, 53, 64
4, 119757, Note_on_c, 1, 53, 0
4, 119760, Note_on_c, 1, 56, 64
4, 119805, Note_on_c, 1, 56, 0
4, 119808, Note_on_c, 1, 55, 64
4, 119808, Note_on_c, 1, 51, 64
4, 119853, Note_on_c, 1, 55, 0
4, 119853, Note_on_c, 1, 51, 0
4, 120096, Note_on_c, 1, 58, 80
4, 120096, Note_on_c, 1, 46, 80
4, 120116, Note_on_c, 1, 58, 0
4, 120116, Note_on_c, 1, 46, 0
4, 120144, Note_on_c, 1, 57, 80
4, 120144, Note_on_c, 1, 45, 80
4, 120164, Note_on_c, 1, 57, 0
4, 120164, Note_on_c, 1, 45, 0
4, 120192, Note_on_c, 1, 56, 80
4, 120192, Note_on_c, 1, 44, 80
4, 120212, Note_on_c, 1, 56, 0
4, 120212, Note_on_c, 1, 44, 0
4, 120240, Note_on_c, 1, 55, 80
4, 120240, Note_on_c, 1, 43, 80
4, 120260, Note_on_c, 1, 55, 0
4, 120260, Note_on_c, 1, 43, 0
4, 120288, Note_on_c, 1, 53, 80
4, 120288, Note_on_c, 1, 41, 80
4, 120308, Note_on_c, 1, 53, 0
4, 120308, Note_on_c, 1, 41, 0
4, 120336, Note_on_c, 1, 58, 80
4, 120336, Note_on_c, 1, 46, 80
4, 120356, Note_on_c, 1, 58, 0
4, 120356, Note_on_c, 1, 46, 0
4, 120384, Note_on_c, 1, 51, 80
4, 120384, Note_on_c, 1, 39, 80
4, 120473, Note_on_c, 1, 51, 0
4, 120473, Note_on_c, 1, 39, 0
4, 120720, Note_on_c, 1, 70, 64
4, 120765, Note_on_c, 1, 70, 0
4, 120768, Note_on_c, 1, 72, 64
4, 120813, Note_on_c, 1, 72, 0
4, 120816, Note_on_c, 1, 70, 64
4, 120861, Note_on_c, 1, 70, 0
4, 120864, Note_on_c, 1, 68, 64
4, 120909, Note_on_c, 1, 68, 0
4, 120912, Note_on_c, 1, 67, 64
4, 120957, Note_on_c, 1, 67, 0
4, 120960, Note_on_c, 1, 65, 64
4, 121005, Note_on_c, 1, 65, 0
4, 121008, Note_on_c, 1, 68, 64
4, 121053, Note_on_c, 1, 68, 0
4, 121056, Note_on_c, 1, 70, 64
4, 121101, Note_on_c, 1, 70, 0
4, 121104, Note_on_c, 1, 68, 64
4, 121149, Note_on_c, 1, 68, 0
4, 121152, Note_on_c, 1, 67, 64
4, 121197, Note_on_c, 1, 67, 0
4, 121200, Note_on_c, 1, 65, 64
4, 121245, Note_on_c, 1, 65, 0
4, 121248, Note_on_c, 1, 63, 64
4, 121296, Note_on_c, 1, 63, 0
4, 121296, Note_on_c, 1, 70, 64
4, 121341, Note_on_c, 1, 70, 0
4, 121344, Note_on_c, 1, 72, 64
4, 121389, Note_on_c, 1, 72, 0
4, 121392, Note_on_c, 1, 70, 64
4, 121437, Note_on_c, 1, 70, 0
4, 121440, Note_on_c, 1, 68, 64
4, 121485, Note_on_c, 1, 68, 0
4, 121488, Note_on_c, 1, 67, 64
4, 121533, Note_on_c, 1, 67, 0
4, 121536, Note_on_c, 1, 65, 64
4, 121581, Note_on_c, 1, 65, 0
4, 121584, Note_on_c, 1, 63, 64
4, 121629, Note_on_c, 1, 63, 0
4, 121632, Note_on_c, 1, 62, 64
4, 121680, Note_on_c, 1, 62, 0
4, 121680, Note_on_c, 1, 61, 64
4, 121725, Note_on_c, 1, 61, 0
4, 121728, Note_on_c, 1, 60, 64
4, 121776, Note_on_c, 1, 60, 0
4, 121776, Note_on_c, 1, 59, 64
4, 121821, Note_on_c, 1, 59, 0
4, 121824, Note_on_c, 1, 58, 64
4, 122001, Note_on_c, 1, 58, 0
4, 122064, Note_on_c, 1, 46, 75
4, 122084, Note_on_c, 1, 46, 0
4, 122112, Note_on_c, 1, 51, 75
4, 122349, Note_on_c, 1, 51, 0
4, 122352, Note_on_c, 1, 50, 75
4, 122372, Note_on_c, 1, 50, 0
4, 122400, Note_on_c, 1, 56, 75
4, 122637, Note_on_c, 1, 56, 0
4, 122640, Note_on_c, 1, 55, 75
4, 122660, Note_on_c, 1, 55, 0
4, 122688, Note_on_c, 1, 61, 75
4, 122925, Note_on_c, 1, 61, 0
4, 122928, Note_on_c, 1, 60, 75
4, 122948, Note_on_c, 1, 60, 0
4, 123024, Note_on_c, 1, 65, 66
4, 123024, Note_on_c, 1, 63, 66
4, 123069, Note_on_c, 1, 65, 0
4, 123069, Note_on_c, 1, 63, 0
4, 123120, Note_on_c, 1, 65, 70
4, 123120, Note_on_c, 1, 62, 70
4, 123165, Note_on_c, 1, 65, 0
4, 123165, Note_on_c, 1, 62, 0
4, 123216, Note_on_c, 1, 67, 75
4, 123216, Note_on_c, 1, 65, 75
4, 123261, Note_on_c, 1, 67, 0
4, 123261, Note_on_c, 1, 65, 0
4, 123312, Note_on_c, 1, 67, 80
4, 123312, Note_on_c, 1, 63, 80
4, 123357, Note_on_c, 1, 67, 0
4, 123357, Note_on_c, 1, 63, 0
4, 123408, Note_on_c, 1, 70, 80
4, 123408, Note_on_c, 1, 68, 80
4, 123453, Note_on_c, 1, 70, 0
4, 123453, Note_on_c, 1, 68, 0
4, 123504, Note_on_c, 1, 70, 80
4, 123504, Note_on_c, 1, 67, 80
4, 123549, Note_on_c, 1, 70, 0
4, 123549, Note_on_c, 1, 67, 0
4, 123888, Note_on_c, 1, 44, 64
4, 123933, Note_on_c, 1, 44, 0
4, 123936, Note_on_c, 1, 56, 64
4, 123981, Note_on_c, 1, 56, 0
4, 123984, Note_on_c, 1, 53, 64
4, 124029, Note_on_c, 1, 53, 0
4, 124032, Note_on_c, 1, 58, 64
4, 124077, Note_on_c, 1, 58, 0
4, 124080, Note_on_c, 1, 46, 64
4, 124125, Note_on_c, 1, 46, 0
4, 124128, Note_on_c, 1, 51, 64
4, 124217, Note_on_c, 1, 51, 0
4, 124464, Note_on_c, 1, 58, 64
4, 124509, Note_on_c, 1, 58, 0
4, 124512, Note_on_c, 1, 57, 64
4, 124557, Note_on_c, 1, 57, 0
4, 124560, Note_on_c, 1, 58, 64
4, 124605, Note_on_c, 1, 58, 0
4, 124608, Note_on_c, 1, 56, 64
4, 124653, Note_on_c, 1, 56, 0
4, 124656, Note_on_c, 1, 53, 64
4, 124701, Note_on_c, 1, 53, 0
4, 124704, Note_on_c, 1, 51, 64
4, 124793, Note_on_c, 1, 51, 0
4, 125040, Note_on_c, 1, 34, 64
4, 125085, Note_on_c, 1, 34, 0
4, 125088, Note_on_c, 1, 35, 64
4, 125133, Note_on_c, 1, 35, 0
4, 125136, Note_on_c, 1, 36, 64
4, 125181, Note_on_c, 1, 36, 0
4, 125184, Note_on_c, 1, 37, 64
4, 125229, Note_on_c, 1, 37, 0
4, 125232, Note_on_c, 1, 38, 64
4, 125277, Note_on_c, 1, 38, 0
4, 125280, Note_on_c, 1, 39, 64
4, 125369, Note_on_c, 1, 39, 0
4, 125616, Note_on_c, 1, 48, 64
4, 125661, Note_on_c, 1, 48, 0
4, 125664, Note_on_c, 1, 51, 64
4, 125709, Note_on_c, 1, 51, 0
4, 125712, Note_on_c, 1, 48, 64
4, 125757, Note_on_c, 1, 48, 0
4, 125760, Note_on_c, 1, 46, 64
4, 125805, Note_on_c, 1, 46, 0
4, 125808, Note_on_c, 1, 51, 64
4, 125853, Note_on_c, 1, 51, 0
4, 125904, Note_on_c, 1, 44, 64
4, 125949, Note_on_c, 1, 44, 0
4, 125952, Note_on_c, 1, 51, 64
4, 125997, Note_on_c, 1, 51, 0
4, 126000, Note_on_c, 1, 44, 64
4, 126045, Note_on_c, 1, 44, 0
4, 126048, Note_on_c, 1, 43, 64
4, 126093, Note_on_c, 1, 43, 0
4, 126096, Note_on_c, 1, 51, 64
4, 126141, Note_on_c, 1, 51, 0
4, 126192, Note_on_c, 1, 38, 80
4, 126237, Note_on_c, 1, 38, 0
4, 126240, Note_on_c, 1, 50, 80
4, 126285, Note_on_c, 1, 50, 0
4, 126288, Note_on_c, 1, 38, 80
4, 126333, Note_on_c, 1, 38, 0
4, 126336, Note_on_c, 1, 39, 80
4, 126381, Note_on_c, 1, 39, 0
4, 126384, Note_on_c, 1, 51, 80
4, 126429, Note_on_c, 1, 51, 0
4, 126432, Note_on_c, 1, 56, 64
4, 126432, Note_on_c, 1, 44, 64
4, 126477, Note_on_c, 1, 56, 0
4, 126477, Note_on_c, 1, 44, 0
4, 126528, Note_on_c, 1, 55, 64
4, 126528, Note_on_c, 1, 46, 64
4, 126573, Note_on_c, 1, 55, 0
4, 126573, Note_on_c, 1, 46, 0
4, 126624, Note_on_c, 1, 53, 64
4, 126624, Note_on_c, 1, 46, 64
4, 126669, Note_on_c, 1, 53, 0
4, 126669, Note_on_c, 1, 46, 0
4, 126768, Note_on_c, 1, 38, 80
4, 126813, Note_on_c, 1, 38, 0
4, 126816, Note_on_c, 1, 50, 80
4, 126861, Note_on_c, 1, 50, 0
4, 126864, Note_on_c, 1, 38, 80
4, 126909, Note_on_c, 1, 38, 0
4, 126912, Note_on_c, 1, 39, 80
4, 126957, Note_on_c, 1, 39, 0
4, 126960, Note_on_c, 1, 51, 80
4, 127005, Note_on_c, 1, 51, 0
4, 127008, Note_on_c, 1, 56, 64
4, 127008, Note_on_c, 1, 44, 64
4, 127053, Note_on_c, 1, 56, 0
4, 127053, Note_on_c, 1, 44, 0
4, 127104, Note_on_c, 1, 55, 64
4, 127104, Note_on_c, 1, 46, 64
4, 127149, Note_on_c, 1, 55, 0
4, 127149, Note_on_c, 1, 46, 0
4, 127200, Note_on_c, 1, 53, 64
4, 127200, Note_on_c, 1, 46, 64
4, 127245, Note_on_c, 1, 53, 0
4, 127245, Note_on_c, 1, 46, 0
4, 127296, Note_on_c, 1, 55, 64
4, 127296, Note_on_c, 1, 51, 64
4, 127385, Note_on_c, 1, 55, 0
4, 127385, Note_on_c, 1, 51, 0
4, 127584, Note_on_c, 1, 65, 64
4, 127584, Note_on_c, 1, 62, 64
4, 127584, Note_on_c, 1, 58, 64
4, 127584, Note_on_c, 1, 56, 64
4, 127849, Note_on_c, 1, 65, 0
4, 127849, Note_on_c, 1, 62, 0
4, 127849, Note_on_c, 1, 58, 0
4, 127849, Note_on_c, 1, 56, 0
4, 127872, Note_on_c, 1, 63, 64
4, 127872, Note_on_c, 1, 58, 64
4, 127872, Note_on_c, 1, 55, 64
4, 127961, Note_on_c, 1, 63, 0
4, 127961, Note_on_c, 1, 58, 0
4, 127961, Note_on_c, 1, 55, 0
4, 128160, Note_on_c, 1, 56, 80
4, 128160, Note_on_c, 1, 53, 80
4, 128160, Note_on_c, 1, 50, 80
4, 128160, Note_on_c, 1, 46, 80
4, 128425, Note_on_c, 1, 56, 0
4, 128425, Note_on_c, 1, 53, 0
4, 128425, Note_on_c, 1, 50, 0
4, 128425, Note_on_c, 1, 46, 0
4, 128448, Note_on_c, 1, 51, 80
4, 128448, Note_on_c, 1, 46, 80
4, 128448, Note_on_c, 1, 43, 80
4, 128448, Note_on_c, 1, 39, 80
4, 128537, Note_on_c, 1, 51, 0
4, 128537, Note_on_c, 1, 46, 0
4, 128537, Note_on_c, 1, 43, 0
4, 128537, Note_on_c, 1, 39, 0
4, 128640, Note_on_c, 1, 39, 0
4, 128729, Note_on_c, 1, 39, 0
4, 128736, End_track
5, 0, Start_track
5, 0, Program_c, 1, 0
5, 0, Control_c, 1, 7, 127
5, 0, Control_c, 1, 10, 64
5, 17280, Note_on_c, 1, 58, 64
5, 17833, Note_on_c, 1, 58, 0
5, 35712, Note_on_c, 1, 58, 64
5, 36265, Note_on_c, 1, 58, 0
5, 40320, Note_on_c, 1, 55, 64
5, 40585, Note_on_c, 1, 55, 0
5, 40608, Note_on_c, 1, 55, 64
5, 40873, Note_on_c, 1, 55, 0
5, 40896, Note_on_c, 1, 55, 64
5, 41161, Note_on_c, 1, 55, 0
5, 41184, Note_on_c, 1, 55, 64
5, 41449, Note_on_c, 1, 55, 0
5, 41472, Note_on_c, 1, 55, 64
5, 41511, Note_on_c, 1, 55, 0
5, 52608, Note_on_c, 1, 60, 64
5, 52697, Note_on_c, 1, 60, 0
5, 52704, Note_on_c, 1, 58, 64
5, 52881, Note_on_c, 1, 58, 0
5, 53184, Note_on_c, 1, 62, 76
5, 53273, Note_on_c, 1, 62, 0
5, 53280, Note_on_c, 1, 60, 64
5, 53457, Note_on_c, 1, 60, 0
5, 69120, Note_on_c, 1, 58, 64
5, 69401, Note_on_c, 1, 58, 0
5, 73440, Note_on_c, 1, 51, 64
5, 73993, Note_on_c, 1, 51, 0
5, 86112, Note_on_c, 1, 55, 64
5, 86377, Note_on_c, 1, 55, 0
5, 86400, Note_on_c, 1, 55, 64
5, 86665, Note_on_c, 1, 55, 0
5, 86688, Note_on_c, 1, 55, 64
5, 86953, Note_on_c, 1, 55, 0
5, 86976, Note_on_c, 1, 55, 64
5, 87241, Note_on_c, 1, 55, 0
5, 87264, Note_on_c, 1, 55, 64
5, 87303, Note_on_c, 1, 55, 0
5, 98400, Note_on_c, 1, 60, 64
5, 98489, Note_on_c, 1, 60, 0
5, 98496, Note_on_c, 1, 58, 64
5, 98673, Note_on_c, 1, 58, 0
5, 98976, Note_on_c, 1, 62, 76
5, 99065, Note_on_c, 1, 62, 0
5, 99072, Note_on_c, 1, 60, 64
5, 99249, Note_on_c, 1, 60, 0
5, 114912, Note_on_c, 1, 58, 64
5, 115193, Note_on_c, 1, 58, 0
5, 119232, Note_on_c, 1, 51, 64
5, 119785, Note_on_c, 1, 51, 0
5, 128736, End_track
6, 0, Start_track
6, 0, Title_t, "Sonata I   Haydn  "
6, 0, End_track
0, 0, End_of_file
