0, 0, Header, 1, 6, 96
1, 0, Start_track
1, 0, Copyright_t, "Copyright  2000 <copyright holder>"
1, 0, Text_t, "Piano Solo\015\012"
1, 0, Text_t, "<composer>\015\012"
1, 0, Sequencer_specific, 16, 68, 87, 77, 90, 86, 82, 83, 78, 32, 55, 46, 48, 46, 56, 46, 48
1, 0, Time_signature, 2, 2, 24, 8
1, 0, Tempo, 100000
1, 0, Key_signature, 2, "major"
1, 144, Tempo, 428571
1, 1680, Tempo, 428571
1, 6288, Key_signature, 0, "major"
1, 7824, Key_signature, 0, "major"
1, 17040, Key_signature, 2, "major"
1, 18576, Key_signature, 2, "major"
1, 23184, Key_signature, 3, "major"
1, 24528, Key_signature, 3, "major"
1, 32400, Key_signature, 2, "major"
1, 33936, Key_signature, 2, "major"
1, 44928, End_track
2, 0, Start_track
2, 0, Program_c, 0, 0
2, 0, Control_c, 0, 7, 127
2, 0, Control_c, 0, 10, 64
2, 144, Note_on_c, 0, 81, 69
2, 189, Note_on_c, 0, 81, 0
2, 240, Note_on_c, 0, 78, 69
2, 285, Note_on_c, 0, 78, 0
2, 336, Note_on_c, 0, 79, 69
2, 381, Note_on_c, 0, 79, 0
2, 432, Note_on_c, 0, 76, 69
2, 477, Note_on_c, 0, 76, 0
2, 528, Note_on_c, 0, 78, 69
2, 573, Note_on_c, 0, 78, 0
2, 624, Note_on_c, 0, 71, 70
2, 669, Note_on_c, 0, 71, 0
2, 720, Note_on_c, 0, 76, 73
2, 765, Note_on_c, 0, 76, 0
2, 768, Note_on_c, 0, 74, 74
2, 791, Note_on_c, 0, 74, 0
2, 792, Note_on_c, 0, 73, 75
2, 815, Note_on_c, 0, 73, 0
2, 816, Note_on_c, 0, 71, 75
2, 839, Note_on_c, 0, 71, 0
2, 840, Note_on_c, 0, 73, 75
2, 863, Note_on_c, 0, 73, 0
2, 864, Note_on_c, 0, 69, 75
2, 909, Note_on_c, 0, 69, 0
2, 912, Note_on_c, 0, 81, 69
2, 957, Note_on_c, 0, 81, 0
2, 1008, Note_on_c, 0, 78, 69
2, 1053, Note_on_c, 0, 78, 0
2, 1104, Note_on_c, 0, 79, 69
2, 1149, Note_on_c, 0, 79, 0
2, 1200, Note_on_c, 0, 76, 69
2, 1245, Note_on_c, 0, 76, 0
2, 1296, Note_on_c, 0, 78, 69
2, 1341, Note_on_c, 0, 78, 0
2, 1392, Note_on_c, 0, 76, 69
2, 1437, Note_on_c, 0, 76, 0
2, 1440, Note_on_c, 0, 74, 69
2, 1463, Note_on_c, 0, 74, 0
2, 1464, Note_on_c, 0, 73, 69
2, 1487, Note_on_c, 0, 73, 0
2, 1488, Note_on_c, 0, 71, 69
2, 1511, Note_on_c, 0, 71, 0
2, 1512, Note_on_c, 0, 73, 69
2, 1535, Note_on_c, 0, 73, 0
2, 1536, Note_on_c, 0, 74, 69
2, 1625, Note_on_c, 0, 74, 0
2, 1680, Note_on_c, 0, 81, 69
2, 1725, Note_on_c, 0, 81, 0
2, 1776, Note_on_c, 0, 78, 69
2, 1821, Note_on_c, 0, 78, 0
2, 1872, Note_on_c, 0, 79, 69
2, 1917, Note_on_c, 0, 79, 0
2, 1968, Note_on_c, 0, 76, 69
2, 2013, Note_on_c, 0, 76, 0
2, 2064, Note_on_c, 0, 78, 69
2, 2109, Note_on_c, 0, 78, 0
2, 2160, Note_on_c, 0, 71, 70
2, 2205, Note_on_c, 0, 71, 0
2, 2256, Note_on_c, 0, 76, 73
2, 2301, Note_on_c, 0, 76, 0
2, 2304, Note_on_c, 0, 74, 74
2, 2327, Note_on_c, 0, 74, 0
2, 2328, Note_on_c, 0, 73, 75
2, 2351, Note_on_c, 0, 73, 0
2, 2352, Note_on_c, 0, 71, 75
2, 2375, Note_on_c, 0, 71, 0
2, 2376, Note_on_c, 0, 73, 75
2, 2399, Note_on_c, 0, 73, 0
2, 2400, Note_on_c, 0, 69, 75
2, 2445, Note_on_c, 0, 69, 0
2, 2448, Note_on_c, 0, 81, 69
2, 2493, Note_on_c, 0, 81, 0
2, 2544, Note_on_c, 0, 78, 69
2, 2589, Note_on_c, 0, 78, 0
2, 2640, Note_on_c, 0, 79, 69
2, 2685, Note_on_c, 0, 79, 0
2, 2736, Note_on_c, 0, 76, 69
2, 2781, Note_on_c, 0, 76, 0
2, 2832, Note_on_c, 0, 78, 69
2, 2877, Note_on_c, 0, 78, 0
2, 2928, Note_on_c, 0, 76, 69
2, 2973, Note_on_c, 0, 76, 0
2, 2976, Note_on_c, 0, 74, 69
2, 2999, Note_on_c, 0, 74, 0
2, 3000, Note_on_c, 0, 73, 69
2, 3023, Note_on_c, 0, 73, 0
2, 3024, Note_on_c, 0, 71, 69
2, 3047, Note_on_c, 0, 71, 0
2, 3048, Note_on_c, 0, 73, 69
2, 3071, Note_on_c, 0, 73, 0
2, 3072, Note_on_c, 0, 74, 69
2, 3161, Note_on_c, 0, 74, 0
2, 3216, Note_on_c, 0, 78, 69
2, 3261, Note_on_c, 0, 78, 0
2, 3312, Note_on_c, 0, 76, 69
2, 3357, Note_on_c, 0, 76, 0
2, 3408, Note_on_c, 0, 79, 69
2, 3453, Note_on_c, 0, 79, 0
2, 3504, Note_on_c, 0, 78, 69
2, 3549, Note_on_c, 0, 78, 0
2, 3600, Note_on_c, 0, 81, 69
2, 3645, Note_on_c, 0, 81, 0
2, 3648, Note_on_c, 0, 81, 69
2, 3671, Note_on_c, 0, 81, 0
2, 3672, Note_on_c, 0, 79, 69
2, 3695, Note_on_c, 0, 79, 0
2, 3696, Note_on_c, 0, 78, 69
2, 3719, Note_on_c, 0, 78, 0
2, 3720, Note_on_c, 0, 79, 69
2, 3743, Note_on_c, 0, 79, 0
2, 3744, Note_on_c, 0, 78, 69
2, 3767, Note_on_c, 0, 78, 0
2, 3768, Note_on_c, 0, 76, 69
2, 3791, Note_on_c, 0, 76, 0
2, 3792, Note_on_c, 0, 74, 69
2, 3815, Note_on_c, 0, 74, 0
2, 3816, Note_on_c, 0, 76, 69
2, 3839, Note_on_c, 0, 76, 0
2, 3840, Note_on_c, 0, 74, 69
2, 3863, Note_on_c, 0, 74, 0
2, 3864, Note_on_c, 0, 73, 69
2, 3887, Note_on_c, 0, 73, 0
2, 3888, Note_on_c, 0, 71, 69
2, 3911, Note_on_c, 0, 71, 0
2, 3912, Note_on_c, 0, 73, 69
2, 3935, Note_on_c, 0, 73, 0
2, 3936, Note_on_c, 0, 69, 69
2, 3981, Note_on_c, 0, 69, 0
2, 3984, Note_on_c, 0, 78, 69
2, 4029, Note_on_c, 0, 78, 0
2, 4080, Note_on_c, 0, 76, 69
2, 4125, Note_on_c, 0, 76, 0
2, 4176, Note_on_c, 0, 79, 69
2, 4221, Note_on_c, 0, 79, 0
2, 4272, Note_on_c, 0, 78, 69
2, 4317, Note_on_c, 0, 78, 0
2, 4368, Note_on_c, 0, 74, 69
2, 4413, Note_on_c, 0, 74, 0
2, 4464, Note_on_c, 0, 76, 69
2, 4509, Note_on_c, 0, 76, 0
2, 4512, Note_on_c, 0, 74, 69
2, 4535, Note_on_c, 0, 74, 0
2, 4536, Note_on_c, 0, 73, 69
2, 4559, Note_on_c, 0, 73, 0
2, 4560, Note_on_c, 0, 71, 69
2, 4583, Note_on_c, 0, 71, 0
2, 4584, Note_on_c, 0, 73, 69
2, 4607, Note_on_c, 0, 73, 0
2, 4608, Note_on_c, 0, 74, 69
2, 4697, Note_on_c, 0, 74, 0
2, 4752, Note_on_c, 0, 78, 69
2, 4797, Note_on_c, 0, 78, 0
2, 4848, Note_on_c, 0, 76, 69
2, 4893, Note_on_c, 0, 76, 0
2, 4944, Note_on_c, 0, 79, 69
2, 4989, Note_on_c, 0, 79, 0
2, 5040, Note_on_c, 0, 78, 69
2, 5085, Note_on_c, 0, 78, 0
2, 5136, Note_on_c, 0, 81, 69
2, 5181, Note_on_c, 0, 81, 0
2, 5184, Note_on_c, 0, 81, 69
2, 5207, Note_on_c, 0, 81, 0
2, 5208, Note_on_c, 0, 79, 69
2, 5231, Note_on_c, 0, 79, 0
2, 5232, Note_on_c, 0, 78, 69
2, 5255, Note_on_c, 0, 78, 0
2, 5256, Note_on_c, 0, 79, 69
2, 5279, Note_on_c, 0, 79, 0
2, 5280, Note_on_c, 0, 78, 69
2, 5303, Note_on_c, 0, 78, 0
2, 5304, Note_on_c, 0, 76, 69
2, 5327, Note_on_c, 0, 76, 0
2, 5328, Note_on_c, 0, 74, 69
2, 5351, Note_on_c, 0, 74, 0
2, 5352, Note_on_c, 0, 76, 69
2, 5375, Note_on_c, 0, 76, 0
2, 5376, Note_on_c, 0, 74, 69
2, 5399, Note_on_c, 0, 74, 0
2, 5400, Note_on_c, 0, 73, 69
2, 5423, Note_on_c, 0, 73, 0
2, 5424, Note_on_c, 0, 71, 69
2, 5447, Note_on_c, 0, 71, 0
2, 5448, Note_on_c, 0, 73, 69
2, 5471, Note_on_c, 0, 73, 0
2, 5472, Note_on_c, 0, 69, 69
2, 5517, Note_on_c, 0, 69, 0
2, 5520, Note_on_c, 0, 78, 69
2, 5565, Note_on_c, 0, 78, 0
2, 5616, Note_on_c, 0, 76, 69
2, 5661, Note_on_c, 0, 76, 0
2, 5712, Note_on_c, 0, 79, 69
2, 5757, Note_on_c, 0, 79, 0
2, 5808, Note_on_c, 0, 78, 69
2, 5853, Note_on_c, 0, 78, 0
2, 5904, Note_on_c, 0, 74, 69
2, 5949, Note_on_c, 0, 74, 0
2, 6000, Note_on_c, 0, 76, 69
2, 6045, Note_on_c, 0, 76, 0
2, 6048, Note_on_c, 0, 74, 69
2, 6071, Note_on_c, 0, 74, 0
2, 6072, Note_on_c, 0, 73, 69
2, 6095, Note_on_c, 0, 73, 0
2, 6096, Note_on_c, 0, 71, 69
2, 6119, Note_on_c, 0, 71, 0
2, 6120, Note_on_c, 0, 73, 69
2, 6143, Note_on_c, 0, 73, 0
2, 6144, Note_on_c, 0, 74, 69
2, 6233, Note_on_c, 0, 74, 0
2, 6288, Note_on_c, 0, 62, 84
2, 6333, Note_on_c, 0, 62, 0
2, 6336, Note_on_c, 0, 65, 84
2, 6356, Note_on_c, 0, 65, 0
2, 6384, Note_on_c, 0, 64, 84
2, 6404, Note_on_c, 0, 64, 0
2, 6432, Note_on_c, 0, 62, 84
2, 6452, Note_on_c, 0, 62, 0
2, 6480, Note_on_c, 0, 61, 84
2, 6500, Note_on_c, 0, 61, 0
2, 6528, Note_on_c, 0, 62, 84
2, 6548, Note_on_c, 0, 62, 0
2, 6576, Note_on_c, 0, 57, 84
2, 6596, Note_on_c, 0, 57, 0
2, 6624, Note_on_c, 0, 58, 84
2, 6644, Note_on_c, 0, 58, 0
2, 6672, Note_on_c, 0, 57, 84
2, 6692, Note_on_c, 0, 57, 0
2, 6720, Note_on_c, 0, 58, 84
2, 6732, Note_on_c, 0, 58, 0
2, 6732, Note_on_c, 0, 60, 84
2, 6744, Note_on_c, 0, 60, 0
2, 6744, Note_on_c, 0, 58, 84
2, 6765, Note_on_c, 0, 58, 0
2, 6768, Note_on_c, 0, 57, 84
2, 6813, Note_on_c, 0, 57, 0
2, 6816, Note_on_c, 0, 58, 84
2, 6836, Note_on_c, 0, 58, 0
2, 6864, Note_on_c, 0, 57, 84
2, 6884, Note_on_c, 0, 57, 0
2, 6912, Note_on_c, 0, 58, 84
2, 6924, Note_on_c, 0, 58, 0
2, 6924, Note_on_c, 0, 60, 84
2, 6936, Note_on_c, 0, 60, 0
2, 6936, Note_on_c, 0, 58, 84
2, 6957, Note_on_c, 0, 58, 0
2, 6960, Note_on_c, 0, 57, 84
2, 7005, Note_on_c, 0, 57, 0
2, 7104, Note_on_c, 0, 67, 69
2, 7104, Note_on_c, 0, 64, 69
2, 7281, Note_on_c, 0, 67, 0
2, 7281, Note_on_c, 0, 64, 0
2, 7296, Note_on_c, 0, 65, 69
2, 7296, Note_on_c, 0, 62, 69
2, 7473, Note_on_c, 0, 65, 0
2, 7473, Note_on_c, 0, 62, 0
2, 7536, Note_on_c, 0, 67, 69
2, 7536, Note_on_c, 0, 58, 69
2, 7581, Note_on_c, 0, 67, 0
2, 7581, Note_on_c, 0, 58, 0
2, 7632, Note_on_c, 0, 61, 69
2, 7632, Note_on_c, 0, 55, 69
2, 7677, Note_on_c, 0, 61, 0
2, 7677, Note_on_c, 0, 55, 0
2, 7680, Note_on_c, 0, 62, 69
2, 7680, Note_on_c, 0, 53, 69
2, 7769, Note_on_c, 0, 62, 0
2, 7769, Note_on_c, 0, 53, 0
2, 7824, Note_on_c, 0, 62, 84
2, 7869, Note_on_c, 0, 62, 0
2, 7872, Note_on_c, 0, 65, 84
2, 7892, Note_on_c, 0, 65, 0
2, 7920, Note_on_c, 0, 64, 84
2, 7940, Note_on_c, 0, 64, 0
2, 7968, Note_on_c, 0, 62, 84
2, 7988, Note_on_c, 0, 62, 0
2, 8016, Note_on_c, 0, 61, 84
2, 8036, Note_on_c, 0, 61, 0
2, 8064, Note_on_c, 0, 62, 84
2, 8084, Note_on_c, 0, 62, 0
2, 8112, Note_on_c, 0, 57, 84
2, 8132, Note_on_c, 0, 57, 0
2, 8160, Note_on_c, 0, 58, 84
2, 8180, Note_on_c, 0, 58, 0
2, 8208, Note_on_c, 0, 57, 84
2, 8228, Note_on_c, 0, 57, 0
2, 8256, Note_on_c, 0, 58, 84
2, 8268, Note_on_c, 0, 58, 0
2, 8268, Note_on_c, 0, 60, 84
2, 8280, Note_on_c, 0, 60, 0
2, 8280, Note_on_c, 0, 58, 84
2, 8301, Note_on_c, 0, 58, 0
2, 8304, Note_on_c, 0, 57, 84
2, 8349, Note_on_c, 0, 57, 0
2, 8352, Note_on_c, 0, 58, 84
2, 8372, Note_on_c, 0, 58, 0
2, 8400, Note_on_c, 0, 57, 84
2, 8420, Note_on_c, 0, 57, 0
2, 8448, Note_on_c, 0, 58, 84
2, 8460, Note_on_c, 0, 58, 0
2, 8460, Note_on_c, 0, 60, 84
2, 8472, Note_on_c, 0, 60, 0
2, 8472, Note_on_c, 0, 58, 84
2, 8493, Note_on_c, 0, 58, 0
2, 8496, Note_on_c, 0, 57, 84
2, 8541, Note_on_c, 0, 57, 0
2, 8640, Note_on_c, 0, 67, 69
2, 8640, Note_on_c, 0, 64, 69
2, 8817, Note_on_c, 0, 67, 0
2, 8817, Note_on_c, 0, 64, 0
2, 8832, Note_on_c, 0, 65, 69
2, 8832, Note_on_c, 0, 62, 69
2, 9009, Note_on_c, 0, 65, 0
2, 9009, Note_on_c, 0, 62, 0
2, 9072, Note_on_c, 0, 67, 69
2, 9072, Note_on_c, 0, 58, 69
2, 9117, Note_on_c, 0, 67, 0
2, 9117, Note_on_c, 0, 58, 0
2, 9168, Note_on_c, 0, 61, 69
2, 9168, Note_on_c, 0, 55, 69
2, 9213, Note_on_c, 0, 61, 0
2, 9213, Note_on_c, 0, 55, 0
2, 9216, Note_on_c, 0, 62, 69
2, 9216, Note_on_c, 0, 53, 69
2, 9305, Note_on_c, 0, 62, 0
2, 9305, Note_on_c, 0, 53, 0
2, 9360, Note_on_c, 0, 60, 84
2, 9405, Note_on_c, 0, 60, 0
2, 9408, Note_on_c, 0, 65, 84
2, 9453, Note_on_c, 0, 65, 0
2, 9456, Note_on_c, 0, 69, 84
2, 9501, Note_on_c, 0, 69, 0
2, 9504, Note_on_c, 0, 72, 84
2, 9549, Note_on_c, 0, 72, 0
2, 9552, Note_on_c, 0, 69, 84
2, 9597, Note_on_c, 0, 69, 0
2, 9600, Note_on_c, 0, 67, 84
2, 9612, Note_on_c, 0, 67, 0
2, 9612, Note_on_c, 0, 69, 84
2, 9624, Note_on_c, 0, 69, 0
2, 9624, Note_on_c, 0, 67, 84
2, 9645, Note_on_c, 0, 67, 0
2, 9648, Note_on_c, 0, 65, 84
2, 9693, Note_on_c, 0, 65, 0
2, 9696, Note_on_c, 0, 67, 84
2, 9708, Note_on_c, 0, 67, 0
2, 9708, Note_on_c, 0, 69, 84
2, 9720, Note_on_c, 0, 69, 0
2, 9720, Note_on_c, 0, 67, 84
2, 9741, Note_on_c, 0, 67, 0
2, 9744, Note_on_c, 0, 65, 84
2, 9789, Note_on_c, 0, 65, 0
2, 9792, Note_on_c, 0, 70, 84
2, 9792, Note_on_c, 0, 67, 84
2, 9837, Note_on_c, 0, 70, 0
2, 9837, Note_on_c, 0, 67, 0
2, 9888, Note_on_c, 0, 69, 84
2, 9888, Note_on_c, 0, 65, 84
2, 9933, Note_on_c, 0, 69, 0
2, 9933, Note_on_c, 0, 65, 0
2, 9984, Note_on_c, 0, 67, 84
2, 9996, Note_on_c, 0, 67, 0
2, 9996, Note_on_c, 0, 69, 84
2, 10008, Note_on_c, 0, 69, 0
2, 10008, Note_on_c, 0, 67, 84
2, 10029, Note_on_c, 0, 67, 0
2, 10032, Note_on_c, 0, 65, 84
2, 10077, Note_on_c, 0, 65, 0
2, 10080, Note_on_c, 0, 67, 84
2, 10092, Note_on_c, 0, 67, 0
2, 10092, Note_on_c, 0, 69, 84
2, 10104, Note_on_c, 0, 69, 0
2, 10104, Note_on_c, 0, 67, 84
2, 10125, Note_on_c, 0, 67, 0
2, 10128, Note_on_c, 0, 65, 84
2, 10173, Note_on_c, 0, 65, 0
2, 10176, Note_on_c, 0, 70, 84
2, 10176, Note_on_c, 0, 67, 84
2, 10221, Note_on_c, 0, 70, 0
2, 10221, Note_on_c, 0, 67, 0
2, 10272, Note_on_c, 0, 69, 80
2, 10272, Note_on_c, 0, 65, 80
2, 10317, Note_on_c, 0, 69, 0
2, 10317, Note_on_c, 0, 65, 0
2, 10368, Note_on_c, 0, 70, 76
2, 10368, Note_on_c, 0, 67, 76
2, 10413, Note_on_c, 0, 70, 0
2, 10413, Note_on_c, 0, 67, 0
2, 10464, Note_on_c, 0, 69, 72
2, 10464, Note_on_c, 0, 65, 72
2, 10509, Note_on_c, 0, 69, 0
2, 10509, Note_on_c, 0, 65, 0
2, 10608, Note_on_c, 0, 67, 69
2, 10653, Note_on_c, 0, 67, 0
2, 10656, Note_on_c, 0, 65, 69
2, 10668, Note_on_c, 0, 65, 0
2, 10668, Note_on_c, 0, 67, 69
2, 10680, Note_on_c, 0, 67, 0
2, 10680, Note_on_c, 0, 65, 69
2, 10701, Note_on_c, 0, 65, 0
2, 10704, Note_on_c, 0, 64, 69
2, 10749, Note_on_c, 0, 64, 0
2, 10752, Note_on_c, 0, 65, 69
2, 10841, Note_on_c, 0, 65, 0
2, 10896, Note_on_c, 0, 62, 69
2, 10941, Note_on_c, 0, 62, 0
2, 10944, Note_on_c, 0, 66, 69
2, 10944, Note_on_c, 0, 60, 69
2, 10989, Note_on_c, 0, 66, 0
2, 10989, Note_on_c, 0, 60, 0
2, 11040, Note_on_c, 0, 67, 72
2, 11040, Note_on_c, 0, 59, 72
2, 11085, Note_on_c, 0, 67, 0
2, 11085, Note_on_c, 0, 59, 0
2, 11136, Note_on_c, 0, 68, 76
2, 11136, Note_on_c, 0, 62, 76
2, 11181, Note_on_c, 0, 68, 0
2, 11181, Note_on_c, 0, 62, 0
2, 11232, Note_on_c, 0, 69, 80
2, 11232, Note_on_c, 0, 61, 80
2, 11277, Note_on_c, 0, 69, 0
2, 11277, Note_on_c, 0, 61, 0
2, 11376, Note_on_c, 0, 67, 84
2, 11376, Note_on_c, 0, 64, 84
2, 11421, Note_on_c, 0, 67, 0
2, 11421, Note_on_c, 0, 64, 0
2, 11424, Note_on_c, 0, 67, 84
2, 11424, Note_on_c, 0, 64, 84
2, 11469, Note_on_c, 0, 67, 0
2, 11469, Note_on_c, 0, 64, 0
2, 11472, Note_on_c, 0, 65, 84
2, 11472, Note_on_c, 0, 62, 84
2, 11517, Note_on_c, 0, 65, 0
2, 11517, Note_on_c, 0, 62, 0
2, 11520, Note_on_c, 0, 65, 81
2, 11520, Note_on_c, 0, 62, 81
2, 11616, Note_on_c, 0, 65, 0
2, 11616, Note_on_c, 0, 62, 0
2, 11616, Note_on_c, 0, 64, 77
2, 11616, Note_on_c, 0, 61, 77
2, 11661, Note_on_c, 0, 64, 0
2, 11661, Note_on_c, 0, 61, 0
2, 11664, Note_on_c, 0, 62, 84
2, 11684, Note_on_c, 0, 62, 0
2, 11712, Note_on_c, 0, 65, 84
2, 11732, Note_on_c, 0, 65, 0
2, 11760, Note_on_c, 0, 64, 84
2, 11780, Note_on_c, 0, 64, 0
2, 11808, Note_on_c, 0, 62, 84
2, 11828, Note_on_c, 0, 62, 0
2, 11856, Note_on_c, 0, 61, 84
2, 11876, Note_on_c, 0, 61, 0
2, 11904, Note_on_c, 0, 62, 84
2, 11924, Note_on_c, 0, 62, 0
2, 11952, Note_on_c, 0, 57, 84
2, 11972, Note_on_c, 0, 57, 0
2, 12000, Note_on_c, 0, 58, 84
2, 12020, Note_on_c, 0, 58, 0
2, 12048, Note_on_c, 0, 57, 84
2, 12068, Note_on_c, 0, 57, 0
2, 12096, Note_on_c, 0, 58, 84
2, 12108, Note_on_c, 0, 58, 0
2, 12108, Note_on_c, 0, 60, 84
2, 12120, Note_on_c, 0, 60, 0
2, 12120, Note_on_c, 0, 58, 84
2, 12141, Note_on_c, 0, 58, 0
2, 12144, Note_on_c, 0, 57, 84
2, 12189, Note_on_c, 0, 57, 0
2, 12192, Note_on_c, 0, 58, 84
2, 12212, Note_on_c, 0, 58, 0
2, 12240, Note_on_c, 0, 57, 84
2, 12260, Note_on_c, 0, 57, 0
2, 12288, Note_on_c, 0, 58, 84
2, 12300, Note_on_c, 0, 58, 0
2, 12300, Note_on_c, 0, 60, 84
2, 12312, Note_on_c, 0, 60, 0
2, 12312, Note_on_c, 0, 58, 84
2, 12333, Note_on_c, 0, 58, 0
2, 12336, Note_on_c, 0, 57, 84
2, 12381, Note_on_c, 0, 57, 0
2, 12480, Note_on_c, 0, 67, 69
2, 12480, Note_on_c, 0, 64, 69
2, 12657, Note_on_c, 0, 67, 0
2, 12657, Note_on_c, 0, 64, 0
2, 12672, Note_on_c, 0, 65, 69
2, 12672, Note_on_c, 0, 62, 69
2, 12849, Note_on_c, 0, 65, 0
2, 12849, Note_on_c, 0, 62, 0
2, 12912, Note_on_c, 0, 67, 69
2, 12912, Note_on_c, 0, 58, 69
2, 12957, Note_on_c, 0, 67, 0
2, 12957, Note_on_c, 0, 58, 0
2, 13008, Note_on_c, 0, 61, 69
2, 13008, Note_on_c, 0, 55, 69
2, 13053, Note_on_c, 0, 61, 0
2, 13053, Note_on_c, 0, 55, 0
2, 13056, Note_on_c, 0, 62, 69
2, 13056, Note_on_c, 0, 53, 69
2, 13145, Note_on_c, 0, 62, 0
2, 13145, Note_on_c, 0, 53, 0
2, 13200, Note_on_c, 0, 60, 84
2, 13245, Note_on_c, 0, 60, 0
2, 13248, Note_on_c, 0, 65, 84
2, 13293, Note_on_c, 0, 65, 0
2, 13296, Note_on_c, 0, 69, 84
2, 13341, Note_on_c, 0, 69, 0
2, 13344, Note_on_c, 0, 72, 84
2, 13389, Note_on_c, 0, 72, 0
2, 13392, Note_on_c, 0, 69, 84
2, 13437, Note_on_c, 0, 69, 0
2, 13440, Note_on_c, 0, 67, 84
2, 13452, Note_on_c, 0, 67, 0
2, 13452, Note_on_c, 0, 69, 84
2, 13464, Note_on_c, 0, 69, 0
2, 13464, Note_on_c, 0, 67, 84
2, 13485, Note_on_c, 0, 67, 0
2, 13488, Note_on_c, 0, 65, 84
2, 13533, Note_on_c, 0, 65, 0
2, 13536, Note_on_c, 0, 67, 84
2, 13548, Note_on_c, 0, 67, 0
2, 13548, Note_on_c, 0, 69, 84
2, 13560, Note_on_c, 0, 69, 0
2, 13560, Note_on_c, 0, 67, 84
2, 13581, Note_on_c, 0, 67, 0
2, 13584, Note_on_c, 0, 65, 84
2, 13629, Note_on_c, 0, 65, 0
2, 13632, Note_on_c, 0, 70, 84
2, 13632, Note_on_c, 0, 67, 84
2, 13677, Note_on_c, 0, 70, 0
2, 13677, Note_on_c, 0, 67, 0
2, 13728, Note_on_c, 0, 69, 84
2, 13728, Note_on_c, 0, 65, 84
2, 13773, Note_on_c, 0, 69, 0
2, 13773, Note_on_c, 0, 65, 0
2, 13824, Note_on_c, 0, 67, 84
2, 13836, Note_on_c, 0, 67, 0
2, 13836, Note_on_c, 0, 69, 84
2, 13848, Note_on_c, 0, 69, 0
2, 13848, Note_on_c, 0, 67, 84
2, 13869, Note_on_c, 0, 67, 0
2, 13872, Note_on_c, 0, 65, 84
2, 13917, Note_on_c, 0, 65, 0
2, 13920, Note_on_c, 0, 67, 84
2, 13932, Note_on_c, 0, 67, 0
2, 13932, Note_on_c, 0, 69, 84
2, 13944, Note_on_c, 0, 69, 0
2, 13944, Note_on_c, 0, 67, 84
2, 13965, Note_on_c, 0, 67, 0
2, 13968, Note_on_c, 0, 65, 84
2, 14013, Note_on_c, 0, 65, 0
2, 14016, Note_on_c, 0, 70, 84
2, 14016, Note_on_c, 0, 67, 84
2, 14061, Note_on_c, 0, 70, 0
2, 14061, Note_on_c, 0, 67, 0
2, 14112, Note_on_c, 0, 69, 80
2, 14112, Note_on_c, 0, 65, 80
2, 14157, Note_on_c, 0, 69, 0
2, 14157, Note_on_c, 0, 65, 0
2, 14208, Note_on_c, 0, 70, 76
2, 14208, Note_on_c, 0, 67, 76
2, 14253, Note_on_c, 0, 70, 0
2, 14253, Note_on_c, 0, 67, 0
2, 14304, Note_on_c, 0, 69, 72
2, 14304, Note_on_c, 0, 65, 72
2, 14349, Note_on_c, 0, 69, 0
2, 14349, Note_on_c, 0, 65, 0
2, 14448, Note_on_c, 0, 67, 69
2, 14493, Note_on_c, 0, 67, 0
2, 14496, Note_on_c, 0, 65, 69
2, 14508, Note_on_c, 0, 65, 0
2, 14508, Note_on_c, 0, 67, 69
2, 14520, Note_on_c, 0, 67, 0
2, 14520, Note_on_c, 0, 65, 69
2, 14541, Note_on_c, 0, 65, 0
2, 14544, Note_on_c, 0, 64, 69
2, 14589, Note_on_c, 0, 64, 0
2, 14592, Note_on_c, 0, 65, 69
2, 14681, Note_on_c, 0, 65, 0
2, 14736, Note_on_c, 0, 62, 69
2, 14781, Note_on_c, 0, 62, 0
2, 14784, Note_on_c, 0, 66, 69
2, 14784, Note_on_c, 0, 60, 69
2, 14829, Note_on_c, 0, 66, 0
2, 14829, Note_on_c, 0, 60, 0
2, 14880, Note_on_c, 0, 67, 72
2, 14880, Note_on_c, 0, 59, 72
2, 14925, Note_on_c, 0, 67, 0
2, 14925, Note_on_c, 0, 59, 0
2, 14976, Note_on_c, 0, 68, 76
2, 14976, Note_on_c, 0, 62, 76
2, 15021, Note_on_c, 0, 68, 0
2, 15021, Note_on_c, 0, 62, 0
2, 15072, Note_on_c, 0, 69, 80
2, 15072, Note_on_c, 0, 61, 80
2, 15117, Note_on_c, 0, 69, 0
2, 15117, Note_on_c, 0, 61, 0
2, 15216, Note_on_c, 0, 67, 84
2, 15216, Note_on_c, 0, 64, 84
2, 15261, Note_on_c, 0, 67, 0
2, 15261, Note_on_c, 0, 64, 0
2, 15264, Note_on_c, 0, 67, 84
2, 15264, Note_on_c, 0, 64, 84
2, 15309, Note_on_c, 0, 67, 0
2, 15309, Note_on_c, 0, 64, 0
2, 15312, Note_on_c, 0, 65, 84
2, 15312, Note_on_c, 0, 62, 84
2, 15357, Note_on_c, 0, 65, 0
2, 15357, Note_on_c, 0, 62, 0
2, 15360, Note_on_c, 0, 65, 81
2, 15360, Note_on_c, 0, 62, 81
2, 15456, Note_on_c, 0, 65, 0
2, 15456, Note_on_c, 0, 62, 0
2, 15456, Note_on_c, 0, 64, 77
2, 15456, Note_on_c, 0, 61, 77
2, 15501, Note_on_c, 0, 64, 0
2, 15501, Note_on_c, 0, 61, 0
2, 15504, Note_on_c, 0, 62, 84
2, 15524, Note_on_c, 0, 62, 0
2, 15552, Note_on_c, 0, 65, 84
2, 15572, Note_on_c, 0, 65, 0
2, 15600, Note_on_c, 0, 64, 84
2, 15620, Note_on_c, 0, 64, 0
2, 15648, Note_on_c, 0, 62, 84
2, 15668, Note_on_c, 0, 62, 0
2, 15696, Note_on_c, 0, 61, 84
2, 15716, Note_on_c, 0, 61, 0
2, 15744, Note_on_c, 0, 62, 84
2, 15764, Note_on_c, 0, 62, 0
2, 15792, Note_on_c, 0, 57, 84
2, 15812, Note_on_c, 0, 57, 0
2, 15840, Note_on_c, 0, 58, 84
2, 15860, Note_on_c, 0, 58, 0
2, 15888, Note_on_c, 0, 57, 84
2, 15908, Note_on_c, 0, 57, 0
2, 15936, Note_on_c, 0, 58, 84
2, 15948, Note_on_c, 0, 58, 0
2, 15948, Note_on_c, 0, 60, 84
2, 15960, Note_on_c, 0, 60, 0
2, 15960, Note_on_c, 0, 58, 84
2, 15981, Note_on_c, 0, 58, 0
2, 15984, Note_on_c, 0, 57, 84
2, 16029, Note_on_c, 0, 57, 0
2, 16032, Note_on_c, 0, 58, 84
2, 16052, Note_on_c, 0, 58, 0
2, 16080, Note_on_c, 0, 57, 84
2, 16100, Note_on_c, 0, 57, 0
2, 16128, Note_on_c, 0, 58, 84
2, 16140, Note_on_c, 0, 58, 0
2, 16140, Note_on_c, 0, 60, 84
2, 16152, Note_on_c, 0, 60, 0
2, 16152, Note_on_c, 0, 58, 84
2, 16173, Note_on_c, 0, 58, 0
2, 16176, Note_on_c, 0, 57, 84
2, 16221, Note_on_c, 0, 57, 0
2, 16320, Note_on_c, 0, 67, 69
2, 16320, Note_on_c, 0, 64, 69
2, 16497, Note_on_c, 0, 67, 0
2, 16497, Note_on_c, 0, 64, 0
2, 16512, Note_on_c, 0, 65, 69
2, 16512, Note_on_c, 0, 62, 69
2, 16689, Note_on_c, 0, 65, 0
2, 16689, Note_on_c, 0, 62, 0
2, 16752, Note_on_c, 0, 67, 69
2, 16752, Note_on_c, 0, 58, 69
2, 16797, Note_on_c, 0, 67, 0
2, 16797, Note_on_c, 0, 58, 0
2, 16848, Note_on_c, 0, 61, 69
2, 16848, Note_on_c, 0, 55, 69
2, 16893, Note_on_c, 0, 61, 0
2, 16893, Note_on_c, 0, 55, 0
2, 16896, Note_on_c, 0, 62, 69
2, 16896, Note_on_c, 0, 53, 69
2, 16985, Note_on_c, 0, 62, 0
2, 16985, Note_on_c, 0, 53, 0
2, 17040, Note_on_c, 0, 81, 69
2, 17085, Note_on_c, 0, 81, 0
2, 17088, Note_on_c, 0, 78, 69
2, 17111, Note_on_c, 0, 78, 0
2, 17112, Note_on_c, 0, 81, 69
2, 17135, Note_on_c, 0, 81, 0
2, 17136, Note_on_c, 0, 86, 69
2, 17159, Note_on_c, 0, 86, 0
2, 17160, Note_on_c, 0, 81, 69
2, 17183, Note_on_c, 0, 81, 0
2, 17184, Note_on_c, 0, 78, 69
2, 17207, Note_on_c, 0, 78, 0
2, 17208, Note_on_c, 0, 79, 69
2, 17231, Note_on_c, 0, 79, 0
2, 17232, Note_on_c, 0, 83, 69
2, 17255, Note_on_c, 0, 83, 0
2, 17256, Note_on_c, 0, 79, 69
2, 17279, Note_on_c, 0, 79, 0
2, 17280, Note_on_c, 0, 76, 69
2, 17303, Note_on_c, 0, 76, 0
2, 17304, Note_on_c, 0, 79, 69
2, 17327, Note_on_c, 0, 79, 0
2, 17328, Note_on_c, 0, 81, 69
2, 17351, Note_on_c, 0, 81, 0
2, 17352, Note_on_c, 0, 79, 69
2, 17375, Note_on_c, 0, 79, 0
2, 17376, Note_on_c, 0, 74, 69
2, 17399, Note_on_c, 0, 74, 0
2, 17400, Note_on_c, 0, 78, 69
2, 17423, Note_on_c, 0, 78, 0
2, 17424, Note_on_c, 0, 81, 69
2, 17447, Note_on_c, 0, 81, 0
2, 17448, Note_on_c, 0, 78, 69
2, 17471, Note_on_c, 0, 78, 0
2, 17472, Note_on_c, 0, 71, 75
2, 17495, Note_on_c, 0, 71, 0
2, 17496, Note_on_c, 0, 76, 76
2, 17519, Note_on_c, 0, 76, 0
2, 17520, Note_on_c, 0, 79, 77
2, 17543, Note_on_c, 0, 79, 0
2, 17544, Note_on_c, 0, 76, 78
2, 17567, Note_on_c, 0, 76, 0
2, 17568, Note_on_c, 0, 71, 79
2, 17591, Note_on_c, 0, 71, 0
2, 17592, Note_on_c, 0, 74, 80
2, 17615, Note_on_c, 0, 74, 0
2, 17616, Note_on_c, 0, 76, 81
2, 17639, Note_on_c, 0, 76, 0
2, 17640, Note_on_c, 0, 74, 82
2, 17663, Note_on_c, 0, 74, 0
2, 17664, Note_on_c, 0, 69, 84
2, 17687, Note_on_c, 0, 69, 0
2, 17688, Note_on_c, 0, 73, 84
2, 17711, Note_on_c, 0, 73, 0
2, 17712, Note_on_c, 0, 76, 84
2, 17735, Note_on_c, 0, 76, 0
2, 17736, Note_on_c, 0, 73, 84
2, 17759, Note_on_c, 0, 73, 0
2, 17760, Note_on_c, 0, 69, 84
2, 17805, Note_on_c, 0, 69, 0
2, 17808, Note_on_c, 0, 81, 84
2, 17853, Note_on_c, 0, 81, 0
2, 17856, Note_on_c, 0, 78, 75
2, 17879, Note_on_c, 0, 78, 0
2, 17880, Note_on_c, 0, 81, 75
2, 17903, Note_on_c, 0, 81, 0
2, 17904, Note_on_c, 0, 86, 75
2, 17927, Note_on_c, 0, 86, 0
2, 17928, Note_on_c, 0, 81, 75
2, 17951, Note_on_c, 0, 81, 0
2, 17952, Note_on_c, 0, 78, 75
2, 17975, Note_on_c, 0, 78, 0
2, 17976, Note_on_c, 0, 79, 75
2, 17999, Note_on_c, 0, 79, 0
2, 18000, Note_on_c, 0, 83, 75
2, 18023, Note_on_c, 0, 83, 0
2, 18024, Note_on_c, 0, 79, 75
2, 18047, Note_on_c, 0, 79, 0
2, 18048, Note_on_c, 0, 76, 75
2, 18071, Note_on_c, 0, 76, 0
2, 18072, Note_on_c, 0, 79, 75
2, 18095, Note_on_c, 0, 79, 0
2, 18096, Note_on_c, 0, 81, 75
2, 18119, Note_on_c, 0, 81, 0
2, 18120, Note_on_c, 0, 79, 75
2, 18143, Note_on_c, 0, 79, 0
2, 18144, Note_on_c, 0, 74, 75
2, 18167, Note_on_c, 0, 74, 0
2, 18168, Note_on_c, 0, 78, 75
2, 18191, Note_on_c, 0, 78, 0
2, 18192, Note_on_c, 0, 81, 75
2, 18215, Note_on_c, 0, 81, 0
2, 18216, Note_on_c, 0, 78, 75
2, 18239, Note_on_c, 0, 78, 0
2, 18240, Note_on_c, 0, 71, 75
2, 18263, Note_on_c, 0, 71, 0
2, 18264, Note_on_c, 0, 76, 75
2, 18287, Note_on_c, 0, 76, 0
2, 18288, Note_on_c, 0, 79, 75
2, 18311, Note_on_c, 0, 79, 0
2, 18312, Note_on_c, 0, 76, 75
2, 18335, Note_on_c, 0, 76, 0
2, 18336, Note_on_c, 0, 69, 75
2, 18359, Note_on_c, 0, 69, 0
2, 18360, Note_on_c, 0, 73, 75
2, 18383, Note_on_c, 0, 73, 0
2, 18384, Note_on_c, 0, 76, 75
2, 18407, Note_on_c, 0, 76, 0
2, 18408, Note_on_c, 0, 73, 75
2, 18431, Note_on_c, 0, 73, 0
2, 18432, Note_on_c, 0, 74, 75
2, 18521, Note_on_c, 0, 74, 0
2, 18576, Note_on_c, 0, 81, 69
2, 18621, Note_on_c, 0, 81, 0
2, 18624, Note_on_c, 0, 78, 69
2, 18647, Note_on_c, 0, 78, 0
2, 18648, Note_on_c, 0, 81, 69
2, 18671, Note_on_c, 0, 81, 0
2, 18672, Note_on_c, 0, 86, 69
2, 18695, Note_on_c, 0, 86, 0
2, 18696, Note_on_c, 0, 81, 69
2, 18719, Note_on_c, 0, 81, 0
2, 18720, Note_on_c, 0, 78, 69
2, 18743, Note_on_c, 0, 78, 0
2, 18744, Note_on_c, 0, 79, 69
2, 18767, Note_on_c, 0, 79, 0
2, 18768, Note_on_c, 0, 83, 69
2, 18791, Note_on_c, 0, 83, 0
2, 18792, Note_on_c, 0, 79, 69
2, 18815, Note_on_c, 0, 79, 0
2, 18816, Note_on_c, 0, 76, 69
2, 18839, Note_on_c, 0, 76, 0
2, 18840, Note_on_c, 0, 79, 69
2, 18863, Note_on_c, 0, 79, 0
2, 18864, Note_on_c, 0, 81, 69
2, 18887, Note_on_c, 0, 81, 0
2, 18888, Note_on_c, 0, 79, 69
2, 18911, Note_on_c, 0, 79, 0
2, 18912, Note_on_c, 0, 74, 69
2, 18935, Note_on_c, 0, 74, 0
2, 18936, Note_on_c, 0, 78, 69
2, 18959, Note_on_c, 0, 78, 0
2, 18960, Note_on_c, 0, 81, 69
2, 18983, Note_on_c, 0, 81, 0
2, 18984, Note_on_c, 0, 78, 69
2, 19007, Note_on_c, 0, 78, 0
2, 19008, Note_on_c, 0, 71, 75
2, 19031, Note_on_c, 0, 71, 0
2, 19032, Note_on_c, 0, 76, 76
2, 19055, Note_on_c, 0, 76, 0
2, 19056, Note_on_c, 0, 79, 77
2, 19079, Note_on_c, 0, 79, 0
2, 19080, Note_on_c, 0, 76, 78
2, 19103, Note_on_c, 0, 76, 0
2, 19104, Note_on_c, 0, 71, 79
2, 19127, Note_on_c, 0, 71, 0
2, 19128, Note_on_c, 0, 74, 80
2, 19151, Note_on_c, 0, 74, 0
2, 19152, Note_on_c, 0, 76, 81
2, 19175, Note_on_c, 0, 76, 0
2, 19176, Note_on_c, 0, 74, 82
2, 19199, Note_on_c, 0, 74, 0
2, 19200, Note_on_c, 0, 69, 84
2, 19223, Note_on_c, 0, 69, 0
2, 19224, Note_on_c, 0, 73, 84
2, 19247, Note_on_c, 0, 73, 0
2, 19248, Note_on_c, 0, 76, 84
2, 19271, Note_on_c, 0, 76, 0
2, 19272, Note_on_c, 0, 73, 84
2, 19295, Note_on_c, 0, 73, 0
2, 19296, Note_on_c, 0, 69, 84
2, 19341, Note_on_c, 0, 69, 0
2, 19344, Note_on_c, 0, 81, 84
2, 19389, Note_on_c, 0, 81, 0
2, 19392, Note_on_c, 0, 78, 75
2, 19415, Note_on_c, 0, 78, 0
2, 19416, Note_on_c, 0, 81, 75
2, 19439, Note_on_c, 0, 81, 0
2, 19440, Note_on_c, 0, 86, 75
2, 19463, Note_on_c, 0, 86, 0
2, 19464, Note_on_c, 0, 81, 75
2, 19487, Note_on_c, 0, 81, 0
2, 19488, Note_on_c, 0, 78, 75
2, 19511, Note_on_c, 0, 78, 0
2, 19512, Note_on_c, 0, 79, 75
2, 19535, Note_on_c, 0, 79, 0
2, 19536, Note_on_c, 0, 83, 75
2, 19559, Note_on_c, 0, 83, 0
2, 19560, Note_on_c, 0, 79, 75
2, 19583, Note_on_c, 0, 79, 0
2, 19584, Note_on_c, 0, 76, 75
2, 19607, Note_on_c, 0, 76, 0
2, 19608, Note_on_c, 0, 79, 75
2, 19631, Note_on_c, 0, 79, 0
2, 19632, Note_on_c, 0, 81, 75
2, 19655, Note_on_c, 0, 81, 0
2, 19656, Note_on_c, 0, 79, 75
2, 19679, Note_on_c, 0, 79, 0
2, 19680, Note_on_c, 0, 74, 75
2, 19703, Note_on_c, 0, 74, 0
2, 19704, Note_on_c, 0, 78, 75
2, 19727, Note_on_c, 0, 78, 0
2, 19728, Note_on_c, 0, 81, 75
2, 19751, Note_on_c, 0, 81, 0
2, 19752, Note_on_c, 0, 78, 75
2, 19775, Note_on_c, 0, 78, 0
2, 19776, Note_on_c, 0, 71, 75
2, 19799, Note_on_c, 0, 71, 0
2, 19800, Note_on_c, 0, 76, 75
2, 19823, Note_on_c, 0, 76, 0
2, 19824, Note_on_c, 0, 79, 75
2, 19847, Note_on_c, 0, 79, 0
2, 19848, Note_on_c, 0, 76, 75
2, 19871, Note_on_c, 0, 76, 0
2, 19872, Note_on_c, 0, 69, 75
2, 19895, Note_on_c, 0, 69, 0
2, 19896, Note_on_c, 0, 73, 75
2, 19919, Note_on_c, 0, 73, 0
2, 19920, Note_on_c, 0, 76, 75
2, 19943, Note_on_c, 0, 76, 0
2, 19944, Note_on_c, 0, 73, 75
2, 19967, Note_on_c, 0, 73, 0
2, 19968, Note_on_c, 0, 74, 75
2, 20057, Note_on_c, 0, 74, 0
2, 20112, Note_on_c, 0, 78, 75
2, 20157, Note_on_c, 0, 78, 0
2, 20160, Note_on_c, 0, 69, 75
2, 20183, Note_on_c, 0, 69, 0
2, 20184, Note_on_c, 0, 76, 75
2, 20207, Note_on_c, 0, 76, 0
2, 20208, Note_on_c, 0, 79, 75
2, 20231, Note_on_c, 0, 79, 0
2, 20232, Note_on_c, 0, 76, 75
2, 20255, Note_on_c, 0, 76, 0
2, 20256, Note_on_c, 0, 73, 75
2, 20279, Note_on_c, 0, 73, 0
2, 20280, Note_on_c, 0, 76, 75
2, 20303, Note_on_c, 0, 76, 0
2, 20304, Note_on_c, 0, 79, 75
2, 20327, Note_on_c, 0, 79, 0
2, 20328, Note_on_c, 0, 76, 75
2, 20351, Note_on_c, 0, 76, 0
2, 20352, Note_on_c, 0, 69, 75
2, 20375, Note_on_c, 0, 69, 0
2, 20376, Note_on_c, 0, 74, 75
2, 20399, Note_on_c, 0, 74, 0
2, 20400, Note_on_c, 0, 78, 75
2, 20423, Note_on_c, 0, 78, 0
2, 20424, Note_on_c, 0, 74, 75
2, 20447, Note_on_c, 0, 74, 0
2, 20448, Note_on_c, 0, 69, 75
2, 20471, Note_on_c, 0, 69, 0
2, 20472, Note_on_c, 0, 74, 75
2, 20495, Note_on_c, 0, 74, 0
2, 20496, Note_on_c, 0, 78, 75
2, 20519, Note_on_c, 0, 78, 0
2, 20520, Note_on_c, 0, 74, 75
2, 20543, Note_on_c, 0, 74, 0
2, 20544, Note_on_c, 0, 71, 75
2, 20567, Note_on_c, 0, 71, 0
2, 20568, Note_on_c, 0, 74, 76
2, 20591, Note_on_c, 0, 74, 0
2, 20592, Note_on_c, 0, 76, 77
2, 20615, Note_on_c, 0, 76, 0
2, 20616, Note_on_c, 0, 74, 78
2, 20639, Note_on_c, 0, 74, 0
2, 20640, Note_on_c, 0, 71, 79
2, 20663, Note_on_c, 0, 71, 0
2, 20664, Note_on_c, 0, 74, 80
2, 20687, Note_on_c, 0, 74, 0
2, 20688, Note_on_c, 0, 76, 81
2, 20711, Note_on_c, 0, 76, 0
2, 20712, Note_on_c, 0, 74, 82
2, 20735, Note_on_c, 0, 74, 0
2, 20736, Note_on_c, 0, 69, 83
2, 20759, Note_on_c, 0, 69, 0
2, 20760, Note_on_c, 0, 73, 84
2, 20783, Note_on_c, 0, 73, 0
2, 20784, Note_on_c, 0, 76, 84
2, 20807, Note_on_c, 0, 76, 0
2, 20808, Note_on_c, 0, 73, 84
2, 20831, Note_on_c, 0, 73, 0
2, 20832, Note_on_c, 0, 69, 84
2, 20877, Note_on_c, 0, 69, 0
2, 20880, Note_on_c, 0, 78, 75
2, 20925, Note_on_c, 0, 78, 0
2, 20928, Note_on_c, 0, 69, 75
2, 20951, Note_on_c, 0, 69, 0
2, 20952, Note_on_c, 0, 76, 75
2, 20975, Note_on_c, 0, 76, 0
2, 20976, Note_on_c, 0, 79, 75
2, 20999, Note_on_c, 0, 79, 0
2, 21000, Note_on_c, 0, 76, 75
2, 21023, Note_on_c, 0, 76, 0
2, 21024, Note_on_c, 0, 73, 75
2, 21047, Note_on_c, 0, 73, 0
2, 21048, Note_on_c, 0, 76, 75
2, 21071, Note_on_c, 0, 76, 0
2, 21072, Note_on_c, 0, 79, 75
2, 21095, Note_on_c, 0, 79, 0
2, 21096, Note_on_c, 0, 76, 75
2, 21119, Note_on_c, 0, 76, 0
2, 21120, Note_on_c, 0, 69, 75
2, 21143, Note_on_c, 0, 69, 0
2, 21144, Note_on_c, 0, 74, 75
2, 21167, Note_on_c, 0, 74, 0
2, 21168, Note_on_c, 0, 78, 75
2, 21191, Note_on_c, 0, 78, 0
2, 21192, Note_on_c, 0, 74, 75
2, 21215, Note_on_c, 0, 74, 0
2, 21216, Note_on_c, 0, 69, 75
2, 21239, Note_on_c, 0, 69, 0
2, 21240, Note_on_c, 0, 74, 75
2, 21263, Note_on_c, 0, 74, 0
2, 21264, Note_on_c, 0, 78, 75
2, 21287, Note_on_c, 0, 78, 0
2, 21288, Note_on_c, 0, 74, 75
2, 21311, Note_on_c, 0, 74, 0
2, 21312, Note_on_c, 0, 71, 75
2, 21335, Note_on_c, 0, 71, 0
2, 21336, Note_on_c, 0, 74, 75
2, 21359, Note_on_c, 0, 74, 0
2, 21360, Note_on_c, 0, 76, 75
2, 21383, Note_on_c, 0, 76, 0
2, 21384, Note_on_c, 0, 74, 75
2, 21407, Note_on_c, 0, 74, 0
2, 21408, Note_on_c, 0, 69, 75
2, 21431, Note_on_c, 0, 69, 0
2, 21432, Note_on_c, 0, 73, 75
2, 21455, Note_on_c, 0, 73, 0
2, 21456, Note_on_c, 0, 76, 75
2, 21479, Note_on_c, 0, 76, 0
2, 21480, Note_on_c, 0, 73, 75
2, 21503, Note_on_c, 0, 73, 0
2, 21504, Note_on_c, 0, 74, 75
2, 21593, Note_on_c, 0, 74, 0
2, 21648, Note_on_c, 0, 78, 75
2, 21693, Note_on_c, 0, 78, 0
2, 21696, Note_on_c, 0, 69, 75
2, 21719, Note_on_c, 0, 69, 0
2, 21720, Note_on_c, 0, 76, 75
2, 21743, Note_on_c, 0, 76, 0
2, 21744, Note_on_c, 0, 79, 75
2, 21767, Note_on_c, 0, 79, 0
2, 21768, Note_on_c, 0, 76, 75
2, 21791, Note_on_c, 0, 76, 0
2, 21792, Note_on_c, 0, 73, 75
2, 21815, Note_on_c, 0, 73, 0
2, 21816, Note_on_c, 0, 76, 75
2, 21839, Note_on_c, 0, 76, 0
2, 21840, Note_on_c, 0, 79, 75
2, 21863, Note_on_c, 0, 79, 0
2, 21864, Note_on_c, 0, 76, 75
2, 21887, Note_on_c, 0, 76, 0
2, 21888, Note_on_c, 0, 69, 75
2, 21911, Note_on_c, 0, 69, 0
2, 21912, Note_on_c, 0, 74, 75
2, 21935, Note_on_c, 0, 74, 0
2, 21936, Note_on_c, 0, 78, 75
2, 21959, Note_on_c, 0, 78, 0
2, 21960, Note_on_c, 0, 74, 75
2, 21983, Note_on_c, 0, 74, 0
2, 21984, Note_on_c, 0, 69, 75
2, 22007, Note_on_c, 0, 69, 0
2, 22008, Note_on_c, 0, 74, 75
2, 22031, Note_on_c, 0, 74, 0
2, 22032, Note_on_c, 0, 78, 75
2, 22055, Note_on_c, 0, 78, 0
2, 22056, Note_on_c, 0, 74, 75
2, 22079, Note_on_c, 0, 74, 0
2, 22080, Note_on_c, 0, 71, 75
2, 22103, Note_on_c, 0, 71, 0
2, 22104, Note_on_c, 0, 74, 76
2, 22127, Note_on_c, 0, 74, 0
2, 22128, Note_on_c, 0, 76, 77
2, 22151, Note_on_c, 0, 76, 0
2, 22152, Note_on_c, 0, 74, 78
2, 22175, Note_on_c, 0, 74, 0
2, 22176, Note_on_c, 0, 71, 79
2, 22199, Note_on_c, 0, 71, 0
2, 22200, Note_on_c, 0, 74, 80
2, 22223, Note_on_c, 0, 74, 0
2, 22224, Note_on_c, 0, 76, 81
2, 22247, Note_on_c, 0, 76, 0
2, 22248, Note_on_c, 0, 74, 82
2, 22271, Note_on_c, 0, 74, 0
2, 22272, Note_on_c, 0, 69, 83
2, 22295, Note_on_c, 0, 69, 0
2, 22296, Note_on_c, 0, 73, 84
2, 22319, Note_on_c, 0, 73, 0
2, 22320, Note_on_c, 0, 76, 84
2, 22343, Note_on_c, 0, 76, 0
2, 22344, Note_on_c, 0, 73, 84
2, 22367, Note_on_c, 0, 73, 0
2, 22368, Note_on_c, 0, 69, 84
2, 22413, Note_on_c, 0, 69, 0
2, 22416, Note_on_c, 0, 78, 75
2, 22461, Note_on_c, 0, 78, 0
2, 22464, Note_on_c, 0, 69, 75
2, 22487, Note_on_c, 0, 69, 0
2, 22488, Note_on_c, 0, 76, 75
2, 22511, Note_on_c, 0, 76, 0
2, 22512, Note_on_c, 0, 79, 75
2, 22535, Note_on_c, 0, 79, 0
2, 22536, Note_on_c, 0, 76, 75
2, 22559, Note_on_c, 0, 76, 0
2, 22560, Note_on_c, 0, 73, 75
2, 22583, Note_on_c, 0, 73, 0
2, 22584, Note_on_c, 0, 76, 75
2, 22607, Note_on_c, 0, 76, 0
2, 22608, Note_on_c, 0, 79, 75
2, 22631, Note_on_c, 0, 79, 0
2, 22632, Note_on_c, 0, 76, 75
2, 22655, Note_on_c, 0, 76, 0
2, 22656, Note_on_c, 0, 69, 75
2, 22679, Note_on_c, 0, 69, 0
2, 22680, Note_on_c, 0, 74, 75
2, 22703, Note_on_c, 0, 74, 0
2, 22704, Note_on_c, 0, 78, 75
2, 22727, Note_on_c, 0, 78, 0
2, 22728, Note_on_c, 0, 74, 75
2, 22751, Note_on_c, 0, 74, 0
2, 22752, Note_on_c, 0, 69, 75
2, 22775, Note_on_c, 0, 69, 0
2, 22776, Note_on_c, 0, 74, 75
2, 22799, Note_on_c, 0, 74, 0
2, 22800, Note_on_c, 0, 78, 75
2, 22823, Note_on_c, 0, 78, 0
2, 22824, Note_on_c, 0, 74, 75
2, 22847, Note_on_c, 0, 74, 0
2, 22848, Note_on_c, 0, 71, 75
2, 22871, Note_on_c, 0, 71, 0
2, 22872, Note_on_c, 0, 74, 75
2, 22895, Note_on_c, 0, 74, 0
2, 22896, Note_on_c, 0, 76, 75
2, 22919, Note_on_c, 0, 76, 0
2, 22920, Note_on_c, 0, 74, 75
2, 22943, Note_on_c, 0, 74, 0
2, 22944, Note_on_c, 0, 69, 75
2, 22967, Note_on_c, 0, 69, 0
2, 22968, Note_on_c, 0, 73, 75
2, 22991, Note_on_c, 0, 73, 0
2, 22992, Note_on_c, 0, 76, 75
2, 23015, Note_on_c, 0, 76, 0
2, 23016, Note_on_c, 0, 73, 75
2, 23039, Note_on_c, 0, 73, 0
2, 23040, Note_on_c, 0, 74, 75
2, 23129, Note_on_c, 0, 74, 0
2, 23184, Note_on_c, 0, 69, 84
2, 23229, Note_on_c, 0, 69, 0
2, 23232, Note_on_c, 0, 64, 84
2, 23232, Note_on_c, 0, 61, 84
2, 23365, Note_on_c, 0, 64, 0
2, 23365, Note_on_c, 0, 61, 0
2, 23376, Note_on_c, 0, 66, 84
2, 23376, Note_on_c, 0, 62, 84
2, 23421, Note_on_c, 0, 66, 0
2, 23421, Note_on_c, 0, 62, 0
2, 23424, Note_on_c, 0, 64, 84
2, 23424, Note_on_c, 0, 61, 84
2, 23469, Note_on_c, 0, 64, 0
2, 23469, Note_on_c, 0, 61, 0
2, 23472, Note_on_c, 0, 62, 84
2, 23472, Note_on_c, 0, 59, 84
2, 23517, Note_on_c, 0, 62, 0
2, 23517, Note_on_c, 0, 59, 0
2, 23520, Note_on_c, 0, 61, 84
2, 23520, Note_on_c, 0, 57, 84
2, 23565, Note_on_c, 0, 61, 0
2, 23565, Note_on_c, 0, 57, 0
2, 23568, Note_on_c, 0, 59, 84
2, 23568, Note_on_c, 0, 56, 84
2, 23613, Note_on_c, 0, 59, 0
2, 23613, Note_on_c, 0, 56, 0
2, 23616, Note_on_c, 0, 57, 84
2, 23705, Note_on_c, 0, 57, 0
2, 23712, Note_on_c, 0, 61, 75
2, 23735, Note_on_c, 0, 61, 0
2, 23736, Note_on_c, 0, 52, 75
2, 23759, Note_on_c, 0, 52, 0
2, 23760, Note_on_c, 0, 61, 75
2, 23783, Note_on_c, 0, 61, 0
2, 23784, Note_on_c, 0, 52, 75
2, 23807, Note_on_c, 0, 52, 0
2, 23808, Note_on_c, 0, 62, 75
2, 23831, Note_on_c, 0, 62, 0
2, 23832, Note_on_c, 0, 52, 75
2, 23855, Note_on_c, 0, 52, 0
2, 23856, Note_on_c, 0, 61, 75
2, 23879, Note_on_c, 0, 61, 0
2, 23880, Note_on_c, 0, 52, 75
2, 23903, Note_on_c, 0, 52, 0
2, 23904, Note_on_c, 0, 59, 75
2, 23927, Note_on_c, 0, 59, 0
2, 23928, Note_on_c, 0, 52, 75
2, 23951, Note_on_c, 0, 52, 0
2, 23952, Note_on_c, 0, 57, 75
2, 23975, Note_on_c, 0, 57, 0
2, 23976, Note_on_c, 0, 52, 75
2, 23999, Note_on_c, 0, 52, 0
2, 24000, Note_on_c, 0, 62, 75
2, 24023, Note_on_c, 0, 62, 0
2, 24024, Note_on_c, 0, 52, 75
2, 24047, Note_on_c, 0, 52, 0
2, 24048, Note_on_c, 0, 61, 75
2, 24071, Note_on_c, 0, 61, 0
2, 24072, Note_on_c, 0, 52, 75
2, 24095, Note_on_c, 0, 52, 0
2, 24096, Note_on_c, 0, 59, 75
2, 24119, Note_on_c, 0, 59, 0
2, 24120, Note_on_c, 0, 52, 75
2, 24143, Note_on_c, 0, 52, 0
2, 24144, Note_on_c, 0, 57, 75
2, 24167, Note_on_c, 0, 57, 0
2, 24168, Note_on_c, 0, 52, 75
2, 24191, Note_on_c, 0, 52, 0
2, 24192, Note_on_c, 0, 54, 75
2, 24215, Note_on_c, 0, 54, 0
2, 24216, Note_on_c, 0, 59, 75
2, 24239, Note_on_c, 0, 59, 0
2, 24240, Note_on_c, 0, 54, 75
2, 24263, Note_on_c, 0, 54, 0
2, 24264, Note_on_c, 0, 59, 75
2, 24287, Note_on_c, 0, 59, 0
2, 24288, Note_on_c, 0, 50, 75
2, 24311, Note_on_c, 0, 50, 0
2, 24312, Note_on_c, 0, 56, 75
2, 24335, Note_on_c, 0, 56, 0
2, 24336, Note_on_c, 0, 50, 75
2, 24359, Note_on_c, 0, 50, 0
2, 24360, Note_on_c, 0, 56, 75
2, 24383, Note_on_c, 0, 56, 0
2, 24384, Note_on_c, 0, 57, 75
2, 24384, Note_on_c, 0, 49, 75
2, 24473, Note_on_c, 0, 57, 0
2, 24473, Note_on_c, 0, 49, 0
2, 24528, Note_on_c, 0, 69, 84
2, 24573, Note_on_c, 0, 69, 0
2, 24576, Note_on_c, 0, 64, 84
2, 24576, Note_on_c, 0, 61, 84
2, 24709, Note_on_c, 0, 64, 0
2, 24709, Note_on_c, 0, 61, 0
2, 24720, Note_on_c, 0, 66, 84
2, 24720, Note_on_c, 0, 62, 84
2, 24765, Note_on_c, 0, 66, 0
2, 24765, Note_on_c, 0, 62, 0
2, 24768, Note_on_c, 0, 64, 84
2, 24768, Note_on_c, 0, 61, 84
2, 24813, Note_on_c, 0, 64, 0
2, 24813, Note_on_c, 0, 61, 0
2, 24816, Note_on_c, 0, 62, 84
2, 24816, Note_on_c, 0, 59, 84
2, 24861, Note_on_c, 0, 62, 0
2, 24861, Note_on_c, 0, 59, 0
2, 24864, Note_on_c, 0, 61, 84
2, 24864, Note_on_c, 0, 57, 84
2, 24909, Note_on_c, 0, 61, 0
2, 24909, Note_on_c, 0, 57, 0
2, 24912, Note_on_c, 0, 59, 84
2, 24912, Note_on_c, 0, 56, 84
2, 24957, Note_on_c, 0, 59, 0
2, 24957, Note_on_c, 0, 56, 0
2, 24960, Note_on_c, 0, 57, 84
2, 25049, Note_on_c, 0, 57, 0
2, 25056, Note_on_c, 0, 61, 75
2, 25079, Note_on_c, 0, 61, 0
2, 25080, Note_on_c, 0, 52, 75
2, 25103, Note_on_c, 0, 52, 0
2, 25104, Note_on_c, 0, 61, 75
2, 25127, Note_on_c, 0, 61, 0
2, 25128, Note_on_c, 0, 52, 75
2, 25151, Note_on_c, 0, 52, 0
2, 25152, Note_on_c, 0, 62, 75
2, 25175, Note_on_c, 0, 62, 0
2, 25176, Note_on_c, 0, 52, 75
2, 25199, Note_on_c, 0, 52, 0
2, 25200, Note_on_c, 0, 61, 75
2, 25223, Note_on_c, 0, 61, 0
2, 25224, Note_on_c, 0, 52, 75
2, 25247, Note_on_c, 0, 52, 0
2, 25248, Note_on_c, 0, 59, 75
2, 25271, Note_on_c, 0, 59, 0
2, 25272, Note_on_c, 0, 52, 75
2, 25295, Note_on_c, 0, 52, 0
2, 25296, Note_on_c, 0, 57, 75
2, 25319, Note_on_c, 0, 57, 0
2, 25320, Note_on_c, 0, 52, 75
2, 25343, Note_on_c, 0, 52, 0
2, 25344, Note_on_c, 0, 62, 75
2, 25367, Note_on_c, 0, 62, 0
2, 25368, Note_on_c, 0, 52, 75
2, 25391, Note_on_c, 0, 52, 0
2, 25392, Note_on_c, 0, 61, 75
2, 25415, Note_on_c, 0, 61, 0
2, 25416, Note_on_c, 0, 52, 75
2, 25439, Note_on_c, 0, 52, 0
2, 25440, Note_on_c, 0, 59, 75
2, 25463, Note_on_c, 0, 59, 0
2, 25464, Note_on_c, 0, 52, 75
2, 25487, Note_on_c, 0, 52, 0
2, 25488, Note_on_c, 0, 57, 75
2, 25511, Note_on_c, 0, 57, 0
2, 25512, Note_on_c, 0, 52, 75
2, 25535, Note_on_c, 0, 52, 0
2, 25536, Note_on_c, 0, 54, 75
2, 25559, Note_on_c, 0, 54, 0
2, 25560, Note_on_c, 0, 59, 75
2, 25583, Note_on_c, 0, 59, 0
2, 25584, Note_on_c, 0, 54, 75
2, 25607, Note_on_c, 0, 54, 0
2, 25608, Note_on_c, 0, 59, 75
2, 25631, Note_on_c, 0, 59, 0
2, 25632, Note_on_c, 0, 50, 75
2, 25655, Note_on_c, 0, 50, 0
2, 25656, Note_on_c, 0, 56, 75
2, 25679, Note_on_c, 0, 56, 0
2, 25680, Note_on_c, 0, 50, 75
2, 25703, Note_on_c, 0, 50, 0
2, 25704, Note_on_c, 0, 56, 75
2, 25727, Note_on_c, 0, 56, 0
2, 25728, Note_on_c, 0, 57, 75
2, 25728, Note_on_c, 0, 49, 75
2, 25817, Note_on_c, 0, 57, 0
2, 25817, Note_on_c, 0, 49, 0
2, 25872, Note_on_c, 0, 64, 84
2, 25917, Note_on_c, 0, 64, 0
2, 25920, Note_on_c, 0, 59, 84
2, 25920, Note_on_c, 0, 56, 84
2, 26053, Note_on_c, 0, 59, 0
2, 26053, Note_on_c, 0, 56, 0
2, 26064, Note_on_c, 0, 61, 84
2, 26064, Note_on_c, 0, 57, 84
2, 26109, Note_on_c, 0, 61, 0
2, 26109, Note_on_c, 0, 57, 0
2, 26112, Note_on_c, 0, 62, 84
2, 26112, Note_on_c, 0, 59, 84
2, 26157, Note_on_c, 0, 62, 0
2, 26157, Note_on_c, 0, 59, 0
2, 26160, Note_on_c, 0, 61, 84
2, 26160, Note_on_c, 0, 57, 84
2, 26205, Note_on_c, 0, 61, 0
2, 26205, Note_on_c, 0, 57, 0
2, 26208, Note_on_c, 0, 64, 84
2, 26208, Note_on_c, 0, 61, 84
2, 26253, Note_on_c, 0, 64, 0
2, 26253, Note_on_c, 0, 61, 0
2, 26256, Note_on_c, 0, 62, 84
2, 26256, Note_on_c, 0, 59, 84
2, 26301, Note_on_c, 0, 62, 0
2, 26301, Note_on_c, 0, 59, 0
2, 26304, Note_on_c, 0, 66, 84
2, 26304, Note_on_c, 0, 62, 84
2, 26349, Note_on_c, 0, 66, 0
2, 26349, Note_on_c, 0, 62, 0
2, 26352, Note_on_c, 0, 64, 84
2, 26352, Note_on_c, 0, 61, 84
2, 26397, Note_on_c, 0, 64, 0
2, 26397, Note_on_c, 0, 61, 0
2, 26400, Note_on_c, 0, 62, 84
2, 26400, Note_on_c, 0, 59, 84
2, 26445, Note_on_c, 0, 62, 0
2, 26445, Note_on_c, 0, 59, 0
2, 26448, Note_on_c, 0, 61, 84
2, 26448, Note_on_c, 0, 57, 84
2, 26493, Note_on_c, 0, 61, 0
2, 26493, Note_on_c, 0, 57, 0
2, 26496, Note_on_c, 0, 59, 84
2, 26496, Note_on_c, 0, 56, 84
2, 26585, Note_on_c, 0, 59, 0
2, 26585, Note_on_c, 0, 56, 0
2, 26640, Note_on_c, 0, 64, 75
2, 26685, Note_on_c, 0, 64, 0
2, 26688, Note_on_c, 0, 56, 75
2, 26711, Note_on_c, 0, 56, 0
2, 26712, Note_on_c, 0, 64, 75
2, 26735, Note_on_c, 0, 64, 0
2, 26736, Note_on_c, 0, 57, 75
2, 26759, Note_on_c, 0, 57, 0
2, 26760, Note_on_c, 0, 64, 75
2, 26783, Note_on_c, 0, 64, 0
2, 26784, Note_on_c, 0, 59, 75
2, 26807, Note_on_c, 0, 59, 0
2, 26808, Note_on_c, 0, 64, 75
2, 26831, Note_on_c, 0, 64, 0
2, 26832, Note_on_c, 0, 61, 75
2, 26855, Note_on_c, 0, 61, 0
2, 26856, Note_on_c, 0, 64, 75
2, 26879, Note_on_c, 0, 64, 0
2, 26880, Note_on_c, 0, 62, 75
2, 26903, Note_on_c, 0, 62, 0
2, 26904, Note_on_c, 0, 64, 75
2, 26927, Note_on_c, 0, 64, 0
2, 26928, Note_on_c, 0, 61, 75
2, 26951, Note_on_c, 0, 61, 0
2, 26952, Note_on_c, 0, 64, 75
2, 26975, Note_on_c, 0, 64, 0
2, 26976, Note_on_c, 0, 59, 75
2, 26999, Note_on_c, 0, 59, 0
2, 27000, Note_on_c, 0, 64, 75
2, 27023, Note_on_c, 0, 64, 0
2, 27024, Note_on_c, 0, 57, 75
2, 27047, Note_on_c, 0, 57, 0
2, 27048, Note_on_c, 0, 64, 75
2, 27071, Note_on_c, 0, 64, 0
2, 27072, Note_on_c, 0, 56, 75
2, 27095, Note_on_c, 0, 56, 0
2, 27096, Note_on_c, 0, 64, 75
2, 27119, Note_on_c, 0, 64, 0
2, 27120, Note_on_c, 0, 57, 75
2, 27143, Note_on_c, 0, 57, 0
2, 27144, Note_on_c, 0, 64, 75
2, 27167, Note_on_c, 0, 64, 0
2, 27168, Note_on_c, 0, 59, 75
2, 27191, Note_on_c, 0, 59, 0
2, 27192, Note_on_c, 0, 64, 75
2, 27215, Note_on_c, 0, 64, 0
2, 27216, Note_on_c, 0, 61, 75
2, 27239, Note_on_c, 0, 61, 0
2, 27240, Note_on_c, 0, 64, 75
2, 27263, Note_on_c, 0, 64, 0
2, 27264, Note_on_c, 0, 62, 75
2, 27287, Note_on_c, 0, 62, 0
2, 27288, Note_on_c, 0, 64, 75
2, 27311, Note_on_c, 0, 64, 0
2, 27312, Note_on_c, 0, 61, 75
2, 27335, Note_on_c, 0, 61, 0
2, 27336, Note_on_c, 0, 64, 75
2, 27359, Note_on_c, 0, 64, 0
2, 27360, Note_on_c, 0, 59, 75
2, 27383, Note_on_c, 0, 59, 0
2, 27384, Note_on_c, 0, 64, 75
2, 27407, Note_on_c, 0, 64, 0
2, 27408, Note_on_c, 0, 57, 75
2, 27431, Note_on_c, 0, 57, 0
2, 27432, Note_on_c, 0, 64, 75
2, 27455, Note_on_c, 0, 64, 0
2, 27456, Note_on_c, 0, 56, 75
2, 27479, Note_on_c, 0, 56, 0
2, 27480, Note_on_c, 0, 64, 75
2, 27503, Note_on_c, 0, 64, 0
2, 27504, Note_on_c, 0, 57, 75
2, 27527, Note_on_c, 0, 57, 0
2, 27528, Note_on_c, 0, 64, 75
2, 27551, Note_on_c, 0, 64, 0
2, 27552, Note_on_c, 0, 56, 75
2, 27575, Note_on_c, 0, 56, 0
2, 27576, Note_on_c, 0, 64, 75
2, 27599, Note_on_c, 0, 64, 0
2, 27600, Note_on_c, 0, 57, 75
2, 27623, Note_on_c, 0, 57, 0
2, 27624, Note_on_c, 0, 64, 75
2, 27647, Note_on_c, 0, 64, 0
2, 27648, Note_on_c, 0, 56, 75
2, 27737, Note_on_c, 0, 56, 0
2, 27792, Note_on_c, 0, 69, 84
2, 27837, Note_on_c, 0, 69, 0
2, 27840, Note_on_c, 0, 64, 84
2, 27840, Note_on_c, 0, 61, 84
2, 27973, Note_on_c, 0, 64, 0
2, 27973, Note_on_c, 0, 61, 0
2, 27984, Note_on_c, 0, 66, 84
2, 27984, Note_on_c, 0, 62, 84
2, 28029, Note_on_c, 0, 66, 0
2, 28029, Note_on_c, 0, 62, 0
2, 28032, Note_on_c, 0, 64, 84
2, 28032, Note_on_c, 0, 61, 84
2, 28077, Note_on_c, 0, 64, 0
2, 28077, Note_on_c, 0, 61, 0
2, 28080, Note_on_c, 0, 62, 84
2, 28080, Note_on_c, 0, 59, 84
2, 28125, Note_on_c, 0, 62, 0
2, 28125, Note_on_c, 0, 59, 0
2, 28128, Note_on_c, 0, 61, 84
2, 28128, Note_on_c, 0, 57, 84
2, 28173, Note_on_c, 0, 61, 0
2, 28173, Note_on_c, 0, 57, 0
2, 28176, Note_on_c, 0, 59, 84
2, 28176, Note_on_c, 0, 56, 84
2, 28221, Note_on_c, 0, 59, 0
2, 28221, Note_on_c, 0, 56, 0
2, 28224, Note_on_c, 0, 57, 84
2, 28313, Note_on_c, 0, 57, 0
2, 28320, Note_on_c, 0, 61, 75
2, 28343, Note_on_c, 0, 61, 0
2, 28344, Note_on_c, 0, 52, 75
2, 28367, Note_on_c, 0, 52, 0
2, 28368, Note_on_c, 0, 61, 75
2, 28391, Note_on_c, 0, 61, 0
2, 28392, Note_on_c, 0, 52, 75
2, 28415, Note_on_c, 0, 52, 0
2, 28416, Note_on_c, 0, 62, 75
2, 28439, Note_on_c, 0, 62, 0
2, 28440, Note_on_c, 0, 52, 75
2, 28463, Note_on_c, 0, 52, 0
2, 28464, Note_on_c, 0, 61, 75
2, 28487, Note_on_c, 0, 61, 0
2, 28488, Note_on_c, 0, 52, 75
2, 28511, Note_on_c, 0, 52, 0
2, 28512, Note_on_c, 0, 59, 75
2, 28535, Note_on_c, 0, 59, 0
2, 28536, Note_on_c, 0, 52, 75
2, 28559, Note_on_c, 0, 52, 0
2, 28560, Note_on_c, 0, 57, 75
2, 28583, Note_on_c, 0, 57, 0
2, 28584, Note_on_c, 0, 52, 75
2, 28607, Note_on_c, 0, 52, 0
2, 28608, Note_on_c, 0, 62, 75
2, 28631, Note_on_c, 0, 62, 0
2, 28632, Note_on_c, 0, 52, 75
2, 28655, Note_on_c, 0, 52, 0
2, 28656, Note_on_c, 0, 61, 75
2, 28679, Note_on_c, 0, 61, 0
2, 28680, Note_on_c, 0, 52, 75
2, 28703, Note_on_c, 0, 52, 0
2, 28704, Note_on_c, 0, 59, 75
2, 28727, Note_on_c, 0, 59, 0
2, 28728, Note_on_c, 0, 52, 75
2, 28751, Note_on_c, 0, 52, 0
2, 28752, Note_on_c, 0, 57, 75
2, 28775, Note_on_c, 0, 57, 0
2, 28776, Note_on_c, 0, 52, 75
2, 28799, Note_on_c, 0, 52, 0
2, 28800, Note_on_c, 0, 54, 75
2, 28823, Note_on_c, 0, 54, 0
2, 28824, Note_on_c, 0, 59, 75
2, 28847, Note_on_c, 0, 59, 0
2, 28848, Note_on_c, 0, 54, 75
2, 28871, Note_on_c, 0, 54, 0
2, 28872, Note_on_c, 0, 59, 75
2, 28895, Note_on_c, 0, 59, 0
2, 28896, Note_on_c, 0, 50, 75
2, 28919, Note_on_c, 0, 50, 0
2, 28920, Note_on_c, 0, 56, 75
2, 28943, Note_on_c, 0, 56, 0
2, 28944, Note_on_c, 0, 50, 75
2, 28967, Note_on_c, 0, 50, 0
2, 28968, Note_on_c, 0, 56, 75
2, 28991, Note_on_c, 0, 56, 0
2, 28992, Note_on_c, 0, 57, 75
2, 28992, Note_on_c, 0, 49, 75
2, 29081, Note_on_c, 0, 57, 0
2, 29081, Note_on_c, 0, 49, 0
2, 29136, Note_on_c, 0, 64, 84
2, 29181, Note_on_c, 0, 64, 0
2, 29184, Note_on_c, 0, 59, 84
2, 29184, Note_on_c, 0, 56, 84
2, 29317, Note_on_c, 0, 59, 0
2, 29317, Note_on_c, 0, 56, 0
2, 29328, Note_on_c, 0, 61, 84
2, 29328, Note_on_c, 0, 57, 84
2, 29373, Note_on_c, 0, 61, 0
2, 29373, Note_on_c, 0, 57, 0
2, 29376, Note_on_c, 0, 62, 84
2, 29376, Note_on_c, 0, 59, 84
2, 29421, Note_on_c, 0, 62, 0
2, 29421, Note_on_c, 0, 59, 0
2, 29424, Note_on_c, 0, 61, 84
2, 29424, Note_on_c, 0, 57, 84
2, 29469, Note_on_c, 0, 61, 0
2, 29469, Note_on_c, 0, 57, 0
2, 29472, Note_on_c, 0, 64, 84
2, 29472, Note_on_c, 0, 61, 84
2, 29517, Note_on_c, 0, 64, 0
2, 29517, Note_on_c, 0, 61, 0
2, 29520, Note_on_c, 0, 62, 84
2, 29520, Note_on_c, 0, 59, 84
2, 29565, Note_on_c, 0, 62, 0
2, 29565, Note_on_c, 0, 59, 0
2, 29568, Note_on_c, 0, 66, 84
2, 29568, Note_on_c, 0, 62, 84
2, 29613, Note_on_c, 0, 66, 0
2, 29613, Note_on_c, 0, 62, 0
2, 29616, Note_on_c, 0, 64, 84
2, 29616, Note_on_c, 0, 61, 84
2, 29661, Note_on_c, 0, 64, 0
2, 29661, Note_on_c, 0, 61, 0
2, 29664, Note_on_c, 0, 62, 84
2, 29664, Note_on_c, 0, 59, 84
2, 29709, Note_on_c, 0, 62, 0
2, 29709, Note_on_c, 0, 59, 0
2, 29712, Note_on_c, 0, 61, 84
2, 29712, Note_on_c, 0, 57, 84
2, 29757, Note_on_c, 0, 61, 0
2, 29757, Note_on_c, 0, 57, 0
2, 29760, Note_on_c, 0, 59, 84
2, 29760, Note_on_c, 0, 56, 84
2, 29849, Note_on_c, 0, 59, 0
2, 29849, Note_on_c, 0, 56, 0
2, 29904, Note_on_c, 0, 64, 75
2, 29949, Note_on_c, 0, 64, 0
2, 29952, Note_on_c, 0, 56, 75
2, 29975, Note_on_c, 0, 56, 0
2, 29976, Note_on_c, 0, 64, 75
2, 29999, Note_on_c, 0, 64, 0
2, 30000, Note_on_c, 0, 57, 75
2, 30023, Note_on_c, 0, 57, 0
2, 30024, Note_on_c, 0, 64, 75
2, 30047, Note_on_c, 0, 64, 0
2, 30048, Note_on_c, 0, 59, 75
2, 30071, Note_on_c, 0, 59, 0
2, 30072, Note_on_c, 0, 64, 75
2, 30095, Note_on_c, 0, 64, 0
2, 30096, Note_on_c, 0, 61, 75
2, 30119, Note_on_c, 0, 61, 0
2, 30120, Note_on_c, 0, 64, 75
2, 30143, Note_on_c, 0, 64, 0
2, 30144, Note_on_c, 0, 62, 75
2, 30167, Note_on_c, 0, 62, 0
2, 30168, Note_on_c, 0, 64, 75
2, 30191, Note_on_c, 0, 64, 0
2, 30192, Note_on_c, 0, 61, 75
2, 30215, Note_on_c, 0, 61, 0
2, 30216, Note_on_c, 0, 64, 75
2, 30239, Note_on_c, 0, 64, 0
2, 30240, Note_on_c, 0, 59, 75
2, 30263, Note_on_c, 0, 59, 0
2, 30264, Note_on_c, 0, 64, 75
2, 30287, Note_on_c, 0, 64, 0
2, 30288, Note_on_c, 0, 57, 75
2, 30311, Note_on_c, 0, 57, 0
2, 30312, Note_on_c, 0, 64, 75
2, 30335, Note_on_c, 0, 64, 0
2, 30336, Note_on_c, 0, 56, 75
2, 30359, Note_on_c, 0, 56, 0
2, 30360, Note_on_c, 0, 64, 75
2, 30383, Note_on_c, 0, 64, 0
2, 30384, Note_on_c, 0, 57, 75
2, 30407, Note_on_c, 0, 57, 0
2, 30408, Note_on_c, 0, 64, 75
2, 30431, Note_on_c, 0, 64, 0
2, 30432, Note_on_c, 0, 59, 75
2, 30455, Note_on_c, 0, 59, 0
2, 30456, Note_on_c, 0, 64, 75
2, 30479, Note_on_c, 0, 64, 0
2, 30480, Note_on_c, 0, 61, 75
2, 30503, Note_on_c, 0, 61, 0
2, 30504, Note_on_c, 0, 64, 75
2, 30527, Note_on_c, 0, 64, 0
2, 30528, Note_on_c, 0, 62, 75
2, 30551, Note_on_c, 0, 62, 0
2, 30552, Note_on_c, 0, 64, 75
2, 30575, Note_on_c, 0, 64, 0
2, 30576, Note_on_c, 0, 61, 75
2, 30599, Note_on_c, 0, 61, 0
2, 30600, Note_on_c, 0, 64, 75
2, 30623, Note_on_c, 0, 64, 0
2, 30624, Note_on_c, 0, 59, 75
2, 30647, Note_on_c, 0, 59, 0
2, 30648, Note_on_c, 0, 64, 75
2, 30671, Note_on_c, 0, 64, 0
2, 30672, Note_on_c, 0, 57, 75
2, 30695, Note_on_c, 0, 57, 0
2, 30696, Note_on_c, 0, 64, 75
2, 30719, Note_on_c, 0, 64, 0
2, 30720, Note_on_c, 0, 56, 75
2, 30743, Note_on_c, 0, 56, 0
2, 30744, Note_on_c, 0, 64, 75
2, 30767, Note_on_c, 0, 64, 0
2, 30768, Note_on_c, 0, 57, 75
2, 30791, Note_on_c, 0, 57, 0
2, 30792, Note_on_c, 0, 64, 75
2, 30815, Note_on_c, 0, 64, 0
2, 30816, Note_on_c, 0, 56, 75
2, 30839, Note_on_c, 0, 56, 0
2, 30840, Note_on_c, 0, 64, 75
2, 30863, Note_on_c, 0, 64, 0
2, 30864, Note_on_c, 0, 57, 75
2, 30887, Note_on_c, 0, 57, 0
2, 30888, Note_on_c, 0, 64, 75
2, 30911, Note_on_c, 0, 64, 0
2, 30912, Note_on_c, 0, 56, 75
2, 31001, Note_on_c, 0, 56, 0
2, 31056, Note_on_c, 0, 69, 84
2, 31101, Note_on_c, 0, 69, 0
2, 31104, Note_on_c, 0, 64, 84
2, 31104, Note_on_c, 0, 61, 84
2, 31237, Note_on_c, 0, 64, 0
2, 31237, Note_on_c, 0, 61, 0
2, 31248, Note_on_c, 0, 66, 84
2, 31248, Note_on_c, 0, 62, 84
2, 31293, Note_on_c, 0, 66, 0
2, 31293, Note_on_c, 0, 62, 0
2, 31296, Note_on_c, 0, 64, 84
2, 31296, Note_on_c, 0, 61, 84
2, 31341, Note_on_c, 0, 64, 0
2, 31341, Note_on_c, 0, 61, 0
2, 31344, Note_on_c, 0, 62, 84
2, 31344, Note_on_c, 0, 59, 84
2, 31389, Note_on_c, 0, 62, 0
2, 31389, Note_on_c, 0, 59, 0
2, 31392, Note_on_c, 0, 61, 84
2, 31392, Note_on_c, 0, 57, 84
2, 31437, Note_on_c, 0, 61, 0
2, 31437, Note_on_c, 0, 57, 0
2, 31440, Note_on_c, 0, 59, 84
2, 31440, Note_on_c, 0, 56, 84
2, 31485, Note_on_c, 0, 59, 0
2, 31485, Note_on_c, 0, 56, 0
2, 31488, Note_on_c, 0, 57, 84
2, 31577, Note_on_c, 0, 57, 0
2, 31584, Note_on_c, 0, 61, 75
2, 31607, Note_on_c, 0, 61, 0
2, 31608, Note_on_c, 0, 52, 75
2, 31631, Note_on_c, 0, 52, 0
2, 31632, Note_on_c, 0, 61, 75
2, 31655, Note_on_c, 0, 61, 0
2, 31656, Note_on_c, 0, 52, 75
2, 31679, Note_on_c, 0, 52, 0
2, 31680, Note_on_c, 0, 62, 75
2, 31703, Note_on_c, 0, 62, 0
2, 31704, Note_on_c, 0, 52, 75
2, 31727, Note_on_c, 0, 52, 0
2, 31728, Note_on_c, 0, 61, 75
2, 31751, Note_on_c, 0, 61, 0
2, 31752, Note_on_c, 0, 52, 75
2, 31775, Note_on_c, 0, 52, 0
2, 31776, Note_on_c, 0, 59, 75
2, 31799, Note_on_c, 0, 59, 0
2, 31800, Note_on_c, 0, 52, 75
2, 31823, Note_on_c, 0, 52, 0
2, 31824, Note_on_c, 0, 57, 75
2, 31847, Note_on_c, 0, 57, 0
2, 31848, Note_on_c, 0, 52, 75
2, 31871, Note_on_c, 0, 52, 0
2, 31872, Note_on_c, 0, 62, 75
2, 31895, Note_on_c, 0, 62, 0
2, 31896, Note_on_c, 0, 52, 75
2, 31919, Note_on_c, 0, 52, 0
2, 31920, Note_on_c, 0, 61, 75
2, 31943, Note_on_c, 0, 61, 0
2, 31944, Note_on_c, 0, 52, 75
2, 31967, Note_on_c, 0, 52, 0
2, 31968, Note_on_c, 0, 59, 75
2, 31991, Note_on_c, 0, 59, 0
2, 31992, Note_on_c, 0, 52, 75
2, 32015, Note_on_c, 0, 52, 0
2, 32016, Note_on_c, 0, 57, 75
2, 32039, Note_on_c, 0, 57, 0
2, 32040, Note_on_c, 0, 52, 75
2, 32063, Note_on_c, 0, 52, 0
2, 32064, Note_on_c, 0, 54, 75
2, 32087, Note_on_c, 0, 54, 0
2, 32088, Note_on_c, 0, 59, 75
2, 32111, Note_on_c, 0, 59, 0
2, 32112, Note_on_c, 0, 54, 75
2, 32135, Note_on_c, 0, 54, 0
2, 32136, Note_on_c, 0, 59, 75
2, 32159, Note_on_c, 0, 59, 0
2, 32160, Note_on_c, 0, 50, 75
2, 32183, Note_on_c, 0, 50, 0
2, 32184, Note_on_c, 0, 56, 75
2, 32207, Note_on_c, 0, 56, 0
2, 32208, Note_on_c, 0, 50, 75
2, 32231, Note_on_c, 0, 50, 0
2, 32232, Note_on_c, 0, 56, 75
2, 32255, Note_on_c, 0, 56, 0
2, 32256, Note_on_c, 0, 57, 75
2, 32256, Note_on_c, 0, 49, 75
2, 32345, Note_on_c, 0, 57, 0
2, 32345, Note_on_c, 0, 49, 0
2, 32400, Note_on_c, 0, 81, 69
2, 32445, Note_on_c, 0, 81, 0
2, 32448, Note_on_c, 0, 86, 69
2, 32471, Note_on_c, 0, 86, 0
2, 32472, Note_on_c, 0, 85, 69
2, 32495, Note_on_c, 0, 85, 0
2, 32496, Note_on_c, 0, 83, 69
2, 32519, Note_on_c, 0, 83, 0
2, 32520, Note_on_c, 0, 81, 69
2, 32543, Note_on_c, 0, 81, 0
2, 32544, Note_on_c, 0, 79, 69
2, 32567, Note_on_c, 0, 79, 0
2, 32568, Note_on_c, 0, 83, 69
2, 32591, Note_on_c, 0, 83, 0
2, 32592, Note_on_c, 0, 79, 69
2, 32615, Note_on_c, 0, 79, 0
2, 32616, Note_on_c, 0, 78, 69
2, 32639, Note_on_c, 0, 78, 0
2, 32640, Note_on_c, 0, 76, 69
2, 32663, Note_on_c, 0, 76, 0
2, 32664, Note_on_c, 0, 79, 69
2, 32687, Note_on_c, 0, 79, 0
2, 32688, Note_on_c, 0, 78, 69
2, 32711, Note_on_c, 0, 78, 0
2, 32712, Note_on_c, 0, 76, 69
2, 32735, Note_on_c, 0, 76, 0
2, 32736, Note_on_c, 0, 78, 69
2, 32759, Note_on_c, 0, 78, 0
2, 32760, Note_on_c, 0, 81, 69
2, 32783, Note_on_c, 0, 81, 0
2, 32784, Note_on_c, 0, 79, 69
2, 32807, Note_on_c, 0, 79, 0
2, 32808, Note_on_c, 0, 78, 69
2, 32831, Note_on_c, 0, 78, 0
2, 32832, Note_on_c, 0, 83, 75
2, 32855, Note_on_c, 0, 83, 0
2, 32856, Note_on_c, 0, 81, 76
2, 32879, Note_on_c, 0, 81, 0
2, 32880, Note_on_c, 0, 79, 77
2, 32903, Note_on_c, 0, 79, 0
2, 32904, Note_on_c, 0, 78, 78
2, 32927, Note_on_c, 0, 78, 0
2, 32928, Note_on_c, 0, 76, 79
2, 32951, Note_on_c, 0, 76, 0
2, 32952, Note_on_c, 0, 74, 80
2, 32975, Note_on_c, 0, 74, 0
2, 32976, Note_on_c, 0, 73, 81
2, 32999, Note_on_c, 0, 73, 0
2, 33000, Note_on_c, 0, 71, 82
2, 33023, Note_on_c, 0, 71, 0
2, 33024, Note_on_c, 0, 73, 83
2, 33047, Note_on_c, 0, 73, 0
2, 33048, Note_on_c, 0, 74, 84
2, 33071, Note_on_c, 0, 74, 0
2, 33072, Note_on_c, 0, 76, 84
2, 33095, Note_on_c, 0, 76, 0
2, 33096, Note_on_c, 0, 73, 84
2, 33119, Note_on_c, 0, 73, 0
2, 33120, Note_on_c, 0, 69, 84
2, 33165, Note_on_c, 0, 69, 0
2, 33168, Note_on_c, 0, 81, 75
2, 33213, Note_on_c, 0, 81, 0
2, 33216, Note_on_c, 0, 86, 75
2, 33239, Note_on_c, 0, 86, 0
2, 33240, Note_on_c, 0, 85, 75
2, 33263, Note_on_c, 0, 85, 0
2, 33264, Note_on_c, 0, 83, 75
2, 33287, Note_on_c, 0, 83, 0
2, 33288, Note_on_c, 0, 81, 75
2, 33311, Note_on_c, 0, 81, 0
2, 33312, Note_on_c, 0, 79, 75
2, 33335, Note_on_c, 0, 79, 0
2, 33336, Note_on_c, 0, 83, 75
2, 33359, Note_on_c, 0, 83, 0
2, 33360, Note_on_c, 0, 79, 75
2, 33383, Note_on_c, 0, 79, 0
2, 33384, Note_on_c, 0, 78, 75
2, 33407, Note_on_c, 0, 78, 0
2, 33408, Note_on_c, 0, 76, 75
2, 33431, Note_on_c, 0, 76, 0
2, 33432, Note_on_c, 0, 79, 75
2, 33455, Note_on_c, 0, 79, 0
2, 33456, Note_on_c, 0, 78, 75
2, 33479, Note_on_c, 0, 78, 0
2, 33480, Note_on_c, 0, 76, 75
2, 33503, Note_on_c, 0, 76, 0
2, 33504, Note_on_c, 0, 78, 75
2, 33527, Note_on_c, 0, 78, 0
2, 33528, Note_on_c, 0, 81, 75
2, 33551, Note_on_c, 0, 81, 0
2, 33552, Note_on_c, 0, 79, 75
2, 33575, Note_on_c, 0, 79, 0
2, 33576, Note_on_c, 0, 78, 75
2, 33599, Note_on_c, 0, 78, 0
2, 33600, Note_on_c, 0, 76, 75
2, 33623, Note_on_c, 0, 76, 0
2, 33624, Note_on_c, 0, 79, 75
2, 33647, Note_on_c, 0, 79, 0
2, 33648, Note_on_c, 0, 78, 75
2, 33671, Note_on_c, 0, 78, 0
2, 33672, Note_on_c, 0, 76, 75
2, 33695, Note_on_c, 0, 76, 0
2, 33696, Note_on_c, 0, 74, 75
2, 33719, Note_on_c, 0, 74, 0
2, 33720, Note_on_c, 0, 73, 75
2, 33743, Note_on_c, 0, 73, 0
2, 33744, Note_on_c, 0, 76, 75
2, 33767, Note_on_c, 0, 76, 0
2, 33768, Note_on_c, 0, 73, 75
2, 33791, Note_on_c, 0, 73, 0
2, 33792, Note_on_c, 0, 74, 75
2, 33881, Note_on_c, 0, 74, 0
2, 33936, Note_on_c, 0, 81, 69
2, 33981, Note_on_c, 0, 81, 0
2, 33984, Note_on_c, 0, 86, 69
2, 34007, Note_on_c, 0, 86, 0
2, 34008, Note_on_c, 0, 85, 69
2, 34031, Note_on_c, 0, 85, 0
2, 34032, Note_on_c, 0, 83, 69
2, 34055, Note_on_c, 0, 83, 0
2, 34056, Note_on_c, 0, 81, 69
2, 34079, Note_on_c, 0, 81, 0
2, 34080, Note_on_c, 0, 79, 69
2, 34103, Note_on_c, 0, 79, 0
2, 34104, Note_on_c, 0, 83, 69
2, 34127, Note_on_c, 0, 83, 0
2, 34128, Note_on_c, 0, 79, 69
2, 34151, Note_on_c, 0, 79, 0
2, 34152, Note_on_c, 0, 78, 69
2, 34175, Note_on_c, 0, 78, 0
2, 34176, Note_on_c, 0, 76, 69
2, 34199, Note_on_c, 0, 76, 0
2, 34200, Note_on_c, 0, 79, 69
2, 34223, Note_on_c, 0, 79, 0
2, 34224, Note_on_c, 0, 78, 69
2, 34247, Note_on_c, 0, 78, 0
2, 34248, Note_on_c, 0, 76, 69
2, 34271, Note_on_c, 0, 76, 0
2, 34272, Note_on_c, 0, 78, 69
2, 34295, Note_on_c, 0, 78, 0
2, 34296, Note_on_c, 0, 81, 69
2, 34319, Note_on_c, 0, 81, 0
2, 34320, Note_on_c, 0, 79, 69
2, 34343, Note_on_c, 0, 79, 0
2, 34344, Note_on_c, 0, 78, 69
2, 34367, Note_on_c, 0, 78, 0
2, 34368, Note_on_c, 0, 83, 75
2, 34391, Note_on_c, 0, 83, 0
2, 34392, Note_on_c, 0, 81, 76
2, 34415, Note_on_c, 0, 81, 0
2, 34416, Note_on_c, 0, 79, 77
2, 34439, Note_on_c, 0, 79, 0
2, 34440, Note_on_c, 0, 78, 78
2, 34463, Note_on_c, 0, 78, 0
2, 34464, Note_on_c, 0, 76, 79
2, 34487, Note_on_c, 0, 76, 0
2, 34488, Note_on_c, 0, 74, 80
2, 34511, Note_on_c, 0, 74, 0
2, 34512, Note_on_c, 0, 73, 81
2, 34535, Note_on_c, 0, 73, 0
2, 34536, Note_on_c, 0, 71, 82
2, 34559, Note_on_c, 0, 71, 0
2, 34560, Note_on_c, 0, 73, 83
2, 34583, Note_on_c, 0, 73, 0
2, 34584, Note_on_c, 0, 74, 84
2, 34607, Note_on_c, 0, 74, 0
2, 34608, Note_on_c, 0, 76, 84
2, 34631, Note_on_c, 0, 76, 0
2, 34632, Note_on_c, 0, 73, 84
2, 34655, Note_on_c, 0, 73, 0
2, 34656, Note_on_c, 0, 69, 84
2, 34701, Note_on_c, 0, 69, 0
2, 34704, Note_on_c, 0, 81, 75
2, 34749, Note_on_c, 0, 81, 0
2, 34752, Note_on_c, 0, 86, 75
2, 34775, Note_on_c, 0, 86, 0
2, 34776, Note_on_c, 0, 85, 75
2, 34799, Note_on_c, 0, 85, 0
2, 34800, Note_on_c, 0, 83, 75
2, 34823, Note_on_c, 0, 83, 0
2, 34824, Note_on_c, 0, 81, 75
2, 34847, Note_on_c, 0, 81, 0
2, 34848, Note_on_c, 0, 79, 75
2, 34871, Note_on_c, 0, 79, 0
2, 34872, Note_on_c, 0, 83, 75
2, 34895, Note_on_c, 0, 83, 0
2, 34896, Note_on_c, 0, 79, 75
2, 34919, Note_on_c, 0, 79, 0
2, 34920, Note_on_c, 0, 78, 75
2, 34943, Note_on_c, 0, 78, 0
2, 34944, Note_on_c, 0, 76, 75
2, 34967, Note_on_c, 0, 76, 0
2, 34968, Note_on_c, 0, 79, 75
2, 34991, Note_on_c, 0, 79, 0
2, 34992, Note_on_c, 0, 78, 75
2, 35015, Note_on_c, 0, 78, 0
2, 35016, Note_on_c, 0, 76, 75
2, 35039, Note_on_c, 0, 76, 0
2, 35040, Note_on_c, 0, 78, 75
2, 35063, Note_on_c, 0, 78, 0
2, 35064, Note_on_c, 0, 81, 75
2, 35087, Note_on_c, 0, 81, 0
2, 35088, Note_on_c, 0, 79, 75
2, 35111, Note_on_c, 0, 79, 0
2, 35112, Note_on_c, 0, 78, 75
2, 35135, Note_on_c, 0, 78, 0
2, 35136, Note_on_c, 0, 76, 75
2, 35159, Note_on_c, 0, 76, 0
2, 35160, Note_on_c, 0, 79, 75
2, 35183, Note_on_c, 0, 79, 0
2, 35184, Note_on_c, 0, 78, 75
2, 35207, Note_on_c, 0, 78, 0
2, 35208, Note_on_c, 0, 76, 75
2, 35231, Note_on_c, 0, 76, 0
2, 35232, Note_on_c, 0, 74, 75
2, 35255, Note_on_c, 0, 74, 0
2, 35256, Note_on_c, 0, 73, 75
2, 35279, Note_on_c, 0, 73, 0
2, 35280, Note_on_c, 0, 76, 75
2, 35303, Note_on_c, 0, 76, 0
2, 35304, Note_on_c, 0, 73, 75
2, 35327, Note_on_c, 0, 73, 0
2, 35328, Note_on_c, 0, 74, 75
2, 35417, Note_on_c, 0, 74, 0
2, 35472, Note_on_c, 0, 78, 75
2, 35484, Note_on_c, 0, 78, 0
2, 35484, Note_on_c, 0, 76, 75
2, 35496, Note_on_c, 0, 76, 0
2, 35496, Note_on_c, 0, 78, 75
2, 35517, Note_on_c, 0, 78, 0
2, 35520, Note_on_c, 0, 79, 75
2, 35543, Note_on_c, 0, 79, 0
2, 35544, Note_on_c, 0, 78, 75
2, 35567, Note_on_c, 0, 78, 0
2, 35568, Note_on_c, 0, 76, 75
2, 35591, Note_on_c, 0, 76, 0
2, 35592, Note_on_c, 0, 74, 75
2, 35615, Note_on_c, 0, 74, 0
2, 35616, Note_on_c, 0, 73, 75
2, 35639, Note_on_c, 0, 73, 0
2, 35640, Note_on_c, 0, 71, 75
2, 35663, Note_on_c, 0, 71, 0
2, 35664, Note_on_c, 0, 69, 75
2, 35687, Note_on_c, 0, 69, 0
2, 35688, Note_on_c, 0, 79, 75
2, 35711, Note_on_c, 0, 79, 0
2, 35712, Note_on_c, 0, 78, 75
2, 35735, Note_on_c, 0, 78, 0
2, 35736, Note_on_c, 0, 76, 75
2, 35759, Note_on_c, 0, 76, 0
2, 35760, Note_on_c, 0, 74, 75
2, 35783, Note_on_c, 0, 74, 0
2, 35784, Note_on_c, 0, 76, 75
2, 35807, Note_on_c, 0, 76, 0
2, 35808, Note_on_c, 0, 78, 75
2, 35831, Note_on_c, 0, 78, 0
2, 35832, Note_on_c, 0, 79, 75
2, 35855, Note_on_c, 0, 79, 0
2, 35856, Note_on_c, 0, 81, 75
2, 35879, Note_on_c, 0, 81, 0
2, 35880, Note_on_c, 0, 78, 75
2, 35903, Note_on_c, 0, 78, 0
2, 35904, Note_on_c, 0, 79, 75
2, 35927, Note_on_c, 0, 79, 0
2, 35928, Note_on_c, 0, 81, 75
2, 35951, Note_on_c, 0, 81, 0
2, 35952, Note_on_c, 0, 79, 75
2, 35975, Note_on_c, 0, 79, 0
2, 35976, Note_on_c, 0, 78, 75
2, 35999, Note_on_c, 0, 78, 0
2, 36000, Note_on_c, 0, 76, 75
2, 36023, Note_on_c, 0, 76, 0
2, 36024, Note_on_c, 0, 78, 75
2, 36047, Note_on_c, 0, 78, 0
2, 36048, Note_on_c, 0, 76, 75
2, 36071, Note_on_c, 0, 76, 0
2, 36072, Note_on_c, 0, 74, 75
2, 36095, Note_on_c, 0, 74, 0
2, 36096, Note_on_c, 0, 73, 75
2, 36119, Note_on_c, 0, 73, 0
2, 36120, Note_on_c, 0, 74, 75
2, 36143, Note_on_c, 0, 74, 0
2, 36144, Note_on_c, 0, 73, 75
2, 36167, Note_on_c, 0, 73, 0
2, 36168, Note_on_c, 0, 71, 75
2, 36191, Note_on_c, 0, 71, 0
2, 36192, Note_on_c, 0, 69, 75
2, 36237, Note_on_c, 0, 69, 0
2, 36240, Note_on_c, 0, 78, 75
2, 36252, Note_on_c, 0, 78, 0
2, 36252, Note_on_c, 0, 76, 75
2, 36264, Note_on_c, 0, 76, 0
2, 36264, Note_on_c, 0, 78, 75
2, 36285, Note_on_c, 0, 78, 0
2, 36288, Note_on_c, 0, 79, 75
2, 36311, Note_on_c, 0, 79, 0
2, 36312, Note_on_c, 0, 78, 75
2, 36335, Note_on_c, 0, 78, 0
2, 36336, Note_on_c, 0, 76, 75
2, 36359, Note_on_c, 0, 76, 0
2, 36360, Note_on_c, 0, 74, 75
2, 36383, Note_on_c, 0, 74, 0
2, 36384, Note_on_c, 0, 73, 75
2, 36407, Note_on_c, 0, 73, 0
2, 36408, Note_on_c, 0, 71, 75
2, 36431, Note_on_c, 0, 71, 0
2, 36432, Note_on_c, 0, 69, 75
2, 36455, Note_on_c, 0, 69, 0
2, 36456, Note_on_c, 0, 79, 75
2, 36479, Note_on_c, 0, 79, 0
2, 36480, Note_on_c, 0, 78, 75
2, 36503, Note_on_c, 0, 78, 0
2, 36504, Note_on_c, 0, 76, 75
2, 36527, Note_on_c, 0, 76, 0
2, 36528, Note_on_c, 0, 74, 75
2, 36551, Note_on_c, 0, 74, 0
2, 36552, Note_on_c, 0, 76, 75
2, 36575, Note_on_c, 0, 76, 0
2, 36576, Note_on_c, 0, 78, 75
2, 36599, Note_on_c, 0, 78, 0
2, 36600, Note_on_c, 0, 79, 75
2, 36623, Note_on_c, 0, 79, 0
2, 36624, Note_on_c, 0, 81, 75
2, 36647, Note_on_c, 0, 81, 0
2, 36648, Note_on_c, 0, 78, 75
2, 36671, Note_on_c, 0, 78, 0
2, 36672, Note_on_c, 0, 76, 75
2, 36695, Note_on_c, 0, 76, 0
2, 36696, Note_on_c, 0, 79, 75
2, 36719, Note_on_c, 0, 79, 0
2, 36720, Note_on_c, 0, 78, 75
2, 36743, Note_on_c, 0, 78, 0
2, 36744, Note_on_c, 0, 76, 75
2, 36767, Note_on_c, 0, 76, 0
2, 36768, Note_on_c, 0, 74, 75
2, 36791, Note_on_c, 0, 74, 0
2, 36792, Note_on_c, 0, 73, 75
2, 36815, Note_on_c, 0, 73, 0
2, 36816, Note_on_c, 0, 76, 75
2, 36839, Note_on_c, 0, 76, 0
2, 36840, Note_on_c, 0, 73, 75
2, 36863, Note_on_c, 0, 73, 0
2, 36864, Note_on_c, 0, 74, 75
2, 36953, Note_on_c, 0, 74, 0
2, 37008, Note_on_c, 0, 78, 75
2, 37020, Note_on_c, 0, 78, 0
2, 37020, Note_on_c, 0, 76, 75
2, 37032, Note_on_c, 0, 76, 0
2, 37032, Note_on_c, 0, 78, 75
2, 37053, Note_on_c, 0, 78, 0
2, 37056, Note_on_c, 0, 79, 75
2, 37079, Note_on_c, 0, 79, 0
2, 37080, Note_on_c, 0, 78, 75
2, 37103, Note_on_c, 0, 78, 0
2, 37104, Note_on_c, 0, 76, 75
2, 37127, Note_on_c, 0, 76, 0
2, 37128, Note_on_c, 0, 74, 75
2, 37151, Note_on_c, 0, 74, 0
2, 37152, Note_on_c, 0, 73, 75
2, 37175, Note_on_c, 0, 73, 0
2, 37176, Note_on_c, 0, 71, 75
2, 37199, Note_on_c, 0, 71, 0
2, 37200, Note_on_c, 0, 69, 75
2, 37223, Note_on_c, 0, 69, 0
2, 37224, Note_on_c, 0, 79, 75
2, 37247, Note_on_c, 0, 79, 0
2, 37248, Note_on_c, 0, 78, 75
2, 37271, Note_on_c, 0, 78, 0
2, 37272, Note_on_c, 0, 76, 75
2, 37295, Note_on_c, 0, 76, 0
2, 37296, Note_on_c, 0, 74, 75
2, 37319, Note_on_c, 0, 74, 0
2, 37320, Note_on_c, 0, 76, 75
2, 37343, Note_on_c, 0, 76, 0
2, 37344, Note_on_c, 0, 78, 75
2, 37367, Note_on_c, 0, 78, 0
2, 37368, Note_on_c, 0, 79, 75
2, 37391, Note_on_c, 0, 79, 0
2, 37392, Note_on_c, 0, 81, 75
2, 37415, Note_on_c, 0, 81, 0
2, 37416, Note_on_c, 0, 78, 75
2, 37439, Note_on_c, 0, 78, 0
2, 37440, Note_on_c, 0, 79, 75
2, 37463, Note_on_c, 0, 79, 0
2, 37464, Note_on_c, 0, 81, 75
2, 37487, Note_on_c, 0, 81, 0
2, 37488, Note_on_c, 0, 79, 75
2, 37511, Note_on_c, 0, 79, 0
2, 37512, Note_on_c, 0, 78, 75
2, 37535, Note_on_c, 0, 78, 0
2, 37536, Note_on_c, 0, 76, 75
2, 37559, Note_on_c, 0, 76, 0
2, 37560, Note_on_c, 0, 78, 75
2, 37583, Note_on_c, 0, 78, 0
2, 37584, Note_on_c, 0, 76, 75
2, 37607, Note_on_c, 0, 76, 0
2, 37608, Note_on_c, 0, 74, 75
2, 37631, Note_on_c, 0, 74, 0
2, 37632, Note_on_c, 0, 73, 75
2, 37655, Note_on_c, 0, 73, 0
2, 37656, Note_on_c, 0, 74, 75
2, 37679, Note_on_c, 0, 74, 0
2, 37680, Note_on_c, 0, 73, 75
2, 37703, Note_on_c, 0, 73, 0
2, 37704, Note_on_c, 0, 71, 75
2, 37727, Note_on_c, 0, 71, 0
2, 37728, Note_on_c, 0, 69, 75
2, 37773, Note_on_c, 0, 69, 0
2, 37776, Note_on_c, 0, 78, 75
2, 37788, Note_on_c, 0, 78, 0
2, 37788, Note_on_c, 0, 76, 75
2, 37800, Note_on_c, 0, 76, 0
2, 37800, Note_on_c, 0, 78, 75
2, 37821, Note_on_c, 0, 78, 0
2, 37824, Note_on_c, 0, 79, 75
2, 37847, Note_on_c, 0, 79, 0
2, 37848, Note_on_c, 0, 78, 75
2, 37871, Note_on_c, 0, 78, 0
2, 37872, Note_on_c, 0, 76, 75
2, 37895, Note_on_c, 0, 76, 0
2, 37896, Note_on_c, 0, 74, 75
2, 37919, Note_on_c, 0, 74, 0
2, 37920, Note_on_c, 0, 73, 75
2, 37943, Note_on_c, 0, 73, 0
2, 37944, Note_on_c, 0, 71, 75
2, 37967, Note_on_c, 0, 71, 0
2, 37968, Note_on_c, 0, 69, 75
2, 37991, Note_on_c, 0, 69, 0
2, 37992, Note_on_c, 0, 79, 75
2, 38015, Note_on_c, 0, 79, 0
2, 38016, Note_on_c, 0, 78, 75
2, 38039, Note_on_c, 0, 78, 0
2, 38040, Note_on_c, 0, 76, 75
2, 38063, Note_on_c, 0, 76, 0
2, 38064, Note_on_c, 0, 74, 75
2, 38087, Note_on_c, 0, 74, 0
2, 38088, Note_on_c, 0, 76, 75
2, 38111, Note_on_c, 0, 76, 0
2, 38112, Note_on_c, 0, 78, 75
2, 38135, Note_on_c, 0, 78, 0
2, 38136, Note_on_c, 0, 79, 75
2, 38159, Note_on_c, 0, 79, 0
2, 38160, Note_on_c, 0, 81, 75
2, 38183, Note_on_c, 0, 81, 0
2, 38184, Note_on_c, 0, 78, 75
2, 38207, Note_on_c, 0, 78, 0
2, 38208, Note_on_c, 0, 76, 75
2, 38231, Note_on_c, 0, 76, 0
2, 38232, Note_on_c, 0, 79, 75
2, 38255, Note_on_c, 0, 79, 0
2, 38256, Note_on_c, 0, 78, 75
2, 38279, Note_on_c, 0, 78, 0
2, 38280, Note_on_c, 0, 76, 75
2, 38303, Note_on_c, 0, 76, 0
2, 38304, Note_on_c, 0, 74, 75
2, 38327, Note_on_c, 0, 74, 0
2, 38328, Note_on_c, 0, 73, 75
2, 38351, Note_on_c, 0, 73, 0
2, 38352, Note_on_c, 0, 76, 75
2, 38375, Note_on_c, 0, 76, 0
2, 38376, Note_on_c, 0, 73, 75
2, 38399, Note_on_c, 0, 73, 0
2, 38400, Note_on_c, 0, 74, 75
2, 38489, Note_on_c, 0, 74, 0
2, 38544, Note_on_c, 0, 81, 69
2, 38544, Note_on_c, 0, 69, 69
2, 38589, Note_on_c, 0, 81, 0
2, 38589, Note_on_c, 0, 69, 0
2, 38640, Note_on_c, 0, 78, 69
2, 38640, Note_on_c, 0, 66, 69
2, 38685, Note_on_c, 0, 78, 0
2, 38685, Note_on_c, 0, 66, 0
2, 38736, Note_on_c, 0, 79, 69
2, 38736, Note_on_c, 0, 67, 69
2, 38781, Note_on_c, 0, 79, 0
2, 38781, Note_on_c, 0, 67, 0
2, 38832, Note_on_c, 0, 76, 69
2, 38832, Note_on_c, 0, 64, 69
2, 38877, Note_on_c, 0, 76, 0
2, 38877, Note_on_c, 0, 64, 0
2, 38928, Note_on_c, 0, 78, 69
2, 38928, Note_on_c, 0, 66, 69
2, 38973, Note_on_c, 0, 78, 0
2, 38973, Note_on_c, 0, 66, 0
2, 39024, Note_on_c, 0, 71, 69
2, 39024, Note_on_c, 0, 59, 69
2, 39069, Note_on_c, 0, 71, 0
2, 39069, Note_on_c, 0, 59, 0
2, 39120, Note_on_c, 0, 76, 69
2, 39120, Note_on_c, 0, 64, 69
2, 39165, Note_on_c, 0, 76, 0
2, 39165, Note_on_c, 0, 64, 0
2, 39168, Note_on_c, 0, 74, 69
2, 39168, Note_on_c, 0, 62, 69
2, 39264, Note_on_c, 0, 74, 0
2, 39264, Note_on_c, 0, 62, 0
2, 39264, Note_on_c, 0, 73, 69
2, 39264, Note_on_c, 0, 61, 69
2, 39309, Note_on_c, 0, 73, 0
2, 39309, Note_on_c, 0, 61, 0
2, 39312, Note_on_c, 0, 81, 69
2, 39312, Note_on_c, 0, 69, 69
2, 39357, Note_on_c, 0, 81, 0
2, 39357, Note_on_c, 0, 69, 0
2, 39408, Note_on_c, 0, 78, 69
2, 39408, Note_on_c, 0, 66, 69
2, 39453, Note_on_c, 0, 78, 0
2, 39453, Note_on_c, 0, 66, 0
2, 39504, Note_on_c, 0, 79, 69
2, 39504, Note_on_c, 0, 67, 69
2, 39549, Note_on_c, 0, 79, 0
2, 39549, Note_on_c, 0, 67, 0
2, 39600, Note_on_c, 0, 76, 69
2, 39600, Note_on_c, 0, 64, 69
2, 39645, Note_on_c, 0, 76, 0
2, 39645, Note_on_c, 0, 64, 0
2, 39696, Note_on_c, 0, 78, 69
2, 39696, Note_on_c, 0, 66, 69
2, 39789, Note_on_c, 0, 78, 0
2, 39789, Note_on_c, 0, 66, 0
2, 39792, Note_on_c, 0, 76, 69
2, 39792, Note_on_c, 0, 64, 69
2, 39837, Note_on_c, 0, 76, 0
2, 39837, Note_on_c, 0, 64, 0
2, 39840, Note_on_c, 0, 74, 69
2, 39840, Note_on_c, 0, 62, 69
2, 39885, Note_on_c, 0, 74, 0
2, 39885, Note_on_c, 0, 62, 0
2, 39888, Note_on_c, 0, 73, 69
2, 39888, Note_on_c, 0, 61, 69
2, 39933, Note_on_c, 0, 73, 0
2, 39933, Note_on_c, 0, 61, 0
2, 39936, Note_on_c, 0, 74, 69
2, 39936, Note_on_c, 0, 62, 69
2, 40025, Note_on_c, 0, 74, 0
2, 40025, Note_on_c, 0, 62, 0
2, 40080, Note_on_c, 0, 81, 69
2, 40080, Note_on_c, 0, 69, 69
2, 40125, Note_on_c, 0, 81, 0
2, 40125, Note_on_c, 0, 69, 0
2, 40176, Note_on_c, 0, 78, 69
2, 40176, Note_on_c, 0, 66, 69
2, 40221, Note_on_c, 0, 78, 0
2, 40221, Note_on_c, 0, 66, 0
2, 40272, Note_on_c, 0, 79, 69
2, 40272, Note_on_c, 0, 67, 69
2, 40317, Note_on_c, 0, 79, 0
2, 40317, Note_on_c, 0, 67, 0
2, 40368, Note_on_c, 0, 76, 69
2, 40368, Note_on_c, 0, 64, 69
2, 40413, Note_on_c, 0, 76, 0
2, 40413, Note_on_c, 0, 64, 0
2, 40464, Note_on_c, 0, 78, 69
2, 40464, Note_on_c, 0, 66, 69
2, 40509, Note_on_c, 0, 78, 0
2, 40509, Note_on_c, 0, 66, 0
2, 40560, Note_on_c, 0, 71, 69
2, 40560, Note_on_c, 0, 59, 69
2, 40605, Note_on_c, 0, 71, 0
2, 40605, Note_on_c, 0, 59, 0
2, 40656, Note_on_c, 0, 76, 69
2, 40656, Note_on_c, 0, 64, 69
2, 40701, Note_on_c, 0, 76, 0
2, 40701, Note_on_c, 0, 64, 0
2, 40704, Note_on_c, 0, 74, 69
2, 40704, Note_on_c, 0, 62, 69
2, 40800, Note_on_c, 0, 74, 0
2, 40800, Note_on_c, 0, 62, 0
2, 40800, Note_on_c, 0, 73, 69
2, 40800, Note_on_c, 0, 61, 69
2, 40845, Note_on_c, 0, 73, 0
2, 40845, Note_on_c, 0, 61, 0
2, 40848, Note_on_c, 0, 81, 69
2, 40848, Note_on_c, 0, 69, 69
2, 40893, Note_on_c, 0, 81, 0
2, 40893, Note_on_c, 0, 69, 0
2, 40944, Note_on_c, 0, 78, 69
2, 40944, Note_on_c, 0, 66, 69
2, 40989, Note_on_c, 0, 78, 0
2, 40989, Note_on_c, 0, 66, 0
2, 41040, Note_on_c, 0, 79, 69
2, 41040, Note_on_c, 0, 67, 69
2, 41085, Note_on_c, 0, 79, 0
2, 41085, Note_on_c, 0, 67, 0
2, 41136, Note_on_c, 0, 76, 69
2, 41136, Note_on_c, 0, 64, 69
2, 41181, Note_on_c, 0, 76, 0
2, 41181, Note_on_c, 0, 64, 0
2, 41232, Note_on_c, 0, 78, 69
2, 41232, Note_on_c, 0, 66, 69
2, 41325, Note_on_c, 0, 78, 0
2, 41325, Note_on_c, 0, 66, 0
2, 41328, Note_on_c, 0, 76, 69
2, 41328, Note_on_c, 0, 64, 69
2, 41373, Note_on_c, 0, 76, 0
2, 41373, Note_on_c, 0, 64, 0
2, 41376, Note_on_c, 0, 74, 69
2, 41376, Note_on_c, 0, 62, 69
2, 41421, Note_on_c, 0, 74, 0
2, 41421, Note_on_c, 0, 62, 0
2, 41424, Note_on_c, 0, 73, 69
2, 41424, Note_on_c, 0, 61, 69
2, 41469, Note_on_c, 0, 73, 0
2, 41469, Note_on_c, 0, 61, 0
2, 41472, Note_on_c, 0, 74, 69
2, 41472, Note_on_c, 0, 62, 69
2, 41561, Note_on_c, 0, 74, 0
2, 41561, Note_on_c, 0, 62, 0
2, 41616, Note_on_c, 0, 78, 61
2, 41616, Note_on_c, 0, 66, 61
2, 41664, Note_on_c, 0, 78, 0
2, 41664, Note_on_c, 0, 66, 0
2, 41664, Note_on_c, 0, 79, 61
2, 41664, Note_on_c, 0, 67, 61
2, 41753, Note_on_c, 0, 79, 0
2, 41753, Note_on_c, 0, 67, 0
2, 41808, Note_on_c, 0, 79, 63
2, 41808, Note_on_c, 0, 67, 63
2, 41856, Note_on_c, 0, 79, 0
2, 41856, Note_on_c, 0, 67, 0
2, 41856, Note_on_c, 0, 78, 64
2, 41856, Note_on_c, 0, 66, 64
2, 41945, Note_on_c, 0, 78, 0
2, 41945, Note_on_c, 0, 66, 0
2, 42000, Note_on_c, 0, 81, 66
2, 42000, Note_on_c, 0, 69, 66
2, 42048, Note_on_c, 0, 81, 0
2, 42048, Note_on_c, 0, 69, 0
2, 42048, Note_on_c, 0, 83, 67
2, 42048, Note_on_c, 0, 71, 67
2, 42137, Note_on_c, 0, 83, 0
2, 42137, Note_on_c, 0, 71, 0
2, 42192, Note_on_c, 0, 76, 69
2, 42192, Note_on_c, 0, 64, 69
2, 42237, Note_on_c, 0, 76, 0
2, 42237, Note_on_c, 0, 64, 0
2, 42240, Note_on_c, 0, 74, 70
2, 42240, Note_on_c, 0, 62, 70
2, 42336, Note_on_c, 0, 74, 0
2, 42336, Note_on_c, 0, 62, 0
2, 42336, Note_on_c, 0, 73, 71
2, 42336, Note_on_c, 0, 61, 71
2, 42381, Note_on_c, 0, 73, 0
2, 42381, Note_on_c, 0, 61, 0
2, 42384, Note_on_c, 0, 78, 72
2, 42384, Note_on_c, 0, 66, 72
2, 42432, Note_on_c, 0, 78, 0
2, 42432, Note_on_c, 0, 66, 0
2, 42432, Note_on_c, 0, 79, 73
2, 42432, Note_on_c, 0, 67, 73
2, 42521, Note_on_c, 0, 79, 0
2, 42521, Note_on_c, 0, 67, 0
2, 42576, Note_on_c, 0, 79, 75
2, 42576, Note_on_c, 0, 67, 75
2, 42624, Note_on_c, 0, 79, 0
2, 42624, Note_on_c, 0, 67, 0
2, 42624, Note_on_c, 0, 78, 76
2, 42624, Note_on_c, 0, 66, 76
2, 42713, Note_on_c, 0, 78, 0
2, 42713, Note_on_c, 0, 66, 0
2, 42768, Note_on_c, 0, 81, 78
2, 42768, Note_on_c, 0, 69, 78
2, 42816, Note_on_c, 0, 81, 0
2, 42816, Note_on_c, 0, 69, 0
2, 42816, Note_on_c, 0, 83, 78
2, 42816, Note_on_c, 0, 71, 78
2, 42905, Note_on_c, 0, 83, 0
2, 42905, Note_on_c, 0, 71, 0
2, 42960, Note_on_c, 0, 73, 81
2, 42960, Note_on_c, 0, 61, 81
2, 43008, Note_on_c, 0, 73, 0
2, 43008, Note_on_c, 0, 61, 0
2, 43008, Note_on_c, 0, 74, 81
2, 43008, Note_on_c, 0, 62, 81
2, 43097, Note_on_c, 0, 74, 0
2, 43097, Note_on_c, 0, 62, 0
2, 43152, Note_on_c, 0, 78, 83
2, 43152, Note_on_c, 0, 66, 83
2, 43200, Note_on_c, 0, 78, 0
2, 43200, Note_on_c, 0, 66, 0
2, 43200, Note_on_c, 0, 79, 84
2, 43200, Note_on_c, 0, 67, 84
2, 43289, Note_on_c, 0, 79, 0
2, 43289, Note_on_c, 0, 67, 0
2, 43344, Note_on_c, 0, 79, 86
2, 43344, Note_on_c, 0, 67, 86
2, 43392, Note_on_c, 0, 79, 0
2, 43392, Note_on_c, 0, 67, 0
2, 43392, Note_on_c, 0, 78, 87
2, 43392, Note_on_c, 0, 66, 87
2, 43481, Note_on_c, 0, 78, 0
2, 43481, Note_on_c, 0, 66, 0
2, 43536, Note_on_c, 0, 81, 89
2, 43536, Note_on_c, 0, 69, 89
2, 43584, Note_on_c, 0, 81, 0
2, 43584, Note_on_c, 0, 69, 0
2, 43584, Note_on_c, 0, 83, 90
2, 43584, Note_on_c, 0, 71, 90
2, 43673, Note_on_c, 0, 83, 0
2, 43673, Note_on_c, 0, 71, 0
2, 43728, Note_on_c, 0, 76, 92
2, 43728, Note_on_c, 0, 64, 92
2, 43773, Note_on_c, 0, 76, 0
2, 43773, Note_on_c, 0, 64, 0
2, 43776, Note_on_c, 0, 74, 93
2, 43776, Note_on_c, 0, 62, 93
2, 43872, Note_on_c, 0, 74, 0
2, 43872, Note_on_c, 0, 62, 0
2, 43872, Note_on_c, 0, 73, 94
2, 43872, Note_on_c, 0, 61, 94
2, 43917, Note_on_c, 0, 73, 0
2, 43917, Note_on_c, 0, 61, 0
2, 43920, Note_on_c, 0, 78, 95
2, 43920, Note_on_c, 0, 66, 95
2, 43968, Note_on_c, 0, 78, 0
2, 43968, Note_on_c, 0, 66, 0
2, 43968, Note_on_c, 0, 79, 96
2, 43968, Note_on_c, 0, 67, 96
2, 44057, Note_on_c, 0, 79, 0
2, 44057, Note_on_c, 0, 67, 0
2, 44112, Note_on_c, 0, 79, 98
2, 44112, Note_on_c, 0, 67, 98
2, 44160, Note_on_c, 0, 79, 0
2, 44160, Note_on_c, 0, 67, 0
2, 44160, Note_on_c, 0, 78, 98
2, 44160, Note_on_c, 0, 66, 98
2, 44249, Note_on_c, 0, 78, 0
2, 44249, Note_on_c, 0, 66, 0
2, 44304, Note_on_c, 0, 81, 101
2, 44304, Note_on_c, 0, 69, 101
2, 44352, Note_on_c, 0, 81, 0
2, 44352, Note_on_c, 0, 69, 0
2, 44352, Note_on_c, 0, 83, 101
2, 44352, Note_on_c, 0, 71, 101
2, 44441, Note_on_c, 0, 83, 0
2, 44441, Note_on_c, 0, 71, 0
2, 44496, Note_on_c, 0, 73, 103
2, 44496, Note_on_c, 0, 61, 103
2, 44544, Note_on_c, 0, 73, 0
2, 44544, Note_on_c, 0, 61, 0
2, 44544, Note_on_c, 0, 74, 104
2, 44544, Note_on_c, 0, 62, 104
2, 44633, Note_on_c, 0, 74, 0
2, 44633, Note_on_c, 0, 62, 0
2, 44640, Control_c, 0, 64, 127
2, 44640, Note_on_c, 0, 86, 106
2, 44640, Note_on_c, 0, 81, 106
2, 44640, Note_on_c, 0, 78, 106
2, 44640, Note_on_c, 0, 74, 106
2, 44729, Note_on_c, 0, 86, 0
2, 44729, Note_on_c, 0, 81, 0
2, 44729, Note_on_c, 0, 78, 0
2, 44729, Note_on_c, 0, 74, 0
2, 44736, Note_on_c, 0, 86, 106
2, 44736, Note_on_c, 0, 81, 106
2, 44736, Note_on_c, 0, 78, 106
2, 44736, Note_on_c, 0, 74, 106
2, 44869, Note_on_c, 0, 86, 0
2, 44869, Note_on_c, 0, 81, 0
2, 44869, Note_on_c, 0, 78, 0
2, 44869, Note_on_c, 0, 74, 0
2, 44880, Control_c, 0, 64, 0
2, 44928, End_track
3, 0, Start_track
3, 0, Program_c, 0, 0
3, 0, Control_c, 0, 7, 127
3, 0, Control_c, 0, 10, 64
3, 44928, End_track
4, 0, Start_track
4, 0, Program_c, 1, 0
4, 0, Control_c, 1, 7, 127
4, 0, Control_c, 1, 10, 64
4, 192, Note_on_c, 1, 74, 69
4, 237, Note_on_c, 1, 74, 0
4, 288, Note_on_c, 1, 76, 69
4, 333, Note_on_c, 1, 76, 0
4, 384, Note_on_c, 1, 73, 69
4, 429, Note_on_c, 1, 73, 0
4, 480, Note_on_c, 1, 74, 69
4, 525, Note_on_c, 1, 74, 0
4, 576, Note_on_c, 1, 67, 69
4, 621, Note_on_c, 1, 67, 0
4, 672, Note_on_c, 1, 68, 74
4, 717, Note_on_c, 1, 68, 0
4, 768, Note_on_c, 1, 69, 79
4, 857, Note_on_c, 1, 69, 0
4, 960, Note_on_c, 1, 74, 69
4, 1005, Note_on_c, 1, 74, 0
4, 1056, Note_on_c, 1, 76, 69
4, 1101, Note_on_c, 1, 76, 0
4, 1152, Note_on_c, 1, 73, 69
4, 1197, Note_on_c, 1, 73, 0
4, 1248, Note_on_c, 1, 74, 69
4, 1293, Note_on_c, 1, 74, 0
4, 1344, Note_on_c, 1, 67, 69
4, 1433, Note_on_c, 1, 67, 0
4, 1440, Note_on_c, 1, 69, 69
4, 1529, Note_on_c, 1, 69, 0
4, 1536, Note_on_c, 1, 62, 69
4, 1625, Note_on_c, 1, 62, 0
4, 1728, Note_on_c, 1, 74, 69
4, 1773, Note_on_c, 1, 74, 0
4, 1824, Note_on_c, 1, 76, 69
4, 1869, Note_on_c, 1, 76, 0
4, 1920, Note_on_c, 1, 73, 69
4, 1965, Note_on_c, 1, 73, 0
4, 2016, Note_on_c, 1, 74, 69
4, 2061, Note_on_c, 1, 74, 0
4, 2112, Note_on_c, 1, 67, 69
4, 2157, Note_on_c, 1, 67, 0
4, 2208, Note_on_c, 1, 68, 74
4, 2253, Note_on_c, 1, 68, 0
4, 2304, Note_on_c, 1, 69, 79
4, 2393, Note_on_c, 1, 69, 0
4, 2496, Note_on_c, 1, 74, 69
4, 2541, Note_on_c, 1, 74, 0
4, 2592, Note_on_c, 1, 76, 69
4, 2637, Note_on_c, 1, 76, 0
4, 2688, Note_on_c, 1, 73, 69
4, 2733, Note_on_c, 1, 73, 0
4, 2784, Note_on_c, 1, 74, 69
4, 2829, Note_on_c, 1, 74, 0
4, 2880, Note_on_c, 1, 67, 69
4, 2969, Note_on_c, 1, 67, 0
4, 2976, Note_on_c, 1, 69, 69
4, 3065, Note_on_c, 1, 69, 0
4, 3072, Note_on_c, 1, 62, 69
4, 3161, Note_on_c, 1, 62, 0
4, 3264, Note_on_c, 1, 61, 69
4, 3309, Note_on_c, 1, 61, 0
4, 3360, Note_on_c, 1, 69, 69
4, 3405, Note_on_c, 1, 69, 0
4, 3456, Note_on_c, 1, 62, 69
4, 3501, Note_on_c, 1, 62, 0
4, 3552, Note_on_c, 1, 69, 69
4, 3597, Note_on_c, 1, 69, 0
4, 3648, Note_on_c, 1, 71, 69
4, 3687, Note_on_c, 1, 71, 0
4, 3744, Note_on_c, 1, 67, 69
4, 3783, Note_on_c, 1, 67, 0
4, 3840, Note_on_c, 1, 69, 69
4, 3929, Note_on_c, 1, 69, 0
4, 4032, Note_on_c, 1, 61, 69
4, 4077, Note_on_c, 1, 61, 0
4, 4128, Note_on_c, 1, 69, 69
4, 4173, Note_on_c, 1, 69, 0
4, 4224, Note_on_c, 1, 62, 69
4, 4269, Note_on_c, 1, 62, 0
4, 4320, Note_on_c, 1, 66, 69
4, 4365, Note_on_c, 1, 66, 0
4, 4416, Note_on_c, 1, 67, 69
4, 4455, Note_on_c, 1, 67, 0
4, 4512, Note_on_c, 1, 69, 69
4, 4551, Note_on_c, 1, 69, 0
4, 4608, Note_on_c, 1, 62, 69
4, 4697, Note_on_c, 1, 62, 0
4, 4800, Note_on_c, 1, 61, 69
4, 4845, Note_on_c, 1, 61, 0
4, 4896, Note_on_c, 1, 69, 69
4, 4941, Note_on_c, 1, 69, 0
4, 4992, Note_on_c, 1, 62, 69
4, 5037, Note_on_c, 1, 62, 0
4, 5088, Note_on_c, 1, 69, 69
4, 5133, Note_on_c, 1, 69, 0
4, 5184, Note_on_c, 1, 71, 69
4, 5223, Note_on_c, 1, 71, 0
4, 5280, Note_on_c, 1, 67, 69
4, 5319, Note_on_c, 1, 67, 0
4, 5376, Note_on_c, 1, 69, 69
4, 5465, Note_on_c, 1, 69, 0
4, 5568, Note_on_c, 1, 61, 69
4, 5613, Note_on_c, 1, 61, 0
4, 5664, Note_on_c, 1, 69, 69
4, 5709, Note_on_c, 1, 69, 0
4, 5760, Note_on_c, 1, 62, 69
4, 5805, Note_on_c, 1, 62, 0
4, 5856, Note_on_c, 1, 66, 69
4, 5901, Note_on_c, 1, 66, 0
4, 5952, Note_on_c, 1, 67, 69
4, 5991, Note_on_c, 1, 67, 0
4, 6048, Note_on_c, 1, 69, 69
4, 6087, Note_on_c, 1, 69, 0
4, 6144, Note_on_c, 1, 62, 69
4, 6233, Note_on_c, 1, 62, 0
4, 6288, Note_on_c, 1, 50, 84
4, 6333, Note_on_c, 1, 50, 0
4, 6336, Note_on_c, 1, 53, 84
4, 6356, Note_on_c, 1, 53, 0
4, 6384, Note_on_c, 1, 52, 84
4, 6404, Note_on_c, 1, 52, 0
4, 6432, Note_on_c, 1, 50, 84
4, 6452, Note_on_c, 1, 50, 0
4, 6480, Note_on_c, 1, 49, 84
4, 6500, Note_on_c, 1, 49, 0
4, 6528, Note_on_c, 1, 50, 84
4, 6548, Note_on_c, 1, 50, 0
4, 6576, Note_on_c, 1, 45, 84
4, 6596, Note_on_c, 1, 45, 0
4, 6624, Note_on_c, 1, 46, 84
4, 6644, Note_on_c, 1, 46, 0
4, 6672, Note_on_c, 1, 45, 84
4, 6692, Note_on_c, 1, 45, 0
4, 6720, Note_on_c, 1, 46, 84
4, 6732, Note_on_c, 1, 46, 0
4, 6732, Note_on_c, 1, 48, 84
4, 6744, Note_on_c, 1, 48, 0
4, 6744, Note_on_c, 1, 46, 84
4, 6765, Note_on_c, 1, 46, 0
4, 6768, Note_on_c, 1, 45, 84
4, 6813, Note_on_c, 1, 45, 0
4, 6816, Note_on_c, 1, 46, 84
4, 6836, Note_on_c, 1, 46, 0
4, 6864, Note_on_c, 1, 45, 84
4, 6884, Note_on_c, 1, 45, 0
4, 6912, Note_on_c, 1, 46, 84
4, 6924, Note_on_c, 1, 46, 0
4, 6924, Note_on_c, 1, 48, 84
4, 6936, Note_on_c, 1, 48, 0
4, 6936, Note_on_c, 1, 46, 84
4, 6957, Note_on_c, 1, 46, 0
4, 6960, Note_on_c, 1, 45, 84
4, 7005, Note_on_c, 1, 45, 0
4, 7152, Note_on_c, 1, 45, 69
4, 7197, Note_on_c, 1, 45, 0
4, 7200, Note_on_c, 1, 57, 69
4, 7245, Note_on_c, 1, 57, 0
4, 7248, Note_on_c, 1, 61, 69
4, 7293, Note_on_c, 1, 61, 0
4, 7344, Note_on_c, 1, 38, 69
4, 7389, Note_on_c, 1, 38, 0
4, 7392, Note_on_c, 1, 50, 69
4, 7437, Note_on_c, 1, 50, 0
4, 7440, Note_on_c, 1, 53, 69
4, 7485, Note_on_c, 1, 53, 0
4, 7488, Note_on_c, 1, 55, 69
4, 7488, Note_on_c, 1, 43, 69
4, 7577, Note_on_c, 1, 55, 0
4, 7577, Note_on_c, 1, 43, 0
4, 7584, Note_on_c, 1, 52, 69
4, 7584, Note_on_c, 1, 45, 69
4, 7673, Note_on_c, 1, 52, 0
4, 7673, Note_on_c, 1, 45, 0
4, 7680, Note_on_c, 1, 50, 69
4, 7725, Note_on_c, 1, 50, 0
4, 7728, Note_on_c, 1, 45, 69
4, 7773, Note_on_c, 1, 45, 0
4, 7776, Note_on_c, 1, 38, 69
4, 7821, Note_on_c, 1, 38, 0
4, 7824, Note_on_c, 1, 50, 84
4, 7869, Note_on_c, 1, 50, 0
4, 7872, Note_on_c, 1, 53, 84
4, 7892, Note_on_c, 1, 53, 0
4, 7920, Note_on_c, 1, 52, 84
4, 7940, Note_on_c, 1, 52, 0
4, 7968, Note_on_c, 1, 50, 84
4, 7988, Note_on_c, 1, 50, 0
4, 8016, Note_on_c, 1, 49, 84
4, 8036, Note_on_c, 1, 49, 0
4, 8064, Note_on_c, 1, 50, 84
4, 8084, Note_on_c, 1, 50, 0
4, 8112, Note_on_c, 1, 45, 84
4, 8132, Note_on_c, 1, 45, 0
4, 8160, Note_on_c, 1, 46, 84
4, 8180, Note_on_c, 1, 46, 0
4, 8208, Note_on_c, 1, 45, 84
4, 8228, Note_on_c, 1, 45, 0
4, 8256, Note_on_c, 1, 46, 84
4, 8268, Note_on_c, 1, 46, 0
4, 8268, Note_on_c, 1, 48, 84
4, 8280, Note_on_c, 1, 48, 0
4, 8280, Note_on_c, 1, 46, 84
4, 8301, Note_on_c, 1, 46, 0
4, 8304, Note_on_c, 1, 45, 84
4, 8349, Note_on_c, 1, 45, 0
4, 8352, Note_on_c, 1, 46, 84
4, 8372, Note_on_c, 1, 46, 0
4, 8400, Note_on_c, 1, 45, 84
4, 8420, Note_on_c, 1, 45, 0
4, 8448, Note_on_c, 1, 46, 84
4, 8460, Note_on_c, 1, 46, 0
4, 8460, Note_on_c, 1, 48, 84
4, 8472, Note_on_c, 1, 48, 0
4, 8472, Note_on_c, 1, 46, 84
4, 8493, Note_on_c, 1, 46, 0
4, 8496, Note_on_c, 1, 45, 84
4, 8541, Note_on_c, 1, 45, 0
4, 8688, Note_on_c, 1, 45, 69
4, 8733, Note_on_c, 1, 45, 0
4, 8736, Note_on_c, 1, 57, 69
4, 8781, Note_on_c, 1, 57, 0
4, 8784, Note_on_c, 1, 61, 69
4, 8829, Note_on_c, 1, 61, 0
4, 8880, Note_on_c, 1, 38, 69
4, 8925, Note_on_c, 1, 38, 0
4, 8928, Note_on_c, 1, 50, 69
4, 8973, Note_on_c, 1, 50, 0
4, 8976, Note_on_c, 1, 53, 69
4, 9021, Note_on_c, 1, 53, 0
4, 9024, Note_on_c, 1, 55, 69
4, 9024, Note_on_c, 1, 43, 69
4, 9113, Note_on_c, 1, 55, 0
4, 9113, Note_on_c, 1, 43, 0
4, 9120, Note_on_c, 1, 52, 69
4, 9120, Note_on_c, 1, 45, 69
4, 9209, Note_on_c, 1, 52, 0
4, 9209, Note_on_c, 1, 45, 0
4, 9216, Note_on_c, 1, 50, 69
4, 9261, Note_on_c, 1, 50, 0
4, 9264, Note_on_c, 1, 45, 69
4, 9309, Note_on_c, 1, 45, 0
4, 9312, Note_on_c, 1, 38, 69
4, 9357, Note_on_c, 1, 38, 0
4, 9408, Note_on_c, 1, 57, 84
4, 9408, Note_on_c, 1, 53, 84
4, 9497, Note_on_c, 1, 57, 0
4, 9497, Note_on_c, 1, 53, 0
4, 9552, Note_on_c, 1, 60, 84
4, 9597, Note_on_c, 1, 60, 0
4, 9600, Note_on_c, 1, 58, 84
4, 9612, Note_on_c, 1, 58, 0
4, 9612, Note_on_c, 1, 60, 84
4, 9624, Note_on_c, 1, 60, 0
4, 9624, Note_on_c, 1, 58, 84
4, 9645, Note_on_c, 1, 58, 0
4, 9648, Note_on_c, 1, 57, 84
4, 9693, Note_on_c, 1, 57, 0
4, 9696, Note_on_c, 1, 58, 84
4, 9708, Note_on_c, 1, 58, 0
4, 9708, Note_on_c, 1, 60, 84
4, 9720, Note_on_c, 1, 60, 0
4, 9720, Note_on_c, 1, 58, 84
4, 9741, Note_on_c, 1, 58, 0
4, 9744, Note_on_c, 1, 57, 84
4, 9789, Note_on_c, 1, 57, 0
4, 9840, Note_on_c, 1, 60, 84
4, 9840, Note_on_c, 1, 52, 84
4, 9885, Note_on_c, 1, 60, 0
4, 9885, Note_on_c, 1, 52, 0
4, 9936, Note_on_c, 1, 60, 84
4, 9936, Note_on_c, 1, 53, 84
4, 9981, Note_on_c, 1, 60, 0
4, 9981, Note_on_c, 1, 53, 0
4, 9984, Note_on_c, 1, 58, 84
4, 9996, Note_on_c, 1, 58, 0
4, 9996, Note_on_c, 1, 60, 84
4, 10008, Note_on_c, 1, 60, 0
4, 10008, Note_on_c, 1, 58, 84
4, 10029, Note_on_c, 1, 58, 0
4, 10032, Note_on_c, 1, 57, 84
4, 10077, Note_on_c, 1, 57, 0
4, 10080, Note_on_c, 1, 58, 84
4, 10092, Note_on_c, 1, 58, 0
4, 10092, Note_on_c, 1, 60, 84
4, 10104, Note_on_c, 1, 60, 0
4, 10104, Note_on_c, 1, 58, 84
4, 10125, Note_on_c, 1, 58, 0
4, 10128, Note_on_c, 1, 57, 84
4, 10173, Note_on_c, 1, 57, 0
4, 10224, Note_on_c, 1, 60, 82
4, 10224, Note_on_c, 1, 52, 82
4, 10269, Note_on_c, 1, 60, 0
4, 10269, Note_on_c, 1, 52, 0
4, 10320, Note_on_c, 1, 60, 78
4, 10320, Note_on_c, 1, 53, 78
4, 10365, Note_on_c, 1, 60, 0
4, 10365, Note_on_c, 1, 53, 0
4, 10416, Note_on_c, 1, 60, 74
4, 10416, Note_on_c, 1, 52, 74
4, 10461, Note_on_c, 1, 60, 0
4, 10461, Note_on_c, 1, 52, 0
4, 10512, Note_on_c, 1, 60, 70
4, 10512, Note_on_c, 1, 53, 70
4, 10557, Note_on_c, 1, 60, 0
4, 10557, Note_on_c, 1, 53, 0
4, 10560, Note_on_c, 1, 58, 69
4, 10560, Note_on_c, 1, 46, 69
4, 10649, Note_on_c, 1, 58, 0
4, 10649, Note_on_c, 1, 46, 0
4, 10656, Note_on_c, 1, 57, 69
4, 10701, Note_on_c, 1, 57, 0
4, 10704, Note_on_c, 1, 55, 69
4, 10749, Note_on_c, 1, 55, 0
4, 10752, Note_on_c, 1, 53, 69
4, 10797, Note_on_c, 1, 53, 0
4, 10800, Note_on_c, 1, 48, 69
4, 10845, Note_on_c, 1, 48, 0
4, 10848, Note_on_c, 1, 41, 69
4, 10893, Note_on_c, 1, 41, 0
4, 10992, Note_on_c, 1, 57, 70
4, 10992, Note_on_c, 1, 50, 70
4, 11037, Note_on_c, 1, 57, 0
4, 11037, Note_on_c, 1, 50, 0
4, 11088, Note_on_c, 1, 55, 74
4, 11088, Note_on_c, 1, 43, 74
4, 11133, Note_on_c, 1, 55, 0
4, 11133, Note_on_c, 1, 43, 0
4, 11184, Note_on_c, 1, 59, 78
4, 11184, Note_on_c, 1, 52, 78
4, 11229, Note_on_c, 1, 59, 0
4, 11229, Note_on_c, 1, 52, 0
4, 11280, Note_on_c, 1, 57, 82
4, 11280, Note_on_c, 1, 45, 82
4, 11325, Note_on_c, 1, 57, 0
4, 11325, Note_on_c, 1, 45, 0
4, 11328, Note_on_c, 1, 57, 84
4, 11505, Note_on_c, 1, 57, 0
4, 11520, Note_on_c, 1, 45, 84
4, 11565, Note_on_c, 1, 45, 0
4, 11568, Note_on_c, 1, 57, 81
4, 11613, Note_on_c, 1, 57, 0
4, 11616, Note_on_c, 1, 45, 78
4, 11661, Note_on_c, 1, 45, 0
4, 11664, Note_on_c, 1, 50, 84
4, 11684, Note_on_c, 1, 50, 0
4, 11712, Note_on_c, 1, 53, 84
4, 11732, Note_on_c, 1, 53, 0
4, 11760, Note_on_c, 1, 52, 84
4, 11780, Note_on_c, 1, 52, 0
4, 11808, Note_on_c, 1, 50, 84
4, 11828, Note_on_c, 1, 50, 0
4, 11856, Note_on_c, 1, 49, 84
4, 11876, Note_on_c, 1, 49, 0
4, 11904, Note_on_c, 1, 50, 84
4, 11924, Note_on_c, 1, 50, 0
4, 11952, Note_on_c, 1, 45, 84
4, 11972, Note_on_c, 1, 45, 0
4, 12000, Note_on_c, 1, 46, 84
4, 12020, Note_on_c, 1, 46, 0
4, 12048, Note_on_c, 1, 45, 84
4, 12068, Note_on_c, 1, 45, 0
4, 12096, Note_on_c, 1, 46, 84
4, 12108, Note_on_c, 1, 46, 0
4, 12108, Note_on_c, 1, 48, 84
4, 12120, Note_on_c, 1, 48, 0
4, 12120, Note_on_c, 1, 46, 84
4, 12141, Note_on_c, 1, 46, 0
4, 12144, Note_on_c, 1, 45, 84
4, 12189, Note_on_c, 1, 45, 0
4, 12192, Note_on_c, 1, 46, 84
4, 12212, Note_on_c, 1, 46, 0
4, 12240, Note_on_c, 1, 45, 84
4, 12260, Note_on_c, 1, 45, 0
4, 12288, Note_on_c, 1, 46, 84
4, 12300, Note_on_c, 1, 46, 0
4, 12300, Note_on_c, 1, 48, 84
4, 12312, Note_on_c, 1, 48, 0
4, 12312, Note_on_c, 1, 46, 84
4, 12333, Note_on_c, 1, 46, 0
4, 12336, Note_on_c, 1, 45, 84
4, 12381, Note_on_c, 1, 45, 0
4, 12528, Note_on_c, 1, 45, 69
4, 12573, Note_on_c, 1, 45, 0
4, 12576, Note_on_c, 1, 57, 69
4, 12621, Note_on_c, 1, 57, 0
4, 12624, Note_on_c, 1, 61, 69
4, 12669, Note_on_c, 1, 61, 0
4, 12720, Note_on_c, 1, 38, 69
4, 12765, Note_on_c, 1, 38, 0
4, 12768, Note_on_c, 1, 50, 69
4, 12813, Note_on_c, 1, 50, 0
4, 12816, Note_on_c, 1, 53, 69
4, 12861, Note_on_c, 1, 53, 0
4, 12864, Note_on_c, 1, 55, 69
4, 12864, Note_on_c, 1, 43, 69
4, 12953, Note_on_c, 1, 55, 0
4, 12953, Note_on_c, 1, 43, 0
4, 12960, Note_on_c, 1, 52, 69
4, 12960, Note_on_c, 1, 45, 69
4, 13049, Note_on_c, 1, 52, 0
4, 13049, Note_on_c, 1, 45, 0
4, 13056, Note_on_c, 1, 50, 69
4, 13101, Note_on_c, 1, 50, 0
4, 13104, Note_on_c, 1, 45, 69
4, 13149, Note_on_c, 1, 45, 0
4, 13152, Note_on_c, 1, 38, 69
4, 13197, Note_on_c, 1, 38, 0
4, 13248, Note_on_c, 1, 57, 84
4, 13248, Note_on_c, 1, 53, 84
4, 13337, Note_on_c, 1, 57, 0
4, 13337, Note_on_c, 1, 53, 0
4, 13392, Note_on_c, 1, 60, 84
4, 13437, Note_on_c, 1, 60, 0
4, 13440, Note_on_c, 1, 58, 84
4, 13452, Note_on_c, 1, 58, 0
4, 13452, Note_on_c, 1, 60, 84
4, 13464, Note_on_c, 1, 60, 0
4, 13464, Note_on_c, 1, 58, 84
4, 13485, Note_on_c, 1, 58, 0
4, 13488, Note_on_c, 1, 57, 84
4, 13533, Note_on_c, 1, 57, 0
4, 13536, Note_on_c, 1, 58, 84
4, 13548, Note_on_c, 1, 58, 0
4, 13548, Note_on_c, 1, 60, 84
4, 13560, Note_on_c, 1, 60, 0
4, 13560, Note_on_c, 1, 58, 84
4, 13581, Note_on_c, 1, 58, 0
4, 13584, Note_on_c, 1, 57, 84
4, 13629, Note_on_c, 1, 57, 0
4, 13680, Note_on_c, 1, 60, 84
4, 13680, Note_on_c, 1, 52, 84
4, 13725, Note_on_c, 1, 60, 0
4, 13725, Note_on_c, 1, 52, 0
4, 13776, Note_on_c, 1, 60, 84
4, 13776, Note_on_c, 1, 53, 84
4, 13821, Note_on_c, 1, 60, 0
4, 13821, Note_on_c, 1, 53, 0
4, 13824, Note_on_c, 1, 58, 84
4, 13836, Note_on_c, 1, 58, 0
4, 13836, Note_on_c, 1, 60, 84
4, 13848, Note_on_c, 1, 60, 0
4, 13848, Note_on_c, 1, 58, 84
4, 13869, Note_on_c, 1, 58, 0
4, 13872, Note_on_c, 1, 57, 84
4, 13917, Note_on_c, 1, 57, 0
4, 13920, Note_on_c, 1, 58, 84
4, 13932, Note_on_c, 1, 58, 0
4, 13932, Note_on_c, 1, 60, 84
4, 13944, Note_on_c, 1, 60, 0
4, 13944, Note_on_c, 1, 58, 84
4, 13965, Note_on_c, 1, 58, 0
4, 13968, Note_on_c, 1, 57, 84
4, 14013, Note_on_c, 1, 57, 0
4, 14064, Note_on_c, 1, 60, 82
4, 14064, Note_on_c, 1, 52, 82
4, 14109, Note_on_c, 1, 60, 0
4, 14109, Note_on_c, 1, 52, 0
4, 14160, Note_on_c, 1, 60, 78
4, 14160, Note_on_c, 1, 53, 78
4, 14205, Note_on_c, 1, 60, 0
4, 14205, Note_on_c, 1, 53, 0
4, 14256, Note_on_c, 1, 60, 74
4, 14256, Note_on_c, 1, 52, 74
4, 14301, Note_on_c, 1, 60, 0
4, 14301, Note_on_c, 1, 52, 0
4, 14352, Note_on_c, 1, 60, 70
4, 14352, Note_on_c, 1, 53, 70
4, 14397, Note_on_c, 1, 60, 0
4, 14397, Note_on_c, 1, 53, 0
4, 14400, Note_on_c, 1, 58, 69
4, 14400, Note_on_c, 1, 46, 69
4, 14489, Note_on_c, 1, 58, 0
4, 14489, Note_on_c, 1, 46, 0
4, 14496, Note_on_c, 1, 57, 69
4, 14541, Note_on_c, 1, 57, 0
4, 14544, Note_on_c, 1, 55, 69
4, 14589, Note_on_c, 1, 55, 0
4, 14592, Note_on_c, 1, 53, 69
4, 14637, Note_on_c, 1, 53, 0
4, 14640, Note_on_c, 1, 48, 69
4, 14685, Note_on_c, 1, 48, 0
4, 14688, Note_on_c, 1, 41, 69
4, 14733, Note_on_c, 1, 41, 0
4, 14832, Note_on_c, 1, 57, 70
4, 14832, Note_on_c, 1, 50, 70
4, 14877, Note_on_c, 1, 57, 0
4, 14877, Note_on_c, 1, 50, 0
4, 14928, Note_on_c, 1, 55, 74
4, 14928, Note_on_c, 1, 43, 74
4, 14973, Note_on_c, 1, 55, 0
4, 14973, Note_on_c, 1, 43, 0
4, 15024, Note_on_c, 1, 59, 78
4, 15024, Note_on_c, 1, 52, 78
4, 15069, Note_on_c, 1, 59, 0
4, 15069, Note_on_c, 1, 52, 0
4, 15120, Note_on_c, 1, 57, 82
4, 15120, Note_on_c, 1, 45, 82
4, 15165, Note_on_c, 1, 57, 0
4, 15165, Note_on_c, 1, 45, 0
4, 15168, Note_on_c, 1, 57, 84
4, 15345, Note_on_c, 1, 57, 0
4, 15360, Note_on_c, 1, 45, 84
4, 15405, Note_on_c, 1, 45, 0
4, 15408, Note_on_c, 1, 57, 81
4, 15453, Note_on_c, 1, 57, 0
4, 15456, Note_on_c, 1, 45, 78
4, 15501, Note_on_c, 1, 45, 0
4, 15504, Note_on_c, 1, 50, 84
4, 15524, Note_on_c, 1, 50, 0
4, 15552, Note_on_c, 1, 53, 84
4, 15572, Note_on_c, 1, 53, 0
4, 15600, Note_on_c, 1, 52, 84
4, 15620, Note_on_c, 1, 52, 0
4, 15648, Note_on_c, 1, 50, 84
4, 15668, Note_on_c, 1, 50, 0
4, 15696, Note_on_c, 1, 49, 84
4, 15716, Note_on_c, 1, 49, 0
4, 15744, Note_on_c, 1, 50, 84
4, 15764, Note_on_c, 1, 50, 0
4, 15792, Note_on_c, 1, 45, 84
4, 15812, Note_on_c, 1, 45, 0
4, 15840, Note_on_c, 1, 46, 84
4, 15860, Note_on_c, 1, 46, 0
4, 15888, Note_on_c, 1, 45, 84
4, 15908, Note_on_c, 1, 45, 0
4, 15936, Note_on_c, 1, 46, 84
4, 15948, Note_on_c, 1, 46, 0
4, 15948, Note_on_c, 1, 48, 84
4, 15960, Note_on_c, 1, 48, 0
4, 15960, Note_on_c, 1, 46, 84
4, 15981, Note_on_c, 1, 46, 0
4, 15984, Note_on_c, 1, 45, 84
4, 16029, Note_on_c, 1, 45, 0
4, 16032, Note_on_c, 1, 46, 84
4, 16052, Note_on_c, 1, 46, 0
4, 16080, Note_on_c, 1, 45, 84
4, 16100, Note_on_c, 1, 45, 0
4, 16128, Note_on_c, 1, 46, 84
4, 16140, Note_on_c, 1, 46, 0
4, 16140, Note_on_c, 1, 48, 84
4, 16152, Note_on_c, 1, 48, 0
4, 16152, Note_on_c, 1, 46, 84
4, 16173, Note_on_c, 1, 46, 0
4, 16176, Note_on_c, 1, 45, 84
4, 16221, Note_on_c, 1, 45, 0
4, 16368, Note_on_c, 1, 45, 69
4, 16413, Note_on_c, 1, 45, 0
4, 16416, Note_on_c, 1, 57, 69
4, 16461, Note_on_c, 1, 57, 0
4, 16464, Note_on_c, 1, 61, 69
4, 16509, Note_on_c, 1, 61, 0
4, 16560, Note_on_c, 1, 38, 69
4, 16605, Note_on_c, 1, 38, 0
4, 16608, Note_on_c, 1, 50, 69
4, 16653, Note_on_c, 1, 50, 0
4, 16656, Note_on_c, 1, 53, 69
4, 16701, Note_on_c, 1, 53, 0
4, 16704, Note_on_c, 1, 55, 69
4, 16704, Note_on_c, 1, 43, 69
4, 16793, Note_on_c, 1, 55, 0
4, 16793, Note_on_c, 1, 43, 0
4, 16800, Note_on_c, 1, 52, 69
4, 16800, Note_on_c, 1, 45, 69
4, 16889, Note_on_c, 1, 52, 0
4, 16889, Note_on_c, 1, 45, 0
4, 16896, Note_on_c, 1, 50, 69
4, 16941, Note_on_c, 1, 50, 0
4, 16944, Note_on_c, 1, 45, 69
4, 16989, Note_on_c, 1, 45, 0
4, 16992, Note_on_c, 1, 38, 69
4, 17037, Note_on_c, 1, 38, 0
4, 17088, Note_on_c, 1, 62, 69
4, 17127, Note_on_c, 1, 62, 0
4, 17184, Note_on_c, 1, 64, 69
4, 17223, Note_on_c, 1, 64, 0
4, 17280, Note_on_c, 1, 61, 69
4, 17319, Note_on_c, 1, 61, 0
4, 17376, Note_on_c, 1, 62, 69
4, 17415, Note_on_c, 1, 62, 0
4, 17472, Note_on_c, 1, 55, 75
4, 17511, Note_on_c, 1, 55, 0
4, 17568, Note_on_c, 1, 56, 79
4, 17607, Note_on_c, 1, 56, 0
4, 17664, Note_on_c, 1, 57, 84
4, 17758, Note_on_c, 1, 57, 0
4, 17856, Note_on_c, 1, 62, 75
4, 17895, Note_on_c, 1, 62, 0
4, 17952, Note_on_c, 1, 64, 75
4, 17991, Note_on_c, 1, 64, 0
4, 18048, Note_on_c, 1, 61, 75
4, 18087, Note_on_c, 1, 61, 0
4, 18144, Note_on_c, 1, 62, 75
4, 18183, Note_on_c, 1, 62, 0
4, 18240, Note_on_c, 1, 55, 75
4, 18279, Note_on_c, 1, 55, 0
4, 18336, Note_on_c, 1, 57, 75
4, 18375, Note_on_c, 1, 57, 0
4, 18432, Note_on_c, 1, 50, 75
4, 18477, Note_on_c, 1, 50, 0
4, 18480, Note_on_c, 1, 62, 75
4, 18525, Note_on_c, 1, 62, 0
4, 18528, Note_on_c, 1, 50, 75
4, 18573, Note_on_c, 1, 50, 0
4, 18624, Note_on_c, 1, 62, 69
4, 18663, Note_on_c, 1, 62, 0
4, 18720, Note_on_c, 1, 64, 69
4, 18759, Note_on_c, 1, 64, 0
4, 18816, Note_on_c, 1, 61, 69
4, 18855, Note_on_c, 1, 61, 0
4, 18912, Note_on_c, 1, 62, 69
4, 18951, Note_on_c, 1, 62, 0
4, 19008, Note_on_c, 1, 55, 75
4, 19047, Note_on_c, 1, 55, 0
4, 19104, Note_on_c, 1, 56, 79
4, 19143, Note_on_c, 1, 56, 0
4, 19200, Note_on_c, 1, 57, 84
4, 19294, Note_on_c, 1, 57, 0
4, 19392, Note_on_c, 1, 62, 75
4, 19431, Note_on_c, 1, 62, 0
4, 19488, Note_on_c, 1, 64, 75
4, 19527, Note_on_c, 1, 64, 0
4, 19584, Note_on_c, 1, 61, 75
4, 19623, Note_on_c, 1, 61, 0
4, 19680, Note_on_c, 1, 62, 75
4, 19719, Note_on_c, 1, 62, 0
4, 19776, Note_on_c, 1, 55, 75
4, 19815, Note_on_c, 1, 55, 0
4, 19872, Note_on_c, 1, 57, 75
4, 19911, Note_on_c, 1, 57, 0
4, 19968, Note_on_c, 1, 50, 75
4, 20013, Note_on_c, 1, 50, 0
4, 20016, Note_on_c, 1, 62, 75
4, 20061, Note_on_c, 1, 62, 0
4, 20064, Note_on_c, 1, 50, 75
4, 20109, Note_on_c, 1, 50, 0
4, 20160, Note_on_c, 1, 61, 75
4, 20199, Note_on_c, 1, 61, 0
4, 20256, Note_on_c, 1, 69, 75
4, 20295, Note_on_c, 1, 69, 0
4, 20352, Note_on_c, 1, 62, 75
4, 20391, Note_on_c, 1, 62, 0
4, 20448, Note_on_c, 1, 54, 75
4, 20487, Note_on_c, 1, 54, 0
4, 20544, Note_on_c, 1, 55, 75
4, 20583, Note_on_c, 1, 55, 0
4, 20640, Note_on_c, 1, 56, 78
4, 20679, Note_on_c, 1, 56, 0
4, 20736, Note_on_c, 1, 57, 81
4, 20830, Note_on_c, 1, 57, 0
4, 20928, Note_on_c, 1, 61, 75
4, 20967, Note_on_c, 1, 61, 0
4, 21024, Note_on_c, 1, 69, 75
4, 21063, Note_on_c, 1, 69, 0
4, 21120, Note_on_c, 1, 62, 75
4, 21159, Note_on_c, 1, 62, 0
4, 21216, Note_on_c, 1, 54, 75
4, 21255, Note_on_c, 1, 54, 0
4, 21312, Note_on_c, 1, 55, 75
4, 21351, Note_on_c, 1, 55, 0
4, 21408, Note_on_c, 1, 57, 75
4, 21447, Note_on_c, 1, 57, 0
4, 21504, Note_on_c, 1, 50, 75
4, 21549, Note_on_c, 1, 50, 0
4, 21552, Note_on_c, 1, 62, 75
4, 21597, Note_on_c, 1, 62, 0
4, 21600, Note_on_c, 1, 50, 75
4, 21645, Note_on_c, 1, 50, 0
4, 21696, Note_on_c, 1, 61, 75
4, 21735, Note_on_c, 1, 61, 0
4, 21792, Note_on_c, 1, 69, 75
4, 21831, Note_on_c, 1, 69, 0
4, 21888, Note_on_c, 1, 62, 75
4, 21927, Note_on_c, 1, 62, 0
4, 21984, Note_on_c, 1, 54, 75
4, 22023, Note_on_c, 1, 54, 0
4, 22080, Note_on_c, 1, 55, 75
4, 22119, Note_on_c, 1, 55, 0
4, 22176, Note_on_c, 1, 56, 78
4, 22215, Note_on_c, 1, 56, 0
4, 22272, Note_on_c, 1, 57, 81
4, 22366, Note_on_c, 1, 57, 0
4, 22464, Note_on_c, 1, 61, 75
4, 22503, Note_on_c, 1, 61, 0
4, 22560, Note_on_c, 1, 69, 75
4, 22599, Note_on_c, 1, 69, 0
4, 22656, Note_on_c, 1, 62, 75
4, 22695, Note_on_c, 1, 62, 0
4, 22752, Note_on_c, 1, 54, 75
4, 22791, Note_on_c, 1, 54, 0
4, 22848, Note_on_c, 1, 55, 75
4, 22887, Note_on_c, 1, 55, 0
4, 22944, Note_on_c, 1, 57, 75
4, 22983, Note_on_c, 1, 57, 0
4, 23040, Note_on_c, 1, 50, 75
4, 23085, Note_on_c, 1, 50, 0
4, 23088, Note_on_c, 1, 62, 75
4, 23133, Note_on_c, 1, 62, 0
4, 23136, Note_on_c, 1, 50, 75
4, 23181, Note_on_c, 1, 50, 0
4, 23232, Note_on_c, 1, 33, 84
4, 23255, Note_on_c, 1, 33, 0
4, 23256, Note_on_c, 1, 45, 84
4, 23279, Note_on_c, 1, 45, 0
4, 23280, Note_on_c, 1, 33, 84
4, 23303, Note_on_c, 1, 33, 0
4, 23304, Note_on_c, 1, 45, 84
4, 23327, Note_on_c, 1, 45, 0
4, 23328, Note_on_c, 1, 33, 84
4, 23351, Note_on_c, 1, 33, 0
4, 23352, Note_on_c, 1, 45, 84
4, 23375, Note_on_c, 1, 45, 0
4, 23376, Note_on_c, 1, 33, 84
4, 23399, Note_on_c, 1, 33, 0
4, 23400, Note_on_c, 1, 45, 84
4, 23423, Note_on_c, 1, 45, 0
4, 23424, Note_on_c, 1, 33, 84
4, 23447, Note_on_c, 1, 33, 0
4, 23448, Note_on_c, 1, 45, 84
4, 23471, Note_on_c, 1, 45, 0
4, 23472, Note_on_c, 1, 33, 84
4, 23495, Note_on_c, 1, 33, 0
4, 23496, Note_on_c, 1, 45, 84
4, 23519, Note_on_c, 1, 45, 0
4, 23520, Note_on_c, 1, 33, 84
4, 23543, Note_on_c, 1, 33, 0
4, 23544, Note_on_c, 1, 45, 84
4, 23567, Note_on_c, 1, 45, 0
4, 23568, Note_on_c, 1, 33, 84
4, 23591, Note_on_c, 1, 33, 0
4, 23592, Note_on_c, 1, 45, 84
4, 23615, Note_on_c, 1, 45, 0
4, 23616, Note_on_c, 1, 33, 84
4, 23705, Note_on_c, 1, 33, 0
4, 23760, Note_on_c, 1, 45, 75
4, 23805, Note_on_c, 1, 45, 0
4, 23808, Note_on_c, 1, 44, 75
4, 23828, Note_on_c, 1, 44, 0
4, 23856, Note_on_c, 1, 45, 75
4, 23876, Note_on_c, 1, 45, 0
4, 23904, Note_on_c, 1, 50, 75
4, 23924, Note_on_c, 1, 50, 0
4, 23952, Note_on_c, 1, 49, 75
4, 23972, Note_on_c, 1, 49, 0
4, 24000, Note_on_c, 1, 44, 75
4, 24020, Note_on_c, 1, 44, 0
4, 24048, Note_on_c, 1, 45, 75
4, 24068, Note_on_c, 1, 45, 0
4, 24096, Note_on_c, 1, 50, 75
4, 24116, Note_on_c, 1, 50, 0
4, 24144, Note_on_c, 1, 49, 75
4, 24164, Note_on_c, 1, 49, 0
4, 24192, Note_on_c, 1, 38, 75
4, 24281, Note_on_c, 1, 38, 0
4, 24288, Note_on_c, 1, 40, 75
4, 24377, Note_on_c, 1, 40, 0
4, 24384, Note_on_c, 1, 33, 75
4, 24429, Note_on_c, 1, 33, 0
4, 24432, Note_on_c, 1, 45, 75
4, 24477, Note_on_c, 1, 45, 0
4, 24480, Note_on_c, 1, 33, 75
4, 24525, Note_on_c, 1, 33, 0
4, 24576, Note_on_c, 1, 33, 84
4, 24599, Note_on_c, 1, 33, 0
4, 24600, Note_on_c, 1, 45, 84
4, 24623, Note_on_c, 1, 45, 0
4, 24624, Note_on_c, 1, 33, 84
4, 24647, Note_on_c, 1, 33, 0
4, 24648, Note_on_c, 1, 45, 84
4, 24671, Note_on_c, 1, 45, 0
4, 24672, Note_on_c, 1, 33, 84
4, 24695, Note_on_c, 1, 33, 0
4, 24696, Note_on_c, 1, 45, 84
4, 24719, Note_on_c, 1, 45, 0
4, 24720, Note_on_c, 1, 33, 84
4, 24743, Note_on_c, 1, 33, 0
4, 24744, Note_on_c, 1, 45, 84
4, 24767, Note_on_c, 1, 45, 0
4, 24768, Note_on_c, 1, 33, 84
4, 24791, Note_on_c, 1, 33, 0
4, 24792, Note_on_c, 1, 45, 84
4, 24815, Note_on_c, 1, 45, 0
4, 24816, Note_on_c, 1, 33, 84
4, 24839, Note_on_c, 1, 33, 0
4, 24840, Note_on_c, 1, 45, 84
4, 24863, Note_on_c, 1, 45, 0
4, 24864, Note_on_c, 1, 33, 84
4, 24887, Note_on_c, 1, 33, 0
4, 24888, Note_on_c, 1, 45, 84
4, 24911, Note_on_c, 1, 45, 0
4, 24912, Note_on_c, 1, 33, 84
4, 24935, Note_on_c, 1, 33, 0
4, 24936, Note_on_c, 1, 45, 84
4, 24959, Note_on_c, 1, 45, 0
4, 24960, Note_on_c, 1, 33, 84
4, 25049, Note_on_c, 1, 33, 0
4, 25104, Note_on_c, 1, 45, 75
4, 25149, Note_on_c, 1, 45, 0
4, 25152, Note_on_c, 1, 44, 75
4, 25172, Note_on_c, 1, 44, 0
4, 25200, Note_on_c, 1, 45, 75
4, 25220, Note_on_c, 1, 45, 0
4, 25248, Note_on_c, 1, 50, 75
4, 25268, Note_on_c, 1, 50, 0
4, 25296, Note_on_c, 1, 49, 75
4, 25316, Note_on_c, 1, 49, 0
4, 25344, Note_on_c, 1, 44, 75
4, 25364, Note_on_c, 1, 44, 0
4, 25392, Note_on_c, 1, 45, 75
4, 25412, Note_on_c, 1, 45, 0
4, 25440, Note_on_c, 1, 50, 75
4, 25460, Note_on_c, 1, 50, 0
4, 25488, Note_on_c, 1, 49, 75
4, 25508, Note_on_c, 1, 49, 0
4, 25536, Note_on_c, 1, 38, 75
4, 25625, Note_on_c, 1, 38, 0
4, 25632, Note_on_c, 1, 40, 75
4, 25721, Note_on_c, 1, 40, 0
4, 25728, Note_on_c, 1, 33, 75
4, 25773, Note_on_c, 1, 33, 0
4, 25776, Note_on_c, 1, 45, 75
4, 25821, Note_on_c, 1, 45, 0
4, 25824, Note_on_c, 1, 33, 75
4, 25869, Note_on_c, 1, 33, 0
4, 25920, Note_on_c, 1, 40, 84
4, 25943, Note_on_c, 1, 40, 0
4, 25944, Note_on_c, 1, 52, 84
4, 25967, Note_on_c, 1, 52, 0
4, 25968, Note_on_c, 1, 40, 84
4, 25991, Note_on_c, 1, 40, 0
4, 25992, Note_on_c, 1, 52, 84
4, 26015, Note_on_c, 1, 52, 0
4, 26016, Note_on_c, 1, 40, 84
4, 26039, Note_on_c, 1, 40, 0
4, 26040, Note_on_c, 1, 52, 84
4, 26063, Note_on_c, 1, 52, 0
4, 26064, Note_on_c, 1, 40, 84
4, 26087, Note_on_c, 1, 40, 0
4, 26088, Note_on_c, 1, 52, 84
4, 26111, Note_on_c, 1, 52, 0
4, 26112, Note_on_c, 1, 40, 84
4, 26135, Note_on_c, 1, 40, 0
4, 26136, Note_on_c, 1, 52, 84
4, 26159, Note_on_c, 1, 52, 0
4, 26160, Note_on_c, 1, 40, 84
4, 26183, Note_on_c, 1, 40, 0
4, 26184, Note_on_c, 1, 52, 84
4, 26207, Note_on_c, 1, 52, 0
4, 26208, Note_on_c, 1, 40, 84
4, 26231, Note_on_c, 1, 40, 0
4, 26232, Note_on_c, 1, 52, 84
4, 26255, Note_on_c, 1, 52, 0
4, 26256, Note_on_c, 1, 40, 84
4, 26279, Note_on_c, 1, 40, 0
4, 26280, Note_on_c, 1, 52, 84
4, 26303, Note_on_c, 1, 52, 0
4, 26304, Note_on_c, 1, 40, 84
4, 26327, Note_on_c, 1, 40, 0
4, 26328, Note_on_c, 1, 52, 84
4, 26351, Note_on_c, 1, 52, 0
4, 26352, Note_on_c, 1, 40, 84
4, 26375, Note_on_c, 1, 40, 0
4, 26376, Note_on_c, 1, 52, 84
4, 26399, Note_on_c, 1, 52, 0
4, 26400, Note_on_c, 1, 40, 84
4, 26423, Note_on_c, 1, 40, 0
4, 26424, Note_on_c, 1, 52, 84
4, 26447, Note_on_c, 1, 52, 0
4, 26448, Note_on_c, 1, 40, 84
4, 26471, Note_on_c, 1, 40, 0
4, 26472, Note_on_c, 1, 52, 84
4, 26495, Note_on_c, 1, 52, 0
4, 26496, Note_on_c, 1, 40, 84
4, 26519, Note_on_c, 1, 40, 0
4, 26520, Note_on_c, 1, 52, 84
4, 26543, Note_on_c, 1, 52, 0
4, 26544, Note_on_c, 1, 40, 84
4, 26567, Note_on_c, 1, 40, 0
4, 26568, Note_on_c, 1, 52, 84
4, 26591, Note_on_c, 1, 52, 0
4, 26592, Note_on_c, 1, 40, 84
4, 26681, Note_on_c, 1, 40, 0
4, 26688, Note_on_c, 1, 52, 75
4, 26708, Note_on_c, 1, 52, 0
4, 26736, Note_on_c, 1, 54, 75
4, 26756, Note_on_c, 1, 54, 0
4, 26784, Note_on_c, 1, 56, 75
4, 26804, Note_on_c, 1, 56, 0
4, 26832, Note_on_c, 1, 57, 75
4, 26852, Note_on_c, 1, 57, 0
4, 26880, Note_on_c, 1, 59, 75
4, 26900, Note_on_c, 1, 59, 0
4, 26928, Note_on_c, 1, 57, 75
4, 26948, Note_on_c, 1, 57, 0
4, 26976, Note_on_c, 1, 56, 75
4, 26996, Note_on_c, 1, 56, 0
4, 27024, Note_on_c, 1, 54, 75
4, 27044, Note_on_c, 1, 54, 0
4, 27072, Note_on_c, 1, 52, 75
4, 27092, Note_on_c, 1, 52, 0
4, 27120, Note_on_c, 1, 54, 75
4, 27140, Note_on_c, 1, 54, 0
4, 27168, Note_on_c, 1, 56, 75
4, 27188, Note_on_c, 1, 56, 0
4, 27216, Note_on_c, 1, 57, 75
4, 27236, Note_on_c, 1, 57, 0
4, 27264, Note_on_c, 1, 59, 75
4, 27284, Note_on_c, 1, 59, 0
4, 27312, Note_on_c, 1, 57, 75
4, 27332, Note_on_c, 1, 57, 0
4, 27360, Note_on_c, 1, 56, 75
4, 27380, Note_on_c, 1, 56, 0
4, 27408, Note_on_c, 1, 54, 75
4, 27428, Note_on_c, 1, 54, 0
4, 27456, Note_on_c, 1, 52, 75
4, 27476, Note_on_c, 1, 52, 0
4, 27504, Note_on_c, 1, 54, 75
4, 27524, Note_on_c, 1, 54, 0
4, 27552, Note_on_c, 1, 52, 75
4, 27572, Note_on_c, 1, 52, 0
4, 27600, Note_on_c, 1, 54, 75
4, 27620, Note_on_c, 1, 54, 0
4, 27648, Note_on_c, 1, 52, 75
4, 27742, Note_on_c, 1, 52, 0
4, 27840, Note_on_c, 1, 33, 84
4, 27863, Note_on_c, 1, 33, 0
4, 27864, Note_on_c, 1, 45, 84
4, 27887, Note_on_c, 1, 45, 0
4, 27888, Note_on_c, 1, 33, 84
4, 27911, Note_on_c, 1, 33, 0
4, 27912, Note_on_c, 1, 45, 84
4, 27935, Note_on_c, 1, 45, 0
4, 27936, Note_on_c, 1, 33, 84
4, 27959, Note_on_c, 1, 33, 0
4, 27960, Note_on_c, 1, 45, 84
4, 27983, Note_on_c, 1, 45, 0
4, 27984, Note_on_c, 1, 33, 84
4, 28007, Note_on_c, 1, 33, 0
4, 28008, Note_on_c, 1, 45, 84
4, 28031, Note_on_c, 1, 45, 0
4, 28032, Note_on_c, 1, 33, 84
4, 28055, Note_on_c, 1, 33, 0
4, 28056, Note_on_c, 1, 45, 84
4, 28079, Note_on_c, 1, 45, 0
4, 28080, Note_on_c, 1, 33, 84
4, 28103, Note_on_c, 1, 33, 0
4, 28104, Note_on_c, 1, 45, 84
4, 28127, Note_on_c, 1, 45, 0
4, 28128, Note_on_c, 1, 33, 84
4, 28151, Note_on_c, 1, 33, 0
4, 28152, Note_on_c, 1, 45, 84
4, 28175, Note_on_c, 1, 45, 0
4, 28176, Note_on_c, 1, 33, 84
4, 28199, Note_on_c, 1, 33, 0
4, 28200, Note_on_c, 1, 45, 84
4, 28223, Note_on_c, 1, 45, 0
4, 28224, Note_on_c, 1, 33, 84
4, 28313, Note_on_c, 1, 33, 0
4, 28368, Note_on_c, 1, 45, 75
4, 28413, Note_on_c, 1, 45, 0
4, 28416, Note_on_c, 1, 44, 75
4, 28436, Note_on_c, 1, 44, 0
4, 28464, Note_on_c, 1, 45, 75
4, 28484, Note_on_c, 1, 45, 0
4, 28512, Note_on_c, 1, 50, 75
4, 28532, Note_on_c, 1, 50, 0
4, 28560, Note_on_c, 1, 49, 75
4, 28580, Note_on_c, 1, 49, 0
4, 28608, Note_on_c, 1, 44, 75
4, 28628, Note_on_c, 1, 44, 0
4, 28656, Note_on_c, 1, 45, 75
4, 28676, Note_on_c, 1, 45, 0
4, 28704, Note_on_c, 1, 50, 75
4, 28724, Note_on_c, 1, 50, 0
4, 28752, Note_on_c, 1, 49, 75
4, 28772, Note_on_c, 1, 49, 0
4, 28800, Note_on_c, 1, 38, 75
4, 28889, Note_on_c, 1, 38, 0
4, 28896, Note_on_c, 1, 40, 75
4, 28985, Note_on_c, 1, 40, 0
4, 28992, Note_on_c, 1, 33, 75
4, 29037, Note_on_c, 1, 33, 0
4, 29040, Note_on_c, 1, 45, 75
4, 29085, Note_on_c, 1, 45, 0
4, 29088, Note_on_c, 1, 33, 75
4, 29133, Note_on_c, 1, 33, 0
4, 29184, Note_on_c, 1, 40, 84
4, 29207, Note_on_c, 1, 40, 0
4, 29208, Note_on_c, 1, 52, 84
4, 29231, Note_on_c, 1, 52, 0
4, 29232, Note_on_c, 1, 40, 84
4, 29255, Note_on_c, 1, 40, 0
4, 29256, Note_on_c, 1, 52, 84
4, 29279, Note_on_c, 1, 52, 0
4, 29280, Note_on_c, 1, 40, 84
4, 29303, Note_on_c, 1, 40, 0
4, 29304, Note_on_c, 1, 52, 84
4, 29327, Note_on_c, 1, 52, 0
4, 29328, Note_on_c, 1, 40, 84
4, 29351, Note_on_c, 1, 40, 0
4, 29352, Note_on_c, 1, 52, 84
4, 29375, Note_on_c, 1, 52, 0
4, 29376, Note_on_c, 1, 40, 84
4, 29399, Note_on_c, 1, 40, 0
4, 29400, Note_on_c, 1, 52, 84
4, 29423, Note_on_c, 1, 52, 0
4, 29424, Note_on_c, 1, 40, 84
4, 29447, Note_on_c, 1, 40, 0
4, 29448, Note_on_c, 1, 52, 84
4, 29471, Note_on_c, 1, 52, 0
4, 29472, Note_on_c, 1, 40, 84
4, 29495, Note_on_c, 1, 40, 0
4, 29496, Note_on_c, 1, 52, 84
4, 29519, Note_on_c, 1, 52, 0
4, 29520, Note_on_c, 1, 40, 84
4, 29543, Note_on_c, 1, 40, 0
4, 29544, Note_on_c, 1, 52, 84
4, 29567, Note_on_c, 1, 52, 0
4, 29568, Note_on_c, 1, 40, 84
4, 29591, Note_on_c, 1, 40, 0
4, 29592, Note_on_c, 1, 52, 84
4, 29615, Note_on_c, 1, 52, 0
4, 29616, Note_on_c, 1, 40, 84
4, 29639, Note_on_c, 1, 40, 0
4, 29640, Note_on_c, 1, 52, 84
4, 29663, Note_on_c, 1, 52, 0
4, 29664, Note_on_c, 1, 40, 84
4, 29687, Note_on_c, 1, 40, 0
4, 29688, Note_on_c, 1, 52, 84
4, 29711, Note_on_c, 1, 52, 0
4, 29712, Note_on_c, 1, 40, 84
4, 29735, Note_on_c, 1, 40, 0
4, 29736, Note_on_c, 1, 52, 84
4, 29759, Note_on_c, 1, 52, 0
4, 29760, Note_on_c, 1, 40, 84
4, 29783, Note_on_c, 1, 40, 0
4, 29784, Note_on_c, 1, 52, 84
4, 29807, Note_on_c, 1, 52, 0
4, 29808, Note_on_c, 1, 40, 84
4, 29831, Note_on_c, 1, 40, 0
4, 29832, Note_on_c, 1, 52, 84
4, 29855, Note_on_c, 1, 52, 0
4, 29856, Note_on_c, 1, 40, 84
4, 29945, Note_on_c, 1, 40, 0
4, 29952, Note_on_c, 1, 52, 75
4, 29972, Note_on_c, 1, 52, 0
4, 30000, Note_on_c, 1, 54, 75
4, 30020, Note_on_c, 1, 54, 0
4, 30048, Note_on_c, 1, 56, 75
4, 30068, Note_on_c, 1, 56, 0
4, 30096, Note_on_c, 1, 57, 75
4, 30116, Note_on_c, 1, 57, 0
4, 30144, Note_on_c, 1, 59, 75
4, 30164, Note_on_c, 1, 59, 0
4, 30192, Note_on_c, 1, 57, 75
4, 30212, Note_on_c, 1, 57, 0
4, 30240, Note_on_c, 1, 56, 75
4, 30260, Note_on_c, 1, 56, 0
4, 30288, Note_on_c, 1, 54, 75
4, 30308, Note_on_c, 1, 54, 0
4, 30336, Note_on_c, 1, 52, 75
4, 30356, Note_on_c, 1, 52, 0
4, 30384, Note_on_c, 1, 54, 75
4, 30404, Note_on_c, 1, 54, 0
4, 30432, Note_on_c, 1, 56, 75
4, 30452, Note_on_c, 1, 56, 0
4, 30480, Note_on_c, 1, 57, 75
4, 30500, Note_on_c, 1, 57, 0
4, 30528, Note_on_c, 1, 59, 75
4, 30548, Note_on_c, 1, 59, 0
4, 30576, Note_on_c, 1, 57, 75
4, 30596, Note_on_c, 1, 57, 0
4, 30624, Note_on_c, 1, 56, 75
4, 30644, Note_on_c, 1, 56, 0
4, 30672, Note_on_c, 1, 54, 75
4, 30692, Note_on_c, 1, 54, 0
4, 30720, Note_on_c, 1, 52, 75
4, 30740, Note_on_c, 1, 52, 0
4, 30768, Note_on_c, 1, 54, 75
4, 30788, Note_on_c, 1, 54, 0
4, 30816, Note_on_c, 1, 52, 75
4, 30836, Note_on_c, 1, 52, 0
4, 30864, Note_on_c, 1, 54, 75
4, 30884, Note_on_c, 1, 54, 0
4, 30912, Note_on_c, 1, 52, 75
4, 31006, Note_on_c, 1, 52, 0
4, 31104, Note_on_c, 1, 33, 84
4, 31127, Note_on_c, 1, 33, 0
4, 31128, Note_on_c, 1, 45, 84
4, 31151, Note_on_c, 1, 45, 0
4, 31152, Note_on_c, 1, 33, 84
4, 31175, Note_on_c, 1, 33, 0
4, 31176, Note_on_c, 1, 45, 84
4, 31199, Note_on_c, 1, 45, 0
4, 31200, Note_on_c, 1, 33, 84
4, 31223, Note_on_c, 1, 33, 0
4, 31224, Note_on_c, 1, 45, 84
4, 31247, Note_on_c, 1, 45, 0
4, 31248, Note_on_c, 1, 33, 84
4, 31271, Note_on_c, 1, 33, 0
4, 31272, Note_on_c, 1, 45, 84
4, 31295, Note_on_c, 1, 45, 0
4, 31296, Note_on_c, 1, 33, 84
4, 31319, Note_on_c, 1, 33, 0
4, 31320, Note_on_c, 1, 45, 84
4, 31343, Note_on_c, 1, 45, 0
4, 31344, Note_on_c, 1, 33, 84
4, 31367, Note_on_c, 1, 33, 0
4, 31368, Note_on_c, 1, 45, 84
4, 31391, Note_on_c, 1, 45, 0
4, 31392, Note_on_c, 1, 33, 84
4, 31415, Note_on_c, 1, 33, 0
4, 31416, Note_on_c, 1, 45, 84
4, 31439, Note_on_c, 1, 45, 0
4, 31440, Note_on_c, 1, 33, 84
4, 31463, Note_on_c, 1, 33, 0
4, 31464, Note_on_c, 1, 45, 84
4, 31487, Note_on_c, 1, 45, 0
4, 31488, Note_on_c, 1, 33, 84
4, 31577, Note_on_c, 1, 33, 0
4, 31632, Note_on_c, 1, 45, 75
4, 31677, Note_on_c, 1, 45, 0
4, 31680, Note_on_c, 1, 44, 75
4, 31700, Note_on_c, 1, 44, 0
4, 31728, Note_on_c, 1, 45, 75
4, 31748, Note_on_c, 1, 45, 0
4, 31776, Note_on_c, 1, 50, 75
4, 31796, Note_on_c, 1, 50, 0
4, 31824, Note_on_c, 1, 49, 75
4, 31844, Note_on_c, 1, 49, 0
4, 31872, Note_on_c, 1, 44, 75
4, 31892, Note_on_c, 1, 44, 0
4, 31920, Note_on_c, 1, 45, 75
4, 31940, Note_on_c, 1, 45, 0
4, 31968, Note_on_c, 1, 50, 75
4, 31988, Note_on_c, 1, 50, 0
4, 32016, Note_on_c, 1, 49, 75
4, 32036, Note_on_c, 1, 49, 0
4, 32064, Note_on_c, 1, 38, 75
4, 32153, Note_on_c, 1, 38, 0
4, 32160, Note_on_c, 1, 40, 75
4, 32249, Note_on_c, 1, 40, 0
4, 32256, Note_on_c, 1, 33, 75
4, 32301, Note_on_c, 1, 33, 0
4, 32304, Note_on_c, 1, 45, 75
4, 32349, Note_on_c, 1, 45, 0
4, 32352, Note_on_c, 1, 33, 75
4, 32397, Note_on_c, 1, 33, 0
4, 32448, Note_on_c, 1, 74, 69
4, 32487, Note_on_c, 1, 74, 0
4, 32544, Note_on_c, 1, 76, 69
4, 32583, Note_on_c, 1, 76, 0
4, 32640, Note_on_c, 1, 73, 69
4, 32679, Note_on_c, 1, 73, 0
4, 32736, Note_on_c, 1, 74, 69
4, 32775, Note_on_c, 1, 74, 0
4, 32832, Note_on_c, 1, 67, 75
4, 32871, Note_on_c, 1, 67, 0
4, 32928, Note_on_c, 1, 68, 78
4, 32967, Note_on_c, 1, 68, 0
4, 33024, Note_on_c, 1, 69, 81
4, 33063, Note_on_c, 1, 69, 0
4, 33216, Note_on_c, 1, 74, 75
4, 33255, Note_on_c, 1, 74, 0
4, 33312, Note_on_c, 1, 76, 75
4, 33351, Note_on_c, 1, 76, 0
4, 33408, Note_on_c, 1, 73, 75
4, 33447, Note_on_c, 1, 73, 0
4, 33504, Note_on_c, 1, 74, 75
4, 33543, Note_on_c, 1, 74, 0
4, 33600, Note_on_c, 1, 67, 75
4, 33639, Note_on_c, 1, 67, 0
4, 33696, Note_on_c, 1, 69, 75
4, 33735, Note_on_c, 1, 69, 0
4, 33792, Note_on_c, 1, 62, 75
4, 33837, Note_on_c, 1, 62, 0
4, 33840, Note_on_c, 1, 57, 75
4, 33885, Note_on_c, 1, 57, 0
4, 33888, Note_on_c, 1, 50, 75
4, 33933, Note_on_c, 1, 50, 0
4, 33984, Note_on_c, 1, 74, 69
4, 34023, Note_on_c, 1, 74, 0
4, 34080, Note_on_c, 1, 76, 69
4, 34119, Note_on_c, 1, 76, 0
4, 34176, Note_on_c, 1, 73, 69
4, 34215, Note_on_c, 1, 73, 0
4, 34272, Note_on_c, 1, 74, 69
4, 34311, Note_on_c, 1, 74, 0
4, 34368, Note_on_c, 1, 67, 75
4, 34407, Note_on_c, 1, 67, 0
4, 34464, Note_on_c, 1, 68, 78
4, 34503, Note_on_c, 1, 68, 0
4, 34560, Note_on_c, 1, 69, 81
4, 34599, Note_on_c, 1, 69, 0
4, 34752, Note_on_c, 1, 74, 75
4, 34791, Note_on_c, 1, 74, 0
4, 34848, Note_on_c, 1, 76, 75
4, 34887, Note_on_c, 1, 76, 0
4, 34944, Note_on_c, 1, 73, 75
4, 34983, Note_on_c, 1, 73, 0
4, 35040, Note_on_c, 1, 74, 75
4, 35079, Note_on_c, 1, 74, 0
4, 35136, Note_on_c, 1, 67, 75
4, 35175, Note_on_c, 1, 67, 0
4, 35232, Note_on_c, 1, 69, 75
4, 35271, Note_on_c, 1, 69, 0
4, 35328, Note_on_c, 1, 62, 75
4, 35373, Note_on_c, 1, 62, 0
4, 35376, Note_on_c, 1, 57, 75
4, 35421, Note_on_c, 1, 57, 0
4, 35424, Note_on_c, 1, 50, 75
4, 35469, Note_on_c, 1, 50, 0
4, 35520, Note_on_c, 1, 61, 75
4, 35559, Note_on_c, 1, 61, 0
4, 35616, Note_on_c, 1, 69, 75
4, 35655, Note_on_c, 1, 69, 0
4, 35712, Note_on_c, 1, 62, 75
4, 35751, Note_on_c, 1, 62, 0
4, 35808, Note_on_c, 1, 62, 75
4, 35847, Note_on_c, 1, 62, 0
4, 35904, Note_on_c, 1, 71, 75
4, 35943, Note_on_c, 1, 71, 0
4, 36000, Note_on_c, 1, 67, 75
4, 36039, Note_on_c, 1, 67, 0
4, 36096, Note_on_c, 1, 69, 75
4, 36135, Note_on_c, 1, 69, 0
4, 36288, Note_on_c, 1, 61, 75
4, 36327, Note_on_c, 1, 61, 0
4, 36384, Note_on_c, 1, 69, 75
4, 36423, Note_on_c, 1, 69, 0
4, 36480, Note_on_c, 1, 62, 75
4, 36519, Note_on_c, 1, 62, 0
4, 36576, Note_on_c, 1, 62, 75
4, 36615, Note_on_c, 1, 62, 0
4, 36672, Note_on_c, 1, 67, 75
4, 36711, Note_on_c, 1, 67, 0
4, 36768, Note_on_c, 1, 69, 75
4, 36807, Note_on_c, 1, 69, 0
4, 36864, Note_on_c, 1, 62, 75
4, 36909, Note_on_c, 1, 62, 0
4, 36912, Note_on_c, 1, 57, 75
4, 36957, Note_on_c, 1, 57, 0
4, 36960, Note_on_c, 1, 50, 75
4, 37005, Note_on_c, 1, 50, 0
4, 37056, Note_on_c, 1, 61, 75
4, 37095, Note_on_c, 1, 61, 0
4, 37152, Note_on_c, 1, 69, 75
4, 37191, Note_on_c, 1, 69, 0
4, 37248, Note_on_c, 1, 62, 75
4, 37287, Note_on_c, 1, 62, 0
4, 37344, Note_on_c, 1, 62, 75
4, 37383, Note_on_c, 1, 62, 0
4, 37440, Note_on_c, 1, 71, 75
4, 37479, Note_on_c, 1, 71, 0
4, 37536, Note_on_c, 1, 67, 75
4, 37575, Note_on_c, 1, 67, 0
4, 37632, Note_on_c, 1, 69, 75
4, 37671, Note_on_c, 1, 69, 0
4, 37824, Note_on_c, 1, 61, 75
4, 37863, Note_on_c, 1, 61, 0
4, 37920, Note_on_c, 1, 69, 75
4, 37959, Note_on_c, 1, 69, 0
4, 38016, Note_on_c, 1, 62, 75
4, 38055, Note_on_c, 1, 62, 0
4, 38112, Note_on_c, 1, 62, 75
4, 38151, Note_on_c, 1, 62, 0
4, 38208, Note_on_c, 1, 67, 75
4, 38247, Note_on_c, 1, 67, 0
4, 38304, Note_on_c, 1, 69, 75
4, 38343, Note_on_c, 1, 69, 0
4, 38400, Note_on_c, 1, 62, 75
4, 38445, Note_on_c, 1, 62, 0
4, 38448, Note_on_c, 1, 57, 75
4, 38493, Note_on_c, 1, 57, 0
4, 38496, Note_on_c, 1, 50, 75
4, 38541, Note_on_c, 1, 50, 0
4, 38592, Note_on_c, 1, 62, 69
4, 38592, Note_on_c, 1, 50, 69
4, 38637, Note_on_c, 1, 62, 0
4, 38637, Note_on_c, 1, 50, 0
4, 38688, Note_on_c, 1, 64, 69
4, 38688, Note_on_c, 1, 52, 69
4, 38733, Note_on_c, 1, 64, 0
4, 38733, Note_on_c, 1, 52, 0
4, 38784, Note_on_c, 1, 61, 69
4, 38784, Note_on_c, 1, 49, 69
4, 38829, Note_on_c, 1, 61, 0
4, 38829, Note_on_c, 1, 49, 0
4, 38880, Note_on_c, 1, 62, 69
4, 38880, Note_on_c, 1, 50, 69
4, 38925, Note_on_c, 1, 62, 0
4, 38925, Note_on_c, 1, 50, 0
4, 38976, Note_on_c, 1, 55, 69
4, 38976, Note_on_c, 1, 43, 69
4, 39021, Note_on_c, 1, 55, 0
4, 39021, Note_on_c, 1, 43, 0
4, 39072, Note_on_c, 1, 56, 69
4, 39072, Note_on_c, 1, 44, 69
4, 39117, Note_on_c, 1, 56, 0
4, 39117, Note_on_c, 1, 44, 0
4, 39168, Note_on_c, 1, 57, 69
4, 39213, Note_on_c, 1, 57, 0
4, 39216, Note_on_c, 1, 52, 69
4, 39261, Note_on_c, 1, 52, 0
4, 39264, Note_on_c, 1, 45, 69
4, 39309, Note_on_c, 1, 45, 0
4, 39360, Note_on_c, 1, 62, 69
4, 39360, Note_on_c, 1, 50, 69
4, 39405, Note_on_c, 1, 62, 0
4, 39405, Note_on_c, 1, 50, 0
4, 39456, Note_on_c, 1, 64, 69
4, 39456, Note_on_c, 1, 52, 69
4, 39501, Note_on_c, 1, 64, 0
4, 39501, Note_on_c, 1, 52, 0
4, 39552, Note_on_c, 1, 61, 69
4, 39552, Note_on_c, 1, 49, 69
4, 39597, Note_on_c, 1, 61, 0
4, 39597, Note_on_c, 1, 49, 0
4, 39648, Note_on_c, 1, 62, 69
4, 39648, Note_on_c, 1, 50, 69
4, 39693, Note_on_c, 1, 62, 0
4, 39693, Note_on_c, 1, 50, 0
4, 39744, Note_on_c, 1, 55, 69
4, 39744, Note_on_c, 1, 43, 69
4, 39833, Note_on_c, 1, 55, 0
4, 39833, Note_on_c, 1, 43, 0
4, 39840, Note_on_c, 1, 57, 69
4, 39840, Note_on_c, 1, 45, 69
4, 39929, Note_on_c, 1, 57, 0
4, 39929, Note_on_c, 1, 45, 0
4, 39936, Note_on_c, 1, 50, 69
4, 39981, Note_on_c, 1, 50, 0
4, 39984, Note_on_c, 1, 45, 69
4, 40029, Note_on_c, 1, 45, 0
4, 40032, Note_on_c, 1, 38, 69
4, 40077, Note_on_c, 1, 38, 0
4, 40128, Note_on_c, 1, 62, 69
4, 40128, Note_on_c, 1, 50, 69
4, 40173, Note_on_c, 1, 62, 0
4, 40173, Note_on_c, 1, 50, 0
4, 40224, Note_on_c, 1, 64, 69
4, 40224, Note_on_c, 1, 52, 69
4, 40269, Note_on_c, 1, 64, 0
4, 40269, Note_on_c, 1, 52, 0
4, 40320, Note_on_c, 1, 61, 69
4, 40320, Note_on_c, 1, 49, 69
4, 40365, Note_on_c, 1, 61, 0
4, 40365, Note_on_c, 1, 49, 0
4, 40416, Note_on_c, 1, 62, 69
4, 40416, Note_on_c, 1, 50, 69
4, 40461, Note_on_c, 1, 62, 0
4, 40461, Note_on_c, 1, 50, 0
4, 40512, Note_on_c, 1, 55, 69
4, 40512, Note_on_c, 1, 43, 69
4, 40557, Note_on_c, 1, 55, 0
4, 40557, Note_on_c, 1, 43, 0
4, 40608, Note_on_c, 1, 56, 69
4, 40608, Note_on_c, 1, 44, 69
4, 40653, Note_on_c, 1, 56, 0
4, 40653, Note_on_c, 1, 44, 0
4, 40704, Note_on_c, 1, 57, 69
4, 40749, Note_on_c, 1, 57, 0
4, 40752, Note_on_c, 1, 52, 69
4, 40797, Note_on_c, 1, 52, 0
4, 40800, Note_on_c, 1, 45, 69
4, 40845, Note_on_c, 1, 45, 0
4, 40896, Note_on_c, 1, 62, 69
4, 40896, Note_on_c, 1, 50, 69
4, 40941, Note_on_c, 1, 62, 0
4, 40941, Note_on_c, 1, 50, 0
4, 40992, Note_on_c, 1, 64, 69
4, 40992, Note_on_c, 1, 52, 69
4, 41037, Note_on_c, 1, 64, 0
4, 41037, Note_on_c, 1, 52, 0
4, 41088, Note_on_c, 1, 61, 69
4, 41088, Note_on_c, 1, 49, 69
4, 41133, Note_on_c, 1, 61, 0
4, 41133, Note_on_c, 1, 49, 0
4, 41184, Note_on_c, 1, 62, 69
4, 41184, Note_on_c, 1, 50, 69
4, 41229, Note_on_c, 1, 62, 0
4, 41229, Note_on_c, 1, 50, 0
4, 41280, Note_on_c, 1, 55, 69
4, 41280, Note_on_c, 1, 43, 69
4, 41369, Note_on_c, 1, 55, 0
4, 41369, Note_on_c, 1, 43, 0
4, 41376, Note_on_c, 1, 57, 69
4, 41376, Note_on_c, 1, 45, 69
4, 41465, Note_on_c, 1, 57, 0
4, 41465, Note_on_c, 1, 45, 0
4, 41472, Note_on_c, 1, 50, 69
4, 41517, Note_on_c, 1, 50, 0
4, 41520, Note_on_c, 1, 45, 69
4, 41565, Note_on_c, 1, 45, 0
4, 41568, Note_on_c, 1, 38, 69
4, 41613, Note_on_c, 1, 38, 0
4, 41664, Note_on_c, 1, 49, 53
4, 41687, Note_on_c, 1, 49, 0
4, 41688, Note_on_c, 1, 57, 54
4, 41711, Note_on_c, 1, 57, 0
4, 41712, Note_on_c, 1, 52, 54
4, 41735, Note_on_c, 1, 52, 0
4, 41736, Note_on_c, 1, 57, 55
4, 41759, Note_on_c, 1, 57, 0
4, 41760, Note_on_c, 1, 49, 55
4, 41783, Note_on_c, 1, 49, 0
4, 41784, Note_on_c, 1, 57, 55
4, 41807, Note_on_c, 1, 57, 0
4, 41808, Note_on_c, 1, 52, 56
4, 41831, Note_on_c, 1, 52, 0
4, 41832, Note_on_c, 1, 57, 56
4, 41855, Note_on_c, 1, 57, 0
4, 41856, Note_on_c, 1, 50, 57
4, 41879, Note_on_c, 1, 50, 0
4, 41880, Note_on_c, 1, 57, 57
4, 41903, Note_on_c, 1, 57, 0
4, 41904, Note_on_c, 1, 54, 58
4, 41927, Note_on_c, 1, 54, 0
4, 41928, Note_on_c, 1, 57, 58
4, 41951, Note_on_c, 1, 57, 0
4, 41952, Note_on_c, 1, 50, 58
4, 41975, Note_on_c, 1, 50, 0
4, 41976, Note_on_c, 1, 57, 59
4, 41999, Note_on_c, 1, 57, 0
4, 42000, Note_on_c, 1, 54, 59
4, 42023, Note_on_c, 1, 54, 0
4, 42024, Note_on_c, 1, 57, 60
4, 42047, Note_on_c, 1, 57, 0
4, 42048, Note_on_c, 1, 43, 60
4, 42071, Note_on_c, 1, 43, 0
4, 42072, Note_on_c, 1, 52, 60
4, 42095, Note_on_c, 1, 52, 0
4, 42096, Note_on_c, 1, 47, 61
4, 42119, Note_on_c, 1, 47, 0
4, 42120, Note_on_c, 1, 52, 61
4, 42143, Note_on_c, 1, 52, 0
4, 42144, Note_on_c, 1, 44, 62
4, 42167, Note_on_c, 1, 44, 0
4, 42168, Note_on_c, 1, 52, 62
4, 42191, Note_on_c, 1, 52, 0
4, 42192, Note_on_c, 1, 47, 63
4, 42215, Note_on_c, 1, 47, 0
4, 42216, Note_on_c, 1, 52, 63
4, 42239, Note_on_c, 1, 52, 0
4, 42240, Note_on_c, 1, 45, 63
4, 42263, Note_on_c, 1, 45, 0
4, 42264, Note_on_c, 1, 52, 64
4, 42287, Note_on_c, 1, 52, 0
4, 42288, Note_on_c, 1, 45, 64
4, 42311, Note_on_c, 1, 45, 0
4, 42312, Note_on_c, 1, 52, 65
4, 42335, Note_on_c, 1, 52, 0
4, 42336, Note_on_c, 1, 45, 65
4, 42381, Note_on_c, 1, 45, 0
4, 42432, Note_on_c, 1, 49, 67
4, 42455, Note_on_c, 1, 49, 0
4, 42456, Note_on_c, 1, 57, 67
4, 42479, Note_on_c, 1, 57, 0
4, 42480, Note_on_c, 1, 52, 68
4, 42503, Note_on_c, 1, 52, 0
4, 42504, Note_on_c, 1, 57, 68
4, 42527, Note_on_c, 1, 57, 0
4, 42528, Note_on_c, 1, 49, 68
4, 42551, Note_on_c, 1, 49, 0
4, 42552, Note_on_c, 1, 57, 69
4, 42575, Note_on_c, 1, 57, 0
4, 42576, Note_on_c, 1, 52, 69
4, 42599, Note_on_c, 1, 52, 0
4, 42600, Note_on_c, 1, 57, 70
4, 42623, Note_on_c, 1, 57, 0
4, 42624, Note_on_c, 1, 50, 70
4, 42647, Note_on_c, 1, 50, 0
4, 42648, Note_on_c, 1, 57, 71
4, 42671, Note_on_c, 1, 57, 0
4, 42672, Note_on_c, 1, 54, 71
4, 42695, Note_on_c, 1, 54, 0
4, 42696, Note_on_c, 1, 57, 71
4, 42719, Note_on_c, 1, 57, 0
4, 42720, Note_on_c, 1, 50, 72
4, 42743, Note_on_c, 1, 50, 0
4, 42744, Note_on_c, 1, 57, 72
4, 42767, Note_on_c, 1, 57, 0
4, 42768, Note_on_c, 1, 54, 73
4, 42791, Note_on_c, 1, 54, 0
4, 42792, Note_on_c, 1, 57, 73
4, 42815, Note_on_c, 1, 57, 0
4, 42816, Note_on_c, 1, 43, 74
4, 42839, Note_on_c, 1, 43, 0
4, 42840, Note_on_c, 1, 52, 74
4, 42863, Note_on_c, 1, 52, 0
4, 42864, Note_on_c, 1, 47, 74
4, 42887, Note_on_c, 1, 47, 0
4, 42888, Note_on_c, 1, 52, 75
4, 42911, Note_on_c, 1, 52, 0
4, 42912, Note_on_c, 1, 45, 75
4, 42935, Note_on_c, 1, 45, 0
4, 42936, Note_on_c, 1, 52, 76
4, 42959, Note_on_c, 1, 52, 0
4, 42960, Note_on_c, 1, 49, 76
4, 42983, Note_on_c, 1, 49, 0
4, 42984, Note_on_c, 1, 52, 76
4, 43007, Note_on_c, 1, 52, 0
4, 43008, Note_on_c, 1, 38, 77
4, 43031, Note_on_c, 1, 38, 0
4, 43032, Note_on_c, 1, 50, 77
4, 43055, Note_on_c, 1, 50, 0
4, 43056, Note_on_c, 1, 45, 78
4, 43079, Note_on_c, 1, 45, 0
4, 43080, Note_on_c, 1, 50, 78
4, 43103, Note_on_c, 1, 50, 0
4, 43104, Note_on_c, 1, 38, 79
4, 43149, Note_on_c, 1, 38, 0
4, 43200, Note_on_c, 1, 49, 80
4, 43223, Note_on_c, 1, 49, 0
4, 43224, Note_on_c, 1, 57, 81
4, 43247, Note_on_c, 1, 57, 0
4, 43248, Note_on_c, 1, 52, 81
4, 43271, Note_on_c, 1, 52, 0
4, 43272, Note_on_c, 1, 57, 82
4, 43295, Note_on_c, 1, 57, 0
4, 43296, Note_on_c, 1, 49, 82
4, 43319, Note_on_c, 1, 49, 0
4, 43320, Note_on_c, 1, 57, 82
4, 43343, Note_on_c, 1, 57, 0
4, 43344, Note_on_c, 1, 52, 83
4, 43367, Note_on_c, 1, 52, 0
4, 43368, Note_on_c, 1, 57, 83
4, 43391, Note_on_c, 1, 57, 0
4, 43392, Note_on_c, 1, 50, 84
4, 43415, Note_on_c, 1, 50, 0
4, 43416, Note_on_c, 1, 57, 84
4, 43439, Note_on_c, 1, 57, 0
4, 43440, Note_on_c, 1, 54, 84
4, 43463, Note_on_c, 1, 54, 0
4, 43464, Note_on_c, 1, 57, 85
4, 43487, Note_on_c, 1, 57, 0
4, 43488, Note_on_c, 1, 50, 85
4, 43511, Note_on_c, 1, 50, 0
4, 43512, Note_on_c, 1, 57, 86
4, 43535, Note_on_c, 1, 57, 0
4, 43536, Note_on_c, 1, 54, 86
4, 43559, Note_on_c, 1, 54, 0
4, 43560, Note_on_c, 1, 57, 87
4, 43583, Note_on_c, 1, 57, 0
4, 43584, Note_on_c, 1, 43, 87
4, 43607, Note_on_c, 1, 43, 0
4, 43608, Note_on_c, 1, 52, 87
4, 43631, Note_on_c, 1, 52, 0
4, 43632, Note_on_c, 1, 47, 88
4, 43655, Note_on_c, 1, 47, 0
4, 43656, Note_on_c, 1, 52, 88
4, 43679, Note_on_c, 1, 52, 0
4, 43680, Note_on_c, 1, 44, 89
4, 43703, Note_on_c, 1, 44, 0
4, 43704, Note_on_c, 1, 52, 89
4, 43727, Note_on_c, 1, 52, 0
4, 43728, Note_on_c, 1, 47, 90
4, 43751, Note_on_c, 1, 47, 0
4, 43752, Note_on_c, 1, 52, 90
4, 43775, Note_on_c, 1, 52, 0
4, 43776, Note_on_c, 1, 45, 90
4, 43799, Note_on_c, 1, 45, 0
4, 43800, Note_on_c, 1, 52, 91
4, 43823, Note_on_c, 1, 52, 0
4, 43824, Note_on_c, 1, 45, 91
4, 43847, Note_on_c, 1, 45, 0
4, 43848, Note_on_c, 1, 52, 92
4, 43871, Note_on_c, 1, 52, 0
4, 43872, Note_on_c, 1, 45, 92
4, 43917, Note_on_c, 1, 45, 0
4, 43968, Note_on_c, 1, 49, 94
4, 43991, Note_on_c, 1, 49, 0
4, 43992, Note_on_c, 1, 57, 94
4, 44015, Note_on_c, 1, 57, 0
4, 44016, Note_on_c, 1, 52, 95
4, 44039, Note_on_c, 1, 52, 0
4, 44040, Note_on_c, 1, 57, 95
4, 44063, Note_on_c, 1, 57, 0
4, 44064, Note_on_c, 1, 49, 95
4, 44087, Note_on_c, 1, 49, 0
4, 44088, Note_on_c, 1, 57, 96
4, 44111, Note_on_c, 1, 57, 0
4, 44112, Note_on_c, 1, 52, 96
4, 44135, Note_on_c, 1, 52, 0
4, 44136, Note_on_c, 1, 57, 97
4, 44159, Note_on_c, 1, 57, 0
4, 44160, Note_on_c, 1, 50, 97
4, 44183, Note_on_c, 1, 50, 0
4, 44184, Note_on_c, 1, 57, 98
4, 44207, Note_on_c, 1, 57, 0
4, 44208, Note_on_c, 1, 54, 98
4, 44231, Note_on_c, 1, 54, 0
4, 44232, Note_on_c, 1, 57, 98
4, 44255, Note_on_c, 1, 57, 0
4, 44256, Note_on_c, 1, 50, 99
4, 44279, Note_on_c, 1, 50, 0
4, 44280, Note_on_c, 1, 57, 99
4, 44303, Note_on_c, 1, 57, 0
4, 44304, Note_on_c, 1, 54, 100
4, 44327, Note_on_c, 1, 54, 0
4, 44328, Note_on_c, 1, 57, 100
4, 44351, Note_on_c, 1, 57, 0
4, 44352, Note_on_c, 1, 43, 100
4, 44375, Note_on_c, 1, 43, 0
4, 44376, Note_on_c, 1, 52, 101
4, 44399, Note_on_c, 1, 52, 0
4, 44400, Note_on_c, 1, 47, 101
4, 44423, Note_on_c, 1, 47, 0
4, 44424, Note_on_c, 1, 52, 102
4, 44447, Note_on_c, 1, 52, 0
4, 44448, Note_on_c, 1, 45, 102
4, 44471, Note_on_c, 1, 45, 0
4, 44472, Note_on_c, 1, 52, 103
4, 44495, Note_on_c, 1, 52, 0
4, 44496, Note_on_c, 1, 49, 103
4, 44519, Note_on_c, 1, 49, 0
4, 44520, Note_on_c, 1, 52, 103
4, 44543, Note_on_c, 1, 52, 0
4, 44544, Note_on_c, 1, 38, 104
4, 44633, Note_on_c, 1, 38, 0
4, 44640, Control_c, 1, 64, 127
4, 44640, Note_on_c, 1, 50, 106
4, 44640, Note_on_c, 1, 38, 106
4, 44729, Note_on_c, 1, 50, 0
4, 44729, Note_on_c, 1, 38, 0
4, 44736, Note_on_c, 1, 50, 106
4, 44736, Note_on_c, 1, 38, 106
4, 44869, Note_on_c, 1, 50, 0
4, 44869, Note_on_c, 1, 38, 0
4, 44880, Control_c, 1, 64, 0
4, 44880, Note_on_c, 1, 38, 0
4, 44925, Note_on_c, 1, 38, 0
4, 44928, End_track
5, 0, Start_track
5, 0, Program_c, 1, 0
5, 0, Control_c, 1, 7, 127
5, 0, Control_c, 1, 10, 64
5, 10656, Note_on_c, 1, 48, 64
5, 10745, Note_on_c, 1, 48, 0
5, 11328, Note_on_c, 1, 49, 64
5, 11417, Note_on_c, 1, 49, 0
5, 11424, Note_on_c, 1, 50, 64
5, 11513, Note_on_c, 1, 50, 0
5, 14496, Note_on_c, 1, 48, 64
5, 14585, Note_on_c, 1, 48, 0
5, 15168, Note_on_c, 1, 49, 64
5, 15257, Note_on_c, 1, 49, 0
5, 15264, Note_on_c, 1, 50, 64
5, 15353, Note_on_c, 1, 50, 0
5, 44928, End_track
6, 0, Start_track
6, 0, Title_t, "Piano Solo   <composer>  "
6, 0, End_track
0, 0, End_of_file
