0, 0, Header, 1, 6, 96
1, 0, Start_track
1, 0, Copyright_t, "Copyright  1994-2002 Mozart Music Software"
1, 0, Text_t, "Sonata I\015\012"
1, 0, Text_t, "Haydn\015\012"
1, 0, Sequencer_specific, 16, 68, 87, 77, 90, 86, 82, 83, 78, 32, 55, 46, 48, 46, 55, 46, 48
1, 0, Time_signature, 2, 2, 24, 8
1, 0, Tempo, 413793
1, 0, Key_signature, 0, "major"
1, 36096, End_track
2, 0, Start_track
2, 0, Program_c, 0, 0
2, 0, Control_c, 0, 7, 127
2, 0, Control_c, 0, 10, 64
2, 48, Note_on_c, 0, 72, 75
2, 93, Note_on_c, 0, 72, 0
2, 96, Note_on_c, 0, 76, 75
2, 119, Note_on_c, 0, 76, 0
2, 120, Note_on_c, 0, 72, 75
2, 143, Note_on_c, 0, 72, 0
2, 144, Note_on_c, 0, 79, 76
2, 167, Note_on_c, 0, 79, 0
2, 168, Note_on_c, 0, 76, 77
2, 191, Note_on_c, 0, 76, 0
2, 192, Note_on_c, 0, 84, 77
2, 259, Note_on_c, 0, 84, 0
2, 264, Note_on_c, 0, 79, 80
2, 287, Note_on_c, 0, 79, 0
2, 288, Note_on_c, 0, 81, 79
2, 303, Note_on_c, 0, 81, 0
2, 304, Note_on_c, 0, 79, 78
2, 319, Note_on_c, 0, 79, 0
2, 320, Note_on_c, 0, 81, 78
2, 335, Note_on_c, 0, 81, 0
2, 336, Note_on_c, 0, 79, 77
2, 351, Note_on_c, 0, 79, 0
2, 352, Note_on_c, 0, 81, 77
2, 367, Note_on_c, 0, 81, 0
2, 368, Note_on_c, 0, 79, 76
2, 383, Note_on_c, 0, 79, 0
2, 432, Note_on_c, 0, 72, 75
2, 477, Note_on_c, 0, 72, 0
2, 480, Note_on_c, 0, 77, 77
2, 503, Note_on_c, 0, 77, 0
2, 504, Note_on_c, 0, 72, 78
2, 527, Note_on_c, 0, 72, 0
2, 528, Note_on_c, 0, 81, 79
2, 551, Note_on_c, 0, 81, 0
2, 552, Note_on_c, 0, 77, 80
2, 575, Note_on_c, 0, 77, 0
2, 576, Note_on_c, 0, 84, 79
2, 643, Note_on_c, 0, 84, 0
2, 648, Note_on_c, 0, 81, 76
2, 671, Note_on_c, 0, 81, 0
2, 672, Note_on_c, 0, 83, 75
2, 687, Note_on_c, 0, 83, 0
2, 688, Note_on_c, 0, 81, 75
2, 703, Note_on_c, 0, 81, 0
2, 704, Note_on_c, 0, 83, 75
2, 719, Note_on_c, 0, 83, 0
2, 720, Note_on_c, 0, 81, 75
2, 735, Note_on_c, 0, 81, 0
2, 736, Note_on_c, 0, 83, 75
2, 751, Note_on_c, 0, 83, 0
2, 752, Note_on_c, 0, 81, 75
2, 767, Note_on_c, 0, 81, 0
2, 816, Note_on_c, 0, 72, 75
2, 861, Note_on_c, 0, 72, 0
2, 864, Note_on_c, 0, 76, 76
2, 887, Note_on_c, 0, 76, 0
2, 888, Note_on_c, 0, 72, 76
2, 911, Note_on_c, 0, 72, 0
2, 912, Note_on_c, 0, 79, 77
2, 935, Note_on_c, 0, 79, 0
2, 936, Note_on_c, 0, 76, 77
2, 959, Note_on_c, 0, 76, 0
2, 960, Note_on_c, 0, 84, 78
2, 1027, Note_on_c, 0, 84, 0
2, 1032, Note_on_c, 0, 79, 80
2, 1055, Note_on_c, 0, 79, 0
2, 1056, Note_on_c, 0, 81, 79
2, 1071, Note_on_c, 0, 81, 0
2, 1072, Note_on_c, 0, 79, 78
2, 1087, Note_on_c, 0, 79, 0
2, 1088, Note_on_c, 0, 81, 78
2, 1103, Note_on_c, 0, 81, 0
2, 1104, Note_on_c, 0, 79, 77
2, 1119, Note_on_c, 0, 79, 0
2, 1120, Note_on_c, 0, 81, 77
2, 1135, Note_on_c, 0, 81, 0
2, 1136, Note_on_c, 0, 79, 76
2, 1151, Note_on_c, 0, 79, 0
2, 1152, Note_on_c, 0, 79, 75
2, 1175, Note_on_c, 0, 79, 0
2, 1176, Note_on_c, 0, 77, 75
2, 1199, Note_on_c, 0, 77, 0
2, 1200, Note_on_c, 0, 86, 75
2, 1223, Note_on_c, 0, 86, 0
2, 1224, Note_on_c, 0, 77, 75
2, 1247, Note_on_c, 0, 77, 0
2, 1248, Note_on_c, 0, 76, 75
2, 1293, Note_on_c, 0, 76, 0
2, 1296, Note_on_c, 0, 84, 75
2, 1341, Note_on_c, 0, 84, 0
2, 1344, Note_on_c, 0, 79, 70
2, 1367, Note_on_c, 0, 79, 0
2, 1368, Note_on_c, 0, 77, 70
2, 1391, Note_on_c, 0, 77, 0
2, 1392, Note_on_c, 0, 86, 70
2, 1415, Note_on_c, 0, 86, 0
2, 1416, Note_on_c, 0, 77, 70
2, 1439, Note_on_c, 0, 77, 0
2, 1440, Note_on_c, 0, 76, 70
2, 1485, Note_on_c, 0, 76, 0
2, 1488, Note_on_c, 0, 84, 70
2, 1533, Note_on_c, 0, 84, 0
2, 1560, Note_on_c, 0, 77, 75
2, 1583, Note_on_c, 0, 77, 0
2, 1584, Note_on_c, 0, 86, 75
2, 1607, Note_on_c, 0, 86, 0
2, 1608, Note_on_c, 0, 77, 75
2, 1631, Note_on_c, 0, 77, 0
2, 1656, Note_on_c, 0, 76, 75
2, 1679, Note_on_c, 0, 76, 0
2, 1680, Note_on_c, 0, 84, 75
2, 1703, Note_on_c, 0, 84, 0
2, 1704, Note_on_c, 0, 76, 75
2, 1727, Note_on_c, 0, 76, 0
2, 1728, Note_on_c, 0, 76, 75
2, 1740, Note_on_c, 0, 76, 0
2, 1740, Note_on_c, 0, 77, 75
2, 1752, Note_on_c, 0, 77, 0
2, 1752, Note_on_c, 0, 76, 75
2, 1773, Note_on_c, 0, 76, 0
2, 1776, Note_on_c, 0, 74, 75
2, 1821, Note_on_c, 0, 74, 0
2, 1872, Note_on_c, 0, 79, 70
2, 1917, Note_on_c, 0, 79, 0
2, 1920, Note_on_c, 0, 79, 70
2, 1943, Note_on_c, 0, 79, 0
2, 1944, Note_on_c, 0, 78, 70
2, 1967, Note_on_c, 0, 78, 0
2, 1968, Note_on_c, 0, 81, 70
2, 1991, Note_on_c, 0, 81, 0
2, 1992, Note_on_c, 0, 79, 70
2, 2015, Note_on_c, 0, 79, 0
2, 2016, Note_on_c, 0, 83, 70
2, 2039, Note_on_c, 0, 83, 0
2, 2040, Note_on_c, 0, 79, 70
2, 2063, Note_on_c, 0, 79, 0
2, 2064, Note_on_c, 0, 78, 70
2, 2087, Note_on_c, 0, 78, 0
2, 2088, Note_on_c, 0, 79, 70
2, 2111, Note_on_c, 0, 79, 0
2, 2112, Note_on_c, 0, 74, 75
2, 2135, Note_on_c, 0, 74, 0
2, 2136, Note_on_c, 0, 79, 75
2, 2159, Note_on_c, 0, 79, 0
2, 2160, Note_on_c, 0, 76, 75
2, 2183, Note_on_c, 0, 76, 0
2, 2184, Note_on_c, 0, 79, 75
2, 2207, Note_on_c, 0, 79, 0
2, 2208, Note_on_c, 0, 74, 75
2, 2253, Note_on_c, 0, 74, 0
2, 2256, Note_on_c, 0, 79, 70
2, 2301, Note_on_c, 0, 79, 0
2, 2304, Note_on_c, 0, 79, 70
2, 2327, Note_on_c, 0, 79, 0
2, 2328, Note_on_c, 0, 78, 70
2, 2351, Note_on_c, 0, 78, 0
2, 2352, Note_on_c, 0, 81, 70
2, 2375, Note_on_c, 0, 81, 0
2, 2376, Note_on_c, 0, 79, 70
2, 2399, Note_on_c, 0, 79, 0
2, 2400, Note_on_c, 0, 83, 70
2, 2423, Note_on_c, 0, 83, 0
2, 2424, Note_on_c, 0, 79, 70
2, 2447, Note_on_c, 0, 79, 0
2, 2448, Note_on_c, 0, 78, 70
2, 2471, Note_on_c, 0, 78, 0
2, 2472, Note_on_c, 0, 79, 70
2, 2495, Note_on_c, 0, 79, 0
2, 2496, Note_on_c, 0, 74, 75
2, 2519, Note_on_c, 0, 74, 0
2, 2520, Note_on_c, 0, 79, 75
2, 2543, Note_on_c, 0, 79, 0
2, 2544, Note_on_c, 0, 72, 75
2, 2567, Note_on_c, 0, 72, 0
2, 2568, Note_on_c, 0, 79, 75
2, 2591, Note_on_c, 0, 79, 0
2, 2592, Note_on_c, 0, 71, 75
2, 2637, Note_on_c, 0, 71, 0
2, 2640, Note_on_c, 0, 74, 75
2, 2663, Note_on_c, 0, 74, 0
2, 2664, Note_on_c, 0, 79, 75
2, 2687, Note_on_c, 0, 79, 0
2, 2688, Note_on_c, 0, 76, 75
2, 2711, Note_on_c, 0, 76, 0
2, 2712, Note_on_c, 0, 79, 76
2, 2735, Note_on_c, 0, 79, 0
2, 2736, Note_on_c, 0, 74, 76
2, 2759, Note_on_c, 0, 74, 0
2, 2760, Note_on_c, 0, 79, 76
2, 2783, Note_on_c, 0, 79, 0
2, 2784, Note_on_c, 0, 72, 76
2, 2807, Note_on_c, 0, 72, 0
2, 2808, Note_on_c, 0, 76, 77
2, 2831, Note_on_c, 0, 76, 0
2, 2832, Note_on_c, 0, 81, 77
2, 2855, Note_on_c, 0, 81, 0
2, 2856, Note_on_c, 0, 79, 77
2, 2879, Note_on_c, 0, 79, 0
2, 2880, Note_on_c, 0, 78, 77
2, 2903, Note_on_c, 0, 78, 0
2, 2904, Note_on_c, 0, 81, 77
2, 2927, Note_on_c, 0, 81, 0
2, 2928, Note_on_c, 0, 76, 78
2, 2951, Note_on_c, 0, 76, 0
2, 2952, Note_on_c, 0, 81, 78
2, 2975, Note_on_c, 0, 81, 0
2, 2976, Note_on_c, 0, 74, 78
2, 2999, Note_on_c, 0, 74, 0
2, 3000, Note_on_c, 0, 78, 78
2, 3023, Note_on_c, 0, 78, 0
2, 3024, Note_on_c, 0, 83, 79
2, 3047, Note_on_c, 0, 83, 0
2, 3048, Note_on_c, 0, 81, 79
2, 3071, Note_on_c, 0, 81, 0
2, 3072, Note_on_c, 0, 79, 79
2, 3095, Note_on_c, 0, 79, 0
2, 3096, Note_on_c, 0, 83, 79
2, 3119, Note_on_c, 0, 83, 0
2, 3120, Note_on_c, 0, 78, 80
2, 3143, Note_on_c, 0, 78, 0
2, 3144, Note_on_c, 0, 83, 80
2, 3167, Note_on_c, 0, 83, 0
2, 3168, Note_on_c, 0, 76, 80
2, 3191, Note_on_c, 0, 76, 0
2, 3192, Note_on_c, 0, 79, 80
2, 3215, Note_on_c, 0, 79, 0
2, 3216, Note_on_c, 0, 84, 80
2, 3239, Note_on_c, 0, 84, 0
2, 3240, Note_on_c, 0, 83, 81
2, 3263, Note_on_c, 0, 83, 0
2, 3264, Note_on_c, 0, 81, 81
2, 3287, Note_on_c, 0, 81, 0
2, 3288, Note_on_c, 0, 84, 81
2, 3311, Note_on_c, 0, 84, 0
2, 3312, Note_on_c, 0, 79, 81
2, 3335, Note_on_c, 0, 79, 0
2, 3336, Note_on_c, 0, 84, 82
2, 3359, Note_on_c, 0, 84, 0
2, 3360, Note_on_c, 0, 78, 82
2, 3383, Note_on_c, 0, 78, 0
2, 3384, Note_on_c, 0, 81, 82
2, 3407, Note_on_c, 0, 81, 0
2, 3408, Note_on_c, 0, 86, 82
2, 3431, Note_on_c, 0, 86, 0
2, 3432, Note_on_c, 0, 84, 83
2, 3455, Note_on_c, 0, 84, 0
2, 3456, Note_on_c, 0, 83, 83
2, 3479, Note_on_c, 0, 83, 0
2, 3480, Note_on_c, 0, 86, 83
2, 3503, Note_on_c, 0, 86, 0
2, 3504, Note_on_c, 0, 79, 83
2, 3527, Note_on_c, 0, 79, 0
2, 3528, Note_on_c, 0, 81, 83
2, 3551, Note_on_c, 0, 81, 0
2, 3552, Note_on_c, 0, 83, 84
2, 3567, Note_on_c, 0, 83, 0
2, 3568, Note_on_c, 0, 81, 84
2, 3583, Note_on_c, 0, 81, 0
2, 3584, Note_on_c, 0, 83, 84
2, 3599, Note_on_c, 0, 83, 0
2, 3600, Note_on_c, 0, 81, 84
2, 3615, Note_on_c, 0, 81, 0
2, 3616, Note_on_c, 0, 79, 84
2, 3631, Note_on_c, 0, 79, 0
2, 3632, Note_on_c, 0, 81, 84
2, 3647, Note_on_c, 0, 81, 0
2, 3648, Note_on_c, 0, 79, 84
2, 3737, Note_on_c, 0, 79, 0
2, 3792, Note_on_c, 0, 74, 70
2, 3792, Note_on_c, 0, 70, 70
2, 3840, Note_on_c, 0, 74, 0
2, 3840, Note_on_c, 0, 70, 0
2, 3840, Note_on_c, 0, 75, 70
2, 3840, Note_on_c, 0, 72, 70
2, 3885, Note_on_c, 0, 75, 0
2, 3885, Note_on_c, 0, 72, 0
2, 3984, Note_on_c, 0, 74, 70
2, 3984, Note_on_c, 0, 70, 70
2, 4032, Note_on_c, 0, 74, 0
2, 4032, Note_on_c, 0, 70, 0
2, 4032, Note_on_c, 0, 72, 70
2, 4032, Note_on_c, 0, 69, 70
2, 4077, Note_on_c, 0, 72, 0
2, 4077, Note_on_c, 0, 69, 0
2, 4176, Note_on_c, 0, 72, 70
2, 4176, Note_on_c, 0, 69, 70
2, 4224, Note_on_c, 0, 72, 0
2, 4224, Note_on_c, 0, 69, 0
2, 4224, Note_on_c, 0, 74, 70
2, 4224, Note_on_c, 0, 70, 70
2, 4269, Note_on_c, 0, 74, 0
2, 4269, Note_on_c, 0, 70, 0
2, 4368, Note_on_c, 0, 72, 70
2, 4368, Note_on_c, 0, 69, 70
2, 4416, Note_on_c, 0, 72, 0
2, 4416, Note_on_c, 0, 69, 0
2, 4416, Note_on_c, 0, 70, 70
2, 4416, Note_on_c, 0, 67, 70
2, 4461, Note_on_c, 0, 70, 0
2, 4461, Note_on_c, 0, 67, 0
2, 4560, Note_on_c, 0, 69, 70
2, 4560, Note_on_c, 0, 66, 70
2, 4608, Note_on_c, 0, 69, 0
2, 4608, Note_on_c, 0, 66, 0
2, 4608, Note_on_c, 0, 70, 69
2, 4608, Note_on_c, 0, 67, 69
2, 4653, Note_on_c, 0, 70, 0
2, 4653, Note_on_c, 0, 67, 0
2, 4752, Note_on_c, 0, 70, 66
2, 4752, Note_on_c, 0, 67, 66
2, 4797, Note_on_c, 0, 70, 0
2, 4797, Note_on_c, 0, 67, 0
2, 4800, Note_on_c, 0, 70, 65
2, 4812, Note_on_c, 0, 70, 0
2, 4812, Note_on_c, 0, 72, 65
2, 4824, Note_on_c, 0, 72, 0
2, 4824, Note_on_c, 0, 70, 65
2, 4845, Note_on_c, 0, 70, 0
2, 4848, Note_on_c, 0, 69, 64
2, 4893, Note_on_c, 0, 69, 0
2, 4944, Note_on_c, 0, 79, 75
2, 4959, Note_on_c, 0, 79, 0
2, 4960, Note_on_c, 0, 81, 75
2, 4975, Note_on_c, 0, 81, 0
2, 4976, Note_on_c, 0, 83, 75
2, 4991, Note_on_c, 0, 83, 0
2, 4992, Note_on_c, 0, 79, 75
2, 5037, Note_on_c, 0, 79, 0
2, 5040, Note_on_c, 0, 74, 75
2, 5055, Note_on_c, 0, 74, 0
2, 5056, Note_on_c, 0, 76, 75
2, 5071, Note_on_c, 0, 76, 0
2, 5072, Note_on_c, 0, 78, 75
2, 5087, Note_on_c, 0, 78, 0
2, 5088, Note_on_c, 0, 79, 75
2, 5133, Note_on_c, 0, 79, 0
2, 5136, Note_on_c, 0, 71, 75
2, 5151, Note_on_c, 0, 71, 0
2, 5152, Note_on_c, 0, 72, 75
2, 5167, Note_on_c, 0, 72, 0
2, 5168, Note_on_c, 0, 74, 75
2, 5183, Note_on_c, 0, 74, 0
2, 5184, Note_on_c, 0, 71, 75
2, 5229, Note_on_c, 0, 71, 0
2, 5232, Note_on_c, 0, 67, 75
2, 5247, Note_on_c, 0, 67, 0
2, 5248, Note_on_c, 0, 69, 75
2, 5263, Note_on_c, 0, 69, 0
2, 5264, Note_on_c, 0, 71, 75
2, 5279, Note_on_c, 0, 71, 0
2, 5280, Note_on_c, 0, 67, 75
2, 5325, Note_on_c, 0, 67, 0
2, 5328, Note_on_c, 0, 74, 75
2, 5373, Note_on_c, 0, 74, 0
2, 5376, Note_on_c, 0, 64, 75
2, 5421, Note_on_c, 0, 64, 0
2, 5424, Note_on_c, 0, 72, 75
2, 5439, Note_on_c, 0, 72, 0
2, 5440, Note_on_c, 0, 71, 75
2, 5455, Note_on_c, 0, 71, 0
2, 5456, Note_on_c, 0, 69, 75
2, 5471, Note_on_c, 0, 69, 0
2, 5472, Note_on_c, 0, 67, 75
2, 5517, Note_on_c, 0, 67, 0
2, 5520, Note_on_c, 0, 66, 75
2, 5532, Note_on_c, 0, 66, 0
2, 5532, Note_on_c, 0, 67, 75
2, 5544, Note_on_c, 0, 67, 0
2, 5544, Note_on_c, 0, 66, 75
2, 5565, Note_on_c, 0, 66, 0
2, 5568, Note_on_c, 0, 67, 75
2, 5657, Note_on_c, 0, 67, 0
2, 5712, Note_on_c, 0, 79, 75
2, 5727, Note_on_c, 0, 79, 0
2, 5728, Note_on_c, 0, 81, 75
2, 5743, Note_on_c, 0, 81, 0
2, 5744, Note_on_c, 0, 83, 75
2, 5759, Note_on_c, 0, 83, 0
2, 5760, Note_on_c, 0, 79, 75
2, 5805, Note_on_c, 0, 79, 0
2, 5808, Note_on_c, 0, 74, 75
2, 5823, Note_on_c, 0, 74, 0
2, 5824, Note_on_c, 0, 76, 75
2, 5839, Note_on_c, 0, 76, 0
2, 5840, Note_on_c, 0, 78, 75
2, 5855, Note_on_c, 0, 78, 0
2, 5856, Note_on_c, 0, 79, 75
2, 5901, Note_on_c, 0, 79, 0
2, 5904, Note_on_c, 0, 71, 75
2, 5919, Note_on_c, 0, 71, 0
2, 5920, Note_on_c, 0, 72, 75
2, 5935, Note_on_c, 0, 72, 0
2, 5936, Note_on_c, 0, 74, 75
2, 5951, Note_on_c, 0, 74, 0
2, 5952, Note_on_c, 0, 71, 75
2, 5997, Note_on_c, 0, 71, 0
2, 6000, Note_on_c, 0, 74, 80
2, 6023, Note_on_c, 0, 74, 0
2, 6024, Note_on_c, 0, 86, 80
2, 6047, Note_on_c, 0, 86, 0
2, 6048, Note_on_c, 0, 74, 80
2, 6071, Note_on_c, 0, 74, 0
2, 6072, Note_on_c, 0, 86, 80
2, 6095, Note_on_c, 0, 86, 0
2, 6096, Note_on_c, 0, 74, 80
2, 6119, Note_on_c, 0, 74, 0
2, 6120, Note_on_c, 0, 86, 80
2, 6143, Note_on_c, 0, 86, 0
2, 6144, Note_on_c, 0, 76, 80
2, 6167, Note_on_c, 0, 76, 0
2, 6168, Note_on_c, 0, 86, 80
2, 6191, Note_on_c, 0, 86, 0
2, 6192, Note_on_c, 0, 76, 80
2, 6215, Note_on_c, 0, 76, 0
2, 6216, Note_on_c, 0, 86, 80
2, 6239, Note_on_c, 0, 86, 0
2, 6240, Note_on_c, 0, 76, 80
2, 6263, Note_on_c, 0, 76, 0
2, 6264, Note_on_c, 0, 84, 80
2, 6287, Note_on_c, 0, 84, 0
2, 6288, Note_on_c, 0, 76, 80
2, 6311, Note_on_c, 0, 76, 0
2, 6312, Note_on_c, 0, 84, 80
2, 6335, Note_on_c, 0, 84, 0
2, 6336, Note_on_c, 0, 74, 80
2, 6359, Note_on_c, 0, 74, 0
2, 6360, Note_on_c, 0, 84, 80
2, 6383, Note_on_c, 0, 84, 0
2, 6384, Note_on_c, 0, 74, 80
2, 6407, Note_on_c, 0, 74, 0
2, 6408, Note_on_c, 0, 84, 80
2, 6431, Note_on_c, 0, 84, 0
2, 6432, Note_on_c, 0, 74, 80
2, 6455, Note_on_c, 0, 74, 0
2, 6456, Note_on_c, 0, 83, 80
2, 6479, Note_on_c, 0, 83, 0
2, 6480, Note_on_c, 0, 74, 80
2, 6503, Note_on_c, 0, 74, 0
2, 6504, Note_on_c, 0, 83, 80
2, 6527, Note_on_c, 0, 83, 0
2, 6528, Note_on_c, 0, 72, 80
2, 6551, Note_on_c, 0, 72, 0
2, 6552, Note_on_c, 0, 81, 80
2, 6575, Note_on_c, 0, 81, 0
2, 6576, Note_on_c, 0, 72, 80
2, 6599, Note_on_c, 0, 72, 0
2, 6600, Note_on_c, 0, 81, 80
2, 6623, Note_on_c, 0, 81, 0
2, 6624, Note_on_c, 0, 69, 80
2, 6647, Note_on_c, 0, 69, 0
2, 6648, Note_on_c, 0, 78, 80
2, 6671, Note_on_c, 0, 78, 0
2, 6672, Note_on_c, 0, 69, 80
2, 6695, Note_on_c, 0, 69, 0
2, 6696, Note_on_c, 0, 78, 80
2, 6719, Note_on_c, 0, 78, 0
2, 6720, Note_on_c, 0, 79, 80
2, 6720, Note_on_c, 0, 71, 80
2, 6809, Note_on_c, 0, 79, 0
2, 6809, Note_on_c, 0, 71, 0
2, 6960, Note_on_c, 0, 72, 75
2, 7005, Note_on_c, 0, 72, 0
2, 7008, Note_on_c, 0, 76, 75
2, 7031, Note_on_c, 0, 76, 0
2, 7032, Note_on_c, 0, 72, 75
2, 7055, Note_on_c, 0, 72, 0
2, 7056, Note_on_c, 0, 79, 76
2, 7079, Note_on_c, 0, 79, 0
2, 7080, Note_on_c, 0, 76, 77
2, 7103, Note_on_c, 0, 76, 0
2, 7104, Note_on_c, 0, 84, 77
2, 7171, Note_on_c, 0, 84, 0
2, 7176, Note_on_c, 0, 79, 80
2, 7199, Note_on_c, 0, 79, 0
2, 7200, Note_on_c, 0, 81, 79
2, 7215, Note_on_c, 0, 81, 0
2, 7216, Note_on_c, 0, 79, 78
2, 7231, Note_on_c, 0, 79, 0
2, 7232, Note_on_c, 0, 81, 78
2, 7247, Note_on_c, 0, 81, 0
2, 7248, Note_on_c, 0, 79, 77
2, 7263, Note_on_c, 0, 79, 0
2, 7264, Note_on_c, 0, 81, 77
2, 7279, Note_on_c, 0, 81, 0
2, 7280, Note_on_c, 0, 79, 76
2, 7295, Note_on_c, 0, 79, 0
2, 7344, Note_on_c, 0, 72, 75
2, 7389, Note_on_c, 0, 72, 0
2, 7392, Note_on_c, 0, 77, 77
2, 7415, Note_on_c, 0, 77, 0
2, 7416, Note_on_c, 0, 72, 78
2, 7439, Note_on_c, 0, 72, 0
2, 7440, Note_on_c, 0, 81, 79
2, 7463, Note_on_c, 0, 81, 0
2, 7464, Note_on_c, 0, 77, 80
2, 7487, Note_on_c, 0, 77, 0
2, 7488, Note_on_c, 0, 84, 79
2, 7555, Note_on_c, 0, 84, 0
2, 7560, Note_on_c, 0, 81, 76
2, 7583, Note_on_c, 0, 81, 0
2, 7584, Note_on_c, 0, 83, 75
2, 7599, Note_on_c, 0, 83, 0
2, 7600, Note_on_c, 0, 81, 75
2, 7615, Note_on_c, 0, 81, 0
2, 7616, Note_on_c, 0, 83, 75
2, 7631, Note_on_c, 0, 83, 0
2, 7632, Note_on_c, 0, 81, 75
2, 7647, Note_on_c, 0, 81, 0
2, 7648, Note_on_c, 0, 83, 75
2, 7663, Note_on_c, 0, 83, 0
2, 7664, Note_on_c, 0, 81, 75
2, 7679, Note_on_c, 0, 81, 0
2, 7728, Note_on_c, 0, 72, 75
2, 7773, Note_on_c, 0, 72, 0
2, 7776, Note_on_c, 0, 76, 76
2, 7799, Note_on_c, 0, 76, 0
2, 7800, Note_on_c, 0, 72, 76
2, 7823, Note_on_c, 0, 72, 0
2, 7824, Note_on_c, 0, 79, 77
2, 7847, Note_on_c, 0, 79, 0
2, 7848, Note_on_c, 0, 76, 77
2, 7871, Note_on_c, 0, 76, 0
2, 7872, Note_on_c, 0, 84, 78
2, 7939, Note_on_c, 0, 84, 0
2, 7944, Note_on_c, 0, 79, 80
2, 7967, Note_on_c, 0, 79, 0
2, 7968, Note_on_c, 0, 81, 79
2, 7983, Note_on_c, 0, 81, 0
2, 7984, Note_on_c, 0, 79, 78
2, 7999, Note_on_c, 0, 79, 0
2, 8000, Note_on_c, 0, 81, 78
2, 8015, Note_on_c, 0, 81, 0
2, 8016, Note_on_c, 0, 79, 77
2, 8031, Note_on_c, 0, 79, 0
2, 8032, Note_on_c, 0, 81, 77
2, 8047, Note_on_c, 0, 81, 0
2, 8048, Note_on_c, 0, 79, 76
2, 8063, Note_on_c, 0, 79, 0
2, 8064, Note_on_c, 0, 79, 75
2, 8087, Note_on_c, 0, 79, 0
2, 8088, Note_on_c, 0, 77, 75
2, 8111, Note_on_c, 0, 77, 0
2, 8112, Note_on_c, 0, 86, 75
2, 8135, Note_on_c, 0, 86, 0
2, 8136, Note_on_c, 0, 77, 75
2, 8159, Note_on_c, 0, 77, 0
2, 8160, Note_on_c, 0, 76, 75
2, 8205, Note_on_c, 0, 76, 0
2, 8208, Note_on_c, 0, 84, 75
2, 8253, Note_on_c, 0, 84, 0
2, 8256, Note_on_c, 0, 79, 70
2, 8279, Note_on_c, 0, 79, 0
2, 8280, Note_on_c, 0, 77, 70
2, 8303, Note_on_c, 0, 77, 0
2, 8304, Note_on_c, 0, 86, 70
2, 8327, Note_on_c, 0, 86, 0
2, 8328, Note_on_c, 0, 77, 70
2, 8351, Note_on_c, 0, 77, 0
2, 8352, Note_on_c, 0, 76, 70
2, 8397, Note_on_c, 0, 76, 0
2, 8400, Note_on_c, 0, 84, 70
2, 8445, Note_on_c, 0, 84, 0
2, 8472, Note_on_c, 0, 77, 75
2, 8495, Note_on_c, 0, 77, 0
2, 8496, Note_on_c, 0, 86, 75
2, 8519, Note_on_c, 0, 86, 0
2, 8520, Note_on_c, 0, 77, 75
2, 8543, Note_on_c, 0, 77, 0
2, 8568, Note_on_c, 0, 76, 75
2, 8591, Note_on_c, 0, 76, 0
2, 8592, Note_on_c, 0, 84, 75
2, 8615, Note_on_c, 0, 84, 0
2, 8616, Note_on_c, 0, 76, 75
2, 8639, Note_on_c, 0, 76, 0
2, 8640, Note_on_c, 0, 76, 75
2, 8652, Note_on_c, 0, 76, 0
2, 8652, Note_on_c, 0, 77, 75
2, 8664, Note_on_c, 0, 77, 0
2, 8664, Note_on_c, 0, 76, 75
2, 8685, Note_on_c, 0, 76, 0
2, 8688, Note_on_c, 0, 74, 75
2, 8733, Note_on_c, 0, 74, 0
2, 8784, Note_on_c, 0, 79, 70
2, 8829, Note_on_c, 0, 79, 0
2, 8832, Note_on_c, 0, 79, 70
2, 8855, Note_on_c, 0, 79, 0
2, 8856, Note_on_c, 0, 78, 70
2, 8879, Note_on_c, 0, 78, 0
2, 8880, Note_on_c, 0, 81, 70
2, 8903, Note_on_c, 0, 81, 0
2, 8904, Note_on_c, 0, 79, 70
2, 8927, Note_on_c, 0, 79, 0
2, 8928, Note_on_c, 0, 83, 70
2, 8951, Note_on_c, 0, 83, 0
2, 8952, Note_on_c, 0, 79, 70
2, 8975, Note_on_c, 0, 79, 0
2, 8976, Note_on_c, 0, 78, 70
2, 8999, Note_on_c, 0, 78, 0
2, 9000, Note_on_c, 0, 79, 70
2, 9023, Note_on_c, 0, 79, 0
2, 9024, Note_on_c, 0, 74, 75
2, 9047, Note_on_c, 0, 74, 0
2, 9048, Note_on_c, 0, 79, 75
2, 9071, Note_on_c, 0, 79, 0
2, 9072, Note_on_c, 0, 76, 75
2, 9095, Note_on_c, 0, 76, 0
2, 9096, Note_on_c, 0, 79, 75
2, 9119, Note_on_c, 0, 79, 0
2, 9120, Note_on_c, 0, 74, 75
2, 9165, Note_on_c, 0, 74, 0
2, 9168, Note_on_c, 0, 79, 70
2, 9213, Note_on_c, 0, 79, 0
2, 9216, Note_on_c, 0, 79, 70
2, 9239, Note_on_c, 0, 79, 0
2, 9240, Note_on_c, 0, 78, 70
2, 9263, Note_on_c, 0, 78, 0
2, 9264, Note_on_c, 0, 81, 70
2, 9287, Note_on_c, 0, 81, 0
2, 9288, Note_on_c, 0, 79, 70
2, 9311, Note_on_c, 0, 79, 0
2, 9312, Note_on_c, 0, 83, 70
2, 9335, Note_on_c, 0, 83, 0
2, 9336, Note_on_c, 0, 79, 70
2, 9359, Note_on_c, 0, 79, 0
2, 9360, Note_on_c, 0, 78, 70
2, 9383, Note_on_c, 0, 78, 0
2, 9384, Note_on_c, 0, 79, 70
2, 9407, Note_on_c, 0, 79, 0
2, 9408, Note_on_c, 0, 74, 75
2, 9431, Note_on_c, 0, 74, 0
2, 9432, Note_on_c, 0, 79, 75
2, 9455, Note_on_c, 0, 79, 0
2, 9456, Note_on_c, 0, 72, 75
2, 9479, Note_on_c, 0, 72, 0
2, 9480, Note_on_c, 0, 79, 75
2, 9503, Note_on_c, 0, 79, 0
2, 9504, Note_on_c, 0, 71, 75
2, 9549, Note_on_c, 0, 71, 0
2, 9552, Note_on_c, 0, 74, 75
2, 9575, Note_on_c, 0, 74, 0
2, 9576, Note_on_c, 0, 79, 75
2, 9599, Note_on_c, 0, 79, 0
2, 9600, Note_on_c, 0, 76, 75
2, 9623, Note_on_c, 0, 76, 0
2, 9624, Note_on_c, 0, 79, 76
2, 9647, Note_on_c, 0, 79, 0
2, 9648, Note_on_c, 0, 74, 76
2, 9671, Note_on_c, 0, 74, 0
2, 9672, Note_on_c, 0, 79, 76
2, 9695, Note_on_c, 0, 79, 0
2, 9696, Note_on_c, 0, 72, 76
2, 9719, Note_on_c, 0, 72, 0
2, 9720, Note_on_c, 0, 76, 77
2, 9743, Note_on_c, 0, 76, 0
2, 9744, Note_on_c, 0, 81, 77
2, 9767, Note_on_c, 0, 81, 0
2, 9768, Note_on_c, 0, 79, 77
2, 9791, Note_on_c, 0, 79, 0
2, 9792, Note_on_c, 0, 78, 77
2, 9815, Note_on_c, 0, 78, 0
2, 9816, Note_on_c, 0, 81, 77
2, 9839, Note_on_c, 0, 81, 0
2, 9840, Note_on_c, 0, 76, 78
2, 9863, Note_on_c, 0, 76, 0
2, 9864, Note_on_c, 0, 81, 78
2, 9887, Note_on_c, 0, 81, 0
2, 9888, Note_on_c, 0, 74, 78
2, 9911, Note_on_c, 0, 74, 0
2, 9912, Note_on_c, 0, 78, 78
2, 9935, Note_on_c, 0, 78, 0
2, 9936, Note_on_c, 0, 83, 79
2, 9959, Note_on_c, 0, 83, 0
2, 9960, Note_on_c, 0, 81, 79
2, 9983, Note_on_c, 0, 81, 0
2, 9984, Note_on_c, 0, 79, 79
2, 10007, Note_on_c, 0, 79, 0
2, 10008, Note_on_c, 0, 83, 79
2, 10031, Note_on_c, 0, 83, 0
2, 10032, Note_on_c, 0, 78, 80
2, 10055, Note_on_c, 0, 78, 0
2, 10056, Note_on_c, 0, 83, 80
2, 10079, Note_on_c, 0, 83, 0
2, 10080, Note_on_c, 0, 76, 80
2, 10103, Note_on_c, 0, 76, 0
2, 10104, Note_on_c, 0, 79, 80
2, 10127, Note_on_c, 0, 79, 0
2, 10128, Note_on_c, 0, 84, 80
2, 10151, Note_on_c, 0, 84, 0
2, 10152, Note_on_c, 0, 83, 81
2, 10175, Note_on_c, 0, 83, 0
2, 10176, Note_on_c, 0, 81, 81
2, 10199, Note_on_c, 0, 81, 0
2, 10200, Note_on_c, 0, 84, 81
2, 10223, Note_on_c, 0, 84, 0
2, 10224, Note_on_c, 0, 79, 81
2, 10247, Note_on_c, 0, 79, 0
2, 10248, Note_on_c, 0, 84, 82
2, 10271, Note_on_c, 0, 84, 0
2, 10272, Note_on_c, 0, 78, 82
2, 10295, Note_on_c, 0, 78, 0
2, 10296, Note_on_c, 0, 81, 82
2, 10319, Note_on_c, 0, 81, 0
2, 10320, Note_on_c, 0, 86, 82
2, 10343, Note_on_c, 0, 86, 0
2, 10344, Note_on_c, 0, 84, 83
2, 10367, Note_on_c, 0, 84, 0
2, 10368, Note_on_c, 0, 83, 83
2, 10391, Note_on_c, 0, 83, 0
2, 10392, Note_on_c, 0, 86, 83
2, 10415, Note_on_c, 0, 86, 0
2, 10416, Note_on_c, 0, 79, 83
2, 10439, Note_on_c, 0, 79, 0
2, 10440, Note_on_c, 0, 81, 83
2, 10463, Note_on_c, 0, 81, 0
2, 10464, Note_on_c, 0, 83, 84
2, 10479, Note_on_c, 0, 83, 0
2, 10480, Note_on_c, 0, 81, 84
2, 10495, Note_on_c, 0, 81, 0
2, 10496, Note_on_c, 0, 83, 84
2, 10511, Note_on_c, 0, 83, 0
2, 10512, Note_on_c, 0, 81, 84
2, 10527, Note_on_c, 0, 81, 0
2, 10528, Note_on_c, 0, 79, 84
2, 10543, Note_on_c, 0, 79, 0
2, 10544, Note_on_c, 0, 81, 84
2, 10559, Note_on_c, 0, 81, 0
2, 10560, Note_on_c, 0, 79, 84
2, 10649, Note_on_c, 0, 79, 0
2, 10704, Note_on_c, 0, 74, 70
2, 10704, Note_on_c, 0, 70, 70
2, 10752, Note_on_c, 0, 74, 0
2, 10752, Note_on_c, 0, 70, 0
2, 10752, Note_on_c, 0, 75, 70
2, 10752, Note_on_c, 0, 72, 70
2, 10797, Note_on_c, 0, 75, 0
2, 10797, Note_on_c, 0, 72, 0
2, 10896, Note_on_c, 0, 74, 70
2, 10896, Note_on_c, 0, 70, 70
2, 10944, Note_on_c, 0, 74, 0
2, 10944, Note_on_c, 0, 70, 0
2, 10944, Note_on_c, 0, 72, 70
2, 10944, Note_on_c, 0, 69, 70
2, 10989, Note_on_c, 0, 72, 0
2, 10989, Note_on_c, 0, 69, 0
2, 11088, Note_on_c, 0, 72, 70
2, 11088, Note_on_c, 0, 69, 70
2, 11136, Note_on_c, 0, 72, 0
2, 11136, Note_on_c, 0, 69, 0
2, 11136, Note_on_c, 0, 74, 70
2, 11136, Note_on_c, 0, 70, 70
2, 11181, Note_on_c, 0, 74, 0
2, 11181, Note_on_c, 0, 70, 0
2, 11280, Note_on_c, 0, 72, 70
2, 11280, Note_on_c, 0, 69, 70
2, 11328, Note_on_c, 0, 72, 0
2, 11328, Note_on_c, 0, 69, 0
2, 11328, Note_on_c, 0, 70, 70
2, 11328, Note_on_c, 0, 67, 70
2, 11373, Note_on_c, 0, 70, 0
2, 11373, Note_on_c, 0, 67, 0
2, 11472, Note_on_c, 0, 69, 70
2, 11472, Note_on_c, 0, 66, 70
2, 11520, Note_on_c, 0, 69, 0
2, 11520, Note_on_c, 0, 66, 0
2, 11520, Note_on_c, 0, 70, 69
2, 11520, Note_on_c, 0, 67, 69
2, 11565, Note_on_c, 0, 70, 0
2, 11565, Note_on_c, 0, 67, 0
2, 11664, Note_on_c, 0, 70, 66
2, 11664, Note_on_c, 0, 67, 66
2, 11709, Note_on_c, 0, 70, 0
2, 11709, Note_on_c, 0, 67, 0
2, 11712, Note_on_c, 0, 70, 65
2, 11724, Note_on_c, 0, 70, 0
2, 11724, Note_on_c, 0, 72, 65
2, 11736, Note_on_c, 0, 72, 0
2, 11736, Note_on_c, 0, 70, 65
2, 11757, Note_on_c, 0, 70, 0
2, 11760, Note_on_c, 0, 69, 64
2, 11805, Note_on_c, 0, 69, 0
2, 11856, Note_on_c, 0, 79, 75
2, 11871, Note_on_c, 0, 79, 0
2, 11872, Note_on_c, 0, 81, 75
2, 11887, Note_on_c, 0, 81, 0
2, 11888, Note_on_c, 0, 83, 75
2, 11903, Note_on_c, 0, 83, 0
2, 11904, Note_on_c, 0, 79, 75
2, 11949, Note_on_c, 0, 79, 0
2, 11952, Note_on_c, 0, 74, 75
2, 11967, Note_on_c, 0, 74, 0
2, 11968, Note_on_c, 0, 76, 75
2, 11983, Note_on_c, 0, 76, 0
2, 11984, Note_on_c, 0, 78, 75
2, 11999, Note_on_c, 0, 78, 0
2, 12000, Note_on_c, 0, 79, 75
2, 12045, Note_on_c, 0, 79, 0
2, 12048, Note_on_c, 0, 71, 75
2, 12063, Note_on_c, 0, 71, 0
2, 12064, Note_on_c, 0, 72, 75
2, 12079, Note_on_c, 0, 72, 0
2, 12080, Note_on_c, 0, 74, 75
2, 12095, Note_on_c, 0, 74, 0
2, 12096, Note_on_c, 0, 71, 75
2, 12141, Note_on_c, 0, 71, 0
2, 12144, Note_on_c, 0, 67, 75
2, 12159, Note_on_c, 0, 67, 0
2, 12160, Note_on_c, 0, 69, 75
2, 12175, Note_on_c, 0, 69, 0
2, 12176, Note_on_c, 0, 71, 75
2, 12191, Note_on_c, 0, 71, 0
2, 12192, Note_on_c, 0, 67, 75
2, 12237, Note_on_c, 0, 67, 0
2, 12240, Note_on_c, 0, 74, 75
2, 12285, Note_on_c, 0, 74, 0
2, 12288, Note_on_c, 0, 64, 75
2, 12333, Note_on_c, 0, 64, 0
2, 12336, Note_on_c, 0, 72, 75
2, 12351, Note_on_c, 0, 72, 0
2, 12352, Note_on_c, 0, 71, 75
2, 12367, Note_on_c, 0, 71, 0
2, 12368, Note_on_c, 0, 69, 75
2, 12383, Note_on_c, 0, 69, 0
2, 12384, Note_on_c, 0, 67, 75
2, 12429, Note_on_c, 0, 67, 0
2, 12432, Note_on_c, 0, 66, 75
2, 12444, Note_on_c, 0, 66, 0
2, 12444, Note_on_c, 0, 67, 75
2, 12456, Note_on_c, 0, 67, 0
2, 12456, Note_on_c, 0, 66, 75
2, 12477, Note_on_c, 0, 66, 0
2, 12480, Note_on_c, 0, 67, 75
2, 12569, Note_on_c, 0, 67, 0
2, 12624, Note_on_c, 0, 79, 75
2, 12639, Note_on_c, 0, 79, 0
2, 12640, Note_on_c, 0, 81, 75
2, 12655, Note_on_c, 0, 81, 0
2, 12656, Note_on_c, 0, 83, 75
2, 12671, Note_on_c, 0, 83, 0
2, 12672, Note_on_c, 0, 79, 75
2, 12717, Note_on_c, 0, 79, 0
2, 12720, Note_on_c, 0, 74, 75
2, 12735, Note_on_c, 0, 74, 0
2, 12736, Note_on_c, 0, 76, 75
2, 12751, Note_on_c, 0, 76, 0
2, 12752, Note_on_c, 0, 78, 75
2, 12767, Note_on_c, 0, 78, 0
2, 12768, Note_on_c, 0, 79, 75
2, 12813, Note_on_c, 0, 79, 0
2, 12816, Note_on_c, 0, 71, 75
2, 12831, Note_on_c, 0, 71, 0
2, 12832, Note_on_c, 0, 72, 75
2, 12847, Note_on_c, 0, 72, 0
2, 12848, Note_on_c, 0, 74, 75
2, 12863, Note_on_c, 0, 74, 0
2, 12864, Note_on_c, 0, 71, 75
2, 12909, Note_on_c, 0, 71, 0
2, 12912, Note_on_c, 0, 74, 80
2, 12935, Note_on_c, 0, 74, 0
2, 12936, Note_on_c, 0, 86, 80
2, 12959, Note_on_c, 0, 86, 0
2, 12960, Note_on_c, 0, 74, 80
2, 12983, Note_on_c, 0, 74, 0
2, 12984, Note_on_c, 0, 86, 80
2, 13007, Note_on_c, 0, 86, 0
2, 13008, Note_on_c, 0, 74, 80
2, 13031, Note_on_c, 0, 74, 0
2, 13032, Note_on_c, 0, 86, 80
2, 13055, Note_on_c, 0, 86, 0
2, 13056, Note_on_c, 0, 76, 80
2, 13079, Note_on_c, 0, 76, 0
2, 13080, Note_on_c, 0, 86, 80
2, 13103, Note_on_c, 0, 86, 0
2, 13104, Note_on_c, 0, 76, 80
2, 13127, Note_on_c, 0, 76, 0
2, 13128, Note_on_c, 0, 86, 80
2, 13151, Note_on_c, 0, 86, 0
2, 13152, Note_on_c, 0, 76, 80
2, 13175, Note_on_c, 0, 76, 0
2, 13176, Note_on_c, 0, 84, 80
2, 13199, Note_on_c, 0, 84, 0
2, 13200, Note_on_c, 0, 76, 80
2, 13223, Note_on_c, 0, 76, 0
2, 13224, Note_on_c, 0, 84, 80
2, 13247, Note_on_c, 0, 84, 0
2, 13248, Note_on_c, 0, 74, 80
2, 13271, Note_on_c, 0, 74, 0
2, 13272, Note_on_c, 0, 84, 80
2, 13295, Note_on_c, 0, 84, 0
2, 13296, Note_on_c, 0, 74, 80
2, 13319, Note_on_c, 0, 74, 0
2, 13320, Note_on_c, 0, 84, 80
2, 13343, Note_on_c, 0, 84, 0
2, 13344, Note_on_c, 0, 74, 80
2, 13367, Note_on_c, 0, 74, 0
2, 13368, Note_on_c, 0, 83, 80
2, 13391, Note_on_c, 0, 83, 0
2, 13392, Note_on_c, 0, 74, 80
2, 13415, Note_on_c, 0, 74, 0
2, 13416, Note_on_c, 0, 83, 80
2, 13439, Note_on_c, 0, 83, 0
2, 13440, Note_on_c, 0, 72, 80
2, 13463, Note_on_c, 0, 72, 0
2, 13464, Note_on_c, 0, 81, 80
2, 13487, Note_on_c, 0, 81, 0
2, 13488, Note_on_c, 0, 72, 80
2, 13511, Note_on_c, 0, 72, 0
2, 13512, Note_on_c, 0, 81, 80
2, 13535, Note_on_c, 0, 81, 0
2, 13536, Note_on_c, 0, 69, 80
2, 13559, Note_on_c, 0, 69, 0
2, 13560, Note_on_c, 0, 78, 80
2, 13583, Note_on_c, 0, 78, 0
2, 13584, Note_on_c, 0, 69, 80
2, 13607, Note_on_c, 0, 69, 0
2, 13608, Note_on_c, 0, 78, 80
2, 13631, Note_on_c, 0, 78, 0
2, 13632, Note_on_c, 0, 79, 80
2, 13632, Note_on_c, 0, 71, 80
2, 13721, Note_on_c, 0, 79, 0
2, 13721, Note_on_c, 0, 71, 0
2, 13872, Note_on_c, 0, 67, 75
2, 13917, Note_on_c, 0, 67, 0
2, 13920, Note_on_c, 0, 71, 75
2, 13943, Note_on_c, 0, 71, 0
2, 13944, Note_on_c, 0, 67, 76
2, 13967, Note_on_c, 0, 67, 0
2, 13968, Note_on_c, 0, 74, 76
2, 13991, Note_on_c, 0, 74, 0
2, 13992, Note_on_c, 0, 71, 76
2, 14015, Note_on_c, 0, 71, 0
2, 14016, Note_on_c, 0, 77, 77
2, 14083, Note_on_c, 0, 77, 0
2, 14088, Note_on_c, 0, 74, 78
2, 14111, Note_on_c, 0, 74, 0
2, 14112, Note_on_c, 0, 76, 78
2, 14127, Note_on_c, 0, 76, 0
2, 14128, Note_on_c, 0, 74, 75
2, 14143, Note_on_c, 0, 74, 0
2, 14144, Note_on_c, 0, 76, 75
2, 14159, Note_on_c, 0, 76, 0
2, 14160, Note_on_c, 0, 74, 75
2, 14175, Note_on_c, 0, 74, 0
2, 14176, Note_on_c, 0, 72, 75
2, 14191, Note_on_c, 0, 72, 0
2, 14192, Note_on_c, 0, 74, 75
2, 14207, Note_on_c, 0, 74, 0
2, 14208, Note_on_c, 0, 86, 75
2, 14231, Note_on_c, 0, 86, 0
2, 14232, Note_on_c, 0, 84, 75
2, 14255, Note_on_c, 0, 84, 0
2, 14256, Note_on_c, 0, 83, 75
2, 14279, Note_on_c, 0, 83, 0
2, 14280, Note_on_c, 0, 81, 75
2, 14303, Note_on_c, 0, 81, 0
2, 14304, Note_on_c, 0, 79, 75
2, 14327, Note_on_c, 0, 79, 0
2, 14328, Note_on_c, 0, 77, 75
2, 14351, Note_on_c, 0, 77, 0
2, 14352, Note_on_c, 0, 76, 75
2, 14375, Note_on_c, 0, 76, 0
2, 14376, Note_on_c, 0, 74, 75
2, 14399, Note_on_c, 0, 74, 0
2, 14400, Note_on_c, 0, 76, 75
2, 14445, Note_on_c, 0, 76, 0
2, 14448, Note_on_c, 0, 67, 75
2, 14493, Note_on_c, 0, 67, 0
2, 14496, Note_on_c, 0, 72, 75
2, 14519, Note_on_c, 0, 72, 0
2, 14520, Note_on_c, 0, 67, 75
2, 14543, Note_on_c, 0, 67, 0
2, 14544, Note_on_c, 0, 76, 75
2, 14567, Note_on_c, 0, 76, 0
2, 14568, Note_on_c, 0, 72, 75
2, 14591, Note_on_c, 0, 72, 0
2, 14592, Note_on_c, 0, 79, 75
2, 14659, Note_on_c, 0, 79, 0
2, 14664, Note_on_c, 0, 76, 75
2, 14687, Note_on_c, 0, 76, 0
2, 14688, Note_on_c, 0, 77, 75
2, 14703, Note_on_c, 0, 77, 0
2, 14704, Note_on_c, 0, 76, 75
2, 14719, Note_on_c, 0, 76, 0
2, 14720, Note_on_c, 0, 77, 75
2, 14735, Note_on_c, 0, 77, 0
2, 14736, Note_on_c, 0, 76, 75
2, 14751, Note_on_c, 0, 76, 0
2, 14752, Note_on_c, 0, 74, 75
2, 14767, Note_on_c, 0, 74, 0
2, 14768, Note_on_c, 0, 76, 75
2, 14783, Note_on_c, 0, 76, 0
2, 14784, Note_on_c, 0, 84, 75
2, 14807, Note_on_c, 0, 84, 0
2, 14808, Note_on_c, 0, 83, 75
2, 14831, Note_on_c, 0, 83, 0
2, 14832, Note_on_c, 0, 81, 75
2, 14855, Note_on_c, 0, 81, 0
2, 14856, Note_on_c, 0, 79, 75
2, 14879, Note_on_c, 0, 79, 0
2, 14880, Note_on_c, 0, 77, 75
2, 14903, Note_on_c, 0, 77, 0
2, 14904, Note_on_c, 0, 76, 75
2, 14927, Note_on_c, 0, 76, 0
2, 14928, Note_on_c, 0, 74, 75
2, 14951, Note_on_c, 0, 74, 0
2, 14952, Note_on_c, 0, 72, 75
2, 14975, Note_on_c, 0, 72, 0
2, 14976, Note_on_c, 0, 74, 75
2, 15021, Note_on_c, 0, 74, 0
2, 15024, Note_on_c, 0, 67, 75
2, 15069, Note_on_c, 0, 67, 0
2, 15072, Note_on_c, 0, 71, 75
2, 15095, Note_on_c, 0, 71, 0
2, 15096, Note_on_c, 0, 67, 76
2, 15119, Note_on_c, 0, 67, 0
2, 15120, Note_on_c, 0, 74, 76
2, 15143, Note_on_c, 0, 74, 0
2, 15144, Note_on_c, 0, 71, 76
2, 15167, Note_on_c, 0, 71, 0
2, 15168, Note_on_c, 0, 77, 77
2, 15235, Note_on_c, 0, 77, 0
2, 15240, Note_on_c, 0, 74, 78
2, 15263, Note_on_c, 0, 74, 0
2, 15264, Note_on_c, 0, 76, 78
2, 15279, Note_on_c, 0, 76, 0
2, 15280, Note_on_c, 0, 74, 75
2, 15295, Note_on_c, 0, 74, 0
2, 15296, Note_on_c, 0, 76, 75
2, 15311, Note_on_c, 0, 76, 0
2, 15312, Note_on_c, 0, 74, 75
2, 15327, Note_on_c, 0, 74, 0
2, 15328, Note_on_c, 0, 72, 75
2, 15343, Note_on_c, 0, 72, 0
2, 15344, Note_on_c, 0, 74, 75
2, 15359, Note_on_c, 0, 74, 0
2, 15360, Note_on_c, 0, 86, 75
2, 15383, Note_on_c, 0, 86, 0
2, 15384, Note_on_c, 0, 84, 75
2, 15407, Note_on_c, 0, 84, 0
2, 15408, Note_on_c, 0, 83, 75
2, 15431, Note_on_c, 0, 83, 0
2, 15432, Note_on_c, 0, 81, 75
2, 15455, Note_on_c, 0, 81, 0
2, 15456, Note_on_c, 0, 79, 75
2, 15479, Note_on_c, 0, 79, 0
2, 15480, Note_on_c, 0, 77, 75
2, 15503, Note_on_c, 0, 77, 0
2, 15504, Note_on_c, 0, 76, 75
2, 15527, Note_on_c, 0, 76, 0
2, 15528, Note_on_c, 0, 74, 75
2, 15551, Note_on_c, 0, 74, 0
2, 15576, Note_on_c, 0, 76, 70
2, 15599, Note_on_c, 0, 76, 0
2, 15600, Note_on_c, 0, 79, 70
2, 15623, Note_on_c, 0, 79, 0
2, 15624, Note_on_c, 0, 76, 70
2, 15647, Note_on_c, 0, 76, 0
2, 15672, Note_on_c, 0, 74, 70
2, 15695, Note_on_c, 0, 74, 0
2, 15696, Note_on_c, 0, 79, 70
2, 15719, Note_on_c, 0, 79, 0
2, 15720, Note_on_c, 0, 74, 70
2, 15743, Note_on_c, 0, 74, 0
2, 15768, Note_on_c, 0, 73, 70
2, 15791, Note_on_c, 0, 73, 0
2, 15792, Note_on_c, 0, 79, 70
2, 15815, Note_on_c, 0, 79, 0
2, 15816, Note_on_c, 0, 73, 70
2, 15839, Note_on_c, 0, 73, 0
2, 15864, Note_on_c, 0, 69, 80
2, 15887, Note_on_c, 0, 69, 0
2, 15888, Note_on_c, 0, 79, 80
2, 15911, Note_on_c, 0, 79, 0
2, 15912, Note_on_c, 0, 69, 80
2, 15935, Note_on_c, 0, 69, 0
2, 15960, Note_on_c, 0, 69, 80
2, 15983, Note_on_c, 0, 69, 0
2, 15984, Note_on_c, 0, 77, 80
2, 16007, Note_on_c, 0, 77, 0
2, 16008, Note_on_c, 0, 69, 80
2, 16031, Note_on_c, 0, 69, 0
2, 16056, Note_on_c, 0, 69, 80
2, 16079, Note_on_c, 0, 69, 0
2, 16080, Note_on_c, 0, 76, 80
2, 16103, Note_on_c, 0, 76, 0
2, 16104, Note_on_c, 0, 69, 80
2, 16127, Note_on_c, 0, 69, 0
2, 16152, Note_on_c, 0, 69, 80
2, 16175, Note_on_c, 0, 69, 0
2, 16176, Note_on_c, 0, 75, 80
2, 16199, Note_on_c, 0, 75, 0
2, 16200, Note_on_c, 0, 69, 80
2, 16223, Note_on_c, 0, 69, 0
2, 16248, Note_on_c, 0, 69, 70
2, 16271, Note_on_c, 0, 69, 0
2, 16272, Note_on_c, 0, 78, 70
2, 16295, Note_on_c, 0, 78, 0
2, 16296, Note_on_c, 0, 69, 70
2, 16319, Note_on_c, 0, 69, 0
2, 16344, Note_on_c, 0, 67, 70
2, 16367, Note_on_c, 0, 67, 0
2, 16368, Note_on_c, 0, 78, 70
2, 16391, Note_on_c, 0, 78, 0
2, 16392, Note_on_c, 0, 67, 70
2, 16415, Note_on_c, 0, 67, 0
2, 16440, Note_on_c, 0, 67, 80
2, 16463, Note_on_c, 0, 67, 0
2, 16464, Note_on_c, 0, 76, 80
2, 16487, Note_on_c, 0, 76, 0
2, 16488, Note_on_c, 0, 67, 80
2, 16511, Note_on_c, 0, 67, 0
2, 16536, Note_on_c, 0, 65, 80
2, 16559, Note_on_c, 0, 65, 0
2, 16560, Note_on_c, 0, 76, 80
2, 16583, Note_on_c, 0, 76, 0
2, 16584, Note_on_c, 0, 65, 80
2, 16607, Note_on_c, 0, 65, 0
2, 16632, Note_on_c, 0, 65, 80
2, 16655, Note_on_c, 0, 65, 0
2, 16656, Note_on_c, 0, 74, 80
2, 16679, Note_on_c, 0, 74, 0
2, 16680, Note_on_c, 0, 65, 80
2, 16703, Note_on_c, 0, 65, 0
2, 16728, Note_on_c, 0, 64, 80
2, 16751, Note_on_c, 0, 64, 0
2, 16752, Note_on_c, 0, 74, 80
2, 16775, Note_on_c, 0, 74, 0
2, 16776, Note_on_c, 0, 64, 80
2, 16799, Note_on_c, 0, 64, 0
2, 16824, Note_on_c, 0, 64, 80
2, 16847, Note_on_c, 0, 64, 0
2, 16848, Note_on_c, 0, 72, 80
2, 16871, Note_on_c, 0, 72, 0
2, 16872, Note_on_c, 0, 64, 80
2, 16895, Note_on_c, 0, 64, 0
2, 16920, Note_on_c, 0, 62, 80
2, 16943, Note_on_c, 0, 62, 0
2, 16944, Note_on_c, 0, 72, 80
2, 16967, Note_on_c, 0, 72, 0
2, 16968, Note_on_c, 0, 62, 81
2, 16991, Note_on_c, 0, 62, 0
2, 17016, Note_on_c, 0, 62, 82
2, 17039, Note_on_c, 0, 62, 0
2, 17040, Note_on_c, 0, 72, 82
2, 17063, Note_on_c, 0, 72, 0
2, 17064, Note_on_c, 0, 62, 83
2, 17087, Note_on_c, 0, 62, 0
2, 17088, Note_on_c, 0, 71, 83
2, 17177, Note_on_c, 0, 71, 0
2, 17232, Note_on_c, 0, 62, 86
2, 17232, Note_on_c, 0, 59, 86
2, 17280, Note_on_c, 0, 62, 0
2, 17280, Note_on_c, 0, 59, 0
2, 17280, Note_on_c, 0, 64, 84
2, 17280, Note_on_c, 0, 60, 84
2, 17325, Note_on_c, 0, 64, 0
2, 17325, Note_on_c, 0, 60, 0
2, 17424, Note_on_c, 0, 72, 79
2, 17424, Note_on_c, 0, 66, 79
2, 17472, Note_on_c, 0, 72, 0
2, 17472, Note_on_c, 0, 66, 0
2, 17472, Note_on_c, 0, 71, 77
2, 17472, Note_on_c, 0, 67, 77
2, 17517, Note_on_c, 0, 71, 0
2, 17517, Note_on_c, 0, 67, 0
2, 17616, Note_on_c, 0, 62, 72
2, 17616, Note_on_c, 0, 59, 72
2, 17664, Note_on_c, 0, 62, 0
2, 17664, Note_on_c, 0, 59, 0
2, 17664, Note_on_c, 0, 64, 70
2, 17664, Note_on_c, 0, 60, 70
2, 17709, Note_on_c, 0, 64, 0
2, 17709, Note_on_c, 0, 60, 0
2, 17808, Note_on_c, 0, 66, 65
2, 17808, Note_on_c, 0, 60, 65
2, 17856, Note_on_c, 0, 66, 0
2, 17856, Note_on_c, 0, 60, 0
2, 17856, Note_on_c, 0, 67, 64
2, 17856, Note_on_c, 0, 59, 64
2, 17945, Note_on_c, 0, 67, 0
2, 17945, Note_on_c, 0, 59, 0
2, 18096, Note_on_c, 0, 72, 75
2, 18141, Note_on_c, 0, 72, 0
2, 18144, Note_on_c, 0, 76, 76
2, 18167, Note_on_c, 0, 76, 0
2, 18168, Note_on_c, 0, 72, 77
2, 18191, Note_on_c, 0, 72, 0
2, 18192, Note_on_c, 0, 79, 78
2, 18215, Note_on_c, 0, 79, 0
2, 18216, Note_on_c, 0, 76, 79
2, 18239, Note_on_c, 0, 76, 0
2, 18240, Note_on_c, 0, 84, 80
2, 18307, Note_on_c, 0, 84, 0
2, 18312, Note_on_c, 0, 79, 76
2, 18335, Note_on_c, 0, 79, 0
2, 18336, Note_on_c, 0, 81, 75
2, 18351, Note_on_c, 0, 81, 0
2, 18352, Note_on_c, 0, 79, 75
2, 18367, Note_on_c, 0, 79, 0
2, 18368, Note_on_c, 0, 81, 75
2, 18383, Note_on_c, 0, 81, 0
2, 18384, Note_on_c, 0, 79, 75
2, 18399, Note_on_c, 0, 79, 0
2, 18400, Note_on_c, 0, 81, 75
2, 18415, Note_on_c, 0, 81, 0
2, 18416, Note_on_c, 0, 79, 75
2, 18431, Note_on_c, 0, 79, 0
2, 18480, Note_on_c, 0, 72, 75
2, 18525, Note_on_c, 0, 72, 0
2, 18528, Note_on_c, 0, 77, 77
2, 18551, Note_on_c, 0, 77, 0
2, 18552, Note_on_c, 0, 72, 78
2, 18575, Note_on_c, 0, 72, 0
2, 18576, Note_on_c, 0, 81, 79
2, 18599, Note_on_c, 0, 81, 0
2, 18600, Note_on_c, 0, 77, 80
2, 18623, Note_on_c, 0, 77, 0
2, 18624, Note_on_c, 0, 84, 79
2, 18691, Note_on_c, 0, 84, 0
2, 18696, Note_on_c, 0, 81, 76
2, 18719, Note_on_c, 0, 81, 0
2, 18720, Note_on_c, 0, 83, 75
2, 18735, Note_on_c, 0, 83, 0
2, 18736, Note_on_c, 0, 81, 75
2, 18751, Note_on_c, 0, 81, 0
2, 18752, Note_on_c, 0, 83, 75
2, 18767, Note_on_c, 0, 83, 0
2, 18768, Note_on_c, 0, 81, 75
2, 18783, Note_on_c, 0, 81, 0
2, 18784, Note_on_c, 0, 83, 75
2, 18799, Note_on_c, 0, 83, 0
2, 18800, Note_on_c, 0, 81, 75
2, 18815, Note_on_c, 0, 81, 0
2, 18864, Note_on_c, 0, 72, 75
2, 18909, Note_on_c, 0, 72, 0
2, 18912, Note_on_c, 0, 76, 76
2, 18935, Note_on_c, 0, 76, 0
2, 18936, Note_on_c, 0, 72, 77
2, 18959, Note_on_c, 0, 72, 0
2, 18960, Note_on_c, 0, 79, 78
2, 18983, Note_on_c, 0, 79, 0
2, 18984, Note_on_c, 0, 76, 79
2, 19007, Note_on_c, 0, 76, 0
2, 19008, Note_on_c, 0, 84, 80
2, 19075, Note_on_c, 0, 84, 0
2, 19080, Note_on_c, 0, 79, 76
2, 19103, Note_on_c, 0, 79, 0
2, 19104, Note_on_c, 0, 81, 75
2, 19119, Note_on_c, 0, 81, 0
2, 19120, Note_on_c, 0, 79, 75
2, 19135, Note_on_c, 0, 79, 0
2, 19136, Note_on_c, 0, 81, 75
2, 19151, Note_on_c, 0, 81, 0
2, 19152, Note_on_c, 0, 79, 75
2, 19167, Note_on_c, 0, 79, 0
2, 19168, Note_on_c, 0, 81, 75
2, 19183, Note_on_c, 0, 81, 0
2, 19184, Note_on_c, 0, 79, 75
2, 19199, Note_on_c, 0, 79, 0
2, 19200, Note_on_c, 0, 79, 75
2, 19223, Note_on_c, 0, 79, 0
2, 19224, Note_on_c, 0, 77, 75
2, 19247, Note_on_c, 0, 77, 0
2, 19248, Note_on_c, 0, 86, 75
2, 19271, Note_on_c, 0, 86, 0
2, 19272, Note_on_c, 0, 77, 75
2, 19295, Note_on_c, 0, 77, 0
2, 19296, Note_on_c, 0, 76, 75
2, 19341, Note_on_c, 0, 76, 0
2, 19344, Note_on_c, 0, 84, 75
2, 19389, Note_on_c, 0, 84, 0
2, 19392, Note_on_c, 0, 79, 70
2, 19415, Note_on_c, 0, 79, 0
2, 19416, Note_on_c, 0, 77, 70
2, 19439, Note_on_c, 0, 77, 0
2, 19440, Note_on_c, 0, 86, 70
2, 19463, Note_on_c, 0, 86, 0
2, 19464, Note_on_c, 0, 77, 70
2, 19487, Note_on_c, 0, 77, 0
2, 19488, Note_on_c, 0, 76, 70
2, 19533, Note_on_c, 0, 76, 0
2, 19536, Note_on_c, 0, 84, 70
2, 19581, Note_on_c, 0, 84, 0
2, 19608, Note_on_c, 0, 77, 75
2, 19631, Note_on_c, 0, 77, 0
2, 19632, Note_on_c, 0, 86, 75
2, 19655, Note_on_c, 0, 86, 0
2, 19656, Note_on_c, 0, 77, 75
2, 19679, Note_on_c, 0, 77, 0
2, 19704, Note_on_c, 0, 76, 75
2, 19727, Note_on_c, 0, 76, 0
2, 19728, Note_on_c, 0, 84, 75
2, 19751, Note_on_c, 0, 84, 0
2, 19752, Note_on_c, 0, 76, 75
2, 19775, Note_on_c, 0, 76, 0
2, 19776, Note_on_c, 0, 76, 75
2, 19788, Note_on_c, 0, 76, 0
2, 19788, Note_on_c, 0, 77, 75
2, 19800, Note_on_c, 0, 77, 0
2, 19800, Note_on_c, 0, 76, 75
2, 19821, Note_on_c, 0, 76, 0
2, 19824, Note_on_c, 0, 74, 75
2, 19869, Note_on_c, 0, 74, 0
2, 19920, Note_on_c, 0, 72, 70
2, 19965, Note_on_c, 0, 72, 0
2, 19968, Note_on_c, 0, 72, 70
2, 19991, Note_on_c, 0, 72, 0
2, 19992, Note_on_c, 0, 71, 70
2, 20015, Note_on_c, 0, 71, 0
2, 20016, Note_on_c, 0, 74, 70
2, 20039, Note_on_c, 0, 74, 0
2, 20040, Note_on_c, 0, 72, 70
2, 20063, Note_on_c, 0, 72, 0
2, 20064, Note_on_c, 0, 76, 70
2, 20087, Note_on_c, 0, 76, 0
2, 20088, Note_on_c, 0, 72, 70
2, 20111, Note_on_c, 0, 72, 0
2, 20112, Note_on_c, 0, 71, 70
2, 20135, Note_on_c, 0, 71, 0
2, 20136, Note_on_c, 0, 72, 70
2, 20159, Note_on_c, 0, 72, 0
2, 20160, Note_on_c, 0, 67, 75
2, 20183, Note_on_c, 0, 67, 0
2, 20184, Note_on_c, 0, 72, 75
2, 20207, Note_on_c, 0, 72, 0
2, 20208, Note_on_c, 0, 69, 75
2, 20231, Note_on_c, 0, 69, 0
2, 20232, Note_on_c, 0, 72, 75
2, 20255, Note_on_c, 0, 72, 0
2, 20256, Note_on_c, 0, 67, 75
2, 20301, Note_on_c, 0, 67, 0
2, 20304, Note_on_c, 0, 72, 70
2, 20349, Note_on_c, 0, 72, 0
2, 20352, Note_on_c, 0, 72, 70
2, 20375, Note_on_c, 0, 72, 0
2, 20376, Note_on_c, 0, 71, 70
2, 20399, Note_on_c, 0, 71, 0
2, 20400, Note_on_c, 0, 74, 70
2, 20423, Note_on_c, 0, 74, 0
2, 20424, Note_on_c, 0, 72, 70
2, 20447, Note_on_c, 0, 72, 0
2, 20448, Note_on_c, 0, 76, 70
2, 20471, Note_on_c, 0, 76, 0
2, 20472, Note_on_c, 0, 72, 70
2, 20495, Note_on_c, 0, 72, 0
2, 20496, Note_on_c, 0, 71, 70
2, 20519, Note_on_c, 0, 71, 0
2, 20520, Note_on_c, 0, 72, 70
2, 20543, Note_on_c, 0, 72, 0
2, 20544, Note_on_c, 0, 67, 75
2, 20567, Note_on_c, 0, 67, 0
2, 20568, Note_on_c, 0, 72, 75
2, 20591, Note_on_c, 0, 72, 0
2, 20592, Note_on_c, 0, 65, 75
2, 20615, Note_on_c, 0, 65, 0
2, 20616, Note_on_c, 0, 72, 75
2, 20639, Note_on_c, 0, 72, 0
2, 20640, Note_on_c, 0, 64, 75
2, 20685, Note_on_c, 0, 64, 0
2, 20688, Note_on_c, 0, 67, 75
2, 20711, Note_on_c, 0, 67, 0
2, 20712, Note_on_c, 0, 72, 75
2, 20735, Note_on_c, 0, 72, 0
2, 20736, Note_on_c, 0, 69, 75
2, 20759, Note_on_c, 0, 69, 0
2, 20760, Note_on_c, 0, 72, 76
2, 20783, Note_on_c, 0, 72, 0
2, 20784, Note_on_c, 0, 67, 76
2, 20807, Note_on_c, 0, 67, 0
2, 20808, Note_on_c, 0, 72, 76
2, 20831, Note_on_c, 0, 72, 0
2, 20832, Note_on_c, 0, 65, 76
2, 20855, Note_on_c, 0, 65, 0
2, 20856, Note_on_c, 0, 69, 77
2, 20879, Note_on_c, 0, 69, 0
2, 20880, Note_on_c, 0, 74, 77
2, 20903, Note_on_c, 0, 74, 0
2, 20904, Note_on_c, 0, 72, 77
2, 20927, Note_on_c, 0, 72, 0
2, 20928, Note_on_c, 0, 71, 77
2, 20951, Note_on_c, 0, 71, 0
2, 20952, Note_on_c, 0, 74, 77
2, 20975, Note_on_c, 0, 74, 0
2, 20976, Note_on_c, 0, 69, 78
2, 20999, Note_on_c, 0, 69, 0
2, 21000, Note_on_c, 0, 74, 78
2, 21023, Note_on_c, 0, 74, 0
2, 21024, Note_on_c, 0, 67, 78
2, 21047, Note_on_c, 0, 67, 0
2, 21048, Note_on_c, 0, 71, 78
2, 21071, Note_on_c, 0, 71, 0
2, 21072, Note_on_c, 0, 76, 79
2, 21095, Note_on_c, 0, 76, 0
2, 21096, Note_on_c, 0, 74, 79
2, 21119, Note_on_c, 0, 74, 0
2, 21120, Note_on_c, 0, 72, 79
2, 21143, Note_on_c, 0, 72, 0
2, 21144, Note_on_c, 0, 76, 79
2, 21167, Note_on_c, 0, 76, 0
2, 21168, Note_on_c, 0, 71, 80
2, 21191, Note_on_c, 0, 71, 0
2, 21192, Note_on_c, 0, 76, 80
2, 21215, Note_on_c, 0, 76, 0
2, 21216, Note_on_c, 0, 69, 80
2, 21239, Note_on_c, 0, 69, 0
2, 21240, Note_on_c, 0, 72, 80
2, 21263, Note_on_c, 0, 72, 0
2, 21264, Note_on_c, 0, 77, 80
2, 21287, Note_on_c, 0, 77, 0
2, 21288, Note_on_c, 0, 76, 81
2, 21311, Note_on_c, 0, 76, 0
2, 21312, Note_on_c, 0, 74, 81
2, 21335, Note_on_c, 0, 74, 0
2, 21336, Note_on_c, 0, 77, 81
2, 21359, Note_on_c, 0, 77, 0
2, 21360, Note_on_c, 0, 72, 81
2, 21383, Note_on_c, 0, 72, 0
2, 21384, Note_on_c, 0, 77, 82
2, 21407, Note_on_c, 0, 77, 0
2, 21408, Note_on_c, 0, 71, 82
2, 21431, Note_on_c, 0, 71, 0
2, 21432, Note_on_c, 0, 74, 82
2, 21455, Note_on_c, 0, 74, 0
2, 21456, Note_on_c, 0, 79, 82
2, 21479, Note_on_c, 0, 79, 0
2, 21480, Note_on_c, 0, 77, 83
2, 21503, Note_on_c, 0, 77, 0
2, 21504, Note_on_c, 0, 76, 83
2, 21527, Note_on_c, 0, 76, 0
2, 21528, Note_on_c, 0, 79, 83
2, 21551, Note_on_c, 0, 79, 0
2, 21552, Note_on_c, 0, 72, 83
2, 21575, Note_on_c, 0, 72, 0
2, 21576, Note_on_c, 0, 74, 83
2, 21599, Note_on_c, 0, 74, 0
2, 21600, Note_on_c, 0, 76, 84
2, 21615, Note_on_c, 0, 76, 0
2, 21616, Note_on_c, 0, 74, 84
2, 21631, Note_on_c, 0, 74, 0
2, 21632, Note_on_c, 0, 76, 84
2, 21647, Note_on_c, 0, 76, 0
2, 21648, Note_on_c, 0, 74, 84
2, 21663, Note_on_c, 0, 74, 0
2, 21664, Note_on_c, 0, 72, 84
2, 21679, Note_on_c, 0, 72, 0
2, 21680, Note_on_c, 0, 74, 84
2, 21695, Note_on_c, 0, 74, 0
2, 21696, Note_on_c, 0, 72, 84
2, 21785, Note_on_c, 0, 72, 0
2, 21840, Note_on_c, 0, 79, 70
2, 21840, Note_on_c, 0, 75, 70
2, 21888, Note_on_c, 0, 79, 0
2, 21888, Note_on_c, 0, 75, 0
2, 21888, Note_on_c, 0, 80, 70
2, 21888, Note_on_c, 0, 77, 70
2, 21933, Note_on_c, 0, 80, 0
2, 21933, Note_on_c, 0, 77, 0
2, 22032, Note_on_c, 0, 79, 70
2, 22032, Note_on_c, 0, 75, 70
2, 22080, Note_on_c, 0, 79, 0
2, 22080, Note_on_c, 0, 75, 0
2, 22080, Note_on_c, 0, 77, 70
2, 22080, Note_on_c, 0, 74, 70
2, 22125, Note_on_c, 0, 77, 0
2, 22125, Note_on_c, 0, 74, 0
2, 22224, Note_on_c, 0, 77, 70
2, 22224, Note_on_c, 0, 74, 70
2, 22272, Note_on_c, 0, 77, 0
2, 22272, Note_on_c, 0, 74, 0
2, 22272, Note_on_c, 0, 79, 70
2, 22272, Note_on_c, 0, 75, 70
2, 22317, Note_on_c, 0, 79, 0
2, 22317, Note_on_c, 0, 75, 0
2, 22416, Note_on_c, 0, 77, 70
2, 22416, Note_on_c, 0, 74, 70
2, 22464, Note_on_c, 0, 77, 0
2, 22464, Note_on_c, 0, 74, 0
2, 22464, Note_on_c, 0, 75, 70
2, 22464, Note_on_c, 0, 72, 70
2, 22509, Note_on_c, 0, 75, 0
2, 22509, Note_on_c, 0, 72, 0
2, 22608, Note_on_c, 0, 74, 70
2, 22608, Note_on_c, 0, 71, 70
2, 22656, Note_on_c, 0, 74, 0
2, 22656, Note_on_c, 0, 71, 0
2, 22656, Note_on_c, 0, 75, 70
2, 22656, Note_on_c, 0, 72, 70
2, 22701, Note_on_c, 0, 75, 0
2, 22701, Note_on_c, 0, 72, 0
2, 22800, Note_on_c, 0, 75, 70
2, 22800, Note_on_c, 0, 72, 70
2, 22845, Note_on_c, 0, 75, 0
2, 22845, Note_on_c, 0, 72, 0
2, 22848, Note_on_c, 0, 75, 70
2, 22860, Note_on_c, 0, 75, 0
2, 22860, Note_on_c, 0, 77, 70
2, 22872, Note_on_c, 0, 77, 0
2, 22872, Note_on_c, 0, 75, 70
2, 22896, Note_on_c, 0, 75, 0
2, 22896, Note_on_c, 0, 74, 70
2, 22941, Note_on_c, 0, 74, 0
2, 22992, Note_on_c, 0, 67, 75
2, 23007, Note_on_c, 0, 67, 0
2, 23008, Note_on_c, 0, 69, 75
2, 23023, Note_on_c, 0, 69, 0
2, 23024, Note_on_c, 0, 71, 75
2, 23039, Note_on_c, 0, 71, 0
2, 23040, Note_on_c, 0, 72, 75
2, 23085, Note_on_c, 0, 72, 0
2, 23088, Note_on_c, 0, 72, 75
2, 23103, Note_on_c, 0, 72, 0
2, 23104, Note_on_c, 0, 74, 75
2, 23119, Note_on_c, 0, 74, 0
2, 23120, Note_on_c, 0, 76, 75
2, 23135, Note_on_c, 0, 76, 0
2, 23136, Note_on_c, 0, 72, 75
2, 23181, Note_on_c, 0, 72, 0
2, 23184, Note_on_c, 0, 76, 75
2, 23199, Note_on_c, 0, 76, 0
2, 23200, Note_on_c, 0, 77, 75
2, 23215, Note_on_c, 0, 77, 0
2, 23216, Note_on_c, 0, 79, 75
2, 23231, Note_on_c, 0, 79, 0
2, 23232, Note_on_c, 0, 76, 75
2, 23277, Note_on_c, 0, 76, 0
2, 23280, Note_on_c, 0, 79, 75
2, 23295, Note_on_c, 0, 79, 0
2, 23296, Note_on_c, 0, 81, 75
2, 23311, Note_on_c, 0, 81, 0
2, 23312, Note_on_c, 0, 83, 75
2, 23327, Note_on_c, 0, 83, 0
2, 23328, Note_on_c, 0, 84, 75
2, 23373, Note_on_c, 0, 84, 0
2, 23376, Note_on_c, 0, 79, 75
2, 23421, Note_on_c, 0, 79, 0
2, 23424, Note_on_c, 0, 81, 75
2, 23469, Note_on_c, 0, 81, 0
2, 23472, Note_on_c, 0, 84, 75
2, 23487, Note_on_c, 0, 84, 0
2, 23488, Note_on_c, 0, 81, 75
2, 23503, Note_on_c, 0, 81, 0
2, 23504, Note_on_c, 0, 77, 75
2, 23519, Note_on_c, 0, 77, 0
2, 23520, Note_on_c, 0, 76, 75
2, 23565, Note_on_c, 0, 76, 0
2, 23568, Note_on_c, 0, 74, 75
2, 23580, Note_on_c, 0, 74, 0
2, 23580, Note_on_c, 0, 76, 75
2, 23592, Note_on_c, 0, 76, 0
2, 23592, Note_on_c, 0, 74, 75
2, 23613, Note_on_c, 0, 74, 0
2, 23616, Note_on_c, 0, 72, 75
2, 23705, Note_on_c, 0, 72, 0
2, 23760, Note_on_c, 0, 67, 75
2, 23775, Note_on_c, 0, 67, 0
2, 23776, Note_on_c, 0, 69, 75
2, 23791, Note_on_c, 0, 69, 0
2, 23792, Note_on_c, 0, 71, 75
2, 23807, Note_on_c, 0, 71, 0
2, 23808, Note_on_c, 0, 72, 75
2, 23853, Note_on_c, 0, 72, 0
2, 23856, Note_on_c, 0, 72, 75
2, 23871, Note_on_c, 0, 72, 0
2, 23872, Note_on_c, 0, 74, 75
2, 23887, Note_on_c, 0, 74, 0
2, 23888, Note_on_c, 0, 76, 75
2, 23903, Note_on_c, 0, 76, 0
2, 23904, Note_on_c, 0, 72, 75
2, 23949, Note_on_c, 0, 72, 0
2, 23952, Note_on_c, 0, 76, 75
2, 23967, Note_on_c, 0, 76, 0
2, 23968, Note_on_c, 0, 77, 75
2, 23983, Note_on_c, 0, 77, 0
2, 23984, Note_on_c, 0, 79, 75
2, 23999, Note_on_c, 0, 79, 0
2, 24000, Note_on_c, 0, 76, 75
2, 24045, Note_on_c, 0, 76, 0
2, 24048, Note_on_c, 0, 67, 80
2, 24071, Note_on_c, 0, 67, 0
2, 24072, Note_on_c, 0, 79, 80
2, 24095, Note_on_c, 0, 79, 0
2, 24096, Note_on_c, 0, 67, 80
2, 24119, Note_on_c, 0, 67, 0
2, 24120, Note_on_c, 0, 79, 80
2, 24143, Note_on_c, 0, 79, 0
2, 24144, Note_on_c, 0, 67, 80
2, 24167, Note_on_c, 0, 67, 0
2, 24168, Note_on_c, 0, 79, 80
2, 24191, Note_on_c, 0, 79, 0
2, 24192, Note_on_c, 0, 69, 80
2, 24215, Note_on_c, 0, 69, 0
2, 24216, Note_on_c, 0, 79, 80
2, 24239, Note_on_c, 0, 79, 0
2, 24240, Note_on_c, 0, 69, 80
2, 24263, Note_on_c, 0, 69, 0
2, 24264, Note_on_c, 0, 79, 80
2, 24287, Note_on_c, 0, 79, 0
2, 24288, Note_on_c, 0, 69, 80
2, 24311, Note_on_c, 0, 69, 0
2, 24312, Note_on_c, 0, 77, 80
2, 24335, Note_on_c, 0, 77, 0
2, 24336, Note_on_c, 0, 69, 80
2, 24359, Note_on_c, 0, 69, 0
2, 24360, Note_on_c, 0, 77, 80
2, 24383, Note_on_c, 0, 77, 0
2, 24384, Note_on_c, 0, 67, 80
2, 24407, Note_on_c, 0, 67, 0
2, 24408, Note_on_c, 0, 77, 80
2, 24431, Note_on_c, 0, 77, 0
2, 24432, Note_on_c, 0, 67, 80
2, 24455, Note_on_c, 0, 67, 0
2, 24456, Note_on_c, 0, 77, 80
2, 24479, Note_on_c, 0, 77, 0
2, 24480, Note_on_c, 0, 67, 80
2, 24503, Note_on_c, 0, 67, 0
2, 24504, Note_on_c, 0, 76, 80
2, 24527, Note_on_c, 0, 76, 0
2, 24528, Note_on_c, 0, 67, 80
2, 24551, Note_on_c, 0, 67, 0
2, 24552, Note_on_c, 0, 76, 80
2, 24575, Note_on_c, 0, 76, 0
2, 24576, Note_on_c, 0, 65, 80
2, 24599, Note_on_c, 0, 65, 0
2, 24600, Note_on_c, 0, 74, 80
2, 24623, Note_on_c, 0, 74, 0
2, 24624, Note_on_c, 0, 65, 80
2, 24647, Note_on_c, 0, 65, 0
2, 24648, Note_on_c, 0, 74, 80
2, 24671, Note_on_c, 0, 74, 0
2, 24672, Note_on_c, 0, 62, 80
2, 24695, Note_on_c, 0, 62, 0
2, 24696, Note_on_c, 0, 71, 80
2, 24719, Note_on_c, 0, 71, 0
2, 24720, Note_on_c, 0, 62, 80
2, 24743, Note_on_c, 0, 62, 0
2, 24744, Note_on_c, 0, 71, 80
2, 24767, Note_on_c, 0, 71, 0
2, 24768, Note_on_c, 0, 72, 80
2, 24768, Note_on_c, 0, 64, 80
2, 24857, Note_on_c, 0, 72, 0
2, 24857, Note_on_c, 0, 64, 0
2, 25008, Note_on_c, 0, 67, 75
2, 25053, Note_on_c, 0, 67, 0
2, 25056, Note_on_c, 0, 71, 75
2, 25079, Note_on_c, 0, 71, 0
2, 25080, Note_on_c, 0, 67, 76
2, 25103, Note_on_c, 0, 67, 0
2, 25104, Note_on_c, 0, 74, 76
2, 25127, Note_on_c, 0, 74, 0
2, 25128, Note_on_c, 0, 71, 76
2, 25151, Note_on_c, 0, 71, 0
2, 25152, Note_on_c, 0, 77, 77
2, 25219, Note_on_c, 0, 77, 0
2, 25224, Note_on_c, 0, 74, 78
2, 25247, Note_on_c, 0, 74, 0
2, 25248, Note_on_c, 0, 76, 78
2, 25263, Note_on_c, 0, 76, 0
2, 25264, Note_on_c, 0, 74, 75
2, 25279, Note_on_c, 0, 74, 0
2, 25280, Note_on_c, 0, 76, 75
2, 25295, Note_on_c, 0, 76, 0
2, 25296, Note_on_c, 0, 74, 75
2, 25311, Note_on_c, 0, 74, 0
2, 25312, Note_on_c, 0, 72, 75
2, 25327, Note_on_c, 0, 72, 0
2, 25328, Note_on_c, 0, 74, 75
2, 25343, Note_on_c, 0, 74, 0
2, 25344, Note_on_c, 0, 86, 75
2, 25367, Note_on_c, 0, 86, 0
2, 25368, Note_on_c, 0, 84, 75
2, 25391, Note_on_c, 0, 84, 0
2, 25392, Note_on_c, 0, 83, 75
2, 25415, Note_on_c, 0, 83, 0
2, 25416, Note_on_c, 0, 81, 75
2, 25439, Note_on_c, 0, 81, 0
2, 25440, Note_on_c, 0, 79, 75
2, 25463, Note_on_c, 0, 79, 0
2, 25464, Note_on_c, 0, 77, 75
2, 25487, Note_on_c, 0, 77, 0
2, 25488, Note_on_c, 0, 76, 75
2, 25511, Note_on_c, 0, 76, 0
2, 25512, Note_on_c, 0, 74, 75
2, 25535, Note_on_c, 0, 74, 0
2, 25536, Note_on_c, 0, 76, 75
2, 25581, Note_on_c, 0, 76, 0
2, 25584, Note_on_c, 0, 67, 75
2, 25629, Note_on_c, 0, 67, 0
2, 25632, Note_on_c, 0, 72, 75
2, 25655, Note_on_c, 0, 72, 0
2, 25656, Note_on_c, 0, 67, 75
2, 25679, Note_on_c, 0, 67, 0
2, 25680, Note_on_c, 0, 76, 75
2, 25703, Note_on_c, 0, 76, 0
2, 25704, Note_on_c, 0, 72, 75
2, 25727, Note_on_c, 0, 72, 0
2, 25728, Note_on_c, 0, 79, 75
2, 25795, Note_on_c, 0, 79, 0
2, 25800, Note_on_c, 0, 76, 75
2, 25823, Note_on_c, 0, 76, 0
2, 25824, Note_on_c, 0, 77, 75
2, 25839, Note_on_c, 0, 77, 0
2, 25840, Note_on_c, 0, 76, 75
2, 25855, Note_on_c, 0, 76, 0
2, 25856, Note_on_c, 0, 77, 75
2, 25871, Note_on_c, 0, 77, 0
2, 25872, Note_on_c, 0, 76, 75
2, 25887, Note_on_c, 0, 76, 0
2, 25888, Note_on_c, 0, 74, 75
2, 25903, Note_on_c, 0, 74, 0
2, 25904, Note_on_c, 0, 76, 75
2, 25919, Note_on_c, 0, 76, 0
2, 25920, Note_on_c, 0, 84, 75
2, 25943, Note_on_c, 0, 84, 0
2, 25944, Note_on_c, 0, 83, 75
2, 25967, Note_on_c, 0, 83, 0
2, 25968, Note_on_c, 0, 81, 75
2, 25991, Note_on_c, 0, 81, 0
2, 25992, Note_on_c, 0, 79, 75
2, 26015, Note_on_c, 0, 79, 0
2, 26016, Note_on_c, 0, 77, 75
2, 26039, Note_on_c, 0, 77, 0
2, 26040, Note_on_c, 0, 76, 75
2, 26063, Note_on_c, 0, 76, 0
2, 26064, Note_on_c, 0, 74, 75
2, 26087, Note_on_c, 0, 74, 0
2, 26088, Note_on_c, 0, 72, 75
2, 26111, Note_on_c, 0, 72, 0
2, 26112, Note_on_c, 0, 74, 75
2, 26157, Note_on_c, 0, 74, 0
2, 26160, Note_on_c, 0, 67, 75
2, 26205, Note_on_c, 0, 67, 0
2, 26208, Note_on_c, 0, 71, 75
2, 26231, Note_on_c, 0, 71, 0
2, 26232, Note_on_c, 0, 67, 76
2, 26255, Note_on_c, 0, 67, 0
2, 26256, Note_on_c, 0, 74, 76
2, 26279, Note_on_c, 0, 74, 0
2, 26280, Note_on_c, 0, 71, 76
2, 26303, Note_on_c, 0, 71, 0
2, 26304, Note_on_c, 0, 77, 77
2, 26371, Note_on_c, 0, 77, 0
2, 26376, Note_on_c, 0, 74, 78
2, 26399, Note_on_c, 0, 74, 0
2, 26400, Note_on_c, 0, 76, 78
2, 26415, Note_on_c, 0, 76, 0
2, 26416, Note_on_c, 0, 74, 75
2, 26431, Note_on_c, 0, 74, 0
2, 26432, Note_on_c, 0, 76, 75
2, 26447, Note_on_c, 0, 76, 0
2, 26448, Note_on_c, 0, 74, 75
2, 26463, Note_on_c, 0, 74, 0
2, 26464, Note_on_c, 0, 72, 75
2, 26479, Note_on_c, 0, 72, 0
2, 26480, Note_on_c, 0, 74, 75
2, 26495, Note_on_c, 0, 74, 0
2, 26496, Note_on_c, 0, 86, 75
2, 26519, Note_on_c, 0, 86, 0
2, 26520, Note_on_c, 0, 84, 75
2, 26543, Note_on_c, 0, 84, 0
2, 26544, Note_on_c, 0, 83, 75
2, 26567, Note_on_c, 0, 83, 0
2, 26568, Note_on_c, 0, 81, 75
2, 26591, Note_on_c, 0, 81, 0
2, 26592, Note_on_c, 0, 79, 75
2, 26615, Note_on_c, 0, 79, 0
2, 26616, Note_on_c, 0, 77, 75
2, 26639, Note_on_c, 0, 77, 0
2, 26640, Note_on_c, 0, 76, 75
2, 26663, Note_on_c, 0, 76, 0
2, 26664, Note_on_c, 0, 74, 75
2, 26687, Note_on_c, 0, 74, 0
2, 26712, Note_on_c, 0, 76, 70
2, 26735, Note_on_c, 0, 76, 0
2, 26736, Note_on_c, 0, 79, 70
2, 26759, Note_on_c, 0, 79, 0
2, 26760, Note_on_c, 0, 76, 70
2, 26783, Note_on_c, 0, 76, 0
2, 26808, Note_on_c, 0, 74, 70
2, 26831, Note_on_c, 0, 74, 0
2, 26832, Note_on_c, 0, 79, 70
2, 26855, Note_on_c, 0, 79, 0
2, 26856, Note_on_c, 0, 74, 70
2, 26879, Note_on_c, 0, 74, 0
2, 26904, Note_on_c, 0, 73, 70
2, 26927, Note_on_c, 0, 73, 0
2, 26928, Note_on_c, 0, 79, 70
2, 26951, Note_on_c, 0, 79, 0
2, 26952, Note_on_c, 0, 73, 70
2, 26975, Note_on_c, 0, 73, 0
2, 27000, Note_on_c, 0, 69, 80
2, 27023, Note_on_c, 0, 69, 0
2, 27024, Note_on_c, 0, 79, 80
2, 27047, Note_on_c, 0, 79, 0
2, 27048, Note_on_c, 0, 69, 80
2, 27071, Note_on_c, 0, 69, 0
2, 27096, Note_on_c, 0, 69, 80
2, 27119, Note_on_c, 0, 69, 0
2, 27120, Note_on_c, 0, 77, 80
2, 27143, Note_on_c, 0, 77, 0
2, 27144, Note_on_c, 0, 69, 80
2, 27167, Note_on_c, 0, 69, 0
2, 27192, Note_on_c, 0, 69, 80
2, 27215, Note_on_c, 0, 69, 0
2, 27216, Note_on_c, 0, 76, 80
2, 27239, Note_on_c, 0, 76, 0
2, 27240, Note_on_c, 0, 69, 80
2, 27263, Note_on_c, 0, 69, 0
2, 27288, Note_on_c, 0, 69, 80
2, 27311, Note_on_c, 0, 69, 0
2, 27312, Note_on_c, 0, 75, 80
2, 27335, Note_on_c, 0, 75, 0
2, 27336, Note_on_c, 0, 69, 80
2, 27359, Note_on_c, 0, 69, 0
2, 27384, Note_on_c, 0, 69, 70
2, 27407, Note_on_c, 0, 69, 0
2, 27408, Note_on_c, 0, 78, 70
2, 27431, Note_on_c, 0, 78, 0
2, 27432, Note_on_c, 0, 69, 70
2, 27455, Note_on_c, 0, 69, 0
2, 27480, Note_on_c, 0, 67, 70
2, 27503, Note_on_c, 0, 67, 0
2, 27504, Note_on_c, 0, 78, 70
2, 27527, Note_on_c, 0, 78, 0
2, 27528, Note_on_c, 0, 67, 70
2, 27551, Note_on_c, 0, 67, 0
2, 27576, Note_on_c, 0, 67, 80
2, 27599, Note_on_c, 0, 67, 0
2, 27600, Note_on_c, 0, 76, 80
2, 27623, Note_on_c, 0, 76, 0
2, 27624, Note_on_c, 0, 67, 80
2, 27647, Note_on_c, 0, 67, 0
2, 27672, Note_on_c, 0, 65, 80
2, 27695, Note_on_c, 0, 65, 0
2, 27696, Note_on_c, 0, 76, 80
2, 27719, Note_on_c, 0, 76, 0
2, 27720, Note_on_c, 0, 65, 80
2, 27743, Note_on_c, 0, 65, 0
2, 27768, Note_on_c, 0, 65, 80
2, 27791, Note_on_c, 0, 65, 0
2, 27792, Note_on_c, 0, 74, 80
2, 27815, Note_on_c, 0, 74, 0
2, 27816, Note_on_c, 0, 65, 80
2, 27839, Note_on_c, 0, 65, 0
2, 27864, Note_on_c, 0, 64, 80
2, 27887, Note_on_c, 0, 64, 0
2, 27888, Note_on_c, 0, 74, 80
2, 27911, Note_on_c, 0, 74, 0
2, 27912, Note_on_c, 0, 64, 80
2, 27935, Note_on_c, 0, 64, 0
2, 27960, Note_on_c, 0, 64, 80
2, 27983, Note_on_c, 0, 64, 0
2, 27984, Note_on_c, 0, 72, 80
2, 28007, Note_on_c, 0, 72, 0
2, 28008, Note_on_c, 0, 64, 80
2, 28031, Note_on_c, 0, 64, 0
2, 28056, Note_on_c, 0, 62, 80
2, 28079, Note_on_c, 0, 62, 0
2, 28080, Note_on_c, 0, 72, 80
2, 28103, Note_on_c, 0, 72, 0
2, 28104, Note_on_c, 0, 62, 81
2, 28127, Note_on_c, 0, 62, 0
2, 28152, Note_on_c, 0, 62, 82
2, 28175, Note_on_c, 0, 62, 0
2, 28176, Note_on_c, 0, 72, 82
2, 28199, Note_on_c, 0, 72, 0
2, 28200, Note_on_c, 0, 62, 83
2, 28223, Note_on_c, 0, 62, 0
2, 28224, Note_on_c, 0, 71, 83
2, 28313, Note_on_c, 0, 71, 0
2, 28368, Note_on_c, 0, 62, 86
2, 28368, Note_on_c, 0, 59, 86
2, 28416, Note_on_c, 0, 62, 0
2, 28416, Note_on_c, 0, 59, 0
2, 28416, Note_on_c, 0, 64, 84
2, 28416, Note_on_c, 0, 60, 84
2, 28461, Note_on_c, 0, 64, 0
2, 28461, Note_on_c, 0, 60, 0
2, 28560, Note_on_c, 0, 72, 79
2, 28560, Note_on_c, 0, 66, 79
2, 28608, Note_on_c, 0, 72, 0
2, 28608, Note_on_c, 0, 66, 0
2, 28608, Note_on_c, 0, 71, 77
2, 28608, Note_on_c, 0, 67, 77
2, 28653, Note_on_c, 0, 71, 0
2, 28653, Note_on_c, 0, 67, 0
2, 28752, Note_on_c, 0, 62, 72
2, 28752, Note_on_c, 0, 59, 72
2, 28800, Note_on_c, 0, 62, 0
2, 28800, Note_on_c, 0, 59, 0
2, 28800, Note_on_c, 0, 64, 70
2, 28800, Note_on_c, 0, 60, 70
2, 28845, Note_on_c, 0, 64, 0
2, 28845, Note_on_c, 0, 60, 0
2, 28944, Note_on_c, 0, 66, 65
2, 28944, Note_on_c, 0, 60, 65
2, 28992, Note_on_c, 0, 66, 0
2, 28992, Note_on_c, 0, 60, 0
2, 28992, Note_on_c, 0, 67, 64
2, 28992, Note_on_c, 0, 59, 64
2, 29081, Note_on_c, 0, 67, 0
2, 29081, Note_on_c, 0, 59, 0
2, 29232, Note_on_c, 0, 72, 75
2, 29277, Note_on_c, 0, 72, 0
2, 29280, Note_on_c, 0, 76, 76
2, 29303, Note_on_c, 0, 76, 0
2, 29304, Note_on_c, 0, 72, 77
2, 29327, Note_on_c, 0, 72, 0
2, 29328, Note_on_c, 0, 79, 78
2, 29351, Note_on_c, 0, 79, 0
2, 29352, Note_on_c, 0, 76, 79
2, 29375, Note_on_c, 0, 76, 0
2, 29376, Note_on_c, 0, 84, 80
2, 29443, Note_on_c, 0, 84, 0
2, 29448, Note_on_c, 0, 79, 76
2, 29471, Note_on_c, 0, 79, 0
2, 29472, Note_on_c, 0, 81, 75
2, 29487, Note_on_c, 0, 81, 0
2, 29488, Note_on_c, 0, 79, 75
2, 29503, Note_on_c, 0, 79, 0
2, 29504, Note_on_c, 0, 81, 75
2, 29519, Note_on_c, 0, 81, 0
2, 29520, Note_on_c, 0, 79, 75
2, 29535, Note_on_c, 0, 79, 0
2, 29536, Note_on_c, 0, 81, 75
2, 29551, Note_on_c, 0, 81, 0
2, 29552, Note_on_c, 0, 79, 75
2, 29567, Note_on_c, 0, 79, 0
2, 29616, Note_on_c, 0, 72, 75
2, 29661, Note_on_c, 0, 72, 0
2, 29664, Note_on_c, 0, 77, 77
2, 29687, Note_on_c, 0, 77, 0
2, 29688, Note_on_c, 0, 72, 78
2, 29711, Note_on_c, 0, 72, 0
2, 29712, Note_on_c, 0, 81, 79
2, 29735, Note_on_c, 0, 81, 0
2, 29736, Note_on_c, 0, 77, 80
2, 29759, Note_on_c, 0, 77, 0
2, 29760, Note_on_c, 0, 84, 79
2, 29827, Note_on_c, 0, 84, 0
2, 29832, Note_on_c, 0, 81, 76
2, 29855, Note_on_c, 0, 81, 0
2, 29856, Note_on_c, 0, 83, 75
2, 29871, Note_on_c, 0, 83, 0
2, 29872, Note_on_c, 0, 81, 75
2, 29887, Note_on_c, 0, 81, 0
2, 29888, Note_on_c, 0, 83, 75
2, 29903, Note_on_c, 0, 83, 0
2, 29904, Note_on_c, 0, 81, 75
2, 29919, Note_on_c, 0, 81, 0
2, 29920, Note_on_c, 0, 83, 75
2, 29935, Note_on_c, 0, 83, 0
2, 29936, Note_on_c, 0, 81, 75
2, 29951, Note_on_c, 0, 81, 0
2, 30000, Note_on_c, 0, 72, 75
2, 30045, Note_on_c, 0, 72, 0
2, 30048, Note_on_c, 0, 76, 76
2, 30071, Note_on_c, 0, 76, 0
2, 30072, Note_on_c, 0, 72, 77
2, 30095, Note_on_c, 0, 72, 0
2, 30096, Note_on_c, 0, 79, 78
2, 30119, Note_on_c, 0, 79, 0
2, 30120, Note_on_c, 0, 76, 79
2, 30143, Note_on_c, 0, 76, 0
2, 30144, Note_on_c, 0, 84, 80
2, 30211, Note_on_c, 0, 84, 0
2, 30216, Note_on_c, 0, 79, 76
2, 30239, Note_on_c, 0, 79, 0
2, 30240, Note_on_c, 0, 81, 75
2, 30255, Note_on_c, 0, 81, 0
2, 30256, Note_on_c, 0, 79, 75
2, 30271, Note_on_c, 0, 79, 0
2, 30272, Note_on_c, 0, 81, 75
2, 30287, Note_on_c, 0, 81, 0
2, 30288, Note_on_c, 0, 79, 75
2, 30303, Note_on_c, 0, 79, 0
2, 30304, Note_on_c, 0, 81, 75
2, 30319, Note_on_c, 0, 81, 0
2, 30320, Note_on_c, 0, 79, 75
2, 30335, Note_on_c, 0, 79, 0
2, 30336, Note_on_c, 0, 79, 75
2, 30359, Note_on_c, 0, 79, 0
2, 30360, Note_on_c, 0, 77, 75
2, 30383, Note_on_c, 0, 77, 0
2, 30384, Note_on_c, 0, 86, 75
2, 30407, Note_on_c, 0, 86, 0
2, 30408, Note_on_c, 0, 77, 75
2, 30431, Note_on_c, 0, 77, 0
2, 30432, Note_on_c, 0, 76, 75
2, 30477, Note_on_c, 0, 76, 0
2, 30480, Note_on_c, 0, 84, 75
2, 30525, Note_on_c, 0, 84, 0
2, 30528, Note_on_c, 0, 79, 70
2, 30551, Note_on_c, 0, 79, 0
2, 30552, Note_on_c, 0, 77, 70
2, 30575, Note_on_c, 0, 77, 0
2, 30576, Note_on_c, 0, 86, 70
2, 30599, Note_on_c, 0, 86, 0
2, 30600, Note_on_c, 0, 77, 70
2, 30623, Note_on_c, 0, 77, 0
2, 30624, Note_on_c, 0, 76, 70
2, 30669, Note_on_c, 0, 76, 0
2, 30672, Note_on_c, 0, 84, 70
2, 30717, Note_on_c, 0, 84, 0
2, 30744, Note_on_c, 0, 77, 75
2, 30767, Note_on_c, 0, 77, 0
2, 30768, Note_on_c, 0, 86, 75
2, 30791, Note_on_c, 0, 86, 0
2, 30792, Note_on_c, 0, 77, 75
2, 30815, Note_on_c, 0, 77, 0
2, 30840, Note_on_c, 0, 76, 75
2, 30863, Note_on_c, 0, 76, 0
2, 30864, Note_on_c, 0, 84, 75
2, 30887, Note_on_c, 0, 84, 0
2, 30888, Note_on_c, 0, 76, 75
2, 30911, Note_on_c, 0, 76, 0
2, 30912, Note_on_c, 0, 76, 75
2, 30924, Note_on_c, 0, 76, 0
2, 30924, Note_on_c, 0, 77, 75
2, 30936, Note_on_c, 0, 77, 0
2, 30936, Note_on_c, 0, 76, 75
2, 30957, Note_on_c, 0, 76, 0
2, 30960, Note_on_c, 0, 74, 75
2, 31005, Note_on_c, 0, 74, 0
2, 31056, Note_on_c, 0, 72, 70
2, 31101, Note_on_c, 0, 72, 0
2, 31104, Note_on_c, 0, 72, 70
2, 31127, Note_on_c, 0, 72, 0
2, 31128, Note_on_c, 0, 71, 70
2, 31151, Note_on_c, 0, 71, 0
2, 31152, Note_on_c, 0, 74, 70
2, 31175, Note_on_c, 0, 74, 0
2, 31176, Note_on_c, 0, 72, 70
2, 31199, Note_on_c, 0, 72, 0
2, 31200, Note_on_c, 0, 76, 70
2, 31223, Note_on_c, 0, 76, 0
2, 31224, Note_on_c, 0, 72, 70
2, 31247, Note_on_c, 0, 72, 0
2, 31248, Note_on_c, 0, 71, 70
2, 31271, Note_on_c, 0, 71, 0
2, 31272, Note_on_c, 0, 72, 70
2, 31295, Note_on_c, 0, 72, 0
2, 31296, Note_on_c, 0, 67, 75
2, 31319, Note_on_c, 0, 67, 0
2, 31320, Note_on_c, 0, 72, 75
2, 31343, Note_on_c, 0, 72, 0
2, 31344, Note_on_c, 0, 69, 75
2, 31367, Note_on_c, 0, 69, 0
2, 31368, Note_on_c, 0, 72, 75
2, 31391, Note_on_c, 0, 72, 0
2, 31392, Note_on_c, 0, 67, 75
2, 31437, Note_on_c, 0, 67, 0
2, 31440, Note_on_c, 0, 72, 70
2, 31485, Note_on_c, 0, 72, 0
2, 31488, Note_on_c, 0, 72, 70
2, 31511, Note_on_c, 0, 72, 0
2, 31512, Note_on_c, 0, 71, 70
2, 31535, Note_on_c, 0, 71, 0
2, 31536, Note_on_c, 0, 74, 70
2, 31559, Note_on_c, 0, 74, 0
2, 31560, Note_on_c, 0, 72, 70
2, 31583, Note_on_c, 0, 72, 0
2, 31584, Note_on_c, 0, 76, 70
2, 31607, Note_on_c, 0, 76, 0
2, 31608, Note_on_c, 0, 72, 70
2, 31631, Note_on_c, 0, 72, 0
2, 31632, Note_on_c, 0, 71, 70
2, 31655, Note_on_c, 0, 71, 0
2, 31656, Note_on_c, 0, 72, 70
2, 31679, Note_on_c, 0, 72, 0
2, 31680, Note_on_c, 0, 67, 75
2, 31703, Note_on_c, 0, 67, 0
2, 31704, Note_on_c, 0, 72, 75
2, 31727, Note_on_c, 0, 72, 0
2, 31728, Note_on_c, 0, 65, 75
2, 31751, Note_on_c, 0, 65, 0
2, 31752, Note_on_c, 0, 72, 75
2, 31775, Note_on_c, 0, 72, 0
2, 31776, Note_on_c, 0, 64, 75
2, 31821, Note_on_c, 0, 64, 0
2, 31824, Note_on_c, 0, 67, 75
2, 31847, Note_on_c, 0, 67, 0
2, 31848, Note_on_c, 0, 72, 75
2, 31871, Note_on_c, 0, 72, 0
2, 31872, Note_on_c, 0, 69, 75
2, 31895, Note_on_c, 0, 69, 0
2, 31896, Note_on_c, 0, 72, 76
2, 31919, Note_on_c, 0, 72, 0
2, 31920, Note_on_c, 0, 67, 76
2, 31943, Note_on_c, 0, 67, 0
2, 31944, Note_on_c, 0, 72, 76
2, 31967, Note_on_c, 0, 72, 0
2, 31968, Note_on_c, 0, 65, 76
2, 31991, Note_on_c, 0, 65, 0
2, 31992, Note_on_c, 0, 69, 77
2, 32015, Note_on_c, 0, 69, 0
2, 32016, Note_on_c, 0, 74, 77
2, 32039, Note_on_c, 0, 74, 0
2, 32040, Note_on_c, 0, 72, 77
2, 32063, Note_on_c, 0, 72, 0
2, 32064, Note_on_c, 0, 71, 77
2, 32087, Note_on_c, 0, 71, 0
2, 32088, Note_on_c, 0, 74, 77
2, 32111, Note_on_c, 0, 74, 0
2, 32112, Note_on_c, 0, 69, 78
2, 32135, Note_on_c, 0, 69, 0
2, 32136, Note_on_c, 0, 74, 78
2, 32159, Note_on_c, 0, 74, 0
2, 32160, Note_on_c, 0, 67, 78
2, 32183, Note_on_c, 0, 67, 0
2, 32184, Note_on_c, 0, 71, 78
2, 32207, Note_on_c, 0, 71, 0
2, 32208, Note_on_c, 0, 76, 79
2, 32231, Note_on_c, 0, 76, 0
2, 32232, Note_on_c, 0, 74, 79
2, 32255, Note_on_c, 0, 74, 0
2, 32256, Note_on_c, 0, 72, 79
2, 32279, Note_on_c, 0, 72, 0
2, 32280, Note_on_c, 0, 76, 79
2, 32303, Note_on_c, 0, 76, 0
2, 32304, Note_on_c, 0, 71, 80
2, 32327, Note_on_c, 0, 71, 0
2, 32328, Note_on_c, 0, 76, 80
2, 32351, Note_on_c, 0, 76, 0
2, 32352, Note_on_c, 0, 69, 80
2, 32375, Note_on_c, 0, 69, 0
2, 32376, Note_on_c, 0, 72, 80
2, 32399, Note_on_c, 0, 72, 0
2, 32400, Note_on_c, 0, 77, 80
2, 32423, Note_on_c, 0, 77, 0
2, 32424, Note_on_c, 0, 76, 81
2, 32447, Note_on_c, 0, 76, 0
2, 32448, Note_on_c, 0, 74, 81
2, 32471, Note_on_c, 0, 74, 0
2, 32472, Note_on_c, 0, 77, 81
2, 32495, Note_on_c, 0, 77, 0
2, 32496, Note_on_c, 0, 72, 81
2, 32519, Note_on_c, 0, 72, 0
2, 32520, Note_on_c, 0, 77, 82
2, 32543, Note_on_c, 0, 77, 0
2, 32544, Note_on_c, 0, 71, 82
2, 32567, Note_on_c, 0, 71, 0
2, 32568, Note_on_c, 0, 74, 82
2, 32591, Note_on_c, 0, 74, 0
2, 32592, Note_on_c, 0, 79, 82
2, 32615, Note_on_c, 0, 79, 0
2, 32616, Note_on_c, 0, 77, 83
2, 32639, Note_on_c, 0, 77, 0
2, 32640, Note_on_c, 0, 76, 83
2, 32663, Note_on_c, 0, 76, 0
2, 32664, Note_on_c, 0, 79, 83
2, 32687, Note_on_c, 0, 79, 0
2, 32688, Note_on_c, 0, 72, 83
2, 32711, Note_on_c, 0, 72, 0
2, 32712, Note_on_c, 0, 74, 83
2, 32735, Note_on_c, 0, 74, 0
2, 32736, Note_on_c, 0, 76, 84
2, 32751, Note_on_c, 0, 76, 0
2, 32752, Note_on_c, 0, 74, 84
2, 32767, Note_on_c, 0, 74, 0
2, 32768, Note_on_c, 0, 76, 84
2, 32783, Note_on_c, 0, 76, 0
2, 32784, Note_on_c, 0, 74, 84
2, 32799, Note_on_c, 0, 74, 0
2, 32800, Note_on_c, 0, 72, 84
2, 32815, Note_on_c, 0, 72, 0
2, 32816, Note_on_c, 0, 74, 84
2, 32831, Note_on_c, 0, 74, 0
2, 32832, Note_on_c, 0, 72, 84
2, 32921, Note_on_c, 0, 72, 0
2, 32976, Note_on_c, 0, 79, 70
2, 32976, Note_on_c, 0, 75, 70
2, 33024, Note_on_c, 0, 79, 0
2, 33024, Note_on_c, 0, 75, 0
2, 33024, Note_on_c, 0, 80, 70
2, 33024, Note_on_c, 0, 77, 70
2, 33069, Note_on_c, 0, 80, 0
2, 33069, Note_on_c, 0, 77, 0
2, 33168, Note_on_c, 0, 79, 70
2, 33168, Note_on_c, 0, 75, 70
2, 33216, Note_on_c, 0, 79, 0
2, 33216, Note_on_c, 0, 75, 0
2, 33216, Note_on_c, 0, 77, 70
2, 33216, Note_on_c, 0, 74, 70
2, 33261, Note_on_c, 0, 77, 0
2, 33261, Note_on_c, 0, 74, 0
2, 33360, Note_on_c, 0, 77, 70
2, 33360, Note_on_c, 0, 74, 70
2, 33408, Note_on_c, 0, 77, 0
2, 33408, Note_on_c, 0, 74, 0
2, 33408, Note_on_c, 0, 79, 70
2, 33408, Note_on_c, 0, 75, 70
2, 33453, Note_on_c, 0, 79, 0
2, 33453, Note_on_c, 0, 75, 0
2, 33552, Note_on_c, 0, 77, 70
2, 33552, Note_on_c, 0, 74, 70
2, 33600, Note_on_c, 0, 77, 0
2, 33600, Note_on_c, 0, 74, 0
2, 33600, Note_on_c, 0, 75, 70
2, 33600, Note_on_c, 0, 72, 70
2, 33645, Note_on_c, 0, 75, 0
2, 33645, Note_on_c, 0, 72, 0
2, 33744, Note_on_c, 0, 74, 70
2, 33744, Note_on_c, 0, 71, 70
2, 33792, Note_on_c, 0, 74, 0
2, 33792, Note_on_c, 0, 71, 0
2, 33792, Note_on_c, 0, 75, 70
2, 33792, Note_on_c, 0, 72, 70
2, 33837, Note_on_c, 0, 75, 0
2, 33837, Note_on_c, 0, 72, 0
2, 33936, Note_on_c, 0, 75, 70
2, 33936, Note_on_c, 0, 72, 70
2, 33981, Note_on_c, 0, 75, 0
2, 33981, Note_on_c, 0, 72, 0
2, 33984, Note_on_c, 0, 75, 70
2, 33996, Note_on_c, 0, 75, 0
2, 33996, Note_on_c, 0, 77, 70
2, 34008, Note_on_c, 0, 77, 0
2, 34008, Note_on_c, 0, 75, 70
2, 34032, Note_on_c, 0, 75, 0
2, 34032, Note_on_c, 0, 74, 70
2, 34077, Note_on_c, 0, 74, 0
2, 34128, Note_on_c, 0, 67, 75
2, 34143, Note_on_c, 0, 67, 0
2, 34144, Note_on_c, 0, 69, 75
2, 34159, Note_on_c, 0, 69, 0
2, 34160, Note_on_c, 0, 71, 75
2, 34175, Note_on_c, 0, 71, 0
2, 34176, Note_on_c, 0, 72, 75
2, 34221, Note_on_c, 0, 72, 0
2, 34224, Note_on_c, 0, 72, 75
2, 34239, Note_on_c, 0, 72, 0
2, 34240, Note_on_c, 0, 74, 75
2, 34255, Note_on_c, 0, 74, 0
2, 34256, Note_on_c, 0, 76, 75
2, 34271, Note_on_c, 0, 76, 0
2, 34272, Note_on_c, 0, 72, 75
2, 34317, Note_on_c, 0, 72, 0
2, 34320, Note_on_c, 0, 76, 75
2, 34335, Note_on_c, 0, 76, 0
2, 34336, Note_on_c, 0, 77, 75
2, 34351, Note_on_c, 0, 77, 0
2, 34352, Note_on_c, 0, 79, 75
2, 34367, Note_on_c, 0, 79, 0
2, 34368, Note_on_c, 0, 76, 75
2, 34413, Note_on_c, 0, 76, 0
2, 34416, Note_on_c, 0, 79, 75
2, 34431, Note_on_c, 0, 79, 0
2, 34432, Note_on_c, 0, 81, 75
2, 34447, Note_on_c, 0, 81, 0
2, 34448, Note_on_c, 0, 83, 75
2, 34463, Note_on_c, 0, 83, 0
2, 34464, Note_on_c, 0, 84, 75
2, 34509, Note_on_c, 0, 84, 0
2, 34512, Note_on_c, 0, 79, 75
2, 34557, Note_on_c, 0, 79, 0
2, 34560, Note_on_c, 0, 81, 75
2, 34605, Note_on_c, 0, 81, 0
2, 34608, Note_on_c, 0, 84, 75
2, 34623, Note_on_c, 0, 84, 0
2, 34624, Note_on_c, 0, 81, 75
2, 34639, Note_on_c, 0, 81, 0
2, 34640, Note_on_c, 0, 77, 75
2, 34655, Note_on_c, 0, 77, 0
2, 34656, Note_on_c, 0, 76, 75
2, 34701, Note_on_c, 0, 76, 0
2, 34704, Note_on_c, 0, 74, 75
2, 34716, Note_on_c, 0, 74, 0
2, 34716, Note_on_c, 0, 76, 75
2, 34728, Note_on_c, 0, 76, 0
2, 34728, Note_on_c, 0, 74, 75
2, 34749, Note_on_c, 0, 74, 0
2, 34752, Note_on_c, 0, 72, 75
2, 34841, Note_on_c, 0, 72, 0
2, 34896, Note_on_c, 0, 67, 75
2, 34911, Note_on_c, 0, 67, 0
2, 34912, Note_on_c, 0, 69, 75
2, 34927, Note_on_c, 0, 69, 0
2, 34928, Note_on_c, 0, 71, 75
2, 34943, Note_on_c, 0, 71, 0
2, 34944, Note_on_c, 0, 72, 75
2, 34989, Note_on_c, 0, 72, 0
2, 34992, Note_on_c, 0, 72, 75
2, 35007, Note_on_c, 0, 72, 0
2, 35008, Note_on_c, 0, 74, 75
2, 35023, Note_on_c, 0, 74, 0
2, 35024, Note_on_c, 0, 76, 75
2, 35039, Note_on_c, 0, 76, 0
2, 35040, Note_on_c, 0, 72, 75
2, 35085, Note_on_c, 0, 72, 0
2, 35088, Note_on_c, 0, 76, 75
2, 35103, Note_on_c, 0, 76, 0
2, 35104, Note_on_c, 0, 77, 75
2, 35119, Note_on_c, 0, 77, 0
2, 35120, Note_on_c, 0, 79, 75
2, 35135, Note_on_c, 0, 79, 0
2, 35136, Note_on_c, 0, 76, 75
2, 35181, Note_on_c, 0, 76, 0
2, 35184, Note_on_c, 0, 67, 80
2, 35207, Note_on_c, 0, 67, 0
2, 35208, Note_on_c, 0, 79, 80
2, 35231, Note_on_c, 0, 79, 0
2, 35232, Note_on_c, 0, 67, 80
2, 35255, Note_on_c, 0, 67, 0
2, 35256, Note_on_c, 0, 79, 80
2, 35279, Note_on_c, 0, 79, 0
2, 35280, Note_on_c, 0, 67, 80
2, 35303, Note_on_c, 0, 67, 0
2, 35304, Note_on_c, 0, 79, 80
2, 35327, Note_on_c, 0, 79, 0
2, 35328, Note_on_c, 0, 69, 80
2, 35351, Note_on_c, 0, 69, 0
2, 35352, Note_on_c, 0, 79, 80
2, 35375, Note_on_c, 0, 79, 0
2, 35376, Note_on_c, 0, 69, 80
2, 35399, Note_on_c, 0, 69, 0
2, 35400, Note_on_c, 0, 79, 80
2, 35423, Note_on_c, 0, 79, 0
2, 35424, Note_on_c, 0, 69, 80
2, 35447, Note_on_c, 0, 69, 0
2, 35448, Note_on_c, 0, 77, 80
2, 35471, Note_on_c, 0, 77, 0
2, 35472, Note_on_c, 0, 69, 80
2, 35495, Note_on_c, 0, 69, 0
2, 35496, Note_on_c, 0, 77, 80
2, 35519, Note_on_c, 0, 77, 0
2, 35520, Note_on_c, 0, 67, 80
2, 35543, Note_on_c, 0, 67, 0
2, 35544, Note_on_c, 0, 77, 80
2, 35567, Note_on_c, 0, 77, 0
2, 35568, Note_on_c, 0, 67, 80
2, 35591, Note_on_c, 0, 67, 0
2, 35592, Note_on_c, 0, 77, 80
2, 35615, Note_on_c, 0, 77, 0
2, 35616, Note_on_c, 0, 67, 80
2, 35639, Note_on_c, 0, 67, 0
2, 35640, Note_on_c, 0, 76, 80
2, 35663, Note_on_c, 0, 76, 0
2, 35664, Note_on_c, 0, 67, 80
2, 35687, Note_on_c, 0, 67, 0
2, 35688, Note_on_c, 0, 76, 80
2, 35711, Note_on_c, 0, 76, 0
2, 35712, Note_on_c, 0, 65, 80
2, 35735, Note_on_c, 0, 65, 0
2, 35736, Note_on_c, 0, 74, 80
2, 35759, Note_on_c, 0, 74, 0
2, 35760, Note_on_c, 0, 65, 80
2, 35783, Note_on_c, 0, 65, 0
2, 35784, Note_on_c, 0, 74, 80
2, 35807, Note_on_c, 0, 74, 0
2, 35808, Note_on_c, 0, 62, 80
2, 35831, Note_on_c, 0, 62, 0
2, 35832, Note_on_c, 0, 71, 80
2, 35855, Note_on_c, 0, 71, 0
2, 35856, Note_on_c, 0, 62, 80
2, 35879, Note_on_c, 0, 62, 0
2, 35880, Note_on_c, 0, 71, 80
2, 35903, Note_on_c, 0, 71, 0
2, 35904, Note_on_c, 0, 72, 80
2, 35904, Note_on_c, 0, 64, 80
2, 35993, Note_on_c, 0, 72, 0
2, 35993, Note_on_c, 0, 64, 0
2, 36096, End_track
3, 0, Start_track
3, 0, Program_c, 0, 0
3, 0, Control_c, 0, 7, 127
3, 0, Control_c, 0, 10, 64
3, 4800, Note_on_c, 0, 67, 64
3, 4848, Note_on_c, 0, 67, 0
3, 4848, Note_on_c, 0, 66, 64
3, 4893, Note_on_c, 0, 66, 0
3, 11712, Note_on_c, 0, 67, 64
3, 11760, Note_on_c, 0, 67, 0
3, 11760, Note_on_c, 0, 66, 64
3, 11805, Note_on_c, 0, 66, 0
3, 22848, Note_on_c, 0, 72, 64
3, 22896, Note_on_c, 0, 72, 0
3, 22896, Note_on_c, 0, 71, 64
3, 22941, Note_on_c, 0, 71, 0
3, 33984, Note_on_c, 0, 72, 64
3, 34032, Note_on_c, 0, 72, 0
3, 34032, Note_on_c, 0, 71, 64
3, 34077, Note_on_c, 0, 71, 0
3, 36096, End_track
4, 0, Start_track
4, 0, Program_c, 1, 0
4, 0, Control_c, 1, 7, 127
4, 0, Control_c, 1, 10, 64
4, 0, Note_on_c, 1, 64, 64
4, 0, Note_on_c, 1, 60, 64
4, 47, Note_on_c, 1, 64, 0
4, 47, Note_on_c, 1, 60, 0
4, 48, Note_on_c, 1, 64, 64
4, 48, Note_on_c, 1, 60, 64
4, 95, Note_on_c, 1, 64, 0
4, 95, Note_on_c, 1, 60, 0
4, 96, Note_on_c, 1, 64, 64
4, 96, Note_on_c, 1, 60, 64
4, 143, Note_on_c, 1, 64, 0
4, 143, Note_on_c, 1, 60, 0
4, 144, Note_on_c, 1, 64, 64
4, 144, Note_on_c, 1, 60, 64
4, 191, Note_on_c, 1, 64, 0
4, 191, Note_on_c, 1, 60, 0
4, 192, Note_on_c, 1, 64, 64
4, 192, Note_on_c, 1, 60, 64
4, 239, Note_on_c, 1, 64, 0
4, 239, Note_on_c, 1, 60, 0
4, 240, Note_on_c, 1, 64, 64
4, 240, Note_on_c, 1, 60, 64
4, 287, Note_on_c, 1, 64, 0
4, 287, Note_on_c, 1, 60, 0
4, 288, Note_on_c, 1, 64, 64
4, 288, Note_on_c, 1, 60, 64
4, 335, Note_on_c, 1, 64, 0
4, 335, Note_on_c, 1, 60, 0
4, 336, Note_on_c, 1, 64, 64
4, 336, Note_on_c, 1, 60, 64
4, 383, Note_on_c, 1, 64, 0
4, 383, Note_on_c, 1, 60, 0
4, 384, Note_on_c, 1, 65, 64
4, 384, Note_on_c, 1, 60, 64
4, 431, Note_on_c, 1, 65, 0
4, 431, Note_on_c, 1, 60, 0
4, 432, Note_on_c, 1, 65, 64
4, 432, Note_on_c, 1, 60, 64
4, 479, Note_on_c, 1, 65, 0
4, 479, Note_on_c, 1, 60, 0
4, 480, Note_on_c, 1, 65, 64
4, 480, Note_on_c, 1, 60, 64
4, 527, Note_on_c, 1, 65, 0
4, 527, Note_on_c, 1, 60, 0
4, 528, Note_on_c, 1, 65, 64
4, 528, Note_on_c, 1, 60, 64
4, 575, Note_on_c, 1, 65, 0
4, 575, Note_on_c, 1, 60, 0
4, 576, Note_on_c, 1, 65, 64
4, 576, Note_on_c, 1, 60, 64
4, 623, Note_on_c, 1, 65, 0
4, 623, Note_on_c, 1, 60, 0
4, 624, Note_on_c, 1, 65, 64
4, 624, Note_on_c, 1, 60, 64
4, 671, Note_on_c, 1, 65, 0
4, 671, Note_on_c, 1, 60, 0
4, 672, Note_on_c, 1, 65, 64
4, 672, Note_on_c, 1, 60, 64
4, 719, Note_on_c, 1, 65, 0
4, 719, Note_on_c, 1, 60, 0
4, 720, Note_on_c, 1, 65, 64
4, 720, Note_on_c, 1, 60, 64
4, 767, Note_on_c, 1, 65, 0
4, 767, Note_on_c, 1, 60, 0
4, 768, Note_on_c, 1, 64, 64
4, 768, Note_on_c, 1, 60, 64
4, 815, Note_on_c, 1, 64, 0
4, 815, Note_on_c, 1, 60, 0
4, 816, Note_on_c, 1, 64, 64
4, 816, Note_on_c, 1, 60, 64
4, 863, Note_on_c, 1, 64, 0
4, 863, Note_on_c, 1, 60, 0
4, 864, Note_on_c, 1, 64, 64
4, 864, Note_on_c, 1, 60, 64
4, 911, Note_on_c, 1, 64, 0
4, 911, Note_on_c, 1, 60, 0
4, 912, Note_on_c, 1, 64, 64
4, 912, Note_on_c, 1, 60, 64
4, 959, Note_on_c, 1, 64, 0
4, 959, Note_on_c, 1, 60, 0
4, 960, Note_on_c, 1, 64, 64
4, 960, Note_on_c, 1, 60, 64
4, 1007, Note_on_c, 1, 64, 0
4, 1007, Note_on_c, 1, 60, 0
4, 1008, Note_on_c, 1, 64, 64
4, 1008, Note_on_c, 1, 60, 64
4, 1055, Note_on_c, 1, 64, 0
4, 1055, Note_on_c, 1, 60, 0
4, 1056, Note_on_c, 1, 64, 64
4, 1056, Note_on_c, 1, 60, 64
4, 1103, Note_on_c, 1, 64, 0
4, 1103, Note_on_c, 1, 60, 0
4, 1104, Note_on_c, 1, 64, 64
4, 1104, Note_on_c, 1, 60, 64
4, 1151, Note_on_c, 1, 64, 0
4, 1151, Note_on_c, 1, 60, 0
4, 1152, Note_on_c, 1, 62, 70
4, 1197, Note_on_c, 1, 62, 0
4, 1200, Note_on_c, 1, 59, 70
4, 1245, Note_on_c, 1, 59, 0
4, 1248, Note_on_c, 1, 60, 70
4, 1293, Note_on_c, 1, 60, 0
4, 1296, Note_on_c, 1, 64, 70
4, 1341, Note_on_c, 1, 64, 0
4, 1344, Note_on_c, 1, 62, 70
4, 1389, Note_on_c, 1, 62, 0
4, 1392, Note_on_c, 1, 59, 70
4, 1437, Note_on_c, 1, 59, 0
4, 1440, Note_on_c, 1, 60, 70
4, 1485, Note_on_c, 1, 60, 0
4, 1488, Note_on_c, 1, 64, 70
4, 1533, Note_on_c, 1, 64, 0
4, 1536, Note_on_c, 1, 62, 75
4, 1536, Note_on_c, 1, 55, 75
4, 1625, Note_on_c, 1, 62, 0
4, 1625, Note_on_c, 1, 55, 0
4, 1632, Note_on_c, 1, 60, 75
4, 1632, Note_on_c, 1, 55, 75
4, 1721, Note_on_c, 1, 60, 0
4, 1721, Note_on_c, 1, 55, 0
4, 1728, Note_on_c, 1, 60, 75
4, 1773, Note_on_c, 1, 60, 0
4, 1776, Note_on_c, 1, 59, 75
4, 1821, Note_on_c, 1, 59, 0
4, 2112, Note_on_c, 1, 59, 80
4, 2112, Note_on_c, 1, 47, 80
4, 2157, Note_on_c, 1, 59, 0
4, 2157, Note_on_c, 1, 47, 0
4, 2160, Note_on_c, 1, 60, 80
4, 2160, Note_on_c, 1, 48, 80
4, 2205, Note_on_c, 1, 60, 0
4, 2205, Note_on_c, 1, 48, 0
4, 2208, Note_on_c, 1, 59, 80
4, 2208, Note_on_c, 1, 47, 80
4, 2253, Note_on_c, 1, 59, 0
4, 2253, Note_on_c, 1, 47, 0
4, 2496, Note_on_c, 1, 59, 80
4, 2541, Note_on_c, 1, 59, 0
4, 2544, Note_on_c, 1, 57, 80
4, 2589, Note_on_c, 1, 57, 0
4, 2592, Note_on_c, 1, 55, 80
4, 2637, Note_on_c, 1, 55, 0
4, 2640, Note_on_c, 1, 47, 80
4, 2685, Note_on_c, 1, 47, 0
4, 2688, Note_on_c, 1, 48, 80
4, 2733, Note_on_c, 1, 48, 0
4, 2736, Note_on_c, 1, 50, 80
4, 2781, Note_on_c, 1, 50, 0
4, 2784, Note_on_c, 1, 52, 81
4, 2829, Note_on_c, 1, 52, 0
4, 2832, Note_on_c, 1, 49, 81
4, 2877, Note_on_c, 1, 49, 0
4, 2880, Note_on_c, 1, 50, 81
4, 2925, Note_on_c, 1, 50, 0
4, 2928, Note_on_c, 1, 52, 81
4, 2973, Note_on_c, 1, 52, 0
4, 2976, Note_on_c, 1, 54, 82
4, 3021, Note_on_c, 1, 54, 0
4, 3024, Note_on_c, 1, 51, 82
4, 3069, Note_on_c, 1, 51, 0
4, 3072, Note_on_c, 1, 52, 82
4, 3117, Note_on_c, 1, 52, 0
4, 3120, Note_on_c, 1, 54, 82
4, 3165, Note_on_c, 1, 54, 0
4, 3168, Note_on_c, 1, 55, 83
4, 3213, Note_on_c, 1, 55, 0
4, 3216, Note_on_c, 1, 52, 83
4, 3261, Note_on_c, 1, 52, 0
4, 3264, Note_on_c, 1, 54, 83
4, 3309, Note_on_c, 1, 54, 0
4, 3312, Note_on_c, 1, 55, 83
4, 3357, Note_on_c, 1, 55, 0
4, 3360, Note_on_c, 1, 57, 84
4, 3405, Note_on_c, 1, 57, 0
4, 3408, Note_on_c, 1, 54, 84
4, 3453, Note_on_c, 1, 54, 0
4, 3456, Note_on_c, 1, 55, 84
4, 3501, Note_on_c, 1, 55, 0
4, 3504, Note_on_c, 1, 59, 84
4, 3549, Note_on_c, 1, 59, 0
4, 3552, Note_on_c, 1, 60, 85
4, 3597, Note_on_c, 1, 60, 0
4, 3600, Note_on_c, 1, 62, 85
4, 3645, Note_on_c, 1, 62, 0
4, 3648, Note_on_c, 1, 55, 85
4, 3693, Note_on_c, 1, 55, 0
4, 3696, Note_on_c, 1, 50, 86
4, 3741, Note_on_c, 1, 50, 0
4, 3744, Note_on_c, 1, 43, 86
4, 3833, Note_on_c, 1, 43, 0
4, 3888, Note_on_c, 1, 55, 70
4, 3888, Note_on_c, 1, 43, 70
4, 3936, Note_on_c, 1, 55, 0
4, 3936, Note_on_c, 1, 43, 0
4, 3936, Note_on_c, 1, 57, 70
4, 3936, Note_on_c, 1, 45, 70
4, 3981, Note_on_c, 1, 57, 0
4, 3981, Note_on_c, 1, 45, 0
4, 4080, Note_on_c, 1, 55, 70
4, 4080, Note_on_c, 1, 43, 70
4, 4128, Note_on_c, 1, 55, 0
4, 4128, Note_on_c, 1, 43, 0
4, 4128, Note_on_c, 1, 54, 70
4, 4128, Note_on_c, 1, 42, 70
4, 4173, Note_on_c, 1, 54, 0
4, 4173, Note_on_c, 1, 42, 0
4, 4272, Note_on_c, 1, 54, 70
4, 4272, Note_on_c, 1, 42, 70
4, 4320, Note_on_c, 1, 54, 0
4, 4320, Note_on_c, 1, 42, 0
4, 4320, Note_on_c, 1, 55, 70
4, 4320, Note_on_c, 1, 43, 70
4, 4365, Note_on_c, 1, 55, 0
4, 4365, Note_on_c, 1, 43, 0
4, 4464, Note_on_c, 1, 53, 70
4, 4464, Note_on_c, 1, 41, 70
4, 4512, Note_on_c, 1, 53, 0
4, 4512, Note_on_c, 1, 41, 0
4, 4512, Note_on_c, 1, 51, 70
4, 4512, Note_on_c, 1, 39, 70
4, 4557, Note_on_c, 1, 51, 0
4, 4557, Note_on_c, 1, 39, 0
4, 4656, Note_on_c, 1, 50, 68
4, 4656, Note_on_c, 1, 38, 68
4, 4704, Note_on_c, 1, 50, 0
4, 4704, Note_on_c, 1, 38, 0
4, 4704, Note_on_c, 1, 49, 67
4, 4704, Note_on_c, 1, 37, 67
4, 4749, Note_on_c, 1, 49, 0
4, 4749, Note_on_c, 1, 37, 0
4, 4752, Note_on_c, 1, 49, 66
4, 4752, Note_on_c, 1, 37, 66
4, 4772, Note_on_c, 1, 49, 0
4, 4772, Note_on_c, 1, 37, 0
4, 4800, Note_on_c, 1, 50, 65
4, 4800, Note_on_c, 1, 38, 65
4, 4889, Note_on_c, 1, 50, 0
4, 4889, Note_on_c, 1, 38, 0
4, 4992, Note_on_c, 1, 59, 75
4, 4992, Note_on_c, 1, 55, 75
4, 5081, Note_on_c, 1, 59, 0
4, 5081, Note_on_c, 1, 55, 0
4, 5328, Note_on_c, 1, 59, 75
4, 5328, Note_on_c, 1, 55, 75
4, 5373, Note_on_c, 1, 59, 0
4, 5373, Note_on_c, 1, 55, 0
4, 5376, Note_on_c, 1, 60, 75
4, 5376, Note_on_c, 1, 48, 75
4, 5465, Note_on_c, 1, 60, 0
4, 5465, Note_on_c, 1, 48, 0
4, 5472, Note_on_c, 1, 59, 75
4, 5517, Note_on_c, 1, 59, 0
4, 5520, Note_on_c, 1, 57, 75
4, 5565, Note_on_c, 1, 57, 0
4, 5568, Note_on_c, 1, 55, 75
4, 5613, Note_on_c, 1, 55, 0
4, 5616, Note_on_c, 1, 50, 75
4, 5661, Note_on_c, 1, 50, 0
4, 5664, Note_on_c, 1, 43, 75
4, 5753, Note_on_c, 1, 43, 0
4, 5760, Note_on_c, 1, 59, 75
4, 5760, Note_on_c, 1, 55, 75
4, 5849, Note_on_c, 1, 59, 0
4, 5849, Note_on_c, 1, 55, 0
4, 6000, Note_on_c, 1, 59, 80
4, 6000, Note_on_c, 1, 47, 80
4, 6045, Note_on_c, 1, 59, 0
4, 6045, Note_on_c, 1, 47, 0
4, 6048, Note_on_c, 1, 59, 80
4, 6048, Note_on_c, 1, 47, 80
4, 6093, Note_on_c, 1, 59, 0
4, 6093, Note_on_c, 1, 47, 0
4, 6096, Note_on_c, 1, 59, 80
4, 6096, Note_on_c, 1, 47, 80
4, 6141, Note_on_c, 1, 59, 0
4, 6141, Note_on_c, 1, 47, 0
4, 6144, Note_on_c, 1, 60, 80
4, 6144, Note_on_c, 1, 48, 80
4, 6189, Note_on_c, 1, 60, 0
4, 6189, Note_on_c, 1, 48, 0
4, 6192, Note_on_c, 1, 60, 80
4, 6192, Note_on_c, 1, 48, 80
4, 6237, Note_on_c, 1, 60, 0
4, 6237, Note_on_c, 1, 48, 0
4, 6240, Note_on_c, 1, 57, 80
4, 6240, Note_on_c, 1, 45, 80
4, 6285, Note_on_c, 1, 57, 0
4, 6285, Note_on_c, 1, 45, 0
4, 6288, Note_on_c, 1, 57, 80
4, 6288, Note_on_c, 1, 45, 80
4, 6333, Note_on_c, 1, 57, 0
4, 6333, Note_on_c, 1, 45, 0
4, 6336, Note_on_c, 1, 54, 80
4, 6336, Note_on_c, 1, 42, 80
4, 6381, Note_on_c, 1, 54, 0
4, 6381, Note_on_c, 1, 42, 0
4, 6384, Note_on_c, 1, 54, 80
4, 6384, Note_on_c, 1, 42, 80
4, 6429, Note_on_c, 1, 54, 0
4, 6429, Note_on_c, 1, 42, 0
4, 6432, Note_on_c, 1, 55, 80
4, 6432, Note_on_c, 1, 43, 80
4, 6477, Note_on_c, 1, 55, 0
4, 6477, Note_on_c, 1, 43, 0
4, 6480, Note_on_c, 1, 55, 80
4, 6480, Note_on_c, 1, 43, 80
4, 6525, Note_on_c, 1, 55, 0
4, 6525, Note_on_c, 1, 43, 0
4, 6528, Note_on_c, 1, 48, 80
4, 6528, Note_on_c, 1, 36, 80
4, 6573, Note_on_c, 1, 48, 0
4, 6573, Note_on_c, 1, 36, 0
4, 6576, Note_on_c, 1, 48, 80
4, 6576, Note_on_c, 1, 36, 80
4, 6621, Note_on_c, 1, 48, 0
4, 6621, Note_on_c, 1, 36, 0
4, 6624, Note_on_c, 1, 50, 80
4, 6624, Note_on_c, 1, 38, 80
4, 6669, Note_on_c, 1, 50, 0
4, 6669, Note_on_c, 1, 38, 0
4, 6672, Note_on_c, 1, 50, 80
4, 6672, Note_on_c, 1, 38, 80
4, 6717, Note_on_c, 1, 50, 0
4, 6717, Note_on_c, 1, 38, 0
4, 6720, Note_on_c, 1, 55, 80
4, 6765, Note_on_c, 1, 55, 0
4, 6768, Note_on_c, 1, 50, 80
4, 6813, Note_on_c, 1, 50, 0
4, 6816, Note_on_c, 1, 43, 80
4, 6905, Note_on_c, 1, 43, 0
4, 6912, Note_on_c, 1, 64, 64
4, 6912, Note_on_c, 1, 60, 64
4, 6959, Note_on_c, 1, 64, 0
4, 6959, Note_on_c, 1, 60, 0
4, 6960, Note_on_c, 1, 64, 64
4, 6960, Note_on_c, 1, 60, 64
4, 7007, Note_on_c, 1, 64, 0
4, 7007, Note_on_c, 1, 60, 0
4, 7008, Note_on_c, 1, 64, 64
4, 7008, Note_on_c, 1, 60, 64
4, 7055, Note_on_c, 1, 64, 0
4, 7055, Note_on_c, 1, 60, 0
4, 7056, Note_on_c, 1, 64, 64
4, 7056, Note_on_c, 1, 60, 64
4, 7103, Note_on_c, 1, 64, 0
4, 7103, Note_on_c, 1, 60, 0
4, 7104, Note_on_c, 1, 64, 64
4, 7104, Note_on_c, 1, 60, 64
4, 7151, Note_on_c, 1, 64, 0
4, 7151, Note_on_c, 1, 60, 0
4, 7152, Note_on_c, 1, 64, 64
4, 7152, Note_on_c, 1, 60, 64
4, 7199, Note_on_c, 1, 64, 0
4, 7199, Note_on_c, 1, 60, 0
4, 7200, Note_on_c, 1, 64, 64
4, 7200, Note_on_c, 1, 60, 64
4, 7247, Note_on_c, 1, 64, 0
4, 7247, Note_on_c, 1, 60, 0
4, 7248, Note_on_c, 1, 64, 64
4, 7248, Note_on_c, 1, 60, 64
4, 7295, Note_on_c, 1, 64, 0
4, 7295, Note_on_c, 1, 60, 0
4, 7296, Note_on_c, 1, 65, 64
4, 7296, Note_on_c, 1, 60, 64
4, 7343, Note_on_c, 1, 65, 0
4, 7343, Note_on_c, 1, 60, 0
4, 7344, Note_on_c, 1, 65, 64
4, 7344, Note_on_c, 1, 60, 64
4, 7391, Note_on_c, 1, 65, 0
4, 7391, Note_on_c, 1, 60, 0
4, 7392, Note_on_c, 1, 65, 64
4, 7392, Note_on_c, 1, 60, 64
4, 7439, Note_on_c, 1, 65, 0
4, 7439, Note_on_c, 1, 60, 0
4, 7440, Note_on_c, 1, 65, 64
4, 7440, Note_on_c, 1, 60, 64
4, 7487, Note_on_c, 1, 65, 0
4, 7487, Note_on_c, 1, 60, 0
4, 7488, Note_on_c, 1, 65, 64
4, 7488, Note_on_c, 1, 60, 64
4, 7535, Note_on_c, 1, 65, 0
4, 7535, Note_on_c, 1, 60, 0
4, 7536, Note_on_c, 1, 65, 64
4, 7536, Note_on_c, 1, 60, 64
4, 7583, Note_on_c, 1, 65, 0
4, 7583, Note_on_c, 1, 60, 0
4, 7584, Note_on_c, 1, 65, 64
4, 7584, Note_on_c, 1, 60, 64
4, 7631, Note_on_c, 1, 65, 0
4, 7631, Note_on_c, 1, 60, 0
4, 7632, Note_on_c, 1, 65, 64
4, 7632, Note_on_c, 1, 60, 64
4, 7679, Note_on_c, 1, 65, 0
4, 7679, Note_on_c, 1, 60, 0
4, 7680, Note_on_c, 1, 64, 64
4, 7680, Note_on_c, 1, 60, 64
4, 7727, Note_on_c, 1, 64, 0
4, 7727, Note_on_c, 1, 60, 0
4, 7728, Note_on_c, 1, 64, 64
4, 7728, Note_on_c, 1, 60, 64
4, 7775, Note_on_c, 1, 64, 0
4, 7775, Note_on_c, 1, 60, 0
4, 7776, Note_on_c, 1, 64, 64
4, 7776, Note_on_c, 1, 60, 64
4, 7823, Note_on_c, 1, 64, 0
4, 7823, Note_on_c, 1, 60, 0
4, 7824, Note_on_c, 1, 64, 64
4, 7824, Note_on_c, 1, 60, 64
4, 7871, Note_on_c, 1, 64, 0
4, 7871, Note_on_c, 1, 60, 0
4, 7872, Note_on_c, 1, 64, 64
4, 7872, Note_on_c, 1, 60, 64
4, 7919, Note_on_c, 1, 64, 0
4, 7919, Note_on_c, 1, 60, 0
4, 7920, Note_on_c, 1, 64, 64
4, 7920, Note_on_c, 1, 60, 64
4, 7967, Note_on_c, 1, 64, 0
4, 7967, Note_on_c, 1, 60, 0
4, 7968, Note_on_c, 1, 64, 64
4, 7968, Note_on_c, 1, 60, 64
4, 8015, Note_on_c, 1, 64, 0
4, 8015, Note_on_c, 1, 60, 0
4, 8016, Note_on_c, 1, 64, 64
4, 8016, Note_on_c, 1, 60, 64
4, 8063, Note_on_c, 1, 64, 0
4, 8063, Note_on_c, 1, 60, 0
4, 8064, Note_on_c, 1, 62, 70
4, 8109, Note_on_c, 1, 62, 0
4, 8112, Note_on_c, 1, 59, 70
4, 8157, Note_on_c, 1, 59, 0
4, 8160, Note_on_c, 1, 60, 70
4, 8205, Note_on_c, 1, 60, 0
4, 8208, Note_on_c, 1, 64, 70
4, 8253, Note_on_c, 1, 64, 0
4, 8256, Note_on_c, 1, 62, 70
4, 8301, Note_on_c, 1, 62, 0
4, 8304, Note_on_c, 1, 59, 70
4, 8349, Note_on_c, 1, 59, 0
4, 8352, Note_on_c, 1, 60, 70
4, 8397, Note_on_c, 1, 60, 0
4, 8400, Note_on_c, 1, 64, 70
4, 8445, Note_on_c, 1, 64, 0
4, 8448, Note_on_c, 1, 62, 75
4, 8448, Note_on_c, 1, 55, 75
4, 8537, Note_on_c, 1, 62, 0
4, 8537, Note_on_c, 1, 55, 0
4, 8544, Note_on_c, 1, 60, 75
4, 8544, Note_on_c, 1, 55, 75
4, 8633, Note_on_c, 1, 60, 0
4, 8633, Note_on_c, 1, 55, 0
4, 8640, Note_on_c, 1, 60, 75
4, 8685, Note_on_c, 1, 60, 0
4, 8688, Note_on_c, 1, 59, 75
4, 8733, Note_on_c, 1, 59, 0
4, 9024, Note_on_c, 1, 59, 80
4, 9024, Note_on_c, 1, 47, 80
4, 9069, Note_on_c, 1, 59, 0
4, 9069, Note_on_c, 1, 47, 0
4, 9072, Note_on_c, 1, 60, 80
4, 9072, Note_on_c, 1, 48, 80
4, 9117, Note_on_c, 1, 60, 0
4, 9117, Note_on_c, 1, 48, 0
4, 9120, Note_on_c, 1, 59, 80
4, 9120, Note_on_c, 1, 47, 80
4, 9165, Note_on_c, 1, 59, 0
4, 9165, Note_on_c, 1, 47, 0
4, 9408, Note_on_c, 1, 59, 80
4, 9453, Note_on_c, 1, 59, 0
4, 9456, Note_on_c, 1, 57, 80
4, 9501, Note_on_c, 1, 57, 0
4, 9504, Note_on_c, 1, 55, 80
4, 9549, Note_on_c, 1, 55, 0
4, 9552, Note_on_c, 1, 47, 80
4, 9597, Note_on_c, 1, 47, 0
4, 9600, Note_on_c, 1, 48, 80
4, 9645, Note_on_c, 1, 48, 0
4, 9648, Note_on_c, 1, 50, 80
4, 9693, Note_on_c, 1, 50, 0
4, 9696, Note_on_c, 1, 52, 81
4, 9741, Note_on_c, 1, 52, 0
4, 9744, Note_on_c, 1, 49, 81
4, 9789, Note_on_c, 1, 49, 0
4, 9792, Note_on_c, 1, 50, 81
4, 9837, Note_on_c, 1, 50, 0
4, 9840, Note_on_c, 1, 52, 81
4, 9885, Note_on_c, 1, 52, 0
4, 9888, Note_on_c, 1, 54, 82
4, 9933, Note_on_c, 1, 54, 0
4, 9936, Note_on_c, 1, 51, 82
4, 9981, Note_on_c, 1, 51, 0
4, 9984, Note_on_c, 1, 52, 82
4, 10029, Note_on_c, 1, 52, 0
4, 10032, Note_on_c, 1, 54, 82
4, 10077, Note_on_c, 1, 54, 0
4, 10080, Note_on_c, 1, 55, 83
4, 10125, Note_on_c, 1, 55, 0
4, 10128, Note_on_c, 1, 52, 83
4, 10173, Note_on_c, 1, 52, 0
4, 10176, Note_on_c, 1, 54, 83
4, 10221, Note_on_c, 1, 54, 0
4, 10224, Note_on_c, 1, 55, 83
4, 10269, Note_on_c, 1, 55, 0
4, 10272, Note_on_c, 1, 57, 84
4, 10317, Note_on_c, 1, 57, 0
4, 10320, Note_on_c, 1, 54, 84
4, 10365, Note_on_c, 1, 54, 0
4, 10368, Note_on_c, 1, 55, 84
4, 10413, Note_on_c, 1, 55, 0
4, 10416, Note_on_c, 1, 59, 84
4, 10461, Note_on_c, 1, 59, 0
4, 10464, Note_on_c, 1, 60, 85
4, 10509, Note_on_c, 1, 60, 0
4, 10512, Note_on_c, 1, 62, 85
4, 10557, Note_on_c, 1, 62, 0
4, 10560, Note_on_c, 1, 55, 85
4, 10605, Note_on_c, 1, 55, 0
4, 10608, Note_on_c, 1, 50, 86
4, 10653, Note_on_c, 1, 50, 0
4, 10656, Note_on_c, 1, 43, 86
4, 10745, Note_on_c, 1, 43, 0
4, 10800, Note_on_c, 1, 55, 70
4, 10800, Note_on_c, 1, 43, 70
4, 10848, Note_on_c, 1, 55, 0
4, 10848, Note_on_c, 1, 43, 0
4, 10848, Note_on_c, 1, 57, 70
4, 10848, Note_on_c, 1, 45, 70
4, 10893, Note_on_c, 1, 57, 0
4, 10893, Note_on_c, 1, 45, 0
4, 10992, Note_on_c, 1, 55, 70
4, 10992, Note_on_c, 1, 43, 70
4, 11040, Note_on_c, 1, 55, 0
4, 11040, Note_on_c, 1, 43, 0
4, 11040, Note_on_c, 1, 54, 70
4, 11040, Note_on_c, 1, 42, 70
4, 11085, Note_on_c, 1, 54, 0
4, 11085, Note_on_c, 1, 42, 0
4, 11184, Note_on_c, 1, 54, 70
4, 11184, Note_on_c, 1, 42, 70
4, 11232, Note_on_c, 1, 54, 0
4, 11232, Note_on_c, 1, 42, 0
4, 11232, Note_on_c, 1, 55, 70
4, 11232, Note_on_c, 1, 43, 70
4, 11277, Note_on_c, 1, 55, 0
4, 11277, Note_on_c, 1, 43, 0
4, 11376, Note_on_c, 1, 53, 70
4, 11376, Note_on_c, 1, 41, 70
4, 11424, Note_on_c, 1, 53, 0
4, 11424, Note_on_c, 1, 41, 0
4, 11424, Note_on_c, 1, 51, 70
4, 11424, Note_on_c, 1, 39, 70
4, 11469, Note_on_c, 1, 51, 0
4, 11469, Note_on_c, 1, 39, 0
4, 11568, Note_on_c, 1, 50, 68
4, 11568, Note_on_c, 1, 38, 68
4, 11616, Note_on_c, 1, 50, 0
4, 11616, Note_on_c, 1, 38, 0
4, 11616, Note_on_c, 1, 49, 67
4, 11616, Note_on_c, 1, 37, 67
4, 11661, Note_on_c, 1, 49, 0
4, 11661, Note_on_c, 1, 37, 0
4, 11664, Note_on_c, 1, 49, 66
4, 11664, Note_on_c, 1, 37, 66
4, 11684, Note_on_c, 1, 49, 0
4, 11684, Note_on_c, 1, 37, 0
4, 11712, Note_on_c, 1, 50, 65
4, 11712, Note_on_c, 1, 38, 65
4, 11801, Note_on_c, 1, 50, 0
4, 11801, Note_on_c, 1, 38, 0
4, 11904, Note_on_c, 1, 59, 75
4, 11904, Note_on_c, 1, 55, 75
4, 11993, Note_on_c, 1, 59, 0
4, 11993, Note_on_c, 1, 55, 0
4, 12240, Note_on_c, 1, 59, 75
4, 12240, Note_on_c, 1, 55, 75
4, 12285, Note_on_c, 1, 59, 0
4, 12285, Note_on_c, 1, 55, 0
4, 12288, Note_on_c, 1, 60, 75
4, 12288, Note_on_c, 1, 48, 75
4, 12377, Note_on_c, 1, 60, 0
4, 12377, Note_on_c, 1, 48, 0
4, 12384, Note_on_c, 1, 59, 75
4, 12429, Note_on_c, 1, 59, 0
4, 12432, Note_on_c, 1, 57, 75
4, 12477, Note_on_c, 1, 57, 0
4, 12480, Note_on_c, 1, 55, 75
4, 12525, Note_on_c, 1, 55, 0
4, 12528, Note_on_c, 1, 50, 75
4, 12573, Note_on_c, 1, 50, 0
4, 12576, Note_on_c, 1, 43, 75
4, 12665, Note_on_c, 1, 43, 0
4, 12672, Note_on_c, 1, 59, 75
4, 12672, Note_on_c, 1, 55, 75
4, 12761, Note_on_c, 1, 59, 0
4, 12761, Note_on_c, 1, 55, 0
4, 12912, Note_on_c, 1, 59, 80
4, 12912, Note_on_c, 1, 47, 80
4, 12957, Note_on_c, 1, 59, 0
4, 12957, Note_on_c, 1, 47, 0
4, 12960, Note_on_c, 1, 59, 80
4, 12960, Note_on_c, 1, 47, 80
4, 13005, Note_on_c, 1, 59, 0
4, 13005, Note_on_c, 1, 47, 0
4, 13008, Note_on_c, 1, 59, 80
4, 13008, Note_on_c, 1, 47, 80
4, 13053, Note_on_c, 1, 59, 0
4, 13053, Note_on_c, 1, 47, 0
4, 13056, Note_on_c, 1, 60, 80
4, 13056, Note_on_c, 1, 48, 80
4, 13101, Note_on_c, 1, 60, 0
4, 13101, Note_on_c, 1, 48, 0
4, 13104, Note_on_c, 1, 60, 80
4, 13104, Note_on_c, 1, 48, 80
4, 13149, Note_on_c, 1, 60, 0
4, 13149, Note_on_c, 1, 48, 0
4, 13152, Note_on_c, 1, 57, 80
4, 13152, Note_on_c, 1, 45, 80
4, 13197, Note_on_c, 1, 57, 0
4, 13197, Note_on_c, 1, 45, 0
4, 13200, Note_on_c, 1, 57, 80
4, 13200, Note_on_c, 1, 45, 80
4, 13245, Note_on_c, 1, 57, 0
4, 13245, Note_on_c, 1, 45, 0
4, 13248, Note_on_c, 1, 54, 80
4, 13248, Note_on_c, 1, 42, 80
4, 13293, Note_on_c, 1, 54, 0
4, 13293, Note_on_c, 1, 42, 0
4, 13296, Note_on_c, 1, 54, 80
4, 13296, Note_on_c, 1, 42, 80
4, 13341, Note_on_c, 1, 54, 0
4, 13341, Note_on_c, 1, 42, 0
4, 13344, Note_on_c, 1, 55, 80
4, 13344, Note_on_c, 1, 43, 80
4, 13389, Note_on_c, 1, 55, 0
4, 13389, Note_on_c, 1, 43, 0
4, 13392, Note_on_c, 1, 55, 80
4, 13392, Note_on_c, 1, 43, 80
4, 13437, Note_on_c, 1, 55, 0
4, 13437, Note_on_c, 1, 43, 0
4, 13440, Note_on_c, 1, 48, 80
4, 13440, Note_on_c, 1, 36, 80
4, 13485, Note_on_c, 1, 48, 0
4, 13485, Note_on_c, 1, 36, 0
4, 13488, Note_on_c, 1, 48, 80
4, 13488, Note_on_c, 1, 36, 80
4, 13533, Note_on_c, 1, 48, 0
4, 13533, Note_on_c, 1, 36, 0
4, 13536, Note_on_c, 1, 50, 80
4, 13536, Note_on_c, 1, 38, 80
4, 13581, Note_on_c, 1, 50, 0
4, 13581, Note_on_c, 1, 38, 0
4, 13584, Note_on_c, 1, 50, 80
4, 13584, Note_on_c, 1, 38, 80
4, 13629, Note_on_c, 1, 50, 0
4, 13629, Note_on_c, 1, 38, 0
4, 13632, Note_on_c, 1, 55, 80
4, 13677, Note_on_c, 1, 55, 0
4, 13680, Note_on_c, 1, 50, 80
4, 13725, Note_on_c, 1, 50, 0
4, 13728, Note_on_c, 1, 43, 80
4, 13817, Note_on_c, 1, 43, 0
4, 13824, Note_on_c, 1, 59, 64
4, 13824, Note_on_c, 1, 55, 64
4, 13871, Note_on_c, 1, 59, 0
4, 13871, Note_on_c, 1, 55, 0
4, 13872, Note_on_c, 1, 59, 64
4, 13872, Note_on_c, 1, 55, 64
4, 13919, Note_on_c, 1, 59, 0
4, 13919, Note_on_c, 1, 55, 0
4, 13920, Note_on_c, 1, 59, 64
4, 13920, Note_on_c, 1, 55, 64
4, 13967, Note_on_c, 1, 59, 0
4, 13967, Note_on_c, 1, 55, 0
4, 13968, Note_on_c, 1, 59, 64
4, 13968, Note_on_c, 1, 55, 64
4, 14015, Note_on_c, 1, 59, 0
4, 14015, Note_on_c, 1, 55, 0
4, 14016, Note_on_c, 1, 59, 64
4, 14016, Note_on_c, 1, 55, 64
4, 14063, Note_on_c, 1, 59, 0
4, 14063, Note_on_c, 1, 55, 0
4, 14064, Note_on_c, 1, 59, 64
4, 14064, Note_on_c, 1, 55, 64
4, 14111, Note_on_c, 1, 59, 0
4, 14111, Note_on_c, 1, 55, 0
4, 14112, Note_on_c, 1, 59, 64
4, 14112, Note_on_c, 1, 55, 64
4, 14159, Note_on_c, 1, 59, 0
4, 14159, Note_on_c, 1, 55, 0
4, 14160, Note_on_c, 1, 59, 64
4, 14160, Note_on_c, 1, 55, 64
4, 14207, Note_on_c, 1, 59, 0
4, 14207, Note_on_c, 1, 55, 0
4, 14208, Note_on_c, 1, 59, 64
4, 14208, Note_on_c, 1, 55, 64
4, 14255, Note_on_c, 1, 59, 0
4, 14255, Note_on_c, 1, 55, 0
4, 14256, Note_on_c, 1, 59, 64
4, 14256, Note_on_c, 1, 55, 64
4, 14303, Note_on_c, 1, 59, 0
4, 14303, Note_on_c, 1, 55, 0
4, 14304, Note_on_c, 1, 59, 64
4, 14304, Note_on_c, 1, 55, 64
4, 14351, Note_on_c, 1, 59, 0
4, 14351, Note_on_c, 1, 55, 0
4, 14352, Note_on_c, 1, 59, 64
4, 14352, Note_on_c, 1, 55, 64
4, 14399, Note_on_c, 1, 59, 0
4, 14399, Note_on_c, 1, 55, 0
4, 14400, Note_on_c, 1, 60, 64
4, 14400, Note_on_c, 1, 55, 64
4, 14447, Note_on_c, 1, 60, 0
4, 14447, Note_on_c, 1, 55, 0
4, 14448, Note_on_c, 1, 60, 64
4, 14448, Note_on_c, 1, 55, 64
4, 14495, Note_on_c, 1, 60, 0
4, 14495, Note_on_c, 1, 55, 0
4, 14496, Note_on_c, 1, 60, 64
4, 14496, Note_on_c, 1, 55, 64
4, 14543, Note_on_c, 1, 60, 0
4, 14543, Note_on_c, 1, 55, 0
4, 14544, Note_on_c, 1, 60, 64
4, 14544, Note_on_c, 1, 55, 64
4, 14591, Note_on_c, 1, 60, 0
4, 14591, Note_on_c, 1, 55, 0
4, 14592, Note_on_c, 1, 60, 64
4, 14592, Note_on_c, 1, 55, 64
4, 14639, Note_on_c, 1, 60, 0
4, 14639, Note_on_c, 1, 55, 0
4, 14640, Note_on_c, 1, 60, 64
4, 14640, Note_on_c, 1, 55, 64
4, 14687, Note_on_c, 1, 60, 0
4, 14687, Note_on_c, 1, 55, 0
4, 14688, Note_on_c, 1, 60, 64
4, 14688, Note_on_c, 1, 55, 64
4, 14735, Note_on_c, 1, 60, 0
4, 14735, Note_on_c, 1, 55, 0
4, 14736, Note_on_c, 1, 60, 64
4, 14736, Note_on_c, 1, 55, 64
4, 14783, Note_on_c, 1, 60, 0
4, 14783, Note_on_c, 1, 55, 0
4, 14784, Note_on_c, 1, 60, 64
4, 14784, Note_on_c, 1, 55, 64
4, 14831, Note_on_c, 1, 60, 0
4, 14831, Note_on_c, 1, 55, 0
4, 14832, Note_on_c, 1, 60, 64
4, 14832, Note_on_c, 1, 55, 64
4, 14879, Note_on_c, 1, 60, 0
4, 14879, Note_on_c, 1, 55, 0
4, 14880, Note_on_c, 1, 60, 64
4, 14880, Note_on_c, 1, 55, 64
4, 14927, Note_on_c, 1, 60, 0
4, 14927, Note_on_c, 1, 55, 0
4, 14928, Note_on_c, 1, 60, 64
4, 14928, Note_on_c, 1, 55, 64
4, 14975, Note_on_c, 1, 60, 0
4, 14975, Note_on_c, 1, 55, 0
4, 14976, Note_on_c, 1, 59, 64
4, 14976, Note_on_c, 1, 55, 64
4, 15023, Note_on_c, 1, 59, 0
4, 15023, Note_on_c, 1, 55, 0
4, 15024, Note_on_c, 1, 59, 64
4, 15024, Note_on_c, 1, 55, 64
4, 15071, Note_on_c, 1, 59, 0
4, 15071, Note_on_c, 1, 55, 0
4, 15072, Note_on_c, 1, 59, 64
4, 15072, Note_on_c, 1, 55, 64
4, 15119, Note_on_c, 1, 59, 0
4, 15119, Note_on_c, 1, 55, 0
4, 15120, Note_on_c, 1, 59, 64
4, 15120, Note_on_c, 1, 55, 64
4, 15167, Note_on_c, 1, 59, 0
4, 15167, Note_on_c, 1, 55, 0
4, 15168, Note_on_c, 1, 59, 64
4, 15168, Note_on_c, 1, 55, 64
4, 15215, Note_on_c, 1, 59, 0
4, 15215, Note_on_c, 1, 55, 0
4, 15216, Note_on_c, 1, 59, 64
4, 15216, Note_on_c, 1, 55, 64
4, 15263, Note_on_c, 1, 59, 0
4, 15263, Note_on_c, 1, 55, 0
4, 15264, Note_on_c, 1, 59, 64
4, 15264, Note_on_c, 1, 55, 64
4, 15311, Note_on_c, 1, 59, 0
4, 15311, Note_on_c, 1, 55, 0
4, 15312, Note_on_c, 1, 59, 64
4, 15312, Note_on_c, 1, 55, 64
4, 15359, Note_on_c, 1, 59, 0
4, 15359, Note_on_c, 1, 55, 0
4, 15360, Note_on_c, 1, 59, 64
4, 15360, Note_on_c, 1, 55, 64
4, 15407, Note_on_c, 1, 59, 0
4, 15407, Note_on_c, 1, 55, 0
4, 15408, Note_on_c, 1, 59, 64
4, 15408, Note_on_c, 1, 55, 64
4, 15455, Note_on_c, 1, 59, 0
4, 15455, Note_on_c, 1, 55, 0
4, 15456, Note_on_c, 1, 59, 64
4, 15456, Note_on_c, 1, 55, 64
4, 15503, Note_on_c, 1, 59, 0
4, 15503, Note_on_c, 1, 55, 0
4, 15504, Note_on_c, 1, 59, 64
4, 15504, Note_on_c, 1, 55, 64
4, 15551, Note_on_c, 1, 59, 0
4, 15551, Note_on_c, 1, 55, 0
4, 15552, Note_on_c, 1, 60, 64
4, 15552, Note_on_c, 1, 48, 64
4, 15641, Note_on_c, 1, 60, 0
4, 15641, Note_on_c, 1, 48, 0
4, 15648, Note_on_c, 1, 70, 70
4, 15693, Note_on_c, 1, 70, 0
4, 15744, Note_on_c, 1, 69, 70
4, 15789, Note_on_c, 1, 69, 0
4, 15840, Note_on_c, 1, 61, 80
4, 15840, Note_on_c, 1, 49, 80
4, 15929, Note_on_c, 1, 61, 0
4, 15929, Note_on_c, 1, 49, 0
4, 15936, Note_on_c, 1, 62, 80
4, 15936, Note_on_c, 1, 50, 80
4, 16025, Note_on_c, 1, 62, 0
4, 16025, Note_on_c, 1, 50, 0
4, 16032, Note_on_c, 1, 60, 80
4, 16032, Note_on_c, 1, 48, 80
4, 16121, Note_on_c, 1, 60, 0
4, 16121, Note_on_c, 1, 48, 0
4, 16128, Note_on_c, 1, 59, 80
4, 16128, Note_on_c, 1, 47, 80
4, 16217, Note_on_c, 1, 59, 0
4, 16217, Note_on_c, 1, 47, 0
4, 16224, Note_on_c, 1, 63, 70
4, 16269, Note_on_c, 1, 63, 0
4, 16320, Note_on_c, 1, 64, 70
4, 16365, Note_on_c, 1, 64, 0
4, 16416, Note_on_c, 1, 60, 80
4, 16416, Note_on_c, 1, 48, 80
4, 16505, Note_on_c, 1, 60, 0
4, 16505, Note_on_c, 1, 48, 0
4, 16512, Note_on_c, 1, 57, 80
4, 16512, Note_on_c, 1, 45, 80
4, 16601, Note_on_c, 1, 57, 0
4, 16601, Note_on_c, 1, 45, 0
4, 16608, Note_on_c, 1, 59, 80
4, 16608, Note_on_c, 1, 47, 80
4, 16697, Note_on_c, 1, 59, 0
4, 16697, Note_on_c, 1, 47, 0
4, 16704, Note_on_c, 1, 56, 80
4, 16704, Note_on_c, 1, 44, 80
4, 16793, Note_on_c, 1, 56, 0
4, 16793, Note_on_c, 1, 44, 0
4, 16800, Note_on_c, 1, 57, 80
4, 16800, Note_on_c, 1, 45, 80
4, 16889, Note_on_c, 1, 57, 0
4, 16889, Note_on_c, 1, 45, 0
4, 16896, Note_on_c, 1, 53, 80
4, 16896, Note_on_c, 1, 41, 80
4, 16985, Note_on_c, 1, 53, 0
4, 16985, Note_on_c, 1, 41, 0
4, 16992, Note_on_c, 1, 54, 80
4, 16992, Note_on_c, 1, 42, 80
4, 17081, Note_on_c, 1, 54, 0
4, 17081, Note_on_c, 1, 42, 0
4, 17088, Note_on_c, 1, 43, 84
4, 17111, Note_on_c, 1, 43, 0
4, 17112, Note_on_c, 1, 55, 86
4, 17135, Note_on_c, 1, 55, 0
4, 17136, Note_on_c, 1, 43, 86
4, 17159, Note_on_c, 1, 43, 0
4, 17160, Note_on_c, 1, 55, 86
4, 17183, Note_on_c, 1, 55, 0
4, 17184, Note_on_c, 1, 43, 86
4, 17207, Note_on_c, 1, 43, 0
4, 17208, Note_on_c, 1, 55, 86
4, 17231, Note_on_c, 1, 55, 0
4, 17232, Note_on_c, 1, 43, 86
4, 17255, Note_on_c, 1, 43, 0
4, 17256, Note_on_c, 1, 55, 85
4, 17279, Note_on_c, 1, 55, 0
4, 17280, Note_on_c, 1, 43, 84
4, 17303, Note_on_c, 1, 43, 0
4, 17304, Note_on_c, 1, 55, 83
4, 17327, Note_on_c, 1, 55, 0
4, 17328, Note_on_c, 1, 43, 82
4, 17351, Note_on_c, 1, 43, 0
4, 17352, Note_on_c, 1, 55, 81
4, 17375, Note_on_c, 1, 55, 0
4, 17376, Note_on_c, 1, 43, 80
4, 17399, Note_on_c, 1, 43, 0
4, 17400, Note_on_c, 1, 55, 80
4, 17423, Note_on_c, 1, 55, 0
4, 17424, Note_on_c, 1, 43, 79
4, 17447, Note_on_c, 1, 43, 0
4, 17448, Note_on_c, 1, 55, 78
4, 17471, Note_on_c, 1, 55, 0
4, 17472, Note_on_c, 1, 43, 77
4, 17495, Note_on_c, 1, 43, 0
4, 17496, Note_on_c, 1, 55, 76
4, 17519, Note_on_c, 1, 55, 0
4, 17520, Note_on_c, 1, 43, 75
4, 17543, Note_on_c, 1, 43, 0
4, 17544, Note_on_c, 1, 55, 75
4, 17567, Note_on_c, 1, 55, 0
4, 17568, Note_on_c, 1, 43, 74
4, 17591, Note_on_c, 1, 43, 0
4, 17592, Note_on_c, 1, 55, 73
4, 17615, Note_on_c, 1, 55, 0
4, 17616, Note_on_c, 1, 43, 72
4, 17639, Note_on_c, 1, 43, 0
4, 17640, Note_on_c, 1, 55, 71
4, 17663, Note_on_c, 1, 55, 0
4, 17664, Note_on_c, 1, 43, 70
4, 17687, Note_on_c, 1, 43, 0
4, 17688, Note_on_c, 1, 55, 69
4, 17711, Note_on_c, 1, 55, 0
4, 17712, Note_on_c, 1, 43, 69
4, 17735, Note_on_c, 1, 43, 0
4, 17736, Note_on_c, 1, 55, 68
4, 17759, Note_on_c, 1, 55, 0
4, 17760, Note_on_c, 1, 43, 67
4, 17783, Note_on_c, 1, 43, 0
4, 17784, Note_on_c, 1, 55, 66
4, 17807, Note_on_c, 1, 55, 0
4, 17808, Note_on_c, 1, 43, 65
4, 17831, Note_on_c, 1, 43, 0
4, 17832, Note_on_c, 1, 55, 64
4, 17855, Note_on_c, 1, 55, 0
4, 17856, Note_on_c, 1, 43, 64
4, 17945, Note_on_c, 1, 43, 0
4, 18048, Note_on_c, 1, 64, 64
4, 18048, Note_on_c, 1, 60, 64
4, 18095, Note_on_c, 1, 64, 0
4, 18095, Note_on_c, 1, 60, 0
4, 18096, Note_on_c, 1, 64, 64
4, 18096, Note_on_c, 1, 60, 64
4, 18143, Note_on_c, 1, 64, 0
4, 18143, Note_on_c, 1, 60, 0
4, 18144, Note_on_c, 1, 64, 64
4, 18144, Note_on_c, 1, 60, 64
4, 18191, Note_on_c, 1, 64, 0
4, 18191, Note_on_c, 1, 60, 0
4, 18192, Note_on_c, 1, 64, 64
4, 18192, Note_on_c, 1, 60, 64
4, 18239, Note_on_c, 1, 64, 0
4, 18239, Note_on_c, 1, 60, 0
4, 18240, Note_on_c, 1, 64, 64
4, 18240, Note_on_c, 1, 60, 64
4, 18287, Note_on_c, 1, 64, 0
4, 18287, Note_on_c, 1, 60, 0
4, 18288, Note_on_c, 1, 64, 64
4, 18288, Note_on_c, 1, 60, 64
4, 18335, Note_on_c, 1, 64, 0
4, 18335, Note_on_c, 1, 60, 0
4, 18336, Note_on_c, 1, 64, 64
4, 18336, Note_on_c, 1, 60, 64
4, 18383, Note_on_c, 1, 64, 0
4, 18383, Note_on_c, 1, 60, 0
4, 18384, Note_on_c, 1, 64, 64
4, 18384, Note_on_c, 1, 60, 64
4, 18431, Note_on_c, 1, 64, 0
4, 18431, Note_on_c, 1, 60, 0
4, 18432, Note_on_c, 1, 65, 64
4, 18432, Note_on_c, 1, 60, 64
4, 18479, Note_on_c, 1, 65, 0
4, 18479, Note_on_c, 1, 60, 0
4, 18480, Note_on_c, 1, 65, 64
4, 18480, Note_on_c, 1, 60, 64
4, 18527, Note_on_c, 1, 65, 0
4, 18527, Note_on_c, 1, 60, 0
4, 18528, Note_on_c, 1, 65, 64
4, 18528, Note_on_c, 1, 60, 64
4, 18575, Note_on_c, 1, 65, 0
4, 18575, Note_on_c, 1, 60, 0
4, 18576, Note_on_c, 1, 65, 64
4, 18576, Note_on_c, 1, 60, 64
4, 18623, Note_on_c, 1, 65, 0
4, 18623, Note_on_c, 1, 60, 0
4, 18624, Note_on_c, 1, 65, 64
4, 18624, Note_on_c, 1, 60, 64
4, 18671, Note_on_c, 1, 65, 0
4, 18671, Note_on_c, 1, 60, 0
4, 18672, Note_on_c, 1, 65, 64
4, 18672, Note_on_c, 1, 60, 64
4, 18719, Note_on_c, 1, 65, 0
4, 18719, Note_on_c, 1, 60, 0
4, 18720, Note_on_c, 1, 65, 64
4, 18720, Note_on_c, 1, 60, 64
4, 18767, Note_on_c, 1, 65, 0
4, 18767, Note_on_c, 1, 60, 0
4, 18768, Note_on_c, 1, 65, 64
4, 18768, Note_on_c, 1, 60, 64
4, 18815, Note_on_c, 1, 65, 0
4, 18815, Note_on_c, 1, 60, 0
4, 18816, Note_on_c, 1, 64, 64
4, 18816, Note_on_c, 1, 60, 64
4, 18863, Note_on_c, 1, 64, 0
4, 18863, Note_on_c, 1, 60, 0
4, 18864, Note_on_c, 1, 64, 64
4, 18864, Note_on_c, 1, 60, 64
4, 18911, Note_on_c, 1, 64, 0
4, 18911, Note_on_c, 1, 60, 0
4, 18912, Note_on_c, 1, 64, 64
4, 18912, Note_on_c, 1, 60, 64
4, 18959, Note_on_c, 1, 64, 0
4, 18959, Note_on_c, 1, 60, 0
4, 18960, Note_on_c, 1, 64, 64
4, 18960, Note_on_c, 1, 60, 64
4, 19007, Note_on_c, 1, 64, 0
4, 19007, Note_on_c, 1, 60, 0
4, 19008, Note_on_c, 1, 64, 64
4, 19008, Note_on_c, 1, 60, 64
4, 19055, Note_on_c, 1, 64, 0
4, 19055, Note_on_c, 1, 60, 0
4, 19056, Note_on_c, 1, 64, 64
4, 19056, Note_on_c, 1, 60, 64
4, 19103, Note_on_c, 1, 64, 0
4, 19103, Note_on_c, 1, 60, 0
4, 19104, Note_on_c, 1, 64, 64
4, 19104, Note_on_c, 1, 60, 64
4, 19151, Note_on_c, 1, 64, 0
4, 19151, Note_on_c, 1, 60, 0
4, 19152, Note_on_c, 1, 64, 64
4, 19152, Note_on_c, 1, 60, 64
4, 19199, Note_on_c, 1, 64, 0
4, 19199, Note_on_c, 1, 60, 0
4, 19200, Note_on_c, 1, 62, 70
4, 19245, Note_on_c, 1, 62, 0
4, 19248, Note_on_c, 1, 59, 70
4, 19293, Note_on_c, 1, 59, 0
4, 19296, Note_on_c, 1, 60, 70
4, 19341, Note_on_c, 1, 60, 0
4, 19344, Note_on_c, 1, 64, 70
4, 19389, Note_on_c, 1, 64, 0
4, 19392, Note_on_c, 1, 62, 70
4, 19437, Note_on_c, 1, 62, 0
4, 19440, Note_on_c, 1, 59, 70
4, 19485, Note_on_c, 1, 59, 0
4, 19488, Note_on_c, 1, 60, 70
4, 19533, Note_on_c, 1, 60, 0
4, 19536, Note_on_c, 1, 64, 70
4, 19581, Note_on_c, 1, 64, 0
4, 19584, Note_on_c, 1, 62, 75
4, 19584, Note_on_c, 1, 55, 75
4, 19673, Note_on_c, 1, 62, 0
4, 19673, Note_on_c, 1, 55, 0
4, 19680, Note_on_c, 1, 60, 75
4, 19680, Note_on_c, 1, 55, 75
4, 19769, Note_on_c, 1, 60, 0
4, 19769, Note_on_c, 1, 55, 0
4, 19776, Note_on_c, 1, 60, 75
4, 19821, Note_on_c, 1, 60, 0
4, 19824, Note_on_c, 1, 59, 75
4, 19869, Note_on_c, 1, 59, 0
4, 20160, Note_on_c, 1, 64, 80
4, 20205, Note_on_c, 1, 64, 0
4, 20208, Note_on_c, 1, 65, 80
4, 20253, Note_on_c, 1, 65, 0
4, 20256, Note_on_c, 1, 64, 80
4, 20301, Note_on_c, 1, 64, 0
4, 20544, Note_on_c, 1, 52, 80
4, 20589, Note_on_c, 1, 52, 0
4, 20592, Note_on_c, 1, 50, 80
4, 20637, Note_on_c, 1, 50, 0
4, 20640, Note_on_c, 1, 48, 80
4, 20685, Note_on_c, 1, 48, 0
4, 20688, Note_on_c, 1, 52, 80
4, 20733, Note_on_c, 1, 52, 0
4, 20736, Note_on_c, 1, 53, 80
4, 20781, Note_on_c, 1, 53, 0
4, 20784, Note_on_c, 1, 55, 80
4, 20829, Note_on_c, 1, 55, 0
4, 20832, Note_on_c, 1, 57, 81
4, 20877, Note_on_c, 1, 57, 0
4, 20880, Note_on_c, 1, 54, 81
4, 20925, Note_on_c, 1, 54, 0
4, 20928, Note_on_c, 1, 55, 81
4, 20973, Note_on_c, 1, 55, 0
4, 20976, Note_on_c, 1, 57, 81
4, 21021, Note_on_c, 1, 57, 0
4, 21024, Note_on_c, 1, 59, 82
4, 21069, Note_on_c, 1, 59, 0
4, 21072, Note_on_c, 1, 56, 82
4, 21117, Note_on_c, 1, 56, 0
4, 21120, Note_on_c, 1, 57, 82
4, 21165, Note_on_c, 1, 57, 0
4, 21168, Note_on_c, 1, 59, 82
4, 21213, Note_on_c, 1, 59, 0
4, 21216, Note_on_c, 1, 60, 83
4, 21261, Note_on_c, 1, 60, 0
4, 21264, Note_on_c, 1, 57, 83
4, 21309, Note_on_c, 1, 57, 0
4, 21312, Note_on_c, 1, 59, 83
4, 21357, Note_on_c, 1, 59, 0
4, 21360, Note_on_c, 1, 60, 83
4, 21405, Note_on_c, 1, 60, 0
4, 21408, Note_on_c, 1, 62, 84
4, 21453, Note_on_c, 1, 62, 0
4, 21456, Note_on_c, 1, 59, 84
4, 21501, Note_on_c, 1, 59, 0
4, 21504, Note_on_c, 1, 60, 84
4, 21549, Note_on_c, 1, 60, 0
4, 21552, Note_on_c, 1, 52, 84
4, 21597, Note_on_c, 1, 52, 0
4, 21600, Note_on_c, 1, 53, 85
4, 21645, Note_on_c, 1, 53, 0
4, 21648, Note_on_c, 1, 55, 85
4, 21693, Note_on_c, 1, 55, 0
4, 21696, Note_on_c, 1, 48, 85
4, 21741, Note_on_c, 1, 48, 0
4, 21744, Note_on_c, 1, 60, 86
4, 21789, Note_on_c, 1, 60, 0
4, 21792, Note_on_c, 1, 48, 86
4, 21881, Note_on_c, 1, 48, 0
4, 21936, Note_on_c, 1, 60, 70
4, 21936, Note_on_c, 1, 48, 70
4, 21984, Note_on_c, 1, 60, 0
4, 21984, Note_on_c, 1, 48, 0
4, 21984, Note_on_c, 1, 62, 70
4, 21984, Note_on_c, 1, 50, 70
4, 22029, Note_on_c, 1, 62, 0
4, 22029, Note_on_c, 1, 50, 0
4, 22128, Note_on_c, 1, 60, 70
4, 22128, Note_on_c, 1, 48, 70
4, 22176, Note_on_c, 1, 60, 0
4, 22176, Note_on_c, 1, 48, 0
4, 22176, Note_on_c, 1, 59, 70
4, 22176, Note_on_c, 1, 47, 70
4, 22221, Note_on_c, 1, 59, 0
4, 22221, Note_on_c, 1, 47, 0
4, 22320, Note_on_c, 1, 59, 70
4, 22320, Note_on_c, 1, 47, 70
4, 22368, Note_on_c, 1, 59, 0
4, 22368, Note_on_c, 1, 47, 0
4, 22368, Note_on_c, 1, 60, 70
4, 22368, Note_on_c, 1, 48, 70
4, 22413, Note_on_c, 1, 60, 0
4, 22413, Note_on_c, 1, 48, 0
4, 22512, Note_on_c, 1, 58, 70
4, 22512, Note_on_c, 1, 46, 70
4, 22560, Note_on_c, 1, 58, 0
4, 22560, Note_on_c, 1, 46, 0
4, 22560, Note_on_c, 1, 56, 70
4, 22560, Note_on_c, 1, 44, 70
4, 22605, Note_on_c, 1, 56, 0
4, 22605, Note_on_c, 1, 44, 0
4, 22704, Note_on_c, 1, 55, 68
4, 22704, Note_on_c, 1, 43, 68
4, 22752, Note_on_c, 1, 55, 0
4, 22752, Note_on_c, 1, 43, 0
4, 22752, Note_on_c, 1, 54, 67
4, 22752, Note_on_c, 1, 42, 67
4, 22797, Note_on_c, 1, 54, 0
4, 22797, Note_on_c, 1, 42, 0
4, 22800, Note_on_c, 1, 54, 66
4, 22800, Note_on_c, 1, 42, 66
4, 22820, Note_on_c, 1, 54, 0
4, 22820, Note_on_c, 1, 42, 0
4, 22848, Note_on_c, 1, 55, 65
4, 22893, Note_on_c, 1, 55, 0
4, 22896, Note_on_c, 1, 43, 64
4, 22941, Note_on_c, 1, 43, 0
4, 23040, Note_on_c, 1, 52, 75
4, 23040, Note_on_c, 1, 48, 75
4, 23129, Note_on_c, 1, 52, 0
4, 23129, Note_on_c, 1, 48, 0
4, 23376, Note_on_c, 1, 60, 75
4, 23376, Note_on_c, 1, 52, 75
4, 23421, Note_on_c, 1, 60, 0
4, 23421, Note_on_c, 1, 52, 0
4, 23424, Note_on_c, 1, 60, 75
4, 23424, Note_on_c, 1, 53, 75
4, 23513, Note_on_c, 1, 60, 0
4, 23513, Note_on_c, 1, 53, 0
4, 23520, Note_on_c, 1, 60, 75
4, 23565, Note_on_c, 1, 60, 0
4, 23568, Note_on_c, 1, 59, 75
4, 23613, Note_on_c, 1, 59, 0
4, 23616, Note_on_c, 1, 60, 75
4, 23661, Note_on_c, 1, 60, 0
4, 23664, Note_on_c, 1, 55, 75
4, 23709, Note_on_c, 1, 55, 0
4, 23712, Note_on_c, 1, 48, 75
4, 23801, Note_on_c, 1, 48, 0
4, 23808, Note_on_c, 1, 52, 75
4, 23808, Note_on_c, 1, 48, 75
4, 23897, Note_on_c, 1, 52, 0
4, 23897, Note_on_c, 1, 48, 0
4, 24048, Note_on_c, 1, 52, 80
4, 24048, Note_on_c, 1, 40, 80
4, 24093, Note_on_c, 1, 52, 0
4, 24093, Note_on_c, 1, 40, 0
4, 24096, Note_on_c, 1, 52, 80
4, 24096, Note_on_c, 1, 40, 80
4, 24141, Note_on_c, 1, 52, 0
4, 24141, Note_on_c, 1, 40, 0
4, 24144, Note_on_c, 1, 52, 80
4, 24144, Note_on_c, 1, 40, 80
4, 24189, Note_on_c, 1, 52, 0
4, 24189, Note_on_c, 1, 40, 0
4, 24192, Note_on_c, 1, 53, 80
4, 24192, Note_on_c, 1, 41, 80
4, 24237, Note_on_c, 1, 53, 0
4, 24237, Note_on_c, 1, 41, 0
4, 24240, Note_on_c, 1, 53, 80
4, 24240, Note_on_c, 1, 41, 80
4, 24285, Note_on_c, 1, 53, 0
4, 24285, Note_on_c, 1, 41, 0
4, 24288, Note_on_c, 1, 50, 80
4, 24288, Note_on_c, 1, 38, 80
4, 24333, Note_on_c, 1, 50, 0
4, 24333, Note_on_c, 1, 38, 0
4, 24336, Note_on_c, 1, 50, 80
4, 24336, Note_on_c, 1, 38, 80
4, 24381, Note_on_c, 1, 50, 0
4, 24381, Note_on_c, 1, 38, 0
4, 24384, Note_on_c, 1, 47, 80
4, 24384, Note_on_c, 1, 35, 80
4, 24429, Note_on_c, 1, 47, 0
4, 24429, Note_on_c, 1, 35, 0
4, 24432, Note_on_c, 1, 47, 80
4, 24432, Note_on_c, 1, 35, 80
4, 24477, Note_on_c, 1, 47, 0
4, 24477, Note_on_c, 1, 35, 0
4, 24480, Note_on_c, 1, 48, 80
4, 24480, Note_on_c, 1, 36, 80
4, 24525, Note_on_c, 1, 48, 0
4, 24525, Note_on_c, 1, 36, 0
4, 24528, Note_on_c, 1, 48, 80
4, 24528, Note_on_c, 1, 36, 80
4, 24573, Note_on_c, 1, 48, 0
4, 24573, Note_on_c, 1, 36, 0
4, 24576, Note_on_c, 1, 53, 80
4, 24576, Note_on_c, 1, 41, 80
4, 24621, Note_on_c, 1, 53, 0
4, 24621, Note_on_c, 1, 41, 0
4, 24624, Note_on_c, 1, 53, 80
4, 24624, Note_on_c, 1, 41, 80
4, 24669, Note_on_c, 1, 53, 0
4, 24669, Note_on_c, 1, 41, 0
4, 24672, Note_on_c, 1, 55, 80
4, 24672, Note_on_c, 1, 43, 80
4, 24717, Note_on_c, 1, 55, 0
4, 24717, Note_on_c, 1, 43, 0
4, 24720, Note_on_c, 1, 55, 80
4, 24720, Note_on_c, 1, 43, 80
4, 24765, Note_on_c, 1, 55, 0
4, 24765, Note_on_c, 1, 43, 0
4, 24768, Note_on_c, 1, 48, 80
4, 24768, Note_on_c, 1, 36, 80
4, 24857, Note_on_c, 1, 48, 0
4, 24857, Note_on_c, 1, 36, 0
4, 24960, Note_on_c, 1, 59, 64
4, 24960, Note_on_c, 1, 55, 64
4, 25007, Note_on_c, 1, 59, 0
4, 25007, Note_on_c, 1, 55, 0
4, 25008, Note_on_c, 1, 59, 64
4, 25008, Note_on_c, 1, 55, 64
4, 25055, Note_on_c, 1, 59, 0
4, 25055, Note_on_c, 1, 55, 0
4, 25056, Note_on_c, 1, 59, 64
4, 25056, Note_on_c, 1, 55, 64
4, 25103, Note_on_c, 1, 59, 0
4, 25103, Note_on_c, 1, 55, 0
4, 25104, Note_on_c, 1, 59, 64
4, 25104, Note_on_c, 1, 55, 64
4, 25151, Note_on_c, 1, 59, 0
4, 25151, Note_on_c, 1, 55, 0
4, 25152, Note_on_c, 1, 59, 64
4, 25152, Note_on_c, 1, 55, 64
4, 25199, Note_on_c, 1, 59, 0
4, 25199, Note_on_c, 1, 55, 0
4, 25200, Note_on_c, 1, 59, 64
4, 25200, Note_on_c, 1, 55, 64
4, 25247, Note_on_c, 1, 59, 0
4, 25247, Note_on_c, 1, 55, 0
4, 25248, Note_on_c, 1, 59, 64
4, 25248, Note_on_c, 1, 55, 64
4, 25295, Note_on_c, 1, 59, 0
4, 25295, Note_on_c, 1, 55, 0
4, 25296, Note_on_c, 1, 59, 64
4, 25296, Note_on_c, 1, 55, 64
4, 25343, Note_on_c, 1, 59, 0
4, 25343, Note_on_c, 1, 55, 0
4, 25344, Note_on_c, 1, 59, 64
4, 25344, Note_on_c, 1, 55, 64
4, 25391, Note_on_c, 1, 59, 0
4, 25391, Note_on_c, 1, 55, 0
4, 25392, Note_on_c, 1, 59, 64
4, 25392, Note_on_c, 1, 55, 64
4, 25439, Note_on_c, 1, 59, 0
4, 25439, Note_on_c, 1, 55, 0
4, 25440, Note_on_c, 1, 59, 64
4, 25440, Note_on_c, 1, 55, 64
4, 25487, Note_on_c, 1, 59, 0
4, 25487, Note_on_c, 1, 55, 0
4, 25488, Note_on_c, 1, 59, 64
4, 25488, Note_on_c, 1, 55, 64
4, 25535, Note_on_c, 1, 59, 0
4, 25535, Note_on_c, 1, 55, 0
4, 25536, Note_on_c, 1, 60, 64
4, 25536, Note_on_c, 1, 55, 64
4, 25583, Note_on_c, 1, 60, 0
4, 25583, Note_on_c, 1, 55, 0
4, 25584, Note_on_c, 1, 60, 64
4, 25584, Note_on_c, 1, 55, 64
4, 25631, Note_on_c, 1, 60, 0
4, 25631, Note_on_c, 1, 55, 0
4, 25632, Note_on_c, 1, 60, 64
4, 25632, Note_on_c, 1, 55, 64
4, 25679, Note_on_c, 1, 60, 0
4, 25679, Note_on_c, 1, 55, 0
4, 25680, Note_on_c, 1, 60, 64
4, 25680, Note_on_c, 1, 55, 64
4, 25727, Note_on_c, 1, 60, 0
4, 25727, Note_on_c, 1, 55, 0
4, 25728, Note_on_c, 1, 60, 64
4, 25728, Note_on_c, 1, 55, 64
4, 25775, Note_on_c, 1, 60, 0
4, 25775, Note_on_c, 1, 55, 0
4, 25776, Note_on_c, 1, 60, 64
4, 25776, Note_on_c, 1, 55, 64
4, 25823, Note_on_c, 1, 60, 0
4, 25823, Note_on_c, 1, 55, 0
4, 25824, Note_on_c, 1, 60, 64
4, 25824, Note_on_c, 1, 55, 64
4, 25871, Note_on_c, 1, 60, 0
4, 25871, Note_on_c, 1, 55, 0
4, 25872, Note_on_c, 1, 60, 64
4, 25872, Note_on_c, 1, 55, 64
4, 25919, Note_on_c, 1, 60, 0
4, 25919, Note_on_c, 1, 55, 0
4, 25920, Note_on_c, 1, 60, 64
4, 25920, Note_on_c, 1, 55, 64
4, 25967, Note_on_c, 1, 60, 0
4, 25967, Note_on_c, 1, 55, 0
4, 25968, Note_on_c, 1, 60, 64
4, 25968, Note_on_c, 1, 55, 64
4, 26015, Note_on_c, 1, 60, 0
4, 26015, Note_on_c, 1, 55, 0
4, 26016, Note_on_c, 1, 60, 64
4, 26016, Note_on_c, 1, 55, 64
4, 26063, Note_on_c, 1, 60, 0
4, 26063, Note_on_c, 1, 55, 0
4, 26064, Note_on_c, 1, 60, 64
4, 26064, Note_on_c, 1, 55, 64
4, 26111, Note_on_c, 1, 60, 0
4, 26111, Note_on_c, 1, 55, 0
4, 26112, Note_on_c, 1, 59, 64
4, 26112, Note_on_c, 1, 55, 64
4, 26159, Note_on_c, 1, 59, 0
4, 26159, Note_on_c, 1, 55, 0
4, 26160, Note_on_c, 1, 59, 64
4, 26160, Note_on_c, 1, 55, 64
4, 26207, Note_on_c, 1, 59, 0
4, 26207, Note_on_c, 1, 55, 0
4, 26208, Note_on_c, 1, 59, 64
4, 26208, Note_on_c, 1, 55, 64
4, 26255, Note_on_c, 1, 59, 0
4, 26255, Note_on_c, 1, 55, 0
4, 26256, Note_on_c, 1, 59, 64
4, 26256, Note_on_c, 1, 55, 64
4, 26303, Note_on_c, 1, 59, 0
4, 26303, Note_on_c, 1, 55, 0
4, 26304, Note_on_c, 1, 59, 64
4, 26304, Note_on_c, 1, 55, 64
4, 26351, Note_on_c, 1, 59, 0
4, 26351, Note_on_c, 1, 55, 0
4, 26352, Note_on_c, 1, 59, 64
4, 26352, Note_on_c, 1, 55, 64
4, 26399, Note_on_c, 1, 59, 0
4, 26399, Note_on_c, 1, 55, 0
4, 26400, Note_on_c, 1, 59, 64
4, 26400, Note_on_c, 1, 55, 64
4, 26447, Note_on_c, 1, 59, 0
4, 26447, Note_on_c, 1, 55, 0
4, 26448, Note_on_c, 1, 59, 64
4, 26448, Note_on_c, 1, 55, 64
4, 26495, Note_on_c, 1, 59, 0
4, 26495, Note_on_c, 1, 55, 0
4, 26496, Note_on_c, 1, 59, 64
4, 26496, Note_on_c, 1, 55, 64
4, 26543, Note_on_c, 1, 59, 0
4, 26543, Note_on_c, 1, 55, 0
4, 26544, Note_on_c, 1, 59, 64
4, 26544, Note_on_c, 1, 55, 64
4, 26591, Note_on_c, 1, 59, 0
4, 26591, Note_on_c, 1, 55, 0
4, 26592, Note_on_c, 1, 59, 64
4, 26592, Note_on_c, 1, 55, 64
4, 26639, Note_on_c, 1, 59, 0
4, 26639, Note_on_c, 1, 55, 0
4, 26640, Note_on_c, 1, 59, 64
4, 26640, Note_on_c, 1, 55, 64
4, 26687, Note_on_c, 1, 59, 0
4, 26687, Note_on_c, 1, 55, 0
4, 26688, Note_on_c, 1, 60, 64
4, 26688, Note_on_c, 1, 48, 64
4, 26777, Note_on_c, 1, 60, 0
4, 26777, Note_on_c, 1, 48, 0
4, 26784, Note_on_c, 1, 70, 70
4, 26829, Note_on_c, 1, 70, 0
4, 26880, Note_on_c, 1, 69, 70
4, 26925, Note_on_c, 1, 69, 0
4, 26976, Note_on_c, 1, 61, 80
4, 26976, Note_on_c, 1, 49, 80
4, 27065, Note_on_c, 1, 61, 0
4, 27065, Note_on_c, 1, 49, 0
4, 27072, Note_on_c, 1, 62, 80
4, 27072, Note_on_c, 1, 50, 80
4, 27161, Note_on_c, 1, 62, 0
4, 27161, Note_on_c, 1, 50, 0
4, 27168, Note_on_c, 1, 60, 80
4, 27168, Note_on_c, 1, 48, 80
4, 27257, Note_on_c, 1, 60, 0
4, 27257, Note_on_c, 1, 48, 0
4, 27264, Note_on_c, 1, 59, 80
4, 27264, Note_on_c, 1, 47, 80
4, 27353, Note_on_c, 1, 59, 0
4, 27353, Note_on_c, 1, 47, 0
4, 27360, Note_on_c, 1, 63, 70
4, 27405, Note_on_c, 1, 63, 0
4, 27456, Note_on_c, 1, 64, 70
4, 27501, Note_on_c, 1, 64, 0
4, 27552, Note_on_c, 1, 60, 80
4, 27552, Note_on_c, 1, 48, 80
4, 27641, Note_on_c, 1, 60, 0
4, 27641, Note_on_c, 1, 48, 0
4, 27648, Note_on_c, 1, 57, 80
4, 27648, Note_on_c, 1, 45, 80
4, 27737, Note_on_c, 1, 57, 0
4, 27737, Note_on_c, 1, 45, 0
4, 27744, Note_on_c, 1, 59, 80
4, 27744, Note_on_c, 1, 47, 80
4, 27833, Note_on_c, 1, 59, 0
4, 27833, Note_on_c, 1, 47, 0
4, 27840, Note_on_c, 1, 56, 80
4, 27840, Note_on_c, 1, 44, 80
4, 27929, Note_on_c, 1, 56, 0
4, 27929, Note_on_c, 1, 44, 0
4, 27936, Note_on_c, 1, 57, 80
4, 27936, Note_on_c, 1, 45, 80
4, 28025, Note_on_c, 1, 57, 0
4, 28025, Note_on_c, 1, 45, 0
4, 28032, Note_on_c, 1, 53, 80
4, 28032, Note_on_c, 1, 41, 80
4, 28121, Note_on_c, 1, 53, 0
4, 28121, Note_on_c, 1, 41, 0
4, 28128, Note_on_c, 1, 54, 80
4, 28128, Note_on_c, 1, 42, 80
4, 28217, Note_on_c, 1, 54, 0
4, 28217, Note_on_c, 1, 42, 0
4, 28224, Note_on_c, 1, 43, 84
4, 28247, Note_on_c, 1, 43, 0
4, 28248, Note_on_c, 1, 55, 86
4, 28271, Note_on_c, 1, 55, 0
4, 28272, Note_on_c, 1, 43, 86
4, 28295, Note_on_c, 1, 43, 0
4, 28296, Note_on_c, 1, 55, 86
4, 28319, Note_on_c, 1, 55, 0
4, 28320, Note_on_c, 1, 43, 86
4, 28343, Note_on_c, 1, 43, 0
4, 28344, Note_on_c, 1, 55, 86
4, 28367, Note_on_c, 1, 55, 0
4, 28368, Note_on_c, 1, 43, 86
4, 28391, Note_on_c, 1, 43, 0
4, 28392, Note_on_c, 1, 55, 85
4, 28415, Note_on_c, 1, 55, 0
4, 28416, Note_on_c, 1, 43, 84
4, 28439, Note_on_c, 1, 43, 0
4, 28440, Note_on_c, 1, 55, 83
4, 28463, Note_on_c, 1, 55, 0
4, 28464, Note_on_c, 1, 43, 82
4, 28487, Note_on_c, 1, 43, 0
4, 28488, Note_on_c, 1, 55, 81
4, 28511, Note_on_c, 1, 55, 0
4, 28512, Note_on_c, 1, 43, 80
4, 28535, Note_on_c, 1, 43, 0
4, 28536, Note_on_c, 1, 55, 80
4, 28559, Note_on_c, 1, 55, 0
4, 28560, Note_on_c, 1, 43, 79
4, 28583, Note_on_c, 1, 43, 0
4, 28584, Note_on_c, 1, 55, 78
4, 28607, Note_on_c, 1, 55, 0
4, 28608, Note_on_c, 1, 43, 77
4, 28631, Note_on_c, 1, 43, 0
4, 28632, Note_on_c, 1, 55, 76
4, 28655, Note_on_c, 1, 55, 0
4, 28656, Note_on_c, 1, 43, 75
4, 28679, Note_on_c, 1, 43, 0
4, 28680, Note_on_c, 1, 55, 75
4, 28703, Note_on_c, 1, 55, 0
4, 28704, Note_on_c, 1, 43, 74
4, 28727, Note_on_c, 1, 43, 0
4, 28728, Note_on_c, 1, 55, 73
4, 28751, Note_on_c, 1, 55, 0
4, 28752, Note_on_c, 1, 43, 72
4, 28775, Note_on_c, 1, 43, 0
4, 28776, Note_on_c, 1, 55, 71
4, 28799, Note_on_c, 1, 55, 0
4, 28800, Note_on_c, 1, 43, 70
4, 28823, Note_on_c, 1, 43, 0
4, 28824, Note_on_c, 1, 55, 69
4, 28847, Note_on_c, 1, 55, 0
4, 28848, Note_on_c, 1, 43, 69
4, 28871, Note_on_c, 1, 43, 0
4, 28872, Note_on_c, 1, 55, 68
4, 28895, Note_on_c, 1, 55, 0
4, 28896, Note_on_c, 1, 43, 67
4, 28919, Note_on_c, 1, 43, 0
4, 28920, Note_on_c, 1, 55, 66
4, 28943, Note_on_c, 1, 55, 0
4, 28944, Note_on_c, 1, 43, 65
4, 28967, Note_on_c, 1, 43, 0
4, 28968, Note_on_c, 1, 55, 64
4, 28991, Note_on_c, 1, 55, 0
4, 28992, Note_on_c, 1, 43, 64
4, 29081, Note_on_c, 1, 43, 0
4, 29184, Note_on_c, 1, 64, 64
4, 29184, Note_on_c, 1, 60, 64
4, 29231, Note_on_c, 1, 64, 0
4, 29231, Note_on_c, 1, 60, 0
4, 29232, Note_on_c, 1, 64, 64
4, 29232, Note_on_c, 1, 60, 64
4, 29279, Note_on_c, 1, 64, 0
4, 29279, Note_on_c, 1, 60, 0
4, 29280, Note_on_c, 1, 64, 64
4, 29280, Note_on_c, 1, 60, 64
4, 29327, Note_on_c, 1, 64, 0
4, 29327, Note_on_c, 1, 60, 0
4, 29328, Note_on_c, 1, 64, 64
4, 29328, Note_on_c, 1, 60, 64
4, 29375, Note_on_c, 1, 64, 0
4, 29375, Note_on_c, 1, 60, 0
4, 29376, Note_on_c, 1, 64, 64
4, 29376, Note_on_c, 1, 60, 64
4, 29423, Note_on_c, 1, 64, 0
4, 29423, Note_on_c, 1, 60, 0
4, 29424, Note_on_c, 1, 64, 64
4, 29424, Note_on_c, 1, 60, 64
4, 29471, Note_on_c, 1, 64, 0
4, 29471, Note_on_c, 1, 60, 0
4, 29472, Note_on_c, 1, 64, 64
4, 29472, Note_on_c, 1, 60, 64
4, 29519, Note_on_c, 1, 64, 0
4, 29519, Note_on_c, 1, 60, 0
4, 29520, Note_on_c, 1, 64, 64
4, 29520, Note_on_c, 1, 60, 64
4, 29567, Note_on_c, 1, 64, 0
4, 29567, Note_on_c, 1, 60, 0
4, 29568, Note_on_c, 1, 65, 64
4, 29568, Note_on_c, 1, 60, 64
4, 29615, Note_on_c, 1, 65, 0
4, 29615, Note_on_c, 1, 60, 0
4, 29616, Note_on_c, 1, 65, 64
4, 29616, Note_on_c, 1, 60, 64
4, 29663, Note_on_c, 1, 65, 0
4, 29663, Note_on_c, 1, 60, 0
4, 29664, Note_on_c, 1, 65, 64
4, 29664, Note_on_c, 1, 60, 64
4, 29711, Note_on_c, 1, 65, 0
4, 29711, Note_on_c, 1, 60, 0
4, 29712, Note_on_c, 1, 65, 64
4, 29712, Note_on_c, 1, 60, 64
4, 29759, Note_on_c, 1, 65, 0
4, 29759, Note_on_c, 1, 60, 0
4, 29760, Note_on_c, 1, 65, 64
4, 29760, Note_on_c, 1, 60, 64
4, 29807, Note_on_c, 1, 65, 0
4, 29807, Note_on_c, 1, 60, 0
4, 29808, Note_on_c, 1, 65, 64
4, 29808, Note_on_c, 1, 60, 64
4, 29855, Note_on_c, 1, 65, 0
4, 29855, Note_on_c, 1, 60, 0
4, 29856, Note_on_c, 1, 65, 64
4, 29856, Note_on_c, 1, 60, 64
4, 29903, Note_on_c, 1, 65, 0
4, 29903, Note_on_c, 1, 60, 0
4, 29904, Note_on_c, 1, 65, 64
4, 29904, Note_on_c, 1, 60, 64
4, 29951, Note_on_c, 1, 65, 0
4, 29951, Note_on_c, 1, 60, 0
4, 29952, Note_on_c, 1, 64, 64
4, 29952, Note_on_c, 1, 60, 64
4, 29999, Note_on_c, 1, 64, 0
4, 29999, Note_on_c, 1, 60, 0
4, 30000, Note_on_c, 1, 64, 64
4, 30000, Note_on_c, 1, 60, 64
4, 30047, Note_on_c, 1, 64, 0
4, 30047, Note_on_c, 1, 60, 0
4, 30048, Note_on_c, 1, 64, 64
4, 30048, Note_on_c, 1, 60, 64
4, 30095, Note_on_c, 1, 64, 0
4, 30095, Note_on_c, 1, 60, 0
4, 30096, Note_on_c, 1, 64, 64
4, 30096, Note_on_c, 1, 60, 64
4, 30143, Note_on_c, 1, 64, 0
4, 30143, Note_on_c, 1, 60, 0
4, 30144, Note_on_c, 1, 64, 64
4, 30144, Note_on_c, 1, 60, 64
4, 30191, Note_on_c, 1, 64, 0
4, 30191, Note_on_c, 1, 60, 0
4, 30192, Note_on_c, 1, 64, 64
4, 30192, Note_on_c, 1, 60, 64
4, 30239, Note_on_c, 1, 64, 0
4, 30239, Note_on_c, 1, 60, 0
4, 30240, Note_on_c, 1, 64, 64
4, 30240, Note_on_c, 1, 60, 64
4, 30287, Note_on_c, 1, 64, 0
4, 30287, Note_on_c, 1, 60, 0
4, 30288, Note_on_c, 1, 64, 64
4, 30288, Note_on_c, 1, 60, 64
4, 30335, Note_on_c, 1, 64, 0
4, 30335, Note_on_c, 1, 60, 0
4, 30336, Note_on_c, 1, 62, 70
4, 30381, Note_on_c, 1, 62, 0
4, 30384, Note_on_c, 1, 59, 70
4, 30429, Note_on_c, 1, 59, 0
4, 30432, Note_on_c, 1, 60, 70
4, 30477, Note_on_c, 1, 60, 0
4, 30480, Note_on_c, 1, 64, 70
4, 30525, Note_on_c, 1, 64, 0
4, 30528, Note_on_c, 1, 62, 70
4, 30573, Note_on_c, 1, 62, 0
4, 30576, Note_on_c, 1, 59, 70
4, 30621, Note_on_c, 1, 59, 0
4, 30624, Note_on_c, 1, 60, 70
4, 30669, Note_on_c, 1, 60, 0
4, 30672, Note_on_c, 1, 64, 70
4, 30717, Note_on_c, 1, 64, 0
4, 30720, Note_on_c, 1, 62, 75
4, 30720, Note_on_c, 1, 55, 75
4, 30809, Note_on_c, 1, 62, 0
4, 30809, Note_on_c, 1, 55, 0
4, 30816, Note_on_c, 1, 60, 75
4, 30816, Note_on_c, 1, 55, 75
4, 30905, Note_on_c, 1, 60, 0
4, 30905, Note_on_c, 1, 55, 0
4, 30912, Note_on_c, 1, 60, 75
4, 30957, Note_on_c, 1, 60, 0
4, 30960, Note_on_c, 1, 59, 75
4, 31005, Note_on_c, 1, 59, 0
4, 31296, Note_on_c, 1, 64, 80
4, 31341, Note_on_c, 1, 64, 0
4, 31344, Note_on_c, 1, 65, 80
4, 31389, Note_on_c, 1, 65, 0
4, 31392, Note_on_c, 1, 64, 80
4, 31437, Note_on_c, 1, 64, 0
4, 31680, Note_on_c, 1, 52, 80
4, 31725, Note_on_c, 1, 52, 0
4, 31728, Note_on_c, 1, 50, 80
4, 31773, Note_on_c, 1, 50, 0
4, 31776, Note_on_c, 1, 48, 80
4, 31821, Note_on_c, 1, 48, 0
4, 31824, Note_on_c, 1, 52, 80
4, 31869, Note_on_c, 1, 52, 0
4, 31872, Note_on_c, 1, 53, 80
4, 31917, Note_on_c, 1, 53, 0
4, 31920, Note_on_c, 1, 55, 80
4, 31965, Note_on_c, 1, 55, 0
4, 31968, Note_on_c, 1, 57, 81
4, 32013, Note_on_c, 1, 57, 0
4, 32016, Note_on_c, 1, 54, 81
4, 32061, Note_on_c, 1, 54, 0
4, 32064, Note_on_c, 1, 55, 81
4, 32109, Note_on_c, 1, 55, 0
4, 32112, Note_on_c, 1, 57, 81
4, 32157, Note_on_c, 1, 57, 0
4, 32160, Note_on_c, 1, 59, 82
4, 32205, Note_on_c, 1, 59, 0
4, 32208, Note_on_c, 1, 56, 82
4, 32253, Note_on_c, 1, 56, 0
4, 32256, Note_on_c, 1, 57, 82
4, 32301, Note_on_c, 1, 57, 0
4, 32304, Note_on_c, 1, 59, 82
4, 32349, Note_on_c, 1, 59, 0
4, 32352, Note_on_c, 1, 60, 83
4, 32397, Note_on_c, 1, 60, 0
4, 32400, Note_on_c, 1, 57, 83
4, 32445, Note_on_c, 1, 57, 0
4, 32448, Note_on_c, 1, 59, 83
4, 32493, Note_on_c, 1, 59, 0
4, 32496, Note_on_c, 1, 60, 83
4, 32541, Note_on_c, 1, 60, 0
4, 32544, Note_on_c, 1, 62, 84
4, 32589, Note_on_c, 1, 62, 0
4, 32592, Note_on_c, 1, 59, 84
4, 32637, Note_on_c, 1, 59, 0
4, 32640, Note_on_c, 1, 60, 84
4, 32685, Note_on_c, 1, 60, 0
4, 32688, Note_on_c, 1, 52, 84
4, 32733, Note_on_c, 1, 52, 0
4, 32736, Note_on_c, 1, 53, 85
4, 32781, Note_on_c, 1, 53, 0
4, 32784, Note_on_c, 1, 55, 85
4, 32829, Note_on_c, 1, 55, 0
4, 32832, Note_on_c, 1, 48, 85
4, 32877, Note_on_c, 1, 48, 0
4, 32880, Note_on_c, 1, 60, 86
4, 32925, Note_on_c, 1, 60, 0
4, 32928, Note_on_c, 1, 48, 86
4, 33017, Note_on_c, 1, 48, 0
4, 33072, Note_on_c, 1, 60, 70
4, 33072, Note_on_c, 1, 48, 70
4, 33120, Note_on_c, 1, 60, 0
4, 33120, Note_on_c, 1, 48, 0
4, 33120, Note_on_c, 1, 62, 70
4, 33120, Note_on_c, 1, 50, 70
4, 33165, Note_on_c, 1, 62, 0
4, 33165, Note_on_c, 1, 50, 0
4, 33264, Note_on_c, 1, 60, 70
4, 33264, Note_on_c, 1, 48, 70
4, 33312, Note_on_c, 1, 60, 0
4, 33312, Note_on_c, 1, 48, 0
4, 33312, Note_on_c, 1, 59, 70
4, 33312, Note_on_c, 1, 47, 70
4, 33357, Note_on_c, 1, 59, 0
4, 33357, Note_on_c, 1, 47, 0
4, 33456, Note_on_c, 1, 59, 70
4, 33456, Note_on_c, 1, 47, 70
4, 33504, Note_on_c, 1, 59, 0
4, 33504, Note_on_c, 1, 47, 0
4, 33504, Note_on_c, 1, 60, 70
4, 33504, Note_on_c, 1, 48, 70
4, 33549, Note_on_c, 1, 60, 0
4, 33549, Note_on_c, 1, 48, 0
4, 33648, Note_on_c, 1, 58, 70
4, 33648, Note_on_c, 1, 46, 70
4, 33696, Note_on_c, 1, 58, 0
4, 33696, Note_on_c, 1, 46, 0
4, 33696, Note_on_c, 1, 56, 70
4, 33696, Note_on_c, 1, 44, 70
4, 33741, Note_on_c, 1, 56, 0
4, 33741, Note_on_c, 1, 44, 0
4, 33840, Note_on_c, 1, 55, 68
4, 33840, Note_on_c, 1, 43, 68
4, 33888, Note_on_c, 1, 55, 0
4, 33888, Note_on_c, 1, 43, 0
4, 33888, Note_on_c, 1, 54, 67
4, 33888, Note_on_c, 1, 42, 67
4, 33933, Note_on_c, 1, 54, 0
4, 33933, Note_on_c, 1, 42, 0
4, 33936, Note_on_c, 1, 54, 66
4, 33936, Note_on_c, 1, 42, 66
4, 33956, Note_on_c, 1, 54, 0
4, 33956, Note_on_c, 1, 42, 0
4, 33984, Note_on_c, 1, 55, 65
4, 34029, Note_on_c, 1, 55, 0
4, 34032, Note_on_c, 1, 43, 64
4, 34077, Note_on_c, 1, 43, 0
4, 34176, Note_on_c, 1, 52, 75
4, 34176, Note_on_c, 1, 48, 75
4, 34265, Note_on_c, 1, 52, 0
4, 34265, Note_on_c, 1, 48, 0
4, 34512, Note_on_c, 1, 60, 75
4, 34512, Note_on_c, 1, 52, 75
4, 34557, Note_on_c, 1, 60, 0
4, 34557, Note_on_c, 1, 52, 0
4, 34560, Note_on_c, 1, 60, 75
4, 34560, Note_on_c, 1, 53, 75
4, 34649, Note_on_c, 1, 60, 0
4, 34649, Note_on_c, 1, 53, 0
4, 34656, Note_on_c, 1, 60, 75
4, 34701, Note_on_c, 1, 60, 0
4, 34704, Note_on_c, 1, 59, 75
4, 34749, Note_on_c, 1, 59, 0
4, 34752, Note_on_c, 1, 60, 75
4, 34797, Note_on_c, 1, 60, 0
4, 34800, Note_on_c, 1, 55, 75
4, 34845, Note_on_c, 1, 55, 0
4, 34848, Note_on_c, 1, 48, 75
4, 34937, Note_on_c, 1, 48, 0
4, 34944, Note_on_c, 1, 52, 75
4, 34944, Note_on_c, 1, 48, 75
4, 35033, Note_on_c, 1, 52, 0
4, 35033, Note_on_c, 1, 48, 0
4, 35184, Note_on_c, 1, 52, 80
4, 35184, Note_on_c, 1, 40, 80
4, 35229, Note_on_c, 1, 52, 0
4, 35229, Note_on_c, 1, 40, 0
4, 35232, Note_on_c, 1, 52, 80
4, 35232, Note_on_c, 1, 40, 80
4, 35277, Note_on_c, 1, 52, 0
4, 35277, Note_on_c, 1, 40, 0
4, 35280, Note_on_c, 1, 52, 80
4, 35280, Note_on_c, 1, 40, 80
4, 35325, Note_on_c, 1, 52, 0
4, 35325, Note_on_c, 1, 40, 0
4, 35328, Note_on_c, 1, 53, 80
4, 35328, Note_on_c, 1, 41, 80
4, 35373, Note_on_c, 1, 53, 0
4, 35373, Note_on_c, 1, 41, 0
4, 35376, Note_on_c, 1, 53, 80
4, 35376, Note_on_c, 1, 41, 80
4, 35421, Note_on_c, 1, 53, 0
4, 35421, Note_on_c, 1, 41, 0
4, 35424, Note_on_c, 1, 50, 80
4, 35424, Note_on_c, 1, 38, 80
4, 35469, Note_on_c, 1, 50, 0
4, 35469, Note_on_c, 1, 38, 0
4, 35472, Note_on_c, 1, 50, 80
4, 35472, Note_on_c, 1, 38, 80
4, 35517, Note_on_c, 1, 50, 0
4, 35517, Note_on_c, 1, 38, 0
4, 35520, Note_on_c, 1, 47, 80
4, 35520, Note_on_c, 1, 35, 80
4, 35565, Note_on_c, 1, 47, 0
4, 35565, Note_on_c, 1, 35, 0
4, 35568, Note_on_c, 1, 47, 80
4, 35568, Note_on_c, 1, 35, 80
4, 35613, Note_on_c, 1, 47, 0
4, 35613, Note_on_c, 1, 35, 0
4, 35616, Note_on_c, 1, 48, 80
4, 35616, Note_on_c, 1, 36, 80
4, 35661, Note_on_c, 1, 48, 0
4, 35661, Note_on_c, 1, 36, 0
4, 35664, Note_on_c, 1, 48, 80
4, 35664, Note_on_c, 1, 36, 80
4, 35709, Note_on_c, 1, 48, 0
4, 35709, Note_on_c, 1, 36, 0
4, 35712, Note_on_c, 1, 53, 80
4, 35712, Note_on_c, 1, 41, 80
4, 35757, Note_on_c, 1, 53, 0
4, 35757, Note_on_c, 1, 41, 0
4, 35760, Note_on_c, 1, 53, 80
4, 35760, Note_on_c, 1, 41, 80
4, 35805, Note_on_c, 1, 53, 0
4, 35805, Note_on_c, 1, 41, 0
4, 35808, Note_on_c, 1, 55, 80
4, 35808, Note_on_c, 1, 43, 80
4, 35853, Note_on_c, 1, 55, 0
4, 35853, Note_on_c, 1, 43, 0
4, 35856, Note_on_c, 1, 55, 80
4, 35856, Note_on_c, 1, 43, 80
4, 35901, Note_on_c, 1, 55, 0
4, 35901, Note_on_c, 1, 43, 0
4, 35904, Note_on_c, 1, 48, 80
4, 35904, Note_on_c, 1, 36, 80
4, 35993, Note_on_c, 1, 48, 0
4, 35993, Note_on_c, 1, 36, 0
4, 36096, Note_on_c, 1, 36, 0
4, 36185, Note_on_c, 1, 36, 0
4, 36192, End_track
5, 0, Start_track
5, 0, Program_c, 1, 0
5, 0, Control_c, 1, 7, 127
5, 0, Control_c, 1, 10, 64
5, 1152, Note_on_c, 1, 55, 75
5, 1329, Note_on_c, 1, 55, 0
5, 1344, Note_on_c, 1, 55, 75
5, 1521, Note_on_c, 1, 55, 0
5, 1728, Note_on_c, 1, 55, 75
5, 1817, Note_on_c, 1, 55, 0
5, 5376, Note_on_c, 1, 48, 75
5, 5465, Note_on_c, 1, 48, 0
5, 5472, Note_on_c, 1, 50, 75
5, 5561, Note_on_c, 1, 50, 0
5, 8064, Note_on_c, 1, 55, 75
5, 8241, Note_on_c, 1, 55, 0
5, 8256, Note_on_c, 1, 55, 75
5, 8433, Note_on_c, 1, 55, 0
5, 8640, Note_on_c, 1, 55, 75
5, 8729, Note_on_c, 1, 55, 0
5, 12288, Note_on_c, 1, 48, 75
5, 12377, Note_on_c, 1, 48, 0
5, 12384, Note_on_c, 1, 50, 75
5, 12473, Note_on_c, 1, 50, 0
5, 19200, Note_on_c, 1, 55, 75
5, 19377, Note_on_c, 1, 55, 0
5, 19392, Note_on_c, 1, 55, 75
5, 19569, Note_on_c, 1, 55, 0
5, 19776, Note_on_c, 1, 55, 75
5, 19865, Note_on_c, 1, 55, 0
5, 23520, Note_on_c, 1, 55, 75
5, 23609, Note_on_c, 1, 55, 0
5, 30336, Note_on_c, 1, 55, 75
5, 30513, Note_on_c, 1, 55, 0
5, 30528, Note_on_c, 1, 55, 75
5, 30705, Note_on_c, 1, 55, 0
5, 30912, Note_on_c, 1, 55, 75
5, 31001, Note_on_c, 1, 55, 0
5, 34656, Note_on_c, 1, 55, 75
5, 34745, Note_on_c, 1, 55, 0
5, 36096, End_track
6, 0, Start_track
6, 0, Title_t, "Sonata I   Haydn  "
6, 0, End_track
0, 0, End_of_file
