0, 0, Header, 1, 5, 96
1, 0, Start_track
1, 0, Copyright_t, "Copyright  1994-2002 Mozart Music Software"
1, 0, Sequencer_specific, 16, 68, 87, 77, 90, 86, 82, 83, 78, 32, 55, 46, 48, 46, 55, 46, 48
1, 0, Time_signature, 2, 2, 24, 8
1, 0, Tempo, 600000
1, 0, Key_signature, 3, "major"
1, 7104, Key_signature, 1, "major"
1, 9216, Key_signature, 3, "major"
1, 19008, Key_signature, 1, "major"
1, 21120, Key_signature, 3, "major"
1, 34176, Key_signature, 0, "major"
1, 36288, Key_signature, 3, "major"
1, 49344, Key_signature, 0, "major"
1, 51456, Key_signature, 3, "major"
1, 54336, End_track
2, 0, Start_track
2, 0, Program_c, 0, 0
2, 0, Control_c, 0, 7, 127
2, 0, Control_c, 0, 10, 64
2, 0, Note_on_c, 0, 69, 78
2, 23, Note_on_c, 0, 69, 0
2, 24, Note_on_c, 0, 71, 78
2, 47, Note_on_c, 0, 71, 0
2, 48, Note_on_c, 0, 73, 78
2, 71, Note_on_c, 0, 73, 0
2, 72, Note_on_c, 0, 74, 78
2, 95, Note_on_c, 0, 74, 0
2, 96, Note_on_c, 0, 76, 78
2, 119, Note_on_c, 0, 76, 0
2, 120, Note_on_c, 0, 78, 78
2, 143, Note_on_c, 0, 78, 0
2, 144, Note_on_c, 0, 80, 78
2, 167, Note_on_c, 0, 80, 0
2, 168, Note_on_c, 0, 81, 78
2, 191, Note_on_c, 0, 81, 0
2, 192, Note_on_c, 0, 78, 78
2, 202, Note_on_c, 0, 78, 0
2, 202, Note_on_c, 0, 80, 78
2, 212, Note_on_c, 0, 80, 0
2, 212, Note_on_c, 0, 78, 78
2, 222, Note_on_c, 0, 78, 0
2, 222, Note_on_c, 0, 76, 78
2, 231, Note_on_c, 0, 76, 0
2, 231, Note_on_c, 0, 78, 78
2, 240, Note_on_c, 0, 78, 0
2, 240, Note_on_c, 0, 76, 78
2, 285, Note_on_c, 0, 76, 0
2, 336, Note_on_c, 0, 83, 78
2, 348, Note_on_c, 0, 83, 0
2, 348, Note_on_c, 0, 81, 78
2, 360, Note_on_c, 0, 81, 0
2, 360, Note_on_c, 0, 80, 78
2, 372, Note_on_c, 0, 80, 0
2, 372, Note_on_c, 0, 81, 78
2, 384, Note_on_c, 0, 81, 0
2, 384, Note_on_c, 0, 80, 78
2, 399, Note_on_c, 0, 80, 0
2, 400, Note_on_c, 0, 81, 78
2, 415, Note_on_c, 0, 81, 0
2, 416, Note_on_c, 0, 83, 78
2, 431, Note_on_c, 0, 83, 0
2, 432, Note_on_c, 0, 74, 78
2, 477, Note_on_c, 0, 74, 0
2, 480, Note_on_c, 0, 73, 78
2, 490, Note_on_c, 0, 73, 0
2, 490, Note_on_c, 0, 74, 78
2, 500, Note_on_c, 0, 74, 0
2, 500, Note_on_c, 0, 73, 78
2, 510, Note_on_c, 0, 73, 0
2, 510, Note_on_c, 0, 71, 78
2, 519, Note_on_c, 0, 71, 0
2, 519, Note_on_c, 0, 73, 78
2, 528, Note_on_c, 0, 73, 0
2, 528, Note_on_c, 0, 71, 78
2, 573, Note_on_c, 0, 71, 0
2, 576, Note_on_c, 0, 73, 78
2, 591, Note_on_c, 0, 73, 0
2, 592, Note_on_c, 0, 74, 78
2, 607, Note_on_c, 0, 74, 0
2, 608, Note_on_c, 0, 76, 78
2, 623, Note_on_c, 0, 76, 0
2, 624, Note_on_c, 0, 69, 78
2, 669, Note_on_c, 0, 69, 0
2, 720, Note_on_c, 0, 83, 78
2, 732, Note_on_c, 0, 83, 0
2, 732, Note_on_c, 0, 81, 78
2, 744, Note_on_c, 0, 81, 0
2, 744, Note_on_c, 0, 80, 78
2, 756, Note_on_c, 0, 80, 0
2, 756, Note_on_c, 0, 81, 78
2, 768, Note_on_c, 0, 81, 0
2, 768, Note_on_c, 0, 80, 78
2, 783, Note_on_c, 0, 80, 0
2, 784, Note_on_c, 0, 81, 78
2, 799, Note_on_c, 0, 81, 0
2, 800, Note_on_c, 0, 83, 78
2, 815, Note_on_c, 0, 83, 0
2, 816, Note_on_c, 0, 74, 78
2, 861, Note_on_c, 0, 74, 0
2, 864, Note_on_c, 0, 73, 78
2, 874, Note_on_c, 0, 73, 0
2, 874, Note_on_c, 0, 74, 78
2, 884, Note_on_c, 0, 74, 0
2, 884, Note_on_c, 0, 73, 78
2, 894, Note_on_c, 0, 73, 0
2, 894, Note_on_c, 0, 71, 78
2, 903, Note_on_c, 0, 71, 0
2, 903, Note_on_c, 0, 73, 78
2, 912, Note_on_c, 0, 73, 0
2, 912, Note_on_c, 0, 71, 78
2, 957, Note_on_c, 0, 71, 0
2, 960, Note_on_c, 0, 73, 78
2, 975, Note_on_c, 0, 73, 0
2, 976, Note_on_c, 0, 74, 78
2, 991, Note_on_c, 0, 74, 0
2, 992, Note_on_c, 0, 76, 78
2, 1007, Note_on_c, 0, 76, 0
2, 1008, Note_on_c, 0, 69, 78
2, 1053, Note_on_c, 0, 69, 0
2, 1104, Note_on_c, 0, 83, 78
2, 1116, Note_on_c, 0, 83, 0
2, 1116, Note_on_c, 0, 81, 78
2, 1128, Note_on_c, 0, 81, 0
2, 1128, Note_on_c, 0, 80, 78
2, 1140, Note_on_c, 0, 80, 0
2, 1140, Note_on_c, 0, 81, 78
2, 1145, Note_on_c, 0, 81, 0
2, 1152, Note_on_c, 0, 81, 78
2, 1175, Note_on_c, 0, 81, 0
2, 1176, Note_on_c, 0, 78, 78
2, 1199, Note_on_c, 0, 78, 0
2, 1200, Note_on_c, 0, 76, 78
2, 1223, Note_on_c, 0, 76, 0
2, 1224, Note_on_c, 0, 75, 78
2, 1247, Note_on_c, 0, 75, 0
2, 1248, Note_on_c, 0, 76, 78
2, 1263, Note_on_c, 0, 76, 0
2, 1264, Note_on_c, 0, 78, 78
2, 1279, Note_on_c, 0, 78, 0
2, 1280, Note_on_c, 0, 80, 78
2, 1295, Note_on_c, 0, 80, 0
2, 1296, Note_on_c, 0, 76, 78
2, 1341, Note_on_c, 0, 76, 0
2, 1344, Note_on_c, 0, 81, 72
2, 1367, Note_on_c, 0, 81, 0
2, 1368, Note_on_c, 0, 78, 72
2, 1391, Note_on_c, 0, 78, 0
2, 1392, Note_on_c, 0, 76, 72
2, 1415, Note_on_c, 0, 76, 0
2, 1416, Note_on_c, 0, 75, 72
2, 1439, Note_on_c, 0, 75, 0
2, 1440, Note_on_c, 0, 76, 72
2, 1455, Note_on_c, 0, 76, 0
2, 1456, Note_on_c, 0, 78, 72
2, 1471, Note_on_c, 0, 78, 0
2, 1472, Note_on_c, 0, 80, 72
2, 1487, Note_on_c, 0, 80, 0
2, 1488, Note_on_c, 0, 76, 72
2, 1533, Note_on_c, 0, 76, 0
2, 1536, Note_on_c, 0, 85, 78
2, 1551, Note_on_c, 0, 85, 0
2, 1552, Note_on_c, 0, 83, 78
2, 1567, Note_on_c, 0, 83, 0
2, 1568, Note_on_c, 0, 81, 78
2, 1583, Note_on_c, 0, 81, 0
2, 1584, Note_on_c, 0, 83, 78
2, 1599, Note_on_c, 0, 83, 0
2, 1600, Note_on_c, 0, 81, 78
2, 1615, Note_on_c, 0, 81, 0
2, 1616, Note_on_c, 0, 80, 78
2, 1631, Note_on_c, 0, 80, 0
2, 1632, Note_on_c, 0, 81, 78
2, 1647, Note_on_c, 0, 81, 0
2, 1648, Note_on_c, 0, 80, 78
2, 1663, Note_on_c, 0, 80, 0
2, 1664, Note_on_c, 0, 78, 78
2, 1679, Note_on_c, 0, 78, 0
2, 1680, Note_on_c, 0, 80, 78
2, 1695, Note_on_c, 0, 80, 0
2, 1696, Note_on_c, 0, 78, 78
2, 1711, Note_on_c, 0, 78, 0
2, 1712, Note_on_c, 0, 76, 78
2, 1727, Note_on_c, 0, 76, 0
2, 1728, Note_on_c, 0, 81, 78
2, 1743, Note_on_c, 0, 81, 0
2, 1744, Note_on_c, 0, 80, 78
2, 1759, Note_on_c, 0, 80, 0
2, 1760, Note_on_c, 0, 78, 78
2, 1775, Note_on_c, 0, 78, 0
2, 1776, Note_on_c, 0, 80, 78
2, 1791, Note_on_c, 0, 80, 0
2, 1792, Note_on_c, 0, 78, 78
2, 1807, Note_on_c, 0, 78, 0
2, 1808, Note_on_c, 0, 76, 78
2, 1823, Note_on_c, 0, 76, 0
2, 1824, Note_on_c, 0, 78, 78
2, 1839, Note_on_c, 0, 78, 0
2, 1840, Note_on_c, 0, 76, 78
2, 1855, Note_on_c, 0, 76, 0
2, 1856, Note_on_c, 0, 75, 78
2, 1871, Note_on_c, 0, 75, 0
2, 1872, Note_on_c, 0, 76, 78
2, 1887, Note_on_c, 0, 76, 0
2, 1888, Note_on_c, 0, 75, 78
2, 1903, Note_on_c, 0, 75, 0
2, 1904, Note_on_c, 0, 73, 78
2, 1919, Note_on_c, 0, 73, 0
2, 1920, Note_on_c, 0, 75, 78
2, 1935, Note_on_c, 0, 75, 0
2, 1936, Note_on_c, 0, 76, 78
2, 1951, Note_on_c, 0, 76, 0
2, 1952, Note_on_c, 0, 78, 78
2, 1967, Note_on_c, 0, 78, 0
2, 1968, Note_on_c, 0, 71, 78
2, 2013, Note_on_c, 0, 71, 0
2, 2040, Note_on_c, 0, 71, 78
2, 2063, Note_on_c, 0, 71, 0
2, 2064, Note_on_c, 0, 75, 78
2, 2087, Note_on_c, 0, 75, 0
2, 2088, Note_on_c, 0, 78, 78
2, 2111, Note_on_c, 0, 78, 0
2, 2112, Note_on_c, 0, 76, 78
2, 2127, Note_on_c, 0, 76, 0
2, 2128, Note_on_c, 0, 78, 78
2, 2143, Note_on_c, 0, 78, 0
2, 2144, Note_on_c, 0, 80, 78
2, 2159, Note_on_c, 0, 80, 0
2, 2160, Note_on_c, 0, 71, 78
2, 2205, Note_on_c, 0, 71, 0
2, 2232, Note_on_c, 0, 71, 78
2, 2255, Note_on_c, 0, 71, 0
2, 2256, Note_on_c, 0, 76, 78
2, 2279, Note_on_c, 0, 76, 0
2, 2280, Note_on_c, 0, 80, 78
2, 2303, Note_on_c, 0, 80, 0
2, 2304, Note_on_c, 0, 78, 78
2, 2319, Note_on_c, 0, 78, 0
2, 2320, Note_on_c, 0, 80, 78
2, 2335, Note_on_c, 0, 80, 0
2, 2336, Note_on_c, 0, 81, 78
2, 2351, Note_on_c, 0, 81, 0
2, 2352, Note_on_c, 0, 71, 78
2, 2397, Note_on_c, 0, 71, 0
2, 2424, Note_on_c, 0, 71, 78
2, 2447, Note_on_c, 0, 71, 0
2, 2448, Note_on_c, 0, 78, 78
2, 2471, Note_on_c, 0, 78, 0
2, 2472, Note_on_c, 0, 81, 78
2, 2495, Note_on_c, 0, 81, 0
2, 2496, Note_on_c, 0, 80, 78
2, 2511, Note_on_c, 0, 80, 0
2, 2512, Note_on_c, 0, 81, 78
2, 2527, Note_on_c, 0, 81, 0
2, 2528, Note_on_c, 0, 83, 78
2, 2543, Note_on_c, 0, 83, 0
2, 2544, Note_on_c, 0, 76, 78
2, 2589, Note_on_c, 0, 76, 0
2, 2592, Note_on_c, 0, 78, 78
2, 2602, Note_on_c, 0, 78, 0
2, 2602, Note_on_c, 0, 80, 78
2, 2612, Note_on_c, 0, 80, 0
2, 2612, Note_on_c, 0, 78, 78
2, 2622, Note_on_c, 0, 78, 0
2, 2622, Note_on_c, 0, 76, 78
2, 2631, Note_on_c, 0, 76, 0
2, 2631, Note_on_c, 0, 78, 78
2, 2640, Note_on_c, 0, 78, 0
2, 2640, Note_on_c, 0, 76, 78
2, 2685, Note_on_c, 0, 76, 0
2, 2688, Note_on_c, 0, 80, 78
2, 2703, Note_on_c, 0, 80, 0
2, 2704, Note_on_c, 0, 81, 78
2, 2719, Note_on_c, 0, 81, 0
2, 2720, Note_on_c, 0, 83, 78
2, 2735, Note_on_c, 0, 83, 0
2, 2736, Note_on_c, 0, 76, 78
2, 2781, Note_on_c, 0, 76, 0
2, 2784, Note_on_c, 0, 75, 78
2, 2794, Note_on_c, 0, 75, 0
2, 2794, Note_on_c, 0, 76, 78
2, 2804, Note_on_c, 0, 76, 0
2, 2804, Note_on_c, 0, 75, 78
2, 2814, Note_on_c, 0, 75, 0
2, 2814, Note_on_c, 0, 73, 78
2, 2823, Note_on_c, 0, 73, 0
2, 2823, Note_on_c, 0, 75, 78
2, 2832, Note_on_c, 0, 75, 0
2, 2832, Note_on_c, 0, 76, 78
2, 2877, Note_on_c, 0, 76, 0
2, 2928, Note_on_c, 0, 75, 78
2, 2928, Note_on_c, 0, 72, 78
2, 2973, Note_on_c, 0, 75, 0
2, 2973, Note_on_c, 0, 72, 0
2, 2976, Note_on_c, 0, 78, 78
2, 2976, Note_on_c, 0, 75, 78
2, 3021, Note_on_c, 0, 78, 0
2, 3021, Note_on_c, 0, 75, 0
2, 3024, Note_on_c, 0, 75, 78
2, 3024, Note_on_c, 0, 72, 78
2, 3069, Note_on_c, 0, 75, 0
2, 3069, Note_on_c, 0, 72, 0
2, 3120, Note_on_c, 0, 76, 78
2, 3120, Note_on_c, 0, 73, 78
2, 3165, Note_on_c, 0, 76, 0
2, 3165, Note_on_c, 0, 73, 0
2, 3168, Note_on_c, 0, 80, 78
2, 3168, Note_on_c, 0, 76, 78
2, 3213, Note_on_c, 0, 80, 0
2, 3213, Note_on_c, 0, 76, 0
2, 3216, Note_on_c, 0, 76, 78
2, 3216, Note_on_c, 0, 73, 78
2, 3261, Note_on_c, 0, 76, 0
2, 3261, Note_on_c, 0, 73, 0
2, 3312, Note_on_c, 0, 73, 78
2, 3312, Note_on_c, 0, 70, 78
2, 3357, Note_on_c, 0, 73, 0
2, 3357, Note_on_c, 0, 70, 0
2, 3360, Note_on_c, 0, 76, 78
2, 3360, Note_on_c, 0, 73, 78
2, 3405, Note_on_c, 0, 76, 0
2, 3405, Note_on_c, 0, 73, 0
2, 3408, Note_on_c, 0, 73, 78
2, 3408, Note_on_c, 0, 70, 78
2, 3453, Note_on_c, 0, 73, 0
2, 3453, Note_on_c, 0, 70, 0
2, 3504, Note_on_c, 0, 75, 78
2, 3504, Note_on_c, 0, 71, 78
2, 3549, Note_on_c, 0, 75, 0
2, 3549, Note_on_c, 0, 71, 0
2, 3552, Note_on_c, 0, 78, 78
2, 3552, Note_on_c, 0, 75, 78
2, 3597, Note_on_c, 0, 78, 0
2, 3597, Note_on_c, 0, 75, 0
2, 3600, Note_on_c, 0, 75, 78
2, 3600, Note_on_c, 0, 71, 78
2, 3645, Note_on_c, 0, 75, 0
2, 3645, Note_on_c, 0, 71, 0
2, 3696, Note_on_c, 0, 78, 78
2, 3696, Note_on_c, 0, 75, 78
2, 3741, Note_on_c, 0, 78, 0
2, 3741, Note_on_c, 0, 75, 0
2, 3744, Note_on_c, 0, 81, 78
2, 3744, Note_on_c, 0, 78, 78
2, 3789, Note_on_c, 0, 81, 0
2, 3789, Note_on_c, 0, 78, 0
2, 3792, Note_on_c, 0, 78, 78
2, 3792, Note_on_c, 0, 75, 78
2, 3837, Note_on_c, 0, 78, 0
2, 3837, Note_on_c, 0, 75, 0
2, 3888, Note_on_c, 0, 80, 78
2, 3888, Note_on_c, 0, 76, 78
2, 3933, Note_on_c, 0, 80, 0
2, 3933, Note_on_c, 0, 76, 0
2, 3936, Note_on_c, 0, 83, 78
2, 3936, Note_on_c, 0, 80, 78
2, 3981, Note_on_c, 0, 83, 0
2, 3981, Note_on_c, 0, 80, 0
2, 3984, Note_on_c, 0, 80, 78
2, 3984, Note_on_c, 0, 76, 78
2, 4029, Note_on_c, 0, 80, 0
2, 4029, Note_on_c, 0, 76, 0
2, 4080, Note_on_c, 0, 73, 78
2, 4090, Note_on_c, 0, 73, 0
2, 4090, Note_on_c, 0, 75, 78
2, 4100, Note_on_c, 0, 75, 0
2, 4100, Note_on_c, 0, 73, 78
2, 4110, Note_on_c, 0, 73, 0
2, 4110, Note_on_c, 0, 71, 78
2, 4119, Note_on_c, 0, 71, 0
2, 4119, Note_on_c, 0, 73, 78
2, 4128, Note_on_c, 0, 73, 0
2, 4128, Note_on_c, 0, 71, 78
2, 4173, Note_on_c, 0, 71, 0
2, 4176, Note_on_c, 0, 76, 78
2, 4221, Note_on_c, 0, 76, 0
2, 4272, Note_on_c, 0, 81, 78
2, 4282, Note_on_c, 0, 81, 0
2, 4282, Note_on_c, 0, 83, 78
2, 4292, Note_on_c, 0, 83, 0
2, 4292, Note_on_c, 0, 81, 78
2, 4302, Note_on_c, 0, 81, 0
2, 4302, Note_on_c, 0, 80, 78
2, 4311, Note_on_c, 0, 80, 0
2, 4311, Note_on_c, 0, 81, 78
2, 4320, Note_on_c, 0, 81, 0
2, 4320, Note_on_c, 0, 80, 78
2, 4365, Note_on_c, 0, 80, 0
2, 4368, Note_on_c, 0, 76, 78
2, 4413, Note_on_c, 0, 76, 0
2, 4464, Note_on_c, 0, 73, 78
2, 4474, Note_on_c, 0, 73, 0
2, 4474, Note_on_c, 0, 75, 78
2, 4484, Note_on_c, 0, 75, 0
2, 4484, Note_on_c, 0, 73, 78
2, 4494, Note_on_c, 0, 73, 0
2, 4494, Note_on_c, 0, 71, 78
2, 4503, Note_on_c, 0, 71, 0
2, 4503, Note_on_c, 0, 73, 78
2, 4512, Note_on_c, 0, 73, 0
2, 4512, Note_on_c, 0, 71, 78
2, 4557, Note_on_c, 0, 71, 0
2, 4560, Note_on_c, 0, 76, 78
2, 4605, Note_on_c, 0, 76, 0
2, 4656, Note_on_c, 0, 81, 78
2, 4666, Note_on_c, 0, 81, 0
2, 4666, Note_on_c, 0, 83, 78
2, 4676, Note_on_c, 0, 83, 0
2, 4676, Note_on_c, 0, 81, 78
2, 4686, Note_on_c, 0, 81, 0
2, 4686, Note_on_c, 0, 80, 78
2, 4695, Note_on_c, 0, 80, 0
2, 4695, Note_on_c, 0, 81, 78
2, 4704, Note_on_c, 0, 81, 0
2, 4704, Note_on_c, 0, 80, 78
2, 4749, Note_on_c, 0, 80, 0
2, 4752, Note_on_c, 0, 76, 78
2, 4797, Note_on_c, 0, 76, 0
2, 4848, Note_on_c, 0, 71, 66
2, 4893, Note_on_c, 0, 71, 0
2, 4896, Note_on_c, 0, 71, 66
2, 4941, Note_on_c, 0, 71, 0
2, 4944, Note_on_c, 0, 71, 66
2, 4989, Note_on_c, 0, 71, 0
2, 5040, Note_on_c, 0, 73, 67
2, 5040, Note_on_c, 0, 71, 67
2, 5085, Note_on_c, 0, 73, 0
2, 5085, Note_on_c, 0, 71, 0
2, 5088, Note_on_c, 0, 73, 67
2, 5088, Note_on_c, 0, 71, 67
2, 5133, Note_on_c, 0, 73, 0
2, 5133, Note_on_c, 0, 71, 0
2, 5136, Note_on_c, 0, 73, 68
2, 5136, Note_on_c, 0, 71, 68
2, 5181, Note_on_c, 0, 73, 0
2, 5181, Note_on_c, 0, 71, 0
2, 5232, Note_on_c, 0, 73, 69
2, 5232, Note_on_c, 0, 69, 69
2, 5277, Note_on_c, 0, 73, 0
2, 5277, Note_on_c, 0, 69, 0
2, 5280, Note_on_c, 0, 73, 69
2, 5280, Note_on_c, 0, 69, 69
2, 5325, Note_on_c, 0, 73, 0
2, 5325, Note_on_c, 0, 69, 0
2, 5328, Note_on_c, 0, 73, 69
2, 5328, Note_on_c, 0, 69, 69
2, 5373, Note_on_c, 0, 73, 0
2, 5373, Note_on_c, 0, 69, 0
2, 5424, Note_on_c, 0, 75, 70
2, 5424, Note_on_c, 0, 69, 70
2, 5469, Note_on_c, 0, 75, 0
2, 5469, Note_on_c, 0, 69, 0
2, 5472, Note_on_c, 0, 75, 70
2, 5472, Note_on_c, 0, 69, 70
2, 5517, Note_on_c, 0, 75, 0
2, 5517, Note_on_c, 0, 69, 0
2, 5520, Note_on_c, 0, 75, 71
2, 5520, Note_on_c, 0, 69, 71
2, 5565, Note_on_c, 0, 75, 0
2, 5565, Note_on_c, 0, 69, 0
2, 5568, Note_on_c, 0, 68, 71
2, 5576, Note_on_c, 0, 71, 71
2, 5584, Note_on_c, 0, 76, 71
2, 5661, Note_on_c, 0, 76, 0
2, 5661, Note_on_c, 0, 71, 0
2, 5661, Note_on_c, 0, 68, 0
2, 5664, Note_on_c, 0, 71, 72
2, 5670, Note_on_c, 0, 75, 72
2, 5676, Note_on_c, 0, 78, 72
2, 5682, Note_on_c, 0, 81, 72
2, 5757, Note_on_c, 0, 81, 0
2, 5757, Note_on_c, 0, 78, 0
2, 5757, Note_on_c, 0, 75, 0
2, 5757, Note_on_c, 0, 71, 0
2, 5760, Note_on_c, 0, 71, 72
2, 5768, Note_on_c, 0, 76, 72
2, 5776, Note_on_c, 0, 80, 72
2, 5853, Note_on_c, 0, 80, 0
2, 5853, Note_on_c, 0, 76, 0
2, 5853, Note_on_c, 0, 71, 0
2, 5856, Note_on_c, 0, 69, 72
2, 5864, Note_on_c, 0, 75, 72
2, 5872, Note_on_c, 0, 78, 72
2, 5949, Note_on_c, 0, 78, 0
2, 5949, Note_on_c, 0, 75, 0
2, 5949, Note_on_c, 0, 69, 0
2, 5952, Note_on_c, 0, 68, 72
2, 5960, Note_on_c, 0, 71, 72
2, 5968, Note_on_c, 0, 76, 72
2, 6045, Note_on_c, 0, 76, 0
2, 6045, Note_on_c, 0, 71, 0
2, 6045, Note_on_c, 0, 68, 0
2, 6048, Note_on_c, 0, 71, 72
2, 6054, Note_on_c, 0, 75, 72
2, 6060, Note_on_c, 0, 78, 72
2, 6066, Note_on_c, 0, 81, 72
2, 6141, Note_on_c, 0, 81, 0
2, 6141, Note_on_c, 0, 78, 0
2, 6141, Note_on_c, 0, 75, 0
2, 6141, Note_on_c, 0, 71, 0
2, 6144, Note_on_c, 0, 71, 72
2, 6152, Note_on_c, 0, 76, 72
2, 6160, Note_on_c, 0, 80, 72
2, 6237, Note_on_c, 0, 80, 0
2, 6237, Note_on_c, 0, 76, 0
2, 6237, Note_on_c, 0, 71, 0
2, 6240, Note_on_c, 0, 69, 72
2, 6248, Note_on_c, 0, 75, 72
2, 6256, Note_on_c, 0, 78, 72
2, 6333, Note_on_c, 0, 78, 0
2, 6333, Note_on_c, 0, 75, 0
2, 6333, Note_on_c, 0, 69, 0
2, 6336, Note_on_c, 0, 76, 72
2, 6359, Note_on_c, 0, 76, 0
2, 6360, Note_on_c, 0, 80, 72
2, 6383, Note_on_c, 0, 80, 0
2, 6384, Note_on_c, 0, 71, 72
2, 6407, Note_on_c, 0, 71, 0
2, 6408, Note_on_c, 0, 76, 72
2, 6431, Note_on_c, 0, 76, 0
2, 6432, Note_on_c, 0, 68, 72
2, 6455, Note_on_c, 0, 68, 0
2, 6456, Note_on_c, 0, 71, 72
2, 6479, Note_on_c, 0, 71, 0
2, 6480, Note_on_c, 0, 64, 72
2, 6503, Note_on_c, 0, 64, 0
2, 6504, Note_on_c, 0, 68, 72
2, 6527, Note_on_c, 0, 68, 0
2, 6528, Note_on_c, 0, 73, 72
2, 6551, Note_on_c, 0, 73, 0
2, 6552, Note_on_c, 0, 76, 72
2, 6575, Note_on_c, 0, 76, 0
2, 6576, Note_on_c, 0, 69, 72
2, 6599, Note_on_c, 0, 69, 0
2, 6600, Note_on_c, 0, 73, 72
2, 6623, Note_on_c, 0, 73, 0
2, 6624, Note_on_c, 0, 66, 72
2, 6647, Note_on_c, 0, 66, 0
2, 6648, Note_on_c, 0, 69, 72
2, 6671, Note_on_c, 0, 69, 0
2, 6672, Note_on_c, 0, 61, 72
2, 6695, Note_on_c, 0, 61, 0
2, 6696, Note_on_c, 0, 66, 72
2, 6719, Note_on_c, 0, 66, 0
2, 6720, Note_on_c, 0, 64, 72
2, 6809, Note_on_c, 0, 64, 0
2, 6816, Note_on_c, 0, 63, 72
2, 6827, Note_on_c, 0, 63, 0
2, 6827, Note_on_c, 0, 64, 72
2, 6838, Note_on_c, 0, 64, 0
2, 6838, Note_on_c, 0, 63, 72
2, 6849, Note_on_c, 0, 63, 0
2, 6849, Note_on_c, 0, 64, 72
2, 6860, Note_on_c, 0, 64, 0
2, 6860, Note_on_c, 0, 63, 72
2, 6871, Note_on_c, 0, 63, 0
2, 6871, Note_on_c, 0, 64, 72
2, 6882, Note_on_c, 0, 64, 0
2, 6882, Note_on_c, 0, 63, 72
2, 6892, Note_on_c, 0, 63, 0
2, 6892, Note_on_c, 0, 61, 72
2, 6902, Note_on_c, 0, 61, 0
2, 6902, Note_on_c, 0, 63, 72
2, 6912, Note_on_c, 0, 63, 0
2, 6912, Note_on_c, 0, 64, 72
2, 7001, Note_on_c, 0, 64, 0
2, 7104, Note_on_c, 0, 67, 66
2, 7112, Note_on_c, 0, 71, 66
2, 7120, Note_on_c, 0, 76, 66
2, 7197, Note_on_c, 0, 76, 0
2, 7197, Note_on_c, 0, 71, 0
2, 7197, Note_on_c, 0, 67, 0
2, 7248, Note_on_c, 0, 76, 66
2, 7248, Note_on_c, 0, 67, 66
2, 7293, Note_on_c, 0, 76, 0
2, 7293, Note_on_c, 0, 67, 0
2, 7296, Note_on_c, 0, 76, 66
2, 7296, Note_on_c, 0, 67, 66
2, 7320, Note_on_c, 0, 76, 0
2, 7320, Note_on_c, 0, 67, 0
2, 7320, Note_on_c, 0, 75, 66
2, 7320, Note_on_c, 0, 66, 66
2, 7343, Note_on_c, 0, 75, 0
2, 7343, Note_on_c, 0, 66, 0
2, 7344, Note_on_c, 0, 75, 66
2, 7344, Note_on_c, 0, 66, 66
2, 7389, Note_on_c, 0, 75, 0
2, 7389, Note_on_c, 0, 66, 0
2, 7488, Note_on_c, 0, 71, 66
2, 7494, Note_on_c, 0, 75, 66
2, 7500, Note_on_c, 0, 78, 66
2, 7506, Note_on_c, 0, 81, 66
2, 7581, Note_on_c, 0, 81, 0
2, 7581, Note_on_c, 0, 78, 0
2, 7581, Note_on_c, 0, 75, 0
2, 7581, Note_on_c, 0, 71, 0
2, 7632, Note_on_c, 0, 81, 66
2, 7632, Note_on_c, 0, 78, 66
2, 7677, Note_on_c, 0, 81, 0
2, 7677, Note_on_c, 0, 78, 0
2, 7680, Note_on_c, 0, 81, 66
2, 7680, Note_on_c, 0, 78, 66
2, 7704, Note_on_c, 0, 81, 0
2, 7704, Note_on_c, 0, 78, 0
2, 7704, Note_on_c, 0, 79, 66
2, 7704, Note_on_c, 0, 76, 66
2, 7727, Note_on_c, 0, 79, 0
2, 7727, Note_on_c, 0, 76, 0
2, 7728, Note_on_c, 0, 79, 66
2, 7728, Note_on_c, 0, 76, 66
2, 7773, Note_on_c, 0, 79, 0
2, 7773, Note_on_c, 0, 76, 0
2, 7872, Note_on_c, 0, 84, 66
2, 7872, Note_on_c, 0, 81, 66
2, 7961, Note_on_c, 0, 84, 0
2, 7961, Note_on_c, 0, 81, 0
2, 8016, Note_on_c, 0, 84, 66
2, 8016, Note_on_c, 0, 81, 66
2, 8061, Note_on_c, 0, 84, 0
2, 8061, Note_on_c, 0, 81, 0
2, 8064, Note_on_c, 0, 84, 66
2, 8064, Note_on_c, 0, 81, 66
2, 8088, Note_on_c, 0, 84, 0
2, 8088, Note_on_c, 0, 81, 0
2, 8088, Note_on_c, 0, 83, 66
2, 8088, Note_on_c, 0, 79, 66
2, 8111, Note_on_c, 0, 83, 0
2, 8111, Note_on_c, 0, 79, 0
2, 8112, Note_on_c, 0, 83, 66
2, 8112, Note_on_c, 0, 79, 66
2, 8157, Note_on_c, 0, 83, 0
2, 8157, Note_on_c, 0, 79, 0
2, 8208, Note_on_c, 0, 83, 68
2, 8208, Note_on_c, 0, 79, 68
2, 8253, Note_on_c, 0, 83, 0
2, 8253, Note_on_c, 0, 79, 0
2, 8256, Note_on_c, 0, 83, 69
2, 8256, Note_on_c, 0, 79, 69
2, 8280, Note_on_c, 0, 83, 0
2, 8280, Note_on_c, 0, 79, 0
2, 8280, Note_on_c, 0, 81, 70
2, 8280, Note_on_c, 0, 78, 70
2, 8303, Note_on_c, 0, 81, 0
2, 8303, Note_on_c, 0, 78, 0
2, 8304, Note_on_c, 0, 81, 70
2, 8304, Note_on_c, 0, 78, 70
2, 8349, Note_on_c, 0, 81, 0
2, 8349, Note_on_c, 0, 78, 0
2, 8400, Note_on_c, 0, 81, 72
2, 8400, Note_on_c, 0, 78, 72
2, 8445, Note_on_c, 0, 81, 0
2, 8445, Note_on_c, 0, 78, 0
2, 8448, Note_on_c, 0, 81, 73
2, 8448, Note_on_c, 0, 78, 73
2, 8472, Note_on_c, 0, 81, 0
2, 8472, Note_on_c, 0, 78, 0
2, 8472, Note_on_c, 0, 79, 74
2, 8472, Note_on_c, 0, 76, 74
2, 8495, Note_on_c, 0, 79, 0
2, 8495, Note_on_c, 0, 76, 0
2, 8496, Note_on_c, 0, 79, 74
2, 8496, Note_on_c, 0, 76, 74
2, 8541, Note_on_c, 0, 79, 0
2, 8541, Note_on_c, 0, 76, 0
2, 8592, Note_on_c, 0, 79, 76
2, 8592, Note_on_c, 0, 76, 76
2, 8637, Note_on_c, 0, 79, 0
2, 8637, Note_on_c, 0, 76, 0
2, 8640, Note_on_c, 0, 81, 77
2, 8640, Note_on_c, 0, 78, 77
2, 8664, Note_on_c, 0, 81, 0
2, 8664, Note_on_c, 0, 78, 0
2, 8664, Note_on_c, 0, 79, 77
2, 8664, Note_on_c, 0, 76, 77
2, 8687, Note_on_c, 0, 79, 0
2, 8687, Note_on_c, 0, 76, 0
2, 8688, Note_on_c, 0, 79, 78
2, 8688, Note_on_c, 0, 76, 78
2, 8733, Note_on_c, 0, 79, 0
2, 8733, Note_on_c, 0, 76, 0
2, 8784, Note_on_c, 0, 79, 80
2, 8784, Note_on_c, 0, 76, 80
2, 8829, Note_on_c, 0, 79, 0
2, 8829, Note_on_c, 0, 76, 0
2, 8832, Note_on_c, 0, 81, 81
2, 8832, Note_on_c, 0, 78, 81
2, 8856, Note_on_c, 0, 81, 0
2, 8856, Note_on_c, 0, 78, 0
2, 8856, Note_on_c, 0, 79, 81
2, 8856, Note_on_c, 0, 76, 81
2, 8879, Note_on_c, 0, 79, 0
2, 8879, Note_on_c, 0, 76, 0
2, 8880, Note_on_c, 0, 79, 82
2, 8880, Note_on_c, 0, 76, 82
2, 8925, Note_on_c, 0, 79, 0
2, 8925, Note_on_c, 0, 76, 0
2, 8976, Note_on_c, 0, 79, 84
2, 8976, Note_on_c, 0, 76, 84
2, 9021, Note_on_c, 0, 79, 0
2, 9021, Note_on_c, 0, 76, 0
2, 9024, Note_on_c, 0, 79, 85
2, 9034, Note_on_c, 0, 79, 0
2, 9034, Note_on_c, 0, 81, 85
2, 9044, Note_on_c, 0, 81, 0
2, 9044, Note_on_c, 0, 79, 85
2, 9054, Note_on_c, 0, 79, 0
2, 9054, Note_on_c, 0, 78, 85
2, 9063, Note_on_c, 0, 78, 0
2, 9063, Note_on_c, 0, 79, 85
2, 9072, Note_on_c, 0, 79, 0
2, 9072, Note_on_c, 0, 78, 85
2, 9117, Note_on_c, 0, 78, 0
2, 9216, Note_on_c, 0, 64, 85
2, 9231, Note_on_c, 0, 64, 0
2, 9232, Note_on_c, 0, 68, 85
2, 9247, Note_on_c, 0, 68, 0
2, 9248, Note_on_c, 0, 71, 85
2, 9263, Note_on_c, 0, 71, 0
2, 9264, Note_on_c, 0, 68, 85
2, 9279, Note_on_c, 0, 68, 0
2, 9280, Note_on_c, 0, 71, 85
2, 9295, Note_on_c, 0, 71, 0
2, 9296, Note_on_c, 0, 76, 85
2, 9311, Note_on_c, 0, 76, 0
2, 9312, Note_on_c, 0, 71, 85
2, 9327, Note_on_c, 0, 71, 0
2, 9328, Note_on_c, 0, 76, 85
2, 9343, Note_on_c, 0, 76, 0
2, 9344, Note_on_c, 0, 80, 85
2, 9359, Note_on_c, 0, 80, 0
2, 9360, Note_on_c, 0, 76, 85
2, 9375, Note_on_c, 0, 76, 0
2, 9376, Note_on_c, 0, 80, 85
2, 9391, Note_on_c, 0, 80, 0
2, 9392, Note_on_c, 0, 83, 85
2, 9407, Note_on_c, 0, 83, 0
2, 9408, Note_on_c, 0, 81, 85
2, 9408, Note_on_c, 0, 78, 85
2, 9497, Note_on_c, 0, 81, 0
2, 9497, Note_on_c, 0, 78, 0
2, 9600, Note_on_c, 0, 59, 85
2, 9615, Note_on_c, 0, 59, 0
2, 9616, Note_on_c, 0, 63, 85
2, 9631, Note_on_c, 0, 63, 0
2, 9632, Note_on_c, 0, 66, 85
2, 9647, Note_on_c, 0, 66, 0
2, 9648, Note_on_c, 0, 63, 85
2, 9663, Note_on_c, 0, 63, 0
2, 9664, Note_on_c, 0, 66, 85
2, 9679, Note_on_c, 0, 66, 0
2, 9680, Note_on_c, 0, 69, 85
2, 9695, Note_on_c, 0, 69, 0
2, 9696, Note_on_c, 0, 69, 85
2, 9711, Note_on_c, 0, 69, 0
2, 9712, Note_on_c, 0, 75, 85
2, 9727, Note_on_c, 0, 75, 0
2, 9728, Note_on_c, 0, 78, 85
2, 9743, Note_on_c, 0, 78, 0
2, 9744, Note_on_c, 0, 75, 85
2, 9759, Note_on_c, 0, 75, 0
2, 9760, Note_on_c, 0, 78, 85
2, 9775, Note_on_c, 0, 78, 0
2, 9776, Note_on_c, 0, 81, 85
2, 9791, Note_on_c, 0, 81, 0
2, 9792, Note_on_c, 0, 80, 85
2, 9792, Note_on_c, 0, 76, 85
2, 9881, Note_on_c, 0, 80, 0
2, 9881, Note_on_c, 0, 76, 0
2, 10032, Note_on_c, 0, 76, 78
2, 10077, Note_on_c, 0, 76, 0
2, 10080, Note_on_c, 0, 80, 78
2, 10125, Note_on_c, 0, 80, 0
2, 10128, Note_on_c, 0, 83, 78
2, 10173, Note_on_c, 0, 83, 0
2, 10176, Note_on_c, 0, 73, 78
2, 10187, Note_on_c, 0, 73, 0
2, 10187, Note_on_c, 0, 75, 78
2, 10198, Note_on_c, 0, 75, 0
2, 10198, Note_on_c, 0, 73, 78
2, 10209, Note_on_c, 0, 73, 0
2, 10209, Note_on_c, 0, 75, 78
2, 10220, Note_on_c, 0, 75, 0
2, 10220, Note_on_c, 0, 73, 78
2, 10231, Note_on_c, 0, 73, 0
2, 10231, Note_on_c, 0, 75, 78
2, 10242, Note_on_c, 0, 75, 0
2, 10242, Note_on_c, 0, 73, 78
2, 10253, Note_on_c, 0, 73, 0
2, 10253, Note_on_c, 0, 75, 78
2, 10264, Note_on_c, 0, 75, 0
2, 10264, Note_on_c, 0, 73, 78
2, 10275, Note_on_c, 0, 73, 0
2, 10275, Note_on_c, 0, 75, 78
2, 10286, Note_on_c, 0, 75, 0
2, 10286, Note_on_c, 0, 73, 78
2, 10297, Note_on_c, 0, 73, 0
2, 10297, Note_on_c, 0, 75, 78
2, 10308, Note_on_c, 0, 75, 0
2, 10308, Note_on_c, 0, 73, 78
2, 10368, Note_on_c, 0, 73, 0
2, 10416, Note_on_c, 0, 76, 78
2, 10461, Note_on_c, 0, 76, 0
2, 10464, Note_on_c, 0, 80, 78
2, 10509, Note_on_c, 0, 80, 0
2, 10512, Note_on_c, 0, 83, 78
2, 10557, Note_on_c, 0, 83, 0
2, 10560, Note_on_c, 0, 76, 78
2, 10571, Note_on_c, 0, 76, 0
2, 10571, Note_on_c, 0, 78, 78
2, 10582, Note_on_c, 0, 78, 0
2, 10582, Note_on_c, 0, 76, 78
2, 10593, Note_on_c, 0, 76, 0
2, 10593, Note_on_c, 0, 78, 78
2, 10604, Note_on_c, 0, 78, 0
2, 10604, Note_on_c, 0, 76, 78
2, 10615, Note_on_c, 0, 76, 0
2, 10615, Note_on_c, 0, 78, 78
2, 10626, Note_on_c, 0, 78, 0
2, 10626, Note_on_c, 0, 76, 78
2, 10637, Note_on_c, 0, 76, 0
2, 10637, Note_on_c, 0, 78, 78
2, 10648, Note_on_c, 0, 78, 0
2, 10648, Note_on_c, 0, 76, 78
2, 10659, Note_on_c, 0, 76, 0
2, 10659, Note_on_c, 0, 78, 78
2, 10670, Note_on_c, 0, 78, 0
2, 10670, Note_on_c, 0, 76, 78
2, 10681, Note_on_c, 0, 76, 0
2, 10681, Note_on_c, 0, 78, 78
2, 10692, Note_on_c, 0, 78, 0
2, 10692, Note_on_c, 0, 76, 78
2, 10752, Note_on_c, 0, 76, 0
2, 10800, Note_on_c, 0, 76, 78
2, 10845, Note_on_c, 0, 76, 0
2, 10848, Note_on_c, 0, 80, 78
2, 10893, Note_on_c, 0, 80, 0
2, 10896, Note_on_c, 0, 83, 78
2, 10941, Note_on_c, 0, 83, 0
2, 10944, Note_on_c, 0, 83, 78
2, 10989, Note_on_c, 0, 83, 0
2, 10992, Note_on_c, 0, 84, 78
2, 11037, Note_on_c, 0, 84, 0
2, 11040, Note_on_c, 0, 85, 78
2, 11085, Note_on_c, 0, 85, 0
2, 11088, Note_on_c, 0, 81, 78
2, 11133, Note_on_c, 0, 81, 0
2, 11136, Note_on_c, 0, 81, 78
2, 11159, Note_on_c, 0, 81, 0
2, 11160, Note_on_c, 0, 80, 78
2, 11183, Note_on_c, 0, 80, 0
2, 11184, Note_on_c, 0, 78, 78
2, 11207, Note_on_c, 0, 78, 0
2, 11208, Note_on_c, 0, 76, 78
2, 11231, Note_on_c, 0, 76, 0
2, 11232, Note_on_c, 0, 80, 78
2, 11255, Note_on_c, 0, 80, 0
2, 11256, Note_on_c, 0, 78, 78
2, 11279, Note_on_c, 0, 78, 0
2, 11280, Note_on_c, 0, 76, 78
2, 11303, Note_on_c, 0, 76, 0
2, 11304, Note_on_c, 0, 75, 78
2, 11327, Note_on_c, 0, 75, 0
2, 11328, Note_on_c, 0, 76, 78
2, 11373, Note_on_c, 0, 76, 0
2, 11376, Note_on_c, 0, 80, 85
2, 11376, Note_on_c, 0, 76, 85
2, 11391, Note_on_c, 0, 80, 0
2, 11391, Note_on_c, 0, 76, 0
2, 11392, Note_on_c, 0, 81, 85
2, 11392, Note_on_c, 0, 78, 85
2, 11407, Note_on_c, 0, 81, 0
2, 11407, Note_on_c, 0, 78, 0
2, 11408, Note_on_c, 0, 83, 85
2, 11408, Note_on_c, 0, 80, 85
2, 11423, Note_on_c, 0, 83, 0
2, 11423, Note_on_c, 0, 80, 0
2, 11424, Note_on_c, 0, 81, 85
2, 11424, Note_on_c, 0, 78, 85
2, 11469, Note_on_c, 0, 81, 0
2, 11469, Note_on_c, 0, 78, 0
2, 11472, Note_on_c, 0, 75, 85
2, 11472, Note_on_c, 0, 69, 85
2, 11517, Note_on_c, 0, 75, 0
2, 11517, Note_on_c, 0, 69, 0
2, 11520, Note_on_c, 0, 76, 85
2, 11520, Note_on_c, 0, 68, 85
2, 11565, Note_on_c, 0, 76, 0
2, 11565, Note_on_c, 0, 68, 0
2, 11568, Note_on_c, 0, 68, 85
2, 11568, Note_on_c, 0, 64, 85
2, 11583, Note_on_c, 0, 68, 0
2, 11583, Note_on_c, 0, 64, 0
2, 11584, Note_on_c, 0, 69, 85
2, 11584, Note_on_c, 0, 66, 85
2, 11599, Note_on_c, 0, 69, 0
2, 11599, Note_on_c, 0, 66, 0
2, 11600, Note_on_c, 0, 71, 85
2, 11600, Note_on_c, 0, 68, 85
2, 11615, Note_on_c, 0, 71, 0
2, 11615, Note_on_c, 0, 68, 0
2, 11616, Note_on_c, 0, 69, 85
2, 11616, Note_on_c, 0, 66, 85
2, 11661, Note_on_c, 0, 69, 0
2, 11661, Note_on_c, 0, 66, 0
2, 11664, Note_on_c, 0, 63, 85
2, 11664, Note_on_c, 0, 57, 85
2, 11709, Note_on_c, 0, 63, 0
2, 11709, Note_on_c, 0, 57, 0
2, 11712, Note_on_c, 0, 64, 85
2, 11712, Note_on_c, 0, 56, 85
2, 11801, Note_on_c, 0, 64, 0
2, 11801, Note_on_c, 0, 56, 0
2, 11904, Note_on_c, 0, 69, 78
2, 11927, Note_on_c, 0, 69, 0
2, 11928, Note_on_c, 0, 71, 78
2, 11951, Note_on_c, 0, 71, 0
2, 11952, Note_on_c, 0, 73, 78
2, 11975, Note_on_c, 0, 73, 0
2, 11976, Note_on_c, 0, 74, 78
2, 11999, Note_on_c, 0, 74, 0
2, 12000, Note_on_c, 0, 76, 78
2, 12023, Note_on_c, 0, 76, 0
2, 12024, Note_on_c, 0, 78, 78
2, 12047, Note_on_c, 0, 78, 0
2, 12048, Note_on_c, 0, 80, 78
2, 12071, Note_on_c, 0, 80, 0
2, 12072, Note_on_c, 0, 81, 78
2, 12095, Note_on_c, 0, 81, 0
2, 12096, Note_on_c, 0, 78, 78
2, 12106, Note_on_c, 0, 78, 0
2, 12106, Note_on_c, 0, 80, 78
2, 12116, Note_on_c, 0, 80, 0
2, 12116, Note_on_c, 0, 78, 78
2, 12126, Note_on_c, 0, 78, 0
2, 12126, Note_on_c, 0, 76, 78
2, 12135, Note_on_c, 0, 76, 0
2, 12135, Note_on_c, 0, 78, 78
2, 12144, Note_on_c, 0, 78, 0
2, 12144, Note_on_c, 0, 76, 78
2, 12189, Note_on_c, 0, 76, 0
2, 12240, Note_on_c, 0, 83, 78
2, 12252, Note_on_c, 0, 83, 0
2, 12252, Note_on_c, 0, 81, 78
2, 12264, Note_on_c, 0, 81, 0
2, 12264, Note_on_c, 0, 80, 78
2, 12276, Note_on_c, 0, 80, 0
2, 12276, Note_on_c, 0, 81, 78
2, 12288, Note_on_c, 0, 81, 0
2, 12288, Note_on_c, 0, 80, 78
2, 12303, Note_on_c, 0, 80, 0
2, 12304, Note_on_c, 0, 81, 78
2, 12319, Note_on_c, 0, 81, 0
2, 12320, Note_on_c, 0, 83, 78
2, 12335, Note_on_c, 0, 83, 0
2, 12336, Note_on_c, 0, 74, 78
2, 12381, Note_on_c, 0, 74, 0
2, 12384, Note_on_c, 0, 73, 78
2, 12394, Note_on_c, 0, 73, 0
2, 12394, Note_on_c, 0, 74, 78
2, 12404, Note_on_c, 0, 74, 0
2, 12404, Note_on_c, 0, 73, 78
2, 12414, Note_on_c, 0, 73, 0
2, 12414, Note_on_c, 0, 71, 78
2, 12423, Note_on_c, 0, 71, 0
2, 12423, Note_on_c, 0, 73, 78
2, 12432, Note_on_c, 0, 73, 0
2, 12432, Note_on_c, 0, 71, 78
2, 12477, Note_on_c, 0, 71, 0
2, 12480, Note_on_c, 0, 73, 78
2, 12495, Note_on_c, 0, 73, 0
2, 12496, Note_on_c, 0, 74, 78
2, 12511, Note_on_c, 0, 74, 0
2, 12512, Note_on_c, 0, 76, 78
2, 12527, Note_on_c, 0, 76, 0
2, 12528, Note_on_c, 0, 69, 78
2, 12573, Note_on_c, 0, 69, 0
2, 12624, Note_on_c, 0, 83, 78
2, 12636, Note_on_c, 0, 83, 0
2, 12636, Note_on_c, 0, 81, 78
2, 12648, Note_on_c, 0, 81, 0
2, 12648, Note_on_c, 0, 80, 78
2, 12660, Note_on_c, 0, 80, 0
2, 12660, Note_on_c, 0, 81, 78
2, 12672, Note_on_c, 0, 81, 0
2, 12672, Note_on_c, 0, 80, 78
2, 12687, Note_on_c, 0, 80, 0
2, 12688, Note_on_c, 0, 81, 78
2, 12703, Note_on_c, 0, 81, 0
2, 12704, Note_on_c, 0, 83, 78
2, 12719, Note_on_c, 0, 83, 0
2, 12720, Note_on_c, 0, 74, 78
2, 12765, Note_on_c, 0, 74, 0
2, 12768, Note_on_c, 0, 73, 78
2, 12778, Note_on_c, 0, 73, 0
2, 12778, Note_on_c, 0, 74, 78
2, 12788, Note_on_c, 0, 74, 0
2, 12788, Note_on_c, 0, 73, 78
2, 12798, Note_on_c, 0, 73, 0
2, 12798, Note_on_c, 0, 71, 78
2, 12807, Note_on_c, 0, 71, 0
2, 12807, Note_on_c, 0, 73, 78
2, 12816, Note_on_c, 0, 73, 0
2, 12816, Note_on_c, 0, 71, 78
2, 12861, Note_on_c, 0, 71, 0
2, 12864, Note_on_c, 0, 73, 78
2, 12879, Note_on_c, 0, 73, 0
2, 12880, Note_on_c, 0, 74, 78
2, 12895, Note_on_c, 0, 74, 0
2, 12896, Note_on_c, 0, 76, 78
2, 12911, Note_on_c, 0, 76, 0
2, 12912, Note_on_c, 0, 69, 78
2, 12957, Note_on_c, 0, 69, 0
2, 13008, Note_on_c, 0, 83, 78
2, 13020, Note_on_c, 0, 83, 0
2, 13020, Note_on_c, 0, 81, 78
2, 13032, Note_on_c, 0, 81, 0
2, 13032, Note_on_c, 0, 80, 78
2, 13044, Note_on_c, 0, 80, 0
2, 13044, Note_on_c, 0, 81, 78
2, 13049, Note_on_c, 0, 81, 0
2, 13056, Note_on_c, 0, 81, 78
2, 13079, Note_on_c, 0, 81, 0
2, 13080, Note_on_c, 0, 78, 78
2, 13103, Note_on_c, 0, 78, 0
2, 13104, Note_on_c, 0, 76, 78
2, 13127, Note_on_c, 0, 76, 0
2, 13128, Note_on_c, 0, 75, 78
2, 13151, Note_on_c, 0, 75, 0
2, 13152, Note_on_c, 0, 76, 78
2, 13167, Note_on_c, 0, 76, 0
2, 13168, Note_on_c, 0, 78, 78
2, 13183, Note_on_c, 0, 78, 0
2, 13184, Note_on_c, 0, 80, 78
2, 13199, Note_on_c, 0, 80, 0
2, 13200, Note_on_c, 0, 76, 78
2, 13245, Note_on_c, 0, 76, 0
2, 13248, Note_on_c, 0, 81, 72
2, 13271, Note_on_c, 0, 81, 0
2, 13272, Note_on_c, 0, 78, 72
2, 13295, Note_on_c, 0, 78, 0
2, 13296, Note_on_c, 0, 76, 72
2, 13319, Note_on_c, 0, 76, 0
2, 13320, Note_on_c, 0, 75, 72
2, 13343, Note_on_c, 0, 75, 0
2, 13344, Note_on_c, 0, 76, 72
2, 13359, Note_on_c, 0, 76, 0
2, 13360, Note_on_c, 0, 78, 72
2, 13375, Note_on_c, 0, 78, 0
2, 13376, Note_on_c, 0, 80, 72
2, 13391, Note_on_c, 0, 80, 0
2, 13392, Note_on_c, 0, 76, 72
2, 13437, Note_on_c, 0, 76, 0
2, 13440, Note_on_c, 0, 85, 78
2, 13455, Note_on_c, 0, 85, 0
2, 13456, Note_on_c, 0, 83, 78
2, 13471, Note_on_c, 0, 83, 0
2, 13472, Note_on_c, 0, 81, 78
2, 13487, Note_on_c, 0, 81, 0
2, 13488, Note_on_c, 0, 83, 78
2, 13503, Note_on_c, 0, 83, 0
2, 13504, Note_on_c, 0, 81, 78
2, 13519, Note_on_c, 0, 81, 0
2, 13520, Note_on_c, 0, 80, 78
2, 13535, Note_on_c, 0, 80, 0
2, 13536, Note_on_c, 0, 81, 78
2, 13551, Note_on_c, 0, 81, 0
2, 13552, Note_on_c, 0, 80, 78
2, 13567, Note_on_c, 0, 80, 0
2, 13568, Note_on_c, 0, 78, 78
2, 13583, Note_on_c, 0, 78, 0
2, 13584, Note_on_c, 0, 80, 78
2, 13599, Note_on_c, 0, 80, 0
2, 13600, Note_on_c, 0, 78, 78
2, 13615, Note_on_c, 0, 78, 0
2, 13616, Note_on_c, 0, 76, 78
2, 13631, Note_on_c, 0, 76, 0
2, 13632, Note_on_c, 0, 81, 78
2, 13647, Note_on_c, 0, 81, 0
2, 13648, Note_on_c, 0, 80, 78
2, 13663, Note_on_c, 0, 80, 0
2, 13664, Note_on_c, 0, 78, 78
2, 13679, Note_on_c, 0, 78, 0
2, 13680, Note_on_c, 0, 80, 78
2, 13695, Note_on_c, 0, 80, 0
2, 13696, Note_on_c, 0, 78, 78
2, 13711, Note_on_c, 0, 78, 0
2, 13712, Note_on_c, 0, 76, 78
2, 13727, Note_on_c, 0, 76, 0
2, 13728, Note_on_c, 0, 78, 78
2, 13743, Note_on_c, 0, 78, 0
2, 13744, Note_on_c, 0, 76, 78
2, 13759, Note_on_c, 0, 76, 0
2, 13760, Note_on_c, 0, 75, 78
2, 13775, Note_on_c, 0, 75, 0
2, 13776, Note_on_c, 0, 76, 78
2, 13791, Note_on_c, 0, 76, 0
2, 13792, Note_on_c, 0, 75, 78
2, 13807, Note_on_c, 0, 75, 0
2, 13808, Note_on_c, 0, 73, 78
2, 13823, Note_on_c, 0, 73, 0
2, 13824, Note_on_c, 0, 75, 78
2, 13839, Note_on_c, 0, 75, 0
2, 13840, Note_on_c, 0, 76, 78
2, 13855, Note_on_c, 0, 76, 0
2, 13856, Note_on_c, 0, 78, 78
2, 13871, Note_on_c, 0, 78, 0
2, 13872, Note_on_c, 0, 71, 78
2, 13917, Note_on_c, 0, 71, 0
2, 13944, Note_on_c, 0, 71, 78
2, 13967, Note_on_c, 0, 71, 0
2, 13968, Note_on_c, 0, 75, 78
2, 13991, Note_on_c, 0, 75, 0
2, 13992, Note_on_c, 0, 78, 78
2, 14015, Note_on_c, 0, 78, 0
2, 14016, Note_on_c, 0, 76, 78
2, 14031, Note_on_c, 0, 76, 0
2, 14032, Note_on_c, 0, 78, 78
2, 14047, Note_on_c, 0, 78, 0
2, 14048, Note_on_c, 0, 80, 78
2, 14063, Note_on_c, 0, 80, 0
2, 14064, Note_on_c, 0, 71, 78
2, 14109, Note_on_c, 0, 71, 0
2, 14136, Note_on_c, 0, 71, 78
2, 14159, Note_on_c, 0, 71, 0
2, 14160, Note_on_c, 0, 76, 78
2, 14183, Note_on_c, 0, 76, 0
2, 14184, Note_on_c, 0, 80, 78
2, 14207, Note_on_c, 0, 80, 0
2, 14208, Note_on_c, 0, 78, 78
2, 14223, Note_on_c, 0, 78, 0
2, 14224, Note_on_c, 0, 80, 78
2, 14239, Note_on_c, 0, 80, 0
2, 14240, Note_on_c, 0, 81, 78
2, 14255, Note_on_c, 0, 81, 0
2, 14256, Note_on_c, 0, 71, 78
2, 14301, Note_on_c, 0, 71, 0
2, 14328, Note_on_c, 0, 71, 78
2, 14351, Note_on_c, 0, 71, 0
2, 14352, Note_on_c, 0, 78, 78
2, 14375, Note_on_c, 0, 78, 0
2, 14376, Note_on_c, 0, 81, 78
2, 14399, Note_on_c, 0, 81, 0
2, 14400, Note_on_c, 0, 80, 78
2, 14415, Note_on_c, 0, 80, 0
2, 14416, Note_on_c, 0, 81, 78
2, 14431, Note_on_c, 0, 81, 0
2, 14432, Note_on_c, 0, 83, 78
2, 14447, Note_on_c, 0, 83, 0
2, 14448, Note_on_c, 0, 76, 78
2, 14493, Note_on_c, 0, 76, 0
2, 14496, Note_on_c, 0, 78, 78
2, 14506, Note_on_c, 0, 78, 0
2, 14506, Note_on_c, 0, 80, 78
2, 14516, Note_on_c, 0, 80, 0
2, 14516, Note_on_c, 0, 78, 78
2, 14526, Note_on_c, 0, 78, 0
2, 14526, Note_on_c, 0, 76, 78
2, 14535, Note_on_c, 0, 76, 0
2, 14535, Note_on_c, 0, 78, 78
2, 14544, Note_on_c, 0, 78, 0
2, 14544, Note_on_c, 0, 76, 78
2, 14589, Note_on_c, 0, 76, 0
2, 14592, Note_on_c, 0, 80, 78
2, 14607, Note_on_c, 0, 80, 0
2, 14608, Note_on_c, 0, 81, 78
2, 14623, Note_on_c, 0, 81, 0
2, 14624, Note_on_c, 0, 83, 78
2, 14639, Note_on_c, 0, 83, 0
2, 14640, Note_on_c, 0, 76, 78
2, 14685, Note_on_c, 0, 76, 0
2, 14688, Note_on_c, 0, 75, 78
2, 14698, Note_on_c, 0, 75, 0
2, 14698, Note_on_c, 0, 76, 78
2, 14708, Note_on_c, 0, 76, 0
2, 14708, Note_on_c, 0, 75, 78
2, 14718, Note_on_c, 0, 75, 0
2, 14718, Note_on_c, 0, 73, 78
2, 14727, Note_on_c, 0, 73, 0
2, 14727, Note_on_c, 0, 75, 78
2, 14736, Note_on_c, 0, 75, 0
2, 14736, Note_on_c, 0, 76, 78
2, 14781, Note_on_c, 0, 76, 0
2, 14832, Note_on_c, 0, 75, 78
2, 14832, Note_on_c, 0, 72, 78
2, 14877, Note_on_c, 0, 75, 0
2, 14877, Note_on_c, 0, 72, 0
2, 14880, Note_on_c, 0, 78, 78
2, 14880, Note_on_c, 0, 75, 78
2, 14925, Note_on_c, 0, 78, 0
2, 14925, Note_on_c, 0, 75, 0
2, 14928, Note_on_c, 0, 75, 78
2, 14928, Note_on_c, 0, 72, 78
2, 14973, Note_on_c, 0, 75, 0
2, 14973, Note_on_c, 0, 72, 0
2, 15024, Note_on_c, 0, 76, 78
2, 15024, Note_on_c, 0, 73, 78
2, 15069, Note_on_c, 0, 76, 0
2, 15069, Note_on_c, 0, 73, 0
2, 15072, Note_on_c, 0, 80, 78
2, 15072, Note_on_c, 0, 76, 78
2, 15117, Note_on_c, 0, 80, 0
2, 15117, Note_on_c, 0, 76, 0
2, 15120, Note_on_c, 0, 76, 78
2, 15120, Note_on_c, 0, 73, 78
2, 15165, Note_on_c, 0, 76, 0
2, 15165, Note_on_c, 0, 73, 0
2, 15216, Note_on_c, 0, 73, 78
2, 15216, Note_on_c, 0, 70, 78
2, 15261, Note_on_c, 0, 73, 0
2, 15261, Note_on_c, 0, 70, 0
2, 15264, Note_on_c, 0, 76, 78
2, 15264, Note_on_c, 0, 73, 78
2, 15309, Note_on_c, 0, 76, 0
2, 15309, Note_on_c, 0, 73, 0
2, 15312, Note_on_c, 0, 73, 78
2, 15312, Note_on_c, 0, 70, 78
2, 15357, Note_on_c, 0, 73, 0
2, 15357, Note_on_c, 0, 70, 0
2, 15408, Note_on_c, 0, 75, 78
2, 15408, Note_on_c, 0, 71, 78
2, 15453, Note_on_c, 0, 75, 0
2, 15453, Note_on_c, 0, 71, 0
2, 15456, Note_on_c, 0, 78, 78
2, 15456, Note_on_c, 0, 75, 78
2, 15501, Note_on_c, 0, 78, 0
2, 15501, Note_on_c, 0, 75, 0
2, 15504, Note_on_c, 0, 75, 78
2, 15504, Note_on_c, 0, 71, 78
2, 15549, Note_on_c, 0, 75, 0
2, 15549, Note_on_c, 0, 71, 0
2, 15600, Note_on_c, 0, 78, 78
2, 15600, Note_on_c, 0, 75, 78
2, 15645, Note_on_c, 0, 78, 0
2, 15645, Note_on_c, 0, 75, 0
2, 15648, Note_on_c, 0, 81, 78
2, 15648, Note_on_c, 0, 78, 78
2, 15693, Note_on_c, 0, 81, 0
2, 15693, Note_on_c, 0, 78, 0
2, 15696, Note_on_c, 0, 78, 78
2, 15696, Note_on_c, 0, 75, 78
2, 15741, Note_on_c, 0, 78, 0
2, 15741, Note_on_c, 0, 75, 0
2, 15792, Note_on_c, 0, 80, 78
2, 15792, Note_on_c, 0, 76, 78
2, 15837, Note_on_c, 0, 80, 0
2, 15837, Note_on_c, 0, 76, 0
2, 15840, Note_on_c, 0, 83, 78
2, 15840, Note_on_c, 0, 80, 78
2, 15885, Note_on_c, 0, 83, 0
2, 15885, Note_on_c, 0, 80, 0
2, 15888, Note_on_c, 0, 80, 78
2, 15888, Note_on_c, 0, 76, 78
2, 15933, Note_on_c, 0, 80, 0
2, 15933, Note_on_c, 0, 76, 0
2, 15984, Note_on_c, 0, 73, 78
2, 15994, Note_on_c, 0, 73, 0
2, 15994, Note_on_c, 0, 75, 78
2, 16004, Note_on_c, 0, 75, 0
2, 16004, Note_on_c, 0, 73, 78
2, 16014, Note_on_c, 0, 73, 0
2, 16014, Note_on_c, 0, 71, 78
2, 16023, Note_on_c, 0, 71, 0
2, 16023, Note_on_c, 0, 73, 78
2, 16032, Note_on_c, 0, 73, 0
2, 16032, Note_on_c, 0, 71, 78
2, 16077, Note_on_c, 0, 71, 0
2, 16080, Note_on_c, 0, 76, 78
2, 16125, Note_on_c, 0, 76, 0
2, 16176, Note_on_c, 0, 81, 78
2, 16186, Note_on_c, 0, 81, 0
2, 16186, Note_on_c, 0, 83, 78
2, 16196, Note_on_c, 0, 83, 0
2, 16196, Note_on_c, 0, 81, 78
2, 16206, Note_on_c, 0, 81, 0
2, 16206, Note_on_c, 0, 80, 78
2, 16215, Note_on_c, 0, 80, 0
2, 16215, Note_on_c, 0, 81, 78
2, 16224, Note_on_c, 0, 81, 0
2, 16224, Note_on_c, 0, 80, 78
2, 16269, Note_on_c, 0, 80, 0
2, 16272, Note_on_c, 0, 76, 78
2, 16317, Note_on_c, 0, 76, 0
2, 16368, Note_on_c, 0, 73, 78
2, 16378, Note_on_c, 0, 73, 0
2, 16378, Note_on_c, 0, 75, 78
2, 16388, Note_on_c, 0, 75, 0
2, 16388, Note_on_c, 0, 73, 78
2, 16398, Note_on_c, 0, 73, 0
2, 16398, Note_on_c, 0, 71, 78
2, 16407, Note_on_c, 0, 71, 0
2, 16407, Note_on_c, 0, 73, 78
2, 16416, Note_on_c, 0, 73, 0
2, 16416, Note_on_c, 0, 71, 78
2, 16461, Note_on_c, 0, 71, 0
2, 16464, Note_on_c, 0, 76, 78
2, 16509, Note_on_c, 0, 76, 0
2, 16560, Note_on_c, 0, 81, 78
2, 16570, Note_on_c, 0, 81, 0
2, 16570, Note_on_c, 0, 83, 78
2, 16580, Note_on_c, 0, 83, 0
2, 16580, Note_on_c, 0, 81, 78
2, 16590, Note_on_c, 0, 81, 0
2, 16590, Note_on_c, 0, 80, 78
2, 16599, Note_on_c, 0, 80, 0
2, 16599, Note_on_c, 0, 81, 78
2, 16608, Note_on_c, 0, 81, 0
2, 16608, Note_on_c, 0, 80, 78
2, 16653, Note_on_c, 0, 80, 0
2, 16656, Note_on_c, 0, 76, 78
2, 16701, Note_on_c, 0, 76, 0
2, 16752, Note_on_c, 0, 71, 66
2, 16797, Note_on_c, 0, 71, 0
2, 16800, Note_on_c, 0, 71, 66
2, 16845, Note_on_c, 0, 71, 0
2, 16848, Note_on_c, 0, 71, 66
2, 16893, Note_on_c, 0, 71, 0
2, 16944, Note_on_c, 0, 73, 67
2, 16944, Note_on_c, 0, 71, 67
2, 16989, Note_on_c, 0, 73, 0
2, 16989, Note_on_c, 0, 71, 0
2, 16992, Note_on_c, 0, 73, 67
2, 16992, Note_on_c, 0, 71, 67
2, 17037, Note_on_c, 0, 73, 0
2, 17037, Note_on_c, 0, 71, 0
2, 17040, Note_on_c, 0, 73, 68
2, 17040, Note_on_c, 0, 71, 68
2, 17085, Note_on_c, 0, 73, 0
2, 17085, Note_on_c, 0, 71, 0
2, 17136, Note_on_c, 0, 73, 69
2, 17136, Note_on_c, 0, 69, 69
2, 17181, Note_on_c, 0, 73, 0
2, 17181, Note_on_c, 0, 69, 0
2, 17184, Note_on_c, 0, 73, 69
2, 17184, Note_on_c, 0, 69, 69
2, 17229, Note_on_c, 0, 73, 0
2, 17229, Note_on_c, 0, 69, 0
2, 17232, Note_on_c, 0, 73, 69
2, 17232, Note_on_c, 0, 69, 69
2, 17277, Note_on_c, 0, 73, 0
2, 17277, Note_on_c, 0, 69, 0
2, 17328, Note_on_c, 0, 75, 70
2, 17328, Note_on_c, 0, 69, 70
2, 17373, Note_on_c, 0, 75, 0
2, 17373, Note_on_c, 0, 69, 0
2, 17376, Note_on_c, 0, 75, 70
2, 17376, Note_on_c, 0, 69, 70
2, 17421, Note_on_c, 0, 75, 0
2, 17421, Note_on_c, 0, 69, 0
2, 17424, Note_on_c, 0, 75, 71
2, 17424, Note_on_c, 0, 69, 71
2, 17469, Note_on_c, 0, 75, 0
2, 17469, Note_on_c, 0, 69, 0
2, 17472, Note_on_c, 0, 68, 71
2, 17480, Note_on_c, 0, 71, 71
2, 17488, Note_on_c, 0, 76, 71
2, 17565, Note_on_c, 0, 76, 0
2, 17565, Note_on_c, 0, 71, 0
2, 17565, Note_on_c, 0, 68, 0
2, 17568, Note_on_c, 0, 71, 72
2, 17574, Note_on_c, 0, 75, 72
2, 17580, Note_on_c, 0, 78, 72
2, 17586, Note_on_c, 0, 81, 72
2, 17661, Note_on_c, 0, 81, 0
2, 17661, Note_on_c, 0, 78, 0
2, 17661, Note_on_c, 0, 75, 0
2, 17661, Note_on_c, 0, 71, 0
2, 17664, Note_on_c, 0, 71, 72
2, 17672, Note_on_c, 0, 76, 72
2, 17680, Note_on_c, 0, 80, 72
2, 17757, Note_on_c, 0, 80, 0
2, 17757, Note_on_c, 0, 76, 0
2, 17757, Note_on_c, 0, 71, 0
2, 17760, Note_on_c, 0, 69, 72
2, 17768, Note_on_c, 0, 75, 72
2, 17776, Note_on_c, 0, 78, 72
2, 17853, Note_on_c, 0, 78, 0
2, 17853, Note_on_c, 0, 75, 0
2, 17853, Note_on_c, 0, 69, 0
2, 17856, Note_on_c, 0, 68, 72
2, 17864, Note_on_c, 0, 71, 72
2, 17872, Note_on_c, 0, 76, 72
2, 17949, Note_on_c, 0, 76, 0
2, 17949, Note_on_c, 0, 71, 0
2, 17949, Note_on_c, 0, 68, 0
2, 17952, Note_on_c, 0, 71, 72
2, 17958, Note_on_c, 0, 75, 72
2, 17964, Note_on_c, 0, 78, 72
2, 17970, Note_on_c, 0, 81, 72
2, 18045, Note_on_c, 0, 81, 0
2, 18045, Note_on_c, 0, 78, 0
2, 18045, Note_on_c, 0, 75, 0
2, 18045, Note_on_c, 0, 71, 0
2, 18048, Note_on_c, 0, 71, 72
2, 18056, Note_on_c, 0, 76, 72
2, 18064, Note_on_c, 0, 80, 72
2, 18141, Note_on_c, 0, 80, 0
2, 18141, Note_on_c, 0, 76, 0
2, 18141, Note_on_c, 0, 71, 0
2, 18144, Note_on_c, 0, 69, 72
2, 18152, Note_on_c, 0, 75, 72
2, 18160, Note_on_c, 0, 78, 72
2, 18237, Note_on_c, 0, 78, 0
2, 18237, Note_on_c, 0, 75, 0
2, 18237, Note_on_c, 0, 69, 0
2, 18240, Note_on_c, 0, 76, 72
2, 18263, Note_on_c, 0, 76, 0
2, 18264, Note_on_c, 0, 80, 72
2, 18287, Note_on_c, 0, 80, 0
2, 18288, Note_on_c, 0, 71, 72
2, 18311, Note_on_c, 0, 71, 0
2, 18312, Note_on_c, 0, 76, 72
2, 18335, Note_on_c, 0, 76, 0
2, 18336, Note_on_c, 0, 68, 72
2, 18359, Note_on_c, 0, 68, 0
2, 18360, Note_on_c, 0, 71, 72
2, 18383, Note_on_c, 0, 71, 0
2, 18384, Note_on_c, 0, 64, 72
2, 18407, Note_on_c, 0, 64, 0
2, 18408, Note_on_c, 0, 68, 72
2, 18431, Note_on_c, 0, 68, 0
2, 18432, Note_on_c, 0, 73, 72
2, 18455, Note_on_c, 0, 73, 0
2, 18456, Note_on_c, 0, 76, 72
2, 18479, Note_on_c, 0, 76, 0
2, 18480, Note_on_c, 0, 69, 72
2, 18503, Note_on_c, 0, 69, 0
2, 18504, Note_on_c, 0, 73, 72
2, 18527, Note_on_c, 0, 73, 0
2, 18528, Note_on_c, 0, 66, 72
2, 18551, Note_on_c, 0, 66, 0
2, 18552, Note_on_c, 0, 69, 72
2, 18575, Note_on_c, 0, 69, 0
2, 18576, Note_on_c, 0, 61, 72
2, 18599, Note_on_c, 0, 61, 0
2, 18600, Note_on_c, 0, 66, 72
2, 18623, Note_on_c, 0, 66, 0
2, 18624, Note_on_c, 0, 64, 72
2, 18713, Note_on_c, 0, 64, 0
2, 18720, Note_on_c, 0, 63, 72
2, 18731, Note_on_c, 0, 63, 0
2, 18731, Note_on_c, 0, 64, 72
2, 18742, Note_on_c, 0, 64, 0
2, 18742, Note_on_c, 0, 63, 72
2, 18753, Note_on_c, 0, 63, 0
2, 18753, Note_on_c, 0, 64, 72
2, 18764, Note_on_c, 0, 64, 0
2, 18764, Note_on_c, 0, 63, 72
2, 18775, Note_on_c, 0, 63, 0
2, 18775, Note_on_c, 0, 64, 72
2, 18786, Note_on_c, 0, 64, 0
2, 18786, Note_on_c, 0, 63, 72
2, 18796, Note_on_c, 0, 63, 0
2, 18796, Note_on_c, 0, 61, 72
2, 18806, Note_on_c, 0, 61, 0
2, 18806, Note_on_c, 0, 63, 72
2, 18816, Note_on_c, 0, 63, 0
2, 18816, Note_on_c, 0, 64, 72
2, 18905, Note_on_c, 0, 64, 0
2, 19008, Note_on_c, 0, 67, 66
2, 19016, Note_on_c, 0, 71, 66
2, 19024, Note_on_c, 0, 76, 66
2, 19101, Note_on_c, 0, 76, 0
2, 19101, Note_on_c, 0, 71, 0
2, 19101, Note_on_c, 0, 67, 0
2, 19152, Note_on_c, 0, 76, 66
2, 19152, Note_on_c, 0, 67, 66
2, 19197, Note_on_c, 0, 76, 0
2, 19197, Note_on_c, 0, 67, 0
2, 19200, Note_on_c, 0, 76, 66
2, 19200, Note_on_c, 0, 67, 66
2, 19224, Note_on_c, 0, 76, 0
2, 19224, Note_on_c, 0, 67, 0
2, 19224, Note_on_c, 0, 75, 66
2, 19224, Note_on_c, 0, 66, 66
2, 19247, Note_on_c, 0, 75, 0
2, 19247, Note_on_c, 0, 66, 0
2, 19248, Note_on_c, 0, 75, 66
2, 19248, Note_on_c, 0, 66, 66
2, 19293, Note_on_c, 0, 75, 0
2, 19293, Note_on_c, 0, 66, 0
2, 19392, Note_on_c, 0, 71, 66
2, 19398, Note_on_c, 0, 75, 66
2, 19404, Note_on_c, 0, 78, 66
2, 19410, Note_on_c, 0, 81, 66
2, 19485, Note_on_c, 0, 81, 0
2, 19485, Note_on_c, 0, 78, 0
2, 19485, Note_on_c, 0, 75, 0
2, 19485, Note_on_c, 0, 71, 0
2, 19536, Note_on_c, 0, 81, 66
2, 19536, Note_on_c, 0, 78, 66
2, 19581, Note_on_c, 0, 81, 0
2, 19581, Note_on_c, 0, 78, 0
2, 19584, Note_on_c, 0, 81, 66
2, 19584, Note_on_c, 0, 78, 66
2, 19608, Note_on_c, 0, 81, 0
2, 19608, Note_on_c, 0, 78, 0
2, 19608, Note_on_c, 0, 79, 66
2, 19608, Note_on_c, 0, 76, 66
2, 19631, Note_on_c, 0, 79, 0
2, 19631, Note_on_c, 0, 76, 0
2, 19632, Note_on_c, 0, 79, 66
2, 19632, Note_on_c, 0, 76, 66
2, 19677, Note_on_c, 0, 79, 0
2, 19677, Note_on_c, 0, 76, 0
2, 19776, Note_on_c, 0, 84, 66
2, 19776, Note_on_c, 0, 81, 66
2, 19865, Note_on_c, 0, 84, 0
2, 19865, Note_on_c, 0, 81, 0
2, 19920, Note_on_c, 0, 84, 66
2, 19920, Note_on_c, 0, 81, 66
2, 19965, Note_on_c, 0, 84, 0
2, 19965, Note_on_c, 0, 81, 0
2, 19968, Note_on_c, 0, 84, 66
2, 19968, Note_on_c, 0, 81, 66
2, 19992, Note_on_c, 0, 84, 0
2, 19992, Note_on_c, 0, 81, 0
2, 19992, Note_on_c, 0, 83, 66
2, 19992, Note_on_c, 0, 79, 66
2, 20015, Note_on_c, 0, 83, 0
2, 20015, Note_on_c, 0, 79, 0
2, 20016, Note_on_c, 0, 83, 66
2, 20016, Note_on_c, 0, 79, 66
2, 20061, Note_on_c, 0, 83, 0
2, 20061, Note_on_c, 0, 79, 0
2, 20112, Note_on_c, 0, 83, 68
2, 20112, Note_on_c, 0, 79, 68
2, 20157, Note_on_c, 0, 83, 0
2, 20157, Note_on_c, 0, 79, 0
2, 20160, Note_on_c, 0, 83, 69
2, 20160, Note_on_c, 0, 79, 69
2, 20184, Note_on_c, 0, 83, 0
2, 20184, Note_on_c, 0, 79, 0
2, 20184, Note_on_c, 0, 81, 70
2, 20184, Note_on_c, 0, 78, 70
2, 20207, Note_on_c, 0, 81, 0
2, 20207, Note_on_c, 0, 78, 0
2, 20208, Note_on_c, 0, 81, 70
2, 20208, Note_on_c, 0, 78, 70
2, 20253, Note_on_c, 0, 81, 0
2, 20253, Note_on_c, 0, 78, 0
2, 20304, Note_on_c, 0, 81, 72
2, 20304, Note_on_c, 0, 78, 72
2, 20349, Note_on_c, 0, 81, 0
2, 20349, Note_on_c, 0, 78, 0
2, 20352, Note_on_c, 0, 81, 73
2, 20352, Note_on_c, 0, 78, 73
2, 20376, Note_on_c, 0, 81, 0
2, 20376, Note_on_c, 0, 78, 0
2, 20376, Note_on_c, 0, 79, 74
2, 20376, Note_on_c, 0, 76, 74
2, 20399, Note_on_c, 0, 79, 0
2, 20399, Note_on_c, 0, 76, 0
2, 20400, Note_on_c, 0, 79, 74
2, 20400, Note_on_c, 0, 76, 74
2, 20445, Note_on_c, 0, 79, 0
2, 20445, Note_on_c, 0, 76, 0
2, 20496, Note_on_c, 0, 79, 76
2, 20496, Note_on_c, 0, 76, 76
2, 20541, Note_on_c, 0, 79, 0
2, 20541, Note_on_c, 0, 76, 0
2, 20544, Note_on_c, 0, 81, 77
2, 20544, Note_on_c, 0, 78, 77
2, 20568, Note_on_c, 0, 81, 0
2, 20568, Note_on_c, 0, 78, 0
2, 20568, Note_on_c, 0, 79, 77
2, 20568, Note_on_c, 0, 76, 77
2, 20591, Note_on_c, 0, 79, 0
2, 20591, Note_on_c, 0, 76, 0
2, 20592, Note_on_c, 0, 79, 78
2, 20592, Note_on_c, 0, 76, 78
2, 20637, Note_on_c, 0, 79, 0
2, 20637, Note_on_c, 0, 76, 0
2, 20688, Note_on_c, 0, 79, 80
2, 20688, Note_on_c, 0, 76, 80
2, 20733, Note_on_c, 0, 79, 0
2, 20733, Note_on_c, 0, 76, 0
2, 20736, Note_on_c, 0, 81, 81
2, 20736, Note_on_c, 0, 78, 81
2, 20760, Note_on_c, 0, 81, 0
2, 20760, Note_on_c, 0, 78, 0
2, 20760, Note_on_c, 0, 79, 81
2, 20760, Note_on_c, 0, 76, 81
2, 20783, Note_on_c, 0, 79, 0
2, 20783, Note_on_c, 0, 76, 0
2, 20784, Note_on_c, 0, 79, 82
2, 20784, Note_on_c, 0, 76, 82
2, 20829, Note_on_c, 0, 79, 0
2, 20829, Note_on_c, 0, 76, 0
2, 20880, Note_on_c, 0, 79, 84
2, 20880, Note_on_c, 0, 76, 84
2, 20925, Note_on_c, 0, 79, 0
2, 20925, Note_on_c, 0, 76, 0
2, 20928, Note_on_c, 0, 79, 85
2, 20938, Note_on_c, 0, 79, 0
2, 20938, Note_on_c, 0, 81, 85
2, 20948, Note_on_c, 0, 81, 0
2, 20948, Note_on_c, 0, 79, 85
2, 20958, Note_on_c, 0, 79, 0
2, 20958, Note_on_c, 0, 78, 85
2, 20967, Note_on_c, 0, 78, 0
2, 20967, Note_on_c, 0, 79, 85
2, 20976, Note_on_c, 0, 79, 0
2, 20976, Note_on_c, 0, 78, 85
2, 21021, Note_on_c, 0, 78, 0
2, 21120, Note_on_c, 0, 64, 85
2, 21135, Note_on_c, 0, 64, 0
2, 21136, Note_on_c, 0, 68, 85
2, 21151, Note_on_c, 0, 68, 0
2, 21152, Note_on_c, 0, 71, 85
2, 21167, Note_on_c, 0, 71, 0
2, 21168, Note_on_c, 0, 68, 85
2, 21183, Note_on_c, 0, 68, 0
2, 21184, Note_on_c, 0, 71, 85
2, 21199, Note_on_c, 0, 71, 0
2, 21200, Note_on_c, 0, 76, 85
2, 21215, Note_on_c, 0, 76, 0
2, 21216, Note_on_c, 0, 71, 85
2, 21231, Note_on_c, 0, 71, 0
2, 21232, Note_on_c, 0, 76, 85
2, 21247, Note_on_c, 0, 76, 0
2, 21248, Note_on_c, 0, 80, 85
2, 21263, Note_on_c, 0, 80, 0
2, 21264, Note_on_c, 0, 76, 85
2, 21279, Note_on_c, 0, 76, 0
2, 21280, Note_on_c, 0, 80, 85
2, 21295, Note_on_c, 0, 80, 0
2, 21296, Note_on_c, 0, 83, 85
2, 21311, Note_on_c, 0, 83, 0
2, 21312, Note_on_c, 0, 81, 85
2, 21312, Note_on_c, 0, 78, 85
2, 21401, Note_on_c, 0, 81, 0
2, 21401, Note_on_c, 0, 78, 0
2, 21504, Note_on_c, 0, 59, 85
2, 21519, Note_on_c, 0, 59, 0
2, 21520, Note_on_c, 0, 63, 85
2, 21535, Note_on_c, 0, 63, 0
2, 21536, Note_on_c, 0, 66, 85
2, 21551, Note_on_c, 0, 66, 0
2, 21552, Note_on_c, 0, 63, 85
2, 21567, Note_on_c, 0, 63, 0
2, 21568, Note_on_c, 0, 66, 85
2, 21583, Note_on_c, 0, 66, 0
2, 21584, Note_on_c, 0, 69, 85
2, 21599, Note_on_c, 0, 69, 0
2, 21600, Note_on_c, 0, 69, 85
2, 21615, Note_on_c, 0, 69, 0
2, 21616, Note_on_c, 0, 75, 85
2, 21631, Note_on_c, 0, 75, 0
2, 21632, Note_on_c, 0, 78, 85
2, 21647, Note_on_c, 0, 78, 0
2, 21648, Note_on_c, 0, 75, 85
2, 21663, Note_on_c, 0, 75, 0
2, 21664, Note_on_c, 0, 78, 85
2, 21679, Note_on_c, 0, 78, 0
2, 21680, Note_on_c, 0, 81, 85
2, 21695, Note_on_c, 0, 81, 0
2, 21696, Note_on_c, 0, 80, 85
2, 21696, Note_on_c, 0, 76, 85
2, 21785, Note_on_c, 0, 80, 0
2, 21785, Note_on_c, 0, 76, 0
2, 21936, Note_on_c, 0, 76, 78
2, 21981, Note_on_c, 0, 76, 0
2, 21984, Note_on_c, 0, 80, 78
2, 22029, Note_on_c, 0, 80, 0
2, 22032, Note_on_c, 0, 83, 78
2, 22077, Note_on_c, 0, 83, 0
2, 22080, Note_on_c, 0, 73, 78
2, 22091, Note_on_c, 0, 73, 0
2, 22091, Note_on_c, 0, 75, 78
2, 22102, Note_on_c, 0, 75, 0
2, 22102, Note_on_c, 0, 73, 78
2, 22113, Note_on_c, 0, 73, 0
2, 22113, Note_on_c, 0, 75, 78
2, 22124, Note_on_c, 0, 75, 0
2, 22124, Note_on_c, 0, 73, 78
2, 22135, Note_on_c, 0, 73, 0
2, 22135, Note_on_c, 0, 75, 78
2, 22146, Note_on_c, 0, 75, 0
2, 22146, Note_on_c, 0, 73, 78
2, 22157, Note_on_c, 0, 73, 0
2, 22157, Note_on_c, 0, 75, 78
2, 22168, Note_on_c, 0, 75, 0
2, 22168, Note_on_c, 0, 73, 78
2, 22179, Note_on_c, 0, 73, 0
2, 22179, Note_on_c, 0, 75, 78
2, 22190, Note_on_c, 0, 75, 0
2, 22190, Note_on_c, 0, 73, 78
2, 22201, Note_on_c, 0, 73, 0
2, 22201, Note_on_c, 0, 75, 78
2, 22212, Note_on_c, 0, 75, 0
2, 22212, Note_on_c, 0, 73, 78
2, 22272, Note_on_c, 0, 73, 0
2, 22320, Note_on_c, 0, 76, 78
2, 22365, Note_on_c, 0, 76, 0
2, 22368, Note_on_c, 0, 80, 78
2, 22413, Note_on_c, 0, 80, 0
2, 22416, Note_on_c, 0, 83, 78
2, 22461, Note_on_c, 0, 83, 0
2, 22464, Note_on_c, 0, 76, 78
2, 22475, Note_on_c, 0, 76, 0
2, 22475, Note_on_c, 0, 78, 78
2, 22486, Note_on_c, 0, 78, 0
2, 22486, Note_on_c, 0, 76, 78
2, 22497, Note_on_c, 0, 76, 0
2, 22497, Note_on_c, 0, 78, 78
2, 22508, Note_on_c, 0, 78, 0
2, 22508, Note_on_c, 0, 76, 78
2, 22519, Note_on_c, 0, 76, 0
2, 22519, Note_on_c, 0, 78, 78
2, 22530, Note_on_c, 0, 78, 0
2, 22530, Note_on_c, 0, 76, 78
2, 22541, Note_on_c, 0, 76, 0
2, 22541, Note_on_c, 0, 78, 78
2, 22552, Note_on_c, 0, 78, 0
2, 22552, Note_on_c, 0, 76, 78
2, 22563, Note_on_c, 0, 76, 0
2, 22563, Note_on_c, 0, 78, 78
2, 22574, Note_on_c, 0, 78, 0
2, 22574, Note_on_c, 0, 76, 78
2, 22585, Note_on_c, 0, 76, 0
2, 22585, Note_on_c, 0, 78, 78
2, 22596, Note_on_c, 0, 78, 0
2, 22596, Note_on_c, 0, 76, 78
2, 22656, Note_on_c, 0, 76, 0
2, 22704, Note_on_c, 0, 76, 78
2, 22749, Note_on_c, 0, 76, 0
2, 22752, Note_on_c, 0, 80, 78
2, 22797, Note_on_c, 0, 80, 0
2, 22800, Note_on_c, 0, 83, 78
2, 22845, Note_on_c, 0, 83, 0
2, 22848, Note_on_c, 0, 83, 78
2, 22893, Note_on_c, 0, 83, 0
2, 22896, Note_on_c, 0, 84, 78
2, 22941, Note_on_c, 0, 84, 0
2, 22944, Note_on_c, 0, 85, 78
2, 22989, Note_on_c, 0, 85, 0
2, 22992, Note_on_c, 0, 81, 78
2, 23037, Note_on_c, 0, 81, 0
2, 23040, Note_on_c, 0, 81, 78
2, 23063, Note_on_c, 0, 81, 0
2, 23064, Note_on_c, 0, 80, 78
2, 23087, Note_on_c, 0, 80, 0
2, 23088, Note_on_c, 0, 78, 78
2, 23111, Note_on_c, 0, 78, 0
2, 23112, Note_on_c, 0, 76, 78
2, 23135, Note_on_c, 0, 76, 0
2, 23136, Note_on_c, 0, 80, 78
2, 23159, Note_on_c, 0, 80, 0
2, 23160, Note_on_c, 0, 78, 78
2, 23183, Note_on_c, 0, 78, 0
2, 23184, Note_on_c, 0, 76, 78
2, 23207, Note_on_c, 0, 76, 0
2, 23208, Note_on_c, 0, 75, 78
2, 23231, Note_on_c, 0, 75, 0
2, 23232, Note_on_c, 0, 76, 78
2, 23277, Note_on_c, 0, 76, 0
2, 23280, Note_on_c, 0, 80, 85
2, 23280, Note_on_c, 0, 76, 85
2, 23295, Note_on_c, 0, 80, 0
2, 23295, Note_on_c, 0, 76, 0
2, 23296, Note_on_c, 0, 81, 85
2, 23296, Note_on_c, 0, 78, 85
2, 23311, Note_on_c, 0, 81, 0
2, 23311, Note_on_c, 0, 78, 0
2, 23312, Note_on_c, 0, 83, 85
2, 23312, Note_on_c, 0, 80, 85
2, 23327, Note_on_c, 0, 83, 0
2, 23327, Note_on_c, 0, 80, 0
2, 23328, Note_on_c, 0, 81, 85
2, 23328, Note_on_c, 0, 78, 85
2, 23373, Note_on_c, 0, 81, 0
2, 23373, Note_on_c, 0, 78, 0
2, 23376, Note_on_c, 0, 75, 85
2, 23376, Note_on_c, 0, 69, 85
2, 23421, Note_on_c, 0, 75, 0
2, 23421, Note_on_c, 0, 69, 0
2, 23424, Note_on_c, 0, 76, 85
2, 23424, Note_on_c, 0, 68, 85
2, 23469, Note_on_c, 0, 76, 0
2, 23469, Note_on_c, 0, 68, 0
2, 23472, Note_on_c, 0, 68, 85
2, 23472, Note_on_c, 0, 64, 85
2, 23487, Note_on_c, 0, 68, 0
2, 23487, Note_on_c, 0, 64, 0
2, 23488, Note_on_c, 0, 69, 85
2, 23488, Note_on_c, 0, 66, 85
2, 23503, Note_on_c, 0, 69, 0
2, 23503, Note_on_c, 0, 66, 0
2, 23504, Note_on_c, 0, 71, 85
2, 23504, Note_on_c, 0, 68, 85
2, 23519, Note_on_c, 0, 71, 0
2, 23519, Note_on_c, 0, 68, 0
2, 23520, Note_on_c, 0, 69, 85
2, 23520, Note_on_c, 0, 66, 85
2, 23565, Note_on_c, 0, 69, 0
2, 23565, Note_on_c, 0, 66, 0
2, 23568, Note_on_c, 0, 63, 85
2, 23568, Note_on_c, 0, 57, 85
2, 23613, Note_on_c, 0, 63, 0
2, 23613, Note_on_c, 0, 57, 0
2, 23616, Note_on_c, 0, 64, 85
2, 23616, Note_on_c, 0, 56, 85
2, 23705, Note_on_c, 0, 64, 0
2, 23705, Note_on_c, 0, 56, 0
2, 23808, Note_on_c, 0, 64, 78
2, 23831, Note_on_c, 0, 64, 0
2, 23832, Note_on_c, 0, 66, 78
2, 23855, Note_on_c, 0, 66, 0
2, 23856, Note_on_c, 0, 68, 78
2, 23879, Note_on_c, 0, 68, 0
2, 23880, Note_on_c, 0, 69, 78
2, 23903, Note_on_c, 0, 69, 0
2, 23904, Note_on_c, 0, 71, 78
2, 23927, Note_on_c, 0, 71, 0
2, 23928, Note_on_c, 0, 73, 78
2, 23951, Note_on_c, 0, 73, 0
2, 23952, Note_on_c, 0, 75, 78
2, 23975, Note_on_c, 0, 75, 0
2, 23976, Note_on_c, 0, 76, 78
2, 23999, Note_on_c, 0, 76, 0
2, 24000, Note_on_c, 0, 73, 78
2, 24010, Note_on_c, 0, 73, 0
2, 24010, Note_on_c, 0, 75, 78
2, 24020, Note_on_c, 0, 75, 0
2, 24020, Note_on_c, 0, 73, 78
2, 24030, Note_on_c, 0, 73, 0
2, 24030, Note_on_c, 0, 71, 78
2, 24039, Note_on_c, 0, 71, 0
2, 24039, Note_on_c, 0, 73, 78
2, 24048, Note_on_c, 0, 73, 0
2, 24048, Note_on_c, 0, 71, 78
2, 24093, Note_on_c, 0, 71, 0
2, 24144, Note_on_c, 0, 78, 78
2, 24156, Note_on_c, 0, 78, 0
2, 24156, Note_on_c, 0, 76, 78
2, 24168, Note_on_c, 0, 76, 0
2, 24168, Note_on_c, 0, 75, 78
2, 24180, Note_on_c, 0, 75, 0
2, 24180, Note_on_c, 0, 76, 78
2, 24192, Note_on_c, 0, 76, 0
2, 24192, Note_on_c, 0, 75, 78
2, 24207, Note_on_c, 0, 75, 0
2, 24208, Note_on_c, 0, 76, 78
2, 24223, Note_on_c, 0, 76, 0
2, 24224, Note_on_c, 0, 78, 78
2, 24239, Note_on_c, 0, 78, 0
2, 24240, Note_on_c, 0, 69, 78
2, 24285, Note_on_c, 0, 69, 0
2, 24288, Note_on_c, 0, 68, 78
2, 24298, Note_on_c, 0, 68, 0
2, 24298, Note_on_c, 0, 69, 78
2, 24308, Note_on_c, 0, 69, 0
2, 24308, Note_on_c, 0, 68, 78
2, 24318, Note_on_c, 0, 68, 0
2, 24318, Note_on_c, 0, 66, 78
2, 24327, Note_on_c, 0, 66, 0
2, 24327, Note_on_c, 0, 68, 78
2, 24336, Note_on_c, 0, 68, 0
2, 24336, Note_on_c, 0, 66, 78
2, 24381, Note_on_c, 0, 66, 0
2, 24384, Note_on_c, 0, 68, 78
2, 24399, Note_on_c, 0, 68, 0
2, 24400, Note_on_c, 0, 69, 78
2, 24415, Note_on_c, 0, 69, 0
2, 24416, Note_on_c, 0, 71, 78
2, 24431, Note_on_c, 0, 71, 0
2, 24432, Note_on_c, 0, 64, 78
2, 24477, Note_on_c, 0, 64, 0
2, 24528, Note_on_c, 0, 78, 78
2, 24540, Note_on_c, 0, 78, 0
2, 24540, Note_on_c, 0, 76, 78
2, 24552, Note_on_c, 0, 76, 0
2, 24552, Note_on_c, 0, 75, 78
2, 24564, Note_on_c, 0, 75, 0
2, 24564, Note_on_c, 0, 76, 78
2, 24569, Note_on_c, 0, 76, 0
2, 24576, Note_on_c, 0, 75, 101
2, 24591, Note_on_c, 0, 75, 0
2, 24592, Note_on_c, 0, 76, 78
2, 24607, Note_on_c, 0, 76, 0
2, 24608, Note_on_c, 0, 78, 78
2, 24623, Note_on_c, 0, 78, 0
2, 24624, Note_on_c, 0, 69, 78
2, 24669, Note_on_c, 0, 69, 0
2, 24672, Note_on_c, 0, 68, 78
2, 24682, Note_on_c, 0, 68, 0
2, 24682, Note_on_c, 0, 69, 78
2, 24692, Note_on_c, 0, 69, 0
2, 24692, Note_on_c, 0, 68, 78
2, 24702, Note_on_c, 0, 68, 0
2, 24702, Note_on_c, 0, 66, 78
2, 24711, Note_on_c, 0, 66, 0
2, 24711, Note_on_c, 0, 68, 78
2, 24720, Note_on_c, 0, 68, 0
2, 24720, Note_on_c, 0, 66, 78
2, 24765, Note_on_c, 0, 66, 0
2, 24768, Note_on_c, 0, 68, 78
2, 24783, Note_on_c, 0, 68, 0
2, 24784, Note_on_c, 0, 69, 78
2, 24799, Note_on_c, 0, 69, 0
2, 24800, Note_on_c, 0, 71, 78
2, 24815, Note_on_c, 0, 71, 0
2, 24816, Note_on_c, 0, 64, 78
2, 24861, Note_on_c, 0, 64, 0
2, 24960, Note_on_c, 0, 79, 101
2, 24960, Note_on_c, 0, 70, 101
2, 25056, Note_on_c, 0, 79, 0
2, 25056, Note_on_c, 0, 70, 0
2, 25056, Note_on_c, 0, 79, 85
2, 25080, Note_on_c, 0, 79, 0
2, 25080, Note_on_c, 0, 78, 85
2, 25103, Note_on_c, 0, 78, 0
2, 25104, Note_on_c, 0, 78, 85
2, 25128, Note_on_c, 0, 78, 0
2, 25128, Note_on_c, 0, 76, 85
2, 25151, Note_on_c, 0, 76, 0
2, 25152, Note_on_c, 0, 76, 85
2, 25176, Note_on_c, 0, 76, 0
2, 25176, Note_on_c, 0, 74, 85
2, 25199, Note_on_c, 0, 74, 0
2, 25200, Note_on_c, 0, 74, 85
2, 25224, Note_on_c, 0, 74, 0
2, 25224, Note_on_c, 0, 73, 85
2, 25247, Note_on_c, 0, 73, 0
2, 25248, Note_on_c, 0, 73, 85
2, 25296, Note_on_c, 0, 73, 0
2, 25296, Note_on_c, 0, 74, 85
2, 25341, Note_on_c, 0, 74, 0
2, 25344, Note_on_c, 0, 78, 101
2, 25344, Note_on_c, 0, 68, 101
2, 25440, Note_on_c, 0, 78, 0
2, 25440, Note_on_c, 0, 68, 0
2, 25440, Note_on_c, 0, 78, 85
2, 25464, Note_on_c, 0, 78, 0
2, 25464, Note_on_c, 0, 76, 85
2, 25487, Note_on_c, 0, 76, 0
2, 25488, Note_on_c, 0, 76, 85
2, 25512, Note_on_c, 0, 76, 0
2, 25512, Note_on_c, 0, 74, 85
2, 25535, Note_on_c, 0, 74, 0
2, 25536, Note_on_c, 0, 74, 85
2, 25560, Note_on_c, 0, 74, 0
2, 25560, Note_on_c, 0, 73, 85
2, 25583, Note_on_c, 0, 73, 0
2, 25584, Note_on_c, 0, 73, 85
2, 25608, Note_on_c, 0, 73, 0
2, 25608, Note_on_c, 0, 71, 85
2, 25631, Note_on_c, 0, 71, 0
2, 25632, Note_on_c, 0, 71, 85
2, 25680, Note_on_c, 0, 71, 0
2, 25680, Note_on_c, 0, 73, 85
2, 25725, Note_on_c, 0, 73, 0
2, 25728, Note_on_c, 0, 80, 85
2, 25743, Note_on_c, 0, 80, 0
2, 25744, Note_on_c, 0, 83, 85
2, 25759, Note_on_c, 0, 83, 0
2, 25760, Note_on_c, 0, 80, 85
2, 25775, Note_on_c, 0, 80, 0
2, 25776, Note_on_c, 0, 74, 85
2, 25791, Note_on_c, 0, 74, 0
2, 25792, Note_on_c, 0, 80, 85
2, 25807, Note_on_c, 0, 80, 0
2, 25808, Note_on_c, 0, 74, 85
2, 25823, Note_on_c, 0, 74, 0
2, 25824, Note_on_c, 0, 71, 85
2, 25839, Note_on_c, 0, 71, 0
2, 25840, Note_on_c, 0, 74, 85
2, 25855, Note_on_c, 0, 74, 0
2, 25856, Note_on_c, 0, 71, 85
2, 25871, Note_on_c, 0, 71, 0
2, 25872, Note_on_c, 0, 68, 85
2, 25887, Note_on_c, 0, 68, 0
2, 25888, Note_on_c, 0, 71, 85
2, 25903, Note_on_c, 0, 71, 0
2, 25904, Note_on_c, 0, 68, 85
2, 25919, Note_on_c, 0, 68, 0
2, 25944, Note_on_c, 0, 64, 85
2, 25967, Note_on_c, 0, 64, 0
2, 25968, Note_on_c, 0, 74, 85
2, 25991, Note_on_c, 0, 74, 0
2, 25992, Note_on_c, 0, 64, 85
2, 26015, Note_on_c, 0, 64, 0
2, 26016, Note_on_c, 0, 73, 85
2, 26039, Note_on_c, 0, 73, 0
2, 26040, Note_on_c, 0, 64, 85
2, 26063, Note_on_c, 0, 64, 0
2, 26064, Note_on_c, 0, 71, 85
2, 26087, Note_on_c, 0, 71, 0
2, 26088, Note_on_c, 0, 64, 85
2, 26111, Note_on_c, 0, 64, 0
2, 26112, Note_on_c, 0, 81, 85
2, 26127, Note_on_c, 0, 81, 0
2, 26128, Note_on_c, 0, 85, 85
2, 26143, Note_on_c, 0, 85, 0
2, 26144, Note_on_c, 0, 81, 85
2, 26159, Note_on_c, 0, 81, 0
2, 26160, Note_on_c, 0, 76, 85
2, 26175, Note_on_c, 0, 76, 0
2, 26176, Note_on_c, 0, 81, 85
2, 26191, Note_on_c, 0, 81, 0
2, 26192, Note_on_c, 0, 76, 85
2, 26207, Note_on_c, 0, 76, 0
2, 26208, Note_on_c, 0, 73, 85
2, 26223, Note_on_c, 0, 73, 0
2, 26224, Note_on_c, 0, 76, 85
2, 26239, Note_on_c, 0, 76, 0
2, 26240, Note_on_c, 0, 73, 85
2, 26255, Note_on_c, 0, 73, 0
2, 26256, Note_on_c, 0, 69, 85
2, 26271, Note_on_c, 0, 69, 0
2, 26272, Note_on_c, 0, 73, 85
2, 26287, Note_on_c, 0, 73, 0
2, 26288, Note_on_c, 0, 69, 85
2, 26303, Note_on_c, 0, 69, 0
2, 26328, Note_on_c, 0, 64, 85
2, 26351, Note_on_c, 0, 64, 0
2, 26352, Note_on_c, 0, 76, 85
2, 26375, Note_on_c, 0, 76, 0
2, 26376, Note_on_c, 0, 64, 85
2, 26399, Note_on_c, 0, 64, 0
2, 26400, Note_on_c, 0, 74, 85
2, 26423, Note_on_c, 0, 74, 0
2, 26424, Note_on_c, 0, 64, 85
2, 26447, Note_on_c, 0, 64, 0
2, 26448, Note_on_c, 0, 73, 85
2, 26471, Note_on_c, 0, 73, 0
2, 26472, Note_on_c, 0, 64, 85
2, 26495, Note_on_c, 0, 64, 0
2, 26496, Note_on_c, 0, 81, 78
2, 26508, Note_on_c, 0, 81, 0
2, 26508, Note_on_c, 0, 80, 78
2, 26520, Note_on_c, 0, 80, 0
2, 26520, Note_on_c, 0, 78, 78
2, 26532, Note_on_c, 0, 78, 0
2, 26532, Note_on_c, 0, 76, 78
2, 26544, Note_on_c, 0, 76, 0
2, 26544, Note_on_c, 0, 75, 78
2, 26677, Note_on_c, 0, 75, 0
2, 26688, Note_on_c, 0, 83, 78
2, 26700, Note_on_c, 0, 83, 0
2, 26700, Note_on_c, 0, 81, 78
2, 26712, Note_on_c, 0, 81, 0
2, 26712, Note_on_c, 0, 80, 78
2, 26724, Note_on_c, 0, 80, 0
2, 26724, Note_on_c, 0, 78, 78
2, 26736, Note_on_c, 0, 78, 0
2, 26736, Note_on_c, 0, 76, 78
2, 26869, Note_on_c, 0, 76, 0
2, 26904, Note_on_c, 0, 85, 72
2, 26914, Note_on_c, 0, 85, 0
2, 26928, Note_on_c, 0, 86, 72
2, 26940, Note_on_c, 0, 86, 0
2, 26940, Note_on_c, 0, 85, 72
2, 26952, Note_on_c, 0, 85, 0
2, 26952, Note_on_c, 0, 86, 72
2, 26964, Note_on_c, 0, 86, 0
2, 26964, Note_on_c, 0, 83, 72
2, 26970, Note_on_c, 0, 83, 0
2, 26970, Note_on_c, 0, 85, 72
2, 26976, Note_on_c, 0, 85, 0
2, 26976, Note_on_c, 0, 86, 72
2, 27021, Note_on_c, 0, 86, 0
2, 27096, Note_on_c, 0, 83, 72
2, 27106, Note_on_c, 0, 83, 0
2, 27120, Note_on_c, 0, 85, 72
2, 27132, Note_on_c, 0, 85, 0
2, 27132, Note_on_c, 0, 83, 72
2, 27144, Note_on_c, 0, 83, 0
2, 27144, Note_on_c, 0, 85, 72
2, 27156, Note_on_c, 0, 85, 0
2, 27156, Note_on_c, 0, 81, 72
2, 27162, Note_on_c, 0, 81, 0
2, 27162, Note_on_c, 0, 83, 72
2, 27168, Note_on_c, 0, 83, 0
2, 27168, Note_on_c, 0, 85, 72
2, 27213, Note_on_c, 0, 85, 0
2, 27288, Note_on_c, 0, 85, 72
2, 27298, Note_on_c, 0, 85, 0
2, 27312, Note_on_c, 0, 86, 72
2, 27324, Note_on_c, 0, 86, 0
2, 27324, Note_on_c, 0, 85, 72
2, 27336, Note_on_c, 0, 85, 0
2, 27336, Note_on_c, 0, 86, 72
2, 27348, Note_on_c, 0, 86, 0
2, 27348, Note_on_c, 0, 83, 72
2, 27354, Note_on_c, 0, 83, 0
2, 27354, Note_on_c, 0, 85, 72
2, 27360, Note_on_c, 0, 85, 0
2, 27360, Note_on_c, 0, 86, 72
2, 27405, Note_on_c, 0, 86, 0
2, 27480, Note_on_c, 0, 83, 72
2, 27490, Note_on_c, 0, 83, 0
2, 27504, Note_on_c, 0, 85, 72
2, 27516, Note_on_c, 0, 85, 0
2, 27516, Note_on_c, 0, 83, 72
2, 27528, Note_on_c, 0, 83, 0
2, 27528, Note_on_c, 0, 85, 72
2, 27540, Note_on_c, 0, 85, 0
2, 27540, Note_on_c, 0, 81, 72
2, 27546, Note_on_c, 0, 81, 0
2, 27546, Note_on_c, 0, 83, 72
2, 27552, Note_on_c, 0, 83, 0
2, 27552, Note_on_c, 0, 85, 72
2, 27575, Note_on_c, 0, 85, 0
2, 27576, Note_on_c, 0, 81, 73
2, 27586, Note_on_c, 0, 81, 0
2, 27600, Note_on_c, 0, 83, 73
2, 27612, Note_on_c, 0, 83, 0
2, 27612, Note_on_c, 0, 81, 73
2, 27624, Note_on_c, 0, 81, 0
2, 27624, Note_on_c, 0, 83, 73
2, 27636, Note_on_c, 0, 83, 0
2, 27636, Note_on_c, 0, 80, 74
2, 27642, Note_on_c, 0, 80, 0
2, 27642, Note_on_c, 0, 81, 74
2, 27648, Note_on_c, 0, 81, 0
2, 27648, Note_on_c, 0, 83, 74
2, 27671, Note_on_c, 0, 83, 0
2, 27672, Note_on_c, 0, 80, 74
2, 27682, Note_on_c, 0, 80, 0
2, 27696, Note_on_c, 0, 81, 74
2, 27708, Note_on_c, 0, 81, 0
2, 27708, Note_on_c, 0, 80, 75
2, 27720, Note_on_c, 0, 80, 0
2, 27720, Note_on_c, 0, 81, 75
2, 27732, Note_on_c, 0, 81, 0
2, 27732, Note_on_c, 0, 78, 75
2, 27738, Note_on_c, 0, 78, 0
2, 27738, Note_on_c, 0, 80, 75
2, 27744, Note_on_c, 0, 80, 0
2, 27744, Note_on_c, 0, 81, 75
2, 27767, Note_on_c, 0, 81, 0
2, 27768, Note_on_c, 0, 78, 75
2, 27778, Note_on_c, 0, 78, 0
2, 27792, Note_on_c, 0, 80, 76
2, 27804, Note_on_c, 0, 80, 0
2, 27804, Note_on_c, 0, 78, 76
2, 27816, Note_on_c, 0, 78, 0
2, 27816, Note_on_c, 0, 80, 76
2, 27828, Note_on_c, 0, 80, 0
2, 27828, Note_on_c, 0, 77, 76
2, 27834, Note_on_c, 0, 77, 0
2, 27834, Note_on_c, 0, 78, 76
2, 27840, Note_on_c, 0, 78, 0
2, 27840, Note_on_c, 0, 77, 76
2, 27855, Note_on_c, 0, 77, 0
2, 27856, Note_on_c, 0, 78, 76
2, 27871, Note_on_c, 0, 78, 0
2, 27872, Note_on_c, 0, 80, 77
2, 27887, Note_on_c, 0, 80, 0
2, 27888, Note_on_c, 0, 73, 77
2, 27933, Note_on_c, 0, 73, 0
2, 28032, Note_on_c, 0, 80, 85
2, 28047, Note_on_c, 0, 80, 0
2, 28048, Note_on_c, 0, 85, 85
2, 28063, Note_on_c, 0, 85, 0
2, 28064, Note_on_c, 0, 80, 85
2, 28079, Note_on_c, 0, 80, 0
2, 28080, Note_on_c, 0, 77, 85
2, 28095, Note_on_c, 0, 77, 0
2, 28096, Note_on_c, 0, 80, 85
2, 28111, Note_on_c, 0, 80, 0
2, 28112, Note_on_c, 0, 77, 85
2, 28127, Note_on_c, 0, 77, 0
2, 28128, Note_on_c, 0, 73, 85
2, 28143, Note_on_c, 0, 73, 0
2, 28144, Note_on_c, 0, 77, 85
2, 28159, Note_on_c, 0, 77, 0
2, 28160, Note_on_c, 0, 73, 85
2, 28175, Note_on_c, 0, 73, 0
2, 28176, Note_on_c, 0, 68, 85
2, 28191, Note_on_c, 0, 68, 0
2, 28192, Note_on_c, 0, 73, 85
2, 28207, Note_on_c, 0, 73, 0
2, 28208, Note_on_c, 0, 68, 85
2, 28223, Note_on_c, 0, 68, 0
2, 28248, Note_on_c, 0, 73, 85
2, 28271, Note_on_c, 0, 73, 0
2, 28272, Note_on_c, 0, 83, 85
2, 28295, Note_on_c, 0, 83, 0
2, 28296, Note_on_c, 0, 73, 85
2, 28319, Note_on_c, 0, 73, 0
2, 28320, Note_on_c, 0, 81, 85
2, 28343, Note_on_c, 0, 81, 0
2, 28344, Note_on_c, 0, 73, 85
2, 28367, Note_on_c, 0, 73, 0
2, 28368, Note_on_c, 0, 80, 85
2, 28391, Note_on_c, 0, 80, 0
2, 28392, Note_on_c, 0, 73, 85
2, 28415, Note_on_c, 0, 73, 0
2, 28416, Note_on_c, 0, 81, 85
2, 28431, Note_on_c, 0, 81, 0
2, 28432, Note_on_c, 0, 85, 85
2, 28447, Note_on_c, 0, 85, 0
2, 28448, Note_on_c, 0, 81, 85
2, 28463, Note_on_c, 0, 81, 0
2, 28464, Note_on_c, 0, 78, 85
2, 28479, Note_on_c, 0, 78, 0
2, 28480, Note_on_c, 0, 81, 85
2, 28495, Note_on_c, 0, 81, 0
2, 28496, Note_on_c, 0, 78, 85
2, 28511, Note_on_c, 0, 78, 0
2, 28512, Note_on_c, 0, 73, 85
2, 28527, Note_on_c, 0, 73, 0
2, 28528, Note_on_c, 0, 78, 85
2, 28543, Note_on_c, 0, 78, 0
2, 28544, Note_on_c, 0, 73, 85
2, 28559, Note_on_c, 0, 73, 0
2, 28560, Note_on_c, 0, 69, 85
2, 28575, Note_on_c, 0, 69, 0
2, 28576, Note_on_c, 0, 73, 85
2, 28591, Note_on_c, 0, 73, 0
2, 28592, Note_on_c, 0, 69, 85
2, 28607, Note_on_c, 0, 69, 0
2, 28632, Note_on_c, 0, 73, 85
2, 28655, Note_on_c, 0, 73, 0
2, 28656, Note_on_c, 0, 85, 85
2, 28679, Note_on_c, 0, 85, 0
2, 28680, Note_on_c, 0, 73, 85
2, 28703, Note_on_c, 0, 73, 0
2, 28704, Note_on_c, 0, 83, 85
2, 28727, Note_on_c, 0, 83, 0
2, 28728, Note_on_c, 0, 73, 85
2, 28751, Note_on_c, 0, 73, 0
2, 28752, Note_on_c, 0, 81, 85
2, 28775, Note_on_c, 0, 81, 0
2, 28776, Note_on_c, 0, 73, 85
2, 28799, Note_on_c, 0, 73, 0
2, 28800, Note_on_c, 0, 73, 85
2, 28815, Note_on_c, 0, 73, 0
2, 28816, Note_on_c, 0, 78, 85
2, 28831, Note_on_c, 0, 78, 0
2, 28832, Note_on_c, 0, 73, 85
2, 28847, Note_on_c, 0, 73, 0
2, 28848, Note_on_c, 0, 70, 85
2, 28863, Note_on_c, 0, 70, 0
2, 28864, Note_on_c, 0, 73, 85
2, 28879, Note_on_c, 0, 73, 0
2, 28880, Note_on_c, 0, 70, 85
2, 28895, Note_on_c, 0, 70, 0
2, 28896, Note_on_c, 0, 66, 85
2, 28911, Note_on_c, 0, 66, 0
2, 28912, Note_on_c, 0, 70, 85
2, 28927, Note_on_c, 0, 70, 0
2, 28928, Note_on_c, 0, 66, 85
2, 28943, Note_on_c, 0, 66, 0
2, 28944, Note_on_c, 0, 61, 85
2, 28959, Note_on_c, 0, 61, 0
2, 28960, Note_on_c, 0, 66, 85
2, 28975, Note_on_c, 0, 66, 0
2, 28976, Note_on_c, 0, 61, 85
2, 28991, Note_on_c, 0, 61, 0
2, 29016, Note_on_c, 0, 66, 85
2, 29039, Note_on_c, 0, 66, 0
2, 29040, Note_on_c, 0, 76, 85
2, 29063, Note_on_c, 0, 76, 0
2, 29064, Note_on_c, 0, 66, 85
2, 29087, Note_on_c, 0, 66, 0
2, 29088, Note_on_c, 0, 74, 85
2, 29111, Note_on_c, 0, 74, 0
2, 29112, Note_on_c, 0, 66, 85
2, 29135, Note_on_c, 0, 66, 0
2, 29136, Note_on_c, 0, 73, 85
2, 29159, Note_on_c, 0, 73, 0
2, 29160, Note_on_c, 0, 66, 85
2, 29183, Note_on_c, 0, 66, 0
2, 29184, Note_on_c, 0, 74, 85
2, 29199, Note_on_c, 0, 74, 0
2, 29200, Note_on_c, 0, 78, 85
2, 29215, Note_on_c, 0, 78, 0
2, 29216, Note_on_c, 0, 74, 85
2, 29231, Note_on_c, 0, 74, 0
2, 29232, Note_on_c, 0, 71, 85
2, 29247, Note_on_c, 0, 71, 0
2, 29248, Note_on_c, 0, 74, 85
2, 29263, Note_on_c, 0, 74, 0
2, 29264, Note_on_c, 0, 71, 85
2, 29279, Note_on_c, 0, 71, 0
2, 29280, Note_on_c, 0, 66, 85
2, 29295, Note_on_c, 0, 66, 0
2, 29296, Note_on_c, 0, 71, 85
2, 29311, Note_on_c, 0, 71, 0
2, 29312, Note_on_c, 0, 66, 85
2, 29327, Note_on_c, 0, 66, 0
2, 29328, Note_on_c, 0, 62, 85
2, 29343, Note_on_c, 0, 62, 0
2, 29344, Note_on_c, 0, 66, 85
2, 29359, Note_on_c, 0, 66, 0
2, 29360, Note_on_c, 0, 62, 85
2, 29375, Note_on_c, 0, 62, 0
2, 29400, Note_on_c, 0, 66, 85
2, 29423, Note_on_c, 0, 66, 0
2, 29424, Note_on_c, 0, 78, 85
2, 29447, Note_on_c, 0, 78, 0
2, 29448, Note_on_c, 0, 66, 85
2, 29471, Note_on_c, 0, 66, 0
2, 29472, Note_on_c, 0, 76, 85
2, 29495, Note_on_c, 0, 76, 0
2, 29496, Note_on_c, 0, 66, 85
2, 29519, Note_on_c, 0, 66, 0
2, 29520, Note_on_c, 0, 74, 85
2, 29543, Note_on_c, 0, 74, 0
2, 29544, Note_on_c, 0, 66, 85
2, 29567, Note_on_c, 0, 66, 0
2, 29568, Note_on_c, 0, 78, 85
2, 29583, Note_on_c, 0, 78, 0
2, 29584, Note_on_c, 0, 83, 85
2, 29599, Note_on_c, 0, 83, 0
2, 29600, Note_on_c, 0, 78, 85
2, 29615, Note_on_c, 0, 78, 0
2, 29616, Note_on_c, 0, 75, 85
2, 29631, Note_on_c, 0, 75, 0
2, 29632, Note_on_c, 0, 78, 85
2, 29647, Note_on_c, 0, 78, 0
2, 29648, Note_on_c, 0, 75, 85
2, 29663, Note_on_c, 0, 75, 0
2, 29664, Note_on_c, 0, 71, 85
2, 29679, Note_on_c, 0, 71, 0
2, 29680, Note_on_c, 0, 75, 85
2, 29695, Note_on_c, 0, 75, 0
2, 29696, Note_on_c, 0, 71, 85
2, 29711, Note_on_c, 0, 71, 0
2, 29712, Note_on_c, 0, 66, 85
2, 29727, Note_on_c, 0, 66, 0
2, 29728, Note_on_c, 0, 71, 85
2, 29743, Note_on_c, 0, 71, 0
2, 29744, Note_on_c, 0, 66, 85
2, 29759, Note_on_c, 0, 66, 0
2, 29784, Note_on_c, 0, 71, 85
2, 29807, Note_on_c, 0, 71, 0
2, 29808, Note_on_c, 0, 81, 85
2, 29831, Note_on_c, 0, 81, 0
2, 29832, Note_on_c, 0, 71, 85
2, 29855, Note_on_c, 0, 71, 0
2, 29856, Note_on_c, 0, 80, 85
2, 29879, Note_on_c, 0, 80, 0
2, 29880, Note_on_c, 0, 71, 85
2, 29903, Note_on_c, 0, 71, 0
2, 29904, Note_on_c, 0, 78, 85
2, 29927, Note_on_c, 0, 78, 0
2, 29928, Note_on_c, 0, 71, 85
2, 29951, Note_on_c, 0, 71, 0
2, 29952, Note_on_c, 0, 80, 85
2, 29967, Note_on_c, 0, 80, 0
2, 29968, Note_on_c, 0, 83, 85
2, 29983, Note_on_c, 0, 83, 0
2, 29984, Note_on_c, 0, 80, 85
2, 29999, Note_on_c, 0, 80, 0
2, 30000, Note_on_c, 0, 76, 85
2, 30015, Note_on_c, 0, 76, 0
2, 30016, Note_on_c, 0, 80, 85
2, 30031, Note_on_c, 0, 80, 0
2, 30032, Note_on_c, 0, 76, 85
2, 30047, Note_on_c, 0, 76, 0
2, 30048, Note_on_c, 0, 71, 85
2, 30063, Note_on_c, 0, 71, 0
2, 30064, Note_on_c, 0, 76, 85
2, 30079, Note_on_c, 0, 76, 0
2, 30080, Note_on_c, 0, 71, 85
2, 30095, Note_on_c, 0, 71, 0
2, 30096, Note_on_c, 0, 68, 85
2, 30111, Note_on_c, 0, 68, 0
2, 30112, Note_on_c, 0, 71, 85
2, 30127, Note_on_c, 0, 71, 0
2, 30128, Note_on_c, 0, 68, 85
2, 30143, Note_on_c, 0, 68, 0
2, 30168, Note_on_c, 0, 71, 85
2, 30191, Note_on_c, 0, 71, 0
2, 30192, Note_on_c, 0, 83, 85
2, 30215, Note_on_c, 0, 83, 0
2, 30216, Note_on_c, 0, 71, 85
2, 30239, Note_on_c, 0, 71, 0
2, 30240, Note_on_c, 0, 81, 85
2, 30263, Note_on_c, 0, 81, 0
2, 30264, Note_on_c, 0, 71, 85
2, 30287, Note_on_c, 0, 71, 0
2, 30288, Note_on_c, 0, 80, 85
2, 30311, Note_on_c, 0, 80, 0
2, 30312, Note_on_c, 0, 71, 85
2, 30335, Note_on_c, 0, 71, 0
2, 30336, Note_on_c, 0, 71, 85
2, 30351, Note_on_c, 0, 71, 0
2, 30352, Note_on_c, 0, 76, 85
2, 30367, Note_on_c, 0, 76, 0
2, 30368, Note_on_c, 0, 71, 85
2, 30383, Note_on_c, 0, 71, 0
2, 30384, Note_on_c, 0, 68, 85
2, 30399, Note_on_c, 0, 68, 0
2, 30400, Note_on_c, 0, 71, 85
2, 30415, Note_on_c, 0, 71, 0
2, 30416, Note_on_c, 0, 68, 85
2, 30431, Note_on_c, 0, 68, 0
2, 30432, Note_on_c, 0, 64, 85
2, 30447, Note_on_c, 0, 64, 0
2, 30448, Note_on_c, 0, 68, 85
2, 30463, Note_on_c, 0, 68, 0
2, 30464, Note_on_c, 0, 64, 85
2, 30479, Note_on_c, 0, 64, 0
2, 30480, Note_on_c, 0, 59, 85
2, 30495, Note_on_c, 0, 59, 0
2, 30496, Note_on_c, 0, 64, 85
2, 30511, Note_on_c, 0, 64, 0
2, 30512, Note_on_c, 0, 59, 85
2, 30527, Note_on_c, 0, 59, 0
2, 30552, Note_on_c, 0, 64, 85
2, 30575, Note_on_c, 0, 64, 0
2, 30576, Note_on_c, 0, 74, 85
2, 30599, Note_on_c, 0, 74, 0
2, 30600, Note_on_c, 0, 64, 85
2, 30623, Note_on_c, 0, 64, 0
2, 30624, Note_on_c, 0, 73, 85
2, 30647, Note_on_c, 0, 73, 0
2, 30648, Note_on_c, 0, 64, 85
2, 30671, Note_on_c, 0, 64, 0
2, 30672, Note_on_c, 0, 71, 85
2, 30695, Note_on_c, 0, 71, 0
2, 30696, Note_on_c, 0, 64, 85
2, 30719, Note_on_c, 0, 64, 0
2, 30720, Note_on_c, 0, 73, 85
2, 30735, Note_on_c, 0, 73, 0
2, 30736, Note_on_c, 0, 76, 85
2, 30751, Note_on_c, 0, 76, 0
2, 30752, Note_on_c, 0, 73, 85
2, 30767, Note_on_c, 0, 73, 0
2, 30768, Note_on_c, 0, 69, 85
2, 30783, Note_on_c, 0, 69, 0
2, 30784, Note_on_c, 0, 73, 85
2, 30799, Note_on_c, 0, 73, 0
2, 30800, Note_on_c, 0, 69, 85
2, 30815, Note_on_c, 0, 69, 0
2, 30816, Note_on_c, 0, 64, 85
2, 30831, Note_on_c, 0, 64, 0
2, 30832, Note_on_c, 0, 69, 85
2, 30847, Note_on_c, 0, 69, 0
2, 30848, Note_on_c, 0, 64, 85
2, 30863, Note_on_c, 0, 64, 0
2, 30864, Note_on_c, 0, 61, 85
2, 30879, Note_on_c, 0, 61, 0
2, 30880, Note_on_c, 0, 64, 85
2, 30895, Note_on_c, 0, 64, 0
2, 30896, Note_on_c, 0, 61, 85
2, 30911, Note_on_c, 0, 61, 0
2, 30936, Note_on_c, 0, 64, 85
2, 30959, Note_on_c, 0, 64, 0
2, 30960, Note_on_c, 0, 76, 85
2, 30983, Note_on_c, 0, 76, 0
2, 30984, Note_on_c, 0, 64, 85
2, 31007, Note_on_c, 0, 64, 0
2, 31008, Note_on_c, 0, 74, 85
2, 31031, Note_on_c, 0, 74, 0
2, 31032, Note_on_c, 0, 64, 85
2, 31055, Note_on_c, 0, 64, 0
2, 31056, Note_on_c, 0, 73, 85
2, 31079, Note_on_c, 0, 73, 0
2, 31080, Note_on_c, 0, 64, 85
2, 31103, Note_on_c, 0, 64, 0
2, 31152, Note_on_c, 0, 78, 78
2, 31162, Note_on_c, 0, 78, 0
2, 31162, Note_on_c, 0, 80, 78
2, 31172, Note_on_c, 0, 80, 0
2, 31172, Note_on_c, 0, 78, 78
2, 31182, Note_on_c, 0, 78, 0
2, 31182, Note_on_c, 0, 76, 78
2, 31191, Note_on_c, 0, 76, 0
2, 31191, Note_on_c, 0, 78, 78
2, 31200, Note_on_c, 0, 78, 0
2, 31200, Note_on_c, 0, 76, 78
2, 31245, Note_on_c, 0, 76, 0
2, 31248, Note_on_c, 0, 81, 78
2, 31293, Note_on_c, 0, 81, 0
2, 31344, Note_on_c, 0, 86, 78
2, 31354, Note_on_c, 0, 86, 0
2, 31354, Note_on_c, 0, 88, 78
2, 31364, Note_on_c, 0, 88, 0
2, 31364, Note_on_c, 0, 86, 78
2, 31374, Note_on_c, 0, 86, 0
2, 31374, Note_on_c, 0, 85, 78
2, 31383, Note_on_c, 0, 85, 0
2, 31383, Note_on_c, 0, 86, 78
2, 31392, Note_on_c, 0, 86, 0
2, 31392, Note_on_c, 0, 85, 78
2, 31437, Note_on_c, 0, 85, 0
2, 31440, Note_on_c, 0, 81, 78
2, 31485, Note_on_c, 0, 81, 0
2, 31536, Note_on_c, 0, 78, 78
2, 31546, Note_on_c, 0, 78, 0
2, 31546, Note_on_c, 0, 80, 78
2, 31556, Note_on_c, 0, 80, 0
2, 31556, Note_on_c, 0, 78, 78
2, 31566, Note_on_c, 0, 78, 0
2, 31566, Note_on_c, 0, 76, 78
2, 31575, Note_on_c, 0, 76, 0
2, 31575, Note_on_c, 0, 78, 78
2, 31584, Note_on_c, 0, 78, 0
2, 31584, Note_on_c, 0, 76, 78
2, 31629, Note_on_c, 0, 76, 0
2, 31632, Note_on_c, 0, 81, 78
2, 31677, Note_on_c, 0, 81, 0
2, 31728, Note_on_c, 0, 86, 78
2, 31738, Note_on_c, 0, 86, 0
2, 31738, Note_on_c, 0, 88, 78
2, 31748, Note_on_c, 0, 88, 0
2, 31748, Note_on_c, 0, 86, 78
2, 31758, Note_on_c, 0, 86, 0
2, 31758, Note_on_c, 0, 85, 78
2, 31767, Note_on_c, 0, 85, 0
2, 31767, Note_on_c, 0, 86, 78
2, 31776, Note_on_c, 0, 86, 0
2, 31776, Note_on_c, 0, 85, 78
2, 31821, Note_on_c, 0, 85, 0
2, 31824, Note_on_c, 0, 81, 78
2, 31869, Note_on_c, 0, 81, 0
2, 31920, Note_on_c, 0, 76, 66
2, 31965, Note_on_c, 0, 76, 0
2, 31968, Note_on_c, 0, 76, 67
2, 32013, Note_on_c, 0, 76, 0
2, 32016, Note_on_c, 0, 76, 68
2, 32061, Note_on_c, 0, 76, 0
2, 32112, Note_on_c, 0, 78, 71
2, 32112, Note_on_c, 0, 76, 71
2, 32157, Note_on_c, 0, 78, 0
2, 32157, Note_on_c, 0, 76, 0
2, 32160, Note_on_c, 0, 78, 72
2, 32160, Note_on_c, 0, 76, 72
2, 32205, Note_on_c, 0, 78, 0
2, 32205, Note_on_c, 0, 76, 0
2, 32208, Note_on_c, 0, 78, 73
2, 32208, Note_on_c, 0, 76, 73
2, 32253, Note_on_c, 0, 78, 0
2, 32253, Note_on_c, 0, 76, 0
2, 32304, Note_on_c, 0, 78, 76
2, 32304, Note_on_c, 0, 74, 76
2, 32349, Note_on_c, 0, 78, 0
2, 32349, Note_on_c, 0, 74, 0
2, 32352, Note_on_c, 0, 78, 77
2, 32352, Note_on_c, 0, 74, 77
2, 32397, Note_on_c, 0, 78, 0
2, 32397, Note_on_c, 0, 74, 0
2, 32400, Note_on_c, 0, 78, 78
2, 32400, Note_on_c, 0, 74, 78
2, 32445, Note_on_c, 0, 78, 0
2, 32445, Note_on_c, 0, 74, 0
2, 32496, Note_on_c, 0, 80, 81
2, 32496, Note_on_c, 0, 74, 81
2, 32541, Note_on_c, 0, 80, 0
2, 32541, Note_on_c, 0, 74, 0
2, 32544, Note_on_c, 0, 80, 82
2, 32544, Note_on_c, 0, 74, 82
2, 32589, Note_on_c, 0, 80, 0
2, 32589, Note_on_c, 0, 74, 0
2, 32592, Note_on_c, 0, 80, 83
2, 32592, Note_on_c, 0, 74, 83
2, 32637, Note_on_c, 0, 80, 0
2, 32637, Note_on_c, 0, 74, 0
2, 32640, Note_on_c, 0, 73, 85
2, 32648, Note_on_c, 0, 76, 85
2, 32656, Note_on_c, 0, 81, 85
2, 32733, Note_on_c, 0, 81, 0
2, 32733, Note_on_c, 0, 76, 0
2, 32733, Note_on_c, 0, 73, 0
2, 32736, Note_on_c, 0, 76, 85
2, 32742, Note_on_c, 0, 80, 85
2, 32748, Note_on_c, 0, 83, 85
2, 32754, Note_on_c, 0, 86, 85
2, 32829, Note_on_c, 0, 86, 0
2, 32829, Note_on_c, 0, 83, 0
2, 32829, Note_on_c, 0, 80, 0
2, 32829, Note_on_c, 0, 76, 0
2, 32832, Note_on_c, 0, 76, 85
2, 32840, Note_on_c, 0, 81, 85
2, 32848, Note_on_c, 0, 85, 85
2, 32925, Note_on_c, 0, 85, 0
2, 32925, Note_on_c, 0, 81, 0
2, 32925, Note_on_c, 0, 76, 0
2, 32928, Note_on_c, 0, 74, 85
2, 32936, Note_on_c, 0, 80, 85
2, 32944, Note_on_c, 0, 83, 85
2, 33021, Note_on_c, 0, 83, 0
2, 33021, Note_on_c, 0, 80, 0
2, 33021, Note_on_c, 0, 74, 0
2, 33024, Note_on_c, 0, 73, 85
2, 33032, Note_on_c, 0, 76, 85
2, 33040, Note_on_c, 0, 81, 85
2, 33117, Note_on_c, 0, 81, 0
2, 33117, Note_on_c, 0, 76, 0
2, 33117, Note_on_c, 0, 73, 0
2, 33120, Note_on_c, 0, 76, 85
2, 33126, Note_on_c, 0, 80, 85
2, 33132, Note_on_c, 0, 83, 85
2, 33138, Note_on_c, 0, 86, 85
2, 33213, Note_on_c, 0, 86, 0
2, 33213, Note_on_c, 0, 83, 0
2, 33213, Note_on_c, 0, 80, 0
2, 33213, Note_on_c, 0, 76, 0
2, 33216, Note_on_c, 0, 76, 85
2, 33224, Note_on_c, 0, 81, 85
2, 33232, Note_on_c, 0, 85, 85
2, 33309, Note_on_c, 0, 85, 0
2, 33309, Note_on_c, 0, 81, 0
2, 33309, Note_on_c, 0, 76, 0
2, 33312, Note_on_c, 0, 74, 85
2, 33320, Note_on_c, 0, 80, 85
2, 33328, Note_on_c, 0, 83, 85
2, 33405, Note_on_c, 0, 83, 0
2, 33405, Note_on_c, 0, 80, 0
2, 33405, Note_on_c, 0, 74, 0
2, 33408, Note_on_c, 0, 81, 85
2, 33431, Note_on_c, 0, 81, 0
2, 33432, Note_on_c, 0, 85, 85
2, 33455, Note_on_c, 0, 85, 0
2, 33456, Note_on_c, 0, 76, 85
2, 33479, Note_on_c, 0, 76, 0
2, 33480, Note_on_c, 0, 81, 85
2, 33503, Note_on_c, 0, 81, 0
2, 33504, Note_on_c, 0, 73, 85
2, 33527, Note_on_c, 0, 73, 0
2, 33528, Note_on_c, 0, 76, 85
2, 33551, Note_on_c, 0, 76, 0
2, 33552, Note_on_c, 0, 69, 85
2, 33575, Note_on_c, 0, 69, 0
2, 33576, Note_on_c, 0, 73, 85
2, 33599, Note_on_c, 0, 73, 0
2, 33600, Note_on_c, 0, 78, 85
2, 33623, Note_on_c, 0, 78, 0
2, 33624, Note_on_c, 0, 81, 85
2, 33647, Note_on_c, 0, 81, 0
2, 33648, Note_on_c, 0, 74, 85
2, 33671, Note_on_c, 0, 74, 0
2, 33672, Note_on_c, 0, 78, 85
2, 33695, Note_on_c, 0, 78, 0
2, 33696, Note_on_c, 0, 71, 85
2, 33719, Note_on_c, 0, 71, 0
2, 33720, Note_on_c, 0, 74, 85
2, 33743, Note_on_c, 0, 74, 0
2, 33744, Note_on_c, 0, 66, 85
2, 33767, Note_on_c, 0, 66, 0
2, 33768, Note_on_c, 0, 71, 85
2, 33791, Note_on_c, 0, 71, 0
2, 33792, Note_on_c, 0, 69, 85
2, 33881, Note_on_c, 0, 69, 0
2, 33888, Note_on_c, 0, 68, 85
2, 33899, Note_on_c, 0, 68, 0
2, 33899, Note_on_c, 0, 69, 85
2, 33910, Note_on_c, 0, 69, 0
2, 33910, Note_on_c, 0, 68, 85
2, 33921, Note_on_c, 0, 68, 0
2, 33921, Note_on_c, 0, 69, 85
2, 33932, Note_on_c, 0, 69, 0
2, 33932, Note_on_c, 0, 68, 85
2, 33943, Note_on_c, 0, 68, 0
2, 33943, Note_on_c, 0, 69, 85
2, 33954, Note_on_c, 0, 69, 0
2, 33954, Note_on_c, 0, 68, 85
2, 33964, Note_on_c, 0, 68, 0
2, 33964, Note_on_c, 0, 66, 85
2, 33974, Note_on_c, 0, 66, 0
2, 33974, Note_on_c, 0, 68, 85
2, 33984, Note_on_c, 0, 68, 0
2, 33984, Note_on_c, 0, 69, 85
2, 34073, Note_on_c, 0, 69, 0
2, 34176, Note_on_c, 0, 72, 66
2, 34184, Note_on_c, 0, 76, 66
2, 34192, Note_on_c, 0, 81, 66
2, 34269, Note_on_c, 0, 81, 0
2, 34269, Note_on_c, 0, 76, 0
2, 34269, Note_on_c, 0, 72, 0
2, 34320, Note_on_c, 0, 81, 66
2, 34320, Note_on_c, 0, 72, 66
2, 34365, Note_on_c, 0, 81, 0
2, 34365, Note_on_c, 0, 72, 0
2, 34368, Note_on_c, 0, 81, 66
2, 34368, Note_on_c, 0, 72, 66
2, 34392, Note_on_c, 0, 81, 0
2, 34392, Note_on_c, 0, 72, 0
2, 34392, Note_on_c, 0, 80, 66
2, 34392, Note_on_c, 0, 71, 66
2, 34415, Note_on_c, 0, 80, 0
2, 34415, Note_on_c, 0, 71, 0
2, 34416, Note_on_c, 0, 80, 66
2, 34416, Note_on_c, 0, 71, 66
2, 34461, Note_on_c, 0, 80, 0
2, 34461, Note_on_c, 0, 71, 0
2, 34560, Note_on_c, 0, 64, 66
2, 34566, Note_on_c, 0, 68, 66
2, 34572, Note_on_c, 0, 71, 66
2, 34578, Note_on_c, 0, 74, 66
2, 34653, Note_on_c, 0, 74, 0
2, 34653, Note_on_c, 0, 71, 0
2, 34653, Note_on_c, 0, 68, 0
2, 34653, Note_on_c, 0, 64, 0
2, 34704, Note_on_c, 0, 74, 66
2, 34704, Note_on_c, 0, 71, 66
2, 34749, Note_on_c, 0, 74, 0
2, 34749, Note_on_c, 0, 71, 0
2, 34752, Note_on_c, 0, 74, 66
2, 34752, Note_on_c, 0, 71, 66
2, 34776, Note_on_c, 0, 74, 0
2, 34776, Note_on_c, 0, 71, 0
2, 34776, Note_on_c, 0, 72, 66
2, 34776, Note_on_c, 0, 69, 66
2, 34799, Note_on_c, 0, 72, 0
2, 34799, Note_on_c, 0, 69, 0
2, 34800, Note_on_c, 0, 72, 66
2, 34800, Note_on_c, 0, 69, 66
2, 34845, Note_on_c, 0, 72, 0
2, 34845, Note_on_c, 0, 69, 0
2, 34944, Note_on_c, 0, 77, 66
2, 34944, Note_on_c, 0, 74, 66
2, 35033, Note_on_c, 0, 77, 0
2, 35033, Note_on_c, 0, 74, 0
2, 35088, Note_on_c, 0, 77, 68
2, 35088, Note_on_c, 0, 74, 68
2, 35133, Note_on_c, 0, 77, 0
2, 35133, Note_on_c, 0, 74, 0
2, 35136, Note_on_c, 0, 77, 69
2, 35136, Note_on_c, 0, 74, 69
2, 35160, Note_on_c, 0, 77, 0
2, 35160, Note_on_c, 0, 74, 0
2, 35160, Note_on_c, 0, 76, 69
2, 35160, Note_on_c, 0, 72, 69
2, 35183, Note_on_c, 0, 76, 0
2, 35183, Note_on_c, 0, 72, 0
2, 35184, Note_on_c, 0, 76, 69
2, 35184, Note_on_c, 0, 72, 69
2, 35229, Note_on_c, 0, 76, 0
2, 35229, Note_on_c, 0, 72, 0
2, 35280, Note_on_c, 0, 76, 71
2, 35280, Note_on_c, 0, 72, 71
2, 35325, Note_on_c, 0, 76, 0
2, 35325, Note_on_c, 0, 72, 0
2, 35328, Note_on_c, 0, 76, 72
2, 35328, Note_on_c, 0, 72, 72
2, 35352, Note_on_c, 0, 76, 0
2, 35352, Note_on_c, 0, 72, 0
2, 35352, Note_on_c, 0, 74, 72
2, 35352, Note_on_c, 0, 71, 72
2, 35375, Note_on_c, 0, 74, 0
2, 35375, Note_on_c, 0, 71, 0
2, 35376, Note_on_c, 0, 74, 73
2, 35376, Note_on_c, 0, 71, 73
2, 35421, Note_on_c, 0, 74, 0
2, 35421, Note_on_c, 0, 71, 0
2, 35472, Note_on_c, 0, 74, 74
2, 35472, Note_on_c, 0, 71, 74
2, 35517, Note_on_c, 0, 74, 0
2, 35517, Note_on_c, 0, 71, 0
2, 35520, Note_on_c, 0, 74, 75
2, 35520, Note_on_c, 0, 71, 75
2, 35544, Note_on_c, 0, 74, 0
2, 35544, Note_on_c, 0, 71, 0
2, 35544, Note_on_c, 0, 72, 75
2, 35544, Note_on_c, 0, 69, 75
2, 35567, Note_on_c, 0, 72, 0
2, 35567, Note_on_c, 0, 69, 0
2, 35568, Note_on_c, 0, 72, 76
2, 35568, Note_on_c, 0, 69, 76
2, 35613, Note_on_c, 0, 72, 0
2, 35613, Note_on_c, 0, 69, 0
2, 35664, Note_on_c, 0, 72, 77
2, 35664, Note_on_c, 0, 69, 77
2, 35709, Note_on_c, 0, 72, 0
2, 35709, Note_on_c, 0, 69, 0
2, 35712, Note_on_c, 0, 74, 78
2, 35712, Note_on_c, 0, 71, 78
2, 35736, Note_on_c, 0, 74, 0
2, 35736, Note_on_c, 0, 71, 0
2, 35736, Note_on_c, 0, 72, 79
2, 35736, Note_on_c, 0, 69, 79
2, 35759, Note_on_c, 0, 72, 0
2, 35759, Note_on_c, 0, 69, 0
2, 35760, Note_on_c, 0, 72, 79
2, 35760, Note_on_c, 0, 69, 79
2, 35805, Note_on_c, 0, 72, 0
2, 35805, Note_on_c, 0, 69, 0
2, 35856, Note_on_c, 0, 72, 81
2, 35856, Note_on_c, 0, 69, 81
2, 35901, Note_on_c, 0, 72, 0
2, 35901, Note_on_c, 0, 69, 0
2, 35904, Note_on_c, 0, 74, 81
2, 35904, Note_on_c, 0, 71, 81
2, 35928, Note_on_c, 0, 74, 0
2, 35928, Note_on_c, 0, 71, 0
2, 35928, Note_on_c, 0, 72, 82
2, 35928, Note_on_c, 0, 69, 82
2, 35951, Note_on_c, 0, 72, 0
2, 35951, Note_on_c, 0, 69, 0
2, 35952, Note_on_c, 0, 72, 82
2, 35952, Note_on_c, 0, 69, 82
2, 35997, Note_on_c, 0, 72, 0
2, 35997, Note_on_c, 0, 69, 0
2, 36048, Note_on_c, 0, 72, 84
2, 36048, Note_on_c, 0, 69, 84
2, 36093, Note_on_c, 0, 72, 0
2, 36093, Note_on_c, 0, 69, 0
2, 36096, Note_on_c, 0, 72, 85
2, 36106, Note_on_c, 0, 72, 0
2, 36106, Note_on_c, 0, 74, 85
2, 36116, Note_on_c, 0, 74, 0
2, 36116, Note_on_c, 0, 72, 85
2, 36126, Note_on_c, 0, 72, 0
2, 36126, Note_on_c, 0, 71, 85
2, 36135, Note_on_c, 0, 71, 0
2, 36135, Note_on_c, 0, 72, 85
2, 36144, Note_on_c, 0, 72, 0
2, 36144, Note_on_c, 0, 71, 85
2, 36189, Note_on_c, 0, 71, 0
2, 36288, Note_on_c, 0, 57, 85
2, 36303, Note_on_c, 0, 57, 0
2, 36304, Note_on_c, 0, 61, 85
2, 36319, Note_on_c, 0, 61, 0
2, 36320, Note_on_c, 0, 64, 85
2, 36335, Note_on_c, 0, 64, 0
2, 36336, Note_on_c, 0, 61, 85
2, 36351, Note_on_c, 0, 61, 0
2, 36352, Note_on_c, 0, 64, 85
2, 36367, Note_on_c, 0, 64, 0
2, 36368, Note_on_c, 0, 69, 85
2, 36383, Note_on_c, 0, 69, 0
2, 36384, Note_on_c, 0, 69, 85
2, 36399, Note_on_c, 0, 69, 0
2, 36400, Note_on_c, 0, 73, 85
2, 36415, Note_on_c, 0, 73, 0
2, 36416, Note_on_c, 0, 76, 85
2, 36431, Note_on_c, 0, 76, 0
2, 36432, Note_on_c, 0, 73, 85
2, 36447, Note_on_c, 0, 73, 0
2, 36448, Note_on_c, 0, 76, 85
2, 36463, Note_on_c, 0, 76, 0
2, 36464, Note_on_c, 0, 81, 85
2, 36479, Note_on_c, 0, 81, 0
2, 36480, Note_on_c, 0, 74, 85
2, 36480, Note_on_c, 0, 71, 85
2, 36569, Note_on_c, 0, 74, 0
2, 36569, Note_on_c, 0, 71, 0
2, 36672, Note_on_c, 0, 64, 85
2, 36687, Note_on_c, 0, 64, 0
2, 36688, Note_on_c, 0, 68, 85
2, 36703, Note_on_c, 0, 68, 0
2, 36704, Note_on_c, 0, 71, 85
2, 36719, Note_on_c, 0, 71, 0
2, 36720, Note_on_c, 0, 68, 85
2, 36735, Note_on_c, 0, 68, 0
2, 36736, Note_on_c, 0, 71, 85
2, 36751, Note_on_c, 0, 71, 0
2, 36752, Note_on_c, 0, 74, 85
2, 36767, Note_on_c, 0, 74, 0
2, 36768, Note_on_c, 0, 71, 85
2, 36783, Note_on_c, 0, 71, 0
2, 36784, Note_on_c, 0, 74, 85
2, 36799, Note_on_c, 0, 74, 0
2, 36800, Note_on_c, 0, 80, 85
2, 36815, Note_on_c, 0, 80, 0
2, 36816, Note_on_c, 0, 74, 85
2, 36831, Note_on_c, 0, 74, 0
2, 36832, Note_on_c, 0, 80, 85
2, 36847, Note_on_c, 0, 80, 0
2, 36848, Note_on_c, 0, 83, 85
2, 36863, Note_on_c, 0, 83, 0
2, 36864, Note_on_c, 0, 81, 85
2, 36864, Note_on_c, 0, 73, 85
2, 36953, Note_on_c, 0, 81, 0
2, 36953, Note_on_c, 0, 73, 0
2, 37104, Note_on_c, 0, 69, 78
2, 37149, Note_on_c, 0, 69, 0
2, 37152, Note_on_c, 0, 73, 78
2, 37197, Note_on_c, 0, 73, 0
2, 37200, Note_on_c, 0, 76, 78
2, 37245, Note_on_c, 0, 76, 0
2, 37248, Note_on_c, 0, 66, 78
2, 37259, Note_on_c, 0, 66, 0
2, 37259, Note_on_c, 0, 68, 78
2, 37270, Note_on_c, 0, 68, 0
2, 37270, Note_on_c, 0, 66, 78
2, 37281, Note_on_c, 0, 66, 0
2, 37281, Note_on_c, 0, 68, 78
2, 37292, Note_on_c, 0, 68, 0
2, 37292, Note_on_c, 0, 66, 78
2, 37303, Note_on_c, 0, 66, 0
2, 37303, Note_on_c, 0, 68, 78
2, 37314, Note_on_c, 0, 68, 0
2, 37314, Note_on_c, 0, 66, 78
2, 37325, Note_on_c, 0, 66, 0
2, 37325, Note_on_c, 0, 68, 78
2, 37336, Note_on_c, 0, 68, 0
2, 37336, Note_on_c, 0, 66, 78
2, 37347, Note_on_c, 0, 66, 0
2, 37347, Note_on_c, 0, 68, 78
2, 37358, Note_on_c, 0, 68, 0
2, 37358, Note_on_c, 0, 66, 78
2, 37369, Note_on_c, 0, 66, 0
2, 37369, Note_on_c, 0, 68, 78
2, 37380, Note_on_c, 0, 68, 0
2, 37380, Note_on_c, 0, 66, 78
2, 37440, Note_on_c, 0, 66, 0
2, 37488, Note_on_c, 0, 69, 78
2, 37533, Note_on_c, 0, 69, 0
2, 37536, Note_on_c, 0, 73, 78
2, 37581, Note_on_c, 0, 73, 0
2, 37584, Note_on_c, 0, 76, 78
2, 37629, Note_on_c, 0, 76, 0
2, 37632, Note_on_c, 0, 69, 78
2, 37643, Note_on_c, 0, 69, 0
2, 37643, Note_on_c, 0, 71, 78
2, 37654, Note_on_c, 0, 71, 0
2, 37654, Note_on_c, 0, 69, 78
2, 37665, Note_on_c, 0, 69, 0
2, 37665, Note_on_c, 0, 71, 78
2, 37676, Note_on_c, 0, 71, 0
2, 37676, Note_on_c, 0, 69, 78
2, 37687, Note_on_c, 0, 69, 0
2, 37687, Note_on_c, 0, 71, 78
2, 37698, Note_on_c, 0, 71, 0
2, 37698, Note_on_c, 0, 69, 78
2, 37709, Note_on_c, 0, 69, 0
2, 37709, Note_on_c, 0, 71, 78
2, 37720, Note_on_c, 0, 71, 0
2, 37720, Note_on_c, 0, 69, 78
2, 37731, Note_on_c, 0, 69, 0
2, 37731, Note_on_c, 0, 71, 78
2, 37742, Note_on_c, 0, 71, 0
2, 37742, Note_on_c, 0, 69, 78
2, 37753, Note_on_c, 0, 69, 0
2, 37753, Note_on_c, 0, 71, 78
2, 37764, Note_on_c, 0, 71, 0
2, 37764, Note_on_c, 0, 69, 78
2, 37824, Note_on_c, 0, 69, 0
2, 37872, Note_on_c, 0, 69, 78
2, 37917, Note_on_c, 0, 69, 0
2, 37920, Note_on_c, 0, 73, 78
2, 37965, Note_on_c, 0, 73, 0
2, 37968, Note_on_c, 0, 76, 78
2, 38013, Note_on_c, 0, 76, 0
2, 38016, Note_on_c, 0, 76, 78
2, 38061, Note_on_c, 0, 76, 0
2, 38064, Note_on_c, 0, 77, 78
2, 38109, Note_on_c, 0, 77, 0
2, 38112, Note_on_c, 0, 78, 78
2, 38157, Note_on_c, 0, 78, 0
2, 38160, Note_on_c, 0, 74, 78
2, 38205, Note_on_c, 0, 74, 0
2, 38208, Note_on_c, 0, 74, 78
2, 38231, Note_on_c, 0, 74, 0
2, 38232, Note_on_c, 0, 73, 78
2, 38255, Note_on_c, 0, 73, 0
2, 38256, Note_on_c, 0, 71, 78
2, 38279, Note_on_c, 0, 71, 0
2, 38280, Note_on_c, 0, 69, 78
2, 38303, Note_on_c, 0, 69, 0
2, 38304, Note_on_c, 0, 73, 78
2, 38327, Note_on_c, 0, 73, 0
2, 38328, Note_on_c, 0, 71, 78
2, 38351, Note_on_c, 0, 71, 0
2, 38352, Note_on_c, 0, 69, 78
2, 38375, Note_on_c, 0, 69, 0
2, 38376, Note_on_c, 0, 68, 78
2, 38399, Note_on_c, 0, 68, 0
2, 38400, Note_on_c, 0, 69, 78
2, 38445, Note_on_c, 0, 69, 0
2, 38448, Note_on_c, 0, 73, 85
2, 38448, Note_on_c, 0, 69, 85
2, 38463, Note_on_c, 0, 73, 0
2, 38463, Note_on_c, 0, 69, 0
2, 38464, Note_on_c, 0, 74, 85
2, 38464, Note_on_c, 0, 71, 85
2, 38479, Note_on_c, 0, 74, 0
2, 38479, Note_on_c, 0, 71, 0
2, 38480, Note_on_c, 0, 76, 85
2, 38480, Note_on_c, 0, 73, 85
2, 38495, Note_on_c, 0, 76, 0
2, 38495, Note_on_c, 0, 73, 0
2, 38496, Note_on_c, 0, 74, 85
2, 38496, Note_on_c, 0, 71, 85
2, 38541, Note_on_c, 0, 74, 0
2, 38541, Note_on_c, 0, 71, 0
2, 38544, Note_on_c, 0, 68, 85
2, 38544, Note_on_c, 0, 62, 85
2, 38589, Note_on_c, 0, 68, 0
2, 38589, Note_on_c, 0, 62, 0
2, 38592, Note_on_c, 0, 69, 85
2, 38592, Note_on_c, 0, 61, 85
2, 38637, Note_on_c, 0, 69, 0
2, 38637, Note_on_c, 0, 61, 0
2, 38640, Note_on_c, 0, 61, 85
2, 38640, Note_on_c, 0, 57, 85
2, 38655, Note_on_c, 0, 61, 0
2, 38655, Note_on_c, 0, 57, 0
2, 38656, Note_on_c, 0, 62, 85
2, 38656, Note_on_c, 0, 59, 85
2, 38671, Note_on_c, 0, 62, 0
2, 38671, Note_on_c, 0, 59, 0
2, 38672, Note_on_c, 0, 64, 85
2, 38672, Note_on_c, 0, 61, 85
2, 38687, Note_on_c, 0, 64, 0
2, 38687, Note_on_c, 0, 61, 0
2, 38688, Note_on_c, 0, 62, 85
2, 38688, Note_on_c, 0, 59, 85
2, 38733, Note_on_c, 0, 62, 0
2, 38733, Note_on_c, 0, 59, 0
2, 38736, Note_on_c, 0, 59, 85
2, 38736, Note_on_c, 0, 56, 85
2, 38781, Note_on_c, 0, 59, 0
2, 38781, Note_on_c, 0, 56, 0
2, 38784, Note_on_c, 0, 57, 85
2, 38873, Note_on_c, 0, 57, 0
2, 38976, Note_on_c, 0, 64, 78
2, 38999, Note_on_c, 0, 64, 0
2, 39000, Note_on_c, 0, 66, 78
2, 39023, Note_on_c, 0, 66, 0
2, 39024, Note_on_c, 0, 68, 78
2, 39047, Note_on_c, 0, 68, 0
2, 39048, Note_on_c, 0, 69, 78
2, 39071, Note_on_c, 0, 69, 0
2, 39072, Note_on_c, 0, 71, 78
2, 39095, Note_on_c, 0, 71, 0
2, 39096, Note_on_c, 0, 73, 78
2, 39119, Note_on_c, 0, 73, 0
2, 39120, Note_on_c, 0, 75, 78
2, 39143, Note_on_c, 0, 75, 0
2, 39144, Note_on_c, 0, 76, 78
2, 39167, Note_on_c, 0, 76, 0
2, 39168, Note_on_c, 0, 73, 78
2, 39178, Note_on_c, 0, 73, 0
2, 39178, Note_on_c, 0, 75, 78
2, 39188, Note_on_c, 0, 75, 0
2, 39188, Note_on_c, 0, 73, 78
2, 39198, Note_on_c, 0, 73, 0
2, 39198, Note_on_c, 0, 71, 78
2, 39207, Note_on_c, 0, 71, 0
2, 39207, Note_on_c, 0, 73, 78
2, 39216, Note_on_c, 0, 73, 0
2, 39216, Note_on_c, 0, 71, 78
2, 39261, Note_on_c, 0, 71, 0
2, 39312, Note_on_c, 0, 78, 78
2, 39324, Note_on_c, 0, 78, 0
2, 39324, Note_on_c, 0, 76, 78
2, 39336, Note_on_c, 0, 76, 0
2, 39336, Note_on_c, 0, 75, 78
2, 39348, Note_on_c, 0, 75, 0
2, 39348, Note_on_c, 0, 76, 78
2, 39360, Note_on_c, 0, 76, 0
2, 39360, Note_on_c, 0, 75, 78
2, 39375, Note_on_c, 0, 75, 0
2, 39376, Note_on_c, 0, 76, 78
2, 39391, Note_on_c, 0, 76, 0
2, 39392, Note_on_c, 0, 78, 78
2, 39407, Note_on_c, 0, 78, 0
2, 39408, Note_on_c, 0, 69, 78
2, 39453, Note_on_c, 0, 69, 0
2, 39456, Note_on_c, 0, 68, 78
2, 39466, Note_on_c, 0, 68, 0
2, 39466, Note_on_c, 0, 69, 78
2, 39476, Note_on_c, 0, 69, 0
2, 39476, Note_on_c, 0, 68, 78
2, 39486, Note_on_c, 0, 68, 0
2, 39486, Note_on_c, 0, 66, 78
2, 39495, Note_on_c, 0, 66, 0
2, 39495, Note_on_c, 0, 68, 78
2, 39504, Note_on_c, 0, 68, 0
2, 39504, Note_on_c, 0, 66, 78
2, 39549, Note_on_c, 0, 66, 0
2, 39552, Note_on_c, 0, 68, 78
2, 39567, Note_on_c, 0, 68, 0
2, 39568, Note_on_c, 0, 69, 78
2, 39583, Note_on_c, 0, 69, 0
2, 39584, Note_on_c, 0, 71, 78
2, 39599, Note_on_c, 0, 71, 0
2, 39600, Note_on_c, 0, 64, 78
2, 39645, Note_on_c, 0, 64, 0
2, 39696, Note_on_c, 0, 78, 78
2, 39708, Note_on_c, 0, 78, 0
2, 39708, Note_on_c, 0, 76, 78
2, 39720, Note_on_c, 0, 76, 0
2, 39720, Note_on_c, 0, 75, 78
2, 39732, Note_on_c, 0, 75, 0
2, 39732, Note_on_c, 0, 76, 78
2, 39737, Note_on_c, 0, 76, 0
2, 39744, Note_on_c, 0, 75, 101
2, 39759, Note_on_c, 0, 75, 0
2, 39760, Note_on_c, 0, 76, 78
2, 39775, Note_on_c, 0, 76, 0
2, 39776, Note_on_c, 0, 78, 78
2, 39791, Note_on_c, 0, 78, 0
2, 39792, Note_on_c, 0, 69, 78
2, 39837, Note_on_c, 0, 69, 0
2, 39840, Note_on_c, 0, 68, 78
2, 39850, Note_on_c, 0, 68, 0
2, 39850, Note_on_c, 0, 69, 78
2, 39860, Note_on_c, 0, 69, 0
2, 39860, Note_on_c, 0, 68, 78
2, 39870, Note_on_c, 0, 68, 0
2, 39870, Note_on_c, 0, 66, 78
2, 39879, Note_on_c, 0, 66, 0
2, 39879, Note_on_c, 0, 68, 78
2, 39888, Note_on_c, 0, 68, 0
2, 39888, Note_on_c, 0, 66, 78
2, 39933, Note_on_c, 0, 66, 0
2, 39936, Note_on_c, 0, 68, 78
2, 39951, Note_on_c, 0, 68, 0
2, 39952, Note_on_c, 0, 69, 78
2, 39967, Note_on_c, 0, 69, 0
2, 39968, Note_on_c, 0, 71, 78
2, 39983, Note_on_c, 0, 71, 0
2, 39984, Note_on_c, 0, 64, 78
2, 40029, Note_on_c, 0, 64, 0
2, 40128, Note_on_c, 0, 79, 101
2, 40128, Note_on_c, 0, 70, 101
2, 40224, Note_on_c, 0, 79, 0
2, 40224, Note_on_c, 0, 70, 0
2, 40224, Note_on_c, 0, 79, 85
2, 40248, Note_on_c, 0, 79, 0
2, 40248, Note_on_c, 0, 78, 85
2, 40271, Note_on_c, 0, 78, 0
2, 40272, Note_on_c, 0, 78, 85
2, 40296, Note_on_c, 0, 78, 0
2, 40296, Note_on_c, 0, 76, 85
2, 40319, Note_on_c, 0, 76, 0
2, 40320, Note_on_c, 0, 76, 85
2, 40344, Note_on_c, 0, 76, 0
2, 40344, Note_on_c, 0, 74, 85
2, 40367, Note_on_c, 0, 74, 0
2, 40368, Note_on_c, 0, 74, 85
2, 40392, Note_on_c, 0, 74, 0
2, 40392, Note_on_c, 0, 73, 85
2, 40415, Note_on_c, 0, 73, 0
2, 40416, Note_on_c, 0, 73, 85
2, 40464, Note_on_c, 0, 73, 0
2, 40464, Note_on_c, 0, 74, 85
2, 40509, Note_on_c, 0, 74, 0
2, 40512, Note_on_c, 0, 78, 101
2, 40512, Note_on_c, 0, 68, 101
2, 40608, Note_on_c, 0, 78, 0
2, 40608, Note_on_c, 0, 68, 0
2, 40608, Note_on_c, 0, 78, 85
2, 40632, Note_on_c, 0, 78, 0
2, 40632, Note_on_c, 0, 76, 85
2, 40655, Note_on_c, 0, 76, 0
2, 40656, Note_on_c, 0, 76, 85
2, 40680, Note_on_c, 0, 76, 0
2, 40680, Note_on_c, 0, 74, 85
2, 40703, Note_on_c, 0, 74, 0
2, 40704, Note_on_c, 0, 74, 85
2, 40728, Note_on_c, 0, 74, 0
2, 40728, Note_on_c, 0, 73, 85
2, 40751, Note_on_c, 0, 73, 0
2, 40752, Note_on_c, 0, 73, 85
2, 40776, Note_on_c, 0, 73, 0
2, 40776, Note_on_c, 0, 71, 85
2, 40799, Note_on_c, 0, 71, 0
2, 40800, Note_on_c, 0, 71, 85
2, 40848, Note_on_c, 0, 71, 0
2, 40848, Note_on_c, 0, 73, 85
2, 40893, Note_on_c, 0, 73, 0
2, 40896, Note_on_c, 0, 80, 85
2, 40911, Note_on_c, 0, 80, 0
2, 40912, Note_on_c, 0, 83, 85
2, 40927, Note_on_c, 0, 83, 0
2, 40928, Note_on_c, 0, 80, 85
2, 40943, Note_on_c, 0, 80, 0
2, 40944, Note_on_c, 0, 74, 85
2, 40959, Note_on_c, 0, 74, 0
2, 40960, Note_on_c, 0, 80, 85
2, 40975, Note_on_c, 0, 80, 0
2, 40976, Note_on_c, 0, 74, 85
2, 40991, Note_on_c, 0, 74, 0
2, 40992, Note_on_c, 0, 71, 85
2, 41007, Note_on_c, 0, 71, 0
2, 41008, Note_on_c, 0, 74, 85
2, 41023, Note_on_c, 0, 74, 0
2, 41024, Note_on_c, 0, 71, 85
2, 41039, Note_on_c, 0, 71, 0
2, 41040, Note_on_c, 0, 68, 85
2, 41055, Note_on_c, 0, 68, 0
2, 41056, Note_on_c, 0, 71, 85
2, 41071, Note_on_c, 0, 71, 0
2, 41072, Note_on_c, 0, 68, 85
2, 41087, Note_on_c, 0, 68, 0
2, 41112, Note_on_c, 0, 64, 85
2, 41135, Note_on_c, 0, 64, 0
2, 41136, Note_on_c, 0, 74, 85
2, 41159, Note_on_c, 0, 74, 0
2, 41160, Note_on_c, 0, 64, 85
2, 41183, Note_on_c, 0, 64, 0
2, 41184, Note_on_c, 0, 73, 85
2, 41207, Note_on_c, 0, 73, 0
2, 41208, Note_on_c, 0, 64, 85
2, 41231, Note_on_c, 0, 64, 0
2, 41232, Note_on_c, 0, 71, 85
2, 41255, Note_on_c, 0, 71, 0
2, 41256, Note_on_c, 0, 64, 85
2, 41279, Note_on_c, 0, 64, 0
2, 41280, Note_on_c, 0, 81, 85
2, 41295, Note_on_c, 0, 81, 0
2, 41296, Note_on_c, 0, 85, 85
2, 41311, Note_on_c, 0, 85, 0
2, 41312, Note_on_c, 0, 81, 85
2, 41327, Note_on_c, 0, 81, 0
2, 41328, Note_on_c, 0, 76, 85
2, 41343, Note_on_c, 0, 76, 0
2, 41344, Note_on_c, 0, 81, 85
2, 41359, Note_on_c, 0, 81, 0
2, 41360, Note_on_c, 0, 76, 85
2, 41375, Note_on_c, 0, 76, 0
2, 41376, Note_on_c, 0, 73, 85
2, 41391, Note_on_c, 0, 73, 0
2, 41392, Note_on_c, 0, 76, 85
2, 41407, Note_on_c, 0, 76, 0
2, 41408, Note_on_c, 0, 73, 85
2, 41423, Note_on_c, 0, 73, 0
2, 41424, Note_on_c, 0, 69, 85
2, 41439, Note_on_c, 0, 69, 0
2, 41440, Note_on_c, 0, 73, 85
2, 41455, Note_on_c, 0, 73, 0
2, 41456, Note_on_c, 0, 69, 85
2, 41471, Note_on_c, 0, 69, 0
2, 41496, Note_on_c, 0, 64, 85
2, 41519, Note_on_c, 0, 64, 0
2, 41520, Note_on_c, 0, 76, 85
2, 41543, Note_on_c, 0, 76, 0
2, 41544, Note_on_c, 0, 64, 85
2, 41567, Note_on_c, 0, 64, 0
2, 41568, Note_on_c, 0, 74, 85
2, 41591, Note_on_c, 0, 74, 0
2, 41592, Note_on_c, 0, 64, 85
2, 41615, Note_on_c, 0, 64, 0
2, 41616, Note_on_c, 0, 73, 85
2, 41639, Note_on_c, 0, 73, 0
2, 41640, Note_on_c, 0, 64, 85
2, 41663, Note_on_c, 0, 64, 0
2, 41664, Note_on_c, 0, 81, 78
2, 41676, Note_on_c, 0, 81, 0
2, 41676, Note_on_c, 0, 80, 78
2, 41688, Note_on_c, 0, 80, 0
2, 41688, Note_on_c, 0, 78, 78
2, 41700, Note_on_c, 0, 78, 0
2, 41700, Note_on_c, 0, 76, 78
2, 41712, Note_on_c, 0, 76, 0
2, 41712, Note_on_c, 0, 75, 78
2, 41845, Note_on_c, 0, 75, 0
2, 41856, Note_on_c, 0, 83, 78
2, 41868, Note_on_c, 0, 83, 0
2, 41868, Note_on_c, 0, 81, 78
2, 41880, Note_on_c, 0, 81, 0
2, 41880, Note_on_c, 0, 80, 78
2, 41892, Note_on_c, 0, 80, 0
2, 41892, Note_on_c, 0, 78, 78
2, 41904, Note_on_c, 0, 78, 0
2, 41904, Note_on_c, 0, 76, 78
2, 42037, Note_on_c, 0, 76, 0
2, 42072, Note_on_c, 0, 85, 72
2, 42082, Note_on_c, 0, 85, 0
2, 42096, Note_on_c, 0, 86, 72
2, 42108, Note_on_c, 0, 86, 0
2, 42108, Note_on_c, 0, 85, 72
2, 42120, Note_on_c, 0, 85, 0
2, 42120, Note_on_c, 0, 86, 72
2, 42132, Note_on_c, 0, 86, 0
2, 42132, Note_on_c, 0, 83, 72
2, 42138, Note_on_c, 0, 83, 0
2, 42138, Note_on_c, 0, 85, 72
2, 42144, Note_on_c, 0, 85, 0
2, 42144, Note_on_c, 0, 86, 72
2, 42189, Note_on_c, 0, 86, 0
2, 42264, Note_on_c, 0, 83, 72
2, 42274, Note_on_c, 0, 83, 0
2, 42288, Note_on_c, 0, 85, 72
2, 42300, Note_on_c, 0, 85, 0
2, 42300, Note_on_c, 0, 83, 72
2, 42312, Note_on_c, 0, 83, 0
2, 42312, Note_on_c, 0, 85, 72
2, 42324, Note_on_c, 0, 85, 0
2, 42324, Note_on_c, 0, 81, 72
2, 42330, Note_on_c, 0, 81, 0
2, 42330, Note_on_c, 0, 83, 72
2, 42336, Note_on_c, 0, 83, 0
2, 42336, Note_on_c, 0, 85, 72
2, 42381, Note_on_c, 0, 85, 0
2, 42456, Note_on_c, 0, 85, 72
2, 42466, Note_on_c, 0, 85, 0
2, 42480, Note_on_c, 0, 86, 72
2, 42492, Note_on_c, 0, 86, 0
2, 42492, Note_on_c, 0, 85, 72
2, 42504, Note_on_c, 0, 85, 0
2, 42504, Note_on_c, 0, 86, 72
2, 42516, Note_on_c, 0, 86, 0
2, 42516, Note_on_c, 0, 83, 72
2, 42522, Note_on_c, 0, 83, 0
2, 42522, Note_on_c, 0, 85, 72
2, 42528, Note_on_c, 0, 85, 0
2, 42528, Note_on_c, 0, 86, 72
2, 42573, Note_on_c, 0, 86, 0
2, 42648, Note_on_c, 0, 83, 72
2, 42658, Note_on_c, 0, 83, 0
2, 42672, Note_on_c, 0, 85, 72
2, 42684, Note_on_c, 0, 85, 0
2, 42684, Note_on_c, 0, 83, 72
2, 42696, Note_on_c, 0, 83, 0
2, 42696, Note_on_c, 0, 85, 72
2, 42708, Note_on_c, 0, 85, 0
2, 42708, Note_on_c, 0, 81, 72
2, 42714, Note_on_c, 0, 81, 0
2, 42714, Note_on_c, 0, 83, 72
2, 42720, Note_on_c, 0, 83, 0
2, 42720, Note_on_c, 0, 85, 72
2, 42743, Note_on_c, 0, 85, 0
2, 42744, Note_on_c, 0, 81, 73
2, 42754, Note_on_c, 0, 81, 0
2, 42768, Note_on_c, 0, 83, 73
2, 42780, Note_on_c, 0, 83, 0
2, 42780, Note_on_c, 0, 81, 73
2, 42792, Note_on_c, 0, 81, 0
2, 42792, Note_on_c, 0, 83, 73
2, 42804, Note_on_c, 0, 83, 0
2, 42804, Note_on_c, 0, 80, 74
2, 42810, Note_on_c, 0, 80, 0
2, 42810, Note_on_c, 0, 81, 74
2, 42816, Note_on_c, 0, 81, 0
2, 42816, Note_on_c, 0, 83, 74
2, 42839, Note_on_c, 0, 83, 0
2, 42840, Note_on_c, 0, 80, 74
2, 42850, Note_on_c, 0, 80, 0
2, 42864, Note_on_c, 0, 81, 74
2, 42876, Note_on_c, 0, 81, 0
2, 42876, Note_on_c, 0, 80, 75
2, 42888, Note_on_c, 0, 80, 0
2, 42888, Note_on_c, 0, 81, 75
2, 42900, Note_on_c, 0, 81, 0
2, 42900, Note_on_c, 0, 78, 75
2, 42906, Note_on_c, 0, 78, 0
2, 42906, Note_on_c, 0, 80, 75
2, 42912, Note_on_c, 0, 80, 0
2, 42912, Note_on_c, 0, 81, 75
2, 42935, Note_on_c, 0, 81, 0
2, 42936, Note_on_c, 0, 78, 75
2, 42946, Note_on_c, 0, 78, 0
2, 42960, Note_on_c, 0, 80, 76
2, 42972, Note_on_c, 0, 80, 0
2, 42972, Note_on_c, 0, 78, 76
2, 42984, Note_on_c, 0, 78, 0
2, 42984, Note_on_c, 0, 80, 76
2, 42996, Note_on_c, 0, 80, 0
2, 42996, Note_on_c, 0, 77, 76
2, 43002, Note_on_c, 0, 77, 0
2, 43002, Note_on_c, 0, 78, 76
2, 43008, Note_on_c, 0, 78, 0
2, 43008, Note_on_c, 0, 77, 76
2, 43023, Note_on_c, 0, 77, 0
2, 43024, Note_on_c, 0, 78, 76
2, 43039, Note_on_c, 0, 78, 0
2, 43040, Note_on_c, 0, 80, 77
2, 43055, Note_on_c, 0, 80, 0
2, 43056, Note_on_c, 0, 73, 77
2, 43101, Note_on_c, 0, 73, 0
2, 43200, Note_on_c, 0, 80, 85
2, 43215, Note_on_c, 0, 80, 0
2, 43216, Note_on_c, 0, 85, 85
2, 43231, Note_on_c, 0, 85, 0
2, 43232, Note_on_c, 0, 80, 85
2, 43247, Note_on_c, 0, 80, 0
2, 43248, Note_on_c, 0, 77, 85
2, 43263, Note_on_c, 0, 77, 0
2, 43264, Note_on_c, 0, 80, 85
2, 43279, Note_on_c, 0, 80, 0
2, 43280, Note_on_c, 0, 77, 85
2, 43295, Note_on_c, 0, 77, 0
2, 43296, Note_on_c, 0, 73, 85
2, 43311, Note_on_c, 0, 73, 0
2, 43312, Note_on_c, 0, 77, 85
2, 43327, Note_on_c, 0, 77, 0
2, 43328, Note_on_c, 0, 73, 85
2, 43343, Note_on_c, 0, 73, 0
2, 43344, Note_on_c, 0, 68, 85
2, 43359, Note_on_c, 0, 68, 0
2, 43360, Note_on_c, 0, 73, 85
2, 43375, Note_on_c, 0, 73, 0
2, 43376, Note_on_c, 0, 68, 85
2, 43391, Note_on_c, 0, 68, 0
2, 43416, Note_on_c, 0, 73, 85
2, 43439, Note_on_c, 0, 73, 0
2, 43440, Note_on_c, 0, 83, 85
2, 43463, Note_on_c, 0, 83, 0
2, 43464, Note_on_c, 0, 73, 85
2, 43487, Note_on_c, 0, 73, 0
2, 43488, Note_on_c, 0, 81, 85
2, 43511, Note_on_c, 0, 81, 0
2, 43512, Note_on_c, 0, 73, 85
2, 43535, Note_on_c, 0, 73, 0
2, 43536, Note_on_c, 0, 80, 85
2, 43559, Note_on_c, 0, 80, 0
2, 43560, Note_on_c, 0, 73, 85
2, 43583, Note_on_c, 0, 73, 0
2, 43584, Note_on_c, 0, 81, 85
2, 43599, Note_on_c, 0, 81, 0
2, 43600, Note_on_c, 0, 85, 85
2, 43615, Note_on_c, 0, 85, 0
2, 43616, Note_on_c, 0, 81, 85
2, 43631, Note_on_c, 0, 81, 0
2, 43632, Note_on_c, 0, 78, 85
2, 43647, Note_on_c, 0, 78, 0
2, 43648, Note_on_c, 0, 81, 85
2, 43663, Note_on_c, 0, 81, 0
2, 43664, Note_on_c, 0, 78, 85
2, 43679, Note_on_c, 0, 78, 0
2, 43680, Note_on_c, 0, 73, 85
2, 43695, Note_on_c, 0, 73, 0
2, 43696, Note_on_c, 0, 78, 85
2, 43711, Note_on_c, 0, 78, 0
2, 43712, Note_on_c, 0, 73, 85
2, 43727, Note_on_c, 0, 73, 0
2, 43728, Note_on_c, 0, 69, 85
2, 43743, Note_on_c, 0, 69, 0
2, 43744, Note_on_c, 0, 73, 85
2, 43759, Note_on_c, 0, 73, 0
2, 43760, Note_on_c, 0, 69, 85
2, 43775, Note_on_c, 0, 69, 0
2, 43800, Note_on_c, 0, 73, 85
2, 43823, Note_on_c, 0, 73, 0
2, 43824, Note_on_c, 0, 85, 85
2, 43847, Note_on_c, 0, 85, 0
2, 43848, Note_on_c, 0, 73, 85
2, 43871, Note_on_c, 0, 73, 0
2, 43872, Note_on_c, 0, 83, 85
2, 43895, Note_on_c, 0, 83, 0
2, 43896, Note_on_c, 0, 73, 85
2, 43919, Note_on_c, 0, 73, 0
2, 43920, Note_on_c, 0, 81, 85
2, 43943, Note_on_c, 0, 81, 0
2, 43944, Note_on_c, 0, 73, 85
2, 43967, Note_on_c, 0, 73, 0
2, 43968, Note_on_c, 0, 73, 85
2, 43983, Note_on_c, 0, 73, 0
2, 43984, Note_on_c, 0, 78, 85
2, 43999, Note_on_c, 0, 78, 0
2, 44000, Note_on_c, 0, 73, 85
2, 44015, Note_on_c, 0, 73, 0
2, 44016, Note_on_c, 0, 70, 85
2, 44031, Note_on_c, 0, 70, 0
2, 44032, Note_on_c, 0, 73, 85
2, 44047, Note_on_c, 0, 73, 0
2, 44048, Note_on_c, 0, 70, 85
2, 44063, Note_on_c, 0, 70, 0
2, 44064, Note_on_c, 0, 66, 85
2, 44079, Note_on_c, 0, 66, 0
2, 44080, Note_on_c, 0, 70, 85
2, 44095, Note_on_c, 0, 70, 0
2, 44096, Note_on_c, 0, 66, 85
2, 44111, Note_on_c, 0, 66, 0
2, 44112, Note_on_c, 0, 61, 85
2, 44127, Note_on_c, 0, 61, 0
2, 44128, Note_on_c, 0, 66, 85
2, 44143, Note_on_c, 0, 66, 0
2, 44144, Note_on_c, 0, 61, 85
2, 44159, Note_on_c, 0, 61, 0
2, 44184, Note_on_c, 0, 66, 85
2, 44207, Note_on_c, 0, 66, 0
2, 44208, Note_on_c, 0, 76, 85
2, 44231, Note_on_c, 0, 76, 0
2, 44232, Note_on_c, 0, 66, 85
2, 44255, Note_on_c, 0, 66, 0
2, 44256, Note_on_c, 0, 74, 85
2, 44279, Note_on_c, 0, 74, 0
2, 44280, Note_on_c, 0, 66, 85
2, 44303, Note_on_c, 0, 66, 0
2, 44304, Note_on_c, 0, 73, 85
2, 44327, Note_on_c, 0, 73, 0
2, 44328, Note_on_c, 0, 66, 85
2, 44351, Note_on_c, 0, 66, 0
2, 44352, Note_on_c, 0, 74, 85
2, 44367, Note_on_c, 0, 74, 0
2, 44368, Note_on_c, 0, 78, 85
2, 44383, Note_on_c, 0, 78, 0
2, 44384, Note_on_c, 0, 74, 85
2, 44399, Note_on_c, 0, 74, 0
2, 44400, Note_on_c, 0, 71, 85
2, 44415, Note_on_c, 0, 71, 0
2, 44416, Note_on_c, 0, 74, 85
2, 44431, Note_on_c, 0, 74, 0
2, 44432, Note_on_c, 0, 71, 85
2, 44447, Note_on_c, 0, 71, 0
2, 44448, Note_on_c, 0, 66, 85
2, 44463, Note_on_c, 0, 66, 0
2, 44464, Note_on_c, 0, 71, 85
2, 44479, Note_on_c, 0, 71, 0
2, 44480, Note_on_c, 0, 66, 85
2, 44495, Note_on_c, 0, 66, 0
2, 44496, Note_on_c, 0, 62, 85
2, 44511, Note_on_c, 0, 62, 0
2, 44512, Note_on_c, 0, 66, 85
2, 44527, Note_on_c, 0, 66, 0
2, 44528, Note_on_c, 0, 62, 85
2, 44543, Note_on_c, 0, 62, 0
2, 44568, Note_on_c, 0, 66, 85
2, 44591, Note_on_c, 0, 66, 0
2, 44592, Note_on_c, 0, 78, 85
2, 44615, Note_on_c, 0, 78, 0
2, 44616, Note_on_c, 0, 66, 85
2, 44639, Note_on_c, 0, 66, 0
2, 44640, Note_on_c, 0, 76, 85
2, 44663, Note_on_c, 0, 76, 0
2, 44664, Note_on_c, 0, 66, 85
2, 44687, Note_on_c, 0, 66, 0
2, 44688, Note_on_c, 0, 74, 85
2, 44711, Note_on_c, 0, 74, 0
2, 44712, Note_on_c, 0, 66, 85
2, 44735, Note_on_c, 0, 66, 0
2, 44736, Note_on_c, 0, 78, 85
2, 44751, Note_on_c, 0, 78, 0
2, 44752, Note_on_c, 0, 83, 85
2, 44767, Note_on_c, 0, 83, 0
2, 44768, Note_on_c, 0, 78, 85
2, 44783, Note_on_c, 0, 78, 0
2, 44784, Note_on_c, 0, 75, 85
2, 44799, Note_on_c, 0, 75, 0
2, 44800, Note_on_c, 0, 78, 85
2, 44815, Note_on_c, 0, 78, 0
2, 44816, Note_on_c, 0, 75, 85
2, 44831, Note_on_c, 0, 75, 0
2, 44832, Note_on_c, 0, 71, 85
2, 44847, Note_on_c, 0, 71, 0
2, 44848, Note_on_c, 0, 75, 85
2, 44863, Note_on_c, 0, 75, 0
2, 44864, Note_on_c, 0, 71, 85
2, 44879, Note_on_c, 0, 71, 0
2, 44880, Note_on_c, 0, 66, 85
2, 44895, Note_on_c, 0, 66, 0
2, 44896, Note_on_c, 0, 71, 85
2, 44911, Note_on_c, 0, 71, 0
2, 44912, Note_on_c, 0, 66, 85
2, 44927, Note_on_c, 0, 66, 0
2, 44952, Note_on_c, 0, 71, 85
2, 44975, Note_on_c, 0, 71, 0
2, 44976, Note_on_c, 0, 81, 85
2, 44999, Note_on_c, 0, 81, 0
2, 45000, Note_on_c, 0, 71, 85
2, 45023, Note_on_c, 0, 71, 0
2, 45024, Note_on_c, 0, 80, 85
2, 45047, Note_on_c, 0, 80, 0
2, 45048, Note_on_c, 0, 71, 85
2, 45071, Note_on_c, 0, 71, 0
2, 45072, Note_on_c, 0, 78, 85
2, 45095, Note_on_c, 0, 78, 0
2, 45096, Note_on_c, 0, 71, 85
2, 45119, Note_on_c, 0, 71, 0
2, 45120, Note_on_c, 0, 80, 85
2, 45135, Note_on_c, 0, 80, 0
2, 45136, Note_on_c, 0, 83, 85
2, 45151, Note_on_c, 0, 83, 0
2, 45152, Note_on_c, 0, 80, 85
2, 45167, Note_on_c, 0, 80, 0
2, 45168, Note_on_c, 0, 76, 85
2, 45183, Note_on_c, 0, 76, 0
2, 45184, Note_on_c, 0, 80, 85
2, 45199, Note_on_c, 0, 80, 0
2, 45200, Note_on_c, 0, 76, 85
2, 45215, Note_on_c, 0, 76, 0
2, 45216, Note_on_c, 0, 71, 85
2, 45231, Note_on_c, 0, 71, 0
2, 45232, Note_on_c, 0, 76, 85
2, 45247, Note_on_c, 0, 76, 0
2, 45248, Note_on_c, 0, 71, 85
2, 45263, Note_on_c, 0, 71, 0
2, 45264, Note_on_c, 0, 68, 85
2, 45279, Note_on_c, 0, 68, 0
2, 45280, Note_on_c, 0, 71, 85
2, 45295, Note_on_c, 0, 71, 0
2, 45296, Note_on_c, 0, 68, 85
2, 45311, Note_on_c, 0, 68, 0
2, 45336, Note_on_c, 0, 71, 85
2, 45359, Note_on_c, 0, 71, 0
2, 45360, Note_on_c, 0, 83, 85
2, 45383, Note_on_c, 0, 83, 0
2, 45384, Note_on_c, 0, 71, 85
2, 45407, Note_on_c, 0, 71, 0
2, 45408, Note_on_c, 0, 81, 85
2, 45431, Note_on_c, 0, 81, 0
2, 45432, Note_on_c, 0, 71, 85
2, 45455, Note_on_c, 0, 71, 0
2, 45456, Note_on_c, 0, 80, 85
2, 45479, Note_on_c, 0, 80, 0
2, 45480, Note_on_c, 0, 71, 85
2, 45503, Note_on_c, 0, 71, 0
2, 45504, Note_on_c, 0, 71, 85
2, 45519, Note_on_c, 0, 71, 0
2, 45520, Note_on_c, 0, 76, 85
2, 45535, Note_on_c, 0, 76, 0
2, 45536, Note_on_c, 0, 71, 85
2, 45551, Note_on_c, 0, 71, 0
2, 45552, Note_on_c, 0, 68, 85
2, 45567, Note_on_c, 0, 68, 0
2, 45568, Note_on_c, 0, 71, 85
2, 45583, Note_on_c, 0, 71, 0
2, 45584, Note_on_c, 0, 68, 85
2, 45599, Note_on_c, 0, 68, 0
2, 45600, Note_on_c, 0, 64, 85
2, 45615, Note_on_c, 0, 64, 0
2, 45616, Note_on_c, 0, 68, 85
2, 45631, Note_on_c, 0, 68, 0
2, 45632, Note_on_c, 0, 64, 85
2, 45647, Note_on_c, 0, 64, 0
2, 45648, Note_on_c, 0, 59, 85
2, 45663, Note_on_c, 0, 59, 0
2, 45664, Note_on_c, 0, 64, 85
2, 45679, Note_on_c, 0, 64, 0
2, 45680, Note_on_c, 0, 59, 85
2, 45695, Note_on_c, 0, 59, 0
2, 45720, Note_on_c, 0, 64, 85
2, 45743, Note_on_c, 0, 64, 0
2, 45744, Note_on_c, 0, 74, 85
2, 45767, Note_on_c, 0, 74, 0
2, 45768, Note_on_c, 0, 64, 85
2, 45791, Note_on_c, 0, 64, 0
2, 45792, Note_on_c, 0, 73, 85
2, 45815, Note_on_c, 0, 73, 0
2, 45816, Note_on_c, 0, 64, 85
2, 45839, Note_on_c, 0, 64, 0
2, 45840, Note_on_c, 0, 71, 85
2, 45863, Note_on_c, 0, 71, 0
2, 45864, Note_on_c, 0, 64, 85
2, 45887, Note_on_c, 0, 64, 0
2, 45888, Note_on_c, 0, 73, 85
2, 45903, Note_on_c, 0, 73, 0
2, 45904, Note_on_c, 0, 76, 85
2, 45919, Note_on_c, 0, 76, 0
2, 45920, Note_on_c, 0, 73, 85
2, 45935, Note_on_c, 0, 73, 0
2, 45936, Note_on_c, 0, 69, 85
2, 45951, Note_on_c, 0, 69, 0
2, 45952, Note_on_c, 0, 73, 85
2, 45967, Note_on_c, 0, 73, 0
2, 45968, Note_on_c, 0, 69, 85
2, 45983, Note_on_c, 0, 69, 0
2, 45984, Note_on_c, 0, 64, 85
2, 45999, Note_on_c, 0, 64, 0
2, 46000, Note_on_c, 0, 69, 85
2, 46015, Note_on_c, 0, 69, 0
2, 46016, Note_on_c, 0, 64, 85
2, 46031, Note_on_c, 0, 64, 0
2, 46032, Note_on_c, 0, 61, 85
2, 46047, Note_on_c, 0, 61, 0
2, 46048, Note_on_c, 0, 64, 85
2, 46063, Note_on_c, 0, 64, 0
2, 46064, Note_on_c, 0, 61, 85
2, 46079, Note_on_c, 0, 61, 0
2, 46104, Note_on_c, 0, 64, 85
2, 46127, Note_on_c, 0, 64, 0
2, 46128, Note_on_c, 0, 76, 85
2, 46151, Note_on_c, 0, 76, 0
2, 46152, Note_on_c, 0, 64, 85
2, 46175, Note_on_c, 0, 64, 0
2, 46176, Note_on_c, 0, 74, 85
2, 46199, Note_on_c, 0, 74, 0
2, 46200, Note_on_c, 0, 64, 85
2, 46223, Note_on_c, 0, 64, 0
2, 46224, Note_on_c, 0, 73, 85
2, 46247, Note_on_c, 0, 73, 0
2, 46248, Note_on_c, 0, 64, 85
2, 46271, Note_on_c, 0, 64, 0
2, 46320, Note_on_c, 0, 78, 78
2, 46330, Note_on_c, 0, 78, 0
2, 46330, Note_on_c, 0, 80, 78
2, 46340, Note_on_c, 0, 80, 0
2, 46340, Note_on_c, 0, 78, 78
2, 46350, Note_on_c, 0, 78, 0
2, 46350, Note_on_c, 0, 76, 78
2, 46359, Note_on_c, 0, 76, 0
2, 46359, Note_on_c, 0, 78, 78
2, 46368, Note_on_c, 0, 78, 0
2, 46368, Note_on_c, 0, 76, 78
2, 46413, Note_on_c, 0, 76, 0
2, 46416, Note_on_c, 0, 81, 78
2, 46461, Note_on_c, 0, 81, 0
2, 46512, Note_on_c, 0, 86, 78
2, 46522, Note_on_c, 0, 86, 0
2, 46522, Note_on_c, 0, 88, 78
2, 46532, Note_on_c, 0, 88, 0
2, 46532, Note_on_c, 0, 86, 78
2, 46542, Note_on_c, 0, 86, 0
2, 46542, Note_on_c, 0, 85, 78
2, 46551, Note_on_c, 0, 85, 0
2, 46551, Note_on_c, 0, 86, 78
2, 46560, Note_on_c, 0, 86, 0
2, 46560, Note_on_c, 0, 85, 78
2, 46605, Note_on_c, 0, 85, 0
2, 46608, Note_on_c, 0, 81, 78
2, 46653, Note_on_c, 0, 81, 0
2, 46704, Note_on_c, 0, 78, 78
2, 46714, Note_on_c, 0, 78, 0
2, 46714, Note_on_c, 0, 80, 78
2, 46724, Note_on_c, 0, 80, 0
2, 46724, Note_on_c, 0, 78, 78
2, 46734, Note_on_c, 0, 78, 0
2, 46734, Note_on_c, 0, 76, 78
2, 46743, Note_on_c, 0, 76, 0
2, 46743, Note_on_c, 0, 78, 78
2, 46752, Note_on_c, 0, 78, 0
2, 46752, Note_on_c, 0, 76, 78
2, 46797, Note_on_c, 0, 76, 0
2, 46800, Note_on_c, 0, 81, 78
2, 46845, Note_on_c, 0, 81, 0
2, 46896, Note_on_c, 0, 86, 78
2, 46906, Note_on_c, 0, 86, 0
2, 46906, Note_on_c, 0, 88, 78
2, 46916, Note_on_c, 0, 88, 0
2, 46916, Note_on_c, 0, 86, 78
2, 46926, Note_on_c, 0, 86, 0
2, 46926, Note_on_c, 0, 85, 78
2, 46935, Note_on_c, 0, 85, 0
2, 46935, Note_on_c, 0, 86, 78
2, 46944, Note_on_c, 0, 86, 0
2, 46944, Note_on_c, 0, 85, 78
2, 46989, Note_on_c, 0, 85, 0
2, 46992, Note_on_c, 0, 81, 78
2, 47037, Note_on_c, 0, 81, 0
2, 47088, Note_on_c, 0, 76, 66
2, 47133, Note_on_c, 0, 76, 0
2, 47136, Note_on_c, 0, 76, 67
2, 47181, Note_on_c, 0, 76, 0
2, 47184, Note_on_c, 0, 76, 68
2, 47229, Note_on_c, 0, 76, 0
2, 47280, Note_on_c, 0, 78, 71
2, 47280, Note_on_c, 0, 76, 71
2, 47325, Note_on_c, 0, 78, 0
2, 47325, Note_on_c, 0, 76, 0
2, 47328, Note_on_c, 0, 78, 72
2, 47328, Note_on_c, 0, 76, 72
2, 47373, Note_on_c, 0, 78, 0
2, 47373, Note_on_c, 0, 76, 0
2, 47376, Note_on_c, 0, 78, 73
2, 47376, Note_on_c, 0, 76, 73
2, 47421, Note_on_c, 0, 78, 0
2, 47421, Note_on_c, 0, 76, 0
2, 47472, Note_on_c, 0, 78, 76
2, 47472, Note_on_c, 0, 74, 76
2, 47517, Note_on_c, 0, 78, 0
2, 47517, Note_on_c, 0, 74, 0
2, 47520, Note_on_c, 0, 78, 77
2, 47520, Note_on_c, 0, 74, 77
2, 47565, Note_on_c, 0, 78, 0
2, 47565, Note_on_c, 0, 74, 0
2, 47568, Note_on_c, 0, 78, 78
2, 47568, Note_on_c, 0, 74, 78
2, 47613, Note_on_c, 0, 78, 0
2, 47613, Note_on_c, 0, 74, 0
2, 47664, Note_on_c, 0, 80, 81
2, 47664, Note_on_c, 0, 74, 81
2, 47709, Note_on_c, 0, 80, 0
2, 47709, Note_on_c, 0, 74, 0
2, 47712, Note_on_c, 0, 80, 82
2, 47712, Note_on_c, 0, 74, 82
2, 47757, Note_on_c, 0, 80, 0
2, 47757, Note_on_c, 0, 74, 0
2, 47760, Note_on_c, 0, 80, 83
2, 47760, Note_on_c, 0, 74, 83
2, 47805, Note_on_c, 0, 80, 0
2, 47805, Note_on_c, 0, 74, 0
2, 47808, Note_on_c, 0, 73, 85
2, 47816, Note_on_c, 0, 76, 85
2, 47824, Note_on_c, 0, 81, 85
2, 47901, Note_on_c, 0, 81, 0
2, 47901, Note_on_c, 0, 76, 0
2, 47901, Note_on_c, 0, 73, 0
2, 47904, Note_on_c, 0, 76, 85
2, 47910, Note_on_c, 0, 80, 85
2, 47916, Note_on_c, 0, 83, 85
2, 47922, Note_on_c, 0, 86, 85
2, 47997, Note_on_c, 0, 86, 0
2, 47997, Note_on_c, 0, 83, 0
2, 47997, Note_on_c, 0, 80, 0
2, 47997, Note_on_c, 0, 76, 0
2, 48000, Note_on_c, 0, 76, 85
2, 48008, Note_on_c, 0, 81, 85
2, 48016, Note_on_c, 0, 85, 85
2, 48093, Note_on_c, 0, 85, 0
2, 48093, Note_on_c, 0, 81, 0
2, 48093, Note_on_c, 0, 76, 0
2, 48096, Note_on_c, 0, 74, 85
2, 48104, Note_on_c, 0, 80, 85
2, 48112, Note_on_c, 0, 83, 85
2, 48189, Note_on_c, 0, 83, 0
2, 48189, Note_on_c, 0, 80, 0
2, 48189, Note_on_c, 0, 74, 0
2, 48192, Note_on_c, 0, 73, 85
2, 48200, Note_on_c, 0, 76, 85
2, 48208, Note_on_c, 0, 81, 85
2, 48285, Note_on_c, 0, 81, 0
2, 48285, Note_on_c, 0, 76, 0
2, 48285, Note_on_c, 0, 73, 0
2, 48288, Note_on_c, 0, 76, 85
2, 48294, Note_on_c, 0, 80, 85
2, 48300, Note_on_c, 0, 83, 85
2, 48306, Note_on_c, 0, 86, 85
2, 48381, Note_on_c, 0, 86, 0
2, 48381, Note_on_c, 0, 83, 0
2, 48381, Note_on_c, 0, 80, 0
2, 48381, Note_on_c, 0, 76, 0
2, 48384, Note_on_c, 0, 76, 85
2, 48392, Note_on_c, 0, 81, 85
2, 48400, Note_on_c, 0, 85, 85
2, 48477, Note_on_c, 0, 85, 0
2, 48477, Note_on_c, 0, 81, 0
2, 48477, Note_on_c, 0, 76, 0
2, 48480, Note_on_c, 0, 74, 85
2, 48488, Note_on_c, 0, 80, 85
2, 48496, Note_on_c, 0, 83, 85
2, 48573, Note_on_c, 0, 83, 0
2, 48573, Note_on_c, 0, 80, 0
2, 48573, Note_on_c, 0, 74, 0
2, 48576, Note_on_c, 0, 81, 85
2, 48599, Note_on_c, 0, 81, 0
2, 48600, Note_on_c, 0, 85, 85
2, 48623, Note_on_c, 0, 85, 0
2, 48624, Note_on_c, 0, 76, 85
2, 48647, Note_on_c, 0, 76, 0
2, 48648, Note_on_c, 0, 81, 85
2, 48671, Note_on_c, 0, 81, 0
2, 48672, Note_on_c, 0, 73, 85
2, 48695, Note_on_c, 0, 73, 0
2, 48696, Note_on_c, 0, 76, 85
2, 48719, Note_on_c, 0, 76, 0
2, 48720, Note_on_c, 0, 69, 85
2, 48743, Note_on_c, 0, 69, 0
2, 48744, Note_on_c, 0, 73, 85
2, 48767, Note_on_c, 0, 73, 0
2, 48768, Note_on_c, 0, 78, 85
2, 48791, Note_on_c, 0, 78, 0
2, 48792, Note_on_c, 0, 81, 85
2, 48815, Note_on_c, 0, 81, 0
2, 48816, Note_on_c, 0, 74, 85
2, 48839, Note_on_c, 0, 74, 0
2, 48840, Note_on_c, 0, 78, 85
2, 48863, Note_on_c, 0, 78, 0
2, 48864, Note_on_c, 0, 71, 85
2, 48887, Note_on_c, 0, 71, 0
2, 48888, Note_on_c, 0, 74, 85
2, 48911, Note_on_c, 0, 74, 0
2, 48912, Note_on_c, 0, 66, 85
2, 48935, Note_on_c, 0, 66, 0
2, 48936, Note_on_c, 0, 71, 85
2, 48959, Note_on_c, 0, 71, 0
2, 48960, Note_on_c, 0, 69, 85
2, 49049, Note_on_c, 0, 69, 0
2, 49056, Note_on_c, 0, 68, 85
2, 49067, Note_on_c, 0, 68, 0
2, 49067, Note_on_c, 0, 69, 85
2, 49078, Note_on_c, 0, 69, 0
2, 49078, Note_on_c, 0, 68, 85
2, 49089, Note_on_c, 0, 68, 0
2, 49089, Note_on_c, 0, 69, 85
2, 49100, Note_on_c, 0, 69, 0
2, 49100, Note_on_c, 0, 68, 85
2, 49111, Note_on_c, 0, 68, 0
2, 49111, Note_on_c, 0, 69, 85
2, 49122, Note_on_c, 0, 69, 0
2, 49122, Note_on_c, 0, 68, 85
2, 49132, Note_on_c, 0, 68, 0
2, 49132, Note_on_c, 0, 66, 85
2, 49142, Note_on_c, 0, 66, 0
2, 49142, Note_on_c, 0, 68, 85
2, 49152, Note_on_c, 0, 68, 0
2, 49152, Note_on_c, 0, 69, 85
2, 49241, Note_on_c, 0, 69, 0
2, 49344, Note_on_c, 0, 72, 66
2, 49352, Note_on_c, 0, 76, 66
2, 49360, Note_on_c, 0, 81, 66
2, 49437, Note_on_c, 0, 81, 0
2, 49437, Note_on_c, 0, 76, 0
2, 49437, Note_on_c, 0, 72, 0
2, 49488, Note_on_c, 0, 81, 66
2, 49488, Note_on_c, 0, 72, 66
2, 49533, Note_on_c, 0, 81, 0
2, 49533, Note_on_c, 0, 72, 0
2, 49536, Note_on_c, 0, 81, 66
2, 49536, Note_on_c, 0, 72, 66
2, 49560, Note_on_c, 0, 81, 0
2, 49560, Note_on_c, 0, 72, 0
2, 49560, Note_on_c, 0, 80, 66
2, 49560, Note_on_c, 0, 71, 66
2, 49583, Note_on_c, 0, 80, 0
2, 49583, Note_on_c, 0, 71, 0
2, 49584, Note_on_c, 0, 80, 66
2, 49584, Note_on_c, 0, 71, 66
2, 49629, Note_on_c, 0, 80, 0
2, 49629, Note_on_c, 0, 71, 0
2, 49728, Note_on_c, 0, 64, 66
2, 49734, Note_on_c, 0, 68, 66
2, 49740, Note_on_c, 0, 71, 66
2, 49746, Note_on_c, 0, 74, 66
2, 49821, Note_on_c, 0, 74, 0
2, 49821, Note_on_c, 0, 71, 0
2, 49821, Note_on_c, 0, 68, 0
2, 49821, Note_on_c, 0, 64, 0
2, 49872, Note_on_c, 0, 74, 66
2, 49872, Note_on_c, 0, 71, 66
2, 49917, Note_on_c, 0, 74, 0
2, 49917, Note_on_c, 0, 71, 0
2, 49920, Note_on_c, 0, 74, 66
2, 49920, Note_on_c, 0, 71, 66
2, 49944, Note_on_c, 0, 74, 0
2, 49944, Note_on_c, 0, 71, 0
2, 49944, Note_on_c, 0, 72, 66
2, 49944, Note_on_c, 0, 69, 66
2, 49967, Note_on_c, 0, 72, 0
2, 49967, Note_on_c, 0, 69, 0
2, 49968, Note_on_c, 0, 72, 66
2, 49968, Note_on_c, 0, 69, 66
2, 50013, Note_on_c, 0, 72, 0
2, 50013, Note_on_c, 0, 69, 0
2, 50112, Note_on_c, 0, 77, 66
2, 50112, Note_on_c, 0, 74, 66
2, 50201, Note_on_c, 0, 77, 0
2, 50201, Note_on_c, 0, 74, 0
2, 50256, Note_on_c, 0, 77, 68
2, 50256, Note_on_c, 0, 74, 68
2, 50301, Note_on_c, 0, 77, 0
2, 50301, Note_on_c, 0, 74, 0
2, 50304, Note_on_c, 0, 77, 69
2, 50304, Note_on_c, 0, 74, 69
2, 50328, Note_on_c, 0, 77, 0
2, 50328, Note_on_c, 0, 74, 0
2, 50328, Note_on_c, 0, 76, 69
2, 50328, Note_on_c, 0, 72, 69
2, 50351, Note_on_c, 0, 76, 0
2, 50351, Note_on_c, 0, 72, 0
2, 50352, Note_on_c, 0, 76, 69
2, 50352, Note_on_c, 0, 72, 69
2, 50397, Note_on_c, 0, 76, 0
2, 50397, Note_on_c, 0, 72, 0
2, 50448, Note_on_c, 0, 76, 71
2, 50448, Note_on_c, 0, 72, 71
2, 50493, Note_on_c, 0, 76, 0
2, 50493, Note_on_c, 0, 72, 0
2, 50496, Note_on_c, 0, 76, 72
2, 50496, Note_on_c, 0, 72, 72
2, 50520, Note_on_c, 0, 76, 0
2, 50520, Note_on_c, 0, 72, 0
2, 50520, Note_on_c, 0, 74, 72
2, 50520, Note_on_c, 0, 71, 72
2, 50543, Note_on_c, 0, 74, 0
2, 50543, Note_on_c, 0, 71, 0
2, 50544, Note_on_c, 0, 74, 73
2, 50544, Note_on_c, 0, 71, 73
2, 50589, Note_on_c, 0, 74, 0
2, 50589, Note_on_c, 0, 71, 0
2, 50640, Note_on_c, 0, 74, 74
2, 50640, Note_on_c, 0, 71, 74
2, 50685, Note_on_c, 0, 74, 0
2, 50685, Note_on_c, 0, 71, 0
2, 50688, Note_on_c, 0, 74, 75
2, 50688, Note_on_c, 0, 71, 75
2, 50712, Note_on_c, 0, 74, 0
2, 50712, Note_on_c, 0, 71, 0
2, 50712, Note_on_c, 0, 72, 75
2, 50712, Note_on_c, 0, 69, 75
2, 50735, Note_on_c, 0, 72, 0
2, 50735, Note_on_c, 0, 69, 0
2, 50736, Note_on_c, 0, 72, 76
2, 50736, Note_on_c, 0, 69, 76
2, 50781, Note_on_c, 0, 72, 0
2, 50781, Note_on_c, 0, 69, 0
2, 50832, Note_on_c, 0, 72, 77
2, 50832, Note_on_c, 0, 69, 77
2, 50877, Note_on_c, 0, 72, 0
2, 50877, Note_on_c, 0, 69, 0
2, 50880, Note_on_c, 0, 74, 78
2, 50880, Note_on_c, 0, 71, 78
2, 50904, Note_on_c, 0, 74, 0
2, 50904, Note_on_c, 0, 71, 0
2, 50904, Note_on_c, 0, 72, 79
2, 50904, Note_on_c, 0, 69, 79
2, 50927, Note_on_c, 0, 72, 0
2, 50927, Note_on_c, 0, 69, 0
2, 50928, Note_on_c, 0, 72, 79
2, 50928, Note_on_c, 0, 69, 79
2, 50973, Note_on_c, 0, 72, 0
2, 50973, Note_on_c, 0, 69, 0
2, 51024, Note_on_c, 0, 72, 81
2, 51024, Note_on_c, 0, 69, 81
2, 51069, Note_on_c, 0, 72, 0
2, 51069, Note_on_c, 0, 69, 0
2, 51072, Note_on_c, 0, 74, 81
2, 51072, Note_on_c, 0, 71, 81
2, 51096, Note_on_c, 0, 74, 0
2, 51096, Note_on_c, 0, 71, 0
2, 51096, Note_on_c, 0, 72, 82
2, 51096, Note_on_c, 0, 69, 82
2, 51119, Note_on_c, 0, 72, 0
2, 51119, Note_on_c, 0, 69, 0
2, 51120, Note_on_c, 0, 72, 82
2, 51120, Note_on_c, 0, 69, 82
2, 51165, Note_on_c, 0, 72, 0
2, 51165, Note_on_c, 0, 69, 0
2, 51216, Note_on_c, 0, 72, 84
2, 51216, Note_on_c, 0, 69, 84
2, 51261, Note_on_c, 0, 72, 0
2, 51261, Note_on_c, 0, 69, 0
2, 51264, Note_on_c, 0, 72, 85
2, 51274, Note_on_c, 0, 72, 0
2, 51274, Note_on_c, 0, 74, 85
2, 51284, Note_on_c, 0, 74, 0
2, 51284, Note_on_c, 0, 72, 85
2, 51294, Note_on_c, 0, 72, 0
2, 51294, Note_on_c, 0, 71, 85
2, 51303, Note_on_c, 0, 71, 0
2, 51303, Note_on_c, 0, 72, 85
2, 51312, Note_on_c, 0, 72, 0
2, 51312, Note_on_c, 0, 71, 85
2, 51357, Note_on_c, 0, 71, 0
2, 51456, Note_on_c, 0, 57, 85
2, 51471, Note_on_c, 0, 57, 0
2, 51472, Note_on_c, 0, 61, 85
2, 51487, Note_on_c, 0, 61, 0
2, 51488, Note_on_c, 0, 64, 85
2, 51503, Note_on_c, 0, 64, 0
2, 51504, Note_on_c, 0, 61, 85
2, 51519, Note_on_c, 0, 61, 0
2, 51520, Note_on_c, 0, 64, 85
2, 51535, Note_on_c, 0, 64, 0
2, 51536, Note_on_c, 0, 69, 85
2, 51551, Note_on_c, 0, 69, 0
2, 51552, Note_on_c, 0, 69, 85
2, 51567, Note_on_c, 0, 69, 0
2, 51568, Note_on_c, 0, 73, 85
2, 51583, Note_on_c, 0, 73, 0
2, 51584, Note_on_c, 0, 76, 85
2, 51599, Note_on_c, 0, 76, 0
2, 51600, Note_on_c, 0, 73, 85
2, 51615, Note_on_c, 0, 73, 0
2, 51616, Note_on_c, 0, 76, 85
2, 51631, Note_on_c, 0, 76, 0
2, 51632, Note_on_c, 0, 81, 85
2, 51647, Note_on_c, 0, 81, 0
2, 51648, Note_on_c, 0, 74, 85
2, 51648, Note_on_c, 0, 71, 85
2, 51737, Note_on_c, 0, 74, 0
2, 51737, Note_on_c, 0, 71, 0
2, 51840, Note_on_c, 0, 64, 85
2, 51855, Note_on_c, 0, 64, 0
2, 51856, Note_on_c, 0, 68, 85
2, 51871, Note_on_c, 0, 68, 0
2, 51872, Note_on_c, 0, 71, 85
2, 51887, Note_on_c, 0, 71, 0
2, 51888, Note_on_c, 0, 68, 85
2, 51903, Note_on_c, 0, 68, 0
2, 51904, Note_on_c, 0, 71, 85
2, 51919, Note_on_c, 0, 71, 0
2, 51920, Note_on_c, 0, 74, 85
2, 51935, Note_on_c, 0, 74, 0
2, 51936, Note_on_c, 0, 71, 85
2, 51951, Note_on_c, 0, 71, 0
2, 51952, Note_on_c, 0, 74, 85
2, 51967, Note_on_c, 0, 74, 0
2, 51968, Note_on_c, 0, 80, 85
2, 51983, Note_on_c, 0, 80, 0
2, 51984, Note_on_c, 0, 74, 85
2, 51999, Note_on_c, 0, 74, 0
2, 52000, Note_on_c, 0, 80, 85
2, 52015, Note_on_c, 0, 80, 0
2, 52016, Note_on_c, 0, 83, 85
2, 52031, Note_on_c, 0, 83, 0
2, 52032, Note_on_c, 0, 81, 85
2, 52032, Note_on_c, 0, 73, 85
2, 52121, Note_on_c, 0, 81, 0
2, 52121, Note_on_c, 0, 73, 0
2, 52272, Note_on_c, 0, 69, 78
2, 52317, Note_on_c, 0, 69, 0
2, 52320, Note_on_c, 0, 73, 78
2, 52365, Note_on_c, 0, 73, 0
2, 52368, Note_on_c, 0, 76, 78
2, 52413, Note_on_c, 0, 76, 0
2, 52416, Note_on_c, 0, 66, 78
2, 52427, Note_on_c, 0, 66, 0
2, 52427, Note_on_c, 0, 68, 78
2, 52438, Note_on_c, 0, 68, 0
2, 52438, Note_on_c, 0, 66, 78
2, 52449, Note_on_c, 0, 66, 0
2, 52449, Note_on_c, 0, 68, 78
2, 52460, Note_on_c, 0, 68, 0
2, 52460, Note_on_c, 0, 66, 78
2, 52471, Note_on_c, 0, 66, 0
2, 52471, Note_on_c, 0, 68, 78
2, 52482, Note_on_c, 0, 68, 0
2, 52482, Note_on_c, 0, 66, 78
2, 52493, Note_on_c, 0, 66, 0
2, 52493, Note_on_c, 0, 68, 78
2, 52504, Note_on_c, 0, 68, 0
2, 52504, Note_on_c, 0, 66, 78
2, 52515, Note_on_c, 0, 66, 0
2, 52515, Note_on_c, 0, 68, 78
2, 52526, Note_on_c, 0, 68, 0
2, 52526, Note_on_c, 0, 66, 78
2, 52537, Note_on_c, 0, 66, 0
2, 52537, Note_on_c, 0, 68, 78
2, 52548, Note_on_c, 0, 68, 0
2, 52548, Note_on_c, 0, 66, 78
2, 52608, Note_on_c, 0, 66, 0
2, 52656, Note_on_c, 0, 69, 78
2, 52701, Note_on_c, 0, 69, 0
2, 52704, Note_on_c, 0, 73, 78
2, 52749, Note_on_c, 0, 73, 0
2, 52752, Note_on_c, 0, 76, 78
2, 52797, Note_on_c, 0, 76, 0
2, 52800, Note_on_c, 0, 69, 78
2, 52811, Note_on_c, 0, 69, 0
2, 52811, Note_on_c, 0, 71, 78
2, 52822, Note_on_c, 0, 71, 0
2, 52822, Note_on_c, 0, 69, 78
2, 52833, Note_on_c, 0, 69, 0
2, 52833, Note_on_c, 0, 71, 78
2, 52844, Note_on_c, 0, 71, 0
2, 52844, Note_on_c, 0, 69, 78
2, 52855, Note_on_c, 0, 69, 0
2, 52855, Note_on_c, 0, 71, 78
2, 52866, Note_on_c, 0, 71, 0
2, 52866, Note_on_c, 0, 69, 78
2, 52877, Note_on_c, 0, 69, 0
2, 52877, Note_on_c, 0, 71, 78
2, 52888, Note_on_c, 0, 71, 0
2, 52888, Note_on_c, 0, 69, 78
2, 52899, Note_on_c, 0, 69, 0
2, 52899, Note_on_c, 0, 71, 78
2, 52910, Note_on_c, 0, 71, 0
2, 52910, Note_on_c, 0, 69, 78
2, 52921, Note_on_c, 0, 69, 0
2, 52921, Note_on_c, 0, 71, 78
2, 52932, Note_on_c, 0, 71, 0
2, 52932, Note_on_c, 0, 69, 78
2, 52992, Note_on_c, 0, 69, 0
2, 53040, Note_on_c, 0, 69, 78
2, 53085, Note_on_c, 0, 69, 0
2, 53088, Note_on_c, 0, 73, 78
2, 53133, Note_on_c, 0, 73, 0
2, 53136, Note_on_c, 0, 76, 78
2, 53181, Note_on_c, 0, 76, 0
2, 53184, Note_on_c, 0, 76, 78
2, 53229, Note_on_c, 0, 76, 0
2, 53232, Note_on_c, 0, 77, 78
2, 53277, Note_on_c, 0, 77, 0
2, 53280, Note_on_c, 0, 78, 78
2, 53325, Note_on_c, 0, 78, 0
2, 53328, Note_on_c, 0, 74, 78
2, 53373, Note_on_c, 0, 74, 0
2, 53376, Note_on_c, 0, 74, 78
2, 53399, Note_on_c, 0, 74, 0
2, 53400, Note_on_c, 0, 73, 78
2, 53423, Note_on_c, 0, 73, 0
2, 53424, Note_on_c, 0, 71, 78
2, 53447, Note_on_c, 0, 71, 0
2, 53448, Note_on_c, 0, 69, 78
2, 53471, Note_on_c, 0, 69, 0
2, 53472, Note_on_c, 0, 73, 78
2, 53495, Note_on_c, 0, 73, 0
2, 53496, Note_on_c, 0, 71, 78
2, 53519, Note_on_c, 0, 71, 0
2, 53520, Note_on_c, 0, 69, 78
2, 53543, Note_on_c, 0, 69, 0
2, 53544, Note_on_c, 0, 68, 78
2, 53567, Note_on_c, 0, 68, 0
2, 53568, Note_on_c, 0, 69, 78
2, 53613, Note_on_c, 0, 69, 0
2, 53616, Note_on_c, 0, 73, 85
2, 53616, Note_on_c, 0, 69, 85
2, 53631, Note_on_c, 0, 73, 0
2, 53631, Note_on_c, 0, 69, 0
2, 53632, Note_on_c, 0, 74, 85
2, 53632, Note_on_c, 0, 71, 85
2, 53647, Note_on_c, 0, 74, 0
2, 53647, Note_on_c, 0, 71, 0
2, 53648, Note_on_c, 0, 76, 85
2, 53648, Note_on_c, 0, 73, 85
2, 53663, Note_on_c, 0, 76, 0
2, 53663, Note_on_c, 0, 73, 0
2, 53664, Note_on_c, 0, 74, 85
2, 53664, Note_on_c, 0, 71, 85
2, 53709, Note_on_c, 0, 74, 0
2, 53709, Note_on_c, 0, 71, 0
2, 53712, Note_on_c, 0, 68, 85
2, 53712, Note_on_c, 0, 62, 85
2, 53757, Note_on_c, 0, 68, 0
2, 53757, Note_on_c, 0, 62, 0
2, 53760, Note_on_c, 0, 69, 85
2, 53760, Note_on_c, 0, 61, 85
2, 53805, Note_on_c, 0, 69, 0
2, 53805, Note_on_c, 0, 61, 0
2, 53808, Note_on_c, 0, 61, 85
2, 53808, Note_on_c, 0, 57, 85
2, 53823, Note_on_c, 0, 61, 0
2, 53823, Note_on_c, 0, 57, 0
2, 53824, Note_on_c, 0, 62, 85
2, 53824, Note_on_c, 0, 59, 85
2, 53839, Note_on_c, 0, 62, 0
2, 53839, Note_on_c, 0, 59, 0
2, 53840, Note_on_c, 0, 64, 85
2, 53840, Note_on_c, 0, 61, 85
2, 53855, Note_on_c, 0, 64, 0
2, 53855, Note_on_c, 0, 61, 0
2, 53856, Note_on_c, 0, 62, 85
2, 53856, Note_on_c, 0, 59, 85
2, 53901, Note_on_c, 0, 62, 0
2, 53901, Note_on_c, 0, 59, 0
2, 53904, Note_on_c, 0, 59, 85
2, 53904, Note_on_c, 0, 56, 85
2, 53949, Note_on_c, 0, 59, 0
2, 53949, Note_on_c, 0, 56, 0
2, 53952, Note_on_c, 0, 57, 85
2, 54041, Note_on_c, 0, 57, 0
2, 54336, End_track
3, 0, Start_track
3, 0, Program_c, 0, 0
3, 0, Control_c, 0, 7, 127
3, 0, Control_c, 0, 10, 64
3, 1200, Note_on_c, 0, 71, 66
3, 1200, Note_on_c, 0, 69, 66
3, 1245, Note_on_c, 0, 71, 0
3, 1245, Note_on_c, 0, 69, 0
3, 1248, Note_on_c, 0, 71, 66
3, 1248, Note_on_c, 0, 68, 66
3, 1293, Note_on_c, 0, 71, 0
3, 1293, Note_on_c, 0, 68, 0
3, 1296, Note_on_c, 0, 71, 66
3, 1296, Note_on_c, 0, 68, 66
3, 1341, Note_on_c, 0, 71, 0
3, 1341, Note_on_c, 0, 68, 0
3, 1392, Note_on_c, 0, 71, 66
3, 1392, Note_on_c, 0, 69, 66
3, 1437, Note_on_c, 0, 71, 0
3, 1437, Note_on_c, 0, 69, 0
3, 1440, Note_on_c, 0, 71, 66
3, 1440, Note_on_c, 0, 68, 66
3, 1485, Note_on_c, 0, 71, 0
3, 1485, Note_on_c, 0, 68, 0
3, 1488, Note_on_c, 0, 71, 66
3, 1488, Note_on_c, 0, 68, 66
3, 1533, Note_on_c, 0, 71, 0
3, 1533, Note_on_c, 0, 68, 0
3, 1536, Note_on_c, 0, 69, 72
3, 1581, Note_on_c, 0, 69, 0
3, 1584, Note_on_c, 0, 68, 72
3, 1629, Note_on_c, 0, 68, 0
3, 1632, Note_on_c, 0, 66, 72
3, 1677, Note_on_c, 0, 66, 0
3, 1680, Note_on_c, 0, 64, 72
3, 1725, Note_on_c, 0, 64, 0
3, 1728, Note_on_c, 0, 66, 72
3, 1773, Note_on_c, 0, 66, 0
3, 1776, Note_on_c, 0, 64, 72
3, 1821, Note_on_c, 0, 64, 0
3, 1824, Note_on_c, 0, 63, 72
3, 1869, Note_on_c, 0, 63, 0
3, 1872, Note_on_c, 0, 61, 72
3, 1917, Note_on_c, 0, 61, 0
3, 1968, Note_on_c, 0, 59, 72
3, 2013, Note_on_c, 0, 59, 0
3, 2016, Note_on_c, 0, 63, 72
3, 2061, Note_on_c, 0, 63, 0
3, 2064, Note_on_c, 0, 66, 72
3, 2109, Note_on_c, 0, 66, 0
3, 2160, Note_on_c, 0, 59, 72
3, 2205, Note_on_c, 0, 59, 0
3, 2208, Note_on_c, 0, 64, 72
3, 2253, Note_on_c, 0, 64, 0
3, 2256, Note_on_c, 0, 68, 72
3, 2301, Note_on_c, 0, 68, 0
3, 2352, Note_on_c, 0, 59, 72
3, 2397, Note_on_c, 0, 59, 0
3, 2400, Note_on_c, 0, 63, 72
3, 2445, Note_on_c, 0, 63, 0
3, 2448, Note_on_c, 0, 66, 72
3, 2493, Note_on_c, 0, 66, 0
3, 2544, Note_on_c, 0, 71, 66
3, 2544, Note_on_c, 0, 68, 66
3, 2589, Note_on_c, 0, 71, 0
3, 2589, Note_on_c, 0, 68, 0
3, 2592, Note_on_c, 0, 73, 66
3, 2592, Note_on_c, 0, 69, 66
3, 2637, Note_on_c, 0, 73, 0
3, 2637, Note_on_c, 0, 69, 0
3, 2640, Note_on_c, 0, 71, 66
3, 2640, Note_on_c, 0, 68, 66
3, 2685, Note_on_c, 0, 71, 0
3, 2685, Note_on_c, 0, 68, 0
3, 2736, Note_on_c, 0, 71, 66
3, 2736, Note_on_c, 0, 68, 66
3, 2781, Note_on_c, 0, 71, 0
3, 2781, Note_on_c, 0, 68, 0
3, 2784, Note_on_c, 0, 69, 66
3, 2784, Note_on_c, 0, 66, 66
3, 2829, Note_on_c, 0, 69, 0
3, 2829, Note_on_c, 0, 66, 0
3, 2832, Note_on_c, 0, 68, 66
3, 2832, Note_on_c, 0, 64, 66
3, 2877, Note_on_c, 0, 68, 0
3, 2877, Note_on_c, 0, 64, 0
3, 2880, Note_on_c, 0, 56, 66
3, 2903, Note_on_c, 0, 56, 0
3, 2904, Note_on_c, 0, 68, 66
3, 2927, Note_on_c, 0, 68, 0
3, 2928, Note_on_c, 0, 56, 66
3, 2951, Note_on_c, 0, 56, 0
3, 2952, Note_on_c, 0, 68, 66
3, 2975, Note_on_c, 0, 68, 0
3, 2976, Note_on_c, 0, 56, 66
3, 2999, Note_on_c, 0, 56, 0
3, 3000, Note_on_c, 0, 68, 66
3, 3023, Note_on_c, 0, 68, 0
3, 3024, Note_on_c, 0, 56, 66
3, 3047, Note_on_c, 0, 56, 0
3, 3048, Note_on_c, 0, 68, 66
3, 3071, Note_on_c, 0, 68, 0
3, 3072, Note_on_c, 0, 61, 66
3, 3095, Note_on_c, 0, 61, 0
3, 3096, Note_on_c, 0, 68, 66
3, 3119, Note_on_c, 0, 68, 0
3, 3120, Note_on_c, 0, 61, 66
3, 3143, Note_on_c, 0, 61, 0
3, 3144, Note_on_c, 0, 68, 66
3, 3167, Note_on_c, 0, 68, 0
3, 3168, Note_on_c, 0, 61, 66
3, 3191, Note_on_c, 0, 61, 0
3, 3192, Note_on_c, 0, 68, 66
3, 3215, Note_on_c, 0, 68, 0
3, 3216, Note_on_c, 0, 61, 66
3, 3239, Note_on_c, 0, 61, 0
3, 3240, Note_on_c, 0, 68, 66
3, 3263, Note_on_c, 0, 68, 0
3, 3264, Note_on_c, 0, 54, 66
3, 3287, Note_on_c, 0, 54, 0
3, 3288, Note_on_c, 0, 66, 66
3, 3311, Note_on_c, 0, 66, 0
3, 3312, Note_on_c, 0, 54, 66
3, 3335, Note_on_c, 0, 54, 0
3, 3336, Note_on_c, 0, 66, 66
3, 3359, Note_on_c, 0, 66, 0
3, 3360, Note_on_c, 0, 54, 66
3, 3383, Note_on_c, 0, 54, 0
3, 3384, Note_on_c, 0, 66, 66
3, 3407, Note_on_c, 0, 66, 0
3, 3408, Note_on_c, 0, 54, 66
3, 3431, Note_on_c, 0, 54, 0
3, 3432, Note_on_c, 0, 66, 66
3, 3455, Note_on_c, 0, 66, 0
3, 3456, Note_on_c, 0, 59, 66
3, 3479, Note_on_c, 0, 59, 0
3, 3480, Note_on_c, 0, 66, 66
3, 3503, Note_on_c, 0, 66, 0
3, 3504, Note_on_c, 0, 59, 66
3, 3527, Note_on_c, 0, 59, 0
3, 3528, Note_on_c, 0, 66, 66
3, 3551, Note_on_c, 0, 66, 0
3, 3552, Note_on_c, 0, 59, 66
3, 3575, Note_on_c, 0, 59, 0
3, 3576, Note_on_c, 0, 66, 66
3, 3599, Note_on_c, 0, 66, 0
3, 3600, Note_on_c, 0, 59, 66
3, 3623, Note_on_c, 0, 59, 0
3, 3624, Note_on_c, 0, 66, 66
3, 3647, Note_on_c, 0, 66, 0
3, 9024, Note_on_c, 0, 76, 85
3, 9069, Note_on_c, 0, 76, 0
3, 9072, Note_on_c, 0, 75, 85
3, 9117, Note_on_c, 0, 75, 0
3, 9984, Note_on_c, 0, 56, 72
3, 10007, Note_on_c, 0, 56, 0
3, 10008, Note_on_c, 0, 64, 72
3, 10031, Note_on_c, 0, 64, 0
3, 10032, Note_on_c, 0, 59, 72
3, 10055, Note_on_c, 0, 59, 0
3, 10056, Note_on_c, 0, 64, 72
3, 10079, Note_on_c, 0, 64, 0
3, 10080, Note_on_c, 0, 56, 72
3, 10103, Note_on_c, 0, 56, 0
3, 10104, Note_on_c, 0, 64, 72
3, 10127, Note_on_c, 0, 64, 0
3, 10128, Note_on_c, 0, 59, 72
3, 10151, Note_on_c, 0, 59, 0
3, 10152, Note_on_c, 0, 64, 72
3, 10175, Note_on_c, 0, 64, 0
3, 10176, Note_on_c, 0, 57, 72
3, 10199, Note_on_c, 0, 57, 0
3, 10200, Note_on_c, 0, 64, 72
3, 10223, Note_on_c, 0, 64, 0
3, 10224, Note_on_c, 0, 61, 72
3, 10247, Note_on_c, 0, 61, 0
3, 10248, Note_on_c, 0, 64, 72
3, 10271, Note_on_c, 0, 64, 0
3, 10272, Note_on_c, 0, 57, 72
3, 10295, Note_on_c, 0, 57, 0
3, 10296, Note_on_c, 0, 64, 72
3, 10319, Note_on_c, 0, 64, 0
3, 10320, Note_on_c, 0, 61, 72
3, 10343, Note_on_c, 0, 61, 0
3, 10344, Note_on_c, 0, 64, 72
3, 10367, Note_on_c, 0, 64, 0
3, 10368, Note_on_c, 0, 59, 72
3, 10391, Note_on_c, 0, 59, 0
3, 10392, Note_on_c, 0, 68, 72
3, 10415, Note_on_c, 0, 68, 0
3, 10416, Note_on_c, 0, 64, 72
3, 10439, Note_on_c, 0, 64, 0
3, 10440, Note_on_c, 0, 68, 72
3, 10463, Note_on_c, 0, 68, 0
3, 10464, Note_on_c, 0, 59, 72
3, 10487, Note_on_c, 0, 59, 0
3, 10488, Note_on_c, 0, 68, 72
3, 10511, Note_on_c, 0, 68, 0
3, 10512, Note_on_c, 0, 64, 72
3, 10535, Note_on_c, 0, 64, 0
3, 10536, Note_on_c, 0, 68, 72
3, 10559, Note_on_c, 0, 68, 0
3, 10560, Note_on_c, 0, 61, 72
3, 10583, Note_on_c, 0, 61, 0
3, 10584, Note_on_c, 0, 68, 72
3, 10607, Note_on_c, 0, 68, 0
3, 10608, Note_on_c, 0, 64, 72
3, 10631, Note_on_c, 0, 64, 0
3, 10632, Note_on_c, 0, 68, 72
3, 10655, Note_on_c, 0, 68, 0
3, 10656, Note_on_c, 0, 61, 72
3, 10679, Note_on_c, 0, 61, 0
3, 10680, Note_on_c, 0, 68, 72
3, 10703, Note_on_c, 0, 68, 0
3, 10704, Note_on_c, 0, 64, 72
3, 10727, Note_on_c, 0, 64, 0
3, 10728, Note_on_c, 0, 68, 72
3, 10751, Note_on_c, 0, 68, 0
3, 10752, Note_on_c, 0, 56, 72
3, 10775, Note_on_c, 0, 56, 0
3, 10776, Note_on_c, 0, 64, 72
3, 10799, Note_on_c, 0, 64, 0
3, 10800, Note_on_c, 0, 59, 72
3, 10823, Note_on_c, 0, 59, 0
3, 10824, Note_on_c, 0, 64, 72
3, 10847, Note_on_c, 0, 64, 0
3, 10848, Note_on_c, 0, 56, 72
3, 10871, Note_on_c, 0, 56, 0
3, 10872, Note_on_c, 0, 64, 72
3, 10895, Note_on_c, 0, 64, 0
3, 10896, Note_on_c, 0, 59, 72
3, 10919, Note_on_c, 0, 59, 0
3, 10920, Note_on_c, 0, 64, 72
3, 10943, Note_on_c, 0, 64, 0
3, 10944, Note_on_c, 0, 57, 72
3, 10967, Note_on_c, 0, 57, 0
3, 10968, Note_on_c, 0, 64, 72
3, 10991, Note_on_c, 0, 64, 0
3, 10992, Note_on_c, 0, 61, 72
3, 11015, Note_on_c, 0, 61, 0
3, 11016, Note_on_c, 0, 64, 72
3, 11039, Note_on_c, 0, 64, 0
3, 11040, Note_on_c, 0, 57, 72
3, 11063, Note_on_c, 0, 57, 0
3, 11064, Note_on_c, 0, 64, 72
3, 11087, Note_on_c, 0, 64, 0
3, 11088, Note_on_c, 0, 61, 72
3, 11111, Note_on_c, 0, 61, 0
3, 11112, Note_on_c, 0, 64, 72
3, 11135, Note_on_c, 0, 64, 0
3, 11136, Note_on_c, 0, 59, 72
3, 11159, Note_on_c, 0, 59, 0
3, 11160, Note_on_c, 0, 68, 72
3, 11183, Note_on_c, 0, 68, 0
3, 11184, Note_on_c, 0, 64, 72
3, 11207, Note_on_c, 0, 64, 0
3, 11208, Note_on_c, 0, 68, 72
3, 11231, Note_on_c, 0, 68, 0
3, 11232, Note_on_c, 0, 59, 72
3, 11255, Note_on_c, 0, 59, 0
3, 11256, Note_on_c, 0, 69, 72
3, 11279, Note_on_c, 0, 69, 0
3, 11280, Note_on_c, 0, 66, 72
3, 11303, Note_on_c, 0, 66, 0
3, 11304, Note_on_c, 0, 69, 72
3, 11327, Note_on_c, 0, 69, 0
3, 11328, Note_on_c, 0, 68, 72
3, 11328, Note_on_c, 0, 64, 72
3, 11417, Note_on_c, 0, 68, 0
3, 11417, Note_on_c, 0, 64, 0
3, 13104, Note_on_c, 0, 71, 66
3, 13104, Note_on_c, 0, 69, 66
3, 13149, Note_on_c, 0, 71, 0
3, 13149, Note_on_c, 0, 69, 0
3, 13152, Note_on_c, 0, 71, 66
3, 13152, Note_on_c, 0, 68, 66
3, 13197, Note_on_c, 0, 71, 0
3, 13197, Note_on_c, 0, 68, 0
3, 13200, Note_on_c, 0, 71, 66
3, 13200, Note_on_c, 0, 68, 66
3, 13245, Note_on_c, 0, 71, 0
3, 13245, Note_on_c, 0, 68, 0
3, 13296, Note_on_c, 0, 71, 66
3, 13296, Note_on_c, 0, 69, 66
3, 13341, Note_on_c, 0, 71, 0
3, 13341, Note_on_c, 0, 69, 0
3, 13344, Note_on_c, 0, 71, 66
3, 13344, Note_on_c, 0, 68, 66
3, 13389, Note_on_c, 0, 71, 0
3, 13389, Note_on_c, 0, 68, 0
3, 13392, Note_on_c, 0, 71, 66
3, 13392, Note_on_c, 0, 68, 66
3, 13437, Note_on_c, 0, 71, 0
3, 13437, Note_on_c, 0, 68, 0
3, 13440, Note_on_c, 0, 69, 72
3, 13485, Note_on_c, 0, 69, 0
3, 13488, Note_on_c, 0, 68, 72
3, 13533, Note_on_c, 0, 68, 0
3, 13536, Note_on_c, 0, 66, 72
3, 13581, Note_on_c, 0, 66, 0
3, 13584, Note_on_c, 0, 64, 72
3, 13629, Note_on_c, 0, 64, 0
3, 13632, Note_on_c, 0, 66, 72
3, 13677, Note_on_c, 0, 66, 0
3, 13680, Note_on_c, 0, 64, 72
3, 13725, Note_on_c, 0, 64, 0
3, 13728, Note_on_c, 0, 63, 72
3, 13773, Note_on_c, 0, 63, 0
3, 13776, Note_on_c, 0, 61, 72
3, 13821, Note_on_c, 0, 61, 0
3, 13872, Note_on_c, 0, 59, 72
3, 13917, Note_on_c, 0, 59, 0
3, 13920, Note_on_c, 0, 63, 72
3, 13965, Note_on_c, 0, 63, 0
3, 13968, Note_on_c, 0, 66, 72
3, 14013, Note_on_c, 0, 66, 0
3, 14064, Note_on_c, 0, 59, 72
3, 14109, Note_on_c, 0, 59, 0
3, 14112, Note_on_c, 0, 64, 72
3, 14157, Note_on_c, 0, 64, 0
3, 14160, Note_on_c, 0, 68, 72
3, 14205, Note_on_c, 0, 68, 0
3, 14256, Note_on_c, 0, 59, 72
3, 14301, Note_on_c, 0, 59, 0
3, 14304, Note_on_c, 0, 63, 72
3, 14349, Note_on_c, 0, 63, 0
3, 14352, Note_on_c, 0, 66, 72
3, 14397, Note_on_c, 0, 66, 0
3, 14448, Note_on_c, 0, 71, 66
3, 14448, Note_on_c, 0, 68, 66
3, 14493, Note_on_c, 0, 71, 0
3, 14493, Note_on_c, 0, 68, 0
3, 14496, Note_on_c, 0, 73, 66
3, 14496, Note_on_c, 0, 69, 66
3, 14541, Note_on_c, 0, 73, 0
3, 14541, Note_on_c, 0, 69, 0
3, 14544, Note_on_c, 0, 71, 66
3, 14544, Note_on_c, 0, 68, 66
3, 14589, Note_on_c, 0, 71, 0
3, 14589, Note_on_c, 0, 68, 0
3, 14640, Note_on_c, 0, 71, 66
3, 14640, Note_on_c, 0, 68, 66
3, 14685, Note_on_c, 0, 71, 0
3, 14685, Note_on_c, 0, 68, 0
3, 14688, Note_on_c, 0, 69, 66
3, 14688, Note_on_c, 0, 66, 66
3, 14733, Note_on_c, 0, 69, 0
3, 14733, Note_on_c, 0, 66, 0
3, 14736, Note_on_c, 0, 68, 66
3, 14736, Note_on_c, 0, 64, 66
3, 14781, Note_on_c, 0, 68, 0
3, 14781, Note_on_c, 0, 64, 0
3, 14784, Note_on_c, 0, 56, 66
3, 14807, Note_on_c, 0, 56, 0
3, 14808, Note_on_c, 0, 68, 66
3, 14831, Note_on_c, 0, 68, 0
3, 14832, Note_on_c, 0, 56, 66
3, 14855, Note_on_c, 0, 56, 0
3, 14856, Note_on_c, 0, 68, 66
3, 14879, Note_on_c, 0, 68, 0
3, 14880, Note_on_c, 0, 56, 66
3, 14903, Note_on_c, 0, 56, 0
3, 14904, Note_on_c, 0, 68, 66
3, 14927, Note_on_c, 0, 68, 0
3, 14928, Note_on_c, 0, 56, 66
3, 14951, Note_on_c, 0, 56, 0
3, 14952, Note_on_c, 0, 68, 66
3, 14975, Note_on_c, 0, 68, 0
3, 14976, Note_on_c, 0, 61, 66
3, 14999, Note_on_c, 0, 61, 0
3, 15000, Note_on_c, 0, 68, 66
3, 15023, Note_on_c, 0, 68, 0
3, 15024, Note_on_c, 0, 61, 66
3, 15047, Note_on_c, 0, 61, 0
3, 15048, Note_on_c, 0, 68, 66
3, 15071, Note_on_c, 0, 68, 0
3, 15072, Note_on_c, 0, 61, 66
3, 15095, Note_on_c, 0, 61, 0
3, 15096, Note_on_c, 0, 68, 66
3, 15119, Note_on_c, 0, 68, 0
3, 15120, Note_on_c, 0, 61, 66
3, 15143, Note_on_c, 0, 61, 0
3, 15144, Note_on_c, 0, 68, 66
3, 15167, Note_on_c, 0, 68, 0
3, 15168, Note_on_c, 0, 54, 66
3, 15191, Note_on_c, 0, 54, 0
3, 15192, Note_on_c, 0, 66, 66
3, 15215, Note_on_c, 0, 66, 0
3, 15216, Note_on_c, 0, 54, 66
3, 15239, Note_on_c, 0, 54, 0
3, 15240, Note_on_c, 0, 66, 66
3, 15263, Note_on_c, 0, 66, 0
3, 15264, Note_on_c, 0, 54, 66
3, 15287, Note_on_c, 0, 54, 0
3, 15288, Note_on_c, 0, 66, 66
3, 15311, Note_on_c, 0, 66, 0
3, 15312, Note_on_c, 0, 54, 66
3, 15335, Note_on_c, 0, 54, 0
3, 15336, Note_on_c, 0, 66, 66
3, 15359, Note_on_c, 0, 66, 0
3, 15360, Note_on_c, 0, 59, 66
3, 15383, Note_on_c, 0, 59, 0
3, 15384, Note_on_c, 0, 66, 66
3, 15407, Note_on_c, 0, 66, 0
3, 15408, Note_on_c, 0, 59, 66
3, 15431, Note_on_c, 0, 59, 0
3, 15432, Note_on_c, 0, 66, 66
3, 15455, Note_on_c, 0, 66, 0
3, 15456, Note_on_c, 0, 59, 66
3, 15479, Note_on_c, 0, 59, 0
3, 15480, Note_on_c, 0, 66, 66
3, 15503, Note_on_c, 0, 66, 0
3, 15504, Note_on_c, 0, 59, 66
3, 15527, Note_on_c, 0, 59, 0
3, 15528, Note_on_c, 0, 66, 66
3, 15551, Note_on_c, 0, 66, 0
3, 20928, Note_on_c, 0, 76, 85
3, 20973, Note_on_c, 0, 76, 0
3, 20976, Note_on_c, 0, 75, 85
3, 21021, Note_on_c, 0, 75, 0
3, 21888, Note_on_c, 0, 56, 72
3, 21911, Note_on_c, 0, 56, 0
3, 21912, Note_on_c, 0, 64, 72
3, 21935, Note_on_c, 0, 64, 0
3, 21936, Note_on_c, 0, 59, 72
3, 21959, Note_on_c, 0, 59, 0
3, 21960, Note_on_c, 0, 64, 72
3, 21983, Note_on_c, 0, 64, 0
3, 21984, Note_on_c, 0, 56, 72
3, 22007, Note_on_c, 0, 56, 0
3, 22008, Note_on_c, 0, 64, 72
3, 22031, Note_on_c, 0, 64, 0
3, 22032, Note_on_c, 0, 59, 72
3, 22055, Note_on_c, 0, 59, 0
3, 22056, Note_on_c, 0, 64, 72
3, 22079, Note_on_c, 0, 64, 0
3, 22080, Note_on_c, 0, 57, 72
3, 22103, Note_on_c, 0, 57, 0
3, 22104, Note_on_c, 0, 64, 72
3, 22127, Note_on_c, 0, 64, 0
3, 22128, Note_on_c, 0, 61, 72
3, 22151, Note_on_c, 0, 61, 0
3, 22152, Note_on_c, 0, 64, 72
3, 22175, Note_on_c, 0, 64, 0
3, 22176, Note_on_c, 0, 57, 72
3, 22199, Note_on_c, 0, 57, 0
3, 22200, Note_on_c, 0, 64, 72
3, 22223, Note_on_c, 0, 64, 0
3, 22224, Note_on_c, 0, 61, 72
3, 22247, Note_on_c, 0, 61, 0
3, 22248, Note_on_c, 0, 64, 72
3, 22271, Note_on_c, 0, 64, 0
3, 22272, Note_on_c, 0, 59, 72
3, 22295, Note_on_c, 0, 59, 0
3, 22296, Note_on_c, 0, 68, 72
3, 22319, Note_on_c, 0, 68, 0
3, 22320, Note_on_c, 0, 64, 72
3, 22343, Note_on_c, 0, 64, 0
3, 22344, Note_on_c, 0, 68, 72
3, 22367, Note_on_c, 0, 68, 0
3, 22368, Note_on_c, 0, 59, 72
3, 22391, Note_on_c, 0, 59, 0
3, 22392, Note_on_c, 0, 68, 72
3, 22415, Note_on_c, 0, 68, 0
3, 22416, Note_on_c, 0, 64, 72
3, 22439, Note_on_c, 0, 64, 0
3, 22440, Note_on_c, 0, 68, 72
3, 22463, Note_on_c, 0, 68, 0
3, 22464, Note_on_c, 0, 61, 72
3, 22487, Note_on_c, 0, 61, 0
3, 22488, Note_on_c, 0, 68, 72
3, 22511, Note_on_c, 0, 68, 0
3, 22512, Note_on_c, 0, 64, 72
3, 22535, Note_on_c, 0, 64, 0
3, 22536, Note_on_c, 0, 68, 72
3, 22559, Note_on_c, 0, 68, 0
3, 22560, Note_on_c, 0, 61, 72
3, 22583, Note_on_c, 0, 61, 0
3, 22584, Note_on_c, 0, 68, 72
3, 22607, Note_on_c, 0, 68, 0
3, 22608, Note_on_c, 0, 64, 72
3, 22631, Note_on_c, 0, 64, 0
3, 22632, Note_on_c, 0, 68, 72
3, 22655, Note_on_c, 0, 68, 0
3, 22656, Note_on_c, 0, 56, 72
3, 22679, Note_on_c, 0, 56, 0
3, 22680, Note_on_c, 0, 64, 72
3, 22703, Note_on_c, 0, 64, 0
3, 22704, Note_on_c, 0, 59, 72
3, 22727, Note_on_c, 0, 59, 0
3, 22728, Note_on_c, 0, 64, 72
3, 22751, Note_on_c, 0, 64, 0
3, 22752, Note_on_c, 0, 56, 72
3, 22775, Note_on_c, 0, 56, 0
3, 22776, Note_on_c, 0, 64, 72
3, 22799, Note_on_c, 0, 64, 0
3, 22800, Note_on_c, 0, 59, 72
3, 22823, Note_on_c, 0, 59, 0
3, 22824, Note_on_c, 0, 64, 72
3, 22847, Note_on_c, 0, 64, 0
3, 22848, Note_on_c, 0, 57, 72
3, 22871, Note_on_c, 0, 57, 0
3, 22872, Note_on_c, 0, 64, 72
3, 22895, Note_on_c, 0, 64, 0
3, 22896, Note_on_c, 0, 61, 72
3, 22919, Note_on_c, 0, 61, 0
3, 22920, Note_on_c, 0, 64, 72
3, 22943, Note_on_c, 0, 64, 0
3, 22944, Note_on_c, 0, 57, 72
3, 22967, Note_on_c, 0, 57, 0
3, 22968, Note_on_c, 0, 64, 72
3, 22991, Note_on_c, 0, 64, 0
3, 22992, Note_on_c, 0, 61, 72
3, 23015, Note_on_c, 0, 61, 0
3, 23016, Note_on_c, 0, 64, 72
3, 23039, Note_on_c, 0, 64, 0
3, 23040, Note_on_c, 0, 59, 72
3, 23063, Note_on_c, 0, 59, 0
3, 23064, Note_on_c, 0, 68, 72
3, 23087, Note_on_c, 0, 68, 0
3, 23088, Note_on_c, 0, 64, 72
3, 23111, Note_on_c, 0, 64, 0
3, 23112, Note_on_c, 0, 68, 72
3, 23135, Note_on_c, 0, 68, 0
3, 23136, Note_on_c, 0, 59, 72
3, 23159, Note_on_c, 0, 59, 0
3, 23160, Note_on_c, 0, 69, 72
3, 23183, Note_on_c, 0, 69, 0
3, 23184, Note_on_c, 0, 66, 72
3, 23207, Note_on_c, 0, 66, 0
3, 23208, Note_on_c, 0, 69, 72
3, 23231, Note_on_c, 0, 69, 0
3, 23232, Note_on_c, 0, 68, 72
3, 23232, Note_on_c, 0, 64, 72
3, 23321, Note_on_c, 0, 68, 0
3, 23321, Note_on_c, 0, 64, 0
3, 25968, Note_on_c, 0, 59, 72
3, 26013, Note_on_c, 0, 59, 0
3, 26016, Note_on_c, 0, 57, 72
3, 26061, Note_on_c, 0, 57, 0
3, 26064, Note_on_c, 0, 56, 72
3, 26109, Note_on_c, 0, 56, 0
3, 26112, Note_on_c, 0, 57, 72
3, 26201, Note_on_c, 0, 57, 0
3, 26352, Note_on_c, 0, 61, 72
3, 26397, Note_on_c, 0, 61, 0
3, 26400, Note_on_c, 0, 59, 72
3, 26445, Note_on_c, 0, 59, 0
3, 26448, Note_on_c, 0, 57, 72
3, 26493, Note_on_c, 0, 57, 0
3, 26544, Note_on_c, 0, 69, 72
3, 26544, Note_on_c, 0, 66, 72
3, 26589, Note_on_c, 0, 69, 0
3, 26589, Note_on_c, 0, 66, 0
3, 26592, Note_on_c, 0, 69, 72
3, 26592, Note_on_c, 0, 66, 72
3, 26637, Note_on_c, 0, 69, 0
3, 26637, Note_on_c, 0, 66, 0
3, 26640, Note_on_c, 0, 69, 72
3, 26640, Note_on_c, 0, 66, 72
3, 26685, Note_on_c, 0, 69, 0
3, 26685, Note_on_c, 0, 66, 0
3, 26736, Note_on_c, 0, 71, 72
3, 26736, Note_on_c, 0, 68, 72
3, 26781, Note_on_c, 0, 71, 0
3, 26781, Note_on_c, 0, 68, 0
3, 26784, Note_on_c, 0, 71, 72
3, 26784, Note_on_c, 0, 68, 72
3, 26829, Note_on_c, 0, 71, 0
3, 26829, Note_on_c, 0, 68, 0
3, 26832, Note_on_c, 0, 71, 72
3, 26832, Note_on_c, 0, 68, 72
3, 26877, Note_on_c, 0, 71, 0
3, 26877, Note_on_c, 0, 68, 0
3, 26880, Note_on_c, 0, 69, 72
3, 26925, Note_on_c, 0, 69, 0
3, 26928, Note_on_c, 0, 64, 72
3, 26973, Note_on_c, 0, 64, 0
3, 26976, Note_on_c, 0, 71, 72
3, 27021, Note_on_c, 0, 71, 0
3, 27024, Note_on_c, 0, 64, 72
3, 27069, Note_on_c, 0, 64, 0
3, 27072, Note_on_c, 0, 68, 72
3, 27117, Note_on_c, 0, 68, 0
3, 27120, Note_on_c, 0, 64, 72
3, 27165, Note_on_c, 0, 64, 0
3, 27168, Note_on_c, 0, 69, 72
3, 27213, Note_on_c, 0, 69, 0
3, 27216, Note_on_c, 0, 64, 72
3, 27261, Note_on_c, 0, 64, 0
3, 27264, Note_on_c, 0, 69, 72
3, 27309, Note_on_c, 0, 69, 0
3, 27312, Note_on_c, 0, 64, 72
3, 27357, Note_on_c, 0, 64, 0
3, 27360, Note_on_c, 0, 71, 72
3, 27405, Note_on_c, 0, 71, 0
3, 27408, Note_on_c, 0, 64, 72
3, 27453, Note_on_c, 0, 64, 0
3, 27456, Note_on_c, 0, 68, 72
3, 27501, Note_on_c, 0, 68, 0
3, 27504, Note_on_c, 0, 64, 72
3, 27549, Note_on_c, 0, 64, 0
3, 27552, Note_on_c, 0, 69, 73
3, 27597, Note_on_c, 0, 69, 0
3, 27600, Note_on_c, 0, 66, 73
3, 27645, Note_on_c, 0, 66, 0
3, 27648, Note_on_c, 0, 68, 74
3, 27693, Note_on_c, 0, 68, 0
3, 27696, Note_on_c, 0, 65, 75
3, 27741, Note_on_c, 0, 65, 0
3, 27744, Note_on_c, 0, 66, 75
3, 27789, Note_on_c, 0, 66, 0
3, 27792, Note_on_c, 0, 60, 76
3, 27837, Note_on_c, 0, 60, 0
3, 27840, Note_on_c, 0, 61, 76
3, 27929, Note_on_c, 0, 61, 0
3, 28272, Note_on_c, 0, 68, 78
3, 28317, Note_on_c, 0, 68, 0
3, 28320, Note_on_c, 0, 66, 78
3, 28365, Note_on_c, 0, 66, 0
3, 28368, Note_on_c, 0, 65, 78
3, 28413, Note_on_c, 0, 65, 0
3, 28416, Note_on_c, 0, 66, 78
3, 28505, Note_on_c, 0, 66, 0
3, 28656, Note_on_c, 0, 69, 78
3, 28701, Note_on_c, 0, 69, 0
3, 28704, Note_on_c, 0, 68, 78
3, 28749, Note_on_c, 0, 68, 0
3, 28752, Note_on_c, 0, 66, 78
3, 28797, Note_on_c, 0, 66, 0
3, 29040, Note_on_c, 0, 61, 78
3, 29085, Note_on_c, 0, 61, 0
3, 29088, Note_on_c, 0, 59, 78
3, 29133, Note_on_c, 0, 59, 0
3, 29136, Note_on_c, 0, 58, 78
3, 29181, Note_on_c, 0, 58, 0
3, 29184, Note_on_c, 0, 59, 78
3, 29273, Note_on_c, 0, 59, 0
3, 29424, Note_on_c, 0, 62, 78
3, 29469, Note_on_c, 0, 62, 0
3, 29472, Note_on_c, 0, 61, 78
3, 29517, Note_on_c, 0, 61, 0
3, 29520, Note_on_c, 0, 59, 78
3, 29565, Note_on_c, 0, 59, 0
3, 29808, Note_on_c, 0, 66, 78
3, 29853, Note_on_c, 0, 66, 0
3, 29856, Note_on_c, 0, 64, 78
3, 29901, Note_on_c, 0, 64, 0
3, 29904, Note_on_c, 0, 63, 78
3, 29949, Note_on_c, 0, 63, 0
3, 29952, Note_on_c, 0, 64, 78
3, 30041, Note_on_c, 0, 64, 0
3, 30192, Note_on_c, 0, 68, 78
3, 30237, Note_on_c, 0, 68, 0
3, 30240, Note_on_c, 0, 66, 78
3, 30285, Note_on_c, 0, 66, 0
3, 30288, Note_on_c, 0, 64, 78
3, 30333, Note_on_c, 0, 64, 0
3, 30576, Note_on_c, 0, 59, 78
3, 30621, Note_on_c, 0, 59, 0
3, 30624, Note_on_c, 0, 57, 78
3, 30669, Note_on_c, 0, 57, 0
3, 30672, Note_on_c, 0, 56, 78
3, 30717, Note_on_c, 0, 56, 0
3, 30720, Note_on_c, 0, 57, 78
3, 30809, Note_on_c, 0, 57, 0
3, 30960, Note_on_c, 0, 61, 78
3, 31005, Note_on_c, 0, 61, 0
3, 31008, Note_on_c, 0, 59, 78
3, 31053, Note_on_c, 0, 59, 0
3, 31056, Note_on_c, 0, 57, 78
3, 31101, Note_on_c, 0, 57, 0
3, 31104, Note_on_c, 0, 62, 72
3, 31127, Note_on_c, 0, 62, 0
3, 31128, Note_on_c, 0, 69, 72
3, 31151, Note_on_c, 0, 69, 0
3, 31152, Note_on_c, 0, 66, 72
3, 31175, Note_on_c, 0, 66, 0
3, 31176, Note_on_c, 0, 69, 72
3, 31199, Note_on_c, 0, 69, 0
3, 31200, Note_on_c, 0, 61, 72
3, 31223, Note_on_c, 0, 61, 0
3, 31224, Note_on_c, 0, 69, 72
3, 31247, Note_on_c, 0, 69, 0
3, 31248, Note_on_c, 0, 64, 72
3, 31271, Note_on_c, 0, 64, 0
3, 31272, Note_on_c, 0, 69, 72
3, 31295, Note_on_c, 0, 69, 0
3, 31296, Note_on_c, 0, 59, 72
3, 31319, Note_on_c, 0, 59, 0
3, 31320, Note_on_c, 0, 68, 72
3, 31343, Note_on_c, 0, 68, 0
3, 31344, Note_on_c, 0, 62, 72
3, 31367, Note_on_c, 0, 62, 0
3, 31368, Note_on_c, 0, 68, 72
3, 31391, Note_on_c, 0, 68, 0
3, 31392, Note_on_c, 0, 57, 72
3, 31415, Note_on_c, 0, 57, 0
3, 31416, Note_on_c, 0, 64, 72
3, 31439, Note_on_c, 0, 64, 0
3, 31440, Note_on_c, 0, 61, 72
3, 31463, Note_on_c, 0, 61, 0
3, 31464, Note_on_c, 0, 64, 72
3, 31487, Note_on_c, 0, 64, 0
3, 31488, Note_on_c, 0, 62, 72
3, 31511, Note_on_c, 0, 62, 0
3, 31512, Note_on_c, 0, 69, 72
3, 31535, Note_on_c, 0, 69, 0
3, 31536, Note_on_c, 0, 66, 72
3, 31559, Note_on_c, 0, 66, 0
3, 31560, Note_on_c, 0, 69, 72
3, 31583, Note_on_c, 0, 69, 0
3, 31584, Note_on_c, 0, 61, 72
3, 31607, Note_on_c, 0, 61, 0
3, 31608, Note_on_c, 0, 69, 72
3, 31631, Note_on_c, 0, 69, 0
3, 31632, Note_on_c, 0, 64, 72
3, 31655, Note_on_c, 0, 64, 0
3, 31656, Note_on_c, 0, 69, 72
3, 31679, Note_on_c, 0, 69, 0
3, 31680, Note_on_c, 0, 59, 72
3, 31703, Note_on_c, 0, 59, 0
3, 31704, Note_on_c, 0, 68, 72
3, 31727, Note_on_c, 0, 68, 0
3, 31728, Note_on_c, 0, 62, 72
3, 31751, Note_on_c, 0, 62, 0
3, 31752, Note_on_c, 0, 68, 72
3, 31775, Note_on_c, 0, 68, 0
3, 31776, Note_on_c, 0, 57, 72
3, 31799, Note_on_c, 0, 57, 0
3, 31800, Note_on_c, 0, 64, 72
3, 31823, Note_on_c, 0, 64, 0
3, 31824, Note_on_c, 0, 61, 72
3, 31847, Note_on_c, 0, 61, 0
3, 31848, Note_on_c, 0, 64, 72
3, 31871, Note_on_c, 0, 64, 0
3, 36096, Note_on_c, 0, 69, 72
3, 36144, Note_on_c, 0, 69, 0
3, 36144, Note_on_c, 0, 68, 72
3, 36189, Note_on_c, 0, 68, 0
3, 41136, Note_on_c, 0, 59, 72
3, 41181, Note_on_c, 0, 59, 0
3, 41184, Note_on_c, 0, 57, 72
3, 41229, Note_on_c, 0, 57, 0
3, 41232, Note_on_c, 0, 56, 72
3, 41277, Note_on_c, 0, 56, 0
3, 41280, Note_on_c, 0, 57, 72
3, 41369, Note_on_c, 0, 57, 0
3, 41520, Note_on_c, 0, 61, 72
3, 41565, Note_on_c, 0, 61, 0
3, 41568, Note_on_c, 0, 59, 72
3, 41613, Note_on_c, 0, 59, 0
3, 41616, Note_on_c, 0, 57, 72
3, 41661, Note_on_c, 0, 57, 0
3, 41712, Note_on_c, 0, 69, 72
3, 41712, Note_on_c, 0, 66, 72
3, 41757, Note_on_c, 0, 69, 0
3, 41757, Note_on_c, 0, 66, 0
3, 41760, Note_on_c, 0, 69, 72
3, 41760, Note_on_c, 0, 66, 72
3, 41805, Note_on_c, 0, 69, 0
3, 41805, Note_on_c, 0, 66, 0
3, 41808, Note_on_c, 0, 69, 72
3, 41808, Note_on_c, 0, 66, 72
3, 41853, Note_on_c, 0, 69, 0
3, 41853, Note_on_c, 0, 66, 0
3, 41904, Note_on_c, 0, 71, 72
3, 41904, Note_on_c, 0, 68, 72
3, 41949, Note_on_c, 0, 71, 0
3, 41949, Note_on_c, 0, 68, 0
3, 41952, Note_on_c, 0, 71, 72
3, 41952, Note_on_c, 0, 68, 72
3, 41997, Note_on_c, 0, 71, 0
3, 41997, Note_on_c, 0, 68, 0
3, 42000, Note_on_c, 0, 71, 72
3, 42000, Note_on_c, 0, 68, 72
3, 42045, Note_on_c, 0, 71, 0
3, 42045, Note_on_c, 0, 68, 0
3, 42048, Note_on_c, 0, 69, 72
3, 42093, Note_on_c, 0, 69, 0
3, 42096, Note_on_c, 0, 64, 72
3, 42141, Note_on_c, 0, 64, 0
3, 42144, Note_on_c, 0, 71, 72
3, 42189, Note_on_c, 0, 71, 0
3, 42192, Note_on_c, 0, 64, 72
3, 42237, Note_on_c, 0, 64, 0
3, 42240, Note_on_c, 0, 68, 72
3, 42285, Note_on_c, 0, 68, 0
3, 42288, Note_on_c, 0, 64, 72
3, 42333, Note_on_c, 0, 64, 0
3, 42336, Note_on_c, 0, 69, 72
3, 42381, Note_on_c, 0, 69, 0
3, 42384, Note_on_c, 0, 64, 72
3, 42429, Note_on_c, 0, 64, 0
3, 42432, Note_on_c, 0, 69, 72
3, 42477, Note_on_c, 0, 69, 0
3, 42480, Note_on_c, 0, 64, 72
3, 42525, Note_on_c, 0, 64, 0
3, 42528, Note_on_c, 0, 71, 72
3, 42573, Note_on_c, 0, 71, 0
3, 42576, Note_on_c, 0, 64, 72
3, 42621, Note_on_c, 0, 64, 0
3, 42624, Note_on_c, 0, 68, 72
3, 42669, Note_on_c, 0, 68, 0
3, 42672, Note_on_c, 0, 64, 72
3, 42717, Note_on_c, 0, 64, 0
3, 42720, Note_on_c, 0, 69, 73
3, 42765, Note_on_c, 0, 69, 0
3, 42768, Note_on_c, 0, 66, 73
3, 42813, Note_on_c, 0, 66, 0
3, 42816, Note_on_c, 0, 68, 74
3, 42861, Note_on_c, 0, 68, 0
3, 42864, Note_on_c, 0, 65, 75
3, 42909, Note_on_c, 0, 65, 0
3, 42912, Note_on_c, 0, 66, 75
3, 42957, Note_on_c, 0, 66, 0
3, 42960, Note_on_c, 0, 60, 76
3, 43005, Note_on_c, 0, 60, 0
3, 43008, Note_on_c, 0, 61, 76
3, 43097, Note_on_c, 0, 61, 0
3, 43440, Note_on_c, 0, 68, 78
3, 43485, Note_on_c, 0, 68, 0
3, 43488, Note_on_c, 0, 66, 78
3, 43533, Note_on_c, 0, 66, 0
3, 43536, Note_on_c, 0, 65, 78
3, 43581, Note_on_c, 0, 65, 0
3, 43584, Note_on_c, 0, 66, 78
3, 43673, Note_on_c, 0, 66, 0
3, 43824, Note_on_c, 0, 69, 78
3, 43869, Note_on_c, 0, 69, 0
3, 43872, Note_on_c, 0, 68, 78
3, 43917, Note_on_c, 0, 68, 0
3, 43920, Note_on_c, 0, 66, 78
3, 43965, Note_on_c, 0, 66, 0
3, 44208, Note_on_c, 0, 61, 78
3, 44253, Note_on_c, 0, 61, 0
3, 44256, Note_on_c, 0, 59, 78
3, 44301, Note_on_c, 0, 59, 0
3, 44304, Note_on_c, 0, 58, 78
3, 44349, Note_on_c, 0, 58, 0
3, 44352, Note_on_c, 0, 59, 78
3, 44441, Note_on_c, 0, 59, 0
3, 44592, Note_on_c, 0, 62, 78
3, 44637, Note_on_c, 0, 62, 0
3, 44640, Note_on_c, 0, 61, 78
3, 44685, Note_on_c, 0, 61, 0
3, 44688, Note_on_c, 0, 59, 78
3, 44733, Note_on_c, 0, 59, 0
3, 44976, Note_on_c, 0, 66, 78
3, 45021, Note_on_c, 0, 66, 0
3, 45024, Note_on_c, 0, 64, 78
3, 45069, Note_on_c, 0, 64, 0
3, 45072, Note_on_c, 0, 63, 78
3, 45117, Note_on_c, 0, 63, 0
3, 45120, Note_on_c, 0, 64, 78
3, 45209, Note_on_c, 0, 64, 0
3, 45360, Note_on_c, 0, 68, 78
3, 45405, Note_on_c, 0, 68, 0
3, 45408, Note_on_c, 0, 66, 78
3, 45453, Note_on_c, 0, 66, 0
3, 45456, Note_on_c, 0, 64, 78
3, 45501, Note_on_c, 0, 64, 0
3, 45744, Note_on_c, 0, 59, 78
3, 45789, Note_on_c, 0, 59, 0
3, 45792, Note_on_c, 0, 57, 78
3, 45837, Note_on_c, 0, 57, 0
3, 45840, Note_on_c, 0, 56, 78
3, 45885, Note_on_c, 0, 56, 0
3, 45888, Note_on_c, 0, 57, 78
3, 45977, Note_on_c, 0, 57, 0
3, 46128, Note_on_c, 0, 61, 78
3, 46173, Note_on_c, 0, 61, 0
3, 46176, Note_on_c, 0, 59, 78
3, 46221, Note_on_c, 0, 59, 0
3, 46224, Note_on_c, 0, 57, 78
3, 46269, Note_on_c, 0, 57, 0
3, 46272, Note_on_c, 0, 62, 72
3, 46295, Note_on_c, 0, 62, 0
3, 46296, Note_on_c, 0, 69, 72
3, 46319, Note_on_c, 0, 69, 0
3, 46320, Note_on_c, 0, 66, 72
3, 46343, Note_on_c, 0, 66, 0
3, 46344, Note_on_c, 0, 69, 72
3, 46367, Note_on_c, 0, 69, 0
3, 46368, Note_on_c, 0, 61, 72
3, 46391, Note_on_c, 0, 61, 0
3, 46392, Note_on_c, 0, 69, 72
3, 46415, Note_on_c, 0, 69, 0
3, 46416, Note_on_c, 0, 64, 72
3, 46439, Note_on_c, 0, 64, 0
3, 46440, Note_on_c, 0, 69, 72
3, 46463, Note_on_c, 0, 69, 0
3, 46464, Note_on_c, 0, 59, 72
3, 46487, Note_on_c, 0, 59, 0
3, 46488, Note_on_c, 0, 68, 72
3, 46511, Note_on_c, 0, 68, 0
3, 46512, Note_on_c, 0, 62, 72
3, 46535, Note_on_c, 0, 62, 0
3, 46536, Note_on_c, 0, 68, 72
3, 46559, Note_on_c, 0, 68, 0
3, 46560, Note_on_c, 0, 57, 72
3, 46583, Note_on_c, 0, 57, 0
3, 46584, Note_on_c, 0, 64, 72
3, 46607, Note_on_c, 0, 64, 0
3, 46608, Note_on_c, 0, 61, 72
3, 46631, Note_on_c, 0, 61, 0
3, 46632, Note_on_c, 0, 64, 72
3, 46655, Note_on_c, 0, 64, 0
3, 46656, Note_on_c, 0, 62, 72
3, 46679, Note_on_c, 0, 62, 0
3, 46680, Note_on_c, 0, 69, 72
3, 46703, Note_on_c, 0, 69, 0
3, 46704, Note_on_c, 0, 66, 72
3, 46727, Note_on_c, 0, 66, 0
3, 46728, Note_on_c, 0, 69, 72
3, 46751, Note_on_c, 0, 69, 0
3, 46752, Note_on_c, 0, 61, 72
3, 46775, Note_on_c, 0, 61, 0
3, 46776, Note_on_c, 0, 69, 72
3, 46799, Note_on_c, 0, 69, 0
3, 46800, Note_on_c, 0, 64, 72
3, 46823, Note_on_c, 0, 64, 0
3, 46824, Note_on_c, 0, 69, 72
3, 46847, Note_on_c, 0, 69, 0
3, 46848, Note_on_c, 0, 59, 72
3, 46871, Note_on_c, 0, 59, 0
3, 46872, Note_on_c, 0, 68, 72
3, 46895, Note_on_c, 0, 68, 0
3, 46896, Note_on_c, 0, 62, 72
3, 46919, Note_on_c, 0, 62, 0
3, 46920, Note_on_c, 0, 68, 72
3, 46943, Note_on_c, 0, 68, 0
3, 46944, Note_on_c, 0, 57, 72
3, 46967, Note_on_c, 0, 57, 0
3, 46968, Note_on_c, 0, 64, 72
3, 46991, Note_on_c, 0, 64, 0
3, 46992, Note_on_c, 0, 61, 72
3, 47015, Note_on_c, 0, 61, 0
3, 47016, Note_on_c, 0, 64, 72
3, 47039, Note_on_c, 0, 64, 0
3, 51264, Note_on_c, 0, 69, 72
3, 51312, Note_on_c, 0, 69, 0
3, 51312, Note_on_c, 0, 68, 72
3, 51357, Note_on_c, 0, 68, 0
3, 54336, End_track
4, 0, Start_track
4, 0, Program_c, 0, 0
4, 0, Control_c, 0, 7, 127
4, 0, Control_c, 0, 10, 64
4, 0, Note_on_c, 0, 61, 66
4, 0, Note_on_c, 0, 57, 66
4, 45, Note_on_c, 0, 61, 0
4, 45, Note_on_c, 0, 57, 0
4, 48, Note_on_c, 0, 61, 66
4, 48, Note_on_c, 0, 57, 66
4, 93, Note_on_c, 0, 61, 0
4, 93, Note_on_c, 0, 57, 0
4, 96, Note_on_c, 0, 61, 66
4, 96, Note_on_c, 0, 57, 66
4, 141, Note_on_c, 0, 61, 0
4, 141, Note_on_c, 0, 57, 0
4, 144, Note_on_c, 0, 61, 66
4, 144, Note_on_c, 0, 57, 66
4, 189, Note_on_c, 0, 61, 0
4, 189, Note_on_c, 0, 57, 0
4, 192, Note_on_c, 0, 62, 66
4, 192, Note_on_c, 0, 57, 66
4, 237, Note_on_c, 0, 62, 0
4, 237, Note_on_c, 0, 57, 0
4, 240, Note_on_c, 0, 61, 66
4, 240, Note_on_c, 0, 57, 66
4, 285, Note_on_c, 0, 61, 0
4, 285, Note_on_c, 0, 57, 0
4, 288, Note_on_c, 0, 61, 66
4, 288, Note_on_c, 0, 57, 66
4, 333, Note_on_c, 0, 61, 0
4, 333, Note_on_c, 0, 57, 0
4, 336, Note_on_c, 0, 61, 66
4, 336, Note_on_c, 0, 57, 66
4, 381, Note_on_c, 0, 61, 0
4, 381, Note_on_c, 0, 57, 0
4, 432, Note_on_c, 0, 59, 66
4, 432, Note_on_c, 0, 52, 66
4, 477, Note_on_c, 0, 59, 0
4, 477, Note_on_c, 0, 52, 0
4, 480, Note_on_c, 0, 57, 66
4, 480, Note_on_c, 0, 52, 66
4, 525, Note_on_c, 0, 57, 0
4, 525, Note_on_c, 0, 52, 0
4, 528, Note_on_c, 0, 56, 66
4, 528, Note_on_c, 0, 52, 66
4, 573, Note_on_c, 0, 56, 0
4, 573, Note_on_c, 0, 52, 0
4, 624, Note_on_c, 0, 61, 66
4, 624, Note_on_c, 0, 57, 66
4, 669, Note_on_c, 0, 61, 0
4, 669, Note_on_c, 0, 57, 0
4, 672, Note_on_c, 0, 64, 66
4, 672, Note_on_c, 0, 61, 66
4, 717, Note_on_c, 0, 64, 0
4, 717, Note_on_c, 0, 61, 0
4, 720, Note_on_c, 0, 61, 66
4, 720, Note_on_c, 0, 57, 66
4, 765, Note_on_c, 0, 61, 0
4, 765, Note_on_c, 0, 57, 0
4, 816, Note_on_c, 0, 59, 66
4, 816, Note_on_c, 0, 52, 66
4, 861, Note_on_c, 0, 59, 0
4, 861, Note_on_c, 0, 52, 0
4, 864, Note_on_c, 0, 57, 66
4, 864, Note_on_c, 0, 52, 66
4, 909, Note_on_c, 0, 57, 0
4, 909, Note_on_c, 0, 52, 0
4, 912, Note_on_c, 0, 56, 66
4, 912, Note_on_c, 0, 52, 66
4, 957, Note_on_c, 0, 56, 0
4, 957, Note_on_c, 0, 52, 0
4, 1008, Note_on_c, 0, 61, 66
4, 1008, Note_on_c, 0, 57, 66
4, 1053, Note_on_c, 0, 61, 0
4, 1053, Note_on_c, 0, 57, 0
4, 1056, Note_on_c, 0, 64, 66
4, 1056, Note_on_c, 0, 61, 66
4, 1101, Note_on_c, 0, 64, 0
4, 1101, Note_on_c, 0, 61, 0
4, 1104, Note_on_c, 0, 61, 66
4, 1104, Note_on_c, 0, 57, 66
4, 1149, Note_on_c, 0, 61, 0
4, 1149, Note_on_c, 0, 57, 0
4, 3648, Note_on_c, 0, 47, 66
4, 3671, Note_on_c, 0, 47, 0
4, 3672, Note_on_c, 0, 59, 66
4, 3695, Note_on_c, 0, 59, 0
4, 3696, Note_on_c, 0, 47, 66
4, 3719, Note_on_c, 0, 47, 0
4, 3720, Note_on_c, 0, 59, 66
4, 3743, Note_on_c, 0, 59, 0
4, 3744, Note_on_c, 0, 47, 66
4, 3767, Note_on_c, 0, 47, 0
4, 3768, Note_on_c, 0, 59, 66
4, 3791, Note_on_c, 0, 59, 0
4, 3792, Note_on_c, 0, 47, 66
4, 3815, Note_on_c, 0, 47, 0
4, 3816, Note_on_c, 0, 59, 66
4, 3839, Note_on_c, 0, 59, 0
4, 3840, Note_on_c, 0, 52, 66
4, 3863, Note_on_c, 0, 52, 0
4, 3864, Note_on_c, 0, 59, 66
4, 3887, Note_on_c, 0, 59, 0
4, 3888, Note_on_c, 0, 52, 66
4, 3911, Note_on_c, 0, 52, 0
4, 3912, Note_on_c, 0, 59, 66
4, 3935, Note_on_c, 0, 59, 0
4, 3936, Note_on_c, 0, 52, 66
4, 3959, Note_on_c, 0, 52, 0
4, 3960, Note_on_c, 0, 59, 66
4, 3983, Note_on_c, 0, 59, 0
4, 3984, Note_on_c, 0, 52, 66
4, 4007, Note_on_c, 0, 52, 0
4, 4008, Note_on_c, 0, 59, 66
4, 4031, Note_on_c, 0, 59, 0
4, 4032, Note_on_c, 0, 57, 66
4, 4055, Note_on_c, 0, 57, 0
4, 4056, Note_on_c, 0, 64, 66
4, 4079, Note_on_c, 0, 64, 0
4, 4080, Note_on_c, 0, 57, 66
4, 4103, Note_on_c, 0, 57, 0
4, 4104, Note_on_c, 0, 64, 66
4, 4127, Note_on_c, 0, 64, 0
4, 4128, Note_on_c, 0, 56, 66
4, 4151, Note_on_c, 0, 56, 0
4, 4152, Note_on_c, 0, 64, 66
4, 4175, Note_on_c, 0, 64, 0
4, 4176, Note_on_c, 0, 56, 66
4, 4199, Note_on_c, 0, 56, 0
4, 4200, Note_on_c, 0, 64, 66
4, 4223, Note_on_c, 0, 64, 0
4, 4224, Note_on_c, 0, 54, 66
4, 4247, Note_on_c, 0, 54, 0
4, 4248, Note_on_c, 0, 63, 66
4, 4271, Note_on_c, 0, 63, 0
4, 4272, Note_on_c, 0, 57, 66
4, 4295, Note_on_c, 0, 57, 0
4, 4296, Note_on_c, 0, 63, 66
4, 4319, Note_on_c, 0, 63, 0
4, 4320, Note_on_c, 0, 52, 66
4, 4343, Note_on_c, 0, 52, 0
4, 4344, Note_on_c, 0, 59, 66
4, 4367, Note_on_c, 0, 59, 0
4, 4368, Note_on_c, 0, 56, 66
4, 4391, Note_on_c, 0, 56, 0
4, 4392, Note_on_c, 0, 59, 66
4, 4415, Note_on_c, 0, 59, 0
4, 4416, Note_on_c, 0, 57, 66
4, 4439, Note_on_c, 0, 57, 0
4, 4440, Note_on_c, 0, 64, 66
4, 4463, Note_on_c, 0, 64, 0
4, 4464, Note_on_c, 0, 57, 66
4, 4487, Note_on_c, 0, 57, 0
4, 4488, Note_on_c, 0, 64, 66
4, 4511, Note_on_c, 0, 64, 0
4, 4512, Note_on_c, 0, 56, 66
4, 4535, Note_on_c, 0, 56, 0
4, 4536, Note_on_c, 0, 64, 66
4, 4559, Note_on_c, 0, 64, 0
4, 4560, Note_on_c, 0, 56, 66
4, 4583, Note_on_c, 0, 56, 0
4, 4584, Note_on_c, 0, 64, 66
4, 4607, Note_on_c, 0, 64, 0
4, 4608, Note_on_c, 0, 54, 66
4, 4631, Note_on_c, 0, 54, 0
4, 4632, Note_on_c, 0, 63, 66
4, 4655, Note_on_c, 0, 63, 0
4, 4656, Note_on_c, 0, 57, 66
4, 4679, Note_on_c, 0, 57, 0
4, 4680, Note_on_c, 0, 63, 66
4, 4703, Note_on_c, 0, 63, 0
4, 4704, Note_on_c, 0, 52, 66
4, 4727, Note_on_c, 0, 52, 0
4, 4728, Note_on_c, 0, 59, 66
4, 4751, Note_on_c, 0, 59, 0
4, 4752, Note_on_c, 0, 56, 66
4, 4775, Note_on_c, 0, 56, 0
4, 4776, Note_on_c, 0, 59, 66
4, 4799, Note_on_c, 0, 59, 0
4, 4800, Note_on_c, 0, 47, 66
4, 4823, Note_on_c, 0, 47, 0
4, 4824, Note_on_c, 0, 59, 66
4, 4847, Note_on_c, 0, 59, 0
4, 4848, Note_on_c, 0, 51, 60
4, 4871, Note_on_c, 0, 51, 0
4, 4872, Note_on_c, 0, 59, 60
4, 4895, Note_on_c, 0, 59, 0
4, 4896, Note_on_c, 0, 47, 61
4, 4919, Note_on_c, 0, 47, 0
4, 4920, Note_on_c, 0, 59, 61
4, 4943, Note_on_c, 0, 59, 0
4, 4944, Note_on_c, 0, 51, 62
4, 4967, Note_on_c, 0, 51, 0
4, 4968, Note_on_c, 0, 59, 62
4, 4991, Note_on_c, 0, 59, 0
4, 4992, Note_on_c, 0, 47, 63
4, 5015, Note_on_c, 0, 47, 0
4, 5016, Note_on_c, 0, 59, 64
4, 5039, Note_on_c, 0, 59, 0
4, 5040, Note_on_c, 0, 52, 64
4, 5063, Note_on_c, 0, 52, 0
4, 5064, Note_on_c, 0, 59, 65
4, 5087, Note_on_c, 0, 59, 0
4, 5088, Note_on_c, 0, 47, 65
4, 5111, Note_on_c, 0, 47, 0
4, 5112, Note_on_c, 0, 59, 66
4, 5135, Note_on_c, 0, 59, 0
4, 5136, Note_on_c, 0, 52, 66
4, 5159, Note_on_c, 0, 52, 0
4, 5160, Note_on_c, 0, 59, 67
4, 5183, Note_on_c, 0, 59, 0
4, 5184, Note_on_c, 0, 47, 68
4, 5207, Note_on_c, 0, 47, 0
4, 5208, Note_on_c, 0, 59, 68
4, 5231, Note_on_c, 0, 59, 0
4, 5232, Note_on_c, 0, 54, 69
4, 5255, Note_on_c, 0, 54, 0
4, 5256, Note_on_c, 0, 59, 69
4, 5279, Note_on_c, 0, 59, 0
4, 5280, Note_on_c, 0, 47, 70
4, 5303, Note_on_c, 0, 47, 0
4, 5304, Note_on_c, 0, 59, 71
4, 5327, Note_on_c, 0, 59, 0
4, 5328, Note_on_c, 0, 54, 71
4, 5351, Note_on_c, 0, 54, 0
4, 5352, Note_on_c, 0, 59, 72
4, 5375, Note_on_c, 0, 59, 0
4, 5376, Note_on_c, 0, 47, 72
4, 5399, Note_on_c, 0, 47, 0
4, 5400, Note_on_c, 0, 59, 73
4, 5423, Note_on_c, 0, 59, 0
4, 5424, Note_on_c, 0, 54, 73
4, 5447, Note_on_c, 0, 54, 0
4, 5448, Note_on_c, 0, 59, 74
4, 5471, Note_on_c, 0, 59, 0
4, 5472, Note_on_c, 0, 47, 75
4, 5495, Note_on_c, 0, 47, 0
4, 5496, Note_on_c, 0, 59, 75
4, 5519, Note_on_c, 0, 59, 0
4, 5520, Note_on_c, 0, 54, 76
4, 5543, Note_on_c, 0, 54, 0
4, 5544, Note_on_c, 0, 59, 76
4, 5567, Note_on_c, 0, 59, 0
4, 5568, Note_on_c, 0, 52, 77
4, 5591, Note_on_c, 0, 52, 0
4, 5592, Note_on_c, 0, 59, 78
4, 5615, Note_on_c, 0, 59, 0
4, 5616, Note_on_c, 0, 56, 78
4, 5639, Note_on_c, 0, 56, 0
4, 5640, Note_on_c, 0, 59, 78
4, 5663, Note_on_c, 0, 59, 0
4, 5664, Note_on_c, 0, 51, 78
4, 5687, Note_on_c, 0, 51, 0
4, 5688, Note_on_c, 0, 59, 78
4, 5711, Note_on_c, 0, 59, 0
4, 5712, Note_on_c, 0, 54, 78
4, 5735, Note_on_c, 0, 54, 0
4, 5736, Note_on_c, 0, 59, 78
4, 5759, Note_on_c, 0, 59, 0
4, 5760, Note_on_c, 0, 52, 78
4, 5783, Note_on_c, 0, 52, 0
4, 5784, Note_on_c, 0, 59, 78
4, 5807, Note_on_c, 0, 59, 0
4, 5808, Note_on_c, 0, 56, 78
4, 5831, Note_on_c, 0, 56, 0
4, 5832, Note_on_c, 0, 59, 78
4, 5855, Note_on_c, 0, 59, 0
4, 5856, Note_on_c, 0, 54, 78
4, 5879, Note_on_c, 0, 54, 0
4, 5880, Note_on_c, 0, 59, 78
4, 5903, Note_on_c, 0, 59, 0
4, 5904, Note_on_c, 0, 57, 78
4, 5927, Note_on_c, 0, 57, 0
4, 5928, Note_on_c, 0, 59, 78
4, 5951, Note_on_c, 0, 59, 0
4, 5952, Note_on_c, 0, 52, 78
4, 5975, Note_on_c, 0, 52, 0
4, 5976, Note_on_c, 0, 59, 78
4, 5999, Note_on_c, 0, 59, 0
4, 6000, Note_on_c, 0, 56, 78
4, 6023, Note_on_c, 0, 56, 0
4, 6024, Note_on_c, 0, 59, 78
4, 6047, Note_on_c, 0, 59, 0
4, 6048, Note_on_c, 0, 51, 78
4, 6071, Note_on_c, 0, 51, 0
4, 6072, Note_on_c, 0, 59, 78
4, 6095, Note_on_c, 0, 59, 0
4, 6096, Note_on_c, 0, 54, 78
4, 6119, Note_on_c, 0, 54, 0
4, 6120, Note_on_c, 0, 59, 78
4, 6143, Note_on_c, 0, 59, 0
4, 6144, Note_on_c, 0, 52, 78
4, 6167, Note_on_c, 0, 52, 0
4, 6168, Note_on_c, 0, 59, 78
4, 6191, Note_on_c, 0, 59, 0
4, 6192, Note_on_c, 0, 56, 78
4, 6215, Note_on_c, 0, 56, 0
4, 6216, Note_on_c, 0, 59, 78
4, 6239, Note_on_c, 0, 59, 0
4, 6240, Note_on_c, 0, 54, 78
4, 6263, Note_on_c, 0, 54, 0
4, 6264, Note_on_c, 0, 59, 78
4, 6287, Note_on_c, 0, 59, 0
4, 6288, Note_on_c, 0, 57, 78
4, 6311, Note_on_c, 0, 57, 0
4, 6312, Note_on_c, 0, 59, 78
4, 6335, Note_on_c, 0, 59, 0
4, 6336, Note_on_c, 0, 56, 78
4, 6425, Note_on_c, 0, 56, 0
4, 6528, Note_on_c, 0, 57, 78
4, 6617, Note_on_c, 0, 57, 0
4, 6720, Note_on_c, 0, 56, 78
4, 6720, Note_on_c, 0, 47, 78
4, 6765, Note_on_c, 0, 56, 0
4, 6765, Note_on_c, 0, 47, 0
4, 6768, Note_on_c, 0, 56, 78
4, 6768, Note_on_c, 0, 47, 78
4, 6813, Note_on_c, 0, 56, 0
4, 6813, Note_on_c, 0, 47, 0
4, 6816, Note_on_c, 0, 54, 78
4, 6816, Note_on_c, 0, 47, 78
4, 6861, Note_on_c, 0, 54, 0
4, 6861, Note_on_c, 0, 47, 0
4, 6864, Note_on_c, 0, 54, 78
4, 6864, Note_on_c, 0, 47, 78
4, 6909, Note_on_c, 0, 54, 0
4, 6909, Note_on_c, 0, 47, 0
4, 6912, Note_on_c, 0, 52, 78
4, 6912, Note_on_c, 0, 40, 78
4, 7001, Note_on_c, 0, 52, 0
4, 7001, Note_on_c, 0, 40, 0
4, 7152, Note_on_c, 0, 52, 66
4, 7152, Note_on_c, 0, 40, 66
4, 7197, Note_on_c, 0, 52, 0
4, 7197, Note_on_c, 0, 40, 0
4, 7200, Note_on_c, 0, 55, 66
4, 7200, Note_on_c, 0, 43, 66
4, 7245, Note_on_c, 0, 55, 0
4, 7245, Note_on_c, 0, 43, 0
4, 7248, Note_on_c, 0, 52, 66
4, 7248, Note_on_c, 0, 40, 66
4, 7293, Note_on_c, 0, 52, 0
4, 7293, Note_on_c, 0, 40, 0
4, 7344, Note_on_c, 0, 59, 66
4, 7344, Note_on_c, 0, 47, 66
4, 7389, Note_on_c, 0, 59, 0
4, 7389, Note_on_c, 0, 47, 0
4, 7392, Note_on_c, 0, 63, 66
4, 7392, Note_on_c, 0, 51, 66
4, 7437, Note_on_c, 0, 63, 0
4, 7437, Note_on_c, 0, 51, 0
4, 7440, Note_on_c, 0, 59, 66
4, 7440, Note_on_c, 0, 47, 66
4, 7485, Note_on_c, 0, 59, 0
4, 7485, Note_on_c, 0, 47, 0
4, 7536, Note_on_c, 0, 59, 66
4, 7536, Note_on_c, 0, 47, 66
4, 7581, Note_on_c, 0, 59, 0
4, 7581, Note_on_c, 0, 47, 0
4, 7584, Note_on_c, 0, 63, 66
4, 7584, Note_on_c, 0, 51, 66
4, 7629, Note_on_c, 0, 63, 0
4, 7629, Note_on_c, 0, 51, 0
4, 7632, Note_on_c, 0, 59, 66
4, 7632, Note_on_c, 0, 47, 66
4, 7677, Note_on_c, 0, 59, 0
4, 7677, Note_on_c, 0, 47, 0
4, 7728, Note_on_c, 0, 52, 66
4, 7728, Note_on_c, 0, 40, 66
4, 7773, Note_on_c, 0, 52, 0
4, 7773, Note_on_c, 0, 40, 0
4, 7776, Note_on_c, 0, 55, 66
4, 7776, Note_on_c, 0, 43, 66
4, 7821, Note_on_c, 0, 55, 0
4, 7821, Note_on_c, 0, 43, 0
4, 7824, Note_on_c, 0, 52, 66
4, 7824, Note_on_c, 0, 40, 66
4, 7869, Note_on_c, 0, 52, 0
4, 7869, Note_on_c, 0, 40, 0
4, 7920, Note_on_c, 0, 57, 66
4, 7920, Note_on_c, 0, 45, 66
4, 7965, Note_on_c, 0, 57, 0
4, 7965, Note_on_c, 0, 45, 0
4, 7968, Note_on_c, 0, 54, 66
4, 7968, Note_on_c, 0, 42, 66
4, 8013, Note_on_c, 0, 54, 0
4, 8013, Note_on_c, 0, 42, 0
4, 8016, Note_on_c, 0, 50, 66
4, 8016, Note_on_c, 0, 38, 66
4, 8061, Note_on_c, 0, 50, 0
4, 8061, Note_on_c, 0, 38, 0
4, 8112, Note_on_c, 0, 55, 66
4, 8112, Note_on_c, 0, 43, 66
4, 8157, Note_on_c, 0, 55, 0
4, 8157, Note_on_c, 0, 43, 0
4, 8160, Note_on_c, 0, 52, 67
4, 8160, Note_on_c, 0, 40, 67
4, 8205, Note_on_c, 0, 52, 0
4, 8205, Note_on_c, 0, 40, 0
4, 8208, Note_on_c, 0, 48, 68
4, 8208, Note_on_c, 0, 36, 68
4, 8253, Note_on_c, 0, 48, 0
4, 8253, Note_on_c, 0, 36, 0
4, 8304, Note_on_c, 0, 54, 70
4, 8304, Note_on_c, 0, 42, 70
4, 8349, Note_on_c, 0, 54, 0
4, 8349, Note_on_c, 0, 42, 0
4, 8352, Note_on_c, 0, 51, 71
4, 8352, Note_on_c, 0, 39, 71
4, 8397, Note_on_c, 0, 51, 0
4, 8397, Note_on_c, 0, 39, 0
4, 8400, Note_on_c, 0, 47, 72
4, 8400, Note_on_c, 0, 35, 72
4, 8445, Note_on_c, 0, 47, 0
4, 8445, Note_on_c, 0, 35, 0
4, 8496, Note_on_c, 0, 52, 74
4, 8496, Note_on_c, 0, 40, 74
4, 8541, Note_on_c, 0, 52, 0
4, 8541, Note_on_c, 0, 40, 0
4, 8544, Note_on_c, 0, 55, 75
4, 8544, Note_on_c, 0, 43, 75
4, 8589, Note_on_c, 0, 55, 0
4, 8589, Note_on_c, 0, 43, 0
4, 8592, Note_on_c, 0, 52, 76
4, 8592, Note_on_c, 0, 40, 76
4, 8637, Note_on_c, 0, 52, 0
4, 8637, Note_on_c, 0, 40, 0
4, 8688, Note_on_c, 0, 48, 78
4, 8688, Note_on_c, 0, 36, 78
4, 8733, Note_on_c, 0, 48, 0
4, 8733, Note_on_c, 0, 36, 0
4, 8736, Note_on_c, 0, 52, 79
4, 8736, Note_on_c, 0, 40, 79
4, 8781, Note_on_c, 0, 52, 0
4, 8781, Note_on_c, 0, 40, 0
4, 8784, Note_on_c, 0, 48, 80
4, 8784, Note_on_c, 0, 36, 80
4, 8829, Note_on_c, 0, 48, 0
4, 8829, Note_on_c, 0, 36, 0
4, 8880, Note_on_c, 0, 48, 82
4, 8880, Note_on_c, 0, 36, 82
4, 8925, Note_on_c, 0, 48, 0
4, 8925, Note_on_c, 0, 36, 0
4, 8928, Note_on_c, 0, 47, 83
4, 8928, Note_on_c, 0, 35, 83
4, 8973, Note_on_c, 0, 47, 0
4, 8973, Note_on_c, 0, 35, 0
4, 8976, Note_on_c, 0, 46, 84
4, 8976, Note_on_c, 0, 34, 84
4, 9021, Note_on_c, 0, 46, 0
4, 9021, Note_on_c, 0, 34, 0
4, 9024, Note_on_c, 0, 47, 85
4, 9024, Note_on_c, 0, 35, 85
4, 9113, Note_on_c, 0, 47, 0
4, 9113, Note_on_c, 0, 35, 0
4, 9216, Note_on_c, 0, 52, 85
4, 9216, Note_on_c, 0, 40, 85
4, 9305, Note_on_c, 0, 52, 0
4, 9305, Note_on_c, 0, 40, 0
4, 9456, Note_on_c, 0, 59, 85
4, 9456, Note_on_c, 0, 47, 85
4, 9501, Note_on_c, 0, 59, 0
4, 9501, Note_on_c, 0, 47, 0
4, 9504, Note_on_c, 0, 63, 85
4, 9504, Note_on_c, 0, 51, 85
4, 9549, Note_on_c, 0, 63, 0
4, 9549, Note_on_c, 0, 51, 0
4, 9552, Note_on_c, 0, 59, 85
4, 9552, Note_on_c, 0, 47, 85
4, 9597, Note_on_c, 0, 59, 0
4, 9597, Note_on_c, 0, 47, 0
4, 9600, Note_on_c, 0, 47, 85
4, 9600, Note_on_c, 0, 35, 85
4, 9689, Note_on_c, 0, 47, 0
4, 9689, Note_on_c, 0, 35, 0
4, 9840, Note_on_c, 0, 52, 85
4, 9840, Note_on_c, 0, 40, 85
4, 9885, Note_on_c, 0, 52, 0
4, 9885, Note_on_c, 0, 40, 0
4, 9888, Note_on_c, 0, 56, 85
4, 9888, Note_on_c, 0, 44, 85
4, 9933, Note_on_c, 0, 56, 0
4, 9933, Note_on_c, 0, 44, 0
4, 9936, Note_on_c, 0, 52, 85
4, 9936, Note_on_c, 0, 40, 85
4, 9981, Note_on_c, 0, 52, 0
4, 9981, Note_on_c, 0, 40, 0
4, 11472, Note_on_c, 0, 59, 85
4, 11517, Note_on_c, 0, 59, 0
4, 11520, Note_on_c, 0, 52, 85
4, 11609, Note_on_c, 0, 52, 0
4, 11664, Note_on_c, 0, 47, 85
4, 11709, Note_on_c, 0, 47, 0
4, 11712, Note_on_c, 0, 40, 85
4, 11801, Note_on_c, 0, 40, 0
4, 11904, Note_on_c, 0, 61, 66
4, 11904, Note_on_c, 0, 57, 66
4, 11949, Note_on_c, 0, 61, 0
4, 11949, Note_on_c, 0, 57, 0
4, 11952, Note_on_c, 0, 61, 66
4, 11952, Note_on_c, 0, 57, 66
4, 11997, Note_on_c, 0, 61, 0
4, 11997, Note_on_c, 0, 57, 0
4, 12000, Note_on_c, 0, 61, 66
4, 12000, Note_on_c, 0, 57, 66
4, 12045, Note_on_c, 0, 61, 0
4, 12045, Note_on_c, 0, 57, 0
4, 12048, Note_on_c, 0, 61, 66
4, 12048, Note_on_c, 0, 57, 66
4, 12093, Note_on_c, 0, 61, 0
4, 12093, Note_on_c, 0, 57, 0
4, 12096, Note_on_c, 0, 62, 66
4, 12096, Note_on_c, 0, 57, 66
4, 12141, Note_on_c, 0, 62, 0
4, 12141, Note_on_c, 0, 57, 0
4, 12144, Note_on_c, 0, 61, 66
4, 12144, Note_on_c, 0, 57, 66
4, 12189, Note_on_c, 0, 61, 0
4, 12189, Note_on_c, 0, 57, 0
4, 12192, Note_on_c, 0, 61, 66
4, 12192, Note_on_c, 0, 57, 66
4, 12237, Note_on_c, 0, 61, 0
4, 12237, Note_on_c, 0, 57, 0
4, 12240, Note_on_c, 0, 61, 66
4, 12240, Note_on_c, 0, 57, 66
4, 12285, Note_on_c, 0, 61, 0
4, 12285, Note_on_c, 0, 57, 0
4, 12336, Note_on_c, 0, 59, 66
4, 12336, Note_on_c, 0, 52, 66
4, 12381, Note_on_c, 0, 59, 0
4, 12381, Note_on_c, 0, 52, 0
4, 12384, Note_on_c, 0, 57, 66
4, 12384, Note_on_c, 0, 52, 66
4, 12429, Note_on_c, 0, 57, 0
4, 12429, Note_on_c, 0, 52, 0
4, 12432, Note_on_c, 0, 56, 66
4, 12432, Note_on_c, 0, 52, 66
4, 12477, Note_on_c, 0, 56, 0
4, 12477, Note_on_c, 0, 52, 0
4, 12528, Note_on_c, 0, 61, 66
4, 12528, Note_on_c, 0, 57, 66
4, 12573, Note_on_c, 0, 61, 0
4, 12573, Note_on_c, 0, 57, 0
4, 12576, Note_on_c, 0, 64, 66
4, 12576, Note_on_c, 0, 61, 66
4, 12621, Note_on_c, 0, 64, 0
4, 12621, Note_on_c, 0, 61, 0
4, 12624, Note_on_c, 0, 61, 66
4, 12624, Note_on_c, 0, 57, 66
4, 12669, Note_on_c, 0, 61, 0
4, 12669, Note_on_c, 0, 57, 0
4, 12720, Note_on_c, 0, 59, 66
4, 12720, Note_on_c, 0, 52, 66
4, 12765, Note_on_c, 0, 59, 0
4, 12765, Note_on_c, 0, 52, 0
4, 12768, Note_on_c, 0, 57, 66
4, 12768, Note_on_c, 0, 52, 66
4, 12813, Note_on_c, 0, 57, 0
4, 12813, Note_on_c, 0, 52, 0
4, 12816, Note_on_c, 0, 56, 66
4, 12816, Note_on_c, 0, 52, 66
4, 12861, Note_on_c, 0, 56, 0
4, 12861, Note_on_c, 0, 52, 0
4, 12912, Note_on_c, 0, 61, 66
4, 12912, Note_on_c, 0, 57, 66
4, 12957, Note_on_c, 0, 61, 0
4, 12957, Note_on_c, 0, 57, 0
4, 12960, Note_on_c, 0, 64, 66
4, 12960, Note_on_c, 0, 61, 66
4, 13005, Note_on_c, 0, 64, 0
4, 13005, Note_on_c, 0, 61, 0
4, 13008, Note_on_c, 0, 61, 66
4, 13008, Note_on_c, 0, 57, 66
4, 13053, Note_on_c, 0, 61, 0
4, 13053, Note_on_c, 0, 57, 0
4, 15552, Note_on_c, 0, 47, 66
4, 15575, Note_on_c, 0, 47, 0
4, 15576, Note_on_c, 0, 59, 66
4, 15599, Note_on_c, 0, 59, 0
4, 15600, Note_on_c, 0, 47, 66
4, 15623, Note_on_c, 0, 47, 0
4, 15624, Note_on_c, 0, 59, 66
4, 15647, Note_on_c, 0, 59, 0
4, 15648, Note_on_c, 0, 47, 66
4, 15671, Note_on_c, 0, 47, 0
4, 15672, Note_on_c, 0, 59, 66
4, 15695, Note_on_c, 0, 59, 0
4, 15696, Note_on_c, 0, 47, 66
4, 15719, Note_on_c, 0, 47, 0
4, 15720, Note_on_c, 0, 59, 66
4, 15743, Note_on_c, 0, 59, 0
4, 15744, Note_on_c, 0, 52, 66
4, 15767, Note_on_c, 0, 52, 0
4, 15768, Note_on_c, 0, 59, 66
4, 15791, Note_on_c, 0, 59, 0
4, 15792, Note_on_c, 0, 52, 66
4, 15815, Note_on_c, 0, 52, 0
4, 15816, Note_on_c, 0, 59, 66
4, 15839, Note_on_c, 0, 59, 0
4, 15840, Note_on_c, 0, 52, 66
4, 15863, Note_on_c, 0, 52, 0
4, 15864, Note_on_c, 0, 59, 66
4, 15887, Note_on_c, 0, 59, 0
4, 15888, Note_on_c, 0, 52, 66
4, 15911, Note_on_c, 0, 52, 0
4, 15912, Note_on_c, 0, 59, 66
4, 15935, Note_on_c, 0, 59, 0
4, 15936, Note_on_c, 0, 57, 66
4, 15959, Note_on_c, 0, 57, 0
4, 15960, Note_on_c, 0, 64, 66
4, 15983, Note_on_c, 0, 64, 0
4, 15984, Note_on_c, 0, 57, 66
4, 16007, Note_on_c, 0, 57, 0
4, 16008, Note_on_c, 0, 64, 66
4, 16031, Note_on_c, 0, 64, 0
4, 16032, Note_on_c, 0, 56, 66
4, 16055, Note_on_c, 0, 56, 0
4, 16056, Note_on_c, 0, 64, 66
4, 16079, Note_on_c, 0, 64, 0
4, 16080, Note_on_c, 0, 56, 66
4, 16103, Note_on_c, 0, 56, 0
4, 16104, Note_on_c, 0, 64, 66
4, 16127, Note_on_c, 0, 64, 0
4, 16128, Note_on_c, 0, 54, 66
4, 16151, Note_on_c, 0, 54, 0
4, 16152, Note_on_c, 0, 63, 66
4, 16175, Note_on_c, 0, 63, 0
4, 16176, Note_on_c, 0, 57, 66
4, 16199, Note_on_c, 0, 57, 0
4, 16200, Note_on_c, 0, 63, 66
4, 16223, Note_on_c, 0, 63, 0
4, 16224, Note_on_c, 0, 52, 66
4, 16247, Note_on_c, 0, 52, 0
4, 16248, Note_on_c, 0, 59, 66
4, 16271, Note_on_c, 0, 59, 0
4, 16272, Note_on_c, 0, 56, 66
4, 16295, Note_on_c, 0, 56, 0
4, 16296, Note_on_c, 0, 59, 66
4, 16319, Note_on_c, 0, 59, 0
4, 16320, Note_on_c, 0, 57, 66
4, 16343, Note_on_c, 0, 57, 0
4, 16344, Note_on_c, 0, 64, 66
4, 16367, Note_on_c, 0, 64, 0
4, 16368, Note_on_c, 0, 57, 66
4, 16391, Note_on_c, 0, 57, 0
4, 16392, Note_on_c, 0, 64, 66
4, 16415, Note_on_c, 0, 64, 0
4, 16416, Note_on_c, 0, 56, 66
4, 16439, Note_on_c, 0, 56, 0
4, 16440, Note_on_c, 0, 64, 66
4, 16463, Note_on_c, 0, 64, 0
4, 16464, Note_on_c, 0, 56, 66
4, 16487, Note_on_c, 0, 56, 0
4, 16488, Note_on_c, 0, 64, 66
4, 16511, Note_on_c, 0, 64, 0
4, 16512, Note_on_c, 0, 54, 66
4, 16535, Note_on_c, 0, 54, 0
4, 16536, Note_on_c, 0, 63, 66
4, 16559, Note_on_c, 0, 63, 0
4, 16560, Note_on_c, 0, 57, 66
4, 16583, Note_on_c, 0, 57, 0
4, 16584, Note_on_c, 0, 63, 66
4, 16607, Note_on_c, 0, 63, 0
4, 16608, Note_on_c, 0, 52, 66
4, 16631, Note_on_c, 0, 52, 0
4, 16632, Note_on_c, 0, 59, 66
4, 16655, Note_on_c, 0, 59, 0
4, 16656, Note_on_c, 0, 56, 66
4, 16679, Note_on_c, 0, 56, 0
4, 16680, Note_on_c, 0, 59, 66
4, 16703, Note_on_c, 0, 59, 0
4, 16704, Note_on_c, 0, 47, 66
4, 16727, Note_on_c, 0, 47, 0
4, 16728, Note_on_c, 0, 59, 66
4, 16751, Note_on_c, 0, 59, 0
4, 16752, Note_on_c, 0, 51, 60
4, 16775, Note_on_c, 0, 51, 0
4, 16776, Note_on_c, 0, 59, 60
4, 16799, Note_on_c, 0, 59, 0
4, 16800, Note_on_c, 0, 47, 61
4, 16823, Note_on_c, 0, 47, 0
4, 16824, Note_on_c, 0, 59, 61
4, 16847, Note_on_c, 0, 59, 0
4, 16848, Note_on_c, 0, 51, 62
4, 16871, Note_on_c, 0, 51, 0
4, 16872, Note_on_c, 0, 59, 62
4, 16895, Note_on_c, 0, 59, 0
4, 16896, Note_on_c, 0, 47, 63
4, 16919, Note_on_c, 0, 47, 0
4, 16920, Note_on_c, 0, 59, 64
4, 16943, Note_on_c, 0, 59, 0
4, 16944, Note_on_c, 0, 52, 64
4, 16967, Note_on_c, 0, 52, 0
4, 16968, Note_on_c, 0, 59, 65
4, 16991, Note_on_c, 0, 59, 0
4, 16992, Note_on_c, 0, 47, 65
4, 17015, Note_on_c, 0, 47, 0
4, 17016, Note_on_c, 0, 59, 66
4, 17039, Note_on_c, 0, 59, 0
4, 17040, Note_on_c, 0, 52, 66
4, 17063, Note_on_c, 0, 52, 0
4, 17064, Note_on_c, 0, 59, 67
4, 17087, Note_on_c, 0, 59, 0
4, 17088, Note_on_c, 0, 47, 68
4, 17111, Note_on_c, 0, 47, 0
4, 17112, Note_on_c, 0, 59, 68
4, 17135, Note_on_c, 0, 59, 0
4, 17136, Note_on_c, 0, 54, 69
4, 17159, Note_on_c, 0, 54, 0
4, 17160, Note_on_c, 0, 59, 69
4, 17183, Note_on_c, 0, 59, 0
4, 17184, Note_on_c, 0, 47, 70
4, 17207, Note_on_c, 0, 47, 0
4, 17208, Note_on_c, 0, 59, 71
4, 17231, Note_on_c, 0, 59, 0
4, 17232, Note_on_c, 0, 54, 71
4, 17255, Note_on_c, 0, 54, 0
4, 17256, Note_on_c, 0, 59, 72
4, 17279, Note_on_c, 0, 59, 0
4, 17280, Note_on_c, 0, 47, 72
4, 17303, Note_on_c, 0, 47, 0
4, 17304, Note_on_c, 0, 59, 73
4, 17327, Note_on_c, 0, 59, 0
4, 17328, Note_on_c, 0, 54, 73
4, 17351, Note_on_c, 0, 54, 0
4, 17352, Note_on_c, 0, 59, 74
4, 17375, Note_on_c, 0, 59, 0
4, 17376, Note_on_c, 0, 47, 75
4, 17399, Note_on_c, 0, 47, 0
4, 17400, Note_on_c, 0, 59, 75
4, 17423, Note_on_c, 0, 59, 0
4, 17424, Note_on_c, 0, 54, 76
4, 17447, Note_on_c, 0, 54, 0
4, 17448, Note_on_c, 0, 59, 76
4, 17471, Note_on_c, 0, 59, 0
4, 17472, Note_on_c, 0, 52, 77
4, 17495, Note_on_c, 0, 52, 0
4, 17496, Note_on_c, 0, 59, 78
4, 17519, Note_on_c, 0, 59, 0
4, 17520, Note_on_c, 0, 56, 78
4, 17543, Note_on_c, 0, 56, 0
4, 17544, Note_on_c, 0, 59, 78
4, 17567, Note_on_c, 0, 59, 0
4, 17568, Note_on_c, 0, 51, 78
4, 17591, Note_on_c, 0, 51, 0
4, 17592, Note_on_c, 0, 59, 78
4, 17615, Note_on_c, 0, 59, 0
4, 17616, Note_on_c, 0, 54, 78
4, 17639, Note_on_c, 0, 54, 0
4, 17640, Note_on_c, 0, 59, 78
4, 17663, Note_on_c, 0, 59, 0
4, 17664, Note_on_c, 0, 52, 78
4, 17687, Note_on_c, 0, 52, 0
4, 17688, Note_on_c, 0, 59, 78
4, 17711, Note_on_c, 0, 59, 0
4, 17712, Note_on_c, 0, 56, 78
4, 17735, Note_on_c, 0, 56, 0
4, 17736, Note_on_c, 0, 59, 78
4, 17759, Note_on_c, 0, 59, 0
4, 17760, Note_on_c, 0, 54, 78
4, 17783, Note_on_c, 0, 54, 0
4, 17784, Note_on_c, 0, 59, 78
4, 17807, Note_on_c, 0, 59, 0
4, 17808, Note_on_c, 0, 57, 78
4, 17831, Note_on_c, 0, 57, 0
4, 17832, Note_on_c, 0, 59, 78
4, 17855, Note_on_c, 0, 59, 0
4, 17856, Note_on_c, 0, 52, 78
4, 17879, Note_on_c, 0, 52, 0
4, 17880, Note_on_c, 0, 59, 78
4, 17903, Note_on_c, 0, 59, 0
4, 17904, Note_on_c, 0, 56, 78
4, 17927, Note_on_c, 0, 56, 0
4, 17928, Note_on_c, 0, 59, 78
4, 17951, Note_on_c, 0, 59, 0
4, 17952, Note_on_c, 0, 51, 78
4, 17975, Note_on_c, 0, 51, 0
4, 17976, Note_on_c, 0, 59, 78
4, 17999, Note_on_c, 0, 59, 0
4, 18000, Note_on_c, 0, 54, 78
4, 18023, Note_on_c, 0, 54, 0
4, 18024, Note_on_c, 0, 59, 78
4, 18047, Note_on_c, 0, 59, 0
4, 18048, Note_on_c, 0, 52, 78
4, 18071, Note_on_c, 0, 52, 0
4, 18072, Note_on_c, 0, 59, 78
4, 18095, Note_on_c, 0, 59, 0
4, 18096, Note_on_c, 0, 56, 78
4, 18119, Note_on_c, 0, 56, 0
4, 18120, Note_on_c, 0, 59, 78
4, 18143, Note_on_c, 0, 59, 0
4, 18144, Note_on_c, 0, 54, 78
4, 18167, Note_on_c, 0, 54, 0
4, 18168, Note_on_c, 0, 59, 78
4, 18191, Note_on_c, 0, 59, 0
4, 18192, Note_on_c, 0, 57, 78
4, 18215, Note_on_c, 0, 57, 0
4, 18216, Note_on_c, 0, 59, 78
4, 18239, Note_on_c, 0, 59, 0
4, 18240, Note_on_c, 0, 56, 78
4, 18329, Note_on_c, 0, 56, 0
4, 18432, Note_on_c, 0, 57, 78
4, 18521, Note_on_c, 0, 57, 0
4, 18624, Note_on_c, 0, 56, 78
4, 18624, Note_on_c, 0, 47, 78
4, 18669, Note_on_c, 0, 56, 0
4, 18669, Note_on_c, 0, 47, 0
4, 18672, Note_on_c, 0, 56, 78
4, 18672, Note_on_c, 0, 47, 78
4, 18717, Note_on_c, 0, 56, 0
4, 18717, Note_on_c, 0, 47, 0
4, 18720, Note_on_c, 0, 54, 78
4, 18720, Note_on_c, 0, 47, 78
4, 18765, Note_on_c, 0, 54, 0
4, 18765, Note_on_c, 0, 47, 0
4, 18768, Note_on_c, 0, 54, 78
4, 18768, Note_on_c, 0, 47, 78
4, 18813, Note_on_c, 0, 54, 0
4, 18813, Note_on_c, 0, 47, 0
4, 18816, Note_on_c, 0, 52, 78
4, 18816, Note_on_c, 0, 40, 78
4, 18905, Note_on_c, 0, 52, 0
4, 18905, Note_on_c, 0, 40, 0
4, 19056, Note_on_c, 0, 52, 66
4, 19056, Note_on_c, 0, 40, 66
4, 19101, Note_on_c, 0, 52, 0
4, 19101, Note_on_c, 0, 40, 0
4, 19104, Note_on_c, 0, 55, 66
4, 19104, Note_on_c, 0, 43, 66
4, 19149, Note_on_c, 0, 55, 0
4, 19149, Note_on_c, 0, 43, 0
4, 19152, Note_on_c, 0, 52, 66
4, 19152, Note_on_c, 0, 40, 66
4, 19197, Note_on_c, 0, 52, 0
4, 19197, Note_on_c, 0, 40, 0
4, 19248, Note_on_c, 0, 59, 66
4, 19248, Note_on_c, 0, 47, 66
4, 19293, Note_on_c, 0, 59, 0
4, 19293, Note_on_c, 0, 47, 0
4, 19296, Note_on_c, 0, 63, 66
4, 19296, Note_on_c, 0, 51, 66
4, 19341, Note_on_c, 0, 63, 0
4, 19341, Note_on_c, 0, 51, 0
4, 19344, Note_on_c, 0, 59, 66
4, 19344, Note_on_c, 0, 47, 66
4, 19389, Note_on_c, 0, 59, 0
4, 19389, Note_on_c, 0, 47, 0
4, 19440, Note_on_c, 0, 59, 66
4, 19440, Note_on_c, 0, 47, 66
4, 19485, Note_on_c, 0, 59, 0
4, 19485, Note_on_c, 0, 47, 0
4, 19488, Note_on_c, 0, 63, 66
4, 19488, Note_on_c, 0, 51, 66
4, 19533, Note_on_c, 0, 63, 0
4, 19533, Note_on_c, 0, 51, 0
4, 19536, Note_on_c, 0, 59, 66
4, 19536, Note_on_c, 0, 47, 66
4, 19581, Note_on_c, 0, 59, 0
4, 19581, Note_on_c, 0, 47, 0
4, 19632, Note_on_c, 0, 52, 66
4, 19632, Note_on_c, 0, 40, 66
4, 19677, Note_on_c, 0, 52, 0
4, 19677, Note_on_c, 0, 40, 0
4, 19680, Note_on_c, 0, 55, 66
4, 19680, Note_on_c, 0, 43, 66
4, 19725, Note_on_c, 0, 55, 0
4, 19725, Note_on_c, 0, 43, 0
4, 19728, Note_on_c, 0, 52, 66
4, 19728, Note_on_c, 0, 40, 66
4, 19773, Note_on_c, 0, 52, 0
4, 19773, Note_on_c, 0, 40, 0
4, 19824, Note_on_c, 0, 57, 66
4, 19824, Note_on_c, 0, 45, 66
4, 19869, Note_on_c, 0, 57, 0
4, 19869, Note_on_c, 0, 45, 0
4, 19872, Note_on_c, 0, 54, 66
4, 19872, Note_on_c, 0, 42, 66
4, 19917, Note_on_c, 0, 54, 0
4, 19917, Note_on_c, 0, 42, 0
4, 19920, Note_on_c, 0, 50, 66
4, 19920, Note_on_c, 0, 38, 66
4, 19965, Note_on_c, 0, 50, 0
4, 19965, Note_on_c, 0, 38, 0
4, 20016, Note_on_c, 0, 55, 66
4, 20016, Note_on_c, 0, 43, 66
4, 20061, Note_on_c, 0, 55, 0
4, 20061, Note_on_c, 0, 43, 0
4, 20064, Note_on_c, 0, 52, 67
4, 20064, Note_on_c, 0, 40, 67
4, 20109, Note_on_c, 0, 52, 0
4, 20109, Note_on_c, 0, 40, 0
4, 20112, Note_on_c, 0, 48, 68
4, 20112, Note_on_c, 0, 36, 68
4, 20157, Note_on_c, 0, 48, 0
4, 20157, Note_on_c, 0, 36, 0
4, 20208, Note_on_c, 0, 54, 70
4, 20208, Note_on_c, 0, 42, 70
4, 20253, Note_on_c, 0, 54, 0
4, 20253, Note_on_c, 0, 42, 0
4, 20256, Note_on_c, 0, 51, 71
4, 20256, Note_on_c, 0, 39, 71
4, 20301, Note_on_c, 0, 51, 0
4, 20301, Note_on_c, 0, 39, 0
4, 20304, Note_on_c, 0, 47, 72
4, 20304, Note_on_c, 0, 35, 72
4, 20349, Note_on_c, 0, 47, 0
4, 20349, Note_on_c, 0, 35, 0
4, 20400, Note_on_c, 0, 52, 74
4, 20400, Note_on_c, 0, 40, 74
4, 20445, Note_on_c, 0, 52, 0
4, 20445, Note_on_c, 0, 40, 0
4, 20448, Note_on_c, 0, 55, 75
4, 20448, Note_on_c, 0, 43, 75
4, 20493, Note_on_c, 0, 55, 0
4, 20493, Note_on_c, 0, 43, 0
4, 20496, Note_on_c, 0, 52, 76
4, 20496, Note_on_c, 0, 40, 76
4, 20541, Note_on_c, 0, 52, 0
4, 20541, Note_on_c, 0, 40, 0
4, 20592, Note_on_c, 0, 48, 78
4, 20592, Note_on_c, 0, 36, 78
4, 20637, Note_on_c, 0, 48, 0
4, 20637, Note_on_c, 0, 36, 0
4, 20640, Note_on_c, 0, 52, 79
4, 20640, Note_on_c, 0, 40, 79
4, 20685, Note_on_c, 0, 52, 0
4, 20685, Note_on_c, 0, 40, 0
4, 20688, Note_on_c, 0, 48, 80
4, 20688, Note_on_c, 0, 36, 80
4, 20733, Note_on_c, 0, 48, 0
4, 20733, Note_on_c, 0, 36, 0
4, 20784, Note_on_c, 0, 48, 82
4, 20784, Note_on_c, 0, 36, 82
4, 20829, Note_on_c, 0, 48, 0
4, 20829, Note_on_c, 0, 36, 0
4, 20832, Note_on_c, 0, 47, 83
4, 20832, Note_on_c, 0, 35, 83
4, 20877, Note_on_c, 0, 47, 0
4, 20877, Note_on_c, 0, 35, 0
4, 20880, Note_on_c, 0, 46, 84
4, 20880, Note_on_c, 0, 34, 84
4, 20925, Note_on_c, 0, 46, 0
4, 20925, Note_on_c, 0, 34, 0
4, 20928, Note_on_c, 0, 47, 85
4, 20928, Note_on_c, 0, 35, 85
4, 21017, Note_on_c, 0, 47, 0
4, 21017, Note_on_c, 0, 35, 0
4, 21120, Note_on_c, 0, 52, 85
4, 21120, Note_on_c, 0, 40, 85
4, 21209, Note_on_c, 0, 52, 0
4, 21209, Note_on_c, 0, 40, 0
4, 21360, Note_on_c, 0, 59, 85
4, 21360, Note_on_c, 0, 47, 85
4, 21405, Note_on_c, 0, 59, 0
4, 21405, Note_on_c, 0, 47, 0
4, 21408, Note_on_c, 0, 63, 85
4, 21408, Note_on_c, 0, 51, 85
4, 21453, Note_on_c, 0, 63, 0
4, 21453, Note_on_c, 0, 51, 0
4, 21456, Note_on_c, 0, 59, 85
4, 21456, Note_on_c, 0, 47, 85
4, 21501, Note_on_c, 0, 59, 0
4, 21501, Note_on_c, 0, 47, 0
4, 21504, Note_on_c, 0, 47, 85
4, 21504, Note_on_c, 0, 35, 85
4, 21593, Note_on_c, 0, 47, 0
4, 21593, Note_on_c, 0, 35, 0
4, 21744, Note_on_c, 0, 52, 85
4, 21744, Note_on_c, 0, 40, 85
4, 21789, Note_on_c, 0, 52, 0
4, 21789, Note_on_c, 0, 40, 0
4, 21792, Note_on_c, 0, 56, 85
4, 21792, Note_on_c, 0, 44, 85
4, 21837, Note_on_c, 0, 56, 0
4, 21837, Note_on_c, 0, 44, 0
4, 21840, Note_on_c, 0, 52, 85
4, 21840, Note_on_c, 0, 40, 85
4, 21885, Note_on_c, 0, 52, 0
4, 21885, Note_on_c, 0, 40, 0
4, 23376, Note_on_c, 0, 59, 85
4, 23421, Note_on_c, 0, 59, 0
4, 23424, Note_on_c, 0, 52, 85
4, 23513, Note_on_c, 0, 52, 0
4, 23568, Note_on_c, 0, 47, 85
4, 23613, Note_on_c, 0, 47, 0
4, 23616, Note_on_c, 0, 40, 85
4, 23705, Note_on_c, 0, 40, 0
4, 23808, Note_on_c, 0, 56, 66
4, 23808, Note_on_c, 0, 52, 66
4, 23853, Note_on_c, 0, 56, 0
4, 23853, Note_on_c, 0, 52, 0
4, 23856, Note_on_c, 0, 56, 66
4, 23856, Note_on_c, 0, 52, 66
4, 23901, Note_on_c, 0, 56, 0
4, 23901, Note_on_c, 0, 52, 0
4, 23904, Note_on_c, 0, 56, 66
4, 23904, Note_on_c, 0, 52, 66
4, 23949, Note_on_c, 0, 56, 0
4, 23949, Note_on_c, 0, 52, 0
4, 23952, Note_on_c, 0, 56, 66
4, 23952, Note_on_c, 0, 52, 66
4, 23997, Note_on_c, 0, 56, 0
4, 23997, Note_on_c, 0, 52, 0
4, 24000, Note_on_c, 0, 57, 66
4, 24000, Note_on_c, 0, 52, 66
4, 24045, Note_on_c, 0, 57, 0
4, 24045, Note_on_c, 0, 52, 0
4, 24048, Note_on_c, 0, 56, 66
4, 24048, Note_on_c, 0, 52, 66
4, 24093, Note_on_c, 0, 56, 0
4, 24093, Note_on_c, 0, 52, 0
4, 24096, Note_on_c, 0, 56, 66
4, 24096, Note_on_c, 0, 52, 66
4, 24141, Note_on_c, 0, 56, 0
4, 24141, Note_on_c, 0, 52, 0
4, 24144, Note_on_c, 0, 56, 66
4, 24144, Note_on_c, 0, 52, 66
4, 24189, Note_on_c, 0, 56, 0
4, 24189, Note_on_c, 0, 52, 0
4, 24240, Note_on_c, 0, 54, 66
4, 24240, Note_on_c, 0, 47, 66
4, 24285, Note_on_c, 0, 54, 0
4, 24285, Note_on_c, 0, 47, 0
4, 24288, Note_on_c, 0, 52, 66
4, 24288, Note_on_c, 0, 47, 66
4, 24333, Note_on_c, 0, 52, 0
4, 24333, Note_on_c, 0, 47, 0
4, 24336, Note_on_c, 0, 51, 66
4, 24336, Note_on_c, 0, 47, 66
4, 24381, Note_on_c, 0, 51, 0
4, 24381, Note_on_c, 0, 47, 0
4, 24432, Note_on_c, 0, 56, 66
4, 24432, Note_on_c, 0, 52, 66
4, 24477, Note_on_c, 0, 56, 0
4, 24477, Note_on_c, 0, 52, 0
4, 24480, Note_on_c, 0, 59, 66
4, 24480, Note_on_c, 0, 56, 66
4, 24525, Note_on_c, 0, 59, 0
4, 24525, Note_on_c, 0, 56, 0
4, 24528, Note_on_c, 0, 56, 66
4, 24528, Note_on_c, 0, 52, 66
4, 24573, Note_on_c, 0, 56, 0
4, 24573, Note_on_c, 0, 52, 0
4, 24624, Note_on_c, 0, 54, 66
4, 24624, Note_on_c, 0, 47, 66
4, 24669, Note_on_c, 0, 54, 0
4, 24669, Note_on_c, 0, 47, 0
4, 24672, Note_on_c, 0, 52, 66
4, 24672, Note_on_c, 0, 47, 66
4, 24717, Note_on_c, 0, 52, 0
4, 24717, Note_on_c, 0, 47, 0
4, 24720, Note_on_c, 0, 51, 66
4, 24720, Note_on_c, 0, 47, 66
4, 24765, Note_on_c, 0, 51, 0
4, 24765, Note_on_c, 0, 47, 0
4, 24816, Note_on_c, 0, 56, 66
4, 24816, Note_on_c, 0, 52, 66
4, 24861, Note_on_c, 0, 56, 0
4, 24861, Note_on_c, 0, 52, 0
4, 24864, Note_on_c, 0, 59, 66
4, 24864, Note_on_c, 0, 56, 66
4, 24909, Note_on_c, 0, 59, 0
4, 24909, Note_on_c, 0, 56, 0
4, 24912, Note_on_c, 0, 56, 66
4, 24912, Note_on_c, 0, 52, 66
4, 24957, Note_on_c, 0, 56, 0
4, 24957, Note_on_c, 0, 52, 0
4, 25008, Note_on_c, 0, 64, 85
4, 25008, Note_on_c, 0, 52, 85
4, 25053, Note_on_c, 0, 64, 0
4, 25053, Note_on_c, 0, 52, 0
4, 25056, Note_on_c, 0, 62, 85
4, 25056, Note_on_c, 0, 50, 85
4, 25101, Note_on_c, 0, 62, 0
4, 25101, Note_on_c, 0, 50, 0
4, 25104, Note_on_c, 0, 61, 85
4, 25104, Note_on_c, 0, 49, 85
4, 25149, Note_on_c, 0, 61, 0
4, 25149, Note_on_c, 0, 49, 0
4, 25152, Note_on_c, 0, 59, 85
4, 25152, Note_on_c, 0, 47, 85
4, 25197, Note_on_c, 0, 59, 0
4, 25197, Note_on_c, 0, 47, 0
4, 25200, Note_on_c, 0, 58, 85
4, 25200, Note_on_c, 0, 46, 85
4, 25245, Note_on_c, 0, 58, 0
4, 25245, Note_on_c, 0, 46, 0
4, 25248, Note_on_c, 0, 59, 85
4, 25248, Note_on_c, 0, 47, 85
4, 25337, Note_on_c, 0, 59, 0
4, 25337, Note_on_c, 0, 47, 0
4, 25392, Note_on_c, 0, 62, 85
4, 25392, Note_on_c, 0, 50, 85
4, 25437, Note_on_c, 0, 62, 0
4, 25437, Note_on_c, 0, 50, 0
4, 25440, Note_on_c, 0, 61, 85
4, 25440, Note_on_c, 0, 49, 85
4, 25485, Note_on_c, 0, 61, 0
4, 25485, Note_on_c, 0, 49, 0
4, 25488, Note_on_c, 0, 59, 85
4, 25488, Note_on_c, 0, 47, 85
4, 25533, Note_on_c, 0, 59, 0
4, 25533, Note_on_c, 0, 47, 0
4, 25536, Note_on_c, 0, 57, 85
4, 25536, Note_on_c, 0, 45, 85
4, 25581, Note_on_c, 0, 57, 0
4, 25581, Note_on_c, 0, 45, 0
4, 25584, Note_on_c, 0, 56, 85
4, 25584, Note_on_c, 0, 44, 85
4, 25629, Note_on_c, 0, 56, 0
4, 25629, Note_on_c, 0, 44, 0
4, 25632, Note_on_c, 0, 57, 85
4, 25632, Note_on_c, 0, 45, 85
4, 25721, Note_on_c, 0, 57, 0
4, 25721, Note_on_c, 0, 45, 0
4, 25728, Note_on_c, 0, 52, 85
4, 25728, Note_on_c, 0, 40, 85
4, 25817, Note_on_c, 0, 52, 0
4, 25817, Note_on_c, 0, 40, 0
4, 25920, Note_on_c, 0, 52, 85
4, 26097, Note_on_c, 0, 52, 0
4, 26112, Note_on_c, 0, 52, 85
4, 26201, Note_on_c, 0, 52, 0
4, 26304, Note_on_c, 0, 52, 85
4, 26481, Note_on_c, 0, 52, 0
4, 28032, Note_on_c, 0, 61, 85
4, 28032, Note_on_c, 0, 49, 85
4, 28121, Note_on_c, 0, 61, 0
4, 28121, Note_on_c, 0, 49, 0
4, 28224, Note_on_c, 0, 61, 85
4, 28401, Note_on_c, 0, 61, 0
4, 28416, Note_on_c, 0, 61, 85
4, 28505, Note_on_c, 0, 61, 0
4, 28608, Note_on_c, 0, 61, 85
4, 28785, Note_on_c, 0, 61, 0
4, 28800, Note_on_c, 0, 54, 85
4, 28800, Note_on_c, 0, 42, 85
4, 28889, Note_on_c, 0, 54, 0
4, 28889, Note_on_c, 0, 42, 0
4, 28992, Note_on_c, 0, 54, 85
4, 29169, Note_on_c, 0, 54, 0
4, 29184, Note_on_c, 0, 54, 85
4, 29273, Note_on_c, 0, 54, 0
4, 29376, Note_on_c, 0, 54, 85
4, 29553, Note_on_c, 0, 54, 0
4, 29568, Note_on_c, 0, 47, 85
4, 29568, Note_on_c, 0, 35, 85
4, 29657, Note_on_c, 0, 47, 0
4, 29657, Note_on_c, 0, 35, 0
4, 29760, Note_on_c, 0, 59, 85
4, 29937, Note_on_c, 0, 59, 0
4, 29952, Note_on_c, 0, 59, 85
4, 30041, Note_on_c, 0, 59, 0
4, 30144, Note_on_c, 0, 59, 85
4, 30321, Note_on_c, 0, 59, 0
4, 30336, Note_on_c, 0, 52, 85
4, 30336, Note_on_c, 0, 40, 85
4, 30425, Note_on_c, 0, 52, 0
4, 30425, Note_on_c, 0, 40, 0
4, 30528, Note_on_c, 0, 52, 85
4, 30705, Note_on_c, 0, 52, 0
4, 30720, Note_on_c, 0, 52, 85
4, 30809, Note_on_c, 0, 52, 0
4, 30912, Note_on_c, 0, 52, 85
4, 31089, Note_on_c, 0, 52, 0
4, 31872, Note_on_c, 0, 52, 60
4, 31895, Note_on_c, 0, 52, 0
4, 31896, Note_on_c, 0, 64, 60
4, 31919, Note_on_c, 0, 64, 0
4, 31920, Note_on_c, 0, 56, 61
4, 31943, Note_on_c, 0, 56, 0
4, 31944, Note_on_c, 0, 64, 61
4, 31967, Note_on_c, 0, 64, 0
4, 31968, Note_on_c, 0, 52, 62
4, 31991, Note_on_c, 0, 52, 0
4, 31992, Note_on_c, 0, 64, 62
4, 32015, Note_on_c, 0, 64, 0
4, 32016, Note_on_c, 0, 56, 63
4, 32039, Note_on_c, 0, 56, 0
4, 32040, Note_on_c, 0, 64, 63
4, 32063, Note_on_c, 0, 64, 0
4, 32064, Note_on_c, 0, 52, 64
4, 32087, Note_on_c, 0, 52, 0
4, 32088, Note_on_c, 0, 64, 65
4, 32111, Note_on_c, 0, 64, 0
4, 32112, Note_on_c, 0, 57, 65
4, 32135, Note_on_c, 0, 57, 0
4, 32136, Note_on_c, 0, 64, 66
4, 32159, Note_on_c, 0, 64, 0
4, 32160, Note_on_c, 0, 52, 66
4, 32183, Note_on_c, 0, 52, 0
4, 32184, Note_on_c, 0, 64, 67
4, 32207, Note_on_c, 0, 64, 0
4, 32208, Note_on_c, 0, 57, 67
4, 32231, Note_on_c, 0, 57, 0
4, 32232, Note_on_c, 0, 64, 68
4, 32255, Note_on_c, 0, 64, 0
4, 32256, Note_on_c, 0, 52, 69
4, 32279, Note_on_c, 0, 52, 0
4, 32280, Note_on_c, 0, 64, 69
4, 32303, Note_on_c, 0, 64, 0
4, 32304, Note_on_c, 0, 59, 70
4, 32327, Note_on_c, 0, 59, 0
4, 32328, Note_on_c, 0, 64, 70
4, 32351, Note_on_c, 0, 64, 0
4, 32352, Note_on_c, 0, 52, 71
4, 32375, Note_on_c, 0, 52, 0
4, 32376, Note_on_c, 0, 64, 71
4, 32399, Note_on_c, 0, 64, 0
4, 32400, Note_on_c, 0, 59, 72
4, 32423, Note_on_c, 0, 59, 0
4, 32424, Note_on_c, 0, 64, 72
4, 32447, Note_on_c, 0, 64, 0
4, 32448, Note_on_c, 0, 52, 73
4, 32471, Note_on_c, 0, 52, 0
4, 32472, Note_on_c, 0, 64, 74
4, 32495, Note_on_c, 0, 64, 0
4, 32496, Note_on_c, 0, 59, 74
4, 32519, Note_on_c, 0, 59, 0
4, 32520, Note_on_c, 0, 64, 75
4, 32543, Note_on_c, 0, 64, 0
4, 32544, Note_on_c, 0, 52, 75
4, 32567, Note_on_c, 0, 52, 0
4, 32568, Note_on_c, 0, 64, 76
4, 32591, Note_on_c, 0, 64, 0
4, 32592, Note_on_c, 0, 59, 76
4, 32615, Note_on_c, 0, 59, 0
4, 32616, Note_on_c, 0, 64, 77
4, 32639, Note_on_c, 0, 64, 0
4, 32640, Note_on_c, 0, 57, 78
4, 32663, Note_on_c, 0, 57, 0
4, 32664, Note_on_c, 0, 64, 78
4, 32687, Note_on_c, 0, 64, 0
4, 32688, Note_on_c, 0, 61, 78
4, 32711, Note_on_c, 0, 61, 0
4, 32712, Note_on_c, 0, 64, 78
4, 32735, Note_on_c, 0, 64, 0
4, 32736, Note_on_c, 0, 56, 78
4, 32759, Note_on_c, 0, 56, 0
4, 32760, Note_on_c, 0, 64, 78
4, 32783, Note_on_c, 0, 64, 0
4, 32784, Note_on_c, 0, 59, 78
4, 32807, Note_on_c, 0, 59, 0
4, 32808, Note_on_c, 0, 64, 78
4, 32831, Note_on_c, 0, 64, 0
4, 32832, Note_on_c, 0, 57, 78
4, 32855, Note_on_c, 0, 57, 0
4, 32856, Note_on_c, 0, 64, 78
4, 32879, Note_on_c, 0, 64, 0
4, 32880, Note_on_c, 0, 61, 78
4, 32903, Note_on_c, 0, 61, 0
4, 32904, Note_on_c, 0, 64, 78
4, 32927, Note_on_c, 0, 64, 0
4, 32928, Note_on_c, 0, 59, 78
4, 32951, Note_on_c, 0, 59, 0
4, 32952, Note_on_c, 0, 64, 78
4, 32975, Note_on_c, 0, 64, 0
4, 32976, Note_on_c, 0, 62, 78
4, 32999, Note_on_c, 0, 62, 0
4, 33000, Note_on_c, 0, 64, 78
4, 33023, Note_on_c, 0, 64, 0
4, 33024, Note_on_c, 0, 57, 78
4, 33047, Note_on_c, 0, 57, 0
4, 33048, Note_on_c, 0, 64, 78
4, 33071, Note_on_c, 0, 64, 0
4, 33072, Note_on_c, 0, 61, 78
4, 33095, Note_on_c, 0, 61, 0
4, 33096, Note_on_c, 0, 64, 78
4, 33119, Note_on_c, 0, 64, 0
4, 33120, Note_on_c, 0, 56, 78
4, 33143, Note_on_c, 0, 56, 0
4, 33144, Note_on_c, 0, 64, 78
4, 33167, Note_on_c, 0, 64, 0
4, 33168, Note_on_c, 0, 59, 78
4, 33191, Note_on_c, 0, 59, 0
4, 33192, Note_on_c, 0, 64, 78
4, 33215, Note_on_c, 0, 64, 0
4, 33216, Note_on_c, 0, 57, 78
4, 33239, Note_on_c, 0, 57, 0
4, 33240, Note_on_c, 0, 64, 78
4, 33263, Note_on_c, 0, 64, 0
4, 33264, Note_on_c, 0, 61, 78
4, 33287, Note_on_c, 0, 61, 0
4, 33288, Note_on_c, 0, 64, 78
4, 33311, Note_on_c, 0, 64, 0
4, 33312, Note_on_c, 0, 59, 78
4, 33335, Note_on_c, 0, 59, 0
4, 33336, Note_on_c, 0, 64, 78
4, 33359, Note_on_c, 0, 64, 0
4, 33360, Note_on_c, 0, 62, 78
4, 33383, Note_on_c, 0, 62, 0
4, 33384, Note_on_c, 0, 64, 78
4, 33407, Note_on_c, 0, 64, 0
4, 33408, Note_on_c, 0, 61, 78
4, 33497, Note_on_c, 0, 61, 0
4, 33600, Note_on_c, 0, 62, 78
4, 33689, Note_on_c, 0, 62, 0
4, 33792, Note_on_c, 0, 61, 78
4, 33792, Note_on_c, 0, 52, 78
4, 33837, Note_on_c, 0, 61, 0
4, 33837, Note_on_c, 0, 52, 0
4, 33840, Note_on_c, 0, 61, 78
4, 33840, Note_on_c, 0, 52, 78
4, 33885, Note_on_c, 0, 61, 0
4, 33885, Note_on_c, 0, 52, 0
4, 33888, Note_on_c, 0, 59, 78
4, 33888, Note_on_c, 0, 52, 78
4, 33933, Note_on_c, 0, 59, 0
4, 33933, Note_on_c, 0, 52, 0
4, 33936, Note_on_c, 0, 59, 78
4, 33936, Note_on_c, 0, 52, 78
4, 33981, Note_on_c, 0, 59, 0
4, 33981, Note_on_c, 0, 52, 0
4, 33984, Note_on_c, 0, 57, 78
4, 33984, Note_on_c, 0, 45, 78
4, 34073, Note_on_c, 0, 57, 0
4, 34073, Note_on_c, 0, 45, 0
4, 34224, Note_on_c, 0, 57, 66
4, 34224, Note_on_c, 0, 45, 66
4, 34269, Note_on_c, 0, 57, 0
4, 34269, Note_on_c, 0, 45, 0
4, 34272, Note_on_c, 0, 60, 66
4, 34272, Note_on_c, 0, 48, 66
4, 34317, Note_on_c, 0, 60, 0
4, 34317, Note_on_c, 0, 48, 0
4, 34320, Note_on_c, 0, 57, 66
4, 34320, Note_on_c, 0, 45, 66
4, 34365, Note_on_c, 0, 57, 0
4, 34365, Note_on_c, 0, 45, 0
4, 34416, Note_on_c, 0, 52, 66
4, 34416, Note_on_c, 0, 40, 66
4, 34461, Note_on_c, 0, 52, 0
4, 34461, Note_on_c, 0, 40, 0
4, 34464, Note_on_c, 0, 56, 66
4, 34464, Note_on_c, 0, 44, 66
4, 34509, Note_on_c, 0, 56, 0
4, 34509, Note_on_c, 0, 44, 0
4, 34512, Note_on_c, 0, 52, 66
4, 34512, Note_on_c, 0, 40, 66
4, 34557, Note_on_c, 0, 52, 0
4, 34557, Note_on_c, 0, 40, 0
4, 34608, Note_on_c, 0, 52, 66
4, 34608, Note_on_c, 0, 40, 66
4, 34653, Note_on_c, 0, 52, 0
4, 34653, Note_on_c, 0, 40, 0
4, 34656, Note_on_c, 0, 56, 66
4, 34656, Note_on_c, 0, 44, 66
4, 34701, Note_on_c, 0, 56, 0
4, 34701, Note_on_c, 0, 44, 0
4, 34704, Note_on_c, 0, 52, 66
4, 34704, Note_on_c, 0, 40, 66
4, 34749, Note_on_c, 0, 52, 0
4, 34749, Note_on_c, 0, 40, 0
4, 34800, Note_on_c, 0, 57, 66
4, 34800, Note_on_c, 0, 45, 66
4, 34845, Note_on_c, 0, 57, 0
4, 34845, Note_on_c, 0, 45, 0
4, 34848, Note_on_c, 0, 60, 66
4, 34848, Note_on_c, 0, 48, 66
4, 34893, Note_on_c, 0, 60, 0
4, 34893, Note_on_c, 0, 48, 0
4, 34896, Note_on_c, 0, 57, 66
4, 34896, Note_on_c, 0, 45, 66
4, 34941, Note_on_c, 0, 57, 0
4, 34941, Note_on_c, 0, 45, 0
4, 34992, Note_on_c, 0, 62, 66
4, 34992, Note_on_c, 0, 50, 66
4, 35037, Note_on_c, 0, 62, 0
4, 35037, Note_on_c, 0, 50, 0
4, 35040, Note_on_c, 0, 59, 66
4, 35040, Note_on_c, 0, 47, 66
4, 35085, Note_on_c, 0, 59, 0
4, 35085, Note_on_c, 0, 47, 0
4, 35088, Note_on_c, 0, 55, 67
4, 35088, Note_on_c, 0, 43, 67
4, 35133, Note_on_c, 0, 55, 0
4, 35133, Note_on_c, 0, 43, 0
4, 35184, Note_on_c, 0, 60, 69
4, 35184, Note_on_c, 0, 48, 69
4, 35229, Note_on_c, 0, 60, 0
4, 35229, Note_on_c, 0, 48, 0
4, 35232, Note_on_c, 0, 57, 70
4, 35232, Note_on_c, 0, 45, 70
4, 35277, Note_on_c, 0, 57, 0
4, 35277, Note_on_c, 0, 45, 0
4, 35280, Note_on_c, 0, 53, 70
4, 35280, Note_on_c, 0, 41, 70
4, 35325, Note_on_c, 0, 53, 0
4, 35325, Note_on_c, 0, 41, 0
4, 35376, Note_on_c, 0, 59, 72
4, 35376, Note_on_c, 0, 47, 72
4, 35421, Note_on_c, 0, 59, 0
4, 35421, Note_on_c, 0, 47, 0
4, 35424, Note_on_c, 0, 56, 73
4, 35424, Note_on_c, 0, 44, 73
4, 35469, Note_on_c, 0, 56, 0
4, 35469, Note_on_c, 0, 44, 0
4, 35472, Note_on_c, 0, 52, 74
4, 35472, Note_on_c, 0, 40, 74
4, 35517, Note_on_c, 0, 52, 0
4, 35517, Note_on_c, 0, 40, 0
4, 35568, Note_on_c, 0, 57, 75
4, 35568, Note_on_c, 0, 45, 75
4, 35613, Note_on_c, 0, 57, 0
4, 35613, Note_on_c, 0, 45, 0
4, 35616, Note_on_c, 0, 60, 76
4, 35616, Note_on_c, 0, 48, 76
4, 35661, Note_on_c, 0, 60, 0
4, 35661, Note_on_c, 0, 48, 0
4, 35664, Note_on_c, 0, 57, 77
4, 35664, Note_on_c, 0, 45, 77
4, 35709, Note_on_c, 0, 57, 0
4, 35709, Note_on_c, 0, 45, 0
4, 35760, Note_on_c, 0, 53, 79
4, 35760, Note_on_c, 0, 41, 79
4, 35805, Note_on_c, 0, 53, 0
4, 35805, Note_on_c, 0, 41, 0
4, 35808, Note_on_c, 0, 57, 80
4, 35808, Note_on_c, 0, 45, 80
4, 35853, Note_on_c, 0, 57, 0
4, 35853, Note_on_c, 0, 45, 0
4, 35856, Note_on_c, 0, 53, 80
4, 35856, Note_on_c, 0, 41, 80
4, 35901, Note_on_c, 0, 53, 0
4, 35901, Note_on_c, 0, 41, 0
4, 35952, Note_on_c, 0, 65, 82
4, 35952, Note_on_c, 0, 53, 82
4, 35997, Note_on_c, 0, 65, 0
4, 35997, Note_on_c, 0, 53, 0
4, 36000, Note_on_c, 0, 64, 83
4, 36000, Note_on_c, 0, 52, 83
4, 36045, Note_on_c, 0, 64, 0
4, 36045, Note_on_c, 0, 52, 0
4, 36048, Note_on_c, 0, 63, 84
4, 36048, Note_on_c, 0, 51, 84
4, 36093, Note_on_c, 0, 63, 0
4, 36093, Note_on_c, 0, 51, 0
4, 36096, Note_on_c, 0, 64, 85
4, 36096, Note_on_c, 0, 52, 85
4, 36185, Note_on_c, 0, 64, 0
4, 36185, Note_on_c, 0, 52, 0
4, 36288, Note_on_c, 0, 45, 85
4, 36288, Note_on_c, 0, 33, 85
4, 36377, Note_on_c, 0, 45, 0
4, 36377, Note_on_c, 0, 33, 0
4, 36528, Note_on_c, 0, 52, 85
4, 36528, Note_on_c, 0, 40, 85
4, 36573, Note_on_c, 0, 52, 0
4, 36573, Note_on_c, 0, 40, 0
4, 36576, Note_on_c, 0, 56, 85
4, 36576, Note_on_c, 0, 44, 85
4, 36621, Note_on_c, 0, 56, 0
4, 36621, Note_on_c, 0, 44, 0
4, 36624, Note_on_c, 0, 52, 85
4, 36624, Note_on_c, 0, 40, 85
4, 36669, Note_on_c, 0, 52, 0
4, 36669, Note_on_c, 0, 40, 0
4, 36672, Note_on_c, 0, 52, 85
4, 36672, Note_on_c, 0, 40, 85
4, 36761, Note_on_c, 0, 52, 0
4, 36761, Note_on_c, 0, 40, 0
4, 36912, Note_on_c, 0, 57, 85
4, 36912, Note_on_c, 0, 45, 85
4, 36957, Note_on_c, 0, 57, 0
4, 36957, Note_on_c, 0, 45, 0
4, 36960, Note_on_c, 0, 61, 85
4, 36960, Note_on_c, 0, 49, 85
4, 37005, Note_on_c, 0, 61, 0
4, 37005, Note_on_c, 0, 49, 0
4, 37008, Note_on_c, 0, 57, 85
4, 37008, Note_on_c, 0, 45, 85
4, 37053, Note_on_c, 0, 57, 0
4, 37053, Note_on_c, 0, 45, 0
4, 37056, Note_on_c, 0, 49, 72
4, 37079, Note_on_c, 0, 49, 0
4, 37080, Note_on_c, 0, 57, 72
4, 37103, Note_on_c, 0, 57, 0
4, 37104, Note_on_c, 0, 52, 72
4, 37127, Note_on_c, 0, 52, 0
4, 37128, Note_on_c, 0, 57, 72
4, 37151, Note_on_c, 0, 57, 0
4, 37152, Note_on_c, 0, 49, 72
4, 37175, Note_on_c, 0, 49, 0
4, 37176, Note_on_c, 0, 57, 72
4, 37199, Note_on_c, 0, 57, 0
4, 37200, Note_on_c, 0, 52, 72
4, 37223, Note_on_c, 0, 52, 0
4, 37224, Note_on_c, 0, 57, 72
4, 37247, Note_on_c, 0, 57, 0
4, 37248, Note_on_c, 0, 50, 72
4, 37271, Note_on_c, 0, 50, 0
4, 37272, Note_on_c, 0, 57, 72
4, 37295, Note_on_c, 0, 57, 0
4, 37296, Note_on_c, 0, 54, 72
4, 37319, Note_on_c, 0, 54, 0
4, 37320, Note_on_c, 0, 57, 72
4, 37343, Note_on_c, 0, 57, 0
4, 37344, Note_on_c, 0, 50, 72
4, 37367, Note_on_c, 0, 50, 0
4, 37368, Note_on_c, 0, 57, 72
4, 37391, Note_on_c, 0, 57, 0
4, 37392, Note_on_c, 0, 54, 72
4, 37415, Note_on_c, 0, 54, 0
4, 37416, Note_on_c, 0, 57, 72
4, 37439, Note_on_c, 0, 57, 0
4, 37440, Note_on_c, 0, 52, 72
4, 37463, Note_on_c, 0, 52, 0
4, 37464, Note_on_c, 0, 57, 72
4, 37487, Note_on_c, 0, 57, 0
4, 37488, Note_on_c, 0, 56, 72
4, 37511, Note_on_c, 0, 56, 0
4, 37512, Note_on_c, 0, 57, 72
4, 37535, Note_on_c, 0, 57, 0
4, 37536, Note_on_c, 0, 52, 72
4, 37559, Note_on_c, 0, 52, 0
4, 37560, Note_on_c, 0, 57, 72
4, 37583, Note_on_c, 0, 57, 0
4, 37584, Note_on_c, 0, 56, 72
4, 37607, Note_on_c, 0, 56, 0
4, 37608, Note_on_c, 0, 57, 72
4, 37631, Note_on_c, 0, 57, 0
4, 37632, Note_on_c, 0, 54, 72
4, 37655, Note_on_c, 0, 54, 0
4, 37656, Note_on_c, 0, 57, 72
4, 37679, Note_on_c, 0, 57, 0
4, 37680, Note_on_c, 0, 56, 72
4, 37703, Note_on_c, 0, 56, 0
4, 37704, Note_on_c, 0, 57, 72
4, 37727, Note_on_c, 0, 57, 0
4, 37728, Note_on_c, 0, 54, 72
4, 37751, Note_on_c, 0, 54, 0
4, 37752, Note_on_c, 0, 57, 72
4, 37775, Note_on_c, 0, 57, 0
4, 37776, Note_on_c, 0, 56, 72
4, 37799, Note_on_c, 0, 56, 0
4, 37800, Note_on_c, 0, 57, 72
4, 37823, Note_on_c, 0, 57, 0
4, 37824, Note_on_c, 0, 49, 72
4, 37847, Note_on_c, 0, 49, 0
4, 37848, Note_on_c, 0, 57, 72
4, 37871, Note_on_c, 0, 57, 0
4, 37872, Note_on_c, 0, 52, 72
4, 37895, Note_on_c, 0, 52, 0
4, 37896, Note_on_c, 0, 57, 72
4, 37919, Note_on_c, 0, 57, 0
4, 37920, Note_on_c, 0, 49, 72
4, 37943, Note_on_c, 0, 49, 0
4, 37944, Note_on_c, 0, 57, 72
4, 37967, Note_on_c, 0, 57, 0
4, 37968, Note_on_c, 0, 52, 72
4, 37991, Note_on_c, 0, 52, 0
4, 37992, Note_on_c, 0, 57, 72
4, 38015, Note_on_c, 0, 57, 0
4, 38016, Note_on_c, 0, 50, 72
4, 38039, Note_on_c, 0, 50, 0
4, 38040, Note_on_c, 0, 57, 72
4, 38063, Note_on_c, 0, 57, 0
4, 38064, Note_on_c, 0, 54, 72
4, 38087, Note_on_c, 0, 54, 0
4, 38088, Note_on_c, 0, 57, 72
4, 38111, Note_on_c, 0, 57, 0
4, 38112, Note_on_c, 0, 50, 72
4, 38135, Note_on_c, 0, 50, 0
4, 38136, Note_on_c, 0, 57, 72
4, 38159, Note_on_c, 0, 57, 0
4, 38160, Note_on_c, 0, 54, 72
4, 38183, Note_on_c, 0, 54, 0
4, 38184, Note_on_c, 0, 57, 72
4, 38207, Note_on_c, 0, 57, 0
4, 38208, Note_on_c, 0, 52, 72
4, 38231, Note_on_c, 0, 52, 0
4, 38232, Note_on_c, 0, 61, 72
4, 38255, Note_on_c, 0, 61, 0
4, 38256, Note_on_c, 0, 57, 72
4, 38279, Note_on_c, 0, 57, 0
4, 38280, Note_on_c, 0, 61, 72
4, 38303, Note_on_c, 0, 61, 0
4, 38304, Note_on_c, 0, 52, 72
4, 38327, Note_on_c, 0, 52, 0
4, 38328, Note_on_c, 0, 62, 72
4, 38351, Note_on_c, 0, 62, 0
4, 38352, Note_on_c, 0, 59, 72
4, 38375, Note_on_c, 0, 59, 0
4, 38376, Note_on_c, 0, 62, 72
4, 38399, Note_on_c, 0, 62, 0
4, 38400, Note_on_c, 0, 61, 72
4, 38400, Note_on_c, 0, 57, 72
4, 38489, Note_on_c, 0, 61, 0
4, 38489, Note_on_c, 0, 57, 0
4, 38544, Note_on_c, 0, 52, 85
4, 38544, Note_on_c, 0, 40, 85
4, 38589, Note_on_c, 0, 52, 0
4, 38589, Note_on_c, 0, 40, 0
4, 38592, Note_on_c, 0, 45, 85
4, 38681, Note_on_c, 0, 45, 0
4, 38736, Note_on_c, 0, 52, 85
4, 38736, Note_on_c, 0, 40, 85
4, 38781, Note_on_c, 0, 52, 0
4, 38781, Note_on_c, 0, 40, 0
4, 38784, Note_on_c, 0, 45, 85
4, 38784, Note_on_c, 0, 33, 85
4, 38873, Note_on_c, 0, 45, 0
4, 38873, Note_on_c, 0, 33, 0
4, 38976, Note_on_c, 0, 56, 66
4, 38976, Note_on_c, 0, 52, 66
4, 39021, Note_on_c, 0, 56, 0
4, 39021, Note_on_c, 0, 52, 0
4, 39024, Note_on_c, 0, 56, 66
4, 39024, Note_on_c, 0, 52, 66
4, 39069, Note_on_c, 0, 56, 0
4, 39069, Note_on_c, 0, 52, 0
4, 39072, Note_on_c, 0, 56, 66
4, 39072, Note_on_c, 0, 52, 66
4, 39117, Note_on_c, 0, 56, 0
4, 39117, Note_on_c, 0, 52, 0
4, 39120, Note_on_c, 0, 56, 66
4, 39120, Note_on_c, 0, 52, 66
4, 39165, Note_on_c, 0, 56, 0
4, 39165, Note_on_c, 0, 52, 0
4, 39168, Note_on_c, 0, 57, 66
4, 39168, Note_on_c, 0, 52, 66
4, 39213, Note_on_c, 0, 57, 0
4, 39213, Note_on_c, 0, 52, 0
4, 39216, Note_on_c, 0, 56, 66
4, 39216, Note_on_c, 0, 52, 66
4, 39261, Note_on_c, 0, 56, 0
4, 39261, Note_on_c, 0, 52, 0
4, 39264, Note_on_c, 0, 56, 66
4, 39264, Note_on_c, 0, 52, 66
4, 39309, Note_on_c, 0, 56, 0
4, 39309, Note_on_c, 0, 52, 0
4, 39312, Note_on_c, 0, 56, 66
4, 39312, Note_on_c, 0, 52, 66
4, 39357, Note_on_c, 0, 56, 0
4, 39357, Note_on_c, 0, 52, 0
4, 39408, Note_on_c, 0, 54, 66
4, 39408, Note_on_c, 0, 47, 66
4, 39453, Note_on_c, 0, 54, 0
4, 39453, Note_on_c, 0, 47, 0
4, 39456, Note_on_c, 0, 52, 66
4, 39456, Note_on_c, 0, 47, 66
4, 39501, Note_on_c, 0, 52, 0
4, 39501, Note_on_c, 0, 47, 0
4, 39504, Note_on_c, 0, 51, 66
4, 39504, Note_on_c, 0, 47, 66
4, 39549, Note_on_c, 0, 51, 0
4, 39549, Note_on_c, 0, 47, 0
4, 39600, Note_on_c, 0, 56, 66
4, 39600, Note_on_c, 0, 52, 66
4, 39645, Note_on_c, 0, 56, 0
4, 39645, Note_on_c, 0, 52, 0
4, 39648, Note_on_c, 0, 59, 66
4, 39648, Note_on_c, 0, 56, 66
4, 39693, Note_on_c, 0, 59, 0
4, 39693, Note_on_c, 0, 56, 0
4, 39696, Note_on_c, 0, 56, 66
4, 39696, Note_on_c, 0, 52, 66
4, 39741, Note_on_c, 0, 56, 0
4, 39741, Note_on_c, 0, 52, 0
4, 39792, Note_on_c, 0, 54, 66
4, 39792, Note_on_c, 0, 47, 66
4, 39837, Note_on_c, 0, 54, 0
4, 39837, Note_on_c, 0, 47, 0
4, 39840, Note_on_c, 0, 52, 66
4, 39840, Note_on_c, 0, 47, 66
4, 39885, Note_on_c, 0, 52, 0
4, 39885, Note_on_c, 0, 47, 0
4, 39888, Note_on_c, 0, 51, 66
4, 39888, Note_on_c, 0, 47, 66
4, 39933, Note_on_c, 0, 51, 0
4, 39933, Note_on_c, 0, 47, 0
4, 39984, Note_on_c, 0, 56, 66
4, 39984, Note_on_c, 0, 52, 66
4, 40029, Note_on_c, 0, 56, 0
4, 40029, Note_on_c, 0, 52, 0
4, 40032, Note_on_c, 0, 59, 66
4, 40032, Note_on_c, 0, 56, 66
4, 40077, Note_on_c, 0, 59, 0
4, 40077, Note_on_c, 0, 56, 0
4, 40080, Note_on_c, 0, 56, 66
4, 40080, Note_on_c, 0, 52, 66
4, 40125, Note_on_c, 0, 56, 0
4, 40125, Note_on_c, 0, 52, 0
4, 40176, Note_on_c, 0, 64, 85
4, 40176, Note_on_c, 0, 52, 85
4, 40221, Note_on_c, 0, 64, 0
4, 40221, Note_on_c, 0, 52, 0
4, 40224, Note_on_c, 0, 62, 85
4, 40224, Note_on_c, 0, 50, 85
4, 40269, Note_on_c, 0, 62, 0
4, 40269, Note_on_c, 0, 50, 0
4, 40272, Note_on_c, 0, 61, 85
4, 40272, Note_on_c, 0, 49, 85
4, 40317, Note_on_c, 0, 61, 0
4, 40317, Note_on_c, 0, 49, 0
4, 40320, Note_on_c, 0, 59, 85
4, 40320, Note_on_c, 0, 47, 85
4, 40365, Note_on_c, 0, 59, 0
4, 40365, Note_on_c, 0, 47, 0
4, 40368, Note_on_c, 0, 58, 85
4, 40368, Note_on_c, 0, 46, 85
4, 40413, Note_on_c, 0, 58, 0
4, 40413, Note_on_c, 0, 46, 0
4, 40416, Note_on_c, 0, 59, 85
4, 40416, Note_on_c, 0, 47, 85
4, 40505, Note_on_c, 0, 59, 0
4, 40505, Note_on_c, 0, 47, 0
4, 40560, Note_on_c, 0, 62, 85
4, 40560, Note_on_c, 0, 50, 85
4, 40605, Note_on_c, 0, 62, 0
4, 40605, Note_on_c, 0, 50, 0
4, 40608, Note_on_c, 0, 61, 85
4, 40608, Note_on_c, 0, 49, 85
4, 40653, Note_on_c, 0, 61, 0
4, 40653, Note_on_c, 0, 49, 0
4, 40656, Note_on_c, 0, 59, 85
4, 40656, Note_on_c, 0, 47, 85
4, 40701, Note_on_c, 0, 59, 0
4, 40701, Note_on_c, 0, 47, 0
4, 40704, Note_on_c, 0, 57, 85
4, 40704, Note_on_c, 0, 45, 85
4, 40749, Note_on_c, 0, 57, 0
4, 40749, Note_on_c, 0, 45, 0
4, 40752, Note_on_c, 0, 56, 85
4, 40752, Note_on_c, 0, 44, 85
4, 40797, Note_on_c, 0, 56, 0
4, 40797, Note_on_c, 0, 44, 0
4, 40800, Note_on_c, 0, 57, 85
4, 40800, Note_on_c, 0, 45, 85
4, 40889, Note_on_c, 0, 57, 0
4, 40889, Note_on_c, 0, 45, 0
4, 40896, Note_on_c, 0, 52, 85
4, 40896, Note_on_c, 0, 40, 85
4, 40985, Note_on_c, 0, 52, 0
4, 40985, Note_on_c, 0, 40, 0
4, 41088, Note_on_c, 0, 52, 85
4, 41265, Note_on_c, 0, 52, 0
4, 41280, Note_on_c, 0, 52, 85
4, 41369, Note_on_c, 0, 52, 0
4, 41472, Note_on_c, 0, 52, 85
4, 41649, Note_on_c, 0, 52, 0
4, 43200, Note_on_c, 0, 61, 85
4, 43200, Note_on_c, 0, 49, 85
4, 43289, Note_on_c, 0, 61, 0
4, 43289, Note_on_c, 0, 49, 0
4, 43392, Note_on_c, 0, 61, 85
4, 43569, Note_on_c, 0, 61, 0
4, 43584, Note_on_c, 0, 61, 85
4, 43673, Note_on_c, 0, 61, 0
4, 43776, Note_on_c, 0, 61, 85
4, 43953, Note_on_c, 0, 61, 0
4, 43968, Note_on_c, 0, 54, 85
4, 43968, Note_on_c, 0, 42, 85
4, 44057, Note_on_c, 0, 54, 0
4, 44057, Note_on_c, 0, 42, 0
4, 44160, Note_on_c, 0, 54, 85
4, 44337, Note_on_c, 0, 54, 0
4, 44352, Note_on_c, 0, 54, 85
4, 44441, Note_on_c, 0, 54, 0
4, 44544, Note_on_c, 0, 54, 85
4, 44721, Note_on_c, 0, 54, 0
4, 44736, Note_on_c, 0, 47, 85
4, 44736, Note_on_c, 0, 35, 85
4, 44825, Note_on_c, 0, 47, 0
4, 44825, Note_on_c, 0, 35, 0
4, 44928, Note_on_c, 0, 59, 85
4, 45105, Note_on_c, 0, 59, 0
4, 45120, Note_on_c, 0, 59, 85
4, 45209, Note_on_c, 0, 59, 0
4, 45312, Note_on_c, 0, 59, 85
4, 45489, Note_on_c, 0, 59, 0
4, 45504, Note_on_c, 0, 52, 85
4, 45504, Note_on_c, 0, 40, 85
4, 45593, Note_on_c, 0, 52, 0
4, 45593, Note_on_c, 0, 40, 0
4, 45696, Note_on_c, 0, 52, 85
4, 45873, Note_on_c, 0, 52, 0
4, 45888, Note_on_c, 0, 52, 85
4, 45977, Note_on_c, 0, 52, 0
4, 46080, Note_on_c, 0, 52, 85
4, 46257, Note_on_c, 0, 52, 0
4, 47040, Note_on_c, 0, 52, 60
4, 47063, Note_on_c, 0, 52, 0
4, 47064, Note_on_c, 0, 64, 60
4, 47087, Note_on_c, 0, 64, 0
4, 47088, Note_on_c, 0, 56, 61
4, 47111, Note_on_c, 0, 56, 0
4, 47112, Note_on_c, 0, 64, 61
4, 47135, Note_on_c, 0, 64, 0
4, 47136, Note_on_c, 0, 52, 62
4, 47159, Note_on_c, 0, 52, 0
4, 47160, Note_on_c, 0, 64, 62
4, 47183, Note_on_c, 0, 64, 0
4, 47184, Note_on_c, 0, 56, 63
4, 47207, Note_on_c, 0, 56, 0
4, 47208, Note_on_c, 0, 64, 63
4, 47231, Note_on_c, 0, 64, 0
4, 47232, Note_on_c, 0, 52, 64
4, 47255, Note_on_c, 0, 52, 0
4, 47256, Note_on_c, 0, 64, 65
4, 47279, Note_on_c, 0, 64, 0
4, 47280, Note_on_c, 0, 57, 65
4, 47303, Note_on_c, 0, 57, 0
4, 47304, Note_on_c, 0, 64, 66
4, 47327, Note_on_c, 0, 64, 0
4, 47328, Note_on_c, 0, 52, 66
4, 47351, Note_on_c, 0, 52, 0
4, 47352, Note_on_c, 0, 64, 67
4, 47375, Note_on_c, 0, 64, 0
4, 47376, Note_on_c, 0, 57, 67
4, 47399, Note_on_c, 0, 57, 0
4, 47400, Note_on_c, 0, 64, 68
4, 47423, Note_on_c, 0, 64, 0
4, 47424, Note_on_c, 0, 52, 69
4, 47447, Note_on_c, 0, 52, 0
4, 47448, Note_on_c, 0, 64, 69
4, 47471, Note_on_c, 0, 64, 0
4, 47472, Note_on_c, 0, 59, 70
4, 47495, Note_on_c, 0, 59, 0
4, 47496, Note_on_c, 0, 64, 70
4, 47519, Note_on_c, 0, 64, 0
4, 47520, Note_on_c, 0, 52, 71
4, 47543, Note_on_c, 0, 52, 0
4, 47544, Note_on_c, 0, 64, 71
4, 47567, Note_on_c, 0, 64, 0
4, 47568, Note_on_c, 0, 59, 72
4, 47591, Note_on_c, 0, 59, 0
4, 47592, Note_on_c, 0, 64, 72
4, 47615, Note_on_c, 0, 64, 0
4, 47616, Note_on_c, 0, 52, 73
4, 47639, Note_on_c, 0, 52, 0
4, 47640, Note_on_c, 0, 64, 74
4, 47663, Note_on_c, 0, 64, 0
4, 47664, Note_on_c, 0, 59, 74
4, 47687, Note_on_c, 0, 59, 0
4, 47688, Note_on_c, 0, 64, 75
4, 47711, Note_on_c, 0, 64, 0
4, 47712, Note_on_c, 0, 52, 75
4, 47735, Note_on_c, 0, 52, 0
4, 47736, Note_on_c, 0, 64, 76
4, 47759, Note_on_c, 0, 64, 0
4, 47760, Note_on_c, 0, 59, 76
4, 47783, Note_on_c, 0, 59, 0
4, 47784, Note_on_c, 0, 64, 77
4, 47807, Note_on_c, 0, 64, 0
4, 47808, Note_on_c, 0, 57, 78
4, 47831, Note_on_c, 0, 57, 0
4, 47832, Note_on_c, 0, 64, 78
4, 47855, Note_on_c, 0, 64, 0
4, 47856, Note_on_c, 0, 61, 78
4, 47879, Note_on_c, 0, 61, 0
4, 47880, Note_on_c, 0, 64, 78
4, 47903, Note_on_c, 0, 64, 0
4, 47904, Note_on_c, 0, 56, 78
4, 47927, Note_on_c, 0, 56, 0
4, 47928, Note_on_c, 0, 64, 78
4, 47951, Note_on_c, 0, 64, 0
4, 47952, Note_on_c, 0, 59, 78
4, 47975, Note_on_c, 0, 59, 0
4, 47976, Note_on_c, 0, 64, 78
4, 47999, Note_on_c, 0, 64, 0
4, 48000, Note_on_c, 0, 57, 78
4, 48023, Note_on_c, 0, 57, 0
4, 48024, Note_on_c, 0, 64, 78
4, 48047, Note_on_c, 0, 64, 0
4, 48048, Note_on_c, 0, 61, 78
4, 48071, Note_on_c, 0, 61, 0
4, 48072, Note_on_c, 0, 64, 78
4, 48095, Note_on_c, 0, 64, 0
4, 48096, Note_on_c, 0, 59, 78
4, 48119, Note_on_c, 0, 59, 0
4, 48120, Note_on_c, 0, 64, 78
4, 48143, Note_on_c, 0, 64, 0
4, 48144, Note_on_c, 0, 62, 78
4, 48167, Note_on_c, 0, 62, 0
4, 48168, Note_on_c, 0, 64, 78
4, 48191, Note_on_c, 0, 64, 0
4, 48192, Note_on_c, 0, 57, 78
4, 48215, Note_on_c, 0, 57, 0
4, 48216, Note_on_c, 0, 64, 78
4, 48239, Note_on_c, 0, 64, 0
4, 48240, Note_on_c, 0, 61, 78
4, 48263, Note_on_c, 0, 61, 0
4, 48264, Note_on_c, 0, 64, 78
4, 48287, Note_on_c, 0, 64, 0
4, 48288, Note_on_c, 0, 56, 78
4, 48311, Note_on_c, 0, 56, 0
4, 48312, Note_on_c, 0, 64, 78
4, 48335, Note_on_c, 0, 64, 0
4, 48336, Note_on_c, 0, 59, 78
4, 48359, Note_on_c, 0, 59, 0
4, 48360, Note_on_c, 0, 64, 78
4, 48383, Note_on_c, 0, 64, 0
4, 48384, Note_on_c, 0, 57, 78
4, 48407, Note_on_c, 0, 57, 0
4, 48408, Note_on_c, 0, 64, 78
4, 48431, Note_on_c, 0, 64, 0
4, 48432, Note_on_c, 0, 61, 78
4, 48455, Note_on_c, 0, 61, 0
4, 48456, Note_on_c, 0, 64, 78
4, 48479, Note_on_c, 0, 64, 0
4, 48480, Note_on_c, 0, 59, 78
4, 48503, Note_on_c, 0, 59, 0
4, 48504, Note_on_c, 0, 64, 78
4, 48527, Note_on_c, 0, 64, 0
4, 48528, Note_on_c, 0, 62, 78
4, 48551, Note_on_c, 0, 62, 0
4, 48552, Note_on_c, 0, 64, 78
4, 48575, Note_on_c, 0, 64, 0
4, 48576, Note_on_c, 0, 61, 78
4, 48665, Note_on_c, 0, 61, 0
4, 48768, Note_on_c, 0, 62, 78
4, 48857, Note_on_c, 0, 62, 0
4, 48960, Note_on_c, 0, 61, 78
4, 48960, Note_on_c, 0, 52, 78
4, 49005, Note_on_c, 0, 61, 0
4, 49005, Note_on_c, 0, 52, 0
4, 49008, Note_on_c, 0, 61, 78
4, 49008, Note_on_c, 0, 52, 78
4, 49053, Note_on_c, 0, 61, 0
4, 49053, Note_on_c, 0, 52, 0
4, 49056, Note_on_c, 0, 59, 78
4, 49056, Note_on_c, 0, 52, 78
4, 49101, Note_on_c, 0, 59, 0
4, 49101, Note_on_c, 0, 52, 0
4, 49104, Note_on_c, 0, 59, 78
4, 49104, Note_on_c, 0, 52, 78
4, 49149, Note_on_c, 0, 59, 0
4, 49149, Note_on_c, 0, 52, 0
4, 49152, Note_on_c, 0, 57, 78
4, 49152, Note_on_c, 0, 45, 78
4, 49241, Note_on_c, 0, 57, 0
4, 49241, Note_on_c, 0, 45, 0
4, 49392, Note_on_c, 0, 57, 66
4, 49392, Note_on_c, 0, 45, 66
4, 49437, Note_on_c, 0, 57, 0
4, 49437, Note_on_c, 0, 45, 0
4, 49440, Note_on_c, 0, 60, 66
4, 49440, Note_on_c, 0, 48, 66
4, 49485, Note_on_c, 0, 60, 0
4, 49485, Note_on_c, 0, 48, 0
4, 49488, Note_on_c, 0, 57, 66
4, 49488, Note_on_c, 0, 45, 66
4, 49533, Note_on_c, 0, 57, 0
4, 49533, Note_on_c, 0, 45, 0
4, 49584, Note_on_c, 0, 52, 66
4, 49584, Note_on_c, 0, 40, 66
4, 49629, Note_on_c, 0, 52, 0
4, 49629, Note_on_c, 0, 40, 0
4, 49632, Note_on_c, 0, 56, 66
4, 49632, Note_on_c, 0, 44, 66
4, 49677, Note_on_c, 0, 56, 0
4, 49677, Note_on_c, 0, 44, 0
4, 49680, Note_on_c, 0, 52, 66
4, 49680, Note_on_c, 0, 40, 66
4, 49725, Note_on_c, 0, 52, 0
4, 49725, Note_on_c, 0, 40, 0
4, 49776, Note_on_c, 0, 52, 66
4, 49776, Note_on_c, 0, 40, 66
4, 49821, Note_on_c, 0, 52, 0
4, 49821, Note_on_c, 0, 40, 0
4, 49824, Note_on_c, 0, 56, 66
4, 49824, Note_on_c, 0, 44, 66
4, 49869, Note_on_c, 0, 56, 0
4, 49869, Note_on_c, 0, 44, 0
4, 49872, Note_on_c, 0, 52, 66
4, 49872, Note_on_c, 0, 40, 66
4, 49917, Note_on_c, 0, 52, 0
4, 49917, Note_on_c, 0, 40, 0
4, 49968, Note_on_c, 0, 57, 66
4, 49968, Note_on_c, 0, 45, 66
4, 50013, Note_on_c, 0, 57, 0
4, 50013, Note_on_c, 0, 45, 0
4, 50016, Note_on_c, 0, 60, 66
4, 50016, Note_on_c, 0, 48, 66
4, 50061, Note_on_c, 0, 60, 0
4, 50061, Note_on_c, 0, 48, 0
4, 50064, Note_on_c, 0, 57, 66
4, 50064, Note_on_c, 0, 45, 66
4, 50109, Note_on_c, 0, 57, 0
4, 50109, Note_on_c, 0, 45, 0
4, 50160, Note_on_c, 0, 62, 66
4, 50160, Note_on_c, 0, 50, 66
4, 50205, Note_on_c, 0, 62, 0
4, 50205, Note_on_c, 0, 50, 0
4, 50208, Note_on_c, 0, 59, 66
4, 50208, Note_on_c, 0, 47, 66
4, 50253, Note_on_c, 0, 59, 0
4, 50253, Note_on_c, 0, 47, 0
4, 50256, Note_on_c, 0, 55, 67
4, 50256, Note_on_c, 0, 43, 67
4, 50301, Note_on_c, 0, 55, 0
4, 50301, Note_on_c, 0, 43, 0
4, 50352, Note_on_c, 0, 60, 69
4, 50352, Note_on_c, 0, 48, 69
4, 50397, Note_on_c, 0, 60, 0
4, 50397, Note_on_c, 0, 48, 0
4, 50400, Note_on_c, 0, 57, 70
4, 50400, Note_on_c, 0, 45, 70
4, 50445, Note_on_c, 0, 57, 0
4, 50445, Note_on_c, 0, 45, 0
4, 50448, Note_on_c, 0, 53, 70
4, 50448, Note_on_c, 0, 41, 70
4, 50493, Note_on_c, 0, 53, 0
4, 50493, Note_on_c, 0, 41, 0
4, 50544, Note_on_c, 0, 59, 72
4, 50544, Note_on_c, 0, 47, 72
4, 50589, Note_on_c, 0, 59, 0
4, 50589, Note_on_c, 0, 47, 0
4, 50592, Note_on_c, 0, 56, 73
4, 50592, Note_on_c, 0, 44, 73
4, 50637, Note_on_c, 0, 56, 0
4, 50637, Note_on_c, 0, 44, 0
4, 50640, Note_on_c, 0, 52, 74
4, 50640, Note_on_c, 0, 40, 74
4, 50685, Note_on_c, 0, 52, 0
4, 50685, Note_on_c, 0, 40, 0
4, 50736, Note_on_c, 0, 57, 75
4, 50736, Note_on_c, 0, 45, 75
4, 50781, Note_on_c, 0, 57, 0
4, 50781, Note_on_c, 0, 45, 0
4, 50784, Note_on_c, 0, 60, 76
4, 50784, Note_on_c, 0, 48, 76
4, 50829, Note_on_c, 0, 60, 0
4, 50829, Note_on_c, 0, 48, 0
4, 50832, Note_on_c, 0, 57, 77
4, 50832, Note_on_c, 0, 45, 77
4, 50877, Note_on_c, 0, 57, 0
4, 50877, Note_on_c, 0, 45, 0
4, 50928, Note_on_c, 0, 53, 79
4, 50928, Note_on_c, 0, 41, 79
4, 50973, Note_on_c, 0, 53, 0
4, 50973, Note_on_c, 0, 41, 0
4, 50976, Note_on_c, 0, 57, 80
4, 50976, Note_on_c, 0, 45, 80
4, 51021, Note_on_c, 0, 57, 0
4, 51021, Note_on_c, 0, 45, 0
4, 51024, Note_on_c, 0, 53, 80
4, 51024, Note_on_c, 0, 41, 80
4, 51069, Note_on_c, 0, 53, 0
4, 51069, Note_on_c, 0, 41, 0
4, 51120, Note_on_c, 0, 65, 82
4, 51120, Note_on_c, 0, 53, 82
4, 51165, Note_on_c, 0, 65, 0
4, 51165, Note_on_c, 0, 53, 0
4, 51168, Note_on_c, 0, 64, 83
4, 51168, Note_on_c, 0, 52, 83
4, 51213, Note_on_c, 0, 64, 0
4, 51213, Note_on_c, 0, 52, 0
4, 51216, Note_on_c, 0, 63, 84
4, 51216, Note_on_c, 0, 51, 84
4, 51261, Note_on_c, 0, 63, 0
4, 51261, Note_on_c, 0, 51, 0
4, 51264, Note_on_c, 0, 64, 85
4, 51264, Note_on_c, 0, 52, 85
4, 51353, Note_on_c, 0, 64, 0
4, 51353, Note_on_c, 0, 52, 0
4, 51456, Note_on_c, 0, 45, 85
4, 51456, Note_on_c, 0, 33, 85
4, 51545, Note_on_c, 0, 45, 0
4, 51545, Note_on_c, 0, 33, 0
4, 51696, Note_on_c, 0, 52, 85
4, 51696, Note_on_c, 0, 40, 85
4, 51741, Note_on_c, 0, 52, 0
4, 51741, Note_on_c, 0, 40, 0
4, 51744, Note_on_c, 0, 56, 85
4, 51744, Note_on_c, 0, 44, 85
4, 51789, Note_on_c, 0, 56, 0
4, 51789, Note_on_c, 0, 44, 0
4, 51792, Note_on_c, 0, 52, 85
4, 51792, Note_on_c, 0, 40, 85
4, 51837, Note_on_c, 0, 52, 0
4, 51837, Note_on_c, 0, 40, 0
4, 51840, Note_on_c, 0, 52, 85
4, 51840, Note_on_c, 0, 40, 85
4, 51929, Note_on_c, 0, 52, 0
4, 51929, Note_on_c, 0, 40, 0
4, 52080, Note_on_c, 0, 57, 85
4, 52080, Note_on_c, 0, 45, 85
4, 52125, Note_on_c, 0, 57, 0
4, 52125, Note_on_c, 0, 45, 0
4, 52128, Note_on_c, 0, 61, 85
4, 52128, Note_on_c, 0, 49, 85
4, 52173, Note_on_c, 0, 61, 0
4, 52173, Note_on_c, 0, 49, 0
4, 52176, Note_on_c, 0, 57, 85
4, 52176, Note_on_c, 0, 45, 85
4, 52221, Note_on_c, 0, 57, 0
4, 52221, Note_on_c, 0, 45, 0
4, 52224, Note_on_c, 0, 49, 72
4, 52247, Note_on_c, 0, 49, 0
4, 52248, Note_on_c, 0, 57, 72
4, 52271, Note_on_c, 0, 57, 0
4, 52272, Note_on_c, 0, 52, 72
4, 52295, Note_on_c, 0, 52, 0
4, 52296, Note_on_c, 0, 57, 72
4, 52319, Note_on_c, 0, 57, 0
4, 52320, Note_on_c, 0, 49, 72
4, 52343, Note_on_c, 0, 49, 0
4, 52344, Note_on_c, 0, 57, 72
4, 52367, Note_on_c, 0, 57, 0
4, 52368, Note_on_c, 0, 52, 72
4, 52391, Note_on_c, 0, 52, 0
4, 52392, Note_on_c, 0, 57, 72
4, 52415, Note_on_c, 0, 57, 0
4, 52416, Note_on_c, 0, 50, 72
4, 52439, Note_on_c, 0, 50, 0
4, 52440, Note_on_c, 0, 57, 72
4, 52463, Note_on_c, 0, 57, 0
4, 52464, Note_on_c, 0, 54, 72
4, 52487, Note_on_c, 0, 54, 0
4, 52488, Note_on_c, 0, 57, 72
4, 52511, Note_on_c, 0, 57, 0
4, 52512, Note_on_c, 0, 50, 72
4, 52535, Note_on_c, 0, 50, 0
4, 52536, Note_on_c, 0, 57, 72
4, 52559, Note_on_c, 0, 57, 0
4, 52560, Note_on_c, 0, 54, 72
4, 52583, Note_on_c, 0, 54, 0
4, 52584, Note_on_c, 0, 57, 72
4, 52607, Note_on_c, 0, 57, 0
4, 52608, Note_on_c, 0, 52, 72
4, 52631, Note_on_c, 0, 52, 0
4, 52632, Note_on_c, 0, 57, 72
4, 52655, Note_on_c, 0, 57, 0
4, 52656, Note_on_c, 0, 56, 72
4, 52679, Note_on_c, 0, 56, 0
4, 52680, Note_on_c, 0, 57, 72
4, 52703, Note_on_c, 0, 57, 0
4, 52704, Note_on_c, 0, 52, 72
4, 52727, Note_on_c, 0, 52, 0
4, 52728, Note_on_c, 0, 57, 72
4, 52751, Note_on_c, 0, 57, 0
4, 52752, Note_on_c, 0, 56, 72
4, 52775, Note_on_c, 0, 56, 0
4, 52776, Note_on_c, 0, 57, 72
4, 52799, Note_on_c, 0, 57, 0
4, 52800, Note_on_c, 0, 54, 72
4, 52823, Note_on_c, 0, 54, 0
4, 52824, Note_on_c, 0, 57, 72
4, 52847, Note_on_c, 0, 57, 0
4, 52848, Note_on_c, 0, 56, 72
4, 52871, Note_on_c, 0, 56, 0
4, 52872, Note_on_c, 0, 57, 72
4, 52895, Note_on_c, 0, 57, 0
4, 52896, Note_on_c, 0, 54, 72
4, 52919, Note_on_c, 0, 54, 0
4, 52920, Note_on_c, 0, 57, 72
4, 52943, Note_on_c, 0, 57, 0
4, 52944, Note_on_c, 0, 56, 72
4, 52967, Note_on_c, 0, 56, 0
4, 52968, Note_on_c, 0, 57, 72
4, 52991, Note_on_c, 0, 57, 0
4, 52992, Note_on_c, 0, 49, 72
4, 53015, Note_on_c, 0, 49, 0
4, 53016, Note_on_c, 0, 57, 72
4, 53039, Note_on_c, 0, 57, 0
4, 53040, Note_on_c, 0, 52, 72
4, 53063, Note_on_c, 0, 52, 0
4, 53064, Note_on_c, 0, 57, 72
4, 53087, Note_on_c, 0, 57, 0
4, 53088, Note_on_c, 0, 49, 72
4, 53111, Note_on_c, 0, 49, 0
4, 53112, Note_on_c, 0, 57, 72
4, 53135, Note_on_c, 0, 57, 0
4, 53136, Note_on_c, 0, 52, 72
4, 53159, Note_on_c, 0, 52, 0
4, 53160, Note_on_c, 0, 57, 72
4, 53183, Note_on_c, 0, 57, 0
4, 53184, Note_on_c, 0, 50, 72
4, 53207, Note_on_c, 0, 50, 0
4, 53208, Note_on_c, 0, 57, 72
4, 53231, Note_on_c, 0, 57, 0
4, 53232, Note_on_c, 0, 54, 72
4, 53255, Note_on_c, 0, 54, 0
4, 53256, Note_on_c, 0, 57, 72
4, 53279, Note_on_c, 0, 57, 0
4, 53280, Note_on_c, 0, 50, 72
4, 53303, Note_on_c, 0, 50, 0
4, 53304, Note_on_c, 0, 57, 72
4, 53327, Note_on_c, 0, 57, 0
4, 53328, Note_on_c, 0, 54, 72
4, 53351, Note_on_c, 0, 54, 0
4, 53352, Note_on_c, 0, 57, 72
4, 53375, Note_on_c, 0, 57, 0
4, 53376, Note_on_c, 0, 52, 72
4, 53399, Note_on_c, 0, 52, 0
4, 53400, Note_on_c, 0, 61, 72
4, 53423, Note_on_c, 0, 61, 0
4, 53424, Note_on_c, 0, 57, 72
4, 53447, Note_on_c, 0, 57, 0
4, 53448, Note_on_c, 0, 61, 72
4, 53471, Note_on_c, 0, 61, 0
4, 53472, Note_on_c, 0, 52, 72
4, 53495, Note_on_c, 0, 52, 0
4, 53496, Note_on_c, 0, 62, 72
4, 53519, Note_on_c, 0, 62, 0
4, 53520, Note_on_c, 0, 59, 72
4, 53543, Note_on_c, 0, 59, 0
4, 53544, Note_on_c, 0, 62, 72
4, 53567, Note_on_c, 0, 62, 0
4, 53568, Note_on_c, 0, 61, 72
4, 53568, Note_on_c, 0, 57, 72
4, 53657, Note_on_c, 0, 61, 0
4, 53657, Note_on_c, 0, 57, 0
4, 53712, Note_on_c, 0, 52, 85
4, 53712, Note_on_c, 0, 40, 85
4, 53757, Note_on_c, 0, 52, 0
4, 53757, Note_on_c, 0, 40, 0
4, 53760, Note_on_c, 0, 45, 85
4, 53849, Note_on_c, 0, 45, 0
4, 53904, Note_on_c, 0, 52, 85
4, 53904, Note_on_c, 0, 40, 85
4, 53949, Note_on_c, 0, 52, 0
4, 53949, Note_on_c, 0, 40, 0
4, 53952, Note_on_c, 0, 45, 85
4, 53952, Note_on_c, 0, 33, 85
4, 54041, Note_on_c, 0, 45, 0
4, 54041, Note_on_c, 0, 33, 0
4, 54144, Note_on_c, 0, 33, 0
4, 54321, Note_on_c, 0, 33, 0
4, 54336, End_track
5, 0, Start_track
5, 0, Title_t, "<No Title>"
5, 0, End_track
0, 0, End_of_file
