0, 0, Header, 1, 6, 96
1, 0, Start_track
1, 0, Copyright_t, "Copyright  2000 <copyright holder>"
1, 0, Text_t, "Piano Solo\015\012"
1, 0, Text_t, "<composer>\015\012"
1, 0, Sequencer_specific, 16, 68, 87, 77, 90, 86, 82, 83, 78, 32, 55, 46, 48, 46, 56, 46, 48
1, 0, Time_signature, 6, 3, 24, 8
1, 0, Tempo, 1200000
1, 0, Key_signature, -4, "major"
1, 22464, End_track
2, 0, Start_track
2, 0, Program_c, 0, 0
2, 0, Control_c, 0, 7, 127
2, 0, Control_c, 0, 10, 64
2, 0, Note_on_c, 0, 73, 65
2, 6, Note_on_c, 0, 73, 0
2, 6, Note_on_c, 0, 72, 65
2, 12, Note_on_c, 0, 72, 0
2, 12, Note_on_c, 0, 71, 65
2, 18, Note_on_c, 0, 71, 0
2, 18, Note_on_c, 0, 72, 65
2, 67, Note_on_c, 0, 72, 0
2, 72, Note_on_c, 0, 73, 65
2, 95, Note_on_c, 0, 73, 0
2, 96, Note_on_c, 0, 72, 65
2, 141, Note_on_c, 0, 72, 0
2, 144, Note_on_c, 0, 77, 65
2, 156, Note_on_c, 0, 77, 0
2, 156, Note_on_c, 0, 79, 65
2, 168, Note_on_c, 0, 79, 0
2, 168, Note_on_c, 0, 80, 65
2, 191, Note_on_c, 0, 80, 0
2, 288, Note_on_c, 0, 73, 65
2, 294, Note_on_c, 0, 73, 0
2, 294, Note_on_c, 0, 72, 65
2, 300, Note_on_c, 0, 72, 0
2, 300, Note_on_c, 0, 71, 65
2, 306, Note_on_c, 0, 71, 0
2, 306, Note_on_c, 0, 72, 65
2, 355, Note_on_c, 0, 72, 0
2, 360, Note_on_c, 0, 73, 65
2, 383, Note_on_c, 0, 73, 0
2, 384, Note_on_c, 0, 72, 65
2, 429, Note_on_c, 0, 72, 0
2, 432, Note_on_c, 0, 79, 65
2, 444, Note_on_c, 0, 79, 0
2, 444, Note_on_c, 0, 80, 65
2, 456, Note_on_c, 0, 80, 0
2, 456, Note_on_c, 0, 82, 65
2, 479, Note_on_c, 0, 82, 0
2, 576, Note_on_c, 0, 73, 65
2, 582, Note_on_c, 0, 73, 0
2, 582, Note_on_c, 0, 72, 65
2, 588, Note_on_c, 0, 72, 0
2, 588, Note_on_c, 0, 71, 65
2, 594, Note_on_c, 0, 71, 0
2, 594, Note_on_c, 0, 72, 65
2, 643, Note_on_c, 0, 72, 0
2, 648, Note_on_c, 0, 73, 65
2, 671, Note_on_c, 0, 73, 0
2, 672, Note_on_c, 0, 72, 65
2, 717, Note_on_c, 0, 72, 0
2, 720, Note_on_c, 0, 77, 65
2, 732, Note_on_c, 0, 77, 0
2, 732, Note_on_c, 0, 79, 65
2, 744, Note_on_c, 0, 79, 0
2, 744, Note_on_c, 0, 80, 65
2, 767, Note_on_c, 0, 80, 0
2, 816, Note_on_c, 0, 68, 65
2, 831, Note_on_c, 0, 68, 0
2, 832, Note_on_c, 0, 71, 65
2, 847, Note_on_c, 0, 71, 0
2, 848, Note_on_c, 0, 77, 65
2, 863, Note_on_c, 0, 77, 0
2, 864, Note_on_c, 0, 77, 81
2, 912, Note_on_c, 0, 77, 0
2, 912, Note_on_c, 0, 76, 65
2, 927, Note_on_c, 0, 76, 0
2, 928, Note_on_c, 0, 79, 65
2, 943, Note_on_c, 0, 79, 0
2, 944, Note_on_c, 0, 71, 65
2, 960, Note_on_c, 0, 71, 0
2, 960, Note_on_c, 0, 72, 65
2, 975, Note_on_c, 0, 72, 0
2, 976, Note_on_c, 0, 76, 65
2, 991, Note_on_c, 0, 76, 0
2, 992, Note_on_c, 0, 67, 65
2, 1007, Note_on_c, 0, 67, 0
2, 1152, Note_on_c, 0, 77, 65
2, 1158, Note_on_c, 0, 77, 0
2, 1158, Note_on_c, 0, 75, 65
2, 1164, Note_on_c, 0, 75, 0
2, 1164, Note_on_c, 0, 73, 65
2, 1170, Note_on_c, 0, 73, 0
2, 1170, Note_on_c, 0, 75, 65
2, 1241, Note_on_c, 0, 75, 0
2, 1264, Note_on_c, 0, 80, 65
2, 1279, Note_on_c, 0, 80, 0
2, 1280, Note_on_c, 0, 75, 65
2, 1295, Note_on_c, 0, 75, 0
2, 1296, Note_on_c, 0, 75, 65
2, 1311, Note_on_c, 0, 75, 0
2, 1312, Note_on_c, 0, 73, 65
2, 1327, Note_on_c, 0, 73, 0
2, 1328, Note_on_c, 0, 72, 65
2, 1343, Note_on_c, 0, 72, 0
2, 1344, Note_on_c, 0, 70, 65
2, 1364, Note_on_c, 0, 70, 0
2, 1408, Note_on_c, 0, 82, 65
2, 1423, Note_on_c, 0, 82, 0
2, 1424, Note_on_c, 0, 73, 65
2, 1439, Note_on_c, 0, 73, 0
2, 1440, Note_on_c, 0, 73, 65
2, 1455, Note_on_c, 0, 73, 0
2, 1456, Note_on_c, 0, 72, 65
2, 1471, Note_on_c, 0, 72, 0
2, 1472, Note_on_c, 0, 70, 65
2, 1487, Note_on_c, 0, 70, 0
2, 1488, Note_on_c, 0, 68, 65
2, 1508, Note_on_c, 0, 68, 0
2, 1552, Note_on_c, 0, 80, 65
2, 1567, Note_on_c, 0, 80, 0
2, 1568, Note_on_c, 0, 75, 65
2, 1583, Note_on_c, 0, 75, 0
2, 1584, Note_on_c, 0, 75, 65
2, 1599, Note_on_c, 0, 75, 0
2, 1600, Note_on_c, 0, 73, 65
2, 1615, Note_on_c, 0, 73, 0
2, 1616, Note_on_c, 0, 72, 65
2, 1631, Note_on_c, 0, 72, 0
2, 1632, Note_on_c, 0, 70, 65
2, 1652, Note_on_c, 0, 70, 0
2, 1696, Note_on_c, 0, 82, 65
2, 1711, Note_on_c, 0, 82, 0
2, 1712, Note_on_c, 0, 73, 65
2, 1727, Note_on_c, 0, 73, 0
2, 1728, Note_on_c, 0, 72, 65
2, 1743, Note_on_c, 0, 72, 0
2, 1744, Note_on_c, 0, 77, 65
2, 1759, Note_on_c, 0, 77, 0
2, 1760, Note_on_c, 0, 75, 65
2, 1775, Note_on_c, 0, 75, 0
2, 1776, Note_on_c, 0, 77, 65
2, 1782, Note_on_c, 0, 77, 0
2, 1782, Note_on_c, 0, 75, 65
2, 1788, Note_on_c, 0, 75, 0
2, 1788, Note_on_c, 0, 77, 65
2, 1794, Note_on_c, 0, 77, 0
2, 1794, Note_on_c, 0, 75, 65
2, 1800, Note_on_c, 0, 75, 0
2, 1800, Note_on_c, 0, 77, 65
2, 1806, Note_on_c, 0, 77, 0
2, 1806, Note_on_c, 0, 75, 65
2, 1812, Note_on_c, 0, 75, 0
2, 1812, Note_on_c, 0, 77, 65
2, 1818, Note_on_c, 0, 77, 0
2, 1818, Note_on_c, 0, 75, 65
2, 1824, Note_on_c, 0, 75, 0
2, 1824, Note_on_c, 0, 77, 65
2, 1830, Note_on_c, 0, 77, 0
2, 1830, Note_on_c, 0, 75, 65
2, 1836, Note_on_c, 0, 75, 0
2, 1836, Note_on_c, 0, 77, 65
2, 1842, Note_on_c, 0, 77, 0
2, 1842, Note_on_c, 0, 75, 65
2, 1848, Note_on_c, 0, 75, 0
2, 1848, Note_on_c, 0, 77, 65
2, 1854, Note_on_c, 0, 77, 0
2, 1854, Note_on_c, 0, 75, 65
2, 1860, Note_on_c, 0, 75, 0
2, 1860, Note_on_c, 0, 73, 65
2, 1866, Note_on_c, 0, 73, 0
2, 1866, Note_on_c, 0, 75, 65
2, 1872, Note_on_c, 0, 75, 0
2, 1872, Note_on_c, 0, 80, 65
2, 1887, Note_on_c, 0, 80, 0
2, 1888, Note_on_c, 0, 72, 65
2, 1903, Note_on_c, 0, 72, 0
2, 1904, Note_on_c, 0, 75, 65
2, 1919, Note_on_c, 0, 75, 0
2, 1920, Note_on_c, 0, 77, 65
2, 1926, Note_on_c, 0, 77, 0
2, 1926, Note_on_c, 0, 75, 65
2, 1932, Note_on_c, 0, 75, 0
2, 1932, Note_on_c, 0, 77, 65
2, 1938, Note_on_c, 0, 77, 0
2, 1938, Note_on_c, 0, 75, 65
2, 1944, Note_on_c, 0, 75, 0
2, 1944, Note_on_c, 0, 77, 65
2, 1950, Note_on_c, 0, 77, 0
2, 1950, Note_on_c, 0, 75, 65
2, 1956, Note_on_c, 0, 75, 0
2, 1956, Note_on_c, 0, 77, 65
2, 1962, Note_on_c, 0, 77, 0
2, 1962, Note_on_c, 0, 75, 65
2, 1968, Note_on_c, 0, 75, 0
2, 1968, Note_on_c, 0, 77, 65
2, 1974, Note_on_c, 0, 77, 0
2, 1974, Note_on_c, 0, 75, 65
2, 1980, Note_on_c, 0, 75, 0
2, 1980, Note_on_c, 0, 77, 65
2, 1986, Note_on_c, 0, 77, 0
2, 1986, Note_on_c, 0, 75, 65
2, 1992, Note_on_c, 0, 75, 0
2, 1992, Note_on_c, 0, 77, 65
2, 1998, Note_on_c, 0, 77, 0
2, 1998, Note_on_c, 0, 75, 65
2, 2004, Note_on_c, 0, 75, 0
2, 2004, Note_on_c, 0, 73, 65
2, 2010, Note_on_c, 0, 73, 0
2, 2010, Note_on_c, 0, 75, 65
2, 2016, Note_on_c, 0, 75, 0
2, 2016, Note_on_c, 0, 80, 65
2, 2031, Note_on_c, 0, 80, 0
2, 2032, Note_on_c, 0, 72, 65
2, 2047, Note_on_c, 0, 72, 0
2, 2048, Note_on_c, 0, 73, 65
2, 2063, Note_on_c, 0, 73, 0
2, 2064, Note_on_c, 0, 75, 65
2, 2070, Note_on_c, 0, 75, 0
2, 2070, Note_on_c, 0, 73, 65
2, 2076, Note_on_c, 0, 73, 0
2, 2076, Note_on_c, 0, 75, 65
2, 2082, Note_on_c, 0, 75, 0
2, 2082, Note_on_c, 0, 73, 65
2, 2088, Note_on_c, 0, 73, 0
2, 2088, Note_on_c, 0, 75, 65
2, 2094, Note_on_c, 0, 75, 0
2, 2094, Note_on_c, 0, 73, 65
2, 2100, Note_on_c, 0, 73, 0
2, 2100, Note_on_c, 0, 75, 65
2, 2106, Note_on_c, 0, 75, 0
2, 2106, Note_on_c, 0, 73, 65
2, 2112, Note_on_c, 0, 73, 0
2, 2112, Note_on_c, 0, 75, 65
2, 2118, Note_on_c, 0, 75, 0
2, 2118, Note_on_c, 0, 73, 65
2, 2124, Note_on_c, 0, 73, 0
2, 2124, Note_on_c, 0, 75, 65
2, 2130, Note_on_c, 0, 75, 0
2, 2130, Note_on_c, 0, 73, 65
2, 2136, Note_on_c, 0, 73, 0
2, 2136, Note_on_c, 0, 75, 65
2, 2142, Note_on_c, 0, 75, 0
2, 2142, Note_on_c, 0, 73, 65
2, 2148, Note_on_c, 0, 73, 0
2, 2148, Note_on_c, 0, 72, 65
2, 2154, Note_on_c, 0, 72, 0
2, 2154, Note_on_c, 0, 73, 65
2, 2160, Note_on_c, 0, 73, 0
2, 2160, Note_on_c, 0, 80, 65
2, 2175, Note_on_c, 0, 80, 0
2, 2176, Note_on_c, 0, 72, 65
2, 2191, Note_on_c, 0, 72, 0
2, 2192, Note_on_c, 0, 73, 65
2, 2207, Note_on_c, 0, 73, 0
2, 2208, Note_on_c, 0, 75, 65
2, 2214, Note_on_c, 0, 75, 0
2, 2214, Note_on_c, 0, 73, 65
2, 2220, Note_on_c, 0, 73, 0
2, 2220, Note_on_c, 0, 75, 65
2, 2226, Note_on_c, 0, 75, 0
2, 2226, Note_on_c, 0, 73, 65
2, 2232, Note_on_c, 0, 73, 0
2, 2232, Note_on_c, 0, 75, 65
2, 2238, Note_on_c, 0, 75, 0
2, 2238, Note_on_c, 0, 73, 65
2, 2244, Note_on_c, 0, 73, 0
2, 2244, Note_on_c, 0, 75, 65
2, 2250, Note_on_c, 0, 75, 0
2, 2250, Note_on_c, 0, 73, 65
2, 2256, Note_on_c, 0, 73, 0
2, 2256, Note_on_c, 0, 75, 65
2, 2262, Note_on_c, 0, 75, 0
2, 2262, Note_on_c, 0, 73, 65
2, 2268, Note_on_c, 0, 73, 0
2, 2268, Note_on_c, 0, 75, 65
2, 2274, Note_on_c, 0, 75, 0
2, 2274, Note_on_c, 0, 73, 65
2, 2280, Note_on_c, 0, 73, 0
2, 2280, Note_on_c, 0, 75, 65
2, 2286, Note_on_c, 0, 75, 0
2, 2286, Note_on_c, 0, 73, 65
2, 2292, Note_on_c, 0, 73, 0
2, 2292, Note_on_c, 0, 72, 65
2, 2298, Note_on_c, 0, 72, 0
2, 2298, Note_on_c, 0, 73, 65
2, 2304, Note_on_c, 0, 73, 0
2, 2304, Control_c, 0, 64, 127
2, 2304, Note_on_c, 0, 73, 65
2, 2319, Note_on_c, 0, 73, 0
2, 2320, Note_on_c, 0, 67, 65
2, 2335, Note_on_c, 0, 67, 0
2, 2336, Note_on_c, 0, 79, 65
2, 2351, Note_on_c, 0, 79, 0
2, 2352, Note_on_c, 0, 73, 65
2, 2367, Note_on_c, 0, 73, 0
2, 2368, Note_on_c, 0, 82, 65
2, 2383, Note_on_c, 0, 82, 0
2, 2384, Note_on_c, 0, 79, 65
2, 2399, Note_on_c, 0, 79, 0
2, 2400, Note_on_c, 0, 85, 81
2, 2448, Control_c, 0, 64, 0
2, 2463, Note_on_c, 0, 85, 0
2, 2464, Note_on_c, 0, 84, 65
2, 2479, Note_on_c, 0, 84, 0
2, 2480, Note_on_c, 0, 82, 65
2, 2495, Note_on_c, 0, 82, 0
2, 2496, Note_on_c, 0, 80, 65
2, 2511, Note_on_c, 0, 80, 0
2, 2512, Note_on_c, 0, 79, 65
2, 2527, Note_on_c, 0, 79, 0
2, 2528, Note_on_c, 0, 77, 65
2, 2543, Note_on_c, 0, 77, 0
2, 2544, Note_on_c, 0, 75, 65
2, 2559, Note_on_c, 0, 75, 0
2, 2560, Note_on_c, 0, 82, 65
2, 2575, Note_on_c, 0, 82, 0
2, 2576, Note_on_c, 0, 73, 65
2, 2591, Note_on_c, 0, 73, 0
2, 2592, Control_c, 0, 64, 127
2, 2592, Note_on_c, 0, 72, 65
2, 2607, Note_on_c, 0, 72, 0
2, 2608, Note_on_c, 0, 84, 65
2, 2623, Note_on_c, 0, 84, 0
2, 2624, Note_on_c, 0, 75, 65
2, 2639, Note_on_c, 0, 75, 0
2, 2640, Note_on_c, 0, 80, 65
2, 2655, Note_on_c, 0, 80, 0
2, 2656, Note_on_c, 0, 72, 65
2, 2671, Note_on_c, 0, 72, 0
2, 2672, Note_on_c, 0, 75, 65
2, 2687, Note_on_c, 0, 75, 0
2, 2688, Note_on_c, 0, 68, 65
2, 2703, Note_on_c, 0, 68, 0
2, 2704, Note_on_c, 0, 72, 65
2, 2719, Note_on_c, 0, 72, 0
2, 2720, Note_on_c, 0, 63, 65
2, 2735, Note_on_c, 0, 63, 0
2, 2736, Note_on_c, 0, 68, 75
2, 2751, Note_on_c, 0, 68, 0
2, 2752, Note_on_c, 0, 60, 75
2, 2767, Note_on_c, 0, 60, 0
2, 2768, Note_on_c, 0, 63, 75
2, 2783, Note_on_c, 0, 63, 0
2, 2784, Note_on_c, 0, 56, 75
2, 2799, Note_on_c, 0, 56, 0
2, 2800, Note_on_c, 0, 60, 75
2, 2815, Note_on_c, 0, 60, 0
2, 2816, Note_on_c, 0, 63, 75
2, 2831, Note_on_c, 0, 63, 0
2, 2832, Note_on_c, 0, 54, 75
2, 2847, Note_on_c, 0, 54, 0
2, 2848, Note_on_c, 0, 63, 75
2, 2863, Note_on_c, 0, 63, 0
2, 2864, Note_on_c, 0, 54, 75
2, 2879, Note_on_c, 0, 54, 0
2, 2880, Control_c, 0, 64, 0
2, 2880, Control_c, 0, 64, 127
2, 2880, Note_on_c, 0, 53, 75
2, 2895, Note_on_c, 0, 53, 0
2, 2896, Note_on_c, 0, 61, 74
2, 2911, Note_on_c, 0, 61, 0
2, 2912, Note_on_c, 0, 56, 73
2, 2927, Note_on_c, 0, 56, 0
2, 2928, Note_on_c, 0, 65, 72
2, 2943, Note_on_c, 0, 65, 0
2, 2944, Note_on_c, 0, 61, 71
2, 2959, Note_on_c, 0, 61, 0
2, 2960, Note_on_c, 0, 68, 70
2, 2975, Note_on_c, 0, 68, 0
2, 2976, Note_on_c, 0, 65, 70
2, 2991, Note_on_c, 0, 65, 0
2, 2992, Note_on_c, 0, 73, 69
2, 3007, Note_on_c, 0, 73, 0
2, 3008, Note_on_c, 0, 68, 68
2, 3023, Note_on_c, 0, 68, 0
2, 3024, Control_c, 0, 64, 0
2, 3024, Note_on_c, 0, 77, 65
2, 3087, Note_on_c, 0, 77, 0
2, 3088, Note_on_c, 0, 76, 65
2, 3103, Note_on_c, 0, 76, 0
2, 3104, Note_on_c, 0, 77, 65
2, 3119, Note_on_c, 0, 77, 0
2, 3120, Note_on_c, 0, 80, 65
2, 3135, Note_on_c, 0, 80, 0
2, 3136, Note_on_c, 0, 72, 65
2, 3151, Note_on_c, 0, 72, 0
2, 3152, Note_on_c, 0, 73, 65
2, 3167, Note_on_c, 0, 73, 0
2, 3168, Note_on_c, 0, 77, 65
2, 3183, Note_on_c, 0, 77, 0
2, 3184, Note_on_c, 0, 65, 65
2, 3199, Note_on_c, 0, 65, 0
2, 3200, Note_on_c, 0, 77, 65
2, 3215, Note_on_c, 0, 77, 0
2, 3216, Note_on_c, 0, 76, 65
2, 3231, Note_on_c, 0, 76, 0
2, 3232, Note_on_c, 0, 75, 65
2, 3247, Note_on_c, 0, 75, 0
2, 3248, Note_on_c, 0, 74, 65
2, 3263, Note_on_c, 0, 74, 0
2, 3264, Note_on_c, 0, 73, 65
2, 3279, Note_on_c, 0, 73, 0
2, 3280, Note_on_c, 0, 72, 65
2, 3295, Note_on_c, 0, 72, 0
2, 3296, Note_on_c, 0, 70, 65
2, 3311, Note_on_c, 0, 70, 0
2, 3312, Note_on_c, 0, 68, 65
2, 3401, Note_on_c, 0, 68, 0
2, 3408, Note_on_c, 0, 72, 65
2, 3423, Note_on_c, 0, 72, 0
2, 3424, Note_on_c, 0, 70, 65
2, 3439, Note_on_c, 0, 70, 0
2, 3440, Note_on_c, 0, 68, 65
2, 3455, Note_on_c, 0, 68, 0
2, 3456, Note_on_c, 0, 75, 65
2, 3501, Note_on_c, 0, 75, 0
2, 3600, Note_on_c, 0, 75, 65
2, 3606, Note_on_c, 0, 75, 0
2, 3606, Note_on_c, 0, 74, 65
2, 3612, Note_on_c, 0, 74, 0
2, 3612, Note_on_c, 0, 75, 65
2, 3618, Note_on_c, 0, 75, 0
2, 3618, Note_on_c, 0, 74, 65
2, 3693, Note_on_c, 0, 74, 0
2, 3696, Note_on_c, 0, 77, 65
2, 3711, Note_on_c, 0, 77, 0
2, 3712, Note_on_c, 0, 75, 65
2, 3727, Note_on_c, 0, 75, 0
2, 3728, Note_on_c, 0, 74, 65
2, 3743, Note_on_c, 0, 74, 0
2, 3744, Note_on_c, 0, 84, 65
2, 3751, Note_on_c, 0, 84, 0
2, 3760, Note_on_c, 0, 84, 65
2, 3767, Note_on_c, 0, 84, 0
2, 3776, Note_on_c, 0, 82, 65
2, 3783, Note_on_c, 0, 82, 0
2, 3792, Note_on_c, 0, 80, 65
2, 3799, Note_on_c, 0, 80, 0
2, 3808, Note_on_c, 0, 79, 65
2, 3815, Note_on_c, 0, 79, 0
2, 3824, Note_on_c, 0, 77, 65
2, 3831, Note_on_c, 0, 77, 0
2, 3840, Note_on_c, 0, 75, 65
2, 3847, Note_on_c, 0, 75, 0
2, 3856, Note_on_c, 0, 74, 65
2, 3863, Note_on_c, 0, 74, 0
2, 3872, Note_on_c, 0, 77, 65
2, 3879, Note_on_c, 0, 77, 0
2, 3888, Note_on_c, 0, 75, 65
2, 3894, Note_on_c, 0, 75, 0
2, 3894, Note_on_c, 0, 77, 65
2, 3900, Note_on_c, 0, 77, 0
2, 3900, Note_on_c, 0, 75, 65
2, 3906, Note_on_c, 0, 75, 0
2, 3906, Note_on_c, 0, 77, 65
2, 3912, Note_on_c, 0, 77, 0
2, 3912, Note_on_c, 0, 75, 65
2, 3918, Note_on_c, 0, 75, 0
2, 3918, Note_on_c, 0, 77, 65
2, 3924, Note_on_c, 0, 77, 0
2, 3924, Note_on_c, 0, 75, 65
2, 3930, Note_on_c, 0, 75, 0
2, 3930, Note_on_c, 0, 77, 65
2, 3936, Note_on_c, 0, 77, 0
2, 3936, Note_on_c, 0, 75, 65
2, 3999, Note_on_c, 0, 75, 0
2, 4000, Note_on_c, 0, 77, 65
2, 4015, Note_on_c, 0, 77, 0
2, 4016, Note_on_c, 0, 73, 65
2, 4031, Note_on_c, 0, 73, 0
2, 4032, Note_on_c, 0, 73, 65
2, 4047, Note_on_c, 0, 73, 0
2, 4048, Note_on_c, 0, 72, 65
2, 4063, Note_on_c, 0, 72, 0
2, 4064, Note_on_c, 0, 70, 65
2, 4079, Note_on_c, 0, 70, 0
2, 4080, Note_on_c, 0, 68, 65
2, 4100, Note_on_c, 0, 68, 0
2, 4144, Note_on_c, 0, 80, 65
2, 4159, Note_on_c, 0, 80, 0
2, 4160, Note_on_c, 0, 75, 65
2, 4175, Note_on_c, 0, 75, 0
2, 4176, Note_on_c, 0, 77, 65
2, 4182, Note_on_c, 0, 77, 0
2, 4182, Note_on_c, 0, 75, 65
2, 4191, Note_on_c, 0, 75, 0
2, 4192, Note_on_c, 0, 73, 65
2, 4207, Note_on_c, 0, 73, 0
2, 4208, Note_on_c, 0, 72, 65
2, 4223, Note_on_c, 0, 72, 0
2, 4224, Note_on_c, 0, 70, 65
2, 4244, Note_on_c, 0, 70, 0
2, 4288, Note_on_c, 0, 82, 58
2, 4303, Note_on_c, 0, 82, 0
2, 4304, Note_on_c, 0, 73, 58
2, 4319, Note_on_c, 0, 73, 0
2, 4320, Note_on_c, 0, 73, 58
2, 4335, Note_on_c, 0, 73, 0
2, 4336, Note_on_c, 0, 72, 58
2, 4351, Note_on_c, 0, 72, 0
2, 4352, Note_on_c, 0, 70, 58
2, 4367, Note_on_c, 0, 70, 0
2, 4368, Note_on_c, 0, 68, 58
2, 4388, Note_on_c, 0, 68, 0
2, 4432, Note_on_c, 0, 80, 58
2, 4447, Note_on_c, 0, 80, 0
2, 4448, Note_on_c, 0, 75, 58
2, 4463, Note_on_c, 0, 75, 0
2, 4464, Note_on_c, 0, 77, 58
2, 4470, Note_on_c, 0, 77, 0
2, 4470, Note_on_c, 0, 75, 58
2, 4479, Note_on_c, 0, 75, 0
2, 4480, Note_on_c, 0, 73, 58
2, 4495, Note_on_c, 0, 73, 0
2, 4496, Note_on_c, 0, 72, 58
2, 4511, Note_on_c, 0, 72, 0
2, 4512, Note_on_c, 0, 70, 58
2, 4532, Note_on_c, 0, 70, 0
2, 4576, Note_on_c, 0, 82, 65
2, 4591, Note_on_c, 0, 82, 0
2, 4592, Note_on_c, 0, 73, 65
2, 4607, Note_on_c, 0, 73, 0
2, 4608, Note_on_c, 0, 72, 65
2, 4623, Note_on_c, 0, 72, 0
2, 4624, Note_on_c, 0, 80, 65
2, 4639, Note_on_c, 0, 80, 0
2, 4640, Note_on_c, 0, 78, 65
2, 4655, Note_on_c, 0, 78, 0
2, 4656, Note_on_c, 0, 78, 81
2, 4719, Note_on_c, 0, 78, 0
2, 4720, Note_on_c, 0, 75, 65
2, 4735, Note_on_c, 0, 75, 0
2, 4736, Note_on_c, 0, 72, 65
2, 4751, Note_on_c, 0, 72, 0
2, 4752, Note_on_c, 0, 70, 65
2, 4768, Note_on_c, 0, 70, 0
2, 4768, Note_on_c, 0, 68, 65
2, 4783, Note_on_c, 0, 68, 0
2, 4784, Note_on_c, 0, 75, 65
2, 4799, Note_on_c, 0, 75, 0
2, 4800, Note_on_c, 0, 68, 65
2, 4816, Note_on_c, 0, 68, 0
2, 4816, Note_on_c, 0, 67, 65
2, 4831, Note_on_c, 0, 67, 0
2, 4832, Note_on_c, 0, 75, 65
2, 4847, Note_on_c, 0, 75, 0
2, 4848, Note_on_c, 0, 68, 65
2, 4864, Note_on_c, 0, 68, 0
2, 4864, Note_on_c, 0, 66, 65
2, 4879, Note_on_c, 0, 66, 0
2, 4880, Note_on_c, 0, 75, 65
2, 4895, Note_on_c, 0, 75, 0
2, 4896, Note_on_c, 0, 66, 65
2, 4911, Note_on_c, 0, 66, 0
2, 4912, Note_on_c, 0, 64, 66
2, 4928, Note_on_c, 0, 64, 0
2, 4928, Note_on_c, 0, 65, 67
2, 4943, Note_on_c, 0, 65, 0
2, 4944, Note_on_c, 0, 69, 68
2, 4960, Note_on_c, 0, 69, 0
2, 4960, Note_on_c, 0, 70, 70
2, 4975, Note_on_c, 0, 70, 0
2, 4976, Note_on_c, 0, 73, 71
2, 4991, Note_on_c, 0, 73, 0
2, 4992, Note_on_c, 0, 77, 72
2, 5007, Note_on_c, 0, 77, 0
2, 5008, Note_on_c, 0, 73, 73
2, 5023, Note_on_c, 0, 73, 0
2, 5024, Note_on_c, 0, 70, 75
2, 5039, Note_on_c, 0, 70, 0
2, 5040, Note_on_c, 0, 68, 74
2, 5129, Note_on_c, 0, 68, 0
2, 5136, Note_on_c, 0, 72, 65
2, 5142, Note_on_c, 0, 72, 0
2, 5142, Note_on_c, 0, 70, 65
2, 5159, Note_on_c, 0, 70, 0
2, 5160, Note_on_c, 0, 68, 65
2, 5183, Note_on_c, 0, 68, 0
2, 5184, Note_on_c, 0, 68, 65
2, 5199, Note_on_c, 0, 68, 0
2, 5200, Note_on_c, 0, 75, 65
2, 5215, Note_on_c, 0, 75, 0
2, 5216, Note_on_c, 0, 67, 65
2, 5231, Note_on_c, 0, 67, 0
2, 5232, Note_on_c, 0, 70, 65
2, 5237, Note_on_c, 0, 70, 0
2, 5237, Note_on_c, 0, 68, 65
2, 5242, Note_on_c, 0, 68, 0
2, 5242, Note_on_c, 0, 67, 65
2, 5247, Note_on_c, 0, 67, 0
2, 5247, Note_on_c, 0, 68, 65
2, 5252, Note_on_c, 0, 68, 0
2, 5252, Note_on_c, 0, 72, 65
2, 5267, Note_on_c, 0, 72, 0
2, 5267, Note_on_c, 0, 63, 65
2, 5280, Note_on_c, 0, 63, 0
2, 5280, Note_on_c, 0, 63, 65
2, 5286, Note_on_c, 0, 63, 0
2, 5286, Note_on_c, 0, 61, 65
2, 5292, Note_on_c, 0, 61, 0
2, 5292, Note_on_c, 0, 63, 65
2, 5298, Note_on_c, 0, 63, 0
2, 5298, Note_on_c, 0, 61, 65
2, 5304, Note_on_c, 0, 61, 0
2, 5304, Note_on_c, 0, 63, 65
2, 5310, Note_on_c, 0, 63, 0
2, 5310, Note_on_c, 0, 61, 65
2, 5316, Note_on_c, 0, 61, 0
2, 5316, Note_on_c, 0, 60, 65
2, 5322, Note_on_c, 0, 60, 0
2, 5322, Note_on_c, 0, 61, 65
2, 5328, Note_on_c, 0, 61, 0
2, 5328, Note_on_c, 0, 60, 65
2, 5343, Note_on_c, 0, 60, 0
2, 5344, Note_on_c, 0, 75, 65
2, 5359, Note_on_c, 0, 75, 0
2, 5360, Note_on_c, 0, 67, 65
2, 5375, Note_on_c, 0, 67, 0
2, 5376, Note_on_c, 0, 70, 65
2, 5381, Note_on_c, 0, 70, 0
2, 5381, Note_on_c, 0, 68, 65
2, 5386, Note_on_c, 0, 68, 0
2, 5386, Note_on_c, 0, 67, 65
2, 5391, Note_on_c, 0, 67, 0
2, 5391, Note_on_c, 0, 68, 65
2, 5396, Note_on_c, 0, 68, 0
2, 5396, Note_on_c, 0, 72, 65
2, 5411, Note_on_c, 0, 72, 0
2, 5411, Note_on_c, 0, 63, 65
2, 5424, Note_on_c, 0, 63, 0
2, 5424, Note_on_c, 0, 63, 65
2, 5430, Note_on_c, 0, 63, 0
2, 5430, Note_on_c, 0, 61, 65
2, 5436, Note_on_c, 0, 61, 0
2, 5436, Note_on_c, 0, 63, 65
2, 5442, Note_on_c, 0, 63, 0
2, 5442, Note_on_c, 0, 61, 65
2, 5448, Note_on_c, 0, 61, 0
2, 5448, Note_on_c, 0, 63, 65
2, 5454, Note_on_c, 0, 63, 0
2, 5454, Note_on_c, 0, 61, 65
2, 5460, Note_on_c, 0, 61, 0
2, 5460, Note_on_c, 0, 60, 65
2, 5466, Note_on_c, 0, 60, 0
2, 5466, Note_on_c, 0, 61, 65
2, 5472, Note_on_c, 0, 61, 0
2, 5472, Note_on_c, 0, 61, 65
2, 5520, Note_on_c, 0, 61, 0
2, 5520, Note_on_c, 0, 60, 65
2, 5613, Note_on_c, 0, 60, 0
2, 5760, Note_on_c, 0, 73, 65
2, 5766, Note_on_c, 0, 73, 0
2, 5766, Note_on_c, 0, 72, 65
2, 5772, Note_on_c, 0, 72, 0
2, 5772, Note_on_c, 0, 71, 65
2, 5778, Note_on_c, 0, 71, 0
2, 5778, Note_on_c, 0, 72, 65
2, 5827, Note_on_c, 0, 72, 0
2, 5832, Note_on_c, 0, 73, 65
2, 5855, Note_on_c, 0, 73, 0
2, 5856, Note_on_c, 0, 72, 65
2, 5901, Note_on_c, 0, 72, 0
2, 5904, Note_on_c, 0, 77, 65
2, 5916, Note_on_c, 0, 77, 0
2, 5916, Note_on_c, 0, 79, 65
2, 5928, Note_on_c, 0, 79, 0
2, 5928, Note_on_c, 0, 80, 65
2, 5951, Note_on_c, 0, 80, 0
2, 6048, Note_on_c, 0, 73, 65
2, 6054, Note_on_c, 0, 73, 0
2, 6054, Note_on_c, 0, 72, 65
2, 6060, Note_on_c, 0, 72, 0
2, 6060, Note_on_c, 0, 71, 65
2, 6066, Note_on_c, 0, 71, 0
2, 6066, Note_on_c, 0, 72, 65
2, 6115, Note_on_c, 0, 72, 0
2, 6120, Note_on_c, 0, 73, 65
2, 6143, Note_on_c, 0, 73, 0
2, 6144, Note_on_c, 0, 72, 65
2, 6189, Note_on_c, 0, 72, 0
2, 6192, Note_on_c, 0, 79, 65
2, 6204, Note_on_c, 0, 79, 0
2, 6204, Note_on_c, 0, 80, 65
2, 6216, Note_on_c, 0, 80, 0
2, 6216, Note_on_c, 0, 82, 65
2, 6239, Note_on_c, 0, 82, 0
2, 6336, Note_on_c, 0, 73, 65
2, 6342, Note_on_c, 0, 73, 0
2, 6342, Note_on_c, 0, 72, 65
2, 6348, Note_on_c, 0, 72, 0
2, 6348, Note_on_c, 0, 71, 65
2, 6354, Note_on_c, 0, 71, 0
2, 6354, Note_on_c, 0, 72, 65
2, 6403, Note_on_c, 0, 72, 0
2, 6408, Note_on_c, 0, 73, 65
2, 6431, Note_on_c, 0, 73, 0
2, 6432, Note_on_c, 0, 72, 65
2, 6477, Note_on_c, 0, 72, 0
2, 6480, Note_on_c, 0, 77, 65
2, 6492, Note_on_c, 0, 77, 0
2, 6492, Note_on_c, 0, 79, 65
2, 6504, Note_on_c, 0, 79, 0
2, 6504, Note_on_c, 0, 80, 65
2, 6527, Note_on_c, 0, 80, 0
2, 6576, Note_on_c, 0, 68, 65
2, 6591, Note_on_c, 0, 68, 0
2, 6592, Note_on_c, 0, 71, 65
2, 6607, Note_on_c, 0, 71, 0
2, 6608, Note_on_c, 0, 77, 65
2, 6623, Note_on_c, 0, 77, 0
2, 6624, Note_on_c, 0, 77, 81
2, 6672, Note_on_c, 0, 77, 0
2, 6672, Note_on_c, 0, 76, 65
2, 6687, Note_on_c, 0, 76, 0
2, 6688, Note_on_c, 0, 79, 65
2, 6703, Note_on_c, 0, 79, 0
2, 6704, Note_on_c, 0, 71, 65
2, 6720, Note_on_c, 0, 71, 0
2, 6720, Note_on_c, 0, 72, 65
2, 6735, Note_on_c, 0, 72, 0
2, 6736, Note_on_c, 0, 76, 65
2, 6751, Note_on_c, 0, 76, 0
2, 6752, Note_on_c, 0, 67, 65
2, 6767, Note_on_c, 0, 67, 0
2, 6912, Note_on_c, 0, 77, 65
2, 6918, Note_on_c, 0, 77, 0
2, 6918, Note_on_c, 0, 75, 65
2, 6924, Note_on_c, 0, 75, 0
2, 6924, Note_on_c, 0, 73, 65
2, 6930, Note_on_c, 0, 73, 0
2, 6930, Note_on_c, 0, 75, 65
2, 7001, Note_on_c, 0, 75, 0
2, 7024, Note_on_c, 0, 80, 65
2, 7039, Note_on_c, 0, 80, 0
2, 7040, Note_on_c, 0, 75, 65
2, 7055, Note_on_c, 0, 75, 0
2, 7056, Note_on_c, 0, 75, 65
2, 7071, Note_on_c, 0, 75, 0
2, 7072, Note_on_c, 0, 73, 65
2, 7087, Note_on_c, 0, 73, 0
2, 7088, Note_on_c, 0, 72, 65
2, 7103, Note_on_c, 0, 72, 0
2, 7104, Note_on_c, 0, 70, 65
2, 7124, Note_on_c, 0, 70, 0
2, 7168, Note_on_c, 0, 82, 65
2, 7183, Note_on_c, 0, 82, 0
2, 7184, Note_on_c, 0, 73, 65
2, 7199, Note_on_c, 0, 73, 0
2, 7200, Note_on_c, 0, 73, 65
2, 7215, Note_on_c, 0, 73, 0
2, 7216, Note_on_c, 0, 72, 65
2, 7231, Note_on_c, 0, 72, 0
2, 7232, Note_on_c, 0, 70, 65
2, 7247, Note_on_c, 0, 70, 0
2, 7248, Note_on_c, 0, 68, 65
2, 7268, Note_on_c, 0, 68, 0
2, 7312, Note_on_c, 0, 80, 65
2, 7327, Note_on_c, 0, 80, 0
2, 7328, Note_on_c, 0, 75, 65
2, 7343, Note_on_c, 0, 75, 0
2, 7344, Note_on_c, 0, 75, 65
2, 7359, Note_on_c, 0, 75, 0
2, 7360, Note_on_c, 0, 73, 65
2, 7375, Note_on_c, 0, 73, 0
2, 7376, Note_on_c, 0, 72, 65
2, 7391, Note_on_c, 0, 72, 0
2, 7392, Note_on_c, 0, 70, 65
2, 7412, Note_on_c, 0, 70, 0
2, 7456, Note_on_c, 0, 82, 65
2, 7471, Note_on_c, 0, 82, 0
2, 7472, Note_on_c, 0, 73, 65
2, 7487, Note_on_c, 0, 73, 0
2, 7488, Note_on_c, 0, 72, 65
2, 7503, Note_on_c, 0, 72, 0
2, 7504, Note_on_c, 0, 77, 65
2, 7519, Note_on_c, 0, 77, 0
2, 7520, Note_on_c, 0, 75, 65
2, 7535, Note_on_c, 0, 75, 0
2, 7536, Note_on_c, 0, 77, 65
2, 7542, Note_on_c, 0, 77, 0
2, 7542, Note_on_c, 0, 75, 65
2, 7548, Note_on_c, 0, 75, 0
2, 7548, Note_on_c, 0, 77, 65
2, 7554, Note_on_c, 0, 77, 0
2, 7554, Note_on_c, 0, 75, 65
2, 7560, Note_on_c, 0, 75, 0
2, 7560, Note_on_c, 0, 77, 65
2, 7566, Note_on_c, 0, 77, 0
2, 7566, Note_on_c, 0, 75, 65
2, 7572, Note_on_c, 0, 75, 0
2, 7572, Note_on_c, 0, 77, 65
2, 7578, Note_on_c, 0, 77, 0
2, 7578, Note_on_c, 0, 75, 65
2, 7584, Note_on_c, 0, 75, 0
2, 7584, Note_on_c, 0, 77, 65
2, 7590, Note_on_c, 0, 77, 0
2, 7590, Note_on_c, 0, 75, 65
2, 7596, Note_on_c, 0, 75, 0
2, 7596, Note_on_c, 0, 77, 65
2, 7602, Note_on_c, 0, 77, 0
2, 7602, Note_on_c, 0, 75, 65
2, 7608, Note_on_c, 0, 75, 0
2, 7608, Note_on_c, 0, 77, 65
2, 7614, Note_on_c, 0, 77, 0
2, 7614, Note_on_c, 0, 75, 65
2, 7620, Note_on_c, 0, 75, 0
2, 7620, Note_on_c, 0, 73, 65
2, 7626, Note_on_c, 0, 73, 0
2, 7626, Note_on_c, 0, 75, 65
2, 7632, Note_on_c, 0, 75, 0
2, 7632, Note_on_c, 0, 80, 65
2, 7647, Note_on_c, 0, 80, 0
2, 7648, Note_on_c, 0, 72, 65
2, 7663, Note_on_c, 0, 72, 0
2, 7664, Note_on_c, 0, 75, 65
2, 7679, Note_on_c, 0, 75, 0
2, 7680, Note_on_c, 0, 77, 65
2, 7686, Note_on_c, 0, 77, 0
2, 7686, Note_on_c, 0, 75, 65
2, 7692, Note_on_c, 0, 75, 0
2, 7692, Note_on_c, 0, 77, 65
2, 7698, Note_on_c, 0, 77, 0
2, 7698, Note_on_c, 0, 75, 65
2, 7704, Note_on_c, 0, 75, 0
2, 7704, Note_on_c, 0, 77, 65
2, 7710, Note_on_c, 0, 77, 0
2, 7710, Note_on_c, 0, 75, 65
2, 7716, Note_on_c, 0, 75, 0
2, 7716, Note_on_c, 0, 77, 65
2, 7722, Note_on_c, 0, 77, 0
2, 7722, Note_on_c, 0, 75, 65
2, 7728, Note_on_c, 0, 75, 0
2, 7728, Note_on_c, 0, 77, 65
2, 7734, Note_on_c, 0, 77, 0
2, 7734, Note_on_c, 0, 75, 65
2, 7740, Note_on_c, 0, 75, 0
2, 7740, Note_on_c, 0, 77, 65
2, 7746, Note_on_c, 0, 77, 0
2, 7746, Note_on_c, 0, 75, 65
2, 7752, Note_on_c, 0, 75, 0
2, 7752, Note_on_c, 0, 77, 65
2, 7758, Note_on_c, 0, 77, 0
2, 7758, Note_on_c, 0, 75, 65
2, 7764, Note_on_c, 0, 75, 0
2, 7764, Note_on_c, 0, 73, 65
2, 7770, Note_on_c, 0, 73, 0
2, 7770, Note_on_c, 0, 75, 65
2, 7776, Note_on_c, 0, 75, 0
2, 7776, Note_on_c, 0, 80, 65
2, 7791, Note_on_c, 0, 80, 0
2, 7792, Note_on_c, 0, 72, 65
2, 7807, Note_on_c, 0, 72, 0
2, 7808, Note_on_c, 0, 73, 65
2, 7823, Note_on_c, 0, 73, 0
2, 7824, Note_on_c, 0, 75, 65
2, 7830, Note_on_c, 0, 75, 0
2, 7830, Note_on_c, 0, 73, 65
2, 7836, Note_on_c, 0, 73, 0
2, 7836, Note_on_c, 0, 75, 65
2, 7842, Note_on_c, 0, 75, 0
2, 7842, Note_on_c, 0, 73, 65
2, 7848, Note_on_c, 0, 73, 0
2, 7848, Note_on_c, 0, 75, 65
2, 7854, Note_on_c, 0, 75, 0
2, 7854, Note_on_c, 0, 73, 65
2, 7860, Note_on_c, 0, 73, 0
2, 7860, Note_on_c, 0, 75, 65
2, 7866, Note_on_c, 0, 75, 0
2, 7866, Note_on_c, 0, 73, 65
2, 7872, Note_on_c, 0, 73, 0
2, 7872, Note_on_c, 0, 75, 65
2, 7878, Note_on_c, 0, 75, 0
2, 7878, Note_on_c, 0, 73, 65
2, 7884, Note_on_c, 0, 73, 0
2, 7884, Note_on_c, 0, 75, 65
2, 7890, Note_on_c, 0, 75, 0
2, 7890, Note_on_c, 0, 73, 65
2, 7896, Note_on_c, 0, 73, 0
2, 7896, Note_on_c, 0, 75, 65
2, 7902, Note_on_c, 0, 75, 0
2, 7902, Note_on_c, 0, 73, 65
2, 7908, Note_on_c, 0, 73, 0
2, 7908, Note_on_c, 0, 72, 65
2, 7914, Note_on_c, 0, 72, 0
2, 7914, Note_on_c, 0, 73, 65
2, 7920, Note_on_c, 0, 73, 0
2, 7920, Note_on_c, 0, 80, 65
2, 7935, Note_on_c, 0, 80, 0
2, 7936, Note_on_c, 0, 72, 65
2, 7951, Note_on_c, 0, 72, 0
2, 7952, Note_on_c, 0, 73, 65
2, 7967, Note_on_c, 0, 73, 0
2, 7968, Note_on_c, 0, 75, 65
2, 7974, Note_on_c, 0, 75, 0
2, 7974, Note_on_c, 0, 73, 65
2, 7980, Note_on_c, 0, 73, 0
2, 7980, Note_on_c, 0, 75, 65
2, 7986, Note_on_c, 0, 75, 0
2, 7986, Note_on_c, 0, 73, 65
2, 7992, Note_on_c, 0, 73, 0
2, 7992, Note_on_c, 0, 75, 65
2, 7998, Note_on_c, 0, 75, 0
2, 7998, Note_on_c, 0, 73, 65
2, 8004, Note_on_c, 0, 73, 0
2, 8004, Note_on_c, 0, 75, 65
2, 8010, Note_on_c, 0, 75, 0
2, 8010, Note_on_c, 0, 73, 65
2, 8016, Note_on_c, 0, 73, 0
2, 8016, Note_on_c, 0, 75, 65
2, 8022, Note_on_c, 0, 75, 0
2, 8022, Note_on_c, 0, 73, 65
2, 8028, Note_on_c, 0, 73, 0
2, 8028, Note_on_c, 0, 75, 65
2, 8034, Note_on_c, 0, 75, 0
2, 8034, Note_on_c, 0, 73, 65
2, 8040, Note_on_c, 0, 73, 0
2, 8040, Note_on_c, 0, 75, 65
2, 8046, Note_on_c, 0, 75, 0
2, 8046, Note_on_c, 0, 73, 65
2, 8052, Note_on_c, 0, 73, 0
2, 8052, Note_on_c, 0, 72, 65
2, 8058, Note_on_c, 0, 72, 0
2, 8058, Note_on_c, 0, 73, 65
2, 8064, Note_on_c, 0, 73, 0
2, 8064, Control_c, 0, 64, 127
2, 8064, Note_on_c, 0, 73, 65
2, 8079, Note_on_c, 0, 73, 0
2, 8080, Note_on_c, 0, 67, 65
2, 8095, Note_on_c, 0, 67, 0
2, 8096, Note_on_c, 0, 79, 65
2, 8111, Note_on_c, 0, 79, 0
2, 8112, Note_on_c, 0, 73, 65
2, 8127, Note_on_c, 0, 73, 0
2, 8128, Note_on_c, 0, 82, 65
2, 8143, Note_on_c, 0, 82, 0
2, 8144, Note_on_c, 0, 79, 65
2, 8159, Note_on_c, 0, 79, 0
2, 8160, Note_on_c, 0, 85, 81
2, 8208, Control_c, 0, 64, 0
2, 8223, Note_on_c, 0, 85, 0
2, 8224, Note_on_c, 0, 84, 65
2, 8239, Note_on_c, 0, 84, 0
2, 8240, Note_on_c, 0, 82, 65
2, 8255, Note_on_c, 0, 82, 0
2, 8256, Note_on_c, 0, 80, 65
2, 8271, Note_on_c, 0, 80, 0
2, 8272, Note_on_c, 0, 79, 65
2, 8287, Note_on_c, 0, 79, 0
2, 8288, Note_on_c, 0, 77, 65
2, 8303, Note_on_c, 0, 77, 0
2, 8304, Note_on_c, 0, 75, 65
2, 8319, Note_on_c, 0, 75, 0
2, 8320, Note_on_c, 0, 82, 65
2, 8335, Note_on_c, 0, 82, 0
2, 8336, Note_on_c, 0, 73, 65
2, 8351, Note_on_c, 0, 73, 0
2, 8352, Control_c, 0, 64, 127
2, 8352, Note_on_c, 0, 72, 65
2, 8367, Note_on_c, 0, 72, 0
2, 8368, Note_on_c, 0, 84, 65
2, 8383, Note_on_c, 0, 84, 0
2, 8384, Note_on_c, 0, 75, 65
2, 8399, Note_on_c, 0, 75, 0
2, 8400, Note_on_c, 0, 80, 65
2, 8415, Note_on_c, 0, 80, 0
2, 8416, Note_on_c, 0, 72, 65
2, 8431, Note_on_c, 0, 72, 0
2, 8432, Note_on_c, 0, 75, 65
2, 8447, Note_on_c, 0, 75, 0
2, 8448, Note_on_c, 0, 68, 65
2, 8463, Note_on_c, 0, 68, 0
2, 8464, Note_on_c, 0, 72, 65
2, 8479, Note_on_c, 0, 72, 0
2, 8480, Note_on_c, 0, 63, 65
2, 8495, Note_on_c, 0, 63, 0
2, 8496, Note_on_c, 0, 68, 75
2, 8511, Note_on_c, 0, 68, 0
2, 8512, Note_on_c, 0, 60, 75
2, 8527, Note_on_c, 0, 60, 0
2, 8528, Note_on_c, 0, 63, 75
2, 8543, Note_on_c, 0, 63, 0
2, 8544, Note_on_c, 0, 56, 75
2, 8559, Note_on_c, 0, 56, 0
2, 8560, Note_on_c, 0, 60, 75
2, 8575, Note_on_c, 0, 60, 0
2, 8576, Note_on_c, 0, 63, 75
2, 8591, Note_on_c, 0, 63, 0
2, 8592, Note_on_c, 0, 54, 75
2, 8607, Note_on_c, 0, 54, 0
2, 8608, Note_on_c, 0, 63, 75
2, 8623, Note_on_c, 0, 63, 0
2, 8624, Note_on_c, 0, 54, 75
2, 8639, Note_on_c, 0, 54, 0
2, 8640, Control_c, 0, 64, 0
2, 8640, Control_c, 0, 64, 127
2, 8640, Note_on_c, 0, 53, 75
2, 8655, Note_on_c, 0, 53, 0
2, 8656, Note_on_c, 0, 61, 74
2, 8671, Note_on_c, 0, 61, 0
2, 8672, Note_on_c, 0, 56, 73
2, 8687, Note_on_c, 0, 56, 0
2, 8688, Note_on_c, 0, 65, 72
2, 8703, Note_on_c, 0, 65, 0
2, 8704, Note_on_c, 0, 61, 71
2, 8719, Note_on_c, 0, 61, 0
2, 8720, Note_on_c, 0, 68, 70
2, 8735, Note_on_c, 0, 68, 0
2, 8736, Note_on_c, 0, 65, 70
2, 8751, Note_on_c, 0, 65, 0
2, 8752, Note_on_c, 0, 73, 69
2, 8767, Note_on_c, 0, 73, 0
2, 8768, Note_on_c, 0, 68, 68
2, 8783, Note_on_c, 0, 68, 0
2, 8784, Control_c, 0, 64, 0
2, 8784, Note_on_c, 0, 77, 65
2, 8847, Note_on_c, 0, 77, 0
2, 8848, Note_on_c, 0, 76, 65
2, 8863, Note_on_c, 0, 76, 0
2, 8864, Note_on_c, 0, 77, 65
2, 8879, Note_on_c, 0, 77, 0
2, 8880, Note_on_c, 0, 80, 65
2, 8895, Note_on_c, 0, 80, 0
2, 8896, Note_on_c, 0, 72, 65
2, 8911, Note_on_c, 0, 72, 0
2, 8912, Note_on_c, 0, 73, 65
2, 8927, Note_on_c, 0, 73, 0
2, 8928, Note_on_c, 0, 77, 65
2, 8943, Note_on_c, 0, 77, 0
2, 8944, Note_on_c, 0, 65, 65
2, 8959, Note_on_c, 0, 65, 0
2, 8960, Note_on_c, 0, 77, 65
2, 8975, Note_on_c, 0, 77, 0
2, 8976, Note_on_c, 0, 76, 65
2, 8991, Note_on_c, 0, 76, 0
2, 8992, Note_on_c, 0, 75, 65
2, 9007, Note_on_c, 0, 75, 0
2, 9008, Note_on_c, 0, 74, 65
2, 9023, Note_on_c, 0, 74, 0
2, 9024, Note_on_c, 0, 73, 65
2, 9039, Note_on_c, 0, 73, 0
2, 9040, Note_on_c, 0, 72, 65
2, 9055, Note_on_c, 0, 72, 0
2, 9056, Note_on_c, 0, 70, 65
2, 9071, Note_on_c, 0, 70, 0
2, 9072, Note_on_c, 0, 68, 65
2, 9161, Note_on_c, 0, 68, 0
2, 9168, Note_on_c, 0, 72, 65
2, 9183, Note_on_c, 0, 72, 0
2, 9184, Note_on_c, 0, 70, 65
2, 9199, Note_on_c, 0, 70, 0
2, 9200, Note_on_c, 0, 68, 65
2, 9215, Note_on_c, 0, 68, 0
2, 9216, Note_on_c, 0, 75, 65
2, 9261, Note_on_c, 0, 75, 0
2, 9360, Note_on_c, 0, 75, 65
2, 9366, Note_on_c, 0, 75, 0
2, 9366, Note_on_c, 0, 74, 65
2, 9372, Note_on_c, 0, 74, 0
2, 9372, Note_on_c, 0, 75, 65
2, 9378, Note_on_c, 0, 75, 0
2, 9378, Note_on_c, 0, 74, 65
2, 9453, Note_on_c, 0, 74, 0
2, 9456, Note_on_c, 0, 77, 65
2, 9471, Note_on_c, 0, 77, 0
2, 9472, Note_on_c, 0, 75, 65
2, 9487, Note_on_c, 0, 75, 0
2, 9488, Note_on_c, 0, 74, 65
2, 9503, Note_on_c, 0, 74, 0
2, 9504, Note_on_c, 0, 84, 65
2, 9511, Note_on_c, 0, 84, 0
2, 9520, Note_on_c, 0, 84, 65
2, 9527, Note_on_c, 0, 84, 0
2, 9536, Note_on_c, 0, 82, 65
2, 9543, Note_on_c, 0, 82, 0
2, 9552, Note_on_c, 0, 80, 65
2, 9559, Note_on_c, 0, 80, 0
2, 9568, Note_on_c, 0, 79, 65
2, 9575, Note_on_c, 0, 79, 0
2, 9584, Note_on_c, 0, 77, 65
2, 9591, Note_on_c, 0, 77, 0
2, 9600, Note_on_c, 0, 75, 65
2, 9607, Note_on_c, 0, 75, 0
2, 9616, Note_on_c, 0, 74, 65
2, 9623, Note_on_c, 0, 74, 0
2, 9632, Note_on_c, 0, 77, 65
2, 9639, Note_on_c, 0, 77, 0
2, 9648, Note_on_c, 0, 75, 65
2, 9654, Note_on_c, 0, 75, 0
2, 9654, Note_on_c, 0, 77, 65
2, 9660, Note_on_c, 0, 77, 0
2, 9660, Note_on_c, 0, 75, 65
2, 9666, Note_on_c, 0, 75, 0
2, 9666, Note_on_c, 0, 77, 65
2, 9672, Note_on_c, 0, 77, 0
2, 9672, Note_on_c, 0, 75, 65
2, 9678, Note_on_c, 0, 75, 0
2, 9678, Note_on_c, 0, 77, 65
2, 9684, Note_on_c, 0, 77, 0
2, 9684, Note_on_c, 0, 75, 65
2, 9690, Note_on_c, 0, 75, 0
2, 9690, Note_on_c, 0, 77, 65
2, 9696, Note_on_c, 0, 77, 0
2, 9696, Note_on_c, 0, 75, 65
2, 9759, Note_on_c, 0, 75, 0
2, 9760, Note_on_c, 0, 77, 65
2, 9775, Note_on_c, 0, 77, 0
2, 9776, Note_on_c, 0, 73, 65
2, 9791, Note_on_c, 0, 73, 0
2, 9792, Note_on_c, 0, 73, 65
2, 9807, Note_on_c, 0, 73, 0
2, 9808, Note_on_c, 0, 72, 65
2, 9823, Note_on_c, 0, 72, 0
2, 9824, Note_on_c, 0, 70, 65
2, 9839, Note_on_c, 0, 70, 0
2, 9840, Note_on_c, 0, 68, 65
2, 9860, Note_on_c, 0, 68, 0
2, 9904, Note_on_c, 0, 80, 65
2, 9919, Note_on_c, 0, 80, 0
2, 9920, Note_on_c, 0, 75, 65
2, 9935, Note_on_c, 0, 75, 0
2, 9936, Note_on_c, 0, 77, 65
2, 9942, Note_on_c, 0, 77, 0
2, 9942, Note_on_c, 0, 75, 65
2, 9951, Note_on_c, 0, 75, 0
2, 9952, Note_on_c, 0, 73, 65
2, 9967, Note_on_c, 0, 73, 0
2, 9968, Note_on_c, 0, 72, 65
2, 9983, Note_on_c, 0, 72, 0
2, 9984, Note_on_c, 0, 70, 65
2, 10004, Note_on_c, 0, 70, 0
2, 10048, Note_on_c, 0, 82, 58
2, 10063, Note_on_c, 0, 82, 0
2, 10064, Note_on_c, 0, 73, 58
2, 10079, Note_on_c, 0, 73, 0
2, 10080, Note_on_c, 0, 73, 58
2, 10095, Note_on_c, 0, 73, 0
2, 10096, Note_on_c, 0, 72, 58
2, 10111, Note_on_c, 0, 72, 0
2, 10112, Note_on_c, 0, 70, 58
2, 10127, Note_on_c, 0, 70, 0
2, 10128, Note_on_c, 0, 68, 58
2, 10148, Note_on_c, 0, 68, 0
2, 10192, Note_on_c, 0, 80, 58
2, 10207, Note_on_c, 0, 80, 0
2, 10208, Note_on_c, 0, 75, 58
2, 10223, Note_on_c, 0, 75, 0
2, 10224, Note_on_c, 0, 77, 58
2, 10230, Note_on_c, 0, 77, 0
2, 10230, Note_on_c, 0, 75, 58
2, 10239, Note_on_c, 0, 75, 0
2, 10240, Note_on_c, 0, 73, 58
2, 10255, Note_on_c, 0, 73, 0
2, 10256, Note_on_c, 0, 72, 58
2, 10271, Note_on_c, 0, 72, 0
2, 10272, Note_on_c, 0, 70, 58
2, 10292, Note_on_c, 0, 70, 0
2, 10336, Note_on_c, 0, 82, 65
2, 10351, Note_on_c, 0, 82, 0
2, 10352, Note_on_c, 0, 73, 65
2, 10367, Note_on_c, 0, 73, 0
2, 10368, Note_on_c, 0, 72, 65
2, 10383, Note_on_c, 0, 72, 0
2, 10384, Note_on_c, 0, 80, 65
2, 10399, Note_on_c, 0, 80, 0
2, 10400, Note_on_c, 0, 78, 65
2, 10415, Note_on_c, 0, 78, 0
2, 10416, Note_on_c, 0, 78, 81
2, 10479, Note_on_c, 0, 78, 0
2, 10480, Note_on_c, 0, 75, 65
2, 10495, Note_on_c, 0, 75, 0
2, 10496, Note_on_c, 0, 72, 65
2, 10511, Note_on_c, 0, 72, 0
2, 10512, Note_on_c, 0, 70, 65
2, 10528, Note_on_c, 0, 70, 0
2, 10528, Note_on_c, 0, 68, 65
2, 10543, Note_on_c, 0, 68, 0
2, 10544, Note_on_c, 0, 75, 65
2, 10559, Note_on_c, 0, 75, 0
2, 10560, Note_on_c, 0, 68, 65
2, 10576, Note_on_c, 0, 68, 0
2, 10576, Note_on_c, 0, 67, 65
2, 10591, Note_on_c, 0, 67, 0
2, 10592, Note_on_c, 0, 75, 65
2, 10607, Note_on_c, 0, 75, 0
2, 10608, Note_on_c, 0, 68, 65
2, 10624, Note_on_c, 0, 68, 0
2, 10624, Note_on_c, 0, 66, 65
2, 10639, Note_on_c, 0, 66, 0
2, 10640, Note_on_c, 0, 75, 65
2, 10655, Note_on_c, 0, 75, 0
2, 10656, Note_on_c, 0, 66, 65
2, 10671, Note_on_c, 0, 66, 0
2, 10672, Note_on_c, 0, 64, 66
2, 10688, Note_on_c, 0, 64, 0
2, 10688, Note_on_c, 0, 65, 67
2, 10703, Note_on_c, 0, 65, 0
2, 10704, Note_on_c, 0, 69, 68
2, 10720, Note_on_c, 0, 69, 0
2, 10720, Note_on_c, 0, 70, 70
2, 10735, Note_on_c, 0, 70, 0
2, 10736, Note_on_c, 0, 73, 71
2, 10751, Note_on_c, 0, 73, 0
2, 10752, Note_on_c, 0, 77, 72
2, 10767, Note_on_c, 0, 77, 0
2, 10768, Note_on_c, 0, 73, 73
2, 10783, Note_on_c, 0, 73, 0
2, 10784, Note_on_c, 0, 70, 75
2, 10799, Note_on_c, 0, 70, 0
2, 10800, Note_on_c, 0, 68, 74
2, 10889, Note_on_c, 0, 68, 0
2, 10896, Note_on_c, 0, 72, 65
2, 10902, Note_on_c, 0, 72, 0
2, 10902, Note_on_c, 0, 70, 65
2, 10919, Note_on_c, 0, 70, 0
2, 10920, Note_on_c, 0, 68, 65
2, 10943, Note_on_c, 0, 68, 0
2, 10944, Note_on_c, 0, 68, 65
2, 10959, Note_on_c, 0, 68, 0
2, 10960, Note_on_c, 0, 75, 65
2, 10975, Note_on_c, 0, 75, 0
2, 10976, Note_on_c, 0, 67, 65
2, 10991, Note_on_c, 0, 67, 0
2, 10992, Note_on_c, 0, 70, 65
2, 10997, Note_on_c, 0, 70, 0
2, 10997, Note_on_c, 0, 68, 65
2, 11002, Note_on_c, 0, 68, 0
2, 11002, Note_on_c, 0, 67, 65
2, 11007, Note_on_c, 0, 67, 0
2, 11007, Note_on_c, 0, 68, 65
2, 11012, Note_on_c, 0, 68, 0
2, 11012, Note_on_c, 0, 72, 65
2, 11027, Note_on_c, 0, 72, 0
2, 11027, Note_on_c, 0, 63, 65
2, 11040, Note_on_c, 0, 63, 0
2, 11040, Note_on_c, 0, 63, 65
2, 11046, Note_on_c, 0, 63, 0
2, 11046, Note_on_c, 0, 61, 65
2, 11052, Note_on_c, 0, 61, 0
2, 11052, Note_on_c, 0, 63, 65
2, 11058, Note_on_c, 0, 63, 0
2, 11058, Note_on_c, 0, 61, 65
2, 11064, Note_on_c, 0, 61, 0
2, 11064, Note_on_c, 0, 63, 65
2, 11070, Note_on_c, 0, 63, 0
2, 11070, Note_on_c, 0, 61, 65
2, 11076, Note_on_c, 0, 61, 0
2, 11076, Note_on_c, 0, 60, 65
2, 11082, Note_on_c, 0, 60, 0
2, 11082, Note_on_c, 0, 61, 65
2, 11088, Note_on_c, 0, 61, 0
2, 11088, Note_on_c, 0, 60, 65
2, 11103, Note_on_c, 0, 60, 0
2, 11104, Note_on_c, 0, 75, 65
2, 11119, Note_on_c, 0, 75, 0
2, 11120, Note_on_c, 0, 67, 65
2, 11135, Note_on_c, 0, 67, 0
2, 11136, Note_on_c, 0, 70, 65
2, 11141, Note_on_c, 0, 70, 0
2, 11141, Note_on_c, 0, 68, 65
2, 11146, Note_on_c, 0, 68, 0
2, 11146, Note_on_c, 0, 67, 65
2, 11151, Note_on_c, 0, 67, 0
2, 11151, Note_on_c, 0, 68, 65
2, 11156, Note_on_c, 0, 68, 0
2, 11156, Note_on_c, 0, 72, 65
2, 11171, Note_on_c, 0, 72, 0
2, 11171, Note_on_c, 0, 63, 65
2, 11184, Note_on_c, 0, 63, 0
2, 11184, Note_on_c, 0, 63, 65
2, 11190, Note_on_c, 0, 63, 0
2, 11190, Note_on_c, 0, 61, 65
2, 11196, Note_on_c, 0, 61, 0
2, 11196, Note_on_c, 0, 63, 65
2, 11202, Note_on_c, 0, 63, 0
2, 11202, Note_on_c, 0, 61, 65
2, 11208, Note_on_c, 0, 61, 0
2, 11208, Note_on_c, 0, 63, 65
2, 11214, Note_on_c, 0, 63, 0
2, 11214, Note_on_c, 0, 61, 65
2, 11220, Note_on_c, 0, 61, 0
2, 11220, Note_on_c, 0, 60, 65
2, 11226, Note_on_c, 0, 60, 0
2, 11226, Note_on_c, 0, 61, 65
2, 11232, Note_on_c, 0, 61, 0
2, 11232, Note_on_c, 0, 61, 65
2, 11280, Note_on_c, 0, 61, 0
2, 11280, Note_on_c, 0, 60, 65
2, 11373, Note_on_c, 0, 60, 0
2, 11520, Note_on_c, 0, 77, 65
2, 11526, Note_on_c, 0, 77, 0
2, 11526, Note_on_c, 0, 75, 65
2, 11532, Note_on_c, 0, 75, 0
2, 11532, Note_on_c, 0, 73, 65
2, 11538, Note_on_c, 0, 73, 0
2, 11538, Note_on_c, 0, 75, 65
2, 11587, Note_on_c, 0, 75, 0
2, 11592, Note_on_c, 0, 77, 65
2, 11615, Note_on_c, 0, 77, 0
2, 11616, Note_on_c, 0, 75, 65
2, 11661, Note_on_c, 0, 75, 0
2, 11664, Note_on_c, 0, 84, 65
2, 11676, Note_on_c, 0, 84, 0
2, 11676, Note_on_c, 0, 85, 65
2, 11688, Note_on_c, 0, 85, 0
2, 11688, Note_on_c, 0, 87, 65
2, 11711, Note_on_c, 0, 87, 0
2, 11808, Control_c, 0, 64, 127
2, 11824, Note_on_c, 0, 82, 65
2, 11839, Note_on_c, 0, 82, 0
2, 11840, Note_on_c, 0, 85, 65
2, 11855, Note_on_c, 0, 85, 0
2, 11856, Note_on_c, 0, 77, 66
2, 11871, Note_on_c, 0, 77, 0
2, 11872, Note_on_c, 0, 82, 67
2, 11887, Note_on_c, 0, 82, 0
2, 11888, Note_on_c, 0, 73, 67
2, 11903, Note_on_c, 0, 73, 0
2, 11904, Note_on_c, 0, 77, 68
2, 11919, Note_on_c, 0, 77, 0
2, 11920, Note_on_c, 0, 70, 69
2, 11935, Note_on_c, 0, 70, 0
2, 11936, Note_on_c, 0, 73, 69
2, 11951, Note_on_c, 0, 73, 0
2, 11952, Note_on_c, 0, 65, 70
2, 11967, Note_on_c, 0, 65, 0
2, 11968, Note_on_c, 0, 70, 71
2, 11983, Note_on_c, 0, 70, 0
2, 11984, Note_on_c, 0, 61, 71
2, 11999, Note_on_c, 0, 61, 0
2, 12000, Note_on_c, 0, 65, 75
2, 12015, Note_on_c, 0, 65, 0
2, 12016, Note_on_c, 0, 61, 75
2, 12031, Note_on_c, 0, 61, 0
2, 12032, Note_on_c, 0, 58, 75
2, 12047, Note_on_c, 0, 58, 0
2, 12048, Note_on_c, 0, 65, 75
2, 12063, Note_on_c, 0, 65, 0
2, 12064, Note_on_c, 0, 61, 75
2, 12079, Note_on_c, 0, 61, 0
2, 12080, Note_on_c, 0, 58, 75
2, 12095, Note_on_c, 0, 58, 0
2, 12096, Control_c, 0, 64, 0
2, 12096, Note_on_c, 0, 55, 75
2, 12111, Note_on_c, 0, 55, 0
2, 12112, Note_on_c, 0, 59, 75
2, 12127, Note_on_c, 0, 59, 0
2, 12128, Note_on_c, 0, 62, 75
2, 12143, Note_on_c, 0, 62, 0
2, 12144, Note_on_c, 0, 65, 75
2, 12159, Note_on_c, 0, 65, 0
2, 12160, Note_on_c, 0, 68, 75
2, 12175, Note_on_c, 0, 68, 0
2, 12176, Note_on_c, 0, 71, 75
2, 12191, Note_on_c, 0, 71, 0
2, 12192, Note_on_c, 0, 74, 75
2, 12207, Note_on_c, 0, 74, 0
2, 12208, Note_on_c, 0, 77, 75
2, 12223, Note_on_c, 0, 77, 0
2, 12224, Note_on_c, 0, 80, 75
2, 12239, Note_on_c, 0, 80, 0
2, 12240, Note_on_c, 0, 79, 75
2, 12246, Note_on_c, 0, 79, 0
2, 12246, Note_on_c, 0, 80, 75
2, 12252, Note_on_c, 0, 80, 0
2, 12252, Note_on_c, 0, 82, 75
2, 12258, Note_on_c, 0, 82, 0
2, 12258, Note_on_c, 0, 80, 75
2, 12336, Control_c, 0, 64, 0
2, 12351, Note_on_c, 0, 80, 0
2, 12352, Note_on_c, 0, 79, 65
2, 12367, Note_on_c, 0, 79, 0
2, 12368, Note_on_c, 0, 77, 65
2, 12383, Note_on_c, 0, 77, 0
2, 12384, Note_on_c, 0, 77, 65
2, 12399, Note_on_c, 0, 77, 0
2, 12400, Note_on_c, 0, 75, 65
2, 12415, Note_on_c, 0, 75, 0
2, 12416, Note_on_c, 0, 74, 65
2, 12431, Note_on_c, 0, 74, 0
2, 12432, Note_on_c, 0, 72, 65
2, 12452, Note_on_c, 0, 72, 0
2, 12496, Note_on_c, 0, 84, 65
2, 12511, Note_on_c, 0, 84, 0
2, 12512, Note_on_c, 0, 79, 65
2, 12527, Note_on_c, 0, 79, 0
2, 12528, Note_on_c, 0, 79, 65
2, 12543, Note_on_c, 0, 79, 0
2, 12544, Note_on_c, 0, 77, 65
2, 12559, Note_on_c, 0, 77, 0
2, 12560, Note_on_c, 0, 75, 65
2, 12575, Note_on_c, 0, 75, 0
2, 12576, Note_on_c, 0, 74, 65
2, 12596, Note_on_c, 0, 74, 0
2, 12640, Note_on_c, 0, 86, 65
2, 12655, Note_on_c, 0, 86, 0
2, 12656, Note_on_c, 0, 77, 65
2, 12671, Note_on_c, 0, 77, 0
2, 12672, Note_on_c, 0, 77, 65
2, 12687, Note_on_c, 0, 77, 0
2, 12688, Note_on_c, 0, 75, 65
2, 12703, Note_on_c, 0, 75, 0
2, 12704, Note_on_c, 0, 74, 65
2, 12719, Note_on_c, 0, 74, 0
2, 12720, Note_on_c, 0, 72, 65
2, 12740, Note_on_c, 0, 72, 0
2, 12784, Note_on_c, 0, 80, 66
2, 12799, Note_on_c, 0, 80, 0
2, 12800, Note_on_c, 0, 75, 67
2, 12815, Note_on_c, 0, 75, 0
2, 12816, Note_on_c, 0, 75, 68
2, 12831, Note_on_c, 0, 75, 0
2, 12832, Note_on_c, 0, 73, 70
2, 12847, Note_on_c, 0, 73, 0
2, 12848, Note_on_c, 0, 72, 71
2, 12863, Note_on_c, 0, 72, 0
2, 12864, Note_on_c, 0, 70, 75
2, 12884, Note_on_c, 0, 70, 0
2, 12928, Note_on_c, 0, 82, 75
2, 12943, Note_on_c, 0, 82, 0
2, 12944, Note_on_c, 0, 73, 75
2, 12959, Note_on_c, 0, 73, 0
2, 12960, Note_on_c, 0, 73, 75
2, 12975, Note_on_c, 0, 73, 0
2, 12976, Note_on_c, 0, 72, 75
2, 12991, Note_on_c, 0, 72, 0
2, 12992, Note_on_c, 0, 70, 75
2, 13007, Note_on_c, 0, 70, 0
2, 13008, Note_on_c, 0, 68, 75
2, 13028, Note_on_c, 0, 68, 0
2, 13072, Note_on_c, 0, 75, 75
2, 13087, Note_on_c, 0, 75, 0
2, 13088, Note_on_c, 0, 72, 77
2, 13103, Note_on_c, 0, 72, 0
2, 13104, Note_on_c, 0, 72, 80
2, 13119, Note_on_c, 0, 72, 0
2, 13120, Note_on_c, 0, 70, 83
2, 13135, Note_on_c, 0, 70, 0
2, 13136, Note_on_c, 0, 68, 86
2, 13151, Note_on_c, 0, 68, 0
2, 13152, Note_on_c, 0, 67, 89
2, 13172, Note_on_c, 0, 67, 0
2, 13216, Note_on_c, 0, 79, 106
2, 13231, Note_on_c, 0, 79, 0
2, 13232, Note_on_c, 0, 70, 106
2, 13247, Note_on_c, 0, 70, 0
2, 13248, Note_on_c, 0, 70, 106
2, 13263, Note_on_c, 0, 70, 0
2, 13264, Note_on_c, 0, 68, 103
2, 13279, Note_on_c, 0, 68, 0
2, 13280, Note_on_c, 0, 67, 101
2, 13295, Note_on_c, 0, 67, 0
2, 13296, Note_on_c, 0, 65, 99
2, 13311, Note_on_c, 0, 65, 0
2, 13312, Note_on_c, 0, 72, 97
2, 13327, Note_on_c, 0, 72, 0
2, 13328, Note_on_c, 0, 71, 95
2, 13343, Note_on_c, 0, 71, 0
2, 13344, Note_on_c, 0, 77, 93
2, 13359, Note_on_c, 0, 77, 0
2, 13360, Note_on_c, 0, 71, 91
2, 13375, Note_on_c, 0, 71, 0
2, 13376, Note_on_c, 0, 80, 89
2, 13391, Note_on_c, 0, 80, 0
2, 13392, Note_on_c, 0, 77, 87
2, 13440, Note_on_c, 0, 77, 0
2, 13440, Note_on_c, 0, 76, 87
2, 13481, Note_on_c, 0, 76, 0
2, 13536, Note_on_c, 0, 73, 65
2, 13551, Note_on_c, 0, 73, 0
2, 13552, Note_on_c, 0, 76, 65
2, 13567, Note_on_c, 0, 76, 0
2, 13568, Note_on_c, 0, 79, 65
2, 13583, Note_on_c, 0, 79, 0
2, 13584, Note_on_c, 0, 82, 65
2, 13599, Note_on_c, 0, 82, 0
2, 13600, Note_on_c, 0, 85, 65
2, 13615, Note_on_c, 0, 85, 0
2, 13616, Note_on_c, 0, 84, 65
2, 13631, Note_on_c, 0, 84, 0
2, 13632, Note_on_c, 0, 82, 65
2, 13647, Note_on_c, 0, 82, 0
2, 13648, Note_on_c, 0, 80, 65
2, 13663, Note_on_c, 0, 80, 0
2, 13664, Note_on_c, 0, 79, 65
2, 13679, Note_on_c, 0, 79, 0
2, 13680, Note_on_c, 0, 77, 65
2, 13695, Note_on_c, 0, 77, 0
2, 13696, Note_on_c, 0, 84, 65
2, 13711, Note_on_c, 0, 84, 0
2, 13712, Note_on_c, 0, 76, 65
2, 13727, Note_on_c, 0, 76, 0
2, 13728, Note_on_c, 0, 79, 65
2, 13733, Note_on_c, 0, 79, 0
2, 13733, Note_on_c, 0, 77, 65
2, 13738, Note_on_c, 0, 77, 0
2, 13738, Note_on_c, 0, 76, 65
2, 13743, Note_on_c, 0, 76, 0
2, 13743, Note_on_c, 0, 77, 65
2, 13748, Note_on_c, 0, 77, 0
2, 13748, Note_on_c, 0, 80, 65
2, 13763, Note_on_c, 0, 80, 0
2, 13763, Note_on_c, 0, 72, 65
2, 13776, Note_on_c, 0, 72, 0
2, 13776, Note_on_c, 0, 77, 65
2, 13791, Note_on_c, 0, 77, 0
2, 13792, Note_on_c, 0, 72, 65
2, 13807, Note_on_c, 0, 72, 0
2, 13808, Note_on_c, 0, 68, 65
2, 13823, Note_on_c, 0, 68, 0
2, 13824, Note_on_c, 0, 67, 65
2, 13839, Note_on_c, 0, 67, 0
2, 13840, Note_on_c, 0, 70, 65
2, 13855, Note_on_c, 0, 70, 0
2, 13856, Note_on_c, 0, 73, 65
2, 13871, Note_on_c, 0, 73, 0
2, 13872, Note_on_c, 0, 76, 65
2, 13887, Note_on_c, 0, 76, 0
2, 13888, Note_on_c, 0, 79, 65
2, 13903, Note_on_c, 0, 79, 0
2, 13904, Note_on_c, 0, 82, 65
2, 13908, Note_on_c, 0, 82, 0
2, 13908, Note_on_c, 0, 80, 65
2, 13912, Note_on_c, 0, 80, 0
2, 13912, Note_on_c, 0, 79, 65
2, 13916, Note_on_c, 0, 79, 0
2, 13916, Note_on_c, 0, 80, 65
2, 13920, Note_on_c, 0, 80, 0
2, 13920, Note_on_c, 0, 82, 65
2, 13935, Note_on_c, 0, 82, 0
2, 13936, Note_on_c, 0, 80, 65
2, 13951, Note_on_c, 0, 80, 0
2, 13952, Note_on_c, 0, 79, 65
2, 13967, Note_on_c, 0, 79, 0
2, 13968, Note_on_c, 0, 77, 65
2, 13983, Note_on_c, 0, 77, 0
2, 13984, Note_on_c, 0, 80, 65
2, 13999, Note_on_c, 0, 80, 0
2, 14000, Note_on_c, 0, 72, 65
2, 14015, Note_on_c, 0, 72, 0
2, 14016, Note_on_c, 0, 77, 65
2, 14031, Note_on_c, 0, 77, 0
2, 14032, Note_on_c, 0, 72, 65
2, 14047, Note_on_c, 0, 72, 0
2, 14048, Note_on_c, 0, 68, 65
2, 14063, Note_on_c, 0, 68, 0
2, 14064, Note_on_c, 0, 72, 65
2, 14079, Note_on_c, 0, 72, 0
2, 14080, Note_on_c, 0, 68, 67
2, 14095, Note_on_c, 0, 68, 0
2, 14096, Note_on_c, 0, 65, 70
2, 14111, Note_on_c, 0, 65, 0
2, 14112, Note_on_c, 0, 68, 75
2, 14118, Note_on_c, 0, 68, 0
2, 14118, Note_on_c, 0, 66, 75
2, 14124, Note_on_c, 0, 66, 0
2, 14124, Note_on_c, 0, 68, 75
2, 14130, Note_on_c, 0, 68, 0
2, 14130, Note_on_c, 0, 66, 75
2, 14136, Note_on_c, 0, 66, 0
2, 14136, Note_on_c, 0, 68, 75
2, 14142, Note_on_c, 0, 68, 0
2, 14142, Note_on_c, 0, 66, 75
2, 14148, Note_on_c, 0, 66, 0
2, 14148, Note_on_c, 0, 68, 75
2, 14154, Note_on_c, 0, 68, 0
2, 14154, Note_on_c, 0, 66, 75
2, 14160, Note_on_c, 0, 66, 0
2, 14160, Note_on_c, 0, 68, 75
2, 14166, Note_on_c, 0, 68, 0
2, 14166, Note_on_c, 0, 66, 75
2, 14172, Note_on_c, 0, 66, 0
2, 14172, Note_on_c, 0, 68, 75
2, 14178, Note_on_c, 0, 68, 0
2, 14178, Note_on_c, 0, 66, 75
2, 14184, Note_on_c, 0, 66, 0
2, 14184, Note_on_c, 0, 68, 75
2, 14190, Note_on_c, 0, 68, 0
2, 14190, Note_on_c, 0, 66, 75
2, 14196, Note_on_c, 0, 66, 0
2, 14196, Note_on_c, 0, 68, 75
2, 14202, Note_on_c, 0, 68, 0
2, 14202, Note_on_c, 0, 66, 75
2, 14208, Note_on_c, 0, 66, 0
2, 14208, Note_on_c, 0, 68, 75
2, 14214, Note_on_c, 0, 68, 0
2, 14214, Note_on_c, 0, 66, 75
2, 14220, Note_on_c, 0, 66, 0
2, 14220, Note_on_c, 0, 68, 75
2, 14226, Note_on_c, 0, 68, 0
2, 14226, Note_on_c, 0, 66, 75
2, 14232, Note_on_c, 0, 66, 0
2, 14232, Note_on_c, 0, 68, 75
2, 14238, Note_on_c, 0, 68, 0
2, 14238, Note_on_c, 0, 66, 75
2, 14244, Note_on_c, 0, 66, 0
2, 14244, Note_on_c, 0, 65, 75
2, 14250, Note_on_c, 0, 65, 0
2, 14250, Note_on_c, 0, 66, 75
2, 14256, Note_on_c, 0, 66, 0
2, 14256, Note_on_c, 0, 65, 75
2, 14301, Note_on_c, 0, 65, 0
2, 14304, Note_on_c, 0, 77, 75
2, 14316, Note_on_c, 0, 77, 0
2, 14316, Note_on_c, 0, 79, 75
2, 14328, Note_on_c, 0, 79, 0
2, 14328, Note_on_c, 0, 80, 75
2, 14351, Note_on_c, 0, 80, 0
2, 14394, Note_on_c, 0, 64, 75
2, 14406, Note_on_c, 0, 64, 0
2, 14406, Note_on_c, 0, 65, 75
2, 14412, Note_on_c, 0, 65, 0
2, 14412, Note_on_c, 0, 67, 75
2, 14418, Note_on_c, 0, 67, 0
2, 14418, Note_on_c, 0, 65, 75
2, 14424, Note_on_c, 0, 65, 0
2, 14424, Note_on_c, 0, 67, 75
2, 14430, Note_on_c, 0, 67, 0
2, 14430, Note_on_c, 0, 65, 75
2, 14436, Note_on_c, 0, 65, 0
2, 14436, Note_on_c, 0, 67, 75
2, 14442, Note_on_c, 0, 67, 0
2, 14442, Note_on_c, 0, 65, 75
2, 14448, Note_on_c, 0, 65, 0
2, 14448, Note_on_c, 0, 67, 75
2, 14454, Note_on_c, 0, 67, 0
2, 14454, Note_on_c, 0, 65, 75
2, 14460, Note_on_c, 0, 65, 0
2, 14460, Note_on_c, 0, 67, 75
2, 14466, Note_on_c, 0, 67, 0
2, 14466, Note_on_c, 0, 65, 75
2, 14472, Note_on_c, 0, 65, 0
2, 14472, Note_on_c, 0, 67, 75
2, 14478, Note_on_c, 0, 67, 0
2, 14478, Note_on_c, 0, 65, 75
2, 14484, Note_on_c, 0, 65, 0
2, 14484, Note_on_c, 0, 67, 75
2, 14490, Note_on_c, 0, 67, 0
2, 14490, Note_on_c, 0, 65, 75
2, 14496, Note_on_c, 0, 65, 0
2, 14496, Note_on_c, 0, 67, 75
2, 14502, Note_on_c, 0, 67, 0
2, 14502, Note_on_c, 0, 65, 75
2, 14508, Note_on_c, 0, 65, 0
2, 14508, Note_on_c, 0, 67, 75
2, 14514, Note_on_c, 0, 67, 0
2, 14514, Note_on_c, 0, 65, 75
2, 14520, Note_on_c, 0, 65, 0
2, 14520, Note_on_c, 0, 67, 75
2, 14526, Note_on_c, 0, 67, 0
2, 14526, Note_on_c, 0, 65, 75
2, 14532, Note_on_c, 0, 65, 0
2, 14532, Note_on_c, 0, 64, 75
2, 14538, Note_on_c, 0, 64, 0
2, 14538, Note_on_c, 0, 65, 75
2, 14544, Note_on_c, 0, 65, 0
2, 14544, Note_on_c, 0, 64, 75
2, 14589, Note_on_c, 0, 64, 0
2, 14592, Note_on_c, 0, 84, 75
2, 14604, Note_on_c, 0, 84, 0
2, 14604, Note_on_c, 0, 86, 75
2, 14616, Note_on_c, 0, 86, 0
2, 14616, Note_on_c, 0, 88, 75
2, 14639, Note_on_c, 0, 88, 0
2, 14688, Note_on_c, 0, 72, 65
2, 14703, Note_on_c, 0, 72, 0
2, 14704, Note_on_c, 0, 70, 65
2, 14719, Note_on_c, 0, 70, 0
2, 14720, Note_on_c, 0, 68, 65
2, 14735, Note_on_c, 0, 68, 0
2, 14736, Note_on_c, 0, 67, 65
2, 14756, Note_on_c, 0, 67, 0
2, 14800, Note_on_c, 0, 79, 65
2, 14815, Note_on_c, 0, 79, 0
2, 14816, Note_on_c, 0, 70, 65
2, 14831, Note_on_c, 0, 70, 0
2, 14832, Note_on_c, 0, 70, 65
2, 14847, Note_on_c, 0, 70, 0
2, 14848, Note_on_c, 0, 68, 65
2, 14863, Note_on_c, 0, 68, 0
2, 14864, Note_on_c, 0, 67, 65
2, 14879, Note_on_c, 0, 67, 0
2, 14880, Note_on_c, 0, 65, 65
2, 14900, Note_on_c, 0, 65, 0
2, 14944, Note_on_c, 0, 77, 58
2, 14959, Note_on_c, 0, 77, 0
2, 14960, Note_on_c, 0, 72, 58
2, 14975, Note_on_c, 0, 72, 0
2, 14976, Note_on_c, 0, 72, 58
2, 14991, Note_on_c, 0, 72, 0
2, 14992, Note_on_c, 0, 70, 58
2, 15007, Note_on_c, 0, 70, 0
2, 15008, Note_on_c, 0, 68, 58
2, 15023, Note_on_c, 0, 68, 0
2, 15024, Note_on_c, 0, 67, 58
2, 15044, Note_on_c, 0, 67, 0
2, 15088, Note_on_c, 0, 79, 58
2, 15103, Note_on_c, 0, 79, 0
2, 15104, Note_on_c, 0, 70, 58
2, 15119, Note_on_c, 0, 70, 0
2, 15136, Control_c, 0, 64, 127
2, 15136, Note_on_c, 0, 80, 75
2, 15151, Note_on_c, 0, 80, 0
2, 15152, Note_on_c, 0, 84, 75
2, 15167, Note_on_c, 0, 84, 0
2, 15168, Note_on_c, 0, 77, 75
2, 15183, Note_on_c, 0, 77, 0
2, 15184, Note_on_c, 0, 80, 75
2, 15199, Note_on_c, 0, 80, 0
2, 15200, Note_on_c, 0, 72, 75
2, 15215, Note_on_c, 0, 72, 0
2, 15216, Note_on_c, 0, 77, 75
2, 15231, Note_on_c, 0, 77, 0
2, 15232, Note_on_c, 0, 68, 75
2, 15247, Note_on_c, 0, 68, 0
2, 15248, Control_c, 0, 64, 0
2, 15248, Note_on_c, 0, 72, 75
2, 15263, Note_on_c, 0, 72, 0
2, 15264, Control_c, 0, 64, 127
2, 15280, Note_on_c, 0, 83, 75
2, 15295, Note_on_c, 0, 83, 0
2, 15296, Note_on_c, 0, 86, 75
2, 15311, Note_on_c, 0, 86, 0
2, 15312, Note_on_c, 0, 80, 75
2, 15327, Note_on_c, 0, 80, 0
2, 15328, Note_on_c, 0, 83, 75
2, 15343, Note_on_c, 0, 83, 0
2, 15344, Note_on_c, 0, 77, 75
2, 15359, Note_on_c, 0, 77, 0
2, 15360, Note_on_c, 0, 80, 75
2, 15375, Note_on_c, 0, 80, 0
2, 15376, Note_on_c, 0, 74, 75
2, 15391, Note_on_c, 0, 74, 0
2, 15392, Control_c, 0, 64, 0
2, 15392, Note_on_c, 0, 77, 75
2, 15407, Note_on_c, 0, 77, 0
2, 15408, Control_c, 0, 64, 127
2, 15424, Note_on_c, 0, 80, 75
2, 15439, Note_on_c, 0, 80, 0
2, 15440, Note_on_c, 0, 84, 75
2, 15455, Note_on_c, 0, 84, 0
2, 15456, Control_c, 0, 64, 0
2, 15456, Note_on_c, 0, 76, 75
2, 15471, Note_on_c, 0, 76, 0
2, 15472, Note_on_c, 0, 77, 75
2, 15487, Note_on_c, 0, 77, 0
2, 15488, Note_on_c, 0, 80, 75
2, 15503, Note_on_c, 0, 80, 0
2, 15504, Note_on_c, 0, 72, 75
2, 15519, Note_on_c, 0, 72, 0
2, 15520, Note_on_c, 0, 71, 75
2, 15535, Note_on_c, 0, 71, 0
2, 15536, Note_on_c, 0, 79, 75
2, 15551, Note_on_c, 0, 79, 0
2, 15552, Note_on_c, 0, 70, 75
2, 15567, Note_on_c, 0, 70, 0
2, 15568, Note_on_c, 0, 69, 75
2, 15583, Note_on_c, 0, 69, 0
2, 15584, Note_on_c, 0, 77, 75
2, 15599, Note_on_c, 0, 77, 0
2, 15600, Note_on_c, 0, 68, 75
2, 15615, Note_on_c, 0, 68, 0
2, 15616, Note_on_c, 0, 67, 75
2, 15631, Note_on_c, 0, 67, 0
2, 15632, Note_on_c, 0, 76, 75
2, 15647, Note_on_c, 0, 76, 0
2, 15648, Note_on_c, 0, 67, 75
2, 15663, Note_on_c, 0, 67, 0
2, 15664, Note_on_c, 0, 65, 75
2, 15679, Note_on_c, 0, 65, 0
2, 15680, Control_c, 0, 64, 0
2, 15680, Note_on_c, 0, 74, 75
2, 15695, Note_on_c, 0, 74, 0
2, 15696, Note_on_c, 0, 65, 65
2, 15711, Note_on_c, 0, 65, 0
2, 15712, Note_on_c, 0, 64, 64
2, 15727, Note_on_c, 0, 64, 0
2, 15728, Note_on_c, 0, 72, 63
2, 15743, Note_on_c, 0, 72, 0
2, 15744, Note_on_c, 0, 67, 63
2, 15759, Note_on_c, 0, 67, 0
2, 15760, Note_on_c, 0, 65, 62
2, 15775, Note_on_c, 0, 65, 0
2, 15776, Note_on_c, 0, 72, 62
2, 15791, Note_on_c, 0, 72, 0
2, 15792, Note_on_c, 0, 68, 61
2, 15807, Note_on_c, 0, 68, 0
2, 15808, Note_on_c, 0, 67, 60
2, 15823, Note_on_c, 0, 67, 0
2, 15824, Note_on_c, 0, 70, 60
2, 15839, Note_on_c, 0, 70, 0
2, 15840, Control_c, 0, 64, 127
2, 15840, Note_on_c, 0, 68, 75
2, 15885, Note_on_c, 0, 68, 0
2, 15920, Note_on_c, 0, 65, 75
2, 15935, Note_on_c, 0, 65, 0
2, 15936, Note_on_c, 0, 68, 75
2, 15951, Note_on_c, 0, 68, 0
2, 15952, Note_on_c, 0, 73, 75
2, 15967, Note_on_c, 0, 73, 0
2, 15968, Control_c, 0, 64, 0
2, 15968, Note_on_c, 0, 77, 75
2, 15983, Note_on_c, 0, 77, 0
2, 15984, Control_c, 0, 64, 127
2, 16016, Note_on_c, 0, 62, 75
2, 16031, Note_on_c, 0, 62, 0
2, 16032, Note_on_c, 0, 65, 75
2, 16047, Note_on_c, 0, 65, 0
2, 16048, Note_on_c, 0, 68, 75
2, 16063, Note_on_c, 0, 68, 0
2, 16064, Note_on_c, 0, 71, 75
2, 16079, Note_on_c, 0, 71, 0
2, 16080, Note_on_c, 0, 74, 75
2, 16095, Note_on_c, 0, 74, 0
2, 16096, Note_on_c, 0, 77, 75
2, 16111, Note_on_c, 0, 77, 0
2, 16112, Control_c, 0, 64, 0
2, 16112, Note_on_c, 0, 80, 75
2, 16127, Note_on_c, 0, 80, 0
2, 16144, Note_on_c, 0, 84, 75
2, 16159, Note_on_c, 0, 84, 0
2, 16160, Note_on_c, 0, 72, 75
2, 16175, Note_on_c, 0, 72, 0
2, 16176, Note_on_c, 0, 71, 75
2, 16191, Note_on_c, 0, 71, 0
2, 16192, Note_on_c, 0, 70, 75
2, 16207, Note_on_c, 0, 70, 0
2, 16208, Note_on_c, 0, 69, 75
2, 16223, Note_on_c, 0, 69, 0
2, 16224, Note_on_c, 0, 68, 75
2, 16239, Note_on_c, 0, 68, 0
2, 16240, Note_on_c, 0, 67, 75
2, 16255, Note_on_c, 0, 67, 0
2, 16256, Note_on_c, 0, 66, 75
2, 16271, Note_on_c, 0, 66, 0
2, 16272, Note_on_c, 0, 65, 75
2, 16361, Note_on_c, 0, 65, 0
2, 16368, Note_on_c, 0, 68, 75
2, 16374, Note_on_c, 0, 68, 0
2, 16374, Note_on_c, 0, 67, 75
2, 16391, Note_on_c, 0, 67, 0
2, 16392, Note_on_c, 0, 65, 75
2, 16415, Note_on_c, 0, 65, 0
2, 16416, Note_on_c, 0, 65, 75
2, 16431, Note_on_c, 0, 65, 0
2, 16432, Note_on_c, 0, 72, 75
2, 16447, Note_on_c, 0, 72, 0
2, 16448, Note_on_c, 0, 64, 75
2, 16463, Note_on_c, 0, 64, 0
2, 16464, Note_on_c, 0, 67, 75
2, 16469, Note_on_c, 0, 67, 0
2, 16469, Note_on_c, 0, 65, 75
2, 16474, Note_on_c, 0, 65, 0
2, 16474, Note_on_c, 0, 64, 75
2, 16479, Note_on_c, 0, 64, 0
2, 16479, Note_on_c, 0, 65, 75
2, 16484, Note_on_c, 0, 65, 0
2, 16484, Note_on_c, 0, 68, 75
2, 16499, Note_on_c, 0, 68, 0
2, 16499, Note_on_c, 0, 60, 75
2, 16512, Note_on_c, 0, 60, 0
2, 16512, Note_on_c, 0, 58, 75
2, 16527, Note_on_c, 0, 58, 0
2, 16528, Note_on_c, 0, 61, 75
2, 16543, Note_on_c, 0, 61, 0
2, 16544, Note_on_c, 0, 55, 75
2, 16559, Note_on_c, 0, 55, 0
2, 16560, Note_on_c, 0, 56, 75
2, 16575, Note_on_c, 0, 56, 0
2, 16576, Note_on_c, 0, 72, 75
2, 16591, Note_on_c, 0, 72, 0
2, 16592, Note_on_c, 0, 64, 75
2, 16607, Note_on_c, 0, 64, 0
2, 16608, Note_on_c, 0, 67, 75
2, 16613, Note_on_c, 0, 67, 0
2, 16613, Note_on_c, 0, 65, 75
2, 16618, Note_on_c, 0, 65, 0
2, 16618, Note_on_c, 0, 64, 75
2, 16623, Note_on_c, 0, 64, 0
2, 16623, Note_on_c, 0, 65, 75
2, 16628, Note_on_c, 0, 65, 0
2, 16628, Note_on_c, 0, 68, 75
2, 16643, Note_on_c, 0, 68, 0
2, 16643, Note_on_c, 0, 60, 75
2, 16656, Note_on_c, 0, 60, 0
2, 16656, Note_on_c, 0, 58, 75
2, 16671, Note_on_c, 0, 58, 0
2, 16672, Note_on_c, 0, 67, 75
2, 16687, Note_on_c, 0, 67, 0
2, 16688, Note_on_c, 0, 64, 75
2, 16703, Note_on_c, 0, 64, 0
2, 16704, Note_on_c, 0, 64, 75
2, 16749, Note_on_c, 0, 64, 0
2, 16752, Note_on_c, 0, 67, 75
2, 16758, Note_on_c, 0, 67, 0
2, 16758, Note_on_c, 0, 65, 75
2, 16764, Note_on_c, 0, 65, 0
2, 16764, Note_on_c, 0, 64, 75
2, 16770, Note_on_c, 0, 64, 0
2, 16770, Note_on_c, 0, 65, 75
2, 16841, Note_on_c, 0, 65, 0
2, 16992, Note_on_c, 0, 77, 65
2, 16998, Note_on_c, 0, 77, 0
2, 16998, Note_on_c, 0, 75, 65
2, 17004, Note_on_c, 0, 75, 0
2, 17004, Note_on_c, 0, 73, 65
2, 17010, Note_on_c, 0, 73, 0
2, 17010, Note_on_c, 0, 75, 65
2, 17059, Note_on_c, 0, 75, 0
2, 17064, Note_on_c, 0, 77, 65
2, 17087, Note_on_c, 0, 77, 0
2, 17088, Note_on_c, 0, 75, 65
2, 17133, Note_on_c, 0, 75, 0
2, 17136, Note_on_c, 0, 84, 65
2, 17148, Note_on_c, 0, 84, 0
2, 17148, Note_on_c, 0, 85, 65
2, 17160, Note_on_c, 0, 85, 0
2, 17160, Note_on_c, 0, 87, 65
2, 17183, Note_on_c, 0, 87, 0
2, 17280, Control_c, 0, 64, 127
2, 17296, Note_on_c, 0, 82, 65
2, 17311, Note_on_c, 0, 82, 0
2, 17312, Note_on_c, 0, 85, 65
2, 17327, Note_on_c, 0, 85, 0
2, 17328, Note_on_c, 0, 77, 66
2, 17343, Note_on_c, 0, 77, 0
2, 17344, Note_on_c, 0, 82, 67
2, 17359, Note_on_c, 0, 82, 0
2, 17360, Note_on_c, 0, 73, 67
2, 17375, Note_on_c, 0, 73, 0
2, 17376, Note_on_c, 0, 77, 68
2, 17391, Note_on_c, 0, 77, 0
2, 17392, Note_on_c, 0, 70, 69
2, 17407, Note_on_c, 0, 70, 0
2, 17408, Note_on_c, 0, 73, 69
2, 17423, Note_on_c, 0, 73, 0
2, 17424, Note_on_c, 0, 65, 70
2, 17439, Note_on_c, 0, 65, 0
2, 17440, Note_on_c, 0, 70, 71
2, 17455, Note_on_c, 0, 70, 0
2, 17456, Note_on_c, 0, 61, 71
2, 17471, Note_on_c, 0, 61, 0
2, 17472, Note_on_c, 0, 65, 75
2, 17487, Note_on_c, 0, 65, 0
2, 17488, Note_on_c, 0, 61, 75
2, 17503, Note_on_c, 0, 61, 0
2, 17504, Note_on_c, 0, 58, 75
2, 17519, Note_on_c, 0, 58, 0
2, 17520, Note_on_c, 0, 65, 75
2, 17535, Note_on_c, 0, 65, 0
2, 17536, Note_on_c, 0, 61, 75
2, 17551, Note_on_c, 0, 61, 0
2, 17552, Note_on_c, 0, 58, 75
2, 17567, Note_on_c, 0, 58, 0
2, 17568, Control_c, 0, 64, 0
2, 17568, Note_on_c, 0, 55, 75
2, 17583, Note_on_c, 0, 55, 0
2, 17584, Note_on_c, 0, 59, 75
2, 17599, Note_on_c, 0, 59, 0
2, 17600, Note_on_c, 0, 62, 75
2, 17615, Note_on_c, 0, 62, 0
2, 17616, Note_on_c, 0, 65, 75
2, 17631, Note_on_c, 0, 65, 0
2, 17632, Note_on_c, 0, 68, 75
2, 17647, Note_on_c, 0, 68, 0
2, 17648, Note_on_c, 0, 71, 75
2, 17663, Note_on_c, 0, 71, 0
2, 17664, Note_on_c, 0, 74, 75
2, 17679, Note_on_c, 0, 74, 0
2, 17680, Note_on_c, 0, 77, 75
2, 17695, Note_on_c, 0, 77, 0
2, 17696, Note_on_c, 0, 80, 75
2, 17711, Note_on_c, 0, 80, 0
2, 17712, Note_on_c, 0, 79, 75
2, 17718, Note_on_c, 0, 79, 0
2, 17718, Note_on_c, 0, 80, 75
2, 17724, Note_on_c, 0, 80, 0
2, 17724, Note_on_c, 0, 82, 75
2, 17730, Note_on_c, 0, 82, 0
2, 17730, Note_on_c, 0, 80, 75
2, 17808, Control_c, 0, 64, 0
2, 17823, Note_on_c, 0, 80, 0
2, 17824, Note_on_c, 0, 79, 65
2, 17839, Note_on_c, 0, 79, 0
2, 17840, Note_on_c, 0, 77, 65
2, 17855, Note_on_c, 0, 77, 0
2, 17856, Note_on_c, 0, 77, 65
2, 17871, Note_on_c, 0, 77, 0
2, 17872, Note_on_c, 0, 75, 65
2, 17887, Note_on_c, 0, 75, 0
2, 17888, Note_on_c, 0, 74, 65
2, 17903, Note_on_c, 0, 74, 0
2, 17904, Note_on_c, 0, 72, 65
2, 17924, Note_on_c, 0, 72, 0
2, 17968, Note_on_c, 0, 84, 65
2, 17983, Note_on_c, 0, 84, 0
2, 17984, Note_on_c, 0, 79, 65
2, 17999, Note_on_c, 0, 79, 0
2, 18000, Note_on_c, 0, 79, 65
2, 18015, Note_on_c, 0, 79, 0
2, 18016, Note_on_c, 0, 77, 65
2, 18031, Note_on_c, 0, 77, 0
2, 18032, Note_on_c, 0, 75, 65
2, 18047, Note_on_c, 0, 75, 0
2, 18048, Note_on_c, 0, 74, 65
2, 18068, Note_on_c, 0, 74, 0
2, 18112, Note_on_c, 0, 86, 65
2, 18127, Note_on_c, 0, 86, 0
2, 18128, Note_on_c, 0, 77, 65
2, 18143, Note_on_c, 0, 77, 0
2, 18144, Note_on_c, 0, 77, 65
2, 18159, Note_on_c, 0, 77, 0
2, 18160, Note_on_c, 0, 75, 65
2, 18175, Note_on_c, 0, 75, 0
2, 18176, Note_on_c, 0, 74, 65
2, 18191, Note_on_c, 0, 74, 0
2, 18192, Note_on_c, 0, 72, 65
2, 18212, Note_on_c, 0, 72, 0
2, 18256, Note_on_c, 0, 80, 66
2, 18271, Note_on_c, 0, 80, 0
2, 18272, Note_on_c, 0, 75, 67
2, 18287, Note_on_c, 0, 75, 0
2, 18288, Note_on_c, 0, 75, 68
2, 18303, Note_on_c, 0, 75, 0
2, 18304, Note_on_c, 0, 73, 70
2, 18319, Note_on_c, 0, 73, 0
2, 18320, Note_on_c, 0, 72, 71
2, 18335, Note_on_c, 0, 72, 0
2, 18336, Note_on_c, 0, 70, 75
2, 18356, Note_on_c, 0, 70, 0
2, 18400, Note_on_c, 0, 82, 75
2, 18415, Note_on_c, 0, 82, 0
2, 18416, Note_on_c, 0, 73, 75
2, 18431, Note_on_c, 0, 73, 0
2, 18432, Note_on_c, 0, 73, 75
2, 18447, Note_on_c, 0, 73, 0
2, 18448, Note_on_c, 0, 72, 75
2, 18463, Note_on_c, 0, 72, 0
2, 18464, Note_on_c, 0, 70, 75
2, 18479, Note_on_c, 0, 70, 0
2, 18480, Note_on_c, 0, 68, 75
2, 18500, Note_on_c, 0, 68, 0
2, 18544, Note_on_c, 0, 75, 75
2, 18559, Note_on_c, 0, 75, 0
2, 18560, Note_on_c, 0, 72, 77
2, 18575, Note_on_c, 0, 72, 0
2, 18576, Note_on_c, 0, 72, 80
2, 18591, Note_on_c, 0, 72, 0
2, 18592, Note_on_c, 0, 70, 83
2, 18607, Note_on_c, 0, 70, 0
2, 18608, Note_on_c, 0, 68, 86
2, 18623, Note_on_c, 0, 68, 0
2, 18624, Note_on_c, 0, 67, 89
2, 18644, Note_on_c, 0, 67, 0
2, 18688, Note_on_c, 0, 79, 106
2, 18703, Note_on_c, 0, 79, 0
2, 18704, Note_on_c, 0, 70, 106
2, 18719, Note_on_c, 0, 70, 0
2, 18720, Note_on_c, 0, 70, 106
2, 18735, Note_on_c, 0, 70, 0
2, 18736, Note_on_c, 0, 68, 103
2, 18751, Note_on_c, 0, 68, 0
2, 18752, Note_on_c, 0, 67, 101
2, 18767, Note_on_c, 0, 67, 0
2, 18768, Note_on_c, 0, 65, 99
2, 18783, Note_on_c, 0, 65, 0
2, 18784, Note_on_c, 0, 72, 97
2, 18799, Note_on_c, 0, 72, 0
2, 18800, Note_on_c, 0, 71, 95
2, 18815, Note_on_c, 0, 71, 0
2, 18816, Note_on_c, 0, 77, 93
2, 18831, Note_on_c, 0, 77, 0
2, 18832, Note_on_c, 0, 71, 91
2, 18847, Note_on_c, 0, 71, 0
2, 18848, Note_on_c, 0, 80, 89
2, 18863, Note_on_c, 0, 80, 0
2, 18864, Note_on_c, 0, 77, 87
2, 18912, Note_on_c, 0, 77, 0
2, 18912, Note_on_c, 0, 76, 87
2, 18953, Note_on_c, 0, 76, 0
2, 19008, Note_on_c, 0, 73, 65
2, 19023, Note_on_c, 0, 73, 0
2, 19024, Note_on_c, 0, 76, 65
2, 19039, Note_on_c, 0, 76, 0
2, 19040, Note_on_c, 0, 79, 65
2, 19055, Note_on_c, 0, 79, 0
2, 19056, Note_on_c, 0, 82, 65
2, 19071, Note_on_c, 0, 82, 0
2, 19072, Note_on_c, 0, 85, 65
2, 19087, Note_on_c, 0, 85, 0
2, 19088, Note_on_c, 0, 84, 65
2, 19103, Note_on_c, 0, 84, 0
2, 19104, Note_on_c, 0, 82, 65
2, 19119, Note_on_c, 0, 82, 0
2, 19120, Note_on_c, 0, 80, 65
2, 19135, Note_on_c, 0, 80, 0
2, 19136, Note_on_c, 0, 79, 65
2, 19151, Note_on_c, 0, 79, 0
2, 19152, Note_on_c, 0, 77, 65
2, 19167, Note_on_c, 0, 77, 0
2, 19168, Note_on_c, 0, 84, 65
2, 19183, Note_on_c, 0, 84, 0
2, 19184, Note_on_c, 0, 76, 65
2, 19199, Note_on_c, 0, 76, 0
2, 19200, Note_on_c, 0, 79, 65
2, 19205, Note_on_c, 0, 79, 0
2, 19205, Note_on_c, 0, 77, 65
2, 19210, Note_on_c, 0, 77, 0
2, 19210, Note_on_c, 0, 76, 65
2, 19215, Note_on_c, 0, 76, 0
2, 19215, Note_on_c, 0, 77, 65
2, 19220, Note_on_c, 0, 77, 0
2, 19220, Note_on_c, 0, 80, 65
2, 19235, Note_on_c, 0, 80, 0
2, 19235, Note_on_c, 0, 72, 65
2, 19248, Note_on_c, 0, 72, 0
2, 19248, Note_on_c, 0, 77, 65
2, 19263, Note_on_c, 0, 77, 0
2, 19264, Note_on_c, 0, 72, 65
2, 19279, Note_on_c, 0, 72, 0
2, 19280, Note_on_c, 0, 68, 65
2, 19295, Note_on_c, 0, 68, 0
2, 19296, Note_on_c, 0, 67, 65
2, 19311, Note_on_c, 0, 67, 0
2, 19312, Note_on_c, 0, 70, 65
2, 19327, Note_on_c, 0, 70, 0
2, 19328, Note_on_c, 0, 73, 65
2, 19343, Note_on_c, 0, 73, 0
2, 19344, Note_on_c, 0, 76, 65
2, 19359, Note_on_c, 0, 76, 0
2, 19360, Note_on_c, 0, 79, 65
2, 19375, Note_on_c, 0, 79, 0
2, 19376, Note_on_c, 0, 82, 65
2, 19380, Note_on_c, 0, 82, 0
2, 19380, Note_on_c, 0, 80, 65
2, 19384, Note_on_c, 0, 80, 0
2, 19384, Note_on_c, 0, 79, 65
2, 19388, Note_on_c, 0, 79, 0
2, 19388, Note_on_c, 0, 80, 65
2, 19392, Note_on_c, 0, 80, 0
2, 19392, Note_on_c, 0, 82, 65
2, 19407, Note_on_c, 0, 82, 0
2, 19408, Note_on_c, 0, 80, 65
2, 19423, Note_on_c, 0, 80, 0
2, 19424, Note_on_c, 0, 79, 65
2, 19439, Note_on_c, 0, 79, 0
2, 19440, Note_on_c, 0, 77, 65
2, 19455, Note_on_c, 0, 77, 0
2, 19456, Note_on_c, 0, 80, 65
2, 19471, Note_on_c, 0, 80, 0
2, 19472, Note_on_c, 0, 72, 65
2, 19487, Note_on_c, 0, 72, 0
2, 19488, Note_on_c, 0, 77, 65
2, 19503, Note_on_c, 0, 77, 0
2, 19504, Note_on_c, 0, 72, 65
2, 19519, Note_on_c, 0, 72, 0
2, 19520, Note_on_c, 0, 68, 65
2, 19535, Note_on_c, 0, 68, 0
2, 19536, Note_on_c, 0, 72, 65
2, 19551, Note_on_c, 0, 72, 0
2, 19552, Note_on_c, 0, 68, 67
2, 19567, Note_on_c, 0, 68, 0
2, 19568, Note_on_c, 0, 65, 70
2, 19583, Note_on_c, 0, 65, 0
2, 19584, Note_on_c, 0, 68, 75
2, 19590, Note_on_c, 0, 68, 0
2, 19590, Note_on_c, 0, 66, 75
2, 19596, Note_on_c, 0, 66, 0
2, 19596, Note_on_c, 0, 68, 75
2, 19602, Note_on_c, 0, 68, 0
2, 19602, Note_on_c, 0, 66, 75
2, 19608, Note_on_c, 0, 66, 0
2, 19608, Note_on_c, 0, 68, 75
2, 19614, Note_on_c, 0, 68, 0
2, 19614, Note_on_c, 0, 66, 75
2, 19620, Note_on_c, 0, 66, 0
2, 19620, Note_on_c, 0, 68, 75
2, 19626, Note_on_c, 0, 68, 0
2, 19626, Note_on_c, 0, 66, 75
2, 19632, Note_on_c, 0, 66, 0
2, 19632, Note_on_c, 0, 68, 75
2, 19638, Note_on_c, 0, 68, 0
2, 19638, Note_on_c, 0, 66, 75
2, 19644, Note_on_c, 0, 66, 0
2, 19644, Note_on_c, 0, 68, 75
2, 19650, Note_on_c, 0, 68, 0
2, 19650, Note_on_c, 0, 66, 75
2, 19656, Note_on_c, 0, 66, 0
2, 19656, Note_on_c, 0, 68, 75
2, 19662, Note_on_c, 0, 68, 0
2, 19662, Note_on_c, 0, 66, 75
2, 19668, Note_on_c, 0, 66, 0
2, 19668, Note_on_c, 0, 68, 75
2, 19674, Note_on_c, 0, 68, 0
2, 19674, Note_on_c, 0, 66, 75
2, 19680, Note_on_c, 0, 66, 0
2, 19680, Note_on_c, 0, 68, 75
2, 19686, Note_on_c, 0, 68, 0
2, 19686, Note_on_c, 0, 66, 75
2, 19692, Note_on_c, 0, 66, 0
2, 19692, Note_on_c, 0, 68, 75
2, 19698, Note_on_c, 0, 68, 0
2, 19698, Note_on_c, 0, 66, 75
2, 19704, Note_on_c, 0, 66, 0
2, 19704, Note_on_c, 0, 68, 75
2, 19710, Note_on_c, 0, 68, 0
2, 19710, Note_on_c, 0, 66, 75
2, 19716, Note_on_c, 0, 66, 0
2, 19716, Note_on_c, 0, 65, 75
2, 19722, Note_on_c, 0, 65, 0
2, 19722, Note_on_c, 0, 66, 75
2, 19728, Note_on_c, 0, 66, 0
2, 19728, Note_on_c, 0, 65, 75
2, 19773, Note_on_c, 0, 65, 0
2, 19776, Note_on_c, 0, 77, 75
2, 19788, Note_on_c, 0, 77, 0
2, 19788, Note_on_c, 0, 79, 75
2, 19800, Note_on_c, 0, 79, 0
2, 19800, Note_on_c, 0, 80, 75
2, 19823, Note_on_c, 0, 80, 0
2, 19866, Note_on_c, 0, 64, 75
2, 19878, Note_on_c, 0, 64, 0
2, 19878, Note_on_c, 0, 65, 75
2, 19884, Note_on_c, 0, 65, 0
2, 19884, Note_on_c, 0, 67, 75
2, 19890, Note_on_c, 0, 67, 0
2, 19890, Note_on_c, 0, 65, 75
2, 19896, Note_on_c, 0, 65, 0
2, 19896, Note_on_c, 0, 67, 75
2, 19902, Note_on_c, 0, 67, 0
2, 19902, Note_on_c, 0, 65, 75
2, 19908, Note_on_c, 0, 65, 0
2, 19908, Note_on_c, 0, 67, 75
2, 19914, Note_on_c, 0, 67, 0
2, 19914, Note_on_c, 0, 65, 75
2, 19920, Note_on_c, 0, 65, 0
2, 19920, Note_on_c, 0, 67, 75
2, 19926, Note_on_c, 0, 67, 0
2, 19926, Note_on_c, 0, 65, 75
2, 19932, Note_on_c, 0, 65, 0
2, 19932, Note_on_c, 0, 67, 75
2, 19938, Note_on_c, 0, 67, 0
2, 19938, Note_on_c, 0, 65, 75
2, 19944, Note_on_c, 0, 65, 0
2, 19944, Note_on_c, 0, 67, 75
2, 19950, Note_on_c, 0, 67, 0
2, 19950, Note_on_c, 0, 65, 75
2, 19956, Note_on_c, 0, 65, 0
2, 19956, Note_on_c, 0, 67, 75
2, 19962, Note_on_c, 0, 67, 0
2, 19962, Note_on_c, 0, 65, 75
2, 19968, Note_on_c, 0, 65, 0
2, 19968, Note_on_c, 0, 67, 75
2, 19974, Note_on_c, 0, 67, 0
2, 19974, Note_on_c, 0, 65, 75
2, 19980, Note_on_c, 0, 65, 0
2, 19980, Note_on_c, 0, 67, 75
2, 19986, Note_on_c, 0, 67, 0
2, 19986, Note_on_c, 0, 65, 75
2, 19992, Note_on_c, 0, 65, 0
2, 19992, Note_on_c, 0, 67, 75
2, 19998, Note_on_c, 0, 67, 0
2, 19998, Note_on_c, 0, 65, 75
2, 20004, Note_on_c, 0, 65, 0
2, 20004, Note_on_c, 0, 64, 75
2, 20010, Note_on_c, 0, 64, 0
2, 20010, Note_on_c, 0, 65, 75
2, 20016, Note_on_c, 0, 65, 0
2, 20016, Note_on_c, 0, 64, 75
2, 20061, Note_on_c, 0, 64, 0
2, 20064, Note_on_c, 0, 84, 75
2, 20076, Note_on_c, 0, 84, 0
2, 20076, Note_on_c, 0, 86, 75
2, 20088, Note_on_c, 0, 86, 0
2, 20088, Note_on_c, 0, 88, 75
2, 20111, Note_on_c, 0, 88, 0
2, 20160, Note_on_c, 0, 72, 65
2, 20175, Note_on_c, 0, 72, 0
2, 20176, Note_on_c, 0, 70, 65
2, 20191, Note_on_c, 0, 70, 0
2, 20192, Note_on_c, 0, 68, 65
2, 20207, Note_on_c, 0, 68, 0
2, 20208, Note_on_c, 0, 67, 65
2, 20228, Note_on_c, 0, 67, 0
2, 20272, Note_on_c, 0, 79, 65
2, 20287, Note_on_c, 0, 79, 0
2, 20288, Note_on_c, 0, 70, 65
2, 20303, Note_on_c, 0, 70, 0
2, 20304, Note_on_c, 0, 70, 65
2, 20319, Note_on_c, 0, 70, 0
2, 20320, Note_on_c, 0, 68, 65
2, 20335, Note_on_c, 0, 68, 0
2, 20336, Note_on_c, 0, 67, 65
2, 20351, Note_on_c, 0, 67, 0
2, 20352, Note_on_c, 0, 65, 65
2, 20372, Note_on_c, 0, 65, 0
2, 20416, Note_on_c, 0, 77, 58
2, 20431, Note_on_c, 0, 77, 0
2, 20432, Note_on_c, 0, 72, 58
2, 20447, Note_on_c, 0, 72, 0
2, 20448, Note_on_c, 0, 72, 58
2, 20463, Note_on_c, 0, 72, 0
2, 20464, Note_on_c, 0, 70, 58
2, 20479, Note_on_c, 0, 70, 0
2, 20480, Note_on_c, 0, 68, 58
2, 20495, Note_on_c, 0, 68, 0
2, 20496, Note_on_c, 0, 67, 58
2, 20516, Note_on_c, 0, 67, 0
2, 20560, Note_on_c, 0, 79, 58
2, 20575, Note_on_c, 0, 79, 0
2, 20576, Note_on_c, 0, 70, 58
2, 20591, Note_on_c, 0, 70, 0
2, 20608, Control_c, 0, 64, 127
2, 20608, Note_on_c, 0, 80, 75
2, 20623, Note_on_c, 0, 80, 0
2, 20624, Note_on_c, 0, 84, 75
2, 20639, Note_on_c, 0, 84, 0
2, 20640, Note_on_c, 0, 77, 75
2, 20655, Note_on_c, 0, 77, 0
2, 20656, Note_on_c, 0, 80, 75
2, 20671, Note_on_c, 0, 80, 0
2, 20672, Note_on_c, 0, 72, 75
2, 20687, Note_on_c, 0, 72, 0
2, 20688, Note_on_c, 0, 77, 75
2, 20703, Note_on_c, 0, 77, 0
2, 20704, Note_on_c, 0, 68, 75
2, 20719, Note_on_c, 0, 68, 0
2, 20720, Control_c, 0, 64, 0
2, 20720, Note_on_c, 0, 72, 75
2, 20735, Note_on_c, 0, 72, 0
2, 20736, Control_c, 0, 64, 127
2, 20752, Note_on_c, 0, 83, 75
2, 20767, Note_on_c, 0, 83, 0
2, 20768, Note_on_c, 0, 86, 75
2, 20783, Note_on_c, 0, 86, 0
2, 20784, Note_on_c, 0, 80, 75
2, 20799, Note_on_c, 0, 80, 0
2, 20800, Note_on_c, 0, 83, 75
2, 20815, Note_on_c, 0, 83, 0
2, 20816, Note_on_c, 0, 77, 75
2, 20831, Note_on_c, 0, 77, 0
2, 20832, Note_on_c, 0, 80, 75
2, 20847, Note_on_c, 0, 80, 0
2, 20848, Note_on_c, 0, 74, 75
2, 20863, Note_on_c, 0, 74, 0
2, 20864, Control_c, 0, 64, 0
2, 20864, Note_on_c, 0, 77, 75
2, 20879, Note_on_c, 0, 77, 0
2, 20880, Control_c, 0, 64, 127
2, 20896, Note_on_c, 0, 80, 75
2, 20911, Note_on_c, 0, 80, 0
2, 20912, Note_on_c, 0, 84, 75
2, 20927, Note_on_c, 0, 84, 0
2, 20928, Control_c, 0, 64, 0
2, 20928, Note_on_c, 0, 76, 75
2, 20943, Note_on_c, 0, 76, 0
2, 20944, Note_on_c, 0, 77, 75
2, 20959, Note_on_c, 0, 77, 0
2, 20960, Note_on_c, 0, 80, 75
2, 20975, Note_on_c, 0, 80, 0
2, 20976, Note_on_c, 0, 72, 75
2, 20991, Note_on_c, 0, 72, 0
2, 20992, Note_on_c, 0, 71, 75
2, 21007, Note_on_c, 0, 71, 0
2, 21008, Note_on_c, 0, 79, 75
2, 21023, Note_on_c, 0, 79, 0
2, 21024, Note_on_c, 0, 70, 75
2, 21039, Note_on_c, 0, 70, 0
2, 21040, Note_on_c, 0, 69, 75
2, 21055, Note_on_c, 0, 69, 0
2, 21056, Note_on_c, 0, 77, 75
2, 21071, Note_on_c, 0, 77, 0
2, 21072, Note_on_c, 0, 68, 75
2, 21087, Note_on_c, 0, 68, 0
2, 21088, Note_on_c, 0, 67, 75
2, 21103, Note_on_c, 0, 67, 0
2, 21104, Note_on_c, 0, 76, 75
2, 21119, Note_on_c, 0, 76, 0
2, 21120, Note_on_c, 0, 67, 75
2, 21135, Note_on_c, 0, 67, 0
2, 21136, Note_on_c, 0, 65, 75
2, 21151, Note_on_c, 0, 65, 0
2, 21152, Control_c, 0, 64, 0
2, 21152, Note_on_c, 0, 74, 75
2, 21167, Note_on_c, 0, 74, 0
2, 21168, Note_on_c, 0, 65, 65
2, 21183, Note_on_c, 0, 65, 0
2, 21184, Note_on_c, 0, 64, 64
2, 21199, Note_on_c, 0, 64, 0
2, 21200, Note_on_c, 0, 72, 63
2, 21215, Note_on_c, 0, 72, 0
2, 21216, Note_on_c, 0, 67, 63
2, 21231, Note_on_c, 0, 67, 0
2, 21232, Note_on_c, 0, 65, 62
2, 21247, Note_on_c, 0, 65, 0
2, 21248, Note_on_c, 0, 72, 62
2, 21263, Note_on_c, 0, 72, 0
2, 21264, Note_on_c, 0, 68, 61
2, 21279, Note_on_c, 0, 68, 0
2, 21280, Note_on_c, 0, 67, 60
2, 21295, Note_on_c, 0, 67, 0
2, 21296, Note_on_c, 0, 70, 60
2, 21311, Note_on_c, 0, 70, 0
2, 21312, Control_c, 0, 64, 127
2, 21312, Note_on_c, 0, 68, 75
2, 21357, Note_on_c, 0, 68, 0
2, 21392, Note_on_c, 0, 65, 75
2, 21407, Note_on_c, 0, 65, 0
2, 21408, Note_on_c, 0, 68, 75
2, 21423, Note_on_c, 0, 68, 0
2, 21424, Note_on_c, 0, 73, 75
2, 21439, Note_on_c, 0, 73, 0
2, 21440, Control_c, 0, 64, 0
2, 21440, Note_on_c, 0, 77, 75
2, 21455, Note_on_c, 0, 77, 0
2, 21456, Control_c, 0, 64, 127
2, 21488, Note_on_c, 0, 62, 75
2, 21503, Note_on_c, 0, 62, 0
2, 21504, Note_on_c, 0, 65, 75
2, 21519, Note_on_c, 0, 65, 0
2, 21520, Note_on_c, 0, 68, 75
2, 21535, Note_on_c, 0, 68, 0
2, 21536, Note_on_c, 0, 71, 75
2, 21551, Note_on_c, 0, 71, 0
2, 21552, Note_on_c, 0, 74, 75
2, 21567, Note_on_c, 0, 74, 0
2, 21568, Note_on_c, 0, 77, 75
2, 21583, Note_on_c, 0, 77, 0
2, 21584, Control_c, 0, 64, 0
2, 21584, Note_on_c, 0, 80, 75
2, 21599, Note_on_c, 0, 80, 0
2, 21616, Note_on_c, 0, 84, 75
2, 21631, Note_on_c, 0, 84, 0
2, 21632, Note_on_c, 0, 72, 75
2, 21647, Note_on_c, 0, 72, 0
2, 21648, Note_on_c, 0, 71, 75
2, 21663, Note_on_c, 0, 71, 0
2, 21664, Note_on_c, 0, 70, 75
2, 21679, Note_on_c, 0, 70, 0
2, 21680, Note_on_c, 0, 69, 75
2, 21695, Note_on_c, 0, 69, 0
2, 21696, Note_on_c, 0, 68, 75
2, 21711, Note_on_c, 0, 68, 0
2, 21712, Note_on_c, 0, 67, 75
2, 21727, Note_on_c, 0, 67, 0
2, 21728, Note_on_c, 0, 66, 75
2, 21743, Note_on_c, 0, 66, 0
2, 21744, Note_on_c, 0, 65, 75
2, 21833, Note_on_c, 0, 65, 0
2, 21840, Note_on_c, 0, 68, 75
2, 21846, Note_on_c, 0, 68, 0
2, 21846, Note_on_c, 0, 67, 75
2, 21863, Note_on_c, 0, 67, 0
2, 21864, Note_on_c, 0, 65, 75
2, 21887, Note_on_c, 0, 65, 0
2, 21888, Note_on_c, 0, 65, 75
2, 21903, Note_on_c, 0, 65, 0
2, 21904, Note_on_c, 0, 72, 75
2, 21919, Note_on_c, 0, 72, 0
2, 21920, Note_on_c, 0, 64, 75
2, 21935, Note_on_c, 0, 64, 0
2, 21936, Note_on_c, 0, 67, 75
2, 21941, Note_on_c, 0, 67, 0
2, 21941, Note_on_c, 0, 65, 75
2, 21946, Note_on_c, 0, 65, 0
2, 21946, Note_on_c, 0, 64, 75
2, 21951, Note_on_c, 0, 64, 0
2, 21951, Note_on_c, 0, 65, 75
2, 21956, Note_on_c, 0, 65, 0
2, 21956, Note_on_c, 0, 68, 75
2, 21971, Note_on_c, 0, 68, 0
2, 21971, Note_on_c, 0, 60, 75
2, 21984, Note_on_c, 0, 60, 0
2, 21984, Note_on_c, 0, 58, 75
2, 21999, Note_on_c, 0, 58, 0
2, 22000, Note_on_c, 0, 61, 75
2, 22015, Note_on_c, 0, 61, 0
2, 22016, Note_on_c, 0, 55, 75
2, 22031, Note_on_c, 0, 55, 0
2, 22032, Note_on_c, 0, 56, 75
2, 22047, Note_on_c, 0, 56, 0
2, 22048, Note_on_c, 0, 72, 75
2, 22063, Note_on_c, 0, 72, 0
2, 22064, Note_on_c, 0, 64, 75
2, 22079, Note_on_c, 0, 64, 0
2, 22080, Note_on_c, 0, 67, 75
2, 22085, Note_on_c, 0, 67, 0
2, 22085, Note_on_c, 0, 65, 75
2, 22090, Note_on_c, 0, 65, 0
2, 22090, Note_on_c, 0, 64, 75
2, 22095, Note_on_c, 0, 64, 0
2, 22095, Note_on_c, 0, 65, 75
2, 22100, Note_on_c, 0, 65, 0
2, 22100, Note_on_c, 0, 68, 75
2, 22115, Note_on_c, 0, 68, 0
2, 22115, Note_on_c, 0, 60, 75
2, 22128, Note_on_c, 0, 60, 0
2, 22128, Note_on_c, 0, 58, 75
2, 22143, Note_on_c, 0, 58, 0
2, 22144, Note_on_c, 0, 67, 75
2, 22159, Note_on_c, 0, 67, 0
2, 22160, Note_on_c, 0, 64, 75
2, 22175, Note_on_c, 0, 64, 0
2, 22176, Note_on_c, 0, 64, 75
2, 22221, Note_on_c, 0, 64, 0
2, 22224, Note_on_c, 0, 67, 75
2, 22230, Note_on_c, 0, 67, 0
2, 22230, Note_on_c, 0, 65, 75
2, 22236, Note_on_c, 0, 65, 0
2, 22236, Note_on_c, 0, 64, 75
2, 22242, Note_on_c, 0, 64, 0
2, 22242, Note_on_c, 0, 65, 75
2, 22313, Note_on_c, 0, 65, 0
2, 22464, End_track
3, 0, Start_track
3, 0, Program_c, 0, 0
3, 0, Control_c, 0, 7, 127
3, 0, Control_c, 0, 10, 64
3, 22464, End_track
4, 0, Start_track
4, 0, Program_c, 1, 0
4, 0, Control_c, 1, 7, 127
4, 0, Control_c, 1, 10, 64
4, 0, Note_on_c, 1, 53, 51
4, 15, Note_on_c, 1, 53, 0
4, 16, Note_on_c, 1, 56, 51
4, 31, Note_on_c, 1, 56, 0
4, 32, Note_on_c, 1, 60, 51
4, 47, Note_on_c, 1, 60, 0
4, 48, Note_on_c, 1, 65, 51
4, 63, Note_on_c, 1, 65, 0
4, 64, Note_on_c, 1, 60, 51
4, 79, Note_on_c, 1, 60, 0
4, 80, Note_on_c, 1, 56, 51
4, 95, Note_on_c, 1, 56, 0
4, 96, Note_on_c, 1, 53, 51
4, 111, Note_on_c, 1, 53, 0
4, 112, Note_on_c, 1, 56, 51
4, 127, Note_on_c, 1, 56, 0
4, 128, Note_on_c, 1, 60, 51
4, 143, Note_on_c, 1, 60, 0
4, 144, Note_on_c, 1, 53, 51
4, 159, Note_on_c, 1, 53, 0
4, 160, Note_on_c, 1, 56, 51
4, 175, Note_on_c, 1, 56, 0
4, 176, Note_on_c, 1, 60, 51
4, 191, Note_on_c, 1, 60, 0
4, 192, Note_on_c, 1, 65, 51
4, 207, Note_on_c, 1, 65, 0
4, 208, Note_on_c, 1, 60, 51
4, 223, Note_on_c, 1, 60, 0
4, 224, Note_on_c, 1, 56, 51
4, 239, Note_on_c, 1, 56, 0
4, 240, Note_on_c, 1, 53, 51
4, 255, Note_on_c, 1, 53, 0
4, 256, Note_on_c, 1, 56, 51
4, 271, Note_on_c, 1, 56, 0
4, 272, Note_on_c, 1, 60, 51
4, 287, Note_on_c, 1, 60, 0
4, 288, Note_on_c, 1, 52, 51
4, 303, Note_on_c, 1, 52, 0
4, 304, Note_on_c, 1, 55, 51
4, 319, Note_on_c, 1, 55, 0
4, 320, Note_on_c, 1, 58, 51
4, 335, Note_on_c, 1, 58, 0
4, 336, Note_on_c, 1, 60, 51
4, 351, Note_on_c, 1, 60, 0
4, 352, Note_on_c, 1, 58, 51
4, 367, Note_on_c, 1, 58, 0
4, 368, Note_on_c, 1, 55, 51
4, 383, Note_on_c, 1, 55, 0
4, 384, Note_on_c, 1, 52, 51
4, 399, Note_on_c, 1, 52, 0
4, 400, Note_on_c, 1, 55, 51
4, 415, Note_on_c, 1, 55, 0
4, 416, Note_on_c, 1, 58, 51
4, 431, Note_on_c, 1, 58, 0
4, 432, Note_on_c, 1, 52, 51
4, 447, Note_on_c, 1, 52, 0
4, 448, Note_on_c, 1, 55, 51
4, 463, Note_on_c, 1, 55, 0
4, 464, Note_on_c, 1, 58, 51
4, 479, Note_on_c, 1, 58, 0
4, 480, Note_on_c, 1, 60, 51
4, 495, Note_on_c, 1, 60, 0
4, 496, Note_on_c, 1, 58, 51
4, 511, Note_on_c, 1, 58, 0
4, 512, Note_on_c, 1, 55, 51
4, 527, Note_on_c, 1, 55, 0
4, 528, Note_on_c, 1, 52, 51
4, 543, Note_on_c, 1, 52, 0
4, 544, Note_on_c, 1, 55, 51
4, 559, Note_on_c, 1, 55, 0
4, 560, Note_on_c, 1, 58, 51
4, 575, Note_on_c, 1, 58, 0
4, 576, Note_on_c, 1, 53, 51
4, 591, Note_on_c, 1, 53, 0
4, 592, Note_on_c, 1, 56, 51
4, 607, Note_on_c, 1, 56, 0
4, 608, Note_on_c, 1, 60, 51
4, 623, Note_on_c, 1, 60, 0
4, 624, Note_on_c, 1, 65, 51
4, 639, Note_on_c, 1, 65, 0
4, 640, Note_on_c, 1, 60, 51
4, 655, Note_on_c, 1, 60, 0
4, 656, Note_on_c, 1, 56, 51
4, 671, Note_on_c, 1, 56, 0
4, 672, Note_on_c, 1, 51, 51
4, 687, Note_on_c, 1, 51, 0
4, 688, Note_on_c, 1, 55, 51
4, 703, Note_on_c, 1, 55, 0
4, 704, Note_on_c, 1, 60, 51
4, 719, Note_on_c, 1, 60, 0
4, 720, Note_on_c, 1, 49, 51
4, 735, Note_on_c, 1, 49, 0
4, 736, Note_on_c, 1, 53, 51
4, 751, Note_on_c, 1, 53, 0
4, 752, Note_on_c, 1, 56, 51
4, 767, Note_on_c, 1, 56, 0
4, 768, Note_on_c, 1, 59, 51
4, 783, Note_on_c, 1, 59, 0
4, 784, Note_on_c, 1, 61, 51
4, 799, Note_on_c, 1, 61, 0
4, 800, Note_on_c, 1, 65, 51
4, 815, Note_on_c, 1, 65, 0
4, 864, Note_on_c, 1, 48, 51
4, 953, Note_on_c, 1, 48, 0
4, 1008, Note_on_c, 1, 36, 51
4, 1078, Note_on_c, 1, 36, 0
4, 1152, Note_on_c, 1, 56, 51
4, 1167, Note_on_c, 1, 56, 0
4, 1168, Note_on_c, 1, 60, 51
4, 1183, Note_on_c, 1, 60, 0
4, 1184, Note_on_c, 1, 63, 51
4, 1199, Note_on_c, 1, 63, 0
4, 1200, Note_on_c, 1, 68, 51
4, 1215, Note_on_c, 1, 68, 0
4, 1216, Note_on_c, 1, 63, 51
4, 1231, Note_on_c, 1, 63, 0
4, 1232, Note_on_c, 1, 60, 51
4, 1247, Note_on_c, 1, 60, 0
4, 1248, Note_on_c, 1, 56, 51
4, 1263, Note_on_c, 1, 56, 0
4, 1264, Note_on_c, 1, 60, 51
4, 1279, Note_on_c, 1, 60, 0
4, 1280, Note_on_c, 1, 63, 51
4, 1295, Note_on_c, 1, 63, 0
4, 1296, Note_on_c, 1, 58, 51
4, 1311, Note_on_c, 1, 58, 0
4, 1312, Note_on_c, 1, 61, 51
4, 1327, Note_on_c, 1, 61, 0
4, 1328, Note_on_c, 1, 63, 51
4, 1343, Note_on_c, 1, 63, 0
4, 1344, Note_on_c, 1, 67, 51
4, 1359, Note_on_c, 1, 67, 0
4, 1360, Note_on_c, 1, 63, 51
4, 1375, Note_on_c, 1, 63, 0
4, 1376, Note_on_c, 1, 61, 51
4, 1391, Note_on_c, 1, 61, 0
4, 1392, Note_on_c, 1, 58, 51
4, 1407, Note_on_c, 1, 58, 0
4, 1408, Note_on_c, 1, 61, 51
4, 1423, Note_on_c, 1, 61, 0
4, 1424, Note_on_c, 1, 63, 51
4, 1439, Note_on_c, 1, 63, 0
4, 1440, Note_on_c, 1, 56, 51
4, 1455, Note_on_c, 1, 56, 0
4, 1456, Note_on_c, 1, 60, 51
4, 1471, Note_on_c, 1, 60, 0
4, 1472, Note_on_c, 1, 63, 51
4, 1487, Note_on_c, 1, 63, 0
4, 1488, Note_on_c, 1, 68, 51
4, 1504, Note_on_c, 1, 68, 0
4, 1504, Note_on_c, 1, 63, 51
4, 1519, Note_on_c, 1, 63, 0
4, 1520, Note_on_c, 1, 60, 51
4, 1535, Note_on_c, 1, 60, 0
4, 1536, Note_on_c, 1, 56, 51
4, 1551, Note_on_c, 1, 56, 0
4, 1552, Note_on_c, 1, 60, 51
4, 1567, Note_on_c, 1, 60, 0
4, 1568, Note_on_c, 1, 63, 51
4, 1583, Note_on_c, 1, 63, 0
4, 1584, Note_on_c, 1, 58, 51
4, 1599, Note_on_c, 1, 58, 0
4, 1600, Note_on_c, 1, 61, 51
4, 1615, Note_on_c, 1, 61, 0
4, 1616, Note_on_c, 1, 63, 51
4, 1631, Note_on_c, 1, 63, 0
4, 1632, Note_on_c, 1, 67, 51
4, 1647, Note_on_c, 1, 67, 0
4, 1648, Note_on_c, 1, 63, 51
4, 1663, Note_on_c, 1, 63, 0
4, 1664, Note_on_c, 1, 61, 51
4, 1679, Note_on_c, 1, 61, 0
4, 1680, Note_on_c, 1, 58, 51
4, 1695, Note_on_c, 1, 58, 0
4, 1696, Note_on_c, 1, 61, 51
4, 1711, Note_on_c, 1, 61, 0
4, 1712, Note_on_c, 1, 63, 51
4, 1727, Note_on_c, 1, 63, 0
4, 1728, Note_on_c, 1, 56, 51
4, 1743, Note_on_c, 1, 56, 0
4, 1744, Note_on_c, 1, 60, 51
4, 1759, Note_on_c, 1, 60, 0
4, 1760, Note_on_c, 1, 63, 51
4, 1775, Note_on_c, 1, 63, 0
4, 1776, Note_on_c, 1, 68, 51
4, 1792, Note_on_c, 1, 68, 0
4, 1792, Note_on_c, 1, 63, 51
4, 1807, Note_on_c, 1, 63, 0
4, 1808, Note_on_c, 1, 60, 51
4, 1823, Note_on_c, 1, 60, 0
4, 1824, Note_on_c, 1, 56, 51
4, 1839, Note_on_c, 1, 56, 0
4, 1840, Note_on_c, 1, 60, 51
4, 1855, Note_on_c, 1, 60, 0
4, 1856, Note_on_c, 1, 63, 51
4, 1871, Note_on_c, 1, 63, 0
4, 1872, Note_on_c, 1, 54, 51
4, 1887, Note_on_c, 1, 54, 0
4, 1888, Note_on_c, 1, 56, 51
4, 1903, Note_on_c, 1, 56, 0
4, 1904, Note_on_c, 1, 60, 51
4, 1919, Note_on_c, 1, 60, 0
4, 1920, Note_on_c, 1, 63, 51
4, 1935, Note_on_c, 1, 63, 0
4, 1936, Note_on_c, 1, 60, 51
4, 1951, Note_on_c, 1, 60, 0
4, 1952, Note_on_c, 1, 56, 51
4, 1967, Note_on_c, 1, 56, 0
4, 1968, Note_on_c, 1, 54, 51
4, 1983, Note_on_c, 1, 54, 0
4, 1984, Note_on_c, 1, 56, 51
4, 1999, Note_on_c, 1, 56, 0
4, 2000, Note_on_c, 1, 60, 51
4, 2015, Note_on_c, 1, 60, 0
4, 2016, Note_on_c, 1, 53, 51
4, 2031, Note_on_c, 1, 53, 0
4, 2032, Note_on_c, 1, 56, 51
4, 2047, Note_on_c, 1, 56, 0
4, 2048, Note_on_c, 1, 61, 51
4, 2063, Note_on_c, 1, 61, 0
4, 2064, Note_on_c, 1, 65, 51
4, 2079, Note_on_c, 1, 65, 0
4, 2080, Note_on_c, 1, 61, 51
4, 2095, Note_on_c, 1, 61, 0
4, 2096, Note_on_c, 1, 56, 51
4, 2111, Note_on_c, 1, 56, 0
4, 2112, Note_on_c, 1, 53, 51
4, 2127, Note_on_c, 1, 53, 0
4, 2128, Note_on_c, 1, 56, 51
4, 2143, Note_on_c, 1, 56, 0
4, 2144, Note_on_c, 1, 61, 51
4, 2159, Note_on_c, 1, 61, 0
4, 2160, Note_on_c, 1, 52, 51
4, 2175, Note_on_c, 1, 52, 0
4, 2176, Note_on_c, 1, 56, 51
4, 2191, Note_on_c, 1, 56, 0
4, 2192, Note_on_c, 1, 61, 51
4, 2207, Note_on_c, 1, 61, 0
4, 2208, Note_on_c, 1, 64, 51
4, 2223, Note_on_c, 1, 64, 0
4, 2224, Note_on_c, 1, 61, 51
4, 2239, Note_on_c, 1, 61, 0
4, 2240, Note_on_c, 1, 56, 51
4, 2255, Note_on_c, 1, 56, 0
4, 2256, Note_on_c, 1, 52, 51
4, 2271, Note_on_c, 1, 52, 0
4, 2272, Note_on_c, 1, 56, 51
4, 2287, Note_on_c, 1, 56, 0
4, 2288, Note_on_c, 1, 61, 51
4, 2303, Note_on_c, 1, 61, 0
4, 2304, Control_c, 1, 64, 127
4, 2304, Note_on_c, 1, 51, 51
4, 2437, Note_on_c, 1, 51, 0
4, 2448, Control_c, 1, 64, 0
4, 2448, Note_on_c, 1, 55, 51
4, 2581, Note_on_c, 1, 55, 0
4, 2592, Control_c, 1, 64, 127
4, 2592, Note_on_c, 1, 56, 51
4, 2681, Note_on_c, 1, 56, 0
4, 2752, Note_on_c, 1, 48, 75
4, 2767, Note_on_c, 1, 48, 0
4, 2768, Note_on_c, 1, 51, 75
4, 2783, Note_on_c, 1, 51, 0
4, 2784, Note_on_c, 1, 44, 75
4, 2799, Note_on_c, 1, 44, 0
4, 2800, Note_on_c, 1, 48, 75
4, 2815, Note_on_c, 1, 48, 0
4, 2816, Note_on_c, 1, 51, 75
4, 2831, Note_on_c, 1, 51, 0
4, 2832, Note_on_c, 1, 42, 75
4, 2847, Note_on_c, 1, 42, 0
4, 2848, Note_on_c, 1, 51, 75
4, 2863, Note_on_c, 1, 51, 0
4, 2864, Note_on_c, 1, 42, 75
4, 2879, Note_on_c, 1, 42, 0
4, 2880, Control_c, 1, 64, 0
4, 2880, Control_c, 1, 64, 127
4, 2880, Note_on_c, 1, 41, 75
4, 2969, Note_on_c, 1, 41, 0
4, 2976, Control_c, 1, 64, 0
4, 3024, Note_on_c, 1, 49, 65
4, 3044, Note_on_c, 1, 49, 0
4, 3072, Note_on_c, 1, 61, 65
4, 3092, Note_on_c, 1, 61, 0
4, 3312, Note_on_c, 1, 51, 58
4, 3327, Note_on_c, 1, 51, 0
4, 3328, Note_on_c, 1, 56, 58
4, 3343, Note_on_c, 1, 56, 0
4, 3344, Note_on_c, 1, 60, 58
4, 3359, Note_on_c, 1, 60, 0
4, 3360, Note_on_c, 1, 63, 58
4, 3375, Note_on_c, 1, 63, 0
4, 3376, Note_on_c, 1, 60, 58
4, 3391, Note_on_c, 1, 60, 0
4, 3392, Note_on_c, 1, 56, 58
4, 3407, Note_on_c, 1, 56, 0
4, 3408, Note_on_c, 1, 51, 58
4, 3423, Note_on_c, 1, 51, 0
4, 3424, Note_on_c, 1, 56, 58
4, 3439, Note_on_c, 1, 56, 0
4, 3440, Note_on_c, 1, 60, 58
4, 3455, Note_on_c, 1, 60, 0
4, 3456, Note_on_c, 1, 51, 58
4, 3471, Note_on_c, 1, 51, 0
4, 3472, Note_on_c, 1, 56, 58
4, 3487, Note_on_c, 1, 56, 0
4, 3488, Note_on_c, 1, 60, 58
4, 3503, Note_on_c, 1, 60, 0
4, 3504, Note_on_c, 1, 63, 58
4, 3519, Note_on_c, 1, 63, 0
4, 3520, Note_on_c, 1, 60, 58
4, 3535, Note_on_c, 1, 60, 0
4, 3536, Note_on_c, 1, 56, 58
4, 3551, Note_on_c, 1, 56, 0
4, 3552, Note_on_c, 1, 51, 58
4, 3567, Note_on_c, 1, 51, 0
4, 3568, Note_on_c, 1, 56, 58
4, 3583, Note_on_c, 1, 56, 0
4, 3584, Note_on_c, 1, 60, 58
4, 3599, Note_on_c, 1, 60, 0
4, 3600, Note_on_c, 1, 53, 58
4, 3615, Note_on_c, 1, 53, 0
4, 3616, Note_on_c, 1, 56, 58
4, 3631, Note_on_c, 1, 56, 0
4, 3632, Note_on_c, 1, 58, 58
4, 3647, Note_on_c, 1, 58, 0
4, 3648, Note_on_c, 1, 62, 58
4, 3663, Note_on_c, 1, 62, 0
4, 3664, Note_on_c, 1, 58, 58
4, 3679, Note_on_c, 1, 58, 0
4, 3680, Note_on_c, 1, 56, 58
4, 3695, Note_on_c, 1, 56, 0
4, 3696, Note_on_c, 1, 53, 58
4, 3711, Note_on_c, 1, 53, 0
4, 3712, Note_on_c, 1, 56, 58
4, 3727, Note_on_c, 1, 56, 0
4, 3728, Note_on_c, 1, 58, 58
4, 3743, Note_on_c, 1, 58, 0
4, 3744, Note_on_c, 1, 53, 58
4, 3759, Note_on_c, 1, 53, 0
4, 3760, Note_on_c, 1, 56, 58
4, 3775, Note_on_c, 1, 56, 0
4, 3776, Note_on_c, 1, 58, 58
4, 3791, Note_on_c, 1, 58, 0
4, 3792, Note_on_c, 1, 62, 58
4, 3807, Note_on_c, 1, 62, 0
4, 3808, Note_on_c, 1, 58, 58
4, 3823, Note_on_c, 1, 58, 0
4, 3824, Note_on_c, 1, 56, 58
4, 3839, Note_on_c, 1, 56, 0
4, 3840, Note_on_c, 1, 53, 58
4, 3855, Note_on_c, 1, 53, 0
4, 3856, Note_on_c, 1, 56, 58
4, 3871, Note_on_c, 1, 56, 0
4, 3872, Note_on_c, 1, 58, 58
4, 3887, Note_on_c, 1, 58, 0
4, 3888, Note_on_c, 1, 55, 58
4, 3903, Note_on_c, 1, 55, 0
4, 3904, Note_on_c, 1, 58, 58
4, 3919, Note_on_c, 1, 58, 0
4, 3920, Note_on_c, 1, 63, 58
4, 3935, Note_on_c, 1, 63, 0
4, 3936, Note_on_c, 1, 67, 58
4, 3951, Note_on_c, 1, 67, 0
4, 3952, Note_on_c, 1, 63, 58
4, 3967, Note_on_c, 1, 63, 0
4, 3968, Note_on_c, 1, 58, 58
4, 3983, Note_on_c, 1, 58, 0
4, 3984, Note_on_c, 1, 55, 58
4, 3999, Note_on_c, 1, 55, 0
4, 4000, Note_on_c, 1, 58, 58
4, 4015, Note_on_c, 1, 58, 0
4, 4016, Note_on_c, 1, 63, 58
4, 4031, Note_on_c, 1, 63, 0
4, 4032, Note_on_c, 1, 56, 58
4, 4047, Note_on_c, 1, 56, 0
4, 4048, Note_on_c, 1, 60, 58
4, 4063, Note_on_c, 1, 60, 0
4, 4064, Note_on_c, 1, 63, 58
4, 4079, Note_on_c, 1, 63, 0
4, 4080, Note_on_c, 1, 68, 58
4, 4096, Note_on_c, 1, 68, 0
4, 4096, Note_on_c, 1, 63, 58
4, 4111, Note_on_c, 1, 63, 0
4, 4112, Note_on_c, 1, 60, 58
4, 4127, Note_on_c, 1, 60, 0
4, 4128, Note_on_c, 1, 56, 58
4, 4143, Note_on_c, 1, 56, 0
4, 4144, Note_on_c, 1, 60, 58
4, 4159, Note_on_c, 1, 60, 0
4, 4160, Note_on_c, 1, 63, 58
4, 4175, Note_on_c, 1, 63, 0
4, 4176, Note_on_c, 1, 58, 58
4, 4191, Note_on_c, 1, 58, 0
4, 4192, Note_on_c, 1, 61, 58
4, 4207, Note_on_c, 1, 61, 0
4, 4208, Note_on_c, 1, 63, 58
4, 4223, Note_on_c, 1, 63, 0
4, 4224, Note_on_c, 1, 67, 58
4, 4239, Note_on_c, 1, 67, 0
4, 4240, Note_on_c, 1, 63, 58
4, 4255, Note_on_c, 1, 63, 0
4, 4256, Note_on_c, 1, 61, 58
4, 4271, Note_on_c, 1, 61, 0
4, 4272, Note_on_c, 1, 58, 51
4, 4287, Note_on_c, 1, 58, 0
4, 4288, Note_on_c, 1, 61, 51
4, 4303, Note_on_c, 1, 61, 0
4, 4304, Note_on_c, 1, 63, 51
4, 4319, Note_on_c, 1, 63, 0
4, 4320, Note_on_c, 1, 56, 51
4, 4335, Note_on_c, 1, 56, 0
4, 4336, Note_on_c, 1, 60, 51
4, 4351, Note_on_c, 1, 60, 0
4, 4352, Note_on_c, 1, 63, 51
4, 4367, Note_on_c, 1, 63, 0
4, 4368, Note_on_c, 1, 68, 51
4, 4384, Note_on_c, 1, 68, 0
4, 4384, Note_on_c, 1, 63, 51
4, 4399, Note_on_c, 1, 63, 0
4, 4400, Note_on_c, 1, 60, 51
4, 4415, Note_on_c, 1, 60, 0
4, 4416, Note_on_c, 1, 56, 51
4, 4431, Note_on_c, 1, 56, 0
4, 4432, Note_on_c, 1, 60, 51
4, 4447, Note_on_c, 1, 60, 0
4, 4448, Note_on_c, 1, 63, 51
4, 4463, Note_on_c, 1, 63, 0
4, 4464, Note_on_c, 1, 58, 51
4, 4479, Note_on_c, 1, 58, 0
4, 4480, Note_on_c, 1, 61, 51
4, 4495, Note_on_c, 1, 61, 0
4, 4496, Note_on_c, 1, 63, 51
4, 4511, Note_on_c, 1, 63, 0
4, 4512, Note_on_c, 1, 67, 51
4, 4527, Note_on_c, 1, 67, 0
4, 4528, Note_on_c, 1, 63, 51
4, 4543, Note_on_c, 1, 63, 0
4, 4544, Note_on_c, 1, 61, 51
4, 4559, Note_on_c, 1, 61, 0
4, 4560, Note_on_c, 1, 58, 58
4, 4575, Note_on_c, 1, 58, 0
4, 4576, Note_on_c, 1, 61, 58
4, 4591, Note_on_c, 1, 61, 0
4, 4592, Note_on_c, 1, 63, 58
4, 4607, Note_on_c, 1, 63, 0
4, 4608, Note_on_c, 1, 56, 58
4, 4623, Note_on_c, 1, 56, 0
4, 4624, Note_on_c, 1, 60, 58
4, 4639, Note_on_c, 1, 60, 0
4, 4640, Note_on_c, 1, 63, 58
4, 4655, Note_on_c, 1, 63, 0
4, 4656, Note_on_c, 1, 68, 58
4, 4671, Note_on_c, 1, 68, 0
4, 4672, Note_on_c, 1, 63, 58
4, 4687, Note_on_c, 1, 63, 0
4, 4688, Note_on_c, 1, 60, 58
4, 4703, Note_on_c, 1, 60, 0
4, 4704, Note_on_c, 1, 56, 58
4, 4719, Note_on_c, 1, 56, 0
4, 4720, Note_on_c, 1, 60, 58
4, 4735, Note_on_c, 1, 60, 0
4, 4736, Note_on_c, 1, 63, 58
4, 4751, Note_on_c, 1, 63, 0
4, 4752, Note_on_c, 1, 60, 58
4, 4885, Note_on_c, 1, 60, 0
4, 4896, Note_on_c, 1, 61, 51
4, 4985, Note_on_c, 1, 61, 0
4, 5040, Note_on_c, 1, 51, 65
4, 5055, Note_on_c, 1, 51, 0
4, 5056, Note_on_c, 1, 56, 65
4, 5071, Note_on_c, 1, 56, 0
4, 5072, Note_on_c, 1, 60, 65
4, 5087, Note_on_c, 1, 60, 0
4, 5088, Note_on_c, 1, 63, 65
4, 5103, Note_on_c, 1, 63, 0
4, 5104, Note_on_c, 1, 60, 65
4, 5119, Note_on_c, 1, 60, 0
4, 5120, Note_on_c, 1, 56, 65
4, 5135, Note_on_c, 1, 56, 0
4, 5136, Note_on_c, 1, 51, 65
4, 5151, Note_on_c, 1, 51, 0
4, 5152, Note_on_c, 1, 56, 65
4, 5167, Note_on_c, 1, 56, 0
4, 5168, Note_on_c, 1, 60, 65
4, 5183, Note_on_c, 1, 60, 0
4, 5184, Note_on_c, 1, 60, 65
4, 5184, Note_on_c, 1, 56, 65
4, 5229, Note_on_c, 1, 60, 0
4, 5229, Note_on_c, 1, 56, 0
4, 5280, Note_on_c, 1, 58, 65
4, 5280, Note_on_c, 1, 51, 65
4, 5325, Note_on_c, 1, 58, 0
4, 5325, Note_on_c, 1, 51, 0
4, 5328, Note_on_c, 1, 56, 65
4, 5328, Note_on_c, 1, 44, 65
4, 5373, Note_on_c, 1, 56, 0
4, 5373, Note_on_c, 1, 44, 0
4, 5424, Note_on_c, 1, 58, 65
4, 5424, Note_on_c, 1, 51, 65
4, 5469, Note_on_c, 1, 58, 0
4, 5469, Note_on_c, 1, 51, 0
4, 5472, Note_on_c, 1, 44, 65
4, 5487, Note_on_c, 1, 44, 0
4, 5488, Note_on_c, 1, 56, 64
4, 5503, Note_on_c, 1, 56, 0
4, 5504, Note_on_c, 1, 55, 63
4, 5519, Note_on_c, 1, 55, 0
4, 5520, Note_on_c, 1, 56, 62
4, 5535, Note_on_c, 1, 56, 0
4, 5536, Note_on_c, 1, 51, 61
4, 5551, Note_on_c, 1, 51, 0
4, 5552, Note_on_c, 1, 48, 60
4, 5567, Note_on_c, 1, 48, 0
4, 5568, Note_on_c, 1, 51, 59
4, 5583, Note_on_c, 1, 51, 0
4, 5584, Note_on_c, 1, 48, 58
4, 5599, Note_on_c, 1, 48, 0
4, 5600, Note_on_c, 1, 44, 58
4, 5615, Note_on_c, 1, 44, 0
4, 5616, Note_on_c, 1, 32, 57
4, 5661, Note_on_c, 1, 32, 0
4, 5760, Note_on_c, 1, 53, 51
4, 5775, Note_on_c, 1, 53, 0
4, 5776, Note_on_c, 1, 56, 51
4, 5791, Note_on_c, 1, 56, 0
4, 5792, Note_on_c, 1, 60, 51
4, 5807, Note_on_c, 1, 60, 0
4, 5808, Note_on_c, 1, 65, 51
4, 5823, Note_on_c, 1, 65, 0
4, 5824, Note_on_c, 1, 60, 51
4, 5839, Note_on_c, 1, 60, 0
4, 5840, Note_on_c, 1, 56, 51
4, 5855, Note_on_c, 1, 56, 0
4, 5856, Note_on_c, 1, 53, 51
4, 5871, Note_on_c, 1, 53, 0
4, 5872, Note_on_c, 1, 56, 51
4, 5887, Note_on_c, 1, 56, 0
4, 5888, Note_on_c, 1, 60, 51
4, 5903, Note_on_c, 1, 60, 0
4, 5904, Note_on_c, 1, 53, 51
4, 5919, Note_on_c, 1, 53, 0
4, 5920, Note_on_c, 1, 56, 51
4, 5935, Note_on_c, 1, 56, 0
4, 5936, Note_on_c, 1, 60, 51
4, 5951, Note_on_c, 1, 60, 0
4, 5952, Note_on_c, 1, 65, 51
4, 5967, Note_on_c, 1, 65, 0
4, 5968, Note_on_c, 1, 60, 51
4, 5983, Note_on_c, 1, 60, 0
4, 5984, Note_on_c, 1, 56, 51
4, 5999, Note_on_c, 1, 56, 0
4, 6000, Note_on_c, 1, 53, 51
4, 6015, Note_on_c, 1, 53, 0
4, 6016, Note_on_c, 1, 56, 51
4, 6031, Note_on_c, 1, 56, 0
4, 6032, Note_on_c, 1, 60, 51
4, 6047, Note_on_c, 1, 60, 0
4, 6048, Note_on_c, 1, 52, 51
4, 6063, Note_on_c, 1, 52, 0
4, 6064, Note_on_c, 1, 55, 51
4, 6079, Note_on_c, 1, 55, 0
4, 6080, Note_on_c, 1, 58, 51
4, 6095, Note_on_c, 1, 58, 0
4, 6096, Note_on_c, 1, 60, 51
4, 6111, Note_on_c, 1, 60, 0
4, 6112, Note_on_c, 1, 58, 51
4, 6127, Note_on_c, 1, 58, 0
4, 6128, Note_on_c, 1, 55, 51
4, 6143, Note_on_c, 1, 55, 0
4, 6144, Note_on_c, 1, 52, 51
4, 6159, Note_on_c, 1, 52, 0
4, 6160, Note_on_c, 1, 55, 51
4, 6175, Note_on_c, 1, 55, 0
4, 6176, Note_on_c, 1, 58, 51
4, 6191, Note_on_c, 1, 58, 0
4, 6192, Note_on_c, 1, 52, 51
4, 6207, Note_on_c, 1, 52, 0
4, 6208, Note_on_c, 1, 55, 51
4, 6223, Note_on_c, 1, 55, 0
4, 6224, Note_on_c, 1, 58, 51
4, 6239, Note_on_c, 1, 58, 0
4, 6240, Note_on_c, 1, 60, 51
4, 6255, Note_on_c, 1, 60, 0
4, 6256, Note_on_c, 1, 58, 51
4, 6271, Note_on_c, 1, 58, 0
4, 6272, Note_on_c, 1, 55, 51
4, 6287, Note_on_c, 1, 55, 0
4, 6288, Note_on_c, 1, 52, 51
4, 6303, Note_on_c, 1, 52, 0
4, 6304, Note_on_c, 1, 55, 51
4, 6319, Note_on_c, 1, 55, 0
4, 6320, Note_on_c, 1, 58, 51
4, 6335, Note_on_c, 1, 58, 0
4, 6336, Note_on_c, 1, 53, 51
4, 6351, Note_on_c, 1, 53, 0
4, 6352, Note_on_c, 1, 56, 51
4, 6367, Note_on_c, 1, 56, 0
4, 6368, Note_on_c, 1, 60, 51
4, 6383, Note_on_c, 1, 60, 0
4, 6384, Note_on_c, 1, 65, 51
4, 6399, Note_on_c, 1, 65, 0
4, 6400, Note_on_c, 1, 60, 51
4, 6415, Note_on_c, 1, 60, 0
4, 6416, Note_on_c, 1, 56, 51
4, 6431, Note_on_c, 1, 56, 0
4, 6432, Note_on_c, 1, 51, 51
4, 6447, Note_on_c, 1, 51, 0
4, 6448, Note_on_c, 1, 55, 51
4, 6463, Note_on_c, 1, 55, 0
4, 6464, Note_on_c, 1, 60, 51
4, 6479, Note_on_c, 1, 60, 0
4, 6480, Note_on_c, 1, 49, 51
4, 6495, Note_on_c, 1, 49, 0
4, 6496, Note_on_c, 1, 53, 51
4, 6511, Note_on_c, 1, 53, 0
4, 6512, Note_on_c, 1, 56, 51
4, 6527, Note_on_c, 1, 56, 0
4, 6528, Note_on_c, 1, 59, 51
4, 6543, Note_on_c, 1, 59, 0
4, 6544, Note_on_c, 1, 61, 51
4, 6559, Note_on_c, 1, 61, 0
4, 6560, Note_on_c, 1, 65, 51
4, 6575, Note_on_c, 1, 65, 0
4, 6624, Note_on_c, 1, 48, 51
4, 6713, Note_on_c, 1, 48, 0
4, 6768, Note_on_c, 1, 36, 51
4, 6838, Note_on_c, 1, 36, 0
4, 6912, Note_on_c, 1, 56, 51
4, 6927, Note_on_c, 1, 56, 0
4, 6928, Note_on_c, 1, 60, 51
4, 6943, Note_on_c, 1, 60, 0
4, 6944, Note_on_c, 1, 63, 51
4, 6959, Note_on_c, 1, 63, 0
4, 6960, Note_on_c, 1, 68, 51
4, 6975, Note_on_c, 1, 68, 0
4, 6976, Note_on_c, 1, 63, 51
4, 6991, Note_on_c, 1, 63, 0
4, 6992, Note_on_c, 1, 60, 51
4, 7007, Note_on_c, 1, 60, 0
4, 7008, Note_on_c, 1, 56, 51
4, 7023, Note_on_c, 1, 56, 0
4, 7024, Note_on_c, 1, 60, 51
4, 7039, Note_on_c, 1, 60, 0
4, 7040, Note_on_c, 1, 63, 51
4, 7055, Note_on_c, 1, 63, 0
4, 7056, Note_on_c, 1, 58, 51
4, 7071, Note_on_c, 1, 58, 0
4, 7072, Note_on_c, 1, 61, 51
4, 7087, Note_on_c, 1, 61, 0
4, 7088, Note_on_c, 1, 63, 51
4, 7103, Note_on_c, 1, 63, 0
4, 7104, Note_on_c, 1, 67, 51
4, 7119, Note_on_c, 1, 67, 0
4, 7120, Note_on_c, 1, 63, 51
4, 7135, Note_on_c, 1, 63, 0
4, 7136, Note_on_c, 1, 61, 51
4, 7151, Note_on_c, 1, 61, 0
4, 7152, Note_on_c, 1, 58, 51
4, 7167, Note_on_c, 1, 58, 0
4, 7168, Note_on_c, 1, 61, 51
4, 7183, Note_on_c, 1, 61, 0
4, 7184, Note_on_c, 1, 63, 51
4, 7199, Note_on_c, 1, 63, 0
4, 7200, Note_on_c, 1, 56, 51
4, 7215, Note_on_c, 1, 56, 0
4, 7216, Note_on_c, 1, 60, 51
4, 7231, Note_on_c, 1, 60, 0
4, 7232, Note_on_c, 1, 63, 51
4, 7247, Note_on_c, 1, 63, 0
4, 7248, Note_on_c, 1, 68, 51
4, 7264, Note_on_c, 1, 68, 0
4, 7264, Note_on_c, 1, 63, 51
4, 7279, Note_on_c, 1, 63, 0
4, 7280, Note_on_c, 1, 60, 51
4, 7295, Note_on_c, 1, 60, 0
4, 7296, Note_on_c, 1, 56, 51
4, 7311, Note_on_c, 1, 56, 0
4, 7312, Note_on_c, 1, 60, 51
4, 7327, Note_on_c, 1, 60, 0
4, 7328, Note_on_c, 1, 63, 51
4, 7343, Note_on_c, 1, 63, 0
4, 7344, Note_on_c, 1, 58, 51
4, 7359, Note_on_c, 1, 58, 0
4, 7360, Note_on_c, 1, 61, 51
4, 7375, Note_on_c, 1, 61, 0
4, 7376, Note_on_c, 1, 63, 51
4, 7391, Note_on_c, 1, 63, 0
4, 7392, Note_on_c, 1, 67, 51
4, 7407, Note_on_c, 1, 67, 0
4, 7408, Note_on_c, 1, 63, 51
4, 7423, Note_on_c, 1, 63, 0
4, 7424, Note_on_c, 1, 61, 51
4, 7439, Note_on_c, 1, 61, 0
4, 7440, Note_on_c, 1, 58, 51
4, 7455, Note_on_c, 1, 58, 0
4, 7456, Note_on_c, 1, 61, 51
4, 7471, Note_on_c, 1, 61, 0
4, 7472, Note_on_c, 1, 63, 51
4, 7487, Note_on_c, 1, 63, 0
4, 7488, Note_on_c, 1, 56, 51
4, 7503, Note_on_c, 1, 56, 0
4, 7504, Note_on_c, 1, 60, 51
4, 7519, Note_on_c, 1, 60, 0
4, 7520, Note_on_c, 1, 63, 51
4, 7535, Note_on_c, 1, 63, 0
4, 7536, Note_on_c, 1, 68, 51
4, 7552, Note_on_c, 1, 68, 0
4, 7552, Note_on_c, 1, 63, 51
4, 7567, Note_on_c, 1, 63, 0
4, 7568, Note_on_c, 1, 60, 51
4, 7583, Note_on_c, 1, 60, 0
4, 7584, Note_on_c, 1, 56, 51
4, 7599, Note_on_c, 1, 56, 0
4, 7600, Note_on_c, 1, 60, 51
4, 7615, Note_on_c, 1, 60, 0
4, 7616, Note_on_c, 1, 63, 51
4, 7631, Note_on_c, 1, 63, 0
4, 7632, Note_on_c, 1, 54, 51
4, 7647, Note_on_c, 1, 54, 0
4, 7648, Note_on_c, 1, 56, 51
4, 7663, Note_on_c, 1, 56, 0
4, 7664, Note_on_c, 1, 60, 51
4, 7679, Note_on_c, 1, 60, 0
4, 7680, Note_on_c, 1, 63, 51
4, 7695, Note_on_c, 1, 63, 0
4, 7696, Note_on_c, 1, 60, 51
4, 7711, Note_on_c, 1, 60, 0
4, 7712, Note_on_c, 1, 56, 51
4, 7727, Note_on_c, 1, 56, 0
4, 7728, Note_on_c, 1, 54, 51
4, 7743, Note_on_c, 1, 54, 0
4, 7744, Note_on_c, 1, 56, 51
4, 7759, Note_on_c, 1, 56, 0
4, 7760, Note_on_c, 1, 60, 51
4, 7775, Note_on_c, 1, 60, 0
4, 7776, Note_on_c, 1, 53, 51
4, 7791, Note_on_c, 1, 53, 0
4, 7792, Note_on_c, 1, 56, 51
4, 7807, Note_on_c, 1, 56, 0
4, 7808, Note_on_c, 1, 61, 51
4, 7823, Note_on_c, 1, 61, 0
4, 7824, Note_on_c, 1, 65, 51
4, 7839, Note_on_c, 1, 65, 0
4, 7840, Note_on_c, 1, 61, 51
4, 7855, Note_on_c, 1, 61, 0
4, 7856, Note_on_c, 1, 56, 51
4, 7871, Note_on_c, 1, 56, 0
4, 7872, Note_on_c, 1, 53, 51
4, 7887, Note_on_c, 1, 53, 0
4, 7888, Note_on_c, 1, 56, 51
4, 7903, Note_on_c, 1, 56, 0
4, 7904, Note_on_c, 1, 61, 51
4, 7919, Note_on_c, 1, 61, 0
4, 7920, Note_on_c, 1, 52, 51
4, 7935, Note_on_c, 1, 52, 0
4, 7936, Note_on_c, 1, 56, 51
4, 7951, Note_on_c, 1, 56, 0
4, 7952, Note_on_c, 1, 61, 51
4, 7967, Note_on_c, 1, 61, 0
4, 7968, Note_on_c, 1, 64, 51
4, 7983, Note_on_c, 1, 64, 0
4, 7984, Note_on_c, 1, 61, 51
4, 7999, Note_on_c, 1, 61, 0
4, 8000, Note_on_c, 1, 56, 51
4, 8015, Note_on_c, 1, 56, 0
4, 8016, Note_on_c, 1, 52, 51
4, 8031, Note_on_c, 1, 52, 0
4, 8032, Note_on_c, 1, 56, 51
4, 8047, Note_on_c, 1, 56, 0
4, 8048, Note_on_c, 1, 61, 51
4, 8063, Note_on_c, 1, 61, 0
4, 8064, Control_c, 1, 64, 127
4, 8064, Note_on_c, 1, 51, 51
4, 8197, Note_on_c, 1, 51, 0
4, 8208, Control_c, 1, 64, 0
4, 8208, Note_on_c, 1, 55, 51
4, 8341, Note_on_c, 1, 55, 0
4, 8352, Control_c, 1, 64, 127
4, 8352, Note_on_c, 1, 56, 51
4, 8441, Note_on_c, 1, 56, 0
4, 8512, Note_on_c, 1, 48, 75
4, 8527, Note_on_c, 1, 48, 0
4, 8528, Note_on_c, 1, 51, 75
4, 8543, Note_on_c, 1, 51, 0
4, 8544, Note_on_c, 1, 44, 75
4, 8559, Note_on_c, 1, 44, 0
4, 8560, Note_on_c, 1, 48, 75
4, 8575, Note_on_c, 1, 48, 0
4, 8576, Note_on_c, 1, 51, 75
4, 8591, Note_on_c, 1, 51, 0
4, 8592, Note_on_c, 1, 42, 75
4, 8607, Note_on_c, 1, 42, 0
4, 8608, Note_on_c, 1, 51, 75
4, 8623, Note_on_c, 1, 51, 0
4, 8624, Note_on_c, 1, 42, 75
4, 8639, Note_on_c, 1, 42, 0
4, 8640, Control_c, 1, 64, 0
4, 8640, Control_c, 1, 64, 127
4, 8640, Note_on_c, 1, 41, 75
4, 8729, Note_on_c, 1, 41, 0
4, 8736, Control_c, 1, 64, 0
4, 8784, Note_on_c, 1, 49, 65
4, 8804, Note_on_c, 1, 49, 0
4, 8832, Note_on_c, 1, 61, 65
4, 8852, Note_on_c, 1, 61, 0
4, 9072, Note_on_c, 1, 51, 58
4, 9087, Note_on_c, 1, 51, 0
4, 9088, Note_on_c, 1, 56, 58
4, 9103, Note_on_c, 1, 56, 0
4, 9104, Note_on_c, 1, 60, 58
4, 9119, Note_on_c, 1, 60, 0
4, 9120, Note_on_c, 1, 63, 58
4, 9135, Note_on_c, 1, 63, 0
4, 9136, Note_on_c, 1, 60, 58
4, 9151, Note_on_c, 1, 60, 0
4, 9152, Note_on_c, 1, 56, 58
4, 9167, Note_on_c, 1, 56, 0
4, 9168, Note_on_c, 1, 51, 58
4, 9183, Note_on_c, 1, 51, 0
4, 9184, Note_on_c, 1, 56, 58
4, 9199, Note_on_c, 1, 56, 0
4, 9200, Note_on_c, 1, 60, 58
4, 9215, Note_on_c, 1, 60, 0
4, 9216, Note_on_c, 1, 51, 58
4, 9231, Note_on_c, 1, 51, 0
4, 9232, Note_on_c, 1, 56, 58
4, 9247, Note_on_c, 1, 56, 0
4, 9248, Note_on_c, 1, 60, 58
4, 9263, Note_on_c, 1, 60, 0
4, 9264, Note_on_c, 1, 63, 58
4, 9279, Note_on_c, 1, 63, 0
4, 9280, Note_on_c, 1, 60, 58
4, 9295, Note_on_c, 1, 60, 0
4, 9296, Note_on_c, 1, 56, 58
4, 9311, Note_on_c, 1, 56, 0
4, 9312, Note_on_c, 1, 51, 58
4, 9327, Note_on_c, 1, 51, 0
4, 9328, Note_on_c, 1, 56, 58
4, 9343, Note_on_c, 1, 56, 0
4, 9344, Note_on_c, 1, 60, 58
4, 9359, Note_on_c, 1, 60, 0
4, 9360, Note_on_c, 1, 53, 58
4, 9375, Note_on_c, 1, 53, 0
4, 9376, Note_on_c, 1, 56, 58
4, 9391, Note_on_c, 1, 56, 0
4, 9392, Note_on_c, 1, 58, 58
4, 9407, Note_on_c, 1, 58, 0
4, 9408, Note_on_c, 1, 62, 58
4, 9423, Note_on_c, 1, 62, 0
4, 9424, Note_on_c, 1, 58, 58
4, 9439, Note_on_c, 1, 58, 0
4, 9440, Note_on_c, 1, 56, 58
4, 9455, Note_on_c, 1, 56, 0
4, 9456, Note_on_c, 1, 53, 58
4, 9471, Note_on_c, 1, 53, 0
4, 9472, Note_on_c, 1, 56, 58
4, 9487, Note_on_c, 1, 56, 0
4, 9488, Note_on_c, 1, 58, 58
4, 9503, Note_on_c, 1, 58, 0
4, 9504, Note_on_c, 1, 53, 58
4, 9519, Note_on_c, 1, 53, 0
4, 9520, Note_on_c, 1, 56, 58
4, 9535, Note_on_c, 1, 56, 0
4, 9536, Note_on_c, 1, 58, 58
4, 9551, Note_on_c, 1, 58, 0
4, 9552, Note_on_c, 1, 62, 58
4, 9567, Note_on_c, 1, 62, 0
4, 9568, Note_on_c, 1, 58, 58
4, 9583, Note_on_c, 1, 58, 0
4, 9584, Note_on_c, 1, 56, 58
4, 9599, Note_on_c, 1, 56, 0
4, 9600, Note_on_c, 1, 53, 58
4, 9615, Note_on_c, 1, 53, 0
4, 9616, Note_on_c, 1, 56, 58
4, 9631, Note_on_c, 1, 56, 0
4, 9632, Note_on_c, 1, 58, 58
4, 9647, Note_on_c, 1, 58, 0
4, 9648, Note_on_c, 1, 55, 58
4, 9663, Note_on_c, 1, 55, 0
4, 9664, Note_on_c, 1, 58, 58
4, 9679, Note_on_c, 1, 58, 0
4, 9680, Note_on_c, 1, 63, 58
4, 9695, Note_on_c, 1, 63, 0
4, 9696, Note_on_c, 1, 67, 58
4, 9711, Note_on_c, 1, 67, 0
4, 9712, Note_on_c, 1, 63, 58
4, 9727, Note_on_c, 1, 63, 0
4, 9728, Note_on_c, 1, 58, 58
4, 9743, Note_on_c, 1, 58, 0
4, 9744, Note_on_c, 1, 55, 58
4, 9759, Note_on_c, 1, 55, 0
4, 9760, Note_on_c, 1, 58, 58
4, 9775, Note_on_c, 1, 58, 0
4, 9776, Note_on_c, 1, 63, 58
4, 9791, Note_on_c, 1, 63, 0
4, 9792, Note_on_c, 1, 56, 58
4, 9807, Note_on_c, 1, 56, 0
4, 9808, Note_on_c, 1, 60, 58
4, 9823, Note_on_c, 1, 60, 0
4, 9824, Note_on_c, 1, 63, 58
4, 9839, Note_on_c, 1, 63, 0
4, 9840, Note_on_c, 1, 68, 58
4, 9856, Note_on_c, 1, 68, 0
4, 9856, Note_on_c, 1, 63, 58
4, 9871, Note_on_c, 1, 63, 0
4, 9872, Note_on_c, 1, 60, 58
4, 9887, Note_on_c, 1, 60, 0
4, 9888, Note_on_c, 1, 56, 58
4, 9903, Note_on_c, 1, 56, 0
4, 9904, Note_on_c, 1, 60, 58
4, 9919, Note_on_c, 1, 60, 0
4, 9920, Note_on_c, 1, 63, 58
4, 9935, Note_on_c, 1, 63, 0
4, 9936, Note_on_c, 1, 58, 58
4, 9951, Note_on_c, 1, 58, 0
4, 9952, Note_on_c, 1, 61, 58
4, 9967, Note_on_c, 1, 61, 0
4, 9968, Note_on_c, 1, 63, 58
4, 9983, Note_on_c, 1, 63, 0
4, 9984, Note_on_c, 1, 67, 58
4, 9999, Note_on_c, 1, 67, 0
4, 10000, Note_on_c, 1, 63, 58
4, 10015, Note_on_c, 1, 63, 0
4, 10016, Note_on_c, 1, 61, 58
4, 10031, Note_on_c, 1, 61, 0
4, 10032, Note_on_c, 1, 58, 51
4, 10047, Note_on_c, 1, 58, 0
4, 10048, Note_on_c, 1, 61, 51
4, 10063, Note_on_c, 1, 61, 0
4, 10064, Note_on_c, 1, 63, 51
4, 10079, Note_on_c, 1, 63, 0
4, 10080, Note_on_c, 1, 56, 51
4, 10095, Note_on_c, 1, 56, 0
4, 10096, Note_on_c, 1, 60, 51
4, 10111, Note_on_c, 1, 60, 0
4, 10112, Note_on_c, 1, 63, 51
4, 10127, Note_on_c, 1, 63, 0
4, 10128, Note_on_c, 1, 68, 51
4, 10144, Note_on_c, 1, 68, 0
4, 10144, Note_on_c, 1, 63, 51
4, 10159, Note_on_c, 1, 63, 0
4, 10160, Note_on_c, 1, 60, 51
4, 10175, Note_on_c, 1, 60, 0
4, 10176, Note_on_c, 1, 56, 51
4, 10191, Note_on_c, 1, 56, 0
4, 10192, Note_on_c, 1, 60, 51
4, 10207, Note_on_c, 1, 60, 0
4, 10208, Note_on_c, 1, 63, 51
4, 10223, Note_on_c, 1, 63, 0
4, 10224, Note_on_c, 1, 58, 51
4, 10239, Note_on_c, 1, 58, 0
4, 10240, Note_on_c, 1, 61, 51
4, 10255, Note_on_c, 1, 61, 0
4, 10256, Note_on_c, 1, 63, 51
4, 10271, Note_on_c, 1, 63, 0
4, 10272, Note_on_c, 1, 67, 51
4, 10287, Note_on_c, 1, 67, 0
4, 10288, Note_on_c, 1, 63, 51
4, 10303, Note_on_c, 1, 63, 0
4, 10304, Note_on_c, 1, 61, 51
4, 10319, Note_on_c, 1, 61, 0
4, 10320, Note_on_c, 1, 58, 58
4, 10335, Note_on_c, 1, 58, 0
4, 10336, Note_on_c, 1, 61, 58
4, 10351, Note_on_c, 1, 61, 0
4, 10352, Note_on_c, 1, 63, 58
4, 10367, Note_on_c, 1, 63, 0
4, 10368, Note_on_c, 1, 56, 58
4, 10383, Note_on_c, 1, 56, 0
4, 10384, Note_on_c, 1, 60, 58
4, 10399, Note_on_c, 1, 60, 0
4, 10400, Note_on_c, 1, 63, 58
4, 10415, Note_on_c, 1, 63, 0
4, 10416, Note_on_c, 1, 68, 58
4, 10431, Note_on_c, 1, 68, 0
4, 10432, Note_on_c, 1, 63, 58
4, 10447, Note_on_c, 1, 63, 0
4, 10448, Note_on_c, 1, 60, 58
4, 10463, Note_on_c, 1, 60, 0
4, 10464, Note_on_c, 1, 56, 58
4, 10479, Note_on_c, 1, 56, 0
4, 10480, Note_on_c, 1, 60, 58
4, 10495, Note_on_c, 1, 60, 0
4, 10496, Note_on_c, 1, 63, 58
4, 10511, Note_on_c, 1, 63, 0
4, 10512, Note_on_c, 1, 60, 58
4, 10645, Note_on_c, 1, 60, 0
4, 10656, Note_on_c, 1, 61, 51
4, 10745, Note_on_c, 1, 61, 0
4, 10800, Note_on_c, 1, 51, 65
4, 10815, Note_on_c, 1, 51, 0
4, 10816, Note_on_c, 1, 56, 65
4, 10831, Note_on_c, 1, 56, 0
4, 10832, Note_on_c, 1, 60, 65
4, 10847, Note_on_c, 1, 60, 0
4, 10848, Note_on_c, 1, 63, 65
4, 10863, Note_on_c, 1, 63, 0
4, 10864, Note_on_c, 1, 60, 65
4, 10879, Note_on_c, 1, 60, 0
4, 10880, Note_on_c, 1, 56, 65
4, 10895, Note_on_c, 1, 56, 0
4, 10896, Note_on_c, 1, 51, 65
4, 10911, Note_on_c, 1, 51, 0
4, 10912, Note_on_c, 1, 56, 65
4, 10927, Note_on_c, 1, 56, 0
4, 10928, Note_on_c, 1, 60, 65
4, 10943, Note_on_c, 1, 60, 0
4, 10944, Note_on_c, 1, 60, 65
4, 10944, Note_on_c, 1, 56, 65
4, 10989, Note_on_c, 1, 60, 0
4, 10989, Note_on_c, 1, 56, 0
4, 11040, Note_on_c, 1, 58, 65
4, 11040, Note_on_c, 1, 51, 65
4, 11085, Note_on_c, 1, 58, 0
4, 11085, Note_on_c, 1, 51, 0
4, 11088, Note_on_c, 1, 56, 65
4, 11088, Note_on_c, 1, 44, 65
4, 11133, Note_on_c, 1, 56, 0
4, 11133, Note_on_c, 1, 44, 0
4, 11184, Note_on_c, 1, 58, 65
4, 11184, Note_on_c, 1, 51, 65
4, 11229, Note_on_c, 1, 58, 0
4, 11229, Note_on_c, 1, 51, 0
4, 11232, Note_on_c, 1, 44, 65
4, 11247, Note_on_c, 1, 44, 0
4, 11248, Note_on_c, 1, 56, 64
4, 11263, Note_on_c, 1, 56, 0
4, 11264, Note_on_c, 1, 55, 63
4, 11279, Note_on_c, 1, 55, 0
4, 11280, Note_on_c, 1, 56, 62
4, 11295, Note_on_c, 1, 56, 0
4, 11296, Note_on_c, 1, 51, 61
4, 11311, Note_on_c, 1, 51, 0
4, 11312, Note_on_c, 1, 48, 60
4, 11327, Note_on_c, 1, 48, 0
4, 11328, Note_on_c, 1, 51, 59
4, 11343, Note_on_c, 1, 51, 0
4, 11344, Note_on_c, 1, 48, 58
4, 11359, Note_on_c, 1, 48, 0
4, 11360, Note_on_c, 1, 44, 58
4, 11375, Note_on_c, 1, 44, 0
4, 11376, Note_on_c, 1, 32, 57
4, 11421, Note_on_c, 1, 32, 0
4, 11520, Note_on_c, 1, 57, 51
4, 11535, Note_on_c, 1, 57, 0
4, 11536, Note_on_c, 1, 60, 51
4, 11551, Note_on_c, 1, 60, 0
4, 11552, Note_on_c, 1, 63, 51
4, 11567, Note_on_c, 1, 63, 0
4, 11568, Note_on_c, 1, 66, 51
4, 11583, Note_on_c, 1, 66, 0
4, 11584, Note_on_c, 1, 63, 51
4, 11599, Note_on_c, 1, 63, 0
4, 11600, Note_on_c, 1, 60, 51
4, 11615, Note_on_c, 1, 60, 0
4, 11616, Note_on_c, 1, 57, 51
4, 11631, Note_on_c, 1, 57, 0
4, 11632, Note_on_c, 1, 60, 51
4, 11647, Note_on_c, 1, 60, 0
4, 11648, Note_on_c, 1, 63, 51
4, 11663, Note_on_c, 1, 63, 0
4, 11664, Note_on_c, 1, 57, 51
4, 11679, Note_on_c, 1, 57, 0
4, 11680, Note_on_c, 1, 60, 51
4, 11695, Note_on_c, 1, 60, 0
4, 11696, Note_on_c, 1, 63, 51
4, 11711, Note_on_c, 1, 63, 0
4, 11712, Note_on_c, 1, 66, 51
4, 11727, Note_on_c, 1, 66, 0
4, 11728, Note_on_c, 1, 63, 51
4, 11743, Note_on_c, 1, 63, 0
4, 11744, Note_on_c, 1, 60, 51
4, 11759, Note_on_c, 1, 60, 0
4, 11760, Note_on_c, 1, 57, 51
4, 11775, Note_on_c, 1, 57, 0
4, 11776, Note_on_c, 1, 60, 51
4, 11791, Note_on_c, 1, 60, 0
4, 11792, Note_on_c, 1, 63, 51
4, 11807, Note_on_c, 1, 63, 0
4, 11808, Control_c, 1, 64, 127
4, 11808, Note_on_c, 1, 61, 51
4, 11808, Note_on_c, 1, 58, 51
4, 11897, Note_on_c, 1, 61, 0
4, 11897, Note_on_c, 1, 58, 0
4, 11984, Note_on_c, 1, 49, 51
4, 11999, Note_on_c, 1, 49, 0
4, 12000, Note_on_c, 1, 53, 75
4, 12015, Note_on_c, 1, 53, 0
4, 12016, Note_on_c, 1, 49, 75
4, 12031, Note_on_c, 1, 49, 0
4, 12032, Note_on_c, 1, 46, 75
4, 12047, Note_on_c, 1, 46, 0
4, 12048, Note_on_c, 1, 53, 75
4, 12063, Note_on_c, 1, 53, 0
4, 12064, Note_on_c, 1, 49, 75
4, 12079, Note_on_c, 1, 49, 0
4, 12080, Note_on_c, 1, 46, 75
4, 12095, Note_on_c, 1, 46, 0
4, 12096, Control_c, 1, 64, 0
4, 12096, Control_c, 1, 64, 127
4, 12096, Note_on_c, 1, 43, 75
4, 12111, Note_on_c, 1, 43, 0
4, 12112, Note_on_c, 1, 47, 75
4, 12127, Note_on_c, 1, 47, 0
4, 12128, Note_on_c, 1, 50, 75
4, 12143, Note_on_c, 1, 50, 0
4, 12144, Note_on_c, 1, 53, 75
4, 12159, Note_on_c, 1, 53, 0
4, 12160, Note_on_c, 1, 56, 75
4, 12175, Note_on_c, 1, 56, 0
4, 12176, Note_on_c, 1, 59, 75
4, 12191, Note_on_c, 1, 59, 0
4, 12192, Note_on_c, 1, 62, 75
4, 12207, Note_on_c, 1, 62, 0
4, 12208, Note_on_c, 1, 65, 75
4, 12223, Note_on_c, 1, 65, 0
4, 12224, Note_on_c, 1, 68, 75
4, 12239, Note_on_c, 1, 68, 0
4, 12240, Note_on_c, 1, 68, 75
4, 12329, Note_on_c, 1, 68, 0
4, 12336, Control_c, 1, 64, 0
4, 12336, Note_on_c, 1, 59, 75
4, 12381, Note_on_c, 1, 59, 0
4, 12384, Note_on_c, 1, 60, 51
4, 12399, Note_on_c, 1, 60, 0
4, 12400, Note_on_c, 1, 63, 51
4, 12415, Note_on_c, 1, 63, 0
4, 12416, Note_on_c, 1, 67, 51
4, 12431, Note_on_c, 1, 67, 0
4, 12432, Note_on_c, 1, 72, 51
4, 12448, Note_on_c, 1, 72, 0
4, 12448, Note_on_c, 1, 67, 51
4, 12463, Note_on_c, 1, 67, 0
4, 12464, Note_on_c, 1, 63, 51
4, 12479, Note_on_c, 1, 63, 0
4, 12480, Note_on_c, 1, 60, 51
4, 12495, Note_on_c, 1, 60, 0
4, 12496, Note_on_c, 1, 63, 51
4, 12511, Note_on_c, 1, 63, 0
4, 12512, Note_on_c, 1, 67, 51
4, 12527, Note_on_c, 1, 67, 0
4, 12528, Note_on_c, 1, 62, 51
4, 12543, Note_on_c, 1, 62, 0
4, 12544, Note_on_c, 1, 65, 51
4, 12559, Note_on_c, 1, 65, 0
4, 12560, Note_on_c, 1, 67, 51
4, 12575, Note_on_c, 1, 67, 0
4, 12576, Note_on_c, 1, 71, 51
4, 12591, Note_on_c, 1, 71, 0
4, 12592, Note_on_c, 1, 67, 51
4, 12607, Note_on_c, 1, 67, 0
4, 12608, Note_on_c, 1, 65, 51
4, 12623, Note_on_c, 1, 65, 0
4, 12624, Note_on_c, 1, 62, 51
4, 12639, Note_on_c, 1, 62, 0
4, 12640, Note_on_c, 1, 65, 51
4, 12655, Note_on_c, 1, 65, 0
4, 12656, Note_on_c, 1, 67, 51
4, 12671, Note_on_c, 1, 67, 0
4, 12672, Note_on_c, 1, 60, 51
4, 12687, Note_on_c, 1, 60, 0
4, 12688, Note_on_c, 1, 63, 51
4, 12703, Note_on_c, 1, 63, 0
4, 12704, Note_on_c, 1, 67, 51
4, 12719, Note_on_c, 1, 67, 0
4, 12720, Note_on_c, 1, 72, 51
4, 12736, Note_on_c, 1, 72, 0
4, 12736, Note_on_c, 1, 67, 51
4, 12751, Note_on_c, 1, 67, 0
4, 12752, Note_on_c, 1, 63, 51
4, 12767, Note_on_c, 1, 63, 0
4, 12768, Note_on_c, 1, 60, 51
4, 12783, Note_on_c, 1, 60, 0
4, 12784, Note_on_c, 1, 63, 51
4, 12799, Note_on_c, 1, 63, 0
4, 12800, Note_on_c, 1, 68, 52
4, 12815, Note_on_c, 1, 68, 0
4, 12816, Note_on_c, 1, 58, 53
4, 12831, Note_on_c, 1, 58, 0
4, 12832, Note_on_c, 1, 61, 54
4, 12847, Note_on_c, 1, 61, 0
4, 12848, Note_on_c, 1, 63, 55
4, 12863, Note_on_c, 1, 63, 0
4, 12864, Note_on_c, 1, 67, 58
4, 12879, Note_on_c, 1, 67, 0
4, 12880, Note_on_c, 1, 63, 58
4, 12895, Note_on_c, 1, 63, 0
4, 12896, Note_on_c, 1, 61, 58
4, 12911, Note_on_c, 1, 61, 0
4, 12912, Note_on_c, 1, 58, 58
4, 12927, Note_on_c, 1, 58, 0
4, 12928, Note_on_c, 1, 61, 58
4, 12943, Note_on_c, 1, 61, 0
4, 12944, Note_on_c, 1, 63, 58
4, 12959, Note_on_c, 1, 63, 0
4, 12960, Note_on_c, 1, 56, 58
4, 12975, Note_on_c, 1, 56, 0
4, 12976, Note_on_c, 1, 60, 58
4, 12991, Note_on_c, 1, 60, 0
4, 12992, Note_on_c, 1, 63, 58
4, 13007, Note_on_c, 1, 63, 0
4, 13008, Note_on_c, 1, 68, 58
4, 13024, Note_on_c, 1, 68, 0
4, 13024, Note_on_c, 1, 63, 58
4, 13039, Note_on_c, 1, 63, 0
4, 13040, Note_on_c, 1, 60, 58
4, 13055, Note_on_c, 1, 60, 0
4, 13056, Note_on_c, 1, 56, 58
4, 13071, Note_on_c, 1, 56, 0
4, 13072, Note_on_c, 1, 60, 58
4, 13087, Note_on_c, 1, 60, 0
4, 13088, Note_on_c, 1, 63, 58
4, 13103, Note_on_c, 1, 63, 0
4, 13104, Note_on_c, 1, 55, 59
4, 13119, Note_on_c, 1, 55, 0
4, 13120, Note_on_c, 1, 58, 60
4, 13135, Note_on_c, 1, 58, 0
4, 13136, Note_on_c, 1, 60, 61
4, 13151, Note_on_c, 1, 60, 0
4, 13152, Note_on_c, 1, 64, 62
4, 13167, Note_on_c, 1, 64, 0
4, 13168, Note_on_c, 1, 60, 65
4, 13183, Note_on_c, 1, 60, 0
4, 13184, Note_on_c, 1, 58, 65
4, 13199, Note_on_c, 1, 58, 0
4, 13200, Note_on_c, 1, 55, 65
4, 13215, Note_on_c, 1, 55, 0
4, 13216, Note_on_c, 1, 58, 65
4, 13231, Note_on_c, 1, 58, 0
4, 13232, Note_on_c, 1, 60, 65
4, 13247, Note_on_c, 1, 60, 0
4, 13248, Note_on_c, 1, 53, 65
4, 13337, Note_on_c, 1, 53, 0
4, 13344, Note_on_c, 1, 49, 65
4, 13389, Note_on_c, 1, 49, 0
4, 13392, Note_on_c, 1, 48, 65
4, 13407, Note_on_c, 1, 48, 0
4, 13408, Note_on_c, 1, 52, 65
4, 13423, Note_on_c, 1, 52, 0
4, 13424, Note_on_c, 1, 55, 65
4, 13439, Note_on_c, 1, 55, 0
4, 13440, Note_on_c, 1, 60, 65
4, 13455, Note_on_c, 1, 60, 0
4, 13456, Note_on_c, 1, 64, 67
4, 13471, Note_on_c, 1, 64, 0
4, 13472, Note_on_c, 1, 67, 70
4, 13487, Note_on_c, 1, 67, 0
4, 13488, Note_on_c, 1, 72, 72
4, 13503, Note_on_c, 1, 72, 0
4, 13504, Note_on_c, 1, 67, 75
4, 13519, Note_on_c, 1, 67, 0
4, 13520, Note_on_c, 1, 64, 72
4, 13535, Note_on_c, 1, 64, 0
4, 13536, Note_on_c, 1, 70, 65
4, 13536, Note_on_c, 1, 60, 65
4, 13669, Note_on_c, 1, 70, 0
4, 13669, Note_on_c, 1, 60, 0
4, 13680, Note_on_c, 1, 68, 65
4, 13680, Note_on_c, 1, 60, 65
4, 13813, Note_on_c, 1, 68, 0
4, 13813, Note_on_c, 1, 60, 0
4, 13824, Note_on_c, 1, 64, 65
4, 13824, Note_on_c, 1, 60, 65
4, 13957, Note_on_c, 1, 64, 0
4, 13957, Note_on_c, 1, 60, 0
4, 13968, Note_on_c, 1, 65, 65
4, 13968, Note_on_c, 1, 60, 65
4, 14101, Note_on_c, 1, 65, 0
4, 14101, Note_on_c, 1, 60, 0
4, 14112, Note_on_c, 1, 48, 65
4, 14127, Note_on_c, 1, 48, 0
4, 14128, Note_on_c, 1, 51, 65
4, 14143, Note_on_c, 1, 51, 0
4, 14144, Note_on_c, 1, 56, 65
4, 14159, Note_on_c, 1, 56, 0
4, 14160, Note_on_c, 1, 60, 65
4, 14175, Note_on_c, 1, 60, 0
4, 14176, Note_on_c, 1, 56, 65
4, 14191, Note_on_c, 1, 56, 0
4, 14192, Note_on_c, 1, 51, 65
4, 14207, Note_on_c, 1, 51, 0
4, 14208, Note_on_c, 1, 48, 65
4, 14223, Note_on_c, 1, 48, 0
4, 14224, Note_on_c, 1, 51, 65
4, 14239, Note_on_c, 1, 51, 0
4, 14240, Note_on_c, 1, 56, 65
4, 14255, Note_on_c, 1, 56, 0
4, 14256, Note_on_c, 1, 49, 65
4, 14271, Note_on_c, 1, 49, 0
4, 14272, Note_on_c, 1, 53, 65
4, 14287, Note_on_c, 1, 53, 0
4, 14288, Note_on_c, 1, 56, 65
4, 14303, Note_on_c, 1, 56, 0
4, 14304, Note_on_c, 1, 61, 65
4, 14319, Note_on_c, 1, 61, 0
4, 14320, Note_on_c, 1, 56, 65
4, 14335, Note_on_c, 1, 56, 0
4, 14336, Note_on_c, 1, 53, 65
4, 14351, Note_on_c, 1, 53, 0
4, 14352, Note_on_c, 1, 49, 65
4, 14367, Note_on_c, 1, 49, 0
4, 14368, Note_on_c, 1, 53, 65
4, 14383, Note_on_c, 1, 53, 0
4, 14384, Note_on_c, 1, 56, 65
4, 14399, Note_on_c, 1, 56, 0
4, 14400, Note_on_c, 1, 47, 65
4, 14415, Note_on_c, 1, 47, 0
4, 14416, Note_on_c, 1, 50, 65
4, 14431, Note_on_c, 1, 50, 0
4, 14432, Note_on_c, 1, 53, 65
4, 14447, Note_on_c, 1, 53, 0
4, 14448, Note_on_c, 1, 56, 65
4, 14463, Note_on_c, 1, 56, 0
4, 14464, Note_on_c, 1, 53, 65
4, 14479, Note_on_c, 1, 53, 0
4, 14480, Note_on_c, 1, 50, 65
4, 14495, Note_on_c, 1, 50, 0
4, 14496, Note_on_c, 1, 47, 65
4, 14511, Note_on_c, 1, 47, 0
4, 14512, Note_on_c, 1, 50, 65
4, 14527, Note_on_c, 1, 50, 0
4, 14528, Note_on_c, 1, 53, 65
4, 14543, Note_on_c, 1, 53, 0
4, 14544, Note_on_c, 1, 48, 65
4, 14559, Note_on_c, 1, 48, 0
4, 14560, Note_on_c, 1, 52, 65
4, 14575, Note_on_c, 1, 52, 0
4, 14576, Note_on_c, 1, 55, 65
4, 14591, Note_on_c, 1, 55, 0
4, 14592, Note_on_c, 1, 60, 65
4, 14607, Note_on_c, 1, 60, 0
4, 14608, Note_on_c, 1, 55, 65
4, 14623, Note_on_c, 1, 55, 0
4, 14624, Note_on_c, 1, 52, 65
4, 14639, Note_on_c, 1, 52, 0
4, 14640, Note_on_c, 1, 48, 65
4, 14655, Note_on_c, 1, 48, 0
4, 14656, Note_on_c, 1, 52, 65
4, 14671, Note_on_c, 1, 52, 0
4, 14672, Note_on_c, 1, 55, 65
4, 14687, Note_on_c, 1, 55, 0
4, 14688, Note_on_c, 1, 52, 58
4, 14703, Note_on_c, 1, 52, 0
4, 14704, Note_on_c, 1, 55, 58
4, 14719, Note_on_c, 1, 55, 0
4, 14720, Note_on_c, 1, 58, 58
4, 14735, Note_on_c, 1, 58, 0
4, 14736, Note_on_c, 1, 60, 58
4, 14751, Note_on_c, 1, 60, 0
4, 14752, Note_on_c, 1, 58, 58
4, 14767, Note_on_c, 1, 58, 0
4, 14768, Note_on_c, 1, 55, 58
4, 14783, Note_on_c, 1, 55, 0
4, 14784, Note_on_c, 1, 52, 58
4, 14799, Note_on_c, 1, 52, 0
4, 14800, Note_on_c, 1, 55, 58
4, 14815, Note_on_c, 1, 55, 0
4, 14816, Note_on_c, 1, 58, 58
4, 14831, Note_on_c, 1, 58, 0
4, 14832, Note_on_c, 1, 53, 58
4, 14847, Note_on_c, 1, 53, 0
4, 14848, Note_on_c, 1, 56, 58
4, 14863, Note_on_c, 1, 56, 0
4, 14864, Note_on_c, 1, 60, 58
4, 14879, Note_on_c, 1, 60, 0
4, 14880, Note_on_c, 1, 65, 58
4, 14896, Note_on_c, 1, 65, 0
4, 14896, Note_on_c, 1, 60, 58
4, 14911, Note_on_c, 1, 60, 0
4, 14912, Note_on_c, 1, 56, 58
4, 14927, Note_on_c, 1, 56, 0
4, 14928, Note_on_c, 1, 53, 58
4, 14943, Note_on_c, 1, 53, 0
4, 14944, Note_on_c, 1, 56, 58
4, 14959, Note_on_c, 1, 56, 0
4, 14960, Note_on_c, 1, 60, 58
4, 14975, Note_on_c, 1, 60, 0
4, 14976, Note_on_c, 1, 55, 58
4, 14991, Note_on_c, 1, 55, 0
4, 14992, Note_on_c, 1, 58, 58
4, 15007, Note_on_c, 1, 58, 0
4, 15008, Note_on_c, 1, 60, 58
4, 15023, Note_on_c, 1, 60, 0
4, 15024, Note_on_c, 1, 64, 58
4, 15039, Note_on_c, 1, 64, 0
4, 15040, Note_on_c, 1, 60, 58
4, 15055, Note_on_c, 1, 60, 0
4, 15056, Note_on_c, 1, 58, 58
4, 15071, Note_on_c, 1, 58, 0
4, 15072, Note_on_c, 1, 55, 58
4, 15087, Note_on_c, 1, 55, 0
4, 15088, Note_on_c, 1, 58, 58
4, 15103, Note_on_c, 1, 58, 0
4, 15104, Note_on_c, 1, 60, 58
4, 15119, Note_on_c, 1, 60, 0
4, 15120, Note_on_c, 1, 53, 65
4, 15209, Note_on_c, 1, 53, 0
4, 15264, Note_on_c, 1, 47, 65
4, 15264, Note_on_c, 1, 35, 65
4, 15353, Note_on_c, 1, 47, 0
4, 15353, Note_on_c, 1, 35, 0
4, 15408, Control_c, 1, 64, 127
4, 15408, Note_on_c, 1, 48, 65
4, 15408, Note_on_c, 1, 36, 65
4, 15685, Note_on_c, 1, 48, 0
4, 15685, Note_on_c, 1, 36, 0
4, 15696, Control_c, 1, 64, 0
4, 15696, Note_on_c, 1, 58, 65
4, 15741, Note_on_c, 1, 58, 0
4, 15744, Note_on_c, 1, 56, 62
4, 15789, Note_on_c, 1, 56, 0
4, 15792, Note_on_c, 1, 52, 60
4, 15837, Note_on_c, 1, 52, 0
4, 15840, Control_c, 1, 64, 127
4, 15856, Note_on_c, 1, 49, 75
4, 15871, Note_on_c, 1, 49, 0
4, 15872, Note_on_c, 1, 53, 75
4, 15887, Note_on_c, 1, 53, 0
4, 15888, Note_on_c, 1, 56, 75
4, 15903, Note_on_c, 1, 56, 0
4, 15904, Note_on_c, 1, 61, 75
4, 15919, Note_on_c, 1, 61, 0
4, 15984, Control_c, 1, 64, 0
4, 15984, Control_c, 1, 64, 127
4, 15984, Note_on_c, 1, 35, 75
4, 15999, Note_on_c, 1, 35, 0
4, 16000, Note_on_c, 1, 47, 75
4, 16015, Note_on_c, 1, 47, 0
4, 16128, Control_c, 1, 64, 0
4, 16128, Note_on_c, 1, 36, 75
4, 16173, Note_on_c, 1, 36, 0
4, 16272, Note_on_c, 1, 48, 65
4, 16287, Note_on_c, 1, 48, 0
4, 16288, Note_on_c, 1, 53, 65
4, 16303, Note_on_c, 1, 53, 0
4, 16304, Note_on_c, 1, 56, 65
4, 16319, Note_on_c, 1, 56, 0
4, 16320, Note_on_c, 1, 60, 65
4, 16335, Note_on_c, 1, 60, 0
4, 16336, Note_on_c, 1, 56, 65
4, 16351, Note_on_c, 1, 56, 0
4, 16352, Note_on_c, 1, 53, 65
4, 16367, Note_on_c, 1, 53, 0
4, 16368, Note_on_c, 1, 48, 65
4, 16383, Note_on_c, 1, 48, 0
4, 16384, Note_on_c, 1, 55, 65
4, 16399, Note_on_c, 1, 55, 0
4, 16400, Note_on_c, 1, 58, 65
4, 16415, Note_on_c, 1, 58, 0
4, 16416, Note_on_c, 1, 56, 65
4, 16416, Note_on_c, 1, 53, 65
4, 16461, Note_on_c, 1, 56, 0
4, 16461, Note_on_c, 1, 53, 0
4, 16512, Note_on_c, 1, 48, 65
4, 16557, Note_on_c, 1, 48, 0
4, 16560, Note_on_c, 1, 53, 65
4, 16605, Note_on_c, 1, 53, 0
4, 16656, Note_on_c, 1, 48, 65
4, 16701, Note_on_c, 1, 48, 0
4, 16704, Note_on_c, 1, 41, 65
4, 16719, Note_on_c, 1, 41, 0
4, 16720, Note_on_c, 1, 53, 65
4, 16735, Note_on_c, 1, 53, 0
4, 16736, Note_on_c, 1, 52, 65
4, 16751, Note_on_c, 1, 52, 0
4, 16752, Note_on_c, 1, 53, 65
4, 16767, Note_on_c, 1, 53, 0
4, 16768, Note_on_c, 1, 48, 65
4, 16783, Note_on_c, 1, 48, 0
4, 16784, Note_on_c, 1, 44, 65
4, 16799, Note_on_c, 1, 44, 0
4, 16800, Note_on_c, 1, 48, 65
4, 16815, Note_on_c, 1, 48, 0
4, 16816, Note_on_c, 1, 44, 65
4, 16831, Note_on_c, 1, 44, 0
4, 16832, Note_on_c, 1, 41, 65
4, 16847, Note_on_c, 1, 41, 0
4, 16848, Note_on_c, 1, 29, 65
4, 16893, Note_on_c, 1, 29, 0
4, 16992, Note_on_c, 1, 57, 51
4, 17007, Note_on_c, 1, 57, 0
4, 17008, Note_on_c, 1, 60, 51
4, 17023, Note_on_c, 1, 60, 0
4, 17024, Note_on_c, 1, 63, 51
4, 17039, Note_on_c, 1, 63, 0
4, 17040, Note_on_c, 1, 66, 51
4, 17055, Note_on_c, 1, 66, 0
4, 17056, Note_on_c, 1, 63, 51
4, 17071, Note_on_c, 1, 63, 0
4, 17072, Note_on_c, 1, 60, 51
4, 17087, Note_on_c, 1, 60, 0
4, 17088, Note_on_c, 1, 57, 51
4, 17103, Note_on_c, 1, 57, 0
4, 17104, Note_on_c, 1, 60, 51
4, 17119, Note_on_c, 1, 60, 0
4, 17120, Note_on_c, 1, 63, 51
4, 17135, Note_on_c, 1, 63, 0
4, 17136, Note_on_c, 1, 57, 51
4, 17151, Note_on_c, 1, 57, 0
4, 17152, Note_on_c, 1, 60, 51
4, 17167, Note_on_c, 1, 60, 0
4, 17168, Note_on_c, 1, 63, 51
4, 17183, Note_on_c, 1, 63, 0
4, 17184, Note_on_c, 1, 66, 51
4, 17199, Note_on_c, 1, 66, 0
4, 17200, Note_on_c, 1, 63, 51
4, 17215, Note_on_c, 1, 63, 0
4, 17216, Note_on_c, 1, 60, 51
4, 17231, Note_on_c, 1, 60, 0
4, 17232, Note_on_c, 1, 57, 51
4, 17247, Note_on_c, 1, 57, 0
4, 17248, Note_on_c, 1, 60, 51
4, 17263, Note_on_c, 1, 60, 0
4, 17264, Note_on_c, 1, 63, 51
4, 17279, Note_on_c, 1, 63, 0
4, 17280, Control_c, 1, 64, 127
4, 17280, Note_on_c, 1, 61, 51
4, 17280, Note_on_c, 1, 58, 51
4, 17369, Note_on_c, 1, 61, 0
4, 17369, Note_on_c, 1, 58, 0
4, 17456, Note_on_c, 1, 49, 51
4, 17471, Note_on_c, 1, 49, 0
4, 17472, Note_on_c, 1, 53, 75
4, 17487, Note_on_c, 1, 53, 0
4, 17488, Note_on_c, 1, 49, 75
4, 17503, Note_on_c, 1, 49, 0
4, 17504, Note_on_c, 1, 46, 75
4, 17519, Note_on_c, 1, 46, 0
4, 17520, Note_on_c, 1, 53, 75
4, 17535, Note_on_c, 1, 53, 0
4, 17536, Note_on_c, 1, 49, 75
4, 17551, Note_on_c, 1, 49, 0
4, 17552, Note_on_c, 1, 46, 75
4, 17567, Note_on_c, 1, 46, 0
4, 17568, Control_c, 1, 64, 0
4, 17568, Control_c, 1, 64, 127
4, 17568, Note_on_c, 1, 43, 75
4, 17583, Note_on_c, 1, 43, 0
4, 17584, Note_on_c, 1, 47, 75
4, 17599, Note_on_c, 1, 47, 0
4, 17600, Note_on_c, 1, 50, 75
4, 17615, Note_on_c, 1, 50, 0
4, 17616, Note_on_c, 1, 53, 75
4, 17631, Note_on_c, 1, 53, 0
4, 17632, Note_on_c, 1, 56, 75
4, 17647, Note_on_c, 1, 56, 0
4, 17648, Note_on_c, 1, 59, 75
4, 17663, Note_on_c, 1, 59, 0
4, 17664, Note_on_c, 1, 62, 75
4, 17679, Note_on_c, 1, 62, 0
4, 17680, Note_on_c, 1, 65, 75
4, 17695, Note_on_c, 1, 65, 0
4, 17696, Note_on_c, 1, 68, 75
4, 17711, Note_on_c, 1, 68, 0
4, 17712, Note_on_c, 1, 68, 75
4, 17801, Note_on_c, 1, 68, 0
4, 17808, Control_c, 1, 64, 0
4, 17808, Note_on_c, 1, 59, 75
4, 17853, Note_on_c, 1, 59, 0
4, 17856, Note_on_c, 1, 60, 51
4, 17871, Note_on_c, 1, 60, 0
4, 17872, Note_on_c, 1, 63, 51
4, 17887, Note_on_c, 1, 63, 0
4, 17888, Note_on_c, 1, 67, 51
4, 17903, Note_on_c, 1, 67, 0
4, 17904, Note_on_c, 1, 72, 51
4, 17920, Note_on_c, 1, 72, 0
4, 17920, Note_on_c, 1, 67, 51
4, 17935, Note_on_c, 1, 67, 0
4, 17936, Note_on_c, 1, 63, 51
4, 17951, Note_on_c, 1, 63, 0
4, 17952, Note_on_c, 1, 60, 51
4, 17967, Note_on_c, 1, 60, 0
4, 17968, Note_on_c, 1, 63, 51
4, 17983, Note_on_c, 1, 63, 0
4, 17984, Note_on_c, 1, 67, 51
4, 17999, Note_on_c, 1, 67, 0
4, 18000, Note_on_c, 1, 62, 51
4, 18015, Note_on_c, 1, 62, 0
4, 18016, Note_on_c, 1, 65, 51
4, 18031, Note_on_c, 1, 65, 0
4, 18032, Note_on_c, 1, 67, 51
4, 18047, Note_on_c, 1, 67, 0
4, 18048, Note_on_c, 1, 71, 51
4, 18063, Note_on_c, 1, 71, 0
4, 18064, Note_on_c, 1, 67, 51
4, 18079, Note_on_c, 1, 67, 0
4, 18080, Note_on_c, 1, 65, 51
4, 18095, Note_on_c, 1, 65, 0
4, 18096, Note_on_c, 1, 62, 51
4, 18111, Note_on_c, 1, 62, 0
4, 18112, Note_on_c, 1, 65, 51
4, 18127, Note_on_c, 1, 65, 0
4, 18128, Note_on_c, 1, 67, 51
4, 18143, Note_on_c, 1, 67, 0
4, 18144, Note_on_c, 1, 60, 51
4, 18159, Note_on_c, 1, 60, 0
4, 18160, Note_on_c, 1, 63, 51
4, 18175, Note_on_c, 1, 63, 0
4, 18176, Note_on_c, 1, 67, 51
4, 18191, Note_on_c, 1, 67, 0
4, 18192, Note_on_c, 1, 72, 51
4, 18208, Note_on_c, 1, 72, 0
4, 18208, Note_on_c, 1, 67, 51
4, 18223, Note_on_c, 1, 67, 0
4, 18224, Note_on_c, 1, 63, 51
4, 18239, Note_on_c, 1, 63, 0
4, 18240, Note_on_c, 1, 60, 51
4, 18255, Note_on_c, 1, 60, 0
4, 18256, Note_on_c, 1, 63, 51
4, 18271, Note_on_c, 1, 63, 0
4, 18272, Note_on_c, 1, 68, 52
4, 18287, Note_on_c, 1, 68, 0
4, 18288, Note_on_c, 1, 58, 53
4, 18303, Note_on_c, 1, 58, 0
4, 18304, Note_on_c, 1, 61, 54
4, 18319, Note_on_c, 1, 61, 0
4, 18320, Note_on_c, 1, 63, 55
4, 18335, Note_on_c, 1, 63, 0
4, 18336, Note_on_c, 1, 67, 58
4, 18351, Note_on_c, 1, 67, 0
4, 18352, Note_on_c, 1, 63, 58
4, 18367, Note_on_c, 1, 63, 0
4, 18368, Note_on_c, 1, 61, 58
4, 18383, Note_on_c, 1, 61, 0
4, 18384, Note_on_c, 1, 58, 58
4, 18399, Note_on_c, 1, 58, 0
4, 18400, Note_on_c, 1, 61, 58
4, 18415, Note_on_c, 1, 61, 0
4, 18416, Note_on_c, 1, 63, 58
4, 18431, Note_on_c, 1, 63, 0
4, 18432, Note_on_c, 1, 56, 58
4, 18447, Note_on_c, 1, 56, 0
4, 18448, Note_on_c, 1, 60, 58
4, 18463, Note_on_c, 1, 60, 0
4, 18464, Note_on_c, 1, 63, 58
4, 18479, Note_on_c, 1, 63, 0
4, 18480, Note_on_c, 1, 68, 58
4, 18496, Note_on_c, 1, 68, 0
4, 18496, Note_on_c, 1, 63, 58
4, 18511, Note_on_c, 1, 63, 0
4, 18512, Note_on_c, 1, 60, 58
4, 18527, Note_on_c, 1, 60, 0
4, 18528, Note_on_c, 1, 56, 58
4, 18543, Note_on_c, 1, 56, 0
4, 18544, Note_on_c, 1, 60, 58
4, 18559, Note_on_c, 1, 60, 0
4, 18560, Note_on_c, 1, 63, 58
4, 18575, Note_on_c, 1, 63, 0
4, 18576, Note_on_c, 1, 55, 59
4, 18591, Note_on_c, 1, 55, 0
4, 18592, Note_on_c, 1, 58, 60
4, 18607, Note_on_c, 1, 58, 0
4, 18608, Note_on_c, 1, 60, 61
4, 18623, Note_on_c, 1, 60, 0
4, 18624, Note_on_c, 1, 64, 62
4, 18639, Note_on_c, 1, 64, 0
4, 18640, Note_on_c, 1, 60, 65
4, 18655, Note_on_c, 1, 60, 0
4, 18656, Note_on_c, 1, 58, 65
4, 18671, Note_on_c, 1, 58, 0
4, 18672, Note_on_c, 1, 55, 65
4, 18687, Note_on_c, 1, 55, 0
4, 18688, Note_on_c, 1, 58, 65
4, 18703, Note_on_c, 1, 58, 0
4, 18704, Note_on_c, 1, 60, 65
4, 18719, Note_on_c, 1, 60, 0
4, 18720, Note_on_c, 1, 53, 65
4, 18809, Note_on_c, 1, 53, 0
4, 18816, Note_on_c, 1, 49, 65
4, 18861, Note_on_c, 1, 49, 0
4, 18864, Note_on_c, 1, 48, 65
4, 18879, Note_on_c, 1, 48, 0
4, 18880, Note_on_c, 1, 52, 65
4, 18895, Note_on_c, 1, 52, 0
4, 18896, Note_on_c, 1, 55, 65
4, 18911, Note_on_c, 1, 55, 0
4, 18912, Note_on_c, 1, 60, 65
4, 18927, Note_on_c, 1, 60, 0
4, 18928, Note_on_c, 1, 64, 67
4, 18943, Note_on_c, 1, 64, 0
4, 18944, Note_on_c, 1, 67, 70
4, 18959, Note_on_c, 1, 67, 0
4, 18960, Note_on_c, 1, 72, 72
4, 18975, Note_on_c, 1, 72, 0
4, 18976, Note_on_c, 1, 67, 75
4, 18991, Note_on_c, 1, 67, 0
4, 18992, Note_on_c, 1, 64, 72
4, 19007, Note_on_c, 1, 64, 0
4, 19008, Note_on_c, 1, 70, 65
4, 19008, Note_on_c, 1, 60, 65
4, 19141, Note_on_c, 1, 70, 0
4, 19141, Note_on_c, 1, 60, 0
4, 19152, Note_on_c, 1, 68, 65
4, 19152, Note_on_c, 1, 60, 65
4, 19285, Note_on_c, 1, 68, 0
4, 19285, Note_on_c, 1, 60, 0
4, 19296, Note_on_c, 1, 64, 65
4, 19296, Note_on_c, 1, 60, 65
4, 19429, Note_on_c, 1, 64, 0
4, 19429, Note_on_c, 1, 60, 0
4, 19440, Note_on_c, 1, 65, 65
4, 19440, Note_on_c, 1, 60, 65
4, 19573, Note_on_c, 1, 65, 0
4, 19573, Note_on_c, 1, 60, 0
4, 19584, Note_on_c, 1, 48, 65
4, 19599, Note_on_c, 1, 48, 0
4, 19600, Note_on_c, 1, 51, 65
4, 19615, Note_on_c, 1, 51, 0
4, 19616, Note_on_c, 1, 56, 65
4, 19631, Note_on_c, 1, 56, 0
4, 19632, Note_on_c, 1, 60, 65
4, 19647, Note_on_c, 1, 60, 0
4, 19648, Note_on_c, 1, 56, 65
4, 19663, Note_on_c, 1, 56, 0
4, 19664, Note_on_c, 1, 51, 65
4, 19679, Note_on_c, 1, 51, 0
4, 19680, Note_on_c, 1, 48, 65
4, 19695, Note_on_c, 1, 48, 0
4, 19696, Note_on_c, 1, 51, 65
4, 19711, Note_on_c, 1, 51, 0
4, 19712, Note_on_c, 1, 56, 65
4, 19727, Note_on_c, 1, 56, 0
4, 19728, Note_on_c, 1, 49, 65
4, 19743, Note_on_c, 1, 49, 0
4, 19744, Note_on_c, 1, 53, 65
4, 19759, Note_on_c, 1, 53, 0
4, 19760, Note_on_c, 1, 56, 65
4, 19775, Note_on_c, 1, 56, 0
4, 19776, Note_on_c, 1, 61, 65
4, 19791, Note_on_c, 1, 61, 0
4, 19792, Note_on_c, 1, 56, 65
4, 19807, Note_on_c, 1, 56, 0
4, 19808, Note_on_c, 1, 53, 65
4, 19823, Note_on_c, 1, 53, 0
4, 19824, Note_on_c, 1, 49, 65
4, 19839, Note_on_c, 1, 49, 0
4, 19840, Note_on_c, 1, 53, 65
4, 19855, Note_on_c, 1, 53, 0
4, 19856, Note_on_c, 1, 56, 65
4, 19871, Note_on_c, 1, 56, 0
4, 19872, Note_on_c, 1, 47, 65
4, 19887, Note_on_c, 1, 47, 0
4, 19888, Note_on_c, 1, 50, 65
4, 19903, Note_on_c, 1, 50, 0
4, 19904, Note_on_c, 1, 53, 65
4, 19919, Note_on_c, 1, 53, 0
4, 19920, Note_on_c, 1, 56, 65
4, 19935, Note_on_c, 1, 56, 0
4, 19936, Note_on_c, 1, 53, 65
4, 19951, Note_on_c, 1, 53, 0
4, 19952, Note_on_c, 1, 50, 65
4, 19967, Note_on_c, 1, 50, 0
4, 19968, Note_on_c, 1, 47, 65
4, 19983, Note_on_c, 1, 47, 0
4, 19984, Note_on_c, 1, 50, 65
4, 19999, Note_on_c, 1, 50, 0
4, 20000, Note_on_c, 1, 53, 65
4, 20015, Note_on_c, 1, 53, 0
4, 20016, Note_on_c, 1, 48, 65
4, 20031, Note_on_c, 1, 48, 0
4, 20032, Note_on_c, 1, 52, 65
4, 20047, Note_on_c, 1, 52, 0
4, 20048, Note_on_c, 1, 55, 65
4, 20063, Note_on_c, 1, 55, 0
4, 20064, Note_on_c, 1, 60, 65
4, 20079, Note_on_c, 1, 60, 0
4, 20080, Note_on_c, 1, 55, 65
4, 20095, Note_on_c, 1, 55, 0
4, 20096, Note_on_c, 1, 52, 65
4, 20111, Note_on_c, 1, 52, 0
4, 20112, Note_on_c, 1, 48, 65
4, 20127, Note_on_c, 1, 48, 0
4, 20128, Note_on_c, 1, 52, 65
4, 20143, Note_on_c, 1, 52, 0
4, 20144, Note_on_c, 1, 55, 65
4, 20159, Note_on_c, 1, 55, 0
4, 20160, Note_on_c, 1, 52, 58
4, 20175, Note_on_c, 1, 52, 0
4, 20176, Note_on_c, 1, 55, 58
4, 20191, Note_on_c, 1, 55, 0
4, 20192, Note_on_c, 1, 58, 58
4, 20207, Note_on_c, 1, 58, 0
4, 20208, Note_on_c, 1, 60, 58
4, 20223, Note_on_c, 1, 60, 0
4, 20224, Note_on_c, 1, 58, 58
4, 20239, Note_on_c, 1, 58, 0
4, 20240, Note_on_c, 1, 55, 58
4, 20255, Note_on_c, 1, 55, 0
4, 20256, Note_on_c, 1, 52, 58
4, 20271, Note_on_c, 1, 52, 0
4, 20272, Note_on_c, 1, 55, 58
4, 20287, Note_on_c, 1, 55, 0
4, 20288, Note_on_c, 1, 58, 58
4, 20303, Note_on_c, 1, 58, 0
4, 20304, Note_on_c, 1, 53, 58
4, 20319, Note_on_c, 1, 53, 0
4, 20320, Note_on_c, 1, 56, 58
4, 20335, Note_on_c, 1, 56, 0
4, 20336, Note_on_c, 1, 60, 58
4, 20351, Note_on_c, 1, 60, 0
4, 20352, Note_on_c, 1, 65, 58
4, 20368, Note_on_c, 1, 65, 0
4, 20368, Note_on_c, 1, 60, 58
4, 20383, Note_on_c, 1, 60, 0
4, 20384, Note_on_c, 1, 56, 58
4, 20399, Note_on_c, 1, 56, 0
4, 20400, Note_on_c, 1, 53, 58
4, 20415, Note_on_c, 1, 53, 0
4, 20416, Note_on_c, 1, 56, 58
4, 20431, Note_on_c, 1, 56, 0
4, 20432, Note_on_c, 1, 60, 58
4, 20447, Note_on_c, 1, 60, 0
4, 20448, Note_on_c, 1, 55, 58
4, 20463, Note_on_c, 1, 55, 0
4, 20464, Note_on_c, 1, 58, 58
4, 20479, Note_on_c, 1, 58, 0
4, 20480, Note_on_c, 1, 60, 58
4, 20495, Note_on_c, 1, 60, 0
4, 20496, Note_on_c, 1, 64, 58
4, 20511, Note_on_c, 1, 64, 0
4, 20512, Note_on_c, 1, 60, 58
4, 20527, Note_on_c, 1, 60, 0
4, 20528, Note_on_c, 1, 58, 58
4, 20543, Note_on_c, 1, 58, 0
4, 20544, Note_on_c, 1, 55, 58
4, 20559, Note_on_c, 1, 55, 0
4, 20560, Note_on_c, 1, 58, 58
4, 20575, Note_on_c, 1, 58, 0
4, 20576, Note_on_c, 1, 60, 58
4, 20591, Note_on_c, 1, 60, 0
4, 20592, Note_on_c, 1, 53, 65
4, 20681, Note_on_c, 1, 53, 0
4, 20736, Note_on_c, 1, 47, 65
4, 20736, Note_on_c, 1, 35, 65
4, 20825, Note_on_c, 1, 47, 0
4, 20825, Note_on_c, 1, 35, 0
4, 20880, Control_c, 1, 64, 127
4, 20880, Note_on_c, 1, 48, 65
4, 20880, Note_on_c, 1, 36, 65
4, 21157, Note_on_c, 1, 48, 0
4, 21157, Note_on_c, 1, 36, 0
4, 21168, Control_c, 1, 64, 0
4, 21168, Note_on_c, 1, 58, 65
4, 21213, Note_on_c, 1, 58, 0
4, 21216, Note_on_c, 1, 56, 62
4, 21261, Note_on_c, 1, 56, 0
4, 21264, Note_on_c, 1, 52, 60
4, 21309, Note_on_c, 1, 52, 0
4, 21312, Control_c, 1, 64, 127
4, 21328, Note_on_c, 1, 49, 75
4, 21343, Note_on_c, 1, 49, 0
4, 21344, Note_on_c, 1, 53, 75
4, 21359, Note_on_c, 1, 53, 0
4, 21360, Note_on_c, 1, 56, 75
4, 21375, Note_on_c, 1, 56, 0
4, 21376, Note_on_c, 1, 61, 75
4, 21391, Note_on_c, 1, 61, 0
4, 21456, Control_c, 1, 64, 0
4, 21456, Control_c, 1, 64, 127
4, 21456, Note_on_c, 1, 35, 75
4, 21471, Note_on_c, 1, 35, 0
4, 21472, Note_on_c, 1, 47, 75
4, 21487, Note_on_c, 1, 47, 0
4, 21600, Control_c, 1, 64, 0
4, 21600, Note_on_c, 1, 36, 75
4, 21645, Note_on_c, 1, 36, 0
4, 21744, Note_on_c, 1, 48, 65
4, 21759, Note_on_c, 1, 48, 0
4, 21760, Note_on_c, 1, 53, 65
4, 21775, Note_on_c, 1, 53, 0
4, 21776, Note_on_c, 1, 56, 65
4, 21791, Note_on_c, 1, 56, 0
4, 21792, Note_on_c, 1, 60, 65
4, 21807, Note_on_c, 1, 60, 0
4, 21808, Note_on_c, 1, 56, 65
4, 21823, Note_on_c, 1, 56, 0
4, 21824, Note_on_c, 1, 53, 65
4, 21839, Note_on_c, 1, 53, 0
4, 21840, Note_on_c, 1, 48, 65
4, 21855, Note_on_c, 1, 48, 0
4, 21856, Note_on_c, 1, 55, 65
4, 21871, Note_on_c, 1, 55, 0
4, 21872, Note_on_c, 1, 58, 65
4, 21887, Note_on_c, 1, 58, 0
4, 21888, Note_on_c, 1, 56, 65
4, 21888, Note_on_c, 1, 53, 65
4, 21933, Note_on_c, 1, 56, 0
4, 21933, Note_on_c, 1, 53, 0
4, 21984, Note_on_c, 1, 48, 65
4, 22029, Note_on_c, 1, 48, 0
4, 22032, Note_on_c, 1, 53, 65
4, 22077, Note_on_c, 1, 53, 0
4, 22128, Note_on_c, 1, 48, 65
4, 22173, Note_on_c, 1, 48, 0
4, 22176, Note_on_c, 1, 41, 65
4, 22191, Note_on_c, 1, 41, 0
4, 22192, Note_on_c, 1, 53, 65
4, 22207, Note_on_c, 1, 53, 0
4, 22208, Note_on_c, 1, 52, 65
4, 22223, Note_on_c, 1, 52, 0
4, 22224, Note_on_c, 1, 53, 65
4, 22239, Note_on_c, 1, 53, 0
4, 22240, Note_on_c, 1, 48, 65
4, 22255, Note_on_c, 1, 48, 0
4, 22256, Note_on_c, 1, 44, 65
4, 22271, Note_on_c, 1, 44, 0
4, 22272, Note_on_c, 1, 48, 65
4, 22287, Note_on_c, 1, 48, 0
4, 22288, Note_on_c, 1, 44, 65
4, 22303, Note_on_c, 1, 44, 0
4, 22304, Note_on_c, 1, 41, 65
4, 22319, Note_on_c, 1, 41, 0
4, 22320, Note_on_c, 1, 29, 65
4, 22365, Note_on_c, 1, 29, 0
4, 22464, Note_on_c, 1, 29, 0
4, 22509, Note_on_c, 1, 29, 0
4, 22512, End_track
5, 0, Start_track
5, 0, Program_c, 1, 0
5, 0, Control_c, 1, 7, 127
5, 0, Control_c, 1, 10, 64
5, 15696, Note_on_c, 1, 48, 64
5, 15829, Note_on_c, 1, 48, 0
5, 21168, Note_on_c, 1, 48, 64
5, 21301, Note_on_c, 1, 48, 0
5, 22464, End_track
6, 0, Start_track
6, 0, Title_t, "Piano Solo   <composer>  "
6, 0, End_track
0, 0, End_of_file
