0, 0, Header, 1, 6, 96
1, 0, Start_track
1, 0, Copyright_t, "Copyright  1994-2002 Mozart Music Software"
1, 0, Text_t, "Piano Solo\015\012"
1, 0, Text_t, "<composer>\015\012"
1, 0, Sequencer_specific, 16, 68, 87, 77, 90, 86, 82, 83, 78, 32, 55, 46, 48, 46, 55, 46, 48
1, 0, Time_signature, 4, 2, 24, 8
1, 0, Tempo, 779220
1, 0, Key_signature, -3, "major"
1, 31010, Tempo, 1764705
1, 31058, Tempo, 779220
1, 44836, Tempo, 1764705
1, 44884, Tempo, 779220
1, 49156, End_track
2, 0, Start_track
2, 0, Program_c, 0, 0
2, 0, Control_c, 0, 7, 127
2, 0, Control_c, 0, 10, 64
2, 0, Note_on_c, 0, 63, 75
2, 89, Note_on_c, 0, 63, 0
2, 96, Note_on_c, 0, 63, 75
2, 130, Note_on_c, 0, 63, 0
2, 132, Note_on_c, 0, 65, 75
2, 144, Note_on_c, 0, 65, 0
2, 144, Note_on_c, 0, 67, 75
2, 178, Note_on_c, 0, 67, 0
2, 180, Note_on_c, 0, 68, 75
2, 192, Note_on_c, 0, 68, 0
2, 192, Note_on_c, 0, 70, 75
2, 311, Note_on_c, 0, 70, 0
2, 312, Note_on_c, 0, 72, 77
2, 324, Note_on_c, 0, 72, 0
2, 324, Note_on_c, 0, 74, 77
2, 336, Note_on_c, 0, 74, 0
2, 336, Note_on_c, 0, 75, 78
2, 348, Note_on_c, 0, 75, 0
2, 348, Note_on_c, 0, 77, 78
2, 360, Note_on_c, 0, 77, 0
2, 360, Note_on_c, 0, 79, 78
2, 372, Note_on_c, 0, 79, 0
2, 372, Note_on_c, 0, 80, 78
2, 384, Note_on_c, 0, 80, 0
2, 384, Note_on_c, 0, 82, 95
2, 480, Note_on_c, 0, 82, 0
2, 480, Note_on_c, 0, 80, 75
2, 503, Note_on_c, 0, 80, 0
2, 504, Note_on_c, 0, 79, 75
2, 527, Note_on_c, 0, 79, 0
2, 528, Note_on_c, 0, 77, 75
2, 551, Note_on_c, 0, 77, 0
2, 552, Note_on_c, 0, 75, 75
2, 575, Note_on_c, 0, 75, 0
2, 576, Note_on_c, 0, 80, 75
2, 591, Note_on_c, 0, 80, 0
2, 592, Note_on_c, 0, 82, 81
2, 607, Note_on_c, 0, 82, 0
2, 608, Note_on_c, 0, 84, 80
2, 623, Note_on_c, 0, 84, 0
2, 624, Note_on_c, 0, 82, 79
2, 669, Note_on_c, 0, 82, 0
2, 672, Note_on_c, 0, 75, 75
2, 687, Note_on_c, 0, 75, 0
2, 688, Note_on_c, 0, 74, 75
2, 703, Note_on_c, 0, 74, 0
2, 704, Note_on_c, 0, 72, 75
2, 719, Note_on_c, 0, 72, 0
2, 720, Note_on_c, 0, 70, 75
2, 730, Note_on_c, 0, 70, 0
2, 744, Note_on_c, 0, 70, 75
2, 767, Note_on_c, 0, 70, 0
2, 768, Note_on_c, 0, 68, 75
2, 778, Note_on_c, 0, 68, 0
2, 778, Note_on_c, 0, 70, 75
2, 788, Note_on_c, 0, 70, 0
2, 788, Note_on_c, 0, 68, 75
2, 798, Note_on_c, 0, 68, 0
2, 798, Note_on_c, 0, 67, 75
2, 807, Note_on_c, 0, 67, 0
2, 807, Note_on_c, 0, 68, 75
2, 816, Note_on_c, 0, 68, 0
2, 816, Note_on_c, 0, 67, 75
2, 861, Note_on_c, 0, 67, 0
2, 864, Note_on_c, 0, 75, 75
2, 879, Note_on_c, 0, 75, 0
2, 880, Note_on_c, 0, 74, 75
2, 895, Note_on_c, 0, 74, 0
2, 896, Note_on_c, 0, 72, 75
2, 911, Note_on_c, 0, 72, 0
2, 912, Note_on_c, 0, 70, 75
2, 922, Note_on_c, 0, 70, 0
2, 936, Note_on_c, 0, 82, 75
2, 959, Note_on_c, 0, 82, 0
2, 960, Note_on_c, 0, 80, 75
2, 970, Note_on_c, 0, 80, 0
2, 970, Note_on_c, 0, 82, 75
2, 980, Note_on_c, 0, 82, 0
2, 980, Note_on_c, 0, 80, 75
2, 990, Note_on_c, 0, 80, 0
2, 990, Note_on_c, 0, 79, 75
2, 999, Note_on_c, 0, 79, 0
2, 999, Note_on_c, 0, 80, 75
2, 1008, Note_on_c, 0, 80, 0
2, 1008, Note_on_c, 0, 79, 75
2, 1053, Note_on_c, 0, 79, 0
2, 1056, Note_on_c, 0, 79, 75
2, 1090, Note_on_c, 0, 79, 0
2, 1092, Note_on_c, 0, 77, 75
2, 1104, Note_on_c, 0, 77, 0
2, 1104, Note_on_c, 0, 84, 75
2, 1138, Note_on_c, 0, 84, 0
2, 1140, Note_on_c, 0, 75, 75
2, 1152, Note_on_c, 0, 75, 0
2, 1152, Note_on_c, 0, 75, 75
2, 1200, Note_on_c, 0, 75, 0
2, 1200, Note_on_c, 0, 74, 75
2, 1245, Note_on_c, 0, 74, 0
2, 1248, Note_on_c, 0, 58, 75
2, 1282, Note_on_c, 0, 58, 0
2, 1284, Note_on_c, 0, 60, 75
2, 1296, Note_on_c, 0, 60, 0
2, 1296, Note_on_c, 0, 62, 75
2, 1330, Note_on_c, 0, 62, 0
2, 1332, Note_on_c, 0, 63, 75
2, 1344, Note_on_c, 0, 63, 0
2, 1344, Note_on_c, 0, 65, 75
2, 1463, Note_on_c, 0, 65, 0
2, 1464, Note_on_c, 0, 67, 75
2, 1476, Note_on_c, 0, 67, 0
2, 1476, Note_on_c, 0, 69, 76
2, 1488, Note_on_c, 0, 69, 0
2, 1488, Note_on_c, 0, 70, 76
2, 1500, Note_on_c, 0, 70, 0
2, 1500, Note_on_c, 0, 72, 76
2, 1512, Note_on_c, 0, 72, 0
2, 1512, Note_on_c, 0, 74, 77
2, 1524, Note_on_c, 0, 74, 0
2, 1524, Note_on_c, 0, 75, 77
2, 1536, Note_on_c, 0, 75, 0
2, 1536, Note_on_c, 0, 77, 94
2, 1632, Note_on_c, 0, 77, 0
2, 1632, Note_on_c, 0, 75, 75
2, 1655, Note_on_c, 0, 75, 0
2, 1656, Note_on_c, 0, 74, 75
2, 1679, Note_on_c, 0, 74, 0
2, 1680, Note_on_c, 0, 72, 75
2, 1703, Note_on_c, 0, 72, 0
2, 1704, Note_on_c, 0, 70, 75
2, 1727, Note_on_c, 0, 70, 0
2, 1728, Note_on_c, 0, 75, 75
2, 1743, Note_on_c, 0, 75, 0
2, 1744, Note_on_c, 0, 77, 77
2, 1759, Note_on_c, 0, 77, 0
2, 1760, Note_on_c, 0, 79, 79
2, 1775, Note_on_c, 0, 79, 0
2, 1776, Note_on_c, 0, 77, 80
2, 1821, Note_on_c, 0, 77, 0
2, 1824, Note_on_c, 0, 82, 75
2, 1839, Note_on_c, 0, 82, 0
2, 1840, Note_on_c, 0, 81, 75
2, 1855, Note_on_c, 0, 81, 0
2, 1856, Note_on_c, 0, 79, 75
2, 1871, Note_on_c, 0, 79, 0
2, 1872, Note_on_c, 0, 77, 75
2, 1882, Note_on_c, 0, 77, 0
2, 1896, Note_on_c, 0, 77, 75
2, 1919, Note_on_c, 0, 77, 0
2, 1920, Note_on_c, 0, 75, 75
2, 1930, Note_on_c, 0, 75, 0
2, 1930, Note_on_c, 0, 77, 75
2, 1940, Note_on_c, 0, 77, 0
2, 1940, Note_on_c, 0, 75, 75
2, 1950, Note_on_c, 0, 75, 0
2, 1950, Note_on_c, 0, 74, 75
2, 1959, Note_on_c, 0, 74, 0
2, 1959, Note_on_c, 0, 75, 75
2, 1968, Note_on_c, 0, 75, 0
2, 1968, Note_on_c, 0, 74, 75
2, 2013, Note_on_c, 0, 74, 0
2, 2016, Note_on_c, 0, 82, 75
2, 2031, Note_on_c, 0, 82, 0
2, 2032, Note_on_c, 0, 81, 75
2, 2047, Note_on_c, 0, 81, 0
2, 2048, Note_on_c, 0, 79, 75
2, 2063, Note_on_c, 0, 79, 0
2, 2064, Note_on_c, 0, 77, 75
2, 2074, Note_on_c, 0, 77, 0
2, 2088, Note_on_c, 0, 77, 75
2, 2111, Note_on_c, 0, 77, 0
2, 2112, Note_on_c, 0, 75, 75
2, 2122, Note_on_c, 0, 75, 0
2, 2122, Note_on_c, 0, 77, 75
2, 2132, Note_on_c, 0, 77, 0
2, 2132, Note_on_c, 0, 75, 75
2, 2142, Note_on_c, 0, 75, 0
2, 2142, Note_on_c, 0, 74, 75
2, 2151, Note_on_c, 0, 74, 0
2, 2151, Note_on_c, 0, 75, 75
2, 2160, Note_on_c, 0, 75, 0
2, 2160, Note_on_c, 0, 74, 75
2, 2205, Note_on_c, 0, 74, 0
2, 2208, Note_on_c, 0, 77, 75
2, 2223, Note_on_c, 0, 77, 0
2, 2224, Note_on_c, 0, 75, 75
2, 2239, Note_on_c, 0, 75, 0
2, 2240, Note_on_c, 0, 74, 75
2, 2255, Note_on_c, 0, 74, 0
2, 2256, Note_on_c, 0, 72, 75
2, 2271, Note_on_c, 0, 72, 0
2, 2272, Note_on_c, 0, 70, 75
2, 2287, Note_on_c, 0, 70, 0
2, 2288, Note_on_c, 0, 68, 75
2, 2303, Note_on_c, 0, 68, 0
2, 2304, Note_on_c, 0, 67, 75
2, 2322, Note_on_c, 0, 67, 0
2, 2322, Note_on_c, 0, 75, 75
2, 2393, Note_on_c, 0, 75, 0
2, 2400, Note_on_c, 0, 75, 75
2, 2434, Note_on_c, 0, 75, 0
2, 2436, Note_on_c, 0, 77, 75
2, 2448, Note_on_c, 0, 77, 0
2, 2448, Note_on_c, 0, 79, 75
2, 2482, Note_on_c, 0, 79, 0
2, 2484, Note_on_c, 0, 80, 75
2, 2496, Note_on_c, 0, 80, 0
2, 2496, Note_on_c, 0, 82, 91
2, 2592, Note_on_c, 0, 82, 0
2, 2592, Note_on_c, 0, 80, 75
2, 2615, Note_on_c, 0, 80, 0
2, 2616, Note_on_c, 0, 79, 75
2, 2639, Note_on_c, 0, 79, 0
2, 2640, Note_on_c, 0, 77, 75
2, 2663, Note_on_c, 0, 77, 0
2, 2664, Note_on_c, 0, 75, 75
2, 2687, Note_on_c, 0, 75, 0
2, 2688, Note_on_c, 0, 74, 75
2, 2711, Note_on_c, 0, 74, 0
2, 2712, Note_on_c, 0, 72, 75
2, 2735, Note_on_c, 0, 72, 0
2, 2736, Note_on_c, 0, 72, 75
2, 2829, Note_on_c, 0, 72, 0
2, 2832, Note_on_c, 0, 75, 75
2, 2855, Note_on_c, 0, 75, 0
2, 2856, Note_on_c, 0, 72, 75
2, 2879, Note_on_c, 0, 72, 0
2, 2880, Note_on_c, 0, 72, 75
2, 2903, Note_on_c, 0, 72, 0
2, 2904, Note_on_c, 0, 70, 75
2, 2927, Note_on_c, 0, 70, 0
2, 2928, Note_on_c, 0, 70, 75
2, 2999, Note_on_c, 0, 70, 0
2, 3000, Note_on_c, 0, 75, 75
2, 3023, Note_on_c, 0, 75, 0
2, 3024, Note_on_c, 0, 79, 75
2, 3047, Note_on_c, 0, 79, 0
2, 3048, Note_on_c, 0, 75, 75
2, 3071, Note_on_c, 0, 75, 0
2, 3072, Note_on_c, 0, 74, 75
2, 3078, Note_on_c, 0, 74, 0
2, 3078, Note_on_c, 0, 75, 75
2, 3084, Note_on_c, 0, 75, 0
2, 3084, Note_on_c, 0, 74, 75
2, 3095, Note_on_c, 0, 74, 0
2, 3096, Note_on_c, 0, 72, 75
2, 3119, Note_on_c, 0, 72, 0
2, 3120, Note_on_c, 0, 72, 75
2, 3191, Note_on_c, 0, 72, 0
2, 3192, Note_on_c, 0, 75, 75
2, 3204, Note_on_c, 0, 75, 0
2, 3204, Note_on_c, 0, 74, 75
2, 3216, Note_on_c, 0, 74, 0
2, 3216, Note_on_c, 0, 77, 75
2, 3228, Note_on_c, 0, 77, 0
2, 3228, Note_on_c, 0, 75, 75
2, 3240, Note_on_c, 0, 75, 0
2, 3240, Note_on_c, 0, 74, 75
2, 3252, Note_on_c, 0, 74, 0
2, 3252, Note_on_c, 0, 72, 75
2, 3264, Note_on_c, 0, 72, 0
2, 3264, Note_on_c, 0, 72, 91
2, 3288, Note_on_c, 0, 72, 0
2, 3288, Note_on_c, 0, 70, 75
2, 3311, Note_on_c, 0, 70, 0
2, 3312, Note_on_c, 0, 70, 75
2, 3394, Note_on_c, 0, 70, 0
2, 3396, Note_on_c, 0, 75, 75
2, 3408, Note_on_c, 0, 75, 0
2, 3408, Note_on_c, 0, 75, 75
2, 3442, Note_on_c, 0, 75, 0
2, 3444, Note_on_c, 0, 75, 75
2, 3456, Note_on_c, 0, 75, 0
2, 3456, Note_on_c, 0, 75, 75
2, 3490, Note_on_c, 0, 75, 0
2, 3492, Note_on_c, 0, 65, 75
2, 3504, Note_on_c, 0, 65, 0
2, 3504, Note_on_c, 0, 65, 75
2, 3586, Note_on_c, 0, 65, 0
2, 3588, Note_on_c, 0, 72, 75
2, 3600, Note_on_c, 0, 72, 0
2, 3600, Note_on_c, 0, 70, 75
2, 3634, Note_on_c, 0, 70, 0
2, 3636, Note_on_c, 0, 68, 75
2, 3648, Note_on_c, 0, 68, 0
2, 3648, Note_on_c, 0, 70, 75
2, 3654, Note_on_c, 0, 70, 0
2, 3654, Note_on_c, 0, 68, 75
2, 3660, Note_on_c, 0, 68, 0
2, 3660, Note_on_c, 0, 67, 75
2, 3666, Note_on_c, 0, 67, 0
2, 3666, Note_on_c, 0, 68, 75
2, 3682, Note_on_c, 0, 68, 0
2, 3684, Note_on_c, 0, 67, 75
2, 3696, Note_on_c, 0, 67, 0
2, 3696, Note_on_c, 0, 67, 75
2, 3778, Note_on_c, 0, 67, 0
2, 3780, Note_on_c, 0, 75, 75
2, 3792, Note_on_c, 0, 75, 0
2, 3792, Note_on_c, 0, 75, 75
2, 3826, Note_on_c, 0, 75, 0
2, 3828, Note_on_c, 0, 75, 75
2, 3840, Note_on_c, 0, 75, 0
2, 3840, Note_on_c, 0, 75, 75
2, 3874, Note_on_c, 0, 75, 0
2, 3876, Note_on_c, 0, 65, 75
2, 3888, Note_on_c, 0, 65, 0
2, 3888, Note_on_c, 0, 65, 75
2, 3981, Note_on_c, 0, 65, 0
2, 3984, Note_on_c, 0, 68, 75
2, 3999, Note_on_c, 0, 68, 0
2, 4000, Note_on_c, 0, 65, 74
2, 4015, Note_on_c, 0, 65, 0
2, 4016, Note_on_c, 0, 62, 74
2, 4031, Note_on_c, 0, 62, 0
2, 4032, Note_on_c, 0, 63, 74
2, 4077, Note_on_c, 0, 63, 0
2, 4080, Note_on_c, 0, 68, 73
2, 4095, Note_on_c, 0, 68, 0
2, 4096, Note_on_c, 0, 65, 73
2, 4111, Note_on_c, 0, 65, 0
2, 4112, Note_on_c, 0, 62, 72
2, 4127, Note_on_c, 0, 62, 0
2, 4128, Note_on_c, 0, 63, 72
2, 4173, Note_on_c, 0, 63, 0
2, 4176, Note_on_c, 0, 68, 71
2, 4191, Note_on_c, 0, 68, 0
2, 4192, Note_on_c, 0, 65, 71
2, 4207, Note_on_c, 0, 65, 0
2, 4208, Note_on_c, 0, 62, 71
2, 4223, Note_on_c, 0, 62, 0
2, 4224, Note_on_c, 0, 63, 70
2, 4313, Note_on_c, 0, 63, 0
2, 4392, Note_on_c, 0, 82, 70
2, 4402, Note_on_c, 0, 82, 0
2, 4416, Note_on_c, 0, 78, 70
2, 4440, Note_on_c, 0, 78, 0
2, 4440, Note_on_c, 0, 79, 70
2, 4463, Note_on_c, 0, 79, 0
2, 4488, Note_on_c, 0, 82, 70
2, 4498, Note_on_c, 0, 82, 0
2, 4512, Note_on_c, 0, 76, 70
2, 4536, Note_on_c, 0, 76, 0
2, 4536, Note_on_c, 0, 77, 70
2, 4559, Note_on_c, 0, 77, 0
2, 4584, Note_on_c, 0, 82, 70
2, 4594, Note_on_c, 0, 82, 0
2, 4608, Note_on_c, 0, 77, 70
2, 4658, Note_on_c, 0, 77, 0
2, 4658, Note_on_c, 0, 75, 70
2, 4668, Note_on_c, 0, 75, 0
2, 4668, Note_on_c, 0, 77, 70
2, 4677, Note_on_c, 0, 77, 0
2, 4677, Note_on_c, 0, 75, 70
2, 4686, Note_on_c, 0, 75, 0
2, 4686, Note_on_c, 0, 74, 70
2, 4695, Note_on_c, 0, 74, 0
2, 4695, Note_on_c, 0, 75, 70
2, 4704, Note_on_c, 0, 75, 0
2, 4704, Note_on_c, 0, 74, 70
2, 4771, Note_on_c, 0, 74, 0
2, 4776, Note_on_c, 0, 82, 70
2, 4799, Note_on_c, 0, 82, 0
2, 4800, Note_on_c, 0, 78, 70
2, 4812, Note_on_c, 0, 78, 0
2, 4812, Note_on_c, 0, 79, 70
2, 4824, Note_on_c, 0, 79, 0
2, 4824, Note_on_c, 0, 78, 70
2, 4836, Note_on_c, 0, 78, 0
2, 4836, Note_on_c, 0, 79, 70
2, 4848, Note_on_c, 0, 79, 0
2, 4872, Note_on_c, 0, 82, 70
2, 4895, Note_on_c, 0, 82, 0
2, 4896, Note_on_c, 0, 76, 70
2, 4908, Note_on_c, 0, 76, 0
2, 4908, Note_on_c, 0, 77, 70
2, 4920, Note_on_c, 0, 77, 0
2, 4920, Note_on_c, 0, 76, 70
2, 4932, Note_on_c, 0, 76, 0
2, 4932, Note_on_c, 0, 77, 70
2, 4944, Note_on_c, 0, 77, 0
2, 4956, Note_on_c, 0, 82, 70
2, 4968, Note_on_c, 0, 82, 0
2, 4968, Note_on_c, 0, 81, 70
2, 4980, Note_on_c, 0, 81, 0
2, 4980, Note_on_c, 0, 79, 70
2, 4992, Note_on_c, 0, 79, 0
2, 4992, Note_on_c, 0, 77, 70
2, 5042, Note_on_c, 0, 77, 0
2, 5042, Note_on_c, 0, 75, 70
2, 5052, Note_on_c, 0, 75, 0
2, 5052, Note_on_c, 0, 77, 70
2, 5061, Note_on_c, 0, 77, 0
2, 5061, Note_on_c, 0, 75, 70
2, 5070, Note_on_c, 0, 75, 0
2, 5070, Note_on_c, 0, 74, 70
2, 5079, Note_on_c, 0, 74, 0
2, 5079, Note_on_c, 0, 75, 70
2, 5088, Note_on_c, 0, 75, 0
2, 5088, Note_on_c, 0, 74, 70
2, 5177, Note_on_c, 0, 74, 0
2, 5184, Note_on_c, 0, 74, 70
2, 5207, Note_on_c, 0, 74, 0
2, 5208, Note_on_c, 0, 72, 70
2, 5231, Note_on_c, 0, 72, 0
2, 5232, Note_on_c, 0, 72, 70
2, 5347, Note_on_c, 0, 72, 0
2, 5352, Note_on_c, 0, 79, 73
2, 5364, Note_on_c, 0, 79, 0
2, 5364, Note_on_c, 0, 75, 73
2, 5376, Note_on_c, 0, 75, 0
2, 5376, Note_on_c, 0, 74, 73
2, 5399, Note_on_c, 0, 74, 0
2, 5400, Note_on_c, 0, 72, 74
2, 5423, Note_on_c, 0, 72, 0
2, 5424, Note_on_c, 0, 72, 74
2, 5539, Note_on_c, 0, 72, 0
2, 5544, Note_on_c, 0, 79, 76
2, 5556, Note_on_c, 0, 79, 0
2, 5556, Note_on_c, 0, 76, 77
2, 5568, Note_on_c, 0, 76, 0
2, 5568, Note_on_c, 0, 72, 77
2, 5657, Note_on_c, 0, 72, 0
2, 5664, Note_on_c, 0, 72, 79
2, 5674, Note_on_c, 0, 72, 0
2, 5674, Note_on_c, 0, 70, 79
2, 5684, Note_on_c, 0, 70, 0
2, 5684, Note_on_c, 0, 72, 79
2, 5694, Note_on_c, 0, 72, 0
2, 5694, Note_on_c, 0, 70, 79
2, 5704, Note_on_c, 0, 70, 0
2, 5704, Note_on_c, 0, 72, 79
2, 5714, Note_on_c, 0, 72, 0
2, 5714, Note_on_c, 0, 70, 79
2, 5724, Note_on_c, 0, 70, 0
2, 5724, Note_on_c, 0, 72, 79
2, 5733, Note_on_c, 0, 72, 0
2, 5733, Note_on_c, 0, 70, 79
2, 5742, Note_on_c, 0, 70, 0
2, 5742, Note_on_c, 0, 69, 80
2, 5751, Note_on_c, 0, 69, 0
2, 5751, Note_on_c, 0, 70, 80
2, 5760, Note_on_c, 0, 70, 0
2, 5760, Note_on_c, 0, 69, 81
2, 5783, Note_on_c, 0, 69, 0
2, 5784, Note_on_c, 0, 77, 81
2, 5807, Note_on_c, 0, 77, 0
2, 5832, Note_on_c, 0, 77, 81
2, 5842, Note_on_c, 0, 77, 0
2, 5856, Note_on_c, 0, 75, 81
2, 5866, Note_on_c, 0, 75, 0
2, 5866, Note_on_c, 0, 73, 81
2, 5876, Note_on_c, 0, 73, 0
2, 5876, Note_on_c, 0, 75, 81
2, 5886, Note_on_c, 0, 75, 0
2, 5886, Note_on_c, 0, 73, 81
2, 5896, Note_on_c, 0, 73, 0
2, 5896, Note_on_c, 0, 75, 81
2, 5906, Note_on_c, 0, 75, 0
2, 5906, Note_on_c, 0, 73, 81
2, 5916, Note_on_c, 0, 73, 0
2, 5916, Note_on_c, 0, 75, 81
2, 5925, Note_on_c, 0, 75, 0
2, 5925, Note_on_c, 0, 73, 81
2, 5934, Note_on_c, 0, 73, 0
2, 5934, Note_on_c, 0, 72, 81
2, 5943, Note_on_c, 0, 72, 0
2, 5943, Note_on_c, 0, 73, 81
2, 5952, Note_on_c, 0, 73, 0
2, 5952, Note_on_c, 0, 72, 81
2, 5975, Note_on_c, 0, 72, 0
2, 5976, Note_on_c, 0, 77, 81
2, 5999, Note_on_c, 0, 77, 0
2, 6024, Note_on_c, 0, 77, 81
2, 6034, Note_on_c, 0, 77, 0
2, 6048, Note_on_c, 0, 75, 81
2, 6058, Note_on_c, 0, 75, 0
2, 6058, Note_on_c, 0, 73, 81
2, 6068, Note_on_c, 0, 73, 0
2, 6068, Note_on_c, 0, 75, 81
2, 6078, Note_on_c, 0, 75, 0
2, 6078, Note_on_c, 0, 73, 81
2, 6088, Note_on_c, 0, 73, 0
2, 6088, Note_on_c, 0, 75, 81
2, 6098, Note_on_c, 0, 75, 0
2, 6098, Note_on_c, 0, 73, 81
2, 6108, Note_on_c, 0, 73, 0
2, 6108, Note_on_c, 0, 75, 81
2, 6117, Note_on_c, 0, 75, 0
2, 6117, Note_on_c, 0, 73, 81
2, 6126, Note_on_c, 0, 73, 0
2, 6126, Note_on_c, 0, 72, 81
2, 6135, Note_on_c, 0, 72, 0
2, 6135, Note_on_c, 0, 73, 81
2, 6144, Note_on_c, 0, 73, 0
2, 6144, Note_on_c, 0, 72, 81
2, 6167, Note_on_c, 0, 72, 0
2, 6168, Note_on_c, 0, 77, 81
2, 6191, Note_on_c, 0, 77, 0
2, 6216, Note_on_c, 0, 77, 81
2, 6226, Note_on_c, 0, 77, 0
2, 6240, Note_on_c, 0, 75, 81
2, 6250, Note_on_c, 0, 75, 0
2, 6250, Note_on_c, 0, 73, 81
2, 6260, Note_on_c, 0, 73, 0
2, 6260, Note_on_c, 0, 75, 81
2, 6270, Note_on_c, 0, 75, 0
2, 6270, Note_on_c, 0, 73, 81
2, 6280, Note_on_c, 0, 73, 0
2, 6280, Note_on_c, 0, 75, 81
2, 6290, Note_on_c, 0, 75, 0
2, 6290, Note_on_c, 0, 73, 81
2, 6300, Note_on_c, 0, 73, 0
2, 6300, Note_on_c, 0, 75, 81
2, 6309, Note_on_c, 0, 75, 0
2, 6309, Note_on_c, 0, 73, 81
2, 6318, Note_on_c, 0, 73, 0
2, 6318, Note_on_c, 0, 72, 81
2, 6327, Note_on_c, 0, 72, 0
2, 6327, Note_on_c, 0, 73, 81
2, 6336, Note_on_c, 0, 73, 0
2, 6336, Note_on_c, 0, 72, 81
2, 6425, Note_on_c, 0, 72, 0
2, 6480, Note_on_c, 0, 70, 75
2, 6503, Note_on_c, 0, 70, 0
2, 6504, Note_on_c, 0, 70, 75
2, 6527, Note_on_c, 0, 70, 0
2, 6528, Note_on_c, 0, 70, 75
2, 6534, Note_on_c, 0, 70, 0
2, 6534, Note_on_c, 0, 72, 75
2, 6540, Note_on_c, 0, 72, 0
2, 6540, Note_on_c, 0, 70, 75
2, 6551, Note_on_c, 0, 70, 0
2, 6552, Note_on_c, 0, 69, 75
2, 6575, Note_on_c, 0, 69, 0
2, 6576, Note_on_c, 0, 75, 75
2, 6599, Note_on_c, 0, 75, 0
2, 6600, Note_on_c, 0, 75, 75
2, 6623, Note_on_c, 0, 75, 0
2, 6624, Note_on_c, 0, 75, 75
2, 6630, Note_on_c, 0, 75, 0
2, 6630, Note_on_c, 0, 77, 75
2, 6636, Note_on_c, 0, 77, 0
2, 6636, Note_on_c, 0, 75, 75
2, 6647, Note_on_c, 0, 75, 0
2, 6648, Note_on_c, 0, 74, 75
2, 6671, Note_on_c, 0, 74, 0
2, 6672, Note_on_c, 0, 79, 75
2, 6695, Note_on_c, 0, 79, 0
2, 6696, Note_on_c, 0, 79, 75
2, 6719, Note_on_c, 0, 79, 0
2, 6720, Note_on_c, 0, 79, 75
2, 6726, Note_on_c, 0, 79, 0
2, 6726, Note_on_c, 0, 81, 75
2, 6732, Note_on_c, 0, 81, 0
2, 6732, Note_on_c, 0, 79, 75
2, 6743, Note_on_c, 0, 79, 0
2, 6744, Note_on_c, 0, 77, 75
2, 6767, Note_on_c, 0, 77, 0
2, 6768, Note_on_c, 0, 77, 75
2, 6791, Note_on_c, 0, 77, 0
2, 6792, Note_on_c, 0, 75, 75
2, 6815, Note_on_c, 0, 75, 0
2, 6816, Note_on_c, 0, 77, 75
2, 6826, Note_on_c, 0, 77, 0
2, 6826, Note_on_c, 0, 75, 75
2, 6836, Note_on_c, 0, 75, 0
2, 6836, Note_on_c, 0, 77, 75
2, 6846, Note_on_c, 0, 77, 0
2, 6846, Note_on_c, 0, 75, 75
2, 6856, Note_on_c, 0, 75, 0
2, 6856, Note_on_c, 0, 77, 75
2, 6866, Note_on_c, 0, 77, 0
2, 6866, Note_on_c, 0, 75, 75
2, 6876, Note_on_c, 0, 75, 0
2, 6876, Note_on_c, 0, 77, 75
2, 6885, Note_on_c, 0, 77, 0
2, 6885, Note_on_c, 0, 75, 75
2, 6894, Note_on_c, 0, 75, 0
2, 6894, Note_on_c, 0, 74, 75
2, 6903, Note_on_c, 0, 74, 0
2, 6903, Note_on_c, 0, 72, 75
2, 6912, Note_on_c, 0, 72, 0
2, 6912, Note_on_c, 0, 74, 75
2, 6927, Note_on_c, 0, 74, 0
2, 6928, Note_on_c, 0, 86, 75
2, 6943, Note_on_c, 0, 86, 0
2, 6944, Note_on_c, 0, 82, 75
2, 6959, Note_on_c, 0, 82, 0
2, 6960, Note_on_c, 0, 81, 75
2, 6975, Note_on_c, 0, 81, 0
2, 6976, Note_on_c, 0, 79, 75
2, 6991, Note_on_c, 0, 79, 0
2, 6992, Note_on_c, 0, 77, 75
2, 7007, Note_on_c, 0, 77, 0
2, 7008, Note_on_c, 0, 86, 75
2, 7018, Note_on_c, 0, 86, 0
2, 7018, Note_on_c, 0, 84, 75
2, 7028, Note_on_c, 0, 84, 0
2, 7028, Note_on_c, 0, 86, 75
2, 7038, Note_on_c, 0, 86, 0
2, 7038, Note_on_c, 0, 84, 75
2, 7048, Note_on_c, 0, 84, 0
2, 7048, Note_on_c, 0, 86, 75
2, 7058, Note_on_c, 0, 86, 0
2, 7058, Note_on_c, 0, 84, 75
2, 7068, Note_on_c, 0, 84, 0
2, 7068, Note_on_c, 0, 86, 75
2, 7077, Note_on_c, 0, 86, 0
2, 7077, Note_on_c, 0, 84, 75
2, 7086, Note_on_c, 0, 84, 0
2, 7086, Note_on_c, 0, 82, 75
2, 7095, Note_on_c, 0, 82, 0
2, 7095, Note_on_c, 0, 84, 75
2, 7104, Note_on_c, 0, 84, 0
2, 7104, Note_on_c, 0, 82, 75
2, 7149, Note_on_c, 0, 82, 0
2, 7152, Note_on_c, 0, 79, 76
2, 7162, Note_on_c, 0, 79, 0
2, 7162, Note_on_c, 0, 77, 76
2, 7172, Note_on_c, 0, 77, 0
2, 7172, Note_on_c, 0, 79, 76
2, 7182, Note_on_c, 0, 79, 0
2, 7182, Note_on_c, 0, 77, 76
2, 7192, Note_on_c, 0, 77, 0
2, 7192, Note_on_c, 0, 79, 76
2, 7202, Note_on_c, 0, 79, 0
2, 7202, Note_on_c, 0, 77, 76
2, 7212, Note_on_c, 0, 77, 0
2, 7212, Note_on_c, 0, 79, 76
2, 7221, Note_on_c, 0, 79, 0
2, 7221, Note_on_c, 0, 77, 77
2, 7230, Note_on_c, 0, 77, 0
2, 7230, Note_on_c, 0, 79, 77
2, 7239, Note_on_c, 0, 79, 0
2, 7239, Note_on_c, 0, 77, 77
2, 7248, Note_on_c, 0, 77, 0
2, 7248, Note_on_c, 0, 79, 77
2, 7258, Note_on_c, 0, 79, 0
2, 7258, Note_on_c, 0, 77, 77
2, 7268, Note_on_c, 0, 77, 0
2, 7268, Note_on_c, 0, 79, 77
2, 7278, Note_on_c, 0, 79, 0
2, 7278, Note_on_c, 0, 77, 77
2, 7287, Note_on_c, 0, 77, 0
2, 7287, Note_on_c, 0, 79, 78
2, 7296, Note_on_c, 0, 79, 0
2, 7296, Note_on_c, 0, 77, 78
2, 7363, Note_on_c, 0, 77, 0
2, 7368, Note_on_c, 0, 81, 81
2, 7380, Note_on_c, 0, 81, 0
2, 7380, Note_on_c, 0, 82, 80
2, 7392, Note_on_c, 0, 82, 0
2, 7392, Note_on_c, 0, 84, 80
2, 7407, Note_on_c, 0, 84, 0
2, 7408, Note_on_c, 0, 82, 79
2, 7423, Note_on_c, 0, 82, 0
2, 7424, Note_on_c, 0, 81, 79
2, 7439, Note_on_c, 0, 81, 0
2, 7440, Note_on_c, 0, 79, 78
2, 7455, Note_on_c, 0, 79, 0
2, 7456, Note_on_c, 0, 77, 78
2, 7471, Note_on_c, 0, 77, 0
2, 7472, Note_on_c, 0, 75, 78
2, 7487, Note_on_c, 0, 75, 0
2, 7488, Note_on_c, 0, 74, 77
2, 7533, Note_on_c, 0, 74, 0
2, 7536, Note_on_c, 0, 79, 75
2, 7546, Note_on_c, 0, 79, 0
2, 7546, Note_on_c, 0, 77, 75
2, 7556, Note_on_c, 0, 77, 0
2, 7556, Note_on_c, 0, 79, 75
2, 7566, Note_on_c, 0, 79, 0
2, 7566, Note_on_c, 0, 77, 75
2, 7576, Note_on_c, 0, 77, 0
2, 7576, Note_on_c, 0, 79, 75
2, 7586, Note_on_c, 0, 79, 0
2, 7586, Note_on_c, 0, 77, 75
2, 7596, Note_on_c, 0, 77, 0
2, 7596, Note_on_c, 0, 79, 76
2, 7605, Note_on_c, 0, 79, 0
2, 7605, Note_on_c, 0, 77, 76
2, 7614, Note_on_c, 0, 77, 0
2, 7614, Note_on_c, 0, 79, 76
2, 7623, Note_on_c, 0, 79, 0
2, 7623, Note_on_c, 0, 77, 76
2, 7632, Note_on_c, 0, 77, 0
2, 7632, Note_on_c, 0, 79, 76
2, 7642, Note_on_c, 0, 79, 0
2, 7642, Note_on_c, 0, 77, 76
2, 7652, Note_on_c, 0, 77, 0
2, 7652, Note_on_c, 0, 79, 77
2, 7662, Note_on_c, 0, 79, 0
2, 7662, Note_on_c, 0, 77, 77
2, 7671, Note_on_c, 0, 77, 0
2, 7671, Note_on_c, 0, 79, 77
2, 7680, Note_on_c, 0, 79, 0
2, 7680, Note_on_c, 0, 77, 77
2, 7747, Note_on_c, 0, 77, 0
2, 7752, Note_on_c, 0, 81, 81
2, 7764, Note_on_c, 0, 81, 0
2, 7764, Note_on_c, 0, 82, 81
2, 7776, Note_on_c, 0, 82, 0
2, 7776, Note_on_c, 0, 84, 81
2, 7791, Note_on_c, 0, 84, 0
2, 7792, Note_on_c, 0, 82, 80
2, 7807, Note_on_c, 0, 82, 0
2, 7808, Note_on_c, 0, 81, 79
2, 7823, Note_on_c, 0, 81, 0
2, 7824, Note_on_c, 0, 79, 78
2, 7839, Note_on_c, 0, 79, 0
2, 7840, Note_on_c, 0, 77, 78
2, 7855, Note_on_c, 0, 77, 0
2, 7856, Note_on_c, 0, 75, 77
2, 7871, Note_on_c, 0, 75, 0
2, 7872, Note_on_c, 0, 74, 75
2, 7917, Note_on_c, 0, 74, 0
2, 7920, Note_on_c, 0, 77, 75
2, 7935, Note_on_c, 0, 77, 0
2, 7936, Note_on_c, 0, 79, 75
2, 7951, Note_on_c, 0, 79, 0
2, 7952, Note_on_c, 0, 77, 75
2, 7967, Note_on_c, 0, 77, 0
2, 7968, Note_on_c, 0, 82, 75
2, 7983, Note_on_c, 0, 82, 0
2, 7984, Note_on_c, 0, 81, 75
2, 7999, Note_on_c, 0, 81, 0
2, 8000, Note_on_c, 0, 79, 75
2, 8015, Note_on_c, 0, 79, 0
2, 8016, Note_on_c, 0, 77, 75
2, 8031, Note_on_c, 0, 77, 0
2, 8032, Note_on_c, 0, 75, 75
2, 8047, Note_on_c, 0, 75, 0
2, 8048, Note_on_c, 0, 74, 75
2, 8063, Note_on_c, 0, 74, 0
2, 8064, Note_on_c, 0, 72, 75
2, 8079, Note_on_c, 0, 72, 0
2, 8080, Note_on_c, 0, 78, 75
2, 8096, Note_on_c, 0, 78, 0
2, 8096, Note_on_c, 0, 79, 75
2, 8111, Note_on_c, 0, 79, 0
2, 8112, Note_on_c, 0, 77, 75
2, 8124, Note_on_c, 0, 77, 0
2, 8124, Note_on_c, 0, 75, 75
2, 8136, Note_on_c, 0, 75, 0
2, 8136, Note_on_c, 0, 74, 75
2, 8148, Note_on_c, 0, 74, 0
2, 8148, Note_on_c, 0, 72, 75
2, 8160, Note_on_c, 0, 72, 0
2, 8160, Note_on_c, 0, 70, 75
2, 8205, Note_on_c, 0, 70, 0
2, 8208, Note_on_c, 0, 69, 75
2, 8218, Note_on_c, 0, 69, 0
2, 8218, Note_on_c, 0, 70, 75
2, 8228, Note_on_c, 0, 70, 0
2, 8228, Note_on_c, 0, 69, 75
2, 8238, Note_on_c, 0, 69, 0
2, 8238, Note_on_c, 0, 67, 75
2, 8247, Note_on_c, 0, 67, 0
2, 8247, Note_on_c, 0, 69, 75
2, 8256, Note_on_c, 0, 69, 0
2, 8256, Note_on_c, 0, 70, 75
2, 8301, Note_on_c, 0, 70, 0
2, 8304, Note_on_c, 0, 77, 70
2, 8304, Note_on_c, 0, 74, 70
2, 8349, Note_on_c, 0, 77, 0
2, 8349, Note_on_c, 0, 74, 0
2, 8352, Note_on_c, 0, 77, 70
2, 8352, Note_on_c, 0, 74, 70
2, 8397, Note_on_c, 0, 77, 0
2, 8397, Note_on_c, 0, 74, 0
2, 8400, Note_on_c, 0, 77, 70
2, 8400, Note_on_c, 0, 74, 70
2, 8445, Note_on_c, 0, 77, 0
2, 8445, Note_on_c, 0, 74, 0
2, 8448, Note_on_c, 0, 77, 86
2, 8520, Note_on_c, 0, 77, 0
2, 8520, Note_on_c, 0, 79, 70
2, 8532, Note_on_c, 0, 79, 0
2, 8532, Note_on_c, 0, 81, 70
2, 8544, Note_on_c, 0, 81, 0
2, 8544, Note_on_c, 0, 82, 70
2, 8633, Note_on_c, 0, 82, 0
2, 8640, Note_on_c, 0, 75, 70
2, 8795, Note_on_c, 0, 75, 0
2, 8808, Note_on_c, 0, 79, 70
2, 8820, Note_on_c, 0, 79, 0
2, 8820, Note_on_c, 0, 75, 70
2, 8832, Note_on_c, 0, 75, 0
2, 8832, Note_on_c, 0, 73, 70
2, 8880, Note_on_c, 0, 73, 0
2, 8880, Note_on_c, 0, 74, 70
2, 8925, Note_on_c, 0, 74, 0
2, 9000, Note_on_c, 0, 77, 70
2, 9012, Note_on_c, 0, 77, 0
2, 9012, Note_on_c, 0, 74, 70
2, 9024, Note_on_c, 0, 74, 0
2, 9024, Note_on_c, 0, 71, 70
2, 9072, Note_on_c, 0, 71, 0
2, 9072, Note_on_c, 0, 72, 70
2, 9117, Note_on_c, 0, 72, 0
2, 9192, Note_on_c, 0, 75, 70
2, 9204, Note_on_c, 0, 75, 0
2, 9204, Note_on_c, 0, 72, 70
2, 9216, Note_on_c, 0, 72, 0
2, 9216, Note_on_c, 0, 69, 70
2, 9264, Note_on_c, 0, 69, 0
2, 9264, Note_on_c, 0, 70, 72
2, 9309, Note_on_c, 0, 70, 0
2, 9312, Note_on_c, 0, 70, 74
2, 9324, Note_on_c, 0, 70, 0
2, 9324, Note_on_c, 0, 72, 74
2, 9336, Note_on_c, 0, 72, 0
2, 9336, Note_on_c, 0, 74, 75
2, 9348, Note_on_c, 0, 74, 0
2, 9348, Note_on_c, 0, 75, 75
2, 9360, Note_on_c, 0, 75, 0
2, 9360, Note_on_c, 0, 77, 76
2, 9372, Note_on_c, 0, 77, 0
2, 9372, Note_on_c, 0, 79, 76
2, 9384, Note_on_c, 0, 79, 0
2, 9384, Note_on_c, 0, 81, 77
2, 9396, Note_on_c, 0, 81, 0
2, 9396, Note_on_c, 0, 82, 77
2, 9408, Note_on_c, 0, 82, 0
2, 9408, Note_on_c, 0, 79, 78
2, 9475, Note_on_c, 0, 79, 0
2, 9480, Note_on_c, 0, 77, 81
2, 9492, Note_on_c, 0, 77, 0
2, 9492, Note_on_c, 0, 75, 81
2, 9504, Note_on_c, 0, 75, 0
2, 9504, Note_on_c, 0, 74, 81
2, 9549, Note_on_c, 0, 74, 0
2, 9552, Note_on_c, 0, 72, 78
2, 9562, Note_on_c, 0, 72, 0
2, 9562, Note_on_c, 0, 74, 77
2, 9572, Note_on_c, 0, 74, 0
2, 9572, Note_on_c, 0, 72, 77
2, 9582, Note_on_c, 0, 72, 0
2, 9582, Note_on_c, 0, 74, 76
2, 9591, Note_on_c, 0, 74, 0
2, 9591, Note_on_c, 0, 72, 76
2, 9600, Note_on_c, 0, 72, 0
2, 9600, Note_on_c, 0, 70, 75
2, 9623, Note_on_c, 0, 70, 0
2, 9648, Note_on_c, 0, 70, 75
2, 9663, Note_on_c, 0, 70, 0
2, 9664, Note_on_c, 0, 74, 75
2, 9679, Note_on_c, 0, 74, 0
2, 9680, Note_on_c, 0, 77, 75
2, 9695, Note_on_c, 0, 77, 0
2, 9696, Note_on_c, 0, 75, 75
2, 9711, Note_on_c, 0, 75, 0
2, 9712, Note_on_c, 0, 72, 75
2, 9727, Note_on_c, 0, 72, 0
2, 9728, Note_on_c, 0, 69, 75
2, 9743, Note_on_c, 0, 69, 0
2, 9744, Note_on_c, 0, 72, 75
2, 9759, Note_on_c, 0, 72, 0
2, 9760, Note_on_c, 0, 69, 75
2, 9775, Note_on_c, 0, 69, 0
2, 9776, Note_on_c, 0, 65, 75
2, 9791, Note_on_c, 0, 65, 0
2, 9792, Note_on_c, 0, 62, 75
2, 9807, Note_on_c, 0, 62, 0
2, 9808, Note_on_c, 0, 65, 75
2, 9823, Note_on_c, 0, 65, 0
2, 9824, Note_on_c, 0, 70, 75
2, 9839, Note_on_c, 0, 70, 0
2, 9840, Note_on_c, 0, 67, 75
2, 9855, Note_on_c, 0, 67, 0
2, 9856, Note_on_c, 0, 75, 75
2, 9871, Note_on_c, 0, 75, 0
2, 9872, Note_on_c, 0, 72, 75
2, 9887, Note_on_c, 0, 72, 0
2, 9888, Note_on_c, 0, 70, 75
2, 9933, Note_on_c, 0, 70, 0
2, 9936, Note_on_c, 0, 69, 75
2, 9946, Note_on_c, 0, 69, 0
2, 9946, Note_on_c, 0, 70, 75
2, 9956, Note_on_c, 0, 70, 0
2, 9956, Note_on_c, 0, 69, 75
2, 9966, Note_on_c, 0, 69, 0
2, 9966, Note_on_c, 0, 67, 75
2, 9975, Note_on_c, 0, 67, 0
2, 9975, Note_on_c, 0, 69, 75
2, 9984, Note_on_c, 0, 69, 0
2, 9984, Note_on_c, 0, 70, 75
2, 10007, Note_on_c, 0, 70, 0
2, 10032, Note_on_c, 0, 70, 75
2, 10047, Note_on_c, 0, 70, 0
2, 10048, Note_on_c, 0, 74, 75
2, 10063, Note_on_c, 0, 74, 0
2, 10064, Note_on_c, 0, 77, 75
2, 10079, Note_on_c, 0, 77, 0
2, 10080, Note_on_c, 0, 75, 75
2, 10095, Note_on_c, 0, 75, 0
2, 10096, Note_on_c, 0, 72, 75
2, 10111, Note_on_c, 0, 72, 0
2, 10112, Note_on_c, 0, 69, 75
2, 10127, Note_on_c, 0, 69, 0
2, 10128, Note_on_c, 0, 72, 75
2, 10143, Note_on_c, 0, 72, 0
2, 10144, Note_on_c, 0, 69, 75
2, 10159, Note_on_c, 0, 69, 0
2, 10160, Note_on_c, 0, 65, 75
2, 10175, Note_on_c, 0, 65, 0
2, 10176, Note_on_c, 0, 62, 75
2, 10191, Note_on_c, 0, 62, 0
2, 10192, Note_on_c, 0, 65, 75
2, 10207, Note_on_c, 0, 65, 0
2, 10208, Note_on_c, 0, 70, 75
2, 10223, Note_on_c, 0, 70, 0
2, 10224, Note_on_c, 0, 67, 75
2, 10239, Note_on_c, 0, 67, 0
2, 10240, Note_on_c, 0, 75, 75
2, 10255, Note_on_c, 0, 75, 0
2, 10256, Note_on_c, 0, 72, 75
2, 10271, Note_on_c, 0, 72, 0
2, 10272, Note_on_c, 0, 70, 75
2, 10317, Note_on_c, 0, 70, 0
2, 10320, Note_on_c, 0, 69, 75
2, 10330, Note_on_c, 0, 69, 0
2, 10330, Note_on_c, 0, 70, 75
2, 10340, Note_on_c, 0, 70, 0
2, 10340, Note_on_c, 0, 69, 75
2, 10350, Note_on_c, 0, 69, 0
2, 10350, Note_on_c, 0, 67, 75
2, 10359, Note_on_c, 0, 67, 0
2, 10359, Note_on_c, 0, 69, 75
2, 10368, Note_on_c, 0, 69, 0
2, 10368, Note_on_c, 0, 70, 75
2, 10457, Note_on_c, 0, 70, 0
2, 10464, Note_on_c, 0, 65, 70
2, 10482, Note_on_c, 0, 65, 0
2, 10482, Note_on_c, 0, 75, 70
2, 10531, Note_on_c, 0, 75, 0
2, 10536, Note_on_c, 0, 72, 70
2, 10548, Note_on_c, 0, 72, 0
2, 10548, Note_on_c, 0, 69, 70
2, 10560, Note_on_c, 0, 69, 0
2, 10560, Note_on_c, 0, 70, 70
2, 10649, Note_on_c, 0, 70, 0
2, 10752, Note_on_c, 0, 63, 75
2, 10841, Note_on_c, 0, 63, 0
2, 10848, Note_on_c, 0, 63, 75
2, 10882, Note_on_c, 0, 63, 0
2, 10884, Note_on_c, 0, 65, 75
2, 10896, Note_on_c, 0, 65, 0
2, 10896, Note_on_c, 0, 67, 75
2, 10930, Note_on_c, 0, 67, 0
2, 10932, Note_on_c, 0, 68, 75
2, 10944, Note_on_c, 0, 68, 0
2, 10944, Note_on_c, 0, 70, 75
2, 11063, Note_on_c, 0, 70, 0
2, 11064, Note_on_c, 0, 72, 77
2, 11076, Note_on_c, 0, 72, 0
2, 11076, Note_on_c, 0, 74, 77
2, 11088, Note_on_c, 0, 74, 0
2, 11088, Note_on_c, 0, 75, 78
2, 11100, Note_on_c, 0, 75, 0
2, 11100, Note_on_c, 0, 77, 78
2, 11112, Note_on_c, 0, 77, 0
2, 11112, Note_on_c, 0, 79, 78
2, 11124, Note_on_c, 0, 79, 0
2, 11124, Note_on_c, 0, 80, 78
2, 11136, Note_on_c, 0, 80, 0
2, 11136, Note_on_c, 0, 82, 95
2, 11232, Note_on_c, 0, 82, 0
2, 11232, Note_on_c, 0, 80, 75
2, 11255, Note_on_c, 0, 80, 0
2, 11256, Note_on_c, 0, 79, 75
2, 11279, Note_on_c, 0, 79, 0
2, 11280, Note_on_c, 0, 77, 75
2, 11303, Note_on_c, 0, 77, 0
2, 11304, Note_on_c, 0, 75, 75
2, 11327, Note_on_c, 0, 75, 0
2, 11328, Note_on_c, 0, 80, 75
2, 11343, Note_on_c, 0, 80, 0
2, 11344, Note_on_c, 0, 82, 81
2, 11359, Note_on_c, 0, 82, 0
2, 11360, Note_on_c, 0, 84, 80
2, 11375, Note_on_c, 0, 84, 0
2, 11376, Note_on_c, 0, 82, 79
2, 11421, Note_on_c, 0, 82, 0
2, 11424, Note_on_c, 0, 75, 75
2, 11439, Note_on_c, 0, 75, 0
2, 11440, Note_on_c, 0, 74, 75
2, 11455, Note_on_c, 0, 74, 0
2, 11456, Note_on_c, 0, 72, 75
2, 11471, Note_on_c, 0, 72, 0
2, 11472, Note_on_c, 0, 70, 75
2, 11482, Note_on_c, 0, 70, 0
2, 11496, Note_on_c, 0, 70, 75
2, 11519, Note_on_c, 0, 70, 0
2, 11520, Note_on_c, 0, 68, 75
2, 11530, Note_on_c, 0, 68, 0
2, 11530, Note_on_c, 0, 70, 75
2, 11540, Note_on_c, 0, 70, 0
2, 11540, Note_on_c, 0, 68, 75
2, 11550, Note_on_c, 0, 68, 0
2, 11550, Note_on_c, 0, 67, 75
2, 11559, Note_on_c, 0, 67, 0
2, 11559, Note_on_c, 0, 68, 75
2, 11568, Note_on_c, 0, 68, 0
2, 11568, Note_on_c, 0, 67, 75
2, 11613, Note_on_c, 0, 67, 0
2, 11616, Note_on_c, 0, 75, 75
2, 11631, Note_on_c, 0, 75, 0
2, 11632, Note_on_c, 0, 74, 75
2, 11647, Note_on_c, 0, 74, 0
2, 11648, Note_on_c, 0, 72, 75
2, 11663, Note_on_c, 0, 72, 0
2, 11664, Note_on_c, 0, 70, 75
2, 11674, Note_on_c, 0, 70, 0
2, 11688, Note_on_c, 0, 82, 75
2, 11711, Note_on_c, 0, 82, 0
2, 11712, Note_on_c, 0, 80, 75
2, 11722, Note_on_c, 0, 80, 0
2, 11722, Note_on_c, 0, 82, 75
2, 11732, Note_on_c, 0, 82, 0
2, 11732, Note_on_c, 0, 80, 75
2, 11742, Note_on_c, 0, 80, 0
2, 11742, Note_on_c, 0, 79, 75
2, 11751, Note_on_c, 0, 79, 0
2, 11751, Note_on_c, 0, 80, 75
2, 11760, Note_on_c, 0, 80, 0
2, 11760, Note_on_c, 0, 79, 75
2, 11805, Note_on_c, 0, 79, 0
2, 11808, Note_on_c, 0, 79, 75
2, 11842, Note_on_c, 0, 79, 0
2, 11844, Note_on_c, 0, 77, 75
2, 11856, Note_on_c, 0, 77, 0
2, 11856, Note_on_c, 0, 84, 75
2, 11890, Note_on_c, 0, 84, 0
2, 11892, Note_on_c, 0, 75, 75
2, 11904, Note_on_c, 0, 75, 0
2, 11904, Note_on_c, 0, 75, 75
2, 11952, Note_on_c, 0, 75, 0
2, 11952, Note_on_c, 0, 74, 75
2, 11997, Note_on_c, 0, 74, 0
2, 12000, Note_on_c, 0, 58, 75
2, 12034, Note_on_c, 0, 58, 0
2, 12036, Note_on_c, 0, 60, 75
2, 12048, Note_on_c, 0, 60, 0
2, 12048, Note_on_c, 0, 62, 75
2, 12082, Note_on_c, 0, 62, 0
2, 12084, Note_on_c, 0, 63, 75
2, 12096, Note_on_c, 0, 63, 0
2, 12096, Note_on_c, 0, 65, 75
2, 12215, Note_on_c, 0, 65, 0
2, 12216, Note_on_c, 0, 67, 75
2, 12228, Note_on_c, 0, 67, 0
2, 12228, Note_on_c, 0, 69, 76
2, 12240, Note_on_c, 0, 69, 0
2, 12240, Note_on_c, 0, 70, 76
2, 12252, Note_on_c, 0, 70, 0
2, 12252, Note_on_c, 0, 72, 76
2, 12264, Note_on_c, 0, 72, 0
2, 12264, Note_on_c, 0, 74, 77
2, 12276, Note_on_c, 0, 74, 0
2, 12276, Note_on_c, 0, 75, 77
2, 12288, Note_on_c, 0, 75, 0
2, 12288, Note_on_c, 0, 77, 94
2, 12384, Note_on_c, 0, 77, 0
2, 12384, Note_on_c, 0, 75, 75
2, 12407, Note_on_c, 0, 75, 0
2, 12408, Note_on_c, 0, 74, 75
2, 12431, Note_on_c, 0, 74, 0
2, 12432, Note_on_c, 0, 72, 75
2, 12455, Note_on_c, 0, 72, 0
2, 12456, Note_on_c, 0, 70, 75
2, 12479, Note_on_c, 0, 70, 0
2, 12480, Note_on_c, 0, 75, 75
2, 12495, Note_on_c, 0, 75, 0
2, 12496, Note_on_c, 0, 77, 77
2, 12511, Note_on_c, 0, 77, 0
2, 12512, Note_on_c, 0, 79, 79
2, 12527, Note_on_c, 0, 79, 0
2, 12528, Note_on_c, 0, 77, 80
2, 12573, Note_on_c, 0, 77, 0
2, 12576, Note_on_c, 0, 82, 75
2, 12591, Note_on_c, 0, 82, 0
2, 12592, Note_on_c, 0, 81, 75
2, 12607, Note_on_c, 0, 81, 0
2, 12608, Note_on_c, 0, 79, 75
2, 12623, Note_on_c, 0, 79, 0
2, 12624, Note_on_c, 0, 77, 75
2, 12634, Note_on_c, 0, 77, 0
2, 12648, Note_on_c, 0, 77, 75
2, 12671, Note_on_c, 0, 77, 0
2, 12672, Note_on_c, 0, 75, 75
2, 12682, Note_on_c, 0, 75, 0
2, 12682, Note_on_c, 0, 77, 75
2, 12692, Note_on_c, 0, 77, 0
2, 12692, Note_on_c, 0, 75, 75
2, 12702, Note_on_c, 0, 75, 0
2, 12702, Note_on_c, 0, 74, 75
2, 12711, Note_on_c, 0, 74, 0
2, 12711, Note_on_c, 0, 75, 75
2, 12720, Note_on_c, 0, 75, 0
2, 12720, Note_on_c, 0, 74, 75
2, 12765, Note_on_c, 0, 74, 0
2, 12768, Note_on_c, 0, 82, 75
2, 12783, Note_on_c, 0, 82, 0
2, 12784, Note_on_c, 0, 81, 75
2, 12799, Note_on_c, 0, 81, 0
2, 12800, Note_on_c, 0, 79, 75
2, 12815, Note_on_c, 0, 79, 0
2, 12816, Note_on_c, 0, 77, 75
2, 12826, Note_on_c, 0, 77, 0
2, 12840, Note_on_c, 0, 77, 75
2, 12863, Note_on_c, 0, 77, 0
2, 12864, Note_on_c, 0, 75, 75
2, 12874, Note_on_c, 0, 75, 0
2, 12874, Note_on_c, 0, 77, 75
2, 12884, Note_on_c, 0, 77, 0
2, 12884, Note_on_c, 0, 75, 75
2, 12894, Note_on_c, 0, 75, 0
2, 12894, Note_on_c, 0, 74, 75
2, 12903, Note_on_c, 0, 74, 0
2, 12903, Note_on_c, 0, 75, 75
2, 12912, Note_on_c, 0, 75, 0
2, 12912, Note_on_c, 0, 74, 75
2, 12957, Note_on_c, 0, 74, 0
2, 12960, Note_on_c, 0, 77, 75
2, 12975, Note_on_c, 0, 77, 0
2, 12976, Note_on_c, 0, 75, 75
2, 12991, Note_on_c, 0, 75, 0
2, 12992, Note_on_c, 0, 74, 75
2, 13007, Note_on_c, 0, 74, 0
2, 13008, Note_on_c, 0, 72, 75
2, 13023, Note_on_c, 0, 72, 0
2, 13024, Note_on_c, 0, 70, 75
2, 13039, Note_on_c, 0, 70, 0
2, 13040, Note_on_c, 0, 68, 75
2, 13055, Note_on_c, 0, 68, 0
2, 13056, Note_on_c, 0, 67, 75
2, 13074, Note_on_c, 0, 67, 0
2, 13074, Note_on_c, 0, 75, 75
2, 13145, Note_on_c, 0, 75, 0
2, 13152, Note_on_c, 0, 75, 75
2, 13186, Note_on_c, 0, 75, 0
2, 13188, Note_on_c, 0, 77, 75
2, 13200, Note_on_c, 0, 77, 0
2, 13200, Note_on_c, 0, 79, 75
2, 13234, Note_on_c, 0, 79, 0
2, 13236, Note_on_c, 0, 80, 75
2, 13248, Note_on_c, 0, 80, 0
2, 13248, Note_on_c, 0, 82, 91
2, 13344, Note_on_c, 0, 82, 0
2, 13344, Note_on_c, 0, 80, 75
2, 13367, Note_on_c, 0, 80, 0
2, 13368, Note_on_c, 0, 79, 75
2, 13391, Note_on_c, 0, 79, 0
2, 13392, Note_on_c, 0, 77, 75
2, 13415, Note_on_c, 0, 77, 0
2, 13416, Note_on_c, 0, 75, 75
2, 13439, Note_on_c, 0, 75, 0
2, 13440, Note_on_c, 0, 74, 75
2, 13463, Note_on_c, 0, 74, 0
2, 13464, Note_on_c, 0, 72, 75
2, 13487, Note_on_c, 0, 72, 0
2, 13488, Note_on_c, 0, 72, 75
2, 13581, Note_on_c, 0, 72, 0
2, 13584, Note_on_c, 0, 75, 75
2, 13607, Note_on_c, 0, 75, 0
2, 13608, Note_on_c, 0, 72, 75
2, 13631, Note_on_c, 0, 72, 0
2, 13632, Note_on_c, 0, 72, 75
2, 13655, Note_on_c, 0, 72, 0
2, 13656, Note_on_c, 0, 70, 75
2, 13679, Note_on_c, 0, 70, 0
2, 13680, Note_on_c, 0, 70, 75
2, 13751, Note_on_c, 0, 70, 0
2, 13752, Note_on_c, 0, 75, 75
2, 13775, Note_on_c, 0, 75, 0
2, 13776, Note_on_c, 0, 79, 75
2, 13799, Note_on_c, 0, 79, 0
2, 13800, Note_on_c, 0, 75, 75
2, 13823, Note_on_c, 0, 75, 0
2, 13824, Note_on_c, 0, 74, 75
2, 13830, Note_on_c, 0, 74, 0
2, 13830, Note_on_c, 0, 75, 75
2, 13836, Note_on_c, 0, 75, 0
2, 13836, Note_on_c, 0, 74, 75
2, 13847, Note_on_c, 0, 74, 0
2, 13848, Note_on_c, 0, 72, 75
2, 13871, Note_on_c, 0, 72, 0
2, 13872, Note_on_c, 0, 72, 75
2, 13943, Note_on_c, 0, 72, 0
2, 13944, Note_on_c, 0, 75, 75
2, 13956, Note_on_c, 0, 75, 0
2, 13956, Note_on_c, 0, 74, 75
2, 13968, Note_on_c, 0, 74, 0
2, 13968, Note_on_c, 0, 77, 75
2, 13980, Note_on_c, 0, 77, 0
2, 13980, Note_on_c, 0, 75, 75
2, 13992, Note_on_c, 0, 75, 0
2, 13992, Note_on_c, 0, 74, 75
2, 14004, Note_on_c, 0, 74, 0
2, 14004, Note_on_c, 0, 72, 75
2, 14016, Note_on_c, 0, 72, 0
2, 14016, Note_on_c, 0, 72, 91
2, 14040, Note_on_c, 0, 72, 0
2, 14040, Note_on_c, 0, 70, 75
2, 14063, Note_on_c, 0, 70, 0
2, 14064, Note_on_c, 0, 70, 75
2, 14146, Note_on_c, 0, 70, 0
2, 14148, Note_on_c, 0, 75, 75
2, 14160, Note_on_c, 0, 75, 0
2, 14160, Note_on_c, 0, 75, 75
2, 14194, Note_on_c, 0, 75, 0
2, 14196, Note_on_c, 0, 75, 75
2, 14208, Note_on_c, 0, 75, 0
2, 14208, Note_on_c, 0, 75, 75
2, 14242, Note_on_c, 0, 75, 0
2, 14244, Note_on_c, 0, 65, 75
2, 14256, Note_on_c, 0, 65, 0
2, 14256, Note_on_c, 0, 65, 75
2, 14338, Note_on_c, 0, 65, 0
2, 14340, Note_on_c, 0, 72, 75
2, 14352, Note_on_c, 0, 72, 0
2, 14352, Note_on_c, 0, 70, 75
2, 14386, Note_on_c, 0, 70, 0
2, 14388, Note_on_c, 0, 68, 75
2, 14400, Note_on_c, 0, 68, 0
2, 14400, Note_on_c, 0, 70, 75
2, 14406, Note_on_c, 0, 70, 0
2, 14406, Note_on_c, 0, 68, 75
2, 14412, Note_on_c, 0, 68, 0
2, 14412, Note_on_c, 0, 67, 75
2, 14418, Note_on_c, 0, 67, 0
2, 14418, Note_on_c, 0, 68, 75
2, 14434, Note_on_c, 0, 68, 0
2, 14436, Note_on_c, 0, 67, 75
2, 14448, Note_on_c, 0, 67, 0
2, 14448, Note_on_c, 0, 67, 75
2, 14530, Note_on_c, 0, 67, 0
2, 14532, Note_on_c, 0, 75, 75
2, 14544, Note_on_c, 0, 75, 0
2, 14544, Note_on_c, 0, 75, 75
2, 14578, Note_on_c, 0, 75, 0
2, 14580, Note_on_c, 0, 75, 75
2, 14592, Note_on_c, 0, 75, 0
2, 14592, Note_on_c, 0, 75, 75
2, 14626, Note_on_c, 0, 75, 0
2, 14628, Note_on_c, 0, 65, 75
2, 14640, Note_on_c, 0, 65, 0
2, 14640, Note_on_c, 0, 65, 75
2, 14733, Note_on_c, 0, 65, 0
2, 14736, Note_on_c, 0, 68, 75
2, 14751, Note_on_c, 0, 68, 0
2, 14752, Note_on_c, 0, 65, 74
2, 14767, Note_on_c, 0, 65, 0
2, 14768, Note_on_c, 0, 62, 74
2, 14783, Note_on_c, 0, 62, 0
2, 14784, Note_on_c, 0, 63, 74
2, 14829, Note_on_c, 0, 63, 0
2, 14832, Note_on_c, 0, 68, 73
2, 14847, Note_on_c, 0, 68, 0
2, 14848, Note_on_c, 0, 65, 73
2, 14863, Note_on_c, 0, 65, 0
2, 14864, Note_on_c, 0, 62, 72
2, 14879, Note_on_c, 0, 62, 0
2, 14880, Note_on_c, 0, 63, 72
2, 14925, Note_on_c, 0, 63, 0
2, 14928, Note_on_c, 0, 68, 71
2, 14943, Note_on_c, 0, 68, 0
2, 14944, Note_on_c, 0, 65, 71
2, 14959, Note_on_c, 0, 65, 0
2, 14960, Note_on_c, 0, 62, 71
2, 14975, Note_on_c, 0, 62, 0
2, 14976, Note_on_c, 0, 63, 70
2, 15065, Note_on_c, 0, 63, 0
2, 15144, Note_on_c, 0, 82, 70
2, 15154, Note_on_c, 0, 82, 0
2, 15168, Note_on_c, 0, 78, 70
2, 15192, Note_on_c, 0, 78, 0
2, 15192, Note_on_c, 0, 79, 70
2, 15215, Note_on_c, 0, 79, 0
2, 15240, Note_on_c, 0, 82, 70
2, 15250, Note_on_c, 0, 82, 0
2, 15264, Note_on_c, 0, 76, 70
2, 15288, Note_on_c, 0, 76, 0
2, 15288, Note_on_c, 0, 77, 70
2, 15311, Note_on_c, 0, 77, 0
2, 15336, Note_on_c, 0, 82, 70
2, 15346, Note_on_c, 0, 82, 0
2, 15360, Note_on_c, 0, 77, 70
2, 15410, Note_on_c, 0, 77, 0
2, 15410, Note_on_c, 0, 75, 70
2, 15420, Note_on_c, 0, 75, 0
2, 15420, Note_on_c, 0, 77, 70
2, 15429, Note_on_c, 0, 77, 0
2, 15429, Note_on_c, 0, 75, 70
2, 15438, Note_on_c, 0, 75, 0
2, 15438, Note_on_c, 0, 74, 70
2, 15447, Note_on_c, 0, 74, 0
2, 15447, Note_on_c, 0, 75, 70
2, 15456, Note_on_c, 0, 75, 0
2, 15456, Note_on_c, 0, 74, 70
2, 15523, Note_on_c, 0, 74, 0
2, 15528, Note_on_c, 0, 82, 70
2, 15551, Note_on_c, 0, 82, 0
2, 15552, Note_on_c, 0, 78, 70
2, 15564, Note_on_c, 0, 78, 0
2, 15564, Note_on_c, 0, 79, 70
2, 15576, Note_on_c, 0, 79, 0
2, 15576, Note_on_c, 0, 78, 70
2, 15588, Note_on_c, 0, 78, 0
2, 15588, Note_on_c, 0, 79, 70
2, 15600, Note_on_c, 0, 79, 0
2, 15624, Note_on_c, 0, 82, 70
2, 15647, Note_on_c, 0, 82, 0
2, 15648, Note_on_c, 0, 76, 70
2, 15660, Note_on_c, 0, 76, 0
2, 15660, Note_on_c, 0, 77, 70
2, 15672, Note_on_c, 0, 77, 0
2, 15672, Note_on_c, 0, 76, 70
2, 15684, Note_on_c, 0, 76, 0
2, 15684, Note_on_c, 0, 77, 70
2, 15696, Note_on_c, 0, 77, 0
2, 15708, Note_on_c, 0, 82, 70
2, 15720, Note_on_c, 0, 82, 0
2, 15720, Note_on_c, 0, 81, 70
2, 15732, Note_on_c, 0, 81, 0
2, 15732, Note_on_c, 0, 79, 70
2, 15744, Note_on_c, 0, 79, 0
2, 15744, Note_on_c, 0, 77, 70
2, 15794, Note_on_c, 0, 77, 0
2, 15794, Note_on_c, 0, 75, 70
2, 15804, Note_on_c, 0, 75, 0
2, 15804, Note_on_c, 0, 77, 70
2, 15813, Note_on_c, 0, 77, 0
2, 15813, Note_on_c, 0, 75, 70
2, 15822, Note_on_c, 0, 75, 0
2, 15822, Note_on_c, 0, 74, 70
2, 15831, Note_on_c, 0, 74, 0
2, 15831, Note_on_c, 0, 75, 70
2, 15840, Note_on_c, 0, 75, 0
2, 15840, Note_on_c, 0, 74, 70
2, 15929, Note_on_c, 0, 74, 0
2, 15936, Note_on_c, 0, 74, 70
2, 15959, Note_on_c, 0, 74, 0
2, 15960, Note_on_c, 0, 72, 70
2, 15983, Note_on_c, 0, 72, 0
2, 15984, Note_on_c, 0, 72, 70
2, 16099, Note_on_c, 0, 72, 0
2, 16104, Note_on_c, 0, 79, 73
2, 16116, Note_on_c, 0, 79, 0
2, 16116, Note_on_c, 0, 75, 73
2, 16128, Note_on_c, 0, 75, 0
2, 16128, Note_on_c, 0, 74, 73
2, 16151, Note_on_c, 0, 74, 0
2, 16152, Note_on_c, 0, 72, 74
2, 16175, Note_on_c, 0, 72, 0
2, 16176, Note_on_c, 0, 72, 74
2, 16291, Note_on_c, 0, 72, 0
2, 16296, Note_on_c, 0, 79, 76
2, 16308, Note_on_c, 0, 79, 0
2, 16308, Note_on_c, 0, 76, 77
2, 16320, Note_on_c, 0, 76, 0
2, 16320, Note_on_c, 0, 72, 77
2, 16409, Note_on_c, 0, 72, 0
2, 16416, Note_on_c, 0, 72, 79
2, 16426, Note_on_c, 0, 72, 0
2, 16426, Note_on_c, 0, 70, 79
2, 16436, Note_on_c, 0, 70, 0
2, 16436, Note_on_c, 0, 72, 79
2, 16446, Note_on_c, 0, 72, 0
2, 16446, Note_on_c, 0, 70, 79
2, 16456, Note_on_c, 0, 70, 0
2, 16456, Note_on_c, 0, 72, 79
2, 16466, Note_on_c, 0, 72, 0
2, 16466, Note_on_c, 0, 70, 79
2, 16476, Note_on_c, 0, 70, 0
2, 16476, Note_on_c, 0, 72, 79
2, 16485, Note_on_c, 0, 72, 0
2, 16485, Note_on_c, 0, 70, 79
2, 16494, Note_on_c, 0, 70, 0
2, 16494, Note_on_c, 0, 69, 80
2, 16503, Note_on_c, 0, 69, 0
2, 16503, Note_on_c, 0, 70, 80
2, 16512, Note_on_c, 0, 70, 0
2, 16512, Note_on_c, 0, 69, 81
2, 16535, Note_on_c, 0, 69, 0
2, 16536, Note_on_c, 0, 77, 81
2, 16559, Note_on_c, 0, 77, 0
2, 16584, Note_on_c, 0, 77, 81
2, 16594, Note_on_c, 0, 77, 0
2, 16608, Note_on_c, 0, 75, 81
2, 16618, Note_on_c, 0, 75, 0
2, 16618, Note_on_c, 0, 73, 81
2, 16628, Note_on_c, 0, 73, 0
2, 16628, Note_on_c, 0, 75, 81
2, 16638, Note_on_c, 0, 75, 0
2, 16638, Note_on_c, 0, 73, 81
2, 16648, Note_on_c, 0, 73, 0
2, 16648, Note_on_c, 0, 75, 81
2, 16658, Note_on_c, 0, 75, 0
2, 16658, Note_on_c, 0, 73, 81
2, 16668, Note_on_c, 0, 73, 0
2, 16668, Note_on_c, 0, 75, 81
2, 16677, Note_on_c, 0, 75, 0
2, 16677, Note_on_c, 0, 73, 81
2, 16686, Note_on_c, 0, 73, 0
2, 16686, Note_on_c, 0, 72, 81
2, 16695, Note_on_c, 0, 72, 0
2, 16695, Note_on_c, 0, 73, 81
2, 16704, Note_on_c, 0, 73, 0
2, 16704, Note_on_c, 0, 72, 81
2, 16727, Note_on_c, 0, 72, 0
2, 16728, Note_on_c, 0, 77, 81
2, 16751, Note_on_c, 0, 77, 0
2, 16776, Note_on_c, 0, 77, 81
2, 16786, Note_on_c, 0, 77, 0
2, 16800, Note_on_c, 0, 75, 81
2, 16810, Note_on_c, 0, 75, 0
2, 16810, Note_on_c, 0, 73, 81
2, 16820, Note_on_c, 0, 73, 0
2, 16820, Note_on_c, 0, 75, 81
2, 16830, Note_on_c, 0, 75, 0
2, 16830, Note_on_c, 0, 73, 81
2, 16840, Note_on_c, 0, 73, 0
2, 16840, Note_on_c, 0, 75, 81
2, 16850, Note_on_c, 0, 75, 0
2, 16850, Note_on_c, 0, 73, 81
2, 16860, Note_on_c, 0, 73, 0
2, 16860, Note_on_c, 0, 75, 81
2, 16869, Note_on_c, 0, 75, 0
2, 16869, Note_on_c, 0, 73, 81
2, 16878, Note_on_c, 0, 73, 0
2, 16878, Note_on_c, 0, 72, 81
2, 16887, Note_on_c, 0, 72, 0
2, 16887, Note_on_c, 0, 73, 81
2, 16896, Note_on_c, 0, 73, 0
2, 16896, Note_on_c, 0, 72, 81
2, 16919, Note_on_c, 0, 72, 0
2, 16920, Note_on_c, 0, 77, 81
2, 16943, Note_on_c, 0, 77, 0
2, 16968, Note_on_c, 0, 77, 81
2, 16978, Note_on_c, 0, 77, 0
2, 16992, Note_on_c, 0, 75, 81
2, 17002, Note_on_c, 0, 75, 0
2, 17002, Note_on_c, 0, 73, 81
2, 17012, Note_on_c, 0, 73, 0
2, 17012, Note_on_c, 0, 75, 81
2, 17022, Note_on_c, 0, 75, 0
2, 17022, Note_on_c, 0, 73, 81
2, 17032, Note_on_c, 0, 73, 0
2, 17032, Note_on_c, 0, 75, 81
2, 17042, Note_on_c, 0, 75, 0
2, 17042, Note_on_c, 0, 73, 81
2, 17052, Note_on_c, 0, 73, 0
2, 17052, Note_on_c, 0, 75, 81
2, 17061, Note_on_c, 0, 75, 0
2, 17061, Note_on_c, 0, 73, 81
2, 17070, Note_on_c, 0, 73, 0
2, 17070, Note_on_c, 0, 72, 81
2, 17079, Note_on_c, 0, 72, 0
2, 17079, Note_on_c, 0, 73, 81
2, 17088, Note_on_c, 0, 73, 0
2, 17088, Note_on_c, 0, 72, 81
2, 17177, Note_on_c, 0, 72, 0
2, 17232, Note_on_c, 0, 70, 75
2, 17255, Note_on_c, 0, 70, 0
2, 17256, Note_on_c, 0, 70, 75
2, 17279, Note_on_c, 0, 70, 0
2, 17280, Note_on_c, 0, 70, 75
2, 17286, Note_on_c, 0, 70, 0
2, 17286, Note_on_c, 0, 72, 75
2, 17292, Note_on_c, 0, 72, 0
2, 17292, Note_on_c, 0, 70, 75
2, 17303, Note_on_c, 0, 70, 0
2, 17304, Note_on_c, 0, 69, 75
2, 17327, Note_on_c, 0, 69, 0
2, 17328, Note_on_c, 0, 75, 75
2, 17351, Note_on_c, 0, 75, 0
2, 17352, Note_on_c, 0, 75, 75
2, 17375, Note_on_c, 0, 75, 0
2, 17376, Note_on_c, 0, 75, 75
2, 17382, Note_on_c, 0, 75, 0
2, 17382, Note_on_c, 0, 77, 75
2, 17388, Note_on_c, 0, 77, 0
2, 17388, Note_on_c, 0, 75, 75
2, 17399, Note_on_c, 0, 75, 0
2, 17400, Note_on_c, 0, 74, 75
2, 17423, Note_on_c, 0, 74, 0
2, 17424, Note_on_c, 0, 79, 75
2, 17447, Note_on_c, 0, 79, 0
2, 17448, Note_on_c, 0, 79, 75
2, 17471, Note_on_c, 0, 79, 0
2, 17472, Note_on_c, 0, 79, 75
2, 17478, Note_on_c, 0, 79, 0
2, 17478, Note_on_c, 0, 81, 75
2, 17484, Note_on_c, 0, 81, 0
2, 17484, Note_on_c, 0, 79, 75
2, 17495, Note_on_c, 0, 79, 0
2, 17496, Note_on_c, 0, 77, 75
2, 17519, Note_on_c, 0, 77, 0
2, 17520, Note_on_c, 0, 77, 75
2, 17543, Note_on_c, 0, 77, 0
2, 17544, Note_on_c, 0, 75, 75
2, 17567, Note_on_c, 0, 75, 0
2, 17568, Note_on_c, 0, 77, 75
2, 17578, Note_on_c, 0, 77, 0
2, 17578, Note_on_c, 0, 75, 75
2, 17588, Note_on_c, 0, 75, 0
2, 17588, Note_on_c, 0, 77, 75
2, 17598, Note_on_c, 0, 77, 0
2, 17598, Note_on_c, 0, 75, 75
2, 17608, Note_on_c, 0, 75, 0
2, 17608, Note_on_c, 0, 77, 75
2, 17618, Note_on_c, 0, 77, 0
2, 17618, Note_on_c, 0, 75, 75
2, 17628, Note_on_c, 0, 75, 0
2, 17628, Note_on_c, 0, 77, 75
2, 17637, Note_on_c, 0, 77, 0
2, 17637, Note_on_c, 0, 75, 75
2, 17646, Note_on_c, 0, 75, 0
2, 17646, Note_on_c, 0, 74, 75
2, 17655, Note_on_c, 0, 74, 0
2, 17655, Note_on_c, 0, 72, 75
2, 17664, Note_on_c, 0, 72, 0
2, 17664, Note_on_c, 0, 74, 75
2, 17679, Note_on_c, 0, 74, 0
2, 17680, Note_on_c, 0, 86, 75
2, 17695, Note_on_c, 0, 86, 0
2, 17696, Note_on_c, 0, 82, 75
2, 17711, Note_on_c, 0, 82, 0
2, 17712, Note_on_c, 0, 81, 75
2, 17727, Note_on_c, 0, 81, 0
2, 17728, Note_on_c, 0, 79, 75
2, 17743, Note_on_c, 0, 79, 0
2, 17744, Note_on_c, 0, 77, 75
2, 17759, Note_on_c, 0, 77, 0
2, 17760, Note_on_c, 0, 86, 75
2, 17770, Note_on_c, 0, 86, 0
2, 17770, Note_on_c, 0, 84, 75
2, 17780, Note_on_c, 0, 84, 0
2, 17780, Note_on_c, 0, 86, 75
2, 17790, Note_on_c, 0, 86, 0
2, 17790, Note_on_c, 0, 84, 75
2, 17800, Note_on_c, 0, 84, 0
2, 17800, Note_on_c, 0, 86, 75
2, 17810, Note_on_c, 0, 86, 0
2, 17810, Note_on_c, 0, 84, 75
2, 17820, Note_on_c, 0, 84, 0
2, 17820, Note_on_c, 0, 86, 75
2, 17829, Note_on_c, 0, 86, 0
2, 17829, Note_on_c, 0, 84, 75
2, 17838, Note_on_c, 0, 84, 0
2, 17838, Note_on_c, 0, 82, 75
2, 17847, Note_on_c, 0, 82, 0
2, 17847, Note_on_c, 0, 84, 75
2, 17856, Note_on_c, 0, 84, 0
2, 17856, Note_on_c, 0, 82, 75
2, 17901, Note_on_c, 0, 82, 0
2, 17904, Note_on_c, 0, 79, 76
2, 17914, Note_on_c, 0, 79, 0
2, 17914, Note_on_c, 0, 77, 76
2, 17924, Note_on_c, 0, 77, 0
2, 17924, Note_on_c, 0, 79, 76
2, 17934, Note_on_c, 0, 79, 0
2, 17934, Note_on_c, 0, 77, 76
2, 17944, Note_on_c, 0, 77, 0
2, 17944, Note_on_c, 0, 79, 76
2, 17954, Note_on_c, 0, 79, 0
2, 17954, Note_on_c, 0, 77, 76
2, 17964, Note_on_c, 0, 77, 0
2, 17964, Note_on_c, 0, 79, 76
2, 17973, Note_on_c, 0, 79, 0
2, 17973, Note_on_c, 0, 77, 77
2, 17982, Note_on_c, 0, 77, 0
2, 17982, Note_on_c, 0, 79, 77
2, 17991, Note_on_c, 0, 79, 0
2, 17991, Note_on_c, 0, 77, 77
2, 18000, Note_on_c, 0, 77, 0
2, 18000, Note_on_c, 0, 79, 77
2, 18010, Note_on_c, 0, 79, 0
2, 18010, Note_on_c, 0, 77, 77
2, 18020, Note_on_c, 0, 77, 0
2, 18020, Note_on_c, 0, 79, 77
2, 18030, Note_on_c, 0, 79, 0
2, 18030, Note_on_c, 0, 77, 77
2, 18039, Note_on_c, 0, 77, 0
2, 18039, Note_on_c, 0, 79, 78
2, 18048, Note_on_c, 0, 79, 0
2, 18048, Note_on_c, 0, 77, 78
2, 18115, Note_on_c, 0, 77, 0
2, 18120, Note_on_c, 0, 81, 81
2, 18132, Note_on_c, 0, 81, 0
2, 18132, Note_on_c, 0, 82, 80
2, 18144, Note_on_c, 0, 82, 0
2, 18144, Note_on_c, 0, 84, 80
2, 18159, Note_on_c, 0, 84, 0
2, 18160, Note_on_c, 0, 82, 79
2, 18175, Note_on_c, 0, 82, 0
2, 18176, Note_on_c, 0, 81, 79
2, 18191, Note_on_c, 0, 81, 0
2, 18192, Note_on_c, 0, 79, 78
2, 18207, Note_on_c, 0, 79, 0
2, 18208, Note_on_c, 0, 77, 78
2, 18223, Note_on_c, 0, 77, 0
2, 18224, Note_on_c, 0, 75, 78
2, 18239, Note_on_c, 0, 75, 0
2, 18240, Note_on_c, 0, 74, 77
2, 18285, Note_on_c, 0, 74, 0
2, 18288, Note_on_c, 0, 79, 75
2, 18298, Note_on_c, 0, 79, 0
2, 18298, Note_on_c, 0, 77, 75
2, 18308, Note_on_c, 0, 77, 0
2, 18308, Note_on_c, 0, 79, 75
2, 18318, Note_on_c, 0, 79, 0
2, 18318, Note_on_c, 0, 77, 75
2, 18328, Note_on_c, 0, 77, 0
2, 18328, Note_on_c, 0, 79, 75
2, 18338, Note_on_c, 0, 79, 0
2, 18338, Note_on_c, 0, 77, 75
2, 18348, Note_on_c, 0, 77, 0
2, 18348, Note_on_c, 0, 79, 76
2, 18357, Note_on_c, 0, 79, 0
2, 18357, Note_on_c, 0, 77, 76
2, 18366, Note_on_c, 0, 77, 0
2, 18366, Note_on_c, 0, 79, 76
2, 18375, Note_on_c, 0, 79, 0
2, 18375, Note_on_c, 0, 77, 76
2, 18384, Note_on_c, 0, 77, 0
2, 18384, Note_on_c, 0, 79, 76
2, 18394, Note_on_c, 0, 79, 0
2, 18394, Note_on_c, 0, 77, 76
2, 18404, Note_on_c, 0, 77, 0
2, 18404, Note_on_c, 0, 79, 77
2, 18414, Note_on_c, 0, 79, 0
2, 18414, Note_on_c, 0, 77, 77
2, 18423, Note_on_c, 0, 77, 0
2, 18423, Note_on_c, 0, 79, 77
2, 18432, Note_on_c, 0, 79, 0
2, 18432, Note_on_c, 0, 77, 77
2, 18499, Note_on_c, 0, 77, 0
2, 18504, Note_on_c, 0, 81, 81
2, 18516, Note_on_c, 0, 81, 0
2, 18516, Note_on_c, 0, 82, 81
2, 18528, Note_on_c, 0, 82, 0
2, 18528, Note_on_c, 0, 84, 81
2, 18543, Note_on_c, 0, 84, 0
2, 18544, Note_on_c, 0, 82, 80
2, 18559, Note_on_c, 0, 82, 0
2, 18560, Note_on_c, 0, 81, 79
2, 18575, Note_on_c, 0, 81, 0
2, 18576, Note_on_c, 0, 79, 78
2, 18591, Note_on_c, 0, 79, 0
2, 18592, Note_on_c, 0, 77, 78
2, 18607, Note_on_c, 0, 77, 0
2, 18608, Note_on_c, 0, 75, 77
2, 18623, Note_on_c, 0, 75, 0
2, 18624, Note_on_c, 0, 74, 75
2, 18669, Note_on_c, 0, 74, 0
2, 18672, Note_on_c, 0, 77, 75
2, 18687, Note_on_c, 0, 77, 0
2, 18688, Note_on_c, 0, 79, 75
2, 18703, Note_on_c, 0, 79, 0
2, 18704, Note_on_c, 0, 77, 75
2, 18719, Note_on_c, 0, 77, 0
2, 18720, Note_on_c, 0, 82, 75
2, 18735, Note_on_c, 0, 82, 0
2, 18736, Note_on_c, 0, 81, 75
2, 18751, Note_on_c, 0, 81, 0
2, 18752, Note_on_c, 0, 79, 75
2, 18767, Note_on_c, 0, 79, 0
2, 18768, Note_on_c, 0, 77, 75
2, 18783, Note_on_c, 0, 77, 0
2, 18784, Note_on_c, 0, 75, 75
2, 18799, Note_on_c, 0, 75, 0
2, 18800, Note_on_c, 0, 74, 75
2, 18815, Note_on_c, 0, 74, 0
2, 18816, Note_on_c, 0, 72, 75
2, 18831, Note_on_c, 0, 72, 0
2, 18832, Note_on_c, 0, 78, 75
2, 18848, Note_on_c, 0, 78, 0
2, 18848, Note_on_c, 0, 79, 75
2, 18863, Note_on_c, 0, 79, 0
2, 18864, Note_on_c, 0, 77, 75
2, 18876, Note_on_c, 0, 77, 0
2, 18876, Note_on_c, 0, 75, 75
2, 18888, Note_on_c, 0, 75, 0
2, 18888, Note_on_c, 0, 74, 75
2, 18900, Note_on_c, 0, 74, 0
2, 18900, Note_on_c, 0, 72, 75
2, 18912, Note_on_c, 0, 72, 0
2, 18912, Note_on_c, 0, 70, 75
2, 18957, Note_on_c, 0, 70, 0
2, 18960, Note_on_c, 0, 69, 75
2, 18970, Note_on_c, 0, 69, 0
2, 18970, Note_on_c, 0, 70, 75
2, 18980, Note_on_c, 0, 70, 0
2, 18980, Note_on_c, 0, 69, 75
2, 18990, Note_on_c, 0, 69, 0
2, 18990, Note_on_c, 0, 67, 75
2, 18999, Note_on_c, 0, 67, 0
2, 18999, Note_on_c, 0, 69, 75
2, 19008, Note_on_c, 0, 69, 0
2, 19008, Note_on_c, 0, 70, 75
2, 19053, Note_on_c, 0, 70, 0
2, 19056, Note_on_c, 0, 77, 70
2, 19056, Note_on_c, 0, 74, 70
2, 19101, Note_on_c, 0, 77, 0
2, 19101, Note_on_c, 0, 74, 0
2, 19104, Note_on_c, 0, 77, 70
2, 19104, Note_on_c, 0, 74, 70
2, 19149, Note_on_c, 0, 77, 0
2, 19149, Note_on_c, 0, 74, 0
2, 19152, Note_on_c, 0, 77, 70
2, 19152, Note_on_c, 0, 74, 70
2, 19197, Note_on_c, 0, 77, 0
2, 19197, Note_on_c, 0, 74, 0
2, 19200, Note_on_c, 0, 77, 86
2, 19272, Note_on_c, 0, 77, 0
2, 19272, Note_on_c, 0, 79, 70
2, 19284, Note_on_c, 0, 79, 0
2, 19284, Note_on_c, 0, 81, 70
2, 19296, Note_on_c, 0, 81, 0
2, 19296, Note_on_c, 0, 82, 70
2, 19385, Note_on_c, 0, 82, 0
2, 19392, Note_on_c, 0, 75, 70
2, 19547, Note_on_c, 0, 75, 0
2, 19560, Note_on_c, 0, 79, 70
2, 19572, Note_on_c, 0, 79, 0
2, 19572, Note_on_c, 0, 75, 70
2, 19584, Note_on_c, 0, 75, 0
2, 19584, Note_on_c, 0, 73, 70
2, 19632, Note_on_c, 0, 73, 0
2, 19632, Note_on_c, 0, 74, 70
2, 19677, Note_on_c, 0, 74, 0
2, 19752, Note_on_c, 0, 77, 70
2, 19764, Note_on_c, 0, 77, 0
2, 19764, Note_on_c, 0, 74, 70
2, 19776, Note_on_c, 0, 74, 0
2, 19776, Note_on_c, 0, 71, 70
2, 19824, Note_on_c, 0, 71, 0
2, 19824, Note_on_c, 0, 72, 70
2, 19869, Note_on_c, 0, 72, 0
2, 19944, Note_on_c, 0, 75, 70
2, 19956, Note_on_c, 0, 75, 0
2, 19956, Note_on_c, 0, 72, 70
2, 19968, Note_on_c, 0, 72, 0
2, 19968, Note_on_c, 0, 69, 70
2, 20016, Note_on_c, 0, 69, 0
2, 20016, Note_on_c, 0, 70, 72
2, 20061, Note_on_c, 0, 70, 0
2, 20064, Note_on_c, 0, 70, 74
2, 20076, Note_on_c, 0, 70, 0
2, 20076, Note_on_c, 0, 72, 74
2, 20088, Note_on_c, 0, 72, 0
2, 20088, Note_on_c, 0, 74, 75
2, 20100, Note_on_c, 0, 74, 0
2, 20100, Note_on_c, 0, 75, 75
2, 20112, Note_on_c, 0, 75, 0
2, 20112, Note_on_c, 0, 77, 76
2, 20124, Note_on_c, 0, 77, 0
2, 20124, Note_on_c, 0, 79, 76
2, 20136, Note_on_c, 0, 79, 0
2, 20136, Note_on_c, 0, 81, 77
2, 20148, Note_on_c, 0, 81, 0
2, 20148, Note_on_c, 0, 82, 77
2, 20160, Note_on_c, 0, 82, 0
2, 20160, Note_on_c, 0, 79, 78
2, 20227, Note_on_c, 0, 79, 0
2, 20232, Note_on_c, 0, 77, 81
2, 20244, Note_on_c, 0, 77, 0
2, 20244, Note_on_c, 0, 75, 81
2, 20256, Note_on_c, 0, 75, 0
2, 20256, Note_on_c, 0, 74, 81
2, 20301, Note_on_c, 0, 74, 0
2, 20304, Note_on_c, 0, 72, 78
2, 20314, Note_on_c, 0, 72, 0
2, 20314, Note_on_c, 0, 74, 77
2, 20324, Note_on_c, 0, 74, 0
2, 20324, Note_on_c, 0, 72, 77
2, 20334, Note_on_c, 0, 72, 0
2, 20334, Note_on_c, 0, 74, 76
2, 20343, Note_on_c, 0, 74, 0
2, 20343, Note_on_c, 0, 72, 76
2, 20352, Note_on_c, 0, 72, 0
2, 20352, Note_on_c, 0, 70, 75
2, 20375, Note_on_c, 0, 70, 0
2, 20400, Note_on_c, 0, 70, 75
2, 20415, Note_on_c, 0, 70, 0
2, 20416, Note_on_c, 0, 74, 75
2, 20431, Note_on_c, 0, 74, 0
2, 20432, Note_on_c, 0, 77, 75
2, 20447, Note_on_c, 0, 77, 0
2, 20448, Note_on_c, 0, 75, 75
2, 20463, Note_on_c, 0, 75, 0
2, 20464, Note_on_c, 0, 72, 75
2, 20479, Note_on_c, 0, 72, 0
2, 20480, Note_on_c, 0, 69, 75
2, 20495, Note_on_c, 0, 69, 0
2, 20496, Note_on_c, 0, 72, 75
2, 20511, Note_on_c, 0, 72, 0
2, 20512, Note_on_c, 0, 69, 75
2, 20527, Note_on_c, 0, 69, 0
2, 20528, Note_on_c, 0, 65, 75
2, 20543, Note_on_c, 0, 65, 0
2, 20544, Note_on_c, 0, 62, 75
2, 20559, Note_on_c, 0, 62, 0
2, 20560, Note_on_c, 0, 65, 75
2, 20575, Note_on_c, 0, 65, 0
2, 20576, Note_on_c, 0, 70, 75
2, 20591, Note_on_c, 0, 70, 0
2, 20592, Note_on_c, 0, 67, 75
2, 20607, Note_on_c, 0, 67, 0
2, 20608, Note_on_c, 0, 75, 75
2, 20623, Note_on_c, 0, 75, 0
2, 20624, Note_on_c, 0, 72, 75
2, 20639, Note_on_c, 0, 72, 0
2, 20640, Note_on_c, 0, 70, 75
2, 20685, Note_on_c, 0, 70, 0
2, 20688, Note_on_c, 0, 69, 75
2, 20698, Note_on_c, 0, 69, 0
2, 20698, Note_on_c, 0, 70, 75
2, 20708, Note_on_c, 0, 70, 0
2, 20708, Note_on_c, 0, 69, 75
2, 20718, Note_on_c, 0, 69, 0
2, 20718, Note_on_c, 0, 67, 75
2, 20727, Note_on_c, 0, 67, 0
2, 20727, Note_on_c, 0, 69, 75
2, 20736, Note_on_c, 0, 69, 0
2, 20736, Note_on_c, 0, 70, 75
2, 20759, Note_on_c, 0, 70, 0
2, 20784, Note_on_c, 0, 70, 75
2, 20799, Note_on_c, 0, 70, 0
2, 20800, Note_on_c, 0, 74, 75
2, 20815, Note_on_c, 0, 74, 0
2, 20816, Note_on_c, 0, 77, 75
2, 20831, Note_on_c, 0, 77, 0
2, 20832, Note_on_c, 0, 75, 75
2, 20847, Note_on_c, 0, 75, 0
2, 20848, Note_on_c, 0, 72, 75
2, 20863, Note_on_c, 0, 72, 0
2, 20864, Note_on_c, 0, 69, 75
2, 20879, Note_on_c, 0, 69, 0
2, 20880, Note_on_c, 0, 72, 75
2, 20895, Note_on_c, 0, 72, 0
2, 20896, Note_on_c, 0, 69, 75
2, 20911, Note_on_c, 0, 69, 0
2, 20912, Note_on_c, 0, 65, 75
2, 20927, Note_on_c, 0, 65, 0
2, 20928, Note_on_c, 0, 62, 75
2, 20943, Note_on_c, 0, 62, 0
2, 20944, Note_on_c, 0, 65, 75
2, 20959, Note_on_c, 0, 65, 0
2, 20960, Note_on_c, 0, 70, 75
2, 20975, Note_on_c, 0, 70, 0
2, 20976, Note_on_c, 0, 67, 75
2, 20991, Note_on_c, 0, 67, 0
2, 20992, Note_on_c, 0, 75, 75
2, 21007, Note_on_c, 0, 75, 0
2, 21008, Note_on_c, 0, 72, 75
2, 21023, Note_on_c, 0, 72, 0
2, 21024, Note_on_c, 0, 70, 75
2, 21069, Note_on_c, 0, 70, 0
2, 21072, Note_on_c, 0, 69, 75
2, 21082, Note_on_c, 0, 69, 0
2, 21082, Note_on_c, 0, 70, 75
2, 21092, Note_on_c, 0, 70, 0
2, 21092, Note_on_c, 0, 69, 75
2, 21102, Note_on_c, 0, 69, 0
2, 21102, Note_on_c, 0, 67, 75
2, 21111, Note_on_c, 0, 67, 0
2, 21111, Note_on_c, 0, 69, 75
2, 21120, Note_on_c, 0, 69, 0
2, 21120, Note_on_c, 0, 70, 75
2, 21209, Note_on_c, 0, 70, 0
2, 21216, Note_on_c, 0, 65, 70
2, 21234, Note_on_c, 0, 65, 0
2, 21234, Note_on_c, 0, 75, 70
2, 21283, Note_on_c, 0, 75, 0
2, 21288, Note_on_c, 0, 72, 70
2, 21300, Note_on_c, 0, 72, 0
2, 21300, Note_on_c, 0, 69, 70
2, 21312, Note_on_c, 0, 69, 0
2, 21312, Note_on_c, 0, 70, 70
2, 21401, Note_on_c, 0, 70, 0
2, 21504, Note_on_c, 0, 58, 75
2, 21593, Note_on_c, 0, 58, 0
2, 21600, Note_on_c, 0, 58, 75
2, 21634, Note_on_c, 0, 58, 0
2, 21636, Note_on_c, 0, 60, 75
2, 21648, Note_on_c, 0, 60, 0
2, 21648, Note_on_c, 0, 62, 75
2, 21682, Note_on_c, 0, 62, 0
2, 21684, Note_on_c, 0, 63, 75
2, 21696, Note_on_c, 0, 63, 0
2, 21696, Note_on_c, 0, 65, 75
2, 21815, Note_on_c, 0, 65, 0
2, 21816, Note_on_c, 0, 67, 77
2, 21828, Note_on_c, 0, 67, 0
2, 21828, Note_on_c, 0, 69, 77
2, 21840, Note_on_c, 0, 69, 0
2, 21840, Note_on_c, 0, 70, 78
2, 21852, Note_on_c, 0, 70, 0
2, 21852, Note_on_c, 0, 72, 78
2, 21864, Note_on_c, 0, 72, 0
2, 21864, Note_on_c, 0, 74, 78
2, 21876, Note_on_c, 0, 74, 0
2, 21876, Note_on_c, 0, 75, 78
2, 21888, Note_on_c, 0, 75, 0
2, 21888, Note_on_c, 0, 77, 95
2, 21984, Note_on_c, 0, 77, 0
2, 21984, Note_on_c, 0, 75, 75
2, 22007, Note_on_c, 0, 75, 0
2, 22008, Note_on_c, 0, 74, 75
2, 22031, Note_on_c, 0, 74, 0
2, 22032, Note_on_c, 0, 72, 75
2, 22055, Note_on_c, 0, 72, 0
2, 22056, Note_on_c, 0, 70, 75
2, 22079, Note_on_c, 0, 70, 0
2, 22080, Note_on_c, 0, 75, 75
2, 22095, Note_on_c, 0, 75, 0
2, 22096, Note_on_c, 0, 77, 81
2, 22111, Note_on_c, 0, 77, 0
2, 22112, Note_on_c, 0, 79, 80
2, 22127, Note_on_c, 0, 79, 0
2, 22128, Note_on_c, 0, 77, 79
2, 22173, Note_on_c, 0, 77, 0
2, 22176, Note_on_c, 0, 82, 75
2, 22191, Note_on_c, 0, 82, 0
2, 22192, Note_on_c, 0, 81, 75
2, 22207, Note_on_c, 0, 81, 0
2, 22208, Note_on_c, 0, 79, 75
2, 22223, Note_on_c, 0, 79, 0
2, 22224, Note_on_c, 0, 77, 75
2, 22234, Note_on_c, 0, 77, 0
2, 22248, Note_on_c, 0, 77, 75
2, 22271, Note_on_c, 0, 77, 0
2, 22272, Note_on_c, 0, 75, 75
2, 22282, Note_on_c, 0, 75, 0
2, 22282, Note_on_c, 0, 77, 75
2, 22292, Note_on_c, 0, 77, 0
2, 22292, Note_on_c, 0, 75, 75
2, 22302, Note_on_c, 0, 75, 0
2, 22302, Note_on_c, 0, 74, 75
2, 22311, Note_on_c, 0, 74, 0
2, 22311, Note_on_c, 0, 75, 75
2, 22320, Note_on_c, 0, 75, 0
2, 22320, Note_on_c, 0, 74, 75
2, 22365, Note_on_c, 0, 74, 0
2, 22368, Note_on_c, 0, 82, 75
2, 22383, Note_on_c, 0, 82, 0
2, 22384, Note_on_c, 0, 81, 75
2, 22399, Note_on_c, 0, 81, 0
2, 22400, Note_on_c, 0, 79, 75
2, 22415, Note_on_c, 0, 79, 0
2, 22416, Note_on_c, 0, 77, 75
2, 22426, Note_on_c, 0, 77, 0
2, 22440, Note_on_c, 0, 77, 75
2, 22463, Note_on_c, 0, 77, 0
2, 22464, Note_on_c, 0, 75, 75
2, 22474, Note_on_c, 0, 75, 0
2, 22474, Note_on_c, 0, 77, 75
2, 22484, Note_on_c, 0, 77, 0
2, 22484, Note_on_c, 0, 75, 75
2, 22494, Note_on_c, 0, 75, 0
2, 22494, Note_on_c, 0, 74, 75
2, 22503, Note_on_c, 0, 74, 0
2, 22503, Note_on_c, 0, 75, 75
2, 22512, Note_on_c, 0, 75, 0
2, 22512, Note_on_c, 0, 74, 75
2, 22557, Note_on_c, 0, 74, 0
2, 22560, Note_on_c, 0, 77, 75
2, 22575, Note_on_c, 0, 77, 0
2, 22576, Note_on_c, 0, 75, 75
2, 22591, Note_on_c, 0, 75, 0
2, 22592, Note_on_c, 0, 74, 75
2, 22607, Note_on_c, 0, 74, 0
2, 22608, Note_on_c, 0, 72, 75
2, 22623, Note_on_c, 0, 72, 0
2, 22624, Note_on_c, 0, 70, 75
2, 22639, Note_on_c, 0, 70, 0
2, 22640, Note_on_c, 0, 68, 75
2, 22655, Note_on_c, 0, 68, 0
2, 22656, Note_on_c, 0, 67, 75
2, 22666, Note_on_c, 0, 67, 0
2, 22680, Note_on_c, 0, 71, 75
2, 22703, Note_on_c, 0, 71, 0
2, 22704, Note_on_c, 0, 72, 75
2, 22727, Note_on_c, 0, 72, 0
2, 22728, Note_on_c, 0, 71, 75
2, 22751, Note_on_c, 0, 71, 0
2, 22752, Note_on_c, 0, 72, 75
2, 22762, Note_on_c, 0, 72, 0
2, 22762, Note_on_c, 0, 74, 75
2, 22772, Note_on_c, 0, 74, 0
2, 22772, Note_on_c, 0, 72, 75
2, 22782, Note_on_c, 0, 72, 0
2, 22782, Note_on_c, 0, 74, 75
2, 22792, Note_on_c, 0, 74, 0
2, 22792, Note_on_c, 0, 72, 75
2, 22802, Note_on_c, 0, 72, 0
2, 22802, Note_on_c, 0, 74, 75
2, 22812, Note_on_c, 0, 74, 0
2, 22812, Note_on_c, 0, 72, 75
2, 22821, Note_on_c, 0, 72, 0
2, 22821, Note_on_c, 0, 74, 75
2, 22830, Note_on_c, 0, 74, 0
2, 22830, Note_on_c, 0, 72, 75
2, 22872, Note_on_c, 0, 72, 0
2, 22873, Note_on_c, 0, 74, 75
2, 22896, Note_on_c, 0, 74, 0
2, 22897, Note_on_c, 0, 75, 75
2, 22920, Note_on_c, 0, 75, 0
2, 22921, Note_on_c, 0, 77, 75
2, 22944, Note_on_c, 0, 77, 0
2, 22945, Note_on_c, 0, 79, 75
2, 22960, Note_on_c, 0, 79, 0
2, 22961, Note_on_c, 0, 77, 75
2, 22976, Note_on_c, 0, 77, 0
2, 22977, Note_on_c, 0, 75, 75
2, 22992, Note_on_c, 0, 75, 0
2, 22993, Note_on_c, 0, 74, 75
2, 23008, Note_on_c, 0, 74, 0
2, 23009, Note_on_c, 0, 72, 75
2, 23024, Note_on_c, 0, 72, 0
2, 23025, Note_on_c, 0, 70, 75
2, 23040, Note_on_c, 0, 70, 0
2, 23041, Note_on_c, 0, 69, 75
2, 23051, Note_on_c, 0, 69, 0
2, 23065, Note_on_c, 0, 73, 70
2, 23088, Note_on_c, 0, 73, 0
2, 23089, Note_on_c, 0, 74, 70
2, 23112, Note_on_c, 0, 74, 0
2, 23113, Note_on_c, 0, 73, 70
2, 23136, Note_on_c, 0, 73, 0
2, 23137, Note_on_c, 0, 74, 71
2, 23147, Note_on_c, 0, 74, 0
2, 23147, Note_on_c, 0, 75, 71
2, 23157, Note_on_c, 0, 75, 0
2, 23157, Note_on_c, 0, 74, 71
2, 23167, Note_on_c, 0, 74, 0
2, 23167, Note_on_c, 0, 75, 71
2, 23177, Note_on_c, 0, 75, 0
2, 23177, Note_on_c, 0, 74, 71
2, 23187, Note_on_c, 0, 74, 0
2, 23187, Note_on_c, 0, 75, 71
2, 23197, Note_on_c, 0, 75, 0
2, 23197, Note_on_c, 0, 74, 71
2, 23206, Note_on_c, 0, 74, 0
2, 23206, Note_on_c, 0, 75, 71
2, 23215, Note_on_c, 0, 75, 0
2, 23215, Note_on_c, 0, 74, 71
2, 23257, Note_on_c, 0, 74, 0
2, 23258, Note_on_c, 0, 76, 72
2, 23281, Note_on_c, 0, 76, 0
2, 23282, Note_on_c, 0, 77, 72
2, 23305, Note_on_c, 0, 77, 0
2, 23306, Note_on_c, 0, 79, 73
2, 23329, Note_on_c, 0, 79, 0
2, 23330, Note_on_c, 0, 81, 73
2, 23345, Note_on_c, 0, 81, 0
2, 23346, Note_on_c, 0, 79, 73
2, 23361, Note_on_c, 0, 79, 0
2, 23362, Note_on_c, 0, 77, 73
2, 23377, Note_on_c, 0, 77, 0
2, 23378, Note_on_c, 0, 75, 73
2, 23393, Note_on_c, 0, 75, 0
2, 23394, Note_on_c, 0, 74, 74
2, 23409, Note_on_c, 0, 74, 0
2, 23410, Note_on_c, 0, 72, 74
2, 23425, Note_on_c, 0, 72, 0
2, 23426, Note_on_c, 0, 70, 74
2, 23436, Note_on_c, 0, 70, 0
2, 23450, Note_on_c, 0, 74, 74
2, 23473, Note_on_c, 0, 74, 0
2, 23474, Note_on_c, 0, 75, 75
2, 23497, Note_on_c, 0, 75, 0
2, 23498, Note_on_c, 0, 74, 75
2, 23521, Note_on_c, 0, 74, 0
2, 23522, Note_on_c, 0, 77, 75
2, 23562, Note_on_c, 0, 77, 0
2, 23562, Note_on_c, 0, 75, 76
2, 23572, Note_on_c, 0, 75, 0
2, 23572, Note_on_c, 0, 77, 76
2, 23582, Note_on_c, 0, 77, 0
2, 23582, Note_on_c, 0, 75, 76
2, 23591, Note_on_c, 0, 75, 0
2, 23591, Note_on_c, 0, 77, 76
2, 23600, Note_on_c, 0, 77, 0
2, 23600, Note_on_c, 0, 75, 76
2, 23609, Note_on_c, 0, 75, 0
2, 23609, Note_on_c, 0, 77, 76
2, 23618, Note_on_c, 0, 77, 0
2, 23618, Note_on_c, 0, 75, 76
2, 23641, Note_on_c, 0, 75, 0
2, 23642, Note_on_c, 0, 77, 76
2, 23665, Note_on_c, 0, 77, 0
2, 23666, Note_on_c, 0, 79, 77
2, 23689, Note_on_c, 0, 79, 0
2, 23690, Note_on_c, 0, 81, 77
2, 23713, Note_on_c, 0, 81, 0
2, 23714, Note_on_c, 0, 82, 77
2, 23729, Note_on_c, 0, 82, 0
2, 23730, Note_on_c, 0, 81, 78
2, 23745, Note_on_c, 0, 81, 0
2, 23746, Note_on_c, 0, 79, 78
2, 23761, Note_on_c, 0, 79, 0
2, 23762, Note_on_c, 0, 77, 78
2, 23777, Note_on_c, 0, 77, 0
2, 23778, Note_on_c, 0, 75, 78
2, 23793, Note_on_c, 0, 75, 0
2, 23794, Note_on_c, 0, 74, 78
2, 23809, Note_on_c, 0, 74, 0
2, 23810, Note_on_c, 0, 72, 79
2, 23820, Note_on_c, 0, 72, 0
2, 23834, Note_on_c, 0, 76, 81
2, 23857, Note_on_c, 0, 76, 0
2, 23858, Note_on_c, 0, 77, 81
2, 23881, Note_on_c, 0, 77, 0
2, 23882, Note_on_c, 0, 76, 81
2, 23905, Note_on_c, 0, 76, 0
2, 23906, Note_on_c, 0, 79, 81
2, 23946, Note_on_c, 0, 79, 0
2, 23946, Note_on_c, 0, 77, 81
2, 23956, Note_on_c, 0, 77, 0
2, 23956, Note_on_c, 0, 79, 81
2, 23966, Note_on_c, 0, 79, 0
2, 23966, Note_on_c, 0, 77, 81
2, 23975, Note_on_c, 0, 77, 0
2, 23975, Note_on_c, 0, 79, 81
2, 23984, Note_on_c, 0, 79, 0
2, 23984, Note_on_c, 0, 77, 81
2, 23993, Note_on_c, 0, 77, 0
2, 23993, Note_on_c, 0, 79, 81
2, 24002, Note_on_c, 0, 79, 0
2, 24002, Note_on_c, 0, 77, 81
2, 24025, Note_on_c, 0, 77, 0
2, 24026, Note_on_c, 0, 79, 81
2, 24049, Note_on_c, 0, 79, 0
2, 24050, Note_on_c, 0, 81, 81
2, 24073, Note_on_c, 0, 81, 0
2, 24074, Note_on_c, 0, 82, 81
2, 24097, Note_on_c, 0, 82, 0
2, 24098, Note_on_c, 0, 84, 81
2, 24113, Note_on_c, 0, 84, 0
2, 24114, Note_on_c, 0, 82, 81
2, 24129, Note_on_c, 0, 82, 0
2, 24130, Note_on_c, 0, 81, 81
2, 24145, Note_on_c, 0, 81, 0
2, 24146, Note_on_c, 0, 79, 81
2, 24161, Note_on_c, 0, 79, 0
2, 24162, Note_on_c, 0, 77, 81
2, 24177, Note_on_c, 0, 77, 0
2, 24178, Note_on_c, 0, 75, 81
2, 24193, Note_on_c, 0, 75, 0
2, 24194, Note_on_c, 0, 74, 70
2, 24239, Note_on_c, 0, 74, 0
2, 24242, Note_on_c, 0, 79, 86
2, 24324, Note_on_c, 0, 79, 0
2, 24326, Note_on_c, 0, 82, 70
2, 24338, Note_on_c, 0, 82, 0
2, 24338, Note_on_c, 0, 81, 70
2, 24372, Note_on_c, 0, 81, 0
2, 24374, Note_on_c, 0, 79, 70
2, 24386, Note_on_c, 0, 79, 0
2, 24386, Note_on_c, 0, 79, 70
2, 24482, Note_on_c, 0, 79, 0
2, 24482, Note_on_c, 0, 78, 70
2, 24527, Note_on_c, 0, 78, 0
2, 24578, Note_on_c, 0, 69, 70
2, 24593, Note_on_c, 0, 69, 0
2, 24594, Note_on_c, 0, 72, 70
2, 24609, Note_on_c, 0, 72, 0
2, 24610, Note_on_c, 0, 75, 71
2, 24625, Note_on_c, 0, 75, 0
2, 24626, Note_on_c, 0, 78, 71
2, 24641, Note_on_c, 0, 78, 0
2, 24642, Note_on_c, 0, 81, 72
2, 24657, Note_on_c, 0, 81, 0
2, 24658, Note_on_c, 0, 84, 73
2, 24673, Note_on_c, 0, 84, 0
2, 24674, Note_on_c, 0, 82, 73
2, 24689, Note_on_c, 0, 82, 0
2, 24690, Note_on_c, 0, 81, 74
2, 24705, Note_on_c, 0, 81, 0
2, 24706, Note_on_c, 0, 79, 75
2, 24721, Note_on_c, 0, 79, 0
2, 24722, Note_on_c, 0, 78, 74
2, 24737, Note_on_c, 0, 78, 0
2, 24738, Note_on_c, 0, 75, 73
2, 24753, Note_on_c, 0, 75, 0
2, 24754, Note_on_c, 0, 74, 73
2, 24769, Note_on_c, 0, 74, 0
2, 24770, Note_on_c, 0, 72, 70
2, 24866, Note_on_c, 0, 72, 0
2, 24866, Note_on_c, 0, 70, 70
2, 24955, Note_on_c, 0, 70, 0
2, 24962, Note_on_c, 0, 69, 70
2, 24977, Note_on_c, 0, 69, 0
2, 24978, Note_on_c, 0, 72, 70
2, 24993, Note_on_c, 0, 72, 0
2, 24994, Note_on_c, 0, 75, 70
2, 25009, Note_on_c, 0, 75, 0
2, 25010, Note_on_c, 0, 74, 70
2, 25025, Note_on_c, 0, 74, 0
2, 25026, Note_on_c, 0, 72, 70
2, 25041, Note_on_c, 0, 72, 0
2, 25042, Note_on_c, 0, 70, 70
2, 25057, Note_on_c, 0, 70, 0
2, 25058, Note_on_c, 0, 69, 70
2, 25073, Note_on_c, 0, 69, 0
2, 25074, Note_on_c, 0, 75, 70
2, 25089, Note_on_c, 0, 75, 0
2, 25090, Note_on_c, 0, 74, 70
2, 25105, Note_on_c, 0, 74, 0
2, 25106, Note_on_c, 0, 72, 70
2, 25121, Note_on_c, 0, 72, 0
2, 25122, Note_on_c, 0, 70, 70
2, 25137, Note_on_c, 0, 70, 0
2, 25138, Note_on_c, 0, 69, 70
2, 25153, Note_on_c, 0, 69, 0
2, 25154, Note_on_c, 0, 67, 70
2, 25202, Note_on_c, 0, 67, 0
2, 25202, Note_on_c, 0, 66, 70
2, 25247, Note_on_c, 0, 66, 0
2, 25298, Note_on_c, 0, 74, 70
2, 25308, Note_on_c, 0, 74, 0
2, 25322, Note_on_c, 0, 74, 70
2, 25345, Note_on_c, 0, 74, 0
2, 25346, Note_on_c, 0, 74, 71
2, 25352, Note_on_c, 0, 74, 0
2, 25352, Note_on_c, 0, 75, 71
2, 25358, Note_on_c, 0, 75, 0
2, 25358, Note_on_c, 0, 74, 71
2, 25369, Note_on_c, 0, 74, 0
2, 25370, Note_on_c, 0, 73, 71
2, 25393, Note_on_c, 0, 73, 0
2, 25394, Note_on_c, 0, 73, 71
2, 25439, Note_on_c, 0, 73, 0
2, 25490, Note_on_c, 0, 81, 73
2, 25513, Note_on_c, 0, 81, 0
2, 25514, Note_on_c, 0, 72, 73
2, 25537, Note_on_c, 0, 72, 0
2, 25538, Note_on_c, 0, 72, 73
2, 25544, Note_on_c, 0, 72, 0
2, 25544, Note_on_c, 0, 74, 73
2, 25550, Note_on_c, 0, 74, 0
2, 25550, Note_on_c, 0, 72, 73
2, 25561, Note_on_c, 0, 72, 0
2, 25562, Note_on_c, 0, 70, 74
2, 25585, Note_on_c, 0, 70, 0
2, 25586, Note_on_c, 0, 70, 74
2, 25631, Note_on_c, 0, 70, 0
2, 25682, Note_on_c, 0, 79, 75
2, 25692, Note_on_c, 0, 79, 0
2, 25706, Note_on_c, 0, 79, 75
2, 25729, Note_on_c, 0, 79, 0
2, 25730, Note_on_c, 0, 79, 76
2, 25736, Note_on_c, 0, 79, 0
2, 25736, Note_on_c, 0, 81, 76
2, 25742, Note_on_c, 0, 81, 0
2, 25742, Note_on_c, 0, 79, 76
2, 25753, Note_on_c, 0, 79, 0
2, 25754, Note_on_c, 0, 78, 77
2, 25777, Note_on_c, 0, 78, 0
2, 25778, Note_on_c, 0, 78, 77
2, 25823, Note_on_c, 0, 78, 0
2, 25874, Note_on_c, 0, 86, 80
2, 25897, Note_on_c, 0, 86, 0
2, 25898, Note_on_c, 0, 77, 81
2, 25921, Note_on_c, 0, 77, 0
2, 25922, Note_on_c, 0, 77, 81
2, 25945, Note_on_c, 0, 77, 0
2, 25946, Note_on_c, 0, 75, 81
2, 25969, Note_on_c, 0, 75, 0
2, 25970, Note_on_c, 0, 84, 81
2, 25993, Note_on_c, 0, 84, 0
2, 25994, Note_on_c, 0, 75, 81
2, 26017, Note_on_c, 0, 75, 0
2, 26018, Note_on_c, 0, 75, 81
2, 26041, Note_on_c, 0, 75, 0
2, 26042, Note_on_c, 0, 74, 81
2, 26065, Note_on_c, 0, 74, 0
2, 26066, Note_on_c, 0, 82, 81
2, 26089, Note_on_c, 0, 82, 0
2, 26090, Note_on_c, 0, 74, 81
2, 26113, Note_on_c, 0, 74, 0
2, 26114, Note_on_c, 0, 74, 81
2, 26120, Note_on_c, 0, 74, 0
2, 26120, Note_on_c, 0, 75, 81
2, 26126, Note_on_c, 0, 75, 0
2, 26126, Note_on_c, 0, 74, 81
2, 26137, Note_on_c, 0, 74, 0
2, 26138, Note_on_c, 0, 72, 81
2, 26161, Note_on_c, 0, 72, 0
2, 26162, Note_on_c, 0, 81, 81
2, 26185, Note_on_c, 0, 81, 0
2, 26186, Note_on_c, 0, 72, 81
2, 26209, Note_on_c, 0, 72, 0
2, 26210, Note_on_c, 0, 72, 81
2, 26216, Note_on_c, 0, 72, 0
2, 26216, Note_on_c, 0, 74, 81
2, 26222, Note_on_c, 0, 74, 0
2, 26222, Note_on_c, 0, 72, 81
2, 26233, Note_on_c, 0, 72, 0
2, 26234, Note_on_c, 0, 70, 81
2, 26257, Note_on_c, 0, 70, 0
2, 26258, Note_on_c, 0, 75, 81
2, 26281, Note_on_c, 0, 75, 0
2, 26282, Note_on_c, 0, 75, 81
2, 26305, Note_on_c, 0, 75, 0
2, 26306, Note_on_c, 0, 75, 81
2, 26312, Note_on_c, 0, 75, 0
2, 26312, Note_on_c, 0, 77, 81
2, 26318, Note_on_c, 0, 77, 0
2, 26318, Note_on_c, 0, 75, 81
2, 26329, Note_on_c, 0, 75, 0
2, 26330, Note_on_c, 0, 74, 81
2, 26353, Note_on_c, 0, 74, 0
2, 26354, Note_on_c, 0, 79, 81
2, 26377, Note_on_c, 0, 79, 0
2, 26378, Note_on_c, 0, 79, 81
2, 26401, Note_on_c, 0, 79, 0
2, 26402, Note_on_c, 0, 79, 81
2, 26408, Note_on_c, 0, 79, 0
2, 26408, Note_on_c, 0, 81, 81
2, 26414, Note_on_c, 0, 81, 0
2, 26414, Note_on_c, 0, 79, 81
2, 26425, Note_on_c, 0, 79, 0
2, 26426, Note_on_c, 0, 78, 81
2, 26449, Note_on_c, 0, 78, 0
2, 26450, Note_on_c, 0, 84, 81
2, 26473, Note_on_c, 0, 84, 0
2, 26474, Note_on_c, 0, 84, 81
2, 26497, Note_on_c, 0, 84, 0
2, 26498, Note_on_c, 0, 82, 81
2, 26513, Note_on_c, 0, 82, 0
2, 26514, Note_on_c, 0, 81, 81
2, 26529, Note_on_c, 0, 81, 0
2, 26530, Note_on_c, 0, 79, 81
2, 26545, Note_on_c, 0, 79, 0
2, 26546, Note_on_c, 0, 78, 81
2, 26561, Note_on_c, 0, 78, 0
2, 26562, Note_on_c, 0, 76, 81
2, 26577, Note_on_c, 0, 76, 0
2, 26578, Note_on_c, 0, 74, 81
2, 26593, Note_on_c, 0, 74, 0
2, 26594, Note_on_c, 0, 81, 81
2, 26605, Note_on_c, 0, 81, 0
2, 26605, Note_on_c, 0, 82, 81
2, 26616, Note_on_c, 0, 82, 0
2, 26616, Note_on_c, 0, 81, 81
2, 26627, Note_on_c, 0, 81, 0
2, 26627, Note_on_c, 0, 82, 81
2, 26638, Note_on_c, 0, 82, 0
2, 26638, Note_on_c, 0, 81, 81
2, 26649, Note_on_c, 0, 81, 0
2, 26649, Note_on_c, 0, 82, 81
2, 26660, Note_on_c, 0, 82, 0
2, 26660, Note_on_c, 0, 81, 81
2, 26670, Note_on_c, 0, 81, 0
2, 26670, Note_on_c, 0, 79, 81
2, 26680, Note_on_c, 0, 79, 0
2, 26680, Note_on_c, 0, 81, 81
2, 26690, Note_on_c, 0, 81, 0
2, 26690, Note_on_c, 0, 79, 81
2, 26779, Note_on_c, 0, 79, 0
2, 26786, Note_on_c, 0, 74, 70
2, 26792, Note_on_c, 0, 74, 0
2, 26792, Note_on_c, 0, 79, 70
2, 26798, Note_on_c, 0, 79, 0
2, 26798, Note_on_c, 0, 82, 86
2, 26858, Note_on_c, 0, 82, 0
2, 26858, Note_on_c, 0, 79, 70
2, 26870, Note_on_c, 0, 79, 0
2, 26870, Note_on_c, 0, 76, 70
2, 26882, Note_on_c, 0, 76, 0
2, 26882, Note_on_c, 0, 73, 70
2, 26897, Note_on_c, 0, 73, 0
2, 26898, Note_on_c, 0, 74, 70
2, 26913, Note_on_c, 0, 74, 0
2, 26914, Note_on_c, 0, 76, 70
2, 26929, Note_on_c, 0, 76, 0
2, 26930, Note_on_c, 0, 74, 70
2, 26975, Note_on_c, 0, 74, 0
2, 26978, Note_on_c, 0, 80, 86
2, 27050, Note_on_c, 0, 80, 0
2, 27050, Note_on_c, 0, 77, 70
2, 27062, Note_on_c, 0, 77, 0
2, 27062, Note_on_c, 0, 74, 70
2, 27074, Note_on_c, 0, 74, 0
2, 27074, Note_on_c, 0, 71, 70
2, 27089, Note_on_c, 0, 71, 0
2, 27090, Note_on_c, 0, 72, 70
2, 27105, Note_on_c, 0, 72, 0
2, 27106, Note_on_c, 0, 74, 70
2, 27121, Note_on_c, 0, 74, 0
2, 27122, Note_on_c, 0, 72, 70
2, 27167, Note_on_c, 0, 72, 0
2, 27170, Note_on_c, 0, 75, 70
2, 27176, Note_on_c, 0, 75, 0
2, 27176, Note_on_c, 0, 77, 70
2, 27182, Note_on_c, 0, 77, 0
2, 27182, Note_on_c, 0, 79, 70
2, 27237, Note_on_c, 0, 79, 0
2, 27242, Note_on_c, 0, 75, 70
2, 27254, Note_on_c, 0, 75, 0
2, 27254, Note_on_c, 0, 72, 70
2, 27266, Note_on_c, 0, 72, 0
2, 27266, Note_on_c, 0, 69, 70
2, 27281, Note_on_c, 0, 69, 0
2, 27282, Note_on_c, 0, 70, 70
2, 27297, Note_on_c, 0, 70, 0
2, 27298, Note_on_c, 0, 72, 70
2, 27313, Note_on_c, 0, 72, 0
2, 27314, Note_on_c, 0, 70, 70
2, 27359, Note_on_c, 0, 70, 0
2, 27362, Note_on_c, 0, 77, 75
2, 27377, Note_on_c, 0, 77, 0
2, 27378, Note_on_c, 0, 75, 75
2, 27393, Note_on_c, 0, 75, 0
2, 27394, Note_on_c, 0, 74, 75
2, 27409, Note_on_c, 0, 74, 0
2, 27410, Note_on_c, 0, 72, 75
2, 27425, Note_on_c, 0, 72, 0
2, 27426, Note_on_c, 0, 70, 75
2, 27441, Note_on_c, 0, 70, 0
2, 27442, Note_on_c, 0, 68, 75
2, 27457, Note_on_c, 0, 68, 0
2, 27458, Note_on_c, 0, 67, 75
2, 27468, Note_on_c, 0, 67, 0
2, 27482, Note_on_c, 0, 70, 76
2, 27492, Note_on_c, 0, 70, 0
2, 27506, Note_on_c, 0, 75, 77
2, 27516, Note_on_c, 0, 75, 0
2, 27530, Note_on_c, 0, 79, 79
2, 27540, Note_on_c, 0, 79, 0
2, 27554, Note_on_c, 0, 77, 80
2, 27569, Note_on_c, 0, 77, 0
2, 27570, Note_on_c, 0, 75, 81
2, 27585, Note_on_c, 0, 75, 0
2, 27586, Note_on_c, 0, 74, 80
2, 27601, Note_on_c, 0, 74, 0
2, 27602, Note_on_c, 0, 72, 79
2, 27617, Note_on_c, 0, 72, 0
2, 27618, Note_on_c, 0, 70, 78
2, 27633, Note_on_c, 0, 70, 0
2, 27634, Note_on_c, 0, 68, 77
2, 27649, Note_on_c, 0, 68, 0
2, 27650, Note_on_c, 0, 67, 75
2, 27660, Note_on_c, 0, 67, 0
2, 27674, Note_on_c, 0, 70, 76
2, 27684, Note_on_c, 0, 70, 0
2, 27698, Note_on_c, 0, 75, 77
2, 27708, Note_on_c, 0, 75, 0
2, 27722, Note_on_c, 0, 79, 79
2, 27732, Note_on_c, 0, 79, 0
2, 27746, Note_on_c, 0, 77, 80
2, 27761, Note_on_c, 0, 77, 0
2, 27762, Note_on_c, 0, 75, 81
2, 27777, Note_on_c, 0, 75, 0
2, 27778, Note_on_c, 0, 74, 80
2, 27793, Note_on_c, 0, 74, 0
2, 27794, Note_on_c, 0, 72, 79
2, 27809, Note_on_c, 0, 72, 0
2, 27810, Note_on_c, 0, 70, 78
2, 27825, Note_on_c, 0, 70, 0
2, 27826, Note_on_c, 0, 68, 77
2, 27841, Note_on_c, 0, 68, 0
2, 27842, Note_on_c, 0, 67, 81
2, 27853, Note_on_c, 0, 67, 0
2, 27853, Note_on_c, 0, 68, 81
2, 27864, Note_on_c, 0, 68, 0
2, 27864, Note_on_c, 0, 67, 81
2, 27874, Note_on_c, 0, 67, 0
2, 27874, Note_on_c, 0, 68, 81
2, 27884, Note_on_c, 0, 68, 0
2, 27884, Note_on_c, 0, 67, 81
2, 27894, Note_on_c, 0, 67, 0
2, 27894, Note_on_c, 0, 68, 81
2, 27904, Note_on_c, 0, 68, 0
2, 27904, Note_on_c, 0, 67, 81
2, 27914, Note_on_c, 0, 67, 0
2, 27914, Note_on_c, 0, 68, 81
2, 27924, Note_on_c, 0, 68, 0
2, 27924, Note_on_c, 0, 67, 81
2, 27934, Note_on_c, 0, 67, 0
2, 27934, Note_on_c, 0, 68, 81
2, 27944, Note_on_c, 0, 68, 0
2, 27944, Note_on_c, 0, 67, 81
2, 27954, Note_on_c, 0, 67, 0
2, 27954, Note_on_c, 0, 68, 81
2, 27964, Note_on_c, 0, 68, 0
2, 27964, Note_on_c, 0, 67, 81
2, 27974, Note_on_c, 0, 67, 0
2, 27974, Note_on_c, 0, 68, 81
2, 27984, Note_on_c, 0, 68, 0
2, 27984, Note_on_c, 0, 67, 81
2, 27994, Note_on_c, 0, 67, 0
2, 27994, Note_on_c, 0, 68, 81
2, 28004, Note_on_c, 0, 68, 0
2, 28004, Note_on_c, 0, 67, 81
2, 28014, Note_on_c, 0, 67, 0
2, 28014, Note_on_c, 0, 68, 81
2, 28024, Note_on_c, 0, 68, 0
2, 28024, Note_on_c, 0, 67, 81
2, 28034, Note_on_c, 0, 67, 0
2, 28034, Note_on_c, 0, 68, 81
2, 28044, Note_on_c, 0, 68, 0
2, 28044, Note_on_c, 0, 66, 81
2, 28054, Note_on_c, 0, 66, 0
2, 28054, Note_on_c, 0, 68, 81
2, 28064, Note_on_c, 0, 68, 0
2, 28064, Note_on_c, 0, 66, 81
2, 28074, Note_on_c, 0, 66, 0
2, 28074, Note_on_c, 0, 68, 81
2, 28084, Note_on_c, 0, 68, 0
2, 28084, Note_on_c, 0, 66, 81
2, 28094, Note_on_c, 0, 66, 0
2, 28094, Note_on_c, 0, 68, 81
2, 28104, Note_on_c, 0, 68, 0
2, 28104, Note_on_c, 0, 66, 81
2, 28114, Note_on_c, 0, 66, 0
2, 28114, Note_on_c, 0, 68, 81
2, 28124, Note_on_c, 0, 68, 0
2, 28124, Note_on_c, 0, 66, 81
2, 28134, Note_on_c, 0, 66, 0
2, 28134, Note_on_c, 0, 68, 81
2, 28144, Note_on_c, 0, 68, 0
2, 28144, Note_on_c, 0, 66, 81
2, 28154, Note_on_c, 0, 66, 0
2, 28154, Note_on_c, 0, 68, 81
2, 28163, Note_on_c, 0, 68, 0
2, 28163, Note_on_c, 0, 66, 81
2, 28172, Note_on_c, 0, 66, 0
2, 28172, Note_on_c, 0, 68, 81
2, 28181, Note_on_c, 0, 68, 0
2, 28181, Note_on_c, 0, 66, 81
2, 28190, Note_on_c, 0, 66, 0
2, 28190, Note_on_c, 0, 68, 81
2, 28199, Note_on_c, 0, 68, 0
2, 28199, Note_on_c, 0, 66, 81
2, 28208, Note_on_c, 0, 66, 0
2, 28208, Note_on_c, 0, 65, 81
2, 28217, Note_on_c, 0, 65, 0
2, 28217, Note_on_c, 0, 66, 81
2, 28226, Note_on_c, 0, 66, 0
2, 28226, Note_on_c, 0, 65, 81
2, 28249, Note_on_c, 0, 65, 0
2, 28250, Note_on_c, 0, 70, 81
2, 28273, Note_on_c, 0, 70, 0
2, 28298, Note_on_c, 0, 70, 81
2, 28308, Note_on_c, 0, 70, 0
2, 28322, Note_on_c, 0, 68, 81
2, 28332, Note_on_c, 0, 68, 0
2, 28332, Note_on_c, 0, 66, 81
2, 28342, Note_on_c, 0, 66, 0
2, 28342, Note_on_c, 0, 68, 81
2, 28352, Note_on_c, 0, 68, 0
2, 28352, Note_on_c, 0, 66, 81
2, 28362, Note_on_c, 0, 66, 0
2, 28362, Note_on_c, 0, 68, 81
2, 28372, Note_on_c, 0, 68, 0
2, 28372, Note_on_c, 0, 66, 81
2, 28382, Note_on_c, 0, 66, 0
2, 28382, Note_on_c, 0, 68, 81
2, 28391, Note_on_c, 0, 68, 0
2, 28391, Note_on_c, 0, 66, 81
2, 28400, Note_on_c, 0, 66, 0
2, 28400, Note_on_c, 0, 65, 81
2, 28409, Note_on_c, 0, 65, 0
2, 28409, Note_on_c, 0, 66, 81
2, 28418, Note_on_c, 0, 66, 0
2, 28418, Note_on_c, 0, 65, 81
2, 28441, Note_on_c, 0, 65, 0
2, 28442, Note_on_c, 0, 70, 81
2, 28465, Note_on_c, 0, 70, 0
2, 28490, Note_on_c, 0, 70, 81
2, 28500, Note_on_c, 0, 70, 0
2, 28514, Note_on_c, 0, 68, 81
2, 28524, Note_on_c, 0, 68, 0
2, 28524, Note_on_c, 0, 66, 81
2, 28534, Note_on_c, 0, 66, 0
2, 28534, Note_on_c, 0, 68, 81
2, 28544, Note_on_c, 0, 68, 0
2, 28544, Note_on_c, 0, 66, 81
2, 28554, Note_on_c, 0, 66, 0
2, 28554, Note_on_c, 0, 68, 81
2, 28564, Note_on_c, 0, 68, 0
2, 28564, Note_on_c, 0, 66, 81
2, 28574, Note_on_c, 0, 66, 0
2, 28574, Note_on_c, 0, 68, 81
2, 28583, Note_on_c, 0, 68, 0
2, 28583, Note_on_c, 0, 66, 81
2, 28592, Note_on_c, 0, 66, 0
2, 28592, Note_on_c, 0, 65, 81
2, 28601, Note_on_c, 0, 65, 0
2, 28601, Note_on_c, 0, 66, 81
2, 28610, Note_on_c, 0, 66, 0
2, 28610, Note_on_c, 0, 65, 81
2, 28699, Note_on_c, 0, 65, 0
2, 28790, Note_on_c, 0, 67, 81
2, 28802, Note_on_c, 0, 67, 0
2, 28802, Note_on_c, 0, 75, 75
2, 28891, Note_on_c, 0, 75, 0
2, 28898, Note_on_c, 0, 75, 75
2, 28932, Note_on_c, 0, 75, 0
2, 28934, Note_on_c, 0, 77, 75
2, 28946, Note_on_c, 0, 77, 0
2, 28946, Note_on_c, 0, 79, 75
2, 28980, Note_on_c, 0, 79, 0
2, 28982, Note_on_c, 0, 80, 75
2, 28994, Note_on_c, 0, 80, 0
2, 28994, Note_on_c, 0, 82, 91
2, 29090, Note_on_c, 0, 82, 0
2, 29090, Note_on_c, 0, 80, 75
2, 29113, Note_on_c, 0, 80, 0
2, 29114, Note_on_c, 0, 79, 75
2, 29137, Note_on_c, 0, 79, 0
2, 29138, Note_on_c, 0, 77, 75
2, 29161, Note_on_c, 0, 77, 0
2, 29162, Note_on_c, 0, 75, 75
2, 29185, Note_on_c, 0, 75, 0
2, 29186, Note_on_c, 0, 74, 75
2, 29209, Note_on_c, 0, 74, 0
2, 29210, Note_on_c, 0, 72, 75
2, 29233, Note_on_c, 0, 72, 0
2, 29234, Note_on_c, 0, 72, 75
2, 29327, Note_on_c, 0, 72, 0
2, 29330, Note_on_c, 0, 75, 75
2, 29353, Note_on_c, 0, 75, 0
2, 29354, Note_on_c, 0, 72, 75
2, 29377, Note_on_c, 0, 72, 0
2, 29378, Note_on_c, 0, 72, 75
2, 29401, Note_on_c, 0, 72, 0
2, 29402, Note_on_c, 0, 70, 75
2, 29425, Note_on_c, 0, 70, 0
2, 29426, Note_on_c, 0, 70, 75
2, 29497, Note_on_c, 0, 70, 0
2, 29498, Note_on_c, 0, 75, 75
2, 29521, Note_on_c, 0, 75, 0
2, 29522, Note_on_c, 0, 79, 75
2, 29545, Note_on_c, 0, 79, 0
2, 29546, Note_on_c, 0, 75, 75
2, 29569, Note_on_c, 0, 75, 0
2, 29570, Note_on_c, 0, 74, 75
2, 29576, Note_on_c, 0, 74, 0
2, 29576, Note_on_c, 0, 75, 75
2, 29582, Note_on_c, 0, 75, 0
2, 29582, Note_on_c, 0, 74, 75
2, 29593, Note_on_c, 0, 74, 0
2, 29594, Note_on_c, 0, 72, 75
2, 29617, Note_on_c, 0, 72, 0
2, 29618, Note_on_c, 0, 72, 75
2, 29689, Note_on_c, 0, 72, 0
2, 29690, Note_on_c, 0, 75, 75
2, 29702, Note_on_c, 0, 75, 0
2, 29702, Note_on_c, 0, 74, 75
2, 29714, Note_on_c, 0, 74, 0
2, 29714, Note_on_c, 0, 77, 75
2, 29726, Note_on_c, 0, 77, 0
2, 29726, Note_on_c, 0, 75, 75
2, 29738, Note_on_c, 0, 75, 0
2, 29738, Note_on_c, 0, 74, 75
2, 29750, Note_on_c, 0, 74, 0
2, 29750, Note_on_c, 0, 72, 75
2, 29762, Note_on_c, 0, 72, 0
2, 29762, Note_on_c, 0, 72, 91
2, 29786, Note_on_c, 0, 72, 0
2, 29786, Note_on_c, 0, 70, 75
2, 29809, Note_on_c, 0, 70, 0
2, 29810, Note_on_c, 0, 70, 75
2, 29892, Note_on_c, 0, 70, 0
2, 29894, Note_on_c, 0, 75, 75
2, 29906, Note_on_c, 0, 75, 0
2, 29906, Note_on_c, 0, 75, 75
2, 29940, Note_on_c, 0, 75, 0
2, 29942, Note_on_c, 0, 75, 75
2, 29954, Note_on_c, 0, 75, 0
2, 29954, Note_on_c, 0, 75, 75
2, 29988, Note_on_c, 0, 75, 0
2, 29990, Note_on_c, 0, 65, 75
2, 30002, Note_on_c, 0, 65, 0
2, 30002, Note_on_c, 0, 65, 75
2, 30084, Note_on_c, 0, 65, 0
2, 30086, Note_on_c, 0, 72, 75
2, 30098, Note_on_c, 0, 72, 0
2, 30098, Note_on_c, 0, 70, 75
2, 30132, Note_on_c, 0, 70, 0
2, 30134, Note_on_c, 0, 68, 75
2, 30146, Note_on_c, 0, 68, 0
2, 30146, Note_on_c, 0, 70, 75
2, 30152, Note_on_c, 0, 70, 0
2, 30152, Note_on_c, 0, 68, 75
2, 30158, Note_on_c, 0, 68, 0
2, 30158, Note_on_c, 0, 67, 75
2, 30164, Note_on_c, 0, 67, 0
2, 30164, Note_on_c, 0, 68, 75
2, 30180, Note_on_c, 0, 68, 0
2, 30182, Note_on_c, 0, 67, 75
2, 30194, Note_on_c, 0, 67, 0
2, 30194, Note_on_c, 0, 67, 75
2, 30276, Note_on_c, 0, 67, 0
2, 30278, Note_on_c, 0, 75, 75
2, 30290, Note_on_c, 0, 75, 0
2, 30290, Note_on_c, 0, 75, 75
2, 30324, Note_on_c, 0, 75, 0
2, 30326, Note_on_c, 0, 75, 75
2, 30338, Note_on_c, 0, 75, 0
2, 30338, Note_on_c, 0, 75, 75
2, 30372, Note_on_c, 0, 75, 0
2, 30374, Note_on_c, 0, 65, 75
2, 30386, Note_on_c, 0, 65, 0
2, 30386, Note_on_c, 0, 65, 75
2, 30479, Note_on_c, 0, 65, 0
2, 30482, Note_on_c, 0, 68, 75
2, 30497, Note_on_c, 0, 68, 0
2, 30498, Note_on_c, 0, 65, 75
2, 30513, Note_on_c, 0, 65, 0
2, 30514, Note_on_c, 0, 62, 75
2, 30529, Note_on_c, 0, 62, 0
2, 30530, Note_on_c, 0, 63, 75
2, 30575, Note_on_c, 0, 63, 0
2, 30578, Note_on_c, 0, 72, 76
2, 30593, Note_on_c, 0, 72, 0
2, 30594, Note_on_c, 0, 68, 76
2, 30609, Note_on_c, 0, 68, 0
2, 30610, Note_on_c, 0, 65, 76
2, 30625, Note_on_c, 0, 65, 0
2, 30626, Note_on_c, 0, 67, 76
2, 30671, Note_on_c, 0, 67, 0
2, 30674, Note_on_c, 0, 77, 77
2, 30686, Note_on_c, 0, 77, 0
2, 30686, Note_on_c, 0, 75, 77
2, 30698, Note_on_c, 0, 75, 0
2, 30698, Note_on_c, 0, 74, 77
2, 30710, Note_on_c, 0, 74, 0
2, 30710, Note_on_c, 0, 72, 77
2, 30722, Note_on_c, 0, 72, 0
2, 30722, Note_on_c, 0, 70, 77
2, 30811, Note_on_c, 0, 70, 0
2, 30818, Note_on_c, 0, 69, 79
2, 30829, Note_on_c, 0, 69, 0
2, 30829, Note_on_c, 0, 70, 79
2, 30840, Note_on_c, 0, 70, 0
2, 30840, Note_on_c, 0, 69, 79
2, 30851, Note_on_c, 0, 69, 0
2, 30851, Note_on_c, 0, 70, 79
2, 30862, Note_on_c, 0, 70, 0
2, 30862, Note_on_c, 0, 69, 79
2, 30873, Note_on_c, 0, 69, 0
2, 30873, Note_on_c, 0, 70, 79
2, 30884, Note_on_c, 0, 70, 0
2, 30884, Note_on_c, 0, 69, 79
2, 30894, Note_on_c, 0, 69, 0
2, 30894, Note_on_c, 0, 67, 79
2, 30904, Note_on_c, 0, 67, 0
2, 30904, Note_on_c, 0, 69, 79
2, 30914, Note_on_c, 0, 69, 0
2, 30914, Note_on_c, 0, 70, 81
2, 30937, Note_on_c, 0, 70, 0
2, 30938, Note_on_c, 0, 72, 70
2, 30950, Note_on_c, 0, 72, 0
2, 30950, Note_on_c, 0, 74, 69
2, 30962, Note_on_c, 0, 74, 0
2, 30962, Note_on_c, 0, 75, 68
2, 30974, Note_on_c, 0, 75, 0
2, 30974, Note_on_c, 0, 77, 68
2, 30986, Note_on_c, 0, 77, 0
2, 30986, Note_on_c, 0, 79, 67
2, 30998, Note_on_c, 0, 79, 0
2, 30998, Note_on_c, 0, 81, 66
2, 31010, Note_on_c, 0, 81, 0
2, 31010, Note_on_c, 0, 82, 66
2, 31022, Note_on_c, 0, 82, 0
2, 31058, Note_on_c, 0, 63, 75
2, 31081, Note_on_c, 0, 63, 0
2, 31082, Note_on_c, 0, 63, 75
2, 31105, Note_on_c, 0, 63, 0
2, 31106, Note_on_c, 0, 63, 75
2, 31112, Note_on_c, 0, 63, 0
2, 31112, Note_on_c, 0, 65, 75
2, 31118, Note_on_c, 0, 65, 0
2, 31118, Note_on_c, 0, 63, 75
2, 31129, Note_on_c, 0, 63, 0
2, 31130, Note_on_c, 0, 62, 75
2, 31153, Note_on_c, 0, 62, 0
2, 31154, Note_on_c, 0, 68, 75
2, 31177, Note_on_c, 0, 68, 0
2, 31178, Note_on_c, 0, 68, 75
2, 31201, Note_on_c, 0, 68, 0
2, 31202, Note_on_c, 0, 68, 75
2, 31208, Note_on_c, 0, 68, 0
2, 31208, Note_on_c, 0, 70, 75
2, 31214, Note_on_c, 0, 70, 0
2, 31214, Note_on_c, 0, 68, 75
2, 31225, Note_on_c, 0, 68, 0
2, 31226, Note_on_c, 0, 67, 75
2, 31249, Note_on_c, 0, 67, 0
2, 31250, Note_on_c, 0, 72, 75
2, 31273, Note_on_c, 0, 72, 0
2, 31274, Note_on_c, 0, 72, 75
2, 31297, Note_on_c, 0, 72, 0
2, 31298, Note_on_c, 0, 72, 75
2, 31304, Note_on_c, 0, 72, 0
2, 31304, Note_on_c, 0, 74, 75
2, 31310, Note_on_c, 0, 74, 0
2, 31310, Note_on_c, 0, 72, 75
2, 31321, Note_on_c, 0, 72, 0
2, 31322, Note_on_c, 0, 70, 75
2, 31345, Note_on_c, 0, 70, 0
2, 31346, Note_on_c, 0, 70, 75
2, 31370, Note_on_c, 0, 70, 0
2, 31370, Note_on_c, 0, 80, 75
2, 31393, Note_on_c, 0, 80, 0
2, 31394, Note_on_c, 0, 80, 75
2, 31461, Note_on_c, 0, 80, 0
2, 31466, Note_on_c, 0, 79, 75
2, 31478, Note_on_c, 0, 79, 0
2, 31478, Note_on_c, 0, 77, 75
2, 31490, Note_on_c, 0, 77, 0
2, 31490, Note_on_c, 0, 79, 75
2, 31505, Note_on_c, 0, 79, 0
2, 31506, Note_on_c, 0, 77, 75
2, 31521, Note_on_c, 0, 77, 0
2, 31522, Note_on_c, 0, 75, 75
2, 31537, Note_on_c, 0, 75, 0
2, 31538, Note_on_c, 0, 74, 75
2, 31553, Note_on_c, 0, 74, 0
2, 31554, Note_on_c, 0, 72, 75
2, 31569, Note_on_c, 0, 72, 0
2, 31570, Note_on_c, 0, 70, 75
2, 31585, Note_on_c, 0, 70, 0
2, 31586, Note_on_c, 0, 79, 75
2, 31596, Note_on_c, 0, 79, 0
2, 31596, Note_on_c, 0, 77, 75
2, 31606, Note_on_c, 0, 77, 0
2, 31606, Note_on_c, 0, 79, 75
2, 31616, Note_on_c, 0, 79, 0
2, 31616, Note_on_c, 0, 77, 75
2, 31626, Note_on_c, 0, 77, 0
2, 31626, Note_on_c, 0, 79, 76
2, 31636, Note_on_c, 0, 79, 0
2, 31636, Note_on_c, 0, 77, 76
2, 31646, Note_on_c, 0, 77, 0
2, 31646, Note_on_c, 0, 79, 76
2, 31655, Note_on_c, 0, 79, 0
2, 31655, Note_on_c, 0, 77, 76
2, 31664, Note_on_c, 0, 77, 0
2, 31664, Note_on_c, 0, 75, 77
2, 31673, Note_on_c, 0, 75, 0
2, 31673, Note_on_c, 0, 77, 77
2, 31682, Note_on_c, 0, 77, 0
2, 31682, Note_on_c, 0, 75, 77
2, 31727, Note_on_c, 0, 75, 0
2, 31730, Note_on_c, 0, 72, 81
2, 31740, Note_on_c, 0, 72, 0
2, 31740, Note_on_c, 0, 70, 81
2, 31750, Note_on_c, 0, 70, 0
2, 31750, Note_on_c, 0, 72, 81
2, 31760, Note_on_c, 0, 72, 0
2, 31760, Note_on_c, 0, 70, 81
2, 31770, Note_on_c, 0, 70, 0
2, 31770, Note_on_c, 0, 72, 81
2, 31780, Note_on_c, 0, 72, 0
2, 31780, Note_on_c, 0, 70, 81
2, 31790, Note_on_c, 0, 70, 0
2, 31790, Note_on_c, 0, 72, 81
2, 31799, Note_on_c, 0, 72, 0
2, 31799, Note_on_c, 0, 70, 81
2, 31808, Note_on_c, 0, 70, 0
2, 31808, Note_on_c, 0, 72, 81
2, 31817, Note_on_c, 0, 72, 0
2, 31817, Note_on_c, 0, 70, 81
2, 31826, Note_on_c, 0, 70, 0
2, 31826, Note_on_c, 0, 72, 81
2, 31836, Note_on_c, 0, 72, 0
2, 31836, Note_on_c, 0, 70, 81
2, 31846, Note_on_c, 0, 70, 0
2, 31846, Note_on_c, 0, 72, 81
2, 31856, Note_on_c, 0, 72, 0
2, 31856, Note_on_c, 0, 70, 81
2, 31865, Note_on_c, 0, 70, 0
2, 31865, Note_on_c, 0, 72, 81
2, 31874, Note_on_c, 0, 72, 0
2, 31874, Note_on_c, 0, 70, 81
2, 31941, Note_on_c, 0, 70, 0
2, 31946, Note_on_c, 0, 74, 81
2, 31958, Note_on_c, 0, 74, 0
2, 31958, Note_on_c, 0, 75, 81
2, 31970, Note_on_c, 0, 75, 0
2, 31970, Note_on_c, 0, 77, 81
2, 31985, Note_on_c, 0, 77, 0
2, 31986, Note_on_c, 0, 75, 81
2, 32001, Note_on_c, 0, 75, 0
2, 32002, Note_on_c, 0, 74, 81
2, 32017, Note_on_c, 0, 74, 0
2, 32018, Note_on_c, 0, 72, 81
2, 32033, Note_on_c, 0, 72, 0
2, 32034, Note_on_c, 0, 70, 81
2, 32049, Note_on_c, 0, 70, 0
2, 32050, Note_on_c, 0, 68, 81
2, 32065, Note_on_c, 0, 68, 0
2, 32066, Note_on_c, 0, 67, 81
2, 32111, Note_on_c, 0, 67, 0
2, 32114, Note_on_c, 0, 72, 81
2, 32124, Note_on_c, 0, 72, 0
2, 32124, Note_on_c, 0, 70, 81
2, 32134, Note_on_c, 0, 70, 0
2, 32134, Note_on_c, 0, 72, 81
2, 32144, Note_on_c, 0, 72, 0
2, 32144, Note_on_c, 0, 70, 81
2, 32154, Note_on_c, 0, 70, 0
2, 32154, Note_on_c, 0, 72, 81
2, 32164, Note_on_c, 0, 72, 0
2, 32164, Note_on_c, 0, 70, 81
2, 32174, Note_on_c, 0, 70, 0
2, 32174, Note_on_c, 0, 72, 81
2, 32183, Note_on_c, 0, 72, 0
2, 32183, Note_on_c, 0, 70, 81
2, 32192, Note_on_c, 0, 70, 0
2, 32192, Note_on_c, 0, 72, 81
2, 32201, Note_on_c, 0, 72, 0
2, 32201, Note_on_c, 0, 70, 81
2, 32210, Note_on_c, 0, 70, 0
2, 32210, Note_on_c, 0, 72, 81
2, 32220, Note_on_c, 0, 72, 0
2, 32220, Note_on_c, 0, 70, 81
2, 32230, Note_on_c, 0, 70, 0
2, 32230, Note_on_c, 0, 72, 81
2, 32240, Note_on_c, 0, 72, 0
2, 32240, Note_on_c, 0, 70, 81
2, 32249, Note_on_c, 0, 70, 0
2, 32249, Note_on_c, 0, 72, 81
2, 32258, Note_on_c, 0, 72, 0
2, 32258, Note_on_c, 0, 70, 81
2, 32325, Note_on_c, 0, 70, 0
2, 32330, Note_on_c, 0, 74, 81
2, 32342, Note_on_c, 0, 74, 0
2, 32342, Note_on_c, 0, 75, 80
2, 32354, Note_on_c, 0, 75, 0
2, 32354, Note_on_c, 0, 77, 79
2, 32369, Note_on_c, 0, 77, 0
2, 32370, Note_on_c, 0, 75, 79
2, 32385, Note_on_c, 0, 75, 0
2, 32386, Note_on_c, 0, 74, 78
2, 32401, Note_on_c, 0, 74, 0
2, 32402, Note_on_c, 0, 72, 78
2, 32417, Note_on_c, 0, 72, 0
2, 32418, Note_on_c, 0, 70, 77
2, 32433, Note_on_c, 0, 70, 0
2, 32434, Note_on_c, 0, 68, 76
2, 32449, Note_on_c, 0, 68, 0
2, 32450, Note_on_c, 0, 67, 75
2, 32495, Note_on_c, 0, 67, 0
2, 32498, Note_on_c, 0, 70, 75
2, 32513, Note_on_c, 0, 70, 0
2, 32514, Note_on_c, 0, 72, 75
2, 32529, Note_on_c, 0, 72, 0
2, 32530, Note_on_c, 0, 70, 75
2, 32545, Note_on_c, 0, 70, 0
2, 32546, Note_on_c, 0, 75, 75
2, 32561, Note_on_c, 0, 75, 0
2, 32562, Note_on_c, 0, 74, 75
2, 32577, Note_on_c, 0, 74, 0
2, 32578, Note_on_c, 0, 72, 75
2, 32593, Note_on_c, 0, 72, 0
2, 32594, Note_on_c, 0, 70, 75
2, 32609, Note_on_c, 0, 70, 0
2, 32610, Note_on_c, 0, 68, 75
2, 32625, Note_on_c, 0, 68, 0
2, 32626, Note_on_c, 0, 67, 75
2, 32641, Note_on_c, 0, 67, 0
2, 32642, Note_on_c, 0, 65, 75
2, 32657, Note_on_c, 0, 65, 0
2, 32658, Note_on_c, 0, 71, 75
2, 32674, Note_on_c, 0, 71, 0
2, 32674, Note_on_c, 0, 72, 75
2, 32689, Note_on_c, 0, 72, 0
2, 32690, Note_on_c, 0, 70, 75
2, 32702, Note_on_c, 0, 70, 0
2, 32702, Note_on_c, 0, 68, 75
2, 32714, Note_on_c, 0, 68, 0
2, 32714, Note_on_c, 0, 67, 75
2, 32726, Note_on_c, 0, 67, 0
2, 32726, Note_on_c, 0, 65, 75
2, 32738, Note_on_c, 0, 65, 0
2, 32738, Note_on_c, 0, 63, 75
2, 32783, Note_on_c, 0, 63, 0
2, 32786, Note_on_c, 0, 62, 75
2, 32796, Note_on_c, 0, 62, 0
2, 32796, Note_on_c, 0, 63, 75
2, 32806, Note_on_c, 0, 63, 0
2, 32806, Note_on_c, 0, 62, 75
2, 32816, Note_on_c, 0, 62, 0
2, 32816, Note_on_c, 0, 60, 75
2, 32825, Note_on_c, 0, 60, 0
2, 32825, Note_on_c, 0, 62, 75
2, 32834, Note_on_c, 0, 62, 0
2, 32834, Note_on_c, 0, 63, 75
2, 32879, Note_on_c, 0, 63, 0
2, 32882, Note_on_c, 0, 70, 70
2, 32882, Note_on_c, 0, 67, 70
2, 32927, Note_on_c, 0, 70, 0
2, 32927, Note_on_c, 0, 67, 0
2, 32930, Note_on_c, 0, 70, 70
2, 32930, Note_on_c, 0, 67, 70
2, 32975, Note_on_c, 0, 70, 0
2, 32975, Note_on_c, 0, 67, 0
2, 32978, Note_on_c, 0, 70, 70
2, 32978, Note_on_c, 0, 67, 70
2, 33023, Note_on_c, 0, 70, 0
2, 33023, Note_on_c, 0, 67, 0
2, 33026, Note_on_c, 0, 70, 86
2, 33098, Note_on_c, 0, 70, 0
2, 33098, Note_on_c, 0, 72, 70
2, 33110, Note_on_c, 0, 72, 0
2, 33110, Note_on_c, 0, 74, 70
2, 33122, Note_on_c, 0, 74, 0
2, 33122, Note_on_c, 0, 75, 70
2, 33211, Note_on_c, 0, 75, 0
2, 33218, Note_on_c, 0, 68, 70
2, 33381, Note_on_c, 0, 68, 0
2, 33386, Note_on_c, 0, 72, 70
2, 33398, Note_on_c, 0, 72, 0
2, 33398, Note_on_c, 0, 68, 70
2, 33410, Note_on_c, 0, 68, 0
2, 33410, Note_on_c, 0, 66, 70
2, 33458, Note_on_c, 0, 66, 0
2, 33458, Note_on_c, 0, 67, 70
2, 33503, Note_on_c, 0, 67, 0
2, 33578, Note_on_c, 0, 82, 70
2, 33590, Note_on_c, 0, 82, 0
2, 33590, Note_on_c, 0, 79, 70
2, 33602, Note_on_c, 0, 79, 0
2, 33602, Note_on_c, 0, 76, 70
2, 33650, Note_on_c, 0, 76, 0
2, 33650, Note_on_c, 0, 77, 70
2, 33695, Note_on_c, 0, 77, 0
2, 33770, Note_on_c, 0, 80, 70
2, 33782, Note_on_c, 0, 80, 0
2, 33782, Note_on_c, 0, 77, 70
2, 33794, Note_on_c, 0, 77, 0
2, 33794, Note_on_c, 0, 74, 70
2, 33842, Note_on_c, 0, 74, 0
2, 33842, Note_on_c, 0, 75, 70
2, 33887, Note_on_c, 0, 75, 0
2, 33890, Note_on_c, 0, 75, 70
2, 33905, Note_on_c, 0, 75, 0
2, 33906, Note_on_c, 0, 79, 70
2, 33921, Note_on_c, 0, 79, 0
2, 33922, Note_on_c, 0, 80, 71
2, 33937, Note_on_c, 0, 80, 0
2, 33938, Note_on_c, 0, 82, 71
2, 33953, Note_on_c, 0, 82, 0
2, 33954, Note_on_c, 0, 84, 72
2, 33969, Note_on_c, 0, 84, 0
2, 33970, Note_on_c, 0, 86, 73
2, 33985, Note_on_c, 0, 86, 0
2, 33986, Note_on_c, 0, 84, 91
2, 34058, Note_on_c, 0, 84, 0
2, 34058, Note_on_c, 0, 82, 75
2, 34070, Note_on_c, 0, 82, 0
2, 34070, Note_on_c, 0, 80, 75
2, 34082, Note_on_c, 0, 80, 0
2, 34082, Note_on_c, 0, 79, 75
2, 34127, Note_on_c, 0, 79, 0
2, 34130, Note_on_c, 0, 77, 75
2, 34140, Note_on_c, 0, 77, 0
2, 34140, Note_on_c, 0, 79, 75
2, 34150, Note_on_c, 0, 79, 0
2, 34150, Note_on_c, 0, 77, 75
2, 34160, Note_on_c, 0, 77, 0
2, 34160, Note_on_c, 0, 75, 75
2, 34169, Note_on_c, 0, 75, 0
2, 34169, Note_on_c, 0, 77, 75
2, 34178, Note_on_c, 0, 77, 0
2, 34178, Note_on_c, 0, 75, 75
2, 34201, Note_on_c, 0, 75, 0
2, 34226, Note_on_c, 0, 75, 75
2, 34241, Note_on_c, 0, 75, 0
2, 34242, Note_on_c, 0, 79, 75
2, 34257, Note_on_c, 0, 79, 0
2, 34258, Note_on_c, 0, 82, 75
2, 34273, Note_on_c, 0, 82, 0
2, 34274, Note_on_c, 0, 80, 75
2, 34289, Note_on_c, 0, 80, 0
2, 34290, Note_on_c, 0, 77, 75
2, 34305, Note_on_c, 0, 77, 0
2, 34306, Note_on_c, 0, 74, 75
2, 34321, Note_on_c, 0, 74, 0
2, 34322, Note_on_c, 0, 77, 75
2, 34337, Note_on_c, 0, 77, 0
2, 34338, Note_on_c, 0, 74, 75
2, 34353, Note_on_c, 0, 74, 0
2, 34354, Note_on_c, 0, 68, 75
2, 34369, Note_on_c, 0, 68, 0
2, 34370, Note_on_c, 0, 67, 75
2, 34385, Note_on_c, 0, 67, 0
2, 34386, Note_on_c, 0, 70, 75
2, 34401, Note_on_c, 0, 70, 0
2, 34402, Note_on_c, 0, 75, 75
2, 34417, Note_on_c, 0, 75, 0
2, 34418, Note_on_c, 0, 72, 75
2, 34433, Note_on_c, 0, 72, 0
2, 34434, Note_on_c, 0, 80, 75
2, 34449, Note_on_c, 0, 80, 0
2, 34450, Note_on_c, 0, 77, 75
2, 34465, Note_on_c, 0, 77, 0
2, 34466, Note_on_c, 0, 75, 75
2, 34511, Note_on_c, 0, 75, 0
2, 34514, Note_on_c, 0, 74, 75
2, 34524, Note_on_c, 0, 74, 0
2, 34524, Note_on_c, 0, 75, 75
2, 34534, Note_on_c, 0, 75, 0
2, 34534, Note_on_c, 0, 74, 75
2, 34544, Note_on_c, 0, 74, 0
2, 34544, Note_on_c, 0, 72, 75
2, 34553, Note_on_c, 0, 72, 0
2, 34553, Note_on_c, 0, 74, 75
2, 34562, Note_on_c, 0, 74, 0
2, 34562, Note_on_c, 0, 75, 75
2, 34585, Note_on_c, 0, 75, 0
2, 34610, Note_on_c, 0, 63, 75
2, 34625, Note_on_c, 0, 63, 0
2, 34626, Note_on_c, 0, 67, 75
2, 34641, Note_on_c, 0, 67, 0
2, 34642, Note_on_c, 0, 70, 75
2, 34657, Note_on_c, 0, 70, 0
2, 34658, Note_on_c, 0, 68, 75
2, 34673, Note_on_c, 0, 68, 0
2, 34674, Note_on_c, 0, 65, 75
2, 34689, Note_on_c, 0, 65, 0
2, 34690, Note_on_c, 0, 62, 75
2, 34705, Note_on_c, 0, 62, 0
2, 34706, Note_on_c, 0, 65, 75
2, 34721, Note_on_c, 0, 65, 0
2, 34722, Note_on_c, 0, 62, 75
2, 34737, Note_on_c, 0, 62, 0
2, 34738, Note_on_c, 0, 56, 75
2, 34753, Note_on_c, 0, 56, 0
2, 34754, Note_on_c, 0, 55, 75
2, 34769, Note_on_c, 0, 55, 0
2, 34770, Note_on_c, 0, 58, 75
2, 34785, Note_on_c, 0, 58, 0
2, 34786, Note_on_c, 0, 63, 75
2, 34801, Note_on_c, 0, 63, 0
2, 34802, Note_on_c, 0, 60, 75
2, 34817, Note_on_c, 0, 60, 0
2, 34818, Note_on_c, 0, 68, 75
2, 34833, Note_on_c, 0, 68, 0
2, 34834, Note_on_c, 0, 65, 75
2, 34849, Note_on_c, 0, 65, 0
2, 34850, Note_on_c, 0, 63, 75
2, 34895, Note_on_c, 0, 63, 0
2, 34898, Note_on_c, 0, 62, 75
2, 34908, Note_on_c, 0, 62, 0
2, 34908, Note_on_c, 0, 63, 75
2, 34918, Note_on_c, 0, 63, 0
2, 34918, Note_on_c, 0, 62, 75
2, 34928, Note_on_c, 0, 62, 0
2, 34928, Note_on_c, 0, 60, 75
2, 34937, Note_on_c, 0, 60, 0
2, 34937, Note_on_c, 0, 62, 75
2, 34946, Note_on_c, 0, 62, 0
2, 34946, Note_on_c, 0, 63, 75
2, 35035, Note_on_c, 0, 63, 0
2, 35042, Note_on_c, 0, 58, 70
2, 35060, Note_on_c, 0, 58, 0
2, 35060, Note_on_c, 0, 68, 70
2, 35109, Note_on_c, 0, 68, 0
2, 35114, Note_on_c, 0, 65, 70
2, 35126, Note_on_c, 0, 65, 0
2, 35126, Note_on_c, 0, 62, 70
2, 35138, Note_on_c, 0, 62, 0
2, 35138, Note_on_c, 0, 63, 70
2, 35227, Note_on_c, 0, 63, 0
2, 35330, Note_on_c, 0, 58, 75
2, 35419, Note_on_c, 0, 58, 0
2, 35426, Note_on_c, 0, 58, 75
2, 35460, Note_on_c, 0, 58, 0
2, 35462, Note_on_c, 0, 60, 75
2, 35474, Note_on_c, 0, 60, 0
2, 35474, Note_on_c, 0, 62, 75
2, 35508, Note_on_c, 0, 62, 0
2, 35510, Note_on_c, 0, 63, 75
2, 35522, Note_on_c, 0, 63, 0
2, 35522, Note_on_c, 0, 65, 75
2, 35641, Note_on_c, 0, 65, 0
2, 35642, Note_on_c, 0, 67, 77
2, 35654, Note_on_c, 0, 67, 0
2, 35654, Note_on_c, 0, 69, 77
2, 35666, Note_on_c, 0, 69, 0
2, 35666, Note_on_c, 0, 70, 78
2, 35678, Note_on_c, 0, 70, 0
2, 35678, Note_on_c, 0, 72, 78
2, 35690, Note_on_c, 0, 72, 0
2, 35690, Note_on_c, 0, 74, 78
2, 35702, Note_on_c, 0, 74, 0
2, 35702, Note_on_c, 0, 75, 78
2, 35714, Note_on_c, 0, 75, 0
2, 35714, Note_on_c, 0, 77, 95
2, 35810, Note_on_c, 0, 77, 0
2, 35810, Note_on_c, 0, 75, 75
2, 35833, Note_on_c, 0, 75, 0
2, 35834, Note_on_c, 0, 74, 75
2, 35857, Note_on_c, 0, 74, 0
2, 35858, Note_on_c, 0, 72, 75
2, 35881, Note_on_c, 0, 72, 0
2, 35882, Note_on_c, 0, 70, 75
2, 35905, Note_on_c, 0, 70, 0
2, 35906, Note_on_c, 0, 75, 75
2, 35921, Note_on_c, 0, 75, 0
2, 35922, Note_on_c, 0, 77, 81
2, 35937, Note_on_c, 0, 77, 0
2, 35938, Note_on_c, 0, 79, 80
2, 35953, Note_on_c, 0, 79, 0
2, 35954, Note_on_c, 0, 77, 79
2, 35999, Note_on_c, 0, 77, 0
2, 36002, Note_on_c, 0, 82, 75
2, 36017, Note_on_c, 0, 82, 0
2, 36018, Note_on_c, 0, 81, 75
2, 36033, Note_on_c, 0, 81, 0
2, 36034, Note_on_c, 0, 79, 75
2, 36049, Note_on_c, 0, 79, 0
2, 36050, Note_on_c, 0, 77, 75
2, 36060, Note_on_c, 0, 77, 0
2, 36074, Note_on_c, 0, 77, 75
2, 36097, Note_on_c, 0, 77, 0
2, 36098, Note_on_c, 0, 75, 75
2, 36108, Note_on_c, 0, 75, 0
2, 36108, Note_on_c, 0, 77, 75
2, 36118, Note_on_c, 0, 77, 0
2, 36118, Note_on_c, 0, 75, 75
2, 36128, Note_on_c, 0, 75, 0
2, 36128, Note_on_c, 0, 74, 75
2, 36137, Note_on_c, 0, 74, 0
2, 36137, Note_on_c, 0, 75, 75
2, 36146, Note_on_c, 0, 75, 0
2, 36146, Note_on_c, 0, 74, 75
2, 36191, Note_on_c, 0, 74, 0
2, 36194, Note_on_c, 0, 82, 75
2, 36209, Note_on_c, 0, 82, 0
2, 36210, Note_on_c, 0, 81, 75
2, 36225, Note_on_c, 0, 81, 0
2, 36226, Note_on_c, 0, 79, 75
2, 36241, Note_on_c, 0, 79, 0
2, 36242, Note_on_c, 0, 77, 75
2, 36252, Note_on_c, 0, 77, 0
2, 36266, Note_on_c, 0, 77, 75
2, 36289, Note_on_c, 0, 77, 0
2, 36290, Note_on_c, 0, 75, 75
2, 36300, Note_on_c, 0, 75, 0
2, 36300, Note_on_c, 0, 77, 75
2, 36310, Note_on_c, 0, 77, 0
2, 36310, Note_on_c, 0, 75, 75
2, 36320, Note_on_c, 0, 75, 0
2, 36320, Note_on_c, 0, 74, 75
2, 36329, Note_on_c, 0, 74, 0
2, 36329, Note_on_c, 0, 75, 75
2, 36338, Note_on_c, 0, 75, 0
2, 36338, Note_on_c, 0, 74, 75
2, 36383, Note_on_c, 0, 74, 0
2, 36386, Note_on_c, 0, 77, 75
2, 36401, Note_on_c, 0, 77, 0
2, 36402, Note_on_c, 0, 75, 75
2, 36417, Note_on_c, 0, 75, 0
2, 36418, Note_on_c, 0, 74, 75
2, 36433, Note_on_c, 0, 74, 0
2, 36434, Note_on_c, 0, 72, 75
2, 36449, Note_on_c, 0, 72, 0
2, 36450, Note_on_c, 0, 70, 75
2, 36465, Note_on_c, 0, 70, 0
2, 36466, Note_on_c, 0, 68, 75
2, 36481, Note_on_c, 0, 68, 0
2, 36482, Note_on_c, 0, 67, 75
2, 36492, Note_on_c, 0, 67, 0
2, 36506, Note_on_c, 0, 71, 75
2, 36529, Note_on_c, 0, 71, 0
2, 36530, Note_on_c, 0, 72, 75
2, 36553, Note_on_c, 0, 72, 0
2, 36554, Note_on_c, 0, 71, 75
2, 36577, Note_on_c, 0, 71, 0
2, 36578, Note_on_c, 0, 72, 75
2, 36588, Note_on_c, 0, 72, 0
2, 36588, Note_on_c, 0, 74, 75
2, 36598, Note_on_c, 0, 74, 0
2, 36598, Note_on_c, 0, 72, 75
2, 36608, Note_on_c, 0, 72, 0
2, 36608, Note_on_c, 0, 74, 75
2, 36618, Note_on_c, 0, 74, 0
2, 36618, Note_on_c, 0, 72, 75
2, 36628, Note_on_c, 0, 72, 0
2, 36628, Note_on_c, 0, 74, 75
2, 36638, Note_on_c, 0, 74, 0
2, 36638, Note_on_c, 0, 72, 75
2, 36647, Note_on_c, 0, 72, 0
2, 36647, Note_on_c, 0, 74, 75
2, 36656, Note_on_c, 0, 74, 0
2, 36656, Note_on_c, 0, 72, 75
2, 36698, Note_on_c, 0, 72, 0
2, 36699, Note_on_c, 0, 74, 75
2, 36722, Note_on_c, 0, 74, 0
2, 36723, Note_on_c, 0, 75, 75
2, 36746, Note_on_c, 0, 75, 0
2, 36747, Note_on_c, 0, 77, 75
2, 36770, Note_on_c, 0, 77, 0
2, 36771, Note_on_c, 0, 79, 75
2, 36786, Note_on_c, 0, 79, 0
2, 36787, Note_on_c, 0, 77, 75
2, 36802, Note_on_c, 0, 77, 0
2, 36803, Note_on_c, 0, 75, 75
2, 36818, Note_on_c, 0, 75, 0
2, 36819, Note_on_c, 0, 74, 75
2, 36834, Note_on_c, 0, 74, 0
2, 36835, Note_on_c, 0, 72, 75
2, 36850, Note_on_c, 0, 72, 0
2, 36851, Note_on_c, 0, 70, 75
2, 36866, Note_on_c, 0, 70, 0
2, 36867, Note_on_c, 0, 69, 75
2, 36877, Note_on_c, 0, 69, 0
2, 36891, Note_on_c, 0, 73, 70
2, 36914, Note_on_c, 0, 73, 0
2, 36915, Note_on_c, 0, 74, 70
2, 36938, Note_on_c, 0, 74, 0
2, 36939, Note_on_c, 0, 73, 70
2, 36962, Note_on_c, 0, 73, 0
2, 36963, Note_on_c, 0, 74, 71
2, 36973, Note_on_c, 0, 74, 0
2, 36973, Note_on_c, 0, 75, 71
2, 36983, Note_on_c, 0, 75, 0
2, 36983, Note_on_c, 0, 74, 71
2, 36993, Note_on_c, 0, 74, 0
2, 36993, Note_on_c, 0, 75, 71
2, 37003, Note_on_c, 0, 75, 0
2, 37003, Note_on_c, 0, 74, 71
2, 37013, Note_on_c, 0, 74, 0
2, 37013, Note_on_c, 0, 75, 71
2, 37023, Note_on_c, 0, 75, 0
2, 37023, Note_on_c, 0, 74, 71
2, 37032, Note_on_c, 0, 74, 0
2, 37032, Note_on_c, 0, 75, 71
2, 37041, Note_on_c, 0, 75, 0
2, 37041, Note_on_c, 0, 74, 71
2, 37083, Note_on_c, 0, 74, 0
2, 37084, Note_on_c, 0, 76, 72
2, 37107, Note_on_c, 0, 76, 0
2, 37108, Note_on_c, 0, 77, 72
2, 37131, Note_on_c, 0, 77, 0
2, 37132, Note_on_c, 0, 79, 73
2, 37155, Note_on_c, 0, 79, 0
2, 37156, Note_on_c, 0, 81, 73
2, 37171, Note_on_c, 0, 81, 0
2, 37172, Note_on_c, 0, 79, 73
2, 37187, Note_on_c, 0, 79, 0
2, 37188, Note_on_c, 0, 77, 73
2, 37203, Note_on_c, 0, 77, 0
2, 37204, Note_on_c, 0, 75, 73
2, 37219, Note_on_c, 0, 75, 0
2, 37220, Note_on_c, 0, 74, 74
2, 37235, Note_on_c, 0, 74, 0
2, 37236, Note_on_c, 0, 72, 74
2, 37251, Note_on_c, 0, 72, 0
2, 37252, Note_on_c, 0, 70, 74
2, 37262, Note_on_c, 0, 70, 0
2, 37276, Note_on_c, 0, 74, 74
2, 37299, Note_on_c, 0, 74, 0
2, 37300, Note_on_c, 0, 75, 75
2, 37323, Note_on_c, 0, 75, 0
2, 37324, Note_on_c, 0, 74, 75
2, 37347, Note_on_c, 0, 74, 0
2, 37348, Note_on_c, 0, 77, 75
2, 37388, Note_on_c, 0, 77, 0
2, 37388, Note_on_c, 0, 75, 76
2, 37398, Note_on_c, 0, 75, 0
2, 37398, Note_on_c, 0, 77, 76
2, 37408, Note_on_c, 0, 77, 0
2, 37408, Note_on_c, 0, 75, 76
2, 37417, Note_on_c, 0, 75, 0
2, 37417, Note_on_c, 0, 77, 76
2, 37426, Note_on_c, 0, 77, 0
2, 37426, Note_on_c, 0, 75, 76
2, 37435, Note_on_c, 0, 75, 0
2, 37435, Note_on_c, 0, 77, 76
2, 37444, Note_on_c, 0, 77, 0
2, 37444, Note_on_c, 0, 75, 76
2, 37467, Note_on_c, 0, 75, 0
2, 37468, Note_on_c, 0, 77, 76
2, 37491, Note_on_c, 0, 77, 0
2, 37492, Note_on_c, 0, 79, 77
2, 37515, Note_on_c, 0, 79, 0
2, 37516, Note_on_c, 0, 81, 77
2, 37539, Note_on_c, 0, 81, 0
2, 37540, Note_on_c, 0, 82, 77
2, 37555, Note_on_c, 0, 82, 0
2, 37556, Note_on_c, 0, 81, 78
2, 37571, Note_on_c, 0, 81, 0
2, 37572, Note_on_c, 0, 79, 78
2, 37587, Note_on_c, 0, 79, 0
2, 37588, Note_on_c, 0, 77, 78
2, 37603, Note_on_c, 0, 77, 0
2, 37604, Note_on_c, 0, 75, 78
2, 37619, Note_on_c, 0, 75, 0
2, 37620, Note_on_c, 0, 74, 78
2, 37635, Note_on_c, 0, 74, 0
2, 37636, Note_on_c, 0, 72, 79
2, 37646, Note_on_c, 0, 72, 0
2, 37660, Note_on_c, 0, 76, 81
2, 37683, Note_on_c, 0, 76, 0
2, 37684, Note_on_c, 0, 77, 81
2, 37707, Note_on_c, 0, 77, 0
2, 37708, Note_on_c, 0, 76, 81
2, 37731, Note_on_c, 0, 76, 0
2, 37732, Note_on_c, 0, 79, 81
2, 37772, Note_on_c, 0, 79, 0
2, 37772, Note_on_c, 0, 77, 81
2, 37782, Note_on_c, 0, 77, 0
2, 37782, Note_on_c, 0, 79, 81
2, 37792, Note_on_c, 0, 79, 0
2, 37792, Note_on_c, 0, 77, 81
2, 37801, Note_on_c, 0, 77, 0
2, 37801, Note_on_c, 0, 79, 81
2, 37810, Note_on_c, 0, 79, 0
2, 37810, Note_on_c, 0, 77, 81
2, 37819, Note_on_c, 0, 77, 0
2, 37819, Note_on_c, 0, 79, 81
2, 37828, Note_on_c, 0, 79, 0
2, 37828, Note_on_c, 0, 77, 81
2, 37851, Note_on_c, 0, 77, 0
2, 37852, Note_on_c, 0, 79, 81
2, 37875, Note_on_c, 0, 79, 0
2, 37876, Note_on_c, 0, 81, 81
2, 37899, Note_on_c, 0, 81, 0
2, 37900, Note_on_c, 0, 82, 81
2, 37923, Note_on_c, 0, 82, 0
2, 37924, Note_on_c, 0, 84, 81
2, 37939, Note_on_c, 0, 84, 0
2, 37940, Note_on_c, 0, 82, 81
2, 37955, Note_on_c, 0, 82, 0
2, 37956, Note_on_c, 0, 81, 81
2, 37971, Note_on_c, 0, 81, 0
2, 37972, Note_on_c, 0, 79, 81
2, 37987, Note_on_c, 0, 79, 0
2, 37988, Note_on_c, 0, 77, 81
2, 38003, Note_on_c, 0, 77, 0
2, 38004, Note_on_c, 0, 75, 81
2, 38019, Note_on_c, 0, 75, 0
2, 38020, Note_on_c, 0, 74, 70
2, 38065, Note_on_c, 0, 74, 0
2, 38068, Note_on_c, 0, 79, 86
2, 38150, Note_on_c, 0, 79, 0
2, 38152, Note_on_c, 0, 82, 70
2, 38164, Note_on_c, 0, 82, 0
2, 38164, Note_on_c, 0, 81, 70
2, 38198, Note_on_c, 0, 81, 0
2, 38200, Note_on_c, 0, 79, 70
2, 38212, Note_on_c, 0, 79, 0
2, 38212, Note_on_c, 0, 79, 70
2, 38308, Note_on_c, 0, 79, 0
2, 38308, Note_on_c, 0, 78, 70
2, 38353, Note_on_c, 0, 78, 0
2, 38404, Note_on_c, 0, 69, 70
2, 38419, Note_on_c, 0, 69, 0
2, 38420, Note_on_c, 0, 72, 70
2, 38435, Note_on_c, 0, 72, 0
2, 38436, Note_on_c, 0, 75, 71
2, 38451, Note_on_c, 0, 75, 0
2, 38452, Note_on_c, 0, 78, 71
2, 38467, Note_on_c, 0, 78, 0
2, 38468, Note_on_c, 0, 81, 72
2, 38483, Note_on_c, 0, 81, 0
2, 38484, Note_on_c, 0, 84, 73
2, 38499, Note_on_c, 0, 84, 0
2, 38500, Note_on_c, 0, 82, 73
2, 38515, Note_on_c, 0, 82, 0
2, 38516, Note_on_c, 0, 81, 74
2, 38531, Note_on_c, 0, 81, 0
2, 38532, Note_on_c, 0, 79, 75
2, 38547, Note_on_c, 0, 79, 0
2, 38548, Note_on_c, 0, 78, 74
2, 38563, Note_on_c, 0, 78, 0
2, 38564, Note_on_c, 0, 75, 73
2, 38579, Note_on_c, 0, 75, 0
2, 38580, Note_on_c, 0, 74, 73
2, 38595, Note_on_c, 0, 74, 0
2, 38596, Note_on_c, 0, 72, 70
2, 38692, Note_on_c, 0, 72, 0
2, 38692, Note_on_c, 0, 70, 70
2, 38781, Note_on_c, 0, 70, 0
2, 38788, Note_on_c, 0, 69, 70
2, 38803, Note_on_c, 0, 69, 0
2, 38804, Note_on_c, 0, 72, 70
2, 38819, Note_on_c, 0, 72, 0
2, 38820, Note_on_c, 0, 75, 70
2, 38835, Note_on_c, 0, 75, 0
2, 38836, Note_on_c, 0, 74, 70
2, 38851, Note_on_c, 0, 74, 0
2, 38852, Note_on_c, 0, 72, 70
2, 38867, Note_on_c, 0, 72, 0
2, 38868, Note_on_c, 0, 70, 70
2, 38883, Note_on_c, 0, 70, 0
2, 38884, Note_on_c, 0, 69, 70
2, 38899, Note_on_c, 0, 69, 0
2, 38900, Note_on_c, 0, 75, 70
2, 38915, Note_on_c, 0, 75, 0
2, 38916, Note_on_c, 0, 74, 70
2, 38931, Note_on_c, 0, 74, 0
2, 38932, Note_on_c, 0, 72, 70
2, 38947, Note_on_c, 0, 72, 0
2, 38948, Note_on_c, 0, 70, 70
2, 38963, Note_on_c, 0, 70, 0
2, 38964, Note_on_c, 0, 69, 70
2, 38979, Note_on_c, 0, 69, 0
2, 38980, Note_on_c, 0, 67, 70
2, 39028, Note_on_c, 0, 67, 0
2, 39028, Note_on_c, 0, 66, 70
2, 39073, Note_on_c, 0, 66, 0
2, 39124, Note_on_c, 0, 74, 70
2, 39134, Note_on_c, 0, 74, 0
2, 39148, Note_on_c, 0, 74, 70
2, 39171, Note_on_c, 0, 74, 0
2, 39172, Note_on_c, 0, 74, 71
2, 39178, Note_on_c, 0, 74, 0
2, 39178, Note_on_c, 0, 75, 71
2, 39184, Note_on_c, 0, 75, 0
2, 39184, Note_on_c, 0, 74, 71
2, 39195, Note_on_c, 0, 74, 0
2, 39196, Note_on_c, 0, 73, 71
2, 39219, Note_on_c, 0, 73, 0
2, 39220, Note_on_c, 0, 73, 71
2, 39265, Note_on_c, 0, 73, 0
2, 39316, Note_on_c, 0, 81, 73
2, 39339, Note_on_c, 0, 81, 0
2, 39340, Note_on_c, 0, 72, 73
2, 39363, Note_on_c, 0, 72, 0
2, 39364, Note_on_c, 0, 72, 73
2, 39370, Note_on_c, 0, 72, 0
2, 39370, Note_on_c, 0, 74, 73
2, 39376, Note_on_c, 0, 74, 0
2, 39376, Note_on_c, 0, 72, 73
2, 39387, Note_on_c, 0, 72, 0
2, 39388, Note_on_c, 0, 70, 74
2, 39411, Note_on_c, 0, 70, 0
2, 39412, Note_on_c, 0, 70, 74
2, 39457, Note_on_c, 0, 70, 0
2, 39508, Note_on_c, 0, 79, 75
2, 39518, Note_on_c, 0, 79, 0
2, 39532, Note_on_c, 0, 79, 75
2, 39555, Note_on_c, 0, 79, 0
2, 39556, Note_on_c, 0, 79, 76
2, 39562, Note_on_c, 0, 79, 0
2, 39562, Note_on_c, 0, 81, 76
2, 39568, Note_on_c, 0, 81, 0
2, 39568, Note_on_c, 0, 79, 76
2, 39579, Note_on_c, 0, 79, 0
2, 39580, Note_on_c, 0, 78, 77
2, 39603, Note_on_c, 0, 78, 0
2, 39604, Note_on_c, 0, 78, 77
2, 39649, Note_on_c, 0, 78, 0
2, 39700, Note_on_c, 0, 86, 80
2, 39723, Note_on_c, 0, 86, 0
2, 39724, Note_on_c, 0, 77, 81
2, 39747, Note_on_c, 0, 77, 0
2, 39748, Note_on_c, 0, 77, 81
2, 39771, Note_on_c, 0, 77, 0
2, 39772, Note_on_c, 0, 75, 81
2, 39795, Note_on_c, 0, 75, 0
2, 39796, Note_on_c, 0, 84, 81
2, 39819, Note_on_c, 0, 84, 0
2, 39820, Note_on_c, 0, 75, 81
2, 39843, Note_on_c, 0, 75, 0
2, 39844, Note_on_c, 0, 75, 81
2, 39867, Note_on_c, 0, 75, 0
2, 39868, Note_on_c, 0, 74, 81
2, 39891, Note_on_c, 0, 74, 0
2, 39892, Note_on_c, 0, 82, 81
2, 39915, Note_on_c, 0, 82, 0
2, 39916, Note_on_c, 0, 74, 81
2, 39939, Note_on_c, 0, 74, 0
2, 39940, Note_on_c, 0, 74, 81
2, 39946, Note_on_c, 0, 74, 0
2, 39946, Note_on_c, 0, 75, 81
2, 39952, Note_on_c, 0, 75, 0
2, 39952, Note_on_c, 0, 74, 81
2, 39963, Note_on_c, 0, 74, 0
2, 39964, Note_on_c, 0, 72, 81
2, 39987, Note_on_c, 0, 72, 0
2, 39988, Note_on_c, 0, 81, 81
2, 40011, Note_on_c, 0, 81, 0
2, 40012, Note_on_c, 0, 72, 81
2, 40035, Note_on_c, 0, 72, 0
2, 40036, Note_on_c, 0, 72, 81
2, 40042, Note_on_c, 0, 72, 0
2, 40042, Note_on_c, 0, 74, 81
2, 40048, Note_on_c, 0, 74, 0
2, 40048, Note_on_c, 0, 72, 81
2, 40059, Note_on_c, 0, 72, 0
2, 40060, Note_on_c, 0, 70, 81
2, 40083, Note_on_c, 0, 70, 0
2, 40084, Note_on_c, 0, 75, 81
2, 40107, Note_on_c, 0, 75, 0
2, 40108, Note_on_c, 0, 75, 81
2, 40131, Note_on_c, 0, 75, 0
2, 40132, Note_on_c, 0, 75, 81
2, 40138, Note_on_c, 0, 75, 0
2, 40138, Note_on_c, 0, 77, 81
2, 40144, Note_on_c, 0, 77, 0
2, 40144, Note_on_c, 0, 75, 81
2, 40155, Note_on_c, 0, 75, 0
2, 40156, Note_on_c, 0, 74, 81
2, 40179, Note_on_c, 0, 74, 0
2, 40180, Note_on_c, 0, 79, 81
2, 40203, Note_on_c, 0, 79, 0
2, 40204, Note_on_c, 0, 79, 81
2, 40227, Note_on_c, 0, 79, 0
2, 40228, Note_on_c, 0, 79, 81
2, 40234, Note_on_c, 0, 79, 0
2, 40234, Note_on_c, 0, 81, 81
2, 40240, Note_on_c, 0, 81, 0
2, 40240, Note_on_c, 0, 79, 81
2, 40251, Note_on_c, 0, 79, 0
2, 40252, Note_on_c, 0, 78, 81
2, 40275, Note_on_c, 0, 78, 0
2, 40276, Note_on_c, 0, 84, 81
2, 40299, Note_on_c, 0, 84, 0
2, 40300, Note_on_c, 0, 84, 81
2, 40323, Note_on_c, 0, 84, 0
2, 40324, Note_on_c, 0, 82, 81
2, 40339, Note_on_c, 0, 82, 0
2, 40340, Note_on_c, 0, 81, 81
2, 40355, Note_on_c, 0, 81, 0
2, 40356, Note_on_c, 0, 79, 81
2, 40371, Note_on_c, 0, 79, 0
2, 40372, Note_on_c, 0, 78, 81
2, 40387, Note_on_c, 0, 78, 0
2, 40388, Note_on_c, 0, 76, 81
2, 40403, Note_on_c, 0, 76, 0
2, 40404, Note_on_c, 0, 74, 81
2, 40419, Note_on_c, 0, 74, 0
2, 40420, Note_on_c, 0, 81, 81
2, 40431, Note_on_c, 0, 81, 0
2, 40431, Note_on_c, 0, 82, 81
2, 40442, Note_on_c, 0, 82, 0
2, 40442, Note_on_c, 0, 81, 81
2, 40453, Note_on_c, 0, 81, 0
2, 40453, Note_on_c, 0, 82, 81
2, 40464, Note_on_c, 0, 82, 0
2, 40464, Note_on_c, 0, 81, 81
2, 40475, Note_on_c, 0, 81, 0
2, 40475, Note_on_c, 0, 82, 81
2, 40486, Note_on_c, 0, 82, 0
2, 40486, Note_on_c, 0, 81, 81
2, 40496, Note_on_c, 0, 81, 0
2, 40496, Note_on_c, 0, 79, 81
2, 40506, Note_on_c, 0, 79, 0
2, 40506, Note_on_c, 0, 81, 81
2, 40516, Note_on_c, 0, 81, 0
2, 40516, Note_on_c, 0, 79, 81
2, 40605, Note_on_c, 0, 79, 0
2, 40612, Note_on_c, 0, 74, 70
2, 40618, Note_on_c, 0, 74, 0
2, 40618, Note_on_c, 0, 79, 70
2, 40624, Note_on_c, 0, 79, 0
2, 40624, Note_on_c, 0, 82, 86
2, 40684, Note_on_c, 0, 82, 0
2, 40684, Note_on_c, 0, 79, 70
2, 40696, Note_on_c, 0, 79, 0
2, 40696, Note_on_c, 0, 76, 70
2, 40708, Note_on_c, 0, 76, 0
2, 40708, Note_on_c, 0, 73, 70
2, 40723, Note_on_c, 0, 73, 0
2, 40724, Note_on_c, 0, 74, 70
2, 40739, Note_on_c, 0, 74, 0
2, 40740, Note_on_c, 0, 76, 70
2, 40755, Note_on_c, 0, 76, 0
2, 40756, Note_on_c, 0, 74, 70
2, 40801, Note_on_c, 0, 74, 0
2, 40804, Note_on_c, 0, 80, 86
2, 40876, Note_on_c, 0, 80, 0
2, 40876, Note_on_c, 0, 77, 70
2, 40888, Note_on_c, 0, 77, 0
2, 40888, Note_on_c, 0, 74, 70
2, 40900, Note_on_c, 0, 74, 0
2, 40900, Note_on_c, 0, 71, 70
2, 40915, Note_on_c, 0, 71, 0
2, 40916, Note_on_c, 0, 72, 70
2, 40931, Note_on_c, 0, 72, 0
2, 40932, Note_on_c, 0, 74, 70
2, 40947, Note_on_c, 0, 74, 0
2, 40948, Note_on_c, 0, 72, 70
2, 40993, Note_on_c, 0, 72, 0
2, 40996, Note_on_c, 0, 75, 70
2, 41002, Note_on_c, 0, 75, 0
2, 41002, Note_on_c, 0, 77, 70
2, 41008, Note_on_c, 0, 77, 0
2, 41008, Note_on_c, 0, 79, 70
2, 41063, Note_on_c, 0, 79, 0
2, 41068, Note_on_c, 0, 75, 70
2, 41080, Note_on_c, 0, 75, 0
2, 41080, Note_on_c, 0, 72, 70
2, 41092, Note_on_c, 0, 72, 0
2, 41092, Note_on_c, 0, 69, 70
2, 41107, Note_on_c, 0, 69, 0
2, 41108, Note_on_c, 0, 70, 70
2, 41123, Note_on_c, 0, 70, 0
2, 41124, Note_on_c, 0, 72, 70
2, 41139, Note_on_c, 0, 72, 0
2, 41140, Note_on_c, 0, 70, 70
2, 41185, Note_on_c, 0, 70, 0
2, 41188, Note_on_c, 0, 77, 75
2, 41203, Note_on_c, 0, 77, 0
2, 41204, Note_on_c, 0, 75, 75
2, 41219, Note_on_c, 0, 75, 0
2, 41220, Note_on_c, 0, 74, 75
2, 41235, Note_on_c, 0, 74, 0
2, 41236, Note_on_c, 0, 72, 75
2, 41251, Note_on_c, 0, 72, 0
2, 41252, Note_on_c, 0, 70, 75
2, 41267, Note_on_c, 0, 70, 0
2, 41268, Note_on_c, 0, 68, 75
2, 41283, Note_on_c, 0, 68, 0
2, 41284, Note_on_c, 0, 67, 75
2, 41294, Note_on_c, 0, 67, 0
2, 41308, Note_on_c, 0, 70, 76
2, 41318, Note_on_c, 0, 70, 0
2, 41332, Note_on_c, 0, 75, 77
2, 41342, Note_on_c, 0, 75, 0
2, 41356, Note_on_c, 0, 79, 79
2, 41366, Note_on_c, 0, 79, 0
2, 41380, Note_on_c, 0, 77, 80
2, 41395, Note_on_c, 0, 77, 0
2, 41396, Note_on_c, 0, 75, 81
2, 41411, Note_on_c, 0, 75, 0
2, 41412, Note_on_c, 0, 74, 80
2, 41427, Note_on_c, 0, 74, 0
2, 41428, Note_on_c, 0, 72, 79
2, 41443, Note_on_c, 0, 72, 0
2, 41444, Note_on_c, 0, 70, 78
2, 41459, Note_on_c, 0, 70, 0
2, 41460, Note_on_c, 0, 68, 77
2, 41475, Note_on_c, 0, 68, 0
2, 41476, Note_on_c, 0, 67, 75
2, 41486, Note_on_c, 0, 67, 0
2, 41500, Note_on_c, 0, 70, 76
2, 41510, Note_on_c, 0, 70, 0
2, 41524, Note_on_c, 0, 75, 77
2, 41534, Note_on_c, 0, 75, 0
2, 41548, Note_on_c, 0, 79, 79
2, 41558, Note_on_c, 0, 79, 0
2, 41572, Note_on_c, 0, 77, 80
2, 41587, Note_on_c, 0, 77, 0
2, 41588, Note_on_c, 0, 75, 81
2, 41603, Note_on_c, 0, 75, 0
2, 41604, Note_on_c, 0, 74, 80
2, 41619, Note_on_c, 0, 74, 0
2, 41620, Note_on_c, 0, 72, 79
2, 41635, Note_on_c, 0, 72, 0
2, 41636, Note_on_c, 0, 70, 78
2, 41651, Note_on_c, 0, 70, 0
2, 41652, Note_on_c, 0, 68, 77
2, 41667, Note_on_c, 0, 68, 0
2, 41668, Note_on_c, 0, 67, 81
2, 41679, Note_on_c, 0, 67, 0
2, 41679, Note_on_c, 0, 68, 81
2, 41690, Note_on_c, 0, 68, 0
2, 41690, Note_on_c, 0, 67, 81
2, 41700, Note_on_c, 0, 67, 0
2, 41700, Note_on_c, 0, 68, 81
2, 41710, Note_on_c, 0, 68, 0
2, 41710, Note_on_c, 0, 67, 81
2, 41720, Note_on_c, 0, 67, 0
2, 41720, Note_on_c, 0, 68, 81
2, 41730, Note_on_c, 0, 68, 0
2, 41730, Note_on_c, 0, 67, 81
2, 41740, Note_on_c, 0, 67, 0
2, 41740, Note_on_c, 0, 68, 81
2, 41750, Note_on_c, 0, 68, 0
2, 41750, Note_on_c, 0, 67, 81
2, 41760, Note_on_c, 0, 67, 0
2, 41760, Note_on_c, 0, 68, 81
2, 41770, Note_on_c, 0, 68, 0
2, 41770, Note_on_c, 0, 67, 81
2, 41780, Note_on_c, 0, 67, 0
2, 41780, Note_on_c, 0, 68, 81
2, 41790, Note_on_c, 0, 68, 0
2, 41790, Note_on_c, 0, 67, 81
2, 41800, Note_on_c, 0, 67, 0
2, 41800, Note_on_c, 0, 68, 81
2, 41810, Note_on_c, 0, 68, 0
2, 41810, Note_on_c, 0, 67, 81
2, 41820, Note_on_c, 0, 67, 0
2, 41820, Note_on_c, 0, 68, 81
2, 41830, Note_on_c, 0, 68, 0
2, 41830, Note_on_c, 0, 67, 81
2, 41840, Note_on_c, 0, 67, 0
2, 41840, Note_on_c, 0, 68, 81
2, 41850, Note_on_c, 0, 68, 0
2, 41850, Note_on_c, 0, 67, 81
2, 41860, Note_on_c, 0, 67, 0
2, 41860, Note_on_c, 0, 68, 81
2, 41870, Note_on_c, 0, 68, 0
2, 41870, Note_on_c, 0, 66, 81
2, 41880, Note_on_c, 0, 66, 0
2, 41880, Note_on_c, 0, 68, 81
2, 41890, Note_on_c, 0, 68, 0
2, 41890, Note_on_c, 0, 66, 81
2, 41900, Note_on_c, 0, 66, 0
2, 41900, Note_on_c, 0, 68, 81
2, 41910, Note_on_c, 0, 68, 0
2, 41910, Note_on_c, 0, 66, 81
2, 41920, Note_on_c, 0, 66, 0
2, 41920, Note_on_c, 0, 68, 81
2, 41930, Note_on_c, 0, 68, 0
2, 41930, Note_on_c, 0, 66, 81
2, 41940, Note_on_c, 0, 66, 0
2, 41940, Note_on_c, 0, 68, 81
2, 41950, Note_on_c, 0, 68, 0
2, 41950, Note_on_c, 0, 66, 81
2, 41960, Note_on_c, 0, 66, 0
2, 41960, Note_on_c, 0, 68, 81
2, 41970, Note_on_c, 0, 68, 0
2, 41970, Note_on_c, 0, 66, 81
2, 41980, Note_on_c, 0, 66, 0
2, 41980, Note_on_c, 0, 68, 81
2, 41989, Note_on_c, 0, 68, 0
2, 41989, Note_on_c, 0, 66, 81
2, 41998, Note_on_c, 0, 66, 0
2, 41998, Note_on_c, 0, 68, 81
2, 42007, Note_on_c, 0, 68, 0
2, 42007, Note_on_c, 0, 66, 81
2, 42016, Note_on_c, 0, 66, 0
2, 42016, Note_on_c, 0, 68, 81
2, 42025, Note_on_c, 0, 68, 0
2, 42025, Note_on_c, 0, 66, 81
2, 42034, Note_on_c, 0, 66, 0
2, 42034, Note_on_c, 0, 65, 81
2, 42043, Note_on_c, 0, 65, 0
2, 42043, Note_on_c, 0, 66, 81
2, 42052, Note_on_c, 0, 66, 0
2, 42052, Note_on_c, 0, 65, 81
2, 42075, Note_on_c, 0, 65, 0
2, 42076, Note_on_c, 0, 70, 81
2, 42099, Note_on_c, 0, 70, 0
2, 42124, Note_on_c, 0, 70, 81
2, 42134, Note_on_c, 0, 70, 0
2, 42148, Note_on_c, 0, 68, 81
2, 42158, Note_on_c, 0, 68, 0
2, 42158, Note_on_c, 0, 66, 81
2, 42168, Note_on_c, 0, 66, 0
2, 42168, Note_on_c, 0, 68, 81
2, 42178, Note_on_c, 0, 68, 0
2, 42178, Note_on_c, 0, 66, 81
2, 42188, Note_on_c, 0, 66, 0
2, 42188, Note_on_c, 0, 68, 81
2, 42198, Note_on_c, 0, 68, 0
2, 42198, Note_on_c, 0, 66, 81
2, 42208, Note_on_c, 0, 66, 0
2, 42208, Note_on_c, 0, 68, 81
2, 42217, Note_on_c, 0, 68, 0
2, 42217, Note_on_c, 0, 66, 81
2, 42226, Note_on_c, 0, 66, 0
2, 42226, Note_on_c, 0, 65, 81
2, 42235, Note_on_c, 0, 65, 0
2, 42235, Note_on_c, 0, 66, 81
2, 42244, Note_on_c, 0, 66, 0
2, 42244, Note_on_c, 0, 65, 81
2, 42267, Note_on_c, 0, 65, 0
2, 42268, Note_on_c, 0, 70, 81
2, 42291, Note_on_c, 0, 70, 0
2, 42316, Note_on_c, 0, 70, 81
2, 42326, Note_on_c, 0, 70, 0
2, 42340, Note_on_c, 0, 68, 81
2, 42350, Note_on_c, 0, 68, 0
2, 42350, Note_on_c, 0, 66, 81
2, 42360, Note_on_c, 0, 66, 0
2, 42360, Note_on_c, 0, 68, 81
2, 42370, Note_on_c, 0, 68, 0
2, 42370, Note_on_c, 0, 66, 81
2, 42380, Note_on_c, 0, 66, 0
2, 42380, Note_on_c, 0, 68, 81
2, 42390, Note_on_c, 0, 68, 0
2, 42390, Note_on_c, 0, 66, 81
2, 42400, Note_on_c, 0, 66, 0
2, 42400, Note_on_c, 0, 68, 81
2, 42409, Note_on_c, 0, 68, 0
2, 42409, Note_on_c, 0, 66, 81
2, 42418, Note_on_c, 0, 66, 0
2, 42418, Note_on_c, 0, 65, 81
2, 42427, Note_on_c, 0, 65, 0
2, 42427, Note_on_c, 0, 66, 81
2, 42436, Note_on_c, 0, 66, 0
2, 42436, Note_on_c, 0, 65, 81
2, 42525, Note_on_c, 0, 65, 0
2, 42616, Note_on_c, 0, 67, 81
2, 42628, Note_on_c, 0, 67, 0
2, 42628, Note_on_c, 0, 75, 75
2, 42717, Note_on_c, 0, 75, 0
2, 42724, Note_on_c, 0, 75, 75
2, 42758, Note_on_c, 0, 75, 0
2, 42760, Note_on_c, 0, 77, 75
2, 42772, Note_on_c, 0, 77, 0
2, 42772, Note_on_c, 0, 79, 75
2, 42806, Note_on_c, 0, 79, 0
2, 42808, Note_on_c, 0, 80, 75
2, 42820, Note_on_c, 0, 80, 0
2, 42820, Note_on_c, 0, 82, 91
2, 42916, Note_on_c, 0, 82, 0
2, 42916, Note_on_c, 0, 80, 75
2, 42939, Note_on_c, 0, 80, 0
2, 42940, Note_on_c, 0, 79, 75
2, 42963, Note_on_c, 0, 79, 0
2, 42964, Note_on_c, 0, 77, 75
2, 42987, Note_on_c, 0, 77, 0
2, 42988, Note_on_c, 0, 75, 75
2, 43011, Note_on_c, 0, 75, 0
2, 43012, Note_on_c, 0, 74, 75
2, 43035, Note_on_c, 0, 74, 0
2, 43036, Note_on_c, 0, 72, 75
2, 43059, Note_on_c, 0, 72, 0
2, 43060, Note_on_c, 0, 72, 75
2, 43153, Note_on_c, 0, 72, 0
2, 43156, Note_on_c, 0, 75, 75
2, 43179, Note_on_c, 0, 75, 0
2, 43180, Note_on_c, 0, 72, 75
2, 43203, Note_on_c, 0, 72, 0
2, 43204, Note_on_c, 0, 72, 75
2, 43227, Note_on_c, 0, 72, 0
2, 43228, Note_on_c, 0, 70, 75
2, 43251, Note_on_c, 0, 70, 0
2, 43252, Note_on_c, 0, 70, 75
2, 43323, Note_on_c, 0, 70, 0
2, 43324, Note_on_c, 0, 75, 75
2, 43347, Note_on_c, 0, 75, 0
2, 43348, Note_on_c, 0, 79, 75
2, 43371, Note_on_c, 0, 79, 0
2, 43372, Note_on_c, 0, 75, 75
2, 43395, Note_on_c, 0, 75, 0
2, 43396, Note_on_c, 0, 74, 75
2, 43402, Note_on_c, 0, 74, 0
2, 43402, Note_on_c, 0, 75, 75
2, 43408, Note_on_c, 0, 75, 0
2, 43408, Note_on_c, 0, 74, 75
2, 43419, Note_on_c, 0, 74, 0
2, 43420, Note_on_c, 0, 72, 75
2, 43443, Note_on_c, 0, 72, 0
2, 43444, Note_on_c, 0, 72, 75
2, 43515, Note_on_c, 0, 72, 0
2, 43516, Note_on_c, 0, 75, 75
2, 43528, Note_on_c, 0, 75, 0
2, 43528, Note_on_c, 0, 74, 75
2, 43540, Note_on_c, 0, 74, 0
2, 43540, Note_on_c, 0, 77, 75
2, 43552, Note_on_c, 0, 77, 0
2, 43552, Note_on_c, 0, 75, 75
2, 43564, Note_on_c, 0, 75, 0
2, 43564, Note_on_c, 0, 74, 75
2, 43576, Note_on_c, 0, 74, 0
2, 43576, Note_on_c, 0, 72, 75
2, 43588, Note_on_c, 0, 72, 0
2, 43588, Note_on_c, 0, 72, 91
2, 43612, Note_on_c, 0, 72, 0
2, 43612, Note_on_c, 0, 70, 75
2, 43635, Note_on_c, 0, 70, 0
2, 43636, Note_on_c, 0, 70, 75
2, 43718, Note_on_c, 0, 70, 0
2, 43720, Note_on_c, 0, 75, 75
2, 43732, Note_on_c, 0, 75, 0
2, 43732, Note_on_c, 0, 75, 75
2, 43766, Note_on_c, 0, 75, 0
2, 43768, Note_on_c, 0, 75, 75
2, 43780, Note_on_c, 0, 75, 0
2, 43780, Note_on_c, 0, 75, 75
2, 43814, Note_on_c, 0, 75, 0
2, 43816, Note_on_c, 0, 65, 75
2, 43828, Note_on_c, 0, 65, 0
2, 43828, Note_on_c, 0, 65, 75
2, 43910, Note_on_c, 0, 65, 0
2, 43912, Note_on_c, 0, 72, 75
2, 43924, Note_on_c, 0, 72, 0
2, 43924, Note_on_c, 0, 70, 75
2, 43958, Note_on_c, 0, 70, 0
2, 43960, Note_on_c, 0, 68, 75
2, 43972, Note_on_c, 0, 68, 0
2, 43972, Note_on_c, 0, 70, 75
2, 43978, Note_on_c, 0, 70, 0
2, 43978, Note_on_c, 0, 68, 75
2, 43984, Note_on_c, 0, 68, 0
2, 43984, Note_on_c, 0, 67, 75
2, 43990, Note_on_c, 0, 67, 0
2, 43990, Note_on_c, 0, 68, 75
2, 44006, Note_on_c, 0, 68, 0
2, 44008, Note_on_c, 0, 67, 75
2, 44020, Note_on_c, 0, 67, 0
2, 44020, Note_on_c, 0, 67, 75
2, 44102, Note_on_c, 0, 67, 0
2, 44104, Note_on_c, 0, 75, 75
2, 44116, Note_on_c, 0, 75, 0
2, 44116, Note_on_c, 0, 75, 75
2, 44150, Note_on_c, 0, 75, 0
2, 44152, Note_on_c, 0, 75, 75
2, 44164, Note_on_c, 0, 75, 0
2, 44164, Note_on_c, 0, 75, 75
2, 44198, Note_on_c, 0, 75, 0
2, 44200, Note_on_c, 0, 65, 75
2, 44212, Note_on_c, 0, 65, 0
2, 44212, Note_on_c, 0, 65, 75
2, 44305, Note_on_c, 0, 65, 0
2, 44308, Note_on_c, 0, 68, 75
2, 44323, Note_on_c, 0, 68, 0
2, 44324, Note_on_c, 0, 65, 75
2, 44339, Note_on_c, 0, 65, 0
2, 44340, Note_on_c, 0, 62, 75
2, 44355, Note_on_c, 0, 62, 0
2, 44356, Note_on_c, 0, 63, 75
2, 44401, Note_on_c, 0, 63, 0
2, 44404, Note_on_c, 0, 72, 76
2, 44419, Note_on_c, 0, 72, 0
2, 44420, Note_on_c, 0, 68, 76
2, 44435, Note_on_c, 0, 68, 0
2, 44436, Note_on_c, 0, 65, 76
2, 44451, Note_on_c, 0, 65, 0
2, 44452, Note_on_c, 0, 67, 76
2, 44497, Note_on_c, 0, 67, 0
2, 44500, Note_on_c, 0, 77, 77
2, 44512, Note_on_c, 0, 77, 0
2, 44512, Note_on_c, 0, 75, 77
2, 44524, Note_on_c, 0, 75, 0
2, 44524, Note_on_c, 0, 74, 77
2, 44536, Note_on_c, 0, 74, 0
2, 44536, Note_on_c, 0, 72, 77
2, 44548, Note_on_c, 0, 72, 0
2, 44548, Note_on_c, 0, 70, 77
2, 44637, Note_on_c, 0, 70, 0
2, 44644, Note_on_c, 0, 69, 79
2, 44655, Note_on_c, 0, 69, 0
2, 44655, Note_on_c, 0, 70, 79
2, 44666, Note_on_c, 0, 70, 0
2, 44666, Note_on_c, 0, 69, 79
2, 44677, Note_on_c, 0, 69, 0
2, 44677, Note_on_c, 0, 70, 79
2, 44688, Note_on_c, 0, 70, 0
2, 44688, Note_on_c, 0, 69, 79
2, 44699, Note_on_c, 0, 69, 0
2, 44699, Note_on_c, 0, 70, 79
2, 44710, Note_on_c, 0, 70, 0
2, 44710, Note_on_c, 0, 69, 79
2, 44720, Note_on_c, 0, 69, 0
2, 44720, Note_on_c, 0, 67, 79
2, 44730, Note_on_c, 0, 67, 0
2, 44730, Note_on_c, 0, 69, 79
2, 44740, Note_on_c, 0, 69, 0
2, 44740, Note_on_c, 0, 70, 81
2, 44763, Note_on_c, 0, 70, 0
2, 44764, Note_on_c, 0, 72, 70
2, 44776, Note_on_c, 0, 72, 0
2, 44776, Note_on_c, 0, 74, 69
2, 44788, Note_on_c, 0, 74, 0
2, 44788, Note_on_c, 0, 75, 68
2, 44800, Note_on_c, 0, 75, 0
2, 44800, Note_on_c, 0, 77, 68
2, 44812, Note_on_c, 0, 77, 0
2, 44812, Note_on_c, 0, 79, 67
2, 44824, Note_on_c, 0, 79, 0
2, 44824, Note_on_c, 0, 81, 66
2, 44836, Note_on_c, 0, 81, 0
2, 44836, Note_on_c, 0, 82, 66
2, 44848, Note_on_c, 0, 82, 0
2, 44884, Note_on_c, 0, 63, 75
2, 44907, Note_on_c, 0, 63, 0
2, 44908, Note_on_c, 0, 63, 75
2, 44931, Note_on_c, 0, 63, 0
2, 44932, Note_on_c, 0, 63, 75
2, 44938, Note_on_c, 0, 63, 0
2, 44938, Note_on_c, 0, 65, 75
2, 44944, Note_on_c, 0, 65, 0
2, 44944, Note_on_c, 0, 63, 75
2, 44955, Note_on_c, 0, 63, 0
2, 44956, Note_on_c, 0, 62, 75
2, 44979, Note_on_c, 0, 62, 0
2, 44980, Note_on_c, 0, 68, 75
2, 45003, Note_on_c, 0, 68, 0
2, 45004, Note_on_c, 0, 68, 75
2, 45027, Note_on_c, 0, 68, 0
2, 45028, Note_on_c, 0, 68, 75
2, 45034, Note_on_c, 0, 68, 0
2, 45034, Note_on_c, 0, 70, 75
2, 45040, Note_on_c, 0, 70, 0
2, 45040, Note_on_c, 0, 68, 75
2, 45051, Note_on_c, 0, 68, 0
2, 45052, Note_on_c, 0, 67, 75
2, 45075, Note_on_c, 0, 67, 0
2, 45076, Note_on_c, 0, 72, 75
2, 45099, Note_on_c, 0, 72, 0
2, 45100, Note_on_c, 0, 72, 75
2, 45123, Note_on_c, 0, 72, 0
2, 45124, Note_on_c, 0, 72, 75
2, 45130, Note_on_c, 0, 72, 0
2, 45130, Note_on_c, 0, 74, 75
2, 45136, Note_on_c, 0, 74, 0
2, 45136, Note_on_c, 0, 72, 75
2, 45147, Note_on_c, 0, 72, 0
2, 45148, Note_on_c, 0, 70, 75
2, 45171, Note_on_c, 0, 70, 0
2, 45172, Note_on_c, 0, 70, 75
2, 45196, Note_on_c, 0, 70, 0
2, 45196, Note_on_c, 0, 80, 75
2, 45219, Note_on_c, 0, 80, 0
2, 45220, Note_on_c, 0, 80, 75
2, 45287, Note_on_c, 0, 80, 0
2, 45292, Note_on_c, 0, 79, 75
2, 45304, Note_on_c, 0, 79, 0
2, 45304, Note_on_c, 0, 77, 75
2, 45316, Note_on_c, 0, 77, 0
2, 45316, Note_on_c, 0, 79, 75
2, 45331, Note_on_c, 0, 79, 0
2, 45332, Note_on_c, 0, 77, 75
2, 45347, Note_on_c, 0, 77, 0
2, 45348, Note_on_c, 0, 75, 75
2, 45363, Note_on_c, 0, 75, 0
2, 45364, Note_on_c, 0, 74, 75
2, 45379, Note_on_c, 0, 74, 0
2, 45380, Note_on_c, 0, 72, 75
2, 45395, Note_on_c, 0, 72, 0
2, 45396, Note_on_c, 0, 70, 75
2, 45411, Note_on_c, 0, 70, 0
2, 45412, Note_on_c, 0, 79, 75
2, 45422, Note_on_c, 0, 79, 0
2, 45422, Note_on_c, 0, 77, 75
2, 45432, Note_on_c, 0, 77, 0
2, 45432, Note_on_c, 0, 79, 75
2, 45442, Note_on_c, 0, 79, 0
2, 45442, Note_on_c, 0, 77, 75
2, 45452, Note_on_c, 0, 77, 0
2, 45452, Note_on_c, 0, 79, 76
2, 45462, Note_on_c, 0, 79, 0
2, 45462, Note_on_c, 0, 77, 76
2, 45472, Note_on_c, 0, 77, 0
2, 45472, Note_on_c, 0, 79, 76
2, 45481, Note_on_c, 0, 79, 0
2, 45481, Note_on_c, 0, 77, 76
2, 45490, Note_on_c, 0, 77, 0
2, 45490, Note_on_c, 0, 75, 77
2, 45499, Note_on_c, 0, 75, 0
2, 45499, Note_on_c, 0, 77, 77
2, 45508, Note_on_c, 0, 77, 0
2, 45508, Note_on_c, 0, 75, 77
2, 45553, Note_on_c, 0, 75, 0
2, 45556, Note_on_c, 0, 72, 81
2, 45566, Note_on_c, 0, 72, 0
2, 45566, Note_on_c, 0, 70, 81
2, 45576, Note_on_c, 0, 70, 0
2, 45576, Note_on_c, 0, 72, 81
2, 45586, Note_on_c, 0, 72, 0
2, 45586, Note_on_c, 0, 70, 81
2, 45596, Note_on_c, 0, 70, 0
2, 45596, Note_on_c, 0, 72, 81
2, 45606, Note_on_c, 0, 72, 0
2, 45606, Note_on_c, 0, 70, 81
2, 45616, Note_on_c, 0, 70, 0
2, 45616, Note_on_c, 0, 72, 81
2, 45625, Note_on_c, 0, 72, 0
2, 45625, Note_on_c, 0, 70, 81
2, 45634, Note_on_c, 0, 70, 0
2, 45634, Note_on_c, 0, 72, 81
2, 45643, Note_on_c, 0, 72, 0
2, 45643, Note_on_c, 0, 70, 81
2, 45652, Note_on_c, 0, 70, 0
2, 45652, Note_on_c, 0, 72, 81
2, 45662, Note_on_c, 0, 72, 0
2, 45662, Note_on_c, 0, 70, 81
2, 45672, Note_on_c, 0, 70, 0
2, 45672, Note_on_c, 0, 72, 81
2, 45682, Note_on_c, 0, 72, 0
2, 45682, Note_on_c, 0, 70, 81
2, 45691, Note_on_c, 0, 70, 0
2, 45691, Note_on_c, 0, 72, 81
2, 45700, Note_on_c, 0, 72, 0
2, 45700, Note_on_c, 0, 70, 81
2, 45767, Note_on_c, 0, 70, 0
2, 45772, Note_on_c, 0, 74, 81
2, 45784, Note_on_c, 0, 74, 0
2, 45784, Note_on_c, 0, 75, 81
2, 45796, Note_on_c, 0, 75, 0
2, 45796, Note_on_c, 0, 77, 81
2, 45811, Note_on_c, 0, 77, 0
2, 45812, Note_on_c, 0, 75, 81
2, 45827, Note_on_c, 0, 75, 0
2, 45828, Note_on_c, 0, 74, 81
2, 45843, Note_on_c, 0, 74, 0
2, 45844, Note_on_c, 0, 72, 81
2, 45859, Note_on_c, 0, 72, 0
2, 45860, Note_on_c, 0, 70, 81
2, 45875, Note_on_c, 0, 70, 0
2, 45876, Note_on_c, 0, 68, 81
2, 45891, Note_on_c, 0, 68, 0
2, 45892, Note_on_c, 0, 67, 81
2, 45937, Note_on_c, 0, 67, 0
2, 45940, Note_on_c, 0, 72, 81
2, 45950, Note_on_c, 0, 72, 0
2, 45950, Note_on_c, 0, 70, 81
2, 45960, Note_on_c, 0, 70, 0
2, 45960, Note_on_c, 0, 72, 81
2, 45970, Note_on_c, 0, 72, 0
2, 45970, Note_on_c, 0, 70, 81
2, 45980, Note_on_c, 0, 70, 0
2, 45980, Note_on_c, 0, 72, 81
2, 45990, Note_on_c, 0, 72, 0
2, 45990, Note_on_c, 0, 70, 81
2, 46000, Note_on_c, 0, 70, 0
2, 46000, Note_on_c, 0, 72, 81
2, 46009, Note_on_c, 0, 72, 0
2, 46009, Note_on_c, 0, 70, 81
2, 46018, Note_on_c, 0, 70, 0
2, 46018, Note_on_c, 0, 72, 81
2, 46027, Note_on_c, 0, 72, 0
2, 46027, Note_on_c, 0, 70, 81
2, 46036, Note_on_c, 0, 70, 0
2, 46036, Note_on_c, 0, 72, 81
2, 46046, Note_on_c, 0, 72, 0
2, 46046, Note_on_c, 0, 70, 81
2, 46056, Note_on_c, 0, 70, 0
2, 46056, Note_on_c, 0, 72, 81
2, 46066, Note_on_c, 0, 72, 0
2, 46066, Note_on_c, 0, 70, 81
2, 46075, Note_on_c, 0, 70, 0
2, 46075, Note_on_c, 0, 72, 81
2, 46084, Note_on_c, 0, 72, 0
2, 46084, Note_on_c, 0, 70, 81
2, 46151, Note_on_c, 0, 70, 0
2, 46156, Note_on_c, 0, 74, 81
2, 46168, Note_on_c, 0, 74, 0
2, 46168, Note_on_c, 0, 75, 80
2, 46180, Note_on_c, 0, 75, 0
2, 46180, Note_on_c, 0, 77, 79
2, 46195, Note_on_c, 0, 77, 0
2, 46196, Note_on_c, 0, 75, 79
2, 46211, Note_on_c, 0, 75, 0
2, 46212, Note_on_c, 0, 74, 78
2, 46227, Note_on_c, 0, 74, 0
2, 46228, Note_on_c, 0, 72, 78
2, 46243, Note_on_c, 0, 72, 0
2, 46244, Note_on_c, 0, 70, 77
2, 46259, Note_on_c, 0, 70, 0
2, 46260, Note_on_c, 0, 68, 76
2, 46275, Note_on_c, 0, 68, 0
2, 46276, Note_on_c, 0, 67, 75
2, 46321, Note_on_c, 0, 67, 0
2, 46324, Note_on_c, 0, 70, 75
2, 46339, Note_on_c, 0, 70, 0
2, 46340, Note_on_c, 0, 72, 75
2, 46355, Note_on_c, 0, 72, 0
2, 46356, Note_on_c, 0, 70, 75
2, 46371, Note_on_c, 0, 70, 0
2, 46372, Note_on_c, 0, 75, 75
2, 46387, Note_on_c, 0, 75, 0
2, 46388, Note_on_c, 0, 74, 75
2, 46403, Note_on_c, 0, 74, 0
2, 46404, Note_on_c, 0, 72, 75
2, 46419, Note_on_c, 0, 72, 0
2, 46420, Note_on_c, 0, 70, 75
2, 46435, Note_on_c, 0, 70, 0
2, 46436, Note_on_c, 0, 68, 75
2, 46451, Note_on_c, 0, 68, 0
2, 46452, Note_on_c, 0, 67, 75
2, 46467, Note_on_c, 0, 67, 0
2, 46468, Note_on_c, 0, 65, 75
2, 46483, Note_on_c, 0, 65, 0
2, 46484, Note_on_c, 0, 71, 75
2, 46500, Note_on_c, 0, 71, 0
2, 46500, Note_on_c, 0, 72, 75
2, 46515, Note_on_c, 0, 72, 0
2, 46516, Note_on_c, 0, 70, 75
2, 46528, Note_on_c, 0, 70, 0
2, 46528, Note_on_c, 0, 68, 75
2, 46540, Note_on_c, 0, 68, 0
2, 46540, Note_on_c, 0, 67, 75
2, 46552, Note_on_c, 0, 67, 0
2, 46552, Note_on_c, 0, 65, 75
2, 46564, Note_on_c, 0, 65, 0
2, 46564, Note_on_c, 0, 63, 75
2, 46609, Note_on_c, 0, 63, 0
2, 46612, Note_on_c, 0, 62, 75
2, 46622, Note_on_c, 0, 62, 0
2, 46622, Note_on_c, 0, 63, 75
2, 46632, Note_on_c, 0, 63, 0
2, 46632, Note_on_c, 0, 62, 75
2, 46642, Note_on_c, 0, 62, 0
2, 46642, Note_on_c, 0, 60, 75
2, 46651, Note_on_c, 0, 60, 0
2, 46651, Note_on_c, 0, 62, 75
2, 46660, Note_on_c, 0, 62, 0
2, 46660, Note_on_c, 0, 63, 75
2, 46705, Note_on_c, 0, 63, 0
2, 46708, Note_on_c, 0, 70, 70
2, 46708, Note_on_c, 0, 67, 70
2, 46753, Note_on_c, 0, 70, 0
2, 46753, Note_on_c, 0, 67, 0
2, 46756, Note_on_c, 0, 70, 70
2, 46756, Note_on_c, 0, 67, 70
2, 46801, Note_on_c, 0, 70, 0
2, 46801, Note_on_c, 0, 67, 0
2, 46804, Note_on_c, 0, 70, 70
2, 46804, Note_on_c, 0, 67, 70
2, 46849, Note_on_c, 0, 70, 0
2, 46849, Note_on_c, 0, 67, 0
2, 46852, Note_on_c, 0, 70, 86
2, 46924, Note_on_c, 0, 70, 0
2, 46924, Note_on_c, 0, 72, 70
2, 46936, Note_on_c, 0, 72, 0
2, 46936, Note_on_c, 0, 74, 70
2, 46948, Note_on_c, 0, 74, 0
2, 46948, Note_on_c, 0, 75, 70
2, 47037, Note_on_c, 0, 75, 0
2, 47044, Note_on_c, 0, 68, 70
2, 47207, Note_on_c, 0, 68, 0
2, 47212, Note_on_c, 0, 72, 70
2, 47224, Note_on_c, 0, 72, 0
2, 47224, Note_on_c, 0, 68, 70
2, 47236, Note_on_c, 0, 68, 0
2, 47236, Note_on_c, 0, 66, 70
2, 47284, Note_on_c, 0, 66, 0
2, 47284, Note_on_c, 0, 67, 70
2, 47329, Note_on_c, 0, 67, 0
2, 47404, Note_on_c, 0, 82, 70
2, 47416, Note_on_c, 0, 82, 0
2, 47416, Note_on_c, 0, 79, 70
2, 47428, Note_on_c, 0, 79, 0
2, 47428, Note_on_c, 0, 76, 70
2, 47476, Note_on_c, 0, 76, 0
2, 47476, Note_on_c, 0, 77, 70
2, 47521, Note_on_c, 0, 77, 0
2, 47596, Note_on_c, 0, 80, 70
2, 47608, Note_on_c, 0, 80, 0
2, 47608, Note_on_c, 0, 77, 70
2, 47620, Note_on_c, 0, 77, 0
2, 47620, Note_on_c, 0, 74, 70
2, 47668, Note_on_c, 0, 74, 0
2, 47668, Note_on_c, 0, 75, 70
2, 47713, Note_on_c, 0, 75, 0
2, 47716, Note_on_c, 0, 75, 70
2, 47731, Note_on_c, 0, 75, 0
2, 47732, Note_on_c, 0, 79, 70
2, 47747, Note_on_c, 0, 79, 0
2, 47748, Note_on_c, 0, 80, 71
2, 47763, Note_on_c, 0, 80, 0
2, 47764, Note_on_c, 0, 82, 71
2, 47779, Note_on_c, 0, 82, 0
2, 47780, Note_on_c, 0, 84, 72
2, 47795, Note_on_c, 0, 84, 0
2, 47796, Note_on_c, 0, 86, 73
2, 47811, Note_on_c, 0, 86, 0
2, 47812, Note_on_c, 0, 84, 91
2, 47884, Note_on_c, 0, 84, 0
2, 47884, Note_on_c, 0, 82, 75
2, 47896, Note_on_c, 0, 82, 0
2, 47896, Note_on_c, 0, 80, 75
2, 47908, Note_on_c, 0, 80, 0
2, 47908, Note_on_c, 0, 79, 75
2, 47953, Note_on_c, 0, 79, 0
2, 47956, Note_on_c, 0, 77, 75
2, 47966, Note_on_c, 0, 77, 0
2, 47966, Note_on_c, 0, 79, 75
2, 47976, Note_on_c, 0, 79, 0
2, 47976, Note_on_c, 0, 77, 75
2, 47986, Note_on_c, 0, 77, 0
2, 47986, Note_on_c, 0, 75, 75
2, 47995, Note_on_c, 0, 75, 0
2, 47995, Note_on_c, 0, 77, 75
2, 48004, Note_on_c, 0, 77, 0
2, 48004, Note_on_c, 0, 75, 75
2, 48027, Note_on_c, 0, 75, 0
2, 48052, Note_on_c, 0, 75, 75
2, 48067, Note_on_c, 0, 75, 0
2, 48068, Note_on_c, 0, 79, 75
2, 48083, Note_on_c, 0, 79, 0
2, 48084, Note_on_c, 0, 82, 75
2, 48099, Note_on_c, 0, 82, 0
2, 48100, Note_on_c, 0, 80, 75
2, 48115, Note_on_c, 0, 80, 0
2, 48116, Note_on_c, 0, 77, 75
2, 48131, Note_on_c, 0, 77, 0
2, 48132, Note_on_c, 0, 74, 75
2, 48147, Note_on_c, 0, 74, 0
2, 48148, Note_on_c, 0, 77, 75
2, 48163, Note_on_c, 0, 77, 0
2, 48164, Note_on_c, 0, 74, 75
2, 48179, Note_on_c, 0, 74, 0
2, 48180, Note_on_c, 0, 68, 75
2, 48195, Note_on_c, 0, 68, 0
2, 48196, Note_on_c, 0, 67, 75
2, 48211, Note_on_c, 0, 67, 0
2, 48212, Note_on_c, 0, 70, 75
2, 48227, Note_on_c, 0, 70, 0
2, 48228, Note_on_c, 0, 75, 75
2, 48243, Note_on_c, 0, 75, 0
2, 48244, Note_on_c, 0, 72, 75
2, 48259, Note_on_c, 0, 72, 0
2, 48260, Note_on_c, 0, 80, 75
2, 48275, Note_on_c, 0, 80, 0
2, 48276, Note_on_c, 0, 77, 75
2, 48291, Note_on_c, 0, 77, 0
2, 48292, Note_on_c, 0, 75, 75
2, 48337, Note_on_c, 0, 75, 0
2, 48340, Note_on_c, 0, 74, 75
2, 48350, Note_on_c, 0, 74, 0
2, 48350, Note_on_c, 0, 75, 75
2, 48360, Note_on_c, 0, 75, 0
2, 48360, Note_on_c, 0, 74, 75
2, 48370, Note_on_c, 0, 74, 0
2, 48370, Note_on_c, 0, 72, 75
2, 48379, Note_on_c, 0, 72, 0
2, 48379, Note_on_c, 0, 74, 75
2, 48388, Note_on_c, 0, 74, 0
2, 48388, Note_on_c, 0, 75, 75
2, 48411, Note_on_c, 0, 75, 0
2, 48436, Note_on_c, 0, 63, 75
2, 48451, Note_on_c, 0, 63, 0
2, 48452, Note_on_c, 0, 67, 75
2, 48467, Note_on_c, 0, 67, 0
2, 48468, Note_on_c, 0, 70, 75
2, 48483, Note_on_c, 0, 70, 0
2, 48484, Note_on_c, 0, 68, 75
2, 48499, Note_on_c, 0, 68, 0
2, 48500, Note_on_c, 0, 65, 75
2, 48515, Note_on_c, 0, 65, 0
2, 48516, Note_on_c, 0, 62, 75
2, 48531, Note_on_c, 0, 62, 0
2, 48532, Note_on_c, 0, 65, 75
2, 48547, Note_on_c, 0, 65, 0
2, 48548, Note_on_c, 0, 62, 75
2, 48563, Note_on_c, 0, 62, 0
2, 48564, Note_on_c, 0, 56, 75
2, 48579, Note_on_c, 0, 56, 0
2, 48580, Note_on_c, 0, 55, 75
2, 48595, Note_on_c, 0, 55, 0
2, 48596, Note_on_c, 0, 58, 75
2, 48611, Note_on_c, 0, 58, 0
2, 48612, Note_on_c, 0, 63, 75
2, 48627, Note_on_c, 0, 63, 0
2, 48628, Note_on_c, 0, 60, 75
2, 48643, Note_on_c, 0, 60, 0
2, 48644, Note_on_c, 0, 68, 75
2, 48659, Note_on_c, 0, 68, 0
2, 48660, Note_on_c, 0, 65, 75
2, 48675, Note_on_c, 0, 65, 0
2, 48676, Note_on_c, 0, 63, 75
2, 48721, Note_on_c, 0, 63, 0
2, 48724, Note_on_c, 0, 62, 75
2, 48734, Note_on_c, 0, 62, 0
2, 48734, Note_on_c, 0, 63, 75
2, 48744, Note_on_c, 0, 63, 0
2, 48744, Note_on_c, 0, 62, 75
2, 48754, Note_on_c, 0, 62, 0
2, 48754, Note_on_c, 0, 60, 75
2, 48763, Note_on_c, 0, 60, 0
2, 48763, Note_on_c, 0, 62, 75
2, 48772, Note_on_c, 0, 62, 0
2, 48772, Note_on_c, 0, 63, 75
2, 48861, Note_on_c, 0, 63, 0
2, 48868, Note_on_c, 0, 58, 70
2, 48886, Note_on_c, 0, 58, 0
2, 48886, Note_on_c, 0, 68, 70
2, 48935, Note_on_c, 0, 68, 0
2, 48940, Note_on_c, 0, 65, 70
2, 48952, Note_on_c, 0, 65, 0
2, 48952, Note_on_c, 0, 62, 70
2, 48964, Note_on_c, 0, 62, 0
2, 48964, Note_on_c, 0, 63, 70
2, 49053, Note_on_c, 0, 63, 0
2, 49156, End_track
3, 0, Start_track
3, 0, Program_c, 0, 0
3, 0, Control_c, 0, 7, 127
3, 0, Control_c, 0, 10, 64
3, 8448, Note_on_c, 0, 74, 64
3, 8537, Note_on_c, 0, 74, 0
3, 19200, Note_on_c, 0, 74, 64
3, 19289, Note_on_c, 0, 74, 0
3, 33024, Note_on_c, 0, 67, 70
3, 33113, Note_on_c, 0, 67, 0
3, 46848, Note_on_c, 0, 67, 70
3, 46937, Note_on_c, 0, 67, 0
3, 49152, End_track
4, 0, Start_track
4, 0, Program_c, 1, 0
4, 0, Control_c, 1, 7, 127
4, 0, Control_c, 1, 10, 64
4, 48, Note_on_c, 1, 58, 70
4, 48, Note_on_c, 1, 55, 70
4, 48, Note_on_c, 1, 51, 70
4, 95, Note_on_c, 1, 58, 0
4, 95, Note_on_c, 1, 55, 0
4, 95, Note_on_c, 1, 51, 0
4, 96, Note_on_c, 1, 58, 70
4, 96, Note_on_c, 1, 55, 70
4, 96, Note_on_c, 1, 51, 70
4, 143, Note_on_c, 1, 58, 0
4, 143, Note_on_c, 1, 55, 0
4, 143, Note_on_c, 1, 51, 0
4, 144, Note_on_c, 1, 58, 70
4, 144, Note_on_c, 1, 55, 70
4, 144, Note_on_c, 1, 51, 70
4, 191, Note_on_c, 1, 58, 0
4, 191, Note_on_c, 1, 55, 0
4, 191, Note_on_c, 1, 51, 0
4, 240, Note_on_c, 1, 58, 70
4, 240, Note_on_c, 1, 55, 70
4, 240, Note_on_c, 1, 51, 70
4, 287, Note_on_c, 1, 58, 0
4, 287, Note_on_c, 1, 55, 0
4, 287, Note_on_c, 1, 51, 0
4, 288, Note_on_c, 1, 58, 70
4, 288, Note_on_c, 1, 55, 70
4, 288, Note_on_c, 1, 51, 70
4, 335, Note_on_c, 1, 58, 0
4, 335, Note_on_c, 1, 55, 0
4, 335, Note_on_c, 1, 51, 0
4, 336, Note_on_c, 1, 58, 70
4, 336, Note_on_c, 1, 55, 70
4, 336, Note_on_c, 1, 51, 70
4, 383, Note_on_c, 1, 58, 0
4, 383, Note_on_c, 1, 55, 0
4, 383, Note_on_c, 1, 51, 0
4, 432, Note_on_c, 1, 58, 70
4, 432, Note_on_c, 1, 55, 70
4, 432, Note_on_c, 1, 51, 70
4, 479, Note_on_c, 1, 58, 0
4, 479, Note_on_c, 1, 55, 0
4, 479, Note_on_c, 1, 51, 0
4, 480, Note_on_c, 1, 58, 70
4, 480, Note_on_c, 1, 55, 70
4, 480, Note_on_c, 1, 51, 70
4, 527, Note_on_c, 1, 58, 0
4, 527, Note_on_c, 1, 55, 0
4, 527, Note_on_c, 1, 51, 0
4, 528, Note_on_c, 1, 58, 70
4, 528, Note_on_c, 1, 55, 70
4, 528, Note_on_c, 1, 51, 70
4, 575, Note_on_c, 1, 58, 0
4, 575, Note_on_c, 1, 55, 0
4, 575, Note_on_c, 1, 51, 0
4, 576, Note_on_c, 1, 56, 70
4, 576, Note_on_c, 1, 51, 70
4, 623, Note_on_c, 1, 56, 0
4, 623, Note_on_c, 1, 51, 0
4, 624, Note_on_c, 1, 55, 70
4, 624, Note_on_c, 1, 51, 70
4, 671, Note_on_c, 1, 55, 0
4, 671, Note_on_c, 1, 51, 0
4, 720, Note_on_c, 1, 67, 75
4, 765, Note_on_c, 1, 67, 0
4, 768, Note_on_c, 1, 65, 75
4, 768, Note_on_c, 1, 58, 75
4, 813, Note_on_c, 1, 65, 0
4, 813, Note_on_c, 1, 58, 0
4, 816, Note_on_c, 1, 63, 75
4, 861, Note_on_c, 1, 63, 0
4, 912, Note_on_c, 1, 67, 75
4, 912, Note_on_c, 1, 58, 75
4, 957, Note_on_c, 1, 67, 0
4, 957, Note_on_c, 1, 58, 0
4, 960, Note_on_c, 1, 65, 75
4, 1005, Note_on_c, 1, 65, 0
4, 1008, Note_on_c, 1, 63, 75
4, 1053, Note_on_c, 1, 63, 0
4, 1056, Note_on_c, 1, 56, 75
4, 1104, Note_on_c, 1, 56, 0
4, 1104, Note_on_c, 1, 57, 75
4, 1149, Note_on_c, 1, 57, 0
4, 1152, Note_on_c, 1, 58, 75
4, 1197, Note_on_c, 1, 58, 0
4, 1200, Note_on_c, 1, 46, 75
4, 1245, Note_on_c, 1, 46, 0
4, 1392, Note_on_c, 1, 53, 70
4, 1392, Note_on_c, 1, 50, 70
4, 1392, Note_on_c, 1, 46, 70
4, 1439, Note_on_c, 1, 53, 0
4, 1439, Note_on_c, 1, 50, 0
4, 1439, Note_on_c, 1, 46, 0
4, 1440, Note_on_c, 1, 53, 70
4, 1440, Note_on_c, 1, 50, 70
4, 1440, Note_on_c, 1, 46, 70
4, 1487, Note_on_c, 1, 53, 0
4, 1487, Note_on_c, 1, 50, 0
4, 1487, Note_on_c, 1, 46, 0
4, 1488, Note_on_c, 1, 53, 70
4, 1488, Note_on_c, 1, 50, 70
4, 1488, Note_on_c, 1, 46, 70
4, 1535, Note_on_c, 1, 53, 0
4, 1535, Note_on_c, 1, 50, 0
4, 1535, Note_on_c, 1, 46, 0
4, 1584, Note_on_c, 1, 53, 70
4, 1584, Note_on_c, 1, 50, 70
4, 1584, Note_on_c, 1, 46, 70
4, 1631, Note_on_c, 1, 53, 0
4, 1631, Note_on_c, 1, 50, 0
4, 1631, Note_on_c, 1, 46, 0
4, 1632, Note_on_c, 1, 53, 70
4, 1632, Note_on_c, 1, 50, 70
4, 1632, Note_on_c, 1, 46, 70
4, 1679, Note_on_c, 1, 53, 0
4, 1679, Note_on_c, 1, 50, 0
4, 1679, Note_on_c, 1, 46, 0
4, 1680, Note_on_c, 1, 53, 70
4, 1680, Note_on_c, 1, 50, 70
4, 1680, Note_on_c, 1, 46, 70
4, 1727, Note_on_c, 1, 53, 0
4, 1727, Note_on_c, 1, 50, 0
4, 1727, Note_on_c, 1, 46, 0
4, 1728, Note_on_c, 1, 51, 70
4, 1728, Note_on_c, 1, 46, 70
4, 1775, Note_on_c, 1, 51, 0
4, 1775, Note_on_c, 1, 46, 0
4, 1776, Note_on_c, 1, 50, 70
4, 1776, Note_on_c, 1, 46, 70
4, 1823, Note_on_c, 1, 50, 0
4, 1823, Note_on_c, 1, 46, 0
4, 1872, Note_on_c, 1, 62, 75
4, 1917, Note_on_c, 1, 62, 0
4, 1920, Note_on_c, 1, 60, 75
4, 1920, Note_on_c, 1, 53, 75
4, 1965, Note_on_c, 1, 60, 0
4, 1965, Note_on_c, 1, 53, 0
4, 1968, Note_on_c, 1, 58, 75
4, 2013, Note_on_c, 1, 58, 0
4, 2064, Note_on_c, 1, 62, 75
4, 2109, Note_on_c, 1, 62, 0
4, 2112, Note_on_c, 1, 60, 75
4, 2112, Note_on_c, 1, 53, 75
4, 2157, Note_on_c, 1, 60, 0
4, 2157, Note_on_c, 1, 53, 0
4, 2160, Note_on_c, 1, 58, 75
4, 2205, Note_on_c, 1, 58, 0
4, 2256, Note_on_c, 1, 58, 75
4, 2256, Note_on_c, 1, 50, 75
4, 2301, Note_on_c, 1, 58, 0
4, 2301, Note_on_c, 1, 50, 0
4, 2304, Note_on_c, 1, 58, 70
4, 2304, Note_on_c, 1, 55, 70
4, 2304, Note_on_c, 1, 51, 70
4, 2351, Note_on_c, 1, 58, 0
4, 2351, Note_on_c, 1, 55, 0
4, 2351, Note_on_c, 1, 51, 0
4, 2352, Note_on_c, 1, 58, 70
4, 2352, Note_on_c, 1, 55, 70
4, 2352, Note_on_c, 1, 51, 70
4, 2399, Note_on_c, 1, 58, 0
4, 2399, Note_on_c, 1, 55, 0
4, 2399, Note_on_c, 1, 51, 0
4, 2400, Note_on_c, 1, 58, 70
4, 2400, Note_on_c, 1, 55, 70
4, 2400, Note_on_c, 1, 51, 70
4, 2447, Note_on_c, 1, 58, 0
4, 2447, Note_on_c, 1, 55, 0
4, 2447, Note_on_c, 1, 51, 0
4, 2448, Note_on_c, 1, 58, 70
4, 2448, Note_on_c, 1, 55, 70
4, 2448, Note_on_c, 1, 51, 70
4, 2495, Note_on_c, 1, 58, 0
4, 2495, Note_on_c, 1, 55, 0
4, 2495, Note_on_c, 1, 51, 0
4, 2544, Note_on_c, 1, 58, 70
4, 2544, Note_on_c, 1, 55, 70
4, 2544, Note_on_c, 1, 51, 70
4, 2591, Note_on_c, 1, 58, 0
4, 2591, Note_on_c, 1, 55, 0
4, 2591, Note_on_c, 1, 51, 0
4, 2592, Note_on_c, 1, 58, 70
4, 2592, Note_on_c, 1, 55, 70
4, 2592, Note_on_c, 1, 51, 70
4, 2639, Note_on_c, 1, 58, 0
4, 2639, Note_on_c, 1, 55, 0
4, 2639, Note_on_c, 1, 51, 0
4, 2640, Note_on_c, 1, 58, 70
4, 2640, Note_on_c, 1, 55, 70
4, 2640, Note_on_c, 1, 51, 70
4, 2687, Note_on_c, 1, 58, 0
4, 2687, Note_on_c, 1, 55, 0
4, 2687, Note_on_c, 1, 51, 0
4, 2736, Note_on_c, 1, 56, 70
4, 2736, Note_on_c, 1, 51, 70
4, 2783, Note_on_c, 1, 56, 0
4, 2783, Note_on_c, 1, 51, 0
4, 2784, Note_on_c, 1, 56, 70
4, 2784, Note_on_c, 1, 51, 70
4, 2831, Note_on_c, 1, 56, 0
4, 2831, Note_on_c, 1, 51, 0
4, 2832, Note_on_c, 1, 56, 70
4, 2832, Note_on_c, 1, 51, 70
4, 2879, Note_on_c, 1, 56, 0
4, 2879, Note_on_c, 1, 51, 0
4, 2928, Note_on_c, 1, 55, 70
4, 2928, Note_on_c, 1, 51, 70
4, 2975, Note_on_c, 1, 55, 0
4, 2975, Note_on_c, 1, 51, 0
4, 2976, Note_on_c, 1, 55, 70
4, 2976, Note_on_c, 1, 51, 70
4, 3023, Note_on_c, 1, 55, 0
4, 3023, Note_on_c, 1, 51, 0
4, 3024, Note_on_c, 1, 55, 70
4, 3024, Note_on_c, 1, 51, 70
4, 3071, Note_on_c, 1, 55, 0
4, 3071, Note_on_c, 1, 51, 0
4, 3120, Note_on_c, 1, 56, 70
4, 3120, Note_on_c, 1, 51, 70
4, 3167, Note_on_c, 1, 56, 0
4, 3167, Note_on_c, 1, 51, 0
4, 3168, Note_on_c, 1, 56, 70
4, 3168, Note_on_c, 1, 51, 70
4, 3215, Note_on_c, 1, 56, 0
4, 3215, Note_on_c, 1, 51, 0
4, 3216, Note_on_c, 1, 56, 70
4, 3216, Note_on_c, 1, 51, 70
4, 3263, Note_on_c, 1, 56, 0
4, 3263, Note_on_c, 1, 51, 0
4, 3264, Note_on_c, 1, 55, 70
4, 3264, Note_on_c, 1, 51, 70
4, 3353, Note_on_c, 1, 55, 0
4, 3353, Note_on_c, 1, 51, 0
4, 3360, Note_on_c, 1, 63, 70
4, 3360, Note_on_c, 1, 55, 70
4, 3449, Note_on_c, 1, 63, 0
4, 3449, Note_on_c, 1, 55, 0
4, 3456, Note_on_c, 1, 63, 70
4, 3456, Note_on_c, 1, 56, 70
4, 3545, Note_on_c, 1, 63, 0
4, 3545, Note_on_c, 1, 56, 0
4, 3552, Note_on_c, 1, 62, 70
4, 3552, Note_on_c, 1, 58, 70
4, 3641, Note_on_c, 1, 62, 0
4, 3641, Note_on_c, 1, 58, 0
4, 3648, Note_on_c, 1, 63, 70
4, 3648, Note_on_c, 1, 60, 70
4, 3737, Note_on_c, 1, 63, 0
4, 3737, Note_on_c, 1, 60, 0
4, 3744, Note_on_c, 1, 63, 70
4, 3744, Note_on_c, 1, 55, 70
4, 3833, Note_on_c, 1, 63, 0
4, 3833, Note_on_c, 1, 55, 0
4, 3840, Note_on_c, 1, 63, 70
4, 3840, Note_on_c, 1, 56, 70
4, 3929, Note_on_c, 1, 63, 0
4, 3929, Note_on_c, 1, 56, 0
4, 3936, Note_on_c, 1, 62, 70
4, 3936, Note_on_c, 1, 58, 70
4, 4025, Note_on_c, 1, 62, 0
4, 4025, Note_on_c, 1, 58, 0
4, 4032, Note_on_c, 1, 51, 70
4, 4077, Note_on_c, 1, 51, 0
4, 4080, Note_on_c, 1, 58, 69
4, 4125, Note_on_c, 1, 58, 0
4, 4128, Note_on_c, 1, 51, 68
4, 4173, Note_on_c, 1, 51, 0
4, 4176, Note_on_c, 1, 58, 67
4, 4221, Note_on_c, 1, 58, 0
4, 4224, Note_on_c, 1, 51, 66
4, 4313, Note_on_c, 1, 51, 0
4, 4464, Note_on_c, 1, 70, 70
4, 4553, Note_on_c, 1, 70, 0
4, 4560, Note_on_c, 1, 70, 70
4, 4653, Note_on_c, 1, 70, 0
4, 4656, Note_on_c, 1, 69, 70
4, 4701, Note_on_c, 1, 69, 0
4, 4704, Note_on_c, 1, 70, 70
4, 4793, Note_on_c, 1, 70, 0
4, 4848, Note_on_c, 1, 70, 70
4, 4937, Note_on_c, 1, 70, 0
4, 4944, Note_on_c, 1, 70, 70
4, 5037, Note_on_c, 1, 70, 0
4, 5040, Note_on_c, 1, 69, 70
4, 5085, Note_on_c, 1, 69, 0
4, 5088, Note_on_c, 1, 70, 66
4, 5177, Note_on_c, 1, 70, 0
4, 5184, Note_on_c, 1, 63, 70
4, 5207, Note_on_c, 1, 63, 0
4, 5208, Note_on_c, 1, 67, 70
4, 5231, Note_on_c, 1, 67, 0
4, 5232, Note_on_c, 1, 63, 71
4, 5255, Note_on_c, 1, 63, 0
4, 5256, Note_on_c, 1, 67, 71
4, 5279, Note_on_c, 1, 67, 0
4, 5280, Note_on_c, 1, 63, 72
4, 5303, Note_on_c, 1, 63, 0
4, 5304, Note_on_c, 1, 67, 72
4, 5327, Note_on_c, 1, 67, 0
4, 5328, Note_on_c, 1, 63, 73
4, 5351, Note_on_c, 1, 63, 0
4, 5352, Note_on_c, 1, 67, 73
4, 5375, Note_on_c, 1, 67, 0
4, 5376, Note_on_c, 1, 63, 74
4, 5399, Note_on_c, 1, 63, 0
4, 5400, Note_on_c, 1, 67, 74
4, 5423, Note_on_c, 1, 67, 0
4, 5424, Note_on_c, 1, 63, 75
4, 5447, Note_on_c, 1, 63, 0
4, 5448, Note_on_c, 1, 67, 75
4, 5471, Note_on_c, 1, 67, 0
4, 5472, Note_on_c, 1, 63, 76
4, 5495, Note_on_c, 1, 63, 0
4, 5496, Note_on_c, 1, 67, 76
4, 5519, Note_on_c, 1, 67, 0
4, 5520, Note_on_c, 1, 63, 77
4, 5543, Note_on_c, 1, 63, 0
4, 5544, Note_on_c, 1, 67, 77
4, 5567, Note_on_c, 1, 67, 0
4, 5568, Note_on_c, 1, 64, 78
4, 5591, Note_on_c, 1, 64, 0
4, 5592, Note_on_c, 1, 67, 78
4, 5615, Note_on_c, 1, 67, 0
4, 5616, Note_on_c, 1, 64, 79
4, 5639, Note_on_c, 1, 64, 0
4, 5640, Note_on_c, 1, 67, 79
4, 5663, Note_on_c, 1, 67, 0
4, 5664, Note_on_c, 1, 64, 80
4, 5687, Note_on_c, 1, 64, 0
4, 5688, Note_on_c, 1, 67, 81
4, 5711, Note_on_c, 1, 67, 0
4, 5712, Note_on_c, 1, 64, 81
4, 5735, Note_on_c, 1, 64, 0
4, 5736, Note_on_c, 1, 67, 81
4, 5759, Note_on_c, 1, 67, 0
4, 5760, Note_on_c, 1, 65, 81
4, 5807, Note_on_c, 1, 65, 0
4, 5808, Note_on_c, 1, 69, 75
4, 5808, Note_on_c, 1, 65, 75
4, 5855, Note_on_c, 1, 69, 0
4, 5855, Note_on_c, 1, 65, 0
4, 5856, Note_on_c, 1, 70, 75
4, 5856, Note_on_c, 1, 65, 75
4, 5903, Note_on_c, 1, 70, 0
4, 5903, Note_on_c, 1, 65, 0
4, 5904, Note_on_c, 1, 70, 75
4, 5904, Note_on_c, 1, 65, 75
4, 5951, Note_on_c, 1, 70, 0
4, 5951, Note_on_c, 1, 65, 0
4, 5952, Note_on_c, 1, 69, 75
4, 5952, Note_on_c, 1, 65, 75
4, 5999, Note_on_c, 1, 69, 0
4, 5999, Note_on_c, 1, 65, 0
4, 6000, Note_on_c, 1, 69, 75
4, 6000, Note_on_c, 1, 65, 75
4, 6047, Note_on_c, 1, 69, 0
4, 6047, Note_on_c, 1, 65, 0
4, 6048, Note_on_c, 1, 70, 75
4, 6048, Note_on_c, 1, 65, 75
4, 6095, Note_on_c, 1, 70, 0
4, 6095, Note_on_c, 1, 65, 0
4, 6096, Note_on_c, 1, 70, 75
4, 6096, Note_on_c, 1, 65, 75
4, 6143, Note_on_c, 1, 70, 0
4, 6143, Note_on_c, 1, 65, 0
4, 6144, Note_on_c, 1, 69, 75
4, 6144, Note_on_c, 1, 65, 75
4, 6191, Note_on_c, 1, 69, 0
4, 6191, Note_on_c, 1, 65, 0
4, 6192, Note_on_c, 1, 69, 75
4, 6192, Note_on_c, 1, 65, 75
4, 6239, Note_on_c, 1, 69, 0
4, 6239, Note_on_c, 1, 65, 0
4, 6240, Note_on_c, 1, 70, 75
4, 6240, Note_on_c, 1, 65, 75
4, 6287, Note_on_c, 1, 70, 0
4, 6287, Note_on_c, 1, 65, 0
4, 6288, Note_on_c, 1, 70, 75
4, 6288, Note_on_c, 1, 65, 75
4, 6335, Note_on_c, 1, 70, 0
4, 6335, Note_on_c, 1, 65, 0
4, 6336, Note_on_c, 1, 69, 75
4, 6336, Note_on_c, 1, 65, 75
4, 6425, Note_on_c, 1, 69, 0
4, 6425, Note_on_c, 1, 65, 0
4, 6432, Note_on_c, 1, 62, 75
4, 6521, Note_on_c, 1, 62, 0
4, 6528, Note_on_c, 1, 60, 75
4, 6573, Note_on_c, 1, 60, 0
4, 6576, Note_on_c, 1, 57, 75
4, 6621, Note_on_c, 1, 57, 0
4, 6624, Note_on_c, 1, 58, 75
4, 6669, Note_on_c, 1, 58, 0
4, 6672, Note_on_c, 1, 63, 75
4, 6717, Note_on_c, 1, 63, 0
4, 6720, Note_on_c, 1, 62, 75
4, 6809, Note_on_c, 1, 62, 0
4, 6864, Note_on_c, 1, 57, 75
4, 6909, Note_on_c, 1, 57, 0
4, 6912, Note_on_c, 1, 58, 75
4, 6957, Note_on_c, 1, 58, 0
4, 6960, Note_on_c, 1, 62, 75
4, 7005, Note_on_c, 1, 62, 0
4, 7008, Note_on_c, 1, 63, 75
4, 7053, Note_on_c, 1, 63, 0
4, 7056, Note_on_c, 1, 65, 75
4, 7101, Note_on_c, 1, 65, 0
4, 7104, Note_on_c, 1, 58, 75
4, 7149, Note_on_c, 1, 58, 0
4, 7152, Note_on_c, 1, 62, 76
4, 7175, Note_on_c, 1, 62, 0
4, 7176, Note_on_c, 1, 65, 76
4, 7199, Note_on_c, 1, 65, 0
4, 7200, Note_on_c, 1, 60, 77
4, 7223, Note_on_c, 1, 60, 0
4, 7224, Note_on_c, 1, 63, 77
4, 7247, Note_on_c, 1, 63, 0
4, 7248, Note_on_c, 1, 58, 78
4, 7271, Note_on_c, 1, 58, 0
4, 7272, Note_on_c, 1, 62, 78
4, 7295, Note_on_c, 1, 62, 0
4, 7296, Note_on_c, 1, 60, 79
4, 7296, Note_on_c, 1, 57, 79
4, 7385, Note_on_c, 1, 60, 0
4, 7385, Note_on_c, 1, 57, 0
4, 7536, Note_on_c, 1, 62, 75
4, 7559, Note_on_c, 1, 62, 0
4, 7560, Note_on_c, 1, 65, 75
4, 7583, Note_on_c, 1, 65, 0
4, 7584, Note_on_c, 1, 60, 76
4, 7607, Note_on_c, 1, 60, 0
4, 7608, Note_on_c, 1, 63, 76
4, 7631, Note_on_c, 1, 63, 0
4, 7632, Note_on_c, 1, 58, 77
4, 7655, Note_on_c, 1, 58, 0
4, 7656, Note_on_c, 1, 62, 78
4, 7679, Note_on_c, 1, 62, 0
4, 7680, Note_on_c, 1, 60, 78
4, 7680, Note_on_c, 1, 57, 78
4, 7769, Note_on_c, 1, 60, 0
4, 7769, Note_on_c, 1, 57, 0
4, 7872, Note_on_c, 1, 58, 81
4, 7872, Note_on_c, 1, 46, 81
4, 7961, Note_on_c, 1, 58, 0
4, 7961, Note_on_c, 1, 46, 0
4, 8016, Note_on_c, 1, 58, 81
4, 8016, Note_on_c, 1, 46, 81
4, 8061, Note_on_c, 1, 58, 0
4, 8061, Note_on_c, 1, 46, 0
4, 8064, Note_on_c, 1, 58, 81
4, 8064, Note_on_c, 1, 51, 81
4, 8111, Note_on_c, 1, 58, 0
4, 8111, Note_on_c, 1, 51, 0
4, 8112, Note_on_c, 1, 60, 81
4, 8112, Note_on_c, 1, 51, 81
4, 8159, Note_on_c, 1, 60, 0
4, 8159, Note_on_c, 1, 51, 0
4, 8160, Note_on_c, 1, 62, 81
4, 8160, Note_on_c, 1, 53, 81
4, 8207, Note_on_c, 1, 62, 0
4, 8207, Note_on_c, 1, 53, 0
4, 8208, Note_on_c, 1, 60, 81
4, 8208, Note_on_c, 1, 53, 81
4, 8255, Note_on_c, 1, 60, 0
4, 8255, Note_on_c, 1, 53, 0
4, 8256, Note_on_c, 1, 58, 81
4, 8345, Note_on_c, 1, 58, 0
4, 8448, Note_on_c, 1, 58, 70
4, 8448, Note_on_c, 1, 46, 70
4, 8537, Note_on_c, 1, 58, 0
4, 8537, Note_on_c, 1, 46, 0
4, 8688, Note_on_c, 1, 70, 66
4, 8688, Note_on_c, 1, 67, 66
4, 8735, Note_on_c, 1, 70, 0
4, 8735, Note_on_c, 1, 67, 0
4, 8736, Note_on_c, 1, 70, 66
4, 8736, Note_on_c, 1, 67, 66
4, 8783, Note_on_c, 1, 70, 0
4, 8783, Note_on_c, 1, 67, 0
4, 8784, Note_on_c, 1, 70, 66
4, 8784, Note_on_c, 1, 67, 66
4, 8831, Note_on_c, 1, 70, 0
4, 8831, Note_on_c, 1, 67, 0
4, 8880, Note_on_c, 1, 69, 66
4, 8880, Note_on_c, 1, 65, 66
4, 8927, Note_on_c, 1, 69, 0
4, 8927, Note_on_c, 1, 65, 0
4, 8928, Note_on_c, 1, 69, 66
4, 8928, Note_on_c, 1, 65, 66
4, 8975, Note_on_c, 1, 69, 0
4, 8975, Note_on_c, 1, 65, 0
4, 8976, Note_on_c, 1, 69, 66
4, 8976, Note_on_c, 1, 65, 66
4, 9023, Note_on_c, 1, 69, 0
4, 9023, Note_on_c, 1, 65, 0
4, 9072, Note_on_c, 1, 67, 66
4, 9072, Note_on_c, 1, 63, 66
4, 9119, Note_on_c, 1, 67, 0
4, 9119, Note_on_c, 1, 63, 0
4, 9120, Note_on_c, 1, 67, 66
4, 9120, Note_on_c, 1, 63, 66
4, 9167, Note_on_c, 1, 67, 0
4, 9167, Note_on_c, 1, 63, 0
4, 9168, Note_on_c, 1, 67, 66
4, 9168, Note_on_c, 1, 63, 66
4, 9215, Note_on_c, 1, 67, 0
4, 9215, Note_on_c, 1, 63, 0
4, 9264, Note_on_c, 1, 65, 66
4, 9264, Note_on_c, 1, 62, 66
4, 9309, Note_on_c, 1, 65, 0
4, 9309, Note_on_c, 1, 62, 0
4, 9360, Note_on_c, 1, 58, 75
4, 9405, Note_on_c, 1, 58, 0
4, 9408, Note_on_c, 1, 58, 81
4, 9497, Note_on_c, 1, 58, 0
4, 9504, Note_on_c, 1, 58, 81
4, 9549, Note_on_c, 1, 58, 0
4, 9552, Note_on_c, 1, 57, 81
4, 9597, Note_on_c, 1, 57, 0
4, 9600, Note_on_c, 1, 58, 75
4, 9615, Note_on_c, 1, 58, 0
4, 9616, Note_on_c, 1, 62, 75
4, 9631, Note_on_c, 1, 62, 0
4, 9632, Note_on_c, 1, 65, 75
4, 9647, Note_on_c, 1, 65, 0
4, 9744, Note_on_c, 1, 60, 75
4, 9789, Note_on_c, 1, 60, 0
4, 9840, Note_on_c, 1, 63, 75
4, 9885, Note_on_c, 1, 63, 0
4, 9888, Note_on_c, 1, 62, 75
4, 9933, Note_on_c, 1, 62, 0
4, 9936, Note_on_c, 1, 60, 75
4, 9981, Note_on_c, 1, 60, 0
4, 9984, Note_on_c, 1, 58, 75
4, 9999, Note_on_c, 1, 58, 0
4, 10000, Note_on_c, 1, 62, 75
4, 10015, Note_on_c, 1, 62, 0
4, 10016, Note_on_c, 1, 65, 75
4, 10031, Note_on_c, 1, 65, 0
4, 10128, Note_on_c, 1, 60, 75
4, 10173, Note_on_c, 1, 60, 0
4, 10224, Note_on_c, 1, 63, 75
4, 10269, Note_on_c, 1, 63, 0
4, 10272, Note_on_c, 1, 62, 75
4, 10317, Note_on_c, 1, 62, 0
4, 10320, Note_on_c, 1, 60, 75
4, 10365, Note_on_c, 1, 60, 0
4, 10368, Note_on_c, 1, 58, 75
4, 10457, Note_on_c, 1, 58, 0
4, 10464, Note_on_c, 1, 60, 66
4, 10464, Note_on_c, 1, 53, 66
4, 10553, Note_on_c, 1, 60, 0
4, 10553, Note_on_c, 1, 53, 0
4, 10560, Note_on_c, 1, 62, 66
4, 10560, Note_on_c, 1, 58, 66
4, 10649, Note_on_c, 1, 62, 0
4, 10649, Note_on_c, 1, 58, 0
4, 10800, Note_on_c, 1, 58, 70
4, 10800, Note_on_c, 1, 55, 70
4, 10800, Note_on_c, 1, 51, 70
4, 10847, Note_on_c, 1, 58, 0
4, 10847, Note_on_c, 1, 55, 0
4, 10847, Note_on_c, 1, 51, 0
4, 10848, Note_on_c, 1, 58, 70
4, 10848, Note_on_c, 1, 55, 70
4, 10848, Note_on_c, 1, 51, 70
4, 10895, Note_on_c, 1, 58, 0
4, 10895, Note_on_c, 1, 55, 0
4, 10895, Note_on_c, 1, 51, 0
4, 10896, Note_on_c, 1, 58, 70
4, 10896, Note_on_c, 1, 55, 70
4, 10896, Note_on_c, 1, 51, 70
4, 10943, Note_on_c, 1, 58, 0
4, 10943, Note_on_c, 1, 55, 0
4, 10943, Note_on_c, 1, 51, 0
4, 10992, Note_on_c, 1, 58, 70
4, 10992, Note_on_c, 1, 55, 70
4, 10992, Note_on_c, 1, 51, 70
4, 11039, Note_on_c, 1, 58, 0
4, 11039, Note_on_c, 1, 55, 0
4, 11039, Note_on_c, 1, 51, 0
4, 11040, Note_on_c, 1, 58, 70
4, 11040, Note_on_c, 1, 55, 70
4, 11040, Note_on_c, 1, 51, 70
4, 11087, Note_on_c, 1, 58, 0
4, 11087, Note_on_c, 1, 55, 0
4, 11087, Note_on_c, 1, 51, 0
4, 11088, Note_on_c, 1, 58, 70
4, 11088, Note_on_c, 1, 55, 70
4, 11088, Note_on_c, 1, 51, 70
4, 11135, Note_on_c, 1, 58, 0
4, 11135, Note_on_c, 1, 55, 0
4, 11135, Note_on_c, 1, 51, 0
4, 11184, Note_on_c, 1, 58, 70
4, 11184, Note_on_c, 1, 55, 70
4, 11184, Note_on_c, 1, 51, 70
4, 11231, Note_on_c, 1, 58, 0
4, 11231, Note_on_c, 1, 55, 0
4, 11231, Note_on_c, 1, 51, 0
4, 11232, Note_on_c, 1, 58, 70
4, 11232, Note_on_c, 1, 55, 70
4, 11232, Note_on_c, 1, 51, 70
4, 11279, Note_on_c, 1, 58, 0
4, 11279, Note_on_c, 1, 55, 0
4, 11279, Note_on_c, 1, 51, 0
4, 11280, Note_on_c, 1, 58, 70
4, 11280, Note_on_c, 1, 55, 70
4, 11280, Note_on_c, 1, 51, 70
4, 11327, Note_on_c, 1, 58, 0
4, 11327, Note_on_c, 1, 55, 0
4, 11327, Note_on_c, 1, 51, 0
4, 11328, Note_on_c, 1, 56, 70
4, 11328, Note_on_c, 1, 51, 70
4, 11375, Note_on_c, 1, 56, 0
4, 11375, Note_on_c, 1, 51, 0
4, 11376, Note_on_c, 1, 55, 70
4, 11376, Note_on_c, 1, 51, 70
4, 11423, Note_on_c, 1, 55, 0
4, 11423, Note_on_c, 1, 51, 0
4, 11472, Note_on_c, 1, 67, 75
4, 11517, Note_on_c, 1, 67, 0
4, 11520, Note_on_c, 1, 65, 75
4, 11520, Note_on_c, 1, 58, 75
4, 11565, Note_on_c, 1, 65, 0
4, 11565, Note_on_c, 1, 58, 0
4, 11568, Note_on_c, 1, 63, 75
4, 11613, Note_on_c, 1, 63, 0
4, 11664, Note_on_c, 1, 67, 75
4, 11664, Note_on_c, 1, 58, 75
4, 11709, Note_on_c, 1, 67, 0
4, 11709, Note_on_c, 1, 58, 0
4, 11712, Note_on_c, 1, 65, 75
4, 11757, Note_on_c, 1, 65, 0
4, 11760, Note_on_c, 1, 63, 75
4, 11805, Note_on_c, 1, 63, 0
4, 11808, Note_on_c, 1, 56, 75
4, 11856, Note_on_c, 1, 56, 0
4, 11856, Note_on_c, 1, 57, 75
4, 11901, Note_on_c, 1, 57, 0
4, 11904, Note_on_c, 1, 58, 75
4, 11949, Note_on_c, 1, 58, 0
4, 11952, Note_on_c, 1, 46, 75
4, 11997, Note_on_c, 1, 46, 0
4, 12144, Note_on_c, 1, 53, 70
4, 12144, Note_on_c, 1, 50, 70
4, 12144, Note_on_c, 1, 46, 70
4, 12191, Note_on_c, 1, 53, 0
4, 12191, Note_on_c, 1, 50, 0
4, 12191, Note_on_c, 1, 46, 0
4, 12192, Note_on_c, 1, 53, 70
4, 12192, Note_on_c, 1, 50, 70
4, 12192, Note_on_c, 1, 46, 70
4, 12239, Note_on_c, 1, 53, 0
4, 12239, Note_on_c, 1, 50, 0
4, 12239, Note_on_c, 1, 46, 0
4, 12240, Note_on_c, 1, 53, 70
4, 12240, Note_on_c, 1, 50, 70
4, 12240, Note_on_c, 1, 46, 70
4, 12287, Note_on_c, 1, 53, 0
4, 12287, Note_on_c, 1, 50, 0
4, 12287, Note_on_c, 1, 46, 0
4, 12336, Note_on_c, 1, 53, 70
4, 12336, Note_on_c, 1, 50, 70
4, 12336, Note_on_c, 1, 46, 70
4, 12383, Note_on_c, 1, 53, 0
4, 12383, Note_on_c, 1, 50, 0
4, 12383, Note_on_c, 1, 46, 0
4, 12384, Note_on_c, 1, 53, 70
4, 12384, Note_on_c, 1, 50, 70
4, 12384, Note_on_c, 1, 46, 70
4, 12431, Note_on_c, 1, 53, 0
4, 12431, Note_on_c, 1, 50, 0
4, 12431, Note_on_c, 1, 46, 0
4, 12432, Note_on_c, 1, 53, 70
4, 12432, Note_on_c, 1, 50, 70
4, 12432, Note_on_c, 1, 46, 70
4, 12479, Note_on_c, 1, 53, 0
4, 12479, Note_on_c, 1, 50, 0
4, 12479, Note_on_c, 1, 46, 0
4, 12480, Note_on_c, 1, 51, 70
4, 12480, Note_on_c, 1, 46, 70
4, 12527, Note_on_c, 1, 51, 0
4, 12527, Note_on_c, 1, 46, 0
4, 12528, Note_on_c, 1, 50, 70
4, 12528, Note_on_c, 1, 46, 70
4, 12575, Note_on_c, 1, 50, 0
4, 12575, Note_on_c, 1, 46, 0
4, 12624, Note_on_c, 1, 62, 75
4, 12669, Note_on_c, 1, 62, 0
4, 12672, Note_on_c, 1, 60, 75
4, 12672, Note_on_c, 1, 53, 75
4, 12717, Note_on_c, 1, 60, 0
4, 12717, Note_on_c, 1, 53, 0
4, 12720, Note_on_c, 1, 58, 75
4, 12765, Note_on_c, 1, 58, 0
4, 12816, Note_on_c, 1, 62, 75
4, 12861, Note_on_c, 1, 62, 0
4, 12864, Note_on_c, 1, 60, 75
4, 12864, Note_on_c, 1, 53, 75
4, 12909, Note_on_c, 1, 60, 0
4, 12909, Note_on_c, 1, 53, 0
4, 12912, Note_on_c, 1, 58, 75
4, 12957, Note_on_c, 1, 58, 0
4, 13008, Note_on_c, 1, 58, 75
4, 13008, Note_on_c, 1, 50, 75
4, 13053, Note_on_c, 1, 58, 0
4, 13053, Note_on_c, 1, 50, 0
4, 13056, Note_on_c, 1, 58, 70
4, 13056, Note_on_c, 1, 55, 70
4, 13056, Note_on_c, 1, 51, 70
4, 13103, Note_on_c, 1, 58, 0
4, 13103, Note_on_c, 1, 55, 0
4, 13103, Note_on_c, 1, 51, 0
4, 13104, Note_on_c, 1, 58, 70
4, 13104, Note_on_c, 1, 55, 70
4, 13104, Note_on_c, 1, 51, 70
4, 13151, Note_on_c, 1, 58, 0
4, 13151, Note_on_c, 1, 55, 0
4, 13151, Note_on_c, 1, 51, 0
4, 13152, Note_on_c, 1, 58, 70
4, 13152, Note_on_c, 1, 55, 70
4, 13152, Note_on_c, 1, 51, 70
4, 13199, Note_on_c, 1, 58, 0
4, 13199, Note_on_c, 1, 55, 0
4, 13199, Note_on_c, 1, 51, 0
4, 13200, Note_on_c, 1, 58, 70
4, 13200, Note_on_c, 1, 55, 70
4, 13200, Note_on_c, 1, 51, 70
4, 13247, Note_on_c, 1, 58, 0
4, 13247, Note_on_c, 1, 55, 0
4, 13247, Note_on_c, 1, 51, 0
4, 13296, Note_on_c, 1, 58, 70
4, 13296, Note_on_c, 1, 55, 70
4, 13296, Note_on_c, 1, 51, 70
4, 13343, Note_on_c, 1, 58, 0
4, 13343, Note_on_c, 1, 55, 0
4, 13343, Note_on_c, 1, 51, 0
4, 13344, Note_on_c, 1, 58, 70
4, 13344, Note_on_c, 1, 55, 70
4, 13344, Note_on_c, 1, 51, 70
4, 13391, Note_on_c, 1, 58, 0
4, 13391, Note_on_c, 1, 55, 0
4, 13391, Note_on_c, 1, 51, 0
4, 13392, Note_on_c, 1, 58, 70
4, 13392, Note_on_c, 1, 55, 70
4, 13392, Note_on_c, 1, 51, 70
4, 13439, Note_on_c, 1, 58, 0
4, 13439, Note_on_c, 1, 55, 0
4, 13439, Note_on_c, 1, 51, 0
4, 13488, Note_on_c, 1, 56, 70
4, 13488, Note_on_c, 1, 51, 70
4, 13535, Note_on_c, 1, 56, 0
4, 13535, Note_on_c, 1, 51, 0
4, 13536, Note_on_c, 1, 56, 70
4, 13536, Note_on_c, 1, 51, 70
4, 13583, Note_on_c, 1, 56, 0
4, 13583, Note_on_c, 1, 51, 0
4, 13584, Note_on_c, 1, 56, 70
4, 13584, Note_on_c, 1, 51, 70
4, 13631, Note_on_c, 1, 56, 0
4, 13631, Note_on_c, 1, 51, 0
4, 13680, Note_on_c, 1, 55, 70
4, 13680, Note_on_c, 1, 51, 70
4, 13727, Note_on_c, 1, 55, 0
4, 13727, Note_on_c, 1, 51, 0
4, 13728, Note_on_c, 1, 55, 70
4, 13728, Note_on_c, 1, 51, 70
4, 13775, Note_on_c, 1, 55, 0
4, 13775, Note_on_c, 1, 51, 0
4, 13776, Note_on_c, 1, 55, 70
4, 13776, Note_on_c, 1, 51, 70
4, 13823, Note_on_c, 1, 55, 0
4, 13823, Note_on_c, 1, 51, 0
4, 13872, Note_on_c, 1, 56, 70
4, 13872, Note_on_c, 1, 51, 70
4, 13919, Note_on_c, 1, 56, 0
4, 13919, Note_on_c, 1, 51, 0
4, 13920, Note_on_c, 1, 56, 70
4, 13920, Note_on_c, 1, 51, 70
4, 13967, Note_on_c, 1, 56, 0
4, 13967, Note_on_c, 1, 51, 0
4, 13968, Note_on_c, 1, 56, 70
4, 13968, Note_on_c, 1, 51, 70
4, 14015, Note_on_c, 1, 56, 0
4, 14015, Note_on_c, 1, 51, 0
4, 14016, Note_on_c, 1, 55, 70
4, 14016, Note_on_c, 1, 51, 70
4, 14105, Note_on_c, 1, 55, 0
4, 14105, Note_on_c, 1, 51, 0
4, 14112, Note_on_c, 1, 63, 70
4, 14112, Note_on_c, 1, 55, 70
4, 14201, Note_on_c, 1, 63, 0
4, 14201, Note_on_c, 1, 55, 0
4, 14208, Note_on_c, 1, 63, 70
4, 14208, Note_on_c, 1, 56, 70
4, 14297, Note_on_c, 1, 63, 0
4, 14297, Note_on_c, 1, 56, 0
4, 14304, Note_on_c, 1, 62, 70
4, 14304, Note_on_c, 1, 58, 70
4, 14393, Note_on_c, 1, 62, 0
4, 14393, Note_on_c, 1, 58, 0
4, 14400, Note_on_c, 1, 63, 70
4, 14400, Note_on_c, 1, 60, 70
4, 14489, Note_on_c, 1, 63, 0
4, 14489, Note_on_c, 1, 60, 0
4, 14496, Note_on_c, 1, 63, 70
4, 14496, Note_on_c, 1, 55, 70
4, 14585, Note_on_c, 1, 63, 0
4, 14585, Note_on_c, 1, 55, 0
4, 14592, Note_on_c, 1, 63, 70
4, 14592, Note_on_c, 1, 56, 70
4, 14681, Note_on_c, 1, 63, 0
4, 14681, Note_on_c, 1, 56, 0
4, 14688, Note_on_c, 1, 62, 70
4, 14688, Note_on_c, 1, 58, 70
4, 14777, Note_on_c, 1, 62, 0
4, 14777, Note_on_c, 1, 58, 0
4, 14784, Note_on_c, 1, 51, 70
4, 14829, Note_on_c, 1, 51, 0
4, 14832, Note_on_c, 1, 58, 69
4, 14877, Note_on_c, 1, 58, 0
4, 14880, Note_on_c, 1, 51, 68
4, 14925, Note_on_c, 1, 51, 0
4, 14928, Note_on_c, 1, 58, 67
4, 14973, Note_on_c, 1, 58, 0
4, 14976, Note_on_c, 1, 51, 66
4, 15065, Note_on_c, 1, 51, 0
4, 15216, Note_on_c, 1, 70, 70
4, 15305, Note_on_c, 1, 70, 0
4, 15312, Note_on_c, 1, 70, 70
4, 15405, Note_on_c, 1, 70, 0
4, 15408, Note_on_c, 1, 69, 70
4, 15453, Note_on_c, 1, 69, 0
4, 15456, Note_on_c, 1, 70, 70
4, 15545, Note_on_c, 1, 70, 0
4, 15600, Note_on_c, 1, 70, 70
4, 15689, Note_on_c, 1, 70, 0
4, 15696, Note_on_c, 1, 70, 70
4, 15789, Note_on_c, 1, 70, 0
4, 15792, Note_on_c, 1, 69, 70
4, 15837, Note_on_c, 1, 69, 0
4, 15840, Note_on_c, 1, 70, 66
4, 15929, Note_on_c, 1, 70, 0
4, 15936, Note_on_c, 1, 63, 70
4, 15959, Note_on_c, 1, 63, 0
4, 15960, Note_on_c, 1, 67, 70
4, 15983, Note_on_c, 1, 67, 0
4, 15984, Note_on_c, 1, 63, 71
4, 16007, Note_on_c, 1, 63, 0
4, 16008, Note_on_c, 1, 67, 71
4, 16031, Note_on_c, 1, 67, 0
4, 16032, Note_on_c, 1, 63, 72
4, 16055, Note_on_c, 1, 63, 0
4, 16056, Note_on_c, 1, 67, 72
4, 16079, Note_on_c, 1, 67, 0
4, 16080, Note_on_c, 1, 63, 73
4, 16103, Note_on_c, 1, 63, 0
4, 16104, Note_on_c, 1, 67, 73
4, 16127, Note_on_c, 1, 67, 0
4, 16128, Note_on_c, 1, 63, 74
4, 16151, Note_on_c, 1, 63, 0
4, 16152, Note_on_c, 1, 67, 74
4, 16175, Note_on_c, 1, 67, 0
4, 16176, Note_on_c, 1, 63, 75
4, 16199, Note_on_c, 1, 63, 0
4, 16200, Note_on_c, 1, 67, 75
4, 16223, Note_on_c, 1, 67, 0
4, 16224, Note_on_c, 1, 63, 76
4, 16247, Note_on_c, 1, 63, 0
4, 16248, Note_on_c, 1, 67, 76
4, 16271, Note_on_c, 1, 67, 0
4, 16272, Note_on_c, 1, 63, 77
4, 16295, Note_on_c, 1, 63, 0
4, 16296, Note_on_c, 1, 67, 77
4, 16319, Note_on_c, 1, 67, 0
4, 16320, Note_on_c, 1, 64, 78
4, 16343, Note_on_c, 1, 64, 0
4, 16344, Note_on_c, 1, 67, 78
4, 16367, Note_on_c, 1, 67, 0
4, 16368, Note_on_c, 1, 64, 79
4, 16391, Note_on_c, 1, 64, 0
4, 16392, Note_on_c, 1, 67, 79
4, 16415, Note_on_c, 1, 67, 0
4, 16416, Note_on_c, 1, 64, 80
4, 16439, Note_on_c, 1, 64, 0
4, 16440, Note_on_c, 1, 67, 81
4, 16463, Note_on_c, 1, 67, 0
4, 16464, Note_on_c, 1, 64, 81
4, 16487, Note_on_c, 1, 64, 0
4, 16488, Note_on_c, 1, 67, 81
4, 16511, Note_on_c, 1, 67, 0
4, 16512, Note_on_c, 1, 65, 81
4, 16559, Note_on_c, 1, 65, 0
4, 16560, Note_on_c, 1, 69, 75
4, 16560, Note_on_c, 1, 65, 75
4, 16607, Note_on_c, 1, 69, 0
4, 16607, Note_on_c, 1, 65, 0
4, 16608, Note_on_c, 1, 70, 75
4, 16608, Note_on_c, 1, 65, 75
4, 16655, Note_on_c, 1, 70, 0
4, 16655, Note_on_c, 1, 65, 0
4, 16656, Note_on_c, 1, 70, 75
4, 16656, Note_on_c, 1, 65, 75
4, 16703, Note_on_c, 1, 70, 0
4, 16703, Note_on_c, 1, 65, 0
4, 16704, Note_on_c, 1, 69, 75
4, 16704, Note_on_c, 1, 65, 75
4, 16751, Note_on_c, 1, 69, 0
4, 16751, Note_on_c, 1, 65, 0
4, 16752, Note_on_c, 1, 69, 75
4, 16752, Note_on_c, 1, 65, 75
4, 16799, Note_on_c, 1, 69, 0
4, 16799, Note_on_c, 1, 65, 0
4, 16800, Note_on_c, 1, 70, 75
4, 16800, Note_on_c, 1, 65, 75
4, 16847, Note_on_c, 1, 70, 0
4, 16847, Note_on_c, 1, 65, 0
4, 16848, Note_on_c, 1, 70, 75
4, 16848, Note_on_c, 1, 65, 75
4, 16895, Note_on_c, 1, 70, 0
4, 16895, Note_on_c, 1, 65, 0
4, 16896, Note_on_c, 1, 69, 75
4, 16896, Note_on_c, 1, 65, 75
4, 16943, Note_on_c, 1, 69, 0
4, 16943, Note_on_c, 1, 65, 0
4, 16944, Note_on_c, 1, 69, 75
4, 16944, Note_on_c, 1, 65, 75
4, 16991, Note_on_c, 1, 69, 0
4, 16991, Note_on_c, 1, 65, 0
4, 16992, Note_on_c, 1, 70, 75
4, 16992, Note_on_c, 1, 65, 75
4, 17039, Note_on_c, 1, 70, 0
4, 17039, Note_on_c, 1, 65, 0
4, 17040, Note_on_c, 1, 70, 75
4, 17040, Note_on_c, 1, 65, 75
4, 17087, Note_on_c, 1, 70, 0
4, 17087, Note_on_c, 1, 65, 0
4, 17088, Note_on_c, 1, 69, 75
4, 17088, Note_on_c, 1, 65, 75
4, 17177, Note_on_c, 1, 69, 0
4, 17177, Note_on_c, 1, 65, 0
4, 17184, Note_on_c, 1, 62, 75
4, 17273, Note_on_c, 1, 62, 0
4, 17280, Note_on_c, 1, 60, 75
4, 17325, Note_on_c, 1, 60, 0
4, 17328, Note_on_c, 1, 57, 75
4, 17373, Note_on_c, 1, 57, 0
4, 17376, Note_on_c, 1, 58, 75
4, 17421, Note_on_c, 1, 58, 0
4, 17424, Note_on_c, 1, 63, 75
4, 17469, Note_on_c, 1, 63, 0
4, 17472, Note_on_c, 1, 62, 75
4, 17561, Note_on_c, 1, 62, 0
4, 17616, Note_on_c, 1, 57, 75
4, 17661, Note_on_c, 1, 57, 0
4, 17664, Note_on_c, 1, 58, 75
4, 17709, Note_on_c, 1, 58, 0
4, 17712, Note_on_c, 1, 62, 75
4, 17757, Note_on_c, 1, 62, 0
4, 17760, Note_on_c, 1, 63, 75
4, 17805, Note_on_c, 1, 63, 0
4, 17808, Note_on_c, 1, 65, 75
4, 17853, Note_on_c, 1, 65, 0
4, 17856, Note_on_c, 1, 58, 75
4, 17901, Note_on_c, 1, 58, 0
4, 17904, Note_on_c, 1, 62, 76
4, 17927, Note_on_c, 1, 62, 0
4, 17928, Note_on_c, 1, 65, 76
4, 17951, Note_on_c, 1, 65, 0
4, 17952, Note_on_c, 1, 60, 77
4, 17975, Note_on_c, 1, 60, 0
4, 17976, Note_on_c, 1, 63, 77
4, 17999, Note_on_c, 1, 63, 0
4, 18000, Note_on_c, 1, 58, 78
4, 18023, Note_on_c, 1, 58, 0
4, 18024, Note_on_c, 1, 62, 78
4, 18047, Note_on_c, 1, 62, 0
4, 18048, Note_on_c, 1, 60, 79
4, 18048, Note_on_c, 1, 57, 79
4, 18137, Note_on_c, 1, 60, 0
4, 18137, Note_on_c, 1, 57, 0
4, 18288, Note_on_c, 1, 62, 75
4, 18311, Note_on_c, 1, 62, 0
4, 18312, Note_on_c, 1, 65, 75
4, 18335, Note_on_c, 1, 65, 0
4, 18336, Note_on_c, 1, 60, 76
4, 18359, Note_on_c, 1, 60, 0
4, 18360, Note_on_c, 1, 63, 76
4, 18383, Note_on_c, 1, 63, 0
4, 18384, Note_on_c, 1, 58, 77
4, 18407, Note_on_c, 1, 58, 0
4, 18408, Note_on_c, 1, 62, 78
4, 18431, Note_on_c, 1, 62, 0
4, 18432, Note_on_c, 1, 60, 78
4, 18432, Note_on_c, 1, 57, 78
4, 18521, Note_on_c, 1, 60, 0
4, 18521, Note_on_c, 1, 57, 0
4, 18624, Note_on_c, 1, 58, 81
4, 18624, Note_on_c, 1, 46, 81
4, 18713, Note_on_c, 1, 58, 0
4, 18713, Note_on_c, 1, 46, 0
4, 18768, Note_on_c, 1, 58, 81
4, 18768, Note_on_c, 1, 46, 81
4, 18813, Note_on_c, 1, 58, 0
4, 18813, Note_on_c, 1, 46, 0
4, 18816, Note_on_c, 1, 58, 81
4, 18816, Note_on_c, 1, 51, 81
4, 18863, Note_on_c, 1, 58, 0
4, 18863, Note_on_c, 1, 51, 0
4, 18864, Note_on_c, 1, 60, 81
4, 18864, Note_on_c, 1, 51, 81
4, 18911, Note_on_c, 1, 60, 0
4, 18911, Note_on_c, 1, 51, 0
4, 18912, Note_on_c, 1, 62, 81
4, 18912, Note_on_c, 1, 53, 81
4, 18959, Note_on_c, 1, 62, 0
4, 18959, Note_on_c, 1, 53, 0
4, 18960, Note_on_c, 1, 60, 81
4, 18960, Note_on_c, 1, 53, 81
4, 19007, Note_on_c, 1, 60, 0
4, 19007, Note_on_c, 1, 53, 0
4, 19008, Note_on_c, 1, 58, 81
4, 19097, Note_on_c, 1, 58, 0
4, 19200, Note_on_c, 1, 58, 70
4, 19200, Note_on_c, 1, 46, 70
4, 19289, Note_on_c, 1, 58, 0
4, 19289, Note_on_c, 1, 46, 0
4, 19440, Note_on_c, 1, 70, 66
4, 19440, Note_on_c, 1, 67, 66
4, 19487, Note_on_c, 1, 70, 0
4, 19487, Note_on_c, 1, 67, 0
4, 19488, Note_on_c, 1, 70, 66
4, 19488, Note_on_c, 1, 67, 66
4, 19535, Note_on_c, 1, 70, 0
4, 19535, Note_on_c, 1, 67, 0
4, 19536, Note_on_c, 1, 70, 66
4, 19536, Note_on_c, 1, 67, 66
4, 19583, Note_on_c, 1, 70, 0
4, 19583, Note_on_c, 1, 67, 0
4, 19632, Note_on_c, 1, 69, 66
4, 19632, Note_on_c, 1, 65, 66
4, 19679, Note_on_c, 1, 69, 0
4, 19679, Note_on_c, 1, 65, 0
4, 19680, Note_on_c, 1, 69, 66
4, 19680, Note_on_c, 1, 65, 66
4, 19727, Note_on_c, 1, 69, 0
4, 19727, Note_on_c, 1, 65, 0
4, 19728, Note_on_c, 1, 69, 66
4, 19728, Note_on_c, 1, 65, 66
4, 19775, Note_on_c, 1, 69, 0
4, 19775, Note_on_c, 1, 65, 0
4, 19824, Note_on_c, 1, 67, 66
4, 19824, Note_on_c, 1, 63, 66
4, 19871, Note_on_c, 1, 67, 0
4, 19871, Note_on_c, 1, 63, 0
4, 19872, Note_on_c, 1, 67, 66
4, 19872, Note_on_c, 1, 63, 66
4, 19919, Note_on_c, 1, 67, 0
4, 19919, Note_on_c, 1, 63, 0
4, 19920, Note_on_c, 1, 67, 66
4, 19920, Note_on_c, 1, 63, 66
4, 19967, Note_on_c, 1, 67, 0
4, 19967, Note_on_c, 1, 63, 0
4, 20016, Note_on_c, 1, 65, 66
4, 20016, Note_on_c, 1, 62, 66
4, 20061, Note_on_c, 1, 65, 0
4, 20061, Note_on_c, 1, 62, 0
4, 20112, Note_on_c, 1, 58, 75
4, 20157, Note_on_c, 1, 58, 0
4, 20160, Note_on_c, 1, 58, 81
4, 20249, Note_on_c, 1, 58, 0
4, 20256, Note_on_c, 1, 58, 81
4, 20301, Note_on_c, 1, 58, 0
4, 20304, Note_on_c, 1, 57, 81
4, 20349, Note_on_c, 1, 57, 0
4, 20352, Note_on_c, 1, 58, 75
4, 20367, Note_on_c, 1, 58, 0
4, 20368, Note_on_c, 1, 62, 75
4, 20383, Note_on_c, 1, 62, 0
4, 20384, Note_on_c, 1, 65, 75
4, 20399, Note_on_c, 1, 65, 0
4, 20496, Note_on_c, 1, 60, 75
4, 20541, Note_on_c, 1, 60, 0
4, 20592, Note_on_c, 1, 63, 75
4, 20637, Note_on_c, 1, 63, 0
4, 20640, Note_on_c, 1, 62, 75
4, 20685, Note_on_c, 1, 62, 0
4, 20688, Note_on_c, 1, 60, 75
4, 20733, Note_on_c, 1, 60, 0
4, 20736, Note_on_c, 1, 58, 75
4, 20751, Note_on_c, 1, 58, 0
4, 20752, Note_on_c, 1, 62, 75
4, 20767, Note_on_c, 1, 62, 0
4, 20768, Note_on_c, 1, 65, 75
4, 20783, Note_on_c, 1, 65, 0
4, 20880, Note_on_c, 1, 60, 75
4, 20925, Note_on_c, 1, 60, 0
4, 20976, Note_on_c, 1, 63, 75
4, 21021, Note_on_c, 1, 63, 0
4, 21024, Note_on_c, 1, 62, 75
4, 21069, Note_on_c, 1, 62, 0
4, 21072, Note_on_c, 1, 60, 75
4, 21117, Note_on_c, 1, 60, 0
4, 21120, Note_on_c, 1, 58, 75
4, 21209, Note_on_c, 1, 58, 0
4, 21216, Note_on_c, 1, 60, 66
4, 21216, Note_on_c, 1, 53, 66
4, 21305, Note_on_c, 1, 60, 0
4, 21305, Note_on_c, 1, 53, 0
4, 21312, Note_on_c, 1, 62, 66
4, 21312, Note_on_c, 1, 58, 66
4, 21401, Note_on_c, 1, 62, 0
4, 21401, Note_on_c, 1, 58, 0
4, 21552, Note_on_c, 1, 53, 70
4, 21552, Note_on_c, 1, 50, 70
4, 21552, Note_on_c, 1, 46, 70
4, 21599, Note_on_c, 1, 53, 0
4, 21599, Note_on_c, 1, 50, 0
4, 21599, Note_on_c, 1, 46, 0
4, 21600, Note_on_c, 1, 53, 70
4, 21600, Note_on_c, 1, 50, 70
4, 21600, Note_on_c, 1, 46, 70
4, 21647, Note_on_c, 1, 53, 0
4, 21647, Note_on_c, 1, 50, 0
4, 21647, Note_on_c, 1, 46, 0
4, 21648, Note_on_c, 1, 53, 70
4, 21648, Note_on_c, 1, 50, 70
4, 21648, Note_on_c, 1, 46, 70
4, 21695, Note_on_c, 1, 53, 0
4, 21695, Note_on_c, 1, 50, 0
4, 21695, Note_on_c, 1, 46, 0
4, 21744, Note_on_c, 1, 53, 70
4, 21744, Note_on_c, 1, 50, 70
4, 21744, Note_on_c, 1, 46, 70
4, 21791, Note_on_c, 1, 53, 0
4, 21791, Note_on_c, 1, 50, 0
4, 21791, Note_on_c, 1, 46, 0
4, 21792, Note_on_c, 1, 53, 70
4, 21792, Note_on_c, 1, 50, 70
4, 21792, Note_on_c, 1, 46, 70
4, 21839, Note_on_c, 1, 53, 0
4, 21839, Note_on_c, 1, 50, 0
4, 21839, Note_on_c, 1, 46, 0
4, 21840, Note_on_c, 1, 53, 70
4, 21840, Note_on_c, 1, 50, 70
4, 21840, Note_on_c, 1, 46, 70
4, 21887, Note_on_c, 1, 53, 0
4, 21887, Note_on_c, 1, 50, 0
4, 21887, Note_on_c, 1, 46, 0
4, 21936, Note_on_c, 1, 53, 70
4, 21936, Note_on_c, 1, 50, 70
4, 21936, Note_on_c, 1, 46, 70
4, 21983, Note_on_c, 1, 53, 0
4, 21983, Note_on_c, 1, 50, 0
4, 21983, Note_on_c, 1, 46, 0
4, 21984, Note_on_c, 1, 53, 70
4, 21984, Note_on_c, 1, 50, 70
4, 21984, Note_on_c, 1, 46, 70
4, 22031, Note_on_c, 1, 53, 0
4, 22031, Note_on_c, 1, 50, 0
4, 22031, Note_on_c, 1, 46, 0
4, 22032, Note_on_c, 1, 53, 70
4, 22032, Note_on_c, 1, 50, 70
4, 22032, Note_on_c, 1, 46, 70
4, 22079, Note_on_c, 1, 53, 0
4, 22079, Note_on_c, 1, 50, 0
4, 22079, Note_on_c, 1, 46, 0
4, 22080, Note_on_c, 1, 51, 70
4, 22080, Note_on_c, 1, 46, 70
4, 22127, Note_on_c, 1, 51, 0
4, 22127, Note_on_c, 1, 46, 0
4, 22128, Note_on_c, 1, 50, 70
4, 22128, Note_on_c, 1, 46, 70
4, 22175, Note_on_c, 1, 50, 0
4, 22175, Note_on_c, 1, 46, 0
4, 22224, Note_on_c, 1, 62, 75
4, 22269, Note_on_c, 1, 62, 0
4, 22272, Note_on_c, 1, 60, 75
4, 22272, Note_on_c, 1, 53, 75
4, 22317, Note_on_c, 1, 60, 0
4, 22317, Note_on_c, 1, 53, 0
4, 22320, Note_on_c, 1, 58, 75
4, 22365, Note_on_c, 1, 58, 0
4, 22416, Note_on_c, 1, 62, 75
4, 22461, Note_on_c, 1, 62, 0
4, 22464, Note_on_c, 1, 60, 75
4, 22464, Note_on_c, 1, 53, 75
4, 22509, Note_on_c, 1, 60, 0
4, 22509, Note_on_c, 1, 53, 0
4, 22512, Note_on_c, 1, 58, 75
4, 22557, Note_on_c, 1, 58, 0
4, 22608, Note_on_c, 1, 50, 75
4, 22653, Note_on_c, 1, 50, 0
4, 22656, Note_on_c, 1, 51, 75
4, 22701, Note_on_c, 1, 51, 0
4, 22704, Note_on_c, 1, 39, 75
4, 22749, Note_on_c, 1, 39, 0
4, 22776, Note_on_c, 1, 55, 70
4, 22799, Note_on_c, 1, 55, 0
4, 22800, Note_on_c, 1, 60, 70
4, 22823, Note_on_c, 1, 60, 0
4, 22824, Note_on_c, 1, 59, 70
4, 22847, Note_on_c, 1, 59, 0
4, 22848, Note_on_c, 1, 60, 70
4, 22937, Note_on_c, 1, 60, 0
4, 23040, Note_on_c, 1, 53, 70
4, 23085, Note_on_c, 1, 53, 0
4, 23088, Note_on_c, 1, 41, 70
4, 23133, Note_on_c, 1, 41, 0
4, 23160, Note_on_c, 1, 57, 71
4, 23183, Note_on_c, 1, 57, 0
4, 23184, Note_on_c, 1, 62, 71
4, 23207, Note_on_c, 1, 62, 0
4, 23208, Note_on_c, 1, 61, 71
4, 23231, Note_on_c, 1, 61, 0
4, 23232, Note_on_c, 1, 62, 72
4, 23321, Note_on_c, 1, 62, 0
4, 23424, Note_on_c, 1, 55, 74
4, 23469, Note_on_c, 1, 55, 0
4, 23472, Note_on_c, 1, 43, 75
4, 23517, Note_on_c, 1, 43, 0
4, 23544, Note_on_c, 1, 58, 76
4, 23567, Note_on_c, 1, 58, 0
4, 23568, Note_on_c, 1, 63, 76
4, 23591, Note_on_c, 1, 63, 0
4, 23592, Note_on_c, 1, 62, 77
4, 23615, Note_on_c, 1, 62, 0
4, 23616, Note_on_c, 1, 63, 77
4, 23705, Note_on_c, 1, 63, 0
4, 23808, Note_on_c, 1, 57, 80
4, 23853, Note_on_c, 1, 57, 0
4, 23856, Note_on_c, 1, 45, 81
4, 23901, Note_on_c, 1, 45, 0
4, 23928, Note_on_c, 1, 55, 81
4, 23951, Note_on_c, 1, 55, 0
4, 23952, Note_on_c, 1, 65, 81
4, 23975, Note_on_c, 1, 65, 0
4, 23976, Note_on_c, 1, 64, 81
4, 23999, Note_on_c, 1, 64, 0
4, 24000, Note_on_c, 1, 65, 81
4, 24089, Note_on_c, 1, 65, 0
4, 24192, Note_on_c, 1, 58, 66
4, 24215, Note_on_c, 1, 58, 0
4, 24216, Note_on_c, 1, 62, 66
4, 24239, Note_on_c, 1, 62, 0
4, 24240, Note_on_c, 1, 58, 66
4, 24263, Note_on_c, 1, 58, 0
4, 24264, Note_on_c, 1, 62, 66
4, 24287, Note_on_c, 1, 62, 0
4, 24288, Note_on_c, 1, 58, 66
4, 24311, Note_on_c, 1, 58, 0
4, 24312, Note_on_c, 1, 62, 66
4, 24335, Note_on_c, 1, 62, 0
4, 24336, Note_on_c, 1, 58, 66
4, 24359, Note_on_c, 1, 58, 0
4, 24360, Note_on_c, 1, 62, 66
4, 24383, Note_on_c, 1, 62, 0
4, 24384, Note_on_c, 1, 57, 66
4, 24407, Note_on_c, 1, 57, 0
4, 24408, Note_on_c, 1, 60, 66
4, 24431, Note_on_c, 1, 60, 0
4, 24432, Note_on_c, 1, 57, 66
4, 24455, Note_on_c, 1, 57, 0
4, 24456, Note_on_c, 1, 60, 66
4, 24479, Note_on_c, 1, 60, 0
4, 24480, Note_on_c, 1, 57, 66
4, 24503, Note_on_c, 1, 57, 0
4, 24504, Note_on_c, 1, 60, 66
4, 24527, Note_on_c, 1, 60, 0
4, 24528, Note_on_c, 1, 57, 66
4, 24551, Note_on_c, 1, 57, 0
4, 24552, Note_on_c, 1, 60, 66
4, 24575, Note_on_c, 1, 60, 0
4, 24576, Note_on_c, 1, 54, 66
4, 24576, Note_on_c, 1, 57, 66
4, 24576, Note_on_c, 1, 60, 66
4, 24665, Note_on_c, 1, 60, 0
4, 24665, Note_on_c, 1, 57, 0
4, 24665, Note_on_c, 1, 54, 0
4, 24792, Note_on_c, 1, 55, 68
4, 24815, Note_on_c, 1, 55, 0
4, 24816, Note_on_c, 1, 58, 70
4, 24839, Note_on_c, 1, 58, 0
4, 24840, Note_on_c, 1, 62, 72
4, 24863, Note_on_c, 1, 62, 0
4, 24864, Note_on_c, 1, 67, 75
4, 24887, Note_on_c, 1, 67, 0
4, 24888, Note_on_c, 1, 62, 72
4, 24911, Note_on_c, 1, 62, 0
4, 24912, Note_on_c, 1, 58, 70
4, 24935, Note_on_c, 1, 58, 0
4, 24936, Note_on_c, 1, 55, 68
4, 24959, Note_on_c, 1, 55, 0
4, 24960, Note_on_c, 1, 63, 66
4, 24960, Note_on_c, 1, 60, 66
4, 25049, Note_on_c, 1, 63, 0
4, 25049, Note_on_c, 1, 60, 0
4, 25104, Note_on_c, 1, 60, 66
4, 25149, Note_on_c, 1, 60, 0
4, 25152, Note_on_c, 1, 62, 66
4, 25197, Note_on_c, 1, 62, 0
4, 25200, Note_on_c, 1, 50, 66
4, 25245, Note_on_c, 1, 50, 0
4, 25248, Note_on_c, 1, 62, 66
4, 25271, Note_on_c, 1, 62, 0
4, 25272, Note_on_c, 1, 66, 66
4, 25295, Note_on_c, 1, 66, 0
4, 25296, Note_on_c, 1, 62, 66
4, 25319, Note_on_c, 1, 62, 0
4, 25320, Note_on_c, 1, 66, 66
4, 25343, Note_on_c, 1, 66, 0
4, 25344, Note_on_c, 1, 64, 67
4, 25367, Note_on_c, 1, 64, 0
4, 25368, Note_on_c, 1, 67, 67
4, 25391, Note_on_c, 1, 67, 0
4, 25392, Note_on_c, 1, 64, 67
4, 25415, Note_on_c, 1, 64, 0
4, 25416, Note_on_c, 1, 67, 67
4, 25439, Note_on_c, 1, 67, 0
4, 25440, Note_on_c, 1, 66, 68
4, 25463, Note_on_c, 1, 66, 0
4, 25464, Note_on_c, 1, 69, 68
4, 25487, Note_on_c, 1, 69, 0
4, 25488, Note_on_c, 1, 66, 68
4, 25511, Note_on_c, 1, 66, 0
4, 25512, Note_on_c, 1, 69, 68
4, 25535, Note_on_c, 1, 69, 0
4, 25536, Note_on_c, 1, 67, 69
4, 25546, Note_on_c, 1, 67, 0
4, 25560, Note_on_c, 1, 62, 69
4, 25570, Note_on_c, 1, 62, 0
4, 25584, Note_on_c, 1, 58, 69
4, 25594, Note_on_c, 1, 58, 0
4, 25608, Note_on_c, 1, 55, 69
4, 25618, Note_on_c, 1, 55, 0
4, 25632, Note_on_c, 1, 67, 70
4, 25655, Note_on_c, 1, 67, 0
4, 25656, Note_on_c, 1, 70, 70
4, 25679, Note_on_c, 1, 70, 0
4, 25680, Note_on_c, 1, 67, 70
4, 25703, Note_on_c, 1, 67, 0
4, 25704, Note_on_c, 1, 70, 70
4, 25727, Note_on_c, 1, 70, 0
4, 25728, Note_on_c, 1, 69, 71
4, 25751, Note_on_c, 1, 69, 0
4, 25752, Note_on_c, 1, 72, 71
4, 25775, Note_on_c, 1, 72, 0
4, 25776, Note_on_c, 1, 69, 72
4, 25799, Note_on_c, 1, 69, 0
4, 25800, Note_on_c, 1, 72, 72
4, 25823, Note_on_c, 1, 72, 0
4, 25824, Note_on_c, 1, 71, 73
4, 25847, Note_on_c, 1, 71, 0
4, 25848, Note_on_c, 1, 74, 73
4, 25871, Note_on_c, 1, 74, 0
4, 25872, Note_on_c, 1, 71, 74
4, 25895, Note_on_c, 1, 71, 0
4, 25896, Note_on_c, 1, 74, 75
4, 25919, Note_on_c, 1, 74, 0
4, 25920, Note_on_c, 1, 72, 75
4, 25965, Note_on_c, 1, 72, 0
4, 25968, Note_on_c, 1, 69, 75
4, 26013, Note_on_c, 1, 69, 0
4, 26016, Note_on_c, 1, 70, 75
4, 26061, Note_on_c, 1, 70, 0
4, 26064, Note_on_c, 1, 67, 75
4, 26109, Note_on_c, 1, 67, 0
4, 26112, Note_on_c, 1, 69, 75
4, 26157, Note_on_c, 1, 69, 0
4, 26160, Note_on_c, 1, 66, 75
4, 26205, Note_on_c, 1, 66, 0
4, 26208, Note_on_c, 1, 67, 75
4, 26253, Note_on_c, 1, 67, 0
4, 26256, Note_on_c, 1, 60, 75
4, 26301, Note_on_c, 1, 60, 0
4, 26304, Note_on_c, 1, 58, 75
4, 26349, Note_on_c, 1, 58, 0
4, 26352, Note_on_c, 1, 63, 75
4, 26397, Note_on_c, 1, 63, 0
4, 26400, Note_on_c, 1, 62, 75
4, 26445, Note_on_c, 1, 62, 0
4, 26448, Note_on_c, 1, 66, 75
4, 26493, Note_on_c, 1, 66, 0
4, 26496, Note_on_c, 1, 67, 75
4, 26629, Note_on_c, 1, 67, 0
4, 26640, Note_on_c, 1, 66, 75
4, 26685, Note_on_c, 1, 66, 0
4, 26688, Note_on_c, 1, 67, 75
4, 26733, Note_on_c, 1, 67, 0
4, 26736, Note_on_c, 1, 55, 75
4, 26781, Note_on_c, 1, 55, 0
4, 26880, Note_on_c, 1, 69, 70
4, 26880, Note_on_c, 1, 67, 70
4, 26927, Note_on_c, 1, 69, 0
4, 26927, Note_on_c, 1, 67, 0
4, 26928, Note_on_c, 1, 69, 70
4, 26928, Note_on_c, 1, 65, 70
4, 26975, Note_on_c, 1, 69, 0
4, 26975, Note_on_c, 1, 65, 0
4, 27072, Note_on_c, 1, 67, 70
4, 27072, Note_on_c, 1, 65, 70
4, 27119, Note_on_c, 1, 67, 0
4, 27119, Note_on_c, 1, 65, 0
4, 27120, Note_on_c, 1, 67, 70
4, 27120, Note_on_c, 1, 63, 70
4, 27167, Note_on_c, 1, 67, 0
4, 27167, Note_on_c, 1, 63, 0
4, 27264, Note_on_c, 1, 65, 70
4, 27264, Note_on_c, 1, 63, 70
4, 27311, Note_on_c, 1, 65, 0
4, 27311, Note_on_c, 1, 63, 0
4, 27312, Note_on_c, 1, 65, 70
4, 27312, Note_on_c, 1, 62, 70
4, 27359, Note_on_c, 1, 65, 0
4, 27359, Note_on_c, 1, 62, 0
4, 27360, Note_on_c, 1, 62, 70
4, 27360, Note_on_c, 1, 58, 70
4, 27407, Note_on_c, 1, 62, 0
4, 27407, Note_on_c, 1, 58, 0
4, 27408, Note_on_c, 1, 62, 70
4, 27408, Note_on_c, 1, 58, 70
4, 27455, Note_on_c, 1, 62, 0
4, 27455, Note_on_c, 1, 58, 0
4, 27456, Note_on_c, 1, 63, 70
4, 27456, Note_on_c, 1, 58, 70
4, 27503, Note_on_c, 1, 63, 0
4, 27503, Note_on_c, 1, 58, 0
4, 27504, Note_on_c, 1, 63, 70
4, 27504, Note_on_c, 1, 58, 70
4, 27551, Note_on_c, 1, 63, 0
4, 27551, Note_on_c, 1, 58, 0
4, 27552, Note_on_c, 1, 62, 70
4, 27552, Note_on_c, 1, 58, 70
4, 27599, Note_on_c, 1, 62, 0
4, 27599, Note_on_c, 1, 58, 0
4, 27600, Note_on_c, 1, 62, 70
4, 27600, Note_on_c, 1, 58, 70
4, 27647, Note_on_c, 1, 62, 0
4, 27647, Note_on_c, 1, 58, 0
4, 27648, Note_on_c, 1, 63, 70
4, 27648, Note_on_c, 1, 58, 70
4, 27695, Note_on_c, 1, 63, 0
4, 27695, Note_on_c, 1, 58, 0
4, 27696, Note_on_c, 1, 63, 70
4, 27696, Note_on_c, 1, 58, 70
4, 27743, Note_on_c, 1, 63, 0
4, 27743, Note_on_c, 1, 58, 0
4, 27744, Note_on_c, 1, 62, 70
4, 27744, Note_on_c, 1, 58, 70
4, 27791, Note_on_c, 1, 62, 0
4, 27791, Note_on_c, 1, 58, 0
4, 27792, Note_on_c, 1, 62, 70
4, 27792, Note_on_c, 1, 58, 70
4, 27839, Note_on_c, 1, 62, 0
4, 27839, Note_on_c, 1, 58, 0
4, 27840, Note_on_c, 1, 58, 75
4, 27863, Note_on_c, 1, 58, 0
4, 27864, Note_on_c, 1, 63, 75
4, 27887, Note_on_c, 1, 63, 0
4, 27888, Note_on_c, 1, 58, 75
4, 27911, Note_on_c, 1, 58, 0
4, 27912, Note_on_c, 1, 63, 75
4, 27935, Note_on_c, 1, 63, 0
4, 27936, Note_on_c, 1, 58, 75
4, 27959, Note_on_c, 1, 58, 0
4, 27960, Note_on_c, 1, 63, 75
4, 27983, Note_on_c, 1, 63, 0
4, 27984, Note_on_c, 1, 58, 75
4, 28007, Note_on_c, 1, 58, 0
4, 28008, Note_on_c, 1, 63, 75
4, 28031, Note_on_c, 1, 63, 0
4, 28032, Note_on_c, 1, 57, 75
4, 28055, Note_on_c, 1, 57, 0
4, 28056, Note_on_c, 1, 63, 75
4, 28079, Note_on_c, 1, 63, 0
4, 28080, Note_on_c, 1, 57, 75
4, 28103, Note_on_c, 1, 57, 0
4, 28104, Note_on_c, 1, 63, 75
4, 28127, Note_on_c, 1, 63, 0
4, 28128, Note_on_c, 1, 57, 75
4, 28151, Note_on_c, 1, 57, 0
4, 28152, Note_on_c, 1, 63, 75
4, 28175, Note_on_c, 1, 63, 0
4, 28176, Note_on_c, 1, 57, 75
4, 28199, Note_on_c, 1, 57, 0
4, 28200, Note_on_c, 1, 63, 75
4, 28223, Note_on_c, 1, 63, 0
4, 28224, Note_on_c, 1, 58, 75
4, 28269, Note_on_c, 1, 58, 0
4, 28272, Note_on_c, 1, 62, 75
4, 28272, Note_on_c, 1, 58, 75
4, 28317, Note_on_c, 1, 62, 0
4, 28317, Note_on_c, 1, 58, 0
4, 28320, Note_on_c, 1, 63, 75
4, 28320, Note_on_c, 1, 58, 75
4, 28365, Note_on_c, 1, 63, 0
4, 28365, Note_on_c, 1, 58, 0
4, 28368, Note_on_c, 1, 63, 75
4, 28368, Note_on_c, 1, 58, 75
4, 28413, Note_on_c, 1, 63, 0
4, 28413, Note_on_c, 1, 58, 0
4, 28416, Note_on_c, 1, 62, 75
4, 28416, Note_on_c, 1, 58, 75
4, 28461, Note_on_c, 1, 62, 0
4, 28461, Note_on_c, 1, 58, 0
4, 28464, Note_on_c, 1, 62, 75
4, 28464, Note_on_c, 1, 58, 75
4, 28509, Note_on_c, 1, 62, 0
4, 28509, Note_on_c, 1, 58, 0
4, 28512, Note_on_c, 1, 63, 75
4, 28512, Note_on_c, 1, 58, 75
4, 28557, Note_on_c, 1, 63, 0
4, 28557, Note_on_c, 1, 58, 0
4, 28560, Note_on_c, 1, 63, 75
4, 28560, Note_on_c, 1, 58, 75
4, 28605, Note_on_c, 1, 63, 0
4, 28605, Note_on_c, 1, 58, 0
4, 28608, Note_on_c, 1, 62, 75
4, 28608, Note_on_c, 1, 58, 75
4, 28697, Note_on_c, 1, 62, 0
4, 28697, Note_on_c, 1, 58, 0
4, 28800, Note_on_c, 1, 58, 70
4, 28800, Note_on_c, 1, 55, 70
4, 28800, Note_on_c, 1, 51, 70
4, 28847, Note_on_c, 1, 58, 0
4, 28847, Note_on_c, 1, 55, 0
4, 28847, Note_on_c, 1, 51, 0
4, 28848, Note_on_c, 1, 58, 70
4, 28848, Note_on_c, 1, 55, 70
4, 28848, Note_on_c, 1, 51, 70
4, 28895, Note_on_c, 1, 58, 0
4, 28895, Note_on_c, 1, 55, 0
4, 28895, Note_on_c, 1, 51, 0
4, 28896, Note_on_c, 1, 58, 70
4, 28896, Note_on_c, 1, 55, 70
4, 28896, Note_on_c, 1, 51, 70
4, 28943, Note_on_c, 1, 58, 0
4, 28943, Note_on_c, 1, 55, 0
4, 28943, Note_on_c, 1, 51, 0
4, 28944, Note_on_c, 1, 58, 70
4, 28944, Note_on_c, 1, 55, 70
4, 28944, Note_on_c, 1, 51, 70
4, 28991, Note_on_c, 1, 58, 0
4, 28991, Note_on_c, 1, 55, 0
4, 28991, Note_on_c, 1, 51, 0
4, 29040, Note_on_c, 1, 58, 70
4, 29040, Note_on_c, 1, 55, 70
4, 29040, Note_on_c, 1, 51, 70
4, 29087, Note_on_c, 1, 58, 0
4, 29087, Note_on_c, 1, 55, 0
4, 29087, Note_on_c, 1, 51, 0
4, 29088, Note_on_c, 1, 58, 70
4, 29088, Note_on_c, 1, 55, 70
4, 29088, Note_on_c, 1, 51, 70
4, 29135, Note_on_c, 1, 58, 0
4, 29135, Note_on_c, 1, 55, 0
4, 29135, Note_on_c, 1, 51, 0
4, 29136, Note_on_c, 1, 58, 70
4, 29136, Note_on_c, 1, 55, 70
4, 29136, Note_on_c, 1, 51, 70
4, 29183, Note_on_c, 1, 58, 0
4, 29183, Note_on_c, 1, 55, 0
4, 29183, Note_on_c, 1, 51, 0
4, 29232, Note_on_c, 1, 56, 70
4, 29232, Note_on_c, 1, 51, 70
4, 29279, Note_on_c, 1, 56, 0
4, 29279, Note_on_c, 1, 51, 0
4, 29280, Note_on_c, 1, 56, 70
4, 29280, Note_on_c, 1, 51, 70
4, 29327, Note_on_c, 1, 56, 0
4, 29327, Note_on_c, 1, 51, 0
4, 29328, Note_on_c, 1, 56, 70
4, 29328, Note_on_c, 1, 51, 70
4, 29375, Note_on_c, 1, 56, 0
4, 29375, Note_on_c, 1, 51, 0
4, 29424, Note_on_c, 1, 55, 70
4, 29424, Note_on_c, 1, 51, 70
4, 29471, Note_on_c, 1, 55, 0
4, 29471, Note_on_c, 1, 51, 0
4, 29472, Note_on_c, 1, 55, 70
4, 29472, Note_on_c, 1, 51, 70
4, 29519, Note_on_c, 1, 55, 0
4, 29519, Note_on_c, 1, 51, 0
4, 29520, Note_on_c, 1, 55, 70
4, 29520, Note_on_c, 1, 51, 70
4, 29567, Note_on_c, 1, 55, 0
4, 29567, Note_on_c, 1, 51, 0
4, 29616, Note_on_c, 1, 56, 70
4, 29616, Note_on_c, 1, 51, 70
4, 29663, Note_on_c, 1, 56, 0
4, 29663, Note_on_c, 1, 51, 0
4, 29664, Note_on_c, 1, 56, 70
4, 29664, Note_on_c, 1, 51, 70
4, 29711, Note_on_c, 1, 56, 0
4, 29711, Note_on_c, 1, 51, 0
4, 29712, Note_on_c, 1, 56, 70
4, 29712, Note_on_c, 1, 51, 70
4, 29759, Note_on_c, 1, 56, 0
4, 29759, Note_on_c, 1, 51, 0
4, 29760, Note_on_c, 1, 55, 70
4, 29760, Note_on_c, 1, 51, 70
4, 29849, Note_on_c, 1, 55, 0
4, 29849, Note_on_c, 1, 51, 0
4, 29856, Note_on_c, 1, 63, 70
4, 29856, Note_on_c, 1, 55, 70
4, 29945, Note_on_c, 1, 63, 0
4, 29945, Note_on_c, 1, 55, 0
4, 29952, Note_on_c, 1, 63, 70
4, 29952, Note_on_c, 1, 56, 70
4, 30041, Note_on_c, 1, 63, 0
4, 30041, Note_on_c, 1, 56, 0
4, 30048, Note_on_c, 1, 62, 70
4, 30048, Note_on_c, 1, 58, 70
4, 30137, Note_on_c, 1, 62, 0
4, 30137, Note_on_c, 1, 58, 0
4, 30144, Note_on_c, 1, 63, 70
4, 30144, Note_on_c, 1, 60, 70
4, 30233, Note_on_c, 1, 63, 0
4, 30233, Note_on_c, 1, 60, 0
4, 30240, Note_on_c, 1, 63, 70
4, 30240, Note_on_c, 1, 55, 70
4, 30329, Note_on_c, 1, 63, 0
4, 30329, Note_on_c, 1, 55, 0
4, 30336, Note_on_c, 1, 63, 70
4, 30336, Note_on_c, 1, 56, 70
4, 30425, Note_on_c, 1, 63, 0
4, 30425, Note_on_c, 1, 56, 0
4, 30432, Note_on_c, 1, 62, 70
4, 30432, Note_on_c, 1, 58, 70
4, 30521, Note_on_c, 1, 62, 0
4, 30521, Note_on_c, 1, 58, 0
4, 30528, Note_on_c, 1, 60, 70
4, 30573, Note_on_c, 1, 60, 0
4, 30576, Note_on_c, 1, 62, 70
4, 30621, Note_on_c, 1, 62, 0
4, 30624, Note_on_c, 1, 63, 71
4, 30713, Note_on_c, 1, 63, 0
4, 30768, Note_on_c, 1, 65, 73
4, 30768, Note_on_c, 1, 63, 73
4, 30768, Note_on_c, 1, 60, 73
4, 30813, Note_on_c, 1, 65, 0
4, 30813, Note_on_c, 1, 63, 0
4, 30813, Note_on_c, 1, 60, 0
4, 30816, Note_on_c, 1, 65, 73
4, 30816, Note_on_c, 1, 63, 73
4, 30816, Note_on_c, 1, 60, 73
4, 30861, Note_on_c, 1, 65, 0
4, 30861, Note_on_c, 1, 63, 0
4, 30861, Note_on_c, 1, 60, 0
4, 30864, Note_on_c, 1, 65, 74
4, 30864, Note_on_c, 1, 63, 74
4, 30864, Note_on_c, 1, 60, 74
4, 30909, Note_on_c, 1, 65, 0
4, 30909, Note_on_c, 1, 63, 0
4, 30909, Note_on_c, 1, 60, 0
4, 30912, Note_on_c, 1, 65, 75
4, 30912, Note_on_c, 1, 62, 75
4, 30912, Note_on_c, 1, 58, 75
4, 31001, Note_on_c, 1, 65, 0
4, 31001, Note_on_c, 1, 62, 0
4, 31001, Note_on_c, 1, 58, 0
4, 31056, Note_on_c, 1, 55, 75
4, 31101, Note_on_c, 1, 55, 0
4, 31104, Note_on_c, 1, 53, 75
4, 31149, Note_on_c, 1, 53, 0
4, 31152, Note_on_c, 1, 50, 75
4, 31197, Note_on_c, 1, 50, 0
4, 31200, Note_on_c, 1, 51, 75
4, 31245, Note_on_c, 1, 51, 0
4, 31248, Note_on_c, 1, 56, 75
4, 31293, Note_on_c, 1, 56, 0
4, 31296, Note_on_c, 1, 55, 75
4, 31385, Note_on_c, 1, 55, 0
4, 31440, Note_on_c, 1, 62, 75
4, 31485, Note_on_c, 1, 62, 0
4, 31488, Note_on_c, 1, 63, 75
4, 31621, Note_on_c, 1, 63, 0
4, 31632, Note_on_c, 1, 62, 75
4, 31677, Note_on_c, 1, 62, 0
4, 31680, Note_on_c, 1, 63, 78
4, 31725, Note_on_c, 1, 63, 0
4, 31728, Note_on_c, 1, 55, 81
4, 31751, Note_on_c, 1, 55, 0
4, 31752, Note_on_c, 1, 58, 81
4, 31775, Note_on_c, 1, 58, 0
4, 31776, Note_on_c, 1, 53, 81
4, 31799, Note_on_c, 1, 53, 0
4, 31800, Note_on_c, 1, 56, 81
4, 31823, Note_on_c, 1, 56, 0
4, 31824, Note_on_c, 1, 51, 81
4, 31847, Note_on_c, 1, 51, 0
4, 31848, Note_on_c, 1, 55, 81
4, 31871, Note_on_c, 1, 55, 0
4, 31872, Note_on_c, 1, 53, 81
4, 31872, Note_on_c, 1, 50, 81
4, 31961, Note_on_c, 1, 53, 0
4, 31961, Note_on_c, 1, 50, 0
4, 32112, Note_on_c, 1, 55, 81
4, 32135, Note_on_c, 1, 55, 0
4, 32136, Note_on_c, 1, 58, 81
4, 32159, Note_on_c, 1, 58, 0
4, 32160, Note_on_c, 1, 53, 81
4, 32183, Note_on_c, 1, 53, 0
4, 32184, Note_on_c, 1, 56, 81
4, 32207, Note_on_c, 1, 56, 0
4, 32208, Note_on_c, 1, 51, 81
4, 32231, Note_on_c, 1, 51, 0
4, 32232, Note_on_c, 1, 55, 81
4, 32255, Note_on_c, 1, 55, 0
4, 32256, Note_on_c, 1, 53, 81
4, 32256, Note_on_c, 1, 50, 81
4, 32345, Note_on_c, 1, 53, 0
4, 32345, Note_on_c, 1, 50, 0
4, 32448, Note_on_c, 1, 51, 75
4, 32448, Note_on_c, 1, 39, 75
4, 32537, Note_on_c, 1, 51, 0
4, 32537, Note_on_c, 1, 39, 0
4, 32592, Note_on_c, 1, 55, 75
4, 32592, Note_on_c, 1, 43, 75
4, 32637, Note_on_c, 1, 55, 0
4, 32637, Note_on_c, 1, 43, 0
4, 32640, Note_on_c, 1, 56, 75
4, 32729, Note_on_c, 1, 56, 0
4, 32736, Note_on_c, 1, 55, 75
4, 32781, Note_on_c, 1, 55, 0
4, 32784, Note_on_c, 1, 53, 75
4, 32829, Note_on_c, 1, 53, 0
4, 32832, Note_on_c, 1, 51, 75
4, 32921, Note_on_c, 1, 51, 0
4, 33024, Note_on_c, 1, 51, 75
4, 33024, Note_on_c, 1, 39, 75
4, 33113, Note_on_c, 1, 51, 0
4, 33113, Note_on_c, 1, 39, 0
4, 33264, Note_on_c, 1, 63, 66
4, 33264, Note_on_c, 1, 60, 66
4, 33311, Note_on_c, 1, 63, 0
4, 33311, Note_on_c, 1, 60, 0
4, 33312, Note_on_c, 1, 63, 66
4, 33312, Note_on_c, 1, 60, 66
4, 33359, Note_on_c, 1, 63, 0
4, 33359, Note_on_c, 1, 60, 0
4, 33360, Note_on_c, 1, 63, 66
4, 33360, Note_on_c, 1, 60, 66
4, 33407, Note_on_c, 1, 63, 0
4, 33407, Note_on_c, 1, 60, 0
4, 33456, Note_on_c, 1, 62, 66
4, 33456, Note_on_c, 1, 58, 66
4, 33503, Note_on_c, 1, 62, 0
4, 33503, Note_on_c, 1, 58, 0
4, 33504, Note_on_c, 1, 62, 66
4, 33504, Note_on_c, 1, 58, 66
4, 33551, Note_on_c, 1, 62, 0
4, 33551, Note_on_c, 1, 58, 0
4, 33552, Note_on_c, 1, 62, 66
4, 33552, Note_on_c, 1, 58, 66
4, 33599, Note_on_c, 1, 62, 0
4, 33599, Note_on_c, 1, 58, 0
4, 33648, Note_on_c, 1, 60, 66
4, 33648, Note_on_c, 1, 56, 66
4, 33695, Note_on_c, 1, 60, 0
4, 33695, Note_on_c, 1, 56, 0
4, 33696, Note_on_c, 1, 60, 66
4, 33696, Note_on_c, 1, 56, 66
4, 33743, Note_on_c, 1, 60, 0
4, 33743, Note_on_c, 1, 56, 0
4, 33744, Note_on_c, 1, 60, 66
4, 33744, Note_on_c, 1, 56, 66
4, 33791, Note_on_c, 1, 60, 0
4, 33791, Note_on_c, 1, 56, 0
4, 33840, Note_on_c, 1, 58, 66
4, 33840, Note_on_c, 1, 55, 66
4, 33885, Note_on_c, 1, 58, 0
4, 33885, Note_on_c, 1, 55, 0
4, 33936, Note_on_c, 1, 63, 75
4, 33981, Note_on_c, 1, 63, 0
4, 33984, Note_on_c, 1, 63, 75
4, 34073, Note_on_c, 1, 63, 0
4, 34080, Note_on_c, 1, 63, 75
4, 34125, Note_on_c, 1, 63, 0
4, 34128, Note_on_c, 1, 62, 75
4, 34173, Note_on_c, 1, 62, 0
4, 34176, Note_on_c, 1, 63, 75
4, 34191, Note_on_c, 1, 63, 0
4, 34192, Note_on_c, 1, 67, 75
4, 34207, Note_on_c, 1, 67, 0
4, 34208, Note_on_c, 1, 70, 75
4, 34223, Note_on_c, 1, 70, 0
4, 34320, Note_on_c, 1, 65, 75
4, 34365, Note_on_c, 1, 65, 0
4, 34368, Note_on_c, 1, 63, 75
4, 34413, Note_on_c, 1, 63, 0
4, 34416, Note_on_c, 1, 68, 75
4, 34461, Note_on_c, 1, 68, 0
4, 34464, Note_on_c, 1, 67, 75
4, 34509, Note_on_c, 1, 67, 0
4, 34512, Note_on_c, 1, 65, 75
4, 34557, Note_on_c, 1, 65, 0
4, 34560, Note_on_c, 1, 51, 75
4, 34575, Note_on_c, 1, 51, 0
4, 34576, Note_on_c, 1, 55, 75
4, 34591, Note_on_c, 1, 55, 0
4, 34592, Note_on_c, 1, 58, 75
4, 34607, Note_on_c, 1, 58, 0
4, 34704, Note_on_c, 1, 53, 75
4, 34749, Note_on_c, 1, 53, 0
4, 34752, Note_on_c, 1, 51, 75
4, 34797, Note_on_c, 1, 51, 0
4, 34800, Note_on_c, 1, 56, 75
4, 34845, Note_on_c, 1, 56, 0
4, 34848, Note_on_c, 1, 55, 75
4, 34893, Note_on_c, 1, 55, 0
4, 34896, Note_on_c, 1, 53, 75
4, 34941, Note_on_c, 1, 53, 0
4, 34944, Note_on_c, 1, 51, 75
4, 35033, Note_on_c, 1, 51, 0
4, 35040, Note_on_c, 1, 53, 66
4, 35040, Note_on_c, 1, 46, 66
4, 35129, Note_on_c, 1, 53, 0
4, 35129, Note_on_c, 1, 46, 0
4, 35136, Note_on_c, 1, 55, 66
4, 35136, Note_on_c, 1, 51, 66
4, 35225, Note_on_c, 1, 55, 0
4, 35225, Note_on_c, 1, 51, 0
4, 35376, Note_on_c, 1, 53, 70
4, 35376, Note_on_c, 1, 50, 70
4, 35376, Note_on_c, 1, 46, 70
4, 35423, Note_on_c, 1, 53, 0
4, 35423, Note_on_c, 1, 50, 0
4, 35423, Note_on_c, 1, 46, 0
4, 35424, Note_on_c, 1, 53, 70
4, 35424, Note_on_c, 1, 50, 70
4, 35424, Note_on_c, 1, 46, 70
4, 35471, Note_on_c, 1, 53, 0
4, 35471, Note_on_c, 1, 50, 0
4, 35471, Note_on_c, 1, 46, 0
4, 35472, Note_on_c, 1, 53, 70
4, 35472, Note_on_c, 1, 50, 70
4, 35472, Note_on_c, 1, 46, 70
4, 35519, Note_on_c, 1, 53, 0
4, 35519, Note_on_c, 1, 50, 0
4, 35519, Note_on_c, 1, 46, 0
4, 35568, Note_on_c, 1, 53, 70
4, 35568, Note_on_c, 1, 50, 70
4, 35568, Note_on_c, 1, 46, 70
4, 35615, Note_on_c, 1, 53, 0
4, 35615, Note_on_c, 1, 50, 0
4, 35615, Note_on_c, 1, 46, 0
4, 35616, Note_on_c, 1, 53, 70
4, 35616, Note_on_c, 1, 50, 70
4, 35616, Note_on_c, 1, 46, 70
4, 35663, Note_on_c, 1, 53, 0
4, 35663, Note_on_c, 1, 50, 0
4, 35663, Note_on_c, 1, 46, 0
4, 35664, Note_on_c, 1, 53, 70
4, 35664, Note_on_c, 1, 50, 70
4, 35664, Note_on_c, 1, 46, 70
4, 35711, Note_on_c, 1, 53, 0
4, 35711, Note_on_c, 1, 50, 0
4, 35711, Note_on_c, 1, 46, 0
4, 35760, Note_on_c, 1, 53, 70
4, 35760, Note_on_c, 1, 50, 70
4, 35760, Note_on_c, 1, 46, 70
4, 35807, Note_on_c, 1, 53, 0
4, 35807, Note_on_c, 1, 50, 0
4, 35807, Note_on_c, 1, 46, 0
4, 35808, Note_on_c, 1, 53, 70
4, 35808, Note_on_c, 1, 50, 70
4, 35808, Note_on_c, 1, 46, 70
4, 35855, Note_on_c, 1, 53, 0
4, 35855, Note_on_c, 1, 50, 0
4, 35855, Note_on_c, 1, 46, 0
4, 35856, Note_on_c, 1, 53, 70
4, 35856, Note_on_c, 1, 50, 70
4, 35856, Note_on_c, 1, 46, 70
4, 35903, Note_on_c, 1, 53, 0
4, 35903, Note_on_c, 1, 50, 0
4, 35903, Note_on_c, 1, 46, 0
4, 35904, Note_on_c, 1, 51, 70
4, 35904, Note_on_c, 1, 46, 70
4, 35951, Note_on_c, 1, 51, 0
4, 35951, Note_on_c, 1, 46, 0
4, 35952, Note_on_c, 1, 50, 70
4, 35952, Note_on_c, 1, 46, 70
4, 35999, Note_on_c, 1, 50, 0
4, 35999, Note_on_c, 1, 46, 0
4, 36048, Note_on_c, 1, 62, 75
4, 36093, Note_on_c, 1, 62, 0
4, 36096, Note_on_c, 1, 60, 75
4, 36096, Note_on_c, 1, 53, 75
4, 36141, Note_on_c, 1, 60, 0
4, 36141, Note_on_c, 1, 53, 0
4, 36144, Note_on_c, 1, 58, 75
4, 36189, Note_on_c, 1, 58, 0
4, 36240, Note_on_c, 1, 62, 75
4, 36285, Note_on_c, 1, 62, 0
4, 36288, Note_on_c, 1, 60, 75
4, 36288, Note_on_c, 1, 53, 75
4, 36333, Note_on_c, 1, 60, 0
4, 36333, Note_on_c, 1, 53, 0
4, 36336, Note_on_c, 1, 58, 75
4, 36381, Note_on_c, 1, 58, 0
4, 36432, Note_on_c, 1, 50, 75
4, 36477, Note_on_c, 1, 50, 0
4, 36480, Note_on_c, 1, 51, 75
4, 36525, Note_on_c, 1, 51, 0
4, 36528, Note_on_c, 1, 39, 75
4, 36573, Note_on_c, 1, 39, 0
4, 36600, Note_on_c, 1, 55, 70
4, 36623, Note_on_c, 1, 55, 0
4, 36624, Note_on_c, 1, 60, 70
4, 36647, Note_on_c, 1, 60, 0
4, 36648, Note_on_c, 1, 59, 70
4, 36671, Note_on_c, 1, 59, 0
4, 36672, Note_on_c, 1, 60, 70
4, 36761, Note_on_c, 1, 60, 0
4, 36864, Note_on_c, 1, 53, 70
4, 36909, Note_on_c, 1, 53, 0
4, 36912, Note_on_c, 1, 41, 70
4, 36957, Note_on_c, 1, 41, 0
4, 36984, Note_on_c, 1, 57, 71
4, 37007, Note_on_c, 1, 57, 0
4, 37008, Note_on_c, 1, 62, 71
4, 37031, Note_on_c, 1, 62, 0
4, 37032, Note_on_c, 1, 61, 71
4, 37055, Note_on_c, 1, 61, 0
4, 37056, Note_on_c, 1, 62, 72
4, 37145, Note_on_c, 1, 62, 0
4, 37248, Note_on_c, 1, 55, 74
4, 37293, Note_on_c, 1, 55, 0
4, 37296, Note_on_c, 1, 43, 75
4, 37341, Note_on_c, 1, 43, 0
4, 37368, Note_on_c, 1, 58, 76
4, 37391, Note_on_c, 1, 58, 0
4, 37392, Note_on_c, 1, 63, 76
4, 37415, Note_on_c, 1, 63, 0
4, 37416, Note_on_c, 1, 62, 77
4, 37439, Note_on_c, 1, 62, 0
4, 37440, Note_on_c, 1, 63, 77
4, 37529, Note_on_c, 1, 63, 0
4, 37632, Note_on_c, 1, 57, 80
4, 37677, Note_on_c, 1, 57, 0
4, 37680, Note_on_c, 1, 45, 81
4, 37725, Note_on_c, 1, 45, 0
4, 37752, Note_on_c, 1, 55, 81
4, 37775, Note_on_c, 1, 55, 0
4, 37776, Note_on_c, 1, 65, 81
4, 37799, Note_on_c, 1, 65, 0
4, 37800, Note_on_c, 1, 64, 81
4, 37823, Note_on_c, 1, 64, 0
4, 37824, Note_on_c, 1, 65, 81
4, 37913, Note_on_c, 1, 65, 0
4, 38016, Note_on_c, 1, 58, 66
4, 38039, Note_on_c, 1, 58, 0
4, 38040, Note_on_c, 1, 62, 66
4, 38063, Note_on_c, 1, 62, 0
4, 38064, Note_on_c, 1, 58, 66
4, 38087, Note_on_c, 1, 58, 0
4, 38088, Note_on_c, 1, 62, 66
4, 38111, Note_on_c, 1, 62, 0
4, 38112, Note_on_c, 1, 58, 66
4, 38135, Note_on_c, 1, 58, 0
4, 38136, Note_on_c, 1, 62, 66
4, 38159, Note_on_c, 1, 62, 0
4, 38160, Note_on_c, 1, 58, 66
4, 38183, Note_on_c, 1, 58, 0
4, 38184, Note_on_c, 1, 62, 66
4, 38207, Note_on_c, 1, 62, 0
4, 38208, Note_on_c, 1, 57, 66
4, 38231, Note_on_c, 1, 57, 0
4, 38232, Note_on_c, 1, 60, 66
4, 38255, Note_on_c, 1, 60, 0
4, 38256, Note_on_c, 1, 57, 66
4, 38279, Note_on_c, 1, 57, 0
4, 38280, Note_on_c, 1, 60, 66
4, 38303, Note_on_c, 1, 60, 0
4, 38304, Note_on_c, 1, 57, 66
4, 38327, Note_on_c, 1, 57, 0
4, 38328, Note_on_c, 1, 60, 66
4, 38351, Note_on_c, 1, 60, 0
4, 38352, Note_on_c, 1, 57, 66
4, 38375, Note_on_c, 1, 57, 0
4, 38376, Note_on_c, 1, 60, 66
4, 38399, Note_on_c, 1, 60, 0
4, 38400, Note_on_c, 1, 54, 66
4, 38400, Note_on_c, 1, 57, 66
4, 38400, Note_on_c, 1, 60, 66
4, 38489, Note_on_c, 1, 60, 0
4, 38489, Note_on_c, 1, 57, 0
4, 38489, Note_on_c, 1, 54, 0
4, 38616, Note_on_c, 1, 55, 68
4, 38639, Note_on_c, 1, 55, 0
4, 38640, Note_on_c, 1, 58, 70
4, 38663, Note_on_c, 1, 58, 0
4, 38664, Note_on_c, 1, 62, 72
4, 38687, Note_on_c, 1, 62, 0
4, 38688, Note_on_c, 1, 67, 75
4, 38711, Note_on_c, 1, 67, 0
4, 38712, Note_on_c, 1, 62, 72
4, 38735, Note_on_c, 1, 62, 0
4, 38736, Note_on_c, 1, 58, 70
4, 38759, Note_on_c, 1, 58, 0
4, 38760, Note_on_c, 1, 55, 68
4, 38783, Note_on_c, 1, 55, 0
4, 38784, Note_on_c, 1, 63, 66
4, 38784, Note_on_c, 1, 60, 66
4, 38873, Note_on_c, 1, 63, 0
4, 38873, Note_on_c, 1, 60, 0
4, 38928, Note_on_c, 1, 60, 66
4, 38973, Note_on_c, 1, 60, 0
4, 38976, Note_on_c, 1, 62, 66
4, 39021, Note_on_c, 1, 62, 0
4, 39024, Note_on_c, 1, 50, 66
4, 39069, Note_on_c, 1, 50, 0
4, 39072, Note_on_c, 1, 62, 66
4, 39095, Note_on_c, 1, 62, 0
4, 39096, Note_on_c, 1, 66, 66
4, 39119, Note_on_c, 1, 66, 0
4, 39120, Note_on_c, 1, 62, 66
4, 39143, Note_on_c, 1, 62, 0
4, 39144, Note_on_c, 1, 66, 66
4, 39167, Note_on_c, 1, 66, 0
4, 39168, Note_on_c, 1, 64, 67
4, 39191, Note_on_c, 1, 64, 0
4, 39192, Note_on_c, 1, 67, 67
4, 39215, Note_on_c, 1, 67, 0
4, 39216, Note_on_c, 1, 64, 67
4, 39239, Note_on_c, 1, 64, 0
4, 39240, Note_on_c, 1, 67, 67
4, 39263, Note_on_c, 1, 67, 0
4, 39264, Note_on_c, 1, 66, 68
4, 39287, Note_on_c, 1, 66, 0
4, 39288, Note_on_c, 1, 69, 68
4, 39311, Note_on_c, 1, 69, 0
4, 39312, Note_on_c, 1, 66, 68
4, 39335, Note_on_c, 1, 66, 0
4, 39336, Note_on_c, 1, 69, 68
4, 39359, Note_on_c, 1, 69, 0
4, 39360, Note_on_c, 1, 67, 69
4, 39370, Note_on_c, 1, 67, 0
4, 39384, Note_on_c, 1, 62, 69
4, 39394, Note_on_c, 1, 62, 0
4, 39408, Note_on_c, 1, 58, 69
4, 39418, Note_on_c, 1, 58, 0
4, 39432, Note_on_c, 1, 55, 69
4, 39442, Note_on_c, 1, 55, 0
4, 39456, Note_on_c, 1, 67, 70
4, 39479, Note_on_c, 1, 67, 0
4, 39480, Note_on_c, 1, 70, 70
4, 39503, Note_on_c, 1, 70, 0
4, 39504, Note_on_c, 1, 67, 70
4, 39527, Note_on_c, 1, 67, 0
4, 39528, Note_on_c, 1, 70, 70
4, 39551, Note_on_c, 1, 70, 0
4, 39552, Note_on_c, 1, 69, 71
4, 39575, Note_on_c, 1, 69, 0
4, 39576, Note_on_c, 1, 72, 71
4, 39599, Note_on_c, 1, 72, 0
4, 39600, Note_on_c, 1, 69, 72
4, 39623, Note_on_c, 1, 69, 0
4, 39624, Note_on_c, 1, 72, 72
4, 39647, Note_on_c, 1, 72, 0
4, 39648, Note_on_c, 1, 71, 73
4, 39671, Note_on_c, 1, 71, 0
4, 39672, Note_on_c, 1, 74, 73
4, 39695, Note_on_c, 1, 74, 0
4, 39696, Note_on_c, 1, 71, 74
4, 39719, Note_on_c, 1, 71, 0
4, 39720, Note_on_c, 1, 74, 75
4, 39743, Note_on_c, 1, 74, 0
4, 39744, Note_on_c, 1, 72, 75
4, 39789, Note_on_c, 1, 72, 0
4, 39792, Note_on_c, 1, 69, 75
4, 39837, Note_on_c, 1, 69, 0
4, 39840, Note_on_c, 1, 70, 75
4, 39885, Note_on_c, 1, 70, 0
4, 39888, Note_on_c, 1, 67, 75
4, 39933, Note_on_c, 1, 67, 0
4, 39936, Note_on_c, 1, 69, 75
4, 39981, Note_on_c, 1, 69, 0
4, 39984, Note_on_c, 1, 66, 75
4, 40029, Note_on_c, 1, 66, 0
4, 40032, Note_on_c, 1, 67, 75
4, 40077, Note_on_c, 1, 67, 0
4, 40080, Note_on_c, 1, 60, 75
4, 40125, Note_on_c, 1, 60, 0
4, 40128, Note_on_c, 1, 58, 75
4, 40173, Note_on_c, 1, 58, 0
4, 40176, Note_on_c, 1, 63, 75
4, 40221, Note_on_c, 1, 63, 0
4, 40224, Note_on_c, 1, 62, 75
4, 40269, Note_on_c, 1, 62, 0
4, 40272, Note_on_c, 1, 66, 75
4, 40317, Note_on_c, 1, 66, 0
4, 40320, Note_on_c, 1, 67, 75
4, 40453, Note_on_c, 1, 67, 0
4, 40464, Note_on_c, 1, 66, 75
4, 40509, Note_on_c, 1, 66, 0
4, 40512, Note_on_c, 1, 67, 75
4, 40557, Note_on_c, 1, 67, 0
4, 40560, Note_on_c, 1, 55, 75
4, 40605, Note_on_c, 1, 55, 0
4, 40704, Note_on_c, 1, 69, 70
4, 40704, Note_on_c, 1, 67, 70
4, 40751, Note_on_c, 1, 69, 0
4, 40751, Note_on_c, 1, 67, 0
4, 40752, Note_on_c, 1, 69, 70
4, 40752, Note_on_c, 1, 65, 70
4, 40799, Note_on_c, 1, 69, 0
4, 40799, Note_on_c, 1, 65, 0
4, 40896, Note_on_c, 1, 67, 70
4, 40896, Note_on_c, 1, 65, 70
4, 40943, Note_on_c, 1, 67, 0
4, 40943, Note_on_c, 1, 65, 0
4, 40944, Note_on_c, 1, 67, 70
4, 40944, Note_on_c, 1, 63, 70
4, 40991, Note_on_c, 1, 67, 0
4, 40991, Note_on_c, 1, 63, 0
4, 41088, Note_on_c, 1, 65, 70
4, 41088, Note_on_c, 1, 63, 70
4, 41135, Note_on_c, 1, 65, 0
4, 41135, Note_on_c, 1, 63, 0
4, 41136, Note_on_c, 1, 65, 70
4, 41136, Note_on_c, 1, 62, 70
4, 41183, Note_on_c, 1, 65, 0
4, 41183, Note_on_c, 1, 62, 0
4, 41184, Note_on_c, 1, 62, 70
4, 41184, Note_on_c, 1, 58, 70
4, 41231, Note_on_c, 1, 62, 0
4, 41231, Note_on_c, 1, 58, 0
4, 41232, Note_on_c, 1, 62, 70
4, 41232, Note_on_c, 1, 58, 70
4, 41279, Note_on_c, 1, 62, 0
4, 41279, Note_on_c, 1, 58, 0
4, 41280, Note_on_c, 1, 63, 70
4, 41280, Note_on_c, 1, 58, 70
4, 41327, Note_on_c, 1, 63, 0
4, 41327, Note_on_c, 1, 58, 0
4, 41328, Note_on_c, 1, 63, 70
4, 41328, Note_on_c, 1, 58, 70
4, 41375, Note_on_c, 1, 63, 0
4, 41375, Note_on_c, 1, 58, 0
4, 41376, Note_on_c, 1, 62, 70
4, 41376, Note_on_c, 1, 58, 70
4, 41423, Note_on_c, 1, 62, 0
4, 41423, Note_on_c, 1, 58, 0
4, 41424, Note_on_c, 1, 62, 70
4, 41424, Note_on_c, 1, 58, 70
4, 41471, Note_on_c, 1, 62, 0
4, 41471, Note_on_c, 1, 58, 0
4, 41472, Note_on_c, 1, 63, 70
4, 41472, Note_on_c, 1, 58, 70
4, 41519, Note_on_c, 1, 63, 0
4, 41519, Note_on_c, 1, 58, 0
4, 41520, Note_on_c, 1, 63, 70
4, 41520, Note_on_c, 1, 58, 70
4, 41567, Note_on_c, 1, 63, 0
4, 41567, Note_on_c, 1, 58, 0
4, 41568, Note_on_c, 1, 62, 70
4, 41568, Note_on_c, 1, 58, 70
4, 41615, Note_on_c, 1, 62, 0
4, 41615, Note_on_c, 1, 58, 0
4, 41616, Note_on_c, 1, 62, 70
4, 41616, Note_on_c, 1, 58, 70
4, 41663, Note_on_c, 1, 62, 0
4, 41663, Note_on_c, 1, 58, 0
4, 41664, Note_on_c, 1, 58, 75
4, 41687, Note_on_c, 1, 58, 0
4, 41688, Note_on_c, 1, 63, 75
4, 41711, Note_on_c, 1, 63, 0
4, 41712, Note_on_c, 1, 58, 75
4, 41735, Note_on_c, 1, 58, 0
4, 41736, Note_on_c, 1, 63, 75
4, 41759, Note_on_c, 1, 63, 0
4, 41760, Note_on_c, 1, 58, 75
4, 41783, Note_on_c, 1, 58, 0
4, 41784, Note_on_c, 1, 63, 75
4, 41807, Note_on_c, 1, 63, 0
4, 41808, Note_on_c, 1, 58, 75
4, 41831, Note_on_c, 1, 58, 0
4, 41832, Note_on_c, 1, 63, 75
4, 41855, Note_on_c, 1, 63, 0
4, 41856, Note_on_c, 1, 57, 75
4, 41879, Note_on_c, 1, 57, 0
4, 41880, Note_on_c, 1, 63, 75
4, 41903, Note_on_c, 1, 63, 0
4, 41904, Note_on_c, 1, 57, 75
4, 41927, Note_on_c, 1, 57, 0
4, 41928, Note_on_c, 1, 63, 75
4, 41951, Note_on_c, 1, 63, 0
4, 41952, Note_on_c, 1, 57, 75
4, 41975, Note_on_c, 1, 57, 0
4, 41976, Note_on_c, 1, 63, 75
4, 41999, Note_on_c, 1, 63, 0
4, 42000, Note_on_c, 1, 57, 75
4, 42023, Note_on_c, 1, 57, 0
4, 42024, Note_on_c, 1, 63, 75
4, 42047, Note_on_c, 1, 63, 0
4, 42048, Note_on_c, 1, 58, 75
4, 42093, Note_on_c, 1, 58, 0
4, 42096, Note_on_c, 1, 62, 75
4, 42096, Note_on_c, 1, 58, 75
4, 42141, Note_on_c, 1, 62, 0
4, 42141, Note_on_c, 1, 58, 0
4, 42144, Note_on_c, 1, 63, 75
4, 42144, Note_on_c, 1, 58, 75
4, 42189, Note_on_c, 1, 63, 0
4, 42189, Note_on_c, 1, 58, 0
4, 42192, Note_on_c, 1, 63, 75
4, 42192, Note_on_c, 1, 58, 75
4, 42237, Note_on_c, 1, 63, 0
4, 42237, Note_on_c, 1, 58, 0
4, 42240, Note_on_c, 1, 62, 75
4, 42240, Note_on_c, 1, 58, 75
4, 42285, Note_on_c, 1, 62, 0
4, 42285, Note_on_c, 1, 58, 0
4, 42288, Note_on_c, 1, 62, 75
4, 42288, Note_on_c, 1, 58, 75
4, 42333, Note_on_c, 1, 62, 0
4, 42333, Note_on_c, 1, 58, 0
4, 42336, Note_on_c, 1, 63, 75
4, 42336, Note_on_c, 1, 58, 75
4, 42381, Note_on_c, 1, 63, 0
4, 42381, Note_on_c, 1, 58, 0
4, 42384, Note_on_c, 1, 63, 75
4, 42384, Note_on_c, 1, 58, 75
4, 42429, Note_on_c, 1, 63, 0
4, 42429, Note_on_c, 1, 58, 0
4, 42432, Note_on_c, 1, 62, 75
4, 42432, Note_on_c, 1, 58, 75
4, 42521, Note_on_c, 1, 62, 0
4, 42521, Note_on_c, 1, 58, 0
4, 42624, Note_on_c, 1, 58, 70
4, 42624, Note_on_c, 1, 55, 70
4, 42624, Note_on_c, 1, 51, 70
4, 42671, Note_on_c, 1, 58, 0
4, 42671, Note_on_c, 1, 55, 0
4, 42671, Note_on_c, 1, 51, 0
4, 42672, Note_on_c, 1, 58, 70
4, 42672, Note_on_c, 1, 55, 70
4, 42672, Note_on_c, 1, 51, 70
4, 42719, Note_on_c, 1, 58, 0
4, 42719, Note_on_c, 1, 55, 0
4, 42719, Note_on_c, 1, 51, 0
4, 42720, Note_on_c, 1, 58, 70
4, 42720, Note_on_c, 1, 55, 70
4, 42720, Note_on_c, 1, 51, 70
4, 42767, Note_on_c, 1, 58, 0
4, 42767, Note_on_c, 1, 55, 0
4, 42767, Note_on_c, 1, 51, 0
4, 42768, Note_on_c, 1, 58, 70
4, 42768, Note_on_c, 1, 55, 70
4, 42768, Note_on_c, 1, 51, 70
4, 42815, Note_on_c, 1, 58, 0
4, 42815, Note_on_c, 1, 55, 0
4, 42815, Note_on_c, 1, 51, 0
4, 42864, Note_on_c, 1, 58, 70
4, 42864, Note_on_c, 1, 55, 70
4, 42864, Note_on_c, 1, 51, 70
4, 42911, Note_on_c, 1, 58, 0
4, 42911, Note_on_c, 1, 55, 0
4, 42911, Note_on_c, 1, 51, 0
4, 42912, Note_on_c, 1, 58, 70
4, 42912, Note_on_c, 1, 55, 70
4, 42912, Note_on_c, 1, 51, 70
4, 42959, Note_on_c, 1, 58, 0
4, 42959, Note_on_c, 1, 55, 0
4, 42959, Note_on_c, 1, 51, 0
4, 42960, Note_on_c, 1, 58, 70
4, 42960, Note_on_c, 1, 55, 70
4, 42960, Note_on_c, 1, 51, 70
4, 43007, Note_on_c, 1, 58, 0
4, 43007, Note_on_c, 1, 55, 0
4, 43007, Note_on_c, 1, 51, 0
4, 43056, Note_on_c, 1, 56, 70
4, 43056, Note_on_c, 1, 51, 70
4, 43103, Note_on_c, 1, 56, 0
4, 43103, Note_on_c, 1, 51, 0
4, 43104, Note_on_c, 1, 56, 70
4, 43104, Note_on_c, 1, 51, 70
4, 43151, Note_on_c, 1, 56, 0
4, 43151, Note_on_c, 1, 51, 0
4, 43152, Note_on_c, 1, 56, 70
4, 43152, Note_on_c, 1, 51, 70
4, 43199, Note_on_c, 1, 56, 0
4, 43199, Note_on_c, 1, 51, 0
4, 43248, Note_on_c, 1, 55, 70
4, 43248, Note_on_c, 1, 51, 70
4, 43295, Note_on_c, 1, 55, 0
4, 43295, Note_on_c, 1, 51, 0
4, 43296, Note_on_c, 1, 55, 70
4, 43296, Note_on_c, 1, 51, 70
4, 43343, Note_on_c, 1, 55, 0
4, 43343, Note_on_c, 1, 51, 0
4, 43344, Note_on_c, 1, 55, 70
4, 43344, Note_on_c, 1, 51, 70
4, 43391, Note_on_c, 1, 55, 0
4, 43391, Note_on_c, 1, 51, 0
4, 43440, Note_on_c, 1, 56, 70
4, 43440, Note_on_c, 1, 51, 70
4, 43487, Note_on_c, 1, 56, 0
4, 43487, Note_on_c, 1, 51, 0
4, 43488, Note_on_c, 1, 56, 70
4, 43488, Note_on_c, 1, 51, 70
4, 43535, Note_on_c, 1, 56, 0
4, 43535, Note_on_c, 1, 51, 0
4, 43536, Note_on_c, 1, 56, 70
4, 43536, Note_on_c, 1, 51, 70
4, 43583, Note_on_c, 1, 56, 0
4, 43583, Note_on_c, 1, 51, 0
4, 43584, Note_on_c, 1, 55, 70
4, 43584, Note_on_c, 1, 51, 70
4, 43673, Note_on_c, 1, 55, 0
4, 43673, Note_on_c, 1, 51, 0
4, 43680, Note_on_c, 1, 63, 70
4, 43680, Note_on_c, 1, 55, 70
4, 43769, Note_on_c, 1, 63, 0
4, 43769, Note_on_c, 1, 55, 0
4, 43776, Note_on_c, 1, 63, 70
4, 43776, Note_on_c, 1, 56, 70
4, 43865, Note_on_c, 1, 63, 0
4, 43865, Note_on_c, 1, 56, 0
4, 43872, Note_on_c, 1, 62, 70
4, 43872, Note_on_c, 1, 58, 70
4, 43961, Note_on_c, 1, 62, 0
4, 43961, Note_on_c, 1, 58, 0
4, 43968, Note_on_c, 1, 63, 70
4, 43968, Note_on_c, 1, 60, 70
4, 44057, Note_on_c, 1, 63, 0
4, 44057, Note_on_c, 1, 60, 0
4, 44064, Note_on_c, 1, 63, 70
4, 44064, Note_on_c, 1, 55, 70
4, 44153, Note_on_c, 1, 63, 0
4, 44153, Note_on_c, 1, 55, 0
4, 44160, Note_on_c, 1, 63, 70
4, 44160, Note_on_c, 1, 56, 70
4, 44249, Note_on_c, 1, 63, 0
4, 44249, Note_on_c, 1, 56, 0
4, 44256, Note_on_c, 1, 62, 70
4, 44256, Note_on_c, 1, 58, 70
4, 44345, Note_on_c, 1, 62, 0
4, 44345, Note_on_c, 1, 58, 0
4, 44352, Note_on_c, 1, 60, 70
4, 44397, Note_on_c, 1, 60, 0
4, 44400, Note_on_c, 1, 62, 70
4, 44445, Note_on_c, 1, 62, 0
4, 44448, Note_on_c, 1, 63, 71
4, 44537, Note_on_c, 1, 63, 0
4, 44592, Note_on_c, 1, 65, 73
4, 44592, Note_on_c, 1, 63, 73
4, 44592, Note_on_c, 1, 60, 73
4, 44637, Note_on_c, 1, 65, 0
4, 44637, Note_on_c, 1, 63, 0
4, 44637, Note_on_c, 1, 60, 0
4, 44640, Note_on_c, 1, 65, 73
4, 44640, Note_on_c, 1, 63, 73
4, 44640, Note_on_c, 1, 60, 73
4, 44685, Note_on_c, 1, 65, 0
4, 44685, Note_on_c, 1, 63, 0
4, 44685, Note_on_c, 1, 60, 0
4, 44688, Note_on_c, 1, 65, 74
4, 44688, Note_on_c, 1, 63, 74
4, 44688, Note_on_c, 1, 60, 74
4, 44733, Note_on_c, 1, 65, 0
4, 44733, Note_on_c, 1, 63, 0
4, 44733, Note_on_c, 1, 60, 0
4, 44736, Note_on_c, 1, 65, 75
4, 44736, Note_on_c, 1, 62, 75
4, 44736, Note_on_c, 1, 58, 75
4, 44825, Note_on_c, 1, 65, 0
4, 44825, Note_on_c, 1, 62, 0
4, 44825, Note_on_c, 1, 58, 0
4, 44880, Note_on_c, 1, 55, 75
4, 44925, Note_on_c, 1, 55, 0
4, 44928, Note_on_c, 1, 53, 75
4, 44973, Note_on_c, 1, 53, 0
4, 44976, Note_on_c, 1, 50, 75
4, 45021, Note_on_c, 1, 50, 0
4, 45024, Note_on_c, 1, 51, 75
4, 45069, Note_on_c, 1, 51, 0
4, 45072, Note_on_c, 1, 56, 75
4, 45117, Note_on_c, 1, 56, 0
4, 45120, Note_on_c, 1, 55, 75
4, 45209, Note_on_c, 1, 55, 0
4, 45264, Note_on_c, 1, 62, 75
4, 45309, Note_on_c, 1, 62, 0
4, 45312, Note_on_c, 1, 63, 75
4, 45445, Note_on_c, 1, 63, 0
4, 45456, Note_on_c, 1, 62, 75
4, 45501, Note_on_c, 1, 62, 0
4, 45504, Note_on_c, 1, 63, 78
4, 45549, Note_on_c, 1, 63, 0
4, 45552, Note_on_c, 1, 55, 81
4, 45575, Note_on_c, 1, 55, 0
4, 45576, Note_on_c, 1, 58, 81
4, 45599, Note_on_c, 1, 58, 0
4, 45600, Note_on_c, 1, 53, 81
4, 45623, Note_on_c, 1, 53, 0
4, 45624, Note_on_c, 1, 56, 81
4, 45647, Note_on_c, 1, 56, 0
4, 45648, Note_on_c, 1, 51, 81
4, 45671, Note_on_c, 1, 51, 0
4, 45672, Note_on_c, 1, 55, 81
4, 45695, Note_on_c, 1, 55, 0
4, 45696, Note_on_c, 1, 53, 81
4, 45696, Note_on_c, 1, 50, 81
4, 45785, Note_on_c, 1, 53, 0
4, 45785, Note_on_c, 1, 50, 0
4, 45936, Note_on_c, 1, 55, 81
4, 45959, Note_on_c, 1, 55, 0
4, 45960, Note_on_c, 1, 58, 81
4, 45983, Note_on_c, 1, 58, 0
4, 45984, Note_on_c, 1, 53, 81
4, 46007, Note_on_c, 1, 53, 0
4, 46008, Note_on_c, 1, 56, 81
4, 46031, Note_on_c, 1, 56, 0
4, 46032, Note_on_c, 1, 51, 81
4, 46055, Note_on_c, 1, 51, 0
4, 46056, Note_on_c, 1, 55, 81
4, 46079, Note_on_c, 1, 55, 0
4, 46080, Note_on_c, 1, 53, 81
4, 46080, Note_on_c, 1, 50, 81
4, 46169, Note_on_c, 1, 53, 0
4, 46169, Note_on_c, 1, 50, 0
4, 46272, Note_on_c, 1, 51, 75
4, 46272, Note_on_c, 1, 39, 75
4, 46361, Note_on_c, 1, 51, 0
4, 46361, Note_on_c, 1, 39, 0
4, 46416, Note_on_c, 1, 55, 75
4, 46416, Note_on_c, 1, 43, 75
4, 46461, Note_on_c, 1, 55, 0
4, 46461, Note_on_c, 1, 43, 0
4, 46464, Note_on_c, 1, 56, 75
4, 46553, Note_on_c, 1, 56, 0
4, 46560, Note_on_c, 1, 55, 75
4, 46605, Note_on_c, 1, 55, 0
4, 46608, Note_on_c, 1, 53, 75
4, 46653, Note_on_c, 1, 53, 0
4, 46656, Note_on_c, 1, 51, 75
4, 46745, Note_on_c, 1, 51, 0
4, 46848, Note_on_c, 1, 51, 75
4, 46848, Note_on_c, 1, 39, 75
4, 46937, Note_on_c, 1, 51, 0
4, 46937, Note_on_c, 1, 39, 0
4, 47088, Note_on_c, 1, 63, 66
4, 47088, Note_on_c, 1, 60, 66
4, 47135, Note_on_c, 1, 63, 0
4, 47135, Note_on_c, 1, 60, 0
4, 47136, Note_on_c, 1, 63, 66
4, 47136, Note_on_c, 1, 60, 66
4, 47183, Note_on_c, 1, 63, 0
4, 47183, Note_on_c, 1, 60, 0
4, 47184, Note_on_c, 1, 63, 66
4, 47184, Note_on_c, 1, 60, 66
4, 47231, Note_on_c, 1, 63, 0
4, 47231, Note_on_c, 1, 60, 0
4, 47280, Note_on_c, 1, 62, 66
4, 47280, Note_on_c, 1, 58, 66
4, 47327, Note_on_c, 1, 62, 0
4, 47327, Note_on_c, 1, 58, 0
4, 47328, Note_on_c, 1, 62, 66
4, 47328, Note_on_c, 1, 58, 66
4, 47375, Note_on_c, 1, 62, 0
4, 47375, Note_on_c, 1, 58, 0
4, 47376, Note_on_c, 1, 62, 66
4, 47376, Note_on_c, 1, 58, 66
4, 47423, Note_on_c, 1, 62, 0
4, 47423, Note_on_c, 1, 58, 0
4, 47472, Note_on_c, 1, 60, 66
4, 47472, Note_on_c, 1, 56, 66
4, 47519, Note_on_c, 1, 60, 0
4, 47519, Note_on_c, 1, 56, 0
4, 47520, Note_on_c, 1, 60, 66
4, 47520, Note_on_c, 1, 56, 66
4, 47567, Note_on_c, 1, 60, 0
4, 47567, Note_on_c, 1, 56, 0
4, 47568, Note_on_c, 1, 60, 66
4, 47568, Note_on_c, 1, 56, 66
4, 47615, Note_on_c, 1, 60, 0
4, 47615, Note_on_c, 1, 56, 0
4, 47664, Note_on_c, 1, 58, 66
4, 47664, Note_on_c, 1, 55, 66
4, 47709, Note_on_c, 1, 58, 0
4, 47709, Note_on_c, 1, 55, 0
4, 47760, Note_on_c, 1, 63, 75
4, 47805, Note_on_c, 1, 63, 0
4, 47808, Note_on_c, 1, 63, 75
4, 47897, Note_on_c, 1, 63, 0
4, 47904, Note_on_c, 1, 63, 75
4, 47949, Note_on_c, 1, 63, 0
4, 47952, Note_on_c, 1, 62, 75
4, 47997, Note_on_c, 1, 62, 0
4, 48000, Note_on_c, 1, 63, 75
4, 48015, Note_on_c, 1, 63, 0
4, 48016, Note_on_c, 1, 67, 75
4, 48031, Note_on_c, 1, 67, 0
4, 48032, Note_on_c, 1, 70, 75
4, 48047, Note_on_c, 1, 70, 0
4, 48144, Note_on_c, 1, 65, 75
4, 48189, Note_on_c, 1, 65, 0
4, 48192, Note_on_c, 1, 63, 75
4, 48237, Note_on_c, 1, 63, 0
4, 48240, Note_on_c, 1, 68, 75
4, 48285, Note_on_c, 1, 68, 0
4, 48288, Note_on_c, 1, 67, 75
4, 48333, Note_on_c, 1, 67, 0
4, 48336, Note_on_c, 1, 65, 75
4, 48381, Note_on_c, 1, 65, 0
4, 48384, Note_on_c, 1, 51, 75
4, 48399, Note_on_c, 1, 51, 0
4, 48400, Note_on_c, 1, 55, 75
4, 48415, Note_on_c, 1, 55, 0
4, 48416, Note_on_c, 1, 58, 75
4, 48431, Note_on_c, 1, 58, 0
4, 48528, Note_on_c, 1, 53, 75
4, 48573, Note_on_c, 1, 53, 0
4, 48576, Note_on_c, 1, 51, 75
4, 48621, Note_on_c, 1, 51, 0
4, 48624, Note_on_c, 1, 56, 75
4, 48669, Note_on_c, 1, 56, 0
4, 48672, Note_on_c, 1, 55, 75
4, 48717, Note_on_c, 1, 55, 0
4, 48720, Note_on_c, 1, 53, 75
4, 48765, Note_on_c, 1, 53, 0
4, 48768, Note_on_c, 1, 51, 75
4, 48857, Note_on_c, 1, 51, 0
4, 48864, Note_on_c, 1, 53, 66
4, 48864, Note_on_c, 1, 46, 66
4, 48953, Note_on_c, 1, 53, 0
4, 48953, Note_on_c, 1, 46, 0
4, 48960, Note_on_c, 1, 55, 66
4, 48960, Note_on_c, 1, 51, 66
4, 49049, Note_on_c, 1, 55, 0
4, 49049, Note_on_c, 1, 51, 0
4, 49152, Note_on_c, 1, 51, 0
4, 49241, Note_on_c, 1, 51, 0
4, 49248, End_track
5, 0, Start_track
5, 0, Program_c, 0, 0
5, 0, Control_c, 0, 7, 127
5, 0, Control_c, 0, 10, 64
5, 4416, Note_on_c, 0, 63, 70
5, 4505, Note_on_c, 0, 63, 0
5, 4512, Note_on_c, 0, 62, 70
5, 4601, Note_on_c, 0, 62, 0
5, 4608, Note_on_c, 0, 60, 70
5, 4653, Note_on_c, 0, 60, 0
5, 4656, Note_on_c, 0, 65, 70
5, 4701, Note_on_c, 0, 65, 0
5, 4704, Note_on_c, 0, 58, 70
5, 4793, Note_on_c, 0, 58, 0
5, 4800, Note_on_c, 0, 63, 70
5, 4889, Note_on_c, 0, 63, 0
5, 4896, Note_on_c, 0, 62, 70
5, 4985, Note_on_c, 0, 62, 0
5, 4992, Note_on_c, 0, 60, 70
5, 5037, Note_on_c, 0, 60, 0
5, 5040, Note_on_c, 0, 65, 70
5, 5085, Note_on_c, 0, 65, 0
5, 5088, Note_on_c, 0, 70, 66
5, 5133, Note_on_c, 0, 70, 0
5, 5136, Note_on_c, 0, 58, 75
5, 5181, Note_on_c, 0, 58, 0
5, 9360, Note_on_c, 0, 50, 75
5, 9405, Note_on_c, 0, 50, 0
5, 9408, Note_on_c, 0, 51, 81
5, 9497, Note_on_c, 0, 51, 0
5, 9504, Note_on_c, 0, 53, 81
5, 9593, Note_on_c, 0, 53, 0
5, 9744, Note_on_c, 0, 53, 81
5, 9789, Note_on_c, 0, 53, 0
5, 9792, Note_on_c, 0, 58, 81
5, 9837, Note_on_c, 0, 58, 0
5, 9840, Note_on_c, 0, 51, 81
5, 9885, Note_on_c, 0, 51, 0
5, 9888, Note_on_c, 0, 53, 81
5, 9977, Note_on_c, 0, 53, 0
5, 10128, Note_on_c, 0, 53, 81
5, 10173, Note_on_c, 0, 53, 0
5, 10176, Note_on_c, 0, 58, 81
5, 10221, Note_on_c, 0, 58, 0
5, 10224, Note_on_c, 0, 51, 81
5, 10269, Note_on_c, 0, 51, 0
5, 10272, Note_on_c, 0, 53, 81
5, 10361, Note_on_c, 0, 53, 0
5, 15168, Note_on_c, 0, 63, 70
5, 15257, Note_on_c, 0, 63, 0
5, 15264, Note_on_c, 0, 62, 70
5, 15353, Note_on_c, 0, 62, 0
5, 15360, Note_on_c, 0, 60, 70
5, 15405, Note_on_c, 0, 60, 0
5, 15408, Note_on_c, 0, 65, 70
5, 15453, Note_on_c, 0, 65, 0
5, 15456, Note_on_c, 0, 58, 70
5, 15545, Note_on_c, 0, 58, 0
5, 15552, Note_on_c, 0, 63, 70
5, 15641, Note_on_c, 0, 63, 0
5, 15648, Note_on_c, 0, 62, 70
5, 15737, Note_on_c, 0, 62, 0
5, 15744, Note_on_c, 0, 60, 70
5, 15789, Note_on_c, 0, 60, 0
5, 15792, Note_on_c, 0, 65, 70
5, 15837, Note_on_c, 0, 65, 0
5, 15840, Note_on_c, 0, 70, 66
5, 15885, Note_on_c, 0, 70, 0
5, 15888, Note_on_c, 0, 58, 75
5, 15933, Note_on_c, 0, 58, 0
5, 20112, Note_on_c, 0, 50, 75
5, 20157, Note_on_c, 0, 50, 0
5, 20160, Note_on_c, 0, 51, 81
5, 20249, Note_on_c, 0, 51, 0
5, 20256, Note_on_c, 0, 53, 81
5, 20345, Note_on_c, 0, 53, 0
5, 20496, Note_on_c, 0, 53, 81
5, 20541, Note_on_c, 0, 53, 0
5, 20544, Note_on_c, 0, 58, 81
5, 20589, Note_on_c, 0, 58, 0
5, 20592, Note_on_c, 0, 51, 81
5, 20637, Note_on_c, 0, 51, 0
5, 20640, Note_on_c, 0, 53, 81
5, 20729, Note_on_c, 0, 53, 0
5, 20880, Note_on_c, 0, 53, 81
5, 20925, Note_on_c, 0, 53, 0
5, 20928, Note_on_c, 0, 58, 81
5, 20973, Note_on_c, 0, 58, 0
5, 20976, Note_on_c, 0, 51, 81
5, 21021, Note_on_c, 0, 51, 0
5, 21024, Note_on_c, 0, 53, 81
5, 21113, Note_on_c, 0, 53, 0
5, 22752, Note_on_c, 0, 51, 81
5, 22841, Note_on_c, 0, 51, 0
5, 22848, Note_on_c, 0, 51, 81
5, 22937, Note_on_c, 0, 51, 0
5, 22992, Note_on_c, 0, 52, 81
5, 23037, Note_on_c, 0, 52, 0
5, 23136, Note_on_c, 0, 53, 70
5, 23225, Note_on_c, 0, 53, 0
5, 23232, Note_on_c, 0, 53, 71
5, 23321, Note_on_c, 0, 53, 0
5, 23376, Note_on_c, 0, 54, 73
5, 23421, Note_on_c, 0, 54, 0
5, 23520, Note_on_c, 0, 55, 75
5, 23609, Note_on_c, 0, 55, 0
5, 23616, Note_on_c, 0, 55, 76
5, 23705, Note_on_c, 0, 55, 0
5, 23760, Note_on_c, 0, 55, 78
5, 23805, Note_on_c, 0, 55, 0
5, 23904, Note_on_c, 0, 57, 81
5, 23993, Note_on_c, 0, 57, 0
5, 24000, Note_on_c, 0, 57, 81
5, 24089, Note_on_c, 0, 57, 0
5, 24144, Note_on_c, 0, 57, 81
5, 24189, Note_on_c, 0, 57, 0
5, 26544, Note_on_c, 0, 58, 81
5, 26589, Note_on_c, 0, 58, 0
5, 26592, Note_on_c, 0, 60, 81
5, 26637, Note_on_c, 0, 60, 0
5, 26640, Note_on_c, 0, 62, 81
5, 26685, Note_on_c, 0, 62, 0
5, 31536, Note_on_c, 0, 55, 81
5, 31581, Note_on_c, 0, 55, 0
5, 31584, Note_on_c, 0, 56, 81
5, 31629, Note_on_c, 0, 56, 0
5, 31632, Note_on_c, 0, 58, 81
5, 31677, Note_on_c, 0, 58, 0
5, 32640, Note_on_c, 0, 44, 81
5, 32729, Note_on_c, 0, 44, 0
5, 32736, Note_on_c, 0, 46, 81
5, 32825, Note_on_c, 0, 46, 0
5, 32832, Note_on_c, 0, 51, 81
5, 32921, Note_on_c, 0, 51, 0
5, 33936, Note_on_c, 0, 55, 75
5, 33981, Note_on_c, 0, 55, 0
5, 33984, Note_on_c, 0, 56, 75
5, 34073, Note_on_c, 0, 56, 0
5, 34080, Note_on_c, 0, 58, 75
5, 34169, Note_on_c, 0, 58, 0
5, 34320, Note_on_c, 0, 58, 75
5, 34365, Note_on_c, 0, 58, 0
5, 34368, Note_on_c, 0, 63, 75
5, 34413, Note_on_c, 0, 63, 0
5, 34416, Note_on_c, 0, 56, 75
5, 34461, Note_on_c, 0, 56, 0
5, 34464, Note_on_c, 0, 58, 75
5, 34553, Note_on_c, 0, 58, 0
5, 34704, Note_on_c, 0, 46, 75
5, 34749, Note_on_c, 0, 46, 0
5, 34752, Note_on_c, 0, 51, 75
5, 34797, Note_on_c, 0, 51, 0
5, 34800, Note_on_c, 0, 44, 75
5, 34845, Note_on_c, 0, 44, 0
5, 34848, Note_on_c, 0, 46, 75
5, 34937, Note_on_c, 0, 46, 0
5, 36576, Note_on_c, 0, 51, 81
5, 36665, Note_on_c, 0, 51, 0
5, 36672, Note_on_c, 0, 51, 81
5, 36761, Note_on_c, 0, 51, 0
5, 36816, Note_on_c, 0, 52, 81
5, 36861, Note_on_c, 0, 52, 0
5, 36960, Note_on_c, 0, 53, 70
5, 37049, Note_on_c, 0, 53, 0
5, 37056, Note_on_c, 0, 53, 71
5, 37145, Note_on_c, 0, 53, 0
5, 37200, Note_on_c, 0, 54, 73
5, 37245, Note_on_c, 0, 54, 0
5, 37344, Note_on_c, 0, 55, 75
5, 37433, Note_on_c, 0, 55, 0
5, 37440, Note_on_c, 0, 55, 76
5, 37529, Note_on_c, 0, 55, 0
5, 37584, Note_on_c, 0, 55, 78
5, 37629, Note_on_c, 0, 55, 0
5, 37728, Note_on_c, 0, 57, 81
5, 37817, Note_on_c, 0, 57, 0
5, 37824, Note_on_c, 0, 57, 81
5, 37913, Note_on_c, 0, 57, 0
5, 37968, Note_on_c, 0, 57, 81
5, 38013, Note_on_c, 0, 57, 0
5, 40368, Note_on_c, 0, 58, 81
5, 40413, Note_on_c, 0, 58, 0
5, 40416, Note_on_c, 0, 60, 81
5, 40461, Note_on_c, 0, 60, 0
5, 40464, Note_on_c, 0, 62, 81
5, 40509, Note_on_c, 0, 62, 0
5, 45360, Note_on_c, 0, 55, 81
5, 45405, Note_on_c, 0, 55, 0
5, 45408, Note_on_c, 0, 56, 81
5, 45453, Note_on_c, 0, 56, 0
5, 45456, Note_on_c, 0, 58, 81
5, 45501, Note_on_c, 0, 58, 0
5, 46464, Note_on_c, 0, 44, 81
5, 46553, Note_on_c, 0, 44, 0
5, 46560, Note_on_c, 0, 46, 81
5, 46649, Note_on_c, 0, 46, 0
5, 46656, Note_on_c, 0, 51, 81
5, 46745, Note_on_c, 0, 51, 0
5, 47760, Note_on_c, 0, 55, 75
5, 47805, Note_on_c, 0, 55, 0
5, 47808, Note_on_c, 0, 56, 75
5, 47897, Note_on_c, 0, 56, 0
5, 47904, Note_on_c, 0, 58, 75
5, 47993, Note_on_c, 0, 58, 0
5, 48144, Note_on_c, 0, 58, 75
5, 48189, Note_on_c, 0, 58, 0
5, 48192, Note_on_c, 0, 63, 75
5, 48237, Note_on_c, 0, 63, 0
5, 48240, Note_on_c, 0, 56, 75
5, 48285, Note_on_c, 0, 56, 0
5, 48288, Note_on_c, 0, 58, 75
5, 48377, Note_on_c, 0, 58, 0
5, 48528, Note_on_c, 0, 46, 75
5, 48573, Note_on_c, 0, 46, 0
5, 48576, Note_on_c, 0, 51, 75
5, 48621, Note_on_c, 0, 51, 0
5, 48624, Note_on_c, 0, 44, 75
5, 48669, Note_on_c, 0, 44, 0
5, 48672, Note_on_c, 0, 46, 75
5, 48761, Note_on_c, 0, 46, 0
5, 49152, End_track
6, 0, Start_track
6, 0, Title_t, "Piano Solo   <composer>  "
6, 0, End_track
0, 0, End_of_file
