0, 0, Header, 1, 6, 96
1, 0, Start_track
1, 0, Copyright_t, "Copyright  1994-2002 Mozart Music Software"
1, 0, Text_t, "Sonata I\015\012"
1, 0, Text_t, "Haydn\015\012"
1, 0, Sequencer_specific, 16, 68, 87, 77, 90, 86, 82, 83, 78, 32, 55, 46, 48, 46, 55, 46, 48
1, 0, Time_signature, 2, 1, 24, 8
1, 0, Tempo, 120000
1, 0, Key_signature, -2, "major"
1, 288, Tempo, 461538
1, 7968, Tempo, 461538
1, 48768, End_track
2, 0, Start_track
2, 0, Program_c, 0, 0
2, 0, Control_c, 0, 7, 127
2, 0, Control_c, 0, 10, 64
2, 288, Note_on_c, 0, 74, 75
2, 377, Note_on_c, 0, 74, 0
2, 384, Note_on_c, 0, 72, 75
2, 429, Note_on_c, 0, 72, 0
2, 432, Note_on_c, 0, 70, 75
2, 477, Note_on_c, 0, 70, 0
2, 480, Note_on_c, 0, 69, 75
2, 525, Note_on_c, 0, 69, 0
2, 528, Note_on_c, 0, 67, 75
2, 573, Note_on_c, 0, 67, 0
2, 576, Note_on_c, 0, 67, 75
2, 615, Note_on_c, 0, 67, 0
2, 672, Note_on_c, 0, 69, 75
2, 761, Note_on_c, 0, 69, 0
2, 768, Note_on_c, 0, 72, 75
2, 783, Note_on_c, 0, 72, 0
2, 784, Note_on_c, 0, 70, 75
2, 799, Note_on_c, 0, 70, 0
2, 800, Note_on_c, 0, 72, 75
2, 815, Note_on_c, 0, 72, 0
2, 816, Note_on_c, 0, 70, 75
2, 831, Note_on_c, 0, 70, 0
2, 832, Note_on_c, 0, 69, 75
2, 847, Note_on_c, 0, 69, 0
2, 848, Note_on_c, 0, 70, 75
2, 863, Note_on_c, 0, 70, 0
2, 864, Note_on_c, 0, 69, 75
2, 953, Note_on_c, 0, 69, 0
2, 1056, Note_on_c, 0, 74, 75
2, 1145, Note_on_c, 0, 74, 0
2, 1152, Note_on_c, 0, 75, 75
2, 1200, Note_on_c, 0, 75, 0
2, 1200, Note_on_c, 0, 72, 75
2, 1245, Note_on_c, 0, 72, 0
2, 1248, Note_on_c, 0, 70, 75
2, 1293, Note_on_c, 0, 70, 0
2, 1296, Note_on_c, 0, 69, 75
2, 1341, Note_on_c, 0, 69, 0
2, 1344, Note_on_c, 0, 74, 75
2, 1433, Note_on_c, 0, 74, 0
2, 1440, Note_on_c, 0, 66, 75
2, 1529, Note_on_c, 0, 66, 0
2, 1536, Note_on_c, 0, 69, 75
2, 1551, Note_on_c, 0, 69, 0
2, 1552, Note_on_c, 0, 67, 75
2, 1567, Note_on_c, 0, 67, 0
2, 1568, Note_on_c, 0, 69, 75
2, 1583, Note_on_c, 0, 69, 0
2, 1584, Note_on_c, 0, 67, 75
2, 1599, Note_on_c, 0, 67, 0
2, 1600, Note_on_c, 0, 66, 75
2, 1615, Note_on_c, 0, 66, 0
2, 1616, Note_on_c, 0, 67, 75
2, 1631, Note_on_c, 0, 67, 0
2, 1632, Note_on_c, 0, 69, 75
2, 1721, Note_on_c, 0, 69, 0
2, 1728, Note_on_c, 0, 72, 75
2, 1743, Note_on_c, 0, 72, 0
2, 1744, Note_on_c, 0, 70, 75
2, 1759, Note_on_c, 0, 70, 0
2, 1760, Note_on_c, 0, 72, 75
2, 1775, Note_on_c, 0, 72, 0
2, 1776, Note_on_c, 0, 70, 75
2, 1791, Note_on_c, 0, 70, 0
2, 1792, Note_on_c, 0, 69, 75
2, 1807, Note_on_c, 0, 69, 0
2, 1808, Note_on_c, 0, 70, 75
2, 1823, Note_on_c, 0, 70, 0
2, 1824, Note_on_c, 0, 72, 75
2, 1913, Note_on_c, 0, 72, 0
2, 1920, Note_on_c, 0, 74, 75
2, 1968, Note_on_c, 0, 74, 0
2, 1968, Note_on_c, 0, 70, 75
2, 2013, Note_on_c, 0, 70, 0
2, 2016, Note_on_c, 0, 69, 75
2, 2061, Note_on_c, 0, 69, 0
2, 2064, Note_on_c, 0, 67, 75
2, 2109, Note_on_c, 0, 67, 0
2, 2112, Note_on_c, 0, 72, 75
2, 2160, Note_on_c, 0, 72, 0
2, 2160, Note_on_c, 0, 69, 75
2, 2205, Note_on_c, 0, 69, 0
2, 2208, Note_on_c, 0, 67, 75
2, 2253, Note_on_c, 0, 67, 0
2, 2256, Note_on_c, 0, 66, 75
2, 2301, Note_on_c, 0, 66, 0
2, 2304, Note_on_c, 0, 69, 75
2, 2316, Note_on_c, 0, 69, 0
2, 2316, Note_on_c, 0, 67, 75
2, 2328, Note_on_c, 0, 67, 0
2, 2328, Note_on_c, 0, 66, 75
2, 2340, Note_on_c, 0, 66, 0
2, 2340, Note_on_c, 0, 67, 75
2, 2393, Note_on_c, 0, 67, 0
2, 2400, Note_on_c, 0, 62, 75
2, 2489, Note_on_c, 0, 62, 0
2, 2592, Note_on_c, 0, 74, 75
2, 2681, Note_on_c, 0, 74, 0
2, 2688, Note_on_c, 0, 72, 75
2, 2736, Note_on_c, 0, 72, 0
2, 2736, Note_on_c, 0, 70, 75
2, 2781, Note_on_c, 0, 70, 0
2, 2784, Note_on_c, 0, 69, 75
2, 2829, Note_on_c, 0, 69, 0
2, 2832, Note_on_c, 0, 67, 75
2, 2877, Note_on_c, 0, 67, 0
2, 2880, Note_on_c, 0, 75, 75
2, 2969, Note_on_c, 0, 75, 0
2, 2976, Note_on_c, 0, 75, 75
2, 3065, Note_on_c, 0, 75, 0
2, 3072, Note_on_c, 0, 75, 75
2, 3085, Note_on_c, 0, 75, 0
2, 3086, Note_on_c, 0, 77, 75
2, 3099, Note_on_c, 0, 77, 0
2, 3100, Note_on_c, 0, 75, 75
2, 3113, Note_on_c, 0, 75, 0
2, 3114, Note_on_c, 0, 77, 75
2, 3127, Note_on_c, 0, 77, 0
2, 3128, Note_on_c, 0, 75, 75
2, 3141, Note_on_c, 0, 75, 0
2, 3142, Note_on_c, 0, 74, 75
2, 3154, Note_on_c, 0, 74, 0
2, 3155, Note_on_c, 0, 75, 75
2, 3167, Note_on_c, 0, 75, 0
2, 3168, Note_on_c, 0, 74, 75
2, 3257, Note_on_c, 0, 74, 0
2, 3312, Note_on_c, 0, 74, 75
2, 3357, Note_on_c, 0, 74, 0
2, 3360, Note_on_c, 0, 77, 75
2, 3405, Note_on_c, 0, 77, 0
2, 3408, Note_on_c, 0, 80, 75
2, 3453, Note_on_c, 0, 80, 0
2, 3456, Note_on_c, 0, 71, 75
2, 3523, Note_on_c, 0, 71, 0
2, 3528, Note_on_c, 0, 72, 75
2, 3540, Note_on_c, 0, 72, 0
2, 3540, Note_on_c, 0, 74, 75
2, 3552, Note_on_c, 0, 74, 0
2, 3552, Note_on_c, 0, 72, 75
2, 3641, Note_on_c, 0, 72, 0
2, 3648, Note_on_c, 0, 79, 75
2, 3693, Note_on_c, 0, 79, 0
2, 3696, Note_on_c, 0, 75, 75
2, 3741, Note_on_c, 0, 75, 0
2, 3744, Note_on_c, 0, 72, 75
2, 3789, Note_on_c, 0, 72, 0
2, 3792, Note_on_c, 0, 70, 75
2, 3837, Note_on_c, 0, 70, 0
2, 3840, Note_on_c, 0, 69, 75
2, 3907, Note_on_c, 0, 69, 0
2, 3912, Note_on_c, 0, 70, 75
2, 3924, Note_on_c, 0, 70, 0
2, 3924, Note_on_c, 0, 72, 75
2, 3936, Note_on_c, 0, 72, 0
2, 3936, Note_on_c, 0, 70, 75
2, 4025, Note_on_c, 0, 70, 0
2, 4032, Note_on_c, 0, 77, 75
2, 4077, Note_on_c, 0, 77, 0
2, 4080, Note_on_c, 0, 74, 75
2, 4125, Note_on_c, 0, 74, 0
2, 4128, Note_on_c, 0, 72, 75
2, 4173, Note_on_c, 0, 72, 0
2, 4176, Note_on_c, 0, 70, 75
2, 4221, Note_on_c, 0, 70, 0
2, 4224, Note_on_c, 0, 69, 75
2, 4269, Note_on_c, 0, 69, 0
2, 4272, Note_on_c, 0, 72, 75
2, 4317, Note_on_c, 0, 72, 0
2, 4320, Note_on_c, 0, 70, 75
2, 4365, Note_on_c, 0, 70, 0
2, 4368, Note_on_c, 0, 65, 75
2, 4413, Note_on_c, 0, 65, 0
2, 4416, Note_on_c, 0, 77, 75
2, 4461, Note_on_c, 0, 77, 0
2, 4464, Note_on_c, 0, 74, 75
2, 4509, Note_on_c, 0, 74, 0
2, 4512, Note_on_c, 0, 72, 75
2, 4557, Note_on_c, 0, 72, 0
2, 4560, Note_on_c, 0, 70, 75
2, 4605, Note_on_c, 0, 70, 0
2, 4608, Note_on_c, 0, 72, 75
2, 4653, Note_on_c, 0, 72, 0
2, 4656, Note_on_c, 0, 75, 75
2, 4701, Note_on_c, 0, 75, 0
2, 4704, Note_on_c, 0, 74, 75
2, 4749, Note_on_c, 0, 74, 0
2, 4752, Note_on_c, 0, 70, 75
2, 4797, Note_on_c, 0, 70, 0
2, 4800, Note_on_c, 0, 65, 75
2, 4845, Note_on_c, 0, 65, 0
2, 4848, Note_on_c, 0, 70, 75
2, 4893, Note_on_c, 0, 70, 0
2, 4896, Note_on_c, 0, 74, 75
2, 4941, Note_on_c, 0, 74, 0
2, 4944, Note_on_c, 0, 77, 75
2, 4989, Note_on_c, 0, 77, 0
2, 4992, Note_on_c, 0, 77, 75
2, 5037, Note_on_c, 0, 77, 0
2, 5040, Note_on_c, 0, 67, 75
2, 5085, Note_on_c, 0, 67, 0
2, 5088, Note_on_c, 0, 66, 75
2, 5133, Note_on_c, 0, 66, 0
2, 5136, Note_on_c, 0, 67, 75
2, 5181, Note_on_c, 0, 67, 0
2, 5184, Note_on_c, 0, 75, 75
2, 5229, Note_on_c, 0, 75, 0
2, 5232, Note_on_c, 0, 72, 75
2, 5277, Note_on_c, 0, 72, 0
2, 5280, Note_on_c, 0, 70, 75
2, 5325, Note_on_c, 0, 70, 0
2, 5328, Note_on_c, 0, 69, 75
2, 5373, Note_on_c, 0, 69, 0
2, 5376, Note_on_c, 0, 70, 75
2, 5421, Note_on_c, 0, 70, 0
2, 5424, Note_on_c, 0, 74, 75
2, 5469, Note_on_c, 0, 74, 0
2, 5472, Note_on_c, 0, 65, 75
2, 5517, Note_on_c, 0, 65, 0
2, 5520, Note_on_c, 0, 77, 75
2, 5565, Note_on_c, 0, 77, 0
2, 5568, Note_on_c, 0, 67, 76
2, 5613, Note_on_c, 0, 67, 0
2, 5616, Note_on_c, 0, 75, 77
2, 5661, Note_on_c, 0, 75, 0
2, 5664, Note_on_c, 0, 72, 77
2, 5709, Note_on_c, 0, 72, 0
2, 5712, Note_on_c, 0, 69, 78
2, 5757, Note_on_c, 0, 69, 0
2, 5760, Note_on_c, 0, 70, 79
2, 5805, Note_on_c, 0, 70, 0
2, 5808, Note_on_c, 0, 74, 80
2, 5853, Note_on_c, 0, 74, 0
2, 5856, Note_on_c, 0, 65, 75
2, 5901, Note_on_c, 0, 65, 0
2, 5904, Note_on_c, 0, 77, 75
2, 5949, Note_on_c, 0, 77, 0
2, 5952, Note_on_c, 0, 67, 75
2, 5997, Note_on_c, 0, 67, 0
2, 6000, Note_on_c, 0, 75, 76
2, 6045, Note_on_c, 0, 75, 0
2, 6048, Note_on_c, 0, 72, 76
2, 6093, Note_on_c, 0, 72, 0
2, 6096, Note_on_c, 0, 69, 76
2, 6141, Note_on_c, 0, 69, 0
2, 6144, Note_on_c, 0, 70, 77
2, 6189, Note_on_c, 0, 70, 0
2, 6192, Note_on_c, 0, 79, 77
2, 6237, Note_on_c, 0, 79, 0
2, 6240, Note_on_c, 0, 75, 77
2, 6285, Note_on_c, 0, 75, 0
2, 6288, Note_on_c, 0, 72, 78
2, 6333, Note_on_c, 0, 72, 0
2, 6336, Note_on_c, 0, 74, 78
2, 6381, Note_on_c, 0, 74, 0
2, 6384, Note_on_c, 0, 82, 78
2, 6429, Note_on_c, 0, 82, 0
2, 6432, Note_on_c, 0, 79, 79
2, 6477, Note_on_c, 0, 79, 0
2, 6480, Note_on_c, 0, 76, 79
2, 6525, Note_on_c, 0, 76, 0
2, 6528, Note_on_c, 0, 77, 80
2, 6573, Note_on_c, 0, 77, 0
2, 6576, Note_on_c, 0, 84, 80
2, 6621, Note_on_c, 0, 84, 0
2, 6624, Note_on_c, 0, 81, 80
2, 6669, Note_on_c, 0, 81, 0
2, 6672, Note_on_c, 0, 77, 80
2, 6717, Note_on_c, 0, 77, 0
2, 6720, Note_on_c, 0, 75, 80
2, 6734, Note_on_c, 0, 75, 0
2, 6735, Note_on_c, 0, 77, 80
2, 6749, Note_on_c, 0, 77, 0
2, 6750, Note_on_c, 0, 75, 80
2, 6764, Note_on_c, 0, 75, 0
2, 6765, Note_on_c, 0, 77, 80
2, 6779, Note_on_c, 0, 77, 0
2, 6780, Note_on_c, 0, 75, 80
2, 6794, Note_on_c, 0, 75, 0
2, 6795, Note_on_c, 0, 77, 80
2, 6809, Note_on_c, 0, 77, 0
2, 6810, Note_on_c, 0, 75, 80
2, 6824, Note_on_c, 0, 75, 0
2, 6825, Note_on_c, 0, 77, 80
2, 6839, Note_on_c, 0, 77, 0
2, 6840, Note_on_c, 0, 75, 80
2, 6854, Note_on_c, 0, 75, 0
2, 6855, Note_on_c, 0, 74, 80
2, 6883, Note_on_c, 0, 74, 0
2, 6884, Note_on_c, 0, 75, 80
2, 6911, Note_on_c, 0, 75, 0
2, 6912, Note_on_c, 0, 74, 80
2, 7001, Note_on_c, 0, 74, 0
2, 7008, Note_on_c, 0, 70, 75
2, 7097, Note_on_c, 0, 70, 0
2, 7104, Note_on_c, 0, 70, 75
2, 7193, Note_on_c, 0, 70, 0
2, 7200, Note_on_c, 0, 70, 75
2, 7289, Note_on_c, 0, 70, 0
2, 7296, Note_on_c, 0, 70, 75
2, 7341, Note_on_c, 0, 70, 0
2, 7344, Note_on_c, 0, 82, 75
2, 7389, Note_on_c, 0, 82, 0
2, 7392, Note_on_c, 0, 79, 75
2, 7437, Note_on_c, 0, 79, 0
2, 7440, Note_on_c, 0, 75, 75
2, 7485, Note_on_c, 0, 75, 0
2, 7488, Note_on_c, 0, 74, 75
2, 7533, Note_on_c, 0, 74, 0
2, 7536, Note_on_c, 0, 70, 75
2, 7581, Note_on_c, 0, 70, 0
2, 7584, Note_on_c, 0, 72, 75
2, 7629, Note_on_c, 0, 72, 0
2, 7632, Note_on_c, 0, 69, 75
2, 7677, Note_on_c, 0, 69, 0
2, 7680, Note_on_c, 0, 72, 75
2, 7692, Note_on_c, 0, 72, 0
2, 7692, Note_on_c, 0, 70, 75
2, 7704, Note_on_c, 0, 70, 0
2, 7704, Note_on_c, 0, 69, 75
2, 7716, Note_on_c, 0, 69, 0
2, 7716, Note_on_c, 0, 70, 75
2, 7857, Note_on_c, 0, 70, 0
2, 7968, Note_on_c, 0, 74, 75
2, 8057, Note_on_c, 0, 74, 0
2, 8064, Note_on_c, 0, 72, 75
2, 8109, Note_on_c, 0, 72, 0
2, 8112, Note_on_c, 0, 70, 75
2, 8157, Note_on_c, 0, 70, 0
2, 8160, Note_on_c, 0, 69, 75
2, 8205, Note_on_c, 0, 69, 0
2, 8208, Note_on_c, 0, 67, 75
2, 8253, Note_on_c, 0, 67, 0
2, 8256, Note_on_c, 0, 67, 75
2, 8295, Note_on_c, 0, 67, 0
2, 8352, Note_on_c, 0, 69, 75
2, 8441, Note_on_c, 0, 69, 0
2, 8448, Note_on_c, 0, 72, 75
2, 8463, Note_on_c, 0, 72, 0
2, 8464, Note_on_c, 0, 70, 75
2, 8479, Note_on_c, 0, 70, 0
2, 8480, Note_on_c, 0, 72, 75
2, 8495, Note_on_c, 0, 72, 0
2, 8496, Note_on_c, 0, 70, 75
2, 8511, Note_on_c, 0, 70, 0
2, 8512, Note_on_c, 0, 69, 75
2, 8527, Note_on_c, 0, 69, 0
2, 8528, Note_on_c, 0, 70, 75
2, 8543, Note_on_c, 0, 70, 0
2, 8544, Note_on_c, 0, 69, 75
2, 8633, Note_on_c, 0, 69, 0
2, 8736, Note_on_c, 0, 74, 75
2, 8825, Note_on_c, 0, 74, 0
2, 8832, Note_on_c, 0, 75, 75
2, 8880, Note_on_c, 0, 75, 0
2, 8880, Note_on_c, 0, 72, 75
2, 8925, Note_on_c, 0, 72, 0
2, 8928, Note_on_c, 0, 70, 75
2, 8973, Note_on_c, 0, 70, 0
2, 8976, Note_on_c, 0, 69, 75
2, 9021, Note_on_c, 0, 69, 0
2, 9024, Note_on_c, 0, 74, 75
2, 9113, Note_on_c, 0, 74, 0
2, 9120, Note_on_c, 0, 66, 75
2, 9209, Note_on_c, 0, 66, 0
2, 9216, Note_on_c, 0, 69, 75
2, 9231, Note_on_c, 0, 69, 0
2, 9232, Note_on_c, 0, 67, 75
2, 9247, Note_on_c, 0, 67, 0
2, 9248, Note_on_c, 0, 69, 75
2, 9263, Note_on_c, 0, 69, 0
2, 9264, Note_on_c, 0, 67, 75
2, 9279, Note_on_c, 0, 67, 0
2, 9280, Note_on_c, 0, 66, 75
2, 9295, Note_on_c, 0, 66, 0
2, 9296, Note_on_c, 0, 67, 75
2, 9311, Note_on_c, 0, 67, 0
2, 9312, Note_on_c, 0, 69, 75
2, 9401, Note_on_c, 0, 69, 0
2, 9408, Note_on_c, 0, 72, 75
2, 9423, Note_on_c, 0, 72, 0
2, 9424, Note_on_c, 0, 70, 75
2, 9439, Note_on_c, 0, 70, 0
2, 9440, Note_on_c, 0, 72, 75
2, 9455, Note_on_c, 0, 72, 0
2, 9456, Note_on_c, 0, 70, 75
2, 9471, Note_on_c, 0, 70, 0
2, 9472, Note_on_c, 0, 69, 75
2, 9487, Note_on_c, 0, 69, 0
2, 9488, Note_on_c, 0, 70, 75
2, 9503, Note_on_c, 0, 70, 0
2, 9504, Note_on_c, 0, 72, 75
2, 9593, Note_on_c, 0, 72, 0
2, 9600, Note_on_c, 0, 74, 75
2, 9648, Note_on_c, 0, 74, 0
2, 9648, Note_on_c, 0, 70, 75
2, 9693, Note_on_c, 0, 70, 0
2, 9696, Note_on_c, 0, 69, 75
2, 9741, Note_on_c, 0, 69, 0
2, 9744, Note_on_c, 0, 67, 75
2, 9789, Note_on_c, 0, 67, 0
2, 9792, Note_on_c, 0, 72, 75
2, 9840, Note_on_c, 0, 72, 0
2, 9840, Note_on_c, 0, 69, 75
2, 9885, Note_on_c, 0, 69, 0
2, 9888, Note_on_c, 0, 67, 75
2, 9933, Note_on_c, 0, 67, 0
2, 9936, Note_on_c, 0, 66, 75
2, 9981, Note_on_c, 0, 66, 0
2, 9984, Note_on_c, 0, 69, 75
2, 9996, Note_on_c, 0, 69, 0
2, 9996, Note_on_c, 0, 67, 75
2, 10008, Note_on_c, 0, 67, 0
2, 10008, Note_on_c, 0, 66, 75
2, 10020, Note_on_c, 0, 66, 0
2, 10020, Note_on_c, 0, 67, 75
2, 10073, Note_on_c, 0, 67, 0
2, 10080, Note_on_c, 0, 62, 75
2, 10169, Note_on_c, 0, 62, 0
2, 10272, Note_on_c, 0, 74, 75
2, 10361, Note_on_c, 0, 74, 0
2, 10368, Note_on_c, 0, 72, 75
2, 10416, Note_on_c, 0, 72, 0
2, 10416, Note_on_c, 0, 70, 75
2, 10461, Note_on_c, 0, 70, 0
2, 10464, Note_on_c, 0, 69, 75
2, 10509, Note_on_c, 0, 69, 0
2, 10512, Note_on_c, 0, 67, 75
2, 10557, Note_on_c, 0, 67, 0
2, 10560, Note_on_c, 0, 75, 75
2, 10649, Note_on_c, 0, 75, 0
2, 10656, Note_on_c, 0, 75, 75
2, 10745, Note_on_c, 0, 75, 0
2, 10752, Note_on_c, 0, 75, 75
2, 10765, Note_on_c, 0, 75, 0
2, 10766, Note_on_c, 0, 77, 75
2, 10779, Note_on_c, 0, 77, 0
2, 10780, Note_on_c, 0, 75, 75
2, 10793, Note_on_c, 0, 75, 0
2, 10794, Note_on_c, 0, 77, 75
2, 10807, Note_on_c, 0, 77, 0
2, 10808, Note_on_c, 0, 75, 75
2, 10821, Note_on_c, 0, 75, 0
2, 10822, Note_on_c, 0, 74, 75
2, 10834, Note_on_c, 0, 74, 0
2, 10835, Note_on_c, 0, 75, 75
2, 10847, Note_on_c, 0, 75, 0
2, 10848, Note_on_c, 0, 74, 75
2, 10937, Note_on_c, 0, 74, 0
2, 10992, Note_on_c, 0, 74, 75
2, 11037, Note_on_c, 0, 74, 0
2, 11040, Note_on_c, 0, 77, 75
2, 11085, Note_on_c, 0, 77, 0
2, 11088, Note_on_c, 0, 80, 75
2, 11133, Note_on_c, 0, 80, 0
2, 11136, Note_on_c, 0, 71, 75
2, 11203, Note_on_c, 0, 71, 0
2, 11208, Note_on_c, 0, 72, 75
2, 11220, Note_on_c, 0, 72, 0
2, 11220, Note_on_c, 0, 74, 75
2, 11232, Note_on_c, 0, 74, 0
2, 11232, Note_on_c, 0, 72, 75
2, 11321, Note_on_c, 0, 72, 0
2, 11328, Note_on_c, 0, 79, 75
2, 11373, Note_on_c, 0, 79, 0
2, 11376, Note_on_c, 0, 75, 75
2, 11421, Note_on_c, 0, 75, 0
2, 11424, Note_on_c, 0, 72, 75
2, 11469, Note_on_c, 0, 72, 0
2, 11472, Note_on_c, 0, 70, 75
2, 11517, Note_on_c, 0, 70, 0
2, 11520, Note_on_c, 0, 69, 75
2, 11587, Note_on_c, 0, 69, 0
2, 11592, Note_on_c, 0, 70, 75
2, 11604, Note_on_c, 0, 70, 0
2, 11604, Note_on_c, 0, 72, 75
2, 11616, Note_on_c, 0, 72, 0
2, 11616, Note_on_c, 0, 70, 75
2, 11705, Note_on_c, 0, 70, 0
2, 11712, Note_on_c, 0, 77, 75
2, 11757, Note_on_c, 0, 77, 0
2, 11760, Note_on_c, 0, 74, 75
2, 11805, Note_on_c, 0, 74, 0
2, 11808, Note_on_c, 0, 72, 75
2, 11853, Note_on_c, 0, 72, 0
2, 11856, Note_on_c, 0, 70, 75
2, 11901, Note_on_c, 0, 70, 0
2, 11904, Note_on_c, 0, 69, 75
2, 11949, Note_on_c, 0, 69, 0
2, 11952, Note_on_c, 0, 72, 75
2, 11997, Note_on_c, 0, 72, 0
2, 12000, Note_on_c, 0, 70, 75
2, 12045, Note_on_c, 0, 70, 0
2, 12048, Note_on_c, 0, 65, 75
2, 12093, Note_on_c, 0, 65, 0
2, 12096, Note_on_c, 0, 77, 75
2, 12141, Note_on_c, 0, 77, 0
2, 12144, Note_on_c, 0, 74, 75
2, 12189, Note_on_c, 0, 74, 0
2, 12192, Note_on_c, 0, 72, 75
2, 12237, Note_on_c, 0, 72, 0
2, 12240, Note_on_c, 0, 70, 75
2, 12285, Note_on_c, 0, 70, 0
2, 12288, Note_on_c, 0, 72, 75
2, 12333, Note_on_c, 0, 72, 0
2, 12336, Note_on_c, 0, 75, 75
2, 12381, Note_on_c, 0, 75, 0
2, 12384, Note_on_c, 0, 74, 75
2, 12429, Note_on_c, 0, 74, 0
2, 12432, Note_on_c, 0, 70, 75
2, 12477, Note_on_c, 0, 70, 0
2, 12480, Note_on_c, 0, 65, 75
2, 12525, Note_on_c, 0, 65, 0
2, 12528, Note_on_c, 0, 70, 75
2, 12573, Note_on_c, 0, 70, 0
2, 12576, Note_on_c, 0, 74, 75
2, 12621, Note_on_c, 0, 74, 0
2, 12624, Note_on_c, 0, 77, 75
2, 12669, Note_on_c, 0, 77, 0
2, 12672, Note_on_c, 0, 77, 75
2, 12717, Note_on_c, 0, 77, 0
2, 12720, Note_on_c, 0, 67, 75
2, 12765, Note_on_c, 0, 67, 0
2, 12768, Note_on_c, 0, 66, 75
2, 12813, Note_on_c, 0, 66, 0
2, 12816, Note_on_c, 0, 67, 75
2, 12861, Note_on_c, 0, 67, 0
2, 12864, Note_on_c, 0, 75, 75
2, 12909, Note_on_c, 0, 75, 0
2, 12912, Note_on_c, 0, 72, 75
2, 12957, Note_on_c, 0, 72, 0
2, 12960, Note_on_c, 0, 70, 75
2, 13005, Note_on_c, 0, 70, 0
2, 13008, Note_on_c, 0, 69, 75
2, 13053, Note_on_c, 0, 69, 0
2, 13056, Note_on_c, 0, 70, 75
2, 13101, Note_on_c, 0, 70, 0
2, 13104, Note_on_c, 0, 74, 75
2, 13149, Note_on_c, 0, 74, 0
2, 13152, Note_on_c, 0, 65, 75
2, 13197, Note_on_c, 0, 65, 0
2, 13200, Note_on_c, 0, 77, 75
2, 13245, Note_on_c, 0, 77, 0
2, 13248, Note_on_c, 0, 67, 76
2, 13293, Note_on_c, 0, 67, 0
2, 13296, Note_on_c, 0, 75, 77
2, 13341, Note_on_c, 0, 75, 0
2, 13344, Note_on_c, 0, 72, 77
2, 13389, Note_on_c, 0, 72, 0
2, 13392, Note_on_c, 0, 69, 78
2, 13437, Note_on_c, 0, 69, 0
2, 13440, Note_on_c, 0, 70, 79
2, 13485, Note_on_c, 0, 70, 0
2, 13488, Note_on_c, 0, 74, 80
2, 13533, Note_on_c, 0, 74, 0
2, 13536, Note_on_c, 0, 65, 75
2, 13581, Note_on_c, 0, 65, 0
2, 13584, Note_on_c, 0, 77, 75
2, 13629, Note_on_c, 0, 77, 0
2, 13632, Note_on_c, 0, 67, 75
2, 13677, Note_on_c, 0, 67, 0
2, 13680, Note_on_c, 0, 75, 76
2, 13725, Note_on_c, 0, 75, 0
2, 13728, Note_on_c, 0, 72, 76
2, 13773, Note_on_c, 0, 72, 0
2, 13776, Note_on_c, 0, 69, 76
2, 13821, Note_on_c, 0, 69, 0
2, 13824, Note_on_c, 0, 70, 77
2, 13869, Note_on_c, 0, 70, 0
2, 13872, Note_on_c, 0, 79, 77
2, 13917, Note_on_c, 0, 79, 0
2, 13920, Note_on_c, 0, 75, 77
2, 13965, Note_on_c, 0, 75, 0
2, 13968, Note_on_c, 0, 72, 78
2, 14013, Note_on_c, 0, 72, 0
2, 14016, Note_on_c, 0, 74, 78
2, 14061, Note_on_c, 0, 74, 0
2, 14064, Note_on_c, 0, 82, 78
2, 14109, Note_on_c, 0, 82, 0
2, 14112, Note_on_c, 0, 79, 79
2, 14157, Note_on_c, 0, 79, 0
2, 14160, Note_on_c, 0, 76, 79
2, 14205, Note_on_c, 0, 76, 0
2, 14208, Note_on_c, 0, 77, 80
2, 14253, Note_on_c, 0, 77, 0
2, 14256, Note_on_c, 0, 84, 80
2, 14301, Note_on_c, 0, 84, 0
2, 14304, Note_on_c, 0, 81, 80
2, 14349, Note_on_c, 0, 81, 0
2, 14352, Note_on_c, 0, 77, 80
2, 14397, Note_on_c, 0, 77, 0
2, 14400, Note_on_c, 0, 75, 80
2, 14414, Note_on_c, 0, 75, 0
2, 14415, Note_on_c, 0, 77, 80
2, 14429, Note_on_c, 0, 77, 0
2, 14430, Note_on_c, 0, 75, 80
2, 14444, Note_on_c, 0, 75, 0
2, 14445, Note_on_c, 0, 77, 80
2, 14459, Note_on_c, 0, 77, 0
2, 14460, Note_on_c, 0, 75, 80
2, 14474, Note_on_c, 0, 75, 0
2, 14475, Note_on_c, 0, 77, 80
2, 14489, Note_on_c, 0, 77, 0
2, 14490, Note_on_c, 0, 75, 80
2, 14504, Note_on_c, 0, 75, 0
2, 14505, Note_on_c, 0, 77, 80
2, 14519, Note_on_c, 0, 77, 0
2, 14520, Note_on_c, 0, 75, 80
2, 14534, Note_on_c, 0, 75, 0
2, 14535, Note_on_c, 0, 74, 80
2, 14563, Note_on_c, 0, 74, 0
2, 14564, Note_on_c, 0, 75, 80
2, 14591, Note_on_c, 0, 75, 0
2, 14592, Note_on_c, 0, 74, 80
2, 14681, Note_on_c, 0, 74, 0
2, 14688, Note_on_c, 0, 70, 75
2, 14777, Note_on_c, 0, 70, 0
2, 14784, Note_on_c, 0, 70, 75
2, 14873, Note_on_c, 0, 70, 0
2, 14880, Note_on_c, 0, 70, 75
2, 14969, Note_on_c, 0, 70, 0
2, 14976, Note_on_c, 0, 70, 75
2, 15021, Note_on_c, 0, 70, 0
2, 15024, Note_on_c, 0, 82, 75
2, 15069, Note_on_c, 0, 82, 0
2, 15072, Note_on_c, 0, 79, 75
2, 15117, Note_on_c, 0, 79, 0
2, 15120, Note_on_c, 0, 75, 75
2, 15165, Note_on_c, 0, 75, 0
2, 15168, Note_on_c, 0, 74, 75
2, 15213, Note_on_c, 0, 74, 0
2, 15216, Note_on_c, 0, 70, 75
2, 15261, Note_on_c, 0, 70, 0
2, 15264, Note_on_c, 0, 72, 75
2, 15309, Note_on_c, 0, 72, 0
2, 15312, Note_on_c, 0, 69, 75
2, 15357, Note_on_c, 0, 69, 0
2, 15360, Note_on_c, 0, 72, 75
2, 15372, Note_on_c, 0, 72, 0
2, 15372, Note_on_c, 0, 70, 75
2, 15384, Note_on_c, 0, 70, 0
2, 15384, Note_on_c, 0, 69, 75
2, 15396, Note_on_c, 0, 69, 0
2, 15396, Note_on_c, 0, 70, 75
2, 15537, Note_on_c, 0, 70, 0
2, 15648, Note_on_c, 0, 77, 75
2, 15737, Note_on_c, 0, 77, 0
2, 15744, Note_on_c, 0, 75, 75
2, 15792, Note_on_c, 0, 75, 0
2, 15792, Note_on_c, 0, 74, 75
2, 15837, Note_on_c, 0, 74, 0
2, 15840, Note_on_c, 0, 72, 75
2, 15885, Note_on_c, 0, 72, 0
2, 15888, Note_on_c, 0, 70, 75
2, 15933, Note_on_c, 0, 70, 0
2, 15936, Note_on_c, 0, 70, 75
2, 15975, Note_on_c, 0, 70, 0
2, 16032, Note_on_c, 0, 72, 75
2, 16121, Note_on_c, 0, 72, 0
2, 16128, Note_on_c, 0, 75, 75
2, 16143, Note_on_c, 0, 75, 0
2, 16144, Note_on_c, 0, 74, 75
2, 16159, Note_on_c, 0, 74, 0
2, 16160, Note_on_c, 0, 75, 75
2, 16175, Note_on_c, 0, 75, 0
2, 16176, Note_on_c, 0, 74, 75
2, 16191, Note_on_c, 0, 74, 0
2, 16192, Note_on_c, 0, 72, 75
2, 16207, Note_on_c, 0, 72, 0
2, 16208, Note_on_c, 0, 74, 75
2, 16223, Note_on_c, 0, 74, 0
2, 16224, Note_on_c, 0, 72, 75
2, 16313, Note_on_c, 0, 72, 0
2, 16416, Note_on_c, 0, 79, 75
2, 16505, Note_on_c, 0, 79, 0
2, 16512, Note_on_c, 0, 77, 75
2, 16560, Note_on_c, 0, 77, 0
2, 16560, Note_on_c, 0, 75, 75
2, 16605, Note_on_c, 0, 75, 0
2, 16608, Note_on_c, 0, 74, 75
2, 16653, Note_on_c, 0, 74, 0
2, 16656, Note_on_c, 0, 72, 75
2, 16701, Note_on_c, 0, 72, 0
2, 16704, Note_on_c, 0, 72, 75
2, 16743, Note_on_c, 0, 72, 0
2, 16800, Note_on_c, 0, 74, 75
2, 16889, Note_on_c, 0, 74, 0
2, 16896, Note_on_c, 0, 77, 75
2, 16911, Note_on_c, 0, 77, 0
2, 16912, Note_on_c, 0, 75, 75
2, 16927, Note_on_c, 0, 75, 0
2, 16928, Note_on_c, 0, 77, 75
2, 16943, Note_on_c, 0, 77, 0
2, 16944, Note_on_c, 0, 75, 75
2, 16959, Note_on_c, 0, 75, 0
2, 16960, Note_on_c, 0, 74, 75
2, 16975, Note_on_c, 0, 74, 0
2, 16976, Note_on_c, 0, 75, 75
2, 16991, Note_on_c, 0, 75, 0
2, 16992, Note_on_c, 0, 74, 75
2, 17081, Note_on_c, 0, 74, 0
2, 17088, Note_on_c, 0, 80, 75
2, 17136, Note_on_c, 0, 80, 0
2, 17136, Note_on_c, 0, 77, 75
2, 17181, Note_on_c, 0, 77, 0
2, 17184, Note_on_c, 0, 75, 75
2, 17229, Note_on_c, 0, 75, 0
2, 17232, Note_on_c, 0, 74, 75
2, 17277, Note_on_c, 0, 74, 0
2, 17280, Note_on_c, 0, 79, 75
2, 17325, Note_on_c, 0, 79, 0
2, 17328, Note_on_c, 0, 75, 75
2, 17373, Note_on_c, 0, 75, 0
2, 17376, Note_on_c, 0, 74, 76
2, 17421, Note_on_c, 0, 74, 0
2, 17424, Note_on_c, 0, 72, 76
2, 17469, Note_on_c, 0, 72, 0
2, 17472, Note_on_c, 0, 77, 77
2, 17517, Note_on_c, 0, 77, 0
2, 17520, Note_on_c, 0, 74, 78
2, 17565, Note_on_c, 0, 74, 0
2, 17568, Note_on_c, 0, 72, 78
2, 17613, Note_on_c, 0, 72, 0
2, 17616, Note_on_c, 0, 71, 79
2, 17661, Note_on_c, 0, 71, 0
2, 17664, Note_on_c, 0, 74, 79
2, 17679, Note_on_c, 0, 74, 0
2, 17680, Note_on_c, 0, 72, 80
2, 17695, Note_on_c, 0, 72, 0
2, 17696, Note_on_c, 0, 74, 80
2, 17711, Note_on_c, 0, 74, 0
2, 17712, Note_on_c, 0, 72, 80
2, 17727, Note_on_c, 0, 72, 0
2, 17728, Note_on_c, 0, 71, 80
2, 17743, Note_on_c, 0, 71, 0
2, 17744, Note_on_c, 0, 72, 80
2, 17759, Note_on_c, 0, 72, 0
2, 17760, Note_on_c, 0, 74, 80
2, 17849, Note_on_c, 0, 74, 0
2, 17856, Note_on_c, 0, 77, 80
2, 17871, Note_on_c, 0, 77, 0
2, 17872, Note_on_c, 0, 75, 80
2, 17887, Note_on_c, 0, 75, 0
2, 17888, Note_on_c, 0, 77, 80
2, 17903, Note_on_c, 0, 77, 0
2, 17904, Note_on_c, 0, 75, 80
2, 17919, Note_on_c, 0, 75, 0
2, 17920, Note_on_c, 0, 74, 80
2, 17935, Note_on_c, 0, 74, 0
2, 17936, Note_on_c, 0, 75, 80
2, 17951, Note_on_c, 0, 75, 0
2, 17952, Note_on_c, 0, 77, 80
2, 18041, Note_on_c, 0, 77, 0
2, 18048, Note_on_c, 0, 79, 80
2, 18096, Note_on_c, 0, 79, 0
2, 18096, Note_on_c, 0, 75, 80
2, 18141, Note_on_c, 0, 75, 0
2, 18144, Note_on_c, 0, 74, 75
2, 18189, Note_on_c, 0, 74, 0
2, 18192, Note_on_c, 0, 72, 75
2, 18237, Note_on_c, 0, 72, 0
2, 18240, Note_on_c, 0, 77, 76
2, 18288, Note_on_c, 0, 77, 0
2, 18288, Note_on_c, 0, 74, 76
2, 18333, Note_on_c, 0, 74, 0
2, 18336, Note_on_c, 0, 72, 77
2, 18381, Note_on_c, 0, 72, 0
2, 18384, Note_on_c, 0, 71, 78
2, 18429, Note_on_c, 0, 71, 0
2, 18432, Note_on_c, 0, 74, 78
2, 18444, Note_on_c, 0, 74, 0
2, 18444, Note_on_c, 0, 72, 78
2, 18456, Note_on_c, 0, 72, 0
2, 18456, Note_on_c, 0, 71, 78
2, 18468, Note_on_c, 0, 71, 0
2, 18468, Note_on_c, 0, 72, 78
2, 18521, Note_on_c, 0, 72, 0
2, 18528, Note_on_c, 0, 67, 80
2, 18617, Note_on_c, 0, 67, 0
2, 18720, Note_on_c, 0, 84, 75
2, 18809, Note_on_c, 0, 84, 0
2, 18816, Note_on_c, 0, 80, 75
2, 18861, Note_on_c, 0, 80, 0
2, 18864, Note_on_c, 0, 84, 75
2, 18909, Note_on_c, 0, 84, 0
2, 18912, Note_on_c, 0, 82, 75
2, 18957, Note_on_c, 0, 82, 0
2, 18960, Note_on_c, 0, 79, 75
2, 19005, Note_on_c, 0, 79, 0
2, 19008, Note_on_c, 0, 77, 75
2, 19053, Note_on_c, 0, 77, 0
2, 19056, Note_on_c, 0, 80, 75
2, 19101, Note_on_c, 0, 80, 0
2, 19104, Note_on_c, 0, 79, 75
2, 19149, Note_on_c, 0, 79, 0
2, 19152, Note_on_c, 0, 75, 75
2, 19197, Note_on_c, 0, 75, 0
2, 19200, Note_on_c, 0, 74, 75
2, 19245, Note_on_c, 0, 74, 0
2, 19248, Note_on_c, 0, 77, 75
2, 19293, Note_on_c, 0, 77, 0
2, 19296, Note_on_c, 0, 70, 75
2, 19385, Note_on_c, 0, 70, 0
2, 19488, Note_on_c, 0, 82, 75
2, 19577, Note_on_c, 0, 82, 0
2, 19584, Note_on_c, 0, 79, 75
2, 19629, Note_on_c, 0, 79, 0
2, 19632, Note_on_c, 0, 82, 75
2, 19677, Note_on_c, 0, 82, 0
2, 19680, Note_on_c, 0, 80, 75
2, 19725, Note_on_c, 0, 80, 0
2, 19728, Note_on_c, 0, 77, 75
2, 19773, Note_on_c, 0, 77, 0
2, 19776, Note_on_c, 0, 75, 75
2, 19821, Note_on_c, 0, 75, 0
2, 19824, Note_on_c, 0, 79, 75
2, 19869, Note_on_c, 0, 79, 0
2, 19872, Note_on_c, 0, 77, 75
2, 19917, Note_on_c, 0, 77, 0
2, 19920, Note_on_c, 0, 74, 75
2, 19965, Note_on_c, 0, 74, 0
2, 19968, Note_on_c, 0, 72, 75
2, 20013, Note_on_c, 0, 72, 0
2, 20016, Note_on_c, 0, 75, 75
2, 20061, Note_on_c, 0, 75, 0
2, 20064, Note_on_c, 0, 68, 75
2, 20153, Note_on_c, 0, 68, 0
2, 20256, Note_on_c, 0, 80, 75
2, 20345, Note_on_c, 0, 80, 0
2, 20352, Note_on_c, 0, 77, 75
2, 20397, Note_on_c, 0, 77, 0
2, 20400, Note_on_c, 0, 80, 75
2, 20445, Note_on_c, 0, 80, 0
2, 20448, Note_on_c, 0, 79, 75
2, 20493, Note_on_c, 0, 79, 0
2, 20496, Note_on_c, 0, 75, 75
2, 20541, Note_on_c, 0, 75, 0
2, 20544, Note_on_c, 0, 74, 75
2, 20589, Note_on_c, 0, 74, 0
2, 20592, Note_on_c, 0, 77, 75
2, 20637, Note_on_c, 0, 77, 0
2, 20640, Note_on_c, 0, 75, 75
2, 20685, Note_on_c, 0, 75, 0
2, 20688, Note_on_c, 0, 72, 75
2, 20733, Note_on_c, 0, 72, 0
2, 20736, Note_on_c, 0, 71, 75
2, 20781, Note_on_c, 0, 71, 0
2, 20784, Note_on_c, 0, 74, 75
2, 20829, Note_on_c, 0, 74, 0
2, 20832, Note_on_c, 0, 67, 75
2, 20921, Note_on_c, 0, 67, 0
2, 21024, Note_on_c, 0, 79, 80
2, 21113, Note_on_c, 0, 79, 0
2, 21120, Note_on_c, 0, 75, 80
2, 21165, Note_on_c, 0, 75, 0
2, 21168, Note_on_c, 0, 72, 80
2, 21213, Note_on_c, 0, 72, 0
2, 21216, Note_on_c, 0, 79, 80
2, 21261, Note_on_c, 0, 79, 0
2, 21264, Note_on_c, 0, 75, 80
2, 21309, Note_on_c, 0, 75, 0
2, 21312, Note_on_c, 0, 74, 80
2, 21357, Note_on_c, 0, 74, 0
2, 21360, Note_on_c, 0, 79, 80
2, 21405, Note_on_c, 0, 79, 0
2, 21408, Note_on_c, 0, 67, 80
2, 21453, Note_on_c, 0, 67, 0
2, 21456, Note_on_c, 0, 77, 80
2, 21501, Note_on_c, 0, 77, 0
2, 21504, Note_on_c, 0, 75, 64
2, 21549, Note_on_c, 0, 75, 0
2, 21552, Note_on_c, 0, 72, 64
2, 21597, Note_on_c, 0, 72, 0
2, 21600, Note_on_c, 0, 79, 64
2, 21645, Note_on_c, 0, 79, 0
2, 21648, Note_on_c, 0, 75, 64
2, 21693, Note_on_c, 0, 75, 0
2, 21696, Note_on_c, 0, 74, 64
2, 21741, Note_on_c, 0, 74, 0
2, 21744, Note_on_c, 0, 79, 64
2, 21789, Note_on_c, 0, 79, 0
2, 21792, Note_on_c, 0, 67, 64
2, 21837, Note_on_c, 0, 67, 0
2, 21840, Note_on_c, 0, 77, 64
2, 21885, Note_on_c, 0, 77, 0
2, 21888, Note_on_c, 0, 75, 80
2, 21933, Note_on_c, 0, 75, 0
2, 21936, Note_on_c, 0, 72, 80
2, 21981, Note_on_c, 0, 72, 0
2, 21984, Note_on_c, 0, 79, 80
2, 22029, Note_on_c, 0, 79, 0
2, 22032, Note_on_c, 0, 75, 80
2, 22077, Note_on_c, 0, 75, 0
2, 22080, Note_on_c, 0, 74, 80
2, 22125, Note_on_c, 0, 74, 0
2, 22128, Note_on_c, 0, 70, 80
2, 22173, Note_on_c, 0, 70, 0
2, 22176, Note_on_c, 0, 79, 80
2, 22221, Note_on_c, 0, 79, 0
2, 22224, Note_on_c, 0, 74, 80
2, 22269, Note_on_c, 0, 74, 0
2, 22272, Note_on_c, 0, 72, 80
2, 22317, Note_on_c, 0, 72, 0
2, 22320, Note_on_c, 0, 75, 80
2, 22365, Note_on_c, 0, 75, 0
2, 22368, Note_on_c, 0, 69, 80
2, 22413, Note_on_c, 0, 69, 0
2, 22416, Note_on_c, 0, 72, 80
2, 22461, Note_on_c, 0, 72, 0
2, 22464, Note_on_c, 0, 70, 80
2, 22509, Note_on_c, 0, 70, 0
2, 22512, Note_on_c, 0, 74, 80
2, 22557, Note_on_c, 0, 74, 0
2, 22560, Note_on_c, 0, 70, 80
2, 22605, Note_on_c, 0, 70, 0
2, 22608, Note_on_c, 0, 67, 80
2, 22653, Note_on_c, 0, 67, 0
2, 22656, Note_on_c, 0, 66, 80
2, 22701, Note_on_c, 0, 66, 0
2, 22704, Note_on_c, 0, 74, 80
2, 22749, Note_on_c, 0, 74, 0
2, 22752, Note_on_c, 0, 62, 80
2, 22797, Note_on_c, 0, 62, 0
2, 22800, Note_on_c, 0, 74, 80
2, 22845, Note_on_c, 0, 74, 0
2, 22848, Note_on_c, 0, 72, 80
2, 22893, Note_on_c, 0, 72, 0
2, 22896, Note_on_c, 0, 69, 80
2, 22941, Note_on_c, 0, 69, 0
2, 22944, Note_on_c, 0, 70, 80
2, 22989, Note_on_c, 0, 70, 0
2, 22992, Note_on_c, 0, 67, 80
2, 23037, Note_on_c, 0, 67, 0
2, 23040, Note_on_c, 0, 66, 80
2, 23085, Note_on_c, 0, 66, 0
2, 23088, Note_on_c, 0, 74, 80
2, 23133, Note_on_c, 0, 74, 0
2, 23136, Note_on_c, 0, 62, 80
2, 23181, Note_on_c, 0, 62, 0
2, 23184, Note_on_c, 0, 74, 80
2, 23229, Note_on_c, 0, 74, 0
2, 23232, Note_on_c, 0, 72, 80
2, 23277, Note_on_c, 0, 72, 0
2, 23280, Note_on_c, 0, 69, 80
2, 23325, Note_on_c, 0, 69, 0
2, 23328, Note_on_c, 0, 70, 80
2, 23373, Note_on_c, 0, 70, 0
2, 23376, Note_on_c, 0, 67, 80
2, 23421, Note_on_c, 0, 67, 0
2, 23424, Note_on_c, 0, 66, 80
2, 23469, Note_on_c, 0, 66, 0
2, 23472, Note_on_c, 0, 74, 80
2, 23517, Note_on_c, 0, 74, 0
2, 23520, Note_on_c, 0, 62, 80
2, 23609, Note_on_c, 0, 62, 0
2, 23712, Note_on_c, 0, 74, 75
2, 23801, Note_on_c, 0, 74, 0
2, 23808, Note_on_c, 0, 72, 75
2, 23856, Note_on_c, 0, 72, 0
2, 23856, Note_on_c, 0, 70, 75
2, 23901, Note_on_c, 0, 70, 0
2, 23904, Note_on_c, 0, 69, 75
2, 23949, Note_on_c, 0, 69, 0
2, 23952, Note_on_c, 0, 67, 75
2, 23997, Note_on_c, 0, 67, 0
2, 24000, Note_on_c, 0, 67, 75
2, 24039, Note_on_c, 0, 67, 0
2, 24096, Note_on_c, 0, 69, 75
2, 24185, Note_on_c, 0, 69, 0
2, 24192, Note_on_c, 0, 72, 75
2, 24207, Note_on_c, 0, 72, 0
2, 24208, Note_on_c, 0, 70, 75
2, 24223, Note_on_c, 0, 70, 0
2, 24224, Note_on_c, 0, 72, 75
2, 24239, Note_on_c, 0, 72, 0
2, 24240, Note_on_c, 0, 70, 75
2, 24255, Note_on_c, 0, 70, 0
2, 24256, Note_on_c, 0, 69, 75
2, 24271, Note_on_c, 0, 69, 0
2, 24272, Note_on_c, 0, 70, 75
2, 24287, Note_on_c, 0, 70, 0
2, 24288, Note_on_c, 0, 69, 75
2, 24377, Note_on_c, 0, 69, 0
2, 24480, Note_on_c, 0, 74, 75
2, 24569, Note_on_c, 0, 74, 0
2, 24576, Note_on_c, 0, 75, 75
2, 24624, Note_on_c, 0, 75, 0
2, 24624, Note_on_c, 0, 72, 75
2, 24669, Note_on_c, 0, 72, 0
2, 24672, Note_on_c, 0, 70, 75
2, 24717, Note_on_c, 0, 70, 0
2, 24720, Note_on_c, 0, 69, 75
2, 24765, Note_on_c, 0, 69, 0
2, 24768, Note_on_c, 0, 74, 75
2, 24857, Note_on_c, 0, 74, 0
2, 24864, Note_on_c, 0, 66, 75
2, 24953, Note_on_c, 0, 66, 0
2, 24960, Note_on_c, 0, 69, 75
2, 24975, Note_on_c, 0, 69, 0
2, 24976, Note_on_c, 0, 67, 75
2, 24991, Note_on_c, 0, 67, 0
2, 24992, Note_on_c, 0, 69, 75
2, 25007, Note_on_c, 0, 69, 0
2, 25008, Note_on_c, 0, 67, 75
2, 25023, Note_on_c, 0, 67, 0
2, 25024, Note_on_c, 0, 66, 75
2, 25039, Note_on_c, 0, 66, 0
2, 25040, Note_on_c, 0, 67, 75
2, 25055, Note_on_c, 0, 67, 0
2, 25056, Note_on_c, 0, 69, 75
2, 25145, Note_on_c, 0, 69, 0
2, 25152, Note_on_c, 0, 72, 75
2, 25167, Note_on_c, 0, 72, 0
2, 25168, Note_on_c, 0, 70, 75
2, 25183, Note_on_c, 0, 70, 0
2, 25184, Note_on_c, 0, 72, 75
2, 25199, Note_on_c, 0, 72, 0
2, 25200, Note_on_c, 0, 70, 75
2, 25215, Note_on_c, 0, 70, 0
2, 25216, Note_on_c, 0, 69, 75
2, 25231, Note_on_c, 0, 69, 0
2, 25232, Note_on_c, 0, 70, 75
2, 25247, Note_on_c, 0, 70, 0
2, 25248, Note_on_c, 0, 72, 75
2, 25337, Note_on_c, 0, 72, 0
2, 25344, Note_on_c, 0, 74, 75
2, 25392, Note_on_c, 0, 74, 0
2, 25392, Note_on_c, 0, 70, 75
2, 25437, Note_on_c, 0, 70, 0
2, 25440, Note_on_c, 0, 69, 75
2, 25485, Note_on_c, 0, 69, 0
2, 25488, Note_on_c, 0, 67, 75
2, 25533, Note_on_c, 0, 67, 0
2, 25536, Note_on_c, 0, 72, 75
2, 25584, Note_on_c, 0, 72, 0
2, 25584, Note_on_c, 0, 69, 75
2, 25629, Note_on_c, 0, 69, 0
2, 25632, Note_on_c, 0, 67, 75
2, 25677, Note_on_c, 0, 67, 0
2, 25680, Note_on_c, 0, 66, 75
2, 25725, Note_on_c, 0, 66, 0
2, 25728, Note_on_c, 0, 69, 75
2, 25740, Note_on_c, 0, 69, 0
2, 25740, Note_on_c, 0, 67, 75
2, 25752, Note_on_c, 0, 67, 0
2, 25752, Note_on_c, 0, 66, 75
2, 25764, Note_on_c, 0, 66, 0
2, 25764, Note_on_c, 0, 67, 75
2, 25817, Note_on_c, 0, 67, 0
2, 25824, Note_on_c, 0, 62, 75
2, 25913, Note_on_c, 0, 62, 0
2, 26016, Note_on_c, 0, 74, 75
2, 26105, Note_on_c, 0, 74, 0
2, 26112, Note_on_c, 0, 72, 75
2, 26160, Note_on_c, 0, 72, 0
2, 26160, Note_on_c, 0, 70, 75
2, 26205, Note_on_c, 0, 70, 0
2, 26208, Note_on_c, 0, 69, 75
2, 26253, Note_on_c, 0, 69, 0
2, 26256, Note_on_c, 0, 67, 75
2, 26301, Note_on_c, 0, 67, 0
2, 26304, Note_on_c, 0, 75, 75
2, 26393, Note_on_c, 0, 75, 0
2, 26400, Note_on_c, 0, 75, 75
2, 26489, Note_on_c, 0, 75, 0
2, 26496, Note_on_c, 0, 75, 75
2, 26509, Note_on_c, 0, 75, 0
2, 26510, Note_on_c, 0, 77, 75
2, 26523, Note_on_c, 0, 77, 0
2, 26524, Note_on_c, 0, 75, 75
2, 26537, Note_on_c, 0, 75, 0
2, 26538, Note_on_c, 0, 77, 75
2, 26551, Note_on_c, 0, 77, 0
2, 26552, Note_on_c, 0, 75, 75
2, 26565, Note_on_c, 0, 75, 0
2, 26566, Note_on_c, 0, 74, 75
2, 26578, Note_on_c, 0, 74, 0
2, 26579, Note_on_c, 0, 75, 75
2, 26591, Note_on_c, 0, 75, 0
2, 26592, Note_on_c, 0, 74, 75
2, 26681, Note_on_c, 0, 74, 0
2, 26736, Note_on_c, 0, 74, 75
2, 26781, Note_on_c, 0, 74, 0
2, 26784, Note_on_c, 0, 77, 75
2, 26829, Note_on_c, 0, 77, 0
2, 26832, Note_on_c, 0, 80, 75
2, 26877, Note_on_c, 0, 80, 0
2, 26880, Note_on_c, 0, 71, 75
2, 26947, Note_on_c, 0, 71, 0
2, 26952, Note_on_c, 0, 72, 75
2, 26964, Note_on_c, 0, 72, 0
2, 26964, Note_on_c, 0, 74, 75
2, 26976, Note_on_c, 0, 74, 0
2, 26976, Note_on_c, 0, 72, 75
2, 27065, Note_on_c, 0, 72, 0
2, 27072, Note_on_c, 0, 79, 75
2, 27117, Note_on_c, 0, 79, 0
2, 27120, Note_on_c, 0, 75, 75
2, 27165, Note_on_c, 0, 75, 0
2, 27168, Note_on_c, 0, 72, 75
2, 27213, Note_on_c, 0, 72, 0
2, 27216, Note_on_c, 0, 70, 75
2, 27261, Note_on_c, 0, 70, 0
2, 27264, Note_on_c, 0, 69, 75
2, 27331, Note_on_c, 0, 69, 0
2, 27336, Note_on_c, 0, 70, 75
2, 27348, Note_on_c, 0, 70, 0
2, 27348, Note_on_c, 0, 72, 75
2, 27360, Note_on_c, 0, 72, 0
2, 27360, Note_on_c, 0, 70, 75
2, 27449, Note_on_c, 0, 70, 0
2, 27456, Note_on_c, 0, 77, 75
2, 27501, Note_on_c, 0, 77, 0
2, 27504, Note_on_c, 0, 74, 75
2, 27549, Note_on_c, 0, 74, 0
2, 27552, Note_on_c, 0, 72, 75
2, 27597, Note_on_c, 0, 72, 0
2, 27600, Note_on_c, 0, 70, 75
2, 27645, Note_on_c, 0, 70, 0
2, 27648, Note_on_c, 0, 67, 75
2, 27715, Note_on_c, 0, 67, 0
2, 27720, Note_on_c, 0, 69, 75
2, 27732, Note_on_c, 0, 69, 0
2, 27732, Note_on_c, 0, 70, 75
2, 27744, Note_on_c, 0, 70, 0
2, 27744, Note_on_c, 0, 69, 75
2, 27833, Note_on_c, 0, 69, 0
2, 27840, Note_on_c, 0, 75, 75
2, 27885, Note_on_c, 0, 75, 0
2, 27888, Note_on_c, 0, 72, 75
2, 27933, Note_on_c, 0, 72, 0
2, 27936, Note_on_c, 0, 69, 75
2, 27981, Note_on_c, 0, 69, 0
2, 27984, Note_on_c, 0, 67, 75
2, 28029, Note_on_c, 0, 67, 0
2, 28032, Note_on_c, 0, 67, 75
2, 28128, Note_on_c, 0, 67, 0
2, 28128, Note_on_c, 0, 66, 75
2, 28209, Note_on_c, 0, 66, 0
2, 28224, Note_on_c, 0, 81, 75
2, 28269, Note_on_c, 0, 81, 0
2, 28272, Note_on_c, 0, 78, 75
2, 28317, Note_on_c, 0, 78, 0
2, 28320, Note_on_c, 0, 74, 75
2, 28365, Note_on_c, 0, 74, 0
2, 28368, Note_on_c, 0, 72, 75
2, 28413, Note_on_c, 0, 72, 0
2, 28416, Note_on_c, 0, 70, 75
2, 28461, Note_on_c, 0, 70, 0
2, 28464, Note_on_c, 0, 74, 75
2, 28509, Note_on_c, 0, 74, 0
2, 28512, Note_on_c, 0, 72, 76
2, 28557, Note_on_c, 0, 72, 0
2, 28560, Note_on_c, 0, 69, 76
2, 28605, Note_on_c, 0, 69, 0
2, 28608, Note_on_c, 0, 67, 77
2, 28653, Note_on_c, 0, 67, 0
2, 28656, Note_on_c, 0, 70, 77
2, 28701, Note_on_c, 0, 70, 0
2, 28704, Note_on_c, 0, 69, 78
2, 28749, Note_on_c, 0, 69, 0
2, 28752, Note_on_c, 0, 67, 79
2, 28797, Note_on_c, 0, 67, 0
2, 28800, Note_on_c, 0, 66, 79
2, 28830, Note_on_c, 0, 66, 0
2, 28832, Note_on_c, 0, 67, 80
2, 28862, Note_on_c, 0, 67, 0
2, 28864, Note_on_c, 0, 69, 80
2, 28894, Note_on_c, 0, 69, 0
2, 28896, Note_on_c, 0, 62, 80
2, 28985, Note_on_c, 0, 62, 0
2, 28992, Note_on_c, 0, 81, 80
2, 29037, Note_on_c, 0, 81, 0
2, 29040, Note_on_c, 0, 78, 80
2, 29085, Note_on_c, 0, 78, 0
2, 29088, Note_on_c, 0, 74, 75
2, 29133, Note_on_c, 0, 74, 0
2, 29136, Note_on_c, 0, 72, 75
2, 29181, Note_on_c, 0, 72, 0
2, 29184, Note_on_c, 0, 70, 76
2, 29229, Note_on_c, 0, 70, 0
2, 29232, Note_on_c, 0, 74, 76
2, 29277, Note_on_c, 0, 74, 0
2, 29280, Note_on_c, 0, 72, 77
2, 29325, Note_on_c, 0, 72, 0
2, 29328, Note_on_c, 0, 69, 78
2, 29373, Note_on_c, 0, 69, 0
2, 29376, Note_on_c, 0, 67, 78
2, 29421, Note_on_c, 0, 67, 0
2, 29424, Note_on_c, 0, 79, 79
2, 29469, Note_on_c, 0, 79, 0
2, 29472, Note_on_c, 0, 67, 80
2, 29517, Note_on_c, 0, 67, 0
2, 29520, Note_on_c, 0, 77, 80
2, 29565, Note_on_c, 0, 77, 0
2, 29568, Note_on_c, 0, 75, 80
2, 29613, Note_on_c, 0, 75, 0
2, 29616, Note_on_c, 0, 79, 80
2, 29661, Note_on_c, 0, 79, 0
2, 29664, Note_on_c, 0, 72, 80
2, 29709, Note_on_c, 0, 72, 0
2, 29712, Note_on_c, 0, 75, 80
2, 29757, Note_on_c, 0, 75, 0
2, 29760, Note_on_c, 0, 74, 80
2, 29805, Note_on_c, 0, 74, 0
2, 29808, Note_on_c, 0, 79, 80
2, 29853, Note_on_c, 0, 79, 0
2, 29856, Note_on_c, 0, 70, 80
2, 29901, Note_on_c, 0, 70, 0
2, 29904, Note_on_c, 0, 74, 80
2, 29949, Note_on_c, 0, 74, 0
2, 29952, Note_on_c, 0, 72, 80
2, 29964, Note_on_c, 0, 72, 0
2, 29964, Note_on_c, 0, 74, 80
2, 29976, Note_on_c, 0, 74, 0
2, 29976, Note_on_c, 0, 72, 80
2, 29997, Note_on_c, 0, 72, 0
2, 30000, Note_on_c, 0, 71, 80
2, 30045, Note_on_c, 0, 71, 0
2, 30048, Note_on_c, 0, 72, 80
2, 30093, Note_on_c, 0, 72, 0
2, 30096, Note_on_c, 0, 72, 80
2, 30141, Note_on_c, 0, 72, 0
2, 30144, Note_on_c, 0, 72, 80
2, 30189, Note_on_c, 0, 72, 0
2, 30192, Note_on_c, 0, 81, 80
2, 30237, Note_on_c, 0, 81, 0
2, 30240, Note_on_c, 0, 69, 80
2, 30285, Note_on_c, 0, 69, 0
2, 30288, Note_on_c, 0, 72, 80
2, 30333, Note_on_c, 0, 72, 0
2, 30336, Note_on_c, 0, 70, 80
2, 30425, Note_on_c, 0, 70, 0
2, 30432, Note_on_c, 0, 67, 75
2, 30521, Note_on_c, 0, 67, 0
2, 30528, Note_on_c, 0, 67, 75
2, 30617, Note_on_c, 0, 67, 0
2, 30624, Note_on_c, 0, 67, 75
2, 30713, Note_on_c, 0, 67, 0
2, 30720, Note_on_c, 0, 67, 75
2, 30765, Note_on_c, 0, 67, 0
2, 30768, Note_on_c, 0, 79, 75
2, 30813, Note_on_c, 0, 79, 0
2, 30816, Note_on_c, 0, 75, 75
2, 30861, Note_on_c, 0, 75, 0
2, 30864, Note_on_c, 0, 72, 75
2, 30909, Note_on_c, 0, 72, 0
2, 30912, Note_on_c, 0, 70, 75
2, 30957, Note_on_c, 0, 70, 0
2, 30960, Note_on_c, 0, 67, 75
2, 31005, Note_on_c, 0, 67, 0
2, 31008, Note_on_c, 0, 69, 75
2, 31053, Note_on_c, 0, 69, 0
2, 31056, Note_on_c, 0, 66, 75
2, 31101, Note_on_c, 0, 66, 0
2, 31104, Note_on_c, 0, 67, 75
2, 31193, Note_on_c, 0, 67, 0
2, 31200, Note_on_c, 0, 67, 75
2, 31289, Note_on_c, 0, 67, 0
2, 31296, Note_on_c, 0, 67, 75
2, 31385, Note_on_c, 0, 67, 0
2, 31392, Note_on_c, 0, 67, 75
2, 31481, Note_on_c, 0, 67, 0
2, 31488, Note_on_c, 0, 67, 75
2, 31533, Note_on_c, 0, 67, 0
2, 31536, Note_on_c, 0, 79, 75
2, 31581, Note_on_c, 0, 79, 0
2, 31584, Note_on_c, 0, 75, 75
2, 31629, Note_on_c, 0, 75, 0
2, 31632, Note_on_c, 0, 72, 75
2, 31677, Note_on_c, 0, 72, 0
2, 31680, Note_on_c, 0, 70, 75
2, 31725, Note_on_c, 0, 70, 0
2, 31728, Note_on_c, 0, 67, 75
2, 31773, Note_on_c, 0, 67, 0
2, 31776, Note_on_c, 0, 69, 75
2, 31821, Note_on_c, 0, 69, 0
2, 31824, Note_on_c, 0, 66, 75
2, 31869, Note_on_c, 0, 66, 0
2, 31872, Note_on_c, 0, 69, 75
2, 31884, Note_on_c, 0, 69, 0
2, 31884, Note_on_c, 0, 67, 75
2, 31896, Note_on_c, 0, 67, 0
2, 31896, Note_on_c, 0, 66, 75
2, 31908, Note_on_c, 0, 66, 0
2, 31908, Note_on_c, 0, 67, 75
2, 31961, Note_on_c, 0, 67, 0
2, 32160, Note_on_c, 0, 77, 75
2, 32249, Note_on_c, 0, 77, 0
2, 32256, Note_on_c, 0, 75, 75
2, 32304, Note_on_c, 0, 75, 0
2, 32304, Note_on_c, 0, 74, 75
2, 32349, Note_on_c, 0, 74, 0
2, 32352, Note_on_c, 0, 72, 75
2, 32397, Note_on_c, 0, 72, 0
2, 32400, Note_on_c, 0, 70, 75
2, 32445, Note_on_c, 0, 70, 0
2, 32448, Note_on_c, 0, 70, 75
2, 32487, Note_on_c, 0, 70, 0
2, 32544, Note_on_c, 0, 72, 75
2, 32633, Note_on_c, 0, 72, 0
2, 32640, Note_on_c, 0, 75, 75
2, 32655, Note_on_c, 0, 75, 0
2, 32656, Note_on_c, 0, 74, 75
2, 32671, Note_on_c, 0, 74, 0
2, 32672, Note_on_c, 0, 75, 75
2, 32687, Note_on_c, 0, 75, 0
2, 32688, Note_on_c, 0, 74, 75
2, 32703, Note_on_c, 0, 74, 0
2, 32704, Note_on_c, 0, 72, 75
2, 32719, Note_on_c, 0, 72, 0
2, 32720, Note_on_c, 0, 74, 75
2, 32735, Note_on_c, 0, 74, 0
2, 32736, Note_on_c, 0, 72, 75
2, 32825, Note_on_c, 0, 72, 0
2, 32928, Note_on_c, 0, 79, 75
2, 33017, Note_on_c, 0, 79, 0
2, 33024, Note_on_c, 0, 77, 75
2, 33072, Note_on_c, 0, 77, 0
2, 33072, Note_on_c, 0, 75, 75
2, 33117, Note_on_c, 0, 75, 0
2, 33120, Note_on_c, 0, 74, 75
2, 33165, Note_on_c, 0, 74, 0
2, 33168, Note_on_c, 0, 72, 75
2, 33213, Note_on_c, 0, 72, 0
2, 33216, Note_on_c, 0, 72, 75
2, 33255, Note_on_c, 0, 72, 0
2, 33312, Note_on_c, 0, 74, 75
2, 33401, Note_on_c, 0, 74, 0
2, 33408, Note_on_c, 0, 77, 75
2, 33423, Note_on_c, 0, 77, 0
2, 33424, Note_on_c, 0, 75, 75
2, 33439, Note_on_c, 0, 75, 0
2, 33440, Note_on_c, 0, 77, 75
2, 33455, Note_on_c, 0, 77, 0
2, 33456, Note_on_c, 0, 75, 75
2, 33471, Note_on_c, 0, 75, 0
2, 33472, Note_on_c, 0, 74, 75
2, 33487, Note_on_c, 0, 74, 0
2, 33488, Note_on_c, 0, 75, 75
2, 33503, Note_on_c, 0, 75, 0
2, 33504, Note_on_c, 0, 74, 75
2, 33593, Note_on_c, 0, 74, 0
2, 33600, Note_on_c, 0, 80, 75
2, 33648, Note_on_c, 0, 80, 0
2, 33648, Note_on_c, 0, 77, 75
2, 33693, Note_on_c, 0, 77, 0
2, 33696, Note_on_c, 0, 75, 75
2, 33741, Note_on_c, 0, 75, 0
2, 33744, Note_on_c, 0, 74, 75
2, 33789, Note_on_c, 0, 74, 0
2, 33792, Note_on_c, 0, 79, 75
2, 33837, Note_on_c, 0, 79, 0
2, 33840, Note_on_c, 0, 75, 75
2, 33885, Note_on_c, 0, 75, 0
2, 33888, Note_on_c, 0, 74, 76
2, 33933, Note_on_c, 0, 74, 0
2, 33936, Note_on_c, 0, 72, 76
2, 33981, Note_on_c, 0, 72, 0
2, 33984, Note_on_c, 0, 77, 77
2, 34029, Note_on_c, 0, 77, 0
2, 34032, Note_on_c, 0, 74, 78
2, 34077, Note_on_c, 0, 74, 0
2, 34080, Note_on_c, 0, 72, 78
2, 34125, Note_on_c, 0, 72, 0
2, 34128, Note_on_c, 0, 71, 79
2, 34173, Note_on_c, 0, 71, 0
2, 34176, Note_on_c, 0, 74, 79
2, 34191, Note_on_c, 0, 74, 0
2, 34192, Note_on_c, 0, 72, 80
2, 34207, Note_on_c, 0, 72, 0
2, 34208, Note_on_c, 0, 74, 80
2, 34223, Note_on_c, 0, 74, 0
2, 34224, Note_on_c, 0, 72, 80
2, 34239, Note_on_c, 0, 72, 0
2, 34240, Note_on_c, 0, 71, 80
2, 34255, Note_on_c, 0, 71, 0
2, 34256, Note_on_c, 0, 72, 80
2, 34271, Note_on_c, 0, 72, 0
2, 34272, Note_on_c, 0, 74, 80
2, 34361, Note_on_c, 0, 74, 0
2, 34368, Note_on_c, 0, 77, 80
2, 34383, Note_on_c, 0, 77, 0
2, 34384, Note_on_c, 0, 75, 80
2, 34399, Note_on_c, 0, 75, 0
2, 34400, Note_on_c, 0, 77, 80
2, 34415, Note_on_c, 0, 77, 0
2, 34416, Note_on_c, 0, 75, 80
2, 34431, Note_on_c, 0, 75, 0
2, 34432, Note_on_c, 0, 74, 80
2, 34447, Note_on_c, 0, 74, 0
2, 34448, Note_on_c, 0, 75, 80
2, 34463, Note_on_c, 0, 75, 0
2, 34464, Note_on_c, 0, 77, 80
2, 34553, Note_on_c, 0, 77, 0
2, 34560, Note_on_c, 0, 79, 80
2, 34608, Note_on_c, 0, 79, 0
2, 34608, Note_on_c, 0, 75, 80
2, 34653, Note_on_c, 0, 75, 0
2, 34656, Note_on_c, 0, 74, 75
2, 34701, Note_on_c, 0, 74, 0
2, 34704, Note_on_c, 0, 72, 75
2, 34749, Note_on_c, 0, 72, 0
2, 34752, Note_on_c, 0, 77, 76
2, 34800, Note_on_c, 0, 77, 0
2, 34800, Note_on_c, 0, 74, 76
2, 34845, Note_on_c, 0, 74, 0
2, 34848, Note_on_c, 0, 72, 77
2, 34893, Note_on_c, 0, 72, 0
2, 34896, Note_on_c, 0, 71, 78
2, 34941, Note_on_c, 0, 71, 0
2, 34944, Note_on_c, 0, 74, 78
2, 34956, Note_on_c, 0, 74, 0
2, 34956, Note_on_c, 0, 72, 78
2, 34968, Note_on_c, 0, 72, 0
2, 34968, Note_on_c, 0, 71, 78
2, 34980, Note_on_c, 0, 71, 0
2, 34980, Note_on_c, 0, 72, 78
2, 35033, Note_on_c, 0, 72, 0
2, 35040, Note_on_c, 0, 67, 80
2, 35129, Note_on_c, 0, 67, 0
2, 35232, Note_on_c, 0, 84, 75
2, 35321, Note_on_c, 0, 84, 0
2, 35328, Note_on_c, 0, 80, 75
2, 35373, Note_on_c, 0, 80, 0
2, 35376, Note_on_c, 0, 84, 75
2, 35421, Note_on_c, 0, 84, 0
2, 35424, Note_on_c, 0, 82, 75
2, 35469, Note_on_c, 0, 82, 0
2, 35472, Note_on_c, 0, 79, 75
2, 35517, Note_on_c, 0, 79, 0
2, 35520, Note_on_c, 0, 77, 75
2, 35565, Note_on_c, 0, 77, 0
2, 35568, Note_on_c, 0, 80, 75
2, 35613, Note_on_c, 0, 80, 0
2, 35616, Note_on_c, 0, 79, 75
2, 35661, Note_on_c, 0, 79, 0
2, 35664, Note_on_c, 0, 75, 75
2, 35709, Note_on_c, 0, 75, 0
2, 35712, Note_on_c, 0, 74, 75
2, 35757, Note_on_c, 0, 74, 0
2, 35760, Note_on_c, 0, 77, 75
2, 35805, Note_on_c, 0, 77, 0
2, 35808, Note_on_c, 0, 70, 75
2, 35897, Note_on_c, 0, 70, 0
2, 36000, Note_on_c, 0, 82, 75
2, 36089, Note_on_c, 0, 82, 0
2, 36096, Note_on_c, 0, 79, 75
2, 36141, Note_on_c, 0, 79, 0
2, 36144, Note_on_c, 0, 82, 75
2, 36189, Note_on_c, 0, 82, 0
2, 36192, Note_on_c, 0, 80, 75
2, 36237, Note_on_c, 0, 80, 0
2, 36240, Note_on_c, 0, 77, 75
2, 36285, Note_on_c, 0, 77, 0
2, 36288, Note_on_c, 0, 75, 75
2, 36333, Note_on_c, 0, 75, 0
2, 36336, Note_on_c, 0, 79, 75
2, 36381, Note_on_c, 0, 79, 0
2, 36384, Note_on_c, 0, 77, 75
2, 36429, Note_on_c, 0, 77, 0
2, 36432, Note_on_c, 0, 74, 75
2, 36477, Note_on_c, 0, 74, 0
2, 36480, Note_on_c, 0, 72, 75
2, 36525, Note_on_c, 0, 72, 0
2, 36528, Note_on_c, 0, 75, 75
2, 36573, Note_on_c, 0, 75, 0
2, 36576, Note_on_c, 0, 68, 75
2, 36665, Note_on_c, 0, 68, 0
2, 36768, Note_on_c, 0, 80, 75
2, 36857, Note_on_c, 0, 80, 0
2, 36864, Note_on_c, 0, 77, 75
2, 36909, Note_on_c, 0, 77, 0
2, 36912, Note_on_c, 0, 80, 75
2, 36957, Note_on_c, 0, 80, 0
2, 36960, Note_on_c, 0, 79, 75
2, 37005, Note_on_c, 0, 79, 0
2, 37008, Note_on_c, 0, 75, 75
2, 37053, Note_on_c, 0, 75, 0
2, 37056, Note_on_c, 0, 74, 75
2, 37101, Note_on_c, 0, 74, 0
2, 37104, Note_on_c, 0, 77, 75
2, 37149, Note_on_c, 0, 77, 0
2, 37152, Note_on_c, 0, 75, 75
2, 37197, Note_on_c, 0, 75, 0
2, 37200, Note_on_c, 0, 72, 75
2, 37245, Note_on_c, 0, 72, 0
2, 37248, Note_on_c, 0, 71, 75
2, 37293, Note_on_c, 0, 71, 0
2, 37296, Note_on_c, 0, 74, 75
2, 37341, Note_on_c, 0, 74, 0
2, 37344, Note_on_c, 0, 67, 75
2, 37433, Note_on_c, 0, 67, 0
2, 37536, Note_on_c, 0, 79, 80
2, 37625, Note_on_c, 0, 79, 0
2, 37632, Note_on_c, 0, 75, 80
2, 37677, Note_on_c, 0, 75, 0
2, 37680, Note_on_c, 0, 72, 80
2, 37725, Note_on_c, 0, 72, 0
2, 37728, Note_on_c, 0, 79, 80
2, 37773, Note_on_c, 0, 79, 0
2, 37776, Note_on_c, 0, 75, 80
2, 37821, Note_on_c, 0, 75, 0
2, 37824, Note_on_c, 0, 74, 80
2, 37869, Note_on_c, 0, 74, 0
2, 37872, Note_on_c, 0, 79, 80
2, 37917, Note_on_c, 0, 79, 0
2, 37920, Note_on_c, 0, 67, 80
2, 37965, Note_on_c, 0, 67, 0
2, 37968, Note_on_c, 0, 77, 80
2, 38013, Note_on_c, 0, 77, 0
2, 38016, Note_on_c, 0, 75, 64
2, 38061, Note_on_c, 0, 75, 0
2, 38064, Note_on_c, 0, 72, 64
2, 38109, Note_on_c, 0, 72, 0
2, 38112, Note_on_c, 0, 79, 64
2, 38157, Note_on_c, 0, 79, 0
2, 38160, Note_on_c, 0, 75, 64
2, 38205, Note_on_c, 0, 75, 0
2, 38208, Note_on_c, 0, 74, 64
2, 38253, Note_on_c, 0, 74, 0
2, 38256, Note_on_c, 0, 79, 64
2, 38301, Note_on_c, 0, 79, 0
2, 38304, Note_on_c, 0, 67, 64
2, 38349, Note_on_c, 0, 67, 0
2, 38352, Note_on_c, 0, 77, 64
2, 38397, Note_on_c, 0, 77, 0
2, 38400, Note_on_c, 0, 75, 80
2, 38445, Note_on_c, 0, 75, 0
2, 38448, Note_on_c, 0, 72, 80
2, 38493, Note_on_c, 0, 72, 0
2, 38496, Note_on_c, 0, 79, 80
2, 38541, Note_on_c, 0, 79, 0
2, 38544, Note_on_c, 0, 75, 80
2, 38589, Note_on_c, 0, 75, 0
2, 38592, Note_on_c, 0, 74, 80
2, 38637, Note_on_c, 0, 74, 0
2, 38640, Note_on_c, 0, 70, 80
2, 38685, Note_on_c, 0, 70, 0
2, 38688, Note_on_c, 0, 79, 80
2, 38733, Note_on_c, 0, 79, 0
2, 38736, Note_on_c, 0, 74, 80
2, 38781, Note_on_c, 0, 74, 0
2, 38784, Note_on_c, 0, 72, 80
2, 38829, Note_on_c, 0, 72, 0
2, 38832, Note_on_c, 0, 75, 80
2, 38877, Note_on_c, 0, 75, 0
2, 38880, Note_on_c, 0, 69, 80
2, 38925, Note_on_c, 0, 69, 0
2, 38928, Note_on_c, 0, 72, 80
2, 38973, Note_on_c, 0, 72, 0
2, 38976, Note_on_c, 0, 70, 80
2, 39021, Note_on_c, 0, 70, 0
2, 39024, Note_on_c, 0, 74, 80
2, 39069, Note_on_c, 0, 74, 0
2, 39072, Note_on_c, 0, 70, 80
2, 39117, Note_on_c, 0, 70, 0
2, 39120, Note_on_c, 0, 67, 80
2, 39165, Note_on_c, 0, 67, 0
2, 39168, Note_on_c, 0, 66, 80
2, 39213, Note_on_c, 0, 66, 0
2, 39216, Note_on_c, 0, 74, 80
2, 39261, Note_on_c, 0, 74, 0
2, 39264, Note_on_c, 0, 62, 80
2, 39309, Note_on_c, 0, 62, 0
2, 39312, Note_on_c, 0, 74, 80
2, 39357, Note_on_c, 0, 74, 0
2, 39360, Note_on_c, 0, 72, 80
2, 39405, Note_on_c, 0, 72, 0
2, 39408, Note_on_c, 0, 69, 80
2, 39453, Note_on_c, 0, 69, 0
2, 39456, Note_on_c, 0, 70, 80
2, 39501, Note_on_c, 0, 70, 0
2, 39504, Note_on_c, 0, 67, 80
2, 39549, Note_on_c, 0, 67, 0
2, 39552, Note_on_c, 0, 66, 80
2, 39597, Note_on_c, 0, 66, 0
2, 39600, Note_on_c, 0, 74, 80
2, 39645, Note_on_c, 0, 74, 0
2, 39648, Note_on_c, 0, 62, 80
2, 39693, Note_on_c, 0, 62, 0
2, 39696, Note_on_c, 0, 74, 80
2, 39741, Note_on_c, 0, 74, 0
2, 39744, Note_on_c, 0, 72, 80
2, 39789, Note_on_c, 0, 72, 0
2, 39792, Note_on_c, 0, 69, 80
2, 39837, Note_on_c, 0, 69, 0
2, 39840, Note_on_c, 0, 70, 80
2, 39885, Note_on_c, 0, 70, 0
2, 39888, Note_on_c, 0, 67, 80
2, 39933, Note_on_c, 0, 67, 0
2, 39936, Note_on_c, 0, 66, 80
2, 39981, Note_on_c, 0, 66, 0
2, 39984, Note_on_c, 0, 74, 80
2, 40029, Note_on_c, 0, 74, 0
2, 40032, Note_on_c, 0, 62, 80
2, 40121, Note_on_c, 0, 62, 0
2, 40224, Note_on_c, 0, 74, 75
2, 40313, Note_on_c, 0, 74, 0
2, 40320, Note_on_c, 0, 72, 75
2, 40368, Note_on_c, 0, 72, 0
2, 40368, Note_on_c, 0, 70, 75
2, 40413, Note_on_c, 0, 70, 0
2, 40416, Note_on_c, 0, 69, 75
2, 40461, Note_on_c, 0, 69, 0
2, 40464, Note_on_c, 0, 67, 75
2, 40509, Note_on_c, 0, 67, 0
2, 40512, Note_on_c, 0, 67, 75
2, 40551, Note_on_c, 0, 67, 0
2, 40608, Note_on_c, 0, 69, 75
2, 40697, Note_on_c, 0, 69, 0
2, 40704, Note_on_c, 0, 72, 75
2, 40719, Note_on_c, 0, 72, 0
2, 40720, Note_on_c, 0, 70, 75
2, 40735, Note_on_c, 0, 70, 0
2, 40736, Note_on_c, 0, 72, 75
2, 40751, Note_on_c, 0, 72, 0
2, 40752, Note_on_c, 0, 70, 75
2, 40767, Note_on_c, 0, 70, 0
2, 40768, Note_on_c, 0, 69, 75
2, 40783, Note_on_c, 0, 69, 0
2, 40784, Note_on_c, 0, 70, 75
2, 40799, Note_on_c, 0, 70, 0
2, 40800, Note_on_c, 0, 69, 75
2, 40889, Note_on_c, 0, 69, 0
2, 40992, Note_on_c, 0, 74, 75
2, 41081, Note_on_c, 0, 74, 0
2, 41088, Note_on_c, 0, 75, 75
2, 41136, Note_on_c, 0, 75, 0
2, 41136, Note_on_c, 0, 72, 75
2, 41181, Note_on_c, 0, 72, 0
2, 41184, Note_on_c, 0, 70, 75
2, 41229, Note_on_c, 0, 70, 0
2, 41232, Note_on_c, 0, 69, 75
2, 41277, Note_on_c, 0, 69, 0
2, 41280, Note_on_c, 0, 74, 75
2, 41369, Note_on_c, 0, 74, 0
2, 41376, Note_on_c, 0, 66, 75
2, 41465, Note_on_c, 0, 66, 0
2, 41472, Note_on_c, 0, 69, 75
2, 41487, Note_on_c, 0, 69, 0
2, 41488, Note_on_c, 0, 67, 75
2, 41503, Note_on_c, 0, 67, 0
2, 41504, Note_on_c, 0, 69, 75
2, 41519, Note_on_c, 0, 69, 0
2, 41520, Note_on_c, 0, 67, 75
2, 41535, Note_on_c, 0, 67, 0
2, 41536, Note_on_c, 0, 66, 75
2, 41551, Note_on_c, 0, 66, 0
2, 41552, Note_on_c, 0, 67, 75
2, 41567, Note_on_c, 0, 67, 0
2, 41568, Note_on_c, 0, 69, 75
2, 41657, Note_on_c, 0, 69, 0
2, 41664, Note_on_c, 0, 72, 75
2, 41679, Note_on_c, 0, 72, 0
2, 41680, Note_on_c, 0, 70, 75
2, 41695, Note_on_c, 0, 70, 0
2, 41696, Note_on_c, 0, 72, 75
2, 41711, Note_on_c, 0, 72, 0
2, 41712, Note_on_c, 0, 70, 75
2, 41727, Note_on_c, 0, 70, 0
2, 41728, Note_on_c, 0, 69, 75
2, 41743, Note_on_c, 0, 69, 0
2, 41744, Note_on_c, 0, 70, 75
2, 41759, Note_on_c, 0, 70, 0
2, 41760, Note_on_c, 0, 72, 75
2, 41849, Note_on_c, 0, 72, 0
2, 41856, Note_on_c, 0, 74, 75
2, 41904, Note_on_c, 0, 74, 0
2, 41904, Note_on_c, 0, 70, 75
2, 41949, Note_on_c, 0, 70, 0
2, 41952, Note_on_c, 0, 69, 75
2, 41997, Note_on_c, 0, 69, 0
2, 42000, Note_on_c, 0, 67, 75
2, 42045, Note_on_c, 0, 67, 0
2, 42048, Note_on_c, 0, 72, 75
2, 42096, Note_on_c, 0, 72, 0
2, 42096, Note_on_c, 0, 69, 75
2, 42141, Note_on_c, 0, 69, 0
2, 42144, Note_on_c, 0, 67, 75
2, 42189, Note_on_c, 0, 67, 0
2, 42192, Note_on_c, 0, 66, 75
2, 42237, Note_on_c, 0, 66, 0
2, 42240, Note_on_c, 0, 69, 75
2, 42252, Note_on_c, 0, 69, 0
2, 42252, Note_on_c, 0, 67, 75
2, 42264, Note_on_c, 0, 67, 0
2, 42264, Note_on_c, 0, 66, 75
2, 42276, Note_on_c, 0, 66, 0
2, 42276, Note_on_c, 0, 67, 75
2, 42329, Note_on_c, 0, 67, 0
2, 42336, Note_on_c, 0, 62, 75
2, 42425, Note_on_c, 0, 62, 0
2, 42528, Note_on_c, 0, 74, 75
2, 42617, Note_on_c, 0, 74, 0
2, 42624, Note_on_c, 0, 72, 75
2, 42672, Note_on_c, 0, 72, 0
2, 42672, Note_on_c, 0, 70, 75
2, 42717, Note_on_c, 0, 70, 0
2, 42720, Note_on_c, 0, 69, 75
2, 42765, Note_on_c, 0, 69, 0
2, 42768, Note_on_c, 0, 67, 75
2, 42813, Note_on_c, 0, 67, 0
2, 42816, Note_on_c, 0, 75, 75
2, 42905, Note_on_c, 0, 75, 0
2, 42912, Note_on_c, 0, 75, 75
2, 43001, Note_on_c, 0, 75, 0
2, 43008, Note_on_c, 0, 75, 75
2, 43021, Note_on_c, 0, 75, 0
2, 43022, Note_on_c, 0, 77, 75
2, 43035, Note_on_c, 0, 77, 0
2, 43036, Note_on_c, 0, 75, 75
2, 43049, Note_on_c, 0, 75, 0
2, 43050, Note_on_c, 0, 77, 75
2, 43063, Note_on_c, 0, 77, 0
2, 43064, Note_on_c, 0, 75, 75
2, 43077, Note_on_c, 0, 75, 0
2, 43078, Note_on_c, 0, 74, 75
2, 43090, Note_on_c, 0, 74, 0
2, 43091, Note_on_c, 0, 75, 75
2, 43103, Note_on_c, 0, 75, 0
2, 43104, Note_on_c, 0, 74, 75
2, 43193, Note_on_c, 0, 74, 0
2, 43248, Note_on_c, 0, 74, 75
2, 43293, Note_on_c, 0, 74, 0
2, 43296, Note_on_c, 0, 77, 75
2, 43341, Note_on_c, 0, 77, 0
2, 43344, Note_on_c, 0, 80, 75
2, 43389, Note_on_c, 0, 80, 0
2, 43392, Note_on_c, 0, 71, 75
2, 43459, Note_on_c, 0, 71, 0
2, 43464, Note_on_c, 0, 72, 75
2, 43476, Note_on_c, 0, 72, 0
2, 43476, Note_on_c, 0, 74, 75
2, 43488, Note_on_c, 0, 74, 0
2, 43488, Note_on_c, 0, 72, 75
2, 43577, Note_on_c, 0, 72, 0
2, 43584, Note_on_c, 0, 79, 75
2, 43629, Note_on_c, 0, 79, 0
2, 43632, Note_on_c, 0, 75, 75
2, 43677, Note_on_c, 0, 75, 0
2, 43680, Note_on_c, 0, 72, 75
2, 43725, Note_on_c, 0, 72, 0
2, 43728, Note_on_c, 0, 70, 75
2, 43773, Note_on_c, 0, 70, 0
2, 43776, Note_on_c, 0, 69, 75
2, 43843, Note_on_c, 0, 69, 0
2, 43848, Note_on_c, 0, 70, 75
2, 43860, Note_on_c, 0, 70, 0
2, 43860, Note_on_c, 0, 72, 75
2, 43872, Note_on_c, 0, 72, 0
2, 43872, Note_on_c, 0, 70, 75
2, 43961, Note_on_c, 0, 70, 0
2, 43968, Note_on_c, 0, 77, 75
2, 44013, Note_on_c, 0, 77, 0
2, 44016, Note_on_c, 0, 74, 75
2, 44061, Note_on_c, 0, 74, 0
2, 44064, Note_on_c, 0, 72, 75
2, 44109, Note_on_c, 0, 72, 0
2, 44112, Note_on_c, 0, 70, 75
2, 44157, Note_on_c, 0, 70, 0
2, 44160, Note_on_c, 0, 67, 75
2, 44227, Note_on_c, 0, 67, 0
2, 44232, Note_on_c, 0, 69, 75
2, 44244, Note_on_c, 0, 69, 0
2, 44244, Note_on_c, 0, 70, 75
2, 44256, Note_on_c, 0, 70, 0
2, 44256, Note_on_c, 0, 69, 75
2, 44345, Note_on_c, 0, 69, 0
2, 44352, Note_on_c, 0, 75, 75
2, 44397, Note_on_c, 0, 75, 0
2, 44400, Note_on_c, 0, 72, 75
2, 44445, Note_on_c, 0, 72, 0
2, 44448, Note_on_c, 0, 69, 75
2, 44493, Note_on_c, 0, 69, 0
2, 44496, Note_on_c, 0, 67, 75
2, 44541, Note_on_c, 0, 67, 0
2, 44544, Note_on_c, 0, 67, 75
2, 44640, Note_on_c, 0, 67, 0
2, 44640, Note_on_c, 0, 66, 75
2, 44721, Note_on_c, 0, 66, 0
2, 44736, Note_on_c, 0, 81, 75
2, 44781, Note_on_c, 0, 81, 0
2, 44784, Note_on_c, 0, 78, 75
2, 44829, Note_on_c, 0, 78, 0
2, 44832, Note_on_c, 0, 74, 75
2, 44877, Note_on_c, 0, 74, 0
2, 44880, Note_on_c, 0, 72, 75
2, 44925, Note_on_c, 0, 72, 0
2, 44928, Note_on_c, 0, 70, 75
2, 44973, Note_on_c, 0, 70, 0
2, 44976, Note_on_c, 0, 74, 75
2, 45021, Note_on_c, 0, 74, 0
2, 45024, Note_on_c, 0, 72, 76
2, 45069, Note_on_c, 0, 72, 0
2, 45072, Note_on_c, 0, 69, 76
2, 45117, Note_on_c, 0, 69, 0
2, 45120, Note_on_c, 0, 67, 77
2, 45165, Note_on_c, 0, 67, 0
2, 45168, Note_on_c, 0, 70, 77
2, 45213, Note_on_c, 0, 70, 0
2, 45216, Note_on_c, 0, 69, 78
2, 45261, Note_on_c, 0, 69, 0
2, 45264, Note_on_c, 0, 67, 79
2, 45309, Note_on_c, 0, 67, 0
2, 45312, Note_on_c, 0, 66, 79
2, 45342, Note_on_c, 0, 66, 0
2, 45344, Note_on_c, 0, 67, 80
2, 45374, Note_on_c, 0, 67, 0
2, 45376, Note_on_c, 0, 69, 80
2, 45406, Note_on_c, 0, 69, 0
2, 45408, Note_on_c, 0, 62, 80
2, 45497, Note_on_c, 0, 62, 0
2, 45504, Note_on_c, 0, 81, 80
2, 45549, Note_on_c, 0, 81, 0
2, 45552, Note_on_c, 0, 78, 80
2, 45597, Note_on_c, 0, 78, 0
2, 45600, Note_on_c, 0, 74, 75
2, 45645, Note_on_c, 0, 74, 0
2, 45648, Note_on_c, 0, 72, 75
2, 45693, Note_on_c, 0, 72, 0
2, 45696, Note_on_c, 0, 70, 76
2, 45741, Note_on_c, 0, 70, 0
2, 45744, Note_on_c, 0, 74, 76
2, 45789, Note_on_c, 0, 74, 0
2, 45792, Note_on_c, 0, 72, 77
2, 45837, Note_on_c, 0, 72, 0
2, 45840, Note_on_c, 0, 69, 78
2, 45885, Note_on_c, 0, 69, 0
2, 45888, Note_on_c, 0, 67, 78
2, 45933, Note_on_c, 0, 67, 0
2, 45936, Note_on_c, 0, 79, 79
2, 45981, Note_on_c, 0, 79, 0
2, 45984, Note_on_c, 0, 67, 80
2, 46029, Note_on_c, 0, 67, 0
2, 46032, Note_on_c, 0, 77, 80
2, 46077, Note_on_c, 0, 77, 0
2, 46080, Note_on_c, 0, 75, 80
2, 46125, Note_on_c, 0, 75, 0
2, 46128, Note_on_c, 0, 79, 80
2, 46173, Note_on_c, 0, 79, 0
2, 46176, Note_on_c, 0, 72, 80
2, 46221, Note_on_c, 0, 72, 0
2, 46224, Note_on_c, 0, 75, 80
2, 46269, Note_on_c, 0, 75, 0
2, 46272, Note_on_c, 0, 74, 80
2, 46317, Note_on_c, 0, 74, 0
2, 46320, Note_on_c, 0, 79, 80
2, 46365, Note_on_c, 0, 79, 0
2, 46368, Note_on_c, 0, 70, 80
2, 46413, Note_on_c, 0, 70, 0
2, 46416, Note_on_c, 0, 74, 80
2, 46461, Note_on_c, 0, 74, 0
2, 46464, Note_on_c, 0, 72, 80
2, 46476, Note_on_c, 0, 72, 0
2, 46476, Note_on_c, 0, 74, 80
2, 46488, Note_on_c, 0, 74, 0
2, 46488, Note_on_c, 0, 72, 80
2, 46509, Note_on_c, 0, 72, 0
2, 46512, Note_on_c, 0, 71, 80
2, 46557, Note_on_c, 0, 71, 0
2, 46560, Note_on_c, 0, 72, 80
2, 46605, Note_on_c, 0, 72, 0
2, 46608, Note_on_c, 0, 72, 80
2, 46653, Note_on_c, 0, 72, 0
2, 46656, Note_on_c, 0, 72, 80
2, 46701, Note_on_c, 0, 72, 0
2, 46704, Note_on_c, 0, 81, 80
2, 46749, Note_on_c, 0, 81, 0
2, 46752, Note_on_c, 0, 69, 80
2, 46797, Note_on_c, 0, 69, 0
2, 46800, Note_on_c, 0, 72, 80
2, 46845, Note_on_c, 0, 72, 0
2, 46848, Note_on_c, 0, 70, 80
2, 46937, Note_on_c, 0, 70, 0
2, 46944, Note_on_c, 0, 67, 75
2, 47033, Note_on_c, 0, 67, 0
2, 47040, Note_on_c, 0, 67, 75
2, 47129, Note_on_c, 0, 67, 0
2, 47136, Note_on_c, 0, 67, 75
2, 47225, Note_on_c, 0, 67, 0
2, 47232, Note_on_c, 0, 67, 75
2, 47277, Note_on_c, 0, 67, 0
2, 47280, Note_on_c, 0, 79, 75
2, 47325, Note_on_c, 0, 79, 0
2, 47328, Note_on_c, 0, 75, 75
2, 47373, Note_on_c, 0, 75, 0
2, 47376, Note_on_c, 0, 72, 75
2, 47421, Note_on_c, 0, 72, 0
2, 47424, Note_on_c, 0, 70, 75
2, 47469, Note_on_c, 0, 70, 0
2, 47472, Note_on_c, 0, 67, 75
2, 47517, Note_on_c, 0, 67, 0
2, 47520, Note_on_c, 0, 69, 75
2, 47565, Note_on_c, 0, 69, 0
2, 47568, Note_on_c, 0, 66, 75
2, 47613, Note_on_c, 0, 66, 0
2, 47616, Note_on_c, 0, 67, 75
2, 47705, Note_on_c, 0, 67, 0
2, 47712, Note_on_c, 0, 67, 75
2, 47801, Note_on_c, 0, 67, 0
2, 47808, Note_on_c, 0, 67, 75
2, 47897, Note_on_c, 0, 67, 0
2, 47904, Note_on_c, 0, 67, 75
2, 47993, Note_on_c, 0, 67, 0
2, 48000, Note_on_c, 0, 67, 75
2, 48045, Note_on_c, 0, 67, 0
2, 48048, Note_on_c, 0, 79, 75
2, 48093, Note_on_c, 0, 79, 0
2, 48096, Note_on_c, 0, 75, 75
2, 48141, Note_on_c, 0, 75, 0
2, 48144, Note_on_c, 0, 72, 75
2, 48189, Note_on_c, 0, 72, 0
2, 48192, Note_on_c, 0, 70, 75
2, 48237, Note_on_c, 0, 70, 0
2, 48240, Note_on_c, 0, 67, 75
2, 48285, Note_on_c, 0, 67, 0
2, 48288, Note_on_c, 0, 69, 75
2, 48333, Note_on_c, 0, 69, 0
2, 48336, Note_on_c, 0, 66, 75
2, 48381, Note_on_c, 0, 66, 0
2, 48384, Note_on_c, 0, 69, 75
2, 48396, Note_on_c, 0, 69, 0
2, 48396, Note_on_c, 0, 67, 75
2, 48408, Note_on_c, 0, 67, 0
2, 48408, Note_on_c, 0, 66, 75
2, 48420, Note_on_c, 0, 66, 0
2, 48420, Note_on_c, 0, 67, 75
2, 48473, Note_on_c, 0, 67, 0
2, 48768, End_track
3, 0, Start_track
3, 0, Program_c, 0, 0
3, 0, Control_c, 0, 7, 127
3, 0, Control_c, 0, 10, 64
3, 48768, End_track
4, 0, Start_track
4, 0, Program_c, 1, 0
4, 0, Control_c, 1, 7, 127
4, 0, Control_c, 1, 10, 64
4, 384, Note_on_c, 1, 55, 75
4, 384, Note_on_c, 1, 43, 75
4, 473, Note_on_c, 1, 55, 0
4, 473, Note_on_c, 1, 43, 0
4, 672, Note_on_c, 1, 54, 75
4, 672, Note_on_c, 1, 50, 75
4, 761, Note_on_c, 1, 54, 0
4, 761, Note_on_c, 1, 50, 0
4, 768, Note_on_c, 1, 55, 75
4, 857, Note_on_c, 1, 55, 0
4, 864, Note_on_c, 1, 54, 75
4, 953, Note_on_c, 1, 54, 0
4, 1056, Note_on_c, 1, 58, 75
4, 1056, Note_on_c, 1, 46, 75
4, 1145, Note_on_c, 1, 58, 0
4, 1145, Note_on_c, 1, 46, 0
4, 1152, Note_on_c, 1, 60, 75
4, 1152, Note_on_c, 1, 48, 75
4, 1329, Note_on_c, 1, 60, 0
4, 1329, Note_on_c, 1, 48, 0
4, 1440, Note_on_c, 1, 62, 75
4, 1440, Note_on_c, 1, 50, 75
4, 1529, Note_on_c, 1, 62, 0
4, 1529, Note_on_c, 1, 50, 0
4, 1536, Note_on_c, 1, 58, 75
4, 1536, Note_on_c, 1, 46, 75
4, 1625, Note_on_c, 1, 58, 0
4, 1625, Note_on_c, 1, 46, 0
4, 1632, Note_on_c, 1, 54, 75
4, 1632, Note_on_c, 1, 42, 75
4, 1721, Note_on_c, 1, 54, 0
4, 1721, Note_on_c, 1, 42, 0
4, 1728, Note_on_c, 1, 55, 75
4, 1728, Note_on_c, 1, 43, 75
4, 1817, Note_on_c, 1, 55, 0
4, 1817, Note_on_c, 1, 43, 0
4, 1824, Note_on_c, 1, 57, 75
4, 1824, Note_on_c, 1, 45, 75
4, 1913, Note_on_c, 1, 57, 0
4, 1913, Note_on_c, 1, 45, 0
4, 1920, Note_on_c, 1, 58, 75
4, 1920, Note_on_c, 1, 46, 75
4, 2009, Note_on_c, 1, 58, 0
4, 2009, Note_on_c, 1, 46, 0
4, 2016, Note_on_c, 1, 63, 75
4, 2016, Note_on_c, 1, 51, 75
4, 2105, Note_on_c, 1, 63, 0
4, 2105, Note_on_c, 1, 51, 0
4, 2112, Note_on_c, 1, 60, 75
4, 2112, Note_on_c, 1, 48, 75
4, 2201, Note_on_c, 1, 60, 0
4, 2201, Note_on_c, 1, 48, 0
4, 2208, Note_on_c, 1, 62, 75
4, 2208, Note_on_c, 1, 50, 75
4, 2297, Note_on_c, 1, 62, 0
4, 2297, Note_on_c, 1, 50, 0
4, 2400, Note_on_c, 1, 58, 75
4, 2400, Note_on_c, 1, 46, 75
4, 2489, Note_on_c, 1, 58, 0
4, 2489, Note_on_c, 1, 46, 0
4, 2496, Note_on_c, 1, 57, 75
4, 2496, Note_on_c, 1, 45, 75
4, 2585, Note_on_c, 1, 57, 0
4, 2585, Note_on_c, 1, 45, 0
4, 2592, Note_on_c, 1, 55, 75
4, 2592, Note_on_c, 1, 43, 75
4, 2681, Note_on_c, 1, 55, 0
4, 2681, Note_on_c, 1, 43, 0
4, 2784, Note_on_c, 1, 58, 70
4, 2784, Note_on_c, 1, 55, 70
4, 2878, Note_on_c, 1, 58, 0
4, 2878, Note_on_c, 1, 55, 0
4, 2880, Note_on_c, 1, 58, 70
4, 2880, Note_on_c, 1, 55, 70
4, 2974, Note_on_c, 1, 58, 0
4, 2974, Note_on_c, 1, 55, 0
4, 2976, Note_on_c, 1, 58, 70
4, 2976, Note_on_c, 1, 55, 70
4, 3070, Note_on_c, 1, 58, 0
4, 3070, Note_on_c, 1, 55, 0
4, 3072, Note_on_c, 1, 57, 70
4, 3072, Note_on_c, 1, 54, 70
4, 3249, Note_on_c, 1, 57, 0
4, 3249, Note_on_c, 1, 54, 0
4, 3264, Note_on_c, 1, 56, 70
4, 3264, Note_on_c, 1, 53, 70
4, 3441, Note_on_c, 1, 56, 0
4, 3441, Note_on_c, 1, 53, 0
4, 3456, Note_on_c, 1, 55, 70
4, 3633, Note_on_c, 1, 55, 0
4, 3744, Note_on_c, 1, 55, 70
4, 3744, Note_on_c, 1, 51, 70
4, 3833, Note_on_c, 1, 55, 0
4, 3833, Note_on_c, 1, 51, 0
4, 3840, Note_on_c, 1, 53, 70
4, 4017, Note_on_c, 1, 53, 0
4, 4128, Note_on_c, 1, 62, 75
4, 4128, Note_on_c, 1, 50, 75
4, 4217, Note_on_c, 1, 62, 0
4, 4217, Note_on_c, 1, 50, 0
4, 4224, Note_on_c, 1, 63, 75
4, 4224, Note_on_c, 1, 51, 75
4, 4313, Note_on_c, 1, 63, 0
4, 4313, Note_on_c, 1, 51, 0
4, 4320, Note_on_c, 1, 62, 75
4, 4320, Note_on_c, 1, 50, 75
4, 4409, Note_on_c, 1, 62, 0
4, 4409, Note_on_c, 1, 50, 0
4, 4512, Note_on_c, 1, 62, 75
4, 4512, Note_on_c, 1, 50, 75
4, 4601, Note_on_c, 1, 62, 0
4, 4601, Note_on_c, 1, 50, 0
4, 4608, Note_on_c, 1, 57, 75
4, 4608, Note_on_c, 1, 45, 75
4, 4697, Note_on_c, 1, 57, 0
4, 4697, Note_on_c, 1, 45, 0
4, 4704, Note_on_c, 1, 58, 75
4, 4704, Note_on_c, 1, 46, 75
4, 4793, Note_on_c, 1, 58, 0
4, 4793, Note_on_c, 1, 46, 0
4, 4896, Note_on_c, 1, 62, 75
4, 4896, Note_on_c, 1, 50, 75
4, 4985, Note_on_c, 1, 62, 0
4, 4985, Note_on_c, 1, 50, 0
4, 4992, Note_on_c, 1, 63, 75
4, 4992, Note_on_c, 1, 51, 75
4, 5169, Note_on_c, 1, 63, 0
4, 5169, Note_on_c, 1, 51, 0
4, 5184, Note_on_c, 1, 60, 75
4, 5184, Note_on_c, 1, 48, 75
4, 5273, Note_on_c, 1, 60, 0
4, 5273, Note_on_c, 1, 48, 0
4, 5280, Note_on_c, 1, 65, 75
4, 5280, Note_on_c, 1, 53, 75
4, 5369, Note_on_c, 1, 65, 0
4, 5369, Note_on_c, 1, 53, 0
4, 5376, Note_on_c, 1, 62, 75
4, 5376, Note_on_c, 1, 50, 75
4, 5465, Note_on_c, 1, 62, 0
4, 5465, Note_on_c, 1, 50, 0
4, 5472, Note_on_c, 1, 50, 75
4, 5472, Note_on_c, 1, 38, 75
4, 5561, Note_on_c, 1, 50, 0
4, 5561, Note_on_c, 1, 38, 0
4, 5568, Note_on_c, 1, 51, 76
4, 5568, Note_on_c, 1, 39, 76
4, 5657, Note_on_c, 1, 51, 0
4, 5657, Note_on_c, 1, 39, 0
4, 5664, Note_on_c, 1, 53, 77
4, 5664, Note_on_c, 1, 41, 77
4, 5753, Note_on_c, 1, 53, 0
4, 5753, Note_on_c, 1, 41, 0
4, 5760, Note_on_c, 1, 55, 78
4, 5760, Note_on_c, 1, 43, 78
4, 5849, Note_on_c, 1, 55, 0
4, 5849, Note_on_c, 1, 43, 0
4, 5856, Note_on_c, 1, 50, 75
4, 5856, Note_on_c, 1, 38, 75
4, 5945, Note_on_c, 1, 50, 0
4, 5945, Note_on_c, 1, 38, 0
4, 5952, Note_on_c, 1, 51, 75
4, 5952, Note_on_c, 1, 39, 75
4, 6041, Note_on_c, 1, 51, 0
4, 6041, Note_on_c, 1, 39, 0
4, 6048, Note_on_c, 1, 53, 76
4, 6048, Note_on_c, 1, 41, 76
4, 6137, Note_on_c, 1, 53, 0
4, 6137, Note_on_c, 1, 41, 0
4, 6144, Note_on_c, 1, 55, 77
4, 6144, Note_on_c, 1, 43, 77
4, 6233, Note_on_c, 1, 55, 0
4, 6233, Note_on_c, 1, 43, 0
4, 6240, Note_on_c, 1, 57, 77
4, 6240, Note_on_c, 1, 45, 77
4, 6329, Note_on_c, 1, 57, 0
4, 6329, Note_on_c, 1, 45, 0
4, 6336, Note_on_c, 1, 58, 78
4, 6336, Note_on_c, 1, 46, 78
4, 6425, Note_on_c, 1, 58, 0
4, 6425, Note_on_c, 1, 46, 0
4, 6432, Note_on_c, 1, 60, 79
4, 6432, Note_on_c, 1, 48, 79
4, 6521, Note_on_c, 1, 60, 0
4, 6521, Note_on_c, 1, 48, 0
4, 6528, Note_on_c, 1, 57, 80
4, 6528, Note_on_c, 1, 45, 80
4, 6705, Note_on_c, 1, 57, 0
4, 6705, Note_on_c, 1, 45, 0
4, 6816, Note_on_c, 1, 57, 80
4, 6905, Note_on_c, 1, 57, 0
4, 6912, Note_on_c, 1, 58, 80
4, 7001, Note_on_c, 1, 58, 0
4, 7008, Note_on_c, 1, 58, 75
4, 7053, Note_on_c, 1, 58, 0
4, 7056, Note_on_c, 1, 62, 75
4, 7101, Note_on_c, 1, 62, 0
4, 7104, Note_on_c, 1, 60, 75
4, 7149, Note_on_c, 1, 60, 0
4, 7152, Note_on_c, 1, 63, 75
4, 7197, Note_on_c, 1, 63, 0
4, 7200, Note_on_c, 1, 62, 75
4, 7245, Note_on_c, 1, 62, 0
4, 7248, Note_on_c, 1, 65, 75
4, 7293, Note_on_c, 1, 65, 0
4, 7296, Note_on_c, 1, 63, 75
4, 7429, Note_on_c, 1, 63, 0
4, 7440, Note_on_c, 1, 67, 75
4, 7485, Note_on_c, 1, 67, 0
4, 7488, Note_on_c, 1, 65, 75
4, 7577, Note_on_c, 1, 65, 0
4, 7584, Note_on_c, 1, 53, 75
4, 7673, Note_on_c, 1, 53, 0
4, 7680, Note_on_c, 1, 58, 75
4, 7769, Note_on_c, 1, 58, 0
4, 7776, Note_on_c, 1, 53, 75
4, 7865, Note_on_c, 1, 53, 0
4, 7872, Note_on_c, 1, 46, 75
4, 7961, Note_on_c, 1, 46, 0
4, 8064, Note_on_c, 1, 55, 75
4, 8064, Note_on_c, 1, 43, 75
4, 8153, Note_on_c, 1, 55, 0
4, 8153, Note_on_c, 1, 43, 0
4, 8352, Note_on_c, 1, 54, 75
4, 8352, Note_on_c, 1, 50, 75
4, 8441, Note_on_c, 1, 54, 0
4, 8441, Note_on_c, 1, 50, 0
4, 8448, Note_on_c, 1, 55, 75
4, 8537, Note_on_c, 1, 55, 0
4, 8544, Note_on_c, 1, 54, 75
4, 8633, Note_on_c, 1, 54, 0
4, 8736, Note_on_c, 1, 58, 75
4, 8736, Note_on_c, 1, 46, 75
4, 8825, Note_on_c, 1, 58, 0
4, 8825, Note_on_c, 1, 46, 0
4, 8832, Note_on_c, 1, 60, 75
4, 8832, Note_on_c, 1, 48, 75
4, 9009, Note_on_c, 1, 60, 0
4, 9009, Note_on_c, 1, 48, 0
4, 9120, Note_on_c, 1, 62, 75
4, 9120, Note_on_c, 1, 50, 75
4, 9209, Note_on_c, 1, 62, 0
4, 9209, Note_on_c, 1, 50, 0
4, 9216, Note_on_c, 1, 58, 75
4, 9216, Note_on_c, 1, 46, 75
4, 9305, Note_on_c, 1, 58, 0
4, 9305, Note_on_c, 1, 46, 0
4, 9312, Note_on_c, 1, 54, 75
4, 9312, Note_on_c, 1, 42, 75
4, 9401, Note_on_c, 1, 54, 0
4, 9401, Note_on_c, 1, 42, 0
4, 9408, Note_on_c, 1, 55, 75
4, 9408, Note_on_c, 1, 43, 75
4, 9497, Note_on_c, 1, 55, 0
4, 9497, Note_on_c, 1, 43, 0
4, 9504, Note_on_c, 1, 57, 75
4, 9504, Note_on_c, 1, 45, 75
4, 9593, Note_on_c, 1, 57, 0
4, 9593, Note_on_c, 1, 45, 0
4, 9600, Note_on_c, 1, 58, 75
4, 9600, Note_on_c, 1, 46, 75
4, 9689, Note_on_c, 1, 58, 0
4, 9689, Note_on_c, 1, 46, 0
4, 9696, Note_on_c, 1, 63, 75
4, 9696, Note_on_c, 1, 51, 75
4, 9785, Note_on_c, 1, 63, 0
4, 9785, Note_on_c, 1, 51, 0
4, 9792, Note_on_c, 1, 60, 75
4, 9792, Note_on_c, 1, 48, 75
4, 9881, Note_on_c, 1, 60, 0
4, 9881, Note_on_c, 1, 48, 0
4, 9888, Note_on_c, 1, 62, 75
4, 9888, Note_on_c, 1, 50, 75
4, 9977, Note_on_c, 1, 62, 0
4, 9977, Note_on_c, 1, 50, 0
4, 10080, Note_on_c, 1, 58, 75
4, 10080, Note_on_c, 1, 46, 75
4, 10169, Note_on_c, 1, 58, 0
4, 10169, Note_on_c, 1, 46, 0
4, 10176, Note_on_c, 1, 57, 75
4, 10176, Note_on_c, 1, 45, 75
4, 10265, Note_on_c, 1, 57, 0
4, 10265, Note_on_c, 1, 45, 0
4, 10272, Note_on_c, 1, 55, 75
4, 10272, Note_on_c, 1, 43, 75
4, 10361, Note_on_c, 1, 55, 0
4, 10361, Note_on_c, 1, 43, 0
4, 10464, Note_on_c, 1, 58, 70
4, 10464, Note_on_c, 1, 55, 70
4, 10558, Note_on_c, 1, 58, 0
4, 10558, Note_on_c, 1, 55, 0
4, 10560, Note_on_c, 1, 58, 70
4, 10560, Note_on_c, 1, 55, 70
4, 10654, Note_on_c, 1, 58, 0
4, 10654, Note_on_c, 1, 55, 0
4, 10656, Note_on_c, 1, 58, 70
4, 10656, Note_on_c, 1, 55, 70
4, 10750, Note_on_c, 1, 58, 0
4, 10750, Note_on_c, 1, 55, 0
4, 10752, Note_on_c, 1, 57, 70
4, 10752, Note_on_c, 1, 54, 70
4, 10929, Note_on_c, 1, 57, 0
4, 10929, Note_on_c, 1, 54, 0
4, 10944, Note_on_c, 1, 56, 70
4, 10944, Note_on_c, 1, 53, 70
4, 11121, Note_on_c, 1, 56, 0
4, 11121, Note_on_c, 1, 53, 0
4, 11136, Note_on_c, 1, 55, 70
4, 11313, Note_on_c, 1, 55, 0
4, 11424, Note_on_c, 1, 55, 70
4, 11424, Note_on_c, 1, 51, 70
4, 11513, Note_on_c, 1, 55, 0
4, 11513, Note_on_c, 1, 51, 0
4, 11520, Note_on_c, 1, 53, 70
4, 11697, Note_on_c, 1, 53, 0
4, 11808, Note_on_c, 1, 62, 75
4, 11808, Note_on_c, 1, 50, 75
4, 11897, Note_on_c, 1, 62, 0
4, 11897, Note_on_c, 1, 50, 0
4, 11904, Note_on_c, 1, 63, 75
4, 11904, Note_on_c, 1, 51, 75
4, 11993, Note_on_c, 1, 63, 0
4, 11993, Note_on_c, 1, 51, 0
4, 12000, Note_on_c, 1, 62, 75
4, 12000, Note_on_c, 1, 50, 75
4, 12089, Note_on_c, 1, 62, 0
4, 12089, Note_on_c, 1, 50, 0
4, 12192, Note_on_c, 1, 62, 75
4, 12192, Note_on_c, 1, 50, 75
4, 12281, Note_on_c, 1, 62, 0
4, 12281, Note_on_c, 1, 50, 0
4, 12288, Note_on_c, 1, 57, 75
4, 12288, Note_on_c, 1, 45, 75
4, 12377, Note_on_c, 1, 57, 0
4, 12377, Note_on_c, 1, 45, 0
4, 12384, Note_on_c, 1, 58, 75
4, 12384, Note_on_c, 1, 46, 75
4, 12473, Note_on_c, 1, 58, 0
4, 12473, Note_on_c, 1, 46, 0
4, 12576, Note_on_c, 1, 62, 75
4, 12576, Note_on_c, 1, 50, 75
4, 12665, Note_on_c, 1, 62, 0
4, 12665, Note_on_c, 1, 50, 0
4, 12672, Note_on_c, 1, 63, 75
4, 12672, Note_on_c, 1, 51, 75
4, 12849, Note_on_c, 1, 63, 0
4, 12849, Note_on_c, 1, 51, 0
4, 12864, Note_on_c, 1, 60, 75
4, 12864, Note_on_c, 1, 48, 75
4, 12953, Note_on_c, 1, 60, 0
4, 12953, Note_on_c, 1, 48, 0
4, 12960, Note_on_c, 1, 65, 75
4, 12960, Note_on_c, 1, 53, 75
4, 13049, Note_on_c, 1, 65, 0
4, 13049, Note_on_c, 1, 53, 0
4, 13056, Note_on_c, 1, 62, 75
4, 13056, Note_on_c, 1, 50, 75
4, 13145, Note_on_c, 1, 62, 0
4, 13145, Note_on_c, 1, 50, 0
4, 13152, Note_on_c, 1, 50, 75
4, 13152, Note_on_c, 1, 38, 75
4, 13241, Note_on_c, 1, 50, 0
4, 13241, Note_on_c, 1, 38, 0
4, 13248, Note_on_c, 1, 51, 76
4, 13248, Note_on_c, 1, 39, 76
4, 13337, Note_on_c, 1, 51, 0
4, 13337, Note_on_c, 1, 39, 0
4, 13344, Note_on_c, 1, 53, 77
4, 13344, Note_on_c, 1, 41, 77
4, 13433, Note_on_c, 1, 53, 0
4, 13433, Note_on_c, 1, 41, 0
4, 13440, Note_on_c, 1, 55, 78
4, 13440, Note_on_c, 1, 43, 78
4, 13529, Note_on_c, 1, 55, 0
4, 13529, Note_on_c, 1, 43, 0
4, 13536, Note_on_c, 1, 50, 75
4, 13536, Note_on_c, 1, 38, 75
4, 13625, Note_on_c, 1, 50, 0
4, 13625, Note_on_c, 1, 38, 0
4, 13632, Note_on_c, 1, 51, 75
4, 13632, Note_on_c, 1, 39, 75
4, 13721, Note_on_c, 1, 51, 0
4, 13721, Note_on_c, 1, 39, 0
4, 13728, Note_on_c, 1, 53, 76
4, 13728, Note_on_c, 1, 41, 76
4, 13817, Note_on_c, 1, 53, 0
4, 13817, Note_on_c, 1, 41, 0
4, 13824, Note_on_c, 1, 55, 77
4, 13824, Note_on_c, 1, 43, 77
4, 13913, Note_on_c, 1, 55, 0
4, 13913, Note_on_c, 1, 43, 0
4, 13920, Note_on_c, 1, 57, 77
4, 13920, Note_on_c, 1, 45, 77
4, 14009, Note_on_c, 1, 57, 0
4, 14009, Note_on_c, 1, 45, 0
4, 14016, Note_on_c, 1, 58, 78
4, 14016, Note_on_c, 1, 46, 78
4, 14105, Note_on_c, 1, 58, 0
4, 14105, Note_on_c, 1, 46, 0
4, 14112, Note_on_c, 1, 60, 79
4, 14112, Note_on_c, 1, 48, 79
4, 14201, Note_on_c, 1, 60, 0
4, 14201, Note_on_c, 1, 48, 0
4, 14208, Note_on_c, 1, 57, 80
4, 14208, Note_on_c, 1, 45, 80
4, 14385, Note_on_c, 1, 57, 0
4, 14385, Note_on_c, 1, 45, 0
4, 14496, Note_on_c, 1, 57, 80
4, 14585, Note_on_c, 1, 57, 0
4, 14592, Note_on_c, 1, 58, 80
4, 14681, Note_on_c, 1, 58, 0
4, 14688, Note_on_c, 1, 58, 75
4, 14733, Note_on_c, 1, 58, 0
4, 14736, Note_on_c, 1, 62, 75
4, 14781, Note_on_c, 1, 62, 0
4, 14784, Note_on_c, 1, 60, 75
4, 14829, Note_on_c, 1, 60, 0
4, 14832, Note_on_c, 1, 63, 75
4, 14877, Note_on_c, 1, 63, 0
4, 14880, Note_on_c, 1, 62, 75
4, 14925, Note_on_c, 1, 62, 0
4, 14928, Note_on_c, 1, 65, 75
4, 14973, Note_on_c, 1, 65, 0
4, 14976, Note_on_c, 1, 63, 75
4, 15109, Note_on_c, 1, 63, 0
4, 15120, Note_on_c, 1, 67, 75
4, 15165, Note_on_c, 1, 67, 0
4, 15168, Note_on_c, 1, 65, 75
4, 15257, Note_on_c, 1, 65, 0
4, 15264, Note_on_c, 1, 53, 75
4, 15353, Note_on_c, 1, 53, 0
4, 15360, Note_on_c, 1, 58, 75
4, 15449, Note_on_c, 1, 58, 0
4, 15456, Note_on_c, 1, 53, 75
4, 15545, Note_on_c, 1, 53, 0
4, 15552, Note_on_c, 1, 46, 75
4, 15641, Note_on_c, 1, 46, 0
4, 15744, Note_on_c, 1, 58, 75
4, 15744, Note_on_c, 1, 46, 75
4, 15833, Note_on_c, 1, 58, 0
4, 15833, Note_on_c, 1, 46, 0
4, 16032, Note_on_c, 1, 57, 75
4, 16032, Note_on_c, 1, 53, 75
4, 16121, Note_on_c, 1, 57, 0
4, 16121, Note_on_c, 1, 53, 0
4, 16128, Note_on_c, 1, 58, 75
4, 16217, Note_on_c, 1, 58, 0
4, 16224, Note_on_c, 1, 57, 75
4, 16313, Note_on_c, 1, 57, 0
4, 16512, Note_on_c, 1, 60, 75
4, 16512, Note_on_c, 1, 48, 75
4, 16601, Note_on_c, 1, 60, 0
4, 16601, Note_on_c, 1, 48, 0
4, 16800, Note_on_c, 1, 59, 75
4, 16800, Note_on_c, 1, 55, 75
4, 16889, Note_on_c, 1, 59, 0
4, 16889, Note_on_c, 1, 55, 0
4, 16896, Note_on_c, 1, 60, 75
4, 16985, Note_on_c, 1, 60, 0
4, 16992, Note_on_c, 1, 59, 75
4, 17081, Note_on_c, 1, 59, 0
4, 17184, Note_on_c, 1, 59, 75
4, 17184, Note_on_c, 1, 53, 75
4, 17273, Note_on_c, 1, 59, 0
4, 17273, Note_on_c, 1, 53, 0
4, 17376, Note_on_c, 1, 60, 76
4, 17376, Note_on_c, 1, 51, 76
4, 17465, Note_on_c, 1, 60, 0
4, 17465, Note_on_c, 1, 51, 0
4, 17568, Note_on_c, 1, 62, 78
4, 17568, Note_on_c, 1, 50, 78
4, 17657, Note_on_c, 1, 62, 0
4, 17657, Note_on_c, 1, 50, 0
4, 17664, Note_on_c, 1, 63, 79
4, 17664, Note_on_c, 1, 51, 79
4, 17753, Note_on_c, 1, 63, 0
4, 17753, Note_on_c, 1, 51, 0
4, 17760, Note_on_c, 1, 59, 80
4, 17760, Note_on_c, 1, 47, 80
4, 17849, Note_on_c, 1, 59, 0
4, 17849, Note_on_c, 1, 47, 0
4, 17856, Note_on_c, 1, 60, 80
4, 17856, Note_on_c, 1, 48, 80
4, 17945, Note_on_c, 1, 60, 0
4, 17945, Note_on_c, 1, 48, 0
4, 17952, Note_on_c, 1, 62, 80
4, 17952, Note_on_c, 1, 50, 80
4, 18041, Note_on_c, 1, 62, 0
4, 18041, Note_on_c, 1, 50, 0
4, 18048, Note_on_c, 1, 63, 80
4, 18048, Note_on_c, 1, 51, 80
4, 18137, Note_on_c, 1, 63, 0
4, 18137, Note_on_c, 1, 51, 0
4, 18144, Note_on_c, 1, 56, 75
4, 18144, Note_on_c, 1, 44, 75
4, 18233, Note_on_c, 1, 56, 0
4, 18233, Note_on_c, 1, 44, 0
4, 18240, Note_on_c, 1, 53, 76
4, 18240, Note_on_c, 1, 41, 76
4, 18329, Note_on_c, 1, 53, 0
4, 18329, Note_on_c, 1, 41, 0
4, 18336, Note_on_c, 1, 55, 77
4, 18336, Note_on_c, 1, 43, 77
4, 18425, Note_on_c, 1, 55, 0
4, 18425, Note_on_c, 1, 43, 0
4, 18528, Note_on_c, 1, 60, 75
4, 18573, Note_on_c, 1, 60, 0
4, 18576, Note_on_c, 1, 63, 75
4, 18621, Note_on_c, 1, 63, 0
4, 18624, Note_on_c, 1, 62, 75
4, 18669, Note_on_c, 1, 62, 0
4, 18672, Note_on_c, 1, 65, 75
4, 18717, Note_on_c, 1, 65, 0
4, 18720, Note_on_c, 1, 63, 75
4, 18765, Note_on_c, 1, 63, 0
4, 18768, Note_on_c, 1, 67, 75
4, 18813, Note_on_c, 1, 67, 0
4, 18816, Note_on_c, 1, 65, 75
4, 18905, Note_on_c, 1, 65, 0
4, 18912, Note_on_c, 1, 67, 75
4, 19001, Note_on_c, 1, 67, 0
4, 19008, Note_on_c, 1, 68, 75
4, 19097, Note_on_c, 1, 68, 0
4, 19104, Note_on_c, 1, 69, 75
4, 19193, Note_on_c, 1, 69, 0
4, 19200, Note_on_c, 1, 70, 75
4, 19289, Note_on_c, 1, 70, 0
4, 19296, Note_on_c, 1, 58, 75
4, 19341, Note_on_c, 1, 58, 0
4, 19344, Note_on_c, 1, 62, 75
4, 19389, Note_on_c, 1, 62, 0
4, 19392, Note_on_c, 1, 60, 75
4, 19437, Note_on_c, 1, 60, 0
4, 19440, Note_on_c, 1, 63, 75
4, 19485, Note_on_c, 1, 63, 0
4, 19488, Note_on_c, 1, 62, 75
4, 19533, Note_on_c, 1, 62, 0
4, 19536, Note_on_c, 1, 65, 75
4, 19581, Note_on_c, 1, 65, 0
4, 19584, Note_on_c, 1, 63, 75
4, 19673, Note_on_c, 1, 63, 0
4, 19680, Note_on_c, 1, 65, 75
4, 19769, Note_on_c, 1, 65, 0
4, 19776, Note_on_c, 1, 67, 75
4, 19865, Note_on_c, 1, 67, 0
4, 19872, Note_on_c, 1, 67, 75
4, 19961, Note_on_c, 1, 67, 0
4, 19968, Note_on_c, 1, 68, 75
4, 20057, Note_on_c, 1, 68, 0
4, 20064, Note_on_c, 1, 56, 75
4, 20109, Note_on_c, 1, 56, 0
4, 20112, Note_on_c, 1, 60, 75
4, 20157, Note_on_c, 1, 60, 0
4, 20160, Note_on_c, 1, 58, 75
4, 20205, Note_on_c, 1, 58, 0
4, 20208, Note_on_c, 1, 62, 75
4, 20253, Note_on_c, 1, 62, 0
4, 20256, Note_on_c, 1, 60, 75
4, 20301, Note_on_c, 1, 60, 0
4, 20304, Note_on_c, 1, 63, 75
4, 20349, Note_on_c, 1, 63, 0
4, 20352, Note_on_c, 1, 62, 75
4, 20441, Note_on_c, 1, 62, 0
4, 20448, Note_on_c, 1, 63, 75
4, 20537, Note_on_c, 1, 63, 0
4, 20544, Note_on_c, 1, 65, 75
4, 20633, Note_on_c, 1, 65, 0
4, 20640, Note_on_c, 1, 66, 75
4, 20729, Note_on_c, 1, 66, 0
4, 20736, Note_on_c, 1, 67, 75
4, 20825, Note_on_c, 1, 67, 0
4, 20832, Note_on_c, 1, 55, 75
4, 20877, Note_on_c, 1, 55, 0
4, 20880, Note_on_c, 1, 59, 75
4, 20925, Note_on_c, 1, 59, 0
4, 20928, Note_on_c, 1, 57, 75
4, 20973, Note_on_c, 1, 57, 0
4, 20976, Note_on_c, 1, 60, 75
4, 21021, Note_on_c, 1, 60, 0
4, 21024, Note_on_c, 1, 59, 75
4, 21069, Note_on_c, 1, 59, 0
4, 21072, Note_on_c, 1, 62, 75
4, 21117, Note_on_c, 1, 62, 0
4, 21120, Note_on_c, 1, 60, 80
4, 21209, Note_on_c, 1, 60, 0
4, 21312, Note_on_c, 1, 59, 80
4, 21312, Note_on_c, 1, 47, 80
4, 21401, Note_on_c, 1, 59, 0
4, 21401, Note_on_c, 1, 47, 0
4, 21504, Note_on_c, 1, 60, 64
4, 21504, Note_on_c, 1, 48, 64
4, 21593, Note_on_c, 1, 60, 0
4, 21593, Note_on_c, 1, 48, 0
4, 21696, Note_on_c, 1, 59, 64
4, 21696, Note_on_c, 1, 47, 64
4, 21785, Note_on_c, 1, 59, 0
4, 21785, Note_on_c, 1, 47, 0
4, 21888, Note_on_c, 1, 60, 80
4, 21888, Note_on_c, 1, 48, 80
4, 22065, Note_on_c, 1, 60, 0
4, 22065, Note_on_c, 1, 48, 0
4, 22080, Note_on_c, 1, 58, 80
4, 22080, Note_on_c, 1, 46, 80
4, 22257, Note_on_c, 1, 58, 0
4, 22257, Note_on_c, 1, 46, 0
4, 22272, Note_on_c, 1, 57, 80
4, 22361, Note_on_c, 1, 57, 0
4, 22368, Note_on_c, 1, 54, 80
4, 22457, Note_on_c, 1, 54, 0
4, 22464, Note_on_c, 1, 55, 80
4, 22553, Note_on_c, 1, 55, 0
4, 22848, Note_on_c, 1, 54, 80
4, 22937, Note_on_c, 1, 54, 0
4, 22944, Note_on_c, 1, 55, 80
4, 23033, Note_on_c, 1, 55, 0
4, 23040, Note_on_c, 1, 62, 80
4, 23217, Note_on_c, 1, 62, 0
4, 23232, Note_on_c, 1, 54, 80
4, 23321, Note_on_c, 1, 54, 0
4, 23328, Note_on_c, 1, 55, 80
4, 23417, Note_on_c, 1, 55, 0
4, 23424, Note_on_c, 1, 62, 80
4, 23513, Note_on_c, 1, 62, 0
4, 23808, Note_on_c, 1, 55, 80
4, 23808, Note_on_c, 1, 43, 80
4, 23897, Note_on_c, 1, 55, 0
4, 23897, Note_on_c, 1, 43, 0
4, 24096, Note_on_c, 1, 54, 75
4, 24096, Note_on_c, 1, 50, 75
4, 24185, Note_on_c, 1, 54, 0
4, 24185, Note_on_c, 1, 50, 0
4, 24192, Note_on_c, 1, 55, 75
4, 24281, Note_on_c, 1, 55, 0
4, 24288, Note_on_c, 1, 54, 75
4, 24377, Note_on_c, 1, 54, 0
4, 24480, Note_on_c, 1, 58, 75
4, 24480, Note_on_c, 1, 46, 75
4, 24569, Note_on_c, 1, 58, 0
4, 24569, Note_on_c, 1, 46, 0
4, 24576, Note_on_c, 1, 60, 75
4, 24576, Note_on_c, 1, 48, 75
4, 24753, Note_on_c, 1, 60, 0
4, 24753, Note_on_c, 1, 48, 0
4, 24864, Note_on_c, 1, 62, 75
4, 24864, Note_on_c, 1, 50, 75
4, 24953, Note_on_c, 1, 62, 0
4, 24953, Note_on_c, 1, 50, 0
4, 24960, Note_on_c, 1, 58, 75
4, 24960, Note_on_c, 1, 46, 75
4, 25049, Note_on_c, 1, 58, 0
4, 25049, Note_on_c, 1, 46, 0
4, 25056, Note_on_c, 1, 54, 75
4, 25056, Note_on_c, 1, 42, 75
4, 25145, Note_on_c, 1, 54, 0
4, 25145, Note_on_c, 1, 42, 0
4, 25152, Note_on_c, 1, 55, 75
4, 25152, Note_on_c, 1, 43, 75
4, 25241, Note_on_c, 1, 55, 0
4, 25241, Note_on_c, 1, 43, 0
4, 25248, Note_on_c, 1, 57, 75
4, 25248, Note_on_c, 1, 45, 75
4, 25337, Note_on_c, 1, 57, 0
4, 25337, Note_on_c, 1, 45, 0
4, 25344, Note_on_c, 1, 58, 75
4, 25344, Note_on_c, 1, 46, 75
4, 25433, Note_on_c, 1, 58, 0
4, 25433, Note_on_c, 1, 46, 0
4, 25440, Note_on_c, 1, 63, 75
4, 25440, Note_on_c, 1, 51, 75
4, 25529, Note_on_c, 1, 63, 0
4, 25529, Note_on_c, 1, 51, 0
4, 25536, Note_on_c, 1, 60, 75
4, 25536, Note_on_c, 1, 48, 75
4, 25625, Note_on_c, 1, 60, 0
4, 25625, Note_on_c, 1, 48, 0
4, 25632, Note_on_c, 1, 62, 75
4, 25632, Note_on_c, 1, 50, 75
4, 25721, Note_on_c, 1, 62, 0
4, 25721, Note_on_c, 1, 50, 0
4, 25824, Note_on_c, 1, 58, 75
4, 25824, Note_on_c, 1, 46, 75
4, 25913, Note_on_c, 1, 58, 0
4, 25913, Note_on_c, 1, 46, 0
4, 25920, Note_on_c, 1, 57, 75
4, 25920, Note_on_c, 1, 45, 75
4, 26009, Note_on_c, 1, 57, 0
4, 26009, Note_on_c, 1, 45, 0
4, 26016, Note_on_c, 1, 55, 75
4, 26016, Note_on_c, 1, 43, 75
4, 26105, Note_on_c, 1, 55, 0
4, 26105, Note_on_c, 1, 43, 0
4, 26208, Note_on_c, 1, 58, 70
4, 26208, Note_on_c, 1, 55, 70
4, 26302, Note_on_c, 1, 58, 0
4, 26302, Note_on_c, 1, 55, 0
4, 26304, Note_on_c, 1, 58, 70
4, 26304, Note_on_c, 1, 55, 70
4, 26398, Note_on_c, 1, 58, 0
4, 26398, Note_on_c, 1, 55, 0
4, 26400, Note_on_c, 1, 58, 70
4, 26400, Note_on_c, 1, 55, 70
4, 26494, Note_on_c, 1, 58, 0
4, 26494, Note_on_c, 1, 55, 0
4, 26496, Note_on_c, 1, 57, 70
4, 26496, Note_on_c, 1, 54, 70
4, 26673, Note_on_c, 1, 57, 0
4, 26673, Note_on_c, 1, 54, 0
4, 26688, Note_on_c, 1, 56, 70
4, 26688, Note_on_c, 1, 53, 70
4, 26865, Note_on_c, 1, 56, 0
4, 26865, Note_on_c, 1, 53, 0
4, 26880, Note_on_c, 1, 55, 70
4, 27057, Note_on_c, 1, 55, 0
4, 27168, Note_on_c, 1, 55, 70
4, 27168, Note_on_c, 1, 51, 70
4, 27257, Note_on_c, 1, 55, 0
4, 27257, Note_on_c, 1, 51, 0
4, 27264, Note_on_c, 1, 53, 70
4, 27441, Note_on_c, 1, 53, 0
4, 27552, Note_on_c, 1, 53, 70
4, 27552, Note_on_c, 1, 50, 70
4, 27641, Note_on_c, 1, 53, 0
4, 27641, Note_on_c, 1, 50, 0
4, 27648, Note_on_c, 1, 51, 70
4, 27825, Note_on_c, 1, 51, 0
4, 27936, Note_on_c, 1, 51, 70
4, 27936, Note_on_c, 1, 48, 70
4, 28025, Note_on_c, 1, 51, 0
4, 28025, Note_on_c, 1, 48, 0
4, 28032, Note_on_c, 1, 50, 70
4, 28121, Note_on_c, 1, 50, 0
4, 28128, Note_on_c, 1, 38, 70
4, 28217, Note_on_c, 1, 38, 0
4, 28320, Note_on_c, 1, 54, 75
4, 28320, Note_on_c, 1, 42, 75
4, 28409, Note_on_c, 1, 54, 0
4, 28409, Note_on_c, 1, 42, 0
4, 28416, Note_on_c, 1, 55, 75
4, 28416, Note_on_c, 1, 43, 75
4, 28505, Note_on_c, 1, 55, 0
4, 28505, Note_on_c, 1, 43, 0
4, 28512, Note_on_c, 1, 57, 76
4, 28512, Note_on_c, 1, 45, 76
4, 28601, Note_on_c, 1, 57, 0
4, 28601, Note_on_c, 1, 45, 0
4, 28608, Note_on_c, 1, 58, 77
4, 28608, Note_on_c, 1, 46, 77
4, 28697, Note_on_c, 1, 58, 0
4, 28697, Note_on_c, 1, 46, 0
4, 28704, Note_on_c, 1, 60, 78
4, 28704, Note_on_c, 1, 48, 78
4, 28793, Note_on_c, 1, 60, 0
4, 28793, Note_on_c, 1, 48, 0
4, 28800, Note_on_c, 1, 62, 79
4, 28800, Note_on_c, 1, 50, 79
4, 28889, Note_on_c, 1, 62, 0
4, 28889, Note_on_c, 1, 50, 0
4, 29088, Note_on_c, 1, 54, 75
4, 29088, Note_on_c, 1, 42, 75
4, 29177, Note_on_c, 1, 54, 0
4, 29177, Note_on_c, 1, 42, 0
4, 29184, Note_on_c, 1, 55, 76
4, 29184, Note_on_c, 1, 43, 76
4, 29273, Note_on_c, 1, 55, 0
4, 29273, Note_on_c, 1, 43, 0
4, 29280, Note_on_c, 1, 57, 77
4, 29280, Note_on_c, 1, 45, 77
4, 29369, Note_on_c, 1, 57, 0
4, 29369, Note_on_c, 1, 45, 0
4, 29376, Note_on_c, 1, 58, 78
4, 29376, Note_on_c, 1, 46, 78
4, 29465, Note_on_c, 1, 58, 0
4, 29465, Note_on_c, 1, 46, 0
4, 29472, Note_on_c, 1, 59, 80
4, 29472, Note_on_c, 1, 47, 80
4, 29561, Note_on_c, 1, 59, 0
4, 29561, Note_on_c, 1, 47, 0
4, 29568, Note_on_c, 1, 60, 80
4, 29568, Note_on_c, 1, 48, 80
4, 29657, Note_on_c, 1, 60, 0
4, 29657, Note_on_c, 1, 48, 0
4, 29664, Note_on_c, 1, 57, 80
4, 29664, Note_on_c, 1, 45, 80
4, 29753, Note_on_c, 1, 57, 0
4, 29753, Note_on_c, 1, 45, 0
4, 29760, Note_on_c, 1, 58, 80
4, 29760, Note_on_c, 1, 46, 80
4, 29849, Note_on_c, 1, 58, 0
4, 29849, Note_on_c, 1, 46, 0
4, 29856, Note_on_c, 1, 55, 80
4, 29856, Note_on_c, 1, 43, 80
4, 29945, Note_on_c, 1, 55, 0
4, 29945, Note_on_c, 1, 43, 0
4, 29952, Note_on_c, 1, 57, 80
4, 29952, Note_on_c, 1, 45, 80
4, 30041, Note_on_c, 1, 57, 0
4, 30041, Note_on_c, 1, 45, 0
4, 30048, Note_on_c, 1, 55, 80
4, 30048, Note_on_c, 1, 43, 80
4, 30137, Note_on_c, 1, 55, 0
4, 30137, Note_on_c, 1, 43, 0
4, 30144, Note_on_c, 1, 54, 80
4, 30144, Note_on_c, 1, 42, 80
4, 30233, Note_on_c, 1, 54, 0
4, 30233, Note_on_c, 1, 42, 0
4, 30240, Note_on_c, 1, 50, 80
4, 30240, Note_on_c, 1, 38, 80
4, 30329, Note_on_c, 1, 50, 0
4, 30329, Note_on_c, 1, 38, 0
4, 30336, Note_on_c, 1, 55, 80
4, 30336, Note_on_c, 1, 43, 80
4, 30425, Note_on_c, 1, 55, 0
4, 30425, Note_on_c, 1, 43, 0
4, 30432, Note_on_c, 1, 55, 75
4, 30477, Note_on_c, 1, 55, 0
4, 30480, Note_on_c, 1, 59, 75
4, 30525, Note_on_c, 1, 59, 0
4, 30528, Note_on_c, 1, 57, 75
4, 30573, Note_on_c, 1, 57, 0
4, 30576, Note_on_c, 1, 60, 75
4, 30621, Note_on_c, 1, 60, 0
4, 30624, Note_on_c, 1, 59, 75
4, 30669, Note_on_c, 1, 59, 0
4, 30672, Note_on_c, 1, 62, 75
4, 30717, Note_on_c, 1, 62, 0
4, 30720, Note_on_c, 1, 60, 75
4, 30853, Note_on_c, 1, 60, 0
4, 30864, Note_on_c, 1, 63, 75
4, 30909, Note_on_c, 1, 63, 0
4, 30912, Note_on_c, 1, 62, 75
4, 31001, Note_on_c, 1, 62, 0
4, 31008, Note_on_c, 1, 50, 75
4, 31097, Note_on_c, 1, 50, 0
4, 31104, Note_on_c, 1, 55, 75
4, 31193, Note_on_c, 1, 55, 0
4, 31200, Note_on_c, 1, 55, 75
4, 31245, Note_on_c, 1, 55, 0
4, 31248, Note_on_c, 1, 59, 75
4, 31293, Note_on_c, 1, 59, 0
4, 31296, Note_on_c, 1, 57, 75
4, 31341, Note_on_c, 1, 57, 0
4, 31344, Note_on_c, 1, 60, 75
4, 31389, Note_on_c, 1, 60, 0
4, 31392, Note_on_c, 1, 59, 75
4, 31437, Note_on_c, 1, 59, 0
4, 31440, Note_on_c, 1, 62, 75
4, 31485, Note_on_c, 1, 62, 0
4, 31488, Note_on_c, 1, 60, 75
4, 31621, Note_on_c, 1, 60, 0
4, 31632, Note_on_c, 1, 63, 75
4, 31677, Note_on_c, 1, 63, 0
4, 31680, Note_on_c, 1, 62, 75
4, 31769, Note_on_c, 1, 62, 0
4, 31776, Note_on_c, 1, 50, 75
4, 31865, Note_on_c, 1, 50, 0
4, 31872, Note_on_c, 1, 55, 75
4, 31961, Note_on_c, 1, 55, 0
4, 31968, Note_on_c, 1, 50, 75
4, 32057, Note_on_c, 1, 50, 0
4, 32064, Note_on_c, 1, 43, 75
4, 32153, Note_on_c, 1, 43, 0
4, 32256, Note_on_c, 1, 58, 75
4, 32256, Note_on_c, 1, 46, 75
4, 32345, Note_on_c, 1, 58, 0
4, 32345, Note_on_c, 1, 46, 0
4, 32544, Note_on_c, 1, 57, 75
4, 32544, Note_on_c, 1, 53, 75
4, 32633, Note_on_c, 1, 57, 0
4, 32633, Note_on_c, 1, 53, 0
4, 32640, Note_on_c, 1, 58, 75
4, 32729, Note_on_c, 1, 58, 0
4, 32736, Note_on_c, 1, 57, 75
4, 32825, Note_on_c, 1, 57, 0
4, 33024, Note_on_c, 1, 60, 75
4, 33024, Note_on_c, 1, 48, 75
4, 33113, Note_on_c, 1, 60, 0
4, 33113, Note_on_c, 1, 48, 0
4, 33312, Note_on_c, 1, 59, 75
4, 33312, Note_on_c, 1, 55, 75
4, 33401, Note_on_c, 1, 59, 0
4, 33401, Note_on_c, 1, 55, 0
4, 33408, Note_on_c, 1, 60, 75
4, 33497, Note_on_c, 1, 60, 0
4, 33504, Note_on_c, 1, 59, 75
4, 33593, Note_on_c, 1, 59, 0
4, 33696, Note_on_c, 1, 59, 75
4, 33696, Note_on_c, 1, 53, 75
4, 33785, Note_on_c, 1, 59, 0
4, 33785, Note_on_c, 1, 53, 0
4, 33888, Note_on_c, 1, 60, 76
4, 33888, Note_on_c, 1, 51, 76
4, 33977, Note_on_c, 1, 60, 0
4, 33977, Note_on_c, 1, 51, 0
4, 34080, Note_on_c, 1, 62, 78
4, 34080, Note_on_c, 1, 50, 78
4, 34169, Note_on_c, 1, 62, 0
4, 34169, Note_on_c, 1, 50, 0
4, 34176, Note_on_c, 1, 63, 79
4, 34176, Note_on_c, 1, 51, 79
4, 34265, Note_on_c, 1, 63, 0
4, 34265, Note_on_c, 1, 51, 0
4, 34272, Note_on_c, 1, 59, 80
4, 34272, Note_on_c, 1, 47, 80
4, 34361, Note_on_c, 1, 59, 0
4, 34361, Note_on_c, 1, 47, 0
4, 34368, Note_on_c, 1, 60, 80
4, 34368, Note_on_c, 1, 48, 80
4, 34457, Note_on_c, 1, 60, 0
4, 34457, Note_on_c, 1, 48, 0
4, 34464, Note_on_c, 1, 62, 80
4, 34464, Note_on_c, 1, 50, 80
4, 34553, Note_on_c, 1, 62, 0
4, 34553, Note_on_c, 1, 50, 0
4, 34560, Note_on_c, 1, 63, 80
4, 34560, Note_on_c, 1, 51, 80
4, 34649, Note_on_c, 1, 63, 0
4, 34649, Note_on_c, 1, 51, 0
4, 34656, Note_on_c, 1, 56, 75
4, 34656, Note_on_c, 1, 44, 75
4, 34745, Note_on_c, 1, 56, 0
4, 34745, Note_on_c, 1, 44, 0
4, 34752, Note_on_c, 1, 53, 76
4, 34752, Note_on_c, 1, 41, 76
4, 34841, Note_on_c, 1, 53, 0
4, 34841, Note_on_c, 1, 41, 0
4, 34848, Note_on_c, 1, 55, 77
4, 34848, Note_on_c, 1, 43, 77
4, 34937, Note_on_c, 1, 55, 0
4, 34937, Note_on_c, 1, 43, 0
4, 35040, Note_on_c, 1, 60, 75
4, 35085, Note_on_c, 1, 60, 0
4, 35088, Note_on_c, 1, 63, 75
4, 35133, Note_on_c, 1, 63, 0
4, 35136, Note_on_c, 1, 62, 75
4, 35181, Note_on_c, 1, 62, 0
4, 35184, Note_on_c, 1, 65, 75
4, 35229, Note_on_c, 1, 65, 0
4, 35232, Note_on_c, 1, 63, 75
4, 35277, Note_on_c, 1, 63, 0
4, 35280, Note_on_c, 1, 67, 75
4, 35325, Note_on_c, 1, 67, 0
4, 35328, Note_on_c, 1, 65, 75
4, 35417, Note_on_c, 1, 65, 0
4, 35424, Note_on_c, 1, 67, 75
4, 35513, Note_on_c, 1, 67, 0
4, 35520, Note_on_c, 1, 68, 75
4, 35609, Note_on_c, 1, 68, 0
4, 35616, Note_on_c, 1, 69, 75
4, 35705, Note_on_c, 1, 69, 0
4, 35712, Note_on_c, 1, 70, 75
4, 35801, Note_on_c, 1, 70, 0
4, 35808, Note_on_c, 1, 58, 75
4, 35853, Note_on_c, 1, 58, 0
4, 35856, Note_on_c, 1, 62, 75
4, 35901, Note_on_c, 1, 62, 0
4, 35904, Note_on_c, 1, 60, 75
4, 35949, Note_on_c, 1, 60, 0
4, 35952, Note_on_c, 1, 63, 75
4, 35997, Note_on_c, 1, 63, 0
4, 36000, Note_on_c, 1, 62, 75
4, 36045, Note_on_c, 1, 62, 0
4, 36048, Note_on_c, 1, 65, 75
4, 36093, Note_on_c, 1, 65, 0
4, 36096, Note_on_c, 1, 63, 75
4, 36185, Note_on_c, 1, 63, 0
4, 36192, Note_on_c, 1, 65, 75
4, 36281, Note_on_c, 1, 65, 0
4, 36288, Note_on_c, 1, 67, 75
4, 36377, Note_on_c, 1, 67, 0
4, 36384, Note_on_c, 1, 67, 75
4, 36473, Note_on_c, 1, 67, 0
4, 36480, Note_on_c, 1, 68, 75
4, 36569, Note_on_c, 1, 68, 0
4, 36576, Note_on_c, 1, 56, 75
4, 36621, Note_on_c, 1, 56, 0
4, 36624, Note_on_c, 1, 60, 75
4, 36669, Note_on_c, 1, 60, 0
4, 36672, Note_on_c, 1, 58, 75
4, 36717, Note_on_c, 1, 58, 0
4, 36720, Note_on_c, 1, 62, 75
4, 36765, Note_on_c, 1, 62, 0
4, 36768, Note_on_c, 1, 60, 75
4, 36813, Note_on_c, 1, 60, 0
4, 36816, Note_on_c, 1, 63, 75
4, 36861, Note_on_c, 1, 63, 0
4, 36864, Note_on_c, 1, 62, 75
4, 36953, Note_on_c, 1, 62, 0
4, 36960, Note_on_c, 1, 63, 75
4, 37049, Note_on_c, 1, 63, 0
4, 37056, Note_on_c, 1, 65, 75
4, 37145, Note_on_c, 1, 65, 0
4, 37152, Note_on_c, 1, 66, 75
4, 37241, Note_on_c, 1, 66, 0
4, 37248, Note_on_c, 1, 67, 75
4, 37337, Note_on_c, 1, 67, 0
4, 37344, Note_on_c, 1, 55, 75
4, 37389, Note_on_c, 1, 55, 0
4, 37392, Note_on_c, 1, 59, 75
4, 37437, Note_on_c, 1, 59, 0
4, 37440, Note_on_c, 1, 57, 75
4, 37485, Note_on_c, 1, 57, 0
4, 37488, Note_on_c, 1, 60, 75
4, 37533, Note_on_c, 1, 60, 0
4, 37536, Note_on_c, 1, 59, 75
4, 37581, Note_on_c, 1, 59, 0
4, 37584, Note_on_c, 1, 62, 75
4, 37629, Note_on_c, 1, 62, 0
4, 37632, Note_on_c, 1, 60, 80
4, 37721, Note_on_c, 1, 60, 0
4, 37824, Note_on_c, 1, 59, 80
4, 37824, Note_on_c, 1, 47, 80
4, 37913, Note_on_c, 1, 59, 0
4, 37913, Note_on_c, 1, 47, 0
4, 38016, Note_on_c, 1, 60, 64
4, 38016, Note_on_c, 1, 48, 64
4, 38105, Note_on_c, 1, 60, 0
4, 38105, Note_on_c, 1, 48, 0
4, 38208, Note_on_c, 1, 59, 64
4, 38208, Note_on_c, 1, 47, 64
4, 38297, Note_on_c, 1, 59, 0
4, 38297, Note_on_c, 1, 47, 0
4, 38400, Note_on_c, 1, 60, 80
4, 38400, Note_on_c, 1, 48, 80
4, 38577, Note_on_c, 1, 60, 0
4, 38577, Note_on_c, 1, 48, 0
4, 38592, Note_on_c, 1, 58, 80
4, 38592, Note_on_c, 1, 46, 80
4, 38769, Note_on_c, 1, 58, 0
4, 38769, Note_on_c, 1, 46, 0
4, 38784, Note_on_c, 1, 57, 80
4, 38873, Note_on_c, 1, 57, 0
4, 38880, Note_on_c, 1, 54, 80
4, 38969, Note_on_c, 1, 54, 0
4, 38976, Note_on_c, 1, 55, 80
4, 39065, Note_on_c, 1, 55, 0
4, 39360, Note_on_c, 1, 54, 80
4, 39449, Note_on_c, 1, 54, 0
4, 39456, Note_on_c, 1, 55, 80
4, 39545, Note_on_c, 1, 55, 0
4, 39552, Note_on_c, 1, 62, 80
4, 39729, Note_on_c, 1, 62, 0
4, 39744, Note_on_c, 1, 54, 80
4, 39833, Note_on_c, 1, 54, 0
4, 39840, Note_on_c, 1, 55, 80
4, 39929, Note_on_c, 1, 55, 0
4, 39936, Note_on_c, 1, 62, 80
4, 40025, Note_on_c, 1, 62, 0
4, 40320, Note_on_c, 1, 55, 80
4, 40320, Note_on_c, 1, 43, 80
4, 40409, Note_on_c, 1, 55, 0
4, 40409, Note_on_c, 1, 43, 0
4, 40608, Note_on_c, 1, 54, 75
4, 40608, Note_on_c, 1, 50, 75
4, 40697, Note_on_c, 1, 54, 0
4, 40697, Note_on_c, 1, 50, 0
4, 40704, Note_on_c, 1, 55, 75
4, 40793, Note_on_c, 1, 55, 0
4, 40800, Note_on_c, 1, 54, 75
4, 40889, Note_on_c, 1, 54, 0
4, 40992, Note_on_c, 1, 58, 75
4, 40992, Note_on_c, 1, 46, 75
4, 41081, Note_on_c, 1, 58, 0
4, 41081, Note_on_c, 1, 46, 0
4, 41088, Note_on_c, 1, 60, 75
4, 41088, Note_on_c, 1, 48, 75
4, 41265, Note_on_c, 1, 60, 0
4, 41265, Note_on_c, 1, 48, 0
4, 41376, Note_on_c, 1, 62, 75
4, 41376, Note_on_c, 1, 50, 75
4, 41465, Note_on_c, 1, 62, 0
4, 41465, Note_on_c, 1, 50, 0
4, 41472, Note_on_c, 1, 58, 75
4, 41472, Note_on_c, 1, 46, 75
4, 41561, Note_on_c, 1, 58, 0
4, 41561, Note_on_c, 1, 46, 0
4, 41568, Note_on_c, 1, 54, 75
4, 41568, Note_on_c, 1, 42, 75
4, 41657, Note_on_c, 1, 54, 0
4, 41657, Note_on_c, 1, 42, 0
4, 41664, Note_on_c, 1, 55, 75
4, 41664, Note_on_c, 1, 43, 75
4, 41753, Note_on_c, 1, 55, 0
4, 41753, Note_on_c, 1, 43, 0
4, 41760, Note_on_c, 1, 57, 75
4, 41760, Note_on_c, 1, 45, 75
4, 41849, Note_on_c, 1, 57, 0
4, 41849, Note_on_c, 1, 45, 0
4, 41856, Note_on_c, 1, 58, 75
4, 41856, Note_on_c, 1, 46, 75
4, 41945, Note_on_c, 1, 58, 0
4, 41945, Note_on_c, 1, 46, 0
4, 41952, Note_on_c, 1, 63, 75
4, 41952, Note_on_c, 1, 51, 75
4, 42041, Note_on_c, 1, 63, 0
4, 42041, Note_on_c, 1, 51, 0
4, 42048, Note_on_c, 1, 60, 75
4, 42048, Note_on_c, 1, 48, 75
4, 42137, Note_on_c, 1, 60, 0
4, 42137, Note_on_c, 1, 48, 0
4, 42144, Note_on_c, 1, 62, 75
4, 42144, Note_on_c, 1, 50, 75
4, 42233, Note_on_c, 1, 62, 0
4, 42233, Note_on_c, 1, 50, 0
4, 42336, Note_on_c, 1, 58, 75
4, 42336, Note_on_c, 1, 46, 75
4, 42425, Note_on_c, 1, 58, 0
4, 42425, Note_on_c, 1, 46, 0
4, 42432, Note_on_c, 1, 57, 75
4, 42432, Note_on_c, 1, 45, 75
4, 42521, Note_on_c, 1, 57, 0
4, 42521, Note_on_c, 1, 45, 0
4, 42528, Note_on_c, 1, 55, 75
4, 42528, Note_on_c, 1, 43, 75
4, 42617, Note_on_c, 1, 55, 0
4, 42617, Note_on_c, 1, 43, 0
4, 42720, Note_on_c, 1, 58, 70
4, 42720, Note_on_c, 1, 55, 70
4, 42814, Note_on_c, 1, 58, 0
4, 42814, Note_on_c, 1, 55, 0
4, 42816, Note_on_c, 1, 58, 70
4, 42816, Note_on_c, 1, 55, 70
4, 42910, Note_on_c, 1, 58, 0
4, 42910, Note_on_c, 1, 55, 0
4, 42912, Note_on_c, 1, 58, 70
4, 42912, Note_on_c, 1, 55, 70
4, 43006, Note_on_c, 1, 58, 0
4, 43006, Note_on_c, 1, 55, 0
4, 43008, Note_on_c, 1, 57, 70
4, 43008, Note_on_c, 1, 54, 70
4, 43185, Note_on_c, 1, 57, 0
4, 43185, Note_on_c, 1, 54, 0
4, 43200, Note_on_c, 1, 56, 70
4, 43200, Note_on_c, 1, 53, 70
4, 43377, Note_on_c, 1, 56, 0
4, 43377, Note_on_c, 1, 53, 0
4, 43392, Note_on_c, 1, 55, 70
4, 43569, Note_on_c, 1, 55, 0
4, 43680, Note_on_c, 1, 55, 70
4, 43680, Note_on_c, 1, 51, 70
4, 43769, Note_on_c, 1, 55, 0
4, 43769, Note_on_c, 1, 51, 0
4, 43776, Note_on_c, 1, 53, 70
4, 43953, Note_on_c, 1, 53, 0
4, 44064, Note_on_c, 1, 53, 70
4, 44064, Note_on_c, 1, 50, 70
4, 44153, Note_on_c, 1, 53, 0
4, 44153, Note_on_c, 1, 50, 0
4, 44160, Note_on_c, 1, 51, 70
4, 44337, Note_on_c, 1, 51, 0
4, 44448, Note_on_c, 1, 51, 70
4, 44448, Note_on_c, 1, 48, 70
4, 44537, Note_on_c, 1, 51, 0
4, 44537, Note_on_c, 1, 48, 0
4, 44544, Note_on_c, 1, 50, 70
4, 44633, Note_on_c, 1, 50, 0
4, 44640, Note_on_c, 1, 38, 70
4, 44729, Note_on_c, 1, 38, 0
4, 44832, Note_on_c, 1, 54, 75
4, 44832, Note_on_c, 1, 42, 75
4, 44921, Note_on_c, 1, 54, 0
4, 44921, Note_on_c, 1, 42, 0
4, 44928, Note_on_c, 1, 55, 75
4, 44928, Note_on_c, 1, 43, 75
4, 45017, Note_on_c, 1, 55, 0
4, 45017, Note_on_c, 1, 43, 0
4, 45024, Note_on_c, 1, 57, 76
4, 45024, Note_on_c, 1, 45, 76
4, 45113, Note_on_c, 1, 57, 0
4, 45113, Note_on_c, 1, 45, 0
4, 45120, Note_on_c, 1, 58, 77
4, 45120, Note_on_c, 1, 46, 77
4, 45209, Note_on_c, 1, 58, 0
4, 45209, Note_on_c, 1, 46, 0
4, 45216, Note_on_c, 1, 60, 78
4, 45216, Note_on_c, 1, 48, 78
4, 45305, Note_on_c, 1, 60, 0
4, 45305, Note_on_c, 1, 48, 0
4, 45312, Note_on_c, 1, 62, 79
4, 45312, Note_on_c, 1, 50, 79
4, 45401, Note_on_c, 1, 62, 0
4, 45401, Note_on_c, 1, 50, 0
4, 45600, Note_on_c, 1, 54, 75
4, 45600, Note_on_c, 1, 42, 75
4, 45689, Note_on_c, 1, 54, 0
4, 45689, Note_on_c, 1, 42, 0
4, 45696, Note_on_c, 1, 55, 76
4, 45696, Note_on_c, 1, 43, 76
4, 45785, Note_on_c, 1, 55, 0
4, 45785, Note_on_c, 1, 43, 0
4, 45792, Note_on_c, 1, 57, 77
4, 45792, Note_on_c, 1, 45, 77
4, 45881, Note_on_c, 1, 57, 0
4, 45881, Note_on_c, 1, 45, 0
4, 45888, Note_on_c, 1, 58, 78
4, 45888, Note_on_c, 1, 46, 78
4, 45977, Note_on_c, 1, 58, 0
4, 45977, Note_on_c, 1, 46, 0
4, 45984, Note_on_c, 1, 59, 80
4, 45984, Note_on_c, 1, 47, 80
4, 46073, Note_on_c, 1, 59, 0
4, 46073, Note_on_c, 1, 47, 0
4, 46080, Note_on_c, 1, 60, 80
4, 46080, Note_on_c, 1, 48, 80
4, 46169, Note_on_c, 1, 60, 0
4, 46169, Note_on_c, 1, 48, 0
4, 46176, Note_on_c, 1, 57, 80
4, 46176, Note_on_c, 1, 45, 80
4, 46265, Note_on_c, 1, 57, 0
4, 46265, Note_on_c, 1, 45, 0
4, 46272, Note_on_c, 1, 58, 80
4, 46272, Note_on_c, 1, 46, 80
4, 46361, Note_on_c, 1, 58, 0
4, 46361, Note_on_c, 1, 46, 0
4, 46368, Note_on_c, 1, 55, 80
4, 46368, Note_on_c, 1, 43, 80
4, 46457, Note_on_c, 1, 55, 0
4, 46457, Note_on_c, 1, 43, 0
4, 46464, Note_on_c, 1, 57, 80
4, 46464, Note_on_c, 1, 45, 80
4, 46553, Note_on_c, 1, 57, 0
4, 46553, Note_on_c, 1, 45, 0
4, 46560, Note_on_c, 1, 55, 80
4, 46560, Note_on_c, 1, 43, 80
4, 46649, Note_on_c, 1, 55, 0
4, 46649, Note_on_c, 1, 43, 0
4, 46656, Note_on_c, 1, 54, 80
4, 46656, Note_on_c, 1, 42, 80
4, 46745, Note_on_c, 1, 54, 0
4, 46745, Note_on_c, 1, 42, 0
4, 46752, Note_on_c, 1, 50, 80
4, 46752, Note_on_c, 1, 38, 80
4, 46841, Note_on_c, 1, 50, 0
4, 46841, Note_on_c, 1, 38, 0
4, 46848, Note_on_c, 1, 55, 80
4, 46848, Note_on_c, 1, 43, 80
4, 46937, Note_on_c, 1, 55, 0
4, 46937, Note_on_c, 1, 43, 0
4, 46944, Note_on_c, 1, 55, 75
4, 46989, Note_on_c, 1, 55, 0
4, 46992, Note_on_c, 1, 59, 75
4, 47037, Note_on_c, 1, 59, 0
4, 47040, Note_on_c, 1, 57, 75
4, 47085, Note_on_c, 1, 57, 0
4, 47088, Note_on_c, 1, 60, 75
4, 47133, Note_on_c, 1, 60, 0
4, 47136, Note_on_c, 1, 59, 75
4, 47181, Note_on_c, 1, 59, 0
4, 47184, Note_on_c, 1, 62, 75
4, 47229, Note_on_c, 1, 62, 0
4, 47232, Note_on_c, 1, 60, 75
4, 47365, Note_on_c, 1, 60, 0
4, 47376, Note_on_c, 1, 63, 75
4, 47421, Note_on_c, 1, 63, 0
4, 47424, Note_on_c, 1, 62, 75
4, 47513, Note_on_c, 1, 62, 0
4, 47520, Note_on_c, 1, 50, 75
4, 47609, Note_on_c, 1, 50, 0
4, 47616, Note_on_c, 1, 55, 75
4, 47705, Note_on_c, 1, 55, 0
4, 47712, Note_on_c, 1, 55, 75
4, 47757, Note_on_c, 1, 55, 0
4, 47760, Note_on_c, 1, 59, 75
4, 47805, Note_on_c, 1, 59, 0
4, 47808, Note_on_c, 1, 57, 75
4, 47853, Note_on_c, 1, 57, 0
4, 47856, Note_on_c, 1, 60, 75
4, 47901, Note_on_c, 1, 60, 0
4, 47904, Note_on_c, 1, 59, 75
4, 47949, Note_on_c, 1, 59, 0
4, 47952, Note_on_c, 1, 62, 75
4, 47997, Note_on_c, 1, 62, 0
4, 48000, Note_on_c, 1, 60, 75
4, 48133, Note_on_c, 1, 60, 0
4, 48144, Note_on_c, 1, 63, 75
4, 48189, Note_on_c, 1, 63, 0
4, 48192, Note_on_c, 1, 62, 75
4, 48281, Note_on_c, 1, 62, 0
4, 48288, Note_on_c, 1, 50, 75
4, 48377, Note_on_c, 1, 50, 0
4, 48384, Note_on_c, 1, 55, 75
4, 48473, Note_on_c, 1, 55, 0
4, 48480, Note_on_c, 1, 50, 75
4, 48569, Note_on_c, 1, 50, 0
4, 48576, Note_on_c, 1, 43, 75
4, 48761, Note_on_c, 1, 43, 0
4, 48768, End_track
5, 0, Start_track
5, 0, Program_c, 1, 0
5, 0, Control_c, 1, 7, 127
5, 0, Control_c, 1, 10, 64
5, 768, Note_on_c, 1, 50, 64
5, 945, Note_on_c, 1, 50, 0
5, 3456, Note_on_c, 1, 53, 64
5, 3552, Note_on_c, 1, 53, 0
5, 3552, Note_on_c, 1, 51, 64
5, 3641, Note_on_c, 1, 51, 0
5, 3840, Note_on_c, 1, 51, 64
5, 3936, Note_on_c, 1, 51, 0
5, 3936, Note_on_c, 1, 50, 64
5, 4025, Note_on_c, 1, 50, 0
5, 8448, Note_on_c, 1, 50, 64
5, 8625, Note_on_c, 1, 50, 0
5, 11136, Note_on_c, 1, 53, 64
5, 11232, Note_on_c, 1, 53, 0
5, 11232, Note_on_c, 1, 51, 64
5, 11321, Note_on_c, 1, 51, 0
5, 11520, Note_on_c, 1, 51, 64
5, 11616, Note_on_c, 1, 51, 0
5, 11616, Note_on_c, 1, 50, 64
5, 11705, Note_on_c, 1, 50, 0
5, 16128, Note_on_c, 1, 53, 64
5, 16305, Note_on_c, 1, 53, 0
5, 16896, Note_on_c, 1, 55, 64
5, 17073, Note_on_c, 1, 55, 0
5, 22656, Note_on_c, 1, 50, 64
5, 23394, Note_on_c, 1, 50, 0
5, 23424, Note_on_c, 1, 50, 64
5, 23557, Note_on_c, 1, 50, 0
5, 23568, Note_on_c, 1, 51, 64
5, 23613, Note_on_c, 1, 51, 0
5, 23616, Note_on_c, 1, 50, 64
5, 23661, Note_on_c, 1, 50, 0
5, 23664, Note_on_c, 1, 48, 64
5, 23709, Note_on_c, 1, 48, 0
5, 23712, Note_on_c, 1, 46, 64
5, 23757, Note_on_c, 1, 46, 0
5, 23760, Note_on_c, 1, 45, 64
5, 23805, Note_on_c, 1, 45, 0
5, 24192, Note_on_c, 1, 50, 64
5, 24369, Note_on_c, 1, 50, 0
5, 26880, Note_on_c, 1, 53, 64
5, 26976, Note_on_c, 1, 53, 0
5, 26976, Note_on_c, 1, 51, 64
5, 27065, Note_on_c, 1, 51, 0
5, 27264, Note_on_c, 1, 51, 64
5, 27360, Note_on_c, 1, 51, 0
5, 27360, Note_on_c, 1, 50, 64
5, 27449, Note_on_c, 1, 50, 0
5, 27648, Note_on_c, 1, 50, 64
5, 27744, Note_on_c, 1, 50, 0
5, 27744, Note_on_c, 1, 48, 64
5, 27833, Note_on_c, 1, 48, 0
5, 32640, Note_on_c, 1, 53, 64
5, 32817, Note_on_c, 1, 53, 0
5, 33408, Note_on_c, 1, 55, 64
5, 33585, Note_on_c, 1, 55, 0
5, 39168, Note_on_c, 1, 50, 64
5, 39906, Note_on_c, 1, 50, 0
5, 39936, Note_on_c, 1, 50, 64
5, 40069, Note_on_c, 1, 50, 0
5, 40080, Note_on_c, 1, 51, 64
5, 40125, Note_on_c, 1, 51, 0
5, 40128, Note_on_c, 1, 50, 64
5, 40173, Note_on_c, 1, 50, 0
5, 40176, Note_on_c, 1, 48, 64
5, 40221, Note_on_c, 1, 48, 0
5, 40224, Note_on_c, 1, 46, 64
5, 40269, Note_on_c, 1, 46, 0
5, 40272, Note_on_c, 1, 45, 64
5, 40317, Note_on_c, 1, 45, 0
5, 40704, Note_on_c, 1, 50, 64
5, 40881, Note_on_c, 1, 50, 0
5, 43392, Note_on_c, 1, 53, 64
5, 43488, Note_on_c, 1, 53, 0
5, 43488, Note_on_c, 1, 51, 64
5, 43577, Note_on_c, 1, 51, 0
5, 43776, Note_on_c, 1, 51, 64
5, 43872, Note_on_c, 1, 51, 0
5, 43872, Note_on_c, 1, 50, 64
5, 43961, Note_on_c, 1, 50, 0
5, 44160, Note_on_c, 1, 50, 64
5, 44256, Note_on_c, 1, 50, 0
5, 44256, Note_on_c, 1, 48, 64
5, 44345, Note_on_c, 1, 48, 0
5, 48768, End_track
6, 0, Start_track
6, 0, Title_t, "Sonata I   Haydn  "
6, 0, End_track
0, 0, End_of_file
