0, 0, Header, 1, 6, 96
1, 0, Start_track
1, 0, Copyright_t, "Copyright  2000 <copyright holder>"
1, 0, Text_t, "Sonata I\015\012"
1, 0, Text_t, "Haydn\015\012"
1, 0, Sequencer_specific, 16, 68, 87, 77, 90, 86, 82, 83, 78, 32, 55, 46, 49, 46, 50, 46, 48
1, 0, Time_signature, 2, 2, 24, 8
1, 0, Tempo, 428571
1, 0, Key_signature, 2, "major"
1, 10128, Tempo, 600000
1, 10320, Tempo, 428571
1, 13056, Tempo, 1200000
1, 13152, Tempo, 2400000
1, 13200, Tempo, 428571
1, 17424, Tempo, 600000
1, 17472, Tempo, 428571
1, 27984, Tempo, 600000
1, 28176, Tempo, 428571
1, 30912, Tempo, 1200000
1, 31008, Tempo, 2400000
1, 31056, Tempo, 428571
1, 35280, Tempo, 600000
1, 35328, Tempo, 428571
1, 38976, End_track
2, 0, Start_track
2, 0, Program_c, 0, 0
2, 0, Control_c, 0, 7, 127
2, 0, Control_c, 0, 10, 64
2, 144, Note_on_c, 0, 78, 75
2, 192, Note_on_c, 0, 78, 0
2, 192, Note_on_c, 0, 79, 75
2, 212, Note_on_c, 0, 79, 0
2, 240, Note_on_c, 0, 76, 75
2, 288, Note_on_c, 0, 76, 0
2, 288, Note_on_c, 0, 78, 75
2, 308, Note_on_c, 0, 78, 0
2, 336, Note_on_c, 0, 75, 75
2, 384, Note_on_c, 0, 75, 0
2, 384, Note_on_c, 0, 76, 75
2, 404, Note_on_c, 0, 76, 0
2, 432, Note_on_c, 0, 73, 75
2, 480, Note_on_c, 0, 73, 0
2, 480, Note_on_c, 0, 74, 75
2, 500, Note_on_c, 0, 74, 0
2, 528, Note_on_c, 0, 71, 75
2, 573, Note_on_c, 0, 71, 0
2, 576, Note_on_c, 0, 69, 75
2, 599, Note_on_c, 0, 69, 0
2, 600, Note_on_c, 0, 68, 75
2, 623, Note_on_c, 0, 68, 0
2, 624, Note_on_c, 0, 66, 75
2, 647, Note_on_c, 0, 66, 0
2, 648, Note_on_c, 0, 64, 75
2, 671, Note_on_c, 0, 64, 0
2, 672, Note_on_c, 0, 63, 75
2, 695, Note_on_c, 0, 63, 0
2, 696, Note_on_c, 0, 64, 75
2, 719, Note_on_c, 0, 64, 0
2, 720, Note_on_c, 0, 66, 75
2, 743, Note_on_c, 0, 66, 0
2, 744, Note_on_c, 0, 68, 75
2, 767, Note_on_c, 0, 68, 0
2, 768, Note_on_c, 0, 69, 75
2, 857, Note_on_c, 0, 69, 0
2, 912, Note_on_c, 0, 73, 75
2, 935, Note_on_c, 0, 73, 0
2, 936, Note_on_c, 0, 71, 75
2, 959, Note_on_c, 0, 71, 0
2, 960, Note_on_c, 0, 69, 75
2, 983, Note_on_c, 0, 69, 0
2, 984, Note_on_c, 0, 68, 75
2, 1007, Note_on_c, 0, 68, 0
2, 1008, Note_on_c, 0, 66, 75
2, 1031, Note_on_c, 0, 66, 0
2, 1032, Note_on_c, 0, 64, 75
2, 1055, Note_on_c, 0, 64, 0
2, 1056, Note_on_c, 0, 63, 75
2, 1079, Note_on_c, 0, 63, 0
2, 1080, Note_on_c, 0, 64, 75
2, 1103, Note_on_c, 0, 64, 0
2, 1104, Note_on_c, 0, 66, 75
2, 1127, Note_on_c, 0, 66, 0
2, 1128, Note_on_c, 0, 68, 75
2, 1151, Note_on_c, 0, 68, 0
2, 1152, Note_on_c, 0, 69, 75
2, 1175, Note_on_c, 0, 69, 0
2, 1176, Note_on_c, 0, 71, 75
2, 1199, Note_on_c, 0, 71, 0
2, 1200, Note_on_c, 0, 73, 76
2, 1223, Note_on_c, 0, 73, 0
2, 1224, Note_on_c, 0, 74, 76
2, 1247, Note_on_c, 0, 74, 0
2, 1248, Note_on_c, 0, 76, 77
2, 1271, Note_on_c, 0, 76, 0
2, 1272, Note_on_c, 0, 78, 78
2, 1295, Note_on_c, 0, 78, 0
2, 1296, Note_on_c, 0, 80, 78
2, 1319, Note_on_c, 0, 80, 0
2, 1320, Note_on_c, 0, 81, 79
2, 1343, Note_on_c, 0, 81, 0
2, 1344, Note_on_c, 0, 71, 80
2, 1389, Note_on_c, 0, 71, 0
2, 1392, Note_on_c, 0, 78, 80
2, 1392, Note_on_c, 0, 74, 80
2, 1437, Note_on_c, 0, 78, 0
2, 1437, Note_on_c, 0, 74, 0
2, 1440, Note_on_c, 0, 76, 80
2, 1440, Note_on_c, 0, 73, 80
2, 1485, Note_on_c, 0, 76, 0
2, 1485, Note_on_c, 0, 73, 0
2, 1488, Note_on_c, 0, 68, 80
2, 1533, Note_on_c, 0, 68, 0
2, 1536, Note_on_c, 0, 69, 80
2, 1603, Note_on_c, 0, 69, 0
2, 1680, Note_on_c, 0, 78, 75
2, 1728, Note_on_c, 0, 78, 0
2, 1728, Note_on_c, 0, 79, 75
2, 1748, Note_on_c, 0, 79, 0
2, 1776, Note_on_c, 0, 76, 75
2, 1824, Note_on_c, 0, 76, 0
2, 1824, Note_on_c, 0, 78, 75
2, 1844, Note_on_c, 0, 78, 0
2, 1872, Note_on_c, 0, 75, 75
2, 1920, Note_on_c, 0, 75, 0
2, 1920, Note_on_c, 0, 76, 75
2, 1940, Note_on_c, 0, 76, 0
2, 1968, Note_on_c, 0, 73, 75
2, 2016, Note_on_c, 0, 73, 0
2, 2016, Note_on_c, 0, 74, 75
2, 2036, Note_on_c, 0, 74, 0
2, 2064, Note_on_c, 0, 71, 75
2, 2109, Note_on_c, 0, 71, 0
2, 2112, Note_on_c, 0, 69, 75
2, 2135, Note_on_c, 0, 69, 0
2, 2136, Note_on_c, 0, 68, 75
2, 2159, Note_on_c, 0, 68, 0
2, 2160, Note_on_c, 0, 66, 75
2, 2183, Note_on_c, 0, 66, 0
2, 2184, Note_on_c, 0, 64, 75
2, 2207, Note_on_c, 0, 64, 0
2, 2208, Note_on_c, 0, 63, 75
2, 2231, Note_on_c, 0, 63, 0
2, 2232, Note_on_c, 0, 64, 75
2, 2255, Note_on_c, 0, 64, 0
2, 2256, Note_on_c, 0, 66, 75
2, 2279, Note_on_c, 0, 66, 0
2, 2280, Note_on_c, 0, 68, 75
2, 2303, Note_on_c, 0, 68, 0
2, 2304, Note_on_c, 0, 69, 75
2, 2393, Note_on_c, 0, 69, 0
2, 2448, Note_on_c, 0, 73, 75
2, 2471, Note_on_c, 0, 73, 0
2, 2472, Note_on_c, 0, 71, 75
2, 2495, Note_on_c, 0, 71, 0
2, 2496, Note_on_c, 0, 69, 75
2, 2519, Note_on_c, 0, 69, 0
2, 2520, Note_on_c, 0, 68, 75
2, 2543, Note_on_c, 0, 68, 0
2, 2544, Note_on_c, 0, 66, 75
2, 2567, Note_on_c, 0, 66, 0
2, 2568, Note_on_c, 0, 64, 75
2, 2591, Note_on_c, 0, 64, 0
2, 2592, Note_on_c, 0, 63, 75
2, 2615, Note_on_c, 0, 63, 0
2, 2616, Note_on_c, 0, 64, 75
2, 2639, Note_on_c, 0, 64, 0
2, 2640, Note_on_c, 0, 66, 75
2, 2663, Note_on_c, 0, 66, 0
2, 2664, Note_on_c, 0, 68, 75
2, 2687, Note_on_c, 0, 68, 0
2, 2688, Note_on_c, 0, 69, 75
2, 2711, Note_on_c, 0, 69, 0
2, 2712, Note_on_c, 0, 71, 75
2, 2735, Note_on_c, 0, 71, 0
2, 2736, Note_on_c, 0, 73, 76
2, 2759, Note_on_c, 0, 73, 0
2, 2760, Note_on_c, 0, 74, 76
2, 2783, Note_on_c, 0, 74, 0
2, 2784, Note_on_c, 0, 76, 77
2, 2807, Note_on_c, 0, 76, 0
2, 2808, Note_on_c, 0, 78, 78
2, 2831, Note_on_c, 0, 78, 0
2, 2832, Note_on_c, 0, 80, 78
2, 2855, Note_on_c, 0, 80, 0
2, 2856, Note_on_c, 0, 81, 79
2, 2879, Note_on_c, 0, 81, 0
2, 2880, Note_on_c, 0, 71, 80
2, 2925, Note_on_c, 0, 71, 0
2, 2928, Note_on_c, 0, 78, 80
2, 2928, Note_on_c, 0, 74, 80
2, 2973, Note_on_c, 0, 78, 0
2, 2973, Note_on_c, 0, 74, 0
2, 2976, Note_on_c, 0, 76, 80
2, 2976, Note_on_c, 0, 73, 80
2, 3021, Note_on_c, 0, 76, 0
2, 3021, Note_on_c, 0, 73, 0
2, 3024, Note_on_c, 0, 68, 80
2, 3069, Note_on_c, 0, 68, 0
2, 3072, Note_on_c, 0, 69, 80
2, 3139, Note_on_c, 0, 69, 0
2, 3216, Note_on_c, 0, 81, 75
2, 3264, Note_on_c, 0, 81, 0
2, 3264, Note_on_c, 0, 83, 75
2, 3284, Note_on_c, 0, 83, 0
2, 3312, Note_on_c, 0, 80, 75
2, 3360, Note_on_c, 0, 80, 0
2, 3360, Note_on_c, 0, 81, 75
2, 3380, Note_on_c, 0, 81, 0
2, 3408, Note_on_c, 0, 78, 75
2, 3408, Note_on_c, 0, 74, 75
2, 3456, Note_on_c, 0, 78, 0
2, 3456, Note_on_c, 0, 74, 0
2, 3456, Note_on_c, 0, 79, 75
2, 3456, Note_on_c, 0, 76, 75
2, 3476, Note_on_c, 0, 79, 0
2, 3476, Note_on_c, 0, 76, 0
2, 3504, Note_on_c, 0, 76, 75
2, 3504, Note_on_c, 0, 73, 75
2, 3552, Note_on_c, 0, 76, 0
2, 3552, Note_on_c, 0, 73, 0
2, 3552, Note_on_c, 0, 78, 75
2, 3552, Note_on_c, 0, 74, 75
2, 3572, Note_on_c, 0, 78, 0
2, 3572, Note_on_c, 0, 74, 0
2, 3600, Note_on_c, 0, 76, 75
2, 3600, Note_on_c, 0, 73, 75
2, 3648, Note_on_c, 0, 76, 0
2, 3648, Note_on_c, 0, 74, 75
2, 3693, Note_on_c, 0, 74, 0
2, 3693, Note_on_c, 0, 73, 0
2, 3696, Note_on_c, 0, 79, 75
2, 3741, Note_on_c, 0, 79, 0
2, 3744, Note_on_c, 0, 73, 75
2, 3789, Note_on_c, 0, 73, 0
2, 3792, Note_on_c, 0, 78, 75
2, 3837, Note_on_c, 0, 78, 0
2, 3840, Note_on_c, 0, 71, 75
2, 3888, Note_on_c, 0, 71, 0
2, 3888, Note_on_c, 0, 76, 75
2, 3933, Note_on_c, 0, 76, 0
2, 3936, Note_on_c, 0, 69, 75
2, 3984, Note_on_c, 0, 69, 0
2, 3984, Note_on_c, 0, 74, 75
2, 4029, Note_on_c, 0, 74, 0
2, 4032, Note_on_c, 0, 74, 91
2, 4032, Note_on_c, 0, 64, 91
2, 4128, Note_on_c, 0, 74, 0
2, 4128, Note_on_c, 0, 64, 0
2, 4176, Note_on_c, 0, 74, 75
2, 4196, Note_on_c, 0, 74, 0
2, 4224, Note_on_c, 0, 74, 91
2, 4248, Note_on_c, 0, 74, 0
2, 4248, Note_on_c, 0, 73, 75
2, 4271, Note_on_c, 0, 73, 0
2, 4272, Note_on_c, 0, 71, 75
2, 4295, Note_on_c, 0, 71, 0
2, 4296, Note_on_c, 0, 69, 75
2, 4319, Note_on_c, 0, 69, 0
2, 4320, Note_on_c, 0, 68, 75
2, 4343, Note_on_c, 0, 68, 0
2, 4344, Note_on_c, 0, 69, 75
2, 4367, Note_on_c, 0, 69, 0
2, 4368, Note_on_c, 0, 71, 75
2, 4391, Note_on_c, 0, 71, 0
2, 4392, Note_on_c, 0, 73, 75
2, 4415, Note_on_c, 0, 73, 0
2, 4416, Note_on_c, 0, 74, 75
2, 4505, Note_on_c, 0, 74, 0
2, 4560, Note_on_c, 0, 74, 75
2, 4580, Note_on_c, 0, 74, 0
2, 4608, Note_on_c, 0, 74, 91
2, 4632, Note_on_c, 0, 74, 0
2, 4632, Note_on_c, 0, 73, 75
2, 4655, Note_on_c, 0, 73, 0
2, 4656, Note_on_c, 0, 71, 75
2, 4679, Note_on_c, 0, 71, 0
2, 4680, Note_on_c, 0, 69, 75
2, 4703, Note_on_c, 0, 69, 0
2, 4704, Note_on_c, 0, 68, 75
2, 4727, Note_on_c, 0, 68, 0
2, 4728, Note_on_c, 0, 69, 75
2, 4751, Note_on_c, 0, 69, 0
2, 4752, Note_on_c, 0, 71, 75
2, 4775, Note_on_c, 0, 71, 0
2, 4776, Note_on_c, 0, 73, 75
2, 4799, Note_on_c, 0, 73, 0
2, 4800, Note_on_c, 0, 74, 75
2, 4889, Note_on_c, 0, 74, 0
2, 4944, Note_on_c, 0, 81, 75
2, 4964, Note_on_c, 0, 81, 0
2, 4992, Note_on_c, 0, 81, 91
2, 5016, Note_on_c, 0, 81, 0
2, 5016, Note_on_c, 0, 71, 75
2, 5039, Note_on_c, 0, 71, 0
2, 5040, Note_on_c, 0, 73, 75
2, 5063, Note_on_c, 0, 73, 0
2, 5064, Note_on_c, 0, 71, 75
2, 5087, Note_on_c, 0, 71, 0
2, 5088, Note_on_c, 0, 79, 75
2, 5111, Note_on_c, 0, 79, 0
2, 5112, Note_on_c, 0, 78, 75
2, 5135, Note_on_c, 0, 78, 0
2, 5136, Note_on_c, 0, 76, 75
2, 5159, Note_on_c, 0, 76, 0
2, 5160, Note_on_c, 0, 74, 75
2, 5183, Note_on_c, 0, 74, 0
2, 5184, Note_on_c, 0, 73, 75
2, 5273, Note_on_c, 0, 73, 0
2, 5280, Note_on_c, 0, 81, 75
2, 5280, Note_on_c, 0, 78, 75
2, 5303, Note_on_c, 0, 81, 0
2, 5303, Note_on_c, 0, 78, 0
2, 5304, Note_on_c, 0, 79, 75
2, 5304, Note_on_c, 0, 76, 75
2, 5327, Note_on_c, 0, 79, 0
2, 5327, Note_on_c, 0, 76, 0
2, 5328, Note_on_c, 0, 78, 75
2, 5328, Note_on_c, 0, 74, 75
2, 5351, Note_on_c, 0, 78, 0
2, 5351, Note_on_c, 0, 74, 0
2, 5352, Note_on_c, 0, 76, 75
2, 5352, Note_on_c, 0, 73, 75
2, 5375, Note_on_c, 0, 76, 0
2, 5375, Note_on_c, 0, 73, 0
2, 5376, Note_on_c, 0, 74, 75
2, 5465, Note_on_c, 0, 74, 0
2, 5472, Note_on_c, 0, 83, 75
2, 5472, Note_on_c, 0, 79, 75
2, 5495, Note_on_c, 0, 83, 0
2, 5495, Note_on_c, 0, 79, 0
2, 5496, Note_on_c, 0, 81, 75
2, 5496, Note_on_c, 0, 78, 75
2, 5519, Note_on_c, 0, 81, 0
2, 5519, Note_on_c, 0, 78, 0
2, 5520, Note_on_c, 0, 79, 75
2, 5520, Note_on_c, 0, 76, 75
2, 5543, Note_on_c, 0, 79, 0
2, 5543, Note_on_c, 0, 76, 0
2, 5544, Note_on_c, 0, 78, 75
2, 5544, Note_on_c, 0, 74, 75
2, 5567, Note_on_c, 0, 78, 0
2, 5567, Note_on_c, 0, 74, 0
2, 5568, Note_on_c, 0, 76, 75
2, 5568, Note_on_c, 0, 73, 75
2, 5613, Note_on_c, 0, 76, 0
2, 5613, Note_on_c, 0, 73, 0
2, 5616, Note_on_c, 0, 78, 75
2, 5616, Note_on_c, 0, 74, 75
2, 5661, Note_on_c, 0, 78, 0
2, 5661, Note_on_c, 0, 74, 0
2, 5664, Note_on_c, 0, 79, 75
2, 5664, Note_on_c, 0, 76, 75
2, 5709, Note_on_c, 0, 79, 0
2, 5709, Note_on_c, 0, 76, 0
2, 5712, Note_on_c, 0, 78, 75
2, 5712, Note_on_c, 0, 74, 75
2, 5757, Note_on_c, 0, 78, 0
2, 5757, Note_on_c, 0, 74, 0
2, 5760, Note_on_c, 0, 76, 75
2, 5760, Note_on_c, 0, 73, 75
2, 5805, Note_on_c, 0, 76, 0
2, 5805, Note_on_c, 0, 73, 0
2, 5808, Note_on_c, 0, 83, 75
2, 5820, Note_on_c, 0, 83, 0
2, 5820, Note_on_c, 0, 81, 75
2, 5832, Note_on_c, 0, 81, 0
2, 5832, Note_on_c, 0, 80, 75
2, 5844, Note_on_c, 0, 80, 0
2, 5844, Note_on_c, 0, 81, 75
2, 5856, Note_on_c, 0, 81, 0
2, 5856, Note_on_c, 0, 83, 75
2, 5901, Note_on_c, 0, 83, 0
2, 5904, Note_on_c, 0, 80, 75
2, 5949, Note_on_c, 0, 80, 0
2, 5952, Note_on_c, 0, 81, 75
2, 5972, Note_on_c, 0, 81, 0
2, 6000, Note_on_c, 0, 86, 75
2, 6012, Note_on_c, 0, 86, 0
2, 6012, Note_on_c, 0, 85, 75
2, 6024, Note_on_c, 0, 85, 0
2, 6024, Note_on_c, 0, 83, 75
2, 6036, Note_on_c, 0, 83, 0
2, 6036, Note_on_c, 0, 85, 75
2, 6048, Note_on_c, 0, 85, 0
2, 6048, Note_on_c, 0, 86, 75
2, 6093, Note_on_c, 0, 86, 0
2, 6096, Note_on_c, 0, 83, 75
2, 6141, Note_on_c, 0, 83, 0
2, 6144, Note_on_c, 0, 81, 75
2, 6189, Note_on_c, 0, 81, 0
2, 6240, Note_on_c, 0, 81, 73
2, 6285, Note_on_c, 0, 81, 0
2, 6336, Note_on_c, 0, 81, 71
2, 6425, Note_on_c, 0, 81, 0
2, 6672, Note_on_c, 0, 71, 70
2, 6720, Note_on_c, 0, 71, 0
2, 6720, Note_on_c, 0, 72, 70
2, 6740, Note_on_c, 0, 72, 0
2, 6768, Note_on_c, 0, 70, 70
2, 6816, Note_on_c, 0, 70, 0
2, 6816, Note_on_c, 0, 71, 70
2, 6836, Note_on_c, 0, 71, 0
2, 6864, Note_on_c, 0, 69, 70
2, 6936, Note_on_c, 0, 69, 0
2, 6936, Note_on_c, 0, 68, 70
2, 6959, Note_on_c, 0, 68, 0
2, 6960, Note_on_c, 0, 66, 70
2, 6983, Note_on_c, 0, 66, 0
2, 6984, Note_on_c, 0, 64, 70
2, 7007, Note_on_c, 0, 64, 0
2, 7008, Note_on_c, 0, 63, 70
2, 7031, Note_on_c, 0, 63, 0
2, 7032, Note_on_c, 0, 64, 70
2, 7055, Note_on_c, 0, 64, 0
2, 7056, Note_on_c, 0, 66, 70
2, 7079, Note_on_c, 0, 66, 0
2, 7080, Note_on_c, 0, 68, 70
2, 7103, Note_on_c, 0, 68, 0
2, 7104, Note_on_c, 0, 69, 70
2, 7193, Note_on_c, 0, 69, 0
2, 7248, Note_on_c, 0, 67, 70
2, 7268, Note_on_c, 0, 67, 0
2, 7296, Note_on_c, 0, 67, 86
2, 7320, Note_on_c, 0, 67, 0
2, 7320, Note_on_c, 0, 66, 70
2, 7343, Note_on_c, 0, 66, 0
2, 7344, Note_on_c, 0, 64, 70
2, 7367, Note_on_c, 0, 64, 0
2, 7368, Note_on_c, 0, 62, 70
2, 7391, Note_on_c, 0, 62, 0
2, 7392, Note_on_c, 0, 61, 70
2, 7415, Note_on_c, 0, 61, 0
2, 7416, Note_on_c, 0, 62, 70
2, 7439, Note_on_c, 0, 62, 0
2, 7440, Note_on_c, 0, 64, 70
2, 7463, Note_on_c, 0, 64, 0
2, 7464, Note_on_c, 0, 66, 70
2, 7487, Note_on_c, 0, 66, 0
2, 7488, Note_on_c, 0, 67, 70
2, 7577, Note_on_c, 0, 67, 0
2, 7632, Note_on_c, 0, 79, 70
2, 7652, Note_on_c, 0, 79, 0
2, 7680, Note_on_c, 0, 79, 86
2, 7704, Note_on_c, 0, 79, 0
2, 7704, Note_on_c, 0, 78, 70
2, 7727, Note_on_c, 0, 78, 0
2, 7728, Note_on_c, 0, 76, 70
2, 7751, Note_on_c, 0, 76, 0
2, 7752, Note_on_c, 0, 74, 70
2, 7775, Note_on_c, 0, 74, 0
2, 7776, Note_on_c, 0, 73, 70
2, 7799, Note_on_c, 0, 73, 0
2, 7800, Note_on_c, 0, 74, 70
2, 7823, Note_on_c, 0, 74, 0
2, 7824, Note_on_c, 0, 76, 70
2, 7847, Note_on_c, 0, 76, 0
2, 7848, Note_on_c, 0, 78, 70
2, 7871, Note_on_c, 0, 78, 0
2, 7872, Note_on_c, 0, 79, 70
2, 7895, Note_on_c, 0, 79, 0
2, 7896, Note_on_c, 0, 74, 71
2, 7919, Note_on_c, 0, 74, 0
2, 7920, Note_on_c, 0, 81, 73
2, 7943, Note_on_c, 0, 81, 0
2, 7944, Note_on_c, 0, 74, 75
2, 7967, Note_on_c, 0, 74, 0
2, 7968, Note_on_c, 0, 83, 74
2, 7991, Note_on_c, 0, 83, 0
2, 7992, Note_on_c, 0, 74, 73
2, 8015, Note_on_c, 0, 74, 0
2, 8016, Note_on_c, 0, 81, 72
2, 8039, Note_on_c, 0, 81, 0
2, 8040, Note_on_c, 0, 74, 71
2, 8063, Note_on_c, 0, 74, 0
2, 8064, Note_on_c, 0, 81, 70
2, 8087, Note_on_c, 0, 81, 0
2, 8088, Note_on_c, 0, 80, 70
2, 8111, Note_on_c, 0, 80, 0
2, 8112, Note_on_c, 0, 78, 70
2, 8135, Note_on_c, 0, 78, 0
2, 8136, Note_on_c, 0, 76, 70
2, 8159, Note_on_c, 0, 76, 0
2, 8160, Note_on_c, 0, 75, 70
2, 8183, Note_on_c, 0, 75, 0
2, 8184, Note_on_c, 0, 76, 70
2, 8207, Note_on_c, 0, 76, 0
2, 8208, Note_on_c, 0, 78, 70
2, 8231, Note_on_c, 0, 78, 0
2, 8232, Note_on_c, 0, 80, 70
2, 8255, Note_on_c, 0, 80, 0
2, 8256, Note_on_c, 0, 81, 70
2, 8279, Note_on_c, 0, 81, 0
2, 8280, Note_on_c, 0, 76, 71
2, 8303, Note_on_c, 0, 76, 0
2, 8304, Note_on_c, 0, 83, 73
2, 8327, Note_on_c, 0, 83, 0
2, 8328, Note_on_c, 0, 76, 75
2, 8351, Note_on_c, 0, 76, 0
2, 8352, Note_on_c, 0, 84, 74
2, 8375, Note_on_c, 0, 84, 0
2, 8376, Note_on_c, 0, 76, 73
2, 8399, Note_on_c, 0, 76, 0
2, 8400, Note_on_c, 0, 83, 72
2, 8423, Note_on_c, 0, 83, 0
2, 8424, Note_on_c, 0, 76, 71
2, 8447, Note_on_c, 0, 76, 0
2, 8448, Note_on_c, 0, 83, 70
2, 8471, Note_on_c, 0, 83, 0
2, 8472, Note_on_c, 0, 82, 70
2, 8495, Note_on_c, 0, 82, 0
2, 8496, Note_on_c, 0, 80, 70
2, 8519, Note_on_c, 0, 80, 0
2, 8520, Note_on_c, 0, 78, 70
2, 8543, Note_on_c, 0, 78, 0
2, 8544, Note_on_c, 0, 77, 70
2, 8567, Note_on_c, 0, 77, 0
2, 8568, Note_on_c, 0, 78, 70
2, 8591, Note_on_c, 0, 78, 0
2, 8592, Note_on_c, 0, 80, 70
2, 8615, Note_on_c, 0, 80, 0
2, 8616, Note_on_c, 0, 82, 70
2, 8639, Note_on_c, 0, 82, 0
2, 8640, Note_on_c, 0, 83, 70
2, 8729, Note_on_c, 0, 83, 0
2, 8784, Note_on_c, 0, 81, 70
2, 8804, Note_on_c, 0, 81, 0
2, 8832, Note_on_c, 0, 81, 86
2, 8856, Note_on_c, 0, 81, 0
2, 8856, Note_on_c, 0, 80, 70
2, 8879, Note_on_c, 0, 80, 0
2, 8880, Note_on_c, 0, 78, 70
2, 8903, Note_on_c, 0, 78, 0
2, 8904, Note_on_c, 0, 76, 70
2, 8927, Note_on_c, 0, 76, 0
2, 8928, Note_on_c, 0, 75, 70
2, 8951, Note_on_c, 0, 75, 0
2, 8952, Note_on_c, 0, 76, 70
2, 8975, Note_on_c, 0, 76, 0
2, 8976, Note_on_c, 0, 78, 70
2, 8999, Note_on_c, 0, 78, 0
2, 9000, Note_on_c, 0, 80, 70
2, 9023, Note_on_c, 0, 80, 0
2, 9024, Note_on_c, 0, 81, 70
2, 9113, Note_on_c, 0, 81, 0
2, 9168, Note_on_c, 0, 79, 70
2, 9188, Note_on_c, 0, 79, 0
2, 9216, Note_on_c, 0, 79, 86
2, 9240, Note_on_c, 0, 79, 0
2, 9240, Note_on_c, 0, 78, 70
2, 9263, Note_on_c, 0, 78, 0
2, 9264, Note_on_c, 0, 76, 70
2, 9287, Note_on_c, 0, 76, 0
2, 9288, Note_on_c, 0, 74, 70
2, 9311, Note_on_c, 0, 74, 0
2, 9312, Note_on_c, 0, 78, 70
2, 9335, Note_on_c, 0, 78, 0
2, 9336, Note_on_c, 0, 76, 70
2, 9359, Note_on_c, 0, 76, 0
2, 9360, Note_on_c, 0, 74, 70
2, 9383, Note_on_c, 0, 74, 0
2, 9384, Note_on_c, 0, 73, 70
2, 9407, Note_on_c, 0, 73, 0
2, 9408, Note_on_c, 0, 76, 70
2, 9431, Note_on_c, 0, 76, 0
2, 9432, Note_on_c, 0, 74, 70
2, 9455, Note_on_c, 0, 74, 0
2, 9456, Note_on_c, 0, 73, 70
2, 9479, Note_on_c, 0, 73, 0
2, 9480, Note_on_c, 0, 71, 70
2, 9503, Note_on_c, 0, 71, 0
2, 9504, Note_on_c, 0, 74, 70
2, 9527, Note_on_c, 0, 74, 0
2, 9528, Note_on_c, 0, 73, 70
2, 9551, Note_on_c, 0, 73, 0
2, 9552, Note_on_c, 0, 71, 70
2, 9575, Note_on_c, 0, 71, 0
2, 9576, Note_on_c, 0, 69, 70
2, 9599, Note_on_c, 0, 69, 0
2, 9600, Note_on_c, 0, 71, 70
2, 9645, Note_on_c, 0, 71, 0
2, 9648, Note_on_c, 0, 76, 70
2, 9693, Note_on_c, 0, 76, 0
2, 9696, Note_on_c, 0, 69, 70
2, 9741, Note_on_c, 0, 69, 0
2, 9744, Note_on_c, 0, 74, 70
2, 9789, Note_on_c, 0, 74, 0
2, 9792, Note_on_c, 0, 67, 70
2, 9815, Note_on_c, 0, 67, 0
2, 9816, Note_on_c, 0, 71, 70
2, 9839, Note_on_c, 0, 71, 0
2, 9840, Note_on_c, 0, 69, 70
2, 9863, Note_on_c, 0, 69, 0
2, 9864, Note_on_c, 0, 67, 70
2, 9887, Note_on_c, 0, 67, 0
2, 9888, Note_on_c, 0, 66, 70
2, 9911, Note_on_c, 0, 66, 0
2, 9912, Note_on_c, 0, 69, 70
2, 9935, Note_on_c, 0, 69, 0
2, 9936, Note_on_c, 0, 67, 70
2, 9959, Note_on_c, 0, 67, 0
2, 9960, Note_on_c, 0, 66, 70
2, 9983, Note_on_c, 0, 66, 0
2, 9984, Note_on_c, 0, 64, 70
2, 10029, Note_on_c, 0, 64, 0
2, 10032, Note_on_c, 0, 71, 68
2, 10032, Note_on_c, 0, 67, 68
2, 10077, Note_on_c, 0, 71, 0
2, 10077, Note_on_c, 0, 67, 0
2, 10080, Note_on_c, 0, 69, 67
2, 10125, Note_on_c, 0, 69, 0
2, 10128, Note_on_c, 0, 61, 65
2, 10128, Note_on_c, 0, 55, 65
2, 10173, Note_on_c, 0, 61, 0
2, 10173, Note_on_c, 0, 55, 0
2, 10176, Note_on_c, 0, 62, 64
2, 10176, Note_on_c, 0, 54, 64
2, 10265, Note_on_c, 0, 62, 0
2, 10265, Note_on_c, 0, 54, 0
2, 10320, Note_on_c, 0, 78, 75
2, 10368, Note_on_c, 0, 78, 0
2, 10368, Note_on_c, 0, 79, 75
2, 10388, Note_on_c, 0, 79, 0
2, 10416, Note_on_c, 0, 76, 75
2, 10464, Note_on_c, 0, 76, 0
2, 10464, Note_on_c, 0, 78, 75
2, 10484, Note_on_c, 0, 78, 0
2, 10512, Note_on_c, 0, 75, 75
2, 10560, Note_on_c, 0, 75, 0
2, 10560, Note_on_c, 0, 76, 75
2, 10580, Note_on_c, 0, 76, 0
2, 10608, Note_on_c, 0, 73, 75
2, 10656, Note_on_c, 0, 73, 0
2, 10656, Note_on_c, 0, 74, 75
2, 10676, Note_on_c, 0, 74, 0
2, 10704, Note_on_c, 0, 81, 75
2, 10752, Note_on_c, 0, 81, 0
2, 10752, Note_on_c, 0, 80, 75
2, 10772, Note_on_c, 0, 80, 0
2, 10800, Note_on_c, 0, 83, 75
2, 10848, Note_on_c, 0, 83, 0
2, 10848, Note_on_c, 0, 81, 75
2, 10868, Note_on_c, 0, 81, 0
2, 10896, Note_on_c, 0, 85, 75
2, 10944, Note_on_c, 0, 85, 0
2, 10944, Note_on_c, 0, 83, 75
2, 10964, Note_on_c, 0, 83, 0
2, 10992, Note_on_c, 0, 86, 75
2, 11040, Note_on_c, 0, 86, 0
2, 11040, Note_on_c, 0, 85, 75
2, 11060, Note_on_c, 0, 85, 0
2, 11088, Note_on_c, 0, 88, 75
2, 11181, Note_on_c, 0, 88, 0
2, 11184, Note_on_c, 0, 86, 75
2, 11273, Note_on_c, 0, 86, 0
2, 11280, Note_on_c, 0, 85, 75
2, 11373, Note_on_c, 0, 85, 0
2, 11376, Note_on_c, 0, 83, 75
2, 11465, Note_on_c, 0, 83, 0
2, 11472, Note_on_c, 0, 81, 75
2, 11492, Note_on_c, 0, 81, 0
2, 11520, Note_on_c, 0, 83, 75
2, 11543, Note_on_c, 0, 83, 0
2, 11544, Note_on_c, 0, 85, 75
2, 11567, Note_on_c, 0, 85, 0
2, 11568, Note_on_c, 0, 86, 75
2, 11591, Note_on_c, 0, 86, 0
2, 11592, Note_on_c, 0, 88, 75
2, 11615, Note_on_c, 0, 88, 0
2, 11616, Note_on_c, 0, 81, 75
2, 11639, Note_on_c, 0, 81, 0
2, 11640, Note_on_c, 0, 84, 75
2, 11663, Note_on_c, 0, 84, 0
2, 11664, Note_on_c, 0, 83, 75
2, 11687, Note_on_c, 0, 83, 0
2, 11688, Note_on_c, 0, 81, 75
2, 11711, Note_on_c, 0, 81, 0
2, 11712, Note_on_c, 0, 79, 75
2, 11735, Note_on_c, 0, 79, 0
2, 11736, Note_on_c, 0, 83, 75
2, 11759, Note_on_c, 0, 83, 0
2, 11760, Note_on_c, 0, 81, 75
2, 11783, Note_on_c, 0, 81, 0
2, 11784, Note_on_c, 0, 79, 75
2, 11807, Note_on_c, 0, 79, 0
2, 11808, Note_on_c, 0, 78, 75
2, 11831, Note_on_c, 0, 78, 0
2, 11832, Note_on_c, 0, 81, 75
2, 11855, Note_on_c, 0, 81, 0
2, 11856, Note_on_c, 0, 79, 75
2, 11879, Note_on_c, 0, 79, 0
2, 11880, Note_on_c, 0, 78, 75
2, 11903, Note_on_c, 0, 78, 0
2, 11904, Note_on_c, 0, 76, 75
2, 11927, Note_on_c, 0, 76, 0
2, 11928, Note_on_c, 0, 75, 75
2, 11951, Note_on_c, 0, 75, 0
2, 11952, Note_on_c, 0, 76, 76
2, 11975, Note_on_c, 0, 76, 0
2, 11976, Note_on_c, 0, 75, 76
2, 11999, Note_on_c, 0, 75, 0
2, 12000, Note_on_c, 0, 76, 77
2, 12023, Note_on_c, 0, 76, 0
2, 12024, Note_on_c, 0, 78, 78
2, 12047, Note_on_c, 0, 78, 0
2, 12048, Note_on_c, 0, 76, 78
2, 12071, Note_on_c, 0, 76, 0
2, 12072, Note_on_c, 0, 74, 79
2, 12095, Note_on_c, 0, 74, 0
2, 12096, Note_on_c, 0, 73, 80
2, 12119, Note_on_c, 0, 73, 0
2, 12120, Note_on_c, 0, 74, 79
2, 12143, Note_on_c, 0, 74, 0
2, 12144, Note_on_c, 0, 76, 78
2, 12167, Note_on_c, 0, 76, 0
2, 12168, Note_on_c, 0, 74, 78
2, 12191, Note_on_c, 0, 74, 0
2, 12192, Note_on_c, 0, 73, 77
2, 12215, Note_on_c, 0, 73, 0
2, 12216, Note_on_c, 0, 71, 76
2, 12239, Note_on_c, 0, 71, 0
2, 12240, Note_on_c, 0, 69, 76
2, 12263, Note_on_c, 0, 69, 0
2, 12264, Note_on_c, 0, 67, 75
2, 12287, Note_on_c, 0, 67, 0
2, 12288, Note_on_c, 0, 66, 75
2, 12377, Note_on_c, 0, 66, 0
2, 12432, Note_on_c, 0, 62, 75
2, 12480, Note_on_c, 0, 62, 0
2, 12480, Note_on_c, 0, 64, 75
2, 12500, Note_on_c, 0, 64, 0
2, 12528, Note_on_c, 0, 61, 75
2, 12576, Note_on_c, 0, 61, 0
2, 12576, Note_on_c, 0, 62, 75
2, 12621, Note_on_c, 0, 62, 0
2, 12624, Note_on_c, 0, 71, 75
2, 12624, Note_on_c, 0, 66, 75
2, 12672, Note_on_c, 0, 71, 0
2, 12672, Note_on_c, 0, 66, 0
2, 12672, Note_on_c, 0, 72, 75
2, 12672, Note_on_c, 0, 67, 75
2, 12717, Note_on_c, 0, 72, 0
2, 12717, Note_on_c, 0, 67, 0
2, 12720, Note_on_c, 0, 70, 75
2, 12720, Note_on_c, 0, 64, 75
2, 12768, Note_on_c, 0, 70, 0
2, 12768, Note_on_c, 0, 64, 0
2, 12768, Note_on_c, 0, 71, 75
2, 12768, Note_on_c, 0, 66, 75
2, 12813, Note_on_c, 0, 71, 0
2, 12813, Note_on_c, 0, 66, 0
2, 12816, Note_on_c, 0, 68, 75
2, 12816, Note_on_c, 0, 62, 75
2, 12864, Note_on_c, 0, 68, 0
2, 12864, Note_on_c, 0, 62, 0
2, 12864, Note_on_c, 0, 69, 75
2, 12864, Note_on_c, 0, 64, 75
2, 12909, Note_on_c, 0, 69, 0
2, 12909, Note_on_c, 0, 64, 0
2, 12912, Note_on_c, 0, 66, 75
2, 12912, Note_on_c, 0, 60, 75
2, 12960, Note_on_c, 0, 66, 0
2, 12960, Note_on_c, 0, 60, 0
2, 12960, Note_on_c, 0, 67, 75
2, 13005, Note_on_c, 0, 67, 0
2, 13008, Note_on_c, 0, 71, 75
2, 13056, Note_on_c, 0, 71, 0
2, 13056, Note_on_c, 0, 62, 75
2, 13152, Note_on_c, 0, 62, 0
2, 13152, Note_on_c, 0, 61, 75
2, 13197, Note_on_c, 0, 61, 0
2, 13200, Note_on_c, 0, 74, 75
2, 13220, Note_on_c, 0, 74, 0
2, 13248, Note_on_c, 0, 74, 91
2, 13272, Note_on_c, 0, 74, 0
2, 13272, Note_on_c, 0, 73, 75
2, 13295, Note_on_c, 0, 73, 0
2, 13296, Note_on_c, 0, 71, 75
2, 13319, Note_on_c, 0, 71, 0
2, 13320, Note_on_c, 0, 69, 75
2, 13343, Note_on_c, 0, 69, 0
2, 13344, Note_on_c, 0, 68, 75
2, 13367, Note_on_c, 0, 68, 0
2, 13368, Note_on_c, 0, 69, 75
2, 13391, Note_on_c, 0, 69, 0
2, 13392, Note_on_c, 0, 71, 75
2, 13415, Note_on_c, 0, 71, 0
2, 13416, Note_on_c, 0, 73, 75
2, 13439, Note_on_c, 0, 73, 0
2, 13440, Note_on_c, 0, 74, 75
2, 13529, Note_on_c, 0, 74, 0
2, 13584, Note_on_c, 0, 81, 75
2, 13604, Note_on_c, 0, 81, 0
2, 13632, Note_on_c, 0, 81, 91
2, 13656, Note_on_c, 0, 81, 0
2, 13656, Note_on_c, 0, 79, 75
2, 13679, Note_on_c, 0, 79, 0
2, 13680, Note_on_c, 0, 78, 75
2, 13703, Note_on_c, 0, 78, 0
2, 13704, Note_on_c, 0, 76, 75
2, 13727, Note_on_c, 0, 76, 0
2, 13728, Note_on_c, 0, 75, 75
2, 13751, Note_on_c, 0, 75, 0
2, 13752, Note_on_c, 0, 76, 75
2, 13775, Note_on_c, 0, 76, 0
2, 13776, Note_on_c, 0, 78, 75
2, 13799, Note_on_c, 0, 78, 0
2, 13800, Note_on_c, 0, 79, 75
2, 13823, Note_on_c, 0, 79, 0
2, 13824, Note_on_c, 0, 81, 75
2, 13913, Note_on_c, 0, 81, 0
2, 13968, Note_on_c, 0, 86, 75
2, 13988, Note_on_c, 0, 86, 0
2, 14016, Note_on_c, 0, 86, 91
2, 14040, Note_on_c, 0, 86, 0
2, 14040, Note_on_c, 0, 85, 75
2, 14063, Note_on_c, 0, 85, 0
2, 14064, Note_on_c, 0, 83, 75
2, 14087, Note_on_c, 0, 83, 0
2, 14088, Note_on_c, 0, 81, 75
2, 14111, Note_on_c, 0, 81, 0
2, 14112, Note_on_c, 0, 80, 75
2, 14135, Note_on_c, 0, 80, 0
2, 14136, Note_on_c, 0, 81, 75
2, 14159, Note_on_c, 0, 81, 0
2, 14160, Note_on_c, 0, 83, 75
2, 14183, Note_on_c, 0, 83, 0
2, 14184, Note_on_c, 0, 85, 75
2, 14207, Note_on_c, 0, 85, 0
2, 14208, Note_on_c, 0, 86, 75
2, 14231, Note_on_c, 0, 86, 0
2, 14232, Note_on_c, 0, 81, 75
2, 14255, Note_on_c, 0, 81, 0
2, 14256, Note_on_c, 0, 85, 75
2, 14279, Note_on_c, 0, 85, 0
2, 14280, Note_on_c, 0, 79, 75
2, 14303, Note_on_c, 0, 79, 0
2, 14304, Note_on_c, 0, 83, 75
2, 14327, Note_on_c, 0, 83, 0
2, 14328, Note_on_c, 0, 78, 75
2, 14351, Note_on_c, 0, 78, 0
2, 14352, Note_on_c, 0, 81, 75
2, 14375, Note_on_c, 0, 81, 0
2, 14376, Note_on_c, 0, 76, 75
2, 14399, Note_on_c, 0, 76, 0
2, 14400, Note_on_c, 0, 79, 75
2, 14423, Note_on_c, 0, 79, 0
2, 14424, Note_on_c, 0, 74, 75
2, 14447, Note_on_c, 0, 74, 0
2, 14448, Note_on_c, 0, 78, 75
2, 14471, Note_on_c, 0, 78, 0
2, 14472, Note_on_c, 0, 73, 75
2, 14495, Note_on_c, 0, 73, 0
2, 14496, Note_on_c, 0, 76, 75
2, 14519, Note_on_c, 0, 76, 0
2, 14520, Note_on_c, 0, 71, 75
2, 14543, Note_on_c, 0, 71, 0
2, 14544, Note_on_c, 0, 75, 75
2, 14567, Note_on_c, 0, 75, 0
2, 14568, Note_on_c, 0, 71, 75
2, 14591, Note_on_c, 0, 71, 0
2, 14592, Note_on_c, 0, 76, 75
2, 14615, Note_on_c, 0, 76, 0
2, 14616, Note_on_c, 0, 71, 75
2, 14639, Note_on_c, 0, 71, 0
2, 14640, Note_on_c, 0, 75, 76
2, 14663, Note_on_c, 0, 75, 0
2, 14664, Note_on_c, 0, 71, 76
2, 14687, Note_on_c, 0, 71, 0
2, 14688, Note_on_c, 0, 76, 77
2, 14711, Note_on_c, 0, 76, 0
2, 14712, Note_on_c, 0, 71, 78
2, 14735, Note_on_c, 0, 71, 0
2, 14736, Note_on_c, 0, 78, 78
2, 14759, Note_on_c, 0, 78, 0
2, 14760, Note_on_c, 0, 71, 79
2, 14783, Note_on_c, 0, 71, 0
2, 14784, Note_on_c, 0, 79, 80
2, 14807, Note_on_c, 0, 79, 0
2, 14808, Note_on_c, 0, 71, 79
2, 14831, Note_on_c, 0, 71, 0
2, 14832, Note_on_c, 0, 78, 78
2, 14855, Note_on_c, 0, 78, 0
2, 14856, Note_on_c, 0, 71, 78
2, 14879, Note_on_c, 0, 71, 0
2, 14880, Note_on_c, 0, 79, 77
2, 14903, Note_on_c, 0, 79, 0
2, 14904, Note_on_c, 0, 71, 76
2, 14927, Note_on_c, 0, 71, 0
2, 14928, Note_on_c, 0, 73, 76
2, 14951, Note_on_c, 0, 73, 0
2, 14952, Note_on_c, 0, 69, 75
2, 14975, Note_on_c, 0, 69, 0
2, 14976, Note_on_c, 0, 74, 75
2, 14999, Note_on_c, 0, 74, 0
2, 15000, Note_on_c, 0, 69, 75
2, 15023, Note_on_c, 0, 69, 0
2, 15024, Note_on_c, 0, 73, 76
2, 15047, Note_on_c, 0, 73, 0
2, 15048, Note_on_c, 0, 69, 76
2, 15071, Note_on_c, 0, 69, 0
2, 15072, Note_on_c, 0, 74, 77
2, 15095, Note_on_c, 0, 74, 0
2, 15096, Note_on_c, 0, 69, 78
2, 15119, Note_on_c, 0, 69, 0
2, 15120, Note_on_c, 0, 76, 78
2, 15143, Note_on_c, 0, 76, 0
2, 15144, Note_on_c, 0, 69, 79
2, 15167, Note_on_c, 0, 69, 0
2, 15168, Note_on_c, 0, 78, 80
2, 15191, Note_on_c, 0, 78, 0
2, 15192, Note_on_c, 0, 69, 79
2, 15215, Note_on_c, 0, 69, 0
2, 15216, Note_on_c, 0, 76, 78
2, 15239, Note_on_c, 0, 76, 0
2, 15240, Note_on_c, 0, 69, 78
2, 15263, Note_on_c, 0, 69, 0
2, 15264, Note_on_c, 0, 78, 77
2, 15287, Note_on_c, 0, 78, 0
2, 15288, Note_on_c, 0, 69, 76
2, 15311, Note_on_c, 0, 69, 0
2, 15312, Note_on_c, 0, 76, 76
2, 15335, Note_on_c, 0, 76, 0
2, 15336, Note_on_c, 0, 69, 75
2, 15359, Note_on_c, 0, 69, 0
2, 15360, Note_on_c, 0, 76, 75
2, 15383, Note_on_c, 0, 76, 0
2, 15384, Note_on_c, 0, 75, 75
2, 15407, Note_on_c, 0, 75, 0
2, 15408, Note_on_c, 0, 73, 75
2, 15431, Note_on_c, 0, 73, 0
2, 15432, Note_on_c, 0, 71, 75
2, 15455, Note_on_c, 0, 71, 0
2, 15456, Note_on_c, 0, 70, 75
2, 15479, Note_on_c, 0, 70, 0
2, 15480, Note_on_c, 0, 71, 75
2, 15503, Note_on_c, 0, 71, 0
2, 15504, Note_on_c, 0, 73, 75
2, 15527, Note_on_c, 0, 73, 0
2, 15528, Note_on_c, 0, 75, 75
2, 15551, Note_on_c, 0, 75, 0
2, 15552, Note_on_c, 0, 76, 75
2, 15641, Note_on_c, 0, 76, 0
2, 15696, Note_on_c, 0, 74, 75
2, 15716, Note_on_c, 0, 74, 0
2, 15744, Note_on_c, 0, 74, 91
2, 15768, Note_on_c, 0, 74, 0
2, 15768, Note_on_c, 0, 73, 75
2, 15791, Note_on_c, 0, 73, 0
2, 15792, Note_on_c, 0, 71, 75
2, 15815, Note_on_c, 0, 71, 0
2, 15816, Note_on_c, 0, 69, 75
2, 15839, Note_on_c, 0, 69, 0
2, 15840, Note_on_c, 0, 68, 75
2, 15863, Note_on_c, 0, 68, 0
2, 15864, Note_on_c, 0, 69, 75
2, 15887, Note_on_c, 0, 69, 0
2, 15888, Note_on_c, 0, 71, 75
2, 15911, Note_on_c, 0, 71, 0
2, 15912, Note_on_c, 0, 73, 75
2, 15935, Note_on_c, 0, 73, 0
2, 15936, Note_on_c, 0, 74, 75
2, 16025, Note_on_c, 0, 74, 0
2, 16080, Note_on_c, 0, 81, 75
2, 16100, Note_on_c, 0, 81, 0
2, 16128, Note_on_c, 0, 81, 91
2, 16152, Note_on_c, 0, 81, 0
2, 16152, Note_on_c, 0, 71, 75
2, 16175, Note_on_c, 0, 71, 0
2, 16176, Note_on_c, 0, 73, 75
2, 16199, Note_on_c, 0, 73, 0
2, 16200, Note_on_c, 0, 71, 75
2, 16223, Note_on_c, 0, 71, 0
2, 16224, Note_on_c, 0, 79, 75
2, 16247, Note_on_c, 0, 79, 0
2, 16248, Note_on_c, 0, 78, 75
2, 16271, Note_on_c, 0, 78, 0
2, 16272, Note_on_c, 0, 76, 75
2, 16295, Note_on_c, 0, 76, 0
2, 16296, Note_on_c, 0, 74, 75
2, 16319, Note_on_c, 0, 74, 0
2, 16320, Note_on_c, 0, 73, 75
2, 16409, Note_on_c, 0, 73, 0
2, 16416, Note_on_c, 0, 81, 75
2, 16416, Note_on_c, 0, 78, 75
2, 16439, Note_on_c, 0, 81, 0
2, 16439, Note_on_c, 0, 78, 0
2, 16440, Note_on_c, 0, 79, 75
2, 16440, Note_on_c, 0, 76, 75
2, 16463, Note_on_c, 0, 79, 0
2, 16463, Note_on_c, 0, 76, 0
2, 16464, Note_on_c, 0, 78, 75
2, 16464, Note_on_c, 0, 74, 75
2, 16487, Note_on_c, 0, 78, 0
2, 16487, Note_on_c, 0, 74, 0
2, 16488, Note_on_c, 0, 76, 75
2, 16488, Note_on_c, 0, 73, 75
2, 16511, Note_on_c, 0, 76, 0
2, 16511, Note_on_c, 0, 73, 0
2, 16512, Note_on_c, 0, 74, 75
2, 16601, Note_on_c, 0, 74, 0
2, 16608, Note_on_c, 0, 83, 75
2, 16608, Note_on_c, 0, 79, 75
2, 16631, Note_on_c, 0, 83, 0
2, 16631, Note_on_c, 0, 79, 0
2, 16632, Note_on_c, 0, 81, 75
2, 16632, Note_on_c, 0, 78, 75
2, 16655, Note_on_c, 0, 81, 0
2, 16655, Note_on_c, 0, 78, 0
2, 16656, Note_on_c, 0, 79, 75
2, 16656, Note_on_c, 0, 76, 75
2, 16679, Note_on_c, 0, 79, 0
2, 16679, Note_on_c, 0, 76, 0
2, 16680, Note_on_c, 0, 78, 75
2, 16680, Note_on_c, 0, 74, 75
2, 16703, Note_on_c, 0, 78, 0
2, 16703, Note_on_c, 0, 74, 0
2, 16704, Note_on_c, 0, 76, 75
2, 16704, Note_on_c, 0, 73, 75
2, 16749, Note_on_c, 0, 76, 0
2, 16749, Note_on_c, 0, 73, 0
2, 16752, Note_on_c, 0, 78, 77
2, 16752, Note_on_c, 0, 74, 77
2, 16797, Note_on_c, 0, 78, 0
2, 16797, Note_on_c, 0, 74, 0
2, 16800, Note_on_c, 0, 79, 80
2, 16800, Note_on_c, 0, 76, 80
2, 16845, Note_on_c, 0, 79, 0
2, 16845, Note_on_c, 0, 76, 0
2, 16848, Note_on_c, 0, 78, 77
2, 16848, Note_on_c, 0, 74, 77
2, 16893, Note_on_c, 0, 78, 0
2, 16893, Note_on_c, 0, 74, 0
2, 16896, Note_on_c, 0, 76, 75
2, 16896, Note_on_c, 0, 73, 75
2, 16941, Note_on_c, 0, 76, 0
2, 16941, Note_on_c, 0, 73, 0
2, 16944, Note_on_c, 0, 81, 75
2, 16967, Note_on_c, 0, 81, 0
2, 16968, Note_on_c, 0, 80, 75
2, 16991, Note_on_c, 0, 80, 0
2, 16992, Note_on_c, 0, 81, 75
2, 17015, Note_on_c, 0, 81, 0
2, 17016, Note_on_c, 0, 80, 75
2, 17039, Note_on_c, 0, 80, 0
2, 17040, Note_on_c, 0, 81, 75
2, 17063, Note_on_c, 0, 81, 0
2, 17064, Note_on_c, 0, 80, 75
2, 17087, Note_on_c, 0, 80, 0
2, 17088, Note_on_c, 0, 81, 75
2, 17111, Note_on_c, 0, 81, 0
2, 17112, Note_on_c, 0, 80, 75
2, 17135, Note_on_c, 0, 80, 0
2, 17136, Note_on_c, 0, 81, 75
2, 17159, Note_on_c, 0, 81, 0
2, 17160, Note_on_c, 0, 80, 75
2, 17183, Note_on_c, 0, 80, 0
2, 17184, Note_on_c, 0, 81, 75
2, 17207, Note_on_c, 0, 81, 0
2, 17208, Note_on_c, 0, 80, 75
2, 17231, Note_on_c, 0, 80, 0
2, 17232, Note_on_c, 0, 81, 75
2, 17255, Note_on_c, 0, 81, 0
2, 17256, Note_on_c, 0, 80, 75
2, 17279, Note_on_c, 0, 80, 0
2, 17280, Note_on_c, 0, 81, 75
2, 17424, Note_on_c, 0, 81, 0
2, 17424, Note_on_c, 0, 82, 75
2, 17472, Note_on_c, 0, 82, 0
2, 17472, Note_on_c, 0, 83, 75
2, 17492, Note_on_c, 0, 83, 0
2, 17520, Note_on_c, 0, 80, 75
2, 17568, Note_on_c, 0, 80, 0
2, 17568, Note_on_c, 0, 81, 75
2, 17588, Note_on_c, 0, 81, 0
2, 17616, Note_on_c, 0, 78, 75
2, 17664, Note_on_c, 0, 78, 0
2, 17664, Note_on_c, 0, 79, 75
2, 17684, Note_on_c, 0, 79, 0
2, 17712, Note_on_c, 0, 77, 75
2, 17760, Note_on_c, 0, 77, 0
2, 17760, Note_on_c, 0, 78, 75
2, 17780, Note_on_c, 0, 78, 0
2, 17808, Note_on_c, 0, 75, 75
2, 17808, Note_on_c, 0, 69, 75
2, 17856, Note_on_c, 0, 75, 0
2, 17856, Note_on_c, 0, 69, 0
2, 17856, Note_on_c, 0, 76, 75
2, 17856, Note_on_c, 0, 71, 75
2, 17901, Note_on_c, 0, 76, 0
2, 17901, Note_on_c, 0, 71, 0
2, 17904, Note_on_c, 0, 73, 75
2, 17904, Note_on_c, 0, 67, 75
2, 17952, Note_on_c, 0, 73, 0
2, 17952, Note_on_c, 0, 67, 0
2, 17952, Note_on_c, 0, 74, 75
2, 17952, Note_on_c, 0, 69, 75
2, 17997, Note_on_c, 0, 74, 0
2, 17997, Note_on_c, 0, 69, 0
2, 18000, Note_on_c, 0, 79, 75
2, 18000, Note_on_c, 0, 76, 75
2, 18000, Note_on_c, 0, 71, 75
2, 18048, Note_on_c, 0, 79, 0
2, 18048, Note_on_c, 0, 76, 0
2, 18048, Note_on_c, 0, 71, 0
2, 18048, Note_on_c, 0, 78, 75
2, 18093, Note_on_c, 0, 78, 0
2, 18096, Note_on_c, 0, 81, 75
2, 18141, Note_on_c, 0, 81, 0
2, 18144, Note_on_c, 0, 73, 75
2, 18189, Note_on_c, 0, 73, 0
2, 18192, Note_on_c, 0, 76, 75
2, 18237, Note_on_c, 0, 76, 0
2, 19200, Note_on_c, 0, 79, 75
2, 19200, Note_on_c, 0, 76, 75
2, 19200, Note_on_c, 0, 69, 75
2, 19289, Note_on_c, 0, 79, 0
2, 19289, Note_on_c, 0, 76, 0
2, 19289, Note_on_c, 0, 69, 0
2, 19392, Note_on_c, 0, 78, 75
2, 19392, Note_on_c, 0, 74, 75
2, 19392, Note_on_c, 0, 69, 75
2, 19481, Note_on_c, 0, 78, 0
2, 19481, Note_on_c, 0, 74, 0
2, 19481, Note_on_c, 0, 69, 0
2, 19584, Note_on_c, 0, 79, 75
2, 19584, Note_on_c, 0, 76, 75
2, 19584, Note_on_c, 0, 69, 75
2, 19673, Note_on_c, 0, 79, 0
2, 19673, Note_on_c, 0, 76, 0
2, 19673, Note_on_c, 0, 69, 0
2, 19776, Note_on_c, 0, 78, 80
2, 19776, Note_on_c, 0, 74, 80
2, 19776, Note_on_c, 0, 69, 80
2, 19821, Note_on_c, 0, 78, 0
2, 19821, Note_on_c, 0, 74, 0
2, 19821, Note_on_c, 0, 69, 0
2, 19872, Note_on_c, 0, 86, 80
2, 19872, Note_on_c, 0, 78, 80
2, 19872, Note_on_c, 0, 74, 80
2, 19917, Note_on_c, 0, 86, 0
2, 19917, Note_on_c, 0, 78, 0
2, 19917, Note_on_c, 0, 74, 0
2, 19968, Note_on_c, 0, 83, 80
2, 19968, Note_on_c, 0, 79, 80
2, 19968, Note_on_c, 0, 71, 80
2, 20013, Note_on_c, 0, 83, 0
2, 20013, Note_on_c, 0, 79, 0
2, 20013, Note_on_c, 0, 71, 0
2, 20064, Note_on_c, 0, 73, 80
2, 20064, Note_on_c, 0, 67, 80
2, 20064, Note_on_c, 0, 64, 80
2, 20109, Note_on_c, 0, 73, 0
2, 20109, Note_on_c, 0, 67, 0
2, 20109, Note_on_c, 0, 64, 0
2, 20160, Note_on_c, 0, 74, 80
2, 20160, Note_on_c, 0, 66, 80
2, 20160, Note_on_c, 0, 62, 80
2, 20249, Note_on_c, 0, 74, 0
2, 20249, Note_on_c, 0, 66, 0
2, 20249, Note_on_c, 0, 62, 0
2, 20304, Note_on_c, 0, 74, 75
2, 20324, Note_on_c, 0, 74, 0
2, 20352, Note_on_c, 0, 74, 91
2, 20376, Note_on_c, 0, 74, 0
2, 20376, Note_on_c, 0, 73, 75
2, 20399, Note_on_c, 0, 73, 0
2, 20400, Note_on_c, 0, 71, 75
2, 20423, Note_on_c, 0, 71, 0
2, 20424, Note_on_c, 0, 69, 75
2, 20447, Note_on_c, 0, 69, 0
2, 20448, Note_on_c, 0, 68, 75
2, 20471, Note_on_c, 0, 68, 0
2, 20472, Note_on_c, 0, 69, 75
2, 20495, Note_on_c, 0, 69, 0
2, 20496, Note_on_c, 0, 71, 75
2, 20519, Note_on_c, 0, 71, 0
2, 20520, Note_on_c, 0, 73, 75
2, 20543, Note_on_c, 0, 73, 0
2, 20544, Note_on_c, 0, 74, 75
2, 20633, Note_on_c, 0, 74, 0
2, 20688, Note_on_c, 0, 62, 64
2, 20708, Note_on_c, 0, 62, 0
2, 20736, Note_on_c, 0, 61, 64
2, 20759, Note_on_c, 0, 61, 0
2, 20760, Note_on_c, 0, 62, 64
2, 20783, Note_on_c, 0, 62, 0
2, 20784, Note_on_c, 0, 64, 64
2, 20807, Note_on_c, 0, 64, 0
2, 20808, Note_on_c, 0, 66, 64
2, 20831, Note_on_c, 0, 66, 0
2, 20832, Note_on_c, 0, 69, 64
2, 20855, Note_on_c, 0, 69, 0
2, 20856, Note_on_c, 0, 67, 64
2, 20879, Note_on_c, 0, 67, 0
2, 20880, Note_on_c, 0, 66, 64
2, 20903, Note_on_c, 0, 66, 0
2, 20904, Note_on_c, 0, 64, 64
2, 20927, Note_on_c, 0, 64, 0
2, 20928, Note_on_c, 0, 62, 64
2, 21017, Note_on_c, 0, 62, 0
2, 21072, Note_on_c, 0, 81, 75
2, 21120, Note_on_c, 0, 81, 0
2, 21120, Note_on_c, 0, 83, 75
2, 21140, Note_on_c, 0, 83, 0
2, 21168, Note_on_c, 0, 80, 75
2, 21216, Note_on_c, 0, 80, 0
2, 21216, Note_on_c, 0, 81, 75
2, 21236, Note_on_c, 0, 81, 0
2, 21264, Note_on_c, 0, 78, 75
2, 21264, Note_on_c, 0, 74, 75
2, 21312, Note_on_c, 0, 78, 0
2, 21312, Note_on_c, 0, 74, 0
2, 21312, Note_on_c, 0, 79, 75
2, 21312, Note_on_c, 0, 76, 75
2, 21332, Note_on_c, 0, 79, 0
2, 21332, Note_on_c, 0, 76, 0
2, 21360, Note_on_c, 0, 76, 75
2, 21360, Note_on_c, 0, 73, 75
2, 21408, Note_on_c, 0, 76, 0
2, 21408, Note_on_c, 0, 73, 0
2, 21408, Note_on_c, 0, 78, 75
2, 21408, Note_on_c, 0, 74, 75
2, 21428, Note_on_c, 0, 78, 0
2, 21428, Note_on_c, 0, 74, 0
2, 21456, Note_on_c, 0, 76, 75
2, 21456, Note_on_c, 0, 73, 75
2, 21504, Note_on_c, 0, 76, 0
2, 21504, Note_on_c, 0, 74, 75
2, 21549, Note_on_c, 0, 74, 0
2, 21549, Note_on_c, 0, 73, 0
2, 21552, Note_on_c, 0, 79, 75
2, 21597, Note_on_c, 0, 79, 0
2, 21600, Note_on_c, 0, 73, 75
2, 21645, Note_on_c, 0, 73, 0
2, 21648, Note_on_c, 0, 78, 75
2, 21693, Note_on_c, 0, 78, 0
2, 21696, Note_on_c, 0, 71, 75
2, 21744, Note_on_c, 0, 71, 0
2, 21744, Note_on_c, 0, 76, 75
2, 21789, Note_on_c, 0, 76, 0
2, 21792, Note_on_c, 0, 69, 75
2, 21840, Note_on_c, 0, 69, 0
2, 21840, Note_on_c, 0, 74, 75
2, 21885, Note_on_c, 0, 74, 0
2, 21888, Note_on_c, 0, 74, 91
2, 21888, Note_on_c, 0, 64, 91
2, 21984, Note_on_c, 0, 74, 0
2, 21984, Note_on_c, 0, 64, 0
2, 22032, Note_on_c, 0, 74, 75
2, 22052, Note_on_c, 0, 74, 0
2, 22080, Note_on_c, 0, 74, 91
2, 22104, Note_on_c, 0, 74, 0
2, 22104, Note_on_c, 0, 73, 75
2, 22127, Note_on_c, 0, 73, 0
2, 22128, Note_on_c, 0, 71, 75
2, 22151, Note_on_c, 0, 71, 0
2, 22152, Note_on_c, 0, 69, 75
2, 22175, Note_on_c, 0, 69, 0
2, 22176, Note_on_c, 0, 68, 75
2, 22199, Note_on_c, 0, 68, 0
2, 22200, Note_on_c, 0, 69, 75
2, 22223, Note_on_c, 0, 69, 0
2, 22224, Note_on_c, 0, 71, 75
2, 22247, Note_on_c, 0, 71, 0
2, 22248, Note_on_c, 0, 73, 75
2, 22271, Note_on_c, 0, 73, 0
2, 22272, Note_on_c, 0, 74, 75
2, 22361, Note_on_c, 0, 74, 0
2, 22416, Note_on_c, 0, 74, 75
2, 22436, Note_on_c, 0, 74, 0
2, 22464, Note_on_c, 0, 74, 91
2, 22488, Note_on_c, 0, 74, 0
2, 22488, Note_on_c, 0, 73, 75
2, 22511, Note_on_c, 0, 73, 0
2, 22512, Note_on_c, 0, 71, 75
2, 22535, Note_on_c, 0, 71, 0
2, 22536, Note_on_c, 0, 69, 75
2, 22559, Note_on_c, 0, 69, 0
2, 22560, Note_on_c, 0, 68, 75
2, 22583, Note_on_c, 0, 68, 0
2, 22584, Note_on_c, 0, 69, 75
2, 22607, Note_on_c, 0, 69, 0
2, 22608, Note_on_c, 0, 71, 75
2, 22631, Note_on_c, 0, 71, 0
2, 22632, Note_on_c, 0, 73, 75
2, 22655, Note_on_c, 0, 73, 0
2, 22656, Note_on_c, 0, 74, 75
2, 22745, Note_on_c, 0, 74, 0
2, 22800, Note_on_c, 0, 81, 75
2, 22820, Note_on_c, 0, 81, 0
2, 22848, Note_on_c, 0, 81, 91
2, 22872, Note_on_c, 0, 81, 0
2, 22872, Note_on_c, 0, 71, 75
2, 22895, Note_on_c, 0, 71, 0
2, 22896, Note_on_c, 0, 73, 75
2, 22919, Note_on_c, 0, 73, 0
2, 22920, Note_on_c, 0, 71, 75
2, 22943, Note_on_c, 0, 71, 0
2, 22944, Note_on_c, 0, 79, 75
2, 22967, Note_on_c, 0, 79, 0
2, 22968, Note_on_c, 0, 78, 75
2, 22991, Note_on_c, 0, 78, 0
2, 22992, Note_on_c, 0, 76, 75
2, 23015, Note_on_c, 0, 76, 0
2, 23016, Note_on_c, 0, 74, 75
2, 23039, Note_on_c, 0, 74, 0
2, 23040, Note_on_c, 0, 73, 75
2, 23129, Note_on_c, 0, 73, 0
2, 23136, Note_on_c, 0, 81, 75
2, 23136, Note_on_c, 0, 78, 75
2, 23159, Note_on_c, 0, 81, 0
2, 23159, Note_on_c, 0, 78, 0
2, 23160, Note_on_c, 0, 79, 75
2, 23160, Note_on_c, 0, 76, 75
2, 23183, Note_on_c, 0, 79, 0
2, 23183, Note_on_c, 0, 76, 0
2, 23184, Note_on_c, 0, 78, 75
2, 23184, Note_on_c, 0, 74, 75
2, 23207, Note_on_c, 0, 78, 0
2, 23207, Note_on_c, 0, 74, 0
2, 23208, Note_on_c, 0, 76, 75
2, 23208, Note_on_c, 0, 73, 75
2, 23231, Note_on_c, 0, 76, 0
2, 23231, Note_on_c, 0, 73, 0
2, 23232, Note_on_c, 0, 74, 75
2, 23321, Note_on_c, 0, 74, 0
2, 23328, Note_on_c, 0, 83, 75
2, 23328, Note_on_c, 0, 79, 75
2, 23351, Note_on_c, 0, 83, 0
2, 23351, Note_on_c, 0, 79, 0
2, 23352, Note_on_c, 0, 81, 75
2, 23352, Note_on_c, 0, 78, 75
2, 23375, Note_on_c, 0, 81, 0
2, 23375, Note_on_c, 0, 78, 0
2, 23376, Note_on_c, 0, 79, 75
2, 23376, Note_on_c, 0, 76, 75
2, 23399, Note_on_c, 0, 79, 0
2, 23399, Note_on_c, 0, 76, 0
2, 23400, Note_on_c, 0, 78, 75
2, 23400, Note_on_c, 0, 74, 75
2, 23423, Note_on_c, 0, 78, 0
2, 23423, Note_on_c, 0, 74, 0
2, 23424, Note_on_c, 0, 76, 75
2, 23424, Note_on_c, 0, 73, 75
2, 23469, Note_on_c, 0, 76, 0
2, 23469, Note_on_c, 0, 73, 0
2, 23472, Note_on_c, 0, 78, 75
2, 23472, Note_on_c, 0, 74, 75
2, 23517, Note_on_c, 0, 78, 0
2, 23517, Note_on_c, 0, 74, 0
2, 23520, Note_on_c, 0, 79, 75
2, 23520, Note_on_c, 0, 76, 75
2, 23565, Note_on_c, 0, 79, 0
2, 23565, Note_on_c, 0, 76, 0
2, 23568, Note_on_c, 0, 78, 75
2, 23568, Note_on_c, 0, 74, 75
2, 23613, Note_on_c, 0, 78, 0
2, 23613, Note_on_c, 0, 74, 0
2, 23616, Note_on_c, 0, 76, 75
2, 23616, Note_on_c, 0, 73, 75
2, 23661, Note_on_c, 0, 76, 0
2, 23661, Note_on_c, 0, 73, 0
2, 23664, Note_on_c, 0, 83, 75
2, 23676, Note_on_c, 0, 83, 0
2, 23676, Note_on_c, 0, 81, 75
2, 23688, Note_on_c, 0, 81, 0
2, 23688, Note_on_c, 0, 80, 75
2, 23700, Note_on_c, 0, 80, 0
2, 23700, Note_on_c, 0, 81, 75
2, 23712, Note_on_c, 0, 81, 0
2, 23712, Note_on_c, 0, 83, 75
2, 23757, Note_on_c, 0, 83, 0
2, 23760, Note_on_c, 0, 80, 75
2, 23805, Note_on_c, 0, 80, 0
2, 23808, Note_on_c, 0, 81, 75
2, 23828, Note_on_c, 0, 81, 0
2, 23856, Note_on_c, 0, 86, 75
2, 23868, Note_on_c, 0, 86, 0
2, 23868, Note_on_c, 0, 85, 75
2, 23880, Note_on_c, 0, 85, 0
2, 23880, Note_on_c, 0, 83, 75
2, 23892, Note_on_c, 0, 83, 0
2, 23892, Note_on_c, 0, 85, 75
2, 23904, Note_on_c, 0, 85, 0
2, 23904, Note_on_c, 0, 86, 75
2, 23949, Note_on_c, 0, 86, 0
2, 23952, Note_on_c, 0, 83, 75
2, 23997, Note_on_c, 0, 83, 0
2, 24000, Note_on_c, 0, 81, 75
2, 24045, Note_on_c, 0, 81, 0
2, 24096, Note_on_c, 0, 81, 73
2, 24141, Note_on_c, 0, 81, 0
2, 24192, Note_on_c, 0, 81, 71
2, 24281, Note_on_c, 0, 81, 0
2, 24528, Note_on_c, 0, 71, 70
2, 24576, Note_on_c, 0, 71, 0
2, 24576, Note_on_c, 0, 72, 70
2, 24596, Note_on_c, 0, 72, 0
2, 24624, Note_on_c, 0, 70, 70
2, 24672, Note_on_c, 0, 70, 0
2, 24672, Note_on_c, 0, 71, 70
2, 24692, Note_on_c, 0, 71, 0
2, 24720, Note_on_c, 0, 69, 70
2, 24792, Note_on_c, 0, 69, 0
2, 24792, Note_on_c, 0, 68, 70
2, 24815, Note_on_c, 0, 68, 0
2, 24816, Note_on_c, 0, 66, 70
2, 24839, Note_on_c, 0, 66, 0
2, 24840, Note_on_c, 0, 64, 70
2, 24863, Note_on_c, 0, 64, 0
2, 24864, Note_on_c, 0, 63, 70
2, 24887, Note_on_c, 0, 63, 0
2, 24888, Note_on_c, 0, 64, 70
2, 24911, Note_on_c, 0, 64, 0
2, 24912, Note_on_c, 0, 66, 70
2, 24935, Note_on_c, 0, 66, 0
2, 24936, Note_on_c, 0, 68, 70
2, 24959, Note_on_c, 0, 68, 0
2, 24960, Note_on_c, 0, 69, 70
2, 25049, Note_on_c, 0, 69, 0
2, 25104, Note_on_c, 0, 67, 70
2, 25124, Note_on_c, 0, 67, 0
2, 25152, Note_on_c, 0, 67, 86
2, 25176, Note_on_c, 0, 67, 0
2, 25176, Note_on_c, 0, 66, 70
2, 25199, Note_on_c, 0, 66, 0
2, 25200, Note_on_c, 0, 64, 70
2, 25223, Note_on_c, 0, 64, 0
2, 25224, Note_on_c, 0, 62, 70
2, 25247, Note_on_c, 0, 62, 0
2, 25248, Note_on_c, 0, 61, 70
2, 25271, Note_on_c, 0, 61, 0
2, 25272, Note_on_c, 0, 62, 70
2, 25295, Note_on_c, 0, 62, 0
2, 25296, Note_on_c, 0, 64, 70
2, 25319, Note_on_c, 0, 64, 0
2, 25320, Note_on_c, 0, 66, 70
2, 25343, Note_on_c, 0, 66, 0
2, 25344, Note_on_c, 0, 67, 70
2, 25433, Note_on_c, 0, 67, 0
2, 25488, Note_on_c, 0, 79, 70
2, 25508, Note_on_c, 0, 79, 0
2, 25536, Note_on_c, 0, 79, 86
2, 25560, Note_on_c, 0, 79, 0
2, 25560, Note_on_c, 0, 78, 70
2, 25583, Note_on_c, 0, 78, 0
2, 25584, Note_on_c, 0, 76, 70
2, 25607, Note_on_c, 0, 76, 0
2, 25608, Note_on_c, 0, 74, 70
2, 25631, Note_on_c, 0, 74, 0
2, 25632, Note_on_c, 0, 73, 70
2, 25655, Note_on_c, 0, 73, 0
2, 25656, Note_on_c, 0, 74, 70
2, 25679, Note_on_c, 0, 74, 0
2, 25680, Note_on_c, 0, 76, 70
2, 25703, Note_on_c, 0, 76, 0
2, 25704, Note_on_c, 0, 78, 70
2, 25727, Note_on_c, 0, 78, 0
2, 25728, Note_on_c, 0, 79, 70
2, 25751, Note_on_c, 0, 79, 0
2, 25752, Note_on_c, 0, 74, 71
2, 25775, Note_on_c, 0, 74, 0
2, 25776, Note_on_c, 0, 81, 73
2, 25799, Note_on_c, 0, 81, 0
2, 25800, Note_on_c, 0, 74, 75
2, 25823, Note_on_c, 0, 74, 0
2, 25824, Note_on_c, 0, 83, 74
2, 25847, Note_on_c, 0, 83, 0
2, 25848, Note_on_c, 0, 74, 73
2, 25871, Note_on_c, 0, 74, 0
2, 25872, Note_on_c, 0, 81, 72
2, 25895, Note_on_c, 0, 81, 0
2, 25896, Note_on_c, 0, 74, 71
2, 25919, Note_on_c, 0, 74, 0
2, 25920, Note_on_c, 0, 81, 70
2, 25943, Note_on_c, 0, 81, 0
2, 25944, Note_on_c, 0, 80, 70
2, 25967, Note_on_c, 0, 80, 0
2, 25968, Note_on_c, 0, 78, 70
2, 25991, Note_on_c, 0, 78, 0
2, 25992, Note_on_c, 0, 76, 70
2, 26015, Note_on_c, 0, 76, 0
2, 26016, Note_on_c, 0, 75, 70
2, 26039, Note_on_c, 0, 75, 0
2, 26040, Note_on_c, 0, 76, 70
2, 26063, Note_on_c, 0, 76, 0
2, 26064, Note_on_c, 0, 78, 70
2, 26087, Note_on_c, 0, 78, 0
2, 26088, Note_on_c, 0, 80, 70
2, 26111, Note_on_c, 0, 80, 0
2, 26112, Note_on_c, 0, 81, 70
2, 26135, Note_on_c, 0, 81, 0
2, 26136, Note_on_c, 0, 76, 71
2, 26159, Note_on_c, 0, 76, 0
2, 26160, Note_on_c, 0, 83, 73
2, 26183, Note_on_c, 0, 83, 0
2, 26184, Note_on_c, 0, 76, 75
2, 26207, Note_on_c, 0, 76, 0
2, 26208, Note_on_c, 0, 84, 74
2, 26231, Note_on_c, 0, 84, 0
2, 26232, Note_on_c, 0, 76, 73
2, 26255, Note_on_c, 0, 76, 0
2, 26256, Note_on_c, 0, 83, 72
2, 26279, Note_on_c, 0, 83, 0
2, 26280, Note_on_c, 0, 76, 71
2, 26303, Note_on_c, 0, 76, 0
2, 26304, Note_on_c, 0, 83, 70
2, 26327, Note_on_c, 0, 83, 0
2, 26328, Note_on_c, 0, 82, 70
2, 26351, Note_on_c, 0, 82, 0
2, 26352, Note_on_c, 0, 80, 70
2, 26375, Note_on_c, 0, 80, 0
2, 26376, Note_on_c, 0, 78, 70
2, 26399, Note_on_c, 0, 78, 0
2, 26400, Note_on_c, 0, 77, 70
2, 26423, Note_on_c, 0, 77, 0
2, 26424, Note_on_c, 0, 78, 70
2, 26447, Note_on_c, 0, 78, 0
2, 26448, Note_on_c, 0, 80, 70
2, 26471, Note_on_c, 0, 80, 0
2, 26472, Note_on_c, 0, 82, 70
2, 26495, Note_on_c, 0, 82, 0
2, 26496, Note_on_c, 0, 83, 70
2, 26585, Note_on_c, 0, 83, 0
2, 26640, Note_on_c, 0, 81, 70
2, 26660, Note_on_c, 0, 81, 0
2, 26688, Note_on_c, 0, 81, 86
2, 26712, Note_on_c, 0, 81, 0
2, 26712, Note_on_c, 0, 80, 70
2, 26735, Note_on_c, 0, 80, 0
2, 26736, Note_on_c, 0, 78, 70
2, 26759, Note_on_c, 0, 78, 0
2, 26760, Note_on_c, 0, 76, 70
2, 26783, Note_on_c, 0, 76, 0
2, 26784, Note_on_c, 0, 75, 70
2, 26807, Note_on_c, 0, 75, 0
2, 26808, Note_on_c, 0, 76, 70
2, 26831, Note_on_c, 0, 76, 0
2, 26832, Note_on_c, 0, 78, 70
2, 26855, Note_on_c, 0, 78, 0
2, 26856, Note_on_c, 0, 80, 70
2, 26879, Note_on_c, 0, 80, 0
2, 26880, Note_on_c, 0, 81, 70
2, 26969, Note_on_c, 0, 81, 0
2, 27024, Note_on_c, 0, 79, 70
2, 27044, Note_on_c, 0, 79, 0
2, 27072, Note_on_c, 0, 79, 86
2, 27096, Note_on_c, 0, 79, 0
2, 27096, Note_on_c, 0, 78, 70
2, 27119, Note_on_c, 0, 78, 0
2, 27120, Note_on_c, 0, 76, 70
2, 27143, Note_on_c, 0, 76, 0
2, 27144, Note_on_c, 0, 74, 70
2, 27167, Note_on_c, 0, 74, 0
2, 27168, Note_on_c, 0, 78, 70
2, 27191, Note_on_c, 0, 78, 0
2, 27192, Note_on_c, 0, 76, 70
2, 27215, Note_on_c, 0, 76, 0
2, 27216, Note_on_c, 0, 74, 70
2, 27239, Note_on_c, 0, 74, 0
2, 27240, Note_on_c, 0, 73, 70
2, 27263, Note_on_c, 0, 73, 0
2, 27264, Note_on_c, 0, 76, 70
2, 27287, Note_on_c, 0, 76, 0
2, 27288, Note_on_c, 0, 74, 70
2, 27311, Note_on_c, 0, 74, 0
2, 27312, Note_on_c, 0, 73, 70
2, 27335, Note_on_c, 0, 73, 0
2, 27336, Note_on_c, 0, 71, 70
2, 27359, Note_on_c, 0, 71, 0
2, 27360, Note_on_c, 0, 74, 70
2, 27383, Note_on_c, 0, 74, 0
2, 27384, Note_on_c, 0, 73, 70
2, 27407, Note_on_c, 0, 73, 0
2, 27408, Note_on_c, 0, 71, 70
2, 27431, Note_on_c, 0, 71, 0
2, 27432, Note_on_c, 0, 69, 70
2, 27455, Note_on_c, 0, 69, 0
2, 27456, Note_on_c, 0, 71, 70
2, 27501, Note_on_c, 0, 71, 0
2, 27504, Note_on_c, 0, 76, 70
2, 27549, Note_on_c, 0, 76, 0
2, 27552, Note_on_c, 0, 69, 70
2, 27597, Note_on_c, 0, 69, 0
2, 27600, Note_on_c, 0, 74, 70
2, 27645, Note_on_c, 0, 74, 0
2, 27648, Note_on_c, 0, 67, 70
2, 27671, Note_on_c, 0, 67, 0
2, 27672, Note_on_c, 0, 71, 70
2, 27695, Note_on_c, 0, 71, 0
2, 27696, Note_on_c, 0, 69, 70
2, 27719, Note_on_c, 0, 69, 0
2, 27720, Note_on_c, 0, 67, 70
2, 27743, Note_on_c, 0, 67, 0
2, 27744, Note_on_c, 0, 66, 70
2, 27767, Note_on_c, 0, 66, 0
2, 27768, Note_on_c, 0, 69, 70
2, 27791, Note_on_c, 0, 69, 0
2, 27792, Note_on_c, 0, 67, 70
2, 27815, Note_on_c, 0, 67, 0
2, 27816, Note_on_c, 0, 66, 70
2, 27839, Note_on_c, 0, 66, 0
2, 27840, Note_on_c, 0, 64, 70
2, 27885, Note_on_c, 0, 64, 0
2, 27888, Note_on_c, 0, 71, 68
2, 27888, Note_on_c, 0, 67, 68
2, 27933, Note_on_c, 0, 71, 0
2, 27933, Note_on_c, 0, 67, 0
2, 27936, Note_on_c, 0, 69, 67
2, 27981, Note_on_c, 0, 69, 0
2, 27984, Note_on_c, 0, 61, 65
2, 27984, Note_on_c, 0, 55, 65
2, 28029, Note_on_c, 0, 61, 0
2, 28029, Note_on_c, 0, 55, 0
2, 28032, Note_on_c, 0, 62, 64
2, 28032, Note_on_c, 0, 54, 64
2, 28121, Note_on_c, 0, 62, 0
2, 28121, Note_on_c, 0, 54, 0
2, 28176, Note_on_c, 0, 78, 75
2, 28224, Note_on_c, 0, 78, 0
2, 28224, Note_on_c, 0, 79, 75
2, 28244, Note_on_c, 0, 79, 0
2, 28272, Note_on_c, 0, 76, 75
2, 28320, Note_on_c, 0, 76, 0
2, 28320, Note_on_c, 0, 78, 75
2, 28340, Note_on_c, 0, 78, 0
2, 28368, Note_on_c, 0, 75, 75
2, 28416, Note_on_c, 0, 75, 0
2, 28416, Note_on_c, 0, 76, 75
2, 28436, Note_on_c, 0, 76, 0
2, 28464, Note_on_c, 0, 73, 75
2, 28512, Note_on_c, 0, 73, 0
2, 28512, Note_on_c, 0, 74, 75
2, 28532, Note_on_c, 0, 74, 0
2, 28560, Note_on_c, 0, 81, 75
2, 28608, Note_on_c, 0, 81, 0
2, 28608, Note_on_c, 0, 80, 75
2, 28628, Note_on_c, 0, 80, 0
2, 28656, Note_on_c, 0, 83, 75
2, 28704, Note_on_c, 0, 83, 0
2, 28704, Note_on_c, 0, 81, 75
2, 28724, Note_on_c, 0, 81, 0
2, 28752, Note_on_c, 0, 85, 75
2, 28800, Note_on_c, 0, 85, 0
2, 28800, Note_on_c, 0, 83, 75
2, 28820, Note_on_c, 0, 83, 0
2, 28848, Note_on_c, 0, 86, 75
2, 28896, Note_on_c, 0, 86, 0
2, 28896, Note_on_c, 0, 85, 75
2, 28916, Note_on_c, 0, 85, 0
2, 28944, Note_on_c, 0, 88, 75
2, 29037, Note_on_c, 0, 88, 0
2, 29040, Note_on_c, 0, 86, 75
2, 29129, Note_on_c, 0, 86, 0
2, 29136, Note_on_c, 0, 85, 75
2, 29229, Note_on_c, 0, 85, 0
2, 29232, Note_on_c, 0, 83, 75
2, 29321, Note_on_c, 0, 83, 0
2, 29328, Note_on_c, 0, 81, 75
2, 29348, Note_on_c, 0, 81, 0
2, 29376, Note_on_c, 0, 83, 75
2, 29399, Note_on_c, 0, 83, 0
2, 29400, Note_on_c, 0, 85, 75
2, 29423, Note_on_c, 0, 85, 0
2, 29424, Note_on_c, 0, 86, 75
2, 29447, Note_on_c, 0, 86, 0
2, 29448, Note_on_c, 0, 88, 75
2, 29471, Note_on_c, 0, 88, 0
2, 29472, Note_on_c, 0, 81, 75
2, 29495, Note_on_c, 0, 81, 0
2, 29496, Note_on_c, 0, 84, 75
2, 29519, Note_on_c, 0, 84, 0
2, 29520, Note_on_c, 0, 83, 75
2, 29543, Note_on_c, 0, 83, 0
2, 29544, Note_on_c, 0, 81, 75
2, 29567, Note_on_c, 0, 81, 0
2, 29568, Note_on_c, 0, 79, 75
2, 29591, Note_on_c, 0, 79, 0
2, 29592, Note_on_c, 0, 83, 75
2, 29615, Note_on_c, 0, 83, 0
2, 29616, Note_on_c, 0, 81, 75
2, 29639, Note_on_c, 0, 81, 0
2, 29640, Note_on_c, 0, 79, 75
2, 29663, Note_on_c, 0, 79, 0
2, 29664, Note_on_c, 0, 78, 75
2, 29687, Note_on_c, 0, 78, 0
2, 29688, Note_on_c, 0, 81, 75
2, 29711, Note_on_c, 0, 81, 0
2, 29712, Note_on_c, 0, 79, 75
2, 29735, Note_on_c, 0, 79, 0
2, 29736, Note_on_c, 0, 78, 75
2, 29759, Note_on_c, 0, 78, 0
2, 29760, Note_on_c, 0, 76, 75
2, 29783, Note_on_c, 0, 76, 0
2, 29784, Note_on_c, 0, 75, 75
2, 29807, Note_on_c, 0, 75, 0
2, 29808, Note_on_c, 0, 76, 76
2, 29831, Note_on_c, 0, 76, 0
2, 29832, Note_on_c, 0, 75, 76
2, 29855, Note_on_c, 0, 75, 0
2, 29856, Note_on_c, 0, 76, 77
2, 29879, Note_on_c, 0, 76, 0
2, 29880, Note_on_c, 0, 78, 78
2, 29903, Note_on_c, 0, 78, 0
2, 29904, Note_on_c, 0, 76, 78
2, 29927, Note_on_c, 0, 76, 0
2, 29928, Note_on_c, 0, 74, 79
2, 29951, Note_on_c, 0, 74, 0
2, 29952, Note_on_c, 0, 73, 80
2, 29975, Note_on_c, 0, 73, 0
2, 29976, Note_on_c, 0, 74, 79
2, 29999, Note_on_c, 0, 74, 0
2, 30000, Note_on_c, 0, 76, 78
2, 30023, Note_on_c, 0, 76, 0
2, 30024, Note_on_c, 0, 74, 78
2, 30047, Note_on_c, 0, 74, 0
2, 30048, Note_on_c, 0, 73, 77
2, 30071, Note_on_c, 0, 73, 0
2, 30072, Note_on_c, 0, 71, 76
2, 30095, Note_on_c, 0, 71, 0
2, 30096, Note_on_c, 0, 69, 76
2, 30119, Note_on_c, 0, 69, 0
2, 30120, Note_on_c, 0, 67, 75
2, 30143, Note_on_c, 0, 67, 0
2, 30144, Note_on_c, 0, 66, 75
2, 30233, Note_on_c, 0, 66, 0
2, 30288, Note_on_c, 0, 62, 75
2, 30336, Note_on_c, 0, 62, 0
2, 30336, Note_on_c, 0, 64, 75
2, 30356, Note_on_c, 0, 64, 0
2, 30384, Note_on_c, 0, 61, 75
2, 30432, Note_on_c, 0, 61, 0
2, 30432, Note_on_c, 0, 62, 75
2, 30477, Note_on_c, 0, 62, 0
2, 30480, Note_on_c, 0, 71, 75
2, 30480, Note_on_c, 0, 66, 75
2, 30528, Note_on_c, 0, 71, 0
2, 30528, Note_on_c, 0, 66, 0
2, 30528, Note_on_c, 0, 72, 75
2, 30528, Note_on_c, 0, 67, 75
2, 30573, Note_on_c, 0, 72, 0
2, 30573, Note_on_c, 0, 67, 0
2, 30576, Note_on_c, 0, 70, 75
2, 30576, Note_on_c, 0, 64, 75
2, 30624, Note_on_c, 0, 70, 0
2, 30624, Note_on_c, 0, 64, 0
2, 30624, Note_on_c, 0, 71, 75
2, 30624, Note_on_c, 0, 66, 75
2, 30669, Note_on_c, 0, 71, 0
2, 30669, Note_on_c, 0, 66, 0
2, 30672, Note_on_c, 0, 68, 75
2, 30672, Note_on_c, 0, 62, 75
2, 30720, Note_on_c, 0, 68, 0
2, 30720, Note_on_c, 0, 62, 0
2, 30720, Note_on_c, 0, 69, 75
2, 30720, Note_on_c, 0, 64, 75
2, 30765, Note_on_c, 0, 69, 0
2, 30765, Note_on_c, 0, 64, 0
2, 30768, Note_on_c, 0, 66, 75
2, 30768, Note_on_c, 0, 60, 75
2, 30816, Note_on_c, 0, 66, 0
2, 30816, Note_on_c, 0, 60, 0
2, 30816, Note_on_c, 0, 67, 75
2, 30861, Note_on_c, 0, 67, 0
2, 30864, Note_on_c, 0, 71, 75
2, 30912, Note_on_c, 0, 71, 0
2, 30912, Note_on_c, 0, 62, 75
2, 31008, Note_on_c, 0, 62, 0
2, 31008, Note_on_c, 0, 61, 75
2, 31053, Note_on_c, 0, 61, 0
2, 31056, Note_on_c, 0, 74, 75
2, 31076, Note_on_c, 0, 74, 0
2, 31104, Note_on_c, 0, 74, 91
2, 31128, Note_on_c, 0, 74, 0
2, 31128, Note_on_c, 0, 73, 75
2, 31151, Note_on_c, 0, 73, 0
2, 31152, Note_on_c, 0, 71, 75
2, 31175, Note_on_c, 0, 71, 0
2, 31176, Note_on_c, 0, 69, 75
2, 31199, Note_on_c, 0, 69, 0
2, 31200, Note_on_c, 0, 68, 75
2, 31223, Note_on_c, 0, 68, 0
2, 31224, Note_on_c, 0, 69, 75
2, 31247, Note_on_c, 0, 69, 0
2, 31248, Note_on_c, 0, 71, 75
2, 31271, Note_on_c, 0, 71, 0
2, 31272, Note_on_c, 0, 73, 75
2, 31295, Note_on_c, 0, 73, 0
2, 31296, Note_on_c, 0, 74, 75
2, 31385, Note_on_c, 0, 74, 0
2, 31440, Note_on_c, 0, 81, 75
2, 31460, Note_on_c, 0, 81, 0
2, 31488, Note_on_c, 0, 81, 91
2, 31512, Note_on_c, 0, 81, 0
2, 31512, Note_on_c, 0, 79, 75
2, 31535, Note_on_c, 0, 79, 0
2, 31536, Note_on_c, 0, 78, 75
2, 31559, Note_on_c, 0, 78, 0
2, 31560, Note_on_c, 0, 76, 75
2, 31583, Note_on_c, 0, 76, 0
2, 31584, Note_on_c, 0, 75, 75
2, 31607, Note_on_c, 0, 75, 0
2, 31608, Note_on_c, 0, 76, 75
2, 31631, Note_on_c, 0, 76, 0
2, 31632, Note_on_c, 0, 78, 75
2, 31655, Note_on_c, 0, 78, 0
2, 31656, Note_on_c, 0, 79, 75
2, 31679, Note_on_c, 0, 79, 0
2, 31680, Note_on_c, 0, 81, 75
2, 31769, Note_on_c, 0, 81, 0
2, 31824, Note_on_c, 0, 86, 75
2, 31844, Note_on_c, 0, 86, 0
2, 31872, Note_on_c, 0, 86, 91
2, 31896, Note_on_c, 0, 86, 0
2, 31896, Note_on_c, 0, 85, 75
2, 31919, Note_on_c, 0, 85, 0
2, 31920, Note_on_c, 0, 83, 75
2, 31943, Note_on_c, 0, 83, 0
2, 31944, Note_on_c, 0, 81, 75
2, 31967, Note_on_c, 0, 81, 0
2, 31968, Note_on_c, 0, 80, 75
2, 31991, Note_on_c, 0, 80, 0
2, 31992, Note_on_c, 0, 81, 75
2, 32015, Note_on_c, 0, 81, 0
2, 32016, Note_on_c, 0, 83, 75
2, 32039, Note_on_c, 0, 83, 0
2, 32040, Note_on_c, 0, 85, 75
2, 32063, Note_on_c, 0, 85, 0
2, 32064, Note_on_c, 0, 86, 75
2, 32087, Note_on_c, 0, 86, 0
2, 32088, Note_on_c, 0, 81, 75
2, 32111, Note_on_c, 0, 81, 0
2, 32112, Note_on_c, 0, 85, 75
2, 32135, Note_on_c, 0, 85, 0
2, 32136, Note_on_c, 0, 79, 75
2, 32159, Note_on_c, 0, 79, 0
2, 32160, Note_on_c, 0, 83, 75
2, 32183, Note_on_c, 0, 83, 0
2, 32184, Note_on_c, 0, 78, 75
2, 32207, Note_on_c, 0, 78, 0
2, 32208, Note_on_c, 0, 81, 75
2, 32231, Note_on_c, 0, 81, 0
2, 32232, Note_on_c, 0, 76, 75
2, 32255, Note_on_c, 0, 76, 0
2, 32256, Note_on_c, 0, 79, 75
2, 32279, Note_on_c, 0, 79, 0
2, 32280, Note_on_c, 0, 74, 75
2, 32303, Note_on_c, 0, 74, 0
2, 32304, Note_on_c, 0, 78, 75
2, 32327, Note_on_c, 0, 78, 0
2, 32328, Note_on_c, 0, 73, 75
2, 32351, Note_on_c, 0, 73, 0
2, 32352, Note_on_c, 0, 76, 75
2, 32375, Note_on_c, 0, 76, 0
2, 32376, Note_on_c, 0, 71, 75
2, 32399, Note_on_c, 0, 71, 0
2, 32400, Note_on_c, 0, 75, 75
2, 32423, Note_on_c, 0, 75, 0
2, 32424, Note_on_c, 0, 71, 75
2, 32447, Note_on_c, 0, 71, 0
2, 32448, Note_on_c, 0, 76, 75
2, 32471, Note_on_c, 0, 76, 0
2, 32472, Note_on_c, 0, 71, 75
2, 32495, Note_on_c, 0, 71, 0
2, 32496, Note_on_c, 0, 75, 76
2, 32519, Note_on_c, 0, 75, 0
2, 32520, Note_on_c, 0, 71, 76
2, 32543, Note_on_c, 0, 71, 0
2, 32544, Note_on_c, 0, 76, 77
2, 32567, Note_on_c, 0, 76, 0
2, 32568, Note_on_c, 0, 71, 78
2, 32591, Note_on_c, 0, 71, 0
2, 32592, Note_on_c, 0, 78, 78
2, 32615, Note_on_c, 0, 78, 0
2, 32616, Note_on_c, 0, 71, 79
2, 32639, Note_on_c, 0, 71, 0
2, 32640, Note_on_c, 0, 79, 80
2, 32663, Note_on_c, 0, 79, 0
2, 32664, Note_on_c, 0, 71, 79
2, 32687, Note_on_c, 0, 71, 0
2, 32688, Note_on_c, 0, 78, 78
2, 32711, Note_on_c, 0, 78, 0
2, 32712, Note_on_c, 0, 71, 78
2, 32735, Note_on_c, 0, 71, 0
2, 32736, Note_on_c, 0, 79, 77
2, 32759, Note_on_c, 0, 79, 0
2, 32760, Note_on_c, 0, 71, 76
2, 32783, Note_on_c, 0, 71, 0
2, 32784, Note_on_c, 0, 73, 76
2, 32807, Note_on_c, 0, 73, 0
2, 32808, Note_on_c, 0, 69, 75
2, 32831, Note_on_c, 0, 69, 0
2, 32832, Note_on_c, 0, 74, 75
2, 32855, Note_on_c, 0, 74, 0
2, 32856, Note_on_c, 0, 69, 75
2, 32879, Note_on_c, 0, 69, 0
2, 32880, Note_on_c, 0, 73, 76
2, 32903, Note_on_c, 0, 73, 0
2, 32904, Note_on_c, 0, 69, 76
2, 32927, Note_on_c, 0, 69, 0
2, 32928, Note_on_c, 0, 74, 77
2, 32951, Note_on_c, 0, 74, 0
2, 32952, Note_on_c, 0, 69, 78
2, 32975, Note_on_c, 0, 69, 0
2, 32976, Note_on_c, 0, 76, 78
2, 32999, Note_on_c, 0, 76, 0
2, 33000, Note_on_c, 0, 69, 79
2, 33023, Note_on_c, 0, 69, 0
2, 33024, Note_on_c, 0, 78, 80
2, 33047, Note_on_c, 0, 78, 0
2, 33048, Note_on_c, 0, 69, 79
2, 33071, Note_on_c, 0, 69, 0
2, 33072, Note_on_c, 0, 76, 78
2, 33095, Note_on_c, 0, 76, 0
2, 33096, Note_on_c, 0, 69, 78
2, 33119, Note_on_c, 0, 69, 0
2, 33120, Note_on_c, 0, 78, 77
2, 33143, Note_on_c, 0, 78, 0
2, 33144, Note_on_c, 0, 69, 76
2, 33167, Note_on_c, 0, 69, 0
2, 33168, Note_on_c, 0, 76, 76
2, 33191, Note_on_c, 0, 76, 0
2, 33192, Note_on_c, 0, 69, 75
2, 33215, Note_on_c, 0, 69, 0
2, 33216, Note_on_c, 0, 76, 75
2, 33239, Note_on_c, 0, 76, 0
2, 33240, Note_on_c, 0, 75, 75
2, 33263, Note_on_c, 0, 75, 0
2, 33264, Note_on_c, 0, 73, 75
2, 33287, Note_on_c, 0, 73, 0
2, 33288, Note_on_c, 0, 71, 75
2, 33311, Note_on_c, 0, 71, 0
2, 33312, Note_on_c, 0, 70, 75
2, 33335, Note_on_c, 0, 70, 0
2, 33336, Note_on_c, 0, 71, 75
2, 33359, Note_on_c, 0, 71, 0
2, 33360, Note_on_c, 0, 73, 75
2, 33383, Note_on_c, 0, 73, 0
2, 33384, Note_on_c, 0, 75, 75
2, 33407, Note_on_c, 0, 75, 0
2, 33408, Note_on_c, 0, 76, 75
2, 33497, Note_on_c, 0, 76, 0
2, 33552, Note_on_c, 0, 74, 75
2, 33572, Note_on_c, 0, 74, 0
2, 33600, Note_on_c, 0, 74, 91
2, 33624, Note_on_c, 0, 74, 0
2, 33624, Note_on_c, 0, 73, 75
2, 33647, Note_on_c, 0, 73, 0
2, 33648, Note_on_c, 0, 71, 75
2, 33671, Note_on_c, 0, 71, 0
2, 33672, Note_on_c, 0, 69, 75
2, 33695, Note_on_c, 0, 69, 0
2, 33696, Note_on_c, 0, 68, 75
2, 33719, Note_on_c, 0, 68, 0
2, 33720, Note_on_c, 0, 69, 75
2, 33743, Note_on_c, 0, 69, 0
2, 33744, Note_on_c, 0, 71, 75
2, 33767, Note_on_c, 0, 71, 0
2, 33768, Note_on_c, 0, 73, 75
2, 33791, Note_on_c, 0, 73, 0
2, 33792, Note_on_c, 0, 74, 75
2, 33881, Note_on_c, 0, 74, 0
2, 33936, Note_on_c, 0, 81, 75
2, 33956, Note_on_c, 0, 81, 0
2, 33984, Note_on_c, 0, 81, 91
2, 34008, Note_on_c, 0, 81, 0
2, 34008, Note_on_c, 0, 71, 75
2, 34031, Note_on_c, 0, 71, 0
2, 34032, Note_on_c, 0, 73, 75
2, 34055, Note_on_c, 0, 73, 0
2, 34056, Note_on_c, 0, 71, 75
2, 34079, Note_on_c, 0, 71, 0
2, 34080, Note_on_c, 0, 79, 75
2, 34103, Note_on_c, 0, 79, 0
2, 34104, Note_on_c, 0, 78, 75
2, 34127, Note_on_c, 0, 78, 0
2, 34128, Note_on_c, 0, 76, 75
2, 34151, Note_on_c, 0, 76, 0
2, 34152, Note_on_c, 0, 74, 75
2, 34175, Note_on_c, 0, 74, 0
2, 34176, Note_on_c, 0, 73, 75
2, 34265, Note_on_c, 0, 73, 0
2, 34272, Note_on_c, 0, 81, 75
2, 34272, Note_on_c, 0, 78, 75
2, 34295, Note_on_c, 0, 81, 0
2, 34295, Note_on_c, 0, 78, 0
2, 34296, Note_on_c, 0, 79, 75
2, 34296, Note_on_c, 0, 76, 75
2, 34319, Note_on_c, 0, 79, 0
2, 34319, Note_on_c, 0, 76, 0
2, 34320, Note_on_c, 0, 78, 75
2, 34320, Note_on_c, 0, 74, 75
2, 34343, Note_on_c, 0, 78, 0
2, 34343, Note_on_c, 0, 74, 0
2, 34344, Note_on_c, 0, 76, 75
2, 34344, Note_on_c, 0, 73, 75
2, 34367, Note_on_c, 0, 76, 0
2, 34367, Note_on_c, 0, 73, 0
2, 34368, Note_on_c, 0, 74, 75
2, 34457, Note_on_c, 0, 74, 0
2, 34464, Note_on_c, 0, 83, 75
2, 34464, Note_on_c, 0, 79, 75
2, 34487, Note_on_c, 0, 83, 0
2, 34487, Note_on_c, 0, 79, 0
2, 34488, Note_on_c, 0, 81, 75
2, 34488, Note_on_c, 0, 78, 75
2, 34511, Note_on_c, 0, 81, 0
2, 34511, Note_on_c, 0, 78, 0
2, 34512, Note_on_c, 0, 79, 75
2, 34512, Note_on_c, 0, 76, 75
2, 34535, Note_on_c, 0, 79, 0
2, 34535, Note_on_c, 0, 76, 0
2, 34536, Note_on_c, 0, 78, 75
2, 34536, Note_on_c, 0, 74, 75
2, 34559, Note_on_c, 0, 78, 0
2, 34559, Note_on_c, 0, 74, 0
2, 34560, Note_on_c, 0, 76, 75
2, 34560, Note_on_c, 0, 73, 75
2, 34605, Note_on_c, 0, 76, 0
2, 34605, Note_on_c, 0, 73, 0
2, 34608, Note_on_c, 0, 78, 77
2, 34608, Note_on_c, 0, 74, 77
2, 34653, Note_on_c, 0, 78, 0
2, 34653, Note_on_c, 0, 74, 0
2, 34656, Note_on_c, 0, 79, 80
2, 34656, Note_on_c, 0, 76, 80
2, 34701, Note_on_c, 0, 79, 0
2, 34701, Note_on_c, 0, 76, 0
2, 34704, Note_on_c, 0, 78, 77
2, 34704, Note_on_c, 0, 74, 77
2, 34749, Note_on_c, 0, 78, 0
2, 34749, Note_on_c, 0, 74, 0
2, 34752, Note_on_c, 0, 76, 75
2, 34752, Note_on_c, 0, 73, 75
2, 34797, Note_on_c, 0, 76, 0
2, 34797, Note_on_c, 0, 73, 0
2, 34800, Note_on_c, 0, 81, 75
2, 34823, Note_on_c, 0, 81, 0
2, 34824, Note_on_c, 0, 80, 75
2, 34847, Note_on_c, 0, 80, 0
2, 34848, Note_on_c, 0, 81, 75
2, 34871, Note_on_c, 0, 81, 0
2, 34872, Note_on_c, 0, 80, 75
2, 34895, Note_on_c, 0, 80, 0
2, 34896, Note_on_c, 0, 81, 75
2, 34919, Note_on_c, 0, 81, 0
2, 34920, Note_on_c, 0, 80, 75
2, 34943, Note_on_c, 0, 80, 0
2, 34944, Note_on_c, 0, 81, 75
2, 34967, Note_on_c, 0, 81, 0
2, 34968, Note_on_c, 0, 80, 75
2, 34991, Note_on_c, 0, 80, 0
2, 34992, Note_on_c, 0, 81, 75
2, 35015, Note_on_c, 0, 81, 0
2, 35016, Note_on_c, 0, 80, 75
2, 35039, Note_on_c, 0, 80, 0
2, 35040, Note_on_c, 0, 81, 75
2, 35063, Note_on_c, 0, 81, 0
2, 35064, Note_on_c, 0, 80, 75
2, 35087, Note_on_c, 0, 80, 0
2, 35088, Note_on_c, 0, 81, 75
2, 35111, Note_on_c, 0, 81, 0
2, 35112, Note_on_c, 0, 80, 75
2, 35135, Note_on_c, 0, 80, 0
2, 35136, Note_on_c, 0, 81, 75
2, 35280, Note_on_c, 0, 81, 0
2, 35280, Note_on_c, 0, 82, 75
2, 35328, Note_on_c, 0, 82, 0
2, 35328, Note_on_c, 0, 83, 75
2, 35348, Note_on_c, 0, 83, 0
2, 35376, Note_on_c, 0, 80, 75
2, 35424, Note_on_c, 0, 80, 0
2, 35424, Note_on_c, 0, 81, 75
2, 35444, Note_on_c, 0, 81, 0
2, 35472, Note_on_c, 0, 78, 75
2, 35520, Note_on_c, 0, 78, 0
2, 35520, Note_on_c, 0, 79, 75
2, 35540, Note_on_c, 0, 79, 0
2, 35568, Note_on_c, 0, 77, 75
2, 35616, Note_on_c, 0, 77, 0
2, 35616, Note_on_c, 0, 78, 75
2, 35636, Note_on_c, 0, 78, 0
2, 35664, Note_on_c, 0, 75, 75
2, 35664, Note_on_c, 0, 69, 75
2, 35712, Note_on_c, 0, 75, 0
2, 35712, Note_on_c, 0, 69, 0
2, 35712, Note_on_c, 0, 76, 75
2, 35712, Note_on_c, 0, 71, 75
2, 35757, Note_on_c, 0, 76, 0
2, 35757, Note_on_c, 0, 71, 0
2, 35760, Note_on_c, 0, 73, 75
2, 35760, Note_on_c, 0, 67, 75
2, 35808, Note_on_c, 0, 73, 0
2, 35808, Note_on_c, 0, 67, 0
2, 35808, Note_on_c, 0, 74, 75
2, 35808, Note_on_c, 0, 69, 75
2, 35853, Note_on_c, 0, 74, 0
2, 35853, Note_on_c, 0, 69, 0
2, 35856, Note_on_c, 0, 79, 75
2, 35856, Note_on_c, 0, 76, 75
2, 35856, Note_on_c, 0, 71, 75
2, 35904, Note_on_c, 0, 79, 0
2, 35904, Note_on_c, 0, 76, 0
2, 35904, Note_on_c, 0, 71, 0
2, 35904, Note_on_c, 0, 78, 75
2, 35949, Note_on_c, 0, 78, 0
2, 35952, Note_on_c, 0, 81, 75
2, 35997, Note_on_c, 0, 81, 0
2, 36000, Note_on_c, 0, 73, 75
2, 36045, Note_on_c, 0, 73, 0
2, 36048, Note_on_c, 0, 76, 75
2, 36093, Note_on_c, 0, 76, 0
2, 37056, Note_on_c, 0, 79, 75
2, 37056, Note_on_c, 0, 76, 75
2, 37056, Note_on_c, 0, 69, 75
2, 37145, Note_on_c, 0, 79, 0
2, 37145, Note_on_c, 0, 76, 0
2, 37145, Note_on_c, 0, 69, 0
2, 37248, Note_on_c, 0, 78, 75
2, 37248, Note_on_c, 0, 74, 75
2, 37248, Note_on_c, 0, 69, 75
2, 37337, Note_on_c, 0, 78, 0
2, 37337, Note_on_c, 0, 74, 0
2, 37337, Note_on_c, 0, 69, 0
2, 37440, Note_on_c, 0, 79, 75
2, 37440, Note_on_c, 0, 76, 75
2, 37440, Note_on_c, 0, 69, 75
2, 37529, Note_on_c, 0, 79, 0
2, 37529, Note_on_c, 0, 76, 0
2, 37529, Note_on_c, 0, 69, 0
2, 37632, Note_on_c, 0, 78, 80
2, 37632, Note_on_c, 0, 74, 80
2, 37632, Note_on_c, 0, 69, 80
2, 37677, Note_on_c, 0, 78, 0
2, 37677, Note_on_c, 0, 74, 0
2, 37677, Note_on_c, 0, 69, 0
2, 37728, Note_on_c, 0, 86, 80
2, 37728, Note_on_c, 0, 78, 80
2, 37728, Note_on_c, 0, 74, 80
2, 37773, Note_on_c, 0, 86, 0
2, 37773, Note_on_c, 0, 78, 0
2, 37773, Note_on_c, 0, 74, 0
2, 37824, Note_on_c, 0, 83, 80
2, 37824, Note_on_c, 0, 79, 80
2, 37824, Note_on_c, 0, 71, 80
2, 37869, Note_on_c, 0, 83, 0
2, 37869, Note_on_c, 0, 79, 0
2, 37869, Note_on_c, 0, 71, 0
2, 37920, Note_on_c, 0, 73, 80
2, 37920, Note_on_c, 0, 67, 80
2, 37920, Note_on_c, 0, 64, 80
2, 37965, Note_on_c, 0, 73, 0
2, 37965, Note_on_c, 0, 67, 0
2, 37965, Note_on_c, 0, 64, 0
2, 38016, Note_on_c, 0, 74, 80
2, 38016, Note_on_c, 0, 66, 80
2, 38016, Note_on_c, 0, 62, 80
2, 38105, Note_on_c, 0, 74, 0
2, 38105, Note_on_c, 0, 66, 0
2, 38105, Note_on_c, 0, 62, 0
2, 38160, Note_on_c, 0, 74, 75
2, 38180, Note_on_c, 0, 74, 0
2, 38208, Note_on_c, 0, 74, 91
2, 38232, Note_on_c, 0, 74, 0
2, 38232, Note_on_c, 0, 73, 75
2, 38255, Note_on_c, 0, 73, 0
2, 38256, Note_on_c, 0, 71, 75
2, 38279, Note_on_c, 0, 71, 0
2, 38280, Note_on_c, 0, 69, 75
2, 38303, Note_on_c, 0, 69, 0
2, 38304, Note_on_c, 0, 68, 75
2, 38327, Note_on_c, 0, 68, 0
2, 38328, Note_on_c, 0, 69, 75
2, 38351, Note_on_c, 0, 69, 0
2, 38352, Note_on_c, 0, 71, 75
2, 38375, Note_on_c, 0, 71, 0
2, 38376, Note_on_c, 0, 73, 75
2, 38399, Note_on_c, 0, 73, 0
2, 38400, Note_on_c, 0, 74, 75
2, 38489, Note_on_c, 0, 74, 0
2, 38544, Note_on_c, 0, 62, 64
2, 38564, Note_on_c, 0, 62, 0
2, 38592, Note_on_c, 0, 61, 64
2, 38615, Note_on_c, 0, 61, 0
2, 38616, Note_on_c, 0, 62, 64
2, 38639, Note_on_c, 0, 62, 0
2, 38640, Note_on_c, 0, 64, 64
2, 38663, Note_on_c, 0, 64, 0
2, 38664, Note_on_c, 0, 66, 64
2, 38687, Note_on_c, 0, 66, 0
2, 38688, Note_on_c, 0, 69, 64
2, 38711, Note_on_c, 0, 69, 0
2, 38712, Note_on_c, 0, 67, 64
2, 38735, Note_on_c, 0, 67, 0
2, 38736, Note_on_c, 0, 66, 64
2, 38759, Note_on_c, 0, 66, 0
2, 38760, Note_on_c, 0, 64, 64
2, 38783, Note_on_c, 0, 64, 0
2, 38784, Note_on_c, 0, 62, 64
2, 38873, Note_on_c, 0, 62, 0
2, 38976, End_track
3, 0, Start_track
3, 0, Program_c, 0, 0
3, 0, Control_c, 0, 7, 127
3, 0, Control_c, 0, 10, 64
3, 3696, Note_on_c, 0, 71, 64
3, 3785, Note_on_c, 0, 71, 0
3, 3792, Note_on_c, 0, 69, 64
3, 3885, Note_on_c, 0, 69, 0
3, 3888, Note_on_c, 0, 67, 64
3, 3977, Note_on_c, 0, 67, 0
3, 3984, Note_on_c, 0, 66, 64
3, 4029, Note_on_c, 0, 66, 0
3, 11088, Note_on_c, 0, 76, 64
3, 11108, Note_on_c, 0, 76, 0
3, 11136, Note_on_c, 0, 78, 64
3, 11225, Note_on_c, 0, 78, 0
3, 11232, Note_on_c, 0, 76, 64
3, 11321, Note_on_c, 0, 76, 0
3, 11328, Note_on_c, 0, 74, 64
3, 11417, Note_on_c, 0, 74, 0
3, 11424, Note_on_c, 0, 73, 64
3, 11469, Note_on_c, 0, 73, 0
3, 11472, Note_on_c, 0, 66, 64
3, 11517, Note_on_c, 0, 66, 0
3, 11520, Note_on_c, 0, 67, 64
3, 11565, Note_on_c, 0, 67, 0
3, 11568, Note_on_c, 0, 64, 64
3, 11613, Note_on_c, 0, 64, 0
3, 11616, Note_on_c, 0, 66, 64
3, 11661, Note_on_c, 0, 66, 0
3, 11664, Note_on_c, 0, 63, 64
3, 11709, Note_on_c, 0, 63, 0
3, 11712, Note_on_c, 0, 64, 64
3, 11757, Note_on_c, 0, 64, 0
3, 11760, Note_on_c, 0, 61, 64
3, 11805, Note_on_c, 0, 61, 0
3, 11808, Note_on_c, 0, 62, 64
3, 11853, Note_on_c, 0, 62, 0
3, 11856, Note_on_c, 0, 66, 64
3, 11901, Note_on_c, 0, 66, 0
3, 11904, Note_on_c, 0, 67, 64
3, 11949, Note_on_c, 0, 67, 0
3, 11952, Note_on_c, 0, 66, 64
3, 11997, Note_on_c, 0, 66, 0
3, 12000, Note_on_c, 0, 67, 64
3, 12045, Note_on_c, 0, 67, 0
3, 12048, Note_on_c, 0, 68, 64
3, 12093, Note_on_c, 0, 68, 0
3, 12096, Note_on_c, 0, 69, 64
3, 12185, Note_on_c, 0, 69, 0
3, 12960, Note_on_c, 0, 62, 64
3, 13049, Note_on_c, 0, 62, 0
3, 18048, Note_on_c, 0, 74, 64
3, 18048, Note_on_c, 0, 69, 64
3, 18137, Note_on_c, 0, 74, 0
3, 18137, Note_on_c, 0, 69, 0
3, 18144, Note_on_c, 0, 67, 64
3, 18233, Note_on_c, 0, 67, 0
3, 18240, Note_on_c, 0, 74, 64
3, 18240, Note_on_c, 0, 66, 64
3, 18329, Note_on_c, 0, 74, 0
3, 18329, Note_on_c, 0, 66, 0
3, 18384, Note_on_c, 0, 86, 64
3, 18404, Note_on_c, 0, 86, 0
3, 18432, Note_on_c, 0, 86, 80
3, 18456, Note_on_c, 0, 86, 0
3, 18456, Note_on_c, 0, 85, 64
3, 18479, Note_on_c, 0, 85, 0
3, 18480, Note_on_c, 0, 83, 64
3, 18503, Note_on_c, 0, 83, 0
3, 18504, Note_on_c, 0, 81, 64
3, 18527, Note_on_c, 0, 81, 0
3, 18528, Note_on_c, 0, 80, 64
3, 18551, Note_on_c, 0, 80, 0
3, 18552, Note_on_c, 0, 81, 64
3, 18575, Note_on_c, 0, 81, 0
3, 18576, Note_on_c, 0, 83, 64
3, 18599, Note_on_c, 0, 83, 0
3, 18600, Note_on_c, 0, 85, 64
3, 18623, Note_on_c, 0, 85, 0
3, 18624, Note_on_c, 0, 86, 64
3, 18647, Note_on_c, 0, 86, 0
3, 18648, Note_on_c, 0, 85, 64
3, 18671, Note_on_c, 0, 85, 0
3, 18672, Note_on_c, 0, 83, 64
3, 18695, Note_on_c, 0, 83, 0
3, 18696, Note_on_c, 0, 81, 64
3, 18719, Note_on_c, 0, 81, 0
3, 18720, Note_on_c, 0, 79, 64
3, 18743, Note_on_c, 0, 79, 0
3, 18744, Note_on_c, 0, 78, 64
3, 18767, Note_on_c, 0, 78, 0
3, 18768, Note_on_c, 0, 76, 64
3, 18791, Note_on_c, 0, 76, 0
3, 18792, Note_on_c, 0, 74, 64
3, 18815, Note_on_c, 0, 74, 0
3, 18816, Note_on_c, 0, 74, 64
3, 18839, Note_on_c, 0, 74, 0
3, 18840, Note_on_c, 0, 73, 64
3, 18863, Note_on_c, 0, 73, 0
3, 18864, Note_on_c, 0, 71, 64
3, 18887, Note_on_c, 0, 71, 0
3, 18888, Note_on_c, 0, 69, 64
3, 18911, Note_on_c, 0, 69, 0
3, 18912, Note_on_c, 0, 68, 64
3, 18935, Note_on_c, 0, 68, 0
3, 18936, Note_on_c, 0, 69, 64
3, 18959, Note_on_c, 0, 69, 0
3, 18960, Note_on_c, 0, 71, 64
3, 18983, Note_on_c, 0, 71, 0
3, 18984, Note_on_c, 0, 73, 64
3, 19007, Note_on_c, 0, 73, 0
3, 19008, Note_on_c, 0, 74, 64
3, 19028, Note_on_c, 0, 74, 0
3, 19056, Note_on_c, 0, 78, 64
3, 19056, Note_on_c, 0, 74, 64
3, 19076, Note_on_c, 0, 78, 0
3, 19076, Note_on_c, 0, 74, 0
3, 19104, Note_on_c, 0, 81, 64
3, 19104, Note_on_c, 0, 78, 64
3, 19124, Note_on_c, 0, 81, 0
3, 19124, Note_on_c, 0, 78, 0
3, 21552, Note_on_c, 0, 71, 64
3, 21641, Note_on_c, 0, 71, 0
3, 21648, Note_on_c, 0, 69, 64
3, 21741, Note_on_c, 0, 69, 0
3, 21744, Note_on_c, 0, 67, 64
3, 21833, Note_on_c, 0, 67, 0
3, 21840, Note_on_c, 0, 66, 64
3, 21885, Note_on_c, 0, 66, 0
3, 28944, Note_on_c, 0, 76, 64
3, 28964, Note_on_c, 0, 76, 0
3, 28992, Note_on_c, 0, 78, 64
3, 29081, Note_on_c, 0, 78, 0
3, 29088, Note_on_c, 0, 76, 64
3, 29177, Note_on_c, 0, 76, 0
3, 29184, Note_on_c, 0, 74, 64
3, 29273, Note_on_c, 0, 74, 0
3, 29280, Note_on_c, 0, 73, 64
3, 29325, Note_on_c, 0, 73, 0
3, 29328, Note_on_c, 0, 66, 64
3, 29373, Note_on_c, 0, 66, 0
3, 29376, Note_on_c, 0, 67, 64
3, 29421, Note_on_c, 0, 67, 0
3, 29424, Note_on_c, 0, 64, 64
3, 29469, Note_on_c, 0, 64, 0
3, 29472, Note_on_c, 0, 66, 64
3, 29517, Note_on_c, 0, 66, 0
3, 29520, Note_on_c, 0, 63, 64
3, 29565, Note_on_c, 0, 63, 0
3, 29568, Note_on_c, 0, 64, 64
3, 29613, Note_on_c, 0, 64, 0
3, 29616, Note_on_c, 0, 61, 64
3, 29661, Note_on_c, 0, 61, 0
3, 29664, Note_on_c, 0, 62, 64
3, 29709, Note_on_c, 0, 62, 0
3, 29712, Note_on_c, 0, 66, 64
3, 29757, Note_on_c, 0, 66, 0
3, 29760, Note_on_c, 0, 67, 64
3, 29805, Note_on_c, 0, 67, 0
3, 29808, Note_on_c, 0, 66, 64
3, 29853, Note_on_c, 0, 66, 0
3, 29856, Note_on_c, 0, 67, 64
3, 29901, Note_on_c, 0, 67, 0
3, 29904, Note_on_c, 0, 68, 64
3, 29949, Note_on_c, 0, 68, 0
3, 29952, Note_on_c, 0, 69, 64
3, 30041, Note_on_c, 0, 69, 0
3, 30816, Note_on_c, 0, 62, 64
3, 30905, Note_on_c, 0, 62, 0
3, 35904, Note_on_c, 0, 74, 64
3, 35904, Note_on_c, 0, 69, 64
3, 35993, Note_on_c, 0, 74, 0
3, 35993, Note_on_c, 0, 69, 0
3, 36000, Note_on_c, 0, 67, 64
3, 36089, Note_on_c, 0, 67, 0
3, 36096, Note_on_c, 0, 74, 64
3, 36096, Note_on_c, 0, 66, 64
3, 36185, Note_on_c, 0, 74, 0
3, 36185, Note_on_c, 0, 66, 0
3, 36240, Note_on_c, 0, 86, 64
3, 36260, Note_on_c, 0, 86, 0
3, 36288, Note_on_c, 0, 86, 80
3, 36312, Note_on_c, 0, 86, 0
3, 36312, Note_on_c, 0, 85, 64
3, 36335, Note_on_c, 0, 85, 0
3, 36336, Note_on_c, 0, 83, 64
3, 36359, Note_on_c, 0, 83, 0
3, 36360, Note_on_c, 0, 81, 64
3, 36383, Note_on_c, 0, 81, 0
3, 36384, Note_on_c, 0, 80, 64
3, 36407, Note_on_c, 0, 80, 0
3, 36408, Note_on_c, 0, 81, 64
3, 36431, Note_on_c, 0, 81, 0
3, 36432, Note_on_c, 0, 83, 64
3, 36455, Note_on_c, 0, 83, 0
3, 36456, Note_on_c, 0, 85, 64
3, 36479, Note_on_c, 0, 85, 0
3, 36480, Note_on_c, 0, 86, 64
3, 36503, Note_on_c, 0, 86, 0
3, 36504, Note_on_c, 0, 85, 64
3, 36527, Note_on_c, 0, 85, 0
3, 36528, Note_on_c, 0, 83, 64
3, 36551, Note_on_c, 0, 83, 0
3, 36552, Note_on_c, 0, 81, 64
3, 36575, Note_on_c, 0, 81, 0
3, 36576, Note_on_c, 0, 79, 64
3, 36599, Note_on_c, 0, 79, 0
3, 36600, Note_on_c, 0, 78, 64
3, 36623, Note_on_c, 0, 78, 0
3, 36624, Note_on_c, 0, 76, 64
3, 36647, Note_on_c, 0, 76, 0
3, 36648, Note_on_c, 0, 74, 64
3, 36671, Note_on_c, 0, 74, 0
3, 36672, Note_on_c, 0, 74, 64
3, 36695, Note_on_c, 0, 74, 0
3, 36696, Note_on_c, 0, 73, 64
3, 36719, Note_on_c, 0, 73, 0
3, 36720, Note_on_c, 0, 71, 64
3, 36743, Note_on_c, 0, 71, 0
3, 36744, Note_on_c, 0, 69, 64
3, 36767, Note_on_c, 0, 69, 0
3, 36768, Note_on_c, 0, 68, 64
3, 36791, Note_on_c, 0, 68, 0
3, 36792, Note_on_c, 0, 69, 64
3, 36815, Note_on_c, 0, 69, 0
3, 36816, Note_on_c, 0, 71, 64
3, 36839, Note_on_c, 0, 71, 0
3, 36840, Note_on_c, 0, 73, 64
3, 36863, Note_on_c, 0, 73, 0
3, 36864, Note_on_c, 0, 74, 64
3, 36884, Note_on_c, 0, 74, 0
3, 36912, Note_on_c, 0, 78, 64
3, 36912, Note_on_c, 0, 74, 64
3, 36932, Note_on_c, 0, 78, 0
3, 36932, Note_on_c, 0, 74, 0
3, 36960, Note_on_c, 0, 81, 64
3, 36960, Note_on_c, 0, 78, 64
3, 36980, Note_on_c, 0, 81, 0
3, 36980, Note_on_c, 0, 78, 0
3, 38976, End_track
4, 0, Start_track
4, 0, Program_c, 1, 0
4, 0, Control_c, 1, 7, 127
4, 0, Control_c, 1, 10, 64
4, 576, Note_on_c, 1, 62, 70
4, 621, Note_on_c, 1, 62, 0
4, 624, Note_on_c, 1, 62, 70
4, 669, Note_on_c, 1, 62, 0
4, 672, Note_on_c, 1, 62, 70
4, 717, Note_on_c, 1, 62, 0
4, 720, Note_on_c, 1, 62, 70
4, 765, Note_on_c, 1, 62, 0
4, 768, Note_on_c, 1, 61, 70
4, 813, Note_on_c, 1, 61, 0
4, 816, Note_on_c, 1, 61, 70
4, 861, Note_on_c, 1, 61, 0
4, 864, Note_on_c, 1, 61, 70
4, 909, Note_on_c, 1, 61, 0
4, 912, Note_on_c, 1, 61, 70
4, 957, Note_on_c, 1, 61, 0
4, 960, Note_on_c, 1, 62, 70
4, 1005, Note_on_c, 1, 62, 0
4, 1008, Note_on_c, 1, 62, 70
4, 1053, Note_on_c, 1, 62, 0
4, 1056, Note_on_c, 1, 62, 70
4, 1101, Note_on_c, 1, 62, 0
4, 1104, Note_on_c, 1, 62, 70
4, 1149, Note_on_c, 1, 62, 0
4, 1152, Note_on_c, 1, 61, 70
4, 1197, Note_on_c, 1, 61, 0
4, 1200, Note_on_c, 1, 61, 70
4, 1245, Note_on_c, 1, 61, 0
4, 1248, Note_on_c, 1, 61, 70
4, 1293, Note_on_c, 1, 61, 0
4, 1296, Note_on_c, 1, 61, 70
4, 1341, Note_on_c, 1, 61, 0
4, 1344, Note_on_c, 1, 62, 70
4, 1433, Note_on_c, 1, 62, 0
4, 1440, Note_on_c, 1, 64, 70
4, 1529, Note_on_c, 1, 64, 0
4, 1536, Note_on_c, 1, 57, 70
4, 1603, Note_on_c, 1, 57, 0
4, 2112, Note_on_c, 1, 62, 70
4, 2157, Note_on_c, 1, 62, 0
4, 2160, Note_on_c, 1, 62, 70
4, 2205, Note_on_c, 1, 62, 0
4, 2208, Note_on_c, 1, 62, 70
4, 2253, Note_on_c, 1, 62, 0
4, 2256, Note_on_c, 1, 62, 70
4, 2301, Note_on_c, 1, 62, 0
4, 2304, Note_on_c, 1, 61, 70
4, 2349, Note_on_c, 1, 61, 0
4, 2352, Note_on_c, 1, 61, 70
4, 2397, Note_on_c, 1, 61, 0
4, 2400, Note_on_c, 1, 61, 70
4, 2445, Note_on_c, 1, 61, 0
4, 2448, Note_on_c, 1, 61, 70
4, 2493, Note_on_c, 1, 61, 0
4, 2496, Note_on_c, 1, 62, 70
4, 2541, Note_on_c, 1, 62, 0
4, 2544, Note_on_c, 1, 62, 70
4, 2589, Note_on_c, 1, 62, 0
4, 2592, Note_on_c, 1, 62, 70
4, 2637, Note_on_c, 1, 62, 0
4, 2640, Note_on_c, 1, 62, 70
4, 2685, Note_on_c, 1, 62, 0
4, 2688, Note_on_c, 1, 61, 70
4, 2733, Note_on_c, 1, 61, 0
4, 2736, Note_on_c, 1, 61, 70
4, 2781, Note_on_c, 1, 61, 0
4, 2784, Note_on_c, 1, 61, 70
4, 2829, Note_on_c, 1, 61, 0
4, 2832, Note_on_c, 1, 61, 70
4, 2877, Note_on_c, 1, 61, 0
4, 2880, Note_on_c, 1, 62, 70
4, 2969, Note_on_c, 1, 62, 0
4, 2976, Note_on_c, 1, 64, 70
4, 3065, Note_on_c, 1, 64, 0
4, 3072, Note_on_c, 1, 57, 70
4, 3139, Note_on_c, 1, 57, 0
4, 3600, Note_on_c, 1, 66, 75
4, 3648, Note_on_c, 1, 66, 0
4, 3648, Note_on_c, 1, 67, 75
4, 3668, Note_on_c, 1, 67, 0
4, 3696, Note_on_c, 1, 64, 75
4, 3744, Note_on_c, 1, 64, 0
4, 3744, Note_on_c, 1, 66, 75
4, 3764, Note_on_c, 1, 66, 0
4, 3792, Note_on_c, 1, 63, 75
4, 3840, Note_on_c, 1, 63, 0
4, 3840, Note_on_c, 1, 64, 75
4, 3860, Note_on_c, 1, 64, 0
4, 3888, Note_on_c, 1, 61, 75
4, 3936, Note_on_c, 1, 61, 0
4, 3936, Note_on_c, 1, 62, 75
4, 3956, Note_on_c, 1, 62, 0
4, 3984, Note_on_c, 1, 59, 75
4, 4032, Note_on_c, 1, 59, 0
4, 4032, Note_on_c, 1, 57, 75
4, 4055, Note_on_c, 1, 57, 0
4, 4056, Note_on_c, 1, 56, 75
4, 4079, Note_on_c, 1, 56, 0
4, 4080, Note_on_c, 1, 54, 75
4, 4103, Note_on_c, 1, 54, 0
4, 4104, Note_on_c, 1, 52, 75
4, 4127, Note_on_c, 1, 52, 0
4, 4128, Note_on_c, 1, 51, 75
4, 4151, Note_on_c, 1, 51, 0
4, 4152, Note_on_c, 1, 52, 75
4, 4175, Note_on_c, 1, 52, 0
4, 4176, Note_on_c, 1, 54, 75
4, 4199, Note_on_c, 1, 54, 0
4, 4200, Note_on_c, 1, 56, 75
4, 4223, Note_on_c, 1, 56, 0
4, 4224, Note_on_c, 1, 57, 75
4, 4313, Note_on_c, 1, 57, 0
4, 4368, Note_on_c, 1, 57, 75
4, 4388, Note_on_c, 1, 57, 0
4, 4416, Note_on_c, 1, 57, 91
4, 4440, Note_on_c, 1, 57, 0
4, 4440, Note_on_c, 1, 56, 75
4, 4463, Note_on_c, 1, 56, 0
4, 4464, Note_on_c, 1, 54, 75
4, 4487, Note_on_c, 1, 54, 0
4, 4488, Note_on_c, 1, 52, 75
4, 4511, Note_on_c, 1, 52, 0
4, 4512, Note_on_c, 1, 51, 75
4, 4535, Note_on_c, 1, 51, 0
4, 4536, Note_on_c, 1, 52, 75
4, 4559, Note_on_c, 1, 52, 0
4, 4560, Note_on_c, 1, 54, 75
4, 4583, Note_on_c, 1, 54, 0
4, 4584, Note_on_c, 1, 56, 75
4, 4607, Note_on_c, 1, 56, 0
4, 4608, Note_on_c, 1, 57, 75
4, 4697, Note_on_c, 1, 57, 0
4, 4752, Note_on_c, 1, 67, 75
4, 4772, Note_on_c, 1, 67, 0
4, 4800, Note_on_c, 1, 67, 91
4, 4824, Note_on_c, 1, 67, 0
4, 4824, Note_on_c, 1, 66, 75
4, 4847, Note_on_c, 1, 66, 0
4, 4848, Note_on_c, 1, 64, 75
4, 4871, Note_on_c, 1, 64, 0
4, 4872, Note_on_c, 1, 62, 75
4, 4895, Note_on_c, 1, 62, 0
4, 4896, Note_on_c, 1, 61, 75
4, 4919, Note_on_c, 1, 61, 0
4, 4920, Note_on_c, 1, 62, 75
4, 4943, Note_on_c, 1, 62, 0
4, 4944, Note_on_c, 1, 64, 75
4, 4967, Note_on_c, 1, 64, 0
4, 4968, Note_on_c, 1, 66, 75
4, 4991, Note_on_c, 1, 66, 0
4, 4992, Note_on_c, 1, 67, 75
4, 5081, Note_on_c, 1, 67, 0
4, 5088, Note_on_c, 1, 64, 75
4, 5177, Note_on_c, 1, 64, 0
4, 5184, Note_on_c, 1, 69, 75
4, 5207, Note_on_c, 1, 69, 0
4, 5208, Note_on_c, 1, 67, 75
4, 5231, Note_on_c, 1, 67, 0
4, 5232, Note_on_c, 1, 66, 75
4, 5255, Note_on_c, 1, 66, 0
4, 5256, Note_on_c, 1, 64, 75
4, 5279, Note_on_c, 1, 64, 0
4, 5280, Note_on_c, 1, 62, 75
4, 5369, Note_on_c, 1, 62, 0
4, 5376, Note_on_c, 1, 71, 75
4, 5399, Note_on_c, 1, 71, 0
4, 5400, Note_on_c, 1, 69, 75
4, 5423, Note_on_c, 1, 69, 0
4, 5424, Note_on_c, 1, 67, 75
4, 5447, Note_on_c, 1, 67, 0
4, 5448, Note_on_c, 1, 66, 75
4, 5471, Note_on_c, 1, 66, 0
4, 5472, Note_on_c, 1, 64, 75
4, 5561, Note_on_c, 1, 64, 0
4, 5568, Note_on_c, 1, 69, 75
4, 5613, Note_on_c, 1, 69, 0
4, 5616, Note_on_c, 1, 69, 75
4, 5661, Note_on_c, 1, 69, 0
4, 5664, Note_on_c, 1, 69, 75
4, 5709, Note_on_c, 1, 69, 0
4, 5712, Note_on_c, 1, 69, 75
4, 5757, Note_on_c, 1, 69, 0
4, 5760, Note_on_c, 1, 69, 75
4, 5805, Note_on_c, 1, 69, 0
4, 5808, Note_on_c, 1, 73, 75
4, 5853, Note_on_c, 1, 73, 0
4, 5856, Note_on_c, 1, 74, 75
4, 5901, Note_on_c, 1, 74, 0
4, 5904, Note_on_c, 1, 71, 75
4, 5949, Note_on_c, 1, 71, 0
4, 5952, Note_on_c, 1, 73, 75
4, 5997, Note_on_c, 1, 73, 0
4, 6000, Note_on_c, 1, 76, 75
4, 6045, Note_on_c, 1, 76, 0
4, 6048, Note_on_c, 1, 78, 75
4, 6093, Note_on_c, 1, 78, 0
4, 6096, Note_on_c, 1, 74, 75
4, 6141, Note_on_c, 1, 74, 0
4, 6144, Note_on_c, 1, 73, 75
4, 6189, Note_on_c, 1, 73, 0
4, 6240, Note_on_c, 1, 73, 73
4, 6240, Note_on_c, 1, 69, 73
4, 6285, Note_on_c, 1, 73, 0
4, 6285, Note_on_c, 1, 69, 0
4, 6336, Note_on_c, 1, 73, 71
4, 6336, Note_on_c, 1, 69, 71
4, 6425, Note_on_c, 1, 73, 0
4, 6425, Note_on_c, 1, 69, 0
4, 6480, Note_on_c, 1, 57, 70
4, 6480, Note_on_c, 1, 54, 70
4, 6528, Note_on_c, 1, 57, 0
4, 6528, Note_on_c, 1, 54, 0
4, 6528, Note_on_c, 1, 59, 70
4, 6528, Note_on_c, 1, 55, 70
4, 6573, Note_on_c, 1, 59, 0
4, 6573, Note_on_c, 1, 55, 0
4, 6576, Note_on_c, 1, 55, 70
4, 6576, Note_on_c, 1, 52, 70
4, 6624, Note_on_c, 1, 55, 0
4, 6624, Note_on_c, 1, 52, 0
4, 6624, Note_on_c, 1, 57, 70
4, 6624, Note_on_c, 1, 54, 70
4, 6669, Note_on_c, 1, 57, 0
4, 6669, Note_on_c, 1, 54, 0
4, 6672, Note_on_c, 1, 54, 70
4, 6672, Note_on_c, 1, 51, 70
4, 6720, Note_on_c, 1, 54, 0
4, 6720, Note_on_c, 1, 51, 0
4, 6720, Note_on_c, 1, 55, 70
4, 6720, Note_on_c, 1, 52, 70
4, 6765, Note_on_c, 1, 55, 0
4, 6765, Note_on_c, 1, 52, 0
4, 6768, Note_on_c, 1, 52, 70
4, 6768, Note_on_c, 1, 49, 70
4, 6816, Note_on_c, 1, 52, 0
4, 6816, Note_on_c, 1, 49, 0
4, 6816, Note_on_c, 1, 54, 70
4, 6816, Note_on_c, 1, 51, 70
4, 6864, Note_on_c, 1, 54, 0
4, 6864, Note_on_c, 1, 59, 70
4, 6909, Note_on_c, 1, 59, 0
4, 6909, Note_on_c, 1, 51, 0
4, 6912, Note_on_c, 1, 59, 70
4, 6912, Note_on_c, 1, 52, 70
4, 7001, Note_on_c, 1, 59, 0
4, 7001, Note_on_c, 1, 52, 0
4, 7056, Note_on_c, 1, 50, 70
4, 7076, Note_on_c, 1, 50, 0
4, 7104, Note_on_c, 1, 50, 86
4, 7128, Note_on_c, 1, 50, 0
4, 7128, Note_on_c, 1, 49, 70
4, 7151, Note_on_c, 1, 49, 0
4, 7152, Note_on_c, 1, 47, 70
4, 7175, Note_on_c, 1, 47, 0
4, 7176, Note_on_c, 1, 45, 70
4, 7199, Note_on_c, 1, 45, 0
4, 7200, Note_on_c, 1, 44, 70
4, 7223, Note_on_c, 1, 44, 0
4, 7224, Note_on_c, 1, 45, 70
4, 7247, Note_on_c, 1, 45, 0
4, 7248, Note_on_c, 1, 47, 70
4, 7271, Note_on_c, 1, 47, 0
4, 7272, Note_on_c, 1, 49, 70
4, 7295, Note_on_c, 1, 49, 0
4, 7296, Note_on_c, 1, 50, 70
4, 7385, Note_on_c, 1, 50, 0
4, 7440, Note_on_c, 1, 60, 70
4, 7460, Note_on_c, 1, 60, 0
4, 7488, Note_on_c, 1, 60, 86
4, 7512, Note_on_c, 1, 60, 0
4, 7512, Note_on_c, 1, 59, 70
4, 7535, Note_on_c, 1, 59, 0
4, 7536, Note_on_c, 1, 57, 70
4, 7559, Note_on_c, 1, 57, 0
4, 7560, Note_on_c, 1, 55, 70
4, 7583, Note_on_c, 1, 55, 0
4, 7584, Note_on_c, 1, 54, 70
4, 7607, Note_on_c, 1, 54, 0
4, 7608, Note_on_c, 1, 55, 70
4, 7631, Note_on_c, 1, 55, 0
4, 7632, Note_on_c, 1, 57, 70
4, 7655, Note_on_c, 1, 57, 0
4, 7656, Note_on_c, 1, 59, 70
4, 7679, Note_on_c, 1, 59, 0
4, 7680, Note_on_c, 1, 60, 70
4, 7769, Note_on_c, 1, 60, 0
4, 7824, Note_on_c, 1, 72, 70
4, 7844, Note_on_c, 1, 72, 0
4, 7872, Note_on_c, 1, 71, 70
4, 7917, Note_on_c, 1, 71, 0
4, 7920, Note_on_c, 1, 69, 70
4, 7965, Note_on_c, 1, 69, 0
4, 7968, Note_on_c, 1, 67, 70
4, 8013, Note_on_c, 1, 67, 0
4, 8016, Note_on_c, 1, 66, 70
4, 8061, Note_on_c, 1, 66, 0
4, 8064, Note_on_c, 1, 64, 70
4, 8153, Note_on_c, 1, 64, 0
4, 8208, Note_on_c, 1, 74, 70
4, 8228, Note_on_c, 1, 74, 0
4, 8256, Note_on_c, 1, 72, 70
4, 8301, Note_on_c, 1, 72, 0
4, 8304, Note_on_c, 1, 71, 70
4, 8349, Note_on_c, 1, 71, 0
4, 8352, Note_on_c, 1, 69, 70
4, 8397, Note_on_c, 1, 69, 0
4, 8400, Note_on_c, 1, 67, 70
4, 8445, Note_on_c, 1, 67, 0
4, 8448, Note_on_c, 1, 66, 70
4, 8537, Note_on_c, 1, 66, 0
4, 8592, Note_on_c, 1, 64, 70
4, 8612, Note_on_c, 1, 64, 0
4, 8640, Note_on_c, 1, 64, 86
4, 8664, Note_on_c, 1, 64, 0
4, 8664, Note_on_c, 1, 63, 70
4, 8687, Note_on_c, 1, 63, 0
4, 8688, Note_on_c, 1, 61, 70
4, 8711, Note_on_c, 1, 61, 0
4, 8712, Note_on_c, 1, 59, 70
4, 8735, Note_on_c, 1, 59, 0
4, 8736, Note_on_c, 1, 58, 70
4, 8759, Note_on_c, 1, 58, 0
4, 8760, Note_on_c, 1, 59, 70
4, 8783, Note_on_c, 1, 59, 0
4, 8784, Note_on_c, 1, 61, 70
4, 8807, Note_on_c, 1, 61, 0
4, 8808, Note_on_c, 1, 63, 70
4, 8831, Note_on_c, 1, 63, 0
4, 8832, Note_on_c, 1, 64, 70
4, 8921, Note_on_c, 1, 64, 0
4, 8976, Note_on_c, 1, 62, 70
4, 8996, Note_on_c, 1, 62, 0
4, 9024, Note_on_c, 1, 62, 86
4, 9048, Note_on_c, 1, 62, 0
4, 9048, Note_on_c, 1, 61, 70
4, 9071, Note_on_c, 1, 61, 0
4, 9072, Note_on_c, 1, 59, 70
4, 9095, Note_on_c, 1, 59, 0
4, 9096, Note_on_c, 1, 57, 70
4, 9119, Note_on_c, 1, 57, 0
4, 9120, Note_on_c, 1, 56, 70
4, 9143, Note_on_c, 1, 56, 0
4, 9144, Note_on_c, 1, 57, 70
4, 9167, Note_on_c, 1, 57, 0
4, 9168, Note_on_c, 1, 59, 70
4, 9191, Note_on_c, 1, 59, 0
4, 9192, Note_on_c, 1, 61, 70
4, 9215, Note_on_c, 1, 61, 0
4, 9216, Note_on_c, 1, 62, 70
4, 9261, Note_on_c, 1, 62, 0
4, 9264, Note_on_c, 1, 71, 70
4, 9309, Note_on_c, 1, 71, 0
4, 9312, Note_on_c, 1, 61, 70
4, 9357, Note_on_c, 1, 61, 0
4, 9360, Note_on_c, 1, 69, 70
4, 9405, Note_on_c, 1, 69, 0
4, 9408, Note_on_c, 1, 59, 70
4, 9453, Note_on_c, 1, 59, 0
4, 9456, Note_on_c, 1, 68, 70
4, 9501, Note_on_c, 1, 68, 0
4, 9504, Note_on_c, 1, 57, 70
4, 9549, Note_on_c, 1, 57, 0
4, 9552, Note_on_c, 1, 66, 70
4, 9597, Note_on_c, 1, 66, 0
4, 9600, Note_on_c, 1, 69, 70
4, 9623, Note_on_c, 1, 69, 0
4, 9624, Note_on_c, 1, 67, 70
4, 9647, Note_on_c, 1, 67, 0
4, 9648, Note_on_c, 1, 66, 70
4, 9671, Note_on_c, 1, 66, 0
4, 9672, Note_on_c, 1, 64, 70
4, 9695, Note_on_c, 1, 64, 0
4, 9696, Note_on_c, 1, 67, 70
4, 9719, Note_on_c, 1, 67, 0
4, 9720, Note_on_c, 1, 66, 70
4, 9743, Note_on_c, 1, 66, 0
4, 9744, Note_on_c, 1, 64, 70
4, 9767, Note_on_c, 1, 64, 0
4, 9768, Note_on_c, 1, 62, 70
4, 9791, Note_on_c, 1, 62, 0
4, 9792, Note_on_c, 1, 64, 70
4, 9837, Note_on_c, 1, 64, 0
4, 9840, Note_on_c, 1, 61, 70
4, 9885, Note_on_c, 1, 61, 0
4, 9888, Note_on_c, 1, 62, 70
4, 9933, Note_on_c, 1, 62, 0
4, 9936, Note_on_c, 1, 54, 70
4, 9981, Note_on_c, 1, 54, 0
4, 9984, Note_on_c, 1, 55, 70
4, 10073, Note_on_c, 1, 55, 0
4, 10128, Note_on_c, 1, 45, 65
4, 10128, Note_on_c, 1, 33, 65
4, 10173, Note_on_c, 1, 45, 0
4, 10173, Note_on_c, 1, 33, 0
4, 10176, Note_on_c, 1, 47, 64
4, 10176, Note_on_c, 1, 35, 64
4, 10265, Note_on_c, 1, 47, 0
4, 10265, Note_on_c, 1, 35, 0
4, 10320, Note_on_c, 1, 62, 75
4, 10368, Note_on_c, 1, 62, 0
4, 10368, Note_on_c, 1, 61, 75
4, 10388, Note_on_c, 1, 61, 0
4, 10416, Note_on_c, 1, 64, 75
4, 10464, Note_on_c, 1, 64, 0
4, 10464, Note_on_c, 1, 63, 75
4, 10484, Note_on_c, 1, 63, 0
4, 10512, Note_on_c, 1, 66, 75
4, 10560, Note_on_c, 1, 66, 0
4, 10560, Note_on_c, 1, 64, 75
4, 10580, Note_on_c, 1, 64, 0
4, 10608, Note_on_c, 1, 67, 75
4, 10656, Note_on_c, 1, 67, 0
4, 10656, Note_on_c, 1, 66, 75
4, 10676, Note_on_c, 1, 66, 0
4, 10704, Note_on_c, 1, 76, 75
4, 10704, Note_on_c, 1, 73, 75
4, 10752, Note_on_c, 1, 76, 0
4, 10752, Note_on_c, 1, 73, 0
4, 10752, Note_on_c, 1, 77, 75
4, 10752, Note_on_c, 1, 74, 75
4, 10797, Note_on_c, 1, 77, 0
4, 10797, Note_on_c, 1, 74, 0
4, 10800, Note_on_c, 1, 74, 75
4, 10800, Note_on_c, 1, 71, 75
4, 10848, Note_on_c, 1, 74, 0
4, 10848, Note_on_c, 1, 71, 0
4, 10848, Note_on_c, 1, 76, 75
4, 10848, Note_on_c, 1, 73, 75
4, 10893, Note_on_c, 1, 76, 0
4, 10893, Note_on_c, 1, 73, 0
4, 10896, Note_on_c, 1, 73, 75
4, 10896, Note_on_c, 1, 69, 75
4, 10944, Note_on_c, 1, 73, 0
4, 10944, Note_on_c, 1, 69, 0
4, 10944, Note_on_c, 1, 74, 75
4, 10944, Note_on_c, 1, 71, 75
4, 10989, Note_on_c, 1, 74, 0
4, 10989, Note_on_c, 1, 71, 0
4, 10992, Note_on_c, 1, 71, 75
4, 10992, Note_on_c, 1, 68, 75
4, 11040, Note_on_c, 1, 71, 0
4, 11040, Note_on_c, 1, 68, 0
4, 11040, Note_on_c, 1, 69, 75
4, 11085, Note_on_c, 1, 69, 0
4, 11088, Note_on_c, 1, 61, 75
4, 11136, Note_on_c, 1, 61, 0
4, 11136, Note_on_c, 1, 62, 75
4, 11156, Note_on_c, 1, 62, 0
4, 11184, Note_on_c, 1, 59, 75
4, 11232, Note_on_c, 1, 59, 0
4, 11232, Note_on_c, 1, 61, 75
4, 11252, Note_on_c, 1, 61, 0
4, 11280, Note_on_c, 1, 58, 75
4, 11328, Note_on_c, 1, 58, 0
4, 11328, Note_on_c, 1, 59, 75
4, 11348, Note_on_c, 1, 59, 0
4, 11376, Note_on_c, 1, 56, 75
4, 11424, Note_on_c, 1, 56, 0
4, 11424, Note_on_c, 1, 57, 75
4, 12185, Note_on_c, 1, 57, 0
4, 12240, Note_on_c, 1, 57, 75
4, 12288, Note_on_c, 1, 57, 0
4, 12288, Note_on_c, 1, 59, 75
4, 12308, Note_on_c, 1, 59, 0
4, 12336, Note_on_c, 1, 56, 75
4, 12384, Note_on_c, 1, 56, 0
4, 12384, Note_on_c, 1, 57, 75
4, 12404, Note_on_c, 1, 57, 0
4, 12432, Note_on_c, 1, 54, 75
4, 12480, Note_on_c, 1, 54, 0
4, 12480, Note_on_c, 1, 55, 75
4, 12500, Note_on_c, 1, 55, 0
4, 12528, Note_on_c, 1, 52, 75
4, 12576, Note_on_c, 1, 52, 0
4, 12576, Note_on_c, 1, 54, 75
4, 12596, Note_on_c, 1, 54, 0
4, 12624, Note_on_c, 1, 51, 75
4, 12672, Note_on_c, 1, 51, 0
4, 12672, Note_on_c, 1, 52, 75
4, 12692, Note_on_c, 1, 52, 0
4, 12720, Note_on_c, 1, 49, 75
4, 12768, Note_on_c, 1, 49, 0
4, 12768, Note_on_c, 1, 50, 75
4, 12788, Note_on_c, 1, 50, 0
4, 12816, Note_on_c, 1, 47, 75
4, 12864, Note_on_c, 1, 47, 0
4, 12864, Note_on_c, 1, 48, 75
4, 12884, Note_on_c, 1, 48, 0
4, 12912, Note_on_c, 1, 45, 75
4, 12960, Note_on_c, 1, 45, 0
4, 12960, Note_on_c, 1, 47, 75
4, 12980, Note_on_c, 1, 47, 0
4, 13008, Note_on_c, 1, 43, 75
4, 13056, Note_on_c, 1, 43, 0
4, 13056, Note_on_c, 1, 55, 75
4, 13056, Note_on_c, 1, 52, 75
4, 13056, Note_on_c, 1, 45, 75
4, 13197, Note_on_c, 1, 55, 0
4, 13197, Note_on_c, 1, 52, 0
4, 13197, Note_on_c, 1, 45, 0
4, 13392, Note_on_c, 1, 67, 75
4, 13412, Note_on_c, 1, 67, 0
4, 13440, Note_on_c, 1, 67, 91
4, 13464, Note_on_c, 1, 67, 0
4, 13464, Note_on_c, 1, 66, 75
4, 13487, Note_on_c, 1, 66, 0
4, 13488, Note_on_c, 1, 64, 75
4, 13511, Note_on_c, 1, 64, 0
4, 13512, Note_on_c, 1, 62, 75
4, 13535, Note_on_c, 1, 62, 0
4, 13536, Note_on_c, 1, 61, 75
4, 13559, Note_on_c, 1, 61, 0
4, 13560, Note_on_c, 1, 62, 75
4, 13583, Note_on_c, 1, 62, 0
4, 13584, Note_on_c, 1, 64, 75
4, 13607, Note_on_c, 1, 64, 0
4, 13608, Note_on_c, 1, 66, 75
4, 13631, Note_on_c, 1, 66, 0
4, 13632, Note_on_c, 1, 67, 75
4, 13721, Note_on_c, 1, 67, 0
4, 13776, Note_on_c, 1, 67, 75
4, 13796, Note_on_c, 1, 67, 0
4, 13824, Note_on_c, 1, 67, 91
4, 13848, Note_on_c, 1, 67, 0
4, 13848, Note_on_c, 1, 66, 75
4, 13871, Note_on_c, 1, 66, 0
4, 13872, Note_on_c, 1, 64, 75
4, 13895, Note_on_c, 1, 64, 0
4, 13896, Note_on_c, 1, 62, 75
4, 13919, Note_on_c, 1, 62, 0
4, 13920, Note_on_c, 1, 61, 75
4, 13943, Note_on_c, 1, 61, 0
4, 13944, Note_on_c, 1, 62, 75
4, 13967, Note_on_c, 1, 62, 0
4, 13968, Note_on_c, 1, 64, 75
4, 13991, Note_on_c, 1, 64, 0
4, 13992, Note_on_c, 1, 66, 75
4, 14015, Note_on_c, 1, 66, 0
4, 14016, Note_on_c, 1, 67, 75
4, 14105, Note_on_c, 1, 67, 0
4, 14160, Note_on_c, 1, 79, 75
4, 14180, Note_on_c, 1, 79, 0
4, 14208, Note_on_c, 1, 78, 75
4, 14253, Note_on_c, 1, 78, 0
4, 14256, Note_on_c, 1, 76, 75
4, 14301, Note_on_c, 1, 76, 0
4, 14304, Note_on_c, 1, 74, 75
4, 14349, Note_on_c, 1, 74, 0
4, 14352, Note_on_c, 1, 73, 75
4, 14397, Note_on_c, 1, 73, 0
4, 14400, Note_on_c, 1, 71, 75
4, 14445, Note_on_c, 1, 71, 0
4, 14448, Note_on_c, 1, 69, 75
4, 14493, Note_on_c, 1, 69, 0
4, 14496, Note_on_c, 1, 67, 75
4, 14541, Note_on_c, 1, 67, 0
4, 14544, Note_on_c, 1, 66, 75
4, 14589, Note_on_c, 1, 66, 0
4, 14592, Note_on_c, 1, 67, 75
4, 14637, Note_on_c, 1, 67, 0
4, 14640, Note_on_c, 1, 66, 75
4, 14685, Note_on_c, 1, 66, 0
4, 14688, Note_on_c, 1, 67, 75
4, 14733, Note_on_c, 1, 67, 0
4, 14736, Note_on_c, 1, 63, 75
4, 14781, Note_on_c, 1, 63, 0
4, 14784, Note_on_c, 1, 64, 75
4, 14829, Note_on_c, 1, 64, 0
4, 14832, Note_on_c, 1, 63, 75
4, 14877, Note_on_c, 1, 63, 0
4, 14880, Note_on_c, 1, 64, 75
4, 14925, Note_on_c, 1, 64, 0
4, 14928, Note_on_c, 1, 67, 75
4, 14973, Note_on_c, 1, 67, 0
4, 14976, Note_on_c, 1, 66, 75
4, 15021, Note_on_c, 1, 66, 0
4, 15024, Note_on_c, 1, 67, 75
4, 15069, Note_on_c, 1, 67, 0
4, 15072, Note_on_c, 1, 66, 75
4, 15117, Note_on_c, 1, 66, 0
4, 15120, Note_on_c, 1, 61, 75
4, 15165, Note_on_c, 1, 61, 0
4, 15168, Note_on_c, 1, 62, 75
4, 15213, Note_on_c, 1, 62, 0
4, 15216, Note_on_c, 1, 61, 75
4, 15261, Note_on_c, 1, 61, 0
4, 15264, Note_on_c, 1, 62, 75
4, 15309, Note_on_c, 1, 62, 0
4, 15312, Note_on_c, 1, 60, 75
4, 15357, Note_on_c, 1, 60, 0
4, 15360, Note_on_c, 1, 59, 75
4, 15449, Note_on_c, 1, 59, 0
4, 15504, Note_on_c, 1, 57, 75
4, 15524, Note_on_c, 1, 57, 0
4, 15552, Note_on_c, 1, 57, 91
4, 15576, Note_on_c, 1, 57, 0
4, 15576, Note_on_c, 1, 56, 75
4, 15599, Note_on_c, 1, 56, 0
4, 15600, Note_on_c, 1, 54, 75
4, 15623, Note_on_c, 1, 54, 0
4, 15624, Note_on_c, 1, 52, 75
4, 15647, Note_on_c, 1, 52, 0
4, 15648, Note_on_c, 1, 51, 75
4, 15671, Note_on_c, 1, 51, 0
4, 15672, Note_on_c, 1, 52, 75
4, 15695, Note_on_c, 1, 52, 0
4, 15696, Note_on_c, 1, 54, 75
4, 15719, Note_on_c, 1, 54, 0
4, 15720, Note_on_c, 1, 56, 75
4, 15743, Note_on_c, 1, 56, 0
4, 15744, Note_on_c, 1, 57, 75
4, 15833, Note_on_c, 1, 57, 0
4, 15888, Note_on_c, 1, 67, 75
4, 15908, Note_on_c, 1, 67, 0
4, 15936, Note_on_c, 1, 67, 91
4, 15960, Note_on_c, 1, 67, 0
4, 15960, Note_on_c, 1, 66, 75
4, 15983, Note_on_c, 1, 66, 0
4, 15984, Note_on_c, 1, 64, 75
4, 16007, Note_on_c, 1, 64, 0
4, 16008, Note_on_c, 1, 62, 75
4, 16031, Note_on_c, 1, 62, 0
4, 16032, Note_on_c, 1, 61, 75
4, 16055, Note_on_c, 1, 61, 0
4, 16056, Note_on_c, 1, 62, 75
4, 16079, Note_on_c, 1, 62, 0
4, 16080, Note_on_c, 1, 64, 75
4, 16103, Note_on_c, 1, 64, 0
4, 16104, Note_on_c, 1, 66, 75
4, 16127, Note_on_c, 1, 66, 0
4, 16128, Note_on_c, 1, 67, 75
4, 16217, Note_on_c, 1, 67, 0
4, 16224, Note_on_c, 1, 64, 75
4, 16313, Note_on_c, 1, 64, 0
4, 16320, Note_on_c, 1, 69, 75
4, 16343, Note_on_c, 1, 69, 0
4, 16344, Note_on_c, 1, 67, 75
4, 16367, Note_on_c, 1, 67, 0
4, 16368, Note_on_c, 1, 66, 75
4, 16391, Note_on_c, 1, 66, 0
4, 16392, Note_on_c, 1, 64, 75
4, 16415, Note_on_c, 1, 64, 0
4, 16416, Note_on_c, 1, 62, 75
4, 16505, Note_on_c, 1, 62, 0
4, 16512, Note_on_c, 1, 71, 75
4, 16535, Note_on_c, 1, 71, 0
4, 16536, Note_on_c, 1, 69, 75
4, 16559, Note_on_c, 1, 69, 0
4, 16560, Note_on_c, 1, 67, 75
4, 16583, Note_on_c, 1, 67, 0
4, 16584, Note_on_c, 1, 66, 75
4, 16607, Note_on_c, 1, 66, 0
4, 16608, Note_on_c, 1, 64, 75
4, 16697, Note_on_c, 1, 64, 0
4, 16704, Note_on_c, 1, 69, 75
4, 16727, Note_on_c, 1, 69, 0
4, 16728, Note_on_c, 1, 68, 75
4, 16751, Note_on_c, 1, 68, 0
4, 16752, Note_on_c, 1, 69, 75
4, 16775, Note_on_c, 1, 69, 0
4, 16776, Note_on_c, 1, 68, 75
4, 16799, Note_on_c, 1, 68, 0
4, 16800, Note_on_c, 1, 69, 75
4, 16823, Note_on_c, 1, 69, 0
4, 16824, Note_on_c, 1, 68, 75
4, 16847, Note_on_c, 1, 68, 0
4, 16848, Note_on_c, 1, 69, 75
4, 16871, Note_on_c, 1, 69, 0
4, 16872, Note_on_c, 1, 68, 75
4, 16895, Note_on_c, 1, 68, 0
4, 16896, Note_on_c, 1, 69, 75
4, 16985, Note_on_c, 1, 69, 0
4, 17040, Note_on_c, 1, 66, 75
4, 17040, Note_on_c, 1, 62, 75
4, 17085, Note_on_c, 1, 66, 0
4, 17085, Note_on_c, 1, 62, 0
4, 17088, Note_on_c, 1, 64, 75
4, 17088, Note_on_c, 1, 61, 75
4, 17133, Note_on_c, 1, 64, 0
4, 17133, Note_on_c, 1, 61, 0
4, 17136, Note_on_c, 1, 66, 77
4, 17136, Note_on_c, 1, 62, 77
4, 17181, Note_on_c, 1, 66, 0
4, 17181, Note_on_c, 1, 62, 0
4, 17184, Note_on_c, 1, 67, 80
4, 17184, Note_on_c, 1, 64, 80
4, 17229, Note_on_c, 1, 67, 0
4, 17229, Note_on_c, 1, 64, 0
4, 17232, Note_on_c, 1, 66, 77
4, 17232, Note_on_c, 1, 62, 77
4, 17277, Note_on_c, 1, 66, 0
4, 17277, Note_on_c, 1, 62, 0
4, 17280, Note_on_c, 1, 64, 75
4, 17280, Note_on_c, 1, 61, 75
4, 17369, Note_on_c, 1, 64, 0
4, 17369, Note_on_c, 1, 61, 0
4, 17616, Note_on_c, 1, 70, 75
4, 17664, Note_on_c, 1, 70, 0
4, 17664, Note_on_c, 1, 71, 75
4, 17684, Note_on_c, 1, 71, 0
4, 17712, Note_on_c, 1, 68, 75
4, 17760, Note_on_c, 1, 68, 0
4, 17760, Note_on_c, 1, 69, 75
4, 17780, Note_on_c, 1, 69, 0
4, 17808, Note_on_c, 1, 66, 75
4, 17856, Note_on_c, 1, 66, 0
4, 17856, Note_on_c, 1, 67, 75
4, 17876, Note_on_c, 1, 67, 0
4, 17904, Note_on_c, 1, 64, 75
4, 17952, Note_on_c, 1, 64, 0
4, 17952, Note_on_c, 1, 66, 75
4, 17972, Note_on_c, 1, 66, 0
4, 18000, Note_on_c, 1, 55, 75
4, 18045, Note_on_c, 1, 55, 0
4, 18048, Note_on_c, 1, 57, 75
4, 18137, Note_on_c, 1, 57, 0
4, 18144, Note_on_c, 1, 64, 75
4, 18189, Note_on_c, 1, 64, 0
4, 18192, Note_on_c, 1, 61, 75
4, 18237, Note_on_c, 1, 61, 0
4, 18240, Note_on_c, 1, 62, 75
4, 18240, Note_on_c, 1, 50, 75
4, 18329, Note_on_c, 1, 62, 0
4, 18329, Note_on_c, 1, 50, 0
4, 18432, Note_on_c, 1, 67, 75
4, 18432, Note_on_c, 1, 64, 75
4, 18432, Note_on_c, 1, 57, 75
4, 18521, Note_on_c, 1, 67, 0
4, 18521, Note_on_c, 1, 64, 0
4, 18521, Note_on_c, 1, 57, 0
4, 18624, Note_on_c, 1, 66, 75
4, 18624, Note_on_c, 1, 62, 75
4, 18713, Note_on_c, 1, 66, 0
4, 18713, Note_on_c, 1, 62, 0
4, 18816, Note_on_c, 1, 67, 75
4, 18816, Note_on_c, 1, 64, 75
4, 18816, Note_on_c, 1, 57, 75
4, 18905, Note_on_c, 1, 67, 0
4, 18905, Note_on_c, 1, 64, 0
4, 18905, Note_on_c, 1, 57, 0
4, 19008, Note_on_c, 1, 66, 75
4, 19008, Note_on_c, 1, 62, 75
4, 19097, Note_on_c, 1, 66, 0
4, 19097, Note_on_c, 1, 62, 0
4, 19152, Note_on_c, 1, 62, 75
4, 19172, Note_on_c, 1, 62, 0
4, 19200, Note_on_c, 1, 62, 91
4, 19224, Note_on_c, 1, 62, 0
4, 19224, Note_on_c, 1, 61, 75
4, 19247, Note_on_c, 1, 61, 0
4, 19248, Note_on_c, 1, 59, 75
4, 19271, Note_on_c, 1, 59, 0
4, 19272, Note_on_c, 1, 57, 75
4, 19295, Note_on_c, 1, 57, 0
4, 19296, Note_on_c, 1, 56, 75
4, 19319, Note_on_c, 1, 56, 0
4, 19320, Note_on_c, 1, 57, 75
4, 19343, Note_on_c, 1, 57, 0
4, 19344, Note_on_c, 1, 59, 75
4, 19367, Note_on_c, 1, 59, 0
4, 19368, Note_on_c, 1, 61, 75
4, 19391, Note_on_c, 1, 61, 0
4, 19392, Note_on_c, 1, 62, 75
4, 19415, Note_on_c, 1, 62, 0
4, 19416, Note_on_c, 1, 61, 75
4, 19439, Note_on_c, 1, 61, 0
4, 19440, Note_on_c, 1, 59, 75
4, 19463, Note_on_c, 1, 59, 0
4, 19464, Note_on_c, 1, 57, 75
4, 19487, Note_on_c, 1, 57, 0
4, 19488, Note_on_c, 1, 55, 75
4, 19511, Note_on_c, 1, 55, 0
4, 19512, Note_on_c, 1, 54, 75
4, 19535, Note_on_c, 1, 54, 0
4, 19536, Note_on_c, 1, 52, 75
4, 19559, Note_on_c, 1, 52, 0
4, 19560, Note_on_c, 1, 50, 75
4, 19583, Note_on_c, 1, 50, 0
4, 19584, Note_on_c, 1, 50, 75
4, 19607, Note_on_c, 1, 50, 0
4, 19608, Note_on_c, 1, 49, 75
4, 19631, Note_on_c, 1, 49, 0
4, 19632, Note_on_c, 1, 47, 75
4, 19655, Note_on_c, 1, 47, 0
4, 19656, Note_on_c, 1, 45, 75
4, 19679, Note_on_c, 1, 45, 0
4, 19680, Note_on_c, 1, 44, 75
4, 19703, Note_on_c, 1, 44, 0
4, 19704, Note_on_c, 1, 45, 75
4, 19727, Note_on_c, 1, 45, 0
4, 19728, Note_on_c, 1, 47, 75
4, 19751, Note_on_c, 1, 47, 0
4, 19752, Note_on_c, 1, 49, 75
4, 19775, Note_on_c, 1, 49, 0
4, 19776, Note_on_c, 1, 50, 80
4, 19821, Note_on_c, 1, 50, 0
4, 19872, Note_on_c, 1, 47, 80
4, 19872, Note_on_c, 1, 35, 80
4, 19917, Note_on_c, 1, 47, 0
4, 19917, Note_on_c, 1, 35, 0
4, 19968, Note_on_c, 1, 43, 80
4, 19968, Note_on_c, 1, 31, 80
4, 20013, Note_on_c, 1, 43, 0
4, 20013, Note_on_c, 1, 31, 0
4, 20064, Note_on_c, 1, 45, 80
4, 20064, Note_on_c, 1, 33, 80
4, 20109, Note_on_c, 1, 45, 0
4, 20109, Note_on_c, 1, 33, 0
4, 20160, Note_on_c, 1, 50, 80
4, 20160, Note_on_c, 1, 38, 80
4, 20249, Note_on_c, 1, 50, 0
4, 20249, Note_on_c, 1, 38, 0
4, 20352, Note_on_c, 1, 67, 75
4, 20352, Note_on_c, 1, 64, 75
4, 20352, Note_on_c, 1, 57, 75
4, 20441, Note_on_c, 1, 67, 0
4, 20441, Note_on_c, 1, 64, 0
4, 20441, Note_on_c, 1, 57, 0
4, 20544, Note_on_c, 1, 66, 75
4, 20544, Note_on_c, 1, 62, 75
4, 20633, Note_on_c, 1, 66, 0
4, 20633, Note_on_c, 1, 62, 0
4, 20736, Note_on_c, 1, 55, 64
4, 20736, Note_on_c, 1, 45, 64
4, 20825, Note_on_c, 1, 55, 0
4, 20825, Note_on_c, 1, 45, 0
4, 20928, Note_on_c, 1, 54, 64
4, 20928, Note_on_c, 1, 50, 64
4, 21017, Note_on_c, 1, 54, 0
4, 21017, Note_on_c, 1, 50, 0
4, 21456, Note_on_c, 1, 66, 75
4, 21504, Note_on_c, 1, 66, 0
4, 21504, Note_on_c, 1, 67, 75
4, 21524, Note_on_c, 1, 67, 0
4, 21552, Note_on_c, 1, 64, 75
4, 21600, Note_on_c, 1, 64, 0
4, 21600, Note_on_c, 1, 66, 75
4, 21620, Note_on_c, 1, 66, 0
4, 21648, Note_on_c, 1, 63, 75
4, 21696, Note_on_c, 1, 63, 0
4, 21696, Note_on_c, 1, 64, 75
4, 21716, Note_on_c, 1, 64, 0
4, 21744, Note_on_c, 1, 61, 75
4, 21792, Note_on_c, 1, 61, 0
4, 21792, Note_on_c, 1, 62, 75
4, 21812, Note_on_c, 1, 62, 0
4, 21840, Note_on_c, 1, 59, 75
4, 21888, Note_on_c, 1, 59, 0
4, 21888, Note_on_c, 1, 57, 75
4, 21911, Note_on_c, 1, 57, 0
4, 21912, Note_on_c, 1, 56, 75
4, 21935, Note_on_c, 1, 56, 0
4, 21936, Note_on_c, 1, 54, 75
4, 21959, Note_on_c, 1, 54, 0
4, 21960, Note_on_c, 1, 52, 75
4, 21983, Note_on_c, 1, 52, 0
4, 21984, Note_on_c, 1, 51, 75
4, 22007, Note_on_c, 1, 51, 0
4, 22008, Note_on_c, 1, 52, 75
4, 22031, Note_on_c, 1, 52, 0
4, 22032, Note_on_c, 1, 54, 75
4, 22055, Note_on_c, 1, 54, 0
4, 22056, Note_on_c, 1, 56, 75
4, 22079, Note_on_c, 1, 56, 0
4, 22080, Note_on_c, 1, 57, 75
4, 22169, Note_on_c, 1, 57, 0
4, 22224, Note_on_c, 1, 57, 75
4, 22244, Note_on_c, 1, 57, 0
4, 22272, Note_on_c, 1, 57, 91
4, 22296, Note_on_c, 1, 57, 0
4, 22296, Note_on_c, 1, 56, 75
4, 22319, Note_on_c, 1, 56, 0
4, 22320, Note_on_c, 1, 54, 75
4, 22343, Note_on_c, 1, 54, 0
4, 22344, Note_on_c, 1, 52, 75
4, 22367, Note_on_c, 1, 52, 0
4, 22368, Note_on_c, 1, 51, 75
4, 22391, Note_on_c, 1, 51, 0
4, 22392, Note_on_c, 1, 52, 75
4, 22415, Note_on_c, 1, 52, 0
4, 22416, Note_on_c, 1, 54, 75
4, 22439, Note_on_c, 1, 54, 0
4, 22440, Note_on_c, 1, 56, 75
4, 22463, Note_on_c, 1, 56, 0
4, 22464, Note_on_c, 1, 57, 75
4, 22553, Note_on_c, 1, 57, 0
4, 22608, Note_on_c, 1, 67, 75
4, 22628, Note_on_c, 1, 67, 0
4, 22656, Note_on_c, 1, 67, 91
4, 22680, Note_on_c, 1, 67, 0
4, 22680, Note_on_c, 1, 66, 75
4, 22703, Note_on_c, 1, 66, 0
4, 22704, Note_on_c, 1, 64, 75
4, 22727, Note_on_c, 1, 64, 0
4, 22728, Note_on_c, 1, 62, 75
4, 22751, Note_on_c, 1, 62, 0
4, 22752, Note_on_c, 1, 61, 75
4, 22775, Note_on_c, 1, 61, 0
4, 22776, Note_on_c, 1, 62, 75
4, 22799, Note_on_c, 1, 62, 0
4, 22800, Note_on_c, 1, 64, 75
4, 22823, Note_on_c, 1, 64, 0
4, 22824, Note_on_c, 1, 66, 75
4, 22847, Note_on_c, 1, 66, 0
4, 22848, Note_on_c, 1, 67, 75
4, 22937, Note_on_c, 1, 67, 0
4, 22944, Note_on_c, 1, 64, 75
4, 23033, Note_on_c, 1, 64, 0
4, 23040, Note_on_c, 1, 69, 75
4, 23063, Note_on_c, 1, 69, 0
4, 23064, Note_on_c, 1, 67, 75
4, 23087, Note_on_c, 1, 67, 0
4, 23088, Note_on_c, 1, 66, 75
4, 23111, Note_on_c, 1, 66, 0
4, 23112, Note_on_c, 1, 64, 75
4, 23135, Note_on_c, 1, 64, 0
4, 23136, Note_on_c, 1, 62, 75
4, 23225, Note_on_c, 1, 62, 0
4, 23232, Note_on_c, 1, 71, 75
4, 23255, Note_on_c, 1, 71, 0
4, 23256, Note_on_c, 1, 69, 75
4, 23279, Note_on_c, 1, 69, 0
4, 23280, Note_on_c, 1, 67, 75
4, 23303, Note_on_c, 1, 67, 0
4, 23304, Note_on_c, 1, 66, 75
4, 23327, Note_on_c, 1, 66, 0
4, 23328, Note_on_c, 1, 64, 75
4, 23417, Note_on_c, 1, 64, 0
4, 23424, Note_on_c, 1, 69, 75
4, 23469, Note_on_c, 1, 69, 0
4, 23472, Note_on_c, 1, 69, 75
4, 23517, Note_on_c, 1, 69, 0
4, 23520, Note_on_c, 1, 69, 75
4, 23565, Note_on_c, 1, 69, 0
4, 23568, Note_on_c, 1, 69, 75
4, 23613, Note_on_c, 1, 69, 0
4, 23616, Note_on_c, 1, 69, 75
4, 23661, Note_on_c, 1, 69, 0
4, 23664, Note_on_c, 1, 73, 75
4, 23709, Note_on_c, 1, 73, 0
4, 23712, Note_on_c, 1, 74, 75
4, 23757, Note_on_c, 1, 74, 0
4, 23760, Note_on_c, 1, 71, 75
4, 23805, Note_on_c, 1, 71, 0
4, 23808, Note_on_c, 1, 73, 75
4, 23853, Note_on_c, 1, 73, 0
4, 23856, Note_on_c, 1, 76, 75
4, 23901, Note_on_c, 1, 76, 0
4, 23904, Note_on_c, 1, 78, 75
4, 23949, Note_on_c, 1, 78, 0
4, 23952, Note_on_c, 1, 74, 75
4, 23997, Note_on_c, 1, 74, 0
4, 24000, Note_on_c, 1, 73, 75
4, 24045, Note_on_c, 1, 73, 0
4, 24096, Note_on_c, 1, 73, 73
4, 24096, Note_on_c, 1, 69, 73
4, 24141, Note_on_c, 1, 73, 0
4, 24141, Note_on_c, 1, 69, 0
4, 24192, Note_on_c, 1, 73, 71
4, 24192, Note_on_c, 1, 69, 71
4, 24281, Note_on_c, 1, 73, 0
4, 24281, Note_on_c, 1, 69, 0
4, 24336, Note_on_c, 1, 57, 70
4, 24336, Note_on_c, 1, 54, 70
4, 24384, Note_on_c, 1, 57, 0
4, 24384, Note_on_c, 1, 54, 0
4, 24384, Note_on_c, 1, 59, 70
4, 24384, Note_on_c, 1, 55, 70
4, 24429, Note_on_c, 1, 59, 0
4, 24429, Note_on_c, 1, 55, 0
4, 24432, Note_on_c, 1, 55, 70
4, 24432, Note_on_c, 1, 52, 70
4, 24480, Note_on_c, 1, 55, 0
4, 24480, Note_on_c, 1, 52, 0
4, 24480, Note_on_c, 1, 57, 70
4, 24480, Note_on_c, 1, 54, 70
4, 24525, Note_on_c, 1, 57, 0
4, 24525, Note_on_c, 1, 54, 0
4, 24528, Note_on_c, 1, 54, 70
4, 24528, Note_on_c, 1, 51, 70
4, 24576, Note_on_c, 1, 54, 0
4, 24576, Note_on_c, 1, 51, 0
4, 24576, Note_on_c, 1, 55, 70
4, 24576, Note_on_c, 1, 52, 70
4, 24621, Note_on_c, 1, 55, 0
4, 24621, Note_on_c, 1, 52, 0
4, 24624, Note_on_c, 1, 52, 70
4, 24624, Note_on_c, 1, 49, 70
4, 24672, Note_on_c, 1, 52, 0
4, 24672, Note_on_c, 1, 49, 0
4, 24672, Note_on_c, 1, 54, 70
4, 24672, Note_on_c, 1, 51, 70
4, 24720, Note_on_c, 1, 54, 0
4, 24720, Note_on_c, 1, 59, 70
4, 24765, Note_on_c, 1, 59, 0
4, 24765, Note_on_c, 1, 51, 0
4, 24768, Note_on_c, 1, 59, 70
4, 24768, Note_on_c, 1, 52, 70
4, 24857, Note_on_c, 1, 59, 0
4, 24857, Note_on_c, 1, 52, 0
4, 24912, Note_on_c, 1, 50, 70
4, 24932, Note_on_c, 1, 50, 0
4, 24960, Note_on_c, 1, 50, 86
4, 24984, Note_on_c, 1, 50, 0
4, 24984, Note_on_c, 1, 49, 70
4, 25007, Note_on_c, 1, 49, 0
4, 25008, Note_on_c, 1, 47, 70
4, 25031, Note_on_c, 1, 47, 0
4, 25032, Note_on_c, 1, 45, 70
4, 25055, Note_on_c, 1, 45, 0
4, 25056, Note_on_c, 1, 44, 70
4, 25079, Note_on_c, 1, 44, 0
4, 25080, Note_on_c, 1, 45, 70
4, 25103, Note_on_c, 1, 45, 0
4, 25104, Note_on_c, 1, 47, 70
4, 25127, Note_on_c, 1, 47, 0
4, 25128, Note_on_c, 1, 49, 70
4, 25151, Note_on_c, 1, 49, 0
4, 25152, Note_on_c, 1, 50, 70
4, 25241, Note_on_c, 1, 50, 0
4, 25296, Note_on_c, 1, 60, 70
4, 25316, Note_on_c, 1, 60, 0
4, 25344, Note_on_c, 1, 60, 86
4, 25368, Note_on_c, 1, 60, 0
4, 25368, Note_on_c, 1, 59, 70
4, 25391, Note_on_c, 1, 59, 0
4, 25392, Note_on_c, 1, 57, 70
4, 25415, Note_on_c, 1, 57, 0
4, 25416, Note_on_c, 1, 55, 70
4, 25439, Note_on_c, 1, 55, 0
4, 25440, Note_on_c, 1, 54, 70
4, 25463, Note_on_c, 1, 54, 0
4, 25464, Note_on_c, 1, 55, 70
4, 25487, Note_on_c, 1, 55, 0
4, 25488, Note_on_c, 1, 57, 70
4, 25511, Note_on_c, 1, 57, 0
4, 25512, Note_on_c, 1, 59, 70
4, 25535, Note_on_c, 1, 59, 0
4, 25536, Note_on_c, 1, 60, 70
4, 25625, Note_on_c, 1, 60, 0
4, 25680, Note_on_c, 1, 72, 70
4, 25700, Note_on_c, 1, 72, 0
4, 25728, Note_on_c, 1, 71, 70
4, 25773, Note_on_c, 1, 71, 0
4, 25776, Note_on_c, 1, 69, 70
4, 25821, Note_on_c, 1, 69, 0
4, 25824, Note_on_c, 1, 67, 70
4, 25869, Note_on_c, 1, 67, 0
4, 25872, Note_on_c, 1, 66, 70
4, 25917, Note_on_c, 1, 66, 0
4, 25920, Note_on_c, 1, 64, 70
4, 26009, Note_on_c, 1, 64, 0
4, 26064, Note_on_c, 1, 74, 70
4, 26084, Note_on_c, 1, 74, 0
4, 26112, Note_on_c, 1, 72, 70
4, 26157, Note_on_c, 1, 72, 0
4, 26160, Note_on_c, 1, 71, 70
4, 26205, Note_on_c, 1, 71, 0
4, 26208, Note_on_c, 1, 69, 70
4, 26253, Note_on_c, 1, 69, 0
4, 26256, Note_on_c, 1, 67, 70
4, 26301, Note_on_c, 1, 67, 0
4, 26304, Note_on_c, 1, 66, 70
4, 26393, Note_on_c, 1, 66, 0
4, 26448, Note_on_c, 1, 64, 70
4, 26468, Note_on_c, 1, 64, 0
4, 26496, Note_on_c, 1, 64, 86
4, 26520, Note_on_c, 1, 64, 0
4, 26520, Note_on_c, 1, 63, 70
4, 26543, Note_on_c, 1, 63, 0
4, 26544, Note_on_c, 1, 61, 70
4, 26567, Note_on_c, 1, 61, 0
4, 26568, Note_on_c, 1, 59, 70
4, 26591, Note_on_c, 1, 59, 0
4, 26592, Note_on_c, 1, 58, 70
4, 26615, Note_on_c, 1, 58, 0
4, 26616, Note_on_c, 1, 59, 70
4, 26639, Note_on_c, 1, 59, 0
4, 26640, Note_on_c, 1, 61, 70
4, 26663, Note_on_c, 1, 61, 0
4, 26664, Note_on_c, 1, 63, 70
4, 26687, Note_on_c, 1, 63, 0
4, 26688, Note_on_c, 1, 64, 70
4, 26777, Note_on_c, 1, 64, 0
4, 26832, Note_on_c, 1, 62, 70
4, 26852, Note_on_c, 1, 62, 0
4, 26880, Note_on_c, 1, 62, 86
4, 26904, Note_on_c, 1, 62, 0
4, 26904, Note_on_c, 1, 61, 70
4, 26927, Note_on_c, 1, 61, 0
4, 26928, Note_on_c, 1, 59, 70
4, 26951, Note_on_c, 1, 59, 0
4, 26952, Note_on_c, 1, 57, 70
4, 26975, Note_on_c, 1, 57, 0
4, 26976, Note_on_c, 1, 56, 70
4, 26999, Note_on_c, 1, 56, 0
4, 27000, Note_on_c, 1, 57, 70
4, 27023, Note_on_c, 1, 57, 0
4, 27024, Note_on_c, 1, 59, 70
4, 27047, Note_on_c, 1, 59, 0
4, 27048, Note_on_c, 1, 61, 70
4, 27071, Note_on_c, 1, 61, 0
4, 27072, Note_on_c, 1, 62, 70
4, 27117, Note_on_c, 1, 62, 0
4, 27120, Note_on_c, 1, 71, 70
4, 27165, Note_on_c, 1, 71, 0
4, 27168, Note_on_c, 1, 61, 70
4, 27213, Note_on_c, 1, 61, 0
4, 27216, Note_on_c, 1, 69, 70
4, 27261, Note_on_c, 1, 69, 0
4, 27264, Note_on_c, 1, 59, 70
4, 27309, Note_on_c, 1, 59, 0
4, 27312, Note_on_c, 1, 68, 70
4, 27357, Note_on_c, 1, 68, 0
4, 27360, Note_on_c, 1, 57, 70
4, 27405, Note_on_c, 1, 57, 0
4, 27408, Note_on_c, 1, 66, 70
4, 27453, Note_on_c, 1, 66, 0
4, 27456, Note_on_c, 1, 69, 70
4, 27479, Note_on_c, 1, 69, 0
4, 27480, Note_on_c, 1, 67, 70
4, 27503, Note_on_c, 1, 67, 0
4, 27504, Note_on_c, 1, 66, 70
4, 27527, Note_on_c, 1, 66, 0
4, 27528, Note_on_c, 1, 64, 70
4, 27551, Note_on_c, 1, 64, 0
4, 27552, Note_on_c, 1, 67, 70
4, 27575, Note_on_c, 1, 67, 0
4, 27576, Note_on_c, 1, 66, 70
4, 27599, Note_on_c, 1, 66, 0
4, 27600, Note_on_c, 1, 64, 70
4, 27623, Note_on_c, 1, 64, 0
4, 27624, Note_on_c, 1, 62, 70
4, 27647, Note_on_c, 1, 62, 0
4, 27648, Note_on_c, 1, 64, 70
4, 27693, Note_on_c, 1, 64, 0
4, 27696, Note_on_c, 1, 61, 70
4, 27741, Note_on_c, 1, 61, 0
4, 27744, Note_on_c, 1, 62, 70
4, 27789, Note_on_c, 1, 62, 0
4, 27792, Note_on_c, 1, 54, 70
4, 27837, Note_on_c, 1, 54, 0
4, 27840, Note_on_c, 1, 55, 70
4, 27929, Note_on_c, 1, 55, 0
4, 27984, Note_on_c, 1, 45, 65
4, 27984, Note_on_c, 1, 33, 65
4, 28029, Note_on_c, 1, 45, 0
4, 28029, Note_on_c, 1, 33, 0
4, 28032, Note_on_c, 1, 47, 64
4, 28032, Note_on_c, 1, 35, 64
4, 28121, Note_on_c, 1, 47, 0
4, 28121, Note_on_c, 1, 35, 0
4, 28176, Note_on_c, 1, 62, 75
4, 28224, Note_on_c, 1, 62, 0
4, 28224, Note_on_c, 1, 61, 75
4, 28244, Note_on_c, 1, 61, 0
4, 28272, Note_on_c, 1, 64, 75
4, 28320, Note_on_c, 1, 64, 0
4, 28320, Note_on_c, 1, 63, 75
4, 28340, Note_on_c, 1, 63, 0
4, 28368, Note_on_c, 1, 66, 75
4, 28416, Note_on_c, 1, 66, 0
4, 28416, Note_on_c, 1, 64, 75
4, 28436, Note_on_c, 1, 64, 0
4, 28464, Note_on_c, 1, 67, 75
4, 28512, Note_on_c, 1, 67, 0
4, 28512, Note_on_c, 1, 66, 75
4, 28532, Note_on_c, 1, 66, 0
4, 28560, Note_on_c, 1, 76, 75
4, 28560, Note_on_c, 1, 73, 75
4, 28608, Note_on_c, 1, 76, 0
4, 28608, Note_on_c, 1, 73, 0
4, 28608, Note_on_c, 1, 77, 75
4, 28608, Note_on_c, 1, 74, 75
4, 28653, Note_on_c, 1, 77, 0
4, 28653, Note_on_c, 1, 74, 0
4, 28656, Note_on_c, 1, 74, 75
4, 28656, Note_on_c, 1, 71, 75
4, 28704, Note_on_c, 1, 74, 0
4, 28704, Note_on_c, 1, 71, 0
4, 28704, Note_on_c, 1, 76, 75
4, 28704, Note_on_c, 1, 73, 75
4, 28749, Note_on_c, 1, 76, 0
4, 28749, Note_on_c, 1, 73, 0
4, 28752, Note_on_c, 1, 73, 75
4, 28752, Note_on_c, 1, 69, 75
4, 28800, Note_on_c, 1, 73, 0
4, 28800, Note_on_c, 1, 69, 0
4, 28800, Note_on_c, 1, 74, 75
4, 28800, Note_on_c, 1, 71, 75
4, 28845, Note_on_c, 1, 74, 0
4, 28845, Note_on_c, 1, 71, 0
4, 28848, Note_on_c, 1, 71, 75
4, 28848, Note_on_c, 1, 68, 75
4, 28896, Note_on_c, 1, 71, 0
4, 28896, Note_on_c, 1, 68, 0
4, 28896, Note_on_c, 1, 69, 75
4, 28941, Note_on_c, 1, 69, 0
4, 28944, Note_on_c, 1, 61, 75
4, 28992, Note_on_c, 1, 61, 0
4, 28992, Note_on_c, 1, 62, 75
4, 29012, Note_on_c, 1, 62, 0
4, 29040, Note_on_c, 1, 59, 75
4, 29088, Note_on_c, 1, 59, 0
4, 29088, Note_on_c, 1, 61, 75
4, 29108, Note_on_c, 1, 61, 0
4, 29136, Note_on_c, 1, 58, 75
4, 29184, Note_on_c, 1, 58, 0
4, 29184, Note_on_c, 1, 59, 75
4, 29204, Note_on_c, 1, 59, 0
4, 29232, Note_on_c, 1, 56, 75
4, 29280, Note_on_c, 1, 56, 0
4, 29280, Note_on_c, 1, 57, 75
4, 30041, Note_on_c, 1, 57, 0
4, 30096, Note_on_c, 1, 57, 75
4, 30144, Note_on_c, 1, 57, 0
4, 30144, Note_on_c, 1, 59, 75
4, 30164, Note_on_c, 1, 59, 0
4, 30192, Note_on_c, 1, 56, 75
4, 30240, Note_on_c, 1, 56, 0
4, 30240, Note_on_c, 1, 57, 75
4, 30260, Note_on_c, 1, 57, 0
4, 30288, Note_on_c, 1, 54, 75
4, 30336, Note_on_c, 1, 54, 0
4, 30336, Note_on_c, 1, 55, 75
4, 30356, Note_on_c, 1, 55, 0
4, 30384, Note_on_c, 1, 52, 75
4, 30432, Note_on_c, 1, 52, 0
4, 30432, Note_on_c, 1, 54, 75
4, 30452, Note_on_c, 1, 54, 0
4, 30480, Note_on_c, 1, 51, 75
4, 30528, Note_on_c, 1, 51, 0
4, 30528, Note_on_c, 1, 52, 75
4, 30548, Note_on_c, 1, 52, 0
4, 30576, Note_on_c, 1, 49, 75
4, 30624, Note_on_c, 1, 49, 0
4, 30624, Note_on_c, 1, 50, 75
4, 30644, Note_on_c, 1, 50, 0
4, 30672, Note_on_c, 1, 47, 75
4, 30720, Note_on_c, 1, 47, 0
4, 30720, Note_on_c, 1, 48, 75
4, 30740, Note_on_c, 1, 48, 0
4, 30768, Note_on_c, 1, 45, 75
4, 30816, Note_on_c, 1, 45, 0
4, 30816, Note_on_c, 1, 47, 75
4, 30836, Note_on_c, 1, 47, 0
4, 30864, Note_on_c, 1, 43, 75
4, 30912, Note_on_c, 1, 43, 0
4, 30912, Note_on_c, 1, 55, 75
4, 30912, Note_on_c, 1, 52, 75
4, 30912, Note_on_c, 1, 45, 75
4, 31053, Note_on_c, 1, 55, 0
4, 31053, Note_on_c, 1, 52, 0
4, 31053, Note_on_c, 1, 45, 0
4, 31248, Note_on_c, 1, 67, 75
4, 31268, Note_on_c, 1, 67, 0
4, 31296, Note_on_c, 1, 67, 91
4, 31320, Note_on_c, 1, 67, 0
4, 31320, Note_on_c, 1, 66, 75
4, 31343, Note_on_c, 1, 66, 0
4, 31344, Note_on_c, 1, 64, 75
4, 31367, Note_on_c, 1, 64, 0
4, 31368, Note_on_c, 1, 62, 75
4, 31391, Note_on_c, 1, 62, 0
4, 31392, Note_on_c, 1, 61, 75
4, 31415, Note_on_c, 1, 61, 0
4, 31416, Note_on_c, 1, 62, 75
4, 31439, Note_on_c, 1, 62, 0
4, 31440, Note_on_c, 1, 64, 75
4, 31463, Note_on_c, 1, 64, 0
4, 31464, Note_on_c, 1, 66, 75
4, 31487, Note_on_c, 1, 66, 0
4, 31488, Note_on_c, 1, 67, 75
4, 31577, Note_on_c, 1, 67, 0
4, 31632, Note_on_c, 1, 67, 75
4, 31652, Note_on_c, 1, 67, 0
4, 31680, Note_on_c, 1, 67, 91
4, 31704, Note_on_c, 1, 67, 0
4, 31704, Note_on_c, 1, 66, 75
4, 31727, Note_on_c, 1, 66, 0
4, 31728, Note_on_c, 1, 64, 75
4, 31751, Note_on_c, 1, 64, 0
4, 31752, Note_on_c, 1, 62, 75
4, 31775, Note_on_c, 1, 62, 0
4, 31776, Note_on_c, 1, 61, 75
4, 31799, Note_on_c, 1, 61, 0
4, 31800, Note_on_c, 1, 62, 75
4, 31823, Note_on_c, 1, 62, 0
4, 31824, Note_on_c, 1, 64, 75
4, 31847, Note_on_c, 1, 64, 0
4, 31848, Note_on_c, 1, 66, 75
4, 31871, Note_on_c, 1, 66, 0
4, 31872, Note_on_c, 1, 67, 75
4, 31961, Note_on_c, 1, 67, 0
4, 32016, Note_on_c, 1, 79, 75
4, 32036, Note_on_c, 1, 79, 0
4, 32064, Note_on_c, 1, 78, 75
4, 32109, Note_on_c, 1, 78, 0
4, 32112, Note_on_c, 1, 76, 75
4, 32157, Note_on_c, 1, 76, 0
4, 32160, Note_on_c, 1, 74, 75
4, 32205, Note_on_c, 1, 74, 0
4, 32208, Note_on_c, 1, 73, 75
4, 32253, Note_on_c, 1, 73, 0
4, 32256, Note_on_c, 1, 71, 75
4, 32301, Note_on_c, 1, 71, 0
4, 32304, Note_on_c, 1, 69, 75
4, 32349, Note_on_c, 1, 69, 0
4, 32352, Note_on_c, 1, 67, 75
4, 32397, Note_on_c, 1, 67, 0
4, 32400, Note_on_c, 1, 66, 75
4, 32445, Note_on_c, 1, 66, 0
4, 32448, Note_on_c, 1, 67, 75
4, 32493, Note_on_c, 1, 67, 0
4, 32496, Note_on_c, 1, 66, 75
4, 32541, Note_on_c, 1, 66, 0
4, 32544, Note_on_c, 1, 67, 75
4, 32589, Note_on_c, 1, 67, 0
4, 32592, Note_on_c, 1, 63, 75
4, 32637, Note_on_c, 1, 63, 0
4, 32640, Note_on_c, 1, 64, 75
4, 32685, Note_on_c, 1, 64, 0
4, 32688, Note_on_c, 1, 63, 75
4, 32733, Note_on_c, 1, 63, 0
4, 32736, Note_on_c, 1, 64, 75
4, 32781, Note_on_c, 1, 64, 0
4, 32784, Note_on_c, 1, 67, 75
4, 32829, Note_on_c, 1, 67, 0
4, 32832, Note_on_c, 1, 66, 75
4, 32877, Note_on_c, 1, 66, 0
4, 32880, Note_on_c, 1, 67, 75
4, 32925, Note_on_c, 1, 67, 0
4, 32928, Note_on_c, 1, 66, 75
4, 32973, Note_on_c, 1, 66, 0
4, 32976, Note_on_c, 1, 61, 75
4, 33021, Note_on_c, 1, 61, 0
4, 33024, Note_on_c, 1, 62, 75
4, 33069, Note_on_c, 1, 62, 0
4, 33072, Note_on_c, 1, 61, 75
4, 33117, Note_on_c, 1, 61, 0
4, 33120, Note_on_c, 1, 62, 75
4, 33165, Note_on_c, 1, 62, 0
4, 33168, Note_on_c, 1, 60, 75
4, 33213, Note_on_c, 1, 60, 0
4, 33216, Note_on_c, 1, 59, 75
4, 33305, Note_on_c, 1, 59, 0
4, 33360, Note_on_c, 1, 57, 75
4, 33380, Note_on_c, 1, 57, 0
4, 33408, Note_on_c, 1, 57, 91
4, 33432, Note_on_c, 1, 57, 0
4, 33432, Note_on_c, 1, 56, 75
4, 33455, Note_on_c, 1, 56, 0
4, 33456, Note_on_c, 1, 54, 75
4, 33479, Note_on_c, 1, 54, 0
4, 33480, Note_on_c, 1, 52, 75
4, 33503, Note_on_c, 1, 52, 0
4, 33504, Note_on_c, 1, 51, 75
4, 33527, Note_on_c, 1, 51, 0
4, 33528, Note_on_c, 1, 52, 75
4, 33551, Note_on_c, 1, 52, 0
4, 33552, Note_on_c, 1, 54, 75
4, 33575, Note_on_c, 1, 54, 0
4, 33576, Note_on_c, 1, 56, 75
4, 33599, Note_on_c, 1, 56, 0
4, 33600, Note_on_c, 1, 57, 75
4, 33689, Note_on_c, 1, 57, 0
4, 33744, Note_on_c, 1, 67, 75
4, 33764, Note_on_c, 1, 67, 0
4, 33792, Note_on_c, 1, 67, 91
4, 33816, Note_on_c, 1, 67, 0
4, 33816, Note_on_c, 1, 66, 75
4, 33839, Note_on_c, 1, 66, 0
4, 33840, Note_on_c, 1, 64, 75
4, 33863, Note_on_c, 1, 64, 0
4, 33864, Note_on_c, 1, 62, 75
4, 33887, Note_on_c, 1, 62, 0
4, 33888, Note_on_c, 1, 61, 75
4, 33911, Note_on_c, 1, 61, 0
4, 33912, Note_on_c, 1, 62, 75
4, 33935, Note_on_c, 1, 62, 0
4, 33936, Note_on_c, 1, 64, 75
4, 33959, Note_on_c, 1, 64, 0
4, 33960, Note_on_c, 1, 66, 75
4, 33983, Note_on_c, 1, 66, 0
4, 33984, Note_on_c, 1, 67, 75
4, 34073, Note_on_c, 1, 67, 0
4, 34080, Note_on_c, 1, 64, 75
4, 34169, Note_on_c, 1, 64, 0
4, 34176, Note_on_c, 1, 69, 75
4, 34199, Note_on_c, 1, 69, 0
4, 34200, Note_on_c, 1, 67, 75
4, 34223, Note_on_c, 1, 67, 0
4, 34224, Note_on_c, 1, 66, 75
4, 34247, Note_on_c, 1, 66, 0
4, 34248, Note_on_c, 1, 64, 75
4, 34271, Note_on_c, 1, 64, 0
4, 34272, Note_on_c, 1, 62, 75
4, 34361, Note_on_c, 1, 62, 0
4, 34368, Note_on_c, 1, 71, 75
4, 34391, Note_on_c, 1, 71, 0
4, 34392, Note_on_c, 1, 69, 75
4, 34415, Note_on_c, 1, 69, 0
4, 34416, Note_on_c, 1, 67, 75
4, 34439, Note_on_c, 1, 67, 0
4, 34440, Note_on_c, 1, 66, 75
4, 34463, Note_on_c, 1, 66, 0
4, 34464, Note_on_c, 1, 64, 75
4, 34553, Note_on_c, 1, 64, 0
4, 34560, Note_on_c, 1, 69, 75
4, 34583, Note_on_c, 1, 69, 0
4, 34584, Note_on_c, 1, 68, 75
4, 34607, Note_on_c, 1, 68, 0
4, 34608, Note_on_c, 1, 69, 75
4, 34631, Note_on_c, 1, 69, 0
4, 34632, Note_on_c, 1, 68, 75
4, 34655, Note_on_c, 1, 68, 0
4, 34656, Note_on_c, 1, 69, 75
4, 34679, Note_on_c, 1, 69, 0
4, 34680, Note_on_c, 1, 68, 75
4, 34703, Note_on_c, 1, 68, 0
4, 34704, Note_on_c, 1, 69, 75
4, 34727, Note_on_c, 1, 69, 0
4, 34728, Note_on_c, 1, 68, 75
4, 34751, Note_on_c, 1, 68, 0
4, 34752, Note_on_c, 1, 69, 75
4, 34841, Note_on_c, 1, 69, 0
4, 34896, Note_on_c, 1, 66, 75
4, 34896, Note_on_c, 1, 62, 75
4, 34941, Note_on_c, 1, 66, 0
4, 34941, Note_on_c, 1, 62, 0
4, 34944, Note_on_c, 1, 64, 75
4, 34944, Note_on_c, 1, 61, 75
4, 34989, Note_on_c, 1, 64, 0
4, 34989, Note_on_c, 1, 61, 0
4, 34992, Note_on_c, 1, 66, 77
4, 34992, Note_on_c, 1, 62, 77
4, 35037, Note_on_c, 1, 66, 0
4, 35037, Note_on_c, 1, 62, 0
4, 35040, Note_on_c, 1, 67, 80
4, 35040, Note_on_c, 1, 64, 80
4, 35085, Note_on_c, 1, 67, 0
4, 35085, Note_on_c, 1, 64, 0
4, 35088, Note_on_c, 1, 66, 77
4, 35088, Note_on_c, 1, 62, 77
4, 35133, Note_on_c, 1, 66, 0
4, 35133, Note_on_c, 1, 62, 0
4, 35136, Note_on_c, 1, 64, 75
4, 35136, Note_on_c, 1, 61, 75
4, 35225, Note_on_c, 1, 64, 0
4, 35225, Note_on_c, 1, 61, 0
4, 35472, Note_on_c, 1, 70, 75
4, 35520, Note_on_c, 1, 70, 0
4, 35520, Note_on_c, 1, 71, 75
4, 35540, Note_on_c, 1, 71, 0
4, 35568, Note_on_c, 1, 68, 75
4, 35616, Note_on_c, 1, 68, 0
4, 35616, Note_on_c, 1, 69, 75
4, 35636, Note_on_c, 1, 69, 0
4, 35664, Note_on_c, 1, 66, 75
4, 35712, Note_on_c, 1, 66, 0
4, 35712, Note_on_c, 1, 67, 75
4, 35732, Note_on_c, 1, 67, 0
4, 35760, Note_on_c, 1, 64, 75
4, 35808, Note_on_c, 1, 64, 0
4, 35808, Note_on_c, 1, 66, 75
4, 35828, Note_on_c, 1, 66, 0
4, 35856, Note_on_c, 1, 55, 75
4, 35901, Note_on_c, 1, 55, 0
4, 35904, Note_on_c, 1, 57, 75
4, 35993, Note_on_c, 1, 57, 0
4, 36000, Note_on_c, 1, 64, 75
4, 36045, Note_on_c, 1, 64, 0
4, 36048, Note_on_c, 1, 61, 75
4, 36093, Note_on_c, 1, 61, 0
4, 36096, Note_on_c, 1, 62, 75
4, 36096, Note_on_c, 1, 50, 75
4, 36185, Note_on_c, 1, 62, 0
4, 36185, Note_on_c, 1, 50, 0
4, 36288, Note_on_c, 1, 67, 75
4, 36288, Note_on_c, 1, 64, 75
4, 36288, Note_on_c, 1, 57, 75
4, 36377, Note_on_c, 1, 67, 0
4, 36377, Note_on_c, 1, 64, 0
4, 36377, Note_on_c, 1, 57, 0
4, 36480, Note_on_c, 1, 66, 75
4, 36480, Note_on_c, 1, 62, 75
4, 36569, Note_on_c, 1, 66, 0
4, 36569, Note_on_c, 1, 62, 0
4, 36672, Note_on_c, 1, 67, 75
4, 36672, Note_on_c, 1, 64, 75
4, 36672, Note_on_c, 1, 57, 75
4, 36761, Note_on_c, 1, 67, 0
4, 36761, Note_on_c, 1, 64, 0
4, 36761, Note_on_c, 1, 57, 0
4, 36864, Note_on_c, 1, 66, 75
4, 36864, Note_on_c, 1, 62, 75
4, 36953, Note_on_c, 1, 66, 0
4, 36953, Note_on_c, 1, 62, 0
4, 37008, Note_on_c, 1, 62, 75
4, 37028, Note_on_c, 1, 62, 0
4, 37056, Note_on_c, 1, 62, 91
4, 37080, Note_on_c, 1, 62, 0
4, 37080, Note_on_c, 1, 61, 75
4, 37103, Note_on_c, 1, 61, 0
4, 37104, Note_on_c, 1, 59, 75
4, 37127, Note_on_c, 1, 59, 0
4, 37128, Note_on_c, 1, 57, 75
4, 37151, Note_on_c, 1, 57, 0
4, 37152, Note_on_c, 1, 56, 75
4, 37175, Note_on_c, 1, 56, 0
4, 37176, Note_on_c, 1, 57, 75
4, 37199, Note_on_c, 1, 57, 0
4, 37200, Note_on_c, 1, 59, 75
4, 37223, Note_on_c, 1, 59, 0
4, 37224, Note_on_c, 1, 61, 75
4, 37247, Note_on_c, 1, 61, 0
4, 37248, Note_on_c, 1, 62, 75
4, 37271, Note_on_c, 1, 62, 0
4, 37272, Note_on_c, 1, 61, 75
4, 37295, Note_on_c, 1, 61, 0
4, 37296, Note_on_c, 1, 59, 75
4, 37319, Note_on_c, 1, 59, 0
4, 37320, Note_on_c, 1, 57, 75
4, 37343, Note_on_c, 1, 57, 0
4, 37344, Note_on_c, 1, 55, 75
4, 37367, Note_on_c, 1, 55, 0
4, 37368, Note_on_c, 1, 54, 75
4, 37391, Note_on_c, 1, 54, 0
4, 37392, Note_on_c, 1, 52, 75
4, 37415, Note_on_c, 1, 52, 0
4, 37416, Note_on_c, 1, 50, 75
4, 37439, Note_on_c, 1, 50, 0
4, 37440, Note_on_c, 1, 50, 75
4, 37463, Note_on_c, 1, 50, 0
4, 37464, Note_on_c, 1, 49, 75
4, 37487, Note_on_c, 1, 49, 0
4, 37488, Note_on_c, 1, 47, 75
4, 37511, Note_on_c, 1, 47, 0
4, 37512, Note_on_c, 1, 45, 75
4, 37535, Note_on_c, 1, 45, 0
4, 37536, Note_on_c, 1, 44, 75
4, 37559, Note_on_c, 1, 44, 0
4, 37560, Note_on_c, 1, 45, 75
4, 37583, Note_on_c, 1, 45, 0
4, 37584, Note_on_c, 1, 47, 75
4, 37607, Note_on_c, 1, 47, 0
4, 37608, Note_on_c, 1, 49, 75
4, 37631, Note_on_c, 1, 49, 0
4, 37632, Note_on_c, 1, 50, 80
4, 37677, Note_on_c, 1, 50, 0
4, 37728, Note_on_c, 1, 47, 80
4, 37728, Note_on_c, 1, 35, 80
4, 37773, Note_on_c, 1, 47, 0
4, 37773, Note_on_c, 1, 35, 0
4, 37824, Note_on_c, 1, 43, 80
4, 37824, Note_on_c, 1, 31, 80
4, 37869, Note_on_c, 1, 43, 0
4, 37869, Note_on_c, 1, 31, 0
4, 37920, Note_on_c, 1, 45, 80
4, 37920, Note_on_c, 1, 33, 80
4, 37965, Note_on_c, 1, 45, 0
4, 37965, Note_on_c, 1, 33, 0
4, 38016, Note_on_c, 1, 50, 80
4, 38016, Note_on_c, 1, 38, 80
4, 38105, Note_on_c, 1, 50, 0
4, 38105, Note_on_c, 1, 38, 0
4, 38208, Note_on_c, 1, 67, 75
4, 38208, Note_on_c, 1, 64, 75
4, 38208, Note_on_c, 1, 57, 75
4, 38297, Note_on_c, 1, 67, 0
4, 38297, Note_on_c, 1, 64, 0
4, 38297, Note_on_c, 1, 57, 0
4, 38400, Note_on_c, 1, 66, 75
4, 38400, Note_on_c, 1, 62, 75
4, 38489, Note_on_c, 1, 66, 0
4, 38489, Note_on_c, 1, 62, 0
4, 38592, Note_on_c, 1, 55, 64
4, 38592, Note_on_c, 1, 45, 64
4, 38681, Note_on_c, 1, 55, 0
4, 38681, Note_on_c, 1, 45, 0
4, 38784, Note_on_c, 1, 54, 64
4, 38784, Note_on_c, 1, 50, 64
4, 38873, Note_on_c, 1, 54, 0
4, 38873, Note_on_c, 1, 50, 0
4, 38976, Note_on_c, 1, 50, 0
4, 39065, Note_on_c, 1, 50, 0
4, 39072, End_track
5, 0, Start_track
5, 0, Program_c, 1, 0
5, 0, Control_c, 1, 7, 127
5, 0, Control_c, 1, 10, 64
5, 5808, Note_on_c, 1, 69, 64
5, 5997, Note_on_c, 1, 69, 0
5, 6000, Note_on_c, 1, 69, 64
5, 6189, Note_on_c, 1, 69, 0
5, 18048, Note_on_c, 1, 57, 64
5, 18137, Note_on_c, 1, 57, 0
5, 18144, Note_on_c, 1, 57, 64
5, 18233, Note_on_c, 1, 57, 0
5, 23664, Note_on_c, 1, 69, 64
5, 23853, Note_on_c, 1, 69, 0
5, 23856, Note_on_c, 1, 69, 64
5, 24045, Note_on_c, 1, 69, 0
5, 35904, Note_on_c, 1, 57, 64
5, 35993, Note_on_c, 1, 57, 0
5, 36000, Note_on_c, 1, 57, 64
5, 36089, Note_on_c, 1, 57, 0
5, 38976, End_track
6, 0, Start_track
6, 0, Title_t, "Sonata I   Haydn  "
6, 0, End_track
0, 0, End_of_file
