0, 0, Header, 1, 6, 96
1, 0, Start_track
1, 0, Copyright_t, "Copyright  2000 <copyright holder>"
1, 0, Text_t, "Sonata III"
1, 0, Text_t, "Haydn"
1, 0, Sequencer_specific, 17, 68, 87, 77, 90, 86, 82, 83, 78, 32, 55, 46, 48, 46, 49, 48, 46, 48
1, 0, Time_signature, 2, 2, 24, 8
1, 0, Tempo, 375000
1, 0, Key_signature, 1, "major"
1, 43200, End_track
2, 0, Start_track
2, 0, Program_c, 0, 0
2, 0, Control_c, 0, 7, 127
2, 0, Control_c, 0, 10, 64
2, 144, Note_on_c, 0, 62, 77
2, 189, Note_on_c, 0, 62, 0
2, 192, Note_on_c, 0, 67, 77
2, 237, Note_on_c, 0, 67, 0
2, 240, Note_on_c, 0, 71, 79
2, 285, Note_on_c, 0, 71, 0
2, 288, Note_on_c, 0, 74, 81
2, 333, Note_on_c, 0, 74, 0
2, 336, Note_on_c, 0, 67, 83
2, 381, Note_on_c, 0, 67, 0
2, 384, Note_on_c, 0, 67, 101
2, 480, Note_on_c, 0, 67, 0
2, 480, Note_on_c, 0, 66, 81
2, 525, Note_on_c, 0, 66, 0
2, 528, Note_on_c, 0, 62, 79
2, 573, Note_on_c, 0, 62, 0
2, 576, Note_on_c, 0, 69, 77
2, 621, Note_on_c, 0, 69, 0
2, 624, Note_on_c, 0, 72, 79
2, 669, Note_on_c, 0, 72, 0
2, 672, Note_on_c, 0, 76, 81
2, 717, Note_on_c, 0, 76, 0
2, 720, Note_on_c, 0, 72, 83
2, 720, Note_on_c, 0, 69, 83
2, 765, Note_on_c, 0, 72, 0
2, 765, Note_on_c, 0, 69, 0
2, 768, Note_on_c, 0, 72, 101
2, 768, Note_on_c, 0, 69, 101
2, 864, Note_on_c, 0, 72, 0
2, 864, Note_on_c, 0, 69, 0
2, 864, Note_on_c, 0, 71, 77
2, 864, Note_on_c, 0, 67, 77
2, 909, Note_on_c, 0, 71, 0
2, 909, Note_on_c, 0, 67, 0
2, 912, Note_on_c, 0, 71, 73
2, 957, Note_on_c, 0, 71, 0
2, 960, Note_on_c, 0, 83, 69
2, 1008, Note_on_c, 0, 83, 0
2, 1008, Note_on_c, 0, 79, 69
2, 1053, Note_on_c, 0, 79, 0
2, 1056, Note_on_c, 0, 75, 69
2, 1104, Note_on_c, 0, 75, 0
2, 1104, Note_on_c, 0, 76, 69
2, 1149, Note_on_c, 0, 76, 0
2, 1152, Note_on_c, 0, 81, 69
2, 1200, Note_on_c, 0, 81, 0
2, 1200, Note_on_c, 0, 78, 69
2, 1245, Note_on_c, 0, 78, 0
2, 1248, Note_on_c, 0, 73, 69
2, 1296, Note_on_c, 0, 73, 0
2, 1296, Note_on_c, 0, 74, 69
2, 1341, Note_on_c, 0, 74, 0
2, 1344, Note_on_c, 0, 76, 69
2, 1389, Note_on_c, 0, 76, 0
2, 1392, Note_on_c, 0, 79, 85
2, 1488, Note_on_c, 0, 79, 0
2, 1488, Note_on_c, 0, 73, 69
2, 1533, Note_on_c, 0, 73, 0
2, 1536, Note_on_c, 0, 76, 69
2, 1542, Note_on_c, 0, 76, 0
2, 1542, Note_on_c, 0, 74, 69
2, 1548, Note_on_c, 0, 74, 0
2, 1548, Note_on_c, 0, 73, 69
2, 1554, Note_on_c, 0, 73, 0
2, 1554, Note_on_c, 0, 74, 69
2, 1625, Note_on_c, 0, 74, 0
2, 1680, Note_on_c, 0, 62, 77
2, 1725, Note_on_c, 0, 62, 0
2, 1728, Note_on_c, 0, 67, 77
2, 1773, Note_on_c, 0, 67, 0
2, 1776, Note_on_c, 0, 71, 79
2, 1821, Note_on_c, 0, 71, 0
2, 1824, Note_on_c, 0, 74, 81
2, 1869, Note_on_c, 0, 74, 0
2, 1872, Note_on_c, 0, 67, 83
2, 1917, Note_on_c, 0, 67, 0
2, 1920, Note_on_c, 0, 67, 101
2, 2016, Note_on_c, 0, 67, 0
2, 2016, Note_on_c, 0, 66, 81
2, 2061, Note_on_c, 0, 66, 0
2, 2064, Note_on_c, 0, 62, 79
2, 2109, Note_on_c, 0, 62, 0
2, 2112, Note_on_c, 0, 69, 77
2, 2157, Note_on_c, 0, 69, 0
2, 2160, Note_on_c, 0, 72, 79
2, 2205, Note_on_c, 0, 72, 0
2, 2208, Note_on_c, 0, 76, 81
2, 2253, Note_on_c, 0, 76, 0
2, 2256, Note_on_c, 0, 72, 83
2, 2256, Note_on_c, 0, 69, 83
2, 2301, Note_on_c, 0, 72, 0
2, 2301, Note_on_c, 0, 69, 0
2, 2304, Note_on_c, 0, 72, 101
2, 2304, Note_on_c, 0, 69, 101
2, 2400, Note_on_c, 0, 72, 0
2, 2400, Note_on_c, 0, 69, 0
2, 2400, Note_on_c, 0, 71, 77
2, 2400, Note_on_c, 0, 67, 77
2, 2445, Note_on_c, 0, 71, 0
2, 2445, Note_on_c, 0, 67, 0
2, 2448, Note_on_c, 0, 71, 73
2, 2493, Note_on_c, 0, 71, 0
2, 2496, Note_on_c, 0, 83, 69
2, 2544, Note_on_c, 0, 83, 0
2, 2544, Note_on_c, 0, 79, 69
2, 2589, Note_on_c, 0, 79, 0
2, 2592, Note_on_c, 0, 75, 69
2, 2640, Note_on_c, 0, 75, 0
2, 2640, Note_on_c, 0, 76, 69
2, 2685, Note_on_c, 0, 76, 0
2, 2688, Note_on_c, 0, 81, 69
2, 2736, Note_on_c, 0, 81, 0
2, 2736, Note_on_c, 0, 78, 69
2, 2781, Note_on_c, 0, 78, 0
2, 2784, Note_on_c, 0, 73, 69
2, 2832, Note_on_c, 0, 73, 0
2, 2832, Note_on_c, 0, 74, 69
2, 2877, Note_on_c, 0, 74, 0
2, 2880, Note_on_c, 0, 76, 69
2, 2925, Note_on_c, 0, 76, 0
2, 2928, Note_on_c, 0, 79, 85
2, 3024, Note_on_c, 0, 79, 0
2, 3024, Note_on_c, 0, 73, 69
2, 3069, Note_on_c, 0, 73, 0
2, 3072, Note_on_c, 0, 76, 69
2, 3078, Note_on_c, 0, 76, 0
2, 3078, Note_on_c, 0, 74, 69
2, 3084, Note_on_c, 0, 74, 0
2, 3084, Note_on_c, 0, 73, 69
2, 3090, Note_on_c, 0, 73, 0
2, 3090, Note_on_c, 0, 74, 69
2, 3161, Note_on_c, 0, 74, 0
2, 3216, Note_on_c, 0, 62, 77
2, 3261, Note_on_c, 0, 62, 0
2, 3264, Note_on_c, 0, 74, 77
2, 3309, Note_on_c, 0, 74, 0
2, 3312, Note_on_c, 0, 71, 77
2, 3357, Note_on_c, 0, 71, 0
2, 3360, Note_on_c, 0, 68, 77
2, 3405, Note_on_c, 0, 68, 0
2, 3408, Note_on_c, 0, 64, 77
2, 3453, Note_on_c, 0, 64, 0
2, 3456, Note_on_c, 0, 62, 77
2, 3552, Note_on_c, 0, 62, 0
2, 3552, Note_on_c, 0, 61, 77
2, 3597, Note_on_c, 0, 61, 0
2, 3600, Note_on_c, 0, 60, 77
2, 3645, Note_on_c, 0, 60, 0
2, 3648, Note_on_c, 0, 72, 77
2, 3693, Note_on_c, 0, 72, 0
2, 3696, Note_on_c, 0, 69, 77
2, 3741, Note_on_c, 0, 69, 0
2, 3744, Note_on_c, 0, 66, 77
2, 3789, Note_on_c, 0, 66, 0
2, 3792, Note_on_c, 0, 62, 77
2, 3837, Note_on_c, 0, 62, 0
2, 3840, Note_on_c, 0, 60, 77
2, 3936, Note_on_c, 0, 60, 0
2, 3936, Note_on_c, 0, 59, 77
2, 3981, Note_on_c, 0, 59, 0
2, 3984, Note_on_c, 0, 62, 77
2, 4029, Note_on_c, 0, 62, 0
2, 4032, Note_on_c, 0, 64, 77
2, 4080, Note_on_c, 0, 64, 0
2, 4080, Note_on_c, 0, 68, 77
2, 4125, Note_on_c, 0, 68, 0
2, 4128, Note_on_c, 0, 69, 78
2, 4176, Note_on_c, 0, 69, 0
2, 4176, Note_on_c, 0, 67, 78
2, 4221, Note_on_c, 0, 67, 0
2, 4224, Note_on_c, 0, 66, 79
2, 4272, Note_on_c, 0, 66, 0
2, 4272, Note_on_c, 0, 70, 79
2, 4317, Note_on_c, 0, 70, 0
2, 4320, Note_on_c, 0, 71, 80
2, 4368, Note_on_c, 0, 71, 0
2, 4368, Note_on_c, 0, 69, 81
2, 4413, Note_on_c, 0, 69, 0
2, 4416, Note_on_c, 0, 67, 81
2, 4461, Note_on_c, 0, 67, 0
2, 4464, Note_on_c, 0, 74, 82
2, 4509, Note_on_c, 0, 74, 0
2, 4512, Note_on_c, 0, 72, 82
2, 4557, Note_on_c, 0, 72, 0
2, 4560, Note_on_c, 0, 71, 83
2, 4605, Note_on_c, 0, 71, 0
2, 4608, Note_on_c, 0, 71, 99
2, 4704, Note_on_c, 0, 71, 0
2, 4704, Note_on_c, 0, 69, 85
2, 4749, Note_on_c, 0, 69, 0
2, 4752, Note_on_c, 0, 62, 77
2, 4797, Note_on_c, 0, 62, 0
2, 4800, Note_on_c, 0, 67, 77
2, 4845, Note_on_c, 0, 67, 0
2, 4848, Note_on_c, 0, 71, 79
2, 4893, Note_on_c, 0, 71, 0
2, 4896, Note_on_c, 0, 74, 81
2, 4941, Note_on_c, 0, 74, 0
2, 4944, Note_on_c, 0, 67, 83
2, 4989, Note_on_c, 0, 67, 0
2, 4992, Note_on_c, 0, 67, 101
2, 5088, Note_on_c, 0, 67, 0
2, 5088, Note_on_c, 0, 66, 81
2, 5133, Note_on_c, 0, 66, 0
2, 5136, Note_on_c, 0, 62, 79
2, 5181, Note_on_c, 0, 62, 0
2, 5184, Note_on_c, 0, 69, 77
2, 5229, Note_on_c, 0, 69, 0
2, 5232, Note_on_c, 0, 72, 79
2, 5277, Note_on_c, 0, 72, 0
2, 5280, Note_on_c, 0, 76, 81
2, 5325, Note_on_c, 0, 76, 0
2, 5328, Note_on_c, 0, 72, 83
2, 5328, Note_on_c, 0, 69, 83
2, 5373, Note_on_c, 0, 72, 0
2, 5373, Note_on_c, 0, 69, 0
2, 5376, Note_on_c, 0, 72, 101
2, 5376, Note_on_c, 0, 69, 101
2, 5472, Note_on_c, 0, 72, 0
2, 5472, Note_on_c, 0, 69, 0
2, 5472, Note_on_c, 0, 71, 81
2, 5472, Note_on_c, 0, 67, 81
2, 5517, Note_on_c, 0, 71, 0
2, 5517, Note_on_c, 0, 67, 0
2, 5520, Note_on_c, 0, 67, 79
2, 5565, Note_on_c, 0, 67, 0
2, 5568, Note_on_c, 0, 72, 77
2, 5613, Note_on_c, 0, 72, 0
2, 5616, Note_on_c, 0, 76, 77
2, 5661, Note_on_c, 0, 76, 0
2, 5664, Note_on_c, 0, 79, 77
2, 5709, Note_on_c, 0, 79, 0
2, 5712, Note_on_c, 0, 76, 77
2, 5757, Note_on_c, 0, 76, 0
2, 5760, Note_on_c, 0, 73, 77
2, 5805, Note_on_c, 0, 73, 0
2, 5808, Note_on_c, 0, 74, 79
2, 5853, Note_on_c, 0, 74, 0
2, 5856, Note_on_c, 0, 79, 81
2, 5901, Note_on_c, 0, 79, 0
2, 5904, Note_on_c, 0, 83, 83
2, 5949, Note_on_c, 0, 83, 0
2, 5952, Note_on_c, 0, 75, 85
2, 6000, Note_on_c, 0, 75, 0
2, 6000, Note_on_c, 0, 76, 83
2, 6045, Note_on_c, 0, 76, 0
2, 6048, Note_on_c, 0, 84, 81
2, 6093, Note_on_c, 0, 84, 0
2, 6096, Note_on_c, 0, 78, 79
2, 6096, Note_on_c, 0, 72, 79
2, 6141, Note_on_c, 0, 78, 0
2, 6141, Note_on_c, 0, 72, 0
2, 6144, Note_on_c, 0, 79, 77
2, 6144, Note_on_c, 0, 71, 77
2, 6233, Note_on_c, 0, 79, 0
2, 6233, Note_on_c, 0, 71, 0
2, 6288, Note_on_c, 0, 62, 77
2, 6333, Note_on_c, 0, 62, 0
2, 6336, Note_on_c, 0, 74, 77
2, 6381, Note_on_c, 0, 74, 0
2, 6384, Note_on_c, 0, 71, 77
2, 6429, Note_on_c, 0, 71, 0
2, 6432, Note_on_c, 0, 68, 77
2, 6477, Note_on_c, 0, 68, 0
2, 6480, Note_on_c, 0, 64, 77
2, 6525, Note_on_c, 0, 64, 0
2, 6528, Note_on_c, 0, 62, 77
2, 6624, Note_on_c, 0, 62, 0
2, 6624, Note_on_c, 0, 61, 77
2, 6669, Note_on_c, 0, 61, 0
2, 6672, Note_on_c, 0, 60, 77
2, 6717, Note_on_c, 0, 60, 0
2, 6720, Note_on_c, 0, 72, 77
2, 6765, Note_on_c, 0, 72, 0
2, 6768, Note_on_c, 0, 69, 77
2, 6813, Note_on_c, 0, 69, 0
2, 6816, Note_on_c, 0, 66, 77
2, 6861, Note_on_c, 0, 66, 0
2, 6864, Note_on_c, 0, 62, 77
2, 6909, Note_on_c, 0, 62, 0
2, 6912, Note_on_c, 0, 60, 77
2, 7008, Note_on_c, 0, 60, 0
2, 7008, Note_on_c, 0, 59, 77
2, 7053, Note_on_c, 0, 59, 0
2, 7056, Note_on_c, 0, 62, 77
2, 7101, Note_on_c, 0, 62, 0
2, 7104, Note_on_c, 0, 64, 77
2, 7152, Note_on_c, 0, 64, 0
2, 7152, Note_on_c, 0, 68, 77
2, 7197, Note_on_c, 0, 68, 0
2, 7200, Note_on_c, 0, 69, 78
2, 7248, Note_on_c, 0, 69, 0
2, 7248, Note_on_c, 0, 67, 78
2, 7293, Note_on_c, 0, 67, 0
2, 7296, Note_on_c, 0, 66, 79
2, 7344, Note_on_c, 0, 66, 0
2, 7344, Note_on_c, 0, 70, 79
2, 7389, Note_on_c, 0, 70, 0
2, 7392, Note_on_c, 0, 71, 80
2, 7440, Note_on_c, 0, 71, 0
2, 7440, Note_on_c, 0, 69, 81
2, 7485, Note_on_c, 0, 69, 0
2, 7488, Note_on_c, 0, 67, 81
2, 7533, Note_on_c, 0, 67, 0
2, 7536, Note_on_c, 0, 74, 82
2, 7581, Note_on_c, 0, 74, 0
2, 7584, Note_on_c, 0, 72, 82
2, 7629, Note_on_c, 0, 72, 0
2, 7632, Note_on_c, 0, 71, 83
2, 7677, Note_on_c, 0, 71, 0
2, 7680, Note_on_c, 0, 71, 99
2, 7776, Note_on_c, 0, 71, 0
2, 7776, Note_on_c, 0, 69, 85
2, 7821, Note_on_c, 0, 69, 0
2, 7824, Note_on_c, 0, 62, 77
2, 7869, Note_on_c, 0, 62, 0
2, 7872, Note_on_c, 0, 67, 77
2, 7917, Note_on_c, 0, 67, 0
2, 7920, Note_on_c, 0, 71, 79
2, 7965, Note_on_c, 0, 71, 0
2, 7968, Note_on_c, 0, 74, 81
2, 8013, Note_on_c, 0, 74, 0
2, 8016, Note_on_c, 0, 67, 83
2, 8061, Note_on_c, 0, 67, 0
2, 8064, Note_on_c, 0, 67, 101
2, 8160, Note_on_c, 0, 67, 0
2, 8160, Note_on_c, 0, 66, 81
2, 8205, Note_on_c, 0, 66, 0
2, 8208, Note_on_c, 0, 62, 79
2, 8253, Note_on_c, 0, 62, 0
2, 8256, Note_on_c, 0, 69, 77
2, 8301, Note_on_c, 0, 69, 0
2, 8304, Note_on_c, 0, 72, 79
2, 8349, Note_on_c, 0, 72, 0
2, 8352, Note_on_c, 0, 76, 81
2, 8397, Note_on_c, 0, 76, 0
2, 8400, Note_on_c, 0, 72, 83
2, 8400, Note_on_c, 0, 69, 83
2, 8445, Note_on_c, 0, 72, 0
2, 8445, Note_on_c, 0, 69, 0
2, 8448, Note_on_c, 0, 72, 101
2, 8448, Note_on_c, 0, 69, 101
2, 8544, Note_on_c, 0, 72, 0
2, 8544, Note_on_c, 0, 69, 0
2, 8544, Note_on_c, 0, 71, 81
2, 8544, Note_on_c, 0, 67, 81
2, 8589, Note_on_c, 0, 71, 0
2, 8589, Note_on_c, 0, 67, 0
2, 8592, Note_on_c, 0, 67, 79
2, 8637, Note_on_c, 0, 67, 0
2, 8640, Note_on_c, 0, 72, 77
2, 8685, Note_on_c, 0, 72, 0
2, 8688, Note_on_c, 0, 76, 77
2, 8733, Note_on_c, 0, 76, 0
2, 8736, Note_on_c, 0, 79, 77
2, 8781, Note_on_c, 0, 79, 0
2, 8784, Note_on_c, 0, 76, 77
2, 8829, Note_on_c, 0, 76, 0
2, 8832, Note_on_c, 0, 73, 77
2, 8877, Note_on_c, 0, 73, 0
2, 8880, Note_on_c, 0, 74, 79
2, 8925, Note_on_c, 0, 74, 0
2, 8928, Note_on_c, 0, 79, 81
2, 8973, Note_on_c, 0, 79, 0
2, 8976, Note_on_c, 0, 83, 83
2, 9021, Note_on_c, 0, 83, 0
2, 9024, Note_on_c, 0, 75, 85
2, 9072, Note_on_c, 0, 75, 0
2, 9072, Note_on_c, 0, 76, 83
2, 9117, Note_on_c, 0, 76, 0
2, 9120, Note_on_c, 0, 84, 81
2, 9165, Note_on_c, 0, 84, 0
2, 9168, Note_on_c, 0, 78, 79
2, 9168, Note_on_c, 0, 72, 79
2, 9213, Note_on_c, 0, 78, 0
2, 9213, Note_on_c, 0, 72, 0
2, 9216, Note_on_c, 0, 79, 77
2, 9216, Note_on_c, 0, 71, 77
2, 9305, Note_on_c, 0, 79, 0
2, 9305, Note_on_c, 0, 71, 0
2, 9360, Note_on_c, 0, 62, 77
2, 9405, Note_on_c, 0, 62, 0
2, 9408, Note_on_c, 0, 67, 77
2, 9431, Note_on_c, 0, 67, 0
2, 9432, Note_on_c, 0, 62, 79
2, 9455, Note_on_c, 0, 62, 0
2, 9456, Note_on_c, 0, 71, 81
2, 9479, Note_on_c, 0, 71, 0
2, 9480, Note_on_c, 0, 67, 83
2, 9503, Note_on_c, 0, 67, 0
2, 9504, Note_on_c, 0, 74, 85
2, 9549, Note_on_c, 0, 74, 0
2, 9552, Note_on_c, 0, 67, 83
2, 9597, Note_on_c, 0, 67, 0
2, 9600, Note_on_c, 0, 67, 97
2, 9696, Note_on_c, 0, 67, 0
2, 9696, Note_on_c, 0, 66, 78
2, 9741, Note_on_c, 0, 66, 0
2, 9744, Note_on_c, 0, 69, 77
2, 9789, Note_on_c, 0, 69, 0
2, 9792, Note_on_c, 0, 72, 77
2, 9837, Note_on_c, 0, 72, 0
2, 9840, Note_on_c, 0, 76, 77
2, 9840, Note_on_c, 0, 72, 77
2, 9885, Note_on_c, 0, 76, 0
2, 9885, Note_on_c, 0, 72, 0
2, 9888, Note_on_c, 0, 74, 79
2, 9888, Note_on_c, 0, 71, 79
2, 9933, Note_on_c, 0, 74, 0
2, 9933, Note_on_c, 0, 71, 0
2, 9936, Note_on_c, 0, 72, 82
2, 9936, Note_on_c, 0, 69, 82
2, 9981, Note_on_c, 0, 72, 0
2, 9981, Note_on_c, 0, 69, 0
2, 9984, Note_on_c, 0, 72, 101
2, 9984, Note_on_c, 0, 69, 101
2, 10080, Note_on_c, 0, 72, 0
2, 10080, Note_on_c, 0, 69, 0
2, 10080, Note_on_c, 0, 71, 79
2, 10080, Note_on_c, 0, 67, 79
2, 10125, Note_on_c, 0, 71, 0
2, 10125, Note_on_c, 0, 67, 0
2, 10128, Note_on_c, 0, 71, 69
2, 10173, Note_on_c, 0, 71, 0
2, 10176, Note_on_c, 0, 83, 69
2, 10199, Note_on_c, 0, 83, 0
2, 10200, Note_on_c, 0, 79, 69
2, 10223, Note_on_c, 0, 79, 0
2, 10224, Note_on_c, 0, 78, 69
2, 10247, Note_on_c, 0, 78, 0
2, 10248, Note_on_c, 0, 76, 69
2, 10271, Note_on_c, 0, 76, 0
2, 10272, Note_on_c, 0, 75, 69
2, 10295, Note_on_c, 0, 75, 0
2, 10296, Note_on_c, 0, 76, 69
2, 10319, Note_on_c, 0, 76, 0
2, 10320, Note_on_c, 0, 75, 69
2, 10343, Note_on_c, 0, 75, 0
2, 10344, Note_on_c, 0, 76, 69
2, 10367, Note_on_c, 0, 76, 0
2, 10368, Note_on_c, 0, 81, 69
2, 10391, Note_on_c, 0, 81, 0
2, 10392, Note_on_c, 0, 78, 69
2, 10415, Note_on_c, 0, 78, 0
2, 10416, Note_on_c, 0, 76, 69
2, 10439, Note_on_c, 0, 76, 0
2, 10440, Note_on_c, 0, 74, 69
2, 10463, Note_on_c, 0, 74, 0
2, 10464, Note_on_c, 0, 73, 69
2, 10487, Note_on_c, 0, 73, 0
2, 10488, Note_on_c, 0, 74, 69
2, 10511, Note_on_c, 0, 74, 0
2, 10512, Note_on_c, 0, 73, 69
2, 10535, Note_on_c, 0, 73, 0
2, 10536, Note_on_c, 0, 74, 69
2, 10559, Note_on_c, 0, 74, 0
2, 10560, Note_on_c, 0, 71, 69
2, 10605, Note_on_c, 0, 71, 0
2, 10608, Note_on_c, 0, 79, 69
2, 10653, Note_on_c, 0, 79, 0
2, 10704, Note_on_c, 0, 73, 69
2, 10704, Note_on_c, 0, 67, 69
2, 10749, Note_on_c, 0, 73, 0
2, 10749, Note_on_c, 0, 67, 0
2, 10752, Note_on_c, 0, 74, 69
2, 10752, Note_on_c, 0, 66, 69
2, 10841, Note_on_c, 0, 74, 0
2, 10841, Note_on_c, 0, 66, 0
2, 10896, Note_on_c, 0, 62, 77
2, 10941, Note_on_c, 0, 62, 0
2, 10944, Note_on_c, 0, 67, 77
2, 10967, Note_on_c, 0, 67, 0
2, 10968, Note_on_c, 0, 62, 79
2, 10991, Note_on_c, 0, 62, 0
2, 10992, Note_on_c, 0, 71, 81
2, 11015, Note_on_c, 0, 71, 0
2, 11016, Note_on_c, 0, 67, 83
2, 11039, Note_on_c, 0, 67, 0
2, 11040, Note_on_c, 0, 74, 85
2, 11085, Note_on_c, 0, 74, 0
2, 11088, Note_on_c, 0, 67, 83
2, 11133, Note_on_c, 0, 67, 0
2, 11136, Note_on_c, 0, 67, 97
2, 11232, Note_on_c, 0, 67, 0
2, 11232, Note_on_c, 0, 66, 78
2, 11277, Note_on_c, 0, 66, 0
2, 11280, Note_on_c, 0, 69, 77
2, 11325, Note_on_c, 0, 69, 0
2, 11328, Note_on_c, 0, 72, 77
2, 11373, Note_on_c, 0, 72, 0
2, 11376, Note_on_c, 0, 76, 77
2, 11376, Note_on_c, 0, 72, 77
2, 11421, Note_on_c, 0, 76, 0
2, 11421, Note_on_c, 0, 72, 0
2, 11424, Note_on_c, 0, 74, 79
2, 11424, Note_on_c, 0, 71, 79
2, 11469, Note_on_c, 0, 74, 0
2, 11469, Note_on_c, 0, 71, 0
2, 11472, Note_on_c, 0, 72, 82
2, 11472, Note_on_c, 0, 69, 82
2, 11517, Note_on_c, 0, 72, 0
2, 11517, Note_on_c, 0, 69, 0
2, 11520, Note_on_c, 0, 72, 101
2, 11520, Note_on_c, 0, 69, 101
2, 11616, Note_on_c, 0, 72, 0
2, 11616, Note_on_c, 0, 69, 0
2, 11616, Note_on_c, 0, 71, 79
2, 11616, Note_on_c, 0, 67, 79
2, 11661, Note_on_c, 0, 71, 0
2, 11661, Note_on_c, 0, 67, 0
2, 11664, Note_on_c, 0, 71, 69
2, 11709, Note_on_c, 0, 71, 0
2, 11712, Note_on_c, 0, 83, 69
2, 11735, Note_on_c, 0, 83, 0
2, 11736, Note_on_c, 0, 79, 69
2, 11759, Note_on_c, 0, 79, 0
2, 11760, Note_on_c, 0, 78, 69
2, 11783, Note_on_c, 0, 78, 0
2, 11784, Note_on_c, 0, 76, 69
2, 11807, Note_on_c, 0, 76, 0
2, 11808, Note_on_c, 0, 75, 69
2, 11831, Note_on_c, 0, 75, 0
2, 11832, Note_on_c, 0, 76, 69
2, 11855, Note_on_c, 0, 76, 0
2, 11856, Note_on_c, 0, 75, 69
2, 11879, Note_on_c, 0, 75, 0
2, 11880, Note_on_c, 0, 76, 69
2, 11903, Note_on_c, 0, 76, 0
2, 11904, Note_on_c, 0, 81, 69
2, 11927, Note_on_c, 0, 81, 0
2, 11928, Note_on_c, 0, 78, 69
2, 11951, Note_on_c, 0, 78, 0
2, 11952, Note_on_c, 0, 76, 69
2, 11975, Note_on_c, 0, 76, 0
2, 11976, Note_on_c, 0, 74, 69
2, 11999, Note_on_c, 0, 74, 0
2, 12000, Note_on_c, 0, 73, 69
2, 12023, Note_on_c, 0, 73, 0
2, 12024, Note_on_c, 0, 74, 69
2, 12047, Note_on_c, 0, 74, 0
2, 12048, Note_on_c, 0, 73, 69
2, 12071, Note_on_c, 0, 73, 0
2, 12072, Note_on_c, 0, 74, 69
2, 12095, Note_on_c, 0, 74, 0
2, 12096, Note_on_c, 0, 71, 69
2, 12141, Note_on_c, 0, 71, 0
2, 12144, Note_on_c, 0, 79, 69
2, 12189, Note_on_c, 0, 79, 0
2, 12240, Note_on_c, 0, 73, 69
2, 12240, Note_on_c, 0, 67, 69
2, 12285, Note_on_c, 0, 73, 0
2, 12285, Note_on_c, 0, 67, 0
2, 12288, Note_on_c, 0, 74, 69
2, 12288, Note_on_c, 0, 66, 69
2, 12377, Note_on_c, 0, 74, 0
2, 12377, Note_on_c, 0, 66, 0
2, 12432, Note_on_c, 0, 62, 77
2, 12477, Note_on_c, 0, 62, 0
2, 12480, Note_on_c, 0, 74, 77
2, 12503, Note_on_c, 0, 74, 0
2, 12504, Note_on_c, 0, 71, 77
2, 12527, Note_on_c, 0, 71, 0
2, 12528, Note_on_c, 0, 69, 77
2, 12551, Note_on_c, 0, 69, 0
2, 12552, Note_on_c, 0, 71, 77
2, 12575, Note_on_c, 0, 71, 0
2, 12576, Note_on_c, 0, 64, 77
2, 12621, Note_on_c, 0, 64, 0
2, 12624, Note_on_c, 0, 71, 77
2, 12669, Note_on_c, 0, 71, 0
2, 12672, Note_on_c, 0, 71, 93
2, 12768, Note_on_c, 0, 71, 0
2, 12768, Note_on_c, 0, 72, 77
2, 12788, Note_on_c, 0, 72, 0
2, 12816, Note_on_c, 0, 60, 77
2, 12861, Note_on_c, 0, 60, 0
2, 12864, Note_on_c, 0, 72, 77
2, 12887, Note_on_c, 0, 72, 0
2, 12888, Note_on_c, 0, 69, 77
2, 12911, Note_on_c, 0, 69, 0
2, 12912, Note_on_c, 0, 67, 77
2, 12935, Note_on_c, 0, 67, 0
2, 12936, Note_on_c, 0, 69, 77
2, 12959, Note_on_c, 0, 69, 0
2, 12960, Note_on_c, 0, 62, 77
2, 13005, Note_on_c, 0, 62, 0
2, 13008, Note_on_c, 0, 69, 77
2, 13053, Note_on_c, 0, 69, 0
2, 13056, Note_on_c, 0, 69, 77
2, 13152, Note_on_c, 0, 69, 0
2, 13152, Note_on_c, 0, 71, 77
2, 13172, Note_on_c, 0, 71, 0
2, 13200, Note_on_c, 0, 67, 77
2, 13245, Note_on_c, 0, 67, 0
2, 13248, Note_on_c, 0, 66, 77
2, 13271, Note_on_c, 0, 66, 0
2, 13272, Note_on_c, 0, 64, 77
2, 13295, Note_on_c, 0, 64, 0
2, 13296, Note_on_c, 0, 63, 77
2, 13319, Note_on_c, 0, 63, 0
2, 13320, Note_on_c, 0, 64, 77
2, 13343, Note_on_c, 0, 64, 0
2, 13344, Note_on_c, 0, 69, 78
2, 13433, Note_on_c, 0, 69, 0
2, 13440, Note_on_c, 0, 67, 79
2, 13463, Note_on_c, 0, 67, 0
2, 13464, Note_on_c, 0, 66, 79
2, 13487, Note_on_c, 0, 66, 0
2, 13488, Note_on_c, 0, 65, 79
2, 13511, Note_on_c, 0, 65, 0
2, 13512, Note_on_c, 0, 66, 80
2, 13535, Note_on_c, 0, 66, 0
2, 13536, Note_on_c, 0, 71, 80
2, 13625, Note_on_c, 0, 71, 0
2, 13632, Note_on_c, 0, 67, 81
2, 13677, Note_on_c, 0, 67, 0
2, 13680, Note_on_c, 0, 74, 82
2, 13725, Note_on_c, 0, 74, 0
2, 13728, Note_on_c, 0, 72, 82
2, 13773, Note_on_c, 0, 72, 0
2, 13776, Note_on_c, 0, 71, 83
2, 13821, Note_on_c, 0, 71, 0
2, 13824, Note_on_c, 0, 71, 83
2, 13920, Note_on_c, 0, 71, 0
2, 13920, Note_on_c, 0, 69, 85
2, 13965, Note_on_c, 0, 69, 0
2, 13968, Note_on_c, 0, 62, 77
2, 14013, Note_on_c, 0, 62, 0
2, 14016, Note_on_c, 0, 67, 77
2, 14039, Note_on_c, 0, 67, 0
2, 14040, Note_on_c, 0, 62, 79
2, 14063, Note_on_c, 0, 62, 0
2, 14064, Note_on_c, 0, 71, 81
2, 14087, Note_on_c, 0, 71, 0
2, 14088, Note_on_c, 0, 67, 83
2, 14111, Note_on_c, 0, 67, 0
2, 14112, Note_on_c, 0, 74, 85
2, 14157, Note_on_c, 0, 74, 0
2, 14160, Note_on_c, 0, 67, 83
2, 14205, Note_on_c, 0, 67, 0
2, 14208, Note_on_c, 0, 67, 97
2, 14304, Note_on_c, 0, 67, 0
2, 14304, Note_on_c, 0, 66, 77
2, 14349, Note_on_c, 0, 66, 0
2, 14352, Note_on_c, 0, 69, 77
2, 14397, Note_on_c, 0, 69, 0
2, 14400, Note_on_c, 0, 72, 77
2, 14445, Note_on_c, 0, 72, 0
2, 14448, Note_on_c, 0, 76, 77
2, 14448, Note_on_c, 0, 72, 77
2, 14493, Note_on_c, 0, 76, 0
2, 14493, Note_on_c, 0, 72, 0
2, 14496, Note_on_c, 0, 74, 79
2, 14496, Note_on_c, 0, 71, 79
2, 14541, Note_on_c, 0, 74, 0
2, 14541, Note_on_c, 0, 71, 0
2, 14544, Note_on_c, 0, 72, 82
2, 14544, Note_on_c, 0, 69, 82
2, 14589, Note_on_c, 0, 72, 0
2, 14589, Note_on_c, 0, 69, 0
2, 14592, Note_on_c, 0, 72, 101
2, 14592, Note_on_c, 0, 69, 101
2, 14688, Note_on_c, 0, 72, 0
2, 14688, Note_on_c, 0, 69, 0
2, 14688, Note_on_c, 0, 71, 79
2, 14688, Note_on_c, 0, 67, 79
2, 14733, Note_on_c, 0, 71, 0
2, 14733, Note_on_c, 0, 67, 0
2, 14736, Note_on_c, 0, 67, 77
2, 14781, Note_on_c, 0, 67, 0
2, 14784, Note_on_c, 0, 76, 77
2, 14807, Note_on_c, 0, 76, 0
2, 14808, Note_on_c, 0, 75, 77
2, 14831, Note_on_c, 0, 75, 0
2, 14832, Note_on_c, 0, 76, 77
2, 14855, Note_on_c, 0, 76, 0
2, 14856, Note_on_c, 0, 78, 77
2, 14879, Note_on_c, 0, 78, 0
2, 14880, Note_on_c, 0, 79, 77
2, 14903, Note_on_c, 0, 79, 0
2, 14904, Note_on_c, 0, 76, 77
2, 14927, Note_on_c, 0, 76, 0
2, 14928, Note_on_c, 0, 74, 77
2, 14951, Note_on_c, 0, 74, 0
2, 14952, Note_on_c, 0, 72, 77
2, 14975, Note_on_c, 0, 72, 0
2, 14976, Note_on_c, 0, 74, 77
2, 15021, Note_on_c, 0, 74, 0
2, 15024, Note_on_c, 0, 79, 79
2, 15047, Note_on_c, 0, 79, 0
2, 15048, Note_on_c, 0, 83, 81
2, 15071, Note_on_c, 0, 83, 0
2, 15072, Note_on_c, 0, 86, 82
2, 15092, Note_on_c, 0, 86, 0
2, 15120, Note_on_c, 0, 74, 85
2, 15120, Note_on_c, 0, 71, 85
2, 15165, Note_on_c, 0, 74, 0
2, 15165, Note_on_c, 0, 71, 0
2, 15168, Note_on_c, 0, 74, 85
2, 15168, Note_on_c, 0, 71, 85
2, 15192, Note_on_c, 0, 74, 0
2, 15192, Note_on_c, 0, 71, 0
2, 15192, Note_on_c, 0, 72, 84
2, 15192, Note_on_c, 0, 69, 84
2, 15215, Note_on_c, 0, 72, 0
2, 15215, Note_on_c, 0, 69, 0
2, 15216, Note_on_c, 0, 71, 83
2, 15216, Note_on_c, 0, 67, 83
2, 15305, Note_on_c, 0, 71, 0
2, 15305, Note_on_c, 0, 67, 0
2, 15312, Note_on_c, 0, 69, 79
2, 15312, Note_on_c, 0, 66, 79
2, 15357, Note_on_c, 0, 69, 0
2, 15357, Note_on_c, 0, 66, 0
2, 15360, Note_on_c, 0, 67, 77
2, 15449, Note_on_c, 0, 67, 0
2, 15504, Note_on_c, 0, 62, 77
2, 15549, Note_on_c, 0, 62, 0
2, 15552, Note_on_c, 0, 74, 77
2, 15575, Note_on_c, 0, 74, 0
2, 15576, Note_on_c, 0, 71, 77
2, 15599, Note_on_c, 0, 71, 0
2, 15600, Note_on_c, 0, 69, 77
2, 15623, Note_on_c, 0, 69, 0
2, 15624, Note_on_c, 0, 71, 77
2, 15647, Note_on_c, 0, 71, 0
2, 15648, Note_on_c, 0, 64, 77
2, 15693, Note_on_c, 0, 64, 0
2, 15696, Note_on_c, 0, 71, 77
2, 15741, Note_on_c, 0, 71, 0
2, 15744, Note_on_c, 0, 71, 93
2, 15840, Note_on_c, 0, 71, 0
2, 15840, Note_on_c, 0, 72, 77
2, 15860, Note_on_c, 0, 72, 0
2, 15888, Note_on_c, 0, 60, 77
2, 15933, Note_on_c, 0, 60, 0
2, 15936, Note_on_c, 0, 72, 77
2, 15959, Note_on_c, 0, 72, 0
2, 15960, Note_on_c, 0, 69, 77
2, 15983, Note_on_c, 0, 69, 0
2, 15984, Note_on_c, 0, 67, 77
2, 16007, Note_on_c, 0, 67, 0
2, 16008, Note_on_c, 0, 69, 77
2, 16031, Note_on_c, 0, 69, 0
2, 16032, Note_on_c, 0, 62, 77
2, 16077, Note_on_c, 0, 62, 0
2, 16080, Note_on_c, 0, 69, 77
2, 16125, Note_on_c, 0, 69, 0
2, 16128, Note_on_c, 0, 69, 77
2, 16224, Note_on_c, 0, 69, 0
2, 16224, Note_on_c, 0, 71, 77
2, 16244, Note_on_c, 0, 71, 0
2, 16272, Note_on_c, 0, 67, 77
2, 16317, Note_on_c, 0, 67, 0
2, 16320, Note_on_c, 0, 66, 77
2, 16343, Note_on_c, 0, 66, 0
2, 16344, Note_on_c, 0, 64, 77
2, 16367, Note_on_c, 0, 64, 0
2, 16368, Note_on_c, 0, 63, 77
2, 16391, Note_on_c, 0, 63, 0
2, 16392, Note_on_c, 0, 64, 77
2, 16415, Note_on_c, 0, 64, 0
2, 16416, Note_on_c, 0, 69, 78
2, 16505, Note_on_c, 0, 69, 0
2, 16512, Note_on_c, 0, 67, 79
2, 16535, Note_on_c, 0, 67, 0
2, 16536, Note_on_c, 0, 66, 79
2, 16559, Note_on_c, 0, 66, 0
2, 16560, Note_on_c, 0, 65, 79
2, 16583, Note_on_c, 0, 65, 0
2, 16584, Note_on_c, 0, 66, 80
2, 16607, Note_on_c, 0, 66, 0
2, 16608, Note_on_c, 0, 71, 80
2, 16697, Note_on_c, 0, 71, 0
2, 16704, Note_on_c, 0, 67, 81
2, 16749, Note_on_c, 0, 67, 0
2, 16752, Note_on_c, 0, 74, 82
2, 16797, Note_on_c, 0, 74, 0
2, 16800, Note_on_c, 0, 72, 82
2, 16845, Note_on_c, 0, 72, 0
2, 16848, Note_on_c, 0, 71, 83
2, 16893, Note_on_c, 0, 71, 0
2, 16896, Note_on_c, 0, 71, 83
2, 16992, Note_on_c, 0, 71, 0
2, 16992, Note_on_c, 0, 69, 85
2, 17037, Note_on_c, 0, 69, 0
2, 17040, Note_on_c, 0, 62, 77
2, 17085, Note_on_c, 0, 62, 0
2, 17088, Note_on_c, 0, 67, 77
2, 17111, Note_on_c, 0, 67, 0
2, 17112, Note_on_c, 0, 62, 79
2, 17135, Note_on_c, 0, 62, 0
2, 17136, Note_on_c, 0, 71, 81
2, 17159, Note_on_c, 0, 71, 0
2, 17160, Note_on_c, 0, 67, 83
2, 17183, Note_on_c, 0, 67, 0
2, 17184, Note_on_c, 0, 74, 85
2, 17229, Note_on_c, 0, 74, 0
2, 17232, Note_on_c, 0, 67, 83
2, 17277, Note_on_c, 0, 67, 0
2, 17280, Note_on_c, 0, 67, 97
2, 17376, Note_on_c, 0, 67, 0
2, 17376, Note_on_c, 0, 66, 77
2, 17421, Note_on_c, 0, 66, 0
2, 17424, Note_on_c, 0, 69, 77
2, 17469, Note_on_c, 0, 69, 0
2, 17472, Note_on_c, 0, 72, 77
2, 17517, Note_on_c, 0, 72, 0
2, 17520, Note_on_c, 0, 76, 77
2, 17520, Note_on_c, 0, 72, 77
2, 17565, Note_on_c, 0, 76, 0
2, 17565, Note_on_c, 0, 72, 0
2, 17568, Note_on_c, 0, 74, 79
2, 17568, Note_on_c, 0, 71, 79
2, 17613, Note_on_c, 0, 74, 0
2, 17613, Note_on_c, 0, 71, 0
2, 17616, Note_on_c, 0, 72, 82
2, 17616, Note_on_c, 0, 69, 82
2, 17661, Note_on_c, 0, 72, 0
2, 17661, Note_on_c, 0, 69, 0
2, 17664, Note_on_c, 0, 72, 101
2, 17664, Note_on_c, 0, 69, 101
2, 17760, Note_on_c, 0, 72, 0
2, 17760, Note_on_c, 0, 69, 0
2, 17760, Note_on_c, 0, 71, 79
2, 17760, Note_on_c, 0, 67, 79
2, 17805, Note_on_c, 0, 71, 0
2, 17805, Note_on_c, 0, 67, 0
2, 17808, Note_on_c, 0, 67, 77
2, 17853, Note_on_c, 0, 67, 0
2, 17856, Note_on_c, 0, 76, 77
2, 17879, Note_on_c, 0, 76, 0
2, 17880, Note_on_c, 0, 75, 77
2, 17903, Note_on_c, 0, 75, 0
2, 17904, Note_on_c, 0, 76, 77
2, 17927, Note_on_c, 0, 76, 0
2, 17928, Note_on_c, 0, 78, 77
2, 17951, Note_on_c, 0, 78, 0
2, 17952, Note_on_c, 0, 79, 77
2, 17975, Note_on_c, 0, 79, 0
2, 17976, Note_on_c, 0, 76, 77
2, 17999, Note_on_c, 0, 76, 0
2, 18000, Note_on_c, 0, 74, 77
2, 18023, Note_on_c, 0, 74, 0
2, 18024, Note_on_c, 0, 72, 77
2, 18047, Note_on_c, 0, 72, 0
2, 18048, Note_on_c, 0, 74, 77
2, 18093, Note_on_c, 0, 74, 0
2, 18096, Note_on_c, 0, 79, 79
2, 18119, Note_on_c, 0, 79, 0
2, 18120, Note_on_c, 0, 83, 81
2, 18143, Note_on_c, 0, 83, 0
2, 18144, Note_on_c, 0, 86, 82
2, 18164, Note_on_c, 0, 86, 0
2, 18192, Note_on_c, 0, 74, 85
2, 18192, Note_on_c, 0, 71, 85
2, 18237, Note_on_c, 0, 74, 0
2, 18237, Note_on_c, 0, 71, 0
2, 18240, Note_on_c, 0, 74, 85
2, 18240, Note_on_c, 0, 71, 85
2, 18264, Note_on_c, 0, 74, 0
2, 18264, Note_on_c, 0, 71, 0
2, 18264, Note_on_c, 0, 72, 84
2, 18264, Note_on_c, 0, 69, 84
2, 18287, Note_on_c, 0, 72, 0
2, 18287, Note_on_c, 0, 69, 0
2, 18288, Note_on_c, 0, 71, 83
2, 18288, Note_on_c, 0, 67, 83
2, 18377, Note_on_c, 0, 71, 0
2, 18377, Note_on_c, 0, 67, 0
2, 18384, Note_on_c, 0, 69, 79
2, 18384, Note_on_c, 0, 66, 79
2, 18429, Note_on_c, 0, 69, 0
2, 18429, Note_on_c, 0, 66, 0
2, 18432, Note_on_c, 0, 67, 77
2, 18521, Note_on_c, 0, 67, 0
2, 18576, Note_on_c, 0, 74, 77
2, 18621, Note_on_c, 0, 74, 0
2, 18624, Note_on_c, 0, 79, 77
2, 18647, Note_on_c, 0, 79, 0
2, 18648, Note_on_c, 0, 78, 76
2, 18671, Note_on_c, 0, 78, 0
2, 18672, Note_on_c, 0, 76, 75
2, 18695, Note_on_c, 0, 76, 0
2, 18696, Note_on_c, 0, 74, 74
2, 18719, Note_on_c, 0, 74, 0
2, 18720, Note_on_c, 0, 72, 73
2, 18743, Note_on_c, 0, 72, 0
2, 18744, Note_on_c, 0, 71, 72
2, 18767, Note_on_c, 0, 71, 0
2, 18768, Note_on_c, 0, 69, 71
2, 18791, Note_on_c, 0, 69, 0
2, 18792, Note_on_c, 0, 67, 70
2, 18815, Note_on_c, 0, 67, 0
2, 18816, Note_on_c, 0, 66, 69
2, 18839, Note_on_c, 0, 66, 0
2, 18840, Note_on_c, 0, 62, 70
2, 18863, Note_on_c, 0, 62, 0
2, 18864, Note_on_c, 0, 67, 71
2, 18887, Note_on_c, 0, 67, 0
2, 18888, Note_on_c, 0, 62, 72
2, 18911, Note_on_c, 0, 62, 0
2, 18912, Note_on_c, 0, 62, 73
2, 18935, Note_on_c, 0, 62, 0
2, 18936, Note_on_c, 0, 69, 74
2, 18959, Note_on_c, 0, 69, 0
2, 18960, Note_on_c, 0, 62, 75
2, 18983, Note_on_c, 0, 62, 0
2, 18984, Note_on_c, 0, 71, 76
2, 19007, Note_on_c, 0, 71, 0
2, 19008, Note_on_c, 0, 72, 77
2, 19031, Note_on_c, 0, 72, 0
2, 19032, Note_on_c, 0, 71, 76
2, 19055, Note_on_c, 0, 71, 0
2, 19056, Note_on_c, 0, 69, 75
2, 19079, Note_on_c, 0, 69, 0
2, 19080, Note_on_c, 0, 67, 75
2, 19103, Note_on_c, 0, 67, 0
2, 19104, Note_on_c, 0, 66, 74
2, 19127, Note_on_c, 0, 66, 0
2, 19128, Note_on_c, 0, 64, 73
2, 19151, Note_on_c, 0, 64, 0
2, 19152, Note_on_c, 0, 62, 73
2, 19175, Note_on_c, 0, 62, 0
2, 19176, Note_on_c, 0, 60, 72
2, 19199, Note_on_c, 0, 60, 0
2, 19200, Note_on_c, 0, 59, 71
2, 19289, Note_on_c, 0, 59, 0
2, 19344, Note_on_c, 0, 71, 77
2, 19389, Note_on_c, 0, 71, 0
2, 19392, Note_on_c, 0, 83, 77
2, 19415, Note_on_c, 0, 83, 0
2, 19416, Note_on_c, 0, 71, 76
2, 19439, Note_on_c, 0, 71, 0
2, 19440, Note_on_c, 0, 81, 75
2, 19463, Note_on_c, 0, 81, 0
2, 19464, Note_on_c, 0, 71, 74
2, 19487, Note_on_c, 0, 71, 0
2, 19488, Note_on_c, 0, 79, 73
2, 19511, Note_on_c, 0, 79, 0
2, 19512, Note_on_c, 0, 71, 72
2, 19535, Note_on_c, 0, 71, 0
2, 19536, Note_on_c, 0, 78, 71
2, 19559, Note_on_c, 0, 78, 0
2, 19560, Note_on_c, 0, 71, 70
2, 19583, Note_on_c, 0, 71, 0
2, 19584, Note_on_c, 0, 79, 69
2, 19607, Note_on_c, 0, 79, 0
2, 19608, Note_on_c, 0, 71, 70
2, 19631, Note_on_c, 0, 71, 0
2, 19632, Note_on_c, 0, 80, 71
2, 19655, Note_on_c, 0, 80, 0
2, 19656, Note_on_c, 0, 71, 72
2, 19679, Note_on_c, 0, 71, 0
2, 19680, Note_on_c, 0, 81, 73
2, 19703, Note_on_c, 0, 81, 0
2, 19704, Note_on_c, 0, 69, 74
2, 19727, Note_on_c, 0, 69, 0
2, 19728, Note_on_c, 0, 79, 75
2, 19751, Note_on_c, 0, 79, 0
2, 19752, Note_on_c, 0, 69, 76
2, 19775, Note_on_c, 0, 69, 0
2, 19776, Note_on_c, 0, 78, 77
2, 19799, Note_on_c, 0, 78, 0
2, 19800, Note_on_c, 0, 69, 76
2, 19823, Note_on_c, 0, 69, 0
2, 19824, Note_on_c, 0, 79, 75
2, 19847, Note_on_c, 0, 79, 0
2, 19848, Note_on_c, 0, 76, 75
2, 19871, Note_on_c, 0, 76, 0
2, 19872, Note_on_c, 0, 78, 74
2, 19895, Note_on_c, 0, 78, 0
2, 19896, Note_on_c, 0, 74, 73
2, 19919, Note_on_c, 0, 74, 0
2, 19920, Note_on_c, 0, 76, 73
2, 19943, Note_on_c, 0, 76, 0
2, 19944, Note_on_c, 0, 73, 72
2, 19967, Note_on_c, 0, 73, 0
2, 19968, Note_on_c, 0, 74, 71
2, 20057, Note_on_c, 0, 74, 0
2, 20112, Note_on_c, 0, 74, 77
2, 20157, Note_on_c, 0, 74, 0
2, 20160, Note_on_c, 0, 79, 77
2, 20183, Note_on_c, 0, 79, 0
2, 20184, Note_on_c, 0, 78, 76
2, 20207, Note_on_c, 0, 78, 0
2, 20208, Note_on_c, 0, 76, 75
2, 20231, Note_on_c, 0, 76, 0
2, 20232, Note_on_c, 0, 74, 74
2, 20255, Note_on_c, 0, 74, 0
2, 20256, Note_on_c, 0, 72, 73
2, 20279, Note_on_c, 0, 72, 0
2, 20280, Note_on_c, 0, 71, 72
2, 20303, Note_on_c, 0, 71, 0
2, 20304, Note_on_c, 0, 69, 71
2, 20327, Note_on_c, 0, 69, 0
2, 20328, Note_on_c, 0, 67, 70
2, 20351, Note_on_c, 0, 67, 0
2, 20352, Note_on_c, 0, 66, 69
2, 20375, Note_on_c, 0, 66, 0
2, 20376, Note_on_c, 0, 62, 70
2, 20399, Note_on_c, 0, 62, 0
2, 20400, Note_on_c, 0, 67, 71
2, 20423, Note_on_c, 0, 67, 0
2, 20424, Note_on_c, 0, 62, 72
2, 20447, Note_on_c, 0, 62, 0
2, 20448, Note_on_c, 0, 62, 73
2, 20471, Note_on_c, 0, 62, 0
2, 20472, Note_on_c, 0, 69, 74
2, 20495, Note_on_c, 0, 69, 0
2, 20496, Note_on_c, 0, 62, 75
2, 20519, Note_on_c, 0, 62, 0
2, 20520, Note_on_c, 0, 71, 76
2, 20543, Note_on_c, 0, 71, 0
2, 20544, Note_on_c, 0, 72, 77
2, 20567, Note_on_c, 0, 72, 0
2, 20568, Note_on_c, 0, 71, 76
2, 20591, Note_on_c, 0, 71, 0
2, 20592, Note_on_c, 0, 69, 75
2, 20615, Note_on_c, 0, 69, 0
2, 20616, Note_on_c, 0, 67, 75
2, 20639, Note_on_c, 0, 67, 0
2, 20640, Note_on_c, 0, 66, 74
2, 20663, Note_on_c, 0, 66, 0
2, 20664, Note_on_c, 0, 64, 73
2, 20687, Note_on_c, 0, 64, 0
2, 20688, Note_on_c, 0, 62, 73
2, 20711, Note_on_c, 0, 62, 0
2, 20712, Note_on_c, 0, 60, 72
2, 20735, Note_on_c, 0, 60, 0
2, 20736, Note_on_c, 0, 59, 71
2, 20825, Note_on_c, 0, 59, 0
2, 20880, Note_on_c, 0, 71, 77
2, 20925, Note_on_c, 0, 71, 0
2, 20928, Note_on_c, 0, 83, 77
2, 20951, Note_on_c, 0, 83, 0
2, 20952, Note_on_c, 0, 71, 76
2, 20975, Note_on_c, 0, 71, 0
2, 20976, Note_on_c, 0, 81, 75
2, 20999, Note_on_c, 0, 81, 0
2, 21000, Note_on_c, 0, 71, 74
2, 21023, Note_on_c, 0, 71, 0
2, 21024, Note_on_c, 0, 79, 73
2, 21047, Note_on_c, 0, 79, 0
2, 21048, Note_on_c, 0, 71, 72
2, 21071, Note_on_c, 0, 71, 0
2, 21072, Note_on_c, 0, 78, 71
2, 21095, Note_on_c, 0, 78, 0
2, 21096, Note_on_c, 0, 71, 70
2, 21119, Note_on_c, 0, 71, 0
2, 21120, Note_on_c, 0, 79, 69
2, 21143, Note_on_c, 0, 79, 0
2, 21144, Note_on_c, 0, 71, 70
2, 21167, Note_on_c, 0, 71, 0
2, 21168, Note_on_c, 0, 80, 71
2, 21191, Note_on_c, 0, 80, 0
2, 21192, Note_on_c, 0, 71, 72
2, 21215, Note_on_c, 0, 71, 0
2, 21216, Note_on_c, 0, 81, 73
2, 21239, Note_on_c, 0, 81, 0
2, 21240, Note_on_c, 0, 69, 74
2, 21263, Note_on_c, 0, 69, 0
2, 21264, Note_on_c, 0, 79, 75
2, 21287, Note_on_c, 0, 79, 0
2, 21288, Note_on_c, 0, 69, 76
2, 21311, Note_on_c, 0, 69, 0
2, 21312, Note_on_c, 0, 78, 77
2, 21335, Note_on_c, 0, 78, 0
2, 21336, Note_on_c, 0, 69, 76
2, 21359, Note_on_c, 0, 69, 0
2, 21360, Note_on_c, 0, 79, 75
2, 21383, Note_on_c, 0, 79, 0
2, 21384, Note_on_c, 0, 76, 75
2, 21407, Note_on_c, 0, 76, 0
2, 21408, Note_on_c, 0, 78, 74
2, 21431, Note_on_c, 0, 78, 0
2, 21432, Note_on_c, 0, 74, 73
2, 21455, Note_on_c, 0, 74, 0
2, 21456, Note_on_c, 0, 76, 73
2, 21479, Note_on_c, 0, 76, 0
2, 21480, Note_on_c, 0, 73, 72
2, 21503, Note_on_c, 0, 73, 0
2, 21504, Note_on_c, 0, 74, 71
2, 21593, Note_on_c, 0, 74, 0
2, 21648, Note_on_c, 0, 74, 69
2, 21693, Note_on_c, 0, 74, 0
2, 21696, Note_on_c, 0, 86, 77
2, 21719, Note_on_c, 0, 86, 0
2, 21720, Note_on_c, 0, 74, 75
2, 21743, Note_on_c, 0, 74, 0
2, 21744, Note_on_c, 0, 84, 74
2, 21767, Note_on_c, 0, 84, 0
2, 21768, Note_on_c, 0, 74, 73
2, 21791, Note_on_c, 0, 74, 0
2, 21792, Note_on_c, 0, 83, 72
2, 21812, Note_on_c, 0, 83, 0
2, 21840, Note_on_c, 0, 80, 70
2, 21863, Note_on_c, 0, 80, 0
2, 21864, Note_on_c, 0, 76, 69
2, 21887, Note_on_c, 0, 76, 0
2, 21888, Note_on_c, 0, 81, 70
2, 21911, Note_on_c, 0, 81, 0
2, 21912, Note_on_c, 0, 76, 71
2, 21935, Note_on_c, 0, 76, 0
2, 21936, Note_on_c, 0, 83, 72
2, 21959, Note_on_c, 0, 83, 0
2, 21960, Note_on_c, 0, 76, 73
2, 21983, Note_on_c, 0, 76, 0
2, 21984, Note_on_c, 0, 84, 74
2, 22004, Note_on_c, 0, 84, 0
2, 22032, Note_on_c, 0, 72, 77
2, 22077, Note_on_c, 0, 72, 0
2, 22080, Note_on_c, 0, 84, 77
2, 22103, Note_on_c, 0, 84, 0
2, 22104, Note_on_c, 0, 72, 75
2, 22127, Note_on_c, 0, 72, 0
2, 22128, Note_on_c, 0, 83, 74
2, 22151, Note_on_c, 0, 83, 0
2, 22152, Note_on_c, 0, 72, 73
2, 22175, Note_on_c, 0, 72, 0
2, 22176, Note_on_c, 0, 81, 72
2, 22196, Note_on_c, 0, 81, 0
2, 22224, Note_on_c, 0, 78, 70
2, 22247, Note_on_c, 0, 78, 0
2, 22248, Note_on_c, 0, 74, 69
2, 22271, Note_on_c, 0, 74, 0
2, 22272, Note_on_c, 0, 79, 70
2, 22295, Note_on_c, 0, 79, 0
2, 22296, Note_on_c, 0, 74, 71
2, 22319, Note_on_c, 0, 74, 0
2, 22320, Note_on_c, 0, 81, 72
2, 22343, Note_on_c, 0, 81, 0
2, 22344, Note_on_c, 0, 74, 73
2, 22367, Note_on_c, 0, 74, 0
2, 22368, Note_on_c, 0, 83, 74
2, 22388, Note_on_c, 0, 83, 0
2, 22416, Note_on_c, 0, 74, 77
2, 22439, Note_on_c, 0, 74, 0
2, 22440, Note_on_c, 0, 67, 77
2, 22463, Note_on_c, 0, 67, 0
2, 22464, Note_on_c, 0, 76, 77
2, 22487, Note_on_c, 0, 76, 0
2, 22488, Note_on_c, 0, 67, 77
2, 22511, Note_on_c, 0, 67, 0
2, 22512, Note_on_c, 0, 77, 77
2, 22535, Note_on_c, 0, 77, 0
2, 22536, Note_on_c, 0, 67, 77
2, 22559, Note_on_c, 0, 67, 0
2, 22560, Note_on_c, 0, 76, 78
2, 22580, Note_on_c, 0, 76, 0
2, 22608, Note_on_c, 0, 76, 78
2, 22631, Note_on_c, 0, 76, 0
2, 22632, Note_on_c, 0, 69, 79
2, 22655, Note_on_c, 0, 69, 0
2, 22656, Note_on_c, 0, 78, 79
2, 22679, Note_on_c, 0, 78, 0
2, 22680, Note_on_c, 0, 69, 79
2, 22703, Note_on_c, 0, 69, 0
2, 22704, Note_on_c, 0, 79, 80
2, 22727, Note_on_c, 0, 79, 0
2, 22728, Note_on_c, 0, 69, 80
2, 22751, Note_on_c, 0, 69, 0
2, 22752, Note_on_c, 0, 78, 80
2, 22772, Note_on_c, 0, 78, 0
2, 22800, Note_on_c, 0, 78, 81
2, 22823, Note_on_c, 0, 78, 0
2, 22824, Note_on_c, 0, 71, 81
2, 22847, Note_on_c, 0, 71, 0
2, 22848, Note_on_c, 0, 79, 82
2, 22871, Note_on_c, 0, 79, 0
2, 22872, Note_on_c, 0, 71, 82
2, 22895, Note_on_c, 0, 71, 0
2, 22896, Note_on_c, 0, 72, 82
2, 22919, Note_on_c, 0, 72, 0
2, 22920, Note_on_c, 0, 81, 83
2, 22943, Note_on_c, 0, 81, 0
2, 22944, Note_on_c, 0, 72, 83
2, 22989, Note_on_c, 0, 72, 0
2, 22992, Note_on_c, 0, 71, 84
2, 23037, Note_on_c, 0, 71, 0
2, 23040, Note_on_c, 0, 72, 84
2, 23055, Note_on_c, 0, 72, 0
2, 23056, Note_on_c, 0, 71, 85
2, 23071, Note_on_c, 0, 71, 0
2, 23072, Note_on_c, 0, 72, 85
2, 23087, Note_on_c, 0, 72, 0
2, 23088, Note_on_c, 0, 71, 85
2, 23103, Note_on_c, 0, 71, 0
2, 23104, Note_on_c, 0, 69, 85
2, 23119, Note_on_c, 0, 69, 0
2, 23120, Note_on_c, 0, 71, 85
2, 23135, Note_on_c, 0, 71, 0
2, 23136, Note_on_c, 0, 69, 85
2, 23181, Note_on_c, 0, 69, 0
2, 23184, Note_on_c, 0, 74, 77
2, 23229, Note_on_c, 0, 74, 0
2, 23232, Note_on_c, 0, 79, 77
2, 23255, Note_on_c, 0, 79, 0
2, 23256, Note_on_c, 0, 78, 76
2, 23279, Note_on_c, 0, 78, 0
2, 23280, Note_on_c, 0, 76, 75
2, 23303, Note_on_c, 0, 76, 0
2, 23304, Note_on_c, 0, 74, 74
2, 23327, Note_on_c, 0, 74, 0
2, 23328, Note_on_c, 0, 72, 73
2, 23351, Note_on_c, 0, 72, 0
2, 23352, Note_on_c, 0, 71, 72
2, 23375, Note_on_c, 0, 71, 0
2, 23376, Note_on_c, 0, 69, 71
2, 23399, Note_on_c, 0, 69, 0
2, 23400, Note_on_c, 0, 67, 70
2, 23423, Note_on_c, 0, 67, 0
2, 23424, Note_on_c, 0, 66, 69
2, 23447, Note_on_c, 0, 66, 0
2, 23448, Note_on_c, 0, 62, 70
2, 23471, Note_on_c, 0, 62, 0
2, 23472, Note_on_c, 0, 67, 71
2, 23495, Note_on_c, 0, 67, 0
2, 23496, Note_on_c, 0, 62, 72
2, 23519, Note_on_c, 0, 62, 0
2, 23520, Note_on_c, 0, 62, 73
2, 23543, Note_on_c, 0, 62, 0
2, 23544, Note_on_c, 0, 69, 74
2, 23567, Note_on_c, 0, 69, 0
2, 23568, Note_on_c, 0, 62, 75
2, 23591, Note_on_c, 0, 62, 0
2, 23592, Note_on_c, 0, 71, 76
2, 23615, Note_on_c, 0, 71, 0
2, 23616, Note_on_c, 0, 72, 77
2, 23639, Note_on_c, 0, 72, 0
2, 23640, Note_on_c, 0, 71, 76
2, 23663, Note_on_c, 0, 71, 0
2, 23664, Note_on_c, 0, 69, 75
2, 23687, Note_on_c, 0, 69, 0
2, 23688, Note_on_c, 0, 67, 74
2, 23711, Note_on_c, 0, 67, 0
2, 23712, Note_on_c, 0, 66, 73
2, 23735, Note_on_c, 0, 66, 0
2, 23736, Note_on_c, 0, 64, 72
2, 23759, Note_on_c, 0, 64, 0
2, 23760, Note_on_c, 0, 62, 71
2, 23783, Note_on_c, 0, 62, 0
2, 23784, Note_on_c, 0, 60, 70
2, 23807, Note_on_c, 0, 60, 0
2, 23808, Note_on_c, 0, 59, 69
2, 23831, Note_on_c, 0, 59, 0
2, 23832, Note_on_c, 0, 55, 70
2, 23855, Note_on_c, 0, 55, 0
2, 23856, Note_on_c, 0, 60, 71
2, 23879, Note_on_c, 0, 60, 0
2, 23880, Note_on_c, 0, 55, 72
2, 23903, Note_on_c, 0, 55, 0
2, 23904, Note_on_c, 0, 62, 73
2, 23927, Note_on_c, 0, 62, 0
2, 23928, Note_on_c, 0, 55, 74
2, 23951, Note_on_c, 0, 55, 0
2, 23952, Note_on_c, 0, 59, 75
2, 23975, Note_on_c, 0, 59, 0
2, 23976, Note_on_c, 0, 55, 76
2, 23999, Note_on_c, 0, 55, 0
2, 24000, Note_on_c, 0, 64, 77
2, 24023, Note_on_c, 0, 64, 0
2, 24024, Note_on_c, 0, 55, 78
2, 24047, Note_on_c, 0, 55, 0
2, 24048, Note_on_c, 0, 63, 79
2, 24071, Note_on_c, 0, 63, 0
2, 24072, Note_on_c, 0, 55, 80
2, 24095, Note_on_c, 0, 55, 0
2, 24096, Note_on_c, 0, 64, 81
2, 24119, Note_on_c, 0, 64, 0
2, 24120, Note_on_c, 0, 55, 82
2, 24143, Note_on_c, 0, 55, 0
2, 24144, Note_on_c, 0, 66, 83
2, 24167, Note_on_c, 0, 66, 0
2, 24168, Note_on_c, 0, 55, 84
2, 24191, Note_on_c, 0, 55, 0
2, 24192, Note_on_c, 0, 67, 85
2, 24215, Note_on_c, 0, 67, 0
2, 24216, Note_on_c, 0, 66, 84
2, 24239, Note_on_c, 0, 66, 0
2, 24240, Note_on_c, 0, 64, 84
2, 24263, Note_on_c, 0, 64, 0
2, 24264, Note_on_c, 0, 62, 83
2, 24287, Note_on_c, 0, 62, 0
2, 24288, Note_on_c, 0, 60, 83
2, 24311, Note_on_c, 0, 60, 0
2, 24312, Note_on_c, 0, 59, 82
2, 24335, Note_on_c, 0, 59, 0
2, 24336, Note_on_c, 0, 57, 82
2, 24359, Note_on_c, 0, 57, 0
2, 24360, Note_on_c, 0, 55, 81
2, 24383, Note_on_c, 0, 55, 0
2, 24384, Note_on_c, 0, 57, 81
2, 24429, Note_on_c, 0, 57, 0
2, 24432, Note_on_c, 0, 60, 80
2, 24455, Note_on_c, 0, 60, 0
2, 24456, Note_on_c, 0, 57, 79
2, 24479, Note_on_c, 0, 57, 0
2, 24480, Note_on_c, 0, 59, 79
2, 24503, Note_on_c, 0, 59, 0
2, 24504, Note_on_c, 0, 55, 78
2, 24527, Note_on_c, 0, 55, 0
2, 24528, Note_on_c, 0, 57, 78
2, 24551, Note_on_c, 0, 57, 0
2, 24552, Note_on_c, 0, 54, 77
2, 24575, Note_on_c, 0, 54, 0
2, 24576, Note_on_c, 0, 55, 77
2, 24665, Note_on_c, 0, 55, 0
2, 24720, Note_on_c, 0, 71, 77
2, 24765, Note_on_c, 0, 71, 0
2, 24768, Note_on_c, 0, 86, 77
2, 24791, Note_on_c, 0, 86, 0
2, 24792, Note_on_c, 0, 74, 75
2, 24815, Note_on_c, 0, 74, 0
2, 24816, Note_on_c, 0, 84, 74
2, 24839, Note_on_c, 0, 84, 0
2, 24840, Note_on_c, 0, 74, 73
2, 24863, Note_on_c, 0, 74, 0
2, 24864, Note_on_c, 0, 83, 72
2, 24884, Note_on_c, 0, 83, 0
2, 24912, Note_on_c, 0, 80, 70
2, 24935, Note_on_c, 0, 80, 0
2, 24936, Note_on_c, 0, 76, 69
2, 24959, Note_on_c, 0, 76, 0
2, 24960, Note_on_c, 0, 81, 70
2, 24983, Note_on_c, 0, 81, 0
2, 24984, Note_on_c, 0, 76, 71
2, 25007, Note_on_c, 0, 76, 0
2, 25008, Note_on_c, 0, 83, 72
2, 25031, Note_on_c, 0, 83, 0
2, 25032, Note_on_c, 0, 76, 73
2, 25055, Note_on_c, 0, 76, 0
2, 25056, Note_on_c, 0, 84, 74
2, 25076, Note_on_c, 0, 84, 0
2, 25104, Note_on_c, 0, 72, 77
2, 25149, Note_on_c, 0, 72, 0
2, 25152, Note_on_c, 0, 84, 77
2, 25175, Note_on_c, 0, 84, 0
2, 25176, Note_on_c, 0, 72, 75
2, 25199, Note_on_c, 0, 72, 0
2, 25200, Note_on_c, 0, 83, 74
2, 25223, Note_on_c, 0, 83, 0
2, 25224, Note_on_c, 0, 72, 73
2, 25247, Note_on_c, 0, 72, 0
2, 25248, Note_on_c, 0, 81, 72
2, 25268, Note_on_c, 0, 81, 0
2, 25296, Note_on_c, 0, 78, 70
2, 25319, Note_on_c, 0, 78, 0
2, 25320, Note_on_c, 0, 74, 69
2, 25343, Note_on_c, 0, 74, 0
2, 25344, Note_on_c, 0, 79, 70
2, 25367, Note_on_c, 0, 79, 0
2, 25368, Note_on_c, 0, 74, 71
2, 25391, Note_on_c, 0, 74, 0
2, 25392, Note_on_c, 0, 81, 72
2, 25415, Note_on_c, 0, 81, 0
2, 25416, Note_on_c, 0, 74, 73
2, 25439, Note_on_c, 0, 74, 0
2, 25440, Note_on_c, 0, 83, 74
2, 25460, Note_on_c, 0, 83, 0
2, 25488, Note_on_c, 0, 74, 77
2, 25511, Note_on_c, 0, 74, 0
2, 25512, Note_on_c, 0, 67, 77
2, 25535, Note_on_c, 0, 67, 0
2, 25536, Note_on_c, 0, 76, 77
2, 25559, Note_on_c, 0, 76, 0
2, 25560, Note_on_c, 0, 67, 77
2, 25583, Note_on_c, 0, 67, 0
2, 25584, Note_on_c, 0, 77, 77
2, 25607, Note_on_c, 0, 77, 0
2, 25608, Note_on_c, 0, 67, 77
2, 25631, Note_on_c, 0, 67, 0
2, 25632, Note_on_c, 0, 76, 78
2, 25652, Note_on_c, 0, 76, 0
2, 25680, Note_on_c, 0, 76, 78
2, 25703, Note_on_c, 0, 76, 0
2, 25704, Note_on_c, 0, 69, 79
2, 25727, Note_on_c, 0, 69, 0
2, 25728, Note_on_c, 0, 78, 79
2, 25751, Note_on_c, 0, 78, 0
2, 25752, Note_on_c, 0, 69, 79
2, 25775, Note_on_c, 0, 69, 0
2, 25776, Note_on_c, 0, 79, 80
2, 25799, Note_on_c, 0, 79, 0
2, 25800, Note_on_c, 0, 69, 80
2, 25823, Note_on_c, 0, 69, 0
2, 25824, Note_on_c, 0, 78, 80
2, 25844, Note_on_c, 0, 78, 0
2, 25872, Note_on_c, 0, 78, 81
2, 25895, Note_on_c, 0, 78, 0
2, 25896, Note_on_c, 0, 71, 81
2, 25919, Note_on_c, 0, 71, 0
2, 25920, Note_on_c, 0, 79, 82
2, 25943, Note_on_c, 0, 79, 0
2, 25944, Note_on_c, 0, 71, 82
2, 25967, Note_on_c, 0, 71, 0
2, 25968, Note_on_c, 0, 72, 82
2, 25991, Note_on_c, 0, 72, 0
2, 25992, Note_on_c, 0, 81, 83
2, 26015, Note_on_c, 0, 81, 0
2, 26016, Note_on_c, 0, 72, 83
2, 26061, Note_on_c, 0, 72, 0
2, 26064, Note_on_c, 0, 71, 84
2, 26109, Note_on_c, 0, 71, 0
2, 26112, Note_on_c, 0, 72, 84
2, 26127, Note_on_c, 0, 72, 0
2, 26128, Note_on_c, 0, 71, 85
2, 26143, Note_on_c, 0, 71, 0
2, 26144, Note_on_c, 0, 72, 85
2, 26159, Note_on_c, 0, 72, 0
2, 26160, Note_on_c, 0, 71, 85
2, 26175, Note_on_c, 0, 71, 0
2, 26176, Note_on_c, 0, 69, 85
2, 26191, Note_on_c, 0, 69, 0
2, 26192, Note_on_c, 0, 71, 85
2, 26207, Note_on_c, 0, 71, 0
2, 26208, Note_on_c, 0, 69, 85
2, 26253, Note_on_c, 0, 69, 0
2, 26256, Note_on_c, 0, 74, 77
2, 26301, Note_on_c, 0, 74, 0
2, 26304, Note_on_c, 0, 79, 77
2, 26327, Note_on_c, 0, 79, 0
2, 26328, Note_on_c, 0, 78, 76
2, 26351, Note_on_c, 0, 78, 0
2, 26352, Note_on_c, 0, 76, 75
2, 26375, Note_on_c, 0, 76, 0
2, 26376, Note_on_c, 0, 74, 74
2, 26399, Note_on_c, 0, 74, 0
2, 26400, Note_on_c, 0, 72, 73
2, 26423, Note_on_c, 0, 72, 0
2, 26424, Note_on_c, 0, 71, 72
2, 26447, Note_on_c, 0, 71, 0
2, 26448, Note_on_c, 0, 69, 71
2, 26471, Note_on_c, 0, 69, 0
2, 26472, Note_on_c, 0, 67, 70
2, 26495, Note_on_c, 0, 67, 0
2, 26496, Note_on_c, 0, 66, 69
2, 26519, Note_on_c, 0, 66, 0
2, 26520, Note_on_c, 0, 62, 70
2, 26543, Note_on_c, 0, 62, 0
2, 26544, Note_on_c, 0, 67, 71
2, 26567, Note_on_c, 0, 67, 0
2, 26568, Note_on_c, 0, 62, 72
2, 26591, Note_on_c, 0, 62, 0
2, 26592, Note_on_c, 0, 62, 73
2, 26615, Note_on_c, 0, 62, 0
2, 26616, Note_on_c, 0, 69, 74
2, 26639, Note_on_c, 0, 69, 0
2, 26640, Note_on_c, 0, 62, 75
2, 26663, Note_on_c, 0, 62, 0
2, 26664, Note_on_c, 0, 71, 76
2, 26687, Note_on_c, 0, 71, 0
2, 26688, Note_on_c, 0, 72, 77
2, 26711, Note_on_c, 0, 72, 0
2, 26712, Note_on_c, 0, 71, 76
2, 26735, Note_on_c, 0, 71, 0
2, 26736, Note_on_c, 0, 69, 75
2, 26759, Note_on_c, 0, 69, 0
2, 26760, Note_on_c, 0, 67, 74
2, 26783, Note_on_c, 0, 67, 0
2, 26784, Note_on_c, 0, 66, 73
2, 26807, Note_on_c, 0, 66, 0
2, 26808, Note_on_c, 0, 64, 72
2, 26831, Note_on_c, 0, 64, 0
2, 26832, Note_on_c, 0, 62, 71
2, 26855, Note_on_c, 0, 62, 0
2, 26856, Note_on_c, 0, 60, 70
2, 26879, Note_on_c, 0, 60, 0
2, 26880, Note_on_c, 0, 59, 69
2, 26903, Note_on_c, 0, 59, 0
2, 26904, Note_on_c, 0, 55, 70
2, 26927, Note_on_c, 0, 55, 0
2, 26928, Note_on_c, 0, 60, 71
2, 26951, Note_on_c, 0, 60, 0
2, 26952, Note_on_c, 0, 55, 72
2, 26975, Note_on_c, 0, 55, 0
2, 26976, Note_on_c, 0, 62, 73
2, 26999, Note_on_c, 0, 62, 0
2, 27000, Note_on_c, 0, 55, 74
2, 27023, Note_on_c, 0, 55, 0
2, 27024, Note_on_c, 0, 59, 75
2, 27047, Note_on_c, 0, 59, 0
2, 27048, Note_on_c, 0, 55, 76
2, 27071, Note_on_c, 0, 55, 0
2, 27072, Note_on_c, 0, 64, 77
2, 27095, Note_on_c, 0, 64, 0
2, 27096, Note_on_c, 0, 55, 78
2, 27119, Note_on_c, 0, 55, 0
2, 27120, Note_on_c, 0, 63, 79
2, 27143, Note_on_c, 0, 63, 0
2, 27144, Note_on_c, 0, 55, 80
2, 27167, Note_on_c, 0, 55, 0
2, 27168, Note_on_c, 0, 64, 81
2, 27191, Note_on_c, 0, 64, 0
2, 27192, Note_on_c, 0, 55, 82
2, 27215, Note_on_c, 0, 55, 0
2, 27216, Note_on_c, 0, 66, 83
2, 27239, Note_on_c, 0, 66, 0
2, 27240, Note_on_c, 0, 55, 84
2, 27263, Note_on_c, 0, 55, 0
2, 27264, Note_on_c, 0, 67, 85
2, 27287, Note_on_c, 0, 67, 0
2, 27288, Note_on_c, 0, 66, 84
2, 27311, Note_on_c, 0, 66, 0
2, 27312, Note_on_c, 0, 64, 84
2, 27335, Note_on_c, 0, 64, 0
2, 27336, Note_on_c, 0, 62, 83
2, 27359, Note_on_c, 0, 62, 0
2, 27360, Note_on_c, 0, 60, 83
2, 27383, Note_on_c, 0, 60, 0
2, 27384, Note_on_c, 0, 59, 82
2, 27407, Note_on_c, 0, 59, 0
2, 27408, Note_on_c, 0, 57, 82
2, 27431, Note_on_c, 0, 57, 0
2, 27432, Note_on_c, 0, 55, 81
2, 27455, Note_on_c, 0, 55, 0
2, 27456, Note_on_c, 0, 57, 81
2, 27501, Note_on_c, 0, 57, 0
2, 27504, Note_on_c, 0, 60, 80
2, 27527, Note_on_c, 0, 60, 0
2, 27528, Note_on_c, 0, 57, 79
2, 27551, Note_on_c, 0, 57, 0
2, 27552, Note_on_c, 0, 59, 79
2, 27575, Note_on_c, 0, 59, 0
2, 27576, Note_on_c, 0, 55, 78
2, 27599, Note_on_c, 0, 55, 0
2, 27600, Note_on_c, 0, 57, 78
2, 27623, Note_on_c, 0, 57, 0
2, 27624, Note_on_c, 0, 54, 77
2, 27647, Note_on_c, 0, 54, 0
2, 27648, Note_on_c, 0, 55, 77
2, 27737, Note_on_c, 0, 55, 0
2, 27792, Note_on_c, 0, 62, 77
2, 27837, Note_on_c, 0, 62, 0
2, 27840, Note_on_c, 0, 67, 77
2, 27885, Note_on_c, 0, 67, 0
2, 27888, Note_on_c, 0, 71, 79
2, 27933, Note_on_c, 0, 71, 0
2, 27936, Note_on_c, 0, 74, 81
2, 27981, Note_on_c, 0, 74, 0
2, 27984, Note_on_c, 0, 67, 83
2, 28029, Note_on_c, 0, 67, 0
2, 28032, Note_on_c, 0, 67, 101
2, 28128, Note_on_c, 0, 67, 0
2, 28128, Note_on_c, 0, 66, 81
2, 28173, Note_on_c, 0, 66, 0
2, 28176, Note_on_c, 0, 62, 79
2, 28221, Note_on_c, 0, 62, 0
2, 28224, Note_on_c, 0, 69, 77
2, 28269, Note_on_c, 0, 69, 0
2, 28272, Note_on_c, 0, 72, 79
2, 28317, Note_on_c, 0, 72, 0
2, 28320, Note_on_c, 0, 76, 82
2, 28365, Note_on_c, 0, 76, 0
2, 28368, Note_on_c, 0, 72, 85
2, 28368, Note_on_c, 0, 69, 85
2, 28413, Note_on_c, 0, 72, 0
2, 28413, Note_on_c, 0, 69, 0
2, 28416, Note_on_c, 0, 72, 99
2, 28416, Note_on_c, 0, 69, 99
2, 28512, Note_on_c, 0, 72, 0
2, 28512, Note_on_c, 0, 69, 0
2, 28512, Note_on_c, 0, 71, 79
2, 28512, Note_on_c, 0, 67, 79
2, 28557, Note_on_c, 0, 71, 0
2, 28557, Note_on_c, 0, 67, 0
2, 28560, Note_on_c, 0, 71, 69
2, 28605, Note_on_c, 0, 71, 0
2, 28608, Note_on_c, 0, 83, 69
2, 28656, Note_on_c, 0, 83, 0
2, 28656, Note_on_c, 0, 79, 69
2, 28701, Note_on_c, 0, 79, 0
2, 28704, Note_on_c, 0, 75, 69
2, 28752, Note_on_c, 0, 75, 0
2, 28752, Note_on_c, 0, 76, 69
2, 28797, Note_on_c, 0, 76, 0
2, 28800, Note_on_c, 0, 81, 69
2, 28848, Note_on_c, 0, 81, 0
2, 28848, Note_on_c, 0, 78, 69
2, 28893, Note_on_c, 0, 78, 0
2, 28896, Note_on_c, 0, 73, 69
2, 28944, Note_on_c, 0, 73, 0
2, 28944, Note_on_c, 0, 74, 69
2, 28989, Note_on_c, 0, 74, 0
2, 28992, Note_on_c, 0, 76, 69
2, 29037, Note_on_c, 0, 76, 0
2, 29040, Note_on_c, 0, 79, 85
2, 29136, Note_on_c, 0, 79, 0
2, 29136, Note_on_c, 0, 73, 69
2, 29181, Note_on_c, 0, 73, 0
2, 29184, Note_on_c, 0, 74, 69
2, 29196, Note_on_c, 0, 74, 0
2, 29196, Note_on_c, 0, 72, 69
2, 29208, Note_on_c, 0, 72, 0
2, 29208, Note_on_c, 0, 74, 69
2, 29275, Note_on_c, 0, 74, 0
2, 29328, Note_on_c, 0, 62, 77
2, 29373, Note_on_c, 0, 62, 0
2, 29376, Note_on_c, 0, 67, 77
2, 29421, Note_on_c, 0, 67, 0
2, 29424, Note_on_c, 0, 70, 79
2, 29469, Note_on_c, 0, 70, 0
2, 29472, Note_on_c, 0, 74, 81
2, 29517, Note_on_c, 0, 74, 0
2, 29520, Note_on_c, 0, 67, 83
2, 29565, Note_on_c, 0, 67, 0
2, 29568, Note_on_c, 0, 67, 101
2, 29664, Note_on_c, 0, 67, 0
2, 29664, Note_on_c, 0, 66, 81
2, 29709, Note_on_c, 0, 66, 0
2, 29712, Note_on_c, 0, 62, 79
2, 29757, Note_on_c, 0, 62, 0
2, 29760, Note_on_c, 0, 69, 77
2, 29805, Note_on_c, 0, 69, 0
2, 29808, Note_on_c, 0, 72, 79
2, 29853, Note_on_c, 0, 72, 0
2, 29856, Note_on_c, 0, 75, 81
2, 29901, Note_on_c, 0, 75, 0
2, 29904, Note_on_c, 0, 72, 83
2, 29904, Note_on_c, 0, 69, 83
2, 29949, Note_on_c, 0, 72, 0
2, 29949, Note_on_c, 0, 69, 0
2, 29952, Note_on_c, 0, 72, 101
2, 29952, Note_on_c, 0, 69, 101
2, 30048, Note_on_c, 0, 72, 0
2, 30048, Note_on_c, 0, 69, 0
2, 30048, Note_on_c, 0, 70, 79
2, 30048, Note_on_c, 0, 67, 79
2, 30093, Note_on_c, 0, 70, 0
2, 30093, Note_on_c, 0, 67, 0
2, 30096, Note_on_c, 0, 67, 69
2, 30141, Note_on_c, 0, 67, 0
2, 30144, Note_on_c, 0, 70, 69
2, 30189, Note_on_c, 0, 70, 0
2, 30192, Note_on_c, 0, 74, 69
2, 30237, Note_on_c, 0, 74, 0
2, 30240, Note_on_c, 0, 75, 69
2, 30285, Note_on_c, 0, 75, 0
2, 30288, Note_on_c, 0, 82, 69
2, 30333, Note_on_c, 0, 82, 0
2, 30336, Note_on_c, 0, 81, 69
2, 30381, Note_on_c, 0, 81, 0
2, 30384, Note_on_c, 0, 73, 69
2, 30429, Note_on_c, 0, 73, 0
2, 30432, Note_on_c, 0, 74, 69
2, 30477, Note_on_c, 0, 74, 0
2, 30480, Note_on_c, 0, 81, 69
2, 30480, Note_on_c, 0, 77, 69
2, 30525, Note_on_c, 0, 81, 0
2, 30525, Note_on_c, 0, 77, 0
2, 30528, Note_on_c, 0, 79, 69
2, 30528, Note_on_c, 0, 76, 69
2, 30573, Note_on_c, 0, 79, 0
2, 30573, Note_on_c, 0, 76, 0
2, 30576, Note_on_c, 0, 77, 85
2, 30576, Note_on_c, 0, 74, 85
2, 30672, Note_on_c, 0, 77, 0
2, 30672, Note_on_c, 0, 74, 0
2, 30672, Note_on_c, 0, 76, 69
2, 30672, Note_on_c, 0, 73, 69
2, 30717, Note_on_c, 0, 76, 0
2, 30717, Note_on_c, 0, 73, 0
2, 30720, Note_on_c, 0, 74, 69
2, 30809, Note_on_c, 0, 74, 0
2, 30864, Note_on_c, 0, 74, 77
2, 30909, Note_on_c, 0, 74, 0
2, 30912, Note_on_c, 0, 77, 77
2, 30957, Note_on_c, 0, 77, 0
2, 30960, Note_on_c, 0, 68, 77
2, 31005, Note_on_c, 0, 68, 0
2, 31008, Note_on_c, 0, 67, 77
2, 31053, Note_on_c, 0, 67, 0
2, 31056, Note_on_c, 0, 74, 77
2, 31101, Note_on_c, 0, 74, 0
2, 31104, Note_on_c, 0, 65, 77
2, 31200, Note_on_c, 0, 65, 0
2, 31200, Note_on_c, 0, 63, 77
2, 31245, Note_on_c, 0, 63, 0
2, 31248, Note_on_c, 0, 75, 77
2, 31293, Note_on_c, 0, 75, 0
2, 31296, Note_on_c, 0, 67, 77
2, 31392, Note_on_c, 0, 67, 0
2, 31392, Note_on_c, 0, 66, 78
2, 31437, Note_on_c, 0, 66, 0
2, 31440, Note_on_c, 0, 81, 79
2, 31485, Note_on_c, 0, 81, 0
2, 31488, Note_on_c, 0, 72, 79
2, 31584, Note_on_c, 0, 72, 0
2, 31584, Note_on_c, 0, 70, 81
2, 31629, Note_on_c, 0, 70, 0
2, 31632, Note_on_c, 0, 74, 82
2, 31677, Note_on_c, 0, 74, 0
2, 31680, Note_on_c, 0, 75, 82
2, 31725, Note_on_c, 0, 75, 0
2, 31728, Note_on_c, 0, 79, 83
2, 31773, Note_on_c, 0, 79, 0
2, 31776, Note_on_c, 0, 82, 84
2, 31821, Note_on_c, 0, 82, 0
2, 31824, Note_on_c, 0, 74, 85
2, 31869, Note_on_c, 0, 74, 0
2, 31872, Note_on_c, 0, 73, 84
2, 31968, Note_on_c, 0, 73, 0
2, 31968, Note_on_c, 0, 74, 82
2, 32013, Note_on_c, 0, 74, 0
2, 32016, Note_on_c, 0, 72, 82
2, 32061, Note_on_c, 0, 72, 0
2, 32064, Note_on_c, 0, 70, 81
2, 32109, Note_on_c, 0, 70, 0
2, 32112, Note_on_c, 0, 67, 80
2, 32157, Note_on_c, 0, 67, 0
2, 32160, Note_on_c, 0, 69, 79
2, 32205, Note_on_c, 0, 69, 0
2, 32208, Note_on_c, 0, 66, 79
2, 32253, Note_on_c, 0, 66, 0
2, 32256, Note_on_c, 0, 67, 78
2, 32345, Note_on_c, 0, 67, 0
2, 32400, Note_on_c, 0, 74, 77
2, 32445, Note_on_c, 0, 74, 0
2, 32448, Note_on_c, 0, 77, 77
2, 32493, Note_on_c, 0, 77, 0
2, 32496, Note_on_c, 0, 68, 77
2, 32541, Note_on_c, 0, 68, 0
2, 32544, Note_on_c, 0, 67, 77
2, 32589, Note_on_c, 0, 67, 0
2, 32592, Note_on_c, 0, 74, 77
2, 32637, Note_on_c, 0, 74, 0
2, 32640, Note_on_c, 0, 65, 77
2, 32736, Note_on_c, 0, 65, 0
2, 32736, Note_on_c, 0, 63, 77
2, 32781, Note_on_c, 0, 63, 0
2, 32784, Note_on_c, 0, 75, 77
2, 32829, Note_on_c, 0, 75, 0
2, 32832, Note_on_c, 0, 67, 77
2, 32928, Note_on_c, 0, 67, 0
2, 32928, Note_on_c, 0, 66, 78
2, 32973, Note_on_c, 0, 66, 0
2, 32976, Note_on_c, 0, 81, 79
2, 33021, Note_on_c, 0, 81, 0
2, 33024, Note_on_c, 0, 72, 80
2, 33120, Note_on_c, 0, 72, 0
2, 33120, Note_on_c, 0, 70, 81
2, 33165, Note_on_c, 0, 70, 0
2, 33168, Note_on_c, 0, 74, 82
2, 33213, Note_on_c, 0, 74, 0
2, 33216, Note_on_c, 0, 75, 83
2, 33261, Note_on_c, 0, 75, 0
2, 33264, Note_on_c, 0, 79, 84
2, 33309, Note_on_c, 0, 79, 0
2, 33312, Note_on_c, 0, 82, 85
2, 33357, Note_on_c, 0, 82, 0
2, 33360, Note_on_c, 0, 74, 84
2, 33405, Note_on_c, 0, 74, 0
2, 33408, Note_on_c, 0, 73, 83
2, 33504, Note_on_c, 0, 73, 0
2, 33504, Note_on_c, 0, 74, 81
2, 33549, Note_on_c, 0, 74, 0
2, 33552, Note_on_c, 0, 72, 81
2, 33597, Note_on_c, 0, 72, 0
2, 33600, Note_on_c, 0, 70, 80
2, 33645, Note_on_c, 0, 70, 0
2, 33648, Note_on_c, 0, 67, 79
2, 33693, Note_on_c, 0, 67, 0
2, 33696, Note_on_c, 0, 69, 78
2, 33741, Note_on_c, 0, 69, 0
2, 33744, Note_on_c, 0, 66, 77
2, 33789, Note_on_c, 0, 66, 0
2, 33792, Note_on_c, 0, 67, 77
2, 33881, Note_on_c, 0, 67, 0
2, 33936, Note_on_c, 0, 62, 77
2, 33981, Note_on_c, 0, 62, 0
2, 33984, Note_on_c, 0, 67, 77
2, 34029, Note_on_c, 0, 67, 0
2, 34032, Note_on_c, 0, 71, 79
2, 34077, Note_on_c, 0, 71, 0
2, 34080, Note_on_c, 0, 74, 81
2, 34125, Note_on_c, 0, 74, 0
2, 34128, Note_on_c, 0, 67, 83
2, 34173, Note_on_c, 0, 67, 0
2, 34176, Note_on_c, 0, 67, 101
2, 34272, Note_on_c, 0, 67, 0
2, 34272, Note_on_c, 0, 66, 81
2, 34317, Note_on_c, 0, 66, 0
2, 34320, Note_on_c, 0, 62, 79
2, 34365, Note_on_c, 0, 62, 0
2, 34368, Note_on_c, 0, 69, 77
2, 34413, Note_on_c, 0, 69, 0
2, 34416, Note_on_c, 0, 72, 79
2, 34461, Note_on_c, 0, 72, 0
2, 34464, Note_on_c, 0, 76, 81
2, 34509, Note_on_c, 0, 76, 0
2, 34512, Note_on_c, 0, 72, 83
2, 34557, Note_on_c, 0, 72, 0
2, 34560, Note_on_c, 0, 72, 101
2, 34656, Note_on_c, 0, 72, 0
2, 34656, Note_on_c, 0, 71, 79
2, 34701, Note_on_c, 0, 71, 0
2, 34704, Note_on_c, 0, 71, 77
2, 34749, Note_on_c, 0, 71, 0
2, 34752, Note_on_c, 0, 83, 77
2, 34800, Note_on_c, 0, 83, 0
2, 34800, Note_on_c, 0, 79, 78
2, 34845, Note_on_c, 0, 79, 0
2, 34848, Note_on_c, 0, 75, 79
2, 34896, Note_on_c, 0, 75, 0
2, 34896, Note_on_c, 0, 76, 80
2, 34941, Note_on_c, 0, 76, 0
2, 34944, Note_on_c, 0, 81, 81
2, 34992, Note_on_c, 0, 81, 0
2, 34992, Note_on_c, 0, 78, 82
2, 35037, Note_on_c, 0, 78, 0
2, 35040, Note_on_c, 0, 73, 83
2, 35088, Note_on_c, 0, 73, 0
2, 35088, Note_on_c, 0, 74, 84
2, 35133, Note_on_c, 0, 74, 0
2, 35136, Note_on_c, 0, 78, 85
2, 35142, Note_on_c, 0, 78, 0
2, 35142, Note_on_c, 0, 76, 85
2, 35148, Note_on_c, 0, 76, 0
2, 35148, Note_on_c, 0, 75, 85
2, 35154, Note_on_c, 0, 75, 0
2, 35154, Note_on_c, 0, 76, 85
2, 35184, Note_on_c, 0, 76, 0
2, 35184, Note_on_c, 0, 79, 83
2, 35229, Note_on_c, 0, 79, 0
2, 35280, Note_on_c, 0, 73, 81
2, 35280, Note_on_c, 0, 67, 81
2, 35325, Note_on_c, 0, 73, 0
2, 35325, Note_on_c, 0, 67, 0
2, 35328, Note_on_c, 0, 74, 79
2, 35328, Note_on_c, 0, 66, 79
2, 35417, Note_on_c, 0, 74, 0
2, 35417, Note_on_c, 0, 66, 0
2, 35472, Note_on_c, 0, 67, 77
2, 35495, Note_on_c, 0, 67, 0
2, 35496, Note_on_c, 0, 71, 77
2, 35519, Note_on_c, 0, 71, 0
2, 35520, Note_on_c, 0, 74, 77
2, 35543, Note_on_c, 0, 74, 0
2, 35544, Note_on_c, 0, 79, 78
2, 35567, Note_on_c, 0, 79, 0
2, 35568, Note_on_c, 0, 83, 80
2, 35591, Note_on_c, 0, 83, 0
2, 35592, Note_on_c, 0, 86, 81
2, 35615, Note_on_c, 0, 86, 0
2, 35616, Note_on_c, 0, 84, 83
2, 35639, Note_on_c, 0, 84, 0
2, 35640, Note_on_c, 0, 83, 85
2, 35663, Note_on_c, 0, 83, 0
2, 35664, Note_on_c, 0, 81, 84
2, 35687, Note_on_c, 0, 81, 0
2, 35688, Note_on_c, 0, 79, 83
2, 35711, Note_on_c, 0, 79, 0
2, 35712, Note_on_c, 0, 79, 98
2, 35808, Note_on_c, 0, 79, 0
2, 35808, Note_on_c, 0, 78, 78
2, 35853, Note_on_c, 0, 78, 0
2, 35856, Note_on_c, 0, 84, 77
2, 35879, Note_on_c, 0, 84, 0
2, 35880, Note_on_c, 0, 81, 78
2, 35903, Note_on_c, 0, 81, 0
2, 35904, Note_on_c, 0, 78, 80
2, 35927, Note_on_c, 0, 78, 0
2, 35928, Note_on_c, 0, 72, 81
2, 35951, Note_on_c, 0, 72, 0
2, 35952, Note_on_c, 0, 69, 83
2, 35975, Note_on_c, 0, 69, 0
2, 35976, Note_on_c, 0, 66, 85
2, 35999, Note_on_c, 0, 66, 0
2, 36000, Note_on_c, 0, 62, 84
2, 36045, Note_on_c, 0, 62, 0
2, 36048, Note_on_c, 0, 72, 82
2, 36048, Note_on_c, 0, 69, 82
2, 36048, Note_on_c, 0, 66, 82
2, 36093, Note_on_c, 0, 72, 0
2, 36093, Note_on_c, 0, 69, 0
2, 36093, Note_on_c, 0, 66, 0
2, 36096, Note_on_c, 0, 72, 97
2, 36096, Note_on_c, 0, 69, 97
2, 36192, Note_on_c, 0, 72, 0
2, 36192, Note_on_c, 0, 69, 0
2, 36192, Note_on_c, 0, 71, 78
2, 36192, Note_on_c, 0, 67, 78
2, 36237, Note_on_c, 0, 71, 0
2, 36237, Note_on_c, 0, 67, 0
2, 36240, Note_on_c, 0, 71, 77
2, 36285, Note_on_c, 0, 71, 0
2, 36288, Note_on_c, 0, 83, 77
2, 36311, Note_on_c, 0, 83, 0
2, 36312, Note_on_c, 0, 79, 77
2, 36335, Note_on_c, 0, 79, 0
2, 36336, Note_on_c, 0, 78, 77
2, 36359, Note_on_c, 0, 78, 0
2, 36360, Note_on_c, 0, 76, 77
2, 36383, Note_on_c, 0, 76, 0
2, 36384, Note_on_c, 0, 75, 77
2, 36407, Note_on_c, 0, 75, 0
2, 36408, Note_on_c, 0, 76, 77
2, 36431, Note_on_c, 0, 76, 0
2, 36432, Note_on_c, 0, 83, 77
2, 36455, Note_on_c, 0, 83, 0
2, 36456, Note_on_c, 0, 79, 77
2, 36479, Note_on_c, 0, 79, 0
2, 36480, Note_on_c, 0, 81, 77
2, 36503, Note_on_c, 0, 81, 0
2, 36504, Note_on_c, 0, 79, 77
2, 36527, Note_on_c, 0, 79, 0
2, 36528, Note_on_c, 0, 78, 77
2, 36551, Note_on_c, 0, 78, 0
2, 36552, Note_on_c, 0, 76, 77
2, 36575, Note_on_c, 0, 76, 0
2, 36576, Note_on_c, 0, 74, 77
2, 36599, Note_on_c, 0, 74, 0
2, 36600, Note_on_c, 0, 73, 77
2, 36623, Note_on_c, 0, 73, 0
2, 36624, Note_on_c, 0, 71, 77
2, 36647, Note_on_c, 0, 71, 0
2, 36648, Note_on_c, 0, 69, 77
2, 36671, Note_on_c, 0, 69, 0
2, 36672, Note_on_c, 0, 67, 77
2, 36695, Note_on_c, 0, 67, 0
2, 36696, Note_on_c, 0, 66, 77
2, 36719, Note_on_c, 0, 66, 0
2, 36720, Note_on_c, 0, 64, 77
2, 36743, Note_on_c, 0, 64, 0
2, 36744, Note_on_c, 0, 62, 77
2, 36767, Note_on_c, 0, 62, 0
2, 36768, Note_on_c, 0, 61, 77
2, 36791, Note_on_c, 0, 61, 0
2, 36792, Note_on_c, 0, 59, 77
2, 36815, Note_on_c, 0, 59, 0
2, 36816, Note_on_c, 0, 57, 77
2, 36839, Note_on_c, 0, 57, 0
2, 36840, Note_on_c, 0, 55, 77
2, 36863, Note_on_c, 0, 55, 0
2, 36864, Note_on_c, 0, 54, 77
2, 36953, Note_on_c, 0, 54, 0
2, 37008, Note_on_c, 0, 74, 77
2, 37053, Note_on_c, 0, 74, 0
2, 37056, Note_on_c, 0, 86, 77
2, 37101, Note_on_c, 0, 86, 0
2, 37104, Note_on_c, 0, 83, 77
2, 37149, Note_on_c, 0, 83, 0
2, 37152, Note_on_c, 0, 80, 77
2, 37197, Note_on_c, 0, 80, 0
2, 37200, Note_on_c, 0, 76, 77
2, 37245, Note_on_c, 0, 76, 0
2, 37248, Note_on_c, 0, 74, 77
2, 37337, Note_on_c, 0, 74, 0
2, 37344, Note_on_c, 0, 73, 77
2, 37389, Note_on_c, 0, 73, 0
2, 37392, Note_on_c, 0, 72, 77
2, 37437, Note_on_c, 0, 72, 0
2, 37440, Note_on_c, 0, 84, 77
2, 37485, Note_on_c, 0, 84, 0
2, 37488, Note_on_c, 0, 81, 77
2, 37533, Note_on_c, 0, 81, 0
2, 37536, Note_on_c, 0, 78, 77
2, 37581, Note_on_c, 0, 78, 0
2, 37584, Note_on_c, 0, 74, 77
2, 37629, Note_on_c, 0, 74, 0
2, 37632, Note_on_c, 0, 72, 77
2, 37728, Note_on_c, 0, 72, 0
2, 37728, Note_on_c, 0, 71, 77
2, 37773, Note_on_c, 0, 71, 0
2, 37776, Note_on_c, 0, 74, 77
2, 37821, Note_on_c, 0, 74, 0
2, 37824, Note_on_c, 0, 76, 77
2, 37847, Note_on_c, 0, 76, 0
2, 37848, Note_on_c, 0, 72, 77
2, 37871, Note_on_c, 0, 72, 0
2, 37872, Note_on_c, 0, 71, 77
2, 37895, Note_on_c, 0, 71, 0
2, 37896, Note_on_c, 0, 69, 78
2, 37919, Note_on_c, 0, 69, 0
2, 37920, Note_on_c, 0, 68, 78
2, 37943, Note_on_c, 0, 68, 0
2, 37944, Note_on_c, 0, 69, 78
2, 37967, Note_on_c, 0, 69, 0
2, 37968, Note_on_c, 0, 76, 79
2, 37991, Note_on_c, 0, 76, 0
2, 37992, Note_on_c, 0, 69, 79
2, 38015, Note_on_c, 0, 69, 0
2, 38016, Note_on_c, 0, 78, 79
2, 38039, Note_on_c, 0, 78, 0
2, 38040, Note_on_c, 0, 74, 80
2, 38063, Note_on_c, 0, 74, 0
2, 38064, Note_on_c, 0, 72, 80
2, 38087, Note_on_c, 0, 72, 0
2, 38088, Note_on_c, 0, 71, 80
2, 38111, Note_on_c, 0, 71, 0
2, 38112, Note_on_c, 0, 70, 81
2, 38135, Note_on_c, 0, 70, 0
2, 38136, Note_on_c, 0, 71, 81
2, 38159, Note_on_c, 0, 71, 0
2, 38160, Note_on_c, 0, 78, 81
2, 38183, Note_on_c, 0, 78, 0
2, 38184, Note_on_c, 0, 71, 82
2, 38207, Note_on_c, 0, 71, 0
2, 38208, Note_on_c, 0, 79, 82
2, 38231, Note_on_c, 0, 79, 0
2, 38232, Note_on_c, 0, 76, 82
2, 38255, Note_on_c, 0, 76, 0
2, 38256, Note_on_c, 0, 74, 83
2, 38279, Note_on_c, 0, 74, 0
2, 38280, Note_on_c, 0, 72, 83
2, 38303, Note_on_c, 0, 72, 0
2, 38304, Note_on_c, 0, 81, 83
2, 38327, Note_on_c, 0, 81, 0
2, 38328, Note_on_c, 0, 72, 84
2, 38351, Note_on_c, 0, 72, 0
2, 38352, Note_on_c, 0, 79, 84
2, 38375, Note_on_c, 0, 79, 0
2, 38376, Note_on_c, 0, 71, 84
2, 38399, Note_on_c, 0, 71, 0
2, 38400, Note_on_c, 0, 72, 85
2, 38415, Note_on_c, 0, 72, 0
2, 38416, Note_on_c, 0, 71, 84
2, 38431, Note_on_c, 0, 71, 0
2, 38432, Note_on_c, 0, 72, 83
2, 38447, Note_on_c, 0, 72, 0
2, 38448, Note_on_c, 0, 71, 83
2, 38463, Note_on_c, 0, 71, 0
2, 38464, Note_on_c, 0, 69, 82
2, 38479, Note_on_c, 0, 69, 0
2, 38480, Note_on_c, 0, 71, 81
2, 38495, Note_on_c, 0, 71, 0
2, 38496, Note_on_c, 0, 69, 81
2, 38541, Note_on_c, 0, 69, 0
2, 38544, Note_on_c, 0, 62, 77
2, 38589, Note_on_c, 0, 62, 0
2, 38592, Note_on_c, 0, 67, 77
2, 38637, Note_on_c, 0, 67, 0
2, 38640, Note_on_c, 0, 71, 77
2, 38685, Note_on_c, 0, 71, 0
2, 38688, Note_on_c, 0, 74, 79
2, 38733, Note_on_c, 0, 74, 0
2, 38736, Note_on_c, 0, 67, 82
2, 38781, Note_on_c, 0, 67, 0
2, 38784, Note_on_c, 0, 67, 101
2, 38880, Note_on_c, 0, 67, 0
2, 38880, Note_on_c, 0, 66, 81
2, 38925, Note_on_c, 0, 66, 0
2, 38928, Note_on_c, 0, 62, 79
2, 38973, Note_on_c, 0, 62, 0
2, 38976, Note_on_c, 0, 69, 77
2, 39021, Note_on_c, 0, 69, 0
2, 39024, Note_on_c, 0, 72, 79
2, 39069, Note_on_c, 0, 72, 0
2, 39072, Note_on_c, 0, 76, 81
2, 39117, Note_on_c, 0, 76, 0
2, 39120, Note_on_c, 0, 72, 83
2, 39165, Note_on_c, 0, 72, 0
2, 39168, Note_on_c, 0, 72, 101
2, 39264, Note_on_c, 0, 72, 0
2, 39264, Note_on_c, 0, 71, 79
2, 39309, Note_on_c, 0, 71, 0
2, 39312, Note_on_c, 0, 67, 77
2, 39357, Note_on_c, 0, 67, 0
2, 39360, Note_on_c, 0, 72, 78
2, 39405, Note_on_c, 0, 72, 0
2, 39408, Note_on_c, 0, 76, 79
2, 39453, Note_on_c, 0, 76, 0
2, 39456, Note_on_c, 0, 79, 80
2, 39501, Note_on_c, 0, 79, 0
2, 39504, Note_on_c, 0, 76, 81
2, 39549, Note_on_c, 0, 76, 0
2, 39552, Note_on_c, 0, 74, 82
2, 39597, Note_on_c, 0, 74, 0
2, 39600, Note_on_c, 0, 79, 83
2, 39623, Note_on_c, 0, 79, 0
2, 39624, Note_on_c, 0, 83, 83
2, 39647, Note_on_c, 0, 83, 0
2, 39648, Note_on_c, 0, 86, 100
2, 39696, Note_on_c, 0, 86, 0
2, 39696, Note_on_c, 0, 74, 85
2, 39696, Note_on_c, 0, 71, 85
2, 39741, Note_on_c, 0, 74, 0
2, 39741, Note_on_c, 0, 71, 0
2, 39744, Note_on_c, 0, 74, 83
2, 39744, Note_on_c, 0, 71, 83
2, 39768, Note_on_c, 0, 74, 0
2, 39768, Note_on_c, 0, 71, 0
2, 39768, Note_on_c, 0, 72, 82
2, 39768, Note_on_c, 0, 69, 82
2, 39791, Note_on_c, 0, 72, 0
2, 39791, Note_on_c, 0, 69, 0
2, 39792, Note_on_c, 0, 71, 81
2, 39792, Note_on_c, 0, 67, 81
2, 39881, Note_on_c, 0, 71, 0
2, 39881, Note_on_c, 0, 67, 0
2, 39888, Note_on_c, 0, 69, 78
2, 39888, Note_on_c, 0, 66, 78
2, 39933, Note_on_c, 0, 69, 0
2, 39933, Note_on_c, 0, 66, 0
2, 39936, Note_on_c, 0, 67, 77
2, 40025, Note_on_c, 0, 67, 0
2, 40080, Note_on_c, 0, 64, 77
2, 40103, Note_on_c, 0, 64, 0
2, 40104, Note_on_c, 0, 68, 77
2, 40127, Note_on_c, 0, 68, 0
2, 40128, Note_on_c, 0, 71, 77
2, 40151, Note_on_c, 0, 71, 0
2, 40152, Note_on_c, 0, 74, 79
2, 40175, Note_on_c, 0, 74, 0
2, 40176, Note_on_c, 0, 80, 81
2, 40199, Note_on_c, 0, 80, 0
2, 40200, Note_on_c, 0, 83, 83
2, 40223, Note_on_c, 0, 83, 0
2, 40224, Note_on_c, 0, 86, 85
2, 40269, Note_on_c, 0, 86, 0
2, 40272, Note_on_c, 0, 74, 83
2, 40272, Note_on_c, 0, 71, 83
2, 40317, Note_on_c, 0, 74, 0
2, 40317, Note_on_c, 0, 71, 0
2, 40320, Note_on_c, 0, 74, 97
2, 40320, Note_on_c, 0, 71, 97
2, 40416, Note_on_c, 0, 74, 0
2, 40416, Note_on_c, 0, 71, 0
2, 40416, Note_on_c, 0, 72, 78
2, 40416, Note_on_c, 0, 69, 78
2, 40461, Note_on_c, 0, 72, 0
2, 40461, Note_on_c, 0, 69, 0
2, 40464, Note_on_c, 0, 84, 77
2, 40487, Note_on_c, 0, 84, 0
2, 40488, Note_on_c, 0, 81, 78
2, 40511, Note_on_c, 0, 81, 0
2, 40512, Note_on_c, 0, 78, 80
2, 40535, Note_on_c, 0, 78, 0
2, 40536, Note_on_c, 0, 72, 81
2, 40559, Note_on_c, 0, 72, 0
2, 40560, Note_on_c, 0, 69, 83
2, 40583, Note_on_c, 0, 69, 0
2, 40584, Note_on_c, 0, 66, 85
2, 40607, Note_on_c, 0, 66, 0
2, 40608, Note_on_c, 0, 62, 84
2, 40653, Note_on_c, 0, 62, 0
2, 40656, Note_on_c, 0, 72, 82
2, 40656, Note_on_c, 0, 69, 82
2, 40656, Note_on_c, 0, 66, 82
2, 40701, Note_on_c, 0, 72, 0
2, 40701, Note_on_c, 0, 69, 0
2, 40701, Note_on_c, 0, 66, 0
2, 40704, Note_on_c, 0, 72, 97
2, 40704, Note_on_c, 0, 69, 97
2, 40800, Note_on_c, 0, 72, 0
2, 40800, Note_on_c, 0, 69, 0
2, 40800, Note_on_c, 0, 71, 78
2, 40800, Note_on_c, 0, 67, 78
2, 40845, Note_on_c, 0, 71, 0
2, 40845, Note_on_c, 0, 67, 0
2, 40848, Note_on_c, 0, 74, 77
2, 40893, Note_on_c, 0, 74, 0
2, 40896, Note_on_c, 0, 76, 77
2, 40919, Note_on_c, 0, 76, 0
2, 40920, Note_on_c, 0, 72, 77
2, 40943, Note_on_c, 0, 72, 0
2, 40944, Note_on_c, 0, 71, 77
2, 40967, Note_on_c, 0, 71, 0
2, 40968, Note_on_c, 0, 69, 78
2, 40991, Note_on_c, 0, 69, 0
2, 40992, Note_on_c, 0, 68, 78
2, 41015, Note_on_c, 0, 68, 0
2, 41016, Note_on_c, 0, 69, 78
2, 41039, Note_on_c, 0, 69, 0
2, 41040, Note_on_c, 0, 76, 79
2, 41063, Note_on_c, 0, 76, 0
2, 41064, Note_on_c, 0, 69, 79
2, 41087, Note_on_c, 0, 69, 0
2, 41088, Note_on_c, 0, 78, 79
2, 41111, Note_on_c, 0, 78, 0
2, 41112, Note_on_c, 0, 74, 80
2, 41135, Note_on_c, 0, 74, 0
2, 41136, Note_on_c, 0, 72, 80
2, 41159, Note_on_c, 0, 72, 0
2, 41160, Note_on_c, 0, 71, 80
2, 41183, Note_on_c, 0, 71, 0
2, 41184, Note_on_c, 0, 70, 81
2, 41207, Note_on_c, 0, 70, 0
2, 41208, Note_on_c, 0, 71, 81
2, 41231, Note_on_c, 0, 71, 0
2, 41232, Note_on_c, 0, 78, 81
2, 41255, Note_on_c, 0, 78, 0
2, 41256, Note_on_c, 0, 71, 82
2, 41279, Note_on_c, 0, 71, 0
2, 41280, Note_on_c, 0, 79, 82
2, 41303, Note_on_c, 0, 79, 0
2, 41304, Note_on_c, 0, 78, 82
2, 41327, Note_on_c, 0, 78, 0
2, 41328, Note_on_c, 0, 76, 83
2, 41351, Note_on_c, 0, 76, 0
2, 41352, Note_on_c, 0, 74, 83
2, 41375, Note_on_c, 0, 74, 0
2, 41376, Note_on_c, 0, 81, 83
2, 41399, Note_on_c, 0, 81, 0
2, 41400, Note_on_c, 0, 72, 84
2, 41423, Note_on_c, 0, 72, 0
2, 41424, Note_on_c, 0, 79, 84
2, 41447, Note_on_c, 0, 79, 0
2, 41448, Note_on_c, 0, 71, 84
2, 41471, Note_on_c, 0, 71, 0
2, 41472, Note_on_c, 0, 72, 85
2, 41487, Note_on_c, 0, 72, 0
2, 41488, Note_on_c, 0, 71, 84
2, 41503, Note_on_c, 0, 71, 0
2, 41504, Note_on_c, 0, 72, 83
2, 41519, Note_on_c, 0, 72, 0
2, 41520, Note_on_c, 0, 71, 83
2, 41535, Note_on_c, 0, 71, 0
2, 41536, Note_on_c, 0, 69, 82
2, 41551, Note_on_c, 0, 69, 0
2, 41552, Note_on_c, 0, 71, 81
2, 41567, Note_on_c, 0, 71, 0
2, 41568, Note_on_c, 0, 69, 81
2, 41613, Note_on_c, 0, 69, 0
2, 41616, Note_on_c, 0, 62, 77
2, 41661, Note_on_c, 0, 62, 0
2, 41664, Note_on_c, 0, 67, 77
2, 41709, Note_on_c, 0, 67, 0
2, 41712, Note_on_c, 0, 71, 79
2, 41757, Note_on_c, 0, 71, 0
2, 41760, Note_on_c, 0, 74, 81
2, 41805, Note_on_c, 0, 74, 0
2, 41808, Note_on_c, 0, 67, 83
2, 41853, Note_on_c, 0, 67, 0
2, 41856, Note_on_c, 0, 67, 101
2, 41952, Note_on_c, 0, 67, 0
2, 41952, Note_on_c, 0, 66, 79
2, 41997, Note_on_c, 0, 66, 0
2, 42000, Note_on_c, 0, 62, 77
2, 42045, Note_on_c, 0, 62, 0
2, 42048, Note_on_c, 0, 69, 77
2, 42093, Note_on_c, 0, 69, 0
2, 42096, Note_on_c, 0, 72, 79
2, 42141, Note_on_c, 0, 72, 0
2, 42144, Note_on_c, 0, 76, 81
2, 42189, Note_on_c, 0, 76, 0
2, 42192, Note_on_c, 0, 72, 83
2, 42237, Note_on_c, 0, 72, 0
2, 42240, Note_on_c, 0, 72, 101
2, 42336, Note_on_c, 0, 72, 0
2, 42336, Note_on_c, 0, 71, 79
2, 42381, Note_on_c, 0, 71, 0
2, 42384, Note_on_c, 0, 67, 77
2, 42429, Note_on_c, 0, 67, 0
2, 42432, Note_on_c, 0, 72, 77
2, 42477, Note_on_c, 0, 72, 0
2, 42480, Note_on_c, 0, 76, 78
2, 42525, Note_on_c, 0, 76, 0
2, 42528, Note_on_c, 0, 79, 79
2, 42573, Note_on_c, 0, 79, 0
2, 42576, Note_on_c, 0, 76, 81
2, 42621, Note_on_c, 0, 76, 0
2, 42624, Note_on_c, 0, 74, 82
2, 42669, Note_on_c, 0, 74, 0
2, 42672, Note_on_c, 0, 79, 83
2, 42695, Note_on_c, 0, 79, 0
2, 42696, Note_on_c, 0, 83, 84
2, 42719, Note_on_c, 0, 83, 0
2, 42720, Note_on_c, 0, 86, 101
2, 42768, Note_on_c, 0, 86, 0
2, 42768, Note_on_c, 0, 74, 85
2, 42768, Note_on_c, 0, 71, 85
2, 42813, Note_on_c, 0, 74, 0
2, 42813, Note_on_c, 0, 71, 0
2, 42816, Note_on_c, 0, 74, 85
2, 42816, Note_on_c, 0, 71, 85
2, 42840, Note_on_c, 0, 74, 0
2, 42840, Note_on_c, 0, 71, 0
2, 42840, Note_on_c, 0, 72, 84
2, 42840, Note_on_c, 0, 69, 84
2, 42863, Note_on_c, 0, 72, 0
2, 42863, Note_on_c, 0, 69, 0
2, 42864, Note_on_c, 0, 71, 83
2, 42864, Note_on_c, 0, 67, 83
2, 42953, Note_on_c, 0, 71, 0
2, 42953, Note_on_c, 0, 67, 0
2, 42960, Note_on_c, 0, 69, 79
2, 42960, Note_on_c, 0, 66, 79
2, 42960, Note_on_c, 0, 60, 79
2, 43005, Note_on_c, 0, 69, 0
2, 43005, Note_on_c, 0, 66, 0
2, 43005, Note_on_c, 0, 60, 0
2, 43008, Note_on_c, 0, 67, 77
2, 43008, Note_on_c, 0, 62, 77
2, 43008, Note_on_c, 0, 59, 77
2, 43141, Note_on_c, 0, 67, 0
2, 43141, Note_on_c, 0, 62, 0
2, 43141, Note_on_c, 0, 59, 0
2, 43200, End_track
3, 0, Start_track
3, 0, Program_c, 0, 0
3, 0, Control_c, 0, 7, 127
3, 0, Control_c, 0, 10, 64
3, 43200, End_track
4, 0, Start_track
4, 0, Program_c, 1, 1
4, 0, Control_c, 1, 7, 127
4, 0, Control_c, 1, 10, 64
4, 192, Note_on_c, 1, 59, 77
4, 192, Note_on_c, 1, 55, 77
4, 281, Note_on_c, 1, 59, 0
4, 281, Note_on_c, 1, 55, 0
4, 336, Note_on_c, 1, 62, 77
4, 336, Note_on_c, 1, 59, 77
4, 381, Note_on_c, 1, 62, 0
4, 381, Note_on_c, 1, 59, 0
4, 384, Note_on_c, 1, 60, 77
4, 384, Note_on_c, 1, 57, 77
4, 473, Note_on_c, 1, 60, 0
4, 473, Note_on_c, 1, 57, 0
4, 720, Note_on_c, 1, 54, 77
4, 765, Note_on_c, 1, 54, 0
4, 768, Note_on_c, 1, 55, 77
4, 857, Note_on_c, 1, 55, 0
4, 864, Note_on_c, 1, 43, 77
4, 953, Note_on_c, 1, 43, 0
4, 960, Note_on_c, 1, 67, 69
4, 1049, Note_on_c, 1, 67, 0
4, 1104, Note_on_c, 1, 67, 69
4, 1149, Note_on_c, 1, 67, 0
4, 1152, Note_on_c, 1, 66, 69
4, 1241, Note_on_c, 1, 66, 0
4, 1296, Note_on_c, 1, 66, 69
4, 1341, Note_on_c, 1, 66, 0
4, 1344, Note_on_c, 1, 67, 69
4, 1433, Note_on_c, 1, 67, 0
4, 1440, Note_on_c, 1, 69, 69
4, 1529, Note_on_c, 1, 69, 0
4, 1536, Note_on_c, 1, 62, 69
4, 1625, Note_on_c, 1, 62, 0
4, 1632, Note_on_c, 1, 50, 69
4, 1677, Note_on_c, 1, 50, 0
4, 1728, Note_on_c, 1, 59, 77
4, 1728, Note_on_c, 1, 55, 77
4, 1817, Note_on_c, 1, 59, 0
4, 1817, Note_on_c, 1, 55, 0
4, 1872, Note_on_c, 1, 62, 77
4, 1872, Note_on_c, 1, 59, 77
4, 1917, Note_on_c, 1, 62, 0
4, 1917, Note_on_c, 1, 59, 0
4, 1920, Note_on_c, 1, 60, 77
4, 1920, Note_on_c, 1, 57, 77
4, 2009, Note_on_c, 1, 60, 0
4, 2009, Note_on_c, 1, 57, 0
4, 2256, Note_on_c, 1, 54, 77
4, 2301, Note_on_c, 1, 54, 0
4, 2304, Note_on_c, 1, 55, 77
4, 2393, Note_on_c, 1, 55, 0
4, 2400, Note_on_c, 1, 43, 77
4, 2489, Note_on_c, 1, 43, 0
4, 2496, Note_on_c, 1, 67, 69
4, 2585, Note_on_c, 1, 67, 0
4, 2640, Note_on_c, 1, 67, 69
4, 2685, Note_on_c, 1, 67, 0
4, 2688, Note_on_c, 1, 66, 69
4, 2777, Note_on_c, 1, 66, 0
4, 2832, Note_on_c, 1, 66, 69
4, 2877, Note_on_c, 1, 66, 0
4, 2880, Note_on_c, 1, 67, 69
4, 2969, Note_on_c, 1, 67, 0
4, 2976, Note_on_c, 1, 69, 69
4, 3065, Note_on_c, 1, 69, 0
4, 3072, Note_on_c, 1, 62, 69
4, 3161, Note_on_c, 1, 62, 0
4, 3168, Note_on_c, 1, 50, 69
4, 3213, Note_on_c, 1, 50, 0
4, 3504, Note_on_c, 1, 56, 77
4, 3549, Note_on_c, 1, 56, 0
4, 3552, Note_on_c, 1, 57, 77
4, 3597, Note_on_c, 1, 57, 0
4, 3600, Note_on_c, 1, 45, 77
4, 3645, Note_on_c, 1, 45, 0
4, 3888, Note_on_c, 1, 54, 77
4, 3933, Note_on_c, 1, 54, 0
4, 3936, Note_on_c, 1, 55, 77
4, 3981, Note_on_c, 1, 55, 0
4, 3984, Note_on_c, 1, 47, 77
4, 4029, Note_on_c, 1, 47, 0
4, 4032, Note_on_c, 1, 48, 77
4, 4121, Note_on_c, 1, 48, 0
4, 4176, Note_on_c, 1, 61, 78
4, 4221, Note_on_c, 1, 61, 0
4, 4224, Note_on_c, 1, 62, 79
4, 4313, Note_on_c, 1, 62, 0
4, 4368, Note_on_c, 1, 63, 81
4, 4413, Note_on_c, 1, 63, 0
4, 4416, Note_on_c, 1, 64, 81
4, 4461, Note_on_c, 1, 64, 0
4, 4464, Note_on_c, 1, 66, 82
4, 4509, Note_on_c, 1, 66, 0
4, 4512, Note_on_c, 1, 67, 82
4, 4601, Note_on_c, 1, 67, 0
4, 4608, Note_on_c, 1, 67, 83
4, 4704, Note_on_c, 1, 67, 0
4, 4704, Note_on_c, 1, 66, 85
4, 4749, Note_on_c, 1, 66, 0
4, 4800, Note_on_c, 1, 59, 77
4, 4800, Note_on_c, 1, 55, 77
4, 4889, Note_on_c, 1, 59, 0
4, 4889, Note_on_c, 1, 55, 0
4, 4944, Note_on_c, 1, 62, 77
4, 4944, Note_on_c, 1, 59, 77
4, 4989, Note_on_c, 1, 62, 0
4, 4989, Note_on_c, 1, 59, 0
4, 4992, Note_on_c, 1, 60, 77
4, 4992, Note_on_c, 1, 57, 77
4, 5081, Note_on_c, 1, 60, 0
4, 5081, Note_on_c, 1, 57, 0
4, 5328, Note_on_c, 1, 54, 77
4, 5373, Note_on_c, 1, 54, 0
4, 5376, Note_on_c, 1, 55, 77
4, 5465, Note_on_c, 1, 55, 0
4, 5472, Note_on_c, 1, 43, 77
4, 5561, Note_on_c, 1, 43, 0
4, 5712, Note_on_c, 1, 60, 77
4, 5757, Note_on_c, 1, 60, 0
4, 5760, Note_on_c, 1, 59, 77
4, 5849, Note_on_c, 1, 59, 0
4, 5904, Note_on_c, 1, 55, 77
4, 5949, Note_on_c, 1, 55, 0
4, 5952, Note_on_c, 1, 60, 77
4, 6041, Note_on_c, 1, 60, 0
4, 6096, Note_on_c, 1, 50, 77
4, 6141, Note_on_c, 1, 50, 0
4, 6144, Note_on_c, 1, 55, 77
4, 6233, Note_on_c, 1, 55, 0
4, 6240, Note_on_c, 1, 43, 77
4, 6285, Note_on_c, 1, 43, 0
4, 6576, Note_on_c, 1, 56, 77
4, 6621, Note_on_c, 1, 56, 0
4, 6624, Note_on_c, 1, 57, 77
4, 6669, Note_on_c, 1, 57, 0
4, 6672, Note_on_c, 1, 45, 77
4, 6717, Note_on_c, 1, 45, 0
4, 6960, Note_on_c, 1, 54, 77
4, 7005, Note_on_c, 1, 54, 0
4, 7008, Note_on_c, 1, 55, 77
4, 7053, Note_on_c, 1, 55, 0
4, 7056, Note_on_c, 1, 47, 77
4, 7101, Note_on_c, 1, 47, 0
4, 7104, Note_on_c, 1, 48, 77
4, 7193, Note_on_c, 1, 48, 0
4, 7248, Note_on_c, 1, 61, 78
4, 7293, Note_on_c, 1, 61, 0
4, 7296, Note_on_c, 1, 62, 79
4, 7385, Note_on_c, 1, 62, 0
4, 7440, Note_on_c, 1, 63, 81
4, 7485, Note_on_c, 1, 63, 0
4, 7488, Note_on_c, 1, 64, 81
4, 7533, Note_on_c, 1, 64, 0
4, 7536, Note_on_c, 1, 66, 82
4, 7581, Note_on_c, 1, 66, 0
4, 7584, Note_on_c, 1, 67, 82
4, 7673, Note_on_c, 1, 67, 0
4, 7680, Note_on_c, 1, 67, 83
4, 7776, Note_on_c, 1, 67, 0
4, 7776, Note_on_c, 1, 66, 85
4, 7821, Note_on_c, 1, 66, 0
4, 7872, Note_on_c, 1, 59, 77
4, 7872, Note_on_c, 1, 55, 77
4, 7961, Note_on_c, 1, 59, 0
4, 7961, Note_on_c, 1, 55, 0
4, 8016, Note_on_c, 1, 62, 77
4, 8016, Note_on_c, 1, 59, 77
4, 8061, Note_on_c, 1, 62, 0
4, 8061, Note_on_c, 1, 59, 0
4, 8064, Note_on_c, 1, 60, 77
4, 8064, Note_on_c, 1, 57, 77
4, 8153, Note_on_c, 1, 60, 0
4, 8153, Note_on_c, 1, 57, 0
4, 8400, Note_on_c, 1, 54, 77
4, 8445, Note_on_c, 1, 54, 0
4, 8448, Note_on_c, 1, 55, 77
4, 8537, Note_on_c, 1, 55, 0
4, 8544, Note_on_c, 1, 43, 77
4, 8633, Note_on_c, 1, 43, 0
4, 8784, Note_on_c, 1, 60, 77
4, 8829, Note_on_c, 1, 60, 0
4, 8832, Note_on_c, 1, 59, 77
4, 8921, Note_on_c, 1, 59, 0
4, 8976, Note_on_c, 1, 55, 77
4, 9021, Note_on_c, 1, 55, 0
4, 9024, Note_on_c, 1, 60, 77
4, 9113, Note_on_c, 1, 60, 0
4, 9168, Note_on_c, 1, 50, 77
4, 9213, Note_on_c, 1, 50, 0
4, 9216, Note_on_c, 1, 55, 77
4, 9305, Note_on_c, 1, 55, 0
4, 9312, Note_on_c, 1, 43, 77
4, 9357, Note_on_c, 1, 43, 0
4, 9408, Note_on_c, 1, 59, 77
4, 9408, Note_on_c, 1, 55, 77
4, 9497, Note_on_c, 1, 59, 0
4, 9497, Note_on_c, 1, 55, 0
4, 9552, Note_on_c, 1, 62, 77
4, 9552, Note_on_c, 1, 59, 77
4, 9597, Note_on_c, 1, 62, 0
4, 9597, Note_on_c, 1, 59, 0
4, 9600, Note_on_c, 1, 60, 77
4, 9600, Note_on_c, 1, 57, 77
4, 9689, Note_on_c, 1, 60, 0
4, 9689, Note_on_c, 1, 57, 0
4, 9936, Note_on_c, 1, 54, 77
4, 9981, Note_on_c, 1, 54, 0
4, 9984, Note_on_c, 1, 55, 77
4, 10073, Note_on_c, 1, 55, 0
4, 10080, Note_on_c, 1, 43, 77
4, 10169, Note_on_c, 1, 43, 0
4, 10176, Note_on_c, 1, 67, 69
4, 10265, Note_on_c, 1, 67, 0
4, 10368, Note_on_c, 1, 66, 69
4, 10457, Note_on_c, 1, 66, 0
4, 10560, Note_on_c, 1, 67, 69
4, 10605, Note_on_c, 1, 67, 0
4, 10656, Note_on_c, 1, 57, 69
4, 10701, Note_on_c, 1, 57, 0
4, 10752, Note_on_c, 1, 50, 69
4, 10775, Note_on_c, 1, 50, 0
4, 10776, Note_on_c, 1, 54, 69
4, 10799, Note_on_c, 1, 54, 0
4, 10800, Note_on_c, 1, 57, 69
4, 10823, Note_on_c, 1, 57, 0
4, 10824, Note_on_c, 1, 62, 69
4, 10847, Note_on_c, 1, 62, 0
4, 10848, Note_on_c, 1, 50, 69
4, 10893, Note_on_c, 1, 50, 0
4, 10944, Note_on_c, 1, 59, 77
4, 10944, Note_on_c, 1, 55, 77
4, 11033, Note_on_c, 1, 59, 0
4, 11033, Note_on_c, 1, 55, 0
4, 11088, Note_on_c, 1, 62, 77
4, 11088, Note_on_c, 1, 59, 77
4, 11133, Note_on_c, 1, 62, 0
4, 11133, Note_on_c, 1, 59, 0
4, 11136, Note_on_c, 1, 60, 77
4, 11136, Note_on_c, 1, 57, 77
4, 11225, Note_on_c, 1, 60, 0
4, 11225, Note_on_c, 1, 57, 0
4, 11472, Note_on_c, 1, 54, 77
4, 11517, Note_on_c, 1, 54, 0
4, 11520, Note_on_c, 1, 55, 77
4, 11609, Note_on_c, 1, 55, 0
4, 11616, Note_on_c, 1, 43, 77
4, 11705, Note_on_c, 1, 43, 0
4, 11712, Note_on_c, 1, 67, 69
4, 11801, Note_on_c, 1, 67, 0
4, 11904, Note_on_c, 1, 66, 69
4, 11993, Note_on_c, 1, 66, 0
4, 12096, Note_on_c, 1, 67, 69
4, 12141, Note_on_c, 1, 67, 0
4, 12192, Note_on_c, 1, 57, 69
4, 12237, Note_on_c, 1, 57, 0
4, 12288, Note_on_c, 1, 50, 69
4, 12311, Note_on_c, 1, 50, 0
4, 12312, Note_on_c, 1, 54, 69
4, 12335, Note_on_c, 1, 54, 0
4, 12336, Note_on_c, 1, 57, 69
4, 12359, Note_on_c, 1, 57, 0
4, 12360, Note_on_c, 1, 62, 69
4, 12383, Note_on_c, 1, 62, 0
4, 12384, Note_on_c, 1, 50, 69
4, 12429, Note_on_c, 1, 50, 0
4, 12624, Note_on_c, 1, 62, 77
4, 12624, Note_on_c, 1, 56, 77
4, 12669, Note_on_c, 1, 62, 0
4, 12669, Note_on_c, 1, 56, 0
4, 12672, Note_on_c, 1, 62, 77
4, 12672, Note_on_c, 1, 57, 77
4, 12768, Note_on_c, 1, 62, 0
4, 12768, Note_on_c, 1, 60, 77
4, 12813, Note_on_c, 1, 60, 0
4, 12813, Note_on_c, 1, 57, 0
4, 13008, Note_on_c, 1, 60, 77
4, 13008, Note_on_c, 1, 54, 77
4, 13053, Note_on_c, 1, 60, 0
4, 13053, Note_on_c, 1, 54, 0
4, 13056, Note_on_c, 1, 60, 77
4, 13056, Note_on_c, 1, 55, 77
4, 13152, Note_on_c, 1, 60, 0
4, 13152, Note_on_c, 1, 59, 77
4, 13197, Note_on_c, 1, 59, 0
4, 13197, Note_on_c, 1, 55, 0
4, 13200, Note_on_c, 1, 59, 77
4, 13245, Note_on_c, 1, 59, 0
4, 13248, Note_on_c, 1, 60, 77
4, 13337, Note_on_c, 1, 60, 0
4, 13392, Note_on_c, 1, 61, 78
4, 13437, Note_on_c, 1, 61, 0
4, 13440, Note_on_c, 1, 62, 79
4, 13529, Note_on_c, 1, 62, 0
4, 13584, Note_on_c, 1, 63, 81
4, 13629, Note_on_c, 1, 63, 0
4, 13632, Note_on_c, 1, 64, 81
4, 13677, Note_on_c, 1, 64, 0
4, 13680, Note_on_c, 1, 66, 82
4, 13725, Note_on_c, 1, 66, 0
4, 13728, Note_on_c, 1, 67, 82
4, 13920, Note_on_c, 1, 67, 0
4, 13920, Note_on_c, 1, 66, 85
4, 13965, Note_on_c, 1, 66, 0
4, 14016, Note_on_c, 1, 59, 77
4, 14016, Note_on_c, 1, 55, 77
4, 14105, Note_on_c, 1, 59, 0
4, 14105, Note_on_c, 1, 55, 0
4, 14160, Note_on_c, 1, 62, 77
4, 14160, Note_on_c, 1, 59, 77
4, 14205, Note_on_c, 1, 62, 0
4, 14205, Note_on_c, 1, 59, 0
4, 14208, Note_on_c, 1, 60, 77
4, 14208, Note_on_c, 1, 57, 77
4, 14297, Note_on_c, 1, 60, 0
4, 14297, Note_on_c, 1, 57, 0
4, 14544, Note_on_c, 1, 54, 77
4, 14589, Note_on_c, 1, 54, 0
4, 14592, Note_on_c, 1, 55, 77
4, 14681, Note_on_c, 1, 55, 0
4, 14688, Note_on_c, 1, 43, 77
4, 14777, Note_on_c, 1, 43, 0
4, 14784, Note_on_c, 1, 60, 77
4, 14784, Note_on_c, 1, 48, 77
4, 14873, Note_on_c, 1, 60, 0
4, 14873, Note_on_c, 1, 48, 0
4, 14976, Note_on_c, 1, 59, 77
4, 14976, Note_on_c, 1, 47, 77
4, 15065, Note_on_c, 1, 59, 0
4, 15065, Note_on_c, 1, 47, 0
4, 15168, Note_on_c, 1, 60, 77
4, 15257, Note_on_c, 1, 60, 0
4, 15264, Note_on_c, 1, 62, 77
4, 15353, Note_on_c, 1, 62, 0
4, 15360, Note_on_c, 1, 55, 77
4, 15449, Note_on_c, 1, 55, 0
4, 15696, Note_on_c, 1, 62, 77
4, 15696, Note_on_c, 1, 56, 77
4, 15741, Note_on_c, 1, 62, 0
4, 15741, Note_on_c, 1, 56, 0
4, 15744, Note_on_c, 1, 62, 77
4, 15744, Note_on_c, 1, 57, 77
4, 15840, Note_on_c, 1, 62, 0
4, 15840, Note_on_c, 1, 60, 77
4, 15885, Note_on_c, 1, 60, 0
4, 15885, Note_on_c, 1, 57, 0
4, 16080, Note_on_c, 1, 60, 77
4, 16080, Note_on_c, 1, 54, 77
4, 16125, Note_on_c, 1, 60, 0
4, 16125, Note_on_c, 1, 54, 0
4, 16128, Note_on_c, 1, 60, 77
4, 16128, Note_on_c, 1, 55, 77
4, 16224, Note_on_c, 1, 60, 0
4, 16224, Note_on_c, 1, 59, 77
4, 16269, Note_on_c, 1, 59, 0
4, 16269, Note_on_c, 1, 55, 0
4, 16272, Note_on_c, 1, 59, 77
4, 16317, Note_on_c, 1, 59, 0
4, 16320, Note_on_c, 1, 60, 77
4, 16409, Note_on_c, 1, 60, 0
4, 16464, Note_on_c, 1, 61, 78
4, 16509, Note_on_c, 1, 61, 0
4, 16512, Note_on_c, 1, 62, 79
4, 16601, Note_on_c, 1, 62, 0
4, 16656, Note_on_c, 1, 63, 81
4, 16701, Note_on_c, 1, 63, 0
4, 16704, Note_on_c, 1, 64, 81
4, 16749, Note_on_c, 1, 64, 0
4, 16752, Note_on_c, 1, 66, 82
4, 16797, Note_on_c, 1, 66, 0
4, 16800, Note_on_c, 1, 67, 82
4, 16992, Note_on_c, 1, 67, 0
4, 16992, Note_on_c, 1, 66, 85
4, 17037, Note_on_c, 1, 66, 0
4, 17088, Note_on_c, 1, 59, 77
4, 17088, Note_on_c, 1, 55, 77
4, 17177, Note_on_c, 1, 59, 0
4, 17177, Note_on_c, 1, 55, 0
4, 17232, Note_on_c, 1, 62, 77
4, 17232, Note_on_c, 1, 59, 77
4, 17277, Note_on_c, 1, 62, 0
4, 17277, Note_on_c, 1, 59, 0
4, 17280, Note_on_c, 1, 60, 77
4, 17280, Note_on_c, 1, 57, 77
4, 17369, Note_on_c, 1, 60, 0
4, 17369, Note_on_c, 1, 57, 0
4, 17616, Note_on_c, 1, 54, 77
4, 17661, Note_on_c, 1, 54, 0
4, 17664, Note_on_c, 1, 55, 77
4, 17753, Note_on_c, 1, 55, 0
4, 17760, Note_on_c, 1, 43, 77
4, 17849, Note_on_c, 1, 43, 0
4, 17856, Note_on_c, 1, 60, 77
4, 17856, Note_on_c, 1, 48, 77
4, 17945, Note_on_c, 1, 60, 0
4, 17945, Note_on_c, 1, 48, 0
4, 18048, Note_on_c, 1, 59, 77
4, 18048, Note_on_c, 1, 47, 77
4, 18137, Note_on_c, 1, 59, 0
4, 18137, Note_on_c, 1, 47, 0
4, 18240, Note_on_c, 1, 60, 77
4, 18329, Note_on_c, 1, 60, 0
4, 18336, Note_on_c, 1, 62, 77
4, 18425, Note_on_c, 1, 62, 0
4, 18432, Note_on_c, 1, 55, 77
4, 18521, Note_on_c, 1, 55, 0
4, 18528, Note_on_c, 1, 55, 77
4, 18617, Note_on_c, 1, 55, 0
4, 18624, Note_on_c, 1, 59, 77
4, 18624, Note_on_c, 1, 55, 77
4, 18713, Note_on_c, 1, 59, 0
4, 18713, Note_on_c, 1, 55, 0
4, 18816, Note_on_c, 1, 60, 77
4, 18816, Note_on_c, 1, 57, 77
4, 18861, Note_on_c, 1, 60, 0
4, 18861, Note_on_c, 1, 57, 0
4, 18864, Note_on_c, 1, 59, 77
4, 18864, Note_on_c, 1, 55, 77
4, 18909, Note_on_c, 1, 59, 0
4, 18909, Note_on_c, 1, 55, 0
4, 18912, Note_on_c, 1, 57, 77
4, 18912, Note_on_c, 1, 54, 77
4, 18957, Note_on_c, 1, 57, 0
4, 18957, Note_on_c, 1, 54, 0
4, 18960, Note_on_c, 1, 55, 77
4, 18960, Note_on_c, 1, 52, 77
4, 19005, Note_on_c, 1, 55, 0
4, 19005, Note_on_c, 1, 52, 0
4, 19008, Note_on_c, 1, 54, 77
4, 19008, Note_on_c, 1, 50, 77
4, 19097, Note_on_c, 1, 54, 0
4, 19097, Note_on_c, 1, 50, 0
4, 19224, Note_on_c, 1, 43, 77
4, 19247, Note_on_c, 1, 43, 0
4, 19248, Note_on_c, 1, 47, 77
4, 19271, Note_on_c, 1, 47, 0
4, 19272, Note_on_c, 1, 50, 77
4, 19295, Note_on_c, 1, 50, 0
4, 19296, Note_on_c, 1, 55, 77
4, 19385, Note_on_c, 1, 55, 0
4, 19392, Note_on_c, 1, 67, 77
4, 19437, Note_on_c, 1, 67, 0
4, 19440, Note_on_c, 1, 66, 75
4, 19485, Note_on_c, 1, 66, 0
4, 19488, Note_on_c, 1, 64, 73
4, 19533, Note_on_c, 1, 64, 0
4, 19536, Note_on_c, 1, 63, 71
4, 19581, Note_on_c, 1, 63, 0
4, 19584, Note_on_c, 1, 64, 69
4, 19629, Note_on_c, 1, 64, 0
4, 19632, Note_on_c, 1, 62, 71
4, 19677, Note_on_c, 1, 62, 0
4, 19680, Note_on_c, 1, 61, 73
4, 19725, Note_on_c, 1, 61, 0
4, 19728, Note_on_c, 1, 64, 75
4, 19773, Note_on_c, 1, 64, 0
4, 19776, Note_on_c, 1, 62, 77
4, 19821, Note_on_c, 1, 62, 0
4, 19824, Note_on_c, 1, 55, 75
4, 19869, Note_on_c, 1, 55, 0
4, 19872, Note_on_c, 1, 57, 73
4, 19917, Note_on_c, 1, 57, 0
4, 19920, Note_on_c, 1, 45, 72
4, 19965, Note_on_c, 1, 45, 0
4, 19968, Note_on_c, 1, 50, 70
4, 20013, Note_on_c, 1, 50, 0
4, 20016, Note_on_c, 1, 45, 69
4, 20061, Note_on_c, 1, 45, 0
4, 20064, Note_on_c, 1, 38, 69
4, 20109, Note_on_c, 1, 38, 0
4, 20160, Note_on_c, 1, 59, 77
4, 20160, Note_on_c, 1, 55, 77
4, 20249, Note_on_c, 1, 59, 0
4, 20249, Note_on_c, 1, 55, 0
4, 20352, Note_on_c, 1, 60, 77
4, 20352, Note_on_c, 1, 57, 77
4, 20397, Note_on_c, 1, 60, 0
4, 20397, Note_on_c, 1, 57, 0
4, 20400, Note_on_c, 1, 59, 77
4, 20400, Note_on_c, 1, 55, 77
4, 20445, Note_on_c, 1, 59, 0
4, 20445, Note_on_c, 1, 55, 0
4, 20448, Note_on_c, 1, 57, 77
4, 20448, Note_on_c, 1, 54, 77
4, 20493, Note_on_c, 1, 57, 0
4, 20493, Note_on_c, 1, 54, 0
4, 20496, Note_on_c, 1, 55, 77
4, 20496, Note_on_c, 1, 52, 77
4, 20541, Note_on_c, 1, 55, 0
4, 20541, Note_on_c, 1, 52, 0
4, 20544, Note_on_c, 1, 54, 77
4, 20544, Note_on_c, 1, 50, 77
4, 20633, Note_on_c, 1, 54, 0
4, 20633, Note_on_c, 1, 50, 0
4, 20760, Note_on_c, 1, 43, 77
4, 20783, Note_on_c, 1, 43, 0
4, 20784, Note_on_c, 1, 47, 77
4, 20807, Note_on_c, 1, 47, 0
4, 20808, Note_on_c, 1, 50, 77
4, 20831, Note_on_c, 1, 50, 0
4, 20832, Note_on_c, 1, 55, 77
4, 20921, Note_on_c, 1, 55, 0
4, 20928, Note_on_c, 1, 67, 77
4, 20973, Note_on_c, 1, 67, 0
4, 20976, Note_on_c, 1, 66, 75
4, 21021, Note_on_c, 1, 66, 0
4, 21024, Note_on_c, 1, 64, 73
4, 21069, Note_on_c, 1, 64, 0
4, 21072, Note_on_c, 1, 63, 71
4, 21117, Note_on_c, 1, 63, 0
4, 21120, Note_on_c, 1, 64, 69
4, 21165, Note_on_c, 1, 64, 0
4, 21168, Note_on_c, 1, 62, 71
4, 21213, Note_on_c, 1, 62, 0
4, 21216, Note_on_c, 1, 61, 73
4, 21261, Note_on_c, 1, 61, 0
4, 21264, Note_on_c, 1, 64, 75
4, 21309, Note_on_c, 1, 64, 0
4, 21312, Note_on_c, 1, 62, 77
4, 21357, Note_on_c, 1, 62, 0
4, 21360, Note_on_c, 1, 55, 75
4, 21405, Note_on_c, 1, 55, 0
4, 21408, Note_on_c, 1, 57, 73
4, 21453, Note_on_c, 1, 57, 0
4, 21456, Note_on_c, 1, 45, 72
4, 21501, Note_on_c, 1, 45, 0
4, 21504, Note_on_c, 1, 50, 70
4, 21549, Note_on_c, 1, 50, 0
4, 21552, Note_on_c, 1, 45, 69
4, 21597, Note_on_c, 1, 45, 0
4, 21600, Note_on_c, 1, 38, 69
4, 21645, Note_on_c, 1, 38, 0
4, 21696, Note_on_c, 1, 71, 77
4, 21741, Note_on_c, 1, 71, 0
4, 21744, Note_on_c, 1, 69, 75
4, 21789, Note_on_c, 1, 69, 0
4, 21792, Note_on_c, 1, 68, 73
4, 21837, Note_on_c, 1, 68, 0
4, 21840, Note_on_c, 1, 74, 71
4, 21885, Note_on_c, 1, 74, 0
4, 21888, Note_on_c, 1, 72, 69
4, 21933, Note_on_c, 1, 72, 0
4, 21936, Note_on_c, 1, 71, 71
4, 21981, Note_on_c, 1, 71, 0
4, 21984, Note_on_c, 1, 69, 74
4, 22029, Note_on_c, 1, 69, 0
4, 22080, Note_on_c, 1, 69, 77
4, 22125, Note_on_c, 1, 69, 0
4, 22128, Note_on_c, 1, 67, 75
4, 22173, Note_on_c, 1, 67, 0
4, 22176, Note_on_c, 1, 66, 73
4, 22221, Note_on_c, 1, 66, 0
4, 22224, Note_on_c, 1, 72, 71
4, 22269, Note_on_c, 1, 72, 0
4, 22272, Note_on_c, 1, 71, 69
4, 22317, Note_on_c, 1, 71, 0
4, 22320, Note_on_c, 1, 69, 71
4, 22365, Note_on_c, 1, 69, 0
4, 22368, Note_on_c, 1, 67, 74
4, 22413, Note_on_c, 1, 67, 0
4, 22416, Note_on_c, 1, 59, 77
4, 22461, Note_on_c, 1, 59, 0
4, 22464, Note_on_c, 1, 60, 77
4, 22509, Note_on_c, 1, 60, 0
4, 22512, Note_on_c, 1, 62, 77
4, 22557, Note_on_c, 1, 62, 0
4, 22560, Note_on_c, 1, 60, 78
4, 22605, Note_on_c, 1, 60, 0
4, 22608, Note_on_c, 1, 61, 78
4, 22653, Note_on_c, 1, 61, 0
4, 22656, Note_on_c, 1, 62, 79
4, 22701, Note_on_c, 1, 62, 0
4, 22704, Note_on_c, 1, 64, 79
4, 22749, Note_on_c, 1, 64, 0
4, 22752, Note_on_c, 1, 62, 80
4, 22797, Note_on_c, 1, 62, 0
4, 22800, Note_on_c, 1, 63, 81
4, 22845, Note_on_c, 1, 63, 0
4, 22848, Note_on_c, 1, 64, 81
4, 22937, Note_on_c, 1, 64, 0
4, 22944, Note_on_c, 1, 66, 82
4, 22989, Note_on_c, 1, 66, 0
4, 22992, Note_on_c, 1, 67, 83
4, 23037, Note_on_c, 1, 67, 0
4, 23040, Note_on_c, 1, 67, 83
4, 23040, Note_on_c, 1, 62, 83
4, 23136, Note_on_c, 1, 67, 0
4, 23136, Note_on_c, 1, 66, 85
4, 23181, Note_on_c, 1, 66, 0
4, 23181, Note_on_c, 1, 62, 0
4, 23232, Note_on_c, 1, 59, 77
4, 23232, Note_on_c, 1, 55, 77
4, 23321, Note_on_c, 1, 59, 0
4, 23321, Note_on_c, 1, 55, 0
4, 23424, Note_on_c, 1, 60, 77
4, 23424, Note_on_c, 1, 57, 77
4, 23469, Note_on_c, 1, 60, 0
4, 23469, Note_on_c, 1, 57, 0
4, 23472, Note_on_c, 1, 59, 79
4, 23472, Note_on_c, 1, 55, 79
4, 23517, Note_on_c, 1, 59, 0
4, 23517, Note_on_c, 1, 55, 0
4, 23520, Note_on_c, 1, 57, 81
4, 23520, Note_on_c, 1, 54, 81
4, 23565, Note_on_c, 1, 57, 0
4, 23565, Note_on_c, 1, 54, 0
4, 23568, Note_on_c, 1, 55, 83
4, 23568, Note_on_c, 1, 52, 83
4, 23613, Note_on_c, 1, 55, 0
4, 23613, Note_on_c, 1, 52, 0
4, 23616, Note_on_c, 1, 54, 85
4, 23616, Note_on_c, 1, 50, 85
4, 23705, Note_on_c, 1, 54, 0
4, 23705, Note_on_c, 1, 50, 0
4, 23808, Note_on_c, 1, 43, 77
4, 23853, Note_on_c, 1, 43, 0
4, 23856, Note_on_c, 1, 45, 79
4, 23901, Note_on_c, 1, 45, 0
4, 23904, Note_on_c, 1, 47, 81
4, 23949, Note_on_c, 1, 47, 0
4, 23952, Note_on_c, 1, 43, 83
4, 23997, Note_on_c, 1, 43, 0
4, 24000, Note_on_c, 1, 48, 85
4, 24045, Note_on_c, 1, 48, 0
4, 24048, Note_on_c, 1, 47, 86
4, 24093, Note_on_c, 1, 47, 0
4, 24096, Note_on_c, 1, 48, 88
4, 24141, Note_on_c, 1, 48, 0
4, 24144, Note_on_c, 1, 45, 89
4, 24189, Note_on_c, 1, 45, 0
4, 24192, Note_on_c, 1, 47, 91
4, 24281, Note_on_c, 1, 47, 0
4, 24432, Note_on_c, 1, 48, 87
4, 24477, Note_on_c, 1, 48, 0
4, 24480, Note_on_c, 1, 50, 86
4, 24525, Note_on_c, 1, 50, 0
4, 24528, Note_on_c, 1, 38, 85
4, 24573, Note_on_c, 1, 38, 0
4, 24576, Note_on_c, 1, 43, 85
4, 24621, Note_on_c, 1, 43, 0
4, 24624, Note_on_c, 1, 38, 85
4, 24669, Note_on_c, 1, 38, 0
4, 24672, Note_on_c, 1, 31, 85
4, 24717, Note_on_c, 1, 31, 0
4, 24768, Note_on_c, 1, 71, 77
4, 24813, Note_on_c, 1, 71, 0
4, 24816, Note_on_c, 1, 69, 75
4, 24861, Note_on_c, 1, 69, 0
4, 24864, Note_on_c, 1, 68, 73
4, 24909, Note_on_c, 1, 68, 0
4, 24912, Note_on_c, 1, 74, 71
4, 24957, Note_on_c, 1, 74, 0
4, 24960, Note_on_c, 1, 72, 69
4, 25005, Note_on_c, 1, 72, 0
4, 25008, Note_on_c, 1, 71, 71
4, 25053, Note_on_c, 1, 71, 0
4, 25056, Note_on_c, 1, 69, 74
4, 25101, Note_on_c, 1, 69, 0
4, 25152, Note_on_c, 1, 69, 77
4, 25197, Note_on_c, 1, 69, 0
4, 25200, Note_on_c, 1, 67, 75
4, 25245, Note_on_c, 1, 67, 0
4, 25248, Note_on_c, 1, 66, 73
4, 25293, Note_on_c, 1, 66, 0
4, 25296, Note_on_c, 1, 72, 71
4, 25341, Note_on_c, 1, 72, 0
4, 25344, Note_on_c, 1, 71, 69
4, 25389, Note_on_c, 1, 71, 0
4, 25392, Note_on_c, 1, 69, 71
4, 25437, Note_on_c, 1, 69, 0
4, 25440, Note_on_c, 1, 67, 74
4, 25485, Note_on_c, 1, 67, 0
4, 25488, Note_on_c, 1, 59, 77
4, 25533, Note_on_c, 1, 59, 0
4, 25536, Note_on_c, 1, 60, 77
4, 25581, Note_on_c, 1, 60, 0
4, 25584, Note_on_c, 1, 62, 77
4, 25629, Note_on_c, 1, 62, 0
4, 25632, Note_on_c, 1, 60, 78
4, 25677, Note_on_c, 1, 60, 0
4, 25680, Note_on_c, 1, 61, 78
4, 25725, Note_on_c, 1, 61, 0
4, 25728, Note_on_c, 1, 62, 79
4, 25773, Note_on_c, 1, 62, 0
4, 25776, Note_on_c, 1, 64, 79
4, 25821, Note_on_c, 1, 64, 0
4, 25824, Note_on_c, 1, 62, 80
4, 25869, Note_on_c, 1, 62, 0
4, 25872, Note_on_c, 1, 63, 81
4, 25917, Note_on_c, 1, 63, 0
4, 25920, Note_on_c, 1, 64, 81
4, 26009, Note_on_c, 1, 64, 0
4, 26016, Note_on_c, 1, 66, 82
4, 26061, Note_on_c, 1, 66, 0
4, 26064, Note_on_c, 1, 67, 83
4, 26109, Note_on_c, 1, 67, 0
4, 26112, Note_on_c, 1, 67, 83
4, 26112, Note_on_c, 1, 62, 83
4, 26208, Note_on_c, 1, 67, 0
4, 26208, Note_on_c, 1, 66, 85
4, 26253, Note_on_c, 1, 66, 0
4, 26253, Note_on_c, 1, 62, 0
4, 26304, Note_on_c, 1, 59, 77
4, 26304, Note_on_c, 1, 55, 77
4, 26393, Note_on_c, 1, 59, 0
4, 26393, Note_on_c, 1, 55, 0
4, 26496, Note_on_c, 1, 60, 77
4, 26496, Note_on_c, 1, 57, 77
4, 26541, Note_on_c, 1, 60, 0
4, 26541, Note_on_c, 1, 57, 0
4, 26544, Note_on_c, 1, 59, 79
4, 26544, Note_on_c, 1, 55, 79
4, 26589, Note_on_c, 1, 59, 0
4, 26589, Note_on_c, 1, 55, 0
4, 26592, Note_on_c, 1, 57, 81
4, 26592, Note_on_c, 1, 54, 81
4, 26637, Note_on_c, 1, 57, 0
4, 26637, Note_on_c, 1, 54, 0
4, 26640, Note_on_c, 1, 55, 83
4, 26640, Note_on_c, 1, 52, 83
4, 26685, Note_on_c, 1, 55, 0
4, 26685, Note_on_c, 1, 52, 0
4, 26688, Note_on_c, 1, 54, 85
4, 26688, Note_on_c, 1, 50, 85
4, 26777, Note_on_c, 1, 54, 0
4, 26777, Note_on_c, 1, 50, 0
4, 26880, Note_on_c, 1, 43, 77
4, 26925, Note_on_c, 1, 43, 0
4, 26928, Note_on_c, 1, 45, 79
4, 26973, Note_on_c, 1, 45, 0
4, 26976, Note_on_c, 1, 47, 81
4, 27021, Note_on_c, 1, 47, 0
4, 27024, Note_on_c, 1, 43, 83
4, 27069, Note_on_c, 1, 43, 0
4, 27072, Note_on_c, 1, 48, 85
4, 27117, Note_on_c, 1, 48, 0
4, 27120, Note_on_c, 1, 47, 86
4, 27165, Note_on_c, 1, 47, 0
4, 27168, Note_on_c, 1, 48, 88
4, 27213, Note_on_c, 1, 48, 0
4, 27216, Note_on_c, 1, 45, 89
4, 27261, Note_on_c, 1, 45, 0
4, 27264, Note_on_c, 1, 47, 91
4, 27353, Note_on_c, 1, 47, 0
4, 27504, Note_on_c, 1, 48, 87
4, 27549, Note_on_c, 1, 48, 0
4, 27552, Note_on_c, 1, 50, 86
4, 27597, Note_on_c, 1, 50, 0
4, 27600, Note_on_c, 1, 38, 85
4, 27645, Note_on_c, 1, 38, 0
4, 27648, Note_on_c, 1, 43, 85
4, 27693, Note_on_c, 1, 43, 0
4, 27696, Note_on_c, 1, 38, 85
4, 27741, Note_on_c, 1, 38, 0
4, 27744, Note_on_c, 1, 31, 85
4, 27789, Note_on_c, 1, 31, 0
4, 27984, Note_on_c, 1, 62, 85
4, 27984, Note_on_c, 1, 59, 85
4, 28029, Note_on_c, 1, 62, 0
4, 28029, Note_on_c, 1, 59, 0
4, 28032, Note_on_c, 1, 60, 85
4, 28032, Note_on_c, 1, 57, 85
4, 28121, Note_on_c, 1, 60, 0
4, 28121, Note_on_c, 1, 57, 0
4, 28368, Note_on_c, 1, 54, 85
4, 28413, Note_on_c, 1, 54, 0
4, 28416, Note_on_c, 1, 55, 85
4, 28505, Note_on_c, 1, 55, 0
4, 28512, Note_on_c, 1, 43, 85
4, 28601, Note_on_c, 1, 43, 0
4, 28608, Note_on_c, 1, 67, 69
4, 28697, Note_on_c, 1, 67, 0
4, 28752, Note_on_c, 1, 67, 69
4, 28797, Note_on_c, 1, 67, 0
4, 28800, Note_on_c, 1, 66, 69
4, 28889, Note_on_c, 1, 66, 0
4, 28944, Note_on_c, 1, 66, 69
4, 28989, Note_on_c, 1, 66, 0
4, 28992, Note_on_c, 1, 67, 69
4, 29081, Note_on_c, 1, 67, 0
4, 29088, Note_on_c, 1, 69, 69
4, 29177, Note_on_c, 1, 69, 0
4, 29184, Note_on_c, 1, 62, 69
4, 29273, Note_on_c, 1, 62, 0
4, 29280, Note_on_c, 1, 50, 69
4, 29325, Note_on_c, 1, 50, 0
4, 29520, Note_on_c, 1, 62, 77
4, 29520, Note_on_c, 1, 58, 77
4, 29565, Note_on_c, 1, 62, 0
4, 29565, Note_on_c, 1, 58, 0
4, 29568, Note_on_c, 1, 60, 77
4, 29568, Note_on_c, 1, 57, 77
4, 29657, Note_on_c, 1, 60, 0
4, 29657, Note_on_c, 1, 57, 0
4, 30000, Note_on_c, 1, 54, 77
4, 30045, Note_on_c, 1, 54, 0
4, 30048, Note_on_c, 1, 55, 77
4, 30137, Note_on_c, 1, 55, 0
4, 30288, Note_on_c, 1, 67, 69
4, 30333, Note_on_c, 1, 67, 0
4, 30336, Note_on_c, 1, 65, 69
4, 30425, Note_on_c, 1, 65, 0
4, 30480, Note_on_c, 1, 65, 69
4, 30525, Note_on_c, 1, 65, 0
4, 30528, Note_on_c, 1, 67, 69
4, 30617, Note_on_c, 1, 67, 0
4, 30624, Note_on_c, 1, 69, 69
4, 30713, Note_on_c, 1, 69, 0
4, 30720, Note_on_c, 1, 62, 69
4, 30809, Note_on_c, 1, 62, 0
4, 30816, Note_on_c, 1, 50, 69
4, 30905, Note_on_c, 1, 50, 0
4, 31152, Note_on_c, 1, 59, 77
4, 31200, Note_on_c, 1, 59, 0
4, 31200, Note_on_c, 1, 60, 77
4, 31245, Note_on_c, 1, 60, 0
4, 31344, Note_on_c, 1, 61, 77
4, 31392, Note_on_c, 1, 61, 0
4, 31392, Note_on_c, 1, 62, 78
4, 31437, Note_on_c, 1, 62, 0
4, 31536, Note_on_c, 1, 66, 80
4, 31584, Note_on_c, 1, 66, 0
4, 31584, Note_on_c, 1, 67, 81
4, 31629, Note_on_c, 1, 67, 0
4, 31920, Note_on_c, 1, 55, 84
4, 31965, Note_on_c, 1, 55, 0
4, 31968, Note_on_c, 1, 54, 83
4, 32013, Note_on_c, 1, 54, 0
4, 32016, Note_on_c, 1, 66, 82
4, 32061, Note_on_c, 1, 66, 0
4, 32064, Note_on_c, 1, 67, 81
4, 32109, Note_on_c, 1, 67, 0
4, 32112, Note_on_c, 1, 58, 80
4, 32157, Note_on_c, 1, 58, 0
4, 32160, Note_on_c, 1, 60, 79
4, 32205, Note_on_c, 1, 60, 0
4, 32208, Note_on_c, 1, 62, 78
4, 32253, Note_on_c, 1, 62, 0
4, 32256, Note_on_c, 1, 55, 77
4, 32301, Note_on_c, 1, 55, 0
4, 32304, Note_on_c, 1, 50, 77
4, 32349, Note_on_c, 1, 50, 0
4, 32352, Note_on_c, 1, 43, 77
4, 32397, Note_on_c, 1, 43, 0
4, 32688, Note_on_c, 1, 59, 77
4, 32736, Note_on_c, 1, 59, 0
4, 32736, Note_on_c, 1, 60, 77
4, 32781, Note_on_c, 1, 60, 0
4, 32880, Note_on_c, 1, 61, 77
4, 32928, Note_on_c, 1, 61, 0
4, 32928, Note_on_c, 1, 62, 78
4, 32973, Note_on_c, 1, 62, 0
4, 33072, Note_on_c, 1, 66, 80
4, 33120, Note_on_c, 1, 66, 0
4, 33120, Note_on_c, 1, 67, 81
4, 33165, Note_on_c, 1, 67, 0
4, 33456, Note_on_c, 1, 55, 84
4, 33501, Note_on_c, 1, 55, 0
4, 33504, Note_on_c, 1, 54, 83
4, 33549, Note_on_c, 1, 54, 0
4, 33552, Note_on_c, 1, 66, 82
4, 33597, Note_on_c, 1, 66, 0
4, 33600, Note_on_c, 1, 67, 81
4, 33645, Note_on_c, 1, 67, 0
4, 33648, Note_on_c, 1, 58, 80
4, 33693, Note_on_c, 1, 58, 0
4, 33696, Note_on_c, 1, 60, 79
4, 33741, Note_on_c, 1, 60, 0
4, 33744, Note_on_c, 1, 62, 78
4, 33789, Note_on_c, 1, 62, 0
4, 33792, Note_on_c, 1, 55, 77
4, 33837, Note_on_c, 1, 55, 0
4, 33840, Note_on_c, 1, 50, 77
4, 33885, Note_on_c, 1, 50, 0
4, 33888, Note_on_c, 1, 43, 77
4, 33933, Note_on_c, 1, 43, 0
4, 33984, Note_on_c, 1, 55, 77
4, 34007, Note_on_c, 1, 55, 0
4, 34008, Note_on_c, 1, 62, 77
4, 34031, Note_on_c, 1, 62, 0
4, 34032, Note_on_c, 1, 59, 77
4, 34055, Note_on_c, 1, 59, 0
4, 34056, Note_on_c, 1, 62, 77
4, 34079, Note_on_c, 1, 62, 0
4, 34080, Note_on_c, 1, 55, 77
4, 34103, Note_on_c, 1, 55, 0
4, 34104, Note_on_c, 1, 62, 77
4, 34127, Note_on_c, 1, 62, 0
4, 34128, Note_on_c, 1, 59, 77
4, 34151, Note_on_c, 1, 59, 0
4, 34152, Note_on_c, 1, 62, 77
4, 34175, Note_on_c, 1, 62, 0
4, 34176, Note_on_c, 1, 57, 77
4, 34199, Note_on_c, 1, 57, 0
4, 34200, Note_on_c, 1, 62, 77
4, 34223, Note_on_c, 1, 62, 0
4, 34224, Note_on_c, 1, 60, 77
4, 34247, Note_on_c, 1, 60, 0
4, 34248, Note_on_c, 1, 62, 77
4, 34271, Note_on_c, 1, 62, 0
4, 34272, Note_on_c, 1, 57, 77
4, 34295, Note_on_c, 1, 57, 0
4, 34296, Note_on_c, 1, 62, 77
4, 34319, Note_on_c, 1, 62, 0
4, 34320, Note_on_c, 1, 60, 77
4, 34343, Note_on_c, 1, 60, 0
4, 34344, Note_on_c, 1, 62, 77
4, 34367, Note_on_c, 1, 62, 0
4, 34368, Note_on_c, 1, 54, 77
4, 34391, Note_on_c, 1, 54, 0
4, 34392, Note_on_c, 1, 62, 77
4, 34415, Note_on_c, 1, 62, 0
4, 34416, Note_on_c, 1, 57, 77
4, 34439, Note_on_c, 1, 57, 0
4, 34440, Note_on_c, 1, 62, 77
4, 34463, Note_on_c, 1, 62, 0
4, 34464, Note_on_c, 1, 54, 77
4, 34487, Note_on_c, 1, 54, 0
4, 34488, Note_on_c, 1, 62, 77
4, 34511, Note_on_c, 1, 62, 0
4, 34512, Note_on_c, 1, 57, 77
4, 34535, Note_on_c, 1, 57, 0
4, 34536, Note_on_c, 1, 62, 77
4, 34559, Note_on_c, 1, 62, 0
4, 34560, Note_on_c, 1, 55, 77
4, 34583, Note_on_c, 1, 55, 0
4, 34584, Note_on_c, 1, 62, 77
4, 34607, Note_on_c, 1, 62, 0
4, 34608, Note_on_c, 1, 59, 77
4, 34631, Note_on_c, 1, 59, 0
4, 34632, Note_on_c, 1, 62, 77
4, 34655, Note_on_c, 1, 62, 0
4, 34656, Note_on_c, 1, 55, 77
4, 34679, Note_on_c, 1, 55, 0
4, 34680, Note_on_c, 1, 62, 77
4, 34703, Note_on_c, 1, 62, 0
4, 34704, Note_on_c, 1, 59, 77
4, 34727, Note_on_c, 1, 59, 0
4, 34728, Note_on_c, 1, 62, 77
4, 34751, Note_on_c, 1, 62, 0
4, 34752, Note_on_c, 1, 55, 77
4, 34775, Note_on_c, 1, 55, 0
4, 34776, Note_on_c, 1, 64, 77
4, 34799, Note_on_c, 1, 64, 0
4, 34800, Note_on_c, 1, 59, 77
4, 34823, Note_on_c, 1, 59, 0
4, 34824, Note_on_c, 1, 64, 77
4, 34847, Note_on_c, 1, 64, 0
4, 34848, Note_on_c, 1, 55, 77
4, 34871, Note_on_c, 1, 55, 0
4, 34872, Note_on_c, 1, 64, 77
4, 34895, Note_on_c, 1, 64, 0
4, 34896, Note_on_c, 1, 59, 77
4, 34919, Note_on_c, 1, 59, 0
4, 34920, Note_on_c, 1, 64, 77
4, 34943, Note_on_c, 1, 64, 0
4, 34944, Note_on_c, 1, 54, 77
4, 34967, Note_on_c, 1, 54, 0
4, 34968, Note_on_c, 1, 62, 77
4, 34991, Note_on_c, 1, 62, 0
4, 34992, Note_on_c, 1, 57, 77
4, 35015, Note_on_c, 1, 57, 0
4, 35016, Note_on_c, 1, 62, 77
4, 35039, Note_on_c, 1, 62, 0
4, 35040, Note_on_c, 1, 54, 77
4, 35063, Note_on_c, 1, 54, 0
4, 35064, Note_on_c, 1, 62, 77
4, 35087, Note_on_c, 1, 62, 0
4, 35088, Note_on_c, 1, 57, 77
4, 35111, Note_on_c, 1, 57, 0
4, 35112, Note_on_c, 1, 62, 77
4, 35135, Note_on_c, 1, 62, 0
4, 35136, Note_on_c, 1, 55, 77
4, 35225, Note_on_c, 1, 55, 0
4, 35232, Note_on_c, 1, 57, 77
4, 35321, Note_on_c, 1, 57, 0
4, 35328, Note_on_c, 1, 50, 77
4, 35351, Note_on_c, 1, 50, 0
4, 35352, Note_on_c, 1, 54, 77
4, 35375, Note_on_c, 1, 54, 0
4, 35376, Note_on_c, 1, 57, 77
4, 35399, Note_on_c, 1, 57, 0
4, 35400, Note_on_c, 1, 62, 77
4, 35423, Note_on_c, 1, 62, 0
4, 35424, Note_on_c, 1, 50, 77
4, 35469, Note_on_c, 1, 50, 0
4, 35712, Note_on_c, 1, 71, 77
4, 35712, Note_on_c, 1, 62, 77
4, 35808, Note_on_c, 1, 71, 0
4, 35808, Note_on_c, 1, 69, 77
4, 35853, Note_on_c, 1, 69, 0
4, 35853, Note_on_c, 1, 62, 0
4, 36096, Note_on_c, 1, 67, 77
4, 36185, Note_on_c, 1, 67, 0
4, 36192, Note_on_c, 1, 55, 77
4, 36281, Note_on_c, 1, 55, 0
4, 36288, Note_on_c, 1, 55, 77
4, 36288, Note_on_c, 1, 43, 77
4, 36377, Note_on_c, 1, 55, 0
4, 36377, Note_on_c, 1, 43, 0
4, 36432, Note_on_c, 1, 55, 77
4, 36477, Note_on_c, 1, 55, 0
4, 36480, Note_on_c, 1, 54, 77
4, 36519, Note_on_c, 1, 54, 0
4, 36576, Note_on_c, 1, 55, 77
4, 36615, Note_on_c, 1, 55, 0
4, 36672, Note_on_c, 1, 57, 77
4, 36711, Note_on_c, 1, 57, 0
4, 36768, Note_on_c, 1, 45, 77
4, 36857, Note_on_c, 1, 45, 0
4, 36864, Note_on_c, 1, 50, 77
4, 36953, Note_on_c, 1, 50, 0
4, 36960, Note_on_c, 1, 38, 77
4, 37049, Note_on_c, 1, 38, 0
4, 37056, Note_on_c, 1, 56, 77
4, 37079, Note_on_c, 1, 56, 0
4, 37080, Note_on_c, 1, 64, 77
4, 37103, Note_on_c, 1, 64, 0
4, 37104, Note_on_c, 1, 59, 77
4, 37127, Note_on_c, 1, 59, 0
4, 37128, Note_on_c, 1, 64, 77
4, 37151, Note_on_c, 1, 64, 0
4, 37152, Note_on_c, 1, 56, 77
4, 37175, Note_on_c, 1, 56, 0
4, 37176, Note_on_c, 1, 64, 77
4, 37199, Note_on_c, 1, 64, 0
4, 37200, Note_on_c, 1, 59, 77
4, 37223, Note_on_c, 1, 59, 0
4, 37224, Note_on_c, 1, 64, 77
4, 37247, Note_on_c, 1, 64, 0
4, 37248, Note_on_c, 1, 57, 77
4, 37271, Note_on_c, 1, 57, 0
4, 37272, Note_on_c, 1, 64, 77
4, 37295, Note_on_c, 1, 64, 0
4, 37296, Note_on_c, 1, 61, 77
4, 37319, Note_on_c, 1, 61, 0
4, 37320, Note_on_c, 1, 64, 77
4, 37343, Note_on_c, 1, 64, 0
4, 37344, Note_on_c, 1, 57, 77
4, 37367, Note_on_c, 1, 57, 0
4, 37368, Note_on_c, 1, 64, 77
4, 37391, Note_on_c, 1, 64, 0
4, 37392, Note_on_c, 1, 60, 77
4, 37415, Note_on_c, 1, 60, 0
4, 37416, Note_on_c, 1, 64, 77
4, 37439, Note_on_c, 1, 64, 0
4, 37440, Note_on_c, 1, 54, 77
4, 37463, Note_on_c, 1, 54, 0
4, 37464, Note_on_c, 1, 62, 77
4, 37487, Note_on_c, 1, 62, 0
4, 37488, Note_on_c, 1, 57, 77
4, 37511, Note_on_c, 1, 57, 0
4, 37512, Note_on_c, 1, 62, 77
4, 37535, Note_on_c, 1, 62, 0
4, 37536, Note_on_c, 1, 54, 77
4, 37559, Note_on_c, 1, 54, 0
4, 37560, Note_on_c, 1, 62, 77
4, 37583, Note_on_c, 1, 62, 0
4, 37584, Note_on_c, 1, 57, 77
4, 37607, Note_on_c, 1, 57, 0
4, 37608, Note_on_c, 1, 62, 77
4, 37631, Note_on_c, 1, 62, 0
4, 37632, Note_on_c, 1, 55, 77
4, 37655, Note_on_c, 1, 55, 0
4, 37656, Note_on_c, 1, 62, 77
4, 37679, Note_on_c, 1, 62, 0
4, 37680, Note_on_c, 1, 59, 77
4, 37703, Note_on_c, 1, 59, 0
4, 37704, Note_on_c, 1, 62, 77
4, 37727, Note_on_c, 1, 62, 0
4, 37728, Note_on_c, 1, 55, 77
4, 37751, Note_on_c, 1, 55, 0
4, 37752, Note_on_c, 1, 62, 77
4, 37775, Note_on_c, 1, 62, 0
4, 37776, Note_on_c, 1, 59, 77
4, 37799, Note_on_c, 1, 59, 0
4, 37800, Note_on_c, 1, 62, 77
4, 37823, Note_on_c, 1, 62, 0
4, 37824, Note_on_c, 1, 60, 77
4, 37913, Note_on_c, 1, 60, 0
4, 37968, Note_on_c, 1, 60, 79
4, 38013, Note_on_c, 1, 60, 0
4, 38016, Note_on_c, 1, 62, 79
4, 38105, Note_on_c, 1, 62, 0
4, 38160, Note_on_c, 1, 62, 81
4, 38205, Note_on_c, 1, 62, 0
4, 38208, Note_on_c, 1, 64, 82
4, 38297, Note_on_c, 1, 64, 0
4, 38304, Note_on_c, 1, 66, 83
4, 38349, Note_on_c, 1, 66, 0
4, 38352, Note_on_c, 1, 67, 84
4, 38496, Note_on_c, 1, 67, 0
4, 38496, Note_on_c, 1, 66, 79
4, 38541, Note_on_c, 1, 66, 0
4, 38592, Note_on_c, 1, 55, 77
4, 38615, Note_on_c, 1, 55, 0
4, 38616, Note_on_c, 1, 62, 77
4, 38639, Note_on_c, 1, 62, 0
4, 38640, Note_on_c, 1, 59, 77
4, 38663, Note_on_c, 1, 59, 0
4, 38664, Note_on_c, 1, 62, 77
4, 38687, Note_on_c, 1, 62, 0
4, 38688, Note_on_c, 1, 55, 77
4, 38711, Note_on_c, 1, 55, 0
4, 38712, Note_on_c, 1, 62, 77
4, 38735, Note_on_c, 1, 62, 0
4, 38736, Note_on_c, 1, 59, 77
4, 38759, Note_on_c, 1, 59, 0
4, 38760, Note_on_c, 1, 62, 77
4, 38783, Note_on_c, 1, 62, 0
4, 38784, Note_on_c, 1, 57, 77
4, 38807, Note_on_c, 1, 57, 0
4, 38808, Note_on_c, 1, 62, 77
4, 38831, Note_on_c, 1, 62, 0
4, 38832, Note_on_c, 1, 60, 77
4, 38855, Note_on_c, 1, 60, 0
4, 38856, Note_on_c, 1, 62, 77
4, 38879, Note_on_c, 1, 62, 0
4, 38880, Note_on_c, 1, 57, 77
4, 38903, Note_on_c, 1, 57, 0
4, 38904, Note_on_c, 1, 62, 77
4, 38927, Note_on_c, 1, 62, 0
4, 38928, Note_on_c, 1, 60, 77
4, 38951, Note_on_c, 1, 60, 0
4, 38952, Note_on_c, 1, 62, 77
4, 38975, Note_on_c, 1, 62, 0
4, 38976, Note_on_c, 1, 54, 77
4, 38999, Note_on_c, 1, 54, 0
4, 39000, Note_on_c, 1, 60, 77
4, 39023, Note_on_c, 1, 60, 0
4, 39024, Note_on_c, 1, 57, 77
4, 39047, Note_on_c, 1, 57, 0
4, 39048, Note_on_c, 1, 60, 77
4, 39071, Note_on_c, 1, 60, 0
4, 39072, Note_on_c, 1, 54, 77
4, 39095, Note_on_c, 1, 54, 0
4, 39096, Note_on_c, 1, 60, 77
4, 39119, Note_on_c, 1, 60, 0
4, 39120, Note_on_c, 1, 57, 77
4, 39143, Note_on_c, 1, 57, 0
4, 39144, Note_on_c, 1, 60, 77
4, 39167, Note_on_c, 1, 60, 0
4, 39168, Note_on_c, 1, 55, 77
4, 39191, Note_on_c, 1, 55, 0
4, 39192, Note_on_c, 1, 62, 77
4, 39215, Note_on_c, 1, 62, 0
4, 39216, Note_on_c, 1, 59, 77
4, 39239, Note_on_c, 1, 59, 0
4, 39240, Note_on_c, 1, 62, 77
4, 39263, Note_on_c, 1, 62, 0
4, 39264, Note_on_c, 1, 55, 77
4, 39287, Note_on_c, 1, 55, 0
4, 39288, Note_on_c, 1, 62, 77
4, 39311, Note_on_c, 1, 62, 0
4, 39312, Note_on_c, 1, 59, 77
4, 39335, Note_on_c, 1, 59, 0
4, 39336, Note_on_c, 1, 62, 77
4, 39359, Note_on_c, 1, 62, 0
4, 39360, Note_on_c, 1, 48, 77
4, 39383, Note_on_c, 1, 48, 0
4, 39384, Note_on_c, 1, 55, 77
4, 39407, Note_on_c, 1, 55, 0
4, 39408, Note_on_c, 1, 52, 77
4, 39431, Note_on_c, 1, 52, 0
4, 39432, Note_on_c, 1, 55, 77
4, 39455, Note_on_c, 1, 55, 0
4, 39456, Note_on_c, 1, 48, 77
4, 39479, Note_on_c, 1, 48, 0
4, 39480, Note_on_c, 1, 55, 77
4, 39503, Note_on_c, 1, 55, 0
4, 39504, Note_on_c, 1, 52, 77
4, 39527, Note_on_c, 1, 52, 0
4, 39528, Note_on_c, 1, 55, 77
4, 39551, Note_on_c, 1, 55, 0
4, 39552, Note_on_c, 1, 47, 77
4, 39641, Note_on_c, 1, 47, 0
4, 39696, Note_on_c, 1, 47, 77
4, 39741, Note_on_c, 1, 47, 0
4, 39744, Note_on_c, 1, 48, 77
4, 39833, Note_on_c, 1, 48, 0
4, 39840, Note_on_c, 1, 50, 77
4, 39929, Note_on_c, 1, 50, 0
4, 39936, Note_on_c, 1, 55, 77
4, 40025, Note_on_c, 1, 55, 0
4, 40032, Note_on_c, 1, 43, 77
4, 40077, Note_on_c, 1, 43, 0
4, 40272, Note_on_c, 1, 68, 77
4, 40317, Note_on_c, 1, 68, 0
4, 40320, Note_on_c, 1, 69, 77
4, 40409, Note_on_c, 1, 69, 0
4, 40416, Note_on_c, 1, 57, 77
4, 40461, Note_on_c, 1, 57, 0
4, 40704, Note_on_c, 1, 67, 77
4, 40793, Note_on_c, 1, 67, 0
4, 40800, Note_on_c, 1, 55, 77
4, 40845, Note_on_c, 1, 55, 0
4, 40848, Note_on_c, 1, 59, 77
4, 40893, Note_on_c, 1, 59, 0
4, 40896, Note_on_c, 1, 60, 77
4, 40985, Note_on_c, 1, 60, 0
4, 41040, Note_on_c, 1, 60, 79
4, 41085, Note_on_c, 1, 60, 0
4, 41088, Note_on_c, 1, 62, 79
4, 41177, Note_on_c, 1, 62, 0
4, 41232, Note_on_c, 1, 62, 81
4, 41277, Note_on_c, 1, 62, 0
4, 41280, Note_on_c, 1, 64, 82
4, 41369, Note_on_c, 1, 64, 0
4, 41376, Note_on_c, 1, 66, 83
4, 41421, Note_on_c, 1, 66, 0
4, 41424, Note_on_c, 1, 67, 84
4, 41568, Note_on_c, 1, 67, 0
4, 41568, Note_on_c, 1, 66, 79
4, 41613, Note_on_c, 1, 66, 0
4, 41664, Note_on_c, 1, 55, 77
4, 41687, Note_on_c, 1, 55, 0
4, 41688, Note_on_c, 1, 62, 77
4, 41711, Note_on_c, 1, 62, 0
4, 41712, Note_on_c, 1, 59, 77
4, 41735, Note_on_c, 1, 59, 0
4, 41736, Note_on_c, 1, 62, 77
4, 41759, Note_on_c, 1, 62, 0
4, 41760, Note_on_c, 1, 55, 77
4, 41783, Note_on_c, 1, 55, 0
4, 41784, Note_on_c, 1, 62, 77
4, 41807, Note_on_c, 1, 62, 0
4, 41808, Note_on_c, 1, 59, 77
4, 41831, Note_on_c, 1, 59, 0
4, 41832, Note_on_c, 1, 62, 77
4, 41855, Note_on_c, 1, 62, 0
4, 41856, Note_on_c, 1, 57, 77
4, 41879, Note_on_c, 1, 57, 0
4, 41880, Note_on_c, 1, 62, 77
4, 41903, Note_on_c, 1, 62, 0
4, 41904, Note_on_c, 1, 60, 77
4, 41927, Note_on_c, 1, 60, 0
4, 41928, Note_on_c, 1, 62, 77
4, 41951, Note_on_c, 1, 62, 0
4, 41952, Note_on_c, 1, 57, 77
4, 41975, Note_on_c, 1, 57, 0
4, 41976, Note_on_c, 1, 62, 77
4, 41999, Note_on_c, 1, 62, 0
4, 42000, Note_on_c, 1, 60, 77
4, 42023, Note_on_c, 1, 60, 0
4, 42024, Note_on_c, 1, 62, 77
4, 42047, Note_on_c, 1, 62, 0
4, 42048, Note_on_c, 1, 54, 77
4, 42071, Note_on_c, 1, 54, 0
4, 42072, Note_on_c, 1, 60, 77
4, 42095, Note_on_c, 1, 60, 0
4, 42096, Note_on_c, 1, 57, 77
4, 42119, Note_on_c, 1, 57, 0
4, 42120, Note_on_c, 1, 60, 77
4, 42143, Note_on_c, 1, 60, 0
4, 42144, Note_on_c, 1, 54, 77
4, 42167, Note_on_c, 1, 54, 0
4, 42168, Note_on_c, 1, 60, 77
4, 42191, Note_on_c, 1, 60, 0
4, 42192, Note_on_c, 1, 57, 77
4, 42215, Note_on_c, 1, 57, 0
4, 42216, Note_on_c, 1, 60, 77
4, 42239, Note_on_c, 1, 60, 0
4, 42240, Note_on_c, 1, 55, 77
4, 42263, Note_on_c, 1, 55, 0
4, 42264, Note_on_c, 1, 62, 77
4, 42287, Note_on_c, 1, 62, 0
4, 42288, Note_on_c, 1, 59, 77
4, 42311, Note_on_c, 1, 59, 0
4, 42312, Note_on_c, 1, 62, 77
4, 42335, Note_on_c, 1, 62, 0
4, 42336, Note_on_c, 1, 55, 77
4, 42359, Note_on_c, 1, 55, 0
4, 42360, Note_on_c, 1, 62, 77
4, 42383, Note_on_c, 1, 62, 0
4, 42384, Note_on_c, 1, 59, 77
4, 42407, Note_on_c, 1, 59, 0
4, 42408, Note_on_c, 1, 62, 77
4, 42431, Note_on_c, 1, 62, 0
4, 42432, Note_on_c, 1, 48, 77
4, 42455, Note_on_c, 1, 48, 0
4, 42456, Note_on_c, 1, 55, 77
4, 42479, Note_on_c, 1, 55, 0
4, 42480, Note_on_c, 1, 52, 77
4, 42503, Note_on_c, 1, 52, 0
4, 42504, Note_on_c, 1, 55, 77
4, 42527, Note_on_c, 1, 55, 0
4, 42528, Note_on_c, 1, 48, 77
4, 42551, Note_on_c, 1, 48, 0
4, 42552, Note_on_c, 1, 55, 77
4, 42575, Note_on_c, 1, 55, 0
4, 42576, Note_on_c, 1, 52, 77
4, 42599, Note_on_c, 1, 52, 0
4, 42600, Note_on_c, 1, 55, 77
4, 42623, Note_on_c, 1, 55, 0
4, 42624, Note_on_c, 1, 47, 77
4, 42713, Note_on_c, 1, 47, 0
4, 42768, Note_on_c, 1, 47, 77
4, 42813, Note_on_c, 1, 47, 0
4, 42816, Note_on_c, 1, 48, 77
4, 42905, Note_on_c, 1, 48, 0
4, 42912, Note_on_c, 1, 50, 77
4, 43001, Note_on_c, 1, 50, 0
4, 43008, Note_on_c, 1, 55, 77
4, 43141, Note_on_c, 1, 55, 0
4, 43200, Note_on_c, 1, 55, 4
4, 43289, Note_on_c, 1, 55, 0
4, 43296, End_track
5, 0, Start_track
5, 0, Program_c, 1, 1
5, 0, Control_c, 1, 7, 127
5, 0, Control_c, 1, 10, 64
5, 4560, Note_on_c, 1, 61, 83
5, 4605, Note_on_c, 1, 61, 0
5, 4608, Note_on_c, 1, 62, 83
5, 4749, Note_on_c, 1, 62, 0
5, 7632, Note_on_c, 1, 61, 83
5, 7677, Note_on_c, 1, 61, 0
5, 7680, Note_on_c, 1, 62, 83
5, 7821, Note_on_c, 1, 62, 0
5, 13776, Note_on_c, 1, 61, 83
5, 13821, Note_on_c, 1, 61, 0
5, 13824, Note_on_c, 1, 62, 83
5, 13913, Note_on_c, 1, 62, 0
5, 13920, Note_on_c, 1, 62, 85
5, 13965, Note_on_c, 1, 62, 0
5, 16848, Note_on_c, 1, 61, 83
5, 16893, Note_on_c, 1, 61, 0
5, 16896, Note_on_c, 1, 62, 83
5, 16985, Note_on_c, 1, 62, 0
5, 16992, Note_on_c, 1, 62, 85
5, 17037, Note_on_c, 1, 62, 0
5, 38400, Note_on_c, 1, 62, 85
5, 38541, Note_on_c, 1, 62, 0
5, 41472, Note_on_c, 1, 62, 85
5, 41613, Note_on_c, 1, 62, 0
5, 43200, End_track
6, 0, Start_track
6, 0, Title_t, "Sonata III Haydn"
6, 0, End_track
0, 0, End_of_file
