0, 0, Header, 1, 6, 96
1, 0, Start_track
1, 0, Copyright_t, "Copyright  1994-2002 Mozart Music Software"
1, 0, Text_t, "Piano Solo\015\012"
1, 0, Text_t, "<composer>\015\012"
1, 0, Sequencer_specific, 16, 68, 87, 77, 90, 86, 82, 83, 78, 32, 55, 46, 48, 46, 55, 46, 48
1, 0, Time_signature, 2, 2, 24, 8
1, 0, Tempo, 120000
1, 0, Key_signature, 2, "major"
1, 180, Tempo, 810810
1, 7488, Tempo, 461538
1, 7584, Tempo, 810810
1, 11508, Tempo, 810810
1, 18816, Tempo, 461538
1, 18912, Tempo, 810810
1, 25152, Tempo, 461538
1, 25248, Tempo, 810810
1, 26544, Tempo, 1500000
1, 26640, Tempo, 810810
1, 32640, Tempo, 461538
1, 32736, Tempo, 810810
1, 39360, Tempo, 461538
1, 39456, Tempo, 810810
1, 40752, Tempo, 1500000
1, 40848, Tempo, 810810
1, 46848, Tempo, 461538
1, 46944, Tempo, 810810
1, 51264, End_track
2, 0, Start_track
2, 0, Program_c, 0, 0
2, 0, Control_c, 0, 7, 127
2, 0, Control_c, 0, 10, 64
2, 180, Note_on_c, 0, 81, 75
2, 180, Note_on_c, 0, 78, 75
2, 192, Note_on_c, 0, 81, 0
2, 192, Note_on_c, 0, 78, 0
2, 192, Note_on_c, 0, 81, 75
2, 192, Note_on_c, 0, 78, 75
2, 270, Note_on_c, 0, 81, 0
2, 270, Note_on_c, 0, 78, 0
2, 276, Note_on_c, 0, 78, 75
2, 276, Note_on_c, 0, 74, 75
2, 288, Note_on_c, 0, 78, 0
2, 288, Note_on_c, 0, 74, 0
2, 288, Note_on_c, 0, 78, 75
2, 288, Note_on_c, 0, 74, 75
2, 366, Note_on_c, 0, 78, 0
2, 366, Note_on_c, 0, 74, 0
2, 372, Note_on_c, 0, 74, 75
2, 372, Note_on_c, 0, 66, 75
2, 384, Note_on_c, 0, 74, 0
2, 384, Note_on_c, 0, 66, 0
2, 384, Note_on_c, 0, 74, 75
2, 384, Note_on_c, 0, 66, 75
2, 473, Note_on_c, 0, 74, 0
2, 473, Note_on_c, 0, 66, 0
2, 516, Note_on_c, 0, 69, 75
2, 516, Note_on_c, 0, 66, 75
2, 528, Note_on_c, 0, 69, 0
2, 528, Note_on_c, 0, 66, 0
2, 528, Note_on_c, 0, 69, 75
2, 528, Note_on_c, 0, 66, 75
2, 562, Note_on_c, 0, 69, 0
2, 562, Note_on_c, 0, 66, 0
2, 564, Note_on_c, 0, 69, 75
2, 564, Note_on_c, 0, 66, 75
2, 576, Note_on_c, 0, 69, 0
2, 576, Note_on_c, 0, 66, 0
2, 576, Note_on_c, 0, 70, 91
2, 576, Note_on_c, 0, 66, 91
2, 672, Note_on_c, 0, 70, 0
2, 672, Note_on_c, 0, 66, 0
2, 672, Note_on_c, 0, 71, 75
2, 672, Note_on_c, 0, 67, 75
2, 706, Note_on_c, 0, 71, 0
2, 706, Note_on_c, 0, 67, 0
2, 708, Note_on_c, 0, 59, 75
2, 720, Note_on_c, 0, 59, 0
2, 720, Note_on_c, 0, 67, 75
2, 754, Note_on_c, 0, 67, 0
2, 756, Note_on_c, 0, 64, 75
2, 768, Note_on_c, 0, 64, 0
2, 768, Note_on_c, 0, 62, 75
2, 813, Note_on_c, 0, 62, 0
2, 816, Note_on_c, 0, 61, 71
2, 826, Note_on_c, 0, 61, 0
2, 826, Note_on_c, 0, 62, 71
2, 836, Note_on_c, 0, 62, 0
2, 836, Note_on_c, 0, 61, 70
2, 846, Note_on_c, 0, 61, 0
2, 846, Note_on_c, 0, 59, 70
2, 855, Note_on_c, 0, 59, 0
2, 855, Note_on_c, 0, 61, 69
2, 864, Note_on_c, 0, 61, 0
2, 864, Note_on_c, 0, 62, 69
2, 931, Note_on_c, 0, 62, 0
2, 948, Note_on_c, 0, 81, 75
2, 948, Note_on_c, 0, 78, 75
2, 960, Note_on_c, 0, 81, 0
2, 960, Note_on_c, 0, 78, 0
2, 960, Note_on_c, 0, 81, 75
2, 960, Note_on_c, 0, 78, 75
2, 1038, Note_on_c, 0, 81, 0
2, 1038, Note_on_c, 0, 78, 0
2, 1044, Note_on_c, 0, 78, 75
2, 1044, Note_on_c, 0, 74, 75
2, 1056, Note_on_c, 0, 78, 0
2, 1056, Note_on_c, 0, 74, 0
2, 1056, Note_on_c, 0, 78, 75
2, 1056, Note_on_c, 0, 74, 75
2, 1134, Note_on_c, 0, 78, 0
2, 1134, Note_on_c, 0, 74, 0
2, 1140, Note_on_c, 0, 74, 75
2, 1140, Note_on_c, 0, 66, 75
2, 1152, Note_on_c, 0, 74, 0
2, 1152, Note_on_c, 0, 66, 0
2, 1152, Note_on_c, 0, 74, 75
2, 1152, Note_on_c, 0, 66, 75
2, 1241, Note_on_c, 0, 74, 0
2, 1241, Note_on_c, 0, 66, 0
2, 1264, Note_on_c, 0, 62, 75
2, 1279, Note_on_c, 0, 62, 0
2, 1280, Note_on_c, 0, 64, 75
2, 1295, Note_on_c, 0, 64, 0
2, 1296, Note_on_c, 0, 66, 75
2, 1311, Note_on_c, 0, 66, 0
2, 1312, Note_on_c, 0, 67, 75
2, 1327, Note_on_c, 0, 67, 0
2, 1328, Note_on_c, 0, 69, 75
2, 1343, Note_on_c, 0, 69, 0
2, 1344, Note_on_c, 0, 70, 91
2, 1440, Note_on_c, 0, 70, 0
2, 1440, Note_on_c, 0, 71, 75
2, 1455, Note_on_c, 0, 71, 0
2, 1456, Note_on_c, 0, 79, 75
2, 1471, Note_on_c, 0, 79, 0
2, 1472, Note_on_c, 0, 78, 75
2, 1487, Note_on_c, 0, 78, 0
2, 1488, Note_on_c, 0, 79, 75
2, 1503, Note_on_c, 0, 79, 0
2, 1504, Note_on_c, 0, 74, 75
2, 1519, Note_on_c, 0, 74, 0
2, 1520, Note_on_c, 0, 71, 75
2, 1535, Note_on_c, 0, 71, 0
2, 1536, Note_on_c, 0, 71, 91
2, 1632, Note_on_c, 0, 71, 0
2, 1632, Note_on_c, 0, 69, 75
2, 1647, Note_on_c, 0, 69, 0
2, 1648, Note_on_c, 0, 74, 75
2, 1663, Note_on_c, 0, 74, 0
2, 1664, Note_on_c, 0, 73, 75
2, 1679, Note_on_c, 0, 73, 0
2, 1680, Note_on_c, 0, 74, 75
2, 1695, Note_on_c, 0, 74, 0
2, 1696, Note_on_c, 0, 69, 75
2, 1711, Note_on_c, 0, 69, 0
2, 1712, Note_on_c, 0, 66, 75
2, 1727, Note_on_c, 0, 66, 0
2, 1728, Note_on_c, 0, 67, 75
2, 1751, Note_on_c, 0, 67, 0
2, 1752, Note_on_c, 0, 76, 75
2, 1797, Note_on_c, 0, 76, 0
2, 1800, Note_on_c, 0, 67, 75
2, 1823, Note_on_c, 0, 67, 0
2, 1824, Note_on_c, 0, 66, 75
2, 1847, Note_on_c, 0, 66, 0
2, 1848, Note_on_c, 0, 74, 75
2, 1893, Note_on_c, 0, 74, 0
2, 1896, Note_on_c, 0, 66, 75
2, 1919, Note_on_c, 0, 66, 0
2, 1920, Note_on_c, 0, 69, 68
2, 1926, Note_on_c, 0, 69, 0
2, 1926, Note_on_c, 0, 67, 68
2, 1932, Note_on_c, 0, 67, 0
2, 1932, Note_on_c, 0, 66, 68
2, 1938, Note_on_c, 0, 66, 0
2, 1938, Note_on_c, 0, 67, 68
2, 1944, Note_on_c, 0, 67, 0
2, 1944, Note_on_c, 0, 76, 68
2, 1989, Note_on_c, 0, 76, 0
2, 1992, Note_on_c, 0, 67, 68
2, 2015, Note_on_c, 0, 67, 0
2, 2016, Note_on_c, 0, 66, 68
2, 2039, Note_on_c, 0, 66, 0
2, 2040, Note_on_c, 0, 74, 68
2, 2085, Note_on_c, 0, 74, 0
2, 2088, Note_on_c, 0, 66, 68
2, 2111, Note_on_c, 0, 66, 0
2, 2112, Note_on_c, 0, 69, 75
2, 2136, Note_on_c, 0, 69, 0
2, 2136, Note_on_c, 0, 67, 75
2, 2159, Note_on_c, 0, 67, 0
2, 2160, Note_on_c, 0, 76, 76
2, 2184, Note_on_c, 0, 76, 0
2, 2184, Note_on_c, 0, 67, 77
2, 2207, Note_on_c, 0, 67, 0
2, 2208, Note_on_c, 0, 66, 77
2, 2232, Note_on_c, 0, 66, 0
2, 2232, Note_on_c, 0, 74, 78
2, 2242, Note_on_c, 0, 74, 0
2, 2256, Note_on_c, 0, 74, 79
2, 2280, Note_on_c, 0, 74, 0
2, 2280, Note_on_c, 0, 66, 80
2, 2280, Note_on_c, 0, 62, 80
2, 2303, Note_on_c, 0, 66, 0
2, 2303, Note_on_c, 0, 62, 0
2, 2304, Note_on_c, 0, 67, 75
2, 2312, Note_on_c, 0, 67, 0
2, 2312, Note_on_c, 0, 66, 74
2, 2320, Note_on_c, 0, 66, 0
2, 2320, Note_on_c, 0, 67, 73
2, 2328, Note_on_c, 0, 67, 0
2, 2328, Note_on_c, 0, 66, 73
2, 2336, Note_on_c, 0, 66, 0
2, 2336, Note_on_c, 0, 64, 72
2, 2344, Note_on_c, 0, 64, 0
2, 2344, Note_on_c, 0, 66, 72
2, 2352, Note_on_c, 0, 66, 0
2, 2352, Note_on_c, 0, 64, 71
2, 2419, Note_on_c, 0, 64, 0
2, 2484, Note_on_c, 0, 69, 75
2, 2484, Note_on_c, 0, 61, 75
2, 2496, Note_on_c, 0, 69, 0
2, 2496, Note_on_c, 0, 61, 0
2, 2496, Note_on_c, 0, 69, 75
2, 2496, Note_on_c, 0, 61, 75
2, 2574, Note_on_c, 0, 69, 0
2, 2574, Note_on_c, 0, 61, 0
2, 2580, Note_on_c, 0, 73, 75
2, 2580, Note_on_c, 0, 69, 75
2, 2592, Note_on_c, 0, 73, 0
2, 2592, Note_on_c, 0, 69, 0
2, 2592, Note_on_c, 0, 73, 75
2, 2592, Note_on_c, 0, 69, 75
2, 2670, Note_on_c, 0, 73, 0
2, 2670, Note_on_c, 0, 69, 0
2, 2676, Note_on_c, 0, 76, 75
2, 2676, Note_on_c, 0, 73, 75
2, 2688, Note_on_c, 0, 76, 0
2, 2688, Note_on_c, 0, 73, 0
2, 2688, Note_on_c, 0, 76, 75
2, 2688, Note_on_c, 0, 73, 75
2, 2777, Note_on_c, 0, 76, 0
2, 2777, Note_on_c, 0, 73, 0
2, 2800, Note_on_c, 0, 85, 75
2, 2815, Note_on_c, 0, 85, 0
2, 2816, Note_on_c, 0, 83, 75
2, 2831, Note_on_c, 0, 83, 0
2, 2832, Note_on_c, 0, 81, 75
2, 2847, Note_on_c, 0, 81, 0
2, 2848, Note_on_c, 0, 80, 75
2, 2863, Note_on_c, 0, 80, 0
2, 2864, Note_on_c, 0, 78, 75
2, 2879, Note_on_c, 0, 78, 0
2, 2880, Note_on_c, 0, 76, 91
2, 2952, Note_on_c, 0, 76, 0
2, 2952, Note_on_c, 0, 73, 75
2, 2975, Note_on_c, 0, 73, 0
2, 2976, Note_on_c, 0, 74, 75
2, 2991, Note_on_c, 0, 74, 0
2, 2992, Note_on_c, 0, 83, 75
2, 3007, Note_on_c, 0, 83, 0
2, 3008, Note_on_c, 0, 81, 75
2, 3023, Note_on_c, 0, 81, 0
2, 3024, Note_on_c, 0, 80, 75
2, 3039, Note_on_c, 0, 80, 0
2, 3040, Note_on_c, 0, 78, 75
2, 3055, Note_on_c, 0, 78, 0
2, 3056, Note_on_c, 0, 76, 75
2, 3071, Note_on_c, 0, 76, 0
2, 3072, Note_on_c, 0, 74, 91
2, 3144, Note_on_c, 0, 74, 0
2, 3144, Note_on_c, 0, 71, 75
2, 3167, Note_on_c, 0, 71, 0
2, 3168, Note_on_c, 0, 73, 75
2, 3183, Note_on_c, 0, 73, 0
2, 3184, Note_on_c, 0, 81, 75
2, 3199, Note_on_c, 0, 81, 0
2, 3200, Note_on_c, 0, 80, 75
2, 3215, Note_on_c, 0, 80, 0
2, 3216, Note_on_c, 0, 81, 75
2, 3231, Note_on_c, 0, 81, 0
2, 3232, Note_on_c, 0, 76, 75
2, 3247, Note_on_c, 0, 76, 0
2, 3248, Note_on_c, 0, 73, 75
2, 3263, Note_on_c, 0, 73, 0
2, 3288, Note_on_c, 0, 73, 76
2, 3296, Note_on_c, 0, 73, 0
2, 3296, Note_on_c, 0, 71, 77
2, 3304, Note_on_c, 0, 71, 0
2, 3304, Note_on_c, 0, 70, 77
2, 3312, Note_on_c, 0, 70, 0
2, 3312, Note_on_c, 0, 71, 77
2, 3335, Note_on_c, 0, 71, 0
2, 3336, Note_on_c, 0, 71, 80
2, 3359, Note_on_c, 0, 71, 0
2, 3384, Note_on_c, 0, 71, 80
2, 3392, Note_on_c, 0, 71, 0
2, 3392, Note_on_c, 0, 69, 80
2, 3400, Note_on_c, 0, 69, 0
2, 3400, Note_on_c, 0, 68, 80
2, 3408, Note_on_c, 0, 68, 0
2, 3408, Note_on_c, 0, 69, 80
2, 3431, Note_on_c, 0, 69, 0
2, 3432, Note_on_c, 0, 69, 80
2, 3455, Note_on_c, 0, 69, 0
2, 3456, Note_on_c, 0, 69, 80
2, 3552, Note_on_c, 0, 69, 0
2, 3552, Note_on_c, 0, 68, 76
2, 3597, Note_on_c, 0, 68, 0
2, 3672, Note_on_c, 0, 78, 80
2, 3680, Note_on_c, 0, 78, 0
2, 3680, Note_on_c, 0, 76, 80
2, 3688, Note_on_c, 0, 76, 0
2, 3688, Note_on_c, 0, 75, 80
2, 3696, Note_on_c, 0, 75, 0
2, 3696, Note_on_c, 0, 76, 80
2, 3719, Note_on_c, 0, 76, 0
2, 3720, Note_on_c, 0, 76, 80
2, 3743, Note_on_c, 0, 76, 0
2, 3768, Note_on_c, 0, 78, 80
2, 3776, Note_on_c, 0, 78, 0
2, 3776, Note_on_c, 0, 76, 80
2, 3784, Note_on_c, 0, 76, 0
2, 3784, Note_on_c, 0, 75, 80
2, 3792, Note_on_c, 0, 75, 0
2, 3792, Note_on_c, 0, 76, 80
2, 3815, Note_on_c, 0, 76, 0
2, 3816, Note_on_c, 0, 76, 80
2, 3839, Note_on_c, 0, 76, 0
2, 3840, Note_on_c, 0, 76, 80
2, 3855, Note_on_c, 0, 76, 0
2, 3856, Note_on_c, 0, 88, 80
2, 3871, Note_on_c, 0, 88, 0
2, 3872, Note_on_c, 0, 86, 80
2, 3887, Note_on_c, 0, 86, 0
2, 3888, Note_on_c, 0, 85, 80
2, 3903, Note_on_c, 0, 85, 0
2, 3904, Note_on_c, 0, 83, 80
2, 3919, Note_on_c, 0, 83, 0
2, 3920, Note_on_c, 0, 81, 80
2, 3935, Note_on_c, 0, 81, 0
2, 3936, Note_on_c, 0, 80, 80
2, 3951, Note_on_c, 0, 80, 0
2, 3952, Note_on_c, 0, 78, 80
2, 3967, Note_on_c, 0, 78, 0
2, 3968, Note_on_c, 0, 76, 80
2, 3983, Note_on_c, 0, 76, 0
2, 3984, Note_on_c, 0, 74, 80
2, 3999, Note_on_c, 0, 74, 0
2, 4000, Note_on_c, 0, 73, 80
2, 4015, Note_on_c, 0, 73, 0
2, 4016, Note_on_c, 0, 71, 80
2, 4031, Note_on_c, 0, 71, 0
2, 4056, Note_on_c, 0, 78, 80
2, 4064, Note_on_c, 0, 78, 0
2, 4064, Note_on_c, 0, 76, 80
2, 4072, Note_on_c, 0, 76, 0
2, 4072, Note_on_c, 0, 75, 80
2, 4080, Note_on_c, 0, 75, 0
2, 4080, Note_on_c, 0, 76, 80
2, 4103, Note_on_c, 0, 76, 0
2, 4104, Note_on_c, 0, 76, 80
2, 4127, Note_on_c, 0, 76, 0
2, 4152, Note_on_c, 0, 78, 80
2, 4160, Note_on_c, 0, 78, 0
2, 4160, Note_on_c, 0, 76, 80
2, 4168, Note_on_c, 0, 76, 0
2, 4168, Note_on_c, 0, 75, 80
2, 4176, Note_on_c, 0, 75, 0
2, 4176, Note_on_c, 0, 76, 80
2, 4199, Note_on_c, 0, 76, 0
2, 4200, Note_on_c, 0, 76, 80
2, 4223, Note_on_c, 0, 76, 0
2, 4224, Note_on_c, 0, 76, 80
2, 4239, Note_on_c, 0, 76, 0
2, 4240, Note_on_c, 0, 88, 80
2, 4255, Note_on_c, 0, 88, 0
2, 4256, Note_on_c, 0, 86, 80
2, 4271, Note_on_c, 0, 86, 0
2, 4272, Note_on_c, 0, 85, 80
2, 4287, Note_on_c, 0, 85, 0
2, 4288, Note_on_c, 0, 83, 80
2, 4303, Note_on_c, 0, 83, 0
2, 4304, Note_on_c, 0, 81, 80
2, 4319, Note_on_c, 0, 81, 0
2, 4320, Note_on_c, 0, 80, 80
2, 4335, Note_on_c, 0, 80, 0
2, 4336, Note_on_c, 0, 78, 80
2, 4351, Note_on_c, 0, 78, 0
2, 4352, Note_on_c, 0, 76, 80
2, 4367, Note_on_c, 0, 76, 0
2, 4368, Note_on_c, 0, 74, 80
2, 4383, Note_on_c, 0, 74, 0
2, 4384, Note_on_c, 0, 73, 80
2, 4399, Note_on_c, 0, 73, 0
2, 4400, Note_on_c, 0, 71, 80
2, 4415, Note_on_c, 0, 71, 0
2, 4416, Note_on_c, 0, 69, 80
2, 4431, Note_on_c, 0, 69, 0
2, 4432, Note_on_c, 0, 76, 78
2, 4447, Note_on_c, 0, 76, 0
2, 4448, Note_on_c, 0, 74, 77
2, 4463, Note_on_c, 0, 74, 0
2, 4464, Note_on_c, 0, 73, 76
2, 4479, Note_on_c, 0, 73, 0
2, 4480, Note_on_c, 0, 71, 75
2, 4495, Note_on_c, 0, 71, 0
2, 4496, Note_on_c, 0, 69, 74
2, 4511, Note_on_c, 0, 69, 0
2, 4512, Note_on_c, 0, 68, 73
2, 4527, Note_on_c, 0, 68, 0
2, 4528, Note_on_c, 0, 66, 72
2, 4543, Note_on_c, 0, 66, 0
2, 4544, Note_on_c, 0, 64, 71
2, 4559, Note_on_c, 0, 64, 0
2, 4560, Note_on_c, 0, 62, 70
2, 4575, Note_on_c, 0, 62, 0
2, 4576, Note_on_c, 0, 61, 69
2, 4591, Note_on_c, 0, 61, 0
2, 4592, Note_on_c, 0, 59, 68
2, 4607, Note_on_c, 0, 59, 0
2, 4624, Note_on_c, 0, 64, 63
2, 4639, Note_on_c, 0, 64, 0
2, 4640, Note_on_c, 0, 62, 63
2, 4655, Note_on_c, 0, 62, 0
2, 4656, Note_on_c, 0, 61, 64
2, 4671, Note_on_c, 0, 61, 0
2, 4672, Note_on_c, 0, 59, 64
2, 4687, Note_on_c, 0, 59, 0
2, 4688, Note_on_c, 0, 57, 64
2, 4703, Note_on_c, 0, 57, 0
2, 4720, Note_on_c, 0, 66, 65
2, 4735, Note_on_c, 0, 66, 0
2, 4736, Note_on_c, 0, 64, 65
2, 4751, Note_on_c, 0, 64, 0
2, 4752, Note_on_c, 0, 62, 66
2, 4767, Note_on_c, 0, 62, 0
2, 4768, Note_on_c, 0, 61, 66
2, 4783, Note_on_c, 0, 61, 0
2, 4784, Note_on_c, 0, 59, 66
2, 4799, Note_on_c, 0, 59, 0
2, 4816, Note_on_c, 0, 68, 67
2, 4831, Note_on_c, 0, 68, 0
2, 4832, Note_on_c, 0, 66, 67
2, 4847, Note_on_c, 0, 66, 0
2, 4848, Note_on_c, 0, 64, 68
2, 4863, Note_on_c, 0, 64, 0
2, 4864, Note_on_c, 0, 62, 68
2, 4879, Note_on_c, 0, 62, 0
2, 4880, Note_on_c, 0, 61, 69
2, 4895, Note_on_c, 0, 61, 0
2, 4912, Note_on_c, 0, 69, 69
2, 4927, Note_on_c, 0, 69, 0
2, 4928, Note_on_c, 0, 68, 70
2, 4943, Note_on_c, 0, 68, 0
2, 4944, Note_on_c, 0, 66, 70
2, 4959, Note_on_c, 0, 66, 0
2, 4960, Note_on_c, 0, 64, 70
2, 4975, Note_on_c, 0, 64, 0
2, 4976, Note_on_c, 0, 62, 71
2, 4991, Note_on_c, 0, 62, 0
2, 5008, Note_on_c, 0, 71, 71
2, 5023, Note_on_c, 0, 71, 0
2, 5024, Note_on_c, 0, 69, 72
2, 5039, Note_on_c, 0, 69, 0
2, 5040, Note_on_c, 0, 68, 72
2, 5055, Note_on_c, 0, 68, 0
2, 5056, Note_on_c, 0, 66, 72
2, 5071, Note_on_c, 0, 66, 0
2, 5072, Note_on_c, 0, 64, 73
2, 5087, Note_on_c, 0, 64, 0
2, 5104, Note_on_c, 0, 69, 73
2, 5119, Note_on_c, 0, 69, 0
2, 5120, Note_on_c, 0, 71, 74
2, 5135, Note_on_c, 0, 71, 0
2, 5136, Note_on_c, 0, 73, 74
2, 5151, Note_on_c, 0, 73, 0
2, 5152, Note_on_c, 0, 74, 75
2, 5167, Note_on_c, 0, 74, 0
2, 5168, Note_on_c, 0, 76, 75
2, 5183, Note_on_c, 0, 76, 0
2, 5200, Note_on_c, 0, 71, 80
2, 5215, Note_on_c, 0, 71, 0
2, 5216, Note_on_c, 0, 69, 80
2, 5231, Note_on_c, 0, 69, 0
2, 5232, Note_on_c, 0, 68, 80
2, 5247, Note_on_c, 0, 68, 0
2, 5248, Note_on_c, 0, 66, 80
2, 5263, Note_on_c, 0, 66, 0
2, 5264, Note_on_c, 0, 64, 80
2, 5279, Note_on_c, 0, 64, 0
2, 5296, Note_on_c, 0, 69, 80
2, 5311, Note_on_c, 0, 69, 0
2, 5312, Note_on_c, 0, 71, 78
2, 5327, Note_on_c, 0, 71, 0
2, 5328, Note_on_c, 0, 73, 76
2, 5343, Note_on_c, 0, 73, 0
2, 5344, Note_on_c, 0, 74, 74
2, 5359, Note_on_c, 0, 74, 0
2, 5360, Note_on_c, 0, 76, 73
2, 5375, Note_on_c, 0, 76, 0
2, 5376, Note_on_c, 0, 77, 84
2, 5472, Note_on_c, 0, 77, 0
2, 5472, Note_on_c, 0, 78, 68
2, 5487, Note_on_c, 0, 78, 0
2, 5488, Note_on_c, 0, 80, 68
2, 5503, Note_on_c, 0, 80, 0
2, 5504, Note_on_c, 0, 81, 68
2, 5519, Note_on_c, 0, 81, 0
2, 5520, Note_on_c, 0, 83, 68
2, 5535, Note_on_c, 0, 83, 0
2, 5536, Note_on_c, 0, 85, 68
2, 5551, Note_on_c, 0, 85, 0
2, 5552, Note_on_c, 0, 86, 68
2, 5567, Note_on_c, 0, 86, 0
2, 5568, Note_on_c, 0, 86, 68
2, 5635, Note_on_c, 0, 86, 0
2, 5640, Note_on_c, 0, 88, 69
2, 5663, Note_on_c, 0, 88, 0
2, 5664, Note_on_c, 0, 86, 69
2, 5679, Note_on_c, 0, 86, 0
2, 5680, Note_on_c, 0, 85, 69
2, 5695, Note_on_c, 0, 85, 0
2, 5696, Note_on_c, 0, 83, 69
2, 5711, Note_on_c, 0, 83, 0
2, 5712, Note_on_c, 0, 81, 69
2, 5727, Note_on_c, 0, 81, 0
2, 5728, Note_on_c, 0, 80, 70
2, 5743, Note_on_c, 0, 80, 0
2, 5744, Note_on_c, 0, 78, 70
2, 5759, Note_on_c, 0, 78, 0
2, 5760, Note_on_c, 0, 78, 86
2, 5832, Note_on_c, 0, 78, 0
2, 5832, Note_on_c, 0, 75, 71
2, 5855, Note_on_c, 0, 75, 0
2, 5856, Note_on_c, 0, 76, 71
2, 5871, Note_on_c, 0, 76, 0
2, 5872, Note_on_c, 0, 78, 71
2, 5887, Note_on_c, 0, 78, 0
2, 5888, Note_on_c, 0, 80, 71
2, 5903, Note_on_c, 0, 80, 0
2, 5904, Note_on_c, 0, 81, 71
2, 5919, Note_on_c, 0, 81, 0
2, 5920, Note_on_c, 0, 83, 71
2, 5935, Note_on_c, 0, 83, 0
2, 5936, Note_on_c, 0, 85, 71
2, 5951, Note_on_c, 0, 85, 0
2, 5952, Note_on_c, 0, 85, 71
2, 6019, Note_on_c, 0, 85, 0
2, 6024, Note_on_c, 0, 86, 72
2, 6047, Note_on_c, 0, 86, 0
2, 6048, Note_on_c, 0, 85, 72
2, 6063, Note_on_c, 0, 85, 0
2, 6064, Note_on_c, 0, 83, 72
2, 6079, Note_on_c, 0, 83, 0
2, 6080, Note_on_c, 0, 81, 73
2, 6095, Note_on_c, 0, 81, 0
2, 6096, Note_on_c, 0, 80, 73
2, 6111, Note_on_c, 0, 80, 0
2, 6112, Note_on_c, 0, 78, 73
2, 6127, Note_on_c, 0, 78, 0
2, 6128, Note_on_c, 0, 76, 73
2, 6143, Note_on_c, 0, 76, 0
2, 6144, Note_on_c, 0, 76, 89
2, 6216, Note_on_c, 0, 76, 0
2, 6216, Note_on_c, 0, 73, 74
2, 6239, Note_on_c, 0, 73, 0
2, 6240, Note_on_c, 0, 74, 74
2, 6255, Note_on_c, 0, 74, 0
2, 6256, Note_on_c, 0, 76, 74
2, 6271, Note_on_c, 0, 76, 0
2, 6272, Note_on_c, 0, 78, 74
2, 6287, Note_on_c, 0, 78, 0
2, 6288, Note_on_c, 0, 80, 74
2, 6303, Note_on_c, 0, 80, 0
2, 6304, Note_on_c, 0, 81, 74
2, 6319, Note_on_c, 0, 81, 0
2, 6320, Note_on_c, 0, 83, 75
2, 6335, Note_on_c, 0, 83, 0
2, 6336, Note_on_c, 0, 83, 75
2, 6403, Note_on_c, 0, 83, 0
2, 6408, Note_on_c, 0, 85, 75
2, 6431, Note_on_c, 0, 85, 0
2, 6432, Note_on_c, 0, 83, 76
2, 6447, Note_on_c, 0, 83, 0
2, 6448, Note_on_c, 0, 81, 76
2, 6463, Note_on_c, 0, 81, 0
2, 6464, Note_on_c, 0, 80, 76
2, 6479, Note_on_c, 0, 80, 0
2, 6480, Note_on_c, 0, 78, 76
2, 6495, Note_on_c, 0, 78, 0
2, 6496, Note_on_c, 0, 76, 76
2, 6511, Note_on_c, 0, 76, 0
2, 6512, Note_on_c, 0, 74, 76
2, 6527, Note_on_c, 0, 74, 0
2, 6528, Note_on_c, 0, 74, 92
2, 6600, Note_on_c, 0, 74, 0
2, 6600, Note_on_c, 0, 71, 77
2, 6623, Note_on_c, 0, 71, 0
2, 6624, Note_on_c, 0, 73, 77
2, 6639, Note_on_c, 0, 73, 0
2, 6640, Note_on_c, 0, 74, 77
2, 6655, Note_on_c, 0, 74, 0
2, 6656, Note_on_c, 0, 76, 77
2, 6671, Note_on_c, 0, 76, 0
2, 6672, Note_on_c, 0, 78, 78
2, 6687, Note_on_c, 0, 78, 0
2, 6688, Note_on_c, 0, 80, 78
2, 6703, Note_on_c, 0, 80, 0
2, 6704, Note_on_c, 0, 81, 78
2, 6719, Note_on_c, 0, 81, 0
2, 6720, Note_on_c, 0, 81, 80
2, 6783, Note_on_c, 0, 81, 0
2, 6784, Note_on_c, 0, 85, 81
2, 6799, Note_on_c, 0, 85, 0
2, 6800, Note_on_c, 0, 83, 82
2, 6815, Note_on_c, 0, 83, 0
2, 6816, Note_on_c, 0, 81, 82
2, 6831, Note_on_c, 0, 81, 0
2, 6832, Note_on_c, 0, 80, 83
2, 6847, Note_on_c, 0, 80, 0
2, 6848, Note_on_c, 0, 78, 83
2, 6863, Note_on_c, 0, 78, 0
2, 6864, Note_on_c, 0, 76, 83
2, 6879, Note_on_c, 0, 76, 0
2, 6880, Note_on_c, 0, 74, 84
2, 6895, Note_on_c, 0, 74, 0
2, 6896, Note_on_c, 0, 73, 84
2, 6911, Note_on_c, 0, 73, 0
2, 6912, Note_on_c, 0, 74, 86
2, 6920, Note_on_c, 0, 74, 0
2, 6920, Note_on_c, 0, 73, 85
2, 6928, Note_on_c, 0, 73, 0
2, 6928, Note_on_c, 0, 74, 84
2, 6936, Note_on_c, 0, 74, 0
2, 6936, Note_on_c, 0, 73, 84
2, 6944, Note_on_c, 0, 73, 0
2, 6944, Note_on_c, 0, 74, 83
2, 6952, Note_on_c, 0, 74, 0
2, 6952, Note_on_c, 0, 73, 83
2, 6960, Note_on_c, 0, 73, 0
2, 6960, Note_on_c, 0, 71, 82
2, 6975, Note_on_c, 0, 71, 0
2, 6976, Note_on_c, 0, 85, 80
2, 6991, Note_on_c, 0, 85, 0
2, 6992, Note_on_c, 0, 83, 80
2, 7007, Note_on_c, 0, 83, 0
2, 7008, Note_on_c, 0, 81, 81
2, 7023, Note_on_c, 0, 81, 0
2, 7024, Note_on_c, 0, 80, 81
2, 7039, Note_on_c, 0, 80, 0
2, 7040, Note_on_c, 0, 78, 82
2, 7055, Note_on_c, 0, 78, 0
2, 7056, Note_on_c, 0, 76, 82
2, 7071, Note_on_c, 0, 76, 0
2, 7072, Note_on_c, 0, 74, 83
2, 7087, Note_on_c, 0, 74, 0
2, 7088, Note_on_c, 0, 73, 83
2, 7103, Note_on_c, 0, 73, 0
2, 7104, Note_on_c, 0, 74, 86
2, 7112, Note_on_c, 0, 74, 0
2, 7112, Note_on_c, 0, 73, 85
2, 7120, Note_on_c, 0, 73, 0
2, 7120, Note_on_c, 0, 74, 84
2, 7128, Note_on_c, 0, 74, 0
2, 7128, Note_on_c, 0, 73, 84
2, 7136, Note_on_c, 0, 73, 0
2, 7136, Note_on_c, 0, 74, 83
2, 7144, Note_on_c, 0, 74, 0
2, 7144, Note_on_c, 0, 73, 83
2, 7152, Note_on_c, 0, 73, 0
2, 7152, Note_on_c, 0, 71, 82
2, 7167, Note_on_c, 0, 71, 0
2, 7168, Note_on_c, 0, 85, 80
2, 7183, Note_on_c, 0, 85, 0
2, 7184, Note_on_c, 0, 83, 80
2, 7199, Note_on_c, 0, 83, 0
2, 7200, Note_on_c, 0, 81, 81
2, 7215, Note_on_c, 0, 81, 0
2, 7216, Note_on_c, 0, 80, 81
2, 7231, Note_on_c, 0, 80, 0
2, 7232, Note_on_c, 0, 78, 82
2, 7247, Note_on_c, 0, 78, 0
2, 7248, Note_on_c, 0, 76, 82
2, 7263, Note_on_c, 0, 76, 0
2, 7264, Note_on_c, 0, 74, 83
2, 7279, Note_on_c, 0, 74, 0
2, 7280, Note_on_c, 0, 73, 83
2, 7295, Note_on_c, 0, 73, 0
2, 7296, Note_on_c, 0, 73, 86
2, 7305, Note_on_c, 0, 73, 0
2, 7305, Note_on_c, 0, 74, 85
2, 7314, Note_on_c, 0, 74, 0
2, 7314, Note_on_c, 0, 73, 84
2, 7323, Note_on_c, 0, 73, 0
2, 7323, Note_on_c, 0, 74, 84
2, 7332, Note_on_c, 0, 74, 0
2, 7332, Note_on_c, 0, 73, 83
2, 7341, Note_on_c, 0, 73, 0
2, 7341, Note_on_c, 0, 74, 83
2, 7350, Note_on_c, 0, 74, 0
2, 7350, Note_on_c, 0, 73, 82
2, 7359, Note_on_c, 0, 73, 0
2, 7359, Note_on_c, 0, 71, 82
2, 7376, Note_on_c, 0, 71, 0
2, 7376, Note_on_c, 0, 73, 80
2, 7392, Note_on_c, 0, 73, 0
2, 7392, Note_on_c, 0, 71, 79
2, 7481, Note_on_c, 0, 71, 0
2, 7620, Note_on_c, 0, 52, 64
2, 7632, Note_on_c, 0, 52, 0
2, 7632, Note_on_c, 0, 57, 64
2, 7666, Note_on_c, 0, 57, 0
2, 7668, Note_on_c, 0, 61, 65
2, 7680, Note_on_c, 0, 61, 0
2, 7680, Note_on_c, 0, 61, 66
2, 7714, Note_on_c, 0, 61, 0
2, 7716, Note_on_c, 0, 54, 67
2, 7728, Note_on_c, 0, 54, 0
2, 7728, Note_on_c, 0, 59, 68
2, 7762, Note_on_c, 0, 59, 0
2, 7764, Note_on_c, 0, 62, 69
2, 7776, Note_on_c, 0, 62, 0
2, 7776, Note_on_c, 0, 62, 69
2, 7810, Note_on_c, 0, 62, 0
2, 7812, Note_on_c, 0, 56, 71
2, 7824, Note_on_c, 0, 56, 0
2, 7824, Note_on_c, 0, 61, 71
2, 7858, Note_on_c, 0, 61, 0
2, 7860, Note_on_c, 0, 64, 72
2, 7872, Note_on_c, 0, 64, 0
2, 7872, Note_on_c, 0, 64, 73
2, 7906, Note_on_c, 0, 64, 0
2, 7908, Note_on_c, 0, 57, 74
2, 7920, Note_on_c, 0, 57, 0
2, 7920, Note_on_c, 0, 62, 74
2, 7954, Note_on_c, 0, 62, 0
2, 7956, Note_on_c, 0, 66, 76
2, 7968, Note_on_c, 0, 66, 0
2, 7968, Note_on_c, 0, 66, 76
2, 7991, Note_on_c, 0, 66, 0
2, 7992, Note_on_c, 0, 64, 77
2, 8004, Note_on_c, 0, 64, 0
2, 8004, Note_on_c, 0, 62, 77
2, 8016, Note_on_c, 0, 62, 0
2, 8016, Note_on_c, 0, 61, 78
2, 8039, Note_on_c, 0, 61, 0
2, 8040, Note_on_c, 0, 62, 79
2, 8063, Note_on_c, 0, 62, 0
2, 8064, Note_on_c, 0, 61, 80
2, 8098, Note_on_c, 0, 61, 0
2, 8100, Note_on_c, 0, 69, 80
2, 8100, Note_on_c, 0, 61, 80
2, 8112, Note_on_c, 0, 69, 0
2, 8112, Note_on_c, 0, 61, 0
2, 8112, Note_on_c, 0, 69, 80
2, 8112, Note_on_c, 0, 61, 80
2, 8146, Note_on_c, 0, 69, 0
2, 8146, Note_on_c, 0, 61, 0
2, 8148, Note_on_c, 0, 69, 80
2, 8148, Note_on_c, 0, 61, 80
2, 8160, Note_on_c, 0, 69, 0
2, 8160, Note_on_c, 0, 61, 0
2, 8160, Note_on_c, 0, 69, 80
2, 8160, Note_on_c, 0, 61, 80
2, 8194, Note_on_c, 0, 69, 0
2, 8194, Note_on_c, 0, 61, 0
2, 8196, Note_on_c, 0, 73, 80
2, 8196, Note_on_c, 0, 69, 80
2, 8208, Note_on_c, 0, 73, 0
2, 8208, Note_on_c, 0, 69, 0
2, 8208, Note_on_c, 0, 73, 80
2, 8208, Note_on_c, 0, 69, 80
2, 8242, Note_on_c, 0, 73, 0
2, 8242, Note_on_c, 0, 69, 0
2, 8244, Note_on_c, 0, 73, 80
2, 8244, Note_on_c, 0, 69, 80
2, 8256, Note_on_c, 0, 73, 0
2, 8256, Note_on_c, 0, 69, 0
2, 8256, Note_on_c, 0, 73, 80
2, 8256, Note_on_c, 0, 69, 80
2, 8290, Note_on_c, 0, 73, 0
2, 8290, Note_on_c, 0, 69, 0
2, 8292, Note_on_c, 0, 81, 80
2, 8292, Note_on_c, 0, 73, 80
2, 8304, Note_on_c, 0, 81, 0
2, 8304, Note_on_c, 0, 73, 0
2, 8304, Note_on_c, 0, 81, 80
2, 8304, Note_on_c, 0, 73, 80
2, 8338, Note_on_c, 0, 81, 0
2, 8338, Note_on_c, 0, 73, 0
2, 8340, Note_on_c, 0, 81, 80
2, 8340, Note_on_c, 0, 73, 80
2, 8352, Note_on_c, 0, 81, 0
2, 8352, Note_on_c, 0, 73, 0
2, 8352, Note_on_c, 0, 81, 80
2, 8352, Note_on_c, 0, 73, 80
2, 8397, Note_on_c, 0, 81, 0
2, 8397, Note_on_c, 0, 73, 0
2, 8484, Note_on_c, 0, 78, 80
2, 8484, Note_on_c, 0, 74, 80
2, 8496, Note_on_c, 0, 78, 0
2, 8496, Note_on_c, 0, 74, 0
2, 8496, Note_on_c, 0, 76, 80
2, 8496, Note_on_c, 0, 73, 80
2, 8530, Note_on_c, 0, 76, 0
2, 8530, Note_on_c, 0, 73, 0
2, 8532, Note_on_c, 0, 74, 80
2, 8532, Note_on_c, 0, 71, 80
2, 8544, Note_on_c, 0, 74, 0
2, 8544, Note_on_c, 0, 71, 0
2, 8544, Note_on_c, 0, 73, 80
2, 8544, Note_on_c, 0, 69, 80
2, 8589, Note_on_c, 0, 73, 0
2, 8589, Note_on_c, 0, 69, 0
2, 8592, Note_on_c, 0, 71, 80
2, 8592, Note_on_c, 0, 68, 80
2, 8637, Note_on_c, 0, 71, 0
2, 8637, Note_on_c, 0, 68, 0
2, 8656, Note_on_c, 0, 69, 75
2, 8671, Note_on_c, 0, 69, 0
2, 8672, Note_on_c, 0, 71, 75
2, 8687, Note_on_c, 0, 71, 0
2, 8688, Note_on_c, 0, 73, 75
2, 8703, Note_on_c, 0, 73, 0
2, 8704, Note_on_c, 0, 74, 75
2, 8719, Note_on_c, 0, 74, 0
2, 8720, Note_on_c, 0, 76, 75
2, 8735, Note_on_c, 0, 76, 0
2, 8736, Note_on_c, 0, 74, 75
2, 8736, Note_on_c, 0, 71, 75
2, 8825, Note_on_c, 0, 74, 0
2, 8825, Note_on_c, 0, 71, 0
2, 8848, Note_on_c, 0, 69, 75
2, 8863, Note_on_c, 0, 69, 0
2, 8864, Note_on_c, 0, 71, 75
2, 8879, Note_on_c, 0, 71, 0
2, 8880, Note_on_c, 0, 73, 75
2, 8895, Note_on_c, 0, 73, 0
2, 8896, Note_on_c, 0, 74, 75
2, 8911, Note_on_c, 0, 74, 0
2, 8912, Note_on_c, 0, 76, 75
2, 8927, Note_on_c, 0, 76, 0
2, 8928, Note_on_c, 0, 74, 75
2, 8928, Note_on_c, 0, 71, 75
2, 9017, Note_on_c, 0, 74, 0
2, 9017, Note_on_c, 0, 71, 0
2, 9040, Note_on_c, 0, 69, 75
2, 9055, Note_on_c, 0, 69, 0
2, 9056, Note_on_c, 0, 71, 75
2, 9071, Note_on_c, 0, 71, 0
2, 9072, Note_on_c, 0, 73, 75
2, 9087, Note_on_c, 0, 73, 0
2, 9088, Note_on_c, 0, 74, 75
2, 9103, Note_on_c, 0, 74, 0
2, 9104, Note_on_c, 0, 76, 75
2, 9119, Note_on_c, 0, 76, 0
2, 9136, Note_on_c, 0, 71, 75
2, 9151, Note_on_c, 0, 71, 0
2, 9152, Note_on_c, 0, 73, 75
2, 9167, Note_on_c, 0, 73, 0
2, 9168, Note_on_c, 0, 74, 75
2, 9183, Note_on_c, 0, 74, 0
2, 9184, Note_on_c, 0, 76, 75
2, 9199, Note_on_c, 0, 76, 0
2, 9200, Note_on_c, 0, 78, 75
2, 9215, Note_on_c, 0, 78, 0
2, 9216, Note_on_c, 0, 64, 75
2, 9305, Note_on_c, 0, 64, 0
2, 9312, Note_on_c, 0, 71, 75
2, 9321, Note_on_c, 0, 71, 0
2, 9321, Note_on_c, 0, 73, 75
2, 9330, Note_on_c, 0, 73, 0
2, 9330, Note_on_c, 0, 71, 75
2, 9339, Note_on_c, 0, 71, 0
2, 9339, Note_on_c, 0, 73, 75
2, 9348, Note_on_c, 0, 73, 0
2, 9348, Note_on_c, 0, 71, 75
2, 9357, Note_on_c, 0, 71, 0
2, 9357, Note_on_c, 0, 73, 75
2, 9366, Note_on_c, 0, 73, 0
2, 9366, Note_on_c, 0, 71, 75
2, 9375, Note_on_c, 0, 71, 0
2, 9375, Note_on_c, 0, 73, 75
2, 9384, Note_on_c, 0, 73, 0
2, 9384, Note_on_c, 0, 71, 75
2, 9392, Note_on_c, 0, 71, 0
2, 9392, Note_on_c, 0, 69, 75
2, 9400, Note_on_c, 0, 69, 0
2, 9400, Note_on_c, 0, 71, 75
2, 9408, Note_on_c, 0, 71, 0
2, 9424, Note_on_c, 0, 69, 75
2, 9439, Note_on_c, 0, 69, 0
2, 9440, Note_on_c, 0, 71, 75
2, 9455, Note_on_c, 0, 71, 0
2, 9456, Note_on_c, 0, 73, 75
2, 9471, Note_on_c, 0, 73, 0
2, 9472, Note_on_c, 0, 74, 75
2, 9487, Note_on_c, 0, 74, 0
2, 9488, Note_on_c, 0, 76, 75
2, 9503, Note_on_c, 0, 76, 0
2, 9520, Note_on_c, 0, 71, 75
2, 9535, Note_on_c, 0, 71, 0
2, 9536, Note_on_c, 0, 73, 75
2, 9551, Note_on_c, 0, 73, 0
2, 9552, Note_on_c, 0, 74, 75
2, 9567, Note_on_c, 0, 74, 0
2, 9568, Note_on_c, 0, 76, 75
2, 9583, Note_on_c, 0, 76, 0
2, 9584, Note_on_c, 0, 78, 75
2, 9599, Note_on_c, 0, 78, 0
2, 9600, Note_on_c, 0, 64, 75
2, 9689, Note_on_c, 0, 64, 0
2, 9696, Note_on_c, 0, 71, 75
2, 9705, Note_on_c, 0, 71, 0
2, 9705, Note_on_c, 0, 73, 75
2, 9714, Note_on_c, 0, 73, 0
2, 9714, Note_on_c, 0, 71, 75
2, 9723, Note_on_c, 0, 71, 0
2, 9723, Note_on_c, 0, 73, 75
2, 9732, Note_on_c, 0, 73, 0
2, 9732, Note_on_c, 0, 71, 75
2, 9741, Note_on_c, 0, 71, 0
2, 9741, Note_on_c, 0, 73, 75
2, 9750, Note_on_c, 0, 73, 0
2, 9750, Note_on_c, 0, 71, 75
2, 9759, Note_on_c, 0, 71, 0
2, 9759, Note_on_c, 0, 73, 75
2, 9768, Note_on_c, 0, 73, 0
2, 9768, Note_on_c, 0, 71, 75
2, 9776, Note_on_c, 0, 71, 0
2, 9776, Note_on_c, 0, 69, 75
2, 9784, Note_on_c, 0, 69, 0
2, 9784, Note_on_c, 0, 71, 75
2, 9792, Note_on_c, 0, 71, 0
2, 9792, Note_on_c, 0, 69, 75
2, 9812, Note_on_c, 0, 69, 0
2, 9840, Note_on_c, 0, 76, 63
2, 9885, Note_on_c, 0, 76, 0
2, 9888, Note_on_c, 0, 77, 63
2, 9903, Note_on_c, 0, 77, 0
2, 9904, Note_on_c, 0, 76, 63
2, 9919, Note_on_c, 0, 76, 0
2, 9920, Note_on_c, 0, 77, 63
2, 9935, Note_on_c, 0, 77, 0
2, 9936, Note_on_c, 0, 81, 63
2, 9951, Note_on_c, 0, 81, 0
2, 9952, Note_on_c, 0, 79, 63
2, 9967, Note_on_c, 0, 79, 0
2, 9968, Note_on_c, 0, 77, 63
2, 9983, Note_on_c, 0, 77, 0
2, 9984, Note_on_c, 0, 75, 63
2, 9999, Note_on_c, 0, 75, 0
2, 10000, Note_on_c, 0, 76, 63
2, 10015, Note_on_c, 0, 76, 0
2, 10016, Note_on_c, 0, 78, 63
2, 10031, Note_on_c, 0, 78, 0
2, 10032, Note_on_c, 0, 76, 63
2, 10047, Note_on_c, 0, 76, 0
2, 10048, Note_on_c, 0, 78, 63
2, 10063, Note_on_c, 0, 78, 0
2, 10064, Note_on_c, 0, 79, 64
2, 10079, Note_on_c, 0, 79, 0
2, 10080, Note_on_c, 0, 73, 64
2, 10095, Note_on_c, 0, 73, 0
2, 10096, Note_on_c, 0, 74, 64
2, 10111, Note_on_c, 0, 74, 0
2, 10112, Note_on_c, 0, 76, 64
2, 10127, Note_on_c, 0, 76, 0
2, 10128, Note_on_c, 0, 74, 65
2, 10143, Note_on_c, 0, 74, 0
2, 10144, Note_on_c, 0, 76, 65
2, 10159, Note_on_c, 0, 76, 0
2, 10160, Note_on_c, 0, 77, 65
2, 10175, Note_on_c, 0, 77, 0
2, 10176, Note_on_c, 0, 71, 65
2, 10191, Note_on_c, 0, 71, 0
2, 10192, Note_on_c, 0, 72, 66
2, 10207, Note_on_c, 0, 72, 0
2, 10208, Note_on_c, 0, 74, 66
2, 10223, Note_on_c, 0, 74, 0
2, 10224, Note_on_c, 0, 72, 66
2, 10239, Note_on_c, 0, 72, 0
2, 10240, Note_on_c, 0, 74, 66
2, 10255, Note_on_c, 0, 74, 0
2, 10256, Note_on_c, 0, 76, 67
2, 10271, Note_on_c, 0, 76, 0
2, 10272, Note_on_c, 0, 69, 67
2, 10287, Note_on_c, 0, 69, 0
2, 10288, Note_on_c, 0, 71, 67
2, 10303, Note_on_c, 0, 71, 0
2, 10304, Note_on_c, 0, 72, 67
2, 10319, Note_on_c, 0, 72, 0
2, 10320, Note_on_c, 0, 71, 68
2, 10335, Note_on_c, 0, 71, 0
2, 10336, Note_on_c, 0, 72, 68
2, 10351, Note_on_c, 0, 72, 0
2, 10352, Note_on_c, 0, 74, 68
2, 10367, Note_on_c, 0, 74, 0
2, 10368, Note_on_c, 0, 68, 68
2, 10383, Note_on_c, 0, 68, 0
2, 10384, Note_on_c, 0, 69, 69
2, 10399, Note_on_c, 0, 69, 0
2, 10400, Note_on_c, 0, 71, 69
2, 10415, Note_on_c, 0, 71, 0
2, 10416, Note_on_c, 0, 69, 69
2, 10431, Note_on_c, 0, 69, 0
2, 10432, Note_on_c, 0, 71, 69
2, 10447, Note_on_c, 0, 71, 0
2, 10448, Note_on_c, 0, 72, 70
2, 10463, Note_on_c, 0, 72, 0
2, 10464, Note_on_c, 0, 71, 70
2, 10479, Note_on_c, 0, 71, 0
2, 10480, Note_on_c, 0, 72, 70
2, 10495, Note_on_c, 0, 72, 0
2, 10496, Note_on_c, 0, 74, 70
2, 10511, Note_on_c, 0, 74, 0
2, 10512, Note_on_c, 0, 72, 71
2, 10527, Note_on_c, 0, 72, 0
2, 10528, Note_on_c, 0, 74, 71
2, 10543, Note_on_c, 0, 74, 0
2, 10544, Note_on_c, 0, 76, 71
2, 10559, Note_on_c, 0, 76, 0
2, 10560, Note_on_c, 0, 74, 71
2, 10568, Note_on_c, 0, 74, 0
2, 10568, Note_on_c, 0, 72, 75
2, 10576, Note_on_c, 0, 72, 0
2, 10576, Note_on_c, 0, 74, 75
2, 10584, Note_on_c, 0, 74, 0
2, 10584, Note_on_c, 0, 72, 75
2, 10592, Note_on_c, 0, 72, 0
2, 10592, Note_on_c, 0, 71, 75
2, 10600, Note_on_c, 0, 71, 0
2, 10600, Note_on_c, 0, 72, 75
2, 10608, Note_on_c, 0, 72, 0
2, 10608, Note_on_c, 0, 71, 75
2, 10631, Note_on_c, 0, 71, 0
2, 10644, Note_on_c, 0, 74, 80
2, 10644, Note_on_c, 0, 71, 80
2, 10656, Note_on_c, 0, 74, 0
2, 10656, Note_on_c, 0, 71, 0
2, 10656, Note_on_c, 0, 74, 80
2, 10656, Note_on_c, 0, 71, 80
2, 10734, Note_on_c, 0, 74, 0
2, 10734, Note_on_c, 0, 71, 0
2, 10740, Note_on_c, 0, 80, 80
2, 10740, Note_on_c, 0, 74, 80
2, 10752, Note_on_c, 0, 80, 0
2, 10752, Note_on_c, 0, 74, 0
2, 10752, Note_on_c, 0, 80, 80
2, 10752, Note_on_c, 0, 74, 80
2, 10830, Note_on_c, 0, 80, 0
2, 10830, Note_on_c, 0, 74, 0
2, 10836, Note_on_c, 0, 83, 80
2, 10836, Note_on_c, 0, 80, 80
2, 10848, Note_on_c, 0, 83, 0
2, 10848, Note_on_c, 0, 80, 0
2, 10848, Note_on_c, 0, 83, 80
2, 10848, Note_on_c, 0, 80, 80
2, 10915, Note_on_c, 0, 83, 0
2, 10915, Note_on_c, 0, 80, 0
2, 10920, Note_on_c, 0, 83, 80
2, 10932, Note_on_c, 0, 83, 0
2, 10932, Note_on_c, 0, 86, 80
2, 10944, Note_on_c, 0, 86, 0
2, 10944, Note_on_c, 0, 85, 80
2, 10959, Note_on_c, 0, 85, 0
2, 10960, Note_on_c, 0, 88, 80
2, 10975, Note_on_c, 0, 88, 0
2, 10976, Note_on_c, 0, 86, 80
2, 10991, Note_on_c, 0, 86, 0
2, 10992, Note_on_c, 0, 85, 80
2, 11007, Note_on_c, 0, 85, 0
2, 11008, Note_on_c, 0, 83, 80
2, 11023, Note_on_c, 0, 83, 0
2, 11024, Note_on_c, 0, 81, 80
2, 11039, Note_on_c, 0, 81, 0
2, 11040, Note_on_c, 0, 80, 80
2, 11055, Note_on_c, 0, 80, 0
2, 11056, Note_on_c, 0, 78, 80
2, 11071, Note_on_c, 0, 78, 0
2, 11072, Note_on_c, 0, 76, 80
2, 11087, Note_on_c, 0, 76, 0
2, 11088, Note_on_c, 0, 74, 80
2, 11103, Note_on_c, 0, 74, 0
2, 11104, Note_on_c, 0, 73, 80
2, 11119, Note_on_c, 0, 73, 0
2, 11120, Note_on_c, 0, 71, 80
2, 11135, Note_on_c, 0, 71, 0
2, 11136, Note_on_c, 0, 69, 80
2, 11203, Note_on_c, 0, 69, 0
2, 11208, Note_on_c, 0, 71, 73
2, 11231, Note_on_c, 0, 71, 0
2, 11232, Note_on_c, 0, 71, 71
2, 11241, Note_on_c, 0, 71, 0
2, 11241, Note_on_c, 0, 73, 70
2, 11250, Note_on_c, 0, 73, 0
2, 11250, Note_on_c, 0, 71, 70
2, 11259, Note_on_c, 0, 71, 0
2, 11259, Note_on_c, 0, 73, 69
2, 11268, Note_on_c, 0, 73, 0
2, 11268, Note_on_c, 0, 71, 69
2, 11277, Note_on_c, 0, 71, 0
2, 11277, Note_on_c, 0, 73, 68
2, 11286, Note_on_c, 0, 73, 0
2, 11286, Note_on_c, 0, 71, 68
2, 11295, Note_on_c, 0, 71, 0
2, 11295, Note_on_c, 0, 73, 67
2, 11304, Note_on_c, 0, 73, 0
2, 11304, Note_on_c, 0, 71, 67
2, 11312, Note_on_c, 0, 71, 0
2, 11312, Note_on_c, 0, 69, 66
2, 11320, Note_on_c, 0, 69, 0
2, 11320, Note_on_c, 0, 71, 66
2, 11328, Note_on_c, 0, 71, 0
2, 11328, Note_on_c, 0, 69, 63
2, 11417, Note_on_c, 0, 69, 0
2, 11508, Note_on_c, 0, 81, 75
2, 11508, Note_on_c, 0, 78, 75
2, 11520, Note_on_c, 0, 81, 0
2, 11520, Note_on_c, 0, 78, 0
2, 11520, Note_on_c, 0, 81, 75
2, 11520, Note_on_c, 0, 78, 75
2, 11598, Note_on_c, 0, 81, 0
2, 11598, Note_on_c, 0, 78, 0
2, 11604, Note_on_c, 0, 78, 75
2, 11604, Note_on_c, 0, 74, 75
2, 11616, Note_on_c, 0, 78, 0
2, 11616, Note_on_c, 0, 74, 0
2, 11616, Note_on_c, 0, 78, 75
2, 11616, Note_on_c, 0, 74, 75
2, 11694, Note_on_c, 0, 78, 0
2, 11694, Note_on_c, 0, 74, 0
2, 11700, Note_on_c, 0, 74, 75
2, 11700, Note_on_c, 0, 66, 75
2, 11712, Note_on_c, 0, 74, 0
2, 11712, Note_on_c, 0, 66, 0
2, 11712, Note_on_c, 0, 74, 75
2, 11712, Note_on_c, 0, 66, 75
2, 11801, Note_on_c, 0, 74, 0
2, 11801, Note_on_c, 0, 66, 0
2, 11844, Note_on_c, 0, 69, 75
2, 11844, Note_on_c, 0, 66, 75
2, 11856, Note_on_c, 0, 69, 0
2, 11856, Note_on_c, 0, 66, 0
2, 11856, Note_on_c, 0, 69, 75
2, 11856, Note_on_c, 0, 66, 75
2, 11890, Note_on_c, 0, 69, 0
2, 11890, Note_on_c, 0, 66, 0
2, 11892, Note_on_c, 0, 69, 75
2, 11892, Note_on_c, 0, 66, 75
2, 11904, Note_on_c, 0, 69, 0
2, 11904, Note_on_c, 0, 66, 0
2, 11904, Note_on_c, 0, 70, 91
2, 11904, Note_on_c, 0, 66, 91
2, 12000, Note_on_c, 0, 70, 0
2, 12000, Note_on_c, 0, 66, 0
2, 12000, Note_on_c, 0, 71, 75
2, 12000, Note_on_c, 0, 67, 75
2, 12034, Note_on_c, 0, 71, 0
2, 12034, Note_on_c, 0, 67, 0
2, 12036, Note_on_c, 0, 59, 75
2, 12048, Note_on_c, 0, 59, 0
2, 12048, Note_on_c, 0, 67, 75
2, 12082, Note_on_c, 0, 67, 0
2, 12084, Note_on_c, 0, 64, 75
2, 12096, Note_on_c, 0, 64, 0
2, 12096, Note_on_c, 0, 62, 75
2, 12141, Note_on_c, 0, 62, 0
2, 12144, Note_on_c, 0, 61, 71
2, 12154, Note_on_c, 0, 61, 0
2, 12154, Note_on_c, 0, 62, 71
2, 12164, Note_on_c, 0, 62, 0
2, 12164, Note_on_c, 0, 61, 70
2, 12174, Note_on_c, 0, 61, 0
2, 12174, Note_on_c, 0, 59, 70
2, 12183, Note_on_c, 0, 59, 0
2, 12183, Note_on_c, 0, 61, 69
2, 12192, Note_on_c, 0, 61, 0
2, 12192, Note_on_c, 0, 62, 69
2, 12259, Note_on_c, 0, 62, 0
2, 12276, Note_on_c, 0, 81, 75
2, 12276, Note_on_c, 0, 78, 75
2, 12288, Note_on_c, 0, 81, 0
2, 12288, Note_on_c, 0, 78, 0
2, 12288, Note_on_c, 0, 81, 75
2, 12288, Note_on_c, 0, 78, 75
2, 12366, Note_on_c, 0, 81, 0
2, 12366, Note_on_c, 0, 78, 0
2, 12372, Note_on_c, 0, 78, 75
2, 12372, Note_on_c, 0, 74, 75
2, 12384, Note_on_c, 0, 78, 0
2, 12384, Note_on_c, 0, 74, 0
2, 12384, Note_on_c, 0, 78, 75
2, 12384, Note_on_c, 0, 74, 75
2, 12462, Note_on_c, 0, 78, 0
2, 12462, Note_on_c, 0, 74, 0
2, 12468, Note_on_c, 0, 74, 75
2, 12468, Note_on_c, 0, 66, 75
2, 12480, Note_on_c, 0, 74, 0
2, 12480, Note_on_c, 0, 66, 0
2, 12480, Note_on_c, 0, 74, 75
2, 12480, Note_on_c, 0, 66, 75
2, 12569, Note_on_c, 0, 74, 0
2, 12569, Note_on_c, 0, 66, 0
2, 12592, Note_on_c, 0, 62, 75
2, 12607, Note_on_c, 0, 62, 0
2, 12608, Note_on_c, 0, 64, 75
2, 12623, Note_on_c, 0, 64, 0
2, 12624, Note_on_c, 0, 66, 75
2, 12639, Note_on_c, 0, 66, 0
2, 12640, Note_on_c, 0, 67, 75
2, 12655, Note_on_c, 0, 67, 0
2, 12656, Note_on_c, 0, 69, 75
2, 12671, Note_on_c, 0, 69, 0
2, 12672, Note_on_c, 0, 70, 91
2, 12768, Note_on_c, 0, 70, 0
2, 12768, Note_on_c, 0, 71, 75
2, 12783, Note_on_c, 0, 71, 0
2, 12784, Note_on_c, 0, 79, 75
2, 12799, Note_on_c, 0, 79, 0
2, 12800, Note_on_c, 0, 78, 75
2, 12815, Note_on_c, 0, 78, 0
2, 12816, Note_on_c, 0, 79, 75
2, 12831, Note_on_c, 0, 79, 0
2, 12832, Note_on_c, 0, 74, 75
2, 12847, Note_on_c, 0, 74, 0
2, 12848, Note_on_c, 0, 71, 75
2, 12863, Note_on_c, 0, 71, 0
2, 12864, Note_on_c, 0, 71, 91
2, 12960, Note_on_c, 0, 71, 0
2, 12960, Note_on_c, 0, 69, 75
2, 12975, Note_on_c, 0, 69, 0
2, 12976, Note_on_c, 0, 74, 75
2, 12991, Note_on_c, 0, 74, 0
2, 12992, Note_on_c, 0, 73, 75
2, 13007, Note_on_c, 0, 73, 0
2, 13008, Note_on_c, 0, 74, 75
2, 13023, Note_on_c, 0, 74, 0
2, 13024, Note_on_c, 0, 69, 75
2, 13039, Note_on_c, 0, 69, 0
2, 13040, Note_on_c, 0, 66, 75
2, 13055, Note_on_c, 0, 66, 0
2, 13056, Note_on_c, 0, 67, 75
2, 13079, Note_on_c, 0, 67, 0
2, 13080, Note_on_c, 0, 76, 75
2, 13125, Note_on_c, 0, 76, 0
2, 13128, Note_on_c, 0, 67, 75
2, 13151, Note_on_c, 0, 67, 0
2, 13152, Note_on_c, 0, 66, 75
2, 13175, Note_on_c, 0, 66, 0
2, 13176, Note_on_c, 0, 74, 75
2, 13221, Note_on_c, 0, 74, 0
2, 13224, Note_on_c, 0, 66, 75
2, 13247, Note_on_c, 0, 66, 0
2, 13248, Note_on_c, 0, 69, 68
2, 13254, Note_on_c, 0, 69, 0
2, 13254, Note_on_c, 0, 67, 68
2, 13260, Note_on_c, 0, 67, 0
2, 13260, Note_on_c, 0, 66, 68
2, 13266, Note_on_c, 0, 66, 0
2, 13266, Note_on_c, 0, 67, 68
2, 13272, Note_on_c, 0, 67, 0
2, 13272, Note_on_c, 0, 76, 68
2, 13317, Note_on_c, 0, 76, 0
2, 13320, Note_on_c, 0, 67, 68
2, 13343, Note_on_c, 0, 67, 0
2, 13344, Note_on_c, 0, 66, 68
2, 13367, Note_on_c, 0, 66, 0
2, 13368, Note_on_c, 0, 74, 68
2, 13413, Note_on_c, 0, 74, 0
2, 13416, Note_on_c, 0, 66, 68
2, 13439, Note_on_c, 0, 66, 0
2, 13440, Note_on_c, 0, 69, 75
2, 13464, Note_on_c, 0, 69, 0
2, 13464, Note_on_c, 0, 67, 75
2, 13487, Note_on_c, 0, 67, 0
2, 13488, Note_on_c, 0, 76, 76
2, 13512, Note_on_c, 0, 76, 0
2, 13512, Note_on_c, 0, 67, 77
2, 13535, Note_on_c, 0, 67, 0
2, 13536, Note_on_c, 0, 66, 77
2, 13560, Note_on_c, 0, 66, 0
2, 13560, Note_on_c, 0, 74, 78
2, 13570, Note_on_c, 0, 74, 0
2, 13584, Note_on_c, 0, 74, 79
2, 13608, Note_on_c, 0, 74, 0
2, 13608, Note_on_c, 0, 66, 80
2, 13608, Note_on_c, 0, 62, 80
2, 13631, Note_on_c, 0, 66, 0
2, 13631, Note_on_c, 0, 62, 0
2, 13632, Note_on_c, 0, 67, 75
2, 13640, Note_on_c, 0, 67, 0
2, 13640, Note_on_c, 0, 66, 74
2, 13648, Note_on_c, 0, 66, 0
2, 13648, Note_on_c, 0, 67, 73
2, 13656, Note_on_c, 0, 67, 0
2, 13656, Note_on_c, 0, 66, 73
2, 13664, Note_on_c, 0, 66, 0
2, 13664, Note_on_c, 0, 64, 72
2, 13672, Note_on_c, 0, 64, 0
2, 13672, Note_on_c, 0, 66, 72
2, 13680, Note_on_c, 0, 66, 0
2, 13680, Note_on_c, 0, 64, 71
2, 13747, Note_on_c, 0, 64, 0
2, 13812, Note_on_c, 0, 69, 75
2, 13812, Note_on_c, 0, 61, 75
2, 13824, Note_on_c, 0, 69, 0
2, 13824, Note_on_c, 0, 61, 0
2, 13824, Note_on_c, 0, 69, 75
2, 13824, Note_on_c, 0, 61, 75
2, 13902, Note_on_c, 0, 69, 0
2, 13902, Note_on_c, 0, 61, 0
2, 13908, Note_on_c, 0, 73, 75
2, 13908, Note_on_c, 0, 69, 75
2, 13920, Note_on_c, 0, 73, 0
2, 13920, Note_on_c, 0, 69, 0
2, 13920, Note_on_c, 0, 73, 75
2, 13920, Note_on_c, 0, 69, 75
2, 13998, Note_on_c, 0, 73, 0
2, 13998, Note_on_c, 0, 69, 0
2, 14004, Note_on_c, 0, 76, 75
2, 14004, Note_on_c, 0, 73, 75
2, 14016, Note_on_c, 0, 76, 0
2, 14016, Note_on_c, 0, 73, 0
2, 14016, Note_on_c, 0, 76, 75
2, 14016, Note_on_c, 0, 73, 75
2, 14105, Note_on_c, 0, 76, 0
2, 14105, Note_on_c, 0, 73, 0
2, 14128, Note_on_c, 0, 85, 75
2, 14143, Note_on_c, 0, 85, 0
2, 14144, Note_on_c, 0, 83, 75
2, 14159, Note_on_c, 0, 83, 0
2, 14160, Note_on_c, 0, 81, 75
2, 14175, Note_on_c, 0, 81, 0
2, 14176, Note_on_c, 0, 80, 75
2, 14191, Note_on_c, 0, 80, 0
2, 14192, Note_on_c, 0, 78, 75
2, 14207, Note_on_c, 0, 78, 0
2, 14208, Note_on_c, 0, 76, 91
2, 14280, Note_on_c, 0, 76, 0
2, 14280, Note_on_c, 0, 73, 75
2, 14303, Note_on_c, 0, 73, 0
2, 14304, Note_on_c, 0, 74, 75
2, 14319, Note_on_c, 0, 74, 0
2, 14320, Note_on_c, 0, 83, 75
2, 14335, Note_on_c, 0, 83, 0
2, 14336, Note_on_c, 0, 81, 75
2, 14351, Note_on_c, 0, 81, 0
2, 14352, Note_on_c, 0, 80, 75
2, 14367, Note_on_c, 0, 80, 0
2, 14368, Note_on_c, 0, 78, 75
2, 14383, Note_on_c, 0, 78, 0
2, 14384, Note_on_c, 0, 76, 75
2, 14399, Note_on_c, 0, 76, 0
2, 14400, Note_on_c, 0, 74, 91
2, 14472, Note_on_c, 0, 74, 0
2, 14472, Note_on_c, 0, 71, 75
2, 14495, Note_on_c, 0, 71, 0
2, 14496, Note_on_c, 0, 73, 75
2, 14511, Note_on_c, 0, 73, 0
2, 14512, Note_on_c, 0, 81, 75
2, 14527, Note_on_c, 0, 81, 0
2, 14528, Note_on_c, 0, 80, 75
2, 14543, Note_on_c, 0, 80, 0
2, 14544, Note_on_c, 0, 81, 75
2, 14559, Note_on_c, 0, 81, 0
2, 14560, Note_on_c, 0, 76, 75
2, 14575, Note_on_c, 0, 76, 0
2, 14576, Note_on_c, 0, 73, 75
2, 14591, Note_on_c, 0, 73, 0
2, 14616, Note_on_c, 0, 73, 76
2, 14624, Note_on_c, 0, 73, 0
2, 14624, Note_on_c, 0, 71, 77
2, 14632, Note_on_c, 0, 71, 0
2, 14632, Note_on_c, 0, 70, 77
2, 14640, Note_on_c, 0, 70, 0
2, 14640, Note_on_c, 0, 71, 77
2, 14663, Note_on_c, 0, 71, 0
2, 14664, Note_on_c, 0, 71, 80
2, 14687, Note_on_c, 0, 71, 0
2, 14712, Note_on_c, 0, 71, 80
2, 14720, Note_on_c, 0, 71, 0
2, 14720, Note_on_c, 0, 69, 80
2, 14728, Note_on_c, 0, 69, 0
2, 14728, Note_on_c, 0, 68, 80
2, 14736, Note_on_c, 0, 68, 0
2, 14736, Note_on_c, 0, 69, 80
2, 14759, Note_on_c, 0, 69, 0
2, 14760, Note_on_c, 0, 69, 80
2, 14783, Note_on_c, 0, 69, 0
2, 14784, Note_on_c, 0, 69, 80
2, 14880, Note_on_c, 0, 69, 0
2, 14880, Note_on_c, 0, 68, 76
2, 14925, Note_on_c, 0, 68, 0
2, 15000, Note_on_c, 0, 78, 80
2, 15008, Note_on_c, 0, 78, 0
2, 15008, Note_on_c, 0, 76, 80
2, 15016, Note_on_c, 0, 76, 0
2, 15016, Note_on_c, 0, 75, 80
2, 15024, Note_on_c, 0, 75, 0
2, 15024, Note_on_c, 0, 76, 80
2, 15047, Note_on_c, 0, 76, 0
2, 15048, Note_on_c, 0, 76, 80
2, 15071, Note_on_c, 0, 76, 0
2, 15096, Note_on_c, 0, 78, 80
2, 15104, Note_on_c, 0, 78, 0
2, 15104, Note_on_c, 0, 76, 80
2, 15112, Note_on_c, 0, 76, 0
2, 15112, Note_on_c, 0, 75, 80
2, 15120, Note_on_c, 0, 75, 0
2, 15120, Note_on_c, 0, 76, 80
2, 15143, Note_on_c, 0, 76, 0
2, 15144, Note_on_c, 0, 76, 80
2, 15167, Note_on_c, 0, 76, 0
2, 15168, Note_on_c, 0, 76, 80
2, 15183, Note_on_c, 0, 76, 0
2, 15184, Note_on_c, 0, 88, 80
2, 15199, Note_on_c, 0, 88, 0
2, 15200, Note_on_c, 0, 86, 80
2, 15215, Note_on_c, 0, 86, 0
2, 15216, Note_on_c, 0, 85, 80
2, 15231, Note_on_c, 0, 85, 0
2, 15232, Note_on_c, 0, 83, 80
2, 15247, Note_on_c, 0, 83, 0
2, 15248, Note_on_c, 0, 81, 80
2, 15263, Note_on_c, 0, 81, 0
2, 15264, Note_on_c, 0, 80, 80
2, 15279, Note_on_c, 0, 80, 0
2, 15280, Note_on_c, 0, 78, 80
2, 15295, Note_on_c, 0, 78, 0
2, 15296, Note_on_c, 0, 76, 80
2, 15311, Note_on_c, 0, 76, 0
2, 15312, Note_on_c, 0, 74, 80
2, 15327, Note_on_c, 0, 74, 0
2, 15328, Note_on_c, 0, 73, 80
2, 15343, Note_on_c, 0, 73, 0
2, 15344, Note_on_c, 0, 71, 80
2, 15359, Note_on_c, 0, 71, 0
2, 15384, Note_on_c, 0, 78, 80
2, 15392, Note_on_c, 0, 78, 0
2, 15392, Note_on_c, 0, 76, 80
2, 15400, Note_on_c, 0, 76, 0
2, 15400, Note_on_c, 0, 75, 80
2, 15408, Note_on_c, 0, 75, 0
2, 15408, Note_on_c, 0, 76, 80
2, 15431, Note_on_c, 0, 76, 0
2, 15432, Note_on_c, 0, 76, 80
2, 15455, Note_on_c, 0, 76, 0
2, 15480, Note_on_c, 0, 78, 80
2, 15488, Note_on_c, 0, 78, 0
2, 15488, Note_on_c, 0, 76, 80
2, 15496, Note_on_c, 0, 76, 0
2, 15496, Note_on_c, 0, 75, 80
2, 15504, Note_on_c, 0, 75, 0
2, 15504, Note_on_c, 0, 76, 80
2, 15527, Note_on_c, 0, 76, 0
2, 15528, Note_on_c, 0, 76, 80
2, 15551, Note_on_c, 0, 76, 0
2, 15552, Note_on_c, 0, 76, 80
2, 15567, Note_on_c, 0, 76, 0
2, 15568, Note_on_c, 0, 88, 80
2, 15583, Note_on_c, 0, 88, 0
2, 15584, Note_on_c, 0, 86, 80
2, 15599, Note_on_c, 0, 86, 0
2, 15600, Note_on_c, 0, 85, 80
2, 15615, Note_on_c, 0, 85, 0
2, 15616, Note_on_c, 0, 83, 80
2, 15631, Note_on_c, 0, 83, 0
2, 15632, Note_on_c, 0, 81, 80
2, 15647, Note_on_c, 0, 81, 0
2, 15648, Note_on_c, 0, 80, 80
2, 15663, Note_on_c, 0, 80, 0
2, 15664, Note_on_c, 0, 78, 80
2, 15679, Note_on_c, 0, 78, 0
2, 15680, Note_on_c, 0, 76, 80
2, 15695, Note_on_c, 0, 76, 0
2, 15696, Note_on_c, 0, 74, 80
2, 15711, Note_on_c, 0, 74, 0
2, 15712, Note_on_c, 0, 73, 80
2, 15727, Note_on_c, 0, 73, 0
2, 15728, Note_on_c, 0, 71, 80
2, 15743, Note_on_c, 0, 71, 0
2, 15744, Note_on_c, 0, 69, 80
2, 15759, Note_on_c, 0, 69, 0
2, 15760, Note_on_c, 0, 76, 78
2, 15775, Note_on_c, 0, 76, 0
2, 15776, Note_on_c, 0, 74, 77
2, 15791, Note_on_c, 0, 74, 0
2, 15792, Note_on_c, 0, 73, 76
2, 15807, Note_on_c, 0, 73, 0
2, 15808, Note_on_c, 0, 71, 75
2, 15823, Note_on_c, 0, 71, 0
2, 15824, Note_on_c, 0, 69, 74
2, 15839, Note_on_c, 0, 69, 0
2, 15840, Note_on_c, 0, 68, 73
2, 15855, Note_on_c, 0, 68, 0
2, 15856, Note_on_c, 0, 66, 72
2, 15871, Note_on_c, 0, 66, 0
2, 15872, Note_on_c, 0, 64, 71
2, 15887, Note_on_c, 0, 64, 0
2, 15888, Note_on_c, 0, 62, 70
2, 15903, Note_on_c, 0, 62, 0
2, 15904, Note_on_c, 0, 61, 69
2, 15919, Note_on_c, 0, 61, 0
2, 15920, Note_on_c, 0, 59, 68
2, 15935, Note_on_c, 0, 59, 0
2, 15952, Note_on_c, 0, 64, 63
2, 15967, Note_on_c, 0, 64, 0
2, 15968, Note_on_c, 0, 62, 63
2, 15983, Note_on_c, 0, 62, 0
2, 15984, Note_on_c, 0, 61, 64
2, 15999, Note_on_c, 0, 61, 0
2, 16000, Note_on_c, 0, 59, 64
2, 16015, Note_on_c, 0, 59, 0
2, 16016, Note_on_c, 0, 57, 64
2, 16031, Note_on_c, 0, 57, 0
2, 16048, Note_on_c, 0, 66, 65
2, 16063, Note_on_c, 0, 66, 0
2, 16064, Note_on_c, 0, 64, 65
2, 16079, Note_on_c, 0, 64, 0
2, 16080, Note_on_c, 0, 62, 66
2, 16095, Note_on_c, 0, 62, 0
2, 16096, Note_on_c, 0, 61, 66
2, 16111, Note_on_c, 0, 61, 0
2, 16112, Note_on_c, 0, 59, 66
2, 16127, Note_on_c, 0, 59, 0
2, 16144, Note_on_c, 0, 68, 67
2, 16159, Note_on_c, 0, 68, 0
2, 16160, Note_on_c, 0, 66, 67
2, 16175, Note_on_c, 0, 66, 0
2, 16176, Note_on_c, 0, 64, 68
2, 16191, Note_on_c, 0, 64, 0
2, 16192, Note_on_c, 0, 62, 68
2, 16207, Note_on_c, 0, 62, 0
2, 16208, Note_on_c, 0, 61, 69
2, 16223, Note_on_c, 0, 61, 0
2, 16240, Note_on_c, 0, 69, 69
2, 16255, Note_on_c, 0, 69, 0
2, 16256, Note_on_c, 0, 68, 70
2, 16271, Note_on_c, 0, 68, 0
2, 16272, Note_on_c, 0, 66, 70
2, 16287, Note_on_c, 0, 66, 0
2, 16288, Note_on_c, 0, 64, 70
2, 16303, Note_on_c, 0, 64, 0
2, 16304, Note_on_c, 0, 62, 71
2, 16319, Note_on_c, 0, 62, 0
2, 16336, Note_on_c, 0, 71, 71
2, 16351, Note_on_c, 0, 71, 0
2, 16352, Note_on_c, 0, 69, 72
2, 16367, Note_on_c, 0, 69, 0
2, 16368, Note_on_c, 0, 68, 72
2, 16383, Note_on_c, 0, 68, 0
2, 16384, Note_on_c, 0, 66, 72
2, 16399, Note_on_c, 0, 66, 0
2, 16400, Note_on_c, 0, 64, 73
2, 16415, Note_on_c, 0, 64, 0
2, 16432, Note_on_c, 0, 69, 73
2, 16447, Note_on_c, 0, 69, 0
2, 16448, Note_on_c, 0, 71, 74
2, 16463, Note_on_c, 0, 71, 0
2, 16464, Note_on_c, 0, 73, 74
2, 16479, Note_on_c, 0, 73, 0
2, 16480, Note_on_c, 0, 74, 75
2, 16495, Note_on_c, 0, 74, 0
2, 16496, Note_on_c, 0, 76, 75
2, 16511, Note_on_c, 0, 76, 0
2, 16528, Note_on_c, 0, 71, 80
2, 16543, Note_on_c, 0, 71, 0
2, 16544, Note_on_c, 0, 69, 80
2, 16559, Note_on_c, 0, 69, 0
2, 16560, Note_on_c, 0, 68, 80
2, 16575, Note_on_c, 0, 68, 0
2, 16576, Note_on_c, 0, 66, 80
2, 16591, Note_on_c, 0, 66, 0
2, 16592, Note_on_c, 0, 64, 80
2, 16607, Note_on_c, 0, 64, 0
2, 16624, Note_on_c, 0, 69, 80
2, 16639, Note_on_c, 0, 69, 0
2, 16640, Note_on_c, 0, 71, 78
2, 16655, Note_on_c, 0, 71, 0
2, 16656, Note_on_c, 0, 73, 76
2, 16671, Note_on_c, 0, 73, 0
2, 16672, Note_on_c, 0, 74, 74
2, 16687, Note_on_c, 0, 74, 0
2, 16688, Note_on_c, 0, 76, 73
2, 16703, Note_on_c, 0, 76, 0
2, 16704, Note_on_c, 0, 77, 84
2, 16800, Note_on_c, 0, 77, 0
2, 16800, Note_on_c, 0, 78, 68
2, 16815, Note_on_c, 0, 78, 0
2, 16816, Note_on_c, 0, 80, 68
2, 16831, Note_on_c, 0, 80, 0
2, 16832, Note_on_c, 0, 81, 68
2, 16847, Note_on_c, 0, 81, 0
2, 16848, Note_on_c, 0, 83, 68
2, 16863, Note_on_c, 0, 83, 0
2, 16864, Note_on_c, 0, 85, 68
2, 16879, Note_on_c, 0, 85, 0
2, 16880, Note_on_c, 0, 86, 68
2, 16895, Note_on_c, 0, 86, 0
2, 16896, Note_on_c, 0, 86, 68
2, 16963, Note_on_c, 0, 86, 0
2, 16968, Note_on_c, 0, 88, 69
2, 16991, Note_on_c, 0, 88, 0
2, 16992, Note_on_c, 0, 86, 69
2, 17007, Note_on_c, 0, 86, 0
2, 17008, Note_on_c, 0, 85, 69
2, 17023, Note_on_c, 0, 85, 0
2, 17024, Note_on_c, 0, 83, 69
2, 17039, Note_on_c, 0, 83, 0
2, 17040, Note_on_c, 0, 81, 69
2, 17055, Note_on_c, 0, 81, 0
2, 17056, Note_on_c, 0, 80, 70
2, 17071, Note_on_c, 0, 80, 0
2, 17072, Note_on_c, 0, 78, 70
2, 17087, Note_on_c, 0, 78, 0
2, 17088, Note_on_c, 0, 78, 86
2, 17160, Note_on_c, 0, 78, 0
2, 17160, Note_on_c, 0, 75, 71
2, 17183, Note_on_c, 0, 75, 0
2, 17184, Note_on_c, 0, 76, 71
2, 17199, Note_on_c, 0, 76, 0
2, 17200, Note_on_c, 0, 78, 71
2, 17215, Note_on_c, 0, 78, 0
2, 17216, Note_on_c, 0, 80, 71
2, 17231, Note_on_c, 0, 80, 0
2, 17232, Note_on_c, 0, 81, 71
2, 17247, Note_on_c, 0, 81, 0
2, 17248, Note_on_c, 0, 83, 71
2, 17263, Note_on_c, 0, 83, 0
2, 17264, Note_on_c, 0, 85, 71
2, 17279, Note_on_c, 0, 85, 0
2, 17280, Note_on_c, 0, 85, 71
2, 17347, Note_on_c, 0, 85, 0
2, 17352, Note_on_c, 0, 86, 72
2, 17375, Note_on_c, 0, 86, 0
2, 17376, Note_on_c, 0, 85, 72
2, 17391, Note_on_c, 0, 85, 0
2, 17392, Note_on_c, 0, 83, 72
2, 17407, Note_on_c, 0, 83, 0
2, 17408, Note_on_c, 0, 81, 73
2, 17423, Note_on_c, 0, 81, 0
2, 17424, Note_on_c, 0, 80, 73
2, 17439, Note_on_c, 0, 80, 0
2, 17440, Note_on_c, 0, 78, 73
2, 17455, Note_on_c, 0, 78, 0
2, 17456, Note_on_c, 0, 76, 73
2, 17471, Note_on_c, 0, 76, 0
2, 17472, Note_on_c, 0, 76, 89
2, 17544, Note_on_c, 0, 76, 0
2, 17544, Note_on_c, 0, 73, 74
2, 17567, Note_on_c, 0, 73, 0
2, 17568, Note_on_c, 0, 74, 74
2, 17583, Note_on_c, 0, 74, 0
2, 17584, Note_on_c, 0, 76, 74
2, 17599, Note_on_c, 0, 76, 0
2, 17600, Note_on_c, 0, 78, 74
2, 17615, Note_on_c, 0, 78, 0
2, 17616, Note_on_c, 0, 80, 74
2, 17631, Note_on_c, 0, 80, 0
2, 17632, Note_on_c, 0, 81, 74
2, 17647, Note_on_c, 0, 81, 0
2, 17648, Note_on_c, 0, 83, 75
2, 17663, Note_on_c, 0, 83, 0
2, 17664, Note_on_c, 0, 83, 75
2, 17731, Note_on_c, 0, 83, 0
2, 17736, Note_on_c, 0, 85, 75
2, 17759, Note_on_c, 0, 85, 0
2, 17760, Note_on_c, 0, 83, 76
2, 17775, Note_on_c, 0, 83, 0
2, 17776, Note_on_c, 0, 81, 76
2, 17791, Note_on_c, 0, 81, 0
2, 17792, Note_on_c, 0, 80, 76
2, 17807, Note_on_c, 0, 80, 0
2, 17808, Note_on_c, 0, 78, 76
2, 17823, Note_on_c, 0, 78, 0
2, 17824, Note_on_c, 0, 76, 76
2, 17839, Note_on_c, 0, 76, 0
2, 17840, Note_on_c, 0, 74, 76
2, 17855, Note_on_c, 0, 74, 0
2, 17856, Note_on_c, 0, 74, 92
2, 17928, Note_on_c, 0, 74, 0
2, 17928, Note_on_c, 0, 71, 77
2, 17951, Note_on_c, 0, 71, 0
2, 17952, Note_on_c, 0, 73, 77
2, 17967, Note_on_c, 0, 73, 0
2, 17968, Note_on_c, 0, 74, 77
2, 17983, Note_on_c, 0, 74, 0
2, 17984, Note_on_c, 0, 76, 77
2, 17999, Note_on_c, 0, 76, 0
2, 18000, Note_on_c, 0, 78, 78
2, 18015, Note_on_c, 0, 78, 0
2, 18016, Note_on_c, 0, 80, 78
2, 18031, Note_on_c, 0, 80, 0
2, 18032, Note_on_c, 0, 81, 78
2, 18047, Note_on_c, 0, 81, 0
2, 18048, Note_on_c, 0, 81, 80
2, 18111, Note_on_c, 0, 81, 0
2, 18112, Note_on_c, 0, 85, 81
2, 18127, Note_on_c, 0, 85, 0
2, 18128, Note_on_c, 0, 83, 82
2, 18143, Note_on_c, 0, 83, 0
2, 18144, Note_on_c, 0, 81, 82
2, 18159, Note_on_c, 0, 81, 0
2, 18160, Note_on_c, 0, 80, 83
2, 18175, Note_on_c, 0, 80, 0
2, 18176, Note_on_c, 0, 78, 83
2, 18191, Note_on_c, 0, 78, 0
2, 18192, Note_on_c, 0, 76, 83
2, 18207, Note_on_c, 0, 76, 0
2, 18208, Note_on_c, 0, 74, 84
2, 18223, Note_on_c, 0, 74, 0
2, 18224, Note_on_c, 0, 73, 84
2, 18239, Note_on_c, 0, 73, 0
2, 18240, Note_on_c, 0, 74, 86
2, 18248, Note_on_c, 0, 74, 0
2, 18248, Note_on_c, 0, 73, 85
2, 18256, Note_on_c, 0, 73, 0
2, 18256, Note_on_c, 0, 74, 84
2, 18264, Note_on_c, 0, 74, 0
2, 18264, Note_on_c, 0, 73, 84
2, 18272, Note_on_c, 0, 73, 0
2, 18272, Note_on_c, 0, 74, 83
2, 18280, Note_on_c, 0, 74, 0
2, 18280, Note_on_c, 0, 73, 83
2, 18288, Note_on_c, 0, 73, 0
2, 18288, Note_on_c, 0, 71, 82
2, 18303, Note_on_c, 0, 71, 0
2, 18304, Note_on_c, 0, 85, 80
2, 18319, Note_on_c, 0, 85, 0
2, 18320, Note_on_c, 0, 83, 80
2, 18335, Note_on_c, 0, 83, 0
2, 18336, Note_on_c, 0, 81, 81
2, 18351, Note_on_c, 0, 81, 0
2, 18352, Note_on_c, 0, 80, 81
2, 18367, Note_on_c, 0, 80, 0
2, 18368, Note_on_c, 0, 78, 82
2, 18383, Note_on_c, 0, 78, 0
2, 18384, Note_on_c, 0, 76, 82
2, 18399, Note_on_c, 0, 76, 0
2, 18400, Note_on_c, 0, 74, 83
2, 18415, Note_on_c, 0, 74, 0
2, 18416, Note_on_c, 0, 73, 83
2, 18431, Note_on_c, 0, 73, 0
2, 18432, Note_on_c, 0, 74, 86
2, 18440, Note_on_c, 0, 74, 0
2, 18440, Note_on_c, 0, 73, 85
2, 18448, Note_on_c, 0, 73, 0
2, 18448, Note_on_c, 0, 74, 84
2, 18456, Note_on_c, 0, 74, 0
2, 18456, Note_on_c, 0, 73, 84
2, 18464, Note_on_c, 0, 73, 0
2, 18464, Note_on_c, 0, 74, 83
2, 18472, Note_on_c, 0, 74, 0
2, 18472, Note_on_c, 0, 73, 83
2, 18480, Note_on_c, 0, 73, 0
2, 18480, Note_on_c, 0, 71, 82
2, 18495, Note_on_c, 0, 71, 0
2, 18496, Note_on_c, 0, 85, 80
2, 18511, Note_on_c, 0, 85, 0
2, 18512, Note_on_c, 0, 83, 80
2, 18527, Note_on_c, 0, 83, 0
2, 18528, Note_on_c, 0, 81, 81
2, 18543, Note_on_c, 0, 81, 0
2, 18544, Note_on_c, 0, 80, 81
2, 18559, Note_on_c, 0, 80, 0
2, 18560, Note_on_c, 0, 78, 82
2, 18575, Note_on_c, 0, 78, 0
2, 18576, Note_on_c, 0, 76, 82
2, 18591, Note_on_c, 0, 76, 0
2, 18592, Note_on_c, 0, 74, 83
2, 18607, Note_on_c, 0, 74, 0
2, 18608, Note_on_c, 0, 73, 83
2, 18623, Note_on_c, 0, 73, 0
2, 18624, Note_on_c, 0, 73, 86
2, 18633, Note_on_c, 0, 73, 0
2, 18633, Note_on_c, 0, 74, 85
2, 18642, Note_on_c, 0, 74, 0
2, 18642, Note_on_c, 0, 73, 84
2, 18651, Note_on_c, 0, 73, 0
2, 18651, Note_on_c, 0, 74, 84
2, 18660, Note_on_c, 0, 74, 0
2, 18660, Note_on_c, 0, 73, 83
2, 18669, Note_on_c, 0, 73, 0
2, 18669, Note_on_c, 0, 74, 83
2, 18678, Note_on_c, 0, 74, 0
2, 18678, Note_on_c, 0, 73, 82
2, 18687, Note_on_c, 0, 73, 0
2, 18687, Note_on_c, 0, 71, 82
2, 18704, Note_on_c, 0, 71, 0
2, 18704, Note_on_c, 0, 73, 80
2, 18720, Note_on_c, 0, 73, 0
2, 18720, Note_on_c, 0, 71, 79
2, 18809, Note_on_c, 0, 71, 0
2, 18948, Note_on_c, 0, 52, 64
2, 18960, Note_on_c, 0, 52, 0
2, 18960, Note_on_c, 0, 57, 64
2, 18994, Note_on_c, 0, 57, 0
2, 18996, Note_on_c, 0, 61, 65
2, 19008, Note_on_c, 0, 61, 0
2, 19008, Note_on_c, 0, 61, 66
2, 19042, Note_on_c, 0, 61, 0
2, 19044, Note_on_c, 0, 54, 67
2, 19056, Note_on_c, 0, 54, 0
2, 19056, Note_on_c, 0, 59, 68
2, 19090, Note_on_c, 0, 59, 0
2, 19092, Note_on_c, 0, 62, 69
2, 19104, Note_on_c, 0, 62, 0
2, 19104, Note_on_c, 0, 62, 69
2, 19138, Note_on_c, 0, 62, 0
2, 19140, Note_on_c, 0, 56, 71
2, 19152, Note_on_c, 0, 56, 0
2, 19152, Note_on_c, 0, 61, 71
2, 19186, Note_on_c, 0, 61, 0
2, 19188, Note_on_c, 0, 64, 72
2, 19200, Note_on_c, 0, 64, 0
2, 19200, Note_on_c, 0, 64, 73
2, 19234, Note_on_c, 0, 64, 0
2, 19236, Note_on_c, 0, 57, 74
2, 19248, Note_on_c, 0, 57, 0
2, 19248, Note_on_c, 0, 62, 74
2, 19282, Note_on_c, 0, 62, 0
2, 19284, Note_on_c, 0, 66, 76
2, 19296, Note_on_c, 0, 66, 0
2, 19296, Note_on_c, 0, 66, 76
2, 19319, Note_on_c, 0, 66, 0
2, 19320, Note_on_c, 0, 64, 77
2, 19332, Note_on_c, 0, 64, 0
2, 19332, Note_on_c, 0, 62, 77
2, 19344, Note_on_c, 0, 62, 0
2, 19344, Note_on_c, 0, 61, 78
2, 19367, Note_on_c, 0, 61, 0
2, 19368, Note_on_c, 0, 62, 79
2, 19391, Note_on_c, 0, 62, 0
2, 19392, Note_on_c, 0, 61, 80
2, 19426, Note_on_c, 0, 61, 0
2, 19428, Note_on_c, 0, 69, 80
2, 19428, Note_on_c, 0, 61, 80
2, 19440, Note_on_c, 0, 69, 0
2, 19440, Note_on_c, 0, 61, 0
2, 19440, Note_on_c, 0, 69, 80
2, 19440, Note_on_c, 0, 61, 80
2, 19474, Note_on_c, 0, 69, 0
2, 19474, Note_on_c, 0, 61, 0
2, 19476, Note_on_c, 0, 69, 80
2, 19476, Note_on_c, 0, 61, 80
2, 19488, Note_on_c, 0, 69, 0
2, 19488, Note_on_c, 0, 61, 0
2, 19488, Note_on_c, 0, 69, 80
2, 19488, Note_on_c, 0, 61, 80
2, 19522, Note_on_c, 0, 69, 0
2, 19522, Note_on_c, 0, 61, 0
2, 19524, Note_on_c, 0, 73, 80
2, 19524, Note_on_c, 0, 69, 80
2, 19536, Note_on_c, 0, 73, 0
2, 19536, Note_on_c, 0, 69, 0
2, 19536, Note_on_c, 0, 73, 80
2, 19536, Note_on_c, 0, 69, 80
2, 19570, Note_on_c, 0, 73, 0
2, 19570, Note_on_c, 0, 69, 0
2, 19572, Note_on_c, 0, 73, 80
2, 19572, Note_on_c, 0, 69, 80
2, 19584, Note_on_c, 0, 73, 0
2, 19584, Note_on_c, 0, 69, 0
2, 19584, Note_on_c, 0, 73, 80
2, 19584, Note_on_c, 0, 69, 80
2, 19618, Note_on_c, 0, 73, 0
2, 19618, Note_on_c, 0, 69, 0
2, 19620, Note_on_c, 0, 81, 80
2, 19620, Note_on_c, 0, 73, 80
2, 19632, Note_on_c, 0, 81, 0
2, 19632, Note_on_c, 0, 73, 0
2, 19632, Note_on_c, 0, 81, 80
2, 19632, Note_on_c, 0, 73, 80
2, 19666, Note_on_c, 0, 81, 0
2, 19666, Note_on_c, 0, 73, 0
2, 19668, Note_on_c, 0, 81, 80
2, 19668, Note_on_c, 0, 73, 80
2, 19680, Note_on_c, 0, 81, 0
2, 19680, Note_on_c, 0, 73, 0
2, 19680, Note_on_c, 0, 81, 80
2, 19680, Note_on_c, 0, 73, 80
2, 19725, Note_on_c, 0, 81, 0
2, 19725, Note_on_c, 0, 73, 0
2, 19812, Note_on_c, 0, 78, 80
2, 19812, Note_on_c, 0, 74, 80
2, 19824, Note_on_c, 0, 78, 0
2, 19824, Note_on_c, 0, 74, 0
2, 19824, Note_on_c, 0, 76, 80
2, 19824, Note_on_c, 0, 73, 80
2, 19858, Note_on_c, 0, 76, 0
2, 19858, Note_on_c, 0, 73, 0
2, 19860, Note_on_c, 0, 74, 80
2, 19860, Note_on_c, 0, 71, 80
2, 19872, Note_on_c, 0, 74, 0
2, 19872, Note_on_c, 0, 71, 0
2, 19872, Note_on_c, 0, 73, 80
2, 19872, Note_on_c, 0, 69, 80
2, 19917, Note_on_c, 0, 73, 0
2, 19917, Note_on_c, 0, 69, 0
2, 19920, Note_on_c, 0, 71, 80
2, 19920, Note_on_c, 0, 68, 80
2, 19965, Note_on_c, 0, 71, 0
2, 19965, Note_on_c, 0, 68, 0
2, 19984, Note_on_c, 0, 69, 75
2, 19999, Note_on_c, 0, 69, 0
2, 20000, Note_on_c, 0, 71, 75
2, 20015, Note_on_c, 0, 71, 0
2, 20016, Note_on_c, 0, 73, 75
2, 20031, Note_on_c, 0, 73, 0
2, 20032, Note_on_c, 0, 74, 75
2, 20047, Note_on_c, 0, 74, 0
2, 20048, Note_on_c, 0, 76, 75
2, 20063, Note_on_c, 0, 76, 0
2, 20064, Note_on_c, 0, 74, 75
2, 20064, Note_on_c, 0, 71, 75
2, 20153, Note_on_c, 0, 74, 0
2, 20153, Note_on_c, 0, 71, 0
2, 20176, Note_on_c, 0, 69, 75
2, 20191, Note_on_c, 0, 69, 0
2, 20192, Note_on_c, 0, 71, 75
2, 20207, Note_on_c, 0, 71, 0
2, 20208, Note_on_c, 0, 73, 75
2, 20223, Note_on_c, 0, 73, 0
2, 20224, Note_on_c, 0, 74, 75
2, 20239, Note_on_c, 0, 74, 0
2, 20240, Note_on_c, 0, 76, 75
2, 20255, Note_on_c, 0, 76, 0
2, 20256, Note_on_c, 0, 74, 75
2, 20256, Note_on_c, 0, 71, 75
2, 20345, Note_on_c, 0, 74, 0
2, 20345, Note_on_c, 0, 71, 0
2, 20368, Note_on_c, 0, 69, 75
2, 20383, Note_on_c, 0, 69, 0
2, 20384, Note_on_c, 0, 71, 75
2, 20399, Note_on_c, 0, 71, 0
2, 20400, Note_on_c, 0, 73, 75
2, 20415, Note_on_c, 0, 73, 0
2, 20416, Note_on_c, 0, 74, 75
2, 20431, Note_on_c, 0, 74, 0
2, 20432, Note_on_c, 0, 76, 75
2, 20447, Note_on_c, 0, 76, 0
2, 20464, Note_on_c, 0, 71, 75
2, 20479, Note_on_c, 0, 71, 0
2, 20480, Note_on_c, 0, 73, 75
2, 20495, Note_on_c, 0, 73, 0
2, 20496, Note_on_c, 0, 74, 75
2, 20511, Note_on_c, 0, 74, 0
2, 20512, Note_on_c, 0, 76, 75
2, 20527, Note_on_c, 0, 76, 0
2, 20528, Note_on_c, 0, 78, 75
2, 20543, Note_on_c, 0, 78, 0
2, 20544, Note_on_c, 0, 64, 75
2, 20633, Note_on_c, 0, 64, 0
2, 20640, Note_on_c, 0, 71, 75
2, 20649, Note_on_c, 0, 71, 0
2, 20649, Note_on_c, 0, 73, 75
2, 20658, Note_on_c, 0, 73, 0
2, 20658, Note_on_c, 0, 71, 75
2, 20667, Note_on_c, 0, 71, 0
2, 20667, Note_on_c, 0, 73, 75
2, 20676, Note_on_c, 0, 73, 0
2, 20676, Note_on_c, 0, 71, 75
2, 20685, Note_on_c, 0, 71, 0
2, 20685, Note_on_c, 0, 73, 75
2, 20694, Note_on_c, 0, 73, 0
2, 20694, Note_on_c, 0, 71, 75
2, 20703, Note_on_c, 0, 71, 0
2, 20703, Note_on_c, 0, 73, 75
2, 20712, Note_on_c, 0, 73, 0
2, 20712, Note_on_c, 0, 71, 75
2, 20720, Note_on_c, 0, 71, 0
2, 20720, Note_on_c, 0, 69, 75
2, 20728, Note_on_c, 0, 69, 0
2, 20728, Note_on_c, 0, 71, 75
2, 20736, Note_on_c, 0, 71, 0
2, 20752, Note_on_c, 0, 69, 75
2, 20767, Note_on_c, 0, 69, 0
2, 20768, Note_on_c, 0, 71, 75
2, 20783, Note_on_c, 0, 71, 0
2, 20784, Note_on_c, 0, 73, 75
2, 20799, Note_on_c, 0, 73, 0
2, 20800, Note_on_c, 0, 74, 75
2, 20815, Note_on_c, 0, 74, 0
2, 20816, Note_on_c, 0, 76, 75
2, 20831, Note_on_c, 0, 76, 0
2, 20848, Note_on_c, 0, 71, 75
2, 20863, Note_on_c, 0, 71, 0
2, 20864, Note_on_c, 0, 73, 75
2, 20879, Note_on_c, 0, 73, 0
2, 20880, Note_on_c, 0, 74, 75
2, 20895, Note_on_c, 0, 74, 0
2, 20896, Note_on_c, 0, 76, 75
2, 20911, Note_on_c, 0, 76, 0
2, 20912, Note_on_c, 0, 78, 75
2, 20927, Note_on_c, 0, 78, 0
2, 20928, Note_on_c, 0, 64, 75
2, 21017, Note_on_c, 0, 64, 0
2, 21024, Note_on_c, 0, 71, 75
2, 21033, Note_on_c, 0, 71, 0
2, 21033, Note_on_c, 0, 73, 75
2, 21042, Note_on_c, 0, 73, 0
2, 21042, Note_on_c, 0, 71, 75
2, 21051, Note_on_c, 0, 71, 0
2, 21051, Note_on_c, 0, 73, 75
2, 21060, Note_on_c, 0, 73, 0
2, 21060, Note_on_c, 0, 71, 75
2, 21069, Note_on_c, 0, 71, 0
2, 21069, Note_on_c, 0, 73, 75
2, 21078, Note_on_c, 0, 73, 0
2, 21078, Note_on_c, 0, 71, 75
2, 21087, Note_on_c, 0, 71, 0
2, 21087, Note_on_c, 0, 73, 75
2, 21096, Note_on_c, 0, 73, 0
2, 21096, Note_on_c, 0, 71, 75
2, 21104, Note_on_c, 0, 71, 0
2, 21104, Note_on_c, 0, 69, 75
2, 21112, Note_on_c, 0, 69, 0
2, 21112, Note_on_c, 0, 71, 75
2, 21120, Note_on_c, 0, 71, 0
2, 21120, Note_on_c, 0, 69, 75
2, 21140, Note_on_c, 0, 69, 0
2, 21168, Note_on_c, 0, 76, 63
2, 21213, Note_on_c, 0, 76, 0
2, 21216, Note_on_c, 0, 77, 63
2, 21231, Note_on_c, 0, 77, 0
2, 21232, Note_on_c, 0, 76, 63
2, 21247, Note_on_c, 0, 76, 0
2, 21248, Note_on_c, 0, 77, 63
2, 21263, Note_on_c, 0, 77, 0
2, 21264, Note_on_c, 0, 81, 63
2, 21279, Note_on_c, 0, 81, 0
2, 21280, Note_on_c, 0, 79, 63
2, 21295, Note_on_c, 0, 79, 0
2, 21296, Note_on_c, 0, 77, 63
2, 21311, Note_on_c, 0, 77, 0
2, 21312, Note_on_c, 0, 75, 63
2, 21327, Note_on_c, 0, 75, 0
2, 21328, Note_on_c, 0, 76, 63
2, 21343, Note_on_c, 0, 76, 0
2, 21344, Note_on_c, 0, 78, 63
2, 21359, Note_on_c, 0, 78, 0
2, 21360, Note_on_c, 0, 76, 63
2, 21375, Note_on_c, 0, 76, 0
2, 21376, Note_on_c, 0, 78, 63
2, 21391, Note_on_c, 0, 78, 0
2, 21392, Note_on_c, 0, 79, 64
2, 21407, Note_on_c, 0, 79, 0
2, 21408, Note_on_c, 0, 73, 64
2, 21423, Note_on_c, 0, 73, 0
2, 21424, Note_on_c, 0, 74, 64
2, 21439, Note_on_c, 0, 74, 0
2, 21440, Note_on_c, 0, 76, 64
2, 21455, Note_on_c, 0, 76, 0
2, 21456, Note_on_c, 0, 74, 65
2, 21471, Note_on_c, 0, 74, 0
2, 21472, Note_on_c, 0, 76, 65
2, 21487, Note_on_c, 0, 76, 0
2, 21488, Note_on_c, 0, 77, 65
2, 21503, Note_on_c, 0, 77, 0
2, 21504, Note_on_c, 0, 71, 65
2, 21519, Note_on_c, 0, 71, 0
2, 21520, Note_on_c, 0, 72, 66
2, 21535, Note_on_c, 0, 72, 0
2, 21536, Note_on_c, 0, 74, 66
2, 21551, Note_on_c, 0, 74, 0
2, 21552, Note_on_c, 0, 72, 66
2, 21567, Note_on_c, 0, 72, 0
2, 21568, Note_on_c, 0, 74, 66
2, 21583, Note_on_c, 0, 74, 0
2, 21584, Note_on_c, 0, 76, 67
2, 21599, Note_on_c, 0, 76, 0
2, 21600, Note_on_c, 0, 69, 67
2, 21615, Note_on_c, 0, 69, 0
2, 21616, Note_on_c, 0, 71, 67
2, 21631, Note_on_c, 0, 71, 0
2, 21632, Note_on_c, 0, 72, 67
2, 21647, Note_on_c, 0, 72, 0
2, 21648, Note_on_c, 0, 71, 68
2, 21663, Note_on_c, 0, 71, 0
2, 21664, Note_on_c, 0, 72, 68
2, 21679, Note_on_c, 0, 72, 0
2, 21680, Note_on_c, 0, 74, 68
2, 21695, Note_on_c, 0, 74, 0
2, 21696, Note_on_c, 0, 68, 68
2, 21711, Note_on_c, 0, 68, 0
2, 21712, Note_on_c, 0, 69, 69
2, 21727, Note_on_c, 0, 69, 0
2, 21728, Note_on_c, 0, 71, 69
2, 21743, Note_on_c, 0, 71, 0
2, 21744, Note_on_c, 0, 69, 69
2, 21759, Note_on_c, 0, 69, 0
2, 21760, Note_on_c, 0, 71, 69
2, 21775, Note_on_c, 0, 71, 0
2, 21776, Note_on_c, 0, 72, 70
2, 21791, Note_on_c, 0, 72, 0
2, 21792, Note_on_c, 0, 71, 70
2, 21807, Note_on_c, 0, 71, 0
2, 21808, Note_on_c, 0, 72, 70
2, 21823, Note_on_c, 0, 72, 0
2, 21824, Note_on_c, 0, 74, 70
2, 21839, Note_on_c, 0, 74, 0
2, 21840, Note_on_c, 0, 72, 71
2, 21855, Note_on_c, 0, 72, 0
2, 21856, Note_on_c, 0, 74, 71
2, 21871, Note_on_c, 0, 74, 0
2, 21872, Note_on_c, 0, 76, 71
2, 21887, Note_on_c, 0, 76, 0
2, 21888, Note_on_c, 0, 74, 71
2, 21896, Note_on_c, 0, 74, 0
2, 21896, Note_on_c, 0, 72, 75
2, 21904, Note_on_c, 0, 72, 0
2, 21904, Note_on_c, 0, 74, 75
2, 21912, Note_on_c, 0, 74, 0
2, 21912, Note_on_c, 0, 72, 75
2, 21920, Note_on_c, 0, 72, 0
2, 21920, Note_on_c, 0, 71, 75
2, 21928, Note_on_c, 0, 71, 0
2, 21928, Note_on_c, 0, 72, 75
2, 21936, Note_on_c, 0, 72, 0
2, 21936, Note_on_c, 0, 71, 75
2, 21959, Note_on_c, 0, 71, 0
2, 21972, Note_on_c, 0, 74, 80
2, 21972, Note_on_c, 0, 71, 80
2, 21984, Note_on_c, 0, 74, 0
2, 21984, Note_on_c, 0, 71, 0
2, 21984, Note_on_c, 0, 74, 80
2, 21984, Note_on_c, 0, 71, 80
2, 22062, Note_on_c, 0, 74, 0
2, 22062, Note_on_c, 0, 71, 0
2, 22068, Note_on_c, 0, 80, 80
2, 22068, Note_on_c, 0, 74, 80
2, 22080, Note_on_c, 0, 80, 0
2, 22080, Note_on_c, 0, 74, 0
2, 22080, Note_on_c, 0, 80, 80
2, 22080, Note_on_c, 0, 74, 80
2, 22158, Note_on_c, 0, 80, 0
2, 22158, Note_on_c, 0, 74, 0
2, 22164, Note_on_c, 0, 83, 80
2, 22164, Note_on_c, 0, 80, 80
2, 22176, Note_on_c, 0, 83, 0
2, 22176, Note_on_c, 0, 80, 0
2, 22176, Note_on_c, 0, 83, 80
2, 22176, Note_on_c, 0, 80, 80
2, 22243, Note_on_c, 0, 83, 0
2, 22243, Note_on_c, 0, 80, 0
2, 22248, Note_on_c, 0, 83, 80
2, 22260, Note_on_c, 0, 83, 0
2, 22260, Note_on_c, 0, 86, 80
2, 22272, Note_on_c, 0, 86, 0
2, 22272, Note_on_c, 0, 85, 80
2, 22287, Note_on_c, 0, 85, 0
2, 22288, Note_on_c, 0, 88, 80
2, 22303, Note_on_c, 0, 88, 0
2, 22304, Note_on_c, 0, 86, 80
2, 22319, Note_on_c, 0, 86, 0
2, 22320, Note_on_c, 0, 85, 80
2, 22335, Note_on_c, 0, 85, 0
2, 22336, Note_on_c, 0, 83, 80
2, 22351, Note_on_c, 0, 83, 0
2, 22352, Note_on_c, 0, 81, 80
2, 22367, Note_on_c, 0, 81, 0
2, 22368, Note_on_c, 0, 80, 80
2, 22383, Note_on_c, 0, 80, 0
2, 22384, Note_on_c, 0, 78, 80
2, 22399, Note_on_c, 0, 78, 0
2, 22400, Note_on_c, 0, 76, 80
2, 22415, Note_on_c, 0, 76, 0
2, 22416, Note_on_c, 0, 74, 80
2, 22431, Note_on_c, 0, 74, 0
2, 22432, Note_on_c, 0, 73, 80
2, 22447, Note_on_c, 0, 73, 0
2, 22448, Note_on_c, 0, 71, 80
2, 22463, Note_on_c, 0, 71, 0
2, 22464, Note_on_c, 0, 69, 80
2, 22531, Note_on_c, 0, 69, 0
2, 22536, Note_on_c, 0, 71, 73
2, 22559, Note_on_c, 0, 71, 0
2, 22560, Note_on_c, 0, 71, 71
2, 22569, Note_on_c, 0, 71, 0
2, 22569, Note_on_c, 0, 73, 70
2, 22578, Note_on_c, 0, 73, 0
2, 22578, Note_on_c, 0, 71, 70
2, 22587, Note_on_c, 0, 71, 0
2, 22587, Note_on_c, 0, 73, 69
2, 22596, Note_on_c, 0, 73, 0
2, 22596, Note_on_c, 0, 71, 69
2, 22605, Note_on_c, 0, 71, 0
2, 22605, Note_on_c, 0, 73, 68
2, 22614, Note_on_c, 0, 73, 0
2, 22614, Note_on_c, 0, 71, 68
2, 22623, Note_on_c, 0, 71, 0
2, 22623, Note_on_c, 0, 73, 67
2, 22632, Note_on_c, 0, 73, 0
2, 22632, Note_on_c, 0, 71, 67
2, 22640, Note_on_c, 0, 71, 0
2, 22640, Note_on_c, 0, 69, 66
2, 22648, Note_on_c, 0, 69, 0
2, 22648, Note_on_c, 0, 71, 66
2, 22656, Note_on_c, 0, 71, 0
2, 22656, Note_on_c, 0, 69, 63
2, 22745, Note_on_c, 0, 69, 0
2, 22836, Note_on_c, 0, 76, 75
2, 22836, Note_on_c, 0, 73, 75
2, 22848, Note_on_c, 0, 76, 0
2, 22848, Note_on_c, 0, 73, 0
2, 22848, Note_on_c, 0, 76, 75
2, 22848, Note_on_c, 0, 73, 75
2, 22926, Note_on_c, 0, 76, 0
2, 22926, Note_on_c, 0, 73, 0
2, 22932, Note_on_c, 0, 73, 75
2, 22932, Note_on_c, 0, 69, 75
2, 22944, Note_on_c, 0, 73, 0
2, 22944, Note_on_c, 0, 69, 0
2, 22944, Note_on_c, 0, 73, 75
2, 22944, Note_on_c, 0, 69, 75
2, 23022, Note_on_c, 0, 73, 0
2, 23022, Note_on_c, 0, 69, 0
2, 23028, Note_on_c, 0, 69, 75
2, 23028, Note_on_c, 0, 61, 75
2, 23040, Note_on_c, 0, 69, 0
2, 23040, Note_on_c, 0, 61, 0
2, 23040, Note_on_c, 0, 69, 75
2, 23040, Note_on_c, 0, 61, 75
2, 23129, Note_on_c, 0, 69, 0
2, 23129, Note_on_c, 0, 61, 0
2, 23152, Note_on_c, 0, 57, 75
2, 23167, Note_on_c, 0, 57, 0
2, 23168, Note_on_c, 0, 59, 75
2, 23183, Note_on_c, 0, 59, 0
2, 23184, Note_on_c, 0, 61, 75
2, 23199, Note_on_c, 0, 61, 0
2, 23200, Note_on_c, 0, 62, 75
2, 23215, Note_on_c, 0, 62, 0
2, 23216, Note_on_c, 0, 64, 75
2, 23231, Note_on_c, 0, 64, 0
2, 23232, Note_on_c, 0, 65, 91
2, 23328, Note_on_c, 0, 65, 0
2, 23328, Note_on_c, 0, 66, 75
2, 23343, Note_on_c, 0, 66, 0
2, 23344, Note_on_c, 0, 74, 75
2, 23359, Note_on_c, 0, 74, 0
2, 23360, Note_on_c, 0, 73, 75
2, 23375, Note_on_c, 0, 73, 0
2, 23376, Note_on_c, 0, 74, 75
2, 23391, Note_on_c, 0, 74, 0
2, 23392, Note_on_c, 0, 69, 75
2, 23407, Note_on_c, 0, 69, 0
2, 23408, Note_on_c, 0, 66, 75
2, 23423, Note_on_c, 0, 66, 0
2, 23424, Note_on_c, 0, 66, 91
2, 23520, Note_on_c, 0, 66, 0
2, 23520, Note_on_c, 0, 64, 75
2, 23535, Note_on_c, 0, 64, 0
2, 23536, Note_on_c, 0, 69, 75
2, 23551, Note_on_c, 0, 69, 0
2, 23552, Note_on_c, 0, 68, 75
2, 23567, Note_on_c, 0, 68, 0
2, 23568, Note_on_c, 0, 69, 75
2, 23583, Note_on_c, 0, 69, 0
2, 23584, Note_on_c, 0, 73, 75
2, 23599, Note_on_c, 0, 73, 0
2, 23600, Note_on_c, 0, 76, 75
2, 23615, Note_on_c, 0, 76, 0
2, 23616, Note_on_c, 0, 76, 91
2, 23640, Note_on_c, 0, 76, 0
2, 23640, Note_on_c, 0, 74, 75
2, 23663, Note_on_c, 0, 74, 0
2, 23664, Note_on_c, 0, 83, 75
2, 23687, Note_on_c, 0, 83, 0
2, 23688, Note_on_c, 0, 74, 75
2, 23711, Note_on_c, 0, 74, 0
2, 23712, Note_on_c, 0, 73, 75
2, 23736, Note_on_c, 0, 73, 0
2, 23736, Note_on_c, 0, 81, 75
2, 23746, Note_on_c, 0, 81, 0
2, 23760, Note_on_c, 0, 81, 75
2, 23784, Note_on_c, 0, 81, 0
2, 23784, Note_on_c, 0, 73, 75
2, 23807, Note_on_c, 0, 73, 0
2, 23808, Note_on_c, 0, 76, 75
2, 23853, Note_on_c, 0, 76, 0
2, 23856, Note_on_c, 0, 74, 75
2, 23868, Note_on_c, 0, 74, 0
2, 23868, Note_on_c, 0, 73, 75
2, 23880, Note_on_c, 0, 73, 0
2, 23880, Note_on_c, 0, 71, 75
2, 23892, Note_on_c, 0, 71, 0
2, 23892, Note_on_c, 0, 73, 75
2, 23904, Note_on_c, 0, 73, 0
2, 23904, Note_on_c, 0, 71, 75
2, 23949, Note_on_c, 0, 71, 0
2, 24000, Note_on_c, 0, 76, 68
2, 24067, Note_on_c, 0, 76, 0
2, 24072, Note_on_c, 0, 71, 68
2, 24095, Note_on_c, 0, 71, 0
2, 24096, Note_on_c, 0, 79, 68
2, 24111, Note_on_c, 0, 79, 0
2, 24112, Note_on_c, 0, 78, 68
2, 24127, Note_on_c, 0, 78, 0
2, 24128, Note_on_c, 0, 76, 68
2, 24143, Note_on_c, 0, 76, 0
2, 24144, Note_on_c, 0, 74, 68
2, 24159, Note_on_c, 0, 74, 0
2, 24160, Note_on_c, 0, 73, 68
2, 24175, Note_on_c, 0, 73, 0
2, 24176, Note_on_c, 0, 71, 68
2, 24191, Note_on_c, 0, 71, 0
2, 24192, Note_on_c, 0, 71, 84
2, 24264, Note_on_c, 0, 71, 0
2, 24264, Note_on_c, 0, 68, 68
2, 24287, Note_on_c, 0, 68, 0
2, 24288, Note_on_c, 0, 70, 68
2, 24303, Note_on_c, 0, 70, 0
2, 24304, Note_on_c, 0, 71, 68
2, 24319, Note_on_c, 0, 71, 0
2, 24320, Note_on_c, 0, 73, 68
2, 24335, Note_on_c, 0, 73, 0
2, 24336, Note_on_c, 0, 74, 68
2, 24351, Note_on_c, 0, 74, 0
2, 24352, Note_on_c, 0, 76, 68
2, 24367, Note_on_c, 0, 76, 0
2, 24368, Note_on_c, 0, 73, 68
2, 24383, Note_on_c, 0, 73, 0
2, 24384, Note_on_c, 0, 78, 68
2, 24451, Note_on_c, 0, 78, 0
2, 24456, Note_on_c, 0, 71, 68
2, 24479, Note_on_c, 0, 71, 0
2, 24480, Note_on_c, 0, 78, 68
2, 24495, Note_on_c, 0, 78, 0
2, 24496, Note_on_c, 0, 76, 68
2, 24511, Note_on_c, 0, 76, 0
2, 24512, Note_on_c, 0, 74, 68
2, 24527, Note_on_c, 0, 74, 0
2, 24528, Note_on_c, 0, 73, 68
2, 24543, Note_on_c, 0, 73, 0
2, 24544, Note_on_c, 0, 71, 68
2, 24559, Note_on_c, 0, 71, 0
2, 24560, Note_on_c, 0, 69, 68
2, 24575, Note_on_c, 0, 69, 0
2, 24576, Note_on_c, 0, 69, 84
2, 24648, Note_on_c, 0, 69, 0
2, 24648, Note_on_c, 0, 66, 68
2, 24671, Note_on_c, 0, 66, 0
2, 24672, Note_on_c, 0, 68, 68
2, 24687, Note_on_c, 0, 68, 0
2, 24688, Note_on_c, 0, 69, 68
2, 24703, Note_on_c, 0, 69, 0
2, 24704, Note_on_c, 0, 71, 68
2, 24719, Note_on_c, 0, 71, 0
2, 24720, Note_on_c, 0, 73, 68
2, 24735, Note_on_c, 0, 73, 0
2, 24736, Note_on_c, 0, 74, 68
2, 24751, Note_on_c, 0, 74, 0
2, 24752, Note_on_c, 0, 71, 68
2, 24767, Note_on_c, 0, 71, 0
2, 24768, Note_on_c, 0, 76, 68
2, 24835, Note_on_c, 0, 76, 0
2, 24840, Note_on_c, 0, 67, 66
2, 24863, Note_on_c, 0, 67, 0
2, 24864, Note_on_c, 0, 76, 65
2, 24879, Note_on_c, 0, 76, 0
2, 24880, Note_on_c, 0, 74, 65
2, 24895, Note_on_c, 0, 74, 0
2, 24896, Note_on_c, 0, 73, 64
2, 24911, Note_on_c, 0, 73, 0
2, 24912, Note_on_c, 0, 71, 64
2, 24927, Note_on_c, 0, 71, 0
2, 24928, Note_on_c, 0, 69, 64
2, 24943, Note_on_c, 0, 69, 0
2, 24944, Note_on_c, 0, 67, 63
2, 24959, Note_on_c, 0, 67, 0
2, 24960, Note_on_c, 0, 69, 63
2, 24966, Note_on_c, 0, 69, 0
2, 24966, Note_on_c, 0, 67, 63
2, 24972, Note_on_c, 0, 67, 0
2, 24972, Note_on_c, 0, 66, 63
2, 24978, Note_on_c, 0, 66, 0
2, 24978, Note_on_c, 0, 67, 63
2, 25032, Note_on_c, 0, 67, 0
2, 25032, Note_on_c, 0, 66, 63
2, 25121, Note_on_c, 0, 66, 0
2, 25284, Note_on_c, 0, 66, 63
2, 25296, Note_on_c, 0, 66, 0
2, 25296, Note_on_c, 0, 71, 63
2, 25330, Note_on_c, 0, 71, 0
2, 25332, Note_on_c, 0, 74, 63
2, 25344, Note_on_c, 0, 74, 0
2, 25344, Note_on_c, 0, 74, 64
2, 25378, Note_on_c, 0, 74, 0
2, 25380, Note_on_c, 0, 67, 64
2, 25392, Note_on_c, 0, 67, 0
2, 25392, Note_on_c, 0, 73, 64
2, 25426, Note_on_c, 0, 73, 0
2, 25428, Note_on_c, 0, 76, 65
2, 25440, Note_on_c, 0, 76, 0
2, 25440, Note_on_c, 0, 76, 65
2, 25474, Note_on_c, 0, 76, 0
2, 25476, Note_on_c, 0, 69, 66
2, 25488, Note_on_c, 0, 69, 0
2, 25488, Note_on_c, 0, 74, 66
2, 25522, Note_on_c, 0, 74, 0
2, 25524, Note_on_c, 0, 78, 67
2, 25536, Note_on_c, 0, 78, 0
2, 25536, Note_on_c, 0, 78, 67
2, 25570, Note_on_c, 0, 78, 0
2, 25572, Note_on_c, 0, 71, 68
2, 25584, Note_on_c, 0, 71, 0
2, 25584, Note_on_c, 0, 76, 68
2, 25618, Note_on_c, 0, 76, 0
2, 25620, Note_on_c, 0, 79, 69
2, 25632, Note_on_c, 0, 79, 0
2, 25632, Note_on_c, 0, 79, 69
2, 25666, Note_on_c, 0, 79, 0
2, 25668, Note_on_c, 0, 73, 69
2, 25680, Note_on_c, 0, 73, 0
2, 25680, Note_on_c, 0, 78, 70
2, 25714, Note_on_c, 0, 78, 0
2, 25716, Note_on_c, 0, 81, 70
2, 25728, Note_on_c, 0, 81, 0
2, 25728, Note_on_c, 0, 81, 70
2, 25762, Note_on_c, 0, 81, 0
2, 25764, Note_on_c, 0, 74, 71
2, 25776, Note_on_c, 0, 74, 0
2, 25776, Note_on_c, 0, 79, 71
2, 25810, Note_on_c, 0, 79, 0
2, 25812, Note_on_c, 0, 83, 72
2, 25824, Note_on_c, 0, 83, 0
2, 25824, Note_on_c, 0, 83, 72
2, 25847, Note_on_c, 0, 83, 0
2, 25848, Note_on_c, 0, 81, 73
2, 25860, Note_on_c, 0, 81, 0
2, 25860, Note_on_c, 0, 79, 73
2, 25872, Note_on_c, 0, 79, 0
2, 25872, Note_on_c, 0, 78, 73
2, 25895, Note_on_c, 0, 78, 0
2, 25896, Note_on_c, 0, 79, 73
2, 25919, Note_on_c, 0, 79, 0
2, 25920, Note_on_c, 0, 78, 74
2, 25954, Note_on_c, 0, 78, 0
2, 25956, Note_on_c, 0, 86, 75
2, 25956, Note_on_c, 0, 78, 75
2, 25968, Note_on_c, 0, 86, 0
2, 25968, Note_on_c, 0, 78, 0
2, 25968, Note_on_c, 0, 86, 75
2, 25968, Note_on_c, 0, 78, 75
2, 26002, Note_on_c, 0, 86, 0
2, 26002, Note_on_c, 0, 78, 0
2, 26004, Note_on_c, 0, 86, 75
2, 26004, Note_on_c, 0, 78, 75
2, 26016, Note_on_c, 0, 86, 0
2, 26016, Note_on_c, 0, 78, 0
2, 26016, Note_on_c, 0, 86, 75
2, 26016, Note_on_c, 0, 78, 75
2, 26050, Note_on_c, 0, 86, 0
2, 26050, Note_on_c, 0, 78, 0
2, 26052, Note_on_c, 0, 78, 75
2, 26052, Note_on_c, 0, 74, 75
2, 26064, Note_on_c, 0, 78, 0
2, 26064, Note_on_c, 0, 74, 0
2, 26064, Note_on_c, 0, 78, 75
2, 26064, Note_on_c, 0, 74, 75
2, 26098, Note_on_c, 0, 78, 0
2, 26098, Note_on_c, 0, 74, 0
2, 26100, Note_on_c, 0, 78, 75
2, 26100, Note_on_c, 0, 74, 75
2, 26112, Note_on_c, 0, 78, 0
2, 26112, Note_on_c, 0, 74, 0
2, 26112, Note_on_c, 0, 78, 75
2, 26112, Note_on_c, 0, 74, 75
2, 26157, Note_on_c, 0, 78, 0
2, 26157, Note_on_c, 0, 74, 0
2, 26160, Note_on_c, 0, 76, 75
2, 26160, Note_on_c, 0, 73, 75
2, 26194, Note_on_c, 0, 76, 0
2, 26194, Note_on_c, 0, 73, 0
2, 26196, Note_on_c, 0, 85, 75
2, 26208, Note_on_c, 0, 85, 0
2, 26208, Note_on_c, 0, 86, 91
2, 26244, Note_on_c, 0, 86, 0
2, 26244, Note_on_c, 0, 78, 75
2, 26244, Note_on_c, 0, 74, 75
2, 26256, Note_on_c, 0, 78, 0
2, 26256, Note_on_c, 0, 74, 0
2, 26256, Note_on_c, 0, 78, 75
2, 26256, Note_on_c, 0, 74, 75
2, 26290, Note_on_c, 0, 78, 0
2, 26290, Note_on_c, 0, 74, 0
2, 26292, Note_on_c, 0, 78, 75
2, 26292, Note_on_c, 0, 74, 75
2, 26304, Note_on_c, 0, 78, 0
2, 26304, Note_on_c, 0, 74, 0
2, 26304, Note_on_c, 0, 78, 75
2, 26314, Note_on_c, 0, 78, 0
2, 26314, Note_on_c, 0, 79, 75
2, 26324, Note_on_c, 0, 79, 0
2, 26324, Note_on_c, 0, 78, 75
2, 26334, Note_on_c, 0, 78, 0
2, 26334, Note_on_c, 0, 76, 75
2, 26343, Note_on_c, 0, 76, 0
2, 26343, Note_on_c, 0, 78, 75
2, 26352, Note_on_c, 0, 78, 0
2, 26352, Note_on_c, 0, 76, 75
2, 26386, Note_on_c, 0, 76, 0
2, 26388, Note_on_c, 0, 85, 75
2, 26400, Note_on_c, 0, 85, 0
2, 26400, Note_on_c, 0, 86, 91
2, 26416, Note_on_c, 0, 86, 0
2, 26416, Note_on_c, 0, 85, 75
2, 26431, Note_on_c, 0, 85, 0
2, 26432, Note_on_c, 0, 83, 75
2, 26447, Note_on_c, 0, 83, 0
2, 26448, Note_on_c, 0, 81, 75
2, 26463, Note_on_c, 0, 81, 0
2, 26464, Note_on_c, 0, 79, 75
2, 26479, Note_on_c, 0, 79, 0
2, 26480, Note_on_c, 0, 78, 75
2, 26495, Note_on_c, 0, 78, 0
2, 26496, Note_on_c, 0, 78, 75
2, 26511, Note_on_c, 0, 78, 0
2, 26512, Note_on_c, 0, 79, 75
2, 26527, Note_on_c, 0, 79, 0
2, 26528, Note_on_c, 0, 81, 75
2, 26543, Note_on_c, 0, 81, 0
2, 26544, Note_on_c, 0, 76, 75
2, 26622, Note_on_c, 0, 76, 0
2, 26676, Note_on_c, 0, 81, 75
2, 26676, Note_on_c, 0, 78, 75
2, 26688, Note_on_c, 0, 81, 0
2, 26688, Note_on_c, 0, 78, 0
2, 26688, Note_on_c, 0, 81, 75
2, 26688, Note_on_c, 0, 78, 75
2, 26766, Note_on_c, 0, 81, 0
2, 26766, Note_on_c, 0, 78, 0
2, 26772, Note_on_c, 0, 78, 75
2, 26772, Note_on_c, 0, 74, 75
2, 26784, Note_on_c, 0, 78, 0
2, 26784, Note_on_c, 0, 74, 0
2, 26784, Note_on_c, 0, 78, 75
2, 26784, Note_on_c, 0, 74, 75
2, 26862, Note_on_c, 0, 78, 0
2, 26862, Note_on_c, 0, 74, 0
2, 26868, Note_on_c, 0, 74, 75
2, 26868, Note_on_c, 0, 66, 75
2, 26880, Note_on_c, 0, 74, 0
2, 26880, Note_on_c, 0, 66, 0
2, 26880, Note_on_c, 0, 74, 75
2, 26880, Note_on_c, 0, 66, 75
2, 26969, Note_on_c, 0, 74, 0
2, 26969, Note_on_c, 0, 66, 0
2, 27012, Note_on_c, 0, 69, 75
2, 27012, Note_on_c, 0, 66, 75
2, 27024, Note_on_c, 0, 69, 0
2, 27024, Note_on_c, 0, 66, 0
2, 27024, Note_on_c, 0, 69, 75
2, 27024, Note_on_c, 0, 66, 75
2, 27058, Note_on_c, 0, 69, 0
2, 27058, Note_on_c, 0, 66, 0
2, 27060, Note_on_c, 0, 69, 75
2, 27060, Note_on_c, 0, 66, 75
2, 27072, Note_on_c, 0, 69, 0
2, 27072, Note_on_c, 0, 66, 0
2, 27072, Note_on_c, 0, 70, 91
2, 27072, Note_on_c, 0, 66, 91
2, 27168, Note_on_c, 0, 70, 0
2, 27168, Note_on_c, 0, 66, 0
2, 27168, Note_on_c, 0, 71, 75
2, 27168, Note_on_c, 0, 67, 75
2, 27202, Note_on_c, 0, 71, 0
2, 27202, Note_on_c, 0, 67, 0
2, 27204, Note_on_c, 0, 59, 75
2, 27216, Note_on_c, 0, 59, 0
2, 27216, Note_on_c, 0, 67, 75
2, 27250, Note_on_c, 0, 67, 0
2, 27252, Note_on_c, 0, 64, 75
2, 27264, Note_on_c, 0, 64, 0
2, 27264, Note_on_c, 0, 62, 75
2, 27309, Note_on_c, 0, 62, 0
2, 27312, Note_on_c, 0, 61, 71
2, 27322, Note_on_c, 0, 61, 0
2, 27322, Note_on_c, 0, 62, 71
2, 27332, Note_on_c, 0, 62, 0
2, 27332, Note_on_c, 0, 61, 70
2, 27342, Note_on_c, 0, 61, 0
2, 27342, Note_on_c, 0, 59, 70
2, 27351, Note_on_c, 0, 59, 0
2, 27351, Note_on_c, 0, 61, 69
2, 27360, Note_on_c, 0, 61, 0
2, 27360, Note_on_c, 0, 62, 69
2, 27427, Note_on_c, 0, 62, 0
2, 27444, Note_on_c, 0, 81, 75
2, 27444, Note_on_c, 0, 78, 75
2, 27456, Note_on_c, 0, 81, 0
2, 27456, Note_on_c, 0, 78, 0
2, 27456, Note_on_c, 0, 81, 75
2, 27456, Note_on_c, 0, 78, 75
2, 27534, Note_on_c, 0, 81, 0
2, 27534, Note_on_c, 0, 78, 0
2, 27540, Note_on_c, 0, 78, 75
2, 27540, Note_on_c, 0, 74, 75
2, 27552, Note_on_c, 0, 78, 0
2, 27552, Note_on_c, 0, 74, 0
2, 27552, Note_on_c, 0, 78, 75
2, 27552, Note_on_c, 0, 74, 75
2, 27630, Note_on_c, 0, 78, 0
2, 27630, Note_on_c, 0, 74, 0
2, 27636, Note_on_c, 0, 74, 75
2, 27636, Note_on_c, 0, 66, 75
2, 27648, Note_on_c, 0, 74, 0
2, 27648, Note_on_c, 0, 66, 0
2, 27648, Note_on_c, 0, 74, 75
2, 27648, Note_on_c, 0, 66, 75
2, 27737, Note_on_c, 0, 74, 0
2, 27737, Note_on_c, 0, 66, 0
2, 27760, Note_on_c, 0, 62, 75
2, 27775, Note_on_c, 0, 62, 0
2, 27776, Note_on_c, 0, 64, 75
2, 27791, Note_on_c, 0, 64, 0
2, 27792, Note_on_c, 0, 66, 75
2, 27807, Note_on_c, 0, 66, 0
2, 27808, Note_on_c, 0, 67, 75
2, 27823, Note_on_c, 0, 67, 0
2, 27824, Note_on_c, 0, 69, 75
2, 27839, Note_on_c, 0, 69, 0
2, 27840, Note_on_c, 0, 70, 91
2, 27936, Note_on_c, 0, 70, 0
2, 27936, Note_on_c, 0, 71, 75
2, 27951, Note_on_c, 0, 71, 0
2, 27952, Note_on_c, 0, 79, 75
2, 27967, Note_on_c, 0, 79, 0
2, 27968, Note_on_c, 0, 78, 75
2, 27983, Note_on_c, 0, 78, 0
2, 27984, Note_on_c, 0, 79, 75
2, 27999, Note_on_c, 0, 79, 0
2, 28000, Note_on_c, 0, 74, 75
2, 28015, Note_on_c, 0, 74, 0
2, 28016, Note_on_c, 0, 71, 75
2, 28031, Note_on_c, 0, 71, 0
2, 28032, Note_on_c, 0, 71, 91
2, 28128, Note_on_c, 0, 71, 0
2, 28128, Note_on_c, 0, 69, 75
2, 28143, Note_on_c, 0, 69, 0
2, 28144, Note_on_c, 0, 74, 75
2, 28159, Note_on_c, 0, 74, 0
2, 28160, Note_on_c, 0, 73, 75
2, 28175, Note_on_c, 0, 73, 0
2, 28176, Note_on_c, 0, 74, 75
2, 28191, Note_on_c, 0, 74, 0
2, 28192, Note_on_c, 0, 69, 75
2, 28207, Note_on_c, 0, 69, 0
2, 28208, Note_on_c, 0, 66, 75
2, 28223, Note_on_c, 0, 66, 0
2, 28224, Note_on_c, 0, 67, 75
2, 28247, Note_on_c, 0, 67, 0
2, 28248, Note_on_c, 0, 76, 75
2, 28293, Note_on_c, 0, 76, 0
2, 28296, Note_on_c, 0, 67, 75
2, 28319, Note_on_c, 0, 67, 0
2, 28320, Note_on_c, 0, 66, 75
2, 28343, Note_on_c, 0, 66, 0
2, 28344, Note_on_c, 0, 74, 75
2, 28389, Note_on_c, 0, 74, 0
2, 28392, Note_on_c, 0, 66, 75
2, 28415, Note_on_c, 0, 66, 0
2, 28416, Note_on_c, 0, 69, 68
2, 28422, Note_on_c, 0, 69, 0
2, 28422, Note_on_c, 0, 67, 68
2, 28428, Note_on_c, 0, 67, 0
2, 28428, Note_on_c, 0, 66, 68
2, 28434, Note_on_c, 0, 66, 0
2, 28434, Note_on_c, 0, 67, 68
2, 28440, Note_on_c, 0, 67, 0
2, 28440, Note_on_c, 0, 76, 69
2, 28487, Note_on_c, 0, 76, 0
2, 28488, Note_on_c, 0, 67, 72
2, 28511, Note_on_c, 0, 67, 0
2, 28512, Note_on_c, 0, 66, 74
2, 28536, Note_on_c, 0, 66, 0
2, 28536, Note_on_c, 0, 74, 75
2, 28546, Note_on_c, 0, 74, 0
2, 28560, Note_on_c, 0, 74, 77
2, 28584, Note_on_c, 0, 74, 0
2, 28584, Note_on_c, 0, 66, 78
2, 28584, Note_on_c, 0, 62, 78
2, 28607, Note_on_c, 0, 66, 0
2, 28607, Note_on_c, 0, 62, 0
2, 28608, Note_on_c, 0, 67, 75
2, 28616, Note_on_c, 0, 67, 0
2, 28616, Note_on_c, 0, 66, 74
2, 28624, Note_on_c, 0, 66, 0
2, 28624, Note_on_c, 0, 67, 73
2, 28632, Note_on_c, 0, 67, 0
2, 28632, Note_on_c, 0, 66, 73
2, 28640, Note_on_c, 0, 66, 0
2, 28640, Note_on_c, 0, 64, 72
2, 28648, Note_on_c, 0, 64, 0
2, 28648, Note_on_c, 0, 66, 72
2, 28656, Note_on_c, 0, 66, 0
2, 28656, Note_on_c, 0, 64, 71
2, 28723, Note_on_c, 0, 64, 0
2, 28824, Note_on_c, 0, 71, 80
2, 28832, Note_on_c, 0, 71, 0
2, 28832, Note_on_c, 0, 69, 80
2, 28840, Note_on_c, 0, 69, 0
2, 28840, Note_on_c, 0, 68, 80
2, 28848, Note_on_c, 0, 68, 0
2, 28848, Note_on_c, 0, 69, 80
2, 28871, Note_on_c, 0, 69, 0
2, 28872, Note_on_c, 0, 69, 80
2, 28895, Note_on_c, 0, 69, 0
2, 28920, Note_on_c, 0, 71, 80
2, 28928, Note_on_c, 0, 71, 0
2, 28928, Note_on_c, 0, 69, 80
2, 28936, Note_on_c, 0, 69, 0
2, 28936, Note_on_c, 0, 68, 80
2, 28944, Note_on_c, 0, 68, 0
2, 28944, Note_on_c, 0, 69, 80
2, 28967, Note_on_c, 0, 69, 0
2, 28968, Note_on_c, 0, 69, 80
2, 28991, Note_on_c, 0, 69, 0
2, 28992, Note_on_c, 0, 69, 80
2, 29007, Note_on_c, 0, 69, 0
2, 29008, Note_on_c, 0, 81, 80
2, 29023, Note_on_c, 0, 81, 0
2, 29024, Note_on_c, 0, 79, 80
2, 29039, Note_on_c, 0, 79, 0
2, 29040, Note_on_c, 0, 78, 80
2, 29055, Note_on_c, 0, 78, 0
2, 29056, Note_on_c, 0, 76, 80
2, 29071, Note_on_c, 0, 76, 0
2, 29072, Note_on_c, 0, 74, 80
2, 29087, Note_on_c, 0, 74, 0
2, 29088, Note_on_c, 0, 73, 80
2, 29103, Note_on_c, 0, 73, 0
2, 29104, Note_on_c, 0, 71, 80
2, 29119, Note_on_c, 0, 71, 0
2, 29120, Note_on_c, 0, 69, 80
2, 29135, Note_on_c, 0, 69, 0
2, 29136, Note_on_c, 0, 67, 80
2, 29151, Note_on_c, 0, 67, 0
2, 29152, Note_on_c, 0, 66, 80
2, 29167, Note_on_c, 0, 66, 0
2, 29168, Note_on_c, 0, 64, 80
2, 29183, Note_on_c, 0, 64, 0
2, 29208, Note_on_c, 0, 71, 80
2, 29216, Note_on_c, 0, 71, 0
2, 29216, Note_on_c, 0, 69, 80
2, 29224, Note_on_c, 0, 69, 0
2, 29224, Note_on_c, 0, 68, 80
2, 29232, Note_on_c, 0, 68, 0
2, 29232, Note_on_c, 0, 69, 80
2, 29255, Note_on_c, 0, 69, 0
2, 29256, Note_on_c, 0, 69, 80
2, 29279, Note_on_c, 0, 69, 0
2, 29304, Note_on_c, 0, 71, 80
2, 29312, Note_on_c, 0, 71, 0
2, 29312, Note_on_c, 0, 69, 80
2, 29320, Note_on_c, 0, 69, 0
2, 29320, Note_on_c, 0, 68, 80
2, 29328, Note_on_c, 0, 68, 0
2, 29328, Note_on_c, 0, 69, 80
2, 29351, Note_on_c, 0, 69, 0
2, 29352, Note_on_c, 0, 69, 80
2, 29375, Note_on_c, 0, 69, 0
2, 29376, Note_on_c, 0, 69, 80
2, 29391, Note_on_c, 0, 69, 0
2, 29392, Note_on_c, 0, 81, 80
2, 29407, Note_on_c, 0, 81, 0
2, 29408, Note_on_c, 0, 79, 80
2, 29423, Note_on_c, 0, 79, 0
2, 29424, Note_on_c, 0, 78, 80
2, 29439, Note_on_c, 0, 78, 0
2, 29440, Note_on_c, 0, 76, 80
2, 29455, Note_on_c, 0, 76, 0
2, 29456, Note_on_c, 0, 74, 80
2, 29471, Note_on_c, 0, 74, 0
2, 29472, Note_on_c, 0, 73, 80
2, 29487, Note_on_c, 0, 73, 0
2, 29488, Note_on_c, 0, 71, 80
2, 29503, Note_on_c, 0, 71, 0
2, 29504, Note_on_c, 0, 69, 80
2, 29519, Note_on_c, 0, 69, 0
2, 29520, Note_on_c, 0, 67, 80
2, 29535, Note_on_c, 0, 67, 0
2, 29536, Note_on_c, 0, 66, 80
2, 29551, Note_on_c, 0, 66, 0
2, 29552, Note_on_c, 0, 64, 80
2, 29567, Note_on_c, 0, 64, 0
2, 29568, Note_on_c, 0, 62, 80
2, 29583, Note_on_c, 0, 62, 0
2, 29584, Note_on_c, 0, 69, 78
2, 29599, Note_on_c, 0, 69, 0
2, 29600, Note_on_c, 0, 67, 77
2, 29615, Note_on_c, 0, 67, 0
2, 29616, Note_on_c, 0, 66, 76
2, 29631, Note_on_c, 0, 66, 0
2, 29632, Note_on_c, 0, 64, 75
2, 29647, Note_on_c, 0, 64, 0
2, 29648, Note_on_c, 0, 62, 74
2, 29663, Note_on_c, 0, 62, 0
2, 29664, Note_on_c, 0, 61, 73
2, 29679, Note_on_c, 0, 61, 0
2, 29680, Note_on_c, 0, 59, 72
2, 29695, Note_on_c, 0, 59, 0
2, 29696, Note_on_c, 0, 57, 71
2, 29711, Note_on_c, 0, 57, 0
2, 29712, Note_on_c, 0, 55, 70
2, 29727, Note_on_c, 0, 55, 0
2, 29728, Note_on_c, 0, 54, 69
2, 29743, Note_on_c, 0, 54, 0
2, 29744, Note_on_c, 0, 52, 68
2, 29759, Note_on_c, 0, 52, 0
2, 29776, Note_on_c, 0, 57, 63
2, 29791, Note_on_c, 0, 57, 0
2, 29792, Note_on_c, 0, 55, 63
2, 29807, Note_on_c, 0, 55, 0
2, 29808, Note_on_c, 0, 54, 64
2, 29823, Note_on_c, 0, 54, 0
2, 29824, Note_on_c, 0, 52, 64
2, 29839, Note_on_c, 0, 52, 0
2, 29840, Note_on_c, 0, 50, 64
2, 29855, Note_on_c, 0, 50, 0
2, 29872, Note_on_c, 0, 59, 65
2, 29887, Note_on_c, 0, 59, 0
2, 29888, Note_on_c, 0, 57, 65
2, 29903, Note_on_c, 0, 57, 0
2, 29904, Note_on_c, 0, 55, 66
2, 29919, Note_on_c, 0, 55, 0
2, 29920, Note_on_c, 0, 54, 66
2, 29935, Note_on_c, 0, 54, 0
2, 29936, Note_on_c, 0, 52, 66
2, 29951, Note_on_c, 0, 52, 0
2, 29968, Note_on_c, 0, 61, 67
2, 29983, Note_on_c, 0, 61, 0
2, 29984, Note_on_c, 0, 59, 67
2, 29999, Note_on_c, 0, 59, 0
2, 30000, Note_on_c, 0, 57, 68
2, 30015, Note_on_c, 0, 57, 0
2, 30016, Note_on_c, 0, 55, 68
2, 30031, Note_on_c, 0, 55, 0
2, 30032, Note_on_c, 0, 54, 69
2, 30047, Note_on_c, 0, 54, 0
2, 30064, Note_on_c, 0, 62, 69
2, 30079, Note_on_c, 0, 62, 0
2, 30080, Note_on_c, 0, 61, 70
2, 30095, Note_on_c, 0, 61, 0
2, 30096, Note_on_c, 0, 59, 70
2, 30111, Note_on_c, 0, 59, 0
2, 30112, Note_on_c, 0, 57, 70
2, 30127, Note_on_c, 0, 57, 0
2, 30128, Note_on_c, 0, 55, 71
2, 30143, Note_on_c, 0, 55, 0
2, 30160, Note_on_c, 0, 64, 71
2, 30175, Note_on_c, 0, 64, 0
2, 30176, Note_on_c, 0, 62, 72
2, 30191, Note_on_c, 0, 62, 0
2, 30192, Note_on_c, 0, 61, 72
2, 30207, Note_on_c, 0, 61, 0
2, 30208, Note_on_c, 0, 59, 72
2, 30223, Note_on_c, 0, 59, 0
2, 30224, Note_on_c, 0, 57, 73
2, 30239, Note_on_c, 0, 57, 0
2, 30256, Note_on_c, 0, 62, 73
2, 30271, Note_on_c, 0, 62, 0
2, 30272, Note_on_c, 0, 64, 74
2, 30287, Note_on_c, 0, 64, 0
2, 30288, Note_on_c, 0, 66, 74
2, 30303, Note_on_c, 0, 66, 0
2, 30304, Note_on_c, 0, 67, 75
2, 30319, Note_on_c, 0, 67, 0
2, 30320, Note_on_c, 0, 69, 75
2, 30335, Note_on_c, 0, 69, 0
2, 30352, Note_on_c, 0, 64, 80
2, 30367, Note_on_c, 0, 64, 0
2, 30368, Note_on_c, 0, 62, 80
2, 30383, Note_on_c, 0, 62, 0
2, 30384, Note_on_c, 0, 61, 80
2, 30399, Note_on_c, 0, 61, 0
2, 30400, Note_on_c, 0, 59, 80
2, 30415, Note_on_c, 0, 59, 0
2, 30416, Note_on_c, 0, 57, 80
2, 30431, Note_on_c, 0, 57, 0
2, 30448, Note_on_c, 0, 62, 80
2, 30463, Note_on_c, 0, 62, 0
2, 30464, Note_on_c, 0, 64, 78
2, 30479, Note_on_c, 0, 64, 0
2, 30480, Note_on_c, 0, 66, 76
2, 30495, Note_on_c, 0, 66, 0
2, 30496, Note_on_c, 0, 67, 74
2, 30511, Note_on_c, 0, 67, 0
2, 30512, Note_on_c, 0, 69, 73
2, 30527, Note_on_c, 0, 69, 0
2, 30528, Note_on_c, 0, 70, 84
2, 30624, Note_on_c, 0, 70, 0
2, 30624, Note_on_c, 0, 71, 68
2, 30639, Note_on_c, 0, 71, 0
2, 30640, Note_on_c, 0, 73, 68
2, 30655, Note_on_c, 0, 73, 0
2, 30656, Note_on_c, 0, 74, 68
2, 30671, Note_on_c, 0, 74, 0
2, 30672, Note_on_c, 0, 76, 68
2, 30687, Note_on_c, 0, 76, 0
2, 30688, Note_on_c, 0, 78, 68
2, 30703, Note_on_c, 0, 78, 0
2, 30704, Note_on_c, 0, 79, 68
2, 30719, Note_on_c, 0, 79, 0
2, 30720, Note_on_c, 0, 79, 68
2, 30787, Note_on_c, 0, 79, 0
2, 30792, Note_on_c, 0, 81, 69
2, 30815, Note_on_c, 0, 81, 0
2, 30816, Note_on_c, 0, 79, 69
2, 30831, Note_on_c, 0, 79, 0
2, 30832, Note_on_c, 0, 78, 69
2, 30847, Note_on_c, 0, 78, 0
2, 30848, Note_on_c, 0, 76, 69
2, 30863, Note_on_c, 0, 76, 0
2, 30864, Note_on_c, 0, 74, 69
2, 30879, Note_on_c, 0, 74, 0
2, 30880, Note_on_c, 0, 73, 70
2, 30895, Note_on_c, 0, 73, 0
2, 30896, Note_on_c, 0, 71, 70
2, 30911, Note_on_c, 0, 71, 0
2, 30912, Note_on_c, 0, 71, 86
2, 30984, Note_on_c, 0, 71, 0
2, 30984, Note_on_c, 0, 68, 71
2, 31007, Note_on_c, 0, 68, 0
2, 31008, Note_on_c, 0, 69, 71
2, 31023, Note_on_c, 0, 69, 0
2, 31024, Note_on_c, 0, 71, 71
2, 31039, Note_on_c, 0, 71, 0
2, 31040, Note_on_c, 0, 73, 71
2, 31055, Note_on_c, 0, 73, 0
2, 31056, Note_on_c, 0, 74, 71
2, 31071, Note_on_c, 0, 74, 0
2, 31072, Note_on_c, 0, 76, 71
2, 31087, Note_on_c, 0, 76, 0
2, 31088, Note_on_c, 0, 78, 71
2, 31103, Note_on_c, 0, 78, 0
2, 31104, Note_on_c, 0, 78, 71
2, 31171, Note_on_c, 0, 78, 0
2, 31176, Note_on_c, 0, 79, 72
2, 31199, Note_on_c, 0, 79, 0
2, 31200, Note_on_c, 0, 78, 72
2, 31215, Note_on_c, 0, 78, 0
2, 31216, Note_on_c, 0, 76, 72
2, 31231, Note_on_c, 0, 76, 0
2, 31232, Note_on_c, 0, 74, 73
2, 31247, Note_on_c, 0, 74, 0
2, 31248, Note_on_c, 0, 73, 73
2, 31263, Note_on_c, 0, 73, 0
2, 31264, Note_on_c, 0, 71, 73
2, 31279, Note_on_c, 0, 71, 0
2, 31280, Note_on_c, 0, 69, 73
2, 31295, Note_on_c, 0, 69, 0
2, 31296, Note_on_c, 0, 69, 89
2, 31368, Note_on_c, 0, 69, 0
2, 31368, Note_on_c, 0, 66, 74
2, 31391, Note_on_c, 0, 66, 0
2, 31392, Note_on_c, 0, 67, 74
2, 31407, Note_on_c, 0, 67, 0
2, 31408, Note_on_c, 0, 69, 74
2, 31423, Note_on_c, 0, 69, 0
2, 31424, Note_on_c, 0, 71, 74
2, 31439, Note_on_c, 0, 71, 0
2, 31440, Note_on_c, 0, 73, 74
2, 31455, Note_on_c, 0, 73, 0
2, 31456, Note_on_c, 0, 74, 74
2, 31471, Note_on_c, 0, 74, 0
2, 31472, Note_on_c, 0, 76, 75
2, 31487, Note_on_c, 0, 76, 0
2, 31488, Note_on_c, 0, 76, 75
2, 31555, Note_on_c, 0, 76, 0
2, 31560, Note_on_c, 0, 78, 75
2, 31583, Note_on_c, 0, 78, 0
2, 31584, Note_on_c, 0, 76, 76
2, 31599, Note_on_c, 0, 76, 0
2, 31600, Note_on_c, 0, 74, 76
2, 31615, Note_on_c, 0, 74, 0
2, 31616, Note_on_c, 0, 73, 76
2, 31631, Note_on_c, 0, 73, 0
2, 31632, Note_on_c, 0, 71, 76
2, 31647, Note_on_c, 0, 71, 0
2, 31648, Note_on_c, 0, 69, 76
2, 31663, Note_on_c, 0, 69, 0
2, 31664, Note_on_c, 0, 67, 76
2, 31679, Note_on_c, 0, 67, 0
2, 31680, Note_on_c, 0, 67, 92
2, 31752, Note_on_c, 0, 67, 0
2, 31752, Note_on_c, 0, 64, 77
2, 31775, Note_on_c, 0, 64, 0
2, 31776, Note_on_c, 0, 66, 77
2, 31791, Note_on_c, 0, 66, 0
2, 31792, Note_on_c, 0, 67, 77
2, 31807, Note_on_c, 0, 67, 0
2, 31808, Note_on_c, 0, 69, 77
2, 31823, Note_on_c, 0, 69, 0
2, 31824, Note_on_c, 0, 71, 78
2, 31839, Note_on_c, 0, 71, 0
2, 31840, Note_on_c, 0, 73, 78
2, 31855, Note_on_c, 0, 73, 0
2, 31856, Note_on_c, 0, 74, 78
2, 31871, Note_on_c, 0, 74, 0
2, 31872, Note_on_c, 0, 74, 80
2, 31935, Note_on_c, 0, 74, 0
2, 31936, Note_on_c, 0, 78, 81
2, 31951, Note_on_c, 0, 78, 0
2, 31952, Note_on_c, 0, 76, 82
2, 31967, Note_on_c, 0, 76, 0
2, 31968, Note_on_c, 0, 74, 82
2, 31983, Note_on_c, 0, 74, 0
2, 31984, Note_on_c, 0, 73, 83
2, 31999, Note_on_c, 0, 73, 0
2, 32000, Note_on_c, 0, 71, 83
2, 32015, Note_on_c, 0, 71, 0
2, 32016, Note_on_c, 0, 69, 83
2, 32031, Note_on_c, 0, 69, 0
2, 32032, Note_on_c, 0, 67, 84
2, 32047, Note_on_c, 0, 67, 0
2, 32048, Note_on_c, 0, 66, 84
2, 32063, Note_on_c, 0, 66, 0
2, 32064, Note_on_c, 0, 67, 86
2, 32072, Note_on_c, 0, 67, 0
2, 32072, Note_on_c, 0, 66, 85
2, 32080, Note_on_c, 0, 66, 0
2, 32080, Note_on_c, 0, 67, 84
2, 32088, Note_on_c, 0, 67, 0
2, 32088, Note_on_c, 0, 66, 84
2, 32096, Note_on_c, 0, 66, 0
2, 32096, Note_on_c, 0, 67, 83
2, 32104, Note_on_c, 0, 67, 0
2, 32104, Note_on_c, 0, 66, 83
2, 32112, Note_on_c, 0, 66, 0
2, 32112, Note_on_c, 0, 64, 82
2, 32127, Note_on_c, 0, 64, 0
2, 32128, Note_on_c, 0, 78, 80
2, 32143, Note_on_c, 0, 78, 0
2, 32144, Note_on_c, 0, 76, 80
2, 32159, Note_on_c, 0, 76, 0
2, 32160, Note_on_c, 0, 74, 81
2, 32175, Note_on_c, 0, 74, 0
2, 32176, Note_on_c, 0, 73, 81
2, 32191, Note_on_c, 0, 73, 0
2, 32192, Note_on_c, 0, 71, 82
2, 32207, Note_on_c, 0, 71, 0
2, 32208, Note_on_c, 0, 69, 82
2, 32223, Note_on_c, 0, 69, 0
2, 32224, Note_on_c, 0, 67, 83
2, 32239, Note_on_c, 0, 67, 0
2, 32240, Note_on_c, 0, 66, 83
2, 32255, Note_on_c, 0, 66, 0
2, 32256, Note_on_c, 0, 67, 86
2, 32264, Note_on_c, 0, 67, 0
2, 32264, Note_on_c, 0, 66, 85
2, 32272, Note_on_c, 0, 66, 0
2, 32272, Note_on_c, 0, 67, 84
2, 32280, Note_on_c, 0, 67, 0
2, 32280, Note_on_c, 0, 66, 84
2, 32288, Note_on_c, 0, 66, 0
2, 32288, Note_on_c, 0, 67, 83
2, 32296, Note_on_c, 0, 67, 0
2, 32296, Note_on_c, 0, 66, 83
2, 32304, Note_on_c, 0, 66, 0
2, 32304, Note_on_c, 0, 64, 82
2, 32319, Note_on_c, 0, 64, 0
2, 32320, Note_on_c, 0, 78, 80
2, 32335, Note_on_c, 0, 78, 0
2, 32336, Note_on_c, 0, 76, 80
2, 32351, Note_on_c, 0, 76, 0
2, 32352, Note_on_c, 0, 74, 81
2, 32367, Note_on_c, 0, 74, 0
2, 32368, Note_on_c, 0, 73, 81
2, 32383, Note_on_c, 0, 73, 0
2, 32384, Note_on_c, 0, 71, 82
2, 32399, Note_on_c, 0, 71, 0
2, 32400, Note_on_c, 0, 69, 82
2, 32415, Note_on_c, 0, 69, 0
2, 32416, Note_on_c, 0, 67, 83
2, 32431, Note_on_c, 0, 67, 0
2, 32432, Note_on_c, 0, 66, 83
2, 32447, Note_on_c, 0, 66, 0
2, 32448, Note_on_c, 0, 66, 86
2, 32457, Note_on_c, 0, 66, 0
2, 32457, Note_on_c, 0, 67, 85
2, 32466, Note_on_c, 0, 67, 0
2, 32466, Note_on_c, 0, 66, 84
2, 32475, Note_on_c, 0, 66, 0
2, 32475, Note_on_c, 0, 67, 84
2, 32484, Note_on_c, 0, 67, 0
2, 32484, Note_on_c, 0, 66, 83
2, 32493, Note_on_c, 0, 66, 0
2, 32493, Note_on_c, 0, 67, 83
2, 32502, Note_on_c, 0, 67, 0
2, 32502, Note_on_c, 0, 66, 82
2, 32511, Note_on_c, 0, 66, 0
2, 32511, Note_on_c, 0, 64, 82
2, 32528, Note_on_c, 0, 64, 0
2, 32528, Note_on_c, 0, 66, 80
2, 32544, Note_on_c, 0, 66, 0
2, 32544, Note_on_c, 0, 64, 79
2, 32633, Note_on_c, 0, 64, 0
2, 32772, Note_on_c, 0, 57, 64
2, 32784, Note_on_c, 0, 57, 0
2, 32784, Note_on_c, 0, 62, 64
2, 32818, Note_on_c, 0, 62, 0
2, 32820, Note_on_c, 0, 66, 65
2, 32832, Note_on_c, 0, 66, 0
2, 32832, Note_on_c, 0, 66, 66
2, 32866, Note_on_c, 0, 66, 0
2, 32868, Note_on_c, 0, 59, 67
2, 32880, Note_on_c, 0, 59, 0
2, 32880, Note_on_c, 0, 64, 68
2, 32914, Note_on_c, 0, 64, 0
2, 32916, Note_on_c, 0, 67, 69
2, 32928, Note_on_c, 0, 67, 0
2, 32928, Note_on_c, 0, 67, 69
2, 32962, Note_on_c, 0, 67, 0
2, 32964, Note_on_c, 0, 61, 71
2, 32976, Note_on_c, 0, 61, 0
2, 32976, Note_on_c, 0, 66, 71
2, 33010, Note_on_c, 0, 66, 0
2, 33012, Note_on_c, 0, 69, 72
2, 33024, Note_on_c, 0, 69, 0
2, 33024, Note_on_c, 0, 69, 73
2, 33058, Note_on_c, 0, 69, 0
2, 33060, Note_on_c, 0, 62, 74
2, 33072, Note_on_c, 0, 62, 0
2, 33072, Note_on_c, 0, 67, 74
2, 33106, Note_on_c, 0, 67, 0
2, 33108, Note_on_c, 0, 71, 76
2, 33120, Note_on_c, 0, 71, 0
2, 33120, Note_on_c, 0, 71, 76
2, 33143, Note_on_c, 0, 71, 0
2, 33144, Note_on_c, 0, 69, 77
2, 33156, Note_on_c, 0, 69, 0
2, 33156, Note_on_c, 0, 67, 77
2, 33168, Note_on_c, 0, 67, 0
2, 33168, Note_on_c, 0, 66, 78
2, 33191, Note_on_c, 0, 66, 0
2, 33192, Note_on_c, 0, 67, 79
2, 33215, Note_on_c, 0, 67, 0
2, 33216, Note_on_c, 0, 66, 80
2, 33250, Note_on_c, 0, 66, 0
2, 33252, Note_on_c, 0, 74, 80
2, 33252, Note_on_c, 0, 66, 80
2, 33264, Note_on_c, 0, 74, 0
2, 33264, Note_on_c, 0, 66, 0
2, 33264, Note_on_c, 0, 74, 80
2, 33264, Note_on_c, 0, 66, 80
2, 33298, Note_on_c, 0, 74, 0
2, 33298, Note_on_c, 0, 66, 0
2, 33300, Note_on_c, 0, 74, 80
2, 33300, Note_on_c, 0, 66, 80
2, 33312, Note_on_c, 0, 74, 0
2, 33312, Note_on_c, 0, 66, 0
2, 33312, Note_on_c, 0, 74, 80
2, 33312, Note_on_c, 0, 66, 80
2, 33346, Note_on_c, 0, 74, 0
2, 33346, Note_on_c, 0, 66, 0
2, 33348, Note_on_c, 0, 78, 80
2, 33348, Note_on_c, 0, 74, 80
2, 33360, Note_on_c, 0, 78, 0
2, 33360, Note_on_c, 0, 74, 0
2, 33360, Note_on_c, 0, 78, 80
2, 33360, Note_on_c, 0, 74, 80
2, 33394, Note_on_c, 0, 78, 0
2, 33394, Note_on_c, 0, 74, 0
2, 33396, Note_on_c, 0, 78, 80
2, 33396, Note_on_c, 0, 74, 80
2, 33408, Note_on_c, 0, 78, 0
2, 33408, Note_on_c, 0, 74, 0
2, 33408, Note_on_c, 0, 78, 80
2, 33408, Note_on_c, 0, 74, 80
2, 33442, Note_on_c, 0, 78, 0
2, 33442, Note_on_c, 0, 74, 0
2, 33444, Note_on_c, 0, 86, 80
2, 33444, Note_on_c, 0, 78, 80
2, 33456, Note_on_c, 0, 86, 0
2, 33456, Note_on_c, 0, 78, 0
2, 33456, Note_on_c, 0, 86, 80
2, 33456, Note_on_c, 0, 78, 80
2, 33490, Note_on_c, 0, 86, 0
2, 33490, Note_on_c, 0, 78, 0
2, 33492, Note_on_c, 0, 86, 80
2, 33492, Note_on_c, 0, 78, 80
2, 33504, Note_on_c, 0, 86, 0
2, 33504, Note_on_c, 0, 78, 0
2, 33504, Note_on_c, 0, 86, 80
2, 33504, Note_on_c, 0, 78, 80
2, 33549, Note_on_c, 0, 86, 0
2, 33549, Note_on_c, 0, 78, 0
2, 33636, Note_on_c, 0, 83, 80
2, 33636, Note_on_c, 0, 79, 80
2, 33648, Note_on_c, 0, 83, 0
2, 33648, Note_on_c, 0, 79, 0
2, 33648, Note_on_c, 0, 81, 80
2, 33648, Note_on_c, 0, 78, 80
2, 33682, Note_on_c, 0, 81, 0
2, 33682, Note_on_c, 0, 78, 0
2, 33684, Note_on_c, 0, 79, 80
2, 33684, Note_on_c, 0, 76, 80
2, 33696, Note_on_c, 0, 79, 0
2, 33696, Note_on_c, 0, 76, 0
2, 33696, Note_on_c, 0, 78, 80
2, 33696, Note_on_c, 0, 74, 80
2, 33741, Note_on_c, 0, 78, 0
2, 33741, Note_on_c, 0, 74, 0
2, 33744, Note_on_c, 0, 76, 80
2, 33744, Note_on_c, 0, 73, 80
2, 33789, Note_on_c, 0, 76, 0
2, 33789, Note_on_c, 0, 73, 0
2, 33808, Note_on_c, 0, 74, 75
2, 33823, Note_on_c, 0, 74, 0
2, 33824, Note_on_c, 0, 76, 75
2, 33839, Note_on_c, 0, 76, 0
2, 33840, Note_on_c, 0, 78, 75
2, 33855, Note_on_c, 0, 78, 0
2, 33856, Note_on_c, 0, 79, 75
2, 33871, Note_on_c, 0, 79, 0
2, 33872, Note_on_c, 0, 81, 75
2, 33887, Note_on_c, 0, 81, 0
2, 33888, Note_on_c, 0, 79, 75
2, 33888, Note_on_c, 0, 76, 75
2, 33977, Note_on_c, 0, 79, 0
2, 33977, Note_on_c, 0, 76, 0
2, 34000, Note_on_c, 0, 74, 75
2, 34015, Note_on_c, 0, 74, 0
2, 34016, Note_on_c, 0, 76, 75
2, 34031, Note_on_c, 0, 76, 0
2, 34032, Note_on_c, 0, 78, 75
2, 34047, Note_on_c, 0, 78, 0
2, 34048, Note_on_c, 0, 79, 75
2, 34063, Note_on_c, 0, 79, 0
2, 34064, Note_on_c, 0, 81, 75
2, 34079, Note_on_c, 0, 81, 0
2, 34080, Note_on_c, 0, 79, 75
2, 34080, Note_on_c, 0, 76, 75
2, 34169, Note_on_c, 0, 79, 0
2, 34169, Note_on_c, 0, 76, 0
2, 34192, Note_on_c, 0, 74, 75
2, 34207, Note_on_c, 0, 74, 0
2, 34208, Note_on_c, 0, 76, 75
2, 34223, Note_on_c, 0, 76, 0
2, 34224, Note_on_c, 0, 78, 75
2, 34239, Note_on_c, 0, 78, 0
2, 34240, Note_on_c, 0, 79, 75
2, 34255, Note_on_c, 0, 79, 0
2, 34256, Note_on_c, 0, 81, 75
2, 34271, Note_on_c, 0, 81, 0
2, 34288, Note_on_c, 0, 76, 75
2, 34303, Note_on_c, 0, 76, 0
2, 34304, Note_on_c, 0, 78, 75
2, 34319, Note_on_c, 0, 78, 0
2, 34320, Note_on_c, 0, 79, 75
2, 34335, Note_on_c, 0, 79, 0
2, 34336, Note_on_c, 0, 81, 75
2, 34351, Note_on_c, 0, 81, 0
2, 34352, Note_on_c, 0, 83, 75
2, 34367, Note_on_c, 0, 83, 0
2, 34368, Note_on_c, 0, 69, 75
2, 34457, Note_on_c, 0, 69, 0
2, 34464, Note_on_c, 0, 76, 75
2, 34473, Note_on_c, 0, 76, 0
2, 34473, Note_on_c, 0, 78, 75
2, 34482, Note_on_c, 0, 78, 0
2, 34482, Note_on_c, 0, 76, 75
2, 34491, Note_on_c, 0, 76, 0
2, 34491, Note_on_c, 0, 78, 75
2, 34500, Note_on_c, 0, 78, 0
2, 34500, Note_on_c, 0, 76, 75
2, 34509, Note_on_c, 0, 76, 0
2, 34509, Note_on_c, 0, 78, 75
2, 34518, Note_on_c, 0, 78, 0
2, 34518, Note_on_c, 0, 76, 75
2, 34527, Note_on_c, 0, 76, 0
2, 34527, Note_on_c, 0, 78, 75
2, 34536, Note_on_c, 0, 78, 0
2, 34536, Note_on_c, 0, 76, 75
2, 34544, Note_on_c, 0, 76, 0
2, 34544, Note_on_c, 0, 74, 75
2, 34552, Note_on_c, 0, 74, 0
2, 34552, Note_on_c, 0, 76, 75
2, 34560, Note_on_c, 0, 76, 0
2, 34576, Note_on_c, 0, 74, 75
2, 34591, Note_on_c, 0, 74, 0
2, 34592, Note_on_c, 0, 76, 75
2, 34607, Note_on_c, 0, 76, 0
2, 34608, Note_on_c, 0, 78, 75
2, 34623, Note_on_c, 0, 78, 0
2, 34624, Note_on_c, 0, 79, 75
2, 34639, Note_on_c, 0, 79, 0
2, 34640, Note_on_c, 0, 81, 75
2, 34655, Note_on_c, 0, 81, 0
2, 34672, Note_on_c, 0, 76, 75
2, 34687, Note_on_c, 0, 76, 0
2, 34688, Note_on_c, 0, 78, 75
2, 34703, Note_on_c, 0, 78, 0
2, 34704, Note_on_c, 0, 79, 75
2, 34719, Note_on_c, 0, 79, 0
2, 34720, Note_on_c, 0, 81, 75
2, 34735, Note_on_c, 0, 81, 0
2, 34736, Note_on_c, 0, 83, 75
2, 34751, Note_on_c, 0, 83, 0
2, 34752, Note_on_c, 0, 69, 75
2, 34841, Note_on_c, 0, 69, 0
2, 34848, Note_on_c, 0, 76, 75
2, 34857, Note_on_c, 0, 76, 0
2, 34857, Note_on_c, 0, 78, 75
2, 34866, Note_on_c, 0, 78, 0
2, 34866, Note_on_c, 0, 76, 75
2, 34875, Note_on_c, 0, 76, 0
2, 34875, Note_on_c, 0, 78, 75
2, 34884, Note_on_c, 0, 78, 0
2, 34884, Note_on_c, 0, 76, 75
2, 34893, Note_on_c, 0, 76, 0
2, 34893, Note_on_c, 0, 78, 75
2, 34902, Note_on_c, 0, 78, 0
2, 34902, Note_on_c, 0, 76, 75
2, 34911, Note_on_c, 0, 76, 0
2, 34911, Note_on_c, 0, 78, 75
2, 34920, Note_on_c, 0, 78, 0
2, 34920, Note_on_c, 0, 76, 75
2, 34928, Note_on_c, 0, 76, 0
2, 34928, Note_on_c, 0, 74, 75
2, 34936, Note_on_c, 0, 74, 0
2, 34936, Note_on_c, 0, 76, 75
2, 34944, Note_on_c, 0, 76, 0
2, 34944, Note_on_c, 0, 74, 75
2, 34964, Note_on_c, 0, 74, 0
2, 34992, Note_on_c, 0, 69, 63
2, 35037, Note_on_c, 0, 69, 0
2, 35040, Note_on_c, 0, 70, 63
2, 35055, Note_on_c, 0, 70, 0
2, 35056, Note_on_c, 0, 69, 63
2, 35071, Note_on_c, 0, 69, 0
2, 35072, Note_on_c, 0, 70, 63
2, 35087, Note_on_c, 0, 70, 0
2, 35088, Note_on_c, 0, 74, 63
2, 35103, Note_on_c, 0, 74, 0
2, 35104, Note_on_c, 0, 72, 63
2, 35119, Note_on_c, 0, 72, 0
2, 35120, Note_on_c, 0, 70, 63
2, 35135, Note_on_c, 0, 70, 0
2, 35136, Note_on_c, 0, 68, 63
2, 35151, Note_on_c, 0, 68, 0
2, 35152, Note_on_c, 0, 69, 63
2, 35167, Note_on_c, 0, 69, 0
2, 35168, Note_on_c, 0, 71, 63
2, 35183, Note_on_c, 0, 71, 0
2, 35184, Note_on_c, 0, 69, 63
2, 35199, Note_on_c, 0, 69, 0
2, 35200, Note_on_c, 0, 71, 64
2, 35215, Note_on_c, 0, 71, 0
2, 35216, Note_on_c, 0, 72, 64
2, 35231, Note_on_c, 0, 72, 0
2, 35232, Note_on_c, 0, 66, 64
2, 35247, Note_on_c, 0, 66, 0
2, 35248, Note_on_c, 0, 67, 64
2, 35263, Note_on_c, 0, 67, 0
2, 35264, Note_on_c, 0, 69, 65
2, 35279, Note_on_c, 0, 69, 0
2, 35280, Note_on_c, 0, 67, 65
2, 35295, Note_on_c, 0, 67, 0
2, 35296, Note_on_c, 0, 69, 65
2, 35311, Note_on_c, 0, 69, 0
2, 35312, Note_on_c, 0, 70, 65
2, 35327, Note_on_c, 0, 70, 0
2, 35328, Note_on_c, 0, 64, 66
2, 35343, Note_on_c, 0, 64, 0
2, 35344, Note_on_c, 0, 65, 66
2, 35359, Note_on_c, 0, 65, 0
2, 35360, Note_on_c, 0, 67, 66
2, 35375, Note_on_c, 0, 67, 0
2, 35376, Note_on_c, 0, 65, 66
2, 35391, Note_on_c, 0, 65, 0
2, 35392, Note_on_c, 0, 67, 67
2, 35407, Note_on_c, 0, 67, 0
2, 35408, Note_on_c, 0, 69, 67
2, 35423, Note_on_c, 0, 69, 0
2, 35424, Note_on_c, 0, 62, 67
2, 35439, Note_on_c, 0, 62, 0
2, 35440, Note_on_c, 0, 64, 67
2, 35455, Note_on_c, 0, 64, 0
2, 35456, Note_on_c, 0, 65, 68
2, 35471, Note_on_c, 0, 65, 0
2, 35472, Note_on_c, 0, 64, 68
2, 35487, Note_on_c, 0, 64, 0
2, 35488, Note_on_c, 0, 65, 68
2, 35503, Note_on_c, 0, 65, 0
2, 35504, Note_on_c, 0, 67, 68
2, 35519, Note_on_c, 0, 67, 0
2, 35520, Note_on_c, 0, 61, 69
2, 35535, Note_on_c, 0, 61, 0
2, 35536, Note_on_c, 0, 62, 69
2, 35551, Note_on_c, 0, 62, 0
2, 35552, Note_on_c, 0, 64, 69
2, 35567, Note_on_c, 0, 64, 0
2, 35568, Note_on_c, 0, 62, 69
2, 35583, Note_on_c, 0, 62, 0
2, 35584, Note_on_c, 0, 64, 70
2, 35599, Note_on_c, 0, 64, 0
2, 35600, Note_on_c, 0, 65, 70
2, 35615, Note_on_c, 0, 65, 0
2, 35616, Note_on_c, 0, 64, 70
2, 35631, Note_on_c, 0, 64, 0
2, 35632, Note_on_c, 0, 65, 70
2, 35647, Note_on_c, 0, 65, 0
2, 35648, Note_on_c, 0, 67, 71
2, 35663, Note_on_c, 0, 67, 0
2, 35664, Note_on_c, 0, 65, 71
2, 35679, Note_on_c, 0, 65, 0
2, 35680, Note_on_c, 0, 67, 71
2, 35695, Note_on_c, 0, 67, 0
2, 35696, Note_on_c, 0, 69, 71
2, 35711, Note_on_c, 0, 69, 0
2, 35712, Note_on_c, 0, 67, 75
2, 35720, Note_on_c, 0, 67, 0
2, 35720, Note_on_c, 0, 65, 75
2, 35728, Note_on_c, 0, 65, 0
2, 35728, Note_on_c, 0, 67, 75
2, 35736, Note_on_c, 0, 67, 0
2, 35736, Note_on_c, 0, 65, 75
2, 35744, Note_on_c, 0, 65, 0
2, 35744, Note_on_c, 0, 67, 75
2, 35752, Note_on_c, 0, 67, 0
2, 35752, Note_on_c, 0, 65, 75
2, 35760, Note_on_c, 0, 65, 0
2, 35760, Note_on_c, 0, 64, 75
2, 35783, Note_on_c, 0, 64, 0
2, 35796, Note_on_c, 0, 67, 80
2, 35796, Note_on_c, 0, 64, 80
2, 35808, Note_on_c, 0, 67, 0
2, 35808, Note_on_c, 0, 64, 0
2, 35808, Note_on_c, 0, 67, 80
2, 35808, Note_on_c, 0, 64, 80
2, 35886, Note_on_c, 0, 67, 0
2, 35886, Note_on_c, 0, 64, 0
2, 35892, Note_on_c, 0, 73, 80
2, 35892, Note_on_c, 0, 67, 80
2, 35904, Note_on_c, 0, 73, 0
2, 35904, Note_on_c, 0, 67, 0
2, 35904, Note_on_c, 0, 73, 80
2, 35904, Note_on_c, 0, 67, 80
2, 35982, Note_on_c, 0, 73, 0
2, 35982, Note_on_c, 0, 67, 0
2, 35988, Note_on_c, 0, 76, 80
2, 35988, Note_on_c, 0, 73, 80
2, 36000, Note_on_c, 0, 76, 0
2, 36000, Note_on_c, 0, 73, 0
2, 36000, Note_on_c, 0, 76, 80
2, 36000, Note_on_c, 0, 73, 80
2, 36067, Note_on_c, 0, 76, 0
2, 36067, Note_on_c, 0, 73, 0
2, 36072, Note_on_c, 0, 76, 80
2, 36084, Note_on_c, 0, 76, 0
2, 36084, Note_on_c, 0, 79, 80
2, 36096, Note_on_c, 0, 79, 0
2, 36096, Note_on_c, 0, 78, 80
2, 36111, Note_on_c, 0, 78, 0
2, 36112, Note_on_c, 0, 81, 80
2, 36127, Note_on_c, 0, 81, 0
2, 36128, Note_on_c, 0, 79, 80
2, 36143, Note_on_c, 0, 79, 0
2, 36144, Note_on_c, 0, 78, 80
2, 36159, Note_on_c, 0, 78, 0
2, 36160, Note_on_c, 0, 76, 80
2, 36175, Note_on_c, 0, 76, 0
2, 36176, Note_on_c, 0, 74, 80
2, 36191, Note_on_c, 0, 74, 0
2, 36192, Note_on_c, 0, 73, 80
2, 36207, Note_on_c, 0, 73, 0
2, 36208, Note_on_c, 0, 71, 80
2, 36223, Note_on_c, 0, 71, 0
2, 36224, Note_on_c, 0, 69, 80
2, 36239, Note_on_c, 0, 69, 0
2, 36240, Note_on_c, 0, 67, 80
2, 36255, Note_on_c, 0, 67, 0
2, 36256, Note_on_c, 0, 66, 80
2, 36271, Note_on_c, 0, 66, 0
2, 36272, Note_on_c, 0, 64, 80
2, 36287, Note_on_c, 0, 64, 0
2, 36288, Note_on_c, 0, 62, 80
2, 36355, Note_on_c, 0, 62, 0
2, 36360, Note_on_c, 0, 64, 80
2, 36383, Note_on_c, 0, 64, 0
2, 36384, Note_on_c, 0, 64, 76
2, 36393, Note_on_c, 0, 64, 0
2, 36393, Note_on_c, 0, 66, 75
2, 36402, Note_on_c, 0, 66, 0
2, 36402, Note_on_c, 0, 64, 74
2, 36411, Note_on_c, 0, 64, 0
2, 36411, Note_on_c, 0, 66, 73
2, 36420, Note_on_c, 0, 66, 0
2, 36420, Note_on_c, 0, 64, 72
2, 36429, Note_on_c, 0, 64, 0
2, 36429, Note_on_c, 0, 66, 71
2, 36438, Note_on_c, 0, 66, 0
2, 36438, Note_on_c, 0, 64, 70
2, 36447, Note_on_c, 0, 64, 0
2, 36447, Note_on_c, 0, 66, 69
2, 36456, Note_on_c, 0, 66, 0
2, 36456, Note_on_c, 0, 64, 68
2, 36464, Note_on_c, 0, 64, 0
2, 36464, Note_on_c, 0, 62, 67
2, 36472, Note_on_c, 0, 62, 0
2, 36472, Note_on_c, 0, 64, 63
2, 36480, Note_on_c, 0, 64, 0
2, 36480, Note_on_c, 0, 78, 75
2, 36495, Note_on_c, 0, 78, 0
2, 36496, Note_on_c, 0, 81, 75
2, 36511, Note_on_c, 0, 81, 0
2, 36512, Note_on_c, 0, 79, 75
2, 36527, Note_on_c, 0, 79, 0
2, 36528, Note_on_c, 0, 78, 75
2, 36543, Note_on_c, 0, 78, 0
2, 36544, Note_on_c, 0, 76, 75
2, 36559, Note_on_c, 0, 76, 0
2, 36560, Note_on_c, 0, 74, 75
2, 36575, Note_on_c, 0, 74, 0
2, 36576, Note_on_c, 0, 73, 75
2, 36591, Note_on_c, 0, 73, 0
2, 36592, Note_on_c, 0, 71, 75
2, 36607, Note_on_c, 0, 71, 0
2, 36608, Note_on_c, 0, 69, 75
2, 36623, Note_on_c, 0, 69, 0
2, 36624, Note_on_c, 0, 67, 75
2, 36639, Note_on_c, 0, 67, 0
2, 36640, Note_on_c, 0, 66, 75
2, 36655, Note_on_c, 0, 66, 0
2, 36656, Note_on_c, 0, 64, 75
2, 36671, Note_on_c, 0, 64, 0
2, 36672, Note_on_c, 0, 62, 80
2, 36739, Note_on_c, 0, 62, 0
2, 36744, Note_on_c, 0, 64, 73
2, 36767, Note_on_c, 0, 64, 0
2, 36768, Note_on_c, 0, 64, 71
2, 36777, Note_on_c, 0, 64, 0
2, 36777, Note_on_c, 0, 66, 70
2, 36786, Note_on_c, 0, 66, 0
2, 36786, Note_on_c, 0, 64, 70
2, 36795, Note_on_c, 0, 64, 0
2, 36795, Note_on_c, 0, 66, 69
2, 36804, Note_on_c, 0, 66, 0
2, 36804, Note_on_c, 0, 64, 69
2, 36813, Note_on_c, 0, 64, 0
2, 36813, Note_on_c, 0, 66, 68
2, 36822, Note_on_c, 0, 66, 0
2, 36822, Note_on_c, 0, 64, 68
2, 36831, Note_on_c, 0, 64, 0
2, 36831, Note_on_c, 0, 66, 67
2, 36840, Note_on_c, 0, 66, 0
2, 36840, Note_on_c, 0, 64, 67
2, 36848, Note_on_c, 0, 64, 0
2, 36848, Note_on_c, 0, 62, 66
2, 36856, Note_on_c, 0, 62, 0
2, 36856, Note_on_c, 0, 64, 66
2, 36864, Note_on_c, 0, 64, 0
2, 36864, Note_on_c, 0, 62, 63
2, 36953, Note_on_c, 0, 62, 0
2, 37044, Note_on_c, 0, 76, 75
2, 37044, Note_on_c, 0, 73, 75
2, 37056, Note_on_c, 0, 76, 0
2, 37056, Note_on_c, 0, 73, 0
2, 37056, Note_on_c, 0, 76, 75
2, 37056, Note_on_c, 0, 73, 75
2, 37134, Note_on_c, 0, 76, 0
2, 37134, Note_on_c, 0, 73, 0
2, 37140, Note_on_c, 0, 73, 75
2, 37140, Note_on_c, 0, 69, 75
2, 37152, Note_on_c, 0, 73, 0
2, 37152, Note_on_c, 0, 69, 0
2, 37152, Note_on_c, 0, 73, 75
2, 37152, Note_on_c, 0, 69, 75
2, 37230, Note_on_c, 0, 73, 0
2, 37230, Note_on_c, 0, 69, 0
2, 37236, Note_on_c, 0, 69, 75
2, 37236, Note_on_c, 0, 61, 75
2, 37248, Note_on_c, 0, 69, 0
2, 37248, Note_on_c, 0, 61, 0
2, 37248, Note_on_c, 0, 69, 75
2, 37248, Note_on_c, 0, 61, 75
2, 37337, Note_on_c, 0, 69, 0
2, 37337, Note_on_c, 0, 61, 0
2, 37360, Note_on_c, 0, 57, 75
2, 37375, Note_on_c, 0, 57, 0
2, 37376, Note_on_c, 0, 59, 75
2, 37391, Note_on_c, 0, 59, 0
2, 37392, Note_on_c, 0, 61, 75
2, 37407, Note_on_c, 0, 61, 0
2, 37408, Note_on_c, 0, 62, 75
2, 37423, Note_on_c, 0, 62, 0
2, 37424, Note_on_c, 0, 64, 75
2, 37439, Note_on_c, 0, 64, 0
2, 37440, Note_on_c, 0, 65, 91
2, 37536, Note_on_c, 0, 65, 0
2, 37536, Note_on_c, 0, 66, 75
2, 37551, Note_on_c, 0, 66, 0
2, 37552, Note_on_c, 0, 74, 75
2, 37567, Note_on_c, 0, 74, 0
2, 37568, Note_on_c, 0, 73, 75
2, 37583, Note_on_c, 0, 73, 0
2, 37584, Note_on_c, 0, 74, 75
2, 37599, Note_on_c, 0, 74, 0
2, 37600, Note_on_c, 0, 69, 75
2, 37615, Note_on_c, 0, 69, 0
2, 37616, Note_on_c, 0, 66, 75
2, 37631, Note_on_c, 0, 66, 0
2, 37632, Note_on_c, 0, 66, 91
2, 37728, Note_on_c, 0, 66, 0
2, 37728, Note_on_c, 0, 64, 75
2, 37743, Note_on_c, 0, 64, 0
2, 37744, Note_on_c, 0, 69, 75
2, 37759, Note_on_c, 0, 69, 0
2, 37760, Note_on_c, 0, 68, 75
2, 37775, Note_on_c, 0, 68, 0
2, 37776, Note_on_c, 0, 69, 75
2, 37791, Note_on_c, 0, 69, 0
2, 37792, Note_on_c, 0, 73, 75
2, 37807, Note_on_c, 0, 73, 0
2, 37808, Note_on_c, 0, 76, 75
2, 37823, Note_on_c, 0, 76, 0
2, 37824, Note_on_c, 0, 76, 91
2, 37848, Note_on_c, 0, 76, 0
2, 37848, Note_on_c, 0, 74, 75
2, 37871, Note_on_c, 0, 74, 0
2, 37872, Note_on_c, 0, 83, 75
2, 37895, Note_on_c, 0, 83, 0
2, 37896, Note_on_c, 0, 74, 75
2, 37919, Note_on_c, 0, 74, 0
2, 37920, Note_on_c, 0, 73, 75
2, 37944, Note_on_c, 0, 73, 0
2, 37944, Note_on_c, 0, 81, 75
2, 37954, Note_on_c, 0, 81, 0
2, 37968, Note_on_c, 0, 81, 75
2, 37992, Note_on_c, 0, 81, 0
2, 37992, Note_on_c, 0, 73, 75
2, 38015, Note_on_c, 0, 73, 0
2, 38016, Note_on_c, 0, 76, 75
2, 38061, Note_on_c, 0, 76, 0
2, 38064, Note_on_c, 0, 74, 75
2, 38076, Note_on_c, 0, 74, 0
2, 38076, Note_on_c, 0, 73, 75
2, 38088, Note_on_c, 0, 73, 0
2, 38088, Note_on_c, 0, 71, 75
2, 38100, Note_on_c, 0, 71, 0
2, 38100, Note_on_c, 0, 73, 75
2, 38112, Note_on_c, 0, 73, 0
2, 38112, Note_on_c, 0, 71, 75
2, 38157, Note_on_c, 0, 71, 0
2, 38208, Note_on_c, 0, 76, 68
2, 38275, Note_on_c, 0, 76, 0
2, 38280, Note_on_c, 0, 71, 68
2, 38303, Note_on_c, 0, 71, 0
2, 38304, Note_on_c, 0, 79, 68
2, 38319, Note_on_c, 0, 79, 0
2, 38320, Note_on_c, 0, 78, 68
2, 38335, Note_on_c, 0, 78, 0
2, 38336, Note_on_c, 0, 76, 68
2, 38351, Note_on_c, 0, 76, 0
2, 38352, Note_on_c, 0, 74, 68
2, 38367, Note_on_c, 0, 74, 0
2, 38368, Note_on_c, 0, 73, 68
2, 38383, Note_on_c, 0, 73, 0
2, 38384, Note_on_c, 0, 71, 68
2, 38399, Note_on_c, 0, 71, 0
2, 38400, Note_on_c, 0, 71, 84
2, 38472, Note_on_c, 0, 71, 0
2, 38472, Note_on_c, 0, 68, 68
2, 38495, Note_on_c, 0, 68, 0
2, 38496, Note_on_c, 0, 70, 68
2, 38511, Note_on_c, 0, 70, 0
2, 38512, Note_on_c, 0, 71, 68
2, 38527, Note_on_c, 0, 71, 0
2, 38528, Note_on_c, 0, 73, 68
2, 38543, Note_on_c, 0, 73, 0
2, 38544, Note_on_c, 0, 74, 68
2, 38559, Note_on_c, 0, 74, 0
2, 38560, Note_on_c, 0, 76, 68
2, 38575, Note_on_c, 0, 76, 0
2, 38576, Note_on_c, 0, 73, 68
2, 38591, Note_on_c, 0, 73, 0
2, 38592, Note_on_c, 0, 78, 68
2, 38659, Note_on_c, 0, 78, 0
2, 38664, Note_on_c, 0, 71, 68
2, 38687, Note_on_c, 0, 71, 0
2, 38688, Note_on_c, 0, 78, 68
2, 38703, Note_on_c, 0, 78, 0
2, 38704, Note_on_c, 0, 76, 68
2, 38719, Note_on_c, 0, 76, 0
2, 38720, Note_on_c, 0, 74, 68
2, 38735, Note_on_c, 0, 74, 0
2, 38736, Note_on_c, 0, 73, 68
2, 38751, Note_on_c, 0, 73, 0
2, 38752, Note_on_c, 0, 71, 68
2, 38767, Note_on_c, 0, 71, 0
2, 38768, Note_on_c, 0, 69, 68
2, 38783, Note_on_c, 0, 69, 0
2, 38784, Note_on_c, 0, 69, 84
2, 38856, Note_on_c, 0, 69, 0
2, 38856, Note_on_c, 0, 66, 68
2, 38879, Note_on_c, 0, 66, 0
2, 38880, Note_on_c, 0, 68, 68
2, 38895, Note_on_c, 0, 68, 0
2, 38896, Note_on_c, 0, 69, 68
2, 38911, Note_on_c, 0, 69, 0
2, 38912, Note_on_c, 0, 71, 68
2, 38927, Note_on_c, 0, 71, 0
2, 38928, Note_on_c, 0, 73, 68
2, 38943, Note_on_c, 0, 73, 0
2, 38944, Note_on_c, 0, 74, 68
2, 38959, Note_on_c, 0, 74, 0
2, 38960, Note_on_c, 0, 71, 68
2, 38975, Note_on_c, 0, 71, 0
2, 38976, Note_on_c, 0, 76, 68
2, 39043, Note_on_c, 0, 76, 0
2, 39048, Note_on_c, 0, 67, 66
2, 39071, Note_on_c, 0, 67, 0
2, 39072, Note_on_c, 0, 76, 65
2, 39087, Note_on_c, 0, 76, 0
2, 39088, Note_on_c, 0, 74, 65
2, 39103, Note_on_c, 0, 74, 0
2, 39104, Note_on_c, 0, 73, 64
2, 39119, Note_on_c, 0, 73, 0
2, 39120, Note_on_c, 0, 71, 64
2, 39135, Note_on_c, 0, 71, 0
2, 39136, Note_on_c, 0, 69, 64
2, 39151, Note_on_c, 0, 69, 0
2, 39152, Note_on_c, 0, 67, 63
2, 39167, Note_on_c, 0, 67, 0
2, 39168, Note_on_c, 0, 69, 63
2, 39174, Note_on_c, 0, 69, 0
2, 39174, Note_on_c, 0, 67, 63
2, 39180, Note_on_c, 0, 67, 0
2, 39180, Note_on_c, 0, 66, 63
2, 39186, Note_on_c, 0, 66, 0
2, 39186, Note_on_c, 0, 67, 63
2, 39240, Note_on_c, 0, 67, 0
2, 39240, Note_on_c, 0, 66, 63
2, 39329, Note_on_c, 0, 66, 0
2, 39492, Note_on_c, 0, 66, 63
2, 39504, Note_on_c, 0, 66, 0
2, 39504, Note_on_c, 0, 71, 63
2, 39538, Note_on_c, 0, 71, 0
2, 39540, Note_on_c, 0, 74, 63
2, 39552, Note_on_c, 0, 74, 0
2, 39552, Note_on_c, 0, 74, 64
2, 39586, Note_on_c, 0, 74, 0
2, 39588, Note_on_c, 0, 67, 64
2, 39600, Note_on_c, 0, 67, 0
2, 39600, Note_on_c, 0, 73, 64
2, 39634, Note_on_c, 0, 73, 0
2, 39636, Note_on_c, 0, 76, 65
2, 39648, Note_on_c, 0, 76, 0
2, 39648, Note_on_c, 0, 76, 65
2, 39682, Note_on_c, 0, 76, 0
2, 39684, Note_on_c, 0, 69, 66
2, 39696, Note_on_c, 0, 69, 0
2, 39696, Note_on_c, 0, 74, 66
2, 39730, Note_on_c, 0, 74, 0
2, 39732, Note_on_c, 0, 78, 67
2, 39744, Note_on_c, 0, 78, 0
2, 39744, Note_on_c, 0, 78, 67
2, 39778, Note_on_c, 0, 78, 0
2, 39780, Note_on_c, 0, 71, 68
2, 39792, Note_on_c, 0, 71, 0
2, 39792, Note_on_c, 0, 76, 68
2, 39826, Note_on_c, 0, 76, 0
2, 39828, Note_on_c, 0, 79, 69
2, 39840, Note_on_c, 0, 79, 0
2, 39840, Note_on_c, 0, 79, 69
2, 39874, Note_on_c, 0, 79, 0
2, 39876, Note_on_c, 0, 73, 69
2, 39888, Note_on_c, 0, 73, 0
2, 39888, Note_on_c, 0, 78, 70
2, 39922, Note_on_c, 0, 78, 0
2, 39924, Note_on_c, 0, 81, 70
2, 39936, Note_on_c, 0, 81, 0
2, 39936, Note_on_c, 0, 81, 70
2, 39970, Note_on_c, 0, 81, 0
2, 39972, Note_on_c, 0, 74, 71
2, 39984, Note_on_c, 0, 74, 0
2, 39984, Note_on_c, 0, 79, 71
2, 40018, Note_on_c, 0, 79, 0
2, 40020, Note_on_c, 0, 83, 72
2, 40032, Note_on_c, 0, 83, 0
2, 40032, Note_on_c, 0, 83, 72
2, 40055, Note_on_c, 0, 83, 0
2, 40056, Note_on_c, 0, 81, 73
2, 40068, Note_on_c, 0, 81, 0
2, 40068, Note_on_c, 0, 79, 73
2, 40080, Note_on_c, 0, 79, 0
2, 40080, Note_on_c, 0, 78, 73
2, 40103, Note_on_c, 0, 78, 0
2, 40104, Note_on_c, 0, 79, 73
2, 40127, Note_on_c, 0, 79, 0
2, 40128, Note_on_c, 0, 78, 74
2, 40162, Note_on_c, 0, 78, 0
2, 40164, Note_on_c, 0, 86, 75
2, 40164, Note_on_c, 0, 78, 75
2, 40176, Note_on_c, 0, 86, 0
2, 40176, Note_on_c, 0, 78, 0
2, 40176, Note_on_c, 0, 86, 75
2, 40176, Note_on_c, 0, 78, 75
2, 40210, Note_on_c, 0, 86, 0
2, 40210, Note_on_c, 0, 78, 0
2, 40212, Note_on_c, 0, 86, 75
2, 40212, Note_on_c, 0, 78, 75
2, 40224, Note_on_c, 0, 86, 0
2, 40224, Note_on_c, 0, 78, 0
2, 40224, Note_on_c, 0, 86, 75
2, 40224, Note_on_c, 0, 78, 75
2, 40258, Note_on_c, 0, 86, 0
2, 40258, Note_on_c, 0, 78, 0
2, 40260, Note_on_c, 0, 78, 75
2, 40260, Note_on_c, 0, 74, 75
2, 40272, Note_on_c, 0, 78, 0
2, 40272, Note_on_c, 0, 74, 0
2, 40272, Note_on_c, 0, 78, 75
2, 40272, Note_on_c, 0, 74, 75
2, 40306, Note_on_c, 0, 78, 0
2, 40306, Note_on_c, 0, 74, 0
2, 40308, Note_on_c, 0, 78, 75
2, 40308, Note_on_c, 0, 74, 75
2, 40320, Note_on_c, 0, 78, 0
2, 40320, Note_on_c, 0, 74, 0
2, 40320, Note_on_c, 0, 78, 75
2, 40320, Note_on_c, 0, 74, 75
2, 40365, Note_on_c, 0, 78, 0
2, 40365, Note_on_c, 0, 74, 0
2, 40368, Note_on_c, 0, 76, 75
2, 40368, Note_on_c, 0, 73, 75
2, 40402, Note_on_c, 0, 76, 0
2, 40402, Note_on_c, 0, 73, 0
2, 40404, Note_on_c, 0, 85, 75
2, 40416, Note_on_c, 0, 85, 0
2, 40416, Note_on_c, 0, 86, 91
2, 40452, Note_on_c, 0, 86, 0
2, 40452, Note_on_c, 0, 78, 75
2, 40452, Note_on_c, 0, 74, 75
2, 40464, Note_on_c, 0, 78, 0
2, 40464, Note_on_c, 0, 74, 0
2, 40464, Note_on_c, 0, 78, 75
2, 40464, Note_on_c, 0, 74, 75
2, 40498, Note_on_c, 0, 78, 0
2, 40498, Note_on_c, 0, 74, 0
2, 40500, Note_on_c, 0, 78, 75
2, 40500, Note_on_c, 0, 74, 75
2, 40512, Note_on_c, 0, 78, 0
2, 40512, Note_on_c, 0, 74, 0
2, 40512, Note_on_c, 0, 78, 75
2, 40522, Note_on_c, 0, 78, 0
2, 40522, Note_on_c, 0, 79, 75
2, 40532, Note_on_c, 0, 79, 0
2, 40532, Note_on_c, 0, 78, 75
2, 40542, Note_on_c, 0, 78, 0
2, 40542, Note_on_c, 0, 76, 75
2, 40551, Note_on_c, 0, 76, 0
2, 40551, Note_on_c, 0, 78, 75
2, 40560, Note_on_c, 0, 78, 0
2, 40560, Note_on_c, 0, 76, 75
2, 40594, Note_on_c, 0, 76, 0
2, 40596, Note_on_c, 0, 85, 75
2, 40608, Note_on_c, 0, 85, 0
2, 40608, Note_on_c, 0, 86, 91
2, 40624, Note_on_c, 0, 86, 0
2, 40624, Note_on_c, 0, 85, 75
2, 40639, Note_on_c, 0, 85, 0
2, 40640, Note_on_c, 0, 83, 75
2, 40655, Note_on_c, 0, 83, 0
2, 40656, Note_on_c, 0, 81, 75
2, 40671, Note_on_c, 0, 81, 0
2, 40672, Note_on_c, 0, 79, 75
2, 40687, Note_on_c, 0, 79, 0
2, 40688, Note_on_c, 0, 78, 75
2, 40703, Note_on_c, 0, 78, 0
2, 40704, Note_on_c, 0, 78, 75
2, 40719, Note_on_c, 0, 78, 0
2, 40720, Note_on_c, 0, 79, 75
2, 40735, Note_on_c, 0, 79, 0
2, 40736, Note_on_c, 0, 81, 75
2, 40751, Note_on_c, 0, 81, 0
2, 40752, Note_on_c, 0, 76, 75
2, 40830, Note_on_c, 0, 76, 0
2, 40884, Note_on_c, 0, 81, 75
2, 40884, Note_on_c, 0, 78, 75
2, 40896, Note_on_c, 0, 81, 0
2, 40896, Note_on_c, 0, 78, 0
2, 40896, Note_on_c, 0, 81, 75
2, 40896, Note_on_c, 0, 78, 75
2, 40974, Note_on_c, 0, 81, 0
2, 40974, Note_on_c, 0, 78, 0
2, 40980, Note_on_c, 0, 78, 75
2, 40980, Note_on_c, 0, 74, 75
2, 40992, Note_on_c, 0, 78, 0
2, 40992, Note_on_c, 0, 74, 0
2, 40992, Note_on_c, 0, 78, 75
2, 40992, Note_on_c, 0, 74, 75
2, 41070, Note_on_c, 0, 78, 0
2, 41070, Note_on_c, 0, 74, 0
2, 41076, Note_on_c, 0, 74, 75
2, 41076, Note_on_c, 0, 66, 75
2, 41088, Note_on_c, 0, 74, 0
2, 41088, Note_on_c, 0, 66, 0
2, 41088, Note_on_c, 0, 74, 75
2, 41088, Note_on_c, 0, 66, 75
2, 41177, Note_on_c, 0, 74, 0
2, 41177, Note_on_c, 0, 66, 0
2, 41220, Note_on_c, 0, 69, 75
2, 41220, Note_on_c, 0, 66, 75
2, 41232, Note_on_c, 0, 69, 0
2, 41232, Note_on_c, 0, 66, 0
2, 41232, Note_on_c, 0, 69, 75
2, 41232, Note_on_c, 0, 66, 75
2, 41266, Note_on_c, 0, 69, 0
2, 41266, Note_on_c, 0, 66, 0
2, 41268, Note_on_c, 0, 69, 75
2, 41268, Note_on_c, 0, 66, 75
2, 41280, Note_on_c, 0, 69, 0
2, 41280, Note_on_c, 0, 66, 0
2, 41280, Note_on_c, 0, 70, 91
2, 41280, Note_on_c, 0, 66, 91
2, 41376, Note_on_c, 0, 70, 0
2, 41376, Note_on_c, 0, 66, 0
2, 41376, Note_on_c, 0, 71, 75
2, 41376, Note_on_c, 0, 67, 75
2, 41410, Note_on_c, 0, 71, 0
2, 41410, Note_on_c, 0, 67, 0
2, 41412, Note_on_c, 0, 59, 75
2, 41424, Note_on_c, 0, 59, 0
2, 41424, Note_on_c, 0, 67, 75
2, 41458, Note_on_c, 0, 67, 0
2, 41460, Note_on_c, 0, 64, 75
2, 41472, Note_on_c, 0, 64, 0
2, 41472, Note_on_c, 0, 62, 75
2, 41517, Note_on_c, 0, 62, 0
2, 41520, Note_on_c, 0, 61, 71
2, 41530, Note_on_c, 0, 61, 0
2, 41530, Note_on_c, 0, 62, 71
2, 41540, Note_on_c, 0, 62, 0
2, 41540, Note_on_c, 0, 61, 70
2, 41550, Note_on_c, 0, 61, 0
2, 41550, Note_on_c, 0, 59, 70
2, 41559, Note_on_c, 0, 59, 0
2, 41559, Note_on_c, 0, 61, 69
2, 41568, Note_on_c, 0, 61, 0
2, 41568, Note_on_c, 0, 62, 69
2, 41635, Note_on_c, 0, 62, 0
2, 41652, Note_on_c, 0, 81, 75
2, 41652, Note_on_c, 0, 78, 75
2, 41664, Note_on_c, 0, 81, 0
2, 41664, Note_on_c, 0, 78, 0
2, 41664, Note_on_c, 0, 81, 75
2, 41664, Note_on_c, 0, 78, 75
2, 41742, Note_on_c, 0, 81, 0
2, 41742, Note_on_c, 0, 78, 0
2, 41748, Note_on_c, 0, 78, 75
2, 41748, Note_on_c, 0, 74, 75
2, 41760, Note_on_c, 0, 78, 0
2, 41760, Note_on_c, 0, 74, 0
2, 41760, Note_on_c, 0, 78, 75
2, 41760, Note_on_c, 0, 74, 75
2, 41838, Note_on_c, 0, 78, 0
2, 41838, Note_on_c, 0, 74, 0
2, 41844, Note_on_c, 0, 74, 75
2, 41844, Note_on_c, 0, 66, 75
2, 41856, Note_on_c, 0, 74, 0
2, 41856, Note_on_c, 0, 66, 0
2, 41856, Note_on_c, 0, 74, 75
2, 41856, Note_on_c, 0, 66, 75
2, 41945, Note_on_c, 0, 74, 0
2, 41945, Note_on_c, 0, 66, 0
2, 41968, Note_on_c, 0, 62, 75
2, 41983, Note_on_c, 0, 62, 0
2, 41984, Note_on_c, 0, 64, 75
2, 41999, Note_on_c, 0, 64, 0
2, 42000, Note_on_c, 0, 66, 75
2, 42015, Note_on_c, 0, 66, 0
2, 42016, Note_on_c, 0, 67, 75
2, 42031, Note_on_c, 0, 67, 0
2, 42032, Note_on_c, 0, 69, 75
2, 42047, Note_on_c, 0, 69, 0
2, 42048, Note_on_c, 0, 70, 91
2, 42144, Note_on_c, 0, 70, 0
2, 42144, Note_on_c, 0, 71, 75
2, 42159, Note_on_c, 0, 71, 0
2, 42160, Note_on_c, 0, 79, 75
2, 42175, Note_on_c, 0, 79, 0
2, 42176, Note_on_c, 0, 78, 75
2, 42191, Note_on_c, 0, 78, 0
2, 42192, Note_on_c, 0, 79, 75
2, 42207, Note_on_c, 0, 79, 0
2, 42208, Note_on_c, 0, 74, 75
2, 42223, Note_on_c, 0, 74, 0
2, 42224, Note_on_c, 0, 71, 75
2, 42239, Note_on_c, 0, 71, 0
2, 42240, Note_on_c, 0, 71, 91
2, 42336, Note_on_c, 0, 71, 0
2, 42336, Note_on_c, 0, 69, 75
2, 42351, Note_on_c, 0, 69, 0
2, 42352, Note_on_c, 0, 74, 75
2, 42367, Note_on_c, 0, 74, 0
2, 42368, Note_on_c, 0, 73, 75
2, 42383, Note_on_c, 0, 73, 0
2, 42384, Note_on_c, 0, 74, 75
2, 42399, Note_on_c, 0, 74, 0
2, 42400, Note_on_c, 0, 69, 75
2, 42415, Note_on_c, 0, 69, 0
2, 42416, Note_on_c, 0, 66, 75
2, 42431, Note_on_c, 0, 66, 0
2, 42432, Note_on_c, 0, 67, 75
2, 42455, Note_on_c, 0, 67, 0
2, 42456, Note_on_c, 0, 76, 75
2, 42501, Note_on_c, 0, 76, 0
2, 42504, Note_on_c, 0, 67, 75
2, 42527, Note_on_c, 0, 67, 0
2, 42528, Note_on_c, 0, 66, 75
2, 42551, Note_on_c, 0, 66, 0
2, 42552, Note_on_c, 0, 74, 75
2, 42597, Note_on_c, 0, 74, 0
2, 42600, Note_on_c, 0, 66, 75
2, 42623, Note_on_c, 0, 66, 0
2, 42624, Note_on_c, 0, 69, 68
2, 42630, Note_on_c, 0, 69, 0
2, 42630, Note_on_c, 0, 67, 68
2, 42636, Note_on_c, 0, 67, 0
2, 42636, Note_on_c, 0, 66, 68
2, 42642, Note_on_c, 0, 66, 0
2, 42642, Note_on_c, 0, 67, 68
2, 42648, Note_on_c, 0, 67, 0
2, 42648, Note_on_c, 0, 76, 69
2, 42695, Note_on_c, 0, 76, 0
2, 42696, Note_on_c, 0, 67, 72
2, 42719, Note_on_c, 0, 67, 0
2, 42720, Note_on_c, 0, 66, 74
2, 42744, Note_on_c, 0, 66, 0
2, 42744, Note_on_c, 0, 74, 75
2, 42754, Note_on_c, 0, 74, 0
2, 42768, Note_on_c, 0, 74, 77
2, 42792, Note_on_c, 0, 74, 0
2, 42792, Note_on_c, 0, 66, 78
2, 42792, Note_on_c, 0, 62, 78
2, 42815, Note_on_c, 0, 66, 0
2, 42815, Note_on_c, 0, 62, 0
2, 42816, Note_on_c, 0, 67, 75
2, 42824, Note_on_c, 0, 67, 0
2, 42824, Note_on_c, 0, 66, 74
2, 42832, Note_on_c, 0, 66, 0
2, 42832, Note_on_c, 0, 67, 73
2, 42840, Note_on_c, 0, 67, 0
2, 42840, Note_on_c, 0, 66, 73
2, 42848, Note_on_c, 0, 66, 0
2, 42848, Note_on_c, 0, 64, 72
2, 42856, Note_on_c, 0, 64, 0
2, 42856, Note_on_c, 0, 66, 72
2, 42864, Note_on_c, 0, 66, 0
2, 42864, Note_on_c, 0, 64, 71
2, 42931, Note_on_c, 0, 64, 0
2, 43032, Note_on_c, 0, 71, 80
2, 43040, Note_on_c, 0, 71, 0
2, 43040, Note_on_c, 0, 69, 80
2, 43048, Note_on_c, 0, 69, 0
2, 43048, Note_on_c, 0, 68, 80
2, 43056, Note_on_c, 0, 68, 0
2, 43056, Note_on_c, 0, 69, 80
2, 43079, Note_on_c, 0, 69, 0
2, 43080, Note_on_c, 0, 69, 80
2, 43103, Note_on_c, 0, 69, 0
2, 43128, Note_on_c, 0, 71, 80
2, 43136, Note_on_c, 0, 71, 0
2, 43136, Note_on_c, 0, 69, 80
2, 43144, Note_on_c, 0, 69, 0
2, 43144, Note_on_c, 0, 68, 80
2, 43152, Note_on_c, 0, 68, 0
2, 43152, Note_on_c, 0, 69, 80
2, 43175, Note_on_c, 0, 69, 0
2, 43176, Note_on_c, 0, 69, 80
2, 43199, Note_on_c, 0, 69, 0
2, 43200, Note_on_c, 0, 69, 80
2, 43215, Note_on_c, 0, 69, 0
2, 43216, Note_on_c, 0, 81, 80
2, 43231, Note_on_c, 0, 81, 0
2, 43232, Note_on_c, 0, 79, 80
2, 43247, Note_on_c, 0, 79, 0
2, 43248, Note_on_c, 0, 78, 80
2, 43263, Note_on_c, 0, 78, 0
2, 43264, Note_on_c, 0, 76, 80
2, 43279, Note_on_c, 0, 76, 0
2, 43280, Note_on_c, 0, 74, 80
2, 43295, Note_on_c, 0, 74, 0
2, 43296, Note_on_c, 0, 73, 80
2, 43311, Note_on_c, 0, 73, 0
2, 43312, Note_on_c, 0, 71, 80
2, 43327, Note_on_c, 0, 71, 0
2, 43328, Note_on_c, 0, 69, 80
2, 43343, Note_on_c, 0, 69, 0
2, 43344, Note_on_c, 0, 67, 80
2, 43359, Note_on_c, 0, 67, 0
2, 43360, Note_on_c, 0, 66, 80
2, 43375, Note_on_c, 0, 66, 0
2, 43376, Note_on_c, 0, 64, 80
2, 43391, Note_on_c, 0, 64, 0
2, 43416, Note_on_c, 0, 71, 80
2, 43424, Note_on_c, 0, 71, 0
2, 43424, Note_on_c, 0, 69, 80
2, 43432, Note_on_c, 0, 69, 0
2, 43432, Note_on_c, 0, 68, 80
2, 43440, Note_on_c, 0, 68, 0
2, 43440, Note_on_c, 0, 69, 80
2, 43463, Note_on_c, 0, 69, 0
2, 43464, Note_on_c, 0, 69, 80
2, 43487, Note_on_c, 0, 69, 0
2, 43512, Note_on_c, 0, 71, 80
2, 43520, Note_on_c, 0, 71, 0
2, 43520, Note_on_c, 0, 69, 80
2, 43528, Note_on_c, 0, 69, 0
2, 43528, Note_on_c, 0, 68, 80
2, 43536, Note_on_c, 0, 68, 0
2, 43536, Note_on_c, 0, 69, 80
2, 43559, Note_on_c, 0, 69, 0
2, 43560, Note_on_c, 0, 69, 80
2, 43583, Note_on_c, 0, 69, 0
2, 43584, Note_on_c, 0, 69, 80
2, 43599, Note_on_c, 0, 69, 0
2, 43600, Note_on_c, 0, 81, 80
2, 43615, Note_on_c, 0, 81, 0
2, 43616, Note_on_c, 0, 79, 80
2, 43631, Note_on_c, 0, 79, 0
2, 43632, Note_on_c, 0, 78, 80
2, 43647, Note_on_c, 0, 78, 0
2, 43648, Note_on_c, 0, 76, 80
2, 43663, Note_on_c, 0, 76, 0
2, 43664, Note_on_c, 0, 74, 80
2, 43679, Note_on_c, 0, 74, 0
2, 43680, Note_on_c, 0, 73, 80
2, 43695, Note_on_c, 0, 73, 0
2, 43696, Note_on_c, 0, 71, 80
2, 43711, Note_on_c, 0, 71, 0
2, 43712, Note_on_c, 0, 69, 80
2, 43727, Note_on_c, 0, 69, 0
2, 43728, Note_on_c, 0, 67, 80
2, 43743, Note_on_c, 0, 67, 0
2, 43744, Note_on_c, 0, 66, 80
2, 43759, Note_on_c, 0, 66, 0
2, 43760, Note_on_c, 0, 64, 80
2, 43775, Note_on_c, 0, 64, 0
2, 43776, Note_on_c, 0, 62, 80
2, 43791, Note_on_c, 0, 62, 0
2, 43792, Note_on_c, 0, 69, 78
2, 43807, Note_on_c, 0, 69, 0
2, 43808, Note_on_c, 0, 67, 77
2, 43823, Note_on_c, 0, 67, 0
2, 43824, Note_on_c, 0, 66, 76
2, 43839, Note_on_c, 0, 66, 0
2, 43840, Note_on_c, 0, 64, 75
2, 43855, Note_on_c, 0, 64, 0
2, 43856, Note_on_c, 0, 62, 74
2, 43871, Note_on_c, 0, 62, 0
2, 43872, Note_on_c, 0, 61, 73
2, 43887, Note_on_c, 0, 61, 0
2, 43888, Note_on_c, 0, 59, 72
2, 43903, Note_on_c, 0, 59, 0
2, 43904, Note_on_c, 0, 57, 71
2, 43919, Note_on_c, 0, 57, 0
2, 43920, Note_on_c, 0, 55, 70
2, 43935, Note_on_c, 0, 55, 0
2, 43936, Note_on_c, 0, 54, 69
2, 43951, Note_on_c, 0, 54, 0
2, 43952, Note_on_c, 0, 52, 68
2, 43967, Note_on_c, 0, 52, 0
2, 43984, Note_on_c, 0, 57, 63
2, 43999, Note_on_c, 0, 57, 0
2, 44000, Note_on_c, 0, 55, 63
2, 44015, Note_on_c, 0, 55, 0
2, 44016, Note_on_c, 0, 54, 64
2, 44031, Note_on_c, 0, 54, 0
2, 44032, Note_on_c, 0, 52, 64
2, 44047, Note_on_c, 0, 52, 0
2, 44048, Note_on_c, 0, 50, 64
2, 44063, Note_on_c, 0, 50, 0
2, 44080, Note_on_c, 0, 59, 65
2, 44095, Note_on_c, 0, 59, 0
2, 44096, Note_on_c, 0, 57, 65
2, 44111, Note_on_c, 0, 57, 0
2, 44112, Note_on_c, 0, 55, 66
2, 44127, Note_on_c, 0, 55, 0
2, 44128, Note_on_c, 0, 54, 66
2, 44143, Note_on_c, 0, 54, 0
2, 44144, Note_on_c, 0, 52, 66
2, 44159, Note_on_c, 0, 52, 0
2, 44176, Note_on_c, 0, 61, 67
2, 44191, Note_on_c, 0, 61, 0
2, 44192, Note_on_c, 0, 59, 67
2, 44207, Note_on_c, 0, 59, 0
2, 44208, Note_on_c, 0, 57, 68
2, 44223, Note_on_c, 0, 57, 0
2, 44224, Note_on_c, 0, 55, 68
2, 44239, Note_on_c, 0, 55, 0
2, 44240, Note_on_c, 0, 54, 69
2, 44255, Note_on_c, 0, 54, 0
2, 44272, Note_on_c, 0, 62, 69
2, 44287, Note_on_c, 0, 62, 0
2, 44288, Note_on_c, 0, 61, 70
2, 44303, Note_on_c, 0, 61, 0
2, 44304, Note_on_c, 0, 59, 70
2, 44319, Note_on_c, 0, 59, 0
2, 44320, Note_on_c, 0, 57, 70
2, 44335, Note_on_c, 0, 57, 0
2, 44336, Note_on_c, 0, 55, 71
2, 44351, Note_on_c, 0, 55, 0
2, 44368, Note_on_c, 0, 64, 71
2, 44383, Note_on_c, 0, 64, 0
2, 44384, Note_on_c, 0, 62, 72
2, 44399, Note_on_c, 0, 62, 0
2, 44400, Note_on_c, 0, 61, 72
2, 44415, Note_on_c, 0, 61, 0
2, 44416, Note_on_c, 0, 59, 72
2, 44431, Note_on_c, 0, 59, 0
2, 44432, Note_on_c, 0, 57, 73
2, 44447, Note_on_c, 0, 57, 0
2, 44464, Note_on_c, 0, 62, 73
2, 44479, Note_on_c, 0, 62, 0
2, 44480, Note_on_c, 0, 64, 74
2, 44495, Note_on_c, 0, 64, 0
2, 44496, Note_on_c, 0, 66, 74
2, 44511, Note_on_c, 0, 66, 0
2, 44512, Note_on_c, 0, 67, 75
2, 44527, Note_on_c, 0, 67, 0
2, 44528, Note_on_c, 0, 69, 75
2, 44543, Note_on_c, 0, 69, 0
2, 44560, Note_on_c, 0, 64, 80
2, 44575, Note_on_c, 0, 64, 0
2, 44576, Note_on_c, 0, 62, 80
2, 44591, Note_on_c, 0, 62, 0
2, 44592, Note_on_c, 0, 61, 80
2, 44607, Note_on_c, 0, 61, 0
2, 44608, Note_on_c, 0, 59, 80
2, 44623, Note_on_c, 0, 59, 0
2, 44624, Note_on_c, 0, 57, 80
2, 44639, Note_on_c, 0, 57, 0
2, 44656, Note_on_c, 0, 62, 80
2, 44671, Note_on_c, 0, 62, 0
2, 44672, Note_on_c, 0, 64, 78
2, 44687, Note_on_c, 0, 64, 0
2, 44688, Note_on_c, 0, 66, 76
2, 44703, Note_on_c, 0, 66, 0
2, 44704, Note_on_c, 0, 67, 74
2, 44719, Note_on_c, 0, 67, 0
2, 44720, Note_on_c, 0, 69, 73
2, 44735, Note_on_c, 0, 69, 0
2, 44736, Note_on_c, 0, 70, 84
2, 44832, Note_on_c, 0, 70, 0
2, 44832, Note_on_c, 0, 71, 68
2, 44847, Note_on_c, 0, 71, 0
2, 44848, Note_on_c, 0, 73, 68
2, 44863, Note_on_c, 0, 73, 0
2, 44864, Note_on_c, 0, 74, 68
2, 44879, Note_on_c, 0, 74, 0
2, 44880, Note_on_c, 0, 76, 68
2, 44895, Note_on_c, 0, 76, 0
2, 44896, Note_on_c, 0, 78, 68
2, 44911, Note_on_c, 0, 78, 0
2, 44912, Note_on_c, 0, 79, 68
2, 44927, Note_on_c, 0, 79, 0
2, 44928, Note_on_c, 0, 79, 68
2, 44995, Note_on_c, 0, 79, 0
2, 45000, Note_on_c, 0, 81, 69
2, 45023, Note_on_c, 0, 81, 0
2, 45024, Note_on_c, 0, 79, 69
2, 45039, Note_on_c, 0, 79, 0
2, 45040, Note_on_c, 0, 78, 69
2, 45055, Note_on_c, 0, 78, 0
2, 45056, Note_on_c, 0, 76, 69
2, 45071, Note_on_c, 0, 76, 0
2, 45072, Note_on_c, 0, 74, 69
2, 45087, Note_on_c, 0, 74, 0
2, 45088, Note_on_c, 0, 73, 70
2, 45103, Note_on_c, 0, 73, 0
2, 45104, Note_on_c, 0, 71, 70
2, 45119, Note_on_c, 0, 71, 0
2, 45120, Note_on_c, 0, 71, 86
2, 45192, Note_on_c, 0, 71, 0
2, 45192, Note_on_c, 0, 68, 71
2, 45215, Note_on_c, 0, 68, 0
2, 45216, Note_on_c, 0, 69, 71
2, 45231, Note_on_c, 0, 69, 0
2, 45232, Note_on_c, 0, 71, 71
2, 45247, Note_on_c, 0, 71, 0
2, 45248, Note_on_c, 0, 73, 71
2, 45263, Note_on_c, 0, 73, 0
2, 45264, Note_on_c, 0, 74, 71
2, 45279, Note_on_c, 0, 74, 0
2, 45280, Note_on_c, 0, 76, 71
2, 45295, Note_on_c, 0, 76, 0
2, 45296, Note_on_c, 0, 78, 71
2, 45311, Note_on_c, 0, 78, 0
2, 45312, Note_on_c, 0, 78, 71
2, 45379, Note_on_c, 0, 78, 0
2, 45384, Note_on_c, 0, 79, 72
2, 45407, Note_on_c, 0, 79, 0
2, 45408, Note_on_c, 0, 78, 72
2, 45423, Note_on_c, 0, 78, 0
2, 45424, Note_on_c, 0, 76, 72
2, 45439, Note_on_c, 0, 76, 0
2, 45440, Note_on_c, 0, 74, 73
2, 45455, Note_on_c, 0, 74, 0
2, 45456, Note_on_c, 0, 73, 73
2, 45471, Note_on_c, 0, 73, 0
2, 45472, Note_on_c, 0, 71, 73
2, 45487, Note_on_c, 0, 71, 0
2, 45488, Note_on_c, 0, 69, 73
2, 45503, Note_on_c, 0, 69, 0
2, 45504, Note_on_c, 0, 69, 89
2, 45576, Note_on_c, 0, 69, 0
2, 45576, Note_on_c, 0, 66, 74
2, 45599, Note_on_c, 0, 66, 0
2, 45600, Note_on_c, 0, 67, 74
2, 45615, Note_on_c, 0, 67, 0
2, 45616, Note_on_c, 0, 69, 74
2, 45631, Note_on_c, 0, 69, 0
2, 45632, Note_on_c, 0, 71, 74
2, 45647, Note_on_c, 0, 71, 0
2, 45648, Note_on_c, 0, 73, 74
2, 45663, Note_on_c, 0, 73, 0
2, 45664, Note_on_c, 0, 74, 74
2, 45679, Note_on_c, 0, 74, 0
2, 45680, Note_on_c, 0, 76, 75
2, 45695, Note_on_c, 0, 76, 0
2, 45696, Note_on_c, 0, 76, 75
2, 45763, Note_on_c, 0, 76, 0
2, 45768, Note_on_c, 0, 78, 75
2, 45791, Note_on_c, 0, 78, 0
2, 45792, Note_on_c, 0, 76, 76
2, 45807, Note_on_c, 0, 76, 0
2, 45808, Note_on_c, 0, 74, 76
2, 45823, Note_on_c, 0, 74, 0
2, 45824, Note_on_c, 0, 73, 76
2, 45839, Note_on_c, 0, 73, 0
2, 45840, Note_on_c, 0, 71, 76
2, 45855, Note_on_c, 0, 71, 0
2, 45856, Note_on_c, 0, 69, 76
2, 45871, Note_on_c, 0, 69, 0
2, 45872, Note_on_c, 0, 67, 76
2, 45887, Note_on_c, 0, 67, 0
2, 45888, Note_on_c, 0, 67, 92
2, 45960, Note_on_c, 0, 67, 0
2, 45960, Note_on_c, 0, 64, 77
2, 45983, Note_on_c, 0, 64, 0
2, 45984, Note_on_c, 0, 66, 77
2, 45999, Note_on_c, 0, 66, 0
2, 46000, Note_on_c, 0, 67, 77
2, 46015, Note_on_c, 0, 67, 0
2, 46016, Note_on_c, 0, 69, 77
2, 46031, Note_on_c, 0, 69, 0
2, 46032, Note_on_c, 0, 71, 78
2, 46047, Note_on_c, 0, 71, 0
2, 46048, Note_on_c, 0, 73, 78
2, 46063, Note_on_c, 0, 73, 0
2, 46064, Note_on_c, 0, 74, 78
2, 46079, Note_on_c, 0, 74, 0
2, 46080, Note_on_c, 0, 74, 80
2, 46143, Note_on_c, 0, 74, 0
2, 46144, Note_on_c, 0, 78, 81
2, 46159, Note_on_c, 0, 78, 0
2, 46160, Note_on_c, 0, 76, 82
2, 46175, Note_on_c, 0, 76, 0
2, 46176, Note_on_c, 0, 74, 82
2, 46191, Note_on_c, 0, 74, 0
2, 46192, Note_on_c, 0, 73, 83
2, 46207, Note_on_c, 0, 73, 0
2, 46208, Note_on_c, 0, 71, 83
2, 46223, Note_on_c, 0, 71, 0
2, 46224, Note_on_c, 0, 69, 83
2, 46239, Note_on_c, 0, 69, 0
2, 46240, Note_on_c, 0, 67, 84
2, 46255, Note_on_c, 0, 67, 0
2, 46256, Note_on_c, 0, 66, 84
2, 46271, Note_on_c, 0, 66, 0
2, 46272, Note_on_c, 0, 67, 86
2, 46280, Note_on_c, 0, 67, 0
2, 46280, Note_on_c, 0, 66, 85
2, 46288, Note_on_c, 0, 66, 0
2, 46288, Note_on_c, 0, 67, 84
2, 46296, Note_on_c, 0, 67, 0
2, 46296, Note_on_c, 0, 66, 84
2, 46304, Note_on_c, 0, 66, 0
2, 46304, Note_on_c, 0, 67, 83
2, 46312, Note_on_c, 0, 67, 0
2, 46312, Note_on_c, 0, 66, 83
2, 46320, Note_on_c, 0, 66, 0
2, 46320, Note_on_c, 0, 64, 82
2, 46335, Note_on_c, 0, 64, 0
2, 46336, Note_on_c, 0, 78, 80
2, 46351, Note_on_c, 0, 78, 0
2, 46352, Note_on_c, 0, 76, 80
2, 46367, Note_on_c, 0, 76, 0
2, 46368, Note_on_c, 0, 74, 81
2, 46383, Note_on_c, 0, 74, 0
2, 46384, Note_on_c, 0, 73, 81
2, 46399, Note_on_c, 0, 73, 0
2, 46400, Note_on_c, 0, 71, 82
2, 46415, Note_on_c, 0, 71, 0
2, 46416, Note_on_c, 0, 69, 82
2, 46431, Note_on_c, 0, 69, 0
2, 46432, Note_on_c, 0, 67, 83
2, 46447, Note_on_c, 0, 67, 0
2, 46448, Note_on_c, 0, 66, 83
2, 46463, Note_on_c, 0, 66, 0
2, 46464, Note_on_c, 0, 67, 86
2, 46472, Note_on_c, 0, 67, 0
2, 46472, Note_on_c, 0, 66, 85
2, 46480, Note_on_c, 0, 66, 0
2, 46480, Note_on_c, 0, 67, 84
2, 46488, Note_on_c, 0, 67, 0
2, 46488, Note_on_c, 0, 66, 84
2, 46496, Note_on_c, 0, 66, 0
2, 46496, Note_on_c, 0, 67, 83
2, 46504, Note_on_c, 0, 67, 0
2, 46504, Note_on_c, 0, 66, 83
2, 46512, Note_on_c, 0, 66, 0
2, 46512, Note_on_c, 0, 64, 82
2, 46527, Note_on_c, 0, 64, 0
2, 46528, Note_on_c, 0, 78, 80
2, 46543, Note_on_c, 0, 78, 0
2, 46544, Note_on_c, 0, 76, 80
2, 46559, Note_on_c, 0, 76, 0
2, 46560, Note_on_c, 0, 74, 81
2, 46575, Note_on_c, 0, 74, 0
2, 46576, Note_on_c, 0, 73, 81
2, 46591, Note_on_c, 0, 73, 0
2, 46592, Note_on_c, 0, 71, 82
2, 46607, Note_on_c, 0, 71, 0
2, 46608, Note_on_c, 0, 69, 82
2, 46623, Note_on_c, 0, 69, 0
2, 46624, Note_on_c, 0, 67, 83
2, 46639, Note_on_c, 0, 67, 0
2, 46640, Note_on_c, 0, 66, 83
2, 46655, Note_on_c, 0, 66, 0
2, 46656, Note_on_c, 0, 66, 86
2, 46665, Note_on_c, 0, 66, 0
2, 46665, Note_on_c, 0, 67, 85
2, 46674, Note_on_c, 0, 67, 0
2, 46674, Note_on_c, 0, 66, 84
2, 46683, Note_on_c, 0, 66, 0
2, 46683, Note_on_c, 0, 67, 84
2, 46692, Note_on_c, 0, 67, 0
2, 46692, Note_on_c, 0, 66, 83
2, 46701, Note_on_c, 0, 66, 0
2, 46701, Note_on_c, 0, 67, 83
2, 46710, Note_on_c, 0, 67, 0
2, 46710, Note_on_c, 0, 66, 82
2, 46719, Note_on_c, 0, 66, 0
2, 46719, Note_on_c, 0, 64, 82
2, 46736, Note_on_c, 0, 64, 0
2, 46736, Note_on_c, 0, 66, 80
2, 46752, Note_on_c, 0, 66, 0
2, 46752, Note_on_c, 0, 64, 79
2, 46841, Note_on_c, 0, 64, 0
2, 46980, Note_on_c, 0, 57, 64
2, 46992, Note_on_c, 0, 57, 0
2, 46992, Note_on_c, 0, 62, 64
2, 47026, Note_on_c, 0, 62, 0
2, 47028, Note_on_c, 0, 66, 65
2, 47040, Note_on_c, 0, 66, 0
2, 47040, Note_on_c, 0, 66, 66
2, 47074, Note_on_c, 0, 66, 0
2, 47076, Note_on_c, 0, 59, 67
2, 47088, Note_on_c, 0, 59, 0
2, 47088, Note_on_c, 0, 64, 68
2, 47122, Note_on_c, 0, 64, 0
2, 47124, Note_on_c, 0, 67, 69
2, 47136, Note_on_c, 0, 67, 0
2, 47136, Note_on_c, 0, 67, 69
2, 47170, Note_on_c, 0, 67, 0
2, 47172, Note_on_c, 0, 61, 71
2, 47184, Note_on_c, 0, 61, 0
2, 47184, Note_on_c, 0, 66, 71
2, 47218, Note_on_c, 0, 66, 0
2, 47220, Note_on_c, 0, 69, 72
2, 47232, Note_on_c, 0, 69, 0
2, 47232, Note_on_c, 0, 69, 73
2, 47266, Note_on_c, 0, 69, 0
2, 47268, Note_on_c, 0, 62, 74
2, 47280, Note_on_c, 0, 62, 0
2, 47280, Note_on_c, 0, 67, 74
2, 47314, Note_on_c, 0, 67, 0
2, 47316, Note_on_c, 0, 71, 76
2, 47328, Note_on_c, 0, 71, 0
2, 47328, Note_on_c, 0, 71, 76
2, 47351, Note_on_c, 0, 71, 0
2, 47352, Note_on_c, 0, 69, 77
2, 47364, Note_on_c, 0, 69, 0
2, 47364, Note_on_c, 0, 67, 77
2, 47376, Note_on_c, 0, 67, 0
2, 47376, Note_on_c, 0, 66, 78
2, 47399, Note_on_c, 0, 66, 0
2, 47400, Note_on_c, 0, 67, 79
2, 47423, Note_on_c, 0, 67, 0
2, 47424, Note_on_c, 0, 66, 80
2, 47458, Note_on_c, 0, 66, 0
2, 47460, Note_on_c, 0, 74, 80
2, 47460, Note_on_c, 0, 66, 80
2, 47472, Note_on_c, 0, 74, 0
2, 47472, Note_on_c, 0, 66, 0
2, 47472, Note_on_c, 0, 74, 80
2, 47472, Note_on_c, 0, 66, 80
2, 47506, Note_on_c, 0, 74, 0
2, 47506, Note_on_c, 0, 66, 0
2, 47508, Note_on_c, 0, 74, 80
2, 47508, Note_on_c, 0, 66, 80
2, 47520, Note_on_c, 0, 74, 0
2, 47520, Note_on_c, 0, 66, 0
2, 47520, Note_on_c, 0, 74, 80
2, 47520, Note_on_c, 0, 66, 80
2, 47554, Note_on_c, 0, 74, 0
2, 47554, Note_on_c, 0, 66, 0
2, 47556, Note_on_c, 0, 78, 80
2, 47556, Note_on_c, 0, 74, 80
2, 47568, Note_on_c, 0, 78, 0
2, 47568, Note_on_c, 0, 74, 0
2, 47568, Note_on_c, 0, 78, 80
2, 47568, Note_on_c, 0, 74, 80
2, 47602, Note_on_c, 0, 78, 0
2, 47602, Note_on_c, 0, 74, 0
2, 47604, Note_on_c, 0, 78, 80
2, 47604, Note_on_c, 0, 74, 80
2, 47616, Note_on_c, 0, 78, 0
2, 47616, Note_on_c, 0, 74, 0
2, 47616, Note_on_c, 0, 78, 80
2, 47616, Note_on_c, 0, 74, 80
2, 47650, Note_on_c, 0, 78, 0
2, 47650, Note_on_c, 0, 74, 0
2, 47652, Note_on_c, 0, 86, 80
2, 47652, Note_on_c, 0, 78, 80
2, 47664, Note_on_c, 0, 86, 0
2, 47664, Note_on_c, 0, 78, 0
2, 47664, Note_on_c, 0, 86, 80
2, 47664, Note_on_c, 0, 78, 80
2, 47698, Note_on_c, 0, 86, 0
2, 47698, Note_on_c, 0, 78, 0
2, 47700, Note_on_c, 0, 86, 80
2, 47700, Note_on_c, 0, 78, 80
2, 47712, Note_on_c, 0, 86, 0
2, 47712, Note_on_c, 0, 78, 0
2, 47712, Note_on_c, 0, 86, 80
2, 47712, Note_on_c, 0, 78, 80
2, 47757, Note_on_c, 0, 86, 0
2, 47757, Note_on_c, 0, 78, 0
2, 47844, Note_on_c, 0, 83, 80
2, 47844, Note_on_c, 0, 79, 80
2, 47856, Note_on_c, 0, 83, 0
2, 47856, Note_on_c, 0, 79, 0
2, 47856, Note_on_c, 0, 81, 80
2, 47856, Note_on_c, 0, 78, 80
2, 47890, Note_on_c, 0, 81, 0
2, 47890, Note_on_c, 0, 78, 0
2, 47892, Note_on_c, 0, 79, 80
2, 47892, Note_on_c, 0, 76, 80
2, 47904, Note_on_c, 0, 79, 0
2, 47904, Note_on_c, 0, 76, 0
2, 47904, Note_on_c, 0, 78, 80
2, 47904, Note_on_c, 0, 74, 80
2, 47949, Note_on_c, 0, 78, 0
2, 47949, Note_on_c, 0, 74, 0
2, 47952, Note_on_c, 0, 76, 80
2, 47952, Note_on_c, 0, 73, 80
2, 47997, Note_on_c, 0, 76, 0
2, 47997, Note_on_c, 0, 73, 0
2, 48016, Note_on_c, 0, 74, 75
2, 48031, Note_on_c, 0, 74, 0
2, 48032, Note_on_c, 0, 76, 75
2, 48047, Note_on_c, 0, 76, 0
2, 48048, Note_on_c, 0, 78, 75
2, 48063, Note_on_c, 0, 78, 0
2, 48064, Note_on_c, 0, 79, 75
2, 48079, Note_on_c, 0, 79, 0
2, 48080, Note_on_c, 0, 81, 75
2, 48095, Note_on_c, 0, 81, 0
2, 48096, Note_on_c, 0, 79, 75
2, 48096, Note_on_c, 0, 76, 75
2, 48185, Note_on_c, 0, 79, 0
2, 48185, Note_on_c, 0, 76, 0
2, 48208, Note_on_c, 0, 74, 75
2, 48223, Note_on_c, 0, 74, 0
2, 48224, Note_on_c, 0, 76, 75
2, 48239, Note_on_c, 0, 76, 0
2, 48240, Note_on_c, 0, 78, 75
2, 48255, Note_on_c, 0, 78, 0
2, 48256, Note_on_c, 0, 79, 75
2, 48271, Note_on_c, 0, 79, 0
2, 48272, Note_on_c, 0, 81, 75
2, 48287, Note_on_c, 0, 81, 0
2, 48288, Note_on_c, 0, 79, 75
2, 48288, Note_on_c, 0, 76, 75
2, 48377, Note_on_c, 0, 79, 0
2, 48377, Note_on_c, 0, 76, 0
2, 48400, Note_on_c, 0, 74, 75
2, 48415, Note_on_c, 0, 74, 0
2, 48416, Note_on_c, 0, 76, 75
2, 48431, Note_on_c, 0, 76, 0
2, 48432, Note_on_c, 0, 78, 75
2, 48447, Note_on_c, 0, 78, 0
2, 48448, Note_on_c, 0, 79, 75
2, 48463, Note_on_c, 0, 79, 0
2, 48464, Note_on_c, 0, 81, 75
2, 48479, Note_on_c, 0, 81, 0
2, 48496, Note_on_c, 0, 76, 75
2, 48511, Note_on_c, 0, 76, 0
2, 48512, Note_on_c, 0, 78, 75
2, 48527, Note_on_c, 0, 78, 0
2, 48528, Note_on_c, 0, 79, 75
2, 48543, Note_on_c, 0, 79, 0
2, 48544, Note_on_c, 0, 81, 75
2, 48559, Note_on_c, 0, 81, 0
2, 48560, Note_on_c, 0, 83, 75
2, 48575, Note_on_c, 0, 83, 0
2, 48576, Note_on_c, 0, 69, 75
2, 48665, Note_on_c, 0, 69, 0
2, 48672, Note_on_c, 0, 76, 75
2, 48681, Note_on_c, 0, 76, 0
2, 48681, Note_on_c, 0, 78, 75
2, 48690, Note_on_c, 0, 78, 0
2, 48690, Note_on_c, 0, 76, 75
2, 48699, Note_on_c, 0, 76, 0
2, 48699, Note_on_c, 0, 78, 75
2, 48708, Note_on_c, 0, 78, 0
2, 48708, Note_on_c, 0, 76, 75
2, 48717, Note_on_c, 0, 76, 0
2, 48717, Note_on_c, 0, 78, 75
2, 48726, Note_on_c, 0, 78, 0
2, 48726, Note_on_c, 0, 76, 75
2, 48735, Note_on_c, 0, 76, 0
2, 48735, Note_on_c, 0, 78, 75
2, 48744, Note_on_c, 0, 78, 0
2, 48744, Note_on_c, 0, 76, 75
2, 48752, Note_on_c, 0, 76, 0
2, 48752, Note_on_c, 0, 74, 75
2, 48760, Note_on_c, 0, 74, 0
2, 48760, Note_on_c, 0, 76, 75
2, 48768, Note_on_c, 0, 76, 0
2, 48784, Note_on_c, 0, 74, 75
2, 48799, Note_on_c, 0, 74, 0
2, 48800, Note_on_c, 0, 76, 75
2, 48815, Note_on_c, 0, 76, 0
2, 48816, Note_on_c, 0, 78, 75
2, 48831, Note_on_c, 0, 78, 0
2, 48832, Note_on_c, 0, 79, 75
2, 48847, Note_on_c, 0, 79, 0
2, 48848, Note_on_c, 0, 81, 75
2, 48863, Note_on_c, 0, 81, 0
2, 48880, Note_on_c, 0, 76, 75
2, 48895, Note_on_c, 0, 76, 0
2, 48896, Note_on_c, 0, 78, 75
2, 48911, Note_on_c, 0, 78, 0
2, 48912, Note_on_c, 0, 79, 75
2, 48927, Note_on_c, 0, 79, 0
2, 48928, Note_on_c, 0, 81, 75
2, 48943, Note_on_c, 0, 81, 0
2, 48944, Note_on_c, 0, 83, 75
2, 48959, Note_on_c, 0, 83, 0
2, 48960, Note_on_c, 0, 69, 75
2, 49049, Note_on_c, 0, 69, 0
2, 49056, Note_on_c, 0, 76, 75
2, 49065, Note_on_c, 0, 76, 0
2, 49065, Note_on_c, 0, 78, 75
2, 49074, Note_on_c, 0, 78, 0
2, 49074, Note_on_c, 0, 76, 75
2, 49083, Note_on_c, 0, 76, 0
2, 49083, Note_on_c, 0, 78, 75
2, 49092, Note_on_c, 0, 78, 0
2, 49092, Note_on_c, 0, 76, 75
2, 49101, Note_on_c, 0, 76, 0
2, 49101, Note_on_c, 0, 78, 75
2, 49110, Note_on_c, 0, 78, 0
2, 49110, Note_on_c, 0, 76, 75
2, 49119, Note_on_c, 0, 76, 0
2, 49119, Note_on_c, 0, 78, 75
2, 49128, Note_on_c, 0, 78, 0
2, 49128, Note_on_c, 0, 76, 75
2, 49136, Note_on_c, 0, 76, 0
2, 49136, Note_on_c, 0, 74, 75
2, 49144, Note_on_c, 0, 74, 0
2, 49144, Note_on_c, 0, 76, 75
2, 49152, Note_on_c, 0, 76, 0
2, 49152, Note_on_c, 0, 74, 75
2, 49172, Note_on_c, 0, 74, 0
2, 49200, Note_on_c, 0, 69, 63
2, 49245, Note_on_c, 0, 69, 0
2, 49248, Note_on_c, 0, 70, 63
2, 49263, Note_on_c, 0, 70, 0
2, 49264, Note_on_c, 0, 69, 63
2, 49279, Note_on_c, 0, 69, 0
2, 49280, Note_on_c, 0, 70, 63
2, 49295, Note_on_c, 0, 70, 0
2, 49296, Note_on_c, 0, 74, 63
2, 49311, Note_on_c, 0, 74, 0
2, 49312, Note_on_c, 0, 72, 63
2, 49327, Note_on_c, 0, 72, 0
2, 49328, Note_on_c, 0, 70, 63
2, 49343, Note_on_c, 0, 70, 0
2, 49344, Note_on_c, 0, 68, 63
2, 49359, Note_on_c, 0, 68, 0
2, 49360, Note_on_c, 0, 69, 63
2, 49375, Note_on_c, 0, 69, 0
2, 49376, Note_on_c, 0, 71, 63
2, 49391, Note_on_c, 0, 71, 0
2, 49392, Note_on_c, 0, 69, 63
2, 49407, Note_on_c, 0, 69, 0
2, 49408, Note_on_c, 0, 71, 64
2, 49423, Note_on_c, 0, 71, 0
2, 49424, Note_on_c, 0, 72, 64
2, 49439, Note_on_c, 0, 72, 0
2, 49440, Note_on_c, 0, 66, 64
2, 49455, Note_on_c, 0, 66, 0
2, 49456, Note_on_c, 0, 67, 64
2, 49471, Note_on_c, 0, 67, 0
2, 49472, Note_on_c, 0, 69, 65
2, 49487, Note_on_c, 0, 69, 0
2, 49488, Note_on_c, 0, 67, 65
2, 49503, Note_on_c, 0, 67, 0
2, 49504, Note_on_c, 0, 69, 65
2, 49519, Note_on_c, 0, 69, 0
2, 49520, Note_on_c, 0, 70, 65
2, 49535, Note_on_c, 0, 70, 0
2, 49536, Note_on_c, 0, 64, 66
2, 49551, Note_on_c, 0, 64, 0
2, 49552, Note_on_c, 0, 65, 66
2, 49567, Note_on_c, 0, 65, 0
2, 49568, Note_on_c, 0, 67, 66
2, 49583, Note_on_c, 0, 67, 0
2, 49584, Note_on_c, 0, 65, 66
2, 49599, Note_on_c, 0, 65, 0
2, 49600, Note_on_c, 0, 67, 67
2, 49615, Note_on_c, 0, 67, 0
2, 49616, Note_on_c, 0, 69, 67
2, 49631, Note_on_c, 0, 69, 0
2, 49632, Note_on_c, 0, 62, 67
2, 49647, Note_on_c, 0, 62, 0
2, 49648, Note_on_c, 0, 64, 67
2, 49663, Note_on_c, 0, 64, 0
2, 49664, Note_on_c, 0, 65, 68
2, 49679, Note_on_c, 0, 65, 0
2, 49680, Note_on_c, 0, 64, 68
2, 49695, Note_on_c, 0, 64, 0
2, 49696, Note_on_c, 0, 65, 68
2, 49711, Note_on_c, 0, 65, 0
2, 49712, Note_on_c, 0, 67, 68
2, 49727, Note_on_c, 0, 67, 0
2, 49728, Note_on_c, 0, 61, 69
2, 49743, Note_on_c, 0, 61, 0
2, 49744, Note_on_c, 0, 62, 69
2, 49759, Note_on_c, 0, 62, 0
2, 49760, Note_on_c, 0, 64, 69
2, 49775, Note_on_c, 0, 64, 0
2, 49776, Note_on_c, 0, 62, 69
2, 49791, Note_on_c, 0, 62, 0
2, 49792, Note_on_c, 0, 64, 70
2, 49807, Note_on_c, 0, 64, 0
2, 49808, Note_on_c, 0, 65, 70
2, 49823, Note_on_c, 0, 65, 0
2, 49824, Note_on_c, 0, 64, 70
2, 49839, Note_on_c, 0, 64, 0
2, 49840, Note_on_c, 0, 65, 70
2, 49855, Note_on_c, 0, 65, 0
2, 49856, Note_on_c, 0, 67, 71
2, 49871, Note_on_c, 0, 67, 0
2, 49872, Note_on_c, 0, 65, 71
2, 49887, Note_on_c, 0, 65, 0
2, 49888, Note_on_c, 0, 67, 71
2, 49903, Note_on_c, 0, 67, 0
2, 49904, Note_on_c, 0, 69, 71
2, 49919, Note_on_c, 0, 69, 0
2, 49920, Note_on_c, 0, 67, 75
2, 49928, Note_on_c, 0, 67, 0
2, 49928, Note_on_c, 0, 65, 75
2, 49936, Note_on_c, 0, 65, 0
2, 49936, Note_on_c, 0, 67, 75
2, 49944, Note_on_c, 0, 67, 0
2, 49944, Note_on_c, 0, 65, 75
2, 49952, Note_on_c, 0, 65, 0
2, 49952, Note_on_c, 0, 67, 75
2, 49960, Note_on_c, 0, 67, 0
2, 49960, Note_on_c, 0, 65, 75
2, 49968, Note_on_c, 0, 65, 0
2, 49968, Note_on_c, 0, 64, 75
2, 49991, Note_on_c, 0, 64, 0
2, 50004, Note_on_c, 0, 67, 80
2, 50004, Note_on_c, 0, 64, 80
2, 50016, Note_on_c, 0, 67, 0
2, 50016, Note_on_c, 0, 64, 0
2, 50016, Note_on_c, 0, 67, 80
2, 50016, Note_on_c, 0, 64, 80
2, 50094, Note_on_c, 0, 67, 0
2, 50094, Note_on_c, 0, 64, 0
2, 50100, Note_on_c, 0, 73, 80
2, 50100, Note_on_c, 0, 67, 80
2, 50112, Note_on_c, 0, 73, 0
2, 50112, Note_on_c, 0, 67, 0
2, 50112, Note_on_c, 0, 73, 80
2, 50112, Note_on_c, 0, 67, 80
2, 50190, Note_on_c, 0, 73, 0
2, 50190, Note_on_c, 0, 67, 0
2, 50196, Note_on_c, 0, 76, 80
2, 50196, Note_on_c, 0, 73, 80
2, 50208, Note_on_c, 0, 76, 0
2, 50208, Note_on_c, 0, 73, 0
2, 50208, Note_on_c, 0, 76, 80
2, 50208, Note_on_c, 0, 73, 80
2, 50275, Note_on_c, 0, 76, 0
2, 50275, Note_on_c, 0, 73, 0
2, 50280, Note_on_c, 0, 76, 80
2, 50292, Note_on_c, 0, 76, 0
2, 50292, Note_on_c, 0, 79, 80
2, 50304, Note_on_c, 0, 79, 0
2, 50304, Note_on_c, 0, 78, 80
2, 50319, Note_on_c, 0, 78, 0
2, 50320, Note_on_c, 0, 81, 80
2, 50335, Note_on_c, 0, 81, 0
2, 50336, Note_on_c, 0, 79, 80
2, 50351, Note_on_c, 0, 79, 0
2, 50352, Note_on_c, 0, 78, 80
2, 50367, Note_on_c, 0, 78, 0
2, 50368, Note_on_c, 0, 76, 80
2, 50383, Note_on_c, 0, 76, 0
2, 50384, Note_on_c, 0, 74, 80
2, 50399, Note_on_c, 0, 74, 0
2, 50400, Note_on_c, 0, 73, 80
2, 50415, Note_on_c, 0, 73, 0
2, 50416, Note_on_c, 0, 71, 80
2, 50431, Note_on_c, 0, 71, 0
2, 50432, Note_on_c, 0, 69, 80
2, 50447, Note_on_c, 0, 69, 0
2, 50448, Note_on_c, 0, 67, 80
2, 50463, Note_on_c, 0, 67, 0
2, 50464, Note_on_c, 0, 66, 80
2, 50479, Note_on_c, 0, 66, 0
2, 50480, Note_on_c, 0, 64, 80
2, 50495, Note_on_c, 0, 64, 0
2, 50496, Note_on_c, 0, 62, 80
2, 50563, Note_on_c, 0, 62, 0
2, 50568, Note_on_c, 0, 64, 80
2, 50591, Note_on_c, 0, 64, 0
2, 50592, Note_on_c, 0, 64, 76
2, 50601, Note_on_c, 0, 64, 0
2, 50601, Note_on_c, 0, 66, 75
2, 50610, Note_on_c, 0, 66, 0
2, 50610, Note_on_c, 0, 64, 74
2, 50619, Note_on_c, 0, 64, 0
2, 50619, Note_on_c, 0, 66, 73
2, 50628, Note_on_c, 0, 66, 0
2, 50628, Note_on_c, 0, 64, 72
2, 50637, Note_on_c, 0, 64, 0
2, 50637, Note_on_c, 0, 66, 71
2, 50646, Note_on_c, 0, 66, 0
2, 50646, Note_on_c, 0, 64, 70
2, 50655, Note_on_c, 0, 64, 0
2, 50655, Note_on_c, 0, 66, 69
2, 50664, Note_on_c, 0, 66, 0
2, 50664, Note_on_c, 0, 64, 68
2, 50672, Note_on_c, 0, 64, 0
2, 50672, Note_on_c, 0, 62, 67
2, 50680, Note_on_c, 0, 62, 0
2, 50680, Note_on_c, 0, 64, 63
2, 50688, Note_on_c, 0, 64, 0
2, 50688, Note_on_c, 0, 78, 75
2, 50703, Note_on_c, 0, 78, 0
2, 50704, Note_on_c, 0, 81, 75
2, 50719, Note_on_c, 0, 81, 0
2, 50720, Note_on_c, 0, 79, 75
2, 50735, Note_on_c, 0, 79, 0
2, 50736, Note_on_c, 0, 78, 75
2, 50751, Note_on_c, 0, 78, 0
2, 50752, Note_on_c, 0, 76, 75
2, 50767, Note_on_c, 0, 76, 0
2, 50768, Note_on_c, 0, 74, 75
2, 50783, Note_on_c, 0, 74, 0
2, 50784, Note_on_c, 0, 73, 75
2, 50799, Note_on_c, 0, 73, 0
2, 50800, Note_on_c, 0, 71, 75
2, 50815, Note_on_c, 0, 71, 0
2, 50816, Note_on_c, 0, 69, 75
2, 50831, Note_on_c, 0, 69, 0
2, 50832, Note_on_c, 0, 67, 75
2, 50847, Note_on_c, 0, 67, 0
2, 50848, Note_on_c, 0, 66, 75
2, 50863, Note_on_c, 0, 66, 0
2, 50864, Note_on_c, 0, 64, 75
2, 50879, Note_on_c, 0, 64, 0
2, 50880, Note_on_c, 0, 62, 80
2, 50947, Note_on_c, 0, 62, 0
2, 50952, Note_on_c, 0, 64, 73
2, 50975, Note_on_c, 0, 64, 0
2, 50976, Note_on_c, 0, 64, 71
2, 50985, Note_on_c, 0, 64, 0
2, 50985, Note_on_c, 0, 66, 70
2, 50994, Note_on_c, 0, 66, 0
2, 50994, Note_on_c, 0, 64, 70
2, 51003, Note_on_c, 0, 64, 0
2, 51003, Note_on_c, 0, 66, 69
2, 51012, Note_on_c, 0, 66, 0
2, 51012, Note_on_c, 0, 64, 69
2, 51021, Note_on_c, 0, 64, 0
2, 51021, Note_on_c, 0, 66, 68
2, 51030, Note_on_c, 0, 66, 0
2, 51030, Note_on_c, 0, 64, 68
2, 51039, Note_on_c, 0, 64, 0
2, 51039, Note_on_c, 0, 66, 67
2, 51048, Note_on_c, 0, 66, 0
2, 51048, Note_on_c, 0, 64, 67
2, 51056, Note_on_c, 0, 64, 0
2, 51056, Note_on_c, 0, 62, 66
2, 51064, Note_on_c, 0, 62, 0
2, 51064, Note_on_c, 0, 64, 66
2, 51072, Note_on_c, 0, 64, 0
2, 51072, Note_on_c, 0, 62, 63
2, 51161, Note_on_c, 0, 62, 0
2, 51264, End_track
3, 0, Start_track
3, 0, Program_c, 0, 0
3, 0, Control_c, 0, 7, 127
3, 0, Control_c, 0, 10, 64
3, 2304, Note_on_c, 0, 62, 75
3, 2349, Note_on_c, 0, 62, 0
3, 2352, Note_on_c, 0, 61, 70
3, 2419, Note_on_c, 0, 61, 0
3, 13632, Note_on_c, 0, 62, 75
3, 13677, Note_on_c, 0, 62, 0
3, 13680, Note_on_c, 0, 61, 70
3, 13747, Note_on_c, 0, 61, 0
3, 26304, Note_on_c, 0, 74, 63
3, 26349, Note_on_c, 0, 74, 0
3, 26352, Note_on_c, 0, 73, 63
3, 26386, Note_on_c, 0, 73, 0
3, 28608, Note_on_c, 0, 62, 75
3, 28653, Note_on_c, 0, 62, 0
3, 28656, Note_on_c, 0, 61, 70
3, 28723, Note_on_c, 0, 61, 0
3, 40512, Note_on_c, 0, 74, 63
3, 40557, Note_on_c, 0, 74, 0
3, 40560, Note_on_c, 0, 73, 63
3, 40594, Note_on_c, 0, 73, 0
3, 42816, Note_on_c, 0, 62, 75
3, 42861, Note_on_c, 0, 62, 0
3, 42864, Note_on_c, 0, 61, 70
3, 42931, Note_on_c, 0, 61, 0
3, 51264, End_track
4, 0, Start_track
4, 0, Program_c, 1, 0
4, 0, Control_c, 1, 7, 127
4, 0, Control_c, 1, 10, 64
4, 240, Note_on_c, 1, 50, 75
4, 240, Note_on_c, 1, 38, 75
4, 285, Note_on_c, 1, 50, 0
4, 285, Note_on_c, 1, 38, 0
4, 336, Note_on_c, 1, 50, 75
4, 336, Note_on_c, 1, 38, 75
4, 381, Note_on_c, 1, 50, 0
4, 381, Note_on_c, 1, 38, 0
4, 432, Note_on_c, 1, 50, 75
4, 432, Note_on_c, 1, 38, 75
4, 477, Note_on_c, 1, 50, 0
4, 477, Note_on_c, 1, 38, 0
4, 480, Note_on_c, 1, 50, 75
4, 480, Note_on_c, 1, 38, 75
4, 525, Note_on_c, 1, 50, 0
4, 525, Note_on_c, 1, 38, 0
4, 528, Note_on_c, 1, 50, 75
4, 528, Note_on_c, 1, 38, 75
4, 573, Note_on_c, 1, 50, 0
4, 573, Note_on_c, 1, 38, 0
4, 624, Note_on_c, 1, 55, 75
4, 669, Note_on_c, 1, 55, 0
4, 672, Note_on_c, 1, 55, 75
4, 717, Note_on_c, 1, 55, 0
4, 720, Note_on_c, 1, 52, 75
4, 765, Note_on_c, 1, 52, 0
4, 768, Note_on_c, 1, 57, 75
4, 813, Note_on_c, 1, 57, 0
4, 816, Note_on_c, 1, 45, 71
4, 861, Note_on_c, 1, 45, 0
4, 864, Note_on_c, 1, 50, 68
4, 931, Note_on_c, 1, 50, 0
4, 1008, Note_on_c, 1, 50, 75
4, 1008, Note_on_c, 1, 38, 75
4, 1053, Note_on_c, 1, 50, 0
4, 1053, Note_on_c, 1, 38, 0
4, 1104, Note_on_c, 1, 50, 75
4, 1104, Note_on_c, 1, 38, 75
4, 1149, Note_on_c, 1, 50, 0
4, 1149, Note_on_c, 1, 38, 0
4, 1200, Note_on_c, 1, 50, 75
4, 1200, Note_on_c, 1, 38, 75
4, 1245, Note_on_c, 1, 50, 0
4, 1245, Note_on_c, 1, 38, 0
4, 1248, Note_on_c, 1, 50, 75
4, 1248, Note_on_c, 1, 38, 75
4, 1293, Note_on_c, 1, 50, 0
4, 1293, Note_on_c, 1, 38, 0
4, 1296, Note_on_c, 1, 50, 75
4, 1296, Note_on_c, 1, 38, 75
4, 1341, Note_on_c, 1, 50, 0
4, 1341, Note_on_c, 1, 38, 0
4, 1392, Note_on_c, 1, 62, 63
4, 1439, Note_on_c, 1, 62, 0
4, 1440, Note_on_c, 1, 62, 63
4, 1487, Note_on_c, 1, 62, 0
4, 1488, Note_on_c, 1, 62, 63
4, 1535, Note_on_c, 1, 62, 0
4, 1584, Note_on_c, 1, 62, 63
4, 1631, Note_on_c, 1, 62, 0
4, 1632, Note_on_c, 1, 62, 63
4, 1679, Note_on_c, 1, 62, 0
4, 1680, Note_on_c, 1, 62, 63
4, 1727, Note_on_c, 1, 62, 0
4, 1728, Note_on_c, 1, 52, 75
4, 1773, Note_on_c, 1, 52, 0
4, 1776, Note_on_c, 1, 49, 75
4, 1821, Note_on_c, 1, 49, 0
4, 1824, Note_on_c, 1, 50, 75
4, 1869, Note_on_c, 1, 50, 0
4, 1872, Note_on_c, 1, 38, 75
4, 1917, Note_on_c, 1, 38, 0
4, 1920, Note_on_c, 1, 52, 68
4, 1965, Note_on_c, 1, 52, 0
4, 1968, Note_on_c, 1, 49, 68
4, 2013, Note_on_c, 1, 49, 0
4, 2016, Note_on_c, 1, 50, 68
4, 2061, Note_on_c, 1, 50, 0
4, 2064, Note_on_c, 1, 38, 68
4, 2109, Note_on_c, 1, 38, 0
4, 2112, Note_on_c, 1, 52, 75
4, 2157, Note_on_c, 1, 52, 0
4, 2160, Note_on_c, 1, 49, 76
4, 2205, Note_on_c, 1, 49, 0
4, 2208, Note_on_c, 1, 50, 77
4, 2253, Note_on_c, 1, 50, 0
4, 2256, Note_on_c, 1, 44, 78
4, 2301, Note_on_c, 1, 44, 0
4, 2304, Note_on_c, 1, 45, 80
4, 2393, Note_on_c, 1, 45, 0
4, 2544, Note_on_c, 1, 57, 75
4, 2544, Note_on_c, 1, 45, 75
4, 2589, Note_on_c, 1, 57, 0
4, 2589, Note_on_c, 1, 45, 0
4, 2640, Note_on_c, 1, 57, 75
4, 2640, Note_on_c, 1, 45, 75
4, 2685, Note_on_c, 1, 57, 0
4, 2685, Note_on_c, 1, 45, 0
4, 2736, Note_on_c, 1, 57, 75
4, 2736, Note_on_c, 1, 45, 75
4, 2781, Note_on_c, 1, 57, 0
4, 2781, Note_on_c, 1, 45, 0
4, 2784, Note_on_c, 1, 57, 75
4, 2784, Note_on_c, 1, 45, 75
4, 2829, Note_on_c, 1, 57, 0
4, 2829, Note_on_c, 1, 45, 0
4, 2832, Note_on_c, 1, 57, 75
4, 2832, Note_on_c, 1, 45, 75
4, 2877, Note_on_c, 1, 57, 0
4, 2877, Note_on_c, 1, 45, 0
4, 2928, Note_on_c, 1, 66, 63
4, 2975, Note_on_c, 1, 66, 0
4, 2976, Note_on_c, 1, 66, 63
4, 3023, Note_on_c, 1, 66, 0
4, 3120, Note_on_c, 1, 64, 63
4, 3167, Note_on_c, 1, 64, 0
4, 3168, Note_on_c, 1, 64, 63
4, 3215, Note_on_c, 1, 64, 0
4, 3264, Note_on_c, 1, 54, 75
4, 3264, Note_on_c, 1, 50, 75
4, 3309, Note_on_c, 1, 54, 0
4, 3309, Note_on_c, 1, 50, 0
4, 3312, Note_on_c, 1, 54, 77
4, 3312, Note_on_c, 1, 50, 77
4, 3357, Note_on_c, 1, 54, 0
4, 3357, Note_on_c, 1, 50, 0
4, 3360, Note_on_c, 1, 54, 80
4, 3360, Note_on_c, 1, 51, 80
4, 3405, Note_on_c, 1, 54, 0
4, 3405, Note_on_c, 1, 51, 0
4, 3408, Note_on_c, 1, 54, 80
4, 3408, Note_on_c, 1, 51, 80
4, 3453, Note_on_c, 1, 54, 0
4, 3453, Note_on_c, 1, 51, 0
4, 3456, Note_on_c, 1, 52, 80
4, 3501, Note_on_c, 1, 52, 0
4, 3504, Note_on_c, 1, 47, 78
4, 3549, Note_on_c, 1, 47, 0
4, 3552, Note_on_c, 1, 40, 76
4, 3597, Note_on_c, 1, 40, 0
4, 3648, Note_on_c, 1, 64, 68
4, 3648, Note_on_c, 1, 61, 68
4, 3648, Note_on_c, 1, 57, 68
4, 3693, Note_on_c, 1, 64, 0
4, 3693, Note_on_c, 1, 61, 0
4, 3693, Note_on_c, 1, 57, 0
4, 3696, Note_on_c, 1, 64, 68
4, 3696, Note_on_c, 1, 61, 68
4, 3696, Note_on_c, 1, 57, 68
4, 3716, Note_on_c, 1, 64, 0
4, 3716, Note_on_c, 1, 61, 0
4, 3716, Note_on_c, 1, 57, 0
4, 3744, Note_on_c, 1, 64, 68
4, 3744, Note_on_c, 1, 61, 68
4, 3744, Note_on_c, 1, 57, 68
4, 3789, Note_on_c, 1, 64, 0
4, 3789, Note_on_c, 1, 61, 0
4, 3789, Note_on_c, 1, 57, 0
4, 3792, Note_on_c, 1, 64, 68
4, 3792, Note_on_c, 1, 61, 68
4, 3792, Note_on_c, 1, 57, 68
4, 3812, Note_on_c, 1, 64, 0
4, 3812, Note_on_c, 1, 61, 0
4, 3812, Note_on_c, 1, 57, 0
4, 3840, Note_on_c, 1, 64, 68
4, 3840, Note_on_c, 1, 62, 68
4, 3840, Note_on_c, 1, 56, 68
4, 4017, Note_on_c, 1, 64, 0
4, 4017, Note_on_c, 1, 62, 0
4, 4017, Note_on_c, 1, 56, 0
4, 4032, Note_on_c, 1, 64, 68
4, 4032, Note_on_c, 1, 61, 68
4, 4032, Note_on_c, 1, 57, 68
4, 4077, Note_on_c, 1, 64, 0
4, 4077, Note_on_c, 1, 61, 0
4, 4077, Note_on_c, 1, 57, 0
4, 4080, Note_on_c, 1, 64, 68
4, 4080, Note_on_c, 1, 61, 68
4, 4080, Note_on_c, 1, 57, 68
4, 4100, Note_on_c, 1, 64, 0
4, 4100, Note_on_c, 1, 61, 0
4, 4100, Note_on_c, 1, 57, 0
4, 4128, Note_on_c, 1, 64, 68
4, 4128, Note_on_c, 1, 61, 68
4, 4128, Note_on_c, 1, 57, 68
4, 4173, Note_on_c, 1, 64, 0
4, 4173, Note_on_c, 1, 61, 0
4, 4173, Note_on_c, 1, 57, 0
4, 4176, Note_on_c, 1, 64, 68
4, 4176, Note_on_c, 1, 61, 68
4, 4176, Note_on_c, 1, 57, 68
4, 4196, Note_on_c, 1, 64, 0
4, 4196, Note_on_c, 1, 61, 0
4, 4196, Note_on_c, 1, 57, 0
4, 4224, Note_on_c, 1, 64, 68
4, 4224, Note_on_c, 1, 62, 68
4, 4224, Note_on_c, 1, 56, 68
4, 4401, Note_on_c, 1, 64, 0
4, 4401, Note_on_c, 1, 62, 0
4, 4401, Note_on_c, 1, 56, 0
4, 4416, Note_on_c, 1, 64, 63
4, 4416, Note_on_c, 1, 61, 63
4, 4416, Note_on_c, 1, 57, 63
4, 4505, Note_on_c, 1, 64, 0
4, 4505, Note_on_c, 1, 61, 0
4, 4505, Note_on_c, 1, 57, 0
4, 4608, Note_on_c, 1, 49, 75
4, 4608, Note_on_c, 1, 37, 75
4, 4697, Note_on_c, 1, 49, 0
4, 4697, Note_on_c, 1, 37, 0
4, 4704, Note_on_c, 1, 50, 75
4, 4704, Note_on_c, 1, 38, 75
4, 4793, Note_on_c, 1, 50, 0
4, 4793, Note_on_c, 1, 38, 0
4, 4800, Note_on_c, 1, 52, 76
4, 4800, Note_on_c, 1, 40, 76
4, 4889, Note_on_c, 1, 52, 0
4, 4889, Note_on_c, 1, 40, 0
4, 4896, Note_on_c, 1, 54, 77
4, 4896, Note_on_c, 1, 42, 77
4, 4985, Note_on_c, 1, 54, 0
4, 4985, Note_on_c, 1, 42, 0
4, 4992, Note_on_c, 1, 56, 78
4, 4992, Note_on_c, 1, 44, 78
4, 5081, Note_on_c, 1, 56, 0
4, 5081, Note_on_c, 1, 44, 0
4, 5088, Note_on_c, 1, 57, 79
4, 5088, Note_on_c, 1, 45, 79
4, 5177, Note_on_c, 1, 57, 0
4, 5177, Note_on_c, 1, 45, 0
4, 5184, Note_on_c, 1, 56, 80
4, 5184, Note_on_c, 1, 44, 80
4, 5273, Note_on_c, 1, 56, 0
4, 5273, Note_on_c, 1, 44, 0
4, 5280, Note_on_c, 1, 57, 80
4, 5280, Note_on_c, 1, 45, 80
4, 5369, Note_on_c, 1, 57, 0
4, 5369, Note_on_c, 1, 45, 0
4, 5424, Note_on_c, 1, 69, 56
4, 5424, Note_on_c, 1, 62, 56
4, 5471, Note_on_c, 1, 69, 0
4, 5471, Note_on_c, 1, 62, 0
4, 5472, Note_on_c, 1, 69, 56
4, 5472, Note_on_c, 1, 62, 56
4, 5519, Note_on_c, 1, 69, 0
4, 5519, Note_on_c, 1, 62, 0
4, 5520, Note_on_c, 1, 69, 56
4, 5520, Note_on_c, 1, 62, 56
4, 5567, Note_on_c, 1, 69, 0
4, 5567, Note_on_c, 1, 62, 0
4, 5616, Note_on_c, 1, 68, 56
4, 5616, Note_on_c, 1, 59, 56
4, 5663, Note_on_c, 1, 68, 0
4, 5663, Note_on_c, 1, 59, 0
4, 5664, Note_on_c, 1, 68, 57
4, 5664, Note_on_c, 1, 59, 57
4, 5711, Note_on_c, 1, 68, 0
4, 5711, Note_on_c, 1, 59, 0
4, 5712, Note_on_c, 1, 68, 57
4, 5712, Note_on_c, 1, 59, 57
4, 5759, Note_on_c, 1, 68, 0
4, 5759, Note_on_c, 1, 59, 0
4, 5808, Note_on_c, 1, 68, 58
4, 5808, Note_on_c, 1, 61, 58
4, 5855, Note_on_c, 1, 68, 0
4, 5855, Note_on_c, 1, 61, 0
4, 5856, Note_on_c, 1, 68, 59
4, 5856, Note_on_c, 1, 61, 59
4, 5903, Note_on_c, 1, 68, 0
4, 5903, Note_on_c, 1, 61, 0
4, 5904, Note_on_c, 1, 68, 59
4, 5904, Note_on_c, 1, 61, 59
4, 5951, Note_on_c, 1, 68, 0
4, 5951, Note_on_c, 1, 61, 0
4, 6000, Note_on_c, 1, 66, 60
4, 6000, Note_on_c, 1, 57, 60
4, 6047, Note_on_c, 1, 66, 0
4, 6047, Note_on_c, 1, 57, 0
4, 6048, Note_on_c, 1, 66, 61
4, 6048, Note_on_c, 1, 57, 61
4, 6095, Note_on_c, 1, 66, 0
4, 6095, Note_on_c, 1, 57, 0
4, 6096, Note_on_c, 1, 66, 61
4, 6096, Note_on_c, 1, 57, 61
4, 6143, Note_on_c, 1, 66, 0
4, 6143, Note_on_c, 1, 57, 0
4, 6192, Note_on_c, 1, 66, 62
4, 6192, Note_on_c, 1, 59, 62
4, 6239, Note_on_c, 1, 66, 0
4, 6239, Note_on_c, 1, 59, 0
4, 6240, Note_on_c, 1, 66, 63
4, 6240, Note_on_c, 1, 59, 63
4, 6287, Note_on_c, 1, 66, 0
4, 6287, Note_on_c, 1, 59, 0
4, 6288, Note_on_c, 1, 66, 63
4, 6288, Note_on_c, 1, 59, 63
4, 6335, Note_on_c, 1, 66, 0
4, 6335, Note_on_c, 1, 59, 0
4, 6384, Note_on_c, 1, 64, 64
4, 6384, Note_on_c, 1, 56, 64
4, 6431, Note_on_c, 1, 64, 0
4, 6431, Note_on_c, 1, 56, 0
4, 6432, Note_on_c, 1, 64, 65
4, 6432, Note_on_c, 1, 56, 65
4, 6479, Note_on_c, 1, 64, 0
4, 6479, Note_on_c, 1, 56, 0
4, 6480, Note_on_c, 1, 64, 65
4, 6480, Note_on_c, 1, 56, 65
4, 6527, Note_on_c, 1, 64, 0
4, 6527, Note_on_c, 1, 56, 0
4, 6576, Note_on_c, 1, 64, 66
4, 6576, Note_on_c, 1, 57, 66
4, 6623, Note_on_c, 1, 64, 0
4, 6623, Note_on_c, 1, 57, 0
4, 6624, Note_on_c, 1, 64, 67
4, 6624, Note_on_c, 1, 57, 67
4, 6671, Note_on_c, 1, 64, 0
4, 6671, Note_on_c, 1, 57, 0
4, 6672, Note_on_c, 1, 64, 67
4, 6672, Note_on_c, 1, 57, 67
4, 6719, Note_on_c, 1, 64, 0
4, 6719, Note_on_c, 1, 57, 0
4, 6768, Note_on_c, 1, 57, 80
4, 6768, Note_on_c, 1, 49, 80
4, 6813, Note_on_c, 1, 57, 0
4, 6813, Note_on_c, 1, 49, 0
4, 6816, Note_on_c, 1, 57, 82
4, 6816, Note_on_c, 1, 49, 82
4, 6861, Note_on_c, 1, 57, 0
4, 6861, Note_on_c, 1, 49, 0
4, 6864, Note_on_c, 1, 57, 84
4, 6864, Note_on_c, 1, 50, 84
4, 6909, Note_on_c, 1, 57, 0
4, 6909, Note_on_c, 1, 50, 0
4, 6912, Note_on_c, 1, 57, 86
4, 6957, Note_on_c, 1, 57, 0
4, 6960, Note_on_c, 1, 56, 83
4, 7005, Note_on_c, 1, 56, 0
4, 7008, Note_on_c, 1, 57, 80
4, 7008, Note_on_c, 1, 49, 80
4, 7053, Note_on_c, 1, 57, 0
4, 7053, Note_on_c, 1, 49, 0
4, 7056, Note_on_c, 1, 57, 83
4, 7056, Note_on_c, 1, 50, 83
4, 7101, Note_on_c, 1, 57, 0
4, 7101, Note_on_c, 1, 50, 0
4, 7104, Note_on_c, 1, 57, 86
4, 7149, Note_on_c, 1, 57, 0
4, 7152, Note_on_c, 1, 56, 83
4, 7197, Note_on_c, 1, 56, 0
4, 7200, Note_on_c, 1, 57, 80
4, 7200, Note_on_c, 1, 49, 80
4, 7245, Note_on_c, 1, 57, 0
4, 7245, Note_on_c, 1, 49, 0
4, 7248, Note_on_c, 1, 57, 83
4, 7248, Note_on_c, 1, 50, 83
4, 7293, Note_on_c, 1, 57, 0
4, 7293, Note_on_c, 1, 50, 0
4, 7296, Note_on_c, 1, 57, 86
4, 7392, Note_on_c, 1, 57, 0
4, 7392, Note_on_c, 1, 56, 63
4, 7481, Note_on_c, 1, 56, 0
4, 7584, Note_on_c, 1, 49, 63
4, 7584, Note_on_c, 1, 37, 63
4, 7673, Note_on_c, 1, 49, 0
4, 7673, Note_on_c, 1, 37, 0
4, 7680, Note_on_c, 1, 50, 66
4, 7680, Note_on_c, 1, 38, 66
4, 7769, Note_on_c, 1, 50, 0
4, 7769, Note_on_c, 1, 38, 0
4, 7776, Note_on_c, 1, 52, 69
4, 7776, Note_on_c, 1, 40, 69
4, 7865, Note_on_c, 1, 52, 0
4, 7865, Note_on_c, 1, 40, 0
4, 7872, Note_on_c, 1, 54, 73
4, 7872, Note_on_c, 1, 42, 73
4, 7961, Note_on_c, 1, 54, 0
4, 7961, Note_on_c, 1, 42, 0
4, 7968, Note_on_c, 1, 56, 76
4, 7968, Note_on_c, 1, 44, 76
4, 8057, Note_on_c, 1, 56, 0
4, 8057, Note_on_c, 1, 44, 0
4, 8064, Note_on_c, 1, 57, 80
4, 8064, Note_on_c, 1, 45, 80
4, 8109, Note_on_c, 1, 57, 0
4, 8109, Note_on_c, 1, 45, 0
4, 8256, Note_on_c, 1, 45, 80
4, 8256, Note_on_c, 1, 33, 80
4, 8301, Note_on_c, 1, 45, 0
4, 8301, Note_on_c, 1, 33, 0
4, 8388, Note_on_c, 1, 45, 80
4, 8388, Note_on_c, 1, 33, 80
4, 8400, Note_on_c, 1, 45, 0
4, 8400, Note_on_c, 1, 33, 0
4, 8400, Note_on_c, 1, 45, 80
4, 8400, Note_on_c, 1, 33, 80
4, 8434, Note_on_c, 1, 45, 0
4, 8434, Note_on_c, 1, 33, 0
4, 8436, Note_on_c, 1, 45, 80
4, 8436, Note_on_c, 1, 33, 80
4, 8448, Note_on_c, 1, 45, 0
4, 8448, Note_on_c, 1, 33, 0
4, 8448, Note_on_c, 1, 50, 80
4, 8448, Note_on_c, 1, 38, 80
4, 8537, Note_on_c, 1, 50, 0
4, 8537, Note_on_c, 1, 38, 0
4, 8544, Note_on_c, 1, 52, 80
4, 8589, Note_on_c, 1, 52, 0
4, 8592, Note_on_c, 1, 40, 80
4, 8637, Note_on_c, 1, 40, 0
4, 8640, Note_on_c, 1, 45, 80
4, 8729, Note_on_c, 1, 45, 0
4, 8752, Note_on_c, 1, 52, 75
4, 8767, Note_on_c, 1, 52, 0
4, 8768, Note_on_c, 1, 54, 75
4, 8783, Note_on_c, 1, 54, 0
4, 8784, Note_on_c, 1, 56, 75
4, 8799, Note_on_c, 1, 56, 0
4, 8800, Note_on_c, 1, 57, 75
4, 8815, Note_on_c, 1, 57, 0
4, 8816, Note_on_c, 1, 59, 75
4, 8831, Note_on_c, 1, 59, 0
4, 8832, Note_on_c, 1, 57, 75
4, 8921, Note_on_c, 1, 57, 0
4, 8944, Note_on_c, 1, 52, 75
4, 8959, Note_on_c, 1, 52, 0
4, 8960, Note_on_c, 1, 54, 75
4, 8975, Note_on_c, 1, 54, 0
4, 8976, Note_on_c, 1, 56, 75
4, 8991, Note_on_c, 1, 56, 0
4, 8992, Note_on_c, 1, 57, 75
4, 9007, Note_on_c, 1, 57, 0
4, 9008, Note_on_c, 1, 59, 75
4, 9023, Note_on_c, 1, 59, 0
4, 9024, Note_on_c, 1, 57, 75
4, 9113, Note_on_c, 1, 57, 0
4, 9120, Note_on_c, 1, 57, 75
4, 9120, Note_on_c, 1, 50, 75
4, 9209, Note_on_c, 1, 57, 0
4, 9209, Note_on_c, 1, 50, 0
4, 9264, Note_on_c, 1, 57, 75
4, 9360, Note_on_c, 1, 57, 0
4, 9360, Note_on_c, 1, 56, 75
4, 9405, Note_on_c, 1, 56, 0
4, 9408, Note_on_c, 1, 57, 75
4, 9497, Note_on_c, 1, 57, 0
4, 9504, Note_on_c, 1, 57, 75
4, 9504, Note_on_c, 1, 50, 75
4, 9593, Note_on_c, 1, 57, 0
4, 9593, Note_on_c, 1, 50, 0
4, 9648, Note_on_c, 1, 57, 75
4, 9744, Note_on_c, 1, 57, 0
4, 9744, Note_on_c, 1, 56, 75
4, 9789, Note_on_c, 1, 56, 0
4, 9792, Note_on_c, 1, 57, 75
4, 9881, Note_on_c, 1, 57, 0
4, 9936, Note_on_c, 1, 72, 56
4, 9981, Note_on_c, 1, 72, 0
4, 9984, Note_on_c, 1, 71, 56
4, 10073, Note_on_c, 1, 71, 0
4, 10080, Note_on_c, 1, 69, 58
4, 10169, Note_on_c, 1, 69, 0
4, 10176, Note_on_c, 1, 67, 60
4, 10265, Note_on_c, 1, 67, 0
4, 10272, Note_on_c, 1, 65, 62
4, 10361, Note_on_c, 1, 65, 0
4, 10368, Note_on_c, 1, 64, 64
4, 10553, Note_on_c, 1, 64, 0
4, 10560, Note_on_c, 1, 52, 68
4, 10605, Note_on_c, 1, 52, 0
4, 10608, Note_on_c, 1, 40, 68
4, 10653, Note_on_c, 1, 40, 0
4, 10704, Note_on_c, 1, 52, 80
4, 10704, Note_on_c, 1, 40, 80
4, 10749, Note_on_c, 1, 52, 0
4, 10749, Note_on_c, 1, 40, 0
4, 10800, Note_on_c, 1, 52, 80
4, 10800, Note_on_c, 1, 40, 80
4, 10845, Note_on_c, 1, 52, 0
4, 10845, Note_on_c, 1, 40, 0
4, 10896, Note_on_c, 1, 52, 80
4, 10896, Note_on_c, 1, 40, 80
4, 10941, Note_on_c, 1, 52, 0
4, 10941, Note_on_c, 1, 40, 0
4, 10944, Note_on_c, 1, 57, 80
4, 10944, Note_on_c, 1, 45, 80
4, 11033, Note_on_c, 1, 57, 0
4, 11033, Note_on_c, 1, 45, 0
4, 11328, Note_on_c, 1, 57, 80
4, 11373, Note_on_c, 1, 57, 0
4, 11376, Note_on_c, 1, 52, 80
4, 11421, Note_on_c, 1, 52, 0
4, 11424, Note_on_c, 1, 45, 80
4, 11469, Note_on_c, 1, 45, 0
4, 11568, Note_on_c, 1, 50, 75
4, 11568, Note_on_c, 1, 38, 75
4, 11613, Note_on_c, 1, 50, 0
4, 11613, Note_on_c, 1, 38, 0
4, 11664, Note_on_c, 1, 50, 75
4, 11664, Note_on_c, 1, 38, 75
4, 11709, Note_on_c, 1, 50, 0
4, 11709, Note_on_c, 1, 38, 0
4, 11760, Note_on_c, 1, 50, 75
4, 11760, Note_on_c, 1, 38, 75
4, 11805, Note_on_c, 1, 50, 0
4, 11805, Note_on_c, 1, 38, 0
4, 11808, Note_on_c, 1, 50, 75
4, 11808, Note_on_c, 1, 38, 75
4, 11853, Note_on_c, 1, 50, 0
4, 11853, Note_on_c, 1, 38, 0
4, 11856, Note_on_c, 1, 50, 75
4, 11856, Note_on_c, 1, 38, 75
4, 11901, Note_on_c, 1, 50, 0
4, 11901, Note_on_c, 1, 38, 0
4, 11952, Note_on_c, 1, 55, 75
4, 11997, Note_on_c, 1, 55, 0
4, 12000, Note_on_c, 1, 55, 75
4, 12045, Note_on_c, 1, 55, 0
4, 12048, Note_on_c, 1, 52, 75
4, 12093, Note_on_c, 1, 52, 0
4, 12096, Note_on_c, 1, 57, 75
4, 12141, Note_on_c, 1, 57, 0
4, 12144, Note_on_c, 1, 45, 71
4, 12189, Note_on_c, 1, 45, 0
4, 12192, Note_on_c, 1, 50, 68
4, 12259, Note_on_c, 1, 50, 0
4, 12336, Note_on_c, 1, 50, 75
4, 12336, Note_on_c, 1, 38, 75
4, 12381, Note_on_c, 1, 50, 0
4, 12381, Note_on_c, 1, 38, 0
4, 12432, Note_on_c, 1, 50, 75
4, 12432, Note_on_c, 1, 38, 75
4, 12477, Note_on_c, 1, 50, 0
4, 12477, Note_on_c, 1, 38, 0
4, 12528, Note_on_c, 1, 50, 75
4, 12528, Note_on_c, 1, 38, 75
4, 12573, Note_on_c, 1, 50, 0
4, 12573, Note_on_c, 1, 38, 0
4, 12576, Note_on_c, 1, 50, 75
4, 12576, Note_on_c, 1, 38, 75
4, 12621, Note_on_c, 1, 50, 0
4, 12621, Note_on_c, 1, 38, 0
4, 12624, Note_on_c, 1, 50, 75
4, 12624, Note_on_c, 1, 38, 75
4, 12669, Note_on_c, 1, 50, 0
4, 12669, Note_on_c, 1, 38, 0
4, 12720, Note_on_c, 1, 62, 63
4, 12767, Note_on_c, 1, 62, 0
4, 12768, Note_on_c, 1, 62, 63
4, 12815, Note_on_c, 1, 62, 0
4, 12816, Note_on_c, 1, 62, 63
4, 12863, Note_on_c, 1, 62, 0
4, 12912, Note_on_c, 1, 62, 63
4, 12959, Note_on_c, 1, 62, 0
4, 12960, Note_on_c, 1, 62, 63
4, 13007, Note_on_c, 1, 62, 0
4, 13008, Note_on_c, 1, 62, 63
4, 13055, Note_on_c, 1, 62, 0
4, 13056, Note_on_c, 1, 52, 75
4, 13101, Note_on_c, 1, 52, 0
4, 13104, Note_on_c, 1, 49, 75
4, 13149, Note_on_c, 1, 49, 0
4, 13152, Note_on_c, 1, 50, 75
4, 13197, Note_on_c, 1, 50, 0
4, 13200, Note_on_c, 1, 38, 75
4, 13245, Note_on_c, 1, 38, 0
4, 13248, Note_on_c, 1, 52, 68
4, 13293, Note_on_c, 1, 52, 0
4, 13296, Note_on_c, 1, 49, 68
4, 13341, Note_on_c, 1, 49, 0
4, 13344, Note_on_c, 1, 50, 68
4, 13389, Note_on_c, 1, 50, 0
4, 13392, Note_on_c, 1, 38, 68
4, 13437, Note_on_c, 1, 38, 0
4, 13440, Note_on_c, 1, 52, 75
4, 13485, Note_on_c, 1, 52, 0
4, 13488, Note_on_c, 1, 49, 76
4, 13533, Note_on_c, 1, 49, 0
4, 13536, Note_on_c, 1, 50, 77
4, 13581, Note_on_c, 1, 50, 0
4, 13584, Note_on_c, 1, 44, 78
4, 13629, Note_on_c, 1, 44, 0
4, 13632, Note_on_c, 1, 45, 80
4, 13721, Note_on_c, 1, 45, 0
4, 13872, Note_on_c, 1, 57, 75
4, 13872, Note_on_c, 1, 45, 75
4, 13917, Note_on_c, 1, 57, 0
4, 13917, Note_on_c, 1, 45, 0
4, 13968, Note_on_c, 1, 57, 75
4, 13968, Note_on_c, 1, 45, 75
4, 14013, Note_on_c, 1, 57, 0
4, 14013, Note_on_c, 1, 45, 0
4, 14064, Note_on_c, 1, 57, 75
4, 14064, Note_on_c, 1, 45, 75
4, 14109, Note_on_c, 1, 57, 0
4, 14109, Note_on_c, 1, 45, 0
4, 14112, Note_on_c, 1, 57, 75
4, 14112, Note_on_c, 1, 45, 75
4, 14157, Note_on_c, 1, 57, 0
4, 14157, Note_on_c, 1, 45, 0
4, 14160, Note_on_c, 1, 57, 75
4, 14160, Note_on_c, 1, 45, 75
4, 14205, Note_on_c, 1, 57, 0
4, 14205, Note_on_c, 1, 45, 0
4, 14256, Note_on_c, 1, 66, 63
4, 14303, Note_on_c, 1, 66, 0
4, 14304, Note_on_c, 1, 66, 63
4, 14351, Note_on_c, 1, 66, 0
4, 14448, Note_on_c, 1, 64, 63
4, 14495, Note_on_c, 1, 64, 0
4, 14496, Note_on_c, 1, 64, 63
4, 14543, Note_on_c, 1, 64, 0
4, 14592, Note_on_c, 1, 54, 75
4, 14592, Note_on_c, 1, 50, 75
4, 14637, Note_on_c, 1, 54, 0
4, 14637, Note_on_c, 1, 50, 0
4, 14640, Note_on_c, 1, 54, 77
4, 14640, Note_on_c, 1, 50, 77
4, 14685, Note_on_c, 1, 54, 0
4, 14685, Note_on_c, 1, 50, 0
4, 14688, Note_on_c, 1, 54, 80
4, 14688, Note_on_c, 1, 51, 80
4, 14733, Note_on_c, 1, 54, 0
4, 14733, Note_on_c, 1, 51, 0
4, 14736, Note_on_c, 1, 54, 80
4, 14736, Note_on_c, 1, 51, 80
4, 14781, Note_on_c, 1, 54, 0
4, 14781, Note_on_c, 1, 51, 0
4, 14784, Note_on_c, 1, 52, 80
4, 14829, Note_on_c, 1, 52, 0
4, 14832, Note_on_c, 1, 47, 78
4, 14877, Note_on_c, 1, 47, 0
4, 14880, Note_on_c, 1, 40, 76
4, 14925, Note_on_c, 1, 40, 0
4, 14976, Note_on_c, 1, 64, 68
4, 14976, Note_on_c, 1, 61, 68
4, 14976, Note_on_c, 1, 57, 68
4, 15021, Note_on_c, 1, 64, 0
4, 15021, Note_on_c, 1, 61, 0
4, 15021, Note_on_c, 1, 57, 0
4, 15024, Note_on_c, 1, 64, 68
4, 15024, Note_on_c, 1, 61, 68
4, 15024, Note_on_c, 1, 57, 68
4, 15044, Note_on_c, 1, 64, 0
4, 15044, Note_on_c, 1, 61, 0
4, 15044, Note_on_c, 1, 57, 0
4, 15072, Note_on_c, 1, 64, 68
4, 15072, Note_on_c, 1, 61, 68
4, 15072, Note_on_c, 1, 57, 68
4, 15117, Note_on_c, 1, 64, 0
4, 15117, Note_on_c, 1, 61, 0
4, 15117, Note_on_c, 1, 57, 0
4, 15120, Note_on_c, 1, 64, 68
4, 15120, Note_on_c, 1, 61, 68
4, 15120, Note_on_c, 1, 57, 68
4, 15140, Note_on_c, 1, 64, 0
4, 15140, Note_on_c, 1, 61, 0
4, 15140, Note_on_c, 1, 57, 0
4, 15168, Note_on_c, 1, 64, 68
4, 15168, Note_on_c, 1, 62, 68
4, 15168, Note_on_c, 1, 56, 68
4, 15345, Note_on_c, 1, 64, 0
4, 15345, Note_on_c, 1, 62, 0
4, 15345, Note_on_c, 1, 56, 0
4, 15360, Note_on_c, 1, 64, 68
4, 15360, Note_on_c, 1, 61, 68
4, 15360, Note_on_c, 1, 57, 68
4, 15405, Note_on_c, 1, 64, 0
4, 15405, Note_on_c, 1, 61, 0
4, 15405, Note_on_c, 1, 57, 0
4, 15408, Note_on_c, 1, 64, 68
4, 15408, Note_on_c, 1, 61, 68
4, 15408, Note_on_c, 1, 57, 68
4, 15428, Note_on_c, 1, 64, 0
4, 15428, Note_on_c, 1, 61, 0
4, 15428, Note_on_c, 1, 57, 0
4, 15456, Note_on_c, 1, 64, 68
4, 15456, Note_on_c, 1, 61, 68
4, 15456, Note_on_c, 1, 57, 68
4, 15501, Note_on_c, 1, 64, 0
4, 15501, Note_on_c, 1, 61, 0
4, 15501, Note_on_c, 1, 57, 0
4, 15504, Note_on_c, 1, 64, 68
4, 15504, Note_on_c, 1, 61, 68
4, 15504, Note_on_c, 1, 57, 68
4, 15524, Note_on_c, 1, 64, 0
4, 15524, Note_on_c, 1, 61, 0
4, 15524, Note_on_c, 1, 57, 0
4, 15552, Note_on_c, 1, 64, 68
4, 15552, Note_on_c, 1, 62, 68
4, 15552, Note_on_c, 1, 56, 68
4, 15729, Note_on_c, 1, 64, 0
4, 15729, Note_on_c, 1, 62, 0
4, 15729, Note_on_c, 1, 56, 0
4, 15744, Note_on_c, 1, 64, 63
4, 15744, Note_on_c, 1, 61, 63
4, 15744, Note_on_c, 1, 57, 63
4, 15833, Note_on_c, 1, 64, 0
4, 15833, Note_on_c, 1, 61, 0
4, 15833, Note_on_c, 1, 57, 0
4, 15936, Note_on_c, 1, 49, 75
4, 15936, Note_on_c, 1, 37, 75
4, 16025, Note_on_c, 1, 49, 0
4, 16025, Note_on_c, 1, 37, 0
4, 16032, Note_on_c, 1, 50, 75
4, 16032, Note_on_c, 1, 38, 75
4, 16121, Note_on_c, 1, 50, 0
4, 16121, Note_on_c, 1, 38, 0
4, 16128, Note_on_c, 1, 52, 76
4, 16128, Note_on_c, 1, 40, 76
4, 16217, Note_on_c, 1, 52, 0
4, 16217, Note_on_c, 1, 40, 0
4, 16224, Note_on_c, 1, 54, 77
4, 16224, Note_on_c, 1, 42, 77
4, 16313, Note_on_c, 1, 54, 0
4, 16313, Note_on_c, 1, 42, 0
4, 16320, Note_on_c, 1, 56, 78
4, 16320, Note_on_c, 1, 44, 78
4, 16409, Note_on_c, 1, 56, 0
4, 16409, Note_on_c, 1, 44, 0
4, 16416, Note_on_c, 1, 57, 79
4, 16416, Note_on_c, 1, 45, 79
4, 16505, Note_on_c, 1, 57, 0
4, 16505, Note_on_c, 1, 45, 0
4, 16512, Note_on_c, 1, 56, 80
4, 16512, Note_on_c, 1, 44, 80
4, 16601, Note_on_c, 1, 56, 0
4, 16601, Note_on_c, 1, 44, 0
4, 16608, Note_on_c, 1, 57, 80
4, 16608, Note_on_c, 1, 45, 80
4, 16697, Note_on_c, 1, 57, 0
4, 16697, Note_on_c, 1, 45, 0
4, 16752, Note_on_c, 1, 69, 56
4, 16752, Note_on_c, 1, 62, 56
4, 16799, Note_on_c, 1, 69, 0
4, 16799, Note_on_c, 1, 62, 0
4, 16800, Note_on_c, 1, 69, 56
4, 16800, Note_on_c, 1, 62, 56
4, 16847, Note_on_c, 1, 69, 0
4, 16847, Note_on_c, 1, 62, 0
4, 16848, Note_on_c, 1, 69, 56
4, 16848, Note_on_c, 1, 62, 56
4, 16895, Note_on_c, 1, 69, 0
4, 16895, Note_on_c, 1, 62, 0
4, 16944, Note_on_c, 1, 68, 56
4, 16944, Note_on_c, 1, 59, 56
4, 16991, Note_on_c, 1, 68, 0
4, 16991, Note_on_c, 1, 59, 0
4, 16992, Note_on_c, 1, 68, 57
4, 16992, Note_on_c, 1, 59, 57
4, 17039, Note_on_c, 1, 68, 0
4, 17039, Note_on_c, 1, 59, 0
4, 17040, Note_on_c, 1, 68, 57
4, 17040, Note_on_c, 1, 59, 57
4, 17087, Note_on_c, 1, 68, 0
4, 17087, Note_on_c, 1, 59, 0
4, 17136, Note_on_c, 1, 68, 58
4, 17136, Note_on_c, 1, 61, 58
4, 17183, Note_on_c, 1, 68, 0
4, 17183, Note_on_c, 1, 61, 0
4, 17184, Note_on_c, 1, 68, 59
4, 17184, Note_on_c, 1, 61, 59
4, 17231, Note_on_c, 1, 68, 0
4, 17231, Note_on_c, 1, 61, 0
4, 17232, Note_on_c, 1, 68, 59
4, 17232, Note_on_c, 1, 61, 59
4, 17279, Note_on_c, 1, 68, 0
4, 17279, Note_on_c, 1, 61, 0
4, 17328, Note_on_c, 1, 66, 60
4, 17328, Note_on_c, 1, 57, 60
4, 17375, Note_on_c, 1, 66, 0
4, 17375, Note_on_c, 1, 57, 0
4, 17376, Note_on_c, 1, 66, 61
4, 17376, Note_on_c, 1, 57, 61
4, 17423, Note_on_c, 1, 66, 0
4, 17423, Note_on_c, 1, 57, 0
4, 17424, Note_on_c, 1, 66, 61
4, 17424, Note_on_c, 1, 57, 61
4, 17471, Note_on_c, 1, 66, 0
4, 17471, Note_on_c, 1, 57, 0
4, 17520, Note_on_c, 1, 66, 62
4, 17520, Note_on_c, 1, 59, 62
4, 17567, Note_on_c, 1, 66, 0
4, 17567, Note_on_c, 1, 59, 0
4, 17568, Note_on_c, 1, 66, 63
4, 17568, Note_on_c, 1, 59, 63
4, 17615, Note_on_c, 1, 66, 0
4, 17615, Note_on_c, 1, 59, 0
4, 17616, Note_on_c, 1, 66, 63
4, 17616, Note_on_c, 1, 59, 63
4, 17663, Note_on_c, 1, 66, 0
4, 17663, Note_on_c, 1, 59, 0
4, 17712, Note_on_c, 1, 64, 64
4, 17712, Note_on_c, 1, 56, 64
4, 17759, Note_on_c, 1, 64, 0
4, 17759, Note_on_c, 1, 56, 0
4, 17760, Note_on_c, 1, 64, 65
4, 17760, Note_on_c, 1, 56, 65
4, 17807, Note_on_c, 1, 64, 0
4, 17807, Note_on_c, 1, 56, 0
4, 17808, Note_on_c, 1, 64, 65
4, 17808, Note_on_c, 1, 56, 65
4, 17855, Note_on_c, 1, 64, 0
4, 17855, Note_on_c, 1, 56, 0
4, 17904, Note_on_c, 1, 64, 66
4, 17904, Note_on_c, 1, 57, 66
4, 17951, Note_on_c, 1, 64, 0
4, 17951, Note_on_c, 1, 57, 0
4, 17952, Note_on_c, 1, 64, 67
4, 17952, Note_on_c, 1, 57, 67
4, 17999, Note_on_c, 1, 64, 0
4, 17999, Note_on_c, 1, 57, 0
4, 18000, Note_on_c, 1, 64, 67
4, 18000, Note_on_c, 1, 57, 67
4, 18047, Note_on_c, 1, 64, 0
4, 18047, Note_on_c, 1, 57, 0
4, 18096, Note_on_c, 1, 57, 80
4, 18096, Note_on_c, 1, 49, 80
4, 18141, Note_on_c, 1, 57, 0
4, 18141, Note_on_c, 1, 49, 0
4, 18144, Note_on_c, 1, 57, 82
4, 18144, Note_on_c, 1, 49, 82
4, 18189, Note_on_c, 1, 57, 0
4, 18189, Note_on_c, 1, 49, 0
4, 18192, Note_on_c, 1, 57, 84
4, 18192, Note_on_c, 1, 50, 84
4, 18237, Note_on_c, 1, 57, 0
4, 18237, Note_on_c, 1, 50, 0
4, 18240, Note_on_c, 1, 57, 86
4, 18285, Note_on_c, 1, 57, 0
4, 18288, Note_on_c, 1, 56, 83
4, 18333, Note_on_c, 1, 56, 0
4, 18336, Note_on_c, 1, 57, 80
4, 18336, Note_on_c, 1, 49, 80
4, 18381, Note_on_c, 1, 57, 0
4, 18381, Note_on_c, 1, 49, 0
4, 18384, Note_on_c, 1, 57, 83
4, 18384, Note_on_c, 1, 50, 83
4, 18429, Note_on_c, 1, 57, 0
4, 18429, Note_on_c, 1, 50, 0
4, 18432, Note_on_c, 1, 57, 86
4, 18477, Note_on_c, 1, 57, 0
4, 18480, Note_on_c, 1, 56, 83
4, 18525, Note_on_c, 1, 56, 0
4, 18528, Note_on_c, 1, 57, 80
4, 18528, Note_on_c, 1, 49, 80
4, 18573, Note_on_c, 1, 57, 0
4, 18573, Note_on_c, 1, 49, 0
4, 18576, Note_on_c, 1, 57, 83
4, 18576, Note_on_c, 1, 50, 83
4, 18621, Note_on_c, 1, 57, 0
4, 18621, Note_on_c, 1, 50, 0
4, 18624, Note_on_c, 1, 57, 86
4, 18720, Note_on_c, 1, 57, 0
4, 18720, Note_on_c, 1, 56, 63
4, 18809, Note_on_c, 1, 56, 0
4, 18912, Note_on_c, 1, 49, 63
4, 18912, Note_on_c, 1, 37, 63
4, 19001, Note_on_c, 1, 49, 0
4, 19001, Note_on_c, 1, 37, 0
4, 19008, Note_on_c, 1, 50, 66
4, 19008, Note_on_c, 1, 38, 66
4, 19097, Note_on_c, 1, 50, 0
4, 19097, Note_on_c, 1, 38, 0
4, 19104, Note_on_c, 1, 52, 69
4, 19104, Note_on_c, 1, 40, 69
4, 19193, Note_on_c, 1, 52, 0
4, 19193, Note_on_c, 1, 40, 0
4, 19200, Note_on_c, 1, 54, 73
4, 19200, Note_on_c, 1, 42, 73
4, 19289, Note_on_c, 1, 54, 0
4, 19289, Note_on_c, 1, 42, 0
4, 19296, Note_on_c, 1, 56, 76
4, 19296, Note_on_c, 1, 44, 76
4, 19385, Note_on_c, 1, 56, 0
4, 19385, Note_on_c, 1, 44, 0
4, 19392, Note_on_c, 1, 57, 80
4, 19392, Note_on_c, 1, 45, 80
4, 19437, Note_on_c, 1, 57, 0
4, 19437, Note_on_c, 1, 45, 0
4, 19584, Note_on_c, 1, 45, 80
4, 19584, Note_on_c, 1, 33, 80
4, 19629, Note_on_c, 1, 45, 0
4, 19629, Note_on_c, 1, 33, 0
4, 19716, Note_on_c, 1, 45, 80
4, 19716, Note_on_c, 1, 33, 80
4, 19728, Note_on_c, 1, 45, 0
4, 19728, Note_on_c, 1, 33, 0
4, 19728, Note_on_c, 1, 45, 80
4, 19728, Note_on_c, 1, 33, 80
4, 19762, Note_on_c, 1, 45, 0
4, 19762, Note_on_c, 1, 33, 0
4, 19764, Note_on_c, 1, 45, 80
4, 19764, Note_on_c, 1, 33, 80
4, 19776, Note_on_c, 1, 45, 0
4, 19776, Note_on_c, 1, 33, 0
4, 19776, Note_on_c, 1, 50, 80
4, 19776, Note_on_c, 1, 38, 80
4, 19865, Note_on_c, 1, 50, 0
4, 19865, Note_on_c, 1, 38, 0
4, 19872, Note_on_c, 1, 52, 80
4, 19917, Note_on_c, 1, 52, 0
4, 19920, Note_on_c, 1, 40, 80
4, 19965, Note_on_c, 1, 40, 0
4, 19968, Note_on_c, 1, 45, 80
4, 20057, Note_on_c, 1, 45, 0
4, 20080, Note_on_c, 1, 52, 75
4, 20095, Note_on_c, 1, 52, 0
4, 20096, Note_on_c, 1, 54, 75
4, 20111, Note_on_c, 1, 54, 0
4, 20112, Note_on_c, 1, 56, 75
4, 20127, Note_on_c, 1, 56, 0
4, 20128, Note_on_c, 1, 57, 75
4, 20143, Note_on_c, 1, 57, 0
4, 20144, Note_on_c, 1, 59, 75
4, 20159, Note_on_c, 1, 59, 0
4, 20160, Note_on_c, 1, 57, 75
4, 20249, Note_on_c, 1, 57, 0
4, 20272, Note_on_c, 1, 52, 75
4, 20287, Note_on_c, 1, 52, 0
4, 20288, Note_on_c, 1, 54, 75
4, 20303, Note_on_c, 1, 54, 0
4, 20304, Note_on_c, 1, 56, 75
4, 20319, Note_on_c, 1, 56, 0
4, 20320, Note_on_c, 1, 57, 75
4, 20335, Note_on_c, 1, 57, 0
4, 20336, Note_on_c, 1, 59, 75
4, 20351, Note_on_c, 1, 59, 0
4, 20352, Note_on_c, 1, 57, 75
4, 20441, Note_on_c, 1, 57, 0
4, 20448, Note_on_c, 1, 57, 75
4, 20448, Note_on_c, 1, 50, 75
4, 20537, Note_on_c, 1, 57, 0
4, 20537, Note_on_c, 1, 50, 0
4, 20592, Note_on_c, 1, 57, 75
4, 20688, Note_on_c, 1, 57, 0
4, 20688, Note_on_c, 1, 56, 75
4, 20733, Note_on_c, 1, 56, 0
4, 20736, Note_on_c, 1, 57, 75
4, 20825, Note_on_c, 1, 57, 0
4, 20832, Note_on_c, 1, 57, 75
4, 20832, Note_on_c, 1, 50, 75
4, 20921, Note_on_c, 1, 57, 0
4, 20921, Note_on_c, 1, 50, 0
4, 20976, Note_on_c, 1, 57, 75
4, 21072, Note_on_c, 1, 57, 0
4, 21072, Note_on_c, 1, 56, 75
4, 21117, Note_on_c, 1, 56, 0
4, 21120, Note_on_c, 1, 57, 75
4, 21209, Note_on_c, 1, 57, 0
4, 21264, Note_on_c, 1, 72, 56
4, 21309, Note_on_c, 1, 72, 0
4, 21312, Note_on_c, 1, 71, 56
4, 21401, Note_on_c, 1, 71, 0
4, 21408, Note_on_c, 1, 69, 58
4, 21497, Note_on_c, 1, 69, 0
4, 21504, Note_on_c, 1, 67, 60
4, 21593, Note_on_c, 1, 67, 0
4, 21600, Note_on_c, 1, 65, 62
4, 21689, Note_on_c, 1, 65, 0
4, 21696, Note_on_c, 1, 64, 64
4, 21881, Note_on_c, 1, 64, 0
4, 21888, Note_on_c, 1, 52, 68
4, 21933, Note_on_c, 1, 52, 0
4, 21936, Note_on_c, 1, 40, 68
4, 21981, Note_on_c, 1, 40, 0
4, 22032, Note_on_c, 1, 52, 80
4, 22032, Note_on_c, 1, 40, 80
4, 22077, Note_on_c, 1, 52, 0
4, 22077, Note_on_c, 1, 40, 0
4, 22128, Note_on_c, 1, 52, 80
4, 22128, Note_on_c, 1, 40, 80
4, 22173, Note_on_c, 1, 52, 0
4, 22173, Note_on_c, 1, 40, 0
4, 22224, Note_on_c, 1, 52, 80
4, 22224, Note_on_c, 1, 40, 80
4, 22269, Note_on_c, 1, 52, 0
4, 22269, Note_on_c, 1, 40, 0
4, 22272, Note_on_c, 1, 57, 80
4, 22272, Note_on_c, 1, 45, 80
4, 22361, Note_on_c, 1, 57, 0
4, 22361, Note_on_c, 1, 45, 0
4, 22656, Note_on_c, 1, 57, 80
4, 22701, Note_on_c, 1, 57, 0
4, 22704, Note_on_c, 1, 52, 80
4, 22749, Note_on_c, 1, 52, 0
4, 22752, Note_on_c, 1, 45, 80
4, 22797, Note_on_c, 1, 45, 0
4, 22896, Note_on_c, 1, 45, 75
4, 22896, Note_on_c, 1, 33, 75
4, 22941, Note_on_c, 1, 45, 0
4, 22941, Note_on_c, 1, 33, 0
4, 22992, Note_on_c, 1, 45, 75
4, 22992, Note_on_c, 1, 33, 75
4, 23037, Note_on_c, 1, 45, 0
4, 23037, Note_on_c, 1, 33, 0
4, 23088, Note_on_c, 1, 45, 75
4, 23088, Note_on_c, 1, 33, 75
4, 23133, Note_on_c, 1, 45, 0
4, 23133, Note_on_c, 1, 33, 0
4, 23136, Note_on_c, 1, 45, 75
4, 23136, Note_on_c, 1, 33, 75
4, 23181, Note_on_c, 1, 45, 0
4, 23181, Note_on_c, 1, 33, 0
4, 23184, Note_on_c, 1, 45, 75
4, 23184, Note_on_c, 1, 33, 75
4, 23229, Note_on_c, 1, 45, 0
4, 23229, Note_on_c, 1, 33, 0
4, 23280, Note_on_c, 1, 57, 75
4, 23280, Note_on_c, 1, 50, 75
4, 23325, Note_on_c, 1, 57, 0
4, 23325, Note_on_c, 1, 50, 0
4, 23328, Note_on_c, 1, 57, 75
4, 23328, Note_on_c, 1, 50, 75
4, 23373, Note_on_c, 1, 57, 0
4, 23373, Note_on_c, 1, 50, 0
4, 23376, Note_on_c, 1, 57, 75
4, 23376, Note_on_c, 1, 50, 75
4, 23421, Note_on_c, 1, 57, 0
4, 23421, Note_on_c, 1, 50, 0
4, 23472, Note_on_c, 1, 57, 75
4, 23472, Note_on_c, 1, 50, 75
4, 23517, Note_on_c, 1, 57, 0
4, 23517, Note_on_c, 1, 50, 0
4, 23520, Note_on_c, 1, 57, 75
4, 23520, Note_on_c, 1, 49, 75
4, 23565, Note_on_c, 1, 57, 0
4, 23565, Note_on_c, 1, 49, 0
4, 23568, Note_on_c, 1, 57, 75
4, 23568, Note_on_c, 1, 49, 75
4, 23613, Note_on_c, 1, 57, 0
4, 23613, Note_on_c, 1, 49, 0
4, 23616, Note_on_c, 1, 59, 75
4, 23661, Note_on_c, 1, 59, 0
4, 23664, Note_on_c, 1, 56, 75
4, 23709, Note_on_c, 1, 56, 0
4, 23712, Note_on_c, 1, 57, 75
4, 23757, Note_on_c, 1, 57, 0
4, 23760, Note_on_c, 1, 45, 75
4, 23805, Note_on_c, 1, 45, 0
4, 23808, Note_on_c, 1, 52, 75
4, 23897, Note_on_c, 1, 52, 0
4, 23904, Note_on_c, 1, 40, 75
4, 23949, Note_on_c, 1, 40, 0
4, 24048, Note_on_c, 1, 67, 56
4, 24048, Note_on_c, 1, 64, 56
4, 24095, Note_on_c, 1, 67, 0
4, 24095, Note_on_c, 1, 64, 0
4, 24096, Note_on_c, 1, 67, 56
4, 24096, Note_on_c, 1, 64, 56
4, 24143, Note_on_c, 1, 67, 0
4, 24143, Note_on_c, 1, 64, 0
4, 24144, Note_on_c, 1, 67, 56
4, 24144, Note_on_c, 1, 64, 56
4, 24191, Note_on_c, 1, 67, 0
4, 24191, Note_on_c, 1, 64, 0
4, 24240, Note_on_c, 1, 66, 56
4, 24240, Note_on_c, 1, 64, 56
4, 24287, Note_on_c, 1, 66, 0
4, 24287, Note_on_c, 1, 64, 0
4, 24288, Note_on_c, 1, 66, 56
4, 24288, Note_on_c, 1, 64, 56
4, 24335, Note_on_c, 1, 66, 0
4, 24335, Note_on_c, 1, 64, 0
4, 24336, Note_on_c, 1, 66, 56
4, 24336, Note_on_c, 1, 64, 56
4, 24383, Note_on_c, 1, 66, 0
4, 24383, Note_on_c, 1, 64, 0
4, 24432, Note_on_c, 1, 66, 56
4, 24432, Note_on_c, 1, 62, 56
4, 24479, Note_on_c, 1, 66, 0
4, 24479, Note_on_c, 1, 62, 0
4, 24480, Note_on_c, 1, 66, 56
4, 24480, Note_on_c, 1, 62, 56
4, 24527, Note_on_c, 1, 66, 0
4, 24527, Note_on_c, 1, 62, 0
4, 24528, Note_on_c, 1, 66, 56
4, 24528, Note_on_c, 1, 62, 56
4, 24575, Note_on_c, 1, 66, 0
4, 24575, Note_on_c, 1, 62, 0
4, 24624, Note_on_c, 1, 64, 56
4, 24624, Note_on_c, 1, 62, 56
4, 24671, Note_on_c, 1, 64, 0
4, 24671, Note_on_c, 1, 62, 0
4, 24672, Note_on_c, 1, 64, 56
4, 24672, Note_on_c, 1, 62, 56
4, 24719, Note_on_c, 1, 64, 0
4, 24719, Note_on_c, 1, 62, 0
4, 24720, Note_on_c, 1, 64, 56
4, 24720, Note_on_c, 1, 62, 56
4, 24767, Note_on_c, 1, 64, 0
4, 24767, Note_on_c, 1, 62, 0
4, 24816, Note_on_c, 1, 64, 56
4, 24816, Note_on_c, 1, 61, 56
4, 24863, Note_on_c, 1, 64, 0
4, 24863, Note_on_c, 1, 61, 0
4, 24864, Note_on_c, 1, 64, 56
4, 24864, Note_on_c, 1, 61, 56
4, 24911, Note_on_c, 1, 64, 0
4, 24911, Note_on_c, 1, 61, 0
4, 24912, Note_on_c, 1, 64, 56
4, 24912, Note_on_c, 1, 61, 56
4, 24959, Note_on_c, 1, 64, 0
4, 24959, Note_on_c, 1, 61, 0
4, 24960, Note_on_c, 1, 61, 63
4, 24960, Note_on_c, 1, 58, 63
4, 25137, Note_on_c, 1, 61, 0
4, 25137, Note_on_c, 1, 58, 0
4, 25248, Note_on_c, 1, 50, 63
4, 25248, Note_on_c, 1, 38, 63
4, 25337, Note_on_c, 1, 50, 0
4, 25337, Note_on_c, 1, 38, 0
4, 25344, Note_on_c, 1, 52, 63
4, 25344, Note_on_c, 1, 40, 63
4, 25433, Note_on_c, 1, 52, 0
4, 25433, Note_on_c, 1, 40, 0
4, 25440, Note_on_c, 1, 54, 64
4, 25440, Note_on_c, 1, 42, 64
4, 25529, Note_on_c, 1, 54, 0
4, 25529, Note_on_c, 1, 42, 0
4, 25536, Note_on_c, 1, 55, 66
4, 25536, Note_on_c, 1, 43, 66
4, 25625, Note_on_c, 1, 55, 0
4, 25625, Note_on_c, 1, 43, 0
4, 25632, Note_on_c, 1, 57, 68
4, 25632, Note_on_c, 1, 45, 68
4, 25721, Note_on_c, 1, 57, 0
4, 25721, Note_on_c, 1, 45, 0
4, 25728, Note_on_c, 1, 59, 69
4, 25728, Note_on_c, 1, 47, 69
4, 25817, Note_on_c, 1, 59, 0
4, 25817, Note_on_c, 1, 47, 0
4, 25824, Note_on_c, 1, 61, 71
4, 25824, Note_on_c, 1, 49, 71
4, 25913, Note_on_c, 1, 61, 0
4, 25913, Note_on_c, 1, 49, 0
4, 25920, Note_on_c, 1, 62, 73
4, 25920, Note_on_c, 1, 50, 73
4, 26009, Note_on_c, 1, 62, 0
4, 26009, Note_on_c, 1, 50, 0
4, 26016, Note_on_c, 1, 56, 75
4, 26016, Note_on_c, 1, 44, 75
4, 26105, Note_on_c, 1, 56, 0
4, 26105, Note_on_c, 1, 44, 0
4, 26112, Note_on_c, 1, 57, 75
4, 26112, Note_on_c, 1, 45, 75
4, 26201, Note_on_c, 1, 57, 0
4, 26201, Note_on_c, 1, 45, 0
4, 26208, Note_on_c, 1, 56, 75
4, 26208, Note_on_c, 1, 44, 75
4, 26297, Note_on_c, 1, 56, 0
4, 26297, Note_on_c, 1, 44, 0
4, 26304, Note_on_c, 1, 57, 75
4, 26304, Note_on_c, 1, 45, 75
4, 26393, Note_on_c, 1, 57, 0
4, 26393, Note_on_c, 1, 45, 0
4, 26400, Note_on_c, 1, 62, 75
4, 26544, Note_on_c, 1, 62, 0
4, 26544, Note_on_c, 1, 61, 75
4, 26622, Note_on_c, 1, 61, 0
4, 26736, Note_on_c, 1, 50, 75
4, 26736, Note_on_c, 1, 38, 75
4, 26781, Note_on_c, 1, 50, 0
4, 26781, Note_on_c, 1, 38, 0
4, 26832, Note_on_c, 1, 50, 75
4, 26832, Note_on_c, 1, 38, 75
4, 26877, Note_on_c, 1, 50, 0
4, 26877, Note_on_c, 1, 38, 0
4, 26928, Note_on_c, 1, 50, 75
4, 26928, Note_on_c, 1, 38, 75
4, 26973, Note_on_c, 1, 50, 0
4, 26973, Note_on_c, 1, 38, 0
4, 26976, Note_on_c, 1, 50, 75
4, 26976, Note_on_c, 1, 38, 75
4, 27021, Note_on_c, 1, 50, 0
4, 27021, Note_on_c, 1, 38, 0
4, 27024, Note_on_c, 1, 50, 75
4, 27024, Note_on_c, 1, 38, 75
4, 27069, Note_on_c, 1, 50, 0
4, 27069, Note_on_c, 1, 38, 0
4, 27120, Note_on_c, 1, 55, 75
4, 27165, Note_on_c, 1, 55, 0
4, 27168, Note_on_c, 1, 55, 75
4, 27213, Note_on_c, 1, 55, 0
4, 27216, Note_on_c, 1, 52, 75
4, 27261, Note_on_c, 1, 52, 0
4, 27264, Note_on_c, 1, 57, 75
4, 27309, Note_on_c, 1, 57, 0
4, 27312, Note_on_c, 1, 45, 71
4, 27357, Note_on_c, 1, 45, 0
4, 27360, Note_on_c, 1, 50, 68
4, 27427, Note_on_c, 1, 50, 0
4, 27504, Note_on_c, 1, 50, 75
4, 27504, Note_on_c, 1, 38, 75
4, 27549, Note_on_c, 1, 50, 0
4, 27549, Note_on_c, 1, 38, 0
4, 27600, Note_on_c, 1, 50, 75
4, 27600, Note_on_c, 1, 38, 75
4, 27645, Note_on_c, 1, 50, 0
4, 27645, Note_on_c, 1, 38, 0
4, 27696, Note_on_c, 1, 50, 75
4, 27696, Note_on_c, 1, 38, 75
4, 27741, Note_on_c, 1, 50, 0
4, 27741, Note_on_c, 1, 38, 0
4, 27744, Note_on_c, 1, 50, 75
4, 27744, Note_on_c, 1, 38, 75
4, 27789, Note_on_c, 1, 50, 0
4, 27789, Note_on_c, 1, 38, 0
4, 27792, Note_on_c, 1, 50, 75
4, 27792, Note_on_c, 1, 38, 75
4, 27837, Note_on_c, 1, 50, 0
4, 27837, Note_on_c, 1, 38, 0
4, 27888, Note_on_c, 1, 62, 63
4, 27935, Note_on_c, 1, 62, 0
4, 27936, Note_on_c, 1, 62, 63
4, 27983, Note_on_c, 1, 62, 0
4, 27984, Note_on_c, 1, 62, 63
4, 28031, Note_on_c, 1, 62, 0
4, 28080, Note_on_c, 1, 62, 63
4, 28127, Note_on_c, 1, 62, 0
4, 28128, Note_on_c, 1, 62, 63
4, 28175, Note_on_c, 1, 62, 0
4, 28176, Note_on_c, 1, 62, 63
4, 28223, Note_on_c, 1, 62, 0
4, 28224, Note_on_c, 1, 52, 75
4, 28269, Note_on_c, 1, 52, 0
4, 28272, Note_on_c, 1, 49, 75
4, 28317, Note_on_c, 1, 49, 0
4, 28320, Note_on_c, 1, 50, 75
4, 28365, Note_on_c, 1, 50, 0
4, 28368, Note_on_c, 1, 38, 75
4, 28413, Note_on_c, 1, 38, 0
4, 28416, Note_on_c, 1, 52, 75
4, 28461, Note_on_c, 1, 52, 0
4, 28464, Note_on_c, 1, 49, 76
4, 28509, Note_on_c, 1, 49, 0
4, 28512, Note_on_c, 1, 50, 77
4, 28557, Note_on_c, 1, 50, 0
4, 28560, Note_on_c, 1, 44, 78
4, 28605, Note_on_c, 1, 44, 0
4, 28608, Note_on_c, 1, 45, 80
4, 28697, Note_on_c, 1, 45, 0
4, 28800, Note_on_c, 1, 57, 68
4, 28800, Note_on_c, 1, 54, 68
4, 28800, Note_on_c, 1, 50, 68
4, 28845, Note_on_c, 1, 57, 0
4, 28845, Note_on_c, 1, 54, 0
4, 28845, Note_on_c, 1, 50, 0
4, 28848, Note_on_c, 1, 57, 68
4, 28848, Note_on_c, 1, 54, 68
4, 28848, Note_on_c, 1, 50, 68
4, 28868, Note_on_c, 1, 57, 0
4, 28868, Note_on_c, 1, 54, 0
4, 28868, Note_on_c, 1, 50, 0
4, 28896, Note_on_c, 1, 57, 68
4, 28896, Note_on_c, 1, 54, 68
4, 28896, Note_on_c, 1, 50, 68
4, 28941, Note_on_c, 1, 57, 0
4, 28941, Note_on_c, 1, 54, 0
4, 28941, Note_on_c, 1, 50, 0
4, 28944, Note_on_c, 1, 57, 68
4, 28944, Note_on_c, 1, 54, 68
4, 28944, Note_on_c, 1, 50, 68
4, 28964, Note_on_c, 1, 57, 0
4, 28964, Note_on_c, 1, 54, 0
4, 28964, Note_on_c, 1, 50, 0
4, 28992, Note_on_c, 1, 57, 68
4, 28992, Note_on_c, 1, 55, 68
4, 28992, Note_on_c, 1, 49, 68
4, 29169, Note_on_c, 1, 57, 0
4, 29169, Note_on_c, 1, 55, 0
4, 29169, Note_on_c, 1, 49, 0
4, 29184, Note_on_c, 1, 57, 68
4, 29184, Note_on_c, 1, 54, 68
4, 29184, Note_on_c, 1, 50, 68
4, 29229, Note_on_c, 1, 57, 0
4, 29229, Note_on_c, 1, 54, 0
4, 29229, Note_on_c, 1, 50, 0
4, 29232, Note_on_c, 1, 57, 68
4, 29232, Note_on_c, 1, 54, 68
4, 29232, Note_on_c, 1, 50, 68
4, 29252, Note_on_c, 1, 57, 0
4, 29252, Note_on_c, 1, 54, 0
4, 29252, Note_on_c, 1, 50, 0
4, 29280, Note_on_c, 1, 57, 68
4, 29280, Note_on_c, 1, 54, 68
4, 29280, Note_on_c, 1, 50, 68
4, 29325, Note_on_c, 1, 57, 0
4, 29325, Note_on_c, 1, 54, 0
4, 29325, Note_on_c, 1, 50, 0
4, 29328, Note_on_c, 1, 57, 68
4, 29328, Note_on_c, 1, 54, 68
4, 29328, Note_on_c, 1, 50, 68
4, 29348, Note_on_c, 1, 57, 0
4, 29348, Note_on_c, 1, 54, 0
4, 29348, Note_on_c, 1, 50, 0
4, 29376, Note_on_c, 1, 57, 68
4, 29376, Note_on_c, 1, 55, 68
4, 29376, Note_on_c, 1, 49, 68
4, 29553, Note_on_c, 1, 57, 0
4, 29553, Note_on_c, 1, 55, 0
4, 29553, Note_on_c, 1, 49, 0
4, 29568, Note_on_c, 1, 57, 63
4, 29568, Note_on_c, 1, 54, 63
4, 29568, Note_on_c, 1, 50, 63
4, 29657, Note_on_c, 1, 57, 0
4, 29657, Note_on_c, 1, 54, 0
4, 29657, Note_on_c, 1, 50, 0
4, 29760, Note_on_c, 1, 42, 75
4, 29760, Note_on_c, 1, 30, 75
4, 29849, Note_on_c, 1, 42, 0
4, 29849, Note_on_c, 1, 30, 0
4, 29856, Note_on_c, 1, 43, 75
4, 29856, Note_on_c, 1, 31, 75
4, 29945, Note_on_c, 1, 43, 0
4, 29945, Note_on_c, 1, 31, 0
4, 29952, Note_on_c, 1, 45, 76
4, 29952, Note_on_c, 1, 33, 76
4, 30041, Note_on_c, 1, 45, 0
4, 30041, Note_on_c, 1, 33, 0
4, 30048, Note_on_c, 1, 47, 77
4, 30048, Note_on_c, 1, 35, 77
4, 30137, Note_on_c, 1, 47, 0
4, 30137, Note_on_c, 1, 35, 0
4, 30144, Note_on_c, 1, 49, 78
4, 30144, Note_on_c, 1, 37, 78
4, 30233, Note_on_c, 1, 49, 0
4, 30233, Note_on_c, 1, 37, 0
4, 30240, Note_on_c, 1, 50, 79
4, 30240, Note_on_c, 1, 38, 79
4, 30329, Note_on_c, 1, 50, 0
4, 30329, Note_on_c, 1, 38, 0
4, 30336, Note_on_c, 1, 49, 80
4, 30336, Note_on_c, 1, 37, 80
4, 30425, Note_on_c, 1, 49, 0
4, 30425, Note_on_c, 1, 37, 0
4, 30432, Note_on_c, 1, 50, 80
4, 30432, Note_on_c, 1, 38, 80
4, 30521, Note_on_c, 1, 50, 0
4, 30521, Note_on_c, 1, 38, 0
4, 30576, Note_on_c, 1, 62, 56
4, 30576, Note_on_c, 1, 55, 56
4, 30623, Note_on_c, 1, 62, 0
4, 30623, Note_on_c, 1, 55, 0
4, 30624, Note_on_c, 1, 62, 56
4, 30624, Note_on_c, 1, 55, 56
4, 30671, Note_on_c, 1, 62, 0
4, 30671, Note_on_c, 1, 55, 0
4, 30672, Note_on_c, 1, 62, 56
4, 30672, Note_on_c, 1, 55, 56
4, 30719, Note_on_c, 1, 62, 0
4, 30719, Note_on_c, 1, 55, 0
4, 30768, Note_on_c, 1, 61, 57
4, 30768, Note_on_c, 1, 52, 57
4, 30815, Note_on_c, 1, 61, 0
4, 30815, Note_on_c, 1, 52, 0
4, 30816, Note_on_c, 1, 61, 58
4, 30816, Note_on_c, 1, 52, 58
4, 30863, Note_on_c, 1, 61, 0
4, 30863, Note_on_c, 1, 52, 0
4, 30864, Note_on_c, 1, 61, 58
4, 30864, Note_on_c, 1, 52, 58
4, 30911, Note_on_c, 1, 61, 0
4, 30911, Note_on_c, 1, 52, 0
4, 30960, Note_on_c, 1, 61, 59
4, 30960, Note_on_c, 1, 54, 59
4, 31007, Note_on_c, 1, 61, 0
4, 31007, Note_on_c, 1, 54, 0
4, 31008, Note_on_c, 1, 61, 60
4, 31008, Note_on_c, 1, 54, 60
4, 31055, Note_on_c, 1, 61, 0
4, 31055, Note_on_c, 1, 54, 0
4, 31056, Note_on_c, 1, 61, 60
4, 31056, Note_on_c, 1, 54, 60
4, 31103, Note_on_c, 1, 61, 0
4, 31103, Note_on_c, 1, 54, 0
4, 31152, Note_on_c, 1, 59, 61
4, 31152, Note_on_c, 1, 50, 61
4, 31199, Note_on_c, 1, 59, 0
4, 31199, Note_on_c, 1, 50, 0
4, 31200, Note_on_c, 1, 59, 61
4, 31200, Note_on_c, 1, 50, 61
4, 31247, Note_on_c, 1, 59, 0
4, 31247, Note_on_c, 1, 50, 0
4, 31248, Note_on_c, 1, 59, 62
4, 31248, Note_on_c, 1, 50, 62
4, 31295, Note_on_c, 1, 59, 0
4, 31295, Note_on_c, 1, 50, 0
4, 31344, Note_on_c, 1, 59, 63
4, 31344, Note_on_c, 1, 52, 63
4, 31391, Note_on_c, 1, 59, 0
4, 31391, Note_on_c, 1, 52, 0
4, 31392, Note_on_c, 1, 59, 63
4, 31392, Note_on_c, 1, 52, 63
4, 31439, Note_on_c, 1, 59, 0
4, 31439, Note_on_c, 1, 52, 0
4, 31440, Note_on_c, 1, 59, 64
4, 31440, Note_on_c, 1, 52, 64
4, 31487, Note_on_c, 1, 59, 0
4, 31487, Note_on_c, 1, 52, 0
4, 31536, Note_on_c, 1, 57, 64
4, 31536, Note_on_c, 1, 49, 64
4, 31583, Note_on_c, 1, 57, 0
4, 31583, Note_on_c, 1, 49, 0
4, 31584, Note_on_c, 1, 57, 65
4, 31584, Note_on_c, 1, 49, 65
4, 31631, Note_on_c, 1, 57, 0
4, 31631, Note_on_c, 1, 49, 0
4, 31632, Note_on_c, 1, 57, 65
4, 31632, Note_on_c, 1, 49, 65
4, 31679, Note_on_c, 1, 57, 0
4, 31679, Note_on_c, 1, 49, 0
4, 31728, Note_on_c, 1, 57, 66
4, 31728, Note_on_c, 1, 50, 66
4, 31775, Note_on_c, 1, 57, 0
4, 31775, Note_on_c, 1, 50, 0
4, 31776, Note_on_c, 1, 57, 67
4, 31776, Note_on_c, 1, 50, 67
4, 31823, Note_on_c, 1, 57, 0
4, 31823, Note_on_c, 1, 50, 0
4, 31824, Note_on_c, 1, 57, 67
4, 31824, Note_on_c, 1, 50, 67
4, 31871, Note_on_c, 1, 57, 0
4, 31871, Note_on_c, 1, 50, 0
4, 31920, Note_on_c, 1, 50, 68
4, 31920, Note_on_c, 1, 42, 68
4, 31965, Note_on_c, 1, 50, 0
4, 31965, Note_on_c, 1, 42, 0
4, 31968, Note_on_c, 1, 50, 68
4, 31968, Note_on_c, 1, 42, 68
4, 32013, Note_on_c, 1, 50, 0
4, 32013, Note_on_c, 1, 42, 0
4, 32016, Note_on_c, 1, 50, 68
4, 32016, Note_on_c, 1, 43, 68
4, 32061, Note_on_c, 1, 50, 0
4, 32061, Note_on_c, 1, 43, 0
4, 32064, Note_on_c, 1, 50, 86
4, 32109, Note_on_c, 1, 50, 0
4, 32112, Note_on_c, 1, 49, 83
4, 32157, Note_on_c, 1, 49, 0
4, 32160, Note_on_c, 1, 50, 80
4, 32160, Note_on_c, 1, 42, 80
4, 32205, Note_on_c, 1, 50, 0
4, 32205, Note_on_c, 1, 42, 0
4, 32208, Note_on_c, 1, 50, 83
4, 32208, Note_on_c, 1, 43, 83
4, 32253, Note_on_c, 1, 50, 0
4, 32253, Note_on_c, 1, 43, 0
4, 32256, Note_on_c, 1, 50, 86
4, 32301, Note_on_c, 1, 50, 0
4, 32304, Note_on_c, 1, 49, 83
4, 32349, Note_on_c, 1, 49, 0
4, 32352, Note_on_c, 1, 50, 80
4, 32352, Note_on_c, 1, 42, 80
4, 32397, Note_on_c, 1, 50, 0
4, 32397, Note_on_c, 1, 42, 0
4, 32400, Note_on_c, 1, 50, 83
4, 32400, Note_on_c, 1, 43, 83
4, 32445, Note_on_c, 1, 50, 0
4, 32445, Note_on_c, 1, 43, 0
4, 32448, Note_on_c, 1, 50, 86
4, 32544, Note_on_c, 1, 50, 0
4, 32544, Note_on_c, 1, 49, 63
4, 32633, Note_on_c, 1, 49, 0
4, 32736, Note_on_c, 1, 54, 63
4, 32736, Note_on_c, 1, 42, 63
4, 32825, Note_on_c, 1, 54, 0
4, 32825, Note_on_c, 1, 42, 0
4, 32832, Note_on_c, 1, 55, 66
4, 32832, Note_on_c, 1, 43, 66
4, 32921, Note_on_c, 1, 55, 0
4, 32921, Note_on_c, 1, 43, 0
4, 32928, Note_on_c, 1, 57, 69
4, 32928, Note_on_c, 1, 45, 69
4, 33017, Note_on_c, 1, 57, 0
4, 33017, Note_on_c, 1, 45, 0
4, 33024, Note_on_c, 1, 59, 73
4, 33024, Note_on_c, 1, 47, 73
4, 33113, Note_on_c, 1, 59, 0
4, 33113, Note_on_c, 1, 47, 0
4, 33120, Note_on_c, 1, 61, 76
4, 33120, Note_on_c, 1, 49, 76
4, 33209, Note_on_c, 1, 61, 0
4, 33209, Note_on_c, 1, 49, 0
4, 33216, Note_on_c, 1, 62, 80
4, 33216, Note_on_c, 1, 50, 80
4, 33261, Note_on_c, 1, 62, 0
4, 33261, Note_on_c, 1, 50, 0
4, 33408, Note_on_c, 1, 50, 80
4, 33408, Note_on_c, 1, 38, 80
4, 33453, Note_on_c, 1, 50, 0
4, 33453, Note_on_c, 1, 38, 0
4, 33540, Note_on_c, 1, 50, 80
4, 33540, Note_on_c, 1, 38, 80
4, 33552, Note_on_c, 1, 50, 0
4, 33552, Note_on_c, 1, 38, 0
4, 33552, Note_on_c, 1, 50, 80
4, 33552, Note_on_c, 1, 38, 80
4, 33586, Note_on_c, 1, 50, 0
4, 33586, Note_on_c, 1, 38, 0
4, 33588, Note_on_c, 1, 50, 80
4, 33588, Note_on_c, 1, 38, 80
4, 33600, Note_on_c, 1, 50, 0
4, 33600, Note_on_c, 1, 38, 0
4, 33600, Note_on_c, 1, 43, 80
4, 33600, Note_on_c, 1, 31, 80
4, 33689, Note_on_c, 1, 43, 0
4, 33689, Note_on_c, 1, 31, 0
4, 33696, Note_on_c, 1, 45, 80
4, 33741, Note_on_c, 1, 45, 0
4, 33744, Note_on_c, 1, 33, 80
4, 33789, Note_on_c, 1, 33, 0
4, 33792, Note_on_c, 1, 38, 80
4, 33881, Note_on_c, 1, 38, 0
4, 33904, Note_on_c, 1, 57, 75
4, 33919, Note_on_c, 1, 57, 0
4, 33920, Note_on_c, 1, 59, 75
4, 33935, Note_on_c, 1, 59, 0
4, 33936, Note_on_c, 1, 61, 75
4, 33951, Note_on_c, 1, 61, 0
4, 33952, Note_on_c, 1, 62, 75
4, 33967, Note_on_c, 1, 62, 0
4, 33968, Note_on_c, 1, 64, 75
4, 33983, Note_on_c, 1, 64, 0
4, 33984, Note_on_c, 1, 62, 75
4, 34073, Note_on_c, 1, 62, 0
4, 34096, Note_on_c, 1, 57, 75
4, 34111, Note_on_c, 1, 57, 0
4, 34112, Note_on_c, 1, 59, 75
4, 34127, Note_on_c, 1, 59, 0
4, 34128, Note_on_c, 1, 61, 75
4, 34143, Note_on_c, 1, 61, 0
4, 34144, Note_on_c, 1, 62, 75
4, 34159, Note_on_c, 1, 62, 0
4, 34160, Note_on_c, 1, 64, 75
4, 34175, Note_on_c, 1, 64, 0
4, 34176, Note_on_c, 1, 62, 75
4, 34265, Note_on_c, 1, 62, 0
4, 34272, Note_on_c, 1, 62, 75
4, 34272, Note_on_c, 1, 55, 75
4, 34361, Note_on_c, 1, 62, 0
4, 34361, Note_on_c, 1, 55, 0
4, 34416, Note_on_c, 1, 62, 75
4, 34512, Note_on_c, 1, 62, 0
4, 34512, Note_on_c, 1, 61, 75
4, 34557, Note_on_c, 1, 61, 0
4, 34560, Note_on_c, 1, 62, 75
4, 34649, Note_on_c, 1, 62, 0
4, 34656, Note_on_c, 1, 62, 75
4, 34656, Note_on_c, 1, 55, 75
4, 34745, Note_on_c, 1, 62, 0
4, 34745, Note_on_c, 1, 55, 0
4, 34800, Note_on_c, 1, 62, 75
4, 34896, Note_on_c, 1, 62, 0
4, 34896, Note_on_c, 1, 61, 75
4, 34941, Note_on_c, 1, 61, 0
4, 34944, Note_on_c, 1, 62, 75
4, 35033, Note_on_c, 1, 62, 0
4, 35088, Note_on_c, 1, 65, 56
4, 35088, Note_on_c, 1, 62, 56
4, 35133, Note_on_c, 1, 65, 0
4, 35133, Note_on_c, 1, 62, 0
4, 35136, Note_on_c, 1, 64, 56
4, 35225, Note_on_c, 1, 64, 0
4, 35232, Note_on_c, 1, 62, 58
4, 35321, Note_on_c, 1, 62, 0
4, 35328, Note_on_c, 1, 60, 60
4, 35417, Note_on_c, 1, 60, 0
4, 35424, Note_on_c, 1, 58, 62
4, 35513, Note_on_c, 1, 58, 0
4, 35520, Note_on_c, 1, 57, 64
4, 35705, Note_on_c, 1, 57, 0
4, 35712, Note_on_c, 1, 45, 68
4, 35757, Note_on_c, 1, 45, 0
4, 35760, Note_on_c, 1, 33, 68
4, 35805, Note_on_c, 1, 33, 0
4, 35856, Note_on_c, 1, 45, 80
4, 35856, Note_on_c, 1, 33, 80
4, 35901, Note_on_c, 1, 45, 0
4, 35901, Note_on_c, 1, 33, 0
4, 35952, Note_on_c, 1, 45, 80
4, 35952, Note_on_c, 1, 33, 80
4, 35997, Note_on_c, 1, 45, 0
4, 35997, Note_on_c, 1, 33, 0
4, 36048, Note_on_c, 1, 45, 80
4, 36048, Note_on_c, 1, 33, 80
4, 36093, Note_on_c, 1, 45, 0
4, 36093, Note_on_c, 1, 33, 0
4, 36096, Note_on_c, 1, 50, 80
4, 36096, Note_on_c, 1, 38, 80
4, 36185, Note_on_c, 1, 50, 0
4, 36185, Note_on_c, 1, 38, 0
4, 36336, Note_on_c, 1, 54, 80
4, 36381, Note_on_c, 1, 54, 0
4, 36384, Note_on_c, 1, 55, 74
4, 36429, Note_on_c, 1, 55, 0
4, 36432, Note_on_c, 1, 57, 68
4, 36477, Note_on_c, 1, 57, 0
4, 36480, Note_on_c, 1, 50, 75
4, 36569, Note_on_c, 1, 50, 0
4, 36720, Note_on_c, 1, 54, 75
4, 36765, Note_on_c, 1, 54, 0
4, 36768, Note_on_c, 1, 55, 71
4, 36813, Note_on_c, 1, 55, 0
4, 36816, Note_on_c, 1, 57, 67
4, 36861, Note_on_c, 1, 57, 0
4, 36864, Note_on_c, 1, 50, 63
4, 36909, Note_on_c, 1, 50, 0
4, 36912, Note_on_c, 1, 45, 63
4, 36957, Note_on_c, 1, 45, 0
4, 36960, Note_on_c, 1, 38, 63
4, 37005, Note_on_c, 1, 38, 0
4, 37104, Note_on_c, 1, 45, 75
4, 37104, Note_on_c, 1, 33, 75
4, 37149, Note_on_c, 1, 45, 0
4, 37149, Note_on_c, 1, 33, 0
4, 37200, Note_on_c, 1, 45, 75
4, 37200, Note_on_c, 1, 33, 75
4, 37245, Note_on_c, 1, 45, 0
4, 37245, Note_on_c, 1, 33, 0
4, 37296, Note_on_c, 1, 45, 75
4, 37296, Note_on_c, 1, 33, 75
4, 37341, Note_on_c, 1, 45, 0
4, 37341, Note_on_c, 1, 33, 0
4, 37344, Note_on_c, 1, 45, 75
4, 37344, Note_on_c, 1, 33, 75
4, 37389, Note_on_c, 1, 45, 0
4, 37389, Note_on_c, 1, 33, 0
4, 37392, Note_on_c, 1, 45, 75
4, 37392, Note_on_c, 1, 33, 75
4, 37437, Note_on_c, 1, 45, 0
4, 37437, Note_on_c, 1, 33, 0
4, 37488, Note_on_c, 1, 57, 75
4, 37488, Note_on_c, 1, 50, 75
4, 37533, Note_on_c, 1, 57, 0
4, 37533, Note_on_c, 1, 50, 0
4, 37536, Note_on_c, 1, 57, 75
4, 37536, Note_on_c, 1, 50, 75
4, 37581, Note_on_c, 1, 57, 0
4, 37581, Note_on_c, 1, 50, 0
4, 37584, Note_on_c, 1, 57, 75
4, 37584, Note_on_c, 1, 50, 75
4, 37629, Note_on_c, 1, 57, 0
4, 37629, Note_on_c, 1, 50, 0
4, 37680, Note_on_c, 1, 57, 75
4, 37680, Note_on_c, 1, 50, 75
4, 37725, Note_on_c, 1, 57, 0
4, 37725, Note_on_c, 1, 50, 0
4, 37728, Note_on_c, 1, 57, 75
4, 37728, Note_on_c, 1, 49, 75
4, 37773, Note_on_c, 1, 57, 0
4, 37773, Note_on_c, 1, 49, 0
4, 37776, Note_on_c, 1, 57, 75
4, 37776, Note_on_c, 1, 49, 75
4, 37821, Note_on_c, 1, 57, 0
4, 37821, Note_on_c, 1, 49, 0
4, 37824, Note_on_c, 1, 59, 75
4, 37869, Note_on_c, 1, 59, 0
4, 37872, Note_on_c, 1, 56, 75
4, 37917, Note_on_c, 1, 56, 0
4, 37920, Note_on_c, 1, 57, 75
4, 37965, Note_on_c, 1, 57, 0
4, 37968, Note_on_c, 1, 45, 75
4, 38013, Note_on_c, 1, 45, 0
4, 38016, Note_on_c, 1, 52, 75
4, 38105, Note_on_c, 1, 52, 0
4, 38112, Note_on_c, 1, 40, 75
4, 38157, Note_on_c, 1, 40, 0
4, 38256, Note_on_c, 1, 67, 56
4, 38256, Note_on_c, 1, 64, 56
4, 38303, Note_on_c, 1, 67, 0
4, 38303, Note_on_c, 1, 64, 0
4, 38304, Note_on_c, 1, 67, 56
4, 38304, Note_on_c, 1, 64, 56
4, 38351, Note_on_c, 1, 67, 0
4, 38351, Note_on_c, 1, 64, 0
4, 38352, Note_on_c, 1, 67, 56
4, 38352, Note_on_c, 1, 64, 56
4, 38399, Note_on_c, 1, 67, 0
4, 38399, Note_on_c, 1, 64, 0
4, 38448, Note_on_c, 1, 66, 56
4, 38448, Note_on_c, 1, 64, 56
4, 38495, Note_on_c, 1, 66, 0
4, 38495, Note_on_c, 1, 64, 0
4, 38496, Note_on_c, 1, 66, 56
4, 38496, Note_on_c, 1, 64, 56
4, 38543, Note_on_c, 1, 66, 0
4, 38543, Note_on_c, 1, 64, 0
4, 38544, Note_on_c, 1, 66, 56
4, 38544, Note_on_c, 1, 64, 56
4, 38591, Note_on_c, 1, 66, 0
4, 38591, Note_on_c, 1, 64, 0
4, 38640, Note_on_c, 1, 66, 56
4, 38640, Note_on_c, 1, 62, 56
4, 38687, Note_on_c, 1, 66, 0
4, 38687, Note_on_c, 1, 62, 0
4, 38688, Note_on_c, 1, 66, 56
4, 38688, Note_on_c, 1, 62, 56
4, 38735, Note_on_c, 1, 66, 0
4, 38735, Note_on_c, 1, 62, 0
4, 38736, Note_on_c, 1, 66, 56
4, 38736, Note_on_c, 1, 62, 56
4, 38783, Note_on_c, 1, 66, 0
4, 38783, Note_on_c, 1, 62, 0
4, 38832, Note_on_c, 1, 64, 56
4, 38832, Note_on_c, 1, 62, 56
4, 38879, Note_on_c, 1, 64, 0
4, 38879, Note_on_c, 1, 62, 0
4, 38880, Note_on_c, 1, 64, 56
4, 38880, Note_on_c, 1, 62, 56
4, 38927, Note_on_c, 1, 64, 0
4, 38927, Note_on_c, 1, 62, 0
4, 38928, Note_on_c, 1, 64, 56
4, 38928, Note_on_c, 1, 62, 56
4, 38975, Note_on_c, 1, 64, 0
4, 38975, Note_on_c, 1, 62, 0
4, 39024, Note_on_c, 1, 64, 56
4, 39024, Note_on_c, 1, 61, 56
4, 39071, Note_on_c, 1, 64, 0
4, 39071, Note_on_c, 1, 61, 0
4, 39072, Note_on_c, 1, 64, 56
4, 39072, Note_on_c, 1, 61, 56
4, 39119, Note_on_c, 1, 64, 0
4, 39119, Note_on_c, 1, 61, 0
4, 39120, Note_on_c, 1, 64, 56
4, 39120, Note_on_c, 1, 61, 56
4, 39167, Note_on_c, 1, 64, 0
4, 39167, Note_on_c, 1, 61, 0
4, 39168, Note_on_c, 1, 61, 63
4, 39168, Note_on_c, 1, 58, 63
4, 39345, Note_on_c, 1, 61, 0
4, 39345, Note_on_c, 1, 58, 0
4, 39456, Note_on_c, 1, 50, 63
4, 39456, Note_on_c, 1, 38, 63
4, 39545, Note_on_c, 1, 50, 0
4, 39545, Note_on_c, 1, 38, 0
4, 39552, Note_on_c, 1, 52, 63
4, 39552, Note_on_c, 1, 40, 63
4, 39641, Note_on_c, 1, 52, 0
4, 39641, Note_on_c, 1, 40, 0
4, 39648, Note_on_c, 1, 54, 64
4, 39648, Note_on_c, 1, 42, 64
4, 39737, Note_on_c, 1, 54, 0
4, 39737, Note_on_c, 1, 42, 0
4, 39744, Note_on_c, 1, 55, 66
4, 39744, Note_on_c, 1, 43, 66
4, 39833, Note_on_c, 1, 55, 0
4, 39833, Note_on_c, 1, 43, 0
4, 39840, Note_on_c, 1, 57, 68
4, 39840, Note_on_c, 1, 45, 68
4, 39929, Note_on_c, 1, 57, 0
4, 39929, Note_on_c, 1, 45, 0
4, 39936, Note_on_c, 1, 59, 69
4, 39936, Note_on_c, 1, 47, 69
4, 40025, Note_on_c, 1, 59, 0
4, 40025, Note_on_c, 1, 47, 0
4, 40032, Note_on_c, 1, 61, 71
4, 40032, Note_on_c, 1, 49, 71
4, 40121, Note_on_c, 1, 61, 0
4, 40121, Note_on_c, 1, 49, 0
4, 40128, Note_on_c, 1, 62, 73
4, 40128, Note_on_c, 1, 50, 73
4, 40217, Note_on_c, 1, 62, 0
4, 40217, Note_on_c, 1, 50, 0
4, 40224, Note_on_c, 1, 56, 75
4, 40224, Note_on_c, 1, 44, 75
4, 40313, Note_on_c, 1, 56, 0
4, 40313, Note_on_c, 1, 44, 0
4, 40320, Note_on_c, 1, 57, 75
4, 40320, Note_on_c, 1, 45, 75
4, 40409, Note_on_c, 1, 57, 0
4, 40409, Note_on_c, 1, 45, 0
4, 40416, Note_on_c, 1, 56, 75
4, 40416, Note_on_c, 1, 44, 75
4, 40505, Note_on_c, 1, 56, 0
4, 40505, Note_on_c, 1, 44, 0
4, 40512, Note_on_c, 1, 57, 75
4, 40512, Note_on_c, 1, 45, 75
4, 40601, Note_on_c, 1, 57, 0
4, 40601, Note_on_c, 1, 45, 0
4, 40608, Note_on_c, 1, 62, 75
4, 40752, Note_on_c, 1, 62, 0
4, 40752, Note_on_c, 1, 61, 75
4, 40830, Note_on_c, 1, 61, 0
4, 40944, Note_on_c, 1, 50, 75
4, 40944, Note_on_c, 1, 38, 75
4, 40989, Note_on_c, 1, 50, 0
4, 40989, Note_on_c, 1, 38, 0
4, 41040, Note_on_c, 1, 50, 75
4, 41040, Note_on_c, 1, 38, 75
4, 41085, Note_on_c, 1, 50, 0
4, 41085, Note_on_c, 1, 38, 0
4, 41136, Note_on_c, 1, 50, 75
4, 41136, Note_on_c, 1, 38, 75
4, 41181, Note_on_c, 1, 50, 0
4, 41181, Note_on_c, 1, 38, 0
4, 41184, Note_on_c, 1, 50, 75
4, 41184, Note_on_c, 1, 38, 75
4, 41229, Note_on_c, 1, 50, 0
4, 41229, Note_on_c, 1, 38, 0
4, 41232, Note_on_c, 1, 50, 75
4, 41232, Note_on_c, 1, 38, 75
4, 41277, Note_on_c, 1, 50, 0
4, 41277, Note_on_c, 1, 38, 0
4, 41328, Note_on_c, 1, 55, 75
4, 41373, Note_on_c, 1, 55, 0
4, 41376, Note_on_c, 1, 55, 75
4, 41421, Note_on_c, 1, 55, 0
4, 41424, Note_on_c, 1, 52, 75
4, 41469, Note_on_c, 1, 52, 0
4, 41472, Note_on_c, 1, 57, 75
4, 41517, Note_on_c, 1, 57, 0
4, 41520, Note_on_c, 1, 45, 71
4, 41565, Note_on_c, 1, 45, 0
4, 41568, Note_on_c, 1, 50, 68
4, 41635, Note_on_c, 1, 50, 0
4, 41712, Note_on_c, 1, 50, 75
4, 41712, Note_on_c, 1, 38, 75
4, 41757, Note_on_c, 1, 50, 0
4, 41757, Note_on_c, 1, 38, 0
4, 41808, Note_on_c, 1, 50, 75
4, 41808, Note_on_c, 1, 38, 75
4, 41853, Note_on_c, 1, 50, 0
4, 41853, Note_on_c, 1, 38, 0
4, 41904, Note_on_c, 1, 50, 75
4, 41904, Note_on_c, 1, 38, 75
4, 41949, Note_on_c, 1, 50, 0
4, 41949, Note_on_c, 1, 38, 0
4, 41952, Note_on_c, 1, 50, 75
4, 41952, Note_on_c, 1, 38, 75
4, 41997, Note_on_c, 1, 50, 0
4, 41997, Note_on_c, 1, 38, 0
4, 42000, Note_on_c, 1, 50, 75
4, 42000, Note_on_c, 1, 38, 75
4, 42045, Note_on_c, 1, 50, 0
4, 42045, Note_on_c, 1, 38, 0
4, 42096, Note_on_c, 1, 62, 63
4, 42143, Note_on_c, 1, 62, 0
4, 42144, Note_on_c, 1, 62, 63
4, 42191, Note_on_c, 1, 62, 0
4, 42192, Note_on_c, 1, 62, 63
4, 42239, Note_on_c, 1, 62, 0
4, 42288, Note_on_c, 1, 62, 63
4, 42335, Note_on_c, 1, 62, 0
4, 42336, Note_on_c, 1, 62, 63
4, 42383, Note_on_c, 1, 62, 0
4, 42384, Note_on_c, 1, 62, 63
4, 42431, Note_on_c, 1, 62, 0
4, 42432, Note_on_c, 1, 52, 75
4, 42477, Note_on_c, 1, 52, 0
4, 42480, Note_on_c, 1, 49, 75
4, 42525, Note_on_c, 1, 49, 0
4, 42528, Note_on_c, 1, 50, 75
4, 42573, Note_on_c, 1, 50, 0
4, 42576, Note_on_c, 1, 38, 75
4, 42621, Note_on_c, 1, 38, 0
4, 42624, Note_on_c, 1, 52, 75
4, 42669, Note_on_c, 1, 52, 0
4, 42672, Note_on_c, 1, 49, 76
4, 42717, Note_on_c, 1, 49, 0
4, 42720, Note_on_c, 1, 50, 77
4, 42765, Note_on_c, 1, 50, 0
4, 42768, Note_on_c, 1, 44, 78
4, 42813, Note_on_c, 1, 44, 0
4, 42816, Note_on_c, 1, 45, 80
4, 42905, Note_on_c, 1, 45, 0
4, 43008, Note_on_c, 1, 57, 68
4, 43008, Note_on_c, 1, 54, 68
4, 43008, Note_on_c, 1, 50, 68
4, 43053, Note_on_c, 1, 57, 0
4, 43053, Note_on_c, 1, 54, 0
4, 43053, Note_on_c, 1, 50, 0
4, 43056, Note_on_c, 1, 57, 68
4, 43056, Note_on_c, 1, 54, 68
4, 43056, Note_on_c, 1, 50, 68
4, 43076, Note_on_c, 1, 57, 0
4, 43076, Note_on_c, 1, 54, 0
4, 43076, Note_on_c, 1, 50, 0
4, 43104, Note_on_c, 1, 57, 68
4, 43104, Note_on_c, 1, 54, 68
4, 43104, Note_on_c, 1, 50, 68
4, 43149, Note_on_c, 1, 57, 0
4, 43149, Note_on_c, 1, 54, 0
4, 43149, Note_on_c, 1, 50, 0
4, 43152, Note_on_c, 1, 57, 68
4, 43152, Note_on_c, 1, 54, 68
4, 43152, Note_on_c, 1, 50, 68
4, 43172, Note_on_c, 1, 57, 0
4, 43172, Note_on_c, 1, 54, 0
4, 43172, Note_on_c, 1, 50, 0
4, 43200, Note_on_c, 1, 57, 68
4, 43200, Note_on_c, 1, 55, 68
4, 43200, Note_on_c, 1, 49, 68
4, 43377, Note_on_c, 1, 57, 0
4, 43377, Note_on_c, 1, 55, 0
4, 43377, Note_on_c, 1, 49, 0
4, 43392, Note_on_c, 1, 57, 68
4, 43392, Note_on_c, 1, 54, 68
4, 43392, Note_on_c, 1, 50, 68
4, 43437, Note_on_c, 1, 57, 0
4, 43437, Note_on_c, 1, 54, 0
4, 43437, Note_on_c, 1, 50, 0
4, 43440, Note_on_c, 1, 57, 68
4, 43440, Note_on_c, 1, 54, 68
4, 43440, Note_on_c, 1, 50, 68
4, 43460, Note_on_c, 1, 57, 0
4, 43460, Note_on_c, 1, 54, 0
4, 43460, Note_on_c, 1, 50, 0
4, 43488, Note_on_c, 1, 57, 68
4, 43488, Note_on_c, 1, 54, 68
4, 43488, Note_on_c, 1, 50, 68
4, 43533, Note_on_c, 1, 57, 0
4, 43533, Note_on_c, 1, 54, 0
4, 43533, Note_on_c, 1, 50, 0
4, 43536, Note_on_c, 1, 57, 68
4, 43536, Note_on_c, 1, 54, 68
4, 43536, Note_on_c, 1, 50, 68
4, 43556, Note_on_c, 1, 57, 0
4, 43556, Note_on_c, 1, 54, 0
4, 43556, Note_on_c, 1, 50, 0
4, 43584, Note_on_c, 1, 57, 68
4, 43584, Note_on_c, 1, 55, 68
4, 43584, Note_on_c, 1, 49, 68
4, 43761, Note_on_c, 1, 57, 0
4, 43761, Note_on_c, 1, 55, 0
4, 43761, Note_on_c, 1, 49, 0
4, 43776, Note_on_c, 1, 57, 63
4, 43776, Note_on_c, 1, 54, 63
4, 43776, Note_on_c, 1, 50, 63
4, 43865, Note_on_c, 1, 57, 0
4, 43865, Note_on_c, 1, 54, 0
4, 43865, Note_on_c, 1, 50, 0
4, 43968, Note_on_c, 1, 42, 75
4, 43968, Note_on_c, 1, 30, 75
4, 44057, Note_on_c, 1, 42, 0
4, 44057, Note_on_c, 1, 30, 0
4, 44064, Note_on_c, 1, 43, 75
4, 44064, Note_on_c, 1, 31, 75
4, 44153, Note_on_c, 1, 43, 0
4, 44153, Note_on_c, 1, 31, 0
4, 44160, Note_on_c, 1, 45, 76
4, 44160, Note_on_c, 1, 33, 76
4, 44249, Note_on_c, 1, 45, 0
4, 44249, Note_on_c, 1, 33, 0
4, 44256, Note_on_c, 1, 47, 77
4, 44256, Note_on_c, 1, 35, 77
4, 44345, Note_on_c, 1, 47, 0
4, 44345, Note_on_c, 1, 35, 0
4, 44352, Note_on_c, 1, 49, 78
4, 44352, Note_on_c, 1, 37, 78
4, 44441, Note_on_c, 1, 49, 0
4, 44441, Note_on_c, 1, 37, 0
4, 44448, Note_on_c, 1, 50, 79
4, 44448, Note_on_c, 1, 38, 79
4, 44537, Note_on_c, 1, 50, 0
4, 44537, Note_on_c, 1, 38, 0
4, 44544, Note_on_c, 1, 49, 80
4, 44544, Note_on_c, 1, 37, 80
4, 44633, Note_on_c, 1, 49, 0
4, 44633, Note_on_c, 1, 37, 0
4, 44640, Note_on_c, 1, 50, 80
4, 44640, Note_on_c, 1, 38, 80
4, 44729, Note_on_c, 1, 50, 0
4, 44729, Note_on_c, 1, 38, 0
4, 44784, Note_on_c, 1, 62, 56
4, 44784, Note_on_c, 1, 55, 56
4, 44831, Note_on_c, 1, 62, 0
4, 44831, Note_on_c, 1, 55, 0
4, 44832, Note_on_c, 1, 62, 56
4, 44832, Note_on_c, 1, 55, 56
4, 44879, Note_on_c, 1, 62, 0
4, 44879, Note_on_c, 1, 55, 0
4, 44880, Note_on_c, 1, 62, 56
4, 44880, Note_on_c, 1, 55, 56
4, 44927, Note_on_c, 1, 62, 0
4, 44927, Note_on_c, 1, 55, 0
4, 44976, Note_on_c, 1, 61, 57
4, 44976, Note_on_c, 1, 52, 57
4, 45023, Note_on_c, 1, 61, 0
4, 45023, Note_on_c, 1, 52, 0
4, 45024, Note_on_c, 1, 61, 58
4, 45024, Note_on_c, 1, 52, 58
4, 45071, Note_on_c, 1, 61, 0
4, 45071, Note_on_c, 1, 52, 0
4, 45072, Note_on_c, 1, 61, 58
4, 45072, Note_on_c, 1, 52, 58
4, 45119, Note_on_c, 1, 61, 0
4, 45119, Note_on_c, 1, 52, 0
4, 45168, Note_on_c, 1, 61, 59
4, 45168, Note_on_c, 1, 54, 59
4, 45215, Note_on_c, 1, 61, 0
4, 45215, Note_on_c, 1, 54, 0
4, 45216, Note_on_c, 1, 61, 60
4, 45216, Note_on_c, 1, 54, 60
4, 45263, Note_on_c, 1, 61, 0
4, 45263, Note_on_c, 1, 54, 0
4, 45264, Note_on_c, 1, 61, 60
4, 45264, Note_on_c, 1, 54, 60
4, 45311, Note_on_c, 1, 61, 0
4, 45311, Note_on_c, 1, 54, 0
4, 45360, Note_on_c, 1, 59, 61
4, 45360, Note_on_c, 1, 50, 61
4, 45407, Note_on_c, 1, 59, 0
4, 45407, Note_on_c, 1, 50, 0
4, 45408, Note_on_c, 1, 59, 61
4, 45408, Note_on_c, 1, 50, 61
4, 45455, Note_on_c, 1, 59, 0
4, 45455, Note_on_c, 1, 50, 0
4, 45456, Note_on_c, 1, 59, 62
4, 45456, Note_on_c, 1, 50, 62
4, 45503, Note_on_c, 1, 59, 0
4, 45503, Note_on_c, 1, 50, 0
4, 45552, Note_on_c, 1, 59, 63
4, 45552, Note_on_c, 1, 52, 63
4, 45599, Note_on_c, 1, 59, 0
4, 45599, Note_on_c, 1, 52, 0
4, 45600, Note_on_c, 1, 59, 63
4, 45600, Note_on_c, 1, 52, 63
4, 45647, Note_on_c, 1, 59, 0
4, 45647, Note_on_c, 1, 52, 0
4, 45648, Note_on_c, 1, 59, 64
4, 45648, Note_on_c, 1, 52, 64
4, 45695, Note_on_c, 1, 59, 0
4, 45695, Note_on_c, 1, 52, 0
4, 45744, Note_on_c, 1, 57, 64
4, 45744, Note_on_c, 1, 49, 64
4, 45791, Note_on_c, 1, 57, 0
4, 45791, Note_on_c, 1, 49, 0
4, 45792, Note_on_c, 1, 57, 65
4, 45792, Note_on_c, 1, 49, 65
4, 45839, Note_on_c, 1, 57, 0
4, 45839, Note_on_c, 1, 49, 0
4, 45840, Note_on_c, 1, 57, 65
4, 45840, Note_on_c, 1, 49, 65
4, 45887, Note_on_c, 1, 57, 0
4, 45887, Note_on_c, 1, 49, 0
4, 45936, Note_on_c, 1, 57, 66
4, 45936, Note_on_c, 1, 50, 66
4, 45983, Note_on_c, 1, 57, 0
4, 45983, Note_on_c, 1, 50, 0
4, 45984, Note_on_c, 1, 57, 67
4, 45984, Note_on_c, 1, 50, 67
4, 46031, Note_on_c, 1, 57, 0
4, 46031, Note_on_c, 1, 50, 0
4, 46032, Note_on_c, 1, 57, 67
4, 46032, Note_on_c, 1, 50, 67
4, 46079, Note_on_c, 1, 57, 0
4, 46079, Note_on_c, 1, 50, 0
4, 46128, Note_on_c, 1, 50, 68
4, 46128, Note_on_c, 1, 42, 68
4, 46173, Note_on_c, 1, 50, 0
4, 46173, Note_on_c, 1, 42, 0
4, 46176, Note_on_c, 1, 50, 68
4, 46176, Note_on_c, 1, 42, 68
4, 46221, Note_on_c, 1, 50, 0
4, 46221, Note_on_c, 1, 42, 0
4, 46224, Note_on_c, 1, 50, 68
4, 46224, Note_on_c, 1, 43, 68
4, 46269, Note_on_c, 1, 50, 0
4, 46269, Note_on_c, 1, 43, 0
4, 46272, Note_on_c, 1, 50, 86
4, 46317, Note_on_c, 1, 50, 0
4, 46320, Note_on_c, 1, 49, 83
4, 46365, Note_on_c, 1, 49, 0
4, 46368, Note_on_c, 1, 50, 80
4, 46368, Note_on_c, 1, 42, 80
4, 46413, Note_on_c, 1, 50, 0
4, 46413, Note_on_c, 1, 42, 0
4, 46416, Note_on_c, 1, 50, 83
4, 46416, Note_on_c, 1, 43, 83
4, 46461, Note_on_c, 1, 50, 0
4, 46461, Note_on_c, 1, 43, 0
4, 46464, Note_on_c, 1, 50, 86
4, 46509, Note_on_c, 1, 50, 0
4, 46512, Note_on_c, 1, 49, 83
4, 46557, Note_on_c, 1, 49, 0
4, 46560, Note_on_c, 1, 50, 80
4, 46560, Note_on_c, 1, 42, 80
4, 46605, Note_on_c, 1, 50, 0
4, 46605, Note_on_c, 1, 42, 0
4, 46608, Note_on_c, 1, 50, 83
4, 46608, Note_on_c, 1, 43, 83
4, 46653, Note_on_c, 1, 50, 0
4, 46653, Note_on_c, 1, 43, 0
4, 46656, Note_on_c, 1, 50, 86
4, 46752, Note_on_c, 1, 50, 0
4, 46752, Note_on_c, 1, 49, 63
4, 46841, Note_on_c, 1, 49, 0
4, 46944, Note_on_c, 1, 54, 63
4, 46944, Note_on_c, 1, 42, 63
4, 47033, Note_on_c, 1, 54, 0
4, 47033, Note_on_c, 1, 42, 0
4, 47040, Note_on_c, 1, 55, 66
4, 47040, Note_on_c, 1, 43, 66
4, 47129, Note_on_c, 1, 55, 0
4, 47129, Note_on_c, 1, 43, 0
4, 47136, Note_on_c, 1, 57, 69
4, 47136, Note_on_c, 1, 45, 69
4, 47225, Note_on_c, 1, 57, 0
4, 47225, Note_on_c, 1, 45, 0
4, 47232, Note_on_c, 1, 59, 73
4, 47232, Note_on_c, 1, 47, 73
4, 47321, Note_on_c, 1, 59, 0
4, 47321, Note_on_c, 1, 47, 0
4, 47328, Note_on_c, 1, 61, 76
4, 47328, Note_on_c, 1, 49, 76
4, 47417, Note_on_c, 1, 61, 0
4, 47417, Note_on_c, 1, 49, 0
4, 47424, Note_on_c, 1, 62, 80
4, 47424, Note_on_c, 1, 50, 80
4, 47469, Note_on_c, 1, 62, 0
4, 47469, Note_on_c, 1, 50, 0
4, 47616, Note_on_c, 1, 50, 80
4, 47616, Note_on_c, 1, 38, 80
4, 47661, Note_on_c, 1, 50, 0
4, 47661, Note_on_c, 1, 38, 0
4, 47748, Note_on_c, 1, 50, 80
4, 47748, Note_on_c, 1, 38, 80
4, 47760, Note_on_c, 1, 50, 0
4, 47760, Note_on_c, 1, 38, 0
4, 47760, Note_on_c, 1, 50, 80
4, 47760, Note_on_c, 1, 38, 80
4, 47794, Note_on_c, 1, 50, 0
4, 47794, Note_on_c, 1, 38, 0
4, 47796, Note_on_c, 1, 50, 80
4, 47796, Note_on_c, 1, 38, 80
4, 47808, Note_on_c, 1, 50, 0
4, 47808, Note_on_c, 1, 38, 0
4, 47808, Note_on_c, 1, 43, 80
4, 47808, Note_on_c, 1, 31, 80
4, 47897, Note_on_c, 1, 43, 0
4, 47897, Note_on_c, 1, 31, 0
4, 47904, Note_on_c, 1, 45, 80
4, 47949, Note_on_c, 1, 45, 0
4, 47952, Note_on_c, 1, 33, 80
4, 47997, Note_on_c, 1, 33, 0
4, 48000, Note_on_c, 1, 38, 80
4, 48089, Note_on_c, 1, 38, 0
4, 48112, Note_on_c, 1, 57, 75
4, 48127, Note_on_c, 1, 57, 0
4, 48128, Note_on_c, 1, 59, 75
4, 48143, Note_on_c, 1, 59, 0
4, 48144, Note_on_c, 1, 61, 75
4, 48159, Note_on_c, 1, 61, 0
4, 48160, Note_on_c, 1, 62, 75
4, 48175, Note_on_c, 1, 62, 0
4, 48176, Note_on_c, 1, 64, 75
4, 48191, Note_on_c, 1, 64, 0
4, 48192, Note_on_c, 1, 62, 75
4, 48281, Note_on_c, 1, 62, 0
4, 48304, Note_on_c, 1, 57, 75
4, 48319, Note_on_c, 1, 57, 0
4, 48320, Note_on_c, 1, 59, 75
4, 48335, Note_on_c, 1, 59, 0
4, 48336, Note_on_c, 1, 61, 75
4, 48351, Note_on_c, 1, 61, 0
4, 48352, Note_on_c, 1, 62, 75
4, 48367, Note_on_c, 1, 62, 0
4, 48368, Note_on_c, 1, 64, 75
4, 48383, Note_on_c, 1, 64, 0
4, 48384, Note_on_c, 1, 62, 75
4, 48473, Note_on_c, 1, 62, 0
4, 48480, Note_on_c, 1, 62, 75
4, 48480, Note_on_c, 1, 55, 75
4, 48569, Note_on_c, 1, 62, 0
4, 48569, Note_on_c, 1, 55, 0
4, 48624, Note_on_c, 1, 62, 75
4, 48720, Note_on_c, 1, 62, 0
4, 48720, Note_on_c, 1, 61, 75
4, 48765, Note_on_c, 1, 61, 0
4, 48768, Note_on_c, 1, 62, 75
4, 48857, Note_on_c, 1, 62, 0
4, 48864, Note_on_c, 1, 62, 75
4, 48864, Note_on_c, 1, 55, 75
4, 48953, Note_on_c, 1, 62, 0
4, 48953, Note_on_c, 1, 55, 0
4, 49008, Note_on_c, 1, 62, 75
4, 49104, Note_on_c, 1, 62, 0
4, 49104, Note_on_c, 1, 61, 75
4, 49149, Note_on_c, 1, 61, 0
4, 49152, Note_on_c, 1, 62, 75
4, 49241, Note_on_c, 1, 62, 0
4, 49296, Note_on_c, 1, 65, 56
4, 49296, Note_on_c, 1, 62, 56
4, 49341, Note_on_c, 1, 65, 0
4, 49341, Note_on_c, 1, 62, 0
4, 49344, Note_on_c, 1, 64, 56
4, 49433, Note_on_c, 1, 64, 0
4, 49440, Note_on_c, 1, 62, 58
4, 49529, Note_on_c, 1, 62, 0
4, 49536, Note_on_c, 1, 60, 60
4, 49625, Note_on_c, 1, 60, 0
4, 49632, Note_on_c, 1, 58, 62
4, 49721, Note_on_c, 1, 58, 0
4, 49728, Note_on_c, 1, 57, 64
4, 49913, Note_on_c, 1, 57, 0
4, 49920, Note_on_c, 1, 45, 68
4, 49965, Note_on_c, 1, 45, 0
4, 49968, Note_on_c, 1, 33, 68
4, 50013, Note_on_c, 1, 33, 0
4, 50064, Note_on_c, 1, 45, 80
4, 50064, Note_on_c, 1, 33, 80
4, 50109, Note_on_c, 1, 45, 0
4, 50109, Note_on_c, 1, 33, 0
4, 50160, Note_on_c, 1, 45, 80
4, 50160, Note_on_c, 1, 33, 80
4, 50205, Note_on_c, 1, 45, 0
4, 50205, Note_on_c, 1, 33, 0
4, 50256, Note_on_c, 1, 45, 80
4, 50256, Note_on_c, 1, 33, 80
4, 50301, Note_on_c, 1, 45, 0
4, 50301, Note_on_c, 1, 33, 0
4, 50304, Note_on_c, 1, 50, 80
4, 50304, Note_on_c, 1, 38, 80
4, 50393, Note_on_c, 1, 50, 0
4, 50393, Note_on_c, 1, 38, 0
4, 50544, Note_on_c, 1, 54, 80
4, 50589, Note_on_c, 1, 54, 0
4, 50592, Note_on_c, 1, 55, 74
4, 50637, Note_on_c, 1, 55, 0
4, 50640, Note_on_c, 1, 57, 68
4, 50685, Note_on_c, 1, 57, 0
4, 50688, Note_on_c, 1, 50, 75
4, 50777, Note_on_c, 1, 50, 0
4, 50928, Note_on_c, 1, 54, 75
4, 50973, Note_on_c, 1, 54, 0
4, 50976, Note_on_c, 1, 55, 71
4, 51021, Note_on_c, 1, 55, 0
4, 51024, Note_on_c, 1, 57, 67
4, 51069, Note_on_c, 1, 57, 0
4, 51072, Note_on_c, 1, 50, 63
4, 51117, Note_on_c, 1, 50, 0
4, 51120, Note_on_c, 1, 45, 63
4, 51165, Note_on_c, 1, 45, 0
4, 51168, Note_on_c, 1, 38, 63
4, 51213, Note_on_c, 1, 38, 0
4, 51252, Note_on_c, 1, 38, 0
4, 51264, Note_on_c, 1, 38, 0
4, 51264, End_track
5, 0, Start_track
5, 0, Program_c, 1, 0
5, 0, Control_c, 1, 7, 127
5, 0, Control_c, 1, 10, 64
5, 720, Note_on_c, 1, 59, 64
5, 765, Note_on_c, 1, 59, 0
5, 768, Note_on_c, 1, 57, 64
5, 813, Note_on_c, 1, 57, 0
5, 816, Note_on_c, 1, 55, 64
5, 861, Note_on_c, 1, 55, 0
5, 864, Note_on_c, 1, 54, 64
5, 931, Note_on_c, 1, 54, 0
5, 1392, Note_on_c, 1, 55, 63
5, 1439, Note_on_c, 1, 55, 0
5, 1440, Note_on_c, 1, 55, 63
5, 1487, Note_on_c, 1, 55, 0
5, 1488, Note_on_c, 1, 55, 63
5, 1535, Note_on_c, 1, 55, 0
5, 1584, Note_on_c, 1, 55, 63
5, 1632, Note_on_c, 1, 55, 0
5, 1632, Note_on_c, 1, 54, 63
5, 1679, Note_on_c, 1, 54, 0
5, 1680, Note_on_c, 1, 54, 63
5, 1727, Note_on_c, 1, 54, 0
5, 2928, Note_on_c, 1, 58, 63
5, 2976, Note_on_c, 1, 58, 0
5, 2976, Note_on_c, 1, 59, 63
5, 3021, Note_on_c, 1, 59, 0
5, 3120, Note_on_c, 1, 56, 63
5, 3168, Note_on_c, 1, 56, 0
5, 3168, Note_on_c, 1, 57, 63
5, 3213, Note_on_c, 1, 57, 0
5, 4608, Note_on_c, 1, 49, 75
5, 4608, Note_on_c, 1, 37, 75
5, 4697, Note_on_c, 1, 49, 0
5, 4697, Note_on_c, 1, 37, 0
5, 4704, Note_on_c, 1, 50, 75
5, 4704, Note_on_c, 1, 38, 75
5, 4793, Note_on_c, 1, 50, 0
5, 4793, Note_on_c, 1, 38, 0
5, 6912, Note_on_c, 1, 52, 80
5, 7001, Note_on_c, 1, 52, 0
5, 7104, Note_on_c, 1, 52, 80
5, 7193, Note_on_c, 1, 52, 0
5, 7296, Note_on_c, 1, 52, 80
5, 7473, Note_on_c, 1, 52, 0
5, 7584, Note_on_c, 1, 49, 75
5, 7584, Note_on_c, 1, 37, 75
5, 7673, Note_on_c, 1, 49, 0
5, 7673, Note_on_c, 1, 37, 0
5, 9264, Note_on_c, 1, 49, 75
5, 9309, Note_on_c, 1, 49, 0
5, 9312, Note_on_c, 1, 50, 75
5, 9357, Note_on_c, 1, 50, 0
5, 9360, Note_on_c, 1, 52, 75
5, 9405, Note_on_c, 1, 52, 0
5, 9648, Note_on_c, 1, 49, 75
5, 9693, Note_on_c, 1, 49, 0
5, 9696, Note_on_c, 1, 50, 75
5, 9741, Note_on_c, 1, 50, 0
5, 9744, Note_on_c, 1, 52, 75
5, 9789, Note_on_c, 1, 52, 0
5, 9936, Note_on_c, 1, 69, 56
5, 10029, Note_on_c, 1, 69, 0
5, 10032, Note_on_c, 1, 67, 57
5, 10125, Note_on_c, 1, 67, 0
5, 10128, Note_on_c, 1, 65, 59
5, 10221, Note_on_c, 1, 65, 0
5, 10224, Note_on_c, 1, 64, 61
5, 10317, Note_on_c, 1, 64, 0
5, 10320, Note_on_c, 1, 62, 63
5, 10413, Note_on_c, 1, 62, 0
5, 10416, Note_on_c, 1, 60, 65
5, 10461, Note_on_c, 1, 60, 0
5, 10464, Note_on_c, 1, 56, 66
5, 10509, Note_on_c, 1, 56, 0
5, 10512, Note_on_c, 1, 57, 67
5, 10557, Note_on_c, 1, 57, 0
5, 11184, Note_on_c, 1, 61, 63
5, 11184, Note_on_c, 1, 49, 63
5, 11229, Note_on_c, 1, 61, 0
5, 11229, Note_on_c, 1, 49, 0
5, 11232, Note_on_c, 1, 62, 63
5, 11232, Note_on_c, 1, 50, 63
5, 11277, Note_on_c, 1, 62, 0
5, 11277, Note_on_c, 1, 50, 0
5, 11280, Note_on_c, 1, 64, 63
5, 11280, Note_on_c, 1, 52, 63
5, 11325, Note_on_c, 1, 64, 0
5, 11325, Note_on_c, 1, 52, 0
5, 12048, Note_on_c, 1, 59, 64
5, 12093, Note_on_c, 1, 59, 0
5, 12096, Note_on_c, 1, 57, 64
5, 12141, Note_on_c, 1, 57, 0
5, 12144, Note_on_c, 1, 55, 64
5, 12189, Note_on_c, 1, 55, 0
5, 12192, Note_on_c, 1, 54, 64
5, 12259, Note_on_c, 1, 54, 0
5, 12720, Note_on_c, 1, 55, 63
5, 12767, Note_on_c, 1, 55, 0
5, 12768, Note_on_c, 1, 55, 63
5, 12815, Note_on_c, 1, 55, 0
5, 12816, Note_on_c, 1, 55, 63
5, 12863, Note_on_c, 1, 55, 0
5, 12912, Note_on_c, 1, 55, 63
5, 12960, Note_on_c, 1, 55, 0
5, 12960, Note_on_c, 1, 54, 63
5, 13007, Note_on_c, 1, 54, 0
5, 13008, Note_on_c, 1, 54, 63
5, 13055, Note_on_c, 1, 54, 0
5, 14256, Note_on_c, 1, 58, 63
5, 14304, Note_on_c, 1, 58, 0
5, 14304, Note_on_c, 1, 59, 63
5, 14349, Note_on_c, 1, 59, 0
5, 14448, Note_on_c, 1, 56, 63
5, 14496, Note_on_c, 1, 56, 0
5, 14496, Note_on_c, 1, 57, 63
5, 14541, Note_on_c, 1, 57, 0
5, 15936, Note_on_c, 1, 49, 75
5, 15936, Note_on_c, 1, 37, 75
5, 16025, Note_on_c, 1, 49, 0
5, 16025, Note_on_c, 1, 37, 0
5, 16032, Note_on_c, 1, 50, 75
5, 16032, Note_on_c, 1, 38, 75
5, 16121, Note_on_c, 1, 50, 0
5, 16121, Note_on_c, 1, 38, 0
5, 18240, Note_on_c, 1, 52, 80
5, 18329, Note_on_c, 1, 52, 0
5, 18432, Note_on_c, 1, 52, 80
5, 18521, Note_on_c, 1, 52, 0
5, 18624, Note_on_c, 1, 52, 80
5, 18801, Note_on_c, 1, 52, 0
5, 18912, Note_on_c, 1, 49, 75
5, 18912, Note_on_c, 1, 37, 75
5, 19001, Note_on_c, 1, 49, 0
5, 19001, Note_on_c, 1, 37, 0
5, 20592, Note_on_c, 1, 49, 75
5, 20637, Note_on_c, 1, 49, 0
5, 20640, Note_on_c, 1, 50, 75
5, 20685, Note_on_c, 1, 50, 0
5, 20688, Note_on_c, 1, 52, 75
5, 20733, Note_on_c, 1, 52, 0
5, 20976, Note_on_c, 1, 49, 75
5, 21021, Note_on_c, 1, 49, 0
5, 21024, Note_on_c, 1, 50, 75
5, 21069, Note_on_c, 1, 50, 0
5, 21072, Note_on_c, 1, 52, 75
5, 21117, Note_on_c, 1, 52, 0
5, 21264, Note_on_c, 1, 69, 56
5, 21357, Note_on_c, 1, 69, 0
5, 21360, Note_on_c, 1, 67, 57
5, 21453, Note_on_c, 1, 67, 0
5, 21456, Note_on_c, 1, 65, 59
5, 21549, Note_on_c, 1, 65, 0
5, 21552, Note_on_c, 1, 64, 61
5, 21645, Note_on_c, 1, 64, 0
5, 21648, Note_on_c, 1, 62, 63
5, 21741, Note_on_c, 1, 62, 0
5, 21744, Note_on_c, 1, 60, 65
5, 21789, Note_on_c, 1, 60, 0
5, 21792, Note_on_c, 1, 56, 66
5, 21837, Note_on_c, 1, 56, 0
5, 21840, Note_on_c, 1, 57, 67
5, 21885, Note_on_c, 1, 57, 0
5, 22512, Note_on_c, 1, 61, 63
5, 22512, Note_on_c, 1, 49, 63
5, 22557, Note_on_c, 1, 61, 0
5, 22557, Note_on_c, 1, 49, 0
5, 22560, Note_on_c, 1, 62, 63
5, 22560, Note_on_c, 1, 50, 63
5, 22605, Note_on_c, 1, 62, 0
5, 22605, Note_on_c, 1, 50, 0
5, 22608, Note_on_c, 1, 64, 63
5, 22608, Note_on_c, 1, 52, 63
5, 22653, Note_on_c, 1, 64, 0
5, 22653, Note_on_c, 1, 52, 0
5, 25248, Note_on_c, 1, 50, 75
5, 25248, Note_on_c, 1, 38, 75
5, 25337, Note_on_c, 1, 50, 0
5, 25337, Note_on_c, 1, 38, 0
5, 25344, Note_on_c, 1, 52, 68
5, 25344, Note_on_c, 1, 40, 68
5, 25433, Note_on_c, 1, 52, 0
5, 25433, Note_on_c, 1, 40, 0
5, 26400, Note_on_c, 1, 54, 68
5, 26445, Note_on_c, 1, 54, 0
5, 26448, Note_on_c, 1, 55, 68
5, 26493, Note_on_c, 1, 55, 0
5, 26496, Note_on_c, 1, 57, 68
5, 26622, Note_on_c, 1, 57, 0
5, 27216, Note_on_c, 1, 59, 68
5, 27261, Note_on_c, 1, 59, 0
5, 27264, Note_on_c, 1, 57, 68
5, 27309, Note_on_c, 1, 57, 0
5, 27312, Note_on_c, 1, 55, 68
5, 27357, Note_on_c, 1, 55, 0
5, 27360, Note_on_c, 1, 54, 68
5, 27427, Note_on_c, 1, 54, 0
5, 27888, Note_on_c, 1, 55, 63
5, 27935, Note_on_c, 1, 55, 0
5, 27936, Note_on_c, 1, 55, 63
5, 27983, Note_on_c, 1, 55, 0
5, 27984, Note_on_c, 1, 55, 63
5, 28031, Note_on_c, 1, 55, 0
5, 28080, Note_on_c, 1, 55, 63
5, 28128, Note_on_c, 1, 55, 0
5, 28128, Note_on_c, 1, 54, 63
5, 28175, Note_on_c, 1, 54, 0
5, 28176, Note_on_c, 1, 54, 63
5, 28223, Note_on_c, 1, 54, 0
5, 29760, Note_on_c, 1, 42, 75
5, 29760, Note_on_c, 1, 30, 75
5, 29849, Note_on_c, 1, 42, 0
5, 29849, Note_on_c, 1, 30, 0
5, 29856, Note_on_c, 1, 43, 75
5, 29856, Note_on_c, 1, 31, 75
5, 29945, Note_on_c, 1, 43, 0
5, 29945, Note_on_c, 1, 31, 0
5, 29952, Note_on_c, 1, 45, 75
5, 29952, Note_on_c, 1, 33, 75
5, 30041, Note_on_c, 1, 45, 0
5, 30041, Note_on_c, 1, 33, 0
5, 32064, Note_on_c, 1, 45, 75
5, 32153, Note_on_c, 1, 45, 0
5, 32256, Note_on_c, 1, 45, 75
5, 32345, Note_on_c, 1, 45, 0
5, 32448, Note_on_c, 1, 45, 75
5, 32625, Note_on_c, 1, 45, 0
5, 32736, Note_on_c, 1, 54, 75
5, 32736, Note_on_c, 1, 42, 75
5, 32825, Note_on_c, 1, 54, 0
5, 32825, Note_on_c, 1, 42, 0
5, 32832, Note_on_c, 1, 55, 75
5, 32832, Note_on_c, 1, 43, 75
5, 32921, Note_on_c, 1, 55, 0
5, 32921, Note_on_c, 1, 43, 0
5, 32928, Note_on_c, 1, 57, 75
5, 32928, Note_on_c, 1, 45, 75
5, 33017, Note_on_c, 1, 57, 0
5, 33017, Note_on_c, 1, 45, 0
5, 34416, Note_on_c, 1, 54, 75
5, 34461, Note_on_c, 1, 54, 0
5, 34464, Note_on_c, 1, 55, 75
5, 34509, Note_on_c, 1, 55, 0
5, 34512, Note_on_c, 1, 57, 75
5, 34557, Note_on_c, 1, 57, 0
5, 34800, Note_on_c, 1, 54, 75
5, 34845, Note_on_c, 1, 54, 0
5, 34848, Note_on_c, 1, 55, 75
5, 34893, Note_on_c, 1, 55, 0
5, 34896, Note_on_c, 1, 57, 75
5, 34941, Note_on_c, 1, 57, 0
5, 35088, Note_on_c, 1, 62, 56
5, 35181, Note_on_c, 1, 62, 0
5, 35184, Note_on_c, 1, 60, 57
5, 35277, Note_on_c, 1, 60, 0
5, 35280, Note_on_c, 1, 58, 59
5, 35373, Note_on_c, 1, 58, 0
5, 35376, Note_on_c, 1, 57, 61
5, 35469, Note_on_c, 1, 57, 0
5, 35472, Note_on_c, 1, 55, 63
5, 35565, Note_on_c, 1, 55, 0
5, 35568, Note_on_c, 1, 53, 65
5, 35613, Note_on_c, 1, 53, 0
5, 35616, Note_on_c, 1, 49, 66
5, 35661, Note_on_c, 1, 49, 0
5, 35664, Note_on_c, 1, 50, 67
5, 35709, Note_on_c, 1, 50, 0
5, 39456, Note_on_c, 1, 50, 75
5, 39456, Note_on_c, 1, 38, 75
5, 39545, Note_on_c, 1, 50, 0
5, 39545, Note_on_c, 1, 38, 0
5, 39552, Note_on_c, 1, 52, 68
5, 39552, Note_on_c, 1, 40, 68
5, 39641, Note_on_c, 1, 52, 0
5, 39641, Note_on_c, 1, 40, 0
5, 40608, Note_on_c, 1, 54, 68
5, 40653, Note_on_c, 1, 54, 0
5, 40656, Note_on_c, 1, 55, 68
5, 40701, Note_on_c, 1, 55, 0
5, 40704, Note_on_c, 1, 57, 68
5, 40830, Note_on_c, 1, 57, 0
5, 41424, Note_on_c, 1, 59, 68
5, 41469, Note_on_c, 1, 59, 0
5, 41472, Note_on_c, 1, 57, 68
5, 41517, Note_on_c, 1, 57, 0
5, 41520, Note_on_c, 1, 55, 68
5, 41565, Note_on_c, 1, 55, 0
5, 41568, Note_on_c, 1, 54, 68
5, 41635, Note_on_c, 1, 54, 0
5, 42096, Note_on_c, 1, 55, 63
5, 42143, Note_on_c, 1, 55, 0
5, 42144, Note_on_c, 1, 55, 63
5, 42191, Note_on_c, 1, 55, 0
5, 42192, Note_on_c, 1, 55, 63
5, 42239, Note_on_c, 1, 55, 0
5, 42288, Note_on_c, 1, 55, 63
5, 42336, Note_on_c, 1, 55, 0
5, 42336, Note_on_c, 1, 54, 63
5, 42383, Note_on_c, 1, 54, 0
5, 42384, Note_on_c, 1, 54, 63
5, 42431, Note_on_c, 1, 54, 0
5, 43968, Note_on_c, 1, 42, 75
5, 43968, Note_on_c, 1, 30, 75
5, 44057, Note_on_c, 1, 42, 0
5, 44057, Note_on_c, 1, 30, 0
5, 44064, Note_on_c, 1, 43, 75
5, 44064, Note_on_c, 1, 31, 75
5, 44153, Note_on_c, 1, 43, 0
5, 44153, Note_on_c, 1, 31, 0
5, 44160, Note_on_c, 1, 45, 75
5, 44160, Note_on_c, 1, 33, 75
5, 44249, Note_on_c, 1, 45, 0
5, 44249, Note_on_c, 1, 33, 0
5, 46272, Note_on_c, 1, 45, 75
5, 46361, Note_on_c, 1, 45, 0
5, 46464, Note_on_c, 1, 45, 75
5, 46553, Note_on_c, 1, 45, 0
5, 46656, Note_on_c, 1, 45, 75
5, 46833, Note_on_c, 1, 45, 0
5, 46944, Note_on_c, 1, 54, 75
5, 46944, Note_on_c, 1, 42, 75
5, 47033, Note_on_c, 1, 54, 0
5, 47033, Note_on_c, 1, 42, 0
5, 47040, Note_on_c, 1, 55, 75
5, 47040, Note_on_c, 1, 43, 75
5, 47129, Note_on_c, 1, 55, 0
5, 47129, Note_on_c, 1, 43, 0
5, 47136, Note_on_c, 1, 57, 75
5, 47136, Note_on_c, 1, 45, 75
5, 47225, Note_on_c, 1, 57, 0
5, 47225, Note_on_c, 1, 45, 0
5, 48624, Note_on_c, 1, 54, 75
5, 48669, Note_on_c, 1, 54, 0
5, 48672, Note_on_c, 1, 55, 75
5, 48717, Note_on_c, 1, 55, 0
5, 48720, Note_on_c, 1, 57, 75
5, 48765, Note_on_c, 1, 57, 0
5, 49008, Note_on_c, 1, 54, 75
5, 49053, Note_on_c, 1, 54, 0
5, 49056, Note_on_c, 1, 55, 75
5, 49101, Note_on_c, 1, 55, 0
5, 49104, Note_on_c, 1, 57, 75
5, 49149, Note_on_c, 1, 57, 0
5, 49296, Note_on_c, 1, 62, 56
5, 49389, Note_on_c, 1, 62, 0
5, 49392, Note_on_c, 1, 60, 57
5, 49485, Note_on_c, 1, 60, 0
5, 49488, Note_on_c, 1, 58, 59
5, 49581, Note_on_c, 1, 58, 0
5, 49584, Note_on_c, 1, 57, 61
5, 49677, Note_on_c, 1, 57, 0
5, 49680, Note_on_c, 1, 55, 63
5, 49773, Note_on_c, 1, 55, 0
5, 49776, Note_on_c, 1, 53, 65
5, 49821, Note_on_c, 1, 53, 0
5, 49824, Note_on_c, 1, 49, 66
5, 49869, Note_on_c, 1, 49, 0
5, 49872, Note_on_c, 1, 50, 67
5, 49917, Note_on_c, 1, 50, 0
5, 51264, End_track
6, 0, Start_track
6, 0, Title_t, "Piano Solo   <composer>  "
6, 0, End_track
0, 0, End_of_file
